,note,step,duration,channel,velocity
0,60.0,384,512,0.0,0.0
1,65.0,128,768,0.0,0.0
2,53.0,128,128,2.0,0.0
3,55.0,256,128,2.0,0.0
4,56.0,0,256,2.0,0.0
5,67.0,0,128,0.0,0.0
6,58.0,128,128,2.0,0.0
7,60.0,256,128,2.0,0.0
8,68.0,0,128,0.0,0.0
9,61.0,256,256,2.0,0.0
10,67.0,128,768,0.0,0.0
11,58.0,256,256,2.0,0.0
12,52.0,0,256,2.0,0.0
13,60.0,0,256,2.0,0.0
14,65.0,128,128,0.0,0.0
15,67.0,384,128,0.0,0.0
16,53.0,256,512,2.0,0.0
17,68.0,0,1024,0.0,0.0
18,56.0,128,128,1.0,0.0
19,58.0,0,128,1.0,0.0
20,51.0,0,512,2.0,0.0
21,60.0,128,256,1.0,0.0
22,62.0,128,128,1.0,0.0
23,63.0,256,128,1.0,0.0
24,70.0,0,512,0.0,0.0
25,50.0,0,512,2.0,0.0
26,65.0,256,256,1.0,0.0
27,58.0,256,256,1.0,0.0
28,68.0,0,512,0.0,0.0
29,46.0,256,512,2.0,0.0
30,53.0,256,256,1.0,0.0
31,62.0,256,768,1.0,0.0
32,67.0,128,256,0.0,0.0
33,51.0,0,1024,2.0,0.0
34,69.0,128,128,0.0,0.0
35,71.0,0,128,0.0,0.0
36,72.0,128,256,0.0,0.0
37,60.0,256,1024,1.0,0.0
38,74.0,128,128,0.0,0.0
39,75.0,256,128,0.0,0.0
40,50.0,0,1024,2.0,0.0
41,77.0,256,256,0.0,0.0
42,74.0,0,256,0.0,0.0
43,59.0,384,512,1.0,0.0
44,67.0,256,256,0.0,0.0
45,77.0,0,256,0.0,0.0
46,60.0,0,1024,1.0,0.0
47,75.0,384,1024,0.0,0.0
48,48.0,128,128,2.0,0.0
49,50.0,256,128,2.0,0.0
50,51.0,128,256,2.0,0.0
51,53.0,128,128,2.0,0.0
52,55.0,0,128,2.0,0.0
53,56.0,128,1280,2.0,0.0
54,65.0,128,128,0.0,0.0
55,67.0,256,128,0.0,0.0
56,68.0,128,256,0.0,0.0
57,70.0,128,128,0.0,0.0
58,72.0,256,128,0.0,0.0
59,73.0,128,1280,0.0,0.0
60,46.0,128,128,2.0,0.0
61,48.0,256,128,2.0,0.0
62,49.0,128,256,2.0,0.0
63,51.0,128,128,2.0,0.0
64,53.0,256,128,2.0,0.0
65,55.0,256,1536,2.0,0.0
66,63.0,128,128,0.0,0.0
67,65.0,256,128,0.0,0.0
68,67.0,128,256,0.0,0.0
69,68.0,128,128,0.0,0.0
70,70.0,384,128,0.0,0.0
71,72.0,0,3584,0.0,0.0
72,62.0,128,128,1.0,0.0
73,64.0,0,128,1.0,0.0
74,65.0,128,256,1.0,0.0
75,53.0,256,1024,2.0,0.0
76,67.0,128,128,1.0,0.0
77,68.0,256,128,1.0,0.0
78,70.0,256,256,1.0,0.0
79,67.0,0,256,1.0,0.0
80,60.0,256,256,1.0,0.0
81,52.0,256,512,2.0,0.0
82,70.0,0,256,1.0,0.0
83,68.0,0,512,1.0,0.0
84,53.0,128,256,2.0,0.0
85,41.0,128,128,2.0,0.0
86,43.0,256,128,2.0,0.0
87,67.0,0,512,1.0,0.0
88,44.0,128,256,2.0,0.0
89,46.0,128,128,2.0,0.0
90,48.0,256,128,2.0,0.0
91,65.0,0,512,1.0,0.0
92,49.0,256,256,2.0,0.0
93,46.0,256,256,2.0,0.0
94,41.0,256,256,2.0,0.0
95,70.0,128,768,0.0,0.0
96,67.0,256,1024,1.0,0.0
97,49.0,256,256,2.0,0.0
98,40.0,0,512,2.0,0.0
99,48.0,0,2048,3.0,0.0
100,36.0,0,2048,4.0,0.0
101,72.0,128,128,0.0,0.0
102,70.0,0,128,0.0,0.0
103,68.0,128,256,0.0,0.0
104,41.0,0,512,2.0,0.0
105,65.0,256,1024,1.0,0.0
106,70.0,128,128,0.0,0.0
107,72.0,256,128,0.0,0.0
108,36.0,0,512,2.0,0.0
109,73.0,256,256,0.0,0.0
110,70.0,0,256,0.0,0.0
111,64.0,0,512,1.0,0.0
112,67.0,256,256,0.0,0.0
113,48.0,256,512,2.0,0.0
114,72.0,0,256,0.0,0.0
115,65.0,128,256,1.0,0.0
116,49.0,256,512,2.0,0.0
117,41.0,0,1024,4.0,0.0
118,53.0,0,1024,3.0,0.0
119,68.0,0,512,0.0,0.0
120,53.0,128,128,1.0,0.0
121,55.0,0,128,1.0,0.0
122,65.0,256,1024,0.0,0.0
123,48.0,0,512,2.0,0.0
124,56.0,128,256,1.0,0.0
125,58.0,128,128,1.0,0.0
126,60.0,256,128,1.0,0.0
127,61.0,256,256,1.0,0.0
128,43.0,0,1024,4.0,0.0
129,46.0,0,512,2.0,0.0
130,55.0,0,1024,3.0,0.0
131,58.0,0,256,1.0,0.0
132,48.0,0,512,2.0,0.0
133,64.0,512,512,0.0,0.0
134,55.0,256,256,1.0,0.0
135,60.0,0,256,1.0,0.0
136,53.0,0,1024,1.0,0.0
137,44.0,0,1024,4.0,0.0
138,56.0,384,1024,3.0,0.0
139,65.0,384,2048,0.0,0.0
140,48.0,256,256,2.0,0.0
141,41.0,256,256,2.0,0.0
142,51.0,0,256,2.0,0.0
143,58.0,0,512,3.0,0.0
144,46.0,0,512,4.0,0.0
145,50.0,0,512,2.0,0.0
146,58.0,128,128,1.0,0.0
147,60.0,256,128,1.0,0.0
148,56.0,0,512,3.0,0.0
149,44.0,0,512,4.0,0.0
150,62.0,128,256,1.0,0.0
151,46.0,0,512,2.0,0.0
152,63.0,128,128,1.0,0.0
153,65.0,0,128,1.0,0.0
154,55.0,0,1536,3.0,0.0
155,51.0,0,512,2.0,0.0
156,67.0,128,2304,1.0,0.0
157,43.0,0,1536,4.0,0.0
158,69.0,128,128,0.0,0.0
159,71.0,256,128,0.0,0.0
160,72.0,0,256,0.0,0.0
161,50.0,128,256,2.0,0.0
162,74.0,128,128,0.0,0.0
163,48.0,0,256,2.0,0.0
164,75.0,256,128,0.0,0.0
165,47.0,256,512,2.0,0.0
166,77.0,256,256,0.0,0.0
167,74.0,0,256,0.0,0.0
168,70.0,256,256,0.0,0.0
169,41.0,0,512,4.0,0.0
170,53.0,256,512,3.0,0.0
171,43.0,0,512,2.0,0.0
172,74.0,0,768,0.0,0.0
173,51.0,0,1024,3.0,0.0
174,48.0,256,512,2.0,0.0
175,63.0,128,128,1.0,0.0
176,65.0,0,128,1.0,0.0
177,73.0,0,512,0.0,0.0
178,46.0,0,512,2.0,0.0
179,67.0,128,256,1.0,0.0
180,68.0,128,128,1.0,0.0
181,70.0,0,128,1.0,0.0
182,39.0,256,0,4.0,0.0
183,44.0,256,512,2.0,0.0
184,72.0,256,256,1.0,0.0
185,72.0,128,1280,0.0,0.0
186,51.0,0,1024,3.0,0.0
187,68.0,0,256,1.0,0.0
188,63.0,256,256,1.0,0.0
189,56.0,0,512,2.0,0.0
190,66.0,256,256,1.0,0.0
191,65.0,0,256,1.0,0.0
192,49.0,0,512,2.0,0.0
193,65.0,128,128,0.0,0.0
194,67.0,256,128,0.0,0.0
195,68.0,128,256,0.0,0.0
196,48.0,0,512,2.0,0.0
197,70.0,128,128,0.0,0.0
198,72.0,512,128,0.0,0.0
199,41.0,0,0,4.0,0.0
200,46.0,0,512,2.0,0.0
201,53.0,0,0,3.0,0.0
202,73.0,128,1280,0.0,0.0
203,70.0,256,256,1.0,0.0
204,58.0,0,512,2.0,0.0
205,65.0,256,256,1.0,0.0
206,68.0,0,256,1.0,0.0
207,52.0,256,512,2.0,0.0
208,67.0,0,512,1.0,0.0
209,55.0,256,1024,3.0,0.0
210,70.0,128,128,0.0,0.0
211,68.0,0,128,0.0,0.0
212,50.0,0,512,2.0,0.0
213,67.0,128,256,0.0,0.0
214,68.0,128,128,0.0,0.0
215,70.0,0,128,0.0,0.0
216,48.0,0,256,2.0,0.0
217,43.0,0,0,4.0,0.0
218,64.0,128,256,0.0,0.0
219,55.0,384,1024,3.0,0.0
220,36.0,128,128,2.0,0.0
221,67.0,256,256,0.0,0.0
222,38.0,0,128,2.0,0.0
223,60.0,128,256,0.0,0.0
224,40.0,0,256,2.0,0.0
225,41.0,128,128,2.0,0.0
226,64.0,0,256,0.0,0.0
227,43.0,0,128,2.0,0.0
228,36.0,256,3072,4.0,0.0
229,65.0,0,512,0.0,0.0
230,48.0,0,3072,3.0,0.0
231,44.0,256,512,2.0,0.0
232,60.0,128,128,1.0,0.0
233,62.0,0,128,1.0,0.0
234,43.0,384,512,2.0,0.0
235,64.0,128,256,1.0,0.0
236,65.0,128,128,1.0,0.0
237,67.0,0,128,1.0,0.0
238,68.0,0,512,1.0,0.0
239,41.0,256,512,2.0,0.0
240,72.0,128,128,0.0,0.0
241,74.0,0,128,0.0,0.0
242,76.0,128,256,0.0,0.0
243,36.0,0,512,2.0,0.0
244,77.0,128,128,0.0,0.0
245,79.0,256,128,0.0,0.0
246,39.0,128,256,2.0,0.0
247,80.0,256,512,0.0,0.0
248,48.0,128,128,2.0,0.0
249,72.0,128,512,1.0,0.0
250,50.0,0,128,2.0,0.0
251,52.0,0,256,2.0,0.0
252,79.0,256,1280,0.0,0.0
253,53.0,128,128,2.0,0.0
254,70.0,128,512,1.0,0.0
255,55.0,0,128,2.0,0.0
256,56.0,0,512,2.0,0.0
257,68.0,128,128,1.0,0.0
258,67.0,256,128,1.0,0.0
259,53.0,256,512,2.0,0.0
260,68.0,0,512,1.0,0.0
261,77.0,0,512,0.0,0.0
262,67.0,256,1024,1.0,0.0
263,60.0,128,256,2.0,0.0
264,55.0,256,256,2.0,0.0
265,76.0,128,128,0.0,0.0
266,74.0,0,128,0.0,0.0
267,76.0,128,256,0.0,0.0
268,48.0,0,256,2.0,0.0
269,50.0,128,128,2.0,0.0
270,79.0,128,512,0.0,0.0
271,52.0,0,128,2.0,0.0
272,68.0,0,512,1.0,0.0
273,53.0,0,512,2.0,0.0
274,72.0,128,128,0.0,0.0
275,73.0,256,128,0.0,0.0
276,48.0,0,256,2.0,0.0
277,75.0,128,256,0.0,0.0
278,46.0,256,256,2.0,0.0
279,77.0,128,128,0.0,0.0
280,78.0,0,0,0.0,0.0
281,72.0,0,1536,1.0,0.0
282,45.0,128,256,2.0,0.0
283,77.0,0,256,0.0,0.0
284,41.0,128,128,2.0,0.0
285,44.0,256,128,2.0,0.0
286,77.0,128,256,0.0,0.0
287,45.0,0,256,2.0,0.0
288,46.0,128,128,2.0,0.0
289,75.0,256,256,0.0,0.0
290,48.0,0,128,2.0,0.0
291,49.0,256,256,2.0,0.0
292,75.0,0,256,0.0,0.0
293,46.0,0,256,2.0,0.0
294,74.0,256,0,0.0,0.0
295,44.0,256,256,2.0,0.0
296,70.0,0,256,1.0,0.0
297,68.0,0,256,1.0,0.0
298,46.0,256,256,2.0,0.0
299,70.0,0,512,1.0,0.0
300,40.0,256,512,2.0,0.0
301,67.0,128,128,0.0,0.0
302,68.0,0,128,0.0,0.0
303,43.0,256,512,2.0,0.0
304,70.0,128,256,0.0,0.0
305,72.0,128,128,0.0,0.0
306,73.0,256,384,0.0,0.0
307,36.0,256,512,2.0,0.0
308,64.0,384,1024,1.0,0.0
309,70.0,0,256,0.0,0.0
310,67.0,256,256,0.0,0.0
311,48.0,0,512,2.0,0.0
312,72.0,0,256,0.0,0.0
313,68.0,0,512,0.0,0.0
314,53.0,256,512,2.0,0.0
315,65.0,128,128,1.0,0.0
316,67.0,0,128,1.0,0.0
317,41.0,0,512,2.0,0.0
318,68.0,128,256,1.0,0.0
319,70.0,128,128,1.0,0.0
320,72.0,512,128,1.0,0.0
321,46.0,256,512,2.0,0.0
322,61.0,0,512,1.0,0.0
323,70.0,0,256,0.0,0.0
324,49.0,0,512,2.0,0.0
325,65.0,256,256,0.0,0.0
326,68.0,384,256,0.0,0.0
327,67.0,0,512,0.0,0.0
328,40.0,256,512,2.0,0.0
329,60.0,128,128,1.0,0.0
330,62.0,0,128,1.0,0.0
331,64.0,128,256,1.0,0.0
332,36.0,512,512,2.0,0.0
333,65.0,128,128,1.0,0.0
334,67.0,0,128,1.0,0.0
335,56.0,0,512,1.0,0.0
336,41.0,0,512,2.0,0.0
337,65.0,256,256,0.0,0.0
338,59.0,256,256,0.0,0.0
339,53.0,384,512,2.0,0.0
340,62.0,0,256,0.0,0.0
341,48.0,256,1024,2.0,0.0
342,63.0,0,1024,0.0,0.0
343,55.0,128,128,1.0,0.0
344,56.0,256,128,1.0,0.0
345,58.0,128,256,1.0,0.0
346,60.0,128,128,1.0,0.0
347,61.0,0,128,1.0,0.0
348,52.0,256,256,1.0,0.0
349,60.0,256,256,1.0,0.0
350,60.0,256,768,0.0,0.0
351,55.0,256,256,1.0,0.0
352,58.0,0,256,1.0,0.0
353,56.0,128,256,1.0,0.0
354,65.0,128,768,0.0,0.0
355,53.0,128,128,2.0,0.0
356,55.0,256,128,2.0,0.0
357,56.0,0,256,2.0,0.0
358,58.0,0,128,2.0,0.0
359,67.0,128,128,0.0,0.0
360,60.0,0,128,2.0,0.0
361,68.0,256,128,0.0,0.0
362,67.0,0,768,0.0,0.0
363,61.0,256,256,2.0,0.0
364,58.0,256,256,2.0,0.0
365,52.0,128,256,2.0,0.0
366,65.0,128,128,0.0,0.0
367,60.0,384,256,2.0,0.0
368,67.0,0,128,0.0,0.0
369,53.0,0,512,2.0,0.0
370,68.0,0,1024,0.0,0.0
371,56.0,128,128,1.0,0.0
372,58.0,256,128,1.0,0.0
373,51.0,256,512,2.0,0.0
374,60.0,128,256,1.0,0.0
375,62.0,128,128,1.0,0.0
376,63.0,0,128,1.0,0.0
377,70.0,0,512,0.0,0.0
378,65.0,256,256,1.0,0.0
379,50.0,256,512,2.0,0.0
380,58.0,0,256,1.0,0.0
381,68.0,256,512,0.0,0.0
382,46.0,0,512,2.0,0.0
383,53.0,256,256,1.0,0.0
384,62.0,256,768,1.0,0.0
385,51.0,256,1024,2.0,0.0
386,67.0,128,256,0.0,0.0
387,69.0,128,128,0.0,0.0
388,71.0,0,128,0.0,0.0
389,60.0,0,1024,1.0,0.0
390,72.0,128,256,0.0,0.0
391,74.0,128,128,0.0,0.0
392,75.0,0,128,0.0,0.0
393,77.0,256,256,0.0,0.0
394,50.0,0,1024,2.0,0.0
395,74.0,256,256,0.0,0.0
396,59.0,0,512,1.0,0.0
397,67.0,256,256,0.0,0.0
398,77.0,384,256,0.0,0.0
399,75.0,0,1024,0.0,0.0
400,60.0,0,1024,1.0,0.0
401,48.0,128,128,2.0,0.0
402,50.0,256,128,2.0,0.0
403,51.0,128,256,2.0,0.0
404,53.0,128,128,2.0,0.0
405,55.0,384,128,2.0,0.0
406,56.0,128,1280,2.0,0.0
407,65.0,128,128,0.0,0.0
408,67.0,256,128,0.0,0.0
409,68.0,128,256,0.0,0.0
410,70.0,128,128,0.0,0.0
411,72.0,256,128,0.0,0.0
412,73.0,128,1280,0.0,0.0
413,46.0,128,128,2.0,0.0
414,48.0,256,128,2.0,0.0
415,49.0,128,256,2.0,0.0
416,51.0,128,128,2.0,0.0
417,53.0,256,128,2.0,0.0
418,55.0,256,1536,2.0,0.0
419,63.0,128,128,0.0,0.0
420,65.0,256,128,0.0,0.0
421,67.0,128,256,0.0,0.0
422,68.0,128,128,0.0,0.0
423,70.0,384,128,0.0,0.0
424,72.0,0,3584,0.0,0.0
425,62.0,128,128,1.0,0.0
426,64.0,0,128,1.0,0.0
427,65.0,128,256,1.0,0.0
428,53.0,0,1024,2.0,0.0
429,67.0,128,128,1.0,0.0
430,68.0,256,128,1.0,0.0
431,70.0,256,256,1.0,0.0
432,67.0,256,256,1.0,0.0
433,52.0,256,512,2.0,0.0
434,60.0,256,256,1.0,0.0
435,70.0,0,256,1.0,0.0
436,53.0,128,256,2.0,0.0
437,68.0,256,512,1.0,0.0
438,41.0,128,128,2.0,0.0
439,43.0,0,128,2.0,0.0
440,44.0,128,256,2.0,0.0
441,67.0,0,512,1.0,0.0
442,46.0,128,128,2.0,0.0
443,48.0,256,128,2.0,0.0
444,49.0,256,256,2.0,0.0
445,65.0,256,512,1.0,0.0
446,46.0,0,256,2.0,0.0
447,41.0,256,256,2.0,0.0
448,70.0,128,768,0.0,0.0
449,67.0,256,1024,1.0,0.0
450,49.0,256,256,2.0,0.0
451,36.0,0,2048,4.0,0.0
452,48.0,0,2048,3.0,0.0
453,40.0,0,512,2.0,0.0
454,72.0,128,128,0.0,0.0
455,70.0,0,128,0.0,0.0
456,41.0,256,512,2.0,0.0
457,68.0,128,256,0.0,0.0
458,65.0,0,1024,1.0,0.0
459,70.0,128,128,0.0,0.0
460,72.0,0,128,0.0,0.0
461,73.0,256,256,0.0,0.0
462,36.0,0,512,2.0,0.0
463,70.0,256,256,0.0,0.0
464,48.0,0,512,2.0,0.0
465,67.0,256,256,0.0,0.0
466,64.0,256,512,1.0,0.0
467,72.0,0,256,0.0,0.0
468,41.0,0,1024,4.0,0.0
469,49.0,256,512,2.0,0.0
470,68.0,0,512,0.0,0.0
471,65.0,128,256,1.0,0.0
472,53.0,0,1024,3.0,0.0
473,53.0,128,128,1.0,0.0
474,55.0,0,128,1.0,0.0
475,56.0,128,256,1.0,0.0
476,65.0,256,1024,0.0,0.0
477,48.0,256,512,2.0,0.0
478,58.0,128,128,1.0,0.0
479,60.0,0,128,1.0,0.0
480,61.0,256,256,1.0,0.0
481,43.0,0,1024,4.0,0.0
482,55.0,512,1024,3.0,0.0
483,46.0,0,512,2.0,0.0
484,58.0,0,256,1.0,0.0
485,48.0,0,512,2.0,0.0
486,64.0,0,512,0.0,0.0
487,55.0,256,256,1.0,0.0
488,60.0,0,256,1.0,0.0
489,53.0,0,1024,1.0,0.0
490,65.0,0,2048,0.0,0.0
491,44.0,0,1024,4.0,0.0
492,56.0,0,1024,3.0,0.0
493,48.0,256,256,2.0,0.0
494,41.0,256,256,2.0,0.0
495,51.0,384,256,2.0,0.0
496,46.0,256,512,4.0,0.0
497,58.0,0,512,3.0,0.0
498,50.0,0,512,2.0,0.0
499,58.0,128,128,1.0,0.0
500,60.0,0,128,1.0,0.0
501,56.0,0,512,3.0,0.0
502,44.0,0,512,4.0,0.0
503,62.0,128,256,1.0,0.0
504,46.0,384,512,2.0,0.0
505,63.0,128,128,1.0,0.0
506,65.0,0,128,1.0,0.0
507,67.0,128,2304,1.0,0.0
508,51.0,0,512,2.0,0.0
509,55.0,0,1536,3.0,0.0
510,43.0,256,1536,4.0,0.0
511,69.0,128,128,0.0,0.0
512,71.0,256,128,0.0,0.0
513,50.0,128,256,2.0,0.0
514,72.0,0,256,0.0,0.0
515,74.0,128,128,0.0,0.0
516,48.0,0,256,2.0,0.0
517,75.0,256,128,0.0,0.0
518,47.0,0,512,2.0,0.0
519,77.0,256,256,0.0,0.0
520,74.0,0,256,0.0,0.0
521,70.0,256,256,0.0,0.0
522,41.0,256,512,4.0,0.0
523,43.0,0,512,2.0,0.0
524,53.0,0,512,3.0,0.0
525,74.0,256,768,0.0,0.0
526,39.0,0,1024,4.0,0.0
527,48.0,0,512,2.0,0.0
528,63.0,128,128,1.0,0.0
529,65.0,0,128,1.0,0.0
530,67.0,128,256,1.0,0.0
531,73.0,0,512,0.0,0.0
532,46.0,256,512,2.0,0.0
533,68.0,128,128,1.0,0.0
534,70.0,0,128,1.0,0.0
535,72.0,256,256,1.0,0.0
536,51.0,0,0,3.0,0.0
537,44.0,0,512,2.0,0.0
538,72.0,0,1280,0.0,0.0
539,39.0,0,1024,4.0,0.0
540,68.0,256,256,1.0,0.0
541,63.0,256,256,1.0,0.0
542,56.0,256,512,2.0,0.0
543,66.0,0,256,1.0,0.0
544,49.0,256,512,2.0,0.0
545,65.0,128,256,1.0,0.0
546,65.0,128,128,0.0,0.0
547,67.0,0,128,0.0,0.0
548,48.0,512,512,2.0,0.0
549,68.0,128,256,0.0,0.0
550,70.0,128,128,0.0,0.0
551,72.0,0,128,0.0,0.0
552,41.0,0,0,4.0,0.0
553,73.0,128,1280,0.0,0.0
554,53.0,0,0,3.0,0.0
555,46.0,256,512,2.0,0.0
556,70.0,0,256,1.0,0.0
557,65.0,256,256,1.0,0.0
558,58.0,0,512,2.0,0.0
559,68.0,0,256,1.0,0.0
560,52.0,0,512,2.0,0.0
561,43.0,0,1024,4.0,0.0
562,55.0,0,1024,3.0,0.0
563,67.0,256,512,1.0,0.0
564,70.0,128,128,0.0,0.0
565,68.0,0,128,0.0,0.0
566,50.0,256,512,2.0,0.0
567,67.0,128,256,0.0,0.0
568,68.0,128,128,0.0,0.0
569,70.0,0,128,0.0,0.0
570,55.0,0,1024,3.0,0.0
571,43.0,384,1024,4.0,0.0
572,48.0,128,256,2.0,0.0
573,64.0,0,256,0.0,0.0
574,36.0,128,128,2.0,0.0
575,67.0,0,256,0.0,0.0
576,38.0,256,128,2.0,0.0
577,60.0,0,256,0.0,0.0
578,40.0,128,256,2.0,0.0
579,41.0,128,128,2.0,0.0
580,64.0,0,256,0.0,0.0
581,43.0,0,128,2.0,0.0
582,65.0,0,512,0.0,0.0
583,48.0,0,3072,3.0,0.0
584,44.0,256,512,2.0,0.0
585,36.0,0,3072,4.0,0.0
586,60.0,128,128,1.0,0.0
587,62.0,0,128,1.0,0.0
588,43.0,384,512,2.0,0.0
589,64.0,128,256,1.0,0.0
590,65.0,128,128,1.0,0.0
591,67.0,0,128,1.0,0.0
592,68.0,0,512,1.0,0.0
593,41.0,0,512,2.0,0.0
594,72.0,128,128,0.0,0.0
595,74.0,256,128,0.0,0.0
596,36.0,0,512,2.0,0.0
597,76.0,128,256,0.0,0.0
598,77.0,128,128,0.0,0.0
599,79.0,256,128,0.0,0.0
600,39.0,128,256,2.0,0.0
601,80.0,0,512,0.0,0.0
602,72.0,128,512,1.0,0.0
603,48.0,128,128,2.0,0.0
604,50.0,256,128,2.0,0.0
605,79.0,256,1280,0.0,0.0
606,52.0,0,256,2.0,0.0
607,53.0,128,128,2.0,0.0
608,70.0,128,512,1.0,0.0
609,55.0,256,128,2.0,0.0
610,56.0,0,512,2.0,0.0
611,68.0,128,128,1.0,0.0
612,67.0,256,128,1.0,0.0
613,53.0,0,512,2.0,0.0
614,68.0,256,512,1.0,0.0
615,77.0,128,512,0.0,0.0
616,60.0,0,256,2.0,0.0
617,67.0,0,1024,1.0,0.0
618,76.0,128,128,0.0,0.0
619,55.0,0,256,2.0,0.0
620,74.0,256,128,0.0,0.0
621,76.0,128,256,0.0,0.0
622,48.0,0,256,2.0,0.0
623,79.0,128,512,0.0,0.0
624,50.0,128,128,2.0,0.0
625,52.0,256,128,2.0,0.0
626,53.0,0,512,2.0,0.0
627,68.0,0,512,1.0,0.0
628,72.0,128,128,0.0,0.0
629,73.0,256,128,0.0,0.0
630,48.0,0,256,2.0,0.0
631,75.0,128,256,0.0,0.0
632,46.0,0,256,2.0,0.0
633,77.0,128,128,0.0,0.0
634,45.0,128,256,2.0,0.0
635,78.0,256,0,0.0,0.0
636,72.0,0,1536,1.0,0.0
637,41.0,128,128,2.0,0.0
638,44.0,256,128,2.0,0.0
639,45.0,128,256,2.0,0.0
640,77.0,0,0,0.0,0.0
641,46.0,128,128,2.0,0.0
642,75.0,256,256,0.0,0.0
643,48.0,0,128,2.0,0.0
644,49.0,0,256,2.0,0.0
645,75.0,256,256,0.0,0.0
646,46.0,0,256,2.0,0.0
647,70.0,0,256,1.0,0.0
648,44.0,256,256,2.0,0.0
649,74.0,256,0,0.0,0.0
650,46.0,256,256,2.0,0.0
651,68.0,0,256,1.0,0.0
652,70.0,0,512,1.0,0.0
653,40.0,0,512,2.0,0.0
654,67.0,128,128,0.0,0.0
655,68.0,256,128,0.0,0.0
656,70.0,128,256,0.0,0.0
657,43.0,256,512,2.0,0.0
658,72.0,128,128,0.0,0.0
659,73.0,256,384,0.0,0.0
660,36.0,256,512,2.0,0.0
661,64.0,0,1024,1.0,0.0
662,70.0,0,256,0.0,0.0
663,48.0,0,512,2.0,0.0
664,67.0,256,256,0.0,0.0
665,72.0,384,256,0.0,0.0
666,53.0,0,512,2.0,0.0
667,68.0,0,512,0.0,0.0
668,65.0,128,128,1.0,0.0
669,67.0,256,128,1.0,0.0
670,41.0,0,512,2.0,0.0
671,68.0,128,256,1.0,0.0
672,70.0,128,128,1.0,0.0
673,72.0,512,128,1.0,0.0
674,61.0,0,512,1.0,0.0
675,46.0,256,512,2.0,0.0
676,70.0,0,256,0.0,0.0
677,65.0,256,256,0.0,0.0
678,49.0,384,512,2.0,0.0
679,68.0,0,256,0.0,0.0
680,67.0,0,512,0.0,0.0
681,40.0,0,512,2.0,0.0
682,60.0,128,128,1.0,0.0
683,62.0,256,128,1.0,0.0
684,36.0,512,512,2.0,0.0
685,64.0,128,256,1.0,0.0
686,65.0,128,128,1.0,0.0
687,67.0,0,128,1.0,0.0
688,56.0,256,512,1.0,0.0
689,41.0,0,512,2.0,0.0
690,65.0,0,256,0.0,0.0
691,53.0,384,512,2.0,0.0
692,59.0,256,256,0.0,0.0
693,62.0,0,256,0.0,0.0
694,63.0,0,1024,0.0,0.0
695,48.0,256,1024,2.0,0.0
696,55.0,128,128,1.0,0.0
697,56.0,256,128,1.0,0.0
698,58.0,128,256,1.0,0.0
699,60.0,128,128,1.0,0.0
700,61.0,0,128,1.0,0.0
701,52.0,128,256,1.0,0.0
702,67.0,128,128,0.0,0.0
703,60.0,256,256,1.0,0.0
704,68.0,0,128,0.0,0.0
705,70.0,0,256,0.0,0.0
706,55.0,128,256,1.0,0.0
707,58.0,256,256,1.0,0.0
708,72.0,128,128,0.0,0.0
709,73.0,0,128,0.0,0.0
710,72.0,0,2048,0.0,0.0
711,56.0,128,256,1.0,0.0
712,60.0,128,128,1.0,0.0
713,61.0,256,128,1.0,0.0
714,63.0,128,256,1.0,0.0
715,65.0,128,128,1.0,0.0
716,66.0,384,128,1.0,0.0
717,65.0,0,512,1.0,0.0
718,49.0,128,128,2.0,0.0
719,51.0,256,128,2.0,0.0
720,61.0,256,768,1.0,0.0
721,53.0,128,256,2.0,0.0
722,55.0,128,128,2.0,0.0
723,56.0,256,128,2.0,0.0
724,70.0,256,768,0.0,0.0
725,55.0,256,512,2.0,0.0
726,61.0,0,256,1.0,0.0
727,56.0,256,512,2.0,0.0
728,63.0,0,256,0.0,0.0
729,68.0,256,768,0.0,0.0
730,53.0,0,512,2.0,0.0
731,60.0,256,0,1.0,0.0
732,50.0,0,512,2.0,0.0
733,58.0,256,768,1.0,0.0
734,68.0,256,256,0.0,0.0
735,52.0,256,512,2.0,0.0
736,67.0,256,768,0.0,0.0
737,58.0,0,256,1.0,0.0
738,56.0,256,768,1.0,0.0
739,53.0,0,512,2.0,0.0
740,60.0,256,256,0.0,0.0
741,49.0,0,512,2.0,0.0
742,65.0,256,768,0.0,0.0
743,56.0,256,256,1.0,0.0
744,46.0,0,1024,2.0,0.0
745,55.0,256,1024,1.0,0.0
746,65.0,256,256,0.0,0.0
747,64.0,128,256,0.0,0.0
748,60.0,0,2048,3.0,0.0
749,48.0,0,2048,4.0,0.0
750,65.0,128,128,0.0,0.0
751,67.0,0,128,0.0,0.0
752,44.0,128,256,2.0,0.0
753,53.0,256,1024,1.0,0.0
754,68.0,0,256,0.0,0.0
755,70.0,128,128,0.0,0.0
756,41.0,0,256,2.0,0.0
757,72.0,256,128,0.0,0.0
758,73.0,256,256,0.0,0.0
759,48.0,0,1024,2.0,0.0
760,70.0,0,256,0.0,0.0
761,52.0,0,512,1.0,0.0
762,67.0,256,256,0.0,0.0
763,72.0,384,256,0.0,0.0
764,41.0,256,512,2.0,0.0
765,48.0,0,1024,4.0,0.0
766,60.0,0,1024,3.0,0.0
767,68.0,256,1536,0.0,0.0
768,53.0,128,128,1.0,0.0
769,55.0,0,128,1.0,0.0
770,56.0,128,256,1.0,0.0
771,58.0,128,128,1.0,0.0
772,60.0,256,128,1.0,0.0
773,61.0,256,256,1.0,0.0
774,58.0,384,1024,3.0,0.0
775,46.0,0,1024,4.0,0.0
776,58.0,0,256,1.0,0.0
777,66.0,0,1024,0.0,0.0
778,51.0,256,256,1.0,0.0
779,61.0,0,256,1.0,0.0
780,44.0,0,1024,4.0,0.0
781,60.0,256,512,1.0,0.0
782,56.0,0,1024,3.0,0.0
783,49.0,128,128,2.0,0.0
784,51.0,0,128,2.0,0.0
785,65.0,0,1024,0.0,0.0
786,53.0,128,256,2.0,0.0
787,62.0,256,768,1.0,0.0
788,55.0,128,128,2.0,0.0
789,56.0,256,128,2.0,0.0
790,55.0,256,1024,3.0,0.0
791,43.0,0,1024,4.0,0.0
792,46.0,256,512,2.0,0.0
793,58.0,0,256,1.0,0.0
794,63.0,128,768,0.0,0.0
795,55.0,256,256,1.0,0.0
796,51.0,0,512,2.0,0.0
797,62.0,0,256,1.0,0.0
798,44.0,0,4096,4.0,0.0
799,44.0,256,512,2.0,0.0
800,60.0,0,512,1.0,0.0
801,56.0,0,4096,3.0,0.0
802,65.0,128,128,0.0,0.0
803,67.0,0,128,0.0,0.0
804,54.0,256,512,2.0,0.0
805,68.0,128,256,0.0,0.0
806,70.0,128,128,0.0,0.0
807,72.0,0,128,0.0,0.0
808,73.0,256,256,0.0,0.0
809,53.0,0,512,2.0,0.0
810,68.0,256,256,0.0,0.0
811,49.0,0,512,2.0,0.0
812,65.0,256,256,0.0,0.0
813,73.0,256,256,0.0,0.0
814,44.0,0,512,2.0,0.0
815,72.0,128,256,0.0,0.0
816,68.0,128,128,0.0,0.0
817,70.0,256,128,0.0,0.0
818,56.0,128,256,1.0,0.0
819,72.0,0,256,0.0,0.0
820,73.0,128,128,0.0,0.0
821,58.0,0,128,1.0,0.0
822,75.0,256,128,0.0,0.0
823,60.0,0,128,1.0,0.0
824,77.0,256,256,0.0,0.0
825,61.0,128,1280,1.0,0.0
826,74.0,256,256,0.0,0.0
827,70.0,256,256,0.0,0.0
828,79.0,256,256,0.0,0.0
829,80.0,0,1280,0.0,0.0
830,60.0,128,128,1.0,0.0
831,58.0,256,128,1.0,0.0
832,60.0,128,256,1.0,0.0
833,61.0,128,128,1.0,0.0
834,63.0,256,128,1.0,0.0
835,65.0,256,256,1.0,0.0
836,61.0,256,256,1.0,0.0
837,77.0,0,256,0.0,0.0
838,58.0,0,256,1.0,0.0
839,73.0,256,256,0.0,0.0
840,67.0,384,256,1.0,0.0
841,82.0,0,256,0.0,0.0
842,84.0,128,1280,0.0,0.0
843,68.0,256,512,1.0,0.0
844,56.0,128,128,2.0,0.0
845,58.0,0,128,2.0,0.0
846,60.0,128,256,2.0,0.0
847,62.0,128,128,2.0,0.0
848,63.0,256,128,2.0,0.0
849,65.0,128,1280,2.0,0.0
850,74.0,128,128,0.0,0.0
851,75.0,256,128,0.0,0.0
852,77.0,128,256,0.0,0.0
853,79.0,128,128,0.0,0.0
854,80.0,256,128,0.0,0.0
855,82.0,128,1280,0.0,0.0
856,55.0,128,128,2.0,0.0
857,56.0,256,128,2.0,0.0
858,58.0,128,256,2.0,0.0
859,60.0,128,128,2.0,0.0
860,62.0,256,128,2.0,0.0
861,63.0,128,1280,2.0,0.0
862,72.0,128,128,0.0,0.0
863,74.0,256,128,0.0,0.0
864,75.0,128,256,0.0,0.0
865,77.0,128,128,0.0,0.0
866,79.0,256,128,0.0,0.0
867,80.0,128,1280,0.0,0.0
868,53.0,128,128,2.0,0.0
869,55.0,256,128,2.0,0.0
870,56.0,128,256,2.0,0.0
871,58.0,128,128,2.0,0.0
872,60.0,256,128,2.0,0.0
873,62.0,0,256,2.0,0.0
874,70.0,128,128,0.0,0.0
875,65.0,0,256,2.0,0.0
876,72.0,256,128,0.0,0.0
877,58.0,128,256,2.0,0.0
878,74.0,0,256,0.0,0.0
879,75.0,128,128,0.0,0.0
880,62.0,256,256,2.0,0.0
881,77.0,0,128,0.0,0.0
882,79.0,0,256,0.0,0.0
883,63.0,128,256,2.0,0.0
884,75.0,0,256,0.0,0.0
885,51.0,128,128,2.0,0.0
886,53.0,256,128,2.0,0.0
887,70.0,0,256,0.0,0.0
888,55.0,128,256,2.0,0.0
889,79.0,0,256,0.0,0.0
890,56.0,128,128,2.0,0.0
891,58.0,256,128,2.0,0.0
892,68.0,0,256,0.0,0.0
893,60.0,256,256,2.0,0.0
894,79.0,256,256,0.0,0.0
895,56.0,0,256,2.0,0.0
896,53.0,0,256,2.0,0.0
897,68.0,256,256,0.0,0.0
898,62.0,256,256,2.0,0.0
899,77.0,0,256,0.0,0.0
900,55.0,0,2048,3.0,0.0
901,43.0,0,2048,4.0,0.0
902,51.0,256,512,2.0,0.0
903,70.0,128,256,0.0,0.0
904,67.0,128,128,0.0,0.0
905,68.0,0,128,0.0,0.0
906,70.0,128,256,0.0,0.0
907,49.0,256,512,2.0,0.0
908,72.0,128,128,0.0,0.0
909,73.0,0,128,0.0,0.0
910,75.0,256,256,0.0,0.0
911,48.0,256,512,2.0,0.0
912,70.0,0,256,0.0,0.0
913,63.0,256,256,0.0,0.0
914,46.0,256,512,2.0,0.0
915,74.0,0,256,0.0,0.0
916,72.0,0,1536,0.0,0.0
917,44.0,0,1024,4.0,0.0
918,56.0,0,1024,3.0,0.0
919,44.0,128,256,2.0,0.0
920,41.0,128,128,2.0,0.0
921,43.0,256,128,2.0,0.0
922,44.0,128,256,2.0,0.0
923,68.0,256,1024,1.0,0.0
924,46.0,128,128,2.0,0.0
925,48.0,256,128,2.0,0.0
926,58.0,0,1024,3.0,0.0
927,49.0,256,256,2.0,0.0
928,46.0,256,1024,4.0,0.0
929,46.0,0,256,2.0,0.0
930,43.0,0,256,2.0,0.0
931,70.0,0,1024,0.0,0.0
932,67.0,256,256,1.0,0.0
933,49.0,0,256,2.0,0.0
934,65.0,0,256,1.0,0.0
935,40.0,128,256,2.0,0.0
936,67.0,0,512,1.0,0.0
937,48.0,0,1024,4.0,0.0
938,48.0,128,128,2.0,0.0
939,50.0,256,128,2.0,0.0
940,70.0,256,1024,1.0,0.0
941,52.0,128,256,2.0,0.0
942,79.0,0,1024,0.0,0.0
943,53.0,128,128,2.0,0.0
944,55.0,0,128,2.0,0.0
945,48.0,0,1024,4.0,0.0
946,60.0,256,0,3.0,0.0
947,56.0,256,256,2.0,0.0
948,53.0,0,256,2.0,0.0
949,68.0,0,1024,1.0,0.0
950,48.0,256,256,2.0,0.0
951,77.0,0,256,0.0,0.0
952,75.0,0,256,0.0,0.0
953,51.0,0,256,2.0,0.0
954,58.0,0,1536,3.0,0.0
955,46.0,256,1536,4.0,0.0
956,77.0,128,256,0.0,0.0
957,50.0,0,512,2.0,0.0
958,70.0,128,128,0.0,0.0
959,72.0,256,128,0.0,0.0
960,53.0,0,512,1.0,0.0
961,46.0,256,512,2.0,0.0
962,74.0,128,256,0.0,0.0
963,75.0,128,128,0.0,0.0
964,77.0,0,128,0.0,0.0
965,79.0,256,256,0.0,0.0
966,51.0,0,512,1.0,0.0
967,43.0,0,512,2.0,0.0
968,75.0,0,256,0.0,0.0
969,56.0,384,512,3.0,0.0
970,53.0,0,512,1.0,0.0
971,46.0,0,512,2.0,0.0
972,70.0,256,256,0.0,0.0
973,44.0,0,512,4.0,0.0
974,74.0,0,256,0.0,0.0
975,55.0,256,1024,3.0,0.0
976,39.0,0,512,2.0,0.0
977,75.0,256,512,0.0,0.0
978,51.0,128,128,1.0,0.0
979,53.0,0,128,1.0,0.0
980,51.0,0,512,2.0,0.0
981,55.0,128,256,1.0,0.0
982,56.0,128,128,1.0,0.0
983,58.0,0,128,1.0,0.0
984,43.0,0,0,4.0,0.0
985,60.0,256,256,1.0,0.0
986,52.0,0,512,2.0,0.0
987,55.0,0,1024,3.0,0.0
988,55.0,256,256,1.0,0.0
989,52.0,256,256,1.0,0.0
990,48.0,0,512,2.0,0.0
991,58.0,384,256,1.0,0.0
992,56.0,0,1024,3.0,0.0
993,44.0,0,1024,4.0,0.0
994,53.0,256,512,2.0,0.0
995,56.0,0,512,1.0,0.0
996,65.0,128,128,0.0,0.0
997,67.0,0,128,0.0,0.0
998,68.0,128,256,0.0,0.0
999,53.0,0,1024,1.0,0.0
1000,49.0,0,512,2.0,0.0
1001,70.0,128,128,0.0,0.0
1002,72.0,256,128,0.0,0.0
1003,55.0,0,1024,3.0,0.0
1004,73.0,256,256,0.0,0.0
1005,43.0,384,1024,4.0,0.0
1006,46.0,0,512,2.0,0.0
1007,70.0,256,256,0.0,0.0
1008,67.0,256,256,0.0,0.0
1009,48.0,0,512,2.0,0.0
1010,52.0,0,512,1.0,0.0
1011,72.0,0,256,0.0,0.0
1012,68.0,0,1024,0.0,0.0
1013,53.0,0,512,2.0,0.0
1014,53.0,0,1024,3.0,0.0
1015,41.0,0,1024,4.0,0.0
1016,67.0,128,128,1.0,0.0
1017,65.0,256,128,1.0,0.0
1018,63.0,128,256,1.0,0.0
1019,41.0,0,512,2.0,0.0
1020,62.0,128,128,1.0,0.0
1021,60.0,256,128,1.0,0.0
1022,53.0,0,1024,3.0,0.0
1023,41.0,0,1024,4.0,0.0
1024,46.0,256,512,2.0,0.0
1025,62.0,128,256,1.0,0.0
1026,58.0,128,128,1.0,0.0
1027,60.0,0,128,1.0,0.0
1028,62.0,128,256,1.0,0.0
1029,44.0,0,512,2.0,0.0
1030,63.0,128,128,1.0,0.0
1031,65.0,384,128,1.0,0.0
1032,43.0,0,512,2.0,0.0
1033,55.0,0,1536,3.0,0.0
1034,43.0,256,1536,4.0,0.0
1035,59.0,0,512,1.0,0.0
1036,71.0,128,128,0.0,0.0
1037,72.0,256,128,0.0,0.0
1038,41.0,0,512,2.0,0.0
1039,74.0,128,256,0.0,0.0
1040,75.0,128,128,0.0,0.0
1041,77.0,512,128,0.0,0.0
1042,79.0,128,1792,0.0,0.0
1043,39.0,0,512,2.0,0.0
1044,75.0,0,256,1.0,0.0
1045,53.0,0,512,3.0,0.0
1046,71.0,256,256,1.0,0.0
1047,38.0,256,512,2.0,0.0
1048,41.0,0,512,4.0,0.0
1049,74.0,0,256,1.0,0.0
1050,51.0,0,1024,3.0,0.0
1051,39.0,0,1024,4.0,0.0
1052,67.0,0,512,1.0,0.0
1053,36.0,128,256,2.0,0.0
1054,48.0,128,128,2.0,0.0
1055,50.0,256,128,2.0,0.0
1056,72.0,0,1024,1.0,0.0
1057,51.0,0,256,2.0,0.0
1058,75.0,0,256,0.0,0.0
1059,53.0,128,128,2.0,0.0
1060,55.0,256,128,2.0,0.0
1061,50.0,256,1024,3.0,0.0
1062,38.0,0,1024,4.0,0.0
1063,56.0,256,256,2.0,0.0
1064,77.0,0,768,0.0,0.0
1065,53.0,256,256,2.0,0.0
1066,70.0,0,1024,1.0,0.0
1067,50.0,256,256,2.0,0.0
1068,55.0,0,256,2.0,0.0
1069,74.0,0,256,0.0,0.0
1070,36.0,256,1024,4.0,0.0
1071,52.0,0,1024,2.0,0.0
1072,79.0,128,256,0.0,0.0
1073,48.0,0,1024,3.0,0.0
1074,72.0,128,128,0.0,0.0
1075,74.0,256,128,0.0,0.0
1076,76.0,128,256,0.0,0.0
1077,60.0,256,1024,1.0,0.0
1078,77.0,128,128,0.0,0.0
1079,79.0,0,128,0.0,0.0
1080,80.0,256,256,0.0,0.0
1081,41.0,256,1024,4.0,0.0
1082,53.0,0,1024,3.0,0.0
1083,53.0,0,2048,2.0,0.0
1084,77.0,0,256,0.0,0.0
1085,73.0,256,256,0.0,0.0
1086,65.0,0,512,1.0,0.0
1087,77.0,0,256,0.0,0.0
1088,70.0,128,256,0.0,0.0
1089,61.0,256,512,1.0,0.0
1090,55.0,0,1024,3.0,0.0
1091,43.0,512,1024,4.0,0.0
1092,67.0,128,128,0.0,0.0
1093,68.0,0,128,0.0,0.0
1094,70.0,128,256,0.0,0.0
1095,72.0,128,128,0.0,0.0
1096,73.0,0,128,0.0,0.0
1097,55.0,256,1024,3.0,0.0
1098,52.0,0,512,2.0,0.0
1099,72.0,256,768,0.0,0.0
1100,43.0,0,1024,4.0,0.0
1101,67.0,256,256,1.0,0.0
1102,51.0,128,768,2.0,0.0
1103,60.0,0,1024,1.0,0.0
1104,70.0,0,256,0.0,0.0
1105,41.0,0,16384,4.0,0.0
1106,69.0,256,512,0.0,0.0
1107,53.0,0,16384,3.0,0.0
1108,41.0,128,128,2.0,0.0
1109,43.0,0,128,2.0,0.0
1110,72.0,0,1024,0.0,0.0
1111,45.0,128,256,2.0,0.0
1112,63.0,256,1024,1.0,0.0
1113,46.0,128,128,2.0,0.0
1114,48.0,256,128,2.0,0.0
1115,49.0,128,256,2.0,0.0
1116,46.0,128,128,2.0,0.0
1117,48.0,0,128,2.0,0.0
1118,49.0,128,256,2.0,0.0
1119,70.0,128,896,0.0,0.0
1120,61.0,0,512,1.0,0.0
1121,53.0,128,128,2.0,0.0
1122,52.0,256,128,2.0,0.0
1123,60.0,128,256,1.0,0.0
1124,53.0,128,768,2.0,0.0
1125,65.0,128,1024,1.0,0.0
1126,67.0,256,128,0.0,0.0
1127,68.0,0,256,0.0,0.0
1128,55.0,128,128,2.0,0.0
1129,70.0,0,128,0.0,0.0
1130,72.0,0,128,0.0,0.0
1131,57.0,256,128,2.0,0.0
1132,58.0,256,512,2.0,0.0
1133,73.0,0,256,0.0,0.0
1134,70.0,128,128,0.0,0.0
1135,70.0,128,896,1.0,0.0
1136,72.0,0,128,0.0,0.0
1137,73.0,128,256,0.0,0.0
1138,46.0,0,512,2.0,0.0
1139,77.0,128,128,0.0,0.0
1140,76.0,128,128,0.0,0.0
1141,53.0,128,512,2.0,0.0
1142,69.0,256,128,1.0,0.0
1143,70.0,128,384,1.0,0.0
1144,41.0,128,512,2.0,0.0
1145,73.0,128,1024,0.0,0.0
1146,69.0,256,128,1.0,0.0
1147,70.0,0,256,1.0,0.0
1148,65.0,128,128,1.0,0.0
1149,69.0,256,128,1.0,0.0
1150,70.0,128,384,1.0,0.0
1151,53.0,128,512,2.0,0.0
1152,69.0,256,128,1.0,0.0
1153,70.0,128,384,1.0,0.0
1154,77.0,0,0,0.0,0.0
1155,53.0,0,512,2.0,0.0
1156,69.0,256,128,1.0,0.0
1157,70.0,128,384,1.0,0.0
1158,41.0,128,512,2.0,0.0
1159,73.0,128,0,0.0,0.0
1160,68.0,256,128,1.0,0.0
1161,70.0,0,256,1.0,0.0
1162,65.0,128,128,1.0,0.0
1163,69.0,256,128,1.0,0.0
1164,70.0,128,384,1.0,0.0
1165,73.0,128,0,0.0,0.0
1166,69.0,256,128,1.0,0.0
1167,70.0,128,384,1.0,0.0
1168,53.0,0,0,2.0,0.0
1169,69.0,256,128,1.0,0.0
1170,70.0,128,384,1.0,0.0
1171,41.0,0,512,2.0,0.0
1172,73.0,128,0,0.0,0.0
1173,69.0,256,128,1.0,0.0
1174,70.0,128,256,1.0,0.0
1175,67.0,128,128,1.0,0.0
1176,69.0,256,128,1.0,0.0
1177,70.0,128,384,1.0,0.0
1178,73.0,128,0,0.0,0.0
1179,69.0,256,128,1.0,0.0
1180,70.0,128,384,1.0,0.0
1181,53.0,0,0,2.0,0.0
1182,76.0,128,0,0.0,0.0
1183,69.0,256,128,1.0,0.0
1184,70.0,128,384,1.0,0.0
1185,41.0,0,512,2.0,0.0
1186,73.0,0,1536,0.0,0.0
1187,69.0,256,128,1.0,0.0
1188,70.0,128,256,1.0,0.0
1189,67.0,128,128,1.0,0.0
1190,69.0,256,128,1.0,0.0
1191,70.0,128,384,1.0,0.0
1192,76.0,128,0,0.0,0.0
1193,53.0,0,4608,2.0,0.0
1194,69.0,256,128,1.0,0.0
1195,70.0,0,256,1.0,0.0
1196,69.0,0,4096,1.0,0.0
1197,72.0,0,4096,0.0,0.0
1198,77.0,0,4096,0.0,0.0
1199,41.0,0,4096,2.0,0.0
