,note,step,duration,channel,velocity
0,71.0,0,30,0.0,75.0
1,70.0,30,30,0.0,75.0
2,71.0,30,30,0.0,75.0
3,71.0,0,30,6.0,51.0
4,66.0,0,30,6.0,51.0
5,62.0,0,30,6.0,51.0
6,62.0,0,30,4.0,51.0
7,71.0,0,30,1.0,51.0
8,59.0,0,30,3.0,51.0
9,66.0,120,30,2.0,51.0
10,61.0,0,30,4.0,51.0
11,70.0,0,30,1.0,51.0
12,61.0,0,30,3.0,51.0
13,64.0,0,30,6.0,51.0
14,61.0,0,30,6.0,51.0
15,70.0,0,30,6.0,51.0
16,64.0,60,30,2.0,51.0
17,59.0,0,30,4.0,51.0
18,66.0,0,30,6.0,51.0
19,71.0,0,30,1.0,51.0
20,59.0,60,30,6.0,51.0
21,62.0,0,30,6.0,51.0
22,62.0,0,30,3.0,51.0
23,71.0,0,30,6.0,51.0
24,62.0,0,30,2.0,51.0
25,66.0,30,270,0.0,75.0
26,73.0,30,30,0.0,75.0
27,71.0,30,30,0.0,75.0
28,73.0,30,30,0.0,75.0
29,58.0,0,30,6.0,51.0
30,66.0,0,30,6.0,51.0
31,66.0,0,30,3.0,51.0
32,61.0,0,30,6.0,51.0
33,66.0,120,30,1.0,51.0
34,58.0,0,30,4.0,51.0
35,73.0,0,30,2.0,51.0
36,61.0,60,30,3.0,51.0
37,76.0,0,30,1.0,51.0
38,70.0,0,30,2.0,51.0
39,54.0,0,30,6.0,51.0
40,54.0,0,30,4.0,51.0
41,58.0,0,30,6.0,51.0
42,64.0,0,30,6.0,51.0
43,56.0,0,30,4.0,51.0
44,71.0,0,30,2.0,51.0
45,62.0,0,30,6.0,51.0
46,56.0,0,30,6.0,51.0
47,74.0,0,30,1.0,51.0
48,59.0,60,30,3.0,51.0
49,66.0,30,270,0.0,75.0
50,59.0,0,30,6.0,51.0
51,70.0,30,30,0.0,75.0
52,66.0,0,30,3.0,51.0
53,58.0,0,30,4.0,51.0
54,58.0,0,30,6.0,51.0
55,73.0,30,30,2.0,51.0
56,73.0,0,30,1.0,51.0
57,61.0,0,30,6.0,51.0
58,73.0,0,30,0.0,75.0
59,76.0,30,30,0.0,75.0
60,62.0,0,30,6.0,51.0
61,59.0,30,60,4.0,51.0
62,74.0,0,60,0.0,75.0
63,71.0,0,60,2.0,51.0
64,74.0,0,60,1.0,51.0
65,59.0,0,60,6.0,51.0
66,66.0,0,60,3.0,51.0
67,67.0,0,30,2.0,51.0
68,67.0,0,30,6.0,51.0
69,73.0,0,30,1.0,51.0
70,73.0,60,30,0.0,75.0
71,64.0,0,30,6.0,51.0
72,52.0,0,30,6.0,51.0
73,64.0,0,30,3.0,51.0
74,52.0,0,30,4.0,51.0
75,73.0,0,30,6.0,51.0
76,50.0,0,60,6.0,51.0
77,66.0,0,60,6.0,51.0
78,50.0,0,60,4.0,51.0
79,66.0,60,60,2.0,51.0
80,66.0,0,60,3.0,51.0
81,67.0,0,30,6.0,51.0
82,71.0,0,90,6.0,51.0
83,64.0,0,30,6.0,51.0
84,71.0,0,120,1.0,51.0
85,67.0,0,60,3.0,51.0
86,71.0,0,120,0.0,75.0
87,64.0,0,30,6.0,51.0
88,69.0,0,30,6.0,51.0
89,64.0,0,120,2.0,51.0
90,69.0,60,60,0.0,75.0
91,64.0,0,60,3.0,51.0
92,49.0,0,120,6.0,51.0
93,69.0,0,60,1.0,51.0
94,49.0,60,120,4.0,51.0
95,67.0,0,30,6.0,51.0
96,64.0,0,30,6.0,51.0
97,61.0,0,30,6.0,51.0
98,45.0,0,30,6.0,51.0
99,67.0,0,30,0.0,75.0
100,45.0,0,30,4.0,51.0
101,64.0,60,30,2.0,51.0
102,67.0,0,30,1.0,51.0
103,61.0,0,30,3.0,51.0
104,66.0,0,15,0.0,75.0
105,66.0,60,30,1.0,49.0
106,50.0,0,30,4.0,75.0
107,67.0,15,15,0.0,75.0
108,57.0,0,30,3.0,49.0
109,62.0,0,30,2.0,49.0
110,50.0,0,30,6.0,75.0
111,66.0,0,30,6.0,75.0
112,62.0,0,30,6.0,75.0
113,66.0,15,15,0.0,75.0
114,64.0,0,30,1.0,49.0
115,61.0,0,30,2.0,49.0
116,57.0,30,30,3.0,49.0
117,64.0,0,30,0.0,75.0
118,45.0,0,30,6.0,75.0
119,45.0,0,30,4.0,75.0
120,61.0,0,30,6.0,75.0
121,64.0,0,30,6.0,75.0
122,62.0,120,60,1.0,25.0
123,56.0,0,60,3.0,25.0
124,59.0,0,60,2.0,25.0
125,57.0,60,30,2.0,25.0
126,61.0,0,30,1.0,25.0
127,57.0,0,30,3.0,25.0
128,69.0,30,30,0.0,75.0
129,67.0,30,30,0.0,88.0
130,69.0,30,30,0.0,88.0
131,74.0,120,30,1.0,88.0
132,50.0,0,30,6.0,88.0
133,66.0,0,30,6.0,88.0
134,69.0,0,30,6.0,88.0
135,74.0,0,30,6.0,88.0
136,69.0,0,30,2.0,88.0
137,50.0,0,30,4.0,88.0
138,62.0,0,30,3.0,88.0
139,67.0,0,30,2.0,88.0
140,62.0,0,30,3.0,88.0
141,55.0,0,30,6.0,88.0
142,71.0,0,30,6.0,88.0
143,55.0,60,30,4.0,88.0
144,67.0,0,30,6.0,88.0
145,71.0,0,30,1.0,88.0
146,78.0,30,270,0.0,88.0
147,67.0,0,30,6.0,88.0
148,43.0,0,30,6.0,88.0
149,62.0,0,30,2.0,88.0
150,43.0,0,30,4.0,88.0
151,59.0,0,30,3.0,88.0
152,67.0,60,30,1.0,88.0
153,71.0,30,30,0.0,88.0
154,69.0,30,30,0.0,88.0
155,71.0,30,30,0.0,88.0
156,67.0,0,30,6.0,88.0
157,71.0,0,30,2.0,88.0
158,52.0,0,30,6.0,88.0
159,64.0,0,30,3.0,88.0
160,76.0,0,30,6.0,88.0
161,76.0,0,30,1.0,88.0
162,52.0,0,30,4.0,88.0
163,71.0,120,30,6.0,88.0
164,57.0,0,30,4.0,88.0
165,69.0,0,30,2.0,88.0
166,57.0,0,30,6.0,88.0
167,73.0,60,30,6.0,88.0
168,69.0,0,30,6.0,88.0
169,64.0,0,30,3.0,88.0
170,73.0,0,30,1.0,88.0
171,69.0,0,30,1.0,88.0
172,79.0,30,270,0.0,88.0
173,69.0,0,30,6.0,88.0
174,45.0,0,30,6.0,88.0
175,45.0,0,30,4.0,88.0
176,64.0,60,30,2.0,88.0
177,61.0,0,30,3.0,88.0
178,73.0,30,30,0.0,88.0
179,71.0,30,30,0.0,88.0
180,73.0,30,30,0.0,88.0
181,81.0,30,60,0.0,88.0
182,78.0,0,30,0.0,88.0
183,71.0,0,30,6.0,88.0
184,59.0,60,60,4.0,88.0
185,59.0,0,60,6.0,88.0
186,57.0,60,30,4.0,88.0
187,57.0,0,30,6.0,88.0
188,71.0,0,60,2.0,88.0
189,78.0,0,60,1.0,88.0
190,69.0,0,90,6.0,88.0
191,75.0,0,90,6.0,88.0
192,71.0,0,90,6.0,88.0
193,66.0,0,120,3.0,88.0
194,75.0,0,120,0.0,88.0
195,71.0,0,60,1.0,88.0
196,76.0,0,30,6.0,88.0
197,71.0,0,30,6.0,88.0
198,67.0,0,30,6.0,88.0
199,76.0,0,60,0.0,88.0
200,55.0,60,120,6.0,88.0
201,64.0,60,60,3.0,88.0
202,71.0,0,120,2.0,88.0
203,55.0,0,120,4.0,88.0
204,76.0,0,60,1.0,88.0
205,75.0,0,30,6.0,88.0
206,69.0,60,30,6.0,88.0
207,78.0,0,30,0.0,88.0
208,78.0,0,30,6.0,88.0
209,54.0,0,60,6.0,88.0
210,54.0,0,60,4.0,88.0
211,75.0,0,60,2.0,88.0
212,69.0,0,60,3.0,88.0
213,78.0,0,60,1.0,88.0
214,71.0,0,30,6.0,88.0
215,79.0,0,30,0.0,88.0
216,76.0,0,30,2.0,88.0
217,71.0,0,30,3.0,88.0
218,79.0,0,30,1.0,88.0
219,79.0,0,30,6.0,88.0
220,76.0,60,30,6.0,88.0
221,52.0,0,30,6.0,88.0
222,52.0,0,30,4.0,88.0
223,78.0,30,30,0.0,88.0
224,76.0,0,30,0.0,88.0
225,76.0,0,30,6.0,88.0
226,69.0,0,30,6.0,88.0
227,73.0,0,30,6.0,88.0
228,57.0,0,60,4.0,88.0
229,57.0,30,60,6.0,88.0
230,74.0,30,30,0.0,88.0
231,73.0,0,30,0.0,88.0
232,64.0,0,60,2.0,88.0
233,71.0,30,30,0.0,88.0
234,76.0,0,60,1.0,88.0
235,71.0,0,60,3.0,88.0
236,73.0,0,30,0.0,88.0
237,76.0,30,15,0.0,88.0
238,64.0,30,60,3.0,88.0
239,55.0,0,120,4.0,88.0
240,69.0,0,60,2.0,88.0
241,73.0,0,60,1.0,88.0
242,55.0,0,120,6.0,88.0
243,73.0,30,120,6.0,88.0
244,69.0,0,120,6.0,88.0
245,74.0,0,30,1.0,88.0
246,74.0,0,30,0.0,88.0
247,69.0,0,30,6.0,88.0
248,74.0,0,30,2.0,88.0
249,54.0,0,30,6.0,88.0
250,69.0,30,30,3.0,88.0
251,54.0,0,30,4.0,88.0
252,74.0,0,30,6.0,88.0
253,78.0,30,15,0.0,88.0
254,76.0,0,30,0.0,88.0
255,76.0,0,30,6.0,88.0
256,73.0,0,30,6.0,88.0
257,79.0,30,15,0.0,88.0
258,57.0,0,60,6.0,88.0
259,57.0,30,60,4.0,88.0
260,73.0,0,60,2.0,88.0
261,76.0,0,60,1.0,88.0
262,69.0,0,0,3.0,88.0
263,78.0,0,30,1.0,88.0
264,78.0,0,30,0.0,88.0
265,74.0,0,30,2.0,88.0
266,50.0,30,60,4.0,88.0
267,76.0,30,30,0.0,88.0
268,50.0,0,60,6.0,88.0
269,74.0,0,30,0.0,88.0
270,78.0,0,120,6.0,88.0
271,52.0,30,60,4.0,88.0
272,74.0,0,0,6.0,88.0
273,52.0,0,60,6.0,88.0
274,73.0,30,30,0.0,88.0
275,71.0,0,30,0.0,88.0
276,70.0,0,30,6.0,88.0
277,54.0,0,60,6.0,88.0
278,70.0,30,30,0.0,88.0
279,54.0,30,60,4.0,88.0
280,74.0,0,60,1.0,88.0
281,71.0,30,30,0.0,88.0
282,74.0,30,15,0.0,88.0
283,73.0,30,30,0.0,88.0
284,76.0,30,15,0.0,88.0
285,74.0,0,120,6.0,88.0
286,71.0,0,120,6.0,88.0
287,74.0,0,30,0.0,88.0
288,78.0,0,30,6.0,88.0
289,74.0,0,30,6.0,88.0
290,78.0,30,15,0.0,88.0
291,67.0,0,60,2.0,88.0
292,62.0,30,60,3.0,88.0
293,71.0,0,240,1.0,88.0
294,55.0,0,240,6.0,88.0
295,55.0,0,0,4.0,88.0
296,55.0,0,60,6.0,88.0
297,76.0,0,120,6.0,88.0
298,71.0,60,0,6.0,88.0
299,76.0,60,60,1.0,88.0
300,67.0,0,30,6.0,88.0
301,52.0,0,30,6.0,88.0
302,52.0,0,30,4.0,88.0
303,73.0,0,30,1.0,88.0
304,66.0,0,30,6.0,88.0
305,70.0,0,30,6.0,88.0
306,64.0,30,240,2.0,88.0
307,49.0,0,60,6.0,88.0
308,70.0,60,60,1.0,88.0
309,61.0,0,240,3.0,88.0
310,49.0,0,60,4.0,88.0
311,76.0,0,270,0.0,88.0
312,46.0,0,30,6.0,88.0
313,46.0,0,30,4.0,88.0
314,64.0,0,60,3.0,88.0
315,67.0,30,30,0.0,88.0
316,73.0,0,60,1.0,88.0
317,67.0,0,60,2.0,88.0
318,66.0,0,30,0.0,88.0
319,67.0,0,60,3.0,88.0
320,67.0,0,120,6.0,88.0
321,64.0,30,30,0.0,88.0
322,47.0,0,60,4.0,88.0
323,64.0,60,120,6.0,88.0
324,47.0,30,60,6.0,88.0
325,66.0,0,30,0.0,88.0
326,46.0,0,30,4.0,88.0
327,46.0,30,30,6.0,88.0
328,76.0,0,30,6.0,88.0
329,76.0,0,90,1.0,88.0
330,66.0,0,30,6.0,88.0
331,66.0,0,30,3.0,88.0
332,61.0,0,90,2.0,88.0
333,68.0,30,30,0.0,88.0
334,61.0,0,30,3.0,88.0
335,49.0,30,30,6.0,88.0
336,70.0,0,30,6.0,88.0
337,70.0,0,30,1.0,88.0
338,64.0,0,30,6.0,88.0
339,70.0,0,30,0.0,88.0
340,64.0,0,30,2.0,88.0
341,49.0,0,30,4.0,88.0
342,71.0,30,30,0.0,88.0
343,73.0,30,30,0.0,88.0
344,74.0,30,30,0.0,88.0
345,76.0,30,30,1.0,88.0
346,70.0,0,30,2.0,88.0
347,76.0,0,30,0.0,88.0
348,42.0,0,30,4.0,88.0
349,61.0,0,30,3.0,88.0
350,42.0,0,30,6.0,88.0
351,70.0,0,30,6.0,88.0
352,64.0,0,30,6.0,88.0
353,79.0,30,30,0.0,88.0
354,61.0,0,30,2.0,88.0
355,66.0,0,30,1.0,88.0
356,61.0,0,30,6.0,88.0
357,78.0,0,30,0.0,88.0
358,66.0,0,30,3.0,88.0
359,46.0,0,30,4.0,88.0
360,66.0,30,30,6.0,88.0
361,46.0,0,30,6.0,88.0
362,76.0,30,30,0.0,88.0
363,74.0,30,30,0.0,88.0
364,73.0,30,30,0.0,88.0
365,47.0,30,30,6.0,94.0
366,74.0,0,30,0.0,94.0
367,47.0,0,30,4.0,94.0
368,73.0,30,15,0.0,93.0
369,76.0,0,30,6.0,93.0
370,71.0,30,30,6.0,93.0
371,76.0,0,30,0.0,93.0
372,55.0,0,60,4.0,93.0
373,59.0,30,0,3.0,92.0
374,71.0,0,60,2.0,93.0
375,76.0,0,60,1.0,93.0
376,74.0,30,30,0.0,92.0
377,55.0,0,60,6.0,93.0
378,66.0,0,30,2.0,92.0
379,74.0,0,30,6.0,92.0
380,73.0,0,30,0.0,92.0
381,66.0,0,30,6.0,92.0
382,74.0,0,30,1.0,92.0
383,50.0,0,60,4.0,92.0
384,71.0,30,30,0.0,91.0
385,50.0,0,60,6.0,92.0
386,67.0,0,30,6.0,91.0
387,73.0,0,30,6.0,91.0
388,73.0,0,30,0.0,91.0
389,71.0,30,15,0.0,90.0
390,67.0,0,60,2.0,91.0
391,52.0,0,60,6.0,91.0
392,73.0,0,60,1.0,91.0
393,52.0,30,60,4.0,91.0
394,66.0,0,30,6.0,90.0
395,74.0,0,30,6.0,90.0
396,74.0,0,30,0.0,90.0
397,66.0,0,30,2.0,90.0
398,74.0,30,30,1.0,90.0
399,54.0,0,60,4.0,90.0
400,54.0,0,60,6.0,90.0
401,73.0,30,30,0.0,89.0
402,59.0,0,60,3.0,90.0
403,73.0,0,30,6.0,89.0
404,66.0,0,30,6.0,89.0
405,66.0,0,30,3.0,89.0
406,71.0,0,30,0.0,89.0
407,42.0,0,60,6.0,89.0
408,73.0,30,60,1.0,89.0
409,70.0,30,30,0.0,88.0
410,42.0,0,60,4.0,89.0
411,74.0,0,30,6.0,75.0
412,66.0,30,30,6.0,75.0
413,71.0,0,30,1.0,75.0
414,47.0,0,60,6.0,75.0
415,73.0,30,30,1.0,75.0
416,47.0,0,60,4.0,75.0
417,62.0,0,60,3.0,75.0
418,66.0,0,120,2.0,89.0
419,74.0,0,30,1.0,75.0
420,66.0,0,30,3.0,75.0
421,59.0,0,30,6.0,75.0
422,71.0,0,30,6.0,75.0
423,62.0,30,30,6.0,75.0
424,59.0,0,30,4.0,75.0
425,76.0,30,30,1.0,75.0
426,71.0,0,60,2.0,75.0
427,74.0,30,30,2.0,75.0
428,67.0,0,30,6.0,75.0
429,71.0,0,30,6.0,75.0
430,78.0,0,30,1.0,75.0
431,57.0,0,60,6.0,75.0
432,71.0,0,60,3.0,75.0
433,74.0,30,30,1.0,75.0
434,57.0,0,60,4.0,75.0
435,55.0,0,30,4.0,75.0
436,55.0,30,30,6.0,75.0
437,67.0,0,30,6.0,75.0
438,71.0,0,30,6.0,75.0
439,59.0,0,30,3.0,75.0
440,71.0,0,210,0.0,75.0
441,71.0,0,30,2.0,75.0
442,76.0,0,30,1.0,75.0
443,70.0,30,30,0.0,75.0
444,52.0,0,30,6.0,75.0
445,73.0,0,30,1.0,75.0
446,71.0,0,30,0.0,75.0
447,52.0,30,30,4.0,75.0
448,73.0,0,30,6.0,75.0
449,64.0,0,30,6.0,75.0
450,64.0,0,30,3.0,75.0
451,67.0,0,30,2.0,75.0
452,67.0,30,30,0.0,75.0
453,66.0,30,30,0.0,75.0
454,64.0,30,30,0.0,75.0
455,74.0,0,30,1.0,75.0
456,54.0,0,30,6.0,75.0
457,71.0,0,30,6.0,75.0
458,62.0,0,30,6.0,75.0
459,54.0,0,30,4.0,75.0
460,62.0,0,30,3.0,75.0
461,71.0,30,30,0.0,75.0
462,71.0,0,30,2.0,75.0
463,70.0,30,30,0.0,75.0
464,71.0,0,30,1.0,75.0
465,50.0,0,30,6.0,75.0
466,66.0,0,30,3.0,75.0
467,50.0,0,30,4.0,75.0
468,66.0,0,30,6.0,75.0
469,66.0,0,30,2.0,75.0
470,59.0,30,30,6.0,75.0
471,71.0,0,30,0.0,75.0
472,66.0,30,30,0.0,75.0
473,64.0,30,30,0.0,75.0
474,62.0,30,30,0.0,75.0
475,79.0,0,30,1.0,75.0
476,52.0,0,30,6.0,75.0
477,71.0,0,30,0.0,75.0
478,52.0,0,30,4.0,75.0
479,64.0,0,30,3.0,75.0
480,67.0,0,30,6.0,75.0
481,71.0,30,30,2.0,75.0
482,64.0,0,30,6.0,75.0
483,70.0,30,30,0.0,75.0
484,64.0,0,30,6.0,75.0
485,76.0,0,30,1.0,75.0
486,49.0,0,30,6.0,75.0
487,71.0,0,30,0.0,75.0
488,49.0,0,30,4.0,75.0
489,73.0,0,30,2.0,75.0
490,59.0,0,30,6.0,75.0
491,67.0,30,30,3.0,75.0
492,64.0,30,30,0.0,75.0
493,62.0,30,30,0.0,75.0
494,61.0,30,30,0.0,75.0
495,78.0,0,30,1.0,75.0
496,71.0,0,30,0.0,75.0
497,66.0,0,30,3.0,75.0
498,50.0,0,30,4.0,75.0
499,71.0,0,30,2.0,75.0
500,50.0,0,30,6.0,75.0
501,66.0,0,30,6.0,75.0
502,59.0,30,30,6.0,75.0
503,70.0,30,30,0.0,75.0
504,47.0,0,30,6.0,75.0
505,62.0,30,30,6.0,75.0
506,54.0,0,30,6.0,75.0
507,47.0,0,30,4.0,75.0
508,71.0,0,30,0.0,75.0
509,66.0,0,30,2.0,75.0
510,71.0,0,30,3.0,75.0
511,74.0,0,30,1.0,75.0
512,62.0,30,30,0.0,75.0
513,61.0,30,30,0.0,75.0
514,59.0,30,30,0.0,75.0
515,71.0,0,30,6.0,75.0
516,69.0,0,30,0.0,75.0
517,49.0,0,60,6.0,75.0
518,67.0,30,30,0.0,75.0
519,49.0,30,60,4.0,75.0
520,61.0,0,30,6.0,75.0
521,61.0,0,30,4.0,75.0
522,66.0,0,30,0.0,75.0
523,70.0,30,30,6.0,75.0
524,64.0,0,60,2.0,75.0
525,70.0,0,60,1.0,75.0
526,64.0,30,30,0.0,75.0
527,64.0,0,60,3.0,75.0
528,62.0,0,30,3.0,75.0
529,71.0,0,30,1.0,75.0
530,71.0,0,30,6.0,75.0
531,66.0,0,30,6.0,75.0
532,67.0,0,30,2.0,75.0
533,59.0,0,60,6.0,75.0
534,59.0,30,60,4.0,75.0
535,76.0,0,90,0.0,75.0
536,73.0,0,30,1.0,75.0
537,58.0,0,30,6.0,75.0
538,73.0,60,30,6.0,75.0
539,64.0,0,30,6.0,75.0
540,61.0,0,30,3.0,75.0
541,58.0,0,30,4.0,75.0
542,66.0,0,30,2.0,75.0
543,54.0,0,30,6.0,75.0
544,70.0,0,30,6.0,75.0
545,76.0,0,30,1.0,75.0
546,70.0,0,30,0.0,75.0
547,73.0,0,30,2.0,75.0
548,54.0,0,30,4.0,75.0
549,66.0,0,30,3.0,75.0
550,61.0,60,30,6.0,75.0
551,62.0,0,60,2.0,25.0
552,67.0,0,60,1.0,25.0
553,59.0,120,60,3.0,25.0
554,58.0,0,30,3.0,25.0
555,61.0,60,30,2.0,25.0
556,66.0,0,30,1.0,25.0
557,66.0,30,30,0.0,75.0
558,61.0,30,30,6.0,88.0
559,70.0,0,30,0.0,88.0
560,70.0,0,30,6.0,88.0
561,52.0,0,60,4.0,88.0
562,52.0,0,60,6.0,88.0
563,73.0,30,30,0.0,88.0
564,78.0,0,30,0.0,88.0
565,71.0,0,30,6.0,88.0
566,66.0,0,30,6.0,88.0
567,50.0,30,60,6.0,88.0
568,76.0,30,30,0.0,88.0
569,50.0,0,60,4.0,88.0
570,79.0,0,30,0.0,88.0
571,49.0,0,30,4.0,88.0
572,49.0,30,30,6.0,88.0
573,70.0,0,30,6.0,88.0
574,64.0,0,30,6.0,88.0
575,64.0,0,60,2.0,88.0
576,70.0,0,60,1.0,88.0
577,61.0,0,60,3.0,88.0
578,78.0,30,30,0.0,88.0
579,76.0,0,30,0.0,88.0
580,62.0,0,30,6.0,88.0
581,71.0,30,30,6.0,88.0
582,47.0,0,30,6.0,88.0
583,47.0,0,30,4.0,88.0
584,74.0,30,30,0.0,88.0
585,66.0,0,60,2.0,88.0
586,62.0,0,60,3.0,88.0
587,71.0,0,30,6.0,88.0
588,61.0,0,30,6.0,88.0
589,73.0,30,30,0.0,88.0
590,52.0,0,60,4.0,88.0
591,71.0,0,120,1.0,88.0
592,71.0,30,30,0.0,88.0
593,64.0,0,60,3.0,88.0
594,67.0,0,60,2.0,88.0
595,52.0,0,60,6.0,88.0
596,54.0,0,30,6.0,88.0
597,62.0,0,30,6.0,88.0
598,74.0,0,30,1.0,88.0
599,71.0,0,30,6.0,88.0
600,74.0,0,30,0.0,88.0
601,54.0,30,30,4.0,88.0
602,73.0,30,30,1.0,88.0
603,62.0,0,60,3.0,88.0
604,73.0,0,30,0.0,88.0
605,66.0,0,0,2.0,88.0
606,71.0,0,30,1.0,88.0
607,42.0,0,30,4.0,88.0
608,71.0,0,30,0.0,88.0
609,42.0,0,30,6.0,88.0
610,70.0,0,30,6.0,88.0
611,61.0,30,30,6.0,88.0
612,70.0,30,30,0.0,88.0
613,70.0,0,30,1.0,88.0
614,66.0,0,0,2.0,88.0
615,61.0,0,60,3.0,88.0
616,47.0,0,30,6.0,88.0
617,47.0,30,30,4.0,88.0
618,50.0,0,30,6.0,88.0
619,50.0,60,30,4.0,88.0
620,54.0,60,30,4.0,88.0
621,54.0,0,30,6.0,88.0
622,62.0,0,180,6.0,88.0
623,66.0,0,180,6.0,88.0
624,59.0,0,0,6.0,88.0
625,71.0,0,0,6.0,88.0
626,62.0,0,120,6.0,88.0
627,71.0,90,30,5.0,88.0
628,59.0,0,120,4.0,88.0
629,62.0,0,300,3.0,88.0
630,66.0,0,120,6.0,88.0
631,71.0,0,300,1.0,88.0
632,71.0,0,300,0.0,88.0
633,70.0,30,30,5.0,88.0
634,71.0,30,30,5.0,88.0
635,71.0,90,30,0.0,49.0
636,62.0,30,30,6.0,49.0
637,66.0,0,30,6.0,49.0
638,62.0,0,30,4.0,49.0
639,62.0,0,30,2.0,49.0
640,70.0,0,30,0.0,49.0
641,59.0,0,30,3.0,49.0
642,66.0,0,30,1.0,49.0
643,71.0,30,30,0.0,49.0
644,61.0,0,30,4.0,49.0
645,64.0,0,30,2.0,49.0
646,61.0,0,30,6.0,49.0
647,64.0,0,30,6.0,49.0
648,70.0,0,30,1.0,49.0
649,61.0,0,30,3.0,49.0
650,66.0,0,30,2.0,49.0
651,62.0,0,30,3.0,49.0
652,62.0,0,30,6.0,49.0
653,59.0,0,30,6.0,49.0
654,66.0,30,270,5.0,88.0
655,59.0,0,30,4.0,49.0
656,71.0,60,30,1.0,49.0
657,73.0,30,30,5.0,88.0
658,66.0,30,120,0.0,49.0
659,71.0,30,30,5.0,88.0
660,73.0,30,30,5.0,88.0
661,73.0,90,30,0.0,49.0
662,62.0,0,30,6.0,49.0
663,59.0,0,30,6.0,49.0
664,71.0,30,30,0.0,49.0
665,59.0,0,30,4.0,49.0
666,66.0,0,30,1.0,49.0
667,66.0,0,30,2.0,49.0
668,61.0,0,30,3.0,49.0
669,73.0,30,30,0.0,49.0
670,61.0,0,30,3.0,49.0
671,58.0,0,30,4.0,49.0
672,76.0,0,30,1.0,49.0
673,58.0,0,30,6.0,49.0
674,61.0,0,30,6.0,49.0
675,66.0,30,30,2.0,49.0
676,66.0,30,270,5.0,88.0
677,66.0,0,30,3.0,49.0
678,66.0,0,30,6.0,49.0
679,54.0,0,30,4.0,49.0
680,66.0,0,90,0.0,49.0
681,74.0,0,30,1.0,49.0
682,54.0,60,30,6.0,49.0
683,70.0,0,30,2.0,49.0
684,70.0,30,30,0.0,49.0
685,70.0,0,30,5.0,88.0
686,66.0,0,30,2.0,49.0
687,73.0,0,30,1.0,49.0
688,73.0,0,30,0.0,49.0
689,66.0,0,30,3.0,49.0
690,58.0,30,30,6.0,49.0
691,73.0,0,30,5.0,88.0
692,64.0,0,30,6.0,49.0
693,58.0,0,30,4.0,49.0
694,76.0,30,30,0.0,49.0
695,76.0,0,30,5.0,88.0
696,62.0,0,30,6.0,49.0
697,59.0,0,60,6.0,49.0
698,59.0,0,60,4.0,49.0
699,74.0,0,60,5.0,88.0
700,66.0,0,60,2.0,49.0
701,62.0,0,60,3.0,49.0
702,74.0,30,60,0.0,49.0
703,74.0,0,60,1.0,49.0
704,67.0,0,30,2.0,49.0
705,73.0,0,30,1.0,49.0
706,73.0,0,30,0.0,49.0
707,73.0,0,30,5.0,88.0
708,52.0,0,30,4.0,49.0
709,64.0,0,30,3.0,49.0
710,61.0,0,30,6.0,49.0
711,52.0,60,30,6.0,49.0
712,66.0,0,60,3.0,49.0
713,50.0,0,60,4.0,49.0
714,50.0,0,60,6.0,49.0
715,66.0,0,60,2.0,49.0
716,71.0,60,120,5.0,88.0
717,71.0,0,120,1.0,49.0
718,67.0,60,60,3.0,49.0
719,71.0,0,120,0.0,49.0
720,59.0,0,120,6.0,49.0
721,57.0,60,30,6.0,49.0
722,69.0,0,60,0.0,49.0
723,64.0,0,60,3.0,49.0
724,64.0,0,0,2.0,49.0
725,69.0,0,60,5.0,88.0
726,49.0,0,120,4.0,49.0
727,49.0,0,120,6.0,49.0
728,69.0,0,60,1.0,49.0
729,45.0,0,30,4.0,49.0
730,61.0,0,30,3.0,49.0
731,67.0,0,30,1.0,49.0
732,55.0,0,30,6.0,49.0
733,67.0,0,30,0.0,49.0
734,67.0,0,30,5.0,88.0
735,45.0,60,30,6.0,49.0
736,66.0,0,30,0.0,49.0
737,50.0,0,30,4.0,49.0
738,57.0,0,30,3.0,49.0
739,54.0,0,30,6.0,49.0
740,66.0,0,30,5.0,88.0
741,50.0,0,30,6.0,49.0
742,62.0,60,30,2.0,49.0
743,66.0,0,30,1.0,49.0
744,64.0,0,30,1.0,49.0
745,45.0,0,30,4.0,49.0
746,52.0,0,30,6.0,49.0
747,45.0,0,30,6.0,49.0
748,64.0,60,30,5.0,88.0
749,57.0,0,30,3.0,49.0
750,61.0,0,30,2.0,49.0
751,64.0,0,30,0.0,49.0
752,62.0,0,60,1.0,36.0
753,59.0,0,60,2.0,36.0
754,56.0,120,60,3.0,36.0
755,57.0,0,30,2.0,36.0
756,61.0,60,30,1.0,36.0
757,57.0,0,30,3.0,36.0
758,69.0,30,30,5.0,88.0
759,67.0,30,30,5.0,88.0
760,69.0,30,30,5.0,88.0
761,69.0,90,30,0.0,49.0
762,62.0,0,30,3.0,49.0
763,69.0,0,30,1.0,49.0
764,50.0,0,30,4.0,49.0
765,50.0,0,30,6.0,49.0
766,57.0,0,30,6.0,49.0
767,54.0,0,30,6.0,49.0
768,66.0,0,30,2.0,49.0
769,67.0,30,30,0.0,49.0
770,69.0,30,30,0.0,49.0
771,74.0,0,30,1.0,49.0
772,38.0,0,30,6.0,49.0
773,62.0,0,30,6.0,49.0
774,54.0,0,30,6.0,49.0
775,38.0,0,30,4.0,49.0
776,69.0,0,30,2.0,49.0
777,66.0,0,30,3.0,49.0
778,60.0,0,30,6.0,49.0
779,42.0,0,30,6.0,49.0
780,72.0,0,30,1.0,49.0
781,42.0,60,30,4.0,49.0
782,66.0,30,270,5.0,88.0
783,62.0,0,30,2.0,49.0
784,57.0,0,30,3.0,49.0
785,54.0,0,30,6.0,49.0
786,66.0,30,120,0.0,49.0
787,62.0,30,30,5.0,88.0
788,61.0,30,30,5.0,88.0
789,62.0,30,30,5.0,88.0
790,62.0,90,30,0.0,62.0
791,71.0,0,30,2.0,62.0
792,74.0,0,30,1.0,62.0
793,67.0,0,30,3.0,62.0
794,43.0,0,30,6.0,62.0
795,55.0,0,30,6.0,62.0
796,43.0,0,30,4.0,62.0
797,60.0,30,30,0.0,62.0
798,59.0,0,30,6.0,62.0
799,62.0,30,30,0.0,62.0
800,62.0,0,30,6.0,62.0
801,55.0,0,30,6.0,62.0
802,55.0,0,30,4.0,62.0
803,59.0,0,30,6.0,62.0
804,62.0,30,30,3.0,62.0
805,67.0,0,30,2.0,62.0
806,71.0,0,30,1.0,62.0
807,51.0,60,30,4.0,62.0
808,71.0,0,90,0.0,62.0
809,71.0,30,270,5.0,88.0
810,66.0,0,30,2.0,62.0
811,66.0,0,30,3.0,62.0
812,51.0,0,30,6.0,62.0
813,69.0,0,30,6.0,62.0
814,69.0,0,30,1.0,62.0
815,59.0,0,30,6.0,62.0
816,69.0,0,30,0.0,62.0
817,69.0,30,30,5.0,88.0
818,63.0,0,30,6.0,62.0
819,47.0,0,30,4.0,62.0
820,67.0,0,30,5.0,88.0
821,71.0,0,30,1.0,62.0
822,67.0,0,30,0.0,62.0
823,59.0,0,30,3.0,62.0
824,47.0,0,30,6.0,62.0
825,66.0,30,30,6.0,62.0
826,63.0,0,30,2.0,62.0
827,66.0,30,30,5.0,88.0
828,66.0,0,30,0.0,62.0
829,67.0,0,30,6.0,62.0
830,64.0,30,30,6.0,62.0
831,67.0,0,60,0.0,62.0
832,59.0,0,60,3.0,62.0
833,52.0,0,60,4.0,62.0
834,67.0,0,60,5.0,88.0
835,67.0,0,60,1.0,62.0
836,64.0,0,60,2.0,62.0
837,52.0,0,60,6.0,62.0
838,54.0,0,30,4.0,62.0
839,66.0,0,30,6.0,62.0
840,54.0,0,30,6.0,62.0
841,70.0,0,30,3.0,62.0
842,66.0,0,30,1.0,62.0
843,58.0,0,30,6.0,62.0
844,66.0,0,30,5.0,88.0
845,66.0,60,30,0.0,62.0
846,62.0,0,30,2.0,62.0
847,64.0,0,30,6.0,62.0
848,59.0,0,30,6.0,62.0
849,55.0,0,60,6.0,62.0
850,55.0,0,60,4.0,62.0
851,61.0,60,60,2.0,62.0
852,71.0,0,60,3.0,62.0
853,64.0,0,90,0.0,62.0
854,64.0,0,90,1.0,62.0
855,67.0,30,30,1.0,62.0
856,67.0,0,30,0.0,62.0
857,64.0,0,120,5.0,88.0
858,70.0,0,60,3.0,62.0
859,71.0,0,30,1.0,62.0
860,71.0,30,30,0.0,62.0
861,64.0,0,30,3.0,62.0
862,64.0,0,120,6.0,62.0
863,49.0,60,120,6.0,62.0
864,58.0,0,120,6.0,62.0
865,75.0,30,30,0.0,62.0
866,49.0,0,120,4.0,62.0
867,67.0,0,60,5.0,88.0
868,75.0,0,30,1.0,62.0
869,67.0,0,120,2.0,62.0
870,59.0,0,30,6.0,62.0
871,62.0,0,30,6.0,62.0
872,67.0,0,60,3.0,62.0
873,71.0,0,60,5.0,88.0
874,47.0,30,60,6.0,62.0
875,47.0,0,60,4.0,62.0
876,67.0,0,60,2.0,62.0
877,58.0,0,30,6.0,62.0
878,64.0,0,30,6.0,62.0
879,76.0,0,90,1.0,62.0
880,66.0,0,30,2.0,62.0
881,76.0,0,30,5.0,88.0
882,61.0,0,30,3.0,62.0
883,46.0,0,30,4.0,62.0
884,46.0,60,30,6.0,62.0
885,76.0,0,90,0.0,62.0
886,58.0,0,30,6.0,62.0
887,61.0,0,30,6.0,62.0
888,42.0,0,30,6.0,62.0
889,66.0,0,30,3.0,62.0
890,70.0,0,30,5.0,88.0
891,70.0,60,30,1.0,62.0
892,42.0,0,30,4.0,62.0
893,70.0,0,30,0.0,62.0
894,61.0,0,30,2.0,62.0
895,62.0,120,60,2.0,36.0
896,59.0,0,60,3.0,36.0
897,67.0,0,60,1.0,36.0
898,61.0,0,30,2.0,36.0
899,66.0,0,30,1.0,36.0
900,58.0,60,30,3.0,36.0
901,66.0,30,30,5.0,88.0
902,64.0,30,30,5.0,88.0
903,66.0,30,30,5.0,88.0
904,66.0,90,30,0.0,49.0
905,59.0,30,30,6.0,49.0
906,78.0,0,30,1.0,49.0
907,62.0,0,30,6.0,49.0
908,47.0,0,30,4.0,49.0
909,47.0,0,30,6.0,49.0
910,71.0,0,30,3.0,49.0
911,64.0,0,30,0.0,49.0
912,74.0,0,30,2.0,49.0
913,66.0,30,30,0.0,49.0
914,66.0,0,30,3.0,49.0
915,74.0,0,30,1.0,49.0
916,59.0,0,30,4.0,49.0
917,62.0,0,30,6.0,49.0
918,66.0,0,30,6.0,49.0
919,59.0,30,30,6.0,49.0
920,71.0,0,30,2.0,49.0
921,66.0,0,30,2.0,49.0
922,71.0,0,30,1.0,49.0
923,62.0,0,30,6.0,49.0
924,47.0,60,30,6.0,49.0
925,47.0,0,30,4.0,49.0
926,62.0,0,30,3.0,49.0
927,74.0,30,270,5.0,88.0
928,59.0,0,30,6.0,49.0
929,74.0,0,120,0.0,49.0
930,68.0,30,30,5.0,88.0
931,66.0,30,30,5.0,88.0
932,68.0,30,30,5.0,88.0
933,68.0,90,30,0.0,49.0
934,77.0,0,30,1.0,49.0
935,65.0,0,30,6.0,49.0
936,61.0,0,30,6.0,49.0
937,68.0,0,30,3.0,49.0
938,59.0,0,30,4.0,49.0
939,67.0,0,30,6.0,49.0
940,66.0,0,30,0.0,49.0
941,73.0,30,30,2.0,49.0
942,59.0,0,30,6.0,49.0
943,68.0,30,30,0.0,49.0
944,57.0,0,30,6.0,49.0
945,73.0,0,30,2.0,49.0
946,78.0,0,30,1.0,49.0
947,57.0,0,30,4.0,49.0
948,69.0,0,30,3.0,49.0
949,69.0,0,30,2.0,49.0
950,73.0,30,270,5.0,88.0
951,73.0,0,30,1.0,49.0
952,45.0,0,30,4.0,49.0
953,66.0,0,30,3.0,49.0
954,45.0,60,30,6.0,49.0
955,73.0,30,120,0.0,49.0
956,61.0,0,120,6.0,49.0
957,66.0,0,120,6.0,49.0
958,69.0,30,30,5.0,88.0
959,57.0,0,30,6.0,49.0
960,57.0,30,30,4.0,49.0
961,68.0,0,30,5.0,88.0
962,66.0,30,30,5.0,88.0
963,65.0,0,30,5.0,88.0
964,68.0,30,30,5.0,88.0
965,62.0,0,30,3.0,49.0
966,71.0,30,30,2.0,49.0
967,77.0,0,30,1.0,49.0
968,56.0,30,120,4.0,49.0
969,56.0,0,120,6.0,49.0
970,65.0,0,120,6.0,49.0
971,59.0,0,120,6.0,49.0
972,71.0,0,60,5.0,88.0
973,62.0,0,30,3.0,49.0
974,54.0,60,30,4.0,49.0
975,71.0,0,30,2.0,49.0
976,59.0,0,30,6.0,49.0
977,62.0,0,30,6.0,49.0
978,54.0,0,30,6.0,49.0
979,78.0,0,30,1.0,49.0
980,62.0,0,0,5.0,88.0
981,61.0,0,30,3.0,49.0
982,71.0,60,30,1.0,49.0
983,68.0,0,30,2.0,49.0
984,61.0,0,30,5.0,88.0
985,53.0,0,120,4.0,49.0
986,53.0,0,120,6.0,49.0
987,61.0,60,120,6.0,49.0
988,59.0,0,120,6.0,49.0
989,66.0,0,30,2.0,49.0
990,61.0,0,30,3.0,49.0
991,61.0,0,30,6.0,49.0
992,57.0,0,30,6.0,49.0
993,69.0,0,30,1.0,49.0
994,54.0,0,30,6.0,49.0
995,54.0,60,30,4.0,49.0
996,47.0,0,30,4.0,49.0
997,69.0,0,90,5.0,88.0
998,66.0,60,30,6.0,49.0
999,57.0,0,30,6.0,49.0
1000,47.0,0,30,6.0,49.0
1001,68.0,30,30,6.0,49.0
1002,68.0,0,30,5.0,88.0
1003,49.0,0,30,6.0,49.0
1004,61.0,30,30,3.0,49.0
1005,65.0,0,30,2.0,49.0
1006,49.0,0,30,4.0,49.0
1007,68.0,0,30,1.0,49.0
1008,37.0,0,30,4.0,49.0
1009,37.0,0,30,6.0,49.0
1010,65.0,0,90,5.0,88.0
1011,68.0,0,30,2.0,49.0
1012,65.0,0,90,6.0,49.0
1013,73.0,0,30,1.0,49.0
1014,61.0,0,90,6.0,49.0
1015,61.0,60,30,3.0,49.0
1016,66.0,0,0,6.0,49.0
1017,66.0,0,0,5.0,88.0
1018,66.0,0,30,2.0,49.0
1019,69.0,0,30,1.0,49.0
1020,61.0,30,30,3.0,49.0
1021,57.0,0,30,3.0,49.0
1022,66.0,0,30,1.0,49.0
1023,61.0,60,30,2.0,49.0
1024,57.0,0,120,6.0,49.0
1025,42.0,0,120,4.0,49.0
1026,66.0,30,30,0.0,49.0
1027,42.0,0,120,6.0,49.0
1028,61.0,0,120,6.0,49.0
1029,65.0,30,30,0.0,88.0
1030,66.0,30,30,0.0,88.0
1031,61.0,0,30,6.0,88.0
1032,54.0,0,30,3.0,88.0
1033,61.0,0,30,2.0,88.0
1034,66.0,120,30,6.0,88.0
1035,66.0,0,30,1.0,88.0
1036,57.0,0,30,6.0,88.0
1037,57.0,0,30,4.0,88.0
1038,56.0,0,30,4.0,88.0
1039,56.0,0,30,3.0,88.0
1040,65.0,0,30,6.0,88.0
1041,56.0,0,30,6.0,88.0
1042,59.0,0,30,2.0,88.0
1043,59.0,60,30,6.0,88.0
1044,65.0,0,30,1.0,88.0
1045,61.0,30,270,0.0,88.0
1046,54.0,60,30,4.0,88.0
1047,57.0,0,30,6.0,88.0
1048,57.0,0,30,3.0,88.0
1049,66.0,0,30,1.0,88.0
1050,61.0,0,30,2.0,88.0
1051,66.0,0,30,6.0,88.0
1052,54.0,0,30,6.0,88.0
1053,68.0,30,30,0.0,88.0
1054,66.0,30,30,0.0,88.0
1055,68.0,30,30,0.0,88.0
1056,61.0,120,30,1.0,88.0
1057,53.0,0,30,6.0,88.0
1058,68.0,0,30,6.0,88.0
1059,61.0,0,30,6.0,88.0
1060,61.0,0,30,3.0,88.0
1061,53.0,0,30,4.0,88.0
1062,68.0,0,30,2.0,88.0
1063,65.0,0,30,2.0,88.0
1064,49.0,0,30,4.0,88.0
1065,71.0,60,30,1.0,88.0
1066,71.0,0,30,6.0,88.0
1067,49.0,0,30,6.0,88.0
1068,56.0,0,30,3.0,88.0
1069,65.0,0,30,6.0,88.0
1070,66.0,0,30,2.0,88.0
1071,69.0,0,30,1.0,88.0
1072,54.0,0,30,3.0,88.0
1073,51.0,0,30,6.0,88.0
1074,69.0,0,30,6.0,88.0
1075,66.0,0,30,6.0,88.0
1076,51.0,60,30,4.0,88.0
1077,61.0,30,270,0.0,88.0
1078,65.0,30,30,0.0,88.0
1079,68.0,0,30,0.0,88.0
1080,53.0,0,30,4.0,88.0
1081,61.0,0,30,3.0,88.0
1082,68.0,30,30,6.0,88.0
1083,53.0,0,30,6.0,88.0
1084,68.0,0,30,2.0,88.0
1085,68.0,0,30,1.0,88.0
1086,71.0,30,30,0.0,88.0
1087,66.0,0,30,6.0,88.0
1088,69.0,0,30,6.0,88.0
1089,69.0,0,60,1.0,88.0
1090,69.0,0,60,0.0,88.0
1091,54.0,30,60,6.0,88.0
1092,66.0,0,60,2.0,88.0
1093,54.0,0,60,4.0,88.0
1094,61.0,0,60,3.0,88.0
1095,62.0,0,30,2.0,88.0
1096,68.0,0,30,0.0,88.0
1097,47.0,0,30,4.0,88.0
1098,59.0,0,30,3.0,88.0
1099,62.0,0,30,6.0,88.0
1100,68.0,0,30,6.0,88.0
1101,68.0,60,30,1.0,88.0
1102,47.0,0,30,6.0,88.0
1103,61.0,0,30,6.0,88.0
1104,66.0,0,30,6.0,88.0
1105,45.0,0,60,6.0,88.0
1106,45.0,0,60,4.0,88.0
1107,61.0,0,60,3.0,88.0
1108,61.0,0,60,2.0,88.0
1109,66.0,0,30,6.0,88.0
1110,59.0,0,30,6.0,88.0
1111,62.0,0,60,3.0,88.0
1112,66.0,60,120,1.0,88.0
1113,66.0,0,120,0.0,88.0
1114,64.0,60,30,6.0,88.0
1115,59.0,0,60,3.0,88.0
1116,64.0,0,60,0.0,88.0
1117,44.0,60,120,4.0,88.0
1118,59.0,60,0,2.0,88.0
1119,44.0,0,120,6.0,88.0
1120,64.0,0,60,1.0,88.0
1121,59.0,0,30,6.0,88.0
1122,62.0,0,30,6.0,88.0
1123,40.0,0,30,6.0,88.0
1124,56.0,0,30,3.0,88.0
1125,40.0,0,30,4.0,88.0
1126,62.0,0,30,0.0,88.0
1127,62.0,0,30,1.0,88.0
1128,61.0,0,30,0.0,88.0
1129,57.0,0,30,2.0,88.0
1130,61.0,0,30,1.0,88.0
1131,45.0,0,30,4.0,88.0
1132,45.0,0,30,6.0,88.0
1133,61.0,0,30,6.0,88.0
1134,57.0,0,30,6.0,88.0
1135,52.0,60,30,3.0,88.0
1136,59.0,0,30,6.0,88.0
1137,40.0,0,30,6.0,88.0
1138,52.0,0,30,3.0,88.0
1139,59.0,0,30,1.0,88.0
1140,56.0,0,30,6.0,88.0
1141,40.0,0,30,4.0,88.0
1142,56.0,60,30,2.0,88.0
1143,59.0,0,30,0.0,88.0
1144,57.0,0,60,2.0,49.0
1145,63.0,0,60,1.0,49.0
1146,54.0,120,60,3.0,49.0
1147,59.0,60,30,2.0,49.0
1148,56.0,0,30,3.0,49.0
1149,64.0,0,30,1.0,49.0
1150,64.0,30,30,0.0,88.0
1151,62.0,30,30,0.0,88.0
1152,64.0,30,30,0.0,88.0
1153,69.0,0,30,1.0,88.0
1154,69.0,0,30,6.0,88.0
1155,45.0,0,30,4.0,88.0
1156,61.0,0,30,6.0,88.0
1157,45.0,0,30,6.0,88.0
1158,64.0,120,30,2.0,88.0
1159,57.0,0,30,3.0,88.0
1160,64.0,0,30,6.0,88.0
1161,62.0,0,30,2.0,88.0
1162,62.0,60,30,6.0,88.0
1163,66.0,0,30,6.0,88.0
1164,57.0,0,30,3.0,88.0
1165,50.0,0,30,6.0,88.0
1166,66.0,0,30,1.0,88.0
1167,50.0,0,30,4.0,88.0
1168,38.0,0,30,4.0,88.0
1169,62.0,60,30,1.0,88.0
1170,38.0,0,30,6.0,88.0
1171,54.0,0,30,6.0,88.0
1172,57.0,0,30,6.0,88.0
1173,62.0,0,30,6.0,88.0
1174,57.0,0,30,2.0,88.0
1175,54.0,0,30,3.0,88.0
1176,73.0,30,270,0.0,88.0
1177,66.0,30,30,0.0,88.0
1178,64.0,30,30,0.0,88.0
1179,66.0,30,30,0.0,88.0
1180,47.0,0,30,4.0,88.0
1181,71.0,0,30,1.0,88.0
1182,66.0,0,30,2.0,88.0
1183,62.0,0,30,6.0,88.0
1184,59.0,0,30,3.0,88.0
1185,66.0,120,30,6.0,88.0
1186,47.0,0,30,6.0,88.0
1187,71.0,0,30,6.0,88.0
1188,52.0,60,30,4.0,88.0
1189,68.0,0,30,1.0,88.0
1190,52.0,0,30,6.0,88.0
1191,68.0,0,30,6.0,88.0
1192,59.0,0,30,3.0,88.0
1193,64.0,0,30,6.0,88.0
1194,64.0,0,30,2.0,88.0
1195,59.0,0,30,6.0,88.0
1196,56.0,0,30,3.0,88.0
1197,40.0,0,30,6.0,88.0
1198,56.0,0,30,6.0,88.0
1199,64.0,0,30,6.0,88.0
1200,74.0,30,270,0.0,88.0
1201,59.0,60,30,2.0,88.0
1202,40.0,0,30,4.0,88.0
1203,64.0,0,30,1.0,88.0
1204,68.0,30,30,0.0,88.0
1205,66.0,30,30,0.0,88.0
1206,68.0,30,30,0.0,88.0
1207,76.0,30,60,0.0,88.0
1208,66.0,0,30,6.0,88.0
1209,70.0,0,30,6.0,88.0
1210,73.0,0,30,0.0,88.0
1211,54.0,60,60,6.0,88.0
1212,54.0,0,60,4.0,88.0
1213,52.0,60,30,4.0,88.0
1214,52.0,0,30,6.0,88.0
1215,66.0,0,60,6.0,88.0
1216,73.0,0,60,1.0,88.0
1217,66.0,0,0,2.0,88.0
1218,62.0,0,30,6.0,88.0
1219,73.0,0,90,6.0,88.0
1220,61.0,0,120,3.0,88.0
1221,70.0,0,120,0.0,88.0
1222,66.0,0,60,1.0,88.0
1223,62.0,0,30,6.0,88.0
1224,71.0,0,30,6.0,88.0
1225,50.0,60,120,6.0,88.0
1226,59.0,60,60,3.0,88.0
1227,71.0,0,60,0.0,88.0
1228,50.0,0,120,4.0,88.0
1229,71.0,0,60,1.0,88.0
1230,70.0,0,30,6.0,88.0
1231,73.0,0,30,0.0,88.0
1232,66.0,60,30,6.0,88.0
1233,64.0,0,60,3.0,88.0
1234,49.0,0,60,6.0,88.0
1235,49.0,0,60,4.0,88.0
1236,73.0,0,60,1.0,88.0
1237,70.0,0,60,2.0,88.0
1238,74.0,0,30,0.0,88.0
1239,66.0,0,30,6.0,88.0
1240,47.0,0,30,6.0,88.0
1241,62.0,0,30,6.0,88.0
1242,71.0,0,30,2.0,88.0
1243,47.0,0,30,4.0,88.0
1244,66.0,0,30,3.0,88.0
1245,71.0,0,30,6.0,88.0
1246,74.0,60,30,1.0,88.0
1247,73.0,30,30,0.0,88.0
1248,71.0,0,30,0.0,88.0
1249,52.0,0,60,6.0,88.0
1250,52.0,30,60,4.0,88.0
1251,69.0,30,30,0.0,88.0
1252,66.0,0,30,6.0,88.0
1253,68.0,0,30,0.0,88.0
1254,59.0,0,30,6.0,88.0
1255,71.0,0,30,6.0,88.0
1256,66.0,0,60,2.0,88.0
1257,71.0,30,60,1.0,88.0
1258,66.0,30,30,0.0,88.0
1259,68.0,0,30,6.0,88.0
1260,64.0,0,30,6.0,88.0
1261,68.0,30,30,0.0,88.0
1262,71.0,30,15,0.0,88.0
1263,64.0,0,60,2.0,88.0
1264,59.0,0,120,3.0,88.0
1265,50.0,0,120,4.0,88.0
1266,68.0,0,60,1.0,88.0
1267,50.0,0,120,6.0,88.0
1268,69.0,0,30,1.0,88.0
1269,49.0,0,30,4.0,88.0
1270,69.0,30,30,6.0,88.0
1271,64.0,0,30,6.0,88.0
1272,69.0,0,30,0.0,88.0
1273,49.0,0,30,6.0,88.0
1274,64.0,0,30,3.0,88.0
1275,69.0,0,30,2.0,88.0
1276,73.0,30,15,0.0,88.0
1277,71.0,0,30,0.0,88.0
1278,71.0,0,30,6.0,88.0
1279,64.0,0,30,6.0,88.0
1280,68.0,0,30,6.0,88.0
1281,74.0,30,15,0.0,88.0
1282,52.0,0,60,6.0,88.0
1283,68.0,0,60,2.0,88.0
1284,71.0,30,60,1.0,88.0
1285,52.0,0,60,4.0,88.0
1286,64.0,0,0,3.0,88.0
1287,73.0,0,30,1.0,88.0
1288,73.0,0,30,6.0,88.0
1289,64.0,0,30,6.0,88.0
1290,73.0,30,30,0.0,88.0
1291,69.0,0,30,2.0,88.0
1292,71.0,30,30,0.0,88.0
1293,45.0,0,60,6.0,88.0
1294,45.0,0,60,4.0,88.0
1295,69.0,0,30,0.0,88.0
1296,47.0,0,60,4.0,88.0
1297,68.0,30,30,0.0,88.0
1298,47.0,30,60,6.0,88.0
1299,66.0,0,30,0.0,88.0
1300,69.0,30,30,6.0,88.0
1301,65.0,0,30,6.0,88.0
1302,49.0,0,60,4.0,88.0
1303,65.0,30,30,0.0,88.0
1304,69.0,0,60,1.0,88.0
1305,49.0,0,60,6.0,88.0
1306,66.0,0,30,0.0,88.0
1307,69.0,30,15,0.0,88.0
1308,61.0,0,60,6.0,88.0
1309,68.0,30,30,0.0,88.0
1310,59.0,0,30,6.0,88.0
1311,71.0,30,15,0.0,88.0
1312,69.0,30,30,0.0,88.0
1313,57.0,0,30,6.0,88.0
1314,66.0,0,150,6.0,88.0
1315,73.0,30,15,0.0,88.0
1316,62.0,0,60,2.0,88.0
1317,57.0,0,60,3.0,88.0
1318,56.0,0,30,6.0,88.0
1319,66.0,0,30,6.0,88.0
1320,66.0,0,240,1.0,88.0
1321,50.0,0,240,4.0,88.0
1322,50.0,30,240,6.0,88.0
1323,71.0,0,30,6.0,88.0
1324,66.0,0,30,6.0,88.0
1325,62.0,0,60,6.0,88.0
1326,62.0,0,60,4.0,88.0
1327,71.0,60,60,1.0,88.0
1328,68.0,0,30,1.0,88.0
1329,59.0,0,30,4.0,88.0
1330,59.0,60,30,6.0,88.0
1331,68.0,0,30,6.0,88.0
1332,65.0,0,30,6.0,88.0
1333,56.0,0,240,3.0,88.0
1334,56.0,60,60,4.0,88.0
1335,65.0,0,60,1.0,88.0
1336,59.0,0,240,2.0,88.0
1337,56.0,0,60,6.0,88.0
1338,53.0,0,30,6.0,88.0
1339,62.0,0,30,6.0,88.0
1340,53.0,0,30,4.0,88.0
1341,71.0,30,270,0.0,88.0
1342,68.0,0,30,6.0,88.0
1343,59.0,0,60,3.0,88.0
1344,68.0,0,60,1.0,88.0
1345,62.0,60,60,2.0,88.0
1346,62.0,30,30,0.0,88.0
1347,61.0,0,30,0.0,88.0
1348,54.0,30,60,6.0,88.0
1349,59.0,30,30,0.0,88.0
1350,54.0,0,60,4.0,88.0
1351,62.0,0,60,3.0,88.0
1352,61.0,0,30,3.0,88.0
1353,56.0,0,90,2.0,88.0
1354,68.0,0,90,6.0,88.0
1355,61.0,0,30,0.0,88.0
1356,71.0,0,90,6.0,88.0
1357,53.0,30,30,6.0,88.0
1358,71.0,0,90,1.0,88.0
1359,53.0,0,30,4.0,88.0
1360,63.0,30,30,0.0,88.0
1361,56.0,0,30,4.0,88.0
1362,65.0,0,30,1.0,88.0
1363,56.0,30,30,6.0,88.0
1364,65.0,0,30,6.0,88.0
1365,59.0,0,30,6.0,88.0
1366,56.0,0,30,3.0,88.0
1367,65.0,0,30,0.0,88.0
1368,59.0,0,30,2.0,88.0
1369,66.0,30,30,0.0,88.0
1370,68.0,30,30,0.0,88.0
1371,69.0,30,30,0.0,88.0
1372,65.0,0,30,2.0,88.0
1373,71.0,0,30,0.0,88.0
1374,49.0,0,30,4.0,88.0
1375,59.0,0,30,6.0,88.0
1376,56.0,0,30,3.0,88.0
1377,62.0,0,30,6.0,88.0
1378,71.0,30,30,1.0,88.0
1379,49.0,0,30,6.0,88.0
1380,74.0,30,30,0.0,88.0
1381,53.0,0,30,6.0,88.0
1382,61.0,0,30,6.0,88.0
1383,56.0,0,30,6.0,88.0
1384,73.0,0,30,0.0,88.0
1385,61.0,0,30,3.0,88.0
1386,61.0,30,30,1.0,88.0
1387,56.0,0,30,2.0,88.0
1388,53.0,0,30,4.0,88.0
1389,71.0,30,30,0.0,88.0
1390,69.0,30,30,0.0,88.0
1391,68.0,30,30,0.0,88.0
1392,54.0,30,30,4.0,88.0
1393,54.0,0,30,6.0,88.0
1394,69.0,0,30,0.0,88.0
1395,68.0,30,15,0.0,88.0
1396,62.0,0,30,6.0,88.0
1397,71.0,0,30,6.0,88.0
1398,71.0,0,30,0.0,88.0
1399,66.0,30,30,6.0,88.0
1400,69.0,30,30,0.0,88.0
1401,71.0,0,60,1.0,88.0
1402,50.0,0,60,6.0,88.0
1403,66.0,0,60,2.0,88.0
1404,54.0,0,0,3.0,88.0
1405,50.0,0,60,4.0,88.0
1406,68.0,30,30,0.0,88.0
1407,69.0,0,30,1.0,88.0
1408,69.0,0,30,6.0,88.0
1409,66.0,0,30,6.0,88.0
1410,61.0,0,30,6.0,88.0
1411,61.0,0,30,2.0,88.0
1412,45.0,0,60,6.0,88.0
1413,66.0,30,30,0.0,88.0
1414,45.0,0,60,4.0,88.0
1415,62.0,0,30,6.0,88.0
1416,68.0,0,30,6.0,88.0
1417,68.0,0,30,0.0,88.0
1418,66.0,30,15,0.0,88.0
1419,47.0,0,60,6.0,88.0
1420,62.0,30,60,2.0,88.0
1421,68.0,0,60,1.0,88.0
1422,47.0,0,60,4.0,88.0
1423,69.0,0,30,6.0,88.0
1424,69.0,0,30,1.0,88.0
1425,61.0,30,30,2.0,88.0
1426,69.0,0,30,0.0,88.0
1427,61.0,0,30,6.0,88.0
1428,49.0,0,60,6.0,88.0
1429,68.0,30,30,0.0,88.0
1430,49.0,0,60,4.0,88.0
1431,54.0,0,60,3.0,88.0
1432,61.0,30,30,6.0,88.0
1433,61.0,0,30,3.0,88.0
1434,65.0,0,30,6.0,88.0
1435,66.0,0,30,0.0,88.0
1436,65.0,30,30,0.0,88.0
1437,68.0,0,60,1.0,88.0
1438,61.0,0,60,2.0,88.0
1439,37.0,0,60,6.0,88.0
1440,37.0,0,60,4.0,88.0
1441,42.0,0,30,6.0,88.0
1442,42.0,0,30,4.0,88.0
1443,45.0,0,30,4.0,88.0
1444,45.0,60,30,6.0,88.0
1445,49.0,60,30,6.0,88.0
1446,49.0,0,30,4.0,88.0
1447,54.0,0,30,6.0,88.0
1448,54.0,60,30,4.0,88.0
1449,45.0,60,30,4.0,88.0
1450,45.0,0,30,6.0,88.0
1451,57.0,0,300,6.0,88.0
1452,61.0,60,0,6.0,49.0
1453,66.0,0,300,6.0,88.0
1454,66.0,0,300,1.0,88.0
1455,57.0,30,300,3.0,88.0
1456,61.0,0,300,2.0,88.0
1457,66.0,0,300,0.0,88.0
1458,65.0,0,30,6.0,49.0
1459,68.0,0,30,6.0,49.0
1460,49.0,0,30,4.0,49.0
1461,49.0,0,30,6.0,49.0
1462,73.0,0,60,5.0,88.0
1463,66.0,0,30,6.0,49.0
1464,69.0,60,30,5.0,88.0
1465,69.0,0,30,6.0,49.0
1466,42.0,0,60,4.0,49.0
1467,68.0,30,30,5.0,88.0
1468,42.0,0,60,6.0,49.0
1469,71.0,30,30,5.0,88.0
1470,71.0,0,30,6.0,49.0
1471,69.0,30,30,5.0,88.0
1472,44.0,0,60,4.0,49.0
1473,44.0,0,60,6.0,49.0
1474,68.0,0,30,5.0,88.0
1475,45.0,30,30,4.0,49.0
1476,45.0,0,30,6.0,49.0
1477,66.0,30,30,5.0,88.0
1478,62.0,0,30,6.0,49.0
1479,73.0,0,90,6.0,49.0
1480,47.0,0,60,6.0,49.0
1481,73.0,0,120,0.0,49.0
1482,47.0,30,60,4.0,49.0
1483,64.0,60,30,6.0,49.0
1484,71.0,0,30,0.0,49.0
1485,70.0,30,30,0.0,49.0
1486,49.0,0,60,6.0,49.0
1487,49.0,0,60,4.0,49.0
1488,66.0,0,30,6.0,49.0
1489,50.0,0,30,6.0,49.0
1490,50.0,0,30,4.0,49.0
1491,71.0,30,60,0.0,49.0
1492,68.0,60,30,6.0,49.0
1493,74.0,0,210,5.0,88.0
1494,40.0,0,60,6.0,49.0
1495,40.0,0,60,4.0,49.0
1496,71.0,30,30,5.0,88.0
1497,69.0,0,30,5.0,88.0
1498,69.0,30,30,6.0,49.0
1499,68.0,30,30,5.0,88.0
1500,42.0,0,60,6.0,49.0
1501,42.0,0,60,4.0,49.0
1502,71.0,0,30,6.0,49.0
1503,44.0,0,30,4.0,49.0
1504,44.0,0,30,6.0,49.0
1505,62.0,0,30,6.0,49.0
1506,66.0,0,30,5.0,88.0
1507,64.0,30,30,6.0,49.0
1508,64.0,30,30,5.0,88.0
1509,61.0,0,30,6.0,49.0
1510,64.0,0,30,6.0,49.0
1511,71.0,0,120,0.0,49.0
1512,45.0,0,60,4.0,49.0
1513,73.0,0,60,5.0,88.0
1514,45.0,30,60,6.0,49.0
1515,64.0,0,15,5.0,88.0
1516,62.0,60,30,6.0,49.0
1517,69.0,0,30,0.0,49.0
1518,66.0,15,15,5.0,88.0
1519,64.0,0,15,5.0,88.0
1520,47.0,0,60,6.0,49.0
1521,66.0,15,15,5.0,88.0
1522,47.0,0,60,4.0,49.0
1523,68.0,15,30,0.0,49.0
1524,64.0,0,11,5.0,88.0
1525,66.0,11,13,5.0,88.0
1526,49.0,0,30,4.0,49.0
1527,49.0,15,30,6.0,49.0
1528,64.0,0,30,6.0,49.0
1529,64.0,13,11,5.0,88.0
1530,62.0,11,13,5.0,88.0
1531,64.0,0,60,1.0,49.0
1532,64.0,13,12,5.0,88.0
1533,69.0,0,60,0.0,49.0
1534,66.0,0,30,6.0,49.0
1535,50.0,0,60,6.0,49.0
1536,57.0,0,120,3.0,49.0
1537,50.0,0,60,4.0,49.0
1538,66.0,12,60,1.0,49.0
1539,66.0,0,60,5.0,88.0
1540,64.0,0,120,2.0,49.0
1541,68.0,0,30,5.0,88.0
1542,62.0,60,30,6.0,49.0
1543,68.0,0,30,6.0,49.0
1544,47.0,0,60,6.0,49.0
1545,68.0,0,60,1.0,49.0
1546,47.0,0,60,4.0,49.0
1547,62.0,0,60,2.0,49.0
1548,59.0,0,60,3.0,49.0
1549,49.0,0,30,4.0,49.0
1550,69.0,0,30,1.0,49.0
1551,64.0,0,30,6.0,49.0
1552,69.0,0,30,6.0,49.0
1553,49.0,60,30,6.0,49.0
1554,57.0,0,30,3.0,49.0
1555,69.0,0,60,5.0,88.0
1556,64.0,0,120,2.0,49.0
1557,64.0,0,60,1.0,49.0
1558,76.0,0,120,0.0,49.0
1559,64.0,0,60,5.0,88.0
1560,74.0,0,30,0.0,49.0
1561,74.0,60,30,1.0,49.0
1562,74.0,0,30,5.0,88.0
1563,44.0,60,120,6.0,49.0
1564,44.0,0,120,4.0,49.0
1565,59.0,0,120,3.0,49.0
1566,64.0,0,0,6.0,49.0
1567,71.0,0,60,2.0,49.0
1568,71.0,0,120,6.0,49.0
1569,73.0,0,30,5.0,88.0
1570,45.0,0,60,4.0,49.0
1571,45.0,0,60,6.0,49.0
1572,69.0,0,90,6.0,49.0
1573,73.0,60,90,0.0,49.0
1574,52.0,60,30,4.0,49.0
1575,52.0,0,30,6.0,49.0
1576,73.0,0,90,1.0,49.0
1577,69.0,0,90,2.0,49.0
1578,64.0,0,90,3.0,49.0
1579,73.0,0,30,5.0,88.0
1580,64.0,0,30,3.0,49.0
1581,71.0,0,30,1.0,49.0
1582,71.0,0,30,0.0,49.0
1583,40.0,0,30,4.0,49.0
1584,68.0,0,30,6.0,49.0
1585,40.0,0,30,6.0,49.0
1586,71.0,0,30,5.0,88.0
1587,68.0,0,30,2.0,49.0
1588,64.0,60,30,6.0,49.0
1589,66.0,0,60,2.0,36.0
1590,63.0,0,60,3.0,36.0
1591,69.0,120,60,1.0,36.0
1592,68.0,0,30,1.0,36.0
1593,64.0,0,30,3.0,36.0
1594,64.0,60,30,2.0,36.0
1595,71.0,30,30,0.0,49.0
1596,64.0,0,30,6.0,49.0
1597,69.0,0,30,0.0,49.0
1598,59.0,30,30,6.0,49.0
1599,74.0,0,60,5.0,88.0
1600,56.0,0,60,4.0,49.0
1601,56.0,0,60,6.0,49.0
1602,71.0,30,30,0.0,49.0
1603,73.0,30,30,5.0,88.0
1604,57.0,0,30,4.0,49.0
1605,57.0,0,30,6.0,49.0
1606,64.0,0,30,0.0,49.0
1607,68.0,30,30,0.0,49.0
1608,49.0,0,30,6.0,49.0
1609,49.0,0,30,4.0,49.0
1610,69.0,0,30,0.0,49.0
1611,69.0,30,60,5.0,88.0
1612,73.0,30,30,0.0,49.0
1613,69.0,0,120,6.0,49.0
1614,73.0,0,120,6.0,49.0
1615,68.0,0,30,6.0,49.0
1616,71.0,0,30,0.0,49.0
1617,71.0,0,30,6.0,49.0
1618,52.0,0,30,6.0,49.0
1619,68.0,0,30,1.0,49.0
1620,52.0,30,30,4.0,49.0
1621,59.0,0,30,3.0,49.0
1622,64.0,0,30,2.0,49.0
1623,68.0,0,60,5.0,88.0
1624,68.0,30,30,0.0,49.0
1625,64.0,0,30,0.0,49.0
1626,49.0,0,30,6.0,49.0
1627,69.0,0,30,6.0,49.0
1628,73.0,0,30,6.0,49.0
1629,69.0,0,30,1.0,49.0
1630,61.0,30,30,3.0,49.0
1631,64.0,0,30,2.0,49.0
1632,49.0,0,30,4.0,49.0
1633,68.0,30,30,0.0,49.0
1634,69.0,0,60,5.0,88.0
1635,45.0,30,30,4.0,49.0
1636,73.0,0,30,1.0,49.0
1637,64.0,0,30,3.0,49.0
1638,69.0,0,30,0.0,49.0
1639,69.0,0,30,2.0,49.0
1640,45.0,0,30,6.0,49.0
1641,73.0,0,30,6.0,49.0
1642,76.0,0,30,6.0,49.0
1643,73.0,30,30,0.0,49.0
1644,73.0,0,60,5.0,88.0
1645,64.0,0,30,6.0,49.0
1646,58.0,0,30,4.0,49.0
1647,71.0,0,30,0.0,49.0
1648,58.0,0,30,6.0,49.0
1649,70.0,30,30,6.0,49.0
1650,73.0,30,30,0.0,49.0
1651,76.0,0,60,5.0,88.0
1652,59.0,30,30,6.0,49.0
1653,59.0,0,30,4.0,49.0
1654,66.0,0,30,0.0,49.0
1655,70.0,30,30,0.0,49.0
1656,74.0,0,60,5.0,88.0
1657,50.0,0,30,6.0,49.0
1658,71.0,30,30,0.0,49.0
1659,50.0,0,30,4.0,49.0
1660,71.0,0,60,5.0,88.0
1661,74.0,30,30,0.0,49.0
1662,62.0,0,120,6.0,49.0
1663,66.0,0,120,6.0,49.0
1664,58.0,0,30,6.0,49.0
1665,54.0,0,30,4.0,49.0
1666,61.0,0,30,6.0,49.0
1667,54.0,0,30,6.0,49.0
1668,66.0,0,30,2.0,49.0
1669,61.0,0,30,3.0,49.0
1670,73.0,0,30,0.0,49.0
1671,70.0,0,30,1.0,49.0
1672,70.0,30,60,5.0,88.0
1673,70.0,30,30,0.0,49.0
1674,71.0,0,30,5.0,88.0
1675,71.0,30,30,1.0,49.0
1676,66.0,0,30,0.0,49.0
1677,62.0,0,30,3.0,49.0
1678,66.0,0,30,2.0,49.0
1679,50.0,0,30,6.0,49.0
1680,59.0,0,30,6.0,49.0
1681,50.0,0,30,4.0,49.0
1682,73.0,0,30,5.0,88.0
1683,70.0,30,30,0.0,49.0
1684,74.0,0,30,1.0,49.0
1685,71.0,0,30,2.0,49.0
1686,47.0,0,30,4.0,49.0
1687,47.0,0,30,6.0,49.0
1688,66.0,0,30,3.0,49.0
1689,62.0,0,30,6.0,49.0
1690,66.0,0,30,6.0,49.0
1691,71.0,0,30,0.0,49.0
1692,74.0,30,60,5.0,88.0
1693,74.0,30,30,0.0,49.0
1694,76.0,0,30,1.0,49.0
1695,73.0,0,30,0.0,49.0
1696,67.0,30,30,3.0,49.0
1697,64.0,0,30,5.0,88.0
1698,71.0,0,30,2.0,49.0
1699,64.0,0,30,6.0,49.0
1700,73.0,0,30,6.0,49.0
1701,71.0,30,30,0.0,49.0
1702,69.0,0,30,6.0,49.0
1703,73.0,0,30,6.0,49.0
1704,64.0,0,30,5.0,88.0
1705,64.0,0,30,6.0,49.0
1706,69.0,30,60,2.0,49.0
1707,55.0,0,120,4.0,49.0
1708,55.0,0,120,6.0,49.0
1709,73.0,0,60,0.0,49.0
1710,64.0,0,60,3.0,49.0
1711,73.0,0,60,1.0,49.0
1712,54.0,60,30,4.0,49.0
1713,69.0,0,30,2.0,49.0
1714,69.0,0,30,5.0,88.0
1715,74.0,0,30,6.0,49.0
1716,69.0,0,30,6.0,49.0
1717,66.0,0,30,6.0,49.0
1718,54.0,0,30,6.0,49.0
1719,66.0,0,30,3.0,49.0
1720,74.0,0,30,0.0,49.0
1721,74.0,0,30,1.0,49.0
1722,62.0,0,30,6.0,49.0
1723,67.0,0,30,6.0,49.0
1724,59.0,0,30,6.0,49.0
1725,59.0,0,30,4.0,49.0
1726,67.0,0,60,3.0,49.0
1727,67.0,0,60,1.0,49.0
1728,67.0,0,60,0.0,49.0
1729,62.0,0,30,6.0,49.0
1730,66.0,0,30,6.0,49.0
1731,66.0,0,60,0.0,49.0
1732,66.0,0,60,1.0,49.0
1733,57.0,0,60,6.0,49.0
1734,62.0,60,120,2.0,49.0
1735,57.0,0,60,4.0,49.0
1736,69.0,60,60,3.0,49.0
1737,69.0,60,30,0.0,49.0
1738,55.0,0,30,4.0,49.0
1739,69.0,0,30,1.0,49.0
1740,66.0,0,30,2.0,49.0
1741,61.0,0,30,6.0,49.0
1742,55.0,0,30,6.0,49.0
1743,64.0,0,30,6.0,49.0
1744,67.0,30,30,0.0,49.0
1745,64.0,0,30,2.0,49.0
1746,62.0,0,60,3.0,49.0
1747,67.0,0,30,1.0,49.0
1748,57.0,0,30,6.0,49.0
1749,61.0,0,30,6.0,49.0
1750,66.0,0,30,0.0,49.0
1751,66.0,0,30,1.0,49.0
1752,62.0,0,30,2.0,49.0
1753,57.0,30,30,4.0,49.0
1754,61.0,0,30,2.0,49.0
1755,64.0,0,30,1.0,49.0
1756,57.0,0,60,3.0,49.0
1757,64.0,30,30,0.0,49.0
1758,50.0,0,30,6.0,49.0
1759,57.0,0,30,3.0,49.0
1760,62.0,0,30,1.0,49.0
1761,50.0,0,30,4.0,49.0
1762,62.0,0,30,2.0,49.0
1763,62.0,0,30,6.0,49.0
1764,62.0,0,30,4.0,49.0
1765,66.0,0,30,1.0,49.0
1766,62.0,0,30,5.0,88.0
1767,57.0,60,30,3.0,49.0
1768,62.0,0,90,0.0,49.0
1769,62.0,0,30,2.0,49.0
1770,74.0,30,30,0.0,49.0
1771,54.0,0,120,6.0,49.0
1772,57.0,0,120,6.0,49.0
1773,62.0,30,0,6.0,49.0
1774,66.0,0,30,2.0,49.0
1775,61.0,0,30,6.0,49.0
1776,66.0,0,30,6.0,49.0
1777,69.0,0,30,6.0,49.0
1778,61.0,0,30,4.0,49.0
1779,62.0,0,30,3.0,49.0
1780,69.0,0,30,1.0,49.0
1781,69.0,0,30,0.0,49.0
1782,66.0,30,30,0.0,49.0
1783,74.0,0,90,5.0,88.0
1784,62.0,0,30,2.0,49.0
1785,59.0,0,30,6.0,49.0
1786,67.0,0,30,6.0,49.0
1787,67.0,0,30,1.0,49.0
1788,62.0,30,30,6.0,49.0
1789,50.0,0,30,3.0,49.0
1790,59.0,0,30,4.0,49.0
1791,73.0,30,30,5.0,88.0
1792,67.0,0,90,0.0,49.0
1793,59.0,0,30,6.0,49.0
1794,55.0,0,30,3.0,49.0
1795,64.0,0,30,6.0,49.0
1796,55.0,30,30,4.0,49.0
1797,55.0,0,30,6.0,49.0
1798,64.0,0,30,1.0,49.0
1799,74.0,0,30,5.0,88.0
1800,59.0,0,30,2.0,49.0
1801,71.0,30,30,5.0,88.0
1802,74.0,0,30,0.0,49.0
1803,69.0,0,30,5.0,88.0
1804,73.0,30,30,0.0,49.0
1805,74.0,0,30,0.0,49.0
1806,67.0,30,30,5.0,88.0
1807,66.0,0,30,6.0,49.0
1808,62.0,0,30,6.0,49.0
1809,57.0,0,30,4.0,49.0
1810,57.0,0,30,6.0,49.0
1811,66.0,0,30,1.0,49.0
1812,74.0,0,30,5.0,88.0
1813,62.0,0,30,2.0,49.0
1814,54.0,0,30,3.0,49.0
1815,73.0,30,30,5.0,88.0
1816,74.0,0,30,5.0,88.0
1817,57.0,0,30,3.0,49.0
1818,57.0,0,30,2.0,49.0
1819,66.0,30,90,0.0,49.0
1820,62.0,30,30,1.0,49.0
1821,54.0,0,30,4.0,49.0
1822,57.0,0,30,6.0,49.0
1823,54.0,0,30,6.0,49.0
1824,62.0,0,30,6.0,49.0
1825,69.0,30,30,5.0,88.0
1826,74.0,0,30,0.0,49.0
1827,67.0,0,30,5.0,88.0
1828,73.0,30,30,0.0,49.0
1829,66.0,30,30,5.0,88.0
1830,74.0,0,30,0.0,49.0
1831,59.0,30,30,6.0,49.0
1832,55.0,0,30,3.0,49.0
1833,55.0,0,30,6.0,49.0
1834,64.0,0,30,6.0,49.0
1835,74.0,0,30,5.0,88.0
1836,55.0,0,30,4.0,49.0
1837,71.0,0,30,1.0,49.0
1838,59.0,0,30,2.0,49.0
1839,73.0,30,30,5.0,88.0
1840,52.0,0,30,6.0,49.0
1841,64.0,0,90,0.0,49.0
1842,67.0,0,30,6.0,49.0
1843,64.0,30,30,6.0,49.0
1844,52.0,0,30,4.0,49.0
1845,67.0,0,30,1.0,49.0
1846,59.0,0,30,3.0,49.0
1847,64.0,0,30,2.0,49.0
1848,74.0,0,30,5.0,88.0
1849,74.0,30,30,0.0,49.0
1850,67.0,0,30,5.0,88.0
1851,66.0,0,30,5.0,88.0
1852,73.0,30,30,0.0,49.0
1853,74.0,0,30,0.0,49.0
1854,64.0,30,30,5.0,88.0
1855,54.0,0,30,3.0,49.0
1856,74.0,0,30,5.0,88.0
1857,66.0,30,30,6.0,49.0
1858,54.0,0,30,6.0,49.0
1859,69.0,0,30,6.0,49.0
1860,54.0,0,30,4.0,49.0
1861,69.0,0,30,1.0,49.0
1862,57.0,0,30,2.0,49.0
1863,73.0,30,30,5.0,88.0
1864,66.0,0,90,0.0,49.0
1865,50.0,0,30,4.0,49.0
1866,74.0,0,30,5.0,88.0
1867,57.0,0,30,3.0,49.0
1868,66.0,0,30,1.0,49.0
1869,50.0,0,30,6.0,49.0
1870,62.0,0,30,6.0,49.0
1871,62.0,30,30,2.0,49.0
1872,66.0,0,30,6.0,49.0
1873,66.0,0,30,5.0,88.0
1874,69.0,30,30,0.0,49.0
1875,64.0,30,30,5.0,88.0
1876,67.0,0,30,0.0,49.0
1877,62.0,30,30,5.0,88.0
1878,66.0,0,30,0.0,49.0
1879,43.0,0,30,4.0,49.0
1880,43.0,0,30,6.0,49.0
1881,72.0,30,30,0.0,49.0
1882,72.0,0,30,5.0,88.0
1883,71.0,0,30,5.0,88.0
1884,71.0,30,30,0.0,49.0
1885,69.0,0,30,5.0,88.0
1886,71.0,0,30,6.0,49.0
1887,69.0,0,30,0.0,49.0
1888,67.0,0,30,6.0,49.0
1889,64.0,30,60,2.0,49.0
1890,52.0,0,60,6.0,49.0
1891,67.0,30,30,0.0,49.0
1892,71.0,0,60,1.0,49.0
1893,52.0,0,60,4.0,49.0
1894,55.0,0,60,3.0,49.0
1895,67.0,0,30,5.0,88.0
1896,67.0,0,30,6.0,49.0
1897,64.0,0,30,6.0,49.0
1898,50.0,0,60,4.0,49.0
1899,59.0,0,60,3.0,49.0
1900,50.0,0,60,6.0,49.0
1901,49.0,0,30,6.0,49.0
1902,76.0,0,90,0.0,49.0
1903,67.0,30,90,2.0,49.0
1904,57.0,0,30,3.0,49.0
1905,64.0,60,30,6.0,49.0
1906,61.0,0,30,6.0,49.0
1907,76.0,0,90,1.0,49.0
1908,76.0,0,90,5.0,88.0
1909,49.0,0,30,4.0,49.0
1910,67.0,0,30,1.0,49.0
1911,67.0,60,30,5.0,88.0
1912,45.0,0,30,4.0,49.0
1913,61.0,0,30,6.0,49.0
1914,55.0,0,30,6.0,49.0
1915,64.0,0,30,3.0,49.0
1916,67.0,0,30,0.0,49.0
1917,61.0,0,30,2.0,49.0
1918,45.0,0,30,6.0,49.0
1919,61.0,0,60,2.0,36.0
1920,57.0,120,60,3.0,36.0
1921,67.0,0,60,1.0,36.0
1922,61.0,0,30,1.0,36.0
1923,57.0,0,30,2.0,36.0
1924,55.0,60,30,3.0,36.0
1925,61.0,0,30,6.0,49.0
1926,64.0,0,30,6.0,49.0
1927,45.0,60,60,4.0,49.0
1928,45.0,0,60,6.0,49.0
1929,67.0,0,90,5.0,88.0
1930,62.0,0,30,6.0,49.0
1931,66.0,0,30,6.0,49.0
1932,50.0,60,60,4.0,49.0
1933,66.0,30,30,5.0,88.0
1934,50.0,0,60,6.0,49.0
1935,43.0,30,30,6.0,49.0
1936,67.0,0,30,6.0,49.0
1937,59.0,0,30,6.0,49.0
1938,71.0,0,30,5.0,88.0
1939,43.0,0,30,4.0,49.0
1940,69.0,30,30,5.0,88.0
1941,64.0,0,30,6.0,49.0
1942,55.0,0,30,4.0,49.0
1943,61.0,0,30,6.0,49.0
1944,57.0,30,30,6.0,49.0
1945,55.0,0,30,6.0,49.0
1946,62.0,0,30,6.0,49.0
1947,57.0,0,30,6.0,49.0
1948,69.0,0,120,5.0,88.0
1949,54.0,60,60,4.0,49.0
1950,54.0,0,60,6.0,49.0
1951,64.0,0,30,6.0,49.0
1952,67.0,0,30,5.0,88.0
1953,55.0,0,30,4.0,49.0
1954,55.0,60,30,6.0,49.0
1955,59.0,0,30,6.0,49.0
1956,62.0,0,30,6.0,49.0
1957,66.0,30,30,5.0,88.0
1958,57.0,0,30,6.0,49.0
1959,67.0,0,30,6.0,49.0
1960,61.0,0,30,6.0,49.0
1961,64.0,30,30,5.0,88.0
1962,57.0,0,30,4.0,49.0
1963,66.0,30,30,5.0,88.0
1964,50.0,30,30,4.0,49.0
1965,50.0,0,30,6.0,49.0
1966,66.0,0,30,2.0,36.0
1967,62.0,60,30,3.0,36.0
1968,69.0,0,30,1.0,36.0
1969,45.0,0,30,6.0,49.0
1970,45.0,0,30,4.0,49.0
1971,42.0,0,30,6.0,88.0
1972,42.0,0,30,4.0,88.0
1973,69.0,0,30,2.0,88.0
1974,66.0,0,30,3.0,88.0
1975,74.0,60,30,1.0,88.0
1976,62.0,0,0,5.0,88.0
1977,78.0,0,60,1.0,88.0
1978,74.0,0,60,2.0,88.0
1979,69.0,0,60,3.0,88.0
1980,74.0,0,30,3.0,88.0
1981,78.0,0,30,2.0,88.0
1982,81.0,60,30,1.0,88.0
1983,74.0,30,30,0.0,88.0
1984,62.0,0,300,6.0,49.0
1985,66.0,0,300,6.0,49.0
1986,38.0,60,120,4.0,88.0
1987,38.0,0,120,6.0,88.0
1988,76.0,0,30,2.0,88.0
1989,69.0,0,30,3.0,88.0
1990,73.0,0,30,0.0,88.0
1991,79.0,30,30,1.0,88.0
1992,74.0,30,30,0.0,88.0
1993,62.0,0,30,3.0,88.0
1994,74.0,0,30,2.0,88.0
1995,78.0,30,30,1.0,88.0
1996,74.0,0,30,1.0,88.0
1997,62.0,0,30,6.0,88.0
1998,69.0,0,30,2.0,88.0
1999,62.0,120,30,3.0,88.0
2000,57.0,0,30,6.0,88.0
2001,54.0,0,60,6.0,88.0
2002,54.0,0,60,4.0,88.0
2003,67.0,0,30,2.0,88.0
2004,64.0,0,30,3.0,88.0
2005,73.0,0,30,1.0,88.0
2006,55.0,0,30,6.0,88.0
2007,61.0,0,30,6.0,88.0
2008,52.0,60,60,6.0,88.0
2009,52.0,0,60,4.0,88.0
2010,54.0,0,30,6.0,88.0
2011,62.0,0,30,6.0,88.0
2012,74.0,0,30,1.0,88.0
2013,66.0,60,30,3.0,88.0
2014,69.0,0,270,0.0,88.0
2015,66.0,0,30,2.0,88.0
2016,50.0,0,60,4.0,88.0
2017,76.0,30,30,0.0,88.0
2018,50.0,0,60,6.0,88.0
2019,74.0,30,30,0.0,88.0
2020,76.0,30,30,0.0,88.0
2021,61.0,0,30,6.0,88.0
2022,49.0,0,30,4.0,88.0
2023,69.0,0,30,1.0,88.0
2024,64.0,0,30,3.0,88.0
2025,49.0,0,30,6.0,88.0
2026,64.0,120,30,6.0,88.0
2027,69.0,0,30,2.0,88.0
2028,67.0,0,30,6.0,88.0
2029,61.0,0,30,6.0,88.0
2030,79.0,0,60,1.0,88.0
2031,45.0,0,60,4.0,88.0
2032,64.0,60,60,3.0,88.0
2033,45.0,0,60,6.0,88.0
2034,73.0,0,60,2.0,88.0
2035,74.0,0,30,2.0,88.0
2036,62.0,0,30,3.0,88.0
2037,69.0,30,270,0.0,88.0
2038,66.0,0,30,6.0,88.0
2039,62.0,0,30,6.0,88.0
2040,78.0,0,30,1.0,88.0
2041,73.0,30,30,0.0,88.0
2042,47.0,0,60,6.0,88.0
2043,47.0,60,60,4.0,88.0
2044,61.0,30,30,6.0,88.0
2045,69.0,0,30,3.0,88.0
2046,64.0,0,30,6.0,88.0
2047,76.0,0,30,1.0,88.0
2048,76.0,0,30,0.0,88.0
2049,76.0,0,30,2.0,88.0
2050,49.0,0,30,6.0,88.0
2051,49.0,0,30,4.0,88.0
2052,79.0,30,30,0.0,88.0
2053,78.0,0,60,1.0,88.0
2054,78.0,0,60,0.0,88.0
2055,76.0,60,30,0.0,88.0
2056,76.0,0,30,1.0,88.0
2057,50.0,0,120,6.0,88.0
2058,62.0,0,120,6.0,88.0
2059,66.0,0,120,6.0,88.0
2060,69.0,0,120,3.0,88.0
2061,50.0,0,120,4.0,88.0
2062,74.0,30,120,2.0,88.0
2063,52.0,0,30,6.0,88.0
2064,52.0,0,30,4.0,88.0
2065,74.0,60,30,6.0,88.0
2066,67.0,0,30,6.0,88.0
2067,64.0,0,30,6.0,88.0
2068,64.0,0,30,3.0,88.0
2069,67.0,0,30,2.0,88.0
2070,74.0,0,120,0.0,88.0
2071,74.0,0,120,1.0,88.0
2072,72.0,0,30,1.0,88.0
2073,72.0,60,30,0.0,88.0
2074,54.0,60,120,4.0,88.0
2075,57.0,0,120,3.0,88.0
2076,69.0,0,120,2.0,88.0
2077,54.0,0,120,6.0,88.0
2078,74.0,0,120,6.0,88.0
2079,69.0,0,120,6.0,88.0
2080,62.0,0,120,6.0,88.0
2081,55.0,0,30,4.0,88.0
2082,55.0,0,30,6.0,88.0
2083,71.0,0,30,6.0,88.0
2084,62.0,0,30,3.0,88.0
2085,67.0,0,30,6.0,88.0
2086,67.0,0,90,2.0,88.0
2087,71.0,60,90,1.0,88.0
2088,71.0,0,90,0.0,88.0
2089,50.0,0,30,6.0,88.0
2090,71.0,0,30,6.0,88.0
2091,50.0,0,30,4.0,88.0
2092,62.0,60,30,3.0,88.0
2093,67.0,0,30,6.0,88.0
2094,64.0,0,30,2.0,88.0
2095,67.0,30,30,0.0,88.0
2096,67.0,0,30,1.0,88.0
2097,69.0,0,30,6.0,88.0
2098,66.0,0,30,6.0,88.0
2099,69.0,0,30,0.0,88.0
2100,66.0,0,30,2.0,88.0
2101,38.0,30,30,4.0,88.0
2102,38.0,0,30,6.0,88.0
2103,69.0,0,30,1.0,88.0
2104,62.0,0,30,3.0,88.0
2105,64.0,0,60,3.0,49.0
2106,67.0,0,60,2.0,49.0
2107,73.0,120,60,1.0,49.0
2108,66.0,60,30,3.0,49.0
2109,69.0,0,30,2.0,49.0
2110,74.0,0,30,1.0,49.0
2111,74.0,30,30,0.0,88.0
2112,71.0,0,30,6.0,75.0
2113,47.0,30,30,6.0,75.0
2114,66.0,0,30,6.0,75.0
2115,73.0,0,30,0.0,75.0
2116,47.0,0,30,4.0,75.0
2117,74.0,30,30,0.0,75.0
2118,64.0,0,30,6.0,75.0
2119,67.0,0,30,6.0,75.0
2120,52.0,30,60,6.0,75.0
2121,52.0,0,60,4.0,75.0
2122,59.0,0,30,6.0,75.0
2123,64.0,0,30,6.0,75.0
2124,55.0,60,60,4.0,75.0
2125,55.0,0,60,6.0,75.0
2126,79.0,0,30,1.0,75.0
2127,54.0,0,30,4.0,75.0
2128,62.0,0,30,6.0,75.0
2129,67.0,0,30,6.0,75.0
2130,62.0,0,30,2.0,75.0
2131,59.0,60,30,3.0,75.0
2132,54.0,0,30,6.0,75.0
2133,64.0,0,30,3.0,75.0
2134,55.0,0,30,6.0,75.0
2135,73.0,60,30,1.0,75.0
2136,67.0,0,30,2.0,75.0
2137,52.0,0,30,6.0,75.0
2138,61.0,0,30,6.0,75.0
2139,67.0,0,270,0.0,75.0
2140,61.0,0,30,2.0,75.0
2141,67.0,60,30,3.0,75.0
2142,61.0,0,30,6.0,75.0
2143,64.0,0,30,6.0,75.0
2144,76.0,0,30,1.0,75.0
2145,76.0,30,30,0.0,75.0
2146,52.0,0,120,4.0,75.0
2147,74.0,0,30,0.0,88.0
2148,50.0,0,30,6.0,88.0
2149,67.0,30,30,6.0,88.0
2150,64.0,0,30,6.0,88.0
2151,50.0,0,30,4.0,88.0
2152,76.0,30,30,0.0,88.0
2153,49.0,0,60,6.0,88.0
2154,49.0,0,60,4.0,88.0
2155,64.0,30,120,6.0,88.0
2156,52.0,60,60,6.0,88.0
2157,69.0,0,120,6.0,88.0
2158,61.0,0,120,6.0,88.0
2159,52.0,0,60,4.0,88.0
2160,59.0,0,30,3.0,88.0
2161,79.0,0,30,1.0,88.0
2162,64.0,0,30,2.0,88.0
2163,50.0,0,30,4.0,88.0
2164,50.0,60,30,6.0,88.0
2165,59.0,0,30,6.0,88.0
2166,67.0,0,30,6.0,88.0
2167,69.0,0,30,1.0,88.0
2168,64.0,0,30,2.0,88.0
2169,61.0,0,30,3.0,88.0
2170,49.0,60,60,6.0,88.0
2171,49.0,0,60,4.0,88.0
2172,69.0,0,30,2.0,88.0
2173,73.0,0,30,1.0,88.0
2174,69.0,0,270,0.0,88.0
2175,64.0,0,30,3.0,88.0
2176,45.0,0,60,4.0,88.0
2177,45.0,60,60,6.0,88.0
2178,67.0,0,120,6.0,88.0
2179,57.0,0,120,6.0,88.0
2180,73.0,30,30,0.0,88.0
2181,76.0,0,30,0.0,88.0
2182,49.0,0,30,4.0,88.0
2183,61.0,30,30,6.0,88.0
2184,69.0,0,30,6.0,88.0
2185,49.0,0,30,6.0,88.0
2186,79.0,30,30,0.0,88.0
2187,66.0,0,30,6.0,88.0
2188,62.0,0,30,6.0,88.0
2189,78.0,0,30,0.0,88.0
2190,76.0,30,15,0.0,88.0
2191,50.0,30,60,6.0,88.0
2192,50.0,0,60,4.0,88.0
2193,69.0,0,30,6.0,88.0
2194,79.0,30,30,0.0,88.0
2195,73.0,0,30,6.0,88.0
2196,45.0,0,60,4.0,88.0
2197,69.0,0,60,2.0,88.0
2198,78.0,30,30,0.0,88.0
2199,73.0,0,60,1.0,88.0
2200,64.0,0,60,3.0,88.0
2201,45.0,0,60,6.0,88.0
2202,47.0,0,30,6.0,88.0
2203,62.0,0,30,6.0,88.0
2204,47.0,0,30,4.0,88.0
2205,66.0,0,30,6.0,88.0
2206,76.0,0,30,0.0,88.0
2207,66.0,30,60,2.0,88.0
2208,74.0,30,30,0.0,88.0
2209,71.0,0,60,3.0,88.0
2210,76.0,0,30,0.0,88.0
2211,67.0,0,30,6.0,88.0
2212,59.0,0,30,6.0,88.0
2213,62.0,0,30,6.0,88.0
2214,74.0,30,15,0.0,88.0
2215,43.0,30,60,6.0,88.0
2216,71.0,0,60,2.0,88.0
2217,74.0,0,120,1.0,88.0
2218,64.0,0,60,3.0,88.0
2219,43.0,0,60,4.0,88.0
2220,78.0,0,30,1.0,88.0
2221,69.0,0,30,6.0,88.0
2222,62.0,0,30,6.0,88.0
2223,66.0,30,30,6.0,88.0
2224,69.0,0,30,2.0,88.0
2225,78.0,0,30,0.0,88.0
2226,61.0,0,30,3.0,88.0
2227,67.0,30,30,2.0,88.0
2228,76.0,0,30,1.0,88.0
2229,45.0,0,60,6.0,88.0
2230,45.0,0,0,4.0,88.0
2231,76.0,0,30,0.0,88.0
2232,57.0,0,30,3.0,88.0
2233,66.0,30,30,2.0,88.0
2234,67.0,0,30,6.0,88.0
2235,64.0,0,30,6.0,88.0
2236,61.0,0,30,6.0,88.0
2237,45.0,0,30,6.0,88.0
2238,74.0,0,30,0.0,88.0
2239,74.0,0,30,1.0,88.0
2240,64.0,0,30,2.0,88.0
2241,73.0,30,30,0.0,88.0
2242,73.0,0,30,1.0,88.0
2243,38.0,0,30,4.0,88.0
2244,38.0,30,30,6.0,88.0
2245,42.0,60,30,4.0,88.0
2246,42.0,0,30,6.0,88.0
2247,45.0,0,30,6.0,88.0
2248,45.0,60,30,4.0,88.0
2249,50.0,0,30,4.0,88.0
2250,50.0,60,30,6.0,88.0
2251,54.0,60,30,4.0,88.0
2252,54.0,0,30,6.0,88.0
2253,74.0,0,0,0.0,49.0
2254,66.0,0,300,2.0,88.0
2255,66.0,0,300,6.0,88.0
2256,74.0,0,300,1.0,88.0
2257,57.0,0,300,3.0,88.0
2258,57.0,0,300,6.0,88.0
2259,62.0,0,300,6.0,88.0
2260,50.0,0,30,6.0,49.0
2261,50.0,0,30,4.0,49.0
2262,57.0,0,30,4.0,49.0
2263,57.0,60,30,6.0,49.0
2264,66.0,0,90,6.0,49.0
2265,74.0,0,90,6.0,49.0
2266,66.0,60,120,5.0,88.0
2267,73.0,0,30,0.0,49.0
2268,45.0,0,30,6.0,49.0
2269,64.0,0,30,6.0,49.0
2270,45.0,0,30,4.0,49.0
2271,73.0,60,30,6.0,49.0
2272,74.0,30,30,0.0,49.0
2273,64.0,0,60,5.0,88.0
2274,71.0,0,30,0.0,49.0
2275,74.0,30,30,0.0,49.0
2276,62.0,30,60,5.0,88.0
2277,73.0,30,30,0.0,49.0
2278,69.0,30,30,0.0,49.0
2279,64.0,0,60,5.0,88.0
2280,57.0,0,30,4.0,49.0
2281,73.0,0,30,0.0,49.0
2282,57.0,30,30,6.0,49.0
2283,69.0,0,60,5.0,88.0
2284,76.0,30,30,0.0,49.0
2285,54.0,30,30,4.0,49.0
2286,81.0,0,30,0.0,49.0
2287,54.0,0,30,6.0,49.0
2288,78.0,30,30,0.0,49.0
2289,76.0,30,15,0.0,49.0
2290,75.0,15,15,0.0,49.0
2291,72.0,0,90,6.0,49.0
2292,69.0,0,90,6.0,49.0
2293,76.0,15,15,0.0,49.0
2294,72.0,0,120,5.0,88.0
2295,75.0,15,15,0.0,49.0
2296,76.0,0,15,0.0,49.0
2297,75.0,15,15,0.0,49.0
2298,71.0,15,30,6.0,49.0
2299,67.0,0,30,6.0,49.0
2300,76.0,15,15,0.0,49.0
2301,75.0,15,15,0.0,49.0
2302,59.0,0,120,4.0,49.0
2303,71.0,0,60,5.0,88.0
2304,59.0,0,120,6.0,49.0
2305,76.0,15,15,0.0,49.0
2306,69.0,0,30,6.0,49.0
2307,47.0,0,30,4.0,49.0
2308,71.0,0,30,2.0,49.0
2309,66.0,0,30,3.0,49.0
2310,47.0,0,30,6.0,49.0
2311,75.0,15,15,0.0,49.0
2312,66.0,0,30,6.0,49.0
2313,75.0,0,30,1.0,49.0
2314,73.0,15,15,0.0,49.0
2315,75.0,15,15,0.0,49.0
2316,69.0,0,60,5.0,88.0
2317,40.0,0,30,6.0,49.0
2318,71.0,15,30,2.0,49.0
2319,67.0,0,30,3.0,49.0
2320,40.0,0,30,4.0,49.0
2321,76.0,0,30,1.0,49.0
2322,67.0,0,60,5.0,88.0
2323,76.0,60,30,2.0,49.0
2324,64.0,0,30,5.0,88.0
2325,79.0,0,30,1.0,49.0
2326,71.0,0,30,3.0,49.0
2327,52.0,0,30,6.0,49.0
2328,52.0,0,30,4.0,49.0
2329,76.0,0,120,0.0,49.0
2330,67.0,0,120,6.0,49.0
2331,64.0,0,120,6.0,49.0
2332,49.0,60,30,4.0,49.0
2333,49.0,0,30,6.0,49.0
2334,67.0,0,30,6.0,49.0
2335,71.0,0,30,6.0,49.0
2336,76.0,0,30,6.0,49.0
2337,46.0,60,30,6.0,49.0
2338,66.0,0,30,6.0,49.0
2339,70.0,0,30,6.0,49.0
2340,46.0,0,30,4.0,49.0
2341,76.0,0,120,0.0,49.0
2342,67.0,0,120,5.0,88.0
2343,61.0,0,30,6.0,49.0
2344,42.0,0,30,6.0,49.0
2345,66.0,0,30,6.0,49.0
2346,74.0,60,30,0.0,49.0
2347,42.0,0,30,4.0,49.0
2348,76.0,30,30,0.0,49.0
2349,66.0,0,60,5.0,88.0
2350,73.0,30,30,0.0,49.0
2351,64.0,0,30,6.0,49.0
2352,74.0,30,30,0.0,49.0
2353,64.0,0,60,5.0,88.0
2354,62.0,0,30,6.0,49.0
2355,71.0,0,30,0.0,49.0
2356,62.0,30,60,5.0,88.0
2357,66.0,30,30,0.0,49.0
2358,59.0,0,30,4.0,49.0
2359,59.0,0,30,6.0,49.0
2360,71.0,0,30,0.0,49.0
2361,66.0,0,30,6.0,49.0
2362,74.0,30,60,5.0,88.0
2363,74.0,30,30,0.0,49.0
2364,57.0,0,30,6.0,49.0
2365,73.0,0,30,6.0,49.0
2366,57.0,0,30,4.0,49.0
2367,69.0,0,30,6.0,49.0
2368,73.0,30,60,5.0,88.0
2369,71.0,0,30,6.0,49.0
2370,67.0,0,30,6.0,49.0
2371,78.0,0,90,0.0,49.0
2372,71.0,60,60,5.0,88.0
2373,74.0,30,30,0.0,49.0
2374,71.0,0,30,6.0,49.0
2375,64.0,0,30,6.0,49.0
2376,67.0,0,30,3.0,49.0
2377,71.0,30,30,2.0,49.0
2378,76.0,0,30,1.0,49.0
2379,76.0,0,30,0.0,49.0
2380,55.0,0,120,4.0,49.0
2381,70.0,0,60,5.0,88.0
2382,78.0,30,30,0.0,49.0
2383,55.0,0,120,6.0,49.0
2384,61.0,0,30,3.0,49.0
2385,61.0,0,30,6.0,49.0
2386,70.0,0,30,6.0,49.0
2387,74.0,0,30,0.0,49.0
2388,70.0,0,30,2.0,49.0
2389,43.0,0,30,6.0,49.0
2390,43.0,0,30,4.0,49.0
2391,78.0,0,30,1.0,49.0
2392,71.0,30,60,5.0,88.0
2393,76.0,30,30,0.0,49.0
2394,58.0,0,30,3.0,49.0
2395,61.0,0,30,2.0,49.0
2396,66.0,0,30,1.0,49.0
2397,70.0,0,45,5.0,88.0
2398,42.0,0,120,6.0,49.0
2399,71.0,90,30,5.0,88.0
2400,42.0,0,120,4.0,49.0
2401,66.0,30,120,6.0,49.0
2402,58.0,0,120,6.0,49.0
2403,78.0,0,120,0.0,49.0
2404,70.0,30,30,5.0,88.0
2405,71.0,30,30,5.0,88.0
2406,71.0,90,30,0.0,49.0
2407,71.0,0,30,1.0,49.0
2408,66.0,30,30,2.0,49.0
2409,62.0,0,30,4.0,49.0
2410,59.0,0,30,3.0,49.0
2411,62.0,0,30,6.0,49.0
2412,66.0,0,30,6.0,49.0
2413,70.0,0,30,0.0,49.0
2414,71.0,30,30,0.0,49.0
2415,64.0,0,30,2.0,49.0
2416,70.0,30,30,1.0,49.0
2417,64.0,0,30,6.0,49.0
2418,61.0,0,30,6.0,49.0
2419,61.0,0,30,4.0,49.0
2420,61.0,0,30,3.0,49.0
2421,59.0,0,30,4.0,49.0
2422,66.0,30,270,5.0,88.0
2423,62.0,0,30,6.0,49.0
2424,59.0,60,30,6.0,49.0
2425,62.0,0,30,3.0,49.0
2426,71.0,0,30,1.0,49.0
2427,62.0,0,30,2.0,49.0
2428,66.0,0,120,0.0,49.0
2429,73.0,30,30,5.0,88.0
2430,71.0,30,30,5.0,88.0
2431,73.0,30,30,5.0,88.0
2432,73.0,90,30,0.0,49.0
2433,58.0,0,30,4.0,49.0
2434,73.0,0,30,2.0,49.0
2435,71.0,30,30,0.0,49.0
2436,66.0,0,30,1.0,49.0
2437,64.0,0,30,6.0,49.0
2438,66.0,0,30,3.0,49.0
2439,58.0,0,30,6.0,49.0
2440,73.0,30,30,0.0,49.0
2441,58.0,0,30,6.0,49.0
2442,70.0,0,30,2.0,49.0
2443,61.0,0,30,6.0,49.0
2444,76.0,0,30,1.0,49.0
2445,54.0,0,30,6.0,49.0
2446,54.0,0,30,4.0,49.0
2447,61.0,30,30,3.0,49.0
2448,66.0,0,90,0.0,49.0
2449,66.0,30,270,5.0,88.0
2450,56.0,0,30,6.0,49.0
2451,62.0,0,30,6.0,49.0
2452,59.0,0,30,3.0,49.0
2453,74.0,60,30,1.0,49.0
2454,59.0,0,30,6.0,49.0
2455,56.0,0,30,4.0,49.0
2456,71.0,0,30,2.0,49.0
2457,70.0,30,30,0.0,49.0
2458,70.0,0,30,5.0,88.0
2459,64.0,0,30,6.0,49.0
2460,58.0,0,30,6.0,49.0
2461,61.0,0,30,6.0,49.0
2462,58.0,0,30,4.0,49.0
2463,73.0,0,30,1.0,49.0
2464,66.0,30,30,3.0,49.0
2465,73.0,0,30,0.0,49.0
2466,73.0,0,30,5.0,88.0
2467,73.0,0,30,2.0,49.0
2468,76.0,30,30,0.0,49.0
2469,76.0,0,30,5.0,88.0
2470,59.0,0,30,6.0,49.0
2471,62.0,0,30,6.0,49.0
2472,71.0,0,60,2.0,49.0
2473,66.0,30,60,3.0,49.0
2474,74.0,0,60,1.0,49.0
2475,74.0,0,60,5.0,88.0
2476,74.0,0,60,0.0,49.0
2477,59.0,0,60,4.0,49.0
2478,73.0,0,30,5.0,88.0
2479,73.0,0,30,0.0,49.0
2480,73.0,0,30,6.0,49.0
2481,64.0,0,30,6.0,49.0
2482,67.0,0,30,6.0,49.0
2483,52.0,0,30,4.0,49.0
2484,73.0,0,30,1.0,49.0
2485,64.0,60,30,3.0,49.0
2486,52.0,0,30,6.0,49.0
2487,67.0,0,30,2.0,49.0
2488,66.0,0,60,2.0,49.0
2489,66.0,0,60,3.0,49.0
2490,50.0,0,60,6.0,49.0
2491,62.0,0,60,6.0,49.0
2492,66.0,0,60,6.0,49.0
2493,50.0,0,60,4.0,49.0
2494,67.0,60,60,3.0,49.0
2495,71.0,0,120,6.0,49.0
2496,71.0,0,120,0.0,49.0
2497,71.0,0,120,1.0,49.0
2498,71.0,60,120,5.0,88.0
2499,61.0,0,90,6.0,49.0
2500,64.0,0,90,6.0,49.0
2501,69.0,60,30,6.0,49.0
2502,69.0,0,60,0.0,49.0
2503,49.0,0,120,6.0,49.0
2504,64.0,0,120,2.0,49.0
2505,69.0,0,60,5.0,88.0
2506,49.0,0,120,4.0,49.0
2507,69.0,0,60,1.0,49.0
2508,64.0,0,60,3.0,49.0
2509,64.0,0,30,2.0,49.0
2510,67.0,0,30,6.0,49.0
2511,45.0,0,30,4.0,49.0
2512,67.0,0,30,1.0,49.0
2513,45.0,0,30,6.0,49.0
2514,67.0,0,30,5.0,88.0
2515,61.0,0,30,6.0,49.0
2516,61.0,60,30,3.0,49.0
2517,67.0,0,30,0.0,49.0
2518,66.0,0,30,0.0,49.0
2519,62.0,0,30,6.0,49.0
2520,57.0,0,30,3.0,49.0
2521,66.0,0,30,6.0,49.0
2522,66.0,0,30,1.0,49.0
2523,62.0,60,30,2.0,49.0
2524,50.0,0,30,4.0,49.0
2525,50.0,0,30,6.0,49.0
2526,66.0,0,30,5.0,88.0
2527,61.0,60,30,2.0,49.0
2528,64.0,0,30,0.0,49.0
2529,45.0,0,30,4.0,49.0
2530,64.0,0,30,1.0,49.0
2531,45.0,0,30,6.0,49.0
2532,57.0,0,30,3.0,49.0
2533,64.0,0,30,6.0,49.0
2534,64.0,0,30,5.0,88.0
2535,61.0,0,30,6.0,49.0
2536,59.0,0,60,2.0,36.0
2537,62.0,0,60,1.0,36.0
2538,56.0,120,60,3.0,36.0
2539,61.0,60,30,1.0,36.0
2540,57.0,0,30,2.0,36.0
2541,57.0,0,30,3.0,36.0
2542,64.0,0,30,0.0,49.0
2543,58.0,0,30,6.0,49.0
2544,66.0,0,30,6.0,49.0
2545,61.0,0,30,6.0,49.0
2546,58.0,0,30,4.0,49.0
2547,59.0,0,30,6.0,49.0
2548,73.0,0,30,6.0,49.0
2549,64.0,0,30,6.0,49.0
2550,59.0,0,30,4.0,49.0
2551,64.0,60,60,0.0,49.0
2552,73.0,60,120,5.0,88.0
2553,47.0,0,30,6.0,49.0
2554,71.0,0,30,5.0,88.0
2555,62.0,0,30,6.0,49.0
2556,62.0,60,30,0.0,49.0
2557,47.0,0,30,4.0,49.0
2558,71.0,0,30,6.0,49.0
2559,69.0,30,30,5.0,88.0
2560,67.0,30,30,5.0,88.0
2561,66.0,30,30,5.0,88.0
2562,64.0,30,30,5.0,88.0
2563,70.0,0,60,1.0,36.0
2564,67.0,30,30,5.0,88.0
2565,61.0,0,60,3.0,36.0
2566,64.0,0,60,2.0,36.0
2567,66.0,0,30,2.0,36.0
2568,62.0,0,30,3.0,36.0
2569,71.0,30,30,1.0,36.0
2570,66.0,0,30,5.0,88.0
2571,64.0,30,30,5.0,88.0
2572,53.0,0,30,4.0,49.0
2573,53.0,0,30,6.0,49.0
2574,74.0,0,30,6.0,49.0
2575,62.0,0,30,5.0,88.0
2576,71.0,30,30,6.0,49.0
2577,71.0,0,60,0.0,49.0
2578,61.0,30,30,5.0,88.0
2579,71.0,0,15,0.0,49.0
2580,62.0,0,15,5.0,88.0
2581,73.0,15,15,0.0,49.0
2582,64.0,0,15,5.0,88.0
2583,71.0,0,15,0.0,49.0
2584,62.0,15,15,5.0,88.0
2585,73.0,15,15,0.0,49.0
2586,64.0,0,15,5.0,88.0
2587,71.0,15,9,0.0,49.0
2588,62.0,0,9,5.0,88.0
2589,73.0,0,11,0.0,49.0
2590,64.0,9,11,5.0,88.0
2591,66.0,30,90,6.0,49.0
2592,71.0,0,90,6.0,49.0
2593,74.0,0,90,6.0,49.0
2594,71.0,0,10,0.0,49.0
2595,62.0,11,10,5.0,88.0
2596,70.0,0,30,0.0,49.0
2597,70.0,0,30,6.0,49.0
2598,61.0,10,30,6.0,49.0
2599,61.0,0,30,5.0,88.0
2600,62.0,0,30,6.0,49.0
2601,65.0,0,30,6.0,49.0
2602,71.0,0,30,6.0,49.0
2603,68.0,0,30,2.0,36.0
2604,77.0,30,30,1.0,36.0
2605,59.0,0,30,3.0,36.0
2606,62.0,0,60,5.0,88.0
2607,54.0,0,180,6.0,49.0
2608,54.0,0,180,4.0,49.0
2609,71.0,0,60,0.0,49.0
2610,70.0,60,30,2.0,36.0
2611,78.0,0,30,1.0,36.0
2612,61.0,0,30,3.0,36.0
2613,61.0,0,60,5.0,88.0
2614,66.0,0,30,3.0,36.0
2615,61.0,60,30,2.0,36.0
2616,70.0,0,30,1.0,36.0
2617,70.0,0,120,6.0,49.0
2618,66.0,0,0,6.0,49.0
2619,42.0,0,120,6.0,49.0
2620,42.0,0,120,4.0,49.0
2621,70.0,0,120,0.0,49.0
2622,61.0,0,120,6.0,49.0
2623,58.0,60,30,6.0,49.0
2624,73.0,0,30,6.0,49.0
2625,58.0,0,30,4.0,49.0
2626,73.0,0,60,5.0,88.0
2627,74.0,60,30,5.0,88.0
2628,66.0,0,30,6.0,49.0
2629,59.0,0,30,4.0,49.0
2630,74.0,0,30,6.0,49.0
2631,59.0,0,30,6.0,49.0
2632,73.0,30,30,5.0,88.0
2633,76.0,0,30,5.0,88.0
2634,55.0,0,30,4.0,49.0
2635,55.0,30,30,6.0,49.0
2636,76.0,0,30,6.0,49.0
2637,71.0,0,30,6.0,49.0
2638,74.0,30,30,5.0,88.0
2639,73.0,30,30,5.0,88.0
2640,71.0,30,30,5.0,88.0
2641,52.0,0,30,6.0,49.0
2642,67.0,0,30,6.0,49.0
2643,61.0,0,30,6.0,49.0
2644,73.0,0,30,5.0,88.0
2645,52.0,30,30,4.0,49.0
2646,71.0,0,30,6.0,49.0
2647,71.0,30,30,5.0,88.0
2648,74.0,0,30,5.0,88.0
2649,66.0,0,30,6.0,49.0
2650,70.0,0,30,6.0,49.0
2651,64.0,0,30,6.0,49.0
2652,54.0,30,30,6.0,49.0
2653,54.0,0,30,4.0,49.0
2654,73.0,30,30,5.0,88.0
2655,66.0,30,30,1.0,49.0
2656,71.0,0,30,5.0,88.0
2657,70.0,30,30,5.0,88.0
2658,71.0,0,30,1.0,49.0
2659,55.0,0,30,4.0,49.0
2660,55.0,0,30,6.0,49.0
2661,71.0,30,30,6.0,49.0
2662,67.0,0,30,6.0,49.0
2663,69.0,30,15,1.0,49.0
2664,52.0,0,30,6.0,49.0
2665,52.0,0,30,4.0,49.0
2666,72.0,0,30,1.0,49.0
2667,64.0,0,30,6.0,49.0
2668,67.0,30,30,6.0,49.0
2669,71.0,30,15,1.0,49.0
2670,69.0,30,30,1.0,49.0
2671,67.0,30,15,1.0,49.0
2672,49.0,0,30,6.0,49.0
2673,67.0,0,30,6.0,49.0
2674,64.0,0,30,6.0,49.0
2675,49.0,0,30,4.0,49.0
2676,69.0,30,30,1.0,49.0
2677,67.0,30,15,1.0,49.0
2678,71.0,30,30,1.0,49.0
2679,51.0,0,30,6.0,49.0
2680,66.0,0,30,6.0,49.0
2681,63.0,0,30,6.0,49.0
2682,51.0,0,30,4.0,49.0
2683,69.0,30,15,1.0,49.0
2684,67.0,30,30,1.0,49.0
2685,66.0,30,15,1.0,49.0
2686,78.0,0,60,0.0,49.0
2687,79.0,0,30,0.0,49.0
2688,71.0,0,390,5.0,88.0
2689,52.0,30,30,6.0,49.0
2690,52.0,0,30,4.0,49.0
2691,78.0,30,15,0.0,49.0
2692,69.0,0,30,5.0,88.0
2693,64.0,0,0,1.0,49.0
2694,40.0,0,30,4.0,49.0
2695,81.0,0,30,0.0,49.0
2696,40.0,30,30,6.0,49.0
2697,72.0,0,30,5.0,88.0
2698,79.0,30,15,0.0,49.0
2699,71.0,0,30,5.0,88.0
2700,67.0,0,120,6.0,49.0
2701,64.0,0,120,6.0,49.0
2702,71.0,0,120,6.0,49.0
2703,64.0,0,0,1.0,49.0
2704,69.0,30,30,5.0,88.0
2705,78.0,0,30,0.0,49.0
2706,76.0,0,15,0.0,49.0
2707,67.0,30,30,5.0,88.0
2708,69.0,0,30,5.0,88.0
2709,78.0,0,30,0.0,49.0
2710,76.0,30,15,0.0,49.0
2711,63.0,30,60,1.0,49.0
2712,67.0,0,30,5.0,88.0
2713,71.0,0,30,5.0,88.0
2714,79.0,0,30,0.0,49.0
2715,78.0,30,15,0.0,49.0
2716,69.0,0,30,5.0,88.0
2717,59.0,0,0,1.0,49.0
2718,67.0,30,30,5.0,88.0
2719,76.0,0,30,0.0,49.0
2720,75.0,0,15,0.0,49.0
2721,66.0,30,30,5.0,88.0
2722,67.0,0,30,5.0,88.0
2723,76.0,0,30,0.0,49.0
2724,52.0,0,30,4.0,49.0
2725,52.0,0,30,6.0,49.0
2726,74.0,0,15,0.0,49.0
2727,59.0,0,60,1.0,49.0
2728,66.0,30,30,5.0,88.0
2729,78.0,0,30,0.0,49.0
2730,40.0,0,30,6.0,49.0
2731,40.0,30,30,4.0,49.0
2732,69.0,0,30,5.0,88.0
2733,76.0,30,15,0.0,49.0
2734,67.0,0,120,6.0,49.0
2735,64.0,30,120,6.0,49.0
2736,59.0,0,120,6.0,49.0
2737,59.0,0,0,1.0,49.0
2738,67.0,0,30,5.0,88.0
2739,74.0,30,30,0.0,49.0
2740,66.0,0,30,5.0,88.0
2741,73.0,30,15,0.0,49.0
2742,64.0,0,30,5.0,88.0
2743,66.0,0,30,5.0,88.0
2744,74.0,0,30,0.0,49.0
2745,73.0,0,15,0.0,49.0
2746,59.0,30,60,1.0,49.0
2747,64.0,30,30,5.0,88.0
2748,76.0,0,30,0.0,49.0
2749,67.0,0,30,5.0,88.0
2750,74.0,0,15,0.0,49.0
2751,59.0,30,60,1.0,49.0
2752,66.0,30,30,5.0,88.0
2753,59.0,0,30,1.0,49.0
2754,64.0,0,30,5.0,88.0
2755,73.0,30,30,0.0,49.0
2756,71.0,30,15,0.0,49.0
2757,62.0,0,30,5.0,88.0
2758,59.0,0,30,1.0,88.0
2759,64.0,0,60,5.0,88.0
2760,67.0,0,30,6.0,88.0
2761,64.0,60,30,6.0,88.0
2762,73.0,0,30,6.0,88.0
2763,62.0,0,30,5.0,88.0
2764,52.0,0,60,6.0,88.0
2765,67.0,0,60,2.0,88.0
2766,52.0,0,60,4.0,88.0
2767,61.0,30,30,5.0,88.0
2768,73.0,0,60,1.0,88.0
2769,64.0,0,60,3.0,88.0
2770,74.0,0,30,1.0,88.0
2771,62.0,0,30,3.0,88.0
2772,54.0,0,30,4.0,88.0
2773,66.0,30,30,2.0,88.0
2774,54.0,0,30,6.0,88.0
2775,62.0,0,30,6.0,88.0
2776,66.0,0,30,6.0,88.0
2777,71.0,0,30,6.0,88.0
2778,71.0,0,60,5.0,88.0
2779,71.0,0,30,6.0,88.0
2780,67.0,0,30,6.0,88.0
2781,64.0,0,30,6.0,88.0
2782,55.0,0,60,4.0,88.0
2783,61.0,0,60,3.0,88.0
2784,55.0,0,60,6.0,88.0
2785,64.0,0,60,2.0,88.0
2786,76.0,60,60,1.0,88.0
2787,66.0,0,30,6.0,88.0
2788,62.0,0,30,6.0,88.0
2789,71.0,0,30,6.0,88.0
2790,70.0,0,120,5.0,88.0
2791,54.0,0,60,6.0,88.0
2792,54.0,0,60,4.0,88.0
2793,62.0,60,60,3.0,88.0
2794,78.0,0,60,1.0,88.0
2795,62.0,0,60,2.0,88.0
2796,61.0,0,30,2.0,88.0
2797,67.0,0,30,6.0,88.0
2798,52.0,0,30,6.0,88.0
2799,61.0,0,30,6.0,88.0
2800,64.0,60,30,6.0,88.0
2801,55.0,0,30,3.0,88.0
2802,52.0,0,30,4.0,88.0
2803,79.0,0,30,1.0,88.0
2804,71.0,0,60,5.0,88.0
2805,79.0,0,30,1.0,88.0
2806,58.0,0,30,4.0,88.0
2807,61.0,0,30,2.0,88.0
2808,64.0,0,30,3.0,88.0
2809,58.0,0,30,6.0,88.0
2810,61.0,0,30,6.0,88.0
2811,66.0,0,30,6.0,88.0
2812,73.0,60,60,5.0,88.0
2813,71.0,60,30,5.0,88.0
2814,70.0,30,30,5.0,88.0
2815,68.0,30,30,5.0,88.0
2816,66.0,30,30,5.0,88.0
2817,73.0,30,600,0.0,88.0
2818,71.0,0,30,0.0,75.0
2819,66.0,0,30,6.0,75.0
2820,76.0,60,30,6.0,75.0
2821,54.0,0,30,6.0,75.0
2822,54.0,0,30,4.0,75.0
2823,66.0,30,120,5.0,88.0
2824,70.0,30,30,0.0,75.0
2825,73.0,30,30,5.0,88.0
2826,68.0,0,30,0.0,75.0
2827,58.0,0,30,6.0,75.0
2828,66.0,0,30,6.0,75.0
2829,73.0,0,30,6.0,75.0
2830,58.0,0,30,4.0,75.0
2831,74.0,0,15,5.0,88.0
2832,66.0,30,30,0.0,75.0
2833,76.0,15,15,5.0,88.0
2834,71.0,0,30,6.0,75.0
2835,74.0,0,30,6.0,75.0
2836,74.0,0,60,5.0,88.0
2837,66.0,0,60,0.0,75.0
2838,47.0,15,60,6.0,75.0
2839,47.0,0,60,4.0,75.0
2840,49.0,0,30,6.0,75.0
2841,76.0,60,30,6.0,75.0
2842,70.0,0,30,6.0,75.0
2843,49.0,0,30,4.0,75.0
2844,76.0,0,60,0.0,75.0
2845,70.0,0,60,5.0,88.0
2846,50.0,0,30,6.0,75.0
2847,71.0,0,30,6.0,75.0
2848,50.0,0,30,4.0,75.0
2849,74.0,0,30,6.0,75.0
2850,71.0,60,60,5.0,88.0
2851,74.0,0,60,0.0,75.0
2852,71.0,0,30,6.0,75.0
2853,67.0,0,30,6.0,75.0
2854,73.0,0,30,0.0,75.0
2855,76.0,30,30,0.0,75.0
2856,67.0,0,60,5.0,88.0
2857,52.0,0,60,6.0,75.0
2858,52.0,60,60,4.0,75.0
2859,49.0,0,30,6.0,75.0
2860,61.0,30,30,6.0,75.0
2861,49.0,0,30,4.0,75.0
2862,79.0,0,30,0.0,75.0
2863,70.0,0,30,6.0,75.0
2864,64.0,0,60,5.0,88.0
2865,70.0,30,30,0.0,75.0
2866,71.0,30,30,6.0,75.0
2867,66.0,0,30,6.0,75.0
2868,50.0,0,30,4.0,75.0
2869,71.0,0,30,0.0,75.0
2870,59.0,0,30,6.0,75.0
2871,50.0,0,30,6.0,75.0
2872,74.0,30,30,0.0,75.0
2873,47.0,0,30,6.0,75.0
2874,47.0,30,30,4.0,75.0
2875,66.0,0,120,5.0,88.0
2876,66.0,0,60,0.0,75.0
2877,54.0,60,30,6.0,75.0
2878,54.0,0,30,4.0,75.0
2879,74.0,0,30,5.0,88.0
2880,73.0,30,30,5.0,88.0
2881,66.0,0,120,6.0,75.0
2882,62.0,0,120,6.0,75.0
2883,71.0,0,30,5.0,88.0
2884,42.0,0,30,4.0,75.0
2885,42.0,0,30,6.0,75.0
2886,64.0,30,30,6.0,75.0
2887,61.0,0,30,6.0,75.0
2888,70.0,30,30,5.0,88.0
2889,47.0,0,30,4.0,75.0
2890,47.0,30,30,6.0,75.0
2891,59.0,60,30,4.0,75.0
2892,59.0,0,30,6.0,75.0
2893,71.0,0,120,5.0,88.0
2894,62.0,0,120,6.0,75.0
2895,69.0,30,30,0.0,88.0
2896,67.0,0,30,0.0,88.0
2897,59.0,0,30,6.0,88.0
2898,63.0,0,30,6.0,88.0
2899,57.0,0,30,6.0,88.0
2900,57.0,30,30,4.0,88.0
2901,66.0,30,30,0.0,88.0
2902,63.0,0,60,2.0,88.0
2903,59.0,0,60,3.0,88.0
2904,64.0,0,30,6.0,88.0
2905,59.0,0,30,6.0,88.0
2906,64.0,0,60,2.0,88.0
2907,59.0,0,60,3.0,88.0
2908,67.0,0,30,6.0,88.0
2909,71.0,0,30,6.0,88.0
2910,71.0,0,30,2.0,88.0
2911,76.0,0,30,6.0,88.0
2912,67.0,60,30,3.0,88.0
2913,76.0,0,60,1.0,88.0
2914,67.0,0,30,6.0,88.0
2915,64.0,0,30,6.0,88.0
2916,67.0,0,30,2.0,88.0
2917,73.0,0,30,6.0,88.0
2918,64.0,0,30,3.0,88.0
2919,73.0,60,60,1.0,88.0
2920,70.0,0,30,6.0,88.0
2921,55.0,0,210,6.0,88.0
2922,61.0,0,30,6.0,88.0
2923,64.0,0,30,6.0,88.0
2924,55.0,0,210,4.0,88.0
2925,70.0,0,60,1.0,88.0
2926,64.0,60,60,2.0,88.0
2927,61.0,0,60,3.0,88.0
2928,52.0,0,30,4.0,88.0
2929,61.0,0,30,6.0,88.0
2930,67.0,0,30,6.0,88.0
2931,64.0,0,30,3.0,88.0
2932,58.0,0,30,6.0,88.0
2933,64.0,0,30,6.0,88.0
2934,52.0,0,30,6.0,88.0
2935,64.0,30,270,0.0,88.0
2936,67.0,0,30,2.0,88.0
2937,67.0,30,30,0.0,88.0
2938,73.0,60,60,1.0,88.0
2939,58.0,0,30,6.0,88.0
2940,64.0,0,30,6.0,88.0
2941,66.0,0,30,0.0,88.0
2942,49.0,0,30,6.0,88.0
2943,61.0,0,30,6.0,88.0
2944,49.0,0,30,4.0,88.0
2945,64.0,30,30,0.0,88.0
2946,67.0,0,60,3.0,88.0
2947,46.0,0,30,4.0,88.0
2948,66.0,0,30,3.0,88.0
2949,76.0,0,90,1.0,88.0
2950,61.0,30,90,2.0,88.0
2951,66.0,0,30,0.0,88.0
2952,58.0,30,30,6.0,88.0
2953,66.0,0,30,6.0,88.0
2954,61.0,0,30,6.0,88.0
2955,46.0,0,30,6.0,88.0
2956,68.0,30,30,0.0,88.0
2957,70.0,0,30,6.0,88.0
2958,64.0,0,30,2.0,88.0
2959,70.0,0,30,1.0,88.0
2960,61.0,0,30,3.0,88.0
2961,49.0,0,30,4.0,88.0
2962,66.0,0,30,6.0,88.0
2963,61.0,0,30,6.0,88.0
2964,49.0,30,30,6.0,88.0
2965,70.0,0,30,0.0,88.0
2966,71.0,30,30,0.0,88.0
2967,73.0,30,30,0.0,88.0
2968,74.0,30,30,0.0,88.0
2969,76.0,0,30,0.0,88.0
2970,70.0,0,30,2.0,88.0
2971,61.0,30,30,3.0,88.0
2972,67.0,0,30,6.0,88.0
2973,76.0,0,30,1.0,88.0
2974,42.0,0,30,4.0,88.0
2975,58.0,0,30,6.0,88.0
2976,61.0,0,30,6.0,88.0
2977,42.0,0,30,6.0,88.0
2978,79.0,30,30,0.0,88.0
2979,78.0,30,30,0.0,88.0
2980,66.0,0,30,3.0,88.0
2981,61.0,0,30,2.0,88.0
2982,66.0,0,30,1.0,88.0
2983,46.0,0,30,6.0,88.0
2984,54.0,0,30,6.0,88.0
2985,58.0,0,30,6.0,88.0
2986,64.0,0,30,6.0,88.0
2987,46.0,0,30,4.0,88.0
2988,76.0,30,30,0.0,88.0
2989,74.0,30,30,0.0,88.0
2990,73.0,30,30,0.0,88.0
2991,74.0,30,30,0.0,88.0
2992,47.0,0,30,4.0,88.0
2993,59.0,0,30,6.0,88.0
2994,47.0,0,30,6.0,88.0
2995,62.0,0,30,6.0,88.0
2996,73.0,30,15,0.0,88.0
2997,67.0,0,30,6.0,88.0
2998,64.0,30,30,6.0,88.0
2999,55.0,0,30,6.0,88.0
3000,76.0,0,30,0.0,88.0
3001,55.0,0,30,4.0,88.0
3002,71.0,0,30,6.0,88.0
3003,71.0,0,60,2.0,88.0
3004,74.0,30,30,0.0,88.0
3005,76.0,0,60,1.0,88.0
3006,59.0,30,0,3.0,88.0
3007,50.0,0,30,6.0,88.0
3008,59.0,0,30,6.0,88.0
3009,73.0,0,30,0.0,88.0
3010,50.0,0,30,4.0,88.0
3011,66.0,0,30,6.0,88.0
3012,62.0,0,30,6.0,88.0
3013,74.0,0,60,1.0,88.0
3014,71.0,30,30,0.0,88.0
3015,66.0,0,60,2.0,88.0
3016,52.0,0,30,6.0,88.0
3017,52.0,0,30,4.0,88.0
3018,61.0,0,30,6.0,88.0
3019,59.0,30,30,6.0,88.0
3020,73.0,0,30,0.0,88.0
3021,71.0,30,15,0.0,88.0
3022,59.0,0,60,3.0,88.0
3023,73.0,0,60,1.0,88.0
3024,67.0,0,60,2.0,88.0
3025,59.0,0,30,6.0,88.0
3026,54.0,0,30,6.0,88.0
3027,74.0,0,30,1.0,88.0
3028,62.0,0,30,6.0,88.0
3029,74.0,0,30,0.0,88.0
3030,62.0,0,30,2.0,88.0
3031,59.0,0,30,3.0,88.0
3032,54.0,30,30,4.0,88.0
3033,73.0,30,30,0.0,88.0
3034,71.0,30,30,0.0,88.0
3035,42.0,0,30,6.0,88.0
3036,54.0,0,30,6.0,88.0
3037,64.0,0,30,2.0,88.0
3038,54.0,0,30,3.0,88.0
3039,58.0,0,30,6.0,88.0
3040,73.0,0,30,1.0,88.0
3041,42.0,0,30,4.0,88.0
3042,70.0,30,30,0.0,88.0
3043,47.0,0,360,4.0,88.0
3044,71.0,0,360,1.0,88.0
3045,47.0,0,360,6.0,88.0
3046,50.0,0,360,6.0,88.0
3047,54.0,0,360,3.0,88.0
3048,59.0,0,360,6.0,88.0
3049,54.0,0,360,6.0,88.0
3050,62.0,0,360,2.0,88.0
3051,71.0,30,360,0.0,88.0
