,note,step,duration,channel,velocity
0,69.0,0,320,3.0,93.0
1,72.0,0,320,1.0,60.0
2,69.0,384,320,2.0,60.0
3,76.0,0,624,3.0,93.0
4,77.0,240,48,3.0,93.0
5,72.0,384,320,1.0,60.0
6,69.0,0,320,2.0,60.0
7,76.0,48,48,3.0,93.0
8,74.0,48,44,3.0,93.0
9,76.0,0,288,3.0,93.0
10,69.0,48,320,2.0,60.0
11,72.0,0,320,1.0,60.0
12,84.0,288,92,3.0,93.0
13,69.0,96,320,2.0,60.0
14,71.0,0,320,1.0,60.0
15,74.0,0,672,3.0,93.0
16,69.0,384,320,2.0,60.0
17,71.0,0,320,1.0,60.0
18,69.0,384,320,2.0,60.0
19,74.0,0,320,1.0,60.0
20,83.0,0,320,3.0,93.0
21,83.0,0,96,3.0,93.0
22,84.0,96,96,3.0,93.0
23,83.0,96,96,3.0,93.0
24,68.0,384,320,2.0,60.0
25,74.0,0,320,1.0,60.0
26,81.0,96,92,3.0,93.0
27,83.0,96,96,3.0,93.0
28,81.0,96,96,3.0,93.0
29,80.0,96,96,3.0,93.0
30,74.0,0,320,1.0,60.0
31,68.0,0,320,2.0,60.0
32,78.0,96,96,3.0,93.0
33,76.0,0,96,3.0,93.0
34,74.0,96,96,3.0,93.0
35,72.0,96,96,3.0,93.0
36,71.0,96,320,1.0,60.0
37,68.0,0,320,2.0,60.0
38,71.0,96,92,3.0,93.0
39,71.0,96,96,3.0,93.0
40,74.0,96,96,3.0,93.0
41,72.0,96,96,3.0,93.0
42,69.0,0,288,1.0,60.0
43,69.0,0,288,2.0,60.0
44,71.0,0,92,1.0,60.0
45,71.0,0,92,2.0,60.0
46,71.0,96,96,3.0,93.0
47,76.0,0,288,2.0,60.0
48,76.0,0,288,1.0,60.0
49,69.0,96,320,3.0,93.0
50,74.0,288,92,2.0,60.0
51,74.0,0,92,1.0,60.0
52,69.0,96,96,3.0,93.0
53,72.0,96,288,2.0,60.0
54,72.0,96,96,3.0,93.0
55,72.0,0,288,1.0,60.0
56,76.0,96,92,3.0,93.0
57,72.0,0,92,2.0,60.0
58,71.0,0,92,1.0,60.0
59,77.0,96,96,3.0,93.0
60,76.0,96,96,3.0,93.0
61,77.0,96,96,3.0,93.0
62,72.0,0,0,1.0,60.0
63,69.0,0,384,2.0,60.0
64,81.0,96,96,3.0,93.0
65,84.0,96,96,3.0,93.0
66,83.0,96,96,3.0,93.0
67,81.0,96,96,3.0,93.0
68,72.0,96,0,1.0,60.0
69,79.0,96,96,3.0,93.0
70,69.0,0,0,2.0,60.0
71,77.0,0,96,3.0,93.0
72,76.0,96,96,3.0,93.0
73,77.0,96,284,3.0,93.0
74,75.0,96,96,3.0,93.0
75,76.0,96,96,3.0,93.0
76,67.0,96,0,2.0,60.0
77,79.0,96,96,3.0,93.0
78,71.0,0,0,1.0,60.0
79,83.0,0,96,3.0,93.0
80,81.0,96,96,3.0,93.0
81,79.0,96,96,3.0,93.0
82,77.0,96,96,3.0,93.0
83,76.0,0,96,3.0,93.0
84,74.0,96,96,3.0,93.0
85,67.0,96,320,2.0,60.0
86,70.0,0,320,1.0,60.0
87,76.0,96,284,3.0,93.0
88,73.0,96,96,3.0,93.0
89,74.0,96,96,3.0,93.0
90,69.0,0,0,1.0,60.0
91,65.0,96,0,2.0,60.0
92,77.0,96,96,3.0,93.0
93,81.0,0,96,3.0,93.0
94,79.0,96,96,3.0,93.0
95,77.0,96,96,3.0,93.0
96,76.0,96,96,3.0,93.0
97,74.0,96,96,3.0,93.0
98,73.0,96,96,3.0,93.0
99,65.0,0,320,2.0,60.0
100,69.0,0,320,1.0,60.0
101,74.0,96,284,3.0,93.0
102,77.0,96,96,3.0,93.0
103,76.0,96,96,3.0,93.0
104,64.0,96,0,2.0,60.0
105,68.0,192,384,1.0,60.0
106,74.0,96,96,3.0,93.0
107,83.0,0,96,3.0,93.0
108,80.0,96,96,3.0,93.0
109,77.0,96,96,3.0,93.0
110,76.0,96,96,3.0,93.0
111,68.0,0,0,1.0,60.0
112,64.0,0,0,2.0,60.0
113,74.0,96,96,3.0,93.0
114,71.0,96,96,3.0,93.0
115,73.0,96,284,3.0,93.0
116,71.0,96,96,3.0,93.0
117,73.0,96,96,3.0,93.0
118,64.0,0,320,2.0,60.0
119,69.0,192,320,1.0,60.0
120,76.0,96,96,3.0,93.0
121,81.0,96,96,3.0,93.0
122,79.0,96,96,3.0,93.0
123,78.0,96,96,3.0,93.0
124,69.0,0,320,1.0,60.0
125,64.0,0,320,2.0,60.0
126,76.0,96,96,3.0,93.0
127,75.0,0,96,3.0,93.0
128,71.0,96,96,3.0,93.0
129,64.0,0,320,2.0,60.0
130,69.0,96,320,1.0,60.0
131,72.0,96,284,3.0,93.0
132,71.0,96,96,3.0,93.0
133,72.0,96,96,3.0,93.0
134,63.0,0,320,2.0,60.0
135,69.0,192,320,1.0,60.0
136,75.0,96,96,3.0,93.0
137,78.0,96,96,3.0,93.0
138,80.0,96,96,3.0,93.0
139,81.0,96,96,3.0,93.0
140,69.0,0,320,1.0,60.0
141,63.0,0,320,2.0,60.0
142,83.0,96,96,3.0,93.0
143,84.0,0,96,3.0,93.0
144,81.0,96,96,3.0,93.0
145,63.0,0,320,2.0,60.0
146,69.0,96,320,1.0,60.0
147,62.0,192,320,2.0,60.0
148,68.0,0,320,1.0,60.0
149,83.0,96,668,3.0,93.0
150,77.0,480,96,3.0,93.0
151,76.0,96,96,3.0,93.0
152,74.0,96,96,3.0,93.0
153,76.0,96,96,3.0,93.0
154,71.0,96,96,3.0,93.0
155,72.0,96,96,3.0,93.0
156,68.0,96,92,3.0,93.0
157,72.0,48,44,3.0,93.0
158,75.0,48,44,3.0,93.0
159,78.0,48,44,3.0,93.0
160,69.0,0,284,1.0,60.0
161,60.0,96,284,2.0,60.0
162,62.0,0,92,2.0,60.0
163,71.0,96,92,1.0,60.0
164,81.0,48,284,3.0,93.0
165,80.0,96,44,3.0,93.0
166,78.0,48,44,3.0,93.0
167,76.0,48,92,3.0,93.0
168,72.0,96,288,1.0,60.0
169,64.0,0,320,2.0,60.0
170,69.0,0,92,1.0,60.0
171,84.0,96,188,3.0,93.0
172,83.0,96,44,3.0,93.0
173,81.0,48,44,3.0,93.0
174,80.0,48,92,3.0,93.0
175,74.0,96,288,1.0,60.0
176,64.0,0,320,2.0,60.0
177,71.0,96,92,1.0,60.0
178,81.0,0,92,3.0,93.0
179,81.0,0,284,3.0,93.0
180,69.0,96,320,2.0,60.0
181,72.0,0,320,1.0,60.0
182,79.0,288,44,3.0,93.0
183,77.0,48,44,3.0,93.0
184,76.0,0,92,3.0,93.0
185,81.0,96,92,3.0,93.0
186,76.0,96,92,3.0,93.0
187,74.0,96,92,3.0,93.0
188,69.0,0,384,1.0,60.0
189,60.0,48,384,2.0,60.0
190,74.0,0,92,3.0,93.0
191,83.0,96,92,3.0,93.0
192,74.0,96,92,3.0,93.0
193,64.0,0,320,2.0,60.0
194,76.0,96,320,0.0,77.0
195,68.0,0,320,1.0,60.0
196,72.0,96,92,3.0,93.0
197,72.0,0,92,3.0,93.0
198,71.0,96,92,3.0,93.0
199,69.0,96,92,3.0,93.0
200,68.0,96,92,3.0,93.0
201,72.0,0,384,1.0,60.0
202,69.0,96,384,2.0,60.0
203,69.0,96,92,3.0,93.0
204,71.0,96,92,3.0,93.0
205,72.0,96,92,3.0,93.0
206,74.0,96,92,3.0,93.0
207,69.0,96,0,2.0,60.0
208,72.0,0,384,1.0,60.0
209,76.0,0,92,3.0,93.0
210,77.0,96,92,3.0,93.0
211,76.0,96,92,3.0,93.0
212,72.0,0,320,1.0,60.0
213,79.0,96,92,3.0,93.0
214,76.0,0,1248,0.0,77.0
215,79.0,96,96,0.0,77.0
216,77.0,96,96,0.0,77.0
217,69.0,0,384,2.0,60.0
218,76.0,96,96,0.0,77.0
219,72.0,0,384,1.0,60.0
220,77.0,96,96,0.0,77.0
221,76.0,96,96,0.0,77.0
222,74.0,96,96,0.0,77.0
223,71.0,0,384,1.0,60.0
224,69.0,0,0,2.0,60.0
225,72.0,96,96,0.0,77.0
226,71.0,0,96,0.0,77.0
227,74.0,96,96,0.0,77.0
228,72.0,96,96,0.0,77.0
229,71.0,96,320,1.0,60.0
230,76.0,96,96,0.0,77.0
231,77.0,96,1244,3.0,93.0
232,74.0,96,96,0.0,77.0
233,84.0,0,92,3.0,93.0
234,76.0,96,96,0.0,77.0
235,83.0,96,92,3.0,93.0
236,81.0,96,92,3.0,93.0
237,68.0,96,0,2.0,60.0
238,71.0,0,0,1.0,60.0
239,83.0,0,92,3.0,93.0
240,81.0,96,92,3.0,93.0
241,77.0,0,384,0.0,77.0
242,80.0,96,92,3.0,93.0
243,78.0,96,92,3.0,93.0
244,76.0,0,92,3.0,93.0
245,76.0,0,320,0.0,77.0
246,74.0,96,92,3.0,93.0
247,71.0,0,320,1.0,60.0
248,68.0,96,320,2.0,60.0
249,74.0,0,188,0.0,77.0
250,83.0,96,284,3.0,93.0
251,74.0,0,192,0.0,77.0
252,74.0,96,96,3.0,93.0
253,76.0,96,96,3.0,93.0
254,69.0,0,288,2.0,60.0
255,69.0,192,288,1.0,60.0
256,71.0,96,92,2.0,60.0
257,71.0,0,92,1.0,60.0
258,72.0,0,188,0.0,77.0
259,68.0,0,96,3.0,93.0
260,69.0,0,96,3.0,93.0
261,72.0,96,96,3.0,93.0
262,76.0,96,96,3.0,93.0
263,72.0,0,288,1.0,60.0
264,72.0,96,288,2.0,60.0
265,72.0,0,320,0.0,77.0
266,71.0,0,92,2.0,60.0
267,74.0,0,92,1.0,60.0
268,79.0,96,96,3.0,93.0
269,77.0,96,96,3.0,93.0
270,83.0,96,96,3.0,93.0
271,72.0,0,288,1.0,60.0
272,69.0,0,288,2.0,60.0
273,77.0,0,96,3.0,93.0
274,68.0,0,92,2.0,60.0
275,71.0,96,92,1.0,60.0
276,69.0,96,188,0.0,77.0
277,76.0,0,92,3.0,93.0
278,74.0,0,96,3.0,93.0
279,77.0,96,188,0.0,77.0
280,72.0,96,96,3.0,93.0
281,71.0,96,96,3.0,93.0
282,77.0,0,188,0.0,77.0
283,72.0,96,92,3.0,93.0
284,69.0,96,0,1.0,60.0
285,69.0,0,384,2.0,60.0
286,77.0,0,188,0.0,77.0
287,71.0,0,320,3.0,93.0
288,77.0,192,188,0.0,77.0
289,69.0,0,384,2.0,60.0
290,77.0,0,188,0.0,77.0
291,69.0,0,320,2.0,60.0
292,72.0,192,320,1.0,60.0
293,77.0,192,188,0.0,77.0
294,77.0,0,192,0.0,77.0
295,67.0,192,0,2.0,60.0
296,75.0,192,192,0.0,77.0
297,71.0,0,0,1.0,60.0
298,83.0,0,284,3.0,93.0
299,81.0,96,96,3.0,93.0
300,75.0,0,192,0.0,77.0
301,79.0,96,96,3.0,93.0
302,77.0,96,96,3.0,93.0
303,67.0,96,0,2.0,60.0
304,76.0,0,284,0.0,77.0
305,76.0,0,96,3.0,93.0
306,74.0,96,96,3.0,93.0
307,70.0,0,320,1.0,60.0
308,76.0,96,284,3.0,93.0
309,73.0,96,96,3.0,93.0
310,74.0,96,96,3.0,93.0
311,77.0,96,96,3.0,93.0
312,69.0,0,384,1.0,60.0
313,65.0,192,384,2.0,60.0
314,81.0,96,96,3.0,93.0
315,79.0,96,96,3.0,93.0
316,77.0,96,96,3.0,93.0
317,76.0,96,96,3.0,93.0
318,69.0,0,384,1.0,60.0
319,65.0,0,0,2.0,60.0
320,74.0,96,96,3.0,93.0
321,73.0,96,96,3.0,93.0
322,69.0,0,320,1.0,60.0
323,69.0,0,188,0.0,77.0
324,74.0,96,284,3.0,93.0
325,68.0,192,188,0.0,77.0
326,77.0,96,96,3.0,93.0
327,76.0,96,96,3.0,93.0
328,71.0,0,320,1.0,60.0
329,64.0,0,320,2.0,60.0
330,71.0,0,188,0.0,77.0
331,74.0,96,96,3.0,93.0
332,83.0,0,96,3.0,93.0
333,76.0,0,188,0.0,77.0
334,80.0,96,96,3.0,93.0
335,77.0,0,96,3.0,93.0
336,68.0,96,320,1.0,60.0
337,64.0,0,320,2.0,60.0
338,74.0,96,188,0.0,77.0
339,76.0,96,96,3.0,93.0
340,74.0,0,96,3.0,93.0
341,74.0,96,188,0.0,77.0
342,71.0,96,96,3.0,93.0
343,64.0,0,320,2.0,60.0
344,68.0,0,320,1.0,60.0
345,73.0,0,188,0.0,77.0
346,73.0,96,284,3.0,93.0
347,71.0,96,96,3.0,93.0
348,73.0,96,96,3.0,93.0
349,73.0,0,288,0.0,77.0
350,64.0,192,320,2.0,60.0
351,69.0,0,320,1.0,60.0
352,76.0,0,96,3.0,93.0
353,71.0,96,96,0.0,77.0
354,81.0,96,96,3.0,93.0
355,79.0,96,96,3.0,93.0
356,78.0,96,96,3.0,93.0
357,69.0,0,320,1.0,60.0
358,64.0,0,320,2.0,60.0
359,76.0,96,96,3.0,93.0
360,73.0,0,384,0.0,77.0
361,75.0,0,96,3.0,93.0
362,71.0,96,96,3.0,93.0
363,69.0,96,320,1.0,60.0
364,64.0,0,320,2.0,60.0
365,72.0,96,284,3.0,93.0
366,72.0,0,576,0.0,77.0
367,71.0,96,96,3.0,93.0
368,72.0,96,96,3.0,93.0
369,69.0,192,320,1.0,60.0
370,63.0,0,320,2.0,60.0
371,75.0,96,96,3.0,93.0
372,78.0,0,192,0.0,77.0
373,78.0,0,96,3.0,93.0
374,75.0,96,192,0.0,77.0
375,80.0,96,96,3.0,93.0
376,81.0,0,96,3.0,93.0
377,63.0,0,320,2.0,60.0
378,69.0,0,320,1.0,60.0
379,83.0,96,96,3.0,93.0
380,72.0,96,192,0.0,77.0
381,84.0,0,96,3.0,93.0
382,71.0,96,96,0.0,77.0
383,81.0,96,96,3.0,93.0
384,66.0,0,320,1.0,60.0
385,63.0,0,320,2.0,60.0
386,83.0,96,188,3.0,93.0
387,69.0,0,480,0.0,77.0
388,62.0,0,320,2.0,60.0
389,64.0,192,320,1.0,60.0
390,83.0,0,320,3.0,93.0
391,68.0,192,188,0.0,77.0
392,68.0,192,320,0.0,77.0
393,76.0,0,188,0.0,77.0
394,71.0,0,188,1.0,60.0
395,68.0,576,188,2.0,60.0
396,74.0,0,96,0.0,77.0
397,72.0,96,92,0.0,77.0
398,72.0,192,288,1.0,60.0
399,69.0,0,288,2.0,60.0
400,71.0,96,96,0.0,77.0
401,69.0,96,92,0.0,77.0
402,71.0,0,92,2.0,60.0
403,74.0,0,92,1.0,60.0
404,78.0,96,188,0.0,77.0
405,69.0,0,288,2.0,60.0
406,72.0,0,288,1.0,60.0
407,67.0,96,92,2.0,60.0
408,71.0,0,92,1.0,60.0
409,79.0,192,188,0.0,77.0
410,72.0,96,96,0.0,77.0
411,71.0,96,92,0.0,77.0
412,66.0,0,288,2.0,60.0
413,69.0,0,288,1.0,60.0
414,62.0,0,92,2.0,60.0
415,65.0,96,92,1.0,60.0
416,72.0,96,188,0.0,77.0
417,71.0,0,188,0.0,77.0
418,67.0,96,288,2.0,60.0
419,71.0,0,288,1.0,60.0
420,69.0,288,92,2.0,60.0
421,72.0,0,92,1.0,60.0
422,77.0,0,188,0.0,77.0
423,67.0,96,288,2.0,60.0
424,71.0,0,288,1.0,60.0
425,69.0,0,92,1.0,60.0
426,65.0,288,92,2.0,60.0
427,64.0,0,288,2.0,60.0
428,67.0,96,288,1.0,60.0
429,74.0,192,96,0.0,77.0
430,76.0,0,48,0.0,77.0
431,62.0,96,92,2.0,60.0
432,65.0,0,92,1.0,60.0
433,77.0,48,44,0.0,77.0
434,77.0,0,96,0.0,77.0
435,76.0,96,92,0.0,77.0
436,60.0,0,284,2.0,60.0
437,74.0,96,96,0.0,77.0
438,72.0,96,92,0.0,77.0
439,64.0,0,92,2.0,60.0
440,70.0,0,96,0.0,77.0
441,69.0,96,92,0.0,77.0
442,65.0,96,288,2.0,60.0
443,67.0,48,672,1.0,60.0
444,74.0,96,188,0.0,77.0
445,62.0,0,92,2.0,60.0
446,65.0,96,92,1.0,60.0
447,67.0,0,188,0.0,77.0
448,67.0,96,288,1.0,60.0
449,64.0,0,288,2.0,60.0
450,62.0,96,92,1.0,60.0
451,65.0,192,188,0.0,77.0
452,55.0,0,92,2.0,60.0
453,79.0,0,476,3.0,93.0
454,77.0,96,96,3.0,93.0
455,76.0,96,96,3.0,93.0
456,64.0,0,320,0.0,77.0
457,60.0,96,0,2.0,60.0
458,64.0,0,0,1.0,60.0
459,74.0,96,96,3.0,93.0
460,76.0,0,96,3.0,93.0
461,72.0,96,96,3.0,93.0
462,76.0,96,96,3.0,93.0
463,79.0,96,96,3.0,93.0
464,64.0,96,0,1.0,60.0
465,60.0,0,0,2.0,60.0
466,81.0,0,96,3.0,93.0
467,83.0,96,96,3.0,93.0
468,84.0,96,96,3.0,93.0
469,81.0,96,92,3.0,93.0
470,62.0,0,320,1.0,60.0
471,60.0,96,320,2.0,60.0
472,77.0,0,672,3.0,93.0
473,62.0,0,320,1.0,60.0
474,60.0,384,320,2.0,60.0
475,65.0,384,320,1.0,60.0
476,60.0,0,320,2.0,60.0
477,86.0,0,480,3.0,93.0
478,84.0,96,96,3.0,93.0
479,83.0,96,96,3.0,93.0
480,65.0,384,320,1.0,60.0
481,59.0,0,320,2.0,60.0
482,81.0,96,96,3.0,93.0
483,79.0,0,96,3.0,93.0
484,77.0,96,96,3.0,93.0
485,76.0,96,96,3.0,93.0
486,62.0,0,320,1.0,60.0
487,59.0,96,320,2.0,60.0
488,77.0,96,92,3.0,93.0
489,86.0,96,284,3.0,93.0
490,59.0,0,320,2.0,60.0
491,77.0,288,92,3.0,93.0
492,67.0,0,672,1.0,60.0
493,60.0,0,288,2.0,60.0
494,62.0,288,92,1.0,60.0
495,59.0,0,92,2.0,60.0
496,60.0,0,288,2.0,60.0
497,64.0,96,288,1.0,60.0
498,62.0,288,92,2.0,60.0
499,67.0,0,92,1.0,60.0
500,64.0,0,288,2.0,60.0
501,72.0,96,288,1.0,60.0
502,70.0,288,92,1.0,60.0
503,60.0,0,92,2.0,60.0
504,76.0,96,1244,3.0,93.0
505,75.0,96,96,3.0,93.0
506,74.0,96,96,3.0,93.0
507,75.0,96,92,3.0,93.0
508,69.0,0,0,1.0,60.0
509,66.0,0,0,2.0,60.0
510,81.0,96,96,3.0,93.0
511,83.0,96,92,3.0,93.0
512,83.0,96,96,3.0,93.0
513,84.0,96,92,3.0,93.0
514,69.0,0,0,1.0,60.0
515,66.0,0,0,2.0,60.0
516,84.0,96,96,3.0,93.0
517,75.0,96,92,3.0,93.0
518,75.0,96,96,3.0,93.0
519,74.0,96,92,3.0,93.0
520,72.0,96,192,3.0,93.0
521,67.0,0,320,1.0,60.0
522,65.0,0,320,2.0,60.0
523,71.0,192,284,3.0,93.0
524,80.0,288,92,3.0,93.0
525,80.0,96,96,3.0,93.0
526,79.0,96,92,3.0,93.0
527,77.0,96,0,3.0,93.0
528,77.0,96,0,3.0,93.0
529,79.0,0,48,3.0,93.0
530,84.0,48,48,3.0,93.0
531,83.0,48,48,3.0,93.0
532,81.0,48,48,3.0,93.0
533,79.0,48,48,3.0,93.0
534,84.0,48,44,3.0,93.0
535,64.0,0,288,2.0,60.0
536,72.0,96,320,1.0,60.0
537,65.0,48,92,2.0,60.0
538,72.0,0,92,3.0,93.0
539,67.0,96,288,2.0,60.0
540,76.0,0,288,3.0,93.0
541,72.0,0,320,1.0,60.0
542,65.0,288,92,2.0,60.0
543,74.0,0,92,3.0,93.0
544,67.0,96,20,1.0,60.0
545,76.0,0,20,3.0,93.0
546,74.0,24,20,3.0,93.0
547,65.0,0,20,1.0,60.0
548,76.0,24,20,3.0,93.0
549,67.0,0,20,1.0,60.0
550,74.0,24,20,3.0,93.0
551,65.0,0,20,1.0,60.0
552,76.0,24,20,3.0,93.0
553,67.0,0,20,1.0,60.0
554,65.0,24,20,1.0,60.0
555,74.0,0,20,3.0,93.0
556,67.0,24,20,1.0,60.0
557,76.0,0,20,3.0,93.0
558,65.0,24,116,1.0,60.0
559,74.0,0,116,3.0,93.0
560,55.0,0,320,2.0,60.0
561,64.0,120,92,1.0,60.0
562,72.0,0,92,3.0,93.0
563,64.0,0,320,1.0,60.0
564,60.0,96,384,2.0,60.0
565,72.0,0,480,3.0,93.0
566,74.0,96,96,3.0,93.0
567,72.0,96,96,3.0,93.0
568,64.0,0,320,1.0,60.0
569,67.0,384,320,0.0,77.0
570,71.0,96,96,3.0,93.0
571,60.0,0,0,2.0,60.0
572,72.0,96,96,3.0,93.0
573,76.0,96,48,3.0,93.0
574,77.0,48,48,3.0,93.0
575,79.0,48,96,3.0,93.0
576,67.0,0,320,0.0,77.0
577,64.0,0,320,1.0,60.0
578,76.0,96,92,3.0,93.0
579,58.0,0,288,2.0,60.0
580,64.0,0,320,1.0,60.0
581,57.0,288,92,2.0,60.0
582,72.0,96,480,3.0,93.0
583,74.0,96,96,3.0,93.0
584,72.0,96,96,3.0,93.0
585,58.0,0,288,2.0,60.0
586,64.0,96,320,1.0,60.0
587,60.0,96,92,2.0,60.0
588,71.0,0,96,3.0,93.0
589,72.0,0,96,3.0,93.0
590,76.0,96,48,3.0,93.0
591,77.0,48,48,3.0,93.0
592,58.0,0,288,2.0,60.0
593,79.0,48,96,3.0,93.0
594,64.0,96,320,1.0,60.0
595,76.0,96,92,3.0,93.0
596,57.0,0,92,2.0,60.0
597,67.0,0,1248,0.0,77.0
598,64.0,96,96,0.0,77.0
599,67.0,96,96,0.0,77.0
600,64.0,96,288,1.0,60.0
601,82.0,0,288,3.0,93.0
602,55.0,0,320,2.0,60.0
603,81.0,0,48,3.0,93.0
604,67.0,0,92,1.0,60.0
605,79.0,48,48,3.0,93.0
606,70.0,96,96,0.0,77.0
607,74.0,0,188,0.0,77.0
608,77.0,0,320,3.0,93.0
609,70.0,48,320,1.0,60.0
610,67.0,0,320,2.0,60.0
611,72.0,192,188,0.0,77.0
612,77.0,192,20,3.0,93.0
613,76.0,24,20,3.0,93.0
614,77.0,24,20,3.0,93.0
615,76.0,24,20,3.0,93.0
616,77.0,24,20,3.0,93.0
617,76.0,24,20,3.0,93.0
618,77.0,24,20,3.0,93.0
619,72.0,0,188,0.0,77.0
620,76.0,24,116,3.0,93.0
621,70.0,0,320,1.0,60.0
622,60.0,0,320,2.0,60.0
623,77.0,96,92,3.0,93.0
624,70.0,24,188,0.0,77.0
625,70.0,0,188,0.0,77.0
626,70.0,0,192,1.0,60.0
627,65.0,96,320,2.0,60.0
628,69.0,192,188,1.0,60.0
629,69.0,0,188,0.0,77.0
630,77.0,0,480,3.0,93.0
631,79.0,96,96,3.0,93.0
632,77.0,96,96,3.0,93.0
633,72.0,0,320,0.0,77.0
634,65.0,0,320,2.0,60.0
635,69.0,192,320,1.0,60.0
636,76.0,96,96,3.0,93.0
637,77.0,0,96,3.0,93.0
638,81.0,96,48,3.0,93.0
639,82.0,48,48,3.0,93.0
640,84.0,48,96,3.0,93.0
641,69.0,0,320,1.0,60.0
642,72.0,96,320,0.0,77.0
643,65.0,0,320,2.0,60.0
644,81.0,96,92,3.0,93.0
645,63.0,96,284,2.0,60.0
646,69.0,0,320,1.0,60.0
647,62.0,288,92,2.0,60.0
648,77.0,0,480,3.0,93.0
649,79.0,96,96,3.0,93.0
650,77.0,96,96,3.0,93.0
651,63.0,0,288,2.0,60.0
652,69.0,96,320,1.0,60.0
653,65.0,0,92,2.0,60.0
654,76.0,96,96,3.0,93.0
655,77.0,0,96,3.0,93.0
656,81.0,96,48,3.0,93.0
657,82.0,48,48,3.0,93.0
658,63.0,96,288,2.0,60.0
659,84.0,48,96,3.0,93.0
660,69.0,0,320,1.0,60.0
661,62.0,96,92,2.0,60.0
662,81.0,0,92,3.0,93.0
663,72.0,0,1248,0.0,77.0
664,69.0,96,96,0.0,77.0
665,69.0,96,288,1.0,60.0
666,72.0,96,96,0.0,77.0
667,87.0,0,288,3.0,93.0
668,60.0,0,320,2.0,60.0
669,86.0,0,48,3.0,93.0
670,72.0,0,92,1.0,60.0
671,75.0,96,96,0.0,77.0
672,84.0,48,48,3.0,93.0
673,82.0,0,92,3.0,93.0
674,79.0,48,188,0.0,77.0
675,79.0,96,92,3.0,93.0
676,63.0,0,320,1.0,60.0
677,60.0,0,320,2.0,60.0
678,77.0,0,188,0.0,77.0
679,81.0,96,320,3.0,93.0
680,77.0,192,188,0.0,77.0
681,65.0,0,320,2.0,60.0
682,72.0,0,320,1.0,60.0
683,75.0,0,188,0.0,77.0
684,80.0,192,288,3.0,93.0
685,78.0,96,96,3.0,93.0
686,74.0,192,320,0.0,77.0
687,70.0,0,384,1.0,60.0
688,58.0,0,0,2.0,60.0
689,79.0,96,284,3.0,93.0
690,82.0,96,96,3.0,93.0
691,86.0,96,96,3.0,93.0
692,74.0,192,320,0.0,77.0
693,67.0,0,384,1.0,60.0
694,84.0,96,96,3.0,93.0
695,82.0,0,96,3.0,93.0
696,81.0,96,48,3.0,93.0
697,79.0,48,48,3.0,93.0
698,78.0,48,96,3.0,93.0
699,74.0,96,320,0.0,77.0
700,58.0,0,320,2.0,60.0
701,67.0,0,320,1.0,60.0
702,79.0,96,92,3.0,93.0
703,72.0,96,96,3.0,93.0
704,70.0,96,96,3.0,93.0
705,72.0,96,96,3.0,93.0
706,78.0,96,96,3.0,93.0
707,57.0,0,384,2.0,60.0
708,66.0,0,384,1.0,60.0
709,81.0,0,96,3.0,93.0
710,79.0,96,96,3.0,93.0
711,78.0,96,96,3.0,93.0
712,75.0,96,96,3.0,93.0
713,57.0,0,0,2.0,60.0
714,66.0,96,0,1.0,60.0
715,74.0,0,96,3.0,93.0
716,72.0,96,96,3.0,93.0
717,70.0,96,96,3.0,93.0
718,69.0,96,92,3.0,93.0
719,70.0,0,96,3.0,93.0
720,74.0,0,1340,0.0,77.0
721,69.0,96,96,3.0,93.0
722,55.0,0,288,2.0,60.0
723,70.0,0,96,3.0,93.0
724,67.0,96,288,1.0,60.0
725,77.0,96,188,0.0,77.0
726,65.0,0,92,2.0,60.0
727,69.0,0,92,1.0,60.0
728,74.0,96,96,3.0,93.0
729,76.0,0,96,3.0,93.0
730,76.0,0,192,0.0,77.0
731,74.0,96,96,3.0,93.0
732,67.0,96,288,2.0,60.0
733,67.0,0,288,1.0,60.0
734,73.0,0,96,3.0,93.0
735,57.0,0,92,2.0,60.0
736,77.0,96,188,0.0,77.0
737,65.0,0,92,1.0,60.0
738,74.0,96,96,3.0,93.0
739,79.0,96,96,3.0,93.0
740,79.0,0,192,0.0,77.0
741,81.0,96,96,3.0,93.0
742,64.0,0,288,1.0,60.0
743,58.0,0,288,2.0,60.0
744,65.0,96,92,1.0,60.0
745,76.0,96,188,0.0,77.0
746,55.0,0,92,2.0,60.0
747,82.0,0,284,3.0,93.0
748,74.0,0,192,0.0,77.0
749,80.0,96,96,3.0,93.0
750,57.0,0,320,2.0,60.0
751,64.0,96,320,1.0,60.0
752,73.0,96,188,0.0,77.0
753,81.0,0,188,3.0,93.0
754,71.0,192,192,0.0,77.0
755,69.0,192,188,0.0,77.0
756,69.0,192,320,0.0,77.0
757,62.0,0,384,2.0,60.0
758,65.0,384,0,1.0,60.0
759,81.0,384,624,3.0,93.0
760,82.0,240,48,3.0,93.0
761,81.0,48,48,3.0,93.0
762,79.0,48,44,3.0,93.0
763,62.0,48,0,2.0,60.0
764,81.0,0,288,3.0,93.0
765,65.0,0,320,1.0,60.0
766,86.0,288,92,3.0,93.0
767,77.0,0,1152,0.0,77.0
768,77.0,0,192,0.0,77.0
769,76.0,192,192,0.0,77.0
770,62.0,192,0,1.0,60.0
771,59.0,0,0,2.0,60.0
772,77.0,0,320,0.0,77.0
773,62.0,384,0,1.0,60.0
774,59.0,0,0,2.0,60.0
775,67.0,0,320,0.0,77.0
776,79.0,0,1244,3.0,93.0
777,81.0,96,96,3.0,93.0
778,79.0,96,96,3.0,93.0
779,69.0,384,320,1.0,60.0
780,61.0,0,320,2.0,60.0
781,77.0,96,96,3.0,93.0
782,76.0,0,96,3.0,93.0
783,74.0,96,96,3.0,93.0
784,73.0,96,96,3.0,93.0
785,69.0,0,320,1.0,60.0
786,61.0,96,320,2.0,60.0
787,70.0,96,96,3.0,93.0
788,69.0,96,96,3.0,93.0
789,67.0,96,96,3.0,93.0
790,65.0,96,96,3.0,93.0
791,69.0,0,320,1.0,60.0
792,61.0,0,320,2.0,60.0
793,64.0,96,92,3.0,93.0
794,65.0,0,96,3.0,93.0
795,76.0,0,1340,0.0,77.0
796,69.0,96,96,3.0,93.0
797,70.0,0,96,3.0,93.0
798,69.0,0,320,1.0,60.0
799,62.0,96,320,2.0,60.0
800,74.0,96,188,0.0,77.0
801,73.0,96,96,3.0,93.0
802,74.0,0,96,3.0,93.0
803,74.0,96,188,0.0,77.0
804,76.0,96,96,3.0,93.0
805,77.0,96,96,3.0,93.0
806,62.0,0,320,2.0,60.0
807,65.0,0,320,1.0,60.0
808,72.0,0,188,0.0,77.0
809,80.0,96,92,3.0,93.0
810,72.0,0,96,0.0,77.0
811,81.0,0,96,3.0,93.0
812,80.0,96,92,3.0,93.0
813,74.0,0,92,0.0,77.0
814,83.0,0,96,3.0,93.0
815,65.0,0,320,1.0,60.0
816,62.0,96,320,2.0,60.0
817,71.0,96,188,0.0,77.0
818,81.0,96,92,3.0,93.0
819,63.0,0,320,2.0,60.0
820,66.0,0,320,1.0,60.0
821,66.0,384,320,1.0,60.0
822,63.0,0,320,2.0,60.0
823,63.0,0,320,2.0,60.0
824,66.0,384,320,1.0,60.0
825,81.0,0,1344,3.0,93.0
826,72.0,96,1344,0.0,77.0
827,64.0,0,320,1.0,60.0
828,64.0,384,320,2.0,60.0
829,80.0,192,188,3.0,93.0
830,71.0,0,192,0.0,77.0
831,71.0,0,192,0.0,77.0
832,80.0,192,192,3.0,93.0
833,64.0,0,320,2.0,60.0
834,64.0,0,320,1.0,60.0
835,81.0,192,188,3.0,93.0
836,72.0,0,192,0.0,77.0
837,64.0,0,320,1.0,60.0
838,64.0,0,320,2.0,60.0
839,83.0,0,572,3.0,93.0
840,74.0,192,576,0.0,77.0
841,72.0,0,96,0.0,77.0
842,81.0,192,96,3.0,93.0
843,64.0,384,320,2.0,60.0
844,64.0,0,320,1.0,60.0
845,71.0,96,96,0.0,77.0
846,80.0,0,96,3.0,93.0
847,81.0,0,96,3.0,93.0
848,83.0,96,96,3.0,93.0
849,72.0,96,192,0.0,77.0
850,76.0,0,96,0.0,77.0
851,84.0,96,96,3.0,93.0
852,64.0,0,320,1.0,60.0
853,64.0,0,320,2.0,60.0
854,86.0,96,96,3.0,93.0
855,74.0,0,96,0.0,77.0
856,84.0,0,96,3.0,93.0
857,83.0,96,96,3.0,93.0
858,81.0,96,96,3.0,93.0
859,64.0,0,320,1.0,60.0
860,64.0,0,320,2.0,60.0
861,80.0,96,92,3.0,93.0
862,76.0,96,576,0.0,77.0
863,74.0,192,96,0.0,77.0
864,65.0,0,288,1.0,60.0
865,65.0,0,288,2.0,60.0
866,64.0,96,92,1.0,60.0
867,64.0,0,92,2.0,60.0
868,73.0,0,96,0.0,77.0
869,74.0,0,96,0.0,77.0
870,81.0,96,480,3.0,93.0
871,69.0,96,96,0.0,77.0
872,79.0,0,96,3.0,93.0
873,74.0,96,96,0.0,77.0
874,62.0,96,288,2.0,60.0
875,77.0,0,96,3.0,93.0
876,62.0,0,288,1.0,60.0
877,60.0,0,92,1.0,60.0
878,60.0,0,92,2.0,60.0
879,76.0,0,96,3.0,93.0
880,76.0,96,96,0.0,77.0
881,74.0,96,96,3.0,93.0
882,73.0,96,96,3.0,93.0
883,58.0,0,288,2.0,60.0
884,58.0,0,288,1.0,60.0
885,57.0,96,92,2.0,60.0
886,57.0,0,92,1.0,60.0
887,77.0,0,576,0.0,77.0
888,59.0,96,320,1.0,60.0
889,74.0,96,512,3.0,93.0
890,56.0,0,320,2.0,60.0
891,76.0,192,188,0.0,77.0
892,77.0,192,320,0.0,77.0
893,69.0,576,188,0.0,77.0
894,68.0,0,188,0.0,77.0
895,77.0,96,96,3.0,93.0
896,76.0,96,96,3.0,93.0
897,71.0,0,188,0.0,77.0
898,64.0,192,384,2.0,60.0
899,74.0,96,96,3.0,93.0
900,71.0,0,384,1.0,60.0
901,83.0,96,96,3.0,93.0
902,76.0,0,188,0.0,77.0
903,80.0,96,96,3.0,93.0
904,77.0,0,96,3.0,93.0
905,74.0,96,188,0.0,77.0
906,64.0,0,384,2.0,60.0
907,76.0,96,96,3.0,93.0
908,68.0,0,0,1.0,60.0
909,74.0,0,96,3.0,93.0
910,74.0,96,188,0.0,77.0
911,71.0,96,96,3.0,93.0
912,64.0,0,320,2.0,60.0
913,73.0,0,188,0.0,77.0
914,73.0,96,284,3.0,93.0
915,71.0,96,92,3.0,93.0
916,73.0,96,96,3.0,93.0
917,64.0,0,0,2.0,60.0
918,76.0,96,96,3.0,93.0
919,69.0,0,0,1.0,60.0
920,81.0,96,96,3.0,93.0
921,79.0,96,96,3.0,93.0
922,78.0,96,96,3.0,93.0
923,64.0,96,0,2.0,60.0
924,76.0,96,96,3.0,93.0
925,73.0,192,768,0.0,77.0
926,75.0,0,96,3.0,93.0
927,71.0,96,96,3.0,93.0
928,69.0,0,320,1.0,60.0
929,72.0,96,284,3.0,93.0
930,72.0,0,576,0.0,77.0
931,71.0,96,96,3.0,93.0
932,72.0,0,96,3.0,93.0
933,69.0,0,320,1.0,60.0
934,63.0,192,320,2.0,60.0
935,78.0,96,192,0.0,77.0
936,75.0,96,96,3.0,93.0
937,78.0,0,96,3.0,93.0
938,75.0,96,192,0.0,77.0
939,80.0,96,96,3.0,93.0
940,81.0,0,96,3.0,93.0
941,69.0,0,320,1.0,60.0
942,63.0,0,320,2.0,60.0
943,72.0,96,192,0.0,77.0
944,83.0,96,96,3.0,93.0
945,84.0,0,96,3.0,93.0
946,71.0,96,192,0.0,77.0
947,81.0,96,96,3.0,93.0
948,66.0,0,320,1.0,60.0
949,63.0,0,320,2.0,60.0
950,69.0,0,384,0.0,77.0
951,83.0,96,512,3.0,93.0
952,62.0,0,320,2.0,60.0
953,64.0,192,320,1.0,60.0
954,68.0,192,188,0.0,77.0
955,68.0,192,320,0.0,77.0
956,68.0,0,188,3.0,93.0
957,71.0,576,188,0.0,77.0
958,62.0,0,188,2.0,60.0
959,62.0,0,188,1.0,60.0
960,76.0,0,188,0.0,77.0
961,60.0,0,288,1.0,60.0
962,77.0,192,96,0.0,77.0
963,60.0,192,288,2.0,60.0
964,69.0,0,288,3.0,93.0
965,57.0,96,92,1.0,60.0
966,76.0,0,92,0.0,77.0
967,72.0,0,92,3.0,93.0
968,57.0,0,92,2.0,60.0
969,74.0,0,96,0.0,77.0
970,72.0,96,92,0.0,77.0
971,65.0,96,288,2.0,60.0
972,71.0,0,288,3.0,93.0
973,65.0,0,288,1.0,60.0
974,71.0,96,96,0.0,77.0
975,72.0,0,92,3.0,93.0
976,62.0,0,92,1.0,60.0
977,69.0,96,92,0.0,77.0
978,62.0,0,92,2.0,60.0
979,72.0,0,188,0.0,77.0
980,64.0,96,284,1.0,60.0
981,64.0,0,284,2.0,60.0
982,68.0,0,288,3.0,93.0
983,71.0,192,188,0.0,77.0
984,64.0,0,92,1.0,60.0
985,64.0,96,92,2.0,60.0
986,69.0,0,92,3.0,93.0
987,69.0,96,188,0.0,77.0
988,53.0,0,288,2.0,60.0
989,53.0,0,288,1.0,60.0
990,69.0,0,288,3.0,93.0
991,65.0,0,92,2.0,60.0
992,65.0,0,92,1.0,60.0
993,71.0,288,92,3.0,93.0
994,79.0,0,188,0.0,77.0
995,73.0,0,288,3.0,93.0
996,64.0,0,288,1.0,60.0
997,64.0,96,288,2.0,60.0
998,74.0,0,92,3.0,93.0
999,62.0,288,92,1.0,60.0
1000,62.0,0,92,2.0,60.0
1001,61.0,96,288,2.0,60.0
1002,76.0,192,96,0.0,77.0
1003,76.0,0,288,3.0,93.0
1004,61.0,0,288,1.0,60.0
1005,77.0,0,48,0.0,77.0
1006,57.0,0,92,1.0,60.0
1007,79.0,48,44,0.0,77.0
1008,57.0,96,92,2.0,60.0
1009,73.0,0,92,3.0,93.0
1010,79.0,0,96,0.0,77.0
1011,77.0,96,92,0.0,77.0
1012,62.0,48,288,2.0,60.0
1013,62.0,0,288,1.0,60.0
1014,76.0,96,96,0.0,77.0
1015,74.0,0,288,3.0,93.0
1016,59.0,96,92,1.0,60.0
1017,59.0,0,92,2.0,60.0
1018,74.0,0,92,0.0,77.0
1019,68.0,0,92,3.0,93.0
1020,76.0,0,188,0.0,77.0
1021,60.0,0,284,2.0,60.0
1022,60.0,0,284,1.0,60.0
1023,69.0,96,288,3.0,93.0
1024,62.0,96,92,2.0,60.0
1025,71.0,0,92,3.0,93.0
1026,69.0,192,188,0.0,77.0
1027,62.0,0,92,1.0,60.0
1028,64.0,0,188,0.0,77.0
1029,68.0,0,288,3.0,93.0
1030,64.0,0,288,2.0,60.0
1031,64.0,96,288,1.0,60.0
1032,72.0,192,188,0.0,77.0
1033,64.0,0,92,2.0,60.0
1034,64.0,96,92,1.0,60.0
1035,69.0,0,92,3.0,93.0
1036,57.0,96,288,1.0,60.0
1037,57.0,0,288,2.0,60.0
1038,69.0,0,320,3.0,93.0
1039,69.0,0,320,0.0,77.0
1040,65.0,288,92,1.0,60.0
1041,65.0,0,92,2.0,60.0
1042,64.0,96,288,2.0,60.0
1043,64.0,0,288,1.0,60.0
1044,62.0,0,92,2.0,60.0
1045,65.0,288,92,1.0,60.0
1046,60.0,0,288,2.0,60.0
1047,64.0,96,288,1.0,60.0
1048,62.0,0,92,1.0,60.0
1049,59.0,288,92,2.0,60.0
1050,69.0,0,384,3.0,93.0
1051,60.0,96,320,1.0,60.0
1052,57.0,0,320,2.0,60.0
1053,76.0,0,620,3.0,93.0
1054,77.0,240,44,3.0,93.0
1055,72.0,384,320,1.0,60.0
1056,69.0,0,320,2.0,60.0
1057,76.0,48,44,3.0,93.0
1058,74.0,48,44,3.0,93.0
1059,76.0,0,288,3.0,93.0
1060,69.0,0,320,2.0,60.0
1061,72.0,48,320,1.0,60.0
1062,84.0,288,92,3.0,93.0
1063,69.0,96,320,2.0,60.0
1064,71.0,0,320,1.0,60.0
1065,74.0,0,672,3.0,93.0
1066,71.0,384,320,1.0,60.0
1067,69.0,0,320,2.0,60.0
1068,83.0,384,320,3.0,93.0
1069,74.0,0,320,1.0,60.0
1070,69.0,0,320,2.0,60.0
1071,83.0,0,96,3.0,93.0
1072,84.0,96,96,3.0,93.0
1073,83.0,96,96,3.0,93.0
1074,74.0,384,320,1.0,60.0
1075,68.0,0,320,2.0,60.0
1076,81.0,96,92,3.0,93.0
1077,83.0,0,96,3.0,93.0
1078,81.0,96,96,3.0,93.0
1079,80.0,96,96,3.0,93.0
1080,74.0,96,320,1.0,60.0
1081,68.0,0,320,2.0,60.0
1082,78.0,96,96,3.0,93.0
1083,76.0,0,96,3.0,93.0
1084,74.0,96,96,3.0,93.0
1085,72.0,96,96,3.0,93.0
1086,68.0,0,320,2.0,60.0
1087,71.0,96,320,1.0,60.0
1088,71.0,96,92,3.0,93.0
1089,71.0,0,96,3.0,93.0
1090,74.0,96,96,3.0,93.0
1091,72.0,96,96,3.0,93.0
1092,69.0,96,288,2.0,60.0
1093,69.0,0,288,1.0,60.0
1094,71.0,0,92,1.0,60.0
1095,71.0,96,92,2.0,60.0
1096,71.0,0,96,3.0,93.0
1097,76.0,0,288,1.0,60.0
1098,76.0,0,288,2.0,60.0
1099,69.0,96,320,3.0,93.0
1100,74.0,288,92,1.0,60.0
1101,74.0,0,92,2.0,60.0
1102,69.0,96,96,3.0,93.0
1103,72.0,96,288,2.0,60.0
1104,72.0,96,96,3.0,93.0
1105,72.0,0,288,1.0,60.0
1106,72.0,96,92,2.0,60.0
1107,76.0,0,92,3.0,93.0
1108,71.0,0,92,1.0,60.0
1109,77.0,0,96,3.0,93.0
1110,76.0,96,96,3.0,93.0
1111,77.0,96,96,3.0,93.0
1112,81.0,96,96,3.0,93.0
1113,72.0,0,0,1.0,60.0
1114,69.0,96,0,2.0,60.0
1115,84.0,0,96,3.0,93.0
1116,83.0,96,96,3.0,93.0
1117,81.0,96,96,3.0,93.0
1118,79.0,96,96,3.0,93.0
1119,77.0,0,96,3.0,93.0
1120,76.0,96,96,3.0,93.0
1121,72.0,96,320,1.0,60.0
1122,69.0,0,320,2.0,60.0
1123,77.0,96,284,3.0,93.0
1124,75.0,96,96,3.0,93.0
1125,76.0,96,96,3.0,93.0
1126,79.0,96,96,3.0,93.0
1127,71.0,0,0,1.0,60.0
1128,67.0,0,0,2.0,60.0
1129,83.0,96,96,3.0,93.0
1130,81.0,96,96,3.0,93.0
1131,79.0,96,96,3.0,93.0
1132,77.0,96,96,3.0,93.0
1133,67.0,0,0,2.0,60.0
1134,76.0,96,96,3.0,93.0
1135,74.0,96,96,3.0,93.0
1136,70.0,0,320,1.0,60.0
1137,76.0,96,284,3.0,93.0
1138,73.0,96,96,3.0,93.0
1139,74.0,96,96,3.0,93.0
1140,65.0,96,0,2.0,60.0
1141,69.0,0,0,1.0,60.0
1142,77.0,96,96,3.0,93.0
1143,81.0,0,96,3.0,93.0
1144,79.0,96,96,3.0,93.0
1145,77.0,96,96,3.0,93.0
1146,65.0,96,0,2.0,60.0
1147,76.0,96,96,3.0,93.0
1148,69.0,0,0,1.0,60.0
1149,74.0,0,96,3.0,93.0
1150,73.0,96,96,3.0,93.0
1151,74.0,96,284,3.0,93.0
1152,77.0,96,96,3.0,93.0
1153,76.0,96,96,3.0,93.0
1154,68.0,192,384,1.0,60.0
1155,64.0,0,384,2.0,60.0
1156,74.0,96,96,3.0,93.0
1157,83.0,0,96,3.0,93.0
1158,80.0,96,96,3.0,93.0
1159,77.0,96,96,3.0,93.0
1160,68.0,0,384,1.0,60.0
1161,64.0,0,0,2.0,60.0
1162,76.0,96,96,3.0,93.0
1163,74.0,0,96,3.0,93.0
1164,71.0,96,96,3.0,93.0
1165,68.0,96,320,1.0,60.0
1166,73.0,96,284,3.0,93.0
1167,71.0,96,96,3.0,93.0
1168,73.0,96,96,3.0,93.0
1169,64.0,192,320,2.0,60.0
1170,69.0,0,320,1.0,60.0
1171,76.0,96,96,3.0,93.0
1172,81.0,0,96,3.0,93.0
1173,79.0,96,96,3.0,93.0
1174,78.0,96,96,3.0,93.0
1175,64.0,0,320,2.0,60.0
1176,69.0,96,320,1.0,60.0
1177,76.0,96,96,3.0,93.0
1178,75.0,96,96,3.0,93.0
1179,71.0,96,96,3.0,93.0
1180,69.0,0,320,1.0,60.0
1181,64.0,0,320,2.0,60.0
1182,72.0,96,284,3.0,93.0
1183,71.0,96,96,3.0,93.0
1184,72.0,96,96,3.0,93.0
1185,63.0,0,320,2.0,60.0
1186,69.0,192,320,1.0,60.0
1187,75.0,96,96,3.0,93.0
1188,78.0,0,96,3.0,93.0
1189,80.0,96,96,3.0,93.0
1190,81.0,96,96,3.0,93.0
1191,63.0,96,320,2.0,60.0
1192,69.0,0,320,1.0,60.0
1193,83.0,96,96,3.0,93.0
1194,84.0,0,96,3.0,93.0
1195,81.0,96,96,3.0,93.0
1196,63.0,96,320,2.0,60.0
1197,69.0,0,320,1.0,60.0
1198,68.0,192,320,1.0,60.0
1199,62.0,0,320,2.0,60.0
1200,83.0,96,668,3.0,93.0
1201,77.0,480,96,3.0,93.0
1202,76.0,96,96,3.0,93.0
1203,74.0,96,96,3.0,93.0
1204,76.0,96,96,3.0,93.0
1205,71.0,96,96,3.0,93.0
1206,72.0,96,96,3.0,93.0
1207,68.0,96,92,3.0,93.0
1208,72.0,48,44,3.0,93.0
1209,75.0,48,44,3.0,93.0
1210,78.0,48,44,3.0,93.0
1211,60.0,0,284,2.0,60.0
1212,69.0,96,284,1.0,60.0
1213,71.0,96,92,1.0,60.0
1214,62.0,0,92,2.0,60.0
1215,81.0,48,284,3.0,93.0
1216,80.0,96,44,3.0,93.0
1217,78.0,48,44,3.0,93.0
1218,76.0,48,92,3.0,93.0
1219,72.0,96,288,1.0,60.0
1220,64.0,0,320,2.0,60.0
1221,69.0,96,92,1.0,60.0
1222,84.0,0,188,3.0,93.0
1223,83.0,96,44,3.0,93.0
1224,81.0,48,44,3.0,93.0
1225,80.0,48,92,3.0,93.0
1226,74.0,0,288,1.0,60.0
1227,64.0,96,320,2.0,60.0
1228,71.0,96,92,1.0,60.0
1229,81.0,0,92,3.0,93.0
1230,81.0,0,284,3.0,93.0
1231,69.0,0,320,2.0,60.0
1232,72.0,96,320,1.0,60.0
