,note,step,duration,channel,velocity
0,58.0,1024,384,3.0,0.0
1,55.0,0,384,3.0,0.0
2,55.0,0,384,1.0,0.0
3,54.0,640,384,1.0,0.0
4,57.0,0,384,3.0,0.0
5,54.0,0,384,3.0,0.0
6,62.0,256,512,0.0,0.0
7,55.0,0,384,1.0,0.0
8,58.0,0,384,3.0,0.0
9,70.0,128,256,0.0,0.0
10,55.0,128,384,3.0,0.0
11,67.0,896,256,0.0,0.0
12,60.0,358,922,0.0,0.0
13,55.0,0,384,3.0,0.0
14,52.0,0,384,3.0,0.0
15,52.0,26,384,1.0,0.0
16,67.0,256,256,0.0,0.0
17,70.0,256,256,0.0,0.0
18,69.0,128,256,0.0,0.0
19,54.0,128,384,3.0,0.0
20,54.0,0,384,1.0,0.0
21,60.0,0,384,3.0,0.0
22,66.0,896,256,0.0,0.0
23,72.0,358,922,0.0,0.0
24,50.0,0,384,3.0,0.0
25,62.0,0,384,3.0,0.0
26,50.0,26,384,1.0,0.0
27,54.0,0,384,3.0,0.0
28,70.0,256,256,0.0,0.0
29,69.0,256,256,0.0,0.0
30,55.0,0,384,1.0,0.0
31,62.0,128,384,3.0,0.0
32,55.0,0,384,3.0,0.0
33,70.0,128,256,0.0,0.0
34,67.0,896,256,0.0,0.0
35,68.0,614,922,0.0,0.0
36,48.0,0,384,1.0,0.0
37,48.0,0,384,3.0,0.0
38,51.0,26,384,3.0,0.0
39,67.0,384,512,0.0,0.0
40,50.0,128,384,3.0,0.0
41,57.0,0,384,3.0,0.0
42,66.0,512,512,0.0,0.0
43,50.0,0,384,1.0,0.0
44,64.0,384,512,0.0,0.0
45,62.0,0,384,0.0,0.0
46,54.0,640,384,1.0,0.0
47,54.0,0,384,3.0,0.0
48,57.0,0,384,3.0,0.0
49,69.0,384,512,0.0,0.0
50,62.0,0,384,3.0,0.0
51,55.0,640,384,3.0,0.0
52,55.0,0,384,1.0,0.0
53,70.0,0,384,0.0,0.0
54,66.0,384,512,0.0,0.0
55,58.0,0,384,3.0,0.0
56,62.0,0,384,3.0,0.0
57,67.0,0,384,0.0,0.0
58,58.0,640,384,1.0,0.0
59,62.0,384,512,0.0,0.0
60,57.0,0,384,1.0,0.0
61,61.0,0,384,0.0,0.0
62,57.0,0,384,3.0,0.0
63,61.0,640,384,3.0,0.0
64,70.0,384,512,0.0,0.0
65,55.0,0,384,3.0,0.0
66,64.0,0,384,3.0,0.0
67,69.0,0,384,0.0,0.0
68,61.0,0,384,3.0,0.0
69,55.0,640,384,1.0,0.0
70,73.0,384,512,0.0,0.0
71,53.0,0,384,1.0,0.0
72,65.0,102,922,3.0,0.0
73,53.0,0,384,3.0,0.0
74,57.0,0,384,3.0,0.0
75,74.0,512,384,0.0,0.0
76,69.0,128,512,0.0,0.0
77,50.0,0,384,1.0,0.0
78,50.0,26,384,3.0,0.0
79,67.0,128,128,0.0,0.0
80,57.0,0,384,3.0,0.0
81,62.0,256,512,3.0,0.0
82,57.0,0,384,1.0,0.0
83,65.0,64,128,0.0,0.0
84,67.0,64,64,0.0,0.0
85,65.0,64,64,0.0,0.0
86,67.0,64,64,0.0,0.0
87,65.0,0,64,0.0,0.0
88,64.0,128,256,0.0,0.0
89,45.0,0,384,1.0,0.0
90,45.0,0,384,3.0,0.0
91,55.0,128,384,3.0,0.0
92,61.0,0,512,3.0,0.0
93,62.0,512,256,0.0,0.0
94,50.0,0,512,3.0,0.0
95,62.0,102,922,0.0,0.0
96,50.0,410,512,1.0,0.0
97,53.0,0,512,3.0,0.0
98,62.0,0,1024,3.0,0.0
99,55.0,512,512,3.0,0.0
100,52.0,0,512,1.0,0.0
101,52.0,0,512,3.0,0.0
102,53.0,0,512,1.0,0.0
103,53.0,0,512,3.0,0.0
104,57.0,512,512,3.0,0.0
105,56.0,256,512,1.0,0.0
106,72.0,0,512,0.0,0.0
107,56.0,0,512,3.0,0.0
108,62.0,0,384,3.0,0.0
109,55.0,0,384,3.0,0.0
110,71.0,128,256,0.0,0.0
111,55.0,128,384,1.0,0.0
112,74.0,896,256,0.0,0.0
113,77.0,358,922,0.0,0.0
114,50.0,26,384,3.0,0.0
115,47.0,0,384,1.0,0.0
116,47.0,0,384,3.0,0.0
117,55.0,0,384,3.0,0.0
118,75.0,256,256,0.0,0.0
119,74.0,256,256,0.0,0.0
120,48.0,0,384,3.0,0.0
121,55.0,0,384,3.0,0.0
122,75.0,128,256,0.0,0.0
123,48.0,128,384,1.0,0.0
124,72.0,896,256,0.0,0.0
125,69.0,614,922,0.0,0.0
126,60.0,26,384,3.0,0.0
127,51.0,0,384,3.0,0.0
128,51.0,0,384,1.0,0.0
129,67.0,256,512,0.0,0.0
130,50.0,0,384,1.0,0.0
131,57.0,128,384,3.0,0.0
132,50.0,0,384,3.0,0.0
133,60.0,0,384,3.0,0.0
134,66.0,128,256,0.0,0.0
135,69.0,896,256,0.0,0.0
136,72.0,358,922,0.0,0.0
137,54.0,0,384,3.0,0.0
138,63.0,0,384,3.0,0.0
139,54.0,26,384,1.0,0.0
140,57.0,0,384,3.0,0.0
141,70.0,256,256,0.0,0.0
142,69.0,256,256,0.0,0.0
143,55.0,128,384,3.0,0.0
144,55.0,0,384,1.0,0.0
145,62.0,0,384,3.0,0.0
146,70.0,128,256,0.0,0.0
147,67.0,896,256,0.0,0.0
148,61.0,614,922,0.0,0.0
149,46.0,0,384,3.0,0.0
150,55.0,0,384,3.0,0.0
151,58.0,26,384,1.0,0.0
152,62.0,256,512,0.0,0.0
153,49.0,128,384,3.0,0.0
154,52.0,0,384,3.0,0.0
155,64.0,128,256,0.0,0.0
156,49.0,0,384,1.0,0.0
157,67.0,896,256,0.0,0.0
158,70.0,358,922,0.0,0.0
159,49.0,0,384,3.0,0.0
160,45.0,0,384,3.0,0.0
161,55.0,26,384,3.0,0.0
162,45.0,0,384,1.0,0.0
163,69.0,256,256,0.0,0.0
164,67.0,256,256,0.0,0.0
165,57.0,0,384,3.0,0.0
166,50.0,128,384,1.0,0.0
167,50.0,0,384,3.0,0.0
168,66.0,128,256,0.0,0.0
169,69.0,896,256,0.0,0.0
170,75.0,358,922,0.0,0.0
171,54.0,0,384,3.0,0.0
172,60.0,0,384,3.0,0.0
173,57.0,0,384,3.0,0.0
174,54.0,26,384,1.0,0.0
175,74.0,256,256,0.0,0.0
176,72.0,384,256,0.0,0.0
177,70.0,256,512,0.0,0.0
178,55.0,0,384,1.0,0.0
179,55.0,128,384,3.0,0.0
180,62.0,0,922,3.0,0.0
181,67.0,102,922,3.0,0.0
182,58.0,0,922,3.0,0.0
183,58.0,26,384,1.0,0.0
184,46.0,0,384,3.0,0.0
185,69.0,128,256,0.0,0.0
186,67.0,384,256,0.0,0.0
187,55.0,0,384,3.0,0.0
188,58.0,0,384,3.0,0.0
189,50.0,0,384,3.0,0.0
190,62.0,0,512,0.0,0.0
191,62.0,384,512,3.0,0.0
192,62.0,128,384,1.0,0.0
193,38.0,0,384,3.0,0.0
194,60.0,0,512,3.0,0.0
195,50.0,0,384,1.0,0.0
196,54.0,128,384,3.0,0.0
197,66.0,384,512,0.0,0.0
198,57.0,0,384,3.0,0.0
199,74.0,384,512,2.0,0.0
200,67.0,0,922,0.0,0.0
201,55.0,0,384,3.0,0.0
202,55.0,0,384,1.0,0.0
203,58.0,0,922,3.0,0.0
204,62.0,486,922,3.0,0.0
205,43.0,128,384,3.0,0.0
206,72.0,26,384,2.0,0.0
207,54.0,0,384,3.0,0.0
208,62.0,0,384,3.0,0.0
209,54.0,128,384,1.0,0.0
210,69.0,384,512,2.0,0.0
211,70.0,512,384,2.0,0.0
212,70.0,384,2560,2.0,0.0
213,67.0,384,512,0.0,0.0
214,55.0,128,384,3.0,0.0
215,55.0,0,384,1.0,0.0
216,65.0,512,384,0.0,0.0
217,43.0,0,384,1.0,0.0
218,62.0,384,512,0.0,0.0
219,55.0,128,384,3.0,0.0
220,43.0,0,384,3.0,0.0
221,63.0,512,384,0.0,0.0
222,48.0,0,384,3.0,0.0
223,48.0,0,384,1.0,0.0
224,55.0,128,384,3.0,0.0
225,63.0,384,2560,0.0,0.0
226,69.0,512,384,2.0,0.0
227,66.0,384,512,2.0,0.0
228,45.0,0,384,1.0,0.0
229,45.0,128,384,3.0,0.0
230,60.0,0,384,3.0,0.0
231,67.0,512,384,2.0,0.0
232,67.0,384,2560,2.0,0.0
233,47.0,0,384,1.0,0.0
234,55.0,128,384,3.0,0.0
235,47.0,0,384,3.0,0.0
236,62.0,512,384,0.0,0.0
237,53.0,128,384,3.0,0.0
238,59.0,384,512,0.0,0.0
239,53.0,0,384,1.0,0.0
240,55.0,0,384,3.0,0.0
241,60.0,512,384,0.0,0.0
242,51.0,0,384,3.0,0.0
243,55.0,128,384,3.0,0.0
244,60.0,384,2560,0.0,0.0
245,51.0,0,384,1.0,0.0
246,65.0,512,384,2.0,0.0
247,42.0,0,384,1.0,0.0
248,62.0,384,512,2.0,0.0
249,42.0,128,384,3.0,0.0
250,57.0,0,384,3.0,0.0
251,63.0,512,384,2.0,0.0
252,43.0,0,384,3.0,0.0
253,55.0,0,384,3.0,0.0
254,43.0,128,384,1.0,0.0
255,63.0,384,2560,2.0,0.0
256,58.0,512,384,0.0,0.0
257,48.0,0,384,1.0,0.0
258,48.0,128,384,3.0,0.0
259,55.0,384,512,0.0,0.0
260,57.0,512,384,0.0,0.0
261,42.0,0,384,1.0,0.0
262,42.0,128,384,3.0,0.0
263,57.0,486,922,0.0,0.0
264,62.0,26,384,2.0,0.0
265,62.0,384,2048,2.0,0.0
266,54.0,0,384,1.0,0.0
267,57.0,640,384,3.0,0.0
268,54.0,0,384,3.0,0.0
269,72.0,384,512,0.0,0.0
270,55.0,0,384,1.0,0.0
271,70.0,384,512,0.0,0.0
272,55.0,128,384,3.0,0.0
273,67.0,128,384,0.0,0.0
274,51.0,128,384,1.0,0.0
275,51.0,0,384,3.0,0.0
276,66.0,384,512,0.0,0.0
277,60.0,384,1024,2.0,0.0
278,67.0,128,384,0.0,0.0
279,62.0,0,1024,2.0,0.0
280,50.0,0,384,3.0,0.0
281,50.0,128,384,1.0,0.0
282,62.0,384,512,3.0,0.0
283,66.0,102,922,0.0,0.0
284,48.0,26,384,1.0,0.0
285,48.0,0,384,3.0,0.0
286,57.0,384,512,3.0,0.0
287,50.0,0,1408,3.0,0.0
288,46.0,512,384,3.0,0.0
289,62.0,0,384,3.0,0.0
290,46.0,0,384,1.0,0.0
291,60.0,0,512,3.0,0.0
292,62.0,256,512,2.0,0.0
293,42.0,128,384,1.0,0.0
294,42.0,0,384,3.0,0.0
295,58.0,0,384,3.0,0.0
296,43.0,0,384,3.0,0.0
297,43.0,128,384,1.0,0.0
298,70.0,128,256,2.0,0.0
299,67.0,768,256,2.0,0.0
300,60.0,0,1024,2.0,0.0
301,51.0,0,384,3.0,0.0
302,70.0,128,256,0.0,0.0
303,51.0,128,384,1.0,0.0
304,55.0,0,384,3.0,0.0
305,67.0,512,256,0.0,0.0
306,70.0,256,512,2.0,0.0
307,60.0,0,512,0.0,0.0
308,69.0,128,256,2.0,0.0
309,62.0,0,384,3.0,0.0
310,50.0,0,384,3.0,0.0
311,42.0,128,384,1.0,0.0
312,42.0,0,384,3.0,0.0
313,57.0,0,384,3.0,0.0
314,66.0,512,256,2.0,0.0
315,72.0,256,512,2.0,0.0
316,62.0,0,384,3.0,0.0
317,69.0,128,256,0.0,0.0
318,38.0,0,384,3.0,0.0
319,38.0,0,384,1.0,0.0
320,50.0,128,384,3.0,0.0
321,66.0,384,256,0.0,0.0
322,72.0,128,384,0.0,0.0
323,62.0,256,512,2.0,0.0
324,70.0,128,256,2.0,0.0
325,55.0,0,384,3.0,0.0
326,43.0,0,384,3.0,0.0
327,43.0,0,384,1.0,0.0
328,58.0,0,384,3.0,0.0
329,62.0,128,384,3.0,0.0
330,67.0,768,256,2.0,0.0
331,68.0,102,922,2.0,0.0
332,48.0,26,384,1.0,0.0
333,63.0,128,256,0.0,0.0
334,48.0,0,384,3.0,0.0
335,51.0,0,384,3.0,0.0
336,60.0,384,256,0.0,0.0
337,67.0,384,512,2.0,0.0
338,67.0,0,512,3.0,0.0
339,57.0,128,384,0.0,0.0
340,57.0,0,384,3.0,0.0
341,66.0,0,384,3.0,0.0
342,50.0,128,384,3.0,0.0
343,50.0,0,384,1.0,0.0
344,66.0,512,512,2.0,0.0
345,64.0,384,512,2.0,0.0
346,69.0,0,384,3.0,0.0
347,62.0,640,384,2.0,0.0
348,54.0,0,384,3.0,0.0
349,62.0,0,384,3.0,0.0
350,54.0,0,384,1.0,0.0
351,69.0,384,512,2.0,0.0
352,55.0,0,384,3.0,0.0
353,62.0,0,384,3.0,0.0
354,55.0,640,384,1.0,0.0
355,70.0,0,384,3.0,0.0
356,70.0,0,384,2.0,0.0
357,66.0,384,512,2.0,0.0
358,67.0,256,2560,2.0,0.0
359,67.0,0,384,3.0,0.0
360,58.0,0,384,3.0,0.0
361,62.0,640,384,3.0,0.0
362,58.0,0,384,1.0,0.0
363,62.0,384,512,0.0,0.0
364,67.0,0,512,3.0,0.0
365,57.0,0,384,1.0,0.0
366,57.0,0,384,3.0,0.0
367,61.0,512,512,3.0,0.0
368,61.0,128,384,0.0,0.0
369,70.0,384,512,0.0,0.0
370,69.0,128,384,0.0,0.0
371,52.0,0,512,1.0,0.0
372,67.0,0,512,3.0,0.0
373,73.0,0,512,3.0,0.0
374,52.0,0,512,3.0,0.0
375,73.0,256,512,0.0,0.0
376,69.0,256,256,2.0,0.0
377,70.0,0,256,2.0,0.0
378,53.0,0,384,1.0,0.0
379,69.0,128,256,2.0,0.0
380,74.0,0,384,3.0,0.0
381,69.0,0,384,3.0,0.0
382,53.0,0,384,3.0,0.0
383,74.0,128,384,0.0,0.0
384,65.0,256,256,2.0,0.0
385,55.0,0,384,3.0,0.0
386,70.0,0,512,3.0,0.0
387,64.0,384,512,3.0,0.0
388,64.0,128,256,2.0,0.0
389,55.0,128,384,1.0,0.0
390,62.0,0,512,3.0,0.0
391,62.0,0,256,2.0,0.0
392,65.0,384,512,2.0,0.0
393,57.0,128,384,1.0,0.0
394,65.0,0,384,3.0,0.0
395,69.0,0,384,3.0,0.0
396,57.0,0,384,3.0,0.0
397,62.0,0,384,3.0,0.0
398,45.0,0,384,1.0,0.0
399,45.0,128,384,3.0,0.0
400,64.0,384,512,3.0,0.0
401,64.0,0,512,2.0,0.0
402,61.0,0,512,3.0,0.0
403,67.0,0,512,3.0,0.0
404,62.0,640,384,2.0,0.0
405,62.0,0,384,3.0,0.0
406,57.0,0,384,3.0,0.0
407,50.0,0,384,1.0,0.0
408,50.0,0,384,3.0,0.0
409,65.0,0,384,3.0,0.0
410,57.0,384,512,2.0,0.0
411,53.0,0,384,1.0,0.0
412,62.0,512,512,2.0,0.0
413,57.0,0,384,3.0,0.0
414,62.0,0,384,3.0,0.0
415,53.0,128,384,3.0,0.0
416,69.0,256,512,0.0,0.0
417,65.0,0,512,2.0,0.0
418,62.0,128,384,3.0,0.0
419,59.0,0,384,3.0,0.0
420,55.0,0,384,3.0,0.0
421,55.0,0,384,1.0,0.0
422,77.0,128,256,0.0,0.0
423,59.0,0,512,2.0,0.0
424,74.0,512,256,0.0,0.0
425,62.0,384,512,2.0,0.0
426,67.0,358,922,0.0,0.0
427,58.0,26,384,1.0,0.0
428,62.0,0,384,3.0,0.0
429,58.0,0,384,3.0,0.0
430,67.0,0,1536,2.0,0.0
431,74.0,256,256,0.0,0.0
432,77.0,256,256,0.0,0.0
433,58.0,0,384,3.0,0.0
434,49.0,0,384,3.0,0.0
435,49.0,128,384,1.0,0.0
436,76.0,128,256,0.0,0.0
437,73.0,384,256,0.0,0.0
438,64.0,512,384,2.0,0.0
439,79.0,102,922,0.0,0.0
440,45.0,0,384,3.0,0.0
441,57.0,26,384,3.0,0.0
442,52.0,0,384,3.0,0.0
443,45.0,0,384,1.0,0.0
444,62.0,256,512,2.0,0.0
445,77.0,256,256,0.0,0.0
446,61.0,0,512,2.0,0.0
447,76.0,256,256,0.0,0.0
448,62.0,0,512,2.0,0.0
449,50.0,0,384,1.0,0.0
450,77.0,128,256,0.0,0.0
451,57.0,128,384,3.0,0.0
452,50.0,0,384,3.0,0.0
453,74.0,512,256,0.0,0.0
454,70.0,384,512,2.0,0.0
455,75.0,102,922,0.0,0.0
456,46.0,26,384,1.0,0.0
457,66.0,512,512,2.0,0.0
458,55.0,0,384,3.0,0.0
459,46.0,0,384,3.0,0.0
460,74.0,0,512,0.0,0.0
461,45.0,128,384,1.0,0.0
462,55.0,0,384,3.0,0.0
463,52.0,0,384,3.0,0.0
464,67.0,384,0,2.0,0.0
465,45.0,0,384,3.0,0.0
466,73.0,512,512,0.0,0.0
467,71.0,384,512,0.0,0.0
468,49.0,128,384,1.0,0.0
469,49.0,0,384,3.0,0.0
470,52.0,0,384,3.0,0.0
471,57.0,0,384,3.0,0.0
472,69.0,0,384,0.0,0.0
473,66.0,256,256,2.0,0.0
474,64.0,256,256,2.0,0.0
475,57.0,0,384,3.0,0.0
476,54.0,0,384,3.0,0.0
477,50.0,128,384,3.0,0.0
478,66.0,128,256,2.0,0.0
479,50.0,0,384,1.0,0.0
480,69.0,512,256,2.0,0.0
481,67.0,384,512,0.0,0.0
482,72.0,256,1024,2.0,0.0
483,62.0,0,384,3.0,0.0
484,38.0,0,384,1.0,0.0
485,66.0,0,384,0.0,0.0
486,50.0,0,384,3.0,0.0
487,38.0,128,384,3.0,0.0
488,70.0,256,256,2.0,0.0
489,72.0,384,512,0.0,0.0
490,69.0,0,256,2.0,0.0
491,50.0,0,384,3.0,0.0
492,62.0,128,384,3.0,0.0
493,50.0,0,384,1.0,0.0
494,55.0,0,384,3.0,0.0
495,70.0,0,384,0.0,0.0
496,74.0,512,512,2.0,0.0
497,69.0,384,512,0.0,0.0
498,72.0,0,512,2.0,0.0
499,67.0,0,384,0.0,0.0
500,62.0,0,384,3.0,0.0
501,53.0,0,384,1.0,0.0
502,53.0,77,384,3.0,0.0
503,70.0,563,461,2.0,0.0
504,69.0,256,512,2.0,0.0
505,62.0,0,512,0.0,0.0
506,52.0,128,384,1.0,0.0
507,70.0,256,1536,2.0,0.0
508,61.0,128,256,0.0,0.0
509,52.0,0,384,3.0,0.0
510,55.0,0,384,3.0,0.0
511,61.0,0,384,3.0,0.0
512,64.0,896,256,0.0,0.0
513,67.0,102,922,0.0,0.0
514,57.0,0,384,3.0,0.0
515,52.0,0,384,3.0,0.0
516,49.0,26,384,3.0,0.0
517,49.0,0,384,1.0,0.0
518,69.0,256,256,2.0,0.0
519,65.0,0,256,0.0,0.0
520,64.0,256,256,0.0,0.0
521,67.0,0,256,2.0,0.0
522,50.0,0,384,3.0,0.0
523,65.0,512,512,2.0,0.0
524,50.0,0,384,1.0,0.0
525,57.0,128,384,3.0,0.0
526,65.0,128,256,0.0,0.0
527,62.0,0,256,0.0,0.0
528,68.0,384,512,0.0,0.0
529,64.0,0,512,2.0,0.0
530,56.0,0,384,3.0,0.0
531,47.0,0,384,1.0,0.0
532,47.0,640,384,3.0,0.0
533,62.0,0,384,2.0,0.0
534,69.0,256,512,2.0,0.0
535,68.0,128,256,2.0,0.0
536,52.0,0,384,1.0,0.0
537,56.0,0,384,3.0,0.0
538,59.0,128,384,3.0,0.0
539,52.0,0,384,3.0,0.0
540,71.0,512,256,2.0,0.0
541,62.0,256,1024,2.0,0.0
542,69.0,384,512,0.0,0.0
543,52.0,0,384,3.0,0.0
544,68.0,0,384,0.0,0.0
545,40.0,0,384,1.0,0.0
546,64.0,128,384,3.0,0.0
547,40.0,0,384,3.0,0.0
548,61.0,256,256,2.0,0.0
549,77.0,256,512,0.0,0.0
550,59.0,0,256,2.0,0.0
551,45.0,0,384,3.0,0.0
552,52.0,0,384,3.0,0.0
553,45.0,128,384,1.0,0.0
554,67.0,0,384,3.0,0.0
555,61.0,128,256,2.0,0.0
556,76.0,0,384,0.0,0.0
557,64.0,512,256,2.0,0.0
558,70.0,0,512,0.0,0.0
559,67.0,384,512,2.0,0.0
560,67.0,384,384,3.0,0.0
561,69.0,0,384,0.0,0.0
562,49.0,0,384,3.0,0.0
563,52.0,0,384,3.0,0.0
564,49.0,0,384,1.0,0.0
565,67.0,0,512,3.0,0.0
566,65.0,256,256,2.0,0.0
567,73.0,384,512,3.0,0.0
568,64.0,0,256,2.0,0.0
569,50.0,128,384,3.0,0.0
570,50.0,0,384,1.0,0.0
571,65.0,384,512,2.0,0.0
572,74.0,102,922,3.0,0.0
573,65.0,0,922,3.0,0.0
574,53.0,0,384,1.0,0.0
575,53.0,26,384,3.0,0.0
576,69.0,384,512,2.0,0.0
577,62.0,0,512,3.0,0.0
578,65.0,0,512,3.0,0.0
579,57.0,128,384,3.0,0.0
580,65.0,256,512,2.0,0.0
581,57.0,0,384,1.0,0.0
582,45.0,0,384,1.0,0.0
583,45.0,0,384,3.0,0.0
584,55.0,128,384,3.0,0.0
585,61.0,0,256,3.0,0.0
586,64.0,128,256,2.0,0.0
587,64.0,0,256,3.0,0.0
588,62.0,0,256,2.0,0.0
589,50.0,640,384,1.0,0.0
590,62.0,384,0,3.0,0.0
591,50.0,0,384,3.0,0.0
592,53.0,0,384,3.0,0.0
593,62.0,0,1024,2.0,0.0
594,49.0,640,384,3.0,0.0
595,49.0,0,384,1.0,0.0
596,52.0,0,384,3.0,0.0
597,57.0,256,512,0.0,0.0
598,65.0,128,256,0.0,0.0
599,50.0,0,384,1.0,0.0
600,50.0,128,384,3.0,0.0
601,62.0,896,256,0.0,0.0
602,55.0,358,922,0.0,0.0
603,47.0,0,384,3.0,0.0
604,55.0,0,384,3.0,0.0
605,47.0,26,384,1.0,0.0
606,62.0,256,256,0.0,0.0
607,65.0,256,256,0.0,0.0
608,49.0,0,384,1.0,0.0
609,55.0,0,384,3.0,0.0
610,64.0,128,256,0.0,0.0
611,49.0,128,384,3.0,0.0
612,61.0,896,256,0.0,0.0
613,67.0,358,922,0.0,0.0
614,49.0,0,384,3.0,0.0
615,52.0,26,384,3.0,0.0
616,57.0,0,384,3.0,0.0
617,45.0,0,384,1.0,0.0
618,45.0,0,384,3.0,0.0
619,65.0,256,256,0.0,0.0
620,64.0,256,256,0.0,0.0
621,57.0,0,384,3.0,0.0
622,50.0,128,384,1.0,0.0
623,53.0,0,384,3.0,0.0
624,50.0,0,384,3.0,0.0
625,65.0,128,256,0.0,0.0
626,62.0,896,256,0.0,0.0
627,63.0,614,922,0.0,0.0
628,51.0,0,384,3.0,0.0
629,58.0,0,384,3.0,0.0
630,43.0,0,384,1.0,0.0
631,43.0,26,384,3.0,0.0
632,62.0,384,512,0.0,0.0
633,45.0,0,384,3.0,0.0
634,45.0,128,384,1.0,0.0
635,52.0,0,384,3.0,0.0
636,61.0,512,512,0.0,0.0
637,57.0,0,384,3.0,0.0
638,59.0,384,512,0.0,0.0
639,49.0,0,384,1.0,0.0
640,57.0,0,384,0.0,0.0
641,52.0,640,384,3.0,0.0
642,49.0,0,384,3.0,0.0
643,64.0,384,512,0.0,0.0
644,57.0,0,384,3.0,0.0
645,50.0,0,384,3.0,0.0
646,50.0,640,384,1.0,0.0
647,65.0,0,384,0.0,0.0
648,61.0,384,512,0.0,0.0
649,57.0,640,384,3.0,0.0
650,53.0,0,384,3.0,0.0
651,53.0,0,384,1.0,0.0
652,62.0,0,384,0.0,0.0
653,72.0,384,512,0.0,0.0
654,55.0,0,384,3.0,0.0
655,70.0,0,384,0.0,0.0
656,62.0,640,384,3.0,0.0
657,55.0,0,384,1.0,0.0
658,66.0,384,512,0.0,0.0
659,52.0,0,384,3.0,0.0
660,61.0,640,384,3.0,0.0
661,52.0,0,384,1.0,0.0
662,67.0,0,384,0.0,0.0
663,55.0,0,384,3.0,0.0
664,73.0,384,512,0.0,0.0
665,65.0,0,922,3.0,0.0
666,74.0,0,384,0.0,0.0
667,62.0,102,922,3.0,0.0
668,53.0,512,384,3.0,0.0
669,53.0,0,384,1.0,0.0
670,50.0,0,384,1.0,0.0
671,69.0,384,512,0.0,0.0
672,50.0,26,384,3.0,0.0
673,62.0,0,512,3.0,0.0
674,65.0,256,512,3.0,0.0
675,65.0,0,512,0.0,0.0
676,57.0,0,384,1.0,0.0
677,57.0,128,384,3.0,0.0
678,64.0,0,256,0.0,0.0
679,45.0,0,384,1.0,0.0
680,61.0,128,256,3.0,0.0
681,64.0,0,256,3.0,0.0
682,45.0,128,384,3.0,0.0
683,55.0,0,384,3.0,0.0
684,62.0,0,256,0.0,0.0
685,50.0,128,384,1.0,0.0
686,53.0,0,384,3.0,0.0
687,69.0,384,512,2.0,0.0
688,62.0,486,922,0.0,0.0
689,62.0,384,0,3.0,0.0
690,50.0,0,384,3.0,0.0
691,67.0,26,384,2.0,0.0
692,64.0,384,512,2.0,0.0
693,49.0,0,384,3.0,0.0
694,57.0,0,384,3.0,0.0
695,49.0,128,384,1.0,0.0
696,64.0,0,512,3.0,0.0
697,65.0,512,384,2.0,0.0
698,57.0,0,384,3.0,0.0
699,65.0,0,512,3.0,0.0
700,50.0,128,384,3.0,0.0
701,50.0,0,384,1.0,0.0
702,65.0,410,2560,2.0,0.0
703,74.0,384,512,0.0,0.0
704,72.0,512,384,0.0,0.0
705,69.0,384,512,0.0,0.0
706,50.0,128,384,3.0,0.0
707,38.0,0,384,1.0,0.0
708,38.0,0,384,3.0,0.0
709,71.0,512,384,0.0,0.0
710,43.0,0,384,3.0,0.0
711,71.0,102,922,0.0,0.0
712,43.0,0,384,1.0,0.0
713,50.0,128,384,3.0,0.0
714,68.0,384,512,2.0,0.0
715,55.0,0,384,3.0,0.0
716,62.0,0,384,3.0,0.0
717,70.0,384,1536,0.0,0.0
718,67.0,0,384,2.0,0.0
719,55.0,640,384,1.0,0.0
720,65.0,384,512,2.0,0.0
721,48.0,0,384,1.0,0.0
722,48.0,128,384,3.0,0.0
723,64.0,0,512,2.0,0.0
724,60.0,0,384,3.0,0.0
725,66.0,384,512,2.0,0.0
726,69.0,0,512,0.0,0.0
727,60.0,128,384,1.0,0.0
728,67.0,0,512,2.0,0.0
729,62.0,0,384,3.0,0.0
730,58.0,0,384,3.0,0.0
731,58.0,128,384,1.0,0.0
732,64.0,384,512,0.0,0.0
733,57.0,128,384,1.0,0.0
734,69.0,384,512,2.0,0.0
735,57.0,0,384,3.0,0.0
736,60.0,0,384,3.0,0.0
737,66.0,0,512,0.0,0.0
738,58.0,128,384,3.0,0.0
739,55.0,0,384,3.0,0.0
740,67.0,384,512,0.0,0.0
741,55.0,0,384,1.0,0.0
742,70.0,0,512,2.0,0.0
743,69.0,512,384,2.0,0.0
744,57.0,0,384,1.0,0.0
745,60.0,0,384,3.0,0.0
746,66.0,384,512,2.0,0.0
747,57.0,128,384,3.0,0.0
748,67.0,512,384,2.0,0.0
749,67.0,512,2560,2.0,0.0
750,58.0,128,384,3.0,0.0
751,58.0,0,384,1.0,0.0
752,67.0,384,512,0.0,0.0
753,63.0,512,384,0.0,0.0
754,55.0,0,384,3.0,0.0
755,52.0,128,384,1.0,0.0
756,52.0,0,384,3.0,0.0
757,61.0,384,512,0.0,0.0
758,62.0,512,384,0.0,0.0
759,61.0,0,2048,0.0,0.0
760,57.0,128,384,1.0,0.0
761,57.0,0,384,3.0,0.0
762,70.0,384,512,2.0,0.0
763,52.0,0,384,3.0,0.0
764,45.0,128,384,1.0,0.0
765,69.0,512,512,2.0,0.0
766,57.0,0,384,3.0,0.0
767,45.0,0,384,3.0,0.0
768,67.0,384,512,2.0,0.0
769,57.0,0,384,3.0,0.0
770,62.0,102,922,0.0,0.0
771,50.0,128,384,3.0,0.0
772,66.0,384,512,2.0,0.0
773,50.0,0,384,1.0,0.0
774,57.0,0,512,3.0,0.0
775,48.0,26,384,3.0,0.0
776,64.0,384,512,2.0,0.0
777,48.0,0,384,1.0,0.0
778,62.0,384,512,3.0,0.0
779,46.0,0,384,3.0,0.0
780,46.0,128,384,1.0,0.0
781,62.0,384,1024,2.0,0.0
782,45.0,0,384,1.0,0.0
783,60.0,0,512,3.0,0.0
784,45.0,128,384,3.0,0.0
785,43.0,128,384,3.0,0.0
786,58.0,0,384,3.0,0.0
787,50.0,0,384,3.0,0.0
788,43.0,0,384,1.0,0.0
789,74.0,384,512,2.0,0.0
790,72.0,512,384,2.0,0.0
791,42.0,128,384,1.0,0.0
792,57.0,0,384,3.0,0.0
793,69.0,384,512,2.0,0.0
794,50.0,0,384,3.0,0.0
795,42.0,0,384,3.0,0.0
796,70.0,512,384,2.0,0.0
797,58.0,0,384,3.0,0.0
798,55.0,0,384,3.0,0.0
799,43.0,0,384,1.0,0.0
800,50.0,0,384,3.0,0.0
801,70.0,384,2560,2.0,0.0
802,67.0,384,512,0.0,0.0
803,43.0,128,384,3.0,0.0
804,65.0,512,384,0.0,0.0
805,62.0,384,512,0.0,0.0
806,55.0,0,384,3.0,0.0
807,55.0,0,384,1.0,0.0
808,58.0,128,384,3.0,0.0
809,63.0,512,384,0.0,0.0
810,48.0,0,384,1.0,0.0
811,63.0,384,2560,0.0,0.0
812,60.0,128,384,3.0,0.0
813,48.0,0,384,3.0,0.0
814,69.0,512,384,2.0,0.0
815,45.0,0,384,1.0,0.0
816,45.0,0,384,3.0,0.0
817,51.0,128,384,3.0,0.0
818,66.0,384,512,2.0,0.0
819,67.0,512,384,2.0,0.0
820,50.0,128,384,3.0,0.0
821,47.0,0,384,3.0,0.0
822,47.0,0,384,1.0,0.0
823,67.0,384,2560,2.0,0.0
824,62.0,512,384,0.0,0.0
825,55.0,128,384,3.0,0.0
826,53.0,0,384,1.0,0.0
827,59.0,384,512,0.0,0.0
828,53.0,0,384,3.0,0.0
829,60.0,512,384,0.0,0.0
830,55.0,0,384,3.0,0.0
831,51.0,128,384,3.0,0.0
832,60.0,384,2560,0.0,0.0
833,51.0,0,384,1.0,0.0
834,65.0,512,384,2.0,0.0
835,42.0,128,384,3.0,0.0
836,62.0,384,512,2.0,0.0
837,57.0,0,384,3.0,0.0
838,42.0,0,384,1.0,0.0
839,63.0,512,384,2.0,0.0
840,55.0,0,384,3.0,0.0
841,43.0,0,384,1.0,0.0
842,43.0,128,384,3.0,0.0
843,63.0,384,2560,2.0,0.0
844,58.0,512,384,0.0,0.0
845,48.0,0,384,3.0,0.0
846,48.0,128,384,1.0,0.0
847,55.0,384,512,0.0,0.0
848,57.0,640,384,0.0,0.0
849,57.0,0,922,0.0,0.0
850,42.0,0,922,1.0,0.0
851,57.0,0,922,3.0,0.0
852,42.0,1126,922,3.0,0.0
853,62.0,26,384,2.0,0.0
854,54.0,0,512,3.0,0.0
855,62.0,256,512,2.0,0.0
856,54.0,0,512,1.0,0.0
857,57.0,0,512,3.0,0.0
858,55.0,0,384,1.0,0.0
859,55.0,0,384,3.0,0.0
860,58.0,128,384,3.0,0.0
861,70.0,128,256,2.0,0.0
862,67.0,768,256,2.0,0.0
863,60.0,102,922,2.0,0.0
864,55.0,0,384,3.0,0.0
865,52.0,0,384,3.0,0.0
866,70.0,128,256,0.0,0.0
867,52.0,26,384,1.0,0.0
868,67.0,512,256,0.0,0.0
869,60.0,256,512,0.0,0.0
870,70.0,0,512,2.0,0.0
871,69.0,128,256,2.0,0.0
872,54.0,0,384,3.0,0.0
873,57.0,0,384,3.0,0.0
874,54.0,128,384,1.0,0.0
875,66.0,512,256,2.0,0.0
876,72.0,256,512,2.0,0.0
877,57.0,0,384,3.0,0.0
878,69.0,128,256,0.0,0.0
879,50.0,128,384,3.0,0.0
880,50.0,0,384,1.0,0.0
881,54.0,0,384,3.0,0.0
882,66.0,512,256,0.0,0.0
883,72.0,0,512,0.0,0.0
884,62.0,256,512,2.0,0.0
885,55.0,0,384,3.0,0.0
886,55.0,0,384,1.0,0.0
887,58.0,128,384,3.0,0.0
888,70.0,128,256,2.0,0.0
889,67.0,768,256,2.0,0.0
890,68.0,102,922,2.0,0.0
891,48.0,26,384,1.0,0.0
892,48.0,0,384,3.0,0.0
893,51.0,0,384,3.0,0.0
894,63.0,128,256,0.0,0.0
895,60.0,512,256,0.0,0.0
896,57.0,384,512,0.0,0.0
897,67.0,0,512,2.0,0.0
898,50.0,0,384,1.0,0.0
899,66.0,512,512,2.0,0.0
900,57.0,0,384,3.0,0.0
901,50.0,128,384,3.0,0.0
902,64.0,384,512,2.0,0.0
903,57.0,0,384,3.0,0.0
904,62.0,0,384,2.0,0.0
905,54.0,640,384,3.0,0.0
906,54.0,0,384,1.0,0.0
907,60.0,256,512,2.0,0.0
908,55.0,0,384,1.0,0.0
909,59.0,128,384,3.0,0.0
910,55.0,0,384,3.0,0.0
911,59.0,128,256,2.0,0.0
912,62.0,512,256,2.0,0.0
913,65.0,358,922,2.0,0.0
914,60.0,384,512,0.0,0.0
915,43.0,26,384,1.0,0.0
916,59.0,0,384,0.0,0.0
917,55.0,0,384,3.0,0.0
918,43.0,0,384,3.0,0.0
919,63.0,256,256,2.0,0.0
920,65.0,256,512,3.0,0.0
921,68.0,0,512,0.0,0.0
922,62.0,0,256,2.0,0.0
923,55.0,0,384,3.0,0.0
924,63.0,0,384,3.0,0.0
925,63.0,128,256,2.0,0.0
926,55.0,128,384,1.0,0.0
927,67.0,0,384,0.0,0.0
928,62.0,512,256,2.0,0.0
929,60.0,0,512,2.0,0.0
930,65.0,384,512,0.0,0.0
931,56.0,640,384,1.0,0.0
932,56.0,0,384,3.0,0.0
933,63.0,0,384,0.0,0.0
934,60.0,256,512,0.0,0.0
935,50.0,0,384,3.0,0.0
936,59.0,128,256,0.0,0.0
937,55.0,128,384,3.0,0.0
938,50.0,0,384,1.0,0.0
939,62.0,896,256,0.0,0.0
940,68.0,256,1024,2.0,0.0
941,65.0,102,922,0.0,0.0
942,55.0,26,384,3.0,0.0
943,55.0,0,384,1.0,0.0
944,59.0,0,384,3.0,0.0
945,63.0,256,256,0.0,0.0
946,67.0,0,256,2.0,0.0
947,62.0,384,256,0.0,0.0
948,65.0,0,256,2.0,0.0
949,60.0,0,384,3.0,0.0
950,48.0,128,384,3.0,0.0
951,63.0,384,512,2.0,0.0
952,48.0,0,384,1.0,0.0
953,67.0,0,384,0.0,0.0
954,50.0,128,384,3.0,0.0
955,62.0,384,512,2.0,0.0
956,50.0,0,384,1.0,0.0
957,56.0,0,384,3.0,0.0
958,59.0,0,512,0.0,0.0
959,51.0,0,384,1.0,0.0
960,51.0,0,384,3.0,0.0
961,55.0,0,384,3.0,0.0
962,60.0,512,384,2.0,0.0
963,60.0,0,384,0.0,0.0
964,50.0,0,384,1.0,0.0
965,50.0,0,384,3.0,0.0
966,53.0,128,384,3.0,0.0
967,58.0,256,512,2.0,0.0
968,57.0,128,256,2.0,0.0
969,49.0,128,384,1.0,0.0
970,52.0,0,384,3.0,0.0
971,49.0,0,384,3.0,0.0
972,64.0,384,256,2.0,0.0
973,47.0,128,384,3.0,0.0
974,50.0,0,384,3.0,0.0
975,47.0,0,384,1.0,0.0
976,67.0,358,922,2.0,0.0
977,65.0,384,512,0.0,0.0
978,64.0,0,384,0.0,0.0
979,49.0,0,384,1.0,0.0
980,49.0,0,384,3.0,0.0
981,52.0,26,384,3.0,0.0
982,65.0,128,256,2.0,0.0
983,70.0,0,512,0.0,0.0
984,61.0,128,384,1.0,0.0
985,61.0,0,384,3.0,0.0
986,64.0,256,256,2.0,0.0
987,69.0,0,384,0.0,0.0
988,62.0,128,384,1.0,0.0
989,62.0,0,384,3.0,0.0
990,65.0,128,256,2.0,0.0
991,64.0,384,256,2.0,0.0
992,58.0,0,384,1.0,0.0
993,58.0,128,384,3.0,0.0
994,62.0,0,512,2.0,0.0
995,67.0,384,512,0.0,0.0
996,57.0,0,384,1.0,0.0
997,65.0,512,384,0.0,0.0
998,57.0,0,384,3.0,0.0
999,56.0,0,384,3.0,0.0
1000,56.0,128,384,1.0,0.0
1001,62.0,256,512,0.0,0.0
1002,70.0,0,1024,2.0,0.0
1003,57.0,0,384,3.0,0.0
1004,57.0,128,384,1.0,0.0
1005,61.0,128,256,0.0,0.0
1006,64.0,512,256,0.0,0.0
1007,62.0,256,512,2.0,0.0
1008,67.0,102,922,0.0,0.0
1009,61.0,26,384,3.0,0.0
1010,57.0,0,384,3.0,0.0
1011,61.0,128,256,2.0,0.0
1012,52.0,0,384,3.0,0.0
1013,45.0,0,384,3.0,0.0
1014,45.0,0,384,1.0,0.0
1015,64.0,256,256,2.0,0.0
1016,69.0,256,256,2.0,0.0
1017,65.0,0,256,0.0,0.0
1018,64.0,0,256,0.0,0.0
1019,67.0,384,256,2.0,0.0
1020,50.0,0,384,3.0,0.0
1021,69.0,128,384,0.0,0.0
1022,62.0,0,384,3.0,0.0
1023,54.0,0,384,3.0,0.0
1024,50.0,0,384,1.0,0.0
1025,66.0,384,512,2.0,0.0
1026,64.0,0,512,2.0,0.0
1027,52.0,0,384,3.0,0.0
1028,55.0,0,384,3.0,0.0
1029,61.0,384,512,0.0,0.0
1030,52.0,128,384,1.0,0.0
1031,54.0,0,384,3.0,0.0
1032,57.0,0,384,3.0,0.0
1033,54.0,0,384,1.0,0.0
1034,62.0,0,384,2.0,0.0
1035,62.0,512,384,0.0,0.0
1036,55.0,0,384,3.0,0.0
1037,58.0,128,384,3.0,0.0
1038,84.0,128,768,0.0,0.0
1039,64.0,256,512,2.0,0.0
1040,55.0,0,384,1.0,0.0
1041,57.0,128,384,1.0,0.0
1042,57.0,0,384,3.0,0.0
1043,60.0,0,384,3.0,0.0
1044,66.0,0,512,2.0,0.0
1045,81.0,384,256,0.0,0.0
1046,55.0,128,384,3.0,0.0
1047,58.0,0,384,3.0,0.0
1048,74.0,358,922,0.0,0.0
1049,69.0,384,512,2.0,0.0
1050,55.0,0,384,1.0,0.0
1051,54.0,26,384,1.0,0.0
1052,74.0,0,1536,2.0,0.0
1053,57.0,0,384,3.0,0.0
1054,54.0,0,384,3.0,0.0
1055,52.0,128,384,3.0,0.0
1056,79.0,128,256,0.0,0.0
1057,62.0,0,384,3.0,0.0
1058,52.0,0,384,1.0,0.0
1059,82.0,256,256,0.0,0.0
1060,81.0,128,256,0.0,0.0
1061,54.0,0,384,3.0,0.0
1062,54.0,128,384,1.0,0.0
1063,62.0,0,384,3.0,0.0
1064,78.0,384,256,0.0,0.0
1065,75.0,512,384,2.0,0.0
1066,72.0,102,922,0.0,0.0
1067,50.0,26,384,3.0,0.0
1068,62.0,0,384,3.0,0.0
1069,54.0,0,384,3.0,0.0
1070,66.0,256,512,2.0,0.0
1071,50.0,0,384,1.0,0.0
1072,70.0,128,256,0.0,0.0
1073,67.0,128,384,2.0,0.0
1074,69.0,256,256,0.0,0.0
1075,55.0,0,384,1.0,0.0
1076,55.0,128,384,3.0,0.0
1077,70.0,128,256,0.0,0.0
1078,67.0,0,512,2.0,0.0
1079,62.0,0,384,3.0,0.0
1080,67.0,384,256,0.0,0.0
1081,63.0,512,384,2.0,0.0
1082,68.0,102,922,0.0,0.0
1083,51.0,0,384,1.0,0.0
1084,59.0,384,512,2.0,0.0
1085,51.0,0,384,3.0,0.0
1086,55.0,26,384,3.0,0.0
1087,60.0,128,384,2.0,0.0
1088,67.0,384,512,0.0,0.0
1089,50.0,128,384,1.0,0.0
1090,66.0,512,512,0.0,0.0
1091,60.0,0,512,2.0,0.0
1092,57.0,0,384,3.0,0.0
1093,50.0,0,384,3.0,0.0
1094,72.0,256,1024,2.0,0.0
1095,64.0,384,512,0.0,0.0
1096,54.0,0,384,3.0,0.0
1097,54.0,0,384,1.0,0.0
1098,62.0,0,384,0.0,0.0
1099,57.0,128,384,3.0,0.0
1100,62.0,128,384,3.0,0.0
1101,70.0,128,256,2.0,0.0
1102,69.0,256,256,2.0,0.0
1103,74.0,128,256,2.0,0.0
1104,55.0,128,384,3.0,0.0
1105,67.0,0,384,3.0,0.0
1106,74.0,0,384,3.0,0.0
1107,46.0,0,384,3.0,0.0
1108,46.0,0,384,1.0,0.0
1109,70.0,256,256,2.0,0.0
1110,67.0,0,896,3.0,0.0
1111,72.0,0,512,3.0,0.0
1112,51.0,0,384,3.0,0.0
1113,69.0,128,256,2.0,0.0
1114,51.0,128,384,1.0,0.0
1115,55.0,128,896,3.0,0.0
1116,67.0,384,256,2.0,0.0
1117,48.0,0,384,3.0,0.0
1118,70.0,0,384,3.0,0.0
1119,70.0,384,512,2.0,0.0
1120,48.0,0,384,1.0,0.0
1121,50.0,0,384,1.0,0.0
1122,69.0,384,512,2.0,0.0
1123,66.0,0,512,3.0,0.0
1124,69.0,0,512,3.0,0.0
1125,50.0,128,384,3.0,0.0
1126,60.0,0,384,3.0,0.0
1127,67.0,0,384,3.0,0.0
1128,51.0,0,384,3.0,0.0
1129,67.0,256,512,2.0,0.0
1130,58.0,128,384,3.0,0.0
1131,51.0,0,384,1.0,0.0
1132,50.0,0,256,3.0,0.0
1133,68.0,358,922,2.0,0.0
1134,59.0,256,256,3.0,0.0
1135,50.0,0,256,1.0,0.0
1136,63.0,0,512,0.0,0.0
1137,48.0,384,256,1.0,0.0
1138,60.0,0,256,3.0,0.0
1139,48.0,0,256,3.0,0.0
1140,47.0,0,384,3.0,0.0
1141,53.0,0,384,3.0,0.0
1142,47.0,0,384,1.0,0.0
1143,62.0,26,384,0.0,0.0
1144,43.0,0,384,1.0,0.0
1145,55.0,128,384,3.0,0.0
1146,43.0,0,384,3.0,0.0
1147,71.0,384,512,0.0,0.0
1148,67.0,128,256,2.0,0.0
1149,65.0,0,256,2.0,0.0
1150,55.0,0,384,3.0,0.0
1151,48.0,0,384,3.0,0.0
1152,72.0,0,384,0.0,0.0
1153,63.0,512,512,2.0,0.0
1154,48.0,128,384,1.0,0.0
1155,59.0,384,512,2.0,0.0
1156,51.0,0,384,1.0,0.0
1157,72.0,512,512,3.0,0.0
1158,51.0,0,384,3.0,0.0
1159,55.0,128,384,3.0,0.0
1160,67.0,0,512,3.0,0.0
1161,60.0,0,384,2.0,0.0
1162,67.0,256,512,2.0,0.0
1163,57.0,0,384,3.0,0.0
1164,50.0,0,384,3.0,0.0
1165,69.0,0,384,3.0,0.0
1166,66.0,0,384,3.0,0.0
1167,50.0,128,384,1.0,0.0
1168,66.0,128,256,2.0,0.0
1169,67.0,384,256,2.0,0.0
1170,48.0,0,512,1.0,0.0
1171,69.0,0,512,3.0,0.0
1172,69.0,128,384,2.0,0.0
1173,54.0,0,512,3.0,0.0
1174,48.0,0,512,3.0,0.0
1175,75.0,384,512,3.0,0.0
1176,75.0,0,512,0.0,0.0
1177,74.0,0,384,0.0,0.0
1178,46.0,0,384,1.0,0.0
1179,55.0,0,384,3.0,0.0
1180,46.0,0,384,3.0,0.0
1181,62.0,0,384,3.0,0.0
1182,74.0,384,384,3.0,0.0
1183,78.0,256,512,0.0,0.0
1184,66.0,0,512,3.0,0.0
1185,72.0,0,512,3.0,0.0
1186,45.0,0,512,3.0,0.0
1187,50.0,0,896,3.0,0.0
1188,63.0,256,256,2.0,0.0
1189,45.0,0,512,1.0,0.0
1190,62.0,0,256,2.0,0.0
1191,43.0,0,384,3.0,0.0
1192,70.0,0,384,3.0,0.0
1193,72.0,128,256,2.0,0.0
1194,43.0,0,384,1.0,0.0
1195,67.0,0,384,3.0,0.0
1196,79.0,128,384,0.0,0.0
1197,70.0,256,256,2.0,0.0
1198,69.0,256,256,2.0,0.0
1199,67.0,128,512,3.0,0.0
1200,75.0,0,512,3.0,0.0
1201,48.0,0,512,3.0,0.0
1202,48.0,0,512,1.0,0.0
1203,57.0,64,896,3.0,0.0
1204,67.0,0,256,2.0,0.0
1205,50.0,0,384,1.0,0.0
1206,66.0,0,384,3.0,0.0
1207,74.0,0,384,3.0,0.0
1208,50.0,0,384,3.0,0.0
1209,67.0,128,128,2.0,0.0
1210,66.0,64,128,2.0,0.0
1211,67.0,64,64,2.0,0.0
1212,66.0,0,64,2.0,0.0
1213,67.0,64,64,2.0,0.0
1214,66.0,64,64,2.0,0.0
1215,60.0,0,512,3.0,0.0
1216,62.0,0,512,3.0,0.0
1217,66.0,0,512,3.0,0.0
1218,38.0,0,512,3.0,0.0
1219,50.0,0,512,3.0,0.0
1220,67.0,64,64,2.0,0.0
1221,38.0,384,512,1.0,0.0
1222,66.0,64,64,2.0,0.0
1223,67.0,64,64,2.0,0.0
1224,66.0,192,64,2.0,0.0
1225,67.0,64,192,2.0,0.0
1226,58.0,0,512,3.0,0.0
1227,67.0,384,512,3.0,0.0
1228,43.0,0,384,3.0,0.0
1229,67.0,384,1024,2.0,0.0
1230,62.0,0,512,3.0,0.0
1231,55.0,0,384,3.0,0.0
1232,43.0,128,384,1.0,0.0
1233,58.0,0,384,3.0,0.0
1234,55.0,128,384,1.0,0.0
1235,55.0,0,384,3.0,0.0
1236,53.0,512,384,1.0,0.0
1237,53.0,0,384,3.0,0.0
1238,57.0,0,384,3.0,0.0
1239,55.0,0,384,3.0,0.0
1240,60.0,256,512,3.0,0.0
1241,51.0,0,384,3.0,0.0
1242,51.0,128,384,1.0,0.0
1243,60.0,0,512,0.0,0.0
1244,50.0,0,512,3.0,0.0
1245,50.0,0,384,1.0,0.0
1246,55.0,256,1536,3.0,0.0
1247,59.0,128,384,3.0,0.0
1248,59.0,128,256,0.0,0.0
1249,62.0,384,256,0.0,0.0
1250,60.0,0,512,3.0,0.0
1251,65.0,102,922,0.0,0.0
1252,48.0,128,384,1.0,0.0
1253,48.0,384,512,3.0,0.0
1254,62.0,26,384,3.0,0.0
1255,47.0,0,512,3.0,0.0
1256,47.0,0,384,1.0,0.0
1257,63.0,128,256,0.0,0.0
1258,59.0,0,384,3.0,0.0
1259,43.0,256,512,3.0,0.0
1260,43.0,128,384,1.0,0.0
1261,62.0,0,256,0.0,0.0
1262,48.0,128,384,1.0,0.0
1263,60.0,0,512,3.0,0.0
1264,48.0,0,384,3.0,0.0
1265,55.0,0,384,3.0,0.0
1266,63.0,128,256,0.0,0.0
1267,60.0,384,256,0.0,0.0
1268,57.0,0,922,3.0,0.0
1269,50.0,0,384,1.0,0.0
1270,57.0,486,922,0.0,0.0
1271,50.0,0,384,3.0,0.0
1272,53.0,512,384,3.0,0.0
1273,51.0,0,384,3.0,0.0
1274,55.0,0,384,3.0,0.0
1275,51.0,26,384,1.0,0.0
1276,48.0,0,384,3.0,0.0
1277,60.0,0,384,3.0,0.0
1278,67.0,0,512,3.0,0.0
1279,48.0,128,384,1.0,0.0
1280,63.0,0,512,3.0,0.0
1281,67.0,256,512,0.0,0.0
1282,66.0,128,256,0.0,0.0
1283,62.0,128,2432,3.0,0.0
1284,66.0,256,1536,3.0,0.0
1285,50.0,128,384,3.0,0.0
1286,57.0,0,384,3.0,0.0
1287,50.0,0,384,1.0,0.0
1288,69.0,384,256,0.0,0.0
1289,72.0,102,922,0.0,0.0
1290,52.0,0,384,1.0,0.0
1291,55.0,0,384,3.0,0.0
1292,52.0,512,384,3.0,0.0
1293,54.0,0,384,3.0,0.0
1294,57.0,0,384,3.0,0.0
1295,54.0,26,384,1.0,0.0
1296,50.0,0,384,1.0,0.0
1297,54.0,128,384,3.0,0.0
1298,50.0,0,384,3.0,0.0
1299,70.0,128,256,3.0,0.0
1300,70.0,0,256,0.0,0.0
1301,69.0,256,256,3.0,0.0
1302,69.0,0,256,0.0,0.0
1303,55.0,0,384,1.0,0.0
1304,70.0,128,256,0.0,0.0
1305,55.0,0,384,3.0,0.0
1306,70.0,0,384,3.0,0.0
1307,58.0,0,384,3.0,0.0
1308,67.0,384,256,0.0,0.0
1309,57.0,0,384,3.0,0.0
1310,73.0,486,922,0.0,0.0
1311,57.0,512,384,1.0,0.0
1312,67.0,0,922,3.0,0.0
1313,58.0,26,384,1.0,0.0
1314,58.0,0,384,3.0,0.0
1315,62.0,0,384,3.0,0.0
1316,74.0,256,512,3.0,0.0
1317,74.0,0,512,0.0,0.0
1318,70.0,0,512,3.0,0.0
1319,55.0,128,384,1.0,0.0
1320,55.0,0,384,3.0,0.0
1321,61.0,0,384,1.0,0.0
1322,76.0,128,256,0.0,0.0
1323,69.0,0,384,3.0,0.0
1324,76.0,128,384,3.0,0.0
1325,61.0,0,384,3.0,0.0
1326,64.0,0,384,3.0,0.0
1327,79.0,384,256,0.0,0.0
1328,70.0,0,896,3.0,0.0
1329,62.0,0,384,1.0,0.0
1330,62.0,128,384,3.0,0.0
1331,65.0,0,384,3.0,0.0
1332,74.0,384,512,3.0,0.0
1333,82.0,358,922,0.0,0.0
1334,73.0,0,384,3.0,0.0
1335,64.0,26,384,3.0,0.0
1336,67.0,0,384,3.0,0.0
1337,64.0,0,384,1.0,0.0
1338,76.0,0,384,3.0,0.0
1339,81.0,128,256,0.0,0.0
1340,73.0,128,384,3.0,0.0
1341,61.0,0,384,1.0,0.0
1342,64.0,0,384,3.0,0.0
1343,61.0,0,384,3.0,0.0
1344,79.0,256,256,0.0,0.0
1345,74.0,384,512,3.0,0.0
1346,62.0,128,384,1.0,0.0
1347,62.0,0,384,3.0,0.0
1348,78.0,128,256,0.0,0.0
1349,69.0,0,256,0.0,0.0
1350,57.0,512,384,1.0,0.0
1351,60.0,0,384,3.0,0.0
1352,57.0,0,384,3.0,0.0
1353,63.0,0,922,3.0,0.0
1354,63.0,358,922,0.0,0.0
1355,57.0,0,384,3.0,0.0
1356,54.0,0,384,3.0,0.0
1357,54.0,26,384,1.0,0.0
1358,50.0,0,384,1.0,0.0
1359,57.0,0,384,3.0,0.0
1360,54.0,128,384,3.0,0.0
1361,50.0,0,384,3.0,0.0
1362,62.0,0,256,3.0,0.0
1363,62.0,128,256,0.0,0.0
1364,60.0,384,256,3.0,0.0
1365,60.0,0,256,0.0,0.0
1366,55.0,0,384,3.0,0.0
1367,58.0,384,384,3.0,0.0
1368,58.0,0,384,0.0,0.0
1369,55.0,0,384,1.0,0.0
1370,74.0,128,384,0.0,0.0
1371,46.0,0,256,3.0,0.0
1372,55.0,0,1024,3.0,0.0
1373,62.0,0,512,3.0,0.0
1374,46.0,128,256,1.0,0.0
1375,48.0,0,256,1.0,0.0
1376,48.0,384,256,3.0,0.0
1377,62.0,0,384,0.0,0.0
1378,50.0,128,384,1.0,0.0
1379,62.0,0,384,3.0,0.0
1380,58.0,0,384,3.0,0.0
1381,66.0,0,384,0.0,0.0
1382,57.0,0,384,3.0,0.0
1383,62.0,0,384,3.0,0.0
1384,66.0,0,384,3.0,0.0
1385,38.0,0,384,1.0,0.0
1386,38.0,1152,384,3.0,0.0
1387,50.0,384,0,3.0,0.0
1388,55.0,0,1024,0.0,0.0
1389,43.0,3072,1024,3.0,0.0
1390,43.0,0,1024,1.0,0.0
1391,55.0,0,1024,3.0,0.0
