,note,step,duration,channel,velocity
0,91.0,60,57,0.0,0.0
1,86.0,58,57,0.0,0.0
2,83.0,66,55,0.0,0.0
3,86.0,75,61,0.0,0.0
4,91.0,99,76,0.0,0.0
5,91.0,63,55,0.0,0.0
6,88.0,60,58,0.0,0.0
7,84.0,65,58,0.0,0.0
8,88.0,75,63,0.0,0.0
9,91.0,102,78,0.0,0.0
10,91.0,63,60,0.0,0.0
11,86.0,54,63,0.0,0.0
12,83.0,59,57,0.0,0.0
13,86.0,79,56,0.0,0.0
14,91.0,101,75,0.0,0.0
15,91.0,59,56,0.0,0.0
16,84.0,65,55,0.0,0.0
17,81.0,58,60,0.0,0.0
18,84.0,81,58,0.0,0.0
19,91.0,101,79,0.0,0.0
20,91.0,59,60,1.0,0.0
21,90.0,62,59,1.0,0.0
22,91.0,62,61,1.0,0.0
23,86.0,52,63,1.0,0.0
24,83.0,59,55,1.0,0.0
25,86.0,64,54,1.0,0.0
26,91.0,58,58,1.0,0.0
27,90.0,63,56,1.0,0.0
28,91.0,56,59,1.0,0.0
29,88.0,60,55,1.0,0.0
30,84.0,53,55,1.0,0.0
31,88.0,68,48,1.0,0.0
32,91.0,65,56,1.0,0.0
33,90.0,62,61,1.0,0.0
34,91.0,58,63,1.0,0.0
35,86.0,54,61,1.0,0.0
36,83.0,56,55,1.0,0.0
37,86.0,69,51,1.0,0.0
38,91.0,55,60,1.0,0.0
39,90.0,67,55,1.0,0.0
40,91.0,59,62,1.0,0.0
41,84.0,56,61,1.0,0.0
42,81.0,51,57,1.0,0.0
43,84.0,72,48,1.0,0.0
44,91.0,59,60,0.0,0.0
45,90.0,57,59,0.0,0.0
46,91.0,61,56,0.0,0.0
47,86.0,66,57,0.0,0.0
48,83.0,45,63,0.0,0.0
49,86.0,67,48,0.0,0.0
50,79.0,64,55,0.0,0.0
51,81.0,58,59,0.0,0.0
52,83.0,58,57,0.0,0.0
53,84.0,62,55,0.0,0.0
54,86.0,52,57,0.0,0.0
55,88.0,66,49,0.0,0.0
56,90.0,60,55,0.0,0.0
57,88.0,63,55,0.0,0.0
58,90.0,57,58,0.0,0.0
59,84.0,64,55,0.0,0.0
60,81.0,50,59,0.0,0.0
61,84.0,66,49,0.0,0.0
62,79.0,62,55,0.0,0.0
63,81.0,60,57,0.0,0.0
64,83.0,58,57,0.0,0.0
65,84.0,65,55,0.0,0.0
66,86.0,28,60,0.0,0.0
67,88.0,32,28,0.0,0.0
68,90.0,58,30,0.0,0.0
69,91.0,1,58,0.0,0.0
70,91.0,59,59,1.0,0.0
71,90.0,58,58,1.0,0.0
72,91.0,67,56,1.0,0.0
73,86.0,55,63,1.0,0.0
74,83.0,53,58,1.0,0.0
75,86.0,64,51,1.0,0.0
76,79.0,65,55,1.0,0.0
77,81.0,59,60,1.0,0.0
78,83.0,59,59,1.0,0.0
79,84.0,61,58,1.0,0.0
80,86.0,54,59,1.0,0.0
81,88.0,63,53,1.0,0.0
82,90.0,67,56,1.0,0.0
83,88.0,53,63,1.0,0.0
84,90.0,65,56,1.0,0.0
85,84.0,62,61,1.0,0.0
86,81.0,53,63,1.0,0.0
87,84.0,60,56,1.0,0.0
88,79.0,63,56,1.0,0.0
89,81.0,63,59,1.0,0.0
90,83.0,57,62,1.0,0.0
91,84.0,63,59,1.0,0.0
92,86.0,21,62,1.0,0.0
93,88.0,33,23,1.0,0.0
94,90.0,64,26,1.0,0.0
95,91.0,62,60,0.0,0.0
96,86.0,59,62,0.0,0.0
97,83.0,60,61,0.0,0.0
98,86.0,78,61,0.0,0.0
99,91.0,102,79,0.0,0.0
100,91.0,60,61,0.0,0.0
101,88.0,58,61,0.0,0.0
102,84.0,59,59,0.0,0.0
103,88.0,75,58,0.0,0.0
104,91.0,107,73,0.0,0.0
105,91.0,61,60,0.0,0.0
106,86.0,60,61,0.0,0.0
107,83.0,57,61,0.0,0.0
108,86.0,82,58,0.0,0.0
109,91.0,100,80,0.0,0.0
110,91.0,58,60,0.0,0.0
111,84.0,63,58,0.0,0.0
112,81.0,60,61,0.0,0.0
113,84.0,76,61,0.0,0.0
114,91.0,103,77,0.0,0.0
115,91.0,63,60,1.0,0.0
116,90.0,58,63,1.0,0.0
117,91.0,62,61,1.0,0.0
118,86.0,55,63,1.0,0.0
119,83.0,54,58,1.0,0.0
120,86.0,68,52,1.0,0.0
121,91.0,59,60,1.0,0.0
122,90.0,61,59,1.0,0.0
123,91.0,62,60,1.0,0.0
124,88.0,54,62,1.0,0.0
125,84.0,60,56,1.0,0.0
126,88.0,60,56,1.0,0.0
127,91.0,66,56,1.0,0.0
128,90.0,54,62,1.0,0.0
129,91.0,60,56,1.0,0.0
130,86.0,61,56,1.0,0.0
131,83.0,52,57,1.0,0.0
132,86.0,66,49,1.0,0.0
133,91.0,65,55,1.0,0.0
134,90.0,61,60,1.0,0.0
135,91.0,58,61,1.0,0.0
136,84.0,64,59,1.0,0.0
137,81.0,48,63,1.0,0.0
138,84.0,71,51,1.0,0.0
139,91.0,61,62,0.0,0.0
140,90.0,58,63,0.0,0.0
141,91.0,54,61,0.0,0.0
142,86.0,61,55,0.0,0.0
143,83.0,59,56,0.0,0.0
144,86.0,66,55,0.0,0.0
145,79.0,56,61,0.0,0.0
146,81.0,63,57,0.0,0.0
147,83.0,57,60,0.0,0.0
148,84.0,61,57,0.0,0.0
149,86.0,50,58,0.0,0.0
150,88.0,67,48,0.0,0.0
151,89.0,66,55,0.0,0.0
152,88.0,57,61,0.0,0.0
153,89.0,63,58,0.0,0.0
154,86.0,58,61,0.0,0.0
155,83.0,57,59,0.0,0.0
156,86.0,66,56,0.0,0.0
157,79.0,53,62,0.0,0.0
158,81.0,60,55,0.0,0.0
159,83.0,63,55,0.0,0.0
160,84.0,57,58,0.0,0.0
161,86.0,35,55,0.0,0.0
162,88.0,24,30,0.0,0.0
163,89.0,66,24,0.0,0.0
164,91.0,2,60,1.0,0.0
165,91.0,55,62,0.0,0.0
166,89.0,59,57,1.0,0.0
167,91.0,66,56,1.0,0.0
168,88.0,58,62,1.0,0.0
169,84.0,51,60,1.0,0.0
170,88.0,64,51,1.0,0.0
171,79.0,62,55,1.0,0.0
172,81.0,58,57,1.0,0.0
173,83.0,63,55,1.0,0.0
174,84.0,59,58,1.0,0.0
175,86.0,56,57,1.0,0.0
176,88.0,65,53,1.0,0.0
177,89.0,64,58,1.0,0.0
178,88.0,60,62,1.0,0.0
179,89.0,57,62,1.0,0.0
180,86.0,64,59,1.0,0.0
181,83.0,50,63,1.0,0.0
182,86.0,65,53,1.0,0.0
183,79.0,65,58,1.0,0.0
184,81.0,54,63,1.0,0.0
185,83.0,63,57,1.0,0.0
186,84.0,63,60,1.0,0.0
187,86.0,24,63,1.0,0.0
188,88.0,29,27,1.0,0.0
189,89.0,66,26,1.0,0.0
190,88.0,55,62,0.0,0.0
191,86.0,62,57,0.0,0.0
192,88.0,58,59,0.0,0.0
193,84.0,62,57,0.0,0.0
194,83.0,54,59,0.0,0.0
195,84.0,70,53,0.0,0.0
196,79.0,56,63,0.0,0.0
197,81.0,61,59,0.0,0.0
198,83.0,62,60,0.0,0.0
199,84.0,55,62,0.0,0.0
200,86.0,53,57,0.0,0.0
201,88.0,72,50,0.0,0.0
202,86.0,60,62,0.0,0.0
203,84.0,58,62,0.0,0.0
204,86.0,60,60,0.0,0.0
205,83.0,59,60,0.0,0.0
206,81.0,55,59,0.0,0.0
207,83.0,65,54,0.0,0.0
208,79.0,60,59,0.0,0.0
209,81.0,62,59,0.0,0.0
210,83.0,57,61,0.0,0.0
211,84.0,62,58,0.0,0.0
212,86.0,22,60,0.0,0.0
213,88.0,32,22,0.0,0.0
214,89.0,65,24,0.0,0.0
215,88.0,63,60,0.0,0.0
216,88.0,1,59,1.0,0.0
217,86.0,53,63,1.0,0.0
218,88.0,66,56,1.0,0.0
219,84.0,56,62,1.0,0.0
220,83.0,58,58,1.0,0.0
221,84.0,65,56,1.0,0.0
222,79.0,58,61,1.0,0.0
223,81.0,64,59,1.0,0.0
224,83.0,59,63,1.0,0.0
225,84.0,61,62,1.0,0.0
226,86.0,51,63,1.0,0.0
227,88.0,69,54,1.0,0.0
228,86.0,57,63,1.0,0.0
229,84.0,59,60,1.0,0.0
230,86.0,62,59,1.0,0.0
231,83.0,55,61,1.0,0.0
232,81.0,52,56,1.0,0.0
233,83.0,69,48,1.0,0.0
234,79.0,62,57,1.0,0.0
235,81.0,58,59,1.0,0.0
236,83.0,65,57,1.0,0.0
237,84.0,61,62,1.0,0.0
238,86.0,51,63,1.0,0.0
239,83.0,61,54,1.0,0.0
240,84.0,64,55,0.0,0.0
241,83.0,63,59,0.0,0.0
242,84.0,55,62,0.0,0.0
243,81.0,60,57,0.0,0.0
244,78.0,54,57,0.0,0.0
245,81.0,72,51,0.0,0.0
246,74.0,55,63,0.0,0.0
247,76.0,59,58,0.0,0.0
248,78.0,61,57,0.0,0.0
249,79.0,64,58,0.0,0.0
250,81.0,20,62,0.0,0.0
251,83.0,37,22,0.0,0.0
252,84.0,56,29,0.0,0.0
253,83.0,67,55,0.0,0.0
254,81.0,58,62,0.0,0.0
255,83.0,57,60,0.0,0.0
256,79.0,62,57,0.0,0.0
257,78.0,50,59,0.0,0.0
258,79.0,68,49,0.0,0.0
259,74.0,62,57,0.0,0.0
260,76.0,56,59,0.0,0.0
261,78.0,60,55,0.0,0.0
262,79.0,66,55,0.0,0.0
263,81.0,52,61,0.0,0.0
264,83.0,64,53,0.0,0.0
265,84.0,3,57,1.0,0.0
266,84.0,55,60,0.0,0.0
267,83.0,61,55,1.0,0.0
268,84.0,67,56,1.0,0.0
269,81.0,57,63,1.0,0.0
270,78.0,54,60,1.0,0.0
271,81.0,69,54,1.0,0.0
272,74.0,54,63,1.0,0.0
273,76.0,64,57,1.0,0.0
274,78.0,59,61,1.0,0.0
275,79.0,62,60,1.0,0.0
276,81.0,22,62,1.0,0.0
277,83.0,29,24,1.0,0.0
278,84.0,64,23,1.0,0.0
279,83.0,59,57,1.0,0.0
280,81.0,62,56,1.0,0.0
281,83.0,57,58,1.0,0.0
282,79.0,61,55,1.0,0.0
283,78.0,54,56,1.0,0.0
284,79.0,68,50,1.0,0.0
285,74.0,58,58,1.0,0.0
286,76.0,59,56,1.0,0.0
287,78.0,64,55,1.0,0.0
288,79.0,62,59,1.0,0.0
289,81.0,49,61,1.0,0.0
290,83.0,67,50,1.0,0.0
291,81.0,66,57,0.0,0.0
292,79.0,58,63,0.0,0.0
293,81.0,55,61,0.0,0.0
294,78.0,62,56,0.0,0.0
295,72.0,57,58,0.0,0.0
296,78.0,60,55,0.0,0.0
297,69.0,65,55,0.0,0.0
298,71.0,63,60,0.0,0.0
299,72.0,52,63,0.0,0.0
300,74.0,67,55,0.0,0.0
301,76.0,53,62,0.0,0.0
302,78.0,64,55,0.0,0.0
303,79.0,61,59,0.0,0.0
304,78.0,63,60,0.0,0.0
305,79.0,53,63,0.0,0.0
306,74.0,65,56,0.0,0.0
307,72.0,47,61,0.0,0.0
308,74.0,74,48,0.0,0.0
309,71.0,53,62,0.0,0.0
310,72.0,63,55,0.0,0.0
311,74.0,64,58,0.0,0.0
312,76.0,55,62,0.0,0.0
313,78.0,58,57,0.0,0.0
314,79.0,60,55,0.0,0.0
315,81.0,1,55,0.0,0.0
316,81.0,65,56,1.0,0.0
317,79.0,58,61,1.0,0.0
318,81.0,62,59,1.0,0.0
319,78.0,55,61,1.0,0.0
320,72.0,56,56,1.0,0.0
321,78.0,66,52,1.0,0.0
322,69.0,64,58,1.0,0.0
323,71.0,54,62,1.0,0.0
324,72.0,60,56,1.0,0.0
325,74.0,61,56,1.0,0.0
326,76.0,54,57,1.0,0.0
327,78.0,67,51,1.0,0.0
328,79.0,63,58,1.0,0.0
329,78.0,61,61,1.0,0.0
330,79.0,53,62,1.0,0.0
331,74.0,60,55,1.0,0.0
332,72.0,58,55,1.0,0.0
333,74.0,65,53,1.0,0.0
334,71.0,60,58,1.0,0.0
335,72.0,59,58,1.0,0.0
336,74.0,65,57,1.0,0.0
337,76.0,58,62,1.0,0.0
338,78.0,56,60,1.0,0.0
339,79.0,66,56,1.0,0.0
340,78.0,59,62,0.0,0.0
341,76.0,60,61,0.0,0.0
342,78.0,60,61,0.0,0.0
343,72.0,57,61,0.0,0.0
344,69.0,58,58,0.0,0.0
345,72.0,66,56,0.0,0.0
346,67.0,56,62,0.0,0.0
347,69.0,58,58,0.0,0.0
348,71.0,60,56,0.0,0.0
349,72.0,64,56,0.0,0.0
350,74.0,25,60,0.0,0.0
351,76.0,28,25,0.0,0.0
352,78.0,65,23,0.0,0.0
353,79.0,59,58,0.0,0.0
354,78.0,63,57,0.0,0.0
355,79.0,60,60,0.0,0.0
356,74.0,61,60,0.0,0.0
357,71.0,55,61,0.0,0.0
358,74.0,65,56,0.0,0.0
359,67.0,54,61,0.0,0.0
360,69.0,65,55,0.0,0.0
361,71.0,57,60,0.0,0.0
362,72.0,63,57,0.0,0.0
363,74.0,56,60,0.0,0.0
364,76.0,62,56,0.0,0.0
365,78.0,1,58,0.0,0.0
366,78.0,62,59,1.0,0.0
367,76.0,57,61,1.0,0.0
368,78.0,64,58,1.0,0.0
369,72.0,60,62,1.0,0.0
370,69.0,53,62,1.0,0.0
371,72.0,67,55,1.0,0.0
372,67.0,60,62,1.0,0.0
373,69.0,61,62,1.0,0.0
374,71.0,59,63,1.0,0.0
375,72.0,55,62,1.0,0.0
376,74.0,32,57,1.0,0.0
377,76.0,28,29,1.0,0.0
378,78.0,60,27,1.0,0.0
379,79.0,61,57,1.0,0.0
380,78.0,63,58,1.0,0.0
381,79.0,58,61,1.0,0.0
382,74.0,59,59,1.0,0.0
383,71.0,53,58,1.0,0.0
384,74.0,69,51,1.0,0.0
385,67.0,56,60,1.0,0.0
386,69.0,62,56,1.0,0.0
387,71.0,64,58,1.0,0.0
388,72.0,60,62,1.0,0.0
389,74.0,23,62,1.0,0.0
390,76.0,34,25,1.0,0.0
391,77.0,61,29,1.0,0.0
392,79.0,59,60,0.0,0.0
393,76.0,56,59,0.0,0.0
394,67.0,61,55,0.0,0.0
395,76.0,77,56,0.0,0.0
396,79.0,103,73,0.0,0.0
397,77.0,63,56,0.0,0.0
398,74.0,62,59,0.0,0.0
399,67.0,61,61,0.0,0.0
400,74.0,77,62,0.0,0.0
401,77.0,98,79,0.0,0.0
402,76.0,64,57,0.0,0.0
403,72.0,59,61,0.0,0.0
404,67.0,57,60,0.0,0.0
405,72.0,82,57,0.0,0.0
406,76.0,103,79,0.0,0.0
407,74.0,61,62,0.0,0.0
408,71.0,55,63,0.0,0.0
409,67.0,59,58,0.0,0.0
410,71.0,82,57,0.0,0.0
411,74.0,97,79,0.0,0.0
412,79.0,66,56,1.0,0.0
413,77.0,53,62,1.0,0.0
414,79.0,64,55,1.0,0.0
415,76.0,64,59,1.0,0.0
416,67.0,45,63,1.0,0.0
417,76.0,71,48,1.0,0.0
418,77.0,63,59,1.0,0.0
419,76.0,56,62,1.0,0.0
420,77.0,60,58,1.0,0.0
421,74.0,58,58,1.0,0.0
422,67.0,52,56,1.0,0.0
423,74.0,73,48,1.0,0.0
424,76.0,60,61,1.0,0.0
425,74.0,54,61,1.0,0.0
426,76.0,65,55,1.0,0.0
427,72.0,59,60,1.0,0.0
428,67.0,53,59,1.0,0.0
429,72.0,64,52,1.0,0.0
430,74.0,59,56,1.0,0.0
431,72.0,66,55,1.0,0.0
432,74.0,61,61,1.0,0.0
433,71.0,59,62,1.0,0.0
434,67.0,47,61,1.0,0.0
435,71.0,74,48,1.0,0.0
436,72.0,58,62,0.0,0.0
437,71.0,62,60,0.0,0.0
438,72.0,58,62,0.0,0.0
439,69.0,58,60,0.0,0.0
440,67.0,53,58,0.0,0.0
441,69.0,70,51,0.0,0.0
442,72.0,62,61,1.0,0.0
443,71.0,56,63,1.0,0.0
444,72.0,62,59,1.0,0.0
445,69.0,55,61,1.0,0.0
446,67.0,53,56,1.0,0.0
447,69.0,73,49,1.0,0.0
448,72.0,60,62,0.0,0.0
449,71.0,59,62,0.0,0.0
450,72.0,55,61,0.0,0.0
451,69.0,66,56,0.0,0.0
452,66.0,53,62,0.0,0.0
453,69.0,61,55,0.0,0.0
454,72.0,64,56,1.0,0.0
455,71.0,61,60,1.0,0.0
456,72.0,57,61,1.0,0.0
457,69.0,64,58,1.0,0.0
458,66.0,51,62,1.0,0.0
459,69.0,65,53,1.0,0.0
460,71.0,59,58,0.0,0.0
461,69.0,62,57,0.0,0.0
462,71.0,58,59,0.0,0.0
463,69.0,65,57,0.0,0.0
464,67.0,48,62,0.0,0.0
465,69.0,66,50,0.0,0.0
466,71.0,67,56,0.0,0.0
467,69.0,59,63,0.0,0.0
468,71.0,53,62,0.0,0.0
469,67.0,63,55,0.0,0.0
470,66.0,58,58,0.0,0.0
471,67.0,67,56,0.0,0.0
472,71.0,56,63,0.0,0.0
473,69.0,63,59,0.0,0.0
474,71.0,56,62,0.0,0.0
475,67.0,60,58,0.0,0.0
476,64.0,54,58,0.0,0.0
477,67.0,68,52,0.0,0.0
478,71.0,56,60,0.0,0.0
479,69.0,65,56,0.0,0.0
480,71.0,57,61,0.0,0.0
481,67.0,58,58,0.0,0.0
482,62.0,56,56,0.0,0.0
483,67.0,63,52,0.0,0.0
484,70.0,64,55,0.0,0.0
485,69.0,62,59,0.0,0.0
486,70.0,61,61,0.0,0.0
487,67.0,56,62,0.0,0.0
488,61.0,54,58,0.0,0.0
489,67.0,64,52,0.0,0.0
490,76.0,59,56,0.0,0.0
491,74.0,64,55,0.0,0.0
492,76.0,63,59,0.0,0.0
493,67.0,55,62,0.0,0.0
494,61.0,52,57,0.0,0.0
495,67.0,66,49,0.0,0.0
496,69.0,67,55,0.0,0.0
497,67.0,56,62,0.0,0.0
498,69.0,59,58,0.0,0.0
499,67.0,65,57,0.0,0.0
500,61.0,50,62,0.0,0.0
501,67.0,71,52,0.0,0.0
502,70.0,58,63,0.0,0.0
503,69.0,56,61,0.0,0.0
504,70.0,62,57,0.0,0.0
505,67.0,63,59,0.0,0.0
506,61.0,53,62,0.0,0.0
507,67.0,64,55,0.0,0.0
508,66.0,59,59,0.0,0.0
509,64.0,61,58,0.0,0.0
510,66.0,61,59,0.0,0.0
511,62.0,58,60,0.0,0.0
512,60.0,51,58,0.0,0.0
513,62.0,68,49,0.0,0.0
514,67.0,60,57,0.0,0.0
515,66.0,63,57,0.0,0.0
516,67.0,62,60,0.0,0.0
517,62.0,58,62,0.0,0.0
518,59.0,51,60,0.0,0.0
519,62.0,67,51,0.0,0.0
520,69.0,59,58,0.0,0.0
521,67.0,64,57,0.0,0.0
522,69.0,60,61,0.0,0.0
523,64.0,60,61,0.0,0.0
524,60.0,54,61,0.0,0.0
525,64.0,60,55,0.0,0.0
526,71.0,62,55,0.0,0.0
527,69.0,58,57,0.0,0.0
528,71.0,66,55,0.0,0.0
529,66.0,56,61,0.0,0.0
530,62.0,54,57,0.0,0.0
531,66.0,65,51,0.0,0.0
532,72.0,63,56,0.0,0.0
533,71.0,60,59,0.0,0.0
534,72.0,62,59,0.0,0.0
535,67.0,58,61,0.0,0.0
536,64.0,50,59,0.0,0.0
537,67.0,70,49,0.0,0.0
538,74.0,64,59,0.0,0.0
539,72.0,56,63,0.0,0.0
540,74.0,59,59,0.0,0.0
541,69.0,61,58,0.0,0.0
542,66.0,49,59,0.0,0.0
543,69.0,70,48,0.0,0.0
544,76.0,58,58,0.0,0.0
545,74.0,62,56,0.0,0.0
546,76.0,61,58,0.0,0.0
547,71.0,57,59,0.0,0.0
548,67.0,53,56,0.0,0.0
549,71.0,69,49,0.0,0.0
550,78.0,60,58,0.0,0.0
551,76.0,62,58,0.0,0.0
552,78.0,58,60,0.0,0.0
553,72.0,63,58,0.0,0.0
554,69.0,55,61,0.0,0.0
555,72.0,61,56,0.0,0.0
556,79.0,60,57,0.0,0.0
557,74.0,62,57,0.0,0.0
558,71.0,59,59,0.0,0.0
559,67.0,65,58,0.0,0.0
560,71.0,45,63,0.0,0.0
561,74.0,72,48,0.0,0.0
562,79.0,59,60,0.0,0.0
563,76.0,58,59,0.0,0.0
564,72.0,60,57,0.0,0.0
565,67.0,64,57,0.0,0.0
566,72.0,43,61,0.0,0.0
567,76.0,72,44,0.0,0.0
568,79.0,64,56,0.0,0.0
569,74.0,61,60,0.0,0.0
570,71.0,57,61,0.0,0.0
571,67.0,59,58,0.0,0.0
572,71.0,51,57,0.0,0.0
573,74.0,72,48,0.0,0.0
574,78.0,55,60,0.0,0.0
575,72.0,61,55,0.0,0.0
576,69.0,66,56,0.0,0.0
577,67.0,58,62,0.0,0.0
578,69.0,41,60,0.0,0.0
579,72.0,75,41,0.0,0.0
580,79.0,67,56,0.0,0.0
581,67.0,57,63,0.0,0.0
582,71.0,62,60,0.0,0.0
583,74.0,55,62,0.0,0.0
584,79.0,52,57,0.0,0.0
585,81.0,70,49,0.0,0.0
586,83.0,63,59,0.0,0.0
587,71.0,61,62,0.0,0.0
588,74.0,58,63,0.0,0.0
589,79.0,61,61,0.0,0.0
590,83.0,49,62,0.0,0.0
591,84.0,66,51,0.0,0.0
592,86.0,60,57,0.0,0.0
593,74.0,63,57,0.0,0.0
594,79.0,61,60,0.0,0.0
595,83.0,58,61,0.0,0.0
596,86.0,57,59,0.0,0.0
597,90.0,65,56,0.0,0.0
598,91.0,58,61,0.0,0.0
599,90.0,59,59,0.0,0.0
600,91.0,58,58,0.0,0.0
601,86.0,66,56,0.0,0.0
602,83.0,52,62,0.0,0.0
603,86.0,61,54,0.0,0.0
604,79.0,66,55,0.0,0.0
605,78.0,57,61,0.0,0.0
606,79.0,65,58,0.0,0.0
607,67.0,56,63,0.0,0.0
608,71.0,55,59,0.0,0.0
609,74.0,66,54,0.0,0.0
610,79.0,63,60,0.0,0.0
611,78.0,60,63,0.0,0.0
612,79.0,59,63,0.0,0.0
613,74.0,53,62,0.0,0.0
614,71.0,60,55,0.0,0.0
615,74.0,61,55,0.0,0.0
616,67.0,63,56,0.0,0.0
617,66.0,62,59,0.0,0.0
618,67.0,61,61,0.0,0.0
619,55.0,53,62,0.0,0.0
620,59.0,61,55,0.0,0.0
621,62.0,64,56,0.0,0.0
622,67.0,59,60,0.0,0.0
623,66.0,56,59,0.0,0.0
624,67.0,65,55,0.0,0.0
625,62.0,59,60,0.0,0.0
626,59.0,54,59,0.0,0.0
627,62.0,65,53,0.0,0.0
628,55.0,60,58,0.0,0.0
629,57.0,64,58,0.0,0.0
630,59.0,59,62,0.0,0.0
631,60.0,60,61,0.0,0.0
632,62.0,49,61,0.0,0.0
633,64.0,67,50,0.0,0.0
634,66.0,66,57,0.0,0.0
635,64.0,56,63,0.0,0.0
636,62.0,59,59,0.0,0.0
637,64.0,65,58,0.0,0.0
638,66.0,48,63,0.0,0.0
639,67.0,70,51,0.0,0.0
640,69.0,57,61,0.0,0.0
641,67.0,58,58,0.0,0.0
642,66.0,64,56,0.0,0.0
643,67.0,56,60,0.0,0.0
644,69.0,52,56,0.0,0.0
645,71.0,73,48,0.0,0.0
646,72.0,59,61,0.0,0.0
647,67.0,60,60,0.0,0.0
648,69.0,60,60,0.0,0.0
649,72.0,56,60,0.0,0.0
650,74.0,53,56,0.0,0.0
651,78.0,67,49,0.0,0.0
652,67.0,62,56,0.0,0.0
653,69.0,59,58,0.0,0.0
654,71.0,64,57,0.0,0.0
655,72.0,54,61,0.0,0.0
656,74.0,57,55,0.0,0.0
657,76.0,67,52,0.0,0.0
658,78.0,59,59,0.0,0.0
659,76.0,60,58,0.0,0.0
660,74.0,60,58,0.0,0.0
661,76.0,63,58,0.0,0.0
662,78.0,53,61,0.0,0.0
663,79.0,63,54,0.0,0.0
664,81.0,66,57,0.0,0.0
665,79.0,60,63,0.0,0.0
666,78.0,55,63,0.0,0.0
667,79.0,59,58,0.0,0.0
668,81.0,54,57,0.0,0.0
669,83.0,66,51,0.0,0.0
670,84.0,60,57,0.0,0.0
671,79.0,64,57,0.0,0.0
672,81.0,55,61,0.0,0.0
673,84.0,64,56,0.0,0.0
674,86.0,56,60,0.0,0.0
675,90.0,720,56,0.0,0.0
676,43.0,17,937,4.0,0.0
677,83.0,294,657,2.0,0.0
678,86.0,3,474,1.0,0.0
679,67.0,221,236,3.0,0.0
680,91.0,6,651,0.0,0.0
681,66.0,174,237,3.0,0.0
682,84.0,3,1135,1.0,0.0
683,64.0,2,471,3.0,0.0
684,45.0,17,937,4.0,0.0
685,83.0,232,239,2.0,0.0
686,91.0,6,233,0.0,0.0
687,81.0,292,658,2.0,0.0
688,90.0,220,237,0.0,0.0
689,69.0,6,231,3.0,0.0
690,67.0,4,234,3.0,0.0
691,88.0,177,238,0.0,0.0
692,47.0,14,943,4.0,0.0
693,86.0,290,1136,0.0,0.0
694,66.0,6,470,3.0,0.0
695,84.0,3,236,1.0,0.0
696,81.0,233,239,2.0,0.0
697,67.0,78,385,3.0,0.0
698,79.0,153,232,2.0,0.0
699,83.0,1,655,1.0,0.0
700,78.0,178,237,2.0,0.0
701,67.0,5,466,3.0,0.0
702,76.0,19,939,2.0,0.0
703,48.0,2,937,4.0,0.0
704,83.0,8,231,1.0,0.0
705,86.0,239,239,0.0,0.0
706,84.0,3,653,0.0,0.0
707,81.0,219,238,1.0,0.0
708,69.0,290,656,3.0,0.0
709,79.0,175,238,1.0,0.0
710,74.0,59,2092,2.0,0.0
711,78.0,11,466,1.0,0.0
712,50.0,15,1902,4.0,0.0
713,69.0,0,237,3.0,0.0
714,84.0,240,237,0.0,0.0
715,71.0,229,237,3.0,0.0
716,79.0,296,659,1.0,0.0
717,83.0,8,466,0.0,0.0
718,72.0,185,234,3.0,0.0
719,74.0,238,702,3.0,0.0
720,81.0,2,940,0.0,0.0
721,79.0,227,235,1.0,0.0
722,78.0,1,651,1.0,0.0
723,72.0,174,237,3.0,0.0
724,79.0,3,944,0.0,0.0
725,71.0,243,231,3.0,0.0
726,52.0,52,660,4.0,0.0
727,69.0,0,234,3.0,0.0
728,74.0,181,239,2.0,0.0
729,78.0,5,234,1.0,0.0
730,76.0,2,467,1.0,0.0
731,72.0,219,232,2.0,0.0
732,67.0,5,469,3.0,0.0
733,50.0,13,211,4.0,0.0
734,71.0,240,234,2.0,0.0
735,74.0,8,940,1.0,0.0
736,69.0,5,466,2.0,0.0
737,48.0,5,473,4.0,0.0
738,66.0,125,234,3.0,0.0
739,81.0,2,471,0.0,0.0
740,64.0,107,119,3.0,0.0
741,62.0,103,118,3.0,0.0
742,47.0,14,468,4.0,0.0
743,83.0,138,101,0.0,0.0
744,67.0,297,652,3.0,0.0
745,84.0,115,119,0.0,0.0
746,81.0,106,114,0.0,0.0
747,83.0,170,122,0.0,0.0
748,76.0,7,469,1.0,0.0
749,84.0,291,1137,0.0,0.0
750,45.0,8,707,4.0,0.0
751,72.0,12,939,2.0,0.0
752,67.0,231,236,3.0,0.0
753,81.0,4,653,1.0,0.0
754,66.0,224,235,3.0,0.0
755,64.0,176,237,3.0,0.0
756,43.0,6,231,4.0,0.0
757,42.0,4,468,4.0,0.0
758,74.0,7,940,2.0,0.0
759,62.0,1,939,3.0,0.0
760,84.0,236,238,0.0,0.0
761,81.0,6,232,1.0,0.0
762,79.0,225,234,1.0,0.0
763,43.0,9,831,4.0,0.0
764,83.0,7,467,0.0,0.0
765,78.0,56,234,1.0,0.0
766,85.0,60,60,0.0,0.0
767,76.0,6,470,1.0,0.0
768,69.0,1,469,3.0,0.0
769,86.0,50,60,0.0,0.0
770,86.0,50,50,0.0,0.0
771,85.0,50,50,0.0,0.0
772,86.0,50,50,0.0,0.0
773,83.0,109,120,0.0,0.0
774,85.0,41,50,0.0,0.0
775,81.0,237,116,0.0,0.0
776,78.0,4,830,2.0,0.0
777,81.0,420,1005,1.0,0.0
778,86.0,119,834,0.0,0.0
779,62.0,4,233,3.0,0.0
780,42.0,241,237,4.0,0.0
781,43.0,236,239,4.0,0.0
782,64.0,1,238,3.0,0.0
783,66.0,115,235,3.0,0.0
784,45.0,3,945,4.0,0.0
785,67.0,52,233,3.0,0.0
786,69.0,296,652,3.0,0.0
787,76.0,2,468,2.0,0.0
788,85.0,8,470,0.0,0.0
789,79.0,174,238,1.0,0.0
790,47.0,5,939,4.0,0.0
791,86.0,6,944,0.0,0.0
792,78.0,3,468,1.0,0.0
793,74.0,8,471,2.0,0.0
794,69.0,237,239,3.0,0.0
795,67.0,223,236,3.0,0.0
796,79.0,4,470,2.0,0.0
797,83.0,59,655,1.0,0.0
798,66.0,181,234,3.0,0.0
799,79.0,237,234,2.0,0.0
800,49.0,6,945,4.0,0.0
801,88.0,8,937,0.0,0.0
802,64.0,4,473,3.0,0.0
803,83.0,242,237,1.0,0.0
804,78.0,2,231,2.0,0.0
805,76.0,3,656,2.0,0.0
806,69.0,296,659,3.0,0.0
807,81.0,218,239,1.0,0.0
808,79.0,185,231,1.0,0.0
809,50.0,11,945,4.0,0.0
810,81.0,0,1136,0.0,0.0
811,78.0,3,709,1.0,0.0
812,67.0,2,235,3.0,0.0
813,76.0,232,237,2.0,0.0
814,66.0,186,656,3.0,0.0
815,74.0,233,232,2.0,0.0
816,72.0,0,236,2.0,0.0
817,76.0,180,236,1.0,0.0
818,71.0,16,943,2.0,0.0
819,43.0,6,937,4.0,0.0
820,74.0,112,362,1.0,0.0
821,81.0,5,234,0.0,0.0
822,66.0,236,239,3.0,0.0
823,79.0,293,658,0.0,0.0
824,64.0,222,235,3.0,0.0
825,76.0,7,651,1.0,0.0
826,62.0,172,239,3.0,0.0
827,61.0,2,471,3.0,0.0
828,69.0,62,1135,2.0,0.0
829,45.0,51,1378,4.0,0.0
830,79.0,6,233,0.0,0.0
831,76.0,232,239,1.0,0.0
832,78.0,6,231,0.0,0.0
833,74.0,6,949,1.0,0.0
834,62.0,236,237,3.0,0.0
835,64.0,5,233,3.0,0.0
836,79.0,177,238,0.0,0.0
837,81.0,13,705,0.0,0.0
838,66.0,181,237,3.0,0.0
839,71.0,229,236,2.0,0.0
840,67.0,1,235,3.0,0.0
841,69.0,112,2758,3.0,0.0
842,73.0,3,471,2.0,0.0
843,57.0,233,238,4.0,0.0
844,74.0,0,239,1.0,0.0
845,83.0,5,234,0.0,0.0
846,55.0,237,239,4.0,0.0
847,54.0,122,239,4.0,0.0
848,79.0,1,467,1.0,0.0
849,85.0,3,236,0.0,0.0
850,76.0,7,468,2.0,0.0
851,52.0,4,235,4.0,0.0
852,83.0,106,121,0.0,0.0
853,81.0,236,119,0.0,0.0
854,78.0,200,238,1.0,0.0
855,54.0,2,235,4.0,0.0
856,74.0,1,237,2.0,0.0
857,86.0,79,842,0.0,0.0
858,78.0,241,232,2.0,0.0
859,50.0,34,198,4.0,0.0
860,81.0,129,473,1.0,0.0
861,76.0,10,937,2.0,0.0
862,57.0,37,441,4.0,0.0
863,83.0,237,238,1.0,0.0
864,85.0,247,467,0.0,0.0
865,81.0,217,235,1.0,0.0
866,45.0,5,452,4.0,0.0
867,79.0,124,474,1.0,0.0
868,74.0,3,470,2.0,0.0
869,50.0,14,940,4.0,0.0
870,86.0,150,567,0.0,0.0
871,78.0,94,233,1.0,0.0
872,74.0,223,237,3.0,0.0
873,81.0,5,474,2.0,0.0
874,90.0,299,653,0.0,0.0
875,86.0,1,652,1.0,0.0
876,73.0,173,239,3.0,0.0
877,52.0,11,942,4.0,0.0
878,71.0,2,473,3.0,0.0
879,79.0,2,940,2.0,0.0
880,90.0,239,235,0.0,0.0
881,86.0,1,232,1.0,0.0
882,88.0,297,655,0.0,0.0
883,85.0,0,234,1.0,0.0
884,76.0,226,234,3.0,0.0
885,74.0,6,233,3.0,0.0
886,83.0,176,239,1.0,0.0
887,73.0,3,472,3.0,0.0
888,78.0,57,1135,2.0,0.0
889,82.0,8,945,1.0,0.0
890,54.0,8,937,4.0,0.0
891,88.0,237,235,0.0,0.0
892,86.0,222,235,0.0,0.0
893,74.0,3,232,3.0,0.0
894,76.0,2,233,3.0,0.0
895,85.0,180,235,0.0,0.0
896,55.0,134,583,4.0,0.0
897,74.0,240,232,3.0,0.0
898,83.0,11,937,0.0,0.0
899,73.0,104,239,3.0,0.0
900,78.0,5,232,2.0,0.0
901,81.0,2,237,1.0,0.0
902,71.0,1,471,3.0,0.0
903,76.0,220,237,2.0,0.0
904,79.0,3,468,1.0,0.0
905,74.0,0,231,2.0,0.0
906,54.0,247,232,4.0,0.0
907,78.0,18,944,1.0,0.0
908,52.0,248,467,4.0,0.0
909,73.0,1,466,2.0,0.0
910,82.0,116,239,0.0,0.0
911,66.0,0,944,3.0,0.0
912,80.0,111,115,0.0,0.0
913,71.0,228,719,2.0,0.0
914,83.0,122,235,0.0,0.0
915,50.0,68,651,4.0,0.0
916,85.0,107,117,0.0,0.0
917,86.0,169,122,0.0,0.0
918,88.0,446,982,0.0,0.0
919,80.0,6,467,1.0,0.0
920,64.0,9,703,3.0,0.0
921,76.0,1,233,2.0,0.0
922,50.0,229,234,4.0,0.0
923,78.0,4,232,2.0,0.0
924,82.0,2,236,1.0,0.0
925,49.0,233,238,4.0,0.0
926,47.0,1,238,4.0,0.0
927,83.0,0,231,1.0,0.0
928,62.0,23,239,3.0,0.0
929,79.0,7,231,2.0,0.0
930,85.0,0,473,1.0,0.0
931,61.0,242,473,3.0,0.0
932,78.0,58,1137,2.0,0.0
933,46.0,3,468,4.0,0.0
934,88.0,2,231,0.0,0.0
935,47.0,2,474,4.0,0.0
936,83.0,234,235,1.0,0.0
937,86.0,2,655,0.0,0.0
938,62.0,5,469,3.0,0.0
939,81.0,179,236,1.0,0.0
940,79.0,270,2099,1.0,0.0
941,40.0,10,466,4.0,0.0
942,64.0,231,235,3.0,0.0
943,86.0,1,238,0.0,0.0
944,66.0,2,236,3.0,0.0
945,78.0,240,239,2.0,0.0
946,85.0,238,239,0.0,0.0
947,52.0,2,713,4.0,0.0
948,67.0,236,715,3.0,0.0
949,76.0,5,1187,2.0,0.0
950,83.0,234,237,0.0,0.0
951,84.0,2,231,0.0,0.0
952,82.0,228,239,0.0,0.0
953,54.0,1,231,4.0,0.0
954,66.0,7,232,3.0,0.0
955,55.0,219,232,4.0,0.0
956,71.0,4,468,3.0,0.0
957,83.0,8,651,0.0,0.0
958,74.0,179,232,2.0,0.0
959,52.0,17,211,4.0,0.0
960,54.0,22,449,4.0,0.0
961,73.0,10,940,2.0,0.0
962,66.0,1,1431,3.0,0.0
963,83.0,4,231,0.0,0.0
964,79.0,244,235,1.0,0.0
965,82.0,242,470,0.0,0.0
966,42.0,6,454,4.0,0.0
967,78.0,215,239,1.0,0.0
968,76.0,239,472,1.0,0.0
969,47.0,13,940,4.0,0.0
970,83.0,245,472,0.0,0.0
971,71.0,0,471,2.0,0.0
972,74.0,0,231,1.0,0.0
973,79.0,223,237,2.0,0.0
974,86.0,5,654,0.0,0.0
975,67.0,9,946,3.0,0.0
976,83.0,287,659,1.0,0.0
977,78.0,181,233,2.0,0.0
978,48.0,14,941,4.0,0.0
979,76.0,4,1131,2.0,0.0
980,86.0,237,238,0.0,0.0
981,83.0,3,235,1.0,0.0
982,84.0,292,655,0.0,0.0
983,69.0,8,947,3.0,0.0
984,81.0,226,235,1.0,0.0
985,79.0,176,235,1.0,0.0
986,78.0,9,943,1.0,0.0
987,50.0,291,1135,4.0,0.0
988,76.0,237,236,2.0,0.0
989,84.0,1,235,0.0,0.0
990,71.0,239,954,3.0,0.0
991,74.0,1,472,2.0,0.0
992,83.0,230,233,0.0,0.0
993,81.0,182,233,0.0,0.0
994,76.0,2,470,2.0,0.0
995,79.0,1,466,0.0,0.0
996,76.0,3,467,1.0,0.0
997,50.0,2,232,4.0,0.0
998,69.0,231,236,3.0,0.0
999,78.0,1,235,1.0,0.0
1000,74.0,6,467,2.0,0.0
1001,48.0,2,233,4.0,0.0
1002,81.0,0,235,0.0,0.0
1003,79.0,1,233,1.0,0.0
1004,67.0,205,239,3.0,0.0
1005,83.0,0,234,0.0,0.0
1006,47.0,5,234,4.0,0.0
1007,45.0,7,204,4.0,0.0
1008,81.0,294,1137,1.0,0.0
1009,66.0,265,211,3.0,0.0
1010,84.0,0,1137,0.0,0.0
1011,72.0,9,945,2.0,0.0
1012,67.0,1,236,3.0,0.0
1013,47.0,235,237,4.0,0.0
1014,66.0,229,236,3.0,0.0
1015,45.0,4,232,4.0,0.0
1016,43.0,4,234,4.0,0.0
1017,64.0,179,238,3.0,0.0
1018,62.0,10,941,3.0,0.0
1019,74.0,301,1137,2.0,0.0
1020,42.0,6,471,4.0,0.0
1021,84.0,0,231,0.0,0.0
1022,81.0,240,237,1.0,0.0
1023,43.0,5,471,4.0,0.0
1024,79.0,224,237,1.0,0.0
1025,83.0,5,652,0.0,0.0
1026,78.0,176,236,1.0,0.0
1027,76.0,148,1047,1.0,0.0
1028,64.0,13,942,3.0,0.0
1029,48.0,7,707,4.0,0.0
1030,83.0,1,238,0.0,0.0
1031,74.0,228,239,2.0,0.0
1032,72.0,2,951,2.0,0.0
1033,81.0,228,234,0.0,0.0
1034,47.0,92,235,4.0,0.0
1035,79.0,0,235,0.0,0.0
1036,78.0,1,470,0.0,0.0
1037,45.0,6,473,4.0,0.0
1038,69.0,0,471,3.0,0.0
1039,76.0,235,115,1.0,0.0
1040,74.0,234,239,1.0,0.0
1041,76.0,1,233,1.0,0.0
1042,67.0,235,236,3.0,0.0
1043,74.0,2,234,2.0,0.0
1044,79.0,0,233,0.0,0.0
1045,47.0,0,234,4.0,0.0
1046,48.0,5,232,4.0,0.0
1047,81.0,0,237,0.0,0.0
1048,72.0,1,231,3.0,0.0
1049,76.0,112,237,2.0,0.0
1050,79.0,243,943,1.0,0.0
1051,74.0,5,471,2.0,0.0
1052,50.0,79,624,4.0,0.0
1053,71.0,128,109,3.0,0.0
1054,83.0,5,466,0.0,0.0
1055,66.0,111,117,3.0,0.0
1056,67.0,118,108,3.0,0.0
1057,61.0,148,116,3.0,0.0
1058,81.0,1,472,0.0,0.0
1059,72.0,6,466,2.0,0.0
1060,62.0,83,864,3.0,0.0
1061,78.0,239,236,1.0,0.0
1062,38.0,3,233,4.0,0.0
1063,79.0,9,941,0.0,0.0
1064,72.0,149,235,2.0,0.0
1065,43.0,5,467,4.0,0.0
1066,71.0,245,232,2.0,0.0
1067,76.0,224,237,2.0,0.0
1068,55.0,297,651,4.0,0.0
1069,71.0,2,470,3.0,0.0
1070,74.0,176,235,2.0,0.0
1071,77.0,3,232,1.0,0.0
1072,72.0,7,472,2.0,0.0
1073,76.0,4,468,1.0,0.0
1074,69.0,8,943,3.0,0.0
1075,81.0,1,942,0.0,0.0
1076,55.0,234,239,4.0,0.0
1077,53.0,227,235,4.0,0.0
1078,74.0,2,233,2.0,0.0
1079,77.0,0,471,1.0,0.0
1080,72.0,6,231,2.0,0.0
1081,52.0,238,237,4.0,0.0
1082,83.0,1,470,0.0,0.0
1083,50.0,0,470,4.0,0.0
1084,68.0,119,235,3.0,0.0
1085,76.0,5,937,1.0,0.0
1086,71.0,3,471,2.0,0.0
1087,66.0,116,114,3.0,0.0
1088,64.0,123,114,3.0,0.0
1089,48.0,56,659,4.0,0.0
1090,69.0,232,715,3.0,0.0
1091,84.0,119,117,0.0,0.0
1092,86.0,123,116,0.0,0.0
1093,83.0,98,119,0.0,0.0
1094,84.0,197,102,0.0,0.0
1095,78.0,1,467,1.0,0.0
1096,74.0,9,468,2.0,0.0
1097,86.0,296,1131,0.0,0.0
1098,48.0,234,237,4.0,0.0
1099,62.0,2,473,3.0,0.0
1100,47.0,2,231,4.0,0.0
1101,80.0,0,233,1.0,0.0
1102,76.0,236,235,2.0,0.0
1103,45.0,2,235,4.0,0.0
1104,81.0,2,231,1.0,0.0
1105,77.0,174,237,2.0,0.0
1106,60.0,2,233,3.0,0.0
1107,83.0,7,471,1.0,0.0
1108,44.0,1,467,4.0,0.0
1109,76.0,293,1139,2.0,0.0
1110,59.0,3,468,3.0,0.0
1111,86.0,239,238,0.0,0.0
1112,45.0,7,472,4.0,0.0
1113,84.0,6,653,0.0,0.0
1114,81.0,231,237,1.0,0.0
1115,60.0,4,468,3.0,0.0
1116,79.0,174,239,1.0,0.0
1117,78.0,17,941,1.0,0.0
1118,38.0,4,472,4.0,0.0
1119,62.0,2,939,3.0,0.0
1120,76.0,0,236,2.0,0.0
1121,84.0,239,236,0.0,0.0
1122,83.0,2,235,0.0,0.0
1123,74.0,222,237,2.0,0.0
1124,50.0,24,656,4.0,0.0
1125,81.0,1,238,0.0,0.0
1126,72.0,51,239,2.0,0.0
1127,76.0,185,1194,1.0,0.0
1128,81.0,50,50,0.0,0.0
1129,64.0,135,2627,3.0,0.0
1130,71.0,8,474,2.0,0.0
1131,80.0,50,50,0.0,0.0
1132,81.0,26,50,0.0,0.0
1133,80.0,50,50,0.0,0.0
1134,81.0,50,50,0.0,0.0
1135,78.0,116,115,0.0,0.0
1136,50.0,3,231,4.0,0.0
1137,80.0,55,50,0.0,0.0
1138,76.0,234,122,0.0,0.0
1139,81.0,7,949,0.0,0.0
1140,48.0,238,236,4.0,0.0
1141,72.0,3,474,2.0,0.0
1142,50.0,237,237,4.0,0.0
1143,52.0,50,419,4.0,0.0
1144,71.0,5,942,2.0,0.0
1145,77.0,235,236,1.0,0.0
1146,40.0,242,474,4.0,0.0
1147,80.0,7,467,0.0,0.0
1148,76.0,231,231,1.0,0.0
1149,74.0,127,476,1.0,0.0
1150,81.0,108,363,0.0,0.0
1151,69.0,8,471,2.0,0.0
1152,45.0,16,937,4.0,0.0
1153,72.0,228,239,1.0,0.0
1154,84.0,125,588,0.0,0.0
1155,81.0,2,713,1.0,0.0
1156,76.0,5,473,2.0,0.0
1157,69.0,95,122,3.0,0.0
1158,67.0,110,118,3.0,0.0
1159,47.0,3,938,4.0,0.0
1160,66.0,125,235,3.0,0.0
1161,74.0,13,941,2.0,0.0
1162,81.0,1,232,1.0,0.0
1163,84.0,4,233,0.0,0.0
1164,64.0,112,120,3.0,0.0
1165,62.0,234,117,3.0,0.0
1166,79.0,227,231,1.0,0.0
1167,83.0,60,654,0.0,0.0
1168,67.0,6,947,3.0,0.0
1169,78.0,180,234,1.0,0.0
1170,48.0,8,937,4.0,0.0
1171,74.0,233,234,2.0,0.0
1172,76.0,6,945,1.0,0.0
1173,74.0,6,233,2.0,0.0
1174,83.0,236,239,0.0,0.0
1175,72.0,56,659,2.0,0.0
1176,69.0,235,715,3.0,0.0
1177,81.0,222,235,0.0,0.0
1178,79.0,188,231,0.0,0.0
1179,74.0,3,473,1.0,0.0
1180,78.0,3,470,0.0,0.0
1181,50.0,7,940,4.0,0.0
1182,67.0,241,236,3.0,0.0
1183,72.0,0,236,2.0,0.0
1184,71.0,223,237,2.0,0.0
1185,86.0,291,658,0.0,0.0
1186,66.0,12,467,3.0,0.0
1187,78.0,3,655,1.0,0.0
1188,69.0,176,239,2.0,0.0
1189,64.0,2,474,3.0,0.0
1190,52.0,10,939,4.0,0.0
1191,67.0,5,469,2.0,0.0
1192,78.0,239,237,1.0,0.0
1193,86.0,1,236,0.0,0.0
1194,84.0,223,236,0.0,0.0
1195,76.0,296,656,1.0,0.0
1196,67.0,4,469,3.0,0.0
1197,72.0,76,580,2.0,0.0
1198,83.0,107,233,0.0,0.0
1199,69.0,2,945,3.0,0.0
1200,54.0,3,942,4.0,0.0
1201,81.0,1,472,0.0,0.0
1202,71.0,5,233,2.0,0.0
1203,76.0,240,238,1.0,0.0
1204,74.0,224,238,1.0,0.0
1205,69.0,4,467,2.0,0.0
1206,93.0,58,653,0.0,0.0
1207,72.0,182,231,1.0,0.0
1208,71.0,232,238,3.0,0.0
1209,71.0,1,470,2.0,0.0
1210,55.0,9,941,4.0,0.0
1211,86.0,7,231,1.0,0.0
1212,84.0,3,236,1.0,0.0
1213,72.0,5,231,3.0,0.0
1214,93.0,233,239,0.0,0.0
1215,86.0,4,470,1.0,0.0
1216,83.0,228,233,2.0,0.0
1217,74.0,54,658,3.0,0.0
1218,91.0,1,232,0.0,0.0
1219,81.0,2,234,2.0,0.0
1220,89.0,182,236,0.0,0.0
1221,84.0,1,237,1.0,0.0
1222,48.0,1,232,4.0,0.0
1223,79.0,4,233,2.0,0.0
1224,88.0,236,238,0.0,0.0
1225,50.0,0,239,4.0,0.0
1226,74.0,1,234,3.0,0.0
1227,90.0,4,235,0.0,0.0
1228,78.0,0,239,2.0,0.0
1229,83.0,234,239,1.0,0.0
1230,72.0,5,234,3.0,0.0
1231,76.0,124,718,2.0,0.0
1232,81.0,1,233,1.0,0.0
1233,52.0,233,239,4.0,0.0
1234,91.0,0,953,0.0,0.0
1235,79.0,1,236,1.0,0.0
1236,71.0,236,237,3.0,0.0
1237,50.0,4,232,4.0,0.0
1238,48.0,4,233,4.0,0.0
1239,81.0,1,237,1.0,0.0
1240,69.0,11,939,3.0,0.0
1241,84.0,3,236,2.0,0.0
1242,88.0,3,233,1.0,0.0
1243,47.0,111,122,4.0,0.0
1244,45.0,239,119,4.0,0.0
1245,86.0,221,238,1.0,0.0
1246,81.0,46,613,2.0,0.0
1247,50.0,8,470,4.0,0.0
1248,90.0,55,659,0.0,0.0
1249,84.0,135,238,1.0,0.0
1250,83.0,228,965,1.0,0.0
1251,55.0,335,590,4.0,0.0
1252,71.0,240,234,3.0,0.0
1253,75.0,1,234,3.0,0.0
1254,90.0,1,235,0.0,0.0
1255,81.0,114,236,2.0,0.0
1256,76.0,14,471,3.0,0.0
1257,88.0,3,467,0.0,0.0
1258,79.0,1,470,2.0,0.0
1259,57.0,22,205,4.0,0.0
1260,59.0,37,438,4.0,0.0
1261,71.0,2,1433,3.0,0.0
1262,78.0,4,942,2.0,0.0
1263,88.0,205,233,0.0,0.0
1264,84.0,4,235,1.0,0.0
1265,84.0,232,239,0.0,0.0
1266,87.0,129,466,0.0,0.0
1267,83.0,110,231,1.0,0.0
1268,47.0,121,341,4.0,0.0
1269,81.0,241,355,1.0,0.0
1270,52.0,2,471,4.0,0.0
1271,76.0,3,356,2.0,0.0
1272,88.0,131,703,0.0,0.0
1273,79.0,112,119,1.0,0.0
1274,78.0,2,115,2.0,0.0
1275,81.0,226,117,1.0,0.0
1276,83.0,0,657,1.0,0.0
1277,79.0,291,657,2.0,0.0
1278,64.0,7,948,3.0,0.0
1279,40.0,117,354,4.0,0.0
1280,86.0,186,231,0.0,0.0
1281,45.0,18,940,4.0,0.0
1282,84.0,295,1139,0.0,0.0
1283,83.0,4,235,1.0,0.0
1284,79.0,240,239,2.0,0.0
1285,66.0,1,954,3.0,0.0
1286,78.0,221,239,2.0,0.0
1287,81.0,5,654,1.0,0.0
1288,76.0,176,238,2.0,0.0
1289,47.0,4,940,4.0,0.0
1290,75.0,4,944,2.0,0.0
1291,81.0,4,235,1.0,0.0
1292,84.0,236,239,0.0,0.0
1293,79.0,225,235,1.0,0.0
1294,67.0,10,468,3.0,0.0
1295,83.0,58,658,0.0,0.0
1296,78.0,180,238,1.0,0.0
1297,48.0,6,710,4.0,0.0
1298,76.0,4,706,1.0,0.0
1299,67.0,241,236,3.0,0.0
1300,83.0,212,239,0.0,0.0
1301,74.0,2,237,2.0,0.0
1302,68.0,0,237,3.0,0.0
1303,72.0,15,211,2.0,0.0
1304,69.0,235,236,3.0,0.0
1305,81.0,59,654,0.0,0.0
1306,49.0,175,239,4.0,0.0
1307,64.0,6,231,3.0,0.0
1308,76.0,1,237,2.0,0.0
1309,79.0,1,238,1.0,0.0
1310,50.0,232,237,4.0,0.0
1311,66.0,1,472,3.0,0.0
1312,78.0,3,469,1.0,0.0
1313,74.0,4,233,2.0,0.0
1314,81.0,0,233,0.0,0.0
1315,72.0,185,233,2.0,0.0
1316,51.0,0,232,4.0,0.0
1317,76.0,2,231,1.0,0.0
1318,71.0,83,572,2.0,0.0
1319,67.0,207,233,3.0,0.0
1320,79.0,56,655,0.0,0.0
1321,52.0,53,178,4.0,0.0
1322,75.0,94,238,1.0,0.0
1323,66.0,4,234,3.0,0.0
1324,43.0,34,200,4.0,0.0
1325,64.0,11,940,3.0,0.0
1326,76.0,7,353,1.0,0.0
1327,48.0,8,231,4.0,0.0
1328,74.0,114,119,2.0,0.0
1329,79.0,2,235,0.0,0.0
1330,47.0,3,232,4.0,0.0
1331,72.0,112,120,2.0,0.0
1332,74.0,5,117,1.0,0.0
1333,71.0,229,122,2.0,0.0
1334,78.0,4,234,0.0,0.0
1335,69.0,222,238,2.0,0.0
1336,48.0,3,231,4.0,0.0
1337,72.0,2,472,1.0,0.0
1338,67.0,1,231,2.0,0.0
1339,45.0,296,411,4.0,0.0
1340,76.0,177,234,0.0,0.0
1341,71.0,175,1192,1.0,0.0
1342,66.0,2,467,2.0,0.0
1343,59.0,2,2390,3.0,0.0
1344,75.0,2,469,0.0,0.0
1345,45.0,248,231,4.0,0.0
1346,67.0,5,474,2.0,0.0
1347,76.0,5,948,0.0,0.0
1348,43.0,235,239,4.0,0.0
1349,45.0,233,239,4.0,0.0
1350,47.0,61,407,4.0,0.0
1351,66.0,13,939,2.0,0.0
1352,72.0,241,233,1.0,0.0
1353,71.0,129,234,1.0,0.0
1354,35.0,96,363,4.0,0.0
1355,75.0,187,472,0.0,0.0
1356,69.0,52,419,1.0,0.0
1357,76.0,9,944,0.0,0.0
1358,40.0,128,231,4.0,0.0
1359,64.0,4,940,2.0,0.0
1360,67.0,111,119,1.0,0.0
1361,43.0,6,232,4.0,0.0
1362,66.0,240,118,1.0,0.0
1363,48.0,222,238,4.0,0.0
1364,64.0,59,655,3.0,0.0
1365,67.0,1,473,1.0,0.0
1366,47.0,181,234,4.0,0.0
1367,45.0,245,234,4.0,0.0
1368,72.0,147,568,1.0,0.0
1369,69.0,150,747,2.0,0.0
1370,78.0,10,942,0.0,0.0
1371,42.0,0,239,4.0,0.0
1372,64.0,89,239,3.0,0.0
1373,47.0,45,417,4.0,0.0
1374,63.0,2,472,3.0,0.0
1375,72.0,32,115,1.0,0.0
1376,71.0,61,412,1.0,0.0
1377,69.0,178,114,2.0,0.0
1378,79.0,13,940,0.0,0.0
1379,64.0,1,473,3.0,0.0
1380,67.0,238,474,2.0,0.0
1381,40.0,127,233,4.0,0.0
1382,47.0,0,233,4.0,0.0
1383,76.0,113,120,1.0,0.0
1384,75.0,0,114,1.0,0.0
1385,76.0,130,826,1.0,0.0
1386,52.0,228,232,4.0,0.0
1387,71.0,5,473,2.0,0.0
1388,67.0,60,651,3.0,0.0
1389,50.0,173,238,4.0,0.0
1390,81.0,152,1048,0.0,0.0
1391,48.0,115,231,4.0,0.0
1392,72.0,146,740,2.0,0.0
1393,45.0,121,238,4.0,0.0
1394,67.0,2,236,3.0,0.0
1395,50.0,66,406,4.0,0.0
1396,66.0,6,472,3.0,0.0
1397,74.0,120,119,1.0,0.0
1398,76.0,21,119,1.0,0.0
1399,74.0,2,707,1.0,0.0
1400,72.0,90,118,2.0,0.0
1401,67.0,147,570,3.0,0.0
1402,71.0,100,470,2.0,0.0
1403,43.0,8,943,4.0,0.0
1404,83.0,114,120,0.0,0.0
1405,81.0,113,114,0.0,0.0
1406,79.0,1,109,0.0,0.0
1407,91.0,60,655,0.0,0.0
1408,86.0,131,471,1.0,0.0
1409,83.0,3,652,2.0,0.0
1410,69.0,124,117,3.0,0.0
1411,67.0,91,121,3.0,0.0
1412,65.0,11,92,3.0,0.0
1413,84.0,3,943,1.0,0.0
1414,64.0,50,122,3.0,0.0
1415,45.0,1,942,4.0,0.0
1416,65.0,126,115,3.0,0.0
1417,64.0,84,121,3.0,0.0
1418,91.0,0,235,0.0,0.0
1419,83.0,119,235,2.0,0.0
1420,62.0,30,85,3.0,0.0
1421,60.0,125,114,3.0,0.0
1422,90.0,341,605,0.0,0.0
1423,81.0,139,466,2.0,0.0
1424,64.0,119,119,3.0,0.0
1425,62.0,88,118,3.0,0.0
1426,60.0,16,86,3.0,0.0
1427,79.0,2,1132,2.0,0.0
1428,47.0,3,469,4.0,0.0
1429,67.0,3,466,3.0,0.0
1430,86.0,1,472,1.0,0.0
1431,90.0,245,233,0.0,0.0
1432,48.0,6,470,4.0,0.0
1433,60.0,0,470,3.0,0.0
1434,84.0,232,238,1.0,0.0
1435,88.0,65,654,0.0,0.0
1436,82.0,176,236,1.0,0.0
1437,81.0,16,937,1.0,0.0
1438,41.0,3,471,4.0,0.0
1439,60.0,122,239,3.0,0.0
1440,79.0,1,238,2.0,0.0
1441,62.0,110,121,3.0,0.0
1442,88.0,4,234,0.0,0.0
1443,64.0,237,119,3.0,0.0
1444,53.0,9,591,4.0,0.0
1445,77.0,219,238,2.0,0.0
1446,65.0,5,473,3.0,0.0
1447,86.0,2,236,0.0,0.0
1448,84.0,0,238,0.0,0.0
1449,76.0,62,238,2.0,0.0
1450,67.0,74,2315,3.0,0.0
1451,74.0,9,468,2.0,0.0
1452,84.0,51,60,0.0,0.0
1453,79.0,230,1196,1.0,0.0
1454,83.0,60,60,0.0,0.0
1455,84.0,60,60,0.0,0.0
1456,83.0,60,60,0.0,0.0
1457,53.0,3,237,4.0,0.0
1458,84.0,60,60,0.0,0.0
1459,83.0,60,60,0.0,0.0
1460,84.0,48,60,0.0,0.0
1461,83.0,237,60,0.0,0.0
1462,52.0,2,237,4.0,0.0
1463,72.0,115,239,2.0,0.0
1464,84.0,0,951,0.0,0.0
1465,76.0,61,114,2.0,0.0
1466,53.0,36,175,4.0,0.0
1467,74.0,265,91,2.0,0.0
1468,55.0,0,466,4.0,0.0
1469,76.0,5,466,2.0,0.0
1470,81.0,243,231,1.0,0.0
1471,43.0,114,354,4.0,0.0
1472,83.0,4,468,0.0,0.0
1473,74.0,7,472,2.0,0.0
1474,79.0,120,234,1.0,0.0
1475,77.0,235,239,1.0,0.0
1476,72.0,5,469,2.0,0.0
1477,76.0,0,469,1.0,0.0
1478,48.0,161,234,4.0,0.0
1479,84.0,237,474,0.0,0.0
1480,47.0,0,234,4.0,0.0
1481,88.0,58,658,0.0,0.0
1482,45.0,198,231,4.0,0.0
1483,69.0,90,1342,3.0,0.0
1484,84.0,2,656,1.0,0.0
1485,76.0,185,231,2.0,0.0
1486,43.0,42,189,4.0,0.0
1487,81.0,236,236,2.0,0.0
1488,42.0,3,472,4.0,0.0
1489,88.0,234,238,0.0,0.0
1490,83.0,3,235,1.0,0.0
1491,79.0,0,235,2.0,0.0
1492,81.0,108,718,1.0,0.0
1493,54.0,138,244,4.0,0.0
1494,86.0,6,232,0.0,0.0
1495,78.0,6,238,2.0,0.0
1496,84.0,4,232,0.0,0.0
1497,76.0,236,236,2.0,0.0
1498,83.0,15,346,0.0,0.0
1499,71.0,4,234,3.0,0.0
1500,55.0,2,232,4.0,0.0
1501,74.0,3,474,2.0,0.0
1502,79.0,110,121,1.0,0.0
1503,69.0,2,237,3.0,0.0
1504,54.0,3,231,4.0,0.0
1505,78.0,238,119,1.0,0.0
1506,76.0,56,597,2.0,0.0
1507,79.0,239,712,1.0,0.0
1508,67.0,1,237,3.0,0.0
1509,83.0,59,653,0.0,0.0
1510,52.0,238,238,4.0,0.0
1511,50.0,118,239,4.0,0.0
1512,66.0,3,236,3.0,0.0
1513,64.0,0,472,3.0,0.0
1514,48.0,233,961,4.0,0.0
1515,83.0,1,231,0.0,0.0
1516,77.0,3,232,1.0,0.0
1517,74.0,236,235,2.0,0.0
1518,72.0,231,237,2.0,0.0
1519,81.0,6,231,0.0,0.0
1520,76.0,3,468,1.0,0.0
1521,69.0,6,472,3.0,0.0
1522,71.0,1,231,2.0,0.0
1523,79.0,3,238,0.0,0.0
1524,78.0,6,466,0.0,0.0
1525,74.0,2,472,1.0,0.0
1526,69.0,232,234,2.0,0.0
1527,62.0,6,709,3.0,0.0
1528,81.0,0,234,2.0,0.0
1529,48.0,235,234,4.0,0.0
1530,47.0,235,237,4.0,0.0
1531,80.0,2,235,2.0,0.0
1532,86.0,8,949,1.0,0.0
1533,89.0,290,656,0.0,0.0
1534,60.0,1,232,3.0,0.0
1535,45.0,181,235,4.0,0.0
1536,81.0,2,233,2.0,0.0
1537,44.0,0,467,4.0,0.0
1538,59.0,1,466,3.0,0.0
1539,83.0,2,467,2.0,0.0
1540,89.0,234,237,0.0,0.0
1541,88.0,174,231,0.0,0.0
1542,71.0,7,466,3.0,0.0
1543,83.0,115,715,1.0,0.0
1544,56.0,61,405,4.0,0.0
1545,76.0,1,953,2.0,0.0
1546,86.0,238,233,0.0,0.0
1547,57.0,3,231,4.0,0.0
1548,72.0,1,234,3.0,0.0
1549,84.0,5,350,0.0,0.0
1550,71.0,3,238,3.0,0.0
1551,55.0,4,234,4.0,0.0
1552,81.0,118,115,1.0,0.0
1553,80.0,234,121,1.0,0.0
1554,53.0,1,235,4.0,0.0
1555,81.0,1,715,1.0,0.0
1556,69.0,1,950,3.0,0.0
1557,81.0,235,236,2.0,0.0
1558,84.0,59,656,0.0,0.0
1559,79.0,179,237,2.0,0.0
1560,52.0,6,231,4.0,0.0
1561,77.0,234,236,2.0,0.0
1562,50.0,360,1071,4.0,0.0
1563,84.0,235,236,0.0,0.0
1564,76.0,4,232,2.0,0.0
1565,79.0,1,231,1.0,0.0
1566,77.0,117,474,1.0,0.0
1567,83.0,236,234,0.0,0.0
1568,74.0,3,231,2.0,0.0
1569,71.0,1,470,3.0,0.0
1570,72.0,1,231,2.0,0.0
1571,81.0,2,232,0.0,0.0
1572,64.0,4,707,3.0,0.0
1573,80.0,2,472,0.0,0.0
1574,76.0,1,471,1.0,0.0
1575,71.0,5,474,2.0,0.0
1576,50.0,228,239,4.0,0.0
1577,78.0,2,237,1.0,0.0
1578,72.0,0,237,2.0,0.0
1579,48.0,232,239,4.0,0.0
1580,81.0,6,231,0.0,0.0
1581,74.0,193,235,2.0,0.0
1582,47.0,1,231,4.0,0.0
1583,80.0,1,233,1.0,0.0
1584,62.0,1,232,3.0,0.0
1585,83.0,1,234,0.0,0.0
1586,45.0,23,211,4.0,0.0
1587,76.0,3,208,2.0,0.0
1588,69.0,3,708,3.0,0.0
1589,84.0,20,188,0.0,0.0
1590,81.0,240,234,1.0,0.0
1591,81.0,229,239,1.0,0.0
1592,85.0,0,239,0.0,0.0
1593,55.0,0,234,4.0,0.0
1594,76.0,5,234,2.0,0.0
1595,53.0,219,235,4.0,0.0
1596,83.0,1,234,1.0,0.0
1597,77.0,3,231,2.0,0.0
1598,86.0,0,234,0.0,0.0
1599,67.0,1,237,3.0,0.0
1600,52.0,19,214,4.0,0.0
1601,85.0,2,233,1.0,0.0
1602,88.0,203,238,0.0,0.0
1603,79.0,2,235,2.0,0.0
1604,81.0,21,216,2.0,0.0
1605,89.0,15,201,0.0,0.0
1606,50.0,0,237,4.0,0.0
1607,86.0,234,237,1.0,0.0
1608,74.0,0,237,3.0,0.0
1609,86.0,1,235,1.0,0.0
1610,69.0,2,236,3.0,0.0
1611,48.0,0,235,4.0,0.0
1612,81.0,4,231,2.0,0.0
1613,90.0,235,238,0.0,0.0
1614,92.0,4,233,0.0,0.0
1615,83.0,1,238,2.0,0.0
1616,86.0,101,239,1.0,0.0
1617,47.0,1,237,4.0,0.0
1618,64.0,90,340,3.0,0.0
1619,88.0,1,237,1.0,0.0
1620,93.0,45,190,0.0,0.0
1621,45.0,2,235,4.0,0.0
1622,84.0,233,238,2.0,0.0
1623,83.0,235,233,2.0,0.0
1624,44.0,2,231,4.0,0.0
1625,86.0,3,470,0.0,0.0
1626,64.0,3,708,3.0,0.0
1627,83.0,2,468,1.0,0.0
1628,80.0,1,233,2.0,0.0
1629,40.0,234,234,4.0,0.0
1630,81.0,2,949,1.0,0.0
1631,76.0,4,231,2.0,0.0
1632,45.0,193,236,4.0,0.0
1633,84.0,1,235,0.0,0.0
1634,50.0,43,189,4.0,0.0
1635,65.0,235,237,3.0,0.0
1636,83.0,0,237,0.0,0.0
1637,74.0,5,232,2.0,0.0
1638,64.0,117,1077,3.0,0.0
1639,52.0,106,360,4.0,0.0
1640,72.0,128,232,2.0,0.0
1641,84.0,3,466,0.0,0.0
1642,74.0,245,231,2.0,0.0
1643,80.0,6,473,1.0,0.0
1644,83.0,4,469,0.0,0.0
1645,76.0,108,236,2.0,0.0
1646,40.0,125,344,4.0,0.0
1647,74.0,118,239,2.0,0.0
1648,45.0,117,836,4.0,0.0
1649,72.0,122,472,2.0,0.0
1650,81.0,7,352,0.0,0.0
1651,69.0,118,114,3.0,0.0
1652,67.0,92,119,3.0,0.0
1653,65.0,21,91,3.0,0.0
1654,64.0,123,114,3.0,0.0
1655,88.0,0,474,1.0,0.0
1656,93.0,46,651,0.0,0.0
1657,84.0,1,473,2.0,0.0
1658,62.0,117,117,3.0,0.0
1659,64.0,2,114,3.0,0.0
1660,60.0,177,114,3.0,0.0
1661,86.0,48,1131,1.0,0.0
1662,84.0,21,217,2.0,0.0
1663,47.0,8,942,4.0,0.0
1664,62.0,119,238,3.0,0.0
1665,84.0,6,231,2.0,0.0
1666,93.0,238,237,0.0,0.0
1667,64.0,106,117,3.0,0.0
1668,65.0,8,103,3.0,0.0
1669,67.0,52,599,3.0,0.0
1670,83.0,8,470,2.0,0.0
1671,91.0,227,235,0.0,0.0
1672,89.0,121,238,0.0,0.0
1673,88.0,79,966,0.0,0.0
1674,83.0,16,219,2.0,0.0
1675,48.0,11,942,4.0,0.0
1676,64.0,119,115,3.0,0.0
1677,69.0,120,114,3.0,0.0
1678,83.0,3,236,2.0,0.0
1679,86.0,238,239,1.0,0.0
1680,68.0,2,114,3.0,0.0
1681,81.0,225,237,2.0,0.0
1682,84.0,8,712,1.0,0.0
1683,69.0,147,565,3.0,0.0
1684,79.0,13,233,2.0,0.0
1685,78.0,4,471,2.0,0.0
1686,50.0,9,937,4.0,0.0
1687,69.0,116,120,3.0,0.0
1688,88.0,120,237,0.0,0.0
1689,71.0,115,116,3.0,0.0
1690,84.0,1,235,1.0,0.0
1691,72.0,1,116,3.0,0.0
1692,77.0,8,466,2.0,0.0
1693,74.0,122,117,3.0,0.0
1694,83.0,1,239,1.0,0.0
1695,86.0,46,484,0.0,0.0
1696,72.0,120,120,3.0,0.0
1697,71.0,97,120,3.0,0.0
1698,81.0,8,236,1.0,0.0
1699,72.0,2,114,3.0,0.0
1700,80.0,4,474,1.0,0.0
1701,76.0,61,2091,2.0,0.0
1702,72.0,50,50,3.0,0.0
1703,52.0,80,1827,4.0,0.0
1704,71.0,50,50,3.0,0.0
1705,72.0,50,50,3.0,0.0
1706,71.0,50,50,3.0,0.0
1707,72.0,50,50,3.0,0.0
1708,86.0,5,238,0.0,0.0
1709,71.0,50,50,3.0,0.0
1710,72.0,50,50,3.0,0.0
1711,71.0,23,50,3.0,0.0
1712,69.0,51,63,3.0,0.0
1713,71.0,230,63,3.0,0.0
1714,81.0,120,592,1.0,0.0
1715,84.0,12,466,0.0,0.0
1716,72.0,233,233,3.0,0.0
1717,74.0,114,238,3.0,0.0
1718,76.0,130,232,3.0,0.0
1719,83.0,157,710,0.0,0.0
1720,81.0,233,237,1.0,0.0
1721,71.0,53,122,3.0,0.0
1722,74.0,60,55,3.0,0.0
1723,72.0,2,55,3.0,0.0
1724,74.0,5,467,3.0,0.0
1725,80.0,5,472,1.0,0.0
1726,83.0,174,237,0.0,0.0
1727,54.0,12,937,4.0,0.0
1728,72.0,240,232,3.0,0.0
1729,81.0,1,952,0.0,0.0
1730,71.0,4,232,3.0,0.0
1731,76.0,461,236,2.0,0.0
1732,69.0,3,469,3.0,0.0
1733,74.0,2,1422,2.0,0.0
1734,79.0,238,233,1.0,0.0
1735,68.0,2,466,3.0,0.0
1736,77.0,235,231,1.0,0.0
1737,56.0,251,468,4.0,0.0
1738,83.0,11,944,0.0,0.0
1739,76.0,0,1424,1.0,0.0
1740,48.0,236,600,4.0,0.0
1741,68.0,117,239,3.0,0.0
1742,66.0,106,116,3.0,0.0
1743,64.0,125,115,3.0,0.0
1744,72.0,233,704,2.0,0.0
1745,69.0,17,937,3.0,0.0
1746,81.0,175,529,0.0,0.0
1747,47.0,120,116,4.0,0.0
1748,45.0,53,116,4.0,0.0
1749,53.0,1,713,4.0,0.0
1750,81.0,6,234,0.0,0.0
1751,74.0,2,474,1.0,0.0
1752,72.0,233,120,2.0,0.0
1753,83.0,116,238,0.0,0.0
1754,71.0,2,236,2.0,0.0
1755,67.0,0,238,3.0,0.0
1756,69.0,121,114,3.0,0.0
1757,52.0,2,235,4.0,0.0
1758,76.0,1,238,2.0,0.0
1759,79.0,0,235,1.0,0.0
1760,85.0,1,237,0.0,0.0
1761,70.0,237,119,3.0,0.0
1762,81.0,237,713,1.0,0.0
1763,86.0,54,659,0.0,0.0
1764,74.0,118,239,2.0,0.0
1765,69.0,186,473,3.0,0.0
1766,53.0,3,236,4.0,0.0
1767,77.0,4,711,2.0,0.0
1768,52.0,87,117,4.0,0.0
1769,50.0,29,84,4.0,0.0
1770,74.0,1,470,3.0,0.0
1771,58.0,5,705,4.0,0.0
1772,86.0,230,235,0.0,0.0
1773,79.0,5,470,1.0,0.0
1774,72.0,7,467,3.0,0.0
1775,76.0,1,235,2.0,0.0
1776,88.0,231,236,0.0,0.0
1777,90.0,236,238,0.0,0.0
1778,75.0,0,235,2.0,0.0
1779,57.0,1,234,4.0,0.0
1780,81.0,3,235,1.0,0.0
1781,74.0,236,235,2.0,0.0
1782,70.0,1,471,3.0,0.0
1783,58.0,1,234,4.0,0.0
1784,79.0,2,472,1.0,0.0
1785,91.0,0,235,0.0,0.0
1786,52.0,233,239,4.0,0.0
1787,76.0,3,234,2.0,0.0
1788,85.0,2,237,0.0,0.0
1789,69.0,0,1795,3.0,0.0
1790,86.0,240,952,0.0,0.0
1791,53.0,117,239,4.0,0.0
1792,81.0,198,712,1.0,0.0
1793,74.0,7,232,2.0,0.0
1794,52.0,90,116,4.0,0.0
1795,77.0,233,239,2.0,0.0
1796,50.0,33,86,4.0,0.0
1797,76.0,4,942,2.0,0.0
1798,57.0,41,430,4.0,0.0
1799,82.0,1,231,1.0,0.0
1800,85.0,142,466,0.0,0.0
1801,81.0,153,232,1.0,0.0
1802,45.0,77,385,4.0,0.0
1803,79.0,227,368,1.0,0.0
1804,86.0,187,944,0.0,0.0
1805,74.0,13,703,2.0,0.0
1806,50.0,11,469,4.0,0.0
1807,78.0,114,115,1.0,0.0
1808,76.0,223,120,1.0,0.0
1809,74.0,60,651,3.0,0.0
1810,78.0,121,236,1.0,0.0
1811,79.0,2,117,1.0,0.0
1812,76.0,90,119,2.0,0.0
1813,78.0,2,89,2.0,0.0
1814,81.0,13,91,1.0,0.0
1815,79.0,128,232,2.0,0.0
1816,82.0,1,231,1.0,0.0
1817,88.0,6,937,0.0,0.0
1818,74.0,242,233,3.0,0.0
1819,78.0,1,120,2.0,0.0
1820,81.0,100,121,1.0,0.0
1821,82.0,7,101,1.0,0.0
1822,79.0,5,108,2.0,0.0
1823,72.0,306,652,3.0,0.0
1824,81.0,107,238,2.0,0.0
1825,84.0,3,235,1.0,0.0
1826,79.0,17,105,2.0,0.0
1827,82.0,95,122,1.0,0.0
1828,84.0,12,103,1.0,0.0
1829,81.0,177,115,2.0,0.0
1830,86.0,13,704,1.0,0.0
1831,90.0,12,942,0.0,0.0
1832,74.0,2,702,2.0,0.0
1833,72.0,224,238,3.0,0.0
1834,70.0,225,237,3.0,0.0
1835,69.0,235,239,3.0,0.0
1836,87.0,3,236,1.0,0.0
1837,72.0,2,234,2.0,0.0
1838,86.0,1,236,1.0,0.0
1839,91.0,4,942,0.0,0.0
1840,70.0,2,234,3.0,0.0
1841,74.0,121,237,2.0,0.0
1842,84.0,4,232,1.0,0.0
1843,72.0,240,238,3.0,0.0
1844,76.0,114,118,2.0,0.0
1845,78.0,2,116,2.0,0.0
1846,55.0,459,488,4.0,0.0
1847,82.0,3,472,1.0,0.0
1848,74.0,6,466,3.0,0.0
1849,79.0,224,238,2.0,0.0
1850,77.0,13,235,2.0,0.0
1851,81.0,3,471,1.0,0.0
1852,76.0,1,470,2.0,0.0
1853,93.0,10,1898,0.0,0.0
1854,73.0,3,467,3.0,0.0
1855,55.0,238,234,4.0,0.0
1856,77.0,3,235,2.0,0.0
1857,74.0,3,232,3.0,0.0
1858,83.0,233,239,1.0,0.0
1859,53.0,1,238,4.0,0.0
1860,52.0,0,232,4.0,0.0
1861,85.0,0,232,1.0,0.0
1862,76.0,0,232,3.0,0.0
1863,79.0,242,232,2.0,0.0
1864,54.0,231,235,4.0,0.0
1865,86.0,3,466,1.0,0.0
1866,81.0,6,469,2.0,0.0
1867,69.0,1,234,3.0,0.0
1868,71.0,239,238,3.0,0.0
1869,55.0,3,235,4.0,0.0
1870,72.0,2,468,3.0,0.0
1871,84.0,4,470,1.0,0.0
1872,57.0,120,715,4.0,0.0
1873,76.0,221,237,2.0,0.0
1874,78.0,241,234,2.0,0.0
1875,74.0,233,1199,3.0,0.0
1876,79.0,4,707,2.0,0.0
1877,82.0,1,706,1.0,0.0
1878,94.0,3,703,0.0,0.0
1879,55.0,119,115,4.0,0.0
1880,54.0,229,114,4.0,0.0
1881,55.0,242,231,4.0,0.0
1882,93.0,0,234,0.0,0.0
1883,84.0,3,234,1.0,0.0
1884,78.0,236,237,2.0,0.0
1885,57.0,1,233,4.0,0.0
1886,79.0,4,233,2.0,0.0
1887,91.0,2,702,0.0,0.0
1888,86.0,13,704,1.0,0.0
1889,59.0,2,237,4.0,0.0
1890,76.0,225,237,3.0,0.0
1891,81.0,3,234,2.0,0.0
1892,61.0,2,232,4.0,0.0
1893,62.0,0,468,4.0,0.0
1894,77.0,6,468,3.0,0.0
1895,82.0,122,237,2.0,0.0
1896,89.0,234,239,0.0,0.0
1897,81.0,3,473,2.0,0.0
1898,86.0,109,119,1.0,0.0
1899,84.0,5,114,1.0,0.0
1900,55.0,240,236,4.0,0.0
1901,82.0,2,706,1.0,0.0
1902,87.0,2,708,0.0,0.0
1903,79.0,242,710,2.0,0.0
1904,57.0,230,236,4.0,0.0
1905,58.0,237,604,4.0,0.0
1906,81.0,3,232,1.0,0.0
1907,74.0,0,236,3.0,0.0
1908,86.0,128,236,0.0,0.0
1909,77.0,1,235,2.0,0.0
1910,79.0,1,473,1.0,0.0
1911,85.0,3,470,0.0,0.0
1912,76.0,5,474,2.0,0.0
1913,57.0,109,121,4.0,0.0
1914,55.0,233,119,4.0,0.0
1915,86.0,74,285,0.0,0.0
1916,53.0,53,232,4.0,0.0
1917,81.0,82,384,1.0,0.0
1918,77.0,2,474,2.0,0.0
1919,74.0,8,466,3.0,0.0
1920,52.0,25,119,4.0,0.0
1921,50.0,242,116,4.0,0.0
1922,76.0,5,944,2.0,0.0
1923,57.0,112,362,4.0,0.0
1924,81.0,124,238,1.0,0.0
1925,86.0,240,474,0.0,0.0
1926,82.0,0,234,1.0,0.0
1927,69.0,1,1420,3.0,0.0
1928,81.0,152,234,1.0,0.0
1929,45.0,78,386,4.0,0.0
1930,85.0,250,469,0.0,0.0
1931,79.0,108,479,1.0,0.0
1932,50.0,15,941,4.0,0.0
1933,86.0,9,347,0.0,0.0
1934,74.0,238,702,2.0,0.0
1935,77.0,125,116,1.0,0.0
1936,76.0,221,121,1.0,0.0
1937,77.0,344,607,1.0,0.0
1938,86.0,93,514,0.0,0.0
1939,72.0,38,236,2.0,0.0
1940,67.0,1,941,3.0,0.0
1941,71.0,1,471,2.0,0.0
1942,52.0,5,942,4.0,0.0
1943,77.0,236,239,1.0,0.0
1944,86.0,7,232,0.0,0.0
1945,84.0,299,653,0.0,0.0
1946,72.0,226,235,2.0,0.0
1947,76.0,8,467,1.0,0.0
1948,71.0,178,235,2.0,0.0
1949,69.0,6,937,3.0,0.0
1950,74.0,6,472,1.0,0.0
1951,54.0,10,943,4.0,0.0
1952,84.0,237,238,0.0,0.0
1953,81.0,240,473,1.0,0.0
1954,83.0,222,235,0.0,0.0
1955,74.0,12,947,2.0,0.0
1956,81.0,117,478,0.0,0.0
1957,67.0,5,233,3.0,0.0
1958,55.0,61,406,4.0,0.0
1959,83.0,11,942,1.0,0.0
1960,71.0,3,239,3.0,0.0
1961,79.0,51,115,0.0,0.0
1962,78.0,231,122,0.0,0.0
1963,76.0,3,233,3.0,0.0
1964,79.0,4,474,0.0,0.0
1965,79.0,226,236,2.0,0.0
1966,55.0,128,591,4.0,0.0
1967,74.0,1,233,3.0,0.0
1968,77.0,113,238,2.0,0.0
1969,81.0,13,938,1.0,0.0
1970,72.0,229,239,3.0,0.0
1971,76.0,3,468,2.0,0.0
1972,55.0,237,234,4.0,0.0
1973,71.0,3,231,3.0,0.0
1974,74.0,227,231,2.0,0.0
1975,69.0,117,472,3.0,0.0
1976,53.0,368,589,4.0,0.0
1977,72.0,1,231,2.0,0.0
1978,74.0,2,943,2.0,0.0
1979,83.0,6,945,1.0,0.0
1980,67.0,18,1898,3.0,0.0
1981,53.0,239,237,4.0,0.0
1982,52.0,227,236,4.0,0.0
1983,50.0,246,231,4.0,0.0
1984,79.0,7,709,2.0,0.0
1985,52.0,7,702,4.0,0.0
1986,84.0,241,237,1.0,0.0
1987,86.0,224,238,1.0,0.0
1988,84.0,222,236,1.0,0.0
1989,91.0,372,578,0.0,0.0
1990,82.0,101,237,1.0,0.0
1991,77.0,1,236,2.0,0.0
1992,50.0,0,236,4.0,0.0
1993,69.0,11,941,3.0,0.0
1994,76.0,1,470,2.0,0.0
1995,81.0,3,938,1.0,0.0
1996,49.0,1,471,4.0,0.0
1997,91.0,246,232,0.0,0.0
1998,89.0,57,658,0.0,0.0
1999,74.0,220,238,2.0,0.0
2000,50.0,7,472,4.0,0.0
2001,72.0,179,239,2.0,0.0
2002,79.0,236,235,1.0,0.0
2003,71.0,0,940,3.0,0.0
2004,55.0,15,940,4.0,0.0
2005,74.0,243,236,2.0,0.0
2006,89.0,3,233,0.0,0.0
2007,81.0,2,231,1.0,0.0
2008,79.0,309,644,2.0,0.0
2009,88.0,221,239,0.0,0.0
2010,83.0,12,632,1.0,0.0
2011,86.0,157,235,0.0,0.0
2012,88.0,10,937,0.0,0.0
2013,72.0,4,709,3.0,0.0
2014,83.0,235,234,1.0,0.0
2015,77.0,1,233,2.0,0.0
2016,81.0,224,233,1.0,0.0
2017,48.0,292,656,4.0,0.0
2018,76.0,4,467,2.0,0.0
2019,79.0,2,231,1.0,0.0
2020,71.0,183,233,3.0,0.0
2021,78.0,1,468,2.0,0.0
2022,81.0,3,469,1.0,0.0
2023,86.0,16,941,0.0,0.0
2024,69.0,243,473,3.0,0.0
2025,48.0,1,232,4.0,0.0
2026,67.0,4,952,3.0,0.0
2027,83.0,222,239,1.0,0.0
2028,47.0,106,613,4.0,0.0
2029,79.0,3,236,2.0,0.0
2030,81.0,1,237,1.0,0.0
2031,78.0,135,238,2.0,0.0
2032,79.0,6,466,1.0,0.0
2033,84.0,57,1138,0.0,0.0
2034,76.0,227,239,2.0,0.0
2035,47.0,3,236,4.0,0.0
2036,74.0,237,239,2.0,0.0
2037,72.0,0,236,2.0,0.0
2038,78.0,3,236,1.0,0.0
2039,60.0,232,239,3.0,0.0
2040,45.0,0,236,4.0,0.0
2041,79.0,183,235,1.0,0.0
2042,59.0,2,233,3.0,0.0
2043,76.0,1,232,2.0,0.0
2044,43.0,1,231,4.0,0.0
2045,57.0,233,235,3.0,0.0
2046,81.0,3,468,1.0,0.0
2047,74.0,2,1136,2.0,0.0
2048,42.0,6,471,4.0,0.0
2049,62.0,6,467,3.0,0.0
2050,84.0,230,237,0.0,0.0
2051,83.0,4,652,0.0,0.0
2052,43.0,1,470,4.0,0.0
2053,79.0,237,233,1.0,0.0
2054,77.0,181,231,1.0,0.0
2055,67.0,295,418,3.0,0.0
2056,76.0,6,942,1.0,0.0
2057,48.0,294,1136,4.0,0.0
2058,83.0,235,238,0.0,0.0
2059,74.0,1,237,2.0,0.0
2060,67.0,4,233,3.0,0.0
2061,69.0,7,468,3.0,0.0
2062,72.0,4,233,2.0,0.0
2063,81.0,225,237,0.0,0.0
2064,71.0,177,239,2.0,0.0
2065,79.0,4,235,0.0,0.0
2066,62.0,161,1195,3.0,0.0
2067,69.0,4,470,2.0,0.0
2068,78.0,0,470,0.0,0.0
2069,74.0,293,2095,1.0,0.0
2070,48.0,242,234,4.0,0.0
2071,71.0,6,472,2.0,0.0
2072,47.0,236,236,4.0,0.0
2073,79.0,5,946,0.0,0.0
2074,48.0,237,238,4.0,0.0
2075,50.0,70,396,4.0,0.0
2076,69.0,8,943,2.0,0.0
2077,64.0,247,231,3.0,0.0
2078,38.0,79,384,4.0,0.0
2079,62.0,146,238,3.0,0.0
2080,78.0,7,471,0.0,0.0
2081,60.0,177,238,3.0,0.0
2082,40.0,18,941,4.0,0.0
2083,67.0,3,938,2.0,0.0
2084,59.0,8,468,3.0,0.0
2085,79.0,1,937,0.0,0.0
2086,74.0,239,236,1.0,0.0
2087,72.0,304,653,1.0,0.0
2088,60.0,222,235,3.0,0.0
2089,59.0,174,239,3.0,0.0
2090,62.0,3,942,2.0,0.0
2091,42.0,4,938,4.0,0.0
2092,57.0,10,945,3.0,0.0
2093,81.0,274,1043,0.0,0.0
2094,72.0,242,237,1.0,0.0
2095,71.0,219,239,1.0,0.0
2096,69.0,88,235,1.0,0.0
2097,71.0,180,525,1.0,0.0
2098,43.0,10,944,4.0,0.0
2099,62.0,2,473,3.0,0.0
2100,67.0,8,705,2.0,0.0
2101,79.0,116,117,0.0,0.0
2102,78.0,50,115,0.0,0.0
2103,79.0,359,591,0.0,0.0
2104,64.0,231,233,3.0,0.0
2105,65.0,1,238,2.0,0.0
2106,71.0,112,239,1.0,0.0
2107,62.0,4,234,3.0,0.0
2108,45.0,11,937,4.0,0.0
2109,72.0,0,937,1.0,0.0
2110,64.0,1,470,2.0,0.0
2111,60.0,2,471,3.0,0.0
2112,79.0,239,233,0.0,0.0
2113,69.0,7,468,2.0,0.0
2114,77.0,300,652,0.0,0.0
2115,65.0,225,232,3.0,0.0
2116,64.0,177,235,3.0,0.0
2117,62.0,7,938,3.0,0.0
2118,67.0,4,1194,2.0,0.0
2119,74.0,56,1138,1.0,0.0
2120,47.0,14,945,4.0,0.0
2121,77.0,240,232,0.0,0.0
2122,76.0,226,232,0.0,0.0
2123,74.0,179,239,0.0,0.0
2124,76.0,3,468,0.0,0.0
2125,60.0,230,238,3.0,0.0
2126,48.0,14,944,4.0,0.0
2127,71.0,236,236,2.0,0.0
2128,74.0,0,236,1.0,0.0
2129,67.0,5,231,3.0,0.0
2130,72.0,232,232,1.0,0.0
2131,88.0,32,656,0.0,0.0
2132,69.0,2,654,3.0,0.0
2133,71.0,1,238,1.0,0.0
2134,67.0,175,239,2.0,0.0
2135,69.0,234,237,2.0,0.0
2136,50.0,17,940,4.0,0.0
2137,69.0,29,208,1.0,0.0
2138,84.0,235,237,1.0,0.0
2139,88.0,2,233,0.0,0.0
2140,69.0,2,235,2.0,0.0
2141,69.0,2,231,3.0,0.0
2142,86.0,239,715,0.0,0.0
2143,71.0,107,608,3.0,0.0
2144,78.0,16,592,2.0,0.0
2145,83.0,228,232,1.0,0.0
2146,81.0,115,237,1.0,0.0
2147,79.0,295,1136,1.0,0.0
2148,52.0,8,943,4.0,0.0
2149,78.0,1,236,2.0,0.0
2150,71.0,2,234,3.0,0.0
2151,86.0,234,237,0.0,0.0
2152,84.0,232,231,0.0,0.0
2153,72.0,1,653,3.0,0.0
2154,76.0,2,654,2.0,0.0
2155,83.0,182,231,0.0,0.0
2156,54.0,8,944,4.0,0.0
2157,81.0,3,471,0.0,0.0
2158,76.0,5,234,2.0,0.0
2159,79.0,234,239,1.0,0.0
2160,72.0,0,239,3.0,0.0
2161,93.0,229,719,0.0,0.0
2162,78.0,227,237,1.0,0.0
2163,74.0,4,233,2.0,0.0
2164,74.0,81,613,3.0,0.0
2165,76.0,5,232,1.0,0.0
2166,72.0,136,237,2.0,0.0
2167,71.0,7,468,2.0,0.0
2168,55.0,11,945,4.0,0.0
2169,74.0,25,214,1.0,0.0
2170,90.0,234,239,1.0,0.0
2171,93.0,1,238,0.0,0.0
2172,74.0,3,235,3.0,0.0
2173,88.0,232,233,1.0,0.0
2174,91.0,2,653,0.0,0.0
2175,83.0,3,655,2.0,0.0
2176,76.0,296,658,3.0,0.0
2177,86.0,177,236,1.0,0.0
2178,57.0,15,939,4.0,0.0
2179,84.0,295,1137,1.0,0.0
2180,91.0,3,236,0.0,0.0
2181,83.0,234,239,2.0,0.0
2182,76.0,2,234,3.0,0.0
2183,90.0,226,233,0.0,0.0
2184,81.0,1,656,2.0,0.0
2185,78.0,5,651,3.0,0.0
2186,88.0,177,234,0.0,0.0
2187,59.0,7,944,4.0,0.0
2188,86.0,296,1134,0.0,0.0
2189,81.0,5,232,2.0,0.0
2190,78.0,0,232,3.0,0.0
2191,84.0,240,237,1.0,0.0
2192,79.0,227,237,2.0,0.0
2193,83.0,0,654,1.0,0.0
2194,79.0,2,950,3.0,0.0
2195,78.0,183,231,2.0,0.0
2196,60.0,2,939,4.0,0.0
2197,76.0,11,941,2.0,0.0
2198,83.0,247,232,1.0,0.0
2199,86.0,0,232,0.0,0.0
2200,81.0,234,717,1.0,0.0
2201,81.0,220,239,3.0,0.0
2202,84.0,65,651,0.0,0.0
2203,79.0,179,232,3.0,0.0
2204,62.0,2,474,4.0,0.0
2205,74.0,57,1138,2.0,0.0
2206,78.0,1,236,3.0,0.0
2207,76.0,3,231,3.0,0.0
2208,84.0,2,236,0.0,0.0
2209,79.0,238,238,1.0,0.0
2210,50.0,6,467,4.0,0.0
2211,78.0,3,655,1.0,0.0
2212,74.0,2,236,3.0,0.0
2213,83.0,229,238,0.0,0.0
2214,72.0,5,233,3.0,0.0
2215,81.0,177,238,0.0,0.0
2216,52.0,130,578,4.0,0.0
2217,71.0,236,235,3.0,0.0
2218,79.0,8,708,0.0,0.0
2219,74.0,104,234,2.0,0.0
2220,69.0,3,231,3.0,0.0
2221,78.0,0,231,1.0,0.0
2222,72.0,233,236,2.0,0.0
2223,67.0,2,469,3.0,0.0
2224,76.0,4,473,1.0,0.0
2225,50.0,234,237,4.0,0.0
2226,71.0,0,237,2.0,0.0
2227,79.0,2,231,0.0,0.0
2228,74.0,1,233,1.0,0.0
2229,69.0,1,234,2.0,0.0
2230,66.0,4,235,3.0,0.0
2231,48.0,2,231,4.0,0.0
2232,81.0,234,239,0.0,0.0
2233,79.0,88,328,1.0,0.0
2234,74.0,3,234,2.0,0.0
2235,47.0,0,233,4.0,0.0
2236,83.0,1,233,0.0,0.0
2237,67.0,91,237,3.0,0.0
2238,45.0,63,237,4.0,0.0
2239,84.0,289,657,0.0,0.0
2240,69.0,1,470,3.0,0.0
2241,72.0,1,469,2.0,0.0
2242,78.0,49,56,1.0,0.0
2243,79.0,12,45,1.0,0.0
2244,43.0,186,231,4.0,0.0
2245,81.0,61,60,1.0,0.0
2246,79.0,54,61,1.0,0.0
2247,78.0,48,55,1.0,0.0
2248,79.0,6,43,1.0,0.0
2249,42.0,1,466,4.0,0.0
2250,62.0,11,467,3.0,0.0
2251,74.0,7,939,2.0,0.0
2252,81.0,7,704,1.0,0.0
2253,84.0,226,238,0.0,0.0
2254,67.0,8,466,3.0,0.0
2255,43.0,124,231,4.0,0.0
2256,83.0,54,657,0.0,0.0
2257,41.0,181,236,4.0,0.0
2258,79.0,104,115,1.0,0.0
2259,78.0,2,114,1.0,0.0
2260,60.0,15,703,3.0,0.0
2261,40.0,235,237,4.0,0.0
2262,72.0,56,1136,2.0,0.0
2263,79.0,6,231,1.0,0.0
2264,78.0,228,235,1.0,0.0
2265,38.0,1,232,4.0,0.0
2266,83.0,2,233,0.0,0.0
2267,36.0,6,469,4.0,0.0
2268,76.0,3,466,1.0,0.0
2269,81.0,228,238,0.0,0.0
2270,79.0,180,236,0.0,0.0
2271,59.0,1,235,3.0,0.0
2272,38.0,1,8152,4.0,0.0
2273,74.0,2,473,1.0,0.0
2274,78.0,125,232,0.0,0.0
2275,57.0,4,468,3.0,0.0
2276,76.0,111,117,0.0,0.0
2277,72.0,1,232,2.0,0.0
2278,74.0,244,115,0.0,0.0
2279,78.0,287,659,1.0,0.0
2280,62.0,8,470,3.0,0.0
2281,71.0,231,239,2.0,0.0
2282,86.0,1,658,0.0,0.0
2283,69.0,180,238,2.0,0.0
2284,79.0,6,466,2.0,0.0
2285,64.0,10,945,3.0,0.0
2286,67.0,1,944,3.0,0.0
2287,78.0,243,235,1.0,0.0
2288,86.0,3,232,0.0,0.0
2289,76.0,58,598,2.0,0.0
2290,84.0,226,238,0.0,0.0
2291,79.0,175,656,1.0,0.0
2292,83.0,123,235,0.0,0.0
2293,66.0,15,943,3.0,0.0
2294,69.0,5,938,3.0,0.0
2295,81.0,123,351,0.0,0.0
2296,79.0,235,238,1.0,0.0
2297,76.0,4,234,2.0,0.0
2298,78.0,221,237,1.0,0.0
2299,93.0,299,659,0.0,0.0
2300,74.0,4,233,2.0,0.0
2301,72.0,180,239,2.0,0.0
2302,76.0,1,238,1.0,0.0
2303,71.0,10,942,3.0,0.0
2304,74.0,352,589,1.0,0.0
2305,67.0,1,941,3.0,0.0
2306,93.0,111,238,0.0,0.0
2307,91.0,1,652,0.0,0.0
2308,86.0,180,232,1.0,0.0
2309,83.0,301,413,2.0,0.0
2310,84.0,342,1086,1.0,0.0
2311,72.0,15,942,3.0,0.0
2312,69.0,1,941,3.0,0.0
2313,83.0,237,237,2.0,0.0
2314,91.0,3,234,0.0,0.0
2315,90.0,222,239,0.0,0.0
2316,81.0,5,234,2.0,0.0
2317,88.0,0,237,0.0,0.0
2318,79.0,129,237,2.0,0.0
2319,78.0,3,468,2.0,0.0
2320,86.0,238,473,0.0,0.0
2321,71.0,14,942,3.0,0.0
2322,74.0,1,941,3.0,0.0
2323,84.0,2,231,1.0,0.0
2324,83.0,6,231,1.0,0.0
2325,79.0,224,237,2.0,0.0
2326,95.0,53,659,0.0,0.0
2327,81.0,181,238,1.0,0.0
2328,78.0,2,236,2.0,0.0
2329,76.0,11,706,3.0,0.0
2330,72.0,4,702,3.0,0.0
2331,79.0,240,232,1.0,0.0
2332,95.0,223,239,0.0,0.0
2333,83.0,4,232,1.0,0.0
2334,79.0,3,236,2.0,0.0
2335,88.0,8,466,1.0,0.0
2336,93.0,115,237,0.0,0.0
2337,84.0,9,352,2.0,0.0
2338,91.0,1,236,0.0,0.0
2339,78.0,105,121,3.0,0.0
2340,71.0,2,234,3.0,0.0
2341,79.0,235,117,3.0,0.0
2342,69.0,0,466,3.0,0.0
2343,90.0,9,466,0.0,0.0
2344,86.0,237,1663,1.0,0.0
2345,84.0,234,232,2.0,0.0
2346,74.0,1,1900,2.0,0.0
2347,83.0,240,235,2.0,0.0
2348,91.0,291,657,0.0,0.0
2349,81.0,237,235,2.0,0.0
2350,71.0,184,473,3.0,0.0
2351,79.0,1,232,2.0,0.0
2352,81.0,10,941,2.0,0.0
2353,69.0,4,468,3.0,0.0
2354,91.0,230,233,0.0,0.0
2355,62.0,0,474,3.0,0.0
2356,50.0,237,474,4.0,0.0
2357,90.0,2,472,0.0,0.0
2358,84.0,1,231,1.0,0.0
2359,49.0,1,235,4.0,0.0
2360,76.0,744,236,2.0,0.0
2361,91.0,4,231,0.0,0.0
2362,67.0,0,231,3.0,0.0
2363,79.0,0,236,2.0,0.0
2364,82.0,0,235,1.0,0.0
2365,49.0,2,235,4.0,0.0
2366,76.0,23,20,0.0,0.0
2367,78.0,20,23,0.0,0.0
2368,79.0,16,23,0.0,0.0
2369,81.0,23,19,0.0,0.0
2370,82.0,16,22,0.0,0.0
2371,91.0,23,18,0.0,0.0
2372,76.0,16,21,0.0,0.0
2373,78.0,22,17,0.0,0.0
2374,79.0,17,19,0.0,0.0
2375,81.0,21,16,0.0,0.0
2376,82.0,18,17,0.0,0.0
2377,91.0,20,17,0.0,0.0
2378,76.0,19,17,0.0,0.0
2379,78.0,21,16,0.0,0.0
2380,79.0,19,17,0.0,0.0
2381,81.0,20,16,0.0,0.0
2382,82.0,17,16,0.0,0.0
2383,91.0,31,13,0.0,0.0
2384,76.0,14,24,0.0,0.0
2385,49.0,5,96,4.0,0.0
2386,78.0,21,18,0.0,0.0
2387,79.0,22,19,0.0,0.0
2388,81.0,15,21,0.0,0.0
2389,82.0,17,21,0.0,0.0
2390,91.0,26,18,0.0,0.0
2391,48.0,3,236,4.0,0.0
2392,78.0,14,24,0.0,0.0
2393,81.0,25,18,0.0,0.0
2394,83.0,19,23,0.0,0.0
2395,85.0,15,22,0.0,0.0
2396,86.0,14,17,0.0,0.0
2397,93.0,32,11,0.0,0.0
2398,78.0,17,23,0.0,0.0
2399,81.0,19,20,0.0,0.0
2400,83.0,20,19,0.0,0.0
2401,85.0,17,19,0.0,0.0
2402,86.0,20,16,0.0,0.0
2403,93.0,25,19,0.0,0.0
2404,78.0,12,24,0.0,0.0
2405,81.0,25,16,0.0,0.0
2406,83.0,20,21,0.0,0.0
2407,85.0,17,21,0.0,0.0
2408,86.0,20,18,0.0,0.0
2409,93.0,23,18,0.0,0.0
2410,78.0,21,21,0.0,0.0
2411,48.0,14,89,4.0,0.0
2412,81.0,15,22,0.0,0.0
2413,83.0,27,17,0.0,0.0
2414,85.0,5,24,0.0,0.0
2415,86.0,11,23,0.0,0.0
2416,93.0,22,14,0.0,0.0
2417,47.0,4,235,4.0,0.0
2418,78.0,23,16,0.0,0.0
2419,82.0,22,19,0.0,0.0
2420,83.0,16,21,0.0,0.0
2421,85.0,21,17,0.0,0.0
2422,87.0,20,18,0.0,0.0
2423,93.0,20,18,0.0,0.0
2424,78.0,20,18,0.0,0.0
2425,82.0,19,18,0.0,0.0
2426,83.0,20,17,0.0,0.0
2427,85.0,27,17,0.0,0.0
2428,87.0,11,24,0.0,0.0
2429,93.0,25,19,0.0,0.0
2430,78.0,19,24,0.0,0.0
2431,82.0,14,23,0.0,0.0
2432,83.0,20,17,0.0,0.0
2433,85.0,25,17,0.0,0.0
2434,87.0,11,22,0.0,0.0
2435,93.0,25,13,0.0,0.0
2436,78.0,24,18,0.0,0.0
2437,47.0,18,84,4.0,0.0
2438,82.0,15,22,0.0,0.0
2439,83.0,23,17,0.0,0.0
2440,85.0,4,20,0.0,0.0
2441,87.0,17,22,0.0,0.0
2442,93.0,24,19,0.0,0.0
2443,79.0,14,23,0.0,0.0
2444,46.0,25,234,4.0,0.0
2445,83.0,26,17,0.0,0.0
2446,84.0,21,23,0.0,0.0
2447,86.0,13,24,0.0,0.0
2448,88.0,17,17,0.0,0.0
2449,91.0,29,14,0.0,0.0
2450,79.0,16,23,0.0,0.0
2451,83.0,25,19,0.0,0.0
2452,84.0,17,24,0.0,0.0
2453,86.0,17,21,0.0,0.0
2454,88.0,15,18,0.0,0.0
2455,91.0,1,13,0.0,0.0
2456,79.0,18,19,0.0,0.0
2457,83.0,25,17,0.0,0.0
2458,84.0,22,22,0.0,0.0
2459,86.0,20,24,0.0,0.0
2460,88.0,11,24,0.0,0.0
2461,91.0,25,15,0.0,0.0
2462,79.0,20,20,0.0,0.0
2463,46.0,10,92,4.0,0.0
2464,83.0,23,20,0.0,0.0
2465,84.0,15,23,0.0,0.0
2466,86.0,14,18,0.0,0.0
2467,88.0,12,22,0.0,0.0
2468,91.0,28,14,0.0,0.0
2469,45.0,26,237,4.0,0.0
2470,81.0,16,22,0.0,0.0
2471,83.0,19,18,0.0,0.0
2472,84.0,19,17,0.0,0.0
2473,86.0,22,16,0.0,0.0
2474,88.0,18,18,0.0,0.0
2475,96.0,23,16,0.0,0.0
2476,81.0,17,19,0.0,0.0
2477,83.0,23,16,0.0,0.0
2478,84.0,21,19,0.0,0.0
2479,86.0,19,20,0.0,0.0
2480,88.0,17,19,0.0,0.0
2481,96.0,1,16,0.0,0.0
2482,79.0,21,23,0.0,0.0
2483,83.0,18,24,0.0,0.0
2484,84.0,14,22,0.0,0.0
2485,86.0,28,16,0.0,0.0
2486,88.0,11,24,0.0,0.0
2487,96.0,27,15,0.0,0.0
2488,45.0,6,92,4.0,0.0
2489,79.0,16,22,0.0,0.0
2490,83.0,19,18,0.0,0.0
2491,84.0,24,17,0.0,0.0
2492,86.0,11,21,0.0,0.0
2493,88.0,20,18,0.0,0.0
2494,96.0,21,18,0.0,0.0
2495,45.0,0,234,4.0,0.0
2496,78.0,22,19,0.0,0.0
2497,82.0,16,21,0.0,0.0
2498,83.0,26,17,0.0,0.0
2499,85.0,21,23,0.0,0.0
2500,87.0,14,24,0.0,0.0
2501,95.0,25,18,0.0,0.0
2502,78.0,13,23,0.0,0.0
2503,82.0,24,16,0.0,0.0
2504,83.0,17,20,0.0,0.0
2505,85.0,20,17,0.0,0.0
2506,87.0,17,17,0.0,0.0
2507,95.0,29,14,0.0,0.0
2508,78.0,16,23,0.0,0.0
2509,82.0,22,19,0.0,0.0
2510,83.0,21,21,0.0,0.0
2511,85.0,18,22,0.0,0.0
2512,87.0,16,20,0.0,0.0
2513,95.0,20,16,0.0,0.0
2514,45.0,10,87,4.0,0.0
2515,78.0,21,16,0.0,0.0
2516,82.0,27,17,0.0,0.0
2517,83.0,18,24,0.0,0.0
2518,85.0,5,22,0.0,0.0
2519,87.0,20,17,0.0,0.0
2520,95.0,21,17,0.0,0.0
2521,77.0,20,18,0.0,0.0
2522,44.0,4,231,4.0,0.0
2523,82.0,19,18,0.0,0.0
2524,83.0,19,17,0.0,0.0
2525,85.0,21,16,0.0,0.0
2526,86.0,19,17,0.0,0.0
2527,95.0,24,16,0.0,0.0
2528,77.0,22,20,0.0,0.0
2529,82.0,15,22,0.0,0.0
2530,83.0,26,17,0.0,0.0
2531,85.0,19,23,0.0,0.0
2532,86.0,9,22,0.0,0.0
2533,95.0,21,15,0.0,0.0
2534,77.0,25,16,0.0,0.0
2535,82.0,16,21,0.0,0.0
2536,83.0,20,17,0.0,0.0
2537,85.0,21,17,0.0,0.0
2538,86.0,14,18,0.0,0.0
2539,95.0,24,12,0.0,0.0
2540,77.0,27,16,0.0,0.0
2541,44.0,5,91,4.0,0.0
2542,82.0,13,23,0.0,0.0
2543,83.0,23,16,0.0,0.0
2544,85.0,12,19,0.0,0.0
2545,86.0,15,16,0.0,0.0
2546,95.0,29,11,0.0,0.0
2547,43.0,24,237,4.0,0.0
2548,76.0,22,20,0.0,0.0
2549,80.0,19,22,0.0,0.0
2550,81.0,16,21,0.0,0.0
2551,83.0,22,17,0.0,0.0
2552,85.0,19,19,0.0,0.0
2553,93.0,18,18,0.0,0.0
2554,76.0,23,16,0.0,0.0
2555,80.0,24,19,0.0,0.0
2556,81.0,15,23,0.0,0.0
2557,83.0,25,18,0.0,0.0
2558,85.0,13,23,0.0,0.0
2559,93.0,1,16,0.0,0.0
2560,76.0,22,21,0.0,0.0
2561,80.0,16,23,0.0,0.0
2562,81.0,17,19,0.0,0.0
2563,83.0,23,16,0.0,0.0
2564,85.0,20,19,0.0,0.0
2565,93.0,18,19,0.0,0.0
2566,76.0,20,17,0.0,0.0
2567,43.0,8,89,4.0,0.0
2568,80.0,22,17,0.0,0.0
2569,81.0,22,19,0.0,0.0
2570,83.0,8,21,0.0,0.0
2571,85.0,14,17,0.0,0.0
2572,93.0,32,11,0.0,0.0
2573,42.0,21,239,4.0,0.0
2574,75.0,19,23,0.0,0.0
2575,80.0,19,22,0.0,0.0
2576,81.0,16,21,0.0,0.0
2577,83.0,26,17,0.0,0.0
2578,84.0,15,23,0.0,0.0
2579,93.0,22,18,0.0,0.0
2580,75.0,16,20,0.0,0.0
2581,80.0,25,16,0.0,0.0
2582,81.0,17,21,0.0,0.0
2583,83.0,20,18,0.0,0.0
2584,84.0,18,18,0.0,0.0
2585,93.0,3,16,0.0,0.0
2586,75.0,17,20,0.0,0.0
2587,80.0,27,17,0.0,0.0
2588,81.0,13,24,0.0,0.0
2589,83.0,22,17,0.0,0.0
2590,84.0,20,19,0.0,0.0
2591,93.0,20,19,0.0,0.0
2592,42.0,12,84,4.0,0.0
2593,75.0,19,19,0.0,0.0
2594,80.0,26,18,0.0,0.0
2595,81.0,12,24,0.0,0.0
2596,83.0,8,16,0.0,0.0
2597,84.0,15,16,0.0,0.0
2598,93.0,29,11,0.0,0.0
2599,74.0,24,20,0.0,0.0
2600,41.0,3,231,4.0,0.0
2601,78.0,16,24,0.0,0.0
2602,79.0,20,20,0.0,0.0
2603,81.0,19,20,0.0,0.0
2604,83.0,16,19,0.0,0.0
2605,91.0,27,15,0.0,0.0
2606,74.0,19,22,0.0,0.0
2607,78.0,22,21,0.0,0.0
2608,79.0,16,23,0.0,0.0
2609,81.0,17,19,0.0,0.0
2610,83.0,15,16,0.0,0.0
2611,91.0,22,14,0.0,0.0
2612,74.0,25,16,0.0,0.0
2613,78.0,22,21,0.0,0.0
2614,79.0,18,23,0.0,0.0
2615,81.0,16,21,0.0,0.0
2616,83.0,21,17,0.0,0.0
2617,91.0,18,18,0.0,0.0
2618,41.0,8,92,4.0,0.0
2619,74.0,23,16,0.0,0.0
2620,78.0,23,19,0.0,0.0
2621,79.0,17,22,0.0,0.0
2622,81.0,13,19,0.0,0.0
2623,83.0,11,20,0.0,0.0
2624,91.0,32,11,0.0,0.0
2625,40.0,25,238,4.0,0.0
2626,73.0,14,23,0.0,0.0
2627,78.0,20,17,0.0,0.0
2628,79.0,22,17,0.0,0.0
2629,81.0,18,19,0.0,0.0
2630,82.0,19,17,0.0,0.0
2631,91.0,22,16,0.0,0.0
2632,73.0,23,18,0.0,0.0
2633,78.0,18,21,0.0,0.0
2634,79.0,19,19,0.0,0.0
2635,81.0,26,18,0.0,0.0
2636,82.0,8,24,0.0,0.0
2637,91.0,6,12,0.0,0.0
2638,73.0,20,23,0.0,0.0
2639,78.0,18,23,0.0,0.0
2640,79.0,16,21,0.0,0.0
2641,81.0,21,17,0.0,0.0
2642,82.0,17,18,0.0,0.0
2643,91.0,23,15,0.0,0.0
2644,40.0,17,84,4.0,0.0
2645,73.0,21,18,0.0,0.0
2646,78.0,18,19,0.0,0.0
2647,79.0,26,17,0.0,0.0
2648,81.0,1,23,0.0,0.0
2649,82.0,17,21,0.0,0.0
2650,91.0,19,18,0.0,0.0
2651,72.0,22,17,0.0,0.0
2652,39.0,2,234,4.0,0.0
2653,80.0,21,19,0.0,0.0
2654,81.0,19,20,0.0,0.0
2655,83.0,22,19,0.0,0.0
2656,84.0,18,21,0.0,0.0
2657,90.0,21,19,0.0,0.0
2658,72.0,19,20,0.0,0.0
2659,80.0,25,19,0.0,0.0
2660,81.0,14,24,0.0,0.0
2661,83.0,26,18,0.0,0.0
2662,84.0,10,24,0.0,0.0
2663,90.0,26,16,0.0,0.0
2664,72.0,22,22,0.0,0.0
2665,80.0,19,24,0.0,0.0
2666,81.0,13,23,0.0,0.0
2667,83.0,24,16,0.0,0.0
2668,84.0,15,20,0.0,0.0
2669,90.0,22,15,0.0,0.0
2670,72.0,20,17,0.0,0.0
2671,39.0,9,88,4.0,0.0
2672,80.0,21,17,0.0,0.0
2673,81.0,26,18,0.0,0.0
2674,83.0,4,24,0.0,0.0
2675,84.0,21,17,0.0,0.0
2676,90.0,24,18,0.0,0.0
2677,38.0,20,236,4.0,0.0
2678,74.0,15,22,0.0,0.0
2679,81.0,27,17,0.0,0.0
2680,83.0,13,24,0.0,0.0
2681,84.0,20,17,0.0,0.0
2682,86.0,22,17,0.0,0.0
2683,91.0,20,19,0.0,0.0
2684,74.0,24,19,0.0,0.0
2685,81.0,19,23,0.0,0.0
2686,83.0,17,22,0.0,0.0
2687,84.0,23,19,0.0,0.0
2688,86.0,14,22,0.0,0.0
2689,91.0,0,16,0.0,0.0
2690,74.0,28,16,0.0,0.0
2691,81.0,19,24,0.0,0.0
2692,83.0,16,23,0.0,0.0
2693,84.0,18,19,0.0,0.0
2694,86.0,20,17,0.0,0.0
2695,91.0,26,17,0.0,0.0
2696,38.0,16,85,4.0,0.0
2697,74.0,20,23,0.0,0.0
2698,81.0,13,23,0.0,0.0
2699,83.0,26,16,0.0,0.0
2700,84.0,3,22,0.0,0.0
2701,86.0,11,21,0.0,0.0
2702,91.0,26,12,0.0,0.0
2703,76.0,21,18,0.0,0.0
2704,38.0,21,238,4.0,0.0
2705,83.0,22,19,0.0,0.0
2706,85.0,21,21,0.0,0.0
2707,86.0,16,22,0.0,0.0
2708,88.0,20,18,0.0,0.0
2709,91.0,21,18,0.0,0.0
2710,76.0,24,19,0.0,0.0
2711,83.0,20,23,0.0,0.0
2712,85.0,13,23,0.0,0.0
2713,86.0,21,16,0.0,0.0
2714,88.0,19,17,0.0,0.0
2715,91.0,2,16,0.0,0.0
2716,76.0,18,19,0.0,0.0
2717,83.0,21,17,0.0,0.0
2718,85.0,25,18,0.0,0.0
2719,86.0,18,23,0.0,0.0
2720,88.0,11,21,0.0,0.0
2721,91.0,32,12,0.0,0.0
2722,38.0,14,88,4.0,0.0
2723,76.0,14,24,0.0,0.0
2724,83.0,24,18,0.0,0.0
2725,85.0,16,22,0.0,0.0
2726,86.0,10,18,0.0,0.0
2727,88.0,12,22,0.0,0.0
2728,91.0,22,14,0.0,0.0
2729,38.0,32,232,4.0,0.0
2730,74.0,28,16,0.0,0.0
2731,81.0,18,24,0.0,0.0
2732,83.0,21,22,0.0,0.0
2733,85.0,18,23,0.0,0.0
2734,86.0,11,21,0.0,0.0
2735,90.0,32,12,0.0,0.0
2736,76.0,15,24,0.0,0.0
2737,81.0,18,19,0.0,0.0
2738,83.0,22,17,0.0,0.0
2739,85.0,25,19,0.0,0.0
2740,86.0,8,24,0.0,0.0
2741,91.0,0,12,0.0,0.0
2742,78.0,16,24,0.0,0.0
2743,81.0,16,20,0.0,0.0
2744,83.0,25,16,0.0,0.0
2745,85.0,23,21,0.0,0.0
2746,86.0,7,24,0.0,0.0
2747,93.0,33,11,0.0,0.0
2748,79.0,12,24,0.0,0.0
2749,38.0,19,84,4.0,0.0
2750,81.0,20,16,0.0,0.0
2751,83.0,20,16,0.0,0.0
2752,85.0,8,16,0.0,0.0
2753,86.0,14,23,0.0,0.0
2754,95.0,25,17,0.0,0.0
2755,38.0,0,233,4.0,0.0
2756,74.0,18,22,0.0,0.0
2757,81.0,20,20,0.0,0.0
2758,83.0,19,20,0.0,0.0
2759,85.0,19,19,0.0,0.0
2760,86.0,19,18,0.0,0.0
2761,90.0,19,17,0.0,0.0
2762,76.0,23,16,0.0,0.0
2763,81.0,17,19,0.0,0.0
2764,83.0,22,16,0.0,0.0
2765,85.0,26,18,0.0,0.0
2766,86.0,9,24,0.0,0.0
2767,91.0,30,13,0.0,0.0
2768,78.0,17,23,0.0,0.0
2769,81.0,24,20,0.0,0.0
2770,83.0,16,24,0.0,0.0
2771,85.0,18,20,0.0,0.0
2772,86.0,19,18,0.0,0.0
2773,93.0,20,17,0.0,0.0
2774,79.0,27,17,0.0,0.0
2775,38.0,15,84,4.0,0.0
2776,81.0,20,24,0.0,0.0
2777,83.0,16,24,0.0,0.0
2778,85.0,4,20,0.0,0.0
2779,86.0,14,19,0.0,0.0
2780,95.0,25,13,0.0,0.0
2781,38.0,1,237,4.0,0.0
2782,74.0,19,18,0.0,0.0
2783,76.0,27,17,0.0,0.0
2784,78.0,14,24,0.0,0.0
2785,79.0,18,18,0.0,0.0
2786,81.0,19,16,0.0,0.0
2787,86.0,26,15,0.0,0.0
2788,76.0,22,21,0.0,0.0
2789,78.0,18,23,0.0,0.0
2790,79.0,20,21,0.0,0.0
2791,81.0,20,21,0.0,0.0
2792,83.0,16,21,0.0,0.0
2793,86.0,18,18,0.0,0.0
2794,78.0,20,16,0.0,0.0
2795,79.0,26,16,0.0,0.0
2796,81.0,21,22,0.0,0.0
2797,83.0,16,23,0.0,0.0
2798,84.0,19,19,0.0,0.0
2799,86.0,25,18,0.0,0.0
2800,38.0,10,86,4.0,0.0
2801,79.0,16,23,0.0,0.0
2802,81.0,22,19,0.0,0.0
2803,83.0,16,21,0.0,0.0
2804,84.0,9,17,0.0,0.0
2805,86.0,16,16,0.0,0.0
2806,88.0,32,12,0.0,0.0
2807,74.0,12,24,0.0,0.0
2808,38.0,21,238,4.0,0.0
2809,76.0,22,16,0.0,0.0
2810,78.0,18,18,0.0,0.0
2811,79.0,28,16,0.0,0.0
2812,81.0,8,24,0.0,0.0
2813,86.0,25,12,0.0,0.0
2814,76.0,20,17,0.0,0.0
2815,78.0,23,17,0.0,0.0
2816,79.0,23,20,0.0,0.0
2817,81.0,13,23,0.0,0.0
2818,83.0,20,16,0.0,0.0
2819,86.0,2,16,0.0,0.0
2820,78.0,25,19,0.0,0.0
2821,79.0,16,24,0.0,0.0
2822,81.0,19,20,0.0,0.0
2823,83.0,18,19,0.0,0.0
2824,84.0,20,17,0.0,0.0
2825,86.0,21,17,0.0,0.0
2826,79.0,25,18,0.0,0.0
2827,38.0,13,89,4.0,0.0
2828,81.0,18,23,0.0,0.0
2829,83.0,17,21,0.0,0.0
2830,84.0,11,18,0.0,0.0
2831,86.0,11,22,0.0,0.0
2832,88.0,27,13,0.0,0.0
2833,38.0,26,236,4.0,0.0
2834,72.0,17,20,0.0,0.0
2835,76.0,27,17,0.0,0.0
2836,78.0,16,24,0.0,0.0
2837,79.0,21,20,0.0,0.0
2838,81.0,13,21,0.0,0.0
2839,86.0,30,14,0.0,0.0
2840,71.0,12,24,0.0,0.0
2841,78.0,21,16,0.0,0.0
2842,79.0,25,17,0.0,0.0
2843,81.0,18,22,0.0,0.0
2844,83.0,14,20,0.0,0.0
2845,86.0,2,14,0.0,0.0
2846,71.0,22,22,0.0,0.0
2847,74.0,15,24,0.0,0.0
2848,76.0,23,19,0.0,0.0
2849,78.0,17,22,0.0,0.0
2850,79.0,20,19,0.0,0.0
2851,84.0,21,19,0.0,0.0
2852,69.0,17,20,0.0,0.0
2853,38.0,9,87,4.0,0.0
2854,76.0,25,17,0.0,0.0
2855,78.0,16,22,0.0,0.0
2856,79.0,9,18,0.0,0.0
2857,81.0,21,16,0.0,0.0
2858,84.0,25,17,0.0,0.0
2859,38.0,4,235,4.0,0.0
2860,69.0,20,22,0.0,0.0
2861,72.0,21,22,0.0,0.0
2862,74.0,18,23,0.0,0.0
2863,76.0,23,21,0.0,0.0
2864,78.0,12,24,0.0,0.0
2865,83.0,22,16,0.0,0.0
2866,67.0,24,18,0.0,0.0
2867,74.0,16,22,0.0,0.0
2868,76.0,19,18,0.0,0.0
2869,78.0,27,17,0.0,0.0
2870,79.0,11,24,0.0,0.0
2871,83.0,18,19,0.0,0.0
2872,67.0,20,17,0.0,0.0
2873,71.0,21,17,0.0,0.0
2874,73.0,19,18,0.0,0.0
2875,74.0,26,17,0.0,0.0
2876,76.0,13,23,0.0,0.0
2877,81.0,22,16,0.0,0.0
2878,38.0,5,92,4.0,0.0
2879,66.0,26,18,0.0,0.0
2880,73.0,18,24,0.0,0.0
2881,74.0,19,22,0.0,0.0
2882,76.0,11,21,0.0,0.0
2883,78.0,15,17,0.0,0.0
2884,81.0,27,12,0.0,0.0
2885,65.0,21,19,0.0,0.0
2886,38.0,23,239,4.0,0.0
2887,69.0,21,20,0.0,0.0
2888,71.0,23,21,0.0,0.0
2889,73.0,19,24,0.0,0.0
2890,74.0,13,23,0.0,0.0
2891,79.0,27,16,0.0,0.0
2892,65.0,20,23,0.0,0.0
2893,69.0,20,23,0.0,0.0
2894,71.0,16,23,0.0,0.0
2895,73.0,23,19,0.0,0.0
2896,74.0,11,22,0.0,0.0
2897,79.0,6,13,0.0,0.0
2898,64.0,22,22,0.0,0.0
2899,71.0,20,24,0.0,0.0
2900,73.0,19,24,0.0,0.0
2901,74.0,21,23,0.0,0.0
2902,76.0,7,24,0.0,0.0
2903,79.0,32,11,0.0,0.0
2904,64.0,17,23,0.0,0.0
2905,38.0,6,90,4.0,0.0
2906,71.0,23,20,0.0,0.0
2907,73.0,20,23,0.0,0.0
2908,74.0,7,23,0.0,0.0
2909,76.0,22,16,0.0,0.0
2910,79.0,26,18,0.0,0.0
2911,62.0,18,24,0.0,0.0
2912,38.0,25,235,4.0,0.0
2913,73.0,22,22,0.0,0.0
2914,74.0,15,24,0.0,0.0
2915,76.0,18,19,0.0,0.0
2916,78.0,22,17,0.0,0.0
2917,79.0,20,19,0.0,0.0
2918,62.0,18,19,0.0,0.0
2919,69.0,19,17,0.0,0.0
2920,71.0,24,16,0.0,0.0
2921,73.0,21,20,0.0,0.0
2922,74.0,12,21,0.0,0.0
2923,79.0,2,13,0.0,0.0
2924,62.0,17,20,0.0,0.0
2925,66.0,24,17,0.0,0.0
2926,67.0,15,21,0.0,0.0
2927,69.0,26,16,0.0,0.0
2928,70.0,17,22,0.0,0.0
2929,73.0,21,19,0.0,0.0
2930,38.0,15,88,4.0,0.0
2931,62.0,16,20,0.0,0.0
2932,66.0,26,16,0.0,0.0
2933,67.0,14,22,0.0,0.0
2934,69.0,12,16,0.0,0.0
2935,70.0,8,23,0.0,0.0
2936,73.0,28,11,0.0,0.0
2937,62.0,18,19,0.0,0.0
2938,38.0,26,235,4.0,0.0
2939,64.0,23,17,0.0,0.0
2940,66.0,17,20,0.0,0.0
2941,67.0,19,17,0.0,0.0
2942,69.0,17,16,0.0,0.0
2943,74.0,24,13,0.0,0.0
2944,62.0,21,17,0.0,0.0
2945,69.0,22,18,0.0,0.0
2946,71.0,21,20,0.0,0.0
2947,72.0,17,21,0.0,0.0
2948,74.0,14,18,0.0,0.0
2949,79.0,3,12,0.0,0.0
2950,62.0,21,21,0.0,0.0
2951,67.0,20,22,0.0,0.0
2952,69.0,14,22,0.0,0.0
2953,71.0,26,16,0.0,0.0
2954,72.0,16,22,0.0,0.0
2955,78.0,20,18,0.0,0.0
2956,38.0,10,87,4.0,0.0
2957,62.0,23,18,0.0,0.0
2958,66.0,17,21,0.0,0.0
2959,67.0,24,18,0.0,0.0
2960,69.0,5,22,0.0,0.0
2961,71.0,14,17,0.0,0.0
2962,76.0,31,11,0.0,0.0
2963,62.0,22,22,0.0,0.0
2964,38.0,5,233,4.0,0.0
2965,64.0,12,24,0.0,0.0
2966,66.0,21,16,0.0,0.0
2967,67.0,20,17,0.0,0.0
2968,69.0,14,17,0.0,0.0
2969,74.0,33,11,0.0,0.0
2970,62.0,17,24,0.0,0.0
2971,69.0,18,21,0.0,0.0
2972,71.0,18,19,0.0,0.0
2973,72.0,19,17,0.0,0.0
2974,74.0,17,16,0.0,0.0
2975,79.0,25,18,0.0,0.0
2976,62.0,17,23,0.0,0.0
2977,67.0,17,20,0.0,0.0
2978,69.0,21,17,0.0,0.0
2979,71.0,25,18,0.0,0.0
2980,72.0,13,23,0.0,0.0
2981,78.0,20,16,0.0,0.0
2982,62.0,26,16,0.0,0.0
2983,38.0,14,85,4.0,0.0
2984,66.0,14,22,0.0,0.0
2985,67.0,20,16,0.0,0.0
2986,69.0,9,16,0.0,0.0
2987,71.0,13,19,0.0,0.0
2988,76.0,24,12,0.0,0.0
2989,62.0,20,16,0.0,0.0
2990,38.0,29,233,4.0,0.0
2991,64.0,22,16,0.0,0.0
2992,66.0,24,18,0.0,0.0
2993,67.0,16,22,0.0,0.0
2994,69.0,20,18,0.0,0.0
2995,74.0,23,18,0.0,0.0
2996,64.0,22,21,0.0,0.0
2997,66.0,21,23,0.0,0.0
2998,67.0,12,24,0.0,0.0
2999,69.0,20,16,0.0,0.0
3000,71.0,15,16,0.0,0.0
3001,74.0,2,11,0.0,0.0
3002,66.0,18,22,0.0,0.0
3003,67.0,16,20,0.0,0.0
3004,69.0,22,16,0.0,0.0
3005,71.0,25,18,0.0,0.0
3006,72.0,9,23,0.0,0.0
3007,74.0,31,12,0.0,0.0
3008,67.0,20,23,0.0,0.0
3009,38.0,12,84,4.0,0.0
3010,69.0,18,23,0.0,0.0
3011,71.0,20,21,0.0,0.0
3012,72.0,3,21,0.0,0.0
3013,74.0,19,16,0.0,0.0
3014,76.0,27,15,0.0,0.0
3015,38.0,1,232,4.0,0.0
3016,62.0,21,22,0.0,0.0
3017,64.0,16,23,0.0,0.0
3018,66.0,21,19,0.0,0.0
3019,67.0,23,20,0.0,0.0
3020,69.0,8,23,0.0,0.0
3021,74.0,28,11,0.0,0.0
3022,64.0,19,19,0.0,0.0
3023,66.0,23,18,0.0,0.0
3024,67.0,18,21,0.0,0.0
3025,69.0,22,19,0.0,0.0
3026,71.0,11,21,0.0,0.0
3027,74.0,25,13,0.0,0.0
3028,66.0,18,18,0.0,0.0
3029,67.0,22,16,0.0,0.0
3030,69.0,18,18,0.0,0.0
3031,71.0,24,16,0.0,0.0
3032,72.0,15,20,0.0,0.0
3033,74.0,28,15,0.0,0.0
3034,67.0,19,23,0.0,0.0
3035,38.0,10,89,4.0,0.0
3036,69.0,18,22,0.0,0.0
3037,71.0,18,20,0.0,0.0
3038,72.0,11,18,0.0,0.0
3039,74.0,15,19,0.0,0.0
3040,76.0,24,14,0.0,0.0
3041,60.0,19,18,0.0,0.0
3042,38.0,3,232,4.0,0.0
3043,64.0,23,17,0.0,0.0
3044,66.0,23,20,0.0,0.0
3045,67.0,13,23,0.0,0.0
3046,69.0,18,16,0.0,0.0
3047,74.0,26,14,0.0,0.0
3048,59.0,16,20,0.0,0.0
3049,66.0,25,16,0.0,0.0
3050,67.0,17,21,0.0,0.0
3051,69.0,21,18,0.0,0.0
3052,71.0,13,19,0.0,0.0
3053,74.0,29,15,0.0,0.0
3054,58.0,17,24,0.0,0.0
3055,66.0,16,21,0.0,0.0
3056,67.0,26,17,0.0,0.0
3057,69.0,14,23,0.0,0.0
3058,70.0,16,17,0.0,0.0
3059,76.0,24,13,0.0,0.0
3060,57.0,23,17,0.0,0.0
3061,38.0,19,120,4.0,0.0
3062,67.0,18,20,0.0,0.0
3063,69.0,23,18,0.0,0.0
3064,71.0,18,21,0.0,0.0
3065,72.0,19,19,0.0,0.0
3066,78.0,2,18,0.0,0.0
3067,38.0,21,239,4.0,0.0
3068,55.0,21,19,0.0,0.0
3069,57.0,19,20,0.0,0.0
3070,59.0,24,19,0.0,0.0
3071,60.0,21,23,0.0,0.0
3072,62.0,8,24,0.0,0.0
3073,67.0,28,12,0.0,0.0
3074,59.0,21,20,0.0,0.0
3075,62.0,17,21,0.0,0.0
3076,64.0,18,18,0.0,0.0
3077,66.0,24,16,0.0,0.0
3078,67.0,12,20,0.0,0.0
3079,71.0,7,12,0.0,0.0
3080,62.0,21,20,0.0,0.0
3081,66.0,17,21,0.0,0.0
3082,67.0,26,18,0.0,0.0
3083,69.0,12,24,0.0,0.0
3084,71.0,23,16,0.0,0.0
3085,74.0,18,19,0.0,0.0
3086,67.0,24,17,0.0,0.0
3087,69.0,17,21,0.0,0.0
3088,71.0,23,18,0.0,0.0
3089,72.0,15,21,0.0,0.0
3090,74.0,17,16,0.0,0.0
3091,79.0,25,13,0.0,0.0
3092,71.0,20,18,0.0,0.0
3093,74.0,19,18,0.0,0.0
3094,76.0,26,17,0.0,0.0
3095,78.0,19,23,0.0,0.0
3096,79.0,12,22,0.0,0.0
3097,83.0,24,14,0.0,0.0
3098,74.0,18,18,0.0,0.0
3099,78.0,24,16,0.0,0.0
3100,79.0,22,20,0.0,0.0
3101,81.0,16,22,0.0,0.0
3102,83.0,17,18,0.0,0.0
3103,86.0,29,15,0.0,0.0
3104,79.0,18,24,0.0,0.0
3105,81.0,15,22,0.0,0.0
3106,83.0,23,17,0.0,0.0
3107,84.0,19,20,0.0,0.0
3108,86.0,14,19,0.0,0.0
3109,91.0,28,13,0.0,0.0
3110,85.0,23,21,0.0,0.0
3111,86.0,17,24,0.0,0.0
3112,88.0,20,21,0.0,0.0
3113,90.0,16,21,0.0,0.0
3114,91.0,21,17,0.0,0.0
3115,94.0,60,18,0.0,0.0
3116,38.0,5,1434,4.0,0.0
3117,62.0,36,28,0.0,0.0
3118,64.0,25,34,0.0,0.0
3119,66.0,21,29,0.0,0.0
3120,67.0,41,20,0.0,0.0
3121,66.0,27,31,0.0,0.0
3122,67.0,36,28,0.0,0.0
3123,69.0,24,34,0.0,0.0
3124,71.0,30,28,0.0,0.0
3125,67.0,32,28,0.0,0.0
3126,69.0,26,30,0.0,0.0
3127,71.0,34,26,0.0,0.0
3128,72.0,27,30,0.0,0.0
3129,74.0,31,27,0.0,0.0
3130,76.0,20,28,0.0,0.0
3131,78.0,45,18,0.0,0.0
3132,79.0,26,33,0.0,0.0
3133,74.0,27,29,0.0,0.0
3134,76.0,38,26,0.0,0.0
3135,78.0,24,34,0.0,0.0
3136,79.0,28,28,0.0,0.0
3137,78.0,32,26,0.0,0.0
3138,79.0,25,28,0.0,0.0
3139,81.0,38,23,0.0,0.0
3140,83.0,33,31,0.0,0.0
3141,81.0,22,34,0.0,0.0
3142,83.0,38,26,0.0,0.0
3143,84.0,24,34,0.0,0.0
3144,86.0,30,28,0.0,0.0
3145,84.0,31,28,0.0,0.0
3146,86.0,27,29,0.0,0.0
3147,88.0,34,26,0.0,0.0
3148,79.0,30,30,0.0,0.0
3149,74.0,1,473,1.0,0.0
3150,72.0,1,468,1.0,0.0
3151,69.0,4,469,2.0,0.0
3152,62.0,1,467,3.0,0.0
3153,78.0,30,30,0.0,0.0
3154,79.0,30,30,0.0,0.0
3155,78.0,30,30,0.0,0.0
3156,79.0,30,30,0.0,0.0
3157,78.0,30,30,0.0,0.0
3158,79.0,30,30,0.0,0.0
3159,78.0,30,30,0.0,0.0
3160,79.0,30,30,0.0,0.0
3161,78.0,30,30,0.0,0.0
3162,79.0,30,30,0.0,0.0
3163,78.0,107,30,0.0,0.0
3164,79.0,938,119,0.0,0.0
3165,71.0,1,944,1.0,0.0
3166,74.0,0,941,1.0,0.0
3167,67.0,0,945,2.0,0.0
3168,62.0,3,941,3.0,0.0
3169,43.0,4,937,4.0,0.0
3170,79.0,188175,945,0.0,0.0
