,note,step,duration,channel,velocity
0,75.0,48,432,0.0,127.0
1,63.0,48,576,0.0,127.0
2,70.0,48,480,0.0,127.0
3,58.0,48,624,3.0,127.0
4,55.0,48,672,3.0,127.0
5,51.0,0,720,3.0,127.0
6,67.0,48,528,0.0,127.0
7,58.0,48,624,3.0,127.0
8,67.0,48,528,0.0,127.0
9,55.0,48,672,3.0,127.0
10,75.0,48,432,0.0,127.0
11,61.0,48,576,3.0,127.0
12,51.0,432,720,3.0,127.0
13,70.0,48,480,0.0,127.0
14,72.0,48,480,0.0,127.0
15,68.0,48,528,0.0,127.0
16,65.0,48,576,0.0,127.0
17,75.0,48,432,0.0,127.0
18,51.0,432,720,3.0,127.0
19,56.0,48,672,3.0,127.0
20,60.0,48,624,3.0,127.0
21,70.0,48,480,0.0,127.0
22,51.0,432,0,3.0,127.0
23,58.0,48,624,3.0,127.0
24,73.0,48,432,0.0,127.0
25,65.0,48,576,0.0,127.0
26,68.0,48,528,0.0,127.0
27,73.0,48,432,0.0,127.0
28,58.0,48,624,3.0,127.0
29,63.0,48,576,0.0,127.0
30,67.0,48,528,0.0,127.0
31,70.0,48,480,0.0,127.0
32,56.0,48,624,3.0,127.0
33,51.0,48,672,3.0,127.0
34,44.0,432,720,3.0,127.0
35,63.0,48,576,0.0,127.0
36,67.0,48,528,0.0,127.0
37,72.0,48,432,0.0,127.0
38,68.0,48,480,0.0,127.0
39,44.0,432,768,3.0,127.0
40,53.0,48,624,3.0,127.0
41,51.0,48,672,3.0,127.0
42,48.0,48,720,3.0,127.0
43,72.0,48,432,0.0,127.0
44,60.0,48,576,0.0,127.0
45,65.0,48,528,0.0,127.0
46,68.0,48,480,0.0,127.0
47,44.0,432,720,3.0,127.0
48,50.0,48,672,3.0,127.0
49,53.0,48,624,3.0,127.0
50,65.0,48,480,0.0,127.0
51,58.0,48,576,0.0,127.0
52,70.0,48,432,0.0,127.0
53,62.0,48,528,0.0,127.0
54,70.0,48,432,0.0,127.0
55,43.0,432,720,3.0,127.0
56,55.0,48,624,3.0,127.0
57,58.0,48,576,0.0,127.0
58,63.0,48,528,0.0,127.0
59,67.0,48,480,0.0,127.0
60,51.0,48,672,3.0,127.0
61,70.0,48,432,0.0,127.0
62,63.0,48,528,0.0,127.0
63,67.0,48,480,0.0,127.0
64,60.0,48,576,0.0,127.0
65,48.0,432,720,3.0,127.0
66,51.0,48,672,3.0,127.0
67,55.0,48,624,3.0,127.0
68,48.0,48,672,3.0,127.0
69,53.0,48,624,3.0,127.0
70,41.0,432,720,3.0,127.0
71,68.0,48,432,0.0,127.0
72,60.0,48,576,0.0,127.0
73,63.0,48,528,0.0,127.0
74,65.0,48,480,0.0,127.0
75,46.0,432,0,3.0,127.0
76,50.0,48,672,3.0,127.0
77,53.0,48,624,3.0,127.0
78,68.0,48,432,0.0,127.0
79,58.0,48,576,0.0,127.0
80,62.0,48,528,0.0,127.0
81,65.0,48,480,0.0,127.0
82,55.0,48,576,3.0,127.0
83,58.0,48,528,0.0,127.0
84,63.0,48,480,0.0,127.0
85,67.0,48,432,0.0,127.0
86,51.0,48,624,3.0,127.0
87,72.0,48,432,0.0,127.0
88,51.0,48,672,3.0,127.0
89,48.0,48,720,3.0,127.0
90,46.0,432,0,3.0,127.0
91,60.0,48,576,0.0,127.0
92,63.0,48,528,0.0,127.0
93,66.0,48,480,0.0,127.0
94,57.0,48,624,3.0,127.0
95,62.0,48,576,0.0,127.0
96,56.0,48,624,3.0,127.0
97,50.0,48,720,3.0,127.0
98,70.0,48,480,0.0,127.0
99,53.0,48,672,3.0,127.0
100,65.0,48,528,0.0,127.0
101,74.0,48,432,0.0,127.0
102,58.0,48,624,3.0,127.0
103,46.0,432,768,3.0,127.0
104,70.0,48,480,0.0,127.0
105,63.0,48,576,0.0,127.0
106,67.0,48,528,0.0,127.0
107,51.0,48,720,3.0,127.0
108,75.0,48,432,0.0,127.0
109,55.0,48,672,3.0,127.0
110,54.0,48,624,3.0,127.0
111,48.0,48,720,3.0,127.0
112,51.0,48,672,3.0,127.0
113,72.0,48,480,0.0,127.0
114,66.0,48,528,0.0,127.0
115,45.0,432,768,3.0,127.0
116,75.0,48,432,0.0,127.0
117,63.0,48,576,0.0,127.0
118,65.0,48,960,0.0,127.0
119,58.0,48,1008,3.0,127.0
120,53.0,48,1056,3.0,127.0
121,46.0,432,1104,3.0,127.0
122,70.0,48,864,0.0,127.0
123,68.0,48,912,0.0,127.0
124,74.0,48,816,0.0,127.0
125,51.0,0,48,2.0,127.0
126,58.0,816,48,2.0,127.0
127,55.0,0,48,2.0,127.0
128,75.0,0,48,0.0,127.0
129,70.0,0,48,1.0,127.0
130,67.0,0,48,1.0,127.0
131,70.0,48,48,0.0,127.0
132,68.0,48,48,0.0,127.0
133,70.0,48,48,0.0,127.0
134,72.0,48,48,0.0,127.0
135,67.0,48,48,0.0,127.0
136,65.0,48,48,0.0,127.0
137,67.0,48,48,0.0,127.0
138,68.0,48,48,0.0,127.0
139,65.0,48,48,0.0,127.0
140,63.0,48,48,0.0,127.0
141,65.0,48,48,0.0,127.0
142,70.0,48,48,0.0,127.0
143,65.0,48,48,0.0,127.0
144,63.0,48,48,0.0,127.0
145,65.0,48,48,0.0,127.0
146,63.0,48,48,1.0,127.0
147,67.0,48,96,0.0,127.0
148,62.0,48,48,1.0,127.0
149,63.0,48,48,1.0,127.0
150,67.0,48,48,1.0,127.0
151,70.0,0,96,0.0,127.0
152,62.0,48,48,1.0,127.0
153,60.0,48,48,1.0,127.0
154,62.0,48,48,1.0,127.0
155,63.0,0,48,1.0,127.0
156,70.0,48,96,0.0,127.0
157,60.0,48,48,1.0,127.0
158,58.0,48,48,1.0,127.0
159,60.0,48,48,1.0,127.0
160,65.0,0,48,1.0,127.0
161,69.0,48,96,0.0,127.0
162,60.0,48,48,1.0,127.0
163,58.0,48,48,1.0,127.0
164,60.0,48,48,1.0,127.0
165,70.0,0,96,1.0,127.0
166,62.0,48,96,1.0,127.0
167,77.0,48,48,0.0,127.0
168,75.0,48,48,0.0,127.0
169,77.0,48,48,0.0,127.0
170,79.0,48,48,0.0,127.0
171,74.0,48,48,0.0,127.0
172,58.0,0,96,1.0,127.0
173,62.0,0,96,1.0,127.0
174,72.0,48,48,0.0,127.0
175,74.0,48,48,0.0,127.0
176,75.0,0,48,0.0,127.0
177,67.0,48,96,1.0,127.0
178,60.0,0,96,1.0,127.0
179,72.0,48,48,0.0,127.0
180,70.0,48,48,0.0,127.0
181,72.0,48,48,0.0,127.0
182,77.0,48,48,0.0,127.0
183,72.0,48,48,0.0,127.0
184,60.0,0,96,1.0,127.0
185,57.0,0,96,1.0,127.0
186,70.0,48,48,0.0,127.0
187,72.0,48,48,0.0,127.0
188,74.0,0,48,1.0,127.0
189,70.0,48,48,1.0,127.0
190,58.0,48,96,2.0,127.0
191,69.0,48,48,1.0,127.0
192,67.0,48,48,1.0,127.0
193,65.0,48,48,1.0,127.0
194,63.0,48,48,2.0,127.0
195,62.0,48,48,2.0,127.0
196,60.0,48,48,2.0,127.0
197,58.0,48,48,2.0,127.0
198,58.0,48,48,2.0,127.0
199,70.0,0,32,0.0,127.0
200,75.0,0,32,0.0,127.0
201,79.0,48,32,0.0,127.0
202,56.0,0,48,2.0,127.0
203,58.0,48,48,2.0,127.0
204,80.0,48,32,0.0,127.0
205,72.0,0,32,0.0,127.0
206,77.0,0,32,0.0,127.0
207,55.0,0,48,2.0,127.0
208,56.0,48,48,2.0,127.0
209,82.0,48,32,0.0,127.0
210,79.0,0,32,0.0,127.0
211,73.0,0,32,0.0,127.0
212,53.0,0,48,2.0,127.0
213,55.0,48,48,2.0,127.0
214,75.0,48,48,1.0,127.0
215,79.0,0,96,0.0,127.0
216,70.0,0,96,0.0,127.0
217,51.0,48,96,2.0,127.0
218,74.0,48,48,1.0,127.0
219,72.0,48,48,1.0,127.0
220,70.0,48,48,1.0,127.0
221,68.0,48,48,2.0,127.0
222,67.0,48,48,2.0,127.0
223,65.0,48,48,2.0,127.0
224,63.0,48,48,2.0,127.0
225,63.0,48,48,2.0,127.0
226,79.0,0,32,0.0,127.0
227,75.0,0,32,0.0,127.0
228,70.0,0,32,0.0,127.0
229,61.0,48,48,2.0,127.0
230,63.0,48,48,2.0,127.0
231,80.0,48,32,0.0,127.0
232,72.0,0,32,0.0,127.0
233,77.0,0,32,0.0,127.0
234,60.0,0,48,2.0,127.0
235,61.0,48,48,2.0,127.0
236,82.0,48,32,0.0,127.0
237,73.0,0,32,0.0,127.0
238,79.0,0,32,0.0,127.0
239,58.0,0,48,2.0,127.0
240,60.0,48,48,2.0,127.0
241,84.0,0,48,0.0,127.0
242,75.0,0,48,0.0,127.0
243,80.0,0,48,0.0,127.0
244,56.0,48,96,2.0,127.0
245,75.0,48,48,0.0,127.0
246,73.0,0,48,0.0,127.0
247,60.0,48,96,2.0,127.0
248,75.0,48,48,0.0,127.0
249,77.0,0,48,0.0,127.0
250,61.0,48,96,2.0,127.0
251,72.0,48,48,0.0,127.0
252,70.0,48,48,0.0,127.0
253,72.0,48,48,0.0,127.0
254,65.0,0,96,2.0,127.0
255,73.0,0,48,0.0,127.0
256,58.0,48,96,2.0,127.0
257,70.0,48,48,0.0,127.0
258,68.0,48,48,0.0,127.0
259,61.0,0,96,2.0,127.0
260,70.0,48,48,0.0,127.0
261,75.0,0,48,0.0,127.0
262,70.0,48,48,0.0,127.0
263,55.0,48,96,2.0,127.0
264,68.0,48,48,0.0,127.0
265,63.0,0,96,2.0,127.0
266,70.0,48,48,0.0,127.0
267,72.0,48,96,0.0,127.0
268,56.0,0,96,2.0,127.0
269,68.0,48,48,1.0,127.0
270,67.0,48,48,1.0,127.0
271,63.0,0,96,2.0,127.0
272,68.0,48,48,1.0,127.0
273,72.0,0,48,1.0,127.0
274,75.0,0,96,0.0,127.0
275,56.0,48,96,2.0,127.0
276,67.0,48,48,1.0,127.0
277,65.0,0,48,1.0,127.0
278,67.0,48,48,1.0,127.0
279,60.0,48,96,2.0,127.0
280,68.0,0,48,1.0,127.0
281,53.0,0,96,2.0,127.0
282,65.0,48,48,1.0,127.0
283,75.0,48,96,0.0,127.0
284,63.0,0,48,1.0,127.0
285,65.0,48,48,1.0,127.0
286,56.0,48,96,2.0,127.0
287,70.0,48,48,1.0,127.0
288,65.0,48,48,1.0,127.0
289,58.0,0,96,2.0,127.0
290,73.0,0,96,0.0,127.0
291,63.0,0,48,1.0,127.0
292,61.0,48,96,2.0,127.0
293,65.0,48,48,1.0,127.0
294,51.0,48,48,2.0,127.0
295,63.0,0,96,1.0,127.0
296,67.0,48,96,1.0,127.0
297,73.0,0,96,0.0,127.0
298,49.0,48,48,2.0,127.0
299,51.0,48,48,2.0,127.0
300,53.0,0,48,2.0,127.0
301,48.0,48,48,2.0,127.0
302,72.0,0,96,0.0,127.0
303,68.0,48,96,0.0,127.0
304,46.0,48,48,2.0,127.0
305,48.0,48,48,2.0,127.0
306,49.0,0,48,2.0,127.0
307,46.0,48,48,2.0,127.0
308,68.0,0,96,0.0,127.0
309,70.0,48,96,0.0,127.0
310,65.0,0,96,0.0,127.0
311,44.0,48,48,2.0,127.0
312,46.0,48,48,2.0,127.0
313,51.0,48,48,2.0,127.0
314,63.0,0,96,0.0,127.0
315,67.0,0,96,0.0,127.0
316,70.0,0,96,0.0,127.0
317,46.0,48,48,2.0,127.0
318,44.0,48,48,2.0,127.0
319,46.0,48,48,2.0,127.0
320,48.0,0,48,2.0,127.0
321,68.0,0,96,0.0,127.0
322,67.0,48,96,0.0,127.0
323,63.0,0,96,0.0,127.0
324,44.0,48,48,2.0,127.0
325,43.0,48,48,2.0,127.0
326,44.0,48,48,2.0,127.0
327,49.0,0,48,2.0,127.0
328,65.0,0,96,0.0,127.0
329,68.0,48,96,0.0,127.0
330,44.0,48,48,2.0,127.0
331,61.0,0,96,0.0,127.0
332,43.0,48,48,2.0,127.0
333,44.0,48,48,2.0,127.0
334,46.0,0,48,2.0,127.0
335,67.0,0,96,0.0,127.0
336,43.0,48,48,2.0,127.0
337,61.0,0,96,0.0,127.0
338,65.0,48,96,0.0,127.0
339,41.0,48,48,2.0,127.0
340,43.0,48,48,2.0,127.0
341,48.0,48,48,2.0,127.0
342,67.0,0,96,0.0,127.0
343,64.0,0,96,0.0,127.0
344,60.0,0,96,0.0,127.0
345,43.0,48,48,2.0,127.0
346,41.0,48,48,2.0,127.0
347,43.0,48,48,2.0,127.0
348,65.0,0,48,0.0,127.0
349,60.0,0,48,0.0,127.0
350,60.0,48,48,0.0,127.0
351,62.0,48,48,0.0,127.0
352,64.0,48,48,0.0,127.0
353,65.0,48,48,0.0,127.0
354,67.0,48,48,0.0,127.0
355,68.0,48,48,0.0,127.0
356,70.0,48,48,0.0,127.0
357,44.0,48,432,2.0,127.0
358,46.0,48,48,2.0,127.0
359,64.0,0,32,1.0,127.0
360,60.0,48,32,1.0,127.0
361,46.0,0,48,2.0,127.0
362,48.0,48,48,2.0,127.0
363,62.0,48,32,1.0,127.0
364,65.0,0,32,1.0,127.0
365,44.0,0,48,2.0,127.0
366,46.0,48,48,2.0,127.0
367,67.0,0,32,1.0,127.0
368,64.0,48,32,1.0,127.0
369,43.0,0,48,2.0,127.0
370,44.0,48,48,2.0,127.0
371,68.0,48,48,1.0,127.0
372,65.0,0,48,1.0,127.0
373,41.0,0,48,2.0,127.0
374,72.0,48,432,0.0,127.0
375,44.0,48,48,2.0,127.0
376,65.0,0,48,0.0,127.0
377,46.0,0,48,2.0,127.0
378,67.0,48,48,0.0,127.0
379,68.0,48,48,0.0,127.0
380,48.0,0,48,2.0,127.0
381,70.0,48,48,0.0,127.0
382,50.0,0,48,2.0,127.0
383,52.0,0,48,2.0,127.0
384,72.0,48,48,0.0,127.0
385,53.0,48,48,2.0,127.0
386,74.0,0,48,0.0,127.0
387,76.0,48,48,0.0,127.0
388,55.0,0,48,2.0,127.0
389,56.0,0,48,2.0,127.0
390,53.0,48,48,2.0,127.0
391,65.0,0,32,1.0,127.0
392,69.0,48,32,1.0,127.0
393,51.0,0,48,2.0,127.0
394,53.0,48,48,2.0,127.0
395,70.0,0,32,1.0,127.0
396,67.0,48,32,1.0,127.0
397,49.0,0,48,2.0,127.0
398,51.0,48,48,2.0,127.0
399,69.0,0,32,1.0,127.0
400,72.0,48,32,1.0,127.0
401,48.0,0,48,2.0,127.0
402,49.0,48,48,2.0,127.0
403,46.0,48,48,2.0,127.0
404,77.0,48,0,0.0,127.0
405,73.0,0,96,1.0,127.0
406,70.0,0,96,1.0,127.0
407,58.0,48,48,2.0,127.0
408,56.0,0,48,2.0,127.0
409,58.0,48,48,2.0,127.0
410,55.0,0,48,2.0,127.0
411,82.0,48,96,0.0,127.0
412,58.0,48,48,2.0,127.0
413,51.0,0,48,2.0,127.0
414,73.0,48,96,0.0,127.0
415,70.0,0,96,1.0,127.0
416,55.0,48,48,2.0,127.0
417,44.0,0,48,2.0,127.0
418,68.0,48,96,1.0,127.0
419,72.0,0,96,0.0,127.0
420,56.0,48,48,2.0,127.0
421,55.0,48,48,2.0,127.0
422,75.0,0,96,0.0,127.0
423,56.0,48,48,2.0,127.0
424,53.0,48,48,2.0,127.0
425,80.0,0,96,0.0,127.0
426,56.0,48,48,2.0,127.0
427,50.0,0,48,2.0,127.0
428,68.0,48,96,1.0,127.0
429,72.0,0,96,0.0,127.0
430,53.0,48,48,2.0,127.0
431,43.0,0,48,2.0,127.0
432,55.0,48,48,2.0,127.0
433,67.0,0,96,1.0,127.0
434,70.0,48,96,0.0,127.0
435,53.0,48,48,2.0,127.0
436,74.0,0,96,0.0,127.0
437,55.0,48,48,2.0,127.0
438,51.0,0,48,2.0,127.0
439,79.0,48,96,0.0,127.0
440,55.0,48,48,2.0,127.0
441,48.0,0,48,2.0,127.0
442,70.0,0,96,0.0,127.0
443,51.0,48,48,2.0,127.0
444,67.0,48,96,1.0,127.0
445,41.0,0,48,2.0,127.0
446,68.0,48,96,0.0,127.0
447,53.0,48,48,2.0,127.0
448,65.0,0,96,1.0,127.0
449,51.0,0,48,2.0,127.0
450,53.0,48,48,2.0,127.0
451,72.0,48,96,0.0,127.0
452,50.0,48,48,2.0,127.0
453,77.0,0,96,0.0,127.0
454,53.0,48,48,2.0,127.0
455,46.0,0,48,2.0,127.0
456,50.0,48,48,2.0,127.0
457,68.0,48,96,0.0,127.0
458,65.0,0,144,1.0,127.0
459,67.0,0,96,0.0,127.0
460,39.0,48,96,2.0,127.0
461,63.0,48,48,1.0,127.0
462,62.0,48,48,1.0,127.0
463,60.0,48,48,1.0,127.0
464,58.0,48,48,1.0,127.0
465,56.0,48,48,2.0,127.0
466,55.0,48,48,2.0,127.0
467,53.0,48,48,2.0,127.0
468,51.0,48,0,2.0,127.0
469,67.0,48,32,0.0,127.0
470,63.0,0,32,0.0,127.0
471,58.0,0,32,0.0,127.0
472,49.0,0,48,2.0,127.0
473,51.0,48,48,2.0,127.0
474,68.0,0,32,0.0,127.0
475,60.0,0,32,0.0,127.0
476,65.0,0,32,0.0,127.0
477,48.0,48,48,2.0,127.0
478,49.0,48,48,2.0,127.0
479,67.0,0,32,0.0,127.0
480,61.0,48,32,0.0,127.0
481,70.0,0,32,0.0,127.0
482,46.0,0,48,2.0,127.0
483,48.0,48,48,2.0,127.0
484,44.0,0,96,2.0,127.0
485,68.0,48,48,1.0,127.0
486,72.0,0,96,0.0,127.0
487,63.0,48,96,0.0,127.0
488,67.0,48,48,1.0,127.0
489,65.0,48,48,1.0,127.0
490,63.0,48,48,1.0,127.0
491,61.0,48,48,2.0,127.0
492,60.0,48,48,2.0,127.0
493,58.0,48,48,2.0,127.0
494,56.0,48,48,2.0,127.0
495,56.0,48,48,2.0,127.0
496,63.0,0,32,0.0,127.0
497,72.0,48,32,0.0,127.0
498,55.0,0,48,2.0,127.0
499,56.0,48,48,2.0,127.0
500,74.0,48,32,0.0,127.0
501,65.0,0,32,0.0,127.0
502,68.0,0,128,0.0,127.0
503,53.0,0,48,2.0,127.0
504,55.0,48,48,2.0,127.0
505,67.0,0,32,0.0,127.0
506,70.0,0,32,0.0,127.0
507,75.0,0,32,0.0,127.0
508,51.0,48,48,2.0,127.0
509,53.0,48,48,2.0,127.0
510,70.0,48,480,0.0,127.0
511,50.0,48,720,2.0,127.0
512,53.0,48,672,2.0,127.0
513,58.0,48,624,2.0,127.0
514,77.0,48,432,0.0,127.0
515,65.0,48,576,0.0,127.0
516,68.0,48,528,0.0,127.0
517,58.0,48,240,2.0,127.0
518,77.0,48,96,0.0,127.0
519,55.0,48,288,2.0,127.0
520,51.0,96,0,2.0,127.0
521,70.0,48,144,0.0,127.0
522,67.0,48,192,0.0,127.0
523,75.0,48,48,0.0,127.0
524,66.0,48,192,0.0,127.0
525,69.0,48,144,0.0,127.0
526,72.0,48,96,0.0,127.0
527,60.0,48,240,2.0,127.0
528,57.0,48,288,2.0,127.0
529,58.0,48,240,2.0,127.0
530,46.0,48,336,2.0,127.0
531,75.0,48,48,0.0,127.0
532,65.0,48,192,0.0,127.0
533,68.0,48,144,0.0,127.0
534,70.0,48,96,0.0,127.0
535,53.0,48,288,2.0,127.0
536,68.0,48,144,0.0,127.0
537,70.0,48,96,0.0,127.0
538,58.0,48,240,2.0,127.0
539,46.0,48,336,2.0,127.0
540,53.0,48,288,2.0,127.0
541,65.0,48,192,0.0,127.0
542,74.0,48,48,0.0,127.0
543,51.0,48,1104,2.0,127.0
544,55.0,48,1056,2.0,127.0
545,58.0,48,1008,2.0,127.0
546,75.0,48,816,0.0,127.0
547,67.0,48,912,0.0,127.0
548,63.0,48,960,0.0,127.0
549,70.0,48,864,0.0,127.0
550,58.0,48,0,0.0,127.0
551,53.0,48,48,0.0,127.0
552,55.0,48,48,0.0,127.0
553,58.0,48,48,0.0,127.0
554,55.0,48,48,0.0,127.0
555,58.0,48,48,0.0,127.0
556,61.0,48,48,0.0,127.0
557,39.0,0,384,3.0,127.0
558,51.0,48,192,2.0,127.0
559,60.0,48,48,0.0,127.0
560,55.0,48,48,0.0,127.0
561,56.0,48,48,0.0,127.0
562,60.0,48,48,0.0,127.0
563,56.0,48,48,0.0,127.0
564,60.0,48,48,0.0,127.0
565,51.0,48,192,2.0,127.0
566,63.0,48,48,0.0,127.0
567,39.0,0,384,3.0,127.0
568,62.0,48,48,0.0,127.0
569,55.0,48,48,0.0,127.0
570,56.0,48,48,0.0,127.0
571,62.0,48,48,0.0,127.0
572,56.0,48,48,0.0,127.0
573,62.0,48,48,0.0,127.0
574,41.0,0,384,3.0,127.0
575,53.0,48,192,2.0,127.0
576,65.0,48,0,0.0,127.0
577,62.0,48,48,0.0,127.0
578,63.0,48,48,0.0,127.0
579,67.0,48,48,0.0,127.0
580,58.0,0,48,0.0,127.0
581,62.0,48,48,0.0,127.0
582,63.0,48,48,0.0,127.0
583,43.0,0,384,3.0,127.0
584,55.0,48,192,2.0,127.0
585,67.0,0,0,0.0,127.0
586,63.0,48,48,0.0,127.0
587,65.0,48,48,0.0,127.0
588,68.0,48,48,0.0,127.0
589,60.0,0,48,0.0,127.0
590,63.0,48,48,0.0,127.0
591,65.0,48,48,0.0,127.0
592,68.0,48,48,0.0,127.0
593,44.0,48,384,3.0,127.0
594,62.0,48,48,0.0,127.0
595,72.0,48,48,0.0,127.0
596,70.0,48,48,0.0,127.0
597,56.0,48,384,2.0,127.0
598,62.0,48,48,0.0,127.0
599,63.0,0,48,0.0,127.0
600,70.0,48,48,0.0,127.0
601,67.0,48,48,0.0,127.0
602,55.0,48,192,2.0,127.0
603,63.0,48,48,0.0,127.0
604,60.0,48,48,0.0,127.0
605,70.0,48,48,0.0,127.0
606,68.0,48,48,0.0,127.0
607,60.0,48,48,0.0,127.0
608,51.0,0,192,2.0,127.0
609,62.0,48,48,0.0,127.0
610,68.0,48,48,0.0,127.0
611,65.0,48,48,0.0,127.0
612,62.0,48,48,0.0,127.0
613,53.0,0,192,2.0,127.0
614,58.0,48,48,0.0,127.0
615,68.0,48,48,0.0,127.0
616,67.0,48,48,0.0,127.0
617,50.0,0,192,2.0,127.0
618,58.0,48,48,0.0,127.0
619,60.0,0,48,0.0,127.0
620,67.0,48,48,0.0,127.0
621,63.0,48,48,0.0,127.0
622,60.0,48,48,0.0,127.0
623,46.0,0,1152,3.0,127.0
624,56.0,0,48,0.0,127.0
625,67.0,48,48,0.0,127.0
626,65.0,48,48,0.0,127.0
627,56.0,48,48,0.0,127.0
628,48.0,48,192,3.0,127.0
629,51.0,48,384,2.0,127.0
630,58.0,48,48,0.0,127.0
631,65.0,48,48,0.0,127.0
632,62.0,48,48,0.0,127.0
633,50.0,0,192,3.0,127.0
634,58.0,48,48,0.0,127.0
635,53.0,0,192,2.0,127.0
636,55.0,0,48,0.0,127.0
637,58.0,48,48,0.0,127.0
638,51.0,48,96,3.0,127.0
639,62.0,0,48,0.0,127.0
640,65.0,48,48,0.0,127.0
641,50.0,48,96,3.0,127.0
642,63.0,0,48,0.0,127.0
643,48.0,48,96,3.0,127.0
644,67.0,48,48,0.0,127.0
645,70.0,0,48,0.0,127.0
646,46.0,48,96,3.0,127.0
647,73.0,48,48,0.0,127.0
648,67.0,48,48,1.0,127.0
649,55.0,0,480,2.0,127.0
650,68.0,0,48,1.0,127.0
651,65.0,48,48,1.0,127.0
652,44.0,48,192,3.0,127.0
653,72.0,0,240,0.0,127.0
654,53.0,48,192,2.0,127.0
655,72.0,48,48,0.0,127.0
656,70.0,0,48,0.0,127.0
657,46.0,0,192,3.0,127.0
658,68.0,48,48,0.0,127.0
659,62.0,48,192,1.0,127.0
660,67.0,0,48,0.0,127.0
661,51.0,48,96,3.0,127.0
662,65.0,48,48,0.0,127.0
663,67.0,0,48,0.0,127.0
664,53.0,48,96,3.0,127.0
665,70.0,48,48,0.0,127.0
666,55.0,48,96,3.0,127.0
667,70.0,48,48,1.0,127.0
668,72.0,0,48,1.0,127.0
669,68.0,48,48,1.0,127.0
670,58.0,48,480,2.0,127.0
671,56.0,48,96,3.0,127.0
672,75.0,48,0,0.0,127.0
673,58.0,48,96,3.0,127.0
674,74.0,0,48,0.0,127.0
675,57.0,48,96,3.0,127.0
676,72.0,48,48,0.0,127.0
677,65.0,0,240,1.0,127.0
678,71.0,48,48,1.0,127.0
679,59.0,48,96,3.0,127.0
680,68.0,0,48,1.0,127.0
681,74.0,0,192,0.0,127.0
682,55.0,48,96,3.0,127.0
683,67.0,48,48,1.0,127.0
684,65.0,48,48,1.0,127.0
685,60.0,0,96,3.0,127.0
686,62.0,48,48,1.0,127.0
687,63.0,0,48,1.0,127.0
688,67.0,48,48,1.0,127.0
689,48.0,48,96,3.0,127.0
690,51.0,0,96,3.0,127.0
691,67.0,48,48,1.0,127.0
692,68.0,0,48,1.0,127.0
693,53.0,48,96,3.0,127.0
694,65.0,48,48,1.0,127.0
695,72.0,48,240,0.0,127.0
696,72.0,48,48,0.0,127.0
697,55.0,48,96,3.0,127.0
698,70.0,48,48,0.0,127.0
699,68.0,48,48,0.0,127.0
700,53.0,0,96,3.0,127.0
701,62.0,0,240,1.0,127.0
702,55.0,48,96,3.0,127.0
703,65.0,48,48,1.0,127.0
704,67.0,0,48,1.0,127.0
705,61.0,48,48,1.0,127.0
706,51.0,48,96,3.0,127.0
707,70.0,0,240,0.0,127.0
708,63.0,48,48,0.0,127.0
709,56.0,0,96,3.0,127.0
710,67.0,48,48,0.0,127.0
711,60.0,48,192,1.0,127.0
712,70.0,48,48,0.0,127.0
713,55.0,0,96,3.0,127.0
714,68.0,0,48,0.0,127.0
715,53.0,48,96,3.0,127.0
716,72.0,48,48,0.0,127.0
717,75.0,48,48,0.0,127.0
718,51.0,0,96,3.0,127.0
719,79.0,48,48,0.0,127.0
720,68.0,0,240,1.0,127.0
721,72.0,48,48,1.0,127.0
722,50.0,48,96,3.0,127.0
723,74.0,48,48,1.0,127.0
724,48.0,0,96,3.0,127.0
725,75.0,48,48,1.0,127.0
726,68.0,48,48,1.0,127.0
727,75.0,48,48,1.0,127.0
728,50.0,0,96,3.0,127.0
729,74.0,0,48,1.0,127.0
730,68.0,48,48,1.0,127.0
731,46.0,48,96,3.0,127.0
732,77.0,0,432,0.0,127.0
733,70.0,48,48,0.0,127.0
734,51.0,0,96,3.0,127.0
735,74.0,48,48,0.0,127.0
736,77.0,48,48,0.0,127.0
737,50.0,0,96,3.0,127.0
738,67.0,48,240,1.0,127.0
739,48.0,0,96,3.0,127.0
740,69.0,48,48,1.0,127.0
741,70.0,48,48,1.0,127.0
742,72.0,48,48,1.0,127.0
743,46.0,0,96,3.0,127.0
744,75.0,48,0,0.0,127.0
745,45.0,0,96,3.0,127.0
746,74.0,0,48,0.0,127.0
747,46.0,48,96,3.0,127.0
748,70.0,48,48,0.0,127.0
749,67.0,0,48,0.0,127.0
750,51.0,48,96,3.0,127.0
751,65.0,48,288,1.0,127.0
752,72.0,48,96,0.0,127.0
753,69.0,48,48,0.0,127.0
754,53.0,48,96,3.0,127.0
755,63.0,0,144,1.0,127.0
756,60.0,48,48,1.0,127.0
757,58.0,48,144,2.0,127.0
758,70.0,0,336,0.0,127.0
759,65.0,48,192,1.0,127.0
760,62.0,48,240,1.0,127.0
761,46.0,48,336,3.0,127.0
762,58.0,144,48,0.0,127.0
763,58.0,48,48,0.0,127.0
764,53.0,48,48,0.0,127.0
765,55.0,48,48,0.0,127.0
766,58.0,48,48,0.0,127.0
767,55.0,48,48,0.0,127.0
768,58.0,48,48,0.0,127.0
769,39.0,48,0,3.0,127.0
770,51.0,48,192,2.0,127.0
771,61.0,48,48,0.0,127.0
772,60.0,0,48,0.0,127.0
773,55.0,48,48,0.0,127.0
774,56.0,48,48,0.0,127.0
775,60.0,48,48,0.0,127.0
776,56.0,48,48,0.0,127.0
777,60.0,48,48,0.0,127.0
778,63.0,48,48,0.0,127.0
779,51.0,48,192,2.0,127.0
780,62.0,48,48,0.0,127.0
781,55.0,48,48,0.0,127.0
782,56.0,48,48,0.0,127.0
783,62.0,48,48,0.0,127.0
784,56.0,48,48,0.0,127.0
785,62.0,48,48,0.0,127.0
786,41.0,0,384,3.0,127.0
787,53.0,48,192,2.0,127.0
788,65.0,0,0,0.0,127.0
789,62.0,48,48,0.0,127.0
790,63.0,48,48,0.0,127.0
791,67.0,48,48,0.0,127.0
792,58.0,0,48,0.0,127.0
793,62.0,48,48,0.0,127.0
794,63.0,48,48,0.0,127.0
795,43.0,48,384,3.0,127.0
796,55.0,48,192,2.0,127.0
797,67.0,0,0,0.0,127.0
798,63.0,48,48,0.0,127.0
799,65.0,48,48,0.0,127.0
800,68.0,48,48,0.0,127.0
801,60.0,0,48,0.0,127.0
802,63.0,48,48,0.0,127.0
803,65.0,48,48,0.0,127.0
804,68.0,48,48,0.0,127.0
805,44.0,48,384,3.0,127.0
806,62.0,48,48,0.0,127.0
807,72.0,48,48,0.0,127.0
808,70.0,48,48,0.0,127.0
809,62.0,48,48,0.0,127.0
810,56.0,48,384,2.0,127.0
811,63.0,0,48,0.0,127.0
812,70.0,48,48,0.0,127.0
813,67.0,48,48,0.0,127.0
814,63.0,48,48,0.0,127.0
815,55.0,48,192,2.0,127.0
816,60.0,48,48,0.0,127.0
817,70.0,48,48,0.0,127.0
818,68.0,48,48,0.0,127.0
819,60.0,48,48,0.0,127.0
820,51.0,0,192,2.0,127.0
821,62.0,48,48,0.0,127.0
822,68.0,48,48,0.0,127.0
823,65.0,48,48,0.0,127.0
824,53.0,0,192,2.0,127.0
825,62.0,48,48,0.0,127.0
826,58.0,0,48,0.0,127.0
827,68.0,48,48,0.0,127.0
828,67.0,48,48,0.0,127.0
829,50.0,48,192,2.0,127.0
830,58.0,48,48,0.0,127.0
831,60.0,0,48,0.0,127.0
832,67.0,48,48,0.0,127.0
833,63.0,48,48,0.0,127.0
834,46.0,0,1152,3.0,127.0
835,60.0,48,48,0.0,127.0
836,56.0,0,48,0.0,127.0
837,67.0,48,48,0.0,127.0
838,65.0,48,48,0.0,127.0
839,56.0,48,48,0.0,127.0
840,51.0,48,384,2.0,127.0
841,48.0,48,192,3.0,127.0
842,58.0,48,48,0.0,127.0
843,65.0,48,48,0.0,127.0
844,62.0,48,48,0.0,127.0
845,50.0,0,192,3.0,127.0
846,58.0,48,48,0.0,127.0
847,53.0,0,192,2.0,127.0
848,55.0,0,48,0.0,127.0
849,58.0,48,48,0.0,127.0
850,51.0,0,96,3.0,127.0
851,62.0,48,48,0.0,127.0
852,50.0,0,96,3.0,127.0
853,65.0,48,48,0.0,127.0
854,63.0,0,48,0.0,127.0
855,67.0,48,48,0.0,127.0
856,48.0,48,96,3.0,127.0
857,70.0,48,48,0.0,127.0
858,73.0,48,48,0.0,127.0
859,46.0,0,96,3.0,127.0
860,55.0,48,480,2.0,127.0
861,67.0,48,48,1.0,127.0
862,68.0,48,48,1.0,127.0
863,44.0,0,192,3.0,127.0
864,65.0,48,48,1.0,127.0
865,72.0,48,0,0.0,127.0
866,53.0,0,192,2.0,127.0
867,70.0,48,48,0.0,127.0
868,68.0,48,48,0.0,127.0
869,46.0,0,192,3.0,127.0
870,62.0,48,192,1.0,127.0
871,67.0,0,48,0.0,127.0
872,65.0,48,48,0.0,127.0
873,51.0,48,96,3.0,127.0
874,67.0,48,48,0.0,127.0
875,70.0,48,48,0.0,127.0
876,53.0,0,96,3.0,127.0
877,70.0,48,48,1.0,127.0
878,55.0,48,96,3.0,127.0
879,72.0,48,48,1.0,127.0
880,68.0,48,48,1.0,127.0
881,58.0,0,480,2.0,127.0
882,56.0,0,96,3.0,127.0
883,75.0,0,240,0.0,127.0
884,75.0,48,48,0.0,127.0
885,58.0,0,96,3.0,127.0
886,74.0,48,48,0.0,127.0
887,57.0,0,96,3.0,127.0
888,72.0,48,48,0.0,127.0
889,65.0,48,240,1.0,127.0
890,59.0,0,96,3.0,127.0
891,71.0,48,48,1.0,127.0
892,68.0,48,48,1.0,127.0
893,67.0,48,48,1.0,127.0
894,55.0,0,96,3.0,127.0
895,74.0,48,192,0.0,127.0
896,65.0,48,48,1.0,127.0
897,60.0,0,96,3.0,127.0
898,62.0,48,48,1.0,127.0
899,63.0,48,48,1.0,127.0
900,67.0,48,48,1.0,127.0
901,48.0,0,96,3.0,127.0
902,67.0,48,48,1.0,127.0
903,51.0,0,96,3.0,127.0
904,68.0,48,48,1.0,127.0
905,65.0,48,48,1.0,127.0
906,53.0,0,96,3.0,127.0
907,72.0,48,240,0.0,127.0
908,72.0,48,48,0.0,127.0
909,55.0,0,96,3.0,127.0
910,70.0,48,48,0.0,127.0
911,53.0,0,96,3.0,127.0
912,68.0,48,48,0.0,127.0
913,62.0,48,240,1.0,127.0
914,55.0,48,96,3.0,127.0
915,65.0,48,48,1.0,127.0
916,67.0,0,48,1.0,127.0
917,61.0,48,48,1.0,127.0
918,51.0,48,96,3.0,127.0
919,70.0,0,240,0.0,127.0
920,56.0,48,96,3.0,127.0
921,63.0,48,48,0.0,127.0
922,67.0,0,48,0.0,127.0
923,55.0,48,96,3.0,127.0
924,70.0,48,48,0.0,127.0
925,60.0,0,192,1.0,127.0
926,68.0,0,48,0.0,127.0
927,53.0,48,96,3.0,127.0
928,72.0,48,48,0.0,127.0
929,75.0,0,48,0.0,127.0
930,51.0,48,96,3.0,127.0
931,79.0,48,48,0.0,127.0
932,68.0,0,240,1.0,127.0
933,72.0,48,48,1.0,127.0
934,50.0,48,96,3.0,127.0
935,74.0,0,48,1.0,127.0
936,48.0,48,96,3.0,127.0
937,75.0,48,48,1.0,127.0
938,68.0,48,48,1.0,127.0
939,50.0,0,96,3.0,127.0
940,75.0,48,48,1.0,127.0
941,74.0,0,48,1.0,127.0
942,68.0,48,48,1.0,127.0
943,46.0,48,96,3.0,127.0
944,77.0,0,432,0.0,127.0
945,51.0,0,96,3.0,127.0
946,70.0,48,48,0.0,127.0
947,74.0,48,48,0.0,127.0
948,77.0,48,48,0.0,127.0
949,50.0,0,96,3.0,127.0
950,67.0,48,240,1.0,127.0
951,69.0,48,48,1.0,127.0
952,48.0,0,96,3.0,127.0
953,70.0,48,48,1.0,127.0
954,46.0,0,96,3.0,127.0
955,72.0,48,48,1.0,127.0
956,75.0,48,0,0.0,127.0
957,45.0,48,96,3.0,127.0
958,74.0,48,48,0.0,127.0
959,46.0,0,96,3.0,127.0
960,70.0,48,48,0.0,127.0
961,67.0,0,48,0.0,127.0
962,51.0,48,96,3.0,127.0
963,65.0,0,288,1.0,127.0
964,72.0,48,96,0.0,127.0
965,69.0,48,48,0.0,127.0
966,53.0,48,96,3.0,127.0
967,63.0,0,144,1.0,127.0
968,60.0,48,48,1.0,127.0
969,62.0,48,240,1.0,127.0
970,65.0,48,192,1.0,127.0
971,46.0,0,336,3.0,127.0
972,58.0,48,144,2.0,127.0
973,70.0,48,336,0.0,127.0
974,77.0,144,48,0.0,127.0
975,77.0,48,48,0.0,127.0
976,72.0,48,48,0.0,127.0
977,74.0,48,48,0.0,127.0
978,77.0,48,48,0.0,127.0
979,74.0,48,48,0.0,127.0
980,77.0,48,48,0.0,127.0
981,80.0,48,48,0.0,127.0
982,58.0,0,384,3.0,127.0
983,70.0,48,192,1.0,127.0
984,79.0,48,48,0.0,127.0
985,74.0,48,48,0.0,127.0
986,75.0,48,48,0.0,127.0
987,79.0,48,48,0.0,127.0
988,75.0,48,48,0.0,127.0
989,79.0,48,48,0.0,127.0
990,70.0,48,192,1.0,127.0
991,82.0,48,48,0.0,127.0
992,58.0,0,384,3.0,127.0
993,81.0,0,48,0.0,127.0
994,75.0,48,48,0.0,127.0
995,77.0,48,48,0.0,127.0
996,81.0,48,48,0.0,127.0
997,75.0,48,48,0.0,127.0
998,81.0,48,48,0.0,127.0
999,84.0,48,48,0.0,127.0
1000,58.0,0,0,3.0,127.0
1001,69.0,48,192,1.0,127.0
1002,84.0,48,48,0.0,127.0
1003,81.0,48,48,0.0,127.0
1004,82.0,48,48,0.0,127.0
1005,77.0,48,48,0.0,127.0
1006,75.0,0,48,0.0,127.0
1007,72.0,48,48,0.0,127.0
1008,74.0,48,48,0.0,127.0
1009,65.0,48,192,1.0,127.0
1010,68.0,48,48,1.0,127.0
1011,65.0,48,48,2.0,127.0
1012,77.0,48,192,0.0,127.0
1013,71.0,48,48,0.0,127.0
1014,74.0,48,48,0.0,127.0
1015,77.0,48,48,0.0,127.0
1016,75.0,48,48,0.0,127.0
1017,74.0,48,48,0.0,127.0
1018,59.0,0,384,3.0,127.0
1019,67.0,48,336,2.0,127.0
1020,71.0,48,48,1.0,127.0
1021,72.0,48,48,1.0,127.0
1022,67.0,48,48,1.0,127.0
1023,63.0,48,48,2.0,127.0
1024,59.0,48,48,2.0,127.0
1025,60.0,48,48,2.0,127.0
1026,63.0,0,192,1.0,127.0
1027,60.0,0,384,3.0,127.0
1028,55.0,48,48,2.0,127.0
1029,60.0,48,48,2.0,127.0
1030,63.0,48,48,2.0,127.0
1031,67.0,48,48,1.0,127.0
1032,75.0,48,624,0.0,127.0
1033,75.0,48,48,0.0,127.0
1034,74.0,48,48,0.0,127.0
1035,77.0,48,48,0.0,127.0
1036,56.0,48,384,3.0,127.0
1037,72.0,48,48,0.0,127.0
1038,69.0,48,48,0.0,127.0
1039,65.0,48,432,2.0,127.0
1040,59.0,48,48,2.0,127.0
1041,62.0,48,48,2.0,127.0
1042,71.0,48,288,0.0,127.0
1043,74.0,48,240,0.0,127.0
1044,65.0,48,48,2.0,127.0
1045,79.0,48,240,0.0,127.0
1046,82.0,48,48,0.0,127.0
1047,55.0,0,480,3.0,127.0
1048,73.0,0,48,0.0,127.0
1049,72.0,48,48,0.0,127.0
1050,58.0,48,96,3.0,127.0
1051,70.0,0,48,0.0,127.0
1052,56.0,48,96,3.0,127.0
1053,79.0,48,48,0.0,127.0
1054,76.0,0,48,0.0,127.0
1055,64.0,48,384,2.0,127.0
1056,55.0,48,96,3.0,127.0
1057,72.0,48,48,0.0,127.0
1058,80.0,48,48,0.0,127.0
1059,77.0,48,48,0.0,127.0
1060,53.0,0,96,3.0,127.0
1061,74.0,48,48,0.0,127.0
1062,51.0,0,96,3.0,127.0
1063,72.0,48,48,0.0,127.0
1064,65.0,0,192,2.0,127.0
1065,71.0,48,48,0.0,127.0
1066,77.0,48,48,0.0,127.0
1067,50.0,0,96,3.0,127.0
1068,74.0,0,48,0.0,127.0
1069,48.0,48,96,3.0,127.0
1070,71.0,48,48,0.0,127.0
1071,67.0,0,48,0.0,127.0
1072,71.0,48,48,0.0,127.0
1073,53.0,48,96,3.0,127.0
1074,72.0,48,48,0.0,127.0
1075,51.0,0,48,3.0,127.0
1076,67.0,0,192,1.0,127.0
1077,53.0,48,48,3.0,127.0
1078,75.0,0,96,0.0,127.0
1079,55.0,0,96,3.0,127.0
1080,74.0,48,48,0.0,127.0
1081,72.0,48,48,0.0,127.0
1082,43.0,0,96,3.0,127.0
1083,71.0,48,48,0.0,127.0
1084,65.0,48,240,1.0,127.0
1085,62.0,48,48,1.0,127.0
1086,48.0,0,240,3.0,127.0
1087,55.0,48,48,3.0,127.0
1088,51.0,48,48,3.0,127.0
1089,63.0,48,288,1.0,127.0
1090,67.0,48,240,1.0,127.0
1091,60.0,48,192,1.0,127.0
1092,72.0,48,384,0.0,127.0
1093,48.0,48,48,3.0,127.0
1094,62.0,48,48,0.0,127.0
1095,43.0,48,96,3.0,127.0
1096,63.0,48,48,0.0,127.0
1097,41.0,0,96,3.0,127.0
1098,67.0,48,48,0.0,127.0
1099,70.0,48,48,0.0,127.0
1100,65.0,48,48,0.0,127.0
1101,43.0,0,96,3.0,127.0
1102,67.0,48,48,0.0,127.0
1103,39.0,0,96,3.0,127.0
1104,70.0,48,48,0.0,127.0
1105,73.0,0,48,0.0,127.0
1106,67.0,48,48,0.0,127.0
1107,44.0,48,240,3.0,127.0
1108,44.0,48,48,3.0,127.0
1109,43.0,48,48,3.0,127.0
1110,63.0,48,192,0.0,127.0
1111,68.0,48,288,0.0,127.0
1112,41.0,48,48,3.0,127.0
1113,72.0,48,288,0.0,127.0
1114,71.0,48,48,0.0,127.0
1115,40.0,48,96,3.0,127.0
1116,72.0,48,48,0.0,127.0
1117,38.0,0,96,3.0,127.0
1118,76.0,48,48,0.0,127.0
1119,79.0,0,48,0.0,127.0
1120,70.0,48,48,0.0,127.0
1121,40.0,48,96,3.0,127.0
1122,72.0,0,48,0.0,127.0
1123,36.0,48,96,3.0,127.0
1124,67.0,48,48,0.0,127.0
1125,68.0,0,48,0.0,127.0
1126,64.0,48,48,0.0,127.0
1127,41.0,48,240,3.0,127.0
1128,43.0,48,48,3.0,127.0
1129,41.0,48,48,3.0,127.0
1130,65.0,48,288,0.0,127.0
1131,60.0,48,192,0.0,127.0
1132,39.0,48,48,3.0,127.0
1133,68.0,48,288,0.0,127.0
1134,58.0,48,48,0.0,127.0
1135,38.0,48,96,3.0,127.0
1136,65.0,0,48,0.0,127.0
1137,46.0,48,96,3.0,127.0
1138,68.0,48,48,0.0,127.0
1139,67.0,0,48,0.0,127.0
1140,51.0,48,96,3.0,127.0
1141,62.0,48,48,0.0,127.0
1142,63.0,0,48,0.0,127.0
1143,67.0,0,192,1.0,127.0
1144,37.0,48,96,3.0,127.0
1145,58.0,48,48,0.0,127.0
1146,56.0,0,48,0.0,127.0
1147,60.0,48,48,0.0,127.0
1148,36.0,48,96,3.0,127.0
1149,63.0,48,48,0.0,127.0
1150,48.0,0,96,3.0,127.0
1151,67.0,48,48,0.0,127.0
1152,56.0,0,192,1.0,127.0
1153,65.0,0,48,0.0,127.0
1154,70.0,48,48,0.0,127.0
1155,50.0,48,96,3.0,127.0
1156,62.0,48,48,0.0,127.0
1157,60.0,48,48,0.0,127.0
1158,44.0,0,96,3.0,127.0
1159,70.0,0,144,1.0,127.0
1160,58.0,48,48,0.0,127.0
1161,62.0,48,48,0.0,127.0
1162,43.0,0,96,3.0,127.0
1163,63.0,0,48,0.0,127.0
1164,48.0,48,96,3.0,127.0
1165,67.0,48,48,0.0,127.0
1166,60.0,0,48,0.0,127.0
1167,44.0,48,96,3.0,127.0
1168,58.0,0,288,1.0,127.0
1169,65.0,48,96,0.0,127.0
1170,46.0,48,96,3.0,127.0
1171,62.0,48,48,0.0,127.0
1172,56.0,0,144,1.0,127.0
1173,53.0,48,48,1.0,127.0
1174,63.0,0,336,0.0,127.0
1175,39.0,48,336,3.0,127.0
1176,58.0,48,192,1.0,127.0
1177,51.0,48,144,2.0,127.0
1178,55.0,48,240,1.0,127.0
1179,77.0,0,0,0.0,127.0
1180,72.0,48,48,0.0,127.0
1181,74.0,48,48,0.0,127.0
1182,77.0,48,48,0.0,127.0
1183,74.0,48,48,0.0,127.0
1184,77.0,48,48,0.0,127.0
1185,70.0,48,192,1.0,127.0
1186,80.0,48,48,0.0,127.0
1187,58.0,0,0,3.0,127.0
1188,79.0,48,48,0.0,127.0
1189,74.0,48,48,0.0,127.0
1190,75.0,48,48,0.0,127.0
1191,79.0,48,48,0.0,127.0
1192,75.0,48,48,0.0,127.0
1193,79.0,48,48,0.0,127.0
1194,70.0,48,192,1.0,127.0
1195,82.0,48,48,0.0,127.0
1196,81.0,0,48,0.0,127.0
1197,75.0,48,48,0.0,127.0
1198,77.0,48,48,0.0,127.0
1199,81.0,48,48,0.0,127.0
1200,75.0,48,48,0.0,127.0
1201,81.0,48,48,0.0,127.0
1202,84.0,48,48,0.0,127.0
1203,58.0,48,384,3.0,127.0
1204,69.0,48,192,1.0,127.0
1205,84.0,48,48,0.0,127.0
1206,81.0,48,48,0.0,127.0
1207,82.0,48,48,0.0,127.0
1208,77.0,48,48,0.0,127.0
1209,75.0,0,48,0.0,127.0
1210,72.0,48,48,0.0,127.0
1211,74.0,48,48,0.0,127.0
1212,58.0,0,384,3.0,127.0
1213,65.0,48,192,1.0,127.0
1214,68.0,48,48,1.0,127.0
1215,65.0,48,48,2.0,127.0
1216,77.0,48,192,0.0,127.0
1217,71.0,48,48,0.0,127.0
1218,74.0,48,48,0.0,127.0
1219,77.0,48,48,0.0,127.0
1220,75.0,48,48,0.0,127.0
1221,74.0,48,48,0.0,127.0
1222,59.0,0,384,3.0,127.0
1223,67.0,48,336,2.0,127.0
1224,71.0,48,48,1.0,127.0
1225,72.0,48,48,1.0,127.0
1226,67.0,48,48,1.0,127.0
1227,63.0,48,48,2.0,127.0
1228,59.0,48,48,2.0,127.0
1229,60.0,48,48,2.0,127.0
1230,63.0,0,192,1.0,127.0
1231,60.0,48,384,3.0,127.0
1232,55.0,48,48,2.0,127.0
1233,60.0,48,48,2.0,127.0
1234,63.0,48,48,2.0,127.0
1235,67.0,48,48,1.0,127.0
1236,75.0,0,624,0.0,127.0
1237,75.0,48,48,0.0,127.0
1238,74.0,48,48,0.0,127.0
1239,56.0,48,384,3.0,127.0
1240,77.0,48,48,0.0,127.0
1241,72.0,0,48,0.0,127.0
1242,69.0,48,48,0.0,127.0
1243,65.0,48,432,2.0,127.0
1244,59.0,48,48,2.0,127.0
1245,62.0,48,48,2.0,127.0
1246,71.0,48,288,0.0,127.0
1247,74.0,48,240,0.0,127.0
1248,65.0,48,48,2.0,127.0
1249,79.0,48,240,0.0,127.0
1250,82.0,48,48,0.0,127.0
1251,55.0,48,480,3.0,127.0
1252,73.0,0,48,0.0,127.0
1253,58.0,48,96,3.0,127.0
1254,72.0,48,48,0.0,127.0
1255,70.0,0,48,0.0,127.0
1256,56.0,48,96,3.0,127.0
1257,79.0,48,48,0.0,127.0
1258,76.0,0,48,0.0,127.0
1259,64.0,48,384,2.0,127.0
1260,72.0,48,48,0.0,127.0
1261,55.0,48,96,3.0,127.0
1262,80.0,0,48,0.0,127.0
1263,53.0,48,96,3.0,127.0
1264,77.0,48,48,0.0,127.0
1265,74.0,48,48,0.0,127.0
1266,51.0,0,96,3.0,127.0
1267,65.0,0,192,2.0,127.0
1268,72.0,48,48,0.0,127.0
1269,71.0,48,48,0.0,127.0
1270,77.0,48,48,0.0,127.0
1271,50.0,0,96,3.0,127.0
1272,74.0,48,48,0.0,127.0
1273,48.0,0,96,3.0,127.0
1274,71.0,48,48,0.0,127.0
1275,67.0,0,48,0.0,127.0
1276,53.0,48,96,3.0,127.0
1277,71.0,48,48,0.0,127.0
1278,51.0,48,48,3.0,127.0
1279,72.0,0,48,0.0,127.0
1280,67.0,0,192,1.0,127.0
1281,53.0,0,48,3.0,127.0
1282,75.0,48,96,0.0,127.0
1283,74.0,48,48,0.0,127.0
1284,55.0,0,96,3.0,127.0
1285,72.0,0,48,0.0,127.0
1286,43.0,48,96,3.0,127.0
1287,71.0,48,48,0.0,127.0
1288,65.0,48,240,1.0,127.0
1289,62.0,48,48,1.0,127.0
1290,48.0,0,240,3.0,127.0
1291,55.0,48,48,3.0,127.0
1292,51.0,48,48,3.0,127.0
1293,72.0,48,384,0.0,127.0
1294,60.0,48,192,1.0,127.0
1295,67.0,48,240,1.0,127.0
1296,63.0,48,288,1.0,127.0
1297,48.0,48,48,3.0,127.0
1298,62.0,48,48,0.0,127.0
1299,43.0,48,96,3.0,127.0
1300,63.0,0,48,0.0,127.0
1301,41.0,48,96,3.0,127.0
1302,67.0,48,48,0.0,127.0
1303,70.0,0,48,0.0,127.0
1304,43.0,48,96,3.0,127.0
1305,65.0,48,48,0.0,127.0
1306,67.0,0,48,0.0,127.0
1307,39.0,48,96,3.0,127.0
1308,70.0,48,48,0.0,127.0
1309,73.0,48,48,0.0,127.0
1310,67.0,48,48,0.0,127.0
1311,44.0,48,0,3.0,127.0
1312,43.0,48,48,3.0,127.0
1313,41.0,48,48,3.0,127.0
1314,68.0,48,288,0.0,127.0
1315,63.0,48,192,0.0,127.0
1316,72.0,48,288,0.0,127.0
1317,40.0,48,96,3.0,127.0
1318,71.0,48,48,0.0,127.0
1319,72.0,0,48,0.0,127.0
1320,38.0,48,96,3.0,127.0
1321,76.0,48,48,0.0,127.0
1322,79.0,0,48,0.0,127.0
1323,40.0,48,96,3.0,127.0
1324,70.0,48,48,0.0,127.0
1325,72.0,0,48,0.0,127.0
1326,36.0,48,96,3.0,127.0
1327,67.0,48,48,0.0,127.0
1328,68.0,0,48,0.0,127.0
1329,64.0,48,48,0.0,127.0
1330,41.0,48,240,3.0,127.0
1331,43.0,48,48,3.0,127.0
1332,41.0,48,48,3.0,127.0
1333,65.0,48,288,0.0,127.0
1334,60.0,48,192,0.0,127.0
1335,39.0,48,48,3.0,127.0
1336,68.0,48,288,0.0,127.0
1337,58.0,48,48,0.0,127.0
1338,38.0,48,96,3.0,127.0
1339,65.0,48,48,0.0,127.0
1340,68.0,48,48,0.0,127.0
1341,46.0,0,96,3.0,127.0
1342,67.0,48,48,0.0,127.0
1343,62.0,48,48,0.0,127.0
1344,51.0,0,96,3.0,127.0
1345,63.0,48,48,0.0,127.0
1346,67.0,0,192,1.0,127.0
1347,58.0,48,48,0.0,127.0
1348,37.0,0,96,3.0,127.0
1349,56.0,0,48,0.0,127.0
1350,36.0,0,96,3.0,127.0
1351,60.0,48,48,0.0,127.0
1352,63.0,0,48,0.0,127.0
1353,48.0,48,96,3.0,127.0
1354,56.0,48,192,1.0,127.0
1355,67.0,48,48,0.0,127.0
1356,65.0,48,48,0.0,127.0
1357,70.0,48,48,0.0,127.0
1358,50.0,0,96,3.0,127.0
1359,62.0,48,48,0.0,127.0
1360,70.0,0,144,1.0,127.0
1361,60.0,48,48,0.0,127.0
1362,44.0,0,96,3.0,127.0
1363,58.0,48,48,0.0,127.0
1364,62.0,48,48,0.0,127.0
1365,43.0,0,96,3.0,127.0
1366,63.0,48,48,0.0,127.0
1367,67.0,48,48,0.0,127.0
1368,48.0,0,96,3.0,127.0
1369,60.0,48,48,0.0,127.0
1370,44.0,0,96,3.0,127.0
1371,58.0,0,288,1.0,127.0
1372,65.0,48,96,0.0,127.0
1373,62.0,48,48,0.0,127.0
1374,46.0,48,96,3.0,127.0
1375,56.0,0,144,1.0,127.0
1376,53.0,48,48,1.0,127.0
1377,58.0,48,192,1.0,127.0
1378,55.0,48,240,1.0,127.0
1379,51.0,48,144,2.0,127.0
1380,39.0,0,336,3.0,127.0
1381,63.0,48,336,0.0,127.0
1382,58.0,0,0,0.0,127.0
1383,53.0,128,64,2.0,127.0
1384,60.0,64,64,0.0,127.0
1385,55.0,64,128,2.0,127.0
1386,53.0,0,64,2.0,127.0
1387,62.0,64,64,0.0,127.0
1388,63.0,0,64,0.0,127.0
1389,65.0,64,64,0.0,127.0
1390,55.0,64,128,2.0,127.0
1391,58.0,0,64,2.0,127.0
1392,51.0,96,576,3.0,127.0
1393,67.0,0,0,0.0,127.0
1394,51.0,64,0,3.0,127.0
1395,63.0,64,64,0.0,127.0
1396,56.0,64,192,2.0,127.0
1397,65.0,0,64,0.0,127.0
1398,74.0,64,16,0.0,127.0
1399,72.0,16,16,0.0,127.0
1400,53.0,0,128,3.0,127.0
1401,51.0,96,64,3.0,127.0
1402,74.0,16,224,0.0,127.0
1403,75.0,64,64,0.0,127.0
1404,53.0,64,128,3.0,127.0
1405,56.0,0,64,3.0,127.0
1406,77.0,64,64,0.0,127.0
1407,75.0,64,64,0.0,127.0
1408,55.0,0,128,3.0,127.0
1409,74.0,64,64,0.0,127.0
1410,72.0,0,64,0.0,127.0
1411,58.0,64,64,3.0,127.0
1412,70.0,64,64,0.0,127.0
1413,68.0,64,64,0.0,127.0
1414,63.0,0,128,3.0,127.0
1415,67.0,64,64,0.0,127.0
1416,55.0,0,64,3.0,127.0
1417,65.0,64,64,0.0,127.0
1418,67.0,64,64,0.0,127.0
1419,56.0,0,128,3.0,127.0
1420,68.0,64,64,0.0,127.0
1421,44.0,0,64,3.0,127.0
1422,68.0,64,64,0.0,127.0
1423,51.0,0,128,3.0,127.0
1424,65.0,64,64,0.0,127.0
1425,46.0,64,64,3.0,127.0
1426,67.0,0,64,0.0,127.0
1427,63.0,0,64,0.0,127.0
1428,43.0,64,128,3.0,127.0
1429,67.0,64,64,0.0,127.0
1430,39.0,64,64,3.0,127.0
1431,70.0,0,64,0.0,127.0
1432,75.0,0,64,0.0,127.0
1433,43.0,64,128,3.0,127.0
1434,79.0,64,64,0.0,127.0
1435,77.0,64,64,0.0,127.0
1436,46.0,0,64,3.0,127.0
1437,51.0,0,64,3.0,127.0
1438,50.0,64,64,3.0,127.0
1439,77.0,64,128,0.0,127.0
1440,79.0,0,16,0.0,127.0
1441,77.0,16,16,0.0,127.0
1442,48.0,64,64,3.0,127.0
1443,79.0,16,96,0.0,127.0
1444,47.0,32,128,3.0,127.0
1445,80.0,64,64,0.0,127.0
1446,50.0,0,64,3.0,127.0
1447,79.0,64,64,0.0,127.0
1448,77.0,64,64,0.0,127.0
1449,75.0,64,64,0.0,127.0
1450,43.0,0,128,3.0,127.0
1451,74.0,64,64,0.0,127.0
1452,47.0,0,64,3.0,127.0
1453,75.0,64,64,0.0,127.0
1454,72.0,64,64,0.0,127.0
1455,48.0,0,128,3.0,127.0
1456,74.0,64,64,0.0,127.0
1457,43.0,0,64,3.0,127.0
1458,75.0,64,64,0.0,127.0
1459,36.0,0,128,3.0,127.0
1460,77.0,64,64,0.0,127.0
1461,79.0,0,64,0.0,127.0
1462,48.0,64,64,3.0,127.0
1463,70.0,0,64,0.0,127.0
1464,50.0,64,128,3.0,127.0
1465,67.0,64,64,0.0,127.0
1466,69.0,64,64,0.0,127.0
1467,51.0,0,64,3.0,127.0
1468,77.0,0,16,0.0,127.0
1469,75.0,16,16,0.0,127.0
1470,50.0,64,64,3.0,127.0
1471,48.0,32,64,3.0,127.0
1472,46.0,64,64,3.0,127.0
1473,46.0,64,32,3.0,127.0
1474,77.0,16,224,0.0,127.0
1475,45.0,32,32,3.0,127.0
1476,46.0,0,32,3.0,127.0
1477,45.0,32,32,3.0,127.0
1478,79.0,32,64,0.0,127.0
1479,48.0,32,64,3.0,127.0
1480,77.0,0,64,0.0,127.0
1481,75.0,0,64,0.0,127.0
1482,41.0,64,128,3.0,127.0
1483,74.0,64,64,0.0,127.0
1484,45.0,0,64,3.0,127.0
1485,72.0,64,64,0.0,127.0
1486,74.0,0,64,0.0,127.0
1487,70.0,64,64,0.0,127.0
1488,72.0,64,64,0.0,127.0
1489,74.0,64,64,0.0,127.0
1490,46.0,64,320,3.0,127.0
1491,75.0,64,64,0.0,127.0
1492,77.0,64,64,0.0,127.0
1493,50.0,0,64,3.0,127.0
1494,68.0,64,64,0.0,127.0
1495,65.0,64,64,0.0,127.0
1496,53.0,0,128,3.0,127.0
1497,67.0,0,64,0.0,127.0
1498,58.0,64,64,3.0,127.0
1499,67.0,64,64,0.0,127.0
1500,70.0,64,64,0.0,127.0
1501,69.0,64,64,0.0,127.0
1502,70.0,64,64,0.0,127.0
1503,72.0,64,64,0.0,127.0
1504,51.0,0,320,3.0,127.0
1505,74.0,0,64,0.0,127.0
1506,53.0,64,64,3.0,127.0
1507,53.0,0,32,3.0,127.0
1508,72.0,64,64,0.0,127.0
1509,51.0,32,32,3.0,127.0
1510,53.0,32,32,3.0,127.0
1511,51.0,32,32,3.0,127.0
1512,69.0,0,64,0.0,127.0
1513,70.0,0,64,0.0,127.0
1514,50.0,32,64,3.0,127.0
1515,75.0,64,64,0.0,127.0
1516,72.0,64,64,0.0,127.0
1517,74.0,64,64,0.0,127.0
1518,75.0,64,64,0.0,127.0
1519,48.0,0,320,3.0,127.0
1520,77.0,64,64,0.0,127.0
1521,46.0,0,64,3.0,127.0
1522,79.0,64,64,0.0,127.0
1523,46.0,0,32,3.0,127.0
1524,77.0,64,64,0.0,127.0
1525,45.0,32,32,3.0,127.0
1526,46.0,0,32,3.0,127.0
1527,45.0,32,32,3.0,127.0
1528,74.0,32,64,0.0,127.0
1529,75.0,32,64,0.0,127.0
1530,43.0,0,64,3.0,127.0
1531,81.0,64,64,0.0,127.0
1532,41.0,0,128,3.0,127.0
1533,77.0,64,64,0.0,127.0
1534,79.0,64,64,0.0,127.0
1535,48.0,0,64,3.0,127.0
1536,81.0,0,64,0.0,127.0
1537,53.0,64,128,3.0,127.0
1538,82.0,64,64,0.0,127.0
1539,55.0,64,64,3.0,127.0
1540,84.0,0,64,0.0,127.0
1541,58.0,0,32,3.0,127.0
1542,57.0,32,32,3.0,127.0
1543,75.0,64,64,0.0,127.0
1544,58.0,0,32,3.0,127.0
1545,57.0,32,32,3.0,127.0
1546,72.0,32,64,0.0,127.0
1547,74.0,32,64,0.0,127.0
1548,53.0,0,64,3.0,127.0
1549,74.0,0,64,0.0,127.0
1550,58.0,64,128,3.0,127.0
1551,69.0,64,64,0.0,127.0
1552,55.0,0,64,3.0,127.0
1553,70.0,64,64,0.0,127.0
1554,70.0,0,64,0.0,127.0
1555,67.0,64,64,0.0,127.0
1556,51.0,64,128,3.0,127.0
1557,48.0,64,64,3.0,127.0
1558,69.0,0,64,0.0,127.0
1559,67.0,0,32,0.0,127.0
1560,69.0,32,16,0.0,127.0
1561,70.0,16,16,0.0,127.0
1562,69.0,16,16,0.0,127.0
1563,70.0,16,16,0.0,127.0
1564,53.0,64,128,3.0,127.0
1565,69.0,16,32,0.0,127.0
1566,41.0,32,64,3.0,127.0
1567,70.0,64,0,0.0,127.0
1568,46.0,0,64,3.0,127.0
1569,50.0,64,64,3.0,127.0
1570,53.0,64,64,3.0,127.0
1571,58.0,64,128,3.0,127.0
1572,62.0,64,64,0.0,127.0
1573,48.0,64,64,3.0,127.0
1574,63.0,0,64,0.0,127.0
1575,65.0,64,64,0.0,127.0
1576,67.0,64,64,0.0,127.0
1577,50.0,0,128,3.0,127.0
1578,68.0,64,64,0.0,127.0
1579,46.0,0,64,3.0,127.0
1580,67.0,64,64,0.0,127.0
1581,51.0,0,128,3.0,127.0
1582,62.0,64,64,0.0,127.0
1583,63.0,0,64,0.0,127.0
1584,48.0,64,64,3.0,127.0
1585,60.0,0,64,0.0,127.0
1586,70.0,64,64,0.0,127.0
1587,53.0,64,128,3.0,127.0
1588,69.0,64,64,0.0,127.0
1589,50.0,0,64,3.0,127.0
1590,70.0,64,64,0.0,127.0
1591,65.0,64,64,0.0,127.0
1592,55.0,0,128,3.0,127.0
1593,67.0,0,64,0.0,127.0
1594,51.0,64,64,3.0,127.0
1595,63.0,0,64,0.0,127.0
1596,74.0,64,64,0.0,127.0
1597,57.0,64,128,3.0,127.0
1598,72.0,64,64,0.0,127.0
1599,53.0,0,64,3.0,127.0
1600,74.0,64,64,0.0,127.0
1601,75.0,64,64,0.0,127.0
1602,58.0,0,128,3.0,127.0
1603,51.0,64,64,3.0,127.0
1604,77.0,0,64,0.0,127.0
1605,65.0,64,64,0.0,127.0
1606,70.0,64,64,0.0,127.0
1607,53.0,0,128,3.0,127.0
1608,69.0,64,64,0.0,127.0
1609,41.0,0,64,3.0,127.0
1610,70.0,64,64,0.0,127.0
1611,65.0,64,64,0.0,127.0
1612,62.0,64,64,0.0,127.0
1613,46.0,0,192,3.0,127.0
1614,53.0,64,64,3.0,127.0
1615,50.0,64,64,3.0,127.0
1616,46.0,64,96,3.0,127.0
1617,58.0,96,0,0.0,127.0
1618,58.0,96,0,0.0,127.0
1619,53.0,128,64,2.0,127.0
1620,55.0,64,128,2.0,127.0
1621,60.0,64,64,0.0,127.0
1622,62.0,0,64,0.0,127.0
1623,53.0,64,64,2.0,127.0
1624,63.0,0,64,0.0,127.0
1625,65.0,64,64,0.0,127.0
1626,55.0,64,128,2.0,127.0
1627,51.0,64,0,3.0,127.0
1628,58.0,64,64,2.0,127.0
1629,67.0,0,0,0.0,127.0
1630,63.0,64,64,0.0,127.0
1631,51.0,0,64,3.0,127.0
1632,56.0,0,192,2.0,127.0
1633,65.0,64,64,0.0,127.0
1634,74.0,64,16,0.0,127.0
1635,72.0,16,16,0.0,127.0
1636,53.0,0,128,3.0,127.0
1637,51.0,96,64,3.0,127.0
1638,74.0,16,224,0.0,127.0
1639,53.0,64,128,3.0,127.0
1640,75.0,64,64,0.0,127.0
1641,77.0,64,64,0.0,127.0
1642,56.0,0,64,3.0,127.0
1643,75.0,64,64,0.0,127.0
1644,55.0,0,128,3.0,127.0
1645,74.0,64,64,0.0,127.0
1646,58.0,64,64,3.0,127.0
1647,72.0,0,64,0.0,127.0
1648,70.0,0,64,0.0,127.0
1649,68.0,64,64,0.0,127.0
1650,63.0,64,128,3.0,127.0
1651,67.0,64,64,0.0,127.0
1652,55.0,0,64,3.0,127.0
1653,65.0,0,64,0.0,127.0
1654,67.0,64,64,0.0,127.0
1655,56.0,64,128,3.0,127.0
1656,68.0,64,64,0.0,127.0
1657,44.0,0,64,3.0,127.0
1658,68.0,64,64,0.0,127.0
1659,65.0,64,64,0.0,127.0
1660,51.0,0,128,3.0,127.0
1661,67.0,64,64,0.0,127.0
1662,46.0,0,64,3.0,127.0
1663,63.0,64,64,0.0,127.0
1664,43.0,0,128,3.0,127.0
1665,67.0,64,64,0.0,127.0
1666,39.0,64,64,3.0,127.0
1667,70.0,0,64,0.0,127.0
1668,75.0,0,64,0.0,127.0
1669,43.0,64,128,3.0,127.0
1670,79.0,64,64,0.0,127.0
1671,46.0,0,64,3.0,127.0
1672,77.0,64,64,0.0,127.0
1673,51.0,64,64,3.0,127.0
1674,50.0,64,64,3.0,127.0
1675,77.0,0,128,0.0,127.0
1676,79.0,64,16,0.0,127.0
1677,77.0,16,16,0.0,127.0
1678,48.0,0,64,3.0,127.0
1679,79.0,16,96,0.0,127.0
1680,47.0,32,128,3.0,127.0
1681,80.0,64,64,0.0,127.0
1682,79.0,64,64,0.0,127.0
1683,50.0,0,64,3.0,127.0
1684,77.0,64,64,0.0,127.0
1685,43.0,0,128,3.0,127.0
1686,75.0,64,64,0.0,127.0
1687,74.0,64,64,0.0,127.0
1688,47.0,0,64,3.0,127.0
1689,75.0,64,64,0.0,127.0
1690,48.0,0,128,3.0,127.0
1691,72.0,64,64,0.0,127.0
1692,43.0,64,64,3.0,127.0
1693,74.0,0,64,0.0,127.0
1694,75.0,64,64,0.0,127.0
1695,77.0,64,64,0.0,127.0
1696,36.0,0,128,3.0,127.0
1697,48.0,0,64,3.0,127.0
1698,79.0,64,64,0.0,127.0
1699,70.0,64,64,0.0,127.0
1700,67.0,64,64,0.0,127.0
1701,50.0,0,128,3.0,127.0
1702,51.0,0,64,3.0,127.0
1703,69.0,64,64,0.0,127.0
1704,77.0,0,16,0.0,127.0
1705,75.0,16,16,0.0,127.0
1706,50.0,64,64,3.0,127.0
1707,48.0,32,64,3.0,127.0
1708,46.0,64,64,3.0,127.0
1709,46.0,64,32,3.0,127.0
1710,45.0,32,32,3.0,127.0
1711,77.0,16,224,0.0,127.0
1712,46.0,32,32,3.0,127.0
1713,45.0,32,32,3.0,127.0
1714,79.0,0,64,0.0,127.0
1715,48.0,32,64,3.0,127.0
1716,77.0,0,64,0.0,127.0
1717,75.0,0,64,0.0,127.0
1718,74.0,64,64,0.0,127.0
1719,41.0,64,128,3.0,127.0
1720,45.0,0,64,3.0,127.0
1721,72.0,64,64,0.0,127.0
1722,74.0,0,64,0.0,127.0
1723,70.0,64,64,0.0,127.0
1724,72.0,64,64,0.0,127.0
1725,74.0,64,64,0.0,127.0
1726,75.0,64,64,0.0,127.0
1727,46.0,64,320,3.0,127.0
1728,50.0,64,64,3.0,127.0
1729,77.0,0,64,0.0,127.0
1730,68.0,0,64,0.0,127.0
1731,53.0,64,128,3.0,127.0
1732,65.0,64,64,0.0,127.0
1733,67.0,64,0,0.0,127.0
1734,58.0,0,64,3.0,127.0
1735,70.0,64,64,0.0,127.0
1736,69.0,64,64,0.0,127.0
1737,70.0,64,64,0.0,127.0
1738,72.0,64,64,0.0,127.0
1739,51.0,0,320,3.0,127.0
1740,74.0,64,64,0.0,127.0
1741,53.0,64,0,3.0,127.0
1742,51.0,32,32,3.0,127.0
1743,72.0,0,64,0.0,127.0
1744,53.0,32,32,3.0,127.0
1745,69.0,0,64,0.0,127.0
1746,51.0,32,32,3.0,127.0
1747,70.0,0,64,0.0,127.0
1748,50.0,32,64,3.0,127.0
1749,75.0,64,64,0.0,127.0
1750,72.0,64,64,0.0,127.0
1751,74.0,64,64,0.0,127.0
1752,75.0,64,64,0.0,127.0
1753,77.0,64,64,0.0,127.0
1754,48.0,0,320,3.0,127.0
1755,79.0,64,64,0.0,127.0
1756,46.0,0,0,3.0,127.0
1757,45.0,32,32,3.0,127.0
1758,77.0,64,64,0.0,127.0
1759,46.0,0,32,3.0,127.0
1760,74.0,32,64,0.0,127.0
1761,45.0,32,32,3.0,127.0
1762,75.0,32,64,0.0,127.0
1763,43.0,0,64,3.0,127.0
1764,81.0,64,64,0.0,127.0
1765,77.0,64,64,0.0,127.0
1766,41.0,0,128,3.0,127.0
1767,48.0,0,64,3.0,127.0
1768,79.0,64,64,0.0,127.0
1769,81.0,0,64,0.0,127.0
1770,53.0,64,128,3.0,127.0
1771,82.0,64,64,0.0,127.0
1772,84.0,0,64,0.0,127.0
1773,55.0,64,64,3.0,127.0
1774,58.0,0,32,3.0,127.0
1775,75.0,64,64,0.0,127.0
1776,57.0,32,32,3.0,127.0
1777,58.0,0,32,3.0,127.0
1778,57.0,32,32,3.0,127.0
1779,72.0,32,64,0.0,127.0
1780,53.0,0,64,3.0,127.0
1781,74.0,32,64,0.0,127.0
1782,74.0,64,64,0.0,127.0
1783,69.0,64,64,0.0,127.0
1784,58.0,0,128,3.0,127.0
1785,55.0,64,64,3.0,127.0
1786,70.0,0,64,0.0,127.0
1787,70.0,0,64,0.0,127.0
1788,67.0,64,64,0.0,127.0
1789,51.0,64,128,3.0,127.0
1790,69.0,0,64,0.0,127.0
1791,48.0,64,64,3.0,127.0
1792,67.0,64,32,0.0,127.0
1793,69.0,32,16,0.0,127.0
1794,70.0,16,16,0.0,127.0
1795,69.0,16,16,0.0,127.0
1796,70.0,16,16,0.0,127.0
1797,53.0,0,128,3.0,127.0
1798,69.0,16,32,0.0,127.0
1799,41.0,32,64,3.0,127.0
1800,70.0,0,0,0.0,127.0
1801,46.0,64,64,3.0,127.0
1802,50.0,64,64,3.0,127.0
1803,53.0,64,64,3.0,127.0
1804,58.0,64,128,3.0,127.0
1805,62.0,64,64,0.0,127.0
1806,63.0,64,64,0.0,127.0
1807,48.0,0,64,3.0,127.0
1808,65.0,64,64,0.0,127.0
1809,50.0,0,128,3.0,127.0
1810,67.0,64,64,0.0,127.0
1811,46.0,0,64,3.0,127.0
1812,68.0,64,64,0.0,127.0
1813,67.0,64,64,0.0,127.0
1814,62.0,64,64,0.0,127.0
1815,51.0,0,128,3.0,127.0
1816,63.0,0,64,0.0,127.0
1817,48.0,64,64,3.0,127.0
1818,60.0,0,64,0.0,127.0
1819,70.0,64,64,0.0,127.0
1820,53.0,64,128,3.0,127.0
1821,50.0,64,64,3.0,127.0
1822,69.0,0,64,0.0,127.0
1823,70.0,0,64,0.0,127.0
1824,55.0,64,128,3.0,127.0
1825,65.0,64,64,0.0,127.0
1826,67.0,0,64,0.0,127.0
1827,51.0,64,64,3.0,127.0
1828,63.0,0,64,0.0,127.0
1829,57.0,64,128,3.0,127.0
1830,74.0,64,64,0.0,127.0
1831,72.0,64,64,0.0,127.0
1832,53.0,0,64,3.0,127.0
1833,74.0,0,64,0.0,127.0
1834,58.0,64,128,3.0,127.0
1835,75.0,64,64,0.0,127.0
1836,51.0,64,64,3.0,127.0
1837,77.0,0,64,0.0,127.0
1838,65.0,0,64,0.0,127.0
1839,53.0,64,128,3.0,127.0
1840,70.0,64,64,0.0,127.0
1841,69.0,0,64,0.0,127.0
1842,41.0,64,64,3.0,127.0
1843,70.0,0,64,0.0,127.0
1844,65.0,64,64,0.0,127.0
1845,46.0,64,192,3.0,127.0
1846,62.0,64,64,0.0,127.0
1847,53.0,64,64,3.0,127.0
1848,50.0,64,64,3.0,127.0
1849,58.0,64,288,0.0,127.0
1850,46.0,64,96,3.0,127.0
1851,74.0,96,96,0.0,127.0
1852,46.0,96,64,3.0,127.0
1853,50.0,64,64,3.0,127.0
1854,53.0,64,64,3.0,127.0
1855,58.0,64,64,3.0,127.0
1856,74.0,0,256,0.0,127.0
1857,77.0,64,64,0.0,127.0
1858,62.0,0,64,1.0,127.0
1859,75.0,0,64,0.0,127.0
1860,65.0,64,64,1.0,127.0
1861,70.0,0,64,1.0,127.0
1862,74.0,64,64,0.0,127.0
1863,72.0,0,64,0.0,127.0
1864,68.0,64,64,1.0,127.0
1865,70.0,64,64,0.0,127.0
1866,67.0,0,64,1.0,127.0
1867,80.0,0,64,0.0,127.0
1868,77.0,64,64,0.0,127.0
1869,79.0,64,64,0.0,127.0
1870,72.0,64,32,0.0,127.0
1871,65.0,64,256,1.0,127.0
1872,71.0,32,32,0.0,127.0
1873,72.0,0,32,0.0,127.0
1874,71.0,32,32,0.0,127.0
1875,67.0,32,64,1.0,127.0
1876,72.0,32,32,0.0,127.0
1877,68.0,0,64,1.0,127.0
1878,71.0,32,96,0.0,127.0
1879,72.0,64,64,0.0,127.0
1880,67.0,32,128,1.0,127.0
1881,74.0,64,64,0.0,127.0
1882,65.0,0,64,1.0,127.0
1883,72.0,64,64,0.0,127.0
1884,70.0,64,64,0.0,127.0
1885,63.0,0,128,3.0,127.0
1886,68.0,0,64,0.0,127.0
1887,60.0,64,64,3.0,127.0
1888,67.0,64,64,0.0,127.0
1889,65.0,64,64,0.0,127.0
1890,56.0,0,128,3.0,127.0
1891,63.0,64,64,0.0,127.0
1892,53.0,0,64,3.0,127.0
1893,62.0,0,64,0.0,127.0
1894,55.0,64,128,3.0,127.0
1895,63.0,64,64,0.0,127.0
1896,43.0,64,64,3.0,127.0
1897,65.0,0,0,0.0,127.0
1898,62.0,64,64,0.0,127.0
1899,48.0,64,128,3.0,127.0
1900,43.0,64,64,3.0,127.0
1901,63.0,0,64,0.0,127.0
1902,60.0,0,64,0.0,127.0
1903,39.0,64,128,3.0,127.0
1904,63.0,64,64,0.0,127.0
1905,67.0,0,64,0.0,127.0
1906,36.0,64,64,3.0,127.0
1907,72.0,64,64,0.0,127.0
1908,75.0,64,64,0.0,127.0
1909,39.0,0,128,3.0,127.0
1910,74.0,64,0,0.0,127.0
1911,43.0,0,64,3.0,127.0
1912,48.0,0,64,3.0,127.0
1913,46.0,64,64,3.0,127.0
1914,44.0,64,64,3.0,127.0
1915,75.0,0,128,0.0,127.0
1916,77.0,64,64,0.0,127.0
1917,43.0,64,128,3.0,127.0
1918,75.0,64,64,0.0,127.0
1919,46.0,0,64,3.0,127.0
1920,73.0,64,64,0.0,127.0
1921,72.0,64,64,0.0,127.0
1922,39.0,0,128,3.0,127.0
1923,70.0,64,64,0.0,127.0
1924,43.0,0,64,3.0,127.0
1925,44.0,64,16,3.0,127.0
1926,43.0,16,16,3.0,127.0
1927,72.0,0,64,0.0,127.0
1928,68.0,32,64,0.0,127.0
1929,70.0,64,64,0.0,127.0
1930,72.0,64,64,0.0,127.0
1931,44.0,16,224,3.0,127.0
1932,67.0,0,64,0.0,127.0
1933,46.0,64,64,3.0,127.0
1934,68.0,0,64,0.0,127.0
1935,48.0,64,64,3.0,127.0
1936,48.0,0,32,3.0,127.0
1937,64.0,64,64,0.0,127.0
1938,46.0,32,32,3.0,127.0
1939,48.0,0,32,3.0,127.0
1940,46.0,32,32,3.0,127.0
1941,65.0,32,64,0.0,127.0
1942,60.0,0,64,0.0,127.0
1943,44.0,32,64,3.0,127.0
1944,61.0,0,64,0.0,127.0
1945,64.0,64,64,0.0,127.0
1946,43.0,64,128,3.0,127.0
1947,67.0,64,64,0.0,127.0
1948,41.0,0,64,3.0,127.0
1949,70.0,64,64,0.0,127.0
1950,40.0,0,64,3.0,127.0
1951,68.0,64,64,0.0,127.0
1952,41.0,0,64,3.0,127.0
1953,67.0,64,64,0.0,127.0
1954,43.0,0,64,3.0,127.0
1955,73.0,0,64,0.0,127.0
1956,36.0,64,64,3.0,127.0
1957,72.0,0,64,0.0,127.0
1958,38.0,64,64,3.0,127.0
1959,40.0,0,64,3.0,127.0
1960,70.0,64,64,0.0,127.0
1961,41.0,64,16,3.0,127.0
1962,39.0,16,16,3.0,127.0
1963,68.0,0,64,0.0,127.0
1964,65.0,32,64,0.0,127.0
1965,67.0,64,64,0.0,127.0
1966,68.0,64,64,0.0,127.0
1967,70.0,64,64,0.0,127.0
1968,41.0,16,288,3.0,127.0
1969,72.0,64,64,0.0,127.0
1970,53.0,0,64,3.0,127.0
1971,73.0,0,64,0.0,127.0
1972,45.0,64,128,3.0,127.0
1973,75.0,64,64,0.0,127.0
1974,53.0,0,64,3.0,127.0
1975,72.0,64,64,0.0,127.0
1976,73.0,0,64,0.0,127.0
1977,46.0,64,128,3.0,127.0
1978,77.0,64,64,0.0,127.0
1979,48.0,64,64,3.0,127.0
1980,76.0,0,64,0.0,127.0
1981,77.0,0,64,0.0,127.0
1982,49.0,64,128,3.0,127.0
1983,79.0,64,64,0.0,127.0
1984,48.0,64,64,3.0,127.0
1985,80.0,0,64,0.0,127.0
1986,79.0,64,64,0.0,127.0
1987,46.0,0,128,3.0,127.0
1988,76.0,64,64,0.0,127.0
1989,44.0,64,64,3.0,127.0
1990,77.0,0,64,0.0,127.0
1991,82.0,0,64,0.0,127.0
1992,79.0,64,64,0.0,127.0
1993,43.0,64,128,3.0,127.0
1994,56.0,0,64,3.0,127.0
1995,77.0,64,64,0.0,127.0
1996,76.0,64,64,0.0,127.0
1997,55.0,0,128,3.0,127.0
1998,77.0,64,64,0.0,127.0
1999,79.0,64,64,0.0,127.0
2000,53.0,0,64,3.0,127.0
2001,73.0,0,64,0.0,127.0
2002,70.0,64,64,0.0,127.0
2003,52.0,64,128,3.0,127.0
2004,72.0,64,64,0.0,127.0
2005,48.0,0,64,3.0,127.0
2006,72.0,64,64,0.0,127.0
2007,64.0,64,64,0.0,127.0
2008,56.0,0,128,3.0,127.0
2009,65.0,64,64,0.0,127.0
2010,53.0,0,64,3.0,127.0
2011,73.0,64,64,0.0,127.0
2012,58.0,0,128,3.0,127.0
2013,72.0,64,64,0.0,127.0
2014,70.0,0,64,0.0,127.0
2015,61.0,64,64,3.0,127.0
2016,68.0,64,64,0.0,127.0
2017,70.0,64,64,0.0,127.0
2018,60.0,0,128,3.0,127.0
2019,48.0,64,64,3.0,127.0
2020,67.0,0,64,0.0,127.0
2021,53.0,64,64,3.0,127.0
2022,67.0,0,128,0.0,127.0
2023,48.0,64,64,3.0,127.0
2024,44.0,0,64,3.0,127.0
2025,65.0,64,128,0.0,127.0
2026,68.0,64,64,0.0,127.0
2027,41.0,64,128,3.0,127.0
2028,48.0,0,64,3.0,127.0
2029,67.0,64,64,0.0,127.0
2030,53.0,64,64,3.0,127.0
2031,68.0,0,64,0.0,127.0
2032,70.0,64,64,0.0,127.0
2033,55.0,0,64,3.0,127.0
2034,56.0,64,64,3.0,127.0
2035,72.0,0,64,0.0,127.0
2036,62.0,64,64,0.0,127.0
2037,63.0,64,64,0.0,127.0
2038,65.0,64,64,0.0,127.0
2039,58.0,64,64,0.0,127.0
2040,58.0,0,256,3.0,127.0
2041,62.0,64,64,0.0,127.0
2042,53.0,0,64,3.0,127.0
2043,50.0,0,64,3.0,127.0
2044,65.0,64,64,0.0,127.0
2045,46.0,64,64,3.0,127.0
2046,68.0,0,64,0.0,127.0
2047,48.0,64,64,3.0,127.0
2048,67.0,0,64,0.0,127.0
2049,65.0,64,64,0.0,127.0
2050,50.0,0,64,3.0,127.0
2051,67.0,64,64,0.0,127.0
2052,68.0,64,64,0.0,127.0
2053,70.0,64,64,0.0,127.0
2054,63.0,64,64,0.0,127.0
2055,51.0,0,256,3.0,127.0
2056,46.0,64,64,3.0,127.0
2057,67.0,0,64,0.0,127.0
2058,43.0,64,64,3.0,127.0
2059,70.0,0,64,0.0,127.0
2060,39.0,0,64,3.0,127.0
2061,73.0,64,64,0.0,127.0
2062,72.0,0,64,0.0,127.0
2063,41.0,64,64,3.0,127.0
2064,43.0,0,64,3.0,127.0
2065,70.0,64,64,0.0,127.0
2066,72.0,64,64,0.0,127.0
2067,77.0,64,64,0.0,127.0
2068,76.0,64,64,0.0,127.0
2069,77.0,64,64,0.0,127.0
2070,44.0,0,256,3.0,127.0
2071,79.0,64,64,0.0,127.0
2072,43.0,0,64,3.0,127.0
2073,80.0,64,64,0.0,127.0
2074,41.0,0,64,3.0,127.0
2075,72.0,0,64,0.0,127.0
2076,44.0,64,64,3.0,127.0
2077,74.0,0,64,0.0,127.0
2078,43.0,64,64,3.0,127.0
2079,41.0,0,64,3.0,127.0
2080,75.0,64,0,0.0,127.0
2081,46.0,0,128,3.0,127.0
2082,72.0,64,64,0.0,127.0
2083,60.0,0,64,3.0,127.0
2084,74.0,64,64,0.0,127.0
2085,80.0,64,64,0.0,127.0
2086,79.0,64,64,0.0,127.0
2087,58.0,0,128,3.0,127.0
2088,77.0,64,64,0.0,127.0
2089,56.0,0,64,3.0,127.0
2090,84.0,0,64,0.0,127.0
2091,55.0,64,128,3.0,127.0
2092,82.0,64,64,0.0,127.0
2093,80.0,64,64,0.0,127.0
2094,53.0,0,64,3.0,127.0
2095,79.0,64,64,0.0,127.0
2096,53.0,0,128,3.0,127.0
2097,74.0,64,64,0.0,127.0
2098,75.0,0,64,0.0,127.0
2099,51.0,64,128,3.0,127.0
2100,70.0,64,64,0.0,127.0
2101,72.0,0,64,0.0,127.0
2102,49.0,64,64,3.0,127.0
2103,73.0,64,64,0.0,127.0
2104,48.0,0,64,3.0,127.0
2105,67.0,64,32,0.0,127.0
2106,68.0,32,32,0.0,127.0
2107,46.0,0,64,3.0,127.0
2108,70.0,32,64,0.0,127.0
2109,44.0,0,64,3.0,127.0
2110,61.0,64,64,0.0,127.0
2111,43.0,0,64,3.0,127.0
2112,60.0,64,64,0.0,127.0
2113,55.0,64,64,0.0,127.0
2114,44.0,0,128,3.0,127.0
2115,56.0,64,64,0.0,127.0
2116,41.0,0,64,3.0,127.0
2117,53.0,0,64,0.0,127.0
2118,46.0,64,128,3.0,127.0
2119,63.0,64,64,0.0,127.0
2120,43.0,64,64,3.0,127.0
2121,62.0,0,64,0.0,127.0
2122,63.0,0,64,0.0,127.0
2123,58.0,64,64,0.0,127.0
2124,48.0,64,128,3.0,127.0
2125,44.0,64,64,3.0,127.0
2126,60.0,0,64,0.0,127.0
2127,56.0,64,64,0.0,127.0
2128,50.0,0,128,3.0,127.0
2129,67.0,64,64,0.0,127.0
2130,46.0,64,64,3.0,127.0
2131,65.0,0,64,0.0,127.0
2132,67.0,64,64,0.0,127.0
2133,68.0,64,64,0.0,127.0
2134,51.0,0,128,3.0,127.0
2135,70.0,64,64,0.0,127.0
2136,44.0,0,64,3.0,127.0
2137,58.0,64,64,0.0,127.0
2138,63.0,64,64,0.0,127.0
2139,46.0,0,0,3.0,127.0
2140,62.0,64,64,0.0,127.0
2141,63.0,0,64,0.0,127.0
2142,58.0,64,64,2.0,127.0
2143,55.0,64,64,2.0,127.0
2144,51.0,64,256,3.0,127.0
2145,46.0,64,64,3.0,127.0
2146,43.0,64,64,3.0,127.0
2147,51.0,64,288,2.0,127.0
2148,39.0,64,96,3.0,127.0
2149,74.0,96,96,0.0,127.0
2150,46.0,96,64,3.0,127.0
2151,50.0,64,64,3.0,127.0
2152,53.0,64,64,3.0,127.0
2153,74.0,0,256,0.0,127.0
2154,58.0,64,64,3.0,127.0
2155,77.0,64,64,0.0,127.0
2156,62.0,0,64,1.0,127.0
2157,65.0,64,64,1.0,127.0
2158,75.0,0,64,0.0,127.0
2159,74.0,0,64,0.0,127.0
2160,70.0,64,64,1.0,127.0
2161,68.0,64,64,1.0,127.0
2162,72.0,0,64,0.0,127.0
2163,67.0,64,64,1.0,127.0
2164,70.0,0,64,0.0,127.0
2165,80.0,64,64,0.0,127.0
2166,77.0,64,64,0.0,127.0
2167,79.0,64,64,0.0,127.0
2168,72.0,64,32,0.0,127.0
2169,65.0,0,256,1.0,127.0
2170,71.0,32,32,0.0,127.0
2171,72.0,32,32,0.0,127.0
2172,67.0,0,64,1.0,127.0
2173,71.0,32,32,0.0,127.0
2174,72.0,32,32,0.0,127.0
2175,68.0,0,64,1.0,127.0
2176,71.0,32,96,0.0,127.0
2177,72.0,64,64,0.0,127.0
2178,67.0,32,128,1.0,127.0
2179,74.0,0,64,0.0,127.0
2180,65.0,64,64,1.0,127.0
2181,72.0,64,64,0.0,127.0
2182,63.0,0,128,3.0,127.0
2183,70.0,64,64,0.0,127.0
2184,68.0,0,64,0.0,127.0
2185,60.0,64,64,3.0,127.0
2186,67.0,64,64,0.0,127.0
2187,56.0,0,128,3.0,127.0
2188,65.0,64,64,0.0,127.0
2189,63.0,0,64,0.0,127.0
2190,53.0,64,64,3.0,127.0
2191,62.0,0,64,0.0,127.0
2192,63.0,64,64,0.0,127.0
2193,55.0,64,128,3.0,127.0
2194,65.0,64,0,0.0,127.0
2195,43.0,0,64,3.0,127.0
2196,62.0,64,64,0.0,127.0
2197,48.0,0,128,3.0,127.0
2198,63.0,64,64,0.0,127.0
2199,43.0,0,64,3.0,127.0
2200,60.0,64,64,0.0,127.0
2201,63.0,64,64,0.0,127.0
2202,39.0,0,128,3.0,127.0
2203,67.0,64,64,0.0,127.0
2204,36.0,0,64,3.0,127.0
2205,72.0,64,64,0.0,127.0
2206,75.0,64,64,0.0,127.0
2207,39.0,0,128,3.0,127.0
2208,43.0,64,64,3.0,127.0
2209,74.0,0,64,0.0,127.0
2210,48.0,64,64,3.0,127.0
2211,74.0,0,128,0.0,127.0
2212,46.0,64,64,3.0,127.0
2213,44.0,0,64,3.0,127.0
2214,75.0,64,128,0.0,127.0
2215,77.0,64,64,0.0,127.0
2216,43.0,64,128,3.0,127.0
2217,46.0,64,64,3.0,127.0
2218,75.0,0,64,0.0,127.0
2219,73.0,64,64,0.0,127.0
2220,39.0,0,128,3.0,127.0
2221,72.0,64,64,0.0,127.0
2222,43.0,64,64,3.0,127.0
2223,70.0,0,64,0.0,127.0
2224,44.0,0,16,3.0,127.0
2225,43.0,16,16,3.0,127.0
2226,72.0,64,64,0.0,127.0
2227,68.0,32,64,0.0,127.0
2228,70.0,64,64,0.0,127.0
2229,44.0,16,224,3.0,127.0
2230,72.0,64,64,0.0,127.0
2231,67.0,0,64,0.0,127.0
2232,46.0,64,64,3.0,127.0
2233,68.0,64,64,0.0,127.0
2234,48.0,0,64,3.0,127.0
2235,48.0,0,32,3.0,127.0
2236,46.0,32,32,3.0,127.0
2237,64.0,64,64,0.0,127.0
2238,48.0,0,32,3.0,127.0
2239,46.0,32,32,3.0,127.0
2240,65.0,32,64,0.0,127.0
2241,44.0,32,64,3.0,127.0
2242,60.0,0,64,0.0,127.0
2243,61.0,64,64,0.0,127.0
2244,43.0,0,128,3.0,127.0
2245,64.0,64,64,0.0,127.0
2246,41.0,0,64,3.0,127.0
2247,67.0,64,64,0.0,127.0
2248,70.0,0,64,0.0,127.0
2249,40.0,64,64,3.0,127.0
2250,41.0,64,64,3.0,127.0
2251,68.0,0,64,0.0,127.0
2252,43.0,64,64,3.0,127.0
2253,67.0,0,64,0.0,127.0
2254,73.0,64,64,0.0,127.0
2255,36.0,0,64,3.0,127.0
2256,38.0,0,64,3.0,127.0
2257,72.0,64,64,0.0,127.0
2258,40.0,64,64,3.0,127.0
2259,70.0,0,64,0.0,127.0
2260,41.0,0,16,3.0,127.0
2261,39.0,16,16,3.0,127.0
2262,68.0,64,64,0.0,127.0
2263,65.0,32,64,0.0,127.0
2264,67.0,64,64,0.0,127.0
2265,68.0,64,64,0.0,127.0
2266,70.0,64,64,0.0,127.0
2267,41.0,16,288,3.0,127.0
2268,53.0,0,64,3.0,127.0
2269,72.0,64,64,0.0,127.0
2270,73.0,0,64,0.0,127.0
2271,75.0,64,64,0.0,127.0
2272,45.0,64,128,3.0,127.0
2273,72.0,0,64,0.0,127.0
2274,53.0,64,64,3.0,127.0
2275,73.0,64,64,0.0,127.0
2276,77.0,64,64,0.0,127.0
2277,46.0,0,128,3.0,127.0
2278,48.0,0,64,3.0,127.0
2279,76.0,64,64,0.0,127.0
2280,77.0,64,64,0.0,127.0
2281,49.0,0,128,3.0,127.0
2282,79.0,64,64,0.0,127.0
2283,48.0,64,64,3.0,127.0
2284,80.0,0,64,0.0,127.0
2285,79.0,0,64,0.0,127.0
2286,76.0,64,64,0.0,127.0
2287,46.0,64,128,3.0,127.0
2288,77.0,64,64,0.0,127.0
2289,44.0,0,64,3.0,127.0
2290,82.0,64,64,0.0,127.0
2291,79.0,64,64,0.0,127.0
2292,43.0,0,128,3.0,127.0
2293,56.0,64,64,3.0,127.0
2294,77.0,0,64,0.0,127.0
2295,76.0,0,64,0.0,127.0
2296,77.0,64,64,0.0,127.0
2297,55.0,64,128,3.0,127.0
2298,79.0,64,64,0.0,127.0
2299,53.0,0,64,3.0,127.0
2300,73.0,64,64,0.0,127.0
2301,52.0,0,128,3.0,127.0
2302,70.0,64,64,0.0,127.0
2303,48.0,64,64,3.0,127.0
2304,72.0,0,64,0.0,127.0
2305,72.0,64,64,0.0,127.0
2306,64.0,64,64,0.0,127.0
2307,56.0,0,128,3.0,127.0
2308,65.0,64,64,0.0,127.0
2309,53.0,0,64,3.0,127.0
2310,73.0,64,64,0.0,127.0
2311,72.0,64,64,0.0,127.0
2312,58.0,0,128,3.0,127.0
2313,61.0,64,64,3.0,127.0
2314,70.0,0,64,0.0,127.0
2315,68.0,0,64,0.0,127.0
2316,70.0,64,64,0.0,127.0
2317,60.0,64,128,3.0,127.0
2318,48.0,64,64,3.0,127.0
2319,67.0,0,64,0.0,127.0
2320,53.0,64,64,3.0,127.0
2321,48.0,64,64,3.0,127.0
2322,67.0,0,128,0.0,127.0
2323,44.0,64,64,3.0,127.0
2324,65.0,0,128,0.0,127.0
2325,41.0,64,128,3.0,127.0
2326,68.0,64,64,0.0,127.0
2327,48.0,0,64,3.0,127.0
2328,67.0,64,64,0.0,127.0
2329,68.0,64,64,0.0,127.0
2330,53.0,0,64,3.0,127.0
2331,70.0,64,64,0.0,127.0
2332,55.0,0,64,3.0,127.0
2333,56.0,0,64,3.0,127.0
2334,72.0,64,64,0.0,127.0
2335,62.0,64,64,0.0,127.0
2336,63.0,64,64,0.0,127.0
2337,65.0,64,64,0.0,127.0
2338,58.0,0,256,3.0,127.0
2339,58.0,64,64,0.0,127.0
2340,62.0,0,64,0.0,127.0
2341,53.0,64,64,3.0,127.0
2342,50.0,0,64,3.0,127.0
2343,65.0,64,64,0.0,127.0
2344,46.0,64,64,3.0,127.0
2345,68.0,0,64,0.0,127.0
2346,48.0,0,64,3.0,127.0
2347,67.0,64,64,0.0,127.0
2348,65.0,0,64,0.0,127.0
2349,50.0,64,64,3.0,127.0
2350,67.0,64,64,0.0,127.0
2351,68.0,64,64,0.0,127.0
2352,70.0,64,64,0.0,127.0
2353,63.0,64,64,0.0,127.0
2354,51.0,0,256,3.0,127.0
2355,46.0,64,64,3.0,127.0
2356,67.0,0,64,0.0,127.0
2357,70.0,0,64,0.0,127.0
2358,43.0,64,64,3.0,127.0
2359,73.0,64,64,0.0,127.0
2360,39.0,0,64,3.0,127.0
2361,72.0,64,64,0.0,127.0
2362,41.0,0,64,3.0,127.0
2363,70.0,0,64,0.0,127.0
2364,43.0,64,64,3.0,127.0
2365,72.0,64,64,0.0,127.0
2366,77.0,64,64,0.0,127.0
2367,76.0,64,64,0.0,127.0
2368,44.0,0,256,3.0,127.0
2369,77.0,64,64,0.0,127.0
2370,43.0,0,64,3.0,127.0
2371,79.0,64,64,0.0,127.0
2372,80.0,0,64,0.0,127.0
2373,41.0,64,64,3.0,127.0
2374,72.0,0,64,0.0,127.0
2375,44.0,64,64,3.0,127.0
2376,74.0,0,64,0.0,127.0
2377,43.0,64,64,3.0,127.0
2378,41.0,0,64,3.0,127.0
2379,75.0,64,0,0.0,127.0
2380,72.0,64,64,0.0,127.0
2381,46.0,0,128,3.0,127.0
2382,74.0,0,64,0.0,127.0
2383,60.0,64,64,3.0,127.0
2384,80.0,0,64,0.0,127.0
2385,79.0,64,64,0.0,127.0
2386,58.0,64,128,3.0,127.0
2387,77.0,64,64,0.0,127.0
2388,56.0,0,64,3.0,127.0
2389,84.0,64,64,0.0,127.0
2390,82.0,64,64,0.0,127.0
2391,55.0,0,128,3.0,127.0
2392,53.0,64,0,3.0,127.0
2393,80.0,64,64,0.0,127.0
2394,79.0,0,64,0.0,127.0
2395,74.0,64,64,0.0,127.0
2396,75.0,64,64,0.0,127.0
2397,70.0,64,64,0.0,127.0
2398,51.0,0,128,3.0,127.0
2399,49.0,0,64,3.0,127.0
2400,72.0,64,64,0.0,127.0
2401,48.0,64,64,3.0,127.0
2402,73.0,0,64,0.0,127.0
2403,67.0,0,32,0.0,127.0
2404,68.0,32,32,0.0,127.0
2405,46.0,64,64,3.0,127.0
2406,70.0,32,64,0.0,127.0
2407,44.0,0,64,3.0,127.0
2408,61.0,64,64,0.0,127.0
2409,43.0,0,64,3.0,127.0
2410,60.0,0,64,0.0,127.0
2411,44.0,64,128,3.0,127.0
2412,55.0,64,64,0.0,127.0
2413,56.0,0,64,0.0,127.0
2414,41.0,64,64,3.0,127.0
2415,53.0,0,64,0.0,127.0
2416,46.0,64,128,3.0,127.0
2417,63.0,64,64,0.0,127.0
2418,43.0,64,64,3.0,127.0
2419,62.0,0,64,0.0,127.0
2420,63.0,0,64,0.0,127.0
2421,58.0,64,64,0.0,127.0
2422,48.0,64,128,3.0,127.0
2423,60.0,64,64,0.0,127.0
2424,44.0,0,64,3.0,127.0
2425,56.0,64,64,0.0,127.0
2426,67.0,64,64,0.0,127.0
2427,50.0,0,128,3.0,127.0
2428,65.0,0,64,0.0,127.0
2429,46.0,64,64,3.0,127.0
2430,67.0,64,64,0.0,127.0
2431,68.0,64,64,0.0,127.0
2432,51.0,0,128,3.0,127.0
2433,44.0,64,64,3.0,127.0
2434,70.0,0,64,0.0,127.0
2435,58.0,0,64,0.0,127.0
2436,46.0,0,0,3.0,127.0
2437,63.0,64,64,0.0,127.0
2438,62.0,64,64,0.0,127.0
2439,63.0,64,64,0.0,127.0
2440,58.0,64,64,2.0,127.0
2441,55.0,64,64,2.0,127.0
2442,51.0,0,256,3.0,127.0
2443,46.0,64,64,3.0,127.0
2444,43.0,64,64,3.0,127.0
2445,39.0,64,96,3.0,127.0
2446,51.0,64,288,2.0,127.0
2447,67.0,480,96,0.0,127.0
2448,51.0,0,96,3.0,127.0
2449,68.0,96,48,0.0,127.0
2450,70.0,48,0,0.0,127.0
2451,63.0,0,96,3.0,127.0
2452,67.0,0,0,1.0,127.0
2453,68.0,24,24,0.0,127.0
2454,61.0,0,96,3.0,127.0
2455,60.0,48,96,3.0,127.0
2456,58.0,96,96,3.0,127.0
2457,56.0,96,96,3.0,127.0
2458,70.0,0,0,0.0,127.0
2459,55.0,96,96,3.0,127.0
2460,72.0,96,48,0.0,127.0
2461,73.0,48,48,0.0,127.0
2462,53.0,0,96,3.0,127.0
2463,70.0,0,192,1.0,127.0
2464,51.0,48,96,3.0,127.0
2465,49.0,48,96,3.0,127.0
2466,48.0,96,96,3.0,127.0
2467,46.0,96,96,3.0,127.0
2468,73.0,24,336,0.0,127.0
2469,70.0,24,360,0.0,127.0
2470,67.0,0,384,0.0,127.0
2471,74.0,96,16,0.0,127.0
2472,72.0,16,16,0.0,127.0
2473,74.0,16,16,0.0,127.0
2474,72.0,16,48,0.0,127.0
2475,44.0,0,96,3.0,127.0
2476,46.0,48,48,3.0,127.0
2477,48.0,48,48,3.0,127.0
2478,70.0,0,96,0.0,127.0
2479,68.0,48,96,0.0,127.0
2480,67.0,96,96,0.0,127.0
2481,65.0,96,96,0.0,127.0
2482,56.0,0,384,3.0,127.0
2483,48.0,0,384,3.0,127.0
2484,63.0,96,96,0.0,127.0
2485,62.0,0,96,0.0,127.0
2486,46.0,96,96,3.0,127.0
2487,48.0,96,48,3.0,127.0
2488,65.0,0,96,0.0,127.0
2489,50.0,48,48,3.0,127.0
2490,68.0,0,96,0.0,127.0
2491,72.0,48,96,0.0,127.0
2492,70.0,96,96,0.0,127.0
2493,68.0,96,96,0.0,127.0
2494,58.0,24,336,3.0,127.0
2495,53.0,24,360,3.0,127.0
2496,50.0,48,384,3.0,127.0
2497,67.0,96,96,0.0,127.0
2498,51.0,0,96,3.0,127.0
2499,69.0,96,48,0.0,127.0
2500,67.0,0,192,1.0,127.0
2501,70.0,48,48,0.0,127.0
2502,53.0,0,96,3.0,127.0
2503,70.0,0,96,0.0,127.0
2504,51.0,0,96,3.0,127.0
2505,69.0,96,24,0.0,127.0
2506,70.0,24,24,0.0,127.0
2507,69.0,24,24,0.0,127.0
2508,70.0,24,24,0.0,127.0
2509,50.0,0,96,3.0,127.0
2510,48.0,0,96,3.0,127.0
2511,69.0,24,96,0.0,127.0
2512,46.0,96,96,3.0,127.0
2513,65.0,48,384,1.0,127.0
2514,70.0,0,96,0.0,127.0
2515,72.0,0,96,0.0,127.0
2516,45.0,96,96,3.0,127.0
2517,74.0,0,48,0.0,127.0
2518,75.0,48,48,0.0,127.0
2519,43.0,96,96,3.0,127.0
2520,45.0,0,96,3.0,127.0
2521,41.0,96,96,3.0,127.0
2522,43.0,96,96,3.0,127.0
2523,65.0,48,288,0.0,127.0
2524,45.0,96,96,3.0,127.0
2525,63.0,0,96,0.0,127.0
2526,62.0,0,48,0.0,127.0
2527,63.0,48,48,0.0,127.0
2528,46.0,96,96,3.0,127.0
2529,65.0,48,48,0.0,127.0
2530,62.0,0,192,1.0,127.0
2531,50.0,0,96,3.0,127.0
2532,70.0,48,48,0.0,127.0
2533,67.0,0,48,0.0,127.0
2534,51.0,48,96,3.0,127.0
2535,69.0,48,48,0.0,127.0
2536,70.0,0,48,0.0,127.0
2537,67.0,0,192,1.0,127.0
2538,48.0,48,96,3.0,127.0
2539,75.0,48,48,0.0,127.0
2540,74.0,48,48,0.0,127.0
2541,53.0,0,96,3.0,127.0
2542,72.0,48,48,0.0,127.0
2543,70.0,48,48,0.0,127.0
2544,41.0,0,96,3.0,127.0
2545,69.0,48,48,0.0,127.0
2546,70.0,0,48,0.0,127.0
2547,65.0,48,48,0.0,127.0
2548,67.0,48,48,0.0,127.0
2549,63.0,48,48,0.0,127.0
2550,70.0,0,192,1.0,127.0
2551,63.0,48,48,0.0,127.0
2552,58.0,48,192,2.0,127.0
2553,46.0,48,576,3.0,127.0
2554,62.0,48,384,0.0,127.0
2555,65.0,48,288,0.0,127.0
2556,70.0,48,240,0.0,127.0
2557,53.0,0,384,2.0,127.0
2558,51.0,0,96,3.0,127.0
2559,67.0,0,96,0.0,127.0
2560,68.0,0,48,0.0,127.0
2561,63.0,96,96,3.0,127.0
2562,67.0,48,0,1.0,127.0
2563,70.0,0,0,0.0,127.0
2564,68.0,24,24,0.0,127.0
2565,61.0,0,96,3.0,127.0
2566,60.0,48,96,3.0,127.0
2567,58.0,96,96,3.0,127.0
2568,70.0,0,0,0.0,127.0
2569,56.0,96,96,3.0,127.0
2570,55.0,0,96,3.0,127.0
2571,72.0,0,48,0.0,127.0
2572,70.0,96,192,1.0,127.0
2573,53.0,96,96,3.0,127.0
2574,73.0,48,48,0.0,127.0
2575,51.0,48,96,3.0,127.0
2576,49.0,48,96,3.0,127.0
2577,48.0,96,96,3.0,127.0
2578,46.0,96,96,3.0,127.0
2579,67.0,0,384,0.0,127.0
2580,70.0,24,360,0.0,127.0
2581,73.0,24,336,0.0,127.0
2582,74.0,96,16,0.0,127.0
2583,72.0,16,16,0.0,127.0
2584,74.0,16,16,0.0,127.0
2585,72.0,16,48,0.0,127.0
2586,44.0,0,96,3.0,127.0
2587,46.0,0,48,3.0,127.0
2588,48.0,0,0,3.0,127.0
2589,70.0,48,96,0.0,127.0
2590,68.0,0,96,0.0,127.0
2591,67.0,96,96,0.0,127.0
2592,65.0,96,96,0.0,127.0
2593,63.0,96,96,0.0,127.0
2594,56.0,48,384,3.0,127.0
2595,46.0,0,96,3.0,127.0
2596,62.0,96,96,0.0,127.0
2597,48.0,96,48,3.0,127.0
2598,65.0,0,96,0.0,127.0
2599,50.0,48,48,3.0,127.0
2600,68.0,48,96,0.0,127.0
2601,72.0,48,96,0.0,127.0
2602,70.0,96,96,0.0,127.0
2603,58.0,24,336,3.0,127.0
2604,53.0,24,360,3.0,127.0
2605,50.0,0,384,3.0,127.0
2606,68.0,96,96,0.0,127.0
2607,67.0,0,96,0.0,127.0
2608,51.0,0,96,3.0,127.0
2609,69.0,96,48,0.0,127.0
2610,53.0,0,96,3.0,127.0
2611,67.0,96,192,1.0,127.0
2612,70.0,48,48,0.0,127.0
2613,51.0,0,96,3.0,127.0
2614,70.0,0,96,0.0,127.0
2615,69.0,0,24,0.0,127.0
2616,70.0,24,24,0.0,127.0
2617,69.0,24,24,0.0,127.0
2618,50.0,96,96,3.0,127.0
2619,70.0,24,24,0.0,127.0
2620,69.0,0,96,0.0,127.0
2621,48.0,24,96,3.0,127.0
2622,46.0,0,96,3.0,127.0
2623,65.0,48,384,1.0,127.0
2624,70.0,96,96,0.0,127.0
2625,72.0,0,96,0.0,127.0
2626,45.0,96,96,3.0,127.0
2627,74.0,0,48,0.0,127.0
2628,75.0,48,48,0.0,127.0
2629,43.0,96,96,3.0,127.0
2630,45.0,0,96,3.0,127.0
2631,41.0,96,96,3.0,127.0
2632,65.0,48,288,0.0,127.0
2633,43.0,96,96,3.0,127.0
2634,63.0,96,96,0.0,127.0
2635,45.0,0,96,3.0,127.0
2636,62.0,96,48,0.0,127.0
2637,63.0,48,48,0.0,127.0
2638,46.0,0,96,3.0,127.0
2639,65.0,0,48,0.0,127.0
2640,50.0,48,96,3.0,127.0
2641,70.0,48,48,0.0,127.0
2642,62.0,0,192,1.0,127.0
2643,67.0,0,48,0.0,127.0
2644,69.0,48,48,0.0,127.0
2645,51.0,48,96,3.0,127.0
2646,70.0,0,48,0.0,127.0
2647,75.0,48,48,0.0,127.0
2648,48.0,48,96,3.0,127.0
2649,67.0,0,192,1.0,127.0
2650,74.0,48,48,0.0,127.0
2651,53.0,0,96,3.0,127.0
2652,72.0,48,48,0.0,127.0
2653,70.0,0,48,0.0,127.0
2654,69.0,48,48,0.0,127.0
2655,41.0,48,96,3.0,127.0
2656,70.0,0,48,0.0,127.0
2657,65.0,48,48,0.0,127.0
2658,67.0,48,48,0.0,127.0
2659,63.0,48,48,0.0,127.0
2660,70.0,0,192,1.0,127.0
2661,63.0,48,48,0.0,127.0
2662,70.0,48,240,0.0,127.0
2663,46.0,48,576,3.0,127.0
2664,65.0,48,288,0.0,127.0
2665,53.0,48,384,2.0,127.0
2666,58.0,48,192,2.0,127.0
2667,62.0,0,384,0.0,127.0
2668,74.0,0,96,0.0,127.0
2669,58.0,192,96,3.0,127.0
2670,75.0,0,48,0.0,127.0
2671,46.0,96,96,3.0,127.0
2672,74.0,0,192,1.0,127.0
2673,77.0,48,0,0.0,127.0
2674,48.0,0,96,3.0,127.0
2675,50.0,96,96,3.0,127.0
2676,51.0,96,96,3.0,127.0
2677,53.0,96,96,3.0,127.0
2678,74.0,0,384,1.0,127.0
2679,76.0,0,96,0.0,127.0
2680,55.0,96,96,3.0,127.0
2681,77.0,96,48,0.0,127.0
2682,79.0,48,48,0.0,127.0
2683,76.0,0,192,1.0,127.0
2684,56.0,0,96,3.0,127.0
2685,58.0,0,96,3.0,127.0
2686,61.0,96,96,3.0,127.0
2687,60.0,96,96,3.0,127.0
2688,76.0,48,384,1.0,127.0
2689,80.0,0,384,0.0,127.0
2690,58.0,96,96,3.0,127.0
2691,79.0,0,96,0.0,127.0
2692,56.0,96,96,3.0,127.0
2693,80.0,96,48,0.0,127.0
2694,82.0,48,48,0.0,127.0
2695,53.0,0,96,3.0,127.0
2696,70.0,48,96,0.0,127.0
2697,61.0,0,96,3.0,127.0
2698,80.0,96,48,0.0,127.0
2699,60.0,0,96,3.0,127.0
2700,79.0,48,48,0.0,127.0
2701,82.0,48,48,0.0,127.0
2702,80.0,48,48,0.0,127.0
2703,58.0,0,96,3.0,127.0
2704,79.0,48,48,0.0,127.0
2705,61.0,0,96,3.0,127.0
2706,77.0,48,48,0.0,127.0
2707,79.0,0,96,0.0,127.0
2708,60.0,48,96,3.0,127.0
2709,81.0,96,48,0.0,127.0
2710,61.0,0,96,3.0,127.0
2711,76.0,0,192,1.0,127.0
2712,82.0,48,48,0.0,127.0
2713,60.0,0,96,3.0,127.0
2714,58.0,48,96,3.0,127.0
2715,56.0,96,96,3.0,127.0
2716,79.0,24,360,0.0,127.0
2717,75.0,48,384,0.0,127.0
2718,82.0,24,336,0.0,127.0
2719,55.0,96,96,3.0,127.0
2720,53.0,96,48,3.0,127.0
2721,80.0,0,96,0.0,127.0
2722,55.0,48,48,3.0,127.0
2723,79.0,48,96,0.0,127.0
2724,56.0,0,96,3.0,127.0
2725,77.0,96,96,0.0,127.0
2726,75.0,96,96,0.0,127.0
2727,73.0,96,96,0.0,127.0
2728,49.0,0,384,3.0,127.0
2729,72.0,96,96,0.0,127.0
2730,55.0,0,48,3.0,127.0
2731,56.0,48,48,3.0,127.0
2732,70.0,96,96,0.0,127.0
2733,58.0,48,96,3.0,127.0
2734,68.0,0,96,0.0,127.0
2735,67.0,0,96,0.0,127.0
2736,65.0,96,96,0.0,127.0
2737,64.0,96,48,0.0,127.0
2738,65.0,48,48,0.0,127.0
2739,67.0,48,48,0.0,127.0
2740,73.0,48,48,0.0,127.0
2741,58.0,96,384,3.0,127.0
2742,72.0,48,48,0.0,127.0
2743,56.0,0,96,3.0,127.0
2744,70.0,48,48,0.0,127.0
2745,68.0,48,48,0.0,127.0
2746,77.0,48,48,0.0,127.0
2747,53.0,0,96,3.0,127.0
2748,76.0,48,48,0.0,127.0
2749,61.0,0,96,3.0,127.0
2750,77.0,48,48,0.0,127.0
2751,79.0,0,48,0.0,127.0
2752,82.0,48,48,0.0,127.0
2753,58.0,48,96,3.0,127.0
2754,80.0,0,48,1.0,127.0
2755,77.0,48,48,1.0,127.0
2756,60.0,0,96,3.0,127.0
2757,80.0,48,96,0.0,127.0
2758,79.0,48,48,1.0,127.0
2759,48.0,0,96,3.0,127.0
2760,75.0,48,48,1.0,127.0
2761,79.0,0,96,0.0,127.0
2762,77.0,48,48,1.0,127.0
2763,70.0,48,48,1.0,127.0
2764,72.0,48,48,1.0,127.0
2765,67.0,48,48,1.0,127.0
2766,77.0,0,192,0.0,127.0
2767,70.0,48,48,0.0,127.0
2768,53.0,0,480,3.0,127.0
2769,51.0,96,96,3.0,127.0
2770,77.0,48,240,0.0,127.0
2771,68.0,0,384,0.0,127.0
2772,65.0,48,192,1.0,127.0
2773,72.0,48,288,0.0,127.0
2774,60.0,48,384,2.0,127.0
2775,53.0,0,48,2.0,127.0
2776,55.0,48,48,2.0,127.0
2777,80.0,0,96,0.0,127.0
2778,70.0,0,96,0.0,127.0
2779,50.0,96,192,3.0,127.0
2780,72.0,0,96,0.0,127.0
2781,74.0,96,96,0.0,127.0
2782,75.0,96,96,0.0,127.0
2783,46.0,96,384,3.0,127.0
2784,77.0,96,96,0.0,127.0
2785,56.0,48,480,2.0,127.0
2786,51.0,0,96,3.0,127.0
2787,79.0,0,96,0.0,127.0
2788,80.0,0,48,0.0,127.0
2789,63.0,96,96,3.0,127.0
2790,82.0,0,0,0.0,127.0
2791,79.0,96,192,1.0,127.0
2792,61.0,48,96,3.0,127.0
2793,60.0,96,96,3.0,127.0
2794,58.0,96,96,3.0,127.0
2795,56.0,96,96,3.0,127.0
2796,73.0,0,96,0.0,127.0
2797,58.0,0,288,2.0,127.0
2798,60.0,0,48,2.0,127.0
2799,63.0,96,96,0.0,127.0
2800,55.0,96,192,3.0,127.0
2801,65.0,48,96,0.0,127.0
2802,67.0,96,96,0.0,127.0
2803,68.0,96,96,0.0,127.0
2804,70.0,96,96,0.0,127.0
2805,61.0,48,432,2.0,127.0
2806,51.0,0,384,3.0,127.0
2807,72.0,96,48,0.0,127.0
2808,73.0,48,48,0.0,127.0
2809,56.0,0,96,3.0,127.0
2810,44.0,0,96,3.0,127.0
2811,75.0,48,144,0.0,127.0
2812,46.0,96,96,3.0,127.0
2813,73.0,48,48,0.0,127.0
2814,72.0,0,48,0.0,127.0
2815,70.0,48,48,0.0,127.0
2816,48.0,48,96,3.0,127.0
2817,68.0,48,48,0.0,127.0
2818,50.0,0,96,3.0,127.0
2819,67.0,48,48,0.0,127.0
2820,65.0,0,48,0.0,127.0
2821,51.0,48,96,3.0,127.0
2822,63.0,48,48,0.0,127.0
2823,53.0,48,96,3.0,127.0
2824,63.0,48,48,0.0,127.0
2825,55.0,48,96,3.0,127.0
2826,56.0,48,96,3.0,127.0
2827,60.0,96,96,3.0,127.0
2828,65.0,0,288,0.0,127.0
2829,62.0,0,384,0.0,127.0
2830,70.0,48,288,0.0,127.0
2831,72.0,48,48,0.0,127.0
2832,58.0,96,96,3.0,127.0
2833,74.0,0,48,0.0,127.0
2834,56.0,48,96,3.0,127.0
2835,75.0,48,48,0.0,127.0
2836,77.0,0,48,0.0,127.0
2837,79.0,48,48,0.0,127.0
2838,55.0,48,96,3.0,127.0
2839,53.0,48,96,3.0,127.0
2840,51.0,96,96,3.0,127.0
2841,80.0,0,288,0.0,127.0
2842,50.0,96,96,3.0,127.0
2843,70.0,0,240,0.0,127.0
2844,48.0,96,96,3.0,127.0
2845,74.0,48,48,0.0,127.0
2846,77.0,0,48,0.0,127.0
2847,46.0,48,96,3.0,127.0
2848,80.0,48,48,0.0,127.0
2849,79.0,0,48,0.0,127.0
2850,77.0,48,48,0.0,127.0
2851,51.0,48,96,3.0,127.0
2852,75.0,48,48,0.0,127.0
2853,55.0,0,96,3.0,127.0
2854,79.0,48,48,0.0,127.0
2855,72.0,0,48,0.0,127.0
2856,56.0,48,96,3.0,127.0
2857,74.0,48,48,0.0,127.0
2858,75.0,48,48,0.0,127.0
2859,53.0,0,96,3.0,127.0
2860,72.0,0,192,1.0,127.0
2861,77.0,48,96,0.0,127.0
2862,77.0,48,48,0.0,127.0
2863,58.0,48,96,3.0,127.0
2864,75.0,0,48,0.0,127.0
2865,46.0,48,96,3.0,127.0
2866,74.0,48,48,0.0,127.0
2867,68.0,0,240,1.0,127.0
2868,70.0,48,48,1.0,127.0
2869,72.0,48,48,1.0,127.0
2870,68.0,48,48,1.0,127.0
2871,75.0,48,192,0.0,127.0
2872,68.0,48,48,1.0,127.0
2873,51.0,0,576,3.0,127.0
2874,67.0,0,384,1.0,127.0
2875,70.0,48,288,1.0,127.0
2876,63.0,48,192,2.0,127.0
2877,75.0,48,240,1.0,127.0
2878,58.0,48,384,2.0,127.0
2879,58.0,192,96,3.0,127.0
2880,74.0,0,96,0.0,127.0
2881,75.0,96,48,0.0,127.0
2882,77.0,48,48,0.0,127.0
2883,74.0,0,0,1.0,127.0
2884,46.0,0,96,3.0,127.0
2885,48.0,0,96,3.0,127.0
2886,50.0,96,96,3.0,127.0
2887,51.0,96,96,3.0,127.0
2888,53.0,96,96,3.0,127.0
2889,77.0,48,384,0.0,127.0
2890,55.0,0,96,3.0,127.0
2891,76.0,0,96,0.0,127.0
2892,77.0,0,48,0.0,127.0
2893,76.0,0,0,1.0,127.0
2894,79.0,48,48,0.0,127.0
2895,56.0,96,96,3.0,127.0
2896,58.0,48,96,3.0,127.0
2897,61.0,96,96,3.0,127.0
2898,60.0,96,96,3.0,127.0
2899,80.0,0,384,0.0,127.0
2900,58.0,96,96,3.0,127.0
2901,56.0,0,96,3.0,127.0
2902,79.0,96,96,0.0,127.0
2903,80.0,96,48,0.0,127.0
2904,82.0,48,48,0.0,127.0
2905,53.0,0,96,3.0,127.0
2906,61.0,0,96,3.0,127.0
2907,70.0,48,96,0.0,127.0
2908,80.0,96,48,0.0,127.0
2909,60.0,0,96,3.0,127.0
2910,79.0,48,48,0.0,127.0
2911,82.0,48,48,0.0,127.0
2912,80.0,48,48,0.0,127.0
2913,58.0,0,96,3.0,127.0
2914,79.0,48,48,0.0,127.0
2915,77.0,48,48,0.0,127.0
2916,61.0,0,96,3.0,127.0
2917,79.0,48,96,0.0,127.0
2918,60.0,0,96,3.0,127.0
2919,81.0,96,48,0.0,127.0
2920,82.0,48,48,0.0,127.0
2921,76.0,0,192,1.0,127.0
2922,61.0,0,96,3.0,127.0
2923,60.0,48,96,3.0,127.0
2924,58.0,48,96,3.0,127.0
2925,56.0,96,96,3.0,127.0
2926,55.0,96,96,3.0,127.0
2927,82.0,24,336,0.0,127.0
2928,79.0,24,360,0.0,127.0
2929,75.0,0,384,0.0,127.0
2930,53.0,0,48,3.0,127.0
2931,55.0,48,48,3.0,127.0
2932,80.0,96,96,0.0,127.0
2933,56.0,48,96,3.0,127.0
2934,79.0,0,96,0.0,127.0
2935,77.0,0,96,0.0,127.0
2936,75.0,96,96,0.0,127.0
2937,73.0,96,96,0.0,127.0
2938,72.0,96,96,0.0,127.0
2939,49.0,96,384,3.0,127.0
2940,55.0,0,48,3.0,127.0
2941,70.0,96,96,0.0,127.0
2942,56.0,48,48,3.0,127.0
2943,58.0,0,96,3.0,127.0
2944,68.0,48,96,0.0,127.0
2945,67.0,96,96,0.0,127.0
2946,65.0,96,96,0.0,127.0
2947,64.0,96,48,0.0,127.0
2948,65.0,48,48,0.0,127.0
2949,67.0,48,48,0.0,127.0
2950,58.0,0,384,3.0,127.0
2951,73.0,48,48,0.0,127.0
2952,72.0,0,48,0.0,127.0
2953,56.0,48,96,3.0,127.0
2954,70.0,48,48,0.0,127.0
2955,68.0,48,48,0.0,127.0
2956,53.0,0,96,3.0,127.0
2957,77.0,48,48,0.0,127.0
2958,76.0,48,48,0.0,127.0
2959,61.0,0,96,3.0,127.0
2960,77.0,48,48,0.0,127.0
2961,79.0,48,48,0.0,127.0
2962,58.0,0,96,3.0,127.0
2963,82.0,48,48,0.0,127.0
2964,80.0,0,48,1.0,127.0
2965,77.0,48,48,1.0,127.0
2966,60.0,48,96,3.0,127.0
2967,80.0,0,96,0.0,127.0
2968,79.0,0,48,1.0,127.0
2969,75.0,48,48,1.0,127.0
2970,79.0,48,96,0.0,127.0
2971,48.0,0,96,3.0,127.0
2972,77.0,48,48,1.0,127.0
2973,70.0,48,48,1.0,127.0
2974,72.0,48,48,1.0,127.0
2975,77.0,0,192,0.0,127.0
2976,67.0,48,48,1.0,127.0
2977,70.0,48,48,0.0,127.0
2978,53.0,0,480,3.0,127.0
2979,77.0,48,240,0.0,127.0
2980,72.0,48,288,0.0,127.0
2981,68.0,48,384,0.0,127.0
2982,65.0,48,192,1.0,127.0
2983,60.0,0,384,2.0,127.0
2984,51.0,96,96,3.0,127.0
2985,53.0,0,48,2.0,127.0
2986,55.0,48,48,2.0,127.0
2987,80.0,96,96,0.0,127.0
2988,70.0,0,96,0.0,127.0
2989,50.0,0,192,3.0,127.0
2990,72.0,96,96,0.0,127.0
2991,74.0,96,96,0.0,127.0
2992,75.0,96,96,0.0,127.0
2993,46.0,0,384,3.0,127.0
2994,77.0,96,96,0.0,127.0
2995,56.0,48,480,2.0,127.0
2996,79.0,0,96,0.0,127.0
2997,51.0,96,96,3.0,127.0
2998,80.0,96,48,0.0,127.0
2999,79.0,0,192,1.0,127.0
3000,63.0,0,96,3.0,127.0
3001,82.0,0,0,0.0,127.0
3002,61.0,48,96,3.0,127.0
3003,60.0,96,96,3.0,127.0
3004,58.0,0,96,3.0,127.0
3005,56.0,96,96,3.0,127.0
3006,58.0,96,288,2.0,127.0
3007,73.0,0,96,0.0,127.0
3008,60.0,0,48,2.0,127.0
3009,55.0,96,192,3.0,127.0
3010,63.0,96,96,0.0,127.0
3011,65.0,48,96,0.0,127.0
3012,67.0,96,96,0.0,127.0
3013,68.0,96,96,0.0,127.0
3014,61.0,48,432,2.0,127.0
3015,51.0,0,384,3.0,127.0
3016,70.0,96,96,0.0,127.0
3017,72.0,0,48,0.0,127.0
3018,73.0,48,48,0.0,127.0
3019,56.0,96,96,3.0,127.0
3020,44.0,0,96,3.0,127.0
3021,75.0,48,144,0.0,127.0
3022,46.0,96,96,3.0,127.0
3023,73.0,48,48,0.0,127.0
3024,72.0,0,48,0.0,127.0
3025,48.0,48,96,3.0,127.0
3026,70.0,48,48,0.0,127.0
3027,68.0,0,48,0.0,127.0
3028,67.0,48,48,0.0,127.0
3029,50.0,48,96,3.0,127.0
3030,65.0,48,48,0.0,127.0
3031,63.0,48,48,0.0,127.0
3032,51.0,0,96,3.0,127.0
3033,63.0,48,48,0.0,127.0
3034,53.0,0,96,3.0,127.0
3035,55.0,0,96,3.0,127.0
3036,56.0,48,96,3.0,127.0
3037,60.0,96,96,3.0,127.0
3038,62.0,48,384,0.0,127.0
3039,65.0,48,288,0.0,127.0
3040,70.0,48,288,0.0,127.0
3041,58.0,96,96,3.0,127.0
3042,72.0,48,48,0.0,127.0
3043,74.0,0,48,0.0,127.0
3044,56.0,48,96,3.0,127.0
3045,75.0,48,48,0.0,127.0
3046,77.0,0,48,0.0,127.0
3047,55.0,48,96,3.0,127.0
3048,79.0,48,48,0.0,127.0
3049,53.0,48,96,3.0,127.0
3050,51.0,0,96,3.0,127.0
3051,50.0,96,96,3.0,127.0
3052,80.0,0,288,0.0,127.0
3053,70.0,96,240,0.0,127.0
3054,74.0,48,48,0.0,127.0
3055,48.0,96,96,3.0,127.0
3056,77.0,0,48,0.0,127.0
3057,80.0,48,48,0.0,127.0
3058,46.0,48,96,3.0,127.0
3059,79.0,0,48,0.0,127.0
3060,51.0,48,96,3.0,127.0
3061,77.0,48,48,0.0,127.0
3062,75.0,0,48,0.0,127.0
3063,79.0,48,48,0.0,127.0
3064,55.0,48,96,3.0,127.0
3065,72.0,0,48,0.0,127.0
3066,74.0,48,48,0.0,127.0
3067,56.0,0,96,3.0,127.0
3068,75.0,48,48,0.0,127.0
3069,72.0,48,192,1.0,127.0
3070,53.0,0,96,3.0,127.0
3071,77.0,48,96,0.0,127.0
3072,58.0,0,96,3.0,127.0
3073,77.0,48,48,0.0,127.0
3074,75.0,48,48,0.0,127.0
3075,74.0,48,48,0.0,127.0
3076,46.0,0,96,3.0,127.0
3077,68.0,48,240,1.0,127.0
3078,70.0,48,48,1.0,127.0
3079,72.0,48,48,1.0,127.0
3080,68.0,48,48,1.0,127.0
3081,75.0,48,192,0.0,127.0
3082,68.0,48,48,1.0,127.0
3083,67.0,48,384,1.0,127.0
3084,70.0,48,288,1.0,127.0
3085,75.0,48,240,1.0,127.0
3086,51.0,0,576,3.0,127.0
3087,58.0,0,384,2.0,127.0
3088,63.0,48,192,2.0,127.0
3089,75.0,576,96,0.0,127.0
3090,70.0,96,96,0.0,127.0
3091,72.0,96,96,0.0,127.0
3092,68.0,96,96,0.0,127.0
3093,68.0,96,48,0.0,127.0
3094,67.0,48,24,0.0,127.0
3095,63.0,0,96,3.0,127.0
3096,68.0,24,24,0.0,127.0
3097,58.0,0,96,3.0,127.0
3098,67.0,24,192,0.0,127.0
3099,60.0,96,96,3.0,127.0
3100,68.0,0,96,0.0,127.0
3101,56.0,96,96,3.0,127.0
3102,56.0,96,48,3.0,127.0
3103,55.0,48,24,3.0,127.0
3104,56.0,24,24,3.0,127.0
3105,70.0,0,96,0.0,127.0
3106,65.0,0,96,0.0,127.0
3107,55.0,24,192,3.0,127.0
3108,67.0,96,96,0.0,127.0
3109,56.0,96,96,3.0,127.0
3110,63.0,0,96,0.0,127.0
3111,63.0,96,48,0.0,127.0
3112,62.0,48,24,0.0,127.0
3113,58.0,0,96,3.0,127.0
3114,63.0,24,24,0.0,127.0
3115,62.0,0,96,0.0,127.0
3116,53.0,24,96,3.0,127.0
3117,60.0,96,96,0.0,127.0
3118,55.0,0,96,3.0,127.0
3119,58.0,96,96,0.0,127.0
3120,51.0,96,0,3.0,127.0
3121,50.0,48,24,3.0,127.0
3122,68.0,0,96,0.0,127.0
3123,51.0,24,24,3.0,127.0
3124,50.0,24,96,3.0,127.0
3125,63.0,0,96,0.0,127.0
3126,65.0,0,96,0.0,127.0
3127,62.0,96,96,0.0,127.0
3128,46.0,96,192,3.0,127.0
3129,67.0,96,96,0.0,127.0
3130,62.0,96,96,0.0,127.0
3131,51.0,0,288,3.0,127.0
3132,63.0,96,96,0.0,127.0
3133,70.0,0,96,0.0,127.0
3134,55.0,96,96,3.0,127.0
3135,72.0,96,96,0.0,127.0
3136,56.0,0,192,3.0,127.0
3137,67.0,96,96,0.0,127.0
3138,68.0,96,96,0.0,127.0
3139,53.0,0,192,3.0,127.0
3140,77.0,96,96,0.0,127.0
3141,75.0,96,48,0.0,127.0
3142,58.0,0,96,3.0,127.0
3143,74.0,48,144,0.0,127.0
3144,56.0,48,96,3.0,127.0
3145,72.0,0,48,0.0,127.0
3146,55.0,96,96,3.0,127.0
3147,70.0,48,144,0.0,127.0
3148,53.0,96,0,3.0,127.0
3149,51.0,48,24,3.0,127.0
3150,53.0,24,24,3.0,127.0
3151,75.0,0,96,0.0,127.0
3152,70.0,0,96,0.0,127.0
3153,51.0,24,96,3.0,127.0
3154,72.0,96,96,0.0,127.0
3155,68.0,96,0,0.0,127.0
3156,67.0,48,24,0.0,127.0
3157,63.0,0,96,3.0,127.0
3158,68.0,24,24,0.0,127.0
3159,58.0,24,96,3.0,127.0
3160,67.0,0,192,0.0,127.0
3161,60.0,96,96,3.0,127.0
3162,68.0,0,96,0.0,127.0
3163,56.0,96,0,3.0,127.0
3164,55.0,48,24,3.0,127.0
3165,56.0,24,24,3.0,127.0
3166,70.0,0,96,0.0,127.0
3167,65.0,0,96,0.0,127.0
3168,55.0,24,192,3.0,127.0
3169,67.0,96,96,0.0,127.0
3170,57.0,96,96,3.0,127.0
3171,75.0,0,0,0.0,127.0
3172,74.0,48,24,0.0,127.0
3173,75.0,24,24,0.0,127.0
3174,58.0,96,96,3.0,127.0
3175,53.0,24,96,3.0,127.0
3176,55.0,96,96,3.0,127.0
3177,74.0,0,192,0.0,127.0
3178,75.0,0,96,0.0,127.0
3179,51.0,96,96,3.0,127.0
3180,77.0,96,96,0.0,127.0
3181,72.0,96,96,0.0,127.0
3182,50.0,0,192,3.0,127.0
3183,74.0,0,96,0.0,127.0
3184,70.0,96,96,0.0,127.0
3185,46.0,96,192,3.0,127.0
3186,69.0,0,96,0.0,127.0
3187,79.0,96,96,0.0,127.0
3188,51.0,96,192,3.0,127.0
3189,77.0,0,96,0.0,127.0
3190,50.0,96,96,3.0,127.0
3191,70.0,96,96,0.0,127.0
3192,51.0,0,96,3.0,127.0
3193,74.0,96,96,0.0,127.0
3194,72.0,96,96,0.0,127.0
3195,53.0,0,192,3.0,127.0
3196,70.0,0,96,0.0,127.0
3197,41.0,96,192,3.0,127.0
3198,69.0,96,96,0.0,127.0
3199,46.0,96,96,3.0,127.0
3200,69.0,0,96,0.0,127.0
3201,70.0,0,24,0.0,127.0
3202,69.0,24,24,0.0,127.0
3203,44.0,96,96,3.0,127.0
3204,43.0,48,96,3.0,127.0
3205,70.0,24,240,0.0,127.0
3206,41.0,96,96,3.0,127.0
3207,75.0,96,96,0.0,127.0
3208,70.0,96,96,0.0,127.0
3209,39.0,0,192,3.0,127.0
3210,72.0,96,96,0.0,127.0
3211,68.0,96,96,0.0,127.0
3212,68.0,96,48,0.0,127.0
3213,67.0,48,24,0.0,127.0
3214,68.0,24,24,0.0,127.0
3215,63.0,0,96,3.0,127.0
3216,58.0,0,96,3.0,127.0
3217,60.0,96,96,3.0,127.0
3218,67.0,24,192,0.0,127.0
3219,56.0,96,0,3.0,127.0
3220,68.0,0,96,0.0,127.0
3221,55.0,48,24,3.0,127.0
3222,70.0,0,96,0.0,127.0
3223,56.0,24,24,3.0,127.0
3224,65.0,0,96,0.0,127.0
3225,67.0,96,96,0.0,127.0
3226,55.0,24,192,3.0,127.0
3227,56.0,96,96,3.0,127.0
3228,63.0,96,0,0.0,127.0
3229,62.0,48,24,0.0,127.0
3230,63.0,24,24,0.0,127.0
3231,58.0,0,96,3.0,127.0
3232,53.0,0,96,3.0,127.0
3233,62.0,24,96,0.0,127.0
3234,60.0,0,96,0.0,127.0
3235,55.0,96,96,3.0,127.0
3236,51.0,0,96,3.0,127.0
3237,58.0,96,96,0.0,127.0
3238,51.0,96,48,3.0,127.0
3239,50.0,48,24,3.0,127.0
3240,51.0,24,24,3.0,127.0
3241,68.0,0,96,0.0,127.0
3242,63.0,0,96,0.0,127.0
3243,50.0,24,96,3.0,127.0
3244,65.0,0,96,0.0,127.0
3245,46.0,96,192,3.0,127.0
3246,62.0,96,96,0.0,127.0
3247,67.0,0,96,0.0,127.0
3248,62.0,96,96,0.0,127.0
3249,63.0,96,96,0.0,127.0
3250,51.0,96,288,3.0,127.0
3251,70.0,96,96,0.0,127.0
3252,55.0,0,96,3.0,127.0
3253,72.0,96,96,0.0,127.0
3254,67.0,96,96,0.0,127.0
3255,56.0,0,192,3.0,127.0
3256,68.0,0,96,0.0,127.0
3257,53.0,96,192,3.0,127.0
3258,77.0,96,96,0.0,127.0
3259,75.0,0,48,0.0,127.0
3260,58.0,96,96,3.0,127.0
3261,56.0,48,96,3.0,127.0
3262,74.0,48,144,0.0,127.0
3263,72.0,96,48,0.0,127.0
3264,55.0,0,96,3.0,127.0
3265,53.0,96,0,3.0,127.0
3266,70.0,48,144,0.0,127.0
3267,51.0,48,24,3.0,127.0
3268,75.0,0,96,0.0,127.0
3269,53.0,24,24,3.0,127.0
3270,70.0,24,96,0.0,127.0
3271,51.0,0,96,3.0,127.0
3272,72.0,96,96,0.0,127.0
3273,68.0,96,0,0.0,127.0
3274,67.0,48,24,0.0,127.0
3275,68.0,24,24,0.0,127.0
3276,63.0,0,96,3.0,127.0
3277,58.0,0,96,3.0,127.0
3278,67.0,24,192,0.0,127.0
3279,60.0,96,96,3.0,127.0
3280,68.0,96,96,0.0,127.0
3281,56.0,0,0,3.0,127.0
3282,55.0,48,24,3.0,127.0
3283,56.0,24,24,3.0,127.0
3284,70.0,96,96,0.0,127.0
3285,65.0,0,96,0.0,127.0
3286,55.0,24,192,3.0,127.0
3287,67.0,96,96,0.0,127.0
3288,57.0,96,96,3.0,127.0
3289,75.0,0,0,0.0,127.0
3290,74.0,48,24,0.0,127.0
3291,75.0,24,24,0.0,127.0
3292,58.0,96,96,3.0,127.0
3293,53.0,0,96,3.0,127.0
3294,55.0,96,96,3.0,127.0
3295,74.0,24,192,0.0,127.0
3296,75.0,96,96,0.0,127.0
3297,51.0,0,96,3.0,127.0
3298,77.0,0,96,0.0,127.0
3299,72.0,96,96,0.0,127.0
3300,50.0,96,192,3.0,127.0
3301,74.0,96,96,0.0,127.0
3302,46.0,0,192,3.0,127.0
3303,70.0,96,96,0.0,127.0
3304,69.0,96,96,0.0,127.0
3305,51.0,0,192,3.0,127.0
3306,79.0,96,96,0.0,127.0
3307,50.0,0,96,3.0,127.0
3308,77.0,96,96,0.0,127.0
3309,70.0,0,96,0.0,127.0
3310,51.0,96,96,3.0,127.0
3311,74.0,0,96,0.0,127.0
3312,53.0,96,192,3.0,127.0
3313,72.0,96,96,0.0,127.0
3314,70.0,96,96,0.0,127.0
3315,69.0,96,96,0.0,127.0
3316,41.0,0,192,3.0,127.0
3317,46.0,0,384,3.0,127.0
3318,70.0,96,384,0.0,127.0
3319,77.0,384,96,0.0,127.0
3320,72.0,96,96,0.0,127.0
3321,74.0,96,96,0.0,127.0
3322,70.0,96,96,0.0,127.0
3323,80.0,96,24,0.0,127.0
3324,79.0,24,24,0.0,127.0
3325,53.0,0,96,3.0,127.0
3326,48.0,48,96,3.0,127.0
3327,50.0,96,96,3.0,127.0
3328,80.0,24,240,0.0,127.0
3329,46.0,96,96,3.0,127.0
3330,70.0,0,96,0.0,127.0
3331,74.0,0,96,0.0,127.0
3332,77.0,96,96,0.0,127.0
3333,58.0,96,288,3.0,127.0
3334,80.0,96,96,0.0,127.0
3335,50.0,96,96,3.0,127.0
3336,77.0,0,0,0.0,127.0
3337,51.0,96,96,3.0,127.0
3338,47.0,96,96,3.0,127.0
3339,79.0,0,24,0.0,127.0
3340,77.0,24,24,0.0,127.0
3341,48.0,96,96,3.0,127.0
3342,43.0,48,96,3.0,127.0
3343,79.0,24,240,0.0,127.0
3344,74.0,96,96,0.0,127.0
3345,75.0,96,96,0.0,127.0
3346,72.0,96,96,0.0,127.0
3347,77.0,96,96,0.0,127.0
3348,72.0,96,96,0.0,127.0
3349,44.0,96,576,3.0,127.0
3350,74.0,0,96,0.0,127.0
3351,71.0,96,96,0.0,127.0
3352,56.0,96,192,3.0,127.0
3353,75.0,96,96,0.0,127.0
3354,71.0,96,96,0.0,127.0
3355,55.0,0,192,3.0,127.0
3356,72.0,96,96,0.0,127.0
3357,54.0,0,192,3.0,127.0
3358,66.0,96,96,0.0,127.0
3359,72.0,96,96,0.0,127.0
3360,55.0,0,192,3.0,127.0
3361,71.0,96,96,0.0,127.0
3362,69.0,0,96,0.0,127.0
3363,53.0,96,192,3.0,127.0
3364,67.0,96,96,0.0,127.0
3365,79.0,0,96,0.0,127.0
3366,51.0,96,192,3.0,127.0
3367,74.0,96,96,0.0,127.0
3368,75.0,0,96,0.0,127.0
3369,48.0,96,192,3.0,127.0
3370,72.0,96,96,0.0,127.0
3371,49.0,0,96,3.0,127.0
3372,53.0,96,96,3.0,127.0
3373,82.0,96,288,0.0,127.0
3374,55.0,96,96,3.0,127.0
3375,58.0,96,96,3.0,127.0
3376,72.0,0,96,0.0,127.0
3377,73.0,96,96,0.0,127.0
3378,52.0,0,192,3.0,127.0
3379,70.0,96,96,0.0,127.0
3380,72.0,0,96,0.0,127.0
3381,82.0,96,96,0.0,127.0
3382,48.0,96,192,3.0,127.0
3383,82.0,96,48,0.0,127.0
3384,80.0,48,24,0.0,127.0
3385,53.0,0,96,3.0,127.0
3386,82.0,24,24,0.0,127.0
3387,52.0,0,96,3.0,127.0
3388,53.0,96,96,3.0,127.0
3389,80.0,24,192,0.0,127.0
3390,79.0,0,96,0.0,127.0
3391,48.0,96,96,3.0,127.0
3392,77.0,96,96,0.0,127.0
3393,56.0,0,192,3.0,127.0
3394,72.0,96,96,0.0,127.0
3395,55.0,96,96,3.0,127.0
3396,74.0,0,96,0.0,127.0
3397,53.0,96,96,3.0,127.0
3398,71.0,0,96,0.0,127.0
3399,79.0,0,96,0.0,127.0
3400,74.0,96,96,0.0,127.0
3401,51.0,96,192,3.0,127.0
3402,75.0,0,96,0.0,127.0
3403,72.0,96,96,0.0,127.0
3404,48.0,96,192,3.0,127.0
3405,67.0,96,96,0.0,127.0
3406,55.0,0,192,3.0,127.0
3407,72.0,96,96,0.0,127.0
3408,74.0,96,96,0.0,127.0
3409,43.0,0,192,3.0,127.0
3410,71.0,96,96,0.0,127.0
3411,60.0,96,96,3.0,127.0
3412,55.0,96,96,3.0,127.0
3413,71.0,0,192,0.0,127.0
3414,72.0,0,24,0.0,127.0
3415,71.0,24,24,0.0,127.0
3416,56.0,96,96,3.0,127.0
3417,53.0,96,0,3.0,127.0
3418,52.0,48,24,3.0,127.0
3419,53.0,24,24,3.0,127.0
3420,72.0,24,240,0.0,127.0
3421,52.0,24,96,3.0,127.0
3422,77.0,0,96,0.0,127.0
3423,76.0,96,96,0.0,127.0
3424,48.0,0,192,3.0,127.0
3425,82.0,96,96,0.0,127.0
3426,53.0,96,96,3.0,127.0
3427,80.0,0,96,0.0,127.0
3428,76.0,0,96,0.0,127.0
3429,55.0,96,96,3.0,127.0
3430,77.0,96,96,0.0,127.0
3431,56.0,0,96,3.0,127.0
3432,53.0,96,96,3.0,127.0
3433,74.0,0,96,0.0,127.0
3434,70.0,0,96,0.0,127.0
3435,75.0,96,96,0.0,127.0
3436,50.0,96,192,3.0,127.0
3437,74.0,96,96,0.0,127.0
3438,80.0,96,96,0.0,127.0
3439,46.0,0,192,3.0,127.0
3440,51.0,96,96,3.0,127.0
3441,79.0,0,96,0.0,127.0
3442,53.0,96,96,3.0,127.0
3443,74.0,0,96,0.0,127.0
3444,75.0,96,96,0.0,127.0
3445,55.0,0,96,3.0,127.0
3446,51.0,0,96,3.0,127.0
3447,72.0,96,96,0.0,127.0
3448,68.0,0,96,0.0,127.0
3449,48.0,96,96,3.0,127.0
3450,55.0,96,96,3.0,127.0
3451,75.0,0,96,0.0,127.0
3452,53.0,0,96,3.0,127.0
3453,74.0,96,96,0.0,127.0
3454,77.0,0,96,0.0,127.0
3455,56.0,96,96,3.0,127.0
3456,46.0,0,96,3.0,127.0
3457,67.0,96,96,0.0,127.0
3458,74.0,96,96,0.0,127.0
3459,53.0,0,96,3.0,127.0
3460,51.0,0,96,3.0,127.0
3461,72.0,96,96,0.0,127.0
3462,75.0,0,96,0.0,127.0
3463,55.0,96,96,3.0,127.0
3464,44.0,96,96,3.0,127.0
3465,67.0,0,96,0.0,127.0
3466,51.0,96,96,3.0,127.0
3467,72.0,0,96,0.0,127.0
3468,49.0,96,96,3.0,127.0
3469,70.0,0,96,0.0,127.0
3470,53.0,96,96,3.0,127.0
3471,46.0,96,96,3.0,127.0
3472,41.0,96,96,3.0,127.0
3473,43.0,96,96,3.0,127.0
3474,39.0,96,96,3.0,127.0
3475,63.0,0,384,0.0,127.0
3476,72.0,96,96,0.0,127.0
3477,44.0,0,192,3.0,127.0
3478,67.0,96,96,0.0,127.0
3479,68.0,96,96,0.0,127.0
3480,41.0,0,192,3.0,127.0
3481,65.0,96,96,0.0,127.0
3482,62.0,0,96,0.0,127.0
3483,72.0,96,96,0.0,127.0
3484,70.0,96,96,0.0,127.0
3485,46.0,96,288,3.0,127.0
3486,50.0,96,96,3.0,127.0
3487,80.0,0,96,0.0,127.0
3488,79.0,96,96,0.0,127.0
3489,51.0,0,96,3.0,127.0
3490,75.0,0,96,0.0,127.0
3491,55.0,96,96,3.0,127.0
3492,70.0,96,96,0.0,127.0
3493,58.0,0,96,3.0,127.0
3494,46.0,96,96,3.0,127.0
3495,74.0,0,96,0.0,127.0
3496,74.0,0,192,0.0,127.0
3497,75.0,192,24,0.0,127.0
3498,74.0,24,24,0.0,127.0
3499,75.0,24,144,0.0,127.0
3500,39.0,96,384,3.0,127.0
3501,77.0,144,96,0.0,127.0
3502,72.0,96,96,0.0,127.0
3503,74.0,96,96,0.0,127.0
3504,70.0,96,96,0.0,127.0
3505,80.0,96,24,0.0,127.0
3506,79.0,24,24,0.0,127.0
3507,53.0,0,96,3.0,127.0
3508,48.0,48,96,3.0,127.0
3509,50.0,96,96,3.0,127.0
3510,80.0,24,240,0.0,127.0
3511,70.0,0,96,0.0,127.0
3512,46.0,96,96,3.0,127.0
3513,74.0,96,96,0.0,127.0
3514,77.0,96,96,0.0,127.0
3515,80.0,96,96,0.0,127.0
3516,58.0,0,288,3.0,127.0
3517,77.0,0,96,0.0,127.0
3518,50.0,96,96,3.0,127.0
3519,51.0,0,96,3.0,127.0
3520,77.0,96,192,0.0,127.0
3521,47.0,96,96,3.0,127.0
3522,79.0,0,24,0.0,127.0
3523,77.0,24,24,0.0,127.0
3524,48.0,96,96,3.0,127.0
3525,43.0,48,96,3.0,127.0
3526,79.0,24,240,0.0,127.0
3527,74.0,96,96,0.0,127.0
3528,75.0,96,96,0.0,127.0
3529,72.0,96,96,0.0,127.0
3530,77.0,96,96,0.0,127.0
3531,44.0,96,576,3.0,127.0
3532,72.0,96,96,0.0,127.0
3533,74.0,0,96,0.0,127.0
3534,56.0,96,192,3.0,127.0
3535,71.0,96,96,0.0,127.0
3536,75.0,0,96,0.0,127.0
3537,55.0,96,192,3.0,127.0
3538,71.0,96,96,0.0,127.0
3539,72.0,0,96,0.0,127.0
3540,66.0,96,96,0.0,127.0
3541,54.0,96,192,3.0,127.0
3542,72.0,0,96,0.0,127.0
3543,71.0,96,96,0.0,127.0
3544,55.0,96,192,3.0,127.0
3545,69.0,96,96,0.0,127.0
3546,53.0,0,192,3.0,127.0
3547,67.0,96,96,0.0,127.0
3548,79.0,0,96,0.0,127.0
3549,74.0,96,96,0.0,127.0
3550,51.0,96,192,3.0,127.0
3551,75.0,96,96,0.0,127.0
3552,72.0,96,96,0.0,127.0
3553,48.0,0,192,3.0,127.0
3554,49.0,96,96,3.0,127.0
3555,53.0,96,96,3.0,127.0
3556,82.0,0,288,0.0,127.0
3557,55.0,96,96,3.0,127.0
3558,58.0,96,96,3.0,127.0
3559,72.0,0,96,0.0,127.0
3560,73.0,96,96,0.0,127.0
3561,52.0,0,192,3.0,127.0
3562,70.0,96,96,0.0,127.0
3563,72.0,96,96,0.0,127.0
3564,48.0,0,192,3.0,127.0
3565,82.0,96,0,0.0,127.0
3566,80.0,48,24,0.0,127.0
3567,82.0,24,24,0.0,127.0
3568,53.0,0,96,3.0,127.0
3569,52.0,0,96,3.0,127.0
3570,53.0,96,96,3.0,127.0
3571,80.0,24,192,0.0,127.0
3572,79.0,96,96,0.0,127.0
3573,48.0,0,96,3.0,127.0
3574,77.0,0,96,0.0,127.0
3575,56.0,96,192,3.0,127.0
3576,72.0,96,96,0.0,127.0
3577,55.0,96,96,3.0,127.0
3578,74.0,0,96,0.0,127.0
3579,71.0,96,96,0.0,127.0
3580,53.0,0,96,3.0,127.0
3581,79.0,0,96,0.0,127.0
3582,51.0,96,192,3.0,127.0
3583,74.0,96,96,0.0,127.0
3584,75.0,0,96,0.0,127.0
3585,72.0,96,96,0.0,127.0
3586,48.0,96,192,3.0,127.0
3587,67.0,96,96,0.0,127.0
3588,72.0,96,96,0.0,127.0
3589,55.0,0,192,3.0,127.0
3590,74.0,96,96,0.0,127.0
3591,43.0,0,192,3.0,127.0
3592,71.0,0,0,0.0,127.0
3593,60.0,96,96,3.0,127.0
3594,55.0,96,96,3.0,127.0
3595,72.0,0,24,0.0,127.0
3596,71.0,24,24,0.0,127.0
3597,56.0,96,96,3.0,127.0
3598,53.0,48,96,3.0,127.0
3599,53.0,96,48,3.0,127.0
3600,52.0,48,24,3.0,127.0
3601,72.0,24,240,0.0,127.0
3602,53.0,24,24,3.0,127.0
3603,77.0,24,96,0.0,127.0
3604,52.0,0,96,3.0,127.0
3605,76.0,96,96,0.0,127.0
3606,48.0,0,192,3.0,127.0
3607,82.0,96,96,0.0,127.0
3608,80.0,0,96,0.0,127.0
3609,53.0,96,96,3.0,127.0
3610,76.0,96,96,0.0,127.0
3611,55.0,0,96,3.0,127.0
3612,77.0,0,96,0.0,127.0
3613,56.0,96,96,3.0,127.0
3614,74.0,96,96,0.0,127.0
3615,53.0,0,96,3.0,127.0
3616,70.0,0,96,0.0,127.0
3617,75.0,96,96,0.0,127.0
3618,50.0,96,192,3.0,127.0
3619,74.0,0,96,0.0,127.0
3620,80.0,96,96,0.0,127.0
3621,46.0,96,192,3.0,127.0
3622,79.0,0,96,0.0,127.0
3623,51.0,96,96,3.0,127.0
3624,53.0,0,96,3.0,127.0
3625,74.0,96,96,0.0,127.0
3626,75.0,96,96,0.0,127.0
3627,55.0,0,96,3.0,127.0
3628,51.0,0,96,3.0,127.0
3629,72.0,96,96,0.0,127.0
3630,68.0,96,96,0.0,127.0
3631,48.0,0,96,3.0,127.0
3632,55.0,0,96,3.0,127.0
3633,75.0,96,96,0.0,127.0
3634,53.0,0,96,3.0,127.0
3635,74.0,96,96,0.0,127.0
3636,77.0,0,96,0.0,127.0
3637,56.0,96,96,3.0,127.0
3638,67.0,96,96,0.0,127.0
3639,46.0,0,96,3.0,127.0
3640,53.0,0,96,3.0,127.0
3641,74.0,96,96,0.0,127.0
3642,51.0,96,96,3.0,127.0
3643,72.0,0,96,0.0,127.0
3644,75.0,96,96,0.0,127.0
3645,55.0,0,96,3.0,127.0
3646,44.0,96,96,3.0,127.0
3647,67.0,0,96,0.0,127.0
3648,51.0,96,96,3.0,127.0
3649,72.0,0,96,0.0,127.0
3650,49.0,0,96,3.0,127.0
3651,70.0,96,96,0.0,127.0
3652,53.0,96,96,3.0,127.0
3653,46.0,0,96,3.0,127.0
3654,41.0,96,96,3.0,127.0
3655,43.0,96,96,3.0,127.0
3656,63.0,96,384,0.0,127.0
3657,39.0,96,96,3.0,127.0
3658,72.0,0,96,0.0,127.0
3659,67.0,96,96,0.0,127.0
3660,44.0,96,192,3.0,127.0
3661,68.0,96,96,0.0,127.0
3662,65.0,96,96,0.0,127.0
3663,41.0,0,192,3.0,127.0
3664,62.0,96,96,0.0,127.0
3665,72.0,96,96,0.0,127.0
3666,46.0,0,288,3.0,127.0
3667,70.0,96,96,0.0,127.0
3668,80.0,96,96,0.0,127.0
3669,50.0,0,96,3.0,127.0
3670,79.0,96,96,0.0,127.0
3671,51.0,0,96,3.0,127.0
3672,55.0,0,96,3.0,127.0
3673,75.0,96,96,0.0,127.0
3674,58.0,96,96,3.0,127.0
3675,70.0,0,96,0.0,127.0
3676,74.0,0,0,0.0,127.0
3677,46.0,0,96,3.0,127.0
3678,75.0,192,24,0.0,127.0
3679,74.0,24,24,0.0,127.0
3680,39.0,96,384,3.0,127.0
3681,75.0,24,144,0.0,127.0
3682,67.0,528,96,0.0,127.0
3683,63.0,96,96,0.0,127.0
3684,62.0,96,96,0.0,127.0
3685,63.0,96,96,0.0,127.0
3686,67.0,96,96,0.0,127.0
3687,63.0,96,96,0.0,127.0
3688,68.0,96,96,0.0,127.0
3689,63.0,96,96,0.0,127.0
3690,70.0,0,48,0.0,127.0
3691,55.0,96,96,3.0,127.0
3692,51.0,96,96,3.0,127.0
3693,72.0,0,48,0.0,127.0
3694,50.0,96,96,3.0,127.0
3695,51.0,96,96,3.0,127.0
3696,55.0,0,96,3.0,127.0
3697,70.0,96,96,0.0,127.0
3698,67.0,0,96,0.0,127.0
3699,51.0,96,96,3.0,127.0
3700,56.0,96,96,3.0,127.0
3701,65.0,0,96,0.0,127.0
3702,51.0,96,96,3.0,127.0
3703,63.0,0,96,0.0,127.0
3704,58.0,0,48,3.0,127.0
3705,62.0,96,96,0.0,127.0
3706,63.0,96,96,0.0,127.0
3707,65.0,0,48,0.0,127.0
3708,60.0,96,48,3.0,127.0
3709,63.0,48,48,0.0,127.0
3710,62.0,48,48,0.0,127.0
3711,63.0,48,48,0.0,127.0
3712,65.0,48,96,0.0,127.0
3713,58.0,0,96,3.0,127.0
3714,55.0,0,96,3.0,127.0
3715,67.0,96,96,0.0,127.0
3716,68.0,0,48,0.0,127.0
3717,67.0,48,48,0.0,127.0
3718,53.0,96,96,3.0,127.0
3719,65.0,48,48,0.0,127.0
3720,67.0,48,48,0.0,127.0
3721,51.0,0,96,3.0,127.0
3722,65.0,0,48,0.0,127.0
3723,68.0,48,48,0.0,127.0
3724,50.0,0,48,3.0,127.0
3725,67.0,192,48,0.0,127.0
3726,51.0,0,48,3.0,127.0
3727,63.0,0,48,0.0,127.0
3728,46.0,0,96,3.0,127.0
3729,44.0,96,96,3.0,127.0
3730,43.0,96,96,3.0,127.0
3731,41.0,96,96,3.0,127.0
3732,65.0,0,384,0.0,127.0
3733,62.0,192,384,0.0,127.0
3734,67.0,0,96,0.0,127.0
3735,63.0,96,96,0.0,127.0
3736,39.0,96,192,3.0,127.0
3737,62.0,96,96,0.0,127.0
3738,63.0,96,96,0.0,127.0
3739,67.0,96,96,0.0,127.0
3740,63.0,96,96,0.0,127.0
3741,68.0,96,96,0.0,127.0
3742,63.0,96,96,0.0,127.0
3743,70.0,96,48,0.0,127.0
3744,55.0,0,96,3.0,127.0
3745,51.0,96,96,3.0,127.0
3746,72.0,0,48,0.0,127.0
3747,50.0,96,96,3.0,127.0
3748,51.0,96,96,3.0,127.0
3749,70.0,96,96,0.0,127.0
3750,55.0,0,96,3.0,127.0
3751,51.0,0,96,3.0,127.0
3752,67.0,96,96,0.0,127.0
3753,65.0,96,96,0.0,127.0
3754,56.0,0,96,3.0,127.0
3755,63.0,96,96,0.0,127.0
3756,51.0,0,96,3.0,127.0
3757,58.0,0,48,3.0,127.0
3758,62.0,96,96,0.0,127.0
3759,63.0,96,96,0.0,127.0
3760,65.0,0,48,0.0,127.0
3761,60.0,96,48,3.0,127.0
3762,63.0,48,48,0.0,127.0
3763,62.0,48,48,0.0,127.0
3764,63.0,48,48,0.0,127.0
3765,65.0,0,96,0.0,127.0
3766,58.0,48,96,3.0,127.0
3767,55.0,0,96,3.0,127.0
3768,67.0,96,96,0.0,127.0
3769,68.0,0,48,0.0,127.0
3770,53.0,96,96,3.0,127.0
3771,67.0,48,48,0.0,127.0
3772,65.0,0,48,0.0,127.0
3773,51.0,48,96,3.0,127.0
3774,67.0,48,48,0.0,127.0
3775,68.0,0,48,0.0,127.0
3776,65.0,0,48,0.0,127.0
3777,50.0,48,48,3.0,127.0
3778,51.0,0,48,3.0,127.0
3779,67.0,0,48,0.0,127.0
3780,63.0,192,48,0.0,127.0
3781,46.0,192,96,3.0,127.0
3782,44.0,96,96,3.0,127.0
3783,43.0,96,96,3.0,127.0
3784,41.0,96,96,3.0,127.0
3785,62.0,0,384,0.0,127.0
3786,65.0,0,384,0.0,127.0
3787,67.0,0,96,0.0,127.0
3788,39.0,96,192,3.0,127.0
3789,63.0,96,96,0.0,127.0
3790,62.0,0,96,0.0,127.0
3791,43.0,96,192,3.0,127.0
3792,63.0,96,96,0.0,127.0
3793,65.0,96,96,0.0,127.0
3794,63.0,96,96,0.0,127.0
3795,46.0,0,192,3.0,127.0
3796,62.0,96,96,0.0,127.0
3797,63.0,96,96,0.0,127.0
3798,48.0,0,192,3.0,127.0
3799,65.0,0,96,0.0,127.0
3800,62.0,96,96,0.0,127.0
3801,50.0,96,192,3.0,127.0
3802,71.0,0,96,0.0,127.0
3803,43.0,96,192,3.0,127.0
3804,62.0,96,96,0.0,127.0
3805,63.0,0,96,0.0,127.0
3806,48.0,96,192,3.0,127.0
3807,62.0,96,96,0.0,127.0
3808,60.0,96,96,0.0,127.0
3809,62.0,96,96,0.0,127.0
3810,36.0,0,192,3.0,127.0
3811,63.0,0,96,0.0,127.0
3812,48.0,96,192,3.0,127.0
3813,60.0,96,96,0.0,127.0
3814,65.0,0,96,0.0,127.0
3815,50.0,96,192,3.0,127.0
3816,60.0,96,96,0.0,127.0
3817,67.0,96,96,0.0,127.0
3818,51.0,0,192,3.0,127.0
3819,60.0,96,96,0.0,127.0
3820,69.0,0,96,0.0,127.0
3821,53.0,96,192,3.0,127.0
3822,60.0,96,96,0.0,127.0
3823,70.0,0,96,0.0,127.0
3824,55.0,96,192,3.0,127.0
3825,60.0,96,96,0.0,127.0
3826,72.0,0,96,0.0,127.0
3827,51.0,96,192,3.0,127.0
3828,60.0,96,96,0.0,127.0
3829,70.0,0,96,0.0,127.0
3830,69.0,96,96,0.0,127.0
3831,53.0,96,192,3.0,127.0
3832,67.0,96,96,0.0,127.0
3833,65.0,96,96,0.0,127.0
3834,51.0,0,192,3.0,127.0
3835,70.0,96,48,0.0,127.0
3836,50.0,0,96,3.0,127.0
3837,46.0,96,96,3.0,127.0
3838,77.0,0,48,0.0,127.0
3839,45.0,96,96,3.0,127.0
3840,46.0,96,96,3.0,127.0
3841,79.0,96,32,0.0,127.0
3842,77.0,32,32,0.0,127.0
3843,50.0,0,96,3.0,127.0
3844,79.0,32,32,0.0,127.0
3845,77.0,32,32,0.0,127.0
3846,75.0,32,32,0.0,127.0
3847,46.0,0,96,3.0,127.0
3848,77.0,32,32,0.0,127.0
3849,51.0,0,96,3.0,127.0
3850,79.0,32,96,0.0,127.0
3851,46.0,96,96,3.0,127.0
3852,77.0,0,96,0.0,127.0
3853,53.0,96,48,3.0,127.0
3854,75.0,0,96,0.0,127.0
3855,74.0,96,96,0.0,127.0
3856,55.0,0,48,3.0,127.0
3857,72.0,96,96,0.0,127.0
3858,70.0,96,96,0.0,127.0
3859,53.0,0,96,3.0,127.0
3860,69.0,96,96,0.0,127.0
3861,50.0,96,96,3.0,127.0
3862,70.0,0,96,0.0,127.0
3863,72.0,0,48,0.0,127.0
3864,48.0,96,96,3.0,127.0
3865,70.0,48,48,0.0,127.0
3866,69.0,0,48,0.0,127.0
3867,70.0,48,48,0.0,127.0
3868,46.0,48,96,3.0,127.0
3869,72.0,48,96,0.0,127.0
3870,45.0,0,96,3.0,127.0
3871,46.0,0,96,3.0,127.0
3872,74.0,96,96,0.0,127.0
3873,48.0,0,48,3.0,127.0
3874,75.0,96,48,0.0,127.0
3875,46.0,0,48,3.0,127.0
3876,74.0,48,48,0.0,127.0
3877,72.0,48,48,0.0,127.0
3878,45.0,0,48,3.0,127.0
3879,46.0,0,48,3.0,127.0
3880,74.0,48,48,0.0,127.0
3881,75.0,0,96,0.0,127.0
3882,48.0,48,96,3.0,127.0
3883,74.0,0,96,0.0,127.0
3884,50.0,96,96,3.0,127.0
3885,51.0,0,48,3.0,127.0
3886,72.0,96,96,0.0,127.0
3887,50.0,48,48,3.0,127.0
3888,48.0,0,48,3.0,127.0
3889,50.0,48,48,3.0,127.0
3890,75.0,48,96,0.0,127.0
3891,51.0,0,48,3.0,127.0
3892,74.0,48,96,0.0,127.0
3893,72.0,96,96,0.0,127.0
3894,53.0,96,48,3.0,127.0
3895,70.0,0,96,0.0,127.0
3896,69.0,96,96,0.0,127.0
3897,72.0,0,96,0.0,127.0
3898,70.0,96,96,0.0,127.0
3899,55.0,96,192,3.0,127.0
3900,69.0,96,96,0.0,127.0
3901,70.0,96,96,0.0,127.0
3902,43.0,0,192,3.0,127.0
3903,75.0,96,96,0.0,127.0
3904,55.0,0,192,3.0,127.0
3905,70.0,96,96,0.0,127.0
3906,74.0,0,96,0.0,127.0
3907,70.0,96,96,0.0,127.0
3908,53.0,96,192,3.0,127.0
3909,79.0,0,96,0.0,127.0
3910,51.0,96,192,3.0,127.0
3911,70.0,96,96,0.0,127.0
3912,69.0,0,96,0.0,127.0
3913,39.0,96,192,3.0,127.0
3914,70.0,96,96,0.0,127.0
3915,79.0,0,96,0.0,127.0
3916,70.0,96,96,0.0,127.0
3917,51.0,96,192,3.0,127.0
3918,77.0,96,96,0.0,127.0
3919,70.0,96,96,0.0,127.0
3920,50.0,0,192,3.0,127.0
3921,75.0,96,96,0.0,127.0
3922,55.0,0,192,3.0,127.0
3923,70.0,96,96,0.0,127.0
3924,69.0,0,96,0.0,127.0
3925,70.0,96,96,0.0,127.0
3926,43.0,96,192,3.0,127.0
3927,75.0,0,96,0.0,127.0
3928,70.0,96,96,0.0,127.0
3929,55.0,96,192,3.0,127.0
3930,74.0,96,96,0.0,127.0
3931,53.0,0,192,3.0,127.0
3932,70.0,96,96,0.0,127.0
3933,72.0,96,96,0.0,127.0
3934,70.0,96,96,0.0,127.0
3935,52.0,0,192,3.0,127.0
3936,69.0,96,96,0.0,127.0
3937,70.0,96,96,0.0,127.0
3938,55.0,0,192,3.0,127.0
3939,76.0,96,96,0.0,127.0
3940,70.0,96,96,0.0,127.0
3941,48.0,0,192,3.0,127.0
3942,79.0,96,96,0.0,127.0
3943,52.0,0,192,3.0,127.0
3944,70.0,96,96,0.0,127.0
3945,69.0,0,96,0.0,127.0
3946,70.0,96,96,0.0,127.0
3947,53.0,96,288,3.0,127.0
3948,51.0,96,96,3.0,127.0
3949,50.0,96,96,3.0,127.0
3950,72.0,96,288,0.0,127.0
3951,62.0,0,96,3.0,127.0
3952,70.0,96,96,0.0,127.0
3953,69.0,96,96,0.0,127.0
3954,60.0,0,96,3.0,127.0
3955,70.0,0,96,0.0,127.0
3956,62.0,96,96,3.0,127.0
3957,51.0,0,96,3.0,127.0
3958,79.0,96,96,0.0,127.0
3959,70.0,96,96,0.0,127.0
3960,62.0,0,96,3.0,127.0
3961,69.0,96,96,0.0,127.0
3962,60.0,0,96,3.0,127.0
3963,62.0,0,96,3.0,127.0
3964,70.0,96,96,0.0,127.0
3965,81.0,0,96,0.0,127.0
3966,53.0,96,96,3.0,127.0
3967,70.0,0,96,0.0,127.0
3968,62.0,96,96,3.0,127.0
3969,60.0,96,96,3.0,127.0
3970,69.0,0,96,0.0,127.0
3971,62.0,96,96,3.0,127.0
3972,70.0,96,0,0.0,127.0
3973,55.0,0,96,3.0,127.0
3974,62.0,96,96,3.0,127.0
3975,82.0,0,96,0.0,127.0
3976,60.0,0,96,3.0,127.0
3977,81.0,96,96,0.0,127.0
3978,79.0,0,96,0.0,127.0
3979,62.0,96,96,3.0,127.0
3980,50.0,0,96,3.0,127.0
3981,62.0,96,96,3.0,127.0
3982,77.0,96,192,0.0,127.0
3983,60.0,96,96,3.0,127.0
3984,75.0,0,96,0.0,127.0
3985,74.0,96,96,0.0,127.0
3986,62.0,0,96,3.0,127.0
3987,72.0,96,96,0.0,127.0
3988,51.0,0,96,3.0,127.0
3989,70.0,0,96,0.0,127.0
3990,62.0,96,96,3.0,127.0
3991,69.0,96,96,0.0,127.0
3992,60.0,0,96,3.0,127.0
3993,67.0,96,96,0.0,127.0
3994,58.0,0,96,3.0,127.0
3995,53.0,0,96,3.0,127.0
3996,65.0,96,96,0.0,127.0
3997,60.0,96,96,3.0,127.0
3998,63.0,0,96,0.0,127.0
3999,58.0,96,96,3.0,127.0
4000,62.0,0,96,0.0,127.0
4001,60.0,0,96,0.0,127.0
4002,57.0,96,96,3.0,127.0
4003,58.0,0,192,3.0,127.0
4004,60.0,96,192,0.0,127.0
4005,58.0,0,192,0.0,127.0
4006,46.0,192,192,3.0,127.0
4007,67.0,192,96,0.0,127.0
4008,63.0,96,96,0.0,127.0
4009,62.0,96,96,0.0,127.0
4010,63.0,96,96,0.0,127.0
4011,67.0,96,96,0.0,127.0
4012,63.0,96,96,0.0,127.0
4013,68.0,96,96,0.0,127.0
4014,63.0,96,96,0.0,127.0
4015,70.0,0,48,0.0,127.0
4016,55.0,96,96,3.0,127.0
4017,51.0,96,96,3.0,127.0
4018,72.0,96,48,0.0,127.0
4019,50.0,0,96,3.0,127.0
4020,51.0,96,96,3.0,127.0
4021,55.0,96,96,3.0,127.0
4022,70.0,0,96,0.0,127.0
4023,51.0,96,96,3.0,127.0
4024,67.0,0,96,0.0,127.0
4025,56.0,0,96,3.0,127.0
4026,65.0,96,96,0.0,127.0
4027,51.0,96,96,3.0,127.0
4028,63.0,0,96,0.0,127.0
4029,58.0,96,48,3.0,127.0
4030,62.0,0,96,0.0,127.0
4031,63.0,96,96,0.0,127.0
4032,65.0,96,48,0.0,127.0
4033,60.0,0,48,3.0,127.0
4034,63.0,48,48,0.0,127.0
4035,62.0,48,48,0.0,127.0
4036,63.0,48,48,0.0,127.0
4037,58.0,48,96,3.0,127.0
4038,65.0,0,96,0.0,127.0
4039,67.0,96,96,0.0,127.0
4040,55.0,0,96,3.0,127.0
4041,68.0,0,48,0.0,127.0
4042,67.0,48,48,0.0,127.0
4043,53.0,96,96,3.0,127.0
4044,65.0,48,48,0.0,127.0
4045,67.0,48,48,0.0,127.0
4046,51.0,0,96,3.0,127.0
4047,50.0,0,48,3.0,127.0
4048,65.0,48,48,0.0,127.0
4049,68.0,0,48,0.0,127.0
4050,63.0,192,48,0.0,127.0
4051,67.0,0,48,0.0,127.0
4052,51.0,0,48,3.0,127.0
4053,46.0,0,96,3.0,127.0
4054,44.0,96,96,3.0,127.0
4055,43.0,96,96,3.0,127.0
4056,41.0,96,96,3.0,127.0
4057,65.0,192,384,0.0,127.0
4058,62.0,0,384,0.0,127.0
4059,67.0,0,96,0.0,127.0
4060,39.0,96,192,3.0,127.0
4061,63.0,96,96,0.0,127.0
4062,62.0,96,96,0.0,127.0
4063,63.0,96,96,0.0,127.0
4064,67.0,96,96,0.0,127.0
4065,63.0,96,96,0.0,127.0
4066,68.0,96,96,0.0,127.0
4067,63.0,96,96,0.0,127.0
4068,70.0,96,48,0.0,127.0
4069,55.0,0,96,3.0,127.0
4070,51.0,96,96,3.0,127.0
4071,72.0,0,48,0.0,127.0
4072,50.0,96,96,3.0,127.0
4073,51.0,96,96,3.0,127.0
4074,55.0,0,96,3.0,127.0
4075,70.0,96,96,0.0,127.0
4076,67.0,96,96,0.0,127.0
4077,51.0,0,96,3.0,127.0
4078,56.0,0,96,3.0,127.0
4079,65.0,96,96,0.0,127.0
4080,51.0,96,96,3.0,127.0
4081,63.0,0,96,0.0,127.0
4082,58.0,0,48,3.0,127.0
4083,62.0,96,96,0.0,127.0
4084,63.0,96,96,0.0,127.0
4085,65.0,0,48,0.0,127.0
4086,60.0,96,48,3.0,127.0
4087,63.0,48,48,0.0,127.0
4088,62.0,48,48,0.0,127.0
4089,63.0,48,48,0.0,127.0
4090,65.0,48,96,0.0,127.0
4091,58.0,0,96,3.0,127.0
4092,55.0,0,96,3.0,127.0
4093,67.0,96,96,0.0,127.0
4094,68.0,0,48,0.0,127.0
4095,53.0,96,96,3.0,127.0
4096,67.0,48,48,0.0,127.0
4097,65.0,0,48,0.0,127.0
4098,67.0,48,48,0.0,127.0
4099,51.0,48,96,3.0,127.0
4100,68.0,48,48,0.0,127.0
4101,50.0,0,48,3.0,127.0
4102,65.0,0,48,0.0,127.0
4103,51.0,0,48,3.0,127.0
4104,63.0,192,48,0.0,127.0
4105,67.0,0,48,0.0,127.0
4106,46.0,192,96,3.0,127.0
4107,44.0,96,96,3.0,127.0
4108,43.0,96,96,3.0,127.0
4109,62.0,0,384,0.0,127.0
4110,65.0,0,384,0.0,127.0
4111,41.0,96,96,3.0,127.0
4112,67.0,96,96,0.0,127.0
4113,39.0,0,192,3.0,127.0
4114,63.0,96,96,0.0,127.0
4115,62.0,96,96,0.0,127.0
4116,63.0,96,96,0.0,127.0
4117,43.0,0,192,3.0,127.0
4118,65.0,96,96,0.0,127.0
4119,63.0,96,96,0.0,127.0
4120,46.0,0,192,3.0,127.0
4121,62.0,0,96,0.0,127.0
4122,48.0,96,192,3.0,127.0
4123,63.0,96,96,0.0,127.0
4124,65.0,96,96,0.0,127.0
4125,62.0,96,96,0.0,127.0
4126,50.0,0,192,3.0,127.0
4127,71.0,96,96,0.0,127.0
4128,62.0,96,96,0.0,127.0
4129,43.0,0,192,3.0,127.0
4130,63.0,96,96,0.0,127.0
4131,48.0,0,192,3.0,127.0
4132,62.0,96,96,0.0,127.0
4133,60.0,0,96,0.0,127.0
4134,36.0,96,192,3.0,127.0
4135,62.0,96,96,0.0,127.0
4136,63.0,96,96,0.0,127.0
4137,60.0,96,96,0.0,127.0
4138,48.0,0,192,3.0,127.0
4139,65.0,96,96,0.0,127.0
4140,60.0,96,96,0.0,127.0
4141,50.0,0,192,3.0,127.0
4142,67.0,96,96,0.0,127.0
4143,51.0,0,192,3.0,127.0
4144,60.0,96,96,0.0,127.0
4145,69.0,96,96,0.0,127.0
4146,60.0,96,96,0.0,127.0
4147,53.0,0,192,3.0,127.0
4148,70.0,96,96,0.0,127.0
4149,55.0,0,192,3.0,127.0
4150,60.0,96,96,0.0,127.0
4151,72.0,0,96,0.0,127.0
4152,60.0,96,96,0.0,127.0
4153,51.0,96,192,3.0,127.0
4154,70.0,96,96,0.0,127.0
4155,53.0,0,192,3.0,127.0
4156,69.0,96,96,0.0,127.0
4157,67.0,96,96,0.0,127.0
4158,65.0,96,96,0.0,127.0
4159,51.0,0,192,3.0,127.0
4160,70.0,0,48,0.0,127.0
4161,50.0,96,96,3.0,127.0
4162,46.0,96,96,3.0,127.0
4163,77.0,96,48,0.0,127.0
4164,45.0,0,96,3.0,127.0
4165,46.0,96,96,3.0,127.0
4166,79.0,0,32,0.0,127.0
4167,77.0,32,32,0.0,127.0
4168,50.0,96,96,3.0,127.0
4169,79.0,32,32,0.0,127.0
4170,77.0,0,32,0.0,127.0
4171,75.0,32,32,0.0,127.0
4172,46.0,32,96,3.0,127.0
4173,77.0,32,32,0.0,127.0
4174,79.0,32,96,0.0,127.0
4175,51.0,0,96,3.0,127.0
4176,77.0,96,96,0.0,127.0
4177,46.0,0,96,3.0,127.0
4178,53.0,96,48,3.0,127.0
4179,75.0,0,96,0.0,127.0
4180,74.0,96,96,0.0,127.0
4181,55.0,96,48,3.0,127.0
4182,72.0,0,96,0.0,127.0
4183,70.0,96,96,0.0,127.0
4184,53.0,96,96,3.0,127.0
4185,69.0,0,96,0.0,127.0
4186,70.0,0,96,0.0,127.0
4187,50.0,96,96,3.0,127.0
4188,72.0,0,48,0.0,127.0
4189,70.0,48,48,0.0,127.0
4190,48.0,96,96,3.0,127.0
4191,69.0,0,48,0.0,127.0
4192,70.0,48,48,0.0,127.0
4193,46.0,48,96,3.0,127.0
4194,72.0,0,96,0.0,127.0
4195,45.0,48,96,3.0,127.0
4196,46.0,0,96,3.0,127.0
4197,74.0,96,96,0.0,127.0
4198,75.0,96,48,0.0,127.0
4199,48.0,0,48,3.0,127.0
4200,46.0,0,48,3.0,127.0
4201,74.0,48,48,0.0,127.0
4202,72.0,0,48,0.0,127.0
4203,45.0,48,48,3.0,127.0
4204,46.0,0,48,3.0,127.0
4205,74.0,48,48,0.0,127.0
4206,75.0,0,96,0.0,127.0
4207,48.0,48,96,3.0,127.0
4208,74.0,0,96,0.0,127.0
4209,50.0,96,96,3.0,127.0
4210,51.0,0,48,3.0,127.0
4211,50.0,48,48,3.0,127.0
4212,72.0,96,96,0.0,127.0
4213,48.0,48,48,3.0,127.0
4214,50.0,48,48,3.0,127.0
4215,75.0,0,96,0.0,127.0
4216,51.0,48,48,3.0,127.0
4217,74.0,0,96,0.0,127.0
4218,72.0,96,96,0.0,127.0
4219,53.0,0,48,3.0,127.0
4220,70.0,96,96,0.0,127.0
4221,69.0,96,96,0.0,127.0
4222,72.0,0,96,0.0,127.0
4223,55.0,96,192,3.0,127.0
4224,70.0,96,96,0.0,127.0
4225,69.0,0,96,0.0,127.0
4226,43.0,96,192,3.0,127.0
4227,70.0,96,96,0.0,127.0
4228,75.0,0,96,0.0,127.0
4229,70.0,96,96,0.0,127.0
4230,55.0,96,192,3.0,127.0
4231,74.0,96,96,0.0,127.0
4232,70.0,96,96,0.0,127.0
4233,53.0,0,192,3.0,127.0
4234,79.0,96,96,0.0,127.0
4235,70.0,96,96,0.0,127.0
4236,51.0,0,192,3.0,127.0
4237,69.0,0,96,0.0,127.0
4238,39.0,96,192,3.0,127.0
4239,70.0,96,96,0.0,127.0
4240,79.0,96,96,0.0,127.0
4241,70.0,96,96,0.0,127.0
4242,51.0,0,192,3.0,127.0
4243,77.0,96,96,0.0,127.0
4244,50.0,0,192,3.0,127.0
4245,70.0,96,96,0.0,127.0
4246,75.0,0,96,0.0,127.0
4247,55.0,96,192,3.0,127.0
4248,70.0,96,96,0.0,127.0
4249,69.0,96,96,0.0,127.0
4250,70.0,96,96,0.0,127.0
4251,43.0,0,192,3.0,127.0
4252,75.0,96,96,0.0,127.0
4253,70.0,96,96,0.0,127.0
4254,55.0,0,192,3.0,127.0
4255,74.0,96,96,0.0,127.0
4256,53.0,0,192,3.0,127.0
4257,70.0,96,96,0.0,127.0
4258,72.0,96,96,0.0,127.0
4259,70.0,96,96,0.0,127.0
4260,52.0,0,192,3.0,127.0
4261,69.0,96,96,0.0,127.0
4262,55.0,0,192,3.0,127.0
4263,70.0,96,96,0.0,127.0
4264,76.0,0,96,0.0,127.0
4265,48.0,96,192,3.0,127.0
4266,70.0,96,96,0.0,127.0
4267,79.0,96,96,0.0,127.0
4268,70.0,96,96,0.0,127.0
4269,52.0,0,192,3.0,127.0
4270,69.0,0,96,0.0,127.0
4271,70.0,96,96,0.0,127.0
4272,53.0,96,288,3.0,127.0
4273,51.0,96,96,3.0,127.0
4274,50.0,96,96,3.0,127.0
4275,72.0,96,288,0.0,127.0
4276,62.0,96,96,3.0,127.0
4277,70.0,0,96,0.0,127.0
4278,69.0,96,96,0.0,127.0
4279,60.0,0,96,3.0,127.0
4280,62.0,0,96,3.0,127.0
4281,70.0,96,96,0.0,127.0
4282,51.0,96,96,3.0,127.0
4283,79.0,0,96,0.0,127.0
4284,62.0,96,96,3.0,127.0
4285,70.0,0,96,0.0,127.0
4286,69.0,0,96,0.0,127.0
4287,60.0,96,96,3.0,127.0
4288,70.0,0,96,0.0,127.0
4289,62.0,96,96,3.0,127.0
4290,53.0,96,96,3.0,127.0
4291,81.0,0,96,0.0,127.0
4292,70.0,0,96,0.0,127.0
4293,62.0,96,96,3.0,127.0
4294,69.0,0,96,0.0,127.0
4295,60.0,96,96,3.0,127.0
4296,70.0,0,0,0.0,127.0
4297,62.0,0,96,3.0,127.0
4298,55.0,96,96,3.0,127.0
4299,82.0,0,96,0.0,127.0
4300,62.0,96,96,3.0,127.0
4301,60.0,0,96,3.0,127.0
4302,81.0,96,96,0.0,127.0
4303,62.0,0,96,3.0,127.0
4304,79.0,96,96,0.0,127.0
4305,50.0,96,96,3.0,127.0
4306,62.0,96,96,3.0,127.0
4307,77.0,0,192,0.0,127.0
4308,60.0,0,96,3.0,127.0
4309,75.0,96,96,0.0,127.0
4310,62.0,96,96,3.0,127.0
4311,74.0,0,96,0.0,127.0
4312,72.0,0,96,0.0,127.0
4313,51.0,96,96,3.0,127.0
4314,70.0,0,96,0.0,127.0
4315,62.0,96,96,3.0,127.0
4316,60.0,0,96,3.0,127.0
4317,69.0,96,96,0.0,127.0
4318,58.0,96,96,3.0,127.0
4319,67.0,0,96,0.0,127.0
4320,65.0,0,96,0.0,127.0
4321,53.0,96,96,3.0,127.0
4322,60.0,0,96,3.0,127.0
4323,63.0,96,96,0.0,127.0
4324,62.0,96,96,0.0,127.0
4325,58.0,0,96,3.0,127.0
4326,57.0,96,96,3.0,127.0
4327,60.0,0,96,0.0,127.0
4328,60.0,0,192,0.0,127.0
4329,58.0,96,192,3.0,127.0
4330,58.0,0,192,0.0,127.0
4331,46.0,192,192,3.0,127.0
4332,74.0,192,96,0.0,127.0
4333,58.0,0,192,3.0,127.0
4334,70.0,96,96,0.0,127.0
4335,69.0,0,96,0.0,127.0
4336,53.0,96,192,3.0,127.0
4337,70.0,96,96,0.0,127.0
4338,74.0,0,96,0.0,127.0
4339,70.0,96,96,0.0,127.0
4340,46.0,96,192,3.0,127.0
4341,75.0,0,96,0.0,127.0
4342,70.0,96,96,0.0,127.0
4343,48.0,96,192,3.0,127.0
4344,77.0,96,48,0.0,127.0
4345,50.0,0,96,3.0,127.0
4346,58.0,96,96,3.0,127.0
4347,65.0,96,48,0.0,127.0
4348,68.0,0,48,0.0,127.0
4349,60.0,0,96,3.0,127.0
4350,58.0,96,96,3.0,127.0
4351,70.0,0,32,0.0,127.0
4352,68.0,32,32,0.0,127.0
4353,70.0,32,32,0.0,127.0
4354,51.0,0,96,3.0,127.0
4355,65.0,96,192,1.0,127.0
4356,68.0,32,96,0.0,127.0
4357,58.0,0,96,3.0,127.0
4358,60.0,0,96,3.0,127.0
4359,58.0,96,96,3.0,127.0
4360,63.0,96,192,1.0,127.0
4361,67.0,0,192,0.0,127.0
4362,79.0,0,48,0.0,127.0
4363,52.0,96,96,3.0,127.0
4364,60.0,96,96,3.0,127.0
4365,67.0,0,48,0.0,127.0
4366,70.0,0,48,0.0,127.0
4367,61.0,96,96,3.0,127.0
4368,60.0,96,96,3.0,127.0
4369,72.0,0,32,0.0,127.0
4370,70.0,32,32,0.0,127.0
4371,53.0,96,96,3.0,127.0
4372,72.0,32,32,0.0,127.0
4373,60.0,32,96,3.0,127.0
4374,67.0,0,192,1.0,127.0
4375,70.0,0,96,0.0,127.0
4376,61.0,0,96,3.0,127.0
4377,68.0,0,192,0.0,127.0
4378,60.0,96,96,3.0,127.0
4379,65.0,96,192,1.0,127.0
4380,81.0,0,48,0.0,127.0
4381,54.0,96,96,3.0,127.0
4382,62.0,96,96,3.0,127.0
4383,72.0,0,48,0.0,127.0
4384,69.0,0,48,0.0,127.0
4385,63.0,96,96,3.0,127.0
4386,62.0,96,96,3.0,127.0
4387,74.0,0,32,0.0,127.0
4388,72.0,32,32,0.0,127.0
4389,55.0,96,96,3.0,127.0
4390,74.0,32,32,0.0,127.0
4391,62.0,0,96,3.0,127.0
4392,69.0,0,192,1.0,127.0
4393,72.0,32,96,0.0,127.0
4394,63.0,96,96,3.0,127.0
4395,67.0,0,192,1.0,127.0
4396,62.0,96,96,3.0,127.0
4397,71.0,0,192,0.0,127.0
4398,75.0,96,96,0.0,127.0
4399,74.0,96,96,0.0,127.0
4400,60.0,0,192,3.0,127.0
4401,72.0,96,96,0.0,127.0
4402,58.0,0,192,3.0,127.0
4403,74.0,96,96,0.0,127.0
4404,75.0,0,96,0.0,127.0
4405,56.0,96,192,3.0,127.0
4406,72.0,96,96,0.0,127.0
4407,76.0,0,96,0.0,127.0
4408,72.0,96,96,0.0,127.0
4409,58.0,96,192,3.0,127.0
4410,77.0,0,96,0.0,127.0
4411,56.0,96,192,3.0,127.0
4412,72.0,96,96,0.0,127.0
4413,79.0,0,96,0.0,127.0
4414,55.0,96,192,3.0,127.0
4415,72.0,96,96,0.0,127.0
4416,80.0,96,96,0.0,127.0
4417,77.0,96,96,0.0,127.0
4418,53.0,0,192,3.0,127.0
4419,81.0,96,96,0.0,127.0
4420,51.0,0,192,3.0,127.0
4421,77.0,96,96,0.0,127.0
4422,82.0,96,96,0.0,127.0
4423,77.0,96,96,0.0,127.0
4424,50.0,0,192,3.0,127.0
4425,83.0,0,96,0.0,127.0
4426,77.0,96,96,0.0,127.0
4427,62.0,96,192,3.0,127.0
4428,84.0,96,96,0.0,127.0
4429,82.0,96,48,0.0,127.0
4430,80.0,48,48,0.0,127.0
4431,63.0,0,192,3.0,127.0
4432,79.0,48,48,0.0,127.0
4433,51.0,0,96,3.0,127.0
4434,77.0,48,48,0.0,127.0
4435,75.0,48,48,0.0,127.0
4436,53.0,0,96,3.0,127.0
4437,74.0,48,48,0.0,127.0
4438,75.0,48,96,0.0,127.0
4439,84.0,96,96,0.0,127.0
4440,55.0,0,192,3.0,127.0
4441,74.0,0,96,0.0,127.0
4442,83.0,96,96,0.0,127.0
4443,43.0,96,192,3.0,127.0
4444,48.0,0,96,3.0,127.0
4445,50.0,96,48,3.0,127.0
4446,51.0,48,48,3.0,127.0
4447,53.0,48,48,3.0,127.0
4448,55.0,48,48,3.0,127.0
4449,57.0,48,48,3.0,127.0
4450,72.0,96,384,0.0,127.0
4451,59.0,48,48,3.0,127.0
4452,67.0,0,96,0.0,127.0
4453,60.0,48,192,3.0,127.0
4454,63.0,96,96,0.0,127.0
4455,62.0,0,96,0.0,127.0
4456,48.0,96,192,3.0,127.0
4457,63.0,96,96,0.0,127.0
4458,67.0,0,96,0.0,127.0
4459,46.0,96,192,3.0,127.0
4460,63.0,96,96,0.0,127.0
4461,68.0,96,96,0.0,127.0
4462,44.0,0,192,3.0,127.0
4463,63.0,96,96,0.0,127.0
4464,70.0,96,48,0.0,127.0
4465,43.0,0,96,3.0,127.0
4466,51.0,96,96,3.0,127.0
4467,70.0,0,48,0.0,127.0
4468,73.0,96,48,0.0,127.0
4469,53.0,0,96,3.0,127.0
4470,51.0,96,96,3.0,127.0
4471,44.0,96,96,3.0,127.0
4472,70.0,0,192,0.0,127.0
4473,48.0,96,96,3.0,127.0
4474,73.0,0,192,0.0,127.0
4475,50.0,0,96,3.0,127.0
4476,68.0,0,96,0.0,127.0
4477,72.0,96,96,0.0,127.0
4478,70.0,96,96,0.0,127.0
4479,51.0,0,96,3.0,127.0
4480,69.0,0,96,0.0,127.0
4481,65.0,96,96,0.0,127.0
4482,53.0,96,192,3.0,127.0
4483,64.0,96,96,0.0,127.0
4484,65.0,96,96,0.0,127.0
4485,48.0,0,192,3.0,127.0
4486,69.0,96,96,0.0,127.0
4487,65.0,96,96,0.0,127.0
4488,41.0,0,192,3.0,127.0
4489,70.0,96,96,0.0,127.0
4490,65.0,96,96,0.0,127.0
4491,43.0,0,192,3.0,127.0
4492,72.0,0,48,0.0,127.0
4493,45.0,96,96,3.0,127.0
4494,53.0,96,96,3.0,127.0
4495,75.0,0,48,0.0,127.0
4496,72.0,96,48,0.0,127.0
4497,55.0,0,96,3.0,127.0
4498,53.0,96,96,3.0,127.0
4499,46.0,0,96,3.0,127.0
4500,75.0,96,192,0.0,127.0
4501,72.0,0,192,0.0,127.0
4502,53.0,96,96,3.0,127.0
4503,55.0,96,96,3.0,127.0
4504,74.0,0,192,0.0,127.0
4505,56.0,96,96,3.0,127.0
4506,70.0,0,192,0.0,127.0
4507,70.0,48,48,0.0,127.0
4508,55.0,96,96,3.0,127.0
4509,72.0,0,48,0.0,127.0
4510,51.0,48,96,3.0,127.0
4511,74.0,48,48,0.0,127.0
4512,75.0,48,48,0.0,127.0
4513,74.0,48,48,0.0,127.0
4514,50.0,0,96,3.0,127.0
4515,72.0,48,48,0.0,127.0
4516,74.0,48,48,0.0,127.0
4517,51.0,0,96,3.0,127.0
4518,75.0,0,48,0.0,127.0
4519,55.0,48,96,3.0,127.0
4520,74.0,48,48,0.0,127.0
4521,75.0,0,48,0.0,127.0
4522,51.0,48,96,3.0,127.0
4523,77.0,48,48,0.0,127.0
4524,79.0,0,48,0.0,127.0
4525,77.0,48,48,0.0,127.0
4526,56.0,48,96,3.0,127.0
4527,75.0,0,48,0.0,127.0
4528,77.0,48,48,0.0,127.0
4529,51.0,48,96,3.0,127.0
4530,58.0,0,96,3.0,127.0
4531,51.0,96,96,3.0,127.0
4532,70.0,0,48,1.0,127.0
4533,61.0,96,96,3.0,127.0
4534,51.0,96,96,3.0,127.0
4535,60.0,96,96,3.0,127.0
4536,51.0,96,96,3.0,127.0
4537,79.0,96,0,0.0,127.0
4538,58.0,0,96,3.0,127.0
4539,51.0,96,96,3.0,127.0
4540,56.0,96,96,3.0,127.0
4541,51.0,96,96,3.0,127.0
4542,68.0,96,0,1.0,127.0
4543,60.0,0,96,3.0,127.0
4544,51.0,96,96,3.0,127.0
4545,58.0,0,96,3.0,127.0
4546,51.0,96,96,3.0,127.0
4547,77.0,96,0,0.0,127.0
4548,56.0,0,96,3.0,127.0
4549,51.0,96,96,3.0,127.0
4550,55.0,0,96,3.0,127.0
4551,51.0,96,96,3.0,127.0
4552,67.0,96,576,1.0,127.0
4553,67.0,0,48,1.0,127.0
4554,58.0,96,96,3.0,127.0
4555,51.0,96,96,3.0,127.0
4556,56.0,96,96,3.0,127.0
4557,51.0,96,96,3.0,127.0
4558,75.0,96,576,0.0,127.0
4559,75.0,96,48,0.0,127.0
4560,55.0,0,96,3.0,127.0
4561,51.0,96,96,3.0,127.0
4562,53.0,96,96,3.0,127.0
4563,65.0,0,576,1.0,127.0
4564,51.0,96,96,3.0,127.0
4565,65.0,96,48,1.0,127.0
4566,56.0,0,96,3.0,127.0
4567,51.0,96,96,3.0,127.0
4568,55.0,0,96,3.0,127.0
4569,51.0,96,96,3.0,127.0
4570,74.0,0,576,0.0,127.0
4571,73.0,96,48,0.0,127.0
4572,53.0,0,96,3.0,127.0
4573,55.0,96,96,3.0,127.0
4574,56.0,96,96,3.0,127.0
4575,55.0,96,96,3.0,127.0
4576,63.0,96,576,1.0,127.0
4577,68.0,0,48,1.0,127.0
4578,53.0,96,96,3.0,127.0
4579,51.0,96,96,3.0,127.0
4580,50.0,0,96,3.0,127.0
4581,46.0,96,96,3.0,127.0
4582,72.0,0,576,0.0,127.0
4583,48.0,96,96,3.0,127.0
4584,70.0,0,96,0.0,127.0
4585,50.0,96,96,3.0,127.0
4586,68.0,0,96,0.0,127.0
4587,51.0,96,96,3.0,127.0
4588,65.0,96,480,1.0,127.0
4589,50.0,96,96,3.0,127.0
4590,65.0,0,96,1.0,127.0
4591,63.0,96,96,1.0,127.0
4592,48.0,0,96,3.0,127.0
4593,46.0,0,96,3.0,127.0
4594,62.0,96,96,1.0,127.0
4595,67.0,0,480,0.0,127.0
4596,44.0,96,192,3.0,127.0
4597,65.0,96,96,0.0,127.0
4598,67.0,0,96,0.0,127.0
4599,68.0,96,96,0.0,127.0
4600,60.0,0,384,1.0,127.0
4601,41.0,96,192,3.0,127.0
4602,68.0,96,96,0.0,127.0
4603,46.0,96,192,3.0,127.0
4604,67.0,0,96,0.0,127.0
4605,62.0,0,384,1.0,127.0
4606,65.0,96,96,0.0,127.0
4607,43.0,96,192,3.0,127.0
4608,68.0,96,96,0.0,127.0
4609,48.0,0,192,3.0,127.0
4610,70.0,96,96,0.0,127.0
4611,63.0,96,384,1.0,127.0
4612,72.0,96,96,0.0,127.0
4613,44.0,0,192,3.0,127.0
4614,72.0,96,96,0.0,127.0
4615,50.0,0,192,3.0,127.0
4616,70.0,96,96,0.0,127.0
4617,46.0,0,192,3.0,127.0
4618,68.0,96,96,0.0,127.0
4619,65.0,96,384,1.0,127.0
4620,72.0,96,96,0.0,127.0
4621,51.0,96,192,3.0,127.0
4622,74.0,0,96,0.0,127.0
4623,75.0,96,96,0.0,127.0
4624,48.0,96,192,3.0,127.0
4625,67.0,0,384,1.0,127.0
4626,53.0,96,192,3.0,127.0
4627,75.0,96,96,0.0,127.0
4628,74.0,0,96,0.0,127.0
4629,72.0,96,96,0.0,127.0
4630,68.0,0,384,1.0,127.0
4631,50.0,96,192,3.0,127.0
4632,55.0,0,192,3.0,127.0
4633,68.0,96,96,1.0,127.0
4634,67.0,96,96,1.0,127.0
4635,70.0,96,384,0.0,127.0
4636,65.0,96,96,1.0,127.0
4637,56.0,0,192,3.0,127.0
4638,64.0,96,96,0.0,127.0
4639,65.0,96,96,0.0,127.0
4640,55.0,0,192,3.0,127.0
4641,67.0,0,96,0.0,127.0
4642,53.0,96,192,3.0,127.0
4643,68.0,96,96,0.0,127.0
4644,70.0,0,96,0.0,127.0
4645,52.0,96,192,3.0,127.0
4646,68.0,96,96,0.0,127.0
4647,67.0,0,96,0.0,127.0
4648,53.0,96,192,3.0,127.0
4649,68.0,96,96,0.0,127.0
4650,70.0,0,96,0.0,127.0
4651,55.0,96,192,3.0,127.0
4652,67.0,96,96,0.0,127.0
4653,76.0,96,96,0.0,127.0
4654,48.0,0,192,3.0,127.0
4655,67.0,96,96,0.0,127.0
4656,68.0,96,96,0.0,127.0
4657,67.0,96,96,0.0,127.0
4658,53.0,0,192,3.0,127.0
4659,65.0,0,96,0.0,127.0
4660,67.0,96,96,0.0,127.0
4661,41.0,96,192,3.0,127.0
4662,68.0,0,96,0.0,127.0
4663,65.0,96,96,0.0,127.0
4664,53.0,96,192,3.0,127.0
4665,70.0,0,96,0.0,127.0
4666,65.0,96,96,0.0,127.0
4667,55.0,96,192,3.0,127.0
4668,72.0,96,96,0.0,127.0
4669,56.0,0,192,3.0,127.0
4670,65.0,96,96,0.0,127.0
4671,74.0,0,96,0.0,127.0
4672,58.0,96,192,3.0,127.0
4673,65.0,96,96,0.0,127.0
4674,75.0,0,96,0.0,127.0
4675,65.0,96,96,0.0,127.0
4676,60.0,96,192,3.0,127.0
4677,77.0,0,96,0.0,127.0
4678,65.0,96,96,0.0,127.0
4679,56.0,96,192,3.0,127.0
4680,75.0,96,96,0.0,127.0
4681,74.0,96,96,0.0,127.0
4682,58.0,0,192,3.0,127.0
4683,72.0,0,96,0.0,127.0
4684,56.0,96,192,3.0,127.0
4685,70.0,96,96,0.0,127.0
4686,75.0,0,48,0.0,127.0
4687,55.0,96,96,3.0,127.0
4688,51.0,96,96,3.0,127.0
4689,82.0,0,48,0.0,127.0
4690,50.0,96,96,3.0,127.0
4691,51.0,96,96,3.0,127.0
4692,84.0,96,32,0.0,127.0
4693,82.0,32,32,0.0,127.0
4694,55.0,0,96,3.0,127.0
4695,84.0,32,32,0.0,127.0
4696,82.0,32,32,0.0,127.0
4697,80.0,32,32,0.0,127.0
4698,51.0,0,96,3.0,127.0
4699,82.0,32,32,0.0,127.0
4700,56.0,0,96,3.0,127.0
4701,84.0,32,96,0.0,127.0
4702,51.0,0,96,3.0,127.0
4703,82.0,96,96,0.0,127.0
4704,58.0,96,48,3.0,127.0
4705,80.0,0,96,0.0,127.0
4706,79.0,96,96,0.0,127.0
4707,60.0,96,48,3.0,127.0
4708,77.0,0,96,0.0,127.0
4709,75.0,96,96,0.0,127.0
4710,58.0,96,96,3.0,127.0
4711,74.0,0,96,0.0,127.0
4712,75.0,0,96,0.0,127.0
4713,55.0,96,96,3.0,127.0
4714,77.0,96,48,0.0,127.0
4715,53.0,0,96,3.0,127.0
4716,75.0,48,48,0.0,127.0
4717,74.0,48,48,0.0,127.0
4718,51.0,0,96,3.0,127.0
4719,75.0,48,48,0.0,127.0
4720,50.0,0,96,3.0,127.0
4721,77.0,48,96,0.0,127.0
4722,51.0,96,96,3.0,127.0
4723,79.0,0,96,0.0,127.0
4724,80.0,0,48,0.0,127.0
4725,53.0,96,48,3.0,127.0
4726,51.0,0,48,3.0,127.0
4727,79.0,48,48,0.0,127.0
4728,50.0,48,48,3.0,127.0
4729,77.0,0,48,0.0,127.0
4730,79.0,0,48,0.0,127.0
4731,51.0,48,48,3.0,127.0
4732,53.0,0,96,3.0,127.0
4733,80.0,48,96,0.0,127.0
4734,55.0,96,96,3.0,127.0
4735,79.0,0,96,0.0,127.0
4736,56.0,96,48,3.0,127.0
4737,55.0,48,48,3.0,127.0
4738,77.0,0,96,0.0,127.0
4739,53.0,0,48,3.0,127.0
4740,55.0,48,48,3.0,127.0
4741,80.0,48,96,0.0,127.0
4742,79.0,48,96,0.0,127.0
4743,77.0,96,96,0.0,127.0
4744,56.0,0,192,3.0,127.0
4745,75.0,0,96,0.0,127.0
4746,58.0,96,192,3.0,127.0
4747,74.0,96,96,0.0,127.0
4748,77.0,0,96,0.0,127.0
4749,75.0,96,96,0.0,127.0
4750,60.0,96,192,3.0,127.0
4751,74.0,96,96,0.0,127.0
4752,75.0,96,96,0.0,127.0
4753,48.0,0,192,3.0,127.0
4754,68.0,0,96,0.0,127.0
4755,75.0,96,96,0.0,127.0
4756,60.0,96,192,3.0,127.0
4757,67.0,0,96,0.0,127.0
4758,75.0,96,96,0.0,127.0
4759,58.0,96,192,3.0,127.0
4760,72.0,0,96,0.0,127.0
4761,56.0,96,192,3.0,127.0
4762,75.0,96,96,0.0,127.0
4763,74.0,0,96,0.0,127.0
4764,44.0,96,192,3.0,127.0
4765,75.0,96,96,0.0,127.0
4766,72.0,0,96,0.0,127.0
4767,56.0,96,192,3.0,127.0
4768,75.0,96,96,0.0,127.0
4769,70.0,0,96,0.0,127.0
4770,75.0,96,96,0.0,127.0
4771,55.0,96,192,3.0,127.0
4772,68.0,96,96,0.0,127.0
4773,75.0,96,96,0.0,127.0
4774,60.0,0,192,3.0,127.0
4775,74.0,0,96,0.0,127.0
4776,48.0,96,192,3.0,127.0
4777,75.0,96,96,0.0,127.0
4778,68.0,0,96,0.0,127.0
4779,75.0,96,96,0.0,127.0
4780,60.0,96,192,3.0,127.0
4781,67.0,0,96,0.0,127.0
4782,75.0,96,96,0.0,127.0
4783,58.0,96,192,3.0,127.0
4784,65.0,96,96,0.0,127.0
4785,57.0,0,192,3.0,127.0
4786,75.0,96,96,0.0,127.0
4787,69.0,0,96,0.0,127.0
4788,60.0,96,192,3.0,127.0
4789,75.0,96,96,0.0,127.0
4790,72.0,96,96,0.0,127.0
4791,75.0,96,96,0.0,127.0
4792,53.0,0,192,3.0,127.0
4793,65.0,96,96,0.0,127.0
4794,75.0,96,0,0.0,127.0
4795,57.0,0,192,3.0,127.0
4796,74.0,96,96,0.0,127.0
4797,58.0,0,192,3.0,127.0
4798,72.0,0,96,0.0,127.0
4799,70.0,96,96,0.0,127.0
4800,56.0,96,192,3.0,127.0
4801,82.0,96,96,0.0,127.0
4802,55.0,0,96,3.0,127.0
4803,63.0,96,96,3.0,127.0
4804,80.0,0,96,0.0,127.0
4805,62.0,96,96,3.0,127.0
4806,82.0,0,96,0.0,127.0
4807,63.0,96,96,3.0,127.0
4808,73.0,0,96,0.0,127.0
4809,56.0,0,96,3.0,127.0
4810,72.0,96,192,0.0,127.0
4811,63.0,96,96,3.0,127.0
4812,62.0,0,96,3.0,127.0
4813,80.0,96,192,0.0,127.0
4814,63.0,96,96,3.0,127.0
4815,58.0,0,96,3.0,127.0
4816,79.0,96,192,0.0,127.0
4817,63.0,96,96,3.0,127.0
4818,62.0,0,96,3.0,127.0
4819,63.0,96,96,3.0,127.0
4820,70.0,96,192,0.0,127.0
4821,60.0,96,96,3.0,127.0
4822,68.0,0,192,0.0,127.0
4823,63.0,96,96,3.0,127.0
4824,62.0,96,96,3.0,127.0
4825,63.0,96,96,3.0,127.0
4826,77.0,0,192,0.0,127.0
4827,55.0,96,96,3.0,127.0
4828,75.0,0,192,0.0,127.0
4829,63.0,96,96,3.0,127.0
4830,62.0,96,96,3.0,127.0
4831,63.0,96,96,3.0,127.0
4832,67.0,0,192,0.0,127.0
4833,56.0,96,96,3.0,127.0
4834,65.0,0,192,0.0,127.0
4835,63.0,96,96,3.0,127.0
4836,62.0,0,96,3.0,127.0
4837,68.0,96,192,0.0,127.0
4838,63.0,96,96,3.0,127.0
4839,58.0,96,96,3.0,127.0
4840,74.0,0,192,0.0,127.0
4841,63.0,96,96,3.0,127.0
4842,65.0,96,96,0.0,127.0
4843,62.0,0,96,3.0,127.0
4844,63.0,0,96,3.0,127.0
4845,67.0,96,96,0.0,127.0
4846,68.0,0,96,0.0,127.0
4847,67.0,96,96,0.0,127.0
4848,51.0,96,192,3.0,127.0
4849,65.0,96,96,0.0,127.0
4850,63.0,96,96,0.0,127.0
4851,70.0,96,96,0.0,127.0
4852,43.0,0,96,3.0,127.0
4853,63.0,96,96,0.0,127.0
4854,55.0,0,96,3.0,127.0
4855,53.0,96,96,3.0,127.0
4856,62.0,0,96,0.0,127.0
4857,55.0,96,96,3.0,127.0
4858,63.0,0,96,0.0,127.0
4859,44.0,96,96,3.0,127.0
4860,72.0,0,96,0.0,127.0
4861,55.0,96,96,3.0,127.0
4862,63.0,0,96,0.0,127.0
4863,62.0,0,96,0.0,127.0
4864,53.0,96,96,3.0,127.0
4865,55.0,96,96,3.0,127.0
4866,63.0,0,96,0.0,127.0
4867,46.0,96,96,3.0,127.0
4868,74.0,0,96,0.0,127.0
4869,63.0,96,96,0.0,127.0
4870,55.0,0,96,3.0,127.0
4871,53.0,0,96,3.0,127.0
4872,62.0,96,96,0.0,127.0
4873,55.0,96,96,3.0,127.0
4874,63.0,0,96,0.0,127.0
4875,48.0,96,96,3.0,127.0
4876,55.0,96,96,3.0,127.0
4877,75.0,0,192,0.0,127.0
4878,53.0,0,96,3.0,127.0
4879,55.0,96,96,3.0,127.0
4880,69.0,96,288,0.0,127.0
4881,43.0,96,96,3.0,127.0
4882,55.0,96,96,3.0,127.0
4883,70.0,0,96,0.0,127.0
4884,53.0,0,96,3.0,127.0
4885,55.0,96,96,3.0,127.0
4886,44.0,96,96,3.0,127.0
4887,63.0,96,336,0.0,127.0
4888,65.0,48,48,0.0,127.0
4889,55.0,96,96,3.0,127.0
4890,63.0,48,48,0.0,127.0
4891,53.0,0,96,3.0,127.0
4892,62.0,48,48,0.0,127.0
4893,63.0,0,48,0.0,127.0
4894,65.0,48,48,0.0,127.0
4895,51.0,48,96,3.0,127.0
4896,63.0,0,32,0.0,127.0
4897,65.0,32,32,0.0,127.0
4898,67.0,32,32,0.0,127.0
4899,46.0,48,96,3.0,127.0
4900,65.0,32,24,0.0,127.0
4901,67.0,24,24,0.0,127.0
4902,65.0,24,24,0.0,127.0
4903,50.0,0,96,3.0,127.0
4904,67.0,24,24,0.0,127.0
4905,53.0,24,96,3.0,127.0
4906,65.0,0,144,0.0,127.0
4907,63.0,48,32,0.0,127.0
4908,56.0,96,96,3.0,127.0
4909,55.0,0,192,3.0,127.0
4910,51.0,0,192,3.0,127.0
4911,63.0,48,384,0.0,127.0
4912,39.0,192,192,3.0,127.0
4913,74.0,192,96,0.0,127.0
4914,58.0,0,192,3.0,127.0
4915,70.0,96,96,0.0,127.0
4916,69.0,0,96,0.0,127.0
4917,53.0,96,192,3.0,127.0
4918,70.0,96,96,0.0,127.0
4919,74.0,0,96,0.0,127.0
4920,46.0,96,192,3.0,127.0
4921,70.0,96,96,0.0,127.0
4922,75.0,0,96,0.0,127.0
4923,70.0,96,96,0.0,127.0
4924,48.0,96,192,3.0,127.0
4925,77.0,0,48,0.0,127.0
4926,50.0,96,96,3.0,127.0
4927,58.0,96,96,3.0,127.0
4928,65.0,0,48,0.0,127.0
4929,68.0,96,48,0.0,127.0
4930,60.0,0,96,3.0,127.0
4931,58.0,96,96,3.0,127.0
4932,70.0,0,32,0.0,127.0
4933,68.0,32,32,0.0,127.0
4934,51.0,0,96,3.0,127.0
4935,70.0,32,32,0.0,127.0
4936,58.0,32,96,3.0,127.0
4937,68.0,0,96,0.0,127.0
4938,65.0,96,192,1.0,127.0
4939,60.0,96,96,3.0,127.0
4940,58.0,96,96,3.0,127.0
4941,63.0,0,192,1.0,127.0
4942,67.0,0,192,0.0,127.0
4943,79.0,0,48,0.0,127.0
4944,52.0,96,96,3.0,127.0
4945,60.0,96,96,3.0,127.0
4946,67.0,0,48,0.0,127.0
4947,70.0,0,48,0.0,127.0
4948,61.0,96,96,3.0,127.0
4949,60.0,96,96,3.0,127.0
4950,72.0,0,32,0.0,127.0
4951,70.0,32,32,0.0,127.0
4952,72.0,32,32,0.0,127.0
4953,53.0,96,96,3.0,127.0
4954,60.0,0,96,3.0,127.0
4955,67.0,0,192,1.0,127.0
4956,70.0,32,96,0.0,127.0
4957,61.0,96,96,3.0,127.0
4958,68.0,0,192,0.0,127.0
4959,65.0,0,192,1.0,127.0
4960,60.0,96,96,3.0,127.0
4961,81.0,0,48,0.0,127.0
4962,54.0,96,96,3.0,127.0
4963,62.0,96,96,3.0,127.0
4964,69.0,0,48,0.0,127.0
4965,72.0,0,48,0.0,127.0
4966,63.0,96,96,3.0,127.0
4967,62.0,96,96,3.0,127.0
4968,74.0,96,32,0.0,127.0
4969,72.0,32,32,0.0,127.0
4970,55.0,0,96,3.0,127.0
4971,74.0,32,32,0.0,127.0
4972,62.0,0,96,3.0,127.0
4973,69.0,0,192,1.0,127.0
4974,72.0,32,96,0.0,127.0
4975,63.0,96,96,3.0,127.0
4976,71.0,0,192,0.0,127.0
4977,62.0,96,96,3.0,127.0
4978,67.0,0,192,1.0,127.0
4979,75.0,96,96,0.0,127.0
4980,60.0,0,192,3.0,127.0
4981,74.0,96,96,0.0,127.0
4982,72.0,0,96,0.0,127.0
4983,58.0,96,192,3.0,127.0
4984,74.0,96,96,0.0,127.0
4985,75.0,0,96,0.0,127.0
4986,56.0,96,192,3.0,127.0
4987,72.0,96,96,0.0,127.0
4988,76.0,96,96,0.0,127.0
4989,72.0,96,96,0.0,127.0
4990,58.0,0,192,3.0,127.0
4991,77.0,96,96,0.0,127.0
4992,56.0,0,192,3.0,127.0
4993,72.0,96,96,0.0,127.0
4994,79.0,0,96,0.0,127.0
4995,55.0,96,192,3.0,127.0
4996,72.0,96,96,0.0,127.0
4997,80.0,96,96,0.0,127.0
4998,77.0,96,96,0.0,127.0
4999,53.0,0,192,3.0,127.0
5000,81.0,96,96,0.0,127.0
5001,51.0,0,192,3.0,127.0
5002,77.0,96,96,0.0,127.0
5003,82.0,96,96,0.0,127.0
5004,50.0,0,192,3.0,127.0
5005,77.0,96,96,0.0,127.0
5006,83.0,96,96,0.0,127.0
5007,77.0,96,96,0.0,127.0
5008,62.0,0,192,3.0,127.0
5009,84.0,96,96,0.0,127.0
5010,82.0,96,48,0.0,127.0
5011,80.0,48,48,0.0,127.0
5012,63.0,0,192,3.0,127.0
5013,79.0,48,48,0.0,127.0
5014,77.0,48,48,0.0,127.0
5015,51.0,0,96,3.0,127.0
5016,75.0,48,48,0.0,127.0
5017,74.0,48,48,0.0,127.0
5018,53.0,0,96,3.0,127.0
5019,75.0,0,96,0.0,127.0
5020,55.0,48,192,3.0,127.0
5021,84.0,96,96,0.0,127.0
5022,74.0,0,96,0.0,127.0
5023,43.0,96,192,3.0,127.0
5024,83.0,96,96,0.0,127.0
5025,48.0,96,96,3.0,127.0
5026,50.0,96,48,3.0,127.0
5027,51.0,48,48,3.0,127.0
5028,53.0,48,48,3.0,127.0
5029,55.0,48,48,3.0,127.0
5030,57.0,48,48,3.0,127.0
5031,72.0,0,384,0.0,127.0
5032,59.0,48,48,3.0,127.0
5033,67.0,48,96,0.0,127.0
5034,60.0,0,192,3.0,127.0
5035,63.0,96,96,0.0,127.0
5036,62.0,0,96,0.0,127.0
5037,63.0,96,96,0.0,127.0
5038,48.0,96,192,3.0,127.0
5039,67.0,96,96,0.0,127.0
5040,46.0,0,192,3.0,127.0
5041,63.0,96,96,0.0,127.0
5042,68.0,96,96,0.0,127.0
5043,44.0,0,192,3.0,127.0
5044,63.0,96,96,0.0,127.0
5045,70.0,0,48,0.0,127.0
5046,43.0,96,96,3.0,127.0
5047,51.0,96,96,3.0,127.0
5048,70.0,96,48,0.0,127.0
5049,73.0,0,48,0.0,127.0
5050,53.0,0,96,3.0,127.0
5051,51.0,96,96,3.0,127.0
5052,44.0,0,96,3.0,127.0
5053,48.0,96,96,3.0,127.0
5054,73.0,0,192,0.0,127.0
5055,70.0,96,192,0.0,127.0
5056,72.0,0,96,0.0,127.0
5057,50.0,96,96,3.0,127.0
5058,68.0,0,96,0.0,127.0
5059,70.0,96,96,0.0,127.0
5060,51.0,0,96,3.0,127.0
5061,69.0,96,96,0.0,127.0
5062,65.0,96,96,0.0,127.0
5063,53.0,0,192,3.0,127.0
5064,64.0,0,96,0.0,127.0
5065,48.0,96,192,3.0,127.0
5066,65.0,96,96,0.0,127.0
5067,69.0,0,96,0.0,127.0
5068,41.0,96,192,3.0,127.0
5069,65.0,96,96,0.0,127.0
5070,70.0,0,96,0.0,127.0
5071,43.0,96,192,3.0,127.0
5072,65.0,96,96,0.0,127.0
5073,72.0,0,48,0.0,127.0
5074,45.0,96,96,3.0,127.0
5075,53.0,96,96,3.0,127.0
5076,75.0,0,48,0.0,127.0
5077,72.0,96,48,0.0,127.0
5078,55.0,0,96,3.0,127.0
5079,53.0,96,96,3.0,127.0
5080,46.0,0,96,3.0,127.0
5081,53.0,96,96,3.0,127.0
5082,75.0,0,192,0.0,127.0
5083,72.0,96,192,0.0,127.0
5084,55.0,96,96,3.0,127.0
5085,70.0,0,192,0.0,127.0
5086,74.0,0,192,0.0,127.0
5087,56.0,96,96,3.0,127.0
5088,55.0,96,96,3.0,127.0
5089,70.0,48,48,0.0,127.0
5090,72.0,0,48,0.0,127.0
5091,74.0,48,48,0.0,127.0
5092,51.0,48,96,3.0,127.0
5093,75.0,0,48,0.0,127.0
5094,74.0,48,48,0.0,127.0
5095,50.0,48,96,3.0,127.0
5096,72.0,0,48,0.0,127.0
5097,74.0,48,48,0.0,127.0
5098,51.0,48,96,3.0,127.0
5099,75.0,48,48,0.0,127.0
5100,74.0,48,48,0.0,127.0
5101,55.0,0,96,3.0,127.0
5102,75.0,48,48,0.0,127.0
5103,51.0,0,96,3.0,127.0
5104,77.0,48,48,0.0,127.0
5105,79.0,48,48,0.0,127.0
5106,56.0,0,96,3.0,127.0
5107,77.0,48,48,0.0,127.0
5108,75.0,0,48,0.0,127.0
5109,77.0,48,48,0.0,127.0
5110,51.0,48,96,3.0,127.0
5111,58.0,48,96,3.0,127.0
5112,51.0,96,96,3.0,127.0
5113,70.0,96,48,1.0,127.0
5114,61.0,0,96,3.0,127.0
5115,51.0,96,96,3.0,127.0
5116,60.0,96,96,3.0,127.0
5117,79.0,0,576,0.0,127.0
5118,51.0,96,96,3.0,127.0
5119,79.0,96,48,0.0,127.0
5120,58.0,0,96,3.0,127.0
5121,51.0,96,96,3.0,127.0
5122,56.0,0,96,3.0,127.0
5123,51.0,96,96,3.0,127.0
5124,68.0,0,0,1.0,127.0
5125,60.0,96,96,3.0,127.0
5126,51.0,96,96,3.0,127.0
5127,58.0,96,96,3.0,127.0
5128,51.0,96,96,3.0,127.0
5129,77.0,96,0,0.0,127.0
5130,56.0,0,96,3.0,127.0
5131,51.0,96,96,3.0,127.0
5132,55.0,0,96,3.0,127.0
5133,51.0,96,96,3.0,127.0
5134,67.0,0,576,1.0,127.0
5135,67.0,0,48,1.0,127.0
5136,58.0,96,96,3.0,127.0
5137,51.0,96,96,3.0,127.0
5138,56.0,0,96,3.0,127.0
5139,75.0,96,576,0.0,127.0
5140,51.0,96,96,3.0,127.0
5141,75.0,0,48,0.0,127.0
5142,55.0,96,96,3.0,127.0
5143,51.0,96,96,3.0,127.0
5144,53.0,96,96,3.0,127.0
5145,51.0,96,96,3.0,127.0
5146,65.0,96,0,1.0,127.0
5147,56.0,0,96,3.0,127.0
5148,51.0,96,96,3.0,127.0
5149,55.0,0,96,3.0,127.0
5150,74.0,0,576,0.0,127.0
5151,51.0,96,96,3.0,127.0
5152,73.0,96,48,0.0,127.0
5153,53.0,0,96,3.0,127.0
5154,55.0,96,96,3.0,127.0
5155,56.0,0,96,3.0,127.0
5156,55.0,96,96,3.0,127.0
5157,63.0,96,576,1.0,127.0
5158,68.0,0,48,1.0,127.0
5159,53.0,96,96,3.0,127.0
5160,51.0,96,96,3.0,127.0
5161,50.0,0,96,3.0,127.0
5162,46.0,96,96,3.0,127.0
5163,72.0,96,576,0.0,127.0
5164,48.0,96,96,3.0,127.0
5165,70.0,0,96,0.0,127.0
5166,68.0,0,96,0.0,127.0
5167,50.0,96,96,3.0,127.0
5168,51.0,0,96,3.0,127.0
5169,65.0,96,480,1.0,127.0
5170,50.0,96,96,3.0,127.0
5171,65.0,0,96,1.0,127.0
5172,48.0,96,96,3.0,127.0
5173,63.0,0,96,1.0,127.0
5174,62.0,0,96,1.0,127.0
5175,46.0,96,96,3.0,127.0
5176,67.0,96,480,0.0,127.0
5177,44.0,96,192,3.0,127.0
5178,65.0,96,96,0.0,127.0
5179,67.0,0,96,0.0,127.0
5180,68.0,96,96,0.0,127.0
5181,41.0,96,192,3.0,127.0
5182,60.0,0,384,1.0,127.0
5183,68.0,96,96,0.0,127.0
5184,46.0,0,192,3.0,127.0
5185,67.0,96,96,0.0,127.0
5186,62.0,96,384,1.0,127.0
5187,43.0,0,192,3.0,127.0
5188,65.0,96,96,0.0,127.0
5189,48.0,0,192,3.0,127.0
5190,68.0,96,96,0.0,127.0
5191,70.0,0,96,0.0,127.0
5192,44.0,96,192,3.0,127.0
5193,63.0,96,384,1.0,127.0
5194,72.0,96,96,0.0,127.0
5195,50.0,0,192,3.0,127.0
5196,72.0,96,96,0.0,127.0
5197,70.0,0,96,0.0,127.0
5198,68.0,96,96,0.0,127.0
5199,65.0,96,384,1.0,127.0
5200,46.0,96,192,3.0,127.0
5201,72.0,96,96,0.0,127.0
5202,51.0,0,192,3.0,127.0
5203,74.0,96,96,0.0,127.0
5204,48.0,0,192,3.0,127.0
5205,67.0,96,384,1.0,127.0
5206,75.0,96,96,0.0,127.0
5207,53.0,96,192,3.0,127.0
5208,75.0,96,96,0.0,127.0
5209,74.0,96,96,0.0,127.0
5210,68.0,0,384,1.0,127.0
5211,72.0,96,96,0.0,127.0
5212,50.0,0,192,3.0,127.0
5213,55.0,96,192,3.0,127.0
5214,68.0,96,96,1.0,127.0
5215,67.0,0,96,1.0,127.0
5216,65.0,96,96,1.0,127.0
5217,56.0,96,192,3.0,127.0
5218,70.0,0,384,0.0,127.0
5219,64.0,0,96,0.0,127.0
5220,55.0,96,192,3.0,127.0
5221,65.0,96,96,0.0,127.0
5222,67.0,0,96,0.0,127.0
5223,68.0,96,96,0.0,127.0
5224,53.0,96,192,3.0,127.0
5225,70.0,0,96,0.0,127.0
5226,52.0,96,192,3.0,127.0
5227,68.0,96,96,0.0,127.0
5228,67.0,0,96,0.0,127.0
5229,68.0,96,96,0.0,127.0
5230,53.0,96,192,3.0,127.0
5231,70.0,96,96,0.0,127.0
5232,55.0,0,192,3.0,127.0
5233,67.0,96,96,0.0,127.0
5234,76.0,96,96,0.0,127.0
5235,67.0,96,96,0.0,127.0
5236,48.0,0,192,3.0,127.0
5237,68.0,0,96,0.0,127.0
5238,53.0,96,192,3.0,127.0
5239,67.0,96,96,0.0,127.0
5240,65.0,0,96,0.0,127.0
5241,41.0,96,192,3.0,127.0
5242,67.0,96,96,0.0,127.0
5243,68.0,96,96,0.0,127.0
5244,65.0,96,96,0.0,127.0
5245,53.0,0,192,3.0,127.0
5246,70.0,0,96,0.0,127.0
5247,65.0,96,96,0.0,127.0
5248,55.0,96,192,3.0,127.0
5249,72.0,96,96,0.0,127.0
5250,56.0,0,192,3.0,127.0
5251,65.0,96,96,0.0,127.0
5252,74.0,96,96,0.0,127.0
5253,65.0,96,96,0.0,127.0
5254,58.0,0,192,3.0,127.0
5255,75.0,96,96,0.0,127.0
5256,60.0,0,192,3.0,127.0
5257,65.0,96,96,0.0,127.0
5258,77.0,0,96,0.0,127.0
5259,56.0,96,192,3.0,127.0
5260,65.0,96,96,0.0,127.0
5261,75.0,0,96,0.0,127.0
5262,58.0,96,192,3.0,127.0
5263,74.0,96,96,0.0,127.0
5264,72.0,96,96,0.0,127.0
5265,56.0,0,192,3.0,127.0
5266,70.0,96,96,0.0,127.0
5267,75.0,0,48,0.0,127.0
5268,55.0,96,96,3.0,127.0
5269,51.0,96,96,3.0,127.0
5270,82.0,96,48,0.0,127.0
5271,50.0,0,96,3.0,127.0
5272,51.0,96,96,3.0,127.0
5273,84.0,96,32,0.0,127.0
5274,82.0,32,32,0.0,127.0
5275,84.0,32,32,0.0,127.0
5276,55.0,0,96,3.0,127.0
5277,82.0,0,32,0.0,127.0
5278,80.0,32,32,0.0,127.0
5279,51.0,32,96,3.0,127.0
5280,82.0,32,32,0.0,127.0
5281,84.0,0,96,0.0,127.0
5282,56.0,32,96,3.0,127.0
5283,51.0,0,96,3.0,127.0
5284,82.0,96,96,0.0,127.0
5285,58.0,96,48,3.0,127.0
5286,80.0,0,96,0.0,127.0
5287,79.0,96,96,0.0,127.0
5288,60.0,96,48,3.0,127.0
5289,77.0,0,96,0.0,127.0
5290,75.0,96,96,0.0,127.0
5291,58.0,0,96,3.0,127.0
5292,74.0,96,96,0.0,127.0
5293,75.0,0,96,0.0,127.0
5294,55.0,96,96,3.0,127.0
5295,77.0,96,48,0.0,127.0
5296,75.0,48,48,0.0,127.0
5297,53.0,0,96,3.0,127.0
5298,74.0,48,48,0.0,127.0
5299,51.0,0,96,3.0,127.0
5300,75.0,48,48,0.0,127.0
5301,50.0,48,96,3.0,127.0
5302,77.0,0,96,0.0,127.0
5303,79.0,0,96,0.0,127.0
5304,51.0,96,96,3.0,127.0
5305,53.0,0,48,3.0,127.0
5306,80.0,96,48,0.0,127.0
5307,79.0,48,48,0.0,127.0
5308,51.0,0,48,3.0,127.0
5309,50.0,48,48,3.0,127.0
5310,77.0,0,48,0.0,127.0
5311,51.0,48,48,3.0,127.0
5312,79.0,0,48,0.0,127.0
5313,53.0,48,96,3.0,127.0
5314,80.0,0,96,0.0,127.0
5315,79.0,0,96,0.0,127.0
5316,55.0,96,96,3.0,127.0
5317,56.0,96,48,3.0,127.0
5318,55.0,48,48,3.0,127.0
5319,77.0,0,96,0.0,127.0
5320,53.0,48,48,3.0,127.0
5321,80.0,0,96,0.0,127.0
5322,55.0,48,48,3.0,127.0
5323,79.0,48,96,0.0,127.0
5324,77.0,96,96,0.0,127.0
5325,56.0,0,192,3.0,127.0
5326,75.0,96,96,0.0,127.0
5327,58.0,0,192,3.0,127.0
5328,74.0,96,96,0.0,127.0
5329,77.0,0,96,0.0,127.0
5330,60.0,96,192,3.0,127.0
5331,75.0,96,96,0.0,127.0
5332,74.0,0,96,0.0,127.0
5333,75.0,96,96,0.0,127.0
5334,48.0,96,192,3.0,127.0
5335,68.0,96,96,0.0,127.0
5336,75.0,96,96,0.0,127.0
5337,60.0,0,192,3.0,127.0
5338,67.0,0,96,0.0,127.0
5339,58.0,96,192,3.0,127.0
5340,75.0,96,96,0.0,127.0
5341,72.0,96,96,0.0,127.0
5342,56.0,0,192,3.0,127.0
5343,75.0,96,96,0.0,127.0
5344,74.0,96,96,0.0,127.0
5345,44.0,0,192,3.0,127.0
5346,75.0,96,96,0.0,127.0
5347,72.0,96,96,0.0,127.0
5348,75.0,96,96,0.0,127.0
5349,56.0,0,192,3.0,127.0
5350,70.0,96,96,0.0,127.0
5351,55.0,0,192,3.0,127.0
5352,75.0,96,96,0.0,127.0
5353,68.0,96,96,0.0,127.0
5354,75.0,96,96,0.0,127.0
5355,60.0,0,192,3.0,127.0
5356,74.0,0,96,0.0,127.0
5357,75.0,96,96,0.0,127.0
5358,48.0,96,192,3.0,127.0
5359,68.0,96,96,0.0,127.0
5360,60.0,0,192,3.0,127.0
5361,75.0,96,96,0.0,127.0
5362,67.0,0,96,0.0,127.0
5363,58.0,96,192,3.0,127.0
5364,75.0,96,96,0.0,127.0
5365,65.0,96,96,0.0,127.0
5366,75.0,96,96,0.0,127.0
5367,57.0,0,192,3.0,127.0
5368,69.0,96,96,0.0,127.0
5369,75.0,96,96,0.0,127.0
5370,60.0,0,192,3.0,127.0
5371,72.0,96,96,0.0,127.0
5372,53.0,0,192,3.0,127.0
5373,75.0,96,96,0.0,127.0
5374,65.0,0,96,0.0,127.0
5375,75.0,96,0,0.0,127.0
5376,57.0,96,192,3.0,127.0
5377,58.0,0,192,3.0,127.0
5378,74.0,96,96,0.0,127.0
5379,72.0,0,96,0.0,127.0
5380,56.0,96,192,3.0,127.0
5381,70.0,96,96,0.0,127.0
5382,55.0,0,96,3.0,127.0
5383,82.0,96,96,0.0,127.0
5384,80.0,96,96,0.0,127.0
5385,63.0,0,96,3.0,127.0
5386,62.0,0,96,3.0,127.0
5387,82.0,96,96,0.0,127.0
5388,63.0,96,96,3.0,127.0
5389,73.0,0,96,0.0,127.0
5390,56.0,96,96,3.0,127.0
5391,72.0,0,192,0.0,127.0
5392,63.0,96,96,3.0,127.0
5393,62.0,0,96,3.0,127.0
5394,63.0,96,96,3.0,127.0
5395,80.0,96,192,0.0,127.0
5396,58.0,96,96,3.0,127.0
5397,63.0,96,96,3.0,127.0
5398,79.0,0,192,0.0,127.0
5399,62.0,0,96,3.0,127.0
5400,70.0,96,192,0.0,127.0
5401,63.0,96,96,3.0,127.0
5402,60.0,96,96,3.0,127.0
5403,68.0,0,192,0.0,127.0
5404,63.0,96,96,3.0,127.0
5405,62.0,0,96,3.0,127.0
5406,63.0,96,96,3.0,127.0
5407,77.0,96,192,0.0,127.0
5408,55.0,0,96,3.0,127.0
5409,75.0,96,192,0.0,127.0
5410,63.0,96,96,3.0,127.0
5411,62.0,0,96,3.0,127.0
5412,67.0,96,192,0.0,127.0
5413,63.0,96,96,3.0,127.0
5414,56.0,0,96,3.0,127.0
5415,63.0,96,96,3.0,127.0
5416,65.0,96,192,0.0,127.0
5417,62.0,0,96,3.0,127.0
5418,68.0,96,192,0.0,127.0
5419,63.0,96,96,3.0,127.0
5420,58.0,0,96,3.0,127.0
5421,63.0,96,96,3.0,127.0
5422,74.0,96,192,0.0,127.0
5423,62.0,0,96,3.0,127.0
5424,65.0,96,96,0.0,127.0
5425,63.0,96,96,3.0,127.0
5426,67.0,0,96,0.0,127.0
5427,68.0,96,96,0.0,127.0
5428,67.0,96,96,0.0,127.0
5429,51.0,0,192,3.0,127.0
5430,65.0,96,96,0.0,127.0
5431,63.0,96,96,0.0,127.0
5432,70.0,96,96,0.0,127.0
5433,43.0,0,96,3.0,127.0
5434,55.0,96,96,3.0,127.0
5435,63.0,0,96,0.0,127.0
5436,62.0,96,96,0.0,127.0
5437,53.0,0,96,3.0,127.0
5438,63.0,96,96,0.0,127.0
5439,55.0,0,96,3.0,127.0
5440,72.0,96,96,0.0,127.0
5441,44.0,0,96,3.0,127.0
5442,63.0,96,96,0.0,127.0
5443,55.0,0,96,3.0,127.0
5444,62.0,96,96,0.0,127.0
5445,53.0,0,96,3.0,127.0
5446,55.0,0,96,3.0,127.0
5447,63.0,96,96,0.0,127.0
5448,46.0,96,96,3.0,127.0
5449,74.0,0,96,0.0,127.0
5450,55.0,0,96,3.0,127.0
5451,63.0,96,96,0.0,127.0
5452,53.0,96,96,3.0,127.0
5453,62.0,0,96,0.0,127.0
5454,63.0,0,96,0.0,127.0
5455,55.0,96,96,3.0,127.0
5456,48.0,0,96,3.0,127.0
5457,75.0,96,192,0.0,127.0
5458,55.0,96,96,3.0,127.0
5459,53.0,0,96,3.0,127.0
5460,55.0,96,96,3.0,127.0
5461,69.0,96,288,0.0,127.0
5462,43.0,96,96,3.0,127.0
5463,70.0,0,96,0.0,127.0
5464,55.0,96,96,3.0,127.0
5465,53.0,96,96,3.0,127.0
5466,55.0,96,96,3.0,127.0
5467,44.0,96,96,3.0,127.0
5468,63.0,0,336,0.0,127.0
5469,55.0,96,96,3.0,127.0
5470,65.0,48,48,0.0,127.0
5471,63.0,48,48,0.0,127.0
5472,53.0,0,96,3.0,127.0
5473,62.0,48,48,0.0,127.0
5474,63.0,48,48,0.0,127.0
5475,65.0,48,48,0.0,127.0
5476,51.0,0,96,3.0,127.0
5477,63.0,0,32,0.0,127.0
5478,65.0,32,32,0.0,127.0
5479,67.0,32,32,0.0,127.0
5480,46.0,48,96,3.0,127.0
5481,65.0,0,24,0.0,127.0
5482,67.0,24,24,0.0,127.0
5483,65.0,24,24,0.0,127.0
5484,67.0,24,24,0.0,127.0
5485,50.0,32,96,3.0,127.0
5486,53.0,0,96,3.0,127.0
5487,65.0,24,144,0.0,127.0
5488,63.0,48,32,0.0,127.0
5489,56.0,96,96,3.0,127.0
5490,55.0,0,192,3.0,127.0
5491,51.0,0,192,3.0,127.0
5492,63.0,48,384,0.0,127.0
5493,39.0,192,192,3.0,127.0
5494,75.0,576,96,0.0,127.0
5495,70.0,96,96,0.0,127.0
5496,72.0,96,96,0.0,127.0
5497,68.0,96,96,0.0,127.0
5498,68.0,0,48,0.0,127.0
5499,67.0,48,24,0.0,127.0
5500,68.0,24,24,0.0,127.0
5501,63.0,96,96,3.0,127.0
5502,58.0,0,96,3.0,127.0
5503,67.0,24,192,0.0,127.0
5504,60.0,96,96,3.0,127.0
5505,56.0,96,0,3.0,127.0
5506,68.0,0,96,0.0,127.0
5507,55.0,48,24,3.0,127.0
5508,56.0,24,24,3.0,127.0
5509,70.0,0,96,0.0,127.0
5510,65.0,0,96,0.0,127.0
5511,55.0,24,192,3.0,127.0
5512,67.0,96,96,0.0,127.0
5513,56.0,96,96,3.0,127.0
5514,63.0,96,0,0.0,127.0
5515,62.0,48,24,0.0,127.0
5516,63.0,24,24,0.0,127.0
5517,58.0,0,96,3.0,127.0
5518,62.0,24,96,0.0,127.0
5519,53.0,0,96,3.0,127.0
5520,60.0,96,96,0.0,127.0
5521,55.0,0,96,3.0,127.0
5522,58.0,96,96,0.0,127.0
5523,51.0,0,96,3.0,127.0
5524,51.0,0,48,3.0,127.0
5525,50.0,48,24,3.0,127.0
5526,68.0,96,96,0.0,127.0
5527,51.0,24,24,3.0,127.0
5528,50.0,0,96,3.0,127.0
5529,63.0,24,96,0.0,127.0
5530,65.0,96,96,0.0,127.0
5531,62.0,96,96,0.0,127.0
5532,46.0,0,192,3.0,127.0
5533,67.0,96,96,0.0,127.0
5534,62.0,96,96,0.0,127.0
5535,51.0,0,288,3.0,127.0
5536,63.0,96,96,0.0,127.0
5537,70.0,96,96,0.0,127.0
5538,55.0,0,96,3.0,127.0
5539,72.0,96,96,0.0,127.0
5540,56.0,0,192,3.0,127.0
5541,67.0,96,96,0.0,127.0
5542,68.0,0,96,0.0,127.0
5543,53.0,96,192,3.0,127.0
5544,77.0,96,96,0.0,127.0
5545,75.0,96,48,0.0,127.0
5546,58.0,0,96,3.0,127.0
5547,74.0,48,144,0.0,127.0
5548,56.0,48,96,3.0,127.0
5549,72.0,0,48,0.0,127.0
5550,55.0,96,96,3.0,127.0
5551,53.0,96,0,3.0,127.0
5552,70.0,48,144,0.0,127.0
5553,51.0,48,24,3.0,127.0
5554,53.0,24,24,3.0,127.0
5555,75.0,0,96,0.0,127.0
5556,51.0,0,96,3.0,127.0
5557,70.0,24,96,0.0,127.0
5558,72.0,96,96,0.0,127.0
5559,68.0,0,0,0.0,127.0
5560,67.0,48,24,0.0,127.0
5561,68.0,24,24,0.0,127.0
5562,63.0,96,96,3.0,127.0
5563,58.0,24,96,3.0,127.0
5564,60.0,96,96,3.0,127.0
5565,67.0,0,192,0.0,127.0
5566,56.0,96,96,3.0,127.0
5567,68.0,0,96,0.0,127.0
5568,56.0,96,48,3.0,127.0
5569,55.0,48,24,3.0,127.0
5570,56.0,24,24,3.0,127.0
5571,70.0,0,96,0.0,127.0
5572,65.0,24,96,0.0,127.0
5573,67.0,96,96,0.0,127.0
5574,55.0,0,192,3.0,127.0
5575,75.0,96,96,0.0,127.0
5576,57.0,0,96,3.0,127.0
5577,75.0,96,48,0.0,127.0
5578,74.0,48,24,0.0,127.0
5579,58.0,0,96,3.0,127.0
5580,75.0,24,24,0.0,127.0
5581,53.0,24,96,3.0,127.0
5582,55.0,96,96,3.0,127.0
5583,74.0,0,192,0.0,127.0
5584,51.0,96,96,3.0,127.0
5585,75.0,0,96,0.0,127.0
5586,77.0,0,96,0.0,127.0
5587,50.0,96,192,3.0,127.0
5588,72.0,96,96,0.0,127.0
5589,74.0,0,96,0.0,127.0
5590,46.0,96,192,3.0,127.0
5591,70.0,96,96,0.0,127.0
5592,69.0,96,96,0.0,127.0
5593,79.0,96,96,0.0,127.0
5594,51.0,0,192,3.0,127.0
5595,77.0,96,96,0.0,127.0
5596,50.0,0,96,3.0,127.0
5597,51.0,0,96,3.0,127.0
5598,70.0,96,96,0.0,127.0
5599,74.0,0,96,0.0,127.0
5600,53.0,96,192,3.0,127.0
5601,72.0,96,96,0.0,127.0
5602,70.0,96,96,0.0,127.0
5603,69.0,96,96,0.0,127.0
5604,41.0,0,192,3.0,127.0
5605,70.0,96,384,0.0,127.0
5606,46.0,0,384,3.0,127.0
5607,77.0,384,96,0.0,127.0
5608,72.0,96,96,0.0,127.0
5609,74.0,96,96,0.0,127.0
5610,70.0,96,96,0.0,127.0
5611,80.0,0,24,0.0,127.0
5612,79.0,24,24,0.0,127.0
5613,53.0,96,96,3.0,127.0
5614,48.0,48,96,3.0,127.0
5615,80.0,24,240,0.0,127.0
5616,50.0,96,96,3.0,127.0
5617,70.0,96,96,0.0,127.0
5618,46.0,0,96,3.0,127.0
5619,74.0,96,96,0.0,127.0
5620,77.0,96,96,0.0,127.0
5621,80.0,96,96,0.0,127.0
5622,58.0,0,288,3.0,127.0
5623,50.0,0,96,3.0,127.0
5624,77.0,96,96,0.0,127.0
5625,51.0,96,96,3.0,127.0
5626,47.0,96,96,3.0,127.0
5627,77.0,0,192,0.0,127.0
5628,79.0,0,24,0.0,127.0
5629,77.0,24,24,0.0,127.0
5630,48.0,96,96,3.0,127.0
5631,43.0,48,96,3.0,127.0
5632,79.0,24,240,0.0,127.0
5633,74.0,96,96,0.0,127.0
5634,75.0,96,96,0.0,127.0
5635,72.0,96,96,0.0,127.0
5636,77.0,96,96,0.0,127.0
5637,44.0,96,576,3.0,127.0
5638,72.0,96,96,0.0,127.0
5639,74.0,0,96,0.0,127.0
5640,71.0,96,96,0.0,127.0
5641,56.0,96,192,3.0,127.0
5642,75.0,0,96,0.0,127.0
5643,55.0,96,192,3.0,127.0
5644,71.0,96,96,0.0,127.0
5645,72.0,96,96,0.0,127.0
5646,66.0,96,96,0.0,127.0
5647,54.0,0,192,3.0,127.0
5648,72.0,96,96,0.0,127.0
5649,55.0,0,192,3.0,127.0
5650,71.0,96,96,0.0,127.0
5651,69.0,96,96,0.0,127.0
5652,53.0,0,192,3.0,127.0
5653,67.0,96,96,0.0,127.0
5654,79.0,96,96,0.0,127.0
5655,74.0,96,96,0.0,127.0
5656,51.0,0,192,3.0,127.0
5657,75.0,96,96,0.0,127.0
5658,48.0,0,192,3.0,127.0
5659,72.0,96,96,0.0,127.0
5660,49.0,96,96,3.0,127.0
5661,53.0,96,96,3.0,127.0
5662,55.0,96,96,3.0,127.0
5663,82.0,0,288,0.0,127.0
5664,72.0,0,96,0.0,127.0
5665,58.0,96,96,3.0,127.0
5666,73.0,96,96,0.0,127.0
5667,70.0,96,96,0.0,127.0
5668,52.0,0,192,3.0,127.0
5669,72.0,96,96,0.0,127.0
5670,48.0,0,192,3.0,127.0
5671,82.0,96,96,0.0,127.0
5672,82.0,0,48,0.0,127.0
5673,80.0,48,24,0.0,127.0
5674,82.0,24,24,0.0,127.0
5675,53.0,96,96,3.0,127.0
5676,52.0,0,96,3.0,127.0
5677,80.0,24,192,0.0,127.0
5678,53.0,96,96,3.0,127.0
5679,48.0,96,96,3.0,127.0
5680,79.0,0,96,0.0,127.0
5681,77.0,96,96,0.0,127.0
5682,72.0,96,96,0.0,127.0
5683,56.0,0,192,3.0,127.0
5684,55.0,0,96,3.0,127.0
5685,74.0,96,96,0.0,127.0
5686,71.0,96,96,0.0,127.0
5687,53.0,0,96,3.0,127.0
5688,79.0,96,96,0.0,127.0
5689,51.0,0,192,3.0,127.0
5690,74.0,96,96,0.0,127.0
5691,75.0,0,96,0.0,127.0
5692,48.0,96,192,3.0,127.0
5693,72.0,96,96,0.0,127.0
5694,67.0,0,96,0.0,127.0
5695,72.0,96,96,0.0,127.0
5696,55.0,96,192,3.0,127.0
5697,74.0,96,96,0.0,127.0
5698,71.0,96,0,0.0,127.0
5699,43.0,0,192,3.0,127.0
5700,60.0,0,96,3.0,127.0
5701,55.0,96,96,3.0,127.0
5702,72.0,0,24,0.0,127.0
5703,71.0,24,24,0.0,127.0
5704,56.0,96,96,3.0,127.0
5705,53.0,48,96,3.0,127.0
5706,53.0,96,48,3.0,127.0
5707,52.0,48,24,3.0,127.0
5708,53.0,24,24,3.0,127.0
5709,72.0,24,240,0.0,127.0
5710,52.0,24,96,3.0,127.0
5711,77.0,0,96,0.0,127.0
5712,76.0,0,96,0.0,127.0
5713,48.0,96,192,3.0,127.0
5714,82.0,96,96,0.0,127.0
5715,80.0,0,96,0.0,127.0
5716,53.0,96,96,3.0,127.0
5717,76.0,96,96,0.0,127.0
5718,55.0,0,96,3.0,127.0
5719,77.0,96,96,0.0,127.0
5720,56.0,0,96,3.0,127.0
5721,74.0,96,96,0.0,127.0
5722,53.0,0,96,3.0,127.0
5723,70.0,0,96,0.0,127.0
5724,50.0,96,192,3.0,127.0
5725,75.0,96,96,0.0,127.0
5726,74.0,0,96,0.0,127.0
5727,46.0,96,192,3.0,127.0
5728,80.0,96,96,0.0,127.0
5729,51.0,0,96,3.0,127.0
5730,79.0,96,96,0.0,127.0
5731,74.0,0,96,0.0,127.0
5732,53.0,96,96,3.0,127.0
5733,55.0,96,96,3.0,127.0
5734,75.0,0,96,0.0,127.0
5735,72.0,0,96,0.0,127.0
5736,51.0,96,96,3.0,127.0
5737,68.0,0,96,0.0,127.0
5738,48.0,96,96,3.0,127.0
5739,75.0,96,96,0.0,127.0
5740,55.0,0,96,3.0,127.0
5741,53.0,0,96,3.0,127.0
5742,74.0,96,96,0.0,127.0
5743,56.0,96,96,3.0,127.0
5744,77.0,0,96,0.0,127.0
5745,67.0,0,96,0.0,127.0
5746,46.0,96,96,3.0,127.0
5747,74.0,96,96,0.0,127.0
5748,53.0,0,96,3.0,127.0
5749,51.0,0,96,3.0,127.0
5750,72.0,96,96,0.0,127.0
5751,55.0,0,96,3.0,127.0
5752,75.0,96,96,0.0,127.0
5753,67.0,0,96,0.0,127.0
5754,44.0,96,96,3.0,127.0
5755,51.0,96,96,3.0,127.0
5756,72.0,0,96,0.0,127.0
5757,70.0,0,96,0.0,127.0
5758,49.0,96,96,3.0,127.0
5759,53.0,0,96,3.0,127.0
5760,46.0,96,96,3.0,127.0
5761,41.0,96,96,3.0,127.0
5762,43.0,96,96,3.0,127.0
5763,39.0,96,96,3.0,127.0
5764,63.0,0,384,0.0,127.0
5765,72.0,0,96,0.0,127.0
5766,67.0,96,96,0.0,127.0
5767,44.0,96,192,3.0,127.0
5768,68.0,96,96,0.0,127.0
5769,41.0,0,192,3.0,127.0
5770,65.0,96,96,0.0,127.0
5771,62.0,0,96,0.0,127.0
5772,72.0,96,96,0.0,127.0
5773,46.0,96,288,3.0,127.0
5774,70.0,96,96,0.0,127.0
5775,50.0,96,96,3.0,127.0
5776,80.0,0,96,0.0,127.0
5777,79.0,0,96,0.0,127.0
5778,51.0,96,96,3.0,127.0
5779,55.0,0,96,3.0,127.0
5780,75.0,96,96,0.0,127.0
5781,58.0,96,96,3.0,127.0
5782,70.0,0,96,0.0,127.0
5783,46.0,96,96,3.0,127.0
5784,74.0,0,96,0.0,127.0
5785,74.0,0,192,0.0,127.0
5786,75.0,192,24,0.0,127.0
5787,74.0,24,24,0.0,127.0
5788,39.0,96,384,3.0,127.0
5789,75.0,24,144,0.0,127.0
5790,67.0,528,96,0.0,127.0
5791,51.0,0,96,3.0,127.0
5792,53.0,96,96,3.0,127.0
5793,70.0,0,96,0.0,127.0
5794,75.0,0,96,0.0,127.0
5795,55.0,96,192,3.0,127.0
5796,73.0,96,96,0.0,127.0
5797,73.0,0,96,0.0,127.0
5798,51.0,96,192,3.0,127.0
5799,72.0,0,0,0.0,127.0
5800,56.0,96,192,3.0,127.0
5801,75.0,96,96,0.0,127.0
5802,70.0,96,96,0.0,127.0
5803,55.0,0,192,3.0,127.0
5804,75.0,96,96,0.0,127.0
5805,68.0,96,96,0.0,127.0
5806,77.0,96,96,0.0,127.0
5807,53.0,0,192,3.0,127.0
5808,68.0,96,32,0.0,127.0
5809,67.0,32,32,0.0,127.0
5810,68.0,32,32,0.0,127.0
5811,51.0,0,96,3.0,127.0
5812,67.0,0,24,0.0,127.0
5813,68.0,24,24,0.0,127.0
5814,67.0,24,24,0.0,127.0
5815,58.0,32,96,3.0,127.0
5816,68.0,24,24,0.0,127.0
5817,63.0,0,96,3.0,127.0
5818,67.0,24,192,0.0,127.0
5819,61.0,0,0,3.0,127.0
5820,67.0,96,96,0.0,127.0
5821,68.0,0,48,0.0,127.0
5822,70.0,48,0,0.0,127.0
5823,60.0,96,96,3.0,127.0
5824,68.0,24,24,0.0,127.0
5825,70.0,24,24,0.0,127.0
5826,68.0,24,24,0.0,127.0
5827,70.0,24,24,0.0,127.0
5828,60.0,0,120,3.0,127.0
5829,63.0,0,96,3.0,127.0
5830,68.0,24,96,0.0,127.0
5831,58.0,0,96,3.0,127.0
5832,67.0,96,192,0.0,127.0
5833,63.0,96,96,3.0,127.0
5834,56.0,0,96,3.0,127.0
5835,72.0,96,192,0.0,127.0
5836,65.0,96,96,3.0,127.0
5837,70.0,0,96,0.0,127.0
5838,55.0,96,96,3.0,127.0
5839,58.0,0,96,3.0,127.0
5840,75.0,96,96,0.0,127.0
5841,79.0,96,96,0.0,127.0
5842,77.0,96,96,0.0,127.0
5843,63.0,0,192,3.0,127.0
5844,77.0,0,96,0.0,127.0
5845,62.0,96,192,3.0,127.0
5846,75.0,96,96,0.0,127.0
5847,60.0,0,96,3.0,127.0
5848,69.0,96,96,0.0,127.0
5849,72.0,96,96,0.0,127.0
5850,57.0,0,96,3.0,127.0
5851,75.0,96,96,0.0,127.0
5852,53.0,0,192,3.0,127.0
5853,74.0,96,96,0.0,127.0
5854,74.0,0,96,0.0,127.0
5855,58.0,96,192,3.0,127.0
5856,72.0,96,96,0.0,127.0
5857,72.0,0,96,0.0,127.0
5858,51.0,96,192,3.0,127.0
5859,82.0,96,96,0.0,127.0
5860,74.0,0,96,0.0,127.0
5861,53.0,96,192,3.0,127.0
5862,82.0,96,96,0.0,127.0
5863,75.0,0,96,0.0,127.0
5864,41.0,96,192,3.0,127.0
5865,81.0,96,96,0.0,127.0
5866,46.0,0,96,3.0,127.0
5867,53.0,96,96,3.0,127.0
5868,82.0,96,192,0.0,127.0
5869,58.0,96,96,3.0,127.0
5870,56.0,96,96,3.0,127.0
5871,55.0,96,96,3.0,127.0
5872,53.0,96,96,3.0,127.0
5873,70.0,0,384,0.0,127.0
5874,67.0,0,96,0.0,127.0
5875,51.0,96,96,3.0,127.0
5876,53.0,96,96,3.0,127.0
5877,70.0,0,96,0.0,127.0
5878,75.0,0,96,0.0,127.0
5879,73.0,96,96,0.0,127.0
5880,55.0,96,192,3.0,127.0
5881,73.0,96,96,0.0,127.0
5882,51.0,0,192,3.0,127.0
5883,72.0,0,0,0.0,127.0
5884,56.0,96,192,3.0,127.0
5885,75.0,96,96,0.0,127.0
5886,70.0,0,96,0.0,127.0
5887,75.0,96,96,0.0,127.0
5888,55.0,96,192,3.0,127.0
5889,68.0,0,96,0.0,127.0
5890,77.0,96,96,0.0,127.0
5891,53.0,96,192,3.0,127.0
5892,68.0,96,32,0.0,127.0
5893,67.0,32,32,0.0,127.0
5894,51.0,0,96,3.0,127.0
5895,68.0,32,32,0.0,127.0
5896,67.0,0,24,0.0,127.0
5897,68.0,24,24,0.0,127.0
5898,67.0,24,24,0.0,127.0
5899,68.0,24,24,0.0,127.0
5900,58.0,32,96,3.0,127.0
5901,63.0,0,96,3.0,127.0
5902,61.0,96,96,3.0,127.0
5903,67.0,24,192,0.0,127.0
5904,61.0,96,96,3.0,127.0
5905,67.0,0,96,0.0,127.0
5906,68.0,0,48,0.0,127.0
5907,60.0,96,96,3.0,127.0
5908,70.0,48,48,0.0,127.0
5909,70.0,48,24,0.0,127.0
5910,68.0,24,24,0.0,127.0
5911,70.0,24,24,0.0,127.0
5912,68.0,24,24,0.0,127.0
5913,60.0,0,120,3.0,127.0
5914,70.0,24,24,0.0,127.0
5915,68.0,0,96,0.0,127.0
5916,63.0,24,96,3.0,127.0
5917,58.0,0,96,3.0,127.0
5918,63.0,96,96,3.0,127.0
5919,67.0,96,192,0.0,127.0
5920,56.0,96,96,3.0,127.0
5921,65.0,96,96,3.0,127.0
5922,72.0,0,192,0.0,127.0
5923,70.0,96,96,0.0,127.0
5924,55.0,0,96,3.0,127.0
5925,75.0,96,96,0.0,127.0
5926,58.0,0,96,3.0,127.0
5927,79.0,96,96,0.0,127.0
5928,77.0,96,96,0.0,127.0
5929,63.0,0,192,3.0,127.0
5930,77.0,96,96,0.0,127.0
5931,62.0,0,192,3.0,127.0
5932,75.0,96,96,0.0,127.0
5933,69.0,0,96,0.0,127.0
5934,60.0,96,96,3.0,127.0
5935,57.0,0,96,3.0,127.0
5936,72.0,96,96,0.0,127.0
5937,75.0,96,96,0.0,127.0
5938,74.0,96,0,0.0,127.0
5939,53.0,0,192,3.0,127.0
5940,58.0,0,192,3.0,127.0
5941,72.0,0,0,0.0,127.0
5942,82.0,96,96,0.0,127.0
5943,51.0,96,192,3.0,127.0
5944,74.0,0,96,0.0,127.0
5945,82.0,96,96,0.0,127.0
5946,53.0,96,192,3.0,127.0
5947,75.0,96,96,0.0,127.0
5948,41.0,0,192,3.0,127.0
5949,81.0,96,96,0.0,127.0
5950,82.0,0,192,0.0,127.0
5951,46.0,96,576,3.0,127.0
5952,70.0,192,384,0.0,127.0
5953,46.0,384,96,3.0,127.0
5954,74.0,0,96,0.0,127.0
5955,75.0,0,48,0.0,127.0
5956,77.0,48,48,0.0,127.0
5957,48.0,96,96,3.0,127.0
5958,68.0,48,96,0.0,127.0
5959,50.0,0,192,3.0,127.0
5960,67.0,96,96,0.0,127.0
5961,67.0,0,96,0.0,127.0
5962,51.0,96,192,3.0,127.0
5963,68.0,96,96,0.0,127.0
5964,68.0,0,96,0.0,127.0
5965,50.0,96,96,3.0,127.0
5966,77.0,96,96,0.0,127.0
5967,56.0,0,96,3.0,127.0
5968,75.0,0,32,0.0,127.0
5969,74.0,32,32,0.0,127.0
5970,48.0,96,96,3.0,127.0
5971,75.0,32,32,0.0,127.0
5972,74.0,0,24,0.0,127.0
5973,75.0,24,24,0.0,127.0
5974,74.0,24,24,0.0,127.0
5975,56.0,32,96,3.0,127.0
5976,75.0,24,24,0.0,127.0
5977,46.0,0,96,3.0,127.0
5978,74.0,24,192,0.0,127.0
5979,56.0,96,96,3.0,127.0
5980,55.0,0,96,3.0,127.0
5981,75.0,96,96,0.0,127.0
5982,77.0,0,48,0.0,127.0
5983,79.0,48,48,0.0,127.0
5984,58.0,96,96,3.0,127.0
5985,70.0,0,96,0.0,127.0
5986,72.0,96,96,0.0,127.0
5987,61.0,48,192,3.0,127.0
5988,72.0,96,96,0.0,127.0
5989,73.0,96,96,0.0,127.0
5990,53.0,0,192,3.0,127.0
5991,52.0,0,96,3.0,127.0
5992,73.0,96,96,0.0,127.0
5993,82.0,0,96,0.0,127.0
5994,55.0,96,96,3.0,127.0
5995,80.0,0,32,0.0,127.0
5996,79.0,32,32,0.0,127.0
5997,58.0,96,96,3.0,127.0
5998,80.0,32,32,0.0,127.0
5999,79.0,0,24,0.0,127.0
6000,80.0,24,24,0.0,127.0
6001,79.0,24,24,0.0,127.0
6002,80.0,24,24,0.0,127.0
6003,56.0,0,0,3.0,127.0
6004,79.0,24,192,0.0,127.0
6005,55.0,96,96,3.0,127.0
6006,80.0,96,96,0.0,127.0
6007,77.0,96,96,0.0,127.0
6008,53.0,0,192,3.0,127.0
6009,74.0,96,96,0.0,127.0
6010,65.0,0,192,3.0,127.0
6011,75.0,96,96,0.0,127.0
6012,75.0,96,96,0.0,127.0
6013,77.0,96,96,0.0,127.0
6014,63.0,0,192,3.0,127.0
6015,77.0,96,96,0.0,127.0
6016,62.0,0,192,3.0,127.0
6017,68.0,96,0,0.0,127.0
6018,58.0,0,192,3.0,127.0
6019,67.0,0,0,0.0,127.0
6020,70.0,96,96,0.0,127.0
6021,63.0,96,192,3.0,127.0
6022,75.0,96,96,0.0,127.0
6023,55.0,0,96,3.0,127.0
6024,67.0,0,96,0.0,127.0
6025,60.0,96,96,3.0,127.0
6026,68.0,0,24,0.0,127.0
6027,67.0,24,24,0.0,127.0
6028,58.0,96,96,3.0,127.0
6029,55.0,48,96,3.0,127.0
6030,68.0,24,144,0.0,127.0
6031,67.0,0,24,0.0,127.0
6032,65.0,24,24,0.0,127.0
6033,67.0,24,24,0.0,127.0
6034,56.0,96,96,3.0,127.0
6035,65.0,24,120,0.0,127.0
6036,58.0,24,96,3.0,127.0
6037,51.0,0,96,3.0,127.0
6038,56.0,96,96,3.0,127.0
6039,55.0,96,96,3.0,127.0
6040,51.0,96,96,3.0,127.0
6041,53.0,96,96,3.0,127.0
6042,55.0,96,96,3.0,127.0
6043,63.0,96,576,0.0,127.0
6044,74.0,0,96,0.0,127.0
6045,46.0,96,96,3.0,127.0
6046,75.0,0,48,0.0,127.0
6047,48.0,96,96,3.0,127.0
6048,77.0,48,48,0.0,127.0
6049,68.0,0,96,0.0,127.0
6050,50.0,48,192,3.0,127.0
6051,67.0,96,0,0.0,127.0
6052,51.0,0,192,3.0,127.0
6053,68.0,96,96,0.0,127.0
6054,68.0,0,96,0.0,127.0
6055,50.0,96,96,3.0,127.0
6056,56.0,96,96,3.0,127.0
6057,77.0,0,96,0.0,127.0
6058,75.0,0,32,0.0,127.0
6059,74.0,32,32,0.0,127.0
6060,48.0,96,96,3.0,127.0
6061,75.0,32,32,0.0,127.0
6062,74.0,0,24,0.0,127.0
6063,75.0,24,24,0.0,127.0
6064,74.0,24,24,0.0,127.0
6065,56.0,32,96,3.0,127.0
6066,75.0,24,24,0.0,127.0
6067,46.0,24,96,3.0,127.0
6068,56.0,96,96,3.0,127.0
6069,74.0,0,192,0.0,127.0
6070,55.0,0,96,3.0,127.0
6071,75.0,96,96,0.0,127.0
6072,77.0,0,48,0.0,127.0
6073,58.0,96,96,3.0,127.0
6074,79.0,48,48,0.0,127.0
6075,70.0,0,96,0.0,127.0
6076,61.0,48,192,3.0,127.0
6077,72.0,96,96,0.0,127.0
6078,72.0,0,96,0.0,127.0
6079,53.0,96,192,3.0,127.0
6080,73.0,96,0,0.0,127.0
6081,52.0,0,96,3.0,127.0
6082,82.0,96,96,0.0,127.0
6083,55.0,0,96,3.0,127.0
6084,80.0,96,32,0.0,127.0
6085,79.0,32,32,0.0,127.0
6086,80.0,32,32,0.0,127.0
6087,58.0,0,96,3.0,127.0
6088,79.0,32,24,0.0,127.0
6089,80.0,24,24,0.0,127.0
6090,79.0,24,24,0.0,127.0
6091,56.0,0,0,3.0,127.0
6092,80.0,24,24,0.0,127.0
6093,79.0,24,192,0.0,127.0
6094,55.0,96,96,3.0,127.0
6095,80.0,96,96,0.0,127.0
6096,77.0,96,96,0.0,127.0
6097,53.0,0,192,3.0,127.0
6098,74.0,96,96,0.0,127.0
6099,65.0,0,192,3.0,127.0
6100,75.0,0,0,0.0,127.0
6101,63.0,96,192,3.0,127.0
6102,77.0,96,96,0.0,127.0
6103,77.0,0,96,0.0,127.0
6104,68.0,96,96,0.0,127.0
6105,62.0,96,192,3.0,127.0
6106,68.0,0,96,0.0,127.0
6107,58.0,96,192,3.0,127.0
6108,67.0,0,0,0.0,127.0
6109,63.0,96,192,3.0,127.0
6110,70.0,96,96,0.0,127.0
6111,75.0,96,96,0.0,127.0
6112,51.0,0,96,3.0,127.0
6113,56.0,96,96,3.0,127.0
6114,67.0,0,96,0.0,127.0
6115,68.0,0,24,0.0,127.0
6116,67.0,24,24,0.0,127.0
6117,55.0,96,96,3.0,127.0
6118,68.0,24,144,0.0,127.0
6119,51.0,48,96,3.0,127.0
6120,67.0,0,24,0.0,127.0
6121,65.0,24,24,0.0,127.0
6122,67.0,24,24,0.0,127.0
6123,53.0,96,96,3.0,127.0
6124,65.0,24,120,0.0,127.0
6125,55.0,24,96,3.0,127.0
6126,63.0,96,576,0.0,127.0
6127,51.0,0,576,3.0,127.0
6128,70.0,960,48,0.0,127.0
6129,75.0,48,48,0.0,127.0
6130,74.0,48,48,0.0,127.0
6131,72.0,48,48,0.0,127.0
6132,39.0,0,192,3.0,127.0
6133,70.0,48,48,0.0,127.0
6134,68.0,48,48,0.0,127.0
6135,67.0,48,48,0.0,127.0
6136,65.0,48,48,0.0,127.0
6137,65.0,48,48,0.0,127.0
6138,63.0,48,24,0.0,127.0
6139,65.0,24,24,0.0,127.0
6140,51.0,0,48,3.0,127.0
6141,63.0,0,24,0.0,127.0
6142,65.0,24,24,0.0,127.0
6143,62.0,24,48,3.0,127.0
6144,63.0,0,48,0.0,127.0
6145,60.0,24,48,3.0,127.0
6146,58.0,48,48,3.0,127.0
6147,56.0,48,48,3.0,127.0
6148,55.0,0,48,3.0,127.0
6149,65.0,48,96,0.0,127.0
6150,53.0,48,48,3.0,127.0
6151,67.0,48,48,0.0,127.0
6152,51.0,0,96,3.0,127.0
6153,63.0,48,48,0.0,127.0
6154,62.0,0,48,0.0,127.0
6155,63.0,48,48,0.0,127.0
6156,58.0,48,96,3.0,127.0
6157,70.0,0,48,0.0,127.0
6158,65.0,48,48,0.0,127.0
6159,50.0,48,96,3.0,127.0
6160,63.0,0,48,0.0,127.0
6161,65.0,48,48,0.0,127.0
6162,58.0,48,96,3.0,127.0
6163,67.0,48,48,0.0,127.0
6164,68.0,48,48,0.0,127.0
6165,51.0,0,96,3.0,127.0
6166,67.0,48,48,0.0,127.0
6167,46.0,0,96,3.0,127.0
6168,65.0,48,48,0.0,127.0
6169,63.0,48,48,0.0,127.0
6170,43.0,0,96,3.0,127.0
6171,67.0,48,48,0.0,127.0
6172,65.0,0,48,0.0,127.0
6173,46.0,48,96,3.0,127.0
6174,68.0,48,48,0.0,127.0
6175,67.0,48,48,0.0,127.0
6176,39.0,0,96,3.0,127.0
6177,72.0,48,48,0.0,127.0
6178,71.0,0,48,0.0,127.0
6179,51.0,48,96,3.0,127.0
6180,72.0,48,48,0.0,127.0
6181,75.0,48,48,0.0,127.0
6182,74.0,48,48,0.0,127.0
6183,48.0,0,96,3.0,127.0
6184,72.0,48,48,0.0,127.0
6185,51.0,0,96,3.0,127.0
6186,70.0,48,48,0.0,127.0
6187,69.0,48,48,0.0,127.0
6188,70.0,48,48,0.0,127.0
6189,69.0,48,48,0.0,127.0
6190,67.0,48,48,0.0,127.0
6191,41.0,0,192,3.0,127.0
6192,65.0,48,48,0.0,127.0
6193,69.0,48,48,0.0,127.0
6194,67.0,48,48,0.0,127.0
6195,70.0,48,48,0.0,127.0
6196,69.0,48,48,0.0,127.0
6197,74.0,48,48,0.0,127.0
6198,72.0,0,48,0.0,127.0
6199,53.0,48,96,3.0,127.0
6200,74.0,48,48,0.0,127.0
6201,77.0,0,48,0.0,127.0
6202,50.0,48,96,3.0,127.0
6203,75.0,48,48,0.0,127.0
6204,74.0,0,48,0.0,127.0
6205,53.0,48,96,3.0,127.0
6206,72.0,48,48,0.0,127.0
6207,70.0,0,48,0.0,127.0
6208,72.0,48,48,0.0,127.0
6209,70.0,48,48,0.0,127.0
6210,43.0,48,192,3.0,127.0
6211,69.0,48,48,0.0,127.0
6212,67.0,48,48,0.0,127.0
6213,70.0,48,48,0.0,127.0
6214,72.0,48,48,0.0,127.0
6215,74.0,48,48,0.0,127.0
6216,75.0,48,48,0.0,127.0
6217,79.0,48,48,0.0,127.0
6218,77.0,0,48,0.0,127.0
6219,79.0,48,48,0.0,127.0
6220,51.0,48,96,3.0,127.0
6221,82.0,0,48,0.0,127.0
6222,55.0,48,96,3.0,127.0
6223,80.0,48,48,0.0,127.0
6224,79.0,0,48,0.0,127.0
6225,58.0,48,96,3.0,127.0
6226,77.0,48,48,0.0,127.0
6227,75.0,0,48,0.0,127.0
6228,79.0,48,48,0.0,127.0
6229,48.0,48,96,3.0,127.0
6230,77.0,48,48,0.0,127.0
6231,79.0,48,48,0.0,127.0
6232,58.0,0,96,3.0,127.0
6233,84.0,48,48,0.0,127.0
6234,82.0,48,48,0.0,127.0
6235,57.0,0,96,3.0,127.0
6236,81.0,0,48,0.0,127.0
6237,60.0,48,96,3.0,127.0
6238,79.0,48,48,0.0,127.0
6239,77.0,48,48,0.0,127.0
6240,75.0,48,48,0.0,127.0
6241,50.0,0,96,3.0,127.0
6242,58.0,48,48,3.0,127.0
6243,74.0,0,48,0.0,127.0
6244,72.0,48,48,0.0,127.0
6245,57.0,0,48,3.0,127.0
6246,74.0,0,48,0.0,127.0
6247,58.0,48,96,3.0,127.0
6248,70.0,48,48,0.0,127.0
6249,72.0,48,48,0.0,127.0
6250,69.0,48,48,0.0,127.0
6251,53.0,0,96,3.0,127.0
6252,46.0,0,48,3.0,127.0
6253,69.0,48,96,0.0,127.0
6254,51.0,48,48,3.0,127.0
6255,70.0,48,12,0.0,127.0
6256,69.0,12,12,0.0,127.0
6257,50.0,0,48,3.0,127.0
6258,48.0,24,48,3.0,127.0
6259,46.0,48,48,3.0,127.0
6260,44.0,48,48,3.0,127.0
6261,43.0,48,48,3.0,127.0
6262,41.0,48,48,3.0,127.0
6263,70.0,12,264,0.0,127.0
6264,70.0,48,48,0.0,127.0
6265,75.0,48,48,0.0,127.0
6266,74.0,48,48,0.0,127.0
6267,39.0,0,192,3.0,127.0
6268,72.0,48,48,0.0,127.0
6269,70.0,48,48,0.0,127.0
6270,68.0,48,48,0.0,127.0
6271,67.0,48,48,0.0,127.0
6272,65.0,48,0,0.0,127.0
6273,63.0,48,24,0.0,127.0
6274,65.0,24,24,0.0,127.0
6275,51.0,0,48,3.0,127.0
6276,63.0,0,24,0.0,127.0
6277,65.0,24,24,0.0,127.0
6278,62.0,24,48,3.0,127.0
6279,63.0,0,48,0.0,127.0
6280,60.0,24,48,3.0,127.0
6281,58.0,48,48,3.0,127.0
6282,56.0,48,48,3.0,127.0
6283,55.0,48,48,3.0,127.0
6284,53.0,48,48,3.0,127.0
6285,65.0,0,96,0.0,127.0
6286,67.0,48,48,0.0,127.0
6287,63.0,48,48,0.0,127.0
6288,51.0,0,96,3.0,127.0
6289,62.0,0,48,0.0,127.0
6290,58.0,48,96,3.0,127.0
6291,63.0,48,48,0.0,127.0
6292,70.0,0,48,0.0,127.0
6293,50.0,48,96,3.0,127.0
6294,65.0,48,48,0.0,127.0
6295,63.0,48,48,0.0,127.0
6296,65.0,48,48,0.0,127.0
6297,58.0,0,96,3.0,127.0
6298,67.0,48,48,0.0,127.0
6299,51.0,0,96,3.0,127.0
6300,68.0,48,48,0.0,127.0
6301,67.0,48,48,0.0,127.0
6302,65.0,48,48,0.0,127.0
6303,46.0,0,96,3.0,127.0
6304,63.0,0,48,0.0,127.0
6305,67.0,48,48,0.0,127.0
6306,43.0,48,96,3.0,127.0
6307,65.0,0,48,0.0,127.0
6308,46.0,48,96,3.0,127.0
6309,68.0,48,48,0.0,127.0
6310,67.0,0,48,0.0,127.0
6311,72.0,48,48,0.0,127.0
6312,39.0,48,96,3.0,127.0
6313,71.0,48,48,0.0,127.0
6314,72.0,48,48,0.0,127.0
6315,51.0,0,96,3.0,127.0
6316,75.0,48,48,0.0,127.0
6317,48.0,0,96,3.0,127.0
6318,74.0,48,48,0.0,127.0
6319,72.0,48,48,0.0,127.0
6320,70.0,48,48,0.0,127.0
6321,51.0,0,96,3.0,127.0
6322,69.0,48,48,0.0,127.0
6323,70.0,48,48,0.0,127.0
6324,69.0,48,48,0.0,127.0
6325,67.0,48,48,0.0,127.0
6326,41.0,0,192,3.0,127.0
6327,65.0,48,48,0.0,127.0
6328,69.0,48,48,0.0,127.0
6329,67.0,48,48,0.0,127.0
6330,70.0,48,48,0.0,127.0
6331,69.0,48,48,0.0,127.0
6332,74.0,48,48,0.0,127.0
6333,72.0,0,48,0.0,127.0
6334,53.0,48,96,3.0,127.0
6335,74.0,48,48,0.0,127.0
6336,77.0,0,48,0.0,127.0
6337,75.0,48,48,0.0,127.0
6338,50.0,48,96,3.0,127.0
6339,74.0,48,48,0.0,127.0
6340,53.0,0,96,3.0,127.0
6341,72.0,48,48,0.0,127.0
6342,70.0,0,48,0.0,127.0
6343,72.0,48,48,0.0,127.0
6344,70.0,48,48,0.0,127.0
6345,43.0,48,192,3.0,127.0
6346,69.0,48,48,0.0,127.0
6347,67.0,48,48,0.0,127.0
6348,70.0,48,48,0.0,127.0
6349,72.0,48,48,0.0,127.0
6350,74.0,48,48,0.0,127.0
6351,75.0,48,48,0.0,127.0
6352,79.0,48,48,0.0,127.0
6353,77.0,48,48,0.0,127.0
6354,79.0,48,48,0.0,127.0
6355,51.0,0,96,3.0,127.0
6356,82.0,48,48,0.0,127.0
6357,80.0,48,48,0.0,127.0
6358,55.0,0,96,3.0,127.0
6359,79.0,48,48,0.0,127.0
6360,58.0,0,96,3.0,127.0
6361,77.0,48,48,0.0,127.0
6362,75.0,0,48,0.0,127.0
6363,48.0,48,96,3.0,127.0
6364,79.0,48,48,0.0,127.0
6365,77.0,48,48,0.0,127.0
6366,58.0,0,96,3.0,127.0
6367,79.0,48,48,0.0,127.0
6368,84.0,48,48,0.0,127.0
6369,82.0,48,48,0.0,127.0
6370,57.0,0,96,3.0,127.0
6371,81.0,0,48,0.0,127.0
6372,60.0,48,96,3.0,127.0
6373,79.0,48,48,0.0,127.0
6374,77.0,48,48,0.0,127.0
6375,75.0,48,48,0.0,127.0
6376,50.0,0,96,3.0,127.0
6377,74.0,48,48,0.0,127.0
6378,58.0,0,48,3.0,127.0
6379,57.0,0,48,3.0,127.0
6380,72.0,48,48,0.0,127.0
6381,74.0,0,48,0.0,127.0
6382,58.0,48,96,3.0,127.0
6383,70.0,48,48,0.0,127.0
6384,72.0,48,48,0.0,127.0
6385,53.0,0,96,3.0,127.0
6386,69.0,48,48,0.0,127.0
6387,69.0,0,96,0.0,127.0
6388,70.0,96,12,0.0,127.0
6389,69.0,12,12,0.0,127.0
6390,46.0,48,384,3.0,127.0
6391,70.0,12,264,0.0,127.0
6392,74.0,0,48,0.0,127.0
6393,70.0,48,48,0.0,127.0
6394,72.0,48,48,0.0,127.0
6395,46.0,264,192,3.0,127.0
6396,74.0,48,48,0.0,127.0
6397,75.0,48,48,0.0,127.0
6398,77.0,48,48,0.0,127.0
6399,79.0,48,48,0.0,127.0
6400,80.0,48,0,0.0,127.0
6401,51.0,0,48,3.0,127.0
6402,79.0,48,24,0.0,127.0
6403,80.0,24,24,0.0,127.0
6404,48.0,0,48,3.0,127.0
6405,79.0,24,24,0.0,127.0
6406,50.0,0,48,3.0,127.0
6407,80.0,24,24,0.0,127.0
6408,79.0,24,48,0.0,127.0
6409,51.0,0,48,3.0,127.0
6410,53.0,48,48,3.0,127.0
6411,55.0,48,48,3.0,127.0
6412,57.0,0,48,3.0,127.0
6413,77.0,48,96,0.0,127.0
6414,59.0,48,48,3.0,127.0
6415,75.0,48,48,0.0,127.0
6416,60.0,0,96,3.0,127.0
6417,72.0,48,48,0.0,127.0
6418,71.0,48,48,0.0,127.0
6419,56.0,0,96,3.0,127.0
6420,72.0,48,48,0.0,127.0
6421,80.0,48,48,0.0,127.0
6422,72.0,48,48,0.0,127.0
6423,53.0,0,96,3.0,127.0
6424,71.0,48,48,0.0,127.0
6425,72.0,48,48,0.0,127.0
6426,56.0,0,96,3.0,127.0
6427,74.0,48,48,0.0,127.0
6428,72.0,48,48,0.0,127.0
6429,71.0,48,48,0.0,127.0
6430,69.0,48,48,0.0,127.0
6431,55.0,0,192,3.0,127.0
6432,67.0,48,48,0.0,127.0
6433,65.0,48,48,0.0,127.0
6434,64.0,48,48,0.0,127.0
6435,62.0,48,48,0.0,127.0
6436,72.0,48,48,0.0,127.0
6437,63.0,48,96,1.0,127.0
6438,71.0,48,48,0.0,127.0
6439,72.0,48,48,0.0,127.0
6440,67.0,0,96,1.0,127.0
6441,74.0,0,48,0.0,127.0
6442,72.0,48,48,0.0,127.0
6443,63.0,48,96,1.0,127.0
6444,71.0,0,48,0.0,127.0
6445,67.0,48,96,1.0,127.0
6446,72.0,48,48,0.0,127.0
6447,80.0,0,48,0.0,127.0
6448,77.0,48,48,0.0,127.0
6449,53.0,48,96,3.0,127.0
6450,72.0,48,96,0.0,127.0
6451,70.0,48,48,1.0,127.0
6452,68.0,48,48,1.0,127.0
6453,67.0,48,48,1.0,127.0
6454,65.0,48,48,1.0,127.0
6455,63.0,48,48,1.0,127.0
6456,62.0,48,96,1.0,127.0
6457,70.0,48,48,0.0,127.0
6458,69.0,0,48,0.0,127.0
6459,65.0,48,96,1.0,127.0
6460,70.0,48,48,0.0,127.0
6461,72.0,0,48,0.0,127.0
6462,70.0,48,48,0.0,127.0
6463,62.0,48,96,1.0,127.0
6464,69.0,0,48,0.0,127.0
6465,70.0,48,48,0.0,127.0
6466,65.0,48,96,1.0,127.0
6467,79.0,48,48,0.0,127.0
6468,75.0,48,48,0.0,127.0
6469,51.0,0,96,3.0,127.0
6470,68.0,48,48,1.0,127.0
6471,70.0,48,96,0.0,127.0
6472,67.0,48,48,1.0,127.0
6473,65.0,48,48,1.0,127.0
6474,63.0,48,48,1.0,127.0
6475,62.0,48,48,1.0,127.0
6476,60.0,48,48,1.0,127.0
6477,70.0,48,48,1.0,127.0
6478,77.0,0,48,0.0,127.0
6479,68.0,48,48,1.0,127.0
6480,75.0,0,48,0.0,127.0
6481,67.0,48,48,1.0,127.0
6482,74.0,48,48,0.0,127.0
6483,65.0,0,48,1.0,127.0
6484,63.0,48,48,1.0,127.0
6485,75.0,0,48,0.0,127.0
6486,62.0,48,48,1.0,127.0
6487,60.0,48,48,1.0,127.0
6488,59.0,48,48,1.0,127.0
6489,77.0,0,192,0.0,127.0
6490,68.0,48,48,1.0,127.0
6491,75.0,0,48,0.0,127.0
6492,67.0,48,48,1.0,127.0
6493,65.0,0,48,1.0,127.0
6494,74.0,48,48,0.0,127.0
6495,63.0,48,48,1.0,127.0
6496,72.0,0,48,0.0,127.0
6497,74.0,0,48,0.0,127.0
6498,62.0,48,48,1.0,127.0
6499,60.0,0,48,1.0,127.0
6500,58.0,48,48,1.0,127.0
6501,56.0,48,48,3.0,127.0
6502,75.0,48,192,0.0,127.0
6503,55.0,48,48,3.0,127.0
6504,74.0,48,48,0.0,127.0
6505,56.0,0,48,3.0,127.0
6506,72.0,48,48,0.0,127.0
6507,53.0,0,48,3.0,127.0
6508,79.0,48,48,0.0,127.0
6509,77.0,48,48,0.0,127.0
6510,55.0,0,96,3.0,127.0
6511,75.0,0,48,0.0,127.0
6512,74.0,48,48,0.0,127.0
6513,43.0,48,96,3.0,127.0
6514,74.0,48,96,0.0,127.0
6515,48.0,48,48,3.0,127.0
6516,72.0,48,12,0.0,127.0
6517,74.0,12,12,0.0,127.0
6518,50.0,0,48,3.0,127.0
6519,72.0,12,72,0.0,127.0
6520,51.0,24,48,3.0,127.0
6521,53.0,48,48,3.0,127.0
6522,55.0,48,48,3.0,127.0
6523,57.0,48,48,3.0,127.0
6524,59.0,48,48,3.0,127.0
6525,72.0,48,48,0.0,127.0
6526,60.0,48,96,3.0,127.0
6527,74.0,0,48,0.0,127.0
6528,75.0,48,48,0.0,127.0
6529,58.0,48,96,3.0,127.0
6530,74.0,48,48,0.0,127.0
6531,72.0,48,48,0.0,127.0
6532,57.0,0,96,3.0,127.0
6533,70.0,0,48,0.0,127.0
6534,55.0,48,96,3.0,127.0
6535,69.0,48,48,0.0,127.0
6536,77.0,0,24,0.0,127.0
6537,57.0,48,48,3.0,127.0
6538,75.0,24,24,0.0,127.0
6539,51.0,24,48,3.0,127.0
6540,53.0,48,48,3.0,127.0
6541,55.0,48,48,3.0,127.0
6542,77.0,0,144,0.0,127.0
6543,53.0,48,48,3.0,127.0
6544,51.0,48,48,3.0,127.0
6545,50.0,0,48,3.0,127.0
6546,48.0,48,48,3.0,127.0
6547,69.0,48,96,0.0,127.0
6548,50.0,48,48,3.0,127.0
6549,70.0,0,48,0.0,127.0
6550,48.0,48,48,3.0,127.0
6551,65.0,0,48,0.0,127.0
6552,50.0,48,48,3.0,127.0
6553,67.0,0,48,0.0,127.0
6554,69.0,0,48,0.0,127.0
6555,51.0,48,48,3.0,127.0
6556,50.0,0,48,3.0,127.0
6557,70.0,48,48,0.0,127.0
6558,74.0,48,48,0.0,127.0
6559,48.0,0,48,3.0,127.0
6560,72.0,0,48,0.0,127.0
6561,46.0,48,48,3.0,127.0
6562,75.0,0,48,0.0,127.0
6563,45.0,48,48,3.0,127.0
6564,74.0,0,48,0.0,127.0
6565,46.0,48,96,3.0,127.0
6566,70.0,48,48,0.0,127.0
6567,72.0,0,48,0.0,127.0
6568,74.0,48,48,0.0,127.0
6569,56.0,48,96,3.0,127.0
6570,75.0,0,48,0.0,127.0
6571,55.0,48,96,3.0,127.0
6572,79.0,48,48,0.0,127.0
6573,77.0,0,48,0.0,127.0
6574,80.0,48,48,0.0,127.0
6575,58.0,48,96,3.0,127.0
6576,79.0,48,48,0.0,127.0
6577,75.0,48,48,0.0,127.0
6578,51.0,0,96,3.0,127.0
6579,77.0,48,48,0.0,127.0
6580,49.0,0,96,3.0,127.0
6581,79.0,48,48,0.0,127.0
6582,80.0,48,48,0.0,127.0
6583,48.0,0,96,3.0,127.0
6584,79.0,48,48,0.0,127.0
6585,77.0,0,48,0.0,127.0
6586,51.0,48,96,3.0,127.0
6587,75.0,48,48,0.0,127.0
6588,73.0,0,48,0.0,127.0
6589,44.0,48,96,3.0,127.0
6590,70.0,48,48,0.0,127.0
6591,72.0,0,48,0.0,127.0
6592,56.0,48,96,3.0,127.0
6593,77.0,48,48,0.0,127.0
6594,75.0,0,48,0.0,127.0
6595,55.0,48,96,3.0,127.0
6596,74.0,48,48,0.0,127.0
6597,72.0,0,48,0.0,127.0
6598,51.0,48,96,3.0,127.0
6599,70.0,48,48,0.0,127.0
6600,68.0,0,48,0.0,127.0
6601,65.0,48,48,0.0,127.0
6602,50.0,48,96,3.0,127.0
6603,67.0,48,48,0.0,127.0
6604,75.0,48,48,0.0,127.0
6605,51.0,0,96,3.0,127.0
6606,74.0,48,48,0.0,127.0
6607,72.0,48,48,0.0,127.0
6608,56.0,0,96,3.0,127.0
6609,70.0,48,48,0.0,127.0
6610,68.0,48,48,0.0,127.0
6611,53.0,0,96,3.0,127.0
6612,67.0,48,48,0.0,127.0
6613,63.0,48,48,0.0,127.0
6614,65.0,48,24,0.0,127.0
6615,63.0,24,24,0.0,127.0
6616,58.0,0,144,3.0,127.0
6617,65.0,0,48,0.0,127.0
6618,60.0,24,48,3.0,127.0
6619,58.0,48,48,3.0,127.0
6620,56.0,48,48,3.0,127.0
6621,55.0,48,48,3.0,127.0
6622,53.0,48,48,3.0,127.0
6623,53.0,48,16,3.0,127.0
6624,51.0,16,16,3.0,127.0
6625,53.0,16,16,3.0,127.0
6626,70.0,0,48,0.0,127.0
6627,75.0,0,48,0.0,127.0
6628,74.0,48,48,0.0,127.0
6629,51.0,16,144,3.0,127.0
6630,72.0,48,48,0.0,127.0
6631,70.0,48,48,0.0,127.0
6632,68.0,48,48,0.0,127.0
6633,67.0,48,48,0.0,127.0
6634,65.0,48,0,0.0,127.0
6635,63.0,48,24,0.0,127.0
6636,51.0,0,48,3.0,127.0
6637,65.0,24,24,0.0,127.0
6638,63.0,0,24,0.0,127.0
6639,65.0,24,24,0.0,127.0
6640,62.0,24,48,3.0,127.0
6641,63.0,0,48,0.0,127.0
6642,60.0,24,48,3.0,127.0
6643,58.0,48,48,3.0,127.0
6644,56.0,48,48,3.0,127.0
6645,55.0,0,48,3.0,127.0
6646,65.0,48,96,0.0,127.0
6647,53.0,0,0,3.0,127.0
6648,51.0,16,16,3.0,127.0
6649,67.0,48,48,0.0,127.0
6650,53.0,16,16,3.0,127.0
6651,51.0,0,48,3.0,127.0
6652,72.0,16,48,0.0,127.0
6653,70.0,0,48,0.0,127.0
6654,55.0,48,96,3.0,127.0
6655,68.0,48,48,0.0,127.0
6656,67.0,0,48,0.0,127.0
6657,65.0,48,48,0.0,127.0
6658,51.0,48,96,3.0,127.0
6659,63.0,0,48,0.0,127.0
6660,61.0,48,48,0.0,127.0
6661,55.0,48,96,3.0,127.0
6662,60.0,48,48,0.0,127.0
6663,56.0,0,96,3.0,127.0
6664,61.0,48,48,0.0,127.0
6665,60.0,0,48,0.0,127.0
6666,51.0,48,96,3.0,127.0
6667,58.0,48,48,0.0,127.0
6668,56.0,48,48,0.0,127.0
6669,48.0,0,96,3.0,127.0
6670,60.0,48,48,0.0,127.0
6671,58.0,48,48,0.0,127.0
6672,61.0,48,48,0.0,127.0
6673,51.0,0,96,3.0,127.0
6674,60.0,48,48,0.0,127.0
6675,44.0,0,96,3.0,127.0
6676,65.0,48,48,0.0,127.0
6677,64.0,0,48,0.0,127.0
6678,65.0,48,48,0.0,127.0
6679,56.0,48,96,3.0,127.0
6680,68.0,48,48,0.0,127.0
6681,67.0,48,48,0.0,127.0
6682,53.0,0,96,3.0,127.0
6683,65.0,0,48,0.0,127.0
6684,63.0,48,48,0.0,127.0
6685,56.0,48,96,3.0,127.0
6686,62.0,0,48,0.0,127.0
6687,63.0,48,48,0.0,127.0
6688,62.0,48,48,0.0,127.0
6689,46.0,48,192,3.0,127.0
6690,60.0,48,48,0.0,127.0
6691,58.0,48,48,0.0,127.0
6692,62.0,48,48,0.0,127.0
6693,60.0,48,48,0.0,127.0
6694,63.0,48,48,0.0,127.0
6695,62.0,48,48,0.0,127.0
6696,67.0,48,48,0.0,127.0
6697,65.0,0,48,0.0,127.0
6698,67.0,48,48,0.0,127.0
6699,58.0,48,96,3.0,127.0
6700,70.0,48,48,0.0,127.0
6701,68.0,48,48,0.0,127.0
6702,55.0,0,96,3.0,127.0
6703,67.0,0,48,0.0,127.0
6704,65.0,48,48,0.0,127.0
6705,58.0,48,96,3.0,127.0
6706,63.0,48,48,0.0,127.0
6707,65.0,48,48,0.0,127.0
6708,63.0,48,48,0.0,127.0
6709,62.0,48,48,0.0,127.0
6710,48.0,0,192,3.0,127.0
6711,60.0,48,48,0.0,127.0
6712,63.0,48,48,0.0,127.0
6713,65.0,48,48,0.0,127.0
6714,67.0,48,48,0.0,127.0
6715,68.0,48,48,0.0,127.0
6716,72.0,48,48,0.0,127.0
6717,70.0,48,48,0.0,127.0
6718,56.0,0,96,3.0,127.0
6719,72.0,48,48,0.0,127.0
6720,75.0,48,48,0.0,127.0
6721,60.0,0,96,3.0,127.0
6722,73.0,48,48,0.0,127.0
6723,72.0,0,48,0.0,127.0
6724,63.0,48,96,3.0,127.0
6725,70.0,48,48,0.0,127.0
6726,68.0,48,48,0.0,127.0
6727,53.0,0,96,3.0,127.0
6728,72.0,48,48,0.0,127.0
6729,70.0,48,48,0.0,127.0
6730,72.0,48,48,0.0,127.0
6731,63.0,0,96,3.0,127.0
6732,77.0,0,48,0.0,127.0
6733,75.0,48,48,0.0,127.0
6734,62.0,48,96,3.0,127.0
6735,74.0,48,48,0.0,127.0
6736,72.0,48,48,0.0,127.0
6737,65.0,0,96,3.0,127.0
6738,70.0,48,48,0.0,127.0
6739,55.0,0,96,3.0,127.0
6740,68.0,48,48,0.0,127.0
6741,63.0,48,48,3.0,127.0
6742,67.0,0,48,0.0,127.0
6743,65.0,48,48,0.0,127.0
6744,62.0,0,48,3.0,127.0
6745,67.0,48,48,0.0,127.0
6746,63.0,0,96,3.0,127.0
6747,63.0,48,48,0.0,127.0
6748,65.0,0,48,0.0,127.0
6749,58.0,48,96,3.0,127.0
6750,62.0,48,48,0.0,127.0
6751,65.0,48,96,0.0,127.0
6752,51.0,0,96,3.0,127.0
6753,63.0,96,24,0.0,127.0
6754,65.0,24,24,0.0,127.0
6755,46.0,0,96,3.0,127.0
6756,39.0,48,192,3.0,127.0
6757,63.0,24,240,0.0,127.0
6758,74.0,192,48,0.0,127.0
6759,70.0,48,48,0.0,127.0
6760,72.0,48,48,0.0,127.0
6761,46.0,0,192,3.0,127.0
6762,74.0,48,48,0.0,127.0
6763,75.0,48,48,0.0,127.0
6764,77.0,48,48,0.0,127.0
6765,79.0,48,48,0.0,127.0
6766,80.0,0,0,0.0,127.0
6767,51.0,48,48,3.0,127.0
6768,79.0,0,24,0.0,127.0
6769,48.0,48,48,3.0,127.0
6770,80.0,24,24,0.0,127.0
6771,79.0,24,24,0.0,127.0
6772,50.0,0,48,3.0,127.0
6773,80.0,24,24,0.0,127.0
6774,51.0,24,48,3.0,127.0
6775,79.0,0,48,0.0,127.0
6776,53.0,48,48,3.0,127.0
6777,55.0,48,48,3.0,127.0
6778,57.0,0,48,3.0,127.0
6779,77.0,48,96,0.0,127.0
6780,59.0,48,48,3.0,127.0
6781,75.0,48,48,0.0,127.0
6782,72.0,48,48,0.0,127.0
6783,60.0,0,96,3.0,127.0
6784,71.0,48,48,0.0,127.0
6785,72.0,48,48,0.0,127.0
6786,56.0,0,96,3.0,127.0
6787,80.0,48,48,0.0,127.0
6788,53.0,0,96,3.0,127.0
6789,72.0,48,48,0.0,127.0
6790,71.0,0,48,0.0,127.0
6791,72.0,48,48,0.0,127.0
6792,56.0,48,96,3.0,127.0
6793,74.0,48,48,0.0,127.0
6794,72.0,48,48,0.0,127.0
6795,71.0,48,48,0.0,127.0
6796,55.0,0,192,3.0,127.0
6797,69.0,48,48,0.0,127.0
6798,67.0,48,48,0.0,127.0
6799,65.0,48,48,0.0,127.0
6800,64.0,48,48,0.0,127.0
6801,62.0,48,48,0.0,127.0
6802,72.0,48,48,0.0,127.0
6803,63.0,48,96,1.0,127.0
6804,71.0,48,48,0.0,127.0
6805,72.0,48,48,0.0,127.0
6806,67.0,0,96,1.0,127.0
6807,74.0,48,48,0.0,127.0
6808,72.0,48,48,0.0,127.0
6809,63.0,0,96,1.0,127.0
6810,71.0,48,48,0.0,127.0
6811,72.0,48,48,0.0,127.0
6812,67.0,0,96,1.0,127.0
6813,80.0,48,48,0.0,127.0
6814,77.0,48,48,0.0,127.0
6815,53.0,0,96,3.0,127.0
6816,72.0,48,96,0.0,127.0
6817,70.0,48,48,1.0,127.0
6818,68.0,48,48,1.0,127.0
6819,67.0,48,48,1.0,127.0
6820,65.0,48,48,1.0,127.0
6821,63.0,48,48,1.0,127.0
6822,62.0,48,96,1.0,127.0
6823,70.0,48,48,0.0,127.0
6824,69.0,0,48,0.0,127.0
6825,65.0,48,96,1.0,127.0
6826,70.0,48,48,0.0,127.0
6827,72.0,0,48,0.0,127.0
6828,62.0,48,96,1.0,127.0
6829,70.0,48,48,0.0,127.0
6830,69.0,0,48,0.0,127.0
6831,70.0,48,48,0.0,127.0
6832,65.0,48,96,1.0,127.0
6833,79.0,48,48,0.0,127.0
6834,51.0,0,96,3.0,127.0
6835,75.0,48,48,0.0,127.0
6836,68.0,48,48,1.0,127.0
6837,70.0,48,96,0.0,127.0
6838,67.0,48,48,1.0,127.0
6839,65.0,48,48,1.0,127.0
6840,63.0,48,48,1.0,127.0
6841,62.0,48,48,1.0,127.0
6842,60.0,48,48,1.0,127.0
6843,70.0,48,48,1.0,127.0
6844,68.0,0,48,1.0,127.0
6845,77.0,48,48,0.0,127.0
6846,67.0,0,48,1.0,127.0
6847,75.0,48,48,0.0,127.0
6848,65.0,48,48,1.0,127.0
6849,74.0,0,48,0.0,127.0
6850,63.0,48,48,1.0,127.0
6851,75.0,0,48,0.0,127.0
6852,62.0,48,48,1.0,127.0
6853,60.0,48,48,1.0,127.0
6854,59.0,48,48,1.0,127.0
6855,77.0,0,192,0.0,127.0
6856,68.0,48,48,1.0,127.0
6857,75.0,48,48,0.0,127.0
6858,67.0,0,48,1.0,127.0
6859,65.0,48,48,1.0,127.0
6860,74.0,0,48,0.0,127.0
6861,72.0,0,48,0.0,127.0
6862,63.0,48,48,1.0,127.0
6863,62.0,0,48,1.0,127.0
6864,74.0,48,48,0.0,127.0
6865,60.0,0,48,1.0,127.0
6866,58.0,48,48,1.0,127.0
6867,56.0,48,48,3.0,127.0
6868,75.0,48,192,0.0,127.0
6869,55.0,48,48,3.0,127.0
6870,74.0,48,48,0.0,127.0
6871,56.0,0,48,3.0,127.0
6872,72.0,0,48,0.0,127.0
6873,53.0,48,48,3.0,127.0
6874,79.0,48,48,0.0,127.0
6875,77.0,48,48,0.0,127.0
6876,55.0,0,96,3.0,127.0
6877,75.0,0,48,0.0,127.0
6878,43.0,48,96,3.0,127.0
6879,74.0,48,48,0.0,127.0
6880,48.0,48,48,3.0,127.0
6881,74.0,48,96,0.0,127.0
6882,72.0,0,12,0.0,127.0
6883,74.0,12,12,0.0,127.0
6884,50.0,48,48,3.0,127.0
6885,51.0,24,48,3.0,127.0
6886,72.0,12,72,0.0,127.0
6887,53.0,48,48,3.0,127.0
6888,55.0,48,48,3.0,127.0
6889,57.0,48,48,3.0,127.0
6890,59.0,48,48,3.0,127.0
6891,72.0,48,48,0.0,127.0
6892,60.0,48,96,3.0,127.0
6893,74.0,48,48,0.0,127.0
6894,58.0,0,96,3.0,127.0
6895,75.0,48,48,0.0,127.0
6896,74.0,0,48,0.0,127.0
6897,57.0,48,96,3.0,127.0
6898,72.0,48,48,0.0,127.0
6899,70.0,0,48,0.0,127.0
6900,69.0,48,48,0.0,127.0
6901,55.0,48,96,3.0,127.0
6902,77.0,48,24,0.0,127.0
6903,75.0,24,24,0.0,127.0
6904,57.0,0,48,3.0,127.0
6905,51.0,24,48,3.0,127.0
6906,53.0,48,48,3.0,127.0
6907,55.0,48,48,3.0,127.0
6908,77.0,0,144,0.0,127.0
6909,53.0,48,48,3.0,127.0
6910,51.0,48,48,3.0,127.0
6911,50.0,48,48,3.0,127.0
6912,69.0,0,96,0.0,127.0
6913,48.0,48,48,3.0,127.0
6914,50.0,48,48,3.0,127.0
6915,70.0,0,48,0.0,127.0
6916,48.0,48,48,3.0,127.0
6917,65.0,0,48,0.0,127.0
6918,67.0,0,48,0.0,127.0
6919,50.0,48,48,3.0,127.0
6920,69.0,48,48,0.0,127.0
6921,51.0,0,48,3.0,127.0
6922,70.0,48,48,0.0,127.0
6923,50.0,0,48,3.0,127.0
6924,48.0,0,48,3.0,127.0
6925,74.0,48,48,0.0,127.0
6926,46.0,48,48,3.0,127.0
6927,72.0,0,48,0.0,127.0
6928,45.0,48,48,3.0,127.0
6929,75.0,0,48,0.0,127.0
6930,74.0,48,48,0.0,127.0
6931,46.0,0,96,3.0,127.0
6932,70.0,48,48,0.0,127.0
6933,72.0,0,48,0.0,127.0
6934,56.0,48,96,3.0,127.0
6935,74.0,48,48,0.0,127.0
6936,75.0,0,48,0.0,127.0
6937,79.0,48,48,0.0,127.0
6938,55.0,48,96,3.0,127.0
6939,77.0,48,48,0.0,127.0
6940,58.0,0,96,3.0,127.0
6941,80.0,48,48,0.0,127.0
6942,79.0,48,48,0.0,127.0
6943,75.0,48,48,0.0,127.0
6944,51.0,0,96,3.0,127.0
6945,77.0,48,48,0.0,127.0
6946,79.0,48,48,0.0,127.0
6947,49.0,0,96,3.0,127.0
6948,80.0,0,48,0.0,127.0
6949,48.0,48,96,3.0,127.0
6950,79.0,48,48,0.0,127.0
6951,77.0,0,48,0.0,127.0
6952,75.0,48,48,0.0,127.0
6953,51.0,48,96,3.0,127.0
6954,73.0,48,48,0.0,127.0
6955,70.0,48,48,0.0,127.0
6956,44.0,0,96,3.0,127.0
6957,72.0,48,48,0.0,127.0
6958,56.0,0,96,3.0,127.0
6959,77.0,48,48,0.0,127.0
6960,75.0,48,48,0.0,127.0
6961,74.0,48,48,0.0,127.0
6962,55.0,0,96,3.0,127.0
6963,72.0,0,48,0.0,127.0
6964,70.0,48,48,0.0,127.0
6965,51.0,48,96,3.0,127.0
6966,68.0,48,48,0.0,127.0
6967,50.0,0,96,3.0,127.0
6968,65.0,48,48,0.0,127.0
6969,67.0,0,48,0.0,127.0
6970,51.0,48,96,3.0,127.0
6971,75.0,48,48,0.0,127.0
6972,74.0,48,48,0.0,127.0
6973,56.0,0,96,3.0,127.0
6974,72.0,48,48,0.0,127.0
6975,70.0,0,48,0.0,127.0
6976,68.0,48,48,0.0,127.0
6977,53.0,48,96,3.0,127.0
6978,67.0,48,48,0.0,127.0
6979,63.0,48,48,0.0,127.0
6980,65.0,48,24,0.0,127.0
6981,58.0,0,144,3.0,127.0
6982,63.0,24,24,0.0,127.0
6983,65.0,0,48,0.0,127.0
6984,60.0,24,48,3.0,127.0
6985,58.0,48,48,3.0,127.0
6986,56.0,48,48,3.0,127.0
6987,55.0,48,48,3.0,127.0
6988,53.0,48,48,3.0,127.0
6989,53.0,48,16,3.0,127.0
6990,51.0,16,16,3.0,127.0
6991,53.0,16,16,3.0,127.0
6992,70.0,0,48,0.0,127.0
6993,75.0,16,48,0.0,127.0
6994,74.0,48,48,0.0,127.0
6995,72.0,48,48,0.0,127.0
6996,51.0,0,144,3.0,127.0
6997,70.0,48,48,0.0,127.0
6998,68.0,48,48,0.0,127.0
6999,67.0,48,48,0.0,127.0
7000,65.0,48,0,0.0,127.0
7001,63.0,0,24,0.0,127.0
7002,51.0,48,48,3.0,127.0
7003,65.0,24,24,0.0,127.0
7004,63.0,0,24,0.0,127.0
7005,65.0,24,24,0.0,127.0
7006,62.0,24,48,3.0,127.0
7007,63.0,0,48,0.0,127.0
7008,60.0,24,48,3.0,127.0
7009,58.0,48,48,3.0,127.0
7010,56.0,48,48,3.0,127.0
7011,55.0,0,48,3.0,127.0
7012,53.0,48,48,3.0,127.0
7013,65.0,48,96,0.0,127.0
7014,53.0,0,16,3.0,127.0
7015,51.0,16,16,3.0,127.0
7016,53.0,16,16,3.0,127.0
7017,67.0,48,48,0.0,127.0
7018,51.0,16,48,3.0,127.0
7019,72.0,0,48,0.0,127.0
7020,70.0,0,48,0.0,127.0
7021,55.0,48,96,3.0,127.0
7022,68.0,48,48,0.0,127.0
7023,67.0,48,48,0.0,127.0
7024,51.0,0,96,3.0,127.0
7025,65.0,48,48,0.0,127.0
7026,63.0,0,48,0.0,127.0
7027,55.0,48,96,3.0,127.0
7028,61.0,48,48,0.0,127.0
7029,60.0,48,48,0.0,127.0
7030,56.0,0,96,3.0,127.0
7031,61.0,48,48,0.0,127.0
7032,60.0,0,48,0.0,127.0
7033,51.0,48,96,3.0,127.0
7034,58.0,48,48,0.0,127.0
7035,56.0,0,48,0.0,127.0
7036,48.0,48,96,3.0,127.0
7037,60.0,48,48,0.0,127.0
7038,58.0,48,48,0.0,127.0
7039,61.0,48,48,0.0,127.0
7040,51.0,0,96,3.0,127.0
7041,60.0,48,48,0.0,127.0
7042,65.0,48,48,0.0,127.0
7043,44.0,0,96,3.0,127.0
7044,64.0,0,48,0.0,127.0
7045,65.0,48,48,0.0,127.0
7046,56.0,48,96,3.0,127.0
7047,68.0,48,48,0.0,127.0
7048,53.0,0,96,3.0,127.0
7049,67.0,48,48,0.0,127.0
7050,65.0,0,48,0.0,127.0
7051,56.0,48,96,3.0,127.0
7052,63.0,48,48,0.0,127.0
7053,62.0,0,48,0.0,127.0
7054,63.0,48,48,0.0,127.0
7055,62.0,48,48,0.0,127.0
7056,46.0,48,192,3.0,127.0
7057,60.0,48,48,0.0,127.0
7058,58.0,48,48,0.0,127.0
7059,62.0,48,48,0.0,127.0
7060,60.0,48,48,0.0,127.0
7061,63.0,48,48,0.0,127.0
7062,62.0,48,48,0.0,127.0
7063,67.0,48,48,0.0,127.0
7064,65.0,48,48,0.0,127.0
7065,58.0,0,96,3.0,127.0
7066,67.0,48,48,0.0,127.0
7067,70.0,48,48,0.0,127.0
7068,55.0,0,96,3.0,127.0
7069,68.0,48,48,0.0,127.0
7070,67.0,48,48,0.0,127.0
7071,65.0,48,48,0.0,127.0
7072,58.0,0,96,3.0,127.0
7073,63.0,0,48,0.0,127.0
7074,65.0,48,48,0.0,127.0
7075,63.0,48,48,0.0,127.0
7076,62.0,48,48,0.0,127.0
7077,48.0,48,192,3.0,127.0
7078,60.0,48,48,0.0,127.0
7079,63.0,48,48,0.0,127.0
7080,65.0,48,48,0.0,127.0
7081,67.0,48,48,0.0,127.0
7082,68.0,48,48,0.0,127.0
7083,72.0,48,48,0.0,127.0
7084,70.0,0,48,0.0,127.0
7085,56.0,48,96,3.0,127.0
7086,72.0,48,48,0.0,127.0
7087,75.0,48,48,0.0,127.0
7088,60.0,0,96,3.0,127.0
7089,73.0,48,48,0.0,127.0
7090,72.0,0,48,0.0,127.0
7091,70.0,48,48,0.0,127.0
7092,63.0,48,96,3.0,127.0
7093,68.0,48,48,0.0,127.0
7094,72.0,48,48,0.0,127.0
7095,53.0,0,96,3.0,127.0
7096,70.0,48,48,0.0,127.0
7097,72.0,48,48,0.0,127.0
7098,63.0,0,96,3.0,127.0
7099,77.0,0,48,0.0,127.0
7100,62.0,48,96,3.0,127.0
7101,75.0,48,48,0.0,127.0
7102,74.0,48,48,0.0,127.0
7103,65.0,0,96,3.0,127.0
7104,72.0,48,48,0.0,127.0
7105,70.0,48,48,0.0,127.0
7106,55.0,0,96,3.0,127.0
7107,68.0,48,48,0.0,127.0
7108,63.0,48,48,3.0,127.0
7109,67.0,0,48,0.0,127.0
7110,62.0,0,48,3.0,127.0
7111,65.0,48,48,0.0,127.0
7112,67.0,0,48,0.0,127.0
7113,63.0,48,48,0.0,127.0
7114,63.0,48,96,3.0,127.0
7115,65.0,48,48,0.0,127.0
7116,58.0,0,96,3.0,127.0
7117,62.0,48,48,0.0,127.0
7118,51.0,48,96,3.0,127.0
7119,65.0,0,96,0.0,127.0
7120,63.0,96,24,0.0,127.0
7121,65.0,24,24,0.0,127.0
7122,46.0,0,96,3.0,127.0
7123,39.0,48,192,3.0,127.0
7124,63.0,24,240,0.0,127.0
7125,70.0,576,24,1.0,127.0
7126,68.0,24,24,1.0,127.0
7127,70.0,24,144,1.0,127.0
7128,75.0,144,32,1.0,127.0
7129,70.0,96,192,1.0,127.0
7130,75.0,192,32,1.0,127.0
7131,70.0,96,96,1.0,127.0
7132,68.0,96,96,1.0,127.0
7133,67.0,96,96,1.0,127.0
7134,68.0,96,96,1.0,127.0
7135,67.0,96,96,1.0,127.0
7136,65.0,96,96,1.0,127.0
7137,75.0,0,24,0.0,127.0
7138,74.0,24,24,0.0,127.0
7139,67.0,96,96,1.0,127.0
7140,75.0,24,144,0.0,127.0
7141,70.0,48,96,1.0,127.0
7142,82.0,96,32,0.0,127.0
7143,68.0,0,96,1.0,127.0
7144,67.0,0,96,1.0,127.0
7145,65.0,96,96,1.0,127.0
7146,75.0,96,192,0.0,127.0
7147,82.0,0,32,0.0,127.0
7148,63.0,96,96,1.0,127.0
7149,77.0,0,96,0.0,127.0
7150,62.0,96,192,1.0,127.0
7151,75.0,96,96,0.0,127.0
7152,70.0,0,32,1.0,127.0
7153,74.0,96,96,0.0,127.0
7154,75.0,96,96,0.0,127.0
7155,74.0,96,96,0.0,127.0
7156,60.0,0,192,1.0,127.0
7157,69.0,0,32,1.0,127.0
7158,72.0,96,96,0.0,127.0
7159,58.0,0,192,3.0,127.0
7160,74.0,96,192,0.0,127.0
7161,79.0,0,32,0.0,127.0
7162,63.0,96,32,3.0,127.0
7163,70.0,96,192,1.0,127.0
7164,58.0,96,192,3.0,127.0
7165,74.0,0,192,0.0,127.0
7166,63.0,96,32,3.0,127.0
7167,79.0,0,32,0.0,127.0
7168,70.0,96,192,1.0,127.0
7169,58.0,0,96,3.0,127.0
7170,77.0,96,192,0.0,127.0
7171,56.0,96,96,3.0,127.0
7172,82.0,96,32,0.0,127.0
7173,74.0,0,192,1.0,127.0
7174,55.0,0,96,3.0,127.0
7175,56.0,0,96,3.0,127.0
7176,55.0,0,96,3.0,127.0
7177,77.0,96,192,0.0,127.0
7178,82.0,0,32,0.0,127.0
7179,53.0,96,96,3.0,127.0
7180,74.0,96,192,1.0,127.0
7181,55.0,96,96,3.0,127.0
7182,75.0,0,96,0.0,127.0
7183,53.0,96,96,3.0,127.0
7184,74.0,0,96,0.0,127.0
7185,82.0,0,32,0.0,127.0
7186,51.0,96,96,3.0,127.0
7187,75.0,0,96,0.0,127.0
7188,55.0,96,96,3.0,127.0
7189,74.0,0,96,0.0,127.0
7190,53.0,96,96,3.0,127.0
7191,82.0,96,32,0.0,127.0
7192,51.0,0,96,3.0,127.0
7193,56.0,0,96,3.0,127.0
7194,72.0,96,96,0.0,127.0
7195,74.0,0,96,0.0,127.0
7196,51.0,96,96,3.0,127.0
7197,60.0,96,32,3.0,127.0
7198,75.0,0,96,0.0,127.0
7199,56.0,0,96,3.0,127.0
7200,77.0,96,96,0.0,127.0
7201,79.0,96,96,0.0,127.0
7202,51.0,0,96,3.0,127.0
7203,60.0,0,32,3.0,127.0
7204,80.0,96,96,0.0,127.0
7205,74.0,96,96,0.0,127.0
7206,53.0,0,96,3.0,127.0
7207,72.0,96,96,0.0,127.0
7208,51.0,0,96,3.0,127.0
7209,80.0,96,32,0.0,127.0
7210,50.0,0,96,3.0,127.0
7211,74.0,0,96,0.0,127.0
7212,53.0,96,96,3.0,127.0
7213,72.0,96,96,0.0,127.0
7214,51.0,0,96,3.0,127.0
7215,80.0,96,32,0.0,127.0
7216,50.0,0,96,3.0,127.0
7217,55.0,0,96,3.0,127.0
7218,70.0,96,96,0.0,127.0
7219,72.0,0,96,0.0,127.0
7220,50.0,96,96,3.0,127.0
7221,58.0,96,32,3.0,127.0
7222,74.0,0,96,0.0,127.0
7223,75.0,96,96,0.0,127.0
7224,55.0,0,96,3.0,127.0
7225,50.0,96,96,3.0,127.0
7226,77.0,0,96,0.0,127.0
7227,58.0,96,32,3.0,127.0
7228,79.0,0,96,0.0,127.0
7229,51.0,96,96,3.0,127.0
7230,72.0,0,96,0.0,127.0
7231,70.0,96,96,0.0,127.0
7232,50.0,0,96,3.0,127.0
7233,79.0,96,32,0.0,127.0
7234,48.0,0,96,3.0,127.0
7235,72.0,0,96,0.0,127.0
7236,51.0,96,96,3.0,127.0
7237,50.0,96,96,3.0,127.0
7238,70.0,0,96,0.0,127.0
7239,79.0,0,32,0.0,127.0
7240,48.0,96,96,3.0,127.0
7241,68.0,96,96,0.0,127.0
7242,53.0,0,96,3.0,127.0
7243,70.0,96,96,0.0,127.0
7244,48.0,0,96,3.0,127.0
7245,56.0,0,32,3.0,127.0
7246,72.0,96,96,0.0,127.0
7247,74.0,0,96,0.0,127.0
7248,53.0,96,96,3.0,127.0
7249,48.0,96,96,3.0,127.0
7250,75.0,0,96,0.0,127.0
7251,56.0,96,32,3.0,127.0
7252,77.0,0,96,0.0,127.0
7253,50.0,96,96,3.0,127.0
7254,70.0,0,96,0.0,127.0
7255,68.0,0,96,0.0,127.0
7256,48.0,96,96,3.0,127.0
7257,77.0,0,32,0.0,127.0
7258,46.0,96,96,3.0,127.0
7259,50.0,0,96,3.0,127.0
7260,70.0,96,96,0.0,127.0
7261,48.0,96,96,3.0,127.0
7262,68.0,0,96,0.0,127.0
7263,77.0,0,32,0.0,127.0
7264,46.0,96,96,3.0,127.0
7265,67.0,96,96,0.0,127.0
7266,51.0,0,96,3.0,127.0
7267,46.0,96,96,3.0,127.0
7268,68.0,0,96,0.0,127.0
7269,55.0,96,32,3.0,127.0
7270,70.0,96,0,0.0,127.0
7271,51.0,0,96,3.0,127.0
7272,46.0,0,96,3.0,127.0
7273,72.0,96,96,0.0,127.0
7274,55.0,96,32,3.0,127.0
7275,74.0,0,96,0.0,127.0
7276,75.0,0,96,0.0,127.0
7277,48.0,96,192,3.0,127.0
7278,67.0,96,96,0.0,127.0
7279,55.0,96,32,3.0,127.0
7280,72.0,0,32,0.0,127.0
7281,75.0,96,96,0.0,127.0
7282,48.0,0,192,3.0,127.0
7283,67.0,96,96,0.0,127.0
7284,72.0,0,32,0.0,127.0
7285,55.0,96,32,3.0,127.0
7286,46.0,96,96,3.0,127.0
7287,45.0,96,96,3.0,127.0
7288,72.0,96,96,1.0,127.0
7289,43.0,0,96,3.0,127.0
7290,45.0,0,96,3.0,127.0
7291,75.0,0,480,0.0,127.0
7292,43.0,96,96,3.0,127.0
7293,65.0,96,288,1.0,127.0
7294,75.0,0,96,0.0,127.0
7295,41.0,96,96,3.0,127.0
7296,74.0,0,96,0.0,127.0
7297,77.0,96,96,0.0,127.0
7298,46.0,96,192,3.0,127.0
7299,58.0,96,32,3.0,127.0
7300,74.0,0,96,0.0,127.0
7301,70.0,0,96,0.0,127.0
7302,53.0,96,192,3.0,127.0
7303,74.0,96,96,0.0,127.0
7304,58.0,96,32,3.0,127.0
7305,77.0,0,96,0.0,127.0
7306,51.0,0,96,3.0,127.0
7307,50.0,96,96,3.0,127.0
7308,77.0,96,96,1.0,127.0
7309,48.0,0,96,3.0,127.0
7310,50.0,96,96,3.0,127.0
7311,80.0,96,480,0.0,127.0
7312,48.0,96,96,3.0,127.0
7313,80.0,96,96,0.0,127.0
7314,46.0,0,96,3.0,127.0
7315,70.0,0,288,1.0,127.0
7316,79.0,0,96,0.0,127.0
7317,82.0,96,48,0.0,127.0
7318,51.0,96,192,3.0,127.0
7319,80.0,48,48,0.0,127.0
7320,63.0,0,32,3.0,127.0
7321,79.0,48,48,0.0,127.0
7322,77.0,48,48,0.0,127.0
7323,75.0,48,96,0.0,127.0
7324,79.0,96,48,0.0,127.0
7325,60.0,0,192,3.0,127.0
7326,77.0,48,48,0.0,127.0
7327,63.0,48,32,3.0,127.0
7328,75.0,0,48,0.0,127.0
7329,74.0,48,48,0.0,127.0
7330,58.0,0,96,3.0,127.0
7331,72.0,48,96,0.0,127.0
7332,74.0,0,96,0.0,127.0
7333,57.0,96,96,3.0,127.0
7334,55.0,0,96,3.0,127.0
7335,75.0,96,96,0.0,127.0
7336,57.0,0,96,3.0,127.0
7337,55.0,96,96,3.0,127.0
7338,65.0,96,192,0.0,127.0
7339,72.0,0,24,0.0,127.0
7340,74.0,24,24,0.0,127.0
7341,75.0,24,48,0.0,127.0
7342,53.0,96,96,3.0,127.0
7343,74.0,48,96,0.0,127.0
7344,72.0,96,96,0.0,127.0
7345,58.0,0,192,3.0,127.0
7346,50.0,96,96,3.0,127.0
7347,70.0,96,0,0.0,127.0
7348,72.0,96,96,0.0,127.0
7349,51.0,0,192,3.0,127.0
7350,69.0,96,96,0.0,127.0
7351,53.0,0,96,3.0,127.0
7352,46.0,0,96,3.0,127.0
7353,70.0,96,96,0.0,127.0
7354,53.0,96,96,3.0,127.0
7355,72.0,0,96,0.0,127.0
7356,58.0,96,32,3.0,127.0
7357,74.0,0,96,0.0,127.0
7358,53.0,96,96,3.0,127.0
7359,74.0,0,96,0.0,127.0
7360,75.0,0,96,0.0,127.0
7361,50.0,96,96,3.0,127.0
7362,58.0,0,32,3.0,127.0
7363,77.0,96,96,0.0,127.0
7364,79.0,0,24,0.0,127.0
7365,77.0,24,24,0.0,127.0
7366,79.0,24,24,0.0,127.0
7367,77.0,24,24,0.0,127.0
7368,53.0,96,96,3.0,127.0
7369,79.0,0,24,0.0,127.0
7370,55.0,24,48,3.0,127.0
7371,77.0,24,24,0.0,127.0
7372,79.0,0,24,0.0,127.0
7373,77.0,24,24,0.0,127.0
7374,53.0,24,48,3.0,127.0
7375,79.0,24,24,0.0,127.0
7376,77.0,24,24,0.0,127.0
7377,51.0,0,48,3.0,127.0
7378,79.0,0,24,0.0,127.0
7379,77.0,24,24,0.0,127.0
7380,50.0,24,48,3.0,127.0
7381,79.0,0,24,0.0,127.0
7382,77.0,24,24,0.0,127.0
7383,79.0,24,24,0.0,127.0
7384,77.0,24,24,0.0,127.0
7385,51.0,24,96,3.0,127.0
7386,79.0,24,24,0.0,127.0
7387,53.0,0,48,3.0,127.0
7388,77.0,24,24,0.0,127.0
7389,79.0,0,24,0.0,127.0
7390,77.0,24,24,0.0,127.0
7391,51.0,24,48,3.0,127.0
7392,79.0,24,24,0.0,127.0
7393,50.0,0,48,3.0,127.0
7394,77.0,24,24,0.0,127.0
7395,79.0,24,24,0.0,127.0
7396,48.0,0,48,3.0,127.0
7397,50.0,24,96,3.0,127.0
7398,53.0,96,48,3.0,127.0
7399,77.0,24,216,0.0,127.0
7400,51.0,48,48,3.0,127.0
7401,82.0,48,32,0.0,127.0
7402,50.0,0,48,3.0,127.0
7403,48.0,48,48,3.0,127.0
7404,50.0,0,96,3.0,127.0
7405,53.0,96,48,3.0,127.0
7406,51.0,48,48,3.0,127.0
7407,77.0,48,192,0.0,127.0
7408,82.0,48,32,0.0,127.0
7409,50.0,0,48,3.0,127.0
7410,48.0,48,48,3.0,127.0
7411,77.0,0,96,0.0,127.0
7412,50.0,48,96,3.0,127.0
7413,79.0,96,48,0.0,127.0
7414,77.0,48,48,0.0,127.0
7415,46.0,0,96,3.0,127.0
7416,50.0,0,32,3.0,127.0
7417,75.0,48,48,0.0,127.0
7418,74.0,48,48,0.0,127.0
7419,75.0,0,96,0.0,127.0
7420,53.0,48,96,3.0,127.0
7421,77.0,0,48,0.0,127.0
7422,50.0,96,96,3.0,127.0
7423,75.0,48,48,0.0,127.0
7424,53.0,48,32,3.0,127.0
7425,74.0,0,48,0.0,127.0
7426,72.0,48,48,0.0,127.0
7427,62.0,96,32,1.0,127.0
7428,65.0,96,32,1.0,127.0
7429,70.0,96,288,1.0,127.0
7430,70.0,0,576,0.0,127.0
7431,58.0,48,576,3.0,127.0
7432,70.0,288,24,1.0,127.0
7433,68.0,24,24,1.0,127.0
7434,70.0,24,144,1.0,127.0
7435,75.0,144,32,1.0,127.0
7436,70.0,96,192,1.0,127.0
7437,75.0,192,32,1.0,127.0
7438,70.0,96,96,1.0,127.0
7439,68.0,96,96,1.0,127.0
7440,67.0,96,96,1.0,127.0
7441,68.0,96,96,1.0,127.0
7442,67.0,96,96,1.0,127.0
7443,65.0,96,96,1.0,127.0
7444,75.0,0,24,0.0,127.0
7445,74.0,24,24,0.0,127.0
7446,67.0,96,96,1.0,127.0
7447,75.0,24,144,0.0,127.0
7448,70.0,48,96,1.0,127.0
7449,82.0,96,32,0.0,127.0
7450,68.0,0,96,1.0,127.0
7451,67.0,96,96,1.0,127.0
7452,75.0,0,192,0.0,127.0
7453,65.0,96,96,1.0,127.0
7454,82.0,96,32,0.0,127.0
7455,63.0,0,96,1.0,127.0
7456,77.0,96,96,0.0,127.0
7457,75.0,96,96,0.0,127.0
7458,62.0,0,192,1.0,127.0
7459,70.0,0,32,1.0,127.0
7460,74.0,96,96,0.0,127.0
7461,75.0,96,96,0.0,127.0
7462,74.0,96,96,0.0,127.0
7463,60.0,0,192,1.0,127.0
7464,69.0,0,32,1.0,127.0
7465,72.0,96,96,0.0,127.0
7466,74.0,96,192,0.0,127.0
7467,58.0,0,192,3.0,127.0
7468,63.0,96,32,3.0,127.0
7469,79.0,0,32,0.0,127.0
7470,70.0,96,192,1.0,127.0
7471,58.0,0,192,3.0,127.0
7472,74.0,96,192,0.0,127.0
7473,79.0,96,32,0.0,127.0
7474,63.0,0,32,3.0,127.0
7475,70.0,96,192,1.0,127.0
7476,58.0,96,96,3.0,127.0
7477,56.0,96,96,3.0,127.0
7478,77.0,0,192,0.0,127.0
7479,82.0,0,32,0.0,127.0
7480,74.0,0,192,1.0,127.0
7481,55.0,96,96,3.0,127.0
7482,56.0,0,96,3.0,127.0
7483,55.0,0,96,3.0,127.0
7484,77.0,96,192,0.0,127.0
7485,82.0,96,32,0.0,127.0
7486,74.0,96,192,1.0,127.0
7487,53.0,0,96,3.0,127.0
7488,75.0,96,96,0.0,127.0
7489,55.0,0,96,3.0,127.0
7490,74.0,96,96,0.0,127.0
7491,53.0,0,96,3.0,127.0
7492,82.0,96,32,0.0,127.0
7493,51.0,0,96,3.0,127.0
7494,55.0,0,96,3.0,127.0
7495,75.0,96,96,0.0,127.0
7496,53.0,0,96,3.0,127.0
7497,74.0,96,96,0.0,127.0
7498,82.0,96,32,0.0,127.0
7499,51.0,0,96,3.0,127.0
7500,72.0,0,96,0.0,127.0
7501,56.0,96,96,3.0,127.0
7502,51.0,0,96,3.0,127.0
7503,74.0,96,96,0.0,127.0
7504,60.0,96,32,3.0,127.0
7505,75.0,0,96,0.0,127.0
7506,56.0,96,96,3.0,127.0
7507,77.0,0,96,0.0,127.0
7508,79.0,96,96,0.0,127.0
7509,51.0,0,96,3.0,127.0
7510,60.0,0,32,3.0,127.0
7511,80.0,96,96,0.0,127.0
7512,74.0,96,96,0.0,127.0
7513,53.0,0,96,3.0,127.0
7514,51.0,0,96,3.0,127.0
7515,72.0,96,96,0.0,127.0
7516,80.0,96,32,0.0,127.0
7517,50.0,0,96,3.0,127.0
7518,53.0,96,96,3.0,127.0
7519,74.0,0,96,0.0,127.0
7520,72.0,0,96,0.0,127.0
7521,51.0,96,96,3.0,127.0
7522,80.0,0,32,0.0,127.0
7523,50.0,96,96,3.0,127.0
7524,55.0,0,96,3.0,127.0
7525,70.0,96,96,0.0,127.0
7526,72.0,96,96,0.0,127.0
7527,50.0,0,96,3.0,127.0
7528,58.0,0,32,3.0,127.0
7529,74.0,96,96,0.0,127.0
7530,75.0,96,96,0.0,127.0
7531,55.0,0,96,3.0,127.0
7532,50.0,96,96,3.0,127.0
7533,77.0,0,96,0.0,127.0
7534,58.0,0,32,3.0,127.0
7535,79.0,96,96,0.0,127.0
7536,72.0,96,96,0.0,127.0
7537,51.0,0,96,3.0,127.0
7538,50.0,0,96,3.0,127.0
7539,70.0,96,96,0.0,127.0
7540,79.0,96,32,0.0,127.0
7541,48.0,0,96,3.0,127.0
7542,51.0,96,96,3.0,127.0
7543,72.0,0,96,0.0,127.0
7544,70.0,96,96,0.0,127.0
7545,50.0,0,96,3.0,127.0
7546,79.0,96,32,0.0,127.0
7547,48.0,0,96,3.0,127.0
7548,68.0,96,96,0.0,127.0
7549,53.0,0,96,3.0,127.0
7550,48.0,96,96,3.0,127.0
7551,70.0,0,96,0.0,127.0
7552,56.0,96,32,3.0,127.0
7553,72.0,0,96,0.0,127.0
7554,53.0,96,96,3.0,127.0
7555,74.0,0,96,0.0,127.0
7556,48.0,96,96,3.0,127.0
7557,75.0,0,96,0.0,127.0
7558,56.0,96,32,3.0,127.0
7559,77.0,0,96,0.0,127.0
7560,50.0,0,96,3.0,127.0
7561,70.0,96,96,0.0,127.0
7562,68.0,0,96,0.0,127.0
7563,48.0,96,96,3.0,127.0
7564,77.0,96,32,0.0,127.0
7565,46.0,0,96,3.0,127.0
7566,50.0,0,96,3.0,127.0
7567,70.0,96,96,0.0,127.0
7568,48.0,96,96,3.0,127.0
7569,68.0,0,96,0.0,127.0
7570,77.0,0,32,0.0,127.0
7571,46.0,96,96,3.0,127.0
7572,51.0,96,96,3.0,127.0
7573,67.0,0,96,0.0,127.0
7574,46.0,96,96,3.0,127.0
7575,68.0,0,96,0.0,127.0
7576,55.0,0,32,3.0,127.0
7577,70.0,96,96,0.0,127.0
7578,51.0,0,96,3.0,127.0
7579,70.0,96,96,0.0,127.0
7580,72.0,96,96,0.0,127.0
7581,46.0,0,96,3.0,127.0
7582,55.0,96,32,3.0,127.0
7583,74.0,0,96,0.0,127.0
7584,75.0,96,96,0.0,127.0
7585,67.0,96,96,0.0,127.0
7586,48.0,0,192,3.0,127.0
7587,55.0,96,32,3.0,127.0
7588,72.0,0,32,0.0,127.0
7589,75.0,0,96,0.0,127.0
7590,48.0,96,192,3.0,127.0
7591,67.0,96,96,0.0,127.0
7592,55.0,96,32,3.0,127.0
7593,72.0,0,32,0.0,127.0
7594,46.0,0,96,3.0,127.0
7595,45.0,96,96,3.0,127.0
7596,43.0,96,96,3.0,127.0
7597,72.0,0,96,1.0,127.0
7598,45.0,96,96,3.0,127.0
7599,43.0,96,96,3.0,127.0
7600,75.0,0,0,0.0,127.0
7601,41.0,96,96,3.0,127.0
7602,65.0,0,288,1.0,127.0
7603,74.0,0,96,0.0,127.0
7604,46.0,96,192,3.0,127.0
7605,77.0,96,96,0.0,127.0
7606,58.0,96,32,3.0,127.0
7607,74.0,0,96,0.0,127.0
7608,70.0,0,96,0.0,127.0
7609,53.0,96,192,3.0,127.0
7610,74.0,96,96,0.0,127.0
7611,58.0,96,32,3.0,127.0
7612,77.0,0,96,0.0,127.0
7613,51.0,96,96,3.0,127.0
7614,50.0,96,96,3.0,127.0
7615,48.0,0,96,3.0,127.0
7616,77.0,96,96,1.0,127.0
7617,50.0,96,96,3.0,127.0
7618,48.0,96,96,3.0,127.0
7619,80.0,0,0,0.0,127.0
7620,70.0,0,288,1.0,127.0
7621,46.0,96,96,3.0,127.0
7622,79.0,0,96,0.0,127.0
7623,82.0,96,48,0.0,127.0
7624,80.0,48,48,0.0,127.0
7625,51.0,96,192,3.0,127.0
7626,63.0,48,32,3.0,127.0
7627,79.0,0,48,0.0,127.0
7628,77.0,48,48,0.0,127.0
7629,75.0,0,96,0.0,127.0
7630,79.0,96,48,0.0,127.0
7631,77.0,48,48,0.0,127.0
7632,60.0,48,192,3.0,127.0
7633,63.0,0,32,3.0,127.0
7634,75.0,48,48,0.0,127.0
7635,74.0,48,48,0.0,127.0
7636,72.0,48,96,0.0,127.0
7637,58.0,0,96,3.0,127.0
7638,74.0,96,96,0.0,127.0
7639,57.0,0,96,3.0,127.0
7640,75.0,96,96,0.0,127.0
7641,55.0,0,96,3.0,127.0
7642,57.0,0,96,3.0,127.0
7643,55.0,96,96,3.0,127.0
7644,65.0,96,192,0.0,127.0
7645,72.0,96,24,0.0,127.0
7646,74.0,24,24,0.0,127.0
7647,75.0,24,48,0.0,127.0
7648,53.0,0,96,3.0,127.0
7649,74.0,48,96,0.0,127.0
7650,58.0,0,192,3.0,127.0
7651,72.0,96,96,0.0,127.0
7652,50.0,96,96,3.0,127.0
7653,70.0,0,0,0.0,127.0
7654,51.0,96,192,3.0,127.0
7655,72.0,96,96,0.0,127.0
7656,69.0,0,96,0.0,127.0
7657,53.0,96,96,3.0,127.0
7658,70.0,96,96,0.0,127.0
7659,46.0,0,96,3.0,127.0
7660,72.0,96,96,0.0,127.0
7661,53.0,0,96,3.0,127.0
7662,58.0,0,32,3.0,127.0
7663,74.0,96,96,0.0,127.0
7664,74.0,0,96,0.0,127.0
7665,53.0,96,96,3.0,127.0
7666,75.0,0,96,0.0,127.0
7667,50.0,96,96,3.0,127.0
7668,58.0,0,32,3.0,127.0
7669,77.0,96,96,0.0,127.0
7670,79.0,0,24,0.0,127.0
7671,77.0,24,24,0.0,127.0
7672,79.0,24,24,0.0,127.0
7673,53.0,96,96,3.0,127.0
7674,77.0,24,24,0.0,127.0
7675,79.0,0,24,0.0,127.0
7676,55.0,24,48,3.0,127.0
7677,77.0,24,24,0.0,127.0
7678,79.0,0,24,0.0,127.0
7679,77.0,24,24,0.0,127.0
7680,53.0,24,48,3.0,127.0
7681,79.0,24,24,0.0,127.0
7682,77.0,24,24,0.0,127.0
7683,51.0,0,48,3.0,127.0
7684,79.0,24,24,0.0,127.0
7685,50.0,0,48,3.0,127.0
7686,77.0,24,24,0.0,127.0
7687,79.0,24,24,0.0,127.0
7688,77.0,24,24,0.0,127.0
7689,79.0,24,24,0.0,127.0
7690,51.0,0,96,3.0,127.0
7691,77.0,24,24,0.0,127.0
7692,79.0,0,24,0.0,127.0
7693,53.0,24,48,3.0,127.0
7694,77.0,24,24,0.0,127.0
7695,79.0,24,24,0.0,127.0
7696,77.0,24,24,0.0,127.0
7697,51.0,0,48,3.0,127.0
7698,79.0,24,24,0.0,127.0
7699,50.0,0,48,3.0,127.0
7700,77.0,24,24,0.0,127.0
7701,79.0,0,24,0.0,127.0
7702,48.0,24,48,3.0,127.0
7703,50.0,24,96,3.0,127.0
7704,53.0,96,48,3.0,127.0
7705,51.0,48,48,3.0,127.0
7706,77.0,24,216,0.0,127.0
7707,82.0,0,32,0.0,127.0
7708,50.0,48,48,3.0,127.0
7709,48.0,48,48,3.0,127.0
7710,50.0,48,96,3.0,127.0
7711,53.0,96,48,3.0,127.0
7712,77.0,0,192,0.0,127.0
7713,51.0,48,48,3.0,127.0
7714,82.0,48,32,0.0,127.0
7715,50.0,0,48,3.0,127.0
7716,48.0,48,48,3.0,127.0
7717,77.0,48,96,0.0,127.0
7718,50.0,0,96,3.0,127.0
7719,79.0,96,48,0.0,127.0
7720,46.0,0,96,3.0,127.0
7721,77.0,48,48,0.0,127.0
7722,50.0,48,32,3.0,127.0
7723,75.0,0,48,0.0,127.0
7724,74.0,48,48,0.0,127.0
7725,53.0,48,96,3.0,127.0
7726,75.0,0,96,0.0,127.0
7727,77.0,0,48,0.0,127.0
7728,75.0,48,48,0.0,127.0
7729,50.0,96,96,3.0,127.0
7730,53.0,0,32,3.0,127.0
7731,74.0,48,48,0.0,127.0
7732,72.0,48,48,0.0,127.0
7733,62.0,96,32,1.0,127.0
7734,65.0,96,32,1.0,127.0
7735,70.0,0,576,0.0,127.0
7736,58.0,48,576,3.0,127.0
7737,70.0,96,288,1.0,127.0
7738,65.0,288,24,0.0,127.0
7739,63.0,24,24,0.0,127.0
7740,65.0,24,144,0.0,127.0
7741,58.0,144,32,0.0,127.0
7742,65.0,96,192,0.0,127.0
7743,58.0,192,32,0.0,127.0
7744,63.0,96,96,0.0,127.0
7745,65.0,96,96,0.0,127.0
7746,67.0,96,96,0.0,127.0
7747,65.0,96,96,0.0,127.0
7748,67.0,96,96,0.0,127.0
7749,68.0,96,96,0.0,127.0
7750,58.0,96,24,3.0,127.0
7751,56.0,24,24,3.0,127.0
7752,67.0,0,96,0.0,127.0
7753,58.0,24,144,3.0,127.0
7754,70.0,48,96,0.0,127.0
7755,51.0,96,32,3.0,127.0
7756,68.0,0,96,0.0,127.0
7757,67.0,0,96,0.0,127.0
7758,65.0,96,96,0.0,127.0
7759,58.0,96,192,3.0,127.0
7760,51.0,96,32,3.0,127.0
7761,63.0,0,96,0.0,127.0
7762,56.0,96,96,3.0,127.0
7763,65.0,0,144,0.0,127.0
7764,58.0,96,96,3.0,127.0
7765,67.0,48,48,0.0,127.0
7766,65.0,0,48,0.0,127.0
7767,60.0,48,96,3.0,127.0
7768,67.0,48,48,0.0,127.0
7769,68.0,48,48,0.0,127.0
7770,67.0,48,48,0.0,127.0
7771,58.0,0,128,3.0,127.0
7772,68.0,48,48,0.0,127.0
7773,67.0,16,48,0.0,127.0
7774,68.0,48,48,0.0,127.0
7775,60.0,32,128,3.0,127.0
7776,67.0,48,48,0.0,127.0
7777,65.0,32,48,0.0,127.0
7778,61.0,16,128,3.0,127.0
7779,67.0,48,48,0.0,127.0
7780,68.0,0,96,0.0,127.0
7781,60.0,48,144,3.0,127.0
7782,62.0,48,48,3.0,127.0
7783,72.0,96,96,0.0,127.0
7784,60.0,0,48,3.0,127.0
7785,70.0,48,96,0.0,127.0
7786,62.0,48,48,3.0,127.0
7787,63.0,48,48,3.0,127.0
7788,62.0,48,48,3.0,127.0
7789,68.0,0,128,0.0,127.0
7790,63.0,48,48,3.0,127.0
7791,62.0,16,48,3.0,127.0
7792,63.0,48,48,3.0,127.0
7793,67.0,32,128,0.0,127.0
7794,62.0,48,48,3.0,127.0
7795,60.0,32,48,3.0,127.0
7796,62.0,48,48,3.0,127.0
7797,65.0,16,128,0.0,127.0
7798,63.0,0,96,3.0,127.0
7799,67.0,48,144,0.0,127.0
7800,69.0,48,48,0.0,127.0
7801,67.0,96,96,3.0,127.0
7802,67.0,0,48,0.0,127.0
7803,69.0,48,48,0.0,127.0
7804,65.0,48,96,3.0,127.0
7805,70.0,0,48,0.0,127.0
7806,69.0,48,48,0.0,127.0
7807,63.0,48,128,3.0,127.0
7808,70.0,48,48,0.0,127.0
7809,69.0,16,48,0.0,127.0
7810,70.0,48,48,0.0,127.0
7811,62.0,32,128,3.0,127.0
7812,69.0,48,48,0.0,127.0
7813,67.0,32,48,0.0,127.0
7814,69.0,48,48,0.0,127.0
7815,60.0,16,128,3.0,127.0
7816,62.0,0,96,3.0,127.0
7817,53.0,96,96,3.0,127.0
7818,77.0,48,192,0.0,127.0
7819,70.0,0,192,0.0,127.0
7820,65.0,0,192,0.0,127.0
7821,74.0,0,192,0.0,127.0
7822,70.0,0,32,0.0,127.0
7823,56.0,96,96,3.0,127.0
7824,60.0,0,96,3.0,127.0
7825,58.0,96,96,3.0,127.0
7826,65.0,96,192,0.0,127.0
7827,68.0,0,192,0.0,127.0
7828,77.0,0,192,0.0,127.0
7829,74.0,0,192,0.0,127.0
7830,70.0,96,32,0.0,127.0
7831,56.0,0,96,3.0,127.0
7832,55.0,0,96,3.0,127.0
7833,75.0,96,96,0.0,127.0
7834,53.0,96,96,3.0,127.0
7835,77.0,0,96,0.0,127.0
7836,51.0,96,96,3.0,127.0
7837,79.0,0,96,0.0,127.0
7838,77.0,96,96,0.0,127.0
7839,50.0,0,96,3.0,127.0
7840,48.0,0,96,3.0,127.0
7841,79.0,96,96,0.0,127.0
7842,46.0,96,96,3.0,127.0
7843,80.0,0,96,0.0,127.0
7844,79.0,96,96,0.0,127.0
7845,74.0,96,96,0.0,127.0
7846,51.0,0,192,3.0,127.0
7847,55.0,0,32,3.0,127.0
7848,75.0,96,96,0.0,127.0
7849,79.0,96,96,0.0,127.0
7850,51.0,0,192,3.0,127.0
7851,74.0,96,96,0.0,127.0
7852,55.0,96,32,3.0,127.0
7853,75.0,0,96,0.0,127.0
7854,56.0,0,96,3.0,127.0
7855,72.0,96,96,0.0,127.0
7856,59.0,0,96,3.0,127.0
7857,80.0,96,96,0.0,127.0
7858,79.0,0,96,0.0,127.0
7859,60.0,96,96,3.0,127.0
7860,56.0,96,96,3.0,127.0
7861,77.0,0,96,0.0,127.0
7862,79.0,0,96,0.0,127.0
7863,59.0,96,96,3.0,127.0
7864,75.0,0,96,0.0,127.0
7865,60.0,96,96,3.0,127.0
7866,77.0,96,96,0.0,127.0
7867,72.0,96,96,0.0,127.0
7868,50.0,0,192,3.0,127.0
7869,53.0,0,32,3.0,127.0
7870,74.0,96,96,0.0,127.0
7871,77.0,96,96,0.0,127.0
7872,50.0,0,192,3.0,127.0
7873,72.0,96,96,0.0,127.0
7874,53.0,96,32,3.0,127.0
7875,74.0,0,96,0.0,127.0
7876,71.0,0,96,0.0,127.0
7877,55.0,96,96,3.0,127.0
7878,79.0,96,96,0.0,127.0
7879,59.0,0,96,3.0,127.0
7880,77.0,96,96,0.0,127.0
7881,62.0,0,96,3.0,127.0
7882,55.0,0,96,3.0,127.0
7883,75.0,96,96,0.0,127.0
7884,77.0,0,96,0.0,127.0
7885,59.0,96,96,3.0,127.0
7886,62.0,96,96,3.0,127.0
7887,74.0,0,96,0.0,127.0
7888,60.0,0,96,3.0,127.0
7889,48.0,96,96,3.0,127.0
7890,67.0,0,192,1.0,127.0
7891,60.0,96,96,3.0,127.0
7892,75.0,96,288,0.0,127.0
7893,58.0,96,96,3.0,127.0
7894,67.0,0,192,1.0,127.0
7895,61.0,96,96,3.0,127.0
7896,76.0,0,288,0.0,127.0
7897,60.0,96,96,3.0,127.0
7898,56.0,0,96,3.0,127.0
7899,65.0,0,96,1.0,127.0
7900,55.0,0,96,3.0,127.0
7901,67.0,96,96,1.0,127.0
7902,77.0,96,192,0.0,127.0
7903,53.0,96,96,3.0,127.0
7904,68.0,0,96,1.0,127.0
7905,67.0,96,96,1.0,127.0
7906,60.0,0,192,3.0,127.0
7907,68.0,96,96,1.0,127.0
7908,48.0,96,32,3.0,127.0
7909,70.0,0,96,1.0,127.0
7910,75.0,0,384,0.0,127.0
7911,53.0,0,192,3.0,127.0
7912,77.0,96,96,0.0,127.0
7913,48.0,96,32,3.0,127.0
7914,75.0,0,96,0.0,127.0
7915,74.0,0,96,0.0,127.0
7916,53.0,96,192,3.0,127.0
7917,75.0,96,96,0.0,127.0
7918,48.0,96,32,3.0,127.0
7919,72.0,0,96,0.0,127.0
7920,68.0,96,672,1.0,127.0
7921,55.0,0,96,3.0,127.0
7922,67.0,96,96,1.0,127.0
7923,71.0,96,192,0.0,127.0
7924,57.0,0,96,3.0,127.0
7925,59.0,96,96,3.0,127.0
7926,65.0,0,96,1.0,127.0
7927,67.0,0,96,1.0,127.0
7928,57.0,96,96,3.0,127.0
7929,72.0,0,192,0.0,127.0
7930,59.0,0,96,3.0,127.0
7931,65.0,96,96,1.0,127.0
7932,63.0,0,96,1.0,127.0
7933,60.0,96,96,3.0,127.0
7934,59.0,96,96,3.0,127.0
7935,65.0,0,192,1.0,127.0
7936,74.0,0,192,0.0,127.0
7937,55.0,96,96,3.0,127.0
7938,60.0,0,96,3.0,127.0
7939,63.0,96,96,1.0,127.0
7940,53.0,96,96,3.0,127.0
7941,72.0,0,192,0.0,127.0
7942,50.0,96,96,3.0,127.0
7943,72.0,0,96,0.0,127.0
7944,71.0,96,96,0.0,127.0
7945,55.0,0,96,3.0,127.0
7946,62.0,0,288,1.0,127.0
7947,48.0,96,192,3.0,127.0
7948,43.0,192,32,3.0,127.0
7949,72.0,0,480,0.0,127.0
7950,48.0,96,192,3.0,127.0
7951,75.0,192,16,0.0,127.0
7952,43.0,0,32,3.0,127.0
7953,74.0,16,16,0.0,127.0
7954,75.0,16,16,0.0,127.0
7955,74.0,16,16,0.0,127.0
7956,72.0,16,16,0.0,127.0
7957,74.0,16,16,0.0,127.0
7958,48.0,16,96,3.0,127.0
7959,75.0,0,96,0.0,127.0
7960,50.0,96,96,3.0,127.0
7961,70.0,0,96,0.0,127.0
7962,79.0,0,32,0.0,127.0
7963,51.0,96,96,3.0,127.0
7964,50.0,96,96,3.0,127.0
7965,77.0,0,96,0.0,127.0
7966,51.0,0,96,3.0,127.0
7967,70.0,96,96,0.0,127.0
7968,80.0,0,32,0.0,127.0
7969,53.0,96,96,3.0,127.0
7970,79.0,96,96,0.0,127.0
7971,82.0,96,96,0.0,127.0
7972,51.0,0,192,3.0,127.0
7973,46.0,0,32,3.0,127.0
7974,80.0,96,96,0.0,127.0
7975,79.0,96,96,0.0,127.0
7976,51.0,0,192,3.0,127.0
7977,77.0,96,96,0.0,127.0
7978,46.0,96,32,3.0,127.0
7979,75.0,0,96,0.0,127.0
7980,73.0,0,96,0.0,127.0
7981,53.0,96,96,3.0,127.0
7982,82.0,0,96,0.0,127.0
7983,55.0,96,96,3.0,127.0
7984,75.0,96,96,0.0,127.0
7985,56.0,0,96,3.0,127.0
7986,55.0,96,96,3.0,127.0
7987,73.0,0,96,0.0,127.0
7988,56.0,96,96,3.0,127.0
7989,82.0,0,96,0.0,127.0
7990,58.0,0,96,3.0,127.0
7991,73.0,96,96,0.0,127.0
7992,72.0,96,96,0.0,127.0
7993,75.0,96,96,0.0,127.0
7994,56.0,0,192,3.0,127.0
7995,51.0,96,32,3.0,127.0
7996,80.0,0,96,0.0,127.0
7997,79.0,0,96,0.0,127.0
7998,77.0,96,96,0.0,127.0
7999,56.0,96,192,3.0,127.0
8000,51.0,0,32,3.0,127.0
8001,80.0,96,96,0.0,127.0
8002,58.0,0,96,3.0,127.0
8003,74.0,96,192,0.0,127.0
8004,60.0,96,96,3.0,127.0
8005,70.0,0,32,0.0,127.0
8006,62.0,96,96,3.0,127.0
8007,60.0,0,96,3.0,127.0
8008,62.0,96,96,3.0,127.0
8009,75.0,96,192,0.0,127.0
8010,70.0,0,32,0.0,127.0
8011,63.0,96,96,3.0,127.0
8012,62.0,96,96,3.0,127.0
8013,77.0,0,192,0.0,127.0
8014,65.0,96,96,3.0,127.0
8015,68.0,0,32,0.0,127.0
8016,63.0,96,96,3.0,127.0
8017,62.0,0,96,3.0,127.0
8018,60.0,96,96,3.0,127.0
8019,77.0,96,192,0.0,127.0
8020,68.0,0,32,0.0,127.0
8021,58.0,96,96,3.0,127.0
8022,51.0,0,96,3.0,127.0
8023,67.0,96,144,0.0,127.0
8024,68.0,48,48,0.0,127.0
8025,63.0,96,96,3.0,127.0
8026,67.0,48,48,0.0,127.0
8027,68.0,48,48,0.0,127.0
8028,61.0,0,96,3.0,127.0
8029,70.0,48,48,0.0,127.0
8030,68.0,48,48,0.0,127.0
8031,60.0,0,128,3.0,127.0
8032,70.0,48,48,0.0,127.0
8033,68.0,16,48,0.0,127.0
8034,70.0,48,48,0.0,127.0
8035,58.0,32,128,3.0,127.0
8036,68.0,48,48,0.0,127.0
8037,67.0,32,48,0.0,127.0
8038,56.0,16,128,3.0,127.0
8039,68.0,48,48,0.0,127.0
8040,70.0,48,96,0.0,127.0
8041,55.0,0,144,3.0,127.0
8042,75.0,96,96,0.0,127.0
8043,56.0,48,48,3.0,127.0
8044,55.0,0,48,3.0,127.0
8045,73.0,48,96,0.0,127.0
8046,56.0,48,48,3.0,127.0
8047,58.0,0,48,3.0,127.0
8048,56.0,48,48,3.0,127.0
8049,72.0,48,128,0.0,127.0
8050,58.0,48,48,3.0,127.0
8051,56.0,16,48,3.0,127.0
8052,58.0,48,48,3.0,127.0
8053,70.0,32,128,0.0,127.0
8054,56.0,48,48,3.0,127.0
8055,55.0,32,48,3.0,127.0
8056,68.0,16,128,0.0,127.0
8057,56.0,48,48,3.0,127.0
8058,67.0,48,144,0.0,127.0
8059,58.0,0,192,3.0,127.0
8060,65.0,144,48,0.0,127.0
8061,63.0,48,48,0.0,127.0
8062,65.0,48,48,0.0,127.0
8063,67.0,0,48,0.0,127.0
8064,65.0,48,48,0.0,127.0
8065,67.0,48,48,0.0,127.0
8066,65.0,48,48,0.0,127.0
8067,67.0,48,48,0.0,127.0
8068,46.0,48,256,3.0,127.0
8069,65.0,48,48,0.0,127.0
8070,63.0,48,48,0.0,127.0
8071,65.0,48,48,0.0,127.0
8072,63.0,48,96,0.0,127.0
8073,67.0,96,96,0.0,127.0
8074,51.0,0,192,3.0,127.0
8075,46.0,0,32,3.0,127.0
8076,70.0,96,96,0.0,127.0
8077,67.0,0,96,0.0,127.0
8078,63.0,96,96,0.0,127.0
8079,51.0,96,192,3.0,127.0
8080,46.0,0,32,3.0,127.0
8081,70.0,96,96,0.0,127.0
8082,72.0,0,24,0.0,127.0
8083,70.0,24,24,0.0,127.0
8084,72.0,24,24,0.0,127.0
8085,70.0,24,24,0.0,127.0
8086,51.0,96,96,3.0,127.0
8087,72.0,24,24,0.0,127.0
8088,70.0,24,24,0.0,127.0
8089,72.0,24,24,0.0,127.0
8090,70.0,24,24,0.0,127.0
8091,53.0,0,96,3.0,127.0
8092,72.0,24,24,0.0,127.0
8093,70.0,24,24,0.0,127.0
8094,72.0,24,24,0.0,127.0
8095,55.0,0,96,3.0,127.0
8096,70.0,24,24,0.0,127.0
8097,72.0,0,24,0.0,127.0
8098,70.0,24,24,0.0,127.0
8099,72.0,24,24,0.0,127.0
8100,53.0,24,96,3.0,127.0
8101,70.0,24,24,0.0,127.0
8102,72.0,0,24,0.0,127.0
8103,70.0,24,24,0.0,127.0
8104,72.0,24,24,0.0,127.0
8105,70.0,24,24,0.0,127.0
8106,55.0,24,96,3.0,127.0
8107,72.0,24,24,0.0,127.0
8108,70.0,24,24,0.0,127.0
8109,72.0,24,24,0.0,127.0
8110,56.0,0,96,3.0,127.0
8111,70.0,24,120,0.0,127.0
8112,55.0,24,96,3.0,127.0
8113,51.0,96,96,3.0,127.0
8114,67.0,0,96,0.0,127.0
8115,75.0,0,96,0.0,127.0
8116,53.0,96,96,3.0,127.0
8117,55.0,0,48,3.0,127.0
8118,70.0,96,96,0.0,127.0
8119,56.0,48,48,3.0,127.0
8120,67.0,48,96,0.0,127.0
8121,58.0,0,96,3.0,127.0
8122,75.0,96,96,0.0,127.0
8123,58.0,0,96,3.0,127.0
8124,60.0,0,24,3.0,127.0
8125,58.0,24,24,3.0,127.0
8126,60.0,24,24,3.0,127.0
8127,70.0,96,96,0.0,127.0
8128,58.0,24,24,3.0,127.0
8129,60.0,0,24,3.0,127.0
8130,58.0,24,24,3.0,127.0
8131,72.0,24,48,0.0,127.0
8132,60.0,0,24,3.0,127.0
8133,58.0,24,24,3.0,127.0
8134,70.0,24,48,0.0,127.0
8135,60.0,24,24,3.0,127.0
8136,58.0,24,24,3.0,127.0
8137,68.0,0,48,0.0,127.0
8138,60.0,0,24,3.0,127.0
8139,58.0,24,24,3.0,127.0
8140,67.0,24,48,0.0,127.0
8141,60.0,0,24,3.0,127.0
8142,58.0,24,24,3.0,127.0
8143,60.0,24,24,3.0,127.0
8144,68.0,24,96,0.0,127.0
8145,58.0,24,24,3.0,127.0
8146,60.0,0,24,3.0,127.0
8147,70.0,24,48,0.0,127.0
8148,58.0,24,24,3.0,127.0
8149,60.0,0,24,3.0,127.0
8150,68.0,24,48,0.0,127.0
8151,58.0,24,24,3.0,127.0
8152,60.0,0,24,3.0,127.0
8153,58.0,24,24,3.0,127.0
8154,67.0,24,48,0.0,127.0
8155,60.0,24,24,3.0,127.0
8156,65.0,0,48,0.0,127.0
8157,67.0,24,96,0.0,127.0
8158,70.0,96,48,0.0,127.0
8159,58.0,24,216,3.0,127.0
8160,68.0,48,48,0.0,127.0
8161,63.0,48,32,3.0,127.0
8162,67.0,0,48,0.0,127.0
8163,65.0,48,48,0.0,127.0
8164,67.0,48,96,0.0,127.0
8165,70.0,96,48,0.0,127.0
8166,68.0,48,48,0.0,127.0
8167,58.0,0,192,3.0,127.0
8168,63.0,0,32,3.0,127.0
8169,67.0,48,48,0.0,127.0
8170,65.0,48,48,0.0,127.0
8171,67.0,0,96,0.0,127.0
8172,58.0,48,96,3.0,127.0
8173,60.0,96,48,3.0,127.0
8174,63.0,0,96,0.0,127.0
8175,58.0,48,48,3.0,127.0
8176,56.0,0,48,3.0,127.0
8177,67.0,48,96,0.0,127.0
8178,55.0,48,48,3.0,127.0
8179,70.0,48,96,0.0,127.0
8180,56.0,0,96,3.0,127.0
8181,58.0,0,48,3.0,127.0
8182,56.0,48,48,3.0,127.0
8183,67.0,96,96,0.0,127.0
8184,55.0,0,48,3.0,127.0
8185,53.0,48,48,3.0,127.0
8186,70.0,48,96,0.0,127.0
8187,51.0,0,96,3.0,127.0
8188,46.0,96,96,3.0,127.0
8189,43.0,96,96,3.0,127.0
8190,39.0,96,288,3.0,127.0
8191,75.0,48,576,0.0,127.0
8192,65.0,288,24,0.0,127.0
8193,63.0,24,24,0.0,127.0
8194,65.0,24,144,0.0,127.0
8195,58.0,144,32,0.0,127.0
8196,65.0,96,192,0.0,127.0
8197,58.0,192,32,0.0,127.0
8198,63.0,96,96,0.0,127.0
8199,65.0,96,96,0.0,127.0
8200,67.0,96,96,0.0,127.0
8201,65.0,96,96,0.0,127.0
8202,67.0,96,96,0.0,127.0
8203,68.0,96,96,0.0,127.0
8204,58.0,0,24,3.0,127.0
8205,56.0,24,24,3.0,127.0
8206,67.0,96,96,0.0,127.0
8207,70.0,48,96,0.0,127.0
8208,58.0,24,144,3.0,127.0
8209,51.0,96,32,3.0,127.0
8210,68.0,0,96,0.0,127.0
8211,67.0,96,96,0.0,127.0
8212,65.0,96,96,0.0,127.0
8213,58.0,0,192,3.0,127.0
8214,51.0,0,32,3.0,127.0
8215,63.0,96,96,0.0,127.0
8216,56.0,0,96,3.0,127.0
8217,65.0,96,144,0.0,127.0
8218,58.0,96,96,3.0,127.0
8219,67.0,48,48,0.0,127.0
8220,65.0,48,48,0.0,127.0
8221,60.0,0,96,3.0,127.0
8222,67.0,48,48,0.0,127.0
8223,68.0,0,48,0.0,127.0
8224,67.0,48,48,0.0,127.0
8225,58.0,48,128,3.0,127.0
8226,68.0,48,48,0.0,127.0
8227,67.0,16,48,0.0,127.0
8228,68.0,48,48,0.0,127.0
8229,60.0,32,128,3.0,127.0
8230,67.0,48,48,0.0,127.0
8231,65.0,32,48,0.0,127.0
8232,67.0,48,48,0.0,127.0
8233,61.0,16,128,3.0,127.0
8234,68.0,48,96,0.0,127.0
8235,60.0,0,144,3.0,127.0
8236,72.0,96,96,0.0,127.0
8237,62.0,48,48,3.0,127.0
8238,60.0,0,48,3.0,127.0
8239,70.0,48,96,0.0,127.0
8240,62.0,48,48,3.0,127.0
8241,63.0,0,48,3.0,127.0
8242,62.0,48,48,3.0,127.0
8243,68.0,48,128,0.0,127.0
8244,63.0,48,48,3.0,127.0
8245,62.0,16,48,3.0,127.0
8246,63.0,48,48,3.0,127.0
8247,67.0,32,128,0.0,127.0
8248,62.0,48,48,3.0,127.0
8249,60.0,32,48,3.0,127.0
8250,65.0,16,128,0.0,127.0
8251,62.0,48,48,3.0,127.0
8252,63.0,48,96,3.0,127.0
8253,67.0,0,144,0.0,127.0
8254,67.0,96,96,3.0,127.0
8255,69.0,48,48,0.0,127.0
8256,67.0,0,48,0.0,127.0
8257,65.0,48,96,3.0,127.0
8258,69.0,48,48,0.0,127.0
8259,70.0,0,48,0.0,127.0
8260,69.0,48,48,0.0,127.0
8261,63.0,48,128,3.0,127.0
8262,70.0,48,48,0.0,127.0
8263,69.0,16,48,0.0,127.0
8264,70.0,48,48,0.0,127.0
8265,62.0,32,128,3.0,127.0
8266,69.0,48,48,0.0,127.0
8267,67.0,32,48,0.0,127.0
8268,69.0,48,48,0.0,127.0
8269,60.0,16,128,3.0,127.0
8270,62.0,0,96,3.0,127.0
8271,70.0,0,192,0.0,127.0
8272,74.0,0,192,0.0,127.0
8273,53.0,96,96,3.0,127.0
8274,65.0,48,192,0.0,127.0
8275,77.0,0,192,0.0,127.0
8276,70.0,0,32,0.0,127.0
8277,56.0,96,96,3.0,127.0
8278,60.0,0,96,3.0,127.0
8279,77.0,0,192,0.0,127.0
8280,68.0,0,192,0.0,127.0
8281,65.0,0,192,0.0,127.0
8282,74.0,96,192,0.0,127.0
8283,58.0,96,96,3.0,127.0
8284,70.0,96,32,0.0,127.0
8285,56.0,0,96,3.0,127.0
8286,55.0,0,96,3.0,127.0
8287,75.0,96,96,0.0,127.0
8288,53.0,96,96,3.0,127.0
8289,77.0,0,96,0.0,127.0
8290,51.0,0,96,3.0,127.0
8291,79.0,96,96,0.0,127.0
8292,50.0,0,96,3.0,127.0
8293,77.0,96,96,0.0,127.0
8294,79.0,96,96,0.0,127.0
8295,48.0,0,96,3.0,127.0
8296,46.0,0,96,3.0,127.0
8297,80.0,96,96,0.0,127.0
8298,79.0,0,96,0.0,127.0
8299,74.0,96,96,0.0,127.0
8300,51.0,96,192,3.0,127.0
8301,55.0,96,32,3.0,127.0
8302,75.0,0,96,0.0,127.0
8303,79.0,96,96,0.0,127.0
8304,74.0,96,96,0.0,127.0
8305,51.0,0,192,3.0,127.0
8306,55.0,0,32,3.0,127.0
8307,75.0,96,96,0.0,127.0
8308,72.0,0,96,0.0,127.0
8309,56.0,96,96,3.0,127.0
8310,59.0,96,96,3.0,127.0
8311,80.0,0,96,0.0,127.0
8312,79.0,0,96,0.0,127.0
8313,60.0,96,96,3.0,127.0
8314,56.0,96,96,3.0,127.0
8315,77.0,0,96,0.0,127.0
8316,79.0,0,96,0.0,127.0
8317,59.0,96,96,3.0,127.0
8318,60.0,96,96,3.0,127.0
8319,75.0,0,96,0.0,127.0
8320,77.0,96,96,0.0,127.0
8321,72.0,96,96,0.0,127.0
8322,50.0,0,192,3.0,127.0
8323,53.0,96,32,3.0,127.0
8324,74.0,0,96,0.0,127.0
8325,77.0,0,96,0.0,127.0
8326,50.0,96,192,3.0,127.0
8327,72.0,96,96,0.0,127.0
8328,53.0,96,32,3.0,127.0
8329,74.0,0,96,0.0,127.0
8330,55.0,96,96,3.0,127.0
8331,71.0,0,96,0.0,127.0
8332,79.0,0,96,0.0,127.0
8333,59.0,96,96,3.0,127.0
8334,77.0,96,96,0.0,127.0
8335,62.0,0,96,3.0,127.0
8336,75.0,96,96,0.0,127.0
8337,55.0,0,96,3.0,127.0
8338,59.0,96,96,3.0,127.0
8339,77.0,0,96,0.0,127.0
8340,62.0,96,96,3.0,127.0
8341,74.0,0,96,0.0,127.0
8342,60.0,96,96,3.0,127.0
8343,48.0,96,96,3.0,127.0
8344,67.0,0,192,1.0,127.0
8345,75.0,0,288,0.0,127.0
8346,60.0,96,96,3.0,127.0
8347,58.0,0,96,3.0,127.0
8348,61.0,96,96,3.0,127.0
8349,67.0,0,192,1.0,127.0
8350,76.0,96,288,0.0,127.0
8351,60.0,96,96,3.0,127.0
8352,65.0,96,96,1.0,127.0
8353,56.0,0,96,3.0,127.0
8354,77.0,0,192,0.0,127.0
8355,55.0,96,96,3.0,127.0
8356,67.0,0,96,1.0,127.0
8357,68.0,96,96,1.0,127.0
8358,53.0,0,96,3.0,127.0
8359,67.0,0,96,1.0,127.0
8360,68.0,96,96,1.0,127.0
8361,60.0,96,192,3.0,127.0
8362,48.0,0,32,3.0,127.0
8363,70.0,96,96,1.0,127.0
8364,75.0,0,384,0.0,127.0
8365,77.0,96,96,0.0,127.0
8366,53.0,96,192,3.0,127.0
8367,48.0,0,32,3.0,127.0
8368,75.0,96,96,0.0,127.0
8369,74.0,0,96,0.0,127.0
8370,53.0,96,192,3.0,127.0
8371,75.0,96,96,0.0,127.0
8372,48.0,96,32,3.0,127.0
8373,72.0,0,96,0.0,127.0
8374,55.0,96,96,3.0,127.0
8375,68.0,0,672,1.0,127.0
8376,71.0,0,192,0.0,127.0
8377,67.0,0,96,1.0,127.0
8378,57.0,96,96,3.0,127.0
8379,65.0,96,96,1.0,127.0
8380,59.0,0,96,3.0,127.0
8381,57.0,0,96,3.0,127.0
8382,67.0,0,96,1.0,127.0
8383,72.0,96,192,0.0,127.0
8384,59.0,96,96,3.0,127.0
8385,65.0,0,96,1.0,127.0
8386,63.0,0,96,1.0,127.0
8387,60.0,96,96,3.0,127.0
8388,59.0,0,96,3.0,127.0
8389,65.0,96,192,1.0,127.0
8390,74.0,0,192,0.0,127.0
8391,55.0,96,96,3.0,127.0
8392,63.0,0,96,1.0,127.0
8393,60.0,0,96,3.0,127.0
8394,72.0,96,192,0.0,127.0
8395,53.0,96,96,3.0,127.0
8396,72.0,0,96,0.0,127.0
8397,50.0,96,96,3.0,127.0
8398,71.0,96,96,0.0,127.0
8399,62.0,0,288,1.0,127.0
8400,55.0,0,96,3.0,127.0
8401,48.0,0,192,3.0,127.0
8402,43.0,192,32,3.0,127.0
8403,48.0,96,192,3.0,127.0
8404,72.0,96,480,0.0,127.0
8405,75.0,0,16,0.0,127.0
8406,43.0,192,32,3.0,127.0
8407,74.0,16,16,0.0,127.0
8408,75.0,16,16,0.0,127.0
8409,74.0,16,16,0.0,127.0
8410,72.0,16,16,0.0,127.0
8411,74.0,16,16,0.0,127.0
8412,48.0,0,96,3.0,127.0
8413,75.0,16,96,0.0,127.0
8414,70.0,0,96,0.0,127.0
8415,50.0,96,96,3.0,127.0
8416,79.0,0,32,0.0,127.0
8417,51.0,96,96,3.0,127.0
8418,50.0,96,96,3.0,127.0
8419,77.0,0,96,0.0,127.0
8420,70.0,0,96,0.0,127.0
8421,51.0,96,96,3.0,127.0
8422,80.0,96,32,0.0,127.0
8423,53.0,0,96,3.0,127.0
8424,79.0,0,96,0.0,127.0
8425,51.0,96,192,3.0,127.0
8426,82.0,96,96,0.0,127.0
8427,46.0,96,32,3.0,127.0
8428,80.0,0,96,0.0,127.0
8429,79.0,96,96,0.0,127.0
8430,77.0,96,96,0.0,127.0
8431,51.0,0,192,3.0,127.0
8432,46.0,0,32,3.0,127.0
8433,75.0,96,96,0.0,127.0
8434,73.0,96,96,0.0,127.0
8435,53.0,0,96,3.0,127.0
8436,82.0,0,96,0.0,127.0
8437,55.0,96,96,3.0,127.0
8438,56.0,96,96,3.0,127.0
8439,75.0,0,96,0.0,127.0
8440,55.0,96,96,3.0,127.0
8441,73.0,0,96,0.0,127.0
8442,56.0,96,96,3.0,127.0
8443,82.0,0,96,0.0,127.0
8444,58.0,96,96,3.0,127.0
8445,73.0,0,96,0.0,127.0
8446,72.0,0,96,0.0,127.0
8447,75.0,96,96,0.0,127.0
8448,56.0,96,192,3.0,127.0
8449,51.0,96,32,3.0,127.0
8450,80.0,0,96,0.0,127.0
8451,79.0,0,96,0.0,127.0
8452,77.0,96,96,0.0,127.0
8453,56.0,96,192,3.0,127.0
8454,51.0,96,32,3.0,127.0
8455,80.0,0,96,0.0,127.0
8456,58.0,0,96,3.0,127.0
8457,74.0,96,192,0.0,127.0
8458,60.0,96,96,3.0,127.0
8459,70.0,96,32,0.0,127.0
8460,62.0,0,96,3.0,127.0
8461,60.0,96,96,3.0,127.0
8462,62.0,96,96,3.0,127.0
8463,75.0,0,192,0.0,127.0
8464,70.0,0,32,0.0,127.0
8465,63.0,96,96,3.0,127.0
8466,62.0,96,96,3.0,127.0
8467,65.0,96,96,3.0,127.0
8468,77.0,0,192,0.0,127.0
8469,68.0,96,32,0.0,127.0
8470,63.0,0,96,3.0,127.0
8471,62.0,96,96,3.0,127.0
8472,77.0,0,192,0.0,127.0
8473,60.0,96,96,3.0,127.0
8474,68.0,96,32,0.0,127.0
8475,58.0,0,96,3.0,127.0
8476,51.0,0,96,3.0,127.0
8477,67.0,96,144,0.0,127.0
8478,63.0,96,96,3.0,127.0
8479,68.0,48,48,0.0,127.0
8480,67.0,48,48,0.0,127.0
8481,68.0,48,48,0.0,127.0
8482,61.0,0,96,3.0,127.0
8483,70.0,48,48,0.0,127.0
8484,68.0,48,48,0.0,127.0
8485,60.0,0,128,3.0,127.0
8486,70.0,48,48,0.0,127.0
8487,68.0,16,48,0.0,127.0
8488,70.0,48,48,0.0,127.0
8489,58.0,32,128,3.0,127.0
8490,68.0,48,48,0.0,127.0
8491,67.0,32,48,0.0,127.0
8492,68.0,48,48,0.0,127.0
8493,56.0,16,128,3.0,127.0
8494,70.0,48,96,0.0,127.0
8495,55.0,0,144,3.0,127.0
8496,75.0,96,96,0.0,127.0
8497,56.0,48,48,3.0,127.0
8498,55.0,0,48,3.0,127.0
8499,73.0,48,96,0.0,127.0
8500,56.0,48,48,3.0,127.0
8501,58.0,0,48,3.0,127.0
8502,56.0,48,48,3.0,127.0
8503,72.0,48,128,0.0,127.0
8504,58.0,48,48,3.0,127.0
8505,56.0,16,48,3.0,127.0
8506,58.0,48,48,3.0,127.0
8507,70.0,32,128,0.0,127.0
8508,56.0,48,48,3.0,127.0
8509,55.0,32,48,3.0,127.0
8510,68.0,16,128,0.0,127.0
8511,56.0,48,48,3.0,127.0
8512,67.0,0,144,0.0,127.0
8513,58.0,48,192,3.0,127.0
8514,65.0,144,48,0.0,127.0
8515,63.0,48,48,0.0,127.0
8516,65.0,48,48,0.0,127.0
8517,67.0,48,48,0.0,127.0
8518,65.0,48,48,0.0,127.0
8519,67.0,48,48,0.0,127.0
8520,65.0,48,48,0.0,127.0
8521,67.0,48,48,0.0,127.0
8522,46.0,0,256,3.0,127.0
8523,65.0,48,48,0.0,127.0
8524,63.0,48,48,0.0,127.0
8525,65.0,48,48,0.0,127.0
8526,63.0,48,96,0.0,127.0
8527,51.0,0,192,3.0,127.0
8528,67.0,96,96,0.0,127.0
8529,46.0,96,32,3.0,127.0
8530,70.0,0,96,0.0,127.0
8531,67.0,0,96,0.0,127.0
8532,63.0,96,96,0.0,127.0
8533,51.0,96,192,3.0,127.0
8534,46.0,96,32,3.0,127.0
8535,70.0,0,96,0.0,127.0
8536,72.0,96,24,0.0,127.0
8537,70.0,24,24,0.0,127.0
8538,72.0,24,24,0.0,127.0
8539,51.0,0,96,3.0,127.0
8540,70.0,24,24,0.0,127.0
8541,72.0,0,24,0.0,127.0
8542,70.0,24,24,0.0,127.0
8543,72.0,24,24,0.0,127.0
8544,53.0,24,96,3.0,127.0
8545,70.0,24,24,0.0,127.0
8546,72.0,24,24,0.0,127.0
8547,70.0,24,24,0.0,127.0
8548,72.0,24,24,0.0,127.0
8549,55.0,0,96,3.0,127.0
8550,70.0,24,24,0.0,127.0
8551,72.0,0,24,0.0,127.0
8552,70.0,24,24,0.0,127.0
8553,72.0,24,24,0.0,127.0
8554,70.0,24,24,0.0,127.0
8555,53.0,24,96,3.0,127.0
8556,72.0,24,24,0.0,127.0
8557,70.0,24,24,0.0,127.0
8558,72.0,24,24,0.0,127.0
8559,70.0,24,24,0.0,127.0
8560,55.0,0,96,3.0,127.0
8561,72.0,0,24,0.0,127.0
8562,70.0,24,24,0.0,127.0
8563,72.0,24,24,0.0,127.0
8564,56.0,24,96,3.0,127.0
8565,55.0,24,96,3.0,127.0
8566,70.0,24,120,0.0,127.0
8567,67.0,96,96,0.0,127.0
8568,51.0,0,96,3.0,127.0
8569,75.0,96,96,0.0,127.0
8570,53.0,0,96,3.0,127.0
8571,55.0,96,48,3.0,127.0
8572,56.0,48,48,3.0,127.0
8573,70.0,0,96,0.0,127.0
8574,58.0,48,96,3.0,127.0
8575,67.0,0,96,0.0,127.0
8576,58.0,96,96,3.0,127.0
8577,75.0,0,96,0.0,127.0
8578,60.0,0,24,3.0,127.0
8579,58.0,24,24,3.0,127.0
8580,60.0,24,24,3.0,127.0
8581,70.0,96,96,0.0,127.0
8582,58.0,24,24,3.0,127.0
8583,60.0,0,24,3.0,127.0
8584,58.0,24,24,3.0,127.0
8585,72.0,24,48,0.0,127.0
8586,60.0,24,24,3.0,127.0
8587,58.0,24,24,3.0,127.0
8588,70.0,0,48,0.0,127.0
8589,60.0,0,24,3.0,127.0
8590,68.0,24,48,0.0,127.0
8591,58.0,24,24,3.0,127.0
8592,60.0,0,24,3.0,127.0
8593,58.0,24,24,3.0,127.0
8594,67.0,24,48,0.0,127.0
8595,60.0,24,24,3.0,127.0
8596,58.0,24,24,3.0,127.0
8597,60.0,24,24,3.0,127.0
8598,58.0,24,24,3.0,127.0
8599,68.0,0,96,0.0,127.0
8600,60.0,0,24,3.0,127.0
8601,70.0,24,48,0.0,127.0
8602,58.0,24,24,3.0,127.0
8603,60.0,0,24,3.0,127.0
8604,68.0,24,48,0.0,127.0
8605,58.0,24,24,3.0,127.0
8606,60.0,0,24,3.0,127.0
8607,67.0,24,48,0.0,127.0
8608,58.0,24,24,3.0,127.0
8609,60.0,24,24,3.0,127.0
8610,65.0,0,48,0.0,127.0
8611,67.0,24,96,0.0,127.0
8612,70.0,96,48,0.0,127.0
8613,68.0,48,48,0.0,127.0
8614,58.0,24,216,3.0,127.0
8615,63.0,0,32,3.0,127.0
8616,67.0,48,48,0.0,127.0
8617,65.0,48,48,0.0,127.0
8618,67.0,48,96,0.0,127.0
8619,70.0,96,48,0.0,127.0
8620,68.0,48,48,0.0,127.0
8621,58.0,0,192,3.0,127.0
8622,63.0,0,32,3.0,127.0
8623,67.0,48,48,0.0,127.0
8624,65.0,48,48,0.0,127.0
8625,67.0,0,96,0.0,127.0
8626,58.0,48,96,3.0,127.0
8627,60.0,0,48,3.0,127.0
8628,58.0,48,48,3.0,127.0
8629,63.0,96,96,0.0,127.0
8630,56.0,48,48,3.0,127.0
8631,55.0,48,48,3.0,127.0
8632,67.0,0,96,0.0,127.0
8633,56.0,48,96,3.0,127.0
8634,70.0,0,96,0.0,127.0
8635,58.0,0,48,3.0,127.0
8636,56.0,48,48,3.0,127.0
8637,67.0,96,96,0.0,127.0
8638,55.0,48,48,3.0,127.0
8639,53.0,48,48,3.0,127.0
8640,70.0,0,96,0.0,127.0
8641,51.0,0,96,3.0,127.0
8642,46.0,96,96,3.0,127.0
8643,43.0,96,96,3.0,127.0
8644,39.0,96,288,3.0,127.0
8645,75.0,48,576,0.0,127.0
8646,67.0,672,192,0.0,127.0
8647,51.0,0,192,3.0,127.0
8648,63.0,0,384,1.0,127.0
8649,65.0,192,384,0.0,127.0
8650,58.0,0,384,2.0,127.0
8651,46.0,0,192,3.0,127.0
8652,62.0,192,192,1.0,127.0
8653,63.0,0,192,0.0,127.0
8654,48.0,0,384,3.0,127.0
8655,56.0,192,192,3.0,127.0
8656,72.0,192,384,0.0,127.0
8657,63.0,192,576,1.0,127.0
8658,70.0,0,192,0.0,127.0
8659,55.0,192,192,3.0,127.0
8660,63.0,0,288,1.0,127.0
8661,62.0,96,96,1.0,127.0
8662,68.0,192,192,0.0,127.0
8663,53.0,0,192,3.0,127.0
8664,51.0,0,192,3.0,127.0
8665,67.0,0,192,0.0,127.0
8666,63.0,96,192,1.0,127.0
8667,63.0,0,192,1.0,127.0
8668,46.0,0,192,3.0,127.0
8669,62.0,192,192,1.0,127.0
8670,65.0,0,384,0.0,127.0
8671,58.0,192,384,2.0,127.0
8672,63.0,192,192,0.0,127.0
8673,63.0,0,0,1.0,127.0
8674,51.0,0,0,3.0,127.0
8675,67.0,192,192,0.0,127.0
8676,46.0,0,192,3.0,127.0
8677,62.0,192,192,1.0,127.0
8678,58.0,192,384,2.0,127.0
8679,65.0,0,384,0.0,127.0
8680,63.0,0,192,0.0,127.0
8681,48.0,0,384,3.0,127.0
8682,72.0,192,384,0.0,127.0
8683,56.0,192,192,3.0,127.0
8684,63.0,192,0,1.0,127.0
8685,55.0,0,192,3.0,127.0
8686,70.0,0,192,0.0,127.0
8687,68.0,192,192,0.0,127.0
8688,53.0,0,192,3.0,127.0
8689,62.0,96,96,1.0,127.0
8690,67.0,0,192,0.0,127.0
8691,63.0,96,192,1.0,127.0
8692,51.0,0,192,3.0,127.0
8693,67.0,192,192,0.0,127.0
8694,63.0,0,192,1.0,127.0
8695,46.0,192,192,3.0,127.0
8696,53.0,192,384,3.0,127.0
8697,65.0,0,384,0.0,127.0
8698,62.0,0,384,1.0,127.0
8699,58.0,0,576,2.0,127.0
8700,51.0,192,192,3.0,127.0
8701,67.0,0,192,0.0,127.0
8702,63.0,0,384,1.0,127.0
8703,65.0,192,384,0.0,127.0
8704,46.0,0,192,3.0,127.0
8705,62.0,192,192,1.0,127.0
8706,58.0,0,384,2.0,127.0
8707,63.0,0,192,0.0,127.0
8708,48.0,192,384,3.0,127.0
8709,63.0,192,0,1.0,127.0
8710,56.0,192,192,3.0,127.0
8711,72.0,192,384,0.0,127.0
8712,55.0,0,192,3.0,127.0
8713,70.0,0,192,0.0,127.0
8714,68.0,192,192,0.0,127.0
8715,62.0,96,96,1.0,127.0
8716,53.0,0,192,3.0,127.0
8717,51.0,0,192,3.0,127.0
8718,63.0,192,0,1.0,127.0
8719,67.0,0,192,0.0,127.0
8720,65.0,0,384,0.0,127.0
8721,46.0,192,192,3.0,127.0
8722,58.0,0,384,2.0,127.0
8723,62.0,0,192,1.0,127.0
8724,63.0,0,192,1.0,127.0
8725,63.0,192,192,0.0,127.0
8726,51.0,0,192,3.0,127.0
8727,67.0,0,192,0.0,127.0
8728,51.0,0,192,3.0,127.0
8729,63.0,192,384,1.0,127.0
8730,65.0,192,384,0.0,127.0
8731,58.0,0,384,2.0,127.0
8732,46.0,0,192,3.0,127.0
8733,62.0,192,192,1.0,127.0
8734,63.0,192,192,0.0,127.0
8735,48.0,0,384,3.0,127.0
8736,56.0,192,192,3.0,127.0
8737,72.0,192,384,0.0,127.0
8738,63.0,0,576,1.0,127.0
8739,70.0,192,192,0.0,127.0
8740,55.0,0,192,3.0,127.0
8741,63.0,0,288,1.0,127.0
8742,62.0,96,96,1.0,127.0
8743,53.0,0,192,3.0,127.0
8744,68.0,192,192,0.0,127.0
8745,63.0,0,192,1.0,127.0
8746,51.0,96,192,3.0,127.0
8747,67.0,192,0,0.0,127.0
8748,63.0,0,192,1.0,127.0
8749,46.0,192,192,3.0,127.0
8750,62.0,0,384,1.0,127.0
8751,65.0,0,0,0.0,127.0
8752,58.0,0,576,2.0,127.0
8753,53.0,0,384,3.0,127.0
8754,58.0,0,384,3.0,127.0
8755,62.0,192,384,1.0,127.0
8756,65.0,0,192,1.0,127.0
8757,70.0,192,384,0.0,127.0
8758,50.0,192,192,3.0,127.0
8759,67.0,192,192,0.0,127.0
8760,51.0,0,192,3.0,127.0
8761,63.0,0,384,1.0,127.0
8762,48.0,192,192,3.0,127.0
8763,72.0,0,192,0.0,127.0
8764,45.0,192,192,3.0,127.0
8765,75.0,0,192,0.0,127.0
8766,65.0,0,192,1.0,127.0
8767,74.0,0,192,0.0,127.0
8768,70.0,0,192,1.0,127.0
8769,67.0,192,96,1.0,127.0
8770,75.0,0,96,0.0,127.0
8771,65.0,0,96,1.0,127.0
8772,46.0,192,384,3.0,127.0
8773,74.0,96,96,0.0,127.0
8774,72.0,0,96,0.0,127.0
8775,63.0,96,96,1.0,127.0
8776,70.0,0,96,0.0,127.0
8777,51.0,0,192,3.0,127.0
8778,62.0,96,96,1.0,127.0
8779,53.0,0,192,3.0,127.0
8780,69.0,0,192,0.0,127.0
8781,67.0,192,96,0.0,127.0
8782,69.0,96,96,0.0,127.0
8783,55.0,0,192,3.0,127.0
8784,57.0,0,192,3.0,127.0
8785,60.0,96,576,1.0,127.0
8786,65.0,96,192,0.0,127.0
8787,58.0,0,192,2.0,127.0
8788,74.0,192,192,0.0,127.0
8789,70.0,0,384,1.0,127.0
8790,41.0,192,192,3.0,127.0
8791,56.0,192,384,2.0,127.0
8792,69.0,0,192,1.0,127.0
8793,72.0,0,384,0.0,127.0
8794,70.0,0,192,0.0,127.0
8795,43.0,192,384,3.0,127.0
8796,70.0,192,0,1.0,127.0
8797,51.0,192,192,3.0,127.0
8798,79.0,192,384,0.0,127.0
8799,77.0,0,192,0.0,127.0
8800,50.0,0,192,3.0,127.0
8801,48.0,192,192,3.0,127.0
8802,75.0,0,192,0.0,127.0
8803,69.0,96,96,1.0,127.0
8804,46.0,0,192,3.0,127.0
8805,74.0,0,192,0.0,127.0
8806,70.0,96,192,1.0,127.0
8807,70.0,0,192,1.0,127.0
8808,41.0,0,192,3.0,127.0
8809,72.0,0,384,0.0,127.0
8810,69.0,192,192,1.0,127.0
8811,70.0,192,192,0.0,127.0
8812,70.0,0,192,1.0,127.0
8813,53.0,192,576,2.0,127.0
8814,46.0,0,192,3.0,127.0
8815,46.0,0,192,3.0,127.0
8816,74.0,192,192,0.0,127.0
8817,70.0,0,384,1.0,127.0
8818,53.0,192,384,2.0,127.0
8819,41.0,0,192,3.0,127.0
8820,69.0,192,192,1.0,127.0
8821,72.0,0,384,0.0,127.0
8822,70.0,0,192,0.0,127.0
8823,43.0,192,384,3.0,127.0
8824,51.0,192,192,3.0,127.0
8825,79.0,192,384,0.0,127.0
8826,70.0,0,576,1.0,127.0
8827,50.0,192,96,3.0,127.0
8828,74.0,0,192,1.0,127.0
8829,51.0,96,96,3.0,127.0
8830,77.0,0,192,0.0,127.0
8831,70.0,96,192,1.0,127.0
8832,74.0,0,192,0.0,127.0
8833,74.0,0,32,0.0,127.0
8834,72.0,32,32,0.0,127.0
8835,74.0,32,32,0.0,127.0
8836,72.0,32,32,0.0,127.0
8837,70.0,32,32,0.0,127.0
8838,72.0,32,32,0.0,127.0
8839,41.0,0,192,3.0,127.0
8840,53.0,0,384,2.0,127.0
8841,69.0,192,192,1.0,127.0
8842,46.0,0,384,3.0,127.0
8843,62.0,0,576,1.0,127.0
8844,53.0,192,384,2.0,127.0
8845,58.0,192,192,3.0,127.0
8846,70.0,32,576,0.0,127.0
8847,74.0,0,192,0.0,127.0
8848,70.0,0,192,1.0,127.0
8849,74.0,192,32,0.0,127.0
8850,72.0,32,32,0.0,127.0
8851,74.0,32,32,0.0,127.0
8852,72.0,32,32,0.0,127.0
8853,70.0,32,32,0.0,127.0
8854,72.0,32,32,0.0,127.0
8855,56.0,192,576,3.0,127.0
8856,74.0,0,192,0.0,127.0
8857,70.0,0,0,1.0,127.0
8858,75.0,0,192,0.0,127.0
8859,55.0,192,192,2.0,127.0
8860,50.0,192,384,3.0,127.0
8861,74.0,0,192,1.0,127.0
8862,46.0,192,192,2.0,127.0
8863,77.0,0,384,0.0,127.0
8864,79.0,192,192,0.0,127.0
8865,70.0,0,192,1.0,127.0
8866,51.0,0,192,2.0,127.0
8867,72.0,192,96,1.0,127.0
8868,80.0,0,96,0.0,127.0
8869,79.0,96,96,0.0,127.0
8870,70.0,0,96,1.0,127.0
8871,77.0,96,96,0.0,127.0
8872,68.0,0,96,1.0,127.0
8873,75.0,96,96,0.0,127.0
8874,56.0,0,384,2.0,127.0
8875,67.0,0,96,1.0,127.0
8876,74.0,96,192,0.0,127.0
8877,72.0,192,96,0.0,127.0
8878,58.0,0,384,2.0,127.0
8879,74.0,96,96,0.0,127.0
8880,70.0,0,192,0.0,127.0
8881,46.0,96,192,2.0,127.0
8882,65.0,0,576,1.0,127.0
8883,53.0,0,384,3.0,127.0
8884,67.0,0,192,0.0,127.0
8885,51.0,0,192,2.0,127.0
8886,63.0,192,384,1.0,127.0
8887,65.0,192,384,0.0,127.0
8888,58.0,0,384,3.0,127.0
8889,46.0,192,192,2.0,127.0
8890,62.0,0,192,1.0,127.0
8891,63.0,192,192,0.0,127.0
8892,48.0,0,384,3.0,127.0
8893,72.0,192,384,0.0,127.0
8894,56.0,192,192,3.0,127.0
8895,63.0,0,576,1.0,127.0
8896,55.0,192,192,3.0,127.0
8897,70.0,0,192,0.0,127.0
8898,63.0,0,288,1.0,127.0
8899,62.0,96,96,1.0,127.0
8900,53.0,192,192,3.0,127.0
8901,68.0,0,192,0.0,127.0
8902,67.0,96,192,0.0,127.0
8903,63.0,192,0,1.0,127.0
8904,51.0,0,192,3.0,127.0
8905,62.0,192,192,1.0,127.0
8906,46.0,0,192,3.0,127.0
8907,65.0,0,384,0.0,127.0
8908,58.0,0,384,2.0,127.0
8909,63.0,0,0,1.0,127.0
8910,63.0,0,192,0.0,127.0
8911,51.0,192,0,3.0,127.0
8912,67.0,0,192,0.0,127.0
8913,58.0,192,384,2.0,127.0
8914,46.0,192,192,3.0,127.0
8915,62.0,0,192,1.0,127.0
8916,65.0,0,384,0.0,127.0
8917,63.0,0,192,0.0,127.0
8918,48.0,192,384,3.0,127.0
8919,63.0,192,0,1.0,127.0
8920,56.0,192,192,3.0,127.0
8921,72.0,192,384,0.0,127.0
8922,55.0,0,96,3.0,127.0
8923,70.0,0,192,0.0,127.0
8924,56.0,96,96,3.0,127.0
8925,58.0,96,192,3.0,127.0
8926,67.0,192,0,0.0,127.0
8927,63.0,0,192,1.0,127.0
8928,65.0,32,32,0.0,127.0
8929,67.0,32,32,0.0,127.0
8930,65.0,32,32,0.0,127.0
8931,63.0,32,32,0.0,127.0
8932,46.0,0,192,3.0,127.0
8933,65.0,32,32,0.0,127.0
8934,62.0,0,192,1.0,127.0
8935,51.0,0,384,2.0,127.0
8936,46.0,192,384,3.0,127.0
8937,58.0,0,576,0.0,127.0
8938,55.0,0,576,0.0,127.0
8939,63.0,32,576,0.0,127.0
8940,39.0,192,192,2.0,127.0
