,note,step,duration,channel,velocity
0,69.0,512,1024,0.0,0.0
1,62.0,512,512,2.0,0.0
2,50.0,0,1024,3.0,0.0
3,65.0,0,1024,1.0,0.0
4,60.0,0,512,2.0,0.0
5,64.0,0,1024,1.0,0.0
6,59.0,0,1024,2.0,0.0
7,52.0,512,512,3.0,0.0
8,68.0,512,1024,0.0,0.0
9,50.0,0,512,3.0,0.0
10,48.0,0,512,3.0,0.0
11,60.0,0,512,2.0,0.0
12,69.0,512,512,0.0,0.0
13,71.0,1024,512,0.0,0.0
14,47.0,0,512,3.0,0.0
15,56.0,0,512,2.0,0.0
16,64.0,0,0,1.0,0.0
17,45.0,0,1024,3.0,0.0
18,57.0,0,1024,2.0,0.0
19,72.0,0,1024,0.0,0.0
20,59.0,0,1024,2.0,0.0
21,74.0,0,1024,0.0,0.0
22,64.0,1024,1024,1.0,0.0
23,44.0,0,1024,3.0,0.0
24,57.0,0,1024,2.0,0.0
25,72.0,0,1024,0.0,0.0
26,45.0,0,1024,3.0,0.0
27,71.0,0,1024,0.0,0.0
28,64.0,512,0,1.0,0.0
29,56.0,0,1024,2.0,0.0
30,40.0,0,1024,3.0,0.0
31,62.0,1024,512,1.0,0.0
32,69.0,0,1024,0.0,0.0
33,52.0,0,1024,2.0,0.0
34,45.0,1024,1024,3.0,0.0
35,61.0,0,1024,1.0,0.0
36,64.0,0,1024,1.0,0.0
37,69.0,0,1024,0.0,0.0
38,49.0,0,1024,3.0,0.0
39,65.0,0,1024,0.0,0.0
40,57.0,512,0,2.0,0.0
41,50.0,512,1024,3.0,0.0
42,62.0,0,1024,1.0,0.0
43,58.0,0,512,2.0,0.0
44,67.0,0,1024,0.0,0.0
45,57.0,512,512,2.0,0.0
46,60.0,0,1024,1.0,0.0
47,52.0,512,1024,3.0,0.0
48,55.0,0,512,2.0,0.0
49,53.0,512,512,2.0,0.0
50,60.0,0,512,1.0,0.0
51,69.0,512,1024,0.0,0.0
52,53.0,0,512,3.0,0.0
53,61.0,0,512,1.0,0.0
54,52.0,0,512,3.0,0.0
55,55.0,0,512,2.0,0.0
56,57.0,0,1024,2.0,0.0
57,62.0,0,1024,1.0,0.0
58,67.0,512,512,0.0,0.0
59,50.0,0,1024,3.0,0.0
60,65.0,512,512,0.0,0.0
61,43.0,0,512,3.0,0.0
62,58.0,512,1024,2.0,0.0
63,64.0,256,512,0.0,0.0
64,62.0,0,1024,1.0,0.0
65,45.0,256,256,3.0,0.0
66,62.0,0,512,0.0,0.0
67,46.0,0,256,3.0,0.0
68,64.0,0,1024,0.0,0.0
69,61.0,0,1024,1.0,0.0
70,45.0,1024,1024,3.0,0.0
71,52.0,512,512,2.0,0.0
72,55.0,0,512,2.0,0.0
73,62.0,512,1024,0.0,0.0
74,38.0,0,1024,3.0,0.0
75,57.0,0,1024,1.0,0.0
76,53.0,0,1024,2.0,0.0
77,50.0,0,1024,3.0,0.0
78,65.0,0,1024,1.0,0.0
79,62.0,512,512,2.0,0.0
80,69.0,0,1024,0.0,0.0
81,60.0,512,512,2.0,0.0
82,52.0,512,512,3.0,0.0
83,68.0,0,1024,0.0,0.0
84,59.0,0,1024,2.0,0.0
85,50.0,0,512,3.0,0.0
86,69.0,0,512,0.0,0.0
87,48.0,0,512,3.0,0.0
88,60.0,512,512,2.0,0.0
89,64.0,512,0,1.0,0.0
90,47.0,1024,512,3.0,0.0
91,71.0,0,512,0.0,0.0
92,56.0,0,512,2.0,0.0
93,72.0,1024,1024,0.0,0.0
94,45.0,0,1024,3.0,0.0
95,57.0,0,1024,2.0,0.0
96,64.0,0,1024,1.0,0.0
97,44.0,0,1024,3.0,0.0
98,59.0,0,1024,2.0,0.0
99,64.0,0,1024,1.0,0.0
100,74.0,1024,1024,0.0,0.0
101,57.0,0,1024,2.0,0.0
102,45.0,0,1024,3.0,0.0
103,72.0,0,1024,0.0,0.0
104,71.0,0,1024,0.0,0.0
105,64.0,512,0,1.0,0.0
106,56.0,1024,1024,2.0,0.0
107,40.0,0,1024,3.0,0.0
108,62.0,0,512,1.0,0.0
109,45.0,1024,1024,3.0,0.0
110,69.0,0,1024,0.0,0.0
111,61.0,0,1024,1.0,0.0
112,52.0,0,1024,2.0,0.0
113,69.0,512,1024,0.0,0.0
114,49.0,0,1024,3.0,0.0
115,64.0,0,1024,1.0,0.0
116,50.0,0,1024,3.0,0.0
117,57.0,0,0,2.0,0.0
118,62.0,512,1024,1.0,0.0
119,65.0,0,1024,0.0,0.0
120,58.0,0,512,2.0,0.0
121,57.0,512,512,2.0,0.0
122,67.0,0,1024,0.0,0.0
123,52.0,512,1024,3.0,0.0
124,55.0,0,512,2.0,0.0
125,60.0,0,0,1.0,0.0
126,53.0,0,512,3.0,0.0
127,53.0,512,512,2.0,0.0
128,69.0,0,1024,0.0,0.0
129,55.0,512,512,2.0,0.0
130,61.0,0,512,1.0,0.0
131,52.0,0,512,3.0,0.0
132,50.0,512,1024,3.0,0.0
133,67.0,512,512,0.0,0.0
134,62.0,0,1024,1.0,0.0
135,57.0,0,1024,2.0,0.0
136,65.0,0,512,0.0,0.0
137,43.0,0,512,3.0,0.0
138,64.0,256,512,0.0,0.0
139,62.0,0,1024,1.0,0.0
140,58.0,0,1024,2.0,0.0
141,45.0,256,256,3.0,0.0
142,62.0,512,512,0.0,0.0
143,46.0,0,256,3.0,0.0
144,61.0,0,1024,1.0,0.0
145,45.0,0,1024,3.0,0.0
146,52.0,512,512,2.0,0.0
147,64.0,0,1024,0.0,0.0
148,55.0,2048,512,2.0,0.0
149,38.0,0,2048,3.0,0.0
150,53.0,0,2048,2.0,0.0
151,62.0,512,2048,0.0,0.0
152,57.0,0,2048,1.0,0.0
153,57.0,0,1024,1.0,0.0
154,53.0,512,512,2.0,0.0
155,50.0,512,1536,3.0,0.0
156,62.0,0,512,0.0,0.0
157,55.0,512,512,2.0,0.0
158,64.0,0,512,0.0,0.0
159,62.0,0,1024,1.0,0.0
160,65.0,512,1024,0.0,0.0
161,57.0,0,1024,2.0,0.0
162,48.0,0,512,3.0,0.0
163,55.0,0,512,2.0,0.0
164,67.0,0,1024,0.0,0.0
165,62.0,512,1536,1.0,0.0
166,46.0,512,512,3.0,0.0
167,45.0,0,512,3.0,0.0
168,57.0,512,512,2.0,0.0
169,62.0,0,512,0.0,0.0
170,43.0,1024,1024,3.0,0.0
171,58.0,0,1024,2.0,0.0
172,64.0,0,512,0.0,0.0
173,61.0,0,512,1.0,0.0
174,57.0,0,1024,2.0,0.0
175,62.0,1024,1024,1.0,0.0
176,65.0,0,1024,0.0,0.0
177,50.0,0,1024,3.0,0.0
178,67.0,0,1024,0.0,0.0
179,52.0,0,1024,3.0,0.0
180,55.0,0,1024,2.0,0.0
181,69.0,0,1024,0.0,0.0
182,60.0,1024,0,1.0,0.0
183,53.0,0,1024,2.0,0.0
184,69.0,0,1024,0.0,0.0
185,53.0,0,0,3.0,0.0
186,60.0,0,1024,2.0,0.0
187,65.0,0,512,1.0,0.0
188,67.0,0,512,1.0,0.0
189,52.0,1024,512,3.0,0.0
190,65.0,0,1024,2.0,0.0
191,69.0,1024,1024,1.0,0.0
192,74.0,0,1024,0.0,0.0
193,50.0,0,1024,3.0,0.0
194,67.0,0,1024,1.0,0.0
195,73.0,0,1024,0.0,0.0
196,64.0,0,1024,2.0,0.0
197,52.0,512,1024,3.0,0.0
198,69.0,0,1024,1.0,0.0
199,62.0,512,512,2.0,0.0
200,54.0,0,1024,3.0,0.0
201,74.0,0,1024,0.0,0.0
202,60.0,512,512,2.0,0.0
203,76.0,512,512,0.0,0.0
204,56.0,1024,1024,3.0,0.0
205,59.0,0,1024,2.0,0.0
206,74.0,0,512,0.0,0.0
207,64.0,0,0,1.0,0.0
208,72.0,0,1024,0.0,0.0
209,57.0,512,1024,2.0,0.0
210,57.0,0,1024,3.0,0.0
211,52.0,0,1024,3.0,0.0
212,64.0,512,512,1.0,0.0
213,71.0,1024,1024,0.0,0.0
214,56.0,0,1024,2.0,0.0
215,62.0,0,512,1.0,0.0
216,52.0,1024,1024,2.0,0.0
217,45.0,0,1024,3.0,0.0
218,60.0,0,1024,1.0,0.0
219,69.0,0,1024,0.0,0.0
220,71.0,0,1024,0.0,0.0
221,62.0,0,1024,1.0,0.0
222,53.0,0,1024,2.0,0.0
223,50.0,1024,1024,3.0,0.0
224,64.0,0,1024,1.0,0.0
225,55.0,512,1024,2.0,0.0
226,72.0,0,1024,0.0,0.0
227,48.0,0,1024,3.0,0.0
228,60.0,0,1024,1.0,0.0
229,69.0,512,512,0.0,0.0
230,53.0,512,1024,3.0,0.0
231,71.0,0,512,0.0,0.0
232,72.0,0,1024,0.0,0.0
233,53.0,0,0,2.0,0.0
234,65.0,0,1024,1.0,0.0
235,45.0,512,512,3.0,0.0
236,46.0,512,512,3.0,0.0
237,60.0,512,512,2.0,0.0
238,67.0,0,1024,0.0,0.0
239,48.0,0,1024,3.0,0.0
240,58.0,0,512,2.0,0.0
241,50.0,0,1024,3.0,0.0
242,57.0,512,1024,2.0,0.0
243,65.0,0,1024,0.0,0.0
244,64.0,512,0,1.0,0.0
245,62.0,0,0,1.0,0.0
246,64.0,2048,1024,0.0,0.0
247,45.0,0,1024,3.0,0.0
248,55.0,0,1024,2.0,0.0
249,61.0,0,512,1.0,0.0
250,46.0,0,2048,3.0,0.0
251,62.0,512,2048,1.0,0.0
252,53.0,0,2048,2.0,0.0
253,62.0,0,2048,0.0,0.0
254,53.0,0,1024,3.0,0.0
255,69.0,512,1024,0.0,0.0
256,60.0,512,512,1.0,0.0
257,53.0,0,1024,2.0,0.0
258,62.0,0,512,1.0,0.0
259,49.0,0,1024,3.0,0.0
260,67.0,512,1024,0.0,0.0
261,52.0,512,512,2.0,0.0
262,64.0,512,1536,1.0,0.0
263,57.0,0,512,2.0,0.0
264,57.0,1024,1024,2.0,0.0
265,50.0,0,1024,3.0,0.0
266,65.0,0,2048,0.0,0.0
267,61.0,0,512,1.0,0.0
268,62.0,512,2048,1.0,0.0
269,58.0,0,2048,2.0,0.0
270,46.0,1024,1024,3.0,0.0
271,64.0,2048,2048,0.0,0.0
272,43.0,0,1024,3.0,0.0
273,57.0,512,512,2.0,0.0
274,45.0,0,1024,3.0,0.0
275,61.0,0,1024,1.0,0.0
276,55.0,0,512,2.0,0.0
277,54.0,0,2048,2.0,0.0
278,38.0,0,2048,3.0,0.0
279,57.0,0,2048,1.0,0.0
280,62.0,0,2048,0.0,0.0
