,note,step,duration,channel,velocity
0,70.0,0,384,0.0,64.0
1,67.0,0,384,0.0,64.0
2,79.0,24,24,0.0,64.0
3,62.0,0,384,0.0,64.0
4,43.0,48,384,0.0,64.0
5,77.0,192,24,0.0,64.0
6,79.0,48,192,0.0,64.0
7,82.0,48,48,0.0,64.0
8,81.0,48,48,0.0,64.0
9,79.0,0,48,0.0,64.0
10,78.0,48,48,0.0,64.0
11,79.0,48,48,0.0,64.0
12,78.0,48,48,0.0,64.0
13,79.0,24,48,0.0,64.0
14,81.0,24,24,0.0,64.0
15,79.0,24,24,0.0,64.0
16,81.0,24,24,0.0,64.0
17,79.0,24,24,0.0,64.0
18,81.0,24,24,0.0,64.0
19,78.0,24,24,0.0,64.0
20,79.0,24,24,0.0,64.0
21,81.0,240,24,0.0,64.0
22,69.0,0,384,0.0,64.0
23,66.0,0,384,0.0,64.0
24,60.0,0,384,0.0,64.0
25,75.0,48,240,0.0,64.0
26,43.0,48,384,0.0,64.0
27,77.0,48,48,0.0,64.0
28,75.0,48,48,0.0,64.0
29,74.0,0,48,0.0,64.0
30,72.0,48,48,0.0,64.0
31,74.0,48,48,0.0,64.0
32,72.0,48,48,0.0,64.0
33,74.0,24,48,0.0,64.0
34,75.0,24,24,0.0,64.0
35,74.0,24,24,0.0,64.0
36,75.0,24,24,0.0,64.0
37,74.0,24,24,0.0,64.0
38,75.0,24,24,0.0,64.0
39,72.0,24,24,0.0,64.0
40,74.0,24,24,0.0,64.0
41,75.0,192,24,0.0,64.0
42,43.0,48,384,0.0,64.0
43,62.0,0,384,0.0,64.0
44,65.0,0,384,0.0,64.0
45,68.0,0,384,0.0,64.0
46,71.0,48,192,0.0,64.0
47,67.0,48,48,0.0,64.0
48,71.0,48,48,0.0,64.0
49,69.0,48,48,0.0,64.0
50,67.0,0,48,0.0,64.0
51,74.0,48,48,0.0,64.0
52,72.0,48,48,0.0,64.0
53,71.0,48,48,0.0,64.0
54,77.0,48,48,0.0,64.0
55,75.0,48,48,0.0,64.0
56,74.0,48,48,0.0,64.0
57,80.0,48,48,0.0,64.0
58,79.0,192,48,0.0,64.0
59,43.0,48,384,0.0,64.0
60,77.0,48,192,0.0,64.0
61,60.0,0,384,0.0,64.0
62,67.0,0,384,0.0,64.0
63,75.0,48,48,0.0,64.0
64,74.0,48,48,0.0,64.0
65,72.0,48,48,0.0,64.0
66,71.0,0,48,0.0,64.0
67,72.0,48,48,0.0,64.0
68,67.0,48,48,0.0,64.0
69,72.0,48,48,0.0,64.0
70,74.0,48,48,0.0,64.0
71,75.0,48,48,0.0,64.0
72,72.0,48,48,0.0,64.0
73,74.0,48,48,0.0,64.0
74,75.0,192,48,0.0,64.0
75,63.0,0,384,0.0,64.0
76,43.0,0,384,0.0,64.0
77,57.0,0,384,0.0,64.0
78,60.0,0,384,0.0,64.0
79,67.0,48,192,0.0,64.0
80,66.0,48,48,0.0,64.0
81,69.0,48,48,0.0,64.0
82,72.0,48,48,0.0,64.0
83,75.0,48,48,0.0,64.0
84,74.0,48,48,0.0,64.0
85,72.0,144,48,0.0,64.0
86,84.0,48,144,0.0,64.0
87,82.0,48,48,0.0,64.0
88,81.0,48,48,0.0,64.0
89,79.0,48,48,0.0,64.0
90,43.0,0,384,0.0,64.0
91,78.0,48,48,0.0,64.0
92,63.0,0,384,0.0,64.0
93,60.0,0,384,0.0,64.0
94,57.0,0,384,0.0,64.0
95,79.0,48,48,0.0,64.0
96,81.0,48,48,0.0,64.0
97,72.0,48,48,0.0,64.0
98,74.0,48,48,0.0,64.0
99,75.0,48,48,0.0,64.0
100,69.0,48,48,0.0,64.0
101,70.0,48,48,0.0,64.0
102,72.0,48,48,0.0,64.0
103,66.0,48,48,0.0,64.0
104,67.0,48,48,0.0,64.0
105,69.0,48,48,0.0,64.0
106,60.0,48,48,0.0,64.0
107,63.0,48,48,0.0,64.0
108,62.0,48,48,0.0,64.0
109,60.0,48,48,0.0,64.0
110,58.0,48,48,0.0,64.0
111,55.0,48,48,0.0,64.0
112,54.0,48,48,0.0,64.0
113,55.0,48,48,0.0,64.0
114,57.0,48,48,0.0,64.0
115,58.0,48,48,0.0,64.0
116,60.0,48,48,0.0,64.0
117,62.0,48,48,0.0,64.0
118,63.0,48,48,0.0,64.0
119,60.0,48,48,0.0,64.0
120,55.0,48,48,0.0,64.0
121,57.0,48,48,0.0,64.0
122,59.0,48,48,0.0,64.0
123,60.0,48,48,0.0,64.0
124,62.0,48,48,0.0,64.0
125,63.0,48,48,0.0,64.0
126,65.0,48,48,0.0,64.0
127,62.0,48,48,0.0,64.0
128,55.0,48,48,0.0,64.0
129,59.0,48,48,0.0,64.0
130,60.0,48,48,0.0,64.0
131,62.0,48,48,0.0,64.0
132,63.0,48,48,0.0,64.0
133,65.0,48,48,0.0,64.0
134,67.0,48,48,0.0,64.0
135,63.0,48,48,0.0,64.0
136,60.0,48,48,0.0,64.0
137,59.0,48,48,0.0,64.0
138,60.0,48,48,0.0,64.0
139,63.0,48,48,0.0,64.0
140,65.0,48,48,0.0,64.0
141,67.0,48,48,0.0,64.0
142,68.0,48,48,0.0,64.0
143,65.0,48,48,0.0,64.0
144,62.0,48,48,0.0,64.0
145,60.0,48,48,0.0,64.0
146,59.0,48,48,0.0,64.0
147,74.0,48,48,0.0,64.0
148,68.0,48,48,0.0,64.0
149,67.0,48,48,0.0,64.0
150,65.0,48,48,0.0,64.0
151,74.0,48,48,0.0,64.0
152,67.0,48,48,0.0,64.0
153,65.0,48,48,0.0,64.0
154,63.0,48,48,0.0,64.0
155,62.0,48,48,0.0,64.0
156,60.0,48,48,0.0,64.0
157,59.0,48,48,0.0,64.0
158,60.0,48,48,0.0,64.0
159,66.0,48,48,0.0,64.0
160,60.0,48,48,0.0,64.0
161,58.0,48,48,0.0,64.0
162,57.0,48,48,0.0,64.0
163,55.0,48,48,0.0,64.0
164,54.0,48,48,0.0,64.0
165,52.0,48,48,0.0,64.0
166,54.0,48,48,0.0,64.0
167,57.0,48,48,0.0,64.0
168,50.0,48,48,0.0,64.0
169,48.0,48,48,0.0,64.0
170,46.0,48,48,0.0,64.0
171,45.0,48,48,0.0,64.0
172,43.0,48,48,0.0,64.0
173,42.0,48,48,0.0,64.0
174,43.0,48,48,0.0,64.0
175,38.0,48,48,0.0,64.0
176,40.0,48,48,0.0,64.0
177,42.0,48,48,0.0,64.0
178,43.0,48,48,0.0,64.0
179,45.0,48,48,0.0,64.0
180,46.0,48,48,0.0,64.0
181,48.0,48,48,0.0,64.0
182,46.0,48,48,0.0,64.0
183,43.0,48,48,0.0,64.0
184,46.0,48,48,0.0,64.0
185,50.0,48,48,0.0,64.0
186,55.0,48,48,0.0,64.0
187,58.0,48,48,0.0,64.0
188,57.0,48,48,0.0,64.0
189,55.0,48,48,0.0,64.0
190,63.0,48,48,0.0,64.0
191,55.0,48,48,0.0,64.0
192,57.0,48,48,0.0,64.0
193,59.0,48,48,0.0,64.0
194,60.0,48,48,0.0,64.0
195,62.0,48,48,0.0,64.0
196,63.0,48,48,0.0,64.0
197,65.0,48,48,0.0,64.0
198,63.0,48,48,0.0,64.0
199,60.0,48,48,0.0,64.0
200,63.0,48,48,0.0,64.0
201,67.0,48,48,0.0,64.0
202,72.0,48,48,0.0,64.0
203,75.0,48,48,0.0,64.0
204,74.0,48,48,0.0,64.0
205,72.0,48,48,0.0,64.0
206,81.0,48,48,0.0,64.0
207,60.0,48,48,0.0,64.0
208,62.0,48,48,0.0,64.0
209,64.0,48,48,0.0,64.0
210,66.0,48,48,0.0,64.0
211,67.0,48,48,0.0,64.0
212,69.0,48,48,0.0,64.0
213,70.0,48,48,0.0,64.0
214,69.0,48,48,0.0,64.0
215,66.0,48,48,0.0,64.0
216,69.0,48,48,0.0,64.0
217,72.0,48,48,0.0,64.0
218,75.0,48,48,0.0,64.0
219,78.0,48,48,0.0,64.0
220,79.0,48,48,0.0,64.0
221,81.0,48,48,0.0,64.0
222,82.0,48,48,0.0,64.0
223,81.0,48,48,0.0,64.0
224,79.0,48,48,0.0,64.0
225,77.0,48,48,0.0,64.0
226,75.0,48,48,0.0,64.0
227,74.0,48,48,0.0,64.0
228,73.0,48,48,0.0,64.0
229,74.0,48,48,0.0,64.0
230,73.0,48,48,0.0,64.0
231,76.0,48,48,0.0,64.0
232,79.0,48,48,0.0,64.0
233,82.0,48,48,0.0,64.0
234,81.0,48,48,0.0,64.0
235,79.0,48,48,0.0,64.0
236,78.0,48,48,0.0,64.0
237,76.0,0,48,0.0,64.0
238,50.0,0,1920,0.0,64.0
239,78.0,48,48,0.0,64.0
240,75.0,48,48,0.0,64.0
241,74.0,48,48,0.0,64.0
242,72.0,96,48,0.0,64.0
243,81.0,96,384,0.0,64.0
244,72.0,48,48,0.0,64.0
245,70.0,48,48,0.0,64.0
246,69.0,48,48,0.0,64.0
247,70.0,96,48,0.0,64.0
248,74.0,48,336,0.0,64.0
249,72.0,48,48,0.0,64.0
250,70.0,192,1200,0.0,64.0
251,79.0,0,1152,0.0,64.0
252,65.0,48,48,0.0,64.0
253,63.0,48,48,0.0,64.0
254,62.0,0,48,0.0,64.0
255,61.0,48,48,0.0,64.0
256,76.0,0,960,0.0,64.0
257,58.0,48,48,0.0,64.0
258,57.0,48,48,0.0,64.0
259,55.0,48,48,0.0,64.0
260,64.0,48,48,0.0,64.0
261,61.0,48,48,0.0,64.0
262,58.0,48,48,0.0,64.0
263,57.0,48,48,0.0,64.0
264,55.0,48,48,0.0,64.0
265,58.0,48,48,0.0,64.0
266,57.0,48,48,0.0,64.0
267,55.0,48,48,0.0,64.0
268,61.0,48,48,0.0,64.0
269,64.0,48,48,0.0,64.0
270,62.0,48,48,0.0,64.0
271,61.0,192,48,0.0,64.0
272,69.0,0,192,0.0,64.0
273,78.0,288,192,0.0,64.0
274,74.0,0,192,0.0,64.0
275,62.0,0,0,0.0,64.0
276,77.0,96,96,0.0,64.0
277,74.0,96,96,0.0,64.0
278,71.0,96,96,0.0,64.0
279,72.0,96,96,0.0,64.0
280,74.0,0,768,0.0,64.0
281,68.0,0,384,0.0,64.0
282,65.0,96,96,0.0,64.0
283,62.0,0,96,0.0,64.0
284,59.0,96,0,0.0,64.0
285,55.0,0,192,0.0,64.0
286,60.0,96,96,0.0,64.0
287,59.0,96,192,0.0,64.0
288,67.0,96,96,0.0,64.0
289,62.0,0,192,0.0,64.0
290,65.0,0,288,0.0,64.0
291,55.0,96,96,0.0,64.0
292,51.0,0,192,0.0,64.0
293,59.0,96,96,0.0,64.0
294,72.0,0,96,0.0,64.0
295,63.0,96,96,0.0,64.0
296,55.0,96,192,0.0,64.0
297,62.0,0,96,0.0,64.0
298,71.0,0,96,0.0,64.0
299,63.0,0,192,0.0,64.0
300,51.0,0,192,0.0,64.0
301,72.0,96,96,0.0,64.0
302,74.0,96,96,0.0,64.0
303,48.0,96,192,0.0,64.0
304,60.0,0,0,0.0,64.0
305,75.0,96,768,0.0,64.0
306,57.0,0,96,0.0,64.0
307,54.0,96,96,0.0,64.0
308,45.0,0,192,0.0,64.0
309,55.0,96,96,0.0,64.0
310,57.0,0,768,0.0,64.0
311,54.0,0,192,0.0,64.0
312,72.0,96,96,0.0,64.0
313,69.0,96,96,0.0,64.0
314,66.0,96,96,0.0,64.0
315,50.0,0,192,0.0,64.0
316,67.0,0,96,0.0,64.0
317,54.0,0,192,0.0,64.0
318,69.0,96,192,0.0,64.0
319,74.0,96,96,0.0,64.0
320,72.0,0,288,0.0,64.0
321,46.0,96,192,0.0,64.0
322,62.0,96,96,0.0,64.0
323,66.0,0,96,0.0,64.0
324,67.0,0,384,0.0,64.0
325,70.0,96,96,0.0,64.0
326,55.0,0,96,0.0,64.0
327,50.0,96,192,0.0,64.0
328,69.0,0,96,0.0,64.0
329,54.0,0,96,0.0,64.0
330,70.0,0,192,0.0,64.0
331,55.0,96,96,0.0,64.0
332,46.0,96,192,0.0,64.0
333,57.0,0,96,0.0,64.0
334,79.0,96,96,0.0,64.0
335,58.0,0,768,0.0,64.0
336,43.0,0,192,0.0,64.0
337,75.0,96,96,0.0,64.0
338,40.0,0,192,0.0,64.0
339,73.0,96,96,0.0,64.0
340,74.0,96,96,0.0,64.0
341,49.0,0,192,0.0,64.0
342,76.0,0,768,0.0,64.0
343,67.0,96,96,0.0,64.0
344,64.0,96,96,0.0,64.0
345,45.0,96,192,0.0,64.0
346,61.0,96,96,0.0,64.0
347,62.0,0,96,0.0,64.0
348,49.0,96,192,0.0,64.0
349,57.0,96,96,0.0,64.0
350,64.0,0,192,0.0,64.0
351,55.0,0,288,0.0,64.0
352,41.0,0,192,0.0,64.0
353,57.0,96,96,0.0,64.0
354,61.0,96,96,0.0,64.0
355,62.0,0,192,0.0,64.0
356,74.0,0,96,0.0,64.0
357,45.0,0,192,0.0,64.0
358,53.0,96,96,0.0,64.0
359,52.0,96,96,0.0,64.0
360,73.0,0,96,0.0,64.0
361,41.0,0,192,0.0,64.0
362,53.0,0,96,0.0,64.0
363,74.0,96,96,0.0,64.0
364,76.0,0,96,0.0,64.0
365,55.0,96,96,0.0,64.0
366,69.0,0,384,0.0,64.0
367,38.0,96,192,0.0,64.0
368,57.0,96,96,0.0,64.0
369,77.0,0,384,0.0,64.0
370,53.0,0,96,0.0,64.0
371,46.0,0,768,0.0,64.0
372,50.0,96,96,0.0,64.0
373,53.0,96,96,0.0,64.0
374,55.0,96,288,0.0,64.0
375,76.0,96,96,0.0,64.0
376,74.0,96,96,0.0,64.0
377,76.0,0,96,0.0,64.0
378,57.0,0,96,0.0,64.0
379,73.0,96,96,0.0,64.0
380,58.0,96,96,0.0,64.0
381,74.0,96,288,0.0,64.0
382,55.0,96,96,0.0,64.0
383,52.0,0,192,0.0,64.0
384,45.0,0,1920,0.0,64.0
385,71.0,96,96,0.0,64.0
386,57.0,96,96,0.0,64.0
387,73.0,0,96,0.0,64.0
388,55.0,0,96,0.0,64.0
389,76.0,96,96,0.0,64.0
390,69.0,0,768,0.0,64.0
391,53.0,96,96,0.0,64.0
392,67.0,0,0,0.0,64.0
393,52.0,0,96,0.0,64.0
394,50.0,0,96,0.0,64.0
395,65.0,96,96,0.0,64.0
396,64.0,0,96,0.0,64.0
397,49.0,96,96,0.0,64.0
398,50.0,96,96,0.0,64.0
399,65.0,0,96,0.0,64.0
400,61.0,96,96,0.0,64.0
401,52.0,0,96,0.0,64.0
402,53.0,0,96,0.0,64.0
403,62.0,96,96,0.0,64.0
404,65.0,192,96,0.0,64.0
405,50.0,0,480,0.0,64.0
406,56.0,192,384,0.0,64.0
407,59.0,0,384,0.0,64.0
408,65.0,96,96,0.0,64.0
409,64.0,96,96,0.0,64.0
410,62.0,0,96,0.0,64.0
411,62.0,192,192,0.0,64.0
412,57.0,0,384,0.0,64.0
413,52.0,0,384,0.0,64.0
414,61.0,288,192,0.0,64.0
415,57.0,48,48,0.0,64.0
416,59.0,48,48,0.0,64.0
417,61.0,48,48,0.0,64.0
418,62.0,48,48,0.0,64.0
419,64.0,48,48,0.0,64.0
420,65.0,48,48,0.0,64.0
421,67.0,48,48,0.0,64.0
422,69.0,48,48,0.0,64.0
423,70.0,48,48,0.0,64.0
424,69.0,48,48,0.0,64.0
425,67.0,384,48,0.0,64.0
426,76.0,0,576,0.0,64.0
427,55.0,0,192,0.0,64.0
428,73.0,0,384,0.0,64.0
429,67.0,0,384,0.0,64.0
430,46.0,192,192,0.0,64.0
431,58.0,192,384,0.0,64.0
432,52.0,0,0,0.0,64.0
433,38.0,0,384,0.0,64.0
434,71.0,0,192,0.0,64.0
435,66.0,96,192,0.0,64.0
436,74.0,0,192,0.0,64.0
437,54.0,0,192,0.0,64.0
438,59.0,0,192,0.0,64.0
439,71.0,48,48,0.0,64.0
440,70.0,48,48,0.0,64.0
441,71.0,48,48,0.0,64.0
442,73.0,24,48,0.0,64.0
443,71.0,24,24,0.0,64.0
444,73.0,48,24,0.0,64.0
445,71.0,24,48,0.0,64.0
446,70.0,24,24,0.0,64.0
447,71.0,48,24,0.0,64.0
448,74.0,48,48,0.0,64.0
449,71.0,48,48,0.0,64.0
450,70.0,48,48,0.0,64.0
451,71.0,48,48,0.0,64.0
452,73.0,24,48,0.0,64.0
453,71.0,24,24,0.0,64.0
454,73.0,48,24,0.0,64.0
455,71.0,24,48,0.0,64.0
456,70.0,24,24,0.0,64.0
457,71.0,384,24,0.0,64.0
458,80.0,192,576,0.0,64.0
459,62.0,0,384,0.0,64.0
460,53.0,192,192,0.0,64.0
461,50.0,0,192,0.0,64.0
462,77.0,0,384,0.0,64.0
463,71.0,0,384,0.0,64.0
464,55.0,48,384,0.0,64.0
465,51.0,0,384,0.0,64.0
466,60.0,0,192,0.0,64.0
467,72.0,0,192,0.0,64.0
468,75.0,0,192,0.0,64.0
469,79.0,48,240,0.0,64.0
470,77.0,48,48,0.0,64.0
471,75.0,48,48,0.0,64.0
472,74.0,48,48,0.0,64.0
473,75.0,48,48,0.0,64.0
474,79.0,96,48,0.0,64.0
475,71.0,48,96,0.0,64.0
476,72.0,48,48,0.0,64.0
477,74.0,48,48,0.0,64.0
478,72.0,48,48,0.0,64.0
479,71.0,48,48,0.0,64.0
480,72.0,48,48,0.0,64.0
481,75.0,96,48,0.0,64.0
482,67.0,48,96,0.0,64.0
483,68.0,48,48,0.0,64.0
484,70.0,48,48,0.0,64.0
485,68.0,48,48,0.0,64.0
486,67.0,48,48,0.0,64.0
487,68.0,48,48,0.0,64.0
488,72.0,96,48,0.0,64.0
489,75.0,96,96,0.0,64.0
490,67.0,288,96,0.0,64.0
491,66.0,0,288,0.0,64.0
492,75.0,0,192,0.0,64.0
493,72.0,0,192,0.0,64.0
494,60.0,0,192,0.0,64.0
495,57.0,192,192,0.0,64.0
496,67.0,192,192,0.0,64.0
497,74.0,0,960,0.0,64.0
498,70.0,0,192,0.0,64.0
499,62.0,0,192,0.0,64.0
500,58.0,0,192,0.0,64.0
501,69.0,0,192,0.0,64.0
502,57.0,0,192,0.0,64.0
503,54.0,0,192,0.0,64.0
504,72.0,192,192,0.0,64.0
505,70.0,0,576,0.0,64.0
506,55.0,0,192,0.0,64.0
507,58.0,0,192,0.0,64.0
508,67.0,96,192,0.0,64.0
509,50.0,0,192,0.0,64.0
510,66.0,96,192,0.0,64.0
511,62.0,96,96,0.0,64.0
512,60.0,0,96,0.0,64.0
513,51.0,384,384,0.0,64.0
514,67.0,0,384,0.0,64.0
515,58.0,96,96,0.0,64.0
516,55.0,96,96,0.0,64.0
517,69.0,96,576,0.0,64.0
518,72.0,96,672,0.0,64.0
519,60.0,48,96,0.0,64.0
520,62.0,48,48,0.0,64.0
521,63.0,0,48,0.0,64.0
522,66.0,0,384,0.0,64.0
523,57.0,0,384,0.0,64.0
524,84.0,48,96,0.0,64.0
525,82.0,48,48,0.0,64.0
526,81.0,48,48,0.0,64.0
527,82.0,48,48,0.0,64.0
528,84.0,96,48,0.0,64.0
529,78.0,192,96,0.0,64.0
530,75.0,96,192,0.0,64.0
531,50.0,0,192,0.0,64.0
532,54.0,0,192,0.0,64.0
533,74.0,96,96,0.0,64.0
534,52.0,0,192,0.0,64.0
535,55.0,0,192,0.0,64.0
536,73.0,96,96,0.0,64.0
537,82.0,48,96,0.0,64.0
538,81.0,48,48,0.0,64.0
539,79.0,48,48,0.0,64.0
540,81.0,48,48,0.0,64.0
541,82.0,96,48,0.0,64.0
542,75.0,192,96,0.0,64.0
543,74.0,96,192,0.0,64.0
544,57.0,96,192,0.0,64.0
545,54.0,0,192,0.0,64.0
546,72.0,0,96,0.0,64.0
547,70.0,0,192,0.0,64.0
548,58.0,0,192,0.0,64.0
549,55.0,0,192,0.0,64.0
550,69.0,48,48,0.0,64.0
551,67.0,48,48,0.0,64.0
552,66.0,96,48,0.0,64.0
553,67.0,48,144,0.0,64.0
554,70.0,48,48,0.0,64.0
555,69.0,0,48,0.0,64.0
556,67.0,96,48,0.0,64.0
557,73.0,96,192,0.0,64.0
558,70.0,48,48,0.0,64.0
559,69.0,48,48,0.0,64.0
560,67.0,0,48,0.0,64.0
561,74.0,192,192,0.0,64.0
562,70.0,48,48,0.0,64.0
563,69.0,48,48,0.0,64.0
564,67.0,0,48,0.0,64.0
565,76.0,384,192,0.0,64.0
566,61.0,0,384,0.0,64.0
567,63.0,0,384,0.0,64.0
568,67.0,192,384,0.0,64.0
569,55.0,0,384,0.0,64.0
570,58.0,0,384,0.0,64.0
571,57.0,0,192,0.0,64.0
572,66.0,144,192,0.0,64.0
573,62.0,0,192,0.0,64.0
574,62.0,48,48,0.0,64.0
575,64.0,96,48,0.0,64.0
576,66.0,48,0,0.0,64.0
577,67.0,96,48,0.0,64.0
578,69.0,48,0,0.0,64.0
579,70.0,96,48,0.0,64.0
580,72.0,48,0,0.0,64.0
581,74.0,96,48,0.0,64.0
582,75.0,96,96,0.0,64.0
583,74.0,96,96,0.0,64.0
584,78.0,192,768,0.0,64.0
585,45.0,0,192,0.0,64.0
586,75.0,96,96,0.0,64.0
587,72.0,144,192,0.0,64.0
588,74.0,0,96,0.0,64.0
589,70.0,192,384,0.0,64.0
590,75.0,0,576,0.0,64.0
591,46.0,0,2304,0.0,64.0
592,63.0,48,48,0.0,64.0
593,65.0,48,48,0.0,64.0
594,66.0,48,48,0.0,64.0
595,65.0,96,48,0.0,64.0
596,63.0,0,96,0.0,64.0
597,71.0,192,384,0.0,64.0
598,68.0,0,384,0.0,64.0
599,74.0,0,384,0.0,64.0
600,77.0,192,384,0.0,64.0
601,66.0,0,384,0.0,64.0
602,70.0,192,384,0.0,64.0
603,75.0,192,384,0.0,64.0
604,68.0,0,384,0.0,64.0
605,65.0,192,576,0.0,64.0
606,80.0,192,384,0.0,64.0
607,74.0,0,192,0.0,64.0
608,66.0,0,384,0.0,64.0
609,75.0,192,384,0.0,64.0
610,82.0,0,384,0.0,64.0
611,63.0,96,384,0.0,64.0
612,80.0,0,576,0.0,64.0
613,65.0,0,576,0.0,64.0
614,77.0,0,576,0.0,64.0
615,62.0,48,96,0.0,64.0
616,63.0,48,48,0.0,64.0
617,60.0,192,48,0.0,64.0
618,47.0,384,384,0.0,64.0
619,62.0,96,192,0.0,64.0
620,66.0,0,192,0.0,64.0
621,63.0,0,192,0.0,64.0
622,75.0,96,96,0.0,64.0
623,78.0,0,96,0.0,64.0
624,74.0,0,96,0.0,64.0
625,77.0,0,96,0.0,64.0
626,75.0,96,576,0.0,64.0
627,78.0,0,576,0.0,64.0
628,48.0,192,384,0.0,64.0
629,69.0,0,192,0.0,64.0
630,63.0,0,192,0.0,64.0
631,49.0,0,384,0.0,64.0
632,70.0,0,384,0.0,64.0
633,77.0,96,864,0.0,64.0
634,73.0,96,96,0.0,64.0
635,72.0,192,96,0.0,64.0
636,71.0,96,480,0.0,64.0
637,50.0,96,384,0.0,64.0
638,68.0,96,96,0.0,64.0
639,67.0,0,96,0.0,64.0
640,65.0,96,0,0.0,64.0
641,51.0,0,384,0.0,64.0
642,67.0,0,384,0.0,64.0
643,71.0,96,96,0.0,64.0
644,72.0,192,384,0.0,64.0
645,55.0,96,288,0.0,64.0
646,75.0,96,96,0.0,64.0
647,52.0,192,384,0.0,64.0
648,79.0,0,576,0.0,64.0
649,56.0,0,96,0.0,64.0
650,58.0,192,384,0.0,64.0
651,73.0,0,384,0.0,64.0
652,64.0,0,384,0.0,64.0
653,44.0,0,384,0.0,64.0
654,72.0,0,192,0.0,64.0
655,56.0,144,192,0.0,64.0
656,65.0,0,192,0.0,64.0
657,77.0,0,192,0.0,64.0
658,65.0,48,48,0.0,64.0
659,67.0,48,48,0.0,64.0
660,68.0,48,48,0.0,64.0
661,70.0,48,48,0.0,64.0
662,72.0,48,48,0.0,64.0
663,74.0,48,48,0.0,64.0
664,75.0,48,48,0.0,64.0
665,74.0,48,48,0.0,64.0
666,72.0,48,48,0.0,64.0
667,71.0,48,48,0.0,64.0
668,72.0,48,48,0.0,64.0
669,78.0,48,48,0.0,64.0
670,79.0,48,48,0.0,64.0
671,81.0,48,48,0.0,64.0
672,79.0,48,48,0.0,64.0
673,78.0,48,48,0.0,64.0
674,76.0,48,48,0.0,64.0
675,74.0,96,48,0.0,64.0
676,57.0,0,192,0.0,64.0
677,62.0,0,192,0.0,64.0
678,86.0,96,96,0.0,64.0
679,38.0,0,192,0.0,64.0
680,78.0,192,0,0.0,64.0
681,72.0,0,0,0.0,64.0
682,43.0,0,384,0.0,64.0
683,62.0,0,384,0.0,64.0
684,79.0,0,192,0.0,64.0
685,71.0,0,192,0.0,64.0
686,55.0,288,0,0.0,64.0
687,70.0,96,96,0.0,64.0
688,67.0,96,96,0.0,64.0
689,64.0,96,96,0.0,64.0
690,65.0,0,96,0.0,64.0
691,67.0,0,768,0.0,64.0
692,52.0,96,192,0.0,64.0
693,73.0,0,384,0.0,64.0
694,82.0,96,96,0.0,64.0
695,79.0,0,96,0.0,64.0
696,76.0,96,96,0.0,64.0
697,48.0,96,192,0.0,64.0
698,77.0,0,96,0.0,64.0
699,72.0,96,96,0.0,64.0
700,79.0,0,192,0.0,64.0
701,52.0,96,192,0.0,64.0
702,44.0,0,192,0.0,64.0
703,72.0,96,96,0.0,64.0
704,70.0,0,0,0.0,64.0
705,76.0,0,96,0.0,64.0
706,48.0,0,192,0.0,64.0
707,68.0,96,96,0.0,64.0
708,77.0,96,288,0.0,64.0
709,65.0,0,96,0.0,64.0
710,64.0,0,96,0.0,64.0
711,67.0,96,96,0.0,64.0
712,65.0,0,192,0.0,64.0
713,44.0,96,192,0.0,64.0
714,68.0,0,192,0.0,64.0
715,79.0,0,96,0.0,64.0
716,77.0,96,96,0.0,64.0
717,80.0,96,768,0.0,64.0
718,41.0,0,192,0.0,64.0
719,74.0,96,96,0.0,64.0
720,50.0,0,192,0.0,64.0
721,71.0,96,96,0.0,64.0
722,72.0,96,96,0.0,64.0
723,74.0,0,768,0.0,64.0
724,47.0,0,192,0.0,64.0
725,65.0,96,96,0.0,64.0
726,62.0,96,96,0.0,64.0
727,43.0,0,192,0.0,64.0
728,59.0,96,96,0.0,64.0
729,60.0,0,96,0.0,64.0
730,47.0,0,192,0.0,64.0
731,62.0,0,192,0.0,64.0
732,79.0,96,96,0.0,64.0
733,77.0,96,96,0.0,64.0
734,55.0,96,96,0.0,64.0
735,39.0,96,192,0.0,64.0
736,77.0,0,192,0.0,64.0
737,59.0,0,96,0.0,64.0
738,60.0,0,384,0.0,64.0
739,72.0,96,96,0.0,64.0
740,75.0,0,96,0.0,64.0
741,43.0,96,192,0.0,64.0
742,71.0,0,96,0.0,64.0
743,74.0,0,96,0.0,64.0
744,72.0,96,96,0.0,64.0
745,39.0,0,192,0.0,64.0
746,74.0,0,96,0.0,64.0
747,55.0,0,192,0.0,64.0
748,75.0,96,0,0.0,64.0
749,36.0,96,192,0.0,64.0
750,72.0,0,96,0.0,64.0
751,60.0,0,192,0.0,64.0
752,45.0,96,192,0.0,64.0
753,66.0,96,96,0.0,64.0
754,67.0,0,96,0.0,64.0
755,63.0,0,384,0.0,64.0
756,69.0,96,768,0.0,64.0
757,84.0,96,96,0.0,64.0
758,42.0,0,192,0.0,64.0
759,81.0,96,96,0.0,64.0
760,78.0,96,96,0.0,64.0
761,38.0,96,192,0.0,64.0
762,79.0,0,96,0.0,64.0
763,62.0,96,96,0.0,64.0
764,42.0,192,192,0.0,64.0
765,81.0,0,192,0.0,64.0
766,60.0,0,96,0.0,64.0
767,62.0,96,960,0.0,64.0
768,46.0,0,192,0.0,64.0
769,74.0,0,192,0.0,64.0
770,82.0,96,288,0.0,64.0
771,43.0,96,192,0.0,64.0
772,74.0,96,96,0.0,64.0
773,70.0,0,96,0.0,64.0
774,40.0,0,192,0.0,64.0
775,67.0,0,96,0.0,64.0
776,81.0,96,96,0.0,64.0
777,69.0,0,96,0.0,64.0
778,43.0,0,192,0.0,64.0
779,70.0,96,288,0.0,64.0
780,79.0,96,96,0.0,64.0
781,77.0,96,96,0.0,64.0
782,75.0,0,960,0.0,64.0
783,48.0,0,192,0.0,64.0
784,67.0,0,96,0.0,64.0
785,72.0,96,288,0.0,64.0
786,45.0,96,192,0.0,64.0
787,63.0,96,96,0.0,64.0
788,60.0,0,96,0.0,64.0
789,57.0,0,96,0.0,64.0
790,42.0,96,192,0.0,64.0
791,58.0,0,96,0.0,64.0
792,70.0,0,96,0.0,64.0
793,60.0,96,288,0.0,64.0
794,69.0,96,96,0.0,64.0
795,45.0,0,192,0.0,64.0
796,67.0,96,96,0.0,64.0
797,50.0,96,192,0.0,64.0
798,66.0,0,192,0.0,64.0
799,57.0,0,96,0.0,64.0
800,74.0,96,96,0.0,64.0
801,62.0,96,288,0.0,64.0
802,46.0,0,192,0.0,64.0
803,67.0,0,96,0.0,64.0
804,72.0,96,96,0.0,64.0
805,69.0,0,96,0.0,64.0
806,70.0,0,576,0.0,64.0
807,43.0,0,192,0.0,64.0
808,72.0,0,96,0.0,64.0
809,60.0,96,96,0.0,64.0
810,74.0,96,384,0.0,64.0
811,46.0,96,192,0.0,64.0
812,58.0,96,96,0.0,64.0
813,57.0,0,96,0.0,64.0
814,55.0,96,96,0.0,64.0
815,39.0,0,768,0.0,64.0
816,58.0,0,96,0.0,64.0
817,69.0,96,96,0.0,64.0
818,72.0,0,1056,0.0,64.0
819,60.0,96,288,0.0,64.0
820,67.0,96,96,0.0,64.0
821,69.0,0,96,0.0,64.0
822,66.0,0,96,0.0,64.0
823,62.0,96,96,0.0,64.0
824,63.0,96,96,0.0,64.0
825,67.0,96,288,0.0,64.0
826,60.0,96,96,0.0,64.0
827,38.0,0,1920,0.0,64.0
828,57.0,0,192,0.0,64.0
829,64.0,96,96,0.0,64.0
830,66.0,96,96,0.0,64.0
831,62.0,0,96,0.0,64.0
832,60.0,0,96,0.0,64.0
833,69.0,96,96,0.0,64.0
834,62.0,96,768,0.0,64.0
835,58.0,96,96,0.0,64.0
836,57.0,0,96,0.0,64.0
837,72.0,96,96,0.0,64.0
838,55.0,96,96,0.0,64.0
839,70.0,0,96,0.0,64.0
840,69.0,96,96,0.0,64.0
841,54.0,0,96,0.0,64.0
842,70.0,96,96,0.0,64.0
843,66.0,0,96,0.0,64.0
844,57.0,96,96,0.0,64.0
845,67.0,96,96,0.0,64.0
846,58.0,0,96,0.0,64.0
847,55.0,0,0,0.0,64.0
848,70.0,0,96,0.0,64.0
849,64.0,0,384,0.0,64.0
850,73.0,96,384,0.0,64.0
851,55.0,96,0,0.0,64.0
852,70.0,0,96,0.0,64.0
853,69.0,96,96,0.0,64.0
854,54.0,0,96,0.0,64.0
855,67.0,96,192,0.0,64.0
856,55.0,0,96,0.0,64.0
857,57.0,0,384,0.0,64.0
858,74.0,0,384,0.0,64.0
859,64.0,192,96,0.0,64.0
860,66.0,0,192,0.0,64.0
861,62.0,192,0,0.0,64.0
862,69.0,0,384,0.0,64.0
863,66.0,0,384,0.0,64.0
864,60.0,192,192,0.0,64.0
865,58.0,192,192,0.0,64.0
866,70.0,0,384,0.0,64.0
867,57.0,192,192,0.0,64.0
868,62.0,192,384,0.0,64.0
869,71.0,0,384,0.0,64.0
870,55.0,192,192,0.0,64.0
871,53.0,0,192,0.0,64.0
872,63.0,192,384,0.0,64.0
873,51.0,192,192,0.0,64.0
874,50.0,0,192,0.0,64.0
875,64.0,192,384,0.0,64.0
876,60.0,192,192,0.0,64.0
877,67.0,0,0,0.0,64.0
878,58.0,0,192,0.0,64.0
879,68.0,0,384,0.0,64.0
880,65.0,0,1152,0.0,64.0
881,56.0,192,192,0.0,64.0
882,55.0,192,192,0.0,64.0
883,72.0,0,0,0.0,64.0
884,69.0,0,384,0.0,64.0
885,53.0,192,192,0.0,64.0
886,51.0,0,192,0.0,64.0
887,73.0,0,384,0.0,64.0
888,49.0,192,192,0.0,64.0
889,70.0,0,1536,0.0,64.0
890,48.0,192,192,0.0,64.0
891,53.0,192,384,0.0,64.0
892,74.0,0,384,0.0,64.0
893,65.0,0,384,0.0,64.0
894,58.0,192,192,0.0,64.0
895,56.0,0,192,0.0,64.0
896,54.0,192,192,0.0,64.0
897,75.0,0,1536,0.0,64.0
898,63.0,192,384,0.0,64.0
899,53.0,0,192,0.0,64.0
900,58.0,0,384,0.0,64.0
901,55.0,0,384,0.0,64.0
902,51.0,192,192,0.0,64.0
903,49.0,192,192,0.0,64.0
904,59.0,0,384,0.0,64.0
905,68.0,0,1536,0.0,64.0
906,47.0,192,192,0.0,64.0
907,46.0,192,192,0.0,64.0
908,60.0,192,384,0.0,64.0
909,56.0,192,192,0.0,64.0
910,63.0,0,384,0.0,64.0
911,54.0,0,192,0.0,64.0
912,64.0,0,384,0.0,64.0
913,52.0,192,192,0.0,64.0
914,61.0,0,1152,0.0,64.0
915,51.0,192,192,0.0,64.0
916,49.0,192,192,0.0,64.0
917,65.0,384,384,0.0,64.0
918,47.0,0,192,0.0,64.0
919,73.0,0,0,0.0,64.0
920,58.0,384,384,0.0,64.0
921,76.0,0,384,0.0,64.0
922,67.0,0,384,0.0,64.0
923,46.0,0,384,0.0,64.0
924,46.0,0,192,0.0,64.0
925,67.0,384,192,0.0,64.0
926,73.0,0,192,0.0,64.0
927,76.0,0,192,0.0,64.0
928,48.0,192,384,0.0,64.0
929,66.0,0,384,0.0,64.0
930,75.0,0,384,0.0,64.0
931,69.0,0,384,0.0,64.0
932,70.0,144,384,0.0,64.0
933,64.0,192,192,0.0,64.0
934,76.0,192,960,0.0,64.0
935,49.0,0,384,0.0,64.0
936,66.0,0,192,0.0,64.0
937,67.0,0,576,0.0,64.0
938,71.0,192,384,0.0,64.0
939,47.0,192,2304,0.0,64.0
940,52.0,48,48,0.0,64.0
941,54.0,48,48,0.0,64.0
942,55.0,48,48,0.0,64.0
943,54.0,96,48,0.0,64.0
944,52.0,0,96,0.0,64.0
945,69.0,192,384,0.0,64.0
946,60.0,0,384,0.0,64.0
947,75.0,192,384,0.0,64.0
948,66.0,0,192,0.0,64.0
949,64.0,0,384,0.0,64.0
950,67.0,0,384,0.0,64.0
951,59.0,192,384,0.0,64.0
952,76.0,192,384,0.0,64.0
953,72.0,0,384,0.0,64.0
954,66.0,192,384,0.0,64.0
955,57.0,0,576,0.0,64.0
956,75.0,0,192,0.0,64.0
957,71.0,0,384,0.0,64.0
958,76.0,0,384,0.0,64.0
959,67.0,0,384,0.0,64.0
960,64.0,192,192,0.0,64.0
961,55.0,0,192,0.0,64.0
962,69.0,96,576,0.0,64.0
963,72.0,0,576,0.0,64.0
964,78.0,0,576,0.0,64.0
965,63.0,192,192,0.0,64.0
966,66.0,0,384,0.0,64.0
967,54.0,0,576,0.0,64.0
968,57.0,0,384,0.0,64.0
969,60.0,0,96,0.0,64.0
970,63.0,0,192,0.0,64.0
971,48.0,384,384,0.0,64.0
972,71.0,0,192,0.0,64.0
973,76.0,0,96,0.0,64.0
974,67.0,96,96,0.0,64.0
975,66.0,0,96,0.0,64.0
976,75.0,0,96,0.0,64.0
977,67.0,0,576,0.0,64.0
978,76.0,0,576,0.0,64.0
979,64.0,0,0,0.0,64.0
980,70.0,0,576,0.0,64.0
981,49.0,0,384,0.0,64.0
982,52.0,192,192,0.0,64.0
983,61.0,192,384,0.0,64.0
984,50.0,0,384,0.0,64.0
985,54.0,0,384,0.0,64.0
986,59.0,0,192,0.0,64.0
987,74.0,0,192,0.0,64.0
988,71.0,0,192,0.0,64.0
989,66.0,384,192,0.0,64.0
990,51.0,0,384,0.0,64.0
991,78.0,0,576,0.0,64.0
992,66.0,0,192,0.0,64.0
993,54.0,192,192,0.0,64.0
994,72.0,0,192,0.0,64.0
995,69.0,0,192,0.0,64.0
996,68.0,0,384,0.0,64.0
997,71.0,0,576,0.0,64.0
998,56.0,96,480,0.0,64.0
999,52.0,96,384,0.0,64.0
1000,59.0,96,192,0.0,64.0
1001,76.0,96,96,0.0,64.0
1002,64.0,0,192,0.0,64.0
1003,78.0,0,96,0.0,64.0
1004,80.0,96,480,0.0,64.0
1005,62.0,0,768,0.0,64.0
1006,55.0,0,96,0.0,64.0
1007,74.0,96,864,0.0,64.0
1008,53.0,96,0,0.0,64.0
1009,51.0,0,96,0.0,64.0
1010,47.0,96,192,0.0,64.0
1011,79.0,0,96,0.0,64.0
1012,77.0,96,96,0.0,64.0
1013,50.0,0,192,0.0,64.0
1014,80.0,0,96,0.0,64.0
1015,47.0,0,192,0.0,64.0
1016,79.0,96,96,0.0,64.0
1017,77.0,96,96,0.0,64.0
1018,43.0,96,192,0.0,64.0
1019,75.0,0,96,0.0,64.0
1020,74.0,96,192,0.0,64.0
1021,75.0,96,1152,0.0,64.0
1022,48.0,96,192,0.0,64.0
1023,72.0,0,96,0.0,64.0
1024,71.0,96,96,0.0,64.0
1025,50.0,96,192,0.0,64.0
1026,74.0,0,96,0.0,64.0
1027,60.0,96,480,0.0,64.0
1028,72.0,96,96,0.0,64.0
1029,51.0,96,192,0.0,64.0
1030,70.0,0,96,0.0,64.0
1031,69.0,96,96,0.0,64.0
1032,48.0,0,192,0.0,64.0
1033,67.0,96,96,0.0,64.0
1034,50.0,0,192,0.0,64.0
1035,66.0,0,192,0.0,64.0
1036,58.0,96,96,0.0,64.0
1037,69.0,96,288,0.0,64.0
1038,54.0,0,192,0.0,64.0
1039,57.0,96,96,0.0,64.0
1040,60.0,0,96,0.0,64.0
1041,58.0,0,96,0.0,64.0
1042,55.0,0,192,0.0,64.0
1043,74.0,96,480,0.0,64.0
1044,72.0,0,96,0.0,64.0
1045,57.0,96,96,0.0,64.0
1046,46.0,96,192,0.0,64.0
1047,70.0,96,96,0.0,64.0
1048,55.0,0,96,0.0,64.0
1049,54.0,0,96,0.0,64.0
1050,69.0,0,96,0.0,64.0
1051,67.0,96,192,0.0,64.0
1052,51.0,96,576,0.0,64.0
1053,55.0,0,576,0.0,64.0
1054,72.0,0,96,0.0,64.0
1055,66.0,96,192,0.0,64.0
1056,70.0,96,96,0.0,64.0
1057,74.0,0,96,0.0,64.0
1058,67.0,0,192,0.0,64.0
1059,72.0,96,96,0.0,64.0
1060,70.0,0,96,0.0,64.0
1061,48.0,0,192,0.0,64.0
1062,69.0,96,96,0.0,64.0
1063,60.0,96,288,0.0,64.0
1064,63.0,96,192,0.0,64.0
1065,67.0,0,96,0.0,64.0
1066,66.0,96,192,0.0,64.0
1067,62.0,0,768,0.0,64.0
1068,50.0,0,384,0.0,64.0
1069,58.0,0,96,0.0,64.0
1070,57.0,96,96,0.0,64.0
1071,69.0,0,192,0.0,64.0
1072,60.0,96,96,0.0,64.0
1073,67.0,0,192,0.0,64.0
1074,58.0,96,96,0.0,64.0
1075,57.0,96,96,0.0,64.0
1076,55.0,96,96,0.0,64.0
1077,70.0,144,288,0.0,64.0
1078,43.0,0,192,0.0,64.0
1079,54.0,96,96,0.0,64.0
1080,63.0,48,384,0.0,64.0
1081,48.0,0,1152,0.0,64.0
1082,55.0,0,384,0.0,64.0
1083,75.0,48,144,0.0,64.0
1084,74.0,48,48,0.0,64.0
1085,72.0,48,48,0.0,64.0
1086,71.0,0,48,0.0,64.0
1087,72.0,48,48,0.0,64.0
1088,70.0,48,48,0.0,64.0
1089,68.0,48,48,0.0,64.0
1090,67.0,48,48,0.0,64.0
1091,63.0,0,192,0.0,64.0
1092,60.0,0,192,0.0,64.0
1093,68.0,48,48,0.0,64.0
1094,72.0,48,48,0.0,64.0
1095,70.0,48,48,0.0,64.0
1096,68.0,48,48,0.0,64.0
1097,67.0,48,48,0.0,64.0
1098,62.0,96,192,0.0,64.0
1099,57.0,0,192,0.0,64.0
1100,66.0,96,48,0.0,64.0
1101,75.0,48,192,0.0,64.0
1102,57.0,0,192,0.0,64.0
1103,54.0,0,192,0.0,64.0
1104,74.0,48,48,0.0,64.0
1105,73.0,48,48,0.0,64.0
1106,82.0,48,48,0.0,64.0
1107,81.0,48,48,0.0,64.0
1108,79.0,48,48,0.0,64.0
1109,78.0,48,48,0.0,64.0
1110,58.0,48,192,0.0,64.0
1111,79.0,48,48,0.0,64.0
1112,62.0,0,192,0.0,64.0
1113,46.0,0,192,0.0,64.0
1114,81.0,48,48,0.0,64.0
1115,78.0,48,48,0.0,64.0
1116,79.0,48,96,0.0,64.0
1117,61.0,0,192,0.0,64.0
1118,52.0,0,192,0.0,64.0
1119,45.0,48,192,0.0,64.0
1120,81.0,96,48,0.0,64.0
1121,82.0,48,144,0.0,64.0
1122,37.0,48,192,0.0,64.0
1123,55.0,0,192,0.0,64.0
1124,64.0,0,192,0.0,64.0
1125,81.0,48,48,0.0,64.0
1126,79.0,48,48,0.0,64.0
1127,78.0,0,48,0.0,64.0
1128,79.0,48,48,0.0,64.0
1129,40.0,0,192,0.0,64.0
1130,77.0,48,48,0.0,64.0
1131,76.0,48,48,0.0,64.0
1132,77.0,48,48,0.0,64.0
1133,43.0,0,192,0.0,64.0
1134,58.0,96,192,0.0,64.0
1135,67.0,0,192,0.0,64.0
1136,75.0,48,48,0.0,64.0
1137,74.0,48,48,0.0,64.0
1138,73.0,48,48,0.0,64.0
1139,74.0,48,144,0.0,64.0
1140,42.0,0,192,0.0,64.0
1141,57.0,0,576,0.0,64.0
1142,69.0,0,192,0.0,64.0
1143,72.0,48,48,0.0,64.0
1144,71.0,192,48,0.0,64.0
1145,72.0,48,240,0.0,64.0
1146,38.0,48,192,0.0,64.0
1147,66.0,0,192,0.0,64.0
1148,43.0,0,192,0.0,64.0
1149,62.0,0,192,0.0,64.0
1150,70.0,96,48,0.0,64.0
1151,69.0,48,96,0.0,64.0
1152,55.0,96,96,0.0,64.0
1153,70.0,48,48,0.0,64.0
1154,64.0,0,192,0.0,64.0
1155,37.0,0,192,0.0,64.0
1156,69.0,0,48,0.0,64.0
1157,57.0,48,96,0.0,64.0
1158,67.0,48,144,0.0,64.0
1159,38.0,192,768,0.0,64.0
1160,62.0,48,672,0.0,64.0
1161,58.0,48,192,0.0,64.0
1162,66.0,48,48,0.0,64.0
1163,64.0,48,48,0.0,64.0
1164,66.0,0,48,0.0,64.0
1165,67.0,48,48,0.0,64.0
1166,57.0,0,96,0.0,64.0
1167,72.0,96,48,0.0,64.0
1168,69.0,96,96,0.0,64.0
1169,55.0,0,96,0.0,64.0
1170,57.0,96,96,0.0,64.0
1171,67.0,96,192,0.0,64.0
1172,58.0,0,96,0.0,64.0
1173,60.0,0,192,0.0,64.0
1174,66.0,48,144,0.0,64.0
1175,63.0,0,96,0.0,64.0
1176,67.0,0,48,0.0,64.0
1177,59.0,0,192,0.0,64.0
1178,43.0,96,384,0.0,64.0
1179,62.0,192,192,0.0,64.0
1180,65.0,0,192,0.0,64.0
1181,67.0,0,384,0.0,64.0
1182,61.0,0,192,0.0,64.0
1183,64.0,0,192,0.0,64.0
1184,58.0,0,192,0.0,64.0
1185,64.0,48,48,0.0,64.0
1186,63.0,48,48,0.0,64.0
1187,64.0,24,48,0.0,64.0
1188,65.0,24,24,0.0,64.0
1189,64.0,24,24,0.0,64.0
1190,65.0,24,24,0.0,64.0
1191,64.0,24,24,0.0,64.0
1192,65.0,24,24,0.0,64.0
1193,64.0,24,24,0.0,64.0
1194,63.0,24,24,0.0,64.0
1195,64.0,48,24,0.0,64.0
1196,70.0,48,48,0.0,64.0
1197,64.0,48,48,0.0,64.0
1198,63.0,48,48,0.0,64.0
1199,64.0,24,48,0.0,64.0
1200,65.0,24,24,0.0,64.0
1201,64.0,24,24,0.0,64.0
1202,65.0,24,24,0.0,64.0
1203,64.0,24,24,0.0,64.0
1204,65.0,24,24,0.0,64.0
1205,64.0,24,24,0.0,64.0
1206,63.0,24,24,0.0,64.0
1207,64.0,384,24,0.0,64.0
1208,73.0,192,576,0.0,64.0
1209,58.0,192,192,0.0,64.0
1210,55.0,0,384,0.0,64.0
1211,70.0,0,384,0.0,64.0
1212,64.0,0,384,0.0,64.0
1213,43.0,0,192,0.0,64.0
1214,60.0,0,384,0.0,64.0
1215,36.0,0,384,0.0,64.0
1216,65.0,0,192,0.0,64.0
1217,68.0,0,192,0.0,64.0
1218,72.0,48,240,0.0,64.0
1219,56.0,48,192,0.0,64.0
1220,70.0,48,48,0.0,64.0
1221,68.0,48,48,0.0,64.0
1222,67.0,48,48,0.0,64.0
1223,68.0,48,48,0.0,64.0
1224,72.0,96,48,0.0,64.0
1225,64.0,48,96,0.0,64.0
1226,65.0,48,48,0.0,64.0
1227,67.0,48,48,0.0,64.0
1228,65.0,48,48,0.0,64.0
1229,64.0,48,48,0.0,64.0
1230,65.0,48,48,0.0,64.0
1231,68.0,96,48,0.0,64.0
1232,60.0,48,96,0.0,64.0
1233,61.0,48,48,0.0,64.0
1234,63.0,48,48,0.0,64.0
1235,61.0,48,48,0.0,64.0
1236,60.0,48,48,0.0,64.0
1237,61.0,48,48,0.0,64.0
1238,65.0,96,48,0.0,64.0
1239,68.0,96,96,0.0,64.0
1240,60.0,288,96,0.0,64.0
1241,59.0,0,288,0.0,64.0
1242,53.0,0,192,0.0,64.0
1243,50.0,0,192,0.0,64.0
1244,68.0,0,192,0.0,64.0
1245,65.0,192,192,0.0,64.0
1246,67.0,48,432,0.0,64.0
1247,63.0,192,192,0.0,64.0
1248,55.0,0,192,0.0,64.0
1249,60.0,0,192,0.0,64.0
1250,51.0,0,192,0.0,64.0
1251,62.0,0,192,0.0,64.0
1252,50.0,0,192,0.0,64.0
1253,47.0,48,192,0.0,64.0
1254,65.0,0,192,0.0,64.0
1255,51.0,48,192,0.0,64.0
1256,60.0,0,192,0.0,64.0
1257,63.0,0,192,0.0,64.0
1258,48.0,0,192,0.0,64.0
1259,77.0,48,48,0.0,64.0
1260,75.0,48,48,0.0,64.0
1261,74.0,0,48,0.0,64.0
1262,43.0,96,192,0.0,64.0
1263,75.0,48,48,0.0,64.0
1264,79.0,96,48,0.0,64.0
1265,71.0,0,96,0.0,64.0
1266,72.0,48,432,0.0,64.0
1267,44.0,48,192,0.0,64.0
1268,65.0,48,48,0.0,64.0
1269,63.0,48,48,0.0,64.0
1270,62.0,0,48,0.0,64.0
1271,48.0,48,192,0.0,64.0
1272,63.0,48,48,0.0,64.0
1273,67.0,96,48,0.0,64.0
1274,60.0,0,96,0.0,64.0
1275,62.0,48,576,0.0,64.0
1276,42.0,48,192,0.0,64.0
1277,70.0,48,48,0.0,64.0
1278,72.0,48,48,0.0,64.0
1279,74.0,0,48,0.0,64.0
1280,72.0,48,48,0.0,64.0
1281,57.0,48,192,0.0,64.0
1282,75.0,96,48,0.0,64.0
1283,66.0,0,96,0.0,64.0
1284,67.0,48,48,0.0,64.0
1285,58.0,0,192,0.0,64.0
1286,70.0,48,48,0.0,64.0
1287,69.0,48,48,0.0,64.0
1288,67.0,0,48,0.0,64.0
1289,54.0,0,192,0.0,64.0
1290,57.0,0,192,0.0,64.0
1291,69.0,48,48,0.0,64.0
1292,62.0,0,384,0.0,64.0
1293,72.0,48,48,0.0,64.0
1294,70.0,48,48,0.0,64.0
1295,69.0,48,48,0.0,64.0
1296,70.0,48,48,0.0,64.0
1297,55.0,0,192,0.0,64.0
1298,67.0,48,48,0.0,64.0
1299,69.0,48,48,0.0,64.0
1300,70.0,0,48,0.0,64.0
1301,57.0,0,192,0.0,64.0
1302,72.0,48,48,0.0,64.0
1303,66.0,192,192,0.0,64.0
1304,50.0,0,192,0.0,64.0
1305,74.0,48,48,0.0,64.0
1306,76.0,48,48,0.0,64.0
1307,78.0,0,48,0.0,64.0
1308,79.0,0,960,0.0,64.0
1309,51.0,96,192,0.0,64.0
1310,55.0,0,192,0.0,64.0
1311,67.0,0,96,0.0,64.0
1312,70.0,0,288,0.0,64.0
1313,75.0,96,96,0.0,64.0
1314,65.0,0,96,0.0,64.0
1315,74.0,96,96,0.0,64.0
1316,49.0,96,480,0.0,64.0
1317,64.0,0,576,0.0,64.0
1318,76.0,0,576,0.0,64.0
1319,69.0,96,96,0.0,64.0
1320,54.0,0,96,0.0,64.0
1321,55.0,0,96,0.0,64.0
1322,70.0,96,96,0.0,64.0
1323,54.0,0,96,0.0,64.0
1324,69.0,96,96,0.0,64.0
1325,55.0,0,192,0.0,64.0
1326,70.0,0,192,0.0,64.0
1327,50.0,96,96,0.0,64.0
1328,51.0,96,96,0.0,64.0
1329,52.0,96,96,0.0,64.0
1330,53.0,96,96,0.0,64.0
1331,54.0,96,96,0.0,64.0
1332,55.0,96,96,0.0,64.0
1333,49.0,192,96,0.0,64.0
1334,38.0,1536,192,0.0,64.0
1335,57.0,0,192,0.0,64.0
1336,78.0,0,192,0.0,64.0
1337,72.0,0,192,0.0,64.0
1338,69.0,0,192,0.0,64.0
1339,50.0,192,0,0.0,64.0
1340,62.0,0,0,0.0,64.0
1341,55.0,0,1536,0.0,64.0
1342,50.0,0,1536,0.0,64.0
1343,43.0,0,1536,0.0,64.0
1344,79.0,2304,1536,0.0,64.0
1345,74.0,0,0,0.0,64.0
1346,71.0,0,1536,0.0,64.0
1347,74.0,96,192,0.0,64.0
1348,70.0,96,96,0.0,64.0
1349,72.0,96,96,0.0,64.0
1350,69.0,96,96,0.0,64.0
1351,70.0,192,96,0.0,64.0
1352,67.0,192,192,0.0,64.0
1353,79.0,96,192,0.0,64.0
1354,78.0,96,96,0.0,64.0
1355,79.0,96,96,0.0,64.0
1356,76.0,96,96,0.0,64.0
1357,78.0,192,96,0.0,64.0
1358,74.0,96,192,0.0,64.0
1359,79.0,96,96,0.0,64.0
1360,74.0,192,96,0.0,64.0
1361,75.0,192,192,0.0,64.0
1362,72.0,192,192,0.0,64.0
1363,65.0,192,192,0.0,64.0
1364,77.0,96,192,0.0,64.0
1365,74.0,96,96,0.0,64.0
1366,75.0,96,96,0.0,64.0
1367,72.0,96,96,0.0,64.0
1368,74.0,192,96,0.0,64.0
1369,70.0,96,192,0.0,64.0
1370,75.0,96,96,0.0,64.0
1371,70.0,192,96,0.0,64.0
1372,72.0,192,192,0.0,64.0
1373,69.0,192,192,0.0,64.0
1374,62.0,192,192,0.0,64.0
1375,74.0,96,192,0.0,64.0
1376,70.0,96,96,0.0,64.0
1377,72.0,96,96,0.0,64.0
1378,69.0,96,96,0.0,64.0
1379,70.0,96,96,0.0,64.0
1380,67.0,96,96,0.0,64.0
1381,69.0,96,96,0.0,64.0
1382,67.0,96,192,0.0,64.0
1383,70.0,96,96,0.0,64.0
1384,72.0,0,96,0.0,64.0
1385,74.0,96,192,0.0,64.0
1386,65.0,96,96,0.0,64.0
1387,67.0,0,96,0.0,64.0
1388,76.0,96,192,0.0,64.0
1389,64.0,96,96,0.0,64.0
1390,65.0,0,96,0.0,64.0
1391,62.0,0,192,0.0,64.0
1392,77.0,96,96,0.0,64.0
1393,79.0,96,96,0.0,64.0
1394,77.0,96,96,0.0,64.0
1395,74.0,96,192,0.0,64.0
1396,79.0,0,96,0.0,64.0
1397,81.0,0,192,0.0,64.0
1398,73.0,96,96,0.0,64.0
1399,74.0,96,96,0.0,64.0
1400,76.0,192,192,0.0,64.0
1401,71.0,96,96,0.0,64.0
1402,73.0,0,96,0.0,64.0
1403,77.0,192,768,0.0,64.0
1404,69.0,96,192,0.0,64.0
1405,74.0,96,96,0.0,64.0
1406,69.0,192,96,0.0,64.0
1407,70.0,192,192,0.0,64.0
1408,67.0,0,192,0.0,64.0
1409,76.0,0,768,0.0,64.0
1410,60.0,192,192,0.0,64.0
1411,72.0,96,192,0.0,64.0
1412,69.0,96,96,0.0,64.0
1413,70.0,96,96,0.0,64.0
1414,67.0,96,96,0.0,64.0
1415,69.0,192,96,0.0,64.0
1416,65.0,96,192,0.0,64.0
1417,74.0,192,768,0.0,64.0
1418,70.0,96,96,0.0,64.0
1419,65.0,192,96,0.0,64.0
1420,67.0,192,192,0.0,64.0
1421,64.0,0,192,0.0,64.0
1422,73.0,96,384,0.0,64.0
1423,57.0,192,192,0.0,64.0
1424,69.0,0,192,0.0,64.0
1425,65.0,96,96,0.0,64.0
1426,74.0,96,384,0.0,64.0
1427,67.0,96,96,0.0,64.0
1428,64.0,96,96,0.0,64.0
1429,65.0,0,96,0.0,64.0
1430,62.0,96,96,0.0,64.0
1431,64.0,96,96,0.0,64.0
1432,74.0,96,192,0.0,64.0
1433,65.0,96,96,0.0,64.0
1434,67.0,0,96,0.0,64.0
1435,69.0,0,192,0.0,64.0
1436,72.0,96,96,0.0,64.0
1437,74.0,96,96,0.0,64.0
1438,67.0,96,192,0.0,64.0
1439,70.0,96,96,0.0,64.0
1440,72.0,0,96,0.0,64.0
1441,66.0,0,192,0.0,64.0
1442,69.0,96,96,0.0,64.0
1443,70.0,96,96,0.0,64.0
1444,72.0,96,96,0.0,64.0
1445,62.0,0,192,0.0,64.0
1446,74.0,96,96,0.0,64.0
1447,67.0,0,192,0.0,64.0
1448,70.0,96,96,0.0,64.0
1449,72.0,96,96,0.0,64.0
1450,65.0,0,192,0.0,64.0
1451,69.0,96,96,0.0,64.0
1452,70.0,96,96,0.0,64.0
1453,67.0,96,96,0.0,64.0
1454,63.0,0,192,0.0,64.0
1455,69.0,96,96,0.0,64.0
1456,62.0,96,192,0.0,64.0
1457,70.0,96,96,0.0,64.0
1458,72.0,0,96,0.0,64.0
1459,60.0,96,192,0.0,64.0
1460,69.0,96,96,0.0,64.0
1461,70.0,0,96,0.0,64.0
1462,63.0,96,192,0.0,64.0
1463,67.0,96,96,0.0,64.0
1464,69.0,0,96,0.0,64.0
1465,66.0,96,96,0.0,64.0
1466,62.0,96,192,0.0,64.0
1467,69.0,0,96,0.0,64.0
1468,64.0,0,192,0.0,64.0
1469,67.0,96,96,0.0,64.0
1470,70.0,96,96,0.0,64.0
1471,66.0,96,192,0.0,64.0
1472,69.0,96,96,0.0,64.0
1473,72.0,0,96,0.0,64.0
1474,70.0,96,96,0.0,64.0
1475,67.0,0,192,0.0,64.0
1476,74.0,96,96,0.0,64.0
1477,72.0,96,96,0.0,64.0
1478,69.0,0,192,0.0,64.0
1479,75.0,96,96,0.0,64.0
1480,74.0,96,96,0.0,64.0
1481,70.0,0,192,0.0,64.0
1482,77.0,96,96,0.0,64.0
1483,72.0,96,288,0.0,64.0
1484,76.0,96,96,0.0,64.0
1485,78.0,96,96,0.0,64.0
1486,79.0,96,288,0.0,64.0
1487,70.0,96,96,0.0,64.0
1488,79.0,96,96,0.0,64.0
1489,62.0,0,192,0.0,64.0
1490,78.0,0,192,0.0,64.0
1491,69.0,96,0,0.0,64.0
1492,67.0,0,192,0.0,64.0
1493,58.0,96,96,0.0,64.0
1494,79.0,0,384,0.0,64.0
1495,60.0,96,96,0.0,64.0
1496,57.0,96,96,0.0,64.0
1497,69.0,0,192,0.0,64.0
1498,58.0,96,96,0.0,64.0
1499,70.0,96,96,0.0,64.0
1500,55.0,0,192,0.0,64.0
1501,72.0,96,96,0.0,64.0
1502,67.0,0,192,0.0,64.0
1503,70.0,96,96,0.0,64.0
1504,82.0,0,192,0.0,64.0
1505,72.0,96,96,0.0,64.0
1506,74.0,0,192,0.0,64.0
1507,66.0,96,96,0.0,64.0
1508,81.0,0,192,0.0,64.0
1509,67.0,96,96,0.0,64.0
1510,79.0,0,192,0.0,64.0
1511,69.0,0,192,0.0,64.0
1512,64.0,96,96,0.0,64.0
1513,66.0,192,96,0.0,64.0
1514,70.0,96,768,0.0,64.0
1515,78.0,96,192,0.0,64.0
1516,62.0,0,192,0.0,64.0
1517,67.0,96,96,0.0,64.0
1518,79.0,0,192,0.0,64.0
1519,62.0,96,96,0.0,64.0
1520,72.0,96,96,0.0,64.0
1521,63.0,192,192,0.0,64.0
1522,74.0,0,96,0.0,64.0
1523,60.0,0,192,0.0,64.0
1524,75.0,96,288,0.0,64.0
1525,69.0,0,768,0.0,64.0
1526,53.0,96,192,0.0,64.0
1527,75.0,0,96,0.0,64.0
1528,65.0,0,192,0.0,64.0
1529,74.0,96,96,0.0,64.0
1530,72.0,96,96,0.0,64.0
1531,62.0,96,96,0.0,64.0
1532,70.0,0,96,0.0,64.0
1533,72.0,96,96,0.0,64.0
1534,63.0,0,96,0.0,64.0
1535,60.0,96,96,0.0,64.0
1536,62.0,96,96,0.0,64.0
1537,67.0,96,768,0.0,64.0
1538,58.0,96,192,0.0,64.0
1539,74.0,96,0,0.0,64.0
1540,72.0,0,96,0.0,64.0
1541,63.0,96,96,0.0,64.0
1542,70.0,96,96,0.0,64.0
1543,58.0,0,96,0.0,64.0
1544,60.0,0,192,0.0,64.0
1545,69.0,96,96,0.0,64.0
1546,70.0,192,96,0.0,64.0
1547,72.0,96,288,0.0,64.0
1548,57.0,0,192,0.0,64.0
1549,66.0,0,384,0.0,64.0
1550,50.0,0,192,0.0,64.0
1551,72.0,96,96,0.0,64.0
1552,70.0,96,96,0.0,64.0
1553,62.0,96,192,0.0,64.0
1554,69.0,0,96,0.0,64.0
1555,58.0,96,96,0.0,64.0
1556,67.0,0,384,0.0,64.0
1557,60.0,96,96,0.0,64.0
1558,57.0,96,96,0.0,64.0
1559,74.0,0,192,0.0,64.0
1560,58.0,96,96,0.0,64.0
1561,79.0,0,576,0.0,64.0
1562,55.0,96,96,0.0,64.0
1563,57.0,96,96,0.0,64.0
1564,74.0,0,192,0.0,64.0
1565,58.0,96,96,0.0,64.0
1566,60.0,96,96,0.0,64.0
1567,69.0,96,384,0.0,64.0
1568,62.0,96,96,0.0,64.0
1569,63.0,96,96,0.0,64.0
1570,77.0,0,192,0.0,64.0
1571,60.0,96,96,0.0,64.0
1572,62.0,0,96,0.0,64.0
1573,58.0,96,96,0.0,64.0
1574,82.0,0,576,0.0,64.0
1575,60.0,96,96,0.0,64.0
1576,62.0,96,96,0.0,64.0
1577,77.0,96,192,0.0,64.0
1578,63.0,0,96,0.0,64.0
1579,65.0,96,96,0.0,64.0
1580,72.0,0,384,0.0,64.0
1581,67.0,96,96,0.0,64.0
1582,81.0,0,384,0.0,64.0
1583,63.0,96,96,0.0,64.0
1584,65.0,96,96,0.0,64.0
1585,70.0,0,384,0.0,64.0
1586,62.0,96,96,0.0,64.0
1587,65.0,96,96,0.0,64.0
1588,63.0,96,96,0.0,64.0
1589,62.0,96,96,0.0,64.0
1590,69.0,96,576,0.0,64.0
1591,60.0,96,96,0.0,64.0
1592,62.0,96,96,0.0,64.0
1593,79.0,0,0,0.0,64.0
1594,58.0,96,96,0.0,64.0
1595,60.0,0,96,0.0,64.0
1596,57.0,96,96,0.0,64.0
1597,78.0,0,384,0.0,64.0
1598,58.0,0,96,0.0,64.0
1599,69.0,0,192,0.0,64.0
1600,60.0,96,96,0.0,64.0
1601,62.0,96,96,0.0,64.0
1602,67.0,96,192,0.0,64.0
1603,79.0,96,384,0.0,64.0
1604,58.0,96,96,0.0,64.0
1605,60.0,0,96,0.0,64.0
1606,69.0,0,192,0.0,64.0
1607,57.0,96,96,0.0,64.0
1608,58.0,0,96,0.0,64.0
1609,70.0,96,384,0.0,64.0
1610,55.0,96,96,0.0,64.0
1611,57.0,96,96,0.0,64.0
1612,55.0,0,192,0.0,64.0
1613,74.0,96,96,0.0,64.0
1614,58.0,0,96,0.0,64.0
1615,60.0,0,96,0.0,64.0
1616,76.0,0,96,0.0,64.0
1617,62.0,0,192,0.0,64.0
1618,53.0,96,96,0.0,64.0
1619,69.0,96,192,0.0,64.0
1620,77.0,0,192,0.0,64.0
1621,55.0,0,96,0.0,64.0
1622,64.0,96,192,0.0,64.0
1623,79.0,0,192,0.0,64.0
1624,73.0,0,192,0.0,64.0
1625,52.0,96,96,0.0,64.0
1626,53.0,0,96,0.0,64.0
1627,74.0,0,192,0.0,64.0
1628,81.0,96,192,0.0,64.0
1629,50.0,0,192,0.0,64.0
1630,65.0,96,96,0.0,64.0
1631,67.0,0,96,0.0,64.0
1632,62.0,0,192,0.0,64.0
1633,82.0,0,192,0.0,64.0
1634,77.0,0,192,0.0,64.0
1635,65.0,96,96,0.0,64.0
1636,67.0,96,96,0.0,64.0
1637,81.0,96,480,0.0,64.0
1638,61.0,96,96,0.0,64.0
1639,76.0,0,192,0.0,64.0
1640,69.0,0,192,0.0,64.0
1641,62.0,96,96,0.0,64.0
1642,74.0,0,192,0.0,64.0
1643,64.0,0,192,0.0,64.0
1644,59.0,96,96,0.0,64.0
1645,61.0,96,96,0.0,64.0
1646,65.0,0,768,0.0,64.0
1647,57.0,96,192,0.0,64.0
1648,73.0,0,192,0.0,64.0
1649,79.0,0,96,0.0,64.0
1650,77.0,96,96,0.0,64.0
1651,74.0,96,192,0.0,64.0
1652,62.0,0,96,0.0,64.0
1653,57.0,0,96,0.0,64.0
1654,76.0,0,96,0.0,64.0
1655,58.0,192,192,0.0,64.0
1656,74.0,0,384,0.0,64.0
1657,67.0,96,96,0.0,64.0
1658,69.0,0,96,0.0,64.0
1659,55.0,96,192,0.0,64.0
1660,64.0,0,768,0.0,64.0
1661,48.0,96,192,0.0,64.0
1662,70.0,96,0,0.0,64.0
1663,69.0,96,96,0.0,64.0
1664,76.0,96,192,0.0,64.0
1665,60.0,0,192,0.0,64.0
1666,67.0,0,96,0.0,64.0
1667,57.0,0,96,0.0,64.0
1668,77.0,0,480,0.0,64.0
1669,65.0,96,96,0.0,64.0
1670,58.0,0,96,0.0,64.0
1671,67.0,96,96,0.0,64.0
1672,55.0,96,96,0.0,64.0
1673,69.0,96,288,0.0,64.0
1674,57.0,96,96,0.0,64.0
1675,62.0,96,768,0.0,64.0
1676,53.0,96,192,0.0,64.0
1677,77.0,0,96,0.0,64.0
1678,69.0,0,96,0.0,64.0
1679,79.0,96,96,0.0,64.0
1680,67.0,0,96,0.0,64.0
1681,58.0,0,96,0.0,64.0
1682,53.0,0,96,0.0,64.0
1683,81.0,96,96,0.0,64.0
1684,65.0,0,96,0.0,64.0
1685,55.0,96,192,0.0,64.0
1686,64.0,0,96,0.0,64.0
1687,82.0,96,96,0.0,64.0
1688,81.0,0,96,0.0,64.0
1689,65.0,0,96,0.0,64.0
1690,52.0,0,192,0.0,64.0
1691,79.0,96,96,0.0,64.0
1692,77.0,0,96,0.0,64.0
1693,45.0,96,192,0.0,64.0
1694,61.0,0,384,0.0,64.0
1695,76.0,0,288,0.0,64.0
1696,67.0,96,0,0.0,64.0
1697,65.0,96,96,0.0,64.0
1698,57.0,0,192,0.0,64.0
1699,64.0,0,96,0.0,64.0
1700,69.0,0,384,0.0,64.0
1701,62.0,192,384,0.0,64.0
1702,74.0,96,0,0.0,64.0
1703,53.0,96,96,0.0,64.0
1704,55.0,96,96,0.0,64.0
1705,52.0,96,96,0.0,64.0
1706,53.0,0,96,0.0,64.0
1707,50.0,0,192,0.0,64.0
1708,65.0,0,96,0.0,64.0
1709,74.0,96,96,0.0,64.0
1710,53.0,0,192,0.0,64.0
1711,63.0,0,96,0.0,64.0
1712,72.0,96,96,0.0,64.0
1713,74.0,96,96,0.0,64.0
1714,65.0,0,96,0.0,64.0
1715,55.0,0,384,0.0,64.0
1716,62.0,96,96,0.0,64.0
1717,70.0,0,96,0.0,64.0
1718,72.0,96,96,0.0,64.0
1719,63.0,0,96,0.0,64.0
1720,69.0,96,96,0.0,64.0
1721,60.0,0,96,0.0,64.0
1722,62.0,0,96,0.0,64.0
1723,70.0,192,96,0.0,64.0
1724,58.0,0,192,0.0,64.0
1725,67.0,0,192,0.0,64.0
1726,55.0,96,96,0.0,64.0
1727,62.0,0,192,0.0,64.0
1728,53.0,96,96,0.0,64.0
1729,70.0,96,192,0.0,64.0
1730,55.0,0,96,0.0,64.0
1731,51.0,96,96,0.0,64.0
1732,55.0,0,384,0.0,64.0
1733,72.0,0,384,0.0,64.0
1734,53.0,96,96,0.0,64.0
1735,50.0,96,96,0.0,64.0
1736,51.0,192,96,0.0,64.0
1737,48.0,0,192,0.0,64.0
1738,72.0,0,96,0.0,64.0
1739,63.0,96,96,0.0,64.0
1740,51.0,96,192,0.0,64.0
1741,70.0,0,96,0.0,64.0
1742,62.0,96,96,0.0,64.0
1743,72.0,0,96,0.0,64.0
1744,63.0,0,96,0.0,64.0
1745,60.0,96,96,0.0,64.0
1746,69.0,0,96,0.0,64.0
1747,53.0,0,384,0.0,64.0
1748,70.0,0,96,0.0,64.0
1749,62.0,96,96,0.0,64.0
1750,58.0,0,96,0.0,64.0
1751,67.0,96,96,0.0,64.0
1752,69.0,0,96,0.0,64.0
1753,60.0,192,96,0.0,64.0
1754,65.0,0,192,0.0,64.0
1755,57.0,0,192,0.0,64.0
1756,53.0,96,96,0.0,64.0
1757,69.0,0,192,0.0,64.0
1758,51.0,96,96,0.0,64.0
1759,60.0,0,192,0.0,64.0
1760,53.0,96,96,0.0,64.0
1761,50.0,96,96,0.0,64.0
1762,70.0,0,384,0.0,64.0
1763,53.0,0,384,0.0,64.0
1764,51.0,96,96,0.0,64.0
1765,48.0,96,96,0.0,64.0
1766,50.0,192,96,0.0,64.0
1767,46.0,0,192,0.0,64.0
1768,70.0,96,96,0.0,64.0
1769,62.0,0,96,0.0,64.0
1770,60.0,0,96,0.0,64.0
1771,50.0,0,192,0.0,64.0
1772,69.0,96,96,0.0,64.0
1773,70.0,96,96,0.0,64.0
1774,62.0,0,96,0.0,64.0
1775,58.0,96,96,0.0,64.0
1776,67.0,96,480,0.0,64.0
1777,51.0,96,192,0.0,64.0
1778,62.0,0,96,0.0,64.0
1779,50.0,96,192,0.0,64.0
1780,60.0,96,96,0.0,64.0
1781,62.0,0,96,0.0,64.0
1782,63.0,96,480,0.0,64.0
1783,48.0,0,192,0.0,64.0
1784,70.0,96,96,0.0,64.0
1785,46.0,96,192,0.0,64.0
1786,69.0,96,96,0.0,64.0
1787,70.0,0,96,0.0,64.0
1788,45.0,96,192,0.0,64.0
1789,72.0,96,480,0.0,64.0
1790,67.0,0,96,0.0,64.0
1791,66.0,96,96,0.0,64.0
1792,43.0,0,192,0.0,64.0
1793,67.0,96,96,0.0,64.0
1794,42.0,0,192,0.0,64.0
1795,69.0,0,96,0.0,64.0
1796,70.0,96,96,0.0,64.0
1797,67.0,0,96,0.0,64.0
1798,38.0,96,192,0.0,64.0
1799,69.0,0,96,0.0,64.0
1800,72.0,96,96,0.0,64.0
1801,66.0,0,96,0.0,64.0
1802,69.0,0,96,0.0,64.0
1803,67.0,0,192,0.0,64.0
1804,70.0,96,96,0.0,64.0
1805,43.0,0,192,0.0,64.0
1806,74.0,96,96,0.0,64.0
1807,46.0,0,192,0.0,64.0
1808,67.0,96,96,0.0,64.0
1809,62.0,0,192,0.0,64.0
1810,70.0,96,96,0.0,64.0
1811,60.0,0,96,0.0,64.0
1812,48.0,96,192,0.0,64.0
1813,69.0,96,96,0.0,64.0
1814,63.0,0,96,0.0,64.0
1815,72.0,0,96,0.0,64.0
1816,57.0,0,96,0.0,64.0
1817,66.0,96,96,0.0,64.0
1818,50.0,96,192,0.0,64.0
1819,69.0,0,96,0.0,64.0
1820,60.0,0,96,0.0,64.0
1821,43.0,96,384,0.0,64.0
1822,58.0,96,96,0.0,64.0
1823,67.0,96,192,0.0,64.0
1824,62.0,0,96,0.0,64.0
1825,55.0,96,96,0.0,64.0
1826,70.0,0,192,0.0,64.0
1827,58.0,0,96,0.0,64.0
1828,57.0,96,96,0.0,64.0
1829,60.0,0,96,0.0,64.0
1830,69.0,0,192,0.0,64.0
1831,74.0,96,192,0.0,64.0
1832,54.0,96,96,0.0,64.0
1833,38.0,0,192,0.0,64.0
1834,57.0,0,96,0.0,64.0
1835,55.0,0,576,0.0,64.0
1836,58.0,0,192,0.0,64.0
1837,70.0,96,96,0.0,64.0
1838,43.0,96,192,0.0,64.0
1839,72.0,0,96,0.0,64.0
1840,69.0,96,96,0.0,64.0
1841,60.0,0,192,0.0,64.0
1842,45.0,96,192,0.0,64.0
1843,70.0,0,96,0.0,64.0
1844,46.0,0,192,0.0,64.0
1845,62.0,96,96,0.0,64.0
1846,67.0,0,192,0.0,64.0
1847,74.0,96,96,0.0,64.0
1848,79.0,96,192,0.0,64.0
1849,48.0,0,192,0.0,64.0
1850,72.0,96,96,0.0,64.0
1851,63.0,0,192,0.0,64.0
1852,75.0,0,96,0.0,64.0
1853,50.0,0,192,0.0,64.0
1854,62.0,96,192,0.0,64.0
1855,78.0,96,96,0.0,64.0
1856,69.0,0,192,0.0,64.0
1857,79.0,0,96,0.0,64.0
1858,45.0,0,192,0.0,64.0
1859,66.0,192,192,0.0,64.0
1860,76.0,96,96,0.0,64.0
1861,60.0,0,192,0.0,64.0
1862,78.0,0,96,0.0,64.0
1863,58.0,0,192,0.0,64.0
1864,46.0,0,768,0.0,64.0
1865,74.0,96,192,0.0,64.0
1866,67.0,0,768,0.0,64.0
1867,55.0,96,192,0.0,64.0
1868,79.0,96,96,0.0,64.0
1869,74.0,0,96,0.0,64.0
1870,75.0,192,192,0.0,64.0
1871,60.0,96,96,0.0,64.0
1872,62.0,0,96,0.0,64.0
1873,72.0,96,192,0.0,64.0
1874,65.0,0,192,0.0,64.0
1875,45.0,0,768,0.0,64.0
1876,63.0,96,0,0.0,64.0
1877,62.0,96,96,0.0,64.0
1878,77.0,0,192,0.0,64.0
1879,69.0,0,192,0.0,64.0
1880,60.0,96,96,0.0,64.0
1881,74.0,96,96,0.0,64.0
1882,70.0,0,384,0.0,64.0
1883,58.0,0,96,0.0,64.0
1884,75.0,0,96,0.0,64.0
1885,60.0,96,96,0.0,64.0
1886,72.0,96,96,0.0,64.0
1887,74.0,96,96,0.0,64.0
1888,43.0,96,768,0.0,64.0
1889,70.0,0,192,0.0,64.0
1890,62.0,96,0,0.0,64.0
1891,75.0,96,96,0.0,64.0
1892,60.0,0,96,0.0,64.0
1893,70.0,0,96,0.0,64.0
1894,58.0,96,96,0.0,64.0
1895,72.0,192,192,0.0,64.0
1896,57.0,96,96,0.0,64.0
1897,58.0,0,96,0.0,64.0
1898,69.0,0,192,0.0,64.0
1899,42.0,96,384,0.0,64.0
1900,62.0,96,192,0.0,64.0
1901,60.0,96,0,0.0,64.0
1902,58.0,96,96,0.0,64.0
1903,74.0,0,192,0.0,64.0
1904,57.0,0,96,0.0,64.0
1905,55.0,0,192,0.0,64.0
1906,70.0,96,96,0.0,64.0
1907,43.0,0,192,0.0,64.0
1908,72.0,96,96,0.0,64.0
1909,69.0,96,96,0.0,64.0
1910,41.0,96,192,0.0,64.0
1911,57.0,0,192,0.0,64.0
1912,70.0,0,96,0.0,64.0
1913,67.0,96,96,0.0,64.0
1914,58.0,0,192,0.0,64.0
1915,40.0,0,192,0.0,64.0
1916,69.0,96,96,0.0,64.0
1917,52.0,0,192,0.0,64.0
1918,57.0,0,96,0.0,64.0
1919,67.0,0,192,0.0,64.0
1920,71.0,96,96,0.0,64.0
1921,73.0,0,96,0.0,64.0
1922,55.0,96,96,0.0,64.0
1923,50.0,96,192,0.0,64.0
1924,74.0,0,192,0.0,64.0
1925,57.0,96,576,0.0,64.0
1926,65.0,96,96,0.0,64.0
1927,67.0,0,96,0.0,64.0
1928,76.0,0,192,0.0,64.0
1929,64.0,96,96,0.0,64.0
1930,48.0,0,192,0.0,64.0
1931,65.0,96,96,0.0,64.0
1932,77.0,96,96,0.0,64.0
1933,62.0,0,192,0.0,64.0
1934,46.0,96,384,0.0,64.0
1935,79.0,0,96,0.0,64.0
1936,77.0,96,96,0.0,64.0
1937,74.0,0,192,0.0,64.0
1938,50.0,0,192,0.0,64.0
1939,79.0,0,96,0.0,64.0
1940,73.0,96,96,0.0,64.0
1941,81.0,0,192,0.0,64.0
1942,45.0,192,384,0.0,64.0
1943,52.0,96,192,0.0,64.0
1944,74.0,0,96,0.0,64.0
1945,76.0,0,192,0.0,64.0
1946,71.0,96,96,0.0,64.0
1947,57.0,0,192,0.0,64.0
1948,73.0,0,96,0.0,64.0
1949,77.0,96,768,0.0,64.0
1950,50.0,0,192,0.0,64.0
1951,69.0,96,192,0.0,64.0
1952,53.0,0,192,0.0,64.0
1953,74.0,96,96,0.0,64.0
1954,69.0,96,96,0.0,64.0
1955,70.0,0,192,0.0,64.0
1956,55.0,96,96,0.0,64.0
1957,57.0,192,96,0.0,64.0
1958,67.0,0,192,0.0,64.0
1959,76.0,96,768,0.0,64.0
1960,60.0,96,192,0.0,64.0
1961,58.0,96,0,0.0,64.0
1962,57.0,96,96,0.0,64.0
1963,72.0,0,192,0.0,64.0
1964,55.0,96,96,0.0,64.0
1965,69.0,0,96,0.0,64.0
1966,53.0,96,96,0.0,64.0
1967,70.0,0,96,0.0,64.0
1968,55.0,96,96,0.0,64.0
1969,67.0,96,96,0.0,64.0
1970,69.0,0,96,0.0,64.0
1971,74.0,96,768,0.0,64.0
1972,65.0,96,192,0.0,64.0
1973,57.0,96,0,0.0,64.0
1974,55.0,0,96,0.0,64.0
1975,70.0,96,96,0.0,64.0
1976,53.0,96,96,0.0,64.0
1977,65.0,0,96,0.0,64.0
1978,67.0,0,192,0.0,64.0
1979,52.0,96,96,0.0,64.0
1980,53.0,192,96,0.0,64.0
1981,64.0,0,192,0.0,64.0
1982,73.0,0,384,0.0,64.0
1983,57.0,0,192,0.0,64.0
1984,55.0,96,0,0.0,64.0
1985,53.0,96,96,0.0,64.0
1986,69.0,0,192,0.0,64.0
1987,52.0,96,96,0.0,64.0
1988,74.0,0,384,0.0,64.0
1989,65.0,96,96,0.0,64.0
1990,50.0,96,192,0.0,64.0
1991,67.0,0,96,0.0,64.0
1992,53.0,96,192,0.0,64.0
1993,64.0,96,96,0.0,64.0
1994,65.0,0,96,0.0,64.0
1995,62.0,96,96,0.0,64.0
1996,58.0,96,768,0.0,64.0
1997,64.0,96,96,0.0,64.0
1998,74.0,96,192,0.0,64.0
1999,65.0,96,96,0.0,64.0
2000,67.0,0,96,0.0,64.0
2001,72.0,0,384,0.0,64.0
2002,63.0,96,96,0.0,64.0
2003,65.0,96,96,0.0,64.0
2004,62.0,96,96,0.0,64.0
2005,63.0,0,96,0.0,64.0
2006,57.0,0,768,0.0,64.0
2007,77.0,96,384,0.0,64.0
2008,60.0,96,96,0.0,64.0
2009,62.0,96,96,0.0,64.0
2010,63.0,96,96,0.0,64.0
2011,65.0,0,96,0.0,64.0
2012,70.0,96,384,0.0,64.0
2013,62.0,96,96,0.0,64.0
2014,63.0,96,96,0.0,64.0
2015,60.0,96,96,0.0,64.0
2016,62.0,0,96,0.0,64.0
2017,55.0,96,768,0.0,64.0
2018,58.0,96,96,0.0,64.0
2019,79.0,96,96,0.0,64.0
2020,60.0,0,96,0.0,64.0
2021,78.0,0,96,0.0,64.0
2022,62.0,96,96,0.0,64.0
2023,63.0,96,96,0.0,64.0
2024,79.0,0,96,0.0,64.0
2025,69.0,0,192,0.0,64.0
2026,60.0,96,96,0.0,64.0
2027,62.0,96,96,0.0,64.0
2028,75.0,0,192,0.0,64.0
2029,58.0,96,96,0.0,64.0
2030,60.0,0,96,0.0,64.0
2031,57.0,0,192,0.0,64.0
2032,74.0,96,96,0.0,64.0
2033,54.0,0,384,0.0,64.0
2034,72.0,96,96,0.0,64.0
2035,50.0,96,192,0.0,64.0
2036,62.0,96,288,0.0,64.0
2037,70.0,96,96,0.0,64.0
2038,69.0,0,96,0.0,64.0
2039,55.0,96,384,0.0,64.0
2040,46.0,0,96,0.0,64.0
2041,67.0,96,192,0.0,64.0
2042,48.0,0,96,0.0,64.0
2043,63.0,0,96,0.0,64.0
2044,45.0,0,96,0.0,64.0
2045,69.0,0,192,0.0,64.0
2046,60.0,96,96,0.0,64.0
2047,62.0,0,96,0.0,64.0
2048,46.0,0,96,0.0,64.0
2049,70.0,96,96,0.0,64.0
2050,58.0,0,96,0.0,64.0
2051,43.0,96,192,0.0,64.0
2052,72.0,0,96,0.0,64.0
2053,63.0,0,96,0.0,64.0
2054,70.0,96,96,0.0,64.0
2055,55.0,0,192,0.0,64.0
2056,62.0,0,96,0.0,64.0
2057,72.0,0,96,0.0,64.0
2058,63.0,96,96,0.0,64.0
2059,74.0,0,384,0.0,64.0
2060,54.0,0,96,0.0,64.0
2061,57.0,96,96,0.0,64.0
2062,58.0,0,96,0.0,64.0
2063,55.0,96,0,0.0,64.0
2064,52.0,96,96,0.0,64.0
2065,54.0,192,96,0.0,64.0
2066,57.0,0,96,0.0,64.0
2067,58.0,0,768,0.0,64.0
2068,50.0,0,192,0.0,64.0
2069,74.0,96,96,0.0,64.0
2070,75.0,0,96,0.0,64.0
2071,55.0,96,96,0.0,64.0
2072,74.0,0,96,0.0,64.0
2073,50.0,96,96,0.0,64.0
2074,51.0,0,192,0.0,64.0
2075,72.0,96,96,0.0,64.0
2076,74.0,192,96,0.0,64.0
2077,48.0,96,192,0.0,64.0
2078,75.0,96,288,0.0,64.0
2079,57.0,0,768,0.0,64.0
2080,41.0,96,192,0.0,64.0
2081,75.0,0,96,0.0,64.0
2082,74.0,96,96,0.0,64.0
2083,53.0,0,192,0.0,64.0
2084,72.0,96,96,0.0,64.0
2085,50.0,96,96,0.0,64.0
2086,70.0,0,96,0.0,64.0
2087,51.0,96,96,0.0,64.0
2088,72.0,0,96,0.0,64.0
2089,48.0,96,96,0.0,64.0
2090,74.0,96,288,0.0,64.0
2091,50.0,96,96,0.0,64.0
2092,55.0,96,768,0.0,64.0
2093,46.0,0,192,0.0,64.0
2094,74.0,96,96,0.0,64.0
2095,51.0,0,96,0.0,64.0
2096,72.0,96,96,0.0,64.0
2097,46.0,0,96,0.0,64.0
2098,70.0,96,96,0.0,64.0
2099,48.0,192,192,0.0,64.0
2100,69.0,96,96,0.0,64.0
2101,70.0,0,96,0.0,64.0
2102,45.0,0,192,0.0,64.0
2103,54.0,0,384,0.0,64.0
2104,38.0,0,192,0.0,64.0
2105,72.0,96,0,0.0,64.0
2106,50.0,0,192,0.0,64.0
2107,70.0,96,96,0.0,64.0
2108,69.0,96,96,0.0,64.0
2109,46.0,96,96,0.0,64.0
2110,70.0,0,192,0.0,64.0
2111,55.0,0,192,0.0,64.0
2112,48.0,96,96,0.0,64.0
2113,57.0,0,192,0.0,64.0
2114,72.0,96,192,0.0,64.0
2115,45.0,96,96,0.0,64.0
2116,46.0,0,96,0.0,64.0
2117,58.0,0,96,0.0,64.0
2118,43.0,0,192,0.0,64.0
2119,74.0,96,96,0.0,64.0
2120,60.0,0,96,0.0,64.0
2121,76.0,96,96,0.0,64.0
2122,55.0,96,192,0.0,64.0
2123,74.0,0,96,0.0,64.0
2124,58.0,96,96,0.0,64.0
2125,76.0,0,96,0.0,64.0
2126,60.0,0,96,0.0,64.0
2127,77.0,96,1632,0.0,64.0
2128,53.0,0,96,0.0,64.0
2129,57.0,96,96,0.0,64.0
2130,58.0,96,96,0.0,64.0
2131,55.0,0,0,0.0,64.0
2132,51.0,96,96,0.0,64.0
2133,57.0,0,96,0.0,64.0
2134,53.0,96,96,0.0,64.0
2135,58.0,96,96,0.0,64.0
2136,50.0,0,192,0.0,64.0
2137,60.0,96,96,0.0,64.0
2138,58.0,0,192,0.0,64.0
2139,62.0,96,96,0.0,64.0
2140,63.0,96,96,0.0,64.0
2141,57.0,96,96,0.0,64.0
2142,60.0,0,96,0.0,64.0
2143,62.0,0,96,0.0,64.0
2144,58.0,96,0,0.0,64.0
2145,55.0,96,96,0.0,64.0
2146,60.0,96,96,0.0,64.0
2147,57.0,0,0,0.0,64.0
2148,53.0,96,96,0.0,64.0
2149,55.0,96,96,0.0,64.0
2150,58.0,0,96,0.0,64.0
2151,60.0,0,96,0.0,64.0
2152,51.0,96,96,0.0,64.0
2153,62.0,96,96,0.0,64.0
2154,53.0,0,96,0.0,64.0
2155,50.0,0,96,0.0,64.0
2156,51.0,0,96,0.0,64.0
2157,79.0,96,96,0.0,64.0
2158,48.0,0,96,0.0,64.0
2159,75.0,96,96,0.0,64.0
2160,50.0,96,96,0.0,64.0
2161,77.0,0,96,0.0,64.0
2162,46.0,96,96,0.0,64.0
2163,74.0,0,96,0.0,64.0
2164,58.0,96,96,0.0,64.0
2165,75.0,0,96,0.0,64.0
2166,77.0,96,96,0.0,64.0
2167,57.0,0,96,0.0,64.0
2168,79.0,96,96,0.0,64.0
2169,58.0,0,96,0.0,64.0
2170,55.0,96,96,0.0,64.0
2171,75.0,0,864,0.0,64.0
2172,60.0,96,96,0.0,64.0
2173,57.0,0,0,0.0,64.0
2174,53.0,0,96,0.0,64.0
2175,58.0,0,96,0.0,64.0
2176,55.0,96,96,0.0,64.0
2177,51.0,96,96,0.0,64.0
2178,55.0,0,96,0.0,64.0
2179,57.0,0,96,0.0,64.0
2180,53.0,96,96,0.0,64.0
2181,50.0,96,96,0.0,64.0
2182,58.0,0,96,0.0,64.0
2183,60.0,0,96,0.0,64.0
2184,51.0,96,96,0.0,64.0
2185,48.0,96,96,0.0,64.0
2186,50.0,0,96,0.0,64.0
2187,77.0,96,96,0.0,64.0
2188,46.0,96,96,0.0,64.0
2189,74.0,0,96,0.0,64.0
2190,75.0,96,96,0.0,64.0
2191,48.0,0,96,0.0,64.0
2192,72.0,96,96,0.0,64.0
2193,45.0,0,96,0.0,64.0
2194,74.0,96,96,0.0,64.0
2195,57.0,0,96,0.0,64.0
2196,55.0,96,96,0.0,64.0
2197,75.0,0,96,0.0,64.0
2198,77.0,96,96,0.0,64.0
2199,57.0,0,96,0.0,64.0
2200,74.0,0,864,0.0,64.0
2201,53.0,96,96,0.0,64.0
2202,58.0,96,96,0.0,64.0
2203,55.0,0,96,0.0,64.0
2204,51.0,0,96,0.0,64.0
2205,55.0,96,96,0.0,64.0
2206,57.0,0,96,0.0,64.0
2207,50.0,0,96,0.0,64.0
2208,53.0,96,0,0.0,64.0
2209,55.0,96,96,0.0,64.0
2210,51.0,0,96,0.0,64.0
2211,48.0,96,96,0.0,64.0
2212,57.0,0,96,0.0,64.0
2213,50.0,0,96,0.0,64.0
2214,53.0,96,96,0.0,64.0
2215,46.0,96,96,0.0,64.0
2216,58.0,96,192,0.0,64.0
2217,75.0,0,96,0.0,64.0
2218,48.0,0,96,0.0,64.0
2219,72.0,0,96,0.0,64.0
2220,60.0,0,192,0.0,64.0
2221,45.0,96,96,0.0,64.0
2222,46.0,96,96,0.0,64.0
2223,74.0,0,96,0.0,64.0
2224,62.0,0,192,0.0,64.0
2225,70.0,0,96,0.0,64.0
2226,43.0,96,96,0.0,64.0
2227,69.0,96,96,0.0,64.0
2228,48.0,0,96,0.0,64.0
2229,46.0,0,96,0.0,64.0
2230,67.0,96,96,0.0,64.0
2231,64.0,96,192,0.0,64.0
2232,48.0,0,96,0.0,64.0
2233,70.0,0,96,0.0,64.0
2234,41.0,96,192,0.0,64.0
2235,69.0,96,96,0.0,64.0
2236,65.0,96,864,0.0,64.0
2237,70.0,0,96,0.0,64.0
2238,67.0,96,96,0.0,64.0
2239,53.0,96,192,0.0,64.0
2240,69.0,0,96,0.0,64.0
2241,70.0,96,96,0.0,64.0
2242,55.0,96,192,0.0,64.0
2243,74.0,0,96,0.0,64.0
2244,72.0,48,96,0.0,64.0
2245,57.0,96,192,0.0,64.0
2246,74.0,48,48,0.0,64.0
2247,75.0,0,48,0.0,64.0
2248,74.0,0,96,0.0,64.0
2249,58.0,0,192,0.0,64.0
2250,72.0,96,96,0.0,64.0
2251,63.0,0,96,0.0,64.0
2252,51.0,0,192,0.0,64.0
2253,70.0,96,96,0.0,64.0
2254,62.0,0,96,0.0,64.0
2255,72.0,96,96,0.0,64.0
2256,63.0,0,96,0.0,64.0
2257,60.0,0,288,0.0,64.0
2258,53.0,96,192,0.0,64.0
2259,69.0,96,96,0.0,64.0
2260,72.0,0,96,0.0,64.0
2261,70.0,96,96,0.0,64.0
2262,41.0,96,192,0.0,64.0
2263,53.0,0,192,0.0,64.0
2264,69.0,0,96,0.0,64.0
2265,62.0,0,96,0.0,64.0
2266,70.0,0,192,0.0,64.0
2267,62.0,96,192,0.0,64.0
2268,46.0,0,384,0.0,64.0
2269,50.0,96,96,0.0,64.0
2270,51.0,0,96,0.0,64.0
2271,48.0,96,96,0.0,64.0
2272,63.0,0,192,0.0,64.0
2273,72.0,0,192,0.0,64.0
2274,50.0,96,96,0.0,64.0
2275,65.0,0,768,0.0,64.0
2276,74.0,96,96,0.0,64.0
2277,46.0,96,192,0.0,64.0
2278,75.0,0,96,0.0,64.0
2279,58.0,96,192,0.0,64.0
2280,74.0,96,96,0.0,64.0
2281,75.0,0,96,0.0,64.0
2282,57.0,0,96,0.0,64.0
2283,72.0,96,96,0.0,64.0
2284,58.0,96,96,0.0,64.0
2285,74.0,0,96,0.0,64.0
2286,70.0,0,96,0.0,64.0
2287,55.0,96,96,0.0,64.0
2288,57.0,192,96,0.0,64.0
2289,72.0,0,96,0.0,64.0
2290,53.0,96,192,0.0,64.0
2291,69.0,0,192,0.0,64.0
2292,74.0,0,576,0.0,64.0
2293,65.0,0,192,0.0,64.0
2294,58.0,96,96,0.0,64.0
2295,53.0,96,96,0.0,64.0
2296,63.0,96,96,0.0,64.0
2297,55.0,192,192,0.0,64.0
2298,65.0,0,96,0.0,64.0
2299,51.0,96,192,0.0,64.0
2300,67.0,96,288,0.0,64.0
2301,45.0,0,192,0.0,64.0
2302,72.0,0,768,0.0,64.0
2303,67.0,96,96,0.0,64.0
2304,57.0,0,192,0.0,64.0
2305,65.0,96,96,0.0,64.0
2306,63.0,96,96,0.0,64.0
2307,53.0,0,96,0.0,64.0
2308,62.0,96,96,0.0,64.0
2309,55.0,0,96,0.0,64.0
2310,63.0,96,96,0.0,64.0
2311,51.0,96,96,0.0,64.0
2312,53.0,96,96,0.0,64.0
2313,70.0,96,768,0.0,64.0
2314,50.0,0,192,0.0,64.0
2315,65.0,96,0,0.0,64.0
2316,55.0,0,96,0.0,64.0
2317,63.0,96,96,0.0,64.0
2318,50.0,0,96,0.0,64.0
2319,62.0,96,96,0.0,64.0
2320,51.0,0,192,0.0,64.0
2321,60.0,96,96,0.0,64.0
2322,62.0,192,96,0.0,64.0
2323,63.0,96,288,0.0,64.0
2324,48.0,0,192,0.0,64.0
2325,41.0,0,192,0.0,64.0
2326,69.0,0,384,0.0,64.0
2327,63.0,96,96,0.0,64.0
2328,62.0,96,96,0.0,64.0
2329,53.0,0,192,0.0,64.0
2330,60.0,96,96,0.0,64.0
2331,50.0,96,96,0.0,64.0
2332,58.0,0,384,0.0,64.0
2333,51.0,96,96,0.0,64.0
2334,48.0,96,96,0.0,64.0
2335,65.0,96,192,0.0,64.0
2336,50.0,0,96,0.0,64.0
2337,46.0,96,96,0.0,64.0
2338,70.0,0,192,0.0,64.0
2339,48.0,96,96,0.0,64.0
2340,70.0,0,192,0.0,64.0
2341,50.0,96,96,0.0,64.0
2342,51.0,96,96,0.0,64.0
2343,53.0,96,96,0.0,64.0
2344,69.0,96,384,0.0,64.0
2345,55.0,96,96,0.0,64.0
2346,51.0,96,96,0.0,64.0
2347,60.0,0,192,0.0,64.0
2348,53.0,0,96,0.0,64.0
2349,50.0,96,96,0.0,64.0
2350,65.0,0,192,0.0,64.0
2351,70.0,96,192,0.0,64.0
2352,51.0,0,96,0.0,64.0
2353,65.0,0,192,0.0,64.0
2354,71.0,0,192,0.0,64.0
2355,53.0,96,96,0.0,64.0
2356,55.0,96,96,0.0,64.0
2357,48.0,96,96,0.0,64.0
2358,63.0,96,192,0.0,64.0
2359,72.0,0,192,0.0,64.0
2360,50.0,0,96,0.0,64.0
2361,67.0,0,192,0.0,64.0
2362,46.0,96,96,0.0,64.0
2363,64.0,0,192,0.0,64.0
2364,48.0,96,96,0.0,64.0
2365,72.0,0,192,0.0,64.0
2366,65.0,96,192,0.0,64.0
2367,45.0,96,96,0.0,64.0
2368,46.0,0,96,0.0,64.0
2369,66.0,0,192,0.0,64.0
2370,72.0,96,192,0.0,64.0
2371,48.0,96,96,0.0,64.0
2372,50.0,0,96,0.0,64.0
2373,43.0,96,96,0.0,64.0
2374,67.0,0,192,0.0,64.0
2375,70.0,0,192,0.0,64.0
2376,45.0,96,96,0.0,64.0
2377,41.0,96,96,0.0,64.0
2378,71.0,0,192,0.0,64.0
2379,62.0,96,192,0.0,64.0
2380,43.0,0,96,0.0,64.0
2381,67.0,0,192,0.0,64.0
2382,72.0,0,192,0.0,64.0
2383,40.0,96,96,0.0,64.0
2384,41.0,96,96,0.0,64.0
2385,67.0,0,192,0.0,64.0
2386,43.0,96,96,0.0,64.0
2387,73.0,0,192,0.0,64.0
2388,45.0,96,96,0.0,64.0
2389,65.0,0,192,0.0,64.0
2390,74.0,96,192,0.0,64.0
2391,38.0,96,96,0.0,64.0
2392,50.0,0,96,0.0,64.0
2393,48.0,96,96,0.0,64.0
2394,69.0,0,192,0.0,64.0
2395,66.0,0,192,0.0,64.0
2396,50.0,96,96,0.0,64.0
2397,47.0,96,96,0.0,64.0
2398,67.0,96,192,0.0,64.0
2399,74.0,0,192,0.0,64.0
2400,48.0,0,96,0.0,64.0
2401,50.0,96,96,0.0,64.0
2402,74.0,0,192,0.0,64.0
2403,68.0,96,192,0.0,64.0
2404,52.0,0,96,0.0,64.0
2405,73.0,0,384,0.0,64.0
2406,69.0,96,96,0.0,64.0
2407,45.0,0,192,0.0,64.0
2408,70.0,96,96,0.0,64.0
2409,57.0,96,192,0.0,64.0
2410,67.0,96,96,0.0,64.0
2411,69.0,0,96,0.0,64.0
2412,74.0,0,768,0.0,64.0
2413,65.0,96,96,0.0,64.0
2414,58.0,0,192,0.0,64.0
2415,67.0,96,96,0.0,64.0
2416,50.0,0,192,0.0,64.0
2417,69.0,96,96,0.0,64.0
2418,70.0,96,96,0.0,64.0
2419,52.0,96,192,0.0,64.0
2420,67.0,96,96,0.0,64.0
2421,69.0,0,96,0.0,64.0
2422,65.0,96,96,0.0,64.0
2423,55.0,96,192,0.0,64.0
2424,67.0,0,96,0.0,64.0
2425,73.0,0,384,0.0,64.0
2426,64.0,96,96,0.0,64.0
2427,57.0,0,192,0.0,64.0
2428,65.0,96,96,0.0,64.0
2429,45.0,96,192,0.0,64.0
2430,67.0,96,96,0.0,64.0
2431,69.0,0,96,0.0,64.0
2432,50.0,0,192,0.0,64.0
2433,74.0,96,192,0.0,64.0
2434,65.0,96,96,0.0,64.0
2435,69.0,0,96,0.0,64.0
2436,62.0,96,96,0.0,64.0
2437,77.0,0,192,0.0,64.0
2438,65.0,96,96,0.0,64.0
2439,64.0,0,96,0.0,64.0
2440,67.0,96,96,0.0,64.0
2441,67.0,96,96,0.0,64.0
2442,76.0,96,192,0.0,64.0
2443,61.0,96,96,0.0,64.0
2444,64.0,0,96,0.0,64.0
2445,65.0,96,96,0.0,64.0
2446,62.0,0,96,0.0,64.0
2447,69.0,0,96,0.0,64.0
2448,65.0,96,96,0.0,64.0
2449,57.0,96,96,0.0,64.0
2450,74.0,96,192,0.0,64.0
2451,62.0,0,96,0.0,64.0
2452,64.0,96,96,0.0,64.0
2453,73.0,0,96,0.0,64.0
2454,76.0,96,96,0.0,64.0
2455,67.0,0,96,0.0,64.0
2456,81.0,0,192,0.0,64.0
2457,57.0,96,96,0.0,64.0
2458,61.0,96,96,0.0,64.0
2459,62.0,96,96,0.0,64.0
2460,77.0,0,96,0.0,64.0
2461,79.0,96,96,0.0,64.0
2462,65.0,0,96,0.0,64.0
2463,57.0,0,96,0.0,64.0
2464,76.0,96,96,0.0,64.0
2465,77.0,96,96,0.0,64.0
2466,62.0,0,96,0.0,64.0
2467,53.0,0,96,0.0,64.0
2468,74.0,96,96,0.0,64.0
2469,57.0,0,96,0.0,64.0
2470,77.0,96,96,0.0,64.0
2471,76.0,0,96,0.0,64.0
2472,50.0,96,96,0.0,64.0
2473,53.0,96,96,0.0,64.0
2474,74.0,0,96,0.0,64.0
2475,73.0,0,96,0.0,64.0
2476,45.0,96,96,0.0,64.0
2477,74.0,0,96,0.0,64.0
2478,49.0,96,96,0.0,64.0
2479,52.0,0,96,0.0,64.0
2480,71.0,96,96,0.0,64.0
2481,55.0,0,96,0.0,64.0
2482,73.0,96,96,0.0,64.0
2483,53.0,96,96,0.0,64.0
2484,69.0,96,192,0.0,64.0
2485,57.0,0,96,0.0,64.0
2486,50.0,0,96,0.0,64.0
2487,74.0,96,96,0.0,64.0
2488,53.0,96,96,0.0,64.0
2489,69.0,0,96,0.0,64.0
2490,70.0,96,192,0.0,64.0
2491,43.0,96,96,0.0,64.0
2492,46.0,0,96,0.0,64.0
2493,67.0,0,192,0.0,64.0
2494,50.0,96,96,0.0,64.0
2495,53.0,96,96,0.0,64.0
2496,52.0,96,96,0.0,64.0
2497,60.0,96,192,0.0,64.0
2498,55.0,0,96,0.0,64.0
2499,72.0,0,192,0.0,64.0
2500,48.0,96,96,0.0,64.0
2501,52.0,96,96,0.0,64.0
2502,41.0,0,96,0.0,64.0
2503,69.0,96,96,0.0,64.0
2504,45.0,0,96,0.0,64.0
2505,70.0,96,96,0.0,64.0
2506,67.0,96,96,0.0,64.0
2507,48.0,0,96,0.0,64.0
2508,69.0,0,96,0.0,64.0
2509,52.0,96,96,0.0,64.0
2510,50.0,96,96,0.0,64.0
2511,65.0,96,192,0.0,64.0
2512,53.0,0,96,0.0,64.0
2513,46.0,0,96,0.0,64.0
2514,70.0,96,96,0.0,64.0
2515,50.0,0,96,0.0,64.0
2516,65.0,96,96,0.0,64.0
2517,40.0,96,96,0.0,64.0
2518,67.0,0,192,0.0,64.0
2519,43.0,96,96,0.0,64.0
2520,64.0,96,192,0.0,64.0
2521,46.0,96,96,0.0,64.0
2522,50.0,0,96,0.0,64.0
2523,57.0,96,192,0.0,64.0
2524,49.0,96,96,0.0,64.0
2525,52.0,0,96,0.0,64.0
2526,69.0,0,192,0.0,64.0
2527,45.0,96,96,0.0,64.0
2528,49.0,96,96,0.0,64.0
2529,65.0,96,96,0.0,64.0
2530,38.0,96,192,0.0,64.0
2531,67.0,0,96,0.0,64.0
2532,40.0,96,192,0.0,64.0
2533,64.0,96,96,0.0,64.0
2534,65.0,0,96,0.0,64.0
2535,62.0,96,96,0.0,64.0
2536,41.0,96,192,0.0,64.0
2537,65.0,0,96,0.0,64.0
2538,69.0,96,96,0.0,64.0
2539,38.0,0,192,0.0,64.0
2540,74.0,96,96,0.0,64.0
2541,45.0,0,192,0.0,64.0
2542,73.0,96,96,0.0,64.0
2543,74.0,96,96,0.0,64.0
2544,47.0,96,192,0.0,64.0
2545,71.0,96,96,0.0,64.0
2546,73.0,0,96,0.0,64.0
2547,49.0,96,192,0.0,64.0
2548,69.0,96,96,0.0,64.0
2549,73.0,0,96,0.0,64.0
2550,45.0,0,192,0.0,64.0
2551,76.0,96,96,0.0,64.0
2552,79.0,96,96,0.0,64.0
2553,50.0,96,192,0.0,64.0
2554,77.0,96,96,0.0,64.0
2555,79.0,0,96,0.0,64.0
2556,52.0,96,192,0.0,64.0
2557,76.0,96,96,0.0,64.0
2558,77.0,0,96,0.0,64.0
2559,74.0,96,96,0.0,64.0
2560,53.0,0,192,0.0,64.0
2561,77.0,96,96,0.0,64.0
2562,81.0,96,96,0.0,64.0
2563,50.0,96,192,0.0,64.0
2564,84.0,0,96,0.0,64.0
2565,82.0,96,96,0.0,64.0
2566,55.0,0,192,0.0,64.0
2567,84.0,96,96,0.0,64.0
2568,57.0,96,192,0.0,64.0
2569,81.0,96,96,0.0,64.0
2570,82.0,0,96,0.0,64.0
2571,79.0,96,96,0.0,64.0
2572,58.0,96,192,0.0,64.0
2573,81.0,0,96,0.0,64.0
2574,55.0,0,192,0.0,64.0
2575,77.0,96,96,0.0,64.0
2576,79.0,96,96,0.0,64.0
2577,60.0,0,192,0.0,64.0
2578,76.0,96,96,0.0,64.0
2579,77.0,96,96,0.0,64.0
2580,62.0,0,192,0.0,64.0
2581,74.0,96,96,0.0,64.0
2582,76.0,96,96,0.0,64.0
2583,64.0,96,192,0.0,64.0
2584,72.0,96,96,0.0,64.0
2585,76.0,0,96,0.0,64.0
2586,79.0,96,96,0.0,64.0
2587,60.0,96,192,0.0,64.0
2588,82.0,0,96,0.0,64.0
2589,81.0,96,96,0.0,64.0
2590,65.0,0,192,0.0,64.0
2591,82.0,96,96,0.0,64.0
2592,67.0,96,192,0.0,64.0
2593,79.0,96,96,0.0,64.0
2594,81.0,0,96,0.0,64.0
2595,69.0,0,192,0.0,64.0
2596,77.0,96,96,0.0,64.0
2597,79.0,96,96,0.0,64.0
2598,65.0,0,192,0.0,64.0
2599,76.0,96,96,0.0,64.0
2600,77.0,96,96,0.0,64.0
2601,74.0,0,96,0.0,64.0
2602,70.0,96,96,0.0,64.0
2603,72.0,0,96,0.0,64.0
2604,76.0,96,96,0.0,64.0
2605,69.0,96,96,0.0,64.0
2606,72.0,0,96,0.0,64.0
2607,74.0,96,96,0.0,64.0
2608,70.0,0,0,0.0,64.0
2609,67.0,96,96,0.0,64.0
2610,74.0,96,96,0.0,64.0
2611,69.0,0,96,0.0,64.0
2612,77.0,0,96,0.0,64.0
2613,65.0,96,96,0.0,64.0
2614,67.0,0,96,0.0,64.0
2615,81.0,96,96,0.0,64.0
2616,64.0,96,96,0.0,64.0
2617,79.0,0,96,0.0,64.0
2618,81.0,96,96,0.0,64.0
2619,65.0,0,96,0.0,64.0
2620,62.0,0,96,0.0,64.0
2621,77.0,96,96,0.0,64.0
2622,64.0,96,96,0.0,64.0
2623,79.0,0,96,0.0,64.0
2624,61.0,96,96,0.0,64.0
2625,76.0,0,96,0.0,64.0
2626,62.0,96,96,0.0,64.0
2627,77.0,0,96,0.0,64.0
2628,74.0,0,96,0.0,64.0
2629,59.0,96,96,0.0,64.0
2630,61.0,0,96,0.0,64.0
2631,76.0,96,96,0.0,64.0
2632,73.0,96,96,0.0,64.0
2633,57.0,0,96,0.0,64.0
2634,58.0,96,96,0.0,64.0
2635,74.0,0,96,0.0,64.0
2636,55.0,96,96,0.0,64.0
2637,71.0,0,96,0.0,64.0
2638,73.0,96,96,0.0,64.0
2639,57.0,0,96,0.0,64.0
2640,69.0,0,96,0.0,64.0
2641,53.0,96,96,0.0,64.0
2642,73.0,96,96,0.0,64.0
2643,55.0,0,96,0.0,64.0
2644,52.0,0,96,0.0,64.0
2645,76.0,96,96,0.0,64.0
2646,81.0,96,96,0.0,64.0
2647,55.0,0,96,0.0,64.0
2648,74.0,0,96,0.0,64.0
2649,53.0,96,96,0.0,64.0
2650,77.0,0,96,0.0,64.0
2651,55.0,96,96,0.0,64.0
2652,52.0,0,96,0.0,64.0
2653,69.0,96,96,0.0,64.0
2654,53.0,96,96,0.0,64.0
2655,74.0,0,96,0.0,64.0
2656,65.0,96,96,0.0,64.0
2657,50.0,96,192,0.0,64.0
2658,69.0,0,96,0.0,64.0
2659,62.0,96,96,0.0,64.0
2660,71.0,96,96,0.0,64.0
2661,69.0,96,96,0.0,64.0
2662,61.0,0,96,0.0,64.0
2663,73.0,0,96,0.0,64.0
2664,62.0,96,96,0.0,64.0
2665,59.0,96,96,0.0,64.0
2666,76.0,0,96,0.0,64.0
2667,79.0,0,96,0.0,64.0
2668,61.0,96,96,0.0,64.0
2669,77.0,96,96,0.0,64.0
2670,57.0,0,192,0.0,64.0
2671,81.0,96,96,0.0,64.0
2672,62.0,96,96,0.0,64.0
2673,74.0,0,96,0.0,64.0
2674,77.0,0,96,0.0,64.0
2675,57.0,96,96,0.0,64.0
2676,67.0,96,96,0.0,64.0
2677,58.0,96,192,0.0,64.0
2678,70.0,0,96,0.0,64.0
2679,74.0,96,96,0.0,64.0
2680,55.0,96,192,0.0,64.0
2681,77.0,0,96,0.0,64.0
2682,48.0,0,192,0.0,64.0
2683,76.0,96,96,0.0,64.0
2684,79.0,96,96,0.0,64.0
2685,72.0,96,96,0.0,64.0
2686,60.0,0,192,0.0,64.0
2687,76.0,96,96,0.0,64.0
2688,57.0,96,96,0.0,64.0
2689,65.0,0,96,0.0,64.0
2690,58.0,96,96,0.0,64.0
2691,69.0,0,96,0.0,64.0
2692,72.0,0,96,0.0,64.0
2693,55.0,96,96,0.0,64.0
2694,76.0,0,96,0.0,64.0
2695,57.0,96,96,0.0,64.0
2696,74.0,96,96,0.0,64.0
2697,53.0,96,192,0.0,64.0
2698,77.0,0,96,0.0,64.0
2699,58.0,0,96,0.0,64.0
2700,70.0,96,96,0.0,64.0
2701,53.0,0,96,0.0,64.0
2702,74.0,96,96,0.0,64.0
2703,55.0,0,192,0.0,64.0
2704,64.0,96,96,0.0,64.0
2705,67.0,96,96,0.0,64.0
2706,70.0,96,96,0.0,64.0
2707,52.0,96,192,0.0,64.0
2708,74.0,0,96,0.0,64.0
2709,73.0,96,96,0.0,64.0
2710,45.0,0,192,0.0,64.0
2711,76.0,96,96,0.0,64.0
2712,57.0,0,192,0.0,64.0
2713,69.0,96,96,0.0,64.0
2714,73.0,96,96,0.0,64.0
2715,53.0,96,96,0.0,64.0
2716,74.0,0,96,0.0,64.0
2717,55.0,0,96,0.0,64.0
2718,77.0,96,96,0.0,64.0
2719,52.0,96,96,0.0,64.0
2720,69.0,0,96,0.0,64.0
2721,74.0,0,96,0.0,64.0
2722,53.0,96,96,0.0,64.0
2723,65.0,96,96,0.0,64.0
2724,50.0,0,192,0.0,64.0
2725,69.0,96,96,0.0,64.0
2726,62.0,96,96,0.0,64.0
2727,53.0,96,192,0.0,64.0
2728,69.0,0,96,0.0,64.0
2729,55.0,96,96,0.0,64.0
2730,70.0,0,96,0.0,64.0
2731,72.0,96,96,0.0,64.0
2732,58.0,0,96,0.0,64.0
2733,50.0,0,96,0.0,64.0
2734,69.0,96,96,0.0,64.0
2735,70.0,96,96,0.0,64.0
2736,55.0,0,96,0.0,64.0
2737,46.0,96,96,0.0,64.0
2738,67.0,96,192,0.0,64.0
2739,50.0,0,96,0.0,64.0
2740,70.0,0,192,0.0,64.0
2741,43.0,96,96,0.0,64.0
2742,50.0,96,96,0.0,64.0
2743,72.0,0,96,0.0,64.0
2744,52.0,96,96,0.0,64.0
2745,53.0,0,96,0.0,64.0
2746,76.0,96,96,0.0,64.0
2747,67.0,0,96,0.0,64.0
2748,50.0,96,96,0.0,64.0
2749,72.0,96,96,0.0,64.0
2750,52.0,0,96,0.0,64.0
2751,64.0,96,96,0.0,64.0
2752,67.0,96,96,0.0,64.0
2753,60.0,96,96,0.0,64.0
2754,48.0,0,0,0.0,64.0
2755,52.0,0,192,0.0,64.0
2756,67.0,0,96,0.0,64.0
2757,53.0,0,192,0.0,64.0
2758,69.0,0,192,0.0,64.0
2759,45.0,96,96,0.0,64.0
2760,46.0,96,96,0.0,64.0
2761,55.0,0,192,0.0,64.0
2762,70.0,96,192,0.0,64.0
2763,43.0,96,96,0.0,64.0
2764,45.0,0,96,0.0,64.0
2765,72.0,0,192,0.0,64.0
2766,41.0,0,192,0.0,64.0
2767,57.0,96,96,0.0,64.0
2768,58.0,96,96,0.0,64.0
2769,57.0,96,96,0.0,64.0
2770,53.0,0,192,0.0,64.0
2771,74.0,96,192,0.0,64.0
2772,58.0,0,96,0.0,64.0
2773,60.0,0,96,0.0,64.0
2774,67.0,0,192,0.0,64.0
2775,52.0,96,96,0.0,64.0
2776,53.0,0,96,0.0,64.0
2777,62.0,96,96,0.0,64.0
2778,50.0,0,96,0.0,64.0
2779,79.0,96,288,0.0,64.0
2780,58.0,96,96,0.0,64.0
2781,52.0,0,96,0.0,64.0
2782,60.0,96,96,0.0,64.0
2783,57.0,0,192,0.0,64.0
2784,48.0,0,192,0.0,64.0
2785,76.0,96,96,0.0,64.0
2786,53.0,0,96,0.0,64.0
2787,69.0,0,576,0.0,64.0
2788,72.0,96,96,0.0,64.0
2789,81.0,96,96,0.0,64.0
2790,48.0,0,96,0.0,64.0
2791,50.0,192,192,0.0,64.0
2792,82.0,96,96,0.0,64.0
2793,72.0,0,96,0.0,64.0
2794,46.0,96,192,0.0,64.0
2795,67.0,0,768,0.0,64.0
2796,40.0,0,192,0.0,64.0
2797,74.0,96,0,0.0,64.0
2798,52.0,0,192,0.0,64.0
2799,72.0,96,96,0.0,64.0
2800,70.0,96,96,0.0,64.0
2801,48.0,96,96,0.0,64.0
2802,81.0,0,96,0.0,64.0
2803,70.0,96,96,0.0,64.0
2804,50.0,0,96,0.0,64.0
2805,46.0,96,96,0.0,64.0
2806,48.0,96,96,0.0,64.0
2807,65.0,0,768,0.0,64.0
2808,45.0,0,192,0.0,64.0
2809,72.0,96,0,0.0,64.0
2810,50.0,0,96,0.0,64.0
2811,70.0,96,96,0.0,64.0
2812,45.0,96,96,0.0,64.0
2813,69.0,0,96,0.0,64.0
2814,79.0,96,96,0.0,64.0
2815,46.0,192,192,0.0,64.0
2816,69.0,0,96,0.0,64.0
2817,43.0,96,192,0.0,64.0
2818,64.0,0,384,0.0,64.0
2819,36.0,0,192,0.0,64.0
2820,70.0,96,0,0.0,64.0
2821,69.0,96,96,0.0,64.0
2822,48.0,0,192,0.0,64.0
2823,67.0,96,96,0.0,64.0
2824,45.0,96,96,0.0,64.0
2825,46.0,96,96,0.0,64.0
2826,60.0,0,192,0.0,64.0
2827,43.0,96,96,0.0,64.0
2828,45.0,0,96,0.0,64.0
2829,65.0,96,0,0.0,64.0
2830,41.0,96,96,0.0,64.0
2831,45.0,0,96,0.0,64.0
2832,43.0,96,96,0.0,64.0
2833,64.0,96,192,0.0,64.0
2834,46.0,0,96,0.0,64.0
2835,65.0,0,384,0.0,64.0
2836,45.0,96,96,0.0,64.0
2837,46.0,96,96,0.0,64.0
2838,72.0,96,192,0.0,64.0
2839,43.0,96,96,0.0,64.0
2840,45.0,0,96,0.0,64.0
2841,77.0,0,192,0.0,64.0
2842,41.0,96,96,0.0,64.0
2843,45.0,96,96,0.0,64.0
2844,76.0,96,192,0.0,64.0
2845,58.0,0,192,0.0,64.0
2846,43.0,96,96,0.0,64.0
2847,46.0,0,96,0.0,64.0
2848,45.0,0,96,0.0,64.0
2849,60.0,0,96,0.0,64.0
2850,77.0,96,96,0.0,64.0
2851,48.0,96,96,0.0,64.0
2852,75.0,0,96,0.0,64.0
2853,67.0,0,96,0.0,64.0
2854,55.0,0,96,0.0,64.0
2855,74.0,96,96,0.0,64.0
2856,47.0,0,96,0.0,64.0
2857,50.0,0,96,0.0,64.0
2858,67.0,96,96,0.0,64.0
2859,77.0,0,96,0.0,64.0
2860,55.0,0,96,0.0,64.0
2861,48.0,96,96,0.0,64.0
2862,75.0,0,96,0.0,64.0
2863,72.0,0,96,0.0,64.0
2864,51.0,0,96,0.0,64.0
2865,67.0,96,96,0.0,64.0
2866,50.0,0,96,0.0,64.0
2867,71.0,0,96,0.0,64.0
2868,55.0,96,96,0.0,64.0
2869,53.0,96,96,0.0,64.0
2870,74.0,0,96,0.0,64.0
2871,67.0,0,96,0.0,64.0
2872,55.0,0,192,0.0,64.0
2873,72.0,96,192,0.0,64.0
2874,51.0,96,96,0.0,64.0
2875,53.0,0,96,0.0,64.0
2876,50.0,96,96,0.0,64.0
2877,67.0,0,192,0.0,64.0
2878,51.0,96,96,0.0,64.0
2879,72.0,96,192,0.0,64.0
2880,48.0,96,96,0.0,64.0
2881,51.0,0,96,0.0,64.0
2882,50.0,96,96,0.0,64.0
2883,71.0,96,192,0.0,64.0
2884,53.0,0,96,0.0,64.0
2885,72.0,0,384,0.0,64.0
2886,51.0,96,96,0.0,64.0
2887,53.0,96,96,0.0,64.0
2888,50.0,96,96,0.0,64.0
2889,79.0,0,192,0.0,64.0
2890,51.0,96,96,0.0,64.0
2891,84.0,96,192,0.0,64.0
2892,48.0,96,96,0.0,64.0
2893,51.0,0,96,0.0,64.0
2894,50.0,96,96,0.0,64.0
2895,65.0,0,192,0.0,64.0
2896,83.0,0,192,0.0,64.0
2897,53.0,96,96,0.0,64.0
2898,67.0,0,96,0.0,64.0
2899,84.0,96,96,0.0,64.0
2900,52.0,0,96,0.0,64.0
2901,82.0,96,96,0.0,64.0
2902,55.0,0,96,0.0,64.0
2903,74.0,0,96,0.0,64.0
2904,54.0,96,96,0.0,64.0
2905,81.0,0,96,0.0,64.0
2906,62.0,0,96,0.0,64.0
2907,84.0,96,96,0.0,64.0
2908,74.0,0,96,0.0,64.0
2909,57.0,0,96,0.0,64.0
2910,62.0,0,96,0.0,64.0
2911,55.0,0,96,0.0,64.0
2912,82.0,96,96,0.0,64.0
2913,74.0,96,96,0.0,64.0
2914,58.0,0,96,0.0,64.0
2915,79.0,0,96,0.0,64.0
2916,78.0,0,96,0.0,64.0
2917,57.0,0,96,0.0,64.0
2918,62.0,96,96,0.0,64.0
2919,81.0,0,96,0.0,64.0
2920,74.0,96,96,0.0,64.0
2921,60.0,0,96,0.0,64.0
2922,79.0,0,192,0.0,64.0
2923,58.0,96,96,0.0,64.0
2924,62.0,0,192,0.0,64.0
2925,60.0,96,0,0.0,64.0
2926,74.0,96,192,0.0,64.0
2927,57.0,96,96,0.0,64.0
2928,58.0,0,0,0.0,64.0
2929,55.0,96,96,0.0,64.0
2930,79.0,96,192,0.0,64.0
2931,58.0,0,96,0.0,64.0
2932,78.0,0,192,0.0,64.0
2933,57.0,96,96,0.0,64.0
2934,60.0,0,96,0.0,64.0
2935,58.0,0,96,0.0,64.0
2936,79.0,96,96,0.0,64.0
2937,62.0,0,96,0.0,64.0
2938,74.0,0,96,0.0,64.0
2939,60.0,96,96,0.0,64.0
2940,81.0,0,96,0.0,64.0
2941,72.0,96,96,0.0,64.0
2942,57.0,0,96,0.0,64.0
2943,78.0,0,96,0.0,64.0
2944,75.0,96,96,0.0,64.0
2945,60.0,0,96,0.0,64.0
2946,81.0,0,96,0.0,64.0
2947,74.0,96,96,0.0,64.0
2948,79.0,0,96,0.0,64.0
2949,58.0,0,96,0.0,64.0
2950,81.0,0,96,0.0,64.0
2951,60.0,96,96,0.0,64.0
2952,75.0,0,96,0.0,64.0
2953,77.0,96,96,0.0,64.0
2954,57.0,0,96,0.0,64.0
2955,72.0,0,96,0.0,64.0
2956,58.0,0,96,0.0,64.0
2957,74.0,96,96,0.0,64.0
2958,79.0,0,96,0.0,64.0
2959,75.0,0,96,0.0,64.0
2960,70.0,0,96,0.0,64.0
2961,55.0,96,96,0.0,64.0
2962,77.0,96,96,0.0,64.0
2963,57.0,0,96,0.0,64.0
2964,72.0,0,96,0.0,64.0
2965,54.0,96,96,0.0,64.0
2966,69.0,0,96,0.0,64.0
2967,74.0,0,96,0.0,64.0
2968,72.0,0,96,0.0,64.0
2969,77.0,0,96,0.0,64.0
2970,57.0,96,96,0.0,64.0
2971,70.0,0,96,0.0,64.0
2972,75.0,96,96,0.0,64.0
2973,55.0,0,96,0.0,64.0
2974,77.0,0,96,0.0,64.0
2975,72.0,0,96,0.0,64.0
2976,57.0,96,96,0.0,64.0
2977,74.0,0,96,0.0,64.0
2978,69.0,96,96,0.0,64.0
2979,53.0,0,96,0.0,64.0
2980,55.0,96,96,0.0,64.0
2981,75.0,0,96,0.0,64.0
2982,70.0,0,96,0.0,64.0
2983,72.0,0,96,0.0,64.0
2984,51.0,96,96,0.0,64.0
2985,67.0,0,96,0.0,64.0
2986,53.0,0,96,0.0,64.0
2987,69.0,0,96,0.0,64.0
2988,74.0,96,96,0.0,64.0
2989,70.0,0,96,0.0,64.0
2990,65.0,96,96,0.0,64.0
2991,50.0,0,96,0.0,64.0
2992,53.0,0,96,0.0,64.0
2993,69.0,0,96,0.0,64.0
2994,74.0,96,96,0.0,64.0
2995,51.0,96,96,0.0,64.0
2996,67.0,0,96,0.0,64.0
2997,72.0,0,96,0.0,64.0
2998,74.0,0,96,0.0,64.0
2999,69.0,96,96,0.0,64.0
3000,53.0,0,96,0.0,64.0
3001,70.0,96,96,0.0,64.0
3002,65.0,0,96,0.0,64.0
3003,50.0,0,96,0.0,64.0
3004,67.0,0,96,0.0,64.0
3005,51.0,0,96,0.0,64.0
3006,72.0,96,96,0.0,64.0
3007,48.0,0,96,0.0,64.0
3008,69.0,96,96,0.0,64.0
3009,63.0,0,96,0.0,64.0
3010,50.0,0,96,0.0,64.0
3011,70.0,96,96,0.0,64.0
3012,65.0,0,96,0.0,64.0
3013,46.0,96,96,0.0,64.0
3014,62.0,0,96,0.0,64.0
3015,67.0,0,96,0.0,64.0
3016,65.0,0,96,0.0,64.0
3017,70.0,0,96,0.0,64.0
3018,50.0,96,96,0.0,64.0
3019,63.0,0,96,0.0,64.0
3020,48.0,0,96,0.0,64.0
3021,69.0,96,96,0.0,64.0
3022,65.0,96,96,0.0,64.0
3023,70.0,0,96,0.0,64.0
3024,50.0,0,96,0.0,64.0
3025,62.0,96,96,0.0,64.0
3026,67.0,0,96,0.0,64.0
3027,46.0,0,96,0.0,64.0
3028,69.0,96,96,0.0,64.0
3029,48.0,0,96,0.0,64.0
3030,63.0,0,96,0.0,64.0
3031,60.0,0,96,0.0,64.0
3032,45.0,0,96,0.0,64.0
3033,66.0,96,96,0.0,64.0
3034,62.0,0,96,0.0,64.0
3035,67.0,96,96,0.0,64.0
3036,46.0,0,96,0.0,64.0
3037,58.0,0,96,0.0,64.0
3038,43.0,96,96,0.0,64.0
3039,64.0,0,96,0.0,64.0
3040,60.0,0,96,0.0,64.0
3041,66.0,0,96,0.0,64.0
3042,45.0,96,96,0.0,64.0
3043,42.0,0,192,0.0,64.0
3044,57.0,96,96,0.0,64.0
3045,62.0,96,192,0.0,64.0
3046,60.0,0,96,0.0,64.0
3047,38.0,0,192,0.0,64.0
3048,74.0,0,192,0.0,64.0
3049,54.0,96,96,0.0,64.0
3050,57.0,96,96,0.0,64.0
3051,70.0,0,96,0.0,64.0
3052,43.0,96,192,0.0,64.0
3053,55.0,96,96,0.0,64.0
3054,58.0,0,96,0.0,64.0
3055,72.0,0,96,0.0,64.0
3056,50.0,96,96,0.0,64.0
3057,69.0,0,96,0.0,64.0
3058,41.0,96,192,0.0,64.0
3059,55.0,0,96,0.0,64.0
3060,70.0,0,96,0.0,64.0
3061,46.0,96,96,0.0,64.0
3062,39.0,0,384,0.0,64.0
3063,67.0,96,192,0.0,64.0
3064,50.0,0,96,0.0,64.0
3065,43.0,96,96,0.0,64.0
3066,79.0,96,192,0.0,64.0
3067,48.0,0,96,0.0,64.0
3068,50.0,96,96,0.0,64.0
3069,78.0,0,96,0.0,64.0
3070,38.0,96,3264,0.0,64.0
3071,79.0,0,96,0.0,64.0
3072,45.0,96,96,0.0,64.0
3073,76.0,96,96,0.0,64.0
3074,52.0,0,96,0.0,64.0
3075,78.0,0,96,0.0,64.0
3076,45.0,96,96,0.0,64.0
3077,74.0,96,96,0.0,64.0
3078,54.0,0,96,0.0,64.0
3079,55.0,96,96,0.0,64.0
3080,81.0,0,96,0.0,64.0
3081,72.0,96,96,0.0,64.0
3082,52.0,0,96,0.0,64.0
3083,81.0,0,96,0.0,64.0
3084,54.0,96,96,0.0,64.0
3085,70.0,96,96,0.0,64.0
3086,55.0,0,96,0.0,64.0
3087,50.0,96,96,0.0,64.0
3088,72.0,0,96,0.0,64.0
3089,69.0,96,96,0.0,64.0
3090,57.0,0,96,0.0,64.0
3091,50.0,0,96,0.0,64.0
3092,70.0,96,96,0.0,64.0
3093,58.0,96,96,0.0,64.0
3094,67.0,0,96,0.0,64.0
3095,70.0,0,96,0.0,64.0
3096,50.0,96,96,0.0,64.0
3097,75.0,96,96,0.0,64.0
3098,60.0,0,96,0.0,64.0
3099,50.0,96,96,0.0,64.0
3100,67.0,0,96,0.0,64.0
3101,66.0,96,96,0.0,64.0
3102,62.0,96,288,0.0,64.0
3103,69.0,96,96,0.0,64.0
3104,74.0,96,288,0.0,64.0
3105,64.0,96,96,0.0,64.0
3106,66.0,96,384,0.0,64.0
3107,72.0,96,96,0.0,64.0
3108,70.0,96,96,0.0,64.0
3109,62.0,0,192,0.0,64.0
3110,69.0,0,96,0.0,64.0
3111,67.0,96,288,0.0,64.0
3112,70.0,96,96,0.0,64.0
3113,58.0,0,96,0.0,64.0
3114,60.0,0,96,0.0,64.0
3115,74.0,96,96,0.0,64.0
3116,57.0,0,96,0.0,64.0
3117,79.0,96,288,0.0,64.0
3118,58.0,96,96,0.0,64.0
3119,69.0,0,96,0.0,64.0
3120,55.0,0,192,0.0,64.0
3121,70.0,96,288,0.0,64.0
3122,73.0,96,96,0.0,64.0
3123,76.0,0,192,0.0,64.0
3124,67.0,96,192,0.0,64.0
3125,61.0,0,96,0.0,64.0
3126,69.0,0,384,0.0,64.0
3127,74.0,192,384,0.0,64.0
3128,66.0,96,96,0.0,64.0
3129,62.0,0,384,0.0,64.0
3130,67.0,0,96,0.0,64.0
3131,64.0,96,96,0.0,64.0
3132,42.0,0,192,0.0,64.0
3133,66.0,0,96,0.0,64.0
3134,43.0,96,192,0.0,64.0
3135,62.0,0,192,0.0,64.0
3136,82.0,0,768,0.0,64.0
3137,67.0,96,96,0.0,64.0
3138,74.0,96,192,0.0,64.0
3139,46.0,0,192,0.0,64.0
3140,62.0,0,96,0.0,64.0
3141,48.0,96,192,0.0,64.0
3142,63.0,0,192,0.0,64.0
3143,79.0,96,96,0.0,64.0
3144,77.0,0,96,0.0,64.0
3145,75.0,96,96,0.0,64.0
3146,60.0,96,192,0.0,64.0
3147,51.0,0,192,0.0,64.0
3148,74.0,0,96,0.0,64.0
3149,72.0,96,96,0.0,64.0
3150,53.0,0,192,0.0,64.0
3151,81.0,192,768,0.0,64.0
3152,75.0,0,96,0.0,64.0
3153,65.0,96,192,0.0,64.0
3154,45.0,0,192,0.0,64.0
3155,74.0,96,96,0.0,64.0
3156,72.0,0,96,0.0,64.0
3157,70.0,0,384,0.0,64.0
3158,62.0,96,96,0.0,64.0
3159,46.0,0,192,0.0,64.0
3160,63.0,96,96,0.0,64.0
3161,50.0,0,192,0.0,64.0
3162,60.0,96,96,0.0,64.0
3163,62.0,0,96,0.0,64.0
3164,51.0,0,192,0.0,64.0
3165,79.0,0,768,0.0,64.0
3166,58.0,96,192,0.0,64.0
3167,43.0,0,192,0.0,64.0
3168,70.0,0,192,0.0,64.0
3169,63.0,96,96,0.0,64.0
3170,58.0,96,96,0.0,64.0
3171,45.0,96,192,0.0,64.0
3172,75.0,96,96,0.0,64.0
3173,60.0,0,192,0.0,64.0
3174,74.0,0,96,0.0,64.0
3175,57.0,0,192,0.0,64.0
3176,72.0,96,96,0.0,64.0
3177,48.0,96,192,0.0,64.0
3178,70.0,0,96,0.0,64.0
3179,69.0,96,96,0.0,64.0
3180,78.0,0,384,0.0,64.0
3181,50.0,0,192,0.0,64.0
3182,72.0,0,96,0.0,64.0
3183,62.0,0,192,0.0,64.0
3184,70.0,96,96,0.0,64.0
3185,38.0,0,192,0.0,64.0
3186,69.0,96,96,0.0,64.0
3187,43.0,0,384,0.0,64.0
3188,79.0,96,192,0.0,64.0
3189,67.0,96,384,0.0,64.0
3190,58.0,96,96,0.0,64.0
3191,60.0,0,96,0.0,64.0
3192,57.0,96,96,0.0,64.0
3193,74.0,0,192,0.0,64.0
3194,58.0,0,96,0.0,64.0
3195,79.0,0,192,0.0,64.0
3196,55.0,96,96,0.0,64.0
3197,58.0,96,96,0.0,64.0
3198,57.0,96,96,0.0,64.0
3199,38.0,0,192,0.0,64.0
3200,78.0,0,192,0.0,64.0
3201,60.0,96,96,0.0,64.0
3202,79.0,96,192,0.0,64.0
3203,43.0,0,384,0.0,64.0
3204,58.0,96,96,0.0,64.0
3205,60.0,0,96,0.0,64.0
3206,62.0,0,192,0.0,64.0
3207,57.0,96,96,0.0,64.0
3208,74.0,96,192,0.0,64.0
3209,58.0,0,96,0.0,64.0
3210,67.0,0,192,0.0,64.0
3211,55.0,96,96,0.0,64.0
3212,70.0,0,192,0.0,64.0
3213,58.0,96,96,0.0,64.0
3214,66.0,96,192,0.0,64.0
3215,57.0,96,96,0.0,64.0
3216,38.0,0,192,0.0,64.0
3217,72.0,0,192,0.0,64.0
3218,60.0,0,96,0.0,64.0
3219,43.0,0,192,0.0,64.0
3220,67.0,0,192,0.0,64.0
3221,74.0,0,192,0.0,64.0
3222,58.0,96,96,0.0,64.0
3223,60.0,96,96,0.0,64.0
3224,66.0,0,192,0.0,64.0
3225,50.0,0,192,0.0,64.0
3226,57.0,96,96,0.0,64.0
3227,58.0,0,96,0.0,64.0
3228,74.0,96,0,0.0,64.0
3229,70.0,0,96,0.0,64.0
3230,55.0,96,96,0.0,64.0
3231,67.0,0,96,0.0,64.0
3232,58.0,96,96,0.0,64.0
3233,69.0,96,96,0.0,64.0
3234,57.0,0,96,0.0,64.0
3235,54.0,0,192,0.0,64.0
3236,62.0,96,96,0.0,64.0
3237,60.0,0,96,0.0,64.0
3238,58.0,96,96,0.0,64.0
3239,74.0,0,0,0.0,64.0
3240,55.0,0,192,0.0,64.0
3241,62.0,0,96,0.0,64.0
3242,60.0,96,96,0.0,64.0
3243,51.0,96,192,0.0,64.0
3244,75.0,0,192,0.0,64.0
3245,67.0,0,0,0.0,64.0
3246,63.0,0,96,0.0,64.0
3247,67.0,0,192,0.0,64.0
3248,77.0,0,192,0.0,64.0
3249,47.0,0,192,0.0,64.0
3250,62.0,96,96,0.0,64.0
3251,65.0,96,96,0.0,64.0
3252,63.0,96,96,0.0,64.0
3253,43.0,0,192,0.0,64.0
3254,71.0,0,192,0.0,64.0
3255,79.0,0,192,0.0,64.0
3256,62.0,96,96,0.0,64.0
3257,60.0,96,96,0.0,64.0
3258,67.0,0,384,0.0,64.0
3259,48.0,0,384,0.0,64.0
3260,75.0,0,192,0.0,64.0
3261,62.0,96,96,0.0,64.0
3262,59.0,96,96,0.0,64.0
3263,79.0,0,192,0.0,64.0
3264,62.0,96,96,0.0,64.0
3265,84.0,96,192,0.0,64.0
3266,60.0,96,96,0.0,64.0
3267,63.0,0,96,0.0,64.0
3268,55.0,0,192,0.0,64.0
3269,83.0,96,192,0.0,64.0
3270,62.0,96,96,0.0,64.0
3271,65.0,0,96,0.0,64.0
3272,63.0,96,96,0.0,64.0
3273,48.0,96,384,0.0,64.0
3274,84.0,96,192,0.0,64.0
3275,65.0,0,96,0.0,64.0
3276,67.0,0,192,0.0,64.0
3277,79.0,0,192,0.0,64.0
3278,62.0,96,96,0.0,64.0
3279,63.0,0,96,0.0,64.0
3280,60.0,96,96,0.0,64.0
3281,75.0,96,192,0.0,64.0
3282,72.0,0,192,0.0,64.0
3283,63.0,0,96,0.0,64.0
3284,71.0,0,192,0.0,64.0
3285,77.0,0,192,0.0,64.0
3286,62.0,96,96,0.0,64.0
3287,43.0,0,192,0.0,64.0
3288,65.0,96,96,0.0,64.0
3289,63.0,96,96,0.0,64.0
3290,48.0,0,192,0.0,64.0
3291,72.0,0,192,0.0,64.0
3292,65.0,0,96,0.0,64.0
3293,79.0,96,0,0.0,64.0
3294,62.0,96,96,0.0,64.0
3295,55.0,96,192,0.0,64.0
3296,71.0,0,192,0.0,64.0
3297,63.0,0,96,0.0,64.0
3298,79.0,0,0,0.0,64.0
3299,60.0,0,96,0.0,64.0
3300,75.0,96,96,0.0,64.0
3301,72.0,0,96,0.0,64.0
3302,63.0,96,96,0.0,64.0
3303,74.0,96,96,0.0,64.0
3304,79.0,0,192,0.0,64.0
3305,62.0,0,96,0.0,64.0
3306,59.0,96,192,0.0,64.0
3307,67.0,0,96,0.0,64.0
3308,65.0,0,96,0.0,64.0
3309,63.0,96,96,0.0,64.0
3310,60.0,0,192,0.0,64.0
3311,72.0,0,96,0.0,64.0
3312,79.0,0,384,0.0,64.0
3313,71.0,0,96,0.0,64.0
3314,62.0,96,96,0.0,64.0
3315,72.0,96,96,0.0,64.0
3316,56.0,0,192,0.0,64.0
3317,63.0,0,96,0.0,64.0
3318,67.0,0,96,0.0,64.0
3319,75.0,96,96,0.0,64.0
3320,74.0,96,96,0.0,64.0
3321,68.0,0,96,0.0,64.0
3322,53.0,96,192,0.0,64.0
3323,75.0,0,96,0.0,64.0
3324,67.0,0,96,0.0,64.0
3325,74.0,96,96,0.0,64.0
3326,65.0,0,96,0.0,64.0
3327,50.0,0,192,0.0,64.0
3328,72.0,96,96,0.0,64.0
3329,63.0,0,96,0.0,64.0
3330,71.0,0,96,0.0,64.0
3331,55.0,0,192,0.0,64.0
3332,62.0,96,96,0.0,64.0
3333,69.0,0,96,0.0,64.0
3334,60.0,96,96,0.0,64.0
3335,71.0,96,96,0.0,64.0
3336,62.0,0,96,0.0,64.0
3337,50.0,96,192,0.0,64.0
3338,63.0,0,96,0.0,64.0
3339,72.0,0,96,0.0,64.0
3340,47.0,96,192,0.0,64.0
3341,74.0,96,96,0.0,64.0
3342,65.0,0,96,0.0,64.0
3343,62.0,0,96,0.0,64.0
3344,72.0,0,96,0.0,64.0
3345,79.0,0,192,0.0,64.0
3346,43.0,0,192,0.0,64.0
3347,74.0,96,96,0.0,64.0
3348,71.0,96,96,0.0,64.0
3349,75.0,96,96,0.0,64.0
3350,48.0,96,192,0.0,64.0
3351,72.0,0,192,0.0,64.0
3352,77.0,0,96,0.0,64.0
3353,74.0,96,96,0.0,64.0
3354,71.0,0,192,0.0,64.0
3355,43.0,96,192,0.0,64.0
3356,75.0,0,96,0.0,64.0
3357,72.0,0,192,0.0,64.0
3358,39.0,96,192,0.0,64.0
3359,67.0,96,0,0.0,64.0
3360,79.0,0,192,0.0,64.0
3361,84.0,96,192,0.0,64.0
3362,65.0,96,96,0.0,64.0
3363,36.0,0,192,0.0,64.0
3364,63.0,0,96,0.0,64.0
3365,62.0,0,96,0.0,64.0
3366,43.0,96,192,0.0,64.0
3367,79.0,0,192,0.0,64.0
3368,83.0,96,96,0.0,64.0
3369,63.0,0,96,0.0,64.0
3370,84.0,0,96,0.0,64.0
3371,60.0,96,96,0.0,64.0
3372,81.0,0,96,0.0,64.0
3373,55.0,0,192,0.0,64.0
3374,83.0,192,96,0.0,64.0
3375,62.0,0,96,0.0,64.0
3376,48.0,96,192,0.0,64.0
3377,63.0,0,768,0.0,64.0
3378,79.0,0,192,0.0,64.0
3379,84.0,96,96,0.0,64.0
3380,51.0,96,192,0.0,64.0
3381,79.0,0,96,0.0,64.0
3382,80.0,192,192,0.0,64.0
3383,53.0,96,96,0.0,64.0
3384,48.0,0,96,0.0,64.0
3385,77.0,96,192,0.0,64.0
3386,56.0,96,288,0.0,64.0
3387,62.0,96,768,0.0,64.0
3388,70.0,0,192,0.0,64.0
3389,46.0,96,96,0.0,64.0
3390,82.0,0,192,0.0,64.0
3391,50.0,96,96,0.0,64.0
3392,46.0,96,96,0.0,64.0
3393,51.0,0,96,0.0,64.0
3394,79.0,96,96,0.0,64.0
3395,80.0,96,96,0.0,64.0
3396,46.0,0,96,0.0,64.0
3397,55.0,96,288,0.0,64.0
3398,77.0,96,96,0.0,64.0
3399,79.0,0,96,0.0,64.0
3400,60.0,96,768,0.0,64.0
3401,75.0,0,192,0.0,64.0
3402,44.0,96,96,0.0,64.0
3403,48.0,0,96,0.0,64.0
3404,80.0,96,96,0.0,64.0
3405,75.0,0,96,0.0,64.0
3406,44.0,96,96,0.0,64.0
3407,50.0,96,96,0.0,64.0
3408,77.0,192,192,0.0,64.0
3409,44.0,0,96,0.0,64.0
3410,53.0,96,288,0.0,64.0
3411,74.0,0,192,0.0,64.0
3412,59.0,0,384,0.0,64.0
3413,67.0,0,192,0.0,64.0
3414,43.0,96,96,0.0,64.0
3415,79.0,0,192,0.0,64.0
3416,47.0,96,96,0.0,64.0
3417,43.0,96,96,0.0,64.0
3418,75.0,0,96,0.0,64.0
3419,60.0,96,384,0.0,64.0
3420,48.0,96,96,0.0,64.0
3421,77.0,96,96,0.0,64.0
3422,43.0,0,96,0.0,64.0
3423,50.0,0,96,0.0,64.0
3424,74.0,96,96,0.0,64.0
3425,75.0,0,96,0.0,64.0
3426,43.0,0,96,0.0,64.0
3427,51.0,96,96,0.0,64.0
3428,72.0,0,96,0.0,64.0
3429,75.0,0,96,0.0,64.0
3430,67.0,96,96,0.0,64.0
3431,43.0,0,96,0.0,64.0
3432,65.0,96,96,0.0,64.0
3433,74.0,0,96,0.0,64.0
3434,53.0,0,96,0.0,64.0
3435,72.0,0,96,0.0,64.0
3436,43.0,0,96,0.0,64.0
3437,63.0,96,96,0.0,64.0
3438,55.0,0,96,0.0,64.0
3439,71.0,96,96,0.0,64.0
3440,62.0,96,480,0.0,64.0
3441,72.0,0,96,0.0,64.0
3442,43.0,96,96,0.0,64.0
3443,69.0,96,96,0.0,64.0
3444,57.0,0,96,0.0,64.0
3445,43.0,96,96,0.0,64.0
3446,71.0,0,96,0.0,64.0
3447,67.0,0,96,0.0,64.0
3448,59.0,0,96,0.0,64.0
3449,77.0,0,96,0.0,64.0
3450,43.0,96,96,0.0,64.0
3451,68.0,0,96,0.0,64.0
3452,75.0,0,96,0.0,64.0
3453,67.0,0,96,0.0,64.0
3454,55.0,96,96,0.0,64.0
3455,43.0,96,96,0.0,64.0
3456,74.0,0,96,0.0,64.0
3457,65.0,0,96,0.0,64.0
3458,72.0,96,96,0.0,64.0
3459,60.0,0,384,0.0,64.0
3460,63.0,0,96,0.0,64.0
3461,67.0,0,96,0.0,64.0
3462,65.0,96,96,0.0,64.0
3463,62.0,0,96,0.0,64.0
3464,74.0,96,96,0.0,64.0
3465,63.0,0,96,0.0,64.0
3466,67.0,96,96,0.0,64.0
3467,60.0,96,96,0.0,64.0
3468,75.0,0,96,0.0,64.0
3469,67.0,0,96,0.0,64.0
3470,63.0,96,96,0.0,64.0
3471,77.0,0,96,0.0,64.0
3472,62.0,96,96,0.0,64.0
3473,60.0,0,96,0.0,64.0
3474,67.0,96,96,0.0,64.0
3475,79.0,0,96,0.0,64.0
3476,59.0,96,96,0.0,64.0
3477,67.0,0,96,0.0,64.0
3478,60.0,96,96,0.0,64.0
3479,57.0,96,96,0.0,64.0
3480,81.0,0,96,0.0,64.0
3481,59.0,0,96,0.0,64.0
3482,67.0,96,96,0.0,64.0
3483,83.0,96,192,0.0,64.0
3484,55.0,96,96,0.0,64.0
3485,59.0,0,96,0.0,64.0
3486,55.0,0,96,0.0,64.0
3487,53.0,0,96,0.0,64.0
3488,79.0,0,192,0.0,64.0
3489,57.0,96,96,0.0,64.0
3490,55.0,48,96,0.0,64.0
3491,59.0,0,96,0.0,64.0
3492,60.0,48,96,0.0,64.0
3493,81.0,48,48,0.0,64.0
3494,51.0,0,96,0.0,64.0
3495,79.0,0,48,0.0,64.0
3496,55.0,0,96,0.0,64.0
3497,81.0,48,48,0.0,64.0
3498,53.0,0,96,0.0,64.0
3499,79.0,48,48,0.0,64.0
3500,62.0,48,96,0.0,64.0
3501,81.0,48,48,0.0,64.0
3502,50.0,0,96,0.0,64.0
3503,79.0,0,48,0.0,64.0
3504,81.0,48,48,0.0,64.0
3505,55.0,0,96,0.0,64.0
3506,51.0,0,96,0.0,64.0
3507,79.0,48,48,0.0,64.0
3508,81.0,48,48,0.0,64.0
3509,48.0,0,96,0.0,64.0
3510,63.0,48,96,0.0,64.0
3511,79.0,0,48,0.0,64.0
3512,50.0,48,96,0.0,64.0
3513,55.0,0,96,0.0,64.0
3514,81.0,48,48,0.0,64.0
3515,79.0,0,48,0.0,64.0
3516,81.0,48,48,0.0,64.0
3517,65.0,0,96,0.0,64.0
3518,48.0,48,96,0.0,64.0
3519,79.0,0,48,0.0,64.0
3520,55.0,0,96,0.0,64.0
3521,81.0,48,48,0.0,64.0
3522,50.0,48,96,0.0,64.0
3523,79.0,0,48,0.0,64.0
3524,67.0,0,96,0.0,64.0
3525,81.0,48,48,0.0,64.0
3526,47.0,0,96,0.0,64.0
3527,79.0,48,48,0.0,64.0
3528,81.0,48,48,0.0,64.0
3529,55.0,0,96,0.0,64.0
3530,48.0,48,96,0.0,64.0
3531,79.0,0,48,0.0,64.0
3532,45.0,48,96,0.0,64.0
3533,69.0,0,96,0.0,64.0
3534,81.0,48,48,0.0,64.0
3535,79.0,0,48,0.0,64.0
3536,47.0,0,96,0.0,64.0
3537,55.0,48,96,0.0,64.0
3538,81.0,48,48,0.0,64.0
3539,79.0,0,48,0.0,64.0
3540,81.0,48,48,0.0,64.0
3541,43.0,0,192,0.0,64.0
3542,71.0,48,96,0.0,64.0
3543,79.0,0,48,0.0,64.0
3544,81.0,48,48,0.0,64.0
3545,67.0,48,96,0.0,64.0
3546,79.0,0,48,0.0,64.0
3547,81.0,48,48,0.0,64.0
3548,55.0,0,192,0.0,64.0
3549,69.0,0,96,0.0,64.0
3550,79.0,48,48,0.0,64.0
3551,81.0,48,48,0.0,64.0
3552,71.0,48,96,0.0,64.0
3553,79.0,0,48,0.0,64.0
3554,81.0,48,48,0.0,64.0
3555,51.0,96,192,0.0,64.0
3556,72.0,96,480,0.0,64.0
3557,79.0,96,48,0.0,64.0
3558,75.0,0,96,0.0,64.0
3559,77.0,96,96,0.0,64.0
3560,48.0,96,192,0.0,64.0
3561,79.0,0,96,0.0,64.0
3562,53.0,0,192,0.0,64.0
3563,80.0,96,480,0.0,64.0
3564,65.0,96,96,0.0,64.0
3565,67.0,96,96,0.0,64.0
3566,51.0,0,192,0.0,64.0
3567,68.0,96,96,0.0,64.0
3568,70.0,96,480,0.0,64.0
3569,50.0,0,192,0.0,64.0
3570,74.0,96,96,0.0,64.0
3571,75.0,96,96,0.0,64.0
3572,46.0,0,192,0.0,64.0
3573,77.0,96,96,0.0,64.0
3574,51.0,0,192,0.0,64.0
3575,79.0,96,480,0.0,64.0
3576,63.0,96,96,0.0,64.0
3577,65.0,96,96,0.0,64.0
3578,50.0,0,192,0.0,64.0
3579,67.0,96,96,0.0,64.0
3580,68.0,96,864,0.0,64.0
3581,48.0,96,192,0.0,64.0
3582,82.0,0,96,0.0,64.0
3583,80.0,96,96,0.0,64.0
3584,46.0,96,192,0.0,64.0
3585,79.0,0,96,0.0,64.0
3586,77.0,96,96,0.0,64.0
3587,48.0,96,192,0.0,64.0
3588,75.0,0,96,0.0,64.0
3589,74.0,96,96,0.0,64.0
3590,44.0,96,192,0.0,64.0
3591,75.0,0,96,0.0,64.0
3592,46.0,96,384,0.0,64.0
3593,74.0,0,192,0.0,64.0
3594,72.0,96,96,0.0,64.0
3595,77.0,0,192,0.0,64.0
3596,70.0,96,96,0.0,64.0
3597,68.0,0,96,0.0,64.0
3598,67.0,96,96,0.0,64.0
3599,68.0,0,96,0.0,64.0
3600,70.0,96,0,0.0,64.0
3601,74.0,0,192,0.0,64.0
3602,46.0,96,192,0.0,64.0
3603,65.0,96,96,0.0,64.0
3604,67.0,0,96,0.0,64.0
3605,63.0,96,96,0.0,64.0
3606,75.0,96,480,0.0,64.0
3607,39.0,0,384,0.0,64.0
3608,67.0,0,96,0.0,64.0
3609,68.0,0,96,0.0,64.0
3610,65.0,96,0,0.0,64.0
3611,62.0,0,96,0.0,64.0
3612,67.0,0,96,0.0,64.0
3613,63.0,96,0,0.0,64.0
3614,60.0,96,192,0.0,64.0
3615,77.0,0,96,0.0,64.0
3616,75.0,0,192,0.0,64.0
3617,65.0,96,192,0.0,64.0
3618,79.0,96,96,0.0,64.0
3619,81.0,0,96,0.0,64.0
3620,58.0,96,96,0.0,64.0
3621,82.0,192,768,0.0,64.0
3622,74.0,0,96,0.0,64.0
3623,75.0,0,96,0.0,64.0
3624,60.0,96,96,0.0,64.0
3625,72.0,0,96,0.0,64.0
3626,56.0,96,96,0.0,64.0
3627,74.0,0,96,0.0,64.0
3628,58.0,192,96,0.0,64.0
3629,70.0,96,192,0.0,64.0
3630,55.0,0,768,0.0,64.0
3631,75.0,96,96,0.0,64.0
3632,70.0,0,96,0.0,64.0
3633,72.0,96,192,0.0,64.0
3634,75.0,0,96,0.0,64.0
3635,68.0,0,192,0.0,64.0
3636,77.0,96,96,0.0,64.0
3637,79.0,96,96,0.0,64.0
3638,53.0,0,768,0.0,64.0
3639,80.0,96,96,0.0,64.0
3640,62.0,96,192,0.0,64.0
3641,79.0,0,96,0.0,64.0
3642,77.0,96,96,0.0,64.0
3643,74.0,96,192,0.0,64.0
3644,80.0,0,96,0.0,64.0
3645,70.0,96,96,0.0,64.0
3646,79.0,192,768,0.0,64.0
3647,72.0,96,96,0.0,64.0
3648,68.0,96,96,0.0,64.0
3649,70.0,192,96,0.0,64.0
3650,67.0,96,192,0.0,64.0
3651,51.0,96,768,0.0,64.0
3652,72.0,96,96,0.0,64.0
3653,67.0,0,96,0.0,64.0
3654,68.0,96,192,0.0,64.0
3655,72.0,0,96,0.0,64.0
3656,65.0,0,192,0.0,64.0
3657,74.0,96,96,0.0,64.0
3658,75.0,0,96,0.0,64.0
3659,77.0,96,96,0.0,64.0
3660,58.0,96,192,0.0,64.0
3661,50.0,0,384,0.0,64.0
3662,75.0,0,96,0.0,64.0
3663,74.0,96,96,0.0,64.0
3664,68.0,0,192,0.0,64.0
3665,77.0,96,96,0.0,64.0
3666,51.0,96,192,0.0,64.0
3667,70.0,0,192,0.0,64.0
3668,67.0,96,96,0.0,64.0
3669,68.0,0,96,0.0,64.0
3670,74.0,0,192,0.0,64.0
3671,65.0,96,96,0.0,64.0
3672,53.0,0,192,0.0,64.0
3673,46.0,96,192,0.0,64.0
3674,67.0,0,96,0.0,64.0
3675,75.0,0,192,0.0,64.0
3676,63.0,96,96,0.0,64.0
3677,51.0,96,192,0.0,64.0
3678,55.0,0,192,0.0,64.0
3679,67.0,0,96,0.0,64.0
3680,65.0,96,96,0.0,64.0
3681,50.0,0,192,0.0,64.0
3682,68.0,96,96,0.0,64.0
3683,58.0,0,0,0.0,64.0
3684,51.0,96,384,0.0,64.0
3685,67.0,96,96,0.0,64.0
3686,68.0,96,96,0.0,64.0
3687,65.0,96,96,0.0,64.0
3688,70.0,0,192,0.0,64.0
3689,67.0,0,96,0.0,64.0
3690,75.0,96,192,0.0,64.0
3691,63.0,96,96,0.0,64.0
3692,67.0,0,96,0.0,64.0
3693,74.0,96,192,0.0,64.0
3694,65.0,96,96,0.0,64.0
3695,68.0,0,96,0.0,64.0
3696,67.0,96,96,0.0,64.0
3697,75.0,0,192,0.0,64.0
3698,68.0,96,96,0.0,64.0
3699,65.0,96,96,0.0,64.0
3700,77.0,0,192,0.0,64.0
3701,62.0,96,192,0.0,64.0
3702,46.0,0,192,0.0,64.0
3703,67.0,0,96,0.0,64.0
3704,51.0,0,192,0.0,64.0
3705,79.0,0,192,0.0,64.0
3706,63.0,96,96,0.0,64.0
3707,67.0,0,96,0.0,64.0
3708,65.0,96,96,0.0,64.0
3709,58.0,96,0,0.0,64.0
3710,50.0,96,192,0.0,64.0
3711,68.0,0,96,0.0,64.0
3712,51.0,0,192,0.0,64.0
3713,67.0,96,96,0.0,64.0
3714,58.0,0,192,0.0,64.0
3715,70.0,96,96,0.0,64.0
3716,63.0,96,192,0.0,64.0
3717,53.0,0,192,0.0,64.0
3718,69.0,96,96,0.0,64.0
3719,72.0,0,96,0.0,64.0
3720,55.0,96,192,0.0,64.0
3721,62.0,0,192,0.0,64.0
3722,70.0,96,96,0.0,64.0
3723,74.0,0,96,0.0,64.0
3724,72.0,96,96,0.0,64.0
3725,65.0,96,192,0.0,64.0
3726,57.0,0,192,0.0,64.0
3727,75.0,0,96,0.0,64.0
3728,74.0,96,96,0.0,64.0
3729,58.0,0,192,0.0,64.0
3730,65.0,96,192,0.0,64.0
3731,75.0,0,96,0.0,64.0
3732,72.0,96,96,0.0,64.0
3733,77.0,0,192,0.0,64.0
3734,74.0,96,96,0.0,64.0
3735,70.0,96,96,0.0,64.0
3736,82.0,0,192,0.0,64.0
3737,74.0,96,96,0.0,64.0
3738,72.0,96,96,0.0,64.0
3739,81.0,0,192,0.0,64.0
3740,75.0,96,96,0.0,64.0
3741,74.0,96,96,0.0,64.0
3742,82.0,96,192,0.0,64.0
3743,75.0,0,96,0.0,64.0
3744,53.0,0,192,0.0,64.0
3745,72.0,96,96,0.0,64.0
3746,74.0,96,96,0.0,64.0
3747,58.0,0,192,0.0,64.0
3748,70.0,96,96,0.0,64.0
3749,74.0,96,96,0.0,64.0
3750,72.0,96,96,0.0,64.0
3751,57.0,96,192,0.0,64.0
3752,75.0,0,96,0.0,64.0
3753,74.0,96,96,0.0,64.0
3754,58.0,96,192,0.0,64.0
3755,75.0,0,96,0.0,64.0
3756,41.0,0,192,0.0,64.0
3757,72.0,96,96,0.0,64.0
3758,57.0,0,192,0.0,64.0
3759,74.0,96,96,0.0,64.0
3760,62.0,96,192,0.0,64.0
3761,46.0,0,192,0.0,64.0
3762,70.0,96,96,0.0,64.0
3763,74.0,0,96,0.0,64.0
3764,45.0,96,192,0.0,64.0
3765,72.0,96,96,0.0,64.0
3766,65.0,0,192,0.0,64.0
3767,75.0,0,96,0.0,64.0
3768,74.0,96,96,0.0,64.0
3769,58.0,0,768,0.0,64.0
3770,46.0,96,192,0.0,64.0
3771,77.0,0,96,0.0,64.0
3772,76.0,96,96,0.0,64.0
3773,48.0,0,192,0.0,64.0
3774,79.0,96,96,0.0,64.0
3775,77.0,96,96,0.0,64.0
3776,50.0,96,192,0.0,64.0
3777,80.0,0,96,0.0,64.0
3778,52.0,0,192,0.0,64.0
3779,79.0,96,96,0.0,64.0
3780,82.0,96,96,0.0,64.0
3781,65.0,0,192,0.0,64.0
3782,80.0,96,96,0.0,64.0
3783,84.0,0,1152,0.0,64.0
3784,53.0,0,384,0.0,64.0
3785,82.0,96,96,0.0,64.0
3786,67.0,96,192,0.0,64.0
3787,79.0,96,96,0.0,64.0
3788,80.0,0,96,0.0,64.0
3789,77.0,96,96,0.0,64.0
3790,68.0,0,192,0.0,64.0
3791,79.0,96,96,0.0,64.0
3792,75.0,96,96,0.0,64.0
3793,65.0,96,192,0.0,64.0
3794,77.0,0,96,0.0,64.0
3795,73.0,0,768,0.0,64.0
3796,46.0,96,192,0.0,64.0
3797,70.0,96,96,0.0,64.0
3798,72.0,0,96,0.0,64.0
3799,68.0,96,96,0.0,64.0
3800,48.0,0,192,0.0,64.0
3801,70.0,96,96,0.0,64.0
3802,82.0,0,192,0.0,64.0
3803,49.0,0,192,0.0,64.0
3804,67.0,96,96,0.0,64.0
3805,68.0,96,96,0.0,64.0
3806,80.0,0,192,0.0,64.0
3807,65.0,96,96,0.0,64.0
3808,46.0,0,192,0.0,64.0
3809,67.0,96,96,0.0,64.0
3810,79.0,96,96,0.0,64.0
3811,82.0,96,1152,0.0,64.0
3812,51.0,96,384,0.0,64.0
3813,63.0,96,192,0.0,64.0
3814,80.0,0,96,0.0,64.0
3815,77.0,96,96,0.0,64.0
3816,65.0,0,192,0.0,64.0
3817,79.0,0,96,0.0,64.0
3818,75.0,96,96,0.0,64.0
3819,67.0,96,192,0.0,64.0
3820,77.0,0,96,0.0,64.0
3821,63.0,96,192,0.0,64.0
3822,73.0,96,96,0.0,64.0
3823,75.0,0,96,0.0,64.0
3824,72.0,96,768,0.0,64.0
3825,44.0,0,192,0.0,64.0
3826,68.0,96,96,0.0,64.0
3827,70.0,96,96,0.0,64.0
3828,67.0,96,96,0.0,64.0
3829,46.0,0,192,0.0,64.0
3830,68.0,0,96,0.0,64.0
3831,80.0,0,192,0.0,64.0
3832,48.0,96,192,0.0,64.0
3833,65.0,96,96,0.0,64.0
3834,67.0,0,96,0.0,64.0
3835,79.0,0,192,0.0,64.0
3836,63.0,96,96,0.0,64.0
3837,44.0,0,192,0.0,64.0
3838,65.0,0,96,0.0,64.0
3839,61.0,96,192,0.0,64.0
3840,80.0,0,1152,0.0,64.0
3841,77.0,96,96,0.0,64.0
3842,49.0,0,384,0.0,64.0
3843,79.0,0,96,0.0,64.0
3844,75.0,96,96,0.0,64.0
3845,63.0,96,192,0.0,64.0
3846,77.0,0,96,0.0,64.0
3847,73.0,96,96,0.0,64.0
3848,65.0,96,192,0.0,64.0
3849,75.0,0,96,0.0,64.0
3850,61.0,0,192,0.0,64.0
3851,72.0,96,96,0.0,64.0
3852,73.0,96,96,0.0,64.0
3853,67.0,0,192,0.0,64.0
3854,55.0,96,96,0.0,64.0
3855,71.0,0,384,0.0,64.0
3856,56.0,96,96,0.0,64.0
3857,62.0,96,192,0.0,64.0
3858,53.0,96,96,0.0,64.0
3859,55.0,0,96,0.0,64.0
3860,72.0,0,192,0.0,64.0
3861,51.0,96,96,0.0,64.0
3862,63.0,96,192,0.0,64.0
3863,79.0,0,192,0.0,64.0
3864,53.0,0,96,0.0,64.0
3865,77.0,0,192,0.0,64.0
3866,74.0,0,192,0.0,64.0
3867,59.0,96,192,0.0,64.0
3868,50.0,96,96,0.0,64.0
3869,51.0,0,96,0.0,64.0
3870,48.0,0,384,0.0,64.0
3871,60.0,0,192,0.0,64.0
3872,75.0,96,96,0.0,64.0
3873,67.0,0,384,0.0,64.0
3874,77.0,96,96,0.0,64.0
3875,55.0,96,192,0.0,64.0
3876,74.0,96,96,0.0,64.0
3877,75.0,0,96,0.0,64.0
3878,60.0,0,192,0.0,64.0
3879,72.0,96,96,0.0,64.0
3880,75.0,96,96,0.0,64.0
3881,43.0,0,192,0.0,64.0
3882,59.0,0,192,0.0,64.0
3883,74.0,96,96,0.0,64.0
3884,77.0,0,96,0.0,64.0
3885,48.0,0,384,0.0,64.0
3886,75.0,96,96,0.0,64.0
3887,67.0,96,0,0.0,64.0
3888,60.0,0,384,0.0,64.0
3889,77.0,96,96,0.0,64.0
3890,74.0,96,96,0.0,64.0
3891,67.0,0,0,0.0,64.0
3892,75.0,0,96,0.0,64.0
3893,72.0,96,192,0.0,64.0
3894,75.0,0,96,0.0,64.0
3895,43.0,96,192,0.0,64.0
3896,71.0,0,192,0.0,64.0
3897,74.0,96,96,0.0,64.0
3898,77.0,0,96,0.0,64.0
3899,67.0,0,0,0.0,64.0
3900,75.0,96,96,0.0,64.0
3901,72.0,0,192,0.0,64.0
3902,36.0,0,192,0.0,64.0
3903,77.0,0,96,0.0,64.0
3904,43.0,0,192,0.0,64.0
3905,74.0,96,96,0.0,64.0
3906,71.0,96,192,0.0,64.0
3907,65.0,0,192,0.0,64.0
3908,75.0,0,96,0.0,64.0
3909,48.0,0,192,0.0,64.0
3910,67.0,96,192,0.0,64.0
3911,72.0,96,96,0.0,64.0
3912,63.0,0,192,0.0,64.0
3913,75.0,0,96,0.0,64.0
3914,47.0,96,192,0.0,64.0
3915,74.0,96,96,0.0,64.0
3916,67.0,0,192,0.0,64.0
3917,55.0,0,192,0.0,64.0
3918,77.0,0,96,0.0,64.0
3919,67.0,0,384,0.0,64.0
3920,60.0,0,384,0.0,64.0
3921,48.0,96,192,0.0,64.0
3922,76.0,96,96,0.0,64.0
3923,79.0,0,96,0.0,64.0
3924,78.0,96,96,0.0,64.0
3925,50.0,96,192,0.0,64.0
3926,81.0,0,96,0.0,64.0
3927,52.0,0,192,0.0,64.0
3928,79.0,96,96,0.0,64.0
3929,82.0,96,96,0.0,64.0
3930,62.0,0,192,0.0,64.0
3931,57.0,96,192,0.0,64.0
3932,81.0,96,96,0.0,64.0
3933,54.0,0,192,0.0,64.0
3934,84.0,0,96,0.0,64.0
3935,82.0,96,96,0.0,64.0
3936,55.0,96,192,0.0,64.0
3937,62.0,0,192,0.0,64.0
3938,84.0,0,96,0.0,64.0
3939,81.0,96,96,0.0,64.0
3940,62.0,96,192,0.0,64.0
3941,82.0,0,96,0.0,64.0
3942,79.0,96,96,0.0,64.0
3943,67.0,0,192,0.0,64.0
3944,82.0,96,96,0.0,64.0
3945,50.0,0,192,0.0,64.0
3946,81.0,96,96,0.0,64.0
3947,66.0,96,192,0.0,64.0
3948,74.0,0,192,0.0,64.0
3949,84.0,0,96,0.0,64.0
3950,55.0,0,384,0.0,64.0
3951,67.0,0,384,0.0,64.0
3952,82.0,96,96,0.0,64.0
3953,84.0,0,96,0.0,64.0
3954,74.0,96,0,0.0,64.0
3955,81.0,96,96,0.0,64.0
3956,82.0,96,96,0.0,64.0
3957,79.0,96,96,0.0,64.0
3958,82.0,0,96,0.0,64.0
3959,78.0,0,192,0.0,64.0
3960,81.0,96,96,0.0,64.0
3961,50.0,96,192,0.0,64.0
3962,84.0,0,96,0.0,64.0
3963,43.0,0,192,0.0,64.0
3964,74.0,0,0,0.0,64.0
3965,82.0,96,96,0.0,64.0
3966,79.0,0,192,0.0,64.0
3967,84.0,0,96,0.0,64.0
3968,50.0,96,192,0.0,64.0
3969,78.0,0,192,0.0,64.0
3970,72.0,0,192,0.0,64.0
3971,81.0,96,96,0.0,64.0
3972,82.0,0,96,0.0,64.0
3973,55.0,0,192,0.0,64.0
3974,74.0,96,192,0.0,64.0
3975,70.0,0,192,0.0,64.0
3976,79.0,96,96,0.0,64.0
3977,82.0,0,96,0.0,64.0
3978,54.0,0,192,0.0,64.0
3979,81.0,96,96,0.0,64.0
3980,74.0,96,192,0.0,64.0
3981,62.0,0,192,0.0,64.0
3982,84.0,0,96,0.0,64.0
3983,82.0,96,96,0.0,64.0
3984,55.0,0,192,0.0,64.0
3985,74.0,0,384,0.0,64.0
3986,67.0,96,384,0.0,64.0
3987,84.0,96,96,0.0,64.0
3988,57.0,0,192,0.0,64.0
3989,82.0,96,96,0.0,64.0
3990,81.0,0,96,0.0,64.0
3991,79.0,96,96,0.0,64.0
3992,58.0,96,192,0.0,64.0
3993,82.0,0,96,0.0,64.0
3994,81.0,0,96,0.0,64.0
3995,60.0,0,192,0.0,64.0
3996,75.0,0,192,0.0,64.0
3997,72.0,96,96,0.0,64.0
3998,79.0,96,96,0.0,64.0
3999,70.0,0,96,0.0,64.0
4000,69.0,96,96,0.0,64.0
4001,78.0,0,192,0.0,64.0
4002,62.0,0,192,0.0,64.0
4003,67.0,0,96,0.0,64.0
4004,74.0,96,0,0.0,64.0
4005,50.0,0,192,0.0,64.0
4006,69.0,96,192,0.0,64.0
4007,66.0,96,96,0.0,64.0
4008,64.0,0,96,0.0,64.0
4009,62.0,96,96,0.0,64.0
4010,60.0,96,96,0.0,64.0
4011,74.0,0,192,0.0,64.0
4012,58.0,96,96,0.0,64.0
4013,57.0,96,96,0.0,64.0
4014,55.0,0,96,0.0,64.0
4015,70.0,96,96,0.0,64.0
4016,72.0,96,96,0.0,64.0
4017,53.0,0,96,0.0,64.0
4018,51.0,0,96,0.0,64.0
4019,69.0,96,96,0.0,64.0
4020,50.0,0,96,0.0,64.0
4021,70.0,96,96,0.0,64.0
4022,67.0,96,192,0.0,64.0
4023,48.0,96,96,0.0,64.0
4024,46.0,0,96,0.0,64.0
4025,45.0,96,96,0.0,64.0
4026,79.0,96,192,0.0,64.0
4027,43.0,0,96,0.0,64.0
4028,50.0,96,192,0.0,64.0
4029,78.0,96,96,0.0,64.0
4030,79.0,0,96,0.0,64.0
4031,76.0,96,96,0.0,64.0
4032,38.0,0,192,0.0,64.0
4033,78.0,192,96,0.0,64.0
4034,74.0,0,192,0.0,64.0
4035,55.0,96,96,0.0,64.0
4036,79.0,96,96,0.0,64.0
4037,57.0,0,96,0.0,64.0
4038,74.0,0,96,0.0,64.0
4039,58.0,96,96,0.0,64.0
4040,48.0,96,96,0.0,64.0
4041,75.0,96,192,0.0,64.0
4042,51.0,0,96,0.0,64.0
4043,72.0,96,192,0.0,64.0
4044,55.0,96,96,0.0,64.0
4045,58.0,0,96,0.0,64.0
4046,57.0,96,96,0.0,64.0
4047,65.0,96,192,0.0,64.0
4048,60.0,0,96,0.0,64.0
4049,77.0,96,192,0.0,64.0
4050,53.0,96,96,0.0,64.0
4051,57.0,0,96,0.0,64.0
4052,74.0,0,96,0.0,64.0
4053,46.0,96,96,0.0,64.0
4054,75.0,96,96,0.0,64.0
4055,50.0,0,96,0.0,64.0
4056,72.0,0,96,0.0,64.0
4057,53.0,96,96,0.0,64.0
4058,74.0,0,96,0.0,64.0
4059,57.0,96,96,0.0,64.0
4060,70.0,96,192,0.0,64.0
4061,55.0,96,96,0.0,64.0
4062,58.0,0,96,0.0,64.0
4063,51.0,96,96,0.0,64.0
4064,75.0,0,96,0.0,64.0
4065,70.0,96,96,0.0,64.0
4066,55.0,0,96,0.0,64.0
4067,72.0,0,192,0.0,64.0
4068,45.0,96,96,0.0,64.0
4069,48.0,96,96,0.0,64.0
4070,51.0,96,96,0.0,64.0
4071,69.0,96,192,0.0,64.0
4072,55.0,0,96,0.0,64.0
4073,54.0,96,96,0.0,64.0
4074,62.0,0,192,0.0,64.0
4075,57.0,96,96,0.0,64.0
4076,74.0,0,192,0.0,64.0
4077,50.0,96,96,0.0,64.0
4078,54.0,96,96,0.0,64.0
4079,70.0,96,96,0.0,64.0
4080,43.0,0,192,0.0,64.0
4081,72.0,96,96,0.0,64.0
4082,45.0,96,192,0.0,64.0
4083,69.0,96,96,0.0,64.0
4084,70.0,0,96,0.0,64.0
4085,67.0,96,96,0.0,64.0
4086,46.0,96,192,0.0,64.0
4087,70.0,0,96,0.0,64.0
4088,69.0,96,96,0.0,64.0
4089,43.0,0,192,0.0,64.0
4090,67.0,96,96,0.0,64.0
4091,50.0,0,192,0.0,64.0
4092,66.0,96,96,0.0,64.0
4093,67.0,96,96,0.0,64.0
4094,64.0,96,96,0.0,64.0
4095,52.0,0,192,0.0,64.0
4096,66.0,96,96,0.0,64.0
4097,54.0,0,192,0.0,64.0
4098,62.0,96,96,0.0,64.0
4099,66.0,96,96,0.0,64.0
4100,50.0,96,192,0.0,64.0
4101,69.0,96,96,0.0,64.0
4102,72.0,0,96,0.0,64.0
4103,55.0,96,192,0.0,64.0
4104,70.0,96,96,0.0,64.0
4105,72.0,0,96,0.0,64.0
4106,57.0,0,192,0.0,64.0
4107,69.0,96,96,0.0,64.0
4108,70.0,96,96,0.0,64.0
4109,58.0,96,192,0.0,64.0
4110,67.0,96,96,0.0,64.0
4111,70.0,0,96,0.0,64.0
4112,55.0,96,192,0.0,64.0
4113,74.0,96,96,0.0,64.0
4114,77.0,0,96,0.0,64.0
4115,60.0,96,192,0.0,64.0
4116,75.0,96,96,0.0,64.0
4117,77.0,0,96,0.0,64.0
4118,74.0,96,96,0.0,64.0
4119,62.0,0,192,0.0,64.0
4120,75.0,96,96,0.0,64.0
4121,63.0,96,192,0.0,64.0
4122,72.0,96,96,0.0,64.0
4123,74.0,0,96,0.0,64.0
4124,60.0,0,192,0.0,64.0
4125,70.0,96,96,0.0,64.0
4126,72.0,96,96,0.0,64.0
4127,53.0,0,192,0.0,64.0
4128,69.0,96,96,0.0,64.0
4129,70.0,96,96,0.0,64.0
4130,67.0,96,96,0.0,64.0
4131,55.0,96,192,0.0,64.0
4132,69.0,0,96,0.0,64.0
4133,65.0,96,96,0.0,64.0
4134,57.0,96,192,0.0,64.0
4135,69.0,0,96,0.0,64.0
4136,53.0,96,192,0.0,64.0
4137,72.0,96,96,0.0,64.0
4138,75.0,0,96,0.0,64.0
4139,58.0,96,192,0.0,64.0
4140,74.0,96,96,0.0,64.0
4141,75.0,0,96,0.0,64.0
4142,72.0,96,96,0.0,64.0
4143,60.0,96,192,0.0,64.0
4144,74.0,0,96,0.0,64.0
4145,70.0,96,96,0.0,64.0
4146,62.0,96,192,0.0,64.0
4147,72.0,0,96,0.0,64.0
4148,69.0,96,96,0.0,64.0
4149,58.0,0,192,0.0,64.0
4150,70.0,96,96,0.0,64.0
4151,63.0,0,96,0.0,64.0
4152,67.0,96,96,0.0,64.0
4153,69.0,0,96,0.0,64.0
4154,65.0,96,0,0.0,64.0
4155,62.0,0,96,0.0,64.0
4156,67.0,96,96,0.0,64.0
4157,63.0,0,96,0.0,64.0
4158,60.0,96,96,0.0,64.0
4159,63.0,0,96,0.0,64.0
4160,62.0,0,96,0.0,64.0
4161,67.0,96,96,0.0,64.0
4162,58.0,96,96,0.0,64.0
4163,70.0,0,96,0.0,64.0
4164,74.0,96,96,0.0,64.0
4165,60.0,0,96,0.0,64.0
4166,57.0,0,96,0.0,64.0
4167,72.0,96,96,0.0,64.0
4168,58.0,96,96,0.0,64.0
4169,74.0,0,96,0.0,64.0
4170,70.0,0,96,0.0,64.0
4171,55.0,96,96,0.0,64.0
4172,57.0,96,96,0.0,64.0
4173,72.0,0,96,0.0,64.0
4174,69.0,0,96,0.0,64.0
4175,54.0,96,96,0.0,64.0
4176,55.0,96,96,0.0,64.0
4177,70.0,0,96,0.0,64.0
4178,52.0,96,96,0.0,64.0
4179,67.0,0,96,0.0,64.0
4180,69.0,96,96,0.0,64.0
4181,54.0,0,96,0.0,64.0
4182,50.0,96,96,0.0,64.0
4183,66.0,0,96,0.0,64.0
4184,67.0,96,96,0.0,64.0
4185,51.0,0,96,0.0,64.0
4186,48.0,96,96,0.0,64.0
4187,64.0,0,96,0.0,64.0
4188,50.0,0,96,0.0,64.0
4189,66.0,96,96,0.0,64.0
4190,46.0,0,96,0.0,64.0
4191,62.0,96,96,0.0,64.0
4192,66.0,96,96,0.0,64.0
4193,48.0,0,96,0.0,64.0
4194,69.0,0,96,0.0,64.0
4195,45.0,96,96,0.0,64.0
4196,48.0,0,96,0.0,64.0
4197,74.0,96,96,0.0,64.0
4198,67.0,96,96,0.0,64.0
4199,46.0,0,96,0.0,64.0
4200,70.0,0,96,0.0,64.0
4201,48.0,96,96,0.0,64.0
4202,74.0,0,96,0.0,64.0
4203,45.0,96,96,0.0,64.0
4204,46.0,96,96,0.0,64.0
4205,79.0,0,96,0.0,64.0
4206,70.0,96,96,0.0,64.0
4207,43.0,96,192,0.0,64.0
4208,74.0,0,96,0.0,64.0
4209,67.0,96,96,0.0,64.0
4210,55.0,0,192,0.0,64.0
4211,70.0,96,96,0.0,64.0
4212,54.0,96,96,0.0,64.0
4213,62.0,0,96,0.0,64.0
4214,55.0,0,96,0.0,64.0
4215,66.0,96,96,0.0,64.0
4216,69.0,96,96,0.0,64.0
4217,52.0,0,96,0.0,64.0
4218,72.0,0,96,0.0,64.0
4219,54.0,96,96,0.0,64.0
4220,70.0,96,96,0.0,64.0
4221,50.0,0,192,0.0,64.0
4222,74.0,96,96,0.0,64.0
4223,55.0,0,96,0.0,64.0
4224,67.0,96,96,0.0,64.0
4225,50.0,0,96,0.0,64.0
4226,70.0,96,96,0.0,64.0
4227,51.0,96,192,0.0,64.0
4228,60.0,96,96,0.0,64.0
4229,63.0,0,96,0.0,64.0
4230,67.0,96,96,0.0,64.0
4231,48.0,0,192,0.0,64.0
4232,70.0,96,96,0.0,64.0
4233,41.0,96,192,0.0,64.0
4234,69.0,96,96,0.0,64.0
4235,72.0,0,96,0.0,64.0
4236,53.0,96,192,0.0,64.0
4237,65.0,96,96,0.0,64.0
4238,69.0,0,96,0.0,64.0
4239,58.0,0,96,0.0,64.0
4240,50.0,96,96,0.0,64.0
4241,62.0,0,96,0.0,64.0
4242,51.0,96,96,0.0,64.0
4243,65.0,96,96,0.0,64.0
4244,48.0,0,96,0.0,64.0
4245,50.0,96,96,0.0,64.0
4246,69.0,0,96,0.0,64.0
4247,46.0,0,192,0.0,64.0
4248,67.0,96,96,0.0,64.0
4249,70.0,96,96,0.0,64.0
4250,63.0,96,96,0.0,64.0
4251,51.0,0,96,0.0,64.0
4252,46.0,96,96,0.0,64.0
4253,67.0,0,96,0.0,64.0
4254,57.0,96,96,0.0,64.0
4255,48.0,96,192,0.0,64.0
4256,60.0,0,96,0.0,64.0
4257,64.0,96,96,0.0,64.0
4258,45.0,0,192,0.0,64.0
4259,67.0,96,96,0.0,64.0
4260,38.0,0,192,0.0,64.0
4261,66.0,96,96,0.0,64.0
4262,69.0,192,96,0.0,64.0
4263,50.0,0,192,0.0,64.0
4264,62.0,0,192,0.0,64.0
4265,66.0,96,96,0.0,64.0
4266,55.0,96,192,0.0,64.0
4267,58.0,96,96,0.0,64.0
4268,67.0,0,192,0.0,64.0
4269,60.0,0,96,0.0,64.0
4270,53.0,96,192,0.0,64.0
4271,57.0,96,96,0.0,64.0
4272,69.0,0,192,0.0,64.0
4273,58.0,0,96,0.0,64.0
4274,51.0,0,384,0.0,64.0
4275,70.0,96,96,0.0,64.0
4276,55.0,96,192,0.0,64.0
4277,72.0,0,96,0.0,64.0
4278,70.0,96,96,0.0,64.0
4279,67.0,96,192,0.0,64.0
4280,72.0,0,96,0.0,64.0
4281,66.0,96,96,0.0,64.0
4282,50.0,192,384,0.0,64.0
4283,74.0,0,384,0.0,64.0
4284,67.0,96,96,0.0,64.0
4285,64.0,96,96,0.0,64.0
4286,66.0,0,96,0.0,64.0
4287,62.0,96,192,0.0,64.0
4288,58.0,96,768,0.0,64.0
4289,70.0,0,192,0.0,64.0
4290,67.0,96,96,0.0,64.0
4291,62.0,96,96,0.0,64.0
4292,72.0,96,96,0.0,64.0
4293,63.0,0,192,0.0,64.0
4294,74.0,192,96,0.0,64.0
4295,60.0,0,192,0.0,64.0
4296,75.0,96,288,0.0,64.0
4297,57.0,96,768,0.0,64.0
4298,53.0,0,192,0.0,64.0
4299,75.0,96,96,0.0,64.0
4300,65.0,96,192,0.0,64.0
4301,74.0,96,96,0.0,64.0
4302,72.0,0,96,0.0,64.0
4303,70.0,96,96,0.0,64.0
4304,62.0,0,96,0.0,64.0
4305,72.0,0,96,0.0,64.0
4306,63.0,96,96,0.0,64.0
4307,60.0,96,96,0.0,64.0
4308,62.0,0,96,0.0,64.0
4309,55.0,0,768,0.0,64.0
4310,58.0,0,192,0.0,64.0
4311,74.0,96,0,0.0,64.0
4312,72.0,0,96,0.0,64.0
4313,63.0,96,96,0.0,64.0
4314,58.0,96,96,0.0,64.0
4315,70.0,0,96,0.0,64.0
4316,60.0,192,192,0.0,64.0
4317,69.0,96,96,0.0,64.0
4318,70.0,0,96,0.0,64.0
4319,57.0,96,192,0.0,64.0
4320,54.0,0,384,0.0,64.0
4321,50.0,0,192,0.0,64.0
4322,72.0,96,0,0.0,64.0
4323,62.0,96,96,0.0,64.0
4324,70.0,0,96,0.0,64.0
4325,60.0,96,96,0.0,64.0
4326,69.0,0,96,0.0,64.0
4327,67.0,96,192,0.0,64.0
4328,58.0,96,96,0.0,64.0
4329,60.0,0,96,0.0,64.0
4330,69.0,0,192,0.0,64.0
4331,58.0,96,96,0.0,64.0
4332,57.0,0,96,0.0,64.0
4333,70.0,96,192,0.0,64.0
4334,55.0,96,0,0.0,64.0
4335,58.0,0,96,0.0,64.0
4336,72.0,96,192,0.0,64.0
4337,57.0,96,96,0.0,64.0
4338,55.0,0,96,0.0,64.0
4339,54.0,96,96,0.0,64.0
4340,74.0,0,864,0.0,64.0
4341,55.0,96,96,0.0,64.0
4342,54.0,96,96,0.0,64.0
4343,52.0,96,96,0.0,64.0
4344,50.0,96,96,0.0,64.0
4345,62.0,96,96,0.0,64.0
4346,60.0,96,96,0.0,64.0
4347,62.0,96,96,0.0,64.0
4348,67.0,96,864,0.0,64.0
4349,58.0,96,96,0.0,64.0
4350,75.0,96,96,0.0,64.0
4351,60.0,0,96,0.0,64.0
4352,57.0,0,96,0.0,64.0
4353,72.0,96,96,0.0,64.0
4354,74.0,96,96,0.0,64.0
4355,58.0,0,96,0.0,64.0
4356,70.0,0,96,0.0,64.0
4357,55.0,96,96,0.0,64.0
4358,57.0,0,96,0.0,64.0
4359,72.0,96,96,0.0,64.0
4360,53.0,0,96,0.0,64.0
4361,74.0,96,96,0.0,64.0
4362,75.0,0,96,0.0,64.0
4363,55.0,96,96,0.0,64.0
4364,72.0,96,864,0.0,64.0
4365,51.0,0,96,0.0,64.0
4366,53.0,0,96,0.0,64.0
4367,69.0,96,96,0.0,64.0
4368,50.0,0,96,0.0,64.0
4369,65.0,96,96,0.0,64.0
4370,51.0,0,96,0.0,64.0
4371,67.0,96,96,0.0,64.0
4372,48.0,96,96,0.0,64.0
4373,63.0,0,96,0.0,64.0
4374,60.0,96,96,0.0,64.0
4375,65.0,0,96,0.0,64.0
4376,67.0,96,96,0.0,64.0
4377,58.0,0,96,0.0,64.0
4378,60.0,0,96,0.0,64.0
4379,69.0,96,96,0.0,64.0
4380,65.0,0,864,0.0,64.0
4381,57.0,0,96,0.0,64.0
4382,58.0,0,96,0.0,64.0
4383,74.0,96,96,0.0,64.0
4384,55.0,0,96,0.0,64.0
4385,70.0,96,96,0.0,64.0
4386,57.0,0,96,0.0,64.0
4387,72.0,96,96,0.0,64.0
4388,69.0,0,96,0.0,64.0
4389,53.0,96,96,0.0,64.0
4390,70.0,0,96,0.0,64.0
4391,55.0,96,96,0.0,64.0
4392,51.0,96,96,0.0,64.0
4393,72.0,0,96,0.0,64.0
4394,53.0,96,96,0.0,64.0
4395,74.0,0,96,0.0,64.0
4396,70.0,0,864,0.0,64.0
4397,50.0,96,96,0.0,64.0
4398,67.0,96,96,0.0,64.0
4399,51.0,0,96,0.0,64.0
4400,48.0,96,96,0.0,64.0
4401,63.0,0,96,0.0,64.0
4402,65.0,0,96,0.0,64.0
4403,50.0,96,96,0.0,64.0
4404,46.0,96,96,0.0,64.0
4405,62.0,0,96,0.0,64.0
4406,64.0,96,96,0.0,64.0
4407,58.0,0,96,0.0,64.0
4408,57.0,0,96,0.0,64.0
4409,66.0,96,96,0.0,64.0
4410,58.0,96,96,0.0,64.0
4411,67.0,0,96,0.0,64.0
4412,61.0,0,768,0.0,64.0
4413,55.0,96,96,0.0,64.0
4414,72.0,0,96,0.0,64.0
4415,57.0,96,96,0.0,64.0
4416,69.0,0,96,0.0,64.0
4417,54.0,96,96,0.0,64.0
4418,70.0,0,96,0.0,64.0
4419,55.0,96,96,0.0,64.0
4420,52.0,0,192,0.0,64.0
4421,67.0,96,96,0.0,64.0
4422,70.0,96,96,0.0,64.0
4423,69.0,96,96,0.0,64.0
4424,57.0,0,192,0.0,64.0
4425,67.0,96,96,0.0,64.0
4426,50.0,0,384,0.0,64.0
4427,62.0,96,192,0.0,64.0
4428,66.0,96,96,0.0,64.0
4429,67.0,0,96,0.0,64.0
4430,60.0,96,192,0.0,64.0
4431,64.0,96,96,0.0,64.0
4432,66.0,0,96,0.0,64.0
4433,67.0,96,96,0.0,64.0
4434,52.0,96,192,0.0,64.0
4435,58.0,0,192,0.0,64.0
4436,70.0,0,96,0.0,64.0
4437,69.0,96,96,0.0,64.0
4438,54.0,0,192,0.0,64.0
4439,62.0,96,288,0.0,64.0
4440,72.0,96,96,0.0,64.0
4441,70.0,0,96,0.0,64.0
4442,55.0,96,192,0.0,64.0
4443,69.0,0,96,0.0,64.0
4444,60.0,0,96,0.0,64.0
4445,58.0,0,96,0.0,64.0
4446,67.0,96,96,0.0,64.0
4447,48.0,0,192,0.0,64.0
4448,69.0,0,96,0.0,64.0
4449,60.0,48,96,0.0,64.0
4450,57.0,96,288,0.0,64.0
4451,66.0,48,48,0.0,64.0
4452,67.0,192,48,0.0,64.0
4453,66.0,0,192,0.0,64.0
4454,50.0,0,192,0.0,64.0
4455,67.0,0,96,0.0,64.0
4456,55.0,0,0,0.0,64.0
4457,67.0,0,192,0.0,64.0
4458,50.0,96,0,0.0,64.0
4459,46.0,96,96,0.0,64.0
4460,48.0,0,96,0.0,64.0
4461,45.0,96,96,0.0,64.0
4462,46.0,192,96,0.0,64.0
4463,43.0,192,192,0.0,64.0
4464,67.0,96,192,0.0,64.0
4465,55.0,0,192,0.0,64.0
4466,75.0,0,192,0.0,64.0
4467,70.0,0,192,0.0,64.0
4468,54.0,96,96,0.0,64.0
4469,62.0,0,384,0.0,64.0
4470,74.0,0,384,0.0,64.0
4471,69.0,192,384,0.0,64.0
4472,55.0,96,96,0.0,64.0
4473,52.0,96,96,0.0,64.0
4474,54.0,0,96,0.0,64.0
4475,50.0,96,192,0.0,64.0
4476,74.0,0,192,0.0,64.0
4477,55.0,96,96,0.0,64.0
4478,62.0,0,192,0.0,64.0
4479,50.0,96,96,0.0,64.0
4480,79.0,96,96,0.0,64.0
4481,70.0,0,0,0.0,64.0
4482,51.0,96,192,0.0,64.0
4483,60.0,0,768,0.0,64.0
4484,77.0,0,96,0.0,64.0
4485,75.0,96,96,0.0,64.0
4486,48.0,96,192,0.0,64.0
4487,74.0,0,96,0.0,64.0
4488,41.0,0,192,0.0,64.0
4489,72.0,96,192,0.0,64.0
4490,70.0,0,96,0.0,64.0
4491,53.0,0,192,0.0,64.0
4492,69.0,0,96,0.0,64.0
4493,74.0,96,96,0.0,64.0
4494,67.0,96,96,0.0,64.0
4495,75.0,0,96,0.0,64.0
4496,58.0,96,768,0.0,64.0
4497,50.0,0,96,0.0,64.0
4498,77.0,96,96,0.0,64.0
4499,79.0,0,96,0.0,64.0
4500,51.0,96,96,0.0,64.0
4501,48.0,0,96,0.0,64.0
4502,75.0,96,96,0.0,64.0
4503,77.0,96,96,0.0,64.0
4504,50.0,0,96,0.0,64.0
4505,46.0,0,192,0.0,64.0
4506,74.0,0,192,0.0,64.0
4507,69.0,96,0,0.0,64.0
4508,51.0,96,96,0.0,64.0
4509,70.0,0,192,0.0,64.0
4510,67.0,0,96,0.0,64.0
4511,66.0,0,96,0.0,64.0
4512,46.0,0,96,0.0,64.0
4513,75.0,96,96,0.0,64.0
4514,57.0,96,768,0.0,64.0
4515,48.0,96,192,0.0,64.0
4516,74.0,0,96,0.0,64.0
4517,72.0,96,96,0.0,64.0
4518,45.0,96,192,0.0,64.0
4519,70.0,0,96,0.0,64.0
4520,69.0,0,192,0.0,64.0
4521,38.0,0,192,0.0,64.0
4522,67.0,96,0,0.0,64.0
4523,50.0,0,192,0.0,64.0
4524,66.0,0,96,0.0,64.0
4525,70.0,96,96,0.0,64.0
4526,72.0,0,96,0.0,64.0
4527,64.0,0,96,0.0,64.0
4528,62.0,0,192,0.0,64.0
4529,46.0,0,96,0.0,64.0
4530,58.0,0,192,0.0,64.0
4531,74.0,96,96,0.0,64.0
4532,48.0,0,96,0.0,64.0
4533,75.0,96,96,0.0,64.0
4534,60.0,0,192,0.0,64.0
4535,45.0,96,96,0.0,64.0
4536,72.0,0,96,0.0,64.0
4537,66.0,0,192,0.0,64.0
4538,74.0,0,96,0.0,64.0
4539,46.0,96,96,0.0,64.0
4540,62.0,0,192,0.0,64.0
4541,43.0,96,96,0.0,64.0
4542,67.0,96,192,0.0,64.0
4543,70.0,0,192,0.0,64.0
4544,46.0,0,96,0.0,64.0
4545,63.0,0,192,0.0,64.0
4546,78.0,0,192,0.0,64.0
4547,45.0,96,96,0.0,64.0
4548,60.0,96,192,0.0,64.0
4549,48.0,0,96,0.0,64.0
4550,46.0,96,96,0.0,64.0
4551,62.0,96,192,0.0,64.0
4552,79.0,0,192,0.0,64.0
4553,55.0,0,192,0.0,64.0
4554,48.0,0,96,0.0,64.0
4555,45.0,96,96,0.0,64.0
4556,66.0,0,192,0.0,64.0
4557,57.0,96,192,0.0,64.0
4558,72.0,0,192,0.0,64.0
4559,46.0,0,96,0.0,64.0
4560,62.0,0,192,0.0,64.0
4561,70.0,96,192,0.0,64.0
4562,67.0,0,192,0.0,64.0
4563,43.0,96,96,0.0,64.0
4564,46.0,0,96,0.0,64.0
4565,78.0,0,192,0.0,64.0
4566,63.0,96,192,0.0,64.0
4567,45.0,96,96,0.0,64.0
4568,60.0,0,192,0.0,64.0
4569,48.0,0,96,0.0,64.0
4570,79.0,0,192,0.0,64.0
4571,62.0,0,192,0.0,64.0
4572,55.0,0,192,0.0,64.0
4573,46.0,96,96,0.0,64.0
4574,48.0,96,96,0.0,64.0
4575,57.0,96,192,0.0,64.0
4576,72.0,0,192,0.0,64.0
4577,66.0,0,192,0.0,64.0
4578,45.0,96,96,0.0,64.0
4579,46.0,0,96,0.0,64.0
4580,67.0,0,192,0.0,64.0
4581,70.0,0,192,0.0,64.0
4582,43.0,96,96,0.0,64.0
4583,62.0,96,192,0.0,64.0
4584,46.0,0,96,0.0,64.0
4585,45.0,96,96,0.0,64.0
4586,78.0,0,192,0.0,64.0
4587,60.0,0,192,0.0,64.0
4588,63.0,0,192,0.0,64.0
4589,48.0,96,96,0.0,64.0
4590,79.0,0,192,0.0,64.0
4591,62.0,0,192,0.0,64.0
4592,55.0,96,192,0.0,64.0
4593,46.0,96,96,0.0,64.0
4594,50.0,0,96,0.0,64.0
4595,81.0,0,192,0.0,64.0
4596,72.0,192,192,0.0,64.0
4597,48.0,96,96,0.0,64.0
4598,60.0,0,192,0.0,64.0
4599,63.0,0,192,0.0,64.0
4600,51.0,0,96,0.0,64.0
4601,50.0,192,192,0.0,64.0
4602,70.0,0,192,0.0,64.0
4603,74.0,0,192,0.0,64.0
4604,62.0,0,192,0.0,64.0
4605,58.0,0,192,0.0,64.0
4606,72.0,0,192,0.0,64.0
4607,74.0,0,192,0.0,64.0
4608,38.0,0,192,0.0,64.0
4609,69.0,0,192,0.0,64.0
4610,57.0,0,192,0.0,64.0
4611,78.0,576,192,0.0,64.0
4612,62.0,0,0,0.0,64.0
4613,67.0,0,576,0.0,64.0
4614,71.0,0,576,0.0,64.0
4615,74.0,0,576,0.0,64.0
4616,43.0,0,576,0.0,64.0
4617,55.0,0,576,0.0,64.0
4618,79.0,0,576,0.0,64.0
