,note,step,duration,channel,velocity
0,48.0,120,480,0.0,64.0
1,72.0,120,120,0.0,64.0
2,71.0,120,120,0.0,64.0
3,72.0,0,120,0.0,64.0
4,76.0,120,120,0.0,64.0
5,72.0,120,120,0.0,64.0
6,71.0,120,120,0.0,64.0
7,72.0,120,120,0.0,64.0
8,67.0,120,120,0.0,64.0
9,72.0,120,120,0.0,64.0
10,64.0,120,120,0.0,64.0
11,67.0,240,120,0.0,64.0
12,60.0,240,240,0.0,64.0
13,64.0,0,240,0.0,64.0
14,79.0,0,240,0.0,64.0
15,76.0,0,240,0.0,64.0
16,60.0,240,0,0.0,64.0
17,48.0,240,240,0.0,64.0
18,79.0,0,240,0.0,64.0
19,60.0,0,240,0.0,64.0
20,64.0,240,240,0.0,64.0
21,81.0,0,240,0.0,64.0
22,48.0,0,240,0.0,64.0
23,65.0,120,240,0.0,64.0
24,60.0,0,240,0.0,64.0
25,64.0,0,120,0.0,64.0
26,79.0,120,120,0.0,64.0
27,62.0,120,120,0.0,64.0
28,77.0,0,120,0.0,64.0
29,48.0,0,480,0.0,64.0
30,64.0,120,120,0.0,64.0
31,79.0,0,480,0.0,64.0
32,60.0,120,120,0.0,64.0
33,59.0,120,120,0.0,64.0
34,60.0,120,120,0.0,64.0
35,64.0,120,120,0.0,64.0
36,60.0,120,120,0.0,64.0
37,59.0,120,120,0.0,64.0
38,60.0,120,120,0.0,64.0
39,55.0,120,120,0.0,64.0
40,60.0,120,120,0.0,64.0
41,52.0,120,120,0.0,64.0
42,55.0,240,120,0.0,64.0
43,76.0,0,240,0.0,64.0
44,48.0,240,0,0.0,64.0
45,67.0,240,240,0.0,64.0
46,36.0,240,240,0.0,64.0
47,64.0,0,240,0.0,64.0
48,72.0,0,240,0.0,64.0
49,67.0,0,240,0.0,64.0
50,48.0,0,240,0.0,64.0
51,76.0,240,240,0.0,64.0
52,36.0,0,240,0.0,64.0
53,69.0,0,240,0.0,64.0
54,77.0,120,240,0.0,64.0
55,48.0,0,240,0.0,64.0
56,67.0,0,120,0.0,64.0
57,76.0,120,120,0.0,64.0
58,74.0,120,120,0.0,64.0
59,65.0,0,120,0.0,64.0
60,67.0,120,120,0.0,64.0
61,36.0,0,480,0.0,64.0
62,76.0,0,240,0.0,64.0
63,64.0,120,120,0.0,64.0
64,79.0,120,240,0.0,64.0
65,60.0,120,120,0.0,64.0
66,64.0,0,120,0.0,64.0
67,69.0,120,120,0.0,64.0
68,48.0,0,480,0.0,64.0
69,72.0,0,240,0.0,64.0
70,64.0,120,120,0.0,64.0
71,76.0,120,240,0.0,64.0
72,60.0,120,120,0.0,64.0
73,64.0,0,120,0.0,64.0
74,69.0,120,120,0.0,64.0
75,72.0,120,120,0.0,64.0
76,36.0,0,240,0.0,64.0
77,74.0,120,120,0.0,64.0
78,76.0,120,120,0.0,64.0
79,77.0,120,240,0.0,64.0
80,38.0,120,480,0.0,64.0
81,65.0,0,120,0.0,64.0
82,81.0,0,240,0.0,64.0
83,62.0,120,120,0.0,64.0
84,65.0,0,120,0.0,64.0
85,71.0,120,120,0.0,64.0
86,74.0,0,240,0.0,64.0
87,50.0,0,480,0.0,64.0
88,65.0,120,120,0.0,64.0
89,77.0,120,240,0.0,64.0
90,62.0,120,120,0.0,64.0
91,65.0,0,120,0.0,64.0
92,71.0,120,120,0.0,64.0
93,74.0,120,120,0.0,64.0
94,76.0,120,120,0.0,64.0
95,77.0,120,120,0.0,64.0
96,40.0,0,480,0.0,64.0
97,79.0,0,240,0.0,64.0
98,67.0,120,120,0.0,64.0
99,84.0,0,120,0.0,64.0
100,64.0,120,120,0.0,64.0
101,79.0,120,120,0.0,64.0
102,67.0,0,120,0.0,64.0
103,72.0,120,120,0.0,64.0
104,52.0,0,480,0.0,64.0
105,76.0,0,240,0.0,64.0
106,67.0,120,120,0.0,64.0
107,79.0,0,120,0.0,64.0
108,64.0,120,120,0.0,64.0
109,67.0,0,120,0.0,64.0
110,76.0,120,0,0.0,64.0
111,72.0,120,120,0.0,64.0
112,76.0,120,120,0.0,64.0
113,77.0,120,120,0.0,64.0
114,79.0,120,120,0.0,64.0
115,41.0,0,480,0.0,64.0
116,81.0,120,120,0.0,64.0
117,79.0,120,120,0.0,64.0
118,74.0,120,120,0.0,64.0
119,81.0,0,120,0.0,64.0
120,72.0,0,120,0.0,64.0
121,82.0,120,120,0.0,64.0
122,81.0,120,120,0.0,64.0
123,74.0,120,240,0.0,64.0
124,53.0,0,480,0.0,64.0
125,79.0,0,120,0.0,64.0
126,69.0,120,240,0.0,64.0
127,77.0,120,120,0.0,64.0
128,76.0,0,120,0.0,64.0
129,74.0,120,120,0.0,64.0
130,77.0,120,720,0.0,64.0
131,72.0,120,120,0.0,64.0
132,71.0,120,120,0.0,64.0
133,69.0,120,120,0.0,64.0
134,71.0,120,120,0.0,64.0
135,55.0,120,480,0.0,64.0
136,72.0,0,120,0.0,64.0
137,74.0,0,240,0.0,64.0
138,71.0,120,120,0.0,64.0
139,67.0,0,120,0.0,64.0
140,71.0,120,240,0.0,64.0
141,74.0,120,120,0.0,64.0
142,43.0,120,4080,0.0,64.0
143,76.0,0,120,0.0,64.0
144,74.0,120,120,0.0,64.0
145,71.0,120,120,0.0,64.0
146,67.0,0,240,0.0,64.0
147,77.0,120,120,0.0,64.0
148,79.0,120,120,0.0,64.0
149,71.0,120,240,0.0,64.0
150,77.0,120,120,0.0,64.0
151,74.0,0,120,0.0,64.0
152,75.0,0,240,0.0,64.0
153,72.0,120,120,0.0,64.0
154,74.0,120,120,0.0,64.0
155,72.0,0,240,0.0,64.0
156,75.0,120,120,0.0,64.0
157,77.0,120,120,0.0,64.0
158,75.0,120,120,0.0,64.0
159,79.0,0,240,0.0,64.0
160,74.0,120,120,0.0,64.0
161,75.0,0,240,0.0,64.0
162,72.0,120,120,0.0,64.0
163,70.0,120,120,0.0,64.0
164,69.0,120,120,0.0,64.0
165,84.0,120,600,0.0,64.0
166,67.0,120,120,0.0,64.0
167,66.0,120,120,0.0,64.0
168,64.0,120,120,0.0,64.0
169,66.0,0,240,0.0,64.0
170,82.0,120,120,0.0,64.0
171,60.0,0,240,0.0,64.0
172,81.0,120,120,0.0,64.0
173,79.0,120,120,0.0,64.0
174,78.0,120,120,0.0,64.0
175,69.0,0,240,0.0,64.0
176,81.0,120,120,0.0,64.0
177,66.0,0,240,0.0,64.0
178,75.0,120,120,0.0,64.0
179,74.0,120,120,0.0,64.0
180,75.0,120,120,0.0,64.0
181,72.0,120,120,0.0,64.0
182,79.0,120,120,0.0,64.0
183,78.0,120,120,0.0,64.0
184,79.0,0,120,0.0,64.0
185,74.0,0,120,0.0,64.0
186,71.0,0,120,0.0,64.0
187,72.0,120,120,0.0,64.0
188,50.0,0,240,0.0,64.0
189,69.0,0,120,0.0,64.0
190,71.0,0,120,0.0,64.0
191,74.0,120,120,0.0,64.0
192,67.0,120,120,0.0,64.0
193,52.0,120,240,0.0,64.0
194,83.0,0,1080,0.0,64.0
195,76.0,0,120,0.0,64.0
196,74.0,120,120,0.0,64.0
197,54.0,0,240,0.0,64.0
198,72.0,120,120,0.0,64.0
199,55.0,0,240,0.0,64.0
200,71.0,120,120,0.0,64.0
201,69.0,120,120,0.0,64.0
202,47.0,0,240,0.0,64.0
203,67.0,120,120,0.0,64.0
204,66.0,120,120,0.0,64.0
205,64.0,120,120,0.0,64.0
206,48.0,0,240,0.0,64.0
207,66.0,120,120,0.0,64.0
208,72.0,0,120,0.0,64.0
209,71.0,0,120,0.0,64.0
210,52.0,0,240,0.0,64.0
211,62.0,120,120,0.0,64.0
212,72.0,0,120,0.0,64.0
213,64.0,120,120,0.0,64.0
214,81.0,120,1080,0.0,64.0
215,60.0,120,120,0.0,64.0
216,54.0,120,240,0.0,64.0
217,74.0,0,120,0.0,64.0
218,55.0,120,240,0.0,64.0
219,72.0,120,120,0.0,64.0
220,71.0,0,120,0.0,64.0
221,69.0,120,120,0.0,64.0
222,57.0,120,240,0.0,64.0
223,67.0,0,120,0.0,64.0
224,66.0,120,120,0.0,64.0
225,48.0,120,240,0.0,64.0
226,64.0,0,120,0.0,64.0
227,62.0,0,120,0.0,64.0
228,50.0,120,240,0.0,64.0
229,71.0,0,120,0.0,64.0
230,64.0,0,120,0.0,64.0
231,60.0,0,120,0.0,64.0
232,69.0,120,120,0.0,64.0
233,54.0,120,240,0.0,64.0
234,71.0,0,120,0.0,64.0
235,62.0,0,120,0.0,64.0
236,59.0,120,120,0.0,64.0
237,79.0,120,1080,0.0,64.0
238,55.0,0,240,0.0,64.0
239,72.0,120,120,0.0,64.0
240,57.0,120,240,0.0,64.0
241,71.0,120,120,0.0,64.0
242,69.0,0,120,0.0,64.0
243,67.0,120,120,0.0,64.0
244,59.0,120,240,0.0,64.0
245,66.0,0,120,0.0,64.0
246,50.0,0,240,0.0,64.0
247,64.0,120,120,0.0,64.0
248,62.0,120,120,0.0,64.0
249,60.0,0,240,0.0,64.0
250,52.0,0,240,0.0,64.0
251,78.0,120,120,0.0,64.0
252,64.0,0,480,0.0,64.0
253,55.0,0,240,0.0,64.0
254,76.0,120,120,0.0,64.0
255,74.0,120,120,0.0,64.0
256,57.0,120,240,0.0,64.0
257,72.0,120,120,0.0,64.0
258,71.0,0,120,0.0,64.0
259,59.0,120,240,0.0,64.0
260,69.0,120,120,0.0,64.0
261,67.0,0,120,0.0,64.0
262,60.0,0,240,0.0,64.0
263,66.0,120,120,0.0,64.0
264,64.0,0,120,0.0,64.0
265,62.0,120,120,0.0,64.0
266,72.0,120,360,0.0,64.0
267,52.0,0,240,0.0,64.0
268,60.0,120,120,0.0,64.0
269,54.0,120,240,0.0,64.0
270,62.0,0,240,0.0,64.0
271,67.0,0,120,0.0,64.0
272,50.0,240,240,0.0,64.0
273,72.0,0,240,0.0,64.0
274,69.0,120,120,0.0,64.0
275,66.0,0,120,0.0,64.0
276,71.0,0,240,0.0,64.0
277,67.0,120,240,0.0,64.0
278,55.0,0,240,0.0,64.0
279,48.0,120,240,0.0,64.0
280,76.0,120,120,0.0,64.0
281,69.0,0,240,0.0,64.0
282,74.0,0,120,0.0,64.0
283,72.0,120,120,0.0,64.0
284,62.0,120,240,0.0,64.0
285,50.0,0,240,0.0,64.0
286,71.0,0,120,0.0,64.0
287,69.0,120,120,0.0,64.0
288,38.0,0,240,0.0,64.0
289,66.0,0,240,0.0,64.0
290,67.0,240,0,0.0,64.0
291,43.0,0,480,0.0,64.0
292,67.0,120,120,0.0,64.0
293,66.0,120,120,0.0,64.0
294,67.0,0,120,0.0,64.0
295,71.0,120,120,0.0,64.0
296,67.0,120,120,0.0,64.0
297,66.0,120,120,0.0,64.0
298,67.0,120,120,0.0,64.0
299,62.0,120,120,0.0,64.0
300,67.0,120,120,0.0,64.0
301,59.0,120,120,0.0,64.0
302,62.0,240,120,0.0,64.0
303,55.0,240,0,0.0,64.0
304,74.0,240,240,0.0,64.0
305,83.0,0,240,0.0,64.0
306,43.0,0,240,0.0,64.0
307,79.0,240,240,0.0,64.0
308,71.0,0,240,0.0,64.0
309,55.0,240,240,0.0,64.0
310,83.0,0,240,0.0,64.0
311,74.0,0,240,0.0,64.0
312,84.0,120,240,0.0,64.0
313,76.0,0,240,0.0,64.0
314,43.0,0,240,0.0,64.0
315,74.0,0,120,0.0,64.0
316,83.0,120,120,0.0,64.0
317,55.0,120,240,0.0,64.0
318,72.0,0,120,0.0,64.0
319,81.0,0,120,0.0,64.0
320,74.0,0,480,0.0,64.0
321,43.0,0,480,0.0,64.0
322,83.0,120,120,0.0,64.0
323,79.0,120,120,0.0,64.0
324,78.0,120,120,0.0,64.0
325,79.0,120,120,0.0,64.0
326,83.0,120,120,0.0,64.0
327,79.0,120,120,0.0,64.0
328,78.0,120,120,0.0,64.0
329,79.0,120,120,0.0,64.0
330,74.0,120,120,0.0,64.0
331,79.0,120,120,0.0,64.0
332,71.0,120,120,0.0,64.0
333,74.0,240,120,0.0,64.0
334,67.0,240,240,0.0,64.0
335,59.0,0,240,0.0,64.0
336,74.0,0,240,0.0,64.0
337,43.0,0,240,0.0,64.0
338,71.0,240,240,0.0,64.0
339,55.0,240,0,0.0,64.0
340,55.0,0,0,0.0,64.0
341,59.0,0,240,0.0,64.0
342,74.0,0,240,0.0,64.0
343,76.0,120,240,0.0,64.0
344,43.0,0,240,0.0,64.0
345,60.0,0,240,0.0,64.0
346,59.0,0,120,0.0,64.0
347,55.0,0,240,0.0,64.0
348,74.0,120,120,0.0,64.0
349,57.0,120,120,0.0,64.0
350,72.0,0,120,0.0,64.0
351,74.0,120,120,0.0,64.0
352,43.0,0,480,0.0,64.0
353,59.0,0,240,0.0,64.0
354,71.0,120,120,0.0,64.0
355,67.0,120,120,0.0,64.0
356,62.0,120,240,0.0,64.0
357,71.0,0,120,0.0,64.0
358,76.0,120,120,0.0,64.0
359,55.0,0,240,0.0,64.0
360,71.0,120,120,0.0,64.0
361,67.0,120,120,0.0,64.0
362,59.0,0,240,0.0,64.0
363,71.0,0,120,0.0,64.0
364,79.0,120,600,0.0,64.0
365,52.0,120,120,0.0,64.0
366,55.0,120,120,0.0,64.0
367,57.0,120,120,0.0,64.0
368,43.0,120,240,0.0,64.0
369,59.0,0,120,0.0,64.0
370,60.0,0,240,0.0,64.0
371,45.0,0,480,0.0,64.0
372,72.0,120,120,0.0,64.0
373,64.0,120,240,0.0,64.0
374,69.0,120,120,0.0,64.0
375,72.0,0,120,0.0,64.0
376,78.0,120,120,0.0,64.0
377,57.0,0,240,0.0,64.0
378,72.0,120,120,0.0,64.0
379,69.0,120,120,0.0,64.0
380,60.0,120,240,0.0,64.0
381,72.0,0,120,0.0,64.0
382,54.0,120,120,0.0,64.0
383,81.0,120,600,0.0,64.0
384,57.0,120,120,0.0,64.0
385,45.0,120,240,0.0,64.0
386,59.0,120,120,0.0,64.0
387,60.0,0,120,0.0,64.0
388,62.0,0,240,0.0,64.0
389,47.0,0,480,0.0,64.0
390,74.0,120,120,0.0,64.0
391,67.0,0,120,0.0,64.0
392,71.0,120,120,0.0,64.0
393,74.0,120,120,0.0,64.0
394,62.0,0,120,0.0,64.0
395,59.0,0,240,0.0,64.0
396,79.0,120,120,0.0,64.0
397,74.0,120,120,0.0,64.0
398,62.0,120,120,0.0,64.0
399,71.0,0,120,0.0,64.0
400,59.0,0,120,0.0,64.0
401,74.0,120,120,0.0,64.0
402,55.0,120,120,0.0,64.0
403,83.0,120,720,0.0,64.0
404,59.0,120,120,0.0,64.0
405,47.0,0,240,0.0,64.0
406,60.0,120,120,0.0,64.0
407,62.0,120,120,0.0,64.0
408,48.0,0,480,0.0,64.0
409,64.0,120,120,0.0,64.0
410,62.0,0,120,0.0,64.0
411,64.0,120,120,0.0,64.0
412,81.0,0,120,0.0,64.0
413,80.0,0,120,0.0,64.0
414,65.0,120,120,0.0,64.0
415,64.0,120,120,0.0,64.0
416,81.0,120,240,0.0,64.0
417,62.0,0,120,0.0,64.0
418,60.0,120,120,0.0,64.0
419,76.0,120,240,0.0,64.0
420,59.0,0,120,0.0,64.0
421,57.0,120,120,0.0,64.0
422,84.0,120,720,0.0,64.0
423,55.0,120,120,0.0,64.0
424,54.0,120,120,0.0,64.0
425,57.0,120,240,0.0,64.0
426,52.0,0,120,0.0,64.0
427,62.0,0,480,0.0,64.0
428,54.0,120,120,0.0,64.0
429,55.0,0,120,0.0,64.0
430,81.0,120,240,0.0,64.0
431,54.0,120,120,0.0,64.0
432,50.0,0,120,0.0,64.0
433,57.0,120,120,0.0,64.0
434,78.0,120,240,0.0,64.0
435,50.0,0,4080,0.0,64.0
436,59.0,0,120,0.0,64.0
437,57.0,120,120,0.0,64.0
438,81.0,120,240,0.0,64.0
439,54.0,0,120,0.0,64.0
440,60.0,120,120,0.0,64.0
441,74.0,120,240,0.0,64.0
442,62.0,0,120,0.0,64.0
443,60.0,120,120,0.0,64.0
444,78.0,0,240,0.0,64.0
445,57.0,120,120,0.0,64.0
446,58.0,0,240,0.0,64.0
447,79.0,120,120,0.0,64.0
448,81.0,120,120,0.0,64.0
449,82.0,120,120,0.0,64.0
450,55.0,120,240,0.0,64.0
451,84.0,0,120,0.0,64.0
452,62.0,0,240,0.0,64.0
453,82.0,120,120,0.0,64.0
454,81.0,120,120,0.0,64.0
455,79.0,120,120,0.0,64.0
456,58.0,120,240,0.0,64.0
457,77.0,0,120,0.0,64.0
458,76.0,120,120,0.0,64.0
459,67.0,120,600,0.0,64.0
460,74.0,120,120,0.0,64.0
461,73.0,120,120,0.0,64.0
462,71.0,120,120,0.0,64.0
463,73.0,120,240,0.0,64.0
464,65.0,0,120,0.0,64.0
465,64.0,120,120,0.0,64.0
466,67.0,0,240,0.0,64.0
467,62.0,120,120,0.0,64.0
468,76.0,0,240,0.0,64.0
469,61.0,120,120,0.0,64.0
470,64.0,120,120,0.0,64.0
471,73.0,120,240,0.0,64.0
472,58.0,120,120,0.0,64.0
473,57.0,0,120,0.0,64.0
474,58.0,120,120,0.0,64.0
475,79.0,120,600,0.0,64.0
476,55.0,120,120,0.0,64.0
477,62.0,120,120,0.0,64.0
478,61.0,120,120,0.0,64.0
479,62.0,120,600,0.0,64.0
480,78.0,120,120,0.0,64.0
481,54.0,120,240,0.0,64.0
482,76.0,120,120,0.0,64.0
483,74.0,0,120,0.0,64.0
484,83.0,120,600,0.0,64.0
485,55.0,120,240,0.0,64.0
486,71.0,0,120,0.0,64.0
487,57.0,120,240,0.0,64.0
488,69.0,120,120,0.0,64.0
489,67.0,0,120,0.0,64.0
490,59.0,120,240,0.0,64.0
491,74.0,120,600,0.0,64.0
492,84.0,0,120,0.0,64.0
493,83.0,120,120,0.0,64.0
494,50.0,0,240,0.0,64.0
495,81.0,120,120,0.0,64.0
496,52.0,0,240,0.0,64.0
497,79.0,120,720,0.0,64.0
498,71.0,120,120,0.0,64.0
499,76.0,120,120,0.0,64.0
500,55.0,0,240,0.0,64.0
501,74.0,120,120,0.0,64.0
502,72.0,120,120,0.0,64.0
503,57.0,0,240,0.0,64.0
504,71.0,0,120,0.0,64.0
505,69.0,0,120,0.0,64.0
506,78.0,120,120,0.0,64.0
507,59.0,120,240,0.0,64.0
508,67.0,0,120,0.0,64.0
509,76.0,0,120,0.0,64.0
510,74.0,120,120,0.0,64.0
511,60.0,0,240,0.0,64.0
512,66.0,120,240,0.0,64.0
513,72.0,0,120,0.0,64.0
514,71.0,120,120,0.0,64.0
515,54.0,120,240,0.0,64.0
516,72.0,120,360,0.0,64.0
517,69.0,0,120,0.0,64.0
518,55.0,120,240,0.0,64.0
519,71.0,0,120,0.0,64.0
520,69.0,120,120,0.0,64.0
521,47.0,0,240,0.0,64.0
522,67.0,120,120,0.0,64.0
523,48.0,120,240,0.0,64.0
524,76.0,0,120,0.0,64.0
525,74.0,120,120,0.0,64.0
526,50.0,0,240,0.0,64.0
527,72.0,120,120,0.0,64.0
528,79.0,120,600,0.0,64.0
529,52.0,120,240,0.0,64.0
530,77.0,0,120,0.0,64.0
531,43.0,120,240,0.0,64.0
532,76.0,120,120,0.0,64.0
533,74.0,0,120,0.0,64.0
534,72.0,0,720,0.0,64.0
535,45.0,120,240,0.0,64.0
536,76.0,0,120,0.0,64.0
537,81.0,120,120,0.0,64.0
538,48.0,120,240,0.0,64.0
539,79.0,0,120,0.0,64.0
540,77.0,120,120,0.0,64.0
541,50.0,120,240,0.0,64.0
542,76.0,0,120,0.0,64.0
543,71.0,120,120,0.0,64.0
544,74.0,0,120,0.0,64.0
545,52.0,120,240,0.0,64.0
546,72.0,0,120,0.0,64.0
547,69.0,0,120,0.0,64.0
548,67.0,120,120,0.0,64.0
549,53.0,120,240,0.0,64.0
550,71.0,0,240,0.0,64.0
551,65.0,0,120,0.0,64.0
552,64.0,120,120,0.0,64.0
553,47.0,0,240,0.0,64.0
554,77.0,120,360,0.0,64.0
555,62.0,120,120,0.0,64.0
556,48.0,0,240,0.0,64.0
557,60.0,0,240,0.0,64.0
558,76.0,120,120,0.0,64.0
559,67.0,120,240,0.0,64.0
560,48.0,0,240,0.0,64.0
561,74.0,120,120,0.0,64.0
562,76.0,0,120,0.0,64.0
563,36.0,0,240,0.0,64.0
564,79.0,120,120,0.0,64.0
565,64.0,0,240,0.0,64.0
566,76.0,120,120,0.0,64.0
567,48.0,0,240,0.0,64.0
568,67.0,0,240,0.0,64.0
569,74.0,120,120,0.0,64.0
570,76.0,120,120,0.0,64.0
571,72.0,120,120,0.0,64.0
572,36.0,0,240,0.0,64.0
573,76.0,120,120,0.0,64.0
574,48.0,120,240,0.0,64.0
575,69.0,120,120,0.0,64.0
576,72.0,0,120,0.0,64.0
577,38.0,0,240,0.0,64.0
578,65.0,0,120,0.0,64.0
579,50.0,0,240,0.0,64.0
580,81.0,120,240,0.0,64.0
581,64.0,120,120,0.0,64.0
582,65.0,0,120,0.0,64.0
583,38.0,0,240,0.0,64.0
584,69.0,120,120,0.0,64.0
585,77.0,120,240,0.0,64.0
586,65.0,0,120,0.0,64.0
587,50.0,0,240,0.0,64.0
588,81.0,120,240,0.0,64.0
589,64.0,120,120,0.0,64.0
590,65.0,0,120,0.0,64.0
591,82.0,120,600,0.0,64.0
592,62.0,120,120,0.0,64.0
593,38.0,0,240,0.0,64.0
594,65.0,120,120,0.0,64.0
595,50.0,120,240,0.0,64.0
596,58.0,120,120,0.0,64.0
597,62.0,0,120,0.0,64.0
598,40.0,120,240,0.0,64.0
599,55.0,0,240,0.0,64.0
600,79.0,0,120,0.0,64.0
601,52.0,0,240,0.0,64.0
602,70.0,0,240,0.0,64.0
603,77.0,120,120,0.0,64.0
604,79.0,120,120,0.0,64.0
605,40.0,0,240,0.0,64.0
606,67.0,120,240,0.0,64.0
607,82.0,120,120,0.0,64.0
608,79.0,0,120,0.0,64.0
609,52.0,0,240,0.0,64.0
610,77.0,120,120,0.0,64.0
611,70.0,120,240,0.0,64.0
612,79.0,0,120,0.0,64.0
613,40.0,0,240,0.0,64.0
614,76.0,120,120,0.0,64.0
615,79.0,120,120,0.0,64.0
616,72.0,120,120,0.0,64.0
617,52.0,0,240,0.0,64.0
618,76.0,120,120,0.0,64.0
619,41.0,0,6000,0.0,64.0
620,69.0,120,120,0.0,64.0
621,81.0,120,120,0.0,64.0
622,65.0,120,240,0.0,64.0
623,79.0,120,120,0.0,64.0
624,81.0,0,120,0.0,64.0
625,84.0,120,120,0.0,64.0
626,69.0,120,240,0.0,64.0
627,81.0,0,120,0.0,64.0
628,79.0,120,120,0.0,64.0
629,72.0,0,240,0.0,64.0
630,81.0,120,120,0.0,64.0
631,77.0,120,120,0.0,64.0
632,75.0,120,240,0.0,64.0
633,81.0,0,120,0.0,64.0
634,84.0,120,360,0.0,64.0
635,74.0,120,120,0.0,64.0
636,72.0,120,120,0.0,64.0
637,74.0,0,240,0.0,64.0
638,82.0,120,120,0.0,64.0
639,81.0,120,120,0.0,64.0
640,70.0,120,240,0.0,64.0
641,82.0,0,120,0.0,64.0
642,65.0,120,240,0.0,64.0
643,84.0,120,120,0.0,64.0
644,82.0,0,120,0.0,64.0
645,70.0,0,240,0.0,64.0
646,81.0,120,120,0.0,64.0
647,82.0,120,120,0.0,64.0
648,74.0,120,240,0.0,64.0
649,77.0,120,120,0.0,64.0
650,81.0,0,120,0.0,64.0
651,82.0,120,360,0.0,64.0
652,72.0,120,120,0.0,64.0
653,70.0,120,120,0.0,64.0
654,72.0,0,240,0.0,64.0
655,81.0,120,120,0.0,64.0
656,69.0,0,240,0.0,64.0
657,79.0,120,120,0.0,64.0
658,81.0,120,120,0.0,64.0
659,65.0,120,240,0.0,64.0
660,82.0,120,120,0.0,64.0
661,81.0,0,120,0.0,64.0
662,79.0,120,120,0.0,64.0
663,69.0,0,240,0.0,64.0
664,81.0,120,120,0.0,64.0
665,77.0,120,120,0.0,64.0
666,72.0,120,240,0.0,64.0
667,79.0,0,120,0.0,64.0
668,81.0,120,360,0.0,64.0
669,70.0,120,120,0.0,64.0
670,69.0,120,120,0.0,64.0
671,70.0,120,240,0.0,64.0
672,79.0,0,120,0.0,64.0
673,67.0,0,240,0.0,64.0
674,77.0,120,120,0.0,64.0
675,79.0,120,120,0.0,64.0
676,82.0,120,120,0.0,64.0
677,64.0,0,240,0.0,64.0
678,79.0,120,120,0.0,64.0
679,67.0,0,240,0.0,64.0
680,77.0,120,120,0.0,64.0
681,79.0,120,120,0.0,64.0
682,76.0,120,120,0.0,64.0
683,70.0,120,240,0.0,64.0
684,77.0,0,120,0.0,64.0
685,79.0,0,480,0.0,64.0
686,69.0,120,120,0.0,64.0
687,67.0,120,120,0.0,64.0
688,69.0,120,120,0.0,64.0
689,65.0,120,120,0.0,64.0
690,53.0,0,240,0.0,64.0
691,64.0,120,120,0.0,64.0
692,72.0,0,240,0.0,64.0
693,65.0,120,120,0.0,64.0
694,77.0,0,240,0.0,64.0
695,50.0,0,240,0.0,64.0
696,69.0,120,120,0.0,64.0
697,65.0,120,120,0.0,64.0
698,53.0,120,240,0.0,64.0
699,64.0,120,120,0.0,64.0
700,81.0,0,480,0.0,64.0
701,65.0,0,120,0.0,64.0
702,62.0,120,120,0.0,64.0
703,47.0,120,240,0.0,64.0
704,65.0,0,120,0.0,64.0
705,59.0,120,120,0.0,64.0
706,74.0,120,480,0.0,64.0
707,50.0,120,240,0.0,64.0
708,62.0,0,120,0.0,64.0
709,55.0,120,120,0.0,64.0
710,40.0,0,240,0.0,64.0
711,64.0,0,120,0.0,64.0
712,52.0,0,240,0.0,64.0
713,71.0,0,240,0.0,64.0
714,62.0,120,120,0.0,64.0
715,64.0,120,120,0.0,64.0
716,67.0,120,120,0.0,64.0
717,48.0,120,240,0.0,64.0
718,76.0,0,240,0.0,64.0
719,64.0,0,120,0.0,64.0
720,79.0,0,480,0.0,64.0
721,62.0,120,120,0.0,64.0
722,52.0,0,240,0.0,64.0
723,64.0,120,120,0.0,64.0
724,60.0,120,120,0.0,64.0
725,45.0,0,240,0.0,64.0
726,64.0,120,120,0.0,64.0
727,48.0,120,240,0.0,64.0
728,57.0,120,120,0.0,64.0
729,72.0,120,480,0.0,64.0
730,60.0,0,120,0.0,64.0
731,38.0,0,240,0.0,64.0
732,53.0,120,120,0.0,64.0
733,62.0,0,120,0.0,64.0
734,60.0,120,120,0.0,64.0
735,69.0,120,240,0.0,64.0
736,50.0,0,240,0.0,64.0
737,62.0,0,120,0.0,64.0
738,65.0,120,120,0.0,64.0
739,47.0,0,240,0.0,64.0
740,74.0,120,240,0.0,64.0
741,62.0,0,120,0.0,64.0
742,60.0,120,120,0.0,64.0
743,77.0,0,480,0.0,64.0
744,50.0,120,240,0.0,64.0
745,62.0,0,120,0.0,64.0
746,59.0,120,120,0.0,64.0
747,43.0,0,240,0.0,64.0
748,62.0,120,120,0.0,64.0
749,47.0,0,240,0.0,64.0
750,71.0,0,240,0.0,64.0
751,55.0,120,120,0.0,64.0
752,59.0,120,120,0.0,64.0
753,36.0,0,6000,0.0,64.0
754,52.0,120,120,0.0,64.0
755,64.0,120,120,0.0,64.0
756,62.0,120,120,0.0,64.0
757,72.0,120,240,0.0,64.0
758,64.0,0,120,0.0,64.0
759,67.0,120,120,0.0,64.0
760,76.0,0,240,0.0,64.0
761,64.0,120,120,0.0,64.0
762,62.0,120,120,0.0,64.0
763,79.0,0,240,0.0,64.0
764,64.0,120,120,0.0,64.0
765,82.0,120,240,0.0,64.0
766,60.0,120,120,0.0,64.0
767,64.0,0,120,0.0,64.0
768,67.0,120,360,0.0,64.0
769,81.0,120,120,0.0,64.0
770,79.0,120,120,0.0,64.0
771,81.0,120,240,0.0,64.0
772,65.0,0,120,0.0,64.0
773,64.0,120,120,0.0,64.0
774,77.0,0,240,0.0,64.0
775,65.0,120,120,0.0,64.0
776,67.0,120,120,0.0,64.0
777,72.0,0,240,0.0,64.0
778,65.0,120,120,0.0,64.0
779,77.0,0,240,0.0,64.0
780,64.0,120,120,0.0,64.0
781,65.0,120,120,0.0,64.0
782,81.0,0,240,0.0,64.0
783,60.0,120,120,0.0,64.0
784,64.0,120,120,0.0,64.0
785,79.0,120,120,0.0,64.0
786,65.0,120,360,0.0,64.0
787,77.0,120,120,0.0,64.0
788,79.0,120,240,0.0,64.0
789,64.0,0,120,0.0,64.0
790,62.0,120,120,0.0,64.0
791,76.0,0,240,0.0,64.0
792,64.0,120,120,0.0,64.0
793,65.0,120,120,0.0,64.0
794,72.0,0,240,0.0,64.0
795,64.0,120,120,0.0,64.0
796,62.0,120,120,0.0,64.0
797,76.0,120,240,0.0,64.0
798,64.0,0,120,0.0,64.0
799,60.0,120,120,0.0,64.0
800,79.0,120,240,0.0,64.0
801,62.0,0,120,0.0,64.0
802,77.0,120,120,0.0,64.0
803,64.0,120,360,0.0,64.0
804,76.0,120,120,0.0,64.0
805,77.0,120,240,0.0,64.0
806,62.0,0,120,0.0,64.0
807,60.0,120,120,0.0,64.0
808,74.0,0,240,0.0,64.0
809,62.0,120,120,0.0,64.0
810,65.0,120,120,0.0,64.0
811,71.0,120,240,0.0,64.0
812,62.0,0,120,0.0,64.0
813,60.0,120,120,0.0,64.0
814,74.0,120,240,0.0,64.0
815,62.0,0,120,0.0,64.0
816,59.0,120,240,0.0,64.0
817,77.0,120,120,0.0,64.0
818,76.0,0,120,0.0,64.0
819,74.0,120,120,0.0,64.0
820,71.0,120,240,0.0,64.0
821,76.0,0,120,0.0,64.0
822,77.0,120,120,0.0,64.0
823,72.0,0,120,0.0,64.0
824,76.0,120,120,0.0,64.0
825,67.0,0,120,0.0,64.0
826,43.0,120,240,0.0,64.0
827,74.0,120,120,0.0,64.0
828,65.0,0,120,0.0,64.0
829,67.0,0,120,0.0,64.0
830,76.0,0,0,0.0,64.0
831,45.0,0,240,0.0,64.0
832,72.0,120,120,0.0,64.0
833,81.0,120,120,0.0,64.0
834,47.0,120,240,0.0,64.0
835,79.0,120,120,0.0,64.0
836,77.0,0,120,0.0,64.0
837,48.0,120,240,0.0,64.0
838,76.0,120,120,0.0,64.0
839,74.0,0,120,0.0,64.0
840,72.0,120,120,0.0,64.0
841,40.0,0,240,0.0,64.0
842,70.0,120,120,0.0,64.0
843,41.0,0,240,0.0,64.0
844,69.0,0,120,0.0,64.0
845,70.0,0,120,0.0,64.0
846,65.0,120,120,0.0,64.0
847,45.0,120,240,0.0,64.0
848,64.0,0,120,0.0,64.0
849,67.0,120,120,0.0,64.0
850,65.0,0,120,0.0,64.0
851,69.0,0,120,0.0,64.0
852,47.0,0,240,0.0,64.0
853,65.0,120,120,0.0,64.0
854,79.0,120,120,0.0,64.0
855,48.0,120,240,0.0,64.0
856,77.0,120,120,0.0,64.0
857,76.0,0,120,0.0,64.0
858,74.0,120,120,0.0,64.0
859,50.0,0,240,0.0,64.0
860,72.0,120,120,0.0,64.0
861,41.0,0,240,0.0,64.0
862,71.0,120,120,0.0,64.0
863,69.0,120,120,0.0,64.0
864,43.0,120,240,0.0,64.0
865,67.0,120,120,0.0,64.0
866,64.0,0,120,0.0,64.0
867,69.0,0,120,0.0,64.0
868,62.0,0,120,0.0,64.0
869,47.0,120,240,0.0,64.0
870,65.0,120,120,0.0,64.0
871,67.0,0,120,0.0,64.0
872,64.0,0,0,0.0,64.0
873,48.0,0,240,0.0,64.0
874,77.0,120,120,0.0,64.0
875,50.0,120,240,0.0,64.0
876,76.0,120,120,0.0,64.0
877,74.0,0,120,0.0,64.0
878,72.0,120,120,0.0,64.0
879,52.0,0,240,0.0,64.0
880,71.0,120,120,0.0,64.0
881,69.0,120,120,0.0,64.0
882,43.0,0,240,0.0,64.0
883,67.0,120,120,0.0,64.0
884,45.0,0,240,0.0,64.0
885,65.0,0,240,0.0,64.0
886,71.0,120,120,0.0,64.0
887,48.0,120,240,0.0,64.0
888,69.0,120,120,0.0,64.0
889,67.0,0,120,0.0,64.0
890,65.0,120,120,0.0,64.0
891,50.0,0,240,0.0,64.0
892,64.0,0,120,0.0,64.0
893,52.0,0,240,0.0,64.0
894,62.0,120,120,0.0,64.0
895,74.0,120,480,0.0,64.0
896,60.0,120,120,0.0,64.0
897,53.0,0,240,0.0,64.0
898,59.0,120,120,0.0,64.0
899,57.0,0,120,0.0,64.0
900,77.0,120,360,0.0,64.0
901,45.0,0,240,0.0,64.0
902,55.0,120,120,0.0,64.0
903,53.0,120,120,0.0,64.0
904,47.0,120,240,0.0,64.0
905,55.0,0,240,0.0,64.0
906,72.0,0,120,0.0,64.0
907,74.0,120,120,0.0,64.0
908,43.0,0,240,0.0,64.0
909,65.0,240,240,0.0,64.0
910,71.0,0,120,0.0,64.0
911,72.0,0,240,0.0,64.0
912,48.0,0,240,0.0,64.0
913,64.0,120,240,0.0,64.0
914,74.0,0,240,0.0,64.0
915,53.0,120,240,0.0,64.0
916,69.0,120,120,0.0,64.0
917,67.0,0,0,0.0,64.0
918,65.0,120,120,0.0,64.0
919,55.0,120,240,0.0,64.0
920,64.0,0,120,0.0,64.0
921,62.0,120,120,0.0,64.0
922,71.0,120,240,0.0,64.0
923,43.0,0,240,0.0,64.0
924,60.0,0,120,0.0,64.0
925,48.0,0,240,0.0,64.0
926,72.0,120,120,0.0,64.0
927,60.0,0,480,0.0,64.0
928,67.0,120,120,0.0,64.0
929,69.0,120,120,0.0,64.0
930,71.0,120,120,0.0,64.0
931,72.0,120,120,0.0,64.0
932,52.0,120,240,0.0,64.0
933,71.0,0,120,0.0,64.0
934,72.0,120,120,0.0,64.0
935,76.0,120,120,0.0,64.0
936,74.0,120,120,0.0,64.0
937,53.0,120,240,0.0,64.0
938,72.0,0,120,0.0,64.0
939,71.0,120,120,0.0,64.0
940,69.0,120,120,0.0,64.0
941,47.0,0,240,0.0,64.0
942,67.0,120,120,0.0,64.0
943,69.0,120,120,0.0,64.0
944,71.0,120,120,0.0,64.0
945,72.0,120,120,0.0,64.0
946,43.0,120,240,0.0,64.0
947,74.0,120,120,0.0,64.0
948,77.0,0,120,0.0,64.0
949,76.0,120,120,0.0,64.0
950,74.0,120,120,0.0,64.0
951,79.0,120,120,0.0,64.0
952,47.0,120,240,0.0,64.0
953,77.0,0,120,0.0,64.0
954,76.0,120,120,0.0,64.0
955,74.0,240,120,0.0,64.0
956,76.0,120,240,0.0,64.0
957,48.0,0,240,0.0,64.0
958,60.0,0,120,0.0,64.0
959,64.0,120,120,0.0,64.0
960,79.0,120,240,0.0,64.0
961,66.0,0,120,0.0,64.0
962,67.0,120,120,0.0,64.0
963,47.0,0,240,0.0,64.0
964,74.0,0,240,0.0,64.0
965,66.0,120,120,0.0,64.0
966,79.0,120,240,0.0,64.0
967,67.0,120,120,0.0,64.0
968,71.0,0,120,0.0,64.0
969,48.0,120,240,0.0,64.0
970,72.0,0,240,0.0,64.0
971,69.0,120,120,0.0,64.0
972,67.0,0,120,0.0,64.0
973,66.0,120,120,0.0,64.0
974,84.0,120,360,0.0,64.0
975,64.0,120,120,0.0,64.0
976,62.0,0,120,0.0,64.0
977,42.0,0,240,0.0,64.0
978,64.0,0,120,0.0,64.0
979,83.0,120,120,0.0,64.0
980,66.0,0,120,0.0,64.0
981,81.0,120,120,0.0,64.0
982,67.0,0,120,0.0,64.0
983,79.0,120,120,0.0,64.0
984,38.0,0,240,0.0,64.0
985,69.0,0,120,0.0,64.0
986,78.0,120,120,0.0,64.0
987,72.0,120,120,0.0,64.0
988,76.0,0,120,0.0,64.0
989,71.0,120,120,0.0,64.0
990,74.0,0,120,0.0,64.0
991,72.0,0,120,0.0,64.0
992,69.0,120,120,0.0,64.0
993,50.0,0,240,0.0,64.0
994,71.0,120,120,0.0,64.0
995,74.0,0,120,0.0,64.0
996,72.0,120,120,0.0,64.0
997,69.0,0,120,0.0,64.0
998,67.0,120,120,0.0,64.0
999,71.0,0,120,0.0,64.0
1000,69.0,120,120,0.0,64.0
1001,66.0,0,120,0.0,64.0
1002,43.0,120,240,0.0,64.0
1003,71.0,120,120,0.0,64.0
1004,67.0,0,120,0.0,64.0
1005,65.0,120,120,0.0,64.0
1006,55.0,0,480,0.0,64.0
1007,64.0,0,120,0.0,64.0
1008,62.0,120,120,0.0,64.0
1009,60.0,120,120,0.0,64.0
1010,53.0,0,240,0.0,64.0
1011,59.0,120,120,0.0,64.0
1012,67.0,120,240,0.0,64.0
1013,57.0,0,120,0.0,64.0
1014,72.0,120,120,0.0,64.0
1015,52.0,0,240,0.0,64.0
1016,55.0,120,960,0.0,64.0
1017,71.0,120,120,0.0,64.0
1018,50.0,120,240,0.0,64.0
1019,72.0,120,120,0.0,64.0
1020,74.0,0,120,0.0,64.0
1021,76.0,120,120,0.0,64.0
1022,48.0,0,240,0.0,64.0
1023,72.0,120,120,0.0,64.0
1024,60.0,0,480,0.0,64.0
1025,71.0,120,120,0.0,64.0
1026,69.0,0,120,0.0,64.0
1027,67.0,120,120,0.0,64.0
1028,65.0,120,120,0.0,64.0
1029,58.0,120,240,0.0,64.0
1030,64.0,120,120,0.0,64.0
1031,60.0,0,240,0.0,64.0
1032,62.0,0,120,0.0,64.0
1033,60.0,0,960,0.0,64.0
1034,57.0,0,240,0.0,64.0
1035,65.0,120,120,0.0,64.0
1036,64.0,120,120,0.0,64.0
1037,65.0,120,120,0.0,64.0
1038,55.0,120,240,0.0,64.0
1039,67.0,0,120,0.0,64.0
1040,53.0,0,240,0.0,64.0
1041,69.0,120,120,0.0,64.0
1042,69.0,120,120,0.0,64.0
1043,67.0,120,120,0.0,64.0
1044,57.0,120,480,0.0,64.0
1045,65.0,120,120,0.0,64.0
1046,64.0,120,120,0.0,64.0
1047,62.0,0,120,0.0,64.0
1048,61.0,120,120,0.0,64.0
1049,55.0,0,240,0.0,64.0
1050,69.0,0,240,0.0,64.0
1051,59.0,120,120,0.0,64.0
1052,57.0,120,960,0.0,64.0
1053,53.0,120,240,0.0,64.0
1054,74.0,120,120,0.0,64.0
1055,73.0,0,120,0.0,64.0
1056,74.0,120,120,0.0,64.0
1057,52.0,120,240,0.0,64.0
1058,76.0,0,120,0.0,64.0
1059,50.0,0,240,0.0,64.0
1060,77.0,120,120,0.0,64.0
1061,74.0,120,120,0.0,64.0
1062,72.0,120,120,0.0,64.0
1063,70.0,0,120,0.0,64.0
1064,69.0,120,120,0.0,64.0
1065,67.0,0,120,0.0,64.0
1066,65.0,120,120,0.0,64.0
1067,62.0,120,0,0.0,64.0
1068,60.0,0,240,0.0,64.0
1069,64.0,0,120,0.0,64.0
1070,59.0,0,240,0.0,64.0
1071,68.0,120,120,0.0,64.0
1072,62.0,120,600,0.0,64.0
1073,66.0,120,120,0.0,64.0
1074,68.0,120,120,0.0,64.0
1075,57.0,0,240,0.0,64.0
1076,69.0,120,120,0.0,64.0
1077,56.0,120,240,0.0,64.0
1078,71.0,0,120,0.0,64.0
1079,64.0,0,480,0.0,64.0
1080,62.0,120,120,0.0,64.0
1081,71.0,120,120,0.0,64.0
1082,57.0,120,240,0.0,64.0
1083,60.0,120,120,0.0,64.0
1084,69.0,0,0,0.0,64.0
1085,60.0,120,120,0.0,64.0
1086,69.0,120,120,0.0,64.0
1087,59.0,120,120,0.0,64.0
1088,53.0,0,240,0.0,64.0
1089,69.0,0,120,0.0,64.0
1090,57.0,120,120,0.0,64.0
1091,62.0,0,240,0.0,64.0
1092,69.0,120,120,0.0,64.0
1093,52.0,0,240,0.0,64.0
1094,68.0,120,120,0.0,64.0
1095,64.0,120,120,0.0,64.0
1096,66.0,120,120,0.0,64.0
1097,68.0,120,120,0.0,64.0
1098,53.0,0,240,0.0,64.0
1099,69.0,120,120,0.0,64.0
1100,68.0,120,120,0.0,64.0
1101,69.0,120,120,0.0,64.0
1102,72.0,120,120,0.0,64.0
1103,71.0,120,120,0.0,64.0
1104,54.0,120,240,0.0,64.0
1105,69.0,0,120,0.0,64.0
1106,68.0,120,120,0.0,64.0
1107,66.0,120,120,0.0,64.0
1108,55.0,0,240,0.0,64.0
1109,64.0,120,120,0.0,64.0
1110,66.0,120,120,0.0,64.0
1111,67.0,120,120,0.0,64.0
1112,69.0,120,120,0.0,64.0
1113,56.0,0,240,0.0,64.0
1114,71.0,120,120,0.0,64.0
1115,74.0,120,120,0.0,64.0
1116,72.0,120,120,0.0,64.0
1117,71.0,120,120,0.0,64.0
1118,76.0,120,120,0.0,64.0
1119,52.0,120,240,0.0,64.0
1120,74.0,0,120,0.0,64.0
1121,72.0,120,120,0.0,64.0
1122,71.0,120,120,0.0,64.0
1123,57.0,120,240,0.0,64.0
1124,60.0,0,120,0.0,64.0
1125,62.0,120,120,0.0,64.0
1126,64.0,120,120,0.0,64.0
1127,45.0,0,240,0.0,64.0
1128,65.0,120,120,0.0,64.0
1129,64.0,120,120,0.0,64.0
1130,65.0,120,120,0.0,64.0
1131,69.0,120,120,0.0,64.0
1132,48.0,0,240,0.0,64.0
1133,67.0,120,120,0.0,64.0
1134,65.0,120,120,0.0,64.0
1135,64.0,120,120,0.0,64.0
1136,62.0,120,120,0.0,64.0
1137,52.0,0,240,0.0,64.0
1138,60.0,120,120,0.0,64.0
1139,62.0,120,120,0.0,64.0
1140,64.0,120,120,0.0,64.0
1141,65.0,120,120,0.0,64.0
1142,67.0,120,120,0.0,64.0
1143,48.0,120,240,0.0,64.0
1144,70.0,0,120,0.0,64.0
1145,69.0,120,120,0.0,64.0
1146,67.0,120,120,0.0,64.0
1147,52.0,0,240,0.0,64.0
1148,72.0,120,120,0.0,64.0
1149,70.0,120,120,0.0,64.0
1150,69.0,120,120,0.0,64.0
1151,67.0,120,120,0.0,64.0
1152,53.0,120,240,0.0,64.0
1153,69.0,0,120,0.0,64.0
1154,71.0,120,120,0.0,64.0
1155,73.0,120,120,0.0,64.0
1156,46.0,120,240,0.0,64.0
1157,74.0,120,120,0.0,64.0
1158,73.0,0,120,0.0,64.0
1159,74.0,120,120,0.0,64.0
1160,77.0,120,120,0.0,64.0
1161,47.0,120,240,0.0,64.0
1162,76.0,120,120,0.0,64.0
1163,74.0,0,120,0.0,64.0
1164,73.0,120,120,0.0,64.0
1165,71.0,120,120,0.0,64.0
1166,48.0,0,240,0.0,64.0
1167,69.0,120,120,0.0,64.0
1168,71.0,120,120,0.0,64.0
1169,72.0,120,120,0.0,64.0
1170,74.0,120,120,0.0,64.0
1171,76.0,120,120,0.0,64.0
1172,49.0,120,240,0.0,64.0
1173,79.0,0,120,0.0,64.0
1174,77.0,120,120,0.0,64.0
1175,76.0,120,120,0.0,64.0
1176,81.0,120,120,0.0,64.0
1177,45.0,120,240,0.0,64.0
1178,79.0,0,120,0.0,64.0
1179,77.0,120,120,0.0,64.0
1180,76.0,120,120,0.0,64.0
1181,50.0,0,240,0.0,64.0
1182,77.0,120,120,0.0,64.0
1183,76.0,120,120,0.0,64.0
1184,57.0,0,120,0.0,64.0
1185,74.0,0,120,0.0,64.0
1186,59.0,120,120,0.0,64.0
1187,76.0,0,120,0.0,64.0
1188,61.0,120,120,0.0,64.0
1189,38.0,120,240,0.0,64.0
1190,77.0,120,120,0.0,64.0
1191,62.0,0,120,0.0,64.0
1192,76.0,0,120,0.0,64.0
1193,61.0,0,120,0.0,64.0
1194,62.0,0,120,0.0,64.0
1195,77.0,120,120,0.0,64.0
1196,65.0,120,120,0.0,64.0
1197,81.0,0,120,0.0,64.0
1198,64.0,0,120,0.0,64.0
1199,79.0,120,120,0.0,64.0
1200,50.0,0,960,0.0,64.0
1201,77.0,120,120,0.0,64.0
1202,62.0,0,120,0.0,64.0
1203,61.0,0,120,0.0,64.0
1204,76.0,120,120,0.0,64.0
1205,59.0,120,120,0.0,64.0
1206,74.0,0,120,0.0,64.0
1207,76.0,0,240,0.0,64.0
1208,57.0,120,120,0.0,64.0
1209,59.0,120,120,0.0,64.0
1210,61.0,120,120,0.0,64.0
1211,69.0,0,240,0.0,64.0
1212,62.0,120,120,0.0,64.0
1213,64.0,120,120,0.0,64.0
1214,49.0,0,240,0.0,64.0
1215,67.0,120,120,0.0,64.0
1216,45.0,120,240,0.0,64.0
1217,65.0,120,120,0.0,64.0
1218,64.0,0,120,0.0,64.0
1219,69.0,120,120,0.0,64.0
1220,47.0,120,240,0.0,64.0
1221,67.0,0,120,0.0,64.0
1222,65.0,120,120,0.0,64.0
1223,49.0,0,240,0.0,64.0
1224,64.0,240,120,0.0,64.0
1225,50.0,120,480,0.0,64.0
1226,74.0,120,120,0.0,64.0
1227,73.0,120,120,0.0,64.0
1228,74.0,0,120,0.0,64.0
1229,77.0,120,120,0.0,64.0
1230,74.0,120,120,0.0,64.0
1231,52.0,120,240,0.0,64.0
1232,73.0,120,120,0.0,64.0
1233,74.0,0,120,0.0,64.0
1234,69.0,120,120,0.0,64.0
1235,53.0,0,240,0.0,64.0
1236,74.0,120,120,0.0,64.0
1237,65.0,120,120,0.0,64.0
1238,50.0,120,240,0.0,64.0
1239,69.0,0,120,0.0,64.0
1240,62.0,0,240,0.0,64.0
1241,58.0,120,240,0.0,64.0
1242,64.0,0,120,0.0,64.0
1243,62.0,120,120,0.0,64.0
1244,64.0,120,120,0.0,64.0
1245,65.0,120,120,0.0,64.0
1246,46.0,0,240,0.0,64.0
1247,69.0,120,120,0.0,64.0
1248,67.0,120,120,0.0,64.0
1249,65.0,120,120,0.0,64.0
1250,50.0,0,240,0.0,64.0
1251,70.0,120,120,0.0,64.0
1252,69.0,120,120,0.0,64.0
1253,67.0,120,120,0.0,64.0
1254,65.0,240,120,0.0,64.0
1255,52.0,120,480,0.0,64.0
1256,72.0,120,120,0.0,64.0
1257,71.0,120,120,0.0,64.0
1258,72.0,0,120,0.0,64.0
1259,76.0,120,120,0.0,64.0
1260,72.0,120,120,0.0,64.0
1261,50.0,120,240,0.0,64.0
1262,71.0,120,120,0.0,64.0
1263,72.0,0,120,0.0,64.0
1264,52.0,0,240,0.0,64.0
1265,67.0,120,120,0.0,64.0
1266,72.0,120,120,0.0,64.0
1267,48.0,120,240,0.0,64.0
1268,64.0,120,120,0.0,64.0
1269,67.0,0,120,0.0,64.0
1270,60.0,120,240,0.0,64.0
1271,57.0,0,240,0.0,64.0
1272,65.0,0,120,0.0,64.0
1273,64.0,120,120,0.0,64.0
1274,65.0,120,120,0.0,64.0
1275,67.0,120,120,0.0,64.0
1276,58.0,0,240,0.0,64.0
1277,70.0,120,120,0.0,64.0
1278,69.0,120,120,0.0,64.0
1279,67.0,120,120,0.0,64.0
1280,52.0,120,240,0.0,64.0
1281,72.0,120,120,0.0,64.0
1282,70.0,0,120,0.0,64.0
1283,69.0,120,120,0.0,64.0
1284,67.0,240,120,0.0,64.0
1285,69.0,0,480,0.0,64.0
1286,53.0,120,480,0.0,64.0
1287,77.0,120,120,0.0,64.0
1288,76.0,120,120,0.0,64.0
1289,77.0,0,120,0.0,64.0
1290,81.0,120,120,0.0,64.0
1291,41.0,120,480,0.0,64.0
1292,77.0,120,120,0.0,64.0
1293,76.0,120,120,0.0,64.0
1294,77.0,0,120,0.0,64.0
1295,72.0,120,120,0.0,64.0
1296,77.0,120,120,0.0,64.0
1297,69.0,120,120,0.0,64.0
1298,72.0,240,120,0.0,64.0
1299,65.0,240,240,0.0,64.0
1300,60.0,240,240,0.0,64.0
1301,53.0,0,240,0.0,64.0
1302,81.0,0,240,0.0,64.0
1303,77.0,240,240,0.0,64.0
1304,57.0,0,240,0.0,64.0
1305,41.0,0,240,0.0,64.0
1306,60.0,0,240,0.0,64.0
1307,81.0,240,240,0.0,64.0
1308,53.0,0,240,0.0,64.0
1309,62.0,0,240,0.0,64.0
1310,41.0,120,240,0.0,64.0
1311,82.0,0,240,0.0,64.0
1312,81.0,0,120,0.0,64.0
1313,60.0,120,120,0.0,64.0
1314,53.0,0,240,0.0,64.0
1315,79.0,0,120,0.0,64.0
1316,58.0,120,120,0.0,64.0
1317,81.0,120,480,0.0,64.0
1318,41.0,0,480,0.0,64.0
1319,60.0,120,120,0.0,64.0
1320,65.0,120,120,0.0,64.0
1321,64.0,120,120,0.0,64.0
1322,65.0,0,120,0.0,64.0
1323,69.0,120,120,0.0,64.0
1324,65.0,120,120,0.0,64.0
1325,64.0,120,120,0.0,64.0
1326,65.0,120,120,0.0,64.0
1327,60.0,120,120,0.0,64.0
1328,65.0,120,120,0.0,64.0
1329,57.0,120,120,0.0,64.0
1330,60.0,240,120,0.0,64.0
1331,53.0,240,240,0.0,64.0
1332,53.0,0,240,0.0,64.0
1333,72.0,0,240,0.0,64.0
1334,65.0,0,240,0.0,64.0
1335,69.0,240,0,0.0,64.0
1336,41.0,0,240,0.0,64.0
1337,69.0,240,0,0.0,64.0
1338,53.0,0,240,0.0,64.0
1339,72.0,0,240,0.0,64.0
1340,74.0,0,240,0.0,64.0
1341,41.0,0,240,0.0,64.0
1342,70.0,120,240,0.0,64.0
1343,69.0,120,120,0.0,64.0
1344,72.0,0,120,0.0,64.0
1345,53.0,0,240,0.0,64.0
1346,70.0,0,120,0.0,64.0
1347,67.0,120,120,0.0,64.0
1348,72.0,120,240,0.0,64.0
1349,41.0,0,240,0.0,64.0
1350,69.0,120,120,0.0,64.0
1351,60.0,0,120,0.0,64.0
1352,62.0,120,120,0.0,64.0
1353,65.0,0,120,0.0,64.0
1354,64.0,0,120,0.0,64.0
1355,67.0,120,120,0.0,64.0
1356,65.0,120,120,0.0,64.0
1357,40.0,0,240,0.0,64.0
1358,69.0,120,240,0.0,64.0
1359,64.0,0,120,0.0,64.0
1360,65.0,120,120,0.0,64.0
1361,60.0,120,240,0.0,64.0
1362,69.0,0,120,0.0,64.0
1363,38.0,0,240,0.0,64.0
1364,67.0,120,120,0.0,64.0
1365,65.0,120,120,0.0,64.0
1366,64.0,0,0,0.0,64.0
1367,71.0,120,240,0.0,64.0
1368,62.0,0,120,0.0,64.0
1369,64.0,120,240,0.0,64.0
1370,72.0,120,120,0.0,64.0
1371,36.0,0,240,0.0,64.0
1372,67.0,0,120,0.0,64.0
1373,69.0,0,120,0.0,64.0
1374,60.0,120,120,0.0,64.0
1375,62.0,120,120,0.0,64.0
1376,71.0,0,120,0.0,64.0
1377,64.0,0,240,0.0,64.0
1378,72.0,120,120,0.0,64.0
1379,47.0,120,240,0.0,64.0
1380,71.0,0,120,0.0,64.0
1381,72.0,120,120,0.0,64.0
1382,55.0,0,240,0.0,64.0
1383,76.0,120,120,0.0,64.0
1384,45.0,0,240,0.0,64.0
1385,74.0,120,120,0.0,64.0
1386,57.0,0,240,0.0,64.0
1387,72.0,120,120,0.0,64.0
1388,71.0,120,120,0.0,64.0
1389,66.0,120,240,0.0,64.0
1390,69.0,0,120,0.0,64.0
1391,71.0,120,240,0.0,64.0
1392,67.0,120,120,0.0,64.0
1393,43.0,0,240,0.0,64.0
1394,62.0,0,120,0.0,64.0
1395,64.0,0,120,0.0,64.0
1396,67.0,120,120,0.0,64.0
1397,65.0,120,120,0.0,64.0
1398,69.0,0,120,0.0,64.0
1399,41.0,120,240,0.0,64.0
1400,67.0,120,120,0.0,64.0
1401,71.0,0,240,0.0,64.0
1402,65.0,0,120,0.0,64.0
1403,62.0,0,240,0.0,64.0
1404,67.0,120,120,0.0,64.0
1405,70.0,120,120,0.0,64.0
1406,64.0,0,240,0.0,64.0
1407,69.0,120,120,0.0,64.0
1408,40.0,0,240,0.0,64.0
1409,67.0,120,120,0.0,64.0
1410,73.0,0,240,0.0,64.0
1411,65.0,120,120,0.0,64.0
1412,64.0,120,120,0.0,64.0
1413,38.0,120,240,0.0,64.0
1414,74.0,120,120,0.0,64.0
1415,65.0,0,240,0.0,64.0
1416,69.0,0,120,0.0,64.0
1417,62.0,120,120,0.0,64.0
1418,71.0,0,120,0.0,64.0
1419,72.0,120,120,0.0,64.0
1420,64.0,0,120,0.0,64.0
1421,48.0,120,240,0.0,64.0
1422,66.0,0,240,0.0,64.0
1423,74.0,120,120,0.0,64.0
1424,72.0,0,120,0.0,64.0
1425,74.0,120,120,0.0,64.0
1426,57.0,0,240,0.0,64.0
1427,77.0,120,120,0.0,64.0
1428,76.0,120,120,0.0,64.0
1429,47.0,0,240,0.0,64.0
1430,59.0,0,240,0.0,64.0
1431,74.0,120,120,0.0,64.0
1432,68.0,0,240,0.0,64.0
1433,72.0,120,120,0.0,64.0
1434,71.0,240,120,0.0,64.0
1435,45.0,0,480,0.0,64.0
1436,69.0,120,120,0.0,64.0
1437,68.0,120,120,0.0,64.0
1438,69.0,120,120,0.0,64.0
1439,72.0,0,0,0.0,64.0
1440,69.0,120,120,0.0,64.0
1441,68.0,120,120,0.0,64.0
1442,69.0,120,120,0.0,64.0
1443,64.0,120,120,0.0,64.0
1444,69.0,120,120,0.0,64.0
1445,60.0,120,120,0.0,64.0
1446,64.0,240,120,0.0,64.0
1447,76.0,0,240,0.0,64.0
1448,57.0,240,0,0.0,64.0
1449,69.0,0,240,0.0,64.0
1450,72.0,0,0,0.0,64.0
1451,45.0,0,240,0.0,64.0
1452,57.0,240,240,0.0,64.0
1453,72.0,240,0,0.0,64.0
1454,76.0,0,240,0.0,64.0
1455,77.0,0,240,0.0,64.0
1456,74.0,120,240,0.0,64.0
1457,45.0,0,240,0.0,64.0
1458,57.0,0,240,0.0,64.0
1459,76.0,0,120,0.0,64.0
1460,72.0,120,120,0.0,64.0
1461,74.0,120,120,0.0,64.0
1462,71.0,0,120,0.0,64.0
1463,45.0,0,480,0.0,64.0
1464,72.0,0,480,0.0,64.0
1465,76.0,120,120,0.0,64.0
1466,81.0,120,120,0.0,64.0
1467,80.0,120,120,0.0,64.0
1468,81.0,120,120,0.0,64.0
1469,84.0,120,120,0.0,64.0
1470,81.0,120,120,0.0,64.0
1471,80.0,120,120,0.0,64.0
1472,81.0,120,120,0.0,64.0
1473,76.0,120,120,0.0,64.0
1474,81.0,120,120,0.0,64.0
1475,72.0,120,120,0.0,64.0
1476,76.0,240,120,0.0,64.0
1477,69.0,240,240,0.0,64.0
1478,64.0,0,240,0.0,64.0
1479,72.0,240,240,0.0,64.0
1480,57.0,0,240,0.0,64.0
1481,60.0,0,240,0.0,64.0
1482,45.0,0,240,0.0,64.0
1483,69.0,240,240,0.0,64.0
1484,57.0,0,240,0.0,64.0
1485,64.0,0,240,0.0,64.0
1486,72.0,240,240,0.0,64.0
1487,65.0,120,240,0.0,64.0
1488,74.0,0,240,0.0,64.0
1489,45.0,0,240,0.0,64.0
1490,72.0,0,120,0.0,64.0
1491,64.0,120,120,0.0,64.0
1492,57.0,0,240,0.0,64.0
1493,71.0,120,120,0.0,64.0
1494,62.0,0,120,0.0,64.0
1495,45.0,120,240,0.0,64.0
1496,72.0,120,480,0.0,64.0
1497,64.0,120,120,0.0,64.0
1498,52.0,0,120,0.0,64.0
1499,54.0,120,120,0.0,64.0
1500,56.0,0,120,0.0,64.0
1501,48.0,120,240,0.0,64.0
1502,57.0,120,120,0.0,64.0
1503,56.0,0,120,0.0,64.0
1504,57.0,120,120,0.0,64.0
1505,60.0,120,120,0.0,64.0
1506,50.0,0,240,0.0,64.0
1507,59.0,120,120,0.0,64.0
1508,57.0,120,120,0.0,64.0
1509,56.0,120,120,0.0,64.0
1510,54.0,120,120,0.0,64.0
1511,52.0,120,120,0.0,64.0
1512,44.0,0,240,0.0,64.0
1513,54.0,120,120,0.0,64.0
1514,56.0,120,120,0.0,64.0
1515,57.0,120,120,0.0,64.0
1516,59.0,120,120,0.0,64.0
1517,40.0,120,240,0.0,64.0
1518,62.0,0,120,0.0,64.0
1519,60.0,120,120,0.0,64.0
1520,59.0,120,120,0.0,64.0
1521,43.0,0,960,0.0,64.0
1522,64.0,120,120,0.0,64.0
1523,62.0,120,120,0.0,64.0
1524,61.0,120,120,0.0,64.0
1525,59.0,240,120,0.0,64.0
1526,61.0,120,240,0.0,64.0
1527,69.0,0,120,0.0,64.0
1528,71.0,120,120,0.0,64.0
1529,64.0,120,240,0.0,64.0
1530,73.0,0,120,0.0,64.0
1531,74.0,120,120,0.0,64.0
1532,41.0,0,240,0.0,64.0
1533,57.0,120,240,0.0,64.0
1534,73.0,0,120,0.0,64.0
1535,74.0,120,120,0.0,64.0
1536,62.0,120,240,0.0,64.0
1537,77.0,0,120,0.0,64.0
1538,76.0,120,120,0.0,64.0
1539,55.0,0,240,0.0,64.0
1540,43.0,120,240,0.0,64.0
1541,74.0,0,120,0.0,64.0
1542,73.0,120,120,0.0,64.0
1543,67.0,120,360,0.0,64.0
1544,71.0,120,120,0.0,64.0
1545,45.0,0,240,0.0,64.0
1546,69.0,0,120,0.0,64.0
1547,71.0,0,120,0.0,64.0
1548,65.0,120,120,0.0,64.0
1549,73.0,120,120,0.0,64.0
1550,57.0,0,240,0.0,64.0
1551,64.0,0,120,0.0,64.0
1552,62.0,120,120,0.0,64.0
1553,74.0,0,120,0.0,64.0
1554,76.0,0,120,0.0,64.0
1555,61.0,120,120,0.0,64.0
1556,45.0,0,240,0.0,64.0
1557,79.0,0,120,0.0,64.0
1558,59.0,120,120,0.0,64.0
1559,57.0,120,120,0.0,64.0
1560,77.0,0,120,0.0,64.0
1561,76.0,0,120,0.0,64.0
1562,55.0,120,120,0.0,64.0
1563,81.0,0,120,0.0,64.0
1564,45.0,0,240,0.0,64.0
1565,53.0,120,120,0.0,64.0
1566,79.0,0,120,0.0,64.0
1567,52.0,120,120,0.0,64.0
1568,57.0,120,240,0.0,64.0
1569,77.0,0,120,0.0,64.0
1570,50.0,120,120,0.0,64.0
1571,49.0,0,120,0.0,64.0
1572,76.0,0,120,0.0,64.0
1573,38.0,120,240,0.0,64.0
1574,77.0,120,120,0.0,64.0
1575,74.0,0,120,0.0,64.0
1576,73.0,120,120,0.0,64.0
1577,50.0,0,240,0.0,64.0
1578,71.0,120,120,0.0,64.0
1579,69.0,120,120,0.0,64.0
1580,67.0,120,120,0.0,64.0
1581,65.0,120,120,0.0,64.0
1582,48.0,120,240,0.0,64.0
1583,64.0,0,120,0.0,64.0
1584,62.0,0,0,0.0,64.0
1585,67.0,120,120,0.0,64.0
1586,47.0,0,240,0.0,64.0
1587,66.0,120,120,0.0,64.0
1588,67.0,120,120,0.0,64.0
1589,45.0,0,240,0.0,64.0
1590,69.0,120,120,0.0,64.0
1591,43.0,0,240,0.0,64.0
1592,71.0,120,120,0.0,64.0
1593,67.0,120,120,0.0,64.0
1594,55.0,0,480,0.0,64.0
1595,66.0,120,120,0.0,64.0
1596,64.0,120,120,0.0,64.0
1597,62.0,120,120,0.0,64.0
1598,60.0,120,120,0.0,64.0
1599,59.0,120,120,0.0,64.0
1600,67.0,0,240,0.0,64.0
1601,53.0,0,240,0.0,64.0
1602,57.0,120,120,0.0,64.0
1603,72.0,120,120,0.0,64.0
1604,52.0,120,240,0.0,64.0
1605,55.0,120,960,0.0,64.0
1606,71.0,0,120,0.0,64.0
1607,72.0,120,120,0.0,64.0
1608,50.0,0,240,0.0,64.0
1609,74.0,120,120,0.0,64.0
1610,48.0,120,240,0.0,64.0
1611,76.0,120,120,0.0,64.0
1612,76.0,0,120,0.0,64.0
1613,74.0,120,120,0.0,64.0
1614,52.0,120,480,0.0,64.0
1615,72.0,0,120,0.0,64.0
1616,71.0,120,120,0.0,64.0
1617,69.0,0,120,0.0,64.0
1618,68.0,120,120,0.0,64.0
1619,50.0,0,240,0.0,64.0
1620,66.0,0,120,0.0,64.0
1621,64.0,120,0,0.0,64.0
1622,69.0,120,120,0.0,64.0
1623,48.0,0,240,0.0,64.0
1624,68.0,120,120,0.0,64.0
1625,47.0,120,240,0.0,64.0
1626,69.0,120,120,0.0,64.0
1627,71.0,0,120,0.0,64.0
1628,72.0,120,120,0.0,64.0
1629,45.0,120,240,0.0,64.0
1630,69.0,0,120,0.0,64.0
1631,67.0,120,120,0.0,64.0
1632,57.0,0,480,0.0,64.0
1633,65.0,0,120,0.0,64.0
1634,64.0,120,120,0.0,64.0
1635,62.0,120,120,0.0,64.0
1636,55.0,0,240,0.0,64.0
1637,60.0,120,120,0.0,64.0
1638,69.0,0,240,0.0,64.0
1639,59.0,120,120,0.0,64.0
1640,75.0,120,120,0.0,64.0
1641,54.0,0,240,0.0,64.0
1642,57.0,120,600,0.0,64.0
1643,73.0,120,120,0.0,64.0
1644,52.0,120,240,0.0,64.0
1645,75.0,120,120,0.0,64.0
1646,76.0,0,120,0.0,64.0
1647,78.0,0,240,0.0,64.0
1648,51.0,0,240,0.0,64.0
1649,66.0,120,120,0.0,64.0
1650,71.0,120,480,0.0,64.0
1651,57.0,120,120,0.0,64.0
1652,66.0,120,120,0.0,64.0
1653,52.0,0,240,0.0,64.0
1654,55.0,120,120,0.0,64.0
1655,64.0,0,120,0.0,64.0
1656,55.0,120,120,0.0,64.0
1657,76.0,120,480,0.0,64.0
1658,64.0,120,120,0.0,64.0
1659,48.0,0,240,0.0,64.0
1660,54.0,120,120,0.0,64.0
1661,64.0,0,120,0.0,64.0
1662,52.0,120,120,0.0,64.0
1663,69.0,120,240,0.0,64.0
1664,64.0,0,120,0.0,64.0
1665,63.0,120,120,0.0,64.0
1666,47.0,120,240,0.0,64.0
1667,59.0,0,120,0.0,64.0
1668,61.0,120,120,0.0,64.0
1669,63.0,120,120,0.0,64.0
1670,64.0,120,120,0.0,64.0
1671,48.0,0,240,0.0,64.0
1672,63.0,120,120,0.0,64.0
1673,64.0,120,120,0.0,64.0
1674,67.0,120,120,0.0,64.0
1675,49.0,0,240,0.0,64.0
1676,66.0,120,120,0.0,64.0
1677,64.0,120,120,0.0,64.0
1678,63.0,120,120,0.0,64.0
1679,61.0,120,120,0.0,64.0
1680,59.0,120,120,0.0,64.0
1681,50.0,0,240,0.0,64.0
1682,61.0,120,120,0.0,64.0
1683,62.0,120,120,0.0,64.0
1684,64.0,120,120,0.0,64.0
1685,51.0,120,240,0.0,64.0
1686,66.0,120,120,0.0,64.0
1687,69.0,0,120,0.0,64.0
1688,67.0,120,120,0.0,64.0
1689,66.0,120,120,0.0,64.0
1690,71.0,120,120,0.0,64.0
1691,47.0,120,240,0.0,64.0
1692,69.0,0,120,0.0,64.0
1693,67.0,120,120,0.0,64.0
1694,66.0,120,120,0.0,64.0
1695,52.0,0,240,0.0,64.0
1696,67.0,120,120,0.0,64.0
1697,69.0,120,120,0.0,64.0
1698,71.0,120,120,0.0,64.0
1699,40.0,120,240,0.0,64.0
1700,72.0,120,120,0.0,64.0
1701,71.0,0,120,0.0,64.0
1702,72.0,120,120,0.0,64.0
1703,76.0,120,120,0.0,64.0
1704,74.0,120,120,0.0,64.0
1705,43.0,120,240,0.0,64.0
1706,72.0,0,120,0.0,64.0
1707,71.0,120,120,0.0,64.0
1708,69.0,120,120,0.0,64.0
1709,47.0,0,240,0.0,64.0
1710,67.0,120,120,0.0,64.0
1711,69.0,120,120,0.0,64.0
1712,71.0,120,120,0.0,64.0
1713,72.0,120,120,0.0,64.0
1714,74.0,120,120,0.0,64.0
1715,43.0,0,240,0.0,64.0
1716,77.0,120,120,0.0,64.0
1717,76.0,120,120,0.0,64.0
1718,74.0,120,120,0.0,64.0
1719,79.0,120,120,0.0,64.0
1720,47.0,0,240,0.0,64.0
1721,77.0,120,120,0.0,64.0
1722,76.0,120,120,0.0,64.0
1723,74.0,120,120,0.0,64.0
1724,48.0,120,240,0.0,64.0
1725,64.0,0,120,0.0,64.0
1726,66.0,120,120,0.0,64.0
1727,68.0,120,120,0.0,64.0
1728,53.0,0,240,0.0,64.0
1729,69.0,120,120,0.0,64.0
1730,68.0,120,120,0.0,64.0
1731,69.0,120,120,0.0,64.0
1732,72.0,120,120,0.0,64.0
1733,54.0,0,240,0.0,64.0
1734,71.0,120,120,0.0,64.0
1735,69.0,120,120,0.0,64.0
1736,68.0,120,120,0.0,64.0
1737,66.0,120,120,0.0,64.0
1738,55.0,0,240,0.0,64.0
1739,64.0,120,120,0.0,64.0
1740,66.0,120,120,0.0,64.0
1741,68.0,120,120,0.0,64.0
1742,69.0,120,120,0.0,64.0
1743,71.0,120,120,0.0,64.0
1744,56.0,0,240,0.0,64.0
1745,74.0,120,120,0.0,64.0
1746,72.0,120,120,0.0,64.0
1747,71.0,120,120,0.0,64.0
1748,76.0,120,120,0.0,64.0
1749,52.0,120,240,0.0,64.0
1750,74.0,0,120,0.0,64.0
1751,72.0,120,120,0.0,64.0
1752,71.0,120,120,0.0,64.0
1753,57.0,0,240,0.0,64.0
1754,72.0,120,120,0.0,64.0
1755,64.0,0,120,0.0,64.0
1756,71.0,120,120,0.0,64.0
1757,66.0,0,120,0.0,64.0
1758,69.0,120,120,0.0,64.0
1759,68.0,0,120,0.0,64.0
1760,71.0,120,120,0.0,64.0
1761,72.0,0,120,0.0,64.0
1762,69.0,120,120,0.0,64.0
1763,45.0,120,240,0.0,64.0
1764,68.0,0,120,0.0,64.0
1765,71.0,0,120,0.0,64.0
1766,72.0,0,120,0.0,64.0
1767,69.0,120,120,0.0,64.0
1768,76.0,0,120,0.0,64.0
1769,72.0,120,120,0.0,64.0
1770,57.0,120,960,0.0,64.0
1771,71.0,0,120,0.0,64.0
1772,74.0,120,120,0.0,64.0
1773,69.0,0,120,0.0,64.0
1774,72.0,120,120,0.0,64.0
1775,68.0,0,120,0.0,64.0
1776,71.0,120,120,0.0,64.0
1777,69.0,0,120,0.0,64.0
1778,66.0,120,120,0.0,64.0
1779,64.0,120,120,0.0,64.0
1780,71.0,0,240,0.0,64.0
1781,66.0,120,120,0.0,64.0
1782,64.0,0,240,0.0,64.0
1783,68.0,120,120,0.0,64.0
1784,69.0,0,120,0.0,64.0
1785,71.0,120,120,0.0,64.0
1786,56.0,0,240,0.0,64.0
1787,74.0,120,120,0.0,64.0
1788,72.0,120,120,0.0,64.0
1789,52.0,0,240,0.0,64.0
1790,71.0,120,120,0.0,64.0
1791,76.0,120,120,0.0,64.0
1792,54.0,0,240,0.0,64.0
1793,74.0,120,120,0.0,64.0
1794,56.0,0,240,0.0,64.0
1795,72.0,120,120,0.0,64.0
1796,71.0,240,120,0.0,64.0
1797,57.0,120,480,0.0,64.0
1798,69.0,120,120,0.0,64.0
1799,68.0,120,120,0.0,64.0
1800,69.0,0,120,0.0,64.0
1801,72.0,120,120,0.0,64.0
1802,69.0,120,120,0.0,64.0
1803,47.0,0,240,0.0,64.0
1804,68.0,120,120,0.0,64.0
1805,69.0,120,120,0.0,64.0
1806,48.0,0,240,0.0,64.0
1807,64.0,120,120,0.0,64.0
1808,69.0,120,120,0.0,64.0
1809,45.0,120,240,0.0,64.0
1810,60.0,120,120,0.0,64.0
1811,64.0,0,120,0.0,64.0
1812,57.0,0,240,0.0,64.0
1813,53.0,0,240,0.0,64.0
1814,71.0,120,120,0.0,64.0
1815,69.0,120,120,0.0,64.0
1816,71.0,120,120,0.0,64.0
1817,72.0,120,120,0.0,64.0
1818,41.0,0,240,0.0,64.0
1819,76.0,120,120,0.0,64.0
1820,74.0,120,120,0.0,64.0
1821,72.0,120,120,0.0,64.0
1822,45.0,0,240,0.0,64.0
1823,77.0,120,120,0.0,64.0
1824,76.0,120,120,0.0,64.0
1825,74.0,120,120,0.0,64.0
1826,72.0,240,120,0.0,64.0
1827,47.0,0,480,0.0,64.0
1828,74.0,120,1560,0.0,64.0
1829,67.0,120,120,0.0,64.0
1830,66.0,120,120,0.0,64.0
1831,67.0,120,120,0.0,64.0
1832,71.0,120,120,0.0,64.0
1833,67.0,120,120,0.0,64.0
1834,66.0,120,120,0.0,64.0
1835,45.0,0,240,0.0,64.0
1836,67.0,120,120,0.0,64.0
1837,62.0,120,120,0.0,64.0
1838,47.0,0,240,0.0,64.0
1839,67.0,120,120,0.0,64.0
1840,59.0,120,120,0.0,64.0
1841,43.0,0,240,0.0,64.0
1842,62.0,120,120,0.0,64.0
1843,55.0,120,240,0.0,64.0
1844,52.0,0,240,0.0,64.0
1845,72.0,0,120,0.0,64.0
1846,71.0,120,120,0.0,64.0
1847,72.0,120,120,0.0,64.0
1848,53.0,0,240,0.0,64.0
1849,74.0,120,120,0.0,64.0
1850,77.0,120,120,0.0,64.0
1851,76.0,120,120,0.0,64.0
1852,74.0,120,120,0.0,64.0
1853,47.0,0,240,0.0,64.0
1854,79.0,120,120,0.0,64.0
1855,77.0,120,120,0.0,64.0
1856,76.0,120,120,0.0,64.0
1857,74.0,120,120,0.0,64.0
1858,48.0,0,480,0.0,64.0
1859,76.0,120,120,0.0,64.0
1860,72.0,120,120,0.0,64.0
1861,71.0,120,120,0.0,64.0
1862,72.0,120,120,0.0,64.0
1863,76.0,120,120,0.0,64.0
1864,72.0,120,120,0.0,64.0
1865,71.0,120,120,0.0,64.0
1866,72.0,120,120,0.0,64.0
1867,67.0,120,120,0.0,64.0
1868,72.0,120,120,0.0,64.0
1869,64.0,120,120,0.0,64.0
1870,67.0,240,120,0.0,64.0
1871,64.0,0,240,0.0,64.0
1872,60.0,240,0,0.0,64.0
1873,79.0,240,240,0.0,64.0
1874,60.0,0,0,0.0,64.0
1875,48.0,0,240,0.0,64.0
1876,76.0,240,240,0.0,64.0
1877,64.0,240,240,0.0,64.0
1878,60.0,0,240,0.0,64.0
1879,79.0,0,240,0.0,64.0
1880,48.0,0,240,0.0,64.0
1881,81.0,0,240,0.0,64.0
1882,65.0,120,240,0.0,64.0
1883,64.0,0,120,0.0,64.0
1884,60.0,0,240,0.0,64.0
1885,79.0,120,120,0.0,64.0
1886,62.0,120,120,0.0,64.0
1887,77.0,0,120,0.0,64.0
1888,79.0,120,480,0.0,64.0
1889,48.0,0,480,0.0,64.0
1890,64.0,120,120,0.0,64.0
1891,60.0,120,120,0.0,64.0
1892,59.0,120,120,0.0,64.0
1893,60.0,0,120,0.0,64.0
1894,64.0,120,120,0.0,64.0
1895,60.0,120,120,0.0,64.0
1896,59.0,120,120,0.0,64.0
1897,60.0,120,120,0.0,64.0
1898,55.0,120,120,0.0,64.0
1899,60.0,120,120,0.0,64.0
1900,52.0,120,120,0.0,64.0
1901,55.0,240,120,0.0,64.0
1902,48.0,240,240,0.0,64.0
1903,67.0,240,240,0.0,64.0
1904,76.0,0,240,0.0,64.0
1905,48.0,0,240,0.0,64.0
1906,72.0,240,240,0.0,64.0
1907,64.0,0,240,0.0,64.0
1908,36.0,0,240,0.0,64.0
1909,67.0,240,240,0.0,64.0
1910,48.0,0,240,0.0,64.0
1911,76.0,0,240,0.0,64.0
1912,77.0,0,240,0.0,64.0
1913,36.0,120,240,0.0,64.0
1914,69.0,0,240,0.0,64.0
1915,76.0,0,120,0.0,64.0
1916,48.0,0,240,0.0,64.0
1917,67.0,120,120,0.0,64.0
1918,74.0,0,120,0.0,64.0
1919,65.0,120,120,0.0,64.0
1920,67.0,120,120,0.0,64.0
1921,76.0,120,240,0.0,64.0
1922,36.0,0,480,0.0,64.0
1923,64.0,0,120,0.0,64.0
1924,79.0,0,240,0.0,64.0
1925,60.0,120,120,0.0,64.0
1926,64.0,120,120,0.0,64.0
1927,48.0,120,480,0.0,64.0
1928,69.0,120,120,0.0,64.0
1929,72.0,0,240,0.0,64.0
1930,64.0,120,120,0.0,64.0
1931,76.0,0,240,0.0,64.0
1932,60.0,120,120,0.0,64.0
1933,64.0,0,120,0.0,64.0
1934,69.0,120,120,0.0,64.0
1935,72.0,120,120,0.0,64.0
1936,74.0,120,120,0.0,64.0
1937,36.0,120,240,0.0,64.0
1938,76.0,0,120,0.0,64.0
1939,77.0,0,240,0.0,64.0
1940,38.0,120,480,0.0,64.0
1941,65.0,120,120,0.0,64.0
1942,81.0,0,240,0.0,64.0
1943,62.0,120,120,0.0,64.0
1944,65.0,0,120,0.0,64.0
1945,50.0,0,480,0.0,64.0
1946,74.0,120,240,0.0,64.0
1947,71.0,120,120,0.0,64.0
1948,65.0,0,120,0.0,64.0
1949,62.0,120,120,0.0,64.0
1950,77.0,0,240,0.0,64.0
1951,65.0,120,120,0.0,64.0
1952,71.0,120,120,0.0,64.0
1953,74.0,120,120,0.0,64.0
1954,38.0,120,240,0.0,64.0
1955,76.0,120,120,0.0,64.0
1956,77.0,0,120,0.0,64.0
1957,40.0,0,480,0.0,64.0
1958,79.0,120,240,0.0,64.0
1959,67.0,0,120,0.0,64.0
1960,84.0,120,120,0.0,64.0
1961,64.0,0,120,0.0,64.0
1962,67.0,120,120,0.0,64.0
1963,79.0,0,120,0.0,64.0
1964,52.0,0,480,0.0,64.0
1965,76.0,0,240,0.0,64.0
1966,72.0,120,120,0.0,64.0
1967,67.0,120,120,0.0,64.0
1968,79.0,120,120,0.0,64.0
1969,64.0,0,120,0.0,64.0
1970,67.0,0,120,0.0,64.0
1971,76.0,120,0,0.0,64.0
1972,72.0,120,120,0.0,64.0
1973,76.0,120,120,0.0,64.0
1974,77.0,120,120,0.0,64.0
1975,40.0,120,240,0.0,64.0
1976,79.0,0,120,0.0,64.0
1977,81.0,120,120,0.0,64.0
1978,41.0,120,480,0.0,64.0
1979,79.0,120,120,0.0,64.0
1980,74.0,0,120,0.0,64.0
1981,81.0,120,120,0.0,64.0
1982,72.0,0,120,0.0,64.0
1983,82.0,0,120,0.0,64.0
1984,74.0,0,240,0.0,64.0
1985,81.0,120,120,0.0,64.0
1986,53.0,0,480,0.0,64.0
1987,79.0,120,120,0.0,64.0
1988,69.0,0,240,0.0,64.0
1989,77.0,120,120,0.0,64.0
1990,76.0,120,120,0.0,64.0
1991,77.0,120,720,0.0,64.0
1992,74.0,120,120,0.0,64.0
1993,72.0,120,120,0.0,64.0
1994,50.0,0,240,0.0,64.0
1995,71.0,120,120,0.0,64.0
1996,69.0,120,120,0.0,64.0
1997,55.0,0,480,0.0,64.0
1998,71.0,120,120,0.0,64.0
1999,72.0,0,120,0.0,64.0
2000,71.0,120,120,0.0,64.0
2001,74.0,0,240,0.0,64.0
2002,67.0,120,120,0.0,64.0
2003,43.0,0,4080,0.0,64.0
2004,71.0,120,240,0.0,64.0
2005,74.0,120,120,0.0,64.0
2006,76.0,0,120,0.0,64.0
2007,74.0,120,120,0.0,64.0
2008,71.0,0,120,0.0,64.0
2009,77.0,120,120,0.0,64.0
2010,67.0,120,240,0.0,64.0
2011,79.0,0,120,0.0,64.0
2012,71.0,0,240,0.0,64.0
2013,77.0,120,120,0.0,64.0
2014,74.0,120,120,0.0,64.0
2015,72.0,120,120,0.0,64.0
2016,75.0,0,240,0.0,64.0
2017,74.0,120,120,0.0,64.0
2018,72.0,120,240,0.0,64.0
2019,75.0,120,120,0.0,64.0
2020,77.0,0,120,0.0,64.0
2021,79.0,0,240,0.0,64.0
2022,75.0,120,120,0.0,64.0
2023,74.0,120,120,0.0,64.0
2024,72.0,120,120,0.0,64.0
2025,75.0,120,240,0.0,64.0
2026,70.0,0,120,0.0,64.0
2027,69.0,120,120,0.0,64.0
2028,84.0,120,600,0.0,64.0
2029,67.0,120,120,0.0,64.0
2030,66.0,120,120,0.0,64.0
2031,64.0,120,120,0.0,64.0
2032,66.0,0,240,0.0,64.0
2033,82.0,120,120,0.0,64.0
2034,81.0,120,120,0.0,64.0
2035,60.0,0,240,0.0,64.0
2036,79.0,120,120,0.0,64.0
2037,78.0,120,120,0.0,64.0
2038,69.0,120,240,0.0,64.0
2039,81.0,0,120,0.0,64.0
2040,75.0,120,120,0.0,64.0
2041,66.0,120,240,0.0,64.0
2042,74.0,0,120,0.0,64.0
2043,75.0,120,120,0.0,64.0
2044,72.0,120,120,0.0,64.0
2045,79.0,120,120,0.0,64.0
2046,78.0,120,120,0.0,64.0
2047,79.0,0,120,0.0,64.0
2048,74.0,120,120,0.0,64.0
2049,71.0,0,120,0.0,64.0
2050,69.0,120,120,0.0,64.0
2051,48.0,0,240,0.0,64.0
2052,72.0,0,120,0.0,64.0
2053,74.0,0,120,0.0,64.0
2054,71.0,120,120,0.0,64.0
2055,67.0,120,120,0.0,64.0
2056,83.0,0,1080,0.0,64.0
2057,52.0,0,240,0.0,64.0
2058,76.0,120,120,0.0,64.0
2059,54.0,120,240,0.0,64.0
2060,74.0,120,120,0.0,64.0
2061,72.0,0,120,0.0,64.0
2062,71.0,120,120,0.0,64.0
2063,55.0,0,240,0.0,64.0
2064,69.0,120,120,0.0,64.0
2065,47.0,120,240,0.0,64.0
2066,67.0,120,120,0.0,64.0
2067,66.0,0,120,0.0,64.0
2068,64.0,120,120,0.0,64.0
2069,48.0,120,240,0.0,64.0
2070,72.0,0,120,0.0,64.0
2071,66.0,0,120,0.0,64.0
2072,62.0,0,120,0.0,64.0
2073,52.0,0,240,0.0,64.0
2074,71.0,120,120,0.0,64.0
2075,64.0,120,120,0.0,64.0
2076,72.0,0,120,0.0,64.0
2077,81.0,0,1080,0.0,64.0
2078,54.0,120,240,0.0,64.0
2079,60.0,120,120,0.0,64.0
2080,74.0,0,120,0.0,64.0
2081,72.0,120,120,0.0,64.0
2082,55.0,120,240,0.0,64.0
2083,71.0,0,120,0.0,64.0
2084,69.0,120,120,0.0,64.0
2085,57.0,120,240,0.0,64.0
2086,67.0,0,120,0.0,64.0
2087,48.0,120,240,0.0,64.0
2088,66.0,120,120,0.0,64.0
2089,64.0,0,120,0.0,64.0
2090,62.0,120,120,0.0,64.0
2091,50.0,0,240,0.0,64.0
2092,71.0,0,120,0.0,64.0
2093,64.0,120,120,0.0,64.0
2094,54.0,0,240,0.0,64.0
2095,69.0,0,120,0.0,64.0
2096,60.0,120,120,0.0,64.0
2097,71.0,0,120,0.0,64.0
2098,62.0,120,120,0.0,64.0
2099,79.0,120,1080,0.0,64.0
2100,59.0,120,120,0.0,64.0
2101,55.0,120,240,0.0,64.0
2102,72.0,0,120,0.0,64.0
2103,71.0,120,120,0.0,64.0
2104,57.0,120,240,0.0,64.0
2105,69.0,0,120,0.0,64.0
2106,67.0,120,120,0.0,64.0
2107,59.0,0,240,0.0,64.0
2108,66.0,120,120,0.0,64.0
2109,50.0,0,240,0.0,64.0
2110,64.0,120,120,0.0,64.0
2111,62.0,120,120,0.0,64.0
2112,52.0,120,240,0.0,64.0
2113,60.0,0,240,0.0,64.0
2114,78.0,0,120,0.0,64.0
2115,64.0,0,480,0.0,64.0
2116,76.0,120,120,0.0,64.0
2117,55.0,0,240,0.0,64.0
2118,74.0,120,120,0.0,64.0
2119,57.0,0,240,0.0,64.0
2120,72.0,120,120,0.0,64.0
2121,71.0,120,120,0.0,64.0
2122,59.0,120,240,0.0,64.0
2123,69.0,120,120,0.0,64.0
2124,67.0,0,120,0.0,64.0
2125,66.0,120,120,0.0,64.0
2126,60.0,120,240,0.0,64.0
2127,64.0,0,120,0.0,64.0
2128,62.0,120,120,0.0,64.0
2129,52.0,120,240,0.0,64.0
2130,72.0,120,360,0.0,64.0
2131,60.0,0,120,0.0,64.0
2132,54.0,120,240,0.0,64.0
2133,62.0,0,240,0.0,64.0
2134,67.0,0,120,0.0,64.0
2135,72.0,240,240,0.0,64.0
2136,50.0,0,240,0.0,64.0
2137,69.0,120,120,0.0,64.0
2138,66.0,0,120,0.0,64.0
2139,67.0,0,240,0.0,64.0
2140,71.0,0,240,0.0,64.0
2141,55.0,120,240,0.0,64.0
2142,76.0,120,120,0.0,64.0
2143,69.0,120,240,0.0,64.0
2144,48.0,0,240,0.0,64.0
2145,74.0,0,120,0.0,64.0
2146,62.0,0,240,0.0,64.0
2147,50.0,120,240,0.0,64.0
2148,72.0,120,120,0.0,64.0
2149,71.0,0,120,0.0,64.0
2150,66.0,0,240,0.0,64.0
2151,69.0,120,120,0.0,64.0
2152,38.0,0,240,0.0,64.0
2153,67.0,240,120,0.0,64.0
2154,43.0,0,480,0.0,64.0
2155,67.0,120,120,0.0,64.0
2156,66.0,120,120,0.0,64.0
2157,67.0,0,120,0.0,64.0
2158,71.0,120,120,0.0,64.0
2159,67.0,120,120,0.0,64.0
2160,66.0,120,120,0.0,64.0
2161,67.0,120,120,0.0,64.0
2162,62.0,120,120,0.0,64.0
2163,67.0,120,120,0.0,64.0
2164,59.0,120,120,0.0,64.0
2165,62.0,240,120,0.0,64.0
2166,55.0,240,0,0.0,64.0
2167,74.0,0,240,0.0,64.0
2168,83.0,0,240,0.0,64.0
2169,79.0,0,240,0.0,64.0
2170,43.0,0,240,0.0,64.0
2171,71.0,240,240,0.0,64.0
2172,83.0,240,240,0.0,64.0
2173,74.0,0,240,0.0,64.0
2174,55.0,0,240,0.0,64.0
2175,76.0,0,240,0.0,64.0
2176,84.0,0,240,0.0,64.0
2177,43.0,120,240,0.0,64.0
2178,83.0,120,120,0.0,64.0
2179,55.0,0,240,0.0,64.0
2180,74.0,0,120,0.0,64.0
2181,72.0,0,120,0.0,64.0
2182,81.0,120,120,0.0,64.0
2183,74.0,120,480,0.0,64.0
2184,43.0,0,480,0.0,64.0
2185,83.0,120,120,0.0,64.0
2186,79.0,120,120,0.0,64.0
2187,78.0,120,120,0.0,64.0
2188,79.0,0,120,0.0,64.0
2189,83.0,120,120,0.0,64.0
2190,79.0,120,120,0.0,64.0
2191,78.0,120,120,0.0,64.0
2192,79.0,120,120,0.0,64.0
2193,74.0,120,120,0.0,64.0
2194,79.0,120,120,0.0,64.0
2195,71.0,120,120,0.0,64.0
2196,74.0,240,120,0.0,64.0
2197,67.0,240,240,0.0,64.0
2198,55.0,240,240,0.0,64.0
2199,59.0,0,240,0.0,64.0
2200,74.0,0,240,0.0,64.0
2201,71.0,0,240,0.0,64.0
2202,43.0,0,240,0.0,64.0
2203,55.0,240,0,0.0,64.0
2204,59.0,0,240,0.0,64.0
2205,74.0,240,240,0.0,64.0
2206,76.0,0,240,0.0,64.0
2207,60.0,0,240,0.0,64.0
2208,43.0,120,240,0.0,64.0
2209,74.0,0,120,0.0,64.0
2210,55.0,0,240,0.0,64.0
2211,59.0,120,120,0.0,64.0
2212,72.0,0,120,0.0,64.0
2213,57.0,120,120,0.0,64.0
2214,59.0,120,240,0.0,64.0
2215,43.0,0,480,0.0,64.0
2216,74.0,120,120,0.0,64.0
2217,71.0,0,120,0.0,64.0
2218,67.0,120,120,0.0,64.0
2219,62.0,0,240,0.0,64.0
2220,71.0,120,120,0.0,64.0
2221,55.0,0,240,0.0,64.0
2222,76.0,120,120,0.0,64.0
2223,71.0,120,120,0.0,64.0
2224,67.0,120,120,0.0,64.0
2225,59.0,120,240,0.0,64.0
2226,71.0,0,120,0.0,64.0
2227,52.0,120,120,0.0,64.0
2228,79.0,120,600,0.0,64.0
2229,55.0,120,120,0.0,64.0
2230,43.0,0,240,0.0,64.0
2231,57.0,120,120,0.0,64.0
2232,59.0,120,120,0.0,64.0
2233,60.0,0,240,0.0,64.0
2234,45.0,0,480,0.0,64.0
2235,72.0,120,120,0.0,64.0
2236,69.0,120,120,0.0,64.0
2237,64.0,0,240,0.0,64.0
2238,72.0,120,120,0.0,64.0
2239,78.0,120,120,0.0,64.0
2240,57.0,120,240,0.0,64.0
2241,72.0,0,120,0.0,64.0
2242,60.0,120,240,0.0,64.0
2243,69.0,120,120,0.0,64.0
2244,72.0,0,120,0.0,64.0
2245,54.0,120,120,0.0,64.0
2246,81.0,120,600,0.0,64.0
2247,57.0,120,120,0.0,64.0
2248,45.0,0,240,0.0,64.0
2249,59.0,120,120,0.0,64.0
2250,60.0,120,120,0.0,64.0
2251,47.0,120,480,0.0,64.0
2252,62.0,120,240,0.0,64.0
2253,74.0,0,120,0.0,64.0
2254,71.0,0,120,0.0,64.0
2255,67.0,120,120,0.0,64.0
2256,62.0,0,120,0.0,64.0
2257,74.0,0,120,0.0,64.0
2258,79.0,120,120,0.0,64.0
2259,59.0,0,240,0.0,64.0
2260,74.0,120,120,0.0,64.0
2261,71.0,0,120,0.0,64.0
2262,62.0,120,120,0.0,64.0
2263,59.0,0,120,0.0,64.0
2264,74.0,0,120,0.0,64.0
2265,55.0,120,120,0.0,64.0
2266,83.0,0,720,0.0,64.0
2267,59.0,120,120,0.0,64.0
2268,47.0,120,240,0.0,64.0
2269,60.0,120,120,0.0,64.0
2270,62.0,0,120,0.0,64.0
2271,48.0,0,480,0.0,64.0
2272,64.0,120,120,0.0,64.0
2273,62.0,120,120,0.0,64.0
2274,81.0,0,120,0.0,64.0
2275,64.0,120,120,0.0,64.0
2276,80.0,120,120,0.0,64.0
2277,65.0,0,120,0.0,64.0
2278,81.0,120,240,0.0,64.0
2279,64.0,120,120,0.0,64.0
2280,62.0,0,120,0.0,64.0
2281,60.0,120,120,0.0,64.0
2282,76.0,0,240,0.0,64.0
2283,59.0,120,120,0.0,64.0
2284,57.0,120,120,0.0,64.0
2285,84.0,120,720,0.0,64.0
2286,55.0,120,120,0.0,64.0
2287,54.0,120,120,0.0,64.0
2288,57.0,120,240,0.0,64.0
2289,52.0,0,120,0.0,64.0
2290,62.0,120,480,0.0,64.0
2291,54.0,120,120,0.0,64.0
2292,55.0,0,120,0.0,64.0
2293,81.0,0,240,0.0,64.0
2294,54.0,120,120,0.0,64.0
2295,50.0,0,0,0.0,64.0
2296,78.0,120,240,0.0,64.0
2297,57.0,120,120,0.0,64.0
2298,59.0,0,120,0.0,64.0
2299,57.0,120,120,0.0,64.0
2300,81.0,120,240,0.0,64.0
2301,54.0,0,120,0.0,64.0
2302,60.0,120,120,0.0,64.0
2303,74.0,0,240,0.0,64.0
2304,62.0,120,120,0.0,64.0
2305,60.0,120,120,0.0,64.0
2306,78.0,120,240,0.0,64.0
2307,57.0,0,120,0.0,64.0
2308,58.0,0,240,0.0,64.0
2309,79.0,120,120,0.0,64.0
2310,81.0,120,120,0.0,64.0
2311,55.0,0,240,0.0,64.0
2312,82.0,120,120,0.0,64.0
2313,84.0,120,120,0.0,64.0
2314,62.0,0,240,0.0,64.0
2315,82.0,120,120,0.0,64.0
2316,81.0,120,120,0.0,64.0
2317,58.0,120,240,0.0,64.0
2318,79.0,120,120,0.0,64.0
2319,77.0,0,120,0.0,64.0
2320,67.0,120,600,0.0,64.0
2321,76.0,120,120,0.0,64.0
2322,74.0,120,120,0.0,64.0
2323,73.0,120,120,0.0,64.0
2324,71.0,120,120,0.0,64.0
2325,73.0,0,240,0.0,64.0
2326,65.0,120,120,0.0,64.0
2327,67.0,120,240,0.0,64.0
2328,64.0,120,120,0.0,64.0
2329,62.0,0,120,0.0,64.0
2330,61.0,120,120,0.0,64.0
2331,76.0,120,240,0.0,64.0
2332,64.0,0,120,0.0,64.0
2333,58.0,120,120,0.0,64.0
2334,73.0,120,240,0.0,64.0
2335,57.0,0,120,0.0,64.0
2336,58.0,120,120,0.0,64.0
2337,79.0,120,600,0.0,64.0
2338,55.0,120,120,0.0,64.0
2339,62.0,120,120,0.0,64.0
2340,60.0,120,120,0.0,64.0
2341,62.0,120,600,0.0,64.0
2342,78.0,120,120,0.0,64.0
2343,54.0,120,240,0.0,64.0
2344,76.0,120,120,0.0,64.0
2345,74.0,0,120,0.0,64.0
2346,83.0,120,600,0.0,64.0
2347,55.0,120,240,0.0,64.0
2348,71.0,0,120,0.0,64.0
2349,69.0,120,120,0.0,64.0
2350,57.0,120,240,0.0,64.0
2351,67.0,0,120,0.0,64.0
2352,74.0,120,600,0.0,64.0
2353,59.0,120,240,0.0,64.0
2354,84.0,0,120,0.0,64.0
2355,50.0,120,240,0.0,64.0
2356,83.0,120,120,0.0,64.0
2357,81.0,0,120,0.0,64.0
2358,52.0,0,240,0.0,64.0
2359,79.0,120,720,0.0,64.0
2360,71.0,120,120,0.0,64.0
2361,55.0,120,240,0.0,64.0
2362,76.0,120,120,0.0,64.0
2363,74.0,0,120,0.0,64.0
2364,57.0,0,240,0.0,64.0
2365,72.0,120,120,0.0,64.0
2366,71.0,0,120,0.0,64.0
2367,59.0,0,240,0.0,64.0
2368,69.0,120,120,0.0,64.0
2369,78.0,0,120,0.0,64.0
2370,76.0,0,120,0.0,64.0
2371,67.0,120,120,0.0,64.0
2372,66.0,0,240,0.0,64.0
2373,60.0,0,240,0.0,64.0
2374,74.0,120,120,0.0,64.0
2375,72.0,120,0,0.0,64.0
2376,54.0,0,240,0.0,64.0
2377,71.0,120,120,0.0,64.0
2378,69.0,120,120,0.0,64.0
2379,55.0,120,240,0.0,64.0
2380,71.0,0,120,0.0,64.0
2381,69.0,120,120,0.0,64.0
2382,47.0,0,240,0.0,64.0
2383,67.0,120,120,0.0,64.0
2384,48.0,120,240,0.0,64.0
2385,76.0,0,120,0.0,64.0
2386,74.0,120,120,0.0,64.0
2387,50.0,0,240,0.0,64.0
2388,72.0,120,120,0.0,64.0
2389,79.0,120,600,0.0,64.0
2390,52.0,0,240,0.0,64.0
2391,77.0,120,120,0.0,64.0
2392,43.0,120,240,0.0,64.0
2393,76.0,120,120,0.0,64.0
2394,74.0,0,120,0.0,64.0
2395,72.0,120,720,0.0,64.0
2396,45.0,0,240,0.0,64.0
2397,76.0,120,120,0.0,64.0
2398,48.0,120,240,0.0,64.0
2399,81.0,120,120,0.0,64.0
2400,79.0,0,120,0.0,64.0
2401,77.0,120,120,0.0,64.0
2402,50.0,0,240,0.0,64.0
2403,76.0,0,120,0.0,64.0
2404,74.0,0,120,0.0,64.0
2405,52.0,0,240,0.0,64.0
2406,71.0,120,120,0.0,64.0
2407,72.0,0,120,0.0,64.0
2408,69.0,120,120,0.0,64.0
2409,67.0,120,120,0.0,64.0
2410,71.0,120,240,0.0,64.0
2411,53.0,0,240,0.0,64.0
2412,65.0,0,120,0.0,64.0
2413,64.0,120,120,0.0,64.0
2414,47.0,120,240,0.0,64.0
2415,77.0,120,360,0.0,64.0
2416,62.0,0,120,0.0,64.0
2417,60.0,0,240,0.0,64.0
2418,48.0,0,240,0.0,64.0
2419,76.0,120,120,0.0,64.0
2420,74.0,120,120,0.0,64.0
2421,48.0,0,240,0.0,64.0
2422,67.0,0,240,0.0,64.0
2423,76.0,120,120,0.0,64.0
2424,36.0,0,240,0.0,64.0
2425,64.0,120,240,0.0,64.0
2426,79.0,120,120,0.0,64.0
2427,76.0,0,120,0.0,64.0
2428,74.0,120,120,0.0,64.0
2429,48.0,0,240,0.0,64.0
2430,67.0,120,240,0.0,64.0
2431,76.0,0,120,0.0,64.0
2432,72.0,120,120,0.0,64.0
2433,36.0,0,240,0.0,64.0
2434,76.0,120,120,0.0,64.0
2435,69.0,120,120,0.0,64.0
2436,48.0,0,240,0.0,64.0
2437,72.0,120,120,0.0,64.0
2438,38.0,120,240,0.0,64.0
2439,65.0,0,120,0.0,64.0
2440,81.0,120,240,0.0,64.0
2441,50.0,0,240,0.0,64.0
2442,64.0,120,120,0.0,64.0
2443,65.0,0,120,0.0,64.0
2444,38.0,120,240,0.0,64.0
2445,69.0,120,120,0.0,64.0
2446,77.0,0,240,0.0,64.0
2447,65.0,0,120,0.0,64.0
2448,50.0,0,240,0.0,64.0
2449,81.0,120,240,0.0,64.0
2450,64.0,120,120,0.0,64.0
2451,65.0,0,120,0.0,64.0
2452,62.0,120,120,0.0,64.0
2453,38.0,0,240,0.0,64.0
2454,82.0,120,600,0.0,64.0
2455,65.0,120,120,0.0,64.0
2456,58.0,120,120,0.0,64.0
2457,50.0,120,240,0.0,64.0
2458,62.0,0,120,0.0,64.0
2459,40.0,120,240,0.0,64.0
2460,55.0,0,240,0.0,64.0
2461,79.0,0,120,0.0,64.0
2462,70.0,0,240,0.0,64.0
2463,77.0,120,120,0.0,64.0
2464,52.0,0,240,0.0,64.0
2465,79.0,120,120,0.0,64.0
2466,67.0,120,240,0.0,64.0
2467,40.0,0,240,0.0,64.0
2468,82.0,120,120,0.0,64.0
2469,79.0,0,120,0.0,64.0
2470,52.0,0,240,0.0,64.0
2471,77.0,120,120,0.0,64.0
2472,70.0,0,240,0.0,64.0
2473,79.0,120,120,0.0,64.0
2474,76.0,120,120,0.0,64.0
2475,40.0,0,240,0.0,64.0
2476,79.0,120,120,0.0,64.0
2477,72.0,120,120,0.0,64.0
2478,52.0,0,240,0.0,64.0
2479,76.0,120,120,0.0,64.0
2480,41.0,120,6000,0.0,64.0
2481,69.0,120,120,0.0,64.0
2482,81.0,120,120,0.0,64.0
2483,79.0,120,120,0.0,64.0
2484,65.0,0,240,0.0,64.0
2485,81.0,120,120,0.0,64.0
2486,69.0,120,240,0.0,64.0
2487,84.0,120,120,0.0,64.0
2488,81.0,0,120,0.0,64.0
2489,79.0,120,120,0.0,64.0
2490,72.0,0,240,0.0,64.0
2491,81.0,120,120,0.0,64.0
2492,77.0,120,120,0.0,64.0
2493,75.0,120,240,0.0,64.0
2494,81.0,0,120,0.0,64.0
2495,74.0,120,120,0.0,64.0
2496,84.0,120,360,0.0,64.0
2497,72.0,120,120,0.0,64.0
2498,74.0,0,240,0.0,64.0
2499,82.0,120,120,0.0,64.0
2500,70.0,120,240,0.0,64.0
2501,81.0,120,120,0.0,64.0
2502,82.0,0,120,0.0,64.0
2503,84.0,120,120,0.0,64.0
2504,65.0,0,240,0.0,64.0
2505,82.0,120,120,0.0,64.0
2506,70.0,0,240,0.0,64.0
2507,81.0,120,120,0.0,64.0
2508,82.0,120,120,0.0,64.0
2509,74.0,120,240,0.0,64.0
2510,77.0,120,120,0.0,64.0
2511,81.0,0,120,0.0,64.0
2512,82.0,120,360,0.0,64.0
2513,72.0,120,120,0.0,64.0
2514,70.0,120,120,0.0,64.0
2515,72.0,0,240,0.0,64.0
2516,81.0,120,120,0.0,64.0
2517,69.0,120,240,0.0,64.0
2518,79.0,120,120,0.0,64.0
2519,81.0,0,120,0.0,64.0
2520,65.0,0,240,0.0,64.0
2521,82.0,120,120,0.0,64.0
2522,81.0,120,120,0.0,64.0
2523,69.0,0,240,0.0,64.0
2524,79.0,120,120,0.0,64.0
2525,81.0,120,120,0.0,64.0
2526,72.0,120,240,0.0,64.0
2527,77.0,120,120,0.0,64.0
2528,79.0,0,120,0.0,64.0
2529,70.0,120,120,0.0,64.0
2530,81.0,120,360,0.0,64.0
2531,69.0,120,120,0.0,64.0
2532,70.0,0,240,0.0,64.0
2533,79.0,120,120,0.0,64.0
2534,77.0,120,120,0.0,64.0
2535,67.0,120,240,0.0,64.0
2536,79.0,0,120,0.0,64.0
2537,82.0,120,120,0.0,64.0
2538,64.0,120,240,0.0,64.0
2539,79.0,0,120,0.0,64.0
2540,77.0,120,120,0.0,64.0
2541,67.0,120,240,0.0,64.0
2542,79.0,0,120,0.0,64.0
2543,70.0,120,240,0.0,64.0
2544,76.0,120,120,0.0,64.0
2545,77.0,0,120,0.0,64.0
2546,69.0,120,120,0.0,64.0
2547,79.0,0,480,0.0,64.0
2548,67.0,120,120,0.0,64.0
2549,69.0,120,120,0.0,64.0
2550,65.0,0,120,0.0,64.0
2551,72.0,0,240,0.0,64.0
2552,64.0,120,120,0.0,64.0
2553,53.0,0,240,0.0,64.0
2554,65.0,120,120,0.0,64.0
2555,77.0,0,240,0.0,64.0
2556,50.0,120,240,0.0,64.0
2557,69.0,120,120,0.0,64.0
2558,65.0,0,120,0.0,64.0
2559,64.0,120,120,0.0,64.0
2560,81.0,120,480,0.0,64.0
2561,53.0,120,240,0.0,64.0
2562,65.0,0,120,0.0,64.0
2563,62.0,120,120,0.0,64.0
2564,47.0,0,240,0.0,64.0
2565,65.0,0,120,0.0,64.0
2566,59.0,120,120,0.0,64.0
2567,74.0,0,480,0.0,64.0
2568,50.0,120,240,0.0,64.0
2569,62.0,0,120,0.0,64.0
2570,55.0,120,120,0.0,64.0
2571,40.0,120,240,0.0,64.0
2572,64.0,0,120,0.0,64.0
2573,71.0,0,240,0.0,64.0
2574,62.0,120,120,0.0,64.0
2575,52.0,0,240,0.0,64.0
2576,64.0,120,120,0.0,64.0
2577,76.0,0,240,0.0,64.0
2578,67.0,120,120,0.0,64.0
2579,48.0,0,240,0.0,64.0
2580,64.0,120,120,0.0,64.0
2581,52.0,0,240,0.0,64.0
2582,62.0,120,120,0.0,64.0
2583,79.0,120,480,0.0,64.0
2584,64.0,120,120,0.0,64.0
2585,45.0,0,240,0.0,64.0
2586,60.0,120,120,0.0,64.0
2587,64.0,0,120,0.0,64.0
2588,72.0,0,480,0.0,64.0
2589,48.0,120,240,0.0,64.0
2590,57.0,120,120,0.0,64.0
2591,60.0,0,120,0.0,64.0
2592,53.0,120,120,0.0,64.0
2593,38.0,120,240,0.0,64.0
2594,62.0,0,120,0.0,64.0
2595,69.0,120,240,0.0,64.0
2596,60.0,120,120,0.0,64.0
2597,50.0,0,240,0.0,64.0
2598,62.0,0,120,0.0,64.0
2599,65.0,120,120,0.0,64.0
2600,74.0,0,240,0.0,64.0
2601,47.0,120,240,0.0,64.0
2602,62.0,0,120,0.0,64.0
2603,60.0,120,120,0.0,64.0
2604,77.0,0,480,0.0,64.0
2605,50.0,120,240,0.0,64.0
2606,62.0,0,120,0.0,64.0
2607,59.0,120,120,0.0,64.0
2608,43.0,0,240,0.0,64.0
2609,62.0,120,120,0.0,64.0
2610,47.0,0,240,0.0,64.0
2611,71.0,120,240,0.0,64.0
2612,55.0,120,120,0.0,64.0
2613,59.0,0,120,0.0,64.0
2614,52.0,120,120,0.0,64.0
2615,36.0,0,6000,0.0,64.0
2616,64.0,120,120,0.0,64.0
2617,62.0,120,120,0.0,64.0
2618,72.0,120,240,0.0,64.0
2619,64.0,0,120,0.0,64.0
2620,67.0,120,120,0.0,64.0
2621,76.0,0,240,0.0,64.0
2622,64.0,120,120,0.0,64.0
2623,62.0,120,120,0.0,64.0
2624,79.0,120,240,0.0,64.0
2625,64.0,0,120,0.0,64.0
2626,82.0,0,240,0.0,64.0
2627,60.0,120,120,0.0,64.0
2628,64.0,120,120,0.0,64.0
2629,81.0,120,120,0.0,64.0
2630,67.0,120,360,0.0,64.0
2631,79.0,120,120,0.0,64.0
2632,81.0,0,240,0.0,64.0
2633,65.0,120,120,0.0,64.0
2634,64.0,120,120,0.0,64.0
2635,77.0,120,240,0.0,64.0
2636,65.0,0,120,0.0,64.0
2637,67.0,120,120,0.0,64.0
2638,72.0,0,240,0.0,64.0
2639,65.0,120,120,0.0,64.0
2640,64.0,120,120,0.0,64.0
2641,77.0,120,240,0.0,64.0
2642,65.0,0,120,0.0,64.0
2643,60.0,120,120,0.0,64.0
2644,81.0,0,240,0.0,64.0
2645,64.0,120,120,0.0,64.0
2646,79.0,120,120,0.0,64.0
2647,65.0,120,360,0.0,64.0
2648,77.0,120,120,0.0,64.0
2649,79.0,0,240,0.0,64.0
2650,64.0,120,120,0.0,64.0
2651,76.0,0,240,0.0,64.0
2652,62.0,120,120,0.0,64.0
2653,64.0,120,120,0.0,64.0
2654,65.0,120,120,0.0,64.0
2655,72.0,0,240,0.0,64.0
2656,64.0,120,120,0.0,64.0
2657,76.0,0,240,0.0,64.0
2658,62.0,120,120,0.0,64.0
2659,64.0,120,120,0.0,64.0
2660,60.0,120,120,0.0,64.0
2661,79.0,120,240,0.0,64.0
2662,62.0,0,120,0.0,64.0
2663,64.0,120,360,0.0,64.0
2664,77.0,120,120,0.0,64.0
2665,76.0,120,120,0.0,64.0
2666,77.0,120,240,0.0,64.0
2667,62.0,0,120,0.0,64.0
2668,74.0,120,240,0.0,64.0
2669,60.0,120,120,0.0,64.0
2670,62.0,0,120,0.0,64.0
2671,71.0,0,240,0.0,64.0
2672,65.0,120,120,0.0,64.0
2673,62.0,120,120,0.0,64.0
2674,60.0,120,120,0.0,64.0
2675,74.0,0,240,0.0,64.0
2676,62.0,120,120,0.0,64.0
2677,77.0,120,120,0.0,64.0
2678,59.0,0,240,0.0,64.0
2679,76.0,120,120,0.0,64.0
2680,74.0,120,120,0.0,64.0
2681,71.0,0,240,0.0,64.0
2682,76.0,120,120,0.0,64.0
2683,72.0,120,120,0.0,64.0
2684,77.0,0,120,0.0,64.0
2685,67.0,0,120,0.0,64.0
2686,76.0,120,120,0.0,64.0
2687,43.0,120,240,0.0,64.0
2688,65.0,120,120,0.0,64.0
2689,74.0,0,120,0.0,64.0
2690,76.0,0,120,0.0,64.0
2691,67.0,0,120,0.0,64.0
2692,72.0,120,120,0.0,64.0
2693,45.0,120,240,0.0,64.0
2694,81.0,0,120,0.0,64.0
2695,47.0,120,240,0.0,64.0
2696,79.0,120,120,0.0,64.0
2697,77.0,0,120,0.0,64.0
2698,76.0,120,120,0.0,64.0
2699,48.0,0,240,0.0,64.0
2700,74.0,120,120,0.0,64.0
2701,40.0,120,240,0.0,64.0
2702,72.0,120,120,0.0,64.0
2703,70.0,0,120,0.0,64.0
2704,41.0,0,240,0.0,64.0
2705,69.0,120,120,0.0,64.0
2706,65.0,0,120,0.0,64.0
2707,70.0,120,120,0.0,64.0
2708,45.0,120,240,0.0,64.0
2709,64.0,120,120,0.0,64.0
2710,67.0,0,120,0.0,64.0
2711,65.0,0,120,0.0,64.0
2712,69.0,0,120,0.0,64.0
2713,65.0,120,120,0.0,64.0
2714,47.0,120,240,0.0,64.0
2715,79.0,0,120,0.0,64.0
2716,77.0,120,120,0.0,64.0
2717,48.0,0,240,0.0,64.0
2718,76.0,120,120,0.0,64.0
2719,74.0,120,120,0.0,64.0
2720,50.0,120,240,0.0,64.0
2721,72.0,0,120,0.0,64.0
2722,41.0,120,240,0.0,64.0
2723,71.0,120,120,0.0,64.0
2724,69.0,0,120,0.0,64.0
2725,67.0,0,120,0.0,64.0
2726,43.0,0,240,0.0,64.0
2727,69.0,0,120,0.0,64.0
2728,64.0,120,120,0.0,64.0
2729,47.0,0,240,0.0,64.0
2730,62.0,120,120,0.0,64.0
2731,65.0,0,120,0.0,64.0
2732,67.0,0,120,0.0,64.0
2733,64.0,120,0,0.0,64.0
2734,48.0,120,240,0.0,64.0
2735,77.0,0,120,0.0,64.0
2736,50.0,0,240,0.0,64.0
2737,76.0,120,120,0.0,64.0
2738,74.0,120,120,0.0,64.0
2739,72.0,120,120,0.0,64.0
2740,52.0,120,240,0.0,64.0
2741,71.0,0,120,0.0,64.0
2742,43.0,0,240,0.0,64.0
2743,69.0,120,120,0.0,64.0
2744,67.0,120,120,0.0,64.0
2745,45.0,0,240,0.0,64.0
2746,65.0,0,240,0.0,64.0
2747,71.0,120,120,0.0,64.0
2748,48.0,120,240,0.0,64.0
2749,69.0,120,120,0.0,64.0
2750,67.0,0,120,0.0,64.0
2751,65.0,120,120,0.0,64.0
2752,50.0,120,240,0.0,64.0
2753,64.0,0,120,0.0,64.0
2754,52.0,0,240,0.0,64.0
2755,74.0,0,480,0.0,64.0
2756,62.0,120,120,0.0,64.0
2757,60.0,120,120,0.0,64.0
2758,53.0,120,240,0.0,64.0
2759,59.0,120,120,0.0,64.0
2760,57.0,0,120,0.0,64.0
2761,77.0,120,360,0.0,64.0
2762,45.0,120,240,0.0,64.0
2763,55.0,120,120,0.0,64.0
2764,53.0,0,120,0.0,64.0
2765,47.0,0,240,0.0,64.0
2766,55.0,0,240,0.0,64.0
2767,72.0,120,120,0.0,64.0
2768,74.0,120,120,0.0,64.0
2769,43.0,0,240,0.0,64.0
2770,65.0,240,240,0.0,64.0
2771,71.0,0,120,0.0,64.0
2772,72.0,120,240,0.0,64.0
2773,64.0,0,240,0.0,64.0
2774,48.0,0,240,0.0,64.0
2775,69.0,120,120,0.0,64.0
2776,74.0,0,240,0.0,64.0
2777,53.0,0,240,0.0,64.0
2778,65.0,120,120,0.0,64.0
2779,55.0,0,240,0.0,64.0
2780,67.0,120,0,0.0,64.0
2781,64.0,120,120,0.0,64.0
2782,71.0,0,240,0.0,64.0
2783,43.0,0,240,0.0,64.0
2784,62.0,120,120,0.0,64.0
2785,60.0,480,0,0.0,64.0
2786,72.0,0,480,0.0,64.0
2787,48.0,0,480,0.0,64.0
2788,69.0,60,123,0.0,64.0
2789,45.0,0,483,0.0,64.0
2790,72.0,60,63,0.0,64.0
2791,76.0,240,63,0.0,64.0
2792,77.0,240,243,0.0,64.0
2793,57.0,240,243,0.0,64.0
2794,69.0,240,243,0.0,64.0
2795,59.0,240,483,0.0,64.0
2796,68.0,0,243,0.0,64.0
2797,47.0,120,243,0.0,64.0
2798,69.0,60,123,0.0,64.0
2799,48.0,0,483,0.0,64.0
2800,72.0,60,63,0.0,64.0
2801,76.0,120,63,0.0,64.0
2802,81.0,120,3,0.0,64.0
2803,50.0,120,243,0.0,64.0
2804,81.0,120,3,0.0,64.0
2805,81.0,120,3,0.0,64.0
2806,52.0,120,243,0.0,64.0
2807,79.0,60,63,0.0,64.0
2808,77.0,0,63,0.0,64.0
2809,50.0,120,243,0.0,64.0
2810,79.0,120,123,0.0,64.0
2811,70.0,0,123,0.0,64.0
2812,69.0,120,123,0.0,64.0
2813,49.0,120,243,0.0,64.0
2814,79.0,60,243,0.0,64.0
2815,50.0,120,243,0.0,64.0
2816,77.0,60,63,0.0,64.0
2817,76.0,0,63,0.0,64.0
2818,48.0,0,243,0.0,64.0
2819,77.0,120,123,0.0,64.0
2820,69.0,120,123,0.0,64.0
2821,47.0,0,243,0.0,64.0
2822,68.0,120,123,0.0,64.0
2823,77.0,60,123,0.0,64.0
2824,48.0,60,243,0.0,64.0
2825,76.0,60,63,0.0,64.0
2826,74.0,60,63,0.0,64.0
2827,77.0,60,63,0.0,64.0
2828,76.0,0,63,0.0,64.0
2829,50.0,0,243,0.0,64.0
2830,74.0,60,63,0.0,64.0
2831,72.0,60,63,0.0,64.0
2832,71.0,60,63,0.0,64.0
2833,69.0,60,63,0.0,64.0
2834,52.0,60,243,0.0,64.0
2835,68.0,60,63,0.0,64.0
2836,74.0,60,63,0.0,64.0
2837,72.0,60,63,0.0,64.0
2838,71.0,0,63,0.0,64.0
2839,72.0,60,63,0.0,64.0
2840,45.0,120,243,0.0,64.0
2841,71.0,120,63,0.0,64.0
2842,69.0,120,243,0.0,64.0
2843,57.0,120,243,0.0,64.0
2844,71.0,0,123,0.0,64.0
2845,55.0,0,243,0.0,64.0
2846,72.0,120,123,0.0,64.0
2847,73.0,120,123,0.0,64.0
2848,74.0,120,123,0.0,64.0
2849,54.0,60,243,0.0,64.0
2850,75.0,60,183,0.0,64.0
2851,59.0,60,243,0.0,64.0
2852,76.0,60,63,0.0,64.0
2853,78.0,60,63,0.0,64.0
2854,79.0,0,63,0.0,64.0
2855,81.0,60,63,0.0,64.0
2856,47.0,0,243,0.0,64.0
2857,79.0,60,63,0.0,64.0
2858,78.0,60,63,0.0,64.0
2859,81.0,120,63,0.0,64.0
2860,52.0,0,483,0.0,64.0
2861,64.0,60,123,0.0,64.0
2862,79.0,60,303,0.0,64.0
2863,67.0,60,63,0.0,64.0
2864,71.0,60,63,0.0,64.0
2865,72.0,0,243,0.0,64.0
2866,78.0,60,63,0.0,64.0
2867,76.0,60,63,0.0,64.0
2868,78.0,120,63,0.0,64.0
2869,79.0,120,123,0.0,64.0
2870,40.0,0,243,0.0,64.0
2871,80.0,240,123,0.0,64.0
2872,64.0,60,243,0.0,64.0
2873,81.0,60,303,0.0,64.0
2874,42.0,0,483,0.0,64.0
2875,63.0,120,243,0.0,64.0
2876,79.0,60,63,0.0,64.0
2877,78.0,60,63,0.0,64.0
2878,79.0,0,63,0.0,64.0
2879,81.0,120,123,0.0,64.0
2880,54.0,120,243,0.0,64.0
2881,82.0,0,123,0.0,64.0
2882,64.0,60,123,0.0,64.0
2883,55.0,60,483,0.0,64.0
2884,83.0,60,303,0.0,64.0
2885,67.0,60,63,0.0,64.0
2886,71.0,60,63,0.0,64.0
2887,81.0,0,63,0.0,64.0
2888,84.0,60,63,0.0,64.0
2889,76.0,60,3,0.0,64.0
2890,83.0,0,63,0.0,64.0
2891,57.0,120,243,0.0,64.0
2892,81.0,60,63,0.0,64.0
2893,76.0,0,3,0.0,64.0
2894,79.0,0,63,0.0,64.0
2895,76.0,60,3,0.0,64.0
2896,78.0,60,63,0.0,64.0
2897,76.0,0,63,0.0,64.0
2898,79.0,60,123,0.0,64.0
2899,59.0,0,243,0.0,64.0
2900,78.0,0,123,0.0,64.0
2901,74.0,60,63,0.0,64.0
2902,72.0,120,63,0.0,64.0
2903,57.0,120,243,0.0,64.0
2904,74.0,120,123,0.0,64.0
2905,65.0,0,123,0.0,64.0
2906,83.0,0,243,0.0,64.0
2907,56.0,120,243,0.0,64.0
2908,64.0,120,123,0.0,64.0
2909,74.0,60,243,0.0,64.0
2910,57.0,0,243,0.0,64.0
2911,76.0,0,243,0.0,64.0
2912,72.0,60,63,0.0,64.0
2913,71.0,120,63,0.0,64.0
2914,72.0,120,123,0.0,64.0
2915,55.0,120,243,0.0,64.0
2916,64.0,0,123,0.0,64.0
2917,54.0,0,243,0.0,64.0
2918,81.0,0,363,0.0,64.0
2919,63.0,120,123,0.0,64.0
2920,72.0,60,123,0.0,64.0
2921,55.0,0,243,0.0,64.0
2922,71.0,60,63,0.0,64.0
2923,69.0,60,63,0.0,64.0
2924,79.0,0,123,0.0,64.0
2925,72.0,60,63,0.0,64.0
2926,71.0,60,63,0.0,64.0
2927,69.0,60,63,0.0,64.0
2928,57.0,60,243,0.0,64.0
2929,78.0,0,63,0.0,64.0
2930,79.0,60,63,0.0,64.0
2931,67.0,0,63,0.0,64.0
2932,66.0,60,63,0.0,64.0
2933,81.0,60,243,0.0,64.0
2934,64.0,0,63,0.0,64.0
2935,63.0,60,63,0.0,64.0
2936,59.0,0,243,0.0,64.0
2937,69.0,0,63,0.0,64.0
2938,67.0,60,63,0.0,64.0
2939,75.0,60,123,0.0,64.0
2940,66.0,0,63,0.0,64.0
2941,76.0,0,63,0.0,64.0
2942,67.0,60,63,0.0,64.0
2943,52.0,120,243,0.0,64.0
2944,66.0,60,63,0.0,64.0
2945,78.0,0,63,0.0,64.0
2946,79.0,60,63,0.0,64.0
2947,64.0,120,243,0.0,64.0
2948,81.0,0,63,0.0,64.0
2949,82.0,0,243,0.0,64.0
2950,55.0,120,243,0.0,64.0
2951,62.0,0,123,0.0,64.0
2952,61.0,120,123,0.0,64.0
2953,57.0,0,243,0.0,64.0
2954,73.0,60,123,0.0,64.0
2955,67.0,0,123,0.0,64.0
2956,50.0,120,243,0.0,64.0
2957,65.0,60,63,0.0,64.0
2958,74.0,0,63,0.0,64.0
2959,76.0,60,63,0.0,64.0
2960,64.0,0,63,0.0,64.0
2961,77.0,60,63,0.0,64.0
2962,62.0,120,243,0.0,64.0
2963,79.0,0,63,0.0,64.0
2964,80.0,120,243,0.0,64.0
2965,53.0,0,243,0.0,64.0
2966,60.0,0,123,0.0,64.0
2967,55.0,60,243,0.0,64.0
2968,59.0,120,123,0.0,64.0
2969,71.0,0,123,0.0,64.0
2970,65.0,0,123,0.0,64.0
2971,64.0,60,63,0.0,64.0
2972,72.0,0,123,0.0,64.0
2973,48.0,0,243,0.0,64.0
2974,62.0,60,63,0.0,64.0
2975,60.0,60,243,0.0,64.0
2976,76.0,60,63,0.0,64.0
2977,79.0,120,63,0.0,64.0
2978,84.0,120,243,0.0,64.0
2979,47.0,0,243,0.0,64.0
2980,62.0,60,63,0.0,64.0
2981,64.0,0,63,0.0,64.0
2982,45.0,60,243,0.0,64.0
2983,65.0,60,123,0.0,64.0
2984,72.0,0,63,0.0,64.0
2985,74.0,60,63,0.0,64.0
2986,66.0,0,123,0.0,64.0
2987,76.0,0,63,0.0,64.0
2988,74.0,60,63,0.0,64.0
2989,67.0,60,123,0.0,64.0
2990,47.0,0,243,0.0,64.0
2991,72.0,0,63,0.0,64.0
2992,71.0,60,63,0.0,64.0
2993,68.0,60,183,0.0,64.0
2994,74.0,60,63,0.0,64.0
2995,52.0,0,243,0.0,64.0
2996,83.0,60,543,0.0,64.0
2997,69.0,60,63,0.0,64.0
2998,71.0,60,63,0.0,64.0
2999,72.0,60,63,0.0,64.0
3000,74.0,60,63,0.0,64.0
3001,40.0,60,243,0.0,64.0
3002,72.0,60,63,0.0,64.0
3003,71.0,60,63,0.0,64.0
3004,74.0,0,63,0.0,64.0
3005,72.0,0,243,0.0,64.0
3006,45.0,120,243,0.0,64.0
3007,76.0,60,63,0.0,64.0
3008,74.0,60,63,0.0,64.0
3009,76.0,0,63,0.0,64.0
3010,47.0,60,243,0.0,64.0
3011,81.0,120,123,0.0,64.0
3012,79.0,60,183,0.0,64.0
3013,49.0,60,243,0.0,64.0
3014,77.0,60,63,0.0,64.0
3015,76.0,60,63,0.0,64.0
3016,79.0,0,63,0.0,64.0
3017,77.0,120,243,0.0,64.0
3018,50.0,60,483,0.0,64.0
3019,69.0,60,63,0.0,64.0
3020,67.0,60,63,0.0,64.0
3021,69.0,0,63,0.0,64.0
3022,74.0,120,123,0.0,64.0
3023,72.0,60,183,0.0,64.0
3024,81.0,60,303,0.0,64.0
3025,70.0,60,63,0.0,64.0
3026,69.0,60,63,0.0,64.0
3027,72.0,60,63,0.0,64.0
3028,38.0,120,243,0.0,64.0
3029,70.0,0,243,0.0,64.0
3030,74.0,60,63,0.0,64.0
3031,73.0,60,63,0.0,64.0
3032,74.0,0,63,0.0,64.0
3033,79.0,180,123,0.0,64.0
3034,77.0,60,183,0.0,64.0
3035,50.0,0,483,0.0,64.0
3036,69.0,60,243,0.0,64.0
3037,76.0,60,63,0.0,64.0
3038,74.0,60,63,0.0,64.0
3039,77.0,0,63,0.0,64.0
3040,68.0,0,243,0.0,64.0
3041,71.0,60,63,0.0,64.0
3042,77.0,60,63,0.0,64.0
3043,76.0,60,63,0.0,64.0
3044,71.0,60,63,0.0,64.0
3045,72.0,60,63,0.0,64.0
3046,69.0,0,243,0.0,64.0
3047,48.0,60,243,0.0,64.0
3048,77.0,60,63,0.0,64.0
3049,76.0,60,63,0.0,64.0
3050,72.0,0,63,0.0,64.0
3051,71.0,0,243,0.0,64.0
3052,74.0,60,63,0.0,64.0
3053,44.0,60,243,0.0,64.0
3054,77.0,60,63,0.0,64.0
3055,76.0,60,63,0.0,64.0
3056,74.0,0,63,0.0,64.0
3057,72.0,60,63,0.0,64.0
3058,64.0,60,303,0.0,64.0
3059,45.0,60,243,0.0,64.0
3060,71.0,60,63,0.0,64.0
3061,69.0,60,63,0.0,64.0
3062,71.0,0,63,0.0,64.0
3063,43.0,120,243,0.0,64.0
3064,72.0,0,123,0.0,64.0
3065,62.0,60,63,0.0,64.0
3066,73.0,0,123,0.0,64.0
3067,64.0,60,63,0.0,64.0
3068,69.0,0,63,0.0,64.0
3069,57.0,0,543,0.0,64.0
3070,74.0,120,123,0.0,64.0
3071,41.0,60,243,0.0,64.0
3072,75.0,0,123,0.0,64.0
3073,48.0,60,123,0.0,64.0
3074,76.0,60,63,0.0,64.0
3075,74.0,0,63,0.0,64.0
3076,76.0,60,63,0.0,64.0
3077,50.0,30,123,0.0,64.0
3078,77.0,0,63,0.0,64.0
3079,71.0,30,33,0.0,64.0
3080,52.0,30,243,0.0,64.0
3081,72.0,60,33,0.0,64.0
3082,56.0,60,63,0.0,64.0
3083,71.0,60,303,0.0,64.0
3084,54.0,60,63,0.0,64.0
3085,40.0,60,243,0.0,64.0
3086,56.0,0,3,0.0,64.0
3087,57.0,60,33,0.0,64.0
3088,56.0,60,123,0.0,64.0
3089,69.0,0,3,0.0,64.0
3090,57.0,0,3,0.0,64.0
3091,45.0,0,483,0.0,64.0
3092,71.0,60,63,0.0,64.0
3093,72.0,60,63,0.0,64.0
3094,69.0,0,63,0.0,64.0
3095,68.0,60,63,0.0,64.0
3096,59.0,60,123,0.0,64.0
3097,69.0,0,3,0.0,64.0
3098,74.0,60,63,0.0,64.0
3099,69.0,0,63,0.0,64.0
3100,68.0,60,63,0.0,64.0
3101,60.0,60,123,0.0,64.0
3102,76.0,60,63,0.0,64.0
3103,69.0,0,3,0.0,64.0
3104,69.0,0,63,0.0,64.0
3105,62.0,60,123,0.0,64.0
3106,68.0,60,63,0.0,64.0
3107,69.0,0,3,0.0,64.0
3108,77.0,60,63,0.0,64.0
3109,69.0,0,63,0.0,64.0
3110,60.0,0,123,0.0,64.0
3111,68.0,60,63,0.0,64.0
3112,76.0,60,63,0.0,64.0
3113,69.0,60,3,0.0,64.0
3114,69.0,0,63,0.0,64.0
3115,68.0,60,63,0.0,64.0
3116,59.0,0,123,0.0,64.0
3117,74.0,60,63,0.0,64.0
3118,69.0,60,3,0.0,64.0
3119,71.0,0,63,0.0,64.0
3120,72.0,60,123,0.0,64.0
3121,57.0,60,63,0.0,64.0
3122,45.0,0,243,0.0,64.0
3123,59.0,0,63,0.0,64.0
3124,81.0,60,123,0.0,64.0
3125,60.0,60,63,0.0,64.0
3126,57.0,0,63,0.0,64.0
3127,71.0,60,123,0.0,64.0
3128,56.0,60,63,0.0,64.0
3129,57.0,0,63,0.0,64.0
3130,62.0,60,63,0.0,64.0
3131,81.0,60,123,0.0,64.0
3132,57.0,0,63,0.0,64.0
3133,72.0,60,123,0.0,64.0
3134,56.0,60,63,0.0,64.0
3135,57.0,0,63,0.0,64.0
3136,64.0,60,63,0.0,64.0
3137,81.0,0,123,0.0,64.0
3138,57.0,60,63,0.0,64.0
3139,74.0,60,123,0.0,64.0
3140,56.0,60,63,0.0,64.0
3141,57.0,0,63,0.0,64.0
3142,81.0,60,123,0.0,64.0
3143,65.0,60,63,0.0,64.0
3144,57.0,0,63,0.0,64.0
3145,72.0,60,123,0.0,64.0
3146,56.0,60,63,0.0,64.0
3147,57.0,0,63,0.0,64.0
3148,64.0,60,63,0.0,64.0
3149,81.0,0,123,0.0,64.0
3150,57.0,60,63,0.0,64.0
3151,71.0,60,123,0.0,64.0
3152,56.0,60,63,0.0,64.0
3153,57.0,0,63,0.0,64.0
3154,62.0,60,63,0.0,64.0
3155,81.0,60,123,0.0,64.0
3156,59.0,0,63,0.0,64.0
3157,60.0,60,63,0.0,64.0
3158,45.0,0,243,0.0,64.0
3159,69.0,60,123,0.0,64.0
3160,57.0,0,63,0.0,64.0
3161,59.0,60,63,0.0,64.0
3162,76.0,60,183,0.0,64.0
3163,60.0,60,63,0.0,64.0
3164,62.0,0,63,0.0,64.0
3165,47.0,0,243,0.0,64.0
3166,64.0,0,63,0.0,64.0
3167,74.0,60,63,0.0,64.0
3168,66.0,60,63,0.0,64.0
3169,72.0,0,63,0.0,64.0
3170,71.0,60,63,0.0,64.0
3171,68.0,0,63,0.0,64.0
3172,48.0,60,243,0.0,64.0
3173,69.0,60,63,0.0,64.0
3174,67.0,60,63,0.0,64.0
3175,66.0,60,63,0.0,64.0
3176,64.0,0,63,0.0,64.0
3177,50.0,0,243,0.0,64.0
3178,67.0,60,63,0.0,64.0
3179,66.0,60,63,0.0,64.0
3180,64.0,60,63,0.0,64.0
3181,72.0,60,243,0.0,64.0
3182,38.0,0,243,0.0,64.0
3183,66.0,0,3,0.0,64.0
3184,69.0,60,63,0.0,64.0
3185,62.0,60,63,0.0,64.0
3186,66.0,0,63,0.0,64.0
3187,57.0,60,63,0.0,64.0
3188,60.0,60,63,0.0,64.0
3189,59.0,60,63,0.0,64.0
3190,57.0,60,63,0.0,64.0
3191,59.0,60,63,0.0,64.0
3192,43.0,0,243,0.0,64.0
3193,55.0,60,63,0.0,64.0
3194,74.0,60,183,0.0,64.0
3195,57.0,60,63,0.0,64.0
3196,59.0,60,63,0.0,64.0
3197,60.0,0,63,0.0,64.0
3198,45.0,0,243,0.0,64.0
3199,62.0,60,63,0.0,64.0
3200,72.0,0,63,0.0,64.0
3201,64.0,0,63,0.0,64.0
3202,71.0,60,63,0.0,64.0
3203,65.0,0,63,0.0,64.0
3204,69.0,60,63,0.0,64.0
3205,47.0,0,243,0.0,64.0
3206,67.0,60,63,0.0,64.0
3207,65.0,60,63,0.0,64.0
3208,64.0,60,63,0.0,64.0
3209,62.0,60,63,0.0,64.0
3210,48.0,0,243,0.0,64.0
3211,65.0,60,63,0.0,64.0
3212,64.0,60,63,0.0,64.0
3213,62.0,60,63,0.0,64.0
3214,36.0,0,243,0.0,64.0
3215,70.0,0,243,0.0,64.0
3216,64.0,0,3,0.0,64.0
3217,67.0,60,63,0.0,64.0
3218,60.0,60,63,0.0,64.0
3219,64.0,60,63,0.0,64.0
3220,55.0,60,63,0.0,64.0
3221,58.0,60,63,0.0,64.0
3222,57.0,60,63,0.0,64.0
3223,55.0,120,63,0.0,64.0
3224,41.0,0,243,0.0,64.0
3225,57.0,120,243,0.0,64.0
3226,69.0,60,63,0.0,64.0
3227,67.0,60,63,0.0,64.0
3228,69.0,0,63,0.0,64.0
3229,74.0,0,123,0.0,64.0
3230,53.0,60,63,0.0,64.0
3231,52.0,60,63,0.0,64.0
3232,72.0,60,183,0.0,64.0
3233,53.0,60,63,0.0,64.0
3234,42.0,0,243,0.0,64.0
3235,57.0,60,123,0.0,64.0
3236,71.0,0,63,0.0,64.0
3237,69.0,60,63,0.0,64.0
3238,62.0,60,183,0.0,64.0
3239,72.0,60,63,0.0,64.0
3240,43.0,0,243,0.0,64.0
3241,71.0,0,243,0.0,64.0
3242,59.0,60,63,0.0,64.0
3243,57.0,60,63,0.0,64.0
3244,59.0,120,63,0.0,64.0
3245,64.0,60,123,0.0,64.0
3246,67.0,0,63,0.0,64.0
3247,66.0,60,63,0.0,64.0
3248,62.0,60,183,0.0,64.0
3249,67.0,60,63,0.0,64.0
3250,44.0,0,243,0.0,64.0
3251,71.0,60,123,0.0,64.0
3252,60.0,0,63,0.0,64.0
3253,59.0,60,63,0.0,64.0
3254,76.0,60,183,0.0,64.0
3255,62.0,60,63,0.0,64.0
3256,45.0,0,243,0.0,64.0
3257,60.0,120,243,0.0,64.0
3258,72.0,60,63,0.0,64.0
3259,71.0,60,63,0.0,64.0
3260,72.0,0,63,0.0,64.0
3261,77.0,0,123,0.0,64.0
3262,57.0,60,63,0.0,64.0
3263,76.0,60,183,0.0,64.0
3264,55.0,60,63,0.0,64.0
3265,57.0,60,3,0.0,64.0
3266,60.0,60,123,0.0,64.0
3267,74.0,0,63,0.0,64.0
3268,72.0,60,63,0.0,64.0
3269,65.0,60,183,0.0,64.0
3270,76.0,0,63,0.0,64.0
3271,74.0,120,243,0.0,64.0
3272,59.0,0,243,0.0,64.0
3273,62.0,60,63,0.0,64.0
3274,60.0,60,63,0.0,64.0
3275,62.0,0,63,0.0,64.0
3276,71.0,60,63,0.0,64.0
3277,69.0,0,3,0.0,64.0
3278,65.0,60,183,0.0,64.0
3279,71.0,60,63,0.0,64.0
3280,47.0,0,243,0.0,64.0
3281,74.0,0,123,0.0,64.0
3282,64.0,60,63,0.0,64.0
3283,79.0,60,243,0.0,64.0
3284,62.0,60,63,0.0,64.0
3285,65.0,60,63,0.0,64.0
3286,64.0,60,63,0.0,64.0
3287,48.0,0,243,0.0,64.0
3288,62.0,0,63,0.0,64.0
3289,84.0,0,123,0.0,64.0
3290,64.0,60,63,0.0,64.0
3291,60.0,60,63,0.0,64.0
3292,74.0,60,123,0.0,64.0
3293,59.0,60,63,0.0,64.0
3294,60.0,0,63,0.0,64.0
3295,84.0,0,123,0.0,64.0
3296,65.0,60,63,0.0,64.0
3297,60.0,60,63,0.0,64.0
3298,59.0,60,63,0.0,64.0
3299,76.0,0,123,0.0,64.0
3300,60.0,60,63,0.0,64.0
3301,67.0,60,63,0.0,64.0
3302,84.0,60,123,0.0,64.0
3303,60.0,0,63,0.0,64.0
3304,59.0,60,63,0.0,64.0
3305,77.0,60,123,0.0,64.0
3306,60.0,0,63,0.0,64.0
3307,69.0,60,63,0.0,64.0
3308,84.0,0,123,0.0,64.0
3309,60.0,60,63,0.0,64.0
3310,59.0,60,63,0.0,64.0
3311,76.0,0,123,0.0,64.0
3312,60.0,60,63,0.0,64.0
3313,67.0,60,63,0.0,64.0
3314,84.0,60,123,0.0,64.0
3315,60.0,0,63,0.0,64.0
3316,59.0,60,63,0.0,64.0
3317,74.0,60,123,0.0,64.0
3318,60.0,0,63,0.0,64.0
3319,84.0,0,123,0.0,64.0
3320,65.0,60,63,0.0,64.0
3321,62.0,60,63,0.0,64.0
3322,36.0,0,483,0.0,64.0
3323,64.0,0,123,0.0,64.0
3324,72.0,60,63,0.0,64.0
3325,74.0,60,63,0.0,64.0
3326,76.0,60,63,0.0,64.0
3327,72.0,0,63,0.0,64.0
3328,62.0,0,123,0.0,64.0
3329,71.0,60,63,0.0,64.0
3330,72.0,60,3,0.0,64.0
3331,77.0,60,63,0.0,64.0
3332,72.0,0,63,0.0,64.0
3333,64.0,60,123,0.0,64.0
3334,71.0,60,63,0.0,64.0
3335,72.0,0,3,0.0,64.0
3336,79.0,60,63,0.0,64.0
3337,72.0,0,63,0.0,64.0
3338,65.0,0,123,0.0,64.0
3339,71.0,60,63,0.0,64.0
3340,72.0,60,3,0.0,64.0
3341,81.0,60,63,0.0,64.0
3342,72.0,0,63,0.0,64.0
3343,71.0,60,63,0.0,64.0
3344,64.0,60,123,0.0,64.0
3345,79.0,60,63,0.0,64.0
3346,72.0,0,3,0.0,64.0
3347,72.0,0,63,0.0,64.0
3348,62.0,0,123,0.0,64.0
3349,71.0,60,63,0.0,64.0
3350,72.0,60,3,0.0,64.0
3351,77.0,60,63,0.0,64.0
3352,74.0,0,63,0.0,64.0
3353,76.0,60,303,0.0,64.0
3354,60.0,60,123,0.0,64.0
3355,48.0,0,483,0.0,64.0
3356,64.0,60,63,0.0,64.0
3357,67.0,60,63,0.0,64.0
3358,69.0,60,243,0.0,64.0
3359,74.0,60,63,0.0,64.0
3360,72.0,60,63,0.0,64.0
3361,74.0,0,63,0.0,64.0
3362,76.0,60,63,0.0,64.0
3363,36.0,240,243,0.0,64.0
3364,77.0,60,63,0.0,64.0
3365,79.0,60,63,0.0,64.0
3366,81.0,0,63,0.0,64.0
3367,77.0,60,303,0.0,64.0
3368,38.0,0,483,0.0,64.0
3369,60.0,60,243,0.0,64.0
3370,59.0,0,243,0.0,64.0
3371,76.0,60,63,0.0,64.0
3372,74.0,60,63,0.0,64.0
3373,76.0,60,63,0.0,64.0
3374,77.0,60,63,0.0,64.0
3375,50.0,120,243,0.0,64.0
3376,79.0,60,63,0.0,64.0
3377,81.0,60,63,0.0,64.0
3378,83.0,0,63,0.0,64.0
3379,60.0,60,123,0.0,64.0
3380,79.0,60,303,0.0,64.0
3381,52.0,0,483,0.0,64.0
3382,64.0,60,63,0.0,64.0
3383,67.0,60,63,0.0,64.0
3384,77.0,60,63,0.0,64.0
3385,72.0,0,3,0.0,64.0
3386,81.0,60,63,0.0,64.0
3387,79.0,0,63,0.0,64.0
3388,53.0,120,243,0.0,64.0
3389,72.0,60,3,0.0,64.0
3390,77.0,60,63,0.0,64.0
3391,76.0,60,63,0.0,64.0
3392,72.0,0,3,0.0,64.0
3393,74.0,60,63,0.0,64.0
3394,72.0,0,63,0.0,64.0
3395,76.0,60,123,0.0,64.0
3396,55.0,0,243,0.0,64.0
3397,74.0,120,123,0.0,64.0
3398,71.0,60,63,0.0,64.0
3399,69.0,0,63,0.0,64.0
3400,71.0,120,123,0.0,64.0
3401,53.0,120,243,0.0,64.0
3402,62.0,0,123,0.0,64.0
3403,79.0,0,243,0.0,64.0
3404,60.0,120,123,0.0,64.0
3405,52.0,120,243,0.0,64.0
3406,70.0,60,243,0.0,64.0
3407,72.0,0,243,0.0,64.0
3408,53.0,120,243,0.0,64.0
3409,69.0,60,63,0.0,64.0
3410,67.0,0,63,0.0,64.0
3411,69.0,120,123,0.0,64.0
3412,52.0,0,243,0.0,64.0
3413,60.0,120,123,0.0,64.0
3414,59.0,120,123,0.0,64.0
3415,77.0,0,363,0.0,64.0
3416,50.0,0,243,0.0,64.0
3417,69.0,60,123,0.0,64.0
3418,67.0,60,63,0.0,64.0
3419,52.0,0,243,0.0,64.0
3420,65.0,60,63,0.0,64.0
3421,76.0,0,123,0.0,64.0
3422,69.0,60,63,0.0,64.0
3423,67.0,60,63,0.0,64.0
3424,74.0,0,63,0.0,64.0
3425,53.0,60,243,0.0,64.0
3426,65.0,60,63,0.0,64.0
3427,64.0,60,63,0.0,64.0
3428,76.0,0,63,0.0,64.0
3429,62.0,60,63,0.0,64.0
3430,77.0,60,243,0.0,64.0
3431,60.0,0,63,0.0,64.0
3432,55.0,0,243,0.0,64.0
3433,59.0,60,63,0.0,64.0
3434,65.0,0,63,0.0,64.0
3435,64.0,60,63,0.0,64.0
3436,71.0,60,123,0.0,64.0
3437,62.0,0,63,0.0,64.0
3438,72.0,0,243,0.0,64.0
3439,48.0,120,243,0.0,64.0
3440,64.0,60,63,0.0,64.0
3441,62.0,120,63,0.0,64.0
3442,60.0,120,123,0.0,64.0
3443,62.0,0,123,0.0,64.0
3444,63.0,120,123,0.0,64.0
3445,58.0,0,243,0.0,64.0
3446,64.0,120,123,0.0,64.0
3447,65.0,120,123,0.0,64.0
3448,57.0,60,243,0.0,64.0
3449,66.0,60,183,0.0,64.0
3450,62.0,0,243,0.0,64.0
3451,67.0,60,63,0.0,64.0
3452,69.0,60,63,0.0,64.0
3453,71.0,60,63,0.0,64.0
3454,50.0,0,243,0.0,64.0
3455,72.0,60,63,0.0,64.0
3456,71.0,60,63,0.0,64.0
3457,69.0,60,63,0.0,64.0
3458,72.0,120,63,0.0,64.0
3459,67.0,60,123,0.0,64.0
3460,55.0,0,483,0.0,64.0
3461,71.0,60,63,0.0,64.0
3462,74.0,60,63,0.0,64.0
3463,76.0,0,243,0.0,64.0
3464,69.0,60,63,0.0,64.0
3465,67.0,60,63,0.0,64.0
3466,69.0,60,63,0.0,64.0
3467,71.0,60,63,0.0,64.0
3468,43.0,0,243,0.0,64.0
3469,72.0,60,63,0.0,64.0
3470,74.0,60,63,0.0,64.0
3471,76.0,240,63,0.0,64.0
3472,45.0,60,483,0.0,64.0
3473,72.0,60,303,0.0,64.0
3474,67.0,60,243,0.0,64.0
3475,66.0,0,243,0.0,64.0
3476,71.0,60,63,0.0,64.0
3477,69.0,60,63,0.0,64.0
3478,71.0,0,63,0.0,64.0
3479,57.0,120,243,0.0,64.0
3480,72.0,60,63,0.0,64.0
3481,74.0,60,63,0.0,64.0
3482,76.0,60,63,0.0,64.0
3483,78.0,0,63,0.0,64.0
3484,67.0,60,123,0.0,64.0
3485,59.0,0,243,0.0,64.0
3486,71.0,60,63,0.0,64.0
3487,47.0,60,243,0.0,64.0
3488,74.0,0,3,0.0,64.0
3489,72.0,0,63,0.0,64.0
3490,79.0,60,3,0.0,64.0
3491,76.0,60,63,0.0,64.0
3492,74.0,0,63,0.0,64.0
3493,79.0,0,3,0.0,64.0
3494,72.0,60,63,0.0,64.0
3495,48.0,0,243,0.0,64.0
3496,71.0,0,63,0.0,64.0
3497,69.0,60,63,0.0,64.0
3498,79.0,60,3,0.0,64.0
3499,67.0,120,63,0.0,64.0
3500,71.0,0,123,0.0,64.0
3501,50.0,0,243,0.0,64.0
3502,69.0,120,123,0.0,64.0
3503,78.0,60,63,0.0,64.0
3504,76.0,0,63,0.0,64.0
3505,48.0,120,243,0.0,64.0
3506,78.0,120,123,0.0,64.0
3507,69.0,0,123,0.0,64.0
3508,67.0,120,123,0.0,64.0
3509,74.0,0,243,0.0,64.0
3510,47.0,120,243,0.0,64.0
3511,77.0,60,243,0.0,64.0
3512,48.0,0,243,0.0,64.0
3513,67.0,120,243,0.0,64.0
3514,76.0,60,63,0.0,64.0
3515,74.0,0,63,0.0,64.0
3516,76.0,120,123,0.0,64.0
3517,47.0,120,243,0.0,64.0
3518,67.0,0,123,0.0,64.0
3519,66.0,120,123,0.0,64.0
3520,45.0,0,243,0.0,64.0
3521,76.0,60,123,0.0,64.0
3522,74.0,60,63,0.0,64.0
3523,47.0,0,243,0.0,64.0
3524,72.0,0,63,0.0,64.0
3525,76.0,60,63,0.0,64.0
3526,71.0,0,123,0.0,64.0
3527,74.0,60,63,0.0,64.0
3528,69.0,60,63,0.0,64.0
3529,72.0,0,63,0.0,64.0
3530,48.0,0,243,0.0,64.0
3531,71.0,0,63,0.0,64.0
3532,69.0,60,63,0.0,64.0
3533,67.0,60,63,0.0,64.0
3534,66.0,60,63,0.0,64.0
3535,50.0,60,243,0.0,64.0
3536,72.0,0,63,0.0,64.0
3537,66.0,0,123,0.0,64.0
3538,71.0,60,63,0.0,64.0
3539,69.0,0,63,0.0,64.0
3540,71.0,60,63,0.0,64.0
3541,43.0,0,243,0.0,64.0
3542,69.0,120,63,0.0,64.0
3543,67.0,120,123,0.0,64.0
3544,55.0,120,243,0.0,64.0
3545,69.0,0,123,0.0,64.0
3546,53.0,0,243,0.0,64.0
3547,70.0,120,123,0.0,64.0
3548,71.0,120,123,0.0,64.0
3549,52.0,60,243,0.0,64.0
3550,72.0,120,123,0.0,64.0
3551,73.0,60,183,0.0,64.0
3552,57.0,60,243,0.0,64.0
3553,74.0,60,63,0.0,64.0
3554,76.0,60,63,0.0,64.0
3555,77.0,0,63,0.0,64.0
3556,79.0,60,63,0.0,64.0
3557,45.0,60,243,0.0,64.0
3558,77.0,60,63,0.0,64.0
3559,76.0,60,63,0.0,64.0
3560,79.0,0,63,0.0,64.0
3561,77.0,60,63,0.0,64.0
3562,50.0,60,243,0.0,64.0
3563,62.0,60,63,0.0,64.0
3564,64.0,60,63,0.0,64.0
3565,65.0,0,63,0.0,64.0
3566,52.0,0,243,0.0,64.0
3567,67.0,60,3,0.0,64.0
3568,69.0,0,3,0.0,64.0
3569,65.0,0,63,0.0,64.0
3570,71.0,60,63,0.0,64.0
3571,64.0,60,63,0.0,64.0
3572,73.0,0,63,0.0,64.0
3573,74.0,60,303,0.0,64.0
3574,53.0,0,243,0.0,64.0
3575,62.0,60,63,0.0,64.0
3576,60.0,60,63,0.0,64.0
3577,58.0,60,63,0.0,64.0
3578,57.0,60,63,0.0,64.0
3579,55.0,0,243,0.0,64.0
3580,58.0,60,243,0.0,64.0
3581,72.0,60,63,0.0,64.0
3582,70.0,60,63,0.0,64.0
3583,69.0,0,63,0.0,64.0
3584,70.0,60,63,0.0,64.0
3585,43.0,0,243,0.0,64.0
3586,65.0,60,243,0.0,64.0
3587,74.0,60,63,0.0,64.0
3588,67.0,60,63,0.0,64.0
3589,70.0,0,63,0.0,64.0
3590,62.0,60,63,0.0,64.0
3591,65.0,60,63,0.0,64.0
3592,64.0,60,63,0.0,64.0
3593,62.0,60,63,0.0,64.0
3594,64.0,60,63,0.0,64.0
3595,48.0,0,243,0.0,64.0
3596,60.0,60,63,0.0,64.0
3597,62.0,60,63,0.0,64.0
3598,64.0,60,63,0.0,64.0
3599,50.0,0,243,0.0,64.0
3600,67.0,60,3,0.0,64.0
3601,65.0,0,3,0.0,64.0
3602,64.0,0,63,0.0,64.0
3603,69.0,60,63,0.0,64.0
3604,71.0,60,63,0.0,64.0
3605,62.0,0,63,0.0,64.0
3606,60.0,60,63,0.0,64.0
3607,72.0,60,303,0.0,64.0
3608,52.0,60,243,0.0,64.0
3609,58.0,60,63,0.0,64.0
3610,57.0,60,63,0.0,64.0
3611,55.0,0,63,0.0,64.0
3612,53.0,0,243,0.0,64.0
3613,57.0,0,243,0.0,64.0
3614,70.0,60,63,0.0,64.0
3615,69.0,60,63,0.0,64.0
3616,67.0,60,63,0.0,64.0
3617,69.0,60,63,0.0,64.0
3618,41.0,0,243,0.0,64.0
3619,63.0,0,243,0.0,64.0
3620,72.0,60,63,0.0,64.0
3621,65.0,60,63,0.0,64.0
3622,69.0,60,63,0.0,64.0
3623,60.0,60,63,0.0,64.0
3624,63.0,60,63,0.0,64.0
3625,62.0,60,63,0.0,64.0
3626,60.0,120,63,0.0,64.0
3627,46.0,120,243,0.0,64.0
3628,62.0,60,63,0.0,64.0
3629,60.0,60,63,0.0,64.0
3630,62.0,0,63,0.0,64.0
3631,67.0,60,123,0.0,64.0
3632,70.0,0,63,0.0,64.0
3633,65.0,60,183,0.0,64.0
3634,69.0,60,63,0.0,64.0
3635,70.0,60,63,0.0,64.0
3636,47.0,60,243,0.0,64.0
3637,74.0,60,123,0.0,64.0
3638,64.0,0,63,0.0,64.0
3639,79.0,60,183,0.0,64.0
3640,62.0,60,63,0.0,64.0
3641,65.0,0,63,0.0,64.0
3642,64.0,120,243,0.0,64.0
3643,48.0,0,243,0.0,64.0
3644,76.0,60,63,0.0,64.0
3645,74.0,60,63,0.0,64.0
3646,76.0,0,63,0.0,64.0
3647,81.0,0,123,0.0,64.0
3648,60.0,60,63,0.0,64.0
3649,79.0,60,183,0.0,64.0
3650,59.0,60,63,0.0,64.0
3651,60.0,60,63,0.0,64.0
3652,64.0,0,123,0.0,64.0
3653,49.0,0,243,0.0,64.0
3654,77.0,60,63,0.0,64.0
3655,76.0,60,63,0.0,64.0
3656,69.0,60,183,0.0,64.0
3657,79.0,60,63,0.0,64.0
3658,77.0,60,783,0.0,64.0
3659,50.0,0,243,0.0,64.0
3660,65.0,60,63,0.0,64.0
3661,64.0,60,63,0.0,64.0
3662,65.0,120,63,0.0,64.0
3663,70.0,180,123,0.0,64.0
3664,69.0,60,183,0.0,64.0
3665,48.0,0,243,0.0,64.0
3666,67.0,60,63,0.0,64.0
3667,65.0,60,63,0.0,64.0
3668,69.0,60,63,0.0,64.0
3669,46.0,0,243,0.0,64.0
3670,67.0,60,783,0.0,64.0
3671,74.0,60,63,0.0,64.0
3672,73.0,60,63,0.0,64.0
3673,74.0,120,63,0.0,64.0
3674,79.0,180,123,0.0,64.0
3675,77.0,60,183,0.0,64.0
3676,58.0,60,243,0.0,64.0
3677,76.0,60,63,0.0,64.0
3678,74.0,60,63,0.0,64.0
3679,76.0,0,63,0.0,64.0
3680,57.0,0,483,0.0,64.0
3681,73.0,60,123,0.0,64.0
3682,69.0,0,63,0.0,64.0
3683,81.0,60,123,0.0,64.0
3684,67.0,60,63,0.0,64.0
3685,64.0,0,63,0.0,64.0
3686,65.0,60,63,0.0,64.0
3687,74.0,0,123,0.0,64.0
3688,69.0,60,63,0.0,64.0
3689,81.0,60,123,0.0,64.0
3690,67.0,60,63,0.0,64.0
3691,62.0,0,63,0.0,64.0
3692,76.0,60,123,0.0,64.0
3693,61.0,60,63,0.0,64.0
3694,64.0,0,63,0.0,64.0
3695,81.0,0,123,0.0,64.0
3696,61.0,60,63,0.0,64.0
3697,57.0,60,63,0.0,64.0
3698,62.0,60,63,0.0,64.0
3699,77.0,0,123,0.0,64.0
3700,64.0,60,63,0.0,64.0
3701,81.0,0,123,0.0,64.0
3702,62.0,60,63,0.0,64.0
3703,57.0,60,63,0.0,64.0
3704,64.0,60,63,0.0,64.0
3705,79.0,0,123,0.0,64.0
3706,65.0,60,63,0.0,64.0
3707,81.0,60,123,0.0,64.0
3708,64.0,60,63,0.0,64.0
3709,57.0,0,63,0.0,64.0
3710,77.0,60,123,0.0,64.0
3711,62.0,60,63,0.0,64.0
3712,64.0,0,63,0.0,64.0
3713,62.0,60,63,0.0,64.0
3714,81.0,60,123,0.0,64.0
3715,57.0,0,63,0.0,64.0
3716,61.0,0,123,0.0,64.0
3717,76.0,60,63,0.0,64.0
3718,45.0,0,483,0.0,64.0
3719,81.0,60,63,0.0,64.0
3720,69.0,0,123,0.0,64.0
3721,79.0,60,63,0.0,64.0
3722,76.0,60,63,0.0,64.0
3723,62.0,60,123,0.0,64.0
3724,77.0,60,63,0.0,64.0
3725,81.0,0,63,0.0,64.0
3726,77.0,60,63,0.0,64.0
3727,69.0,60,123,0.0,64.0
3728,74.0,0,63,0.0,64.0
3729,73.0,60,63,0.0,64.0
3730,64.0,0,123,0.0,64.0
3731,76.0,60,63,0.0,64.0
3732,73.0,60,63,0.0,64.0
3733,69.0,0,63,0.0,64.0
3734,74.0,60,63,0.0,64.0
3735,65.0,60,123,0.0,64.0
3736,76.0,0,63,0.0,64.0
3737,74.0,60,63,0.0,64.0
3738,69.0,0,63,0.0,64.0
3739,67.0,0,123,0.0,64.0
3740,76.0,60,63,0.0,64.0
3741,77.0,60,63,0.0,64.0
3742,76.0,60,63,0.0,64.0
3743,69.0,0,63,0.0,64.0
3744,74.0,60,63,0.0,64.0
3745,65.0,0,123,0.0,64.0
3746,76.0,60,63,0.0,64.0
3747,74.0,60,63,0.0,64.0
3748,69.0,0,63,0.0,64.0
3749,73.0,60,63,0.0,64.0
3750,64.0,60,183,0.0,64.0
3751,57.0,0,243,0.0,64.0
3752,71.0,60,63,0.0,64.0
3753,69.0,60,423,0.0,64.0
3754,65.0,60,63,0.0,64.0
3755,64.0,60,63,0.0,64.0
3756,55.0,0,243,0.0,64.0
3757,62.0,60,63,0.0,64.0
3758,61.0,60,63,0.0,64.0
3759,59.0,60,63,0.0,64.0
3760,57.0,0,243,0.0,64.0
3761,53.0,0,243,0.0,64.0
3762,67.0,60,63,0.0,64.0
3763,69.0,60,63,0.0,64.0
3764,71.0,120,63,0.0,64.0
3765,52.0,60,243,0.0,64.0
3766,72.0,120,123,0.0,64.0
3767,73.0,60,183,0.0,64.0
3768,64.0,60,543,0.0,64.0
3769,57.0,60,243,0.0,64.0
3770,74.0,60,63,0.0,64.0
3771,76.0,60,63,0.0,64.0
3772,77.0,0,63,0.0,64.0
3773,79.0,60,63,0.0,64.0
3774,45.0,0,243,0.0,64.0
3775,77.0,60,63,0.0,64.0
3776,76.0,60,63,0.0,64.0
3777,79.0,60,63,0.0,64.0
3778,50.0,0,243,0.0,64.0
3779,77.0,120,243,0.0,64.0
3780,57.0,60,63,0.0,64.0
3781,55.0,60,63,0.0,64.0
3782,57.0,0,63,0.0,64.0
3783,62.0,120,123,0.0,64.0
3784,52.0,60,243,0.0,64.0
3785,60.0,60,183,0.0,64.0
3786,81.0,60,303,0.0,64.0
3787,54.0,0,243,0.0,64.0
3788,58.0,60,63,0.0,64.0
3789,57.0,60,63,0.0,64.0
3790,60.0,60,63,0.0,64.0
3791,55.0,60,483,0.0,64.0
3792,58.0,0,243,0.0,64.0
3793,74.0,60,63,0.0,64.0
3794,73.0,60,63,0.0,64.0
3795,74.0,120,63,0.0,64.0
3796,79.0,120,123,0.0,64.0
3797,77.0,60,183,0.0,64.0
3798,62.0,60,303,0.0,64.0
3799,75.0,60,63,0.0,64.0
3800,74.0,60,63,0.0,64.0
3801,77.0,60,63,0.0,64.0
3802,75.0,0,243,0.0,64.0
3803,43.0,0,243,0.0,64.0
3804,55.0,60,63,0.0,64.0
3805,54.0,60,63,0.0,64.0
3806,55.0,120,63,0.0,64.0
3807,60.0,180,123,0.0,64.0
3808,58.0,60,183,0.0,64.0
3809,74.0,60,243,0.0,64.0
3810,57.0,60,63,0.0,64.0
3811,55.0,60,63,0.0,64.0
3812,58.0,0,63,0.0,64.0
3813,73.0,30,243,0.0,64.0
3814,52.0,60,63,0.0,64.0
3815,58.0,60,63,0.0,64.0
3816,57.0,60,63,0.0,64.0
3817,52.0,0,63,0.0,64.0
3818,53.0,0,63,0.0,64.0
3819,74.0,30,33,0.0,64.0
3820,76.0,60,33,0.0,64.0
3821,74.0,60,183,0.0,64.0
3822,58.0,60,63,0.0,64.0
3823,57.0,60,63,0.0,64.0
3824,53.0,0,63,0.0,64.0
3825,49.0,0,243,0.0,64.0
3826,55.0,60,63,0.0,64.0
3827,76.0,0,243,0.0,64.0
3828,58.0,60,63,0.0,64.0
3829,57.0,60,63,0.0,64.0
3830,55.0,60,63,0.0,64.0
3831,69.0,60,303,0.0,64.0
3832,53.0,60,63,0.0,64.0
3833,52.0,60,63,0.0,64.0
3834,50.0,60,63,0.0,64.0
3835,52.0,0,63,0.0,64.0
3836,53.0,60,123,0.0,64.0
3837,48.0,0,243,0.0,64.0
3838,67.0,0,63,0.0,64.0
3839,54.0,120,123,0.0,64.0
3840,69.0,60,63,0.0,64.0
3841,74.0,0,63,0.0,64.0
3842,55.0,120,123,0.0,64.0
3843,62.0,60,543,0.0,64.0
3844,46.0,60,243,0.0,64.0
3845,56.0,0,123,0.0,64.0
3846,57.0,60,63,0.0,64.0
3847,41.0,0,123,0.0,64.0
3848,55.0,60,63,0.0,64.0
3849,43.0,30,123,0.0,64.0
3850,57.0,60,63,0.0,64.0
3851,58.0,0,63,0.0,64.0
3852,45.0,120,483,0.0,64.0
3853,52.0,30,33,0.0,64.0
3854,50.0,0,33,0.0,64.0
3855,52.0,60,303,0.0,64.0
3856,61.0,60,63,0.0,64.0
3857,59.0,60,63,0.0,64.0
3858,61.0,30,3,0.0,64.0
3859,62.0,60,33,0.0,64.0
3860,61.0,60,123,0.0,64.0
3861,50.0,0,3,0.0,64.0
3862,38.0,60,243,0.0,64.0
3863,62.0,0,3,0.0,64.0
3864,77.0,60,183,0.0,64.0
3865,50.0,0,3,0.0,64.0
3866,76.0,60,63,0.0,64.0
3867,74.0,60,63,0.0,64.0
3868,72.0,60,63,0.0,64.0
3869,71.0,60,63,0.0,64.0
3870,65.0,120,243,0.0,64.0
3871,69.0,60,63,0.0,64.0
3872,71.0,60,63,0.0,64.0
3873,74.0,0,63,0.0,64.0
3874,68.0,60,243,0.0,64.0
3875,59.0,120,123,0.0,64.0
3876,64.0,60,183,0.0,64.0
3877,48.0,0,723,0.0,64.0
3878,69.0,0,123,0.0,64.0
3879,62.0,60,63,0.0,64.0
3880,60.0,60,63,0.0,64.0
3881,71.0,60,123,0.0,64.0
3882,59.0,0,63,0.0,64.0
3883,72.0,60,123,0.0,64.0
3884,57.0,60,63,0.0,64.0
3885,56.0,0,63,0.0,64.0
3886,57.0,60,63,0.0,64.0
3887,69.0,0,123,0.0,64.0
3888,60.0,60,63,0.0,64.0
3889,74.0,60,783,0.0,64.0
3890,54.0,60,63,0.0,64.0
3891,57.0,60,63,0.0,64.0
3892,56.0,60,63,0.0,64.0
3893,54.0,60,63,0.0,64.0
3894,56.0,60,63,0.0,64.0
3895,47.0,60,243,0.0,64.0
3896,57.0,60,63,0.0,64.0
3897,59.0,60,63,0.0,64.0
3898,60.0,0,63,0.0,64.0
3899,62.0,60,63,0.0,64.0
3900,45.0,0,243,0.0,64.0
3901,64.0,60,63,0.0,64.0
3902,65.0,60,63,0.0,64.0
3903,62.0,60,63,0.0,64.0
3904,44.0,60,243,0.0,64.0
3905,64.0,60,1023,0.0,64.0
3906,81.0,60,63,0.0,64.0
3907,83.0,60,63,0.0,64.0
3908,84.0,0,63,0.0,64.0
3909,83.0,60,63,0.0,64.0
3910,40.0,60,243,0.0,64.0
3911,81.0,60,63,0.0,64.0
3912,80.0,60,63,0.0,64.0
3913,78.0,0,63,0.0,64.0
3914,76.0,60,63,0.0,64.0
3915,44.0,60,243,0.0,64.0
3916,74.0,60,63,0.0,64.0
3917,72.0,60,63,0.0,64.0
3918,71.0,0,63,0.0,64.0
3919,45.0,120,483,0.0,64.0
3920,72.0,60,63,0.0,64.0
3921,69.0,60,63,0.0,64.0
3922,72.0,60,63,0.0,64.0
3923,76.0,60,63,0.0,64.0
3924,77.0,0,243,0.0,64.0
3925,56.0,60,63,0.0,64.0
3926,57.0,60,63,0.0,64.0
3927,59.0,0,63,0.0,64.0
3928,57.0,0,243,0.0,64.0
3929,60.0,120,123,0.0,64.0
3930,61.0,240,123,0.0,64.0
3931,62.0,60,303,0.0,64.0
3932,69.0,60,243,0.0,64.0
3933,68.0,120,243,0.0,64.0
3934,60.0,60,63,0.0,64.0
3935,59.0,60,63,0.0,64.0
3936,60.0,0,63,0.0,64.0
3937,47.0,120,243,0.0,64.0
3938,62.0,120,123,0.0,64.0
3939,63.0,0,123,0.0,64.0
3940,48.0,60,483,0.0,64.0
3941,64.0,60,303,0.0,64.0
3942,69.0,60,123,0.0,64.0
3943,72.0,60,63,0.0,64.0
3944,76.0,60,63,0.0,64.0
3945,62.0,60,63,0.0,64.0
3946,81.0,0,3,0.0,64.0
3947,65.0,60,63,0.0,64.0
3948,64.0,0,63,0.0,64.0
3949,62.0,60,63,0.0,64.0
3950,50.0,120,243,0.0,64.0
3951,81.0,0,3,0.0,64.0
3952,60.0,0,63,0.0,64.0
3953,59.0,60,63,0.0,64.0
3954,81.0,60,3,0.0,64.0
3955,57.0,0,63,0.0,64.0
3956,52.0,0,243,0.0,64.0
3957,60.0,60,123,0.0,64.0
3958,79.0,60,63,0.0,64.0
3959,59.0,120,123,0.0,64.0
3960,77.0,0,63,0.0,64.0
3961,79.0,120,123,0.0,64.0
3962,50.0,120,243,0.0,64.0
3963,70.0,0,123,0.0,64.0
3964,69.0,120,123,0.0,64.0
3965,64.0,120,243,0.0,64.0
3966,49.0,0,243,0.0,64.0
3967,79.0,60,243,0.0,64.0
3968,50.0,0,243,0.0,64.0
3969,57.0,120,243,0.0,64.0
3970,77.0,60,63,0.0,64.0
3971,76.0,0,63,0.0,64.0
3972,77.0,120,123,0.0,64.0
3973,48.0,0,243,0.0,64.0
3974,69.0,120,123,0.0,64.0
3975,62.0,60,363,0.0,64.0
3976,68.0,120,123,0.0,64.0
3977,47.0,60,243,0.0,64.0
3978,77.0,0,123,0.0,64.0
3979,76.0,60,63,0.0,64.0
3980,48.0,60,243,0.0,64.0
3981,74.0,0,63,0.0,64.0
3982,77.0,60,63,0.0,64.0
3983,60.0,0,123,0.0,64.0
3984,76.0,0,63,0.0,64.0
3985,59.0,60,63,0.0,64.0
3986,74.0,0,63,0.0,64.0
3987,50.0,60,243,0.0,64.0
3988,72.0,60,63,0.0,64.0
3989,60.0,0,63,0.0,64.0
3990,62.0,0,243,0.0,64.0
3991,71.0,60,63,0.0,64.0
3992,69.0,0,63,0.0,64.0
3993,52.0,0,243,0.0,64.0
3994,68.0,60,63,0.0,64.0
3995,74.0,60,63,0.0,64.0
3996,56.0,0,123,0.0,64.0
3997,72.0,60,63,0.0,64.0
3998,71.0,60,63,0.0,64.0
3999,72.0,60,63,0.0,64.0
4000,45.0,120,243,0.0,64.0
4001,71.0,120,63,0.0,64.0
4002,69.0,120,243,0.0,64.0
4003,57.0,0,3,0.0,64.0
4004,71.0,0,123,0.0,64.0
4005,72.0,120,123,0.0,64.0
4006,55.0,120,243,0.0,64.0
4007,73.0,0,123,0.0,64.0
4008,74.0,120,123,0.0,64.0
4009,54.0,60,243,0.0,64.0
4010,75.0,60,183,0.0,64.0
4011,59.0,0,243,0.0,64.0
4012,76.0,60,63,0.0,64.0
4013,78.0,60,63,0.0,64.0
4014,79.0,60,63,0.0,64.0
4015,47.0,120,243,0.0,64.0
4016,81.0,60,63,0.0,64.0
4017,79.0,60,63,0.0,64.0
4018,78.0,60,63,0.0,64.0
4019,81.0,0,63,0.0,64.0
4020,79.0,60,303,0.0,64.0
4021,64.0,60,123,0.0,64.0
4022,52.0,0,483,0.0,64.0
4023,67.0,60,63,0.0,64.0
4024,71.0,60,63,0.0,64.0
4025,72.0,120,243,0.0,64.0
4026,78.0,60,63,0.0,64.0
4027,76.0,60,63,0.0,64.0
4028,78.0,0,63,0.0,64.0
4029,79.0,120,123,0.0,64.0
4030,40.0,240,243,0.0,64.0
4031,80.0,0,123,0.0,64.0
4032,81.0,60,303,0.0,64.0
4033,64.0,60,243,0.0,64.0
4034,42.0,0,483,0.0,64.0
4035,63.0,120,243,0.0,64.0
4036,79.0,60,63,0.0,64.0
4037,78.0,60,63,0.0,64.0
4038,79.0,0,63,0.0,64.0
4039,81.0,120,123,0.0,64.0
4040,54.0,0,243,0.0,64.0
4041,82.0,120,123,0.0,64.0
4042,55.0,0,483,0.0,64.0
4043,64.0,60,123,0.0,64.0
4044,83.0,60,303,0.0,64.0
4045,67.0,60,63,0.0,64.0
4046,71.0,60,63,0.0,64.0
4047,81.0,0,63,0.0,64.0
4048,76.0,60,3,0.0,64.0
4049,84.0,60,63,0.0,64.0
4050,83.0,0,63,0.0,64.0
4051,81.0,60,63,0.0,64.0
4052,76.0,60,3,0.0,64.0
4053,57.0,0,243,0.0,64.0
4054,79.0,0,63,0.0,64.0
4055,78.0,60,63,0.0,64.0
4056,76.0,60,3,0.0,64.0
4057,76.0,120,63,0.0,64.0
4058,59.0,120,243,0.0,64.0
4059,79.0,0,123,0.0,64.0
4060,74.0,60,63,0.0,64.0
4061,78.0,0,123,0.0,64.0
4062,72.0,0,63,0.0,64.0
4063,57.0,0,243,0.0,64.0
4064,74.0,120,123,0.0,64.0
4065,65.0,120,123,0.0,64.0
4066,64.0,120,123,0.0,64.0
4067,83.0,120,243,0.0,64.0
4068,56.0,0,243,0.0,64.0
4069,74.0,60,243,0.0,64.0
4070,57.0,120,243,0.0,64.0
4071,76.0,0,243,0.0,64.0
4072,72.0,60,63,0.0,64.0
4073,71.0,0,63,0.0,64.0
4074,72.0,120,123,0.0,64.0
4075,55.0,120,243,0.0,64.0
4076,64.0,0,123,0.0,64.0
4077,54.0,60,243,0.0,64.0
4078,63.0,120,123,0.0,64.0
4079,81.0,60,363,0.0,64.0
4080,72.0,0,123,0.0,64.0
4081,55.0,0,243,0.0,64.0
4082,71.0,60,63,0.0,64.0
4083,69.0,0,63,0.0,64.0
4084,72.0,60,63,0.0,64.0
4085,79.0,0,123,0.0,64.0
4086,71.0,60,63,0.0,64.0
4087,69.0,0,63,0.0,64.0
4088,78.0,60,63,0.0,64.0
4089,57.0,0,243,0.0,64.0
4090,79.0,0,63,0.0,64.0
4091,67.0,60,63,0.0,64.0
4092,81.0,0,243,0.0,64.0
4093,66.0,60,63,0.0,64.0
4094,64.0,60,63,0.0,64.0
4095,59.0,0,243,0.0,64.0
4096,63.0,60,63,0.0,64.0
4097,69.0,60,63,0.0,64.0
4098,75.0,60,123,0.0,64.0
4099,67.0,60,63,0.0,64.0
4100,66.0,0,63,0.0,64.0
4101,52.0,0,243,0.0,64.0
4102,76.0,60,63,0.0,64.0
4103,67.0,0,63,0.0,64.0
4104,66.0,60,63,0.0,64.0
4105,78.0,0,63,0.0,64.0
4106,64.0,120,243,0.0,64.0
4107,79.0,60,63,0.0,64.0
4108,81.0,120,63,0.0,64.0
4109,55.0,0,243,0.0,64.0
4110,82.0,0,243,0.0,64.0
4111,62.0,120,123,0.0,64.0
4112,57.0,0,243,0.0,64.0
4113,61.0,120,123,0.0,64.0
4114,73.0,0,123,0.0,64.0
4115,67.0,60,123,0.0,64.0
4116,50.0,120,243,0.0,64.0
4117,65.0,60,63,0.0,64.0
4118,74.0,0,63,0.0,64.0
4119,76.0,0,63,0.0,64.0
4120,64.0,60,63,0.0,64.0
4121,62.0,120,243,0.0,64.0
4122,77.0,60,63,0.0,64.0
4123,79.0,0,63,0.0,64.0
4124,80.0,0,243,0.0,64.0
4125,53.0,120,243,0.0,64.0
4126,60.0,0,123,0.0,64.0
4127,59.0,120,123,0.0,64.0
4128,55.0,0,243,0.0,64.0
4129,65.0,0,123,0.0,64.0
4130,71.0,60,123,0.0,64.0
4131,64.0,60,63,0.0,64.0
4132,48.0,0,243,0.0,64.0
4133,72.0,0,123,0.0,64.0
4134,62.0,60,63,0.0,64.0
4135,76.0,60,63,0.0,64.0
4136,60.0,60,243,0.0,64.0
4137,79.0,120,63,0.0,64.0
4138,47.0,0,243,0.0,64.0
4139,84.0,120,243,0.0,64.0
4140,62.0,60,63,0.0,64.0
4141,64.0,0,63,0.0,64.0
4142,45.0,0,243,0.0,64.0
4143,65.0,60,123,0.0,64.0
4144,72.0,0,63,0.0,64.0
4145,74.0,60,63,0.0,64.0
4146,66.0,60,123,0.0,64.0
4147,76.0,0,63,0.0,64.0
4148,74.0,60,63,0.0,64.0
4149,47.0,60,243,0.0,64.0
4150,67.0,0,123,0.0,64.0
4151,72.0,60,63,0.0,64.0
4152,68.0,60,183,0.0,64.0
4153,71.0,60,63,0.0,64.0
4154,74.0,0,63,0.0,64.0
4155,83.0,60,543,0.0,64.0
4156,52.0,0,243,0.0,64.0
4157,69.0,60,63,0.0,64.0
4158,71.0,60,63,0.0,64.0
4159,72.0,60,63,0.0,64.0
4160,74.0,60,63,0.0,64.0
4161,40.0,0,243,0.0,64.0
4162,72.0,60,63,0.0,64.0
4163,71.0,60,63,0.0,64.0
4164,74.0,60,63,0.0,64.0
4165,72.0,0,243,0.0,64.0
4166,45.0,120,243,0.0,64.0
4167,76.0,60,63,0.0,64.0
4168,74.0,60,63,0.0,64.0
4169,76.0,0,63,0.0,64.0
4170,47.0,60,243,0.0,64.0
4171,81.0,120,123,0.0,64.0
4172,79.0,60,183,0.0,64.0
4173,49.0,60,243,0.0,64.0
4174,77.0,60,63,0.0,64.0
4175,76.0,60,63,0.0,64.0
4176,79.0,0,63,0.0,64.0
4177,50.0,60,483,0.0,64.0
4178,77.0,120,243,0.0,64.0
4179,69.0,60,63,0.0,64.0
4180,67.0,60,63,0.0,64.0
4181,69.0,0,63,0.0,64.0
4182,74.0,120,123,0.0,64.0
4183,72.0,60,183,0.0,64.0
4184,81.0,60,303,0.0,64.0
4185,70.0,60,63,0.0,64.0
4186,69.0,60,63,0.0,64.0
4187,72.0,60,63,0.0,64.0
4188,38.0,0,243,0.0,64.0
4189,70.0,0,243,0.0,64.0
4190,74.0,60,63,0.0,64.0
4191,73.0,60,63,0.0,64.0
4192,74.0,120,63,0.0,64.0
4193,79.0,180,123,0.0,64.0
4194,77.0,60,183,0.0,64.0
4195,50.0,60,483,0.0,64.0
4196,69.0,0,243,0.0,64.0
4197,76.0,60,63,0.0,64.0
4198,74.0,60,63,0.0,64.0
4199,77.0,60,63,0.0,64.0
4200,68.0,0,243,0.0,64.0
4201,71.0,60,63,0.0,64.0
4202,77.0,60,63,0.0,64.0
4203,76.0,60,63,0.0,64.0
4204,71.0,0,63,0.0,64.0
4205,69.0,0,243,0.0,64.0
4206,48.0,60,243,0.0,64.0
4207,72.0,60,63,0.0,64.0
4208,77.0,60,63,0.0,64.0
4209,76.0,60,63,0.0,64.0
4210,72.0,0,63,0.0,64.0
4211,71.0,0,243,0.0,64.0
4212,44.0,60,243,0.0,64.0
4213,74.0,60,63,0.0,64.0
4214,77.0,60,63,0.0,64.0
4215,76.0,60,63,0.0,64.0
4216,74.0,0,63,0.0,64.0
4217,64.0,60,303,0.0,64.0
4218,72.0,60,63,0.0,64.0
4219,45.0,0,243,0.0,64.0
4220,71.0,60,63,0.0,64.0
4221,69.0,60,63,0.0,64.0
4222,71.0,60,63,0.0,64.0
4223,72.0,0,123,0.0,64.0
4224,43.0,0,243,0.0,64.0
4225,62.0,60,63,0.0,64.0
4226,64.0,60,63,0.0,64.0
4227,73.0,120,123,0.0,64.0
4228,69.0,0,63,0.0,64.0
4229,74.0,120,123,0.0,64.0
4230,41.0,0,243,0.0,64.0
4231,57.0,0,543,0.0,64.0
4232,75.0,60,123,0.0,64.0
4233,76.0,60,63,0.0,64.0
4234,48.0,60,123,0.0,64.0
4235,74.0,0,63,0.0,64.0
4236,50.0,30,123,0.0,64.0
4237,76.0,60,63,0.0,64.0
4238,77.0,0,63,0.0,64.0
4239,52.0,30,243,0.0,64.0
4240,71.0,30,33,0.0,64.0
4241,72.0,60,33,0.0,64.0
4242,56.0,60,63,0.0,64.0
4243,71.0,60,303,0.0,64.0
4244,54.0,60,63,0.0,64.0
4245,56.0,0,3,0.0,64.0
4246,40.0,0,243,0.0,64.0
4247,57.0,60,33,0.0,64.0
4248,56.0,60,123,0.0,64.0
4249,57.0,0,3,0.0,64.0
4250,69.0,120,3,0.0,64.0
4251,45.0,120,483,0.0,64.0
4252,77.0,120,243,0.0,64.0
4253,60.0,0,243,0.0,64.0
4254,75.0,120,243,0.0,64.0
4255,43.0,60,243,0.0,64.0
4256,59.0,0,243,0.0,64.0
4257,76.0,60,183,0.0,64.0
4258,41.0,240,723,0.0,64.0
4259,60.0,60,123,0.0,64.0
4260,74.0,0,63,0.0,64.0
4261,72.0,60,63,0.0,64.0
4262,57.0,120,123,0.0,64.0
4263,71.0,0,63,0.0,64.0
4264,74.0,120,123,0.0,64.0
4265,64.0,30,243,0.0,64.0
4266,72.0,60,183,0.0,64.0
4267,63.0,30,33,0.0,64.0
4268,64.0,0,33,0.0,64.0
4269,71.0,60,63,0.0,64.0
4270,72.0,60,63,0.0,64.0
4271,63.0,0,3,0.0,64.0
4272,69.0,0,3,0.0,64.0
4273,40.0,0,1443,0.0,64.0
4274,64.0,1915,1203,0.0,64.0
4275,68.0,0,1203,0.0,64.0
4276,48.0,0,480,0.0,64.0
4277,79.0,240,240,0.0,64.0
4278,60.0,0,720,0.0,64.0
4279,76.0,240,240,0.0,64.0
4280,81.0,240,240,0.0,64.0
4281,77.0,120,240,0.0,64.0
4282,59.0,120,120,0.0,64.0
4283,74.0,0,240,0.0,64.0
4284,57.0,240,120,0.0,64.0
4285,79.0,120,600,0.0,64.0
4286,59.0,240,240,0.0,64.0
4287,55.0,120,240,0.0,64.0
4288,57.0,0,480,0.0,64.0
4289,72.0,120,120,0.0,64.0
4290,74.0,120,120,0.0,64.0
4291,76.0,240,120,0.0,64.0
4292,77.0,240,240,0.0,64.0
4293,69.0,240,240,0.0,64.0
4294,62.0,0,240,0.0,64.0
4295,59.0,240,240,0.0,64.0
4296,67.0,0,240,0.0,64.0
4297,55.0,0,240,0.0,64.0
4298,77.0,30,240,0.0,64.0
4299,60.0,0,240,0.0,64.0
4300,76.0,30,30,0.0,64.0
4301,77.0,60,30,0.0,64.0
4302,76.0,120,60,0.0,64.0
4303,74.0,120,120,0.0,64.0
4304,48.0,0,240,0.0,64.0
4305,76.0,120,120,0.0,64.0
4306,77.0,240,120,0.0,64.0
4307,74.0,120,240,0.0,64.0
4308,55.0,0,1200,0.0,64.0
4309,72.0,120,240,0.0,64.0
4310,76.0,120,120,0.0,64.0
4311,78.0,0,120,0.0,64.0
4312,71.0,120,240,0.0,64.0
4313,79.0,120,120,0.0,64.0
4314,81.0,0,120,0.0,64.0
4315,83.0,120,120,0.0,64.0
4316,76.0,120,240,0.0,64.0
4317,79.0,0,120,0.0,64.0
4318,81.0,120,120,0.0,64.0
4319,72.0,0,240,0.0,64.0
4320,79.0,120,120,0.0,64.0
4321,81.0,120,120,0.0,64.0
4322,69.0,0,240,0.0,64.0
4323,54.0,0,120,0.0,64.0
4324,52.0,120,120,0.0,64.0
4325,83.0,0,120,0.0,64.0
4326,81.0,120,120,0.0,64.0
4327,74.0,120,600,0.0,64.0
4328,54.0,0,240,0.0,64.0
4329,84.0,120,120,0.0,64.0
4330,50.0,0,240,0.0,64.0
4331,83.0,120,120,0.0,64.0
4332,81.0,120,120,0.0,64.0
4333,52.0,120,480,0.0,64.0
4334,79.0,120,600,0.0,64.0
4335,67.0,120,120,0.0,64.0
4336,69.0,120,120,0.0,64.0
4337,71.0,0,120,0.0,64.0
4338,72.0,0,240,0.0,64.0
4339,76.0,120,120,0.0,64.0
4340,64.0,0,240,0.0,64.0
4341,74.0,120,120,0.0,64.0
4342,57.0,120,240,0.0,64.0
4343,72.0,0,120,0.0,64.0
4344,81.0,120,120,0.0,64.0
4345,54.0,120,240,0.0,64.0
4346,62.0,0,240,0.0,64.0
4347,79.0,0,120,0.0,64.0
4348,78.0,120,120,0.0,64.0
4349,72.0,0,240,0.0,64.0
4350,50.0,0,240,0.0,64.0
4351,76.0,30,120,0.0,64.0
4352,71.0,30,30,0.0,64.0
4353,55.0,120,240,0.0,64.0
4354,74.0,0,240,0.0,64.0
4355,72.0,60,30,0.0,64.0
4356,71.0,120,60,0.0,64.0
4357,69.0,0,120,0.0,64.0
4358,71.0,120,120,0.0,64.0
4359,79.0,120,360,0.0,64.0
4360,43.0,0,240,0.0,64.0
4361,72.0,120,120,0.0,64.0
4362,69.0,120,240,0.0,64.0
4363,50.0,0,1200,0.0,64.0
4364,78.0,0,120,0.0,64.0
4365,79.0,120,120,0.0,64.0
4366,71.0,0,120,0.0,64.0
4367,76.0,0,120,0.0,64.0
4368,72.0,120,120,0.0,64.0
4369,78.0,120,240,0.0,64.0
4370,74.0,120,120,0.0,64.0
4371,76.0,0,120,0.0,64.0
4372,78.0,120,120,0.0,64.0
4373,83.0,120,240,0.0,64.0
4374,74.0,0,120,0.0,64.0
4375,76.0,120,120,0.0,64.0
4376,79.0,120,240,0.0,64.0
4377,74.0,0,120,0.0,64.0
4378,48.0,120,120,0.0,64.0
4379,76.0,0,120,0.0,64.0
4380,47.0,0,120,0.0,64.0
4381,78.0,120,120,0.0,64.0
4382,76.0,120,120,0.0,64.0
4383,48.0,0,240,0.0,64.0
4384,81.0,120,600,0.0,64.0
4385,79.0,120,120,0.0,64.0
4386,78.0,120,120,0.0,64.0
4387,45.0,120,240,0.0,64.0
4388,76.0,0,120,0.0,64.0
4389,47.0,0,480,0.0,64.0
4390,74.0,120,120,0.0,64.0
4391,76.0,120,120,0.0,64.0
4392,78.0,120,120,0.0,64.0
4393,79.0,0,960,0.0,64.0
4394,71.0,120,120,0.0,64.0
4395,52.0,120,240,0.0,64.0
4396,69.0,120,120,0.0,64.0
4397,67.0,0,120,0.0,64.0
4398,76.0,120,120,0.0,64.0
4399,48.0,120,240,0.0,64.0
4400,74.0,0,120,0.0,64.0
4401,72.0,120,120,0.0,64.0
4402,45.0,0,240,0.0,64.0
4403,71.0,30,120,0.0,64.0
4404,50.0,0,240,0.0,64.0
4405,78.0,30,30,0.0,64.0
4406,69.0,120,240,0.0,64.0
4407,79.0,180,30,0.0,64.0
4408,78.0,60,300,0.0,64.0
4409,38.0,0,240,0.0,64.0
4410,74.0,120,240,0.0,64.0
4411,76.0,60,60,0.0,64.0
4412,78.0,0,60,0.0,64.0
4413,79.0,0,480,0.0,64.0
4414,71.0,120,120,0.0,64.0
4415,43.0,240,480,0.0,64.0
4416,67.0,120,120,0.0,64.0
4417,71.0,120,120,0.0,64.0
4418,74.0,0,120,0.0,64.0
4419,79.0,120,120,0.0,64.0
4420,47.0,120,240,0.0,64.0
4421,74.0,120,120,0.0,64.0
4422,77.0,0,120,0.0,64.0
4423,76.0,120,120,0.0,64.0
4424,48.0,120,240,0.0,64.0
4425,79.0,0,120,0.0,64.0
4426,71.0,120,120,0.0,64.0
4427,50.0,120,240,0.0,64.0
4428,74.0,0,120,0.0,64.0
4429,72.0,120,120,0.0,64.0
4430,52.0,120,240,0.0,64.0
4431,76.0,0,120,0.0,64.0
4432,53.0,0,240,0.0,64.0
4433,74.0,120,120,0.0,64.0
4434,72.0,120,120,0.0,64.0
4435,71.0,120,120,0.0,64.0
4436,55.0,120,240,0.0,64.0
4437,67.0,0,120,0.0,64.0
4438,71.0,120,120,0.0,64.0
4439,57.0,0,240,0.0,64.0
4440,74.0,0,120,0.0,64.0
4441,79.0,240,0,0.0,64.0
4442,59.0,120,240,0.0,64.0
4443,79.0,0,120,0.0,64.0
4444,55.0,0,240,0.0,64.0
4445,74.0,120,120,0.0,64.0
4446,77.0,120,120,0.0,64.0
4447,60.0,0,240,0.0,64.0
4448,76.0,120,120,0.0,64.0
4449,79.0,120,120,0.0,64.0
4450,55.0,120,240,0.0,64.0
4451,71.0,120,120,0.0,64.0
4452,74.0,0,120,0.0,64.0
4453,72.0,120,120,0.0,64.0
4454,52.0,120,240,0.0,64.0
4455,76.0,0,120,0.0,64.0
4456,74.0,120,120,0.0,64.0
4457,48.0,120,240,0.0,64.0
4458,72.0,0,120,0.0,64.0
4459,71.0,120,120,0.0,64.0
4460,55.0,0,480,0.0,64.0
4461,67.0,120,120,0.0,64.0
4462,71.0,120,120,0.0,64.0
4463,74.0,240,120,0.0,64.0
4464,79.0,120,600,0.0,64.0
4465,76.0,120,120,0.0,64.0
4466,71.0,120,120,0.0,64.0
4467,52.0,0,240,0.0,64.0
4468,74.0,120,120,0.0,64.0
4469,57.0,0,240,0.0,64.0
4470,72.0,0,240,0.0,64.0
4471,77.0,120,120,0.0,64.0
4472,81.0,0,240,0.0,64.0
4473,76.0,120,120,0.0,64.0
4474,48.0,240,240,0.0,64.0
4475,79.0,0,120,0.0,64.0
4476,77.0,120,600,0.0,64.0
4477,50.0,120,240,0.0,64.0
4478,74.0,0,120,0.0,64.0
4479,69.0,120,120,0.0,64.0
4480,53.0,120,240,0.0,64.0
4481,72.0,0,120,0.0,64.0
4482,55.0,0,240,0.0,64.0
4483,71.0,0,240,0.0,64.0
4484,67.0,120,120,0.0,64.0
4485,43.0,240,240,0.0,64.0
4486,79.0,0,240,0.0,64.0
4487,71.0,120,120,0.0,64.0
4488,74.0,0,120,0.0,64.0
4489,76.0,120,600,0.0,64.0
4490,48.0,120,240,0.0,64.0
4491,72.0,0,120,0.0,64.0
4492,52.0,0,240,0.0,64.0
4493,67.0,120,120,0.0,64.0
4494,70.0,120,120,0.0,64.0
4495,53.0,0,1200,0.0,64.0
4496,69.0,0,240,0.0,64.0
4497,74.0,120,120,0.0,64.0
4498,72.0,0,120,0.0,64.0
4499,81.0,120,120,0.0,64.0
4500,76.0,0,120,0.0,64.0
4501,79.0,120,120,0.0,64.0
4502,77.0,120,120,0.0,64.0
4503,76.0,120,120,0.0,64.0
4504,74.0,120,120,0.0,64.0
4505,72.0,120,120,0.0,64.0
4506,72.0,0,120,0.0,64.0
4507,55.0,0,240,0.0,64.0
4508,71.0,120,0,0.0,64.0
4509,67.0,240,240,0.0,64.0
4510,74.0,0,120,0.0,64.0
4511,52.0,120,240,0.0,64.0
4512,79.0,0,120,0.0,64.0
4513,76.0,120,120,0.0,64.0
4514,57.0,0,240,0.0,64.0
4515,72.0,120,120,0.0,64.0
4516,53.0,0,240,0.0,64.0
4517,74.0,120,120,0.0,64.0
4518,72.0,0,120,0.0,64.0
4519,71.0,0,120,0.0,64.0
4520,50.0,120,240,0.0,64.0
4521,74.0,120,120,0.0,64.0
4522,69.0,0,120,0.0,64.0
4523,76.0,0,120,0.0,64.0
4524,74.0,120,120,0.0,64.0
4525,55.0,0,480,0.0,64.0
4526,79.0,120,120,0.0,64.0
4527,74.0,120,120,0.0,64.0
4528,71.0,120,120,0.0,64.0
4529,72.0,120,120,0.0,64.0
4530,71.0,120,120,0.0,64.0
4531,52.0,0,240,0.0,64.0
4532,72.0,120,120,0.0,64.0
4533,74.0,120,120,0.0,64.0
4534,48.0,120,240,0.0,64.0
4535,72.0,120,120,0.0,64.0
4536,76.0,0,120,0.0,64.0
4537,72.0,120,120,0.0,64.0
4538,53.0,0,240,0.0,64.0
4539,69.0,120,120,0.0,64.0
4540,71.0,120,120,0.0,64.0
4541,50.0,0,240,0.0,64.0
4542,69.0,0,120,0.0,64.0
4543,47.0,0,240,0.0,64.0
4544,71.0,0,120,0.0,64.0
4545,67.0,120,120,0.0,64.0
4546,72.0,0,120,0.0,64.0
4547,65.0,120,120,0.0,64.0
4548,71.0,120,120,0.0,64.0
4549,52.0,0,480,0.0,64.0
4550,76.0,120,120,0.0,64.0
4551,71.0,120,120,0.0,64.0
4552,67.0,120,120,0.0,64.0
4553,69.0,120,120,0.0,64.0
4554,67.0,120,120,0.0,64.0
4555,69.0,120,120,0.0,64.0
4556,48.0,0,240,0.0,64.0
4557,71.0,0,120,0.0,64.0
4558,69.0,120,120,0.0,64.0
4559,45.0,120,240,0.0,64.0
4560,72.0,0,120,0.0,64.0
4561,69.0,120,120,0.0,64.0
4562,50.0,0,240,0.0,64.0
4563,65.0,120,120,0.0,64.0
4564,67.0,0,600,0.0,64.0
4565,47.0,120,240,0.0,64.0
4566,62.0,0,120,0.0,64.0
4567,43.0,0,240,0.0,64.0
4568,64.0,120,120,0.0,64.0
4569,65.0,120,120,0.0,64.0
4570,48.0,120,960,0.0,64.0
4571,64.0,120,120,0.0,64.0
4572,67.0,120,120,0.0,64.0
4573,76.0,0,120,0.0,64.0
4574,64.0,0,120,0.0,64.0
4575,72.0,120,120,0.0,64.0
4576,60.0,120,120,0.0,64.0
4577,69.0,0,120,0.0,64.0
4578,62.0,120,120,0.0,64.0
4579,65.0,120,240,0.0,64.0
4580,60.0,0,120,0.0,64.0
4581,62.0,120,120,0.0,64.0
4582,69.0,0,480,0.0,64.0
4583,64.0,0,120,0.0,64.0
4584,62.0,120,120,0.0,64.0
4585,47.0,240,480,0.0,64.0
4586,65.0,120,120,0.0,64.0
4587,67.0,0,120,0.0,64.0
4588,62.0,120,120,0.0,64.0
4589,65.0,0,120,0.0,64.0
4590,59.0,0,120,0.0,64.0
4591,48.0,0,240,0.0,64.0
4592,67.0,120,240,0.0,64.0
4593,64.0,0,240,0.0,64.0
4594,72.0,120,240,0.0,64.0
4595,65.0,120,120,0.0,64.0
4596,45.0,0,240,0.0,64.0
4597,64.0,0,120,0.0,64.0
4598,41.0,0,240,0.0,64.0
4599,65.0,120,120,0.0,64.0
4600,64.0,0,120,0.0,64.0
4601,43.0,120,240,0.0,64.0
4602,62.0,120,0,0.0,64.0
4603,71.0,0,240,0.0,64.0
4604,64.0,0,120,0.0,64.0
4605,60.0,120,120,0.0,64.0
4606,48.0,0,240,0.0,64.0
4607,62.0,120,120,0.0,64.0
4608,60.0,120,120,0.0,64.0
4609,62.0,120,120,0.0,64.0
4610,64.0,120,120,0.0,64.0
4611,45.0,120,240,0.0,64.0
4612,65.0,0,120,0.0,64.0
4613,64.0,120,120,0.0,64.0
4614,65.0,120,120,0.0,64.0
4615,62.0,120,120,0.0,64.0
4616,41.0,0,240,0.0,64.0
4617,64.0,120,120,0.0,64.0
4618,62.0,120,120,0.0,64.0
4619,64.0,120,120,0.0,64.0
4620,43.0,0,240,0.0,64.0
4621,65.0,120,120,0.0,64.0
4622,67.0,120,120,0.0,64.0
4623,65.0,120,120,0.0,64.0
4624,67.0,120,120,0.0,64.0
4625,60.0,120,120,0.0,64.0
4626,36.0,0,240,0.0,64.0
4627,64.0,0,240,0.0,64.0
4628,62.0,120,120,0.0,64.0
4629,72.0,120,240,0.0,64.0
4630,60.0,120,120,0.0,64.0
4631,62.0,0,120,0.0,64.0
4632,64.0,120,120,0.0,64.0
4633,60.0,0,240,0.0,64.0
4634,65.0,120,120,0.0,64.0
4635,72.0,120,240,0.0,64.0
4636,64.0,120,120,0.0,64.0
4637,65.0,0,120,0.0,64.0
4638,62.0,120,120,0.0,64.0
4639,65.0,0,240,0.0,64.0
4640,64.0,120,120,0.0,64.0
4641,72.0,0,240,0.0,64.0
4642,62.0,120,120,0.0,64.0
4643,64.0,120,120,0.0,64.0
4644,62.0,0,240,0.0,64.0
4645,65.0,120,120,0.0,64.0
4646,67.0,120,120,0.0,64.0
4647,71.0,120,240,0.0,64.0
4648,65.0,120,120,0.0,64.0
4649,67.0,0,120,0.0,64.0
4650,48.0,120,120,0.0,64.0
4651,64.0,0,240,0.0,64.0
4652,50.0,0,120,0.0,64.0
4653,48.0,120,120,0.0,64.0
4654,72.0,120,0,0.0,64.0
4655,50.0,0,120,0.0,64.0
4656,52.0,120,120,0.0,64.0
4657,79.0,0,240,0.0,64.0
4658,60.0,0,240,0.0,64.0
4659,53.0,120,120,0.0,64.0
4660,72.0,120,240,0.0,64.0
4661,52.0,120,120,0.0,64.0
4662,53.0,0,120,0.0,64.0
4663,65.0,0,240,0.0,64.0
4664,50.0,120,120,0.0,64.0
4665,81.0,120,240,0.0,64.0
4666,52.0,0,120,0.0,64.0
4667,72.0,120,240,0.0,64.0
4668,50.0,120,120,0.0,64.0
4669,52.0,0,120,0.0,64.0
4670,53.0,120,120,0.0,64.0
4671,62.0,0,240,0.0,64.0
4672,83.0,120,240,0.0,64.0
4673,55.0,0,120,0.0,64.0
4674,53.0,120,120,0.0,64.0
4675,71.0,0,240,0.0,64.0
4676,55.0,240,120,0.0,64.0
4677,72.0,120,240,0.0,64.0
4678,52.0,0,240,0.0,64.0
4679,84.0,120,120,0.0,64.0
4680,60.0,120,240,0.0,64.0
4681,67.0,0,240,0.0,64.0
4682,83.0,0,120,0.0,64.0
4683,81.0,120,120,0.0,64.0
4684,72.0,0,960,0.0,64.0
4685,48.0,0,240,0.0,64.0
4686,79.0,120,120,0.0,64.0
4687,60.0,0,240,0.0,64.0
4688,77.0,120,120,0.0,64.0
4689,76.0,120,120,0.0,64.0
4690,53.0,0,240,0.0,64.0
4691,74.0,120,120,0.0,64.0
4692,76.0,120,120,0.0,64.0
4693,74.0,120,120,0.0,64.0
4694,60.0,0,240,0.0,64.0
4695,76.0,120,120,0.0,64.0
4696,71.0,0,960,0.0,64.0
4697,50.0,120,240,0.0,64.0
4698,77.0,120,120,0.0,64.0
4699,79.0,0,120,0.0,64.0
4700,59.0,120,240,0.0,64.0
4701,77.0,120,120,0.0,64.0
4702,79.0,0,120,0.0,64.0
4703,72.0,120,120,0.0,64.0
4704,52.0,120,240,0.0,64.0
4705,74.0,0,120,0.0,64.0
4706,72.0,120,120,0.0,64.0
4707,59.0,0,240,0.0,64.0
4708,74.0,120,120,0.0,64.0
4709,48.0,120,240,0.0,64.0
4710,69.0,120,960,0.0,64.0
4711,76.0,120,120,0.0,64.0
4712,77.0,0,120,0.0,64.0
4713,59.0,0,240,0.0,64.0
4714,76.0,120,120,0.0,64.0
4715,77.0,120,120,0.0,64.0
4716,50.0,120,240,0.0,64.0
4717,71.0,120,120,0.0,64.0
4718,72.0,0,120,0.0,64.0
4719,71.0,120,120,0.0,64.0
4720,57.0,0,240,0.0,64.0
4721,72.0,0,120,0.0,64.0
4722,74.0,120,120,0.0,64.0
4723,68.0,120,240,0.0,64.0
4724,47.0,0,240,0.0,64.0
4725,76.0,0,120,0.0,64.0
4726,74.0,120,120,0.0,64.0
4727,56.0,120,240,0.0,64.0
4728,64.0,0,240,0.0,64.0
4729,76.0,0,120,0.0,64.0
4730,45.0,0,240,0.0,64.0
4731,69.0,120,120,0.0,64.0
4732,72.0,120,240,0.0,64.0
4733,71.0,0,120,0.0,64.0
4734,69.0,120,120,0.0,64.0
4735,76.0,0,240,0.0,64.0
4736,71.0,120,120,0.0,64.0
4737,69.0,0,240,0.0,64.0
4738,72.0,120,120,0.0,64.0
4739,41.0,0,240,0.0,64.0
4740,74.0,120,120,0.0,64.0
4741,72.0,120,120,0.0,64.0
4742,81.0,0,240,0.0,64.0
4743,74.0,120,120,0.0,64.0
4744,71.0,120,120,0.0,64.0
4745,77.0,120,240,0.0,64.0
4746,38.0,0,240,0.0,64.0
4747,72.0,0,120,0.0,64.0
4748,71.0,120,120,0.0,64.0
4749,81.0,120,240,0.0,64.0
4750,72.0,0,120,0.0,64.0
4751,40.0,120,240,0.0,64.0
4752,71.0,0,240,0.0,64.0
4753,74.0,120,120,0.0,64.0
4754,76.0,0,120,0.0,64.0
4755,80.0,0,240,0.0,64.0
4756,74.0,120,120,0.0,64.0
4757,76.0,120,120,0.0,64.0
4758,45.0,120,240,0.0,64.0
4759,69.0,0,120,0.0,64.0
4760,72.0,120,120,0.0,64.0
4761,71.0,0,120,0.0,64.0
4762,74.0,0,120,0.0,64.0
4763,69.0,0,120,0.0,64.0
4764,72.0,120,120,0.0,64.0
4765,52.0,120,240,0.0,64.0
4766,71.0,0,120,0.0,64.0
4767,74.0,0,120,0.0,64.0
4768,76.0,0,120,0.0,64.0
4769,57.0,0,960,0.0,64.0
4770,72.0,120,120,0.0,64.0
4771,74.0,120,120,0.0,64.0
4772,77.0,0,120,0.0,64.0
4773,72.0,120,120,0.0,64.0
4774,76.0,0,120,0.0,64.0
4775,74.0,0,120,0.0,64.0
4776,77.0,120,120,0.0,64.0
4777,71.0,0,120,0.0,64.0
4778,74.0,120,120,0.0,64.0
4779,72.0,120,120,0.0,64.0
4780,76.0,0,120,0.0,64.0
4781,74.0,120,120,0.0,64.0
4782,71.0,0,120,0.0,64.0
4783,72.0,0,120,0.0,64.0
4784,56.0,0,480,0.0,64.0
4785,74.0,120,120,0.0,64.0
4786,76.0,120,120,0.0,64.0
4787,74.0,120,120,0.0,64.0
4788,76.0,120,120,0.0,64.0
4789,57.0,0,480,0.0,64.0
4790,72.0,120,120,0.0,64.0
4791,71.0,0,120,0.0,64.0
4792,72.0,120,120,0.0,64.0
4793,76.0,0,120,0.0,64.0
4794,81.0,120,720,0.0,64.0
4795,72.0,0,240,0.0,64.0
4796,50.0,120,120,0.0,64.0
4797,48.0,120,120,0.0,64.0
4798,77.0,240,240,0.0,64.0
4799,50.0,0,120,0.0,64.0
4800,47.0,120,480,0.0,64.0
4801,74.0,0,240,0.0,64.0
4802,71.0,0,240,0.0,64.0
4803,79.0,120,120,0.0,64.0
4804,77.0,0,120,0.0,64.0
4805,79.0,120,120,0.0,64.0
4806,76.0,120,120,0.0,64.0
4807,69.0,120,120,0.0,64.0
4808,49.0,0,240,0.0,64.0
4809,79.0,120,120,0.0,64.0
4810,50.0,0,480,0.0,64.0
4811,77.0,120,600,0.0,64.0
4812,69.0,120,120,0.0,64.0
4813,71.0,120,120,0.0,64.0
4814,72.0,120,120,0.0,64.0
4815,74.0,0,120,0.0,64.0
4816,71.0,120,120,0.0,64.0
4817,62.0,0,480,0.0,64.0
4818,65.0,120,240,0.0,64.0
4819,74.0,0,120,0.0,64.0
4820,64.0,120,240,0.0,64.0
4821,68.0,120,120,0.0,64.0
4822,69.0,0,120,0.0,64.0
4823,71.0,120,120,0.0,64.0
4824,74.0,0,240,0.0,64.0
4825,56.0,30,240,0.0,64.0
4826,68.0,0,120,0.0,64.0
4827,64.0,120,240,0.0,64.0
4828,57.0,0,240,0.0,64.0
4829,72.0,30,30,0.0,64.0
4830,74.0,60,30,0.0,64.0
4831,72.0,120,60,0.0,64.0
4832,71.0,0,120,0.0,64.0
4833,51.0,120,240,0.0,64.0
4834,72.0,120,120,0.0,64.0
4835,81.0,120,360,0.0,64.0
4836,74.0,0,120,0.0,64.0
4837,71.0,120,240,0.0,64.0
4838,52.0,0,1200,0.0,64.0
4839,79.0,0,120,0.0,64.0
4840,81.0,0,120,0.0,64.0
4841,73.0,120,120,0.0,64.0
4842,78.0,120,120,0.0,64.0
4843,75.0,0,120,0.0,64.0
4844,79.0,0,240,0.0,64.0
4845,76.0,120,120,0.0,64.0
4846,78.0,120,120,0.0,64.0
4847,84.0,120,240,0.0,64.0
4848,79.0,120,120,0.0,64.0
4849,76.0,0,120,0.0,64.0
4850,78.0,120,120,0.0,64.0
4851,81.0,120,240,0.0,64.0
4852,76.0,0,120,0.0,64.0
4853,50.0,0,120,0.0,64.0
4854,78.0,120,120,0.0,64.0
4855,48.0,0,120,0.0,64.0
4856,79.0,120,120,0.0,64.0
4857,78.0,0,0,0.0,64.0
4858,50.0,120,240,0.0,64.0
4859,83.0,120,600,0.0,64.0
4860,81.0,0,120,0.0,64.0
4861,47.0,0,240,0.0,64.0
4862,79.0,120,120,0.0,64.0
4863,78.0,120,120,0.0,64.0
4864,48.0,120,480,0.0,64.0
4865,76.0,120,120,0.0,64.0
4866,78.0,120,120,0.0,64.0
4867,79.0,0,120,0.0,64.0
4868,81.0,120,240,0.0,64.0
4869,72.0,0,120,0.0,64.0
4870,54.0,0,240,0.0,64.0
4871,72.0,0,240,0.0,64.0
4872,71.0,120,120,0.0,64.0
4873,69.0,120,120,0.0,64.0
4874,51.0,0,240,0.0,64.0
4875,71.0,120,240,0.0,64.0
4876,78.0,120,120,0.0,64.0
4877,76.0,0,120,0.0,64.0
4878,81.0,0,240,0.0,64.0
4879,75.0,120,120,0.0,64.0
4880,47.0,120,240,0.0,64.0
4881,73.0,0,120,0.0,64.0
4882,79.0,120,120,0.0,64.0
4883,71.0,0,240,0.0,64.0
4884,52.0,120,240,0.0,64.0
4885,78.0,0,120,0.0,64.0
4886,79.0,120,120,0.0,64.0
4887,76.0,120,360,0.0,64.0
4888,40.0,0,240,0.0,64.0
4889,81.0,120,120,0.0,64.0
4890,78.0,0,480,0.0,64.0
4891,47.0,0,240,0.0,64.0
4892,75.0,120,120,0.0,64.0
4893,73.0,120,120,0.0,64.0
4894,59.0,0,240,0.0,64.0
4895,75.0,240,120,0.0,64.0
4896,76.0,0,960,0.0,64.0
4897,55.0,0,240,0.0,64.0
4898,83.0,120,120,0.0,64.0
4899,60.0,120,240,0.0,64.0
4900,81.0,120,120,0.0,64.0
4901,79.0,0,120,0.0,64.0
4902,78.0,120,120,0.0,64.0
4903,57.0,120,240,0.0,64.0
4904,79.0,0,120,0.0,64.0
4905,78.0,120,120,0.0,64.0
4906,54.0,0,240,0.0,64.0
4907,79.0,120,120,0.0,64.0
4908,74.0,240,960,0.0,64.0
4909,81.0,120,120,0.0,64.0
4910,59.0,0,480,0.0,64.0
4911,83.0,120,120,0.0,64.0
4912,81.0,120,120,0.0,64.0
4913,83.0,120,120,0.0,64.0
4914,81.0,120,120,0.0,64.0
4915,80.0,120,120,0.0,64.0
4916,52.0,0,240,0.0,64.0
4917,78.0,120,120,0.0,64.0
4918,76.0,0,120,0.0,64.0
4919,81.0,0,960,0.0,64.0
4920,48.0,120,240,0.0,64.0
4921,76.0,0,120,0.0,64.0
4922,74.0,120,120,0.0,64.0
4923,53.0,0,240,0.0,64.0
4924,72.0,120,120,0.0,64.0
4925,50.0,120,240,0.0,64.0
4926,71.0,120,120,0.0,64.0
4927,72.0,0,120,0.0,64.0
4928,47.0,0,240,0.0,64.0
4929,71.0,120,120,0.0,64.0
4930,72.0,120,120,0.0,64.0
4931,74.0,120,120,0.0,64.0
4932,79.0,240,960,0.0,64.0
4933,52.0,120,480,0.0,64.0
4934,76.0,120,120,0.0,64.0
4935,74.0,120,120,0.0,64.0
4936,76.0,0,120,0.0,64.0
4937,74.0,120,120,0.0,64.0
4938,73.0,120,120,0.0,64.0
4939,57.0,0,240,0.0,64.0
4940,71.0,120,120,0.0,64.0
4941,69.0,0,120,0.0,64.0
4942,74.0,0,960,0.0,64.0
4943,53.0,0,240,0.0,64.0
4944,81.0,120,120,0.0,64.0
4945,58.0,120,240,0.0,64.0
4946,79.0,120,120,0.0,64.0
4947,77.0,0,120,0.0,64.0
4948,76.0,120,120,0.0,64.0
4949,55.0,0,240,0.0,64.0
4950,77.0,120,120,0.0,64.0
4951,52.0,120,240,0.0,64.0
4952,76.0,120,120,0.0,64.0
4953,77.0,0,120,0.0,64.0
4954,79.0,120,120,0.0,64.0
4955,72.0,0,960,0.0,64.0
4956,57.0,120,480,0.0,64.0
4957,81.0,120,120,0.0,64.0
4958,79.0,120,120,0.0,64.0
4959,81.0,0,120,0.0,64.0
4960,79.0,120,120,0.0,64.0
4961,78.0,120,120,0.0,64.0
4962,50.0,240,240,0.0,64.0
4963,76.0,120,120,0.0,64.0
4964,74.0,0,120,0.0,64.0
4965,79.0,120,960,0.0,64.0
4966,47.0,0,240,0.0,64.0
4967,74.0,120,120,0.0,64.0
4968,52.0,120,240,0.0,64.0
4969,72.0,120,120,0.0,64.0
4970,71.0,0,120,0.0,64.0
4971,48.0,0,240,0.0,64.0
4972,69.0,120,120,0.0,64.0
4973,71.0,120,120,0.0,64.0
4974,45.0,0,240,0.0,64.0
4975,69.0,120,120,0.0,64.0
4976,71.0,0,120,0.0,64.0
4977,50.0,0,480,0.0,64.0
4978,72.0,120,120,0.0,64.0
4979,78.0,0,480,0.0,64.0
4980,74.0,120,120,0.0,64.0
4981,72.0,120,120,0.0,64.0
4982,74.0,240,120,0.0,64.0
4983,79.0,240,240,0.0,64.0
4984,43.0,0,480,0.0,64.0
4985,71.0,0,480,0.0,64.0
4986,74.0,240,240,0.0,64.0
4987,71.0,240,240,0.0,64.0
4988,76.0,0,240,0.0,64.0
4989,67.0,240,240,0.0,64.0
4990,72.0,0,240,0.0,64.0
4991,64.0,240,240,0.0,64.0
4992,69.0,0,240,0.0,64.0
4993,66.0,240,240,0.0,64.0
4994,74.0,120,600,0.0,64.0
4995,62.0,0,240,0.0,64.0
4996,50.0,120,240,0.0,64.0
4997,47.0,0,240,0.0,64.0
4998,67.0,120,120,0.0,64.0
4999,52.0,120,240,0.0,64.0
5000,69.0,120,120,0.0,64.0
5001,71.0,0,120,0.0,64.0
5002,48.0,120,240,0.0,64.0
5003,72.0,0,120,0.0,64.0
5004,45.0,0,240,0.0,64.0
5005,74.0,120,120,0.0,64.0
5006,76.0,120,120,0.0,64.0
5007,50.0,0,240,0.0,64.0
5008,66.0,120,0,0.0,64.0
5009,69.0,0,120,0.0,64.0
5010,71.0,120,120,0.0,64.0
5011,42.0,0,240,0.0,64.0
5012,67.0,0,120,0.0,64.0
5013,69.0,120,120,0.0,64.0
5014,72.0,0,120,0.0,64.0
5015,43.0,0,240,0.0,64.0
5016,62.0,120,120,0.0,64.0
5017,71.0,0,120,0.0,64.0
5018,69.0,120,120,0.0,64.0
5019,66.0,0,120,0.0,64.0
5020,36.0,0,240,0.0,64.0
5021,71.0,0,120,0.0,64.0
5022,67.0,120,120,0.0,64.0
5023,72.0,0,120,0.0,64.0
5024,38.0,0,480,0.0,64.0
5025,69.0,120,0,0.0,64.0
5026,62.0,120,120,0.0,64.0
5027,66.0,120,120,0.0,64.0
5028,69.0,240,120,0.0,64.0
5029,74.0,120,120,0.0,64.0
5030,69.0,120,120,0.0,64.0
5031,42.0,120,240,0.0,64.0
5032,72.0,0,120,0.0,64.0
5033,43.0,0,240,0.0,64.0
5034,71.0,120,120,0.0,64.0
5035,74.0,120,120,0.0,64.0
5036,66.0,120,120,0.0,64.0
5037,45.0,0,240,0.0,64.0
5038,69.0,120,120,0.0,64.0
5039,67.0,120,120,0.0,64.0
5040,47.0,120,240,0.0,64.0
5041,71.0,0,120,0.0,64.0
5042,48.0,120,240,0.0,64.0
5043,69.0,120,120,0.0,64.0
5044,67.0,0,120,0.0,64.0
5045,66.0,120,120,0.0,64.0
5046,50.0,0,240,0.0,64.0
5047,62.0,120,120,0.0,64.0
5048,52.0,0,240,0.0,64.0
5049,66.0,120,120,0.0,64.0
5050,69.0,0,120,0.0,64.0
5051,74.0,240,0,0.0,64.0
5052,54.0,0,240,0.0,64.0
5053,74.0,120,120,0.0,64.0
5054,69.0,120,120,0.0,64.0
5055,50.0,120,240,0.0,64.0
5056,72.0,0,120,0.0,64.0
5057,71.0,120,120,0.0,64.0
5058,55.0,0,240,0.0,64.0
5059,74.0,120,120,0.0,64.0
5060,50.0,0,240,0.0,64.0
5061,66.0,120,120,0.0,64.0
5062,69.0,120,120,0.0,64.0
5063,67.0,120,120,0.0,64.0
5064,47.0,120,240,0.0,64.0
5065,71.0,0,120,0.0,64.0
5066,69.0,120,120,0.0,64.0
5067,43.0,0,240,0.0,64.0
5068,67.0,120,120,0.0,64.0
5069,50.0,240,480,0.0,64.0
5070,66.0,120,120,0.0,64.0
5071,62.0,120,120,0.0,64.0
5072,66.0,120,120,0.0,64.0
5073,69.0,0,120,0.0,64.0
5074,74.0,120,600,0.0,64.0
5075,71.0,120,120,0.0,64.0
5076,66.0,120,120,0.0,64.0
5077,47.0,0,240,0.0,64.0
5078,69.0,120,120,0.0,64.0
5079,52.0,120,240,0.0,64.0
5080,67.0,0,240,0.0,64.0
5081,72.0,0,120,0.0,64.0
5082,43.0,0,240,0.0,64.0
5083,71.0,120,120,0.0,64.0
5084,76.0,240,240,0.0,64.0
5085,74.0,0,120,0.0,64.0
5086,72.0,120,600,0.0,64.0
5087,45.0,0,240,0.0,64.0
5088,69.0,120,120,0.0,64.0
5089,64.0,120,120,0.0,64.0
5090,48.0,0,240,0.0,64.0
5091,67.0,120,120,0.0,64.0
5092,50.0,0,240,0.0,64.0
5093,66.0,120,240,0.0,64.0
5094,62.0,0,120,0.0,64.0
5095,74.0,0,240,0.0,64.0
5096,38.0,240,240,0.0,64.0
5097,66.0,120,120,0.0,64.0
5098,69.0,0,120,0.0,64.0
5099,71.0,120,600,0.0,64.0
5100,43.0,120,240,0.0,64.0
5101,67.0,0,120,0.0,64.0
5102,47.0,0,240,0.0,64.0
5103,62.0,120,120,0.0,64.0
5104,65.0,120,120,0.0,64.0
5105,48.0,120,1200,0.0,64.0
5106,64.0,120,240,0.0,64.0
5107,69.0,0,120,0.0,64.0
5108,67.0,120,120,0.0,64.0
5109,76.0,0,120,0.0,64.0
5110,71.0,0,120,0.0,64.0
5111,74.0,120,120,0.0,64.0
5112,72.0,120,120,0.0,64.0
5113,71.0,120,120,0.0,64.0
5114,69.0,120,120,0.0,64.0
5115,67.0,120,120,0.0,64.0
5116,66.0,0,240,0.0,64.0
5117,67.0,0,120,0.0,64.0
5118,62.0,0,240,0.0,64.0
5119,66.0,120,120,0.0,64.0
5120,50.0,240,240,0.0,64.0
5121,69.0,0,120,0.0,64.0
5122,67.0,30,960,0.0,64.0
5123,47.0,0,240,0.0,64.0
5124,62.0,120,120,0.0,64.0
5125,60.0,120,120,0.0,64.0
5126,52.0,0,240,0.0,64.0
5127,59.0,120,120,0.0,64.0
5128,64.0,120,120,0.0,64.0
5129,48.0,120,240,0.0,64.0
5130,62.0,0,120,0.0,64.0
5131,60.0,120,120,0.0,64.0
5132,45.0,0,240,0.0,64.0
5133,59.0,0,120,0.0,64.0
5134,66.0,30,30,0.0,64.0
5135,57.0,120,120,0.0,64.0
5136,50.0,120,240,0.0,64.0
5137,67.0,60,30,0.0,64.0
5138,66.0,0,420,0.0,64.0
5139,59.0,0,120,0.0,64.0
5140,38.0,240,240,0.0,64.0
5141,60.0,120,120,0.0,64.0
5142,57.0,0,120,0.0,64.0
5143,67.0,240,240,0.0,64.0
5144,59.0,0,480,0.0,64.0
5145,43.0,240,480,0.0,64.0
5146,74.0,0,240,0.0,64.0
5147,55.0,0,720,0.0,64.0
5148,71.0,240,240,0.0,64.0
5149,76.0,240,240,0.0,64.0
5150,73.0,120,240,0.0,64.0
5151,53.0,120,120,0.0,64.0
5152,69.0,0,240,0.0,64.0
5153,52.0,240,120,0.0,64.0
5154,53.0,240,240,0.0,64.0
5155,74.0,120,600,0.0,64.0
5156,58.0,120,240,0.0,64.0
5157,55.0,120,240,0.0,64.0
5158,79.0,0,120,0.0,64.0
5159,52.0,0,240,0.0,64.0
5160,81.0,120,120,0.0,64.0
5161,82.0,120,120,0.0,64.0
5162,73.0,120,120,0.0,64.0
5163,57.0,120,240,0.0,64.0
5164,82.0,0,120,0.0,64.0
5165,81.0,120,120,0.0,64.0
5166,45.0,120,240,0.0,64.0
5167,79.0,0,120,0.0,64.0
5168,77.0,120,120,0.0,64.0
5169,50.0,0,1200,0.0,64.0
5170,79.0,120,120,0.0,64.0
5171,77.0,120,120,0.0,64.0
5172,69.0,120,240,0.0,64.0
5173,76.0,0,120,0.0,64.0
5174,74.0,120,120,0.0,64.0
5175,65.0,0,240,0.0,64.0
5176,76.0,120,120,0.0,64.0
5177,70.0,0,240,0.0,64.0
5178,77.0,120,120,0.0,64.0
5179,74.0,120,120,0.0,64.0
5180,68.0,120,240,0.0,64.0
5181,76.0,120,120,0.0,64.0
5182,77.0,0,120,0.0,64.0
5183,76.0,120,120,0.0,64.0
5184,64.0,120,240,0.0,64.0
5185,48.0,0,240,0.0,64.0
5186,74.0,0,120,0.0,64.0
5187,53.0,0,240,0.0,64.0
5188,72.0,120,120,0.0,64.0
5189,69.0,120,600,0.0,64.0
5190,74.0,120,120,0.0,64.0
5191,45.0,120,240,0.0,64.0
5192,76.0,120,120,0.0,64.0
5193,72.0,0,120,0.0,64.0
5194,47.0,0,240,0.0,64.0
5195,74.0,0,120,0.0,64.0
5196,71.0,120,240,0.0,64.0
5197,50.0,0,240,0.0,64.0
5198,76.0,120,120,0.0,64.0
5199,77.0,0,120,0.0,64.0
5200,83.0,0,720,0.0,64.0
5201,52.0,120,240,0.0,64.0
5202,68.0,120,120,0.0,64.0
5203,77.0,0,120,0.0,64.0
5204,40.0,0,240,0.0,64.0
5205,76.0,120,120,0.0,64.0
5206,74.0,120,120,0.0,64.0
5207,72.0,120,120,0.0,64.0
5208,45.0,0,240,0.0,64.0
5209,74.0,120,120,0.0,64.0
5210,52.0,120,240,0.0,64.0
5211,81.0,0,120,0.0,64.0
5212,72.0,120,120,0.0,64.0
5213,80.0,0,120,0.0,64.0
5214,71.0,0,120,0.0,64.0
5215,81.0,120,720,0.0,64.0
5216,48.0,0,240,0.0,64.0
5217,69.0,120,120,0.0,64.0
5218,71.0,120,120,0.0,64.0
5219,53.0,0,240,0.0,64.0
5220,72.0,120,120,0.0,64.0
5221,69.0,120,120,0.0,64.0
5222,51.0,0,240,0.0,64.0
5223,71.0,120,120,0.0,64.0
5224,72.0,0,120,0.0,64.0
5225,47.0,120,240,0.0,64.0
5226,79.0,0,120,0.0,64.0
5227,71.0,120,120,0.0,64.0
5228,78.0,0,120,0.0,64.0
5229,69.0,0,120,0.0,64.0
5230,79.0,0,120,0.0,64.0
5231,52.0,0,960,0.0,64.0
5232,67.0,120,120,0.0,64.0
5233,78.0,120,120,0.0,64.0
5234,69.0,0,120,0.0,64.0
5235,71.0,0,120,0.0,64.0
5236,76.0,120,120,0.0,64.0
5237,67.0,0,120,0.0,64.0
5238,74.0,120,120,0.0,64.0
5239,72.0,120,120,0.0,64.0
5240,69.0,0,240,0.0,64.0
5241,71.0,120,120,0.0,64.0
5242,69.0,120,120,0.0,64.0
5243,66.0,0,240,0.0,64.0
5244,67.0,120,120,0.0,64.0
5245,78.0,0,720,0.0,64.0
5246,51.0,120,240,0.0,64.0
5247,66.0,120,120,0.0,64.0
5248,64.0,0,120,0.0,64.0
5249,63.0,120,120,0.0,64.0
5250,59.0,240,240,0.0,64.0
5251,61.0,0,120,0.0,64.0
5252,55.0,120,240,0.0,64.0
5253,59.0,0,240,0.0,64.0
5254,76.0,120,120,0.0,64.0
5255,60.0,0,240,0.0,64.0
5256,75.0,240,120,0.0,64.0
5257,76.0,120,720,0.0,64.0
5258,57.0,240,240,0.0,64.0
5259,54.0,240,240,0.0,64.0
5260,59.0,120,1440,0.0,64.0
5261,78.0,0,240,0.0,64.0
5262,74.0,120,120,0.0,64.0
5263,73.0,120,120,0.0,64.0
5264,74.0,120,120,0.0,64.0
5265,72.0,0,120,0.0,64.0
5266,71.0,120,120,0.0,64.0
5267,79.0,120,240,0.0,64.0
5268,69.0,0,120,0.0,64.0
5269,76.0,120,240,0.0,64.0
5270,67.0,120,120,0.0,64.0
5271,66.0,0,120,0.0,64.0
5272,64.0,120,120,0.0,64.0
5273,73.0,0,240,0.0,64.0
5274,62.0,0,120,0.0,64.0
5275,60.0,120,120,0.0,64.0
5276,78.0,0,240,0.0,64.0
5277,59.0,120,120,0.0,64.0
5278,57.0,120,120,0.0,64.0
5279,81.0,120,240,0.0,64.0
5280,55.0,0,120,0.0,64.0
5281,75.0,0,240,0.0,64.0
5282,54.0,0,120,0.0,64.0
5283,55.0,120,120,0.0,64.0
5284,71.0,0,240,0.0,64.0
5285,52.0,0,120,0.0,64.0
5286,76.0,0,720,0.0,64.0
5287,60.0,120,120,0.0,64.0
5288,67.0,120,240,0.0,64.0
5289,55.0,0,120,0.0,64.0
5290,72.0,0,240,0.0,64.0
5291,57.0,120,120,0.0,64.0
5292,52.0,120,120,0.0,64.0
5293,69.0,120,240,0.0,64.0
5294,54.0,120,120,0.0,64.0
5295,52.0,0,120,0.0,64.0
5296,74.0,120,120,0.0,64.0
5297,54.0,0,120,0.0,64.0
5298,66.0,0,240,0.0,64.0
5299,52.0,0,120,0.0,64.0
5300,72.0,120,120,0.0,64.0
5301,53.0,120,120,0.0,64.0
5302,71.0,120,240,0.0,64.0
5303,52.0,0,120,0.0,64.0
5304,53.0,120,120,0.0,64.0
5305,74.0,0,240,0.0,64.0
5306,50.0,120,120,0.0,64.0
5307,68.0,0,240,0.0,64.0
5308,71.0,0,120,0.0,64.0
5309,68.0,120,120,0.0,64.0
5310,52.0,120,0,0.0,64.0
5311,64.0,120,240,0.0,64.0
5312,71.0,0,120,0.0,64.0
5313,48.0,120,240,0.0,64.0
5314,72.0,120,120,0.0,64.0
5315,76.0,0,120,0.0,64.0
5316,69.0,120,120,0.0,64.0
5317,53.0,0,240,0.0,64.0
5318,72.0,120,120,0.0,64.0
5319,77.0,120,120,0.0,64.0
5320,50.0,0,240,0.0,64.0
5321,74.0,0,120,0.0,64.0
5322,47.0,0,240,0.0,64.0
5323,76.0,0,120,0.0,64.0
5324,67.0,120,120,0.0,64.0
5325,77.0,0,120,0.0,64.0
5326,65.0,120,120,0.0,64.0
5327,76.0,120,120,0.0,64.0
5328,67.0,120,600,0.0,64.0
5329,52.0,0,240,0.0,64.0
5330,74.0,120,120,0.0,64.0
5331,73.0,120,120,0.0,64.0
5332,55.0,0,240,0.0,64.0
5333,71.0,120,120,0.0,64.0
5334,49.0,120,240,0.0,64.0
5335,69.0,0,240,0.0,64.0
5336,64.0,0,120,0.0,64.0
5337,45.0,0,240,0.0,64.0
5338,61.0,120,120,0.0,64.0
5339,81.0,0,240,0.0,64.0
5340,64.0,120,120,0.0,64.0
5341,50.0,0,720,0.0,64.0
5342,77.0,0,240,0.0,64.0
5343,65.0,120,120,0.0,64.0
5344,69.0,120,120,0.0,64.0
5345,62.0,120,120,0.0,64.0
5346,82.0,120,240,0.0,64.0
5347,65.0,0,120,0.0,64.0
5348,79.0,120,240,0.0,64.0
5349,70.0,120,120,0.0,64.0
5350,67.0,0,120,0.0,64.0
5351,69.0,0,120,0.0,64.0
5352,76.0,120,240,0.0,64.0
5353,48.0,120,120,0.0,64.0
5354,70.0,0,120,0.0,64.0
5355,46.0,0,120,0.0,64.0
5356,64.0,120,120,0.0,64.0
5357,48.0,0,240,0.0,64.0
5358,81.0,120,600,0.0,64.0
5359,67.0,120,120,0.0,64.0
5360,45.0,0,240,0.0,64.0
5361,65.0,120,120,0.0,64.0
5362,64.0,120,120,0.0,64.0
5363,62.0,0,480,0.0,64.0
5364,46.0,240,480,0.0,64.0
5365,74.0,120,120,0.0,64.0
5366,76.0,120,120,0.0,64.0
5367,77.0,0,120,0.0,64.0
5368,79.0,0,240,0.0,64.0
5369,52.0,120,120,0.0,64.0
5370,70.0,0,240,0.0,64.0
5371,50.0,120,120,0.0,64.0
5372,52.0,120,120,0.0,64.0
5373,49.0,120,120,0.0,64.0
5374,69.0,120,240,0.0,64.0
5375,52.0,0,120,0.0,64.0
5376,45.0,120,120,0.0,64.0
5377,79.0,0,240,0.0,64.0
5378,49.0,30,120,0.0,64.0
5379,77.0,30,30,0.0,64.0
5380,38.0,0,240,0.0,64.0
5381,79.0,60,30,0.0,64.0
5382,77.0,120,60,0.0,64.0
5383,76.0,120,120,0.0,64.0
5384,77.0,120,120,0.0,64.0
5385,50.0,0,480,0.0,64.0
5386,79.0,120,120,0.0,64.0
5387,76.0,120,120,0.0,64.0
5388,74.0,120,120,0.0,64.0
5389,69.0,0,240,0.0,64.0
5390,49.0,120,240,0.0,64.0
5391,76.0,120,120,0.0,64.0
5392,77.0,0,120,0.0,64.0
5393,76.0,120,120,0.0,64.0
5394,50.0,120,240,0.0,64.0
5395,65.0,0,240,0.0,64.0
5396,74.0,0,120,0.0,64.0
5397,70.0,0,240,0.0,64.0
5398,73.0,120,120,0.0,64.0
5399,55.0,0,240,0.0,64.0
5400,74.0,120,120,0.0,64.0
5401,52.0,0,240,0.0,64.0
5402,82.0,120,120,0.0,64.0
5403,67.0,0,240,0.0,64.0
5404,73.0,120,120,0.0,64.0
5405,64.0,120,240,0.0,64.0
5406,58.0,0,240,0.0,64.0
5407,74.0,120,120,0.0,64.0
5408,76.0,0,120,0.0,64.0
5409,74.0,120,120,0.0,64.0
5410,57.0,0,240,0.0,64.0
5411,69.0,120,600,0.0,64.0
5412,73.0,120,120,0.0,64.0
5413,71.0,120,120,0.0,64.0
5414,55.0,0,240,0.0,64.0
5415,73.0,120,120,0.0,64.0
5416,53.0,0,240,0.0,64.0
5417,74.0,0,120,0.0,64.0
5418,72.0,0,120,0.0,64.0
5419,62.0,120,120,0.0,64.0
5420,70.0,0,120,0.0,64.0
5421,50.0,0,240,0.0,64.0
5422,64.0,120,120,0.0,64.0
5423,65.0,120,120,0.0,64.0
5424,69.0,0,120,0.0,64.0
5425,70.0,120,120,0.0,64.0
5426,67.0,120,240,0.0,64.0
5427,74.0,0,120,0.0,64.0
5428,58.0,120,240,0.0,64.0
5429,79.0,120,120,0.0,64.0
5430,76.0,0,120,0.0,64.0
5431,74.0,120,120,0.0,64.0
5432,57.0,0,240,0.0,64.0
5433,73.0,120,120,0.0,64.0
5434,71.0,120,120,0.0,64.0
5435,67.0,0,240,0.0,64.0
5436,69.0,30,120,0.0,64.0
5437,65.0,30,30,0.0,64.0
5438,81.0,120,240,0.0,64.0
5439,67.0,60,30,0.0,64.0
5440,65.0,120,60,0.0,64.0
5441,64.0,0,120,0.0,64.0
5442,65.0,120,120,0.0,64.0
5443,74.0,120,360,0.0,64.0
5444,67.0,120,120,0.0,64.0
5445,64.0,0,480,0.0,64.0
5446,73.0,120,120,0.0,64.0
5447,71.0,120,120,0.0,64.0
5448,57.0,120,240,0.0,64.0
5449,73.0,0,120,0.0,64.0
5450,74.0,120,120,0.0,64.0
5451,53.0,0,240,0.0,64.0
5452,69.0,0,120,0.0,64.0
5453,58.0,0,240,0.0,64.0
5454,65.0,120,120,0.0,64.0
5455,74.0,0,480,0.0,64.0
5456,62.0,120,120,0.0,64.0
5457,55.0,120,240,0.0,64.0
5458,64.0,120,120,0.0,64.0
5459,62.0,0,120,0.0,64.0
5460,72.0,0,120,0.0,64.0
5461,52.0,120,240,0.0,64.0
5462,64.0,120,120,0.0,64.0
5463,71.0,0,120,0.0,64.0
5464,65.0,0,120,0.0,64.0
5465,64.0,120,120,0.0,64.0
5466,57.0,0,480,0.0,64.0
5467,72.0,0,960,0.0,64.0
5468,69.0,120,120,0.0,64.0
5469,64.0,120,120,0.0,64.0
5470,60.0,120,120,0.0,64.0
5471,62.0,120,120,0.0,64.0
5472,60.0,120,120,0.0,64.0
5473,53.0,120,240,0.0,64.0
5474,62.0,120,120,0.0,64.0
5475,64.0,0,120,0.0,64.0
5476,70.0,120,720,0.0,64.0
5477,62.0,120,120,0.0,64.0
5478,50.0,0,240,0.0,64.0
5479,65.0,120,120,0.0,64.0
5480,62.0,120,120,0.0,64.0
5481,55.0,0,240,0.0,64.0
5482,58.0,120,120,0.0,64.0
5483,52.0,0,240,0.0,64.0
5484,60.0,120,120,0.0,64.0
5485,58.0,0,120,0.0,64.0
5486,48.0,0,240,0.0,64.0
5487,69.0,0,120,0.0,64.0
5488,60.0,120,120,0.0,64.0
5489,62.0,0,120,0.0,64.0
5490,67.0,120,120,0.0,64.0
5491,53.0,120,480,0.0,64.0
5492,69.0,0,960,0.0,64.0
5493,60.0,120,120,0.0,64.0
5494,65.0,120,120,0.0,64.0
5495,60.0,120,120,0.0,64.0
5496,57.0,0,120,0.0,64.0
5497,58.0,120,120,0.0,64.0
5498,57.0,120,120,0.0,64.0
5499,58.0,120,120,0.0,64.0
5500,50.0,0,240,0.0,64.0
5501,60.0,120,120,0.0,64.0
5502,52.0,0,240,0.0,64.0
5503,58.0,120,120,0.0,64.0
5504,67.0,120,600,0.0,64.0
5505,62.0,120,120,0.0,64.0
5506,60.0,120,120,0.0,64.0
5507,55.0,0,240,0.0,64.0
5508,58.0,120,120,0.0,64.0
5509,57.0,120,600,0.0,64.0
5510,49.0,0,240,0.0,64.0
5511,64.0,120,120,0.0,64.0
5512,65.0,120,120,0.0,64.0
5513,45.0,120,240,0.0,64.0
5514,67.0,0,120,0.0,64.0
5515,50.0,120,960,0.0,64.0
5516,65.0,0,0,0.0,64.0
5517,69.0,120,120,0.0,64.0
5518,62.0,120,120,0.0,64.0
5519,65.0,0,120,0.0,64.0
5520,58.0,0,120,0.0,64.0
5521,62.0,120,120,0.0,64.0
5522,67.0,0,240,0.0,64.0
5523,64.0,120,120,0.0,64.0
5524,62.0,120,120,0.0,64.0
5525,58.0,120,480,0.0,64.0
5526,64.0,120,120,0.0,64.0
5527,65.0,0,120,0.0,64.0
5528,49.0,0,480,0.0,64.0
5529,64.0,120,120,0.0,64.0
5530,67.0,0,120,0.0,64.0
5531,64.0,0,120,0.0,64.0
5532,57.0,120,120,0.0,64.0
5533,61.0,0,120,0.0,64.0
5534,55.0,240,120,0.0,64.0
5535,50.0,0,240,0.0,64.0
5536,69.0,120,240,0.0,64.0
5537,53.0,0,240,0.0,64.0
5538,46.0,0,240,0.0,64.0
5539,62.0,0,240,0.0,64.0
5540,67.0,120,120,0.0,64.0
5541,65.0,120,120,0.0,64.0
5542,43.0,0,240,0.0,64.0
5543,52.0,120,240,0.0,64.0
5544,67.0,120,120,0.0,64.0
5545,65.0,0,120,0.0,64.0
5546,45.0,0,240,0.0,64.0
5547,61.0,120,240,0.0,64.0
5548,64.0,120,120,0.0,64.0
5549,67.0,0,120,0.0,64.0
5550,65.0,120,120,0.0,64.0
5551,38.0,120,240,0.0,64.0
5552,62.0,0,120,0.0,64.0
5553,65.0,120,120,0.0,64.0
5554,50.0,240,240,0.0,64.0
5555,69.0,0,120,0.0,64.0
5556,74.0,120,600,0.0,64.0
5557,57.0,120,120,0.0,64.0
5558,53.0,0,0,0.0,64.0
5559,50.0,0,120,0.0,64.0
5560,58.0,0,120,0.0,64.0
5561,55.0,0,120,0.0,64.0
5562,70.0,120,120,0.0,64.0
5563,74.0,0,120,0.0,64.0
5564,58.0,120,120,0.0,64.0
5565,55.0,120,240,0.0,64.0
5566,62.0,0,120,0.0,64.0
5567,79.0,0,120,0.0,64.0
5568,58.0,0,240,0.0,64.0
5569,67.0,120,120,0.0,64.0
5570,74.0,120,120,0.0,64.0
5571,55.0,0,240,0.0,64.0
5572,70.0,120,120,0.0,64.0
5573,67.0,120,120,0.0,64.0
5574,76.0,120,120,0.0,64.0
5575,60.0,0,120,0.0,64.0
5576,48.0,0,240,0.0,64.0
5577,64.0,120,0,0.0,64.0
5578,67.0,120,0,0.0,64.0
5579,72.0,120,120,0.0,64.0
5580,52.0,0,240,0.0,64.0
5581,60.0,120,120,0.0,64.0
5582,72.0,120,600,0.0,64.0
5583,67.0,120,120,0.0,64.0
5584,48.0,120,240,0.0,64.0
5585,64.0,120,120,0.0,64.0
5586,60.0,0,120,0.0,64.0
5587,69.0,0,0,0.0,64.0
5588,53.0,120,0,0.0,64.0
5589,72.0,0,120,0.0,64.0
5590,57.0,120,120,0.0,64.0
5591,77.0,0,120,0.0,64.0
5592,60.0,0,120,0.0,64.0
5593,57.0,120,240,0.0,64.0
5594,65.0,120,120,0.0,64.0
5595,72.0,0,120,0.0,64.0
5596,69.0,120,120,0.0,64.0
5597,53.0,0,240,0.0,64.0
5598,65.0,120,120,0.0,64.0
5599,74.0,0,120,0.0,64.0
5600,62.0,120,120,0.0,64.0
5601,70.0,0,120,0.0,64.0
5602,74.0,0,120,0.0,64.0
5603,65.0,120,120,0.0,64.0
5604,46.0,120,240,0.0,64.0
5605,77.0,0,120,0.0,64.0
5606,70.0,0,120,0.0,64.0
5607,58.0,120,120,0.0,64.0
5608,50.0,120,240,0.0,64.0
5609,82.0,120,600,0.0,64.0
5610,65.0,0,120,0.0,64.0
5611,46.0,0,240,0.0,64.0
5612,62.0,120,120,0.0,64.0
5613,58.0,120,120,0.0,64.0
5614,52.0,120,240,0.0,64.0
5615,67.0,120,600,0.0,64.0
5616,79.0,0,120,0.0,64.0
5617,76.0,120,120,0.0,64.0
5618,48.0,0,240,0.0,64.0
5619,72.0,120,120,0.0,64.0
5620,53.0,0,240,0.0,64.0
5621,81.0,120,360,0.0,64.0
5622,60.0,120,120,0.0,64.0
5623,57.0,0,240,0.0,64.0
5624,65.0,0,360,0.0,64.0
5625,77.0,120,120,0.0,64.0
5626,70.0,120,120,0.0,64.0
5627,50.0,0,240,0.0,64.0
5628,58.0,0,120,0.0,64.0
5629,74.0,120,120,0.0,64.0
5630,57.0,120,120,0.0,64.0
5631,72.0,0,120,0.0,64.0
5632,52.0,0,240,0.0,64.0
5633,70.0,120,120,0.0,64.0
5634,55.0,0,120,0.0,64.0
5635,53.0,120,120,0.0,64.0
5636,69.0,0,240,0.0,64.0
5637,62.0,120,120,0.0,64.0
5638,64.0,120,120,0.0,64.0
5639,74.0,0,240,0.0,64.0
5640,65.0,120,120,0.0,64.0
5641,70.0,120,240,0.0,64.0
5642,67.0,120,120,0.0,64.0
5643,65.0,0,120,0.0,64.0
5644,52.0,0,120,0.0,64.0
5645,67.0,120,120,0.0,64.0
5646,50.0,120,120,0.0,64.0
5647,69.0,0,120,0.0,64.0
5648,67.0,0,0,0.0,64.0
5649,52.0,120,240,0.0,64.0
5650,72.0,120,600,0.0,64.0
5651,70.0,0,120,0.0,64.0
5652,69.0,120,120,0.0,64.0
5653,48.0,120,240,0.0,64.0
5654,67.0,0,120,0.0,64.0
5655,50.0,120,480,0.0,64.0
5656,65.0,120,120,0.0,64.0
5657,67.0,120,120,0.0,64.0
5658,69.0,0,120,0.0,64.0
5659,70.0,120,240,0.0,64.0
5660,62.0,0,120,0.0,64.0
5661,55.0,0,240,0.0,64.0
5662,60.0,120,120,0.0,64.0
5663,62.0,0,240,0.0,64.0
5664,58.0,120,120,0.0,64.0
5665,60.0,120,240,0.0,64.0
5666,67.0,120,120,0.0,64.0
5667,52.0,0,240,0.0,64.0
5668,65.0,0,120,0.0,64.0
5669,70.0,0,240,0.0,64.0
5670,48.0,0,240,0.0,64.0
5671,64.0,120,120,0.0,64.0
5672,62.0,120,120,0.0,64.0
5673,53.0,0,240,0.0,64.0
5674,60.0,0,240,0.0,64.0
5675,69.0,120,120,0.0,64.0
5676,67.0,120,120,0.0,64.0
5677,41.0,0,240,0.0,64.0
5678,65.0,120,360,0.0,64.0
5679,69.0,120,120,0.0,64.0
5680,70.0,120,120,0.0,64.0
5681,48.0,120,1200,0.0,64.0
5682,67.0,120,240,0.0,64.0
5683,64.0,0,120,0.0,64.0
5684,65.0,120,120,0.0,64.0
5685,69.0,0,120,0.0,64.0
5686,70.0,120,120,0.0,64.0
5687,62.0,0,120,0.0,64.0
5688,64.0,0,240,0.0,64.0
5689,72.0,120,120,0.0,64.0
5690,74.0,120,120,0.0,64.0
5691,69.0,0,240,0.0,64.0
5692,76.0,120,120,0.0,64.0
5693,72.0,120,120,0.0,64.0
5694,65.0,0,240,0.0,64.0
5695,74.0,120,120,0.0,64.0
5696,72.0,0,120,0.0,64.0
5697,74.0,0,120,0.0,64.0
5698,62.0,0,240,0.0,64.0
5699,58.0,120,120,0.0,64.0
5700,76.0,120,120,0.0,64.0
5701,57.0,0,120,0.0,64.0
5702,67.0,120,600,0.0,64.0
5703,58.0,0,240,0.0,64.0
5704,74.0,120,120,0.0,64.0
5705,77.0,120,120,0.0,64.0
5706,55.0,120,240,0.0,64.0
5707,76.0,120,120,0.0,64.0
5708,74.0,0,120,0.0,64.0
5709,72.0,120,600,0.0,64.0
5710,57.0,120,480,0.0,64.0
5711,60.0,120,120,0.0,64.0
5712,62.0,120,120,0.0,64.0
5713,64.0,0,120,0.0,64.0
5714,69.0,120,120,0.0,64.0
5715,62.0,120,240,0.0,64.0
5716,67.0,120,120,0.0,64.0
5717,65.0,0,120,0.0,64.0
5718,74.0,120,120,0.0,64.0
5719,58.0,120,240,0.0,64.0
5720,72.0,0,120,0.0,64.0
5721,70.0,120,120,0.0,64.0
5722,55.0,0,240,0.0,64.0
5723,69.0,0,120,0.0,64.0
5724,67.0,120,120,0.0,64.0
5725,64.0,30,30,0.0,64.0
5726,60.0,0,240,0.0,64.0
5727,65.0,60,30,0.0,64.0
5728,64.0,60,300,0.0,64.0
5729,72.0,120,120,0.0,64.0
5730,48.0,0,240,0.0,64.0
5731,70.0,0,120,0.0,64.0
5732,72.0,0,120,0.0,64.0
5733,62.0,60,60,0.0,64.0
5734,64.0,120,60,0.0,64.0
5735,53.0,0,240,0.0,64.0
5736,69.0,0,240,0.0,64.0
5737,65.0,120,120,0.0,64.0
5738,67.0,120,120,0.0,64.0
5739,77.0,0,240,0.0,64.0
5740,65.0,120,120,0.0,64.0
5741,67.0,120,120,0.0,64.0
5742,69.0,120,120,0.0,64.0
5743,65.0,120,240,0.0,64.0
5744,50.0,0,240,0.0,64.0
5745,70.0,0,120,0.0,64.0
5746,69.0,120,120,0.0,64.0
5747,77.0,0,240,0.0,64.0
5748,55.0,120,240,0.0,64.0
5749,70.0,120,0,0.0,64.0
5750,67.0,120,120,0.0,64.0
5751,69.0,0,120,0.0,64.0
5752,77.0,0,240,0.0,64.0
5753,67.0,120,120,0.0,64.0
5754,69.0,120,120,0.0,64.0
5755,70.0,120,120,0.0,64.0
5756,48.0,0,240,0.0,64.0
5757,67.0,0,240,0.0,64.0
5758,72.0,120,120,0.0,64.0
5759,76.0,0,240,0.0,64.0
5760,70.0,120,120,0.0,64.0
5761,72.0,120,120,0.0,64.0
5762,69.0,0,240,0.0,64.0
5763,53.0,0,240,0.0,64.0
5764,77.0,120,120,0.0,64.0
5765,79.0,120,120,0.0,64.0
5766,65.0,0,240,0.0,64.0
5767,77.0,120,120,0.0,64.0
5768,79.0,120,120,0.0,64.0
5769,53.0,120,240,0.0,64.0
5770,81.0,120,120,0.0,64.0
5771,82.0,0,120,0.0,64.0
5772,65.0,0,240,0.0,64.0
5773,81.0,120,120,0.0,64.0
5774,82.0,120,120,0.0,64.0
5775,58.0,0,240,0.0,64.0
5776,79.0,120,120,0.0,64.0
5777,81.0,120,120,0.0,64.0
5778,65.0,120,240,0.0,64.0
5779,79.0,120,120,0.0,64.0
5780,81.0,0,120,0.0,64.0
5781,82.0,120,120,0.0,64.0
5782,55.0,0,240,0.0,64.0
5783,84.0,120,120,0.0,64.0
5784,64.0,120,240,0.0,64.0
5785,82.0,120,120,0.0,64.0
5786,84.0,0,120,0.0,64.0
5787,81.0,0,240,0.0,64.0
5788,65.0,0,240,0.0,64.0
5789,53.0,120,120,0.0,64.0
5790,55.0,120,120,0.0,64.0
5791,53.0,120,120,0.0,64.0
5792,77.0,0,240,0.0,64.0
5793,55.0,120,120,0.0,64.0
5794,65.0,0,240,0.0,64.0
5795,57.0,120,120,0.0,64.0
5796,72.0,120,240,0.0,64.0
5797,58.0,0,120,0.0,64.0
5798,57.0,120,120,0.0,64.0
5799,77.0,0,240,0.0,64.0
5800,58.0,120,120,0.0,64.0
5801,55.0,120,120,0.0,64.0
5802,74.0,0,240,0.0,64.0
5803,70.0,120,240,0.0,64.0
5804,57.0,0,120,0.0,64.0
5805,55.0,120,120,0.0,64.0
5806,77.0,120,240,0.0,64.0
5807,57.0,0,120,0.0,64.0
5808,58.0,120,120,0.0,64.0
5809,67.0,0,240,0.0,64.0
5810,76.0,0,240,0.0,64.0
5811,60.0,120,120,0.0,64.0
5812,58.0,120,120,0.0,64.0
5813,76.0,0,240,0.0,64.0
5814,60.0,240,120,0.0,64.0
5815,77.0,0,240,0.0,64.0
5816,57.0,120,240,0.0,64.0
5817,72.0,120,240,0.0,64.0
5818,53.0,0,240,0.0,64.0
5819,77.0,120,120,0.0,64.0
5820,76.0,0,120,0.0,64.0
5821,74.0,120,120,0.0,64.0
5822,55.0,0,240,0.0,64.0
5823,77.0,0,960,0.0,64.0
5824,72.0,120,120,0.0,64.0
5825,70.0,120,120,0.0,64.0
5826,57.0,0,240,0.0,64.0
5827,69.0,120,120,0.0,64.0
5828,67.0,120,120,0.0,64.0
5829,58.0,0,240,0.0,64.0
5830,69.0,120,120,0.0,64.0
5831,50.0,120,240,0.0,64.0
5832,67.0,120,120,0.0,64.0
5833,69.0,0,120,0.0,64.0
5834,70.0,120,120,0.0,64.0
5835,76.0,120,960,0.0,64.0
5836,55.0,0,240,0.0,64.0
5837,72.0,120,120,0.0,64.0
5838,70.0,120,120,0.0,64.0
5839,52.0,0,240,0.0,64.0
5840,72.0,120,120,0.0,64.0
5841,57.0,0,240,0.0,64.0
5842,65.0,120,120,0.0,64.0
5843,67.0,120,120,0.0,64.0
5844,48.0,0,240,0.0,64.0
5845,65.0,120,120,0.0,64.0
5846,67.0,0,120,0.0,64.0
5847,69.0,120,120,0.0,64.0
5848,74.0,0,960,0.0,64.0
5849,53.0,0,240,0.0,64.0
5850,70.0,120,120,0.0,64.0
5851,69.0,120,120,0.0,64.0
5852,50.0,0,240,0.0,64.0
5853,70.0,120,120,0.0,64.0
5854,55.0,0,240,0.0,64.0
5855,64.0,120,120,0.0,64.0
5856,65.0,120,120,0.0,64.0
5857,64.0,120,120,0.0,64.0
5858,47.0,120,240,0.0,64.0
5859,65.0,0,120,0.0,64.0
5860,52.0,0,240,0.0,64.0
5861,73.0,120,240,0.0,64.0
5862,67.0,120,120,0.0,64.0
5863,69.0,0,120,0.0,64.0
5864,81.0,0,240,0.0,64.0
5865,67.0,120,120,0.0,64.0
5866,49.0,0,240,0.0,64.0
5867,69.0,120,120,0.0,64.0
5868,50.0,0,240,0.0,64.0
5869,74.0,120,120,0.0,64.0
5870,65.0,120,240,0.0,64.0
5871,76.0,0,120,0.0,64.0
5872,74.0,120,120,0.0,64.0
5873,69.0,0,240,0.0,64.0
5874,76.0,120,120,0.0,64.0
5875,46.0,120,240,0.0,64.0
5876,62.0,0,240,0.0,64.0
5877,77.0,120,120,0.0,64.0
5878,79.0,0,120,0.0,64.0
5879,77.0,120,120,0.0,64.0
5880,74.0,120,240,0.0,64.0
5881,79.0,0,120,0.0,64.0
5882,43.0,120,240,0.0,64.0
5883,76.0,120,120,0.0,64.0
5884,70.0,0,240,0.0,64.0
5885,77.0,0,120,0.0,64.0
5886,74.0,0,240,0.0,64.0
5887,76.0,120,120,0.0,64.0
5888,77.0,120,120,0.0,64.0
5889,64.0,0,240,0.0,64.0
5890,79.0,120,120,0.0,64.0
5891,45.0,120,240,0.0,64.0
5892,81.0,0,120,0.0,64.0
5893,79.0,120,120,0.0,64.0
5894,73.0,120,240,0.0,64.0
5895,81.0,0,120,0.0,64.0
5896,62.0,0,120,0.0,64.0
5897,77.0,120,120,0.0,64.0
5898,38.0,120,240,0.0,64.0
5899,64.0,0,120,0.0,64.0
5900,79.0,0,120,0.0,64.0
5901,62.0,120,120,0.0,64.0
5902,45.0,0,240,0.0,64.0
5903,77.0,0,120,0.0,64.0
5904,64.0,120,120,0.0,64.0
5905,79.0,0,120,0.0,64.0
5906,65.0,0,120,0.0,64.0
5907,81.0,120,120,0.0,64.0
5908,50.0,120,960,0.0,64.0
5909,67.0,120,120,0.0,64.0
5910,82.0,0,120,0.0,64.0
5911,65.0,0,120,0.0,64.0
5912,81.0,120,120,0.0,64.0
5913,82.0,0,120,0.0,64.0
5914,67.0,120,120,0.0,64.0
5915,79.0,0,120,0.0,64.0
5916,64.0,120,120,0.0,64.0
5917,81.0,0,120,0.0,64.0
5918,65.0,120,120,0.0,64.0
5919,79.0,0,120,0.0,64.0
5920,64.0,120,120,0.0,64.0
5921,77.0,0,120,0.0,64.0
5922,65.0,0,120,0.0,64.0
5923,49.0,120,480,0.0,64.0
5924,67.0,120,120,0.0,64.0
5925,76.0,0,720,0.0,64.0
5926,69.0,120,120,0.0,64.0
5927,67.0,120,120,0.0,64.0
5928,69.0,0,120,0.0,64.0
5929,65.0,120,120,0.0,64.0
5930,50.0,0,480,0.0,64.0
5931,64.0,120,120,0.0,64.0
5932,65.0,120,120,0.0,64.0
5933,81.0,0,240,0.0,64.0
5934,69.0,240,120,0.0,64.0
5935,77.0,0,240,0.0,64.0
5936,74.0,0,720,0.0,64.0
5937,55.0,120,120,0.0,64.0
5938,53.0,120,120,0.0,64.0
5939,82.0,240,240,0.0,64.0
5940,55.0,0,120,0.0,64.0
5941,52.0,120,480,0.0,64.0
5942,81.0,120,240,0.0,64.0
5943,76.0,0,240,0.0,64.0
5944,72.0,120,120,0.0,64.0
5945,70.0,0,120,0.0,64.0
5946,72.0,120,120,0.0,64.0
5947,81.0,120,600,0.0,64.0
5948,69.0,120,120,0.0,64.0
5949,54.0,0,240,0.0,64.0
5950,62.0,120,120,0.0,64.0
5951,72.0,120,120,0.0,64.0
5952,70.0,120,600,0.0,64.0
5953,55.0,0,480,0.0,64.0
5954,74.0,120,120,0.0,64.0
5955,76.0,120,120,0.0,64.0
5956,77.0,120,120,0.0,64.0
5957,79.0,0,240,0.0,64.0
5958,67.0,120,120,0.0,64.0
5959,55.0,0,480,0.0,64.0
5960,70.0,0,240,0.0,64.0
5961,64.0,120,120,0.0,64.0
5962,67.0,120,120,0.0,64.0
5963,69.0,0,240,0.0,64.0
5964,61.0,120,120,0.0,64.0
5965,62.0,120,120,0.0,64.0
5966,64.0,120,120,0.0,64.0
5967,49.0,0,240,0.0,64.0
5968,79.0,0,240,0.0,64.0
5969,61.0,30,120,0.0,64.0
5970,77.0,30,30,0.0,64.0
5971,50.0,0,240,0.0,64.0
5972,57.0,120,240,0.0,64.0
5973,79.0,60,30,0.0,64.0
5974,77.0,120,60,0.0,64.0
5975,76.0,0,120,0.0,64.0
5976,44.0,120,240,0.0,64.0
5977,74.0,120,360,0.0,64.0
5978,77.0,120,120,0.0,64.0
5979,79.0,0,120,0.0,64.0
5980,45.0,120,1200,0.0,64.0
5981,76.0,120,240,0.0,64.0
5982,72.0,0,120,0.0,64.0
5983,74.0,120,120,0.0,64.0
5984,78.0,0,120,0.0,64.0
5985,80.0,120,120,0.0,64.0
5986,71.0,0,120,0.0,64.0
5987,72.0,120,240,0.0,64.0
5988,81.0,120,120,0.0,64.0
5989,83.0,0,120,0.0,64.0
5990,84.0,120,120,0.0,64.0
5991,77.0,120,240,0.0,64.0
5992,81.0,0,120,0.0,64.0
5993,83.0,120,120,0.0,64.0
5994,74.0,0,240,0.0,64.0
5995,81.0,0,120,0.0,64.0
5996,83.0,0,120,0.0,64.0
5997,71.0,0,240,0.0,64.0
5998,55.0,120,120,0.0,64.0
5999,84.0,120,120,0.0,64.0
6000,53.0,0,120,0.0,64.0
6001,83.0,120,120,0.0,64.0
6002,55.0,120,240,0.0,64.0
6003,76.0,0,120,0.0,64.0
6004,52.0,0,240,0.0,64.0
6005,78.0,120,120,0.0,64.0
6006,80.0,120,120,0.0,64.0
6007,81.0,120,600,0.0,64.0
6008,53.0,0,480,0.0,64.0
6009,69.0,120,120,0.0,64.0
6010,71.0,120,120,0.0,64.0
6011,72.0,120,120,0.0,64.0
6012,74.0,0,240,0.0,64.0
6013,77.0,120,120,0.0,64.0
6014,65.0,0,240,0.0,64.0
6015,59.0,120,240,0.0,64.0
6016,76.0,120,120,0.0,64.0
6017,74.0,0,120,0.0,64.0
6018,56.0,0,240,0.0,64.0
6019,64.0,0,240,0.0,64.0
6020,83.0,120,120,0.0,64.0
6021,81.0,120,120,0.0,64.0
6022,52.0,0,240,0.0,64.0
6023,74.0,30,240,0.0,64.0
6024,80.0,120,120,0.0,64.0
6025,78.0,0,120,0.0,64.0
6026,76.0,0,240,0.0,64.0
6027,57.0,0,240,0.0,64.0
6028,72.0,30,30,0.0,64.0
6029,74.0,60,30,0.0,64.0
6030,72.0,120,60,0.0,64.0
6031,71.0,120,120,0.0,64.0
6032,81.0,120,360,0.0,64.0
6033,72.0,120,120,0.0,64.0
6034,45.0,0,240,0.0,64.0
6035,74.0,120,120,0.0,64.0
6036,40.0,120,240,0.0,64.0
6037,71.0,0,480,0.0,64.0
6038,80.0,0,120,0.0,64.0
6039,78.0,120,120,0.0,64.0
6040,52.0,0,240,0.0,64.0
6041,80.0,240,120,0.0,64.0
6042,48.0,0,240,0.0,64.0
6043,81.0,120,960,0.0,64.0
6044,76.0,120,120,0.0,64.0
6045,53.0,0,240,0.0,64.0
6046,74.0,120,120,0.0,64.0
6047,72.0,120,120,0.0,64.0
6048,50.0,0,240,0.0,64.0
6049,71.0,120,120,0.0,64.0
6050,72.0,120,120,0.0,64.0
6051,47.0,0,240,0.0,64.0
6052,71.0,120,120,0.0,64.0
6053,72.0,0,120,0.0,64.0
6054,79.0,240,960,0.0,64.0
6055,74.0,120,120,0.0,64.0
6056,52.0,0,480,0.0,64.0
6057,76.0,120,120,0.0,64.0
6058,74.0,120,120,0.0,64.0
6059,76.0,120,120,0.0,64.0
6060,74.0,120,120,0.0,64.0
6061,73.0,120,120,0.0,64.0
6062,57.0,0,240,0.0,64.0
6063,71.0,120,120,0.0,64.0
6064,69.0,0,120,0.0,64.0
6065,53.0,0,240,0.0,64.0
6066,74.0,0,960,0.0,64.0
6067,81.0,120,120,0.0,64.0
6068,79.0,120,120,0.0,64.0
6069,58.0,120,240,0.0,64.0
6070,77.0,0,120,0.0,64.0
6071,55.0,0,240,0.0,64.0
6072,76.0,120,120,0.0,64.0
6073,77.0,120,120,0.0,64.0
6074,76.0,120,120,0.0,64.0
6075,52.0,0,240,0.0,64.0
6076,77.0,120,120,0.0,64.0
6077,79.0,120,120,0.0,64.0
6078,72.0,0,960,0.0,64.0
6079,57.0,120,480,0.0,64.0
6080,81.0,120,120,0.0,64.0
6081,79.0,120,120,0.0,64.0
6082,81.0,0,120,0.0,64.0
6083,79.0,120,120,0.0,64.0
6084,78.0,120,120,0.0,64.0
6085,76.0,120,120,0.0,64.0
6086,50.0,0,240,0.0,64.0
6087,74.0,240,120,0.0,64.0
6088,47.0,0,240,0.0,64.0
6089,79.0,0,960,0.0,64.0
6090,74.0,120,120,0.0,64.0
6091,72.0,120,120,0.0,64.0
6092,52.0,0,240,0.0,64.0
6093,71.0,120,120,0.0,64.0
6094,69.0,120,120,0.0,64.0
6095,48.0,120,240,0.0,64.0
6096,71.0,0,120,0.0,64.0
6097,69.0,120,120,0.0,64.0
6098,45.0,120,240,0.0,64.0
6099,71.0,0,120,0.0,64.0
6100,72.0,120,120,0.0,64.0
6101,50.0,120,480,0.0,64.0
6102,77.0,240,960,0.0,64.0
6103,74.0,120,120,0.0,64.0
6104,72.0,120,120,0.0,64.0
6105,74.0,0,120,0.0,64.0
6106,72.0,120,120,0.0,64.0
6107,71.0,120,120,0.0,64.0
6108,55.0,0,240,0.0,64.0
6109,69.0,120,120,0.0,64.0
6110,67.0,0,120,0.0,64.0
6111,72.0,120,960,0.0,64.0
6112,52.0,0,240,0.0,64.0
6113,79.0,120,120,0.0,64.0
6114,57.0,120,240,0.0,64.0
6115,77.0,120,120,0.0,64.0
6116,76.0,0,120,0.0,64.0
6117,74.0,120,120,0.0,64.0
6118,53.0,120,240,0.0,64.0
6119,76.0,0,120,0.0,64.0
6120,74.0,120,120,0.0,64.0
6121,50.0,0,240,0.0,64.0
6122,76.0,0,120,0.0,64.0
6123,55.0,0,240,0.0,64.0
6124,77.0,120,120,0.0,64.0
6125,71.0,240,480,0.0,64.0
6126,79.0,120,120,0.0,64.0
6127,43.0,0,240,0.0,64.0
6128,77.0,120,120,0.0,64.0
6129,79.0,0,120,0.0,64.0
6130,48.0,240,480,0.0,64.0
6131,72.0,240,240,0.0,64.0
6132,76.0,0,480,0.0,64.0
6133,67.0,0,240,0.0,64.0
6134,64.0,240,240,0.0,64.0
6135,69.0,0,240,0.0,64.0
6136,72.0,240,240,0.0,64.0
6137,65.0,240,240,0.0,64.0
6138,69.0,0,240,0.0,64.0
6139,74.0,240,240,0.0,64.0
6140,62.0,0,240,0.0,64.0
6141,71.0,240,240,0.0,64.0
6142,55.0,120,240,0.0,64.0
6143,67.0,0,240,0.0,64.0
6144,72.0,120,600,0.0,64.0
6145,52.0,120,240,0.0,64.0
6146,60.0,0,120,0.0,64.0
6147,62.0,120,120,0.0,64.0
6148,57.0,0,240,0.0,64.0
6149,64.0,120,120,0.0,64.0
6150,65.0,120,600,0.0,64.0
6151,53.0,0,240,0.0,64.0
6152,77.0,120,120,0.0,64.0
6153,50.0,120,240,0.0,64.0
6154,79.0,120,120,0.0,64.0
6155,81.0,0,120,0.0,64.0
6156,55.0,0,240,0.0,64.0
6157,71.0,0,120,0.0,64.0
6158,59.0,120,120,0.0,64.0
6159,74.0,0,120,0.0,64.0
6160,47.0,120,240,0.0,64.0
6161,76.0,120,120,0.0,64.0
6162,60.0,0,120,0.0,64.0
6163,62.0,0,120,0.0,64.0
6164,77.0,0,120,0.0,64.0
6165,64.0,0,120,0.0,64.0
6166,48.0,120,240,0.0,64.0
6167,67.0,120,120,0.0,64.0
6168,71.0,0,120,0.0,64.0
6169,62.0,0,120,0.0,64.0
6170,64.0,120,120,0.0,64.0
6171,42.0,0,240,0.0,64.0
6172,72.0,0,120,0.0,64.0
6173,65.0,120,120,0.0,64.0
6174,74.0,0,120,0.0,64.0
6175,43.0,0,480,0.0,64.0
6176,62.0,120,120,0.0,64.0
6177,71.0,0,480,0.0,64.0
6178,55.0,120,120,0.0,64.0
6179,59.0,120,120,0.0,64.0
6180,62.0,240,120,0.0,64.0
6181,79.0,120,120,0.0,64.0
6182,74.0,120,120,0.0,64.0
6183,47.0,0,240,0.0,64.0
6184,77.0,120,120,0.0,64.0
6185,76.0,120,120,0.0,64.0
6186,48.0,120,240,0.0,64.0
6187,79.0,0,120,0.0,64.0
6188,71.0,120,120,0.0,64.0
6189,50.0,120,240,0.0,64.0
6190,74.0,0,120,0.0,64.0
6191,52.0,0,240,0.0,64.0
6192,72.0,120,120,0.0,64.0
6193,76.0,120,120,0.0,64.0
6194,53.0,0,240,0.0,64.0
6195,74.0,120,120,0.0,64.0
6196,72.0,120,120,0.0,64.0
6197,55.0,0,240,0.0,64.0
6198,71.0,120,120,0.0,64.0
6199,67.0,120,120,0.0,64.0
6200,71.0,120,120,0.0,64.0
6201,57.0,0,240,0.0,64.0
6202,74.0,0,120,0.0,64.0
6203,79.0,240,1920,0.0,64.0
6204,59.0,120,240,0.0,64.0
6205,67.0,0,120,0.0,64.0
6206,62.0,120,120,0.0,64.0
6207,55.0,0,240,0.0,64.0
6208,65.0,120,120,0.0,64.0
6209,60.0,120,240,0.0,64.0
6210,64.0,120,120,0.0,64.0
6211,67.0,0,120,0.0,64.0
6212,55.0,120,240,0.0,64.0
6213,59.0,120,120,0.0,64.0
6214,62.0,0,120,0.0,64.0
6215,60.0,120,120,0.0,64.0
6216,52.0,120,240,0.0,64.0
6217,64.0,0,120,0.0,64.0
6218,62.0,120,120,0.0,64.0
6219,48.0,120,240,0.0,64.0
6220,60.0,0,120,0.0,64.0
6221,59.0,120,120,0.0,64.0
6222,55.0,120,120,0.0,64.0
6223,59.0,120,120,0.0,64.0
6224,62.0,0,120,0.0,64.0
6225,67.0,120,600,0.0,64.0
6226,76.0,120,120,0.0,64.0
6227,52.0,120,240,0.0,64.0
6228,71.0,120,120,0.0,64.0
6229,74.0,0,120,0.0,64.0
6230,57.0,120,240,0.0,64.0
6231,72.0,0,240,0.0,64.0
6232,65.0,0,120,0.0,64.0
6233,81.0,0,240,0.0,64.0
6234,48.0,240,240,0.0,64.0
6235,64.0,120,120,0.0,64.0
6236,67.0,0,120,0.0,64.0
6237,50.0,0,240,0.0,64.0
6238,65.0,120,600,0.0,64.0
6239,74.0,120,120,0.0,64.0
6240,69.0,120,120,0.0,64.0
6241,53.0,120,240,0.0,64.0
6242,72.0,0,120,0.0,64.0
6243,71.0,120,240,0.0,64.0
6244,55.0,0,120,0.0,64.0
6245,59.0,120,120,0.0,64.0
6246,47.0,240,240,0.0,64.0
6247,79.0,0,240,0.0,64.0
6248,62.0,0,120,0.0,64.0
6249,64.0,120,600,0.0,64.0
6250,48.0,0,240,0.0,64.0
6251,72.0,120,120,0.0,64.0
6252,52.0,0,240,0.0,64.0
6253,67.0,120,120,0.0,64.0
6254,70.0,120,120,0.0,64.0
6255,53.0,0,1200,0.0,64.0
6256,69.0,0,240,0.0,64.0
6257,62.0,120,120,0.0,64.0
6258,81.0,120,120,0.0,64.0
6259,60.0,0,120,0.0,64.0
6260,64.0,120,120,0.0,64.0
6261,79.0,0,120,0.0,64.0
6262,77.0,120,120,0.0,64.0
6263,62.0,120,600,0.0,64.0
6264,76.0,120,120,0.0,64.0
6265,74.0,120,120,0.0,64.0
6266,72.0,120,120,0.0,64.0
6267,71.0,0,240,0.0,64.0
6268,72.0,120,120,0.0,64.0
6269,67.0,0,240,0.0,64.0
6270,71.0,120,120,0.0,64.0
6271,55.0,0,240,0.0,64.0
6272,69.0,120,120,0.0,64.0
6273,72.0,0,960,0.0,64.0
6274,52.0,0,240,0.0,64.0
6275,67.0,120,120,0.0,64.0
6276,65.0,120,120,0.0,64.0
6277,64.0,120,120,0.0,64.0
6278,57.0,0,240,0.0,64.0
6279,65.0,120,120,0.0,64.0
6280,64.0,120,120,0.0,64.0
6281,53.0,120,240,0.0,64.0
6282,62.0,0,120,0.0,64.0
6283,69.0,120,120,0.0,64.0
6284,50.0,120,240,0.0,64.0
6285,67.0,0,120,0.0,64.0
6286,65.0,120,120,0.0,64.0
6287,71.0,0,480,0.0,64.0
6288,55.0,0,240,0.0,64.0
6289,64.0,120,120,0.0,64.0
6290,62.0,120,120,0.0,64.0
6291,43.0,960,240,0.0,64.0
6292,65.0,0,120,0.0,64.0
6293,72.0,0,960,0.0,64.0
6294,48.0,0,960,0.0,64.0
6295,64.0,0,960,0.0,64.0
6296,36.0,0,960,0.0,64.0
