,note,step,duration,channel,velocity
0,78.0,21,1073,6.0,64.0
1,69.0,82,479,8.0,64.0
2,74.0,7,1091,7.0,64.0
3,50.0,114,76,10.0,64.0
4,62.0,122,73,10.0,64.0
5,61.0,123,74,10.0,64.0
6,49.0,43,74,10.0,64.0
7,47.0,111,82,10.0,64.0
8,71.0,103,465,8.0,64.0
9,59.0,130,75,10.0,64.0
10,57.0,113,79,10.0,64.0
11,45.0,31,73,10.0,64.0
12,43.0,22,92,10.0,64.0
13,59.0,49,126,8.0,64.0
14,55.0,33,84,10.0,64.0
15,83.0,14,65,6.0,64.0
16,79.0,48,52,6.0,64.0
17,78.0,27,41,6.0,64.0
18,71.0,12,124,7.0,64.0
19,56.0,28,78,10.0,64.0
20,64.0,49,128,8.0,64.0
21,76.0,14,41,6.0,64.0
22,74.0,15,43,6.0,64.0
23,73.0,8,68,6.0,64.0
24,44.0,39,72,10.0,64.0
25,74.0,88,53,6.0,64.0
26,69.0,11,560,7.0,64.0
27,45.0,114,83,10.0,64.0
28,64.0,4,564,8.0,64.0
29,73.0,83,220,6.0,64.0
30,57.0,28,74,10.0,64.0
31,71.0,9,78,6.0,64.0
32,55.0,112,74,10.0,64.0
33,69.0,7,124,6.0,64.0
34,43.0,121,72,10.0,64.0
35,81.0,35,534,6.0,64.0
36,42.0,88,86,10.0,64.0
37,72.0,16,64,7.0,64.0
38,63.0,54,246,8.0,64.0
39,54.0,43,75,10.0,64.0
40,71.0,72,66,7.0,64.0
41,52.0,36,72,10.0,64.0
42,72.0,19,102,7.0,64.0
43,64.0,45,127,8.0,64.0
44,81.0,19,60,7.0,64.0
45,40.0,44,76,10.0,64.0
46,72.0,0,62,7.0,64.0
47,66.0,47,132,8.0,64.0
48,39.0,21,78,10.0,64.0
49,71.0,12,115,7.0,64.0
50,78.0,19,52,6.0,64.0
51,72.0,4,66,6.0,64.0
52,51.0,29,68,10.0,64.0
53,71.0,85,38,6.0,64.0
54,76.0,22,64,6.0,64.0
55,47.0,16,83,10.0,64.0
56,75.0,91,41,6.0,64.0
57,81.0,2,73,6.0,64.0
58,59.0,35,68,10.0,64.0
59,79.0,99,46,6.0,64.0
60,71.0,84,102,7.0,64.0
61,79.0,40,511,6.0,64.0
62,64.0,5,77,8.0,64.0
63,40.0,10,81,10.0,64.0
64,52.0,48,66,10.0,64.0
65,76.0,3,61,7.0,64.0
66,59.0,8,214,8.0,64.0
67,74.0,66,60,7.0,64.0
68,50.0,40,67,10.0,64.0
69,76.0,3,63,7.0,64.0
70,78.0,63,58,7.0,64.0
71,64.0,27,103,8.0,64.0
72,79.0,22,63,7.0,64.0
73,38.0,15,73,10.0,64.0
74,76.0,38,64,7.0,64.0
75,37.0,22,80,10.0,64.0
76,64.0,55,126,8.0,64.0
77,69.0,3,114,7.0,64.0
78,76.0,23,48,6.0,64.0
79,49.0,35,74,10.0,64.0
80,71.0,5,67,6.0,64.0
81,69.0,79,43,6.0,64.0
82,74.0,17,62,6.0,64.0
83,45.0,25,76,10.0,64.0
84,73.0,84,47,6.0,64.0
85,79.0,4,70,6.0,64.0
86,57.0,40,70,10.0,64.0
87,78.0,90,52,6.0,64.0
88,78.0,2,339,6.0,64.0
89,69.0,1,580,7.0,64.0
90,62.0,82,337,8.0,64.0
91,50.0,111,73,10.0,64.0
92,62.0,116,72,10.0,64.0
93,61.0,35,71,10.0,64.0
94,80.0,40,73,6.0,64.0
95,64.0,8,112,8.0,64.0
96,49.0,3,66,10.0,64.0
97,81.0,91,60,6.0,64.0
98,66.0,53,110,8.0,64.0
99,74.0,1,108,6.0,64.0
100,47.0,18,86,10.0,64.0
101,68.0,9,57,7.0,64.0
102,59.0,22,78,10.0,64.0
103,74.0,18,37,6.0,64.0
104,62.0,11,97,8.0,64.0
105,76.0,12,34,6.0,64.0
106,69.0,77,53,7.0,64.0
107,78.0,6,123,6.0,64.0
108,56.0,4,78,10.0,64.0
109,71.0,14,81,7.0,64.0
110,59.0,6,94,8.0,64.0
111,76.0,86,38,6.0,64.0
112,68.0,20,86,7.0,64.0
113,52.0,12,74,10.0,64.0
114,64.0,55,231,8.0,64.0
115,76.0,1,64,6.0,64.0
116,74.0,87,39,6.0,64.0
117,69.0,2,70,7.0,64.0
118,73.0,10,68,6.0,64.0
119,57.0,33,77,10.0,64.0
120,71.0,1,52,6.0,64.0
121,66.0,9,101,8.0,64.0
122,50.0,16,85,10.0,64.0
123,71.0,40,44,6.0,64.0
124,69.0,8,228,7.0,64.0
125,73.0,0,47,6.0,64.0
126,74.0,95,36,6.0,64.0
127,52.0,23,88,10.0,64.0
128,74.0,65,118,6.0,64.0
129,59.0,2,104,8.0,64.0
130,73.0,17,66,6.0,64.0
131,40.0,18,83,10.0,64.0
132,68.0,17,96,7.0,64.0
133,64.0,1,91,8.0,64.0
134,71.0,73,61,6.0,64.0
135,45.0,54,72,10.0,64.0
136,69.0,4,424,6.0,64.0
137,64.0,6,432,7.0,64.0
138,61.0,41,434,8.0,64.0
139,47.0,55,65,10.0,64.0
140,49.0,62,62,10.0,64.0
141,50.0,57,69,10.0,64.0
142,52.0,63,66,10.0,64.0
143,55.0,67,71,10.0,64.0
144,54.0,4,74,10.0,64.0
145,52.0,91,59,10.0,64.0
146,78.0,17,1069,6.0,64.0
147,50.0,113,93,10.0,64.0
148,69.0,87,465,8.0,64.0
149,74.0,32,1073,7.0,64.0
150,62.0,112,83,10.0,64.0
151,61.0,110,79,10.0,64.0
152,49.0,43,74,10.0,64.0
153,47.0,110,78,10.0,64.0
154,71.0,93,465,8.0,64.0
155,59.0,120,72,10.0,64.0
156,57.0,124,72,10.0,64.0
157,45.0,35,77,10.0,64.0
158,59.0,29,152,8.0,64.0
159,43.0,24,76,10.0,64.0
160,83.0,14,66,6.0,64.0
161,55.0,35,78,10.0,64.0
162,79.0,48,56,6.0,64.0
163,71.0,7,139,7.0,64.0
164,56.0,37,81,10.0,64.0
165,78.0,29,39,6.0,64.0
166,64.0,42,141,8.0,64.0
167,76.0,10,43,6.0,64.0
168,74.0,21,53,6.0,64.0
169,73.0,10,69,6.0,64.0
170,44.0,28,75,10.0,64.0
171,74.0,57,49,6.0,64.0
172,69.0,11,574,7.0,64.0
173,74.0,23,47,6.0,64.0
174,64.0,82,581,8.0,64.0
175,45.0,11,83,10.0,64.0
176,73.0,19,27,6.0,64.0
177,74.0,0,24,6.0,64.0
178,73.0,14,14,6.0,64.0
179,74.0,8,15,6.0,64.0
180,73.0,19,10,6.0,64.0
181,74.0,53,18,6.0,64.0
182,57.0,42,69,10.0,64.0
183,73.0,79,102,6.0,64.0
184,55.0,115,88,10.0,64.0
185,71.0,15,72,6.0,64.0
186,69.0,104,150,6.0,64.0
187,43.0,18,72,10.0,64.0
188,81.0,30,531,6.0,64.0
189,42.0,6,81,10.0,64.0
190,54.0,45,73,10.0,64.0
191,72.0,8,65,7.0,64.0
192,63.0,56,233,8.0,64.0
193,71.0,76,61,7.0,64.0
194,52.0,35,73,10.0,64.0
195,72.0,14,105,7.0,64.0
196,40.0,37,80,10.0,64.0
197,81.0,20,58,7.0,64.0
198,64.0,52,115,8.0,64.0
199,72.0,2,56,7.0,64.0
200,66.0,65,124,8.0,64.0
201,71.0,3,115,7.0,64.0
202,39.0,25,76,10.0,64.0
203,78.0,14,46,6.0,64.0
204,72.0,9,64,6.0,64.0
205,51.0,18,70,10.0,64.0
206,71.0,93,33,6.0,64.0
207,47.0,23,76,10.0,64.0
208,76.0,11,63,6.0,64.0
209,75.0,90,35,6.0,64.0
210,81.0,3,66,6.0,64.0
211,59.0,31,69,10.0,64.0
212,79.0,53,43,6.0,64.0
213,71.0,5,98,7.0,64.0
214,79.0,31,28,6.0,64.0
215,40.0,4,87,10.0,64.0
216,64.0,74,95,8.0,64.0
217,78.0,30,37,6.0,64.0
218,79.0,32,462,6.0,64.0
219,76.0,20,58,7.0,64.0
220,52.0,42,76,10.0,64.0
221,59.0,17,211,8.0,64.0
222,74.0,65,60,7.0,64.0
223,76.0,13,64,7.0,64.0
224,50.0,27,76,10.0,64.0
225,78.0,67,63,7.0,64.0
226,64.0,25,106,8.0,64.0
227,38.0,29,73,10.0,64.0
228,79.0,5,68,7.0,64.0
229,76.0,31,64,7.0,64.0
230,37.0,24,79,10.0,64.0
231,64.0,4,120,8.0,64.0
232,69.0,55,118,7.0,64.0
233,76.0,29,46,6.0,64.0
234,71.0,4,70,6.0,64.0
235,49.0,21,72,10.0,64.0
236,69.0,87,35,6.0,64.0
237,74.0,19,61,6.0,64.0
238,45.0,27,78,10.0,64.0
239,73.0,84,47,6.0,64.0
240,79.0,3,70,6.0,64.0
241,57.0,34,65,10.0,64.0
242,78.0,92,45,6.0,64.0
243,50.0,108,71,10.0,64.0
244,78.0,26,328,6.0,64.0
245,69.0,0,577,7.0,64.0
246,62.0,41,347,8.0,64.0
247,62.0,124,65,10.0,64.0
248,61.0,26,69,10.0,64.0
249,78.0,27,45,6.0,64.0
250,64.0,71,112,8.0,64.0
251,49.0,3,65,10.0,64.0
252,80.0,27,38,6.0,64.0
253,81.0,17,32,6.0,64.0
254,81.0,11,75,6.0,64.0
255,66.0,8,101,8.0,64.0
256,47.0,26,73,10.0,64.0
257,74.0,61,49,6.0,64.0
258,68.0,12,62,7.0,64.0
259,59.0,17,70,10.0,64.0
260,62.0,20,87,8.0,64.0
261,74.0,7,49,6.0,64.0
262,76.0,0,41,6.0,64.0
263,69.0,74,59,7.0,64.0
264,78.0,7,29,6.0,64.0
265,78.0,10,71,6.0,64.0
266,56.0,10,79,10.0,64.0
267,71.0,12,89,7.0,64.0
268,59.0,1,86,8.0,64.0
269,76.0,80,40,6.0,64.0
270,68.0,1,82,7.0,64.0
271,76.0,17,63,6.0,64.0
272,52.0,22,78,10.0,64.0
273,64.0,61,235,8.0,64.0
274,74.0,87,44,6.0,64.0
275,69.0,2,70,7.0,64.0
276,73.0,23,69,6.0,64.0
277,57.0,26,89,10.0,64.0
278,71.0,3,57,6.0,64.0
279,50.0,12,88,10.0,64.0
280,66.0,91,114,8.0,64.0
281,71.0,24,56,6.0,64.0
282,69.0,18,221,7.0,64.0
283,73.0,19,47,6.0,64.0
284,74.0,1,32,6.0,64.0
285,52.0,15,86,10.0,64.0
286,74.0,3,81,6.0,64.0
287,59.0,21,116,8.0,64.0
288,74.0,16,37,6.0,64.0
289,68.0,4,105,7.0,64.0
290,40.0,9,82,10.0,64.0
291,64.0,0,106,8.0,64.0
292,73.0,17,20,6.0,64.0
293,74.0,28,23,6.0,64.0
294,73.0,11,46,6.0,64.0
295,71.0,134,25,6.0,64.0
296,71.0,278,122,6.0,64.0
297,45.0,2,409,10.0,64.0
298,64.0,8,394,7.0,64.0
299,61.0,152,404,8.0,64.0
300,69.0,3,290,6.0,64.0
301,45.0,99,90,10.0,64.0
302,64.0,11,590,8.0,64.0
303,73.0,25,273,6.0,64.0
304,69.0,8,537,7.0,64.0
305,57.0,94,65,10.0,64.0
306,55.0,22,69,10.0,64.0
307,74.0,26,40,6.0,64.0
308,73.0,26,35,6.0,64.0
309,71.0,29,31,6.0,64.0
310,43.0,49,73,10.0,64.0
311,73.0,14,31,6.0,64.0
312,69.0,74,57,6.0,64.0
313,42.0,39,83,10.0,64.0
314,81.0,15,331,6.0,64.0
315,71.0,53,65,7.0,64.0
316,54.0,37,75,10.0,64.0
317,63.0,16,56,8.0,64.0
318,72.0,20,164,7.0,64.0
319,64.0,58,53,8.0,64.0
320,52.0,20,71,10.0,64.0
321,66.0,17,293,8.0,64.0
322,71.0,65,54,7.0,64.0
323,69.0,28,59,7.0,64.0
324,72.0,10,118,6.0,64.0
325,40.0,36,79,10.0,64.0
326,67.0,55,73,7.0,64.0
327,71.0,25,93,6.0,64.0
328,39.0,10,79,10.0,64.0
329,66.0,50,253,7.0,64.0
330,67.0,65,54,8.0,64.0
331,69.0,34,60,8.0,64.0
332,83.0,17,181,6.0,64.0
333,51.0,28,84,10.0,64.0
334,66.0,14,59,8.0,64.0
335,54.0,6,73,10.0,64.0
336,63.0,33,75,8.0,64.0
337,81.0,64,62,6.0,64.0
338,47.0,46,73,10.0,64.0
339,75.0,1,70,7.0,64.0
340,79.0,2,60,6.0,64.0
341,71.0,5,62,8.0,64.0
342,78.0,83,56,6.0,64.0
343,52.0,97,79,10.0,64.0
344,76.0,16,1023,7.0,64.0
345,79.0,29,261,6.0,64.0
346,71.0,12,168,8.0,64.0
347,64.0,77,70,10.0,64.0
348,62.0,8,75,10.0,64.0
349,59.0,6,169,8.0,64.0
350,78.0,19,34,6.0,64.0
351,76.0,26,30,6.0,64.0
352,74.0,61,27,6.0,64.0
353,50.0,33,81,10.0,64.0
354,73.0,16,61,6.0,64.0
355,71.0,77,54,6.0,64.0
356,61.0,9,79,8.0,64.0
357,70.0,9,69,6.0,64.0
358,49.0,25,87,10.0,64.0
359,71.0,15,53,6.0,64.0
360,62.0,64,65,8.0,64.0
361,64.0,16,65,8.0,64.0
362,73.0,19,167,6.0,64.0
363,61.0,36,80,10.0,64.0
364,66.0,51,58,8.0,64.0
365,59.0,21,79,10.0,64.0
366,67.0,13,66,8.0,64.0
367,74.0,20,50,6.0,64.0
368,66.0,60,61,8.0,64.0
369,47.0,26,89,10.0,64.0
370,76.0,12,179,6.0,64.0
371,67.0,23,60,8.0,64.0
372,64.0,68,55,8.0,64.0
373,66.0,2,109,8.0,64.0
374,46.0,25,81,10.0,64.0
375,74.0,67,61,7.0,64.0
376,78.0,5,55,6.0,64.0
377,73.0,0,68,7.0,64.0
378,47.0,28,92,10.0,64.0
379,64.0,26,64,8.0,64.0
380,79.0,12,235,6.0,64.0
381,62.0,4,61,8.0,64.0
382,71.0,64,63,7.0,64.0
383,70.0,17,67,7.0,64.0
384,61.0,25,89,8.0,64.0
385,49.0,9,80,10.0,64.0
386,71.0,64,68,7.0,64.0
387,46.0,31,75,10.0,64.0
388,78.0,23,103,6.0,64.0
389,66.0,1,70,8.0,64.0
390,73.0,62,119,7.0,64.0
391,76.0,6,69,6.0,64.0
392,47.0,17,86,10.0,64.0
393,66.0,58,113,8.0,64.0
394,71.0,13,70,7.0,64.0
395,74.0,13,43,6.0,64.0
396,64.0,8,58,8.0,64.0
397,73.0,11,65,6.0,64.0
398,71.0,18,78,7.0,64.0
399,55.0,6,69,10.0,64.0
400,62.0,10,45,8.0,64.0
401,71.0,81,50,6.0,64.0
402,52.0,13,89,10.0,64.0
403,73.0,7,66,6.0,64.0
404,71.0,12,73,7.0,64.0
405,67.0,8,101,8.0,64.0
406,74.0,3,27,6.0,64.0
407,76.0,75,26,6.0,64.0
408,66.0,2,67,8.0,64.0
409,54.0,11,67,10.0,64.0
410,70.0,7,76,7.0,64.0
411,74.0,18,83,6.0,64.0
412,64.0,88,51,8.0,64.0
413,73.0,9,25,6.0,64.0
414,73.0,58,130,6.0,64.0
415,47.0,47,76,10.0,64.0
416,66.0,5,425,7.0,64.0
417,62.0,9,408,8.0,64.0
418,59.0,125,69,10.0,64.0
419,71.0,133,320,6.0,64.0
420,57.0,111,71,10.0,64.0
421,45.0,4,69,10.0,64.0
422,59.0,98,101,8.0,64.0
423,64.0,25,198,7.0,64.0
424,44.0,8,89,10.0,64.0
425,74.0,16,280,6.0,64.0
426,56.0,1,74,10.0,64.0
427,71.0,63,96,8.0,64.0
428,66.0,16,178,7.0,64.0
429,54.0,38,73,10.0,64.0
430,69.0,11,57,8.0,64.0
431,78.0,56,69,6.0,64.0
432,68.0,4,51,8.0,64.0
433,76.0,5,60,6.0,64.0
434,42.0,19,80,10.0,64.0
435,69.0,22,95,8.0,64.0
436,74.0,79,62,6.0,64.0
437,59.0,54,122,7.0,64.0
438,40.0,40,80,10.0,64.0
439,83.0,13,352,6.0,64.0
440,68.0,14,168,8.0,64.0
441,64.0,14,66,7.0,64.0
442,52.0,36,75,10.0,64.0
443,66.0,4,59,8.0,64.0
444,66.0,64,58,7.0,64.0
445,68.0,16,67,7.0,64.0
446,64.0,11,335,8.0,64.0
447,50.0,35,75,10.0,64.0
448,69.0,58,68,7.0,64.0
449,81.0,28,63,6.0,64.0
450,71.0,15,222,7.0,64.0
451,38.0,27,83,10.0,64.0
452,80.0,39,56,6.0,64.0
453,37.0,3,88,10.0,64.0
454,78.0,22,32,6.0,64.0
455,76.0,33,30,6.0,64.0
456,81.0,98,56,6.0,64.0
457,49.0,11,98,10.0,64.0
458,64.0,8,108,8.0,64.0
459,69.0,100,111,6.0,64.0
460,69.0,58,227,7.0,64.0
461,71.0,25,178,6.0,64.0
462,66.0,18,95,8.0,64.0
463,50.0,2,86,10.0,64.0
464,52.0,10,83,10.0,64.0
465,68.0,50,111,7.0,64.0
466,64.0,9,94,8.0,64.0
467,73.0,9,44,6.0,64.0
468,74.0,3,31,6.0,64.0
469,45.0,9,80,10.0,64.0
470,74.0,23,44,6.0,64.0
471,69.0,50,508,7.0,64.0
472,64.0,3,162,8.0,64.0
473,73.0,7,31,6.0,64.0
474,74.0,11,20,6.0,64.0
475,73.0,29,14,6.0,64.0
476,74.0,47,32,6.0,64.0
477,73.0,19,67,6.0,64.0
478,57.0,39,69,10.0,64.0
479,71.0,63,71,6.0,64.0
480,62.0,7,57,8.0,64.0
481,69.0,21,216,6.0,64.0
482,61.0,12,65,8.0,64.0
483,55.0,36,76,10.0,64.0
484,62.0,62,52,8.0,64.0
485,64.0,23,58,8.0,64.0
486,43.0,16,67,10.0,64.0
487,61.0,37,57,8.0,64.0
488,74.0,4,364,6.0,64.0
489,57.0,6,76,8.0,64.0
490,42.0,99,81,10.0,64.0
491,71.0,9,69,7.0,64.0
492,54.0,51,72,10.0,64.0
493,62.0,20,212,8.0,64.0
494,72.0,65,66,7.0,64.0
495,71.0,4,66,7.0,64.0
496,55.0,28,69,10.0,64.0
497,73.0,63,62,7.0,64.0
498,59.0,103,203,8.0,64.0
499,78.0,11,63,6.0,64.0
500,43.0,29,74,10.0,64.0
501,74.0,9,191,7.0,64.0
502,76.0,86,49,6.0,64.0
503,44.0,4,70,10.0,64.0
504,76.0,4,347,6.0,64.0
505,73.0,4,67,7.0,64.0
506,56.0,49,70,10.0,64.0
507,64.0,3,229,8.0,64.0
508,71.0,68,61,7.0,64.0
509,57.0,38,71,10.0,64.0
510,73.0,6,63,7.0,64.0
511,75.0,70,59,7.0,64.0
512,79.0,8,67,6.0,64.0
513,61.0,6,206,8.0,64.0
514,45.0,38,71,10.0,64.0
515,76.0,93,209,7.0,64.0
516,78.0,90,52,6.0,64.0
517,78.0,8,338,6.0,64.0
518,46.0,5,73,10.0,64.0
519,58.0,52,66,10.0,64.0
520,75.0,1,62,7.0,64.0
521,66.0,11,222,8.0,64.0
522,73.0,59,58,7.0,64.0
523,59.0,39,68,10.0,64.0
524,75.0,5,58,7.0,64.0
525,76.0,65,66,7.0,64.0
526,47.0,37,74,10.0,64.0
527,81.0,3,70,6.0,64.0
528,63.0,7,108,8.0,64.0
529,78.0,26,177,7.0,64.0
530,79.0,66,55,6.0,64.0
531,52.0,46,87,10.0,64.0
532,59.0,26,286,8.0,64.0
533,79.0,14,449,6.0,64.0
534,75.0,53,68,7.0,64.0
535,64.0,3,65,10.0,64.0
536,76.0,56,60,7.0,64.0
537,71.0,41,61,7.0,64.0
538,62.0,40,77,10.0,64.0
539,64.0,54,257,7.0,64.0
540,71.0,67,56,8.0,64.0
541,67.0,14,63,8.0,64.0
542,50.0,26,74,10.0,64.0
543,64.0,33,58,8.0,64.0
544,49.0,17,83,10.0,64.0
545,69.0,26,98,8.0,64.0
546,69.0,15,290,6.0,64.0
547,61.0,53,66,7.0,64.0
548,61.0,15,78,10.0,64.0
549,67.0,21,93,8.0,64.0
550,64.0,20,55,7.0,64.0
551,69.0,59,50,7.0,64.0
552,57.0,19,77,10.0,64.0
553,66.0,10,89,8.0,64.0
554,73.0,10,90,7.0,64.0
555,73.0,66,61,6.0,64.0
556,76.0,13,65,6.0,64.0
557,61.0,10,68,10.0,64.0
558,64.0,33,78,8.0,64.0
559,69.0,37,206,7.0,64.0
560,79.0,79,57,6.0,64.0
561,62.0,2,75,10.0,64.0
562,62.0,3,190,8.0,64.0
563,79.0,17,70,6.0,64.0
564,76.0,51,62,6.0,64.0
565,73.0,12,59,7.0,64.0
566,50.0,43,69,10.0,64.0
567,78.0,4,294,6.0,64.0
568,74.0,84,56,7.0,64.0
569,69.0,10,351,8.0,64.0
570,48.0,105,73,10.0,64.0
571,62.0,77,352,7.0,64.0
572,60.0,29,65,10.0,64.0
573,79.0,30,33,6.0,64.0
574,81.0,76,39,6.0,64.0
575,59.0,27,85,10.0,64.0
576,74.0,14,287,6.0,64.0
577,67.0,13,94,8.0,64.0
578,64.0,71,105,7.0,64.0
579,47.0,20,67,10.0,64.0
580,66.0,14,198,7.0,64.0
581,69.0,32,206,8.0,64.0
582,45.0,44,68,10.0,64.0
583,78.0,65,62,6.0,64.0
584,81.0,6,65,6.0,64.0
585,57.0,9,70,10.0,64.0
586,84.0,77,61,6.0,64.0
587,55.0,114,83,10.0,64.0
588,62.0,23,443,8.0,64.0
589,67.0,2,588,7.0,64.0
590,83.0,93,331,6.0,64.0
591,43.0,124,67,10.0,64.0
592,42.0,20,79,10.0,64.0
593,74.0,75,113,6.0,64.0
594,54.0,14,71,10.0,64.0
595,73.0,7,64,6.0,64.0
596,52.0,30,82,10.0,64.0
597,64.0,11,67,8.0,64.0
598,76.0,11,56,6.0,64.0
599,59.0,51,64,8.0,64.0
600,64.0,11,55,8.0,64.0
601,71.0,22,89,7.0,64.0
602,40.0,26,62,10.0,64.0
603,79.0,33,209,6.0,64.0
604,67.0,76,57,8.0,64.0
605,71.0,9,70,8.0,64.0
606,38.0,16,75,10.0,64.0
607,76.0,15,293,7.0,64.0
608,69.0,56,67,8.0,64.0
609,71.0,7,110,6.0,64.0
610,50.0,9,92,10.0,64.0
611,67.0,29,61,8.0,64.0
612,66.0,70,47,8.0,64.0
613,49.0,20,81,10.0,64.0
614,69.0,2,108,6.0,64.0
615,64.0,9,93,8.0,64.0
616,74.0,76,55,7.0,64.0
617,73.0,5,65,7.0,64.0
618,76.0,12,70,6.0,64.0
619,69.0,29,227,8.0,64.0
620,45.0,19,82,10.0,64.0
621,71.0,68,65,7.0,64.0
622,78.0,21,36,6.0,64.0
623,79.0,15,99,6.0,64.0
624,50.0,15,89,10.0,64.0
625,69.0,7,80,7.0,64.0
626,78.0,61,71,6.0,64.0
627,55.0,24,83,10.0,64.0
628,71.0,5,74,7.0,64.0
629,67.0,2,69,8.0,64.0
630,76.0,63,48,6.0,64.0
631,57.0,84,97,10.0,64.0
632,69.0,19,218,7.0,64.0
633,74.0,36,43,6.0,64.0
634,66.0,15,182,8.0,64.0
635,73.0,11,44,6.0,64.0
636,71.0,12,107,6.0,64.0
637,55.0,13,85,10.0,64.0
638,73.0,24,56,6.0,64.0
639,74.0,24,100,6.0,64.0
640,57.0,3,95,10.0,64.0
641,69.0,14,19,7.0,64.0
642,64.0,4,88,8.0,64.0
643,67.0,13,17,7.0,64.0
644,69.0,25,15,7.0,64.0
645,67.0,19,27,7.0,64.0
646,66.0,14,55,7.0,64.0
647,74.0,12,29,6.0,64.0
648,67.0,23,98,7.0,64.0
649,57.0,7,76,8.0,64.0
650,45.0,9,74,10.0,64.0
651,73.0,21,15,6.0,64.0
652,74.0,29,23,6.0,64.0
653,73.0,6,52,6.0,64.0
654,74.0,406,36,6.0,64.0
655,66.0,10,422,7.0,64.0
656,38.0,3,399,10.0,64.0
657,57.0,135,424,8.0,64.0
658,74.0,13,400,6.0,64.0
659,45.0,99,90,10.0,64.0
660,73.0,28,280,6.0,64.0
661,64.0,11,590,8.0,64.0
662,69.0,8,537,7.0,64.0
663,57.0,91,65,10.0,64.0
664,55.0,24,69,10.0,64.0
665,74.0,31,34,6.0,64.0
666,73.0,28,38,6.0,64.0
667,43.0,38,73,10.0,64.0
668,71.0,27,34,6.0,64.0
669,73.0,7,30,6.0,64.0
670,69.0,81,42,6.0,64.0
671,42.0,39,83,10.0,64.0
672,69.0,4,65,6.0,64.0
673,71.0,53,65,7.0,64.0
674,81.0,2,277,6.0,64.0
675,54.0,37,75,10.0,64.0
676,63.0,16,56,8.0,64.0
677,72.0,20,164,7.0,64.0
678,64.0,58,53,8.0,64.0
679,52.0,33,71,10.0,64.0
680,66.0,17,293,8.0,64.0
681,71.0,65,54,7.0,64.0
682,69.0,28,59,7.0,64.0
683,40.0,23,79,10.0,64.0
684,72.0,23,102,6.0,64.0
685,67.0,55,73,7.0,64.0
686,71.0,5,110,6.0,64.0
687,39.0,30,79,10.0,64.0
688,66.0,50,253,7.0,64.0
689,67.0,65,54,8.0,64.0
690,69.0,34,60,8.0,64.0
691,83.0,17,181,6.0,64.0
692,51.0,28,84,10.0,64.0
693,66.0,14,59,8.0,64.0
694,54.0,6,73,10.0,64.0
695,63.0,36,75,8.0,64.0
696,81.0,58,60,6.0,64.0
697,47.0,38,73,10.0,64.0
698,75.0,1,70,7.0,64.0
699,71.0,5,62,8.0,64.0
700,79.0,5,55,6.0,64.0
701,78.0,91,49,6.0,64.0
702,52.0,46,79,10.0,64.0
703,76.0,16,1023,7.0,64.0
704,78.0,51,119,6.0,64.0
705,71.0,12,168,8.0,64.0
706,64.0,86,70,10.0,64.0
707,79.0,31,152,6.0,64.0
708,62.0,19,75,10.0,64.0
709,59.0,13,169,8.0,64.0
710,78.0,8,30,6.0,64.0
711,76.0,20,35,6.0,64.0
712,74.0,56,24,6.0,64.0
713,50.0,43,81,10.0,64.0
714,73.0,9,61,6.0,64.0
715,71.0,70,54,6.0,64.0
716,61.0,9,79,8.0,64.0
717,49.0,31,87,10.0,64.0
718,70.0,6,61,6.0,64.0
719,62.0,64,65,8.0,64.0
720,71.0,9,51,6.0,64.0
721,64.0,16,65,8.0,64.0
722,61.0,36,80,10.0,64.0
723,73.0,14,170,6.0,64.0
724,66.0,56,58,8.0,64.0
725,67.0,13,66,8.0,64.0
726,59.0,28,79,10.0,64.0
727,74.0,13,51,6.0,64.0
728,66.0,60,61,8.0,64.0
729,47.0,26,89,10.0,64.0
730,76.0,18,173,6.0,64.0
731,67.0,23,60,8.0,64.0
732,64.0,62,55,8.0,64.0
733,66.0,2,109,8.0,64.0
734,46.0,25,81,10.0,64.0
735,74.0,67,61,7.0,64.0
736,78.0,5,52,6.0,64.0
737,73.0,0,68,7.0,64.0
738,47.0,28,92,10.0,64.0
739,64.0,26,64,8.0,64.0
740,79.0,33,215,6.0,64.0
741,62.0,4,61,8.0,64.0
742,71.0,64,63,7.0,64.0
743,70.0,17,67,7.0,64.0
744,61.0,4,89,8.0,64.0
745,49.0,9,80,10.0,64.0
746,71.0,64,68,7.0,64.0
747,46.0,22,75,10.0,64.0
748,78.0,32,95,6.0,64.0
749,66.0,1,70,8.0,64.0
750,73.0,62,119,7.0,64.0
751,76.0,6,68,6.0,64.0
752,47.0,11,86,10.0,64.0
753,71.0,13,70,7.0,64.0
754,66.0,58,113,8.0,64.0
755,74.0,19,38,6.0,64.0
756,64.0,11,58,8.0,64.0
757,73.0,8,65,6.0,64.0
758,71.0,18,78,7.0,64.0
759,55.0,6,69,10.0,64.0
760,62.0,3,45,8.0,64.0
761,71.0,84,42,6.0,64.0
762,73.0,11,64,6.0,64.0
763,52.0,7,89,10.0,64.0
764,71.0,15,73,7.0,64.0
765,67.0,7,101,8.0,64.0
766,74.0,6,38,6.0,64.0
767,76.0,46,23,6.0,64.0
768,66.0,1,67,8.0,64.0
769,76.0,14,35,6.0,64.0
770,54.0,11,67,10.0,64.0
771,70.0,24,76,7.0,64.0
772,74.0,16,17,6.0,64.0
773,76.0,1,19,6.0,64.0
774,64.0,15,51,8.0,64.0
775,74.0,10,41,6.0,64.0
776,73.0,73,27,6.0,64.0
777,47.0,64,76,10.0,64.0
778,66.0,5,425,7.0,64.0
779,62.0,9,408,8.0,64.0
780,73.0,41,127,6.0,64.0
781,59.0,125,69,10.0,64.0
782,71.0,132,311,6.0,64.0
783,57.0,111,71,10.0,64.0
784,45.0,5,69,10.0,64.0
785,74.0,13,292,6.0,64.0
786,59.0,98,101,8.0,64.0
787,64.0,25,198,7.0,64.0
788,44.0,8,89,10.0,64.0
789,56.0,1,74,10.0,64.0
790,71.0,66,96,8.0,64.0
791,66.0,2,178,7.0,64.0
792,54.0,38,73,10.0,64.0
793,69.0,11,57,8.0,64.0
794,78.0,54,65,6.0,64.0
795,68.0,11,51,8.0,64.0
796,42.0,19,80,10.0,64.0
797,76.0,14,62,6.0,64.0
798,69.0,26,95,8.0,64.0
799,74.0,75,65,6.0,64.0
800,59.0,54,122,7.0,64.0
801,40.0,40,80,10.0,64.0
802,68.0,14,168,8.0,64.0
803,83.0,15,345,6.0,64.0
804,64.0,14,66,7.0,64.0
805,52.0,36,75,10.0,64.0
806,66.0,4,59,8.0,64.0
807,66.0,64,58,7.0,64.0
808,68.0,16,67,7.0,64.0
809,64.0,11,335,8.0,64.0
810,50.0,33,75,10.0,64.0
811,69.0,64,68,7.0,64.0
812,81.0,22,65,6.0,64.0
813,71.0,6,222,7.0,64.0
814,38.0,25,83,10.0,64.0
815,80.0,44,49,6.0,64.0
816,78.0,22,36,6.0,64.0
817,37.0,3,88,10.0,64.0
818,76.0,30,29,6.0,64.0
819,81.0,107,43,6.0,64.0
820,49.0,11,98,10.0,64.0
821,64.0,5,108,8.0,64.0
822,69.0,103,107,6.0,64.0
823,69.0,56,227,7.0,64.0
824,71.0,27,171,6.0,64.0
825,66.0,18,95,8.0,64.0
826,50.0,2,86,10.0,64.0
827,52.0,8,83,10.0,64.0
828,68.0,51,111,7.0,64.0
829,64.0,7,94,8.0,64.0
830,73.0,11,40,6.0,64.0
831,74.0,5,30,6.0,64.0
832,45.0,6,80,10.0,64.0
833,74.0,17,47,6.0,64.0
834,69.0,50,508,7.0,64.0
835,64.0,22,162,8.0,64.0
836,73.0,12,23,6.0,64.0
837,74.0,14,22,6.0,64.0
838,73.0,15,16,6.0,64.0
839,74.0,57,19,6.0,64.0
840,73.0,4,61,6.0,64.0
841,57.0,39,69,10.0,64.0
842,71.0,55,81,6.0,64.0
843,62.0,15,57,8.0,64.0
844,61.0,12,65,8.0,64.0
845,55.0,36,76,10.0,64.0
846,69.0,8,224,6.0,64.0
847,62.0,62,52,8.0,64.0
848,64.0,23,58,8.0,64.0
849,43.0,29,67,10.0,64.0
850,61.0,37,57,8.0,64.0
851,74.0,11,353,6.0,64.0
852,57.0,6,76,8.0,64.0
853,42.0,99,81,10.0,64.0
854,71.0,9,69,7.0,64.0
855,54.0,51,72,10.0,64.0
856,62.0,13,212,8.0,64.0
857,72.0,65,66,7.0,64.0
858,71.0,4,66,7.0,64.0
859,55.0,28,69,10.0,64.0
860,73.0,69,62,7.0,64.0
861,78.0,5,70,6.0,64.0
862,59.0,103,203,8.0,64.0
863,43.0,40,74,10.0,64.0
864,74.0,9,191,7.0,64.0
865,76.0,75,51,6.0,64.0
866,44.0,4,70,10.0,64.0
867,76.0,5,338,6.0,64.0
868,73.0,4,67,7.0,64.0
869,56.0,49,70,10.0,64.0
870,64.0,3,229,8.0,64.0
871,71.0,68,61,7.0,64.0
872,57.0,37,71,10.0,64.0
873,73.0,6,63,7.0,64.0
874,75.0,69,59,7.0,64.0
875,79.0,9,69,6.0,64.0
876,61.0,6,206,8.0,64.0
877,45.0,38,71,10.0,64.0
878,76.0,93,209,7.0,64.0
879,78.0,90,50,6.0,64.0
880,78.0,24,323,6.0,64.0
881,46.0,5,73,10.0,64.0
882,58.0,52,66,10.0,64.0
883,75.0,1,62,7.0,64.0
884,66.0,11,222,8.0,64.0
885,73.0,59,58,7.0,64.0
886,59.0,23,68,10.0,64.0
887,75.0,5,58,7.0,64.0
888,76.0,38,66,7.0,64.0
889,81.0,25,56,6.0,64.0
890,47.0,16,74,10.0,64.0
891,63.0,12,108,8.0,64.0
892,78.0,26,177,7.0,64.0
893,83.0,5,30,6.0,64.0
894,81.0,21,29,6.0,64.0
895,79.0,61,37,6.0,64.0
896,52.0,46,87,10.0,64.0
897,59.0,26,286,8.0,64.0
898,79.0,14,449,6.0,64.0
899,75.0,53,68,7.0,64.0
900,64.0,3,65,10.0,64.0
901,76.0,56,60,7.0,64.0
902,71.0,41,61,7.0,64.0
903,62.0,40,77,10.0,64.0
904,64.0,54,257,7.0,64.0
905,71.0,67,56,8.0,64.0
906,67.0,14,63,8.0,64.0
907,50.0,26,74,10.0,64.0
908,64.0,33,58,8.0,64.0
909,69.0,18,293,6.0,64.0
910,49.0,17,83,10.0,64.0
911,69.0,26,98,8.0,64.0
912,61.0,53,66,7.0,64.0
913,67.0,21,93,8.0,64.0
914,61.0,15,78,10.0,64.0
915,64.0,20,55,7.0,64.0
916,69.0,56,50,7.0,64.0
917,57.0,19,77,10.0,64.0
918,66.0,10,89,8.0,64.0
919,73.0,9,90,7.0,64.0
920,73.0,64,57,6.0,64.0
921,76.0,16,61,6.0,64.0
922,61.0,10,68,10.0,64.0
923,64.0,27,78,8.0,64.0
924,69.0,31,206,7.0,64.0
925,79.0,80,50,6.0,64.0
926,79.0,5,71,6.0,64.0
927,62.0,19,75,10.0,64.0
928,62.0,3,190,8.0,64.0
929,76.0,57,62,6.0,64.0
930,73.0,12,59,7.0,64.0
931,50.0,43,69,10.0,64.0
932,78.0,8,294,6.0,64.0
933,74.0,84,56,7.0,64.0
934,69.0,10,351,8.0,64.0
935,48.0,101,73,10.0,64.0
936,62.0,77,352,7.0,64.0
937,60.0,22,65,10.0,64.0
938,79.0,21,31,6.0,64.0
939,81.0,88,28,6.0,64.0
940,59.0,27,85,10.0,64.0
941,81.0,4,75,6.0,64.0
942,74.0,14,225,6.0,64.0
943,67.0,13,94,8.0,64.0
944,64.0,71,105,7.0,64.0
945,47.0,20,67,10.0,64.0
946,66.0,4,198,7.0,64.0
947,69.0,21,206,8.0,64.0
948,45.0,36,68,10.0,64.0
949,78.0,67,56,6.0,64.0
950,81.0,12,64,6.0,64.0
951,57.0,9,70,10.0,64.0
952,83.0,10,30,6.0,64.0
953,84.0,88,33,6.0,64.0
954,55.0,45,83,10.0,64.0
955,62.0,20,443,8.0,64.0
956,67.0,11,588,7.0,64.0
957,84.0,69,121,6.0,64.0
958,83.0,92,222,6.0,64.0
959,43.0,124,67,10.0,64.0
960,42.0,21,79,10.0,64.0
961,74.0,84,110,6.0,64.0
962,54.0,14,71,10.0,64.0
963,52.0,30,82,10.0,64.0
964,64.0,11,67,8.0,64.0
965,73.0,1,65,6.0,64.0
966,59.0,51,64,8.0,64.0
967,76.0,2,59,6.0,64.0
968,64.0,11,55,8.0,64.0
969,71.0,22,89,7.0,64.0
970,40.0,26,62,10.0,64.0
971,79.0,29,206,6.0,64.0
972,67.0,76,57,8.0,64.0
973,71.0,9,70,8.0,64.0
974,38.0,20,75,10.0,64.0
975,76.0,15,293,7.0,64.0
976,69.0,56,67,8.0,64.0
977,50.0,16,92,10.0,64.0
978,67.0,29,61,8.0,64.0
979,71.0,63,111,6.0,64.0
980,66.0,7,47,8.0,64.0
981,49.0,20,81,10.0,64.0
982,64.0,2,93,8.0,64.0
983,69.0,9,89,6.0,64.0
984,74.0,75,55,7.0,64.0
985,73.0,17,65,7.0,64.0
986,45.0,8,82,10.0,64.0
987,69.0,90,227,8.0,64.0
988,76.0,1,62,6.0,64.0
989,71.0,63,65,7.0,64.0
990,78.0,18,33,6.0,64.0
991,79.0,14,25,6.0,64.0
992,79.0,14,63,6.0,64.0
993,50.0,15,89,10.0,64.0
994,69.0,7,80,7.0,64.0
995,78.0,6,17,6.0,64.0
996,55.0,15,83,10.0,64.0
997,71.0,5,74,7.0,64.0
998,67.0,0,69,8.0,64.0
999,78.0,2,67,6.0,64.0
1000,76.0,82,31,6.0,64.0
1001,57.0,2,97,10.0,64.0
1002,69.0,14,218,7.0,64.0
1003,66.0,15,182,8.0,64.0
1004,74.0,37,45,6.0,64.0
1005,73.0,85,47,6.0,64.0
1006,71.0,9,88,6.0,64.0
1007,55.0,13,85,10.0,64.0
1008,73.0,29,51,6.0,64.0
1009,74.0,7,44,6.0,64.0
1010,57.0,1,95,10.0,64.0
1011,69.0,14,19,7.0,64.0
1012,64.0,4,88,8.0,64.0
1013,67.0,6,17,7.0,64.0
1014,69.0,7,15,7.0,64.0
1015,73.0,17,17,6.0,64.0
1016,67.0,11,27,7.0,64.0
1017,74.0,1,18,6.0,64.0
1018,66.0,3,55,7.0,64.0
1019,73.0,8,14,6.0,64.0
1020,74.0,10,14,6.0,64.0
1021,73.0,16,12,6.0,64.0
1022,74.0,65,21,6.0,64.0
1023,73.0,8,72,6.0,64.0
1024,57.0,7,76,8.0,64.0
1025,67.0,28,98,7.0,64.0
1026,45.0,15,74,10.0,64.0
1027,74.0,389,61,6.0,64.0
1028,66.0,10,422,7.0,64.0
1029,38.0,16,399,10.0,64.0
1030,57.0,0,424,8.0,64.0
1031,74.0,12,378,6.0,64.0
