,note,step,duration,channel,velocity
0,71.0,0,21,0.0,96.0
1,52.0,0,21,3.0,96.0
2,40.0,0,21,4.0,96.0
3,71.0,0,21,5.0,96.0
4,40.0,0,21,6.0,96.0
5,52.0,0,6,6.0,96.0
6,76.0,24,12,0.0,96.0
7,76.0,0,12,5.0,96.0
8,51.0,6,6,6.0,96.0
9,75.0,6,12,0.0,96.0
10,75.0,0,12,5.0,96.0
11,76.0,12,12,0.0,96.0
12,76.0,0,12,5.0,96.0
13,40.0,0,42,3.0,96.0
14,28.0,0,42,4.0,96.0
15,52.0,0,31,6.0,96.0
16,71.0,0,21,1.0,96.0
17,80.0,12,10,0.0,96.0
18,80.0,0,10,5.0,96.0
19,76.0,12,10,0.0,96.0
20,76.0,0,10,5.0,96.0
21,68.0,0,21,1.0,96.0
22,71.0,12,10,0.0,96.0
23,71.0,0,10,5.0,96.0
24,68.0,12,10,0.0,96.0
25,68.0,0,10,5.0,96.0
26,64.0,0,21,1.0,96.0
27,71.0,0,21,2.0,96.0
28,52.0,0,21,3.0,96.0
29,40.0,0,21,4.0,96.0
30,40.0,0,21,6.0,96.0
31,71.0,12,10,0.0,96.0
32,71.0,0,10,5.0,96.0
33,52.0,0,6,6.0,96.0
34,64.0,12,10,0.0,96.0
35,64.0,0,10,5.0,96.0
36,51.0,6,6,6.0,96.0
37,68.0,0,21,2.0,96.0
38,71.0,6,10,0.0,96.0
39,71.0,0,10,5.0,96.0
40,68.0,12,10,0.0,96.0
41,68.0,0,10,5.0,96.0
42,40.0,0,42,3.0,96.0
43,28.0,0,42,4.0,96.0
44,52.0,0,31,6.0,96.0
45,71.0,0,21,1.0,96.0
46,64.0,0,21,2.0,96.0
47,71.0,12,10,0.0,96.0
48,71.0,0,10,5.0,96.0
49,64.0,12,10,0.0,96.0
50,64.0,0,10,5.0,96.0
51,68.0,0,21,1.0,96.0
52,71.0,12,10,0.0,96.0
53,71.0,0,10,5.0,96.0
54,68.0,12,10,0.0,96.0
55,68.0,0,10,5.0,96.0
56,64.0,0,21,1.0,96.0
57,71.0,0,21,2.0,96.0
58,52.0,0,21,3.0,96.0
59,40.0,0,21,4.0,96.0
60,40.0,0,21,6.0,96.0
61,71.0,12,10,0.0,96.0
62,71.0,0,10,5.0,96.0
63,76.0,0,10,5.0,96.0
64,76.0,12,12,0.0,96.0
65,68.0,0,21,2.0,96.0
66,75.0,0,10,5.0,96.0
67,75.0,12,12,0.0,96.0
68,76.0,0,10,5.0,96.0
69,76.0,12,12,0.0,96.0
70,40.0,0,42,3.0,96.0
71,28.0,0,42,4.0,96.0
72,52.0,0,42,6.0,96.0
73,71.0,0,21,1.0,96.0
74,64.0,0,21,2.0,96.0
75,80.0,12,10,0.0,96.0
76,80.0,0,10,5.0,96.0
77,76.0,12,10,0.0,96.0
78,76.0,0,10,5.0,96.0
79,68.0,0,21,1.0,96.0
80,71.0,12,10,0.0,96.0
81,71.0,0,10,5.0,96.0
82,68.0,12,10,0.0,96.0
83,68.0,0,10,5.0,96.0
84,64.0,0,21,1.0,96.0
85,71.0,0,21,2.0,96.0
86,52.0,0,21,3.0,96.0
87,40.0,0,21,4.0,96.0
88,40.0,0,21,6.0,96.0
89,71.0,12,10,0.0,96.0
90,71.0,0,10,5.0,96.0
91,64.0,12,10,0.0,96.0
92,64.0,0,10,5.0,96.0
93,68.0,0,21,2.0,96.0
94,40.0,0,21,3.0,96.0
95,28.0,0,21,4.0,96.0
96,52.0,0,21,6.0,96.0
97,71.0,12,10,0.0,96.0
98,71.0,0,10,5.0,96.0
99,68.0,12,10,0.0,96.0
100,68.0,0,10,5.0,96.0
101,76.0,0,21,1.0,96.0
102,71.0,0,21,2.0,96.0
103,52.0,0,21,3.0,96.0
104,40.0,0,21,4.0,96.0
105,40.0,0,21,6.0,96.0
106,71.0,12,10,0.0,96.0
107,71.0,0,10,5.0,96.0
108,76.0,12,10,0.0,96.0
109,76.0,0,10,5.0,96.0
110,71.0,0,21,1.0,96.0
111,59.0,0,21,2.0,96.0
112,56.0,0,21,3.0,96.0
113,44.0,0,21,4.0,96.0
114,44.0,0,21,6.0,96.0
115,71.0,12,10,0.0,96.0
116,71.0,0,10,5.0,96.0
117,78.0,12,10,0.0,96.0
118,78.0,0,10,5.0,96.0
119,75.0,0,21,1.0,96.0
120,71.0,0,21,2.0,96.0
121,59.0,0,21,3.0,96.0
122,47.0,0,21,4.0,96.0
123,47.0,0,21,6.0,96.0
124,71.0,12,10,0.0,96.0
125,71.0,0,10,5.0,96.0
126,80.0,12,12,0.0,96.0
127,76.0,0,21,1.0,96.0
128,71.0,0,21,2.0,96.0
129,64.0,0,21,3.0,96.0
130,52.0,0,21,4.0,96.0
131,80.0,0,21,5.0,96.0
132,52.0,0,21,6.0,96.0
133,78.0,24,6,0.0,96.0
134,78.0,0,12,5.0,96.0
135,80.0,12,6,0.0,96.0
136,80.0,0,6,5.0,96.0
137,78.0,0,21,1.0,96.0
138,71.0,0,21,2.0,96.0
139,63.0,0,21,3.0,96.0
140,51.0,0,21,4.0,96.0
141,51.0,0,21,6.0,96.0
142,78.0,6,6,0.0,96.0
143,78.0,0,6,5.0,96.0
144,80.0,6,6,0.0,96.0
145,80.0,0,6,5.0,96.0
146,81.0,6,9,0.0,96.0
147,76.0,0,21,1.0,96.0
148,64.0,0,21,2.0,96.0
149,61.0,0,21,3.0,96.0
150,49.0,0,21,4.0,96.0
151,49.0,0,21,6.0,96.0
152,81.0,0,16,5.0,96.0
153,80.0,18,12,0.0,96.0
154,76.0,0,21,1.0,96.0
155,68.0,0,21,2.0,96.0
156,59.0,0,21,3.0,96.0
157,47.0,0,21,4.0,96.0
158,80.0,0,21,5.0,96.0
159,47.0,0,21,6.0,96.0
160,78.0,24,6,0.0,96.0
161,80.0,6,6,0.0,96.0
162,75.0,0,21,1.0,96.0
163,71.0,0,21,2.0,96.0
164,57.0,0,21,3.0,96.0
165,45.0,0,21,4.0,96.0
166,78.0,0,21,5.0,96.0
167,45.0,0,21,6.0,96.0
168,78.0,6,10,0.0,96.0
169,76.0,12,21,0.0,96.0
170,76.0,0,21,1.0,96.0
171,59.0,0,21,2.0,96.0
172,56.0,0,21,3.0,96.0
173,44.0,0,21,4.0,96.0
174,76.0,0,21,5.0,96.0
175,44.0,0,21,6.0,96.0
176,76.0,24,10,1.0,96.0
177,71.0,0,21,2.0,96.0
178,56.0,0,21,3.0,96.0
179,44.0,0,21,4.0,96.0
180,56.0,0,21,6.0,96.0
181,75.0,12,10,1.0,96.0
182,83.0,0,52,5.0,96.0
183,83.0,24,60,0.0,96.0
184,76.0,12,21,1.0,96.0
185,68.0,0,21,2.0,96.0
186,61.0,0,21,3.0,96.0
187,49.0,0,21,4.0,96.0
188,61.0,0,21,6.0,96.0
189,76.0,0,10,5.0,96.0
190,76.0,12,12,0.0,96.0
191,75.0,0,10,5.0,96.0
192,75.0,12,12,0.0,96.0
193,80.0,0,21,1.0,96.0
194,71.0,0,21,2.0,96.0
195,59.0,0,21,3.0,96.0
196,47.0,0,21,4.0,96.0
197,59.0,0,21,6.0,96.0
198,76.0,0,10,5.0,96.0
199,76.0,12,12,0.0,96.0
200,75.0,0,21,1.0,96.0
201,71.0,0,21,2.0,96.0
202,57.0,0,21,3.0,96.0
203,45.0,0,21,4.0,96.0
204,78.0,0,21,5.0,96.0
205,57.0,0,21,6.0,96.0
206,78.0,12,24,0.0,96.0
207,76.0,0,21,1.0,96.0
208,59.0,0,21,2.0,96.0
209,56.0,0,21,3.0,96.0
210,44.0,0,21,4.0,96.0
211,76.0,0,21,5.0,96.0
212,56.0,0,21,6.0,96.0
213,76.0,24,24,0.0,96.0
214,75.0,0,10,5.0,96.0
215,75.0,24,12,0.0,96.0
216,69.0,0,21,1.0,96.0
217,66.0,0,21,2.0,96.0
218,54.0,0,21,3.0,96.0
219,42.0,0,21,4.0,96.0
220,54.0,0,21,6.0,96.0
221,76.0,0,10,5.0,96.0
222,76.0,12,12,0.0,96.0
223,78.0,0,10,5.0,96.0
224,78.0,12,12,0.0,96.0
225,73.0,0,21,1.0,96.0
226,69.0,0,21,2.0,96.0
227,52.0,0,21,3.0,96.0
228,40.0,0,21,4.0,96.0
229,52.0,0,21,6.0,96.0
230,75.0,0,10,5.0,96.0
231,75.0,12,12,0.0,96.0
232,71.0,12,3,0.0,96.0
233,71.0,0,3,5.0,96.0
234,66.0,0,21,1.0,96.0
235,71.0,0,21,2.0,96.0
236,51.0,0,21,3.0,96.0
237,39.0,0,21,4.0,96.0
238,51.0,0,21,6.0,96.0
239,81.0,12,12,0.0,96.0
240,81.0,0,12,5.0,96.0
241,80.0,12,12,0.0,96.0
242,80.0,0,12,5.0,96.0
243,75.0,0,21,1.0,96.0
244,71.0,0,21,2.0,96.0
245,47.0,0,21,3.0,96.0
246,35.0,0,21,4.0,96.0
247,47.0,0,21,6.0,96.0
248,78.0,12,10,0.0,96.0
249,78.0,0,10,5.0,96.0
250,71.0,12,3,0.0,96.0
251,71.0,0,3,5.0,96.0
252,76.0,0,21,1.0,96.0
253,71.0,0,21,2.0,96.0
254,52.0,0,21,3.0,96.0
255,40.0,0,21,4.0,96.0
256,52.0,0,21,6.0,96.0
257,80.0,12,12,0.0,96.0
258,80.0,0,12,5.0,96.0
259,78.0,12,12,0.0,96.0
260,78.0,0,12,5.0,96.0
261,76.0,12,10,0.0,96.0
262,76.0,0,10,5.0,96.0
263,71.0,12,3,0.0,96.0
264,71.0,0,3,5.0,96.0
265,66.0,0,21,1.0,96.0
266,71.0,0,21,2.0,96.0
267,51.0,0,21,3.0,96.0
268,39.0,0,21,4.0,96.0
269,51.0,0,21,6.0,96.0
270,78.0,12,12,0.0,96.0
271,78.0,0,12,5.0,96.0
272,76.0,12,12,0.0,96.0
273,76.0,0,12,5.0,96.0
274,75.0,12,10,0.0,96.0
275,75.0,0,10,5.0,96.0
276,76.0,12,3,0.0,96.0
277,76.0,0,3,5.0,96.0
278,68.0,0,21,1.0,96.0
279,73.0,0,21,2.0,96.0
280,49.0,0,21,3.0,96.0
281,37.0,0,21,4.0,96.0
282,49.0,0,21,6.0,96.0
283,69.0,12,12,0.0,96.0
284,69.0,0,12,5.0,96.0
285,68.0,12,12,0.0,96.0
286,68.0,0,12,5.0,96.0
287,66.0,12,10,0.0,96.0
288,66.0,0,10,5.0,96.0
289,64.0,12,3,0.0,96.0
290,64.0,0,3,5.0,96.0
291,71.0,0,21,1.0,96.0
292,64.0,0,21,2.0,96.0
293,44.0,0,21,3.0,96.0
294,32.0,0,21,4.0,96.0
295,44.0,0,21,6.0,96.0
296,74.0,12,12,0.0,96.0
297,74.0,0,12,5.0,96.0
298,73.0,12,12,0.0,96.0
299,73.0,0,12,5.0,96.0
300,68.0,0,21,1.0,96.0
301,40.0,0,21,3.0,96.0
302,28.0,0,21,4.0,96.0
303,40.0,0,21,6.0,96.0
304,71.0,12,10,0.0,96.0
305,71.0,0,10,5.0,96.0
306,64.0,0,31,2.0,96.0
307,73.0,12,12,0.0,96.0
308,73.0,0,12,5.0,96.0
309,69.0,0,21,1.0,96.0
310,45.0,0,21,3.0,96.0
311,33.0,0,21,4.0,96.0
312,45.0,0,21,6.0,96.0
313,62.0,0,10,2.0,96.0
314,71.0,12,12,0.0,96.0
315,71.0,0,12,5.0,96.0
316,61.0,0,10,2.0,96.0
317,69.0,12,12,0.0,96.0
318,69.0,0,12,5.0,96.0
319,64.0,0,21,1.0,96.0
320,49.0,0,21,3.0,96.0
321,37.0,0,21,4.0,96.0
322,49.0,0,21,6.0,96.0
323,68.0,12,10,0.0,96.0
324,59.0,0,10,2.0,96.0
325,68.0,0,10,5.0,96.0
326,66.0,12,10,0.0,96.0
327,73.0,0,10,1.0,96.0
328,66.0,0,10,5.0,96.0
329,57.0,0,21,2.0,96.0
330,54.0,0,21,3.0,96.0
331,42.0,0,21,4.0,96.0
332,54.0,0,21,6.0,96.0
333,80.0,12,10,0.0,96.0
334,71.0,0,10,1.0,96.0
335,80.0,0,10,5.0,96.0
336,78.0,12,10,0.0,96.0
337,69.0,0,10,1.0,96.0
338,78.0,0,10,5.0,96.0
339,57.0,0,21,3.0,96.0
340,45.0,0,21,4.0,96.0
341,57.0,0,21,6.0,96.0
342,76.0,12,10,0.0,96.0
343,68.0,0,10,1.0,96.0
344,76.0,0,10,5.0,96.0
345,66.0,0,31,2.0,96.0
346,75.0,12,12,0.0,96.0
347,75.0,0,12,5.0,96.0
348,66.0,0,21,1.0,96.0
349,47.0,0,21,3.0,96.0
350,35.0,0,21,4.0,96.0
351,47.0,0,21,6.0,96.0
352,64.0,0,10,2.0,96.0
353,73.0,12,12,0.0,96.0
354,73.0,0,12,5.0,96.0
355,63.0,0,10,2.0,96.0
356,71.0,12,12,0.0,96.0
357,71.0,0,12,5.0,96.0
358,51.0,0,21,3.0,96.0
359,39.0,0,21,4.0,96.0
360,51.0,0,21,6.0,96.0
361,69.0,12,10,0.0,96.0
362,61.0,0,10,2.0,96.0
363,69.0,0,10,5.0,96.0
364,75.0,0,31,1.0,96.0
365,68.0,12,10,0.0,96.0
366,68.0,0,10,5.0,96.0
367,59.0,0,21,2.0,96.0
368,56.0,0,21,3.0,96.0
369,44.0,0,21,4.0,96.0
370,56.0,0,21,6.0,96.0
371,81.0,12,10,0.0,96.0
372,73.0,0,10,1.0,96.0
373,81.0,0,10,5.0,96.0
374,80.0,12,10,0.0,96.0
375,71.0,0,10,1.0,96.0
376,80.0,0,10,5.0,96.0
377,59.0,0,21,3.0,96.0
378,47.0,0,21,4.0,96.0
379,59.0,0,21,6.0,96.0
380,78.0,12,10,0.0,96.0
381,69.0,0,10,1.0,96.0
382,78.0,0,10,5.0,96.0
383,68.0,0,31,2.0,96.0
384,76.0,12,12,0.0,96.0
385,76.0,0,12,5.0,96.0
386,68.0,0,21,1.0,96.0
387,49.0,0,21,3.0,96.0
388,37.0,0,21,4.0,96.0
389,49.0,0,21,6.0,96.0
390,66.0,0,10,2.0,96.0
391,75.0,12,12,0.0,96.0
392,75.0,0,12,5.0,96.0
393,64.0,0,10,2.0,96.0
394,73.0,12,12,0.0,96.0
395,73.0,0,12,5.0,96.0
396,52.0,0,21,3.0,96.0
397,40.0,0,21,4.0,96.0
398,52.0,0,21,6.0,96.0
399,71.0,12,10,0.0,96.0
400,63.0,0,10,2.0,96.0
401,71.0,0,10,5.0,96.0
402,76.0,0,31,1.0,96.0
403,69.0,12,10,0.0,96.0
404,69.0,0,10,5.0,96.0
405,61.0,0,21,2.0,96.0
406,57.0,0,21,3.0,96.0
407,45.0,0,21,4.0,96.0
408,57.0,0,21,6.0,96.0
409,83.0,12,10,0.0,96.0
410,75.0,0,10,1.0,96.0
411,83.0,0,10,5.0,96.0
412,81.0,12,10,0.0,96.0
413,73.0,0,10,1.0,96.0
414,81.0,0,10,5.0,96.0
415,61.0,0,21,3.0,96.0
416,49.0,0,21,4.0,96.0
417,61.0,0,21,6.0,96.0
418,80.0,12,10,0.0,96.0
419,71.0,0,10,1.0,96.0
420,80.0,0,10,5.0,96.0
421,69.0,0,31,2.0,96.0
422,69.0,0,10,1.0,96.0
423,78.0,12,12,0.0,96.0
424,78.0,0,12,5.0,96.0
425,51.0,0,21,3.0,96.0
426,39.0,0,21,4.0,96.0
427,51.0,0,21,6.0,96.0
428,68.0,0,10,1.0,96.0
429,71.0,0,10,2.0,96.0
430,76.0,12,12,0.0,96.0
431,76.0,0,12,5.0,96.0
432,66.0,0,10,1.0,96.0
433,69.0,0,10,2.0,96.0
434,75.0,12,12,0.0,96.0
435,75.0,0,12,5.0,96.0
436,54.0,0,21,3.0,96.0
437,42.0,0,21,4.0,96.0
438,54.0,0,21,6.0,96.0
439,73.0,12,10,0.0,96.0
440,64.0,0,10,1.0,96.0
441,68.0,0,10,2.0,96.0
442,73.0,0,10,5.0,96.0
443,71.0,12,10,0.0,96.0
444,63.0,0,10,1.0,96.0
445,71.0,0,10,5.0,96.0
446,66.0,0,21,2.0,96.0
447,59.0,0,21,3.0,96.0
448,47.0,0,21,4.0,96.0
449,59.0,0,21,6.0,96.0
450,69.0,12,10,0.0,96.0
451,61.0,0,10,1.0,96.0
452,69.0,0,10,5.0,96.0
453,68.0,12,10,0.0,96.0
454,59.0,0,10,1.0,96.0
455,64.0,0,10,2.0,96.0
456,68.0,0,10,5.0,96.0
457,47.0,0,21,3.0,96.0
458,35.0,0,21,4.0,96.0
459,47.0,0,21,6.0,96.0
460,66.0,12,10,0.0,96.0
461,57.0,0,10,1.0,96.0
462,63.0,0,10,2.0,96.0
463,66.0,0,10,5.0,96.0
464,64.0,0,12,5.0,96.0
465,66.0,12,6,5.0,96.0
466,56.0,0,21,1.0,96.0
467,64.0,0,21,2.0,96.0
468,49.0,0,21,3.0,96.0
469,37.0,0,21,4.0,96.0
470,49.0,0,21,6.0,96.0
471,64.0,6,6,5.0,96.0
472,63.0,0,6,5.0,96.0
473,64.0,12,31,0.0,96.0
474,64.0,6,6,5.0,96.0
475,61.0,0,21,2.0,96.0
476,45.0,0,21,3.0,96.0
477,33.0,0,21,4.0,96.0
478,45.0,0,21,6.0,96.0
479,66.0,6,10,0.0,96.0
480,66.0,0,10,5.0,96.0
481,64.0,6,42,1.0,96.0
482,59.0,0,21,2.0,96.0
483,47.0,0,21,3.0,96.0
484,35.0,0,21,4.0,96.0
485,47.0,0,21,6.0,96.0
486,66.0,12,31,0.0,96.0
487,66.0,0,31,5.0,96.0
488,63.0,24,21,1.0,96.0
489,57.0,0,21,2.0,96.0
490,47.0,0,21,3.0,96.0
491,35.0,0,21,4.0,96.0
492,47.0,0,21,6.0,96.0
493,64.0,12,10,0.0,96.0
494,64.0,0,10,5.0,96.0
495,64.0,12,21,0.0,96.0
496,64.0,0,21,1.0,96.0
497,56.0,0,21,2.0,96.0
498,76.0,24,6,0.0,80.0
499,40.0,0,42,3.0,96.0
500,28.0,0,42,4.0,96.0
501,64.0,0,42,5.0,96.0
502,40.0,0,42,6.0,96.0
503,71.0,0,21,1.0,80.0
504,68.0,0,21,2.0,80.0
505,76.0,24,6,0.0,80.0
506,71.0,0,21,1.0,80.0
507,68.0,0,21,2.0,80.0
508,71.0,24,6,0.0,80.0
509,68.0,0,21,1.0,80.0
510,64.0,0,21,2.0,80.0
511,59.0,0,21,5.0,96.0
512,71.0,24,6,0.0,80.0
513,64.0,0,10,5.0,96.0
514,68.0,0,21,1.0,80.0
515,64.0,0,21,2.0,80.0
516,66.0,12,10,5.0,96.0
517,68.0,12,6,0.0,80.0
518,68.0,0,6,5.0,96.0
519,64.0,0,21,1.0,80.0
520,59.0,0,21,2.0,80.0
521,68.0,24,6,0.0,80.0
522,68.0,0,10,5.0,96.0
523,64.0,0,21,1.0,80.0
524,59.0,0,21,2.0,80.0
525,69.0,12,10,5.0,96.0
526,64.0,12,6,0.0,80.0
527,71.0,0,6,5.0,96.0
528,59.0,0,21,1.0,80.0
529,56.0,0,21,2.0,80.0
530,71.0,0,10,5.0,96.0
531,64.0,24,21,0.0,80.0
532,59.0,0,21,1.0,80.0
533,56.0,0,21,2.0,80.0
534,73.0,12,10,5.0,96.0
535,75.0,0,6,5.0,96.0
536,59.0,12,21,0.0,80.0
537,56.0,0,21,1.0,80.0
538,52.0,0,21,2.0,80.0
539,59.0,24,21,0.0,80.0
540,56.0,0,21,1.0,80.0
541,52.0,0,21,2.0,80.0
542,76.0,0,21,5.0,96.0
543,76.0,24,6,5.0,96.0
544,78.0,6,6,5.0,96.0
545,58.0,0,21,6.0,96.0
546,49.0,0,21,6.0,96.0
547,80.0,6,10,5.0,96.0
548,78.0,12,21,5.0,96.0
549,51.0,0,21,6.0,96.0
550,59.0,0,31,6.0,96.0
551,76.0,24,21,5.0,96.0
552,52.0,0,21,6.0,96.0
553,61.0,12,10,6.0,96.0
554,75.0,12,6,5.0,96.0
555,76.0,6,6,5.0,96.0
556,54.0,0,21,6.0,96.0
557,75.0,6,10,5.0,96.0
558,59.0,0,21,6.0,96.0
559,73.0,12,21,5.0,96.0
560,52.0,0,21,6.0,96.0
561,58.0,12,10,6.0,96.0
562,71.0,12,12,5.0,96.0
563,54.0,0,21,6.0,96.0
564,51.0,0,21,6.0,96.0
565,70.0,12,10,5.0,96.0
566,71.0,12,12,5.0,96.0
567,52.0,0,21,6.0,96.0
568,49.0,0,21,6.0,96.0
569,70.0,12,10,5.0,96.0
570,71.0,12,10,5.0,96.0
571,59.0,0,63,6.0,96.0
572,54.0,0,21,6.0,96.0
573,51.0,0,21,6.0,96.0
574,78.0,12,10,5.0,96.0
575,80.0,12,10,5.0,96.0
576,59.0,0,21,6.0,96.0
577,52.0,0,21,6.0,96.0
578,76.0,12,10,5.0,96.0
579,71.0,12,12,5.0,96.0
580,54.0,0,21,6.0,96.0
581,51.0,0,21,6.0,96.0
582,70.0,12,10,5.0,96.0
583,71.0,12,12,5.0,96.0
584,52.0,0,21,6.0,96.0
585,49.0,0,21,6.0,96.0
586,70.0,12,10,5.0,96.0
587,71.0,12,10,5.0,96.0
588,59.0,0,63,6.0,96.0
589,54.0,0,21,6.0,96.0
590,51.0,0,21,6.0,96.0
591,80.0,12,10,5.0,96.0
592,81.0,12,10,5.0,96.0
593,54.0,0,21,6.0,96.0
594,51.0,0,21,6.0,96.0
595,47.0,0,21,6.0,96.0
596,78.0,12,10,5.0,96.0
597,71.0,12,12,5.0,96.0
598,56.0,0,21,6.0,96.0
599,52.0,0,21,6.0,96.0
600,70.0,12,10,5.0,96.0
601,71.0,12,12,5.0,96.0
602,54.0,0,21,6.0,96.0
603,70.0,12,10,5.0,96.0
604,71.0,12,10,5.0,96.0
605,56.0,0,21,6.0,96.0
606,81.0,12,10,5.0,96.0
607,83.0,12,10,5.0,96.0
608,64.0,0,21,6.0,96.0
609,56.0,0,21,6.0,96.0
610,52.0,0,21,6.0,96.0
611,80.0,12,10,5.0,96.0
612,81.0,12,10,5.0,96.0
613,63.0,0,21,6.0,96.0
614,54.0,0,21,6.0,96.0
615,80.0,12,10,5.0,96.0
616,81.0,12,10,5.0,96.0
617,52.0,0,21,6.0,96.0
618,78.0,12,10,5.0,96.0
619,71.0,12,5,5.0,96.0
620,73.0,6,5,5.0,96.0
621,75.0,6,5,5.0,96.0
622,51.0,0,21,6.0,96.0
623,76.0,6,5,5.0,96.0
624,78.0,6,5,5.0,96.0
625,80.0,6,5,5.0,96.0
626,59.0,0,21,6.0,96.0
627,54.0,0,21,6.0,96.0
628,51.0,0,21,6.0,96.0
629,47.0,0,21,6.0,96.0
630,81.0,6,10,5.0,96.0
631,80.0,12,10,5.0,96.0
632,59.0,0,21,6.0,96.0
633,52.0,0,21,6.0,96.0
634,78.0,12,10,5.0,96.0
635,80.0,12,10,5.0,96.0
636,54.0,0,21,6.0,96.0
637,76.0,12,10,5.0,96.0
638,71.0,12,6,5.0,96.0
639,70.0,6,6,5.0,96.0
640,71.0,6,6,5.0,96.0
641,56.0,0,21,6.0,96.0
642,73.0,6,6,5.0,96.0
643,75.0,6,6,5.0,96.0
644,76.0,6,6,5.0,96.0
645,78.0,6,6,5.0,96.0
646,64.0,0,21,6.0,96.0
647,59.0,0,21,6.0,96.0
648,56.0,0,21,6.0,96.0
649,52.0,0,21,6.0,96.0
650,80.0,6,5,5.0,96.0
651,81.0,6,3,5.0,96.0
652,80.0,12,3,5.0,96.0
653,63.0,0,21,6.0,96.0
654,54.0,0,21,6.0,96.0
655,78.0,12,3,5.0,96.0
656,76.0,12,3,5.0,96.0
657,59.0,0,21,6.0,96.0
658,75.0,12,3,5.0,96.0
659,73.0,12,3,5.0,96.0
660,47.0,0,21,6.0,96.0
661,71.0,12,3,5.0,96.0
662,69.0,12,3,5.0,96.0
663,59.0,0,21,6.0,96.0
664,54.0,0,21,6.0,96.0
665,51.0,0,21,6.0,96.0
666,68.0,12,10,5.0,96.0
667,52.0,0,21,6.0,96.0
668,64.0,12,10,5.0,96.0
669,59.0,12,10,5.0,96.0
670,40.0,0,21,6.0,96.0
671,56.0,12,10,5.0,96.0
672,52.0,12,21,6.0,96.0
673,71.0,12,10,5.0,96.0
674,76.0,12,10,5.0,96.0
675,58.0,0,21,6.0,96.0
676,49.0,0,21,6.0,96.0
677,80.0,12,10,5.0,96.0
678,78.0,12,10,5.0,96.0
679,83.0,12,10,5.0,96.0
680,82.0,0,10,5.0,96.0
681,59.0,0,42,6.0,96.0
682,51.0,0,42,6.0,96.0
683,78.0,12,21,0.0,80.0
684,75.0,0,21,1.0,80.0
685,83.0,12,10,5.0,96.0
686,73.0,0,5,5.0,96.0
687,75.0,6,5,5.0,96.0
688,73.0,6,5,5.0,96.0
689,76.0,12,21,0.0,80.0
690,70.0,0,21,1.0,80.0
691,71.0,6,5,5.0,96.0
692,73.0,0,10,5.0,96.0
693,75.0,6,21,0.0,80.0
694,71.0,0,21,1.0,80.0
695,54.0,0,21,6.0,96.0
696,47.0,0,21,6.0,96.0
697,75.0,12,10,5.0,96.0
698,76.0,12,10,5.0,96.0
699,83.0,12,10,5.0,96.0
700,82.0,0,10,5.0,96.0
701,58.0,0,42,6.0,96.0
702,49.0,0,42,6.0,96.0
703,76.0,12,21,0.0,80.0
704,73.0,0,21,1.0,80.0
705,83.0,12,10,5.0,96.0
706,71.0,0,5,5.0,96.0
707,73.0,6,5,5.0,96.0
708,71.0,6,5,5.0,96.0
709,75.0,12,21,0.0,80.0
710,68.0,0,21,1.0,80.0
711,70.0,6,5,5.0,96.0
712,71.0,0,10,5.0,96.0
713,73.0,6,21,0.0,80.0
714,70.0,0,21,1.0,80.0
715,54.0,0,21,3.0,80.0
716,42.0,0,21,4.0,80.0
717,54.0,0,21,6.0,96.0
718,73.0,12,10,5.0,96.0
719,59.0,12,21,3.0,80.0
720,47.0,0,21,4.0,80.0
721,75.0,0,21,5.0,96.0
722,59.0,0,21,6.0,96.0
723,73.0,24,21,0.0,80.0
724,66.0,0,21,1.0,80.0
725,61.0,0,21,2.0,80.0
726,58.0,0,21,3.0,80.0
727,46.0,0,21,4.0,80.0
728,73.0,0,21,5.0,96.0
729,58.0,0,21,6.0,96.0
730,73.0,0,5,5.0,96.0
731,75.0,6,5,5.0,96.0
732,71.0,24,21,0.0,80.0
733,59.0,0,21,1.0,80.0
734,64.0,0,21,2.0,80.0
735,56.0,0,21,3.0,80.0
736,44.0,0,21,4.0,80.0
737,56.0,0,21,6.0,96.0
738,76.0,6,10,5.0,96.0
739,75.0,0,6,5.0,96.0
740,71.0,12,21,0.0,80.0
741,66.0,0,21,1.0,80.0
742,66.0,0,21,2.0,80.0
743,54.0,0,21,3.0,80.0
744,42.0,0,21,4.0,80.0
745,54.0,0,21,6.0,96.0
746,73.0,0,6,5.0,96.0
747,75.0,6,6,5.0,96.0
748,70.0,24,21,0.0,80.0
749,66.0,0,21,1.0,80.0
750,54.0,0,21,2.0,80.0
751,52.0,0,21,3.0,80.0
752,40.0,0,21,4.0,80.0
753,52.0,0,21,6.0,96.0
754,73.0,6,10,5.0,96.0
755,51.0,0,10,6.0,96.0
756,71.0,12,21,0.0,80.0
757,66.0,0,21,1.0,80.0
758,59.0,0,21,2.0,80.0
759,51.0,0,21,3.0,80.0
760,39.0,0,21,4.0,80.0
761,71.0,0,21,5.0,96.0
762,54.0,12,10,6.0,96.0
763,80.0,12,6,5.0,96.0
764,59.0,0,10,6.0,96.0
765,78.0,6,6,5.0,96.0
766,50.0,0,10,6.0,96.0
767,59.0,0,10,6.0,96.0
768,78.0,12,21,0.0,80.0
769,66.0,0,21,1.0,80.0
770,71.0,0,21,2.0,80.0
771,50.0,0,21,3.0,80.0
772,38.0,0,21,4.0,80.0
773,50.0,12,10,6.0,96.0
774,80.0,6,42,5.0,96.0
775,49.0,0,10,6.0,96.0
776,49.0,0,21,3.0,80.0
777,37.0,0,21,4.0,80.0
778,78.0,12,10,5.0,96.0
779,57.0,0,10,6.0,96.0
780,77.0,0,10,5.0,96.0
781,56.0,0,10,6.0,96.0
782,56.0,12,21,3.0,80.0
783,44.0,0,21,4.0,80.0
784,78.0,12,10,5.0,96.0
785,54.0,0,10,6.0,96.0
786,80.0,0,10,5.0,96.0
787,53.0,0,10,6.0,96.0
788,53.0,12,21,3.0,80.0
789,41.0,0,21,4.0,80.0
790,71.0,12,10,5.0,96.0
791,51.0,0,10,6.0,96.0
792,70.0,0,10,5.0,96.0
793,49.0,0,10,6.0,96.0
794,77.0,12,84,0.0,80.0
795,73.0,0,84,1.0,80.0
796,71.0,0,84,2.0,80.0
797,49.0,12,21,3.0,80.0
798,37.0,0,21,4.0,80.0
799,71.0,12,10,5.0,96.0
800,51.0,0,10,6.0,96.0
801,70.0,0,10,5.0,96.0
802,52.0,0,10,6.0,96.0
803,73.0,12,10,5.0,96.0
804,58.0,0,10,6.0,96.0
805,76.0,12,10,5.0,96.0
806,61.0,0,10,6.0,96.0
807,78.0,12,42,0.0,80.0
808,73.0,0,42,1.0,80.0
809,70.0,0,42,2.0,80.0
810,52.0,0,42,3.0,80.0
811,40.0,0,42,4.0,80.0
812,80.0,12,10,5.0,96.0
813,64.0,0,10,6.0,96.0
814,58.0,0,10,6.0,96.0
815,61.0,12,10,6.0,96.0
816,54.0,0,10,6.0,96.0
817,82.0,12,21,0.0,80.0
818,78.0,0,21,1.0,80.0
819,73.0,0,21,2.0,80.0
820,52.0,0,21,3.0,80.0
821,40.0,0,21,4.0,80.0
822,52.0,12,10,6.0,96.0
823,78.0,12,63,5.0,96.0
824,83.0,12,21,0.0,80.0
825,78.0,0,21,1.0,80.0
826,66.0,0,21,2.0,80.0
827,51.0,0,21,3.0,80.0
828,39.0,0,21,4.0,80.0
829,51.0,0,21,6.0,96.0
830,71.0,24,21,5.0,96.0
831,56.0,0,21,6.0,96.0
832,75.0,24,10,5.0,96.0
833,52.0,0,21,6.0,96.0
834,73.0,12,10,5.0,96.0
835,71.0,12,10,5.0,96.0
836,54.0,0,21,6.0,96.0
837,70.0,12,10,5.0,96.0
838,47.0,0,21,6.0,96.0
839,71.0,24,10,0.0,96.0
840,63.0,0,10,2.0,96.0
841,59.0,0,10,3.0,96.0
842,47.0,0,10,4.0,96.0
843,59.0,0,10,6.0,96.0
844,71.0,12,42,5.0,96.0
845,66.0,0,21,1.0,96.0
846,73.0,12,10,0.0,96.0
847,64.0,0,10,2.0,96.0
848,57.0,0,10,3.0,96.0
849,45.0,0,10,4.0,96.0
850,57.0,0,10,6.0,96.0
851,75.0,12,10,0.0,96.0
852,66.0,0,10,2.0,96.0
853,71.0,0,21,1.0,96.0
854,56.0,0,21,3.0,96.0
855,44.0,0,21,4.0,96.0
856,56.0,0,21,6.0,96.0
857,76.0,12,10,0.0,96.0
858,68.0,0,10,2.0,96.0
859,59.0,0,10,5.0,96.0
860,78.0,12,10,0.0,96.0
861,69.0,0,10,2.0,96.0
862,57.0,0,10,5.0,96.0
863,75.0,0,21,1.0,96.0
864,54.0,0,21,3.0,96.0
865,42.0,0,21,4.0,96.0
866,54.0,0,21,6.0,96.0
867,75.0,12,10,0.0,96.0
868,66.0,0,10,2.0,96.0
869,59.0,0,10,5.0,96.0
870,64.0,0,10,5.0,96.0
871,56.0,0,10,6.0,96.0
872,76.0,12,12,0.0,96.0
873,68.0,0,21,1.0,96.0
874,71.0,0,21,2.0,96.0
875,56.0,0,21,3.0,96.0
876,44.0,0,21,4.0,96.0
877,66.0,0,10,5.0,96.0
878,57.0,0,10,6.0,96.0
879,75.0,12,12,0.0,80.0
880,68.0,0,6,5.0,96.0
881,76.0,12,12,0.0,80.0
882,64.0,0,21,1.0,80.0
883,68.0,0,21,2.0,80.0
884,59.0,0,21,6.0,96.0
885,80.0,12,10,0.0,80.0
886,76.0,12,10,0.0,80.0
887,68.0,0,10,5.0,96.0
888,52.0,0,10,6.0,96.0
889,64.0,0,21,1.0,80.0
890,68.0,0,21,2.0,80.0
891,71.0,12,10,0.0,80.0
892,69.0,0,10,5.0,96.0
893,54.0,0,10,6.0,96.0
894,71.0,0,6,5.0,96.0
895,68.0,12,10,0.0,80.0
896,59.0,0,21,1.0,80.0
897,64.0,0,21,2.0,80.0
898,56.0,0,21,6.0,96.0
899,71.0,12,10,0.0,80.0
900,64.0,12,10,0.0,80.0
901,71.0,0,10,5.0,96.0
902,56.0,0,10,6.0,96.0
903,59.0,0,21,1.0,80.0
904,64.0,0,21,2.0,80.0
905,71.0,12,10,0.0,80.0
906,73.0,0,10,5.0,96.0
907,57.0,0,10,6.0,96.0
908,75.0,0,6,5.0,96.0
909,68.0,12,10,0.0,80.0
910,59.0,0,10,3.0,80.0
911,47.0,0,10,4.0,80.0
912,59.0,0,10,6.0,96.0
913,59.0,0,21,1.0,80.0
914,56.0,0,21,2.0,80.0
915,71.0,12,10,0.0,80.0
916,57.0,0,10,3.0,80.0
917,45.0,0,10,4.0,80.0
918,57.0,0,10,6.0,96.0
919,64.0,12,10,0.0,80.0
920,56.0,0,10,3.0,80.0
921,44.0,0,10,4.0,80.0
922,56.0,0,10,6.0,96.0
923,59.0,0,21,1.0,80.0
924,56.0,0,21,2.0,80.0
925,76.0,0,21,5.0,96.0
926,71.0,12,10,0.0,80.0
927,54.0,0,10,3.0,80.0
928,42.0,0,10,4.0,80.0
929,54.0,0,10,6.0,96.0
930,68.0,12,10,0.0,80.0
931,52.0,0,10,3.0,80.0
932,40.0,0,10,4.0,80.0
933,76.0,0,10,5.0,96.0
934,52.0,0,10,6.0,96.0
935,71.0,12,10,0.0,80.0
936,51.0,0,10,3.0,80.0
937,39.0,0,10,4.0,80.0
938,78.0,0,10,5.0,96.0
939,51.0,0,10,6.0,96.0
940,80.0,0,5,5.0,96.0
941,76.0,12,10,0.0,80.0
942,81.0,6,5,5.0,96.0
943,80.0,0,5,5.0,96.0
944,52.0,0,21,3.0,80.0
945,40.0,0,21,4.0,80.0
946,52.0,0,21,6.0,96.0
947,75.0,6,10,0.0,80.0
948,78.0,6,5,5.0,96.0
949,76.0,6,10,0.0,80.0
950,80.0,0,10,5.0,96.0
951,47.0,0,21,6.0,96.0
952,80.0,12,10,0.0,80.0
953,75.0,0,10,5.0,96.0
954,76.0,12,10,0.0,80.0
955,76.0,0,10,5.0,96.0
956,49.0,0,21,6.0,96.0
957,71.0,12,10,0.0,80.0
958,80.0,0,10,5.0,96.0
959,68.0,12,10,0.0,80.0
960,83.0,0,10,5.0,96.0
961,51.0,0,21,6.0,96.0
962,71.0,12,10,0.0,80.0
963,78.0,0,10,5.0,96.0
964,64.0,12,10,0.0,80.0
965,81.0,0,10,5.0,96.0
966,52.0,0,21,6.0,96.0
967,71.0,12,10,0.0,80.0
968,80.0,0,10,5.0,96.0
969,68.0,12,10,0.0,80.0
970,78.0,0,10,5.0,96.0
971,47.0,0,21,6.0,96.0
972,71.0,12,10,0.0,80.0
973,76.0,0,10,5.0,96.0
974,76.0,12,10,0.0,80.0
975,76.0,0,10,5.0,96.0
976,44.0,0,21,6.0,96.0
977,71.0,12,10,0.0,80.0
978,80.0,0,10,5.0,96.0
979,78.0,12,10,0.0,96.0
980,78.0,0,10,5.0,96.0
981,75.0,0,21,1.0,96.0
982,71.0,0,21,2.0,96.0
983,59.0,0,21,3.0,96.0
984,47.0,0,21,4.0,96.0
985,47.0,0,21,6.0,96.0
986,71.0,12,10,0.0,96.0
987,81.0,0,10,5.0,96.0
988,80.0,0,6,5.0,96.0
989,80.0,12,21,0.0,96.0
990,76.0,0,21,1.0,96.0
991,71.0,0,21,2.0,96.0
992,64.0,0,21,3.0,96.0
993,52.0,0,21,4.0,96.0
994,52.0,0,21,6.0,96.0
995,78.0,0,3,5.0,96.0
996,80.0,12,6,5.0,96.0
997,78.0,24,21,0.0,96.0
998,78.0,0,21,1.0,96.0
999,71.0,0,21,2.0,96.0
1000,63.0,0,21,3.0,96.0
1001,51.0,0,21,4.0,96.0
1002,51.0,0,21,6.0,96.0
1003,78.0,6,6,5.0,96.0
1004,80.0,0,6,5.0,96.0
1005,81.0,6,4,5.0,96.0
1006,81.0,6,21,0.0,96.0
1007,76.0,0,21,1.0,96.0
1008,64.0,0,21,2.0,96.0
1009,61.0,0,21,3.0,96.0
1010,49.0,0,21,4.0,96.0
1011,49.0,0,21,6.0,96.0
1012,80.0,0,6,5.0,96.0
1013,80.0,18,21,0.0,96.0
1014,76.0,0,21,1.0,96.0
1015,68.0,0,21,2.0,96.0
1016,59.0,0,21,3.0,96.0
1017,47.0,0,21,4.0,96.0
1018,47.0,0,21,6.0,96.0
1019,78.0,0,6,5.0,96.0
1020,80.0,6,6,5.0,96.0
1021,78.0,24,21,0.0,96.0
1022,75.0,0,21,1.0,96.0
1023,71.0,0,21,2.0,96.0
1024,57.0,0,21,3.0,96.0
1025,45.0,0,21,4.0,96.0
1026,45.0,0,21,6.0,96.0
1027,78.0,6,10,5.0,96.0
1028,76.0,12,21,0.0,96.0
1029,76.0,0,21,1.0,96.0
1030,59.0,0,21,2.0,96.0
1031,56.0,0,21,3.0,96.0
1032,44.0,0,21,4.0,96.0
1033,76.0,0,21,5.0,96.0
1034,44.0,0,21,6.0,96.0
1035,76.0,24,10,1.0,96.0
1036,71.0,0,21,2.0,96.0
1037,56.0,0,21,3.0,96.0
1038,44.0,0,21,4.0,96.0
1039,56.0,0,21,6.0,96.0
1040,75.0,12,10,1.0,96.0
1041,83.0,24,52,0.0,96.0
1042,83.0,0,52,5.0,96.0
1043,76.0,12,21,1.0,96.0
1044,68.0,0,21,2.0,96.0
1045,61.0,0,21,3.0,96.0
1046,49.0,0,21,4.0,96.0
1047,61.0,0,21,6.0,96.0
1048,76.0,12,10,0.0,96.0
1049,76.0,0,10,5.0,96.0
1050,75.0,12,10,0.0,96.0
1051,75.0,0,10,5.0,96.0
1052,80.0,0,21,1.0,96.0
1053,71.0,0,21,2.0,96.0
1054,59.0,0,21,3.0,96.0
1055,47.0,0,21,4.0,96.0
1056,59.0,0,21,6.0,96.0
1057,76.0,12,10,0.0,96.0
1058,76.0,0,10,5.0,96.0
1059,78.0,0,10,5.0,96.0
1060,78.0,12,21,0.0,96.0
1061,75.0,0,21,1.0,96.0
1062,71.0,0,21,2.0,96.0
1063,57.0,0,21,3.0,96.0
1064,45.0,0,21,4.0,96.0
1065,57.0,0,21,6.0,96.0
1066,80.0,12,10,5.0,96.0
1067,81.0,0,6,5.0,96.0
1068,80.0,6,5,5.0,96.0
1069,78.0,6,5,5.0,96.0
1070,76.0,12,21,0.0,96.0
1071,76.0,0,21,1.0,96.0
1072,59.0,0,21,2.0,96.0
1073,56.0,0,21,3.0,96.0
1074,44.0,0,21,4.0,96.0
1075,56.0,0,21,6.0,96.0
1076,80.0,6,5,5.0,96.0
1077,75.0,6,10,0.0,96.0
1078,69.0,0,21,1.0,96.0
1079,66.0,0,21,2.0,96.0
1080,54.0,0,21,3.0,96.0
1081,42.0,0,21,4.0,96.0
1082,54.0,0,21,6.0,96.0
1083,76.0,12,10,0.0,96.0
1084,78.0,12,10,0.0,96.0
1085,73.0,0,21,1.0,96.0
1086,69.0,0,21,2.0,96.0
1087,52.0,0,21,3.0,96.0
1088,40.0,0,21,4.0,96.0
1089,52.0,0,21,6.0,96.0
1090,75.0,12,10,0.0,96.0
1091,81.0,0,52,5.0,96.0
1092,71.0,12,10,0.0,96.0
1093,66.0,0,21,1.0,96.0
1094,71.0,0,21,2.0,96.0
1095,51.0,0,21,3.0,96.0
1096,39.0,0,21,4.0,96.0
1097,51.0,0,21,6.0,96.0
1098,81.0,12,10,0.0,96.0
1099,75.0,0,10,5.0,96.0
1100,80.0,12,10,0.0,96.0
1101,76.0,0,10,5.0,96.0
1102,71.0,0,21,1.0,96.0
1103,63.0,0,21,2.0,96.0
1104,47.0,0,21,3.0,96.0
1105,35.0,0,21,4.0,96.0
1106,47.0,0,21,6.0,96.0
1107,78.0,12,10,0.0,96.0
1108,78.0,0,10,5.0,96.0
1109,71.0,0,10,5.0,96.0
1110,80.0,12,21,0.0,96.0
1111,71.0,0,21,1.0,96.0
1112,64.0,0,21,2.0,96.0
1113,52.0,0,21,3.0,96.0
1114,40.0,0,21,4.0,96.0
1115,52.0,0,21,6.0,96.0
1116,80.0,12,12,5.0,96.0
1117,78.0,12,12,5.0,96.0
1118,59.0,0,21,6.0,96.0
1119,76.0,12,10,5.0,96.0
1120,71.0,0,10,5.0,96.0
1121,78.0,12,21,0.0,96.0
1122,71.0,0,21,1.0,96.0
1123,66.0,0,21,2.0,96.0
1124,51.0,0,21,3.0,96.0
1125,39.0,0,21,4.0,96.0
1126,51.0,0,21,6.0,96.0
1127,78.0,12,12,5.0,96.0
1128,76.0,12,12,5.0,96.0
1129,59.0,0,21,6.0,96.0
1130,75.0,12,10,5.0,96.0
1131,76.0,0,10,5.0,96.0
1132,76.0,12,21,0.0,96.0
1133,73.0,0,21,1.0,96.0
1134,68.0,0,21,2.0,96.0
1135,49.0,0,21,3.0,96.0
1136,37.0,0,21,4.0,96.0
1137,49.0,0,21,6.0,96.0
1138,69.0,12,12,5.0,96.0
1139,68.0,12,12,5.0,96.0
1140,52.0,0,21,6.0,96.0
1141,66.0,12,10,5.0,96.0
1142,64.0,0,10,5.0,96.0
1143,74.0,12,21,0.0,96.0
1144,71.0,0,21,1.0,96.0
1145,64.0,0,21,2.0,96.0
1146,44.0,0,21,3.0,96.0
1147,32.0,0,21,4.0,96.0
1148,44.0,0,21,6.0,96.0
1149,74.0,12,12,5.0,96.0
1150,73.0,12,12,5.0,96.0
1151,52.0,0,21,6.0,96.0
1152,71.0,12,10,5.0,96.0
1153,73.0,0,12,5.0,96.0
1154,73.0,12,21,0.0,96.0
1155,69.0,0,21,1.0,96.0
1156,64.0,0,21,2.0,96.0
1157,45.0,0,21,3.0,96.0
1158,33.0,0,21,4.0,96.0
1159,45.0,0,21,6.0,96.0
1160,71.0,12,12,5.0,96.0
1161,69.0,12,12,5.0,96.0
1162,52.0,0,21,6.0,96.0
1163,68.0,12,10,5.0,96.0
1164,66.0,0,10,5.0,96.0
1165,75.0,12,21,0.0,96.0
1166,69.0,0,21,1.0,96.0
1167,59.0,0,21,2.0,96.0
1168,47.0,0,21,3.0,96.0
1169,35.0,0,21,4.0,96.0
1170,47.0,0,21,6.0,96.0
1171,73.0,12,10,5.0,96.0
1172,71.0,12,10,5.0,96.0
1173,51.0,0,21,6.0,96.0
1174,69.0,12,10,5.0,96.0
1175,68.0,0,10,5.0,96.0
1176,76.0,12,21,0.0,96.0
1177,68.0,0,21,1.0,96.0
1178,59.0,0,21,2.0,96.0
1179,40.0,0,21,3.0,96.0
1180,28.0,0,21,4.0,96.0
1181,40.0,0,21,6.0,96.0
1182,69.0,12,10,5.0,96.0
1183,71.0,12,10,5.0,96.0
1184,68.0,12,10,5.0,96.0
1185,52.0,0,31,6.0,96.0
1186,64.0,12,21,5.0,96.0
1187,54.0,12,10,6.0,96.0
1188,76.0,12,6,5.0,96.0
1189,56.0,0,10,6.0,96.0
1190,52.0,12,10,6.0,96.0
1191,76.0,12,10,5.0,96.0
1192,49.0,0,10,6.0,96.0
1193,75.0,12,10,5.0,96.0
1194,54.0,0,10,6.0,96.0
1195,73.0,12,6,5.0,96.0
1196,52.0,0,10,6.0,96.0
1197,51.0,12,10,6.0,96.0
1198,73.0,12,10,5.0,96.0
1199,52.0,0,10,6.0,96.0
1200,71.0,12,10,5.0,96.0
1201,63.0,0,10,6.0,96.0
1202,70.0,12,6,5.0,96.0
1203,61.0,0,10,6.0,96.0
1204,59.0,12,10,6.0,96.0
1205,70.0,12,10,5.0,96.0
1206,61.0,0,21,6.0,96.0
1207,73.0,12,10,5.0,96.0
1208,78.0,0,6,5.0,96.0
1209,73.0,12,21,0.0,80.0
1210,70.0,0,21,1.0,80.0
1211,66.0,0,21,2.0,80.0
1212,52.0,0,21,3.0,80.0
1213,40.0,0,21,4.0,80.0
1214,52.0,0,21,6.0,96.0
1215,78.0,0,6,5.0,96.0
1216,76.0,6,6,5.0,96.0
1217,73.0,24,21,0.0,80.0
1218,70.0,0,21,1.0,80.0
1219,66.0,0,21,2.0,80.0
1220,52.0,0,21,3.0,80.0
1221,40.0,0,21,4.0,80.0
1222,70.0,12,21,0.0,80.0
1223,66.0,0,21,1.0,80.0
1224,61.0,0,21,2.0,80.0
1225,52.0,0,21,3.0,80.0
1226,40.0,0,21,4.0,80.0
1227,52.0,0,21,6.0,96.0
1228,78.0,6,42,5.0,96.0
1229,51.0,0,10,6.0,96.0
1230,80.0,12,10,5.0,96.0
1231,47.0,0,10,6.0,96.0
1232,78.0,12,10,5.0,96.0
1233,51.0,0,10,6.0,96.0
1234,76.0,12,5,5.0,96.0
1235,71.0,24,42,0.0,80.0
1236,66.0,0,42,1.0,80.0
1237,63.0,0,42,2.0,80.0
1238,51.0,0,42,3.0,80.0
1239,39.0,0,42,4.0,80.0
1240,54.0,0,10,6.0,96.0
1241,75.0,6,5,5.0,96.0
1242,75.0,6,10,5.0,96.0
1243,59.0,0,10,6.0,96.0
1244,76.0,12,10,5.0,96.0
1245,54.0,0,10,6.0,96.0
1246,75.0,12,10,5.0,96.0
1247,59.0,0,10,6.0,96.0
1248,73.0,12,5,5.0,96.0
1249,61.0,0,10,6.0,96.0
1250,71.0,6,5,5.0,96.0
1251,71.0,6,10,5.0,96.0
1252,63.0,0,21,6.0,96.0
1253,75.0,12,10,5.0,96.0
1254,80.0,0,6,5.0,96.0
1255,75.0,12,21,0.0,80.0
1256,71.0,0,21,1.0,80.0
1257,68.0,0,21,2.0,80.0
1258,54.0,0,21,3.0,80.0
1259,42.0,0,21,4.0,80.0
1260,54.0,0,21,6.0,96.0
1261,75.0,24,21,0.0,80.0
1262,71.0,0,21,1.0,80.0
1263,68.0,0,21,2.0,80.0
1264,54.0,0,21,3.0,80.0
1265,42.0,0,21,4.0,80.0
1266,71.0,24,21,0.0,80.0
1267,68.0,0,21,1.0,80.0
1268,63.0,0,21,2.0,80.0
1269,54.0,0,21,3.0,80.0
1270,42.0,0,21,4.0,80.0
1271,54.0,0,21,6.0,96.0
1272,80.0,0,47,5.0,96.0
1273,52.0,0,10,6.0,96.0
1274,78.0,6,5,5.0,96.0
1275,76.0,6,5,5.0,96.0
1276,56.0,0,10,6.0,96.0
1277,75.0,6,5,5.0,96.0
1278,76.0,6,10,5.0,96.0
1279,58.0,0,10,6.0,96.0
1280,73.0,24,42,0.0,80.0
1281,68.0,0,42,1.0,80.0
1282,64.0,0,42,2.0,80.0
1283,52.0,0,42,3.0,80.0
1284,40.0,0,42,4.0,80.0
1285,76.0,12,10,5.0,96.0
1286,60.0,0,10,6.0,96.0
1287,76.0,12,5,5.0,96.0
1288,61.0,0,10,6.0,96.0
1289,75.0,6,5,5.0,96.0
1290,73.0,6,5,5.0,96.0
1291,63.0,0,10,6.0,96.0
1292,72.0,6,5,5.0,96.0
1293,73.0,6,10,5.0,96.0
1294,64.0,0,21,6.0,96.0
1295,73.0,12,10,5.0,96.0
1296,73.0,12,10,5.0,96.0
1297,64.0,0,21,6.0,96.0
1298,76.0,12,10,5.0,96.0
1299,76.0,12,21,0.0,80.0
1300,73.0,0,21,1.0,80.0
1301,64.0,0,21,2.0,80.0
1302,49.0,0,21,3.0,80.0
1303,37.0,0,21,4.0,80.0
1304,61.0,0,21,6.0,96.0
1305,82.0,0,31,5.0,96.0
1306,76.0,24,21,0.0,80.0
1307,70.0,0,21,1.0,80.0
1308,61.0,0,21,2.0,80.0
1309,54.0,0,21,3.0,80.0
1310,42.0,0,21,4.0,80.0
1311,66.0,0,21,6.0,96.0
1312,75.0,12,10,5.0,96.0
1313,73.0,12,21,0.0,80.0
1314,70.0,0,21,1.0,80.0
1315,66.0,0,21,2.0,80.0
1316,42.0,0,21,3.0,80.0
1317,30.0,0,21,4.0,80.0
1318,54.0,0,21,6.0,96.0
1319,76.0,0,31,5.0,96.0
1320,75.0,12,5,5.0,96.0
1321,47.0,0,21,3.0,80.0
1322,35.0,0,21,4.0,80.0
1323,73.0,6,5,5.0,96.0
1324,59.0,0,31,6.0,96.0
1325,75.0,6,10,5.0,96.0
1326,75.0,24,42,0.0,80.0
1327,71.0,0,42,1.0,80.0
1328,66.0,0,42,2.0,80.0
1329,78.0,12,10,5.0,96.0
1330,58.0,0,10,6.0,96.0
1331,83.0,12,10,5.0,96.0
1332,56.0,0,10,6.0,96.0
1333,82.0,12,10,5.0,96.0
1334,54.0,0,10,6.0,96.0
1335,53.0,0,10,6.0,96.0
1336,51.0,12,10,6.0,96.0
1337,83.0,12,31,5.0,96.0
1338,53.0,12,21,6.0,96.0
1339,78.0,12,10,5.0,96.0
1340,77.0,12,10,5.0,96.0
1341,56.0,0,21,6.0,96.0
1342,80.0,12,10,5.0,96.0
1343,83.0,12,5,5.0,96.0
1344,82.0,6,5,5.0,96.0
1345,49.0,0,21,6.0,96.0
1346,80.0,6,10,5.0,96.0
1347,82.0,12,10,5.0,96.0
1348,61.0,0,21,6.0,96.0
1349,83.0,12,10,5.0,96.0
1350,82.0,12,10,5.0,96.0
1351,66.0,0,21,6.0,96.0
1352,83.0,12,10,5.0,96.0
1353,85.0,12,10,5.0,96.0
1354,54.0,0,21,6.0,96.0
1355,82.0,12,10,5.0,96.0
1356,76.0,12,10,5.0,96.0
1357,56.0,0,21,6.0,96.0
1358,80.0,12,10,5.0,96.0
1359,78.0,12,10,5.0,96.0
1360,58.0,0,21,6.0,96.0
1361,76.0,12,10,5.0,96.0
1362,76.0,12,12,5.0,96.0
1363,59.0,0,21,6.0,96.0
1364,75.0,12,21,5.0,96.0
1365,52.0,12,21,6.0,96.0
1366,73.0,12,10,5.0,96.0
1367,75.0,12,6,5.0,96.0
1368,73.0,6,6,5.0,96.0
1369,75.0,6,6,5.0,96.0
1370,54.0,0,21,6.0,96.0
1371,73.0,6,6,5.0,96.0
1372,75.0,0,6,5.0,96.0
1373,73.0,6,5,5.0,96.0
1374,66.0,6,21,0.0,80.0
1375,42.0,0,21,6.0,96.0
1376,71.0,6,10,5.0,96.0
1377,71.0,12,10,0.0,80.0
1378,71.0,0,12,5.0,96.0
1379,70.0,12,10,0.0,80.0
1380,73.0,0,12,5.0,96.0
1381,71.0,12,10,0.0,80.0
1382,75.0,0,10,5.0,96.0
1383,44.0,0,42,6.0,96.0
1384,71.0,0,21,1.0,80.0
1385,75.0,12,10,0.0,80.0
1386,75.0,0,10,5.0,96.0
1387,71.0,12,10,0.0,80.0
1388,75.0,0,12,5.0,96.0
1389,71.0,0,21,1.0,80.0
1390,66.0,12,10,0.0,80.0
1391,76.0,0,12,5.0,96.0
1392,63.0,12,10,0.0,80.0
1393,78.0,0,10,5.0,96.0
1394,66.0,0,21,1.0,80.0
1395,71.0,0,21,2.0,80.0
1396,51.0,0,21,6.0,96.0
1397,66.0,12,10,0.0,80.0
1398,78.0,0,10,5.0,96.0
1399,59.0,12,10,0.0,80.0
1400,78.0,0,12,5.0,96.0
1401,80.0,0,6,5.0,96.0
1402,66.0,0,21,1.0,80.0
1403,71.0,0,21,2.0,80.0
1404,66.0,12,10,0.0,80.0
1405,82.0,6,6,5.0,96.0
1406,63.0,6,10,0.0,80.0
1407,80.0,0,12,5.0,96.0
1408,39.0,0,42,6.0,96.0
1409,71.0,0,21,1.0,80.0
1410,66.0,0,21,2.0,80.0
1411,66.0,12,10,0.0,80.0
1412,78.0,0,10,5.0,96.0
1413,83.0,0,5,5.0,96.0
1414,59.0,12,10,0.0,80.0
1415,78.0,6,5,5.0,96.0
1416,80.0,0,5,5.0,96.0
1417,71.0,0,21,1.0,80.0
1418,66.0,0,21,2.0,80.0
1419,66.0,6,10,0.0,80.0
1420,63.0,0,10,6.0,96.0
1421,81.0,6,5,5.0,96.0
1422,63.0,6,10,0.0,80.0
1423,80.0,0,10,5.0,96.0
1424,59.0,0,10,6.0,96.0
1425,59.0,0,21,1.0,80.0
1426,71.0,0,21,2.0,80.0
1427,66.0,12,10,0.0,80.0
1428,78.0,0,10,5.0,96.0
1429,63.0,0,10,6.0,96.0
1430,71.0,12,10,0.0,80.0
1431,78.0,0,12,5.0,96.0
1432,59.0,0,21,1.0,80.0
1433,64.0,0,21,2.0,80.0
1434,64.0,0,21,6.0,96.0
1435,70.0,12,10,0.0,80.0
1436,80.0,0,21,5.0,96.0
1437,71.0,12,10,0.0,80.0
1438,52.0,0,10,6.0,96.0
1439,75.0,12,10,0.0,80.0
1440,78.0,0,10,5.0,96.0
1441,54.0,0,10,6.0,96.0
1442,71.0,12,10,0.0,80.0
1443,76.0,0,10,5.0,96.0
1444,66.0,12,10,0.0,80.0
1445,75.0,0,10,5.0,96.0
1446,63.0,12,10,0.0,80.0
1447,73.0,0,10,5.0,96.0
1448,66.0,12,10,0.0,80.0
1449,71.0,0,10,5.0,96.0
1450,56.0,0,52,6.0,96.0
1451,76.0,0,5,5.0,96.0
1452,78.0,6,5,5.0,96.0
1453,76.0,6,5,5.0,96.0
1454,59.0,12,21,0.0,80.0
1455,54.0,0,10,6.0,96.0
1456,75.0,6,5,5.0,96.0
1457,76.0,6,10,5.0,96.0
1458,56.0,0,10,6.0,96.0
1459,73.0,12,10,5.0,96.0
1460,52.0,0,10,6.0,96.0
1461,71.0,12,21,5.0,96.0
1462,54.0,0,21,6.0,96.0
1463,70.0,0,16,5.0,96.0
1464,73.0,24,21,0.0,96.0
1465,70.0,0,21,1.0,96.0
1466,66.0,0,21,2.0,96.0
1467,54.0,0,21,3.0,96.0
1468,42.0,0,21,4.0,96.0
1469,42.0,0,21,6.0,96.0
1470,71.0,18,5,5.0,96.0
1471,71.0,0,10,5.0,96.0
1472,75.0,6,21,0.0,96.0
1473,71.0,0,21,1.0,96.0
1474,66.0,0,21,2.0,96.0
1475,59.0,0,21,3.0,96.0
1476,47.0,0,21,4.0,96.0
1477,47.0,0,21,6.0,96.0
1478,75.0,12,10,5.0,96.0
1479,73.0,0,12,5.0,96.0
1480,75.0,12,6,5.0,96.0
1481,73.0,12,21,0.0,96.0
1482,73.0,0,21,1.0,96.0
1483,66.0,0,21,2.0,96.0
1484,58.0,0,21,3.0,96.0
1485,46.0,0,21,4.0,96.0
1486,46.0,0,21,6.0,96.0
1487,73.0,6,6,5.0,96.0
1488,75.0,0,6,5.0,96.0
1489,76.0,6,21,0.0,96.0
1490,71.0,0,21,1.0,96.0
1491,59.0,0,21,2.0,96.0
1492,56.0,0,21,3.0,96.0
1493,44.0,0,21,4.0,96.0
1494,44.0,0,21,6.0,96.0
1495,76.0,6,16,5.0,96.0
1496,75.0,18,21,0.0,96.0
1497,71.0,0,21,1.0,96.0
1498,63.0,0,21,2.0,96.0
1499,54.0,0,21,3.0,96.0
1500,42.0,0,21,4.0,96.0
1501,75.0,0,21,5.0,96.0
1502,42.0,0,21,6.0,96.0
1503,73.0,24,21,0.0,96.0
1504,70.0,0,21,1.0,96.0
1505,66.0,0,21,2.0,96.0
1506,52.0,0,21,3.0,96.0
1507,40.0,0,21,4.0,96.0
1508,73.0,0,21,5.0,96.0
1509,40.0,0,21,6.0,96.0
1510,71.0,24,21,0.0,96.0
1511,71.0,0,21,1.0,96.0
1512,54.0,0,21,2.0,96.0
1513,51.0,0,21,3.0,96.0
1514,39.0,0,21,4.0,96.0
1515,71.0,0,21,5.0,96.0
1516,39.0,0,21,6.0,96.0
1517,71.0,24,10,1.0,96.0
1518,66.0,0,21,2.0,96.0
1519,51.0,0,21,3.0,96.0
1520,39.0,0,21,4.0,96.0
1521,51.0,0,21,6.0,96.0
1522,70.0,12,10,1.0,96.0
1523,78.0,24,52,0.0,96.0
1524,78.0,0,52,5.0,96.0
1525,71.0,12,21,1.0,96.0
1526,63.0,0,21,2.0,96.0
1527,56.0,0,21,3.0,96.0
1528,44.0,0,21,4.0,96.0
1529,56.0,0,21,6.0,96.0
1530,71.0,12,10,0.0,96.0
1531,71.0,0,10,5.0,96.0
1532,70.0,12,10,0.0,96.0
1533,70.0,0,10,5.0,96.0
1534,75.0,0,21,1.0,96.0
1535,66.0,0,21,2.0,96.0
1536,54.0,0,21,3.0,96.0
1537,42.0,0,21,4.0,96.0
1538,54.0,0,21,6.0,96.0
1539,71.0,12,10,0.0,96.0
1540,71.0,0,10,5.0,96.0
1541,73.0,12,21,0.0,96.0
1542,70.0,0,21,1.0,96.0
1543,66.0,0,21,2.0,96.0
1544,52.0,0,21,3.0,96.0
1545,40.0,0,21,4.0,96.0
1546,73.0,0,21,5.0,96.0
1547,52.0,0,21,6.0,96.0
1548,71.0,24,21,0.0,96.0
1549,71.0,0,21,1.0,96.0
1550,54.0,0,21,2.0,96.0
1551,51.0,0,21,3.0,96.0
1552,39.0,0,21,4.0,96.0
1553,71.0,0,21,5.0,96.0
1554,51.0,0,21,6.0,96.0
1555,70.0,24,10,0.0,96.0
1556,70.0,0,10,5.0,96.0
1557,64.0,0,21,1.0,96.0
1558,61.0,0,21,2.0,96.0
1559,49.0,0,21,3.0,96.0
1560,37.0,0,21,4.0,96.0
1561,49.0,0,21,6.0,96.0
1562,71.0,12,10,0.0,96.0
1563,71.0,0,10,5.0,96.0
1564,73.0,12,10,0.0,96.0
1565,73.0,0,10,5.0,96.0
1566,68.0,0,21,1.0,96.0
1567,64.0,0,21,2.0,96.0
1568,47.0,0,21,3.0,96.0
1569,35.0,0,21,4.0,96.0
1570,47.0,0,21,6.0,96.0
1571,70.0,12,10,0.0,96.0
1572,70.0,0,10,5.0,96.0
1573,66.0,12,10,0.0,96.0
1574,66.0,0,10,5.0,96.0
1575,61.0,0,21,1.0,96.0
1576,66.0,0,21,2.0,96.0
1577,46.0,0,21,3.0,96.0
1578,34.0,0,21,4.0,96.0
1579,46.0,0,21,6.0,96.0
1580,76.0,12,12,0.0,96.0
1581,76.0,0,12,5.0,96.0
1582,75.0,12,12,0.0,96.0
1583,75.0,0,12,5.0,96.0
1584,70.0,0,21,1.0,96.0
1585,66.0,0,21,2.0,96.0
1586,42.0,0,21,3.0,96.0
1587,30.0,0,21,4.0,96.0
1588,42.0,0,21,6.0,96.0
1589,73.0,12,10,0.0,96.0
1590,73.0,0,10,5.0,96.0
1591,66.0,12,10,0.0,96.0
1592,66.0,0,10,5.0,96.0
1593,71.0,0,21,1.0,96.0
1594,66.0,0,21,2.0,96.0
1595,47.0,0,21,3.0,96.0
1596,35.0,0,21,4.0,96.0
1597,47.0,0,21,6.0,96.0
1598,75.0,12,12,0.0,96.0
1599,75.0,0,12,5.0,96.0
1600,73.0,12,12,0.0,96.0
1601,73.0,0,12,5.0,96.0
1602,71.0,12,10,0.0,96.0
1603,71.0,0,10,5.0,96.0
1604,66.0,12,10,0.0,96.0
1605,66.0,0,10,5.0,96.0
1606,61.0,0,21,1.0,96.0
1607,66.0,0,21,2.0,96.0
1608,46.0,0,21,3.0,96.0
1609,34.0,0,21,4.0,96.0
1610,46.0,0,21,6.0,96.0
1611,73.0,12,12,0.0,96.0
1612,73.0,0,12,5.0,96.0
1613,71.0,12,12,0.0,96.0
1614,71.0,0,12,5.0,96.0
1615,70.0,12,10,0.0,96.0
1616,70.0,0,10,5.0,96.0
1617,71.0,12,10,0.0,96.0
1618,71.0,0,10,5.0,96.0
1619,63.0,0,21,1.0,96.0
1620,68.0,0,21,2.0,96.0
1621,44.0,0,21,3.0,96.0
1622,32.0,0,21,4.0,96.0
1623,44.0,0,21,6.0,96.0
1624,64.0,12,12,0.0,96.0
1625,64.0,0,12,5.0,96.0
1626,63.0,12,12,0.0,96.0
1627,63.0,0,12,5.0,96.0
1628,61.0,12,10,0.0,96.0
1629,61.0,0,10,5.0,96.0
1630,59.0,12,10,0.0,96.0
1631,59.0,0,10,5.0,96.0
1632,66.0,0,21,1.0,96.0
1633,59.0,0,21,2.0,96.0
1634,39.0,0,21,3.0,96.0
1635,27.0,0,21,4.0,96.0
1636,39.0,0,21,6.0,96.0
1637,69.0,12,12,0.0,96.0
1638,69.0,0,12,5.0,96.0
1639,68.0,12,12,0.0,96.0
1640,68.0,0,12,5.0,96.0
1641,63.0,0,21,1.0,96.0
1642,47.0,0,21,3.0,96.0
1643,35.0,0,21,4.0,96.0
1644,47.0,0,21,6.0,96.0
1645,66.0,12,10,0.0,96.0
1646,66.0,0,10,5.0,96.0
1647,59.0,0,31,2.0,96.0
1648,68.0,12,10,0.0,96.0
1649,68.0,0,10,5.0,96.0
1650,64.0,0,21,1.0,96.0
1651,40.0,0,21,3.0,96.0
1652,28.0,0,21,4.0,96.0
1653,40.0,0,21,6.0,96.0
1654,66.0,12,10,0.0,96.0
1655,57.0,0,10,2.0,96.0
1656,66.0,0,10,5.0,96.0
1657,64.0,12,10,0.0,96.0
1658,56.0,0,10,2.0,96.0
1659,64.0,0,10,5.0,96.0
1660,59.0,0,21,1.0,96.0
1661,44.0,0,21,3.0,96.0
1662,32.0,0,21,4.0,96.0
1663,44.0,0,21,6.0,96.0
1664,63.0,12,10,0.0,96.0
1665,54.0,0,10,2.0,96.0
1666,63.0,0,10,5.0,96.0
1667,61.0,12,10,0.0,96.0
1668,68.0,0,10,1.0,96.0
1669,61.0,0,10,5.0,96.0
1670,52.0,0,21,2.0,96.0
1671,49.0,0,21,3.0,96.0
1672,37.0,0,21,4.0,96.0
1673,49.0,0,21,6.0,96.0
1674,75.0,12,10,0.0,96.0
1675,66.0,0,10,1.0,96.0
1676,75.0,0,10,5.0,96.0
1677,73.0,12,10,0.0,96.0
1678,64.0,0,10,1.0,96.0
1679,73.0,0,10,5.0,96.0
1680,52.0,0,21,3.0,96.0
1681,40.0,0,21,4.0,96.0
1682,52.0,0,21,6.0,96.0
1683,71.0,12,10,0.0,96.0
1684,63.0,0,10,1.0,96.0
1685,71.0,0,10,5.0,96.0
1686,61.0,0,31,2.0,96.0
1687,70.0,12,10,0.0,96.0
1688,70.0,0,10,5.0,96.0
1689,61.0,0,21,1.0,96.0
1690,42.0,0,21,3.0,96.0
1691,30.0,0,21,4.0,96.0
1692,42.0,0,21,6.0,96.0
1693,68.0,12,10,0.0,96.0
1694,59.0,0,10,2.0,96.0
1695,68.0,0,10,5.0,96.0
1696,66.0,12,10,0.0,96.0
1697,58.0,0,10,2.0,96.0
1698,66.0,0,10,5.0,96.0
1699,46.0,0,21,3.0,96.0
1700,34.0,0,21,4.0,96.0
1701,46.0,0,21,6.0,96.0
1702,64.0,12,10,0.0,96.0
1703,56.0,0,10,2.0,96.0
1704,64.0,0,10,5.0,96.0
1705,70.0,0,31,1.0,96.0
1706,63.0,12,10,0.0,96.0
1707,63.0,0,10,5.0,96.0
1708,54.0,0,21,2.0,96.0
1709,51.0,0,21,3.0,96.0
1710,39.0,0,21,4.0,96.0
1711,51.0,0,21,6.0,96.0
1712,76.0,12,10,0.0,96.0
1713,68.0,0,10,1.0,96.0
1714,76.0,0,10,5.0,96.0
1715,75.0,12,10,0.0,96.0
1716,66.0,0,10,1.0,96.0
1717,75.0,0,10,5.0,96.0
1718,54.0,0,21,3.0,96.0
1719,42.0,0,21,4.0,96.0
1720,54.0,0,21,6.0,96.0
1721,73.0,12,10,0.0,96.0
1722,64.0,0,10,1.0,96.0
1723,73.0,0,10,5.0,96.0
1724,63.0,0,31,2.0,96.0
1725,71.0,12,10,0.0,96.0
1726,71.0,0,10,5.0,96.0
1727,63.0,0,21,1.0,96.0
1728,44.0,0,21,3.0,96.0
1729,32.0,0,21,4.0,96.0
1730,44.0,0,21,6.0,96.0
1731,70.0,12,10,0.0,96.0
1732,61.0,0,10,2.0,96.0
1733,70.0,0,10,5.0,96.0
1734,68.0,12,10,0.0,96.0
1735,59.0,0,10,2.0,96.0
1736,68.0,0,10,5.0,96.0
1737,47.0,0,21,3.0,96.0
1738,35.0,0,21,4.0,96.0
1739,47.0,0,21,6.0,96.0
1740,66.0,12,10,0.0,96.0
1741,58.0,0,10,2.0,96.0
1742,66.0,0,10,5.0,96.0
1743,71.0,0,31,1.0,96.0
1744,64.0,12,10,0.0,96.0
1745,64.0,0,10,5.0,96.0
1746,56.0,0,21,2.0,96.0
1747,52.0,0,21,3.0,96.0
1748,40.0,0,21,4.0,96.0
1749,52.0,0,21,6.0,96.0
1750,78.0,12,10,0.0,96.0
1751,70.0,0,10,1.0,96.0
1752,78.0,0,10,5.0,96.0
1753,76.0,12,10,0.0,96.0
1754,68.0,0,10,1.0,96.0
1755,76.0,0,10,5.0,96.0
1756,56.0,0,21,3.0,96.0
1757,44.0,0,21,4.0,96.0
1758,56.0,0,21,6.0,96.0
1759,75.0,12,10,0.0,96.0
1760,66.0,0,10,1.0,96.0
1761,75.0,0,10,5.0,96.0
1762,64.0,0,31,2.0,96.0
1763,73.0,12,10,0.0,96.0
1764,64.0,0,10,1.0,96.0
1765,73.0,0,10,5.0,96.0
1766,46.0,0,21,3.0,96.0
1767,34.0,0,21,4.0,96.0
1768,46.0,0,21,6.0,96.0
1769,71.0,12,10,0.0,96.0
1770,75.0,0,10,1.0,96.0
1771,66.0,0,10,2.0,96.0
1772,71.0,0,10,5.0,96.0
1773,70.0,12,10,0.0,96.0
1774,73.0,0,10,1.0,96.0
1775,64.0,0,10,2.0,96.0
1776,70.0,0,10,5.0,96.0
1777,49.0,0,21,3.0,96.0
1778,37.0,0,21,4.0,96.0
1779,49.0,0,21,6.0,96.0
1780,68.0,12,10,0.0,96.0
1781,71.0,0,10,1.0,96.0
1782,63.0,0,10,2.0,96.0
1783,68.0,0,10,5.0,96.0
1784,66.0,12,10,0.0,96.0
1785,70.0,0,10,1.0,96.0
1786,66.0,0,10,5.0,96.0
1787,61.0,0,21,2.0,96.0
1788,54.0,0,21,3.0,96.0
1789,42.0,0,21,4.0,96.0
1790,54.0,0,21,6.0,96.0
1791,80.0,12,10,0.0,96.0
1792,76.0,0,10,1.0,96.0
1793,80.0,0,10,5.0,96.0
1794,78.0,12,10,0.0,96.0
1795,75.0,0,10,1.0,96.0
1796,78.0,0,10,5.0,96.0
1797,66.0,0,21,2.0,96.0
1798,58.0,0,21,3.0,96.0
1799,46.0,0,21,4.0,96.0
1800,58.0,0,21,6.0,96.0
1801,76.0,12,10,0.0,96.0
1802,73.0,0,10,1.0,96.0
1803,76.0,0,10,5.0,96.0
1804,76.0,0,12,5.0,96.0
1805,71.0,0,21,1.0,96.0
1806,66.0,0,21,2.0,96.0
1807,59.0,0,21,3.0,96.0
1808,47.0,0,21,4.0,96.0
1809,59.0,0,21,6.0,96.0
1810,75.0,12,31,0.0,96.0
1811,75.0,12,21,5.0,96.0
1812,68.0,0,21,2.0,96.0
1813,52.0,0,21,3.0,96.0
1814,40.0,0,21,4.0,96.0
1815,52.0,0,21,6.0,96.0
1816,73.0,12,10,0.0,96.0
1817,73.0,0,10,5.0,96.0
1818,75.0,0,6,5.0,96.0
1819,73.0,6,6,5.0,96.0
1820,71.0,12,42,1.0,96.0
1821,75.0,6,6,5.0,96.0
1822,66.0,0,21,2.0,96.0
1823,54.0,0,21,3.0,96.0
1824,42.0,0,21,4.0,96.0
1825,54.0,0,21,6.0,96.0
1826,73.0,6,6,5.0,96.0
1827,75.0,0,6,5.0,96.0
1828,73.0,12,31,0.0,96.0
1829,73.0,6,5,5.0,96.0
1830,70.0,6,21,1.0,96.0
1831,64.0,0,21,2.0,96.0
1832,42.0,0,21,3.0,96.0
1833,30.0,0,21,4.0,96.0
1834,42.0,0,21,6.0,96.0
1835,71.0,6,10,0.0,96.0
1836,71.0,0,10,5.0,96.0
1837,71.0,12,21,0.0,96.0
1838,71.0,0,21,1.0,96.0
1839,63.0,0,21,2.0,96.0
1840,47.0,0,42,3.0,96.0
1841,35.0,0,42,4.0,96.0
1842,71.0,0,42,5.0,96.0
1843,47.0,0,42,6.0,96.0
1844,73.0,24,21,0.0,96.0
1845,68.0,0,21,1.0,96.0
1846,64.0,0,21,2.0,96.0
1847,71.0,24,21,0.0,96.0
1848,66.0,0,21,1.0,96.0
1849,63.0,0,21,2.0,96.0
1850,70.0,24,21,0.0,96.0
1851,64.0,0,21,1.0,96.0
1852,61.0,0,21,2.0,96.0
1853,66.0,0,21,5.0,96.0
1854,66.0,0,10,5.0,96.0
1855,68.0,12,10,5.0,96.0
1856,69.0,12,6,5.0,96.0
1857,71.0,24,42,0.0,96.0
1858,63.0,0,42,1.0,96.0
1859,59.0,0,42,2.0,96.0
1860,49.0,0,21,6.0,96.0
1861,71.0,24,12,5.0,96.0
1862,51.0,0,21,6.0,96.0
1863,69.0,12,12,5.0,96.0
1864,68.0,12,12,5.0,96.0
1865,52.0,0,21,6.0,96.0
1866,66.0,12,10,5.0,96.0
1867,75.0,0,10,5.0,96.0
1868,54.0,0,10,6.0,96.0
1869,73.0,12,10,5.0,96.0
1870,56.0,0,10,6.0,96.0
1871,54.0,0,10,6.0,96.0
1872,75.0,12,21,5.0,96.0
1873,52.0,12,10,6.0,96.0
1874,66.0,12,10,5.0,96.0
1875,51.0,0,10,6.0,96.0
1876,69.0,12,10,5.0,96.0
1877,49.0,0,10,6.0,96.0
1878,68.0,12,10,5.0,96.0
1879,48.0,0,10,6.0,96.0
1880,66.0,12,10,5.0,96.0
1881,51.0,0,10,6.0,96.0
1882,75.0,12,10,5.0,96.0
1883,44.0,0,21,6.0,96.0
1884,72.0,12,10,5.0,96.0
1885,73.0,12,10,5.0,96.0
1886,46.0,0,21,6.0,96.0
1887,75.0,12,10,5.0,96.0
1888,68.0,12,10,5.0,96.0
1889,75.0,12,156,0.0,80.0
1890,66.0,0,156,1.0,80.0
1891,60.0,0,156,2.0,80.0
1892,48.0,0,21,6.0,96.0
1893,78.0,12,10,5.0,96.0
1894,73.0,12,10,0.0,80.0
1895,76.0,0,10,5.0,96.0
1896,68.0,0,21,1.0,80.0
1897,66.0,0,21,2.0,80.0
1898,44.0,0,21,6.0,96.0
1899,72.0,12,10,0.0,80.0
1900,75.0,0,10,5.0,96.0
1901,78.0,0,10,5.0,96.0
1902,49.0,0,21,6.0,96.0
1903,76.0,12,10,5.0,96.0
1904,75.0,12,10,5.0,96.0
1905,73.0,12,42,0.0,80.0
1906,68.0,0,42,1.0,80.0
1907,64.0,0,42,2.0,80.0
1908,51.0,0,21,6.0,96.0
1909,76.0,12,10,5.0,96.0
1910,52.0,0,10,6.0,96.0
1911,73.0,12,21,5.0,96.0
1912,49.0,12,10,6.0,96.0
1913,51.0,0,10,6.0,96.0
1914,52.0,12,10,6.0,96.0
1915,80.0,12,31,5.0,96.0
1916,54.0,12,21,6.0,96.0
1917,78.0,12,10,5.0,96.0
1918,76.0,12,10,5.0,96.0
1919,56.0,0,21,6.0,96.0
1920,80.0,12,10,5.0,96.0
1921,78.0,12,10,5.0,96.0
1922,57.0,0,21,6.0,96.0
1923,76.0,12,10,5.0,96.0
1924,75.0,12,10,5.0,96.0
1925,54.0,0,21,6.0,96.0
1926,73.0,12,10,5.0,96.0
1927,72.0,12,10,5.0,96.0
1928,56.0,0,21,6.0,96.0
1929,73.0,12,10,5.0,96.0
1930,75.0,0,10,5.0,96.0
1931,78.0,12,21,0.0,80.0
1932,75.0,0,21,1.0,80.0
1933,72.0,0,21,2.0,80.0
1934,44.0,0,21,6.0,96.0
1935,72.0,12,10,5.0,96.0
1936,68.0,0,10,5.0,96.0
1937,78.0,12,21,0.0,80.0
1938,75.0,0,21,1.0,80.0
1939,72.0,0,21,2.0,80.0
1940,72.0,12,10,5.0,96.0
1941,75.0,0,10,5.0,96.0
1942,75.0,12,21,0.0,80.0
1943,72.0,0,21,1.0,80.0
1944,68.0,0,21,2.0,80.0
1945,56.0,0,21,6.0,96.0
1946,78.0,12,10,5.0,96.0
1947,61.0,0,6,6.0,96.0
1948,76.0,0,10,5.0,96.0
1949,59.0,6,6,6.0,96.0
1950,76.0,12,21,0.0,80.0
1951,73.0,0,21,1.0,80.0
1952,68.0,0,21,2.0,80.0
1953,75.0,6,10,5.0,96.0
1954,61.0,0,21,6.0,96.0
1955,73.0,12,10,5.0,96.0
1956,80.0,12,10,5.0,96.0
1957,59.0,0,10,6.0,96.0
1958,57.0,0,4,6.0,96.0
1959,59.0,4,4,6.0,96.0
1960,78.0,12,10,5.0,96.0
1961,57.0,4,3,6.0,96.0
1962,76.0,4,10,5.0,96.0
1963,56.0,0,10,6.0,96.0
1964,75.0,12,10,5.0,96.0
1965,57.0,0,21,6.0,96.0
1966,73.0,12,10,5.0,96.0
1967,81.0,12,6,5.0,96.0
1968,56.0,0,10,6.0,96.0
1969,80.0,6,6,5.0,96.0
1970,81.0,6,6,5.0,96.0
1971,44.0,0,10,6.0,96.0
1972,80.0,6,6,5.0,96.0
1973,81.0,6,6,5.0,96.0
1974,56.0,0,10,6.0,96.0
1975,80.0,6,6,5.0,96.0
1976,81.0,6,6,5.0,96.0
1977,54.0,0,10,6.0,96.0
1978,80.0,6,6,5.0,96.0
1979,81.0,6,6,5.0,96.0
1980,52.0,0,10,6.0,96.0
1981,80.0,6,6,5.0,96.0
1982,81.0,6,6,5.0,96.0
1983,51.0,0,10,6.0,96.0
1984,80.0,6,6,5.0,96.0
1985,81.0,0,6,5.0,96.0
1986,49.0,0,10,6.0,96.0
1987,80.0,6,6,5.0,96.0
1988,81.0,6,6,5.0,96.0
1989,68.0,6,21,0.0,96.0
1990,75.0,0,21,1.0,96.0
1991,63.0,0,21,2.0,96.0
1992,54.0,0,21,3.0,96.0
1993,42.0,0,21,4.0,96.0
1994,48.0,0,10,6.0,96.0
1995,80.0,6,6,5.0,96.0
1996,81.0,0,6,5.0,96.0
1997,73.0,6,10,0.0,96.0
1998,80.0,6,6,5.0,96.0
1999,81.0,0,6,5.0,96.0
2000,76.0,0,21,1.0,96.0
2001,49.0,0,21,6.0,96.0
2002,72.0,6,10,0.0,96.0
2003,80.0,6,6,5.0,96.0
2004,81.0,0,6,5.0,96.0
2005,73.0,6,10,0.0,96.0
2006,80.0,6,6,5.0,96.0
2007,61.0,0,42,2.0,96.0
2008,52.0,0,42,3.0,96.0
2009,40.0,0,42,4.0,96.0
2010,81.0,0,6,5.0,96.0
2011,80.0,0,21,1.0,96.0
2012,52.0,0,21,6.0,96.0
2013,76.0,6,10,0.0,96.0
2014,80.0,6,6,5.0,96.0
2015,81.0,0,6,5.0,96.0
2016,73.0,6,10,0.0,96.0
2017,80.0,6,6,5.0,96.0
2018,81.0,0,6,5.0,96.0
2019,76.0,0,21,1.0,96.0
2020,56.0,0,21,6.0,96.0
2021,68.0,6,10,0.0,96.0
2022,80.0,6,6,5.0,96.0
2023,81.0,0,6,5.0,96.0
2024,64.0,6,10,0.0,96.0
2025,80.0,6,6,5.0,96.0
2026,81.0,0,6,5.0,96.0
2027,73.0,0,21,1.0,96.0
2028,68.0,0,21,2.0,96.0
2029,56.0,0,21,3.0,96.0
2030,44.0,0,21,4.0,96.0
2031,61.0,0,21,6.0,96.0
2032,68.0,6,10,0.0,96.0
2033,80.0,6,6,5.0,96.0
2034,81.0,0,6,5.0,96.0
2035,61.0,6,10,0.0,96.0
2036,80.0,6,6,5.0,96.0
2037,81.0,0,6,5.0,96.0
2038,64.0,0,21,2.0,96.0
2039,52.0,0,21,6.0,96.0
2040,68.0,6,10,0.0,96.0
2041,80.0,6,6,5.0,96.0
2042,81.0,0,6,5.0,96.0
2043,64.0,6,10,0.0,96.0
2044,80.0,6,6,5.0,96.0
2045,61.0,0,42,3.0,96.0
2046,49.0,0,42,4.0,96.0
2047,81.0,0,6,5.0,96.0
2048,68.0,0,21,1.0,96.0
2049,61.0,0,21,2.0,96.0
2050,56.0,0,21,6.0,96.0
2051,68.0,6,10,0.0,96.0
2052,80.0,6,6,5.0,96.0
2053,81.0,0,6,5.0,96.0
2054,61.0,6,10,0.0,96.0
2055,80.0,6,6,5.0,96.0
2056,81.0,0,6,5.0,96.0
2057,64.0,0,21,1.0,96.0
2058,61.0,0,21,6.0,96.0
2059,68.0,6,10,0.0,96.0
2060,80.0,6,6,5.0,96.0
2061,81.0,0,6,5.0,96.0
2062,64.0,6,10,0.0,96.0
2063,80.0,6,6,5.0,96.0
2064,81.0,0,6,5.0,96.0
2065,61.0,0,21,1.0,96.0
2066,56.0,0,21,2.0,96.0
2067,56.0,0,21,3.0,96.0
2068,44.0,0,21,4.0,96.0
2069,64.0,0,21,6.0,96.0
2070,68.0,6,10,0.0,96.0
2071,80.0,6,6,5.0,96.0
2072,81.0,0,6,5.0,96.0
2073,73.0,6,10,0.0,96.0
2074,80.0,6,6,5.0,96.0
2075,81.0,0,6,5.0,96.0
2076,52.0,0,21,2.0,96.0
2077,61.0,0,21,3.0,96.0
2078,49.0,0,21,4.0,96.0
2079,61.0,0,21,6.0,96.0
2080,72.0,6,10,0.0,96.0
2081,80.0,6,6,5.0,96.0
2082,81.0,0,6,5.0,96.0
2083,73.0,6,10,0.0,96.0
2084,80.0,6,6,5.0,96.0
2085,81.0,0,6,5.0,96.0
2086,49.0,0,21,2.0,96.0
2087,56.0,0,21,3.0,96.0
2088,44.0,0,21,4.0,96.0
2089,56.0,0,21,6.0,96.0
2090,76.0,6,10,0.0,96.0
2091,80.0,6,6,5.0,96.0
2092,81.0,0,6,5.0,96.0
2093,73.0,6,10,0.0,96.0
2094,52.0,0,21,3.0,96.0
2095,40.0,0,21,4.0,96.0
2096,52.0,0,21,6.0,96.0
2097,68.0,6,10,0.0,96.0
2098,64.0,12,10,0.0,96.0
2099,49.0,0,21,3.0,96.0
2100,37.0,0,21,4.0,96.0
2101,49.0,0,21,6.0,96.0
2102,68.0,12,10,0.0,96.0
2103,80.0,6,42,5.0,96.0
2104,78.0,6,5,5.0,96.0
2105,80.0,6,5,5.0,96.0
2106,61.0,12,21,0.0,96.0
2107,45.0,0,21,3.0,96.0
2108,33.0,0,21,4.0,96.0
2109,45.0,0,21,6.0,96.0
2110,81.0,6,5,5.0,96.0
2111,80.0,6,10,5.0,96.0
2112,60.0,0,21,6.0,96.0
2113,78.0,12,10,5.0,96.0
2114,76.0,12,10,5.0,96.0
2115,61.0,0,21,6.0,96.0
2116,75.0,12,10,5.0,96.0
2117,73.0,0,10,5.0,96.0
2118,57.0,12,21,3.0,80.0
2119,45.0,0,21,4.0,80.0
2120,63.0,0,21,6.0,96.0
2121,57.0,0,21,6.0,96.0
2122,72.0,12,10,5.0,96.0
2123,73.0,0,12,5.0,96.0
2124,75.0,12,6,5.0,96.0
2125,56.0,12,21,3.0,80.0
2126,44.0,0,21,4.0,80.0
2127,64.0,0,21,6.0,96.0
2128,56.0,0,21,6.0,96.0
2129,73.0,6,6,5.0,96.0
2130,72.0,0,6,5.0,96.0
2131,73.0,6,6,5.0,96.0
2132,54.0,6,21,3.0,80.0
2133,42.0,0,21,4.0,80.0
2134,57.0,0,21,6.0,96.0
2135,54.0,0,21,6.0,96.0
2136,75.0,6,10,5.0,96.0
2137,56.0,12,21,3.0,80.0
2138,44.0,0,21,4.0,80.0
2139,75.0,0,31,5.0,96.0
2140,72.0,0,42,6.0,96.0
2141,56.0,0,42,6.0,96.0
2142,44.0,24,21,3.0,80.0
2143,32.0,0,21,4.0,80.0
2144,44.0,0,21,6.0,96.0
2145,73.0,12,10,5.0,96.0
2146,73.0,0,10,5.0,96.0
2147,76.0,12,10,5.0,96.0
2148,75.0,12,10,5.0,96.0
2149,67.0,0,42,2.0,80.0
2150,51.0,0,42,3.0,80.0
2151,39.0,0,42,4.0,80.0
2152,58.0,0,42,6.0,96.0
2153,55.0,0,42,6.0,96.0
2154,51.0,0,42,6.0,96.0
2155,73.0,12,10,5.0,96.0
2156,79.0,0,12,5.0,96.0
2157,80.0,12,12,5.0,96.0
2158,82.0,0,10,5.0,96.0
2159,73.0,0,84,1.0,80.0
2160,55.0,12,21,3.0,80.0
2161,43.0,0,21,4.0,80.0
2162,55.0,0,21,6.0,96.0
2163,73.0,12,10,5.0,96.0
2164,82.0,12,108,0.0,80.0
2165,63.0,12,63,2.0,80.0
2166,56.0,0,21,3.0,80.0
2167,44.0,0,21,4.0,80.0
2168,71.0,0,26,5.0,96.0
2169,70.0,6,5,5.0,96.0
2170,68.0,6,5,5.0,96.0
2171,71.0,12,42,1.0,80.0
2172,80.0,24,21,0.0,80.0
2173,68.0,0,21,2.0,80.0
2174,52.0,0,21,3.0,80.0
2175,40.0,0,21,4.0,80.0
2176,52.0,0,21,6.0,96.0
2177,70.0,6,5,5.0,96.0
2178,56.0,0,63,6.0,96.0
2179,49.0,6,21,3.0,80.0
2180,37.0,0,21,4.0,80.0
2181,49.0,0,21,6.0,96.0
2182,70.0,0,31,5.0,96.0
2183,51.0,24,21,3.0,80.0
2184,39.0,0,21,4.0,80.0
2185,55.0,0,21,6.0,96.0
2186,51.0,0,21,6.0,96.0
2187,68.0,12,10,5.0,96.0
2188,44.0,12,21,3.0,80.0
2189,32.0,0,21,4.0,80.0
2190,44.0,0,21,6.0,96.0
2191,68.0,12,10,0.0,96.0
2192,71.0,12,10,0.0,96.0
2193,56.0,0,10,3.0,80.0
2194,44.0,0,10,4.0,80.0
2195,56.0,0,10,6.0,96.0
2196,75.0,12,10,0.0,96.0
2197,58.0,0,10,3.0,80.0
2198,46.0,0,10,4.0,80.0
2199,58.0,0,10,6.0,96.0
2200,80.0,12,10,0.0,96.0
2201,59.0,0,21,3.0,80.0
2202,47.0,0,21,4.0,80.0
2203,59.0,0,21,6.0,96.0
2204,78.0,12,10,0.0,96.0
2205,76.0,12,10,0.0,96.0
2206,71.0,0,21,1.0,96.0
2207,68.0,0,21,2.0,96.0
2208,56.0,0,21,3.0,96.0
2209,44.0,0,21,4.0,96.0
2210,56.0,0,21,6.0,96.0
2211,75.0,12,10,0.0,96.0
2212,68.0,12,3,0.0,96.0
2213,49.0,0,10,6.0,96.0
2214,70.0,0,21,1.0,96.0
2215,64.0,0,21,2.0,96.0
2216,61.0,0,21,3.0,96.0
2217,49.0,0,21,4.0,96.0
2218,61.0,0,10,6.0,96.0
2219,76.0,12,12,0.0,96.0
2220,59.0,0,10,6.0,96.0
2221,75.0,12,12,0.0,96.0
2222,73.0,12,10,0.0,96.0
2223,58.0,0,10,6.0,96.0
2224,68.0,12,3,0.0,96.0
2225,47.0,0,10,6.0,96.0
2226,71.0,0,21,1.0,96.0
2227,63.0,0,21,2.0,96.0
2228,59.0,0,21,3.0,96.0
2229,47.0,0,21,4.0,96.0
2230,59.0,0,10,6.0,96.0
2231,75.0,12,12,0.0,96.0
2232,58.0,0,10,6.0,96.0
2233,73.0,12,12,0.0,96.0
2234,71.0,12,10,0.0,96.0
2235,56.0,0,10,6.0,96.0
2236,61.0,12,3,0.0,96.0
2237,46.0,0,10,6.0,96.0
2238,73.0,0,21,1.0,96.0
2239,61.0,0,21,2.0,96.0
2240,58.0,0,21,3.0,96.0
2241,46.0,0,21,4.0,96.0
2242,58.0,0,10,6.0,96.0
2243,73.0,12,12,0.0,96.0
2244,56.0,0,10,6.0,96.0
2245,71.0,12,12,0.0,96.0
2246,70.0,12,10,0.0,96.0
2247,55.0,0,10,6.0,96.0
2248,68.0,0,240,5.0,96.0
2249,56.0,0,10,6.0,96.0
2250,71.0,12,21,0.0,96.0
2251,71.0,0,21,1.0,96.0
2252,63.0,0,21,2.0,96.0
2253,56.0,0,21,3.0,96.0
2254,44.0,0,21,4.0,96.0
2255,71.0,12,10,5.0,96.0
2256,54.0,0,10,6.0,96.0
2257,73.0,0,10,5.0,96.0
2258,52.0,0,10,6.0,96.0
2259,80.0,12,21,0.0,80.0
2260,75.0,12,10,5.0,96.0
2261,51.0,0,10,6.0,96.0
2262,76.0,0,10,5.0,96.0
2263,68.0,0,21,1.0,80.0
2264,61.0,0,21,2.0,80.0
2265,49.0,0,21,3.0,80.0
2266,37.0,0,21,4.0,80.0
2267,49.0,0,21,6.0,96.0
2268,79.0,12,10,5.0,96.0
2269,80.0,12,10,5.0,96.0
2270,61.0,0,21,6.0,96.0
2271,82.0,12,10,5.0,96.0
2272,75.0,0,10,5.0,96.0
2273,71.0,12,21,1.0,80.0
2274,63.0,0,21,2.0,80.0
2275,47.0,0,21,3.0,80.0
2276,35.0,0,21,4.0,80.0
2277,59.0,0,21,6.0,96.0
2278,79.0,12,10,5.0,96.0
2279,80.0,12,10,5.0,96.0
2280,47.0,0,21,6.0,96.0
2281,82.0,12,10,5.0,96.0
2282,73.0,0,10,5.0,96.0
2283,73.0,12,21,1.0,80.0
2284,70.0,0,21,2.0,80.0
2285,46.0,0,21,3.0,80.0
2286,34.0,0,21,4.0,80.0
2287,46.0,0,21,6.0,96.0
2288,79.0,12,10,5.0,96.0
2289,80.0,12,10,5.0,96.0
2290,58.0,0,21,6.0,96.0
2291,82.0,12,10,5.0,96.0
2292,71.0,0,10,5.0,96.0
2293,80.0,12,156,0.0,80.0
2294,75.0,12,21,1.0,80.0
2295,71.0,0,21,2.0,80.0
2296,44.0,0,21,3.0,80.0
2297,32.0,0,21,4.0,80.0
2298,56.0,0,21,6.0,96.0
2299,75.0,12,10,5.0,96.0
2300,79.0,0,10,5.0,96.0
2301,79.0,12,21,0.0,96.0
2302,73.0,0,21,1.0,96.0
2303,75.0,0,21,2.0,96.0
2304,51.0,0,21,3.0,96.0
2305,39.0,0,21,4.0,96.0
2306,51.0,0,21,6.0,96.0
2307,82.0,12,10,5.0,96.0
2308,80.0,0,10,5.0,96.0
2309,71.0,0,21,1.0,96.0
2310,68.0,0,21,2.0,96.0
2311,52.0,0,21,3.0,96.0
2312,40.0,0,21,4.0,96.0
2313,52.0,0,21,6.0,96.0
2314,79.0,12,10,5.0,96.0
2315,80.0,12,31,0.0,96.0
2316,80.0,0,10,5.0,96.0
2317,80.0,12,21,1.0,96.0
2318,64.0,0,21,2.0,96.0
2319,49.0,0,21,3.0,96.0
2320,37.0,0,21,4.0,96.0
2321,49.0,0,21,6.0,96.0
2322,85.0,12,10,0.0,96.0
2323,85.0,0,10,5.0,96.0
2324,80.0,0,21,1.0,96.0
2325,63.0,0,21,2.0,96.0
2326,51.0,0,21,3.0,96.0
2327,39.0,0,21,4.0,96.0
2328,51.0,0,21,6.0,96.0
2329,82.0,12,31,0.0,96.0
2330,82.0,0,31,5.0,96.0
2331,79.0,24,21,1.0,96.0
2332,70.0,0,21,2.0,96.0
2333,39.0,0,21,3.0,96.0
2334,27.0,0,21,4.0,96.0
2335,39.0,0,21,6.0,96.0
2336,80.0,12,10,0.0,96.0
2337,80.0,0,10,5.0,96.0
2338,80.0,12,42,0.0,96.0
2339,75.0,0,42,1.0,96.0
2340,71.0,0,42,2.0,96.0
2341,44.0,0,42,3.0,96.0
2342,32.0,0,42,4.0,96.0
2343,80.0,0,42,5.0,96.0
2344,44.0,0,42,6.0,96.0
2345,71.0,72,21,0.0,80.0
2346,64.0,0,21,1.0,80.0
2347,56.0,0,21,2.0,80.0
2348,71.0,0,21,5.0,96.0
2349,76.0,24,10,0.0,80.0
2350,68.0,0,10,5.0,96.0
2351,66.0,0,5,5.0,96.0
2352,64.0,0,21,1.0,80.0
2353,56.0,0,21,2.0,80.0
2354,75.0,12,10,0.0,80.0
2355,64.0,6,5,5.0,96.0
2356,76.0,6,10,0.0,80.0
2357,59.0,0,10,5.0,96.0
2358,64.0,0,5,5.0,96.0
2359,40.0,0,42,3.0,80.0
2360,28.0,0,42,4.0,80.0
2361,68.0,0,21,1.0,80.0
2362,59.0,0,21,2.0,80.0
2363,52.0,0,21,6.0,96.0
2364,80.0,12,10,0.0,80.0
2365,66.0,6,5,5.0,96.0
2366,76.0,6,10,0.0,80.0
2367,68.0,0,10,5.0,96.0
2368,66.0,0,5,5.0,96.0
2369,68.0,0,21,1.0,80.0
2370,59.0,0,21,2.0,80.0
2371,71.0,12,10,0.0,80.0
2372,64.0,6,5,5.0,96.0
2373,68.0,6,10,0.0,80.0
2374,59.0,0,10,5.0,96.0
2375,64.0,0,5,5.0,96.0
2376,40.0,0,42,6.0,96.0
2377,71.0,0,21,1.0,80.0
2378,64.0,0,21,2.0,80.0
2379,52.0,0,21,3.0,80.0
2380,40.0,0,21,4.0,80.0
2381,71.0,12,10,0.0,80.0
2382,66.0,6,5,5.0,96.0
2383,64.0,6,10,0.0,80.0
2384,68.0,0,10,5.0,96.0
2385,66.0,0,5,5.0,96.0
2386,71.0,0,21,1.0,80.0
2387,64.0,0,21,2.0,80.0
2388,71.0,12,10,0.0,80.0
2389,64.0,6,5,5.0,96.0
2390,68.0,6,10,0.0,80.0
2391,71.0,0,10,5.0,96.0
2392,69.0,0,5,5.0,96.0
2393,40.0,0,42,3.0,80.0
2394,28.0,0,42,4.0,80.0
2395,76.0,0,21,1.0,80.0
2396,68.0,0,21,2.0,80.0
2397,52.0,0,21,6.0,96.0
2398,71.0,12,10,0.0,80.0
2399,68.0,6,5,5.0,96.0
2400,64.0,6,10,0.0,80.0
2401,76.0,0,10,5.0,96.0
2402,76.0,0,21,1.0,80.0
2403,68.0,0,21,2.0,80.0
2404,71.0,12,10,0.0,80.0
2405,71.0,0,10,5.0,96.0
2406,68.0,12,10,0.0,80.0
2407,76.0,0,10,5.0,96.0
2408,40.0,0,42,6.0,96.0
2409,52.0,0,21,3.0,80.0
2410,40.0,0,21,4.0,80.0
2411,71.0,12,10,0.0,80.0
2412,78.0,0,10,5.0,96.0
2413,76.0,12,10,0.0,80.0
2414,80.0,0,10,5.0,96.0
2415,75.0,12,10,0.0,80.0
2416,78.0,0,10,5.0,96.0
2417,76.0,12,10,0.0,80.0
2418,80.0,0,10,5.0,96.0
2419,40.0,0,42,3.0,80.0
2420,28.0,0,42,4.0,80.0
2421,52.0,0,21,6.0,96.0
2422,80.0,12,10,0.0,80.0
2423,83.0,0,10,5.0,96.0
2424,76.0,12,10,0.0,80.0
2425,80.0,0,10,5.0,96.0
2426,71.0,12,10,0.0,80.0
2427,76.0,0,10,5.0,96.0
2428,68.0,12,10,0.0,80.0
2429,71.0,0,10,5.0,96.0
2430,40.0,0,42,6.0,96.0
2431,52.0,0,21,3.0,80.0
2432,40.0,0,21,4.0,80.0
2433,71.0,12,10,0.0,80.0
2434,76.0,0,10,5.0,96.0
2435,64.0,12,10,0.0,80.0
2436,68.0,0,10,5.0,96.0
2437,40.0,0,21,3.0,80.0
2438,28.0,0,21,4.0,80.0
2439,71.0,12,10,0.0,80.0
2440,76.0,0,10,5.0,96.0
2441,68.0,12,10,0.0,80.0
2442,71.0,0,10,5.0,96.0
2443,52.0,0,21,3.0,80.0
2444,40.0,0,21,4.0,80.0
2445,40.0,0,21,6.0,96.0
2446,71.0,12,10,0.0,80.0
2447,68.0,0,10,5.0,96.0
2448,76.0,12,10,0.0,80.0
2449,56.0,0,21,3.0,80.0
2450,44.0,0,21,4.0,80.0
2451,64.0,0,21,5.0,96.0
2452,44.0,0,21,6.0,96.0
2453,71.0,12,10,0.0,80.0
2454,80.0,0,6,5.0,96.0
2455,78.0,12,10,0.0,96.0
2456,78.0,6,6,5.0,96.0
2457,76.0,0,6,5.0,96.0
2458,75.0,0,21,1.0,96.0
2459,71.0,0,21,2.0,96.0
2460,59.0,0,21,3.0,96.0
2461,47.0,0,21,4.0,96.0
2462,47.0,0,21,6.0,96.0
2463,71.0,6,10,0.0,96.0
2464,78.0,6,5,5.0,96.0
2465,80.0,0,6,5.0,96.0
2466,80.0,6,21,0.0,96.0
2467,76.0,0,21,1.0,96.0
2468,71.0,0,21,2.0,96.0
2469,64.0,0,21,3.0,96.0
2470,52.0,0,21,4.0,96.0
2471,52.0,0,21,6.0,96.0
2472,78.0,0,6,5.0,96.0
2473,78.0,24,21,0.0,96.0
2474,78.0,0,21,1.0,96.0
2475,71.0,0,21,2.0,96.0
2476,63.0,0,21,3.0,96.0
2477,51.0,0,21,4.0,96.0
2478,51.0,0,21,6.0,96.0
2479,81.0,0,6,5.0,96.0
2480,81.0,24,21,0.0,96.0
2481,76.0,0,21,1.0,96.0
2482,64.0,0,21,2.0,96.0
2483,61.0,0,21,3.0,96.0
2484,49.0,0,21,4.0,96.0
2485,49.0,0,21,6.0,96.0
2486,80.0,0,6,5.0,96.0
2487,80.0,24,21,0.0,96.0
2488,76.0,0,21,1.0,96.0
2489,68.0,0,21,2.0,96.0
2490,59.0,0,21,3.0,96.0
2491,47.0,0,21,4.0,96.0
2492,47.0,0,21,6.0,96.0
2493,78.0,0,6,5.0,96.0
2494,80.0,6,6,5.0,96.0
2495,78.0,24,21,0.0,96.0
2496,75.0,0,21,1.0,96.0
2497,71.0,0,21,2.0,96.0
2498,57.0,0,21,3.0,96.0
2499,45.0,0,21,4.0,96.0
2500,45.0,0,21,6.0,96.0
2501,78.0,6,10,5.0,96.0
2502,76.0,12,21,0.0,96.0
2503,76.0,0,21,1.0,96.0
2504,71.0,0,21,2.0,96.0
2505,56.0,0,21,3.0,96.0
2506,44.0,0,21,4.0,96.0
2507,76.0,0,21,5.0,96.0
2508,44.0,0,21,6.0,96.0
2509,56.0,12,10,3.0,80.0
2510,44.0,0,10,4.0,80.0
2511,56.0,0,10,6.0,96.0
2512,57.0,0,10,3.0,80.0
2513,45.0,0,10,4.0,80.0
2514,57.0,0,10,6.0,96.0
2515,83.0,12,21,0.0,80.0
2516,78.0,0,21,1.0,80.0
2517,63.0,0,21,2.0,80.0
2518,59.0,12,10,3.0,80.0
2519,47.0,0,10,4.0,80.0
2520,59.0,0,10,6.0,96.0
2521,83.0,24,52,5.0,96.0
2522,83.0,12,21,0.0,80.0
2523,80.0,0,21,1.0,80.0
2524,64.0,0,21,2.0,80.0
2525,52.0,0,21,3.0,80.0
2526,40.0,0,21,4.0,80.0
2527,52.0,0,21,6.0,96.0
2528,74.0,12,10,5.0,96.0
2529,73.0,0,10,5.0,96.0
2530,80.0,12,21,0.0,80.0
2531,76.0,0,21,1.0,80.0
2532,71.0,0,21,2.0,80.0
2533,64.0,0,21,3.0,80.0
2534,52.0,0,21,4.0,80.0
2535,64.0,0,21,6.0,96.0
2536,74.0,12,10,5.0,96.0
2537,80.0,12,21,0.0,80.0
2538,76.0,0,21,1.0,80.0
2539,71.0,0,21,2.0,80.0
2540,76.0,0,21,5.0,96.0
2541,52.0,12,10,3.0,80.0
2542,40.0,0,10,4.0,80.0
2543,52.0,0,10,6.0,96.0
2544,54.0,0,10,3.0,80.0
2545,42.0,0,10,4.0,80.0
2546,54.0,0,10,6.0,96.0
2547,76.0,12,21,0.0,80.0
2548,71.0,0,21,1.0,80.0
2549,68.0,0,21,2.0,80.0
2550,74.0,0,21,5.0,96.0
2551,56.0,12,10,3.0,80.0
2552,44.0,0,10,4.0,80.0
2553,56.0,0,10,6.0,96.0
2554,76.0,12,10,0.0,80.0
2555,73.0,0,10,5.0,96.0
2556,57.0,0,21,3.0,80.0
2557,45.0,0,21,4.0,80.0
2558,57.0,0,21,6.0,96.0
2559,74.0,12,10,0.0,80.0
2560,71.0,0,10,5.0,96.0
2561,73.0,12,10,0.0,80.0
2562,69.0,0,10,5.0,96.0
2563,73.0,0,42,1.0,80.0
2564,64.0,0,42,2.0,80.0
2565,45.0,0,21,3.0,80.0
2566,33.0,0,21,4.0,80.0
2567,45.0,0,21,6.0,96.0
2568,71.0,12,10,0.0,80.0
2569,73.0,0,10,5.0,96.0
2570,69.0,12,21,0.0,80.0
2571,54.0,12,10,3.0,80.0
2572,42.0,0,10,4.0,80.0
2573,54.0,0,10,6.0,96.0
2574,56.0,0,10,3.0,80.0
2575,44.0,0,10,4.0,80.0
2576,56.0,0,10,6.0,96.0
2577,78.0,12,21,0.0,80.0
2578,73.0,0,21,1.0,80.0
2579,69.0,0,21,2.0,80.0
2580,57.0,12,10,3.0,80.0
2581,45.0,0,10,4.0,80.0
2582,57.0,0,10,6.0,96.0
2583,78.0,0,52,5.0,96.0
2584,78.0,12,21,0.0,80.0
2585,71.0,0,21,1.0,80.0
2586,66.0,0,21,2.0,80.0
2587,51.0,0,21,3.0,80.0
2588,39.0,0,21,4.0,80.0
2589,51.0,0,21,6.0,96.0
2590,69.0,12,10,5.0,96.0
2591,68.0,0,10,5.0,96.0
2592,75.0,12,21,0.0,80.0
2593,71.0,0,21,1.0,80.0
2594,66.0,0,21,2.0,80.0
2595,59.0,0,21,3.0,80.0
2596,47.0,0,21,4.0,80.0
2597,59.0,0,21,6.0,96.0
2598,69.0,12,10,5.0,96.0
2599,75.0,12,21,0.0,80.0
2600,71.0,0,21,1.0,80.0
2601,66.0,0,21,2.0,80.0
2602,71.0,0,21,5.0,96.0
2603,47.0,12,10,3.0,80.0
2604,35.0,0,10,4.0,80.0
2605,47.0,0,10,6.0,96.0
2606,49.0,0,10,3.0,80.0
2607,37.0,0,10,4.0,80.0
2608,49.0,0,10,6.0,96.0
2609,71.0,12,21,0.0,80.0
2610,66.0,0,21,1.0,80.0
2611,63.0,0,21,2.0,80.0
2612,69.0,0,21,5.0,96.0
2613,51.0,12,10,3.0,80.0
2614,39.0,0,10,4.0,80.0
2615,51.0,0,10,6.0,96.0
2616,71.0,12,10,0.0,80.0
2617,68.0,0,10,5.0,96.0
2618,52.0,0,21,3.0,80.0
2619,40.0,0,21,4.0,80.0
2620,52.0,0,21,6.0,96.0
2621,69.0,12,10,0.0,80.0
2622,71.0,0,10,5.0,96.0
2623,68.0,12,10,0.0,80.0
2624,76.0,0,10,5.0,96.0
2625,68.0,0,42,1.0,80.0
2626,59.0,0,42,2.0,80.0
2627,40.0,0,21,3.0,80.0
2628,28.0,0,21,4.0,80.0
2629,40.0,0,21,6.0,96.0
2630,66.0,12,10,0.0,80.0
2631,78.0,0,10,5.0,96.0
2632,64.0,12,21,0.0,80.0
2633,76.0,12,10,1.0,80.0
2634,52.0,0,10,3.0,80.0
2635,40.0,0,10,4.0,80.0
2636,52.0,0,10,6.0,96.0
2637,75.0,0,10,1.0,80.0
2638,54.0,0,10,3.0,80.0
2639,42.0,0,10,4.0,80.0
2640,54.0,0,10,6.0,96.0
2641,71.0,12,21,0.0,80.0
2642,76.0,12,10,1.0,80.0
2643,56.0,0,10,3.0,80.0
2644,44.0,0,10,4.0,80.0
2645,56.0,0,10,6.0,96.0
2646,80.0,0,52,5.0,96.0
2647,73.0,12,10,0.0,80.0
2648,57.0,0,21,3.0,80.0
2649,45.0,0,21,4.0,80.0
2650,57.0,0,21,6.0,96.0
2651,76.0,12,10,0.0,80.0
2652,61.0,0,10,2.0,80.0
2653,76.0,0,10,5.0,96.0
2654,75.0,0,4,5.0,96.0
2655,76.0,4,4,5.0,96.0
2656,78.0,12,10,0.0,80.0
2657,63.0,0,10,2.0,80.0
2658,75.0,4,3,5.0,96.0
2659,45.0,0,21,3.0,80.0
2660,33.0,0,21,4.0,80.0
2661,45.0,0,21,6.0,96.0
2662,80.0,4,10,0.0,80.0
2663,64.0,0,10,2.0,80.0
2664,73.0,0,10,5.0,96.0
2665,73.0,0,52,1.0,80.0
2666,81.0,12,21,0.0,80.0
2667,69.0,12,10,1.0,80.0
2668,54.0,0,10,3.0,80.0
2669,42.0,0,10,4.0,80.0
2670,54.0,0,10,6.0,96.0
2671,71.0,0,10,1.0,80.0
2672,56.0,0,10,3.0,80.0
2673,44.0,0,10,4.0,80.0
2674,56.0,0,10,6.0,96.0
2675,78.0,12,21,0.0,80.0
2676,73.0,12,10,1.0,80.0
2677,57.0,0,10,3.0,80.0
2678,45.0,0,10,4.0,80.0
2679,57.0,0,10,6.0,96.0
2680,81.0,0,47,5.0,96.0
2681,66.0,0,52,2.0,80.0
2682,75.0,12,10,0.0,80.0
2683,76.0,6,5,5.0,96.0
2684,75.0,0,5,5.0,96.0
2685,59.0,0,21,3.0,80.0
2686,47.0,0,21,4.0,80.0
2687,59.0,0,21,6.0,96.0
2688,78.0,6,10,0.0,80.0
2689,63.0,0,10,2.0,80.0
2690,73.0,6,5,5.0,96.0
2691,80.0,6,10,0.0,80.0
2692,64.0,0,10,2.0,80.0
2693,75.0,0,10,5.0,96.0
2694,47.0,0,21,3.0,80.0
2695,35.0,0,21,4.0,80.0
2696,47.0,0,21,6.0,96.0
2697,81.0,12,10,0.0,80.0
2698,66.0,0,10,2.0,80.0
2699,78.0,0,10,5.0,96.0
2700,75.0,0,52,1.0,80.0
2701,83.0,12,21,0.0,80.0
2702,71.0,12,10,1.0,80.0
2703,56.0,0,10,3.0,80.0
2704,44.0,0,10,4.0,80.0
2705,56.0,0,10,6.0,96.0
2706,73.0,0,10,1.0,80.0
2707,57.0,0,10,3.0,80.0
2708,45.0,0,10,4.0,80.0
2709,57.0,0,10,6.0,96.0
2710,80.0,12,21,0.0,80.0
2711,75.0,12,10,1.0,80.0
2712,59.0,0,10,3.0,80.0
2713,47.0,0,10,4.0,80.0
2714,59.0,0,10,6.0,96.0
2715,83.0,0,52,5.0,96.0
2716,68.0,0,63,2.0,80.0
2717,76.0,12,21,0.0,80.0
2718,76.0,0,21,1.0,80.0
2719,61.0,0,21,3.0,80.0
2720,49.0,0,21,4.0,80.0
2721,61.0,0,21,6.0,96.0
2722,81.0,12,10,5.0,96.0
2723,80.0,0,10,5.0,96.0
2724,75.0,12,21,0.0,80.0
2725,80.0,0,21,1.0,80.0
2726,68.0,0,21,2.0,80.0
2727,59.0,0,21,3.0,80.0
2728,47.0,0,21,4.0,80.0
2729,59.0,0,21,6.0,96.0
2730,78.0,12,10,5.0,96.0
2731,76.0,0,10,5.0,96.0
2732,76.0,12,21,0.0,80.0
2733,73.0,0,21,1.0,80.0
2734,68.0,0,21,2.0,80.0
2735,61.0,0,21,3.0,80.0
2736,49.0,0,21,4.0,80.0
2737,61.0,0,21,6.0,96.0
2738,80.0,12,10,5.0,96.0
2739,78.0,0,10,5.0,96.0
2740,73.0,12,21,0.0,80.0
2741,78.0,0,21,1.0,80.0
2742,61.0,0,21,2.0,80.0
2743,58.0,0,21,3.0,80.0
2744,46.0,0,21,4.0,80.0
2745,58.0,0,21,6.0,96.0
2746,76.0,12,10,5.0,96.0
2747,75.0,0,10,5.0,96.0
2748,75.0,12,21,0.0,80.0
2749,66.0,0,21,1.0,80.0
2750,59.0,0,21,2.0,80.0
2751,59.0,0,21,3.0,80.0
2752,47.0,0,21,4.0,80.0
2753,59.0,0,21,6.0,96.0
2754,76.0,12,10,5.0,96.0
2755,78.0,0,10,5.0,96.0
2756,71.0,12,21,0.0,80.0
2757,71.0,0,21,1.0,80.0
2758,63.0,0,21,2.0,80.0
2759,57.0,0,21,3.0,80.0
2760,45.0,0,21,4.0,80.0
2761,57.0,0,21,6.0,96.0
2762,75.0,12,10,5.0,96.0
2763,56.0,12,21,3.0,80.0
2764,44.0,0,21,4.0,80.0
2765,71.0,0,21,5.0,96.0
2766,56.0,0,21,6.0,96.0
2767,71.0,12,10,0.0,80.0
2768,73.0,12,10,0.0,80.0
2769,54.0,0,21,3.0,80.0
2770,42.0,0,21,4.0,80.0
2771,69.0,0,21,5.0,96.0
2772,54.0,0,21,6.0,96.0
2773,75.0,12,10,0.0,80.0
2774,76.0,12,10,0.0,80.0
2775,68.0,0,10,5.0,96.0
2776,52.0,0,21,3.0,80.0
2777,40.0,0,21,4.0,80.0
2778,52.0,0,21,6.0,96.0
2779,75.0,12,10,0.0,80.0
2780,66.0,0,10,5.0,96.0
2781,76.0,12,10,0.0,80.0
2782,68.0,0,10,5.0,96.0
2783,76.0,0,21,1.0,80.0
2784,68.0,0,21,2.0,80.0
2785,64.0,0,21,3.0,80.0
2786,52.0,0,21,4.0,80.0
2787,64.0,0,21,6.0,96.0
2788,80.0,12,10,0.0,80.0
2789,71.0,0,10,5.0,96.0
2790,76.0,12,10,0.0,80.0
2791,68.0,0,10,5.0,96.0
2792,76.0,0,21,1.0,80.0
2793,68.0,0,21,2.0,80.0
2794,71.0,12,10,0.0,80.0
2795,71.0,0,10,5.0,96.0
2796,68.0,12,10,0.0,80.0
2797,52.0,0,10,3.0,80.0
2798,40.0,0,10,4.0,80.0
2799,76.0,0,10,5.0,96.0
2800,52.0,0,10,6.0,96.0
2801,71.0,0,21,1.0,80.0
2802,64.0,0,21,2.0,80.0
2803,71.0,12,10,0.0,80.0
2804,51.0,0,10,3.0,80.0
2805,39.0,0,10,4.0,80.0
2806,71.0,0,10,5.0,96.0
2807,51.0,0,10,6.0,96.0
2808,64.0,12,10,0.0,80.0
2809,80.0,0,10,5.0,96.0
2810,73.0,0,21,1.0,80.0
2811,64.0,0,21,2.0,80.0
2812,49.0,0,21,3.0,80.0
2813,37.0,0,21,4.0,80.0
2814,49.0,0,21,6.0,96.0
2815,71.0,12,10,0.0,80.0
2816,78.0,0,10,5.0,96.0
2817,68.0,12,10,0.0,80.0
2818,76.0,0,10,5.0,96.0
2819,80.0,0,21,1.0,80.0
2820,73.0,0,21,2.0,80.0
2821,61.0,0,21,3.0,80.0
2822,49.0,0,21,4.0,80.0
2823,61.0,0,21,6.0,96.0
2824,71.0,12,10,0.0,80.0
2825,75.0,0,10,5.0,96.0
2826,64.0,12,10,0.0,80.0
2827,80.0,0,21,1.0,80.0
2828,73.0,0,21,2.0,80.0
2829,76.0,0,21,5.0,96.0
2830,71.0,12,10,0.0,80.0
2831,49.0,0,10,3.0,80.0
2832,37.0,0,10,4.0,80.0
2833,49.0,0,10,6.0,96.0
2834,68.0,12,10,0.0,80.0
2835,47.0,0,10,3.0,80.0
2836,35.0,0,10,4.0,80.0
2837,47.0,0,10,6.0,96.0
2838,76.0,0,21,1.0,80.0
2839,68.0,0,21,2.0,80.0
2840,71.0,12,10,0.0,80.0
2841,45.0,0,10,3.0,80.0
2842,33.0,0,10,4.0,80.0
2843,45.0,0,10,6.0,96.0
2844,83.0,0,31,5.0,96.0
2845,76.0,12,10,0.0,80.0
2846,76.0,0,21,1.0,80.0
2847,68.0,0,21,2.0,80.0
2848,44.0,0,21,3.0,80.0
2849,32.0,0,21,4.0,80.0
2850,44.0,0,21,6.0,96.0
2851,75.0,12,10,0.0,80.0
2852,85.0,0,10,5.0,96.0
2853,76.0,12,10,0.0,80.0
2854,83.0,0,10,5.0,96.0
2855,64.0,0,21,1.0,80.0
2856,59.0,0,21,2.0,80.0
2857,56.0,0,21,3.0,80.0
2858,44.0,0,21,4.0,80.0
2859,56.0,0,21,6.0,96.0
2860,80.0,12,10,0.0,80.0
2861,81.0,0,10,5.0,96.0
2862,76.0,12,10,0.0,80.0
2863,80.0,0,10,5.0,96.0
2864,68.0,0,21,1.0,80.0
2865,64.0,0,21,2.0,80.0
2866,71.0,12,10,0.0,80.0
2867,78.0,0,10,5.0,96.0
2868,68.0,12,10,0.0,80.0
2869,44.0,0,10,3.0,80.0
2870,32.0,0,10,4.0,80.0
2871,76.0,0,10,5.0,96.0
2872,44.0,0,10,6.0,96.0
2873,71.0,0,21,1.0,80.0
2874,68.0,0,21,2.0,80.0
2875,71.0,12,10,0.0,80.0
2876,42.0,0,10,3.0,80.0
2877,30.0,0,10,4.0,80.0
2878,75.0,0,10,5.0,96.0
2879,42.0,0,10,6.0,96.0
2880,64.0,12,10,0.0,80.0
2881,76.0,0,10,1.0,80.0
2882,76.0,0,10,5.0,96.0
2883,71.0,0,21,2.0,80.0
2884,40.0,0,21,3.0,80.0
2885,28.0,0,21,4.0,80.0
2886,40.0,0,21,6.0,96.0
2887,71.0,12,10,0.0,80.0
2888,75.0,0,10,1.0,80.0
2889,71.0,0,10,5.0,96.0
2890,68.0,12,10,0.0,80.0
2891,76.0,0,10,1.0,80.0
2892,68.0,0,10,5.0,96.0
2893,59.0,0,21,2.0,80.0
2894,52.0,0,21,3.0,80.0
2895,40.0,0,21,4.0,80.0
2896,52.0,0,21,6.0,96.0
2897,71.0,12,10,0.0,80.0
2898,75.0,0,10,1.0,80.0
2899,71.0,0,10,5.0,96.0
2900,76.0,12,10,0.0,80.0
2901,76.0,0,10,5.0,96.0
2902,76.0,0,21,1.0,80.0
2903,71.0,0,21,2.0,80.0
2904,56.0,0,21,3.0,80.0
2905,44.0,0,21,4.0,80.0
2906,56.0,0,21,6.0,96.0
2907,71.0,12,10,0.0,80.0
2908,80.0,0,10,5.0,96.0
2909,78.0,12,10,0.0,96.0
2910,78.0,0,10,5.0,96.0
2911,75.0,0,21,1.0,96.0
2912,71.0,0,21,2.0,96.0
2913,59.0,0,21,3.0,96.0
2914,47.0,0,21,4.0,96.0
2915,59.0,0,21,6.0,96.0
2916,71.0,12,10,0.0,96.0
2917,81.0,0,10,5.0,96.0
2918,80.0,12,21,0.0,96.0
2919,76.0,0,21,1.0,96.0
2920,71.0,0,21,2.0,96.0
2921,64.0,0,21,3.0,96.0
2922,52.0,0,21,4.0,96.0
2923,80.0,0,21,5.0,96.0
2924,64.0,0,21,6.0,96.0
2925,78.0,24,21,0.0,96.0
2926,78.0,0,21,1.0,96.0
2927,71.0,0,21,2.0,96.0
2928,63.0,0,21,3.0,96.0
2929,51.0,0,21,4.0,96.0
2930,78.0,0,21,5.0,96.0
2931,63.0,0,21,6.0,96.0
2932,81.0,24,21,0.0,96.0
2933,76.0,0,21,1.0,96.0
2934,64.0,0,21,2.0,96.0
2935,61.0,0,21,3.0,96.0
2936,49.0,0,21,4.0,96.0
2937,81.0,0,21,5.0,96.0
2938,61.0,0,21,6.0,96.0
2939,80.0,24,21,0.0,96.0
2940,76.0,0,21,1.0,96.0
2941,68.0,0,21,2.0,96.0
2942,59.0,0,21,3.0,96.0
2943,47.0,0,21,4.0,96.0
2944,80.0,0,21,5.0,96.0
2945,59.0,0,21,6.0,96.0
2946,78.0,0,6,5.0,96.0
2947,80.0,6,6,5.0,96.0
2948,78.0,24,21,0.0,96.0
2949,75.0,0,21,1.0,96.0
2950,71.0,0,21,2.0,96.0
2951,57.0,0,21,3.0,96.0
2952,45.0,0,21,4.0,96.0
2953,57.0,0,21,6.0,96.0
2954,78.0,6,10,5.0,96.0
2955,76.0,12,21,0.0,96.0
2956,76.0,0,21,1.0,96.0
2957,59.0,0,21,2.0,96.0
2958,56.0,0,21,3.0,96.0
2959,44.0,0,21,4.0,96.0
2960,76.0,0,21,5.0,96.0
2961,56.0,0,21,6.0,96.0
2962,76.0,24,10,1.0,96.0
2963,71.0,0,21,2.0,96.0
2964,56.0,0,21,3.0,96.0
2965,44.0,0,21,4.0,96.0
2966,56.0,0,21,6.0,96.0
2967,75.0,12,10,1.0,96.0
2968,83.0,24,52,0.0,96.0
2969,83.0,0,52,5.0,96.0
2970,76.0,12,21,1.0,96.0
2971,68.0,0,21,2.0,96.0
2972,61.0,0,21,3.0,96.0
2973,49.0,0,21,4.0,96.0
2974,61.0,0,21,6.0,96.0
2975,76.0,12,10,0.0,96.0
2976,76.0,0,10,5.0,96.0
2977,75.0,12,10,0.0,96.0
2978,75.0,0,10,5.0,96.0
2979,80.0,0,21,1.0,96.0
2980,71.0,0,21,2.0,96.0
2981,59.0,0,21,3.0,96.0
2982,47.0,0,21,4.0,96.0
2983,59.0,0,21,6.0,96.0
2984,76.0,12,10,0.0,96.0
2985,76.0,0,10,5.0,96.0
2986,78.0,12,21,0.0,96.0
2987,75.0,0,21,1.0,96.0
2988,71.0,0,21,2.0,96.0
2989,57.0,0,21,3.0,96.0
2990,45.0,0,21,4.0,96.0
2991,78.0,0,21,5.0,96.0
2992,57.0,0,21,6.0,96.0
2993,76.0,24,21,0.0,96.0
2994,76.0,0,21,1.0,96.0
2995,59.0,0,21,2.0,96.0
2996,56.0,0,21,3.0,96.0
2997,44.0,0,21,4.0,96.0
2998,76.0,0,21,5.0,96.0
2999,56.0,0,21,6.0,96.0
3000,75.0,24,10,0.0,96.0
3001,75.0,0,10,5.0,96.0
3002,69.0,0,21,1.0,96.0
3003,66.0,0,21,2.0,96.0
3004,54.0,0,21,3.0,96.0
3005,42.0,0,21,4.0,96.0
3006,54.0,0,21,6.0,96.0
3007,76.0,12,10,0.0,96.0
3008,76.0,0,10,5.0,96.0
3009,78.0,12,10,0.0,96.0
3010,78.0,0,10,5.0,96.0
3011,73.0,0,21,1.0,96.0
3012,69.0,0,21,2.0,96.0
3013,52.0,0,21,3.0,96.0
3014,40.0,0,21,4.0,96.0
3015,52.0,0,21,6.0,96.0
3016,75.0,12,10,0.0,96.0
3017,75.0,0,10,5.0,96.0
3018,71.0,12,10,0.0,96.0
3019,71.0,0,10,5.0,96.0
3020,66.0,0,21,1.0,96.0
3021,71.0,0,21,2.0,96.0
3022,51.0,0,21,3.0,96.0
3023,39.0,0,21,4.0,96.0
3024,51.0,0,21,6.0,96.0
3025,81.0,12,10,0.0,96.0
3026,81.0,0,12,5.0,96.0
3027,80.0,12,10,0.0,96.0
3028,80.0,0,12,5.0,96.0
3029,78.0,0,21,1.0,96.0
3030,71.0,0,21,2.0,96.0
3031,47.0,0,21,3.0,96.0
3032,35.0,0,21,4.0,96.0
3033,47.0,0,21,6.0,96.0
3034,78.0,12,10,0.0,96.0
3035,78.0,0,10,5.0,96.0
3036,76.0,0,10,1.0,96.0
3037,71.0,0,10,5.0,96.0
3038,80.0,12,21,0.0,96.0
3039,59.0,0,21,2.0,96.0
3040,52.0,0,21,3.0,96.0
3041,40.0,0,21,4.0,96.0
3042,52.0,0,21,6.0,96.0
3043,71.0,12,10,1.0,96.0
3044,80.0,0,12,5.0,96.0
3045,69.0,12,10,1.0,96.0
3046,78.0,0,12,5.0,96.0
3047,68.0,12,10,1.0,96.0
3048,76.0,0,10,5.0,96.0
3049,71.0,0,10,5.0,96.0
3050,66.0,12,21,1.0,96.0
3051,63.0,0,21,2.0,96.0
3052,51.0,0,21,3.0,96.0
3053,39.0,0,21,4.0,96.0
3054,51.0,0,21,6.0,96.0
3055,78.0,12,10,0.0,96.0
3056,78.0,0,12,5.0,96.0
3057,76.0,12,10,0.0,96.0
3058,76.0,0,12,5.0,96.0
3059,75.0,12,10,0.0,96.0
3060,75.0,0,10,5.0,96.0
3061,76.0,0,10,5.0,96.0
3062,76.0,12,21,0.0,96.0
3063,56.0,0,21,2.0,96.0
3064,49.0,0,21,3.0,96.0
3065,37.0,0,21,4.0,96.0
3066,49.0,0,21,6.0,96.0
3067,61.0,12,10,1.0,96.0
3068,69.0,0,12,5.0,96.0
3069,59.0,12,10,1.0,96.0
3070,68.0,0,12,5.0,96.0
3071,57.0,12,10,1.0,96.0
3072,66.0,0,10,5.0,96.0
3073,64.0,0,10,5.0,96.0
3074,59.0,12,21,1.0,96.0
3075,44.0,0,21,3.0,96.0
3076,32.0,0,21,4.0,96.0
3077,44.0,0,21,6.0,96.0
3078,74.0,12,10,0.0,96.0
3079,74.0,0,12,5.0,96.0
3080,73.0,12,10,0.0,96.0
3081,73.0,0,12,5.0,96.0
3082,40.0,0,21,3.0,96.0
3083,28.0,0,21,4.0,96.0
3084,40.0,0,21,6.0,96.0
3085,71.0,12,10,0.0,96.0
3086,71.0,0,10,5.0,96.0
3087,73.0,12,10,0.0,96.0
3088,73.0,0,10,5.0,96.0
3089,45.0,0,21,3.0,96.0
3090,33.0,0,21,4.0,96.0
3091,45.0,0,21,6.0,96.0
3092,71.0,12,10,0.0,96.0
3093,81.0,0,10,5.0,96.0
3094,69.0,12,10,0.0,96.0
3095,64.0,0,84,2.0,96.0
3096,64.0,0,21,1.0,96.0
3097,49.0,0,21,3.0,96.0
3098,37.0,0,21,4.0,96.0
3099,49.0,0,21,6.0,96.0
3100,68.0,12,10,0.0,96.0
3101,73.0,0,31,5.0,96.0
3102,66.0,12,10,0.0,96.0
3103,69.0,0,21,1.0,96.0
3104,45.0,0,21,3.0,96.0
3105,33.0,0,21,4.0,96.0
3106,45.0,0,21,6.0,96.0
3107,80.0,12,10,0.0,96.0
3108,71.0,0,10,5.0,96.0
3109,78.0,12,10,0.0,96.0
3110,69.0,0,10,5.0,96.0
3111,42.0,0,21,3.0,96.0
3112,30.0,0,21,4.0,96.0
3113,42.0,0,21,6.0,96.0
3114,76.0,12,10,0.0,96.0
3115,68.0,0,10,5.0,96.0
3116,75.0,12,10,0.0,96.0
3117,66.0,0,10,5.0,96.0
3118,73.0,0,42,1.0,96.0
3119,47.0,0,21,3.0,96.0
3120,35.0,0,21,4.0,96.0
3121,47.0,0,21,6.0,96.0
3122,73.0,12,10,0.0,96.0
3123,76.0,0,10,5.0,96.0
3124,71.0,12,10,0.0,96.0
3125,66.0,0,84,2.0,96.0
3126,66.0,0,21,1.0,96.0
3127,51.0,0,21,3.0,96.0
3128,39.0,0,21,4.0,96.0
3129,51.0,0,21,6.0,96.0
3130,69.0,12,10,0.0,96.0
3131,75.0,0,31,5.0,96.0
3132,68.0,12,10,0.0,96.0
3133,71.0,0,21,1.0,96.0
3134,47.0,0,21,3.0,96.0
3135,35.0,0,21,4.0,96.0
3136,47.0,0,21,6.0,96.0
3137,81.0,12,10,0.0,96.0
3138,73.0,0,10,5.0,96.0
3139,80.0,12,10,0.0,96.0
3140,71.0,0,10,5.0,96.0
3141,44.0,0,21,3.0,96.0
3142,32.0,0,21,4.0,96.0
3143,44.0,0,21,6.0,96.0
3144,78.0,12,10,0.0,96.0
3145,69.0,0,10,5.0,96.0
3146,76.0,12,10,0.0,96.0
3147,68.0,0,10,5.0,96.0
3148,75.0,0,42,1.0,96.0
3149,49.0,0,21,3.0,96.0
3150,37.0,0,21,4.0,96.0
3151,49.0,0,21,6.0,96.0
3152,75.0,12,10,0.0,96.0
3153,78.0,0,10,5.0,96.0
3154,73.0,12,10,0.0,96.0
3155,68.0,0,84,2.0,96.0
3156,68.0,0,21,1.0,96.0
3157,52.0,0,21,3.0,96.0
3158,40.0,0,21,4.0,96.0
3159,52.0,0,21,6.0,96.0
3160,71.0,12,10,0.0,96.0
3161,76.0,0,31,5.0,96.0
3162,69.0,12,10,0.0,96.0
3163,73.0,0,21,1.0,96.0
3164,69.0,0,21,2.0,96.0
3165,49.0,0,21,3.0,96.0
3166,37.0,0,21,4.0,96.0
3167,49.0,0,21,6.0,96.0
3168,83.0,12,10,0.0,96.0
3169,75.0,0,10,5.0,96.0
3170,81.0,12,10,0.0,96.0
3171,73.0,0,10,5.0,96.0
3172,76.0,0,21,1.0,96.0
3173,73.0,0,21,2.0,96.0
3174,45.0,0,21,3.0,96.0
3175,33.0,0,21,4.0,96.0
3176,45.0,0,21,6.0,96.0
3177,80.0,12,10,0.0,96.0
3178,71.0,0,10,5.0,96.0
3179,78.0,12,10,0.0,96.0
3180,69.0,0,10,5.0,96.0
3181,76.0,12,10,0.0,96.0
3182,80.0,0,10,5.0,96.0
3183,73.0,0,24,2.0,96.0
3184,75.0,12,10,0.0,96.0
3185,78.0,0,10,5.0,96.0
3186,78.0,0,42,1.0,96.0
3187,39.0,0,42,3.0,96.0
3188,27.0,0,42,4.0,96.0
3189,39.0,0,42,6.0,96.0
3190,71.0,0,21,2.0,96.0
3191,73.0,12,10,0.0,96.0
3192,76.0,0,10,5.0,96.0
3193,71.0,12,10,0.0,96.0
3194,75.0,0,10,5.0,96.0
3195,69.0,12,10,0.0,96.0
3196,73.0,0,10,5.0,96.0
3197,68.0,12,10,0.0,96.0
3198,71.0,0,10,5.0,96.0
3199,78.0,0,21,1.0,96.0
3200,71.0,0,21,2.0,96.0
3201,51.0,0,21,3.0,96.0
3202,39.0,0,21,4.0,96.0
3203,51.0,0,21,6.0,96.0
3204,66.0,12,10,0.0,96.0
3205,69.0,0,10,5.0,96.0
3206,71.0,0,21,1.0,96.0
3207,59.0,0,21,2.0,96.0
3208,52.0,0,21,3.0,96.0
3209,40.0,0,21,4.0,96.0
3210,68.0,0,21,5.0,96.0
3211,52.0,0,21,6.0,96.0
3212,64.0,12,31,0.0,96.0
3213,73.0,24,21,1.0,96.0
3214,64.0,0,21,2.0,96.0
3215,49.0,0,21,3.0,96.0
3216,37.0,0,21,4.0,96.0
3217,76.0,0,21,5.0,96.0
3218,49.0,0,21,6.0,96.0
3219,66.0,12,10,0.0,96.0
3220,73.0,0,21,1.0,96.0
3221,61.0,0,21,2.0,96.0
3222,45.0,0,21,3.0,96.0
3223,33.0,0,21,4.0,96.0
3224,66.0,0,21,5.0,96.0
3225,45.0,0,21,6.0,96.0
3226,76.0,0,6,5.0,96.0
3227,66.0,12,31,0.0,96.0
3228,75.0,6,6,5.0,96.0
3229,76.0,0,6,5.0,96.0
3230,71.0,24,21,1.0,96.0
3231,66.0,0,21,2.0,96.0
3232,47.0,0,21,3.0,96.0
3233,35.0,0,21,4.0,96.0
3234,47.0,0,21,6.0,96.0
3235,64.0,6,10,0.0,96.0
3236,75.0,6,5,5.0,96.0
3237,40.0,0,21,6.0,96.0
3238,64.0,24,10,6.0,96.0
3239,64.0,6,42,0.0,96.0
3240,71.0,0,42,1.0,96.0
3241,68.0,0,42,2.0,96.0
3242,40.0,0,42,3.0,96.0
3243,28.0,0,42,4.0,96.0
3244,76.0,0,42,5.0,96.0
3245,63.0,12,10,6.0,96.0
3246,64.0,12,10,6.0,96.0
3247,66.0,12,10,6.0,96.0
3248,64.0,0,10,6.0,96.0
3249,80.0,12,21,5.0,96.0
3250,63.0,12,10,6.0,96.0
3251,78.0,12,6,5.0,96.0
3252,80.0,6,6,5.0,96.0
3253,81.0,6,6,5.0,96.0
3254,80.0,6,6,5.0,96.0
3255,81.0,6,6,5.0,96.0
3256,80.0,6,6,5.0,96.0
3257,78.0,6,6,5.0,96.0
3258,49.0,0,21,6.0,96.0
3259,80.0,6,5,5.0,96.0
3260,81.0,6,10,5.0,96.0
3261,54.0,0,21,6.0,96.0
3262,80.0,12,10,5.0,96.0
3263,78.0,12,10,5.0,96.0
3264,51.0,0,21,6.0,96.0
3265,81.0,12,10,5.0,96.0
3266,80.0,0,5,5.0,96.0
3267,78.0,6,5,5.0,96.0
3268,61.0,0,108,6.0,96.0
3269,52.0,0,21,6.0,96.0
3270,76.0,6,10,5.0,96.0
3271,78.0,0,5,5.0,96.0
3272,76.0,6,5,5.0,96.0
3273,49.0,12,42,3.0,80.0
3274,37.0,0,42,4.0,80.0
3275,73.0,12,21,0.0,80.0
3276,73.0,0,21,1.0,80.0
3277,73.0,0,21,2.0,80.0
3278,61.0,0,21,6.0,96.0
3279,57.0,0,21,6.0,96.0
3280,75.0,6,10,5.0,96.0
3281,76.0,0,10,5.0,96.0
3282,61.0,0,21,6.0,96.0
3283,56.0,0,21,6.0,96.0
3284,73.0,12,10,5.0,96.0
3285,61.0,12,42,0.0,80.0
3286,61.0,0,42,1.0,80.0
3287,61.0,0,42,2.0,80.0
3288,80.0,12,21,5.0,96.0
3289,60.0,0,21,6.0,96.0
3290,54.0,0,21,6.0,96.0
3291,80.0,24,10,5.0,96.0
3292,81.0,12,5,5.0,96.0
3293,52.0,0,21,6.0,96.0
3294,80.0,6,5,5.0,96.0
3295,78.0,6,10,5.0,96.0
3296,61.0,0,42,6.0,96.0
3297,49.0,0,21,6.0,96.0
3298,80.0,12,10,5.0,96.0
3299,81.0,12,10,5.0,96.0
3300,54.0,0,21,6.0,96.0
3301,80.0,12,10,5.0,96.0
3302,78.0,12,10,5.0,96.0
3303,54.0,0,21,6.0,96.0
3304,42.0,0,21,6.0,96.0
3305,81.0,12,10,5.0,96.0
3306,80.0,0,10,5.0,96.0
3307,52.0,0,21,6.0,96.0
3308,49.0,0,21,6.0,96.0
3309,76.0,12,10,5.0,96.0
3310,49.0,12,42,3.0,80.0
3311,37.0,0,42,4.0,80.0
3312,73.0,12,21,0.0,80.0
3313,73.0,0,21,1.0,80.0
3314,73.0,0,21,2.0,80.0
3315,73.0,0,21,5.0,96.0
3316,54.0,0,21,6.0,96.0
3317,51.0,0,21,6.0,96.0
3318,56.0,0,21,6.0,96.0
3319,52.0,0,21,6.0,96.0
3320,61.0,24,42,0.0,80.0
3321,61.0,0,42,1.0,80.0
3322,61.0,0,42,2.0,80.0
3323,76.0,24,21,5.0,96.0
3324,61.0,0,21,6.0,96.0
3325,49.0,0,21,6.0,96.0
3326,75.0,0,6,5.0,96.0
3327,54.0,24,21,3.0,80.0
3328,42.0,0,21,4.0,80.0
3329,54.0,0,21,6.0,96.0
3330,75.0,24,6,5.0,96.0
3331,77.0,6,6,5.0,96.0
3332,57.0,0,21,6.0,96.0
3333,78.0,6,10,5.0,96.0
3334,77.0,0,6,5.0,96.0
3335,56.0,12,21,3.0,80.0
3336,44.0,0,21,4.0,80.0
3337,56.0,0,21,6.0,96.0
3338,77.0,24,6,5.0,96.0
3339,78.0,6,6,5.0,96.0
3340,59.0,0,21,6.0,96.0
3341,80.0,6,10,5.0,96.0
3342,57.0,0,10,6.0,96.0
3343,57.0,12,21,3.0,80.0
3344,45.0,0,21,4.0,80.0
3345,56.0,12,10,6.0,96.0
3346,80.0,0,24,5.0,96.0
3347,61.0,0,120,6.0,96.0
3348,57.0,0,10,6.0,96.0
3349,73.0,12,21,0.0,80.0
3350,73.0,0,21,1.0,80.0
3351,73.0,0,21,2.0,80.0
3352,78.0,0,21,5.0,96.0
3353,54.0,12,10,6.0,96.0
3354,59.0,0,10,6.0,96.0
3355,59.0,0,21,3.0,80.0
3356,47.0,0,21,4.0,80.0
3357,57.0,12,10,6.0,96.0
3358,59.0,0,10,6.0,96.0
3359,61.0,12,42,0.0,80.0
3360,61.0,0,42,1.0,80.0
3361,61.0,0,42,2.0,80.0
3362,77.0,12,21,5.0,96.0
3363,56.0,12,10,6.0,96.0
3364,78.0,0,6,5.0,96.0
3365,57.0,0,10,6.0,96.0
3366,57.0,12,21,3.0,80.0
3367,45.0,0,21,4.0,80.0
3368,56.0,12,10,6.0,96.0
3369,78.0,12,10,5.0,96.0
3370,57.0,0,10,6.0,96.0
3371,81.0,12,10,5.0,96.0
3372,54.0,0,10,6.0,96.0
3373,80.0,0,6,5.0,96.0
3374,53.0,0,10,6.0,96.0
3375,61.0,12,21,3.0,80.0
3376,49.0,0,21,4.0,80.0
3377,51.0,12,10,6.0,96.0
3378,80.0,12,10,5.0,96.0
3379,53.0,0,10,6.0,96.0
3380,83.0,12,10,5.0,96.0
3381,49.0,0,10,6.0,96.0
3382,81.0,0,6,5.0,96.0
3383,83.0,6,6,5.0,96.0
3384,54.0,12,21,3.0,80.0
3385,42.0,0,21,4.0,80.0
3386,54.0,0,21,6.0,96.0
3387,81.0,6,10,5.0,96.0
3388,49.0,0,10,6.0,96.0
3389,73.0,12,21,0.0,80.0
3390,73.0,0,21,1.0,80.0
3391,73.0,0,21,2.0,80.0
3392,49.0,0,21,3.0,80.0
3393,37.0,0,21,4.0,80.0
3394,80.0,0,21,5.0,96.0
3395,51.0,12,10,6.0,96.0
3396,53.0,0,10,6.0,96.0
3397,49.0,12,10,6.0,96.0
3398,81.0,12,6,5.0,96.0
3399,80.0,6,6,5.0,96.0
3400,61.0,12,42,0.0,80.0
3401,61.0,0,42,1.0,80.0
3402,61.0,0,42,2.0,80.0
3403,54.0,0,21,6.0,96.0
3404,78.0,6,10,5.0,96.0
3405,83.0,12,21,5.0,96.0
3406,50.0,0,21,6.0,96.0
3407,76.0,24,21,0.0,80.0
3408,81.0,0,21,5.0,96.0
3409,54.0,0,21,6.0,96.0
3410,74.0,24,21,0.0,80.0
3411,59.0,0,21,6.0,96.0
3412,80.0,12,10,5.0,96.0
3413,81.0,0,5,5.0,96.0
3414,80.0,6,5,5.0,96.0
3415,73.0,12,21,0.0,80.0
3416,61.0,0,21,6.0,96.0
3417,78.0,6,10,5.0,96.0
3418,80.0,12,10,5.0,96.0
3419,62.0,0,10,6.0,96.0
3420,77.0,12,10,5.0,96.0
3421,61.0,0,10,6.0,96.0
3422,59.0,0,10,6.0,96.0
3423,73.0,12,21,0.0,80.0
3424,78.0,0,21,5.0,96.0
3425,57.0,12,10,6.0,96.0
3426,56.0,0,10,6.0,96.0
3427,71.0,12,21,0.0,80.0
3428,53.0,12,10,6.0,96.0
3429,76.0,0,24,5.0,96.0
3430,69.0,12,21,0.0,80.0
3431,54.0,0,21,6.0,96.0
3432,74.0,0,31,5.0,96.0
3433,73.0,12,10,5.0,96.0
3434,71.0,12,10,5.0,96.0
3435,68.0,24,42,0.0,80.0
3436,53.0,0,42,6.0,96.0
3437,74.0,12,10,5.0,96.0
3438,73.0,12,10,5.0,96.0
3439,71.0,12,5,5.0,96.0
3440,69.0,6,5,5.0,96.0
3441,71.0,6,10,5.0,96.0
3442,49.0,0,21,6.0,96.0
3443,68.0,12,10,5.0,96.0
3444,69.0,12,10,5.0,96.0
3445,54.0,0,21,6.0,96.0
3446,73.0,12,10,5.0,96.0
3447,78.0,12,10,5.0,96.0
3448,50.0,0,21,6.0,96.0
3449,80.0,12,10,5.0,96.0
3450,47.0,0,21,6.0,96.0
3451,80.0,12,31,5.0,96.0
3452,73.0,24,21,0.0,80.0
3453,49.0,0,21,6.0,96.0
3454,78.0,12,10,5.0,96.0
3455,78.0,12,10,0.0,80.0
3456,50.0,0,21,6.0,96.0
3457,77.0,12,10,0.0,80.0
3458,78.0,12,10,0.0,80.0
3459,49.0,0,10,6.0,96.0
3460,78.0,0,42,5.0,96.0
3461,81.0,12,10,0.0,80.0
3462,47.0,0,10,6.0,96.0
3463,78.0,12,10,0.0,80.0
3464,45.0,0,21,6.0,96.0
3465,73.0,12,10,0.0,80.0
3466,69.0,12,10,0.0,80.0
3467,73.0,0,21,5.0,96.0
3468,42.0,0,21,6.0,96.0
3469,73.0,12,10,0.0,80.0
3470,66.0,12,10,0.0,80.0
3471,74.0,0,12,5.0,96.0
3472,47.0,0,21,6.0,96.0
3473,73.0,12,10,0.0,80.0
3474,77.0,0,10,5.0,96.0
3475,78.0,0,6,5.0,96.0
3476,49.0,0,6,6.0,96.0
3477,69.0,12,10,0.0,80.0
3478,47.0,6,6,6.0,96.0
3479,73.0,6,10,0.0,80.0
3480,45.0,0,10,6.0,96.0
3481,66.0,12,10,0.0,80.0
3482,74.0,0,12,5.0,96.0
3483,47.0,0,21,6.0,96.0
3484,73.0,12,10,0.0,80.0
3485,73.0,0,10,5.0,96.0
3486,78.0,0,6,5.0,96.0
3487,49.0,0,6,6.0,96.0
3488,69.0,12,10,0.0,80.0
3489,47.0,6,6,6.0,96.0
3490,73.0,6,10,0.0,80.0
3491,45.0,0,10,6.0,96.0
3492,71.0,0,5,5.0,96.0
3493,78.0,12,10,0.0,80.0
3494,69.0,6,5,5.0,96.0
3495,44.0,0,21,6.0,96.0
3496,77.0,6,10,0.0,80.0
3497,68.0,0,10,5.0,96.0
3498,69.0,0,6,5.0,96.0
3499,78.0,12,10,0.0,80.0
3500,42.0,0,21,3.0,80.0
3501,30.0,0,21,4.0,80.0
3502,42.0,0,21,6.0,96.0
3503,81.0,12,10,0.0,80.0
3504,78.0,12,10,0.0,80.0
3505,45.0,0,21,3.0,80.0
3506,33.0,0,21,4.0,80.0
3507,45.0,0,21,6.0,96.0
3508,73.0,12,10,0.0,80.0
3509,69.0,12,10,0.0,80.0
3510,77.0,0,21,1.0,80.0
3511,61.0,0,21,2.0,80.0
3512,49.0,0,21,3.0,80.0
3513,37.0,0,21,4.0,80.0
3514,73.0,0,21,5.0,96.0
3515,49.0,0,21,6.0,96.0
3516,73.0,12,10,0.0,80.0
3517,71.0,0,6,5.0,96.0
3518,66.0,12,10,0.0,80.0
3519,54.0,0,10,6.0,96.0
3520,69.0,6,5,5.0,96.0
3521,78.0,0,21,1.0,80.0
3522,61.0,0,21,2.0,80.0
3523,73.0,6,10,0.0,80.0
3524,68.0,0,10,5.0,96.0
3525,53.0,0,10,6.0,96.0
3526,69.0,12,10,0.0,80.0
3527,66.0,0,10,5.0,96.0
3528,54.0,0,42,3.0,80.0
3529,42.0,0,42,4.0,80.0
3530,73.0,0,21,1.0,80.0
3531,66.0,0,21,2.0,80.0
3532,54.0,0,21,6.0,96.0
3533,73.0,12,10,0.0,80.0
3534,68.0,0,10,5.0,96.0
3535,78.0,12,10,0.0,80.0
3536,69.0,0,12,5.0,96.0
3537,66.0,0,21,1.0,80.0
3538,61.0,0,21,2.0,80.0
3539,73.0,12,10,0.0,80.0
3540,68.0,0,10,5.0,96.0
3541,80.0,12,10,0.0,80.0
3542,71.0,0,12,5.0,96.0
3543,77.0,0,21,1.0,80.0
3544,59.0,0,21,2.0,80.0
3545,42.0,0,21,3.0,80.0
3546,30.0,0,21,4.0,80.0
3547,42.0,0,21,6.0,96.0
3548,73.0,12,10,0.0,80.0
3549,69.0,0,10,5.0,96.0
3550,73.0,0,12,5.0,96.0
3551,81.0,12,21,0.0,80.0
3552,78.0,0,21,1.0,80.0
3553,57.0,0,21,2.0,80.0
3554,54.0,0,21,3.0,80.0
3555,42.0,0,21,4.0,80.0
3556,54.0,0,21,6.0,96.0
3557,71.0,12,10,5.0,96.0
3558,74.0,0,12,5.0,96.0
3559,80.0,12,21,0.0,80.0
3560,80.0,0,21,1.0,80.0
3561,64.0,0,21,2.0,80.0
3562,52.0,0,21,3.0,80.0
3563,40.0,0,21,4.0,80.0
3564,52.0,0,21,6.0,96.0
3565,73.0,12,10,5.0,96.0
3566,78.0,0,12,5.0,96.0
3567,83.0,12,21,0.0,80.0
3568,78.0,0,21,1.0,80.0
3569,59.0,0,21,2.0,80.0
3570,50.0,0,21,3.0,80.0
3571,38.0,0,21,4.0,80.0
3572,50.0,0,21,6.0,96.0
3573,76.0,12,10,5.0,96.0
3574,76.0,0,12,5.0,96.0
3575,81.0,12,21,0.0,80.0
3576,78.0,0,21,1.0,80.0
3577,61.0,0,21,2.0,80.0
3578,49.0,0,21,3.0,80.0
3579,37.0,0,21,4.0,80.0
3580,49.0,0,21,6.0,96.0
3581,74.0,12,10,5.0,96.0
3582,74.0,0,12,5.0,96.0
3583,80.0,12,21,0.0,80.0
3584,77.0,0,21,1.0,80.0
3585,68.0,0,21,2.0,80.0
3586,47.0,0,21,3.0,80.0
3587,35.0,0,21,4.0,80.0
3588,47.0,0,21,6.0,96.0
3589,73.0,12,10,5.0,96.0
3590,73.0,0,12,5.0,96.0
3591,78.0,12,21,0.0,80.0
3592,78.0,0,21,1.0,80.0
3593,69.0,0,21,2.0,80.0
3594,45.0,0,21,3.0,80.0
3595,33.0,0,21,4.0,80.0
3596,45.0,0,21,6.0,96.0
3597,71.0,12,10,5.0,96.0
3598,71.0,0,12,5.0,96.0
3599,80.0,0,21,1.0,80.0
3600,68.0,0,21,2.0,80.0
3601,41.0,0,21,3.0,80.0
3602,29.0,0,21,4.0,80.0
3603,41.0,0,21,6.0,96.0
3604,69.0,12,10,5.0,96.0
3605,69.0,0,12,5.0,96.0
3606,78.0,12,21,1.0,80.0
3607,61.0,0,21,2.0,80.0
3608,42.0,0,21,3.0,80.0
3609,30.0,0,21,4.0,80.0
3610,42.0,0,21,6.0,96.0
3611,68.0,12,10,5.0,96.0
3612,85.0,12,52,0.0,80.0
3613,68.0,0,10,5.0,96.0
3614,78.0,12,10,0.0,80.0
3615,69.0,0,10,5.0,96.0
3616,77.0,12,10,0.0,80.0
3617,71.0,0,10,5.0,96.0
3618,77.0,12,42,1.0,80.0
3619,61.0,0,42,2.0,80.0
3620,47.0,0,42,3.0,80.0
3621,35.0,0,42,4.0,80.0
3622,47.0,0,42,6.0,96.0
3623,35.0,0,42,6.0,96.0
3624,78.0,12,10,0.0,80.0
3625,68.0,0,10,5.0,96.0
3626,65.0,0,10,5.0,96.0
3627,68.0,12,5,5.0,96.0
3628,80.0,12,21,0.0,80.0
3629,71.0,6,5,5.0,96.0
3630,74.0,0,12,1.0,80.0
3631,78.0,6,21,0.0,80.0
3632,59.0,0,21,2.0,80.0
3633,44.0,0,21,3.0,80.0
3634,32.0,0,21,4.0,80.0
3635,44.0,0,21,6.0,96.0
3636,71.0,12,10,1.0,80.0
3637,74.0,0,26,5.0,96.0
3638,73.0,6,5,5.0,96.0
3639,71.0,6,5,5.0,96.0
3640,49.0,0,21,6.0,96.0
3641,69.0,6,5,5.0,96.0
3642,71.0,6,10,5.0,96.0
3643,77.0,12,42,0.0,80.0
3644,68.0,0,42,1.0,80.0
3645,59.0,0,42,2.0,80.0
3646,49.0,0,42,3.0,80.0
3647,37.0,0,42,4.0,80.0
3648,53.0,0,21,6.0,96.0
3649,74.0,12,10,5.0,96.0
3650,77.0,12,10,5.0,96.0
3651,56.0,0,21,6.0,96.0
3652,71.0,12,10,5.0,96.0
3653,80.0,0,10,5.0,96.0
3654,77.0,12,21,0.0,80.0
3655,49.0,0,21,6.0,96.0
3656,71.0,12,10,5.0,96.0
3657,78.0,12,10,0.0,80.0
3658,54.0,0,21,6.0,96.0
3659,73.0,12,10,0.0,80.0
3660,69.0,0,31,5.0,96.0
3661,74.0,12,10,0.0,80.0
3662,59.0,0,21,6.0,96.0
3663,83.0,12,10,0.0,80.0
3664,68.0,0,10,5.0,96.0
3665,61.0,0,21,6.0,96.0
3666,77.0,12,31,0.0,80.0
3667,68.0,0,31,5.0,96.0
3668,49.0,24,21,6.0,96.0
3669,78.0,12,10,0.0,80.0
3670,66.0,0,10,5.0,96.0
3671,78.0,12,10,0.0,80.0
3672,54.0,0,21,6.0,96.0
3673,66.0,12,10,0.0,80.0
3674,69.0,12,10,0.0,80.0
3675,42.0,0,10,3.0,80.0
3676,30.0,0,10,4.0,80.0
3677,42.0,0,10,6.0,96.0
3678,66.0,0,42,5.0,96.0
3679,73.0,12,10,0.0,80.0
3680,44.0,0,10,3.0,80.0
3681,32.0,0,10,4.0,80.0
3682,44.0,0,10,6.0,96.0
3683,78.0,12,10,0.0,80.0
3684,45.0,0,21,3.0,80.0
3685,33.0,0,21,4.0,80.0
3686,45.0,0,21,6.0,96.0
3687,76.0,12,10,0.0,80.0
3688,74.0,12,10,0.0,80.0
3689,69.0,0,21,1.0,80.0
3690,66.0,0,21,2.0,80.0
3691,42.0,0,21,3.0,80.0
3692,30.0,0,21,4.0,80.0
3693,78.0,0,21,5.0,96.0
3694,42.0,0,21,6.0,96.0
3695,73.0,12,10,0.0,80.0
3696,66.0,12,10,0.0,80.0
3697,74.0,0,12,5.0,96.0
3698,71.0,0,21,1.0,80.0
3699,66.0,0,21,2.0,80.0
3700,47.0,0,21,3.0,80.0
3701,35.0,0,21,4.0,80.0
3702,47.0,0,21,6.0,96.0
3703,77.0,0,10,5.0,96.0
3704,74.0,12,12,0.0,80.0
3705,78.0,0,6,5.0,96.0
3706,73.0,12,12,0.0,80.0
3707,71.0,12,10,0.0,80.0
3708,66.0,12,10,0.0,80.0
3709,61.0,0,21,1.0,80.0
3710,66.0,0,21,2.0,80.0
3711,45.0,0,21,3.0,80.0
3712,33.0,0,21,4.0,80.0
3713,45.0,0,21,6.0,96.0
3714,73.0,12,12,0.0,80.0
3715,71.0,12,12,0.0,80.0
3716,73.0,0,21,5.0,96.0
3717,69.0,12,10,0.0,80.0
3718,65.0,12,10,0.0,80.0
3719,71.0,0,12,5.0,96.0
3720,65.0,0,21,1.0,80.0
3721,68.0,0,21,2.0,80.0
3722,44.0,0,21,3.0,80.0
3723,32.0,0,21,4.0,80.0
3724,44.0,0,21,6.0,96.0
3725,77.0,0,10,5.0,96.0
3726,71.0,12,12,0.0,80.0
3727,78.0,0,6,5.0,96.0
3728,69.0,12,12,0.0,80.0
3729,68.0,12,10,0.0,80.0
3730,69.0,12,21,0.0,80.0
3731,66.0,0,21,1.0,80.0
3732,61.0,0,21,2.0,80.0
3733,42.0,0,21,3.0,80.0
3734,30.0,0,21,4.0,80.0
3735,42.0,0,21,6.0,96.0
3736,69.0,12,10,5.0,96.0
3737,71.0,0,10,5.0,96.0
3738,73.0,12,10,5.0,96.0
3739,74.0,12,3,5.0,96.0
3740,81.0,12,42,0.0,80.0
3741,47.0,0,21,6.0,96.0
3742,77.0,12,12,5.0,96.0
3743,78.0,0,12,5.0,96.0
3744,80.0,12,10,5.0,96.0
3745,73.0,12,3,5.0,96.0
3746,80.0,12,42,0.0,80.0
3747,45.0,0,21,6.0,96.0
3748,77.0,12,12,5.0,96.0
3749,78.0,0,12,5.0,96.0
3750,80.0,12,10,5.0,96.0
3751,71.0,12,3,5.0,96.0
3752,78.0,12,42,0.0,80.0
3753,44.0,0,21,6.0,96.0
3754,77.0,12,12,5.0,96.0
3755,78.0,0,12,5.0,96.0
3756,77.0,12,21,0.0,80.0
3757,80.0,12,10,5.0,96.0
3758,69.0,0,3,5.0,96.0
3759,78.0,12,21,0.0,80.0
3760,42.0,0,21,6.0,96.0
3761,73.0,12,12,5.0,96.0
3762,80.0,12,10,0.0,96.0
3763,77.0,0,12,5.0,96.0
3764,73.0,0,21,1.0,96.0
3765,71.0,0,21,2.0,96.0
3766,49.0,0,21,3.0,96.0
3767,37.0,0,21,4.0,96.0
3768,49.0,0,21,6.0,96.0
3769,77.0,12,10,0.0,96.0
3770,80.0,0,10,5.0,96.0
3771,78.0,0,12,5.0,96.0
3772,66.0,0,21,1.0,96.0
3773,69.0,0,21,2.0,96.0
3774,50.0,0,21,3.0,96.0
3775,38.0,0,21,4.0,96.0
3776,50.0,0,21,6.0,96.0
3777,77.0,12,12,5.0,96.0
3778,78.0,12,31,0.0,96.0
3779,78.0,0,10,5.0,96.0
3780,74.0,12,21,1.0,96.0
3781,68.0,0,21,2.0,96.0
3782,47.0,0,21,3.0,96.0
3783,35.0,0,21,4.0,96.0
3784,59.0,0,21,6.0,96.0
3785,80.0,12,10,0.0,96.0
3786,83.0,0,10,5.0,96.0
3787,73.0,0,21,1.0,96.0
3788,68.0,0,21,2.0,96.0
3789,49.0,0,21,3.0,96.0
3790,37.0,0,21,4.0,96.0
3791,61.0,0,21,6.0,96.0
3792,77.0,12,31,0.0,96.0
3793,80.0,0,31,5.0,96.0
3794,73.0,24,21,1.0,96.0
3795,71.0,0,21,2.0,96.0
3796,37.0,0,21,3.0,96.0
3797,25.0,0,21,4.0,96.0
3798,49.0,0,21,6.0,96.0
3799,78.0,12,10,0.0,96.0
3800,78.0,0,10,5.0,96.0
3801,78.0,0,12,5.0,96.0
3802,42.0,0,21,6.0,96.0
3803,76.0,12,10,5.0,96.0
3804,76.0,12,12,5.0,96.0
3805,78.0,12,42,0.0,96.0
3806,73.0,0,42,1.0,96.0
3807,69.0,0,42,2.0,96.0
3808,42.0,0,42,3.0,96.0
3809,30.0,0,42,4.0,96.0
3810,49.0,0,21,6.0,96.0
3811,75.0,12,10,5.0,96.0
3812,75.0,12,12,5.0,96.0
3813,54.0,0,21,6.0,96.0
3814,73.0,12,10,5.0,96.0
3815,73.0,12,12,5.0,96.0
3816,57.0,0,21,6.0,96.0
3817,72.0,12,10,5.0,96.0
3818,72.0,12,10,5.0,96.0
3819,81.0,12,10,5.0,96.0
3820,56.0,0,31,6.0,96.0
3821,54.0,12,10,6.0,96.0
3822,80.0,12,31,5.0,96.0
3823,80.0,12,21,0.0,80.0
3824,71.0,0,21,1.0,80.0
3825,61.0,0,21,2.0,80.0
3826,53.0,0,21,6.0,96.0
3827,71.0,12,10,5.0,96.0
3828,73.0,12,10,5.0,96.0
3829,49.0,0,21,6.0,96.0
3830,74.0,12,10,5.0,96.0
3831,70.0,12,10,5.0,96.0
3832,80.0,12,10,5.0,96.0
3833,54.0,0,31,6.0,96.0
3834,52.0,12,10,6.0,96.0
3835,78.0,12,31,5.0,96.0
3836,78.0,12,21,0.0,80.0
3837,69.0,0,21,1.0,80.0
3838,66.0,0,21,2.0,80.0
3839,51.0,0,21,6.0,96.0
3840,69.0,12,12,5.0,96.0
3841,71.0,12,12,5.0,96.0
3842,47.0,0,21,6.0,96.0
3843,73.0,12,10,5.0,96.0
3844,68.0,12,3,5.0,96.0
3845,52.0,0,21,6.0,96.0
3846,78.0,12,12,5.0,96.0
3847,76.0,12,12,5.0,96.0
3848,56.0,0,21,6.0,96.0
3849,75.0,12,10,5.0,96.0
3850,73.0,0,3,5.0,96.0
3851,76.0,12,21,0.0,80.0
3852,73.0,0,21,1.0,80.0
3853,68.0,0,21,2.0,80.0
3854,58.0,0,21,6.0,96.0
3855,83.0,12,12,5.0,96.0
3856,82.0,12,12,5.0,96.0
3857,61.0,0,21,6.0,96.0
3858,80.0,12,10,5.0,96.0
3859,79.0,0,10,5.0,96.0
3860,75.0,12,21,0.0,80.0
3861,70.0,0,21,1.0,80.0
3862,67.0,0,21,2.0,80.0
3863,51.0,0,21,6.0,96.0
3864,76.0,12,10,5.0,96.0
3865,75.0,12,10,5.0,96.0
3866,55.0,0,21,6.0,96.0
3867,73.0,12,10,5.0,96.0
3868,71.0,12,10,5.0,96.0
3869,44.0,0,21,6.0,96.0
3870,70.0,12,10,5.0,96.0
3871,68.0,12,10,5.0,96.0
3872,63.0,0,21,6.0,96.0
3873,47.0,0,21,6.0,96.0
3874,67.0,12,10,5.0,96.0
3875,68.0,12,10,5.0,96.0
3876,61.0,0,21,6.0,96.0
3877,52.0,0,21,6.0,96.0
3878,72.0,12,10,5.0,96.0
3879,73.0,12,10,5.0,96.0
3880,67.0,0,21,6.0,96.0
3881,46.0,0,21,6.0,96.0
3882,76.0,12,10,5.0,96.0
3883,75.0,12,10,5.0,96.0
3884,56.0,0,21,6.0,96.0
3885,47.0,0,21,6.0,96.0
3886,79.0,12,10,5.0,96.0
3887,80.0,12,10,5.0,96.0
3888,68.0,0,42,6.0,96.0
3889,44.0,0,21,6.0,96.0
3890,83.0,12,10,5.0,96.0
3891,74.0,0,10,5.0,96.0
3892,73.0,12,10,5.0,96.0
3893,59.0,12,21,3.0,80.0
3894,47.0,0,21,4.0,80.0
3895,59.0,0,21,6.0,96.0
3896,74.0,0,31,5.0,96.0
3897,56.0,24,21,3.0,80.0
3898,44.0,0,21,4.0,80.0
3899,56.0,0,21,6.0,96.0
3900,78.0,12,10,5.0,96.0
3901,76.0,0,10,5.0,96.0
3902,68.0,0,84,1.0,80.0
3903,52.0,12,21,3.0,80.0
3904,40.0,0,21,4.0,80.0
3905,52.0,0,21,6.0,96.0
3906,74.0,12,10,5.0,96.0
3907,71.0,12,108,0.0,80.0
3908,64.0,0,108,2.0,80.0
3909,73.0,0,12,5.0,96.0
3910,73.0,12,21,1.0,80.0
3911,57.0,0,21,3.0,80.0
3912,45.0,0,21,4.0,80.0
3913,57.0,0,21,6.0,96.0
3914,71.0,12,10,5.0,96.0
3915,74.0,0,12,5.0,96.0
3916,69.0,12,21,0.0,80.0
3917,66.0,0,21,1.0,80.0
3918,54.0,0,21,3.0,80.0
3919,42.0,0,21,4.0,80.0
3920,54.0,0,21,6.0,96.0
3921,73.0,12,10,5.0,96.0
3922,71.0,0,12,5.0,96.0
3923,69.0,0,42,2.0,80.0
3924,71.0,0,21,1.0,80.0
3925,50.0,0,21,3.0,80.0
3926,38.0,0,21,4.0,80.0
3927,50.0,0,21,6.0,96.0
3928,69.0,12,12,5.0,96.0
3929,68.0,0,12,5.0,96.0
3930,74.0,12,21,1.0,80.0
3931,71.0,0,21,2.0,80.0
3932,47.0,0,21,3.0,80.0
3933,35.0,0,21,4.0,80.0
3934,47.0,0,21,6.0,96.0
3935,69.0,12,10,5.0,96.0
3936,71.0,0,12,5.0,96.0
3937,78.0,12,63,0.0,80.0
3938,52.0,0,21,3.0,80.0
3939,40.0,0,21,4.0,80.0
3940,52.0,0,21,6.0,96.0
3941,68.0,12,12,5.0,96.0
3942,66.0,0,12,5.0,96.0
3943,68.0,12,42,1.0,80.0
3944,59.0,0,42,2.0,80.0
3945,76.0,12,21,0.0,80.0
3946,47.0,0,21,3.0,80.0
3947,35.0,0,21,4.0,80.0
3948,47.0,0,21,6.0,96.0
3949,64.0,12,10,5.0,96.0
3950,76.0,0,10,5.0,96.0
3951,44.0,12,21,3.0,80.0
3952,32.0,0,21,4.0,80.0
3953,44.0,0,21,6.0,96.0
3954,74.0,12,10,5.0,96.0
3955,73.0,0,10,5.0,96.0
3956,68.0,12,21,0.0,80.0
3957,40.0,0,21,3.0,80.0
3958,28.0,0,21,4.0,80.0
3959,40.0,0,21,6.0,96.0
3960,74.0,12,10,5.0,96.0
3961,69.0,12,10,0.0,80.0
3962,74.0,0,12,5.0,96.0
3963,45.0,0,21,6.0,96.0
3964,68.0,12,10,0.0,80.0
3965,73.0,0,10,5.0,96.0
3966,69.0,12,10,0.0,80.0
3967,71.0,0,12,5.0,96.0
3968,45.0,0,42,3.0,80.0
3969,33.0,0,42,4.0,80.0
3970,49.0,0,21,6.0,96.0
3971,73.0,12,10,0.0,80.0
3972,69.0,0,10,5.0,96.0
3973,69.0,12,10,0.0,80.0
3974,52.0,0,21,6.0,96.0
3975,64.0,12,10,0.0,80.0
3976,61.0,12,10,0.0,80.0
3977,57.0,0,10,6.0,96.0
3978,76.0,0,21,5.0,96.0
3979,64.0,12,10,0.0,80.0
3980,49.0,0,10,6.0,96.0
3981,57.0,12,10,0.0,80.0
3982,78.0,0,10,5.0,96.0
3983,50.0,0,21,6.0,96.0
3984,64.0,12,10,0.0,80.0
3985,80.0,0,10,5.0,96.0
3986,61.0,12,10,0.0,80.0
3987,81.0,0,10,5.0,96.0
3988,52.0,0,21,6.0,96.0
3989,64.0,12,10,0.0,80.0
3990,80.0,0,10,5.0,96.0
3991,57.0,12,10,0.0,80.0
3992,81.0,0,21,5.0,96.0
3993,54.0,0,21,6.0,96.0
3994,64.0,12,10,0.0,80.0
3995,61.0,12,10,0.0,80.0
3996,76.0,0,21,5.0,96.0
3997,57.0,0,21,6.0,96.0
3998,64.0,12,10,0.0,80.0
3999,80.0,0,6,5.0,96.0
4000,69.0,12,10,0.0,80.0
4001,78.0,6,6,5.0,96.0
4002,80.0,0,6,5.0,96.0
4003,50.0,0,21,6.0,96.0
4004,68.0,6,10,0.0,80.0
4005,78.0,6,5,5.0,96.0
4006,69.0,6,10,0.0,80.0
4007,49.0,0,10,6.0,96.0
4008,76.0,0,21,5.0,96.0
4009,73.0,12,10,0.0,80.0
4010,47.0,0,10,6.0,96.0
4011,69.0,12,10,0.0,80.0
4012,49.0,0,21,6.0,96.0
4013,64.0,12,10,0.0,80.0
4014,61.0,12,10,0.0,80.0
4015,76.0,0,12,5.0,96.0
4016,45.0,0,21,6.0,96.0
4017,64.0,12,10,0.0,80.0
4018,79.0,0,10,5.0,96.0
4019,57.0,12,10,0.0,80.0
4020,78.0,0,12,5.0,96.0
4021,50.0,0,21,6.0,96.0
4022,64.0,12,10,0.0,80.0
4023,61.0,12,10,0.0,80.0
4024,76.0,0,21,5.0,96.0
4025,57.0,0,21,6.0,96.0
4026,64.0,12,10,0.0,80.0
4027,69.0,12,10,0.0,80.0
4028,74.0,0,21,5.0,96.0
4029,54.0,0,21,6.0,96.0
4030,64.0,12,10,0.0,80.0
4031,73.0,0,6,5.0,96.0
4032,71.0,12,10,0.0,80.0
4033,74.0,6,6,5.0,96.0
4034,56.0,0,21,6.0,96.0
4035,64.0,6,10,0.0,80.0
4036,76.0,0,10,5.0,96.0
4037,73.0,0,10,5.0,96.0
4038,73.0,12,21,0.0,80.0
4039,57.0,0,21,6.0,96.0
4040,69.0,12,10,5.0,96.0
4041,71.0,0,6,5.0,96.0
4042,69.0,6,6,5.0,96.0
4043,71.0,12,21,0.0,80.0
4044,56.0,0,21,6.0,96.0
4045,71.0,6,10,5.0,96.0
4046,74.0,12,21,0.0,80.0
4047,54.0,0,21,6.0,96.0
4048,81.0,0,6,5.0,96.0
4049,80.0,6,6,5.0,96.0
4050,73.0,24,21,0.0,80.0
4051,52.0,0,21,6.0,96.0
4052,78.0,6,10,5.0,96.0
4053,80.0,0,10,5.0,96.0
4054,71.0,12,21,0.0,80.0
4055,50.0,0,21,6.0,96.0
4056,81.0,12,10,5.0,96.0
4057,83.0,0,6,5.0,96.0
4058,49.0,0,10,6.0,96.0
4059,81.0,6,5,5.0,96.0
4060,80.0,6,5,5.0,96.0
4061,69.0,12,21,0.0,80.0
4062,47.0,0,10,6.0,96.0
4063,81.0,6,5,5.0,96.0
4064,45.0,0,10,6.0,96.0
4065,83.0,0,21,5.0,96.0
4066,44.0,12,10,6.0,96.0
4067,42.0,0,10,6.0,96.0
4068,74.0,12,21,5.0,96.0
4069,44.0,12,10,6.0,96.0
4070,76.0,6,52,0.0,80.0
4071,74.0,12,6,5.0,96.0
4072,73.0,6,6,5.0,96.0
4073,74.0,0,6,5.0,96.0
4074,45.0,0,21,6.0,96.0
4075,78.0,6,10,0.0,80.0
4076,73.0,6,6,5.0,96.0
4077,74.0,0,6,5.0,96.0
4078,80.0,6,10,0.0,80.0
4079,73.0,6,5,5.0,96.0
4080,50.0,0,21,6.0,96.0
4081,81.0,6,10,0.0,80.0
4082,71.0,0,10,5.0,96.0
4083,73.0,0,6,5.0,96.0
4084,80.0,12,10,0.0,80.0
4085,71.0,6,6,5.0,96.0
4086,73.0,0,6,5.0,96.0
4087,52.0,0,21,6.0,96.0
4088,78.0,6,10,0.0,80.0
4089,71.0,6,6,5.0,96.0
4090,73.0,0,6,5.0,96.0
4091,76.0,6,10,0.0,96.0
4092,71.0,6,5,5.0,96.0
4093,68.0,0,21,1.0,96.0
4094,64.0,0,21,2.0,96.0
4095,40.0,0,21,3.0,96.0
4096,28.0,0,21,4.0,96.0
4097,40.0,0,21,6.0,96.0
4098,74.0,6,10,0.0,96.0
4099,69.0,0,10,5.0,96.0
4100,73.0,12,10,0.0,96.0
4101,45.0,0,21,3.0,96.0
4102,33.0,0,21,4.0,96.0
4103,45.0,0,21,6.0,96.0
4104,71.0,12,10,0.0,96.0
4105,69.0,12,10,0.0,96.0
4106,69.0,0,42,5.0,96.0
4107,49.0,0,21,3.0,96.0
4108,37.0,0,21,4.0,96.0
4109,49.0,0,21,6.0,96.0
4110,68.0,12,10,0.0,96.0
4111,66.0,12,10,0.0,96.0
4112,64.0,0,63,2.0,96.0
4113,54.0,0,21,3.0,96.0
4114,42.0,0,21,4.0,96.0
4115,54.0,0,21,6.0,96.0
4116,79.0,12,10,0.0,96.0
4117,79.0,0,10,5.0,96.0
4118,78.0,12,10,0.0,96.0
4119,62.0,0,10,2.0,96.0
4120,78.0,0,10,5.0,96.0
4121,57.0,0,21,3.0,96.0
4122,45.0,0,21,4.0,96.0
4123,57.0,0,21,6.0,96.0
4124,76.0,12,10,0.0,96.0
4125,61.0,0,10,2.0,96.0
4126,76.0,0,10,5.0,96.0
4127,69.0,0,96,1.0,96.0
4128,74.0,12,10,0.0,96.0
4129,74.0,0,10,5.0,96.0
4130,59.0,0,21,2.0,96.0
4131,47.0,0,21,3.0,96.0
4132,35.0,0,21,4.0,96.0
4133,47.0,0,21,6.0,96.0
4134,73.0,12,10,0.0,96.0
4135,76.0,0,10,1.0,96.0
4136,73.0,0,10,5.0,96.0
4137,71.0,12,10,0.0,96.0
4138,74.0,0,10,1.0,96.0
4139,71.0,0,10,5.0,96.0
4140,66.0,0,21,2.0,96.0
4141,50.0,0,21,3.0,96.0
4142,38.0,0,21,4.0,96.0
4143,50.0,0,21,6.0,96.0
4144,69.0,12,10,0.0,96.0
4145,73.0,0,10,1.0,96.0
4146,69.0,0,10,5.0,96.0
4147,68.0,12,10,0.0,96.0
4148,68.0,0,10,5.0,96.0
4149,68.0,0,21,2.0,96.0
4150,52.0,0,21,3.0,96.0
4151,40.0,0,21,4.0,96.0
4152,52.0,0,21,6.0,96.0
4153,66.0,12,10,0.0,96.0
4154,66.0,0,10,5.0,96.0
4155,64.0,12,10,0.0,96.0
4156,64.0,0,10,5.0,96.0
4157,71.0,0,21,2.0,96.0
4158,56.0,0,21,3.0,96.0
4159,44.0,0,21,4.0,96.0
4160,56.0,0,21,6.0,96.0
4161,62.0,12,10,0.0,96.0
4162,62.0,0,10,5.0,96.0
4163,61.0,0,12,5.0,96.0
4164,71.0,0,63,1.0,96.0
4165,61.0,12,21,0.0,96.0
4166,64.0,0,21,2.0,96.0
4167,57.0,0,21,3.0,96.0
4168,45.0,0,21,4.0,96.0
4169,57.0,0,21,6.0,96.0
4170,69.0,0,12,5.0,96.0
4171,69.0,24,21,0.0,96.0
4172,69.0,0,21,1.0,96.0
4173,66.0,0,21,2.0,96.0
4174,54.0,0,21,3.0,96.0
4175,42.0,0,21,4.0,96.0
4176,54.0,0,21,6.0,96.0
4177,59.0,0,12,5.0,96.0
4178,59.0,24,21,0.0,96.0
4179,66.0,0,21,1.0,96.0
4180,66.0,0,21,2.0,96.0
4181,50.0,0,21,3.0,96.0
4182,38.0,0,21,4.0,96.0
4183,50.0,0,21,6.0,96.0
4184,69.0,0,6,5.0,96.0
4185,68.0,6,6,5.0,96.0
4186,66.0,6,6,5.0,96.0
4187,68.0,24,21,0.0,96.0
4188,64.0,0,21,1.0,96.0
4189,59.0,0,21,2.0,96.0
4190,52.0,0,21,3.0,96.0
4191,40.0,0,21,4.0,96.0
4192,52.0,0,21,6.0,96.0
4193,68.0,6,5,5.0,96.0
4194,69.0,6,12,0.0,80.0
4195,64.0,0,12,1.0,80.0
4196,61.0,0,12,2.0,80.0
4197,45.0,0,21,3.0,80.0
4198,33.0,0,21,4.0,80.0
4199,45.0,0,21,6.0,96.0
4200,73.0,12,10,0.0,80.0
4201,69.0,0,10,1.0,80.0
4202,64.0,0,10,2.0,80.0
4203,68.0,0,24,5.0,96.0
4204,73.0,12,12,0.0,80.0
4205,69.0,0,12,1.0,80.0
4206,64.0,0,12,2.0,80.0
4207,57.0,0,21,3.0,80.0
4208,45.0,0,21,4.0,80.0
4209,69.0,0,21,5.0,96.0
4210,57.0,0,21,6.0,96.0
4211,77.0,12,10,0.0,80.0
4212,71.0,0,10,1.0,80.0
4213,68.0,0,10,2.0,80.0
4214,56.0,0,6,6.0,96.0
4215,77.0,12,12,0.0,80.0
4216,71.0,0,12,1.0,80.0
4217,68.0,0,12,2.0,80.0
4218,57.0,6,6,6.0,96.0
4219,56.0,0,21,3.0,80.0
4220,44.0,0,21,4.0,80.0
4221,78.0,6,10,0.0,80.0
4222,73.0,0,10,1.0,80.0
4223,69.0,0,10,2.0,80.0
4224,56.0,0,10,6.0,96.0
4225,78.0,12,12,0.0,80.0
4226,73.0,0,12,1.0,80.0
4227,69.0,0,12,2.0,80.0
4228,73.0,0,12,5.0,96.0
4229,71.0,0,6,5.0,96.0
4230,54.0,0,21,3.0,80.0
4231,42.0,0,21,4.0,80.0
4232,54.0,0,21,6.0,96.0
4233,80.0,12,10,0.0,80.0
4234,68.0,0,10,1.0,80.0
4235,71.0,0,10,2.0,80.0
4236,73.0,6,6,5.0,96.0
4237,71.0,0,6,5.0,96.0
4238,73.0,6,6,5.0,96.0
4239,53.0,0,21,6.0,96.0
4240,74.0,6,10,5.0,96.0
4241,73.0,12,12,5.0,96.0
4242,80.0,6,42,0.0,80.0
4243,68.0,0,42,1.0,80.0
4244,71.0,0,42,2.0,80.0
4245,53.0,0,42,3.0,80.0
4246,41.0,0,42,4.0,80.0
4247,56.0,0,21,6.0,96.0
4248,71.0,12,12,5.0,96.0
4249,69.0,12,12,5.0,96.0
4250,61.0,0,21,6.0,96.0
4251,68.0,12,10,5.0,96.0
4252,77.0,12,21,1.0,80.0
4253,68.0,0,21,2.0,80.0
4254,49.0,0,21,3.0,80.0
4255,37.0,0,21,4.0,80.0
4256,73.0,0,21,5.0,96.0
4257,49.0,0,21,6.0,96.0
4258,71.0,0,10,5.0,96.0
4259,54.0,0,21,6.0,96.0
4260,73.0,12,10,0.0,80.0
4261,69.0,0,10,5.0,96.0
4262,74.0,12,10,0.0,80.0
4263,68.0,0,10,5.0,96.0
4264,78.0,24,42,1.0,80.0
4265,66.0,0,42,2.0,80.0
4266,54.0,0,42,3.0,80.0
4267,42.0,0,42,4.0,80.0
4268,57.0,0,21,6.0,96.0
4269,76.0,12,10,0.0,80.0
4270,66.0,0,10,5.0,96.0
4271,81.0,0,6,5.0,96.0
4272,78.0,12,10,0.0,80.0
4273,80.0,6,6,5.0,96.0
4274,51.0,0,21,6.0,96.0
4275,72.0,6,10,0.0,80.0
4276,73.0,12,10,0.0,80.0
4277,78.0,0,21,1.0,80.0
4278,69.0,0,21,2.0,80.0
4279,54.0,0,21,3.0,80.0
4280,42.0,0,21,4.0,80.0
4281,54.0,0,21,6.0,96.0
4282,74.0,12,10,0.0,80.0
4283,81.0,0,42,5.0,96.0
4284,66.0,12,21,0.0,80.0
4285,48.0,0,21,6.0,96.0
4286,75.0,12,12,5.0,96.0
4287,76.0,12,12,5.0,96.0
4288,75.0,0,42,1.0,80.0
4289,69.0,0,42,2.0,80.0
4290,48.0,0,42,3.0,80.0
4291,36.0,0,42,4.0,80.0
4292,51.0,0,21,6.0,96.0
4293,78.0,12,10,5.0,96.0
4294,72.0,12,12,5.0,96.0
4295,44.0,0,21,6.0,96.0
4296,75.0,12,10,5.0,96.0
4297,73.0,0,12,5.0,96.0
4298,73.0,12,21,1.0,80.0
4299,68.0,0,21,2.0,80.0
4300,49.0,0,21,3.0,80.0
4301,37.0,0,21,4.0,80.0
4302,49.0,0,21,6.0,96.0
4303,76.0,12,10,5.0,96.0
4304,75.0,0,10,5.0,96.0
4305,72.0,0,21,1.0,80.0
4306,68.0,0,21,2.0,80.0
4307,44.0,0,21,3.0,80.0
4308,32.0,0,21,4.0,80.0
4309,56.0,0,21,6.0,96.0
4310,72.0,12,12,5.0,96.0
4311,70.0,12,12,5.0,96.0
4312,68.0,12,10,5.0,96.0
4313,73.0,0,12,5.0,96.0
4314,75.0,12,6,5.0,96.0
4315,68.0,12,21,1.0,80.0
4316,61.0,0,21,2.0,80.0
4317,40.0,0,21,3.0,80.0
4318,28.0,0,21,4.0,80.0
4319,52.0,0,21,6.0,96.0
4320,76.0,6,5,5.0,96.0
4321,75.0,0,12,5.0,96.0
4322,76.0,12,6,5.0,96.0
4323,72.0,6,21,1.0,80.0
4324,68.0,0,21,2.0,80.0
4325,44.0,0,21,3.0,80.0
4326,32.0,0,21,4.0,80.0
4327,56.0,0,21,6.0,96.0
4328,78.0,6,5,5.0,96.0
4329,76.0,0,10,5.0,96.0
4330,73.0,6,21,1.0,80.0
4331,68.0,0,21,2.0,80.0
4332,49.0,0,21,3.0,80.0
4333,37.0,0,21,4.0,80.0
4334,61.0,0,21,6.0,96.0
4335,73.0,12,12,5.0,96.0
4336,72.0,12,12,5.0,96.0
4337,70.0,12,10,5.0,96.0
4338,75.0,0,10,5.0,96.0
4339,75.0,12,21,1.0,80.0
4340,68.0,0,21,2.0,80.0
4341,48.0,0,21,3.0,80.0
4342,36.0,0,21,4.0,80.0
4343,60.0,0,21,6.0,96.0
4344,78.0,12,10,5.0,96.0
4345,76.0,0,10,5.0,96.0
4346,73.0,12,21,1.0,80.0
4347,68.0,0,21,2.0,80.0
4348,49.0,0,21,3.0,80.0
4349,37.0,0,21,4.0,80.0
4350,61.0,0,21,6.0,96.0
4351,80.0,12,10,5.0,96.0
4352,78.0,0,3,5.0,96.0
4353,72.0,12,21,1.0,80.0
4354,63.0,0,21,2.0,80.0
4355,51.0,0,21,3.0,80.0
4356,39.0,0,21,4.0,80.0
4357,63.0,0,21,6.0,96.0
4358,75.0,12,12,5.0,96.0
4359,73.0,12,12,5.0,96.0
4360,72.0,12,10,5.0,96.0
4361,75.0,0,3,5.0,96.0
4362,75.0,12,21,1.0,80.0
4363,68.0,0,21,2.0,80.0
4364,48.0,0,21,3.0,80.0
4365,36.0,0,21,4.0,80.0
4366,60.0,0,21,6.0,96.0
4367,69.0,12,12,5.0,96.0
4368,68.0,0,12,5.0,96.0
4369,72.0,12,21,1.0,80.0
4370,63.0,0,21,2.0,80.0
4371,44.0,0,21,3.0,80.0
4372,32.0,0,21,4.0,80.0
4373,56.0,0,21,6.0,96.0
4374,66.0,12,10,5.0,96.0
4375,65.0,0,3,5.0,96.0
4376,73.0,12,21,1.0,80.0
4377,65.0,0,21,2.0,80.0
4378,49.0,0,21,3.0,80.0
4379,37.0,0,21,4.0,80.0
4380,61.0,0,21,6.0,96.0
4381,80.0,12,312,0.0,80.0
4382,74.0,12,12,5.0,96.0
4383,73.0,12,12,5.0,96.0
4384,56.0,0,21,6.0,96.0
4385,71.0,12,10,5.0,96.0
4386,73.0,12,3,5.0,96.0
4387,58.0,0,21,6.0,96.0
4388,67.0,12,12,5.0,96.0
4389,66.0,12,12,5.0,96.0
4390,54.0,0,21,6.0,96.0
4391,64.0,12,10,5.0,96.0
4392,63.0,12,3,5.0,96.0
4393,59.0,0,21,6.0,96.0
4394,73.0,12,12,5.0,96.0
4395,71.0,12,12,5.0,96.0
4396,56.0,0,21,6.0,96.0
4397,70.0,12,10,5.0,96.0
4398,71.0,0,3,5.0,96.0
4399,53.0,0,21,6.0,96.0
4400,66.0,12,12,5.0,96.0
4401,65.0,0,12,5.0,96.0
4402,68.0,12,21,1.0,80.0
4403,65.0,0,21,2.0,80.0
4404,49.0,0,21,3.0,80.0
4405,37.0,0,21,4.0,80.0
4406,49.0,0,21,6.0,96.0
4407,63.0,12,10,5.0,96.0
4408,61.0,0,3,5.0,96.0
4409,80.0,12,63,0.0,80.0
4410,69.0,12,21,1.0,80.0
4411,66.0,0,21,2.0,80.0
4412,54.0,0,21,3.0,80.0
4413,42.0,0,21,4.0,80.0
4414,54.0,0,21,6.0,96.0
4415,69.0,12,12,5.0,96.0
4416,68.0,0,12,5.0,96.0
4417,51.0,0,21,6.0,96.0
4418,66.0,12,10,5.0,96.0
4419,72.0,0,3,5.0,96.0
4420,78.0,12,42,0.0,80.0
4421,68.0,12,21,1.0,80.0
4422,63.0,0,21,2.0,80.0
4423,56.0,0,21,3.0,80.0
4424,44.0,0,21,4.0,80.0
4425,56.0,0,21,6.0,96.0
4426,69.0,12,12,5.0,96.0
4427,68.0,0,12,5.0,96.0
4428,44.0,0,21,6.0,96.0
4429,66.0,12,10,5.0,96.0
4430,73.0,0,3,5.0,96.0
4431,76.0,12,31,0.0,80.0
4432,68.0,12,21,1.0,80.0
4433,61.0,0,21,2.0,80.0
4434,57.0,0,21,3.0,80.0
4435,45.0,0,21,4.0,80.0
4436,45.0,0,21,6.0,96.0
4437,73.0,12,10,0.0,80.0
4438,69.0,0,12,5.0,96.0
4439,72.0,12,10,0.0,80.0
4440,68.0,0,12,5.0,96.0
4441,57.0,0,21,6.0,96.0
4442,73.0,12,10,0.0,80.0
4443,66.0,0,10,5.0,96.0
4444,75.0,0,3,5.0,96.0
4445,75.0,12,21,0.0,80.0
4446,66.0,0,21,1.0,80.0
4447,68.0,0,21,2.0,80.0
4448,48.0,0,21,3.0,80.0
4449,36.0,0,21,4.0,80.0
4450,48.0,0,21,6.0,96.0
4451,69.0,12,12,5.0,96.0
4452,68.0,0,12,5.0,96.0
4453,60.0,0,21,6.0,96.0
4454,66.0,12,10,5.0,96.0
4455,76.0,0,6,5.0,96.0
4456,75.0,6,6,5.0,96.0
4457,80.0,12,42,0.0,80.0
4458,73.0,6,6,5.0,96.0
4459,64.0,12,21,1.0,80.0
4460,61.0,0,21,2.0,80.0
4461,49.0,0,21,3.0,80.0
4462,37.0,0,21,4.0,80.0
4463,61.0,0,21,6.0,96.0
4464,72.0,6,6,5.0,96.0
4465,73.0,0,12,5.0,96.0
4466,76.0,6,21,0.0,80.0
4467,61.0,0,21,2.0,80.0
4468,52.0,0,21,3.0,80.0
4469,40.0,0,21,4.0,80.0
4470,52.0,0,21,6.0,96.0
4471,68.0,12,10,5.0,96.0
4472,69.0,0,10,5.0,96.0
4473,68.0,0,42,1.0,80.0
4474,73.0,12,21,0.0,80.0
4475,61.0,0,21,2.0,80.0
4476,54.0,0,21,3.0,80.0
4477,42.0,0,21,4.0,80.0
4478,54.0,0,21,6.0,96.0
4479,75.0,12,12,5.0,96.0
4480,76.0,0,12,5.0,96.0
4481,78.0,12,21,0.0,80.0
4482,69.0,0,21,2.0,80.0
4483,51.0,0,21,3.0,80.0
4484,39.0,0,21,4.0,80.0
4485,51.0,0,21,6.0,96.0
4486,78.0,12,10,5.0,96.0
4487,72.0,0,10,5.0,96.0
4488,66.0,0,42,1.0,80.0
4489,75.0,12,21,0.0,80.0
4490,68.0,0,21,2.0,80.0
4491,56.0,0,21,3.0,80.0
4492,44.0,0,21,4.0,80.0
4493,56.0,0,21,6.0,96.0
4494,81.0,12,10,5.0,96.0
4495,80.0,0,10,5.0,96.0
4496,72.0,12,21,0.0,80.0
4497,63.0,0,21,1.0,80.0
4498,68.0,0,21,2.0,80.0
4499,44.0,0,21,3.0,80.0
4500,32.0,0,21,4.0,80.0
4501,44.0,0,21,6.0,96.0
4502,78.0,12,10,5.0,96.0
4503,76.0,0,10,5.0,96.0
4504,68.0,12,21,0.0,80.0
4505,64.0,0,21,1.0,80.0
4506,68.0,0,21,2.0,80.0
4507,49.0,0,21,3.0,80.0
4508,37.0,0,21,4.0,80.0
4509,49.0,0,21,6.0,96.0
4510,78.0,12,10,5.0,96.0
4511,80.0,12,6,5.0,96.0
4512,78.0,6,5,5.0,96.0
4513,76.0,6,5,5.0,96.0
4514,51.0,0,21,6.0,96.0
4515,78.0,6,5,5.0,96.0
4516,52.0,0,21,6.0,96.0
4517,80.0,6,31,5.0,96.0
4518,57.0,24,21,6.0,96.0
4519,73.0,12,10,5.0,96.0
4520,75.0,12,6,5.0,96.0
4521,73.0,6,6,5.0,96.0
4522,54.0,0,21,6.0,96.0
4523,75.0,6,10,5.0,96.0
4524,73.0,0,6,5.0,96.0
4525,72.0,6,6,5.0,96.0
4526,70.0,6,6,5.0,96.0
4527,68.0,12,21,0.0,80.0
4528,56.0,0,21,3.0,80.0
4529,44.0,0,21,4.0,80.0
4530,56.0,0,21,6.0,96.0
4531,72.0,6,5,5.0,96.0
4532,73.0,6,10,0.0,80.0
4533,49.0,0,10,6.0,96.0
4534,49.0,0,21,3.0,80.0
4535,37.0,0,21,4.0,80.0
4536,72.0,12,10,0.0,80.0
4537,51.0,0,10,6.0,96.0
4538,52.0,0,6,6.0,96.0
4539,73.0,12,10,0.0,80.0
4540,73.0,0,42,5.0,96.0
4541,52.0,0,21,3.0,80.0
4542,40.0,0,21,4.0,80.0
4543,76.0,12,10,0.0,80.0
4544,73.0,12,10,0.0,80.0
4545,52.0,0,10,6.0,96.0
4546,52.0,0,21,3.0,80.0
4547,40.0,0,21,4.0,80.0
4548,68.0,12,10,0.0,80.0
4549,54.0,0,10,6.0,96.0
4550,56.0,0,6,6.0,96.0
4551,64.0,12,10,0.0,80.0
4552,68.0,0,84,1.0,80.0
4553,56.0,0,21,3.0,80.0
4554,44.0,0,21,4.0,80.0
4555,68.0,0,21,5.0,96.0
4556,68.0,12,10,0.0,80.0
4557,78.0,0,6,5.0,96.0
4558,61.0,12,10,0.0,80.0
4559,56.0,0,10,6.0,96.0
4560,76.0,6,6,5.0,96.0
4561,78.0,0,6,5.0,96.0
4562,56.0,0,21,3.0,80.0
4563,44.0,0,21,4.0,80.0
4564,68.0,6,10,0.0,80.0
4565,57.0,0,10,6.0,96.0
4566,76.0,6,6,5.0,96.0
4567,78.0,0,6,5.0,96.0
4568,59.0,0,6,6.0,96.0
4569,64.0,6,10,0.0,80.0
4570,76.0,6,6,5.0,96.0
4571,78.0,0,6,5.0,96.0
4572,59.0,0,21,3.0,80.0
4573,47.0,0,21,4.0,80.0
4574,68.0,6,10,0.0,80.0
4575,76.0,6,6,5.0,96.0
4576,78.0,0,6,5.0,96.0
4577,61.0,6,10,0.0,80.0
4578,59.0,0,10,6.0,96.0
4579,76.0,6,6,5.0,96.0
4580,78.0,0,6,5.0,96.0
4581,59.0,0,21,3.0,80.0
4582,47.0,0,21,4.0,80.0
4583,68.0,6,10,0.0,80.0
4584,61.0,0,10,6.0,96.0
4585,76.0,6,6,5.0,96.0
4586,78.0,0,6,5.0,96.0
4587,62.0,0,6,6.0,96.0
4588,64.0,6,10,0.0,80.0
4589,73.0,0,84,1.0,80.0
4590,64.0,0,180,2.0,80.0
4591,76.0,6,6,5.0,96.0
4592,78.0,0,6,5.0,96.0
4593,62.0,0,21,3.0,80.0
4594,50.0,0,21,4.0,80.0
4595,68.0,6,10,0.0,80.0
4596,76.0,6,6,5.0,96.0
4597,78.0,0,6,5.0,96.0
4598,71.0,6,10,0.0,80.0
4599,77.0,6,6,5.0,96.0
4600,78.0,0,6,5.0,96.0
4601,62.0,0,21,3.0,80.0
4602,50.0,0,21,4.0,80.0
4603,62.0,0,21,6.0,96.0
4604,69.0,6,10,0.0,80.0
4605,77.0,6,6,5.0,96.0
4606,78.0,0,6,5.0,96.0
4607,71.0,6,10,0.0,80.0
4608,77.0,6,6,5.0,96.0
4609,78.0,0,6,5.0,96.0
4610,59.0,0,21,3.0,80.0
4611,47.0,0,21,4.0,80.0
4612,59.0,0,21,6.0,96.0
4613,74.0,6,10,0.0,80.0
4614,77.0,6,6,5.0,96.0
4615,78.0,0,6,5.0,96.0
4616,71.0,6,10,0.0,80.0
4617,77.0,6,6,5.0,96.0
4618,78.0,0,6,5.0,96.0
4619,56.0,0,21,3.0,80.0
4620,44.0,0,21,4.0,80.0
4621,56.0,0,21,6.0,96.0
4622,68.0,6,10,0.0,80.0
4623,77.0,6,6,5.0,96.0
4624,78.0,0,6,5.0,96.0
4625,65.0,6,10,0.0,80.0
4626,71.0,0,84,1.0,80.0
4627,68.0,0,84,2.0,80.0
4628,61.0,0,21,3.0,80.0
4629,49.0,0,21,4.0,80.0
4630,61.0,0,21,6.0,96.0
4631,68.0,6,10,0.0,80.0
4632,77.0,6,16,5.0,96.0
4633,61.0,12,10,0.0,80.0
4634,57.0,0,21,3.0,80.0
4635,45.0,0,21,4.0,80.0
4636,57.0,0,21,6.0,96.0
4637,73.0,12,10,0.0,80.0
4638,69.0,12,10,0.0,80.0
4639,61.0,0,10,3.0,80.0
4640,49.0,0,10,4.0,80.0
4641,61.0,0,10,6.0,96.0
4642,73.0,0,42,1.0,80.0
4643,66.0,0,42,2.0,80.0
4644,78.0,0,42,5.0,96.0
4645,73.0,12,10,0.0,80.0
4646,59.0,0,10,3.0,80.0
4647,47.0,0,10,4.0,80.0
4648,59.0,0,10,6.0,96.0
4649,78.0,12,10,0.0,80.0
4650,57.0,0,10,3.0,80.0
4651,45.0,0,10,4.0,80.0
4652,57.0,0,10,6.0,96.0
4653,73.0,12,10,0.0,80.0
4654,56.0,0,10,3.0,80.0
4655,44.0,0,10,4.0,80.0
4656,56.0,0,10,6.0,96.0
4657,80.0,12,10,0.0,80.0
4658,54.0,0,10,3.0,80.0
4659,42.0,0,10,4.0,80.0
4660,54.0,0,10,6.0,96.0
4661,73.0,0,21,1.0,80.0
4662,71.0,0,21,2.0,80.0
4663,73.0,0,21,5.0,96.0
4664,73.0,12,10,0.0,80.0
4665,53.0,0,10,3.0,80.0
4666,41.0,0,10,4.0,80.0
4667,53.0,0,10,6.0,96.0
4668,66.0,0,10,5.0,96.0
4669,73.0,0,21,1.0,80.0
4670,69.0,0,21,2.0,80.0
4671,54.0,0,21,3.0,80.0
4672,42.0,0,21,4.0,80.0
4673,54.0,0,21,6.0,96.0
4674,68.0,12,10,5.0,96.0
4675,69.0,0,6,5.0,96.0
4676,69.0,12,21,1.0,80.0
4677,66.0,0,21,2.0,80.0
4678,49.0,0,21,3.0,80.0
4679,37.0,0,21,4.0,80.0
4680,49.0,0,21,6.0,96.0
4681,69.0,0,10,5.0,96.0
4682,69.0,24,21,1.0,80.0
4683,66.0,0,21,2.0,80.0
4684,49.0,0,21,3.0,80.0
4685,37.0,0,21,4.0,80.0
4686,49.0,0,21,6.0,96.0
4687,71.0,12,10,5.0,96.0
4688,73.0,0,6,5.0,96.0
4689,66.0,12,21,1.0,80.0
4690,61.0,0,21,2.0,80.0
4691,45.0,0,21,3.0,80.0
4692,33.0,0,21,4.0,80.0
4693,45.0,0,21,6.0,96.0
4694,45.0,0,10,3.0,80.0
4695,33.0,0,10,4.0,80.0
4696,73.0,0,10,5.0,96.0
4697,45.0,0,10,6.0,96.0
4698,66.0,24,21,1.0,80.0
4699,61.0,0,21,2.0,80.0
4700,47.0,12,10,3.0,80.0
4701,35.0,0,10,4.0,80.0
4702,75.0,0,10,5.0,96.0
4703,47.0,0,10,6.0,96.0
4704,77.0,0,6,5.0,96.0
4705,73.0,12,10,1.0,80.0
4706,57.0,0,10,2.0,80.0
4707,45.0,0,10,3.0,80.0
4708,33.0,0,10,4.0,80.0
4709,45.0,0,10,6.0,96.0
4710,71.0,12,10,1.0,80.0
4711,59.0,0,10,2.0,80.0
4712,44.0,0,10,3.0,80.0
4713,32.0,0,10,4.0,80.0
4714,44.0,0,10,6.0,96.0
4715,69.0,12,10,1.0,80.0
4716,61.0,0,21,2.0,80.0
4717,42.0,0,21,3.0,80.0
4718,30.0,0,21,4.0,80.0
4719,78.0,0,21,5.0,96.0
4720,42.0,0,21,6.0,96.0
4721,68.0,12,10,1.0,80.0
4722,78.0,0,5,5.0,96.0
4723,66.0,12,10,1.0,80.0
4724,80.0,6,5,5.0,96.0
4725,81.0,12,180,0.0,80.0
4726,61.0,0,21,2.0,80.0
4727,64.0,6,10,1.0,80.0
4728,81.0,0,10,5.0,96.0
4729,54.0,0,42,3.0,80.0
4730,42.0,0,42,4.0,80.0
4731,54.0,0,42,6.0,96.0
4732,63.0,0,21,1.0,80.0
4733,68.0,0,21,2.0,80.0
4734,72.0,0,21,5.0,96.0
4735,75.0,0,6,5.0,96.0
4736,73.0,6,6,5.0,96.0
4737,72.0,6,6,5.0,96.0
4738,64.0,24,21,1.0,80.0
4739,70.0,0,21,2.0,80.0
4740,52.0,0,21,3.0,80.0
4741,40.0,0,21,4.0,80.0
4742,52.0,0,21,6.0,96.0
4743,73.0,6,5,5.0,96.0
4744,66.0,6,21,1.0,80.0
4745,72.0,0,21,2.0,80.0
4746,51.0,0,21,3.0,80.0
4747,39.0,0,21,4.0,80.0
4748,75.0,0,21,5.0,96.0
4749,51.0,0,21,6.0,96.0
4750,68.0,24,21,1.0,80.0
4751,73.0,0,21,2.0,80.0
4752,49.0,0,21,3.0,80.0
4753,37.0,0,21,4.0,80.0
4754,76.0,0,21,5.0,96.0
4755,49.0,0,21,6.0,96.0
4756,75.0,0,12,5.0,96.0
4757,44.0,0,21,3.0,80.0
4758,32.0,0,21,4.0,80.0
4759,44.0,0,21,6.0,96.0
4760,73.0,12,12,5.0,96.0
4761,72.0,0,12,5.0,96.0
4762,68.0,24,42,1.0,80.0
4763,72.0,0,42,2.0,80.0
4764,46.0,12,21,3.0,80.0
4765,34.0,0,21,4.0,80.0
4766,46.0,0,21,6.0,96.0
4767,70.0,12,10,5.0,96.0
4768,68.0,0,10,5.0,96.0
4769,48.0,12,21,3.0,80.0
4770,36.0,0,21,4.0,80.0
4771,48.0,0,21,6.0,96.0
4772,75.0,12,10,5.0,96.0
4773,76.0,0,10,5.0,96.0
4774,73.0,12,21,1.0,80.0
4775,68.0,0,21,2.0,80.0
4776,49.0,0,21,3.0,80.0
4777,37.0,0,21,4.0,80.0
4778,49.0,0,21,6.0,96.0
4779,73.0,12,10,5.0,96.0
4780,75.0,0,12,5.0,96.0
4781,72.0,12,21,1.0,80.0
4782,56.0,0,21,2.0,80.0
4783,73.0,12,12,5.0,96.0
4784,72.0,0,12,5.0,96.0
4785,44.0,0,42,3.0,80.0
4786,32.0,0,42,4.0,80.0
4787,44.0,0,42,6.0,96.0
4788,73.0,12,21,1.0,80.0
4789,58.0,0,21,2.0,80.0
4790,70.0,12,10,5.0,96.0
4791,80.0,12,240,0.0,80.0
4792,68.0,0,10,5.0,96.0
4793,75.0,12,21,1.0,80.0
4794,60.0,0,21,2.0,80.0
4795,80.0,12,10,5.0,96.0
4796,76.0,0,10,5.0,96.0
4797,80.0,12,21,0.0,80.0
4798,73.0,0,21,1.0,80.0
4799,61.0,0,21,2.0,80.0
4800,73.0,12,10,5.0,96.0
4801,75.0,0,10,5.0,96.0
4802,68.0,12,21,0.0,80.0
4803,72.0,0,21,1.0,80.0
4804,73.0,12,10,5.0,96.0
4805,72.0,0,10,5.0,96.0
4806,56.0,0,42,2.0,80.0
4807,44.0,0,42,3.0,80.0
4808,32.0,0,42,4.0,80.0
4809,44.0,0,42,6.0,96.0
4810,70.0,12,21,0.0,80.0
4811,73.0,0,21,1.0,80.0
4812,70.0,12,10,5.0,96.0
4813,72.0,12,21,0.0,80.0
4814,75.0,0,21,1.0,80.0
4815,68.0,0,21,5.0,96.0
4816,71.0,0,10,5.0,96.0
4817,73.0,24,21,0.0,80.0
4818,73.0,0,21,1.0,80.0
4819,69.0,12,10,5.0,96.0
4820,56.0,0,10,6.0,96.0
4821,71.0,0,21,5.0,96.0
4822,57.0,12,10,6.0,96.0
4823,56.0,0,24,3.0,80.0
4824,44.0,0,24,4.0,80.0
4825,74.0,0,10,5.0,96.0
4826,59.0,0,10,6.0,96.0
4827,65.0,0,42,2.0,80.0
4828,56.0,12,21,3.0,80.0
4829,44.0,0,21,4.0,80.0
4830,73.0,12,10,5.0,96.0
4831,57.0,0,10,6.0,96.0
4832,59.0,0,10,6.0,96.0
4833,74.0,0,21,5.0,96.0
4834,53.0,12,10,6.0,96.0
4835,53.0,0,24,3.0,80.0
4836,41.0,0,24,4.0,80.0
4837,54.0,0,10,6.0,96.0
4838,74.0,12,84,0.0,80.0
4839,53.0,12,21,3.0,80.0
4840,41.0,0,21,4.0,80.0
4841,71.0,0,21,5.0,96.0
4842,56.0,12,10,6.0,96.0
4843,49.0,0,10,6.0,96.0
4844,71.0,0,108,1.0,80.0
4845,77.0,0,12,5.0,96.0
4846,68.0,12,63,2.0,80.0
4847,57.0,0,10,6.0,96.0
4848,49.0,0,24,3.0,80.0
4849,37.0,0,24,4.0,80.0
4850,78.0,12,12,5.0,96.0
4851,59.0,0,10,6.0,96.0
4852,80.0,0,12,5.0,96.0
4853,68.0,12,21,1.0,80.0
4854,65.0,0,21,2.0,80.0
4855,49.0,0,21,3.0,80.0
4856,37.0,0,21,4.0,80.0
4857,77.0,12,10,5.0,96.0
4858,56.0,0,10,6.0,96.0
4859,78.0,0,10,5.0,96.0
4860,57.0,0,10,6.0,96.0
4861,61.0,12,21,1.0,80.0
4862,69.0,0,21,2.0,80.0
4863,66.0,12,10,5.0,96.0
4864,61.0,0,10,6.0,96.0
4865,45.0,0,24,3.0,80.0
4866,33.0,0,24,4.0,80.0
4867,69.0,0,10,5.0,96.0
4868,59.0,0,10,6.0,96.0
4869,73.0,12,84,0.0,80.0
4870,57.0,12,21,1.0,80.0
4871,66.0,0,21,2.0,80.0
4872,45.0,0,21,3.0,80.0
4873,33.0,0,21,4.0,80.0
4874,68.0,12,10,5.0,96.0
4875,61.0,0,10,6.0,96.0
4876,54.0,0,10,6.0,96.0
4877,69.0,0,12,5.0,96.0
4878,66.0,12,10,5.0,96.0
4879,56.0,0,10,6.0,96.0
4880,54.0,0,24,3.0,80.0
4881,42.0,0,24,4.0,80.0
4882,57.0,0,10,6.0,96.0
4883,72.0,0,12,5.0,96.0
4884,63.0,0,42,2.0,80.0
4885,54.0,12,21,3.0,80.0
4886,42.0,0,21,4.0,80.0
4887,71.0,12,10,5.0,96.0
4888,56.0,0,10,6.0,96.0
4889,72.0,0,10,5.0,96.0
4890,57.0,0,10,6.0,96.0
4891,69.0,12,10,5.0,96.0
4892,51.0,0,10,6.0,96.0
4893,51.0,0,24,3.0,80.0
4894,39.0,0,24,4.0,80.0
4895,75.0,0,10,5.0,96.0
4896,52.0,0,10,6.0,96.0
4897,72.0,12,84,0.0,80.0
4898,51.0,12,21,3.0,80.0
4899,39.0,0,21,4.0,80.0
4900,73.0,12,10,5.0,96.0
4901,54.0,0,10,6.0,96.0
4902,75.0,0,10,5.0,96.0
4903,47.0,0,10,6.0,96.0
4904,69.0,0,108,1.0,80.0
4905,66.0,12,63,2.0,80.0
4906,76.0,12,10,5.0,96.0
4907,56.0,0,10,6.0,96.0
4908,47.0,0,24,3.0,80.0
4909,35.0,0,24,4.0,80.0
4910,78.0,0,10,5.0,96.0
4911,57.0,0,10,6.0,96.0
4912,66.0,12,21,1.0,80.0
4913,63.0,0,21,2.0,80.0
4914,47.0,0,21,3.0,80.0
4915,35.0,0,21,4.0,80.0
4916,75.0,12,10,5.0,96.0
4917,54.0,0,10,6.0,96.0
4918,56.0,0,10,6.0,96.0
4919,71.0,12,63,0.0,80.0
4920,59.0,12,21,1.0,80.0
4921,68.0,0,21,2.0,80.0
4922,44.0,0,21,3.0,80.0
4923,32.0,0,21,4.0,80.0
4924,76.0,0,21,5.0,96.0
4925,61.0,12,10,6.0,96.0
4926,76.0,0,6,5.0,96.0
4927,64.0,0,10,2.0,80.0
4928,60.0,0,10,6.0,96.0
4929,78.0,6,6,5.0,96.0
4930,80.0,12,21,0.0,80.0
4931,56.0,0,21,1.0,80.0
4932,49.0,0,21,3.0,80.0
4933,37.0,0,21,4.0,80.0
4934,61.0,6,10,2.0,80.0
4935,80.0,0,10,5.0,96.0
4936,61.0,0,10,6.0,96.0
4937,57.0,0,10,6.0,96.0
4938,73.0,12,21,0.0,80.0
4939,57.0,0,21,1.0,80.0
4940,66.0,0,21,2.0,80.0
4941,45.0,0,21,3.0,80.0
4942,33.0,0,21,4.0,80.0
4943,78.0,0,21,5.0,96.0
4944,59.0,12,10,6.0,96.0
4945,61.0,0,10,6.0,96.0
4946,76.0,12,21,5.0,96.0
4947,57.0,12,10,6.0,96.0
4948,75.0,0,6,5.0,96.0
4949,54.0,0,10,6.0,96.0
4950,76.0,6,6,5.0,96.0
4951,78.0,12,21,0.0,80.0
4952,69.0,0,21,1.0,80.0
4953,66.0,0,21,2.0,80.0
4954,42.0,0,21,3.0,80.0
4955,30.0,0,21,4.0,80.0
4956,75.0,6,10,5.0,96.0
4957,56.0,0,10,6.0,96.0
4958,57.0,0,10,6.0,96.0
4959,73.0,12,21,5.0,96.0
4960,54.0,12,10,6.0,96.0
4961,68.0,0,12,5.0,96.0
4962,78.0,12,21,0.0,80.0
4963,68.0,0,21,1.0,80.0
4964,63.0,0,21,2.0,80.0
4965,44.0,0,21,3.0,80.0
4966,32.0,0,21,4.0,80.0
4967,48.0,0,21,6.0,96.0
4968,67.0,12,10,5.0,96.0
4969,68.0,12,12,5.0,96.0
4970,44.0,0,21,6.0,96.0
4971,67.0,12,10,5.0,96.0
4972,68.0,0,10,5.0,96.0
4973,76.0,12,21,0.0,80.0
4974,68.0,0,21,1.0,80.0
4975,61.0,0,21,2.0,80.0
4976,44.0,0,21,3.0,80.0
4977,32.0,0,21,4.0,80.0
4978,49.0,0,21,6.0,96.0
4979,75.0,12,10,5.0,96.0
4980,76.0,12,10,5.0,96.0
4981,46.0,0,21,6.0,96.0
4982,73.0,12,10,5.0,96.0
4983,68.0,0,12,5.0,96.0
4984,75.0,12,21,0.0,80.0
4985,68.0,0,21,1.0,80.0
4986,63.0,0,21,2.0,80.0
4987,44.0,0,21,3.0,80.0
4988,32.0,0,21,4.0,80.0
4989,48.0,0,21,6.0,96.0
4990,67.0,12,10,5.0,96.0
4991,68.0,12,12,5.0,96.0
4992,44.0,0,21,6.0,96.0
4993,67.0,12,10,5.0,96.0
4994,68.0,0,10,5.0,96.0
4995,73.0,12,21,0.0,80.0
4996,68.0,0,21,1.0,80.0
4997,64.0,0,21,2.0,80.0
4998,44.0,0,21,3.0,80.0
4999,32.0,0,21,4.0,80.0
5000,49.0,0,21,6.0,96.0
5001,76.0,12,10,5.0,96.0
5002,78.0,12,10,5.0,96.0
5003,46.0,0,21,6.0,96.0
5004,75.0,12,10,5.0,96.0
5005,68.0,0,12,5.0,96.0
5006,75.0,12,21,0.0,80.0
5007,68.0,0,21,1.0,80.0
5008,66.0,0,21,2.0,80.0
5009,48.0,0,21,6.0,96.0
5010,67.0,12,10,5.0,96.0
5011,68.0,0,12,5.0,96.0
5012,56.0,12,21,3.0,80.0
5013,44.0,0,21,4.0,80.0
5014,44.0,0,21,6.0,96.0
5015,67.0,12,10,5.0,96.0
5016,68.0,0,10,5.0,96.0
5017,73.0,12,21,0.0,80.0
5018,68.0,0,21,1.0,80.0
5019,64.0,0,21,2.0,80.0
5020,52.0,0,21,3.0,80.0
5021,40.0,0,21,4.0,80.0
5022,40.0,0,21,6.0,96.0
5023,78.0,12,10,5.0,96.0
5024,80.0,0,10,5.0,96.0
5025,49.0,12,21,3.0,80.0
5026,37.0,0,21,4.0,80.0
5027,37.0,0,21,6.0,96.0
5028,76.0,12,10,5.0,96.0
5029,78.0,0,10,5.0,96.0
5030,44.0,0,10,6.0,96.0
5031,80.0,12,5,5.0,96.0
5032,72.0,12,21,0.0,80.0
5033,44.0,0,21,3.0,80.0
5034,32.0,0,21,4.0,80.0
5035,46.0,0,10,6.0,96.0
5036,81.0,6,5,5.0,96.0
5037,48.0,0,6,6.0,96.0
5038,75.0,6,21,0.0,80.0
5039,48.0,0,21,3.0,80.0
5040,36.0,0,21,4.0,80.0
5041,80.0,0,31,5.0,96.0
5042,48.0,0,10,6.0,96.0
5043,75.0,24,21,0.0,80.0
5044,48.0,0,21,3.0,80.0
5045,36.0,0,21,4.0,80.0
5046,73.0,12,10,5.0,96.0
5047,49.0,0,10,6.0,96.0
5048,51.0,0,6,6.0,96.0
5049,72.0,0,10,5.0,96.0
5050,78.0,12,21,0.0,80.0
5051,51.0,0,21,3.0,80.0
5052,39.0,0,21,4.0,80.0
5053,75.0,12,10,5.0,96.0
5054,51.0,0,10,6.0,96.0
5055,66.0,0,12,5.0,96.0
5056,68.0,12,6,5.0,96.0
5057,72.0,12,21,0.0,80.0
5058,51.0,0,21,3.0,80.0
5059,39.0,0,21,4.0,80.0
5060,52.0,0,10,6.0,96.0
5061,69.0,6,5,5.0,96.0
5062,54.0,0,6,6.0,96.0
5063,75.0,6,21,0.0,80.0
5064,54.0,0,21,3.0,80.0
5065,42.0,0,21,4.0,80.0
5066,68.0,0,31,5.0,96.0
5067,68.0,0,156,1.0,80.0
5068,63.0,0,156,2.0,80.0
5069,75.0,24,21,0.0,80.0
5070,54.0,0,21,3.0,80.0
5071,42.0,0,21,4.0,80.0
5072,54.0,0,21,6.0,96.0
5073,72.0,12,10,5.0,96.0
5074,75.0,0,10,5.0,96.0
5075,78.0,12,21,0.0,80.0
5076,75.0,0,21,1.0,80.0
5077,63.0,0,21,2.0,80.0
5078,48.0,0,21,3.0,80.0
5079,36.0,0,21,4.0,80.0
5080,48.0,0,21,6.0,96.0
5081,78.0,12,10,5.0,96.0
5082,81.0,0,12,5.0,96.0
5083,76.0,12,21,0.0,80.0
5084,73.0,0,21,1.0,80.0
5085,64.0,0,21,2.0,80.0
5086,49.0,0,21,3.0,80.0
5087,37.0,0,21,4.0,80.0
5088,49.0,0,21,6.0,96.0
5089,80.0,12,12,5.0,96.0
5090,78.0,0,12,5.0,96.0
5091,45.0,0,21,3.0,80.0
5092,33.0,0,21,4.0,80.0
5093,45.0,0,21,6.0,96.0
5094,76.0,12,10,5.0,96.0
5095,80.0,0,12,5.0,96.0
5096,69.0,12,42,2.0,80.0
5097,72.0,12,21,1.0,80.0
5098,42.0,0,21,3.0,80.0
5099,30.0,0,21,4.0,80.0
5100,42.0,0,21,6.0,96.0
5101,78.0,12,12,5.0,96.0
5102,76.0,0,12,5.0,96.0
5103,68.0,12,21,2.0,80.0
5104,44.0,0,21,3.0,80.0
5105,32.0,0,21,4.0,80.0
5106,44.0,0,21,6.0,96.0
5107,75.0,12,10,5.0,96.0
5108,73.0,12,21,1.0,80.0
5109,64.0,0,21,2.0,80.0
5110,45.0,0,21,3.0,80.0
5111,33.0,0,21,4.0,80.0
5112,45.0,0,21,6.0,96.0
5113,61.0,12,10,0.0,80.0
5114,64.0,12,10,0.0,80.0
5115,73.0,0,42,5.0,96.0
5116,57.0,0,21,6.0,96.0
5117,68.0,12,10,0.0,80.0
5118,73.0,12,10,0.0,80.0
5119,68.0,0,21,1.0,80.0
5120,61.0,0,21,2.0,80.0
5121,53.0,0,21,3.0,80.0
5122,41.0,0,21,4.0,80.0
5123,53.0,0,21,6.0,96.0
5124,71.0,12,10,0.0,80.0
5125,69.0,12,10,0.0,80.0
5126,73.0,0,21,5.0,96.0
5127,49.0,0,21,6.0,96.0
5128,68.0,12,10,0.0,80.0
5129,61.0,12,3,0.0,80.0
5130,69.0,0,12,5.0,96.0
5131,66.0,0,21,1.0,80.0
5132,61.0,0,21,2.0,80.0
5133,54.0,0,21,3.0,80.0
5134,42.0,0,21,4.0,80.0
5135,54.0,0,21,6.0,96.0
5136,69.0,12,12,0.0,80.0
5137,72.0,0,12,5.0,96.0
5138,68.0,12,12,0.0,80.0
5139,73.0,0,21,5.0,96.0
5140,42.0,0,21,6.0,96.0
5141,66.0,12,10,0.0,80.0
5142,61.0,12,3,0.0,80.0
5143,68.0,0,21,1.0,80.0
5144,64.0,0,21,2.0,80.0
5145,52.0,0,21,3.0,80.0
5146,40.0,0,21,4.0,80.0
5147,40.0,0,21,6.0,96.0
5148,68.0,12,12,0.0,80.0
5149,66.0,12,12,0.0,80.0
5150,68.0,0,21,5.0,96.0
5151,52.0,0,21,6.0,96.0
5152,64.0,12,10,0.0,80.0
5153,60.0,12,3,0.0,80.0
5154,66.0,0,12,5.0,96.0
5155,72.0,0,21,1.0,80.0
5156,66.0,0,21,2.0,80.0
5157,51.0,0,21,3.0,80.0
5158,39.0,0,21,4.0,80.0
5159,51.0,0,21,6.0,96.0
5160,66.0,12,12,0.0,80.0
5161,72.0,0,12,5.0,96.0
5162,64.0,12,12,0.0,80.0
5163,73.0,0,21,5.0,96.0
5164,39.0,0,21,6.0,96.0
5165,63.0,12,10,0.0,80.0
5166,64.0,12,21,0.0,80.0
5167,73.0,0,21,1.0,80.0
5168,68.0,0,21,2.0,80.0
5169,49.0,0,21,3.0,80.0
5170,37.0,0,21,4.0,80.0
5171,37.0,0,21,6.0,96.0
5172,76.0,12,10,5.0,96.0
5173,72.0,0,10,5.0,96.0
5174,49.0,0,21,6.0,96.0
5175,73.0,12,10,5.0,96.0
5176,69.0,0,3,5.0,96.0
5177,76.0,12,42,0.0,80.0
5178,61.0,12,21,1.0,80.0
5179,66.0,0,21,2.0,80.0
5180,54.0,0,21,3.0,80.0
5181,42.0,0,21,4.0,80.0
5182,42.0,0,21,6.0,96.0
5183,72.0,12,12,5.0,96.0
5184,73.0,0,12,5.0,96.0
5185,54.0,0,21,6.0,96.0
5186,75.0,12,10,5.0,96.0
5187,68.0,0,3,5.0,96.0
5188,75.0,12,42,0.0,80.0
5189,64.0,12,21,1.0,80.0
5190,68.0,0,21,2.0,80.0
5191,52.0,0,21,3.0,80.0
5192,40.0,0,21,4.0,80.0
5193,52.0,0,21,6.0,96.0
5194,72.0,12,12,5.0,96.0
5195,73.0,0,12,5.0,96.0
5196,40.0,0,21,6.0,96.0
5197,75.0,12,10,5.0,96.0
5198,66.0,0,3,5.0,96.0
5199,73.0,12,42,0.0,80.0
5200,66.0,12,21,1.0,80.0
5201,68.0,0,21,2.0,80.0
5202,51.0,0,21,3.0,80.0
5203,39.0,0,21,4.0,80.0
5204,39.0,0,21,6.0,96.0
5205,72.0,12,12,5.0,96.0
5206,73.0,0,12,5.0,96.0
5207,72.0,12,21,0.0,80.0
5208,51.0,0,21,6.0,96.0
5209,75.0,12,10,5.0,96.0
5210,64.0,0,10,5.0,96.0
5211,73.0,12,21,0.0,80.0
5212,64.0,0,21,1.0,80.0
5213,68.0,0,21,2.0,80.0
5214,49.0,0,21,3.0,80.0
5215,37.0,0,21,4.0,80.0
5216,49.0,0,21,6.0,96.0
5217,68.0,12,10,5.0,96.0
5218,76.0,12,21,0.0,80.0
5219,68.0,0,21,1.0,80.0
5220,61.0,0,21,2.0,80.0
5221,49.0,0,21,3.0,80.0
5222,37.0,0,21,4.0,80.0
5223,37.0,0,21,6.0,96.0
5224,73.0,0,31,5.0,96.0
5225,78.0,24,21,0.0,80.0
5226,66.0,0,21,1.0,80.0
5227,69.0,0,21,2.0,80.0
5228,51.0,0,21,3.0,80.0
5229,39.0,0,21,4.0,80.0
5230,39.0,0,21,6.0,96.0
5231,74.0,12,10,5.0,96.0
5232,73.0,0,10,5.0,96.0
5233,51.0,12,21,3.0,80.0
5234,39.0,0,21,4.0,80.0
5235,51.0,0,21,6.0,96.0
5236,69.0,12,10,5.0,96.0
5237,71.0,0,10,5.0,96.0
5238,80.0,12,21,0.0,80.0
5239,73.0,0,21,1.0,80.0
5240,68.0,0,21,2.0,80.0
5241,53.0,0,21,3.0,80.0
5242,41.0,0,21,4.0,80.0
5243,53.0,0,21,6.0,96.0
5244,73.0,12,10,5.0,96.0
5245,71.0,0,10,5.0,96.0
5246,53.0,12,21,3.0,80.0
5247,41.0,0,21,4.0,80.0
5248,41.0,0,21,6.0,96.0
5249,68.0,12,10,5.0,96.0
5250,69.0,0,10,5.0,96.0
5251,73.0,12,21,0.0,80.0
5252,69.0,0,21,1.0,80.0
5253,66.0,0,21,2.0,80.0
5254,54.0,0,21,3.0,80.0
5255,42.0,0,21,4.0,80.0
5256,42.0,0,21,6.0,96.0
5257,66.0,12,10,5.0,96.0
5258,75.0,12,6,5.0,96.0
5259,54.0,0,10,6.0,96.0
5260,52.0,12,10,6.0,96.0
5261,54.0,0,21,6.0,96.0
5262,78.0,24,21,0.0,80.0
5263,72.0,0,21,1.0,80.0
5264,66.0,0,21,2.0,80.0
5265,51.0,0,21,3.0,80.0
5266,39.0,0,21,4.0,80.0
5267,39.0,0,21,6.0,96.0
5268,75.0,12,52,5.0,96.0
5269,80.0,24,21,0.0,80.0
5270,68.0,0,21,1.0,80.0
5271,64.0,0,21,2.0,80.0
5272,52.0,0,21,3.0,80.0
5273,40.0,0,21,4.0,80.0
5274,40.0,0,21,6.0,96.0
5275,76.0,12,12,5.0,96.0
5276,75.0,0,12,5.0,96.0
5277,73.0,12,6,5.0,96.0
5278,52.0,12,21,3.0,80.0
5279,40.0,0,21,4.0,80.0
5280,52.0,0,21,6.0,96.0
5281,72.0,6,5,5.0,96.0
5282,73.0,0,12,5.0,96.0
5283,81.0,6,21,0.0,80.0
5284,75.0,0,21,1.0,80.0
5285,69.0,0,21,2.0,80.0
5286,54.0,0,21,3.0,80.0
5287,42.0,0,21,4.0,80.0
5288,54.0,0,21,6.0,96.0
5289,75.0,12,12,5.0,96.0
5290,73.0,0,12,5.0,96.0
5291,72.0,12,6,5.0,96.0
5292,54.0,12,21,3.0,80.0
5293,42.0,0,21,4.0,80.0
5294,42.0,0,21,6.0,96.0
5295,70.0,6,5,5.0,96.0
5296,72.0,0,10,5.0,96.0
5297,75.0,6,21,0.0,80.0
5298,72.0,0,21,1.0,80.0
5299,68.0,0,21,2.0,80.0
5300,56.0,0,21,3.0,80.0
5301,44.0,0,21,4.0,80.0
5302,44.0,0,21,6.0,96.0
5303,68.0,12,10,5.0,96.0
5304,76.0,12,6,5.0,96.0
5305,56.0,0,10,6.0,96.0
5306,54.0,12,10,6.0,96.0
5307,56.0,0,21,6.0,96.0
5308,80.0,24,21,0.0,80.0
5309,73.0,0,21,1.0,80.0
5310,68.0,0,21,2.0,80.0
5311,52.0,0,21,3.0,80.0
5312,40.0,0,21,4.0,80.0
5313,40.0,0,21,6.0,96.0
5314,76.0,12,52,5.0,96.0
5315,81.0,24,21,0.0,80.0
5316,69.0,0,21,1.0,80.0
5317,61.0,0,21,2.0,80.0
5318,54.0,0,21,3.0,80.0
5319,42.0,0,21,4.0,80.0
5320,42.0,0,21,6.0,96.0
5321,78.0,12,18,5.0,96.0
5322,76.0,6,6,5.0,96.0
5323,75.0,6,6,5.0,96.0
5324,54.0,12,21,3.0,80.0
5325,42.0,0,21,4.0,80.0
5326,54.0,0,21,6.0,96.0
5327,73.0,6,5,5.0,96.0
5328,74.0,0,12,5.0,96.0
5329,83.0,6,21,0.0,80.0
5330,76.0,0,21,1.0,80.0
5331,59.0,0,21,2.0,80.0
5332,56.0,0,21,3.0,80.0
5333,44.0,0,21,4.0,80.0
5334,56.0,0,21,6.0,96.0
5335,76.0,12,18,5.0,96.0
5336,74.0,6,6,5.0,96.0
5337,73.0,6,6,5.0,96.0
5338,56.0,12,21,3.0,80.0
5339,44.0,0,21,4.0,80.0
5340,44.0,0,21,6.0,96.0
5341,72.0,6,5,5.0,96.0
5342,73.0,0,10,5.0,96.0
5343,57.0,0,12,3.0,80.0
5344,45.0,0,12,4.0,80.0
5345,76.0,6,21,0.0,80.0
5346,73.0,0,21,1.0,80.0
5347,57.0,0,21,2.0,80.0
5348,45.0,0,21,6.0,96.0
5349,77.0,0,10,5.0,96.0
5350,56.0,12,12,3.0,80.0
5351,44.0,0,12,4.0,80.0
5352,78.0,0,6,5.0,96.0
5353,57.0,0,10,6.0,96.0
5354,57.0,12,12,3.0,80.0
5355,45.0,0,12,4.0,80.0
5356,54.0,12,10,3.0,80.0
5357,42.0,0,10,4.0,80.0
5358,54.0,0,10,6.0,96.0
5359,51.0,0,10,6.0,96.0
5360,51.0,12,12,3.0,80.0
5361,39.0,0,12,4.0,80.0
5362,54.0,0,10,6.0,96.0
5363,49.0,12,12,3.0,80.0
5364,37.0,0,12,4.0,80.0
5365,48.0,0,10,6.0,96.0
5366,51.0,0,12,3.0,80.0
5367,39.0,0,12,4.0,80.0
5368,81.0,12,21,0.0,80.0
5369,75.0,0,21,1.0,80.0
5370,66.0,0,21,2.0,80.0
5371,48.0,12,10,3.0,80.0
5372,36.0,0,10,4.0,80.0
5373,51.0,0,10,6.0,96.0
5374,78.0,0,52,5.0,96.0
5375,72.0,0,21,1.0,80.0
5376,63.0,0,21,2.0,80.0
5377,80.0,12,10,5.0,96.0
5378,81.0,12,24,0.0,80.0
5379,78.0,0,10,5.0,96.0
5380,80.0,12,21,0.0,80.0
5381,75.0,12,10,5.0,96.0
5382,76.0,0,12,5.0,96.0
5383,73.0,0,21,1.0,80.0
5384,68.0,0,21,2.0,80.0
5385,80.0,12,24,0.0,80.0
5386,78.0,12,12,5.0,96.0
5387,76.0,0,12,5.0,96.0
5388,78.0,12,21,0.0,80.0
5389,73.0,12,10,5.0,96.0
5390,75.0,0,12,5.0,96.0
5391,72.0,0,21,1.0,80.0
5392,68.0,0,21,2.0,80.0
5393,78.0,12,24,0.0,80.0
5394,76.0,12,12,5.0,96.0
5395,75.0,0,12,5.0,96.0
5396,76.0,12,21,0.0,80.0
5397,72.0,12,10,5.0,96.0
5398,73.0,0,12,5.0,96.0
5399,68.0,0,21,1.0,80.0
5400,61.0,0,21,2.0,80.0
5401,76.0,12,24,0.0,80.0
5402,75.0,12,12,5.0,96.0
5403,73.0,0,12,5.0,96.0
5404,75.0,12,21,0.0,80.0
5405,70.0,12,10,5.0,96.0
5406,72.0,0,10,5.0,96.0
5407,75.0,12,21,0.0,80.0
5408,68.0,0,21,1.0,80.0
5409,68.0,12,10,5.0,96.0
5410,68.0,0,24,2.0,80.0
5411,70.0,0,10,5.0,96.0
5412,66.0,12,21,2.0,80.0
5413,72.0,12,10,5.0,96.0
5414,73.0,0,10,5.0,96.0
5415,75.0,12,10,5.0,96.0
5416,64.0,12,24,2.0,80.0
5417,76.0,0,10,5.0,96.0
5418,76.0,12,21,0.0,80.0
5419,73.0,0,21,1.0,80.0
5420,61.0,0,21,2.0,80.0
5421,73.0,12,10,5.0,96.0
5422,66.0,0,10,5.0,96.0
5423,70.0,12,10,5.0,96.0
5424,76.0,12,24,0.0,80.0
5425,73.0,0,24,1.0,80.0
5426,63.0,0,24,2.0,80.0
5427,72.0,0,10,5.0,96.0
5428,75.0,12,21,0.0,80.0
5429,72.0,0,21,1.0,80.0
5430,66.0,0,21,2.0,80.0
5431,73.0,12,10,5.0,96.0
5432,75.0,0,10,5.0,96.0
5433,76.0,12,10,5.0,96.0
5434,60.0,12,24,2.0,80.0
5435,78.0,0,10,5.0,96.0
5436,78.0,12,21,0.0,80.0
5437,75.0,0,21,1.0,80.0
5438,63.0,0,21,2.0,80.0
5439,75.0,12,10,5.0,96.0
5440,68.0,0,10,5.0,96.0
5441,72.0,12,10,5.0,96.0
5442,78.0,12,24,0.0,80.0
5443,75.0,0,24,1.0,80.0
5444,64.0,0,24,2.0,80.0
5445,73.0,0,10,5.0,96.0
5446,76.0,12,21,0.0,80.0
5447,73.0,0,21,1.0,80.0
5448,68.0,0,21,2.0,80.0
5449,75.0,12,10,5.0,96.0
5450,76.0,0,10,5.0,96.0
5451,78.0,12,10,5.0,96.0
5452,61.0,12,24,2.0,80.0
5453,80.0,0,10,5.0,96.0
5454,80.0,12,21,0.0,80.0
5455,76.0,0,21,1.0,80.0
5456,64.0,0,21,2.0,80.0
5457,76.0,12,10,5.0,96.0
5458,69.0,0,10,5.0,96.0
5459,73.0,12,10,5.0,96.0
5460,80.0,12,24,0.0,80.0
5461,76.0,0,24,1.0,80.0
5462,66.0,0,24,2.0,80.0
5463,75.0,0,10,5.0,96.0
5464,78.0,12,21,0.0,80.0
5465,75.0,0,21,1.0,80.0
5466,69.0,0,21,2.0,80.0
5467,77.0,12,10,5.0,96.0
5468,78.0,0,10,5.0,96.0
5469,80.0,12,10,5.0,96.0
5470,63.0,12,24,2.0,80.0
5471,81.0,0,10,5.0,96.0
5472,81.0,12,21,0.0,80.0
5473,78.0,0,21,1.0,80.0
5474,66.0,0,21,2.0,80.0
5475,78.0,12,10,5.0,96.0
5476,72.0,0,3,5.0,96.0
5477,81.0,12,12,0.0,80.0
5478,78.0,0,12,1.0,80.0
5479,68.0,0,21,2.0,80.0
5480,78.0,12,10,0.0,80.0
5481,75.0,0,10,1.0,80.0
5482,81.0,0,12,5.0,96.0
5483,80.0,12,6,0.0,80.0
5484,76.0,0,6,1.0,80.0
5485,80.0,0,12,5.0,96.0
5486,78.0,12,10,5.0,96.0
5487,73.0,0,3,5.0,96.0
5488,80.0,12,12,0.0,80.0
5489,76.0,0,12,1.0,80.0
5490,68.0,0,21,2.0,80.0
5491,76.0,12,10,0.0,80.0
5492,73.0,0,10,1.0,80.0
5493,81.0,0,12,5.0,96.0
5494,78.0,12,6,0.0,80.0
5495,75.0,0,6,1.0,80.0
5496,80.0,0,12,5.0,96.0
5497,78.0,12,10,5.0,96.0
5498,75.0,0,3,5.0,96.0
5499,44.0,0,684,6.0,96.0
5500,78.0,12,21,0.0,80.0
5501,75.0,0,21,1.0,80.0
5502,72.0,0,21,2.0,80.0
5503,44.0,0,696,3.0,80.0
5504,32.0,0,696,4.0,80.0
5505,81.0,12,12,5.0,96.0
5506,46.0,0,10,6.0,96.0
5507,80.0,12,12,5.0,96.0
5508,78.0,12,10,5.0,96.0
5509,48.0,0,10,6.0,96.0
5510,76.0,12,10,5.0,96.0
5511,49.0,0,10,6.0,96.0
5512,72.0,12,10,5.0,96.0
5513,51.0,0,10,6.0,96.0
5514,73.0,12,10,5.0,96.0
5515,52.0,0,10,6.0,96.0
5516,81.0,12,10,5.0,96.0
5517,51.0,0,10,6.0,96.0
5518,52.0,0,10,6.0,96.0
5519,80.0,12,21,5.0,96.0
5520,54.0,12,10,6.0,96.0
5521,56.0,12,10,6.0,96.0
5522,55.0,12,10,6.0,96.0
5523,78.0,0,3,5.0,96.0
5524,76.0,3,3,5.0,96.0
5525,78.0,3,3,5.0,96.0
5526,76.0,3,3,5.0,96.0
5527,78.0,3,3,5.0,96.0
5528,76.0,3,3,5.0,96.0
5529,68.0,0,21,1.0,80.0
5530,78.0,3,3,5.0,96.0
5531,56.0,0,21,6.0,96.0
5532,76.0,3,3,5.0,96.0
5533,78.0,0,3,5.0,96.0
5534,76.0,3,8,5.0,96.0
5535,75.0,9,5,5.0,96.0
5536,72.0,12,42,0.0,80.0
5537,56.0,0,42,2.0,80.0
5538,44.0,0,42,3.0,80.0
5539,32.0,0,42,4.0,80.0
5540,66.0,3,21,1.0,80.0
5541,44.0,0,21,6.0,96.0
5542,73.0,6,5,5.0,96.0
5543,73.0,6,63,0.0,80.0
5544,64.0,0,63,1.0,80.0
5545,56.0,0,63,2.0,80.0
5546,49.0,0,63,3.0,80.0
5547,37.0,0,63,4.0,80.0
5548,73.0,0,63,5.0,96.0
5549,49.0,0,63,6.0,96.0
5550,71.0,72,21,0.0,96.0
5551,52.0,0,21,3.0,96.0
5552,40.0,0,21,4.0,96.0
5553,71.0,0,21,5.0,96.0
5554,40.0,0,21,6.0,96.0
5555,52.0,0,6,6.0,96.0
5556,76.0,24,12,0.0,96.0
5557,76.0,0,12,5.0,96.0
5558,51.0,6,6,6.0,96.0
5559,75.0,6,12,0.0,96.0
5560,75.0,0,12,5.0,96.0
5561,76.0,12,12,0.0,96.0
5562,76.0,0,12,5.0,96.0
5563,40.0,0,42,3.0,96.0
5564,28.0,0,42,4.0,96.0
5565,52.0,0,31,6.0,96.0
5566,71.0,0,21,1.0,96.0
5567,80.0,12,10,0.0,96.0
5568,80.0,0,10,5.0,96.0
5569,76.0,12,10,0.0,96.0
5570,76.0,0,10,5.0,96.0
5571,68.0,0,21,1.0,96.0
5572,71.0,12,10,0.0,96.0
5573,71.0,0,10,5.0,96.0
5574,68.0,12,10,0.0,96.0
5575,68.0,0,10,5.0,96.0
5576,64.0,0,21,1.0,96.0
5577,71.0,0,21,2.0,96.0
5578,52.0,0,21,3.0,96.0
5579,40.0,0,21,4.0,96.0
5580,40.0,0,21,6.0,96.0
5581,71.0,12,10,0.0,96.0
5582,71.0,0,10,5.0,96.0
5583,52.0,0,6,6.0,96.0
5584,64.0,12,10,0.0,96.0
5585,64.0,0,10,5.0,96.0
5586,51.0,6,6,6.0,96.0
5587,68.0,0,21,2.0,96.0
5588,71.0,6,10,0.0,96.0
5589,71.0,0,10,5.0,96.0
5590,68.0,12,10,0.0,96.0
5591,68.0,0,10,5.0,96.0
5592,40.0,0,42,3.0,96.0
5593,28.0,0,42,4.0,96.0
5594,52.0,0,31,6.0,96.0
5595,71.0,0,21,1.0,96.0
5596,64.0,0,21,2.0,96.0
5597,71.0,12,10,0.0,96.0
5598,71.0,0,10,5.0,96.0
5599,64.0,12,10,0.0,96.0
5600,64.0,0,10,5.0,96.0
5601,68.0,0,21,1.0,96.0
5602,71.0,12,10,0.0,96.0
5603,71.0,0,10,5.0,96.0
5604,68.0,12,10,0.0,96.0
5605,68.0,0,10,5.0,96.0
5606,64.0,0,21,1.0,96.0
5607,71.0,0,21,2.0,96.0
5608,52.0,0,21,3.0,96.0
5609,40.0,0,21,4.0,96.0
5610,40.0,0,21,6.0,96.0
5611,71.0,12,10,0.0,96.0
5612,71.0,0,10,5.0,96.0
5613,76.0,0,10,5.0,96.0
5614,76.0,12,12,0.0,96.0
5615,68.0,0,21,2.0,96.0
5616,75.0,0,10,5.0,96.0
5617,75.0,12,12,0.0,96.0
5618,76.0,0,10,5.0,96.0
5619,76.0,12,12,0.0,96.0
5620,40.0,0,42,3.0,96.0
5621,28.0,0,42,4.0,96.0
5622,52.0,0,42,6.0,96.0
5623,71.0,0,21,1.0,96.0
5624,64.0,0,21,2.0,96.0
5625,80.0,12,10,0.0,96.0
5626,80.0,0,10,5.0,96.0
5627,76.0,12,10,0.0,96.0
5628,76.0,0,10,5.0,96.0
5629,68.0,0,21,1.0,96.0
5630,71.0,12,10,0.0,96.0
5631,71.0,0,10,5.0,96.0
5632,68.0,12,10,0.0,96.0
5633,68.0,0,10,5.0,96.0
5634,64.0,0,21,1.0,96.0
5635,71.0,0,21,2.0,96.0
5636,52.0,0,21,3.0,96.0
5637,40.0,0,21,4.0,96.0
5638,40.0,0,21,6.0,96.0
5639,71.0,12,10,0.0,96.0
5640,71.0,0,10,5.0,96.0
5641,64.0,12,10,0.0,96.0
5642,64.0,0,10,5.0,96.0
5643,68.0,0,21,2.0,96.0
5644,40.0,0,21,3.0,96.0
5645,28.0,0,21,4.0,96.0
5646,52.0,0,21,6.0,96.0
5647,71.0,12,10,0.0,96.0
5648,71.0,0,10,5.0,96.0
5649,68.0,12,10,0.0,96.0
5650,68.0,0,10,5.0,96.0
5651,76.0,0,21,1.0,96.0
5652,71.0,0,21,2.0,96.0
5653,52.0,0,21,3.0,96.0
5654,40.0,0,21,4.0,96.0
5655,40.0,0,21,6.0,96.0
5656,71.0,12,10,0.0,96.0
5657,71.0,0,10,5.0,96.0
5658,76.0,12,10,0.0,96.0
5659,76.0,0,10,5.0,96.0
5660,71.0,0,21,1.0,96.0
5661,59.0,0,21,2.0,96.0
5662,56.0,0,21,3.0,96.0
5663,44.0,0,21,4.0,96.0
5664,44.0,0,21,6.0,96.0
5665,71.0,12,10,0.0,96.0
5666,71.0,0,10,5.0,96.0
5667,78.0,12,10,0.0,96.0
5668,78.0,0,10,5.0,96.0
5669,75.0,0,21,1.0,96.0
5670,71.0,0,21,2.0,96.0
5671,59.0,0,21,3.0,96.0
5672,47.0,0,21,4.0,96.0
5673,47.0,0,21,6.0,96.0
5674,71.0,12,10,0.0,96.0
5675,71.0,0,10,5.0,96.0
5676,80.0,12,12,0.0,96.0
5677,76.0,0,21,1.0,96.0
5678,71.0,0,21,2.0,96.0
5679,64.0,0,21,3.0,96.0
5680,52.0,0,21,4.0,96.0
5681,80.0,0,21,5.0,96.0
5682,52.0,0,21,6.0,96.0
5683,78.0,24,6,0.0,96.0
5684,78.0,0,12,5.0,96.0
5685,80.0,12,6,0.0,96.0
5686,80.0,0,6,5.0,96.0
5687,78.0,0,21,1.0,96.0
5688,71.0,0,21,2.0,96.0
5689,63.0,0,21,3.0,96.0
5690,51.0,0,21,4.0,96.0
5691,51.0,0,21,6.0,96.0
5692,78.0,6,6,0.0,96.0
5693,78.0,0,6,5.0,96.0
5694,80.0,6,6,0.0,96.0
5695,80.0,0,6,5.0,96.0
5696,81.0,6,9,0.0,96.0
5697,76.0,0,21,1.0,96.0
5698,64.0,0,21,2.0,96.0
5699,61.0,0,21,3.0,96.0
5700,49.0,0,21,4.0,96.0
5701,49.0,0,21,6.0,96.0
5702,81.0,0,16,5.0,96.0
5703,80.0,18,12,0.0,96.0
5704,76.0,0,21,1.0,96.0
5705,68.0,0,21,2.0,96.0
5706,59.0,0,21,3.0,96.0
5707,47.0,0,21,4.0,96.0
5708,80.0,0,21,5.0,96.0
5709,47.0,0,21,6.0,96.0
5710,78.0,24,6,0.0,96.0
5711,80.0,6,6,0.0,96.0
5712,75.0,0,21,1.0,96.0
5713,71.0,0,21,2.0,96.0
5714,57.0,0,21,3.0,96.0
5715,45.0,0,21,4.0,96.0
5716,78.0,0,21,5.0,96.0
5717,45.0,0,21,6.0,96.0
5718,78.0,6,10,0.0,96.0
5719,76.0,12,21,0.0,96.0
5720,76.0,0,21,1.0,96.0
5721,59.0,0,21,2.0,96.0
5722,56.0,0,21,3.0,96.0
5723,44.0,0,21,4.0,96.0
5724,76.0,0,21,5.0,96.0
5725,44.0,0,21,6.0,96.0
5726,76.0,24,10,1.0,96.0
5727,71.0,0,21,2.0,96.0
5728,56.0,0,21,3.0,96.0
5729,44.0,0,21,4.0,96.0
5730,56.0,0,21,6.0,96.0
5731,75.0,12,10,1.0,96.0
5732,83.0,24,52,0.0,96.0
5733,83.0,0,52,5.0,96.0
5734,76.0,12,21,1.0,96.0
5735,68.0,0,21,2.0,96.0
5736,61.0,0,21,3.0,96.0
5737,49.0,0,21,4.0,96.0
5738,61.0,0,21,6.0,96.0
5739,76.0,12,10,0.0,96.0
5740,76.0,0,10,5.0,96.0
5741,75.0,12,10,0.0,96.0
5742,75.0,0,10,5.0,96.0
5743,80.0,0,21,1.0,96.0
5744,71.0,0,21,2.0,96.0
5745,59.0,0,21,3.0,96.0
5746,47.0,0,21,4.0,96.0
5747,59.0,0,21,6.0,96.0
5748,76.0,12,10,0.0,96.0
5749,76.0,0,10,5.0,96.0
5750,78.0,12,21,0.0,96.0
5751,75.0,0,21,1.0,96.0
5752,71.0,0,21,2.0,96.0
5753,57.0,0,21,3.0,96.0
5754,45.0,0,21,4.0,96.0
5755,78.0,0,21,5.0,96.0
5756,57.0,0,21,6.0,96.0
5757,76.0,24,21,0.0,96.0
5758,76.0,0,21,1.0,96.0
5759,59.0,0,21,2.0,96.0
5760,56.0,0,21,3.0,96.0
5761,44.0,0,21,4.0,96.0
5762,76.0,0,21,5.0,96.0
5763,56.0,0,21,6.0,96.0
5764,75.0,24,10,0.0,96.0
5765,75.0,0,10,5.0,96.0
5766,69.0,0,21,1.0,96.0
5767,66.0,0,21,2.0,96.0
5768,54.0,0,21,3.0,96.0
5769,42.0,0,21,4.0,96.0
5770,54.0,0,21,6.0,96.0
5771,76.0,12,10,0.0,96.0
5772,76.0,0,10,5.0,96.0
5773,78.0,12,10,0.0,96.0
5774,78.0,0,10,5.0,96.0
5775,73.0,0,21,1.0,96.0
5776,69.0,0,21,2.0,96.0
5777,52.0,0,21,3.0,96.0
5778,40.0,0,21,4.0,96.0
5779,52.0,0,21,6.0,96.0
5780,75.0,12,10,0.0,96.0
5781,75.0,0,10,5.0,96.0
5782,71.0,12,3,0.0,96.0
5783,71.0,0,3,5.0,96.0
5784,66.0,0,21,1.0,96.0
5785,71.0,0,21,2.0,96.0
5786,51.0,0,21,3.0,96.0
5787,39.0,0,21,4.0,96.0
5788,51.0,0,21,6.0,96.0
5789,81.0,12,12,0.0,96.0
5790,81.0,0,12,5.0,96.0
5791,80.0,12,12,0.0,96.0
5792,80.0,0,12,5.0,96.0
5793,75.0,0,21,1.0,96.0
5794,71.0,0,21,2.0,96.0
5795,47.0,0,21,3.0,96.0
5796,35.0,0,21,4.0,96.0
5797,47.0,0,21,6.0,96.0
5798,78.0,12,10,0.0,96.0
5799,78.0,0,10,5.0,96.0
5800,71.0,12,3,0.0,96.0
5801,71.0,0,3,5.0,96.0
5802,76.0,0,21,1.0,96.0
5803,71.0,0,21,2.0,96.0
5804,52.0,0,21,3.0,96.0
5805,40.0,0,21,4.0,96.0
5806,52.0,0,21,6.0,96.0
5807,80.0,12,12,0.0,96.0
5808,80.0,0,12,5.0,96.0
5809,78.0,12,12,0.0,96.0
5810,78.0,0,12,5.0,96.0
5811,76.0,12,10,0.0,96.0
5812,76.0,0,10,5.0,96.0
5813,71.0,12,3,0.0,96.0
5814,71.0,0,3,5.0,96.0
5815,66.0,0,21,1.0,96.0
5816,71.0,0,21,2.0,96.0
5817,51.0,0,21,3.0,96.0
5818,39.0,0,21,4.0,96.0
5819,51.0,0,21,6.0,96.0
5820,78.0,12,12,0.0,96.0
5821,78.0,0,12,5.0,96.0
5822,76.0,12,12,0.0,96.0
5823,76.0,0,12,5.0,96.0
5824,75.0,12,10,0.0,96.0
5825,75.0,0,10,5.0,96.0
5826,76.0,12,3,0.0,96.0
5827,76.0,0,3,5.0,96.0
5828,68.0,0,21,1.0,96.0
5829,73.0,0,21,2.0,96.0
5830,49.0,0,21,3.0,96.0
5831,37.0,0,21,4.0,96.0
5832,49.0,0,21,6.0,96.0
5833,69.0,12,12,0.0,96.0
5834,69.0,0,12,5.0,96.0
5835,68.0,12,12,0.0,96.0
5836,68.0,0,12,5.0,96.0
5837,66.0,12,10,0.0,96.0
5838,66.0,0,10,5.0,96.0
5839,64.0,12,3,0.0,96.0
5840,64.0,0,3,5.0,96.0
5841,71.0,0,21,1.0,96.0
5842,64.0,0,21,2.0,96.0
5843,44.0,0,21,3.0,96.0
5844,32.0,0,21,4.0,96.0
5845,44.0,0,21,6.0,96.0
5846,74.0,12,12,0.0,96.0
5847,74.0,0,12,5.0,96.0
5848,73.0,12,12,0.0,96.0
5849,73.0,0,12,5.0,96.0
5850,68.0,0,21,1.0,96.0
5851,40.0,0,21,3.0,96.0
5852,28.0,0,21,4.0,96.0
5853,40.0,0,21,6.0,96.0
5854,71.0,12,10,0.0,96.0
5855,71.0,0,10,5.0,96.0
5856,64.0,0,31,2.0,96.0
5857,73.0,12,12,0.0,96.0
5858,73.0,0,12,5.0,96.0
5859,69.0,0,21,1.0,96.0
5860,45.0,0,21,3.0,96.0
5861,33.0,0,21,4.0,96.0
5862,45.0,0,21,6.0,96.0
5863,62.0,0,10,2.0,96.0
5864,71.0,12,12,0.0,96.0
5865,71.0,0,12,5.0,96.0
5866,61.0,0,10,2.0,96.0
5867,69.0,12,12,0.0,96.0
5868,69.0,0,12,5.0,96.0
5869,64.0,0,21,1.0,96.0
5870,49.0,0,21,3.0,96.0
5871,37.0,0,21,4.0,96.0
5872,49.0,0,21,6.0,96.0
5873,68.0,12,10,0.0,96.0
5874,59.0,0,10,2.0,96.0
5875,68.0,0,10,5.0,96.0
5876,66.0,12,10,0.0,96.0
5877,73.0,0,10,1.0,96.0
5878,66.0,0,10,5.0,96.0
5879,57.0,0,21,2.0,96.0
5880,54.0,0,21,3.0,96.0
5881,42.0,0,21,4.0,96.0
5882,54.0,0,21,6.0,96.0
5883,80.0,12,10,0.0,96.0
5884,71.0,0,10,1.0,96.0
5885,80.0,0,10,5.0,96.0
5886,78.0,12,10,0.0,96.0
5887,69.0,0,10,1.0,96.0
5888,78.0,0,10,5.0,96.0
5889,57.0,0,21,3.0,96.0
5890,45.0,0,21,4.0,96.0
5891,57.0,0,21,6.0,96.0
5892,76.0,12,10,0.0,96.0
5893,68.0,0,10,1.0,96.0
5894,76.0,0,10,5.0,96.0
5895,66.0,0,31,2.0,96.0
5896,75.0,12,12,0.0,96.0
5897,75.0,0,12,5.0,96.0
5898,66.0,0,21,1.0,96.0
5899,47.0,0,21,3.0,96.0
5900,35.0,0,21,4.0,96.0
5901,47.0,0,21,6.0,96.0
5902,64.0,0,10,2.0,96.0
5903,73.0,12,12,0.0,96.0
5904,73.0,0,12,5.0,96.0
5905,63.0,0,10,2.0,96.0
5906,71.0,12,12,0.0,96.0
5907,71.0,0,12,5.0,96.0
5908,51.0,0,21,3.0,96.0
5909,39.0,0,21,4.0,96.0
5910,51.0,0,21,6.0,96.0
5911,69.0,12,10,0.0,96.0
5912,61.0,0,10,2.0,96.0
5913,69.0,0,10,5.0,96.0
5914,75.0,0,31,1.0,96.0
5915,68.0,12,10,0.0,96.0
5916,68.0,0,10,5.0,96.0
5917,59.0,0,21,2.0,96.0
5918,56.0,0,21,3.0,96.0
5919,44.0,0,21,4.0,96.0
5920,56.0,0,21,6.0,96.0
5921,81.0,12,10,0.0,96.0
5922,73.0,0,10,1.0,96.0
5923,81.0,0,10,5.0,96.0
5924,80.0,12,10,0.0,96.0
5925,71.0,0,10,1.0,96.0
5926,80.0,0,10,5.0,96.0
5927,59.0,0,21,3.0,96.0
5928,47.0,0,21,4.0,96.0
5929,59.0,0,21,6.0,96.0
5930,78.0,12,10,0.0,96.0
5931,69.0,0,10,1.0,96.0
5932,78.0,0,10,5.0,96.0
5933,68.0,0,31,2.0,96.0
5934,76.0,12,12,0.0,96.0
5935,76.0,0,12,5.0,96.0
5936,68.0,0,21,1.0,96.0
5937,49.0,0,21,3.0,96.0
5938,37.0,0,21,4.0,96.0
5939,49.0,0,21,6.0,96.0
5940,66.0,0,10,2.0,96.0
5941,75.0,12,12,0.0,96.0
5942,75.0,0,12,5.0,96.0
5943,64.0,0,10,2.0,96.0
5944,73.0,12,12,0.0,96.0
5945,73.0,0,12,5.0,96.0
5946,52.0,0,21,3.0,96.0
5947,40.0,0,21,4.0,96.0
5948,52.0,0,21,6.0,96.0
5949,71.0,12,10,0.0,96.0
5950,63.0,0,10,2.0,96.0
5951,71.0,0,10,5.0,96.0
5952,76.0,0,31,1.0,96.0
5953,69.0,12,10,0.0,96.0
5954,69.0,0,10,5.0,96.0
5955,61.0,0,21,2.0,96.0
5956,57.0,0,21,3.0,96.0
5957,45.0,0,21,4.0,96.0
5958,57.0,0,21,6.0,96.0
5959,83.0,12,10,0.0,96.0
5960,75.0,0,10,1.0,96.0
5961,83.0,0,10,5.0,96.0
5962,81.0,12,10,0.0,96.0
5963,73.0,0,10,1.0,96.0
5964,81.0,0,10,5.0,96.0
5965,61.0,0,21,3.0,96.0
5966,49.0,0,21,4.0,96.0
5967,61.0,0,21,6.0,96.0
5968,80.0,12,10,0.0,96.0
5969,71.0,0,10,1.0,96.0
5970,80.0,0,10,5.0,96.0
5971,69.0,0,31,2.0,96.0
5972,69.0,0,10,1.0,96.0
5973,78.0,12,12,0.0,96.0
5974,78.0,0,12,5.0,96.0
5975,51.0,0,21,3.0,96.0
5976,39.0,0,21,4.0,96.0
5977,51.0,0,21,6.0,96.0
5978,68.0,0,10,1.0,96.0
5979,71.0,0,10,2.0,96.0
5980,76.0,12,12,0.0,96.0
5981,76.0,0,12,5.0,96.0
5982,66.0,0,10,1.0,96.0
5983,69.0,0,10,2.0,96.0
5984,75.0,12,12,0.0,96.0
5985,75.0,0,12,5.0,96.0
5986,54.0,0,21,3.0,96.0
5987,42.0,0,21,4.0,96.0
5988,54.0,0,21,6.0,96.0
5989,73.0,12,10,0.0,96.0
5990,64.0,0,10,1.0,96.0
5991,68.0,0,10,2.0,96.0
5992,73.0,0,10,5.0,96.0
5993,71.0,12,10,0.0,96.0
5994,63.0,0,10,1.0,96.0
5995,71.0,0,10,5.0,96.0
5996,66.0,0,21,2.0,96.0
5997,59.0,0,21,3.0,96.0
5998,47.0,0,21,4.0,96.0
5999,59.0,0,21,6.0,96.0
6000,69.0,12,10,0.0,96.0
6001,61.0,0,10,1.0,96.0
6002,69.0,0,10,5.0,96.0
6003,68.0,12,10,0.0,96.0
6004,59.0,0,10,1.0,96.0
6005,64.0,0,10,2.0,96.0
6006,68.0,0,10,5.0,96.0
6007,47.0,0,21,3.0,96.0
6008,35.0,0,21,4.0,96.0
6009,47.0,0,21,6.0,96.0
6010,66.0,12,10,0.0,96.0
6011,57.0,0,10,1.0,96.0
6012,63.0,0,10,2.0,96.0
6013,66.0,0,10,5.0,96.0
6014,64.0,0,12,5.0,96.0
6015,66.0,12,6,5.0,96.0
6016,56.0,0,21,1.0,96.0
6017,64.0,0,21,2.0,96.0
6018,49.0,0,21,3.0,96.0
6019,37.0,0,21,4.0,96.0
6020,49.0,0,21,6.0,96.0
6021,64.0,6,6,5.0,96.0
6022,63.0,0,6,5.0,96.0
6023,64.0,12,31,0.0,96.0
6024,64.0,6,6,5.0,96.0
6025,61.0,0,21,2.0,96.0
6026,45.0,0,21,3.0,96.0
6027,33.0,0,21,4.0,96.0
6028,45.0,0,21,6.0,96.0
6029,66.0,6,10,0.0,96.0
6030,66.0,0,10,5.0,96.0
6031,64.0,6,42,1.0,96.0
6032,59.0,0,21,2.0,96.0
6033,47.0,0,21,3.0,96.0
6034,35.0,0,21,4.0,96.0
6035,47.0,0,21,6.0,96.0
6036,66.0,12,31,0.0,96.0
6037,66.0,0,31,5.0,96.0
6038,63.0,24,21,1.0,96.0
6039,57.0,0,21,2.0,96.0
6040,47.0,0,21,3.0,96.0
6041,35.0,0,21,4.0,96.0
6042,47.0,0,21,6.0,96.0
6043,64.0,12,10,0.0,96.0
6044,64.0,0,10,5.0,96.0
6045,64.0,12,21,0.0,96.0
6046,64.0,0,21,1.0,96.0
6047,56.0,0,21,2.0,96.0
6048,76.0,24,6,0.0,80.0
6049,40.0,0,42,3.0,96.0
6050,28.0,0,42,4.0,96.0
6051,64.0,0,42,5.0,96.0
6052,40.0,0,42,6.0,96.0
6053,71.0,0,21,1.0,80.0
6054,68.0,0,21,2.0,80.0
6055,76.0,24,6,0.0,80.0
6056,71.0,0,21,1.0,80.0
6057,68.0,0,21,2.0,80.0
6058,71.0,24,6,0.0,80.0
6059,68.0,0,21,1.0,80.0
6060,64.0,0,21,2.0,80.0
6061,59.0,0,21,5.0,96.0
6062,71.0,24,6,0.0,80.0
6063,64.0,0,10,5.0,96.0
6064,68.0,0,21,1.0,80.0
6065,64.0,0,21,2.0,80.0
6066,66.0,12,10,5.0,96.0
6067,68.0,12,6,0.0,80.0
6068,68.0,0,6,5.0,96.0
6069,64.0,0,21,1.0,80.0
6070,59.0,0,21,2.0,80.0
6071,68.0,24,6,0.0,80.0
6072,68.0,0,10,5.0,96.0
6073,64.0,0,21,1.0,80.0
6074,59.0,0,21,2.0,80.0
6075,69.0,12,10,5.0,96.0
6076,64.0,12,6,0.0,80.0
6077,71.0,0,6,5.0,96.0
6078,59.0,0,21,1.0,80.0
6079,56.0,0,21,2.0,80.0
6080,71.0,0,10,5.0,96.0
6081,64.0,24,21,0.0,80.0
6082,59.0,0,21,1.0,80.0
6083,56.0,0,21,2.0,80.0
6084,73.0,12,10,5.0,96.0
6085,75.0,0,6,5.0,96.0
6086,59.0,12,21,0.0,80.0
6087,56.0,0,21,1.0,80.0
6088,52.0,0,21,2.0,80.0
6089,59.0,24,21,0.0,80.0
6090,56.0,0,21,1.0,80.0
6091,52.0,0,21,2.0,80.0
6092,76.0,0,21,5.0,96.0
6093,76.0,24,6,5.0,96.0
6094,78.0,6,6,5.0,96.0
6095,58.0,0,21,6.0,96.0
6096,49.0,0,21,6.0,96.0
6097,80.0,6,10,5.0,96.0
6098,78.0,12,21,5.0,96.0
6099,51.0,0,21,6.0,96.0
6100,59.0,0,31,6.0,96.0
6101,76.0,24,21,5.0,96.0
6102,52.0,0,21,6.0,96.0
6103,61.0,12,10,6.0,96.0
6104,75.0,12,6,5.0,96.0
6105,76.0,6,6,5.0,96.0
6106,54.0,0,21,6.0,96.0
6107,75.0,6,10,5.0,96.0
6108,59.0,0,21,6.0,96.0
6109,73.0,12,21,5.0,96.0
6110,52.0,0,21,6.0,96.0
6111,58.0,12,10,6.0,96.0
6112,71.0,12,12,5.0,96.0
6113,54.0,0,21,6.0,96.0
6114,51.0,0,21,6.0,96.0
6115,70.0,12,10,5.0,96.0
6116,71.0,12,12,5.0,96.0
6117,52.0,0,21,6.0,96.0
6118,49.0,0,21,6.0,96.0
6119,70.0,12,10,5.0,96.0
6120,71.0,12,10,5.0,96.0
6121,59.0,0,63,6.0,96.0
6122,54.0,0,21,6.0,96.0
6123,51.0,0,21,6.0,96.0
6124,78.0,12,10,5.0,96.0
6125,80.0,12,10,5.0,96.0
6126,59.0,0,21,6.0,96.0
6127,52.0,0,21,6.0,96.0
6128,76.0,12,10,5.0,96.0
6129,71.0,12,12,5.0,96.0
6130,54.0,0,21,6.0,96.0
6131,51.0,0,21,6.0,96.0
6132,70.0,12,10,5.0,96.0
6133,71.0,12,12,5.0,96.0
6134,52.0,0,21,6.0,96.0
6135,49.0,0,21,6.0,96.0
6136,70.0,12,10,5.0,96.0
6137,71.0,12,10,5.0,96.0
6138,59.0,0,63,6.0,96.0
6139,54.0,0,21,6.0,96.0
6140,51.0,0,21,6.0,96.0
6141,80.0,12,10,5.0,96.0
6142,81.0,12,10,5.0,96.0
6143,54.0,0,21,6.0,96.0
6144,51.0,0,21,6.0,96.0
6145,47.0,0,21,6.0,96.0
6146,78.0,12,10,5.0,96.0
6147,71.0,12,12,5.0,96.0
6148,56.0,0,21,6.0,96.0
6149,52.0,0,21,6.0,96.0
6150,70.0,12,10,5.0,96.0
6151,71.0,12,12,5.0,96.0
6152,54.0,0,21,6.0,96.0
6153,70.0,12,10,5.0,96.0
6154,71.0,12,10,5.0,96.0
6155,56.0,0,21,6.0,96.0
6156,81.0,12,10,5.0,96.0
6157,83.0,12,10,5.0,96.0
6158,64.0,0,21,6.0,96.0
6159,56.0,0,21,6.0,96.0
6160,52.0,0,21,6.0,96.0
6161,80.0,12,10,5.0,96.0
6162,81.0,12,10,5.0,96.0
6163,63.0,0,21,6.0,96.0
6164,54.0,0,21,6.0,96.0
6165,80.0,12,10,5.0,96.0
6166,81.0,12,10,5.0,96.0
6167,52.0,0,21,6.0,96.0
6168,78.0,12,10,5.0,96.0
6169,71.0,12,5,5.0,96.0
6170,73.0,6,5,5.0,96.0
6171,75.0,6,5,5.0,96.0
6172,51.0,0,21,6.0,96.0
6173,76.0,6,5,5.0,96.0
6174,78.0,6,5,5.0,96.0
6175,80.0,6,5,5.0,96.0
6176,59.0,0,21,6.0,96.0
6177,54.0,0,21,6.0,96.0
6178,51.0,0,21,6.0,96.0
6179,47.0,0,21,6.0,96.0
6180,81.0,6,10,5.0,96.0
6181,80.0,12,10,5.0,96.0
6182,59.0,0,21,6.0,96.0
6183,52.0,0,21,6.0,96.0
6184,78.0,12,10,5.0,96.0
6185,80.0,12,10,5.0,96.0
6186,54.0,0,21,6.0,96.0
6187,76.0,12,10,5.0,96.0
6188,71.0,12,6,5.0,96.0
6189,70.0,6,6,5.0,96.0
6190,71.0,6,6,5.0,96.0
6191,56.0,0,21,6.0,96.0
6192,73.0,6,6,5.0,96.0
6193,75.0,6,6,5.0,96.0
6194,76.0,6,6,5.0,96.0
6195,78.0,6,6,5.0,96.0
6196,64.0,0,21,6.0,96.0
6197,59.0,0,21,6.0,96.0
6198,56.0,0,21,6.0,96.0
6199,52.0,0,21,6.0,96.0
6200,80.0,6,5,5.0,96.0
6201,81.0,6,3,5.0,96.0
6202,80.0,12,3,5.0,96.0
6203,63.0,0,21,6.0,96.0
6204,54.0,0,21,6.0,96.0
6205,78.0,12,3,5.0,96.0
6206,76.0,12,3,5.0,96.0
6207,59.0,0,21,6.0,96.0
6208,75.0,12,3,5.0,96.0
6209,73.0,12,3,5.0,96.0
6210,47.0,0,21,6.0,96.0
6211,71.0,12,3,5.0,96.0
6212,69.0,12,3,5.0,96.0
6213,59.0,0,21,6.0,96.0
6214,54.0,0,21,6.0,96.0
6215,51.0,0,21,6.0,96.0
6216,68.0,12,10,5.0,96.0
6217,52.0,0,21,6.0,96.0
6218,64.0,12,10,5.0,96.0
6219,59.0,12,10,5.0,96.0
6220,40.0,0,21,6.0,96.0
6221,56.0,12,10,5.0,96.0
6222,52.0,12,21,6.0,96.0
6223,71.0,12,10,5.0,96.0
6224,76.0,12,10,5.0,96.0
6225,58.0,0,21,6.0,96.0
6226,49.0,0,21,6.0,96.0
6227,80.0,12,10,5.0,96.0
6228,78.0,12,10,5.0,96.0
6229,83.0,12,10,5.0,96.0
6230,82.0,0,10,5.0,96.0
6231,59.0,0,42,6.0,96.0
6232,51.0,0,42,6.0,96.0
6233,78.0,12,21,0.0,80.0
6234,75.0,0,21,1.0,80.0
6235,83.0,12,10,5.0,96.0
6236,73.0,0,5,5.0,96.0
6237,75.0,6,5,5.0,96.0
6238,73.0,6,5,5.0,96.0
6239,76.0,12,21,0.0,80.0
6240,70.0,0,21,1.0,80.0
6241,71.0,6,5,5.0,96.0
6242,73.0,0,10,5.0,96.0
6243,75.0,6,21,0.0,80.0
6244,71.0,0,21,1.0,80.0
6245,54.0,0,21,6.0,96.0
6246,47.0,0,21,6.0,96.0
6247,75.0,12,10,5.0,96.0
6248,76.0,12,10,5.0,96.0
6249,83.0,12,10,5.0,96.0
6250,82.0,0,10,5.0,96.0
6251,58.0,0,42,6.0,96.0
6252,49.0,0,42,6.0,96.0
6253,76.0,12,21,0.0,80.0
6254,73.0,0,21,1.0,80.0
6255,83.0,12,10,5.0,96.0
6256,71.0,0,5,5.0,96.0
6257,73.0,6,5,5.0,96.0
6258,71.0,6,5,5.0,96.0
6259,75.0,12,21,0.0,80.0
6260,68.0,0,21,1.0,80.0
6261,70.0,6,5,5.0,96.0
6262,71.0,0,10,5.0,96.0
6263,73.0,6,21,0.0,80.0
6264,70.0,0,21,1.0,80.0
6265,54.0,0,21,3.0,80.0
6266,42.0,0,21,4.0,80.0
6267,54.0,0,21,6.0,96.0
6268,73.0,12,10,5.0,96.0
6269,59.0,12,21,3.0,80.0
6270,47.0,0,21,4.0,80.0
6271,75.0,0,21,5.0,96.0
6272,59.0,0,21,6.0,96.0
6273,73.0,24,21,0.0,80.0
6274,66.0,0,21,1.0,80.0
6275,61.0,0,21,2.0,80.0
6276,58.0,0,21,3.0,80.0
6277,46.0,0,21,4.0,80.0
6278,73.0,0,21,5.0,96.0
6279,58.0,0,21,6.0,96.0
6280,73.0,0,5,5.0,96.0
6281,75.0,6,5,5.0,96.0
6282,71.0,24,21,0.0,80.0
6283,59.0,0,21,1.0,80.0
6284,64.0,0,21,2.0,80.0
6285,56.0,0,21,3.0,80.0
6286,44.0,0,21,4.0,80.0
6287,56.0,0,21,6.0,96.0
6288,76.0,6,10,5.0,96.0
6289,75.0,0,6,5.0,96.0
6290,71.0,12,21,0.0,80.0
6291,66.0,0,21,1.0,80.0
6292,66.0,0,21,2.0,80.0
6293,54.0,0,21,3.0,80.0
6294,42.0,0,21,4.0,80.0
6295,54.0,0,21,6.0,96.0
6296,73.0,0,6,5.0,96.0
6297,75.0,6,6,5.0,96.0
6298,70.0,24,21,0.0,80.0
6299,66.0,0,21,1.0,80.0
6300,54.0,0,21,2.0,80.0
6301,52.0,0,21,3.0,80.0
6302,40.0,0,21,4.0,80.0
6303,52.0,0,21,6.0,96.0
6304,73.0,6,10,5.0,96.0
6305,51.0,0,10,6.0,96.0
6306,71.0,12,21,0.0,80.0
6307,66.0,0,21,1.0,80.0
6308,59.0,0,21,2.0,80.0
6309,51.0,0,21,3.0,80.0
6310,39.0,0,21,4.0,80.0
6311,71.0,0,21,5.0,96.0
6312,54.0,12,10,6.0,96.0
6313,80.0,12,6,5.0,96.0
6314,59.0,0,10,6.0,96.0
6315,78.0,6,6,5.0,96.0
6316,50.0,0,10,6.0,96.0
6317,59.0,0,10,6.0,96.0
6318,78.0,12,21,0.0,80.0
6319,66.0,0,21,1.0,80.0
6320,71.0,0,21,2.0,80.0
6321,50.0,0,21,3.0,80.0
6322,38.0,0,21,4.0,80.0
6323,50.0,12,10,6.0,96.0
6324,80.0,6,42,5.0,96.0
6325,49.0,0,10,6.0,96.0
6326,49.0,0,21,3.0,80.0
6327,37.0,0,21,4.0,80.0
6328,78.0,12,10,5.0,96.0
6329,57.0,0,10,6.0,96.0
6330,77.0,0,10,5.0,96.0
6331,56.0,0,10,6.0,96.0
6332,56.0,12,21,3.0,80.0
6333,44.0,0,21,4.0,80.0
6334,78.0,12,10,5.0,96.0
6335,54.0,0,10,6.0,96.0
6336,80.0,0,10,5.0,96.0
6337,53.0,0,10,6.0,96.0
6338,53.0,12,21,3.0,80.0
6339,41.0,0,21,4.0,80.0
6340,71.0,12,10,5.0,96.0
6341,51.0,0,10,6.0,96.0
6342,70.0,0,10,5.0,96.0
6343,49.0,0,10,6.0,96.0
6344,77.0,12,84,0.0,80.0
6345,73.0,0,84,1.0,80.0
6346,71.0,0,84,2.0,80.0
6347,49.0,12,21,3.0,80.0
6348,37.0,0,21,4.0,80.0
6349,71.0,12,10,5.0,96.0
6350,51.0,0,10,6.0,96.0
6351,70.0,0,10,5.0,96.0
6352,52.0,0,10,6.0,96.0
6353,73.0,12,10,5.0,96.0
6354,58.0,0,10,6.0,96.0
6355,76.0,12,10,5.0,96.0
6356,61.0,0,10,6.0,96.0
6357,78.0,12,42,0.0,80.0
6358,73.0,0,42,1.0,80.0
6359,70.0,0,42,2.0,80.0
6360,52.0,0,42,3.0,80.0
6361,40.0,0,42,4.0,80.0
6362,80.0,12,10,5.0,96.0
6363,64.0,0,10,6.0,96.0
6364,58.0,0,10,6.0,96.0
6365,61.0,12,10,6.0,96.0
6366,54.0,0,10,6.0,96.0
6367,82.0,12,21,0.0,80.0
6368,78.0,0,21,1.0,80.0
6369,73.0,0,21,2.0,80.0
6370,52.0,0,21,3.0,80.0
6371,40.0,0,21,4.0,80.0
6372,52.0,12,10,6.0,96.0
6373,78.0,12,63,5.0,96.0
6374,83.0,12,21,0.0,80.0
6375,78.0,0,21,1.0,80.0
6376,66.0,0,21,2.0,80.0
6377,51.0,0,21,3.0,80.0
6378,39.0,0,21,4.0,80.0
6379,51.0,0,21,6.0,96.0
6380,71.0,24,21,5.0,96.0
6381,56.0,0,21,6.0,96.0
6382,75.0,24,10,5.0,96.0
6383,52.0,0,21,6.0,96.0
6384,73.0,12,10,5.0,96.0
6385,71.0,12,10,5.0,96.0
6386,54.0,0,21,6.0,96.0
6387,70.0,12,10,5.0,96.0
6388,47.0,0,21,6.0,96.0
6389,71.0,24,10,0.0,96.0
6390,63.0,0,10,2.0,96.0
6391,59.0,0,10,3.0,96.0
6392,47.0,0,10,4.0,96.0
6393,59.0,0,10,6.0,96.0
6394,71.0,12,42,5.0,96.0
6395,66.0,0,21,1.0,96.0
6396,73.0,12,10,0.0,96.0
6397,64.0,0,10,2.0,96.0
6398,57.0,0,10,3.0,96.0
6399,45.0,0,10,4.0,96.0
6400,57.0,0,10,6.0,96.0
6401,75.0,12,10,0.0,96.0
6402,66.0,0,10,2.0,96.0
6403,71.0,0,21,1.0,96.0
6404,56.0,0,21,3.0,96.0
6405,44.0,0,21,4.0,96.0
6406,56.0,0,21,6.0,96.0
6407,76.0,12,10,0.0,96.0
6408,68.0,0,10,2.0,96.0
6409,59.0,0,10,5.0,96.0
6410,78.0,12,10,0.0,96.0
6411,69.0,0,10,2.0,96.0
6412,57.0,0,10,5.0,96.0
6413,75.0,0,21,1.0,96.0
6414,54.0,0,21,3.0,96.0
6415,42.0,0,21,4.0,96.0
6416,54.0,0,21,6.0,96.0
6417,75.0,12,10,0.0,96.0
6418,66.0,0,10,2.0,96.0
6419,59.0,0,10,5.0,96.0
6420,64.0,0,10,5.0,96.0
6421,56.0,0,10,6.0,96.0
6422,76.0,12,12,0.0,96.0
6423,68.0,0,21,1.0,96.0
6424,71.0,0,21,2.0,96.0
6425,56.0,0,21,3.0,96.0
6426,44.0,0,21,4.0,96.0
6427,66.0,0,10,5.0,96.0
6428,57.0,0,10,6.0,96.0
6429,75.0,12,12,0.0,80.0
6430,68.0,0,6,5.0,96.0
6431,76.0,12,12,0.0,80.0
6432,64.0,0,21,1.0,80.0
6433,68.0,0,21,2.0,80.0
6434,59.0,0,21,6.0,96.0
6435,80.0,12,10,0.0,80.0
6436,76.0,12,10,0.0,80.0
6437,68.0,0,10,5.0,96.0
6438,52.0,0,10,6.0,96.0
6439,64.0,0,21,1.0,80.0
6440,68.0,0,21,2.0,80.0
6441,71.0,12,10,0.0,80.0
6442,69.0,0,10,5.0,96.0
6443,54.0,0,10,6.0,96.0
6444,71.0,0,6,5.0,96.0
6445,68.0,12,10,0.0,80.0
6446,59.0,0,21,1.0,80.0
6447,64.0,0,21,2.0,80.0
6448,56.0,0,21,6.0,96.0
6449,71.0,12,10,0.0,80.0
6450,64.0,12,10,0.0,80.0
6451,71.0,0,10,5.0,96.0
6452,56.0,0,10,6.0,96.0
6453,59.0,0,21,1.0,80.0
6454,64.0,0,21,2.0,80.0
6455,71.0,12,10,0.0,80.0
6456,73.0,0,10,5.0,96.0
6457,57.0,0,10,6.0,96.0
6458,75.0,0,6,5.0,96.0
6459,68.0,12,10,0.0,80.0
6460,59.0,0,10,3.0,80.0
6461,47.0,0,10,4.0,80.0
6462,59.0,0,10,6.0,96.0
6463,59.0,0,21,1.0,80.0
6464,56.0,0,21,2.0,80.0
6465,71.0,12,10,0.0,80.0
6466,57.0,0,10,3.0,80.0
6467,45.0,0,10,4.0,80.0
6468,57.0,0,10,6.0,96.0
6469,64.0,12,10,0.0,80.0
6470,56.0,0,10,3.0,80.0
6471,44.0,0,10,4.0,80.0
6472,56.0,0,10,6.0,96.0
6473,59.0,0,21,1.0,80.0
6474,56.0,0,21,2.0,80.0
6475,76.0,0,21,5.0,96.0
6476,71.0,12,10,0.0,80.0
6477,54.0,0,10,3.0,80.0
6478,42.0,0,10,4.0,80.0
6479,54.0,0,10,6.0,96.0
6480,68.0,12,10,0.0,80.0
6481,52.0,0,10,3.0,80.0
6482,40.0,0,10,4.0,80.0
6483,76.0,0,10,5.0,96.0
6484,52.0,0,10,6.0,96.0
6485,71.0,12,10,0.0,80.0
6486,51.0,0,10,3.0,80.0
6487,39.0,0,10,4.0,80.0
6488,78.0,0,10,5.0,96.0
6489,51.0,0,10,6.0,96.0
6490,80.0,0,5,5.0,96.0
6491,76.0,12,10,0.0,80.0
6492,81.0,6,5,5.0,96.0
6493,80.0,0,5,5.0,96.0
6494,52.0,0,21,3.0,80.0
6495,40.0,0,21,4.0,80.0
6496,52.0,0,21,6.0,96.0
6497,75.0,6,10,0.0,80.0
6498,78.0,6,5,5.0,96.0
6499,76.0,6,10,0.0,80.0
6500,80.0,0,10,5.0,96.0
6501,47.0,0,21,6.0,96.0
6502,80.0,12,10,0.0,80.0
6503,75.0,0,10,5.0,96.0
6504,76.0,12,10,0.0,80.0
6505,76.0,0,10,5.0,96.0
6506,49.0,0,21,6.0,96.0
6507,71.0,12,10,0.0,80.0
6508,80.0,0,10,5.0,96.0
6509,68.0,12,10,0.0,80.0
6510,83.0,0,10,5.0,96.0
6511,51.0,0,21,6.0,96.0
6512,71.0,12,10,0.0,80.0
6513,78.0,0,10,5.0,96.0
6514,64.0,12,10,0.0,80.0
6515,81.0,0,10,5.0,96.0
6516,52.0,0,21,6.0,96.0
6517,71.0,12,10,0.0,80.0
6518,80.0,0,10,5.0,96.0
6519,68.0,12,10,0.0,80.0
6520,78.0,0,10,5.0,96.0
6521,47.0,0,21,6.0,96.0
6522,71.0,12,10,0.0,80.0
6523,76.0,0,21,5.0,96.0
6524,76.0,12,10,0.0,80.0
6525,44.0,0,21,6.0,96.0
6526,71.0,12,10,0.0,80.0
6527,80.0,0,10,5.0,96.0
6528,78.0,12,10,0.0,96.0
6529,78.0,0,10,5.0,96.0
6530,75.0,0,21,1.0,96.0
6531,71.0,0,21,2.0,96.0
6532,59.0,0,21,3.0,96.0
6533,47.0,0,21,4.0,96.0
6534,47.0,0,21,6.0,96.0
6535,71.0,12,10,0.0,96.0
6536,81.0,0,10,5.0,96.0
6537,80.0,0,6,5.0,96.0
6538,80.0,12,21,0.0,96.0
6539,76.0,0,21,1.0,96.0
6540,71.0,0,21,2.0,96.0
6541,64.0,0,21,3.0,96.0
6542,52.0,0,21,4.0,96.0
6543,52.0,0,21,6.0,96.0
6544,78.0,0,3,5.0,96.0
6545,80.0,12,6,5.0,96.0
6546,78.0,24,21,0.0,96.0
6547,78.0,0,21,1.0,96.0
6548,71.0,0,21,2.0,96.0
6549,63.0,0,21,3.0,96.0
6550,51.0,0,21,4.0,96.0
6551,51.0,0,21,6.0,96.0
6552,78.0,6,6,5.0,96.0
6553,80.0,0,6,5.0,96.0
6554,81.0,6,4,5.0,96.0
6555,81.0,6,21,0.0,96.0
6556,76.0,0,21,1.0,96.0
6557,64.0,0,21,2.0,96.0
6558,61.0,0,21,3.0,96.0
6559,49.0,0,21,4.0,96.0
6560,49.0,0,21,6.0,96.0
6561,80.0,0,6,5.0,96.0
6562,80.0,18,21,0.0,96.0
6563,76.0,0,21,1.0,96.0
6564,68.0,0,21,2.0,96.0
6565,59.0,0,21,3.0,96.0
6566,47.0,0,21,4.0,96.0
6567,47.0,0,21,6.0,96.0
6568,78.0,0,6,5.0,96.0
6569,80.0,6,6,5.0,96.0
6570,78.0,24,21,0.0,96.0
6571,75.0,0,21,1.0,96.0
6572,71.0,0,21,2.0,96.0
6573,57.0,0,21,3.0,96.0
6574,45.0,0,21,4.0,96.0
6575,45.0,0,21,6.0,96.0
6576,78.0,6,10,5.0,96.0
6577,76.0,12,21,0.0,96.0
6578,76.0,0,21,1.0,96.0
6579,59.0,0,21,2.0,96.0
6580,56.0,0,21,3.0,96.0
6581,44.0,0,21,4.0,96.0
6582,76.0,0,21,5.0,96.0
6583,44.0,0,21,6.0,96.0
6584,76.0,24,10,1.0,96.0
6585,71.0,0,21,2.0,96.0
6586,56.0,0,21,3.0,96.0
6587,44.0,0,21,4.0,96.0
6588,56.0,0,21,6.0,96.0
6589,75.0,12,10,1.0,96.0
6590,83.0,24,52,0.0,96.0
6591,83.0,0,52,5.0,96.0
6592,76.0,12,21,1.0,96.0
6593,68.0,0,21,2.0,96.0
6594,61.0,0,21,3.0,96.0
6595,49.0,0,21,4.0,96.0
6596,61.0,0,21,6.0,96.0
6597,76.0,12,10,0.0,96.0
6598,76.0,0,10,5.0,96.0
6599,75.0,12,10,0.0,96.0
6600,75.0,0,10,5.0,96.0
6601,80.0,0,21,1.0,96.0
6602,71.0,0,21,2.0,96.0
6603,59.0,0,21,3.0,96.0
6604,47.0,0,21,4.0,96.0
6605,59.0,0,21,6.0,96.0
6606,76.0,12,10,0.0,96.0
6607,76.0,0,10,5.0,96.0
6608,78.0,0,10,5.0,96.0
6609,78.0,12,21,0.0,96.0
6610,75.0,0,21,1.0,96.0
6611,71.0,0,21,2.0,96.0
6612,57.0,0,21,3.0,96.0
6613,45.0,0,21,4.0,96.0
6614,57.0,0,21,6.0,96.0
6615,80.0,12,10,5.0,96.0
6616,81.0,0,6,5.0,96.0
6617,80.0,6,5,5.0,96.0
6618,78.0,6,5,5.0,96.0
6619,76.0,12,21,0.0,96.0
6620,76.0,0,21,1.0,96.0
6621,59.0,0,21,2.0,96.0
6622,56.0,0,21,3.0,96.0
6623,44.0,0,21,4.0,96.0
6624,56.0,0,21,6.0,96.0
6625,80.0,6,5,5.0,96.0
6626,75.0,6,10,0.0,96.0
6627,69.0,0,21,1.0,96.0
6628,66.0,0,21,2.0,96.0
6629,54.0,0,21,3.0,96.0
6630,42.0,0,21,4.0,96.0
6631,54.0,0,21,6.0,96.0
6632,76.0,12,10,0.0,96.0
6633,78.0,12,10,0.0,96.0
6634,73.0,0,21,1.0,96.0
6635,69.0,0,21,2.0,96.0
6636,52.0,0,21,3.0,96.0
6637,40.0,0,21,4.0,96.0
6638,52.0,0,21,6.0,96.0
6639,75.0,12,10,0.0,96.0
6640,81.0,0,52,5.0,96.0
6641,71.0,12,10,0.0,96.0
6642,66.0,0,21,1.0,96.0
6643,71.0,0,21,2.0,96.0
6644,51.0,0,21,3.0,96.0
6645,39.0,0,21,4.0,96.0
6646,51.0,0,21,6.0,96.0
6647,81.0,12,10,0.0,96.0
6648,75.0,0,10,5.0,96.0
6649,80.0,12,10,0.0,96.0
6650,76.0,0,10,5.0,96.0
6651,71.0,0,21,1.0,96.0
6652,63.0,0,21,2.0,96.0
6653,47.0,0,21,3.0,96.0
6654,35.0,0,21,4.0,96.0
6655,47.0,0,21,6.0,96.0
6656,78.0,12,10,0.0,96.0
6657,78.0,0,10,5.0,96.0
6658,71.0,0,10,5.0,96.0
6659,80.0,12,21,0.0,96.0
6660,71.0,0,21,1.0,96.0
6661,64.0,0,21,2.0,96.0
6662,52.0,0,21,3.0,96.0
6663,40.0,0,21,4.0,96.0
6664,52.0,0,21,6.0,96.0
6665,80.0,12,12,5.0,96.0
6666,78.0,12,12,5.0,96.0
6667,59.0,0,21,6.0,96.0
6668,76.0,12,10,5.0,96.0
6669,71.0,0,10,5.0,96.0
6670,78.0,12,21,0.0,96.0
6671,71.0,0,21,1.0,96.0
6672,66.0,0,21,2.0,96.0
6673,51.0,0,21,3.0,96.0
6674,39.0,0,21,4.0,96.0
6675,51.0,0,21,6.0,96.0
6676,78.0,12,12,5.0,96.0
6677,76.0,12,12,5.0,96.0
6678,59.0,0,21,6.0,96.0
6679,75.0,12,10,5.0,96.0
6680,76.0,0,10,5.0,96.0
6681,76.0,12,21,0.0,96.0
6682,73.0,0,21,1.0,96.0
6683,68.0,0,21,2.0,96.0
6684,49.0,0,21,3.0,96.0
6685,37.0,0,21,4.0,96.0
6686,49.0,0,21,6.0,96.0
6687,69.0,12,12,5.0,96.0
6688,68.0,12,12,5.0,96.0
6689,52.0,0,21,6.0,96.0
6690,66.0,12,10,5.0,96.0
6691,64.0,0,10,5.0,96.0
6692,74.0,12,21,0.0,96.0
6693,71.0,0,21,1.0,96.0
6694,64.0,0,21,2.0,96.0
6695,44.0,0,21,3.0,96.0
6696,32.0,0,21,4.0,96.0
6697,44.0,0,21,6.0,96.0
6698,74.0,12,12,5.0,96.0
6699,73.0,12,12,5.0,96.0
6700,52.0,0,21,6.0,96.0
6701,71.0,12,10,5.0,96.0
6702,73.0,0,12,5.0,96.0
6703,73.0,12,21,0.0,96.0
6704,69.0,0,21,1.0,96.0
6705,64.0,0,21,2.0,96.0
6706,45.0,0,21,3.0,96.0
6707,33.0,0,21,4.0,96.0
6708,45.0,0,21,6.0,96.0
6709,71.0,12,12,5.0,96.0
6710,69.0,12,12,5.0,96.0
6711,52.0,0,21,6.0,96.0
6712,68.0,12,10,5.0,96.0
6713,66.0,0,10,5.0,96.0
6714,75.0,12,21,0.0,96.0
6715,69.0,0,21,1.0,96.0
6716,59.0,0,21,2.0,96.0
6717,47.0,0,21,3.0,96.0
6718,35.0,0,21,4.0,96.0
6719,47.0,0,21,6.0,96.0
6720,73.0,12,10,5.0,96.0
6721,71.0,12,10,5.0,96.0
6722,51.0,0,21,6.0,96.0
6723,69.0,12,10,5.0,96.0
6724,68.0,0,10,5.0,96.0
6725,76.0,12,21,0.0,96.0
6726,68.0,0,21,1.0,96.0
6727,59.0,0,21,2.0,96.0
6728,40.0,0,21,3.0,96.0
6729,28.0,0,21,4.0,96.0
6730,40.0,0,21,6.0,96.0
6731,69.0,12,10,5.0,96.0
6732,71.0,12,10,5.0,96.0
6733,68.0,12,10,5.0,96.0
6734,52.0,0,31,6.0,96.0
6735,64.0,12,21,5.0,96.0
6736,54.0,12,10,6.0,96.0
6737,76.0,12,6,5.0,96.0
6738,56.0,0,10,6.0,96.0
6739,52.0,12,10,6.0,96.0
6740,76.0,12,10,5.0,96.0
6741,49.0,0,10,6.0,96.0
6742,75.0,12,10,5.0,96.0
6743,54.0,0,10,6.0,96.0
6744,73.0,12,6,5.0,96.0
6745,52.0,0,10,6.0,96.0
6746,51.0,12,10,6.0,96.0
6747,73.0,12,10,5.0,96.0
6748,52.0,0,10,6.0,96.0
6749,71.0,12,10,5.0,96.0
6750,63.0,0,10,6.0,96.0
6751,70.0,12,6,5.0,96.0
6752,61.0,0,10,6.0,96.0
6753,59.0,12,10,6.0,96.0
6754,70.0,12,10,5.0,96.0
6755,61.0,0,21,6.0,96.0
6756,73.0,12,10,5.0,96.0
6757,78.0,0,6,5.0,96.0
6758,73.0,12,21,0.0,80.0
6759,70.0,0,21,1.0,80.0
6760,66.0,0,21,2.0,80.0
6761,52.0,0,21,3.0,80.0
6762,40.0,0,21,4.0,80.0
6763,52.0,0,21,6.0,96.0
6764,78.0,0,6,5.0,96.0
6765,76.0,6,6,5.0,96.0
6766,73.0,24,21,0.0,80.0
6767,70.0,0,21,1.0,80.0
6768,66.0,0,21,2.0,80.0
6769,52.0,0,21,3.0,80.0
6770,40.0,0,21,4.0,80.0
6771,70.0,12,21,0.0,80.0
6772,66.0,0,21,1.0,80.0
6773,61.0,0,21,2.0,80.0
6774,52.0,0,21,3.0,80.0
6775,40.0,0,21,4.0,80.0
6776,52.0,0,21,6.0,96.0
6777,78.0,6,42,5.0,96.0
6778,51.0,0,10,6.0,96.0
6779,80.0,12,10,5.0,96.0
6780,47.0,0,10,6.0,96.0
6781,78.0,12,10,5.0,96.0
6782,51.0,0,10,6.0,96.0
6783,76.0,12,5,5.0,96.0
6784,71.0,24,42,0.0,80.0
6785,66.0,0,42,1.0,80.0
6786,63.0,0,42,2.0,80.0
6787,51.0,0,42,3.0,80.0
6788,39.0,0,42,4.0,80.0
6789,54.0,0,10,6.0,96.0
6790,75.0,6,5,5.0,96.0
6791,75.0,6,10,5.0,96.0
6792,59.0,0,10,6.0,96.0
6793,76.0,12,10,5.0,96.0
6794,54.0,0,10,6.0,96.0
6795,75.0,12,10,5.0,96.0
6796,59.0,0,10,6.0,96.0
6797,73.0,12,5,5.0,96.0
6798,61.0,0,10,6.0,96.0
6799,71.0,6,5,5.0,96.0
6800,71.0,6,10,5.0,96.0
6801,63.0,0,21,6.0,96.0
6802,75.0,12,10,5.0,96.0
6803,80.0,0,6,5.0,96.0
6804,75.0,12,21,0.0,80.0
6805,71.0,0,21,1.0,80.0
6806,68.0,0,21,2.0,80.0
6807,54.0,0,21,3.0,80.0
6808,42.0,0,21,4.0,80.0
6809,54.0,0,21,6.0,96.0
6810,75.0,24,21,0.0,80.0
6811,71.0,0,21,1.0,80.0
6812,68.0,0,21,2.0,80.0
6813,54.0,0,21,3.0,80.0
6814,42.0,0,21,4.0,80.0
6815,71.0,24,21,0.0,80.0
6816,68.0,0,21,1.0,80.0
6817,63.0,0,21,2.0,80.0
6818,54.0,0,21,3.0,80.0
6819,42.0,0,21,4.0,80.0
6820,54.0,0,21,6.0,96.0
6821,80.0,0,47,5.0,96.0
6822,52.0,0,10,6.0,96.0
6823,78.0,6,5,5.0,96.0
6824,76.0,6,5,5.0,96.0
6825,56.0,0,10,6.0,96.0
6826,75.0,6,5,5.0,96.0
6827,76.0,6,10,5.0,96.0
6828,58.0,0,10,6.0,96.0
6829,73.0,24,42,0.0,80.0
6830,68.0,0,42,1.0,80.0
6831,64.0,0,42,2.0,80.0
6832,52.0,0,42,3.0,80.0
6833,40.0,0,42,4.0,80.0
6834,76.0,12,10,5.0,96.0
6835,60.0,0,10,6.0,96.0
6836,76.0,12,5,5.0,96.0
6837,61.0,0,10,6.0,96.0
6838,75.0,6,5,5.0,96.0
6839,73.0,6,5,5.0,96.0
6840,63.0,0,10,6.0,96.0
6841,72.0,6,5,5.0,96.0
6842,73.0,6,10,5.0,96.0
6843,64.0,0,21,6.0,96.0
6844,73.0,12,10,5.0,96.0
6845,73.0,12,10,5.0,96.0
6846,64.0,0,21,6.0,96.0
6847,76.0,12,10,5.0,96.0
6848,76.0,12,21,0.0,80.0
6849,73.0,0,21,1.0,80.0
6850,64.0,0,21,2.0,80.0
6851,49.0,0,21,3.0,80.0
6852,37.0,0,21,4.0,80.0
6853,61.0,0,21,6.0,96.0
6854,82.0,0,31,5.0,96.0
6855,76.0,24,21,0.0,80.0
6856,70.0,0,21,1.0,80.0
6857,61.0,0,21,2.0,80.0
6858,54.0,0,21,3.0,80.0
6859,42.0,0,21,4.0,80.0
6860,66.0,0,21,6.0,96.0
6861,75.0,12,10,5.0,96.0
6862,73.0,12,21,0.0,80.0
6863,70.0,0,21,1.0,80.0
6864,66.0,0,21,2.0,80.0
6865,42.0,0,21,3.0,80.0
6866,30.0,0,21,4.0,80.0
6867,54.0,0,21,6.0,96.0
6868,76.0,0,31,5.0,96.0
6869,75.0,12,5,5.0,96.0
6870,47.0,0,21,3.0,80.0
6871,35.0,0,21,4.0,80.0
6872,73.0,6,5,5.0,96.0
6873,59.0,0,31,6.0,96.0
6874,75.0,6,10,5.0,96.0
6875,75.0,24,42,0.0,80.0
6876,71.0,0,42,1.0,80.0
6877,66.0,0,42,2.0,80.0
6878,78.0,12,10,5.0,96.0
6879,58.0,0,10,6.0,96.0
6880,83.0,12,10,5.0,96.0
6881,56.0,0,10,6.0,96.0
6882,82.0,12,10,5.0,96.0
6883,54.0,0,10,6.0,96.0
6884,53.0,0,10,6.0,96.0
6885,51.0,12,10,6.0,96.0
6886,83.0,12,31,5.0,96.0
6887,53.0,12,21,6.0,96.0
6888,78.0,12,10,5.0,96.0
6889,77.0,12,10,5.0,96.0
6890,56.0,0,21,6.0,96.0
6891,80.0,12,10,5.0,96.0
6892,83.0,12,5,5.0,96.0
6893,82.0,6,5,5.0,96.0
6894,49.0,0,21,6.0,96.0
6895,80.0,6,10,5.0,96.0
6896,82.0,12,10,5.0,96.0
6897,61.0,0,21,6.0,96.0
6898,83.0,12,10,5.0,96.0
6899,82.0,12,10,5.0,96.0
6900,66.0,0,21,6.0,96.0
6901,83.0,12,10,5.0,96.0
6902,85.0,12,10,5.0,96.0
6903,54.0,0,21,6.0,96.0
6904,82.0,12,10,5.0,96.0
6905,76.0,12,10,5.0,96.0
6906,56.0,0,21,6.0,96.0
6907,80.0,12,10,5.0,96.0
6908,78.0,12,10,5.0,96.0
6909,58.0,0,21,6.0,96.0
6910,76.0,12,10,5.0,96.0
6911,76.0,12,12,5.0,96.0
6912,59.0,0,21,6.0,96.0
6913,75.0,12,21,5.0,96.0
6914,52.0,12,21,6.0,96.0
6915,73.0,12,10,5.0,96.0
6916,75.0,12,6,5.0,96.0
6917,73.0,6,6,5.0,96.0
6918,75.0,6,6,5.0,96.0
6919,54.0,0,21,6.0,96.0
6920,73.0,6,6,5.0,96.0
6921,75.0,0,6,5.0,96.0
6922,73.0,6,5,5.0,96.0
6923,66.0,6,21,0.0,80.0
6924,42.0,0,21,6.0,96.0
6925,71.0,6,10,5.0,96.0
6926,71.0,12,10,0.0,80.0
6927,71.0,0,12,5.0,96.0
6928,70.0,12,10,0.0,80.0
6929,73.0,0,12,5.0,96.0
6930,71.0,12,10,0.0,80.0
6931,75.0,0,10,5.0,96.0
6932,44.0,0,42,6.0,96.0
6933,71.0,0,21,1.0,80.0
6934,75.0,12,10,0.0,80.0
6935,75.0,0,10,5.0,96.0
6936,71.0,12,10,0.0,80.0
6937,75.0,0,12,5.0,96.0
6938,71.0,0,21,1.0,80.0
6939,66.0,12,10,0.0,80.0
6940,76.0,0,12,5.0,96.0
6941,63.0,12,10,0.0,80.0
6942,78.0,0,10,5.0,96.0
6943,66.0,0,21,1.0,80.0
6944,71.0,0,21,2.0,80.0
6945,51.0,0,21,6.0,96.0
6946,66.0,12,10,0.0,80.0
6947,78.0,0,10,5.0,96.0
6948,59.0,12,10,0.0,80.0
6949,78.0,0,12,5.0,96.0
6950,80.0,0,6,5.0,96.0
6951,66.0,0,21,1.0,80.0
6952,71.0,0,21,2.0,80.0
6953,66.0,12,10,0.0,80.0
6954,82.0,6,6,5.0,96.0
6955,63.0,6,10,0.0,80.0
6956,80.0,0,12,5.0,96.0
6957,39.0,0,42,6.0,96.0
6958,71.0,0,21,1.0,80.0
6959,66.0,0,21,2.0,80.0
6960,66.0,12,10,0.0,80.0
6961,78.0,0,10,5.0,96.0
6962,83.0,0,5,5.0,96.0
6963,59.0,12,10,0.0,80.0
6964,78.0,6,5,5.0,96.0
6965,80.0,0,5,5.0,96.0
6966,71.0,0,21,1.0,80.0
6967,66.0,0,21,2.0,80.0
6968,66.0,6,10,0.0,80.0
6969,63.0,0,10,6.0,96.0
6970,81.0,6,5,5.0,96.0
6971,63.0,6,10,0.0,80.0
6972,80.0,0,10,5.0,96.0
6973,59.0,0,10,6.0,96.0
6974,59.0,0,21,1.0,80.0
6975,71.0,0,21,2.0,80.0
6976,66.0,12,10,0.0,80.0
6977,78.0,0,10,5.0,96.0
6978,63.0,0,10,6.0,96.0
6979,71.0,12,10,0.0,80.0
6980,78.0,0,12,5.0,96.0
6981,59.0,0,21,1.0,80.0
6982,64.0,0,21,2.0,80.0
6983,64.0,0,21,6.0,96.0
6984,70.0,12,10,0.0,80.0
6985,80.0,0,21,5.0,96.0
6986,71.0,12,10,0.0,80.0
6987,52.0,0,10,6.0,96.0
6988,75.0,12,10,0.0,80.0
6989,78.0,0,10,5.0,96.0
6990,54.0,0,10,6.0,96.0
6991,71.0,12,10,0.0,80.0
6992,76.0,0,10,5.0,96.0
6993,66.0,12,10,0.0,80.0
6994,75.0,0,10,5.0,96.0
6995,63.0,12,10,0.0,80.0
6996,73.0,0,10,5.0,96.0
6997,66.0,12,10,0.0,80.0
6998,71.0,0,10,5.0,96.0
6999,56.0,0,52,6.0,96.0
7000,76.0,0,5,5.0,96.0
7001,78.0,6,5,5.0,96.0
7002,76.0,6,5,5.0,96.0
7003,59.0,12,21,0.0,80.0
7004,54.0,0,10,6.0,96.0
7005,75.0,6,5,5.0,96.0
7006,76.0,6,10,5.0,96.0
7007,56.0,0,10,6.0,96.0
7008,73.0,12,10,5.0,96.0
7009,52.0,0,10,6.0,96.0
7010,71.0,12,21,5.0,96.0
7011,54.0,0,21,6.0,96.0
7012,70.0,0,16,5.0,96.0
7013,73.0,24,21,0.0,96.0
7014,70.0,0,21,1.0,96.0
7015,66.0,0,21,2.0,96.0
7016,54.0,0,21,3.0,96.0
7017,42.0,0,21,4.0,96.0
7018,42.0,0,21,6.0,96.0
7019,71.0,18,5,5.0,96.0
7020,71.0,0,10,5.0,96.0
7021,75.0,6,21,0.0,96.0
7022,71.0,0,21,1.0,96.0
7023,66.0,0,21,2.0,96.0
7024,59.0,0,21,3.0,96.0
7025,47.0,0,21,4.0,96.0
7026,47.0,0,21,6.0,96.0
7027,75.0,12,10,5.0,96.0
7028,73.0,0,12,5.0,96.0
7029,75.0,12,6,5.0,96.0
7030,73.0,12,21,0.0,96.0
7031,73.0,0,21,1.0,96.0
7032,66.0,0,21,2.0,96.0
7033,58.0,0,21,3.0,96.0
7034,46.0,0,21,4.0,96.0
7035,46.0,0,21,6.0,96.0
7036,73.0,6,6,5.0,96.0
7037,75.0,0,6,5.0,96.0
7038,76.0,6,21,0.0,96.0
7039,71.0,0,21,1.0,96.0
7040,59.0,0,21,2.0,96.0
7041,56.0,0,21,3.0,96.0
7042,44.0,0,21,4.0,96.0
7043,44.0,0,21,6.0,96.0
7044,76.0,6,16,5.0,96.0
7045,75.0,18,21,0.0,96.0
7046,71.0,0,21,1.0,96.0
7047,63.0,0,21,2.0,96.0
7048,54.0,0,21,3.0,96.0
7049,42.0,0,21,4.0,96.0
7050,75.0,0,21,5.0,96.0
7051,42.0,0,21,6.0,96.0
7052,73.0,24,21,0.0,96.0
7053,70.0,0,21,1.0,96.0
7054,66.0,0,21,2.0,96.0
7055,52.0,0,21,3.0,96.0
7056,40.0,0,21,4.0,96.0
7057,73.0,0,21,5.0,96.0
7058,40.0,0,21,6.0,96.0
7059,71.0,24,21,0.0,96.0
7060,71.0,0,21,1.0,96.0
7061,54.0,0,21,2.0,96.0
7062,51.0,0,21,3.0,96.0
7063,39.0,0,21,4.0,96.0
7064,71.0,0,21,5.0,96.0
7065,39.0,0,21,6.0,96.0
7066,71.0,24,10,1.0,96.0
7067,66.0,0,21,2.0,96.0
7068,51.0,0,21,3.0,96.0
7069,39.0,0,21,4.0,96.0
7070,51.0,0,21,6.0,96.0
7071,70.0,12,10,1.0,96.0
7072,78.0,24,52,0.0,96.0
7073,78.0,0,52,5.0,96.0
7074,71.0,12,21,1.0,96.0
7075,63.0,0,21,2.0,96.0
7076,56.0,0,21,3.0,96.0
7077,44.0,0,21,4.0,96.0
7078,56.0,0,21,6.0,96.0
7079,71.0,12,10,0.0,96.0
7080,71.0,0,10,5.0,96.0
7081,70.0,12,10,0.0,96.0
7082,70.0,0,10,5.0,96.0
7083,75.0,0,21,1.0,96.0
7084,66.0,0,21,2.0,96.0
7085,54.0,0,21,3.0,96.0
7086,42.0,0,21,4.0,96.0
7087,54.0,0,21,6.0,96.0
7088,71.0,12,10,0.0,96.0
7089,71.0,0,10,5.0,96.0
7090,73.0,12,21,0.0,96.0
7091,70.0,0,21,1.0,96.0
7092,66.0,0,21,2.0,96.0
7093,52.0,0,21,3.0,96.0
7094,40.0,0,21,4.0,96.0
7095,73.0,0,21,5.0,96.0
7096,52.0,0,21,6.0,96.0
7097,71.0,24,21,0.0,96.0
7098,71.0,0,21,1.0,96.0
7099,54.0,0,21,2.0,96.0
7100,51.0,0,21,3.0,96.0
7101,39.0,0,21,4.0,96.0
7102,71.0,0,21,5.0,96.0
7103,51.0,0,21,6.0,96.0
7104,70.0,24,10,0.0,96.0
7105,70.0,0,10,5.0,96.0
7106,64.0,0,21,1.0,96.0
7107,61.0,0,21,2.0,96.0
7108,49.0,0,21,3.0,96.0
7109,37.0,0,21,4.0,96.0
7110,49.0,0,21,6.0,96.0
7111,71.0,12,10,0.0,96.0
7112,71.0,0,10,5.0,96.0
7113,73.0,12,10,0.0,96.0
7114,73.0,0,10,5.0,96.0
7115,68.0,0,21,1.0,96.0
7116,64.0,0,21,2.0,96.0
7117,47.0,0,21,3.0,96.0
7118,35.0,0,21,4.0,96.0
7119,47.0,0,21,6.0,96.0
7120,70.0,12,10,0.0,96.0
7121,70.0,0,10,5.0,96.0
7122,66.0,12,10,0.0,96.0
7123,66.0,0,10,5.0,96.0
7124,61.0,0,21,1.0,96.0
7125,66.0,0,21,2.0,96.0
7126,46.0,0,21,3.0,96.0
7127,34.0,0,21,4.0,96.0
7128,46.0,0,21,6.0,96.0
7129,76.0,12,12,0.0,96.0
7130,76.0,0,12,5.0,96.0
7131,75.0,12,12,0.0,96.0
7132,75.0,0,12,5.0,96.0
7133,70.0,0,21,1.0,96.0
7134,66.0,0,21,2.0,96.0
7135,42.0,0,21,3.0,96.0
7136,30.0,0,21,4.0,96.0
7137,42.0,0,21,6.0,96.0
7138,73.0,12,10,0.0,96.0
7139,73.0,0,10,5.0,96.0
7140,66.0,12,10,0.0,96.0
7141,66.0,0,10,5.0,96.0
7142,71.0,0,21,1.0,96.0
7143,66.0,0,21,2.0,96.0
7144,47.0,0,21,3.0,96.0
7145,35.0,0,21,4.0,96.0
7146,47.0,0,21,6.0,96.0
7147,75.0,12,12,0.0,96.0
7148,75.0,0,12,5.0,96.0
7149,73.0,12,12,0.0,96.0
7150,73.0,0,12,5.0,96.0
7151,71.0,12,10,0.0,96.0
7152,71.0,0,10,5.0,96.0
7153,66.0,12,10,0.0,96.0
7154,66.0,0,10,5.0,96.0
7155,61.0,0,21,1.0,96.0
7156,66.0,0,21,2.0,96.0
7157,46.0,0,21,3.0,96.0
7158,34.0,0,21,4.0,96.0
7159,46.0,0,21,6.0,96.0
7160,73.0,12,12,0.0,96.0
7161,73.0,0,12,5.0,96.0
7162,71.0,12,12,0.0,96.0
7163,71.0,0,12,5.0,96.0
7164,70.0,12,10,0.0,96.0
7165,70.0,0,10,5.0,96.0
7166,71.0,12,10,0.0,96.0
7167,71.0,0,10,5.0,96.0
7168,63.0,0,21,1.0,96.0
7169,68.0,0,21,2.0,96.0
7170,44.0,0,21,3.0,96.0
7171,32.0,0,21,4.0,96.0
7172,44.0,0,21,6.0,96.0
7173,64.0,12,12,0.0,96.0
7174,64.0,0,12,5.0,96.0
7175,63.0,12,12,0.0,96.0
7176,63.0,0,12,5.0,96.0
7177,61.0,12,10,0.0,96.0
7178,61.0,0,10,5.0,96.0
7179,59.0,12,10,0.0,96.0
7180,59.0,0,10,5.0,96.0
7181,66.0,0,21,1.0,96.0
7182,59.0,0,21,2.0,96.0
7183,39.0,0,21,3.0,96.0
7184,27.0,0,21,4.0,96.0
7185,39.0,0,21,6.0,96.0
7186,69.0,12,12,0.0,96.0
7187,69.0,0,12,5.0,96.0
7188,68.0,12,12,0.0,96.0
7189,68.0,0,12,5.0,96.0
7190,63.0,0,21,1.0,96.0
7191,47.0,0,21,3.0,96.0
7192,35.0,0,21,4.0,96.0
7193,47.0,0,21,6.0,96.0
7194,66.0,12,10,0.0,96.0
7195,66.0,0,10,5.0,96.0
7196,59.0,0,31,2.0,96.0
7197,68.0,12,10,0.0,96.0
7198,68.0,0,10,5.0,96.0
7199,64.0,0,21,1.0,96.0
7200,40.0,0,21,3.0,96.0
7201,28.0,0,21,4.0,96.0
7202,40.0,0,21,6.0,96.0
7203,66.0,12,10,0.0,96.0
7204,57.0,0,10,2.0,96.0
7205,66.0,0,10,5.0,96.0
7206,64.0,12,10,0.0,96.0
7207,56.0,0,10,2.0,96.0
7208,64.0,0,10,5.0,96.0
7209,59.0,0,21,1.0,96.0
7210,44.0,0,21,3.0,96.0
7211,32.0,0,21,4.0,96.0
7212,44.0,0,21,6.0,96.0
7213,63.0,12,10,0.0,96.0
7214,54.0,0,10,2.0,96.0
7215,63.0,0,10,5.0,96.0
7216,61.0,12,10,0.0,96.0
7217,68.0,0,10,1.0,96.0
7218,61.0,0,10,5.0,96.0
7219,52.0,0,21,2.0,96.0
7220,49.0,0,21,3.0,96.0
7221,37.0,0,21,4.0,96.0
7222,49.0,0,21,6.0,96.0
7223,75.0,12,10,0.0,96.0
7224,66.0,0,10,1.0,96.0
7225,75.0,0,10,5.0,96.0
7226,73.0,12,10,0.0,96.0
7227,64.0,0,10,1.0,96.0
7228,73.0,0,10,5.0,96.0
7229,52.0,0,21,3.0,96.0
7230,40.0,0,21,4.0,96.0
7231,52.0,0,21,6.0,96.0
7232,71.0,12,10,0.0,96.0
7233,63.0,0,10,1.0,96.0
7234,71.0,0,10,5.0,96.0
7235,61.0,0,31,2.0,96.0
7236,70.0,12,10,0.0,96.0
7237,70.0,0,10,5.0,96.0
7238,61.0,0,21,1.0,96.0
7239,42.0,0,21,3.0,96.0
7240,30.0,0,21,4.0,96.0
7241,42.0,0,21,6.0,96.0
7242,68.0,12,10,0.0,96.0
7243,59.0,0,10,2.0,96.0
7244,68.0,0,10,5.0,96.0
7245,66.0,12,10,0.0,96.0
7246,58.0,0,10,2.0,96.0
7247,66.0,0,10,5.0,96.0
7248,46.0,0,21,3.0,96.0
7249,34.0,0,21,4.0,96.0
7250,46.0,0,21,6.0,96.0
7251,64.0,12,10,0.0,96.0
7252,56.0,0,10,2.0,96.0
7253,64.0,0,10,5.0,96.0
7254,70.0,0,31,1.0,96.0
7255,63.0,12,10,0.0,96.0
7256,63.0,0,10,5.0,96.0
7257,54.0,0,21,2.0,96.0
7258,51.0,0,21,3.0,96.0
7259,39.0,0,21,4.0,96.0
7260,51.0,0,21,6.0,96.0
7261,76.0,12,10,0.0,96.0
7262,68.0,0,10,1.0,96.0
7263,76.0,0,10,5.0,96.0
7264,75.0,12,10,0.0,96.0
7265,66.0,0,10,1.0,96.0
7266,75.0,0,10,5.0,96.0
7267,54.0,0,21,3.0,96.0
7268,42.0,0,21,4.0,96.0
7269,54.0,0,21,6.0,96.0
7270,73.0,12,10,0.0,96.0
7271,64.0,0,10,1.0,96.0
7272,73.0,0,10,5.0,96.0
7273,63.0,0,31,2.0,96.0
7274,71.0,12,10,0.0,96.0
7275,71.0,0,10,5.0,96.0
7276,63.0,0,21,1.0,96.0
7277,44.0,0,21,3.0,96.0
7278,32.0,0,21,4.0,96.0
7279,44.0,0,21,6.0,96.0
7280,70.0,12,10,0.0,96.0
7281,61.0,0,10,2.0,96.0
7282,70.0,0,10,5.0,96.0
7283,68.0,12,10,0.0,96.0
7284,59.0,0,10,2.0,96.0
7285,68.0,0,10,5.0,96.0
7286,47.0,0,21,3.0,96.0
7287,35.0,0,21,4.0,96.0
7288,47.0,0,21,6.0,96.0
7289,66.0,12,10,0.0,96.0
7290,58.0,0,10,2.0,96.0
7291,66.0,0,10,5.0,96.0
7292,71.0,0,31,1.0,96.0
7293,64.0,12,10,0.0,96.0
7294,64.0,0,10,5.0,96.0
7295,56.0,0,21,2.0,96.0
7296,52.0,0,21,3.0,96.0
7297,40.0,0,21,4.0,96.0
7298,52.0,0,21,6.0,96.0
7299,78.0,12,10,0.0,96.0
7300,70.0,0,10,1.0,96.0
7301,78.0,0,10,5.0,96.0
7302,76.0,12,10,0.0,96.0
7303,68.0,0,10,1.0,96.0
7304,76.0,0,10,5.0,96.0
7305,56.0,0,21,3.0,96.0
7306,44.0,0,21,4.0,96.0
7307,56.0,0,21,6.0,96.0
7308,75.0,12,10,0.0,96.0
7309,66.0,0,10,1.0,96.0
7310,75.0,0,10,5.0,96.0
7311,64.0,0,31,2.0,96.0
7312,73.0,12,10,0.0,96.0
7313,64.0,0,10,1.0,96.0
7314,73.0,0,10,5.0,96.0
7315,46.0,0,21,3.0,96.0
7316,34.0,0,21,4.0,96.0
7317,46.0,0,21,6.0,96.0
7318,71.0,12,10,0.0,96.0
7319,75.0,0,10,1.0,96.0
7320,66.0,0,10,2.0,96.0
7321,71.0,0,10,5.0,96.0
7322,70.0,12,10,0.0,96.0
7323,73.0,0,10,1.0,96.0
7324,64.0,0,10,2.0,96.0
7325,70.0,0,10,5.0,96.0
7326,49.0,0,21,3.0,96.0
7327,37.0,0,21,4.0,96.0
7328,49.0,0,21,6.0,96.0
7329,68.0,12,10,0.0,96.0
7330,71.0,0,10,1.0,96.0
7331,63.0,0,10,2.0,96.0
7332,68.0,0,10,5.0,96.0
7333,66.0,12,10,0.0,96.0
7334,70.0,0,10,1.0,96.0
7335,66.0,0,10,5.0,96.0
7336,61.0,0,21,2.0,96.0
7337,54.0,0,21,3.0,96.0
7338,42.0,0,21,4.0,96.0
7339,54.0,0,21,6.0,96.0
7340,80.0,12,10,0.0,96.0
7341,76.0,0,10,1.0,96.0
7342,80.0,0,10,5.0,96.0
7343,78.0,12,10,0.0,96.0
7344,75.0,0,10,1.0,96.0
7345,78.0,0,10,5.0,96.0
7346,66.0,0,21,2.0,96.0
7347,58.0,0,21,3.0,96.0
7348,46.0,0,21,4.0,96.0
7349,58.0,0,21,6.0,96.0
7350,76.0,12,10,0.0,96.0
7351,73.0,0,10,1.0,96.0
7352,76.0,0,10,5.0,96.0
7353,76.0,0,12,5.0,96.0
7354,71.0,0,21,1.0,96.0
7355,66.0,0,21,2.0,96.0
7356,59.0,0,21,3.0,96.0
7357,47.0,0,21,4.0,96.0
7358,59.0,0,21,6.0,96.0
7359,75.0,12,31,0.0,96.0
7360,75.0,12,21,5.0,96.0
7361,68.0,0,21,2.0,96.0
7362,52.0,0,21,3.0,96.0
7363,40.0,0,21,4.0,96.0
7364,52.0,0,21,6.0,96.0
7365,73.0,12,10,0.0,96.0
7366,73.0,0,10,5.0,96.0
7367,75.0,0,6,5.0,96.0
7368,73.0,6,6,5.0,96.0
7369,71.0,12,42,1.0,96.0
7370,75.0,6,6,5.0,96.0
7371,66.0,0,21,2.0,96.0
7372,54.0,0,21,3.0,96.0
7373,42.0,0,21,4.0,96.0
7374,54.0,0,21,6.0,96.0
7375,73.0,6,6,5.0,96.0
7376,75.0,0,6,5.0,96.0
7377,73.0,12,31,0.0,96.0
7378,73.0,6,5,5.0,96.0
7379,70.0,6,21,1.0,96.0
7380,64.0,0,21,2.0,96.0
7381,42.0,0,21,3.0,96.0
7382,30.0,0,21,4.0,96.0
7383,42.0,0,21,6.0,96.0
7384,71.0,6,10,0.0,96.0
7385,71.0,0,10,5.0,96.0
7386,71.0,12,21,0.0,96.0
7387,71.0,0,21,1.0,96.0
7388,63.0,0,21,2.0,96.0
7389,47.0,0,42,3.0,96.0
7390,35.0,0,42,4.0,96.0
7391,71.0,0,42,5.0,96.0
7392,47.0,0,42,6.0,96.0
7393,73.0,24,21,0.0,96.0
7394,68.0,0,21,1.0,96.0
7395,64.0,0,21,2.0,96.0
7396,71.0,24,21,0.0,96.0
7397,66.0,0,21,1.0,96.0
7398,63.0,0,21,2.0,96.0
7399,70.0,24,21,0.0,96.0
7400,64.0,0,21,1.0,96.0
7401,61.0,0,21,2.0,96.0
7402,66.0,0,21,5.0,96.0
7403,66.0,0,10,5.0,96.0
7404,68.0,12,10,5.0,96.0
7405,69.0,12,6,5.0,96.0
7406,71.0,24,42,0.0,96.0
7407,63.0,0,42,1.0,96.0
7408,59.0,0,42,2.0,96.0
7409,49.0,0,21,6.0,96.0
7410,71.0,24,12,5.0,96.0
7411,51.0,0,21,6.0,96.0
7412,69.0,12,12,5.0,96.0
7413,68.0,12,12,5.0,96.0
7414,52.0,0,21,6.0,96.0
7415,66.0,12,10,5.0,96.0
7416,75.0,0,10,5.0,96.0
7417,54.0,0,10,6.0,96.0
7418,73.0,12,10,5.0,96.0
7419,56.0,0,10,6.0,96.0
7420,54.0,0,10,6.0,96.0
7421,75.0,12,21,5.0,96.0
7422,52.0,12,10,6.0,96.0
7423,66.0,12,10,5.0,96.0
7424,51.0,0,10,6.0,96.0
7425,69.0,12,10,5.0,96.0
7426,49.0,0,10,6.0,96.0
7427,68.0,12,10,5.0,96.0
7428,48.0,0,10,6.0,96.0
7429,66.0,12,10,5.0,96.0
7430,51.0,0,10,6.0,96.0
7431,75.0,12,10,5.0,96.0
7432,44.0,0,21,6.0,96.0
7433,72.0,12,10,5.0,96.0
7434,73.0,12,10,5.0,96.0
7435,46.0,0,21,6.0,96.0
7436,75.0,12,10,5.0,96.0
7437,68.0,12,10,5.0,96.0
7438,75.0,12,156,0.0,80.0
7439,66.0,0,156,1.0,80.0
7440,60.0,0,156,2.0,80.0
7441,48.0,0,21,6.0,96.0
7442,78.0,12,10,5.0,96.0
7443,73.0,12,10,0.0,80.0
7444,76.0,0,10,5.0,96.0
7445,68.0,0,21,1.0,80.0
7446,66.0,0,21,2.0,80.0
7447,44.0,0,21,6.0,96.0
7448,72.0,12,10,0.0,80.0
7449,75.0,0,10,5.0,96.0
7450,78.0,0,10,5.0,96.0
7451,49.0,0,21,6.0,96.0
7452,76.0,12,10,5.0,96.0
7453,75.0,12,10,5.0,96.0
7454,73.0,12,42,0.0,80.0
7455,68.0,0,42,1.0,80.0
7456,64.0,0,42,2.0,80.0
7457,51.0,0,21,6.0,96.0
7458,76.0,12,10,5.0,96.0
7459,52.0,0,10,6.0,96.0
7460,73.0,12,21,5.0,96.0
7461,49.0,12,10,6.0,96.0
7462,51.0,0,10,6.0,96.0
7463,52.0,12,10,6.0,96.0
7464,80.0,12,31,5.0,96.0
7465,54.0,12,21,6.0,96.0
7466,78.0,12,10,5.0,96.0
7467,76.0,12,10,5.0,96.0
7468,56.0,0,21,6.0,96.0
7469,80.0,12,10,5.0,96.0
7470,78.0,12,10,5.0,96.0
7471,57.0,0,21,6.0,96.0
7472,76.0,12,10,5.0,96.0
7473,75.0,12,10,5.0,96.0
7474,54.0,0,21,6.0,96.0
7475,73.0,12,10,5.0,96.0
7476,72.0,12,10,5.0,96.0
7477,56.0,0,21,6.0,96.0
7478,73.0,12,10,5.0,96.0
7479,75.0,0,10,5.0,96.0
7480,78.0,12,21,0.0,80.0
7481,75.0,0,21,1.0,80.0
7482,72.0,0,21,2.0,80.0
7483,44.0,0,21,6.0,96.0
7484,72.0,12,10,5.0,96.0
7485,68.0,0,10,5.0,96.0
7486,78.0,12,21,0.0,80.0
7487,75.0,0,21,1.0,80.0
7488,72.0,0,21,2.0,80.0
7489,72.0,12,10,5.0,96.0
7490,75.0,0,10,5.0,96.0
7491,75.0,12,21,0.0,80.0
7492,72.0,0,21,1.0,80.0
7493,68.0,0,21,2.0,80.0
7494,56.0,0,21,6.0,96.0
7495,78.0,12,10,5.0,96.0
7496,61.0,0,6,6.0,96.0
7497,76.0,0,10,5.0,96.0
7498,59.0,6,6,6.0,96.0
7499,76.0,12,21,0.0,80.0
7500,73.0,0,21,1.0,80.0
7501,68.0,0,21,2.0,80.0
7502,75.0,6,10,5.0,96.0
7503,61.0,0,21,6.0,96.0
7504,73.0,12,10,5.0,96.0
7505,80.0,12,10,5.0,96.0
7506,59.0,0,10,6.0,96.0
7507,57.0,0,4,6.0,96.0
7508,59.0,4,4,6.0,96.0
7509,78.0,12,10,5.0,96.0
7510,57.0,4,3,6.0,96.0
7511,76.0,4,10,5.0,96.0
7512,56.0,0,10,6.0,96.0
7513,75.0,12,10,5.0,96.0
7514,57.0,0,21,6.0,96.0
7515,73.0,12,10,5.0,96.0
7516,81.0,12,6,5.0,96.0
7517,56.0,0,10,6.0,96.0
7518,80.0,6,6,5.0,96.0
7519,81.0,6,6,5.0,96.0
7520,44.0,0,10,6.0,96.0
7521,80.0,6,6,5.0,96.0
7522,81.0,6,6,5.0,96.0
7523,56.0,0,10,6.0,96.0
7524,80.0,6,6,5.0,96.0
7525,81.0,6,6,5.0,96.0
7526,54.0,0,10,6.0,96.0
7527,80.0,6,6,5.0,96.0
7528,81.0,6,6,5.0,96.0
7529,52.0,0,10,6.0,96.0
7530,80.0,6,6,5.0,96.0
7531,81.0,6,6,5.0,96.0
7532,51.0,0,10,6.0,96.0
7533,80.0,6,6,5.0,96.0
7534,81.0,0,6,5.0,96.0
7535,49.0,0,10,6.0,96.0
7536,80.0,6,6,5.0,96.0
7537,81.0,6,6,5.0,96.0
7538,68.0,6,21,0.0,96.0
7539,75.0,0,21,1.0,96.0
7540,63.0,0,21,2.0,96.0
7541,54.0,0,21,3.0,96.0
7542,42.0,0,21,4.0,96.0
7543,48.0,0,10,6.0,96.0
7544,80.0,6,6,5.0,96.0
7545,81.0,0,6,5.0,96.0
7546,73.0,6,10,0.0,96.0
7547,80.0,6,6,5.0,96.0
7548,81.0,0,6,5.0,96.0
7549,76.0,0,21,1.0,96.0
7550,49.0,0,21,6.0,96.0
7551,72.0,6,10,0.0,96.0
7552,80.0,6,6,5.0,96.0
7553,81.0,0,6,5.0,96.0
7554,73.0,6,10,0.0,96.0
7555,80.0,6,6,5.0,96.0
7556,61.0,0,42,2.0,96.0
7557,52.0,0,42,3.0,96.0
7558,40.0,0,42,4.0,96.0
7559,81.0,0,6,5.0,96.0
7560,80.0,0,21,1.0,96.0
7561,52.0,0,21,6.0,96.0
7562,76.0,6,10,0.0,96.0
7563,80.0,6,6,5.0,96.0
7564,81.0,0,6,5.0,96.0
7565,73.0,6,10,0.0,96.0
7566,80.0,6,6,5.0,96.0
7567,81.0,0,6,5.0,96.0
7568,76.0,0,21,1.0,96.0
7569,56.0,0,21,6.0,96.0
7570,68.0,6,10,0.0,96.0
7571,80.0,6,6,5.0,96.0
7572,81.0,0,6,5.0,96.0
7573,64.0,6,10,0.0,96.0
7574,80.0,6,6,5.0,96.0
7575,81.0,0,6,5.0,96.0
7576,73.0,0,21,1.0,96.0
7577,68.0,0,21,2.0,96.0
7578,56.0,0,21,3.0,96.0
7579,44.0,0,21,4.0,96.0
7580,61.0,0,21,6.0,96.0
7581,68.0,6,10,0.0,96.0
7582,80.0,6,6,5.0,96.0
7583,81.0,0,6,5.0,96.0
7584,61.0,6,10,0.0,96.0
7585,80.0,6,6,5.0,96.0
7586,81.0,0,6,5.0,96.0
7587,64.0,0,21,2.0,96.0
7588,52.0,0,21,6.0,96.0
7589,68.0,6,10,0.0,96.0
7590,80.0,6,6,5.0,96.0
7591,81.0,0,6,5.0,96.0
7592,64.0,6,10,0.0,96.0
7593,80.0,6,6,5.0,96.0
7594,61.0,0,42,3.0,96.0
7595,49.0,0,42,4.0,96.0
7596,81.0,0,6,5.0,96.0
7597,68.0,0,21,1.0,96.0
7598,61.0,0,21,2.0,96.0
7599,56.0,0,21,6.0,96.0
7600,68.0,6,10,0.0,96.0
7601,80.0,6,6,5.0,96.0
7602,81.0,0,6,5.0,96.0
7603,61.0,6,10,0.0,96.0
7604,80.0,6,6,5.0,96.0
7605,81.0,0,6,5.0,96.0
7606,64.0,0,21,1.0,96.0
7607,61.0,0,21,6.0,96.0
7608,68.0,6,10,0.0,96.0
7609,80.0,6,6,5.0,96.0
7610,81.0,0,6,5.0,96.0
7611,64.0,6,10,0.0,96.0
7612,80.0,6,6,5.0,96.0
7613,81.0,0,6,5.0,96.0
7614,61.0,0,21,1.0,96.0
7615,56.0,0,21,2.0,96.0
7616,56.0,0,21,3.0,96.0
7617,44.0,0,21,4.0,96.0
7618,64.0,0,21,6.0,96.0
7619,68.0,6,10,0.0,96.0
7620,80.0,6,6,5.0,96.0
7621,81.0,0,6,5.0,96.0
7622,73.0,6,10,0.0,96.0
7623,80.0,6,6,5.0,96.0
7624,81.0,0,6,5.0,96.0
7625,52.0,0,21,2.0,96.0
7626,61.0,0,21,3.0,96.0
7627,49.0,0,21,4.0,96.0
7628,61.0,0,21,6.0,96.0
7629,72.0,6,10,0.0,96.0
7630,80.0,6,6,5.0,96.0
7631,81.0,0,6,5.0,96.0
7632,73.0,6,10,0.0,96.0
7633,80.0,6,6,5.0,96.0
7634,81.0,0,6,5.0,96.0
7635,49.0,0,21,2.0,96.0
7636,56.0,0,21,3.0,96.0
7637,44.0,0,21,4.0,96.0
7638,56.0,0,21,6.0,96.0
7639,76.0,6,10,0.0,96.0
7640,80.0,6,6,5.0,96.0
7641,81.0,0,6,5.0,96.0
7642,73.0,6,10,0.0,96.0
7643,52.0,0,21,3.0,96.0
7644,40.0,0,21,4.0,96.0
7645,52.0,0,21,6.0,96.0
7646,68.0,6,10,0.0,96.0
7647,64.0,12,10,0.0,96.0
7648,49.0,0,21,3.0,96.0
7649,37.0,0,21,4.0,96.0
7650,49.0,0,21,6.0,96.0
7651,68.0,12,10,0.0,96.0
7652,80.0,6,42,5.0,96.0
7653,78.0,6,5,5.0,96.0
7654,80.0,6,5,5.0,96.0
7655,61.0,12,21,0.0,96.0
7656,45.0,0,21,3.0,96.0
7657,33.0,0,21,4.0,96.0
7658,45.0,0,21,6.0,96.0
7659,81.0,6,5,5.0,96.0
7660,80.0,6,10,5.0,96.0
7661,60.0,0,21,6.0,96.0
7662,78.0,12,10,5.0,96.0
7663,76.0,12,10,5.0,96.0
7664,61.0,0,21,6.0,96.0
7665,75.0,12,10,5.0,96.0
7666,73.0,0,10,5.0,96.0
7667,57.0,12,21,3.0,80.0
7668,45.0,0,21,4.0,80.0
7669,63.0,0,21,6.0,96.0
7670,57.0,0,21,6.0,96.0
7671,72.0,12,10,5.0,96.0
7672,73.0,0,12,5.0,96.0
7673,75.0,12,6,5.0,96.0
7674,56.0,12,21,3.0,80.0
7675,44.0,0,21,4.0,80.0
7676,64.0,0,21,6.0,96.0
7677,56.0,0,21,6.0,96.0
7678,73.0,6,6,5.0,96.0
7679,72.0,0,6,5.0,96.0
7680,73.0,6,6,5.0,96.0
7681,54.0,6,21,3.0,80.0
7682,42.0,0,21,4.0,80.0
7683,57.0,0,21,6.0,96.0
7684,54.0,0,21,6.0,96.0
7685,75.0,6,10,5.0,96.0
7686,56.0,12,21,3.0,80.0
7687,44.0,0,21,4.0,80.0
7688,75.0,0,31,5.0,96.0
7689,72.0,0,42,6.0,96.0
7690,56.0,0,42,6.0,96.0
7691,44.0,24,21,3.0,80.0
7692,32.0,0,21,4.0,80.0
7693,44.0,0,21,6.0,96.0
7694,73.0,12,10,5.0,96.0
7695,73.0,0,10,5.0,96.0
7696,76.0,12,10,5.0,96.0
7697,75.0,12,10,5.0,96.0
7698,67.0,0,42,2.0,80.0
7699,51.0,0,42,3.0,80.0
7700,39.0,0,42,4.0,80.0
7701,58.0,0,42,6.0,96.0
7702,55.0,0,42,6.0,96.0
7703,51.0,0,42,6.0,96.0
7704,73.0,12,10,5.0,96.0
7705,79.0,0,12,5.0,96.0
7706,80.0,12,12,5.0,96.0
7707,82.0,0,10,5.0,96.0
7708,73.0,0,84,1.0,80.0
7709,55.0,12,21,3.0,80.0
7710,43.0,0,21,4.0,80.0
7711,55.0,0,21,6.0,96.0
7712,73.0,12,10,5.0,96.0
7713,82.0,12,108,0.0,80.0
7714,63.0,12,63,2.0,80.0
7715,56.0,0,21,3.0,80.0
7716,44.0,0,21,4.0,80.0
7717,71.0,0,26,5.0,96.0
7718,70.0,6,5,5.0,96.0
7719,68.0,6,5,5.0,96.0
7720,71.0,12,42,1.0,80.0
7721,80.0,24,21,0.0,80.0
7722,68.0,0,21,2.0,80.0
7723,52.0,0,21,3.0,80.0
7724,40.0,0,21,4.0,80.0
7725,52.0,0,21,6.0,96.0
7726,70.0,6,5,5.0,96.0
7727,56.0,0,63,6.0,96.0
7728,49.0,6,21,3.0,80.0
7729,37.0,0,21,4.0,80.0
7730,49.0,0,21,6.0,96.0
7731,70.0,0,31,5.0,96.0
7732,51.0,24,21,3.0,80.0
7733,39.0,0,21,4.0,80.0
7734,55.0,0,21,6.0,96.0
7735,51.0,0,21,6.0,96.0
7736,68.0,12,10,5.0,96.0
7737,44.0,12,21,3.0,80.0
7738,32.0,0,21,4.0,80.0
7739,44.0,0,21,6.0,96.0
7740,68.0,12,10,0.0,96.0
7741,71.0,12,10,0.0,96.0
7742,56.0,0,10,3.0,80.0
7743,44.0,0,10,4.0,80.0
7744,56.0,0,10,6.0,96.0
7745,75.0,12,10,0.0,96.0
7746,58.0,0,10,3.0,80.0
7747,46.0,0,10,4.0,80.0
7748,58.0,0,10,6.0,96.0
7749,80.0,12,10,0.0,96.0
7750,59.0,0,21,3.0,80.0
7751,47.0,0,21,4.0,80.0
7752,59.0,0,21,6.0,96.0
7753,78.0,12,10,0.0,96.0
7754,76.0,12,10,0.0,96.0
7755,71.0,0,21,1.0,96.0
7756,68.0,0,21,2.0,96.0
7757,56.0,0,21,3.0,96.0
7758,44.0,0,21,4.0,96.0
7759,56.0,0,21,6.0,96.0
7760,75.0,12,10,0.0,96.0
7761,68.0,12,3,0.0,96.0
7762,49.0,0,10,6.0,96.0
7763,70.0,0,21,1.0,96.0
7764,64.0,0,21,2.0,96.0
7765,61.0,0,21,3.0,96.0
7766,49.0,0,21,4.0,96.0
7767,61.0,0,10,6.0,96.0
7768,76.0,12,12,0.0,96.0
7769,59.0,0,10,6.0,96.0
7770,75.0,12,12,0.0,96.0
7771,73.0,12,10,0.0,96.0
7772,58.0,0,10,6.0,96.0
7773,68.0,12,3,0.0,96.0
7774,47.0,0,10,6.0,96.0
7775,71.0,0,21,1.0,96.0
7776,63.0,0,21,2.0,96.0
7777,59.0,0,21,3.0,96.0
7778,47.0,0,21,4.0,96.0
7779,59.0,0,10,6.0,96.0
7780,75.0,12,12,0.0,96.0
7781,58.0,0,10,6.0,96.0
7782,73.0,12,12,0.0,96.0
7783,71.0,12,10,0.0,96.0
7784,56.0,0,10,6.0,96.0
7785,61.0,12,3,0.0,96.0
7786,46.0,0,10,6.0,96.0
7787,73.0,0,21,1.0,96.0
7788,61.0,0,21,2.0,96.0
7789,58.0,0,21,3.0,96.0
7790,46.0,0,21,4.0,96.0
7791,58.0,0,10,6.0,96.0
7792,73.0,12,12,0.0,96.0
7793,56.0,0,10,6.0,96.0
7794,71.0,12,12,0.0,96.0
7795,70.0,12,10,0.0,96.0
7796,55.0,0,10,6.0,96.0
7797,68.0,0,240,5.0,96.0
7798,56.0,0,10,6.0,96.0
7799,71.0,12,21,0.0,96.0
7800,71.0,0,21,1.0,96.0
7801,63.0,0,21,2.0,96.0
7802,56.0,0,21,3.0,96.0
7803,44.0,0,21,4.0,96.0
7804,71.0,12,10,5.0,96.0
7805,54.0,0,10,6.0,96.0
7806,73.0,0,10,5.0,96.0
7807,52.0,0,10,6.0,96.0
7808,80.0,12,21,0.0,80.0
7809,75.0,12,10,5.0,96.0
7810,51.0,0,10,6.0,96.0
7811,76.0,0,10,5.0,96.0
7812,68.0,0,21,1.0,80.0
7813,61.0,0,21,2.0,80.0
7814,49.0,0,21,3.0,80.0
7815,37.0,0,21,4.0,80.0
7816,49.0,0,21,6.0,96.0
7817,79.0,12,10,5.0,96.0
7818,80.0,12,10,5.0,96.0
7819,61.0,0,21,6.0,96.0
7820,82.0,12,10,5.0,96.0
7821,75.0,0,10,5.0,96.0
7822,71.0,12,21,1.0,80.0
7823,63.0,0,21,2.0,80.0
7824,47.0,0,21,3.0,80.0
7825,35.0,0,21,4.0,80.0
7826,59.0,0,21,6.0,96.0
7827,79.0,12,10,5.0,96.0
7828,80.0,12,10,5.0,96.0
7829,47.0,0,21,6.0,96.0
7830,82.0,12,10,5.0,96.0
7831,73.0,0,10,5.0,96.0
7832,73.0,12,21,1.0,80.0
7833,70.0,0,21,2.0,80.0
7834,46.0,0,21,3.0,80.0
7835,34.0,0,21,4.0,80.0
7836,46.0,0,21,6.0,96.0
7837,79.0,12,10,5.0,96.0
7838,80.0,12,10,5.0,96.0
7839,58.0,0,21,6.0,96.0
7840,82.0,12,10,5.0,96.0
7841,71.0,0,10,5.0,96.0
7842,80.0,12,156,0.0,80.0
7843,75.0,12,21,1.0,80.0
7844,71.0,0,21,2.0,80.0
7845,44.0,0,21,3.0,80.0
7846,32.0,0,21,4.0,80.0
7847,56.0,0,21,6.0,96.0
7848,75.0,12,10,5.0,96.0
7849,79.0,0,10,5.0,96.0
7850,79.0,12,21,0.0,96.0
7851,73.0,0,21,1.0,96.0
7852,75.0,0,21,2.0,96.0
7853,51.0,0,21,3.0,96.0
7854,39.0,0,21,4.0,96.0
7855,51.0,0,21,6.0,96.0
7856,82.0,12,10,5.0,96.0
7857,80.0,0,10,5.0,96.0
7858,71.0,0,21,1.0,96.0
7859,68.0,0,21,2.0,96.0
7860,52.0,0,21,3.0,96.0
7861,40.0,0,21,4.0,96.0
7862,52.0,0,21,6.0,96.0
7863,79.0,12,10,5.0,96.0
7864,80.0,12,31,0.0,96.0
7865,80.0,0,10,5.0,96.0
7866,80.0,12,21,1.0,96.0
7867,64.0,0,21,2.0,96.0
7868,49.0,0,21,3.0,96.0
7869,37.0,0,21,4.0,96.0
7870,49.0,0,21,6.0,96.0
7871,85.0,12,10,0.0,96.0
7872,85.0,0,10,5.0,96.0
7873,80.0,0,21,1.0,96.0
7874,63.0,0,21,2.0,96.0
7875,51.0,0,21,3.0,96.0
7876,39.0,0,21,4.0,96.0
7877,51.0,0,21,6.0,96.0
7878,82.0,12,31,0.0,96.0
7879,82.0,0,31,5.0,96.0
7880,79.0,24,21,1.0,96.0
7881,70.0,0,21,2.0,96.0
7882,39.0,0,21,3.0,96.0
7883,27.0,0,21,4.0,96.0
7884,39.0,0,21,6.0,96.0
7885,80.0,12,10,0.0,96.0
7886,80.0,0,10,5.0,96.0
7887,80.0,12,42,0.0,96.0
7888,75.0,0,42,1.0,96.0
7889,71.0,0,42,2.0,96.0
7890,44.0,0,42,3.0,96.0
7891,32.0,0,42,4.0,96.0
7892,80.0,0,42,5.0,96.0
7893,44.0,0,42,6.0,96.0
7894,71.0,72,21,0.0,80.0
7895,64.0,0,21,1.0,80.0
7896,56.0,0,21,2.0,80.0
7897,71.0,0,21,5.0,96.0
7898,76.0,24,10,0.0,80.0
7899,68.0,0,10,5.0,96.0
7900,66.0,0,5,5.0,96.0
7901,64.0,0,21,1.0,80.0
7902,56.0,0,21,2.0,80.0
7903,75.0,12,10,0.0,80.0
7904,64.0,6,5,5.0,96.0
7905,76.0,6,10,0.0,80.0
7906,59.0,0,10,5.0,96.0
7907,64.0,0,5,5.0,96.0
7908,40.0,0,42,3.0,80.0
7909,28.0,0,42,4.0,80.0
7910,68.0,0,21,1.0,80.0
7911,59.0,0,21,2.0,80.0
7912,52.0,0,21,6.0,96.0
7913,80.0,12,10,0.0,80.0
7914,66.0,6,5,5.0,96.0
7915,76.0,6,10,0.0,80.0
7916,68.0,0,10,5.0,96.0
7917,66.0,0,5,5.0,96.0
7918,68.0,0,21,1.0,80.0
7919,59.0,0,21,2.0,80.0
7920,71.0,12,10,0.0,80.0
7921,64.0,6,5,5.0,96.0
7922,68.0,6,10,0.0,80.0
7923,59.0,0,10,5.0,96.0
7924,64.0,0,5,5.0,96.0
7925,40.0,0,42,6.0,96.0
7926,71.0,0,21,1.0,80.0
7927,64.0,0,21,2.0,80.0
7928,52.0,0,21,3.0,80.0
7929,40.0,0,21,4.0,80.0
7930,71.0,12,10,0.0,80.0
7931,66.0,6,5,5.0,96.0
7932,64.0,6,10,0.0,80.0
7933,68.0,0,10,5.0,96.0
7934,66.0,0,5,5.0,96.0
7935,71.0,0,21,1.0,80.0
7936,64.0,0,21,2.0,80.0
7937,71.0,12,10,0.0,80.0
7938,64.0,6,5,5.0,96.0
7939,68.0,6,10,0.0,80.0
7940,71.0,0,10,5.0,96.0
7941,69.0,0,5,5.0,96.0
7942,40.0,0,42,3.0,80.0
7943,28.0,0,42,4.0,80.0
7944,76.0,0,21,1.0,80.0
7945,68.0,0,21,2.0,80.0
7946,52.0,0,21,6.0,96.0
7947,71.0,12,10,0.0,80.0
7948,68.0,6,5,5.0,96.0
7949,64.0,6,10,0.0,80.0
7950,76.0,0,10,5.0,96.0
7951,76.0,0,21,1.0,80.0
7952,68.0,0,21,2.0,80.0
7953,71.0,12,10,0.0,80.0
7954,71.0,0,10,5.0,96.0
7955,68.0,12,10,0.0,80.0
7956,76.0,0,10,5.0,96.0
7957,40.0,0,42,6.0,96.0
7958,52.0,0,21,3.0,80.0
7959,40.0,0,21,4.0,80.0
7960,71.0,12,10,0.0,80.0
7961,78.0,0,10,5.0,96.0
7962,76.0,12,10,0.0,80.0
7963,80.0,0,10,5.0,96.0
7964,75.0,12,10,0.0,80.0
7965,78.0,0,10,5.0,96.0
7966,76.0,12,10,0.0,80.0
7967,80.0,0,10,5.0,96.0
7968,40.0,0,42,3.0,80.0
7969,28.0,0,42,4.0,80.0
7970,52.0,0,21,6.0,96.0
7971,80.0,12,10,0.0,80.0
7972,83.0,0,10,5.0,96.0
7973,76.0,12,10,0.0,80.0
7974,80.0,0,10,5.0,96.0
7975,71.0,12,10,0.0,80.0
7976,76.0,0,10,5.0,96.0
7977,68.0,12,10,0.0,80.0
7978,71.0,0,10,5.0,96.0
7979,40.0,0,42,6.0,96.0
7980,52.0,0,21,3.0,80.0
7981,40.0,0,21,4.0,80.0
7982,71.0,12,10,0.0,80.0
7983,76.0,0,10,5.0,96.0
7984,64.0,12,10,0.0,80.0
7985,68.0,0,10,5.0,96.0
7986,40.0,0,21,3.0,80.0
7987,28.0,0,21,4.0,80.0
7988,71.0,12,10,0.0,80.0
7989,76.0,0,10,5.0,96.0
7990,68.0,12,10,0.0,80.0
7991,71.0,0,10,5.0,96.0
7992,52.0,0,21,3.0,80.0
7993,40.0,0,21,4.0,80.0
7994,40.0,0,21,6.0,96.0
7995,71.0,12,10,0.0,80.0
7996,68.0,0,10,5.0,96.0
7997,76.0,12,10,0.0,80.0
7998,56.0,0,21,3.0,80.0
7999,44.0,0,21,4.0,80.0
8000,64.0,0,21,5.0,96.0
8001,44.0,0,21,6.0,96.0
8002,71.0,12,10,0.0,80.0
8003,80.0,0,6,5.0,96.0
8004,78.0,12,10,0.0,96.0
8005,78.0,6,6,5.0,96.0
8006,76.0,0,6,5.0,96.0
8007,75.0,0,21,1.0,96.0
8008,71.0,0,21,2.0,96.0
8009,59.0,0,21,3.0,96.0
8010,47.0,0,21,4.0,96.0
8011,47.0,0,21,6.0,96.0
8012,71.0,6,10,0.0,96.0
8013,78.0,6,5,5.0,96.0
8014,80.0,0,6,5.0,96.0
8015,80.0,6,21,0.0,96.0
8016,76.0,0,21,1.0,96.0
8017,71.0,0,21,2.0,96.0
8018,64.0,0,21,3.0,96.0
8019,52.0,0,21,4.0,96.0
8020,52.0,0,21,6.0,96.0
8021,78.0,0,6,5.0,96.0
8022,78.0,24,21,0.0,96.0
8023,78.0,0,21,1.0,96.0
8024,71.0,0,21,2.0,96.0
8025,63.0,0,21,3.0,96.0
8026,51.0,0,21,4.0,96.0
8027,51.0,0,21,6.0,96.0
8028,81.0,0,6,5.0,96.0
8029,81.0,24,21,0.0,96.0
8030,76.0,0,21,1.0,96.0
8031,64.0,0,21,2.0,96.0
8032,61.0,0,21,3.0,96.0
8033,49.0,0,21,4.0,96.0
8034,49.0,0,21,6.0,96.0
8035,80.0,0,6,5.0,96.0
8036,80.0,24,21,0.0,96.0
8037,76.0,0,21,1.0,96.0
8038,68.0,0,21,2.0,96.0
8039,59.0,0,21,3.0,96.0
8040,47.0,0,21,4.0,96.0
8041,47.0,0,21,6.0,96.0
8042,78.0,0,6,5.0,96.0
8043,80.0,6,6,5.0,96.0
8044,78.0,24,21,0.0,96.0
8045,75.0,0,21,1.0,96.0
8046,71.0,0,21,2.0,96.0
8047,57.0,0,21,3.0,96.0
8048,45.0,0,21,4.0,96.0
8049,45.0,0,21,6.0,96.0
8050,78.0,6,10,5.0,96.0
8051,76.0,12,21,0.0,96.0
8052,76.0,0,21,1.0,96.0
8053,71.0,0,21,2.0,96.0
8054,56.0,0,21,3.0,96.0
8055,44.0,0,21,4.0,96.0
8056,76.0,0,21,5.0,96.0
8057,44.0,0,21,6.0,96.0
8058,56.0,12,10,3.0,80.0
8059,44.0,0,10,4.0,80.0
8060,56.0,0,10,6.0,96.0
8061,57.0,0,10,3.0,80.0
8062,45.0,0,10,4.0,80.0
8063,57.0,0,10,6.0,96.0
8064,83.0,12,21,0.0,80.0
8065,78.0,0,21,1.0,80.0
8066,63.0,0,21,2.0,80.0
8067,59.0,12,10,3.0,80.0
8068,47.0,0,10,4.0,80.0
8069,59.0,0,10,6.0,96.0
8070,83.0,24,52,5.0,96.0
8071,83.0,12,21,0.0,80.0
8072,80.0,0,21,1.0,80.0
8073,64.0,0,21,2.0,80.0
8074,52.0,0,21,3.0,80.0
8075,40.0,0,21,4.0,80.0
8076,52.0,0,21,6.0,96.0
8077,74.0,12,10,5.0,96.0
8078,73.0,0,10,5.0,96.0
8079,80.0,12,21,0.0,80.0
8080,76.0,0,21,1.0,80.0
8081,71.0,0,21,2.0,80.0
8082,64.0,0,21,3.0,80.0
8083,52.0,0,21,4.0,80.0
8084,64.0,0,21,6.0,96.0
8085,74.0,12,10,5.0,96.0
8086,80.0,12,21,0.0,80.0
8087,76.0,0,21,1.0,80.0
8088,71.0,0,21,2.0,80.0
8089,76.0,0,21,5.0,96.0
8090,52.0,12,10,3.0,80.0
8091,40.0,0,10,4.0,80.0
8092,52.0,0,10,6.0,96.0
8093,54.0,0,10,3.0,80.0
8094,42.0,0,10,4.0,80.0
8095,54.0,0,10,6.0,96.0
8096,76.0,12,21,0.0,80.0
8097,71.0,0,21,1.0,80.0
8098,68.0,0,21,2.0,80.0
8099,74.0,0,21,5.0,96.0
8100,56.0,12,10,3.0,80.0
8101,44.0,0,10,4.0,80.0
8102,56.0,0,10,6.0,96.0
8103,76.0,12,10,0.0,80.0
8104,73.0,0,10,5.0,96.0
8105,57.0,0,21,3.0,80.0
8106,45.0,0,21,4.0,80.0
8107,57.0,0,21,6.0,96.0
8108,74.0,12,10,0.0,80.0
8109,71.0,0,10,5.0,96.0
8110,73.0,12,10,0.0,80.0
8111,69.0,0,10,5.0,96.0
8112,73.0,0,42,1.0,80.0
8113,64.0,0,42,2.0,80.0
8114,45.0,0,21,3.0,80.0
8115,33.0,0,21,4.0,80.0
8116,45.0,0,21,6.0,96.0
8117,71.0,12,10,0.0,80.0
8118,73.0,0,10,5.0,96.0
8119,69.0,12,21,0.0,80.0
8120,54.0,12,10,3.0,80.0
8121,42.0,0,10,4.0,80.0
8122,54.0,0,10,6.0,96.0
8123,56.0,0,10,3.0,80.0
8124,44.0,0,10,4.0,80.0
8125,56.0,0,10,6.0,96.0
8126,78.0,12,21,0.0,80.0
8127,73.0,0,21,1.0,80.0
8128,69.0,0,21,2.0,80.0
8129,57.0,12,10,3.0,80.0
8130,45.0,0,10,4.0,80.0
8131,57.0,0,10,6.0,96.0
8132,78.0,0,52,5.0,96.0
8133,78.0,12,21,0.0,80.0
8134,71.0,0,21,1.0,80.0
8135,66.0,0,21,2.0,80.0
8136,51.0,0,21,3.0,80.0
8137,39.0,0,21,4.0,80.0
8138,51.0,0,21,6.0,96.0
8139,69.0,12,10,5.0,96.0
8140,68.0,0,10,5.0,96.0
8141,75.0,12,21,0.0,80.0
8142,71.0,0,21,1.0,80.0
8143,66.0,0,21,2.0,80.0
8144,59.0,0,21,3.0,80.0
8145,47.0,0,21,4.0,80.0
8146,59.0,0,21,6.0,96.0
8147,69.0,12,10,5.0,96.0
8148,75.0,12,21,0.0,80.0
8149,71.0,0,21,1.0,80.0
8150,66.0,0,21,2.0,80.0
8151,71.0,0,21,5.0,96.0
8152,47.0,12,10,3.0,80.0
8153,35.0,0,10,4.0,80.0
8154,47.0,0,10,6.0,96.0
8155,49.0,0,10,3.0,80.0
8156,37.0,0,10,4.0,80.0
8157,49.0,0,10,6.0,96.0
8158,71.0,12,21,0.0,80.0
8159,66.0,0,21,1.0,80.0
8160,63.0,0,21,2.0,80.0
8161,69.0,0,21,5.0,96.0
8162,51.0,12,10,3.0,80.0
8163,39.0,0,10,4.0,80.0
8164,51.0,0,10,6.0,96.0
8165,71.0,12,10,0.0,80.0
8166,68.0,0,10,5.0,96.0
8167,52.0,0,21,3.0,80.0
8168,40.0,0,21,4.0,80.0
8169,52.0,0,21,6.0,96.0
8170,69.0,12,10,0.0,80.0
8171,71.0,0,10,5.0,96.0
8172,68.0,12,10,0.0,80.0
8173,76.0,0,10,5.0,96.0
8174,68.0,0,42,1.0,80.0
8175,59.0,0,42,2.0,80.0
8176,40.0,0,21,3.0,80.0
8177,28.0,0,21,4.0,80.0
8178,40.0,0,21,6.0,96.0
8179,66.0,12,10,0.0,80.0
8180,78.0,0,10,5.0,96.0
8181,64.0,12,21,0.0,80.0
8182,76.0,12,10,1.0,80.0
8183,52.0,0,10,3.0,80.0
8184,40.0,0,10,4.0,80.0
8185,52.0,0,10,6.0,96.0
8186,75.0,0,10,1.0,80.0
8187,54.0,0,10,3.0,80.0
8188,42.0,0,10,4.0,80.0
8189,54.0,0,10,6.0,96.0
8190,71.0,12,21,0.0,80.0
8191,76.0,12,10,1.0,80.0
8192,56.0,0,10,3.0,80.0
8193,44.0,0,10,4.0,80.0
8194,56.0,0,10,6.0,96.0
8195,80.0,0,52,5.0,96.0
8196,73.0,12,10,0.0,80.0
8197,57.0,0,21,3.0,80.0
8198,45.0,0,21,4.0,80.0
8199,57.0,0,21,6.0,96.0
8200,76.0,12,10,0.0,80.0
8201,61.0,0,10,2.0,80.0
8202,76.0,0,10,5.0,96.0
8203,75.0,0,4,5.0,96.0
8204,76.0,4,4,5.0,96.0
8205,78.0,12,10,0.0,80.0
8206,63.0,0,10,2.0,80.0
8207,75.0,4,3,5.0,96.0
8208,45.0,0,21,3.0,80.0
8209,33.0,0,21,4.0,80.0
8210,45.0,0,21,6.0,96.0
8211,80.0,4,10,0.0,80.0
8212,64.0,0,10,2.0,80.0
8213,73.0,0,10,5.0,96.0
8214,73.0,0,52,1.0,80.0
8215,81.0,12,21,0.0,80.0
8216,69.0,12,10,1.0,80.0
8217,54.0,0,10,3.0,80.0
8218,42.0,0,10,4.0,80.0
8219,54.0,0,10,6.0,96.0
8220,71.0,0,10,1.0,80.0
8221,56.0,0,10,3.0,80.0
8222,44.0,0,10,4.0,80.0
8223,56.0,0,10,6.0,96.0
8224,78.0,12,21,0.0,80.0
8225,73.0,12,10,1.0,80.0
8226,57.0,0,10,3.0,80.0
8227,45.0,0,10,4.0,80.0
8228,57.0,0,10,6.0,96.0
8229,81.0,0,47,5.0,96.0
8230,66.0,0,52,2.0,80.0
8231,75.0,12,10,0.0,80.0
8232,76.0,6,5,5.0,96.0
8233,75.0,0,5,5.0,96.0
8234,59.0,0,21,3.0,80.0
8235,47.0,0,21,4.0,80.0
8236,59.0,0,21,6.0,96.0
8237,78.0,6,10,0.0,80.0
8238,63.0,0,10,2.0,80.0
8239,73.0,6,5,5.0,96.0
8240,80.0,6,10,0.0,80.0
8241,64.0,0,10,2.0,80.0
8242,75.0,0,10,5.0,96.0
8243,47.0,0,21,3.0,80.0
8244,35.0,0,21,4.0,80.0
8245,47.0,0,21,6.0,96.0
8246,81.0,12,10,0.0,80.0
8247,66.0,0,10,2.0,80.0
8248,78.0,0,10,5.0,96.0
8249,75.0,0,52,1.0,80.0
8250,83.0,12,21,0.0,80.0
8251,71.0,12,10,1.0,80.0
8252,56.0,0,10,3.0,80.0
8253,44.0,0,10,4.0,80.0
8254,56.0,0,10,6.0,96.0
8255,73.0,0,10,1.0,80.0
8256,57.0,0,10,3.0,80.0
8257,45.0,0,10,4.0,80.0
8258,57.0,0,10,6.0,96.0
8259,80.0,12,21,0.0,80.0
8260,75.0,12,10,1.0,80.0
8261,59.0,0,10,3.0,80.0
8262,47.0,0,10,4.0,80.0
8263,59.0,0,10,6.0,96.0
8264,83.0,0,52,5.0,96.0
8265,68.0,0,63,2.0,80.0
8266,76.0,12,21,0.0,80.0
8267,76.0,0,21,1.0,80.0
8268,61.0,0,21,3.0,80.0
8269,49.0,0,21,4.0,80.0
8270,61.0,0,21,6.0,96.0
8271,81.0,12,10,5.0,96.0
8272,80.0,0,10,5.0,96.0
8273,75.0,12,21,0.0,80.0
8274,80.0,0,21,1.0,80.0
8275,68.0,0,21,2.0,80.0
8276,59.0,0,21,3.0,80.0
8277,47.0,0,21,4.0,80.0
8278,59.0,0,21,6.0,96.0
8279,78.0,12,10,5.0,96.0
8280,76.0,0,10,5.0,96.0
8281,76.0,12,21,0.0,80.0
8282,73.0,0,21,1.0,80.0
8283,68.0,0,21,2.0,80.0
8284,61.0,0,21,3.0,80.0
8285,49.0,0,21,4.0,80.0
8286,61.0,0,21,6.0,96.0
8287,80.0,12,10,5.0,96.0
8288,78.0,0,10,5.0,96.0
8289,73.0,12,21,0.0,80.0
8290,78.0,0,21,1.0,80.0
8291,61.0,0,21,2.0,80.0
8292,58.0,0,21,3.0,80.0
8293,46.0,0,21,4.0,80.0
8294,58.0,0,21,6.0,96.0
8295,76.0,12,10,5.0,96.0
8296,75.0,0,10,5.0,96.0
8297,75.0,12,21,0.0,80.0
8298,66.0,0,21,1.0,80.0
8299,59.0,0,21,2.0,80.0
8300,59.0,0,21,3.0,80.0
8301,47.0,0,21,4.0,80.0
8302,59.0,0,21,6.0,96.0
8303,76.0,12,10,5.0,96.0
8304,78.0,0,10,5.0,96.0
8305,71.0,12,21,0.0,80.0
8306,71.0,0,21,1.0,80.0
8307,63.0,0,21,2.0,80.0
8308,57.0,0,21,3.0,80.0
8309,45.0,0,21,4.0,80.0
8310,57.0,0,21,6.0,96.0
8311,75.0,12,10,5.0,96.0
8312,56.0,12,21,3.0,80.0
8313,44.0,0,21,4.0,80.0
8314,71.0,0,21,5.0,96.0
8315,56.0,0,21,6.0,96.0
8316,71.0,12,10,0.0,80.0
8317,73.0,12,10,0.0,80.0
8318,54.0,0,21,3.0,80.0
8319,42.0,0,21,4.0,80.0
8320,69.0,0,21,5.0,96.0
8321,54.0,0,21,6.0,96.0
8322,75.0,12,10,0.0,80.0
8323,76.0,12,10,0.0,80.0
8324,68.0,0,10,5.0,96.0
8325,52.0,0,21,3.0,80.0
8326,40.0,0,21,4.0,80.0
8327,52.0,0,21,6.0,96.0
8328,75.0,12,10,0.0,80.0
8329,66.0,0,10,5.0,96.0
8330,76.0,12,10,0.0,80.0
8331,68.0,0,10,5.0,96.0
8332,76.0,0,21,1.0,80.0
8333,68.0,0,21,2.0,80.0
8334,64.0,0,21,3.0,80.0
8335,52.0,0,21,4.0,80.0
8336,64.0,0,21,6.0,96.0
8337,80.0,12,10,0.0,80.0
8338,71.0,0,10,5.0,96.0
8339,76.0,12,10,0.0,80.0
8340,68.0,0,10,5.0,96.0
8341,76.0,0,21,1.0,80.0
8342,68.0,0,21,2.0,80.0
8343,71.0,12,10,0.0,80.0
8344,71.0,0,10,5.0,96.0
8345,68.0,12,10,0.0,80.0
8346,52.0,0,10,3.0,80.0
8347,40.0,0,10,4.0,80.0
8348,76.0,0,10,5.0,96.0
8349,52.0,0,10,6.0,96.0
8350,71.0,0,21,1.0,80.0
8351,64.0,0,21,2.0,80.0
8352,71.0,12,10,0.0,80.0
8353,51.0,0,10,3.0,80.0
8354,39.0,0,10,4.0,80.0
8355,71.0,0,10,5.0,96.0
8356,51.0,0,10,6.0,96.0
8357,64.0,12,10,0.0,80.0
8358,80.0,0,10,5.0,96.0
8359,73.0,0,21,1.0,80.0
8360,64.0,0,21,2.0,80.0
8361,49.0,0,21,3.0,80.0
8362,37.0,0,21,4.0,80.0
8363,49.0,0,21,6.0,96.0
8364,71.0,12,10,0.0,80.0
8365,78.0,0,10,5.0,96.0
8366,68.0,12,10,0.0,80.0
8367,76.0,0,10,5.0,96.0
8368,80.0,0,21,1.0,80.0
8369,73.0,0,21,2.0,80.0
8370,61.0,0,21,3.0,80.0
8371,49.0,0,21,4.0,80.0
8372,61.0,0,21,6.0,96.0
8373,71.0,12,10,0.0,80.0
8374,75.0,0,10,5.0,96.0
8375,64.0,12,10,0.0,80.0
8376,80.0,0,21,1.0,80.0
8377,73.0,0,21,2.0,80.0
8378,76.0,0,21,5.0,96.0
8379,71.0,12,10,0.0,80.0
8380,49.0,0,10,3.0,80.0
8381,37.0,0,10,4.0,80.0
8382,49.0,0,10,6.0,96.0
8383,68.0,12,10,0.0,80.0
8384,47.0,0,10,3.0,80.0
8385,35.0,0,10,4.0,80.0
8386,47.0,0,10,6.0,96.0
8387,76.0,0,21,1.0,80.0
8388,68.0,0,21,2.0,80.0
8389,71.0,12,10,0.0,80.0
8390,45.0,0,10,3.0,80.0
8391,33.0,0,10,4.0,80.0
8392,45.0,0,10,6.0,96.0
8393,83.0,0,31,5.0,96.0
8394,76.0,12,10,0.0,80.0
8395,76.0,0,21,1.0,80.0
8396,68.0,0,21,2.0,80.0
8397,44.0,0,21,3.0,80.0
8398,32.0,0,21,4.0,80.0
8399,44.0,0,21,6.0,96.0
8400,75.0,12,10,0.0,80.0
8401,85.0,0,10,5.0,96.0
8402,76.0,12,10,0.0,80.0
8403,83.0,0,10,5.0,96.0
8404,64.0,0,21,1.0,80.0
8405,59.0,0,21,2.0,80.0
8406,56.0,0,21,3.0,80.0
8407,44.0,0,21,4.0,80.0
8408,56.0,0,21,6.0,96.0
8409,80.0,12,10,0.0,80.0
8410,81.0,0,10,5.0,96.0
8411,76.0,12,10,0.0,80.0
8412,80.0,0,10,5.0,96.0
8413,68.0,0,21,1.0,80.0
8414,64.0,0,21,2.0,80.0
8415,71.0,12,10,0.0,80.0
8416,78.0,0,10,5.0,96.0
8417,68.0,12,10,0.0,80.0
8418,44.0,0,10,3.0,80.0
8419,32.0,0,10,4.0,80.0
8420,76.0,0,10,5.0,96.0
8421,44.0,0,10,6.0,96.0
8422,71.0,0,21,1.0,80.0
8423,68.0,0,21,2.0,80.0
8424,71.0,12,10,0.0,80.0
8425,42.0,0,10,3.0,80.0
8426,30.0,0,10,4.0,80.0
8427,75.0,0,10,5.0,96.0
8428,42.0,0,10,6.0,96.0
8429,64.0,12,10,0.0,80.0
8430,76.0,0,10,1.0,80.0
8431,76.0,0,10,5.0,96.0
8432,71.0,0,21,2.0,80.0
8433,40.0,0,21,3.0,80.0
8434,28.0,0,21,4.0,80.0
8435,40.0,0,21,6.0,96.0
8436,71.0,12,10,0.0,80.0
8437,75.0,0,10,1.0,80.0
8438,71.0,0,10,5.0,96.0
8439,68.0,12,10,0.0,80.0
8440,76.0,0,10,1.0,80.0
8441,68.0,0,10,5.0,96.0
8442,59.0,0,21,2.0,80.0
8443,52.0,0,21,3.0,80.0
8444,40.0,0,21,4.0,80.0
8445,52.0,0,21,6.0,96.0
8446,71.0,12,10,0.0,80.0
8447,75.0,0,10,1.0,80.0
8448,71.0,0,10,5.0,96.0
8449,76.0,12,10,0.0,80.0
8450,76.0,0,10,5.0,96.0
8451,76.0,0,21,1.0,80.0
8452,71.0,0,21,2.0,80.0
8453,56.0,0,21,3.0,80.0
8454,44.0,0,21,4.0,80.0
8455,56.0,0,21,6.0,96.0
8456,71.0,12,10,0.0,80.0
8457,80.0,0,10,5.0,96.0
8458,78.0,12,10,0.0,96.0
8459,78.0,0,10,5.0,96.0
8460,75.0,0,21,1.0,96.0
8461,71.0,0,21,2.0,96.0
8462,59.0,0,21,3.0,96.0
8463,47.0,0,21,4.0,96.0
8464,59.0,0,21,6.0,96.0
8465,71.0,12,10,0.0,96.0
8466,81.0,0,10,5.0,96.0
8467,80.0,12,21,0.0,96.0
8468,76.0,0,21,1.0,96.0
8469,71.0,0,21,2.0,96.0
8470,64.0,0,21,3.0,96.0
8471,52.0,0,21,4.0,96.0
8472,80.0,0,21,5.0,96.0
8473,64.0,0,21,6.0,96.0
8474,78.0,24,21,0.0,96.0
8475,78.0,0,21,1.0,96.0
8476,71.0,0,21,2.0,96.0
8477,63.0,0,21,3.0,96.0
8478,51.0,0,21,4.0,96.0
8479,78.0,0,21,5.0,96.0
8480,63.0,0,21,6.0,96.0
8481,81.0,24,21,0.0,96.0
8482,76.0,0,21,1.0,96.0
8483,64.0,0,21,2.0,96.0
8484,61.0,0,21,3.0,96.0
8485,49.0,0,21,4.0,96.0
8486,81.0,0,21,5.0,96.0
8487,61.0,0,21,6.0,96.0
8488,80.0,24,21,0.0,96.0
8489,76.0,0,21,1.0,96.0
8490,68.0,0,21,2.0,96.0
8491,59.0,0,21,3.0,96.0
8492,47.0,0,21,4.0,96.0
8493,80.0,0,21,5.0,96.0
8494,59.0,0,21,6.0,96.0
8495,78.0,0,6,5.0,96.0
8496,80.0,6,6,5.0,96.0
8497,78.0,24,21,0.0,96.0
8498,75.0,0,21,1.0,96.0
8499,71.0,0,21,2.0,96.0
8500,57.0,0,21,3.0,96.0
8501,45.0,0,21,4.0,96.0
8502,57.0,0,21,6.0,96.0
8503,78.0,6,10,5.0,96.0
8504,76.0,12,21,0.0,96.0
8505,76.0,0,21,1.0,96.0
8506,59.0,0,21,2.0,96.0
8507,56.0,0,21,3.0,96.0
8508,44.0,0,21,4.0,96.0
8509,76.0,0,21,5.0,96.0
8510,56.0,0,21,6.0,96.0
8511,76.0,24,10,1.0,96.0
8512,71.0,0,21,2.0,96.0
8513,56.0,0,21,3.0,96.0
8514,44.0,0,21,4.0,96.0
8515,56.0,0,21,6.0,96.0
8516,75.0,12,10,1.0,96.0
8517,83.0,24,52,0.0,96.0
8518,83.0,0,52,5.0,96.0
8519,76.0,12,21,1.0,96.0
8520,68.0,0,21,2.0,96.0
8521,61.0,0,21,3.0,96.0
8522,49.0,0,21,4.0,96.0
8523,61.0,0,21,6.0,96.0
8524,76.0,12,10,0.0,96.0
8525,76.0,0,10,5.0,96.0
8526,75.0,12,10,0.0,96.0
8527,75.0,0,10,5.0,96.0
8528,80.0,0,21,1.0,96.0
8529,71.0,0,21,2.0,96.0
8530,59.0,0,21,3.0,96.0
8531,47.0,0,21,4.0,96.0
8532,59.0,0,21,6.0,96.0
8533,76.0,12,10,0.0,96.0
8534,76.0,0,10,5.0,96.0
8535,78.0,12,21,0.0,96.0
8536,75.0,0,21,1.0,96.0
8537,71.0,0,21,2.0,96.0
8538,57.0,0,21,3.0,96.0
8539,45.0,0,21,4.0,96.0
8540,78.0,0,21,5.0,96.0
8541,57.0,0,21,6.0,96.0
8542,76.0,24,21,0.0,96.0
8543,76.0,0,21,1.0,96.0
8544,59.0,0,21,2.0,96.0
8545,56.0,0,21,3.0,96.0
8546,44.0,0,21,4.0,96.0
8547,76.0,0,21,5.0,96.0
8548,56.0,0,21,6.0,96.0
8549,75.0,24,10,0.0,96.0
8550,75.0,0,10,5.0,96.0
8551,69.0,0,21,1.0,96.0
8552,66.0,0,21,2.0,96.0
8553,54.0,0,21,3.0,96.0
8554,42.0,0,21,4.0,96.0
8555,54.0,0,21,6.0,96.0
8556,76.0,12,10,0.0,96.0
8557,76.0,0,10,5.0,96.0
8558,78.0,12,10,0.0,96.0
8559,78.0,0,10,5.0,96.0
8560,73.0,0,21,1.0,96.0
8561,69.0,0,21,2.0,96.0
8562,52.0,0,21,3.0,96.0
8563,40.0,0,21,4.0,96.0
8564,52.0,0,21,6.0,96.0
8565,75.0,12,10,0.0,96.0
8566,75.0,0,10,5.0,96.0
8567,71.0,12,10,0.0,96.0
8568,71.0,0,10,5.0,96.0
8569,66.0,0,21,1.0,96.0
8570,71.0,0,21,2.0,96.0
8571,51.0,0,21,3.0,96.0
8572,39.0,0,21,4.0,96.0
8573,51.0,0,21,6.0,96.0
8574,81.0,12,10,0.0,96.0
8575,81.0,0,12,5.0,96.0
8576,80.0,12,10,0.0,96.0
8577,80.0,0,12,5.0,96.0
8578,78.0,0,21,1.0,96.0
8579,71.0,0,21,2.0,96.0
8580,47.0,0,21,3.0,96.0
8581,35.0,0,21,4.0,96.0
8582,47.0,0,21,6.0,96.0
8583,78.0,12,10,0.0,96.0
8584,78.0,0,10,5.0,96.0
8585,76.0,0,10,1.0,96.0
8586,71.0,0,10,5.0,96.0
8587,80.0,12,21,0.0,96.0
8588,59.0,0,21,2.0,96.0
8589,52.0,0,21,3.0,96.0
8590,40.0,0,21,4.0,96.0
8591,52.0,0,21,6.0,96.0
8592,71.0,12,10,1.0,96.0
8593,80.0,0,12,5.0,96.0
8594,69.0,12,10,1.0,96.0
8595,78.0,0,12,5.0,96.0
8596,68.0,12,10,1.0,96.0
8597,76.0,0,10,5.0,96.0
8598,71.0,0,10,5.0,96.0
8599,66.0,12,21,1.0,96.0
8600,63.0,0,21,2.0,96.0
8601,51.0,0,21,3.0,96.0
8602,39.0,0,21,4.0,96.0
8603,51.0,0,21,6.0,96.0
8604,78.0,12,10,0.0,96.0
8605,78.0,0,12,5.0,96.0
8606,76.0,12,10,0.0,96.0
8607,76.0,0,12,5.0,96.0
8608,75.0,12,10,0.0,96.0
8609,75.0,0,10,5.0,96.0
8610,76.0,0,10,5.0,96.0
8611,76.0,12,21,0.0,96.0
8612,56.0,0,21,2.0,96.0
8613,49.0,0,21,3.0,96.0
8614,37.0,0,21,4.0,96.0
8615,49.0,0,21,6.0,96.0
8616,61.0,12,10,1.0,96.0
8617,69.0,0,12,5.0,96.0
8618,59.0,12,10,1.0,96.0
8619,68.0,0,12,5.0,96.0
8620,57.0,12,10,1.0,96.0
8621,66.0,0,10,5.0,96.0
8622,64.0,0,10,5.0,96.0
8623,59.0,12,21,1.0,96.0
8624,44.0,0,21,3.0,96.0
8625,32.0,0,21,4.0,96.0
8626,44.0,0,21,6.0,96.0
8627,74.0,12,10,0.0,96.0
8628,74.0,0,12,5.0,96.0
8629,73.0,12,10,0.0,96.0
8630,73.0,0,12,5.0,96.0
8631,40.0,0,21,3.0,96.0
8632,28.0,0,21,4.0,96.0
8633,40.0,0,21,6.0,96.0
8634,71.0,12,10,0.0,96.0
8635,71.0,0,10,5.0,96.0
8636,73.0,12,10,0.0,96.0
8637,73.0,0,10,5.0,96.0
8638,45.0,0,21,3.0,96.0
8639,33.0,0,21,4.0,96.0
8640,45.0,0,21,6.0,96.0
8641,71.0,12,10,0.0,96.0
8642,81.0,0,10,5.0,96.0
8643,69.0,12,10,0.0,96.0
8644,64.0,0,84,2.0,96.0
8645,64.0,0,21,1.0,96.0
8646,49.0,0,21,3.0,96.0
8647,37.0,0,21,4.0,96.0
8648,49.0,0,21,6.0,96.0
8649,68.0,12,10,0.0,96.0
8650,73.0,0,31,5.0,96.0
8651,66.0,12,10,0.0,96.0
8652,69.0,0,21,1.0,96.0
8653,45.0,0,21,3.0,96.0
8654,33.0,0,21,4.0,96.0
8655,45.0,0,21,6.0,96.0
8656,80.0,12,10,0.0,96.0
8657,71.0,0,10,5.0,96.0
8658,78.0,12,10,0.0,96.0
8659,69.0,0,10,5.0,96.0
8660,42.0,0,21,3.0,96.0
8661,30.0,0,21,4.0,96.0
8662,42.0,0,21,6.0,96.0
8663,76.0,12,10,0.0,96.0
8664,68.0,0,10,5.0,96.0
8665,75.0,12,10,0.0,96.0
8666,66.0,0,10,5.0,96.0
8667,73.0,0,42,1.0,96.0
8668,47.0,0,21,3.0,96.0
8669,35.0,0,21,4.0,96.0
8670,47.0,0,21,6.0,96.0
8671,73.0,12,10,0.0,96.0
8672,76.0,0,10,5.0,96.0
8673,71.0,12,10,0.0,96.0
8674,66.0,0,84,2.0,96.0
8675,66.0,0,21,1.0,96.0
8676,51.0,0,21,3.0,96.0
8677,39.0,0,21,4.0,96.0
8678,51.0,0,21,6.0,96.0
8679,69.0,12,10,0.0,96.0
8680,75.0,0,31,5.0,96.0
8681,68.0,12,10,0.0,96.0
8682,71.0,0,21,1.0,96.0
8683,47.0,0,21,3.0,96.0
8684,35.0,0,21,4.0,96.0
8685,47.0,0,21,6.0,96.0
8686,81.0,12,10,0.0,96.0
8687,73.0,0,10,5.0,96.0
8688,80.0,12,10,0.0,96.0
8689,71.0,0,10,5.0,96.0
8690,44.0,0,21,3.0,96.0
8691,32.0,0,21,4.0,96.0
8692,44.0,0,21,6.0,96.0
8693,78.0,12,10,0.0,96.0
8694,69.0,0,10,5.0,96.0
8695,76.0,12,10,0.0,96.0
8696,68.0,0,10,5.0,96.0
8697,75.0,0,42,1.0,96.0
8698,49.0,0,21,3.0,96.0
8699,37.0,0,21,4.0,96.0
8700,49.0,0,21,6.0,96.0
8701,75.0,12,10,0.0,96.0
8702,78.0,0,10,5.0,96.0
8703,73.0,12,10,0.0,96.0
8704,68.0,0,84,2.0,96.0
8705,68.0,0,21,1.0,96.0
8706,52.0,0,21,3.0,96.0
8707,40.0,0,21,4.0,96.0
8708,52.0,0,21,6.0,96.0
8709,71.0,12,10,0.0,96.0
8710,76.0,0,31,5.0,96.0
8711,69.0,12,10,0.0,96.0
8712,73.0,0,21,1.0,96.0
8713,69.0,0,21,2.0,96.0
8714,49.0,0,21,3.0,96.0
8715,37.0,0,21,4.0,96.0
8716,49.0,0,21,6.0,96.0
8717,83.0,12,10,0.0,96.0
8718,75.0,0,10,5.0,96.0
8719,81.0,12,10,0.0,96.0
8720,73.0,0,10,5.0,96.0
8721,76.0,0,21,1.0,96.0
8722,73.0,0,21,2.0,96.0
8723,45.0,0,21,3.0,96.0
8724,33.0,0,21,4.0,96.0
8725,45.0,0,21,6.0,96.0
8726,80.0,12,10,0.0,96.0
8727,71.0,0,10,5.0,96.0
8728,78.0,12,10,0.0,96.0
8729,69.0,0,10,5.0,96.0
8730,76.0,12,10,0.0,96.0
8731,80.0,0,10,5.0,96.0
8732,73.0,0,24,2.0,96.0
8733,75.0,12,10,0.0,96.0
8734,78.0,0,10,5.0,96.0
8735,78.0,0,42,1.0,96.0
8736,39.0,0,42,3.0,96.0
8737,27.0,0,42,4.0,96.0
8738,39.0,0,42,6.0,96.0
8739,71.0,0,21,2.0,96.0
8740,73.0,12,10,0.0,96.0
8741,76.0,0,10,5.0,96.0
8742,71.0,12,10,0.0,96.0
8743,75.0,0,10,5.0,96.0
8744,69.0,12,10,0.0,96.0
8745,73.0,0,10,5.0,96.0
8746,68.0,12,10,0.0,96.0
8747,71.0,0,10,5.0,96.0
8748,78.0,0,21,1.0,96.0
8749,71.0,0,21,2.0,96.0
8750,51.0,0,21,3.0,96.0
8751,39.0,0,21,4.0,96.0
8752,51.0,0,21,6.0,96.0
8753,66.0,12,10,0.0,96.0
8754,69.0,0,10,5.0,96.0
8755,71.0,0,21,1.0,96.0
8756,59.0,0,21,2.0,96.0
8757,52.0,0,21,3.0,96.0
8758,40.0,0,21,4.0,96.0
8759,68.0,0,21,5.0,96.0
8760,52.0,0,21,6.0,96.0
8761,64.0,12,31,0.0,96.0
8762,73.0,24,21,1.0,96.0
8763,64.0,0,21,2.0,96.0
8764,49.0,0,21,3.0,96.0
8765,37.0,0,21,4.0,96.0
8766,76.0,0,21,5.0,96.0
8767,49.0,0,21,6.0,96.0
8768,66.0,12,10,0.0,96.0
8769,73.0,0,21,1.0,96.0
8770,61.0,0,21,2.0,96.0
8771,45.0,0,21,3.0,96.0
8772,33.0,0,21,4.0,96.0
8773,66.0,0,21,5.0,96.0
8774,45.0,0,21,6.0,96.0
8775,76.0,0,6,5.0,96.0
8776,66.0,12,31,0.0,96.0
8777,75.0,6,6,5.0,96.0
8778,76.0,0,6,5.0,96.0
8779,71.0,24,21,1.0,96.0
8780,66.0,0,21,2.0,96.0
8781,47.0,0,21,3.0,96.0
8782,35.0,0,21,4.0,96.0
8783,47.0,0,21,6.0,96.0
8784,64.0,6,10,0.0,96.0
8785,75.0,6,5,5.0,96.0
8786,64.0,6,48,0.0,96.0
8787,71.0,0,48,1.0,96.0
8788,68.0,0,48,2.0,96.0
8789,40.0,0,48,3.0,96.0
8790,28.0,0,48,4.0,96.0
8791,76.0,0,48,5.0,96.0
8792,40.0,0,48,6.0,96.0
