,note,step,duration,channel,velocity
0,50.0,0,20,3.0,102.0
1,50.0,18,17,3.0,105.0
2,50.0,23,21,3.0,93.0
3,50.0,28,17,3.0,68.0
4,86.0,1,99,2.0,119.0
5,81.0,0,108,0.0,110.0
6,50.0,22,17,3.0,72.0
7,90.0,3,126,1.0,116.0
8,50.0,32,17,3.0,80.0
9,50.0,24,13,3.0,68.0
10,50.0,31,15,3.0,95.0
11,69.0,4,30,7.0,100.0
12,50.0,18,15,3.0,87.0
13,50.0,28,19,3.0,98.0
14,62.0,0,254,6.0,102.0
15,62.0,7,259,5.0,85.0
16,62.0,0,273,4.0,82.0
17,50.0,14,11,3.0,63.0
18,50.0,1,15,3.0,85.0
19,69.0,14,60,7.0,100.0
20,66.0,25,38,4.0,74.0
21,50.0,12,17,3.0,95.0
22,66.0,3,37,6.0,102.0
23,66.0,7,33,5.0,89.0
24,50.0,30,15,3.0,76.0
25,64.0,8,36,4.0,72.0
26,50.0,9,16,3.0,89.0
27,64.0,2,36,6.0,93.0
28,64.0,9,33,5.0,85.0
29,50.0,25,18,3.0,98.0
30,50.0,9,12,3.0,80.0
31,62.0,12,35,6.0,95.0
32,62.0,3,35,4.0,82.0
33,66.0,5,34,7.0,98.0
34,62.0,5,29,5.0,87.0
35,50.0,19,12,3.0,102.0
36,69.0,1,32,8.0,93.0
37,50.0,0,9,3.0,80.0
38,50.0,15,16,3.0,105.0
39,50.0,34,12,3.0,85.0
40,69.0,29,66,8.0,100.0
41,66.0,3,66,7.0,105.0
42,50.0,23,13,3.0,85.0
43,86.0,0,104,2.0,105.0
44,50.0,26,12,3.0,68.0
45,81.0,1,116,0.0,122.0
46,90.0,0,126,1.0,113.0
47,50.0,28,11,3.0,87.0
48,50.0,23,11,3.0,76.0
49,50.0,8,12,3.0,93.0
50,62.0,17,37,7.0,100.0
51,50.0,10,11,3.0,64.0
52,66.0,16,32,8.0,82.0
53,50.0,25,11,3.0,66.0
54,50.0,9,13,3.0,80.0
55,71.0,1,268,6.0,98.0
56,71.0,0,271,4.0,85.0
57,71.0,0,272,5.0,89.0
58,50.0,25,14,3.0,85.0
59,62.0,3,67,7.0,107.0
60,66.0,12,71,8.0,91.0
61,50.0,0,11,3.0,64.0
62,74.0,3,30,4.0,89.0
63,74.0,25,33,6.0,95.0
64,50.0,21,14,3.0,98.0
65,74.0,4,38,5.0,87.0
66,50.0,27,16,3.0,87.0
67,73.0,2,33,6.0,87.0
68,50.0,14,15,3.0,100.0
69,73.0,3,37,4.0,82.0
70,73.0,3,36,5.0,80.0
71,50.0,2,13,3.0,78.0
72,71.0,32,31,7.0,100.0
73,50.0,17,9,3.0,41.0
74,71.0,0,38,6.0,100.0
75,62.0,3,35,8.0,95.0
76,71.0,1,49,5.0,89.0
77,71.0,1,54,4.0,82.0
78,50.0,29,12,3.0,63.0
79,50.0,5,17,3.0,100.0
80,50.0,17,12,3.0,80.0
81,71.0,2,69,7.0,107.0
82,62.0,11,77,8.0,102.0
83,50.0,26,14,3.0,100.0
84,50.0,25,11,3.0,64.0
85,86.0,0,99,2.0,116.0
86,83.0,11,105,0.0,116.0
87,50.0,26,15,3.0,82.0
88,91.0,1,126,1.0,113.0
89,50.0,20,15,3.0,89.0
90,50.0,29,12,3.0,85.0
91,50.0,23,12,3.0,63.0
92,67.0,2,34,7.0,89.0
93,50.0,10,12,3.0,89.0
94,71.0,15,30,8.0,91.0
95,50.0,26,13,3.0,80.0
96,79.0,1,257,4.0,85.0
97,79.0,1,266,5.0,91.0
98,50.0,12,12,3.0,82.0
99,79.0,0,266,6.0,102.0
100,50.0,31,11,3.0,68.0
101,67.0,3,56,7.0,100.0
102,71.0,8,71,8.0,93.0
103,76.0,3,32,6.0,85.0
104,50.0,6,16,3.0,91.0
105,76.0,10,36,5.0,87.0
106,76.0,1,35,4.0,87.0
107,50.0,29,13,3.0,78.0
108,50.0,3,13,3.0,80.0
109,78.0,11,36,6.0,102.0
110,78.0,7,34,5.0,98.0
111,78.0,2,33,4.0,93.0
112,50.0,29,11,3.0,66.0
113,50.0,1,13,3.0,93.0
114,79.0,15,40,6.0,93.0
115,79.0,4,36,5.0,89.0
116,64.0,4,33,7.0,95.0
117,50.0,15,12,3.0,63.0
118,79.0,1,40,4.0,87.0
119,67.0,11,31,8.0,85.0
120,50.0,17,12,3.0,70.0
121,50.0,13,26,3.0,80.0
122,67.0,2,67,8.0,98.0
123,64.0,0,75,7.0,102.0
124,50.0,56,28,3.0,80.0
125,79.0,1,117,0.0,116.0
126,81.0,3,115,2.0,113.0
127,88.0,3,127,1.0,105.0
128,50.0,50,16,3.0,78.0
129,50.0,23,16,3.0,102.0
130,50.0,30,15,3.0,78.0
131,50.0,17,13,3.0,78.0
132,76.0,6,36,7.0,100.0
133,67.0,4,36,8.0,82.0
134,50.0,25,13,3.0,66.0
135,73.0,0,267,6.0,95.0
136,50.0,9,14,3.0,89.0
137,73.0,15,273,5.0,80.0
138,73.0,0,269,4.0,72.0
139,50.0,27,14,3.0,64.0
140,67.0,10,66,8.0,95.0
141,76.0,7,64,7.0,107.0
142,50.0,4,14,3.0,80.0
143,69.0,11,34,6.0,93.0
144,69.0,1,41,5.0,85.0
145,69.0,8,37,4.0,82.0
146,50.0,31,18,3.0,85.0
147,50.0,4,19,3.0,87.0
148,71.0,11,38,6.0,82.0
149,71.0,0,43,5.0,80.0
150,71.0,8,35,4.0,87.0
151,50.0,34,16,3.0,68.0
152,73.0,6,34,7.0,102.0
153,73.0,2,41,6.0,98.0
154,73.0,12,44,5.0,87.0
155,73.0,1,37,4.0,87.0
156,64.0,0,40,8.0,82.0
157,50.0,14,32,3.0,91.0
158,50.0,3,36,3.0,89.0
159,73.0,3,61,7.0,102.0
160,67.0,39,71,8.0,91.0
161,50.0,161,22,3.0,98.0
162,61.0,7,34,8.0,87.0
163,67.0,3,38,7.0,95.0
164,81.0,5,38,2.0,100.0
165,88.0,3,35,1.0,105.0
166,79.0,3,33,0.0,107.0
167,50.0,40,20,3.0,98.0
168,50.0,4,2195,10.0,113.0
169,61.0,0,77,8.0,93.0
170,67.0,12,69,7.0,93.0
171,81.0,3,69,2.0,102.0
172,79.0,2,67,0.0,105.0
173,50.0,50,20,3.0,98.0
174,88.0,1,76,1.0,105.0
175,64.0,0,316,6.0,98.0
176,54.0,6,32,10.0,89.0
177,64.0,6,369,5.0,91.0
178,64.0,5,365,4.0,87.0
179,50.0,5,22,3.0,100.0
180,52.0,55,38,10.0,87.0
181,50.0,2,22,3.0,105.0
182,50.0,52,34,10.0,95.0
183,79.0,2,39,7.0,95.0
184,81.0,2,35,2.0,105.0
185,76.0,2,38,0.0,98.0
186,93.0,2,38,1.0,100.0
187,64.0,0,38,8.0,87.0
188,64.0,2,43,4.0,89.0
189,64.0,1,52,6.0,89.0
190,64.0,3,48,5.0,95.0
191,45.0,4,45,3.0,105.0
192,79.0,1,70,7.0,102.0
193,57.0,46,75,8.0,100.0
194,81.0,0,81,2.0,100.0
195,76.0,4,79,0.0,107.0
196,93.0,0,85,1.0,95.0
197,49.0,2,89,10.0,102.0
198,76.0,3,90,6.0,91.0
199,76.0,1,93,4.0,93.0
200,76.0,3,100,5.0,95.0
201,45.0,3,18,3.0,98.0
202,76.0,155,36,7.0,91.0
203,69.0,0,31,8.0,91.0
204,81.0,0,33,0.0,100.0
205,73.0,5,40,4.0,72.0
206,73.0,3,41,5.0,63.0
207,73.0,4,44,6.0,78.0
208,52.0,1,40,10.0,98.0
209,88.0,4,35,1.0,100.0
210,81.0,0,38,2.0,102.0
211,76.0,42,74,7.0,91.0
212,69.0,2,74,8.0,95.0
213,45.0,2,59,3.0,110.0
214,49.0,0,74,10.0,105.0
215,81.0,3,74,0.0,100.0
216,88.0,0,80,1.0,100.0
217,81.0,1,76,2.0,100.0
218,69.0,4,91,4.0,87.0
219,69.0,1,91,6.0,89.0
220,69.0,5,97,5.0,85.0
221,69.0,1,27,8.0,89.0
222,81.0,170,33,2.0,105.0
223,45.0,3,25,3.0,100.0
224,88.0,1,37,1.0,85.0
225,73.0,2,37,7.0,98.0
226,45.0,2,33,10.0,95.0
227,67.0,0,42,4.0,80.0
228,67.0,1,39,5.0,82.0
229,76.0,2,44,0.0,91.0
230,67.0,3,42,6.0,78.0
231,50.0,2,20,3.0,105.0
232,50.0,23,15,3.0,116.0
233,50.0,21,17,3.0,102.0
234,81.0,0,81,2.0,100.0
235,86.0,2,84,1.0,95.0
236,66.0,2,91,4.0,91.0
237,78.0,1,91,0.0,100.0
238,50.0,33,12,3.0,102.0
239,66.0,1,104,5.0,80.0
240,66.0,8,91,6.0,91.0
241,50.0,22,15,3.0,85.0
242,50.0,33,11,3.0,91.0
243,50.0,18,17,3.0,100.0
244,86.0,0,34,2.0,82.0
245,50.0,17,14,3.0,89.0
246,81.0,5,35,0.0,100.0
247,90.0,2,35,1.0,95.0
248,62.0,0,47,6.0,89.0
249,62.0,9,49,4.0,85.0
250,62.0,1,43,5.0,82.0
251,50.0,21,16,3.0,100.0
252,50.0,7,18,3.0,91.0
253,50.0,24,16,3.0,98.0
254,86.0,13,69,2.0,98.0
255,81.0,3,73,0.0,102.0
256,90.0,1,82,1.0,98.0
257,50.0,29,16,3.0,91.0
258,66.0,3,87,4.0,80.0
259,66.0,2,85,6.0,89.0
260,50.0,26,15,3.0,80.0
261,66.0,3,101,5.0,80.0
262,50.0,26,12,3.0,85.0
263,50.0,24,15,3.0,87.0
264,50.0,28,13,3.0,80.0
265,50.0,9,15,3.0,78.0
266,78.0,5,32,0.0,91.0
267,81.0,1,35,2.0,98.0
268,69.0,0,38,4.0,80.0
269,86.0,3,33,1.0,95.0
270,69.0,0,42,5.0,82.0
271,69.0,3,42,6.0,80.0
272,50.0,33,14,3.0,87.0
273,50.0,0,487,10.0,93.0
274,50.0,2,13,3.0,64.0
275,50.0,29,16,3.0,91.0
276,81.0,11,73,2.0,95.0
277,50.0,4,13,3.0,63.0
278,78.0,1,76,0.0,98.0
279,86.0,6,82,1.0,100.0
280,74.0,0,91,4.0,91.0
281,74.0,0,85,6.0,91.0
282,74.0,4,563,7.0,98.0
283,74.0,1,92,5.0,91.0
284,50.0,19,42,10.0,93.0
285,50.0,25,17,3.0,78.0
286,69.0,44,596,8.0,100.0
287,50.0,25,17,3.0,80.0
288,49.0,7,32,10.0,105.0
289,50.0,23,15,3.0,70.0
290,50.0,27,15,3.0,66.0
291,62.0,0,35,8.0,87.0
292,50.0,9,18,3.0,87.0
293,74.0,3,34,0.0,87.0
294,81.0,1,34,1.0,100.0
295,78.0,0,38,2.0,95.0
296,69.0,1,41,5.0,80.0
297,66.0,3,40,7.0,85.0
298,69.0,0,42,4.0,85.0
299,47.0,7,50,10.0,91.0
300,69.0,4,38,6.0,87.0
301,50.0,25,18,3.0,78.0
302,50.0,1,16,3.0,82.0
303,45.0,3,35,10.0,95.0
304,50.0,31,13,3.0,52.0
305,78.0,0,71,2.0,95.0
306,74.0,5,71,0.0,98.0
307,66.0,12,83,8.0,87.0
308,69.0,1,82,7.0,91.0
309,81.0,0,82,1.0,98.0
310,50.0,14,18,3.0,82.0
311,74.0,3,86,4.0,89.0
312,74.0,5,79,6.0,87.0
313,43.0,9,40,10.0,85.0
314,74.0,0,96,5.0,87.0
315,50.0,35,15,3.0,62.0
316,50.0,5,20,3.0,100.0
317,42.0,16,37,10.0,95.0
318,50.0,35,33,3.0,80.0
319,40.0,13,33,10.0,100.0
320,76.0,1,27,5.0,87.0
321,67.0,3,41,8.0,78.0
322,73.0,0,36,7.0,98.0
323,76.0,5,40,4.0,85.0
324,69.0,0,35,0.0,100.0
325,74.0,2,36,2.0,100.0
326,76.0,4,40,6.0,89.0
327,78.0,5,36,1.0,98.0
328,50.0,21,21,3.0,66.0
329,50.0,8,29,3.0,102.0
330,74.0,0,76,2.0,100.0
331,69.0,27,86,8.0,87.0
332,69.0,0,79,0.0,100.0
333,74.0,1,102,7.0,98.0
334,78.0,0,99,1.0,105.0
335,50.0,105,17,3.0,102.0
336,50.0,35,22,3.0,100.0
337,50.0,1,20,3.0,89.0
338,69.0,22,33,0.0,100.0
339,81.0,5,32,2.0,82.0
340,81.0,0,33,1.0,95.0
341,78.0,1,36,7.0,102.0
342,74.0,9,35,8.0,91.0
343,78.0,2,261,4.0,98.0
344,78.0,4,256,6.0,91.0
345,50.0,45,32,3.0,107.0
346,78.0,0,284,5.0,95.0
347,78.0,0,59,7.0,100.0
348,81.0,0,68,2.0,93.0
349,69.0,1,72,0.0,100.0
350,74.0,4,66,8.0,95.0
351,81.0,2,75,1.0,87.0
352,79.0,42,38,4.0,82.0
353,79.0,11,37,6.0,82.0
354,79.0,9,37,5.0,87.0
355,81.0,42,35,4.0,82.0
356,81.0,1,37,6.0,87.0
357,81.0,11,39,5.0,85.0
358,78.0,2,26,1.0,98.0
359,78.0,2,29,2.0,87.0
360,66.0,3,33,0.0,91.0
361,50.0,7,23,3.0,105.0
362,78.0,1,40,5.0,78.0
363,38.0,4,448,10.0,105.0
364,69.0,0,35,8.0,85.0
365,78.0,46,44,4.0,93.0
366,74.0,3,34,7.0,82.0
367,78.0,0,46,6.0,91.0
368,50.0,3,41,3.0,107.0
369,66.0,1,58,8.0,85.0
370,74.0,2,67,7.0,100.0
371,74.0,3,101,2.0,102.0
372,62.0,1,112,0.0,107.0
373,74.0,1,129,1.0,105.0
374,71.0,175,33,7.0,85.0
375,62.0,10,37,8.0,85.0
376,83.0,47,269,5.0,89.0
377,83.0,2,261,6.0,95.0
378,83.0,0,282,4.0,87.0
379,71.0,47,67,7.0,93.0
380,62.0,6,65,8.0,91.0
381,80.0,50,39,5.0,87.0
382,80.0,7,33,4.0,82.0
383,80.0,0,34,6.0,102.0
384,81.0,7,33,4.0,78.0
385,81.0,53,43,5.0,82.0
386,81.0,1,36,6.0,89.0
387,83.0,48,36,5.0,89.0
388,83.0,0,33,4.0,87.0
389,68.0,4,39,7.0,68.0
390,83.0,6,37,6.0,91.0
391,59.0,1,37,8.0,82.0
392,68.0,1,78,7.0,87.0
393,59.0,0,79,8.0,91.0
394,50.0,3,592,10.0,116.0
395,56.0,0,32,8.0,82.0
396,71.0,175,34,7.0,87.0
397,50.0,2,42,10.0,89.0
398,76.0,52,265,5.0,82.0
399,76.0,7,256,6.0,87.0
400,76.0,1,275,4.0,82.0
401,71.0,2,71,7.0,95.0
402,56.0,54,76,8.0,85.0
403,49.0,2,83,10.0,89.0
404,76.0,59,43,5.0,95.0
405,76.0,5,40,4.0,80.0
406,76.0,5,38,6.0,91.0
407,78.0,51,42,5.0,85.0
408,78.0,7,36,4.0,70.0
409,78.0,1,38,6.0,98.0
410,68.0,46,33,7.0,82.0
411,80.0,1,38,5.0,93.0
412,59.0,3,35,8.0,63.0
413,80.0,0,33,4.0,87.0
414,80.0,1,36,6.0,102.0
415,47.0,4,42,10.0,85.0
416,81.0,4,94,5.0,85.0
417,81.0,1,96,4.0,80.0
418,81.0,2,98,6.0,91.0
419,64.0,0,138,7.0,82.0
420,49.0,2,139,10.0,82.0
421,64.0,52,166,8.0,85.0
422,76.0,172,41,5.0,85.0
423,76.0,0,38,4.0,82.0
424,76.0,6,46,6.0,85.0
425,73.0,1,99,5.0,87.0
426,73.0,2,98,4.0,66.0
427,73.0,5,99,6.0,85.0
428,54.0,3,147,10.0,68.0
429,66.0,53,165,8.0,72.0
430,69.0,175,33,5.0,87.0
431,69.0,4,38,4.0,80.0
432,69.0,0,41,6.0,89.0
433,47.0,3,45,10.0,85.0
434,49.0,49,43,10.0,85.0
435,66.0,54,115,8.0,85.0
436,69.0,1,358,7.0,89.0
437,50.0,62,44,10.0,91.0
438,64.0,5,40,8.0,82.0
439,52.0,55,46,10.0,82.0
440,68.0,5,40,7.0,78.0
441,54.0,49,48,10.0,64.0
442,69.0,3,81,7.0,95.0
443,74.0,6,328,6.0,93.0
444,62.0,2,101,8.0,93.0
445,56.0,58,42,10.0,87.0
446,74.0,1,353,4.0,87.0
447,74.0,4,365,5.0,93.0
448,57.0,60,44,10.0,93.0
449,71.0,48,38,7.0,95.0
450,74.0,4,29,4.0,95.0
451,74.0,0,34,5.0,95.0
452,74.0,2,35,6.0,87.0
453,54.0,9,42,10.0,93.0
454,61.0,3,39,8.0,74.0
455,57.0,12,68,10.0,80.0
456,56.0,59,36,10.0,78.0
457,74.0,5,129,6.0,89.0
458,74.0,5,141,4.0,87.0
459,59.0,1,148,8.0,91.0
460,64.0,47,149,7.0,100.0
461,74.0,4,137,5.0,95.0
462,57.0,34,32,10.0,66.0
463,56.0,29,20,10.0,64.0
464,57.0,20,30,10.0,74.0
465,56.0,2,18,10.0,70.0
466,76.0,10,32,6.0,82.0
467,76.0,4,30,4.0,64.0
468,76.0,7,25,5.0,66.0
469,78.0,11,29,6.0,91.0
470,78.0,1,25,5.0,74.0
471,57.0,1,25,10.0,78.0
472,78.0,5,27,4.0,82.0
473,56.0,22,21,10.0,82.0
474,57.0,3,30,10.0,66.0
475,56.0,24,20,10.0,76.0
476,57.0,19,29,10.0,72.0
477,56.0,25,24,10.0,80.0
478,76.0,1,101,6.0,89.0
479,76.0,4,103,4.0,85.0
480,76.0,0,113,5.0,91.0
481,57.0,22,23,10.0,68.0
482,56.0,20,24,10.0,80.0
483,71.0,10,159,7.0,93.0
484,57.0,20,22,10.0,66.0
485,56.0,16,26,10.0,60.0
486,64.0,0,199,8.0,80.0
487,54.0,23,38,10.0,58.0
488,74.0,4,39,5.0,85.0
489,74.0,3,37,6.0,85.0
490,74.0,5,40,4.0,82.0
491,56.0,12,31,10.0,76.0
492,69.0,2,99,7.0,91.0
493,73.0,3,96,6.0,85.0
494,73.0,0,107,4.0,85.0
495,73.0,42,108,5.0,80.0
496,64.0,2,115,8.0,82.0
497,69.0,169,43,5.0,85.0
498,69.0,1,42,4.0,80.0
499,64.0,8,35,7.0,85.0
500,69.0,3,46,6.0,85.0
501,61.0,8,39,8.0,95.0
502,73.0,2,83,6.0,82.0
503,73.0,42,97,5.0,87.0
504,69.0,5,91,7.0,91.0
505,64.0,3,88,8.0,98.0
506,73.0,2,102,4.0,68.0
507,76.0,170,39,4.0,85.0
508,76.0,2,39,5.0,66.0
509,71.0,2,39,7.0,87.0
510,76.0,1,36,6.0,87.0
511,67.0,4,46,8.0,76.0
512,66.0,0,96,8.0,85.0
513,81.0,3,138,5.0,95.0
514,81.0,53,149,4.0,95.0
515,81.0,5,143,6.0,102.0
516,79.0,167,32,5.0,74.0
517,79.0,1,33,6.0,82.0
518,79.0,0,38,4.0,68.0
519,78.0,17,28,5.0,89.0
520,63.0,5,47,8.0,63.0
521,78.0,2,31,6.0,95.0
522,78.0,4,27,4.0,89.0
523,64.0,3,85,8.0,87.0
524,79.0,32,97,5.0,91.0
525,72.0,4,335,7.0,89.0
526,79.0,5,94,4.0,98.0
527,79.0,0,102,6.0,91.0
528,72.0,1,36,7.0,89.0
529,76.0,174,42,4.0,85.0
530,67.0,0,40,8.0,80.0
531,76.0,4,40,5.0,82.0
532,76.0,3,47,6.0,89.0
533,57.0,0,1014,10.0,98.0
534,55.0,50,44,10.0,72.0
535,66.0,3,138,8.0,87.0
536,54.0,57,35,10.0,85.0
537,63.0,54,157,7.0,82.0
538,52.0,62,35,10.0,91.0
539,51.0,58,42,10.0,95.0
540,83.0,3,303,6.0,95.0
541,49.0,43,42,10.0,87.0
542,83.0,0,346,4.0,80.0
543,83.0,3,355,5.0,87.0
544,47.0,57,36,10.0,80.0
545,66.0,7,177,7.0,87.0
546,75.0,57,38,4.0,80.0
547,75.0,1,43,6.0,82.0
548,75.0,6,39,5.0,85.0
549,45.0,4,47,10.0,100.0
550,71.0,7,320,8.0,87.0
551,43.0,4,95,10.0,98.0
552,71.0,7,92,7.0,82.0
553,76.0,1,118,5.0,95.0
554,76.0,51,125,4.0,89.0
555,76.0,6,123,6.0,85.0
556,78.0,160,33,5.0,80.0
557,64.0,2,31,8.0,82.0
558,78.0,0,38,4.0,82.0
559,43.0,2,43,10.0,87.0
560,78.0,2,41,6.0,85.0
561,71.0,4,38,7.0,87.0
562,79.0,4,45,5.0,85.0
563,79.0,2,50,4.0,76.0
564,79.0,1,52,6.0,87.0
565,78.0,33,23,5.0,80.0
566,78.0,5,25,4.0,60.0
567,72.0,4,72,7.0,87.0
568,78.0,9,25,6.0,85.0
569,45.0,1,84,10.0,93.0
570,79.0,11,25,5.0,66.0
571,79.0,6,27,4.0,72.0
572,78.0,6,20,5.0,72.0
573,64.0,47,112,8.0,87.0
574,79.0,10,26,6.0,76.0
575,78.0,8,23,4.0,82.0
576,78.0,7,23,6.0,80.0
577,79.0,6,42,5.0,74.0
578,79.0,10,33,4.0,66.0
579,79.0,4,35,6.0,74.0
580,78.0,6,45,5.0,72.0
581,78.0,8,37,4.0,74.0
582,78.0,9,33,6.0,76.0
583,76.0,17,48,5.0,57.0
584,47.0,5,37,10.0,87.0
585,76.0,3,48,4.0,85.0
586,76.0,6,44,6.0,68.0
587,71.0,4,38,7.0,80.0
588,63.0,6,38,8.0,63.0
589,78.0,10,28,5.0,87.0
590,78.0,4,29,6.0,76.0
591,78.0,2,34,4.0,85.0
592,71.0,2,84,7.0,85.0
593,64.0,1,105,8.0,89.0
594,71.0,180,39,8.0,82.0
595,76.0,10,35,7.0,91.0
596,79.0,4,252,4.0,82.0
597,79.0,35,264,5.0,85.0
598,79.0,1,264,6.0,98.0
599,78.0,3,29,5.0,87.0
600,78.0,2,34,6.0,89.0
601,78.0,38,41,4.0,63.0
602,76.0,11,83,7.0,85.0
603,71.0,44,95,8.0,85.0
604,76.0,54,40,5.0,82.0
605,76.0,2,40,6.0,85.0
606,76.0,3,50,4.0,74.0
607,40.0,2,440,10.0,93.0
608,74.0,55,35,5.0,85.0
609,74.0,2,39,6.0,82.0
610,74.0,5,38,4.0,82.0
611,71.0,9,32,7.0,85.0
612,67.0,5,31,8.0,74.0
613,72.0,0,90,6.0,95.0
614,72.0,6,95,4.0,85.0
615,72.0,41,108,5.0,85.0
616,72.0,177,43,5.0,80.0
617,72.0,1,40,4.0,85.0
618,72.0,7,44,6.0,82.0
619,67.0,3,328,7.0,91.0
620,74.0,8,83,4.0,85.0
621,74.0,53,92,5.0,87.0
622,74.0,2,87,6.0,89.0
623,64.0,0,336,8.0,82.0
624,67.0,169,35,7.0,93.0
625,76.0,2,38,5.0,82.0
626,76.0,2,36,4.0,87.0
627,62.0,3,44,8.0,82.0
628,76.0,2,42,6.0,87.0
629,71.0,8,127,5.0,93.0
630,71.0,3,127,4.0,91.0
631,71.0,0,129,6.0,100.0
632,52.0,1,635,10.0,98.0
633,55.0,60,44,10.0,85.0
634,66.0,52,323,7.0,85.0
635,70.0,1,205,6.0,68.0
636,54.0,57,91,10.0,102.0
637,70.0,6,210,4.0,68.0
638,70.0,112,220,5.0,63.0
639,61.0,0,348,8.0,85.0
640,70.0,168,41,7.0,74.0
641,79.0,6,34,4.0,89.0
642,52.0,12,41,10.0,78.0
643,79.0,5,36,6.0,100.0
644,61.0,0,41,8.0,85.0
645,79.0,1,40,5.0,87.0
646,50.0,3,87,10.0,93.0
647,78.0,1,97,4.0,102.0
648,78.0,2,94,5.0,91.0
649,78.0,6,95,6.0,105.0
650,62.0,2,110,8.0,91.0
651,49.0,159,40,10.0,80.0
652,64.0,3,36,8.0,82.0
653,76.0,8,44,4.0,82.0
654,76.0,1,43,5.0,76.0
655,76.0,3,47,6.0,87.0
656,74.0,7,81,6.0,100.0
657,71.0,45,331,7.0,87.0
658,74.0,11,88,4.0,80.0
659,47.0,44,110,10.0,89.0
660,74.0,0,100,5.0,82.0
661,46.0,173,46,10.0,80.0
662,73.0,2,41,4.0,63.0
663,73.0,4,37,7.0,76.0
664,73.0,4,46,6.0,80.0
665,73.0,0,53,5.0,76.0
666,74.0,2,90,6.0,91.0
667,71.0,1,93,7.0,89.0
668,47.0,49,105,10.0,87.0
669,74.0,2,101,4.0,82.0
670,74.0,2,105,5.0,89.0
671,66.0,0,357,8.0,82.0
672,49.0,0,42,10.0,85.0
673,70.0,3,43,7.0,82.0
674,64.0,0,43,8.0,80.0
675,73.0,0,44,4.0,63.0
676,73.0,2,45,6.0,87.0
677,73.0,171,51,5.0,76.0
678,71.0,1,91,6.0,85.0
679,50.0,1,100,10.0,87.0
680,71.0,2,101,4.0,78.0
681,71.0,0,103,7.0,87.0
682,66.0,57,109,8.0,85.0
683,71.0,1,115,5.0,80.0
684,71.0,2,31,7.0,89.0
685,52.0,1,39,10.0,80.0
686,67.0,2,38,8.0,82.0
687,73.0,0,44,4.0,66.0
688,73.0,171,50,5.0,72.0
689,73.0,2,48,6.0,76.0
690,71.0,0,68,7.0,98.0
691,74.0,0,72,5.0,85.0
692,74.0,4,67,6.0,95.0
693,74.0,3,71,4.0,85.0
694,70.0,59,30,7.0,80.0
695,73.0,0,34,6.0,80.0
696,73.0,1,34,5.0,64.0
697,73.0,1,36,4.0,63.0
698,71.0,26,29,7.0,70.0
699,74.0,1,30,6.0,80.0
700,74.0,5,34,4.0,70.0
701,74.0,1,36,5.0,68.0
702,54.0,1,141,10.0,85.0
703,70.0,21,21,7.0,68.0
704,73.0,7,24,6.0,63.0
705,73.0,2,22,4.0,54.0
706,73.0,3,21,5.0,62.0
707,71.0,8,23,7.0,74.0
708,74.0,10,24,4.0,70.0
709,74.0,3,22,6.0,80.0
710,74.0,0,24,5.0,68.0
711,70.0,8,23,7.0,63.0
712,66.0,57,195,8.0,89.0
713,73.0,12,19,4.0,56.0
714,73.0,0,21,6.0,63.0
715,73.0,0,20,5.0,57.0
716,71.0,3,27,7.0,87.0
717,52.0,4,33,10.0,76.0
718,74.0,11,23,4.0,78.0
719,74.0,5,22,6.0,76.0
720,74.0,1,24,5.0,78.0
721,70.0,3,22,7.0,59.0
722,50.0,3,27,10.0,80.0
723,73.0,4,21,6.0,62.0
724,73.0,7,26,4.0,70.0
725,73.0,2,24,5.0,66.0
726,71.0,4,26,7.0,87.0
727,74.0,2,27,4.0,85.0
728,74.0,11,29,6.0,87.0
729,74.0,2,28,5.0,85.0
730,52.0,2,105,10.0,100.0
731,70.0,4,113,7.0,91.0
732,73.0,1,114,4.0,74.0
733,73.0,5,116,6.0,80.0
734,73.0,2,121,5.0,74.0
735,66.0,4,190,8.0,91.0
736,71.0,162,32,4.0,85.0
737,71.0,1,32,6.0,85.0
738,71.0,3,30,5.0,78.0
739,71.0,5,35,7.0,89.0
740,54.0,4,34,10.0,91.0
741,71.0,0,87,7.0,105.0
742,59.0,153,42,7.0,89.0
743,71.0,49,253,6.0,95.0
744,71.0,1,257,4.0,87.0
745,71.0,5,256,5.0,78.0
746,59.0,61,84,7.0,95.0
747,71.0,68,33,6.0,82.0
748,71.0,1,34,5.0,85.0
749,71.0,6,30,4.0,87.0
750,69.0,47,44,6.0,80.0
751,69.0,4,41,4.0,80.0
752,69.0,3,47,5.0,85.0
753,63.0,1,36,7.0,82.0
754,68.0,50,39,5.0,76.0
755,68.0,3,42,6.0,91.0
756,68.0,0,42,4.0,85.0
757,66.0,10,474,8.0,87.0
758,51.0,2,518,10.0,93.0
759,69.0,1,90,6.0,93.0
760,49.0,57,35,10.0,76.0
761,69.0,1,93,4.0,87.0
762,69.0,1,100,5.0,89.0
763,47.0,53,44,10.0,82.0
764,49.0,58,41,10.0,85.0
765,78.0,0,40,4.0,78.0
766,78.0,1,44,5.0,68.0
767,78.0,8,47,6.0,89.0
768,59.0,30,30,8.0,78.0
769,51.0,21,42,10.0,82.0
770,66.0,62,317,7.0,98.0
771,71.0,12,87,6.0,95.0
772,49.0,34,39,10.0,98.0
773,71.0,1,90,4.0,85.0
774,59.0,12,76,8.0,85.0
775,71.0,2,93,5.0,87.0
776,51.0,62,39,10.0,93.0
777,47.0,60,38,10.0,91.0
778,66.0,1,37,7.0,80.0
779,69.0,2,40,4.0,82.0
780,69.0,9,42,5.0,80.0
781,69.0,0,45,6.0,87.0
782,63.0,7,38,8.0,68.0
783,59.0,0,82,8.0,91.0
784,68.0,53,97,4.0,87.0
785,68.0,0,97,5.0,70.0
786,68.0,4,90,6.0,89.0
787,64.0,0,103,7.0,98.0
788,76.0,4,35,7.0,91.0
789,64.0,1,44,4.0,85.0
790,64.0,2,44,6.0,85.0
791,64.0,168,50,5.0,70.0
792,56.0,13,44,8.0,87.0
793,68.0,1,81,6.0,93.0
794,76.0,48,84,7.0,102.0
795,68.0,0,86,5.0,76.0
796,68.0,0,91,4.0,87.0
797,59.0,6,87,8.0,100.0
798,74.0,164,41,7.0,80.0
799,71.0,6,41,4.0,72.0
800,64.0,4,34,8.0,82.0
801,71.0,1,41,5.0,78.0
802,71.0,3,43,6.0,85.0
803,52.0,4,522,10.0,95.0
804,73.0,50,101,7.0,80.0
805,50.0,53,42,10.0,82.0
806,49.0,54,37,10.0,80.0
807,50.0,57,41,10.0,87.0
808,73.0,10,33,7.0,78.0
809,52.0,50,42,10.0,87.0
810,73.0,15,70,7.0,98.0
811,50.0,40,39,10.0,85.0
812,68.0,4,348,8.0,93.0
813,76.0,4,344,4.0,85.0
814,76.0,2,343,6.0,89.0
815,76.0,3,352,5.0,76.0
816,52.0,57,37,10.0,87.0
817,76.0,7,34,4.0,85.0
818,49.0,62,42,10.0,87.0
819,76.0,6,31,5.0,89.0
820,76.0,2,37,6.0,89.0
821,71.0,4,30,7.0,82.0
822,64.0,1,35,8.0,85.0
823,61.0,1,90,8.0,85.0
824,69.0,171,33,8.0,85.0
825,76.0,50,246,4.0,89.0
826,76.0,0,254,6.0,98.0
827,76.0,3,259,5.0,85.0
828,69.0,54,84,8.0,87.0
829,69.0,3,313,7.0,98.0
830,69.0,56,43,6.0,80.0
831,69.0,5,45,5.0,80.0
832,69.0,3,46,4.0,85.0
833,71.0,0,40,6.0,82.0
834,71.0,54,42,5.0,78.0
835,71.0,7,39,4.0,85.0
836,69.0,1,30,7.0,102.0
837,73.0,54,37,6.0,82.0
838,73.0,4,36,4.0,85.0
839,73.0,0,42,5.0,72.0
840,67.0,2,40,8.0,85.0
841,54.0,4,506,10.0,102.0
842,74.0,50,44,6.0,87.0
843,74.0,1,42,5.0,78.0
844,74.0,2,42,4.0,78.0
845,66.0,1,91,8.0,87.0
846,55.0,51,41,10.0,78.0
847,73.0,1,41,5.0,78.0
848,73.0,0,40,6.0,91.0
849,73.0,2,40,4.0,91.0
850,54.0,55,46,10.0,93.0
851,74.0,0,45,6.0,85.0
852,74.0,0,48,4.0,80.0
853,74.0,4,48,5.0,58.0
854,66.0,53,37,8.0,80.0
855,52.0,0,42,10.0,72.0
856,76.0,3,43,5.0,70.0
857,76.0,2,47,6.0,82.0
858,76.0,3,44,4.0,89.0
859,50.0,5,42,10.0,85.0
860,78.0,1,47,5.0,80.0
861,78.0,1,48,6.0,102.0
862,78.0,4,54,4.0,98.0
863,66.0,50,73,8.0,82.0
864,52.0,48,38,10.0,78.0
865,76.0,2,46,5.0,80.0
866,76.0,6,44,6.0,85.0
867,76.0,5,47,4.0,87.0
868,69.0,5,345,7.0,102.0
869,50.0,43,37,10.0,91.0
870,78.0,2,40,5.0,66.0
871,78.0,14,43,6.0,89.0
872,78.0,2,44,4.0,87.0
873,64.0,1,30,8.0,82.0
874,69.0,2,34,7.0,85.0
875,80.0,10,38,6.0,107.0
876,49.0,43,48,10.0,98.0
877,80.0,1,38,5.0,87.0
878,80.0,4,41,4.0,102.0
879,81.0,3,55,5.0,87.0
880,81.0,1,68,4.0,89.0
881,81.0,2,82,6.0,87.0
882,71.0,6,78,7.0,85.0
883,80.0,0,85,5.0,66.0
884,80.0,8,85,6.0,82.0
885,80.0,58,95,4.0,59.0
886,69.0,111,37,7.0,80.0
887,47.0,49,263,10.0,93.0
888,78.0,0,57,5.0,89.0
889,78.0,55,74,4.0,91.0
890,78.0,1,76,6.0,102.0
891,68.0,7,85,7.0,91.0
892,47.0,54,44,10.0,98.0
893,76.0,6,82,5.0,82.0
894,49.0,44,37,10.0,91.0
895,76.0,2,100,4.0,63.0
896,76.0,6,97,6.0,72.0
897,50.0,54,35,10.0,98.0
898,66.0,7,45,7.0,74.0
899,44.0,2,87,10.0,102.0
900,64.0,0,100,7.0,87.0
901,62.0,0,592,8.0,85.0
902,62.0,6,31,8.0,82.0
903,40.0,167,48,10.0,85.0
904,68.0,2,46,7.0,72.0
905,61.0,1,84,8.0,72.0
906,69.0,0,86,7.0,89.0
907,83.0,4,320,6.0,91.0
908,83.0,6,314,4.0,89.0
909,42.0,51,93,10.0,89.0
910,83.0,62,355,5.0,82.0
911,71.0,1,35,7.0,80.0
912,74.0,177,39,6.0,87.0
913,74.0,2,39,5.0,72.0
914,44.0,0,42,10.0,93.0
915,74.0,6,36,4.0,82.0
916,59.0,2,42,8.0,82.0
917,45.0,51,99,10.0,100.0
918,64.0,2,97,8.0,89.0
919,47.0,166,46,10.0,82.0
920,62.0,3,44,8.0,74.0
921,49.0,55,92,10.0,100.0
922,69.0,4,330,7.0,91.0
923,64.0,4,92,8.0,87.0
924,73.0,0,337,5.0,72.0
925,73.0,7,350,4.0,82.0
926,73.0,1,363,6.0,89.0
927,69.0,175,29,7.0,87.0
928,71.0,2,36,5.0,80.0
929,50.0,6,35,10.0,95.0
930,71.0,2,36,4.0,85.0
931,66.0,1,37,8.0,80.0
932,71.0,1,51,6.0,85.0
933,73.0,2,63,5.0,87.0
934,73.0,2,63,4.0,80.0
935,69.0,0,74,7.0,89.0
936,73.0,0,67,6.0,87.0
937,71.0,51,30,5.0,58.0
938,68.0,3,23,7.0,78.0
939,71.0,4,34,4.0,53.0
940,71.0,5,30,6.0,72.0
941,73.0,20,26,5.0,56.0
942,73.0,1,26,4.0,53.0
943,73.0,4,23,6.0,62.0
944,69.0,6,28,7.0,70.0
945,71.0,15,23,5.0,57.0
946,68.0,5,18,7.0,70.0
947,71.0,1,22,6.0,66.0
948,71.0,2,25,4.0,59.0
949,69.0,1,22,7.0,68.0
950,73.0,15,24,5.0,64.0
951,52.0,51,165,10.0,85.0
952,73.0,7,19,6.0,80.0
953,73.0,1,22,4.0,62.0
954,68.0,10,22,7.0,63.0
955,71.0,4,25,5.0,60.0
956,71.0,3,23,6.0,70.0
957,71.0,4,20,4.0,60.0
958,64.0,3,185,8.0,85.0
959,69.0,8,27,7.0,76.0
960,73.0,8,23,5.0,72.0
961,73.0,2,20,4.0,66.0
962,73.0,2,26,6.0,98.0
963,68.0,9,20,7.0,68.0
964,71.0,6,25,5.0,68.0
965,71.0,4,23,6.0,76.0
966,71.0,0,23,4.0,74.0
967,69.0,8,26,7.0,78.0
968,73.0,10,27,5.0,76.0
969,73.0,1,29,6.0,82.0
970,73.0,3,30,4.0,89.0
971,68.0,5,129,7.0,89.0
972,71.0,10,134,5.0,87.0
973,71.0,2,137,4.0,89.0
974,71.0,2,140,6.0,89.0
975,40.0,5,154,10.0,91.0
976,62.0,1,166,8.0,85.0
977,69.0,165,35,6.0,100.0
978,64.0,1,34,7.0,76.0
979,69.0,4,35,5.0,85.0
980,69.0,4,34,4.0,87.0
981,45.0,11,21,3.0,100.0
982,45.0,24,18,3.0,102.0
983,45.0,23,20,3.0,102.0
984,45.0,26,13,3.0,102.0
985,45.0,23,17,3.0,89.0
986,64.0,4,130,7.0,95.0
987,45.0,23,11,3.0,102.0
988,45.0,30,13,3.0,68.0
989,45.0,19,12,3.0,105.0
990,93.0,2,28,1.0,113.0
991,97.0,3,33,0.0,107.0
992,88.0,3,39,2.0,116.0
993,76.0,2,38,7.0,89.0
994,45.0,22,14,3.0,70.0
995,69.0,56,250,6.0,100.0
996,45.0,26,11,3.0,95.0
997,69.0,1,252,4.0,89.0
998,69.0,3,264,5.0,78.0
999,45.0,13,13,3.0,74.0
1000,45.0,25,13,3.0,82.0
1001,97.0,8,74,0.0,100.0
1002,93.0,5,68,1.0,105.0
1003,88.0,0,74,2.0,107.0
1004,76.0,2,78,7.0,95.0
1005,45.0,20,14,3.0,64.0
1006,73.0,9,40,6.0,93.0
1007,45.0,22,17,3.0,87.0
1008,45.0,6,13,3.0,68.0
1009,71.0,16,41,6.0,98.0
1010,45.0,20,15,3.0,98.0
1011,71.0,9,45,4.0,72.0
1012,71.0,1,50,5.0,70.0
1013,73.0,2,34,4.0,85.0
1014,45.0,11,17,3.0,78.0
1015,73.0,9,34,5.0,63.0
1016,73.0,1,32,7.0,85.0
1017,74.0,4,38,4.0,78.0
1018,88.0,5,36,1.0,105.0
1019,69.0,0,49,6.0,85.0
1020,93.0,4,35,0.0,100.0
1021,81.0,3,31,2.0,100.0
1022,45.0,6,24,3.0,98.0
1023,74.0,2,35,5.0,82.0
1024,76.0,1,38,4.0,80.0
1025,76.0,7,33,5.0,78.0
1026,78.0,12,32,4.0,89.0
1027,78.0,7,29,5.0,82.0
1028,45.0,4,23,3.0,95.0
1029,61.0,0,530,8.0,85.0
1030,79.0,4,80,6.0,100.0
1031,79.0,13,97,4.0,87.0
1032,88.0,0,89,1.0,105.0
1033,79.0,4,98,5.0,89.0
1034,81.0,1,94,2.0,102.0
1035,93.0,0,105,0.0,105.0
1036,61.0,158,45,8.0,89.0
1037,76.0,9,41,6.0,91.0
1038,76.0,3,42,5.0,82.0
1039,45.0,20,22,3.0,110.0
1040,76.0,1,43,4.0,85.0
1041,45.0,0,713,10.0,105.0
1042,69.0,0,275,7.0,85.0
1043,45.0,21,43,3.0,116.0
1044,78.0,8,73,4.0,100.0
1045,62.0,28,82,8.0,93.0
1046,78.0,3,80,5.0,100.0
1047,78.0,1,85,6.0,105.0
1048,67.0,2,36,7.0,80.0
1049,47.0,32,39,10.0,91.0
1050,45.0,55,37,10.0,87.0
1051,66.0,3,36,7.0,89.0
1052,79.0,1,37,6.0,91.0
1053,45.0,3,27,3.0,102.0
1054,64.0,4,36,7.0,102.0
1055,79.0,3,35,4.0,82.0
1056,79.0,2,32,5.0,87.0
1057,43.0,51,46,10.0,100.0
1058,64.0,0,46,8.0,82.0
1059,50.0,0,21,3.0,116.0
1060,50.0,26,16,3.0,102.0
1061,50.0,27,15,3.0,89.0
1062,50.0,25,14,3.0,102.0
1063,66.0,1,97,8.0,93.0
1064,50.0,25,15,3.0,91.0
1065,50.0,23,15,3.0,100.0
1066,50.0,30,15,3.0,89.0
1067,50.0,2,15,3.0,100.0
1068,98.0,3,35,0.0,102.0
1069,81.0,15,38,2.0,113.0
1070,69.0,0,38,8.0,100.0
1071,90.0,3,36,1.0,100.0
1072,50.0,31,17,3.0,87.0
1073,50.0,22,17,3.0,105.0
1074,42.0,2,278,10.0,100.0
1075,50.0,26,17,3.0,91.0
1076,98.0,0,64,0.0,100.0
1077,90.0,2,63,1.0,95.0
1078,50.0,22,16,3.0,85.0
1079,81.0,3,67,2.0,105.0
1080,69.0,1,74,8.0,91.0
1081,43.0,4,38,10.0,85.0
1082,50.0,30,15,3.0,82.0
1083,81.0,5,347,4.0,102.0
1084,62.0,2,345,7.0,93.0
1085,81.0,52,358,6.0,105.0
1086,50.0,19,15,3.0,80.0
1087,81.0,1,357,5.0,87.0
1088,42.0,12,40,10.0,100.0
1089,50.0,21,31,3.0,70.0
1090,50.0,4,17,3.0,82.0
1091,66.0,1,31,8.0,85.0
1092,72.0,1,31,4.0,85.0
1093,72.0,0,35,6.0,98.0
1094,78.0,37,39,2.0,98.0
1095,40.0,0,37,10.0,100.0
1096,72.0,0,30,5.0,82.0
1097,86.0,0,38,1.0,93.0
1098,93.0,3,40,0.0,102.0
1099,50.0,17,24,3.0,66.0
1100,57.0,1,52,7.0,85.0
1101,50.0,0,24,3.0,110.0
1102,74.0,2,41,4.0,85.0
1103,74.0,32,46,6.0,87.0
1104,74.0,2,48,5.0,85.0
1105,72.0,0,21,4.0,76.0
1106,72.0,19,23,6.0,80.0
1107,72.0,12,21,5.0,63.0
1108,74.0,7,28,4.0,70.0
1109,74.0,7,26,6.0,74.0
1110,78.0,3,89,2.0,105.0
1111,74.0,11,23,5.0,68.0
1112,69.0,4,86,7.0,95.0
1113,93.0,4,80,0.0,105.0
1114,86.0,2,84,1.0,102.0
1115,38.0,1,98,10.0,100.0
1116,72.0,7,27,4.0,70.0
1117,72.0,3,26,6.0,78.0
1118,72.0,10,19,5.0,72.0
1119,74.0,8,13,4.0,66.0
1120,74.0,7,12,6.0,66.0
1121,72.0,6,15,4.0,30.0
1122,72.0,4,12,6.0,49.0
1123,74.0,2,23,5.0,63.0
1124,72.0,11,19,5.0,70.0
1125,66.0,1,160,8.0,91.0
1126,74.0,0,31,4.0,68.0
1127,74.0,1,14,5.0,52.0
1128,74.0,0,34,6.0,76.0
1129,72.0,16,31,4.0,82.0
1130,72.0,0,34,6.0,89.0
1131,72.0,14,21,5.0,53.0
1132,71.0,1,35,6.0,87.0
1133,50.0,8,27,3.0,102.0
1134,71.0,1,38,4.0,80.0
1135,67.0,14,43,7.0,85.0
1136,71.0,2,40,5.0,68.0
1137,40.0,0,40,10.0,95.0
1138,72.0,12,35,6.0,82.0
1139,72.0,1,30,5.0,66.0
1140,72.0,7,32,4.0,64.0
1141,50.0,9,34,3.0,105.0
1142,74.0,4,81,4.0,100.0
1143,69.0,1,87,7.0,91.0
1144,42.0,2,83,10.0,110.0
1145,74.0,1,89,5.0,93.0
1146,74.0,26,99,6.0,102.0
1147,50.0,3,28,3.0,105.0
1148,69.0,162,36,6.0,91.0
1149,69.0,2,34,4.0,80.0
1150,66.0,1,40,7.0,70.0
1151,69.0,0,35,5.0,80.0
1152,38.0,12,30,10.0,95.0
1153,50.0,12,52,3.0,110.0
1154,67.0,43,107,7.0,85.0
1155,62.0,2,362,8.0,98.0
1156,66.0,155,45,7.0,82.0
1157,62.0,14,43,8.0,95.0
1158,71.0,0,271,6.0,100.0
1159,71.0,0,274,4.0,100.0
1160,71.0,6,274,5.0,89.0
1161,67.0,51,102,7.0,93.0
1162,64.0,9,94,8.0,87.0
1163,69.0,5,38,5.0,82.0
1164,69.0,52,44,6.0,100.0
1165,69.0,6,38,4.0,82.0
1166,67.0,42,37,6.0,82.0
1167,67.0,8,37,5.0,74.0
1168,67.0,7,31,4.0,82.0
1169,43.0,0,422,10.0,102.0
1170,66.0,40,47,6.0,100.0
1171,69.0,1,44,7.0,89.0
1172,66.0,1,38,4.0,89.0
1173,66.0,5,39,8.0,85.0
1174,66.0,7,48,5.0,76.0
1175,64.0,51,47,6.0,89.0
1176,64.0,1,45,4.0,87.0
1177,64.0,0,48,5.0,85.0
1178,67.0,3,94,8.0,87.0
1179,66.0,51,45,6.0,98.0
1180,66.0,6,39,4.0,87.0
1181,66.0,2,42,5.0,85.0
1182,71.0,6,111,7.0,87.0
1183,67.0,50,49,6.0,89.0
1184,67.0,8,50,4.0,76.0
1185,67.0,2,53,5.0,80.0
1186,69.0,1,47,6.0,87.0
1187,73.0,48,48,7.0,78.0
1188,64.0,0,48,8.0,82.0
1189,69.0,10,40,4.0,87.0
1190,69.0,3,41,5.0,82.0
1191,71.0,3,50,4.0,93.0
1192,71.0,47,56,6.0,85.0
1193,71.0,3,48,5.0,85.0
1194,74.0,2,84,7.0,95.0
1195,66.0,1,91,8.0,95.0
1196,73.0,0,45,6.0,66.0
1197,73.0,53,48,4.0,80.0
1198,73.0,5,44,5.0,78.0
1199,74.0,1,43,4.0,93.0
1200,74.0,54,50,6.0,93.0
1201,74.0,5,53,5.0,87.0
1202,76.0,44,41,7.0,78.0
1203,71.0,4,42,4.0,78.0
1204,71.0,5,49,6.0,82.0
1205,71.0,4,45,5.0,68.0
1206,67.0,2,44,8.0,85.0
1207,45.0,7,22,3.0,113.0
1208,73.0,1,48,4.0,98.0
1209,73.0,2,46,5.0,100.0
1210,73.0,54,55,6.0,102.0
1211,45.0,25,17,3.0,113.0
1212,45.0,2,20,3.0,100.0
1213,69.0,2,99,7.0,98.0
1214,74.0,18,48,6.0,91.0
1215,45.0,25,15,3.0,95.0
1216,74.0,4,42,5.0,87.0
1217,74.0,2,50,4.0,89.0
1218,64.0,3,105,8.0,91.0
1219,45.0,25,17,3.0,98.0
1220,45.0,18,13,3.0,105.0
1221,73.0,2,46,6.0,105.0
1222,73.0,1,48,4.0,78.0
1223,73.0,4,51,5.0,91.0
1224,45.0,31,12,3.0,68.0
1225,45.0,9,18,3.0,105.0
1226,69.0,2,35,8.0,89.0
1227,64.0,0,41,7.0,91.0
1228,71.0,2,45,6.0,89.0
1229,81.0,0,42,1.0,93.0
1230,71.0,2,46,4.0,91.0
1231,71.0,0,42,5.0,78.0
1232,88.0,4,45,0.0,91.0
1233,45.0,37,33,3.0,80.0
1234,55.0,3,732,10.0,110.0
1235,69.0,3,53,6.0,102.0
1236,69.0,0,49,5.0,89.0
1237,45.0,33,15,3.0,82.0
1238,69.0,4,68,4.0,95.0
1239,88.0,2,69,0.0,98.0
1240,81.0,3,76,1.0,98.0
1241,45.0,7,14,3.0,102.0
1242,69.0,2,86,8.0,89.0
1243,61.0,4,87,7.0,98.0
1244,54.0,2,36,10.0,100.0
1245,45.0,21,12,3.0,52.0
1246,71.0,3,48,6.0,102.0
1247,71.0,3,44,5.0,85.0
1248,71.0,15,57,4.0,93.0
1249,45.0,2,15,3.0,95.0
1250,52.0,5,40,10.0,95.0
1251,73.0,21,49,4.0,87.0
1252,73.0,1,45,6.0,100.0
1253,45.0,23,17,3.0,74.0
1254,73.0,6,45,5.0,89.0
1255,45.0,24,19,3.0,100.0
1256,64.0,2,36,8.0,87.0
1257,50.0,3,38,10.0,98.0
1258,93.0,0,39,0.0,95.0
1259,88.0,2,36,1.0,85.0
1260,45.0,19,17,3.0,68.0
1261,74.0,0,50,4.0,95.0
1262,74.0,0,47,6.0,100.0
1263,74.0,0,42,5.0,91.0
1264,57.0,5,45,7.0,91.0
1265,45.0,22,23,3.0,105.0
1266,45.0,11,28,3.0,102.0
1267,76.0,0,47,5.0,82.0
1268,76.0,6,63,4.0,89.0
1269,76.0,4,59,6.0,105.0
1270,93.0,3,70,0.0,87.0
1271,88.0,3,75,1.0,102.0
1272,64.0,3,91,8.0,93.0
1273,69.0,0,93,7.0,98.0
1274,78.0,37,47,4.0,72.0
1275,78.0,3,41,5.0,85.0
1276,78.0,4,45,6.0,98.0
1277,49.0,2,104,10.0,105.0
1278,79.0,8,43,5.0,89.0
1279,79.0,50,55,4.0,89.0
1280,79.0,3,54,6.0,100.0
1281,45.0,3,28,3.0,98.0
1282,45.0,47,43,10.0,85.0
1283,90.0,0,35,1.0,98.0
1284,81.0,1,40,2.0,110.0
1285,93.0,2,41,0.0,93.0
1286,61.0,2,48,8.0,89.0
1287,81.0,0,45,6.0,102.0
1288,81.0,0,49,4.0,87.0
1289,81.0,5,40,5.0,89.0
1290,66.0,2,50,7.0,87.0
1291,50.0,2,36,3.0,107.0
1292,79.0,4,58,4.0,93.0
1293,79.0,1,57,6.0,105.0
1294,79.0,3,50,5.0,85.0
1295,91.0,1,73,0.0,98.0
1296,90.0,3,69,1.0,95.0
1297,74.0,0,71,2.0,102.0
1298,62.0,2,74,7.0,100.0
1299,47.0,46,93,10.0,100.0
1300,62.0,0,95,8.0,98.0
1301,78.0,47,41,4.0,100.0
1302,78.0,5,44,6.0,113.0
1303,78.0,10,36,5.0,93.0
1304,79.0,43,47,4.0,87.0
1305,79.0,2,48,6.0,95.0
1306,79.0,13,38,5.0,82.0
1307,69.0,42,35,7.0,89.0
1308,64.0,0,34,8.0,82.0
1309,45.0,4,24,3.0,110.0
1310,88.0,2,32,1.0,87.0
1311,93.0,1,43,0.0,89.0
1312,81.0,1,41,2.0,89.0
1313,49.0,1,38,10.0,89.0
1314,76.0,2,39,5.0,82.0
1315,76.0,2,55,4.0,87.0
1316,76.0,2,54,6.0,102.0
1317,50.0,2,47,3.0,122.0
1318,90.0,52,79,0.0,89.0
1319,81.0,1,99,1.0,89.0
1320,50.0,1,97,10.0,107.0
1321,86.0,3,99,2.0,98.0
1322,78.0,1,112,6.0,102.0
1323,78.0,1,114,4.0,82.0
1324,78.0,2,109,5.0,98.0
1325,52.0,165,41,10.0,91.0
1326,91.0,1,47,0.0,87.0
1327,79.0,7,46,4.0,82.0
1328,79.0,4,46,6.0,91.0
1329,79.0,7,39,5.0,87.0
1330,54.0,43,92,10.0,100.0
1331,93.0,5,94,0.0,91.0
1332,69.0,1,336,7.0,102.0
1333,81.0,7,85,5.0,85.0
1334,81.0,0,98,4.0,98.0
1335,62.0,1,347,8.0,85.0
1336,81.0,4,103,6.0,98.0
1337,67.0,0,35,7.0,82.0
1338,95.0,1,42,0.0,91.0
1339,83.0,0,41,5.0,82.0
1340,83.0,4,38,4.0,91.0
1341,83.0,2,42,6.0,85.0
1342,55.0,169,47,10.0,78.0
1343,62.0,0,51,8.0,98.0
1344,57.0,3,51,10.0,89.0
1345,45.0,2,50,3.0,119.0
1346,88.0,1,94,0.0,102.0
1347,93.0,55,102,2.0,102.0
1348,69.0,1,101,8.0,100.0
1349,59.0,50,42,10.0,89.0
1350,73.0,2,107,5.0,64.0
1351,81.0,0,110,1.0,100.0
1352,73.0,1,106,6.0,87.0
1353,73.0,2,110,4.0,82.0
1354,64.0,2,129,7.0,85.0
1355,57.0,59,48,10.0,98.0
1356,93.0,1,42,0.0,89.0
1357,69.0,2,33,8.0,89.0
1358,74.0,1,37,5.0,82.0
1359,74.0,54,50,6.0,89.0
1360,74.0,7,43,4.0,85.0
1361,55.0,1,50,10.0,89.0
1362,66.0,4,37,7.0,87.0
1363,76.0,3,46,6.0,82.0
1364,54.0,0,51,10.0,95.0
1365,76.0,1,50,5.0,78.0
1366,76.0,0,56,4.0,80.0
1367,74.0,35,21,6.0,82.0
1368,74.0,7,21,5.0,64.0
1369,74.0,4,22,4.0,70.0
1370,86.0,49,84,0.0,93.0
1371,76.0,10,25,6.0,70.0
1372,69.0,2,93,8.0,95.0
1373,76.0,8,21,5.0,70.0
1374,76.0,4,22,4.0,68.0
1375,66.0,2,96,7.0,93.0
1376,55.0,4,50,10.0,91.0
1377,74.0,10,25,6.0,78.0
1378,74.0,8,20,5.0,70.0
1379,74.0,3,22,4.0,63.0
1380,76.0,11,18,6.0,70.0
1381,76.0,5,14,5.0,70.0
1382,74.0,3,19,6.0,48.0
1383,76.0,0,23,4.0,89.0
1384,74.0,10,16,5.0,70.0
1385,77.0,1,10,6.0,72.0
1386,74.0,8,16,4.0,66.0
1387,76.0,0,25,6.0,78.0
1388,57.0,3,46,10.0,85.0
1389,76.0,5,25,5.0,72.0
1390,76.0,8,25,4.0,78.0
1391,74.0,1,28,6.0,80.0
1392,74.0,8,25,5.0,72.0
1393,74.0,11,19,4.0,58.0
1394,73.0,3,28,6.0,76.0
1395,73.0,4,29,5.0,72.0
1396,73.0,1,33,4.0,85.0
1397,66.0,3,33,8.0,82.0
1398,93.0,6,45,0.0,82.0
1399,59.0,0,48,10.0,89.0
1400,62.0,2,42,7.0,68.0
1401,74.0,7,32,5.0,68.0
1402,74.0,7,25,4.0,66.0
1403,74.0,12,40,6.0,70.0
1404,61.0,1,74,10.0,80.0
1405,81.0,0,86,0.0,85.0
1406,76.0,2,97,5.0,89.0
1407,76.0,23,103,4.0,98.0
1408,59.0,41,41,10.0,85.0
1409,76.0,1,106,6.0,87.0
1410,64.0,7,100,8.0,91.0
1411,57.0,60,49,10.0,93.0
1412,69.0,43,45,6.0,70.0
1413,69.0,7,41,4.0,78.0
1414,62.0,1,39,8.0,78.0
1415,45.0,11,26,3.0,110.0
1416,81.0,0,38,2.0,95.0
1417,93.0,2,40,0.0,85.0
1418,69.0,6,47,5.0,68.0
1419,59.0,4,44,10.0,91.0
1420,88.0,4,35,1.0,91.0
1421,61.0,7,45,10.0,95.0
1422,45.0,0,51,3.0,113.0
1423,81.0,0,68,2.0,100.0
1424,64.0,3,74,8.0,91.0
1425,79.0,33,89,6.0,95.0
1426,79.0,4,87,4.0,98.0
1427,91.0,1,76,0.0,91.0
1428,79.0,3,80,5.0,89.0
1429,88.0,6,73,1.0,100.0
1430,62.0,43,41,10.0,100.0
1431,69.0,12,330,7.0,98.0
1432,64.0,56,37,10.0,93.0
1433,78.0,22,36,6.0,85.0
1434,78.0,14,33,5.0,66.0
1435,78.0,1,34,4.0,66.0
1436,61.0,2,35,10.0,100.0
1437,76.0,11,47,6.0,82.0
1438,93.0,6,41,0.0,80.0
1439,69.0,1,35,7.0,98.0
1440,81.0,3,38,2.0,89.0
1441,45.0,2,34,3.0,100.0
1442,76.0,0,42,4.0,72.0
1443,76.0,2,46,5.0,76.0
1444,57.0,4,50,8.0,76.0
1445,88.0,5,45,1.0,82.0
1446,78.0,6,40,6.0,87.0
1447,78.0,2,31,4.0,74.0
1448,78.0,12,35,5.0,64.0
1449,50.0,3,48,3.0,110.0
1450,79.0,0,65,4.0,74.0
1451,79.0,4,66,5.0,85.0
1452,79.0,0,70,6.0,87.0
1453,78.0,43,23,4.0,66.0
1454,78.0,2,25,5.0,72.0
1455,78.0,1,28,6.0,91.0
1456,81.0,2,88,2.0,100.0
1457,90.0,0,102,0.0,91.0
1458,86.0,3,88,1.0,100.0
1459,79.0,24,23,4.0,76.0
1460,79.0,4,23,5.0,78.0
1461,79.0,2,27,6.0,82.0
1462,78.0,16,18,4.0,72.0
1463,78.0,3,18,5.0,64.0
1464,78.0,6,17,6.0,72.0
1465,69.0,1,139,7.0,98.0
1466,79.0,14,22,4.0,76.0
1467,79.0,2,21,5.0,72.0
1468,62.0,25,164,10.0,93.0
1469,79.0,4,26,6.0,85.0
1470,78.0,13,17,4.0,62.0
1471,78.0,3,17,5.0,64.0
1472,69.0,7,166,8.0,98.0
1473,78.0,6,23,6.0,80.0
1474,79.0,8,24,4.0,70.0
1475,79.0,3,22,5.0,72.0
1476,79.0,9,23,6.0,76.0
1477,78.0,0,20,4.0,70.0
1478,78.0,2,22,5.0,80.0
1479,74.0,2,31,7.0,74.0
1480,86.0,1,36,2.0,82.0
1481,78.0,1,24,6.0,68.0
1482,50.0,7,28,3.0,105.0
1483,90.0,1,37,1.0,85.0
1484,93.0,4,48,0.0,80.0
1485,79.0,3,29,4.0,82.0
1486,73.0,6,32,7.0,80.0
1487,79.0,6,26,5.0,80.0
1488,79.0,5,32,6.0,80.0
1489,50.0,3,40,3.0,113.0
1490,90.0,6,72,2.0,98.0
1491,98.0,0,74,0.0,93.0
1492,93.0,1,86,1.0,98.0
1493,78.0,9,113,4.0,91.0
1494,78.0,8,104,6.0,85.0
1495,74.0,5,104,7.0,89.0
1496,78.0,4,121,5.0,89.0
1497,50.0,0,141,10.0,98.0
1498,69.0,3,155,8.0,89.0
1499,76.0,159,30,5.0,87.0
1500,76.0,0,30,6.0,102.0
1501,76.0,1,30,4.0,89.0
1502,76.0,6,38,7.0,89.0
1503,86.0,3,34,2.0,95.0
1504,50.0,7,25,3.0,105.0
1505,95.0,5,39,0.0,85.0
1506,92.0,4,45,1.0,100.0
1507,45.0,8,22,3.0,95.0
1508,45.0,23,17,3.0,107.0
1509,45.0,29,33,3.0,82.0
1510,45.0,4,133,10.0,95.0
1511,45.0,44,35,3.0,85.0
1512,45.0,48,17,3.0,66.0
1513,45.0,9,18,3.0,87.0
1514,57.0,11,40,10.0,100.0
1515,45.0,33,17,3.0,64.0
1516,45.0,0,18,3.0,87.0
1517,45.0,34,14,3.0,55.0
1518,45.0,20,15,3.0,82.0
1519,57.0,19,82,10.0,107.0
1520,45.0,28,38,3.0,60.0
1521,45.0,45,38,3.0,70.0
1522,45.0,42,19,3.0,53.0
1523,52.0,15,34,10.0,93.0
1524,45.0,6,36,3.0,66.0
1525,76.0,1,497,4.0,102.0
1526,45.0,3,17,3.0,89.0
1527,76.0,9,506,5.0,102.0
1528,88.0,1,493,2.0,102.0
1529,97.0,5,495,0.0,98.0
1530,93.0,2,507,1.0,98.0
1531,52.0,54,83,10.0,105.0
1532,49.0,169,37,10.0,102.0
1533,73.0,3,723,7.0,95.0
1534,69.0,2,730,8.0,93.0
1535,76.0,34,763,6.0,102.0
1536,49.0,64,84,10.0,113.0
1537,45.0,176,54,10.0,87.0
1538,50.0,7,20,3.0,102.0
1539,50.0,18,17,3.0,105.0
1540,50.0,23,21,3.0,93.0
1541,50.0,28,17,3.0,68.0
1542,86.0,1,99,2.0,119.0
1543,81.0,0,108,0.0,110.0
1544,50.0,22,17,3.0,72.0
1545,90.0,3,126,1.0,116.0
1546,50.0,32,17,3.0,80.0
1547,50.0,24,13,3.0,68.0
1548,50.0,31,15,3.0,95.0
1549,69.0,4,30,7.0,100.0
1550,50.0,18,15,3.0,87.0
1551,50.0,28,19,3.0,98.0
1552,62.0,0,254,6.0,102.0
1553,62.0,0,259,5.0,85.0
1554,62.0,58,273,4.0,82.0
1555,50.0,14,11,3.0,63.0
1556,50.0,1,15,3.0,85.0
1557,69.0,14,60,7.0,100.0
1558,66.0,25,38,4.0,74.0
1559,50.0,12,17,3.0,95.0
1560,66.0,3,37,6.0,102.0
1561,66.0,7,33,5.0,89.0
1562,50.0,30,15,3.0,76.0
1563,50.0,9,16,3.0,89.0
1564,64.0,8,36,4.0,72.0
1565,64.0,2,36,6.0,93.0
1566,64.0,9,33,5.0,85.0
1567,50.0,25,18,3.0,98.0
1568,50.0,9,12,3.0,80.0
1569,62.0,12,35,6.0,95.0
1570,62.0,3,35,4.0,82.0
1571,66.0,5,34,7.0,98.0
1572,62.0,5,29,5.0,87.0
1573,50.0,19,12,3.0,102.0
1574,69.0,1,32,8.0,93.0
1575,50.0,1,9,3.0,80.0
1576,50.0,15,16,3.0,105.0
1577,50.0,34,12,3.0,85.0
1578,69.0,29,66,8.0,100.0
1579,66.0,3,66,7.0,105.0
1580,50.0,23,13,3.0,85.0
1581,86.0,1,104,2.0,105.0
1582,50.0,26,12,3.0,68.0
1583,81.0,0,116,0.0,122.0
1584,90.0,0,126,1.0,113.0
1585,50.0,28,11,3.0,87.0
1586,50.0,23,11,3.0,76.0
1587,50.0,8,12,3.0,93.0
1588,62.0,17,37,7.0,100.0
1589,50.0,10,11,3.0,64.0
1590,66.0,16,32,8.0,82.0
1591,50.0,25,11,3.0,66.0
1592,50.0,9,13,3.0,80.0
1593,71.0,0,268,6.0,98.0
1594,71.0,0,271,4.0,85.0
1595,71.0,0,272,5.0,89.0
1596,50.0,25,14,3.0,85.0
1597,62.0,3,67,7.0,107.0
1598,66.0,12,71,8.0,91.0
1599,50.0,0,11,3.0,64.0
1600,74.0,25,33,6.0,95.0
1601,74.0,3,30,4.0,89.0
1602,50.0,21,14,3.0,98.0
1603,74.0,4,38,5.0,87.0
1604,50.0,27,16,3.0,87.0
1605,73.0,2,33,6.0,87.0
1606,50.0,14,15,3.0,100.0
1607,73.0,3,37,4.0,82.0
1608,73.0,3,36,5.0,80.0
1609,50.0,2,13,3.0,78.0
1610,71.0,32,31,7.0,100.0
1611,50.0,17,9,3.0,41.0
1612,62.0,3,35,8.0,95.0
1613,71.0,1,38,6.0,100.0
1614,71.0,1,49,5.0,89.0
1615,71.0,0,54,4.0,82.0
1616,50.0,29,12,3.0,63.0
1617,50.0,5,17,3.0,100.0
1618,50.0,17,12,3.0,80.0
1619,71.0,2,69,7.0,107.0
1620,62.0,11,77,8.0,102.0
1621,50.0,26,14,3.0,100.0
1622,50.0,25,11,3.0,64.0
1623,86.0,0,99,2.0,116.0
1624,83.0,11,105,0.0,116.0
1625,50.0,26,15,3.0,82.0
1626,91.0,0,126,1.0,113.0
1627,50.0,20,15,3.0,89.0
1628,50.0,29,12,3.0,85.0
1629,50.0,23,12,3.0,63.0
1630,67.0,2,34,7.0,89.0
1631,50.0,10,12,3.0,89.0
1632,71.0,15,30,8.0,91.0
1633,50.0,26,13,3.0,80.0
1634,79.0,1,257,4.0,85.0
1635,79.0,1,266,5.0,91.0
1636,79.0,1,266,6.0,102.0
1637,50.0,12,12,3.0,82.0
1638,50.0,31,11,3.0,68.0
1639,67.0,3,56,7.0,100.0
1640,71.0,8,71,8.0,93.0
1641,76.0,3,32,6.0,85.0
1642,50.0,6,16,3.0,91.0
1643,76.0,10,36,5.0,87.0
1644,76.0,1,35,4.0,87.0
1645,50.0,29,13,3.0,78.0
1646,50.0,3,13,3.0,80.0
1647,78.0,11,36,6.0,102.0
1648,78.0,7,34,5.0,98.0
1649,78.0,2,33,4.0,93.0
1650,50.0,29,11,3.0,66.0
1651,50.0,1,13,3.0,93.0
1652,79.0,15,40,6.0,93.0
1653,79.0,4,36,5.0,89.0
1654,64.0,4,33,7.0,95.0
1655,50.0,15,12,3.0,63.0
1656,79.0,1,40,4.0,87.0
1657,67.0,11,31,8.0,85.0
1658,50.0,17,12,3.0,70.0
1659,50.0,13,26,3.0,80.0
1660,67.0,2,67,8.0,98.0
1661,64.0,0,75,7.0,102.0
1662,50.0,56,28,3.0,80.0
1663,79.0,1,117,0.0,116.0
1664,81.0,3,115,2.0,113.0
1665,88.0,3,127,1.0,105.0
1666,50.0,50,16,3.0,78.0
1667,50.0,23,16,3.0,102.0
1668,50.0,30,15,3.0,78.0
1669,50.0,17,13,3.0,78.0
1670,76.0,6,36,7.0,100.0
1671,67.0,4,36,8.0,82.0
1672,50.0,25,13,3.0,66.0
1673,73.0,15,267,6.0,95.0
1674,50.0,9,14,3.0,89.0
1675,73.0,0,273,5.0,80.0
1676,73.0,0,269,4.0,72.0
1677,50.0,27,14,3.0,64.0
1678,67.0,10,66,8.0,95.0
1679,76.0,7,64,7.0,107.0
1680,50.0,4,14,3.0,80.0
1681,69.0,11,34,6.0,93.0
1682,69.0,1,41,5.0,85.0
1683,69.0,8,37,4.0,82.0
1684,50.0,31,18,3.0,85.0
1685,50.0,4,19,3.0,87.0
1686,71.0,0,38,6.0,82.0
1687,71.0,11,43,5.0,80.0
1688,71.0,8,35,4.0,87.0
1689,50.0,34,16,3.0,68.0
1690,73.0,0,34,7.0,102.0
1691,73.0,2,41,6.0,98.0
1692,73.0,12,44,5.0,87.0
1693,73.0,1,37,4.0,87.0
1694,64.0,6,40,8.0,82.0
1695,50.0,14,32,3.0,91.0
1696,50.0,3,36,3.0,89.0
1697,73.0,3,61,7.0,102.0
1698,67.0,39,71,8.0,91.0
1699,50.0,161,22,3.0,98.0
1700,61.0,7,34,8.0,87.0
1701,67.0,3,38,7.0,95.0
1702,81.0,5,38,2.0,100.0
1703,88.0,3,35,1.0,105.0
1704,79.0,3,33,0.0,107.0
1705,50.0,40,20,3.0,98.0
1706,50.0,4,2195,10.0,113.0
1707,61.0,0,77,8.0,93.0
1708,67.0,12,69,7.0,93.0
1709,79.0,2,67,0.0,105.0
1710,81.0,3,69,2.0,102.0
1711,50.0,50,20,3.0,98.0
1712,88.0,1,76,1.0,105.0
1713,64.0,5,316,6.0,98.0
1714,54.0,6,32,10.0,89.0
1715,64.0,6,369,5.0,91.0
1716,64.0,0,365,4.0,87.0
1717,50.0,5,22,3.0,100.0
1718,52.0,55,38,10.0,87.0
1719,50.0,0,22,3.0,105.0
1720,50.0,52,34,10.0,95.0
1721,79.0,2,39,7.0,95.0
1722,81.0,2,35,2.0,105.0
1723,76.0,2,38,0.0,98.0
1724,93.0,2,38,1.0,100.0
1725,64.0,2,38,8.0,87.0
1726,64.0,2,43,4.0,89.0
1727,64.0,1,52,6.0,89.0
1728,64.0,3,48,5.0,95.0
1729,45.0,4,45,3.0,105.0
1730,79.0,0,70,7.0,102.0
1731,57.0,46,75,8.0,100.0
1732,81.0,0,81,2.0,100.0
1733,76.0,4,79,0.0,107.0
1734,93.0,1,85,1.0,95.0
1735,49.0,2,89,10.0,102.0
1736,76.0,3,90,6.0,91.0
1737,76.0,1,93,4.0,93.0
1738,76.0,3,100,5.0,95.0
1739,45.0,3,18,3.0,98.0
1740,76.0,155,36,7.0,91.0
1741,69.0,0,31,8.0,91.0
1742,81.0,3,33,0.0,100.0
1743,73.0,5,40,4.0,72.0
1744,73.0,0,41,5.0,63.0
1745,73.0,4,44,6.0,78.0
1746,52.0,1,40,10.0,98.0
1747,88.0,0,35,1.0,100.0
1748,81.0,4,38,2.0,102.0
1749,76.0,42,74,7.0,91.0
1750,45.0,2,59,3.0,110.0
1751,69.0,2,74,8.0,95.0
1752,49.0,1,74,10.0,105.0
1753,81.0,3,74,0.0,100.0
1754,88.0,0,80,1.0,100.0
1755,81.0,1,76,2.0,100.0
1756,69.0,4,91,4.0,87.0
1757,69.0,0,91,6.0,89.0
1758,69.0,5,97,5.0,85.0
1759,69.0,1,27,8.0,89.0
1760,81.0,170,33,2.0,105.0
1761,45.0,3,25,3.0,100.0
1762,88.0,1,37,1.0,85.0
1763,73.0,2,37,7.0,98.0
1764,45.0,2,33,10.0,95.0
1765,67.0,0,42,4.0,80.0
1766,67.0,1,39,5.0,82.0
1767,76.0,2,44,0.0,91.0
1768,67.0,3,42,6.0,78.0
1769,50.0,2,20,3.0,105.0
1770,50.0,23,15,3.0,116.0
1771,50.0,21,17,3.0,102.0
1772,81.0,2,81,2.0,100.0
1773,86.0,2,84,1.0,95.0
1774,66.0,0,91,4.0,91.0
1775,78.0,1,91,0.0,100.0
1776,50.0,33,12,3.0,102.0
1777,66.0,0,104,5.0,80.0
1778,66.0,8,91,6.0,91.0
1779,50.0,22,15,3.0,85.0
1780,50.0,33,11,3.0,91.0
1781,50.0,18,17,3.0,100.0
1782,86.0,0,34,2.0,82.0
1783,50.0,17,14,3.0,89.0
1784,81.0,5,35,0.0,100.0
1785,90.0,2,35,1.0,95.0
1786,62.0,9,47,6.0,89.0
1787,62.0,0,49,4.0,85.0
1788,62.0,1,43,5.0,82.0
1789,50.0,21,16,3.0,100.0
1790,50.0,7,18,3.0,91.0
1791,50.0,24,16,3.0,98.0
1792,86.0,13,69,2.0,98.0
1793,81.0,3,73,0.0,102.0
1794,90.0,1,82,1.0,98.0
1795,50.0,29,16,3.0,91.0
1796,66.0,3,87,4.0,80.0
1797,66.0,2,85,6.0,89.0
1798,50.0,26,15,3.0,80.0
1799,66.0,3,101,5.0,80.0
1800,50.0,26,12,3.0,85.0
1801,50.0,24,15,3.0,87.0
1802,50.0,28,13,3.0,80.0
1803,50.0,9,15,3.0,78.0
1804,78.0,0,32,0.0,91.0
1805,81.0,1,35,2.0,98.0
1806,69.0,5,38,4.0,80.0
1807,86.0,3,33,1.0,95.0
1808,69.0,0,42,6.0,80.0
1809,69.0,3,42,5.0,82.0
1810,50.0,33,14,3.0,87.0
1811,50.0,1,487,10.0,93.0
1812,50.0,2,13,3.0,64.0
1813,50.0,29,16,3.0,91.0
1814,81.0,0,73,2.0,95.0
1815,50.0,4,13,3.0,63.0
1816,78.0,1,76,0.0,98.0
1817,86.0,6,82,1.0,100.0
1818,74.0,11,91,4.0,91.0
1819,74.0,1,85,6.0,91.0
1820,74.0,4,563,7.0,98.0
1821,74.0,0,92,5.0,91.0
1822,50.0,19,42,10.0,93.0
1823,50.0,25,17,3.0,78.0
1824,69.0,44,596,8.0,100.0
1825,50.0,25,17,3.0,80.0
1826,49.0,7,32,10.0,105.0
1827,50.0,23,15,3.0,70.0
1828,50.0,27,15,3.0,66.0
1829,62.0,7,35,8.0,87.0
1830,50.0,9,18,3.0,87.0
1831,74.0,3,34,0.0,87.0
1832,78.0,0,38,2.0,95.0
1833,81.0,1,34,1.0,100.0
1834,69.0,1,41,5.0,80.0
1835,66.0,0,40,7.0,85.0
1836,69.0,3,42,4.0,85.0
1837,69.0,4,38,6.0,87.0
1838,47.0,0,50,10.0,91.0
1839,50.0,25,18,3.0,78.0
1840,50.0,1,16,3.0,82.0
1841,45.0,3,35,10.0,95.0
1842,50.0,31,13,3.0,52.0
1843,78.0,0,71,2.0,95.0
1844,66.0,12,83,8.0,87.0
1845,74.0,5,71,0.0,98.0
1846,69.0,1,82,7.0,91.0
1847,81.0,3,82,1.0,98.0
1848,50.0,14,18,3.0,82.0
1849,74.0,0,86,4.0,89.0
1850,74.0,5,79,6.0,87.0
1851,43.0,9,40,10.0,85.0
1852,74.0,0,96,5.0,87.0
1853,50.0,35,15,3.0,62.0
1854,50.0,5,20,3.0,100.0
1855,42.0,16,37,10.0,95.0
1856,50.0,35,33,3.0,80.0
1857,40.0,13,33,10.0,100.0
1858,76.0,1,27,5.0,87.0
1859,67.0,3,41,8.0,78.0
1860,76.0,5,40,4.0,85.0
1861,73.0,4,36,7.0,98.0
1862,69.0,0,35,0.0,100.0
1863,74.0,2,36,2.0,100.0
1864,76.0,0,40,6.0,89.0
1865,78.0,5,36,1.0,98.0
1866,50.0,21,21,3.0,66.0
1867,50.0,8,29,3.0,102.0
1868,74.0,0,76,2.0,100.0
1869,69.0,27,86,8.0,87.0
1870,69.0,1,79,0.0,100.0
1871,74.0,0,102,7.0,98.0
1872,78.0,4,99,1.0,105.0
1873,50.0,105,17,3.0,102.0
1874,50.0,35,22,3.0,100.0
1875,50.0,1,20,3.0,89.0
1876,69.0,22,33,0.0,100.0
1877,81.0,5,32,2.0,82.0
1878,81.0,0,33,1.0,95.0
1879,78.0,1,36,7.0,102.0
1880,74.0,9,35,8.0,91.0
1881,78.0,2,261,4.0,98.0
1882,78.0,0,256,6.0,91.0
1883,50.0,45,32,3.0,107.0
1884,78.0,0,284,5.0,95.0
1885,78.0,4,59,7.0,100.0
1886,81.0,0,68,2.0,93.0
1887,74.0,0,66,8.0,95.0
1888,69.0,1,72,0.0,100.0
1889,81.0,2,75,1.0,87.0
1890,79.0,42,38,4.0,82.0
1891,79.0,11,37,6.0,82.0
1892,79.0,9,37,5.0,87.0
1893,81.0,42,35,4.0,82.0
1894,81.0,1,37,6.0,87.0
1895,81.0,11,39,5.0,85.0
1896,78.0,2,26,1.0,98.0
1897,78.0,2,29,2.0,87.0
1898,66.0,3,33,0.0,91.0
1899,78.0,1,40,5.0,78.0
1900,50.0,7,23,3.0,105.0
1901,69.0,0,35,8.0,85.0
1902,38.0,4,448,10.0,105.0
1903,78.0,46,44,4.0,93.0
1904,74.0,3,34,7.0,82.0
1905,78.0,0,46,6.0,91.0
1906,50.0,3,41,3.0,107.0
1907,66.0,1,58,8.0,85.0
1908,74.0,2,67,7.0,100.0
1909,74.0,3,101,2.0,102.0
1910,62.0,1,112,0.0,107.0
1911,74.0,1,129,1.0,105.0
1912,71.0,175,33,7.0,85.0
1913,62.0,10,37,8.0,85.0
1914,83.0,47,269,5.0,89.0
1915,83.0,2,261,6.0,95.0
1916,83.0,0,282,4.0,87.0
1917,71.0,47,67,7.0,93.0
1918,62.0,6,65,8.0,91.0
1919,80.0,50,39,5.0,87.0
1920,80.0,7,33,4.0,82.0
1921,80.0,0,34,6.0,102.0
1922,81.0,7,33,4.0,78.0
1923,81.0,53,43,5.0,82.0
1924,81.0,1,36,6.0,89.0
1925,83.0,48,36,5.0,89.0
1926,83.0,4,33,4.0,87.0
1927,68.0,0,39,7.0,68.0
1928,83.0,6,37,6.0,91.0
1929,59.0,1,37,8.0,82.0
1930,68.0,1,78,7.0,87.0
1931,59.0,0,79,8.0,91.0
1932,50.0,3,592,10.0,116.0
1933,71.0,175,34,7.0,87.0
1934,56.0,0,32,8.0,82.0
1935,50.0,2,42,10.0,89.0
1936,76.0,52,265,5.0,82.0
1937,76.0,7,256,6.0,87.0
1938,76.0,1,275,4.0,82.0
1939,71.0,2,71,7.0,95.0
1940,56.0,54,76,8.0,85.0
1941,49.0,2,83,10.0,89.0
1942,76.0,59,43,5.0,95.0
1943,76.0,5,40,4.0,80.0
1944,76.0,5,38,6.0,91.0
1945,78.0,51,42,5.0,85.0
1946,78.0,7,36,4.0,70.0
1947,78.0,1,38,6.0,98.0
1948,68.0,46,33,7.0,82.0
1949,59.0,3,35,8.0,63.0
1950,80.0,1,38,5.0,93.0
1951,80.0,4,33,4.0,87.0
1952,80.0,1,36,6.0,102.0
1953,47.0,0,42,10.0,85.0
1954,81.0,4,94,5.0,85.0
1955,81.0,1,96,4.0,80.0
1956,81.0,2,98,6.0,91.0
1957,64.0,0,138,7.0,82.0
1958,49.0,2,139,10.0,82.0
1959,64.0,52,166,8.0,85.0
1960,76.0,172,41,5.0,85.0
1961,76.0,6,38,4.0,82.0
1962,76.0,0,46,6.0,85.0
1963,73.0,1,99,5.0,87.0
1964,73.0,2,98,4.0,66.0
1965,73.0,5,99,6.0,85.0
1966,54.0,3,147,10.0,68.0
1967,66.0,53,165,8.0,72.0
1968,69.0,175,33,5.0,87.0
1969,69.0,4,38,4.0,80.0
1970,69.0,0,41,6.0,89.0
1971,47.0,3,45,10.0,85.0
1972,49.0,49,43,10.0,85.0
1973,66.0,54,115,8.0,85.0
1974,69.0,1,358,7.0,89.0
1975,50.0,62,44,10.0,91.0
1976,64.0,5,40,8.0,82.0
1977,52.0,55,46,10.0,82.0
1978,68.0,5,40,7.0,78.0
1979,54.0,49,48,10.0,64.0
1980,69.0,3,81,7.0,95.0
1981,62.0,2,101,8.0,93.0
1982,74.0,6,328,6.0,93.0
1983,56.0,58,42,10.0,87.0
1984,74.0,1,353,4.0,87.0
1985,74.0,4,365,5.0,93.0
1986,57.0,60,44,10.0,93.0
1987,71.0,48,38,7.0,95.0
1988,74.0,4,29,4.0,95.0
1989,74.0,0,34,5.0,95.0
1990,74.0,2,35,6.0,87.0
1991,54.0,9,42,10.0,93.0
1992,61.0,3,39,8.0,74.0
1993,57.0,12,68,10.0,80.0
1994,56.0,59,36,10.0,78.0
1995,74.0,5,129,6.0,89.0
1996,74.0,5,141,4.0,87.0
1997,59.0,1,148,8.0,91.0
1998,64.0,47,149,7.0,100.0
1999,57.0,34,32,10.0,66.0
2000,74.0,4,137,5.0,95.0
2001,56.0,29,20,10.0,64.0
2002,57.0,20,30,10.0,74.0
2003,56.0,2,18,10.0,70.0
2004,76.0,10,32,6.0,82.0
2005,76.0,4,30,4.0,64.0
2006,76.0,7,25,5.0,66.0
2007,78.0,11,29,6.0,91.0
2008,78.0,1,25,5.0,74.0
2009,78.0,5,27,4.0,82.0
2010,57.0,1,25,10.0,78.0
2011,56.0,22,21,10.0,82.0
2012,57.0,3,30,10.0,66.0
2013,56.0,24,20,10.0,76.0
2014,57.0,19,29,10.0,72.0
2015,56.0,25,24,10.0,80.0
2016,76.0,1,101,6.0,89.0
2017,76.0,0,103,4.0,85.0
2018,76.0,4,113,5.0,91.0
2019,57.0,22,23,10.0,68.0
2020,56.0,20,24,10.0,80.0
2021,71.0,0,159,7.0,93.0
2022,57.0,20,22,10.0,66.0
2023,56.0,16,26,10.0,60.0
2024,64.0,10,199,8.0,80.0
2025,54.0,23,38,10.0,58.0
2026,74.0,4,39,5.0,85.0
2027,74.0,3,37,6.0,85.0
2028,74.0,5,40,4.0,82.0
2029,56.0,12,31,10.0,76.0
2030,73.0,3,96,6.0,85.0
2031,69.0,2,99,7.0,91.0
2032,73.0,0,107,4.0,85.0
2033,73.0,0,108,5.0,80.0
2034,64.0,2,115,8.0,82.0
2035,69.0,169,43,5.0,85.0
2036,69.0,1,42,4.0,80.0
2037,64.0,8,35,7.0,85.0
2038,69.0,3,46,6.0,85.0
2039,61.0,8,39,8.0,95.0
2040,73.0,2,83,6.0,82.0
2041,73.0,42,97,5.0,87.0
2042,69.0,5,91,7.0,91.0
2043,64.0,3,88,8.0,98.0
2044,73.0,2,102,4.0,68.0
2045,76.0,170,39,4.0,85.0
2046,76.0,2,39,5.0,66.0
2047,71.0,2,39,7.0,87.0
2048,76.0,1,36,6.0,87.0
2049,67.0,4,46,8.0,76.0
2050,66.0,0,96,8.0,85.0
2051,81.0,3,138,5.0,95.0
2052,81.0,53,149,4.0,95.0
2053,81.0,5,143,6.0,102.0
2054,79.0,167,32,5.0,74.0
2055,79.0,0,33,6.0,82.0
2056,79.0,1,38,4.0,68.0
2057,78.0,17,28,5.0,89.0
2058,63.0,5,47,8.0,63.0
2059,78.0,2,31,6.0,95.0
2060,78.0,4,27,4.0,89.0
2061,64.0,3,85,8.0,87.0
2062,79.0,32,97,5.0,91.0
2063,72.0,4,335,7.0,89.0
2064,79.0,0,94,4.0,98.0
2065,79.0,5,102,6.0,91.0
2066,72.0,1,36,7.0,89.0
2067,76.0,174,42,4.0,85.0
2068,76.0,0,40,5.0,82.0
2069,67.0,4,40,8.0,80.0
2070,76.0,3,47,6.0,89.0
2071,57.0,42,1014,10.0,98.0
2072,55.0,50,44,10.0,72.0
2073,66.0,3,138,8.0,87.0
2074,54.0,57,35,10.0,85.0
2075,63.0,0,157,7.0,82.0
2076,52.0,62,35,10.0,91.0
2077,51.0,58,42,10.0,95.0
2078,83.0,3,303,6.0,95.0
2079,49.0,43,42,10.0,87.0
2080,83.0,54,346,4.0,80.0
2081,83.0,3,355,5.0,87.0
2082,47.0,57,36,10.0,80.0
2083,66.0,7,177,7.0,87.0
2084,75.0,57,38,4.0,80.0
2085,75.0,1,43,6.0,82.0
2086,75.0,6,39,5.0,85.0
2087,45.0,4,47,10.0,100.0
2088,71.0,7,320,8.0,87.0
2089,43.0,4,95,10.0,98.0
2090,71.0,7,92,7.0,82.0
2091,76.0,51,125,4.0,89.0
2092,76.0,1,118,5.0,95.0
2093,76.0,6,123,6.0,85.0
2094,78.0,160,33,5.0,80.0
2095,64.0,2,31,8.0,82.0
2096,78.0,2,38,4.0,82.0
2097,43.0,2,43,10.0,87.0
2098,78.0,0,41,6.0,85.0
2099,71.0,4,38,7.0,87.0
2100,79.0,4,45,5.0,85.0
2101,79.0,2,50,4.0,76.0
2102,79.0,1,52,6.0,87.0
2103,78.0,33,23,5.0,80.0
2104,78.0,5,25,4.0,60.0
2105,72.0,4,72,7.0,87.0
2106,78.0,9,25,6.0,85.0
2107,45.0,1,84,10.0,93.0
2108,79.0,11,25,5.0,66.0
2109,79.0,6,27,4.0,72.0
2110,64.0,47,112,8.0,87.0
2111,78.0,6,20,5.0,72.0
2112,79.0,10,26,6.0,76.0
2113,78.0,8,23,4.0,82.0
2114,78.0,7,23,6.0,80.0
2115,79.0,6,42,5.0,74.0
2116,79.0,10,33,4.0,66.0
2117,79.0,4,35,6.0,74.0
2118,78.0,8,37,4.0,74.0
2119,78.0,6,45,5.0,72.0
2120,78.0,9,33,6.0,76.0
2121,76.0,17,48,5.0,57.0
2122,47.0,5,37,10.0,87.0
2123,76.0,3,48,4.0,85.0
2124,76.0,6,44,6.0,68.0
2125,71.0,4,38,7.0,80.0
2126,78.0,10,28,5.0,87.0
2127,63.0,6,38,8.0,63.0
2128,78.0,4,29,6.0,76.0
2129,78.0,2,34,4.0,85.0
2130,71.0,2,84,7.0,85.0
2131,64.0,1,105,8.0,89.0
2132,71.0,180,39,8.0,82.0
2133,76.0,10,35,7.0,91.0
2134,79.0,4,252,4.0,82.0
2135,79.0,35,264,5.0,85.0
2136,79.0,1,264,6.0,98.0
2137,78.0,3,29,5.0,87.0
2138,78.0,2,34,6.0,89.0
2139,78.0,38,41,4.0,63.0
2140,76.0,11,83,7.0,85.0
2141,71.0,44,95,8.0,85.0
2142,76.0,54,40,5.0,82.0
2143,76.0,2,40,6.0,85.0
2144,76.0,3,50,4.0,74.0
2145,40.0,2,440,10.0,93.0
2146,74.0,55,35,5.0,85.0
2147,74.0,2,39,6.0,82.0
2148,74.0,5,38,4.0,82.0
2149,71.0,9,32,7.0,85.0
2150,67.0,5,31,8.0,74.0
2151,72.0,3,90,6.0,95.0
2152,72.0,6,95,4.0,85.0
2153,72.0,41,108,5.0,85.0
2154,72.0,177,43,5.0,80.0
2155,72.0,1,40,4.0,85.0
2156,72.0,7,44,6.0,82.0
2157,67.0,0,328,7.0,91.0
2158,74.0,8,83,4.0,85.0
2159,74.0,53,92,5.0,87.0
2160,74.0,2,87,6.0,89.0
2161,64.0,0,336,8.0,82.0
2162,67.0,169,35,7.0,93.0
2163,76.0,2,38,5.0,82.0
2164,76.0,2,36,4.0,87.0
2165,62.0,3,44,8.0,82.0
2166,76.0,2,42,6.0,87.0
2167,71.0,8,127,5.0,93.0
2168,71.0,0,127,4.0,91.0
2169,71.0,3,129,6.0,100.0
2170,52.0,1,635,10.0,98.0
2171,55.0,60,44,10.0,85.0
2172,66.0,52,323,7.0,85.0
2173,70.0,1,205,6.0,68.0
2174,54.0,57,91,10.0,102.0
2175,70.0,6,210,4.0,68.0
2176,70.0,112,220,5.0,63.0
2177,61.0,0,348,8.0,85.0
2178,70.0,168,41,7.0,74.0
2179,79.0,6,34,4.0,89.0
2180,52.0,12,41,10.0,78.0
2181,61.0,0,41,8.0,85.0
2182,79.0,5,36,6.0,100.0
2183,79.0,1,40,5.0,87.0
2184,50.0,3,87,10.0,93.0
2185,78.0,1,97,4.0,102.0
2186,78.0,2,94,5.0,91.0
2187,78.0,6,95,6.0,105.0
2188,62.0,2,110,8.0,91.0
2189,49.0,159,40,10.0,80.0
2190,64.0,3,36,8.0,82.0
2191,76.0,8,44,4.0,82.0
2192,76.0,1,43,5.0,76.0
2193,76.0,3,47,6.0,87.0
2194,71.0,45,331,7.0,87.0
2195,74.0,7,81,6.0,100.0
2196,74.0,0,88,4.0,80.0
2197,47.0,44,110,10.0,89.0
2198,74.0,11,100,5.0,82.0
2199,46.0,0,46,10.0,80.0
2200,73.0,4,37,7.0,76.0
2201,73.0,2,41,4.0,63.0
2202,73.0,4,46,6.0,80.0
2203,73.0,173,53,5.0,76.0
2204,74.0,2,90,6.0,91.0
2205,71.0,1,93,7.0,89.0
2206,47.0,49,105,10.0,87.0
2207,74.0,2,101,4.0,82.0
2208,74.0,2,105,5.0,89.0
2209,66.0,0,357,8.0,82.0
2210,49.0,0,42,10.0,85.0
2211,70.0,3,43,7.0,82.0
2212,64.0,0,43,8.0,80.0
2213,73.0,2,44,4.0,63.0
2214,73.0,0,45,6.0,87.0
2215,73.0,171,51,5.0,76.0
2216,71.0,1,91,6.0,85.0
2217,71.0,2,101,4.0,78.0
2218,50.0,1,100,10.0,87.0
2219,71.0,0,103,7.0,87.0
2220,66.0,57,109,8.0,85.0
2221,71.0,1,115,5.0,80.0
2222,71.0,2,31,7.0,89.0
2223,52.0,1,39,10.0,80.0
2224,67.0,2,38,8.0,82.0
2225,73.0,0,44,4.0,66.0
2226,73.0,2,48,6.0,76.0
2227,73.0,171,50,5.0,72.0
2228,71.0,0,68,7.0,98.0
2229,74.0,1,72,5.0,85.0
2230,74.0,4,67,6.0,95.0
2231,74.0,3,71,4.0,85.0
2232,70.0,59,30,7.0,80.0
2233,73.0,1,34,6.0,80.0
2234,73.0,0,34,5.0,64.0
2235,73.0,1,36,4.0,63.0
2236,71.0,26,29,7.0,70.0
2237,74.0,1,30,6.0,80.0
2238,74.0,5,34,4.0,70.0
2239,74.0,1,36,5.0,68.0
2240,54.0,0,141,10.0,85.0
2241,70.0,21,21,7.0,68.0
2242,73.0,7,24,6.0,63.0
2243,73.0,2,22,4.0,54.0
2244,73.0,3,21,5.0,62.0
2245,71.0,8,23,7.0,74.0
2246,74.0,10,24,4.0,70.0
2247,74.0,3,22,6.0,80.0
2248,74.0,0,24,5.0,68.0
2249,70.0,8,23,7.0,63.0
2250,73.0,0,19,4.0,56.0
2251,66.0,57,195,8.0,89.0
2252,73.0,12,21,6.0,63.0
2253,73.0,4,20,5.0,57.0
2254,71.0,3,27,7.0,87.0
2255,52.0,0,33,10.0,76.0
2256,74.0,11,23,4.0,78.0
2257,74.0,5,22,6.0,76.0
2258,74.0,1,24,5.0,78.0
2259,70.0,3,22,7.0,59.0
2260,50.0,3,27,10.0,80.0
2261,73.0,4,21,6.0,62.0
2262,73.0,7,26,4.0,70.0
2263,73.0,2,24,5.0,66.0
2264,71.0,4,26,7.0,87.0
2265,74.0,2,27,4.0,85.0
2266,74.0,11,29,6.0,87.0
2267,74.0,2,28,5.0,85.0
2268,52.0,2,105,10.0,100.0
2269,70.0,4,113,7.0,91.0
2270,73.0,1,114,4.0,74.0
2271,73.0,5,116,6.0,80.0
2272,73.0,2,121,5.0,74.0
2273,66.0,4,190,8.0,91.0
2274,71.0,162,32,4.0,85.0
2275,71.0,1,32,6.0,85.0
2276,71.0,3,30,5.0,78.0
2277,71.0,5,35,7.0,89.0
2278,54.0,4,34,10.0,91.0
2279,71.0,2,87,7.0,105.0
2280,59.0,153,42,7.0,89.0
2281,71.0,49,253,6.0,95.0
2282,71.0,1,257,4.0,87.0
2283,71.0,5,256,5.0,78.0
2284,59.0,61,84,7.0,95.0
2285,71.0,68,33,6.0,82.0
2286,71.0,1,34,5.0,85.0
2287,71.0,6,30,4.0,87.0
2288,69.0,47,44,6.0,80.0
2289,69.0,4,41,4.0,80.0
2290,69.0,3,47,5.0,85.0
2291,63.0,1,36,7.0,82.0
2292,68.0,50,39,5.0,76.0
2293,68.0,0,42,4.0,85.0
2294,68.0,3,42,6.0,91.0
2295,66.0,10,474,8.0,87.0
2296,51.0,0,518,10.0,93.0
2297,69.0,1,90,6.0,93.0
2298,49.0,57,35,10.0,76.0
2299,69.0,1,93,4.0,87.0
2300,69.0,1,100,5.0,89.0
2301,47.0,53,44,10.0,82.0
2302,49.0,58,41,10.0,85.0
2303,78.0,1,40,4.0,78.0
2304,78.0,0,44,5.0,68.0
2305,78.0,8,47,6.0,89.0
2306,59.0,30,30,8.0,78.0
2307,51.0,21,42,10.0,82.0
2308,66.0,62,317,7.0,98.0
2309,71.0,12,87,6.0,95.0
2310,49.0,34,39,10.0,98.0
2311,59.0,12,76,8.0,85.0
2312,71.0,1,90,4.0,85.0
2313,71.0,2,93,5.0,87.0
2314,51.0,62,39,10.0,93.0
2315,47.0,60,38,10.0,91.0
2316,66.0,0,37,7.0,80.0
2317,69.0,2,40,4.0,82.0
2318,69.0,9,42,5.0,80.0
2319,63.0,7,38,8.0,68.0
2320,69.0,1,45,6.0,87.0
2321,59.0,4,82,8.0,91.0
2322,68.0,0,97,5.0,70.0
2323,68.0,0,97,4.0,87.0
2324,68.0,4,90,6.0,89.0
2325,64.0,53,103,7.0,98.0
2326,76.0,4,35,7.0,91.0
2327,64.0,1,44,4.0,85.0
2328,64.0,2,44,6.0,85.0
2329,64.0,168,50,5.0,70.0
2330,56.0,13,44,8.0,87.0
2331,68.0,1,81,6.0,93.0
2332,76.0,48,84,7.0,102.0
2333,68.0,0,86,5.0,76.0
2334,68.0,0,91,4.0,87.0
2335,59.0,6,87,8.0,100.0
2336,74.0,164,41,7.0,80.0
2337,71.0,6,41,4.0,72.0
2338,64.0,4,34,8.0,82.0
2339,71.0,1,41,5.0,78.0
2340,71.0,3,43,6.0,85.0
2341,52.0,0,522,10.0,95.0
2342,73.0,50,101,7.0,80.0
2343,50.0,53,42,10.0,82.0
2344,49.0,54,37,10.0,80.0
2345,50.0,57,41,10.0,87.0
2346,73.0,10,33,7.0,78.0
2347,52.0,50,42,10.0,87.0
2348,73.0,15,70,7.0,98.0
2349,50.0,40,39,10.0,85.0
2350,68.0,4,348,8.0,93.0
2351,76.0,4,344,4.0,85.0
2352,76.0,2,343,6.0,89.0
2353,76.0,3,352,5.0,76.0
2354,52.0,57,37,10.0,87.0
2355,76.0,7,34,4.0,85.0
2356,49.0,62,42,10.0,87.0
2357,76.0,2,37,6.0,89.0
2358,76.0,6,31,5.0,89.0
2359,71.0,4,30,7.0,82.0
2360,64.0,1,35,8.0,85.0
2361,61.0,1,90,8.0,85.0
2362,69.0,171,33,8.0,85.0
2363,76.0,0,246,4.0,89.0
2364,76.0,50,254,6.0,98.0
2365,76.0,3,259,5.0,85.0
2366,69.0,54,84,8.0,87.0
2367,69.0,3,313,7.0,98.0
2368,69.0,56,43,6.0,80.0
2369,69.0,5,45,5.0,80.0
2370,69.0,3,46,4.0,85.0
2371,71.0,54,40,6.0,82.0
2372,71.0,0,42,5.0,78.0
2373,71.0,7,39,4.0,85.0
2374,69.0,1,30,7.0,102.0
2375,73.0,54,37,6.0,82.0
2376,67.0,2,40,8.0,85.0
2377,73.0,0,42,5.0,72.0
2378,73.0,4,36,4.0,85.0
2379,54.0,4,506,10.0,102.0
2380,74.0,1,42,5.0,78.0
2381,74.0,50,44,6.0,87.0
2382,74.0,2,42,4.0,78.0
2383,66.0,1,91,8.0,87.0
2384,55.0,51,41,10.0,78.0
2385,73.0,1,41,5.0,78.0
2386,73.0,2,40,4.0,91.0
2387,73.0,0,40,6.0,91.0
2388,54.0,55,46,10.0,93.0
2389,74.0,0,45,6.0,85.0
2390,74.0,4,48,5.0,58.0
2391,74.0,0,48,4.0,80.0
2392,66.0,0,37,8.0,80.0
2393,52.0,53,42,10.0,72.0
2394,76.0,3,43,5.0,70.0
2395,76.0,3,44,4.0,89.0
2396,76.0,2,47,6.0,82.0
2397,50.0,5,42,10.0,85.0
2398,78.0,1,47,5.0,80.0
2399,78.0,1,48,6.0,102.0
2400,78.0,4,54,4.0,98.0
2401,66.0,50,73,8.0,82.0
2402,52.0,48,38,10.0,78.0
2403,76.0,2,46,5.0,80.0
2404,76.0,6,44,6.0,85.0
2405,76.0,5,47,4.0,87.0
2406,69.0,5,345,7.0,102.0
2407,50.0,43,37,10.0,91.0
2408,78.0,2,40,5.0,66.0
2409,78.0,14,43,6.0,89.0
2410,78.0,2,44,4.0,87.0
2411,64.0,1,30,8.0,82.0
2412,69.0,2,34,7.0,85.0
2413,80.0,10,38,6.0,107.0
2414,49.0,43,48,10.0,98.0
2415,80.0,1,38,5.0,87.0
2416,80.0,4,41,4.0,102.0
2417,81.0,3,55,5.0,87.0
2418,81.0,1,68,4.0,89.0
2419,81.0,2,82,6.0,87.0
2420,71.0,6,78,7.0,85.0
2421,80.0,0,85,5.0,66.0
2422,80.0,8,85,6.0,82.0
2423,80.0,58,95,4.0,59.0
2424,69.0,111,37,7.0,80.0
2425,47.0,49,263,10.0,93.0
2426,78.0,0,57,5.0,89.0
2427,78.0,55,74,4.0,91.0
2428,78.0,1,76,6.0,102.0
2429,68.0,7,85,7.0,91.0
2430,47.0,54,44,10.0,98.0
2431,76.0,6,82,5.0,82.0
2432,49.0,44,37,10.0,91.0
2433,76.0,2,100,4.0,63.0
2434,76.0,6,97,6.0,72.0
2435,50.0,54,35,10.0,98.0
2436,66.0,7,45,7.0,74.0
2437,44.0,2,87,10.0,102.0
2438,64.0,62,100,7.0,87.0
2439,62.0,0,592,8.0,85.0
2440,62.0,6,31,8.0,82.0
2441,68.0,2,46,7.0,72.0
2442,40.0,167,48,10.0,85.0
2443,61.0,0,84,8.0,72.0
2444,69.0,1,86,7.0,89.0
2445,83.0,4,320,6.0,91.0
2446,83.0,6,314,4.0,89.0
2447,42.0,51,93,10.0,89.0
2448,83.0,0,355,5.0,82.0
2449,71.0,1,35,7.0,80.0
2450,74.0,177,39,6.0,87.0
2451,74.0,0,39,5.0,72.0
2452,44.0,2,42,10.0,93.0
2453,59.0,2,42,8.0,82.0
2454,74.0,6,36,4.0,82.0
2455,45.0,51,99,10.0,100.0
2456,64.0,2,97,8.0,89.0
2457,47.0,166,46,10.0,82.0
2458,62.0,3,44,8.0,74.0
2459,49.0,55,92,10.0,100.0
2460,69.0,4,330,7.0,91.0
2461,64.0,4,92,8.0,87.0
2462,73.0,1,337,5.0,72.0
2463,73.0,7,350,4.0,82.0
2464,73.0,0,363,6.0,89.0
2465,69.0,175,29,7.0,87.0
2466,71.0,2,36,5.0,80.0
2467,50.0,6,35,10.0,95.0
2468,71.0,2,36,4.0,85.0
2469,66.0,1,37,8.0,80.0
2470,71.0,1,51,6.0,85.0
2471,73.0,2,63,5.0,87.0
2472,73.0,0,63,4.0,80.0
2473,69.0,51,74,7.0,89.0
2474,73.0,2,67,6.0,87.0
2475,71.0,51,30,5.0,58.0
2476,68.0,3,23,7.0,78.0
2477,71.0,4,34,4.0,53.0
2478,71.0,5,30,6.0,72.0
2479,73.0,20,26,5.0,56.0
2480,73.0,1,26,4.0,53.0
2481,69.0,6,28,7.0,70.0
2482,73.0,4,23,6.0,62.0
2483,71.0,15,23,5.0,57.0
2484,68.0,5,18,7.0,70.0
2485,71.0,1,22,6.0,66.0
2486,71.0,2,25,4.0,59.0
2487,69.0,1,22,7.0,68.0
2488,73.0,15,24,5.0,64.0
2489,52.0,0,165,10.0,85.0
2490,73.0,7,19,6.0,80.0
2491,73.0,1,22,4.0,62.0
2492,68.0,10,22,7.0,63.0
2493,71.0,4,25,5.0,60.0
2494,71.0,3,23,6.0,70.0
2495,71.0,4,20,4.0,60.0
2496,64.0,3,185,8.0,85.0
2497,69.0,8,27,7.0,76.0
2498,73.0,8,23,5.0,72.0
2499,73.0,2,20,4.0,66.0
2500,73.0,2,26,6.0,98.0
2501,68.0,9,20,7.0,68.0
2502,71.0,6,25,5.0,68.0
2503,71.0,0,23,4.0,74.0
2504,71.0,4,23,6.0,76.0
2505,69.0,8,26,7.0,78.0
2506,73.0,10,27,5.0,76.0
2507,73.0,1,29,6.0,82.0
2508,73.0,3,30,4.0,89.0
2509,68.0,5,129,7.0,89.0
2510,71.0,10,134,5.0,87.0
2511,71.0,2,137,4.0,89.0
2512,71.0,2,140,6.0,89.0
2513,40.0,5,154,10.0,91.0
2514,62.0,1,166,8.0,85.0
2515,69.0,165,35,6.0,100.0
2516,64.0,1,34,7.0,76.0
2517,69.0,4,35,5.0,85.0
2518,69.0,4,34,4.0,87.0
2519,45.0,13,19,3.0,107.0
2520,45.0,26,18,3.0,119.0
2521,45.0,26,18,3.0,85.0
2522,45.0,28,14,3.0,102.0
2523,64.0,4,130,7.0,95.0
2524,45.0,20,19,3.0,95.0
2525,45.0,32,15,3.0,107.0
2526,45.0,22,16,3.0,93.0
2527,97.0,1,28,0.0,113.0
2528,93.0,5,31,1.0,110.0
2529,45.0,12,16,3.0,107.0
2530,76.0,11,43,7.0,98.0
2531,88.0,2,36,2.0,119.0
2532,45.0,24,17,3.0,82.0
2533,69.0,56,250,6.0,100.0
2534,69.0,1,252,4.0,89.0
2535,69.0,3,264,5.0,78.0
2536,45.0,2,16,3.0,107.0
2537,45.0,24,15,3.0,82.0
2538,76.0,17,74,7.0,98.0
2539,97.0,3,69,0.0,105.0
2540,93.0,7,72,1.0,105.0
2541,45.0,6,14,3.0,93.0
2542,88.0,0,78,2.0,107.0
2543,73.0,25,40,6.0,102.0
2544,45.0,29,12,3.0,80.0
2545,45.0,21,18,3.0,100.0
2546,71.0,2,38,6.0,98.0
2547,45.0,14,16,3.0,80.0
2548,71.0,4,41,4.0,72.0
2549,71.0,5,51,5.0,68.0
2550,45.0,1,12,3.0,82.0
2551,73.0,6,31,5.0,76.0
2552,73.0,13,37,4.0,91.0
2553,73.0,5,35,7.0,89.0
2554,45.0,0,16,3.0,82.0
2555,74.0,3,26,4.0,85.0
2556,88.0,4,36,1.0,105.0
2557,74.0,1,39,5.0,82.0
2558,81.0,5,36,2.0,98.0
2559,93.0,1,36,0.0,100.0
2560,69.0,8,52,6.0,89.0
2561,76.0,9,37,5.0,85.0
2562,45.0,17,20,3.0,102.0
2563,76.0,1,39,4.0,76.0
2564,78.0,0,31,4.0,64.0
2565,78.0,5,32,5.0,85.0
2566,45.0,3,19,3.0,100.0
2567,61.0,0,530,8.0,85.0
2568,79.0,4,84,4.0,85.0
2569,79.0,1,90,6.0,100.0
2570,79.0,7,93,5.0,89.0
2571,81.0,1,92,2.0,105.0
2572,93.0,0,92,0.0,100.0
2573,88.0,0,95,1.0,107.0
2574,45.0,8,22,3.0,102.0
2575,76.0,170,45,6.0,93.0
2576,45.0,0,713,10.0,105.0
2577,76.0,1,47,4.0,85.0
2578,61.0,4,50,8.0,89.0
2579,76.0,3,46,5.0,87.0
2580,69.0,16,296,7.0,95.0
2581,45.0,8,45,3.0,119.0
2582,78.0,2,69,4.0,80.0
2583,78.0,1,76,6.0,107.0
2584,78.0,4,73,5.0,95.0
2585,62.0,47,86,8.0,100.0
2586,47.0,36,38,10.0,89.0
2587,67.0,9,33,7.0,89.0
2588,66.0,55,40,7.0,102.0
2589,45.0,2,42,10.0,89.0
2590,45.0,5,28,3.0,93.0
2591,64.0,53,35,7.0,100.0
2592,79.0,0,31,4.0,87.0
2593,43.0,1,35,10.0,100.0
2594,79.0,3,32,6.0,107.0
2595,64.0,4,43,8.0,82.0
2596,79.0,2,39,5.0,82.0
2597,50.0,5,18,3.0,102.0
2598,50.0,29,17,3.0,116.0
2599,50.0,21,19,3.0,105.0
2600,50.0,32,13,3.0,105.0
2601,66.0,0,95,8.0,98.0
2602,50.0,21,17,3.0,98.0
2603,50.0,29,17,3.0,100.0
2604,50.0,21,17,3.0,80.0
2605,50.0,4,16,3.0,105.0
2606,90.0,21,37,1.0,100.0
2607,81.0,2,38,2.0,100.0
2608,98.0,4,35,0.0,102.0
2609,69.0,0,37,8.0,98.0
2610,50.0,21,16,3.0,100.0
2611,50.0,28,17,3.0,110.0
2612,42.0,3,268,10.0,102.0
2613,50.0,15,16,3.0,89.0
2614,90.0,4,63,1.0,102.0
2615,50.0,27,17,3.0,102.0
2616,98.0,0,64,0.0,100.0
2617,69.0,3,75,8.0,102.0
2618,81.0,4,76,2.0,102.0
2619,50.0,22,14,3.0,82.0
2620,43.0,4,37,10.0,91.0
2621,81.0,0,331,5.0,93.0
2622,81.0,1,340,4.0,87.0
2623,62.0,52,344,7.0,105.0
2624,81.0,0,349,6.0,100.0
2625,50.0,23,17,3.0,102.0
2626,50.0,10,18,3.0,98.0
2627,42.0,13,41,10.0,105.0
2628,50.0,25,16,3.0,105.0
2629,50.0,20,18,3.0,57.0
2630,72.0,1,27,4.0,80.0
2631,72.0,0,26,5.0,82.0
2632,66.0,0,32,8.0,87.0
2633,93.0,4,37,0.0,105.0
2634,72.0,2,35,6.0,82.0
2635,40.0,0,37,10.0,100.0
2636,50.0,6,23,3.0,102.0
2637,78.0,5,36,2.0,107.0
2638,86.0,6,41,1.0,100.0
2639,57.0,0,42,7.0,100.0
2640,50.0,36,20,3.0,95.0
2641,74.0,1,42,5.0,85.0
2642,74.0,0,44,4.0,89.0
2643,72.0,22,20,5.0,78.0
2644,74.0,5,54,6.0,89.0
2645,72.0,3,18,4.0,57.0
2646,72.0,12,20,6.0,76.0
2647,74.0,3,20,5.0,68.0
2648,74.0,6,23,4.0,68.0
2649,93.0,1,87,0.0,102.0
2650,86.0,4,83,1.0,105.0
2651,72.0,1,20,5.0,78.0
2652,74.0,16,21,6.0,64.0
2653,69.0,2,91,7.0,95.0
2654,38.0,3,105,10.0,98.0
2655,78.0,3,88,2.0,105.0
2656,74.0,3,12,4.0,80.0
2657,74.0,2,16,5.0,70.0
2658,72.0,17,20,6.0,66.0
2659,72.0,13,17,5.0,80.0
2660,72.0,3,52,4.0,66.0
2661,74.0,2,34,6.0,80.0
2662,74.0,1,27,4.0,68.0
2663,74.0,17,31,5.0,70.0
2664,72.0,3,32,6.0,59.0
2665,72.0,2,23,5.0,70.0
2666,72.0,14,28,4.0,85.0
2667,66.0,1,189,8.0,95.0
2668,71.0,11,41,6.0,87.0
2669,71.0,12,34,5.0,76.0
2670,50.0,11,19,3.0,87.0
2671,71.0,2,35,4.0,78.0
2672,40.0,1,40,10.0,93.0
2673,67.0,3,43,7.0,85.0
2674,72.0,3,32,6.0,68.0
2675,72.0,9,28,5.0,58.0
2676,72.0,3,33,4.0,68.0
2677,50.0,5,34,3.0,110.0
2678,74.0,3,74,4.0,89.0
2679,69.0,5,73,7.0,98.0
2680,74.0,25,87,5.0,102.0
2681,74.0,1,91,6.0,105.0
2682,42.0,0,82,10.0,110.0
2683,50.0,0,22,3.0,100.0
2684,69.0,1,29,4.0,78.0
2685,69.0,3,33,5.0,85.0
2686,69.0,3,37,6.0,85.0
2687,38.0,0,35,10.0,91.0
2688,66.0,157,45,7.0,80.0
2689,50.0,0,48,3.0,119.0
2690,67.0,60,103,7.0,95.0
2691,62.0,4,347,8.0,87.0
2692,66.0,161,50,7.0,72.0
2693,62.0,12,43,8.0,95.0
2694,71.0,1,262,6.0,95.0
2695,71.0,3,262,5.0,100.0
2696,71.0,0,276,4.0,89.0
2697,67.0,57,93,7.0,91.0
2698,69.0,55,38,6.0,87.0
2699,64.0,3,94,8.0,91.0
2700,69.0,2,41,5.0,89.0
2701,69.0,10,35,4.0,82.0
2702,67.0,43,35,6.0,89.0
2703,67.0,2,32,4.0,74.0
2704,67.0,5,36,5.0,80.0
2705,43.0,4,423,10.0,100.0
2706,66.0,7,36,4.0,76.0
2707,69.0,47,46,7.0,85.0
2708,66.0,1,39,8.0,85.0
2709,66.0,1,53,6.0,95.0
2710,66.0,1,47,5.0,102.0
2711,64.0,4,44,4.0,87.0
2712,64.0,1,50,6.0,100.0
2713,64.0,2,52,5.0,98.0
2714,71.0,54,98,7.0,93.0
2715,66.0,53,35,4.0,80.0
2716,67.0,2,97,8.0,89.0
2717,66.0,0,43,6.0,98.0
2718,66.0,2,44,5.0,85.0
2719,67.0,56,41,4.0,68.0
2720,67.0,1,50,6.0,89.0
2721,67.0,6,48,5.0,72.0
2722,73.0,41,54,7.0,78.0
2723,69.0,0,41,4.0,70.0
2724,69.0,14,49,6.0,82.0
2725,69.0,2,48,5.0,82.0
2726,64.0,3,51,8.0,89.0
2727,71.0,1,46,4.0,85.0
2728,71.0,1,46,5.0,87.0
2729,71.0,2,57,6.0,91.0
2730,74.0,52,86,7.0,95.0
2731,73.0,0,46,4.0,70.0
2732,73.0,50,48,6.0,82.0
2733,73.0,7,45,5.0,82.0
2734,66.0,6,103,8.0,98.0
2735,74.0,50,49,4.0,91.0
2736,74.0,5,51,6.0,100.0
2737,74.0,5,47,5.0,91.0
2738,76.0,1,34,7.0,89.0
2739,71.0,49,44,4.0,85.0
2740,71.0,1,46,6.0,82.0
2741,71.0,0,41,5.0,82.0
2742,67.0,4,50,8.0,85.0
2743,45.0,3,20,3.0,102.0
2744,45.0,22,15,3.0,122.0
2745,73.0,1,51,4.0,87.0
2746,73.0,57,52,6.0,102.0
2747,73.0,3,50,5.0,100.0
2748,45.0,1,16,3.0,95.0
2749,45.0,18,16,3.0,107.0
2750,69.0,3,89,7.0,95.0
2751,74.0,25,42,4.0,82.0
2752,64.0,1,92,8.0,93.0
2753,74.0,1,42,5.0,89.0
2754,74.0,3,46,6.0,91.0
2755,45.0,26,17,3.0,93.0
2756,45.0,7,17,3.0,107.0
2757,73.0,11,41,4.0,80.0
2758,73.0,2,42,5.0,85.0
2759,73.0,1,47,6.0,89.0
2760,45.0,27,16,3.0,80.0
2761,45.0,1,16,3.0,105.0
2762,88.0,3,40,0.0,93.0
2763,64.0,16,45,7.0,87.0
2764,69.0,3,39,8.0,89.0
2765,71.0,0,40,4.0,100.0
2766,71.0,0,40,5.0,95.0
2767,45.0,20,12,3.0,68.0
2768,71.0,1,44,6.0,98.0
2769,81.0,9,36,1.0,100.0
2770,45.0,19,16,3.0,105.0
2771,55.0,2,734,10.0,110.0
2772,45.0,14,14,3.0,72.0
2773,69.0,0,48,5.0,95.0
2774,69.0,8,56,4.0,95.0
2775,45.0,18,15,3.0,110.0
2776,69.0,1,68,6.0,102.0
2777,81.0,6,64,1.0,100.0
2778,88.0,1,72,0.0,100.0
2779,61.0,2,80,7.0,105.0
2780,45.0,15,13,3.0,85.0
2781,69.0,0,91,8.0,89.0
2782,54.0,17,36,10.0,98.0
2783,71.0,1,44,4.0,89.0
2784,45.0,19,14,3.0,80.0
2785,71.0,2,50,5.0,85.0
2786,71.0,1,52,6.0,87.0
2787,45.0,4,12,3.0,64.0
2788,52.0,19,41,10.0,100.0
2789,73.0,1,41,4.0,98.0
2790,45.0,18,18,3.0,105.0
2791,73.0,3,41,5.0,89.0
2792,73.0,6,46,6.0,89.0
2793,45.0,2,13,3.0,70.0
2794,50.0,22,38,10.0,95.0
2795,88.0,6,34,1.0,100.0
2796,45.0,11,17,3.0,102.0
2797,64.0,1,39,8.0,85.0
2798,93.0,3,35,0.0,100.0
2799,74.0,1,45,4.0,85.0
2800,57.0,0,45,7.0,93.0
2801,74.0,0,52,6.0,95.0
2802,74.0,3,50,5.0,89.0
2803,45.0,28,20,3.0,89.0
2804,45.0,13,20,3.0,107.0
2805,76.0,1,46,5.0,89.0
2806,76.0,2,47,4.0,95.0
2807,76.0,1,55,6.0,95.0
2808,88.0,4,73,1.0,100.0
2809,93.0,4,71,0.0,100.0
2810,69.0,1,91,7.0,93.0
2811,64.0,0,97,8.0,95.0
2812,78.0,1,39,4.0,93.0
2813,78.0,2,42,5.0,98.0
2814,49.0,13,105,10.0,102.0
2815,78.0,34,46,6.0,87.0
2816,79.0,54,44,4.0,85.0
2817,79.0,3,45,5.0,91.0
2818,79.0,1,48,6.0,95.0
2819,45.0,1,24,3.0,102.0
2820,45.0,52,43,10.0,87.0
2821,90.0,1,35,1.0,89.0
2822,93.0,0,37,0.0,87.0
2823,81.0,2,42,6.0,98.0
2824,81.0,0,40,4.0,98.0
2825,81.0,2,42,5.0,95.0
2826,61.0,3,47,8.0,87.0
2827,66.0,1,48,7.0,85.0
2828,81.0,3,44,2.0,102.0
2829,50.0,4,34,3.0,110.0
2830,79.0,50,54,6.0,98.0
2831,79.0,0,49,5.0,95.0
2832,79.0,0,51,4.0,100.0
2833,90.0,0,62,1.0,95.0
2834,74.0,4,64,2.0,100.0
2835,91.0,4,75,0.0,91.0
2836,62.0,1,70,7.0,105.0
2837,47.0,2,93,10.0,98.0
2838,78.0,46,40,6.0,105.0
2839,78.0,4,37,5.0,105.0
2840,62.0,0,101,8.0,102.0
2841,78.0,4,40,4.0,102.0
2842,79.0,6,40,5.0,91.0
2843,79.0,48,46,6.0,89.0
2844,79.0,2,41,4.0,91.0
2845,69.0,46,37,7.0,89.0
2846,45.0,4,28,3.0,116.0
2847,88.0,1,33,1.0,87.0
2848,49.0,6,37,10.0,98.0
2849,64.0,0,38,8.0,82.0
2850,76.0,6,47,6.0,93.0
2851,81.0,1,40,2.0,85.0
2852,76.0,1,42,4.0,93.0
2853,93.0,1,40,0.0,87.0
2854,76.0,0,43,5.0,93.0
2855,50.0,0,38,3.0,122.0
2856,90.0,1,98,0.0,100.0
2857,86.0,4,90,2.0,100.0
2858,78.0,0,95,4.0,100.0
2859,50.0,1,101,10.0,102.0
2860,81.0,4,100,1.0,102.0
2861,78.0,53,112,6.0,100.0
2862,78.0,1,107,5.0,98.0
2863,52.0,1,40,10.0,89.0
2864,79.0,162,45,6.0,87.0
2865,79.0,4,41,4.0,82.0
2866,91.0,1,45,0.0,87.0
2867,79.0,3,41,5.0,87.0
2868,54.0,2,78,10.0,102.0
2869,69.0,0,315,7.0,102.0
2870,81.0,53,88,6.0,91.0
2871,93.0,1,89,0.0,89.0
2872,81.0,1,91,4.0,100.0
2873,81.0,2,95,5.0,93.0
2874,62.0,2,337,8.0,93.0
2875,67.0,1,42,7.0,85.0
2876,83.0,1,42,6.0,87.0
2877,55.0,169,45,10.0,85.0
2878,83.0,3,36,5.0,87.0
2879,95.0,4,44,0.0,89.0
2880,83.0,7,37,4.0,87.0
2881,62.0,0,55,8.0,78.0
2882,57.0,0,48,10.0,98.0
2883,45.0,6,38,3.0,119.0
2884,93.0,1,86,2.0,119.0
2885,81.0,46,103,1.0,105.0
2886,88.0,1,94,0.0,100.0
2887,69.0,1,91,8.0,95.0
2888,59.0,38,42,10.0,89.0
2889,73.0,5,102,6.0,82.0
2890,73.0,4,101,4.0,82.0
2891,73.0,3,109,5.0,82.0
2892,64.0,5,124,7.0,87.0
2893,57.0,60,41,10.0,89.0
2894,93.0,4,38,0.0,89.0
2895,74.0,2,44,6.0,82.0
2896,74.0,4,37,5.0,85.0
2897,55.0,57,48,10.0,87.0
2898,74.0,1,41,4.0,85.0
2899,69.0,0,39,8.0,87.0
2900,66.0,2,39,7.0,87.0
2901,54.0,50,52,10.0,91.0
2902,76.0,4,60,6.0,87.0
2903,76.0,6,52,4.0,89.0
2904,76.0,0,59,5.0,85.0
2905,74.0,1,19,4.0,62.0
2906,74.0,1,20,6.0,82.0
2907,74.0,2,20,5.0,76.0
2908,86.0,3,81,0.0,95.0
2909,69.0,1,81,8.0,87.0
2910,66.0,2,84,7.0,100.0
2911,76.0,1,20,6.0,68.0
2912,76.0,21,22,4.0,72.0
2913,76.0,2,23,5.0,64.0
2914,55.0,43,51,10.0,89.0
2915,74.0,17,21,6.0,80.0
2916,74.0,4,14,5.0,66.0
2917,74.0,3,19,4.0,63.0
2918,76.0,1,16,4.0,76.0
2919,76.0,4,15,5.0,68.0
2920,76.0,1,29,6.0,70.0
2921,74.0,2,17,5.0,68.0
2922,74.0,13,20,4.0,68.0
2923,57.0,13,47,10.0,85.0
2924,74.0,6,24,6.0,47.0
2925,76.0,3,16,5.0,59.0
2926,76.0,13,23,4.0,68.0
2927,74.0,1,18,5.0,53.0
2928,74.0,2,25,4.0,78.0
2929,73.0,9,36,6.0,63.0
2930,59.0,4,41,10.0,89.0
2931,73.0,3,26,4.0,72.0
2932,73.0,8,34,5.0,78.0
2933,66.0,1,35,8.0,85.0
2934,93.0,3,50,0.0,87.0
2935,62.0,3,49,7.0,89.0
2936,74.0,4,34,6.0,80.0
2937,74.0,16,32,5.0,80.0
2938,74.0,12,32,4.0,53.0
2939,61.0,18,52,10.0,89.0
2940,81.0,6,85,0.0,85.0
2941,76.0,0,102,6.0,82.0
2942,59.0,48,43,10.0,91.0
2943,76.0,1,95,5.0,100.0
2944,76.0,0,97,4.0,100.0
2945,64.0,3,99,8.0,95.0
2946,57.0,58,46,10.0,87.0
2947,93.0,3,36,0.0,100.0
2948,45.0,2,23,3.0,113.0
2949,69.0,57,42,6.0,74.0
2950,59.0,1,42,10.0,87.0
2951,69.0,1,38,4.0,82.0
2952,81.0,3,35,2.0,100.0
2953,62.0,7,38,8.0,85.0
2954,69.0,1,49,5.0,82.0
2955,88.0,1,37,1.0,105.0
2956,61.0,44,45,10.0,93.0
2957,69.0,4,287,7.0,95.0
2958,45.0,5,42,3.0,113.0
2959,81.0,1,66,2.0,100.0
2960,88.0,1,74,1.0,105.0
2961,79.0,2,80,4.0,98.0
2962,79.0,3,80,6.0,100.0
2963,79.0,0,78,5.0,98.0
2964,64.0,2,78,8.0,98.0
2965,91.0,5,89,0.0,98.0
2966,62.0,40,47,10.0,98.0
2967,64.0,65,46,10.0,93.0
2968,78.0,29,31,6.0,70.0
2969,78.0,6,35,5.0,76.0
2970,78.0,5,32,4.0,63.0
2971,81.0,1,33,2.0,98.0
2972,45.0,4,27,3.0,107.0
2973,76.0,13,50,6.0,78.0
2974,93.0,0,39,0.0,85.0
2975,69.0,0,39,7.0,91.0
2976,61.0,8,44,10.0,91.0
2977,88.0,3,36,1.0,82.0
2978,76.0,3,43,5.0,78.0
2979,76.0,0,44,4.0,76.0
2980,78.0,13,30,6.0,89.0
2981,57.0,1,51,8.0,80.0
2982,78.0,9,31,5.0,80.0
2983,78.0,0,32,4.0,70.0
2984,50.0,1,42,3.0,105.0
2985,79.0,0,49,5.0,89.0
2986,79.0,1,58,4.0,87.0
2987,79.0,2,65,6.0,100.0
2988,78.0,43,21,5.0,80.0
2989,78.0,5,17,6.0,82.0
2990,78.0,7,23,4.0,74.0
2991,86.0,1,85,1.0,95.0
2992,81.0,29,91,2.0,98.0
2993,90.0,0,94,0.0,89.0
2994,79.0,14,22,5.0,68.0
2995,79.0,7,22,6.0,66.0
2996,79.0,3,21,4.0,70.0
2997,78.0,12,15,5.0,68.0
2998,78.0,7,15,6.0,66.0
2999,78.0,1,15,4.0,63.0
3000,79.0,11,15,5.0,66.0
3001,79.0,9,14,6.0,66.0
3002,79.0,1,18,4.0,64.0
3003,78.0,5,19,5.0,63.0
3004,69.0,0,149,7.0,93.0
3005,78.0,10,17,6.0,56.0
3006,78.0,3,20,4.0,70.0
3007,62.0,2,173,10.0,100.0
3008,79.0,7,22,5.0,74.0
3009,79.0,9,19,6.0,66.0
3010,79.0,3,24,4.0,72.0
3011,69.0,4,184,8.0,93.0
3012,78.0,6,23,5.0,66.0
3013,78.0,1,23,6.0,70.0
3014,78.0,2,23,4.0,68.0
3015,50.0,1,26,3.0,107.0
3016,86.0,2,36,2.0,82.0
3017,90.0,2,38,1.0,82.0
3018,74.0,4,37,7.0,82.0
3019,79.0,6,27,5.0,68.0
3020,93.0,1,42,0.0,80.0
3021,79.0,10,18,6.0,70.0
3022,79.0,3,27,4.0,72.0
3023,78.0,7,17,6.0,60.0
3024,73.0,3,32,7.0,82.0
3025,79.0,11,25,6.0,60.0
3026,50.0,1,37,3.0,110.0
3027,90.0,6,71,2.0,98.0
3028,98.0,3,73,0.0,89.0
3029,93.0,1,77,1.0,100.0
3030,78.0,4,114,5.0,63.0
3031,74.0,1,82,7.0,91.0
3032,78.0,6,112,4.0,93.0
3033,78.0,2,90,6.0,87.0
3034,50.0,2,139,10.0,100.0
3035,69.0,1,172,8.0,105.0
3036,76.0,156,38,5.0,82.0
3037,76.0,5,36,4.0,87.0
3038,76.0,1,43,6.0,89.0
3039,50.0,0,28,3.0,107.0
3040,95.0,10,33,0.0,82.0
3041,86.0,1,32,2.0,82.0
3042,92.0,0,37,1.0,93.0
3043,76.0,2,36,7.0,98.0
3044,45.0,0,44,3.0,113.0
3045,76.0,5,54,4.0,105.0
3046,76.0,3,71,6.0,102.0
3047,88.0,3,121,2.0,102.0
3048,69.0,0,125,8.0,98.0
3049,93.0,0,133,1.0,105.0
3050,45.0,63,140,10.0,107.0
3051,97.0,1,137,0.0,102.0
3052,76.0,0,146,5.0,100.0
3053,73.0,0,154,7.0,102.0
3054,69.0,1,48,4.0,78.0
3055,69.0,111,51,6.0,87.0
3056,71.0,48,52,6.0,82.0
3057,71.0,4,49,4.0,82.0
3058,73.0,1,51,4.0,80.0
3059,73.0,59,56,6.0,74.0
3060,73.0,119,49,4.0,58.0
3061,73.0,1,50,6.0,57.0
3062,74.0,2,39,4.0,80.0
3063,74.0,50,43,6.0,64.0
3064,76.0,57,67,6.0,85.0
3065,76.0,4,63,4.0,78.0
3066,73.0,123,49,4.0,59.0
3067,73.0,1,49,6.0,56.0
3068,74.0,53,47,4.0,76.0
3069,74.0,2,48,6.0,66.0
3070,76.0,1,53,4.0,85.0
3071,76.0,61,63,6.0,78.0
3072,76.0,0,48,6.0,63.0
3073,76.0,121,54,4.0,72.0
3074,78.0,48,40,4.0,66.0
3075,78.0,0,44,6.0,59.0
3076,79.0,2,58,4.0,87.0
3077,79.0,61,69,6.0,80.0
3078,79.0,123,49,6.0,70.0
3079,79.0,4,52,4.0,80.0
3080,78.0,42,45,6.0,60.0
3081,78.0,6,44,4.0,60.0
3082,79.0,3,58,4.0,80.0
3083,79.0,61,67,6.0,72.0
3084,81.0,120,48,6.0,70.0
3085,81.0,8,54,4.0,78.0
3086,79.0,1,38,6.0,70.0
3087,79.0,49,43,4.0,70.0
3088,78.0,4,46,4.0,93.0
3089,78.0,63,53,6.0,68.0
3090,81.0,4,41,6.0,82.0
3091,81.0,1,40,4.0,85.0
3092,62.0,117,54,5.0,76.0
3093,62.0,1,52,7.0,74.0
3094,64.0,45,50,5.0,70.0
3095,64.0,3,52,7.0,78.0
3096,74.0,7,47,6.0,72.0
3097,74.0,5,47,4.0,76.0
3098,66.0,1,60,7.0,78.0
3099,66.0,59,68,5.0,80.0
3100,66.0,0,48,7.0,59.0
3101,66.0,3,50,5.0,58.0
3102,67.0,42,43,7.0,68.0
3103,67.0,10,45,5.0,60.0
3104,78.0,1,160,4.0,68.0
3105,78.0,121,180,6.0,63.0
3106,69.0,7,66,5.0,89.0
3107,69.0,55,73,7.0,82.0
3108,81.0,2,44,6.0,76.0
3109,81.0,0,47,4.0,85.0
3110,66.0,1,47,5.0,64.0
3111,66.0,119,54,7.0,61.0
3112,67.0,52,47,5.0,66.0
3113,67.0,7,53,7.0,57.0
3114,72.0,1,45,6.0,78.0
3115,72.0,1,56,4.0,80.0
3116,69.0,62,65,5.0,87.0
3117,69.0,1,64,7.0,76.0
3118,69.0,1,49,7.0,78.0
3119,69.0,120,55,5.0,63.0
3120,71.0,45,47,7.0,78.0
3121,71.0,2,49,5.0,78.0
3122,78.0,1,155,4.0,66.0
3123,78.0,2,168,6.0,66.0
3124,72.0,61,67,7.0,91.0
3125,72.0,5,62,5.0,87.0
3126,72.0,1,45,7.0,66.0
3127,81.0,3,45,4.0,85.0
3128,81.0,120,58,6.0,82.0
3129,72.0,4,53,5.0,80.0
3130,71.0,8,40,5.0,60.0
3131,71.0,37,54,7.0,60.0
3132,74.0,4,53,4.0,78.0
3133,72.0,2,63,5.0,80.0
3134,74.0,6,53,6.0,74.0
3135,72.0,60,67,7.0,87.0
3136,74.0,111,52,7.0,76.0
3137,74.0,0,50,5.0,76.0
3138,78.0,1,58,6.0,57.0
3139,78.0,4,59,4.0,63.0
3140,72.0,3,44,5.0,66.0
3141,72.0,51,47,7.0,66.0
3142,79.0,0,48,4.0,82.0
3143,79.0,4,46,6.0,82.0
3144,71.0,1,61,5.0,66.0
3145,71.0,63,64,7.0,82.0
3146,83.0,116,48,4.0,80.0
3147,83.0,3,45,6.0,82.0
3148,67.0,3,54,7.0,70.0
3149,67.0,1,54,5.0,70.0
3150,69.0,51,50,7.0,74.0
3151,69.0,1,53,5.0,68.0
3152,74.0,3,47,4.0,82.0
3153,74.0,2,49,6.0,80.0
3154,71.0,60,59,7.0,82.0
3155,71.0,1,68,5.0,82.0
3156,71.0,1,63,7.0,68.0
3157,71.0,114,65,5.0,72.0
3158,73.0,0,51,7.0,64.0
3159,73.0,46,51,5.0,60.0
3160,80.0,2,166,6.0,80.0
3161,80.0,4,168,4.0,72.0
3162,74.0,65,62,7.0,95.0
3163,74.0,3,74,5.0,89.0
3164,74.0,116,51,7.0,80.0
3165,83.0,4,49,6.0,80.0
3166,83.0,7,47,4.0,85.0
3167,74.0,3,55,5.0,70.0
3168,73.0,37,46,7.0,70.0
3169,73.0,4,45,5.0,60.0
3170,76.0,0,52,6.0,74.0
3171,76.0,3,53,4.0,70.0
3172,74.0,59,64,7.0,85.0
3173,74.0,7,66,5.0,82.0
3174,80.0,1,42,4.0,70.0
3175,80.0,0,50,6.0,72.0
3176,76.0,113,64,7.0,80.0
3177,76.0,6,61,5.0,68.0
3178,74.0,47,49,7.0,82.0
3179,74.0,5,47,5.0,70.0
3180,73.0,61,54,7.0,85.0
3181,73.0,3,55,5.0,80.0
3182,81.0,7,63,4.0,82.0
3183,81.0,0,62,6.0,78.0
3184,76.0,52,46,4.0,76.0
3185,76.0,7,40,6.0,70.0
3186,73.0,53,48,4.0,63.0
3187,76.0,4,43,5.0,87.0
3188,76.0,1,50,7.0,87.0
3189,73.0,0,48,6.0,68.0
3190,57.0,5,49,8.0,85.0
3191,59.0,6,50,8.0,66.0
3192,74.0,40,56,4.0,72.0
3193,74.0,1,50,6.0,68.0
3194,69.0,2,42,5.0,72.0
3195,69.0,3,45,7.0,78.0
3196,76.0,58,53,4.0,58.0
3197,76.0,1,54,6.0,63.0
3198,61.0,1,67,8.0,87.0
3199,78.0,45,61,4.0,57.0
3200,78.0,10,54,6.0,58.0
3201,61.0,4,55,8.0,68.0
3202,76.0,3,63,6.0,53.0
3203,76.0,58,73,4.0,56.0
3204,62.0,41,48,8.0,74.0
3205,78.0,4,52,4.0,59.0
3206,78.0,7,48,6.0,66.0
3207,73.0,1,166,7.0,80.0
3208,73.0,1,175,5.0,78.0
3209,79.0,0,64,6.0,85.0
3210,79.0,7,66,4.0,85.0
3211,64.0,55,74,8.0,91.0
3212,76.0,3,45,6.0,68.0
3213,76.0,55,53,4.0,66.0
3214,76.0,0,40,7.0,82.0
3215,76.0,5,47,5.0,85.0
3216,61.0,1,52,8.0,76.0
3217,69.0,59,64,6.0,57.0
3218,69.0,3,70,4.0,59.0
3219,62.0,47,46,8.0,72.0
3220,71.0,4,49,6.0,61.0
3221,71.0,2,49,4.0,57.0
3222,67.0,4,44,5.0,68.0
3223,67.0,3,49,7.0,74.0
3224,64.0,55,61,8.0,87.0
3225,73.0,3,63,4.0,60.0
3226,73.0,1,67,6.0,52.0
3227,74.0,8,47,4.0,68.0
3228,74.0,41,56,6.0,61.0
3229,73.0,60,52,6.0,52.0
3230,73.0,6,51,4.0,49.0
3231,64.0,9,55,8.0,85.0
3232,74.0,1,48,4.0,70.0
3233,66.0,8,49,8.0,80.0
3234,74.0,35,61,6.0,62.0
3235,76.0,0,60,4.0,80.0
3236,67.0,3,60,8.0,91.0
3237,76.0,59,68,6.0,82.0
3238,73.0,1,192,5.0,80.0
3239,73.0,1,188,7.0,80.0
3240,74.0,45,69,4.0,64.0
3241,74.0,10,60,6.0,68.0
3242,76.0,6,48,7.0,87.0
3243,76.0,3,54,5.0,82.0
3244,73.0,57,62,4.0,43.0
3245,73.0,2,63,6.0,47.0
3246,67.0,3,57,8.0,82.0
3247,74.0,1,48,6.0,63.0
3248,74.0,1,50,4.0,64.0
3249,66.0,43,53,8.0,66.0
3250,69.0,62,62,5.0,80.0
3251,76.0,6,54,4.0,87.0
3252,67.0,1,61,8.0,85.0
3253,76.0,2,66,6.0,82.0
3254,69.0,1,60,7.0,82.0
3255,74.0,1,68,4.0,68.0
3256,74.0,45,72,6.0,68.0
3257,73.0,5,41,5.0,70.0
3258,73.0,2,45,7.0,78.0
3259,73.0,61,57,6.0,53.0
3260,73.0,2,64,4.0,52.0
3261,69.0,3,68,8.0,78.0
3262,67.0,1,55,8.0,85.0
3263,71.0,42,69,6.0,55.0
3264,71.0,5,70,4.0,53.0
3265,66.0,3,48,8.0,82.0
3266,74.0,2,54,5.0,76.0
3267,74.0,2,57,7.0,66.0
3268,69.0,63,68,6.0,63.0
3269,69.0,2,63,4.0,70.0
3270,69.0,54,42,5.0,80.0
3271,69.0,1,41,7.0,80.0
3272,74.0,2,75,6.0,72.0
3273,74.0,0,77,4.0,78.0
3274,69.0,6,43,8.0,87.0
3275,66.0,4,51,7.0,74.0
3276,66.0,52,57,5.0,68.0
3277,73.0,0,69,6.0,63.0
3278,50.0,4,56,10.0,82.0
3279,73.0,2,76,4.0,64.0
3280,67.0,41,45,5.0,76.0
3281,67.0,3,43,7.0,70.0
3282,71.0,1,54,6.0,63.0
3283,52.0,3,52,10.0,80.0
3284,71.0,0,58,4.0,66.0
3285,69.0,0,51,5.0,80.0
3286,62.0,10,43,8.0,82.0
3287,69.0,4,57,7.0,63.0
3288,69.0,53,64,6.0,76.0
3289,69.0,1,62,4.0,76.0
3290,54.0,3,71,10.0,80.0
3291,71.0,0,43,5.0,72.0
3292,71.0,4,41,7.0,76.0
3293,67.0,39,60,6.0,53.0
3294,67.0,6,67,4.0,52.0
3295,66.0,0,48,6.0,57.0
3296,69.0,53,56,5.0,64.0
3297,69.0,8,52,7.0,57.0
3298,66.0,4,50,4.0,49.0
3299,54.0,1,51,10.0,66.0
3300,64.0,34,42,6.0,59.0
3301,71.0,4,45,5.0,68.0
3302,71.0,3,43,7.0,64.0
3303,64.0,1,44,4.0,63.0
3304,55.0,2,44,10.0,78.0
3305,72.0,60,61,5.0,85.0
3306,66.0,3,171,8.0,89.0
3307,72.0,5,59,7.0,87.0
3308,57.0,2,70,10.0,95.0
3309,62.0,1,78,6.0,55.0
3310,62.0,2,72,4.0,70.0
3311,69.0,46,40,5.0,80.0
3312,69.0,7,37,7.0,74.0
3313,54.0,7,52,10.0,64.0
3314,62.0,1,65,5.0,59.0
3315,62.0,54,66,7.0,68.0
3316,69.0,0,56,8.0,85.0
3317,64.0,33,44,7.0,72.0
3318,74.0,11,92,0.0,82.0
3319,64.0,4,48,5.0,70.0
3320,55.0,1,57,10.0,70.0
3321,74.0,6,100,6.0,62.0
3322,74.0,3,97,4.0,62.0
3323,66.0,55,63,7.0,78.0
3324,66.0,10,58,5.0,62.0
3325,60.0,8,48,8.0,82.0
3326,57.0,2,76,10.0,87.0
3327,67.0,29,47,7.0,68.0
3328,74.0,2,100,0.0,82.0
3329,74.0,5,93,6.0,64.0
3330,67.0,8,55,5.0,61.0
3331,74.0,1,93,4.0,60.0
3332,66.0,54,57,7.0,56.0
3333,66.0,8,51,5.0,70.0
3334,57.0,1,60,10.0,66.0
3335,67.0,6,44,5.0,74.0
3336,74.0,10,94,0.0,87.0
3337,67.0,32,54,7.0,63.0
3338,74.0,4,97,6.0,63.0
3339,74.0,3,101,4.0,60.0
3340,59.0,9,50,10.0,85.0
3341,66.0,4,159,8.0,85.0
3342,69.0,2,62,5.0,89.0
3343,60.0,3,68,10.0,85.0
3344,69.0,57,81,7.0,80.0
3345,74.0,5,88,4.0,63.0
3346,74.0,5,94,6.0,66.0
3347,74.0,0,96,0.0,93.0
3348,67.0,42,56,5.0,66.0
3349,67.0,8,65,7.0,72.0
3350,69.0,2,42,8.0,82.0
3351,50.0,0,36,3.0,113.0
3352,66.0,56,60,5.0,48.0
3353,66.0,1,63,7.0,55.0
3354,60.0,0,59,10.0,85.0
3355,81.0,4,83,2.0,98.0
3356,86.0,2,91,1.0,85.0
3357,74.0,3,91,6.0,61.0
3358,74.0,0,93,4.0,61.0
3359,59.0,1,46,10.0,80.0
3360,67.0,49,48,5.0,63.0
3361,78.0,0,101,0.0,87.0
3362,67.0,2,54,7.0,68.0
3363,50.0,0,36,3.0,107.0
3364,60.0,0,59,10.0,91.0
3365,62.0,0,58,8.0,76.0
3366,69.0,1,56,5.0,82.0
3367,69.0,3,65,7.0,93.0
3368,81.0,1,75,2.0,91.0
3369,86.0,3,89,1.0,85.0
3370,74.0,2,87,4.0,66.0
3371,74.0,58,97,6.0,60.0
3372,78.0,0,98,0.0,89.0
3373,67.0,49,62,5.0,68.0
3374,67.0,4,77,7.0,70.0
3375,50.0,3,36,3.0,110.0
3376,66.0,3,50,8.0,80.0
3377,66.0,0,56,5.0,57.0
3378,66.0,55,66,7.0,57.0
3379,62.0,0,62,10.0,85.0
3380,86.0,3,78,1.0,102.0
3381,81.0,3,75,0.0,102.0
3382,74.0,1,91,4.0,60.0
3383,78.0,1,88,2.0,89.0
3384,74.0,2,91,6.0,64.0
3385,64.0,3,43,7.0,64.0
3386,60.0,44,48,10.0,80.0
3387,64.0,1,48,5.0,56.0
3388,67.0,3,53,8.0,80.0
3389,62.0,2,59,5.0,60.0
3390,50.0,4,49,3.0,127.0
3391,59.0,3,63,10.0,98.0
3392,62.0,1,72,7.0,68.0
3393,74.0,1,78,4.0,66.0
3394,74.0,55,100,6.0,66.0
3395,71.0,35,51,8.0,80.0
3396,79.0,3,107,0.0,95.0
3397,74.0,4,140,2.0,110.0
3398,86.0,4,136,1.0,107.0
3399,68.0,1,46,8.0,82.0
3400,71.0,1,47,5.0,85.0
3401,71.0,0,45,7.0,87.0
3402,52.0,3,64,10.0,70.0
3403,76.0,61,98,6.0,70.0
3404,76.0,3,95,4.0,72.0
3405,54.0,52,45,10.0,64.0
3406,69.0,4,53,8.0,74.0
3407,64.0,0,39,5.0,80.0
3408,64.0,3,46,7.0,78.0
3409,56.0,1,67,10.0,95.0
3410,71.0,5,60,8.0,82.0
3411,76.0,56,100,6.0,66.0
3412,76.0,3,99,4.0,66.0
3413,73.0,53,42,8.0,66.0
3414,71.0,56,55,8.0,80.0
3415,56.0,2,53,10.0,70.0
3416,76.0,2,90,6.0,72.0
3417,76.0,1,85,4.0,68.0
3418,73.0,44,44,8.0,80.0
3419,57.0,4,44,10.0,80.0
3420,74.0,5,54,8.0,89.0
3421,68.0,7,174,5.0,74.0
3422,68.0,2,174,7.0,78.0
3423,59.0,1,72,10.0,98.0
3424,71.0,50,41,8.0,70.0
3425,76.0,1,95,4.0,68.0
3426,76.0,52,101,6.0,76.0
3427,56.0,12,48,10.0,66.0
3428,64.0,56,63,8.0,74.0
3429,71.0,0,50,7.0,85.0
3430,71.0,5,54,5.0,85.0
3431,57.0,2,45,10.0,72.0
3432,76.0,1,97,6.0,68.0
3433,76.0,0,98,4.0,63.0
3434,66.0,40,50,8.0,80.0
3435,76.0,3,96,0.0,72.0
3436,68.0,63,52,8.0,80.0
3437,62.0,4,45,7.0,78.0
3438,62.0,3,42,5.0,76.0
3439,59.0,2,64,10.0,80.0
3440,76.0,1,88,6.0,68.0
3441,76.0,5,88,4.0,66.0
3442,69.0,31,50,8.0,74.0
3443,76.0,6,99,0.0,85.0
3444,68.0,63,49,8.0,82.0
3445,59.0,6,65,10.0,68.0
3446,76.0,11,85,6.0,61.0
3447,76.0,3,78,0.0,91.0
3448,76.0,0,92,4.0,60.0
3449,69.0,37,48,8.0,70.0
3450,61.0,4,45,10.0,80.0
3451,71.0,0,64,8.0,100.0
3452,68.0,3,171,5.0,80.0
3453,68.0,2,187,7.0,74.0
3454,62.0,63,80,10.0,91.0
3455,76.0,0,89,6.0,68.0
3456,76.0,8,84,4.0,60.0
3457,69.0,46,49,8.0,78.0
3458,76.0,3,105,0.0,98.0
3459,68.0,59,54,8.0,70.0
3460,71.0,3,48,5.0,82.0
3461,50.0,1,42,3.0,107.0
3462,71.0,6,55,7.0,82.0
3463,62.0,0,63,10.0,82.0
3464,76.0,0,86,6.0,70.0
3465,74.0,3,82,2.0,105.0
3466,76.0,3,85,4.0,78.0
3467,61.0,37,50,10.0,78.0
3468,88.0,2,91,1.0,95.0
3469,80.0,0,97,0.0,91.0
3470,69.0,4,51,8.0,72.0
3471,50.0,1,41,3.0,107.0
3472,64.0,2,49,7.0,74.0
3473,64.0,0,54,5.0,70.0
3474,71.0,0,64,8.0,91.0
3475,62.0,61,82,10.0,85.0
3476,76.0,5,84,6.0,76.0
3477,76.0,1,86,4.0,68.0
3478,74.0,2,80,2.0,105.0
3479,88.0,4,85,1.0,100.0
3480,80.0,3,96,0.0,89.0
3481,69.0,42,54,8.0,76.0
3482,68.0,0,35,5.0,78.0
3483,68.0,0,35,7.0,78.0
3484,50.0,1,37,3.0,110.0
3485,68.0,62,62,8.0,76.0
3486,64.0,2,71,10.0,78.0
3487,76.0,0,77,6.0,78.0
3488,76.0,2,79,4.0,76.0
3489,83.0,6,82,0.0,89.0
3490,88.0,3,73,1.0,91.0
3491,74.0,6,78,2.0,105.0
3492,62.0,36,50,10.0,80.0
3493,66.0,4,51,8.0,70.0
3494,69.0,0,55,7.0,80.0
3495,69.0,1,55,5.0,78.0
3496,61.0,6,58,10.0,76.0
3497,76.0,1,68,4.0,80.0
3498,76.0,59,75,6.0,87.0
3499,45.0,6,64,3.0,122.0
3500,81.0,35,40,7.0,78.0
3501,81.0,3,43,5.0,85.0
3502,81.0,2,117,0.0,102.0
3503,81.0,4,138,2.0,107.0
3504,88.0,3,134,1.0,105.0
3505,69.0,61,51,6.0,57.0
3506,64.0,3,43,10.0,87.0
3507,69.0,1,54,4.0,76.0
3508,73.0,2,62,7.0,60.0
3509,73.0,2,63,5.0,64.0
3510,71.0,42,42,6.0,58.0
3511,71.0,4,40,4.0,78.0
3512,74.0,3,44,5.0,74.0
3513,74.0,1,47,7.0,74.0
3514,64.0,0,245,8.0,70.0
3515,57.0,3,49,10.0,85.0
3516,76.0,3,61,7.0,80.0
3517,73.0,56,67,6.0,87.0
3518,73.0,2,70,4.0,64.0
3519,76.0,5,65,5.0,80.0
3520,78.0,46,46,7.0,63.0
3521,78.0,5,44,5.0,62.0
3522,76.0,53,62,7.0,76.0
3523,73.0,4,55,6.0,57.0
3524,73.0,1,54,4.0,61.0
3525,76.0,3,74,5.0,66.0
3526,69.0,1,101,8.0,61.0
3527,78.0,46,46,5.0,60.0
3528,78.0,0,48,7.0,60.0
3529,74.0,11,38,6.0,72.0
3530,74.0,0,45,4.0,80.0
3531,79.0,1,58,5.0,85.0
3532,79.0,3,62,7.0,85.0
3533,61.0,4,182,10.0,82.0
3534,76.0,5,65,4.0,87.0
3535,76.0,0,69,6.0,82.0
3536,76.0,52,44,7.0,63.0
3537,69.0,53,105,8.0,68.0
3538,76.0,1,55,5.0,70.0
3539,73.0,1,47,4.0,59.0
3540,64.0,2,51,10.0,82.0
3541,73.0,0,55,6.0,53.0
3542,69.0,57,66,7.0,62.0
3543,69.0,7,62,5.0,57.0
3544,69.0,1,91,8.0,70.0
3545,74.0,3,41,6.0,68.0
3546,71.0,49,58,7.0,70.0
3547,71.0,6,53,5.0,68.0
3548,74.0,0,53,4.0,80.0
3549,76.0,2,51,4.0,80.0
3550,55.0,1,54,10.0,80.0
3551,73.0,53,63,7.0,64.0
3552,76.0,0,56,6.0,80.0
3553,73.0,1,62,5.0,64.0
3554,69.0,5,100,8.0,66.0
3555,74.0,47,59,7.0,68.0
3556,74.0,5,54,5.0,66.0
3557,73.0,2,57,5.0,64.0
3558,76.0,3,54,4.0,70.0
3559,76.0,0,55,6.0,64.0
3560,73.0,60,63,7.0,64.0
3561,69.0,3,90,8.0,68.0
3562,78.0,42,47,4.0,66.0
3563,74.0,1,47,5.0,70.0
3564,78.0,3,50,6.0,64.0
3565,74.0,0,51,7.0,72.0
3566,79.0,2,55,4.0,87.0
3567,76.0,0,60,5.0,91.0
3568,76.0,1,62,7.0,87.0
3569,79.0,2,62,6.0,85.0
3570,61.0,5,184,10.0,87.0
3571,69.0,62,89,8.0,76.0
3572,74.0,6,56,5.0,68.0
3573,74.0,52,64,7.0,70.0
3574,79.0,1,55,4.0,76.0
3575,79.0,3,58,6.0,76.0
3576,64.0,2,56,10.0,93.0
3577,73.0,3,66,7.0,56.0
3578,73.0,0,62,5.0,60.0
3579,69.0,56,82,8.0,85.0
3580,78.0,44,50,4.0,63.0
3581,74.0,5,46,7.0,72.0
3582,78.0,2,52,6.0,60.0
3583,74.0,3,44,5.0,66.0
3584,76.0,0,67,5.0,85.0
3585,76.0,1,67,7.0,85.0
3586,57.0,4,63,10.0,80.0
3587,69.0,51,83,8.0,74.0
3588,79.0,9,79,6.0,82.0
3589,79.0,0,79,4.0,78.0
3590,74.0,48,55,7.0,78.0
3591,74.0,5,58,5.0,70.0
3592,73.0,4,51,7.0,78.0
3593,81.0,4,50,6.0,66.0
3594,61.0,4,49,10.0,85.0
3595,73.0,0,55,5.0,56.0
3596,81.0,8,54,4.0,80.0
3597,69.0,54,84,8.0,82.0
3598,79.0,6,48,6.0,78.0
3599,71.0,37,56,7.0,78.0
3600,71.0,3,53,5.0,68.0
3601,79.0,7,49,4.0,66.0
3602,69.0,3,64,7.0,76.0
3603,69.0,0,58,5.0,80.0
3604,50.0,3,59,10.0,98.0
3605,78.0,3,75,6.0,82.0
3606,69.0,53,84,8.0,91.0
3607,78.0,4,74,4.0,63.0
3608,78.0,3,36,4.0,68.0
3609,78.0,2,47,6.0,60.0
3610,66.0,1,49,7.0,76.0
3611,62.0,115,56,8.0,76.0
3612,62.0,3,54,10.0,89.0
3613,66.0,2,57,5.0,68.0
3614,76.0,41,43,6.0,63.0
3615,76.0,6,42,4.0,78.0
3616,64.0,4,48,8.0,80.0
3617,62.0,2,52,8.0,91.0
3618,55.0,3,54,10.0,87.0
3619,78.0,54,83,6.0,80.0
3620,78.0,8,89,4.0,80.0
3621,61.0,41,43,8.0,72.0
3622,79.0,1,38,6.0,72.0
3623,59.0,63,49,8.0,63.0
3624,79.0,11,37,4.0,72.0
3625,59.0,10,61,10.0,87.0
3626,62.0,34,42,8.0,72.0
3627,78.0,5,40,6.0,68.0
3628,78.0,11,41,4.0,82.0
3629,71.0,1,275,7.0,87.0
3630,71.0,2,277,5.0,78.0
3631,61.0,0,67,8.0,89.0
3632,49.0,1,60,10.0,95.0
3633,76.0,51,82,6.0,66.0
3634,76.0,10,83,4.0,66.0
3635,62.0,47,50,8.0,72.0
3636,61.0,60,51,8.0,82.0
3637,76.0,5,48,6.0,62.0
3638,76.0,3,41,4.0,66.0
3639,61.0,5,64,10.0,76.0
3640,70.0,5,56,5.0,63.0
3641,70.0,1,54,7.0,74.0
3642,74.0,3,44,6.0,70.0
3643,74.0,4,42,4.0,76.0
3644,59.0,37,58,8.0,72.0
3645,71.0,2,53,7.0,72.0
3646,71.0,3,56,5.0,78.0
3647,58.0,52,55,8.0,76.0
3648,73.0,1,55,5.0,62.0
3649,73.0,2,56,7.0,66.0
3650,54.0,0,61,10.0,82.0
3651,76.0,4,79,6.0,80.0
3652,76.0,6,94,4.0,85.0
3653,71.0,3,59,5.0,68.0
3654,71.0,53,62,7.0,72.0
3655,61.0,52,50,8.0,80.0
3656,78.0,1,42,4.0,64.0
3657,78.0,3,51,6.0,66.0
3658,70.0,1,56,7.0,66.0
3659,58.0,3,56,10.0,78.0
3660,70.0,0,65,5.0,59.0
3661,76.0,2,38,4.0,59.0
3662,68.0,0,38,7.0,61.0
3663,76.0,49,43,6.0,68.0
3664,68.0,4,39,5.0,63.0
3665,62.0,1,57,8.0,82.0
3666,66.0,0,66,5.0,61.0
3667,66.0,1,67,7.0,60.0
3668,74.0,1,69,6.0,85.0
3669,47.0,3,67,10.0,85.0
3670,74.0,59,79,4.0,80.0
3671,78.0,1,43,5.0,76.0
3672,78.0,54,58,7.0,70.0
3673,74.0,0,35,0.0,87.0
3674,66.0,57,49,8.0,85.0
3675,74.0,8,56,6.0,91.0
3676,59.0,2,65,10.0,87.0
3677,74.0,1,54,4.0,82.0
3678,71.0,2,58,5.0,74.0
3679,71.0,0,73,7.0,78.0
3680,76.0,38,45,6.0,85.0
3681,76.0,5,43,4.0,78.0
3682,76.0,1,47,0.0,91.0
3683,73.0,9,42,7.0,58.0
3684,74.0,6,96,1.0,87.0
3685,73.0,0,56,5.0,66.0
3686,59.0,3,44,8.0,89.0
3687,74.0,4,50,7.0,80.0
3688,57.0,1,62,10.0,80.0
3689,78.0,2,68,4.0,93.0
3690,78.0,50,71,6.0,100.0
3691,74.0,1,62,5.0,72.0
3692,78.0,1,72,0.0,93.0
3693,74.0,3,91,1.0,93.0
3694,76.0,44,47,7.0,62.0
3695,76.0,15,45,5.0,66.0
3696,78.0,1,47,6.0,70.0
3697,78.0,0,43,0.0,82.0
3698,74.0,46,59,7.0,63.0
3699,78.0,6,49,4.0,66.0
3700,74.0,2,55,5.0,74.0
3701,55.0,3,87,10.0,70.0
3702,79.0,42,40,6.0,82.0
3703,74.0,1,88,1.0,91.0
3704,79.0,0,42,0.0,85.0
3705,79.0,0,42,4.0,70.0
3706,76.0,6,48,5.0,68.0
3707,76.0,2,58,7.0,68.0
3708,78.0,0,55,5.0,68.0
3709,78.0,2,62,7.0,63.0
3710,62.0,1,187,8.0,89.0
3711,81.0,1,67,4.0,87.0
3712,81.0,53,77,6.0,100.0
3713,54.0,0,77,10.0,58.0
3714,81.0,6,86,0.0,91.0
3715,74.0,7,90,1.0,102.0
3716,81.0,51,45,5.0,78.0
3717,81.0,3,48,7.0,82.0
3718,78.0,51,49,6.0,66.0
3719,78.0,2,41,0.0,85.0
3720,78.0,0,49,4.0,64.0
3721,74.0,1,56,5.0,78.0
3722,74.0,3,56,7.0,70.0
3723,59.0,2,65,10.0,100.0
3724,74.0,2,83,8.0,80.0
3725,74.0,2,88,1.0,85.0
3726,74.0,2,88,2.0,105.0
3727,76.0,42,46,5.0,64.0
3728,79.0,3,43,6.0,85.0
3729,79.0,0,43,0.0,89.0
3730,76.0,3,47,7.0,64.0
3731,79.0,5,47,4.0,72.0
3732,78.0,3,56,5.0,87.0
3733,78.0,2,52,7.0,82.0
3734,81.0,2,62,4.0,85.0
3735,57.0,0,64,10.0,68.0
3736,81.0,1,74,0.0,85.0
3737,81.0,2,76,6.0,91.0
3738,74.0,0,77,2.0,102.0
3739,74.0,4,87,1.0,91.0
3740,74.0,50,106,8.0,78.0
3741,79.0,5,47,7.0,72.0
3742,79.0,42,57,5.0,72.0
3743,78.0,60,43,7.0,87.0
3744,81.0,0,39,0.0,70.0
3745,78.0,2,49,5.0,89.0
3746,81.0,3,54,6.0,76.0
3747,81.0,3,58,4.0,76.0
3748,55.0,2,64,10.0,85.0
3749,74.0,0,69,2.0,100.0
3750,74.0,0,86,1.0,93.0
3751,83.0,3,35,0.0,87.0
3752,79.0,43,46,5.0,82.0
3753,79.0,1,46,7.0,80.0
3754,74.0,2,97,8.0,76.0
3755,83.0,5,45,6.0,82.0
3756,83.0,2,45,4.0,89.0
3757,81.0,53,61,5.0,85.0
3758,81.0,4,64,7.0,98.0
3759,84.0,1,63,6.0,89.0
3760,84.0,0,65,4.0,100.0
3761,54.0,1,73,10.0,87.0
3762,74.0,3,74,2.0,107.0
3763,74.0,4,85,8.0,85.0
3764,84.0,0,85,0.0,102.0
3765,74.0,5,82,1.0,102.0
3766,79.0,3,55,7.0,76.0
3767,79.0,37,60,5.0,72.0
3768,84.0,2,32,0.0,98.0
3769,90.0,3,36,1.0,89.0
3770,78.0,63,55,5.0,82.0
3771,78.0,0,58,7.0,51.0
3772,84.0,3,50,4.0,82.0
3773,50.0,8,43,3.0,110.0
3774,84.0,1,55,6.0,78.0
3775,57.0,1,68,10.0,80.0
3776,74.0,2,79,8.0,85.0
3777,91.0,34,41,1.0,91.0
3778,74.0,0,84,2.0,107.0
3779,83.0,2,35,0.0,93.0
3780,83.0,4,42,6.0,64.0
3781,79.0,1,48,5.0,72.0
3782,79.0,0,48,7.0,70.0
3783,83.0,2,53,4.0,80.0
3784,50.0,0,62,10.0,82.0
3785,84.0,1,61,6.0,95.0
3786,81.0,1,64,5.0,89.0
3787,50.0,13,50,3.0,110.0
3788,81.0,2,65,7.0,98.0
3789,84.0,0,69,4.0,89.0
3790,74.0,54,88,8.0,78.0
3791,93.0,4,87,1.0,91.0
3792,84.0,2,85,0.0,100.0
3793,78.0,0,90,2.0,89.0
3794,79.0,36,50,5.0,76.0
3795,79.0,4,60,7.0,76.0
3796,86.0,1,31,0.0,89.0
3797,95.0,3,32,1.0,91.0
3798,78.0,5,48,5.0,74.0
3799,50.0,2,32,3.0,113.0
3800,54.0,49,64,10.0,76.0
3801,78.0,2,59,7.0,78.0
3802,86.0,1,65,6.0,85.0
3803,86.0,4,68,4.0,80.0
3804,84.0,8,29,0.0,107.0
3805,74.0,3,81,2.0,93.0
3806,93.0,2,29,1.0,98.0
3807,69.0,5,96,8.0,68.0
3808,84.0,7,37,6.0,76.0
3809,84.0,1,39,4.0,66.0
3810,76.0,35,62,5.0,76.0
3811,76.0,0,64,7.0,66.0
3812,83.0,1,51,6.0,91.0
3813,43.0,1,57,10.0,95.0
3814,74.0,51,64,5.0,72.0
3815,74.0,3,56,7.0,82.0
3816,83.0,5,50,4.0,89.0
3817,50.0,3,55,3.0,119.0
3818,79.0,43,40,6.0,66.0
3819,79.0,7,46,4.0,61.0
3820,71.0,1,113,8.0,80.0
3821,86.0,0,130,2.0,105.0
3822,83.0,0,137,0.0,107.0
3823,91.0,4,139,1.0,100.0
3824,71.0,55,48,5.0,76.0
3825,71.0,2,42,7.0,82.0
3826,55.0,0,66,10.0,87.0
3827,76.0,1,69,6.0,59.0
3828,76.0,8,61,4.0,60.0
3829,78.0,43,52,6.0,53.0
3830,78.0,9,44,4.0,64.0
3831,71.0,1,108,8.0,80.0
3832,79.0,51,60,6.0,59.0
3833,79.0,0,54,4.0,85.0
3834,49.0,10,72,10.0,74.0
3835,81.0,8,34,4.0,70.0
3836,81.0,40,46,6.0,62.0
3837,71.0,6,92,8.0,70.0
3838,78.0,48,43,6.0,54.0
3839,78.0,4,48,4.0,62.0
3840,91.0,6,45,1.0,95.0
3841,83.0,1,48,0.0,95.0
3842,52.0,6,59,10.0,85.0
3843,88.0,4,53,2.0,102.0
3844,79.0,35,45,6.0,70.0
3845,79.0,2,44,4.0,74.0
3846,71.0,1,93,8.0,66.0
3847,81.0,1,40,4.0,85.0
3848,81.0,61,53,6.0,80.0
3849,76.0,6,279,7.0,87.0
3850,76.0,1,291,5.0,87.0
3851,42.0,6,84,10.0,68.0
3852,69.0,2,83,8.0,72.0
3853,45.0,4,67,3.0,119.0
3854,78.0,25,43,6.0,53.0
3855,78.0,12,40,4.0,66.0
3856,81.0,4,137,0.0,87.0
3857,88.0,3,136,2.0,102.0
3858,69.0,0,44,7.0,78.0
3859,69.0,2,41,5.0,80.0
3860,74.0,53,51,6.0,70.0
3861,74.0,5,51,4.0,70.0
3862,90.0,7,174,1.0,85.0
3863,54.0,0,69,10.0,80.0
3864,69.0,2,99,8.0,70.0
3865,76.0,51,46,6.0,66.0
3866,76.0,4,44,4.0,63.0
3867,78.0,5,63,6.0,82.0
3868,47.0,0,65,10.0,87.0
3869,78.0,2,63,4.0,80.0
3870,69.0,58,85,8.0,70.0
3871,79.0,48,40,6.0,70.0
3872,79.0,4,37,4.0,74.0
3873,76.0,4,50,4.0,63.0
3874,76.0,3,54,6.0,64.0
3875,90.0,4,46,1.0,80.0
3876,50.0,0,60,10.0,87.0
3877,81.0,6,55,0.0,87.0
3878,86.0,15,42,2.0,95.0
3879,69.0,53,100,8.0,66.0
3880,78.0,26,45,6.0,62.0
3881,78.0,7,46,4.0,78.0
3882,74.0,2,280,7.0,87.0
3883,79.0,3,39,0.0,85.0
3884,79.0,0,50,4.0,100.0
3885,79.0,3,57,6.0,87.0
3886,74.0,4,291,5.0,87.0
3887,40.0,4,63,10.0,82.0
3888,86.0,5,60,2.0,91.0
3889,67.0,57,99,8.0,70.0
3890,78.0,2,36,0.0,85.0
3891,88.0,6,95,1.0,85.0
3892,78.0,35,53,6.0,66.0
3893,78.0,9,51,4.0,58.0
3894,76.0,53,37,6.0,60.0
3895,76.0,2,45,4.0,63.0
3896,76.0,3,48,0.0,80.0
3897,45.0,1,60,10.0,85.0
3898,45.0,6,42,3.0,110.0
3899,73.0,0,63,7.0,68.0
3900,81.0,9,57,2.0,85.0
3901,93.0,1,58,1.0,85.0
3902,73.0,1,61,5.0,64.0
3903,69.0,0,93,8.0,74.0
3904,79.0,8,34,0.0,82.0
3905,79.0,34,43,4.0,76.0
3906,79.0,1,45,6.0,72.0
3907,78.0,7,41,0.0,87.0
3908,78.0,51,55,4.0,91.0
3909,50.0,0,60,10.0,91.0
3910,50.0,2,45,3.0,116.0
3911,74.0,1,49,7.0,87.0
3912,74.0,0,58,5.0,89.0
3913,93.0,3,65,1.0,87.0
3914,78.0,2,70,6.0,89.0
3915,69.0,1,83,8.0,70.0
3916,81.0,6,63,2.0,100.0
3917,76.0,1,34,0.0,82.0
3918,76.0,32,46,4.0,68.0
3919,73.0,1,43,7.0,89.0
3920,73.0,1,48,5.0,63.0
3921,76.0,8,51,6.0,62.0
3922,74.0,0,36,0.0,91.0
3923,71.0,2,50,7.0,78.0
3924,38.0,5,47,10.0,91.0
3925,74.0,48,59,4.0,63.0
3926,74.0,1,49,6.0,57.0
3927,71.0,2,59,5.0,85.0
3928,50.0,11,44,3.0,113.0
3929,93.0,5,55,1.0,91.0
3930,81.0,4,54,2.0,100.0
3931,78.0,24,37,4.0,64.0
3932,78.0,3,31,0.0,87.0
3933,69.0,2,106,8.0,60.0
3934,78.0,4,42,6.0,58.0
3935,74.0,8,46,7.0,80.0
3936,74.0,3,53,5.0,82.0
3937,73.0,5,52,7.0,82.0
3938,76.0,50,61,4.0,82.0
3939,73.0,0,51,5.0,74.0
3940,76.0,3,58,6.0,87.0
3941,45.0,1,77,10.0,89.0
3942,45.0,8,59,3.0,122.0
3943,81.0,34,47,4.0,80.0
3944,69.0,1,103,8.0,74.0
3945,81.0,12,48,6.0,85.0
3946,76.0,1,131,0.0,113.0
3947,93.0,5,147,1.0,100.0
3948,76.0,51,38,7.0,87.0
3949,81.0,3,136,2.0,110.0
3950,76.0,0,40,5.0,85.0
3951,73.0,0,44,4.0,63.0
3952,73.0,1,48,6.0,57.0
3953,45.0,4,54,10.0,85.0
3954,69.0,8,88,8.0,66.0
3955,47.0,47,49,10.0,74.0
3956,74.0,3,49,6.0,66.0
3957,74.0,4,56,4.0,66.0
3958,69.0,0,41,5.0,80.0
3959,69.0,2,46,7.0,80.0
3960,76.0,4,52,4.0,66.0
3961,76.0,0,64,6.0,76.0
3962,49.0,50,78,10.0,100.0
3963,69.0,5,92,8.0,66.0
3964,78.0,50,40,4.0,50.0
3965,78.0,6,44,6.0,63.0
3966,76.0,50,65,4.0,76.0
3967,49.0,1,53,10.0,76.0
3968,76.0,7,68,6.0,66.0
3969,69.0,6,86,8.0,64.0
3970,78.0,1,47,6.0,58.0
3971,78.0,43,49,4.0,62.0
3972,50.0,3,47,10.0,82.0
3973,79.0,0,60,6.0,87.0
3974,73.0,5,177,5.0,74.0
3975,79.0,5,61,4.0,87.0
3976,52.0,9,79,10.0,95.0
3977,73.0,1,198,7.0,80.0
3978,69.0,54,110,8.0,70.0
3979,76.0,51,47,6.0,63.0
3980,76.0,4,47,4.0,70.0
3981,49.0,7,50,10.0,74.0
3982,76.0,1,46,7.0,82.0
3983,76.0,3,48,5.0,85.0
3984,69.0,1,57,4.0,52.0
3985,69.0,2,69,6.0,60.0
3986,69.0,56,92,8.0,57.0
3987,69.0,1,95,0.0,70.0
3988,71.0,43,48,6.0,64.0
3989,71.0,7,50,4.0,57.0
3990,50.0,2,48,10.0,87.0
3991,67.0,3,45,5.0,80.0
3992,67.0,0,47,7.0,76.0
3993,73.0,0,54,4.0,70.0
3994,73.0,4,64,6.0,61.0
3995,52.0,6,80,10.0,85.0
3996,69.0,52,98,8.0,61.0
3997,69.0,1,88,0.0,78.0
3998,74.0,44,44,6.0,68.0
3999,74.0,10,40,4.0,66.0
4000,73.0,54,57,6.0,82.0
4001,73.0,2,52,4.0,56.0
4002,52.0,1,52,10.0,82.0
4003,69.0,1,81,0.0,60.0
4004,69.0,6,89,8.0,68.0
4005,74.0,37,48,6.0,68.0
4006,54.0,4,45,10.0,95.0
4007,74.0,2,52,4.0,68.0
4008,76.0,5,64,6.0,85.0
4009,73.0,3,174,5.0,80.0
4010,76.0,4,62,4.0,85.0
4011,55.0,56,83,10.0,89.0
4012,69.0,2,98,8.0,76.0
4013,73.0,6,208,7.0,82.0
4014,74.0,44,53,6.0,68.0
4015,69.0,3,101,0.0,80.0
4016,74.0,13,49,4.0,72.0
4017,73.0,42,48,6.0,64.0
4018,76.0,0,40,5.0,95.0
4019,73.0,2,53,4.0,60.0
4020,45.0,4,39,3.0,113.0
4021,76.0,3,44,7.0,85.0
4022,55.0,2,55,10.0,82.0
4023,69.0,10,89,8.0,72.0
4024,81.0,2,84,2.0,102.0
4025,76.0,4,83,0.0,89.0
4026,81.0,0,77,1.0,85.0
4027,74.0,32,47,6.0,70.0
4028,54.0,8,45,10.0,95.0
4029,74.0,5,47,4.0,66.0
4030,45.0,1,38,3.0,113.0
4031,76.0,57,57,6.0,70.0
4032,69.0,2,58,5.0,80.0
4033,69.0,2,58,7.0,80.0
4034,76.0,2,62,4.0,80.0
4035,55.0,0,82,10.0,85.0
4036,81.0,2,72,2.0,105.0
4037,69.0,4,90,8.0,80.0
4038,81.0,2,83,1.0,70.0
4039,76.0,0,91,0.0,89.0
4040,79.0,43,54,6.0,87.0
4041,79.0,11,64,4.0,80.0
4042,45.0,1,40,3.0,116.0
4043,78.0,48,54,6.0,74.0
4044,73.0,1,52,5.0,78.0
4045,78.0,0,56,4.0,82.0
4046,73.0,1,55,7.0,80.0
4047,57.0,0,61,10.0,89.0
4048,81.0,1,65,0.0,91.0
4049,88.0,1,76,1.0,85.0
4050,69.0,10,84,8.0,72.0
4051,81.0,6,76,2.0,113.0
4052,55.0,4,38,10.0,82.0
4053,76.0,38,53,6.0,62.0
4054,76.0,8,60,4.0,78.0
4055,74.0,1,42,5.0,89.0
4056,74.0,1,46,7.0,89.0
4057,81.0,3,66,6.0,89.0
4058,81.0,3,58,4.0,82.0
4059,69.0,49,77,8.0,82.0
4060,54.0,1,77,10.0,80.0
4061,50.0,1,60,3.0,122.0
4062,90.0,4,92,1.0,87.0
4063,79.0,38,63,6.0,70.0
4064,79.0,11,56,4.0,68.0
4065,74.0,5,116,2.0,107.0
4066,81.0,5,144,0.0,98.0
4067,54.0,8,43,10.0,95.0
4068,69.0,1,42,7.0,70.0
4069,93.0,2,36,1.0,91.0
4070,69.0,2,43,5.0,82.0
4071,78.0,1,44,4.0,80.0
4072,78.0,1,48,6.0,93.0
4073,62.0,49,81,8.0,78.0
4074,91.0,8,36,1.0,87.0
4075,52.0,43,46,10.0,85.0
4076,79.0,4,41,6.0,70.0
4077,79.0,2,51,4.0,80.0
4078,81.0,2,46,6.0,87.0
4079,81.0,0,45,4.0,85.0
4080,66.0,2,60,8.0,78.0
4081,90.0,53,71,1.0,89.0
4082,54.0,1,82,10.0,91.0
4083,78.0,45,56,6.0,66.0
4084,78.0,8,60,4.0,66.0
4085,83.0,3,31,0.0,91.0
4086,86.0,3,56,1.0,91.0
4087,55.0,1,55,10.0,85.0
4088,74.0,56,67,6.0,72.0
4089,71.0,4,64,8.0,85.0
4090,74.0,1,72,4.0,74.0
4091,81.0,0,39,0.0,89.0
4092,78.0,44,44,6.0,63.0
4093,78.0,2,44,4.0,64.0
4094,54.0,3,52,10.0,93.0
4095,74.0,2,282,7.0,89.0
4096,79.0,61,55,6.0,82.0
4097,74.0,4,299,5.0,87.0
4098,79.0,0,67,4.0,87.0
4099,52.0,2,69,10.0,87.0
4100,88.0,0,91,1.0,98.0
4101,78.0,47,45,6.0,80.0
4102,71.0,0,103,8.0,85.0
4103,78.0,6,54,4.0,64.0
4104,79.0,4,138,0.0,98.0
4105,91.0,3,35,1.0,89.0
4106,67.0,6,55,7.0,82.0
4107,52.0,2,47,10.0,85.0
4108,73.0,2,46,8.0,82.0
4109,76.0,53,66,6.0,63.0
4110,73.0,2,56,5.0,68.0
4111,76.0,2,69,4.0,72.0
4112,90.0,3,32,1.0,100.0
4113,74.0,2,44,8.0,70.0
4114,78.0,38,51,6.0,60.0
4115,78.0,3,41,4.0,64.0
4116,50.0,5,50,10.0,68.0
4117,79.0,2,44,6.0,74.0
4118,76.0,0,49,5.0,87.0
4119,79.0,2,50,4.0,85.0
4120,64.0,56,57,7.0,72.0
4121,88.0,1,51,1.0,100.0
4122,73.0,1,68,8.0,89.0
4123,52.0,1,70,10.0,89.0
4124,83.0,5,41,4.0,78.0
4125,83.0,54,56,6.0,85.0
4126,81.0,0,34,0.0,85.0
4127,81.0,52,51,6.0,63.0
4128,73.0,0,47,5.0,63.0
4129,73.0,3,53,7.0,66.0
4130,81.0,1,49,4.0,76.0
4131,45.0,2,46,3.0,105.0
4132,81.0,0,55,1.0,89.0
4133,88.0,3,57,2.0,98.0
4134,69.0,1,69,8.0,82.0
4135,54.0,4,63,10.0,89.0
4136,79.0,5,32,6.0,66.0
4137,79.0,44,42,0.0,89.0
4138,79.0,7,30,4.0,85.0
4139,52.0,4,47,10.0,82.0
4140,78.0,48,59,0.0,95.0
4141,50.0,0,53,3.0,107.0
4142,78.0,0,54,6.0,78.0
4143,78.0,0,51,4.0,68.0
4144,74.0,0,59,5.0,89.0
4145,74.0,4,61,7.0,85.0
4146,50.0,3,64,10.0,89.0
4147,90.0,0,76,2.0,95.0
4148,81.0,1,92,1.0,100.0
4149,69.0,2,104,8.0,82.0
4150,52.0,52,48,10.0,78.0
4151,69.0,0,50,7.0,85.0
4152,81.0,0,48,0.0,85.0
4153,86.0,1,52,1.0,93.0
4154,69.0,1,54,5.0,80.0
4155,54.0,59,61,10.0,85.0
4156,74.0,3,53,6.0,85.0
4157,74.0,5,55,4.0,80.0
4158,69.0,4,76,8.0,74.0
4159,50.0,45,41,10.0,76.0
4160,62.0,63,49,7.0,70.0
4161,83.0,0,48,0.0,87.0
4162,50.0,0,44,3.0,110.0
4163,62.0,3,49,5.0,78.0
4164,86.0,0,54,1.0,87.0
4165,55.0,3,55,10.0,93.0
4166,71.0,2,55,6.0,85.0
4167,71.0,3,57,4.0,78.0
4168,67.0,0,71,8.0,66.0
4169,91.0,3,75,2.0,102.0
4170,57.0,44,43,10.0,82.0
4171,54.0,56,46,10.0,76.0
4172,67.0,1,44,7.0,82.0
4173,79.0,4,48,0.0,87.0
4174,88.0,10,54,1.0,91.0
4175,76.0,8,47,4.0,80.0
4176,67.0,0,55,5.0,78.0
4177,71.0,1,64,8.0,78.0
4178,76.0,1,64,6.0,80.0
4179,55.0,36,46,10.0,82.0
4180,64.0,68,47,7.0,78.0
4181,85.0,1,44,0.0,85.0
4182,73.0,2,54,6.0,100.0
4183,45.0,2,57,3.0,113.0
4184,81.0,4,63,1.0,87.0
4185,73.0,1,56,4.0,74.0
4186,57.0,4,72,10.0,100.0
4187,69.0,0,96,8.0,85.0
4188,88.0,1,101,2.0,105.0
4189,61.0,46,48,7.0,89.0
4190,69.0,2,58,6.0,82.0
4191,69.0,4,64,4.0,74.0
4192,81.0,1,46,0.0,80.0
4193,62.0,1,50,7.0,63.0
4194,88.0,0,59,1.0,87.0
4195,71.0,51,68,6.0,66.0
4196,55.0,5,65,10.0,80.0
4197,71.0,2,64,4.0,72.0
4198,64.0,1,82,8.0,76.0
4199,64.0,52,40,7.0,76.0
4200,73.0,2,41,4.0,58.0
4201,73.0,3,47,6.0,64.0
4202,64.0,4,244,5.0,91.0
4203,90.0,0,35,1.0,87.0
4204,45.0,0,39,3.0,110.0
4205,57.0,3,37,7.0,89.0
4206,86.0,1,46,0.0,89.0
4207,74.0,58,59,6.0,82.0
4208,74.0,2,58,4.0,76.0
4209,54.0,0,58,10.0,78.0
4210,81.0,1,61,2.0,100.0
4211,69.0,2,71,8.0,85.0
4212,88.0,44,40,1.0,87.0
4213,76.0,1,50,6.0,80.0
4214,76.0,6,54,4.0,78.0
4215,90.0,54,39,1.0,98.0
4216,73.0,1,45,7.0,62.0
4217,78.0,3,40,6.0,85.0
4218,52.0,1,53,10.0,76.0
4219,45.0,1,42,3.0,105.0
4220,79.0,2,48,0.0,87.0
4221,78.0,2,58,4.0,58.0
4222,81.0,1,53,2.0,105.0
4223,73.0,4,59,5.0,78.0
4224,69.0,0,71,8.0,85.0
4225,91.0,41,36,1.0,95.0
4226,79.0,6,43,6.0,80.0
4227,79.0,0,45,4.0,68.0
4228,78.0,2,54,6.0,93.0
4229,78.0,2,61,4.0,82.0
4230,50.0,2,52,3.0,119.0
4231,74.0,58,66,7.0,78.0
4232,50.0,1,63,10.0,85.0
4233,74.0,3,54,5.0,87.0
4234,69.0,4,66,8.0,91.0
4235,76.0,45,50,6.0,82.0
4236,76.0,1,53,4.0,76.0
4237,67.0,1,66,8.0,80.0
4238,81.0,0,123,2.0,116.0
4239,78.0,1,127,0.0,93.0
4240,93.0,1,142,1.0,98.0
4241,71.0,0,52,7.0,78.0
4242,74.0,58,53,4.0,57.0
4243,74.0,0,58,6.0,72.0
4244,55.0,3,63,10.0,87.0
4245,71.0,7,60,5.0,80.0
4246,66.0,0,67,8.0,82.0
4247,76.0,1,32,6.0,70.0
4248,76.0,1,32,4.0,70.0
4249,67.0,50,54,8.0,76.0
4250,69.0,58,46,7.0,80.0
4251,57.0,0,48,10.0,95.0
4252,69.0,0,50,5.0,82.0
4253,69.0,0,55,6.0,80.0
4254,69.0,3,54,4.0,72.0
4255,45.0,2,49,3.0,110.0
4256,64.0,5,65,8.0,80.0
4257,66.0,43,49,8.0,80.0
4258,81.0,2,125,2.0,116.0
4259,76.0,3,128,0.0,102.0
4260,91.0,1,127,1.0,95.0
4261,67.0,59,47,8.0,85.0
4262,69.0,2,44,7.0,80.0
4263,73.0,6,53,6.0,80.0
4264,45.0,5,55,10.0,91.0
4265,69.0,5,52,5.0,85.0
4266,73.0,2,52,4.0,64.0
4267,64.0,36,45,8.0,85.0
4268,74.0,72,57,6.0,85.0
4269,74.0,0,65,4.0,82.0
4270,50.0,7,71,3.0,127.0
4271,69.0,38,65,6.0,72.0
4272,69.0,4,126,5.0,80.0
4273,74.0,3,139,0.0,100.0
4274,81.0,0,141,2.0,119.0
4275,90.0,3,143,1.0,100.0
4276,66.0,52,65,6.0,63.0
4277,69.0,65,42,6.0,68.0
4278,69.0,3,220,7.0,85.0
4279,66.0,3,240,8.0,91.0
4280,50.0,0,249,10.0,105.0
4281,62.0,65,64,6.0,82.0
4282,66.0,51,47,6.0,62.0
4283,49.0,6,54,10.0,64.0
4284,64.0,7,56,8.0,68.0
4285,64.0,58,71,6.0,80.0
4286,69.0,6,53,7.0,60.0
4287,67.0,35,38,6.0,70.0
4288,50.0,8,59,10.0,82.0
4289,66.0,66,67,6.0,91.0
4290,62.0,5,54,8.0,66.0
4291,69.0,5,77,7.0,66.0
4292,69.0,34,59,6.0,66.0
4293,74.0,0,55,6.0,68.0
4294,47.0,3,57,10.0,72.0
4295,66.0,10,54,8.0,68.0
4296,71.0,68,72,7.0,68.0
4297,66.0,39,39,6.0,61.0
4298,64.0,54,68,6.0,82.0
4299,43.0,10,47,10.0,68.0
4300,67.0,4,56,8.0,68.0
4301,71.0,12,72,7.0,64.0
4302,74.0,35,44,6.0,80.0
4303,45.0,13,43,10.0,74.0
4304,64.0,64,58,6.0,80.0
4305,69.0,2,54,7.0,80.0
4306,67.0,7,49,8.0,80.0
4307,73.0,35,51,6.0,68.0
4308,74.0,67,52,6.0,95.0
4309,69.0,33,67,6.0,82.0
4310,74.0,63,54,6.0,72.0
4311,76.0,61,33,6.0,66.0
4312,69.0,2,229,7.0,78.0
4313,38.0,2,244,10.0,76.0
4314,66.0,17,250,8.0,68.0
4315,78.0,66,58,6.0,100.0
4316,81.0,56,37,6.0,80.0
4317,50.0,3,54,10.0,64.0
4318,71.0,2,56,7.0,74.0
4319,64.0,5,53,8.0,66.0
4320,80.0,57,63,6.0,91.0
4321,83.0,45,31,6.0,80.0
4322,49.0,69,57,10.0,57.0
4323,81.0,1,62,6.0,98.0
4324,73.0,0,64,7.0,76.0
4325,64.0,5,59,8.0,72.0
4326,76.0,46,64,6.0,74.0
4327,73.0,59,59,6.0,74.0
4328,66.0,4,43,8.0,66.0
4329,54.0,5,55,10.0,72.0
4330,69.0,8,63,7.0,74.0
4331,81.0,44,38,6.0,80.0
4332,71.0,56,58,6.0,82.0
4333,50.0,3,50,10.0,72.0
4334,66.0,5,51,8.0,68.0
4335,78.0,11,60,7.0,70.0
4336,81.0,35,43,6.0,80.0
4337,52.0,8,44,10.0,66.0
4338,71.0,63,57,6.0,78.0
4339,71.0,0,48,8.0,68.0
4340,76.0,5,54,7.0,78.0
4341,80.0,41,43,6.0,76.0
4342,81.0,67,57,6.0,87.0
4343,45.0,11,82,10.0,74.0
4344,76.0,38,46,6.0,64.0
4345,73.0,61,70,6.0,64.0
4346,57.0,8,73,10.0,60.0
4347,74.0,57,52,6.0,78.0
4348,76.0,1,245,7.0,82.0
4349,73.0,4,250,8.0,72.0
4350,76.0,1,66,6.0,82.0
4351,57.0,64,75,10.0,57.0
4352,78.0,56,59,6.0,62.0
4353,57.0,51,61,10.0,54.0
4354,73.0,3,48,8.0,60.0
4355,76.0,9,64,7.0,68.0
4356,76.0,8,74,6.0,68.0
4357,78.0,52,40,6.0,60.0
4358,76.0,0,52,7.0,70.0
4359,73.0,6,49,8.0,74.0
4360,79.0,63,59,6.0,93.0
4361,76.0,46,45,6.0,78.0
4362,73.0,6,43,8.0,58.0
4363,76.0,7,54,7.0,64.0
4364,69.0,59,72,6.0,60.0
4365,55.0,0,104,10.0,68.0
4366,71.0,45,59,6.0,63.0
4367,73.0,64,63,6.0,57.0
4368,55.0,9,84,10.0,62.0
4369,74.0,48,52,6.0,70.0
4370,71.0,6,41,8.0,68.0
4371,76.0,4,57,7.0,82.0
4372,55.0,5,59,10.0,52.0
4373,73.0,62,70,6.0,60.0
4374,74.0,41,46,6.0,68.0
4375,70.0,5,43,8.0,66.0
4376,73.0,68,53,7.0,60.0
4377,76.0,3,70,6.0,100.0
4378,74.0,51,64,6.0,76.0
4379,70.0,5,38,8.0,58.0
4380,73.0,63,56,7.0,59.0
4381,73.0,1,71,6.0,49.0
4382,54.0,1,98,10.0,70.0
4383,74.0,51,48,6.0,64.0
4384,76.0,62,75,6.0,87.0
4385,54.0,0,101,10.0,58.0
4386,74.0,56,72,6.0,66.0
4387,70.0,11,47,8.0,78.0
4388,73.0,3,60,7.0,76.0
4389,73.0,56,65,6.0,52.0
4390,54.0,3,52,10.0,53.0
4391,71.0,46,54,6.0,62.0
4392,70.0,2,46,6.0,64.0
4393,66.0,3,49,8.0,78.0
4394,73.0,63,60,7.0,91.0
4395,76.0,59,69,6.0,62.0
4396,70.0,48,62,7.0,68.0
4397,66.0,16,46,8.0,47.0
4398,78.0,2,82,6.0,64.0
4399,42.0,6,89,10.0,66.0
4400,79.0,41,49,6.0,85.0
4401,78.0,63,76,6.0,78.0
4402,42.0,5,74,10.0,64.0
4403,76.0,52,58,6.0,66.0
4404,70.0,4,48,7.0,70.0
4405,66.0,7,46,8.0,78.0
4406,74.0,61,65,6.0,55.0
4407,42.0,4,64,10.0,43.0
4408,73.0,48,46,6.0,47.0
4409,71.0,2,60,7.0,82.0
4410,66.0,4,63,8.0,87.0
4411,74.0,63,67,6.0,91.0
4412,78.0,52,56,6.0,54.0
4413,62.0,3,49,8.0,66.0
4414,66.0,1,61,7.0,58.0
4415,71.0,62,76,6.0,68.0
4416,47.0,13,97,10.0,76.0
4417,73.0,42,65,6.0,62.0
4418,74.0,60,63,6.0,68.0
4419,76.0,47,39,6.0,70.0
4420,47.0,10,91,10.0,59.0
4421,66.0,3,56,8.0,66.0
4422,74.0,58,69,6.0,80.0
4423,47.0,7,54,10.0,47.0
4424,71.0,7,61,7.0,66.0
4425,76.0,38,49,6.0,68.0
4426,63.0,3,57,8.0,74.0
4427,72.0,1,57,7.0,78.0
4428,78.0,68,69,6.0,102.0
4429,81.0,53,71,6.0,80.0
4430,69.0,66,49,8.0,89.0
4431,72.0,0,48,7.0,58.0
4432,75.0,1,60,6.0,62.0
4433,76.0,51,47,6.0,66.0
4434,78.0,63,66,6.0,91.0
4435,54.0,6,219,10.0,64.0
4436,79.0,58,58,6.0,78.0
4437,63.0,57,44,8.0,47.0
4438,78.0,4,56,6.0,55.0
4439,54.0,5,47,10.0,54.0
4440,72.0,7,54,7.0,87.0
4441,79.0,42,47,6.0,63.0
4442,63.0,3,60,8.0,76.0
4443,66.0,2,63,7.0,74.0
4444,81.0,66,71,6.0,95.0
4445,72.0,54,50,6.0,60.0
4446,66.0,9,59,8.0,63.0
4447,69.0,3,51,7.0,64.0
4448,71.0,47,75,6.0,55.0
4449,72.0,51,39,6.0,63.0
4450,51.0,7,101,10.0,59.0
4451,81.0,1,70,6.0,100.0
4452,51.0,61,72,10.0,42.0
4453,72.0,53,61,6.0,80.0
4454,66.0,7,43,8.0,63.0
4455,71.0,7,66,6.0,64.0
4456,51.0,55,73,10.0,41.0
4457,69.0,5,54,7.0,93.0
4458,69.0,45,45,6.0,56.0
4459,66.0,2,51,8.0,74.0
4460,71.0,69,64,6.0,87.0
4461,63.0,8,58,7.0,82.0
4462,73.0,46,76,6.0,57.0
4463,75.0,66,46,6.0,63.0
4464,66.0,1,50,8.0,60.0
4465,71.0,2,55,7.0,80.0
4466,47.0,9,89,10.0,87.0
4467,76.0,43,59,6.0,78.0
4468,78.0,67,70,6.0,60.0
4469,47.0,4,70,10.0,68.0
4470,79.0,52,51,6.0,82.0
4471,71.0,1,38,8.0,66.0
4472,75.0,61,44,7.0,72.0
4473,81.0,3,57,6.0,85.0
4474,47.0,5,53,10.0,66.0
4475,78.0,49,44,6.0,60.0
4476,79.0,66,63,6.0,95.0
4477,52.0,3,70,10.0,64.0
4478,76.0,43,53,6.0,66.0
4479,71.0,58,66,6.0,64.0
4480,64.0,18,55,10.0,76.0
4481,74.0,44,51,6.0,60.0
4482,76.0,4,242,7.0,78.0
4483,71.0,0,248,8.0,59.0
4484,73.0,63,56,6.0,70.0
4485,57.0,14,52,10.0,60.0
4486,76.0,36,47,6.0,64.0
4487,69.0,60,57,6.0,60.0
4488,61.0,21,51,10.0,62.0
4489,79.0,39,36,6.0,85.0
4490,78.0,67,73,6.0,105.0
4491,50.0,8,66,10.0,80.0
4492,74.0,49,49,6.0,82.0
4493,69.0,53,68,6.0,56.0
4494,62.0,12,63,10.0,82.0
4495,72.0,49,48,6.0,64.0
4496,55.0,68,52,10.0,58.0
4497,71.0,5,53,6.0,89.0
4498,74.0,57,65,6.0,70.0
4499,67.0,5,54,6.0,49.0
4500,59.0,56,64,10.0,68.0
4501,78.0,56,36,6.0,72.0
4502,49.0,68,69,10.0,82.0
4503,76.0,12,70,6.0,102.0
4504,73.0,54,65,6.0,61.0
4505,68.0,3,56,6.0,57.0
4506,61.0,57,62,10.0,63.0
4507,71.0,52,55,6.0,80.0
4508,54.0,2,47,10.0,60.0
4509,70.0,71,56,6.0,87.0
4510,73.0,53,78,6.0,60.0
4511,66.0,0,51,6.0,80.0
4512,58.0,59,52,10.0,64.0
4513,76.0,55,40,6.0,82.0
4514,74.0,1,76,6.0,91.0
4515,47.0,70,78,10.0,80.0
4516,71.0,54,69,6.0,70.0
4517,73.0,61,50,6.0,60.0
4518,59.0,6,61,10.0,68.0
4519,74.0,53,45,6.0,82.0
4520,55.0,0,53,10.0,70.0
4521,76.0,62,74,6.0,89.0
4522,78.0,54,62,6.0,74.0
4523,52.0,61,58,10.0,68.0
4524,79.0,7,54,6.0,66.0
4525,76.0,52,48,6.0,61.0
4526,70.0,71,65,6.0,70.0
4527,76.0,46,66,6.0,64.0
4528,66.0,0,57,7.0,68.0
4529,78.0,63,68,6.0,57.0
4530,78.0,8,98,0.0,48.0
4531,68.0,46,56,7.0,80.0
4532,76.0,6,73,6.0,66.0
4533,54.0,2,248,10.0,59.0
4534,70.0,61,53,7.0,78.0
4535,78.0,3,65,6.0,59.0
4536,78.0,7,96,0.0,59.0
4537,76.0,47,66,6.0,63.0
4538,70.0,9,56,7.0,53.0
4539,78.0,63,69,6.0,56.0
4540,78.0,2,94,0.0,59.0
4541,71.0,39,59,7.0,60.0
4542,76.0,10,50,6.0,70.0
4543,73.0,2,241,8.0,63.0
4544,73.0,60,62,7.0,82.0
4545,70.0,6,71,6.0,74.0
4546,78.0,8,92,0.0,56.0
4547,76.0,47,53,6.0,60.0
4548,70.0,3,55,7.0,56.0
4549,78.0,50,76,6.0,57.0
4550,78.0,8,91,1.0,57.0
4551,78.0,8,85,0.0,51.0
4552,71.0,40,57,7.0,68.0
4553,76.0,9,56,6.0,66.0
4554,42.0,7,246,10.0,59.0
4555,73.0,3,60,7.0,80.0
4556,78.0,53,68,6.0,56.0
4557,78.0,5,97,1.0,60.0
4558,78.0,6,93,0.0,55.0
4559,76.0,42,74,6.0,63.0
4560,78.0,66,59,6.0,58.0
4561,73.0,7,58,7.0,59.0
4562,76.0,35,46,6.0,61.0
4563,78.0,7,85,0.0,52.0
4564,78.0,0,91,1.0,59.0
4565,74.0,7,51,7.0,72.0
4566,70.0,1,246,8.0,59.0
4567,76.0,7,52,7.0,95.0
4568,70.0,58,65,6.0,82.0
4569,78.0,1,84,0.0,49.0
4570,78.0,12,85,1.0,62.0
4571,76.0,34,88,6.0,82.0
4572,54.0,5,54,10.0,63.0
4573,76.0,5,53,7.0,76.0
4574,78.0,69,74,6.0,59.0
4575,78.0,1,86,2.0,64.0
4576,78.0,2,97,1.0,60.0
4577,78.0,3,88,0.0,52.0
4578,74.0,3,51,7.0,60.0
4579,76.0,5,1202,4.0,58.0
4580,79.0,40,81,6.0,78.0
4581,58.0,1,50,10.0,70.0
4582,78.0,60,70,6.0,95.0
4583,76.0,5,67,7.0,87.0
4584,78.0,1,85,1.0,59.0
4585,78.0,2,95,2.0,66.0
4586,78.0,4,93,0.0,53.0
4587,76.0,45,67,6.0,60.0
4588,75.0,59,56,6.0,76.0
4589,54.0,0,53,10.0,60.0
4590,78.0,3,55,7.0,60.0
4591,76.0,39,33,7.0,78.0
4592,73.0,6,39,6.0,30.0
4593,78.0,1,86,2.0,60.0
4594,78.0,4,97,1.0,60.0
4595,78.0,6,90,0.0,47.0
4596,73.0,2,221,4.0,59.0
4597,66.0,1,246,8.0,53.0
4598,69.0,1,79,6.0,70.0
4599,75.0,48,71,6.0,61.0
4600,78.0,4,142,1.0,59.0
4601,78.0,2,135,0.0,55.0
4602,78.0,1,143,2.0,59.0
4603,75.0,64,178,7.0,87.0
4604,59.0,0,56,8.0,64.0
4605,78.0,65,73,6.0,55.0
4606,61.0,48,54,8.0,66.0
4607,75.0,11,59,6.0,59.0
4608,59.0,2,268,10.0,63.0
4609,63.0,52,59,8.0,66.0
4610,78.0,7,71,6.0,60.0
4611,75.0,49,76,6.0,47.0
4612,63.0,3,53,8.0,57.0
4613,78.0,70,69,6.0,61.0
4614,64.0,46,44,8.0,64.0
4615,75.0,3,49,6.0,64.0
4616,71.0,3,234,7.0,60.0
4617,66.0,61,66,8.0,82.0
4618,69.0,3,72,6.0,82.0
4619,75.0,39,61,6.0,68.0
4620,63.0,19,49,8.0,57.0
4621,78.0,59,76,6.0,58.0
4622,64.0,7,52,8.0,66.0
4623,75.0,41,65,6.0,64.0
4624,47.0,15,230,10.0,63.0
4625,66.0,3,62,8.0,78.0
4626,78.0,57,73,6.0,56.0
4627,75.0,47,68,6.0,59.0
4628,66.0,13,55,8.0,55.0
4629,78.0,64,73,6.0,58.0
4630,75.0,43,44,6.0,60.0
4631,68.0,3,53,8.0,58.0
4632,75.0,6,248,7.0,63.0
4633,69.0,5,44,8.0,89.0
4634,69.0,60,72,6.0,87.0
4635,75.0,50,64,6.0,63.0
4636,59.0,62,57,10.0,85.0
4637,78.0,2,60,6.0,58.0
4638,69.0,14,53,8.0,66.0
4639,68.0,43,55,8.0,57.0
4640,76.0,0,62,6.0,68.0
4641,69.0,3,1188,5.0,59.0
4642,47.0,1,56,10.0,70.0
4643,69.0,9,61,8.0,68.0
4644,75.0,53,73,6.0,64.0
4645,73.0,33,51,6.0,60.0
4646,51.0,17,47,10.0,74.0
4647,71.0,50,67,6.0,63.0
4648,71.0,5,53,8.0,70.0
4649,78.0,2,191,7.0,60.0
4650,69.0,35,44,6.0,60.0
4651,69.0,12,49,8.0,80.0
4652,75.0,2,1416,4.0,62.0
4653,66.0,16,215,5.0,59.0
4654,68.0,61,66,6.0,66.0
4655,74.0,45,79,6.0,70.0
4656,64.0,64,56,7.0,68.0
4657,68.0,3,192,8.0,60.0
4658,76.0,5,83,6.0,66.0
4659,66.0,40,66,7.0,62.0
4660,52.0,7,241,10.0,66.0
4661,74.0,21,68,6.0,68.0
4662,68.0,45,57,7.0,82.0
4663,76.0,16,74,6.0,64.0
4664,74.0,60,57,6.0,66.0
4665,68.0,51,51,7.0,57.0
4666,76.0,9,57,6.0,51.0
4667,69.0,33,51,7.0,68.0
4668,74.0,14,46,6.0,66.0
4669,71.0,2,257,8.0,57.0
4670,71.0,58,70,7.0,80.0
4671,68.0,11,60,6.0,87.0
4672,74.0,54,71,6.0,70.0
4673,68.0,59,48,7.0,62.0
4674,76.0,4,73,6.0,64.0
4675,69.0,51,56,7.0,70.0
4676,40.0,5,242,10.0,63.0
4677,74.0,8,78,6.0,72.0
4678,71.0,52,55,7.0,82.0
4679,76.0,10,74,6.0,70.0
4680,74.0,60,66,6.0,70.0
4681,71.0,52,67,7.0,80.0
4682,76.0,11,56,6.0,66.0
4683,74.0,5,34,6.0,66.0
4684,73.0,43,46,7.0,80.0
4685,68.0,6,257,8.0,59.0
4686,74.0,57,63,7.0,87.0
4687,68.0,5,68,6.0,74.0
4688,74.0,58,71,6.0,82.0
4689,52.0,57,57,10.0,66.0
4690,74.0,3,56,7.0,78.0
4691,76.0,4,78,6.0,61.0
4692,73.0,51,44,7.0,80.0
4693,78.0,10,59,6.0,58.0
4694,77.0,2,10,6.0,52.0
4695,56.0,1,54,10.0,70.0
4696,76.0,3,53,6.0,60.0
4697,74.0,1,63,7.0,87.0
4698,74.0,49,58,6.0,70.0
4699,52.0,3,60,10.0,68.0
4700,73.0,62,75,6.0,57.0
4701,76.0,10,65,7.0,78.0
4702,74.0,6,34,7.0,85.0
4703,71.0,47,46,6.0,62.0
4704,74.0,6,1428,4.0,63.0
4705,64.0,52,245,8.0,60.0
4706,68.0,3,1438,5.0,62.0
4707,67.0,1,74,6.0,70.0
4708,73.0,54,81,6.0,58.0
4709,57.0,1,56,8.0,63.0
4710,76.0,63,69,6.0,62.0
4711,73.0,59,201,7.0,62.0
4712,81.0,3,90,0.0,61.0
4713,59.0,3,50,8.0,62.0
4714,73.0,48,66,6.0,53.0
4715,57.0,0,254,10.0,70.0
4716,61.0,2,53,8.0,82.0
4717,76.0,57,74,6.0,58.0
4718,81.0,3,96,0.0,59.0
4719,73.0,39,70,6.0,52.0
4720,61.0,4,63,8.0,63.0
4721,76.0,60,71,6.0,63.0
4722,73.0,40,50,6.0,51.0
4723,81.0,9,90,0.0,63.0
4724,62.0,0,53,8.0,64.0
4725,69.0,17,243,7.0,66.0
4726,64.0,1,75,8.0,85.0
4727,67.0,69,77,6.0,85.0
4728,81.0,7,96,0.0,60.0
4729,73.0,42,84,6.0,57.0
4730,61.0,0,57,8.0,64.0
4731,76.0,62,75,6.0,64.0
4732,81.0,9,86,1.0,61.0
4733,62.0,43,45,8.0,62.0
4734,81.0,3,90,0.0,59.0
4735,45.0,9,221,10.0,68.0
4736,73.0,2,71,6.0,58.0
4737,64.0,1,67,8.0,85.0
4738,76.0,0,75,6.0,63.0
4739,81.0,8,89,0.0,60.0
4740,81.0,8,99,1.0,64.0
4741,73.0,46,68,6.0,60.0
4742,64.0,5,54,8.0,68.0
4743,76.0,58,65,6.0,60.0
4744,81.0,7,74,0.0,58.0
4745,73.0,5,44,6.0,57.0
4746,66.0,36,51,8.0,68.0
4747,81.0,4,90,1.0,72.0
4748,73.0,58,257,7.0,55.0
4749,67.0,60,74,8.0,85.0
4750,67.0,2,74,6.0,87.0
4751,81.0,11,90,1.0,70.0
4752,81.0,6,101,0.0,59.0
4753,73.0,36,85,6.0,60.0
4754,45.0,8,35,3.0,59.0
4755,57.0,0,52,10.0,72.0
4756,67.0,66,56,8.0,64.0
4757,76.0,1,71,6.0,93.0
4758,81.0,0,83,1.0,82.0
4759,66.0,38,45,8.0,55.0
4760,81.0,1,87,2.0,68.0
4761,88.0,2,92,0.0,74.0
4762,74.0,1,76,6.0,80.0
4763,45.0,1,37,3.0,62.0
4764,67.0,7,64,8.0,74.0
4765,45.0,10,62,10.0,80.0
4766,73.0,54,85,6.0,78.0
4767,88.0,3,92,1.0,85.0
4768,93.0,2,92,0.0,76.0
4769,81.0,2,95,2.0,61.0
4770,71.0,34,61,6.0,78.0
4771,76.0,2,150,7.0,74.0
4772,45.0,0,32,3.0,66.0
4773,69.0,8,51,8.0,66.0
4774,49.0,7,50,10.0,60.0
4775,69.0,58,74,6.0,68.0
4776,67.0,24,43,8.0,68.0
4777,67.0,9,37,6.0,70.0
4778,67.0,4,1395,5.0,66.0
4779,81.0,6,83,1.0,76.0
4780,73.0,4,1401,4.0,58.0
4781,88.0,4,89,0.0,66.0
4782,81.0,1,102,2.0,66.0
4783,50.0,0,43,3.0,80.0
4784,66.0,66,72,6.0,89.0
4785,50.0,8,60,10.0,64.0
4786,62.0,28,73,6.0,74.0
4787,90.0,7,131,0.0,70.0
4788,81.0,1,131,1.0,82.0
4789,74.0,4,141,2.0,85.0
4790,66.0,0,166,5.0,61.0
4791,74.0,1,155,4.0,70.0
4792,64.0,62,60,6.0,76.0
4793,49.0,12,59,10.0,51.0
4794,67.0,46,40,6.0,68.0
4795,74.0,4,237,7.0,66.0
4796,66.0,1,260,8.0,52.0
4797,66.0,66,57,6.0,82.0
4798,50.0,8,56,10.0,64.0
4799,69.0,43,36,6.0,68.0
4800,52.0,8,54,10.0,64.0
4801,68.0,64,64,6.0,98.0
4802,71.0,46,36,6.0,80.0
4803,69.0,2,61,6.0,102.0
4804,54.0,67,72,10.0,66.0
4805,66.0,57,75,6.0,89.0
4806,52.0,59,60,10.0,59.0
4807,68.0,5,73,6.0,70.0
4808,71.0,62,40,6.0,78.0
4809,54.0,51,69,10.0,58.0
4810,69.0,12,69,6.0,100.0
4811,73.0,57,47,6.0,61.0
4812,71.0,15,61,6.0,98.0
4813,56.0,53,80,10.0,72.0
4814,74.0,54,35,6.0,80.0
4815,57.0,63,66,10.0,85.0
4816,73.0,4,73,6.0,102.0
4817,69.0,58,72,6.0,85.0
4818,71.0,58,66,6.0,82.0
4819,56.0,5,64,10.0,62.0
4820,74.0,51,44,6.0,82.0
4821,57.0,7,50,10.0,70.0
4822,73.0,63,62,6.0,113.0
4823,76.0,47,35,6.0,98.0
4824,54.0,4,56,10.0,63.0
4825,74.0,62,63,6.0,100.0
4826,78.0,46,53,6.0,87.0
4827,49.0,1,57,10.0,70.0
4828,76.0,77,150,6.0,85.0
4829,50.0,114,58,10.0,85.0
4830,78.0,68,25,6.0,64.0
4831,73.0,10,30,6.0,102.0
4832,52.0,52,64,10.0,80.0
4833,71.0,34,35,6.0,78.0
4834,73.0,25,48,6.0,63.0
4835,71.0,27,66,6.0,82.0
4836,40.0,32,66,10.0,82.0
4837,69.0,50,38,6.0,72.0
4838,69.0,4,68,6.0,98.0
4839,45.0,79,81,10.0,85.0
4840,71.0,55,67,6.0,82.0
4841,73.0,2,44,6.0,57.0
4842,76.0,5,48,5.0,82.0
4843,73.0,0,48,4.0,74.0
4844,76.0,1,58,7.0,85.0
4845,45.0,1,55,10.0,85.0
4846,69.0,54,102,8.0,63.0
4847,76.0,8,97,0.0,82.0
4848,74.0,3,51,4.0,76.0
4849,47.0,2,56,10.0,89.0
4850,74.0,45,59,6.0,68.0
4851,76.0,2,56,4.0,74.0
4852,69.0,0,52,5.0,76.0
4853,69.0,4,52,7.0,80.0
4854,76.0,3,66,6.0,68.0
4855,49.0,2,67,10.0,100.0
4856,78.0,51,36,6.0,76.0
4857,69.0,52,103,8.0,66.0
4858,81.0,2,107,0.0,85.0
4859,78.0,3,54,4.0,68.0
4860,76.0,3,49,4.0,57.0
4861,49.0,3,53,10.0,62.0
4862,76.0,50,67,6.0,87.0
4863,69.0,7,93,8.0,70.0
4864,88.0,0,89,1.0,98.0
4865,78.0,30,47,6.0,89.0
4866,50.0,8,44,10.0,82.0
4867,78.0,3,46,4.0,62.0
4868,76.0,3,108,0.0,76.0
4869,73.0,2,164,7.0,85.0
4870,79.0,0,66,6.0,100.0
4871,73.0,7,168,5.0,80.0
4872,52.0,1,68,10.0,95.0
4873,79.0,4,64,4.0,87.0
4874,76.0,48,43,6.0,70.0
4875,69.0,58,99,8.0,72.0
4876,91.0,3,97,1.0,85.0
4877,76.0,6,47,4.0,66.0
4878,76.0,2,50,7.0,91.0
4879,76.0,4,53,5.0,85.0
4880,49.0,1,51,10.0,80.0
4881,69.0,57,68,6.0,52.0
4882,69.0,0,67,4.0,68.0
4883,69.0,1,99,8.0,70.0
4884,76.0,3,86,0.0,85.0
4885,71.0,40,51,6.0,56.0
4886,50.0,6,46,10.0,87.0
4887,71.0,7,57,4.0,63.0
4888,88.0,5,117,1.0,80.0
4889,67.0,1,45,7.0,87.0
4890,73.0,4,49,4.0,56.0
4891,67.0,1,48,5.0,80.0
4892,73.0,48,67,6.0,66.0
4893,52.0,1,73,10.0,89.0
4894,74.0,41,45,6.0,82.0
4895,69.0,6,97,8.0,80.0
4896,79.0,1,99,0.0,87.0
4897,74.0,8,49,4.0,64.0
4898,73.0,49,44,6.0,80.0
4899,73.0,9,53,4.0,57.0
4900,52.0,1,51,10.0,85.0
4901,88.0,2,80,1.0,87.0
4902,74.0,29,47,6.0,91.0
4903,74.0,3,49,4.0,72.0
4904,54.0,6,44,10.0,85.0
4905,69.0,4,97,8.0,78.0
4906,76.0,1,131,0.0,72.0
4907,76.0,57,61,6.0,102.0
4908,73.0,4,171,7.0,85.0
4909,76.0,1,66,4.0,98.0
4910,55.0,4,76,10.0,95.0
4911,73.0,7,178,5.0,85.0
4912,69.0,3,92,8.0,85.0
4913,74.0,46,54,6.0,78.0
4914,93.0,2,104,1.0,87.0
4915,74.0,7,56,4.0,70.0
4916,76.0,1,43,7.0,91.0
4917,76.0,2,42,0.0,98.0
4918,45.0,4,39,3.0,102.0
4919,73.0,51,64,6.0,48.0
4920,76.0,1,44,5.0,82.0
4921,55.0,0,54,10.0,82.0
4922,73.0,0,61,4.0,57.0
4923,74.0,5,42,0.0,87.0
4924,69.0,12,97,8.0,72.0
4925,74.0,35,51,6.0,74.0
4926,54.0,5,46,10.0,95.0
4927,81.0,1,100,1.0,60.0
4928,81.0,4,96,2.0,98.0
4929,74.0,0,52,4.0,68.0
4930,45.0,3,40,3.0,102.0
4931,69.0,1,52,7.0,87.0
4932,76.0,0,69,6.0,100.0
4933,69.0,4,60,5.0,85.0
4934,76.0,1,64,4.0,85.0
4935,76.0,60,75,0.0,87.0
4936,55.0,3,73,10.0,93.0
4937,81.0,0,88,2.0,91.0
4938,81.0,2,89,1.0,85.0
4939,69.0,1,95,8.0,78.0
4940,74.0,8,60,4.0,70.0
4941,74.0,39,71,6.0,76.0
4942,78.0,1,37,0.0,80.0
4943,45.0,3,38,3.0,102.0
4944,73.0,1,44,5.0,66.0
4945,73.0,2,52,7.0,74.0
4946,73.0,0,58,4.0,68.0
4947,73.0,57,61,6.0,55.0
4948,57.0,0,63,10.0,98.0
4949,81.0,2,75,1.0,80.0
4950,69.0,3,88,8.0,78.0
4951,76.0,42,44,0.0,98.0
4952,55.0,1,44,10.0,78.0
4953,81.0,0,101,2.0,87.0
4954,71.0,1,45,4.0,72.0
4955,71.0,3,50,6.0,74.0
4956,74.0,1,47,7.0,95.0
4957,50.0,1,51,3.0,110.0
4958,69.0,3,58,6.0,91.0
4959,69.0,0,59,4.0,63.0
4960,74.0,57,74,0.0,85.0
4961,74.0,3,61,5.0,80.0
4962,54.0,6,78,10.0,64.0
4963,69.0,1,99,8.0,78.0
4964,73.0,44,57,7.0,70.0
4965,73.0,14,54,5.0,63.0
4966,74.0,0,135,2.0,102.0
4967,81.0,6,132,1.0,95.0
4968,78.0,3,42,6.0,95.0
4969,78.0,2,40,4.0,85.0
4970,74.0,50,65,7.0,66.0
4971,47.0,2,57,10.0,76.0
4972,74.0,1,64,5.0,68.0
4973,78.0,1,101,0.0,87.0
4974,76.0,11,39,5.0,80.0
4975,49.0,3,51,10.0,72.0
4976,71.0,1,107,8.0,85.0
4977,76.0,43,58,7.0,80.0
4978,71.0,1,39,4.0,76.0
4979,78.0,50,61,7.0,93.0
4980,71.0,2,49,6.0,85.0
4981,51.0,5,68,10.0,100.0
4982,78.0,1,61,5.0,89.0
4983,79.0,39,52,7.0,80.0
4984,83.0,2,102,0.0,91.0
4985,71.0,4,100,8.0,70.0
4986,79.0,18,44,5.0,76.0
4987,78.0,48,55,7.0,93.0
4988,51.0,5,60,10.0,68.0
4989,78.0,0,59,5.0,80.0
4990,90.0,1,89,1.0,82.0
4991,71.0,1,91,8.0,68.0
4992,52.0,2,47,10.0,70.0
4993,79.0,38,49,7.0,74.0
4994,79.0,10,49,5.0,70.0
4995,78.0,0,119,0.0,78.0
4996,75.0,5,169,6.0,82.0
4997,81.0,4,59,7.0,95.0
4998,81.0,3,54,5.0,82.0
4999,75.0,6,170,4.0,93.0
5000,54.0,55,69,10.0,107.0
5001,78.0,45,47,7.0,72.0
5002,71.0,1,98,8.0,80.0
5003,93.0,2,100,1.0,85.0
5004,78.0,5,55,5.0,57.0
5005,78.0,1,44,6.0,80.0
5006,78.0,1,48,4.0,74.0
5007,71.0,56,69,7.0,53.0
5008,51.0,0,58,10.0,87.0
5009,71.0,0,64,5.0,64.0
5010,78.0,9,88,0.0,82.0
5011,71.0,0,101,8.0,70.0
5012,52.0,2,55,10.0,82.0
5013,90.0,9,109,1.0,76.0
5014,73.0,41,63,7.0,59.0
5015,73.0,14,52,5.0,62.0
5016,69.0,5,43,6.0,82.0
5017,69.0,3,46,4.0,85.0
5018,75.0,5,62,7.0,74.0
5019,75.0,2,56,5.0,72.0
5020,54.0,44,88,10.0,89.0
5021,71.0,1,82,8.0,82.0
5022,81.0,4,91,0.0,89.0
5023,76.0,40,53,7.0,68.0
5024,76.0,16,45,5.0,66.0
5025,75.0,47,55,7.0,85.0
5026,54.0,3,62,10.0,78.0
5027,75.0,6,65,5.0,93.0
5028,76.0,25,49,7.0,66.0
5029,71.0,2,97,8.0,68.0
5030,56.0,7,46,10.0,95.0
5031,76.0,15,37,5.0,68.0
5032,90.0,0,102,1.0,82.0
5033,78.0,1,139,0.0,76.0
5034,75.0,3,160,6.0,85.0
5035,78.0,2,51,5.0,100.0
5036,78.0,3,59,7.0,100.0
5037,75.0,8,170,4.0,93.0
5038,57.0,44,80,10.0,91.0
5039,95.0,3,96,1.0,93.0
5040,71.0,8,106,8.0,78.0
5041,76.0,53,70,7.0,60.0
5042,76.0,1,72,5.0,62.0
5043,78.0,55,46,6.0,68.0
5044,78.0,1,43,0.0,82.0
5045,78.0,4,50,4.0,78.0
5046,57.0,2,58,10.0,89.0
5047,75.0,1,55,5.0,61.0
5048,75.0,2,65,7.0,58.0
5049,56.0,43,51,10.0,98.0
5050,71.0,1,98,8.0,66.0
5051,76.0,0,48,0.0,85.0
5052,76.0,4,54,5.0,74.0
5053,76.0,9,61,7.0,66.0
5054,90.0,1,129,1.0,87.0
5055,71.0,3,50,6.0,80.0
5056,71.0,0,48,4.0,85.0
5057,78.0,8,58,5.0,80.0
5058,78.0,1,58,7.0,80.0
5059,57.0,51,75,10.0,89.0
5060,78.0,3,84,0.0,85.0
5061,71.0,1,84,8.0,78.0
5062,76.0,0,61,5.0,64.0
5063,76.0,55,62,7.0,72.0
5064,75.0,52,50,6.0,82.0
5065,80.0,2,45,0.0,76.0
5066,75.0,6,49,4.0,80.0
5067,75.0,4,62,7.0,74.0
5068,75.0,2,61,5.0,70.0
5069,59.0,1,66,10.0,87.0
5070,71.0,1,71,8.0,74.0
5071,78.0,2,47,0.0,87.0
5072,57.0,2,51,10.0,87.0
5073,73.0,43,57,7.0,53.0
5074,73.0,6,52,5.0,61.0
5075,56.0,0,57,10.0,98.0
5076,71.0,2,59,8.0,85.0
5077,76.0,51,85,6.0,89.0
5078,76.0,44,35,8.0,78.0
5079,76.0,1,81,4.0,89.0
5080,71.0,3,107,7.0,66.0
5081,76.0,4,106,0.0,66.0
5082,71.0,8,111,5.0,70.0
5083,59.0,2,44,10.0,89.0
5084,64.0,60,54,6.0,62.0
5085,68.0,1,64,8.0,63.0
5086,64.0,2,54,4.0,64.0
5087,66.0,31,47,6.0,70.0
5088,76.0,6,89,0.0,62.0
5089,69.0,6,49,8.0,76.0
5090,76.0,3,105,7.0,63.0
5091,76.0,5,99,5.0,70.0
5092,66.0,13,48,4.0,64.0
5093,68.0,45,58,6.0,72.0
5094,52.0,0,49,10.0,82.0
5095,71.0,5,69,8.0,82.0
5096,68.0,7,52,4.0,91.0
5097,73.0,37,50,8.0,72.0
5098,76.0,0,91,5.0,68.0
5099,76.0,0,99,7.0,68.0
5100,76.0,11,102,0.0,64.0
5101,68.0,60,52,6.0,78.0
5102,68.0,0,47,4.0,64.0
5103,71.0,3,64,8.0,80.0
5104,69.0,29,49,6.0,80.0
5105,73.0,9,47,8.0,70.0
5106,76.0,1,91,5.0,62.0
5107,69.0,3,52,4.0,72.0
5108,76.0,4,98,0.0,68.0
5109,76.0,5,104,7.0,68.0
5110,74.0,10,60,8.0,89.0
5111,71.0,52,73,6.0,95.0
5112,56.0,8,176,10.0,82.0
5113,71.0,6,66,4.0,85.0
5114,71.0,34,46,8.0,66.0
5115,76.0,4,94,5.0,70.0
5116,76.0,6,89,7.0,66.0
5117,76.0,2,94,0.0,80.0
5118,59.0,0,46,10.0,87.0
5119,68.0,3,47,4.0,66.0
5120,68.0,7,53,6.0,70.0
5121,64.0,61,73,8.0,68.0
5122,76.0,1,90,5.0,66.0
5123,76.0,2,92,7.0,78.0
5124,69.0,1,44,6.0,80.0
5125,88.0,2,101,1.0,87.0
5126,69.0,3,48,4.0,76.0
5127,66.0,36,53,8.0,78.0
5128,76.0,9,98,0.0,80.0
5129,50.0,1,44,10.0,80.0
5130,68.0,61,60,8.0,70.0
5131,71.0,2,64,4.0,82.0
5132,71.0,2,69,6.0,89.0
5133,88.0,4,90,1.0,85.0
5134,76.0,2,98,7.0,78.0
5135,76.0,8,85,0.0,85.0
5136,69.0,34,49,8.0,70.0
5137,76.0,2,98,5.0,78.0
5138,68.0,59,56,8.0,80.0
5139,71.0,0,63,6.0,85.0
5140,71.0,0,58,4.0,66.0
5141,69.0,35,43,8.0,74.0
5142,76.0,5,79,0.0,89.0
5143,76.0,8,97,7.0,70.0
5144,73.0,1,46,6.0,87.0
5145,76.0,1,87,5.0,78.0
5146,88.0,6,88,1.0,85.0
5147,73.0,11,48,4.0,78.0
5148,56.0,5,169,10.0,82.0
5149,74.0,0,63,6.0,89.0
5150,71.0,48,65,8.0,102.0
5151,74.0,0,56,4.0,89.0
5152,76.0,2,90,5.0,78.0
5153,76.0,11,93,7.0,85.0
5154,76.0,3,92,0.0,78.0
5155,88.0,5,87,1.0,91.0
5156,69.0,33,56,8.0,85.0
5157,74.0,1,45,4.0,87.0
5158,68.0,57,63,8.0,59.0
5159,74.0,16,49,6.0,85.0
5160,59.0,3,46,10.0,91.0
5161,76.0,0,80,5.0,68.0
5162,76.0,0,80,7.0,80.0
5163,69.0,32,47,8.0,72.0
5164,73.0,0,46,4.0,85.0
5165,73.0,9,48,6.0,80.0
5166,88.0,4,90,2.0,87.0
5167,83.0,3,94,0.0,87.0
5168,92.0,0,101,1.0,87.0
5169,52.0,1,55,10.0,78.0
5170,71.0,60,69,8.0,100.0
5171,74.0,5,73,4.0,85.0
5172,74.0,1,79,6.0,89.0
5173,76.0,3,82,5.0,78.0
5174,76.0,1,82,7.0,89.0
5175,88.0,1,91,2.0,87.0
5176,80.0,1,95,0.0,82.0
5177,95.0,0,95,1.0,98.0
5178,69.0,42,56,8.0,74.0
5179,76.0,1,47,6.0,78.0
5180,68.0,60,59,8.0,87.0
5181,56.0,11,57,10.0,82.0
5182,76.0,3,62,4.0,82.0
5183,71.0,0,74,5.0,76.0
5184,71.0,0,79,7.0,85.0
5185,92.0,1,88,1.0,91.0
5186,83.0,0,91,0.0,85.0
5187,88.0,2,88,2.0,82.0
5188,74.0,6,40,4.0,82.0
5189,74.0,3,52,6.0,82.0
5190,66.0,43,57,8.0,80.0
5191,64.0,57,55,8.0,85.0
5192,45.0,0,51,10.0,87.0
5193,69.0,4,61,5.0,74.0
5194,73.0,1,66,6.0,80.0
5195,69.0,1,59,7.0,80.0
5196,45.0,2,62,3.0,116.0
5197,73.0,0,71,4.0,76.0
5198,68.0,52,61,5.0,58.0
5199,68.0,1,62,7.0,68.0
5200,88.0,0,128,2.0,102.0
5201,85.0,1,128,0.0,89.0
5202,88.0,0,131,1.0,100.0
5203,73.0,1,38,6.0,78.0
5204,73.0,0,41,4.0,70.0
5205,61.0,2,45,8.0,85.0
5206,57.0,0,60,10.0,93.0
5207,69.0,61,69,5.0,72.0
5208,71.0,48,40,6.0,78.0
5209,71.0,3,42,4.0,72.0
5210,71.0,3,33,7.0,72.0
5211,69.0,1,95,7.0,70.0
5212,71.0,6,40,5.0,78.0
5213,50.0,1,55,10.0,82.0
5214,69.0,0,67,7.0,74.0
5215,69.0,1,69,5.0,72.0
5216,73.0,54,102,6.0,80.0
5217,73.0,4,103,4.0,89.0
5218,68.0,0,54,7.0,55.0
5219,68.0,60,65,5.0,64.0
5220,74.0,1,36,6.0,70.0
5221,66.0,4,38,7.0,64.0
5222,74.0,5,33,4.0,80.0
5223,66.0,3,40,5.0,60.0
5224,54.0,54,62,10.0,78.0
5225,73.0,40,45,6.0,72.0
5226,69.0,1,33,5.0,76.0
5227,73.0,6,43,4.0,93.0
5228,69.0,8,54,7.0,59.0
5229,66.0,1,270,8.0,89.0
5230,71.0,48,69,6.0,82.0
5231,68.0,1,55,5.0,91.0
5232,44.0,12,61,10.0,82.0
5233,68.0,1,60,7.0,95.0
5234,71.0,2,67,4.0,82.0
5235,69.0,53,67,5.0,68.0
5236,69.0,5,67,7.0,70.0
5237,71.0,2,48,6.0,72.0
5238,71.0,1,50,4.0,76.0
5239,56.0,0,57,10.0,95.0
5240,68.0,4,56,5.0,78.0
5241,65.0,3,54,8.0,85.0
5242,68.0,53,64,7.0,51.0
5243,69.0,44,44,6.0,82.0
5244,69.0,3,41,4.0,72.0
5245,66.0,3,49,5.0,74.0
5246,66.0,3,47,8.0,82.0
5247,66.0,2,64,7.0,62.0
5248,49.0,1,60,10.0,80.0
5249,65.0,7,70,5.0,80.0
5250,65.0,1,69,7.0,87.0
5251,68.0,1,67,8.0,82.0
5252,71.0,52,103,6.0,91.0
5253,71.0,0,97,4.0,89.0
5254,66.0,57,47,8.0,87.0
5255,73.0,2,52,6.0,58.0
5256,73.0,5,43,4.0,68.0
5257,65.0,56,55,8.0,78.0
5258,68.0,1,67,5.0,74.0
5259,53.0,4,63,10.0,85.0
5260,68.0,0,79,7.0,66.0
5261,71.0,43,48,6.0,62.0
5262,63.0,0,56,8.0,62.0
5263,71.0,9,47,4.0,82.0
5264,69.0,1,56,7.0,87.0
5265,61.0,52,68,8.0,74.0
5266,69.0,4,67,6.0,80.0
5267,69.0,7,60,5.0,82.0
5268,42.0,0,68,10.0,82.0
5269,69.0,1,66,4.0,87.0
5270,73.0,3,49,7.0,62.0
5271,73.0,50,57,5.0,60.0
5272,61.0,3,47,8.0,87.0
5273,69.0,3,55,6.0,82.0
5274,54.0,0,56,10.0,82.0
5275,69.0,8,49,4.0,85.0
5276,66.0,58,66,7.0,80.0
5277,66.0,0,65,5.0,85.0
5278,71.0,40,50,6.0,78.0
5279,71.0,4,46,4.0,87.0
5280,68.0,5,52,7.0,63.0
5281,68.0,4,54,5.0,64.0
5282,54.0,1,43,8.0,80.0
5283,73.0,51,54,6.0,87.0
5284,73.0,2,57,4.0,100.0
5285,69.0,5,63,7.0,82.0
5286,52.0,2,60,10.0,82.0
5287,69.0,1,66,5.0,74.0
5288,71.0,53,60,7.0,87.0
5289,71.0,7,61,5.0,68.0
5290,73.0,48,51,6.0,68.0
5291,73.0,2,49,4.0,64.0
5292,69.0,8,71,7.0,87.0
5293,50.0,2,69,10.0,76.0
5294,69.0,1,69,5.0,82.0
5295,74.0,33,44,6.0,80.0
5296,74.0,13,44,4.0,82.0
5297,71.0,7,47,7.0,80.0
5298,71.0,5,45,5.0,78.0
5299,57.0,2,168,8.0,87.0
5300,76.0,37,74,6.0,98.0
5301,76.0,15,69,4.0,93.0
5302,73.0,0,68,7.0,100.0
5303,49.0,5,68,10.0,68.0
5304,73.0,4,72,5.0,89.0
5305,76.0,49,46,7.0,82.0
5306,76.0,9,50,5.0,82.0
5307,73.0,45,53,6.0,70.0
5308,69.0,4,59,7.0,82.0
5309,73.0,3,54,4.0,66.0
5310,54.0,6,62,10.0,102.0
5311,69.0,2,61,5.0,78.0
5312,74.0,35,49,6.0,80.0
5313,69.0,2,97,8.0,57.0
5314,71.0,8,51,7.0,76.0
5315,71.0,10,48,5.0,80.0
5316,74.0,10,45,4.0,78.0
5317,73.0,2,58,7.0,82.0
5318,52.0,2,65,10.0,80.0
5319,73.0,8,55,5.0,87.0
5320,76.0,40,68,6.0,93.0
5321,76.0,3,54,4.0,93.0
5322,74.0,37,50,7.0,82.0
5323,69.0,1,93,8.0,87.0
5324,74.0,11,52,5.0,72.0
5325,73.0,54,46,7.0,87.0
5326,50.0,3,60,10.0,74.0
5327,73.0,7,53,5.0,98.0
5328,76.0,5,54,6.0,82.0
5329,76.0,4,58,4.0,80.0
5330,74.0,33,45,7.0,80.0
5331,69.0,3,98,8.0,85.0
5332,74.0,9,48,5.0,82.0
5333,78.0,3,47,6.0,68.0
5334,78.0,5,42,4.0,85.0
5335,76.0,47,70,7.0,102.0
5336,49.0,4,69,10.0,102.0
5337,79.0,8,62,6.0,100.0
5338,79.0,0,65,4.0,102.0
5339,76.0,1,67,5.0,98.0
5340,69.0,0,95,8.0,85.0
5341,74.0,47,67,7.0,80.0
5342,74.0,11,57,5.0,80.0
5343,79.0,2,46,4.0,91.0
5344,79.0,6,45,6.0,80.0
5345,52.0,0,55,10.0,89.0
5346,73.0,58,65,7.0,49.0
5347,73.0,2,73,5.0,63.0
5348,69.0,1,97,8.0,82.0
5349,74.0,46,48,7.0,68.0
5350,78.0,3,46,4.0,95.0
5351,74.0,0,48,5.0,78.0
5352,78.0,1,51,6.0,74.0
5353,45.0,61,64,10.0,89.0
5354,79.0,2,66,4.0,91.0
5355,76.0,2,70,7.0,105.0
5356,76.0,1,68,5.0,95.0
5357,79.0,1,73,6.0,93.0
5358,69.0,0,99,8.0,85.0
5359,74.0,3,68,5.0,74.0
5360,74.0,53,73,7.0,78.0
5361,49.0,0,53,10.0,82.0
5362,73.0,1,62,7.0,64.0
5363,73.0,61,67,5.0,82.0
5364,81.0,2,66,6.0,85.0
5365,81.0,11,70,4.0,89.0
5366,64.0,1,88,8.0,80.0
5367,79.0,40,39,6.0,78.0
5368,79.0,9,39,4.0,80.0
5369,71.0,5,58,7.0,78.0
5370,71.0,1,59,5.0,87.0
5371,78.0,48,63,6.0,93.0
5372,50.0,5,59,10.0,98.0
5373,78.0,5,57,4.0,100.0
5374,69.0,3,71,5.0,82.0
5375,69.0,3,67,7.0,85.0
5376,74.0,36,50,6.0,80.0
5377,66.0,1,100,8.0,87.0
5378,74.0,14,47,4.0,70.0
5379,66.0,1,47,7.0,85.0
5380,66.0,2,49,5.0,76.0
5381,62.0,3,56,10.0,95.0
5382,71.0,50,71,6.0,57.0
5383,71.0,1,53,4.0,60.0
5384,73.0,41,52,6.0,62.0
5385,66.0,11,101,8.0,68.0
5386,73.0,17,44,4.0,57.0
5387,74.0,36,65,6.0,72.0
5388,55.0,0,48,10.0,89.0
5389,74.0,22,59,4.0,78.0
5390,76.0,24,53,6.0,80.0
5391,66.0,1,89,8.0,63.0
5392,76.0,27,42,4.0,70.0
5393,73.0,37,50,6.0,54.0
5394,73.0,5,43,4.0,53.0
5395,59.0,7,54,10.0,89.0
5396,66.0,17,85,8.0,76.0
5397,74.0,32,46,6.0,74.0
5398,74.0,16,44,4.0,64.0
5399,71.0,3,255,7.0,87.0
5400,71.0,3,270,5.0,85.0
5401,76.0,54,62,6.0,95.0
5402,49.0,2,57,10.0,87.0
5403,76.0,9,58,4.0,102.0
5404,64.0,7,94,8.0,80.0
5405,73.0,33,52,6.0,61.0
5406,73.0,24,44,4.0,62.0
5407,70.0,38,53,6.0,70.0
5408,76.0,0,54,7.0,89.0
5409,70.0,3,44,4.0,82.0
5410,76.0,6,62,5.0,91.0
5411,61.0,6,58,10.0,78.0
5412,67.0,5,94,8.0,78.0
5413,71.0,37,53,6.0,68.0
5414,71.0,19,43,4.0,70.0
5415,70.0,7,43,7.0,80.0
5416,54.0,2,49,10.0,87.0
5417,73.0,48,70,6.0,66.0
5418,66.0,1,62,8.0,80.0
5419,70.0,2,65,5.0,76.0
5420,73.0,2,64,4.0,82.0
5421,74.0,42,47,6.0,72.0
5422,74.0,13,38,4.0,72.0
5423,71.0,49,48,6.0,64.0
5424,58.0,2,46,10.0,85.0
5425,71.0,8,50,4.0,80.0
5426,66.0,2,71,8.0,74.0
5427,73.0,42,45,6.0,64.0
5428,73.0,6,39,4.0,64.0
5429,66.0,0,158,7.0,82.0
5430,66.0,6,155,5.0,76.0
5431,74.0,58,67,6.0,91.0
5432,47.0,3,63,10.0,93.0
5433,74.0,3,72,4.0,93.0
5434,71.0,0,80,8.0,89.0
5435,76.0,2,43,4.0,82.0
5436,76.0,50,52,6.0,80.0
5437,67.0,5,47,7.0,76.0
5438,67.0,3,47,5.0,72.0
5439,73.0,54,61,6.0,53.0
5440,73.0,2,58,4.0,63.0
5441,59.0,1,57,10.0,100.0
5442,66.0,1,62,8.0,64.0
5443,64.0,1,64,5.0,78.0
5444,64.0,3,70,7.0,72.0
5445,74.0,1,44,4.0,80.0
5446,66.0,3,47,7.0,78.0
5447,74.0,47,50,6.0,72.0
5448,66.0,3,46,5.0,78.0
5449,67.0,62,50,7.0,93.0
5450,52.0,1,56,10.0,82.0
5451,71.0,1,63,8.0,87.0
5452,76.0,0,70,6.0,87.0
5453,67.0,0,66,5.0,82.0
5454,76.0,5,71,4.0,105.0
5455,74.0,8,60,4.0,82.0
5456,74.0,47,71,6.0,72.0
5457,73.0,53,51,6.0,58.0
5458,73.0,0,47,4.0,62.0
5459,64.0,5,46,5.0,87.0
5460,64.0,2,53,7.0,85.0
5461,55.0,5,58,10.0,89.0
5462,71.0,1,63,8.0,82.0
5463,71.0,44,49,6.0,66.0
5464,71.0,3,48,4.0,82.0
5465,73.0,1,37,5.0,87.0
5466,73.0,2,46,7.0,80.0
5467,70.0,0,56,8.0,89.0
5468,54.0,7,71,10.0,102.0
5469,78.0,58,114,6.0,52.0
5470,78.0,48,53,7.0,68.0
5471,78.0,10,44,5.0,87.0
5472,78.0,10,112,4.0,64.0
5473,73.0,2,45,8.0,91.0
5474,70.0,44,61,7.0,74.0
5475,70.0,1,54,5.0,68.0
5476,42.0,11,60,10.0,76.0
5477,78.0,0,91,6.0,62.0
5478,71.0,37,45,7.0,78.0
5479,44.0,1,47,10.0,80.0
5480,78.0,4,93,0.0,64.0
5481,78.0,3,101,4.0,64.0
5482,71.0,15,53,5.0,78.0
5483,66.0,8,43,8.0,82.0
5484,73.0,48,56,7.0,85.0
5485,46.0,3,65,10.0,102.0
5486,73.0,3,62,5.0,76.0
5487,74.0,31,42,7.0,82.0
5488,78.0,2,104,6.0,61.0
5489,78.0,2,94,4.0,78.0
5490,74.0,17,48,5.0,82.0
5491,78.0,0,103,0.0,76.0
5492,73.0,40,65,7.0,64.0
5493,46.0,0,53,10.0,80.0
5494,73.0,0,61,5.0,64.0
5495,74.0,24,51,7.0,82.0
5496,47.0,8,46,10.0,82.0
5497,78.0,3,89,4.0,66.0
5498,78.0,23,98,6.0,59.0
5499,74.0,5,52,5.0,76.0
5500,78.0,6,92,0.0,76.0
5501,70.0,0,162,8.0,100.0
5502,76.0,58,63,7.0,100.0
5503,76.0,5,66,5.0,87.0
5504,49.0,6,94,10.0,102.0
5505,73.0,33,54,7.0,62.0
5506,78.0,2,99,4.0,82.0
5507,78.0,5,96,0.0,82.0
5508,78.0,5,105,6.0,64.0
5509,73.0,17,52,5.0,80.0
5510,73.0,3,45,8.0,87.0
5511,66.0,49,67,7.0,57.0
5512,46.0,10,62,10.0,74.0
5513,66.0,1,69,5.0,68.0
5514,78.0,6,88,6.0,64.0
5515,78.0,0,92,0.0,82.0
5516,78.0,0,92,4.0,70.0
5517,68.0,30,60,7.0,72.0
5518,47.0,8,54,10.0,80.0
5519,90.0,3,95,1.0,93.0
5520,68.0,11,67,5.0,74.0
5521,70.0,49,56,7.0,70.0
5522,64.0,0,50,8.0,87.0
5523,49.0,5,62,10.0,95.0
5524,70.0,0,65,5.0,68.0
5525,78.0,1,93,0.0,87.0
5526,78.0,7,97,6.0,64.0
5527,71.0,34,57,7.0,70.0
5528,78.0,3,98,4.0,78.0
5529,90.0,6,98,1.0,70.0
5530,71.0,11,58,5.0,66.0
5531,70.0,1,51,5.0,70.0
5532,49.0,4,51,10.0,80.0
5533,70.0,53,67,7.0,58.0
5534,78.0,7,95,6.0,63.0
5535,78.0,3,92,0.0,82.0
5536,78.0,2,94,4.0,82.0
5537,71.0,38,50,5.0,82.0
5538,90.0,8,94,1.0,68.0
5539,71.0,3,53,7.0,74.0
5540,50.0,4,52,10.0,80.0
5541,70.0,1,175,8.0,98.0
5542,73.0,0,66,5.0,91.0
5543,73.0,0,76,7.0,66.0
5544,52.0,5,73,10.0,100.0
5545,78.0,55,102,6.0,66.0
5546,78.0,3,99,0.0,85.0
5547,90.0,4,91,1.0,68.0
5548,71.0,43,52,7.0,66.0
5549,78.0,4,99,4.0,80.0
5550,71.0,8,71,5.0,72.0
5551,73.0,4,46,8.0,85.0
5552,70.0,45,67,7.0,59.0
5553,52.0,3,55,10.0,82.0
5554,70.0,0,65,5.0,70.0
5555,78.0,8,103,6.0,64.0
5556,90.0,0,93,2.0,85.0
5557,78.0,6,94,0.0,85.0
5558,90.0,0,94,1.0,63.0
5559,78.0,2,93,4.0,70.0
5560,71.0,39,53,7.0,72.0
5561,50.0,9,49,10.0,78.0
5562,71.0,7,52,5.0,82.0
5563,66.0,3,57,8.0,80.0
5564,73.0,50,73,7.0,91.0
5565,73.0,4,69,5.0,82.0
5566,52.0,4,83,10.0,89.0
5567,78.0,1,79,4.0,66.0
5568,90.0,0,88,2.0,82.0
5569,78.0,1,88,6.0,82.0
5570,78.0,3,88,0.0,87.0
5571,90.0,0,89,1.0,78.0
5572,76.0,41,66,7.0,93.0
5573,76.0,15,77,5.0,80.0
5574,74.0,41,57,7.0,80.0
5575,54.0,0,62,10.0,70.0
5576,74.0,0,64,5.0,70.0
5577,70.0,11,71,8.0,76.0
5578,78.0,0,75,6.0,82.0
5579,78.0,4,76,0.0,87.0
5580,78.0,4,72,4.0,85.0
5581,90.0,2,83,1.0,70.0
5582,90.0,1,93,2.0,82.0
5583,52.0,9,45,10.0,78.0
5584,73.0,38,55,7.0,66.0
5585,73.0,3,56,5.0,76.0
5586,71.0,53,52,7.0,82.0
5587,50.0,0,55,3.0,119.0
5588,71.0,2,60,8.0,87.0
5589,78.0,3,64,6.0,93.0
5590,71.0,1,56,5.0,85.0
5591,50.0,1,68,10.0,78.0
5592,78.0,4,67,4.0,85.0
5593,76.0,12,46,4.0,70.0
5594,76.0,37,68,6.0,80.0
5595,90.0,3,124,1.0,102.0
5596,83.0,1,138,0.0,85.0
5597,78.0,2,133,2.0,100.0
5598,50.0,1,41,10.0,80.0
5599,66.0,4,47,7.0,76.0
5600,78.0,43,69,6.0,82.0
5601,59.0,0,51,8.0,78.0
5602,66.0,7,49,5.0,68.0
5603,78.0,14,64,4.0,68.0
5604,49.0,0,41,10.0,70.0
5605,79.0,35,56,6.0,82.0
5606,79.0,10,48,4.0,80.0
5607,78.0,2,42,4.0,76.0
5608,78.0,59,48,6.0,95.0
5609,62.0,1,58,8.0,82.0
5610,50.0,1,99,10.0,82.0
5611,83.0,4,48,4.0,85.0
5612,83.0,52,61,6.0,89.0
5613,82.0,5,45,4.0,91.0
5614,52.0,4,38,10.0,70.0
5615,66.0,5,51,8.0,80.0
5616,82.0,52,65,6.0,80.0
5617,50.0,7,42,10.0,82.0
5618,83.0,43,50,6.0,80.0
5619,83.0,1,46,4.0,82.0
5620,71.0,1,268,7.0,87.0
5621,76.0,3,55,4.0,80.0
5622,76.0,58,64,6.0,85.0
5623,71.0,1,298,5.0,74.0
5624,49.0,1,70,10.0,85.0
5625,67.0,4,66,8.0,78.0
5626,74.0,45,50,6.0,68.0
5627,74.0,14,49,4.0,68.0
5628,76.0,48,52,6.0,64.0
5629,49.0,1,42,10.0,95.0
5630,64.0,3,48,7.0,76.0
5631,76.0,2,56,4.0,61.0
5632,64.0,1,64,5.0,72.0
5633,71.0,8,69,8.0,80.0
5634,47.0,4,45,10.0,85.0
5635,78.0,39,49,6.0,61.0
5636,78.0,10,41,4.0,62.0
5637,76.0,1,48,6.0,85.0
5638,76.0,1,43,4.0,82.0
5639,61.0,2,53,7.0,68.0
5640,70.0,3,61,8.0,70.0
5641,61.0,5,65,5.0,78.0
5642,49.0,54,89,10.0,102.0
5643,79.0,9,42,4.0,85.0
5644,79.0,47,66,6.0,89.0
5645,78.0,47,52,6.0,87.0
5646,78.0,3,43,4.0,87.0
5647,70.0,4,48,5.0,76.0
5648,70.0,4,54,7.0,80.0
5649,50.0,1,54,10.0,85.0
5650,66.0,1,57,8.0,76.0
5651,76.0,44,45,6.0,82.0
5652,49.0,10,39,10.0,85.0
5653,76.0,3,40,4.0,85.0
5654,71.0,4,50,7.0,89.0
5655,74.0,1,51,4.0,87.0
5656,71.0,1,48,5.0,85.0
5657,74.0,53,62,6.0,89.0
5658,66.0,3,58,8.0,85.0
5659,47.0,3,67,10.0,87.0
5660,49.0,47,52,10.0,89.0
5661,50.0,56,36,10.0,82.0
5662,78.0,0,44,4.0,89.0
5663,71.0,9,57,7.0,87.0
5664,71.0,3,55,5.0,82.0
5665,62.0,3,54,8.0,78.0
5666,78.0,1,56,6.0,85.0
5667,47.0,37,38,10.0,82.0
5668,52.0,70,50,10.0,82.0
5669,79.0,3,42,4.0,87.0
5670,79.0,6,48,6.0,91.0
5671,59.0,0,56,8.0,82.0
5672,71.0,7,56,5.0,82.0
5673,71.0,0,66,7.0,82.0
5674,54.0,40,46,10.0,85.0
5675,55.0,63,42,10.0,82.0
5676,67.0,1,48,5.0,80.0
5677,59.0,4,55,8.0,82.0
5678,64.0,4,52,7.0,76.0
5679,71.0,5,54,4.0,80.0
5680,71.0,5,59,6.0,85.0
5681,52.0,42,36,10.0,85.0
5682,70.0,69,67,4.0,70.0
5683,70.0,2,67,6.0,72.0
5684,66.0,51,67,4.0,68.0
5685,66.0,5,65,6.0,78.0
5686,68.0,51,68,4.0,63.0
5687,68.0,1,75,6.0,61.0
5688,70.0,0,45,4.0,72.0
5689,70.0,57,49,6.0,70.0
5690,61.0,2,237,7.0,85.0
5691,54.0,1,249,10.0,98.0
5692,66.0,3,254,5.0,78.0
5693,66.0,0,259,8.0,82.0
5694,71.0,4,59,4.0,72.0
5695,71.0,64,71,6.0,80.0
5696,73.0,3,52,4.0,60.0
5697,73.0,58,61,6.0,61.0
5698,52.0,1,49,10.0,87.0
5699,74.0,54,55,6.0,78.0
5700,74.0,2,54,4.0,68.0
5701,73.0,0,57,7.0,78.0
5702,70.0,2,55,8.0,80.0
5703,73.0,3,57,5.0,72.0
5704,76.0,51,45,4.0,85.0
5705,76.0,0,57,6.0,78.0
5706,71.0,63,61,7.0,82.0
5707,71.0,4,57,5.0,82.0
5708,66.0,1,64,8.0,85.0
5709,50.0,1,60,10.0,87.0
5710,78.0,0,72,6.0,68.0
5711,78.0,0,70,4.0,100.0
5712,79.0,5,54,4.0,82.0
5713,79.0,56,73,6.0,72.0
5714,70.0,0,44,7.0,74.0
5715,70.0,53,48,5.0,70.0
5716,61.0,1,55,8.0,70.0
5717,54.0,0,54,10.0,76.0
5718,78.0,3,59,4.0,58.0
5719,78.0,1,70,6.0,62.0
5720,76.0,1,64,6.0,68.0
5721,76.0,56,66,4.0,80.0
5722,74.0,5,39,4.0,80.0
5723,66.0,2,52,5.0,78.0
5724,66.0,55,54,7.0,82.0
5725,59.0,3,46,10.0,87.0
5726,59.0,1,58,8.0,80.0
5727,74.0,1,58,6.0,62.0
5728,73.0,48,60,4.0,80.0
5729,73.0,6,63,6.0,68.0
5730,66.0,6,58,7.0,82.0
5731,66.0,1,60,5.0,78.0
5732,62.0,1,59,8.0,85.0
5733,71.0,55,69,4.0,64.0
5734,71.0,0,68,6.0,70.0
5735,54.0,0,73,10.0,80.0
5736,70.0,8,45,6.0,68.0
5737,70.0,51,53,4.0,63.0
5738,71.0,60,50,4.0,87.0
5739,71.0,1,49,6.0,93.0
5740,62.0,2,59,7.0,85.0
5741,55.0,0,56,10.0,82.0
5742,62.0,4,58,5.0,82.0
5743,59.0,1,69,8.0,82.0
5744,52.0,0,54,10.0,78.0
5745,73.0,2,46,4.0,80.0
5746,67.0,114,60,7.0,82.0
5747,67.0,3,58,5.0,85.0
5748,73.0,7,52,6.0,80.0
5749,64.0,1,52,8.0,89.0
5750,66.0,4,45,6.0,82.0
5751,66.0,3,43,4.0,78.0
5752,62.0,1,52,8.0,87.0
5753,66.0,115,57,5.0,74.0
5754,66.0,0,58,7.0,70.0
5755,54.0,2,52,10.0,98.0
5756,42.0,4,44,10.0,78.0
5757,66.0,1,52,5.0,68.0
5758,66.0,0,52,7.0,82.0
5759,70.0,5,46,4.0,80.0
5760,61.0,3,59,8.0,85.0
5761,70.0,108,80,6.0,82.0
5762,71.0,6,73,6.0,89.0
5763,71.0,2,105,4.0,80.0
5764,66.0,54,62,6.0,64.0
5765,66.0,114,147,5.0,91.0
5766,62.0,54,64,6.0,64.0
5767,66.0,56,63,6.0,78.0
5768,66.0,0,248,7.0,95.0
5769,62.0,4,251,8.0,87.0
5770,47.0,4,250,10.0,80.0
5771,71.0,63,68,6.0,70.0
5772,74.0,63,60,6.0,78.0
5773,66.0,51,53,7.0,53.0
5774,58.0,4,56,10.0,63.0
5775,61.0,1,49,8.0,72.0
5776,73.0,9,52,6.0,68.0
5777,76.0,43,51,6.0,78.0
5778,59.0,5,47,8.0,66.0
5779,66.0,1,59,7.0,58.0
5780,59.0,2,60,10.0,76.0
5781,74.0,65,73,6.0,93.0
5782,78.0,53,61,6.0,64.0
5783,67.0,57,48,7.0,74.0
5784,55.0,3,51,10.0,70.0
5785,62.0,2,49,8.0,68.0
5786,83.0,1,61,6.0,72.0
5787,74.0,50,37,6.0,57.0
5788,61.0,4,46,8.0,64.0
5789,52.0,3,52,10.0,62.0
5790,67.0,0,55,7.0,70.0
5791,73.0,60,65,6.0,66.0
5792,83.0,57,55,6.0,66.0
5793,66.0,55,51,7.0,63.0
5794,54.0,1,50,10.0,63.0
5795,73.0,1,51,6.0,59.0
5796,61.0,12,42,8.0,70.0
5797,82.0,43,46,6.0,59.0
5798,83.0,64,61,6.0,98.0
5799,78.0,31,66,6.0,59.0
5800,74.0,61,59,6.0,68.0
5801,78.0,57,60,6.0,60.0
5802,62.0,9,231,8.0,76.0
5803,66.0,8,249,7.0,74.0
5804,47.0,4,249,10.0,64.0
5805,71.0,60,55,6.0,74.0
5806,74.0,51,48,6.0,70.0
5807,59.0,8,48,10.0,60.0
5808,68.0,67,60,6.0,66.0
5809,73.0,1,51,7.0,57.0
5810,68.0,1,56,8.0,63.0
5811,77.0,43,48,6.0,78.0
5812,57.0,1,60,10.0,64.0
5813,69.0,7,52,8.0,76.0
5814,73.0,1,63,7.0,57.0
5815,78.0,71,70,6.0,85.0
5816,73.0,52,63,6.0,61.0
5817,62.0,3,51,10.0,78.0
5818,66.0,5,48,8.0,66.0
5819,74.0,2,51,7.0,76.0
5820,69.0,58,63,6.0,57.0
5821,73.0,46,55,6.0,52.0
5822,68.0,61,57,6.0,68.0
5823,74.0,4,50,7.0,68.0
5824,59.0,7,55,10.0,64.0
5825,71.0,3,48,8.0,82.0
5826,78.0,35,59,6.0,60.0
5827,68.0,62,56,6.0,82.0
5828,61.0,5,46,10.0,62.0
5829,71.0,2,45,8.0,78.0
5830,73.0,16,53,7.0,64.0
5831,77.0,39,45,6.0,72.0
5832,78.0,67,68,6.0,85.0
5833,54.0,8,93,10.0,52.0
5834,73.0,47,59,6.0,58.0
5835,69.0,58,64,6.0,59.0
5836,54.0,7,93,10.0,59.0
5837,73.0,52,49,6.0,58.0
5838,69.0,1,253,8.0,76.0
5839,73.0,1,260,7.0,63.0
5840,78.0,69,77,6.0,80.0
5841,54.0,4,77,10.0,57.0
5842,79.0,49,62,6.0,80.0
5843,81.0,1,47,6.0,85.0
5844,54.0,64,53,10.0,43.0
5845,66.0,1,48,8.0,62.0
5846,73.0,3,50,7.0,63.0
5847,78.0,56,40,6.0,53.0
5848,66.0,3,51,8.0,76.0
5849,69.0,60,57,7.0,60.0
5850,72.0,3,66,6.0,70.0
5851,71.0,53,66,6.0,62.0
5852,72.0,1,43,6.0,58.0
5853,69.0,2,44,7.0,46.0
5854,66.0,0,53,8.0,51.0
5855,81.0,58,28,6.0,57.0
5856,52.0,63,104,10.0,64.0
5857,72.0,62,72,6.0,70.0
5858,52.0,9,78,10.0,38.0
5859,71.0,44,68,6.0,66.0
5860,69.0,62,47,7.0,66.0
5861,66.0,10,41,8.0,60.0
5862,72.0,2,57,6.0,64.0
5863,52.0,1,55,10.0,39.0
5864,81.0,50,27,6.0,62.0
5865,66.0,3,57,8.0,78.0
5866,63.0,61,74,7.0,78.0
5867,71.0,1,75,6.0,82.0
5868,69.0,55,73,6.0,59.0
5869,66.0,5,48,8.0,57.0
5870,69.0,8,50,7.0,49.0
5871,71.0,58,75,6.0,61.0
5872,51.0,3,103,10.0,60.0
5873,73.0,48,80,6.0,59.0
5874,75.0,58,49,6.0,60.0
5875,51.0,5,92,10.0,47.0
5876,76.0,47,73,6.0,76.0
5877,66.0,14,44,8.0,68.0
5878,51.0,4,45,10.0,49.0
5879,78.0,59,66,6.0,52.0
5880,71.0,2,56,7.0,64.0
5881,79.0,41,53,6.0,72.0
5882,63.0,1,61,8.0,74.0
5883,81.0,1,63,6.0,98.0
5884,71.0,71,68,7.0,85.0
5885,78.0,51,72,6.0,64.0
5886,66.0,2,50,8.0,58.0
5887,75.0,63,57,6.0,76.0
5888,71.0,2,54,7.0,64.0
5889,47.0,1,95,10.0,68.0
5890,78.0,53,69,6.0,80.0
5891,71.0,59,48,6.0,66.0
5892,47.0,13,80,10.0,51.0
5893,81.0,41,78,6.0,87.0
5894,47.0,13,46,10.0,50.0
5895,79.0,60,59,6.0,68.0
5896,63.0,5,43,8.0,58.0
5897,71.0,0,51,7.0,63.0
5898,78.0,42,45,6.0,66.0
5899,64.0,12,57,8.0,87.0
5900,71.0,1,58,7.0,80.0
5901,79.0,60,82,6.0,85.0
5902,76.0,43,85,6.0,62.0
5903,67.0,8,50,8.0,59.0
5904,76.0,0,53,7.0,59.0
5905,71.0,63,70,6.0,68.0
5906,67.0,51,52,6.0,64.0
5907,52.0,1,104,10.0,82.0
5908,71.0,66,61,6.0,64.0
5909,52.0,7,94,10.0,62.0
5910,76.0,52,63,6.0,70.0
5911,52.0,6,44,10.0,53.0
5912,71.0,0,55,8.0,85.0
5913,79.0,66,56,6.0,72.0
5914,76.0,1,55,7.0,78.0
5915,81.0,49,37,6.0,72.0
5916,64.0,3,44,8.0,59.0
5917,71.0,3,58,7.0,76.0
5918,80.0,61,75,6.0,100.0
5919,78.0,50,66,6.0,58.0
5920,64.0,0,40,8.0,42.0
5921,80.0,4,59,6.0,56.0
5922,71.0,60,65,7.0,42.0
5923,83.0,60,40,6.0,60.0
5924,50.0,2,108,10.0,76.0
5925,80.0,59,77,6.0,87.0
5926,50.0,11,93,10.0,60.0
5927,78.0,45,92,6.0,55.0
5928,64.0,69,38,8.0,59.0
5929,80.0,1,52,6.0,68.0
5930,71.0,2,58,7.0,82.0
5931,50.0,6,61,10.0,53.0
5932,83.0,45,39,6.0,70.0
5933,64.0,63,58,8.0,76.0
5934,81.0,2,65,6.0,78.0
5935,73.0,5,62,7.0,70.0
5936,76.0,48,75,6.0,64.0
5937,69.0,58,55,8.0,60.0
5938,73.0,3,56,6.0,60.0
5939,76.0,0,62,7.0,58.0
5940,76.0,52,44,6.0,63.0
5941,49.0,5,106,10.0,72.0
5942,69.0,62,76,6.0,78.0
5943,49.0,6,95,10.0,51.0
5944,71.0,54,67,6.0,64.0
5945,69.0,64,47,8.0,70.0
5946,76.0,0,50,7.0,68.0
5947,73.0,0,54,6.0,58.0
5948,49.0,3,59,10.0,57.0
5949,74.0,51,64,6.0,66.0
5950,69.0,5,52,8.0,85.0
5951,73.0,7,63,7.0,72.0
5952,76.0,61,74,6.0,68.0
5953,78.0,49,62,6.0,60.0
5954,79.0,58,62,6.0,66.0
5955,64.0,2,52,8.0,55.0
5956,73.0,7,67,7.0,49.0
5957,81.0,48,44,6.0,68.0
5958,45.0,3,103,10.0,82.0
5959,79.0,63,65,6.0,93.0
5960,45.0,7,64,10.0,59.0
5961,78.0,49,55,6.0,80.0
5962,69.0,7,41,8.0,70.0
5963,79.0,65,52,6.0,72.0
5964,76.0,2,51,5.0,72.0
5965,45.0,0,54,10.0,27.0
5966,73.0,0,53,7.0,61.0
5967,79.0,2,57,4.0,68.0
5968,76.0,49,44,6.0,58.0
5969,74.0,1,51,7.0,68.0
5970,74.0,5,47,5.0,66.0
5971,78.0,0,78,6.0,95.0
5972,50.0,0,84,10.0,68.0
5973,69.0,67,90,8.0,70.0
5974,78.0,0,108,4.0,60.0
5975,74.0,56,53,6.0,70.0
5976,78.0,3,44,7.0,62.0
5977,69.0,3,54,5.0,63.0
5978,69.0,55,63,6.0,66.0
5979,62.0,2,62,10.0,76.0
5980,72.0,49,46,6.0,60.0
5981,55.0,3,41,10.0,61.0
5982,71.0,62,58,6.0,89.0
5983,71.0,5,76,5.0,66.0
5984,78.0,9,87,7.0,82.0
5985,74.0,44,53,6.0,63.0
5986,67.0,5,39,8.0,64.0
5987,67.0,47,64,6.0,55.0
5988,59.0,13,62,10.0,66.0
5989,78.0,6,57,4.0,62.0
5990,78.0,39,34,6.0,74.0
5991,67.0,2,55,8.0,70.0
5992,76.0,69,75,6.0,85.0
5993,49.0,3,82,10.0,80.0
5994,76.0,9,106,4.0,66.0
5995,73.0,44,75,6.0,59.0
5996,76.0,1,45,7.0,72.0
5997,71.0,11,45,5.0,68.0
5998,67.0,57,65,6.0,60.0
5999,61.0,7,72,10.0,63.0
6000,71.0,43,47,6.0,70.0
6001,69.0,57,56,6.0,80.0
6002,54.0,3,53,10.0,58.0
6003,69.0,10,78,5.0,64.0
6004,76.0,5,95,7.0,78.0
6005,73.0,40,75,6.0,50.0
6006,66.0,58,47,6.0,58.0
6007,66.0,4,36,8.0,70.0
6008,76.0,5,53,4.0,74.0
6009,57.0,6,61,10.0,61.0
6010,76.0,45,47,6.0,82.0
6011,74.0,65,76,6.0,82.0
6012,47.0,2,79,10.0,80.0
6013,66.0,5,93,8.0,66.0
6014,71.0,51,47,6.0,68.0
6015,74.0,5,132,4.0,66.0
6016,74.0,1,45,7.0,68.0
6017,69.0,3,52,5.0,70.0
6018,66.0,57,63,6.0,68.0
6019,59.0,5,65,10.0,74.0
6020,69.0,48,54,6.0,70.0
6021,52.0,3,52,10.0,63.0
6022,67.0,64,61,6.0,74.0
6023,67.0,3,59,5.0,70.0
6024,74.0,1,101,7.0,85.0
6025,71.0,49,58,6.0,70.0
6026,64.0,62,49,8.0,68.0
6027,64.0,0,54,6.0,63.0
6028,55.0,8,57,10.0,70.0
6029,71.0,3,61,5.0,70.0
6030,74.0,2,59,4.0,80.0
6031,74.0,48,34,6.0,82.0
6032,45.0,3,18,3.0,105.0
6033,45.0,26,19,3.0,105.0
6034,64.0,63,62,8.0,80.0
6035,69.0,0,61,5.0,76.0
6036,73.0,2,63,4.0,68.0
6037,73.0,3,77,6.0,93.0
6038,93.0,1,67,1.0,85.0
6039,81.0,1,71,2.0,102.0
6040,88.0,3,75,0.0,98.0
6041,45.0,11,20,3.0,80.0
6042,76.0,19,53,6.0,70.0
6043,45.0,27,18,3.0,98.0
6044,45.0,0,19,3.0,80.0
6045,69.0,19,44,6.0,56.0
6046,45.0,23,16,3.0,70.0
6047,67.0,0,52,8.0,70.0
6048,76.0,0,53,7.0,85.0
6049,76.0,1,50,4.0,72.0
6050,73.0,12,56,5.0,66.0
6051,45.0,6,18,3.0,76.0
6052,73.0,30,39,6.0,59.0
6053,45.0,21,16,3.0,64.0
6054,45.0,3,18,3.0,66.0
6055,45.0,14,15,3.0,60.0
6056,66.0,23,60,8.0,70.0
6057,74.0,3,54,4.0,80.0
6058,69.0,0,66,7.0,85.0
6059,69.0,3,59,5.0,80.0
6060,74.0,8,73,6.0,85.0
6061,86.0,1,68,1.0,91.0
6062,81.0,5,66,2.0,110.0
6063,90.0,1,72,0.0,89.0
6064,45.0,1,36,3.0,66.0
6065,78.0,32,55,6.0,66.0
6066,45.0,2,35,3.0,66.0
6067,69.0,4,48,6.0,63.0
6068,78.0,4,56,7.0,80.0
6069,78.0,0,56,4.0,70.0
6070,62.0,49,72,8.0,66.0
6071,74.0,7,58,5.0,74.0
6072,74.0,53,32,6.0,66.0
6073,45.0,3,33,3.0,74.0
6074,45.0,2,32,3.0,76.0
6075,76.0,0,56,4.0,76.0
6076,73.0,1,59,5.0,62.0
6077,73.0,1,60,7.0,85.0
6078,69.0,57,75,8.0,85.0
6079,76.0,0,72,6.0,89.0
6080,88.0,4,70,1.0,89.0
6081,91.0,0,76,0.0,98.0
6082,81.0,6,69,2.0,102.0
6083,45.0,46,43,3.0,80.0
6084,79.0,5,52,6.0,85.0
6085,45.0,4,18,3.0,78.0
6086,45.0,20,22,3.0,80.0
6087,69.0,0,55,6.0,60.0
6088,76.0,3,53,7.0,85.0
6089,76.0,3,57,5.0,78.0
6090,79.0,4,64,4.0,82.0
6091,45.0,30,15,3.0,62.0
6092,61.0,49,80,8.0,66.0
6093,76.0,1,31,6.0,70.0
6094,45.0,31,21,3.0,93.0
6095,45.0,2,14,3.0,60.0
6096,69.0,5,44,7.0,78.0
6097,62.0,26,61,8.0,72.0
6098,78.0,5,48,4.0,82.0
6099,74.0,2,56,5.0,72.0
6100,45.0,13,42,3.0,91.0
6101,78.0,0,72,6.0,102.0
6102,90.0,3,65,0.0,100.0
6103,86.0,1,77,1.0,87.0
6104,81.0,2,73,2.0,105.0
6105,81.0,32,50,6.0,76.0
6106,45.0,32,42,3.0,87.0
6107,66.0,8,52,8.0,72.0
6108,66.0,3,50,5.0,63.0
6109,69.0,5,49,7.0,80.0
6110,74.0,18,72,6.0,68.0
6111,81.0,5,55,4.0,80.0
6112,45.0,22,41,3.0,82.0
6113,78.0,15,37,6.0,62.0
6114,45.0,47,22,3.0,87.0
6115,45.0,0,17,3.0,51.0
6116,45.0,8,20,3.0,78.0
6117,73.0,22,69,6.0,82.0
6118,69.0,4,65,5.0,70.0
6119,73.0,4,60,4.0,70.0
6120,64.0,2,73,8.0,87.0
6121,88.0,0,69,0.0,91.0
6122,93.0,7,67,1.0,98.0
6123,45.0,14,19,3.0,68.0
6124,81.0,7,68,2.0,100.0
6125,76.0,21,55,6.0,66.0
6126,45.0,25,25,3.0,91.0
6127,45.0,3,20,3.0,80.0
6128,45.0,34,18,3.0,64.0
6129,76.0,1,54,4.0,74.0
6130,67.0,5,60,8.0,78.0
6131,69.0,23,71,6.0,63.0
6132,73.0,1,72,5.0,61.0
6133,45.0,17,19,3.0,72.0
6134,73.0,12,52,6.0,59.0
6135,45.0,33,18,3.0,74.0
6136,45.0,1,17,3.0,70.0
6137,61.0,5,52,8.0,80.0
6138,76.0,14,60,6.0,78.0
6139,45.0,28,18,3.0,80.0
6140,76.0,3,58,5.0,70.0
6141,69.0,3,67,4.0,70.0
6142,81.0,3,61,2.0,100.0
6143,88.0,0,68,1.0,87.0
6144,93.0,4,69,0.0,89.0
6145,45.0,19,19,3.0,72.0
6146,79.0,10,66,6.0,80.0
6147,45.0,2,19,3.0,80.0
6148,45.0,6,17,3.0,68.0
6149,57.0,11,58,8.0,78.0
6150,78.0,32,76,6.0,70.0
6151,81.0,5,64,5.0,78.0
6152,73.0,7,57,4.0,70.0
6153,45.0,3,22,3.0,91.0
6154,45.0,31,16,3.0,62.0
6155,76.0,30,56,6.0,78.0
6156,45.0,35,42,3.0,85.0
6157,69.0,4,526,7.0,87.0
6158,78.0,0,66,6.0,93.0
6159,78.0,6,64,5.0,70.0
6160,74.0,5,61,4.0,82.0
6161,81.0,3,58,2.0,93.0
6162,90.0,1,65,0.0,93.0
6163,86.0,6,80,1.0,80.0
6164,45.0,13,39,3.0,85.0
6165,74.0,32,64,6.0,70.0
6166,45.0,2,23,3.0,85.0
6167,78.0,3,51,7.0,74.0
6168,45.0,25,16,3.0,70.0
6169,71.0,52,61,6.0,80.0
6170,74.0,5,54,5.0,80.0
6171,71.0,7,54,4.0,76.0
6172,45.0,19,24,3.0,85.0
6173,45.0,35,15,3.0,57.0
6174,74.0,14,76,6.0,80.0
6175,45.0,4,20,3.0,80.0
6176,71.0,5,56,7.0,72.0
6177,68.0,7,63,6.0,98.0
6178,71.0,3,56,5.0,74.0
6179,45.0,3,20,3.0,64.0
6180,68.0,9,61,4.0,66.0
6181,86.0,0,69,1.0,89.0
6182,92.0,0,66,0.0,93.0
6183,74.0,5,75,2.0,98.0
6184,45.0,32,24,3.0,66.0
6185,78.0,27,66,6.0,64.0
6186,45.0,8,12,3.0,48.0
6187,80.0,2,37,7.0,87.0
6188,80.0,6,49,5.0,78.0
6189,76.0,25,63,6.0,63.0
6190,71.0,6,53,4.0,80.0
6191,45.0,17,38,3.0,82.0
6192,62.0,0,430,8.0,80.0
6193,74.0,21,41,6.0,64.0
6194,45.0,33,28,3.0,87.0
6195,45.0,3,22,3.0,102.0
6196,73.0,30,70,6.0,87.0
6197,81.0,7,58,2.0,100.0
6198,88.0,1,56,1.0,89.0
6199,45.0,4,1988,10.0,63.0
6200,93.0,5,79,0.0,87.0
6201,74.0,31,80,6.0,78.0
6202,81.0,2,144,5.0,80.0
6203,81.0,3,21,1.0,85.0
6204,73.0,1,142,4.0,82.0
6205,81.0,8,29,2.0,100.0
6206,81.0,0,29,0.0,82.0
6207,47.0,11,61,10.0,59.0
6208,73.0,63,74,6.0,63.0
6209,81.0,8,27,1.0,85.0
6210,81.0,4,29,2.0,87.0
6211,81.0,2,31,0.0,87.0
6212,71.0,35,63,6.0,68.0
6213,81.0,0,243,7.0,80.0
6214,64.0,5,262,8.0,63.0
6215,81.0,2,40,2.0,98.0
6216,81.0,6,42,1.0,89.0
6217,81.0,5,39,0.0,98.0
6218,49.0,2,51,10.0,64.0
6219,69.0,46,69,6.0,70.0
6220,67.0,43,63,6.0,63.0
6221,81.0,3,40,1.0,76.0
6222,81.0,2,43,2.0,95.0
6223,81.0,2,41,0.0,85.0
6224,66.0,66,57,6.0,54.0
6225,45.0,6,53,10.0,70.0
6226,64.0,48,30,6.0,74.0
6227,63.0,3,51,6.0,60.0
6228,69.0,43,72,6.0,66.0
6229,81.0,4,131,2.0,100.0
6230,81.0,1,134,1.0,87.0
6231,81.0,5,151,0.0,78.0
6232,69.0,67,178,7.0,57.0
6233,59.0,71,53,8.0,64.0
6234,71.0,1,66,6.0,66.0
6235,61.0,51,53,8.0,58.0
6236,69.0,0,58,6.0,64.0
6237,42.0,1,262,10.0,58.0
6238,63.0,8,49,8.0,60.0
6239,71.0,55,76,6.0,54.0
6240,69.0,50,82,6.0,57.0
6241,63.0,65,51,8.0,46.0
6242,71.0,5,59,6.0,62.0
6243,64.0,40,57,8.0,68.0
6244,69.0,9,60,6.0,60.0
6245,78.0,3,252,7.0,57.0
6246,66.0,62,67,8.0,68.0
6247,63.0,7,78,6.0,60.0
6248,69.0,36,69,6.0,64.0
6249,63.0,1,54,8.0,56.0
6250,71.0,58,85,6.0,59.0
6251,64.0,48,56,8.0,70.0
6252,69.0,21,69,6.0,61.0
6253,47.0,21,258,10.0,68.0
6254,66.0,45,52,8.0,70.0
6255,71.0,16,72,6.0,66.0
6256,69.0,57,73,6.0,60.0
6257,66.0,51,57,8.0,66.0
6258,71.0,14,64,6.0,63.0
6259,67.0,32,54,8.0,78.0
6260,69.0,22,46,6.0,60.0
6261,75.0,0,245,7.0,61.0
6262,69.0,53,59,8.0,80.0
6263,63.0,16,68,6.0,76.0
6264,69.0,53,79,6.0,78.0
6265,69.0,0,53,8.0,66.0
6266,47.0,56,57,10.0,76.0
6267,71.0,16,70,6.0,66.0
6268,68.0,29,50,8.0,57.0
6269,69.0,1,1200,5.0,48.0
6270,72.0,27,81,6.0,64.0
6271,51.0,7,49,10.0,74.0
6272,69.0,42,68,8.0,78.0
6273,71.0,3,57,6.0,62.0
6274,69.0,57,66,6.0,59.0
6275,47.0,2,51,10.0,82.0
6276,71.0,53,59,8.0,66.0
6277,68.0,2,72,6.0,59.0
6278,69.0,47,47,8.0,63.0
6279,66.0,0,212,5.0,54.0
6280,66.0,11,45,6.0,47.0
6281,71.0,6,242,7.0,66.0
6282,62.0,1,68,6.0,82.0
6283,68.0,48,69,6.0,59.0
6284,64.0,14,54,7.0,68.0
6285,71.0,60,75,6.0,54.0
6286,68.0,8,188,8.0,59.0
6287,66.0,41,53,7.0,62.0
6288,68.0,5,68,6.0,62.0
6289,52.0,2,259,10.0,66.0
6290,68.0,57,62,7.0,80.0
6291,71.0,4,68,6.0,63.0
6292,68.0,37,70,6.0,56.0
6293,68.0,1,51,7.0,57.0
6294,71.0,67,67,6.0,72.0
6295,68.0,52,36,6.0,63.0
6296,69.0,0,52,7.0,70.0
6297,64.0,17,244,8.0,59.0
6298,71.0,63,71,7.0,80.0
6299,62.0,3,72,6.0,64.0
6300,68.0,35,58,6.0,59.0
6301,68.0,11,56,7.0,63.0
6302,71.0,57,71,6.0,68.0
6303,69.0,12,59,7.0,68.0
6304,68.0,45,76,6.0,56.0
6305,40.0,20,250,10.0,70.0
6306,71.0,15,53,7.0,82.0
6307,71.0,50,78,6.0,68.0
6308,68.0,42,71,6.0,59.0
6309,71.0,21,55,7.0,68.0
6310,71.0,59,78,6.0,58.0
6311,68.0,36,46,6.0,58.0
6312,73.0,10,45,7.0,63.0
6313,68.0,1,265,8.0,55.0
6314,74.0,4,60,7.0,85.0
6315,62.0,58,72,6.0,68.0
6316,68.0,48,80,6.0,58.0
6317,74.0,8,56,7.0,68.0
6318,40.0,3,56,10.0,66.0
6319,71.0,64,81,6.0,82.0
6320,73.0,2,38,7.0,78.0
6321,74.0,0,1181,4.0,70.0
6322,69.0,44,77,6.0,74.0
6323,52.0,1,59,10.0,76.0
6324,68.0,56,76,6.0,64.0
6325,74.0,12,71,7.0,85.0
6326,66.0,30,64,6.0,57.0
6327,44.0,0,49,10.0,72.0
6328,64.0,67,64,6.0,63.0
6329,73.0,14,59,7.0,59.0
6330,62.0,39,38,6.0,68.0
6331,71.0,9,45,7.0,70.0
6332,68.0,62,1420,5.0,57.0
6333,71.0,3,225,4.0,60.0
6334,71.0,8,248,8.0,66.0
6335,61.0,65,64,6.0,87.0
6336,67.0,29,79,6.0,68.0
6337,73.0,6,180,7.0,57.0
6338,69.0,67,70,6.0,62.0
6339,57.0,16,54,8.0,76.0
6340,81.0,3,94,0.0,58.0
6341,59.0,15,56,8.0,66.0
6342,67.0,33,73,6.0,61.0
6343,45.0,4,238,10.0,76.0
6344,61.0,7,48,8.0,80.0
6345,69.0,53,73,6.0,63.0
6346,81.0,3,95,0.0,68.0
6347,67.0,40,73,6.0,60.0
6348,61.0,63,58,8.0,66.0
6349,69.0,2,67,6.0,60.0
6350,62.0,39,56,8.0,78.0
6351,81.0,11,95,0.0,74.0
6352,67.0,3,54,6.0,66.0
6353,76.0,9,255,7.0,70.0
6354,61.0,2,61,6.0,87.0
6355,64.0,68,73,8.0,85.0
6356,81.0,10,92,0.0,76.0
6357,67.0,35,77,6.0,74.0
6358,61.0,8,57,8.0,68.0
6359,69.0,68,71,6.0,60.0
6360,81.0,3,96,0.0,66.0
6361,81.0,3,89,1.0,82.0
6362,62.0,5,45,8.0,68.0
6363,67.0,42,62,6.0,68.0
6364,57.0,10,244,10.0,63.0
6365,64.0,10,59,8.0,82.0
6366,69.0,51,71,6.0,59.0
6367,81.0,1,88,0.0,70.0
6368,81.0,6,91,1.0,76.0
6369,67.0,37,75,6.0,66.0
6370,69.0,64,60,6.0,55.0
6371,64.0,4,59,8.0,78.0
6372,81.0,5,83,0.0,68.0
6373,67.0,34,50,6.0,66.0
6374,81.0,11,94,1.0,80.0
6375,66.0,17,57,8.0,74.0
6376,73.0,1,242,7.0,52.0
6377,67.0,1,54,8.0,89.0
6378,61.0,53,61,6.0,87.0
6379,81.0,4,98,0.0,78.0
6380,81.0,8,92,1.0,74.0
6381,67.0,38,91,6.0,74.0
6382,45.0,1,43,3.0,95.0
6383,45.0,0,59,10.0,68.0
6384,67.0,6,61,8.0,66.0
6385,69.0,71,81,6.0,70.0
6386,88.0,2,85,0.0,85.0
6387,81.0,1,75,1.0,70.0
6388,81.0,3,88,2.0,80.0
6389,67.0,8,1178,5.0,59.0
6390,66.0,48,56,8.0,66.0
6391,71.0,6,79,6.0,68.0
6392,45.0,1,44,3.0,98.0
6393,49.0,0,46,10.0,72.0
6394,67.0,1,64,8.0,82.0
6395,81.0,1,75,1.0,82.0
6396,88.0,53,85,0.0,85.0
6397,69.0,1,83,6.0,70.0
6398,81.0,2,92,2.0,80.0
6399,67.0,47,65,6.0,70.0
6400,45.0,1,36,3.0,91.0
6401,45.0,1,45,10.0,78.0
6402,66.0,2,60,6.0,55.0
6403,88.0,52,73,1.0,87.0
6404,69.0,2,60,8.0,70.0
6405,93.0,1,82,0.0,76.0
6406,64.0,2,30,6.0,68.0
6407,81.0,10,81,2.0,87.0
6408,67.0,44,45,8.0,64.0
6409,64.0,12,221,5.0,64.0
6410,69.0,0,234,7.0,66.0
6411,73.0,6,1445,4.0,58.0
6412,50.0,0,27,3.0,102.0
6413,50.0,17,20,3.0,85.0
6414,60.0,0,69,6.0,85.0
6415,50.0,13,24,3.0,80.0
6416,86.0,63,93,1.0,87.0
6417,90.0,1,95,0.0,89.0
6418,81.0,4,105,2.0,82.0
6419,50.0,34,16,3.0,98.0
6420,66.0,20,65,6.0,53.0
6421,50.0,3,19,3.0,63.0
6422,62.0,4,59,7.0,68.0
6423,69.0,14,68,6.0,58.0
6424,50.0,34,22,3.0,105.0
6425,66.0,0,192,8.0,64.0
6426,69.0,0,76,2.0,82.0
6427,74.0,2,80,1.0,82.0
6428,78.0,6,86,0.0,82.0
6429,50.0,27,14,3.0,58.0
6430,64.0,4,54,7.0,62.0
6431,66.0,5,65,6.0,57.0
6432,50.0,10,255,10.0,70.0
6433,50.0,30,43,3.0,85.0
6434,66.0,2,56,7.0,80.0
6435,69.0,0,64,6.0,64.0
6436,50.0,5,20,3.0,89.0
6437,69.0,3,95,2.0,85.0
6438,78.0,8,88,0.0,93.0
6439,74.0,4,85,1.0,98.0
6440,50.0,30,17,3.0,55.0
6441,66.0,29,71,6.0,59.0
6442,50.0,3,17,3.0,80.0
6443,50.0,18,22,3.0,66.0
6444,66.0,1,53,7.0,57.0
6445,69.0,31,67,6.0,64.0
6446,50.0,10,21,3.0,82.0
6447,81.0,1,81,0.0,82.0
6448,74.0,0,86,2.0,87.0
6449,78.0,6,80,1.0,85.0
6450,66.0,1,51,6.0,59.0
6451,67.0,23,53,7.0,80.0
6452,50.0,34,18,3.0,57.0
6453,62.0,9,239,8.0,60.0
6454,50.0,3,24,3.0,91.0
6455,50.0,15,23,3.0,72.0
6456,69.0,1,67,7.0,87.0
6457,60.0,23,76,6.0,78.0
6458,50.0,10,23,3.0,98.0
6459,81.0,1,89,0.0,80.0
6460,78.0,2,91,1.0,82.0
6461,74.0,1,95,2.0,89.0
6462,66.0,22,56,6.0,60.0
6463,50.0,31,22,3.0,91.0
6464,50.0,6,21,3.0,95.0
6465,66.0,1,54,7.0,61.0
6466,50.0,29,21,3.0,85.0
6467,69.0,20,67,6.0,63.0
6468,81.0,2,76,1.0,85.0
6469,78.0,3,82,2.0,89.0
6470,86.0,0,83,0.0,85.0
6471,50.0,16,18,3.0,78.0
6472,67.0,7,53,7.0,66.0
6473,66.0,11,65,6.0,53.0
6474,50.0,32,22,3.0,74.0
6475,38.0,15,238,10.0,68.0
6476,50.0,4,23,3.0,91.0
6477,69.0,7,52,7.0,85.0
6478,69.0,10,66,6.0,66.0
6479,50.0,3,18,3.0,72.0
6480,78.0,0,89,2.0,85.0
6481,81.0,5,86,1.0,82.0
6482,86.0,2,91,0.0,87.0
6483,50.0,28,21,3.0,93.0
6484,66.0,31,79,6.0,63.0
6485,50.0,32,18,3.0,78.0
6486,50.0,5,19,3.0,93.0
6487,69.0,1,54,7.0,82.0
6488,69.0,5,75,6.0,60.0
6489,50.0,4,21,3.0,80.0
6490,86.0,7,70,1.0,93.0
6491,90.0,2,78,0.0,89.0
6492,81.0,9,83,2.0,85.0
6493,50.0,18,18,3.0,59.0
6494,66.0,30,53,6.0,56.0
6495,71.0,9,44,7.0,80.0
6496,50.0,38,17,3.0,82.0
6497,66.0,2,258,8.0,62.0
6498,50.0,14,22,3.0,98.0
6499,72.0,3,54,7.0,80.0
6500,60.0,1,71,6.0,87.0
6501,86.0,4,68,1.0,93.0
6502,50.0,6,19,3.0,76.0
6503,90.0,1,85,0.0,85.0
6504,81.0,2,94,2.0,80.0
6505,72.0,2,1045,4.0,59.0
6506,50.0,29,23,3.0,100.0
6507,66.0,30,86,6.0,64.0
6508,50.0,4,17,3.0,72.0
6509,50.0,24,22,3.0,93.0
6510,72.0,3,50,7.0,68.0
6511,90.0,30,64,1.0,70.0
6512,50.0,2,67,10.0,91.0
6513,86.0,0,76,2.0,89.0
6514,69.0,0,77,6.0,76.0
6515,93.0,0,74,0.0,85.0
6516,50.0,9,23,3.0,80.0
6517,71.0,18,51,7.0,66.0
6518,69.0,2,110,4.0,58.0
6519,67.0,5,80,6.0,76.0
6520,50.0,36,50,3.0,82.0
6521,72.0,6,67,7.0,78.0
6522,93.0,2,65,0.0,80.0
6523,38.0,13,77,10.0,98.0
6524,90.0,0,76,1.0,95.0
6525,66.0,1,84,6.0,59.0
6526,50.0,31,40,3.0,95.0
6527,86.0,0,92,2.0,80.0
6528,66.0,3,101,4.0,68.0
6529,64.0,9,66,6.0,66.0
6530,50.0,51,39,3.0,85.0
6531,42.0,2,51,10.0,102.0
6532,71.0,4,47,7.0,60.0
6533,62.0,6,66,6.0,72.0
6534,69.0,10,170,8.0,70.0
6535,98.0,2,67,0.0,85.0
6536,93.0,1,70,1.0,85.0
6537,50.0,36,27,3.0,102.0
6538,90.0,5,86,2.0,82.0
6539,60.0,7,34,6.0,62.0
6540,66.0,2,1398,5.0,56.0
6541,69.0,3,39,7.0,74.0
6542,62.0,4,95,4.0,66.0
6543,50.0,52,28,3.0,102.0
6544,43.0,1,68,10.0,98.0
6545,59.0,0,72,6.0,82.0
6546,95.0,10,122,1.0,91.0
6547,91.0,1,124,2.0,87.0
6548,98.0,2,122,0.0,89.0
6549,55.0,31,80,6.0,76.0
6550,71.0,3,140,4.0,66.0
6551,62.0,2,159,5.0,60.0
6552,57.0,4,66,6.0,74.0
6553,42.0,62,70,10.0,78.0
6554,60.0,60,40,6.0,74.0
6555,71.0,0,249,7.0,64.0
6556,62.0,12,237,8.0,59.0
6557,59.0,59,63,6.0,85.0
6558,43.0,5,72,10.0,93.0
6559,62.0,51,37,6.0,66.0
6560,61.0,63,55,6.0,82.0
6561,45.0,9,59,10.0,91.0
6562,64.0,46,36,6.0,66.0
6563,47.0,4,62,10.0,95.0
6564,62.0,68,69,6.0,98.0
6565,59.0,52,77,6.0,87.0
6566,61.0,57,76,6.0,68.0
6567,45.0,11,67,10.0,68.0
6568,64.0,50,46,6.0,72.0
6569,62.0,64,69,6.0,85.0
6570,47.0,6,67,10.0,74.0
6571,66.0,45,55,6.0,68.0
6572,64.0,68,68,6.0,95.0
6573,49.0,7,67,10.0,78.0
6574,67.0,48,38,6.0,72.0
6575,66.0,66,77,6.0,100.0
6576,50.0,4,74,10.0,82.0
6577,62.0,54,71,6.0,82.0
6578,64.0,58,59,6.0,78.0
6579,49.0,7,66,10.0,62.0
6580,67.0,50,42,6.0,70.0
6581,66.0,62,68,6.0,82.0
6582,50.0,2,67,10.0,66.0
6583,69.0,53,40,6.0,72.0
6584,67.0,61,78,6.0,80.0
6585,52.0,7,72,10.0,82.0
6586,71.0,53,35,6.0,85.0
6587,69.0,65,75,6.0,98.0
6588,54.0,7,72,10.0,82.0
6589,62.0,50,69,6.0,76.0
6590,66.0,59,65,6.0,66.0
6591,52.0,6,80,10.0,60.0
6592,69.0,49,53,6.0,70.0
6593,74.0,10,61,6.0,89.0
6594,54.0,67,77,10.0,56.0
6595,78.0,58,61,6.0,68.0
6596,76.0,8,55,6.0,63.0
6597,55.0,54,84,10.0,80.0
6598,74.0,57,38,6.0,62.0
6599,73.0,58,75,6.0,100.0
6600,57.0,5,99,10.0,80.0
6601,45.0,3,46,3.0,85.0
6602,76.0,1,53,5.0,89.0
6603,69.0,2,53,6.0,61.0
6604,69.0,1,51,4.0,82.0
6605,76.0,1,54,7.0,85.0
6606,61.0,2,57,8.0,82.0
6607,57.0,119,95,10.0,74.0
6608,71.0,45,48,6.0,68.0
6609,71.0,4,61,4.0,82.0
6610,62.0,5,59,8.0,85.0
6611,69.0,4,41,7.0,78.0
6612,73.0,53,57,6.0,91.0
6613,45.0,1,50,3.0,100.0
6614,73.0,3,57,4.0,102.0
6615,69.0,2,53,5.0,82.0
6616,64.0,0,67,8.0,85.0
6617,81.0,1,90,0.0,105.0
6618,57.0,3,99,10.0,78.0
6619,88.0,0,100,1.0,98.0
6620,66.0,49,55,8.0,74.0
6621,81.0,2,124,2.0,95.0
6622,73.0,50,48,6.0,55.0
6623,45.0,3,45,3.0,102.0
6624,73.0,2,51,4.0,60.0
6625,64.0,3,61,8.0,74.0
6626,74.0,32,44,6.0,76.0
6627,57.0,8,88,10.0,70.0
6628,66.0,14,46,8.0,64.0
6629,74.0,3,49,4.0,85.0
6630,73.0,3,159,7.0,78.0
6631,45.0,1,43,3.0,107.0
6632,76.0,48,61,6.0,98.0
6633,73.0,0,170,5.0,89.0
6634,67.0,7,62,8.0,91.0
6635,81.0,1,64,0.0,95.0
6636,76.0,1,70,4.0,89.0
6637,88.0,4,79,1.0,95.0
6638,57.0,8,96,10.0,85.0
6639,81.0,1,86,2.0,105.0
6640,64.0,43,52,8.0,68.0
6641,76.0,0,38,7.0,85.0
6642,73.0,57,49,6.0,57.0
6643,45.0,9,37,3.0,105.0
6644,76.0,5,52,5.0,87.0
6645,57.0,5,68,8.0,56.0
6646,73.0,1,57,4.0,68.0
6647,57.0,4,91,10.0,68.0
6648,74.0,33,54,6.0,72.0
6649,59.0,13,56,8.0,70.0
6650,74.0,10,52,4.0,87.0
6651,67.0,5,44,7.0,70.0
6652,76.0,41,50,6.0,91.0
6653,45.0,1,39,3.0,107.0
6654,67.0,0,52,5.0,82.0
6655,61.0,3,62,8.0,76.0
6656,76.0,4,57,4.0,82.0
6657,57.0,0,74,10.0,76.0
6658,76.0,5,80,0.0,100.0
6659,93.0,0,87,1.0,89.0
6660,81.0,3,85,2.0,105.0
6661,62.0,47,44,8.0,68.0
6662,45.0,3,38,3.0,102.0
6663,76.0,3,45,4.0,74.0
6664,76.0,4,53,6.0,68.0
6665,61.0,0,56,8.0,72.0
6666,57.0,3,80,10.0,89.0
6667,78.0,3,44,4.0,82.0
6668,78.0,39,49,6.0,59.0
6669,62.0,1,47,8.0,68.0
6670,45.0,3,39,3.0,107.0
6671,73.0,56,176,7.0,80.0
6672,79.0,61,57,6.0,93.0
6673,79.0,0,63,4.0,95.0
6674,64.0,1,68,8.0,102.0
6675,73.0,4,182,5.0,82.0
6676,93.0,4,77,1.0,95.0
6677,76.0,1,87,0.0,95.0
6678,57.0,2,94,10.0,93.0
6679,81.0,2,93,2.0,102.0
6680,62.0,46,51,8.0,82.0
6681,79.0,3,41,4.0,80.0
6682,76.0,1,40,7.0,78.0
6683,45.0,3,42,3.0,105.0
6684,76.0,0,50,5.0,82.0
6685,79.0,3,56,6.0,85.0
6686,61.0,59,66,8.0,64.0
6687,52.0,1,80,10.0,80.0
6688,78.0,46,42,6.0,62.0
6689,78.0,0,47,4.0,102.0
6690,62.0,0,51,8.0,80.0
6691,45.0,2,38,3.0,107.0
6692,69.0,0,54,7.0,74.0
6693,79.0,2,60,6.0,85.0
6694,69.0,2,59,5.0,82.0
6695,64.0,1,70,8.0,87.0
6696,79.0,64,77,4.0,89.0
6697,49.0,1,77,10.0,74.0
6698,79.0,1,88,0.0,93.0
6699,88.0,1,82,1.0,93.0
6700,81.0,3,85,2.0,100.0
6701,62.0,47,70,8.0,70.0
6702,45.0,1,41,3.0,113.0
6703,81.0,4,45,6.0,78.0
6704,61.0,55,57,8.0,63.0
6705,73.0,2,58,5.0,78.0
6706,73.0,1,58,7.0,76.0
6707,45.0,8,71,10.0,87.0
6708,81.0,9,61,4.0,85.0
6709,59.0,33,48,8.0,64.0
6710,79.0,2,47,6.0,74.0
6711,79.0,17,45,4.0,89.0
6712,57.0,40,52,8.0,60.0
6713,78.0,11,53,6.0,87.0
6714,50.0,2,45,3.0,116.0
6715,78.0,5,63,4.0,100.0
6716,74.0,1,75,5.0,91.0
6717,81.0,3,84,2.0,85.0
6718,74.0,0,87,7.0,89.0
6719,78.0,0,95,0.0,100.0
6720,86.0,1,93,1.0,105.0
6721,50.0,0,98,10.0,68.0
6722,69.0,48,63,8.0,80.0
6723,81.0,2,40,6.0,85.0
6724,62.0,7,42,5.0,70.0
6725,66.0,55,63,8.0,66.0
6726,62.0,5,59,7.0,72.0
6727,81.0,6,47,4.0,87.0
6728,62.0,0,90,10.0,66.0
6729,64.0,0,45,7.0,72.0
6730,74.0,3,103,2.0,82.0
6731,64.0,9,42,5.0,66.0
6732,67.0,42,60,8.0,74.0
6733,74.0,0,41,6.0,82.0
6734,66.0,53,59,7.0,82.0
6735,74.0,5,48,4.0,85.0
6736,66.0,2,55,5.0,93.0
6737,69.0,1,74,8.0,82.0
6738,74.0,3,92,2.0,68.0
6739,71.0,49,39,8.0,82.0
6740,62.0,2,100,10.0,78.0
6741,66.0,5,42,7.0,57.0
6742,50.0,6,23,3.0,113.0
6743,66.0,1,49,5.0,63.0
6744,69.0,53,62,8.0,76.0
6745,71.0,0,38,8.0,66.0
6746,67.0,19,53,7.0,70.0
6747,50.0,22,24,3.0,100.0
6748,74.0,4,90,2.0,85.0
6749,67.0,9,47,5.0,74.0
6750,74.0,0,92,1.0,80.0
6751,62.0,1,95,10.0,82.0
6752,50.0,2,34,3.0,105.0
6753,78.0,2,163,6.0,91.0
6754,69.0,41,67,7.0,89.0
6755,78.0,8,168,4.0,93.0
6756,72.0,5,76,8.0,78.0
6757,69.0,1,71,5.0,91.0
6758,74.0,5,95,1.0,80.0
6759,69.0,46,40,8.0,80.0
6760,74.0,3,88,2.0,87.0
6761,62.0,3,104,10.0,89.0
6762,81.0,0,42,6.0,85.0
6763,66.0,3,51,7.0,56.0
6764,81.0,1,49,4.0,87.0
6765,62.0,56,69,8.0,54.0
6766,66.0,5,54,5.0,80.0
6767,74.0,7,90,1.0,80.0
6768,74.0,1,87,2.0,82.0
6769,62.0,2,95,10.0,78.0
6770,67.0,33,55,7.0,74.0
6771,62.0,1,96,0.0,87.0
6772,64.0,9,60,8.0,70.0
6773,67.0,15,57,5.0,70.0
6774,72.0,3,38,6.0,82.0
6775,69.0,39,54,7.0,87.0
6776,72.0,2,44,4.0,82.0
6777,66.0,7,58,8.0,78.0
6778,69.0,3,53,5.0,85.0
6779,62.0,2,86,10.0,82.0
6780,74.0,1,90,1.0,93.0
6781,67.0,32,53,8.0,68.0
6782,74.0,3,88,2.0,89.0
6783,62.0,3,101,0.0,85.0
6784,50.0,9,28,3.0,119.0
6785,66.0,65,62,8.0,63.0
6786,69.0,4,50,7.0,80.0
6787,69.0,3,50,5.0,82.0
6788,62.0,8,89,10.0,85.0
6789,74.0,3,85,1.0,89.0
6790,74.0,0,82,2.0,74.0
6791,67.0,27,50,8.0,74.0
6792,50.0,7,26,3.0,95.0
6793,71.0,11,42,7.0,80.0
6794,62.0,1,93,0.0,85.0
6795,71.0,7,57,5.0,80.0
6796,78.0,1,153,6.0,82.0
6797,50.0,3,31,3.0,107.0
6798,78.0,0,163,4.0,93.0
6799,72.0,6,61,7.0,95.0
6800,72.0,2,56,5.0,87.0
6801,69.0,41,72,8.0,98.0
6802,74.0,1,85,2.0,87.0
6803,74.0,0,85,1.0,91.0
6804,62.0,1,86,0.0,82.0
6805,67.0,40,50,8.0,78.0
6806,62.0,4,99,10.0,93.0
6807,81.0,4,35,6.0,85.0
6808,50.0,1,36,3.0,107.0
6809,72.0,0,45,5.0,82.0
6810,72.0,6,50,7.0,78.0
6811,81.0,2,38,4.0,87.0
6812,66.0,62,71,8.0,74.0
6813,81.0,3,72,0.0,100.0
6814,86.0,4,79,2.0,93.0
6815,57.0,0,91,10.0,85.0
6816,90.0,0,92,1.0,91.0
6817,67.0,36,50,8.0,80.0
6818,71.0,4,48,7.0,61.0
6819,71.0,3,48,5.0,76.0
6820,74.0,0,43,6.0,80.0
6821,50.0,7,40,3.0,110.0
6822,74.0,1,46,4.0,85.0
6823,72.0,1,62,7.0,78.0
6824,69.0,64,72,8.0,91.0
6825,86.0,0,71,0.0,98.0
6826,72.0,1,71,5.0,80.0
6827,81.0,0,83,2.0,89.0
6828,54.0,0,85,10.0,68.0
6829,86.0,1,93,1.0,89.0
6830,67.0,48,75,8.0,76.0
6831,74.0,0,45,7.0,70.0
6832,50.0,3,37,3.0,113.0
6833,74.0,2,44,5.0,78.0
6834,78.0,0,50,6.0,72.0
6835,78.0,0,58,4.0,66.0
6836,66.0,62,66,8.0,70.0
6837,50.0,1,72,10.0,78.0
6838,81.0,3,68,0.0,87.0
6839,86.0,1,74,2.0,91.0
6840,90.0,0,78,1.0,93.0
6841,72.0,43,45,7.0,64.0
6842,64.0,3,45,8.0,74.0
6843,72.0,5,49,5.0,80.0
6844,62.0,1,43,8.0,74.0
6845,79.0,2,47,6.0,82.0
6846,50.0,4,40,3.0,122.0
6847,79.0,2,50,4.0,85.0
6848,71.0,0,65,7.0,87.0
6849,71.0,3,62,5.0,87.0
6850,55.0,0,97,10.0,70.0
6851,59.0,40,57,8.0,59.0
6852,91.0,56,119,1.0,93.0
6853,86.0,2,114,2.0,102.0
6854,83.0,0,114,0.0,113.0
6855,83.0,4,40,6.0,82.0
6856,83.0,3,46,4.0,87.0
6857,67.0,1,48,5.0,80.0
6858,64.0,67,61,8.0,80.0
6859,67.0,3,52,7.0,70.0
6860,69.0,3,48,7.0,64.0
6861,64.0,0,104,10.0,80.0
6862,66.0,48,63,8.0,72.0
6863,69.0,15,55,5.0,68.0
6864,74.0,1,41,6.0,85.0
6865,74.0,3,44,4.0,85.0
6866,71.0,2,52,7.0,85.0
6867,71.0,2,60,5.0,85.0
6868,68.0,45,75,8.0,64.0
6869,69.0,48,42,8.0,80.0
6870,64.0,3,95,10.0,85.0
6871,68.0,56,55,8.0,63.0
6872,71.0,9,66,7.0,74.0
6873,71.0,5,64,5.0,78.0
6874,69.0,1,40,8.0,76.0
6875,64.0,0,87,10.0,87.0
6876,73.0,42,46,7.0,72.0
6877,73.0,6,47,5.0,82.0
6878,80.0,0,155,6.0,87.0
6879,80.0,3,158,4.0,95.0
6880,74.0,1,64,7.0,89.0
6881,71.0,56,66,8.0,100.0
6882,74.0,9,61,5.0,93.0
6883,69.0,42,52,8.0,78.0
6884,64.0,3,95,10.0,95.0
6885,83.0,2,40,6.0,82.0
6886,74.0,1,48,5.0,80.0
6887,68.0,66,55,8.0,80.0
6888,74.0,2,53,7.0,80.0
6889,83.0,3,50,4.0,89.0
6890,59.0,2,86,10.0,85.0
6891,69.0,45,46,8.0,76.0
6892,73.0,0,48,7.0,63.0
6893,73.0,5,50,5.0,87.0
6894,76.0,1,50,6.0,78.0
6895,76.0,3,53,4.0,82.0
6896,74.0,1,62,5.0,87.0
6897,71.0,61,71,8.0,91.0
6898,74.0,2,71,7.0,87.0
6899,56.0,4,94,10.0,68.0
6900,69.0,44,63,8.0,72.0
6901,80.0,1,39,4.0,87.0
6902,68.0,60,54,8.0,87.0
6903,80.0,6,45,6.0,85.0
6904,76.0,2,54,7.0,82.0
6905,76.0,3,67,5.0,87.0
6906,52.0,3,64,10.0,80.0
6907,74.0,42,34,7.0,78.0
6908,74.0,5,43,5.0,82.0
6909,66.0,0,61,8.0,76.0
6910,73.0,62,54,5.0,87.0
6911,81.0,1,59,4.0,82.0
6912,73.0,5,62,7.0,98.0
6913,81.0,3,62,6.0,82.0
6914,64.0,0,67,8.0,85.0
6915,76.0,49,44,4.0,72.0
6916,76.0,7,44,6.0,80.0
6917,76.0,1,42,5.0,85.0
6918,76.0,3,43,7.0,89.0
6919,73.0,54,53,4.0,85.0
6920,73.0,7,52,6.0,62.0
6921,57.0,2,57,8.0,68.0
6922,74.0,3,47,6.0,66.0
6923,74.0,40,55,4.0,70.0
6924,59.0,11,52,8.0,78.0
6925,57.0,0,244,10.0,82.0
6926,69.0,3,46,5.0,78.0
6927,76.0,49,57,6.0,62.0
6928,69.0,4,44,7.0,76.0
6929,76.0,8,55,4.0,76.0
6930,61.0,0,64,8.0,89.0
6931,78.0,40,57,6.0,63.0
6932,78.0,8,54,4.0,68.0
6933,61.0,6,57,8.0,80.0
6934,76.0,57,70,6.0,54.0
6935,76.0,6,75,4.0,63.0
6936,78.0,42,48,6.0,58.0
6937,62.0,4,46,8.0,80.0
6938,78.0,0,52,4.0,74.0
6939,73.0,1,156,7.0,85.0
6940,79.0,2,62,6.0,91.0
6941,73.0,3,174,5.0,82.0
6942,79.0,6,62,4.0,87.0
6943,64.0,63,75,8.0,87.0
6944,76.0,32,46,6.0,68.0
6945,76.0,13,44,4.0,72.0
6946,76.0,1,38,7.0,82.0
6947,76.0,0,52,5.0,82.0
6948,61.0,6,56,8.0,72.0
6949,69.0,49,67,6.0,53.0
6950,69.0,4,64,4.0,72.0
6951,62.0,2,47,8.0,70.0
6952,71.0,43,52,6.0,57.0
6953,71.0,11,47,4.0,66.0
6954,45.0,12,239,10.0,74.0
6955,67.0,1,44,7.0,68.0
6956,67.0,1,47,5.0,78.0
6957,73.0,6,50,4.0,80.0
6958,64.0,53,62,8.0,87.0
6959,73.0,2,60,6.0,64.0
6960,74.0,41,48,6.0,70.0
6961,74.0,8,44,4.0,70.0
6962,73.0,50,57,6.0,53.0
6963,73.0,17,53,4.0,85.0
6964,64.0,0,54,8.0,80.0
6965,74.0,36,44,6.0,66.0
6966,66.0,8,46,8.0,78.0
6967,74.0,1,50,4.0,72.0
6968,73.0,4,157,7.0,85.0
6969,76.0,56,64,6.0,93.0
6970,67.0,3,72,8.0,87.0
6971,76.0,6,60,4.0,91.0
6972,73.0,4,192,5.0,85.0
6973,74.0,35,60,6.0,70.0
6974,74.0,18,50,4.0,70.0
6975,67.0,10,41,8.0,76.0
6976,76.0,2,41,7.0,85.0
6977,73.0,47,61,6.0,49.0
6978,76.0,11,43,5.0,87.0
6979,73.0,4,55,4.0,56.0
6980,66.0,31,38,8.0,66.0
6981,74.0,0,42,6.0,63.0
6982,74.0,16,44,4.0,72.0
6983,57.0,7,250,10.0,74.0
6984,69.0,0,57,7.0,74.0
6985,76.0,5,66,6.0,93.0
6986,69.0,15,57,5.0,74.0
6987,76.0,2,59,4.0,93.0
6988,67.0,45,84,8.0,89.0
6989,74.0,19,55,4.0,74.0
6990,74.0,35,74,6.0,66.0
6991,69.0,46,41,8.0,80.0
6992,73.0,2,41,7.0,80.0
6993,73.0,5,39,5.0,78.0
6994,73.0,6,59,4.0,62.0
6995,73.0,2,67,6.0,51.0
6996,67.0,39,44,8.0,80.0
6997,71.0,1,59,4.0,61.0
6998,71.0,12,65,6.0,60.0
6999,66.0,50,47,8.0,85.0
7000,74.0,0,51,5.0,76.0
7001,69.0,13,55,4.0,72.0
7002,69.0,2,53,6.0,70.0
7003,74.0,1,57,7.0,82.0
7004,69.0,1,42,5.0,87.0
7005,69.0,52,48,7.0,85.0
7006,74.0,3,70,4.0,85.0
7007,74.0,4,71,6.0,85.0
7008,69.0,5,38,8.0,82.0
7009,66.0,0,54,5.0,80.0
7010,66.0,46,62,7.0,64.0
7011,73.0,1,70,4.0,85.0
7012,50.0,10,52,10.0,85.0
7013,73.0,4,78,6.0,70.0
7014,67.0,36,44,7.0,70.0
7015,67.0,6,43,5.0,66.0
7016,71.0,2,53,6.0,76.0
7017,71.0,0,59,4.0,80.0
7018,52.0,4,70,10.0,80.0
7019,69.0,5,57,5.0,76.0
7020,54.0,3,57,10.0,95.0
7021,69.0,0,60,7.0,87.0
7022,62.0,8,50,8.0,87.0
7023,69.0,49,67,6.0,66.0
7024,69.0,0,63,4.0,72.0
7025,71.0,40,49,7.0,74.0
7026,67.0,6,57,6.0,64.0
7027,71.0,7,50,5.0,87.0
7028,67.0,0,60,4.0,63.0
7029,66.0,1,52,6.0,55.0
7030,69.0,51,55,7.0,82.0
7031,66.0,4,54,4.0,64.0
7032,69.0,2,48,5.0,64.0
7033,54.0,4,50,10.0,60.0
7034,64.0,45,42,6.0,64.0
7035,71.0,1,48,7.0,57.0
7036,71.0,7,38,5.0,64.0
7037,64.0,3,45,4.0,80.0
7038,55.0,1,52,10.0,80.0
7039,66.0,1,174,8.0,82.0
7040,72.0,2,56,7.0,98.0
7041,72.0,4,56,5.0,85.0
7042,57.0,0,69,10.0,93.0
7043,62.0,5,73,4.0,68.0
7044,62.0,54,80,6.0,68.0
7045,69.0,5,35,5.0,70.0
7046,69.0,46,48,7.0,74.0
7047,62.0,1,57,5.0,82.0
7048,62.0,61,61,7.0,64.0
7049,69.0,3,51,8.0,89.0
7050,54.0,7,56,10.0,58.0
7051,64.0,7,42,5.0,64.0
7052,74.0,3,90,0.0,85.0
7053,74.0,0,92,4.0,62.0
7054,64.0,38,55,7.0,61.0
7055,74.0,2,94,6.0,60.0
7056,55.0,3,61,10.0,80.0
7057,66.0,0,52,5.0,85.0
7058,66.0,55,64,7.0,68.0
7059,57.0,4,62,10.0,87.0
7060,60.0,2,62,8.0,80.0
7061,74.0,6,93,0.0,87.0
7062,67.0,4,44,5.0,72.0
7063,74.0,5,91,6.0,60.0
7064,74.0,2,100,4.0,78.0
7065,67.0,37,61,7.0,64.0
7066,66.0,3,47,5.0,89.0
7067,66.0,60,66,7.0,82.0
7068,57.0,12,55,10.0,85.0
7069,74.0,1,82,0.0,87.0
7070,59.0,38,45,10.0,82.0
7071,67.0,1,45,5.0,72.0
7072,67.0,2,43,7.0,85.0
7073,74.0,1,98,6.0,66.0
7074,74.0,3,100,4.0,78.0
7075,66.0,4,159,8.0,85.0
7076,69.0,7,58,5.0,95.0
7077,60.0,61,71,10.0,89.0
7078,69.0,0,64,7.0,100.0
7079,74.0,5,91,4.0,76.0
7080,74.0,0,98,0.0,95.0
7081,74.0,4,100,6.0,64.0
7082,67.0,42,56,7.0,85.0
7083,67.0,4,53,5.0,72.0
7084,66.0,56,52,7.0,78.0
7085,60.0,6,55,10.0,78.0
7086,69.0,1,46,8.0,85.0
7087,66.0,3,58,5.0,70.0
7088,50.0,5,45,3.0,119.0
7089,78.0,0,80,0.0,93.0
7090,81.0,4,92,2.0,89.0
7091,86.0,0,93,1.0,93.0
7092,59.0,36,48,10.0,80.0
7093,74.0,0,99,4.0,82.0
7094,74.0,4,97,6.0,60.0
7095,67.0,2,53,7.0,63.0
7096,67.0,4,51,5.0,68.0
7097,60.0,58,61,10.0,95.0
7098,50.0,4,40,3.0,110.0
7099,69.0,2,67,7.0,80.0
7100,69.0,1,61,5.0,98.0
7101,62.0,2,61,8.0,78.0
7102,78.0,0,85,0.0,85.0
7103,81.0,4,90,2.0,82.0
7104,86.0,4,89,1.0,87.0
7105,74.0,6,95,6.0,60.0
7106,74.0,0,97,4.0,78.0
7107,67.0,38,61,7.0,72.0
7108,67.0,6,60,5.0,70.0
7109,50.0,1,40,3.0,105.0
7110,66.0,1,50,8.0,80.0
7111,66.0,1,54,5.0,85.0
7112,66.0,53,66,7.0,57.0
7113,62.0,1,64,10.0,87.0
7114,81.0,2,80,0.0,91.0
7115,86.0,3,84,1.0,98.0
7116,74.0,0,84,6.0,64.0
7117,78.0,6,94,2.0,85.0
7118,74.0,2,100,4.0,78.0
7119,64.0,49,50,7.0,66.0
7120,60.0,3,48,10.0,78.0
7121,64.0,0,51,5.0,80.0
7122,67.0,1,50,8.0,85.0
7123,50.0,0,56,3.0,122.0
7124,59.0,0,68,10.0,87.0
7125,62.0,3,68,5.0,78.0
7126,62.0,1,67,7.0,68.0
7127,74.0,60,94,6.0,68.0
7128,74.0,0,86,4.0,82.0
7129,71.0,48,47,8.0,82.0
7130,79.0,1,125,0.0,113.0
7131,86.0,2,128,1.0,107.0
7132,74.0,1,135,2.0,105.0
7133,68.0,4,53,8.0,80.0
7134,71.0,1,41,7.0,89.0
7135,71.0,2,45,5.0,87.0
7136,52.0,3,56,10.0,66.0
7137,76.0,57,103,6.0,62.0
7138,69.0,38,46,8.0,63.0
7139,54.0,6,45,10.0,64.0
7140,76.0,9,98,4.0,85.0
7141,64.0,3,40,7.0,85.0
7142,56.0,59,62,10.0,95.0
7143,64.0,1,49,5.0,87.0
7144,71.0,3,69,8.0,82.0
7145,73.0,39,48,8.0,78.0
7146,76.0,2,100,6.0,70.0
7147,76.0,7,105,4.0,85.0
7148,56.0,0,50,10.0,78.0
7149,71.0,61,83,8.0,76.0
7150,76.0,15,89,6.0,68.0
7151,57.0,6,45,10.0,82.0
7152,73.0,30,52,8.0,82.0
7153,76.0,8,93,4.0,85.0
7154,68.0,3,163,7.0,91.0
7155,68.0,1,175,5.0,87.0
7156,74.0,2,72,8.0,91.0
7157,59.0,63,76,10.0,98.0
7158,76.0,2,96,6.0,66.0
7159,71.0,42,52,8.0,63.0
7160,76.0,13,100,4.0,85.0
7161,71.0,2,47,7.0,87.0
7162,56.0,3,52,10.0,76.0
7163,64.0,60,70,8.0,72.0
7164,71.0,4,63,5.0,85.0
7165,76.0,1,88,0.0,87.0
7166,76.0,3,97,6.0,64.0
7167,57.0,39,51,10.0,70.0
7168,66.0,1,52,8.0,63.0
7169,76.0,6,100,4.0,78.0
7170,68.0,58,61,8.0,76.0
7171,62.0,4,52,7.0,80.0
7172,62.0,2,49,5.0,82.0
7173,59.0,6,77,10.0,82.0
7174,76.0,1,92,6.0,68.0
7175,69.0,37,46,8.0,78.0
7176,76.0,1,91,0.0,95.0
7177,76.0,6,95,4.0,82.0
7178,68.0,63,57,8.0,78.0
7179,59.0,4,53,10.0,70.0
7180,76.0,1,80,0.0,87.0
7181,76.0,4,98,6.0,66.0
7182,76.0,6,87,4.0,82.0
7183,61.0,38,48,10.0,70.0
7184,69.0,4,58,8.0,68.0
7185,68.0,0,176,5.0,91.0
7186,68.0,2,177,7.0,87.0
7187,62.0,60,71,10.0,93.0
7188,71.0,3,67,8.0,87.0
7189,76.0,5,95,6.0,74.0
7190,76.0,1,88,4.0,82.0
7191,76.0,8,95,0.0,93.0
7192,69.0,50,51,8.0,80.0
7193,71.0,2,41,7.0,87.0
7194,50.0,4,43,3.0,110.0
7195,68.0,1,55,8.0,63.0
7196,71.0,1,46,5.0,82.0
7197,62.0,1,60,10.0,80.0
7198,76.0,55,92,6.0,76.0
7199,80.0,6,88,0.0,82.0
7200,76.0,0,86,4.0,89.0
7201,88.0,0,88,1.0,102.0
7202,74.0,0,88,2.0,98.0
7203,61.0,39,50,10.0,70.0
7204,69.0,7,50,8.0,68.0
7205,50.0,1,45,3.0,107.0
7206,64.0,1,60,7.0,78.0
7207,64.0,2,61,5.0,80.0
7208,71.0,1,65,8.0,95.0
7209,62.0,58,79,10.0,82.0
7210,88.0,1,83,1.0,93.0
7211,74.0,1,85,2.0,95.0
7212,76.0,3,93,4.0,82.0
7213,80.0,2,85,0.0,93.0
7214,76.0,2,92,6.0,66.0
7215,69.0,49,58,8.0,78.0
7216,68.0,2,34,5.0,78.0
7217,68.0,0,38,7.0,85.0
7218,50.0,1,39,3.0,110.0
7219,68.0,58,54,8.0,57.0
7220,64.0,1,69,10.0,85.0
7221,88.0,3,72,1.0,105.0
7222,76.0,1,84,4.0,89.0
7223,76.0,0,84,6.0,76.0
7224,83.0,4,80,0.0,89.0
7225,74.0,2,95,2.0,100.0
7226,66.0,1,46,8.0,66.0
7227,62.0,41,53,10.0,82.0
7228,69.0,5,53,7.0,80.0
7229,69.0,0,59,5.0,76.0
7230,61.0,0,65,10.0,78.0
7231,76.0,64,74,6.0,89.0
7232,45.0,6,58,3.0,122.0
7233,64.0,3,89,8.0,66.0
7234,76.0,2,84,4.0,95.0
7235,81.0,2,41,7.0,91.0
7236,81.0,43,43,5.0,85.0
7237,81.0,3,120,2.0,110.0
7238,81.0,1,126,0.0,107.0
7239,88.0,1,126,1.0,107.0
7240,69.0,3,53,4.0,78.0
7241,64.0,0,54,10.0,85.0
7242,69.0,0,57,6.0,70.0
7243,73.0,2,63,7.0,63.0
7244,73.0,1,68,5.0,74.0
7245,71.0,44,45,6.0,68.0
7246,71.0,0,45,4.0,80.0
7247,74.0,3,45,7.0,70.0
7248,69.0,58,105,8.0,62.0
7249,74.0,12,42,5.0,80.0
7250,73.0,46,56,6.0,82.0
7251,76.0,1,57,7.0,82.0
7252,57.0,1,51,10.0,76.0
7253,73.0,7,68,4.0,95.0
7254,76.0,5,69,5.0,82.0
7255,78.0,41,35,7.0,61.0
7256,69.0,3,96,8.0,70.0
7257,78.0,16,46,5.0,82.0
7258,73.0,2,60,6.0,56.0
7259,73.0,5,50,4.0,58.0
7260,76.0,42,71,7.0,85.0
7261,76.0,0,72,5.0,78.0
7262,69.0,10,81,8.0,66.0
7263,78.0,0,44,7.0,85.0
7264,74.0,38,45,6.0,74.0
7265,74.0,13,43,4.0,80.0
7266,78.0,0,44,5.0,70.0
7267,79.0,52,60,7.0,93.0
7268,76.0,0,65,6.0,87.0
7269,79.0,1,62,5.0,91.0
7270,76.0,9,65,4.0,89.0
7271,61.0,1,189,10.0,80.0
7272,76.0,40,46,7.0,78.0
7273,69.0,2,106,8.0,82.0
7274,76.0,16,46,5.0,78.0
7275,73.0,1,50,6.0,57.0
7276,64.0,2,53,10.0,85.0
7277,73.0,1,52,4.0,60.0
7278,69.0,43,71,7.0,63.0
7279,69.0,4,63,5.0,59.0
7280,69.0,13,89,8.0,72.0
7281,74.0,5,48,6.0,76.0
7282,74.0,7,46,4.0,70.0
7283,71.0,40,66,7.0,58.0
7284,71.0,3,51,5.0,78.0
7285,73.0,41,63,7.0,52.0
7286,76.0,6,52,6.0,80.0
7287,76.0,6,47,4.0,80.0
7288,55.0,4,53,10.0,78.0
7289,73.0,4,59,5.0,82.0
7290,69.0,7,97,8.0,80.0
7291,74.0,23,60,7.0,85.0
7292,74.0,24,58,5.0,78.0
7293,73.0,41,64,7.0,74.0
7294,73.0,12,63,5.0,87.0
7295,76.0,7,56,4.0,66.0
7296,76.0,3,60,6.0,74.0
7297,69.0,7,89,8.0,68.0
7298,74.0,24,42,7.0,72.0
7299,78.0,15,41,4.0,60.0
7300,74.0,0,42,5.0,78.0
7301,78.0,4,43,6.0,60.0
7302,76.0,3,67,7.0,102.0
7303,79.0,10,61,4.0,89.0
7304,76.0,3,62,5.0,100.0
7305,61.0,9,165,10.0,70.0
7306,79.0,7,59,6.0,89.0
7307,69.0,43,95,8.0,78.0
7308,74.0,37,63,7.0,72.0
7309,74.0,13,55,5.0,74.0
7310,79.0,3,41,4.0,85.0
7311,79.0,2,40,6.0,74.0
7312,64.0,0,52,10.0,87.0
7313,73.0,9,61,5.0,70.0
7314,73.0,3,74,7.0,49.0
7315,69.0,55,81,8.0,85.0
7316,78.0,1,39,4.0,82.0
7317,78.0,41,50,6.0,60.0
7318,74.0,1,41,7.0,68.0
7319,74.0,10,51,5.0,76.0
7320,79.0,54,67,4.0,82.0
7321,57.0,1,60,10.0,85.0
7322,76.0,2,62,5.0,93.0
7323,79.0,2,71,6.0,87.0
7324,76.0,2,69,7.0,105.0
7325,69.0,7,91,8.0,89.0
7326,74.0,52,62,7.0,82.0
7327,74.0,3,66,5.0,78.0
7328,73.0,55,58,7.0,64.0
7329,81.0,2,53,6.0,82.0
7330,73.0,1,56,5.0,82.0
7331,61.0,0,58,10.0,82.0
7332,81.0,14,52,4.0,89.0
7333,69.0,5,78,8.0,85.0
7334,79.0,1,39,6.0,76.0
7335,79.0,15,35,4.0,82.0
7336,71.0,35,61,7.0,68.0
7337,71.0,3,57,5.0,82.0
7338,69.0,1,61,5.0,78.0
7339,69.0,4,68,7.0,85.0
7340,50.0,1,69,10.0,93.0
7341,69.0,45,82,8.0,95.0
7342,78.0,0,91,6.0,89.0
7343,78.0,4,91,4.0,85.0
7344,78.0,2,34,6.0,68.0
7345,78.0,11,25,4.0,78.0
7346,66.0,1,39,5.0,76.0
7347,66.0,3,48,7.0,72.0
7348,62.0,112,59,8.0,82.0
7349,62.0,2,65,10.0,87.0
7350,76.0,33,39,6.0,76.0
7351,76.0,12,37,4.0,80.0
7352,64.0,3,66,8.0,87.0
7353,62.0,4,50,8.0,87.0
7354,55.0,1,53,10.0,80.0
7355,78.0,52,81,6.0,91.0
7356,78.0,0,99,4.0,98.0
7357,61.0,56,45,8.0,68.0
7358,79.0,1,31,4.0,70.0
7359,79.0,2,38,6.0,80.0
7360,59.0,45,71,8.0,60.0
7361,59.0,12,61,10.0,80.0
7362,78.0,49,41,6.0,87.0
7363,62.0,2,40,8.0,68.0
7364,78.0,0,43,4.0,68.0
7365,71.0,4,271,7.0,85.0
7366,71.0,3,279,5.0,85.0
7367,61.0,3,57,8.0,100.0
7368,49.0,4,61,10.0,85.0
7369,76.0,3,94,4.0,74.0
7370,76.0,60,107,6.0,87.0
7371,62.0,52,57,8.0,78.0
7372,61.0,60,43,8.0,80.0
7373,76.0,0,47,4.0,70.0
7374,70.0,2,49,5.0,64.0
7375,76.0,1,52,6.0,70.0
7376,61.0,8,66,10.0,82.0
7377,70.0,5,59,7.0,60.0
7378,59.0,41,51,8.0,70.0
7379,74.0,1,42,4.0,80.0
7380,74.0,5,47,6.0,70.0
7381,71.0,4,47,5.0,80.0
7382,71.0,5,47,7.0,78.0
7383,73.0,2,52,5.0,76.0
7384,58.0,53,62,8.0,76.0
7385,54.0,1,62,10.0,82.0
7386,73.0,2,72,7.0,80.0
7387,76.0,5,90,6.0,78.0
7388,76.0,0,105,4.0,89.0
7389,71.0,4,53,7.0,76.0
7390,71.0,47,63,5.0,63.0
7391,61.0,5,41,8.0,80.0
7392,78.0,0,45,6.0,74.0
7393,70.0,57,55,5.0,64.0
7394,78.0,8,40,4.0,68.0
7395,70.0,0,61,7.0,68.0
7396,58.0,5,58,10.0,85.0
7397,68.0,1,32,5.0,78.0
7398,76.0,43,41,6.0,74.0
7399,68.0,2,39,7.0,76.0
7400,76.0,5,47,4.0,60.0
7401,66.0,0,54,7.0,78.0
7402,66.0,3,60,5.0,68.0
7403,62.0,2,55,8.0,87.0
7404,74.0,52,76,6.0,85.0
7405,47.0,3,65,10.0,85.0
7406,74.0,6,85,4.0,82.0
7407,78.0,47,48,5.0,76.0
7408,78.0,5,47,7.0,72.0
7409,74.0,2,40,0.0,89.0
7410,66.0,1,49,8.0,85.0
7411,74.0,61,53,6.0,87.0
7412,71.0,0,56,5.0,78.0
7413,74.0,8,50,4.0,82.0
7414,71.0,4,64,7.0,70.0
7415,59.0,0,72,10.0,87.0
7416,76.0,32,44,6.0,80.0
7417,76.0,11,42,0.0,87.0
7418,74.0,0,101,1.0,82.0
7419,76.0,3,46,4.0,87.0
7420,73.0,5,43,7.0,60.0
7421,73.0,3,53,5.0,66.0
7422,59.0,1,36,8.0,82.0
7423,78.0,9,50,0.0,87.0
7424,78.0,42,61,6.0,102.0
7425,74.0,2,54,5.0,80.0
7426,57.0,1,65,10.0,78.0
7427,78.0,1,70,4.0,100.0
7428,74.0,0,72,7.0,85.0
7429,76.0,54,36,7.0,78.0
7430,74.0,1,96,1.0,76.0
7431,76.0,0,43,5.0,64.0
7432,64.0,3,9,8.0,64.0
7433,74.0,57,54,7.0,68.0
7434,78.0,2,54,0.0,80.0
7435,78.0,1,53,6.0,74.0
7436,74.0,1,59,5.0,82.0
7437,78.0,2,51,4.0,68.0
7438,55.0,1,84,10.0,68.0
7439,79.0,1,40,6.0,85.0
7440,79.0,37,45,0.0,78.0
7441,74.0,3,98,1.0,82.0
7442,79.0,7,43,4.0,78.0
7443,76.0,1,46,5.0,68.0
7444,76.0,2,59,7.0,74.0
7445,81.0,53,60,6.0,102.0
7446,78.0,3,60,7.0,87.0
7447,81.0,3,65,0.0,89.0
7448,78.0,1,61,5.0,98.0
7449,81.0,3,64,4.0,95.0
7450,54.0,2,79,10.0,60.0
7451,62.0,5,192,8.0,78.0
7452,74.0,1,97,1.0,85.0
7453,81.0,54,43,7.0,64.0
7454,81.0,6,43,5.0,87.0
7455,78.0,2,45,6.0,93.0
7456,78.0,3,40,4.0,82.0
7457,74.0,3,51,5.0,85.0
7458,78.0,1,43,0.0,87.0
7459,74.0,48,58,7.0,68.0
7460,59.0,0,70,10.0,98.0
7461,74.0,3,69,8.0,76.0
7462,79.0,36,43,6.0,87.0
7463,74.0,1,87,1.0,80.0
7464,74.0,3,83,2.0,80.0
7465,76.0,0,44,5.0,76.0
7466,79.0,5,46,4.0,78.0
7467,79.0,3,44,0.0,80.0
7468,76.0,2,52,7.0,70.0
7469,78.0,3,59,5.0,85.0
7470,78.0,1,61,7.0,93.0
7471,81.0,3,54,0.0,89.0
7472,81.0,55,73,6.0,93.0
7473,57.0,1,71,10.0,82.0
7474,81.0,0,82,4.0,89.0
7475,74.0,3,83,2.0,93.0
7476,79.0,40,45,5.0,80.0
7477,79.0,2,43,7.0,80.0
7478,74.0,3,94,8.0,68.0
7479,74.0,0,91,1.0,78.0
7480,78.0,56,52,5.0,60.0
7481,78.0,2,54,7.0,85.0
7482,81.0,8,49,6.0,85.0
7483,81.0,2,46,0.0,87.0
7484,81.0,1,46,4.0,80.0
7485,55.0,1,61,10.0,87.0
7486,83.0,36,42,6.0,91.0
7487,74.0,2,80,2.0,85.0
7488,74.0,2,83,1.0,78.0
7489,83.0,3,33,0.0,82.0
7490,79.0,1,48,7.0,89.0
7491,79.0,1,49,5.0,82.0
7492,74.0,3,94,8.0,80.0
7493,83.0,11,41,4.0,85.0
7494,84.0,47,61,6.0,102.0
7495,81.0,7,68,7.0,100.0
7496,54.0,1,63,10.0,93.0
7497,84.0,4,60,0.0,89.0
7498,84.0,0,71,4.0,93.0
7499,74.0,1,77,2.0,89.0
7500,74.0,3,88,8.0,82.0
7501,74.0,3,84,1.0,89.0
7502,81.0,2,97,5.0,95.0
7503,79.0,41,52,7.0,85.0
7504,90.0,4,39,1.0,85.0
7505,84.0,0,40,0.0,70.0
7506,78.0,60,53,7.0,85.0
7507,84.0,8,49,6.0,89.0
7508,50.0,0,38,3.0,110.0
7509,84.0,3,50,4.0,89.0
7510,57.0,0,66,10.0,89.0
7511,79.0,1,86,5.0,82.0
7512,74.0,0,99,8.0,76.0
7513,74.0,3,81,2.0,102.0
7514,91.0,6,40,1.0,89.0
7515,83.0,35,49,6.0,82.0
7516,79.0,3,46,7.0,82.0
7517,83.0,3,38,0.0,82.0
7518,83.0,1,51,4.0,87.0
7519,50.0,4,39,3.0,110.0
7520,84.0,2,63,6.0,98.0
7521,50.0,1,64,10.0,82.0
7522,84.0,2,59,4.0,87.0
7523,81.0,0,70,7.0,105.0
7524,84.0,2,65,0.0,98.0
7525,93.0,1,77,1.0,95.0
7526,78.0,0,73,2.0,89.0
7527,74.0,54,87,8.0,82.0
7528,78.0,0,87,5.0,80.0
7529,79.0,47,66,7.0,82.0
7530,95.0,4,31,1.0,95.0
7531,50.0,2,36,3.0,113.0
7532,86.0,8,35,0.0,89.0
7533,78.0,57,65,7.0,85.0
7534,74.0,3,55,2.0,85.0
7535,86.0,0,62,6.0,98.0
7536,54.0,1,65,10.0,82.0
7537,69.0,3,81,8.0,74.0
7538,86.0,2,67,4.0,85.0
7539,76.0,3,80,5.0,80.0
7540,93.0,6,31,1.0,95.0
7541,84.0,2,41,6.0,80.0
7542,84.0,6,28,0.0,93.0
7543,84.0,9,36,4.0,80.0
7544,76.0,31,61,7.0,76.0
7545,74.0,3,58,7.0,82.0
7546,83.0,3,58,6.0,87.0
7547,74.0,3,53,5.0,87.0
7548,83.0,1,55,4.0,87.0
7549,43.0,0,70,10.0,98.0
7550,50.0,5,71,3.0,116.0
7551,79.0,40,46,6.0,72.0
7552,71.0,41,106,8.0,76.0
7553,79.0,16,41,4.0,70.0
7554,86.0,1,115,2.0,87.0
7555,91.0,0,126,1.0,100.0
7556,83.0,4,127,0.0,95.0
7557,71.0,45,50,7.0,82.0
7558,71.0,3,50,5.0,76.0
7559,76.0,4,64,6.0,60.0
7560,76.0,8,59,4.0,64.0
7561,55.0,3,71,10.0,85.0
7562,78.0,37,47,6.0,66.0
7563,71.0,1,101,8.0,64.0
7564,78.0,16,46,4.0,63.0
7565,79.0,46,61,6.0,85.0
7566,79.0,2,54,4.0,87.0
7567,49.0,5,70,10.0,74.0
7568,81.0,40,44,6.0,76.0
7569,71.0,1,99,8.0,68.0
7570,81.0,19,43,4.0,66.0
7571,78.0,44,43,6.0,60.0
7572,78.0,7,45,4.0,56.0
7573,83.0,3,53,0.0,89.0
7574,88.0,1,54,2.0,95.0
7575,91.0,2,53,1.0,107.0
7576,52.0,1,64,10.0,82.0
7577,79.0,37,42,6.0,70.0
7578,71.0,5,96,8.0,57.0
7579,79.0,15,40,4.0,80.0
7580,76.0,3,276,7.0,89.0
7581,76.0,3,275,5.0,85.0
7582,81.0,54,55,6.0,102.0
7583,81.0,3,45,4.0,89.0
7584,42.0,2,65,10.0,78.0
7585,45.0,0,73,3.0,122.0
7586,69.0,3,96,8.0,74.0
7587,78.0,17,53,6.0,66.0
7588,78.0,15,42,4.0,66.0
7589,81.0,5,129,0.0,102.0
7590,88.0,18,112,2.0,89.0
7591,90.0,3,148,1.0,100.0
7592,69.0,3,44,5.0,82.0
7593,74.0,2,49,6.0,68.0
7594,74.0,1,46,4.0,74.0
7595,69.0,3,44,7.0,85.0
7596,54.0,51,57,10.0,80.0
7597,69.0,2,93,8.0,64.0
7598,76.0,50,46,6.0,63.0
7599,76.0,3,43,4.0,74.0
7600,78.0,1,55,4.0,95.0
7601,47.0,3,65,10.0,85.0
7602,78.0,4,66,6.0,89.0
7603,69.0,59,89,8.0,63.0
7604,79.0,2,39,4.0,70.0
7605,79.0,46,43,6.0,78.0
7606,76.0,0,36,6.0,72.0
7607,76.0,2,35,4.0,63.0
7608,86.0,0,51,2.0,87.0
7609,81.0,2,57,0.0,89.0
7610,90.0,10,52,1.0,100.0
7611,50.0,10,70,10.0,85.0
7612,78.0,41,42,6.0,78.0
7613,69.0,52,109,8.0,62.0
7614,78.0,10,37,4.0,70.0
7615,79.0,5,35,0.0,100.0
7616,74.0,8,283,7.0,85.0
7617,74.0,0,293,5.0,87.0
7618,79.0,2,55,6.0,100.0
7619,79.0,2,51,4.0,89.0
7620,40.0,0,67,10.0,95.0
7621,88.0,1,66,1.0,89.0
7622,86.0,0,76,2.0,91.0
7623,78.0,8,36,0.0,93.0
7624,78.0,44,46,6.0,85.0
7625,67.0,55,105,8.0,66.0
7626,78.0,3,43,4.0,66.0
7627,76.0,51,34,6.0,64.0
7628,76.0,1,37,0.0,85.0
7629,76.0,1,35,4.0,68.0
7630,45.0,1,47,3.0,119.0
7631,81.0,3,54,2.0,74.0
7632,73.0,3,58,7.0,85.0
7633,45.0,0,67,10.0,74.0
7634,93.0,2,55,1.0,91.0
7635,73.0,1,56,5.0,82.0
7636,79.0,40,33,6.0,72.0
7637,69.0,4,89,8.0,68.0
7638,79.0,8,32,0.0,82.0
7639,79.0,8,32,4.0,72.0
7640,74.0,2,44,7.0,93.0
7641,50.0,0,41,3.0,113.0
7642,74.0,2,48,5.0,89.0
7643,93.0,4,43,1.0,93.0
7644,78.0,0,47,0.0,87.0
7645,81.0,1,52,2.0,100.0
7646,50.0,4,60,10.0,87.0
7647,78.0,1,63,6.0,100.0
7648,78.0,4,55,4.0,100.0
7649,69.0,47,93,8.0,64.0
7650,76.0,1,35,0.0,91.0
7651,73.0,39,46,7.0,85.0
7652,76.0,3,45,6.0,64.0
7653,73.0,6,46,5.0,82.0
7654,76.0,6,42,4.0,76.0
7655,71.0,36,49,7.0,87.0
7656,74.0,10,40,6.0,68.0
7657,74.0,6,33,0.0,89.0
7658,71.0,3,45,5.0,85.0
7659,93.0,3,39,1.0,98.0
7660,38.0,0,48,10.0,100.0
7661,74.0,0,42,4.0,70.0
7662,50.0,2,39,3.0,110.0
7663,81.0,2,45,2.0,102.0
7664,69.0,3,84,8.0,57.0
7665,74.0,30,41,7.0,85.0
7666,78.0,9,38,6.0,89.0
7667,78.0,0,32,0.0,89.0
7668,74.0,1,47,5.0,87.0
7669,78.0,12,40,4.0,82.0
7670,73.0,39,53,7.0,82.0
7671,73.0,8,52,5.0,98.0
7672,76.0,2,49,4.0,89.0
7673,76.0,1,57,6.0,105.0
7674,45.0,5,61,3.0,127.0
7675,45.0,1,82,10.0,82.0
7676,69.0,8,103,8.0,68.0
7677,81.0,39,46,6.0,87.0
7678,81.0,6,44,4.0,76.0
7679,81.0,3,122,2.0,110.0
7680,76.0,2,126,0.0,110.0
7681,93.0,4,132,1.0,100.0
7682,76.0,1,37,5.0,89.0
7683,76.0,53,40,7.0,89.0
7684,73.0,0,46,4.0,72.0
7685,73.0,0,54,6.0,57.0
7686,45.0,6,53,10.0,80.0
7687,74.0,7,39,4.0,72.0
7688,47.0,42,50,10.0,82.0
7689,74.0,0,47,6.0,68.0
7690,69.0,1,102,8.0,64.0
7691,69.0,2,40,7.0,85.0
7692,76.0,7,50,4.0,87.0
7693,69.0,1,50,5.0,85.0
7694,49.0,56,66,10.0,95.0
7695,76.0,1,57,6.0,80.0
7696,69.0,2,90,8.0,60.0
7697,78.0,49,46,6.0,64.0
7698,78.0,2,53,4.0,76.0
7699,49.0,4,49,10.0,66.0
7700,76.0,61,64,6.0,80.0
7701,76.0,0,72,4.0,53.0
7702,69.0,1,82,8.0,63.0
7703,78.0,1,47,6.0,72.0
7704,50.0,49,49,10.0,85.0
7705,78.0,9,44,4.0,64.0
7706,73.0,2,162,7.0,87.0
7707,73.0,1,164,5.0,85.0
7708,79.0,6,61,6.0,95.0
7709,52.0,3,73,10.0,91.0
7710,79.0,6,66,4.0,82.0
7711,69.0,50,98,8.0,60.0
7712,76.0,11,39,4.0,68.0
7713,76.0,42,57,6.0,66.0
7714,76.0,5,38,7.0,87.0
7715,49.0,55,49,10.0,78.0
7716,76.0,0,42,5.0,87.0
7717,69.0,2,53,4.0,60.0
7718,69.0,3,56,6.0,49.0
7719,50.0,38,44,10.0,68.0
7720,69.0,1,99,8.0,58.0
7721,69.0,5,90,0.0,85.0
7722,71.0,9,52,6.0,66.0
7723,71.0,5,49,4.0,66.0
7724,52.0,45,56,10.0,87.0
7725,67.0,1,47,7.0,72.0
7726,67.0,1,47,5.0,80.0
7727,73.0,1,56,6.0,56.0
7728,73.0,2,58,4.0,66.0
7729,69.0,13,91,8.0,63.0
7730,74.0,45,42,6.0,68.0
7731,69.0,1,94,0.0,91.0
7732,74.0,10,44,4.0,62.0
7733,73.0,0,48,4.0,80.0
7734,52.0,5,57,10.0,82.0
7735,73.0,1,65,6.0,66.0
7736,69.0,57,91,8.0,59.0
7737,54.0,46,40,10.0,95.0
7738,69.0,0,89,0.0,93.0
7739,74.0,4,40,6.0,68.0
7740,74.0,0,42,4.0,78.0
7741,76.0,1,60,6.0,98.0
7742,73.0,0,178,7.0,98.0
7743,55.0,55,75,10.0,91.0
7744,76.0,8,61,4.0,95.0
7745,73.0,5,181,5.0,98.0
7746,74.0,42,48,6.0,72.0
7747,69.0,5,101,8.0,66.0
7748,69.0,2,92,0.0,98.0
7749,74.0,8,53,4.0,76.0
7750,73.0,1,41,4.0,78.0
7751,76.0,5,43,7.0,82.0
7752,73.0,56,56,6.0,38.0
7753,55.0,3,54,10.0,91.0
7754,45.0,2,39,3.0,116.0
7755,76.0,8,42,5.0,93.0
7756,76.0,2,89,0.0,87.0
7757,81.0,6,73,1.0,100.0
7758,54.0,24,49,10.0,87.0
7759,74.0,8,45,4.0,68.0
7760,74.0,3,46,6.0,68.0
7761,69.0,1,104,8.0,62.0
7762,81.0,0,104,2.0,89.0
7763,45.0,0,40,3.0,110.0
7764,76.0,9,58,4.0,78.0
7765,69.0,3,52,7.0,80.0
7766,76.0,3,61,6.0,72.0
7767,55.0,53,73,10.0,87.0
7768,69.0,2,56,5.0,85.0
7769,76.0,2,76,0.0,87.0
7770,81.0,3,82,1.0,100.0
7771,69.0,1,91,8.0,60.0
7772,81.0,0,95,2.0,80.0
7773,79.0,47,50,6.0,74.0
7774,79.0,1,53,4.0,82.0
7775,78.0,0,47,4.0,82.0
7776,45.0,1,39,3.0,119.0
7777,81.0,3,55,0.0,87.0
7778,73.0,1,50,7.0,80.0
7779,78.0,56,61,6.0,66.0
7780,57.0,2,63,10.0,89.0
7781,73.0,4,56,5.0,78.0
7782,88.0,4,52,1.0,89.0
7783,81.0,3,75,2.0,102.0
7784,69.0,0,89,8.0,66.0
7785,55.0,36,43,10.0,82.0
7786,76.0,5,43,6.0,78.0
7787,76.0,4,44,4.0,68.0
7788,74.0,1,45,7.0,82.0
7789,74.0,0,46,5.0,87.0
7790,50.0,0,52,3.0,122.0
7791,81.0,0,66,6.0,98.0
7792,54.0,52,78,10.0,87.0
7793,81.0,1,66,4.0,89.0
7794,69.0,9,81,8.0,78.0
7795,90.0,5,91,1.0,95.0
7796,79.0,5,55,4.0,72.0
7797,79.0,40,62,6.0,72.0
7798,81.0,2,126,0.0,113.0
7799,74.0,2,133,2.0,105.0
7800,54.0,61,42,10.0,98.0
7801,78.0,3,43,6.0,82.0
7802,93.0,7,34,1.0,82.0
7803,69.0,3,43,5.0,85.0
7804,69.0,2,47,7.0,80.0
7805,78.0,0,48,4.0,91.0
7806,62.0,1,74,8.0,72.0
7807,52.0,37,40,10.0,93.0
7808,79.0,6,42,6.0,68.0
7809,91.0,9,33,1.0,93.0
7810,79.0,2,43,4.0,72.0
7811,81.0,3,45,4.0,87.0
7812,81.0,1,49,6.0,91.0
7813,66.0,1,52,8.0,68.0
7814,90.0,6,55,1.0,89.0
7815,54.0,49,83,10.0,102.0
7816,78.0,38,52,4.0,66.0
7817,78.0,0,55,6.0,68.0
7818,83.0,8,28,0.0,100.0
7819,55.0,2,42,10.0,80.0
7820,74.0,2,53,4.0,78.0
7821,86.0,0,47,1.0,91.0
7822,71.0,0,50,8.0,80.0
7823,74.0,63,77,6.0,66.0
7824,81.0,3,38,0.0,98.0
7825,78.0,0,42,6.0,80.0
7826,78.0,45,46,4.0,87.0
7827,54.0,2,42,10.0,95.0
7828,74.0,2,265,7.0,91.0
7829,74.0,3,275,5.0,87.0
7830,79.0,58,57,6.0,91.0
7831,79.0,3,55,4.0,85.0
7832,52.0,0,71,10.0,95.0
7833,88.0,1,94,1.0,93.0
7834,78.0,44,55,6.0,91.0
7835,71.0,1,108,8.0,89.0
7836,79.0,4,121,0.0,95.0
7837,78.0,8,67,4.0,91.0
7838,91.0,2,31,1.0,87.0
7839,76.0,7,49,4.0,58.0
7840,52.0,0,48,10.0,82.0
7841,67.0,4,50,7.0,82.0
7842,73.0,1,48,8.0,80.0
7843,73.0,4,51,5.0,85.0
7844,76.0,54,73,6.0,63.0
7845,90.0,2,30,1.0,98.0
7846,78.0,4,35,4.0,66.0
7847,78.0,3,44,6.0,82.0
7848,50.0,39,51,10.0,80.0
7849,74.0,1,42,8.0,80.0
7850,79.0,0,49,6.0,87.0
7851,88.0,1,51,1.0,95.0
7852,52.0,57,57,10.0,91.0
7853,76.0,1,56,5.0,89.0
7854,79.0,2,55,4.0,82.0
7855,73.0,3,64,8.0,91.0
7856,64.0,2,63,7.0,78.0
7857,83.0,50,37,6.0,89.0
7858,83.0,5,52,4.0,82.0
7859,81.0,1,33,0.0,98.0
7860,81.0,56,46,6.0,80.0
7861,81.0,2,45,4.0,70.0
7862,73.0,2,46,7.0,72.0
7863,88.0,1,51,2.0,87.0
7864,54.0,1,50,10.0,85.0
7865,45.0,3,45,3.0,113.0
7866,69.0,1,59,8.0,74.0
7867,81.0,0,52,1.0,91.0
7868,73.0,2,62,5.0,66.0
7869,79.0,5,35,0.0,89.0
7870,52.0,2,46,10.0,85.0
7871,79.0,39,48,6.0,66.0
7872,79.0,9,35,4.0,89.0
7873,78.0,0,48,6.0,82.0
7874,78.0,4,53,0.0,98.0
7875,50.0,52,61,10.0,91.0
7876,50.0,1,50,3.0,113.0
7877,78.0,3,61,4.0,87.0
7878,74.0,3,66,5.0,89.0
7879,74.0,0,67,7.0,87.0
7880,69.0,0,77,8.0,82.0
7881,81.0,1,73,1.0,102.0
7882,52.0,40,48,10.0,85.0
7883,90.0,1,96,2.0,100.0
7884,74.0,7,50,6.0,87.0
7885,54.0,61,61,10.0,87.0
7886,81.0,2,47,0.0,89.0
7887,69.0,1,50,7.0,85.0
7888,86.0,1,54,1.0,89.0
7889,69.0,3,59,5.0,80.0
7890,74.0,4,52,4.0,85.0
7891,69.0,1,73,8.0,78.0
7892,50.0,39,45,10.0,80.0
7893,62.0,1,54,7.0,74.0
7894,71.0,1,54,6.0,82.0
7895,71.0,1,49,4.0,82.0
7896,83.0,4,56,0.0,85.0
7897,62.0,1,60,5.0,70.0
7898,50.0,7,50,3.0,113.0
7899,86.0,0,59,1.0,91.0
7900,55.0,67,70,10.0,85.0
7901,67.0,1,70,8.0,64.0
7902,57.0,38,42,10.0,91.0
7903,91.0,2,94,2.0,95.0
7904,54.0,60,50,10.0,100.0
7905,67.0,1,42,7.0,82.0
7906,74.0,4,46,5.0,91.0
7907,88.0,1,51,1.0,87.0
7908,76.0,0,47,6.0,87.0
7909,79.0,1,47,0.0,80.0
7910,76.0,7,46,4.0,87.0
7911,71.0,8,72,8.0,70.0
7912,55.0,35,51,10.0,85.0
7913,85.0,1,46,0.0,82.0
7914,81.0,0,56,1.0,85.0
7915,73.0,0,51,4.0,98.0
7916,64.0,2,58,7.0,72.0
7917,57.0,68,69,10.0,102.0
7918,45.0,3,58,3.0,119.0
7919,69.0,5,65,8.0,80.0
7920,73.0,5,61,6.0,87.0
7921,61.0,44,55,7.0,80.0
7922,69.0,10,51,4.0,82.0
7923,88.0,2,121,2.0,105.0
7924,69.0,6,51,6.0,82.0
7925,62.0,1,49,7.0,78.0
7926,81.0,4,40,0.0,85.0
7927,88.0,3,53,1.0,87.0
7928,64.0,3,67,8.0,80.0
7929,71.0,1,68,4.0,80.0
7930,71.0,2,66,6.0,80.0
7931,55.0,44,80,10.0,87.0
7932,64.0,52,38,7.0,87.0
7933,73.0,3,41,4.0,80.0
7934,73.0,0,43,6.0,78.0
7935,64.0,1,262,5.0,85.0
7936,90.0,0,42,1.0,95.0
7937,45.0,4,38,3.0,116.0
7938,74.0,2,53,4.0,74.0
7939,86.0,1,44,0.0,89.0
7940,81.0,0,56,2.0,100.0
7941,57.0,3,54,7.0,93.0
7942,74.0,56,66,6.0,68.0
7943,54.0,1,68,10.0,87.0
7944,69.0,1,67,8.0,80.0
7945,88.0,44,39,1.0,98.0
7946,76.0,5,40,4.0,80.0
7947,76.0,3,47,6.0,78.0
7948,90.0,48,38,1.0,89.0
7949,78.0,3,49,6.0,82.0
7950,78.0,1,45,4.0,93.0
7951,73.0,1,47,7.0,82.0
7952,45.0,5,34,3.0,116.0
7953,73.0,0,48,5.0,80.0
7954,52.0,3,56,10.0,89.0
7955,79.0,4,51,0.0,89.0
7956,81.0,4,56,2.0,95.0
7957,69.0,2,70,8.0,78.0
7958,79.0,3,37,6.0,70.0
7959,91.0,36,40,1.0,98.0
7960,79.0,5,37,4.0,87.0
7961,78.0,56,49,6.0,102.0
7962,78.0,3,45,4.0,102.0
7963,69.0,2,49,8.0,87.0
7964,74.0,2,52,7.0,87.0
7965,74.0,0,55,5.0,85.0
7966,50.0,2,60,10.0,100.0
7967,50.0,7,50,3.0,116.0
7968,76.0,35,47,6.0,87.0
7969,67.0,6,52,8.0,82.0
7970,76.0,6,47,4.0,93.0
7971,78.0,4,114,0.0,107.0
7972,93.0,1,128,1.0,102.0
7973,81.0,0,128,2.0,113.0
7974,74.0,0,42,6.0,82.0
7975,66.0,51,51,8.0,78.0
7976,74.0,2,46,4.0,78.0
7977,71.0,2,52,7.0,85.0
7978,71.0,3,54,5.0,82.0
7979,55.0,0,58,10.0,89.0
7980,76.0,3,38,6.0,89.0
7981,76.0,9,38,4.0,82.0
7982,67.0,50,50,8.0,82.0
7983,69.0,0,52,7.0,85.0
7984,69.0,1,51,6.0,85.0
7985,69.0,5,54,5.0,82.0
7986,57.0,2,61,10.0,100.0
7987,64.0,50,69,8.0,82.0
7988,69.0,2,53,4.0,91.0
7989,45.0,1,59,3.0,119.0
7990,91.0,0,122,1.0,87.0
7991,81.0,2,123,2.0,110.0
7992,76.0,9,129,0.0,107.0
7993,73.0,1,58,6.0,91.0
7994,69.0,106,63,7.0,95.0
7995,64.0,1,64,8.0,76.0
7996,73.0,3,64,4.0,82.0
7997,45.0,1,73,10.0,93.0
7998,69.0,2,71,5.0,95.0
7999,50.0,3,20,3.0,113.0
8000,50.0,14,17,3.0,102.0
8001,50.0,23,23,3.0,95.0
8002,50.0,25,16,3.0,93.0
8003,86.0,136,124,0.0,105.0
8004,69.0,2,122,7.0,80.0
8005,90.0,0,121,1.0,102.0
8006,81.0,1,130,2.0,113.0
8007,50.0,24,37,3.0,85.0
8008,50.0,50,15,3.0,72.0
8009,50.0,5,12,3.0,66.0
8010,62.0,15,39,7.0,68.0
8011,50.0,32,14,3.0,58.0
8012,50.0,17,14,3.0,78.0
8013,74.0,0,246,6.0,116.0
8014,66.0,2,246,8.0,89.0
8015,69.0,0,257,5.0,93.0
8016,74.0,7,250,4.0,100.0
8017,50.0,24,34,3.0,66.0
8018,76.0,10,38,4.0,72.0
8019,76.0,11,50,6.0,78.0
8020,62.0,9,87,7.0,87.0
8021,50.0,17,18,3.0,66.0
8022,76.0,9,38,5.0,80.0
8023,50.0,24,9,3.0,59.0
8024,78.0,1,39,4.0,85.0
8025,78.0,5,34,5.0,93.0
8026,78.0,5,45,6.0,89.0
8027,50.0,14,31,3.0,76.0
8028,74.0,31,38,4.0,85.0
8029,66.0,1,34,7.0,70.0
8030,62.0,4,33,8.0,89.0
8031,74.0,7,42,5.0,87.0
8032,50.0,3,32,3.0,76.0
8033,74.0,2,43,6.0,87.0
8034,50.0,0,34,3.0,80.0
8035,50.0,38,18,3.0,82.0
8036,62.0,0,87,8.0,100.0
8037,50.0,24,14,3.0,98.0
8038,66.0,4,100,7.0,80.0
8039,50.0,27,17,3.0,78.0
8040,90.0,5,120,0.0,107.0
8041,86.0,1,124,1.0,102.0
8042,50.0,23,14,3.0,93.0
8043,81.0,1,144,2.0,113.0
8044,50.0,29,15,3.0,82.0
8045,50.0,24,13,3.0,87.0
8046,50.0,3,16,3.0,80.0
8047,69.0,8,33,7.0,85.0
8048,66.0,14,38,8.0,85.0
8049,50.0,23,16,3.0,95.0
8050,50.0,6,17,3.0,85.0
8051,69.0,2,268,5.0,89.0
8052,50.0,19,13,3.0,91.0
8053,69.0,47,297,4.0,91.0
8054,69.0,2,291,6.0,91.0
8055,69.0,17,72,7.0,91.0
8056,50.0,5,16,3.0,82.0
8057,66.0,8,66,8.0,82.0
8058,71.0,21,32,5.0,91.0
8059,50.0,9,11,3.0,70.0
8060,71.0,5,37,4.0,85.0
8061,71.0,9,34,6.0,98.0
8062,50.0,27,33,3.0,78.0
8063,72.0,6,34,5.0,78.0
8064,72.0,9,39,4.0,85.0
8065,72.0,7,45,6.0,89.0
8066,50.0,30,17,3.0,68.0
8067,50.0,1,14,3.0,72.0
8068,66.0,1,38,7.0,74.0
8069,69.0,12,39,5.0,87.0
8070,69.0,10,41,4.0,95.0
8071,69.0,1,35,8.0,85.0
8072,50.0,23,17,3.0,78.0
8073,69.0,6,45,6.0,100.0
8074,50.0,2,12,3.0,100.0
8075,50.0,3,18,3.0,87.0
8076,50.0,24,13,3.0,100.0
8077,50.0,27,19,3.0,82.0
8078,69.0,6,87,8.0,89.0
8079,50.0,20,14,3.0,78.0
8080,86.0,1,117,2.0,105.0
8081,90.0,5,114,1.0,102.0
8082,62.0,21,136,7.0,89.0
8083,93.0,5,130,0.0,105.0
8084,50.0,35,32,3.0,80.0
8085,50.0,51,34,3.0,78.0
8086,57.0,14,40,8.0,82.0
8087,66.0,5,37,7.0,70.0
8088,50.0,33,17,3.0,72.0
8089,50.0,0,16,3.0,100.0
8090,66.0,1,270,5.0,91.0
8091,66.0,5,260,6.0,100.0
8092,66.0,0,278,4.0,87.0
8093,50.0,29,17,3.0,74.0
8094,50.0,2,18,3.0,102.0
8095,66.0,2,77,7.0,87.0
8096,57.0,21,86,8.0,95.0
8097,67.0,14,43,5.0,72.0
8098,67.0,7,42,6.0,70.0
8099,67.0,1,42,4.0,80.0
8100,50.0,29,17,3.0,63.0
8101,50.0,25,16,3.0,95.0
8102,69.0,1,34,4.0,82.0
8103,69.0,5,40,6.0,82.0
8104,50.0,22,16,3.0,63.0
8105,69.0,3,44,5.0,80.0
8106,50.0,21,13,3.0,64.0
8107,66.0,0,35,4.0,91.0
8108,66.0,8,37,6.0,100.0
8109,69.0,1,34,7.0,80.0
8110,62.0,5,37,8.0,80.0
8111,66.0,3,35,5.0,87.0
8112,50.0,16,30,3.0,70.0
8113,50.0,3,32,3.0,72.0
8114,66.0,0,80,8.0,91.0
8115,50.0,51,17,3.0,68.0
8116,50.0,24,14,3.0,66.0
8117,69.0,38,107,7.0,87.0
8118,93.0,1,121,1.0,102.0
8119,50.0,28,18,3.0,82.0
8120,90.0,4,130,2.0,102.0
8121,98.0,1,126,0.0,100.0
8122,50.0,29,19,3.0,85.0
8123,50.0,29,17,3.0,64.0
8124,72.0,1,37,7.0,82.0
8125,69.0,10,39,8.0,89.0
8126,50.0,17,21,3.0,102.0
8127,50.0,29,16,3.0,61.0
8128,62.0,4,279,6.0,100.0
8129,50.0,16,41,3.0,95.0
8130,62.0,3,297,5.0,89.0
8131,62.0,0,304,4.0,102.0
8132,72.0,1,62,7.0,100.0
8133,69.0,11,67,8.0,102.0
8134,50.0,54,20,3.0,93.0
8135,50.0,27,15,3.0,49.0
8136,50.0,3,19,3.0,85.0
8137,64.0,12,42,6.0,72.0
8138,64.0,10,42,4.0,66.0
8139,64.0,1,43,5.0,78.0
8140,66.0,14,28,6.0,87.0
8141,50.0,1,18,3.0,70.0
8142,66.0,3,28,5.0,87.0
8143,66.0,12,33,4.0,80.0
8144,50.0,8,19,3.0,74.0
8145,67.0,12,38,6.0,85.0
8146,69.0,2,31,7.0,85.0
8147,66.0,3,36,8.0,80.0
8148,69.0,3,37,6.0,91.0
8149,67.0,2,42,5.0,74.0
8150,67.0,2,41,4.0,89.0
8151,71.0,1,31,6.0,85.0
8152,50.0,15,34,3.0,57.0
8153,69.0,1,39,5.0,82.0
8154,69.0,4,39,4.0,87.0
8155,71.0,16,34,5.0,82.0
8156,71.0,3,34,4.0,82.0
8157,50.0,4,25,3.0,82.0
8158,62.0,11,77,8.0,89.0
8159,72.0,1,98,6.0,100.0
8160,72.0,7,93,5.0,87.0
8161,72.0,5,91,4.0,87.0
8162,86.0,4,27,2.0,100.0
8163,57.0,161,37,8.0,85.0
8164,90.0,0,31,1.0,98.0
8165,72.0,2,43,5.0,82.0
8166,72.0,0,40,4.0,85.0
8167,93.0,5,35,0.0,100.0
8168,72.0,2,43,6.0,78.0
8169,50.0,3,2164,10.0,107.0
8170,50.0,4,27,3.0,105.0
8171,86.0,0,72,2.0,100.0
8172,74.0,45,81,5.0,93.0
8173,90.0,3,69,1.0,98.0
8174,66.0,0,316,7.0,95.0
8175,93.0,1,71,0.0,98.0
8176,57.0,2,86,8.0,91.0
8177,74.0,2,85,6.0,93.0
8178,74.0,1,84,4.0,93.0
8179,50.0,54,28,3.0,102.0
8180,48.0,1,38,10.0,85.0
8181,50.0,1,26,3.0,105.0
8182,47.0,59,42,10.0,89.0
8183,50.0,1,25,3.0,102.0
8184,90.0,3,31,2.0,87.0
8185,66.0,3,41,7.0,68.0
8186,93.0,1,42,0.0,87.0
8187,45.0,53,46,10.0,87.0
8188,76.0,0,39,4.0,85.0
8189,76.0,1,40,5.0,82.0
8190,60.0,0,45,8.0,66.0
8191,93.0,10,34,1.0,87.0
8192,76.0,1,38,6.0,91.0
8193,50.0,2,36,3.0,110.0
8194,98.0,2,72,0.0,95.0
8195,86.0,0,80,2.0,100.0
8196,74.0,1,83,4.0,95.0
8197,74.0,3,82,5.0,89.0
8198,91.0,3,76,1.0,98.0
8199,74.0,1,85,6.0,93.0
8200,47.0,0,93,10.0,93.0
8201,67.0,40,100,7.0,78.0
8202,62.0,5,100,8.0,93.0
8203,50.0,1,26,3.0,102.0
8204,86.0,4,36,2.0,107.0
8205,64.0,164,41,8.0,82.0
8206,91.0,1,29,1.0,98.0
8207,69.0,2,37,7.0,72.0
8208,93.0,0,38,0.0,85.0
8209,72.0,0,39,4.0,80.0
8210,72.0,2,37,6.0,87.0
8211,72.0,5,41,5.0,74.0
8212,48.0,1,40,10.0,80.0
8213,50.0,1,35,3.0,107.0
8214,86.0,0,75,2.0,105.0
8215,50.0,2,73,10.0,95.0
8216,91.0,2,80,1.0,100.0
8217,67.0,2,86,7.0,91.0
8218,62.0,47,91,8.0,100.0
8219,71.0,0,83,5.0,82.0
8220,71.0,3,90,6.0,89.0
8221,71.0,0,90,4.0,85.0
8222,95.0,1,90,0.0,89.0
8223,50.0,4,26,3.0,105.0
8224,62.0,172,35,8.0,80.0
8225,96.0,2,32,0.0,91.0
8226,69.0,0,34,4.0,85.0
8227,86.0,3,28,2.0,107.0
8228,91.0,0,30,1.0,105.0
8229,69.0,1,34,6.0,80.0
8230,69.0,1,39,5.0,85.0
8231,66.0,0,43,7.0,63.0
8232,38.0,7,39,10.0,89.0
8233,50.0,2,47,3.0,119.0
8234,67.0,1,85,7.0,82.0
8235,71.0,41,176,6.0,87.0
8236,71.0,2,178,4.0,85.0
8237,71.0,3,178,5.0,80.0
8238,71.0,163,36,7.0,82.0
8239,91.0,4,235,1.0,107.0
8240,95.0,1,239,0.0,105.0
8241,86.0,0,243,2.0,107.0
8242,71.0,57,75,7.0,87.0
8243,62.0,4,344,8.0,85.0
8244,67.0,5,149,5.0,76.0
8245,67.0,4,164,4.0,66.0
8246,67.0,1,176,6.0,78.0
8247,43.0,2,405,10.0,93.0
8248,67.0,175,36,7.0,80.0
8249,62.0,7,40,8.0,82.0
8250,67.0,4,84,8.0,87.0
8251,71.0,178,35,8.0,85.0
8252,71.0,57,67,8.0,89.0
8253,62.0,5,314,7.0,95.0
8254,71.0,1,348,6.0,82.0
8255,71.0,1,351,5.0,76.0
8256,71.0,46,385,4.0,66.0
8257,55.0,1,424,10.0,87.0
8258,64.0,158,40,7.0,82.0
8259,73.0,11,41,5.0,64.0
8260,73.0,2,40,6.0,80.0
8261,67.0,2,40,8.0,74.0
8262,73.0,8,40,4.0,78.0
8263,57.0,46,97,7.0,87.0
8264,62.0,155,50,7.0,82.0
8265,74.0,8,256,4.0,82.0
8266,74.0,0,267,5.0,78.0
8267,74.0,5,268,6.0,74.0
8268,66.0,66,75,7.0,89.0
8269,69.0,1,321,8.0,85.0
8270,73.0,59,44,5.0,70.0
8271,73.0,0,46,4.0,72.0
8272,73.0,7,41,6.0,68.0
8273,74.0,50,42,5.0,78.0
8274,74.0,0,44,4.0,76.0
8275,74.0,6,40,6.0,80.0
8276,76.0,51,32,5.0,82.0
8277,76.0,2,35,4.0,85.0
8278,76.0,0,40,6.0,80.0
8279,67.0,2,43,7.0,82.0
8280,67.0,11,37,8.0,82.0
8281,54.0,6,508,10.0,85.0
8282,76.0,3,53,5.0,82.0
8283,76.0,50,63,4.0,87.0
8284,76.0,1,62,6.0,85.0
8285,75.0,48,26,5.0,80.0
8286,75.0,7,26,4.0,80.0
8287,75.0,2,31,6.0,85.0
8288,66.0,1,98,8.0,85.0
8289,76.0,11,24,5.0,63.0
8290,69.0,1,105,7.0,87.0
8291,55.0,9,46,10.0,87.0
8292,76.0,7,29,4.0,68.0
8293,76.0,4,32,6.0,68.0
8294,75.0,14,19,5.0,64.0
8295,75.0,9,18,4.0,58.0
8296,75.0,5,22,6.0,70.0
8297,76.0,5,23,5.0,70.0
8298,76.0,10,23,4.0,63.0
8299,76.0,6,19,6.0,60.0
8300,75.0,6,18,5.0,63.0
8301,75.0,10,15,4.0,58.0
8302,57.0,1,40,10.0,80.0
8303,75.0,3,19,6.0,62.0
8304,76.0,5,21,5.0,70.0
8305,76.0,8,25,4.0,68.0
8306,76.0,5,21,6.0,76.0
8307,75.0,2,20,5.0,76.0
8308,75.0,8,21,4.0,66.0
8309,72.0,4,34,7.0,78.0
8310,75.0,3,25,6.0,80.0
8311,64.0,2,42,8.0,87.0
8312,59.0,1,41,10.0,89.0
8313,76.0,8,31,5.0,82.0
8314,76.0,8,28,4.0,78.0
8315,76.0,6,28,6.0,87.0
8316,57.0,7,45,10.0,87.0
8317,72.0,3,73,7.0,85.0
8318,66.0,3,89,8.0,87.0
8319,55.0,55,35,10.0,89.0
8320,75.0,8,129,4.0,87.0
8321,75.0,9,137,5.0,80.0
8322,75.0,1,135,6.0,87.0
8323,54.0,60,39,10.0,85.0
8324,71.0,54,35,7.0,89.0
8325,76.0,1,32,5.0,80.0
8326,67.0,0,35,8.0,78.0
8327,76.0,3,36,4.0,82.0
8328,76.0,0,39,6.0,85.0
8329,52.0,0,44,10.0,93.0
8330,71.0,57,87,7.0,91.0
8331,66.0,2,84,8.0,85.0
8332,66.0,166,49,7.0,63.0
8333,69.0,12,37,8.0,78.0
8334,78.0,0,252,5.0,80.0
8335,78.0,2,256,4.0,95.0
8336,78.0,1,267,6.0,85.0
8337,63.0,55,73,7.0,95.0
8338,69.0,3,72,8.0,87.0
8339,81.0,1,35,5.0,85.0
8340,81.0,62,37,4.0,82.0
8341,81.0,2,35,6.0,87.0
8342,79.0,0,35,4.0,85.0
8343,79.0,55,39,6.0,91.0
8344,79.0,2,39,5.0,87.0
8345,69.0,54,47,7.0,89.0
8346,78.0,3,46,4.0,72.0
8347,78.0,1,43,5.0,80.0
8348,72.0,4,44,8.0,72.0
8349,78.0,0,55,6.0,85.0
8350,66.0,4,71,8.0,95.0
8351,59.0,56,86,7.0,95.0
8352,83.0,2,94,6.0,91.0
8353,83.0,2,92,5.0,89.0
8354,51.0,2,579,10.0,85.0
8355,83.0,3,98,4.0,91.0
8356,59.0,168,45,8.0,74.0
8357,81.0,1,36,4.0,78.0
8358,81.0,4,42,6.0,80.0
8359,47.0,6,47,10.0,87.0
8360,81.0,4,39,5.0,82.0
8361,75.0,0,47,7.0,76.0
8362,49.0,48,89,10.0,85.0
8363,64.0,0,85,8.0,95.0
8364,79.0,4,88,6.0,87.0
8365,76.0,1,88,7.0,87.0
8366,79.0,3,88,4.0,82.0
8367,79.0,4,85,5.0,85.0
8368,78.0,171,39,6.0,66.0
8369,78.0,5,40,4.0,63.0
8370,78.0,1,46,7.0,80.0
8371,71.0,2,38,8.0,85.0
8372,78.0,1,42,5.0,60.0
8373,51.0,6,49,10.0,85.0
8374,79.0,40,91,6.0,85.0
8375,76.0,7,87,7.0,87.0
8376,79.0,2,86,5.0,78.0
8377,52.0,2,85,10.0,98.0
8378,79.0,3,91,4.0,82.0
8379,71.0,1,92,8.0,89.0
8380,69.0,167,45,8.0,80.0
8381,78.0,3,41,6.0,70.0
8382,78.0,1,41,4.0,70.0
8383,75.0,3,47,7.0,78.0
8384,54.0,1,53,10.0,64.0
8385,78.0,4,47,5.0,68.0
8386,76.0,1,87,4.0,82.0
8387,71.0,2,90,8.0,85.0
8388,55.0,0,91,10.0,82.0
8389,76.0,1,96,7.0,80.0
8390,76.0,6,91,5.0,87.0
8391,76.0,50,103,6.0,87.0
8392,78.0,164,40,7.0,85.0
8393,72.0,0,40,8.0,74.0
8394,78.0,0,33,4.0,76.0
8395,78.0,0,34,5.0,68.0
8396,78.0,8,45,6.0,82.0
8397,57.0,8,38,10.0,78.0
8398,79.0,7,63,6.0,87.0
8399,79.0,2,61,5.0,82.0
8400,76.0,0,81,7.0,89.0
8401,79.0,2,72,4.0,82.0
8402,78.0,4,26,5.0,68.0
8403,78.0,52,33,6.0,82.0
8404,78.0,6,30,4.0,72.0
8405,75.0,1,30,7.0,61.0
8406,79.0,4,28,5.0,78.0
8407,79.0,18,34,6.0,76.0
8408,79.0,7,29,4.0,74.0
8409,76.0,1,30,7.0,72.0
8410,59.0,2,125,10.0,89.0
8411,78.0,2,15,5.0,57.0
8412,78.0,18,23,6.0,66.0
8413,78.0,4,23,4.0,63.0
8414,75.0,3,20,7.0,70.0
8415,79.0,13,21,5.0,63.0
8416,79.0,7,16,4.0,64.0
8417,79.0,2,25,6.0,70.0
8418,76.0,0,19,7.0,70.0
8419,78.0,10,18,5.0,57.0
8420,78.0,4,16,4.0,53.0
8421,78.0,3,22,6.0,61.0
8422,75.0,0,25,7.0,72.0
8423,79.0,11,20,5.0,68.0
8424,57.0,2,38,10.0,64.0
8425,79.0,2,24,4.0,72.0
8426,79.0,4,27,6.0,59.0
8427,76.0,2,25,7.0,82.0
8428,78.0,1,20,5.0,58.0
8429,78.0,4,21,6.0,57.0
8430,56.0,9,26,10.0,82.0
8431,78.0,2,19,4.0,59.0
8432,75.0,3,23,7.0,72.0
8433,79.0,9,26,5.0,80.0
8434,79.0,1,24,4.0,72.0
8435,76.0,6,22,7.0,80.0
8436,79.0,5,29,6.0,78.0
8437,57.0,3,91,10.0,89.0
8438,71.0,50,338,8.0,80.0
8439,78.0,6,111,5.0,87.0
8440,78.0,1,110,4.0,87.0
8441,75.0,3,107,7.0,82.0
8442,78.0,4,116,6.0,91.0
8443,76.0,172,29,4.0,85.0
8444,71.0,0,31,8.0,82.0
8445,76.0,1,31,6.0,89.0
8446,76.0,1,32,5.0,80.0
8447,76.0,2,36,7.0,89.0
8448,59.0,3,35,10.0,87.0
8449,76.0,4,115,7.0,93.0
8450,64.0,165,37,7.0,80.0
8451,76.0,0,240,6.0,95.0
8452,76.0,1,251,4.0,85.0
8453,76.0,2,253,5.0,85.0
8454,64.0,61,80,7.0,89.0
8455,76.0,7,37,4.0,85.0
8456,76.0,51,44,6.0,74.0
8457,76.0,8,39,5.0,72.0
8458,74.0,3,32,4.0,87.0
8459,74.0,48,37,6.0,82.0
8460,74.0,9,33,5.0,76.0
8461,73.0,0,36,4.0,80.0
8462,73.0,46,37,6.0,68.0
8463,68.0,1,37,7.0,76.0
8464,73.0,7,38,5.0,82.0
8465,71.0,1,489,8.0,87.0
8466,56.0,55,509,10.0,85.0
8467,74.0,0,88,4.0,91.0
8468,74.0,1,93,5.0,89.0
8469,54.0,54,40,10.0,72.0
8470,74.0,2,96,6.0,87.0
8471,52.0,56,40,10.0,82.0
8472,54.0,62,40,10.0,89.0
8473,83.0,5,37,5.0,85.0
8474,64.0,2,38,8.0,80.0
8475,83.0,4,39,4.0,91.0
8476,83.0,3,48,6.0,87.0
8477,56.0,50,43,10.0,98.0
8478,76.0,0,81,5.0,89.0
8479,76.0,1,78,6.0,98.0
8480,64.0,4,85,8.0,85.0
8481,76.0,3,82,4.0,87.0
8482,54.0,49,41,10.0,87.0
8483,71.0,57,350,7.0,80.0
8484,56.0,62,43,10.0,89.0
8485,68.0,0,42,8.0,64.0
8486,52.0,59,48,10.0,85.0
8487,74.0,1,42,4.0,85.0
8488,71.0,5,33,7.0,82.0
8489,74.0,6,39,5.0,82.0
8490,74.0,6,47,6.0,87.0
8491,69.0,0,78,7.0,89.0
8492,64.0,50,90,8.0,80.0
8493,73.0,1,91,6.0,85.0
8494,73.0,2,92,5.0,87.0
8495,73.0,2,105,4.0,82.0
8496,69.0,168,46,6.0,74.0
8497,61.0,1,42,7.0,82.0
8498,69.0,5,36,8.0,82.0
8499,69.0,2,41,5.0,82.0
8500,69.0,4,50,4.0,85.0
8501,73.0,3,75,4.0,80.0
8502,64.0,1,84,7.0,91.0
8503,73.0,3,77,5.0,80.0
8504,69.0,2,84,8.0,91.0
8505,73.0,51,93,6.0,72.0
8506,69.0,4,40,7.0,82.0
8507,76.0,1,34,5.0,82.0
8508,76.0,163,45,4.0,80.0
8509,67.0,5,38,8.0,80.0
8510,76.0,5,45,6.0,82.0
8511,57.0,3,510,10.0,87.0
8512,66.0,1,101,8.0,87.0
8513,55.0,54,42,10.0,82.0
8514,54.0,57,41,10.0,82.0
8515,55.0,54,45,10.0,82.0
8516,66.0,15,38,8.0,76.0
8517,57.0,49,40,10.0,85.0
8518,81.0,2,312,6.0,89.0
8519,66.0,9,73,8.0,82.0
8520,55.0,48,37,10.0,93.0
8521,74.0,3,339,7.0,85.0
8522,81.0,4,340,5.0,82.0
8523,81.0,53,372,4.0,91.0
8524,57.0,59,40,10.0,82.0
8525,81.0,3,40,6.0,98.0
8526,81.0,2,30,4.0,91.0
8527,81.0,0,31,5.0,87.0
8528,54.0,57,48,10.0,89.0
8529,64.0,8,39,8.0,80.0
8530,69.0,1,42,7.0,82.0
8531,62.0,1,83,8.0,89.0
8532,66.0,3,84,7.0,91.0
8533,74.0,169,37,7.0,89.0
8534,59.0,1,47,8.0,70.0
8535,81.0,53,289,6.0,98.0
8536,81.0,3,285,5.0,89.0
8537,74.0,59,79,7.0,100.0
8538,66.0,3,80,8.0,85.0
8539,81.0,0,323,4.0,98.0
8540,71.0,120,43,6.0,82.0
8541,71.0,0,44,4.0,82.0
8542,71.0,7,43,5.0,70.0
8543,73.0,19,33,4.0,78.0
8544,73.0,0,34,6.0,66.0
8545,73.0,14,38,5.0,58.0
8546,74.0,11,40,4.0,80.0
8547,74.0,4,42,6.0,78.0
8548,62.0,6,38,8.0,76.0
8549,73.0,2,34,7.0,70.0
8550,76.0,5,38,4.0,85.0
8551,74.0,2,45,5.0,78.0
8552,76.0,3,38,6.0,85.0
8553,76.0,9,39,5.0,85.0
8554,78.0,10,35,4.0,85.0
8555,78.0,3,35,6.0,85.0
8556,78.0,10,35,5.0,80.0
8557,59.0,1,507,10.0,89.0
8558,62.0,3,81,8.0,82.0
8559,60.0,45,41,10.0,82.0
8560,59.0,58,36,10.0,87.0
8561,57.0,59,44,10.0,85.0
8562,59.0,6,44,8.0,72.0
8563,55.0,53,42,10.0,82.0
8564,71.0,1,320,7.0,82.0
8565,64.0,9,80,8.0,93.0
8566,79.0,13,328,6.0,89.0
8567,54.0,56,38,10.0,91.0
8568,79.0,8,345,5.0,89.0
8569,79.0,1,365,4.0,89.0
8570,52.0,60,42,10.0,87.0
8571,79.0,4,33,6.0,91.0
8572,79.0,3,31,5.0,85.0
8573,71.0,1,41,7.0,74.0
8574,79.0,0,32,4.0,85.0
8575,64.0,3,38,8.0,74.0
8576,50.0,57,50,10.0,95.0
8577,64.0,2,81,8.0,82.0
8578,69.0,4,99,7.0,85.0
8579,69.0,175,36,8.0,85.0
8580,73.0,5,35,7.0,70.0
8581,79.0,5,297,5.0,85.0
8582,73.0,6,66,7.0,85.0
8583,69.0,49,76,8.0,85.0
8584,79.0,48,336,6.0,93.0
8585,79.0,0,348,4.0,89.0
8586,78.0,117,38,5.0,62.0
8587,76.0,19,41,5.0,82.0
8588,78.0,5,36,4.0,66.0
8589,78.0,9,37,6.0,64.0
8590,76.0,8,41,4.0,82.0
8591,76.0,10,25,6.0,66.0
8592,73.0,3,36,5.0,53.0
8593,74.0,6,54,5.0,72.0
8594,64.0,2,42,8.0,80.0
8595,76.0,0,38,7.0,91.0
8596,74.0,1,36,6.0,85.0
8597,73.0,4,39,4.0,60.0
8598,74.0,5,47,4.0,72.0
8599,71.0,13,31,5.0,89.0
8600,71.0,9,32,4.0,91.0
8601,73.0,8,37,6.0,105.0
8602,49.0,3,494,10.0,80.0
8603,71.0,1,35,6.0,78.0
8604,76.0,18,92,7.0,87.0
8605,50.0,33,39,10.0,78.0
8606,69.0,1,131,5.0,85.0
8607,69.0,5,141,4.0,57.0
8608,69.0,16,135,6.0,95.0
8609,49.0,62,41,10.0,82.0
8610,67.0,9,34,5.0,74.0
8611,67.0,3,34,4.0,70.0
8612,74.0,0,46,7.0,82.0
8613,47.0,56,48,10.0,85.0
8614,67.0,8,37,6.0,70.0
8615,66.0,15,33,5.0,80.0
8616,66.0,5,28,4.0,78.0
8617,66.0,8,24,6.0,85.0
8618,45.0,1,42,10.0,82.0
8619,76.0,16,75,7.0,95.0
8620,69.0,1,328,8.0,95.0
8621,47.0,40,41,10.0,93.0
8622,67.0,11,90,5.0,89.0
8623,67.0,1,94,4.0,85.0
8624,67.0,6,102,6.0,82.0
8625,49.0,57,45,10.0,100.0
8626,76.0,2,36,5.0,89.0
8627,76.0,1,32,4.0,87.0
8628,76.0,1,32,6.0,95.0
8629,45.0,59,43,10.0,95.0
8630,69.0,1,35,8.0,82.0
8631,73.0,5,48,7.0,68.0
8632,50.0,1,16,3.0,105.0
8633,50.0,28,16,3.0,107.0
8634,50.0,23,16,3.0,87.0
8635,74.0,0,77,7.0,98.0
8636,69.0,2,85,8.0,87.0
8637,50.0,24,14,3.0,98.0
8638,50.0,23,18,3.0,87.0
8639,50.0,22,13,3.0,66.0
8640,50.0,28,34,3.0,85.0
8641,69.0,24,31,7.0,95.0
8642,66.0,3,36,8.0,82.0
8643,86.0,3,38,0.0,87.0
8644,78.0,1,38,2.0,89.0
8645,81.0,3,40,1.0,87.0
8646,50.0,14,35,3.0,85.0
8647,66.0,3,249,6.0,93.0
8648,66.0,1,258,4.0,78.0
8649,66.0,57,264,5.0,82.0
8650,50.0,5,25,3.0,87.0
8651,69.0,34,76,7.0,100.0
8652,66.0,4,72,8.0,87.0
8653,86.0,11,64,0.0,91.0
8654,78.0,0,66,2.0,100.0
8655,81.0,0,66,1.0,102.0
8656,67.0,36,33,6.0,80.0
8657,50.0,3,23,3.0,89.0
8658,67.0,7,35,4.0,82.0
8659,67.0,5,41,5.0,78.0
8660,50.0,7,32,3.0,87.0
8661,69.0,43,41,6.0,80.0
8662,69.0,3,41,4.0,80.0
8663,69.0,9,41,5.0,85.0
8664,50.0,37,17,3.0,85.0
8665,50.0,2,13,3.0,107.0
8666,71.0,1,38,6.0,93.0
8667,71.0,6,33,4.0,85.0
8668,66.0,3,33,7.0,102.0
8669,62.0,4,43,8.0,82.0
8670,90.0,3,34,0.0,85.0
8671,86.0,0,37,1.0,91.0
8672,81.0,2,34,2.0,82.0
8673,71.0,2,36,5.0,89.0
8674,50.0,29,16,3.0,82.0
8675,50.0,5,15,3.0,105.0
8676,50.0,2,500,10.0,82.0
8677,50.0,24,15,3.0,78.0
8678,66.0,0,63,7.0,102.0
8679,81.0,2,60,2.0,91.0
8680,50.0,21,16,3.0,105.0
8681,57.0,3,77,8.0,82.0
8682,86.0,3,69,1.0,93.0
8683,90.0,1,70,0.0,89.0
8684,52.0,0,39,10.0,87.0
8685,50.0,35,33,3.0,82.0
8686,50.0,23,17,3.0,80.0
8687,50.0,26,44,10.0,91.0
8688,50.0,19,15,3.0,70.0
8689,50.0,1,16,3.0,80.0
8690,62.0,2,33,7.0,85.0
8691,48.0,18,39,10.0,82.0
8692,86.0,4,34,2.0,91.0
8693,62.0,3,41,8.0,80.0
8694,93.0,2,35,0.0,87.0
8695,90.0,2,34,1.0,87.0
8696,50.0,21,18,3.0,102.0
8697,50.0,4,15,3.0,78.0
8698,50.0,17,16,3.0,102.0
8699,47.0,19,58,10.0,87.0
8700,66.0,10,72,8.0,91.0
8701,93.0,2,69,0.0,89.0
8702,50.0,9,16,3.0,80.0
8703,86.0,1,68,2.0,100.0
8704,90.0,3,69,1.0,95.0
8705,45.0,24,39,10.0,87.0
8706,50.0,22,15,3.0,72.0
8707,72.0,0,351,5.0,85.0
8708,72.0,13,373,6.0,85.0
8709,72.0,3,363,4.0,80.0
8710,50.0,2,15,3.0,76.0
8711,50.0,20,13,3.0,63.0
8712,43.0,29,46,10.0,91.0
8713,50.0,29,27,3.0,78.0
8714,95.0,0,27,0.0,82.0
8715,74.0,0,33,5.0,87.0
8716,91.0,2,29,1.0,91.0
8717,74.0,0,34,4.0,87.0
8718,42.0,5,38,10.0,78.0
8719,74.0,2,37,6.0,87.0
8720,86.0,8,29,2.0,89.0
8721,69.0,10,49,8.0,76.0
8722,50.0,34,22,3.0,100.0
8723,50.0,9,19,3.0,98.0
8724,67.0,14,83,8.0,89.0
8725,62.0,0,316,7.0,85.0
8726,95.0,1,95,0.0,107.0
8727,86.0,3,93,2.0,102.0
8728,91.0,0,100,1.0,113.0
8729,50.0,7,13,3.0,98.0
8730,50.0,17,10,3.0,51.0
8731,66.0,158,47,7.0,80.0
8732,62.0,3,49,8.0,85.0
8733,50.0,25,19,3.0,110.0
8734,71.0,2,270,5.0,87.0
8735,71.0,5,265,6.0,89.0
8736,71.0,3,275,4.0,87.0
8737,50.0,19,19,3.0,110.0
8738,67.0,9,83,7.0,87.0
8739,64.0,1,91,8.0,89.0
8740,69.0,38,38,6.0,78.0
8741,69.0,0,42,5.0,78.0
8742,69.0,3,43,4.0,80.0
8743,67.0,55,34,6.0,85.0
8744,67.0,0,33,4.0,82.0
8745,67.0,4,37,5.0,87.0
8746,50.0,4,22,3.0,105.0
8747,66.0,2,39,4.0,93.0
8748,66.0,50,45,6.0,87.0
8749,66.0,4,42,5.0,80.0
8750,69.0,7,37,7.0,89.0
8751,66.0,2,49,8.0,80.0
8752,50.0,4,34,3.0,107.0
8753,64.0,2,46,4.0,85.0
8754,64.0,43,56,6.0,91.0
8755,64.0,3,53,5.0,82.0
8756,88.0,2,73,2.0,105.0
8757,71.0,2,90,7.0,87.0
8758,95.0,1,84,1.0,102.0
8759,66.0,43,42,4.0,85.0
8760,67.0,1,97,8.0,89.0
8761,91.0,5,87,0.0,110.0
8762,66.0,1,42,6.0,89.0
8763,66.0,2,47,5.0,82.0
8764,67.0,1,45,4.0,85.0
8765,67.0,58,48,6.0,85.0
8766,67.0,2,53,5.0,68.0
8767,69.0,58,44,4.0,82.0
8768,69.0,1,44,6.0,80.0
8769,69.0,3,45,5.0,87.0
8770,73.0,2,50,7.0,74.0
8771,64.0,3,48,8.0,76.0
8772,71.0,53,45,6.0,87.0
8773,71.0,1,52,4.0,87.0
8774,71.0,2,48,5.0,87.0
8775,74.0,3,77,7.0,98.0
8776,66.0,3,87,8.0,91.0
8777,73.0,1,46,6.0,82.0
8778,73.0,2,46,5.0,66.0
8779,73.0,53,49,4.0,70.0
8780,74.0,55,43,6.0,95.0
8781,74.0,2,42,4.0,95.0
8782,74.0,5,42,5.0,93.0
8783,71.0,49,53,6.0,85.0
8784,76.0,3,51,7.0,89.0
8785,71.0,1,52,4.0,74.0
8786,67.0,0,53,8.0,82.0
8787,71.0,1,52,5.0,87.0
8788,45.0,5,22,3.0,107.0
8789,73.0,65,44,4.0,100.0
8790,73.0,2,43,6.0,100.0
8791,73.0,1,43,5.0,102.0
8792,45.0,26,16,3.0,100.0
8793,45.0,2,19,3.0,78.0
8794,69.0,0,80,7.0,89.0
8795,64.0,1,81,8.0,91.0
8796,74.0,16,43,4.0,80.0
8797,74.0,1,42,5.0,82.0
8798,45.0,25,16,3.0,105.0
8799,74.0,6,50,6.0,85.0
8800,45.0,3,17,3.0,72.0
8801,73.0,27,46,4.0,80.0
8802,45.0,19,20,3.0,105.0
8803,73.0,0,42,5.0,85.0
8804,73.0,4,47,6.0,95.0
8805,45.0,28,21,3.0,68.0
8806,81.0,4,34,2.0,98.0
8807,71.0,6,41,4.0,85.0
8808,45.0,8,18,3.0,91.0
8809,71.0,2,36,5.0,89.0
8810,76.0,1,34,0.0,95.0
8811,64.0,4,36,7.0,87.0
8812,71.0,1,45,6.0,82.0
8813,81.0,3,36,1.0,98.0
8814,69.0,1,39,8.0,89.0
8815,45.0,28,20,3.0,63.0
8816,43.0,2,1215,10.0,98.0
8817,45.0,0,19,3.0,102.0
8818,69.0,9,53,4.0,85.0
8819,69.0,5,49,6.0,87.0
8820,69.0,2,50,5.0,95.0
8821,81.0,0,53,2.0,98.0
8822,61.0,1,70,7.0,87.0
8823,76.0,3,67,0.0,102.0
8824,81.0,1,62,1.0,100.0
8825,69.0,4,65,8.0,89.0
8826,45.0,35,40,3.0,80.0
8827,42.0,2,34,10.0,87.0
8828,71.0,0,46,6.0,91.0
8829,71.0,13,48,4.0,85.0
8830,71.0,3,52,5.0,85.0
8831,45.0,31,20,3.0,66.0
8832,73.0,23,40,6.0,95.0
8833,40.0,2,38,10.0,85.0
8834,45.0,0,39,3.0,105.0
8835,73.0,3,44,4.0,78.0
8836,73.0,5,42,5.0,85.0
8837,45.0,39,35,3.0,76.0
8838,81.0,4,34,2.0,91.0
8839,81.0,3,33,0.0,93.0
8840,64.0,2,40,8.0,80.0
8841,38.0,3,43,10.0,87.0
8842,74.0,3,51,6.0,85.0
8843,88.0,2,35,1.0,89.0
8844,57.0,2,37,7.0,91.0
8845,74.0,1,44,5.0,87.0
8846,74.0,0,49,4.0,85.0
8847,45.0,29,30,3.0,102.0
8848,76.0,18,44,6.0,82.0
8849,45.0,12,25,3.0,105.0
8850,76.0,4,49,4.0,89.0
8851,76.0,0,46,5.0,93.0
8852,81.0,0,56,2.0,102.0
8853,69.0,1,66,7.0,102.0
8854,88.0,1,64,1.0,102.0
8855,64.0,0,71,8.0,87.0
8856,81.0,3,67,0.0,100.0
8857,37.0,4,80,10.0,89.0
8858,78.0,30,40,6.0,89.0
8859,78.0,3,39,5.0,80.0
8860,78.0,11,44,4.0,72.0
8861,79.0,40,43,6.0,89.0
8862,79.0,5,39,5.0,82.0
8863,79.0,13,46,4.0,82.0
8864,81.0,41,38,6.0,98.0
8865,45.0,1,31,3.0,102.0
8866,61.0,3,39,8.0,85.0
8867,78.0,5,36,2.0,95.0
8868,90.0,3,31,1.0,98.0
8869,81.0,1,35,4.0,87.0
8870,66.0,0,37,7.0,98.0
8871,45.0,2,42,10.0,87.0
8872,83.0,1,34,0.0,85.0
8873,81.0,1,33,5.0,89.0
8874,45.0,41,20,3.0,100.0
8875,79.0,3,45,6.0,100.0
8876,79.0,4,40,4.0,93.0
8877,79.0,1,47,5.0,102.0
8878,50.0,18,35,3.0,105.0
8879,74.0,0,53,2.0,105.0
8880,62.0,7,65,7.0,89.0
8881,90.0,2,60,1.0,102.0
8882,62.0,0,71,8.0,85.0
8883,47.0,0,77,10.0,89.0
8884,79.0,2,68,0.0,100.0
8885,78.0,23,35,6.0,102.0
8886,78.0,9,37,4.0,98.0
8887,78.0,10,31,5.0,102.0
8888,79.0,38,39,6.0,91.0
8889,79.0,8,38,4.0,82.0
8890,79.0,10,31,5.0,85.0
8891,76.0,41,34,6.0,89.0
8892,69.0,1,34,7.0,85.0
8893,88.0,0,32,1.0,85.0
8894,76.0,2,30,4.0,85.0
8895,81.0,5,32,0.0,87.0
8896,49.0,0,31,10.0,95.0
8897,64.0,2,41,8.0,89.0
8898,76.0,4,27,5.0,93.0
8899,81.0,4,32,2.0,98.0
8900,45.0,5,27,3.0,102.0
8901,50.0,2,37,3.0,107.0
8902,57.0,2,65,8.0,95.0
8903,81.0,0,66,2.0,102.0
8904,86.0,2,71,1.0,100.0
8905,78.0,6,78,0.0,95.0
8906,69.0,40,89,7.0,98.0
8907,50.0,1,92,10.0,100.0
8908,78.0,1,119,4.0,93.0
8909,78.0,0,119,5.0,105.0
8910,78.0,2,136,6.0,105.0
8911,76.0,157,25,6.0,62.0
8912,76.0,2,25,4.0,66.0
8913,76.0,2,23,5.0,64.0
8914,45.0,4,27,3.0,107.0
8915,81.0,0,37,1.0,78.0
8916,81.0,0,33,2.0,95.0
8917,64.0,2,40,8.0,85.0
8918,79.0,1,35,0.0,80.0
8919,67.0,0,45,7.0,78.0
8920,52.0,3,44,10.0,80.0
8921,74.0,9,30,6.0,89.0
8922,74.0,2,31,5.0,82.0
8923,74.0,0,33,4.0,66.0
8924,73.0,4,19,5.0,64.0
8925,73.0,23,24,4.0,70.0
8926,73.0,1,28,6.0,89.0
8927,50.0,1,35,3.0,113.0
8928,81.0,2,59,2.0,102.0
8929,86.0,0,68,1.0,98.0
8930,62.0,17,74,8.0,100.0
8931,69.0,1,88,7.0,93.0
8932,54.0,0,91,10.0,102.0
8933,74.0,0,84,6.0,100.0
8934,78.0,2,90,0.0,91.0
8935,74.0,6,100,5.0,93.0
8936,74.0,0,101,4.0,82.0
8937,50.0,2,25,3.0,102.0
8938,81.0,1,29,2.0,95.0
8939,67.0,162,38,8.0,91.0
8940,71.0,7,32,4.0,85.0
8941,81.0,1,31,1.0,89.0
8942,71.0,0,33,5.0,85.0
8943,55.0,1,31,10.0,82.0
8944,76.0,1,35,0.0,91.0
8945,71.0,2,34,7.0,82.0
8946,71.0,2,33,6.0,100.0
8947,45.0,0,30,3.0,122.0
8948,66.0,0,74,8.0,98.0
8949,78.0,5,67,0.0,95.0
8950,74.0,53,82,4.0,91.0
8951,74.0,0,75,5.0,93.0
8952,74.0,0,79,6.0,95.0
8953,81.0,3,89,1.0,91.0
8954,76.0,56,25,0.0,82.0
8955,64.0,0,29,8.0,76.0
8956,73.0,1,28,5.0,62.0
8957,73.0,8,35,4.0,56.0
8958,73.0,3,33,6.0,60.0
8959,78.0,15,26,0.0,78.0
8960,66.0,2,26,8.0,82.0
8961,74.0,1,28,5.0,70.0
8962,74.0,11,31,6.0,82.0
8963,76.0,1,17,0.0,68.0
8964,57.0,2,132,10.0,98.0
8965,74.0,1,33,4.0,66.0
8966,64.0,12,22,8.0,74.0
8967,45.0,6,20,3.0,105.0
8968,73.0,4,19,5.0,62.0
8969,73.0,6,24,6.0,63.0
8970,73.0,2,21,4.0,64.0
8971,78.0,2,20,0.0,82.0
8972,66.0,3,20,8.0,76.0
8973,69.0,2,156,7.0,95.0
8974,74.0,11,19,6.0,70.0
8975,74.0,2,20,5.0,70.0
8976,74.0,1,19,4.0,64.0
8977,76.0,4,23,0.0,78.0
8978,64.0,0,27,8.0,68.0
8979,73.0,13,21,6.0,57.0
8980,73.0,1,21,5.0,57.0
8981,73.0,1,19,4.0,57.0
8982,78.0,0,22,0.0,91.0
8983,66.0,1,21,8.0,80.0
8984,45.0,3,26,3.0,107.0
8985,74.0,11,20,6.0,82.0
8986,78.0,2,39,1.0,85.0
8987,74.0,2,20,5.0,80.0
8988,74.0,2,20,4.0,80.0
8989,64.0,0,22,8.0,80.0
8990,76.0,4,23,0.0,76.0
8991,73.0,11,23,6.0,63.0
8992,73.0,6,18,5.0,59.0
8993,73.0,1,21,4.0,62.0
8994,66.0,1,23,8.0,82.0
8995,78.0,2,22,0.0,95.0
8996,74.0,2,22,5.0,87.0
8997,74.0,10,24,6.0,87.0
8998,74.0,1,21,4.0,85.0
8999,45.0,1,33,3.0,127.0
9000,81.0,1,71,1.0,100.0
9001,81.0,1,323,2.0,110.0
9002,76.0,3,95,0.0,100.0
9003,64.0,3,103,8.0,89.0
9004,73.0,4,102,5.0,85.0
9005,73.0,0,115,6.0,85.0
9006,73.0,2,108,4.0,89.0
9007,45.0,2,123,10.0,85.0
9008,69.0,6,140,7.0,91.0
9009,66.0,148,32,8.0,89.0
9010,74.0,6,27,0.0,102.0
9011,45.0,3,29,3.0,122.0
9012,74.0,4,36,6.0,87.0
9013,74.0,4,24,5.0,87.0
9014,81.0,0,30,2.0,100.0
9015,74.0,3,39,4.0,85.0
9016,81.0,6,37,1.0,95.0
9017,50.0,2,43,3.0,127.0
9018,74.0,1,43,6.0,102.0
9019,74.0,2,48,4.0,102.0
9020,81.0,1,79,2.0,100.0
9021,66.0,0,88,8.0,100.0
9022,78.0,1,89,1.0,98.0
9023,74.0,0,103,0.0,113.0
9024,69.0,55,106,7.0,100.0
9025,38.0,0,103,10.0,95.0
9026,74.0,6,109,5.0,95.0
9027,69.0,1,48,4.0,78.0
9028,69.0,123,51,6.0,87.0
9029,71.0,48,52,6.0,82.0
9030,71.0,4,49,4.0,82.0
9031,73.0,1,51,4.0,80.0
9032,73.0,59,56,6.0,74.0
9033,73.0,119,49,4.0,58.0
9034,73.0,1,50,6.0,57.0
9035,74.0,2,39,4.0,80.0
9036,74.0,50,43,6.0,64.0
9037,76.0,4,63,4.0,78.0
9038,76.0,57,67,6.0,85.0
9039,73.0,123,49,4.0,59.0
9040,73.0,1,49,6.0,56.0
9041,74.0,53,47,4.0,76.0
9042,74.0,2,48,6.0,66.0
9043,76.0,1,53,4.0,85.0
9044,76.0,61,63,6.0,78.0
9045,76.0,0,48,6.0,63.0
9046,76.0,121,54,4.0,72.0
9047,78.0,48,40,4.0,66.0
9048,78.0,0,44,6.0,59.0
9049,79.0,2,58,4.0,87.0
9050,79.0,61,69,6.0,80.0
9051,79.0,123,49,6.0,70.0
9052,79.0,4,52,4.0,80.0
9053,78.0,42,45,6.0,60.0
9054,78.0,6,44,4.0,60.0
9055,79.0,3,58,4.0,80.0
9056,79.0,61,67,6.0,72.0
9057,81.0,120,48,6.0,70.0
9058,81.0,8,54,4.0,78.0
9059,79.0,1,38,6.0,70.0
9060,79.0,49,43,4.0,70.0
9061,78.0,4,46,4.0,93.0
9062,78.0,63,53,6.0,68.0
9063,81.0,4,41,6.0,82.0
9064,81.0,1,40,4.0,85.0
9065,62.0,117,54,5.0,76.0
9066,62.0,1,52,7.0,74.0
9067,64.0,45,50,5.0,70.0
9068,64.0,3,52,7.0,78.0
9069,74.0,7,47,6.0,72.0
9070,74.0,5,47,4.0,76.0
9071,66.0,1,60,7.0,78.0
9072,66.0,59,68,5.0,80.0
9073,66.0,121,48,7.0,59.0
9074,66.0,3,50,5.0,58.0
9075,67.0,42,43,7.0,68.0
9076,67.0,10,45,5.0,60.0
9077,78.0,1,160,4.0,68.0
9078,78.0,0,180,6.0,63.0
9079,69.0,55,73,7.0,82.0
9080,69.0,7,66,5.0,89.0
9081,81.0,2,44,6.0,76.0
9082,81.0,1,47,4.0,85.0
9083,66.0,0,47,5.0,64.0
9084,66.0,119,54,7.0,61.0
9085,67.0,52,47,5.0,66.0
9086,67.0,7,53,7.0,57.0
9087,72.0,1,45,6.0,78.0
9088,72.0,1,56,4.0,80.0
9089,69.0,1,64,7.0,76.0
9090,69.0,62,65,5.0,87.0
9091,69.0,1,49,7.0,78.0
9092,69.0,120,55,5.0,63.0
9093,71.0,45,47,7.0,78.0
9094,71.0,2,49,5.0,78.0
9095,78.0,1,155,4.0,66.0
9096,78.0,2,168,6.0,66.0
9097,72.0,61,67,7.0,91.0
9098,72.0,5,62,5.0,87.0
9099,72.0,1,45,7.0,66.0
9100,81.0,3,45,4.0,85.0
9101,81.0,120,58,6.0,82.0
9102,72.0,4,53,5.0,80.0
9103,71.0,8,40,5.0,60.0
9104,71.0,37,54,7.0,60.0
9105,74.0,4,53,4.0,78.0
9106,74.0,6,53,6.0,74.0
9107,72.0,2,63,5.0,80.0
9108,72.0,60,67,7.0,87.0
9109,74.0,111,52,7.0,76.0
9110,74.0,1,50,5.0,76.0
9111,78.0,4,59,4.0,63.0
9112,78.0,0,58,6.0,57.0
9113,72.0,3,44,5.0,66.0
9114,72.0,51,47,7.0,66.0
9115,79.0,1,48,4.0,82.0
9116,79.0,4,46,6.0,82.0
9117,71.0,0,61,5.0,66.0
9118,71.0,63,64,7.0,82.0
9119,83.0,116,48,4.0,80.0
9120,83.0,3,45,6.0,82.0
9121,67.0,3,54,7.0,70.0
9122,67.0,1,54,5.0,70.0
9123,69.0,51,50,7.0,74.0
9124,69.0,1,53,5.0,68.0
9125,74.0,3,47,4.0,82.0
9126,74.0,2,49,6.0,80.0
9127,71.0,60,59,7.0,82.0
9128,71.0,1,68,5.0,82.0
9129,71.0,1,63,7.0,68.0
9130,71.0,114,65,5.0,72.0
9131,73.0,46,51,5.0,60.0
9132,73.0,0,51,7.0,64.0
9133,80.0,2,166,6.0,80.0
9134,80.0,4,168,4.0,72.0
9135,74.0,65,62,7.0,95.0
9136,74.0,3,74,5.0,89.0
9137,74.0,116,51,7.0,80.0
9138,83.0,4,49,6.0,80.0
9139,83.0,7,47,4.0,85.0
9140,74.0,3,55,5.0,70.0
9141,73.0,37,46,7.0,70.0
9142,73.0,4,45,5.0,60.0
9143,76.0,0,52,6.0,74.0
9144,76.0,3,53,4.0,70.0
9145,74.0,59,64,7.0,85.0
9146,74.0,7,66,5.0,82.0
9147,80.0,1,42,4.0,70.0
9148,80.0,0,50,6.0,72.0
9149,76.0,113,64,7.0,80.0
9150,76.0,6,61,5.0,68.0
9151,74.0,47,49,7.0,82.0
9152,74.0,5,47,5.0,70.0
9153,73.0,61,54,7.0,85.0
9154,73.0,3,55,5.0,80.0
9155,81.0,7,63,4.0,82.0
9156,81.0,0,62,6.0,78.0
9157,76.0,52,46,4.0,76.0
9158,76.0,7,40,6.0,70.0
9159,73.0,53,48,4.0,63.0
9160,76.0,4,43,5.0,87.0
9161,76.0,1,50,7.0,87.0
9162,73.0,0,48,6.0,68.0
9163,57.0,5,49,8.0,85.0
9164,59.0,6,50,8.0,66.0
9165,74.0,40,56,4.0,72.0
9166,74.0,1,50,6.0,68.0
9167,69.0,2,42,5.0,72.0
9168,69.0,3,45,7.0,78.0
9169,76.0,58,53,4.0,58.0
9170,76.0,1,54,6.0,63.0
9171,61.0,1,67,8.0,87.0
9172,78.0,45,61,4.0,57.0
9173,78.0,10,54,6.0,58.0
9174,61.0,4,55,8.0,68.0
9175,76.0,3,63,6.0,53.0
9176,76.0,58,73,4.0,56.0
9177,62.0,41,48,8.0,74.0
9178,78.0,4,52,4.0,59.0
9179,78.0,7,48,6.0,66.0
9180,73.0,1,166,7.0,80.0
9181,73.0,1,175,5.0,78.0
9182,79.0,0,64,6.0,85.0
9183,79.0,7,66,4.0,85.0
9184,64.0,55,74,8.0,91.0
9185,76.0,3,45,6.0,68.0
9186,76.0,55,53,4.0,66.0
9187,76.0,0,40,7.0,82.0
9188,76.0,5,47,5.0,85.0
9189,61.0,1,52,8.0,76.0
9190,69.0,59,64,6.0,57.0
9191,69.0,3,70,4.0,59.0
9192,62.0,47,46,8.0,72.0
9193,71.0,4,49,6.0,61.0
9194,71.0,2,49,4.0,57.0
9195,67.0,4,44,5.0,68.0
9196,67.0,3,49,7.0,74.0
9197,64.0,55,61,8.0,87.0
9198,73.0,3,63,4.0,60.0
9199,73.0,1,67,6.0,52.0
9200,74.0,8,47,4.0,68.0
9201,74.0,41,56,6.0,61.0
9202,73.0,60,52,6.0,52.0
9203,73.0,6,51,4.0,49.0
9204,64.0,9,55,8.0,85.0
9205,74.0,1,48,4.0,70.0
9206,66.0,8,49,8.0,80.0
9207,74.0,35,61,6.0,62.0
9208,76.0,59,60,4.0,80.0
9209,67.0,3,60,8.0,91.0
9210,76.0,0,68,6.0,82.0
9211,73.0,1,192,5.0,80.0
9212,73.0,1,188,7.0,80.0
9213,74.0,45,69,4.0,64.0
9214,74.0,10,60,6.0,68.0
9215,76.0,6,48,7.0,87.0
9216,76.0,3,54,5.0,82.0
9217,73.0,57,62,4.0,43.0
9218,73.0,2,63,6.0,47.0
9219,67.0,3,57,8.0,82.0
9220,74.0,1,48,6.0,63.0
9221,74.0,1,50,4.0,64.0
9222,66.0,43,53,8.0,66.0
9223,69.0,62,62,5.0,80.0
9224,76.0,6,54,4.0,87.0
9225,67.0,1,61,8.0,85.0
9226,76.0,2,66,6.0,82.0
9227,69.0,1,60,7.0,82.0
9228,74.0,1,68,4.0,68.0
9229,74.0,45,72,6.0,68.0
9230,73.0,5,41,5.0,70.0
9231,73.0,61,57,6.0,53.0
9232,73.0,2,45,7.0,78.0
9233,73.0,2,64,4.0,52.0
9234,69.0,3,68,8.0,78.0
9235,67.0,1,55,8.0,85.0
9236,71.0,42,69,6.0,55.0
9237,71.0,5,70,4.0,53.0
9238,66.0,3,48,8.0,82.0
9239,74.0,2,54,5.0,76.0
9240,74.0,2,57,7.0,66.0
9241,69.0,63,68,6.0,63.0
9242,69.0,2,63,4.0,70.0
9243,69.0,54,42,5.0,80.0
9244,69.0,1,41,7.0,80.0
9245,74.0,0,75,6.0,72.0
9246,74.0,2,77,4.0,78.0
9247,69.0,6,43,8.0,87.0
9248,66.0,52,57,5.0,68.0
9249,66.0,4,51,7.0,74.0
9250,73.0,0,69,6.0,63.0
9251,50.0,4,56,10.0,82.0
9252,73.0,2,76,4.0,64.0
9253,67.0,41,45,5.0,76.0
9254,67.0,0,43,7.0,70.0
9255,71.0,1,54,6.0,63.0
9256,52.0,3,52,10.0,80.0
9257,71.0,3,58,4.0,66.0
9258,69.0,4,51,5.0,80.0
9259,62.0,10,43,8.0,82.0
9260,69.0,0,57,7.0,63.0
9261,69.0,53,64,6.0,76.0
9262,69.0,1,62,4.0,76.0
9263,54.0,3,71,10.0,80.0
9264,71.0,39,43,5.0,72.0
9265,71.0,4,41,7.0,76.0
9266,67.0,0,60,6.0,53.0
9267,67.0,6,67,4.0,52.0
9268,66.0,53,48,6.0,57.0
9269,69.0,0,56,5.0,64.0
9270,69.0,8,52,7.0,57.0
9271,66.0,4,50,4.0,49.0
9272,54.0,1,51,10.0,66.0
9273,64.0,34,42,6.0,59.0
9274,71.0,4,45,5.0,68.0
9275,71.0,3,43,7.0,64.0
9276,64.0,1,44,4.0,63.0
9277,55.0,2,44,10.0,78.0
9278,72.0,60,61,5.0,85.0
9279,72.0,5,59,7.0,87.0
9280,66.0,3,171,8.0,89.0
9281,57.0,2,70,10.0,95.0
9282,62.0,1,78,6.0,55.0
9283,62.0,2,72,4.0,70.0
9284,69.0,46,40,5.0,80.0
9285,69.0,7,37,7.0,74.0
9286,54.0,7,52,10.0,64.0
9287,62.0,54,66,7.0,68.0
9288,62.0,1,65,5.0,59.0
9289,69.0,0,56,8.0,85.0
9290,64.0,33,44,7.0,72.0
9291,86.0,11,92,0.0,82.0
9292,64.0,4,48,5.0,70.0
9293,55.0,1,57,10.0,70.0
9294,74.0,3,97,4.0,62.0
9295,74.0,6,100,6.0,62.0
9296,66.0,55,63,7.0,78.0
9297,66.0,10,58,5.0,62.0
9298,60.0,8,48,8.0,82.0
9299,57.0,2,76,10.0,87.0
9300,67.0,29,47,7.0,68.0
9301,86.0,2,100,0.0,82.0
9302,67.0,8,55,5.0,61.0
9303,74.0,5,93,6.0,64.0
9304,74.0,1,93,4.0,60.0
9305,66.0,54,57,7.0,56.0
9306,66.0,8,51,5.0,70.0
9307,57.0,1,60,10.0,66.0
9308,67.0,6,44,5.0,74.0
9309,86.0,10,94,0.0,87.0
9310,67.0,32,54,7.0,63.0
9311,74.0,4,97,6.0,63.0
9312,74.0,3,101,4.0,60.0
9313,59.0,9,50,10.0,85.0
9314,66.0,4,159,8.0,85.0
9315,69.0,2,62,5.0,89.0
9316,60.0,3,68,10.0,85.0
9317,69.0,57,81,7.0,80.0
9318,74.0,5,88,4.0,63.0
9319,74.0,0,94,6.0,66.0
9320,86.0,5,96,0.0,93.0
9321,67.0,42,56,5.0,66.0
9322,67.0,8,65,7.0,72.0
9323,69.0,2,42,8.0,82.0
9324,50.0,4,36,3.0,113.0
9325,66.0,56,60,5.0,48.0
9326,66.0,1,63,7.0,55.0
9327,60.0,0,59,10.0,85.0
9328,81.0,0,83,2.0,98.0
9329,86.0,2,91,1.0,85.0
9330,74.0,0,91,6.0,61.0
9331,74.0,0,93,4.0,61.0
9332,59.0,1,46,10.0,80.0
9333,90.0,3,101,0.0,87.0
9334,67.0,49,48,5.0,63.0
9335,67.0,2,54,7.0,68.0
9336,50.0,0,36,3.0,107.0
9337,60.0,58,59,10.0,91.0
9338,62.0,3,58,8.0,76.0
9339,69.0,1,56,5.0,82.0
9340,69.0,3,65,7.0,93.0
9341,81.0,1,75,2.0,91.0
9342,86.0,0,89,1.0,85.0
9343,74.0,2,87,4.0,66.0
9344,74.0,0,97,6.0,60.0
9345,90.0,0,98,0.0,89.0
9346,67.0,49,62,5.0,68.0
9347,67.0,4,77,7.0,70.0
9348,50.0,3,36,3.0,110.0
9349,66.0,3,50,8.0,80.0
9350,66.0,0,56,5.0,57.0
9351,66.0,55,66,7.0,57.0
9352,62.0,0,62,10.0,85.0
9353,86.0,3,78,1.0,102.0
9354,93.0,3,75,0.0,102.0
9355,74.0,1,91,4.0,60.0
9356,78.0,1,88,2.0,89.0
9357,74.0,2,91,6.0,64.0
9358,64.0,3,43,7.0,64.0
9359,60.0,44,48,10.0,80.0
9360,64.0,1,48,5.0,56.0
9361,67.0,3,53,8.0,80.0
9362,62.0,2,59,5.0,60.0
9363,50.0,4,49,3.0,127.0
9364,59.0,3,63,10.0,98.0
9365,62.0,1,72,7.0,68.0
9366,74.0,1,78,4.0,66.0
9367,74.0,55,100,6.0,66.0
9368,71.0,35,51,8.0,80.0
9369,91.0,3,107,0.0,95.0
9370,74.0,4,140,2.0,110.0
9371,86.0,4,136,1.0,107.0
9372,68.0,1,46,8.0,82.0
9373,71.0,1,47,5.0,85.0
9374,71.0,0,45,7.0,87.0
9375,52.0,3,64,10.0,70.0
9376,76.0,61,98,6.0,70.0
9377,76.0,3,95,4.0,72.0
9378,54.0,52,45,10.0,64.0
9379,69.0,4,53,8.0,74.0
9380,64.0,0,39,5.0,80.0
9381,64.0,3,46,7.0,78.0
9382,56.0,1,67,10.0,95.0
9383,71.0,5,60,8.0,82.0
9384,76.0,56,100,6.0,66.0
9385,76.0,3,99,4.0,66.0
9386,73.0,53,42,8.0,66.0
9387,71.0,56,55,8.0,80.0
9388,56.0,2,53,10.0,70.0
9389,76.0,2,90,6.0,72.0
9390,76.0,1,85,4.0,68.0
9391,73.0,44,44,8.0,80.0
9392,57.0,4,44,10.0,80.0
9393,74.0,5,54,8.0,89.0
9394,68.0,7,174,5.0,74.0
9395,68.0,2,174,7.0,78.0
9396,59.0,1,72,10.0,98.0
9397,71.0,50,41,8.0,70.0
9398,76.0,52,101,6.0,76.0
9399,76.0,1,95,4.0,68.0
9400,56.0,0,48,10.0,66.0
9401,64.0,56,63,8.0,74.0
9402,71.0,3,50,7.0,85.0
9403,71.0,5,54,5.0,85.0
9404,57.0,2,45,10.0,72.0
9405,76.0,12,98,4.0,63.0
9406,76.0,1,97,6.0,68.0
9407,66.0,40,50,8.0,80.0
9408,88.0,0,96,0.0,72.0
9409,68.0,63,52,8.0,80.0
9410,62.0,4,45,7.0,78.0
9411,62.0,3,42,5.0,76.0
9412,59.0,2,64,10.0,80.0
9413,76.0,1,88,6.0,68.0
9414,69.0,31,50,8.0,74.0
9415,76.0,5,88,4.0,66.0
9416,88.0,6,99,0.0,85.0
9417,68.0,63,49,8.0,82.0
9418,59.0,6,65,10.0,68.0
9419,76.0,11,85,6.0,61.0
9420,88.0,3,78,0.0,91.0
9421,76.0,0,92,4.0,60.0
9422,69.0,37,48,8.0,70.0
9423,61.0,4,45,10.0,80.0
9424,71.0,63,64,8.0,100.0
9425,68.0,3,171,5.0,80.0
9426,68.0,2,187,7.0,74.0
9427,62.0,0,80,10.0,91.0
9428,76.0,0,89,6.0,68.0
9429,76.0,8,84,4.0,60.0
9430,69.0,46,49,8.0,78.0
9431,88.0,3,105,0.0,98.0
9432,68.0,59,54,8.0,70.0
9433,71.0,3,48,5.0,82.0
9434,50.0,1,42,3.0,107.0
9435,71.0,0,55,7.0,82.0
9436,62.0,6,63,10.0,82.0
9437,76.0,0,86,6.0,70.0
9438,74.0,0,82,2.0,105.0
9439,76.0,3,85,4.0,78.0
9440,61.0,37,50,10.0,78.0
9441,88.0,2,91,1.0,95.0
9442,92.0,3,97,0.0,91.0
9443,69.0,4,51,8.0,72.0
9444,50.0,1,41,3.0,107.0
9445,64.0,0,49,7.0,74.0
9446,64.0,2,54,5.0,70.0
9447,71.0,1,64,8.0,91.0
9448,62.0,61,82,10.0,85.0
9449,76.0,5,84,6.0,76.0
9450,76.0,0,86,4.0,68.0
9451,74.0,2,80,2.0,105.0
9452,88.0,4,85,1.0,100.0
9453,92.0,3,96,0.0,89.0
9454,69.0,42,54,8.0,76.0
9455,68.0,0,35,7.0,78.0
9456,68.0,0,35,5.0,78.0
9457,50.0,1,37,3.0,110.0
9458,68.0,62,62,8.0,76.0
9459,64.0,0,71,10.0,78.0
9460,76.0,2,77,6.0,78.0
9461,76.0,2,79,4.0,76.0
9462,95.0,6,82,0.0,89.0
9463,88.0,3,73,1.0,91.0
9464,74.0,6,78,2.0,105.0
9465,62.0,36,50,10.0,80.0
9466,66.0,4,51,8.0,70.0
9467,69.0,0,55,7.0,80.0
9468,69.0,1,55,5.0,78.0
9469,61.0,6,58,10.0,76.0
9470,76.0,1,68,4.0,80.0
9471,76.0,59,75,6.0,87.0
9472,45.0,6,64,3.0,122.0
9473,81.0,35,40,7.0,78.0
9474,81.0,3,43,5.0,85.0
9475,93.0,2,117,0.0,102.0
9476,81.0,0,138,2.0,107.0
9477,88.0,3,134,1.0,105.0
9478,64.0,3,43,10.0,87.0
9479,69.0,61,51,6.0,57.0
9480,69.0,1,54,4.0,76.0
9481,73.0,2,62,7.0,60.0
9482,73.0,2,63,5.0,64.0
9483,71.0,42,42,6.0,58.0
9484,71.0,4,40,4.0,78.0
9485,74.0,3,44,5.0,74.0
9486,74.0,1,47,7.0,74.0
9487,64.0,4,245,8.0,70.0
9488,57.0,3,49,10.0,85.0
9489,76.0,3,61,7.0,80.0
9490,73.0,56,67,6.0,87.0
9491,73.0,2,70,4.0,64.0
9492,76.0,5,65,5.0,80.0
9493,78.0,46,46,7.0,63.0
9494,78.0,5,44,5.0,62.0
9495,76.0,53,62,7.0,76.0
9496,73.0,4,55,6.0,57.0
9497,73.0,1,54,4.0,61.0
9498,76.0,3,74,5.0,66.0
9499,69.0,1,101,8.0,61.0
9500,78.0,46,46,5.0,60.0
9501,78.0,0,48,7.0,60.0
9502,74.0,0,38,6.0,72.0
9503,74.0,11,45,4.0,80.0
9504,79.0,1,58,5.0,85.0
9505,79.0,3,62,7.0,85.0
9506,61.0,4,182,10.0,82.0
9507,76.0,5,65,4.0,87.0
9508,76.0,0,69,6.0,82.0
9509,76.0,52,44,7.0,63.0
9510,69.0,53,105,8.0,68.0
9511,76.0,1,55,5.0,70.0
9512,73.0,1,47,4.0,59.0
9513,64.0,2,51,10.0,82.0
9514,73.0,0,55,6.0,53.0
9515,69.0,57,66,7.0,62.0
9516,69.0,7,62,5.0,57.0
9517,69.0,1,91,8.0,70.0
9518,74.0,3,41,6.0,68.0
9519,71.0,49,58,7.0,70.0
9520,71.0,6,53,5.0,68.0
9521,74.0,0,53,4.0,80.0
9522,76.0,0,51,4.0,80.0
9523,55.0,1,54,10.0,80.0
9524,73.0,53,63,7.0,64.0
9525,76.0,2,56,6.0,80.0
9526,73.0,1,62,5.0,64.0
9527,69.0,5,100,8.0,66.0
9528,74.0,47,59,7.0,68.0
9529,74.0,5,54,5.0,66.0
9530,73.0,2,57,5.0,64.0
9531,76.0,0,54,4.0,70.0
9532,73.0,60,63,7.0,64.0
9533,76.0,3,55,6.0,64.0
9534,69.0,3,90,8.0,68.0
9535,78.0,42,47,4.0,66.0
9536,74.0,1,47,5.0,70.0
9537,78.0,0,50,6.0,64.0
9538,74.0,3,51,7.0,72.0
9539,79.0,2,55,4.0,87.0
9540,76.0,1,62,7.0,87.0
9541,76.0,0,60,5.0,91.0
9542,79.0,2,62,6.0,85.0
9543,61.0,5,184,10.0,87.0
9544,69.0,62,89,8.0,76.0
9545,74.0,6,56,5.0,68.0
9546,74.0,52,64,7.0,70.0
9547,79.0,0,55,4.0,76.0
9548,79.0,3,58,6.0,76.0
9549,64.0,2,56,10.0,93.0
9550,73.0,1,62,5.0,60.0
9551,73.0,3,66,7.0,56.0
9552,69.0,56,82,8.0,85.0
9553,78.0,44,50,4.0,63.0
9554,74.0,5,46,7.0,72.0
9555,74.0,3,44,5.0,66.0
9556,78.0,2,52,6.0,60.0
9557,76.0,0,67,5.0,85.0
9558,57.0,4,63,10.0,80.0
9559,76.0,1,67,7.0,85.0
9560,69.0,51,83,8.0,74.0
9561,79.0,9,79,4.0,78.0
9562,79.0,0,79,6.0,82.0
9563,74.0,48,55,7.0,78.0
9564,74.0,5,58,5.0,70.0
9565,73.0,4,51,7.0,78.0
9566,81.0,0,50,6.0,66.0
9567,61.0,4,49,10.0,85.0
9568,73.0,4,55,5.0,56.0
9569,81.0,8,54,4.0,80.0
9570,69.0,54,84,8.0,82.0
9571,79.0,6,48,6.0,78.0
9572,71.0,37,56,7.0,78.0
9573,71.0,3,53,5.0,68.0
9574,79.0,7,49,4.0,66.0
9575,69.0,3,64,7.0,76.0
9576,69.0,0,58,5.0,80.0
9577,50.0,3,59,10.0,98.0
9578,78.0,3,75,6.0,82.0
9579,69.0,53,84,8.0,91.0
9580,78.0,4,74,4.0,63.0
9581,78.0,3,36,4.0,68.0
9582,78.0,2,47,6.0,60.0
9583,66.0,1,49,7.0,76.0
9584,62.0,115,56,8.0,76.0
9585,62.0,3,54,10.0,89.0
9586,66.0,2,57,5.0,68.0
9587,76.0,41,43,6.0,63.0
9588,76.0,6,42,4.0,78.0
9589,64.0,4,48,8.0,80.0
9590,62.0,2,52,8.0,91.0
9591,55.0,3,54,10.0,87.0
9592,78.0,54,83,6.0,80.0
9593,78.0,8,89,4.0,80.0
9594,61.0,41,43,8.0,72.0
9595,79.0,1,38,6.0,72.0
9596,59.0,63,49,8.0,63.0
9597,79.0,11,37,4.0,72.0
9598,59.0,10,61,10.0,87.0
9599,62.0,34,42,8.0,72.0
9600,78.0,5,40,6.0,68.0
9601,78.0,11,41,4.0,82.0
9602,71.0,1,275,7.0,87.0
9603,71.0,2,277,5.0,78.0
9604,61.0,0,67,8.0,89.0
9605,49.0,1,60,10.0,95.0
9606,76.0,51,82,6.0,66.0
9607,76.0,10,83,4.0,66.0
9608,62.0,47,50,8.0,72.0
9609,61.0,60,51,8.0,82.0
9610,76.0,5,48,6.0,62.0
9611,76.0,3,41,4.0,66.0
9612,61.0,5,64,10.0,76.0
9613,70.0,5,56,5.0,63.0
9614,70.0,1,54,7.0,74.0
9615,74.0,3,44,6.0,70.0
9616,74.0,4,42,4.0,76.0
9617,59.0,37,58,8.0,72.0
9618,71.0,2,53,7.0,72.0
9619,71.0,3,56,5.0,78.0
9620,58.0,52,55,8.0,76.0
9621,73.0,2,56,7.0,66.0
9622,73.0,0,55,5.0,62.0
9623,54.0,1,61,10.0,82.0
9624,76.0,4,79,6.0,80.0
9625,76.0,6,94,4.0,85.0
9626,71.0,3,59,5.0,68.0
9627,71.0,53,62,7.0,72.0
9628,61.0,52,50,8.0,80.0
9629,78.0,1,42,4.0,64.0
9630,78.0,3,51,6.0,66.0
9631,70.0,0,56,7.0,66.0
9632,58.0,3,56,10.0,78.0
9633,70.0,1,65,5.0,59.0
9634,76.0,2,38,4.0,59.0
9635,68.0,0,38,7.0,61.0
9636,76.0,49,43,6.0,68.0
9637,68.0,4,39,5.0,63.0
9638,62.0,1,57,8.0,82.0
9639,66.0,0,66,5.0,61.0
9640,66.0,1,67,7.0,60.0
9641,74.0,1,69,6.0,85.0
9642,47.0,3,67,10.0,85.0
9643,74.0,59,79,4.0,80.0
9644,78.0,1,43,5.0,76.0
9645,78.0,54,58,7.0,70.0
9646,86.0,1,35,0.0,87.0
9647,66.0,57,49,8.0,85.0
9648,74.0,8,56,6.0,91.0
9649,59.0,2,65,10.0,87.0
9650,74.0,0,54,4.0,82.0
9651,71.0,2,58,5.0,74.0
9652,71.0,0,73,7.0,78.0
9653,76.0,38,45,6.0,85.0
9654,76.0,5,43,4.0,78.0
9655,88.0,1,47,0.0,91.0
9656,73.0,9,42,7.0,58.0
9657,74.0,6,96,1.0,87.0
9658,73.0,0,56,5.0,66.0
9659,59.0,3,44,8.0,89.0
9660,74.0,4,50,7.0,80.0
9661,57.0,1,62,10.0,80.0
9662,78.0,2,68,4.0,93.0
9663,78.0,50,71,6.0,100.0
9664,74.0,1,62,5.0,72.0
9665,90.0,1,72,0.0,93.0
9666,74.0,3,91,1.0,93.0
9667,76.0,44,47,7.0,62.0
9668,76.0,15,45,5.0,66.0
9669,78.0,1,47,6.0,70.0
9670,90.0,2,43,0.0,82.0
9671,74.0,46,59,7.0,63.0
9672,78.0,6,49,4.0,66.0
9673,74.0,0,55,5.0,74.0
9674,55.0,3,87,10.0,70.0
9675,79.0,42,40,6.0,82.0
9676,74.0,1,88,1.0,91.0
9677,91.0,0,42,0.0,85.0
9678,79.0,6,42,4.0,70.0
9679,76.0,0,48,5.0,68.0
9680,76.0,2,58,7.0,68.0
9681,78.0,0,55,5.0,68.0
9682,78.0,2,62,7.0,63.0
9683,62.0,1,187,8.0,89.0
9684,81.0,1,67,4.0,87.0
9685,81.0,53,77,6.0,100.0
9686,54.0,0,77,10.0,58.0
9687,93.0,6,86,0.0,91.0
9688,74.0,7,90,1.0,102.0
9689,81.0,51,45,5.0,78.0
9690,81.0,3,48,7.0,82.0
9691,78.0,51,49,6.0,66.0
9692,90.0,0,41,0.0,85.0
9693,74.0,1,56,5.0,78.0
9694,78.0,2,49,4.0,64.0
9695,74.0,3,56,7.0,70.0
9696,59.0,2,65,10.0,100.0
9697,74.0,2,83,8.0,80.0
9698,74.0,2,88,1.0,85.0
9699,74.0,2,88,2.0,105.0
9700,76.0,42,46,5.0,64.0
9701,79.0,3,43,6.0,85.0
9702,91.0,3,43,0.0,89.0
9703,76.0,0,47,7.0,64.0
9704,79.0,5,47,4.0,72.0
9705,78.0,3,56,5.0,87.0
9706,78.0,2,52,7.0,82.0
9707,57.0,0,64,10.0,68.0
9708,81.0,0,62,4.0,85.0
9709,93.0,1,74,0.0,85.0
9710,81.0,2,76,6.0,91.0
9711,74.0,2,77,2.0,102.0
9712,74.0,4,87,1.0,91.0
9713,74.0,50,106,8.0,78.0
9714,79.0,5,47,7.0,72.0
9715,79.0,42,57,5.0,72.0
9716,78.0,60,43,7.0,87.0
9717,93.0,0,39,0.0,70.0
9718,78.0,2,49,5.0,89.0
9719,81.0,3,54,6.0,76.0
9720,81.0,0,58,4.0,76.0
9721,55.0,2,64,10.0,85.0
9722,74.0,0,69,2.0,100.0
9723,74.0,3,86,1.0,93.0
9724,79.0,43,46,5.0,82.0
9725,95.0,3,35,0.0,87.0
9726,79.0,1,46,7.0,80.0
9727,74.0,2,97,8.0,76.0
9728,83.0,5,45,6.0,82.0
9729,83.0,2,45,4.0,89.0
9730,81.0,53,61,5.0,85.0
9731,81.0,4,64,7.0,98.0
9732,84.0,1,63,6.0,89.0
9733,84.0,0,65,4.0,100.0
9734,54.0,1,73,10.0,87.0
9735,74.0,3,74,2.0,107.0
9736,96.0,0,85,0.0,102.0
9737,74.0,4,85,8.0,85.0
9738,74.0,5,82,1.0,102.0
9739,79.0,3,55,7.0,76.0
9740,79.0,37,60,5.0,72.0
9741,96.0,2,32,0.0,98.0
9742,90.0,3,36,1.0,89.0
9743,78.0,63,55,5.0,82.0
9744,78.0,0,58,7.0,51.0
9745,84.0,3,50,4.0,82.0
9746,50.0,8,43,3.0,110.0
9747,84.0,1,55,6.0,78.0
9748,57.0,1,68,10.0,80.0
9749,74.0,2,79,8.0,85.0
9750,91.0,34,41,1.0,91.0
9751,74.0,0,84,2.0,107.0
9752,95.0,2,35,0.0,93.0
9753,83.0,4,42,6.0,64.0
9754,79.0,1,48,5.0,72.0
9755,79.0,0,48,7.0,70.0
9756,83.0,2,53,4.0,80.0
9757,50.0,0,62,10.0,82.0
9758,84.0,1,61,6.0,95.0
9759,81.0,1,64,5.0,89.0
9760,50.0,13,50,3.0,110.0
9761,81.0,2,65,7.0,98.0
9762,84.0,0,69,4.0,89.0
9763,74.0,54,88,8.0,78.0
9764,93.0,4,87,1.0,91.0
9765,96.0,2,85,0.0,100.0
9766,78.0,0,90,2.0,89.0
9767,79.0,36,50,5.0,76.0
9768,79.0,4,60,7.0,76.0
9769,98.0,1,31,0.0,89.0
9770,95.0,3,32,1.0,91.0
9771,78.0,5,48,5.0,74.0
9772,50.0,2,32,3.0,113.0
9773,54.0,49,64,10.0,76.0
9774,78.0,2,59,7.0,78.0
9775,86.0,1,65,6.0,85.0
9776,86.0,4,68,4.0,80.0
9777,96.0,0,29,0.0,107.0
9778,93.0,2,29,1.0,98.0
9779,74.0,3,81,2.0,93.0
9780,69.0,5,96,8.0,68.0
9781,84.0,7,37,6.0,76.0
9782,84.0,1,39,4.0,66.0
9783,76.0,35,62,5.0,76.0
9784,76.0,8,64,7.0,66.0
9785,83.0,1,51,6.0,91.0
9786,43.0,1,57,10.0,95.0
9787,74.0,51,64,5.0,72.0
9788,83.0,5,50,4.0,89.0
9789,74.0,3,56,7.0,82.0
9790,50.0,3,55,3.0,119.0
9791,79.0,43,40,6.0,66.0
9792,79.0,7,46,4.0,61.0
9793,71.0,0,113,8.0,80.0
9794,86.0,0,130,2.0,105.0
9795,95.0,1,137,0.0,107.0
9796,91.0,4,139,1.0,100.0
9797,71.0,55,48,5.0,76.0
9798,71.0,2,42,7.0,82.0
9799,55.0,1,66,10.0,87.0
9800,76.0,8,61,4.0,60.0
9801,76.0,0,69,6.0,59.0
9802,78.0,43,52,6.0,53.0
9803,78.0,9,44,4.0,64.0
9804,71.0,1,108,8.0,80.0
9805,79.0,51,60,6.0,59.0
9806,79.0,1,54,4.0,85.0
9807,49.0,10,72,10.0,74.0
9808,81.0,8,34,4.0,70.0
9809,81.0,40,46,6.0,62.0
9810,71.0,6,92,8.0,70.0
9811,78.0,48,43,6.0,54.0
9812,78.0,4,48,4.0,62.0
9813,91.0,6,45,1.0,95.0
9814,95.0,1,48,0.0,95.0
9815,52.0,6,59,10.0,85.0
9816,88.0,4,53,2.0,102.0
9817,79.0,35,45,6.0,70.0
9818,79.0,2,44,4.0,74.0
9819,71.0,1,93,8.0,66.0
9820,81.0,1,40,4.0,85.0
9821,81.0,61,53,6.0,80.0
9822,76.0,6,279,7.0,87.0
9823,76.0,0,291,5.0,87.0
9824,42.0,6,84,10.0,68.0
9825,69.0,2,83,8.0,72.0
9826,45.0,4,67,3.0,119.0
9827,78.0,25,43,6.0,53.0
9828,78.0,12,40,4.0,66.0
9829,93.0,4,137,0.0,87.0
9830,88.0,3,136,2.0,102.0
9831,69.0,0,44,7.0,78.0
9832,69.0,2,41,5.0,80.0
9833,74.0,53,51,6.0,70.0
9834,74.0,0,51,4.0,70.0
9835,90.0,7,174,1.0,85.0
9836,54.0,5,69,10.0,80.0
9837,69.0,2,99,8.0,70.0
9838,76.0,51,46,6.0,66.0
9839,76.0,4,44,4.0,63.0
9840,78.0,5,63,6.0,82.0
9841,78.0,2,63,4.0,80.0
9842,47.0,2,65,10.0,87.0
9843,69.0,58,85,8.0,70.0
9844,79.0,48,40,6.0,70.0
9845,79.0,4,37,4.0,74.0
9846,76.0,0,54,6.0,64.0
9847,76.0,4,50,4.0,63.0
9848,50.0,3,60,10.0,87.0
9849,90.0,4,46,1.0,80.0
9850,93.0,6,55,0.0,87.0
9851,86.0,15,42,2.0,95.0
9852,69.0,53,100,8.0,66.0
9853,78.0,26,45,6.0,62.0
9854,78.0,7,46,4.0,78.0
9855,74.0,0,280,7.0,87.0
9856,91.0,3,39,0.0,85.0
9857,79.0,0,50,4.0,100.0
9858,79.0,3,57,6.0,87.0
9859,74.0,4,291,5.0,87.0
9860,40.0,4,63,10.0,82.0
9861,86.0,5,60,2.0,91.0
9862,67.0,57,99,8.0,70.0
9863,90.0,2,36,0.0,85.0
9864,88.0,6,95,1.0,85.0
9865,78.0,35,53,6.0,66.0
9866,78.0,9,51,4.0,58.0
9867,76.0,53,37,6.0,60.0
9868,76.0,2,45,4.0,63.0
9869,88.0,0,48,0.0,80.0
9870,45.0,1,60,10.0,85.0
9871,45.0,6,42,3.0,110.0
9872,73.0,3,63,7.0,68.0
9873,81.0,9,57,2.0,85.0
9874,93.0,1,58,1.0,85.0
9875,73.0,1,61,5.0,64.0
9876,69.0,0,93,8.0,74.0
9877,91.0,8,34,0.0,82.0
9878,79.0,34,43,4.0,76.0
9879,79.0,1,45,6.0,72.0
9880,90.0,7,41,0.0,87.0
9881,78.0,51,55,4.0,91.0
9882,50.0,2,45,3.0,116.0
9883,50.0,0,60,10.0,91.0
9884,74.0,1,49,7.0,87.0
9885,74.0,3,58,5.0,89.0
9886,93.0,0,65,1.0,87.0
9887,78.0,2,70,6.0,89.0
9888,69.0,1,83,8.0,70.0
9889,81.0,6,63,2.0,100.0
9890,88.0,1,34,0.0,82.0
9891,76.0,32,46,4.0,68.0
9892,73.0,1,43,7.0,89.0
9893,73.0,1,48,5.0,63.0
9894,76.0,8,51,6.0,62.0
9895,86.0,0,36,0.0,91.0
9896,71.0,2,50,7.0,78.0
9897,38.0,5,47,10.0,91.0
9898,74.0,48,59,4.0,63.0
9899,74.0,1,49,6.0,57.0
9900,71.0,2,59,5.0,85.0
9901,93.0,5,55,1.0,91.0
9902,50.0,11,44,3.0,113.0
9903,81.0,4,54,2.0,100.0
9904,78.0,24,37,4.0,64.0
9905,90.0,3,31,0.0,87.0
9906,69.0,2,106,8.0,60.0
9907,78.0,4,42,6.0,58.0
9908,74.0,8,46,7.0,80.0
9909,74.0,3,53,5.0,82.0
9910,73.0,5,52,7.0,82.0
9911,76.0,50,61,4.0,82.0
9912,73.0,0,51,5.0,74.0
9913,76.0,3,58,6.0,87.0
9914,45.0,1,77,10.0,89.0
9915,45.0,8,59,3.0,122.0
9916,81.0,34,47,4.0,80.0
9917,69.0,1,103,8.0,74.0
9918,81.0,12,48,6.0,85.0
9919,88.0,1,131,0.0,113.0
9920,93.0,5,147,1.0,100.0
9921,76.0,51,38,7.0,87.0
9922,81.0,3,136,2.0,110.0
9923,76.0,0,40,5.0,85.0
9924,73.0,1,44,4.0,63.0
9925,73.0,0,48,6.0,57.0
9926,45.0,4,54,10.0,85.0
9927,69.0,8,88,8.0,66.0
9928,47.0,47,49,10.0,74.0
9929,74.0,3,49,6.0,66.0
9930,74.0,4,56,4.0,66.0
9931,69.0,0,41,5.0,80.0
9932,69.0,2,46,7.0,80.0
9933,76.0,4,52,4.0,66.0
9934,76.0,0,64,6.0,76.0
9935,49.0,50,78,10.0,100.0
9936,69.0,5,92,8.0,66.0
9937,78.0,50,40,4.0,50.0
9938,78.0,6,44,6.0,63.0
9939,76.0,50,65,4.0,76.0
9940,49.0,1,53,10.0,76.0
9941,76.0,7,68,6.0,66.0
9942,69.0,6,86,8.0,64.0
9943,78.0,1,47,6.0,58.0
9944,78.0,43,49,4.0,62.0
9945,50.0,3,47,10.0,82.0
9946,79.0,0,60,6.0,87.0
9947,79.0,5,61,4.0,87.0
9948,73.0,5,177,5.0,74.0
9949,52.0,9,79,10.0,95.0
9950,73.0,1,198,7.0,80.0
9951,69.0,54,110,8.0,70.0
9952,76.0,51,47,6.0,63.0
9953,76.0,4,47,4.0,70.0
9954,49.0,7,50,10.0,74.0
9955,76.0,1,46,7.0,82.0
9956,76.0,3,48,5.0,85.0
9957,69.0,1,57,4.0,52.0
9958,69.0,2,69,6.0,60.0
9959,69.0,56,92,8.0,57.0
9960,81.0,1,95,0.0,70.0
9961,71.0,43,48,6.0,64.0
9962,71.0,7,50,4.0,57.0
9963,50.0,2,48,10.0,87.0
9964,67.0,0,45,5.0,80.0
9965,67.0,3,47,7.0,76.0
9966,73.0,6,54,4.0,70.0
9967,73.0,4,64,6.0,61.0
9968,52.0,0,80,10.0,85.0
9969,69.0,52,98,8.0,61.0
9970,74.0,44,44,6.0,68.0
9971,81.0,1,88,0.0,78.0
9972,74.0,10,40,4.0,66.0
9973,73.0,54,57,6.0,82.0
9974,73.0,2,52,4.0,56.0
9975,52.0,1,52,10.0,82.0
9976,81.0,1,81,0.0,60.0
9977,69.0,6,89,8.0,68.0
9978,74.0,37,48,6.0,68.0
9979,54.0,4,45,10.0,95.0
9980,74.0,2,52,4.0,68.0
9981,76.0,5,64,6.0,85.0
9982,73.0,3,174,5.0,80.0
9983,76.0,4,62,4.0,85.0
9984,55.0,56,83,10.0,89.0
9985,69.0,2,98,8.0,76.0
9986,73.0,6,208,7.0,82.0
9987,81.0,3,101,0.0,80.0
9988,74.0,44,53,6.0,68.0
9989,74.0,13,49,4.0,72.0
9990,73.0,42,48,6.0,64.0
9991,76.0,3,40,5.0,95.0
9992,73.0,2,53,4.0,60.0
9993,45.0,0,39,3.0,113.0
9994,76.0,0,44,7.0,85.0
9995,55.0,2,55,10.0,82.0
9996,69.0,10,89,8.0,72.0
9997,81.0,2,84,2.0,102.0
9998,88.0,4,83,0.0,89.0
9999,81.0,4,77,1.0,85.0
10000,74.0,32,47,6.0,70.0
10001,54.0,8,45,10.0,95.0
10002,74.0,5,47,4.0,66.0
10003,45.0,1,38,3.0,113.0
10004,76.0,0,57,6.0,70.0
10005,69.0,2,58,5.0,80.0
10006,69.0,2,58,7.0,80.0
10007,76.0,2,62,4.0,80.0
10008,55.0,57,82,10.0,85.0
10009,81.0,2,72,2.0,105.0
10010,69.0,0,90,8.0,80.0
10011,81.0,2,83,1.0,70.0
10012,88.0,4,91,0.0,89.0
10013,79.0,43,54,6.0,87.0
10014,79.0,11,64,4.0,80.0
10015,78.0,48,54,6.0,74.0
10016,45.0,1,40,3.0,116.0
10017,73.0,1,52,5.0,78.0
10018,73.0,1,55,7.0,80.0
10019,78.0,0,56,4.0,82.0
10020,57.0,1,61,10.0,89.0
10021,93.0,1,65,0.0,91.0
10022,88.0,0,76,1.0,85.0
10023,69.0,10,84,8.0,72.0
10024,81.0,6,76,2.0,113.0
10025,55.0,4,38,10.0,82.0
10026,76.0,38,53,6.0,62.0
10027,76.0,8,60,4.0,78.0
10028,74.0,1,42,5.0,89.0
10029,74.0,1,46,7.0,89.0
10030,81.0,3,58,4.0,82.0
10031,81.0,3,66,6.0,89.0
10032,69.0,49,77,8.0,82.0
10033,54.0,1,77,10.0,80.0
10034,50.0,1,60,3.0,122.0
10035,90.0,4,92,1.0,87.0
10036,79.0,38,63,6.0,70.0
10037,79.0,11,56,4.0,68.0
10038,74.0,5,116,2.0,107.0
10039,93.0,5,144,0.0,98.0
10040,54.0,8,43,10.0,95.0
10041,93.0,2,36,1.0,91.0
10042,69.0,1,42,7.0,70.0
10043,69.0,2,43,5.0,82.0
10044,78.0,1,44,4.0,80.0
10045,78.0,1,48,6.0,93.0
10046,62.0,49,81,8.0,78.0
10047,91.0,8,36,1.0,87.0
10048,52.0,43,46,10.0,85.0
10049,79.0,4,41,6.0,70.0
10050,79.0,2,51,4.0,80.0
10051,81.0,2,46,6.0,87.0
10052,81.0,0,45,4.0,85.0
10053,66.0,2,60,8.0,78.0
10054,90.0,53,71,1.0,89.0
10055,54.0,1,82,10.0,91.0
10056,78.0,45,56,6.0,66.0
10057,78.0,8,60,4.0,66.0
10058,95.0,3,31,0.0,91.0
10059,86.0,3,56,1.0,91.0
10060,55.0,1,55,10.0,85.0
10061,74.0,56,67,6.0,72.0
10062,71.0,4,64,8.0,85.0
10063,74.0,1,72,4.0,74.0
10064,78.0,44,44,6.0,63.0
10065,93.0,0,39,0.0,89.0
10066,78.0,2,44,4.0,64.0
10067,54.0,3,52,10.0,93.0
10068,74.0,2,282,7.0,89.0
10069,79.0,61,55,6.0,82.0
10070,74.0,4,299,5.0,87.0
10071,79.0,2,67,4.0,87.0
10072,52.0,0,69,10.0,87.0
10073,88.0,0,91,1.0,98.0
10074,78.0,47,45,6.0,80.0
10075,71.0,0,103,8.0,85.0
10076,78.0,6,54,4.0,64.0
10077,91.0,4,138,0.0,98.0
10078,91.0,3,35,1.0,89.0
10079,67.0,6,55,7.0,82.0
10080,52.0,2,47,10.0,85.0
10081,73.0,2,46,8.0,82.0
10082,76.0,53,66,6.0,63.0
10083,73.0,2,56,5.0,68.0
10084,76.0,2,69,4.0,72.0
10085,90.0,3,32,1.0,100.0
10086,74.0,2,44,8.0,70.0
10087,78.0,38,51,6.0,60.0
10088,78.0,3,41,4.0,64.0
10089,50.0,5,50,10.0,68.0
10090,79.0,0,44,6.0,74.0
10091,76.0,2,49,5.0,87.0
10092,79.0,2,50,4.0,85.0
10093,64.0,56,57,7.0,72.0
10094,88.0,1,51,1.0,100.0
10095,73.0,1,68,8.0,89.0
10096,52.0,1,70,10.0,89.0
10097,83.0,5,41,4.0,78.0
10098,83.0,54,56,6.0,85.0
10099,93.0,1,34,0.0,85.0
10100,81.0,52,51,6.0,63.0
10101,73.0,0,47,5.0,63.0
10102,73.0,3,53,7.0,66.0
10103,81.0,0,49,4.0,76.0
10104,45.0,2,46,3.0,105.0
10105,81.0,0,55,1.0,89.0
10106,88.0,3,57,2.0,98.0
10107,69.0,1,69,8.0,82.0
10108,54.0,4,63,10.0,89.0
10109,79.0,5,32,6.0,66.0
10110,91.0,44,42,0.0,89.0
10111,79.0,7,30,4.0,85.0
10112,52.0,4,47,10.0,82.0
10113,90.0,48,59,0.0,95.0
10114,50.0,0,53,3.0,107.0
10115,78.0,0,54,6.0,78.0
10116,78.0,0,51,4.0,68.0
10117,74.0,0,59,5.0,89.0
10118,74.0,4,61,7.0,85.0
10119,50.0,3,64,10.0,89.0
10120,90.0,0,76,2.0,95.0
10121,81.0,1,92,1.0,100.0
10122,69.0,2,104,8.0,82.0
10123,52.0,52,48,10.0,78.0
10124,69.0,59,50,7.0,85.0
10125,93.0,1,48,0.0,85.0
10126,86.0,1,52,1.0,93.0
10127,69.0,0,54,5.0,80.0
10128,54.0,0,61,10.0,85.0
10129,74.0,3,53,6.0,85.0
10130,74.0,5,55,4.0,80.0
10131,69.0,4,76,8.0,74.0
10132,50.0,45,41,10.0,76.0
10133,62.0,63,49,7.0,70.0
10134,95.0,3,48,0.0,87.0
10135,50.0,0,44,3.0,110.0
10136,62.0,3,49,5.0,78.0
10137,86.0,0,54,1.0,87.0
10138,55.0,0,55,10.0,93.0
10139,71.0,2,55,6.0,85.0
10140,71.0,3,57,4.0,78.0
10141,67.0,0,71,8.0,66.0
10142,91.0,3,75,2.0,102.0
10143,57.0,44,43,10.0,82.0
10144,54.0,56,46,10.0,76.0
10145,67.0,1,44,7.0,82.0
10146,91.0,4,48,0.0,87.0
10147,88.0,10,54,1.0,91.0
10148,76.0,8,47,4.0,80.0
10149,67.0,0,55,5.0,78.0
10150,71.0,1,64,8.0,78.0
10151,76.0,1,64,6.0,80.0
10152,55.0,36,46,10.0,82.0
10153,64.0,68,47,7.0,78.0
10154,97.0,1,44,0.0,85.0
10155,73.0,2,54,6.0,100.0
10156,45.0,2,57,3.0,113.0
10157,81.0,4,63,1.0,87.0
10158,73.0,1,56,4.0,74.0
10159,57.0,4,72,10.0,100.0
10160,69.0,0,96,8.0,85.0
10161,88.0,1,101,2.0,105.0
10162,61.0,46,48,7.0,89.0
10163,69.0,2,58,6.0,82.0
10164,69.0,4,64,4.0,74.0
10165,93.0,1,46,0.0,80.0
10166,62.0,1,50,7.0,63.0
10167,88.0,0,59,1.0,87.0
10168,71.0,51,68,6.0,66.0
10169,55.0,5,65,10.0,80.0
10170,71.0,2,64,4.0,72.0
10171,64.0,1,82,8.0,76.0
10172,64.0,52,40,7.0,76.0
10173,73.0,2,41,4.0,58.0
10174,73.0,3,47,6.0,64.0
10175,64.0,4,244,5.0,91.0
10176,90.0,1,35,1.0,87.0
10177,45.0,2,39,3.0,110.0
10178,57.0,3,37,7.0,89.0
10179,98.0,1,46,0.0,89.0
10180,74.0,58,59,6.0,82.0
10181,74.0,2,58,4.0,76.0
10182,54.0,0,58,10.0,78.0
10183,81.0,0,61,2.0,100.0
10184,69.0,0,71,8.0,85.0
10185,88.0,44,40,1.0,87.0
10186,76.0,1,50,6.0,80.0
10187,76.0,6,54,4.0,78.0
10188,90.0,54,39,1.0,98.0
10189,73.0,1,45,7.0,62.0
10190,78.0,3,40,6.0,85.0
10191,52.0,1,53,10.0,76.0
10192,91.0,2,48,0.0,87.0
10193,45.0,1,42,3.0,105.0
10194,78.0,2,58,4.0,58.0
10195,81.0,1,53,2.0,105.0
10196,73.0,4,59,5.0,78.0
10197,69.0,0,71,8.0,85.0
10198,91.0,41,36,1.0,95.0
10199,79.0,0,43,6.0,80.0
10200,79.0,6,45,4.0,68.0
10201,78.0,2,54,6.0,93.0
10202,78.0,2,61,4.0,82.0
10203,50.0,2,52,3.0,119.0
10204,74.0,58,66,7.0,78.0
10205,50.0,1,63,10.0,85.0
10206,74.0,3,54,5.0,87.0
10207,69.0,0,66,8.0,91.0
10208,76.0,45,50,6.0,82.0
10209,76.0,1,53,4.0,76.0
10210,67.0,1,66,8.0,80.0
10211,81.0,4,123,2.0,116.0
10212,90.0,1,127,0.0,93.0
10213,93.0,1,142,1.0,98.0
10214,71.0,0,52,7.0,78.0
10215,74.0,0,53,4.0,57.0
10216,74.0,58,58,6.0,72.0
10217,55.0,3,63,10.0,87.0
10218,71.0,7,60,5.0,80.0
10219,66.0,0,67,8.0,82.0
10220,76.0,1,32,6.0,70.0
10221,76.0,1,32,4.0,70.0
10222,67.0,50,54,8.0,76.0
10223,69.0,58,46,7.0,80.0
10224,57.0,0,48,10.0,95.0
10225,69.0,3,50,5.0,82.0
10226,69.0,0,55,6.0,80.0
10227,45.0,2,49,3.0,110.0
10228,69.0,0,54,4.0,72.0
10229,64.0,5,65,8.0,80.0
10230,66.0,43,49,8.0,80.0
10231,81.0,2,125,2.0,116.0
10232,88.0,3,128,0.0,102.0
10233,91.0,1,127,1.0,95.0
10234,67.0,59,47,8.0,85.0
10235,69.0,2,44,7.0,80.0
10236,73.0,6,53,6.0,80.0
10237,45.0,5,55,10.0,91.0
10238,69.0,5,52,5.0,85.0
10239,73.0,2,52,4.0,64.0
10240,64.0,36,45,8.0,85.0
10241,74.0,72,57,6.0,85.0
10242,74.0,0,65,4.0,82.0
10243,50.0,7,71,3.0,127.0
10244,69.0,38,65,6.0,72.0
10245,69.0,4,126,5.0,80.0
10246,86.0,3,139,0.0,100.0
10247,81.0,0,141,2.0,119.0
10248,90.0,3,143,1.0,100.0
10249,66.0,52,65,6.0,63.0
10250,69.0,65,42,6.0,68.0
10251,69.0,3,220,7.0,85.0
10252,66.0,3,240,8.0,91.0
10253,50.0,0,249,10.0,105.0
10254,62.0,65,64,6.0,82.0
10255,66.0,51,47,6.0,62.0
10256,49.0,6,54,10.0,64.0
10257,64.0,7,56,8.0,68.0
10258,64.0,58,71,6.0,80.0
10259,69.0,6,53,7.0,60.0
10260,67.0,35,38,6.0,70.0
10261,66.0,66,67,6.0,91.0
10262,50.0,8,59,10.0,82.0
10263,62.0,5,54,8.0,66.0
10264,69.0,5,77,7.0,66.0
10265,69.0,34,59,6.0,66.0
10266,74.0,68,55,6.0,68.0
10267,47.0,3,57,10.0,72.0
10268,66.0,10,54,8.0,68.0
10269,71.0,0,72,7.0,68.0
10270,66.0,39,39,6.0,61.0
10271,64.0,54,68,6.0,82.0
10272,43.0,10,47,10.0,68.0
10273,67.0,4,56,8.0,68.0
10274,71.0,12,72,7.0,64.0
10275,74.0,35,44,6.0,80.0
10276,45.0,13,43,10.0,74.0
10277,64.0,64,58,6.0,80.0
10278,69.0,2,54,7.0,80.0
10279,67.0,7,49,8.0,80.0
10280,73.0,35,51,6.0,68.0
10281,74.0,67,52,6.0,95.0
10282,69.0,33,67,6.0,82.0
10283,74.0,63,54,6.0,72.0
10284,76.0,61,33,6.0,66.0
10285,69.0,2,229,7.0,78.0
10286,38.0,2,244,10.0,76.0
10287,66.0,17,250,8.0,68.0
10288,78.0,66,58,6.0,100.0
10289,81.0,56,37,6.0,80.0
10290,50.0,3,54,10.0,64.0
10291,71.0,2,56,7.0,74.0
10292,80.0,57,63,6.0,91.0
10293,64.0,5,53,8.0,66.0
10294,83.0,45,31,6.0,80.0
10295,49.0,69,57,10.0,57.0
10296,81.0,0,62,6.0,98.0
10297,73.0,1,64,7.0,76.0
10298,64.0,5,59,8.0,72.0
10299,76.0,46,64,6.0,74.0
10300,73.0,59,59,6.0,74.0
10301,54.0,5,55,10.0,72.0
10302,66.0,4,43,8.0,66.0
10303,69.0,8,63,7.0,74.0
10304,81.0,44,38,6.0,80.0
10305,71.0,56,58,6.0,82.0
10306,50.0,3,50,10.0,72.0
10307,66.0,5,51,8.0,68.0
10308,78.0,11,60,7.0,70.0
10309,81.0,35,43,6.0,80.0
10310,52.0,8,44,10.0,66.0
10311,71.0,63,57,6.0,78.0
10312,71.0,0,48,8.0,68.0
10313,76.0,5,54,7.0,78.0
10314,80.0,41,43,6.0,76.0
10315,81.0,67,57,6.0,87.0
10316,45.0,11,82,10.0,74.0
10317,76.0,38,46,6.0,64.0
10318,73.0,61,70,6.0,64.0
10319,57.0,8,73,10.0,60.0
10320,74.0,57,52,6.0,78.0
10321,76.0,1,245,7.0,82.0
10322,73.0,4,250,8.0,72.0
10323,76.0,1,66,6.0,82.0
10324,57.0,64,75,10.0,57.0
10325,78.0,56,59,6.0,62.0
10326,57.0,51,61,10.0,54.0
10327,73.0,3,48,8.0,60.0
10328,76.0,9,64,7.0,68.0
10329,76.0,8,74,6.0,68.0
10330,78.0,52,40,6.0,60.0
10331,76.0,0,52,7.0,70.0
10332,73.0,6,49,8.0,74.0
10333,79.0,63,59,6.0,93.0
10334,76.0,46,45,6.0,78.0
10335,73.0,6,43,8.0,58.0
10336,76.0,7,54,7.0,64.0
10337,69.0,59,72,6.0,60.0
10338,55.0,0,104,10.0,68.0
10339,71.0,45,59,6.0,63.0
10340,73.0,64,63,6.0,57.0
10341,55.0,9,84,10.0,62.0
10342,74.0,48,52,6.0,70.0
10343,71.0,6,41,8.0,68.0
10344,76.0,4,57,7.0,82.0
10345,55.0,5,59,10.0,52.0
10346,73.0,62,70,6.0,60.0
10347,74.0,41,46,6.0,68.0
10348,70.0,5,43,8.0,66.0
10349,73.0,68,53,7.0,60.0
10350,76.0,3,70,6.0,100.0
10351,74.0,51,64,6.0,76.0
10352,70.0,5,38,8.0,58.0
10353,73.0,63,56,7.0,59.0
10354,73.0,1,71,6.0,49.0
10355,54.0,1,98,10.0,70.0
10356,74.0,51,48,6.0,64.0
10357,76.0,0,75,6.0,87.0
10358,54.0,62,101,10.0,58.0
10359,74.0,56,72,6.0,66.0
10360,70.0,11,47,8.0,78.0
10361,73.0,3,60,7.0,76.0
10362,73.0,56,65,6.0,52.0
10363,54.0,3,52,10.0,53.0
10364,71.0,46,54,6.0,62.0
10365,70.0,2,46,6.0,64.0
10366,66.0,3,49,8.0,78.0
10367,73.0,63,60,7.0,91.0
10368,76.0,59,69,6.0,62.0
10369,70.0,48,62,7.0,68.0
10370,66.0,16,46,8.0,47.0
10371,78.0,2,82,6.0,64.0
10372,42.0,6,89,10.0,66.0
10373,79.0,41,49,6.0,85.0
10374,78.0,63,76,6.0,78.0
10375,42.0,5,74,10.0,64.0
10376,76.0,52,58,6.0,66.0
10377,70.0,4,48,7.0,70.0
10378,66.0,7,46,8.0,78.0
10379,74.0,61,65,6.0,55.0
10380,42.0,4,64,10.0,43.0
10381,73.0,48,46,6.0,47.0
10382,71.0,2,60,7.0,82.0
10383,74.0,63,67,6.0,91.0
10384,66.0,4,63,8.0,87.0
10385,78.0,52,56,6.0,54.0
10386,62.0,3,49,8.0,66.0
10387,66.0,1,61,7.0,58.0
10388,71.0,62,76,6.0,68.0
10389,47.0,13,97,10.0,76.0
10390,73.0,42,65,6.0,62.0
10391,74.0,60,63,6.0,68.0
10392,76.0,47,39,6.0,70.0
10393,47.0,10,91,10.0,59.0
10394,66.0,3,56,8.0,66.0
10395,74.0,58,69,6.0,80.0
10396,47.0,7,54,10.0,47.0
10397,71.0,7,61,7.0,66.0
10398,76.0,38,49,6.0,68.0
10399,63.0,3,57,8.0,74.0
10400,72.0,1,57,7.0,78.0
10401,78.0,68,69,6.0,102.0
10402,81.0,53,71,6.0,80.0
10403,69.0,66,49,8.0,89.0
10404,72.0,0,48,7.0,58.0
10405,75.0,1,60,6.0,62.0
10406,76.0,51,47,6.0,66.0
10407,78.0,63,66,6.0,91.0
10408,54.0,6,219,10.0,64.0
10409,79.0,58,58,6.0,78.0
10410,63.0,57,44,8.0,47.0
10411,78.0,4,56,6.0,55.0
10412,54.0,5,47,10.0,54.0
10413,72.0,7,54,7.0,87.0
10414,79.0,42,47,6.0,63.0
10415,63.0,3,60,8.0,76.0
10416,66.0,2,63,7.0,74.0
10417,81.0,66,71,6.0,95.0
10418,72.0,54,50,6.0,60.0
10419,66.0,9,59,8.0,63.0
10420,69.0,3,51,7.0,64.0
10421,71.0,47,75,6.0,55.0
10422,72.0,51,39,6.0,63.0
10423,51.0,7,101,10.0,59.0
10424,81.0,1,70,6.0,100.0
10425,51.0,61,72,10.0,42.0
10426,72.0,53,61,6.0,80.0
10427,66.0,7,43,8.0,63.0
10428,69.0,5,54,7.0,93.0
10429,71.0,7,66,6.0,64.0
10430,51.0,55,73,10.0,41.0
10431,69.0,45,45,6.0,56.0
10432,66.0,2,51,8.0,74.0
10433,71.0,69,64,6.0,87.0
10434,63.0,8,58,7.0,82.0
10435,73.0,46,76,6.0,57.0
10436,75.0,66,46,6.0,63.0
10437,66.0,1,50,8.0,60.0
10438,71.0,2,55,7.0,80.0
10439,47.0,9,89,10.0,87.0
10440,76.0,43,59,6.0,78.0
10441,78.0,67,70,6.0,60.0
10442,47.0,4,70,10.0,68.0
10443,79.0,52,51,6.0,82.0
10444,71.0,1,38,8.0,66.0
10445,75.0,61,44,7.0,72.0
10446,81.0,3,57,6.0,85.0
10447,47.0,5,53,10.0,66.0
10448,78.0,49,44,6.0,60.0
10449,79.0,66,63,6.0,95.0
10450,52.0,3,70,10.0,64.0
10451,76.0,43,53,6.0,66.0
10452,71.0,58,66,6.0,64.0
10453,64.0,18,55,10.0,76.0
10454,74.0,44,51,6.0,60.0
10455,76.0,4,242,7.0,78.0
10456,71.0,0,248,8.0,59.0
10457,73.0,63,56,6.0,70.0
10458,57.0,14,52,10.0,60.0
10459,76.0,36,47,6.0,64.0
10460,69.0,60,57,6.0,60.0
10461,61.0,21,51,10.0,62.0
10462,79.0,39,36,6.0,85.0
10463,78.0,67,73,6.0,105.0
10464,50.0,8,66,10.0,80.0
10465,74.0,49,49,6.0,82.0
10466,69.0,53,68,6.0,56.0
10467,62.0,12,63,10.0,82.0
10468,72.0,49,48,6.0,64.0
10469,55.0,68,52,10.0,58.0
10470,71.0,5,53,6.0,89.0
10471,74.0,57,65,6.0,70.0
10472,67.0,5,54,6.0,49.0
10473,59.0,56,64,10.0,68.0
10474,78.0,56,36,6.0,72.0
10475,49.0,68,69,10.0,82.0
10476,76.0,12,70,6.0,102.0
10477,73.0,54,65,6.0,61.0
10478,68.0,3,56,6.0,57.0
10479,61.0,57,62,10.0,63.0
10480,71.0,52,55,6.0,80.0
10481,54.0,2,47,10.0,60.0
10482,70.0,71,56,6.0,87.0
10483,73.0,53,78,6.0,60.0
10484,66.0,59,51,6.0,80.0
10485,58.0,0,52,10.0,64.0
10486,76.0,55,40,6.0,82.0
10487,74.0,1,76,6.0,91.0
10488,47.0,70,78,10.0,80.0
10489,71.0,54,69,6.0,70.0
10490,73.0,61,50,6.0,60.0
10491,59.0,6,61,10.0,68.0
10492,74.0,53,45,6.0,82.0
10493,55.0,62,53,10.0,70.0
10494,76.0,0,74,6.0,89.0
10495,78.0,54,62,6.0,74.0
10496,52.0,61,58,10.0,68.0
10497,79.0,7,54,6.0,66.0
10498,76.0,52,48,6.0,61.0
10499,70.0,71,65,6.0,70.0
10500,76.0,46,66,6.0,64.0
10501,66.0,8,57,7.0,68.0
10502,78.0,63,68,6.0,57.0
10503,66.0,0,98,0.0,48.0
10504,68.0,46,56,7.0,80.0
10505,76.0,6,73,6.0,66.0
10506,54.0,2,248,10.0,59.0
10507,70.0,61,53,7.0,78.0
10508,78.0,3,65,6.0,59.0
10509,66.0,7,96,0.0,59.0
10510,76.0,47,66,6.0,63.0
10511,70.0,9,56,7.0,53.0
10512,78.0,63,69,6.0,56.0
10513,66.0,2,94,0.0,59.0
10514,71.0,39,59,7.0,60.0
10515,76.0,10,50,6.0,70.0
10516,73.0,2,241,8.0,63.0
10517,73.0,60,62,7.0,82.0
10518,70.0,6,71,6.0,74.0
10519,66.0,8,92,0.0,56.0
10520,76.0,47,53,6.0,60.0
10521,70.0,3,55,7.0,56.0
10522,78.0,50,76,6.0,57.0
10523,78.0,8,91,1.0,57.0
10524,66.0,8,85,0.0,51.0
10525,71.0,40,57,7.0,68.0
10526,76.0,9,56,6.0,66.0
10527,42.0,7,246,10.0,59.0
10528,73.0,3,60,7.0,80.0
10529,78.0,53,68,6.0,56.0
10530,78.0,5,97,1.0,60.0
10531,66.0,6,93,0.0,55.0
10532,76.0,42,74,6.0,63.0
10533,78.0,66,59,6.0,58.0
10534,73.0,7,58,7.0,59.0
10535,76.0,35,46,6.0,61.0
10536,66.0,7,85,0.0,52.0
10537,78.0,0,91,1.0,59.0
10538,74.0,7,51,7.0,72.0
10539,70.0,1,246,8.0,59.0
10540,76.0,7,52,7.0,95.0
10541,70.0,58,65,6.0,82.0
10542,78.0,12,85,1.0,62.0
10543,66.0,1,84,0.0,49.0
10544,76.0,34,88,6.0,82.0
10545,54.0,5,54,10.0,63.0
10546,76.0,5,53,7.0,76.0
10547,78.0,69,74,6.0,59.0
10548,78.0,1,86,2.0,64.0
10549,78.0,2,97,1.0,60.0
10550,66.0,3,88,0.0,52.0
10551,74.0,3,51,7.0,60.0
10552,76.0,5,1202,4.0,58.0
10553,79.0,40,81,6.0,78.0
10554,58.0,1,50,10.0,70.0
10555,78.0,60,70,6.0,95.0
10556,76.0,5,67,7.0,87.0
10557,78.0,1,85,1.0,59.0
10558,78.0,2,95,2.0,66.0
10559,66.0,4,93,0.0,53.0
10560,76.0,45,67,6.0,60.0
10561,75.0,59,56,6.0,76.0
10562,54.0,0,53,10.0,60.0
10563,78.0,3,55,7.0,60.0
10564,76.0,39,33,7.0,78.0
10565,73.0,6,39,6.0,30.0
10566,78.0,1,86,2.0,60.0
10567,78.0,4,97,1.0,60.0
10568,66.0,6,90,0.0,47.0
10569,73.0,2,221,4.0,59.0
10570,66.0,1,246,8.0,53.0
10571,69.0,1,79,6.0,70.0
10572,75.0,48,71,6.0,61.0
10573,78.0,4,142,1.0,59.0
10574,66.0,2,135,0.0,55.0
10575,78.0,1,143,2.0,59.0
10576,75.0,64,178,7.0,87.0
10577,59.0,0,56,8.0,64.0
10578,78.0,65,73,6.0,55.0
10579,61.0,48,54,8.0,66.0
10580,75.0,11,59,6.0,59.0
10581,59.0,2,268,10.0,63.0
10582,63.0,52,59,8.0,66.0
10583,78.0,7,71,6.0,60.0
10584,75.0,49,76,6.0,47.0
10585,63.0,3,53,8.0,57.0
10586,78.0,70,69,6.0,61.0
10587,64.0,46,44,8.0,64.0
10588,75.0,3,49,6.0,64.0
10589,71.0,3,234,7.0,60.0
10590,66.0,61,66,8.0,82.0
10591,69.0,3,72,6.0,82.0
10592,75.0,39,61,6.0,68.0
10593,63.0,19,49,8.0,57.0
10594,78.0,59,76,6.0,58.0
10595,64.0,7,52,8.0,66.0
10596,75.0,41,65,6.0,64.0
10597,47.0,15,230,10.0,63.0
10598,66.0,3,62,8.0,78.0
10599,78.0,57,73,6.0,56.0
10600,75.0,47,68,6.0,59.0
10601,66.0,13,55,8.0,55.0
10602,78.0,64,73,6.0,58.0
10603,75.0,43,44,6.0,60.0
10604,68.0,3,53,8.0,58.0
10605,75.0,6,248,7.0,63.0
10606,69.0,5,44,8.0,89.0
10607,69.0,60,72,6.0,87.0
10608,75.0,50,64,6.0,63.0
10609,59.0,62,57,10.0,85.0
10610,78.0,2,60,6.0,58.0
10611,69.0,14,53,8.0,66.0
10612,68.0,0,55,8.0,57.0
10613,76.0,43,62,6.0,68.0
10614,69.0,3,1188,5.0,59.0
10615,47.0,1,56,10.0,70.0
10616,69.0,9,61,8.0,68.0
10617,75.0,53,73,6.0,64.0
10618,73.0,33,51,6.0,60.0
10619,51.0,17,47,10.0,74.0
10620,71.0,50,67,6.0,63.0
10621,71.0,5,53,8.0,70.0
10622,78.0,2,191,7.0,60.0
10623,69.0,35,44,6.0,60.0
10624,69.0,12,49,8.0,80.0
10625,75.0,2,1416,4.0,62.0
10626,66.0,16,215,5.0,59.0
10627,68.0,61,66,6.0,66.0
10628,74.0,45,79,6.0,70.0
10629,64.0,64,56,7.0,68.0
10630,68.0,3,192,8.0,60.0
10631,76.0,5,83,6.0,66.0
10632,66.0,40,66,7.0,62.0
10633,52.0,7,241,10.0,66.0
10634,74.0,21,68,6.0,68.0
10635,68.0,45,57,7.0,82.0
10636,76.0,16,74,6.0,64.0
10637,74.0,60,57,6.0,66.0
10638,68.0,51,51,7.0,57.0
10639,76.0,9,57,6.0,51.0
10640,69.0,33,51,7.0,68.0
10641,74.0,14,46,6.0,66.0
10642,71.0,2,257,8.0,57.0
10643,71.0,58,70,7.0,80.0
10644,68.0,11,60,6.0,87.0
10645,74.0,54,71,6.0,70.0
10646,68.0,59,48,7.0,62.0
10647,76.0,4,73,6.0,64.0
10648,69.0,51,56,7.0,70.0
10649,40.0,5,242,10.0,63.0
10650,74.0,8,78,6.0,72.0
10651,71.0,52,55,7.0,82.0
10652,76.0,10,74,6.0,70.0
10653,74.0,60,66,6.0,70.0
10654,71.0,52,67,7.0,80.0
10655,76.0,11,56,6.0,66.0
10656,74.0,5,34,6.0,66.0
10657,73.0,43,46,7.0,80.0
10658,68.0,6,257,8.0,59.0
10659,74.0,57,63,7.0,87.0
10660,68.0,5,68,6.0,74.0
10661,74.0,58,71,6.0,82.0
10662,52.0,57,57,10.0,66.0
10663,74.0,3,56,7.0,78.0
10664,76.0,4,78,6.0,61.0
10665,73.0,51,44,7.0,80.0
10666,78.0,10,59,6.0,58.0
10667,77.0,2,10,6.0,52.0
10668,56.0,1,54,10.0,70.0
10669,76.0,3,53,6.0,60.0
10670,74.0,1,63,7.0,87.0
10671,74.0,49,58,6.0,70.0
10672,52.0,3,60,10.0,68.0
10673,73.0,62,75,6.0,57.0
10674,76.0,10,65,7.0,78.0
10675,74.0,6,34,7.0,85.0
10676,71.0,47,46,6.0,62.0
10677,74.0,6,1428,4.0,63.0
10678,64.0,52,245,8.0,60.0
10679,68.0,3,1438,5.0,62.0
10680,67.0,1,74,6.0,70.0
10681,73.0,54,81,6.0,58.0
10682,57.0,1,56,8.0,63.0
10683,76.0,63,69,6.0,62.0
10684,73.0,59,201,7.0,62.0
10685,69.0,3,90,0.0,61.0
10686,59.0,3,50,8.0,62.0
10687,73.0,48,66,6.0,53.0
10688,57.0,0,254,10.0,70.0
10689,61.0,2,53,8.0,82.0
10690,76.0,57,74,6.0,58.0
10691,69.0,3,96,0.0,59.0
10692,73.0,39,70,6.0,52.0
10693,61.0,4,63,8.0,63.0
10694,76.0,60,71,6.0,63.0
10695,73.0,40,50,6.0,51.0
10696,69.0,9,90,0.0,63.0
10697,62.0,0,53,8.0,64.0
10698,69.0,17,243,7.0,66.0
10699,64.0,1,75,8.0,85.0
10700,67.0,69,77,6.0,85.0
10701,69.0,7,96,0.0,60.0
10702,73.0,42,84,6.0,57.0
10703,61.0,0,57,8.0,64.0
10704,76.0,62,75,6.0,64.0
10705,81.0,9,86,1.0,61.0
10706,62.0,43,45,8.0,62.0
10707,69.0,3,90,0.0,59.0
10708,45.0,9,221,10.0,68.0
10709,73.0,2,71,6.0,58.0
10710,64.0,1,67,8.0,85.0
10711,76.0,0,75,6.0,63.0
10712,69.0,8,89,0.0,60.0
10713,81.0,8,99,1.0,64.0
10714,73.0,46,68,6.0,60.0
10715,64.0,5,54,8.0,68.0
10716,76.0,58,65,6.0,60.0
10717,69.0,7,74,0.0,58.0
10718,73.0,5,44,6.0,57.0
10719,66.0,36,51,8.0,68.0
10720,81.0,4,90,1.0,72.0
10721,73.0,58,257,7.0,55.0
10722,67.0,60,74,8.0,85.0
10723,67.0,2,74,6.0,87.0
10724,69.0,6,101,0.0,59.0
10725,81.0,11,90,1.0,70.0
10726,73.0,36,85,6.0,60.0
10727,45.0,8,35,3.0,59.0
10728,57.0,0,52,10.0,72.0
10729,67.0,66,56,8.0,64.0
10730,76.0,1,71,6.0,93.0
10731,66.0,38,45,8.0,55.0
10732,81.0,0,83,1.0,82.0
10733,81.0,1,87,2.0,68.0
10734,76.0,2,92,0.0,74.0
10735,74.0,1,76,6.0,80.0
10736,45.0,1,37,3.0,62.0
10737,67.0,7,64,8.0,74.0
10738,45.0,10,62,10.0,80.0
10739,73.0,54,85,6.0,78.0
10740,88.0,3,92,1.0,85.0
10741,81.0,2,92,0.0,76.0
10742,81.0,2,95,2.0,61.0
10743,71.0,34,61,6.0,78.0
10744,76.0,2,150,7.0,74.0
10745,45.0,0,32,3.0,66.0
10746,69.0,8,51,8.0,66.0
10747,49.0,7,50,10.0,60.0
10748,69.0,58,74,6.0,68.0
10749,67.0,24,43,8.0,68.0
10750,67.0,9,37,6.0,70.0
10751,67.0,4,1395,5.0,66.0
10752,81.0,6,83,1.0,76.0
10753,73.0,4,1401,4.0,58.0
10754,76.0,4,89,0.0,66.0
10755,81.0,1,102,2.0,66.0
10756,50.0,0,43,3.0,80.0
10757,66.0,66,72,6.0,89.0
10758,50.0,8,60,10.0,64.0
10759,62.0,28,73,6.0,74.0
10760,78.0,7,131,0.0,70.0
10761,81.0,1,131,1.0,82.0
10762,74.0,4,141,2.0,85.0
10763,66.0,1,166,5.0,61.0
10764,74.0,1,155,4.0,70.0
10765,64.0,62,60,6.0,76.0
10766,49.0,12,59,10.0,51.0
10767,67.0,46,40,6.0,68.0
10768,74.0,4,237,7.0,66.0
10769,66.0,0,260,8.0,52.0
10770,66.0,66,57,6.0,82.0
10771,50.0,8,56,10.0,64.0
10772,69.0,43,36,6.0,68.0
10773,52.0,8,54,10.0,64.0
10774,68.0,64,64,6.0,98.0
10775,71.0,46,36,6.0,80.0
10776,69.0,2,61,6.0,102.0
10777,54.0,67,72,10.0,66.0
10778,66.0,57,75,6.0,89.0
10779,52.0,59,60,10.0,59.0
10780,68.0,5,73,6.0,70.0
10781,71.0,62,40,6.0,78.0
10782,54.0,51,69,10.0,58.0
10783,69.0,12,69,6.0,100.0
10784,73.0,57,47,6.0,61.0
10785,71.0,15,61,6.0,98.0
10786,56.0,53,80,10.0,72.0
10787,74.0,54,35,6.0,80.0
10788,57.0,63,66,10.0,85.0
10789,73.0,4,73,6.0,102.0
10790,69.0,58,72,6.0,85.0
10791,71.0,58,66,6.0,82.0
10792,56.0,5,64,10.0,62.0
10793,74.0,51,44,6.0,82.0
10794,57.0,7,50,10.0,70.0
10795,73.0,63,62,6.0,113.0
10796,76.0,47,35,6.0,98.0
10797,54.0,4,56,10.0,63.0
10798,74.0,62,63,6.0,100.0
10799,78.0,46,53,6.0,87.0
10800,49.0,1,57,10.0,70.0
10801,76.0,77,150,6.0,85.0
10802,50.0,114,58,10.0,85.0
10803,78.0,68,25,6.0,64.0
10804,73.0,10,30,6.0,102.0
10805,52.0,52,64,10.0,80.0
10806,71.0,34,35,6.0,78.0
10807,73.0,25,48,6.0,63.0
10808,71.0,27,66,6.0,82.0
10809,40.0,32,66,10.0,82.0
10810,69.0,50,38,6.0,72.0
10811,69.0,4,68,6.0,98.0
10812,45.0,79,81,10.0,85.0
10813,71.0,55,67,6.0,82.0
10814,73.0,2,44,6.0,57.0
10815,76.0,5,48,5.0,82.0
10816,76.0,1,58,7.0,85.0
10817,73.0,0,48,4.0,74.0
10818,45.0,1,55,10.0,85.0
10819,69.0,54,102,8.0,63.0
10820,88.0,8,97,0.0,82.0
10821,74.0,3,51,4.0,76.0
10822,47.0,2,56,10.0,89.0
10823,74.0,45,59,6.0,68.0
10824,69.0,0,52,5.0,76.0
10825,76.0,2,56,4.0,74.0
10826,69.0,4,52,7.0,80.0
10827,76.0,3,66,6.0,68.0
10828,49.0,2,67,10.0,100.0
10829,78.0,51,36,6.0,76.0
10830,69.0,52,103,8.0,66.0
10831,93.0,2,107,0.0,85.0
10832,78.0,3,54,4.0,68.0
10833,76.0,3,49,4.0,57.0
10834,49.0,0,53,10.0,62.0
10835,76.0,50,67,6.0,87.0
10836,69.0,7,93,8.0,70.0
10837,88.0,3,89,1.0,98.0
10838,78.0,30,47,6.0,89.0
10839,50.0,8,44,10.0,82.0
10840,78.0,3,46,4.0,62.0
10841,88.0,3,108,0.0,76.0
10842,73.0,2,164,7.0,85.0
10843,79.0,0,66,6.0,100.0
10844,52.0,1,68,10.0,95.0
10845,73.0,7,168,5.0,80.0
10846,79.0,4,64,4.0,87.0
10847,69.0,58,99,8.0,72.0
10848,76.0,48,43,6.0,70.0
10849,91.0,3,97,1.0,85.0
10850,76.0,6,47,4.0,66.0
10851,76.0,2,50,7.0,91.0
10852,76.0,4,53,5.0,85.0
10853,49.0,1,51,10.0,80.0
10854,69.0,57,68,6.0,52.0
10855,69.0,0,67,4.0,68.0
10856,69.0,1,99,8.0,70.0
10857,88.0,3,86,0.0,85.0
10858,71.0,40,51,6.0,56.0
10859,50.0,6,46,10.0,87.0
10860,71.0,7,57,4.0,63.0
10861,88.0,5,117,1.0,80.0
10862,67.0,1,45,7.0,87.0
10863,73.0,4,49,4.0,56.0
10864,67.0,1,48,5.0,80.0
10865,73.0,48,67,6.0,66.0
10866,52.0,1,73,10.0,89.0
10867,74.0,41,45,6.0,82.0
10868,69.0,6,97,8.0,80.0
10869,91.0,1,99,0.0,87.0
10870,74.0,8,49,4.0,64.0
10871,73.0,49,44,6.0,80.0
10872,73.0,9,53,4.0,57.0
10873,52.0,1,51,10.0,85.0
10874,88.0,2,80,1.0,87.0
10875,74.0,29,47,6.0,91.0
10876,74.0,3,49,4.0,72.0
10877,69.0,4,97,8.0,78.0
10878,54.0,6,44,10.0,85.0
10879,88.0,1,131,0.0,72.0
10880,76.0,57,61,6.0,102.0
10881,73.0,4,171,7.0,85.0
10882,76.0,1,66,4.0,98.0
10883,55.0,4,76,10.0,95.0
10884,73.0,7,178,5.0,85.0
10885,69.0,3,92,8.0,85.0
10886,74.0,46,54,6.0,78.0
10887,93.0,2,104,1.0,87.0
10888,74.0,7,56,4.0,70.0
10889,76.0,1,43,7.0,91.0
10890,88.0,2,42,0.0,98.0
10891,45.0,4,39,3.0,102.0
10892,73.0,51,64,6.0,48.0
10893,76.0,1,44,5.0,82.0
10894,55.0,0,54,10.0,82.0
10895,73.0,1,61,4.0,57.0
10896,86.0,5,42,0.0,87.0
10897,69.0,12,97,8.0,72.0
10898,74.0,35,51,6.0,74.0
10899,81.0,4,96,2.0,98.0
10900,81.0,0,100,1.0,60.0
10901,54.0,5,46,10.0,95.0
10902,74.0,0,52,4.0,68.0
10903,45.0,3,40,3.0,102.0
10904,69.0,1,52,7.0,87.0
10905,76.0,60,69,6.0,100.0
10906,69.0,4,60,5.0,85.0
10907,76.0,1,64,4.0,85.0
10908,88.0,0,75,0.0,87.0
10909,55.0,3,73,10.0,93.0
10910,81.0,2,88,2.0,91.0
10911,81.0,0,89,1.0,85.0
10912,69.0,1,95,8.0,78.0
10913,74.0,8,60,4.0,70.0
10914,74.0,39,71,6.0,76.0
10915,90.0,1,37,0.0,80.0
10916,45.0,3,38,3.0,102.0
10917,73.0,1,44,5.0,66.0
10918,73.0,0,52,7.0,74.0
10919,73.0,57,61,6.0,55.0
10920,73.0,0,58,4.0,68.0
10921,57.0,0,63,10.0,98.0
10922,81.0,2,75,1.0,80.0
10923,69.0,3,88,8.0,78.0
10924,88.0,42,44,0.0,98.0
10925,71.0,1,45,4.0,72.0
10926,81.0,2,101,2.0,87.0
10927,55.0,1,44,10.0,78.0
10928,71.0,3,50,6.0,74.0
10929,74.0,1,47,7.0,95.0
10930,50.0,0,51,3.0,110.0
10931,69.0,3,58,6.0,91.0
10932,69.0,1,59,4.0,63.0
10933,86.0,57,74,0.0,85.0
10934,74.0,3,61,5.0,80.0
10935,54.0,6,78,10.0,64.0
10936,69.0,0,99,8.0,78.0
10937,73.0,44,57,7.0,70.0
10938,73.0,14,54,5.0,63.0
10939,74.0,1,135,2.0,102.0
10940,81.0,6,132,1.0,95.0
10941,78.0,3,42,6.0,95.0
10942,78.0,2,40,4.0,85.0
10943,74.0,50,65,7.0,66.0
10944,47.0,2,57,10.0,76.0
10945,74.0,1,64,5.0,68.0
10946,90.0,1,101,0.0,87.0
10947,76.0,11,39,5.0,80.0
10948,49.0,3,51,10.0,72.0
10949,71.0,1,107,8.0,85.0
10950,76.0,43,58,7.0,80.0
10951,71.0,1,39,4.0,76.0
10952,78.0,50,61,7.0,93.0
10953,71.0,2,49,6.0,85.0
10954,51.0,5,68,10.0,100.0
10955,78.0,1,61,5.0,89.0
10956,79.0,39,52,7.0,80.0
10957,95.0,2,102,0.0,91.0
10958,71.0,4,100,8.0,70.0
10959,79.0,18,44,5.0,76.0
10960,78.0,48,55,7.0,93.0
10961,51.0,0,60,10.0,68.0
10962,78.0,0,59,5.0,80.0
10963,90.0,1,89,1.0,82.0
10964,71.0,1,91,8.0,68.0
10965,79.0,38,49,7.0,74.0
10966,52.0,2,47,10.0,70.0
10967,79.0,10,49,5.0,70.0
10968,90.0,5,119,0.0,78.0
10969,75.0,5,169,6.0,82.0
10970,81.0,4,59,7.0,95.0
10971,81.0,3,54,5.0,82.0
10972,75.0,6,170,4.0,93.0
10973,54.0,55,69,10.0,107.0
10974,78.0,45,47,7.0,72.0
10975,71.0,1,98,8.0,80.0
10976,93.0,2,100,1.0,85.0
10977,78.0,5,55,5.0,57.0
10978,78.0,1,44,6.0,80.0
10979,78.0,1,48,4.0,74.0
10980,71.0,56,69,7.0,53.0
10981,51.0,0,58,10.0,87.0
10982,71.0,0,64,5.0,64.0
10983,90.0,9,88,0.0,82.0
10984,71.0,0,101,8.0,70.0
10985,52.0,2,55,10.0,82.0
10986,90.0,9,109,1.0,76.0
10987,73.0,41,63,7.0,59.0
10988,73.0,14,52,5.0,62.0
10989,69.0,5,43,6.0,82.0
10990,69.0,3,46,4.0,85.0
10991,75.0,5,62,7.0,74.0
10992,75.0,2,56,5.0,72.0
10993,54.0,44,88,10.0,89.0
10994,71.0,1,82,8.0,82.0
10995,93.0,4,91,0.0,89.0
10996,76.0,40,53,7.0,68.0
10997,76.0,16,45,5.0,66.0
10998,75.0,47,55,7.0,85.0
10999,54.0,0,62,10.0,78.0
11000,75.0,6,65,5.0,93.0
11001,76.0,25,49,7.0,66.0
11002,71.0,2,97,8.0,68.0
11003,56.0,7,46,10.0,95.0
11004,90.0,3,102,1.0,82.0
11005,76.0,15,37,5.0,68.0
11006,90.0,1,139,0.0,76.0
11007,75.0,3,160,6.0,85.0
11008,78.0,2,51,5.0,100.0
11009,78.0,3,59,7.0,100.0
11010,75.0,8,170,4.0,93.0
11011,57.0,44,80,10.0,91.0
11012,95.0,3,96,1.0,93.0
11013,71.0,8,106,8.0,78.0
11014,76.0,53,70,7.0,60.0
11015,76.0,1,72,5.0,62.0
11016,78.0,55,46,6.0,68.0
11017,90.0,1,43,0.0,82.0
11018,57.0,2,58,10.0,89.0
11019,78.0,4,50,4.0,78.0
11020,75.0,1,55,5.0,61.0
11021,75.0,2,65,7.0,58.0
11022,56.0,43,51,10.0,98.0
11023,71.0,1,98,8.0,66.0
11024,88.0,0,48,0.0,85.0
11025,76.0,4,54,5.0,74.0
11026,76.0,9,61,7.0,66.0
11027,90.0,1,129,1.0,87.0
11028,71.0,3,50,6.0,80.0
11029,71.0,0,48,4.0,85.0
11030,78.0,8,58,5.0,80.0
11031,78.0,1,58,7.0,80.0
11032,57.0,51,75,10.0,89.0
11033,90.0,3,84,0.0,85.0
11034,71.0,1,84,8.0,78.0
11035,76.0,55,61,5.0,64.0
11036,76.0,0,62,7.0,72.0
11037,75.0,52,50,6.0,82.0
11038,92.0,2,45,0.0,76.0
11039,75.0,6,49,4.0,80.0
11040,75.0,4,62,7.0,74.0
11041,75.0,2,61,5.0,70.0
11042,59.0,1,66,10.0,87.0
11043,71.0,1,71,8.0,74.0
11044,90.0,2,47,0.0,87.0
11045,57.0,2,51,10.0,87.0
11046,73.0,43,57,7.0,53.0
11047,73.0,6,52,5.0,61.0
11048,56.0,0,57,10.0,98.0
11049,71.0,2,59,8.0,85.0
11050,76.0,51,85,6.0,89.0
11051,76.0,44,35,8.0,78.0
11052,76.0,1,81,4.0,89.0
11053,71.0,3,107,7.0,66.0
11054,88.0,4,106,0.0,66.0
11055,71.0,8,111,5.0,70.0
11056,59.0,2,44,10.0,89.0
11057,64.0,60,54,6.0,62.0
11058,68.0,1,64,8.0,63.0
11059,64.0,2,54,4.0,64.0
11060,66.0,31,47,6.0,70.0
11061,88.0,6,89,0.0,62.0
11062,69.0,6,49,8.0,76.0
11063,76.0,3,105,7.0,63.0
11064,76.0,5,99,5.0,70.0
11065,66.0,13,48,4.0,64.0
11066,68.0,45,58,6.0,72.0
11067,52.0,0,49,10.0,82.0
11068,71.0,5,69,8.0,82.0
11069,68.0,7,52,4.0,91.0
11070,73.0,37,50,8.0,72.0
11071,76.0,0,91,5.0,68.0
11072,76.0,0,99,7.0,68.0
11073,88.0,11,102,0.0,64.0
11074,68.0,60,52,6.0,78.0
11075,68.0,0,47,4.0,64.0
11076,71.0,3,64,8.0,80.0
11077,69.0,29,49,6.0,80.0
11078,73.0,9,47,8.0,70.0
11079,76.0,1,91,5.0,62.0
11080,69.0,3,52,4.0,72.0
11081,88.0,4,98,0.0,68.0
11082,76.0,5,104,7.0,68.0
11083,74.0,10,60,8.0,89.0
11084,56.0,8,176,10.0,82.0
11085,71.0,52,73,6.0,95.0
11086,71.0,6,66,4.0,85.0
11087,71.0,34,46,8.0,66.0
11088,76.0,4,94,5.0,70.0
11089,76.0,6,89,7.0,66.0
11090,88.0,2,94,0.0,80.0
11091,59.0,0,46,10.0,87.0
11092,68.0,3,47,4.0,66.0
11093,68.0,7,53,6.0,70.0
11094,64.0,61,73,8.0,68.0
11095,76.0,1,90,5.0,66.0
11096,76.0,2,92,7.0,78.0
11097,69.0,1,44,6.0,80.0
11098,88.0,2,101,1.0,87.0
11099,69.0,3,48,4.0,76.0
11100,66.0,36,53,8.0,78.0
11101,88.0,9,98,0.0,80.0
11102,50.0,1,44,10.0,80.0
11103,68.0,61,60,8.0,70.0
11104,71.0,2,64,4.0,82.0
11105,71.0,2,69,6.0,89.0
11106,88.0,4,90,1.0,85.0
11107,76.0,2,98,7.0,78.0
11108,69.0,34,49,8.0,70.0
11109,88.0,8,85,0.0,85.0
11110,76.0,2,98,5.0,78.0
11111,68.0,59,56,8.0,80.0
11112,71.0,0,63,6.0,85.0
11113,71.0,0,58,4.0,66.0
11114,69.0,35,43,8.0,74.0
11115,88.0,5,79,0.0,89.0
11116,76.0,8,97,7.0,70.0
11117,73.0,1,46,6.0,87.0
11118,76.0,1,87,5.0,78.0
11119,88.0,6,88,1.0,85.0
11120,73.0,11,48,4.0,78.0
11121,56.0,5,169,10.0,82.0
11122,74.0,0,63,6.0,89.0
11123,71.0,48,65,8.0,102.0
11124,74.0,0,56,4.0,89.0
11125,76.0,2,90,5.0,78.0
11126,76.0,11,93,7.0,85.0
11127,88.0,3,92,0.0,78.0
11128,88.0,5,87,1.0,91.0
11129,69.0,33,56,8.0,85.0
11130,74.0,1,45,4.0,87.0
11131,68.0,57,63,8.0,59.0
11132,74.0,16,49,6.0,85.0
11133,59.0,0,46,10.0,91.0
11134,76.0,0,80,5.0,68.0
11135,76.0,3,80,7.0,80.0
11136,69.0,32,47,8.0,72.0
11137,73.0,9,46,4.0,85.0
11138,73.0,0,48,6.0,80.0
11139,88.0,4,90,2.0,87.0
11140,95.0,0,94,0.0,87.0
11141,92.0,3,101,1.0,87.0
11142,52.0,0,55,10.0,78.0
11143,71.0,60,69,8.0,100.0
11144,74.0,5,73,4.0,85.0
11145,74.0,1,79,6.0,89.0
11146,76.0,3,82,5.0,78.0
11147,76.0,1,82,7.0,89.0
11148,88.0,1,91,2.0,87.0
11149,92.0,1,95,0.0,82.0
11150,95.0,1,95,1.0,98.0
11151,69.0,42,56,8.0,74.0
11152,68.0,60,59,8.0,87.0
11153,76.0,0,47,6.0,78.0
11154,56.0,11,57,10.0,82.0
11155,76.0,3,62,4.0,82.0
11156,71.0,2,74,5.0,76.0
11157,71.0,0,79,7.0,85.0
11158,92.0,1,88,1.0,91.0
11159,88.0,0,88,2.0,82.0
11160,95.0,1,91,0.0,85.0
11161,74.0,6,40,4.0,82.0
11162,74.0,3,52,6.0,82.0
11163,66.0,43,57,8.0,80.0
11164,64.0,57,55,8.0,85.0
11165,45.0,0,51,10.0,87.0
11166,69.0,4,61,5.0,74.0
11167,73.0,1,66,6.0,80.0
11168,69.0,0,59,7.0,80.0
11169,45.0,2,62,3.0,116.0
11170,73.0,0,71,4.0,76.0
11171,68.0,52,61,5.0,58.0
11172,68.0,1,62,7.0,68.0
11173,88.0,0,128,2.0,102.0
11174,97.0,1,128,0.0,89.0
11175,88.0,1,131,1.0,100.0
11176,73.0,0,38,6.0,78.0
11177,73.0,1,41,4.0,70.0
11178,61.0,0,45,8.0,85.0
11179,57.0,2,60,10.0,93.0
11180,69.0,61,69,5.0,72.0
11181,71.0,48,40,6.0,78.0
11182,71.0,3,33,7.0,72.0
11183,71.0,3,42,4.0,72.0
11184,69.0,1,95,7.0,70.0
11185,71.0,6,40,5.0,78.0
11186,50.0,1,55,10.0,82.0
11187,69.0,0,67,7.0,74.0
11188,69.0,1,69,5.0,72.0
11189,73.0,54,102,6.0,80.0
11190,73.0,4,103,4.0,89.0
11191,68.0,0,54,7.0,55.0
11192,68.0,60,65,5.0,64.0
11193,74.0,1,36,6.0,70.0
11194,66.0,4,38,7.0,64.0
11195,74.0,5,33,4.0,80.0
11196,66.0,3,40,5.0,60.0
11197,54.0,54,62,10.0,78.0
11198,73.0,40,45,6.0,72.0
11199,69.0,1,33,5.0,76.0
11200,73.0,6,43,4.0,93.0
11201,69.0,8,54,7.0,59.0
11202,66.0,1,270,8.0,89.0
11203,71.0,48,69,6.0,82.0
11204,68.0,1,55,5.0,91.0
11205,44.0,12,61,10.0,82.0
11206,68.0,1,60,7.0,95.0
11207,71.0,2,67,4.0,82.0
11208,69.0,53,67,5.0,68.0
11209,69.0,5,67,7.0,70.0
11210,71.0,2,48,6.0,72.0
11211,56.0,53,57,10.0,95.0
11212,71.0,1,50,4.0,76.0
11213,68.0,4,56,5.0,78.0
11214,68.0,0,64,7.0,51.0
11215,65.0,3,54,8.0,85.0
11216,69.0,44,44,6.0,82.0
11217,69.0,3,41,4.0,72.0
11218,66.0,3,49,5.0,74.0
11219,66.0,3,47,8.0,82.0
11220,66.0,2,64,7.0,62.0
11221,49.0,1,60,10.0,80.0
11222,68.0,1,67,8.0,82.0
11223,65.0,7,70,5.0,80.0
11224,65.0,1,69,7.0,87.0
11225,71.0,52,103,6.0,91.0
11226,71.0,0,97,4.0,89.0
11227,66.0,57,47,8.0,87.0
11228,73.0,2,52,6.0,58.0
11229,65.0,56,55,8.0,78.0
11230,73.0,5,43,4.0,68.0
11231,68.0,1,67,5.0,74.0
11232,53.0,4,63,10.0,85.0
11233,68.0,0,79,7.0,66.0
11234,71.0,43,48,6.0,62.0
11235,63.0,0,56,8.0,62.0
11236,71.0,9,47,4.0,82.0
11237,69.0,1,56,7.0,87.0
11238,61.0,52,68,8.0,74.0
11239,69.0,4,67,6.0,80.0
11240,69.0,0,60,5.0,82.0
11241,42.0,7,68,10.0,82.0
11242,69.0,1,66,4.0,87.0
11243,73.0,3,49,7.0,62.0
11244,73.0,50,57,5.0,60.0
11245,61.0,3,47,8.0,87.0
11246,69.0,0,55,6.0,82.0
11247,54.0,0,56,10.0,82.0
11248,69.0,8,49,4.0,85.0
11249,66.0,58,66,7.0,80.0
11250,66.0,3,65,5.0,85.0
11251,71.0,40,50,6.0,78.0
11252,71.0,4,46,4.0,87.0
11253,68.0,5,52,7.0,63.0
11254,68.0,4,54,5.0,64.0
11255,54.0,1,43,8.0,80.0
11256,73.0,51,54,6.0,87.0
11257,73.0,2,57,4.0,100.0
11258,69.0,5,63,7.0,82.0
11259,52.0,2,60,10.0,82.0
11260,69.0,1,66,5.0,74.0
11261,71.0,53,60,7.0,87.0
11262,71.0,7,61,5.0,68.0
11263,73.0,48,51,6.0,68.0
11264,73.0,2,49,4.0,64.0
11265,50.0,2,69,10.0,76.0
11266,69.0,8,71,7.0,87.0
11267,69.0,1,69,5.0,82.0
11268,74.0,33,44,6.0,80.0
11269,74.0,13,44,4.0,82.0
11270,71.0,7,47,7.0,80.0
11271,71.0,5,45,5.0,78.0
11272,57.0,2,168,8.0,87.0
11273,76.0,37,74,6.0,98.0
11274,76.0,15,69,4.0,93.0
11275,49.0,5,68,10.0,68.0
11276,73.0,0,68,7.0,100.0
11277,73.0,4,72,5.0,89.0
11278,76.0,49,46,7.0,82.0
11279,76.0,9,50,5.0,82.0
11280,73.0,45,53,6.0,70.0
11281,69.0,4,59,7.0,82.0
11282,73.0,3,54,4.0,66.0
11283,54.0,6,62,10.0,102.0
11284,69.0,2,61,5.0,78.0
11285,74.0,35,49,6.0,80.0
11286,69.0,2,97,8.0,57.0
11287,71.0,8,51,7.0,76.0
11288,71.0,10,48,5.0,80.0
11289,74.0,10,45,4.0,78.0
11290,73.0,2,58,7.0,82.0
11291,73.0,8,55,5.0,87.0
11292,52.0,2,65,10.0,80.0
11293,76.0,40,68,6.0,93.0
11294,76.0,3,54,4.0,93.0
11295,74.0,37,50,7.0,82.0
11296,69.0,1,93,8.0,87.0
11297,74.0,11,52,5.0,72.0
11298,73.0,54,46,7.0,87.0
11299,73.0,7,53,5.0,98.0
11300,50.0,3,60,10.0,74.0
11301,76.0,5,54,6.0,82.0
11302,76.0,4,58,4.0,80.0
11303,74.0,33,45,7.0,80.0
11304,69.0,3,98,8.0,85.0
11305,74.0,9,48,5.0,82.0
11306,78.0,3,47,6.0,68.0
11307,78.0,5,42,4.0,85.0
11308,76.0,47,70,7.0,102.0
11309,49.0,4,69,10.0,102.0
11310,79.0,0,62,6.0,100.0
11311,79.0,8,65,4.0,102.0
11312,76.0,1,67,5.0,98.0
11313,69.0,0,95,8.0,85.0
11314,74.0,47,67,7.0,80.0
11315,74.0,11,57,5.0,80.0
11316,79.0,0,46,4.0,91.0
11317,79.0,6,45,6.0,80.0
11318,52.0,2,55,10.0,89.0
11319,73.0,58,65,7.0,49.0
11320,73.0,2,73,5.0,63.0
11321,69.0,1,97,8.0,82.0
11322,74.0,46,48,7.0,68.0
11323,78.0,3,46,4.0,95.0
11324,78.0,1,51,6.0,74.0
11325,74.0,0,48,5.0,78.0
11326,45.0,61,64,10.0,89.0
11327,79.0,2,66,4.0,91.0
11328,76.0,2,70,7.0,105.0
11329,76.0,0,68,5.0,95.0
11330,79.0,1,73,6.0,93.0
11331,69.0,1,99,8.0,85.0
11332,74.0,3,68,5.0,74.0
11333,74.0,53,73,7.0,78.0
11334,49.0,0,53,10.0,82.0
11335,73.0,1,62,7.0,64.0
11336,73.0,61,67,5.0,82.0
11337,81.0,2,66,6.0,85.0
11338,81.0,11,70,4.0,89.0
11339,64.0,1,88,8.0,80.0
11340,79.0,40,39,6.0,78.0
11341,79.0,9,39,4.0,80.0
11342,71.0,5,58,7.0,78.0
11343,71.0,1,59,5.0,87.0
11344,78.0,48,63,6.0,93.0
11345,50.0,5,59,10.0,98.0
11346,78.0,5,57,4.0,100.0
11347,69.0,3,71,5.0,82.0
11348,69.0,3,67,7.0,85.0
11349,74.0,36,50,6.0,80.0
11350,66.0,1,100,8.0,87.0
11351,74.0,14,47,4.0,70.0
11352,66.0,1,47,7.0,85.0
11353,66.0,2,49,5.0,76.0
11354,62.0,3,56,10.0,95.0
11355,71.0,1,53,4.0,60.0
11356,71.0,50,71,6.0,57.0
11357,73.0,41,52,6.0,62.0
11358,66.0,11,101,8.0,68.0
11359,73.0,17,44,4.0,57.0
11360,74.0,36,65,6.0,72.0
11361,55.0,3,48,10.0,89.0
11362,74.0,22,59,4.0,78.0
11363,76.0,24,53,6.0,80.0
11364,66.0,1,89,8.0,63.0
11365,76.0,27,42,4.0,70.0
11366,73.0,37,50,6.0,54.0
11367,73.0,5,43,4.0,53.0
11368,59.0,7,54,10.0,89.0
11369,66.0,17,85,8.0,76.0
11370,74.0,32,46,6.0,74.0
11371,74.0,16,44,4.0,64.0
11372,71.0,3,255,7.0,87.0
11373,71.0,0,270,5.0,85.0
11374,76.0,54,62,6.0,95.0
11375,49.0,2,57,10.0,87.0
11376,76.0,9,58,4.0,102.0
11377,64.0,7,94,8.0,80.0
11378,73.0,33,52,6.0,61.0
11379,73.0,24,44,4.0,62.0
11380,70.0,38,53,6.0,70.0
11381,76.0,5,54,7.0,89.0
11382,70.0,3,44,4.0,82.0
11383,76.0,6,62,5.0,91.0
11384,61.0,6,58,10.0,78.0
11385,67.0,0,94,8.0,78.0
11386,71.0,37,53,6.0,68.0
11387,71.0,19,43,4.0,70.0
11388,70.0,7,43,7.0,80.0
11389,54.0,2,49,10.0,87.0
11390,73.0,48,70,6.0,66.0
11391,66.0,1,62,8.0,80.0
11392,70.0,2,65,5.0,76.0
11393,73.0,2,64,4.0,82.0
11394,74.0,42,47,6.0,72.0
11395,74.0,13,38,4.0,72.0
11396,71.0,49,48,6.0,64.0
11397,71.0,8,50,4.0,80.0
11398,58.0,2,46,10.0,85.0
11399,66.0,2,71,8.0,74.0
11400,73.0,6,39,4.0,64.0
11401,73.0,42,45,6.0,64.0
11402,66.0,0,158,7.0,82.0
11403,66.0,6,155,5.0,76.0
11404,74.0,58,67,6.0,91.0
11405,47.0,3,63,10.0,93.0
11406,74.0,3,72,4.0,93.0
11407,71.0,0,80,8.0,89.0
11408,76.0,2,43,4.0,82.0
11409,76.0,50,52,6.0,80.0
11410,67.0,5,47,7.0,76.0
11411,67.0,3,47,5.0,72.0
11412,73.0,54,61,6.0,53.0
11413,73.0,2,58,4.0,63.0
11414,59.0,1,57,10.0,100.0
11415,66.0,1,62,8.0,64.0
11416,64.0,1,64,5.0,78.0
11417,64.0,3,70,7.0,72.0
11418,74.0,1,44,4.0,80.0
11419,66.0,3,47,7.0,78.0
11420,74.0,47,50,6.0,72.0
11421,66.0,3,46,5.0,78.0
11422,67.0,0,50,7.0,93.0
11423,52.0,1,56,10.0,82.0
11424,71.0,1,63,8.0,87.0
11425,76.0,62,70,6.0,87.0
11426,67.0,0,66,5.0,82.0
11427,76.0,5,71,4.0,105.0
11428,74.0,8,60,4.0,82.0
11429,74.0,47,71,6.0,72.0
11430,73.0,53,51,6.0,58.0
11431,73.0,2,47,4.0,62.0
11432,64.0,5,46,5.0,87.0
11433,64.0,0,53,7.0,85.0
11434,55.0,5,58,10.0,89.0
11435,71.0,1,63,8.0,82.0
11436,71.0,44,49,6.0,66.0
11437,71.0,3,48,4.0,82.0
11438,73.0,1,37,5.0,87.0
11439,73.0,2,46,7.0,80.0
11440,70.0,0,56,8.0,89.0
11441,54.0,7,71,10.0,102.0
11442,78.0,58,114,6.0,52.0
11443,78.0,48,53,7.0,68.0
11444,78.0,10,112,4.0,64.0
11445,78.0,10,44,5.0,87.0
11446,73.0,2,45,8.0,91.0
11447,70.0,44,61,7.0,74.0
11448,70.0,1,54,5.0,68.0
11449,42.0,11,60,10.0,76.0
11450,78.0,0,91,6.0,62.0
11451,71.0,37,45,7.0,78.0
11452,44.0,1,47,10.0,80.0
11453,90.0,4,93,0.0,64.0
11454,78.0,3,101,4.0,64.0
11455,71.0,15,53,5.0,78.0
11456,66.0,8,43,8.0,82.0
11457,73.0,48,56,7.0,85.0
11458,46.0,3,65,10.0,102.0
11459,73.0,3,62,5.0,76.0
11460,74.0,31,42,7.0,82.0
11461,78.0,2,104,6.0,61.0
11462,78.0,2,94,4.0,78.0
11463,74.0,17,48,5.0,82.0
11464,90.0,0,103,0.0,76.0
11465,73.0,40,65,7.0,64.0
11466,46.0,0,53,10.0,80.0
11467,73.0,23,61,5.0,64.0
11468,74.0,24,51,7.0,82.0
11469,47.0,8,46,10.0,82.0
11470,78.0,3,89,4.0,66.0
11471,74.0,5,52,5.0,76.0
11472,78.0,0,98,6.0,59.0
11473,90.0,6,92,0.0,76.0
11474,70.0,0,162,8.0,100.0
11475,76.0,58,63,7.0,100.0
11476,76.0,5,66,5.0,87.0
11477,49.0,6,94,10.0,102.0
11478,73.0,33,54,7.0,62.0
11479,78.0,2,99,4.0,82.0
11480,90.0,5,96,0.0,82.0
11481,78.0,5,105,6.0,64.0
11482,73.0,17,52,5.0,80.0
11483,73.0,3,45,8.0,87.0
11484,66.0,49,67,7.0,57.0
11485,46.0,10,62,10.0,74.0
11486,66.0,1,69,5.0,68.0
11487,78.0,0,88,6.0,64.0
11488,78.0,0,92,4.0,70.0
11489,90.0,6,92,0.0,82.0
11490,68.0,30,60,7.0,72.0
11491,47.0,8,54,10.0,80.0
11492,90.0,3,95,1.0,93.0
11493,68.0,11,67,5.0,74.0
11494,70.0,49,56,7.0,70.0
11495,64.0,0,50,8.0,87.0
11496,49.0,5,62,10.0,95.0
11497,70.0,7,65,5.0,68.0
11498,90.0,1,93,0.0,87.0
11499,78.0,0,97,6.0,64.0
11500,78.0,3,98,4.0,78.0
11501,71.0,34,57,7.0,70.0
11502,90.0,6,98,1.0,70.0
11503,71.0,11,58,5.0,66.0
11504,70.0,1,51,5.0,70.0
11505,49.0,4,51,10.0,80.0
11506,70.0,53,67,7.0,58.0
11507,78.0,7,95,6.0,63.0
11508,90.0,3,92,0.0,82.0
11509,78.0,2,94,4.0,82.0
11510,71.0,38,50,5.0,82.0
11511,90.0,8,94,1.0,68.0
11512,71.0,3,53,7.0,74.0
11513,50.0,4,52,10.0,80.0
11514,70.0,1,175,8.0,98.0
11515,73.0,5,66,5.0,91.0
11516,73.0,0,76,7.0,66.0
11517,52.0,0,73,10.0,100.0
11518,78.0,55,102,6.0,66.0
11519,90.0,4,91,1.0,68.0
11520,90.0,3,99,0.0,85.0
11521,71.0,43,52,7.0,66.0
11522,78.0,4,99,4.0,80.0
11523,71.0,8,71,5.0,72.0
11524,73.0,4,46,8.0,85.0
11525,70.0,45,67,7.0,59.0
11526,52.0,3,55,10.0,82.0
11527,70.0,0,65,5.0,70.0
11528,90.0,6,93,2.0,85.0
11529,78.0,8,103,6.0,64.0
11530,90.0,0,94,0.0,85.0
11531,90.0,0,94,1.0,63.0
11532,78.0,2,93,4.0,70.0
11533,71.0,39,53,7.0,72.0
11534,50.0,9,49,10.0,78.0
11535,71.0,7,52,5.0,82.0
11536,66.0,3,57,8.0,80.0
11537,73.0,50,73,7.0,91.0
11538,73.0,4,69,5.0,82.0
11539,52.0,4,83,10.0,89.0
11540,78.0,1,79,4.0,66.0
11541,90.0,0,88,2.0,82.0
11542,78.0,1,88,6.0,82.0
11543,90.0,0,88,0.0,87.0
11544,90.0,3,89,1.0,78.0
11545,76.0,41,66,7.0,93.0
11546,76.0,15,77,5.0,80.0
11547,74.0,41,57,7.0,80.0
11548,54.0,4,62,10.0,70.0
11549,74.0,2,64,5.0,70.0
11550,70.0,0,71,8.0,76.0
11551,78.0,11,75,6.0,82.0
11552,90.0,0,76,0.0,87.0
11553,78.0,4,72,4.0,85.0
11554,90.0,0,83,1.0,70.0
11555,90.0,1,93,2.0,82.0
11556,52.0,9,45,10.0,78.0
11557,73.0,38,55,7.0,66.0
11558,73.0,3,56,5.0,76.0
11559,71.0,53,52,7.0,82.0
11560,50.0,4,55,3.0,119.0
11561,71.0,2,60,8.0,87.0
11562,71.0,1,56,5.0,85.0
11563,78.0,3,64,6.0,93.0
11564,50.0,1,68,10.0,78.0
11565,78.0,0,67,4.0,85.0
11566,76.0,12,46,4.0,70.0
11567,76.0,37,68,6.0,80.0
11568,90.0,3,124,1.0,102.0
11569,95.0,1,138,0.0,85.0
11570,78.0,2,133,2.0,100.0
11571,50.0,1,41,10.0,80.0
11572,66.0,0,47,7.0,76.0
11573,78.0,43,69,6.0,82.0
11574,59.0,4,51,8.0,78.0
11575,66.0,7,49,5.0,68.0
11576,78.0,14,64,4.0,68.0
11577,49.0,0,41,10.0,70.0
11578,79.0,35,56,6.0,82.0
11579,79.0,10,48,4.0,80.0
11580,78.0,2,42,4.0,76.0
11581,78.0,59,48,6.0,95.0
11582,62.0,1,58,8.0,82.0
11583,50.0,1,99,10.0,82.0
11584,83.0,4,48,4.0,85.0
11585,83.0,52,61,6.0,89.0
11586,82.0,5,45,4.0,91.0
11587,52.0,4,38,10.0,70.0
11588,66.0,5,51,8.0,80.0
11589,82.0,52,65,6.0,80.0
11590,50.0,7,42,10.0,82.0
11591,83.0,43,50,6.0,80.0
11592,83.0,1,46,4.0,82.0
11593,71.0,1,268,7.0,87.0
11594,76.0,3,55,4.0,80.0
11595,76.0,58,64,6.0,85.0
11596,71.0,1,298,5.0,74.0
11597,67.0,4,66,8.0,78.0
11598,49.0,1,70,10.0,85.0
11599,74.0,45,50,6.0,68.0
11600,74.0,14,49,4.0,68.0
11601,76.0,48,52,6.0,64.0
11602,49.0,1,42,10.0,95.0
11603,64.0,3,48,7.0,76.0
11604,76.0,2,56,4.0,61.0
11605,64.0,1,64,5.0,72.0
11606,71.0,8,69,8.0,80.0
11607,47.0,4,45,10.0,85.0
11608,78.0,39,49,6.0,61.0
11609,78.0,10,41,4.0,62.0
11610,76.0,1,48,6.0,85.0
11611,76.0,1,43,4.0,82.0
11612,61.0,2,53,7.0,68.0
11613,70.0,3,61,8.0,70.0
11614,61.0,5,65,5.0,78.0
11615,49.0,54,89,10.0,102.0
11616,79.0,9,42,4.0,85.0
11617,79.0,47,66,6.0,89.0
11618,78.0,47,52,6.0,87.0
11619,78.0,3,43,4.0,87.0
11620,70.0,4,48,5.0,76.0
11621,70.0,4,54,7.0,80.0
11622,50.0,1,54,10.0,85.0
11623,66.0,1,57,8.0,76.0
11624,76.0,44,45,6.0,82.0
11625,49.0,10,39,10.0,85.0
11626,76.0,3,40,4.0,85.0
11627,71.0,4,50,7.0,89.0
11628,74.0,1,51,4.0,87.0
11629,71.0,1,48,5.0,85.0
11630,74.0,53,62,6.0,89.0
11631,66.0,3,58,8.0,85.0
11632,47.0,3,67,10.0,87.0
11633,49.0,47,52,10.0,89.0
11634,50.0,56,36,10.0,82.0
11635,78.0,0,44,4.0,89.0
11636,71.0,9,57,7.0,87.0
11637,71.0,3,55,5.0,82.0
11638,62.0,3,54,8.0,78.0
11639,78.0,1,56,6.0,85.0
11640,47.0,37,38,10.0,82.0
11641,52.0,70,50,10.0,82.0
11642,79.0,3,42,4.0,87.0
11643,79.0,6,48,6.0,91.0
11644,59.0,0,56,8.0,82.0
11645,71.0,0,56,5.0,82.0
11646,71.0,7,66,7.0,82.0
11647,54.0,40,46,10.0,85.0
11648,55.0,63,42,10.0,82.0
11649,67.0,1,48,5.0,80.0
11650,59.0,4,55,8.0,82.0
11651,64.0,4,52,7.0,76.0
11652,71.0,5,54,4.0,80.0
11653,71.0,5,59,6.0,85.0
11654,52.0,42,36,10.0,85.0
11655,70.0,69,67,4.0,70.0
11656,70.0,2,67,6.0,72.0
11657,66.0,51,67,4.0,68.0
11658,66.0,5,65,6.0,78.0
11659,68.0,51,68,4.0,63.0
11660,68.0,1,75,6.0,61.0
11661,70.0,0,45,4.0,72.0
11662,70.0,57,49,6.0,70.0
11663,61.0,2,237,7.0,85.0
11664,54.0,0,249,10.0,98.0
11665,66.0,3,254,5.0,78.0
11666,66.0,1,259,8.0,82.0
11667,71.0,4,59,4.0,72.0
11668,71.0,64,71,6.0,80.0
11669,73.0,3,52,4.0,60.0
11670,73.0,58,61,6.0,61.0
11671,52.0,1,49,10.0,87.0
11672,74.0,54,55,6.0,78.0
11673,74.0,2,54,4.0,68.0
11674,73.0,0,57,7.0,78.0
11675,70.0,2,55,8.0,80.0
11676,73.0,3,57,5.0,72.0
11677,76.0,0,45,4.0,85.0
11678,76.0,51,57,6.0,78.0
11679,71.0,0,61,7.0,82.0
11680,71.0,0,57,5.0,82.0
11681,66.0,1,64,8.0,85.0
11682,50.0,1,60,10.0,87.0
11683,78.0,63,72,6.0,68.0
11684,78.0,4,70,4.0,100.0
11685,79.0,5,54,4.0,82.0
11686,79.0,56,73,6.0,72.0
11687,70.0,0,44,7.0,74.0
11688,70.0,53,48,5.0,70.0
11689,61.0,1,55,8.0,70.0
11690,54.0,3,54,10.0,76.0
11691,78.0,0,59,4.0,58.0
11692,78.0,1,70,6.0,62.0
11693,76.0,1,64,6.0,68.0
11694,76.0,56,66,4.0,80.0
11695,74.0,5,39,4.0,80.0
11696,66.0,55,54,7.0,82.0
11697,66.0,2,52,5.0,78.0
11698,59.0,3,46,10.0,87.0
11699,59.0,1,58,8.0,80.0
11700,74.0,1,58,6.0,62.0
11701,73.0,48,60,4.0,80.0
11702,73.0,6,63,6.0,68.0
11703,66.0,6,58,7.0,82.0
11704,62.0,0,59,8.0,85.0
11705,66.0,1,60,5.0,78.0
11706,71.0,55,69,4.0,64.0
11707,71.0,0,68,6.0,70.0
11708,54.0,1,73,10.0,80.0
11709,70.0,51,53,4.0,63.0
11710,70.0,8,45,6.0,68.0
11711,71.0,60,50,4.0,87.0
11712,71.0,1,49,6.0,93.0
11713,62.0,2,59,7.0,85.0
11714,55.0,0,56,10.0,82.0
11715,62.0,4,58,5.0,82.0
11716,59.0,1,69,8.0,82.0
11717,52.0,0,54,10.0,78.0
11718,73.0,2,46,4.0,80.0
11719,67.0,114,60,7.0,82.0
11720,67.0,3,58,5.0,85.0
11721,73.0,7,52,6.0,80.0
11722,64.0,1,52,8.0,89.0
11723,66.0,4,45,6.0,82.0
11724,66.0,3,43,4.0,78.0
11725,62.0,1,52,8.0,87.0
11726,66.0,0,57,5.0,74.0
11727,66.0,115,58,7.0,70.0
11728,54.0,2,52,10.0,98.0
11729,42.0,4,44,10.0,78.0
11730,66.0,0,52,7.0,82.0
11731,66.0,1,52,5.0,68.0
11732,70.0,5,46,4.0,80.0
11733,61.0,3,59,8.0,85.0
11734,70.0,108,80,6.0,82.0
11735,71.0,6,73,6.0,89.0
11736,71.0,2,105,4.0,80.0
11737,66.0,54,62,6.0,64.0
11738,66.0,114,147,5.0,91.0
11739,62.0,54,64,6.0,64.0
11740,66.0,56,63,6.0,78.0
11741,66.0,0,248,7.0,95.0
11742,62.0,4,251,8.0,87.0
11743,47.0,4,250,10.0,80.0
11744,71.0,63,68,6.0,70.0
11745,74.0,63,60,6.0,78.0
11746,66.0,51,53,7.0,53.0
11747,58.0,4,56,10.0,63.0
11748,61.0,1,49,8.0,72.0
11749,73.0,9,52,6.0,68.0
11750,76.0,43,51,6.0,78.0
11751,59.0,5,47,8.0,66.0
11752,66.0,1,59,7.0,58.0
11753,59.0,2,60,10.0,76.0
11754,74.0,65,73,6.0,93.0
11755,78.0,53,61,6.0,64.0
11756,67.0,57,48,7.0,74.0
11757,62.0,2,49,8.0,68.0
11758,55.0,3,51,10.0,70.0
11759,83.0,1,61,6.0,72.0
11760,74.0,50,37,6.0,57.0
11761,61.0,4,46,8.0,64.0
11762,52.0,3,52,10.0,62.0
11763,67.0,0,55,7.0,70.0
11764,73.0,60,65,6.0,66.0
11765,83.0,57,55,6.0,66.0
11766,66.0,55,51,7.0,63.0
11767,54.0,1,50,10.0,63.0
11768,73.0,1,51,6.0,59.0
11769,61.0,12,42,8.0,70.0
11770,82.0,43,46,6.0,59.0
11771,83.0,64,61,6.0,98.0
11772,78.0,31,66,6.0,59.0
11773,74.0,61,59,6.0,68.0
11774,78.0,57,60,6.0,60.0
11775,62.0,9,231,8.0,76.0
11776,66.0,8,249,7.0,74.0
11777,47.0,4,249,10.0,64.0
11778,71.0,60,55,6.0,74.0
11779,74.0,51,48,6.0,70.0
11780,59.0,8,48,10.0,60.0
11781,68.0,67,60,6.0,66.0
11782,73.0,1,51,7.0,57.0
11783,68.0,1,56,8.0,63.0
11784,77.0,43,48,6.0,78.0
11785,69.0,7,52,8.0,76.0
11786,57.0,1,60,10.0,64.0
11787,73.0,1,63,7.0,57.0
11788,78.0,71,70,6.0,85.0
11789,73.0,52,63,6.0,61.0
11790,62.0,3,51,10.0,78.0
11791,66.0,5,48,8.0,66.0
11792,74.0,2,51,7.0,76.0
11793,69.0,58,63,6.0,57.0
11794,73.0,46,55,6.0,52.0
11795,68.0,61,57,6.0,68.0
11796,74.0,4,50,7.0,68.0
11797,71.0,3,48,8.0,82.0
11798,59.0,7,55,10.0,64.0
11799,78.0,35,59,6.0,60.0
11800,68.0,62,56,6.0,82.0
11801,61.0,5,46,10.0,62.0
11802,71.0,2,45,8.0,78.0
11803,73.0,16,53,7.0,64.0
11804,77.0,39,45,6.0,72.0
11805,78.0,67,68,6.0,85.0
11806,54.0,8,93,10.0,52.0
11807,73.0,47,59,6.0,58.0
11808,69.0,58,64,6.0,59.0
11809,54.0,7,93,10.0,59.0
11810,73.0,52,49,6.0,58.0
11811,69.0,1,253,8.0,76.0
11812,73.0,1,260,7.0,63.0
11813,78.0,69,77,6.0,80.0
11814,54.0,4,77,10.0,57.0
11815,79.0,49,62,6.0,80.0
11816,81.0,1,47,6.0,85.0
11817,66.0,1,48,8.0,62.0
11818,54.0,64,53,10.0,43.0
11819,73.0,3,50,7.0,63.0
11820,78.0,56,40,6.0,53.0
11821,66.0,3,51,8.0,76.0
11822,69.0,60,57,7.0,60.0
11823,72.0,3,66,6.0,70.0
11824,71.0,53,66,6.0,62.0
11825,72.0,1,43,6.0,58.0
11826,69.0,0,44,7.0,46.0
11827,66.0,2,53,8.0,51.0
11828,81.0,58,28,6.0,57.0
11829,52.0,63,104,10.0,64.0
11830,72.0,62,72,6.0,70.0
11831,52.0,9,78,10.0,38.0
11832,71.0,44,68,6.0,66.0
11833,69.0,62,47,7.0,66.0
11834,66.0,10,41,8.0,60.0
11835,72.0,2,57,6.0,64.0
11836,52.0,1,55,10.0,39.0
11837,81.0,50,27,6.0,62.0
11838,66.0,3,57,8.0,78.0
11839,63.0,61,74,7.0,78.0
11840,71.0,1,75,6.0,82.0
11841,69.0,55,73,6.0,59.0
11842,66.0,5,48,8.0,57.0
11843,69.0,8,50,7.0,49.0
11844,71.0,58,75,6.0,61.0
11845,51.0,3,103,10.0,60.0
11846,73.0,48,80,6.0,59.0
11847,75.0,58,49,6.0,60.0
11848,51.0,5,92,10.0,47.0
11849,76.0,47,73,6.0,76.0
11850,66.0,14,44,8.0,68.0
11851,51.0,4,45,10.0,49.0
11852,78.0,59,66,6.0,52.0
11853,71.0,2,56,7.0,64.0
11854,79.0,41,53,6.0,72.0
11855,63.0,1,61,8.0,74.0
11856,81.0,1,63,6.0,98.0
11857,71.0,71,68,7.0,85.0
11858,78.0,51,72,6.0,64.0
11859,66.0,2,50,8.0,58.0
11860,75.0,63,57,6.0,76.0
11861,71.0,2,54,7.0,64.0
11862,47.0,1,95,10.0,68.0
11863,78.0,53,69,6.0,80.0
11864,71.0,59,48,6.0,66.0
11865,47.0,13,80,10.0,51.0
11866,81.0,41,78,6.0,87.0
11867,47.0,13,46,10.0,50.0
11868,79.0,60,59,6.0,68.0
11869,63.0,0,43,8.0,58.0
11870,71.0,5,51,7.0,63.0
11871,78.0,42,45,6.0,66.0
11872,64.0,12,57,8.0,87.0
11873,71.0,1,58,7.0,80.0
11874,79.0,60,82,6.0,85.0
11875,76.0,43,85,6.0,62.0
11876,67.0,0,50,8.0,59.0
11877,76.0,8,53,7.0,59.0
11878,71.0,63,70,6.0,68.0
11879,67.0,51,52,6.0,64.0
11880,52.0,1,104,10.0,82.0
11881,71.0,66,61,6.0,64.0
11882,52.0,7,94,10.0,62.0
11883,76.0,52,63,6.0,70.0
11884,52.0,6,44,10.0,53.0
11885,71.0,1,55,8.0,85.0
11886,76.0,0,55,7.0,78.0
11887,79.0,66,56,6.0,72.0
11888,81.0,49,37,6.0,72.0
11889,64.0,3,44,8.0,59.0
11890,71.0,3,58,7.0,76.0
11891,80.0,61,75,6.0,100.0
11892,78.0,50,66,6.0,58.0
11893,64.0,2,40,8.0,42.0
11894,80.0,4,59,6.0,56.0
11895,71.0,60,65,7.0,42.0
11896,83.0,60,40,6.0,60.0
11897,50.0,0,108,10.0,76.0
11898,80.0,59,77,6.0,87.0
11899,50.0,11,93,10.0,60.0
11900,78.0,45,92,6.0,55.0
11901,64.0,69,38,8.0,59.0
11902,80.0,1,52,6.0,68.0
11903,71.0,2,58,7.0,82.0
11904,50.0,6,61,10.0,53.0
11905,83.0,45,39,6.0,70.0
11906,64.0,63,58,8.0,76.0
11907,81.0,2,65,6.0,78.0
11908,73.0,5,62,7.0,70.0
11909,76.0,48,75,6.0,64.0
11910,69.0,58,55,8.0,60.0
11911,73.0,3,56,6.0,60.0
11912,76.0,5,62,7.0,58.0
11913,76.0,52,44,6.0,63.0
11914,49.0,0,106,10.0,72.0
11915,69.0,62,76,6.0,78.0
11916,49.0,6,95,10.0,51.0
11917,71.0,54,67,6.0,64.0
11918,69.0,0,47,8.0,70.0
11919,76.0,0,50,7.0,68.0
11920,73.0,64,54,6.0,58.0
11921,49.0,3,59,10.0,57.0
11922,74.0,51,64,6.0,66.0
11923,69.0,5,52,8.0,85.0
11924,73.0,7,63,7.0,72.0
11925,76.0,61,74,6.0,68.0
11926,78.0,49,62,6.0,60.0
11927,79.0,58,62,6.0,66.0
11928,64.0,2,52,8.0,55.0
11929,73.0,7,67,7.0,49.0
11930,81.0,48,44,6.0,68.0
11931,45.0,3,103,10.0,82.0
11932,79.0,63,65,6.0,93.0
11933,45.0,7,64,10.0,59.0
11934,78.0,49,55,6.0,80.0
11935,79.0,65,52,6.0,72.0
11936,69.0,7,41,8.0,70.0
11937,76.0,0,51,5.0,72.0
11938,45.0,2,54,10.0,27.0
11939,73.0,2,53,7.0,61.0
11940,79.0,0,57,4.0,68.0
11941,76.0,49,44,6.0,58.0
11942,74.0,1,51,7.0,68.0
11943,74.0,5,47,5.0,66.0
11944,78.0,0,78,6.0,95.0
11945,50.0,67,84,10.0,68.0
11946,69.0,0,90,8.0,70.0
11947,78.0,0,108,4.0,60.0
11948,74.0,56,53,6.0,70.0
11949,78.0,3,44,7.0,62.0
11950,69.0,3,54,5.0,63.0
11951,69.0,55,63,6.0,66.0
11952,62.0,2,62,10.0,76.0
11953,72.0,49,46,6.0,60.0
11954,55.0,3,41,10.0,61.0
11955,71.0,62,58,6.0,89.0
11956,71.0,5,76,5.0,66.0
11957,78.0,9,87,7.0,82.0
11958,74.0,44,53,6.0,63.0
11959,67.0,5,39,8.0,64.0
11960,67.0,47,64,6.0,55.0
11961,59.0,13,62,10.0,66.0
11962,78.0,6,57,4.0,62.0
11963,78.0,39,34,6.0,74.0
11964,67.0,2,55,8.0,70.0
11965,76.0,69,75,6.0,85.0
11966,49.0,3,82,10.0,80.0
11967,76.0,9,106,4.0,66.0
11968,73.0,44,75,6.0,59.0
11969,76.0,1,45,7.0,72.0
11970,71.0,11,45,5.0,68.0
11971,67.0,57,65,6.0,60.0
11972,61.0,7,72,10.0,63.0
11973,71.0,43,47,6.0,70.0
11974,69.0,57,56,6.0,80.0
11975,54.0,3,53,10.0,58.0
11976,69.0,10,78,5.0,64.0
11977,76.0,5,95,7.0,78.0
11978,73.0,40,75,6.0,50.0
11979,66.0,58,47,6.0,58.0
11980,66.0,4,36,8.0,70.0
11981,76.0,5,53,4.0,74.0
11982,57.0,6,61,10.0,61.0
11983,76.0,45,47,6.0,82.0
11984,74.0,65,76,6.0,82.0
11985,47.0,2,79,10.0,80.0
11986,66.0,5,93,8.0,66.0
11987,71.0,51,47,6.0,68.0
11988,74.0,5,132,4.0,66.0
11989,74.0,1,45,7.0,68.0
11990,69.0,3,52,5.0,70.0
11991,66.0,57,63,6.0,68.0
11992,59.0,5,65,10.0,74.0
11993,69.0,48,54,6.0,70.0
11994,52.0,3,52,10.0,63.0
11995,67.0,64,61,6.0,74.0
11996,67.0,3,59,5.0,70.0
11997,74.0,1,101,7.0,85.0
11998,71.0,49,58,6.0,70.0
11999,64.0,0,49,8.0,68.0
12000,64.0,62,54,6.0,63.0
12001,55.0,8,57,10.0,70.0
12002,74.0,2,59,4.0,80.0
12003,71.0,3,61,5.0,70.0
12004,74.0,48,34,6.0,82.0
12005,45.0,3,18,3.0,105.0
12006,45.0,26,19,3.0,105.0
12007,64.0,63,62,8.0,80.0
12008,69.0,4,61,5.0,76.0
12009,73.0,2,63,4.0,68.0
12010,73.0,3,77,6.0,93.0
12011,93.0,1,67,1.0,85.0
12012,81.0,1,71,2.0,102.0
12013,76.0,3,75,0.0,98.0
12014,45.0,11,20,3.0,80.0
12015,76.0,19,53,6.0,70.0
12016,45.0,27,18,3.0,98.0
12017,45.0,0,19,3.0,80.0
12018,69.0,19,44,6.0,56.0
12019,45.0,23,16,3.0,70.0
12020,67.0,0,52,8.0,70.0
12021,76.0,0,53,7.0,85.0
12022,76.0,1,50,4.0,72.0
12023,73.0,12,56,5.0,66.0
12024,45.0,6,18,3.0,76.0
12025,73.0,30,39,6.0,59.0
12026,45.0,21,16,3.0,64.0
12027,45.0,3,18,3.0,66.0
12028,45.0,14,15,3.0,60.0
12029,66.0,23,60,8.0,70.0
12030,74.0,3,54,4.0,80.0
12031,69.0,8,66,7.0,85.0
12032,69.0,3,59,5.0,80.0
12033,74.0,0,73,6.0,85.0
12034,86.0,1,68,1.0,91.0
12035,78.0,1,72,0.0,89.0
12036,81.0,5,66,2.0,110.0
12037,45.0,1,36,3.0,66.0
12038,78.0,32,55,6.0,66.0
12039,45.0,2,35,3.0,66.0
12040,69.0,4,48,6.0,63.0
12041,78.0,4,56,7.0,80.0
12042,78.0,0,56,4.0,70.0
12043,62.0,49,72,8.0,66.0
12044,74.0,7,58,5.0,74.0
12045,74.0,53,32,6.0,66.0
12046,45.0,3,33,3.0,74.0
12047,45.0,2,32,3.0,76.0
12048,76.0,0,56,4.0,76.0
12049,73.0,1,60,7.0,85.0
12050,73.0,0,59,5.0,62.0
12051,69.0,57,75,8.0,85.0
12052,76.0,1,72,6.0,89.0
12053,88.0,4,70,1.0,89.0
12054,79.0,0,76,0.0,98.0
12055,81.0,6,69,2.0,102.0
12056,45.0,46,43,3.0,80.0
12057,79.0,5,52,6.0,85.0
12058,45.0,0,18,3.0,78.0
12059,45.0,20,22,3.0,80.0
12060,69.0,4,55,6.0,60.0
12061,76.0,3,53,7.0,85.0
12062,76.0,3,57,5.0,78.0
12063,79.0,4,64,4.0,82.0
12064,45.0,30,15,3.0,62.0
12065,61.0,49,80,8.0,66.0
12066,76.0,1,31,6.0,70.0
12067,45.0,31,21,3.0,93.0
12068,45.0,2,14,3.0,60.0
12069,69.0,0,44,7.0,78.0
12070,62.0,26,61,8.0,72.0
12071,78.0,5,48,4.0,82.0
12072,74.0,2,56,5.0,72.0
12073,45.0,13,42,3.0,91.0
12074,78.0,5,72,6.0,102.0
12075,78.0,3,65,0.0,100.0
12076,86.0,1,77,1.0,87.0
12077,81.0,2,73,2.0,105.0
12078,81.0,32,50,6.0,76.0
12079,45.0,32,42,3.0,87.0
12080,66.0,8,52,8.0,72.0
12081,66.0,3,50,5.0,63.0
12082,69.0,5,49,7.0,80.0
12083,74.0,18,72,6.0,68.0
12084,81.0,5,55,4.0,80.0
12085,45.0,22,41,3.0,82.0
12086,78.0,15,37,6.0,62.0
12087,45.0,47,22,3.0,87.0
12088,45.0,4,17,3.0,51.0
12089,45.0,8,20,3.0,78.0
12090,69.0,0,65,5.0,70.0
12091,73.0,22,69,6.0,82.0
12092,73.0,4,60,4.0,70.0
12093,64.0,2,73,8.0,87.0
12094,76.0,0,69,0.0,91.0
12095,93.0,7,67,1.0,98.0
12096,45.0,14,19,3.0,68.0
12097,81.0,7,68,2.0,100.0
12098,76.0,21,55,6.0,66.0
12099,45.0,25,25,3.0,91.0
12100,45.0,3,20,3.0,80.0
12101,45.0,34,18,3.0,64.0
12102,76.0,1,54,4.0,74.0
12103,67.0,5,60,8.0,78.0
12104,69.0,23,71,6.0,63.0
12105,73.0,1,72,5.0,61.0
12106,45.0,17,19,3.0,72.0
12107,73.0,12,52,6.0,59.0
12108,45.0,33,18,3.0,74.0
12109,45.0,1,17,3.0,70.0
12110,61.0,5,52,8.0,80.0
12111,76.0,14,60,6.0,78.0
12112,45.0,28,18,3.0,80.0
12113,76.0,3,58,5.0,70.0
12114,69.0,3,67,4.0,70.0
12115,81.0,3,61,2.0,100.0
12116,88.0,4,68,1.0,87.0
12117,81.0,0,69,0.0,89.0
12118,45.0,19,19,3.0,72.0
12119,79.0,10,66,6.0,80.0
12120,45.0,2,19,3.0,80.0
12121,45.0,6,17,3.0,68.0
12122,57.0,11,58,8.0,78.0
12123,78.0,32,76,6.0,70.0
12124,81.0,5,64,5.0,78.0
12125,73.0,7,57,4.0,70.0
12126,45.0,3,22,3.0,91.0
12127,45.0,31,16,3.0,62.0
12128,76.0,30,56,6.0,78.0
12129,45.0,0,42,3.0,85.0
12130,69.0,4,526,7.0,87.0
12131,78.0,35,66,6.0,93.0
12132,78.0,0,64,5.0,70.0
12133,74.0,5,61,4.0,82.0
12134,81.0,3,58,2.0,93.0
12135,78.0,1,65,0.0,93.0
12136,86.0,6,80,1.0,80.0
12137,45.0,13,39,3.0,85.0
12138,74.0,32,64,6.0,70.0
12139,45.0,2,23,3.0,85.0
12140,78.0,3,51,7.0,74.0
12141,45.0,25,16,3.0,70.0
12142,71.0,52,61,6.0,80.0
12143,74.0,5,54,5.0,80.0
12144,71.0,7,54,4.0,76.0
12145,45.0,19,24,3.0,85.0
12146,45.0,35,15,3.0,57.0
12147,74.0,14,76,6.0,80.0
12148,45.0,4,20,3.0,80.0
12149,71.0,5,56,7.0,72.0
12150,68.0,7,63,6.0,98.0
12151,71.0,3,56,5.0,74.0
12152,45.0,3,20,3.0,64.0
12153,68.0,0,61,4.0,66.0
12154,86.0,9,69,1.0,89.0
12155,80.0,0,66,0.0,93.0
12156,74.0,5,75,2.0,98.0
12157,45.0,32,24,3.0,66.0
12158,78.0,27,66,6.0,64.0
12159,45.0,8,12,3.0,48.0
12160,80.0,2,37,7.0,87.0
12161,76.0,25,63,6.0,63.0
12162,80.0,6,49,5.0,78.0
12163,71.0,6,53,4.0,80.0
12164,45.0,17,38,3.0,82.0
12165,62.0,6,430,8.0,80.0
12166,74.0,21,41,6.0,64.0
12167,45.0,33,28,3.0,87.0
12168,45.0,3,22,3.0,102.0
12169,73.0,30,70,6.0,87.0
12170,81.0,7,58,2.0,100.0
12171,88.0,0,56,1.0,89.0
12172,45.0,0,1988,10.0,63.0
12173,81.0,5,79,0.0,87.0
12174,74.0,31,80,6.0,78.0
12175,81.0,2,144,5.0,80.0
12176,81.0,3,21,1.0,85.0
12177,73.0,1,142,4.0,82.0
12178,81.0,8,29,2.0,100.0
12179,69.0,0,29,0.0,82.0
12180,47.0,11,61,10.0,59.0
12181,73.0,63,74,6.0,63.0
12182,81.0,8,27,1.0,85.0
12183,81.0,4,29,2.0,87.0
12184,69.0,2,31,0.0,87.0
12185,71.0,35,63,6.0,68.0
12186,81.0,1,243,7.0,80.0
12187,64.0,5,262,8.0,63.0
12188,81.0,2,40,2.0,98.0
12189,81.0,6,42,1.0,89.0
12190,69.0,5,39,0.0,98.0
12191,49.0,2,51,10.0,64.0
12192,69.0,46,69,6.0,70.0
12193,67.0,43,63,6.0,63.0
12194,81.0,3,40,1.0,76.0
12195,69.0,2,41,0.0,85.0
12196,81.0,2,43,2.0,95.0
12197,66.0,66,57,6.0,54.0
12198,45.0,6,53,10.0,70.0
12199,64.0,48,30,6.0,74.0
12200,63.0,3,51,6.0,60.0
12201,69.0,43,72,6.0,66.0
12202,81.0,4,131,2.0,100.0
12203,81.0,1,134,1.0,87.0
12204,69.0,5,151,0.0,78.0
12205,69.0,67,178,7.0,57.0
12206,59.0,71,53,8.0,64.0
12207,71.0,1,66,6.0,66.0
12208,61.0,0,53,8.0,58.0
12209,69.0,51,58,6.0,64.0
12210,42.0,1,262,10.0,58.0
12211,63.0,8,49,8.0,60.0
12212,71.0,55,76,6.0,54.0
12213,69.0,50,82,6.0,57.0
12214,63.0,65,51,8.0,46.0
12215,71.0,5,59,6.0,62.0
12216,64.0,40,57,8.0,68.0
12217,69.0,9,60,6.0,60.0
12218,78.0,3,252,7.0,57.0
12219,66.0,62,67,8.0,68.0
12220,63.0,7,78,6.0,60.0
12221,69.0,36,69,6.0,64.0
12222,63.0,1,54,8.0,56.0
12223,71.0,58,85,6.0,59.0
12224,64.0,48,56,8.0,70.0
12225,69.0,21,69,6.0,61.0
12226,47.0,21,258,10.0,68.0
12227,66.0,45,52,8.0,70.0
12228,71.0,16,72,6.0,66.0
12229,69.0,57,73,6.0,60.0
12230,66.0,51,57,8.0,66.0
12231,71.0,14,64,6.0,63.0
12232,67.0,32,54,8.0,78.0
12233,69.0,22,46,6.0,60.0
12234,75.0,0,245,7.0,61.0
12235,69.0,53,59,8.0,80.0
12236,63.0,16,68,6.0,76.0
12237,69.0,53,79,6.0,78.0
12238,69.0,56,53,8.0,66.0
12239,47.0,0,57,10.0,76.0
12240,71.0,16,70,6.0,66.0
12241,68.0,29,50,8.0,57.0
12242,69.0,1,1200,5.0,48.0
12243,72.0,27,81,6.0,64.0
12244,51.0,7,49,10.0,74.0
12245,69.0,42,68,8.0,78.0
12246,71.0,3,57,6.0,62.0
12247,69.0,57,66,6.0,59.0
12248,47.0,2,51,10.0,82.0
12249,71.0,53,59,8.0,66.0
12250,68.0,2,72,6.0,59.0
12251,69.0,47,47,8.0,63.0
12252,66.0,0,212,5.0,54.0
12253,66.0,11,45,6.0,47.0
12254,71.0,6,242,7.0,66.0
12255,62.0,1,68,6.0,82.0
12256,68.0,48,69,6.0,59.0
12257,64.0,14,54,7.0,68.0
12258,71.0,60,75,6.0,54.0
12259,68.0,8,188,8.0,59.0
12260,66.0,41,53,7.0,62.0
12261,68.0,5,68,6.0,62.0
12262,52.0,2,259,10.0,66.0
12263,68.0,57,62,7.0,80.0
12264,71.0,4,68,6.0,63.0
12265,68.0,37,70,6.0,56.0
12266,68.0,1,51,7.0,57.0
12267,71.0,67,67,6.0,72.0
12268,68.0,0,36,6.0,63.0
12269,69.0,52,52,7.0,70.0
12270,64.0,17,244,8.0,59.0
12271,71.0,63,71,7.0,80.0
12272,62.0,3,72,6.0,64.0
12273,68.0,35,58,6.0,59.0
12274,68.0,11,56,7.0,63.0
12275,71.0,57,71,6.0,68.0
12276,69.0,12,59,7.0,68.0
12277,68.0,45,76,6.0,56.0
12278,40.0,20,250,10.0,70.0
12279,71.0,15,53,7.0,82.0
12280,71.0,50,78,6.0,68.0
12281,68.0,42,71,6.0,59.0
12282,71.0,21,55,7.0,68.0
12283,71.0,59,78,6.0,58.0
12284,68.0,36,46,6.0,58.0
12285,73.0,10,45,7.0,63.0
12286,68.0,1,265,8.0,55.0
12287,74.0,4,60,7.0,85.0
12288,62.0,58,72,6.0,68.0
12289,68.0,48,80,6.0,58.0
12290,74.0,8,56,7.0,68.0
12291,40.0,3,56,10.0,66.0
12292,71.0,64,81,6.0,82.0
12293,73.0,2,38,7.0,78.0
12294,74.0,0,1181,4.0,70.0
12295,69.0,44,77,6.0,74.0
12296,52.0,1,59,10.0,76.0
12297,68.0,56,76,6.0,64.0
12298,74.0,12,71,7.0,85.0
12299,66.0,30,64,6.0,57.0
12300,44.0,0,49,10.0,72.0
12301,64.0,67,64,6.0,63.0
12302,73.0,14,59,7.0,59.0
12303,62.0,39,38,6.0,68.0
12304,71.0,9,45,7.0,70.0
12305,68.0,62,1420,5.0,57.0
12306,71.0,3,225,4.0,60.0
12307,71.0,8,248,8.0,66.0
12308,61.0,65,64,6.0,87.0
12309,67.0,29,79,6.0,68.0
12310,73.0,6,180,7.0,57.0
12311,57.0,16,54,8.0,76.0
12312,69.0,67,70,6.0,62.0
12313,69.0,3,94,0.0,58.0
12314,59.0,15,56,8.0,66.0
12315,67.0,33,73,6.0,61.0
12316,45.0,4,238,10.0,76.0
12317,61.0,7,48,8.0,80.0
12318,69.0,53,73,6.0,63.0
12319,69.0,3,95,0.0,68.0
12320,67.0,40,73,6.0,60.0
12321,61.0,63,58,8.0,66.0
12322,69.0,2,67,6.0,60.0
12323,69.0,11,95,0.0,74.0
12324,62.0,39,56,8.0,78.0
12325,67.0,3,54,6.0,66.0
12326,76.0,9,255,7.0,70.0
12327,61.0,2,61,6.0,87.0
12328,64.0,68,73,8.0,85.0
12329,69.0,10,92,0.0,76.0
12330,67.0,35,77,6.0,74.0
12331,61.0,8,57,8.0,68.0
12332,69.0,68,71,6.0,60.0
12333,69.0,3,96,0.0,66.0
12334,81.0,3,89,1.0,82.0
12335,62.0,5,45,8.0,68.0
12336,67.0,42,62,6.0,68.0
12337,57.0,10,244,10.0,63.0
12338,64.0,10,59,8.0,82.0
12339,69.0,51,71,6.0,59.0
12340,69.0,1,88,0.0,70.0
12341,81.0,6,91,1.0,76.0
12342,67.0,37,75,6.0,66.0
12343,69.0,64,60,6.0,55.0
12344,64.0,4,59,8.0,78.0
12345,69.0,5,83,0.0,68.0
12346,67.0,34,50,6.0,66.0
12347,81.0,11,94,1.0,80.0
12348,66.0,17,57,8.0,74.0
12349,73.0,1,242,7.0,52.0
12350,67.0,1,54,8.0,89.0
12351,61.0,53,61,6.0,87.0
12352,69.0,4,98,0.0,78.0
12353,81.0,8,92,1.0,74.0
12354,67.0,38,91,6.0,74.0
12355,45.0,1,43,3.0,95.0
12356,45.0,2,59,10.0,68.0
12357,67.0,6,61,8.0,66.0
12358,69.0,71,81,6.0,70.0
12359,76.0,0,85,0.0,85.0
12360,81.0,1,75,1.0,70.0
12361,81.0,3,88,2.0,80.0
12362,67.0,8,1178,5.0,59.0
12363,66.0,48,56,8.0,66.0
12364,71.0,6,79,6.0,68.0
12365,45.0,1,44,3.0,98.0
12366,49.0,2,46,10.0,72.0
12367,67.0,1,64,8.0,82.0
12368,81.0,1,75,1.0,82.0
12369,76.0,53,85,0.0,85.0
12370,69.0,1,83,6.0,70.0
12371,81.0,0,92,2.0,80.0
12372,67.0,47,65,6.0,70.0
12373,45.0,1,36,3.0,91.0
12374,45.0,1,45,10.0,78.0
12375,66.0,2,60,6.0,55.0
12376,88.0,52,73,1.0,87.0
12377,69.0,2,60,8.0,70.0
12378,81.0,1,82,0.0,76.0
12379,64.0,2,30,6.0,68.0
12380,81.0,10,81,2.0,87.0
12381,67.0,44,45,8.0,64.0
12382,64.0,12,221,5.0,64.0
12383,69.0,0,234,7.0,66.0
12384,73.0,6,1445,4.0,58.0
12385,50.0,0,27,3.0,102.0
12386,50.0,17,20,3.0,85.0
12387,60.0,63,69,6.0,85.0
12388,50.0,13,24,3.0,80.0
12389,86.0,0,93,1.0,87.0
12390,78.0,1,95,0.0,89.0
12391,81.0,4,105,2.0,82.0
12392,50.0,34,16,3.0,98.0
12393,66.0,20,65,6.0,53.0
12394,50.0,3,19,3.0,63.0
12395,62.0,4,59,7.0,68.0
12396,69.0,14,68,6.0,58.0
12397,50.0,34,22,3.0,105.0
12398,66.0,0,192,8.0,64.0
12399,69.0,6,76,2.0,82.0
12400,74.0,2,80,1.0,82.0
12401,66.0,0,86,0.0,82.0
12402,50.0,27,14,3.0,58.0
12403,64.0,4,54,7.0,62.0
12404,66.0,5,65,6.0,57.0
12405,50.0,10,255,10.0,70.0
12406,50.0,30,43,3.0,85.0
12407,66.0,0,56,7.0,80.0
12408,69.0,2,64,6.0,64.0
12409,50.0,5,20,3.0,89.0
12410,69.0,3,95,2.0,85.0
12411,66.0,8,88,0.0,93.0
12412,74.0,4,85,1.0,98.0
12413,50.0,30,17,3.0,55.0
12414,66.0,29,71,6.0,59.0
12415,50.0,3,17,3.0,80.0
12416,50.0,18,22,3.0,66.0
12417,66.0,1,53,7.0,57.0
12418,69.0,31,67,6.0,64.0
12419,50.0,10,21,3.0,82.0
12420,69.0,0,81,0.0,82.0
12421,74.0,1,86,2.0,87.0
12422,78.0,6,80,1.0,85.0
12423,66.0,1,51,6.0,59.0
12424,67.0,23,53,7.0,80.0
12425,50.0,34,18,3.0,57.0
12426,62.0,9,239,8.0,60.0
12427,50.0,3,24,3.0,91.0
12428,50.0,15,23,3.0,72.0
12429,69.0,1,67,7.0,87.0
12430,60.0,23,76,6.0,78.0
12431,50.0,10,23,3.0,98.0
12432,69.0,1,89,0.0,80.0
12433,78.0,2,91,1.0,82.0
12434,74.0,1,95,2.0,89.0
12435,66.0,22,56,6.0,60.0
12436,50.0,31,22,3.0,91.0
12437,50.0,6,21,3.0,95.0
12438,66.0,1,54,7.0,61.0
12439,50.0,29,21,3.0,85.0
12440,69.0,20,67,6.0,63.0
12441,81.0,2,76,1.0,85.0
12442,78.0,0,82,2.0,89.0
12443,74.0,3,83,0.0,85.0
12444,50.0,16,18,3.0,78.0
12445,67.0,7,53,7.0,66.0
12446,66.0,11,65,6.0,53.0
12447,50.0,32,22,3.0,74.0
12448,38.0,15,238,10.0,68.0
12449,50.0,4,23,3.0,91.0
12450,69.0,7,52,7.0,85.0
12451,69.0,10,66,6.0,66.0
12452,50.0,3,18,3.0,72.0
12453,78.0,0,89,2.0,85.0
12454,74.0,2,91,0.0,87.0
12455,81.0,5,86,1.0,82.0
12456,50.0,28,21,3.0,93.0
12457,66.0,31,79,6.0,63.0
12458,50.0,32,18,3.0,78.0
12459,50.0,5,19,3.0,93.0
12460,69.0,1,54,7.0,82.0
12461,69.0,5,75,6.0,60.0
12462,50.0,4,21,3.0,80.0
12463,86.0,7,70,1.0,93.0
12464,78.0,2,78,0.0,89.0
12465,81.0,9,83,2.0,85.0
12466,50.0,18,18,3.0,59.0
12467,66.0,30,53,6.0,56.0
12468,71.0,9,44,7.0,80.0
12469,50.0,38,17,3.0,82.0
12470,66.0,2,258,8.0,62.0
12471,50.0,14,22,3.0,98.0
12472,72.0,3,54,7.0,80.0
12473,60.0,1,71,6.0,87.0
12474,86.0,4,68,1.0,93.0
12475,50.0,6,19,3.0,76.0
12476,78.0,1,85,0.0,85.0
12477,81.0,2,94,2.0,80.0
12478,72.0,2,1045,4.0,59.0
12479,50.0,29,23,3.0,100.0
12480,66.0,30,86,6.0,64.0
12481,50.0,0,17,3.0,72.0
12482,50.0,24,22,3.0,93.0
12483,72.0,3,50,7.0,68.0
12484,90.0,30,64,1.0,70.0
12485,50.0,2,67,10.0,91.0
12486,86.0,2,76,2.0,89.0
12487,69.0,0,77,6.0,76.0
12488,81.0,4,74,0.0,85.0
12489,50.0,9,23,3.0,80.0
12490,71.0,18,51,7.0,66.0
12491,69.0,0,110,4.0,58.0
12492,67.0,5,80,6.0,76.0
12493,50.0,36,50,3.0,82.0
12494,81.0,2,65,0.0,80.0
12495,72.0,6,67,7.0,78.0
12496,38.0,13,77,10.0,98.0
12497,90.0,0,76,1.0,95.0
12498,66.0,1,84,6.0,59.0
12499,50.0,31,40,3.0,95.0
12500,86.0,0,92,2.0,80.0
12501,66.0,3,101,4.0,68.0
12502,64.0,9,66,6.0,66.0
12503,50.0,51,39,3.0,85.0
12504,42.0,2,51,10.0,102.0
12505,71.0,4,47,7.0,60.0
12506,62.0,6,66,6.0,72.0
12507,69.0,10,170,8.0,70.0
12508,86.0,2,67,0.0,85.0
12509,93.0,1,70,1.0,85.0
12510,50.0,36,27,3.0,102.0
12511,90.0,5,86,2.0,82.0
12512,60.0,7,34,6.0,62.0
12513,66.0,2,1398,5.0,56.0
12514,69.0,3,39,7.0,74.0
12515,62.0,4,95,4.0,66.0
12516,50.0,52,28,3.0,102.0
12517,43.0,1,68,10.0,98.0
12518,59.0,10,72,6.0,82.0
12519,95.0,0,122,1.0,91.0
12520,91.0,1,124,2.0,87.0
12521,86.0,2,122,0.0,89.0
12522,55.0,31,80,6.0,76.0
12523,71.0,3,140,4.0,66.0
12524,62.0,2,159,5.0,60.0
12525,42.0,62,70,10.0,78.0
12526,57.0,4,66,6.0,74.0
12527,60.0,60,40,6.0,74.0
12528,71.0,0,249,7.0,64.0
12529,62.0,12,237,8.0,59.0
12530,59.0,59,63,6.0,85.0
12531,43.0,5,72,10.0,93.0
12532,62.0,51,37,6.0,66.0
12533,61.0,63,55,6.0,82.0
12534,45.0,9,59,10.0,91.0
12535,64.0,46,36,6.0,66.0
12536,47.0,4,62,10.0,95.0
12537,62.0,68,69,6.0,98.0
12538,59.0,52,77,6.0,87.0
12539,61.0,57,76,6.0,68.0
12540,45.0,11,67,10.0,68.0
12541,64.0,50,46,6.0,72.0
12542,62.0,64,69,6.0,85.0
12543,47.0,6,67,10.0,74.0
12544,66.0,45,55,6.0,68.0
12545,64.0,68,68,6.0,95.0
12546,49.0,7,67,10.0,78.0
12547,67.0,48,38,6.0,72.0
12548,66.0,66,77,6.0,100.0
12549,50.0,4,74,10.0,82.0
12550,62.0,54,71,6.0,82.0
12551,64.0,58,59,6.0,78.0
12552,49.0,7,66,10.0,62.0
12553,67.0,50,42,6.0,70.0
12554,66.0,62,68,6.0,82.0
12555,50.0,2,67,10.0,66.0
12556,69.0,53,40,6.0,72.0
12557,67.0,61,78,6.0,80.0
12558,52.0,7,72,10.0,82.0
12559,71.0,53,35,6.0,85.0
12560,69.0,65,75,6.0,98.0
12561,54.0,7,72,10.0,82.0
12562,62.0,50,69,6.0,76.0
12563,66.0,59,65,6.0,66.0
12564,52.0,6,80,10.0,60.0
12565,69.0,49,53,6.0,70.0
12566,74.0,10,61,6.0,89.0
12567,54.0,67,77,10.0,56.0
12568,78.0,58,61,6.0,68.0
12569,76.0,8,55,6.0,63.0
12570,55.0,54,84,10.0,80.0
12571,74.0,57,38,6.0,62.0
12572,73.0,58,75,6.0,100.0
12573,57.0,5,99,10.0,80.0
12574,45.0,3,46,3.0,85.0
12575,76.0,1,53,5.0,89.0
12576,69.0,2,53,6.0,61.0
12577,69.0,1,51,4.0,82.0
12578,76.0,1,54,7.0,85.0
12579,61.0,2,57,8.0,82.0
12580,57.0,119,95,10.0,74.0
12581,71.0,45,48,6.0,68.0
12582,71.0,4,61,4.0,82.0
12583,62.0,5,59,8.0,85.0
12584,73.0,53,57,6.0,91.0
12585,69.0,4,41,7.0,78.0
12586,45.0,0,50,3.0,100.0
12587,73.0,3,57,4.0,102.0
12588,69.0,2,53,5.0,82.0
12589,64.0,1,67,8.0,85.0
12590,93.0,1,90,0.0,105.0
12591,57.0,3,99,10.0,78.0
12592,88.0,0,100,1.0,98.0
12593,66.0,49,55,8.0,74.0
12594,81.0,2,124,2.0,95.0
12595,73.0,50,48,6.0,55.0
12596,45.0,3,45,3.0,102.0
12597,73.0,0,51,4.0,60.0
12598,64.0,3,61,8.0,74.0
12599,74.0,32,44,6.0,76.0
12600,57.0,8,88,10.0,70.0
12601,66.0,14,46,8.0,64.0
12602,74.0,3,49,4.0,85.0
12603,73.0,3,159,7.0,78.0
12604,45.0,1,43,3.0,107.0
12605,76.0,48,61,6.0,98.0
12606,73.0,2,170,5.0,89.0
12607,67.0,7,62,8.0,91.0
12608,93.0,1,64,0.0,95.0
12609,76.0,1,70,4.0,89.0
12610,88.0,4,79,1.0,95.0
12611,57.0,8,96,10.0,85.0
12612,81.0,1,86,2.0,105.0
12613,64.0,43,52,8.0,68.0
12614,76.0,0,38,7.0,85.0
12615,73.0,57,49,6.0,57.0
12616,45.0,9,37,3.0,105.0
12617,76.0,5,52,5.0,87.0
12618,57.0,5,68,8.0,56.0
12619,73.0,1,57,4.0,68.0
12620,57.0,4,91,10.0,68.0
12621,74.0,33,54,6.0,72.0
12622,59.0,13,56,8.0,70.0
12623,74.0,10,52,4.0,87.0
12624,67.0,5,44,7.0,70.0
12625,76.0,41,50,6.0,91.0
12626,45.0,1,39,3.0,107.0
12627,67.0,0,52,5.0,82.0
12628,61.0,3,62,8.0,76.0
12629,76.0,4,57,4.0,82.0
12630,57.0,0,74,10.0,76.0
12631,88.0,5,80,0.0,100.0
12632,93.0,0,87,1.0,89.0
12633,81.0,3,85,2.0,105.0
12634,62.0,47,44,8.0,68.0
12635,45.0,3,38,3.0,102.0
12636,76.0,3,45,4.0,74.0
12637,76.0,4,53,6.0,68.0
12638,61.0,0,56,8.0,72.0
12639,57.0,3,80,10.0,89.0
12640,78.0,3,44,4.0,82.0
12641,78.0,39,49,6.0,59.0
12642,62.0,1,47,8.0,68.0
12643,45.0,3,39,3.0,107.0
12644,73.0,56,176,7.0,80.0
12645,79.0,61,57,6.0,93.0
12646,79.0,2,63,4.0,95.0
12647,64.0,1,68,8.0,102.0
12648,73.0,4,182,5.0,82.0
12649,93.0,4,77,1.0,95.0
12650,88.0,1,87,0.0,95.0
12651,57.0,0,94,10.0,93.0
12652,81.0,2,93,2.0,102.0
12653,62.0,46,51,8.0,82.0
12654,79.0,3,41,4.0,80.0
12655,76.0,1,40,7.0,78.0
12656,45.0,3,42,3.0,105.0
12657,76.0,1,50,5.0,82.0
12658,79.0,3,56,6.0,85.0
12659,61.0,59,66,8.0,64.0
12660,52.0,0,80,10.0,80.0
12661,78.0,46,42,6.0,62.0
12662,78.0,0,47,4.0,102.0
12663,62.0,0,51,8.0,80.0
12664,45.0,2,38,3.0,107.0
12665,69.0,0,54,7.0,74.0
12666,79.0,2,60,6.0,85.0
12667,69.0,2,59,5.0,82.0
12668,64.0,1,70,8.0,87.0
12669,79.0,64,77,4.0,89.0
12670,49.0,1,77,10.0,74.0
12671,91.0,1,88,0.0,93.0
12672,88.0,1,82,1.0,93.0
12673,81.0,3,85,2.0,100.0
12674,62.0,47,70,8.0,70.0
12675,45.0,1,41,3.0,113.0
12676,61.0,55,57,8.0,63.0
12677,81.0,4,45,6.0,78.0
12678,73.0,2,58,5.0,78.0
12679,73.0,1,58,7.0,76.0
12680,45.0,8,71,10.0,87.0
12681,81.0,9,61,4.0,85.0
12682,59.0,33,48,8.0,64.0
12683,79.0,2,47,6.0,74.0
12684,79.0,17,45,4.0,89.0
12685,57.0,40,52,8.0,60.0
12686,78.0,11,53,6.0,87.0
12687,50.0,2,45,3.0,116.0
12688,78.0,0,63,4.0,100.0
12689,74.0,1,75,5.0,91.0
12690,81.0,0,84,2.0,85.0
12691,74.0,3,87,7.0,89.0
12692,90.0,5,95,0.0,100.0
12693,86.0,1,93,1.0,105.0
12694,50.0,0,98,10.0,68.0
12695,69.0,48,63,8.0,80.0
12696,81.0,2,40,6.0,85.0
12697,62.0,0,42,5.0,70.0
12698,66.0,55,63,8.0,66.0
12699,62.0,5,59,7.0,72.0
12700,81.0,6,47,4.0,87.0
12701,62.0,7,90,10.0,66.0
12702,64.0,0,45,7.0,72.0
12703,74.0,3,103,2.0,82.0
12704,64.0,9,42,5.0,66.0
12705,67.0,42,60,8.0,74.0
12706,74.0,53,41,6.0,82.0
12707,66.0,0,59,7.0,82.0
12708,74.0,5,48,4.0,85.0
12709,66.0,2,55,5.0,93.0
12710,69.0,1,74,8.0,82.0
12711,74.0,3,92,2.0,68.0
12712,71.0,49,39,8.0,82.0
12713,62.0,2,100,10.0,78.0
12714,66.0,5,42,7.0,57.0
12715,50.0,6,23,3.0,113.0
12716,66.0,1,49,5.0,63.0
12717,69.0,53,62,8.0,76.0
12718,71.0,0,38,8.0,66.0
12719,67.0,19,53,7.0,70.0
12720,74.0,4,90,2.0,85.0
12721,50.0,22,24,3.0,100.0
12722,67.0,9,47,5.0,74.0
12723,74.0,0,92,1.0,80.0
12724,62.0,1,95,10.0,82.0
12725,50.0,2,34,3.0,105.0
12726,78.0,2,163,6.0,91.0
12727,69.0,41,67,7.0,89.0
12728,78.0,8,168,4.0,93.0
12729,72.0,5,76,8.0,78.0
12730,69.0,1,71,5.0,91.0
12731,69.0,46,40,8.0,80.0
12732,74.0,5,95,1.0,80.0
12733,74.0,3,88,2.0,87.0
12734,62.0,3,104,10.0,89.0
12735,81.0,0,42,6.0,85.0
12736,66.0,3,51,7.0,56.0
12737,81.0,1,49,4.0,87.0
12738,62.0,56,69,8.0,54.0
12739,66.0,5,54,5.0,80.0
12740,74.0,7,90,1.0,80.0
12741,74.0,1,87,2.0,82.0
12742,62.0,2,95,10.0,78.0
12743,67.0,33,55,7.0,74.0
12744,74.0,1,96,0.0,87.0
12745,64.0,9,60,8.0,70.0
12746,67.0,15,57,5.0,70.0
12747,72.0,3,38,6.0,82.0
12748,69.0,39,54,7.0,87.0
12749,72.0,2,44,4.0,82.0
12750,66.0,7,58,8.0,78.0
12751,69.0,3,53,5.0,85.0
12752,62.0,2,86,10.0,82.0
12753,74.0,1,90,1.0,93.0
12754,67.0,32,53,8.0,68.0
12755,74.0,3,88,2.0,89.0
12756,74.0,3,101,0.0,85.0
12757,50.0,9,28,3.0,119.0
12758,66.0,65,62,8.0,63.0
12759,69.0,4,50,7.0,80.0
12760,69.0,3,50,5.0,82.0
12761,62.0,8,89,10.0,85.0
12762,74.0,3,85,1.0,89.0
12763,74.0,0,82,2.0,74.0
12764,67.0,27,50,8.0,74.0
12765,50.0,7,26,3.0,95.0
12766,71.0,11,42,7.0,80.0
12767,74.0,1,93,0.0,85.0
12768,71.0,7,57,5.0,80.0
12769,78.0,1,153,6.0,82.0
12770,50.0,3,31,3.0,107.0
12771,78.0,0,163,4.0,93.0
12772,72.0,6,61,7.0,95.0
12773,72.0,2,56,5.0,87.0
12774,69.0,41,72,8.0,98.0
12775,74.0,1,85,2.0,87.0
12776,74.0,1,85,1.0,91.0
12777,74.0,0,86,0.0,82.0
12778,67.0,40,50,8.0,78.0
12779,62.0,4,99,10.0,93.0
12780,81.0,4,35,6.0,85.0
12781,50.0,1,36,3.0,107.0
12782,72.0,0,45,5.0,82.0
12783,72.0,6,50,7.0,78.0
12784,81.0,2,38,4.0,87.0
12785,66.0,62,71,8.0,74.0
12786,93.0,3,72,0.0,100.0
12787,86.0,0,79,2.0,93.0
12788,57.0,0,91,10.0,85.0
12789,67.0,36,50,8.0,80.0
12790,90.0,4,92,1.0,91.0
12791,71.0,4,48,7.0,61.0
12792,71.0,3,48,5.0,76.0
12793,74.0,0,43,6.0,80.0
12794,50.0,7,40,3.0,110.0
12795,74.0,1,46,4.0,85.0
12796,72.0,1,62,7.0,78.0
12797,69.0,64,72,8.0,91.0
12798,72.0,1,71,5.0,80.0
12799,98.0,0,71,0.0,98.0
12800,81.0,0,83,2.0,89.0
12801,54.0,0,85,10.0,68.0
12802,86.0,1,93,1.0,89.0
12803,67.0,48,75,8.0,76.0
12804,74.0,1,45,7.0,70.0
12805,74.0,2,44,5.0,78.0
12806,50.0,3,37,3.0,113.0
12807,78.0,62,50,6.0,72.0
12808,78.0,1,58,4.0,66.0
12809,66.0,0,66,8.0,70.0
12810,50.0,0,72,10.0,78.0
12811,93.0,3,68,0.0,87.0
12812,86.0,0,74,2.0,91.0
12813,90.0,0,78,1.0,93.0
12814,72.0,43,45,7.0,64.0
12815,64.0,3,45,8.0,74.0
12816,72.0,5,49,5.0,80.0
12817,62.0,1,43,8.0,74.0
12818,79.0,2,47,6.0,82.0
12819,50.0,0,40,3.0,122.0
12820,79.0,2,50,4.0,85.0
12821,71.0,0,65,7.0,87.0
12822,71.0,3,62,5.0,87.0
12823,55.0,2,97,10.0,70.0
12824,59.0,40,57,8.0,59.0
12825,91.0,56,119,1.0,93.0
12826,86.0,0,114,2.0,102.0
12827,95.0,4,114,0.0,113.0
12828,83.0,4,40,6.0,82.0
12829,83.0,3,46,4.0,87.0
12830,67.0,0,48,5.0,80.0
12831,64.0,67,61,8.0,80.0
12832,67.0,3,52,7.0,70.0
12833,69.0,3,48,7.0,64.0
12834,64.0,1,104,10.0,80.0
12835,66.0,48,63,8.0,72.0
12836,69.0,15,55,5.0,68.0
12837,74.0,1,41,6.0,85.0
12838,74.0,3,44,4.0,85.0
12839,71.0,2,52,7.0,85.0
12840,71.0,2,60,5.0,85.0
12841,68.0,45,75,8.0,64.0
12842,69.0,48,42,8.0,80.0
12843,64.0,3,95,10.0,85.0
12844,68.0,56,55,8.0,63.0
12845,71.0,0,66,7.0,74.0
12846,71.0,0,64,5.0,78.0
12847,69.0,1,40,8.0,76.0
12848,64.0,5,87,10.0,87.0
12849,73.0,42,46,7.0,72.0
12850,73.0,6,47,5.0,82.0
12851,80.0,9,155,6.0,87.0
12852,80.0,3,158,4.0,95.0
12853,74.0,1,64,7.0,89.0
12854,71.0,56,66,8.0,100.0
12855,74.0,9,61,5.0,93.0
12856,69.0,42,52,8.0,78.0
12857,64.0,3,95,10.0,95.0
12858,83.0,2,40,6.0,82.0
12859,74.0,1,48,5.0,80.0
12860,74.0,2,53,7.0,80.0
12861,68.0,66,55,8.0,80.0
12862,83.0,3,50,4.0,89.0
12863,59.0,2,86,10.0,85.0
12864,69.0,0,46,8.0,76.0
12865,73.0,45,48,7.0,63.0
12866,73.0,5,50,5.0,87.0
12867,76.0,1,50,6.0,78.0
12868,76.0,3,53,4.0,82.0
12869,74.0,1,62,5.0,87.0
12870,71.0,61,71,8.0,91.0
12871,74.0,2,71,7.0,87.0
12872,56.0,4,94,10.0,68.0
12873,69.0,44,63,8.0,72.0
12874,80.0,1,39,4.0,87.0
12875,68.0,60,54,8.0,87.0
12876,76.0,2,54,7.0,82.0
12877,80.0,6,45,6.0,85.0
12878,76.0,3,67,5.0,87.0
12879,52.0,3,64,10.0,80.0
12880,74.0,0,34,7.0,78.0
12881,74.0,5,43,5.0,82.0
12882,66.0,42,61,8.0,76.0
12883,73.0,62,54,5.0,87.0
12884,81.0,1,59,4.0,82.0
12885,73.0,0,62,7.0,98.0
12886,81.0,3,62,6.0,82.0
12887,64.0,5,67,8.0,85.0
12888,76.0,49,44,4.0,72.0
12889,76.0,7,44,6.0,80.0
12890,76.0,3,43,7.0,89.0
12891,76.0,1,42,5.0,85.0
12892,73.0,54,53,4.0,85.0
12893,73.0,7,52,6.0,62.0
12894,57.0,2,57,8.0,68.0
12895,74.0,3,47,6.0,66.0
12896,74.0,40,55,4.0,70.0
12897,59.0,11,52,8.0,78.0
12898,57.0,0,244,10.0,82.0
12899,69.0,0,46,5.0,78.0
12900,76.0,49,57,6.0,62.0
12901,69.0,4,44,7.0,76.0
12902,76.0,8,55,4.0,76.0
12903,61.0,3,64,8.0,89.0
12904,78.0,40,57,6.0,63.0
12905,78.0,8,54,4.0,68.0
12906,61.0,6,57,8.0,80.0
12907,76.0,57,70,6.0,54.0
12908,76.0,6,75,4.0,63.0
12909,78.0,42,48,6.0,58.0
12910,62.0,4,46,8.0,80.0
12911,78.0,0,52,4.0,74.0
12912,73.0,1,156,7.0,85.0
12913,79.0,2,62,6.0,91.0
12914,73.0,3,174,5.0,82.0
12915,79.0,6,62,4.0,87.0
12916,64.0,63,75,8.0,87.0
12917,76.0,32,46,6.0,68.0
12918,76.0,13,44,4.0,72.0
12919,76.0,1,38,7.0,82.0
12920,76.0,0,52,5.0,82.0
12921,61.0,6,56,8.0,72.0
12922,69.0,49,67,6.0,53.0
12923,69.0,4,64,4.0,72.0
12924,62.0,2,47,8.0,70.0
12925,71.0,43,52,6.0,57.0
12926,71.0,11,47,4.0,66.0
12927,45.0,12,239,10.0,74.0
12928,67.0,1,44,7.0,68.0
12929,67.0,1,47,5.0,78.0
12930,73.0,6,50,4.0,80.0
12931,64.0,53,62,8.0,87.0
12932,73.0,2,60,6.0,64.0
12933,74.0,41,48,6.0,70.0
12934,74.0,8,44,4.0,70.0
12935,73.0,50,57,6.0,53.0
12936,73.0,17,53,4.0,85.0
12937,64.0,4,54,8.0,80.0
12938,74.0,36,44,6.0,66.0
12939,66.0,8,46,8.0,78.0
12940,74.0,1,50,4.0,72.0
12941,73.0,0,157,7.0,85.0
12942,76.0,56,64,6.0,93.0
12943,67.0,3,72,8.0,87.0
12944,76.0,6,60,4.0,91.0
12945,73.0,4,192,5.0,85.0
12946,74.0,35,60,6.0,70.0
12947,74.0,18,50,4.0,70.0
12948,67.0,10,41,8.0,76.0
12949,76.0,2,41,7.0,85.0
12950,73.0,47,61,6.0,49.0
12951,76.0,11,43,5.0,87.0
12952,73.0,4,55,4.0,56.0
12953,66.0,31,38,8.0,66.0
12954,74.0,0,42,6.0,63.0
12955,74.0,16,44,4.0,72.0
12956,57.0,7,250,10.0,74.0
12957,69.0,0,57,7.0,74.0
12958,76.0,5,66,6.0,93.0
12959,69.0,15,57,5.0,74.0
12960,76.0,2,59,4.0,93.0
12961,67.0,45,84,8.0,89.0
12962,74.0,35,74,6.0,66.0
12963,74.0,19,55,4.0,74.0
12964,69.0,46,41,8.0,80.0
12965,73.0,2,41,7.0,80.0
12966,73.0,5,39,5.0,78.0
12967,73.0,2,67,6.0,51.0
12968,73.0,6,59,4.0,62.0
12969,67.0,39,44,8.0,80.0
12970,71.0,1,59,4.0,61.0
12971,71.0,12,65,6.0,60.0
12972,66.0,50,47,8.0,85.0
12973,74.0,0,51,5.0,76.0
12974,69.0,13,55,4.0,72.0
12975,69.0,2,53,6.0,70.0
12976,74.0,1,57,7.0,82.0
12977,69.0,1,42,5.0,87.0
12978,69.0,52,48,7.0,85.0
12979,74.0,3,70,4.0,85.0
12980,74.0,4,71,6.0,85.0
12981,69.0,5,38,8.0,82.0
12982,66.0,4,54,5.0,80.0
12983,66.0,46,62,7.0,64.0
12984,73.0,1,70,4.0,85.0
12985,50.0,10,52,10.0,85.0
12986,73.0,0,78,6.0,70.0
12987,67.0,36,44,7.0,70.0
12988,67.0,6,43,5.0,66.0
12989,71.0,2,53,6.0,76.0
12990,71.0,0,59,4.0,80.0
12991,52.0,4,70,10.0,80.0
12992,69.0,0,57,5.0,76.0
12993,69.0,0,60,7.0,87.0
12994,54.0,3,57,10.0,95.0
12995,62.0,8,50,8.0,87.0
12996,69.0,49,67,6.0,66.0
12997,69.0,5,63,4.0,72.0
12998,71.0,40,49,7.0,74.0
12999,67.0,6,57,6.0,64.0
13000,71.0,7,50,5.0,87.0
13001,67.0,0,60,4.0,63.0
13002,66.0,1,52,6.0,55.0
13003,69.0,51,55,7.0,82.0
13004,69.0,2,48,5.0,64.0
13005,54.0,4,50,10.0,60.0
13006,66.0,4,54,4.0,64.0
13007,64.0,45,42,6.0,64.0
13008,71.0,1,48,7.0,57.0
13009,64.0,3,45,4.0,80.0
13010,71.0,7,38,5.0,64.0
13011,55.0,1,52,10.0,80.0
13012,66.0,1,174,8.0,82.0
13013,72.0,2,56,7.0,98.0
13014,72.0,4,56,5.0,85.0
13015,57.0,0,69,10.0,93.0
13016,62.0,5,73,4.0,68.0
13017,62.0,54,80,6.0,68.0
13018,69.0,5,35,5.0,70.0
13019,69.0,46,48,7.0,74.0
13020,62.0,1,57,5.0,82.0
13021,62.0,61,61,7.0,64.0
13022,69.0,3,51,8.0,89.0
13023,54.0,7,56,10.0,58.0
13024,64.0,7,42,5.0,64.0
13025,86.0,3,90,0.0,85.0
13026,74.0,0,92,4.0,62.0
13027,64.0,38,55,7.0,61.0
13028,74.0,2,94,6.0,60.0
13029,55.0,3,61,10.0,80.0
13030,66.0,0,52,5.0,85.0
13031,66.0,55,64,7.0,68.0
13032,57.0,4,62,10.0,87.0
13033,60.0,2,62,8.0,80.0
13034,86.0,6,93,0.0,87.0
13035,67.0,4,44,5.0,72.0
13036,74.0,5,91,6.0,60.0
13037,74.0,2,100,4.0,78.0
13038,67.0,37,61,7.0,64.0
13039,66.0,3,47,5.0,89.0
13040,66.0,60,66,7.0,82.0
13041,57.0,12,55,10.0,85.0
13042,86.0,1,82,0.0,87.0
13043,59.0,38,45,10.0,82.0
13044,67.0,1,45,5.0,72.0
13045,67.0,2,43,7.0,85.0
13046,74.0,1,98,6.0,66.0
13047,74.0,3,100,4.0,78.0
13048,66.0,4,159,8.0,85.0
13049,69.0,7,58,5.0,95.0
13050,60.0,61,71,10.0,89.0
13051,69.0,0,64,7.0,100.0
13052,74.0,5,91,4.0,76.0
13053,86.0,4,98,0.0,95.0
13054,74.0,0,100,6.0,64.0
13055,67.0,42,56,7.0,85.0
13056,67.0,4,53,5.0,72.0
13057,66.0,56,52,7.0,78.0
13058,60.0,6,55,10.0,78.0
13059,69.0,1,46,8.0,85.0
13060,66.0,3,58,5.0,70.0
13061,50.0,5,45,3.0,119.0
13062,90.0,0,80,0.0,93.0
13063,81.0,4,92,2.0,89.0
13064,86.0,0,93,1.0,93.0
13065,59.0,36,48,10.0,80.0
13066,74.0,0,99,4.0,82.0
13067,67.0,2,53,7.0,63.0
13068,74.0,4,97,6.0,60.0
13069,67.0,4,51,5.0,68.0
13070,60.0,58,61,10.0,95.0
13071,50.0,4,40,3.0,110.0
13072,69.0,0,67,7.0,80.0
13073,69.0,1,61,5.0,98.0
13074,62.0,2,61,8.0,78.0
13075,90.0,2,85,0.0,85.0
13076,81.0,4,90,2.0,82.0
13077,86.0,4,89,1.0,87.0
13078,74.0,6,95,6.0,60.0
13079,74.0,0,97,4.0,78.0
13080,67.0,38,61,7.0,72.0
13081,67.0,6,60,5.0,70.0
13082,50.0,1,40,3.0,105.0
13083,66.0,1,50,8.0,80.0
13084,66.0,53,66,7.0,57.0
13085,66.0,1,54,5.0,85.0
13086,62.0,0,64,10.0,87.0
13087,93.0,2,80,0.0,91.0
13088,86.0,3,84,1.0,98.0
13089,74.0,1,84,6.0,64.0
13090,78.0,6,94,2.0,85.0
13091,74.0,2,100,4.0,78.0
13092,64.0,49,50,7.0,66.0
13093,60.0,3,48,10.0,78.0
13094,64.0,0,51,5.0,80.0
13095,67.0,1,50,8.0,85.0
13096,50.0,0,56,3.0,122.0
13097,62.0,3,68,5.0,78.0
13098,59.0,0,68,10.0,87.0
13099,62.0,1,67,7.0,68.0
13100,74.0,60,94,6.0,68.0
13101,74.0,0,86,4.0,82.0
13102,71.0,48,47,8.0,82.0
13103,91.0,1,125,0.0,113.0
13104,86.0,2,128,1.0,107.0
13105,74.0,1,135,2.0,105.0
13106,68.0,4,53,8.0,80.0
13107,71.0,1,41,7.0,89.0
13108,71.0,2,45,5.0,87.0
13109,52.0,3,56,10.0,66.0
13110,69.0,38,46,8.0,63.0
13111,76.0,57,103,6.0,62.0
13112,54.0,6,45,10.0,64.0
13113,76.0,9,98,4.0,85.0
13114,64.0,3,40,7.0,85.0
13115,56.0,59,62,10.0,95.0
13116,64.0,1,49,5.0,87.0
13117,71.0,3,69,8.0,82.0
13118,73.0,39,48,8.0,78.0
13119,76.0,2,100,6.0,70.0
13120,76.0,7,105,4.0,85.0
13121,56.0,3,50,10.0,78.0
13122,71.0,61,83,8.0,76.0
13123,76.0,15,89,6.0,68.0
13124,57.0,6,45,10.0,82.0
13125,73.0,30,52,8.0,82.0
13126,76.0,8,93,4.0,85.0
13127,68.0,0,163,7.0,91.0
13128,68.0,1,175,5.0,87.0
13129,74.0,2,72,8.0,91.0
13130,59.0,63,76,10.0,98.0
13131,76.0,2,96,6.0,66.0
13132,71.0,42,52,8.0,63.0
13133,76.0,13,100,4.0,85.0
13134,71.0,2,47,7.0,87.0
13135,56.0,3,52,10.0,76.0
13136,64.0,60,70,8.0,72.0
13137,71.0,4,63,5.0,85.0
13138,88.0,1,88,0.0,87.0
13139,76.0,3,97,6.0,64.0
13140,57.0,39,51,10.0,70.0
13141,66.0,1,52,8.0,63.0
13142,76.0,6,100,4.0,78.0
13143,68.0,58,61,8.0,76.0
13144,62.0,4,52,7.0,80.0
13145,62.0,2,49,5.0,82.0
13146,59.0,6,77,10.0,82.0
13147,76.0,1,92,6.0,68.0
13148,88.0,1,91,0.0,95.0
13149,69.0,37,46,8.0,78.0
13150,76.0,6,95,4.0,82.0
13151,68.0,63,57,8.0,78.0
13152,59.0,4,53,10.0,70.0
13153,88.0,1,80,0.0,87.0
13154,76.0,4,98,6.0,66.0
13155,76.0,6,87,4.0,82.0
13156,61.0,38,48,10.0,70.0
13157,69.0,4,58,8.0,68.0
13158,68.0,2,176,5.0,91.0
13159,68.0,0,177,7.0,87.0
13160,62.0,60,71,10.0,93.0
13161,71.0,3,67,8.0,87.0
13162,76.0,5,95,6.0,74.0
13163,76.0,1,88,4.0,82.0
13164,88.0,8,95,0.0,93.0
13165,69.0,50,51,8.0,80.0
13166,71.0,2,41,7.0,87.0
13167,50.0,4,43,3.0,110.0
13168,68.0,1,55,8.0,63.0
13169,71.0,0,46,5.0,82.0
13170,62.0,1,60,10.0,80.0
13171,76.0,55,92,6.0,76.0
13172,92.0,6,88,0.0,82.0
13173,76.0,0,86,4.0,89.0
13174,88.0,0,88,1.0,102.0
13175,74.0,1,88,2.0,98.0
13176,61.0,39,50,10.0,70.0
13177,69.0,7,50,8.0,68.0
13178,50.0,1,45,3.0,107.0
13179,64.0,1,60,7.0,78.0
13180,64.0,2,61,5.0,80.0
13181,71.0,1,65,8.0,95.0
13182,62.0,58,79,10.0,82.0
13183,88.0,1,83,1.0,93.0
13184,74.0,1,85,2.0,95.0
13185,76.0,3,93,4.0,82.0
13186,92.0,2,85,0.0,93.0
13187,76.0,2,92,6.0,66.0
13188,69.0,49,58,8.0,78.0
13189,68.0,2,34,5.0,78.0
13190,68.0,2,38,7.0,85.0
13191,50.0,1,39,3.0,110.0
13192,68.0,58,54,8.0,57.0
13193,64.0,1,69,10.0,85.0
13194,88.0,3,72,1.0,105.0
13195,76.0,0,84,4.0,89.0
13196,76.0,1,84,6.0,76.0
13197,95.0,4,80,0.0,89.0
13198,74.0,0,95,2.0,100.0
13199,66.0,1,46,8.0,66.0
13200,62.0,41,53,10.0,82.0
13201,69.0,5,53,7.0,80.0
13202,69.0,1,59,5.0,76.0
13203,61.0,0,65,10.0,78.0
13204,76.0,64,74,6.0,89.0
13205,45.0,6,58,3.0,122.0
13206,76.0,2,84,4.0,95.0
13207,64.0,3,89,8.0,66.0
13208,81.0,2,41,7.0,91.0
13209,81.0,43,43,5.0,85.0
13210,81.0,3,120,2.0,110.0
13211,93.0,1,126,0.0,107.0
13212,88.0,0,126,1.0,107.0
13213,69.0,0,53,4.0,78.0
13214,64.0,3,54,10.0,85.0
13215,69.0,0,57,6.0,70.0
13216,73.0,2,63,7.0,63.0
13217,73.0,1,68,5.0,74.0
13218,71.0,44,45,6.0,68.0
13219,74.0,0,45,7.0,70.0
13220,71.0,3,45,4.0,80.0
13221,69.0,58,105,8.0,62.0
13222,74.0,12,42,5.0,80.0
13223,73.0,46,56,6.0,82.0
13224,76.0,1,57,7.0,82.0
13225,57.0,1,51,10.0,76.0
13226,73.0,7,68,4.0,95.0
13227,76.0,5,69,5.0,82.0
13228,78.0,41,35,7.0,61.0
13229,69.0,3,96,8.0,70.0
13230,78.0,16,46,5.0,82.0
13231,73.0,2,60,6.0,56.0
13232,73.0,5,50,4.0,58.0
13233,76.0,42,71,7.0,85.0
13234,76.0,0,72,5.0,78.0
13235,69.0,10,81,8.0,66.0
13236,78.0,0,44,7.0,85.0
13237,74.0,38,45,6.0,74.0
13238,74.0,0,43,4.0,80.0
13239,78.0,13,44,5.0,70.0
13240,79.0,52,60,7.0,93.0
13241,76.0,0,65,6.0,87.0
13242,79.0,1,62,5.0,91.0
13243,76.0,9,65,4.0,89.0
13244,61.0,1,189,10.0,80.0
13245,76.0,40,46,7.0,78.0
13246,69.0,2,106,8.0,82.0
13247,76.0,16,46,5.0,78.0
13248,73.0,1,50,6.0,57.0
13249,64.0,2,53,10.0,85.0
13250,73.0,1,52,4.0,60.0
13251,69.0,43,71,7.0,63.0
13252,69.0,4,63,5.0,59.0
13253,69.0,13,89,8.0,72.0
13254,74.0,5,48,6.0,76.0
13255,74.0,7,46,4.0,70.0
13256,71.0,3,51,5.0,78.0
13257,71.0,40,66,7.0,58.0
13258,73.0,41,63,7.0,52.0
13259,76.0,6,52,6.0,80.0
13260,76.0,6,47,4.0,80.0
13261,55.0,4,53,10.0,78.0
13262,73.0,4,59,5.0,82.0
13263,69.0,7,97,8.0,80.0
13264,74.0,23,60,7.0,85.0
13265,74.0,24,58,5.0,78.0
13266,73.0,41,64,7.0,74.0
13267,76.0,7,56,4.0,66.0
13268,73.0,12,63,5.0,87.0
13269,76.0,3,60,6.0,74.0
13270,69.0,7,89,8.0,68.0
13271,74.0,24,42,7.0,72.0
13272,78.0,15,41,4.0,60.0
13273,74.0,0,42,5.0,78.0
13274,78.0,4,43,6.0,60.0
13275,76.0,3,67,7.0,102.0
13276,79.0,10,61,4.0,89.0
13277,76.0,3,62,5.0,100.0
13278,61.0,9,165,10.0,70.0
13279,79.0,7,59,6.0,89.0
13280,69.0,43,95,8.0,78.0
13281,74.0,37,63,7.0,72.0
13282,74.0,13,55,5.0,74.0
13283,79.0,3,41,4.0,85.0
13284,79.0,2,40,6.0,74.0
13285,64.0,9,52,10.0,87.0
13286,73.0,0,61,5.0,70.0
13287,73.0,3,74,7.0,49.0
13288,69.0,55,81,8.0,85.0
13289,78.0,1,39,4.0,82.0
13290,78.0,41,50,6.0,60.0
13291,74.0,1,41,7.0,68.0
13292,74.0,10,51,5.0,76.0
13293,79.0,54,67,4.0,82.0
13294,57.0,1,60,10.0,85.0
13295,76.0,2,62,5.0,93.0
13296,79.0,2,71,6.0,87.0
13297,76.0,2,69,7.0,105.0
13298,69.0,7,91,8.0,89.0
13299,74.0,52,62,7.0,82.0
13300,74.0,3,66,5.0,78.0
13301,73.0,55,58,7.0,64.0
13302,81.0,0,53,6.0,82.0
13303,73.0,1,56,5.0,82.0
13304,61.0,2,58,10.0,82.0
13305,81.0,14,52,4.0,89.0
13306,69.0,5,78,8.0,85.0
13307,79.0,1,39,6.0,76.0
13308,79.0,15,35,4.0,82.0
13309,71.0,35,61,7.0,68.0
13310,71.0,3,57,5.0,82.0
13311,69.0,1,61,5.0,78.0
13312,69.0,4,68,7.0,85.0
13313,50.0,1,69,10.0,93.0
13314,69.0,0,82,8.0,95.0
13315,78.0,45,91,6.0,89.0
13316,78.0,4,91,4.0,85.0
13317,78.0,2,34,6.0,68.0
13318,78.0,11,25,4.0,78.0
13319,66.0,1,39,5.0,76.0
13320,66.0,3,48,7.0,72.0
13321,62.0,112,59,8.0,82.0
13322,62.0,2,65,10.0,87.0
13323,76.0,33,39,6.0,76.0
13324,76.0,12,37,4.0,80.0
13325,64.0,3,66,8.0,87.0
13326,62.0,4,50,8.0,87.0
13327,55.0,1,53,10.0,80.0
13328,78.0,52,81,6.0,91.0
13329,78.0,0,99,4.0,98.0
13330,61.0,56,45,8.0,68.0
13331,79.0,1,31,4.0,70.0
13332,79.0,2,38,6.0,80.0
13333,59.0,45,71,8.0,60.0
13334,59.0,12,61,10.0,80.0
13335,78.0,49,41,6.0,87.0
13336,62.0,2,40,8.0,68.0
13337,78.0,0,43,4.0,68.0
13338,71.0,4,271,7.0,85.0
13339,71.0,3,279,5.0,85.0
13340,61.0,3,57,8.0,100.0
13341,49.0,4,61,10.0,85.0
13342,76.0,3,94,4.0,74.0
13343,76.0,60,107,6.0,87.0
13344,62.0,52,57,8.0,78.0
13345,61.0,60,43,8.0,80.0
13346,76.0,0,47,4.0,70.0
13347,70.0,2,49,5.0,64.0
13348,76.0,1,52,6.0,70.0
13349,61.0,8,66,10.0,82.0
13350,70.0,5,59,7.0,60.0
13351,59.0,41,51,8.0,70.0
13352,74.0,1,42,4.0,80.0
13353,74.0,5,47,6.0,70.0
13354,71.0,4,47,5.0,80.0
13355,71.0,5,47,7.0,78.0
13356,73.0,2,52,5.0,76.0
13357,58.0,53,62,8.0,76.0
13358,54.0,1,62,10.0,82.0
13359,73.0,2,72,7.0,80.0
13360,76.0,5,90,6.0,78.0
13361,71.0,4,53,7.0,76.0
13362,76.0,0,105,4.0,89.0
13363,71.0,47,63,5.0,63.0
13364,61.0,5,41,8.0,80.0
13365,78.0,0,45,6.0,74.0
13366,70.0,57,55,5.0,64.0
13367,78.0,8,40,4.0,68.0
13368,70.0,0,61,7.0,68.0
13369,58.0,5,58,10.0,85.0
13370,68.0,1,32,5.0,78.0
13371,76.0,43,41,6.0,74.0
13372,68.0,2,39,7.0,76.0
13373,76.0,5,47,4.0,60.0
13374,66.0,3,60,5.0,68.0
13375,66.0,6,54,7.0,78.0
13376,62.0,2,55,8.0,87.0
13377,74.0,52,76,6.0,85.0
13378,47.0,3,65,10.0,85.0
13379,74.0,0,85,4.0,82.0
13380,78.0,47,48,5.0,76.0
13381,78.0,5,47,7.0,72.0
13382,86.0,2,40,0.0,89.0
13383,66.0,1,49,8.0,85.0
13384,74.0,0,53,6.0,87.0
13385,71.0,4,56,5.0,78.0
13386,74.0,8,50,4.0,82.0
13387,71.0,0,64,7.0,70.0
13388,59.0,61,72,10.0,87.0
13389,76.0,32,44,6.0,80.0
13390,88.0,11,42,0.0,87.0
13391,74.0,0,101,1.0,82.0
13392,76.0,3,46,4.0,87.0
13393,73.0,5,43,7.0,60.0
13394,73.0,3,53,5.0,66.0
13395,59.0,1,36,8.0,82.0
13396,90.0,9,50,0.0,87.0
13397,78.0,42,61,6.0,102.0
13398,74.0,2,54,5.0,80.0
13399,57.0,1,65,10.0,78.0
13400,78.0,1,70,4.0,100.0
13401,74.0,0,72,7.0,85.0
13402,76.0,0,36,7.0,78.0
13403,74.0,1,96,1.0,76.0
13404,76.0,54,43,5.0,64.0
13405,64.0,3,9,8.0,64.0
13406,74.0,57,54,7.0,68.0
13407,90.0,2,54,0.0,80.0
13408,78.0,1,53,6.0,74.0
13409,74.0,1,59,5.0,82.0
13410,78.0,2,51,4.0,68.0
13411,55.0,1,84,10.0,68.0
13412,79.0,1,40,6.0,85.0
13413,91.0,37,45,0.0,78.0
13414,74.0,3,98,1.0,82.0
13415,79.0,7,43,4.0,78.0
13416,76.0,1,46,5.0,68.0
13417,76.0,2,59,7.0,74.0
13418,81.0,53,60,6.0,102.0
13419,78.0,3,60,7.0,87.0
13420,93.0,3,65,0.0,89.0
13421,78.0,1,61,5.0,98.0
13422,81.0,3,64,4.0,95.0
13423,54.0,2,79,10.0,60.0
13424,62.0,5,192,8.0,78.0
13425,74.0,1,97,1.0,85.0
13426,81.0,54,43,7.0,64.0
13427,81.0,6,43,5.0,87.0
13428,78.0,2,45,6.0,93.0
13429,78.0,3,40,4.0,82.0
13430,74.0,3,51,5.0,85.0
13431,90.0,1,43,0.0,87.0
13432,74.0,48,58,7.0,68.0
13433,59.0,0,70,10.0,98.0
13434,74.0,3,69,8.0,76.0
13435,79.0,36,43,6.0,87.0
13436,74.0,3,83,2.0,80.0
13437,74.0,1,87,1.0,80.0
13438,76.0,5,44,5.0,76.0
13439,79.0,0,46,4.0,78.0
13440,91.0,3,44,0.0,80.0
13441,76.0,2,52,7.0,70.0
13442,78.0,3,59,5.0,85.0
13443,78.0,1,61,7.0,93.0
13444,93.0,0,54,0.0,89.0
13445,81.0,55,73,6.0,93.0
13446,57.0,1,71,10.0,82.0
13447,81.0,3,82,4.0,89.0
13448,74.0,3,83,2.0,93.0
13449,79.0,40,45,5.0,80.0
13450,79.0,2,43,7.0,80.0
13451,74.0,3,94,8.0,68.0
13452,74.0,0,91,1.0,78.0
13453,78.0,56,52,5.0,60.0
13454,78.0,2,54,7.0,85.0
13455,81.0,8,49,6.0,85.0
13456,93.0,2,46,0.0,87.0
13457,81.0,1,46,4.0,80.0
13458,55.0,1,61,10.0,87.0
13459,83.0,36,42,6.0,91.0
13460,74.0,2,83,1.0,78.0
13461,74.0,2,80,2.0,85.0
13462,95.0,3,33,0.0,82.0
13463,74.0,3,94,8.0,80.0
13464,79.0,1,49,5.0,82.0
13465,79.0,1,48,7.0,89.0
13466,83.0,11,41,4.0,85.0
13467,84.0,47,61,6.0,102.0
13468,81.0,7,68,7.0,100.0
13469,54.0,1,63,10.0,93.0
13470,96.0,4,60,0.0,89.0
13471,84.0,0,71,4.0,93.0
13472,74.0,1,77,2.0,89.0
13473,74.0,3,88,8.0,82.0
13474,74.0,3,84,1.0,89.0
13475,81.0,2,97,5.0,95.0
13476,79.0,41,52,7.0,85.0
13477,90.0,0,39,1.0,85.0
13478,96.0,4,40,0.0,70.0
13479,78.0,0,53,7.0,85.0
13480,84.0,0,49,6.0,89.0
13481,50.0,0,38,3.0,110.0
13482,84.0,3,50,4.0,89.0
13483,57.0,8,66,10.0,89.0
13484,74.0,60,99,8.0,76.0
13485,79.0,1,86,5.0,82.0
13486,74.0,3,81,2.0,102.0
13487,83.0,35,49,6.0,82.0
13488,79.0,3,46,7.0,82.0
13489,91.0,6,40,1.0,89.0
13490,95.0,3,38,0.0,82.0
13491,83.0,1,51,4.0,87.0
13492,50.0,0,39,3.0,110.0
13493,84.0,2,63,6.0,98.0
13494,50.0,0,64,10.0,82.0
13495,84.0,2,59,4.0,87.0
13496,81.0,1,70,7.0,105.0
13497,96.0,2,65,0.0,98.0
13498,93.0,1,77,1.0,95.0
13499,78.0,4,73,2.0,89.0
13500,74.0,54,87,8.0,82.0
13501,78.0,0,87,5.0,80.0
13502,79.0,47,66,7.0,82.0
13503,95.0,4,31,1.0,95.0
13504,50.0,2,36,3.0,113.0
13505,98.0,8,35,0.0,89.0
13506,78.0,57,65,7.0,85.0
13507,74.0,0,55,2.0,85.0
13508,86.0,3,62,6.0,98.0
13509,54.0,1,65,10.0,82.0
13510,69.0,3,81,8.0,74.0
13511,86.0,2,67,4.0,85.0
13512,76.0,3,80,5.0,80.0
13513,93.0,6,31,1.0,95.0
13514,84.0,2,41,6.0,80.0
13515,96.0,6,28,0.0,93.0
13516,84.0,9,36,4.0,80.0
13517,76.0,31,61,7.0,76.0
13518,74.0,3,58,7.0,82.0
13519,83.0,3,58,6.0,87.0
13520,74.0,3,53,5.0,87.0
13521,83.0,1,55,4.0,87.0
13522,43.0,5,70,10.0,98.0
13523,50.0,0,71,3.0,116.0
13524,71.0,41,106,8.0,76.0
13525,79.0,40,46,6.0,72.0
13526,79.0,16,41,4.0,70.0
13527,86.0,1,115,2.0,87.0
13528,91.0,0,126,1.0,100.0
13529,95.0,4,127,0.0,95.0
13530,71.0,45,50,7.0,82.0
13531,71.0,3,50,5.0,76.0
13532,76.0,4,64,6.0,60.0
13533,76.0,8,59,4.0,64.0
13534,55.0,3,71,10.0,85.0
13535,78.0,37,47,6.0,66.0
13536,71.0,1,101,8.0,64.0
13537,78.0,16,46,4.0,63.0
13538,79.0,46,61,6.0,85.0
13539,79.0,2,54,4.0,87.0
13540,49.0,5,70,10.0,74.0
13541,81.0,40,44,6.0,76.0
13542,71.0,1,99,8.0,68.0
13543,81.0,19,43,4.0,66.0
13544,78.0,44,43,6.0,60.0
13545,78.0,7,45,4.0,56.0
13546,95.0,3,53,0.0,89.0
13547,88.0,1,54,2.0,95.0
13548,91.0,2,53,1.0,107.0
13549,52.0,1,64,10.0,82.0
13550,79.0,37,42,6.0,70.0
13551,71.0,5,96,8.0,57.0
13552,79.0,15,40,4.0,80.0
13553,76.0,3,276,7.0,89.0
13554,76.0,3,275,5.0,85.0
13555,81.0,54,55,6.0,102.0
13556,81.0,3,45,4.0,89.0
13557,42.0,2,65,10.0,78.0
13558,45.0,0,73,3.0,122.0
13559,69.0,3,96,8.0,74.0
13560,78.0,17,53,6.0,66.0
13561,78.0,15,42,4.0,66.0
13562,93.0,5,129,0.0,102.0
13563,88.0,18,112,2.0,89.0
13564,90.0,3,148,1.0,100.0
13565,69.0,3,44,5.0,82.0
13566,74.0,2,49,6.0,68.0
13567,74.0,1,46,4.0,74.0
13568,69.0,3,44,7.0,85.0
13569,54.0,51,57,10.0,80.0
13570,69.0,2,93,8.0,64.0
13571,76.0,50,46,6.0,63.0
13572,76.0,3,43,4.0,74.0
13573,78.0,1,55,4.0,95.0
13574,47.0,3,65,10.0,85.0
13575,78.0,4,66,6.0,89.0
13576,69.0,59,89,8.0,63.0
13577,79.0,2,39,4.0,70.0
13578,79.0,46,43,6.0,78.0
13579,76.0,0,36,6.0,72.0
13580,76.0,2,35,4.0,63.0
13581,86.0,0,51,2.0,87.0
13582,93.0,2,57,0.0,89.0
13583,90.0,10,52,1.0,100.0
13584,50.0,10,70,10.0,85.0
13585,78.0,41,42,6.0,78.0
13586,69.0,52,109,8.0,62.0
13587,78.0,10,37,4.0,70.0
13588,91.0,5,35,0.0,100.0
13589,74.0,8,283,7.0,85.0
13590,74.0,0,293,5.0,87.0
13591,79.0,2,55,6.0,100.0
13592,79.0,2,51,4.0,89.0
13593,40.0,0,67,10.0,95.0
13594,88.0,1,66,1.0,89.0
13595,86.0,0,76,2.0,91.0
13596,90.0,8,36,0.0,93.0
13597,78.0,44,46,6.0,85.0
13598,67.0,55,105,8.0,66.0
13599,78.0,3,43,4.0,66.0
13600,76.0,51,34,6.0,64.0
13601,88.0,1,37,0.0,85.0
13602,76.0,1,35,4.0,68.0
13603,45.0,1,47,3.0,119.0
13604,81.0,3,54,2.0,74.0
13605,73.0,3,58,7.0,85.0
13606,45.0,0,67,10.0,74.0
13607,93.0,2,55,1.0,91.0
13608,73.0,1,56,5.0,82.0
13609,79.0,40,33,6.0,72.0
13610,69.0,4,89,8.0,68.0
13611,91.0,8,32,0.0,82.0
13612,79.0,8,32,4.0,72.0
13613,74.0,2,44,7.0,93.0
13614,50.0,0,41,3.0,113.0
13615,90.0,0,47,0.0,87.0
13616,93.0,4,43,1.0,93.0
13617,74.0,2,48,5.0,89.0
13618,81.0,1,52,2.0,100.0
13619,50.0,4,60,10.0,87.0
13620,78.0,1,63,6.0,100.0
13621,78.0,4,55,4.0,100.0
13622,69.0,47,93,8.0,64.0
13623,88.0,1,35,0.0,91.0
13624,73.0,39,46,7.0,85.0
13625,76.0,3,45,6.0,64.0
13626,73.0,6,46,5.0,82.0
13627,76.0,6,42,4.0,76.0
13628,71.0,36,49,7.0,87.0
13629,74.0,10,40,6.0,68.0
13630,86.0,6,33,0.0,89.0
13631,71.0,0,45,5.0,85.0
13632,93.0,3,39,1.0,98.0
13633,74.0,0,42,4.0,70.0
13634,38.0,3,48,10.0,100.0
13635,50.0,2,39,3.0,110.0
13636,81.0,2,45,2.0,102.0
13637,69.0,3,84,8.0,57.0
13638,74.0,30,41,7.0,85.0
13639,78.0,9,38,6.0,89.0
13640,90.0,0,32,0.0,89.0
13641,74.0,1,47,5.0,87.0
13642,78.0,12,40,4.0,82.0
13643,73.0,39,53,7.0,82.0
13644,73.0,8,52,5.0,98.0
13645,76.0,2,49,4.0,89.0
13646,76.0,1,57,6.0,105.0
13647,45.0,5,61,3.0,127.0
13648,45.0,1,82,10.0,82.0
13649,69.0,8,103,8.0,68.0
13650,81.0,39,46,6.0,87.0
13651,81.0,6,44,4.0,76.0
13652,81.0,3,122,2.0,110.0
13653,88.0,2,126,0.0,110.0
13654,93.0,4,132,1.0,100.0
13655,76.0,1,37,5.0,89.0
13656,76.0,53,40,7.0,89.0
13657,73.0,0,46,4.0,72.0
13658,73.0,0,54,6.0,57.0
13659,45.0,6,53,10.0,80.0
13660,74.0,7,39,4.0,72.0
13661,47.0,42,50,10.0,82.0
13662,74.0,0,47,6.0,68.0
13663,69.0,1,102,8.0,64.0
13664,69.0,2,40,7.0,85.0
13665,76.0,7,50,4.0,87.0
13666,69.0,1,50,5.0,85.0
13667,49.0,56,66,10.0,95.0
13668,76.0,1,57,6.0,80.0
13669,69.0,2,90,8.0,60.0
13670,78.0,49,46,6.0,64.0
13671,78.0,2,53,4.0,76.0
13672,49.0,4,49,10.0,66.0
13673,76.0,61,64,6.0,80.0
13674,76.0,1,72,4.0,53.0
13675,69.0,0,82,8.0,63.0
13676,78.0,1,47,6.0,72.0
13677,50.0,49,49,10.0,85.0
13678,78.0,9,44,4.0,64.0
13679,73.0,2,162,7.0,87.0
13680,73.0,1,164,5.0,85.0
13681,79.0,6,61,6.0,95.0
13682,52.0,3,73,10.0,91.0
13683,79.0,6,66,4.0,82.0
13684,69.0,50,98,8.0,60.0
13685,76.0,11,39,4.0,68.0
13686,76.0,42,57,6.0,66.0
13687,76.0,5,38,7.0,87.0
13688,49.0,55,49,10.0,78.0
13689,76.0,0,42,5.0,87.0
13690,69.0,2,53,4.0,60.0
13691,69.0,3,56,6.0,49.0
13692,50.0,38,44,10.0,68.0
13693,69.0,1,99,8.0,58.0
13694,81.0,5,90,0.0,85.0
13695,71.0,9,52,6.0,66.0
13696,71.0,5,49,4.0,66.0
13697,52.0,45,56,10.0,87.0
13698,67.0,1,47,7.0,72.0
13699,67.0,1,47,5.0,80.0
13700,73.0,1,56,6.0,56.0
13701,73.0,2,58,4.0,66.0
13702,69.0,13,91,8.0,63.0
13703,74.0,45,42,6.0,68.0
13704,81.0,1,94,0.0,91.0
13705,74.0,10,44,4.0,62.0
13706,73.0,5,48,4.0,80.0
13707,52.0,0,57,10.0,82.0
13708,73.0,1,65,6.0,66.0
13709,69.0,57,91,8.0,59.0
13710,54.0,46,40,10.0,95.0
13711,81.0,0,89,0.0,93.0
13712,74.0,0,40,6.0,68.0
13713,74.0,4,42,4.0,78.0
13714,76.0,1,60,6.0,98.0
13715,73.0,0,178,7.0,98.0
13716,55.0,55,75,10.0,91.0
13717,76.0,8,61,4.0,95.0
13718,73.0,5,181,5.0,98.0
13719,69.0,5,101,8.0,66.0
13720,74.0,42,48,6.0,72.0
13721,81.0,2,92,0.0,98.0
13722,74.0,8,53,4.0,76.0
13723,73.0,1,41,4.0,78.0
13724,76.0,0,43,7.0,82.0
13725,73.0,56,56,6.0,38.0
13726,55.0,3,54,10.0,91.0
13727,45.0,2,39,3.0,116.0
13728,76.0,8,42,5.0,93.0
13729,88.0,2,89,0.0,87.0
13730,54.0,24,49,10.0,87.0
13731,81.0,6,73,1.0,100.0
13732,74.0,8,45,4.0,68.0
13733,69.0,1,104,8.0,62.0
13734,74.0,3,46,6.0,68.0
13735,81.0,5,104,2.0,89.0
13736,45.0,0,40,3.0,110.0
13737,76.0,9,58,4.0,78.0
13738,69.0,3,52,7.0,80.0
13739,55.0,53,73,10.0,87.0
13740,76.0,3,61,6.0,72.0
13741,69.0,2,56,5.0,85.0
13742,88.0,2,76,0.0,87.0
13743,81.0,3,82,1.0,100.0
13744,69.0,1,91,8.0,60.0
13745,81.0,0,95,2.0,80.0
13746,79.0,47,50,6.0,74.0
13747,79.0,1,53,4.0,82.0
13748,78.0,0,47,4.0,82.0
13749,45.0,1,39,3.0,119.0
13750,73.0,1,50,7.0,80.0
13751,93.0,3,55,0.0,87.0
13752,78.0,56,61,6.0,66.0
13753,73.0,4,56,5.0,78.0
13754,57.0,2,63,10.0,89.0
13755,88.0,4,52,1.0,89.0
13756,81.0,3,75,2.0,102.0
13757,69.0,0,89,8.0,66.0
13758,55.0,36,43,10.0,82.0
13759,76.0,5,43,6.0,78.0
13760,76.0,4,44,4.0,68.0
13761,74.0,1,45,7.0,82.0
13762,74.0,0,46,5.0,87.0
13763,50.0,5,52,3.0,122.0
13764,81.0,0,66,6.0,98.0
13765,54.0,52,78,10.0,87.0
13766,81.0,1,66,4.0,89.0
13767,69.0,9,81,8.0,78.0
13768,90.0,0,91,1.0,95.0
13769,79.0,5,55,4.0,72.0
13770,79.0,40,62,6.0,72.0
13771,93.0,2,126,0.0,113.0
13772,74.0,2,133,2.0,105.0
13773,54.0,61,42,10.0,98.0
13774,78.0,3,43,6.0,82.0
13775,93.0,7,34,1.0,82.0
13776,69.0,2,47,7.0,80.0
13777,69.0,3,43,5.0,85.0
13778,78.0,1,48,4.0,91.0
13779,62.0,0,74,8.0,72.0
13780,52.0,37,40,10.0,93.0
13781,79.0,6,42,6.0,68.0
13782,91.0,9,33,1.0,93.0
13783,79.0,2,43,4.0,72.0
13784,81.0,3,45,4.0,87.0
13785,81.0,1,49,6.0,91.0
13786,66.0,1,52,8.0,68.0
13787,90.0,6,55,1.0,89.0
13788,54.0,49,83,10.0,102.0
13789,78.0,38,52,4.0,66.0
13790,78.0,0,55,6.0,68.0
13791,95.0,0,28,0.0,100.0
13792,55.0,2,42,10.0,80.0
13793,74.0,2,53,4.0,78.0
13794,86.0,0,47,1.0,91.0
13795,71.0,8,50,8.0,80.0
13796,74.0,63,77,6.0,66.0
13797,93.0,3,38,0.0,98.0
13798,78.0,45,42,6.0,80.0
13799,78.0,0,46,4.0,87.0
13800,54.0,2,42,10.0,95.0
13801,74.0,2,265,7.0,91.0
13802,74.0,3,275,5.0,87.0
13803,79.0,58,57,6.0,91.0
13804,79.0,0,55,4.0,85.0
13805,52.0,3,71,10.0,95.0
13806,88.0,1,94,1.0,93.0
13807,78.0,44,55,6.0,91.0
13808,71.0,1,108,8.0,89.0
13809,91.0,4,121,0.0,95.0
13810,78.0,8,67,4.0,91.0
13811,91.0,2,31,1.0,87.0
13812,76.0,7,49,4.0,58.0
13813,52.0,4,48,10.0,82.0
13814,67.0,0,50,7.0,82.0
13815,73.0,1,48,8.0,80.0
13816,73.0,4,51,5.0,85.0
13817,76.0,54,73,6.0,63.0
13818,90.0,2,30,1.0,98.0
13819,78.0,4,35,4.0,66.0
13820,78.0,3,44,6.0,82.0
13821,50.0,39,51,10.0,80.0
13822,74.0,1,42,8.0,80.0
13823,79.0,0,49,6.0,87.0
13824,88.0,1,51,1.0,95.0
13825,52.0,57,57,10.0,91.0
13826,76.0,1,56,5.0,89.0
13827,79.0,2,55,4.0,82.0
13828,73.0,3,64,8.0,91.0
13829,64.0,2,63,7.0,78.0
13830,83.0,50,37,6.0,89.0
13831,83.0,5,52,4.0,82.0
13832,93.0,1,33,0.0,98.0
13833,81.0,56,46,6.0,80.0
13834,81.0,2,45,4.0,70.0
13835,73.0,2,46,7.0,72.0
13836,54.0,1,50,10.0,85.0
13837,88.0,1,51,2.0,87.0
13838,45.0,3,45,3.0,113.0
13839,69.0,1,59,8.0,74.0
13840,81.0,0,52,1.0,91.0
13841,73.0,2,62,5.0,66.0
13842,91.0,5,35,0.0,89.0
13843,79.0,39,48,6.0,66.0
13844,52.0,2,46,10.0,85.0
13845,79.0,9,35,4.0,89.0
13846,78.0,0,48,6.0,82.0
13847,90.0,4,53,0.0,98.0
13848,50.0,0,61,10.0,91.0
13849,50.0,1,50,3.0,113.0
13850,78.0,3,61,4.0,87.0
13851,74.0,3,66,5.0,89.0
13852,74.0,0,67,7.0,87.0
13853,69.0,52,77,8.0,82.0
13854,81.0,1,73,1.0,102.0
13855,52.0,40,48,10.0,85.0
13856,90.0,1,96,2.0,100.0
13857,74.0,7,50,6.0,87.0
13858,93.0,2,47,0.0,89.0
13859,54.0,61,61,10.0,87.0
13860,69.0,1,50,7.0,85.0
13861,86.0,1,54,1.0,89.0
13862,69.0,3,59,5.0,80.0
13863,74.0,4,52,4.0,85.0
13864,69.0,1,73,8.0,78.0
13865,50.0,39,45,10.0,80.0
13866,62.0,1,54,7.0,74.0
13867,71.0,1,54,6.0,82.0
13868,71.0,1,49,4.0,82.0
13869,95.0,4,56,0.0,85.0
13870,62.0,1,60,5.0,70.0
13871,50.0,7,50,3.0,113.0
13872,86.0,0,59,1.0,91.0
13873,55.0,67,70,10.0,85.0
13874,67.0,1,70,8.0,64.0
13875,57.0,38,42,10.0,91.0
13876,91.0,2,94,2.0,95.0
13877,54.0,60,50,10.0,100.0
13878,67.0,1,42,7.0,82.0
13879,74.0,4,46,5.0,91.0
13880,88.0,1,51,1.0,87.0
13881,76.0,0,47,6.0,87.0
13882,91.0,1,47,0.0,80.0
13883,76.0,7,46,4.0,87.0
13884,71.0,8,72,8.0,70.0
13885,55.0,35,51,10.0,85.0
13886,97.0,1,46,0.0,82.0
13887,81.0,2,56,1.0,85.0
13888,73.0,0,51,4.0,98.0
13889,64.0,2,58,7.0,72.0
13890,57.0,68,69,10.0,102.0
13891,45.0,3,58,3.0,119.0
13892,69.0,5,65,8.0,80.0
13893,73.0,5,61,6.0,87.0
13894,61.0,44,55,7.0,80.0
13895,69.0,10,51,4.0,82.0
13896,88.0,0,121,2.0,105.0
13897,69.0,6,51,6.0,82.0
13898,62.0,1,49,7.0,78.0
13899,93.0,4,40,0.0,85.0
13900,88.0,3,53,1.0,87.0
13901,64.0,3,67,8.0,80.0
13902,71.0,1,68,4.0,80.0
13903,71.0,2,66,6.0,80.0
13904,55.0,44,80,10.0,87.0
13905,64.0,52,38,7.0,87.0
13906,73.0,3,41,4.0,80.0
13907,73.0,0,43,6.0,78.0
13908,64.0,1,262,5.0,85.0
13909,90.0,1,42,1.0,95.0
13910,45.0,4,38,3.0,116.0
13911,74.0,2,53,4.0,74.0
13912,98.0,1,44,0.0,89.0
13913,81.0,0,56,2.0,100.0
13914,57.0,3,54,7.0,93.0
13915,74.0,56,66,6.0,68.0
13916,54.0,0,68,10.0,87.0
13917,69.0,1,67,8.0,80.0
13918,88.0,44,39,1.0,98.0
13919,76.0,5,40,4.0,80.0
13920,76.0,3,47,6.0,78.0
13921,90.0,48,38,1.0,89.0
13922,78.0,3,49,6.0,82.0
13923,78.0,1,45,4.0,93.0
13924,73.0,1,47,7.0,82.0
13925,45.0,5,34,3.0,116.0
13926,73.0,0,48,5.0,80.0
13927,52.0,3,56,10.0,89.0
13928,91.0,4,51,0.0,89.0
13929,81.0,4,56,2.0,95.0
13930,69.0,2,70,8.0,78.0
13931,79.0,3,37,6.0,70.0
13932,91.0,36,40,1.0,98.0
13933,79.0,5,37,4.0,87.0
13934,78.0,56,49,6.0,102.0
13935,78.0,3,45,4.0,102.0
13936,69.0,2,49,8.0,87.0
13937,74.0,2,52,7.0,87.0
13938,74.0,0,55,5.0,85.0
13939,50.0,2,60,10.0,100.0
13940,50.0,7,50,3.0,116.0
13941,76.0,35,47,6.0,87.0
13942,67.0,6,52,8.0,82.0
13943,76.0,6,47,4.0,93.0
13944,90.0,4,114,0.0,107.0
13945,93.0,1,128,1.0,102.0
13946,81.0,0,128,2.0,113.0
13947,74.0,0,42,6.0,82.0
13948,66.0,51,51,8.0,78.0
13949,74.0,2,46,4.0,78.0
13950,71.0,0,54,5.0,82.0
13951,71.0,2,52,7.0,85.0
13952,55.0,3,58,10.0,89.0
13953,76.0,3,38,6.0,89.0
13954,76.0,9,38,4.0,82.0
13955,67.0,50,50,8.0,82.0
13956,69.0,2,52,7.0,85.0
13957,69.0,1,51,6.0,85.0
13958,69.0,5,54,5.0,82.0
13959,57.0,0,61,10.0,100.0
13960,64.0,50,69,8.0,82.0
13961,69.0,2,53,4.0,91.0
13962,45.0,1,59,3.0,119.0
13963,91.0,9,122,1.0,87.0
13964,81.0,2,123,2.0,110.0
13965,88.0,0,129,0.0,107.0
13966,73.0,1,58,6.0,91.0
13967,69.0,106,63,7.0,95.0
13968,64.0,1,64,8.0,76.0
13969,73.0,3,64,4.0,82.0
13970,45.0,1,73,10.0,93.0
13971,69.0,2,71,5.0,95.0
13972,50.0,3,20,3.0,113.0
13973,50.0,14,17,3.0,102.0
13974,50.0,23,23,3.0,95.0
13975,50.0,25,16,3.0,93.0
13976,74.0,0,124,0.0,105.0
13977,69.0,2,122,7.0,80.0
13978,90.0,1,121,1.0,102.0
13979,81.0,0,130,2.0,113.0
13980,50.0,24,37,3.0,85.0
13981,50.0,50,15,3.0,72.0
13982,50.0,5,12,3.0,66.0
13983,62.0,15,39,7.0,68.0
13984,50.0,32,14,3.0,58.0
13985,50.0,17,14,3.0,78.0
13986,74.0,0,246,6.0,116.0
13987,66.0,2,246,8.0,89.0
13988,69.0,136,257,5.0,93.0
13989,74.0,7,250,4.0,100.0
13990,50.0,24,34,3.0,66.0
13991,76.0,10,38,4.0,72.0
13992,76.0,11,50,6.0,78.0
13993,62.0,9,87,7.0,87.0
13994,50.0,17,18,3.0,66.0
13995,76.0,9,38,5.0,80.0
13996,50.0,24,9,3.0,59.0
13997,78.0,5,34,5.0,93.0
13998,78.0,1,39,4.0,85.0
13999,78.0,5,45,6.0,89.0
14000,50.0,14,31,3.0,76.0
14001,74.0,31,38,4.0,85.0
14002,66.0,1,34,7.0,70.0
14003,62.0,4,33,8.0,89.0
14004,74.0,7,42,5.0,87.0
14005,50.0,3,32,3.0,76.0
14006,74.0,2,43,6.0,87.0
14007,50.0,0,34,3.0,80.0
14008,50.0,38,18,3.0,82.0
14009,62.0,4,87,8.0,100.0
14010,50.0,24,14,3.0,98.0
14011,66.0,0,100,7.0,80.0
14012,50.0,27,17,3.0,78.0
14013,78.0,5,120,0.0,107.0
14014,86.0,1,124,1.0,102.0
14015,50.0,23,14,3.0,93.0
14016,81.0,1,144,2.0,113.0
14017,50.0,29,15,3.0,82.0
14018,50.0,24,13,3.0,87.0
14019,50.0,3,16,3.0,80.0
14020,69.0,8,33,7.0,85.0
14021,66.0,14,38,8.0,85.0
14022,50.0,23,16,3.0,95.0
14023,50.0,6,17,3.0,85.0
14024,69.0,2,268,5.0,89.0
14025,50.0,19,13,3.0,91.0
14026,69.0,47,297,4.0,91.0
14027,69.0,2,291,6.0,91.0
14028,69.0,17,72,7.0,91.0
14029,50.0,5,16,3.0,82.0
14030,66.0,8,66,8.0,82.0
14031,71.0,21,32,5.0,91.0
14032,50.0,9,11,3.0,70.0
14033,71.0,5,37,4.0,85.0
14034,71.0,9,34,6.0,98.0
14035,50.0,27,33,3.0,78.0
14036,72.0,6,34,5.0,78.0
14037,72.0,9,39,4.0,85.0
14038,72.0,7,45,6.0,89.0
14039,50.0,30,17,3.0,68.0
14040,50.0,1,14,3.0,72.0
14041,69.0,12,39,5.0,87.0
14042,66.0,1,38,7.0,74.0
14043,69.0,10,41,4.0,95.0
14044,69.0,1,35,8.0,85.0
14045,50.0,23,17,3.0,78.0
14046,69.0,6,45,6.0,100.0
14047,50.0,2,12,3.0,100.0
14048,50.0,3,18,3.0,87.0
14049,50.0,24,13,3.0,100.0
14050,50.0,27,19,3.0,82.0
14051,69.0,6,87,8.0,89.0
14052,50.0,20,14,3.0,78.0
14053,86.0,1,117,2.0,105.0
14054,90.0,5,114,1.0,102.0
14055,62.0,21,136,7.0,89.0
14056,81.0,5,130,0.0,105.0
14057,50.0,35,32,3.0,80.0
14058,50.0,51,34,3.0,78.0
14059,57.0,14,40,8.0,82.0
14060,66.0,5,37,7.0,70.0
14061,50.0,33,17,3.0,72.0
14062,50.0,21,16,3.0,100.0
14063,66.0,0,270,5.0,91.0
14064,66.0,5,260,6.0,100.0
14065,66.0,1,278,4.0,87.0
14066,50.0,29,17,3.0,74.0
14067,50.0,2,18,3.0,102.0
14068,66.0,2,77,7.0,87.0
14069,57.0,0,86,8.0,95.0
14070,67.0,14,43,5.0,72.0
14071,67.0,7,42,6.0,70.0
14072,67.0,1,42,4.0,80.0
14073,50.0,29,17,3.0,63.0
14074,50.0,25,16,3.0,95.0
14075,69.0,1,34,4.0,82.0
14076,69.0,5,40,6.0,82.0
14077,50.0,22,16,3.0,63.0
14078,69.0,3,44,5.0,80.0
14079,50.0,21,13,3.0,64.0
14080,66.0,0,35,4.0,91.0
14081,66.0,8,37,6.0,100.0
14082,69.0,1,34,7.0,80.0
14083,62.0,5,37,8.0,80.0
14084,66.0,3,35,5.0,87.0
14085,50.0,16,30,3.0,70.0
14086,50.0,3,32,3.0,72.0
14087,66.0,38,80,8.0,91.0
14088,50.0,51,17,3.0,68.0
14089,50.0,24,14,3.0,66.0
14090,69.0,0,107,7.0,87.0
14091,93.0,1,121,1.0,102.0
14092,50.0,28,18,3.0,82.0
14093,90.0,4,130,2.0,102.0
14094,86.0,1,126,0.0,100.0
14095,50.0,29,19,3.0,85.0
14096,50.0,29,17,3.0,64.0
14097,72.0,1,37,7.0,82.0
14098,50.0,17,21,3.0,102.0
14099,69.0,10,39,8.0,89.0
14100,50.0,29,16,3.0,61.0
14101,62.0,4,279,6.0,100.0
14102,50.0,16,41,3.0,95.0
14103,62.0,3,297,5.0,89.0
14104,62.0,0,304,4.0,102.0
14105,72.0,1,62,7.0,100.0
14106,69.0,11,67,8.0,102.0
14107,50.0,54,20,3.0,93.0
14108,50.0,27,15,3.0,49.0
14109,50.0,3,19,3.0,85.0
14110,64.0,12,42,6.0,72.0
14111,64.0,10,42,4.0,66.0
14112,64.0,1,43,5.0,78.0
14113,66.0,14,28,6.0,87.0
14114,50.0,1,18,3.0,70.0
14115,66.0,3,28,5.0,87.0
14116,66.0,12,33,4.0,80.0
14117,50.0,8,19,3.0,74.0
14118,67.0,12,38,6.0,85.0
14119,69.0,2,31,7.0,85.0
14120,66.0,3,36,8.0,80.0
14121,69.0,3,37,6.0,91.0
14122,67.0,2,42,5.0,74.0
14123,67.0,2,41,4.0,89.0
14124,71.0,1,31,6.0,85.0
14125,50.0,15,34,3.0,57.0
14126,69.0,1,39,5.0,82.0
14127,69.0,4,39,4.0,87.0
14128,71.0,16,34,5.0,82.0
14129,71.0,3,34,4.0,82.0
14130,50.0,4,25,3.0,82.0
14131,62.0,0,77,8.0,89.0
14132,72.0,1,98,6.0,100.0
14133,72.0,7,93,5.0,87.0
14134,72.0,5,91,4.0,87.0
14135,86.0,4,27,2.0,100.0
14136,57.0,161,37,8.0,85.0
14137,90.0,0,31,1.0,98.0
14138,72.0,2,43,5.0,82.0
14139,81.0,5,35,0.0,100.0
14140,72.0,2,40,4.0,85.0
14141,72.0,0,43,6.0,78.0
14142,50.0,3,2164,10.0,107.0
14143,50.0,4,27,3.0,105.0
14144,86.0,0,72,2.0,100.0
14145,74.0,45,81,5.0,93.0
14146,66.0,11,316,7.0,95.0
14147,90.0,3,69,1.0,98.0
14148,81.0,1,71,0.0,98.0
14149,57.0,2,86,8.0,91.0
14150,74.0,1,84,4.0,93.0
14151,74.0,2,85,6.0,93.0
14152,50.0,54,28,3.0,102.0
14153,48.0,1,38,10.0,85.0
14154,50.0,1,26,3.0,105.0
14155,47.0,59,42,10.0,89.0
14156,50.0,1,25,3.0,102.0
14157,90.0,0,31,2.0,87.0
14158,66.0,3,41,7.0,68.0
14159,45.0,53,46,10.0,87.0
14160,76.0,3,39,4.0,85.0
14161,81.0,1,42,0.0,87.0
14162,76.0,1,40,5.0,82.0
14163,60.0,0,45,8.0,66.0
14164,93.0,10,34,1.0,87.0
14165,76.0,1,38,6.0,91.0
14166,50.0,2,36,3.0,110.0
14167,86.0,2,72,0.0,95.0
14168,86.0,0,80,2.0,100.0
14169,74.0,1,83,4.0,95.0
14170,91.0,3,76,1.0,98.0
14171,74.0,3,82,5.0,89.0
14172,74.0,1,85,6.0,93.0
14173,47.0,0,93,10.0,93.0
14174,67.0,40,100,7.0,78.0
14175,62.0,5,100,8.0,93.0
14176,50.0,1,26,3.0,102.0
14177,86.0,4,36,2.0,107.0
14178,64.0,164,41,8.0,82.0
14179,91.0,1,29,1.0,98.0
14180,69.0,0,37,7.0,72.0
14181,81.0,0,38,0.0,85.0
14182,72.0,2,39,4.0,80.0
14183,72.0,2,37,6.0,87.0
14184,72.0,5,41,5.0,74.0
14185,48.0,1,40,10.0,80.0
14186,50.0,1,35,3.0,107.0
14187,86.0,0,75,2.0,105.0
14188,50.0,2,73,10.0,95.0
14189,91.0,2,80,1.0,100.0
14190,67.0,2,86,7.0,91.0
14191,71.0,0,83,5.0,82.0
14192,62.0,47,91,8.0,100.0
14193,71.0,0,90,6.0,89.0
14194,71.0,3,90,4.0,85.0
14195,83.0,1,90,0.0,89.0
14196,50.0,0,26,3.0,105.0
14197,62.0,172,35,8.0,80.0
14198,84.0,2,32,0.0,91.0
14199,69.0,4,34,4.0,85.0
14200,86.0,3,28,2.0,107.0
14201,91.0,0,30,1.0,105.0
14202,69.0,1,34,6.0,80.0
14203,69.0,1,39,5.0,85.0
14204,66.0,0,43,7.0,63.0
14205,38.0,7,39,10.0,89.0
14206,50.0,2,47,3.0,119.0
14207,67.0,1,85,7.0,82.0
14208,71.0,41,176,6.0,87.0
14209,71.0,2,178,4.0,85.0
14210,71.0,3,178,5.0,80.0
14211,71.0,163,36,7.0,82.0
14212,91.0,4,235,1.0,107.0
14213,83.0,1,239,0.0,105.0
14214,86.0,0,243,2.0,107.0
14215,71.0,57,75,7.0,87.0
14216,62.0,4,344,8.0,85.0
14217,67.0,5,149,5.0,76.0
14218,67.0,4,164,4.0,66.0
14219,67.0,1,176,6.0,78.0
14220,43.0,2,405,10.0,93.0
14221,67.0,175,36,7.0,80.0
14222,62.0,7,40,8.0,82.0
14223,67.0,4,84,8.0,87.0
14224,71.0,178,35,8.0,85.0
14225,71.0,57,67,8.0,89.0
14226,62.0,5,314,7.0,95.0
14227,71.0,1,348,6.0,82.0
14228,71.0,1,351,5.0,76.0
14229,71.0,46,385,4.0,66.0
14230,55.0,1,424,10.0,87.0
14231,64.0,158,40,7.0,82.0
14232,73.0,11,41,5.0,64.0
14233,73.0,2,40,6.0,80.0
14234,67.0,2,40,8.0,74.0
14235,73.0,8,40,4.0,78.0
14236,57.0,46,97,7.0,87.0
14237,62.0,155,50,7.0,82.0
14238,74.0,8,256,4.0,82.0
14239,74.0,0,267,5.0,78.0
14240,74.0,5,268,6.0,74.0
14241,66.0,66,75,7.0,89.0
14242,69.0,1,321,8.0,85.0
14243,73.0,59,44,5.0,70.0
14244,73.0,0,46,4.0,72.0
14245,73.0,7,41,6.0,68.0
14246,74.0,0,42,5.0,78.0
14247,74.0,50,44,4.0,76.0
14248,74.0,6,40,6.0,80.0
14249,76.0,51,32,5.0,82.0
14250,76.0,2,35,4.0,85.0
14251,76.0,0,40,6.0,80.0
14252,67.0,2,43,7.0,82.0
14253,67.0,11,37,8.0,82.0
14254,54.0,6,508,10.0,85.0
14255,76.0,3,53,5.0,82.0
14256,76.0,50,63,4.0,87.0
14257,76.0,1,62,6.0,85.0
14258,75.0,48,26,5.0,80.0
14259,75.0,7,26,4.0,80.0
14260,75.0,2,31,6.0,85.0
14261,66.0,1,98,8.0,85.0
14262,76.0,11,24,5.0,63.0
14263,69.0,1,105,7.0,87.0
14264,55.0,9,46,10.0,87.0
14265,76.0,7,29,4.0,68.0
14266,76.0,4,32,6.0,68.0
14267,75.0,14,19,5.0,64.0
14268,75.0,9,18,4.0,58.0
14269,75.0,5,22,6.0,70.0
14270,76.0,5,23,5.0,70.0
14271,76.0,10,23,4.0,63.0
14272,76.0,6,19,6.0,60.0
14273,75.0,6,18,5.0,63.0
14274,75.0,10,15,4.0,58.0
14275,57.0,1,40,10.0,80.0
14276,75.0,3,19,6.0,62.0
14277,76.0,5,21,5.0,70.0
14278,76.0,8,25,4.0,68.0
14279,76.0,5,21,6.0,76.0
14280,75.0,2,20,5.0,76.0
14281,72.0,4,34,7.0,78.0
14282,75.0,8,21,4.0,66.0
14283,75.0,3,25,6.0,80.0
14284,64.0,2,42,8.0,87.0
14285,59.0,1,41,10.0,89.0
14286,76.0,8,31,5.0,82.0
14287,76.0,8,28,4.0,78.0
14288,76.0,6,28,6.0,87.0
14289,57.0,7,45,10.0,87.0
14290,72.0,3,73,7.0,85.0
14291,66.0,3,89,8.0,87.0
14292,55.0,55,35,10.0,89.0
14293,75.0,9,137,5.0,80.0
14294,75.0,8,129,4.0,87.0
14295,75.0,1,135,6.0,87.0
14296,54.0,60,39,10.0,85.0
14297,71.0,0,35,7.0,89.0
14298,76.0,1,32,5.0,80.0
14299,67.0,0,35,8.0,78.0
14300,76.0,54,39,6.0,85.0
14301,76.0,0,36,4.0,82.0
14302,52.0,3,44,10.0,93.0
14303,71.0,57,87,7.0,91.0
14304,66.0,2,84,8.0,85.0
14305,69.0,12,37,8.0,78.0
14306,66.0,166,49,7.0,63.0
14307,78.0,2,252,5.0,80.0
14308,78.0,0,256,4.0,95.0
14309,78.0,1,267,6.0,85.0
14310,63.0,55,73,7.0,95.0
14311,69.0,3,72,8.0,87.0
14312,81.0,1,35,5.0,85.0
14313,81.0,62,37,4.0,82.0
14314,81.0,2,35,6.0,87.0
14315,79.0,2,35,4.0,85.0
14316,79.0,55,39,6.0,91.0
14317,79.0,0,39,5.0,87.0
14318,69.0,54,47,7.0,89.0
14319,78.0,3,46,4.0,72.0
14320,78.0,1,43,5.0,80.0
14321,72.0,4,44,8.0,72.0
14322,78.0,0,55,6.0,85.0
14323,66.0,4,71,8.0,95.0
14324,59.0,56,86,7.0,95.0
14325,83.0,2,94,6.0,91.0
14326,51.0,2,579,10.0,85.0
14327,83.0,2,92,5.0,89.0
14328,83.0,3,98,4.0,91.0
14329,59.0,168,45,8.0,74.0
14330,81.0,1,36,4.0,78.0
14331,81.0,4,42,6.0,80.0
14332,81.0,4,39,5.0,82.0
14333,47.0,6,47,10.0,87.0
14334,75.0,0,47,7.0,76.0
14335,64.0,4,85,8.0,95.0
14336,49.0,48,89,10.0,85.0
14337,79.0,0,88,6.0,87.0
14338,76.0,1,88,7.0,87.0
14339,79.0,3,88,4.0,82.0
14340,79.0,4,85,5.0,85.0
14341,78.0,171,39,6.0,66.0
14342,78.0,5,40,4.0,63.0
14343,78.0,1,46,7.0,80.0
14344,71.0,2,38,8.0,85.0
14345,78.0,1,42,5.0,60.0
14346,51.0,6,49,10.0,85.0
14347,79.0,40,91,6.0,85.0
14348,76.0,7,87,7.0,87.0
14349,79.0,2,86,5.0,78.0
14350,52.0,2,85,10.0,98.0
14351,79.0,3,91,4.0,82.0
14352,71.0,1,92,8.0,89.0
14353,69.0,167,45,8.0,80.0
14354,78.0,3,41,6.0,70.0
14355,78.0,1,41,4.0,70.0
14356,75.0,3,47,7.0,78.0
14357,54.0,1,53,10.0,64.0
14358,78.0,4,47,5.0,68.0
14359,76.0,1,87,4.0,82.0
14360,71.0,0,90,8.0,85.0
14361,55.0,2,91,10.0,82.0
14362,76.0,1,96,7.0,80.0
14363,76.0,6,91,5.0,87.0
14364,76.0,50,103,6.0,87.0
14365,78.0,164,40,7.0,85.0
14366,72.0,0,40,8.0,74.0
14367,78.0,8,33,4.0,76.0
14368,78.0,0,34,5.0,68.0
14369,78.0,8,45,6.0,82.0
14370,57.0,0,38,10.0,78.0
14371,79.0,7,63,6.0,87.0
14372,79.0,2,61,5.0,82.0
14373,79.0,2,72,4.0,82.0
14374,76.0,0,81,7.0,89.0
14375,78.0,4,26,5.0,68.0
14376,78.0,52,33,6.0,82.0
14377,78.0,6,30,4.0,72.0
14378,75.0,1,30,7.0,61.0
14379,79.0,4,28,5.0,78.0
14380,79.0,18,34,6.0,76.0
14381,79.0,7,29,4.0,74.0
14382,76.0,1,30,7.0,72.0
14383,59.0,2,125,10.0,89.0
14384,78.0,2,15,5.0,57.0
14385,78.0,18,23,6.0,66.0
14386,75.0,3,20,7.0,70.0
14387,78.0,4,23,4.0,63.0
14388,79.0,13,21,5.0,63.0
14389,79.0,7,16,4.0,64.0
14390,79.0,2,25,6.0,70.0
14391,76.0,0,19,7.0,70.0
14392,78.0,10,18,5.0,57.0
14393,78.0,0,16,4.0,53.0
14394,78.0,3,22,6.0,61.0
14395,75.0,4,25,7.0,72.0
14396,79.0,11,20,5.0,68.0
14397,57.0,2,38,10.0,64.0
14398,79.0,2,24,4.0,72.0
14399,79.0,4,27,6.0,59.0
14400,76.0,2,25,7.0,82.0
14401,78.0,1,20,5.0,58.0
14402,56.0,9,26,10.0,82.0
14403,78.0,2,19,4.0,59.0
14404,78.0,4,21,6.0,57.0
14405,75.0,3,23,7.0,72.0
14406,79.0,9,26,5.0,80.0
14407,79.0,1,24,4.0,72.0
14408,79.0,5,29,6.0,78.0
14409,76.0,6,22,7.0,80.0
14410,57.0,3,91,10.0,89.0
14411,71.0,50,338,8.0,80.0
14412,78.0,6,111,5.0,87.0
14413,75.0,3,107,7.0,82.0
14414,78.0,1,110,4.0,87.0
14415,78.0,4,116,6.0,91.0
14416,76.0,172,29,4.0,85.0
14417,76.0,1,31,6.0,89.0
14418,71.0,0,31,8.0,82.0
14419,76.0,1,32,5.0,80.0
14420,76.0,2,36,7.0,89.0
14421,59.0,3,35,10.0,87.0
14422,76.0,4,115,7.0,93.0
14423,64.0,165,37,7.0,80.0
14424,76.0,0,240,6.0,95.0
14425,76.0,1,251,4.0,85.0
14426,76.0,2,253,5.0,85.0
14427,64.0,61,80,7.0,89.0
14428,76.0,51,44,6.0,74.0
14429,76.0,7,37,4.0,85.0
14430,76.0,8,39,5.0,72.0
14431,74.0,3,32,4.0,87.0
14432,74.0,48,37,6.0,82.0
14433,74.0,9,33,5.0,76.0
14434,73.0,0,36,4.0,80.0
14435,73.0,46,37,6.0,68.0
14436,68.0,1,37,7.0,76.0
14437,73.0,7,38,5.0,82.0
14438,71.0,1,489,8.0,87.0
14439,56.0,55,509,10.0,85.0
14440,74.0,0,88,4.0,91.0
14441,74.0,1,93,5.0,89.0
14442,54.0,54,40,10.0,72.0
14443,74.0,2,96,6.0,87.0
14444,52.0,56,40,10.0,82.0
14445,54.0,62,40,10.0,89.0
14446,83.0,5,37,5.0,85.0
14447,64.0,2,38,8.0,80.0
14448,83.0,4,39,4.0,91.0
14449,83.0,3,48,6.0,87.0
14450,56.0,50,43,10.0,98.0
14451,76.0,0,81,5.0,89.0
14452,76.0,1,78,6.0,98.0
14453,76.0,3,82,4.0,87.0
14454,64.0,4,85,8.0,85.0
14455,54.0,49,41,10.0,87.0
14456,71.0,57,350,7.0,80.0
14457,56.0,62,43,10.0,89.0
14458,68.0,6,42,8.0,64.0
14459,52.0,59,48,10.0,85.0
14460,74.0,1,42,4.0,85.0
14461,71.0,5,33,7.0,82.0
14462,74.0,6,39,5.0,82.0
14463,74.0,0,47,6.0,87.0
14464,69.0,0,78,7.0,89.0
14465,64.0,50,90,8.0,80.0
14466,73.0,1,91,6.0,85.0
14467,73.0,2,92,5.0,87.0
14468,73.0,2,105,4.0,82.0
14469,69.0,168,46,6.0,74.0
14470,61.0,1,42,7.0,82.0
14471,69.0,5,36,8.0,82.0
14472,69.0,2,41,5.0,82.0
14473,69.0,4,50,4.0,85.0
14474,73.0,3,75,4.0,80.0
14475,64.0,1,84,7.0,91.0
14476,73.0,3,77,5.0,80.0
14477,69.0,2,84,8.0,91.0
14478,73.0,51,93,6.0,72.0
14479,69.0,4,40,7.0,82.0
14480,76.0,1,34,5.0,82.0
14481,76.0,163,45,4.0,80.0
14482,67.0,5,38,8.0,80.0
14483,76.0,5,45,6.0,82.0
14484,57.0,3,510,10.0,87.0
14485,66.0,1,101,8.0,87.0
14486,55.0,54,42,10.0,82.0
14487,54.0,57,41,10.0,82.0
14488,55.0,54,45,10.0,82.0
14489,66.0,15,38,8.0,76.0
14490,57.0,49,40,10.0,85.0
14491,81.0,2,312,6.0,89.0
14492,66.0,9,73,8.0,82.0
14493,55.0,48,37,10.0,93.0
14494,74.0,3,339,7.0,85.0
14495,81.0,4,340,5.0,82.0
14496,81.0,53,372,4.0,91.0
14497,57.0,59,40,10.0,82.0
14498,81.0,3,40,6.0,98.0
14499,81.0,0,30,4.0,91.0
14500,81.0,2,31,5.0,87.0
14501,54.0,57,48,10.0,89.0
14502,64.0,8,39,8.0,80.0
14503,69.0,1,42,7.0,82.0
14504,62.0,1,83,8.0,89.0
14505,66.0,3,84,7.0,91.0
14506,74.0,169,37,7.0,89.0
14507,59.0,1,47,8.0,70.0
14508,81.0,53,289,6.0,98.0
14509,81.0,3,285,5.0,89.0
14510,74.0,59,79,7.0,100.0
14511,66.0,3,80,8.0,85.0
14512,81.0,0,323,4.0,98.0
14513,71.0,0,43,6.0,82.0
14514,71.0,120,44,4.0,82.0
14515,71.0,7,43,5.0,70.0
14516,73.0,19,33,4.0,78.0
14517,73.0,0,34,6.0,66.0
14518,73.0,14,38,5.0,58.0
14519,74.0,11,40,4.0,80.0
14520,74.0,4,42,6.0,78.0
14521,62.0,6,38,8.0,76.0
14522,73.0,2,34,7.0,70.0
14523,74.0,2,45,5.0,78.0
14524,76.0,5,38,4.0,85.0
14525,76.0,3,38,6.0,85.0
14526,76.0,9,39,5.0,85.0
14527,78.0,10,35,4.0,85.0
14528,78.0,3,35,6.0,85.0
14529,78.0,10,35,5.0,80.0
14530,59.0,1,507,10.0,89.0
14531,62.0,3,81,8.0,82.0
14532,60.0,45,41,10.0,82.0
14533,59.0,58,36,10.0,87.0
14534,57.0,59,44,10.0,85.0
14535,59.0,6,44,8.0,72.0
14536,55.0,53,42,10.0,82.0
14537,71.0,1,320,7.0,82.0
14538,64.0,9,80,8.0,93.0
14539,79.0,13,328,6.0,89.0
14540,54.0,56,38,10.0,91.0
14541,79.0,8,345,5.0,89.0
14542,79.0,1,365,4.0,89.0
14543,52.0,60,42,10.0,87.0
14544,79.0,4,33,6.0,91.0
14545,79.0,3,31,5.0,85.0
14546,71.0,1,41,7.0,74.0
14547,79.0,3,32,4.0,85.0
14548,64.0,0,38,8.0,74.0
14549,50.0,57,50,10.0,95.0
14550,64.0,2,81,8.0,82.0
14551,69.0,4,99,7.0,85.0
14552,69.0,175,36,8.0,85.0
14553,73.0,5,35,7.0,70.0
14554,79.0,5,297,5.0,85.0
14555,73.0,6,66,7.0,85.0
14556,69.0,49,76,8.0,85.0
14557,79.0,48,336,6.0,93.0
14558,79.0,3,348,4.0,89.0
14559,78.0,117,38,5.0,62.0
14560,78.0,5,36,4.0,66.0
14561,76.0,19,41,5.0,82.0
14562,78.0,9,37,6.0,64.0
14563,76.0,8,41,4.0,82.0
14564,76.0,10,25,6.0,66.0
14565,73.0,3,36,5.0,53.0
14566,64.0,2,42,8.0,80.0
14567,74.0,6,54,5.0,72.0
14568,76.0,5,38,7.0,91.0
14569,74.0,1,36,6.0,85.0
14570,73.0,4,39,4.0,60.0
14571,74.0,0,47,4.0,72.0
14572,71.0,13,31,5.0,89.0
14573,71.0,9,32,4.0,91.0
14574,73.0,8,37,6.0,105.0
14575,49.0,0,494,10.0,80.0
14576,71.0,1,35,6.0,78.0
14577,76.0,18,92,7.0,87.0
14578,50.0,33,39,10.0,78.0
14579,69.0,1,131,5.0,85.0
14580,69.0,5,141,4.0,57.0
14581,69.0,16,135,6.0,95.0
14582,49.0,62,41,10.0,82.0
14583,67.0,9,34,5.0,74.0
14584,74.0,0,46,7.0,82.0
14585,67.0,3,34,4.0,70.0
14586,47.0,56,48,10.0,85.0
14587,67.0,8,37,6.0,70.0
14588,66.0,15,33,5.0,80.0
14589,66.0,5,28,4.0,78.0
14590,66.0,8,24,6.0,85.0
14591,45.0,1,42,10.0,82.0
14592,76.0,16,75,7.0,95.0
14593,69.0,1,328,8.0,95.0
14594,47.0,40,41,10.0,93.0
14595,67.0,11,90,5.0,89.0
14596,67.0,1,94,4.0,85.0
14597,67.0,6,102,6.0,82.0
14598,49.0,57,45,10.0,100.0
14599,76.0,2,36,5.0,89.0
14600,76.0,1,32,4.0,87.0
14601,76.0,1,32,6.0,95.0
14602,45.0,59,43,10.0,95.0
14603,69.0,1,35,8.0,82.0
14604,73.0,5,48,7.0,68.0
14605,50.0,1,16,3.0,105.0
14606,50.0,28,16,3.0,107.0
14607,50.0,23,16,3.0,87.0
14608,74.0,0,77,7.0,98.0
14609,69.0,2,85,8.0,87.0
14610,50.0,24,14,3.0,98.0
14611,50.0,23,18,3.0,87.0
14612,50.0,22,13,3.0,66.0
14613,50.0,28,34,3.0,85.0
14614,69.0,24,31,7.0,95.0
14615,66.0,3,36,8.0,82.0
14616,74.0,3,38,0.0,87.0
14617,78.0,1,38,2.0,89.0
14618,81.0,3,40,1.0,87.0
14619,50.0,14,35,3.0,85.0
14620,66.0,3,249,6.0,93.0
14621,66.0,1,258,4.0,78.0
14622,66.0,57,264,5.0,82.0
14623,50.0,5,25,3.0,87.0
14624,66.0,4,72,8.0,87.0
14625,69.0,34,76,7.0,100.0
14626,74.0,0,64,0.0,91.0
14627,78.0,0,66,2.0,100.0
14628,81.0,11,66,1.0,102.0
14629,67.0,36,33,6.0,80.0
14630,50.0,3,23,3.0,89.0
14631,67.0,7,35,4.0,82.0
14632,67.0,5,41,5.0,78.0
14633,50.0,7,32,3.0,87.0
14634,69.0,43,41,6.0,80.0
14635,69.0,3,41,4.0,80.0
14636,69.0,9,41,5.0,85.0
14637,50.0,37,17,3.0,85.0
14638,50.0,2,13,3.0,107.0
14639,71.0,1,38,6.0,93.0
14640,71.0,6,33,4.0,85.0
14641,66.0,3,33,7.0,102.0
14642,62.0,4,43,8.0,82.0
14643,78.0,0,34,0.0,85.0
14644,86.0,3,37,1.0,91.0
14645,81.0,2,34,2.0,82.0
14646,71.0,2,36,5.0,89.0
14647,50.0,29,16,3.0,82.0
14648,50.0,0,15,3.0,105.0
14649,50.0,2,500,10.0,82.0
14650,50.0,24,15,3.0,78.0
14651,66.0,5,63,7.0,102.0
14652,81.0,2,60,2.0,91.0
14653,50.0,21,16,3.0,105.0
14654,57.0,3,77,8.0,82.0
14655,86.0,0,69,1.0,93.0
14656,78.0,1,70,0.0,89.0
14657,52.0,0,39,10.0,87.0
14658,50.0,35,33,3.0,82.0
14659,50.0,23,17,3.0,80.0
14660,50.0,26,44,10.0,91.0
14661,50.0,19,15,3.0,70.0
14662,50.0,1,16,3.0,80.0
14663,62.0,2,33,7.0,85.0
14664,48.0,18,39,10.0,82.0
14665,86.0,4,34,2.0,91.0
14666,62.0,3,41,8.0,80.0
14667,81.0,2,35,0.0,87.0
14668,90.0,2,34,1.0,87.0
14669,50.0,21,18,3.0,102.0
14670,50.0,4,15,3.0,78.0
14671,50.0,17,16,3.0,102.0
14672,47.0,19,58,10.0,87.0
14673,66.0,10,72,8.0,91.0
14674,81.0,2,69,0.0,89.0
14675,50.0,9,16,3.0,80.0
14676,90.0,3,69,1.0,95.0
14677,86.0,1,68,2.0,100.0
14678,45.0,24,39,10.0,87.0
14679,50.0,22,15,3.0,72.0
14680,72.0,3,351,5.0,85.0
14681,72.0,13,373,6.0,85.0
14682,72.0,3,363,4.0,80.0
14683,50.0,2,15,3.0,76.0
14684,50.0,20,13,3.0,63.0
14685,43.0,29,46,10.0,91.0
14686,50.0,29,27,3.0,78.0
14687,83.0,0,27,0.0,82.0
14688,91.0,2,29,1.0,91.0
14689,74.0,0,33,5.0,87.0
14690,74.0,5,34,4.0,87.0
14691,42.0,0,38,10.0,78.0
14692,74.0,2,37,6.0,87.0
14693,86.0,8,29,2.0,89.0
14694,69.0,10,49,8.0,76.0
14695,50.0,34,22,3.0,100.0
14696,50.0,9,19,3.0,98.0
14697,67.0,14,83,8.0,89.0
14698,62.0,0,316,7.0,85.0
14699,83.0,1,95,0.0,107.0
14700,86.0,0,93,2.0,102.0
14701,91.0,3,100,1.0,113.0
14702,50.0,7,13,3.0,98.0
14703,50.0,17,10,3.0,51.0
14704,66.0,158,47,7.0,80.0
14705,62.0,3,49,8.0,85.0
14706,50.0,25,19,3.0,110.0
14707,71.0,5,265,6.0,89.0
14708,71.0,2,270,5.0,87.0
14709,71.0,3,275,4.0,87.0
14710,50.0,19,19,3.0,110.0
14711,67.0,9,83,7.0,87.0
14712,64.0,1,91,8.0,89.0
14713,69.0,38,38,6.0,78.0
14714,69.0,3,42,5.0,78.0
14715,69.0,0,43,4.0,80.0
14716,67.0,55,34,6.0,85.0
14717,67.0,0,33,4.0,82.0
14718,67.0,4,37,5.0,87.0
14719,50.0,4,22,3.0,105.0
14720,66.0,50,45,6.0,87.0
14721,66.0,2,39,4.0,93.0
14722,66.0,4,42,5.0,80.0
14723,69.0,7,37,7.0,89.0
14724,66.0,2,49,8.0,80.0
14725,50.0,4,34,3.0,107.0
14726,64.0,2,46,4.0,85.0
14727,64.0,3,53,5.0,82.0
14728,64.0,43,56,6.0,91.0
14729,88.0,2,73,2.0,105.0
14730,95.0,1,84,1.0,102.0
14731,71.0,2,90,7.0,87.0
14732,79.0,5,87,0.0,110.0
14733,66.0,43,42,4.0,85.0
14734,67.0,1,97,8.0,89.0
14735,66.0,1,42,6.0,89.0
14736,66.0,2,47,5.0,82.0
14737,67.0,1,45,4.0,85.0
14738,67.0,58,48,6.0,85.0
14739,67.0,2,53,5.0,68.0
14740,69.0,58,44,4.0,82.0
14741,69.0,1,44,6.0,80.0
14742,69.0,3,45,5.0,87.0
14743,73.0,2,50,7.0,74.0
14744,64.0,3,48,8.0,76.0
14745,71.0,53,45,6.0,87.0
14746,71.0,1,52,4.0,87.0
14747,71.0,2,48,5.0,87.0
14748,74.0,3,77,7.0,98.0
14749,66.0,3,87,8.0,91.0
14750,73.0,1,46,6.0,82.0
14751,73.0,53,49,4.0,70.0
14752,73.0,2,46,5.0,66.0
14753,74.0,55,43,6.0,95.0
14754,74.0,2,42,4.0,95.0
14755,74.0,5,42,5.0,93.0
14756,71.0,49,53,6.0,85.0
14757,76.0,3,51,7.0,89.0
14758,71.0,1,52,4.0,74.0
14759,67.0,0,53,8.0,82.0
14760,71.0,1,52,5.0,87.0
14761,45.0,6,21,3.0,113.0
14762,73.0,1,42,5.0,102.0
14763,73.0,0,47,4.0,100.0
14764,73.0,3,48,6.0,105.0
14765,45.0,26,17,3.0,122.0
14766,64.0,66,82,8.0,116.0
14767,45.0,6,20,3.0,95.0
14768,69.0,3,77,7.0,100.0
14769,74.0,14,44,4.0,78.0
14770,74.0,2,45,5.0,78.0
14771,74.0,2,48,6.0,87.0
14772,45.0,27,16,3.0,107.0
14773,45.0,24,19,3.0,74.0
14774,45.0,18,13,3.0,80.0
14775,73.0,3,43,4.0,68.0
14776,73.0,2,45,6.0,78.0
14777,73.0,2,43,5.0,82.0
14778,45.0,28,17,3.0,80.0
14779,45.0,6,14,3.0,66.0
14780,81.0,8,35,1.0,93.0
14781,81.0,0,28,2.0,107.0
14782,88.0,1,30,0.0,93.0
14783,71.0,1,40,4.0,85.0
14784,71.0,0,43,6.0,89.0
14785,71.0,1,44,5.0,82.0
14786,69.0,1,40,8.0,95.0
14787,64.0,5,42,7.0,87.0
14788,45.0,27,17,3.0,89.0
14789,45.0,0,17,3.0,105.0
14790,43.0,2,1215,10.0,98.0
14791,69.0,1,48,5.0,98.0
14792,69.0,21,56,6.0,98.0
14793,69.0,4,53,4.0,93.0
14794,81.0,1,52,2.0,110.0
14795,81.0,0,59,1.0,100.0
14796,88.0,0,61,0.0,98.0
14797,45.0,27,35,3.0,82.0
14798,61.0,2,70,7.0,100.0
14799,69.0,2,72,8.0,102.0
14800,42.0,19,36,10.0,89.0
14801,71.0,0,46,5.0,87.0
14802,71.0,5,50,4.0,85.0
14803,71.0,0,51,6.0,87.0
14804,45.0,30,34,3.0,80.0
14805,40.0,25,39,10.0,95.0
14806,73.0,7,40,5.0,93.0
14807,73.0,0,42,6.0,95.0
14808,73.0,4,41,4.0,82.0
14809,45.0,19,27,3.0,70.0
14810,45.0,4,19,3.0,70.0
14811,81.0,0,33,2.0,110.0
14812,88.0,1,33,1.0,91.0
14813,64.0,1,35,8.0,98.0
14814,38.0,28,47,10.0,100.0
14815,93.0,6,35,0.0,85.0
14816,74.0,3,48,5.0,85.0
14817,57.0,1,49,7.0,87.0
14818,74.0,0,48,6.0,85.0
14819,74.0,2,48,4.0,85.0
14820,45.0,41,21,3.0,98.0
14821,45.0,11,25,3.0,100.0
14822,76.0,0,48,5.0,85.0
14823,76.0,8,49,6.0,93.0
14824,76.0,0,49,4.0,89.0
14825,81.0,3,60,2.0,105.0
14826,88.0,1,61,1.0,105.0
14827,93.0,0,67,0.0,91.0
14828,64.0,1,68,8.0,105.0
14829,69.0,1,70,7.0,102.0
14830,37.0,0,81,10.0,105.0
14831,78.0,1,39,5.0,80.0
14832,78.0,41,40,6.0,91.0
14833,78.0,4,40,4.0,82.0
14834,45.0,4,15,3.0,102.0
14835,79.0,51,40,6.0,95.0
14836,79.0,1,40,5.0,89.0
14837,79.0,3,42,4.0,80.0
14838,45.0,34,21,3.0,102.0
14839,78.0,0,35,2.0,98.0
14840,90.0,0,32,1.0,89.0
14841,95.0,1,32,0.0,82.0
14842,81.0,3,35,5.0,93.0
14843,81.0,1,39,6.0,100.0
14844,66.0,13,42,7.0,93.0
14845,81.0,1,34,4.0,91.0
14846,45.0,13,21,3.0,100.0
14847,61.0,3,39,8.0,98.0
14848,45.0,1,38,10.0,102.0
14849,50.0,33,26,3.0,122.0
14850,79.0,0,41,5.0,95.0
14851,79.0,0,45,6.0,105.0
14852,79.0,3,42,4.0,100.0
14853,90.0,1,55,1.0,95.0
14854,74.0,1,54,2.0,107.0
14855,91.0,1,65,0.0,98.0
14856,62.0,8,76,7.0,100.0
14857,62.0,1,73,8.0,98.0
14858,47.0,0,75,10.0,102.0
14859,78.0,3,31,6.0,110.0
14860,78.0,50,34,5.0,102.0
14861,78.0,2,32,4.0,107.0
14862,79.0,51,38,6.0,93.0
14863,79.0,2,36,5.0,87.0
14864,79.0,5,39,4.0,82.0
14865,76.0,0,31,5.0,91.0
14866,76.0,1,31,6.0,102.0
14867,81.0,53,35,2.0,110.0
14868,93.0,0,33,0.0,85.0
14869,76.0,3,31,4.0,87.0
14870,88.0,1,35,1.0,82.0
14871,69.0,0,32,7.0,87.0
14872,45.0,5,26,3.0,110.0
14873,49.0,3,38,10.0,100.0
14874,64.0,1,42,8.0,93.0
14875,50.0,0,36,3.0,119.0
14876,86.0,1,62,1.0,98.0
14877,81.0,3,69,2.0,110.0
14878,90.0,1,73,0.0,98.0
14879,57.0,1,74,8.0,93.0
14880,50.0,3,82,10.0,107.0
14881,69.0,3,87,7.0,102.0
14882,78.0,0,120,4.0,105.0
14883,78.0,49,129,5.0,102.0
14884,78.0,0,136,6.0,105.0
14885,76.0,145,28,5.0,68.0
14886,76.0,7,26,6.0,72.0
14887,76.0,0,26,4.0,68.0
14888,45.0,1,25,3.0,116.0
14889,81.0,3,35,2.0,107.0
14890,81.0,6,41,1.0,82.0
14891,74.0,5,29,5.0,78.0
14892,91.0,1,34,0.0,85.0
14893,52.0,0,40,10.0,89.0
14894,74.0,6,27,4.0,80.0
14895,64.0,4,40,8.0,87.0
14896,74.0,0,28,6.0,85.0
14897,67.0,0,40,7.0,89.0
14898,73.0,26,19,5.0,85.0
14899,73.0,4,23,6.0,85.0
14900,73.0,1,32,4.0,66.0
14901,50.0,16,35,3.0,119.0
14902,86.0,0,50,1.0,100.0
14903,62.0,1,68,8.0,100.0
14904,81.0,1,73,2.0,107.0
14905,90.0,1,81,0.0,89.0
14906,54.0,2,80,10.0,105.0
14907,74.0,3,80,5.0,102.0
14908,74.0,1,82,6.0,100.0
14909,74.0,1,81,4.0,102.0
14910,69.0,1,93,7.0,100.0
14911,67.0,152,38,8.0,93.0
14912,71.0,7,33,6.0,98.0
14913,81.0,2,27,2.0,107.0
14914,71.0,1,34,7.0,87.0
14915,50.0,0,26,3.0,105.0
14916,71.0,1,31,4.0,95.0
14917,81.0,0,31,1.0,87.0
14918,71.0,0,31,5.0,98.0
14919,88.0,3,35,0.0,85.0
14920,55.0,2,32,10.0,82.0
14921,45.0,1,36,3.0,122.0
14922,81.0,0,68,1.0,100.0
14923,74.0,1,71,6.0,102.0
14924,90.0,56,77,0.0,91.0
14925,66.0,4,74,8.0,100.0
14926,74.0,2,73,5.0,102.0
14927,74.0,3,71,4.0,100.0
14928,88.0,60,26,0.0,70.0
14929,73.0,0,26,6.0,85.0
14930,64.0,0,30,8.0,82.0
14931,73.0,2,23,4.0,63.0
14932,73.0,6,27,5.0,80.0
14933,74.0,1,23,6.0,82.0
14934,90.0,20,25,0.0,66.0
14935,66.0,2,24,8.0,85.0
14936,74.0,0,25,5.0,85.0
14937,74.0,4,25,4.0,74.0
14938,57.0,1,127,10.0,107.0
14939,88.0,2,19,0.0,68.0
14940,73.0,16,22,6.0,68.0
14941,73.0,4,15,4.0,51.0
14942,64.0,2,21,8.0,68.0
14943,45.0,2,24,3.0,107.0
14944,73.0,0,23,5.0,72.0
14945,90.0,6,14,0.0,64.0
14946,74.0,10,21,6.0,76.0
14947,66.0,0,19,8.0,78.0
14948,74.0,3,19,4.0,70.0
14949,74.0,2,18,5.0,82.0
14950,69.0,0,180,7.0,100.0
14951,73.0,2,19,6.0,59.0
14952,88.0,11,22,0.0,72.0
14953,73.0,2,20,4.0,60.0
14954,64.0,2,25,8.0,70.0
14955,73.0,1,24,5.0,66.0
14956,90.0,3,20,0.0,87.0
14957,74.0,3,27,6.0,85.0
14958,74.0,1,19,4.0,78.0
14959,45.0,1,30,3.0,102.0
14960,66.0,4,27,8.0,91.0
14961,78.0,7,39,1.0,78.0
14962,74.0,1,26,5.0,87.0
14963,73.0,2,22,4.0,63.0
14964,73.0,12,24,6.0,66.0
14965,88.0,1,22,0.0,72.0
14966,74.0,2,20,4.0,70.0
14967,90.0,1,24,0.0,82.0
14968,74.0,4,25,6.0,87.0
14969,45.0,2,31,3.0,122.0
14970,81.0,2,57,1.0,91.0
14971,81.0,0,330,2.0,113.0
14972,64.0,2,121,8.0,57.0
14973,88.0,0,102,0.0,87.0
14974,73.0,11,132,5.0,87.0
14975,73.0,1,114,4.0,87.0
14976,73.0,16,121,6.0,100.0
14977,45.0,3,122,10.0,113.0
14978,69.0,3,165,7.0,107.0
14979,66.0,0,26,8.0,102.0
14980,74.0,1,27,5.0,98.0
14981,74.0,1,28,4.0,100.0
14982,74.0,0,27,6.0,100.0
14983,86.0,166,37,0.0,93.0
14984,45.0,6,24,3.0,113.0
14985,81.0,8,30,2.0,110.0
14986,81.0,2,26,1.0,98.0
14987,50.0,1,19,3.0,119.0
14988,50.0,11,15,3.0,100.0
14989,50.0,24,17,3.0,102.0
14990,50.0,21,14,3.0,98.0
14991,50.0,26,32,3.0,95.0
14992,50.0,46,36,3.0,87.0
14993,50.0,47,16,3.0,78.0
14994,50.0,22,19,3.0,107.0
14995,50.0,23,18,3.0,95.0
14996,50.0,26,18,3.0,102.0
14997,50.0,23,16,3.0,87.0
14998,50.0,23,17,3.0,102.0
14999,50.0,23,14,3.0,59.0
15000,50.0,19,15,3.0,72.0
15001,50.0,23,49,3.0,68.0
15002,50.0,53,21,3.0,102.0
15003,50.0,30,16,3.0,110.0
15004,81.0,1,494,2.0,107.0
15005,78.0,4,494,1.0,102.0
15006,66.0,2,507,8.0,100.0
15007,86.0,13,482,0.0,100.0
15008,69.0,1,501,7.0,107.0
15009,74.0,1,510,5.0,110.0
15010,74.0,0,516,6.0,102.0
15011,38.0,5,512,10.0,113.0
15012,74.0,53,553,4.0,105.0
