,note,step,duration,channel,velocity
0,45.0,0,216,5.0,0.0
1,45.0,18,216,10.0,0.0
2,33.0,0,216,5.0,0.0
3,57.0,0,54,2.0,0.0
4,57.0,42,54,1.0,0.0
5,59.0,60,54,1.0,0.0
6,59.0,0,54,2.0,0.0
7,60.0,60,54,1.0,0.0
8,60.0,0,54,2.0,0.0
9,64.0,0,54,2.0,0.0
10,64.0,60,54,1.0,0.0
11,62.0,60,54,2.0,0.0
12,62.0,0,54,1.0,0.0
13,59.0,0,54,1.0,0.0
14,59.0,60,54,2.0,0.0
15,60.0,0,54,1.0,0.0
16,60.0,60,54,2.0,0.0
17,57.0,60,54,2.0,0.0
18,57.0,0,54,1.0,0.0
19,60.0,0,108,4.0,0.0
20,60.0,0,54,2.0,0.0
21,57.0,6,108,5.0,0.0
22,64.0,0,108,3.0,0.0
23,45.0,0,108,5.0,0.0
24,57.0,0,108,10.0,0.0
25,60.0,54,54,1.0,0.0
26,64.0,42,54,1.0,0.0
27,64.0,0,54,2.0,0.0
28,64.0,0,108,3.0,0.0
29,69.0,40,36,1.0,0.0
30,69.0,0,36,2.0,0.0
31,36.0,0,108,5.0,0.0
32,48.0,8,108,5.0,0.0
33,57.0,0,108,4.0,0.0
34,48.0,0,108,10.0,0.0
35,71.0,32,36,1.0,0.0
36,71.0,0,36,2.0,0.0
37,72.0,40,36,2.0,0.0
38,72.0,0,36,1.0,0.0
39,40.0,0,108,5.0,0.0
40,71.0,0,36,1.0,0.0
41,64.0,0,108,4.0,0.0
42,52.0,0,108,10.0,0.0
43,64.0,0,108,3.0,0.0
44,52.0,8,108,5.0,0.0
45,71.0,40,36,2.0,0.0
46,69.0,32,36,2.0,0.0
47,69.0,0,36,1.0,0.0
48,68.0,0,36,2.0,0.0
49,68.0,58,36,1.0,0.0
50,45.0,0,216,10.0,0.0
51,60.0,0,216,4.0,0.0
52,33.0,18,216,5.0,0.0
53,69.0,60,54,1.0,0.0
54,64.0,0,54,3.0,0.0
55,69.0,0,54,2.0,0.0
56,45.0,0,216,5.0,0.0
57,57.0,0,54,3.0,0.0
58,64.0,60,54,1.0,0.0
59,64.0,0,54,2.0,0.0
60,69.0,42,54,1.0,0.0
61,69.0,0,54,2.0,0.0
62,60.0,0,54,3.0,0.0
63,71.0,42,54,1.0,0.0
64,71.0,0,54,2.0,0.0
65,64.0,0,54,3.0,0.0
66,69.0,18,36,3.0,0.0
67,72.0,0,54,2.0,0.0
68,72.0,22,54,1.0,0.0
69,71.0,38,36,3.0,0.0
70,76.0,2,54,2.0,0.0
71,76.0,0,54,1.0,0.0
72,72.0,40,36,3.0,0.0
73,71.0,18,36,3.0,0.0
74,74.0,22,54,1.0,0.0
75,74.0,0,54,2.0,0.0
76,69.0,38,36,3.0,0.0
77,71.0,0,54,2.0,0.0
78,71.0,2,54,1.0,0.0
79,68.0,58,36,3.0,0.0
80,69.0,6,108,3.0,0.0
81,72.0,0,54,1.0,0.0
82,72.0,54,54,2.0,0.0
83,69.0,60,54,2.0,0.0
84,69.0,0,54,1.0,0.0
85,64.0,0,108,4.0,0.0
86,72.0,0,54,2.0,0.0
87,69.0,6,108,3.0,0.0
88,57.0,0,54,10.0,0.0
89,72.0,0,54,1.0,0.0
90,45.0,0,54,5.0,0.0
91,57.0,54,54,5.0,0.0
92,59.0,0,54,10.0,0.0
93,59.0,0,54,5.0,0.0
94,76.0,0,54,2.0,0.0
95,76.0,0,54,1.0,0.0
96,47.0,42,54,5.0,0.0
97,64.0,0,108,4.0,0.0
98,76.0,6,108,3.0,0.0
99,81.0,0,36,1.0,0.0
100,81.0,18,36,2.0,0.0
101,60.0,0,54,5.0,0.0
102,48.0,22,54,5.0,0.0
103,60.0,0,54,10.0,0.0
104,83.0,32,36,1.0,0.0
105,83.0,0,36,2.0,0.0
106,52.0,2,54,5.0,0.0
107,64.0,0,54,10.0,0.0
108,64.0,0,54,5.0,0.0
109,84.0,0,36,2.0,0.0
110,84.0,40,36,1.0,0.0
111,71.0,0,108,4.0,0.0
112,62.0,0,54,10.0,0.0
113,76.0,6,108,3.0,0.0
114,83.0,0,36,1.0,0.0
115,50.0,0,54,5.0,0.0
116,62.0,22,54,5.0,0.0
117,83.0,18,36,2.0,0.0
118,81.0,32,36,1.0,0.0
119,81.0,0,36,2.0,0.0
120,47.0,0,54,5.0,0.0
121,59.0,0,54,10.0,0.0
122,59.0,2,54,5.0,0.0
123,80.0,40,36,1.0,0.0
124,80.0,0,36,2.0,0.0
125,81.0,0,36,2.0,0.0
126,81.0,0,36,1.0,0.0
127,60.0,0,36,10.0,0.0
128,60.0,40,36,5.0,0.0
129,64.0,8,108,4.0,0.0
130,48.0,0,36,5.0,0.0
131,76.0,0,108,3.0,0.0
132,76.0,0,36,2.0,0.0
133,59.0,0,36,5.0,0.0
134,59.0,0,36,10.0,0.0
135,76.0,32,36,1.0,0.0
136,47.0,0,36,5.0,0.0
137,76.0,40,36,1.0,0.0
138,45.0,0,36,5.0,0.0
139,76.0,0,36,2.0,0.0
140,57.0,0,36,10.0,0.0
141,57.0,0,36,5.0,0.0
142,77.0,0,36,2.0,0.0
143,72.0,0,108,3.0,0.0
144,77.0,40,36,1.0,0.0
145,69.0,8,108,4.0,0.0
146,75.0,32,36,2.0,0.0
147,75.0,0,36,1.0,0.0
148,76.0,0,36,1.0,0.0
149,76.0,40,36,2.0,0.0
150,68.0,8,108,4.0,0.0
151,71.0,0,108,3.0,0.0
152,77.0,0,36,1.0,0.0
153,77.0,40,36,2.0,0.0
154,75.0,0,36,2.0,0.0
155,75.0,32,36,1.0,0.0
156,76.0,0,36,1.0,0.0
157,76.0,40,36,2.0,0.0
158,69.0,8,108,4.0,0.0
159,77.0,40,36,2.0,0.0
160,72.0,0,108,3.0,0.0
161,77.0,0,36,1.0,0.0
162,75.0,0,36,2.0,0.0
163,75.0,32,36,1.0,0.0
164,76.0,0,36,2.0,0.0
165,76.0,40,36,1.0,0.0
166,68.0,0,36,1.0,0.0
167,68.0,40,36,2.0,0.0
168,64.0,0,108,4.0,0.0
169,71.0,8,108,3.0,0.0
170,69.0,32,36,1.0,0.0
171,69.0,0,36,2.0,0.0
172,71.0,40,36,2.0,0.0
173,71.0,0,36,1.0,0.0
174,60.0,0,108,10.0,0.0
175,64.0,0,108,4.0,0.0
176,64.0,8,108,3.0,0.0
177,69.0,40,36,1.0,0.0
178,48.0,0,108,5.0,0.0
179,60.0,0,108,5.0,0.0
180,69.0,0,36,2.0,0.0
181,71.0,32,36,1.0,0.0
182,71.0,0,36,2.0,0.0
183,72.0,40,36,2.0,0.0
184,72.0,0,36,1.0,0.0
185,56.0,0,108,5.0,0.0
186,44.0,0,108,5.0,0.0
187,59.0,8,108,4.0,0.0
188,64.0,0,108,3.0,0.0
189,71.0,0,36,1.0,0.0
190,71.0,40,36,2.0,0.0
191,56.0,0,108,10.0,0.0
192,76.0,32,36,1.0,0.0
193,76.0,0,36,2.0,0.0
194,74.0,40,36,1.0,0.0
195,74.0,0,36,2.0,0.0
196,57.0,0,108,4.0,0.0
197,45.0,8,108,5.0,0.0
198,72.0,0,36,1.0,0.0
199,57.0,0,108,5.0,0.0
200,64.0,0,108,3.0,0.0
201,72.0,40,36,2.0,0.0
202,57.0,0,108,10.0,0.0
203,71.0,0,36,1.0,0.0
204,71.0,32,36,2.0,0.0
205,69.0,0,36,2.0,0.0
206,69.0,40,36,1.0,0.0
207,52.0,0,108,5.0,0.0
208,40.0,0,108,5.0,0.0
209,68.0,40,36,1.0,0.0
210,52.0,0,108,10.0,0.0
211,68.0,0,36,2.0,0.0
212,59.0,0,108,4.0,0.0
213,64.0,8,108,3.0,0.0
214,64.0,0,36,2.0,0.0
215,64.0,32,36,1.0,0.0
216,64.0,40,36,2.0,0.0
217,64.0,0,36,1.0,0.0
218,65.0,40,36,2.0,0.0
219,60.0,0,108,3.0,0.0
220,57.0,8,108,4.0,0.0
221,65.0,0,36,1.0,0.0
222,63.0,32,36,2.0,0.0
223,63.0,0,36,1.0,0.0
224,64.0,40,36,2.0,0.0
225,64.0,0,36,1.0,0.0
226,59.0,0,108,3.0,0.0
227,65.0,0,36,1.0,0.0
228,56.0,8,108,4.0,0.0
229,65.0,40,36,2.0,0.0
230,63.0,32,36,1.0,0.0
231,63.0,0,36,2.0,0.0
232,64.0,0,36,1.0,0.0
233,64.0,40,36,2.0,0.0
234,60.0,8,108,3.0,0.0
235,65.0,0,36,1.0,0.0
236,57.0,0,108,4.0,0.0
237,65.0,40,36,2.0,0.0
238,63.0,0,36,2.0,0.0
239,63.0,32,36,1.0,0.0
240,64.0,0,36,2.0,0.0
241,64.0,40,36,1.0,0.0
242,56.0,0,36,2.0,0.0
243,56.0,40,36,1.0,0.0
244,59.0,8,108,3.0,0.0
245,52.0,0,108,4.0,0.0
246,57.0,0,36,1.0,0.0
247,57.0,32,36,2.0,0.0
248,59.0,0,36,1.0,0.0
249,59.0,40,36,2.0,0.0
250,57.0,40,36,2.0,0.0
251,48.0,0,108,5.0,0.0
252,57.0,0,36,1.0,0.0
253,52.0,8,108,4.0,0.0
254,36.0,0,108,5.0,0.0
255,64.0,0,108,3.0,0.0
256,48.0,0,108,10.0,0.0
257,59.0,32,36,2.0,0.0
258,59.0,0,36,1.0,0.0
259,60.0,0,36,1.0,0.0
260,60.0,40,36,2.0,0.0
261,59.0,0,36,1.0,0.0
262,64.0,0,108,3.0,0.0
263,59.0,0,108,4.0,0.0
264,44.0,0,108,5.0,0.0
265,59.0,40,36,2.0,0.0
266,32.0,8,108,5.0,0.0
267,44.0,0,108,10.0,0.0
268,64.0,0,36,2.0,0.0
269,64.0,32,36,1.0,0.0
270,62.0,40,36,1.0,0.0
271,62.0,0,36,2.0,0.0
272,64.0,0,108,3.0,0.0
273,57.0,0,108,4.0,0.0
274,60.0,40,36,1.0,0.0
275,33.0,8,108,5.0,0.0
276,60.0,0,36,2.0,0.0
277,45.0,0,108,5.0,0.0
278,45.0,0,108,10.0,0.0
279,59.0,32,36,2.0,0.0
280,59.0,0,36,1.0,0.0
281,57.0,0,36,1.0,0.0
282,57.0,40,36,2.0,0.0
283,40.0,8,108,10.0,0.0
284,64.0,0,108,3.0,0.0
285,40.0,0,108,5.0,0.0
286,56.0,40,36,2.0,0.0
287,28.0,0,108,5.0,0.0
288,56.0,0,36,1.0,0.0
289,59.0,0,108,4.0,0.0
290,76.0,0,36,2.0,0.0
291,76.0,32,36,1.0,0.0
292,77.0,40,36,2.0,0.0
293,77.0,0,36,1.0,0.0
294,52.0,0,81,5.0,0.0
295,79.0,40,36,1.0,0.0
296,64.0,27,81,10.0,0.0
297,71.0,8,108,3.0,0.0
298,79.0,0,36,2.0,0.0
299,64.0,0,81,5.0,0.0
300,64.0,0,108,4.0,0.0
301,77.0,0,36,2.0,0.0
302,77.0,5,36,1.0,0.0
303,79.0,1,36,1.0,0.0
304,79.0,0,36,2.0,0.0
305,50.0,39,27,5.0,0.0
306,62.0,0,27,5.0,0.0
307,62.0,0,27,10.0,0.0
308,61.0,0,108,5.0,0.0
309,69.0,0,108,3.0,0.0
310,61.0,0,108,10.0,0.0
311,69.0,40,36,1.0,0.0
312,49.0,8,108,5.0,0.0
313,64.0,0,108,4.0,0.0
314,69.0,0,36,2.0,0.0
315,76.0,32,36,1.0,0.0
316,76.0,0,36,2.0,0.0
317,77.0,40,36,1.0,0.0
318,77.0,0,36,2.0,0.0
319,45.0,0,108,5.0,0.0
320,57.0,0,108,10.0,0.0
321,57.0,8,108,5.0,0.0
322,79.0,40,36,2.0,0.0
323,79.0,0,36,1.0,0.0
324,73.0,0,108,3.0,0.0
325,69.0,0,108,4.0,0.0
326,77.0,0,36,2.0,0.0
327,77.0,32,36,1.0,0.0
328,76.0,0,36,2.0,0.0
329,76.0,40,36,1.0,0.0
330,74.0,0,108,3.0,0.0
331,77.0,40,36,2.0,0.0
332,77.0,0,36,1.0,0.0
333,38.0,0,108,5.0,0.0
334,50.0,0,108,5.0,0.0
335,69.0,8,108,4.0,0.0
336,50.0,0,108,10.0,0.0
337,74.0,0,36,1.0,0.0
338,74.0,32,36,2.0,0.0
339,76.0,40,36,1.0,0.0
340,76.0,0,36,2.0,0.0
341,69.0,0,108,3.0,0.0
342,62.0,27,81,10.0,0.0
343,62.0,8,108,4.0,0.0
344,62.0,0,81,5.0,0.0
345,50.0,0,81,5.0,0.0
346,77.0,0,36,2.0,0.0
347,77.0,40,36,1.0,0.0
348,76.0,5,36,2.0,0.0
349,76.0,0,36,1.0,0.0
350,77.0,0,36,1.0,0.0
351,77.0,1,36,2.0,0.0
352,48.0,0,27,5.0,0.0
353,60.0,0,27,10.0,0.0
354,60.0,39,27,5.0,0.0
355,59.0,0,108,10.0,0.0
356,67.0,40,36,2.0,0.0
357,67.0,0,36,1.0,0.0
358,47.0,0,108,5.0,0.0
359,62.0,0,108,4.0,0.0
360,74.0,8,108,3.0,0.0
361,59.0,0,108,5.0,0.0
362,74.0,32,36,2.0,0.0
363,74.0,0,36,1.0,0.0
364,76.0,40,36,2.0,0.0
365,76.0,0,36,1.0,0.0
366,77.0,40,36,1.0,0.0
367,43.0,0,108,5.0,0.0
368,55.0,0,108,5.0,0.0
369,55.0,8,108,10.0,0.0
370,71.0,0,108,3.0,0.0
371,67.0,0,108,4.0,0.0
372,77.0,0,36,2.0,0.0
373,76.0,32,36,2.0,0.0
374,76.0,0,36,1.0,0.0
375,74.0,0,36,1.0,0.0
376,74.0,40,36,2.0,0.0
377,60.0,40,36,10.0,0.0
378,76.0,8,108,2.0,0.0
379,48.0,0,36,5.0,0.0
380,67.0,0,108,4.0,0.0
381,60.0,0,36,5.0,0.0
382,72.0,0,108,3.0,0.0
383,76.0,0,108,1.0,0.0
384,59.0,0,36,10.0,0.0
385,47.0,0,36,5.0,0.0
386,59.0,32,36,5.0,0.0
387,57.0,40,36,5.0,0.0
388,45.0,0,36,5.0,0.0
389,57.0,0,36,10.0,0.0
390,45.0,0,36,5.0,0.0
391,72.0,0,81,2.0,0.0
392,72.0,27,81,1.0,0.0
393,76.0,0,108,3.0,0.0
394,57.0,40,36,5.0,0.0
395,57.0,0,36,10.0,0.0
396,69.0,8,108,4.0,0.0
397,55.0,0,36,10.0,0.0
398,55.0,5,36,5.0,0.0
399,43.0,0,36,5.0,0.0
400,54.0,0,36,10.0,0.0
401,42.0,1,36,5.0,0.0
402,54.0,0,36,5.0,0.0
403,76.0,0,27,2.0,0.0
404,76.0,39,27,1.0,0.0
405,76.0,8,108,3.0,0.0
406,54.0,0,36,10.0,0.0
407,69.0,0,81,1.0,0.0
408,42.0,40,36,5.0,0.0
409,60.0,0,108,4.0,0.0
410,69.0,27,81,2.0,0.0
411,54.0,0,36,5.0,0.0
412,43.0,0,36,5.0,0.0
413,55.0,0,36,5.0,0.0
414,55.0,5,36,10.0,0.0
415,45.0,0,36,5.0,0.0
416,57.0,0,36,10.0,0.0
417,57.0,1,36,5.0,0.0
418,76.0,39,27,2.0,0.0
419,76.0,0,27,1.0,0.0
420,57.0,0,36,10.0,0.0
421,45.0,0,36,5.0,0.0
422,69.0,8,108,3.0,0.0
423,66.0,27,81,2.0,0.0
424,66.0,0,81,1.0,0.0
425,60.0,0,108,4.0,0.0
426,57.0,40,36,5.0,0.0
427,47.0,0,36,5.0,0.0
428,59.0,0,36,10.0,0.0
429,59.0,5,36,5.0,0.0
430,48.0,0,36,5.0,0.0
431,60.0,0,36,5.0,0.0
432,60.0,1,36,10.0,0.0
433,76.0,0,27,1.0,0.0
434,76.0,39,27,2.0,0.0
435,74.0,0,36,2.0,0.0
436,47.0,0,36,5.0,0.0
437,59.0,0,36,10.0,0.0
438,59.0,0,36,5.0,0.0
439,62.0,0,108,4.0,0.0
440,74.0,40,36,1.0,0.0
441,69.0,8,108,3.0,0.0
442,57.0,0,36,10.0,0.0
443,72.0,0,36,1.0,0.0
444,72.0,0,36,2.0,0.0
445,45.0,32,36,5.0,0.0
446,57.0,0,36,5.0,0.0
447,74.0,40,36,2.0,0.0
448,74.0,0,36,1.0,0.0
449,56.0,0,36,10.0,0.0
450,56.0,0,36,5.0,0.0
451,44.0,0,36,5.0,0.0
452,44.0,40,36,5.0,0.0
453,74.0,8,108,3.0,0.0
454,56.0,0,36,10.0,0.0
455,56.0,0,36,5.0,0.0
456,71.0,27,81,1.0,0.0
457,71.0,0,81,2.0,0.0
458,64.0,0,108,4.0,0.0
459,54.0,0,36,5.0,0.0
460,42.0,5,36,5.0,0.0
461,54.0,0,36,10.0,0.0
462,52.0,1,36,5.0,0.0
463,40.0,0,36,5.0,0.0
464,52.0,0,36,10.0,0.0
465,74.0,0,27,2.0,0.0
466,74.0,39,27,1.0,0.0
467,59.0,8,108,4.0,0.0
468,68.0,27,81,2.0,0.0
469,68.0,0,81,1.0,0.0
470,40.0,40,36,5.0,0.0
471,52.0,0,36,10.0,0.0
472,74.0,0,108,3.0,0.0
473,52.0,0,36,5.0,0.0
474,54.0,0,36,5.0,0.0
475,54.0,0,36,10.0,0.0
476,42.0,5,36,5.0,0.0
477,56.0,1,36,5.0,0.0
478,56.0,0,36,10.0,0.0
479,44.0,0,36,5.0,0.0
480,74.0,39,27,1.0,0.0
481,74.0,0,27,2.0,0.0
482,59.0,0,108,4.0,0.0
483,71.0,8,108,3.0,0.0
484,64.0,27,81,1.0,0.0
485,56.0,40,36,5.0,0.0
486,44.0,0,36,5.0,0.0
487,56.0,0,36,10.0,0.0
488,64.0,0,81,2.0,0.0
489,57.0,0,36,10.0,0.0
490,45.0,0,36,5.0,0.0
491,57.0,5,36,5.0,0.0
492,59.0,1,36,5.0,0.0
493,47.0,0,36,5.0,0.0
494,59.0,0,36,10.0,0.0
495,74.0,0,27,1.0,0.0
496,74.0,39,27,2.0,0.0
497,60.0,0,108,4.0,0.0
498,57.0,0,108,10.0,0.0
499,72.0,40,36,2.0,0.0
500,57.0,8,108,5.0,0.0
501,45.0,0,108,5.0,0.0
502,72.0,0,36,1.0,0.0
503,64.0,0,108,3.0,0.0
504,71.0,0,36,1.0,0.0
505,71.0,32,36,2.0,0.0
506,69.0,40,36,2.0,0.0
507,69.0,0,36,1.0,0.0
508,69.0,0,108,4.0,0.0
509,77.0,0,36,2.0,0.0
510,50.0,0,108,10.0,0.0
511,62.0,0,108,3.0,0.0
512,38.0,0,108,5.0,0.0
513,50.0,8,108,5.0,0.0
514,77.0,40,36,1.0,0.0
515,76.0,0,36,2.0,0.0
516,76.0,32,36,1.0,0.0
517,74.0,0,36,1.0,0.0
518,74.0,40,36,2.0,0.0
519,65.0,8,108,4.0,0.0
520,50.0,0,108,10.0,0.0
521,69.0,0,108,3.0,0.0
522,50.0,0,108,5.0,0.0
523,72.0,40,36,2.0,0.0
524,38.0,0,108,5.0,0.0
525,72.0,0,36,1.0,0.0
526,71.0,0,36,1.0,0.0
527,71.0,32,36,2.0,0.0
528,69.0,0,36,2.0,0.0
529,69.0,40,36,1.0,0.0
530,65.0,0,108,3.0,0.0
531,50.0,0,108,10.0,0.0
532,62.0,8,108,4.0,0.0
533,50.0,0,108,5.0,0.0
534,68.0,40,36,1.0,0.0
535,38.0,0,108,5.0,0.0
536,68.0,0,36,2.0,0.0
537,69.0,32,36,1.0,0.0
538,69.0,0,36,2.0,0.0
539,71.0,40,36,1.0,0.0
540,71.0,0,36,2.0,0.0
541,64.0,0,162,1.0,0.0
542,38.0,8,108,10.0,0.0
543,59.0,0,36,3.0,0.0
544,26.0,0,108,5.0,0.0
545,56.0,40,36,4.0,0.0
546,38.0,0,108,5.0,0.0
547,64.0,34,162,2.0,0.0
548,60.0,0,36,3.0,0.0
549,57.0,32,36,4.0,0.0
550,62.0,0,36,3.0,0.0
551,59.0,40,36,4.0,0.0
552,59.0,0,36,3.0,0.0
553,50.0,8,108,5.0,0.0
554,56.0,6,36,4.0,0.0
555,38.0,0,108,5.0,0.0
556,50.0,0,108,10.0,0.0
557,57.0,11,36,4.0,0.0
558,60.0,0,36,3.0,0.0
559,66.0,0,27,1.0,0.0
560,66.0,21,27,2.0,0.0
561,59.0,0,36,4.0,0.0
562,62.0,1,36,3.0,0.0
563,68.0,39,27,1.0,0.0
564,68.0,0,27,2.0,0.0
565,64.0,0,108,3.0,0.0
566,36.0,0,108,5.0,0.0
567,69.0,40,36,1.0,0.0
568,48.0,0,108,10.0,0.0
569,48.0,0,108,5.0,0.0
570,69.0,0,36,2.0,0.0
571,57.0,8,108,4.0,0.0
572,71.0,0,36,2.0,0.0
573,71.0,32,36,1.0,0.0
574,72.0,0,36,2.0,0.0
575,72.0,40,36,1.0,0.0
576,68.0,0,108,3.0,0.0
577,59.0,8,108,4.0,0.0
578,47.0,0,108,5.0,0.0
579,74.0,40,36,1.0,0.0
580,35.0,0,108,5.0,0.0
581,74.0,0,36,2.0,0.0
582,47.0,0,108,10.0,0.0
583,76.0,0,36,1.0,0.0
584,76.0,32,36,2.0,0.0
585,77.0,0,36,1.0,0.0
586,77.0,40,36,2.0,0.0
587,48.0,0,108,10.0,0.0
588,76.0,0,36,1.0,0.0
589,76.0,40,36,2.0,0.0
590,69.0,0,108,3.0,0.0
591,64.0,0,108,4.0,0.0
592,36.0,8,108,5.0,0.0
593,48.0,0,108,5.0,0.0
594,74.0,0,36,2.0,0.0
595,74.0,32,36,1.0,0.0
596,72.0,0,36,2.0,0.0
597,72.0,40,36,1.0,0.0
598,50.0,0,108,10.0,0.0
599,65.0,0,108,4.0,0.0
600,38.0,0,108,5.0,0.0
601,50.0,0,108,5.0,0.0
602,71.0,0,36,1.0,0.0
603,71.0,40,36,2.0,0.0
604,71.0,8,108,3.0,0.0
605,72.0,0,36,2.0,0.0
606,72.0,32,36,1.0,0.0
607,69.0,85,36,2.0,0.0
608,69.0,0,36,1.0,0.0
609,40.0,0,108,5.0,0.0
610,72.0,0,108,3.0,0.0
611,64.0,27,81,2.0,0.0
612,52.0,0,108,5.0,0.0
613,64.0,0,81,1.0,0.0
614,52.0,0,108,10.0,0.0
615,64.0,9,108,4.0,0.0
616,69.0,84,27,2.0,0.0
617,69.0,0,27,1.0,0.0
618,71.0,0,81,1.0,0.0
619,40.0,0,108,5.0,0.0
620,62.0,0,108,4.0,0.0
621,28.0,0,108,5.0,0.0
622,71.0,27,81,2.0,0.0
623,40.0,0,108,10.0,0.0
624,71.0,9,108,3.0,0.0
625,68.0,84,27,2.0,0.0
626,68.0,0,27,1.0,0.0
627,60.0,0,108,4.0,0.0
628,41.0,0,108,10.0,0.0
629,69.0,27,81,2.0,0.0
630,69.0,0,108,3.0,0.0
631,29.0,9,108,5.0,0.0
632,41.0,0,108,5.0,0.0
633,69.0,0,81,1.0,0.0
634,57.0,39,27,2.0,0.0
635,57.0,0,27,1.0,0.0
636,38.0,0,108,10.0,0.0
637,57.0,0,108,3.0,0.0
638,38.0,8,108,5.0,0.0
639,53.0,0,108,4.0,0.0
640,65.0,0,36,1.0,0.0
641,65.0,40,36,2.0,0.0
642,26.0,0,108,5.0,0.0
643,64.0,0,36,1.0,0.0
644,64.0,32,36,2.0,0.0
645,62.0,112,36,1.0,0.0
646,62.0,0,36,2.0,0.0
647,40.0,120,108,5.0,0.0
648,60.0,0,108,2.0,0.0
649,60.0,0,108,1.0,0.0
650,28.0,0,108,5.0,0.0
651,40.0,0,108,10.0,0.0
652,57.0,0,108,3.0,0.0
653,52.0,0,108,4.0,0.0
654,28.0,0,108,5.0,0.0
655,52.0,0,108,4.0,0.0
656,59.0,0,108,1.0,0.0
657,59.0,186,108,2.0,0.0
658,40.0,0,108,10.0,0.0
659,56.0,0,108,3.0,0.0
660,40.0,0,108,5.0,0.0
661,57.0,18,216,2.0,0.0
662,57.0,0,216,1.0,0.0
663,45.0,0,216,10.0,0.0
664,33.0,0,216,5.0,0.0
665,57.0,0,216,3.0,0.0
666,52.0,0,216,4.0,0.0
667,45.0,0,216,5.0,0.0
668,76.0,12,864,0.0,0.0
669,57.0,42,54,6.0,0.0
670,59.0,60,54,6.0,0.0
671,60.0,60,54,6.0,0.0
672,64.0,60,54,6.0,0.0
673,62.0,60,54,6.0,0.0
674,59.0,42,54,6.0,0.0
675,60.0,40,36,6.0,0.0
676,59.0,40,36,6.0,0.0
677,57.0,58,36,6.0,0.0
678,57.0,0,108,5.0,0.0
679,57.0,6,108,4.0,0.0
680,57.0,0,108,10.0,0.0
681,45.0,54,54,10.0,0.0
682,60.0,0,108,6.0,0.0
683,64.0,0,108,2.0,0.0
684,64.0,0,108,6.0,0.0
685,60.0,0,108,3.0,0.0
686,45.0,0,108,5.0,0.0
687,47.0,42,54,10.0,0.0
688,69.0,18,36,2.0,0.0
689,48.0,6,108,5.0,0.0
690,57.0,0,108,10.0,0.0
691,48.0,22,54,10.0,0.0
692,52.0,0,108,4.0,0.0
693,36.0,0,108,5.0,0.0
694,57.0,0,108,3.0,0.0
695,69.0,0,108,6.0,0.0
696,64.0,0,108,6.0,0.0
697,71.0,32,36,2.0,0.0
698,52.0,2,54,10.0,0.0
699,72.0,28,36,2.0,0.0
700,59.0,6,108,10.0,0.0
701,71.0,18,36,2.0,0.0
702,59.0,0,108,4.0,0.0
703,40.0,0,108,5.0,0.0
704,64.0,0,108,6.0,0.0
705,68.0,0,108,6.0,0.0
706,52.0,0,108,5.0,0.0
707,50.0,22,54,10.0,0.0
708,64.0,0,108,3.0,0.0
709,69.0,32,36,2.0,0.0
710,47.0,2,54,10.0,0.0
711,68.0,58,36,2.0,0.0
712,60.0,6,108,3.0,0.0
713,57.0,0,108,8.0,0.0
714,76.0,54,54,0.0,0.0
715,76.0,0,996,1.0,0.0
716,57.0,0,108,4.0,0.0
717,69.0,0,108,2.0,0.0
718,69.0,0,54,6.0,0.0
719,48.0,0,108,10.0,0.0
720,33.0,0,108,5.0,0.0
721,52.0,0,108,10.0,0.0
722,45.0,0,108,5.0,0.0
723,69.0,60,54,0.0,0.0
724,64.0,0,54,6.0,0.0
725,69.0,0,54,6.0,0.0
726,72.0,60,54,0.0,0.0
727,71.0,42,54,6.0,0.0
728,76.0,0,54,0.0,0.0
729,81.0,0,36,0.0,0.0
730,72.0,40,36,6.0,0.0
731,83.0,0,36,0.0,0.0
732,74.0,40,36,6.0,0.0
733,76.0,40,36,6.0,0.0
734,84.0,0,36,0.0,0.0
735,74.0,0,36,6.0,0.0
736,83.0,40,36,0.0,0.0
737,72.0,0,36,6.0,0.0
738,81.0,40,36,0.0,0.0
739,80.0,40,36,0.0,0.0
740,71.0,0,36,6.0,0.0
741,72.0,0,36,6.0,0.0
742,81.0,40,36,0.0,0.0
743,71.0,0,36,6.0,0.0
744,79.0,40,36,0.0,0.0
745,77.0,40,36,0.0,0.0
746,69.0,0,36,6.0,0.0
747,76.0,18,36,0.0,0.0
748,69.0,0,108,4.0,0.0
749,57.0,0,108,5.0,0.0
750,72.0,22,54,6.0,0.0
751,76.0,0,108,2.0,0.0
752,57.0,0,54,10.0,0.0
753,45.0,0,108,5.0,0.0
754,72.0,6,108,3.0,0.0
755,77.0,32,36,0.0,0.0
756,76.0,0,54,6.0,0.0
757,59.0,2,54,10.0,0.0
758,74.0,40,36,0.0,0.0
759,76.0,0,108,3.0,0.0
760,36.0,0,108,5.0,0.0
761,81.0,0,108,2.0,0.0
762,64.0,8,108,4.0,0.0
763,48.0,0,108,5.0,0.0
764,76.0,27,81,0.0,0.0
765,60.0,40,36,10.0,0.0
766,81.0,0,36,6.0,0.0
767,62.0,5,36,10.0,0.0
768,83.0,0,36,6.0,0.0
769,84.0,0,36,6.0,0.0
770,64.0,1,36,10.0,0.0
771,69.0,39,27,0.0,0.0
772,76.0,0,108,3.0,0.0
773,40.0,0,108,5.0,0.0
774,80.0,0,108,2.0,0.0
775,68.0,27,81,0.0,0.0
776,71.0,8,108,4.0,0.0
777,52.0,0,108,5.0,0.0
778,62.0,40,36,10.0,0.0
779,83.0,0,36,6.0,0.0
780,60.0,5,36,10.0,0.0
781,81.0,0,36,6.0,0.0
782,59.0,1,36,10.0,0.0
783,80.0,0,36,6.0,0.0
784,74.0,39,27,0.0,0.0
785,81.0,8,108,2.0,0.0
786,33.0,0,108,5.0,0.0
787,60.0,0,108,10.0,0.0
788,45.0,0,108,5.0,0.0
789,69.0,0,108,4.0,0.0
790,72.0,0,108,0.0,0.0
791,76.0,0,108,3.0,0.0
792,81.0,40,36,6.0,0.0
793,72.0,0,36,1.0,0.0
794,76.0,32,36,6.0,0.0
795,69.0,40,36,1.0,0.0
796,72.0,0,36,6.0,0.0
797,81.0,6,108,1.0,0.0
798,69.0,40,36,6.0,0.0
799,76.0,32,36,6.0,0.0
800,57.0,2,54,10.0,0.0
801,60.0,0,54,10.0,0.0
802,77.0,40,36,6.0,0.0
803,59.0,0,108,10.0,0.0
804,79.0,40,36,6.0,0.0
805,62.0,8,108,10.0,0.0
806,81.0,32,36,6.0,0.0
807,82.0,40,36,6.0,0.0
808,64.0,0,108,10.0,0.0
809,79.0,0,36,0.0,0.0
810,82.0,40,36,6.0,0.0
811,61.0,8,108,10.0,0.0
812,81.0,0,36,6.0,0.0
813,77.0,32,36,0.0,0.0
814,79.0,0,36,6.0,0.0
815,76.0,40,36,0.0,0.0
816,62.0,0,108,10.0,0.0
817,74.0,8,108,0.0,0.0
818,77.0,40,36,6.0,0.0
819,69.0,0,108,10.0,0.0
820,76.0,32,36,6.0,0.0
821,74.0,40,36,6.0,0.0
822,69.0,0,108,10.0,0.0
823,60.0,8,108,10.0,0.0
824,65.0,40,36,1.0,0.0
825,74.0,0,36,6.0,0.0
826,76.0,0,36,6.0,0.0
827,67.0,32,36,1.0,0.0
828,77.0,0,36,6.0,0.0
829,69.0,40,36,1.0,0.0
830,67.0,0,108,1.0,0.0
831,59.0,8,108,10.0,0.0
832,77.0,40,36,6.0,0.0
833,62.0,0,108,10.0,0.0
834,79.0,32,36,6.0,0.0
835,81.0,40,36,6.0,0.0
836,81.0,0,36,6.0,0.0
837,55.0,0,108,10.0,0.0
838,59.0,8,108,10.0,0.0
839,77.0,40,36,0.0,0.0
840,79.0,32,36,6.0,0.0
841,76.0,0,36,0.0,0.0
842,77.0,40,36,6.0,0.0
843,74.0,0,36,0.0,0.0
844,76.0,40,36,6.0,0.0
845,72.0,8,108,0.0,0.0
846,60.0,0,108,10.0,0.0
847,74.0,32,36,6.0,0.0
848,72.0,40,36,6.0,0.0
849,53.0,0,216,10.0,0.0
850,62.0,12,216,8.0,0.0
851,81.0,0,36,6.0,0.0
852,74.0,40,36,1.0,0.0
853,57.0,8,108,10.0,0.0
854,76.0,32,36,1.0,0.0
855,79.0,0,36,6.0,0.0
856,81.0,0,36,6.0,0.0
857,77.0,40,36,1.0,0.0
858,55.0,20,216,10.0,0.0
859,71.0,40,36,6.0,0.0
860,79.0,8,108,1.0,0.0
861,72.0,20,36,6.0,0.0
862,74.0,40,36,6.0,0.0
863,72.0,0,36,0.0,0.0
864,52.0,8,228,10.0,0.0
865,60.0,0,228,8.0,0.0
866,79.0,40,36,6.0,0.0
867,74.0,0,36,0.0,0.0
868,77.0,20,36,6.0,0.0
869,76.0,0,36,0.0,0.0
870,79.0,40,36,6.0,0.0
871,69.0,40,36,6.0,0.0
872,77.0,0,108,0.0,0.0
873,53.0,20,216,10.0,0.0
874,71.0,32,36,6.0,0.0
875,72.0,40,36,6.0,0.0
876,71.0,40,36,1.0,0.0
877,50.0,0,216,10.0,0.0
878,59.0,12,216,8.0,0.0
879,77.0,0,36,6.0,0.0
880,72.0,20,36,1.0,0.0
881,76.0,0,36,6.0,0.0
882,77.0,0,36,6.0,0.0
883,74.0,40,36,1.0,0.0
884,68.0,40,36,6.0,0.0
885,76.0,8,108,1.0,0.0
886,52.0,12,216,10.0,0.0
887,69.0,20,36,6.0,0.0
888,71.0,40,36,6.0,0.0
889,57.0,0,108,8.0,0.0
890,69.0,40,36,0.0,0.0
891,76.0,0,36,6.0,0.0
892,48.0,8,108,10.0,0.0
893,71.0,20,36,0.0,0.0
894,74.0,0,36,6.0,0.0
895,72.0,40,36,0.0,0.0
896,76.0,0,36,6.0,0.0
897,57.0,0,108,8.0,0.0
898,48.0,8,108,10.0,0.0
899,50.0,12,216,10.0,0.0
900,74.0,0,108,0.0,0.0
901,66.0,40,36,6.0,0.0
902,76.0,32,36,6.0,0.0
903,74.0,40,36,6.0,0.0
904,47.0,0,108,10.0,0.0
905,68.0,40,36,6.0,0.0
906,77.0,8,108,1.0,0.0
907,76.0,20,36,6.0,0.0
908,74.0,40,36,6.0,0.0
909,76.0,8,108,1.0,0.0
910,52.0,0,108,10.0,0.0
911,48.0,0,108,10.0,0.0
912,69.0,40,36,6.0,0.0
913,76.0,32,36,6.0,0.0
914,74.0,40,36,6.0,0.0
915,77.0,0,108,0.0,0.0
916,74.0,8,108,1.0,0.0
917,71.0,40,36,6.0,0.0
918,47.0,0,108,10.0,0.0
919,44.0,0,108,10.0,0.0
920,76.0,32,36,6.0,0.0
921,74.0,40,36,6.0,0.0
922,76.0,0,36,0.0,0.0
923,72.0,40,36,6.0,0.0
924,45.0,0,108,10.0,0.0
925,71.0,0,36,6.0,0.0
926,74.0,32,36,0.0,0.0
927,69.0,0,36,6.0,0.0
928,72.0,40,36,0.0,0.0
929,81.0,40,156,0.0,0.0
930,77.0,40,36,6.0,0.0
931,60.0,6,108,1.0,0.0
932,79.0,32,36,6.0,0.0
933,43.0,2,54,10.0,0.0
934,76.0,40,36,6.0,0.0
935,41.0,12,216,10.0,0.0
936,65.0,27,81,1.0,0.0
937,76.0,8,108,6.0,0.0
938,83.0,5,36,0.0,0.0
939,84.0,1,36,0.0,0.0
940,64.0,39,27,1.0,0.0
941,74.0,15,81,6.0,0.0
942,53.0,0,108,10.0,0.0
943,65.0,8,108,1.0,0.0
944,83.0,40,36,0.0,0.0
945,84.0,5,36,0.0,0.0
946,81.0,1,36,0.0,0.0
947,76.0,39,27,6.0,0.0
948,76.0,8,108,6.0,0.0
949,52.0,0,108,10.0,0.0
950,40.0,0,108,10.0,0.0
951,59.0,0,108,1.0,0.0
952,80.0,40,36,0.0,0.0
953,76.0,32,36,0.0,0.0
954,76.0,40,36,0.0,0.0
955,72.0,0,108,1.0,0.0
956,77.0,40,36,0.0,0.0
957,69.0,8,108,2.0,0.0
958,75.0,32,36,0.0,0.0
959,76.0,40,36,0.0,0.0
960,71.0,8,108,1.0,0.0
961,68.0,0,108,2.0,0.0
962,77.0,40,36,0.0,0.0
963,75.0,32,36,0.0,0.0
964,76.0,40,36,0.0,0.0
965,72.0,0,108,1.0,0.0
966,69.0,8,108,2.0,0.0
967,77.0,40,36,0.0,0.0
968,75.0,32,36,0.0,0.0
969,76.0,40,36,0.0,0.0
970,71.0,0,108,1.0,0.0
971,64.0,8,108,2.0,0.0
972,68.0,40,36,0.0,0.0
973,69.0,32,36,0.0,0.0
974,71.0,40,36,0.0,0.0
975,60.0,0,108,5.0,0.0
976,69.0,40,36,1.0,0.0
977,69.0,0,36,0.0,0.0
978,64.0,8,108,4.0,0.0
979,69.0,0,36,2.0,0.0
980,69.0,0,108,3.0,0.0
981,60.0,0,108,10.0,0.0
982,48.0,0,108,5.0,0.0
983,71.0,0,36,1.0,0.0
984,71.0,32,36,2.0,0.0
985,71.0,0,36,0.0,0.0
986,72.0,0,36,2.0,0.0
987,72.0,0,36,1.0,0.0
988,72.0,40,36,0.0,0.0
989,71.0,0,36,1.0,0.0
990,56.0,0,108,10.0,0.0
991,71.0,0,36,0.0,0.0
992,64.0,0,108,3.0,0.0
993,56.0,0,108,5.0,0.0
994,64.0,0,108,4.0,0.0
995,44.0,8,108,5.0,0.0
996,71.0,40,36,2.0,0.0
997,76.0,0,36,0.0,0.0
998,76.0,32,36,2.0,0.0
999,76.0,0,36,1.0,0.0
1000,74.0,0,36,2.0,0.0
1001,74.0,0,36,1.0,0.0
1002,74.0,40,36,0.0,0.0
1003,72.0,40,36,2.0,0.0
1004,72.0,0,36,0.0,0.0
1005,64.0,0,108,3.0,0.0
1006,72.0,0,36,1.0,0.0
1007,57.0,0,108,5.0,0.0
1008,45.0,8,108,5.0,0.0
1009,57.0,0,108,4.0,0.0
1010,57.0,0,108,10.0,0.0
1011,71.0,0,36,2.0,0.0
1012,71.0,0,36,0.0,0.0
1013,71.0,32,36,1.0,0.0
1014,69.0,0,36,1.0,0.0
1015,69.0,40,36,2.0,0.0
1016,69.0,0,36,0.0,0.0
1017,52.0,0,108,5.0,0.0
1018,68.0,0,108,2.0,0.0
1019,64.0,0,108,3.0,0.0
1020,52.0,8,108,10.0,0.0
1021,59.0,0,108,4.0,0.0
1022,40.0,0,108,5.0,0.0
1023,68.0,40,36,1.0,0.0
1024,68.0,0,108,0.0,0.0
1025,64.0,32,36,1.0,0.0
1026,64.0,40,36,1.0,0.0
1027,57.0,0,108,3.0,0.0
1028,57.0,8,108,4.0,0.0
1029,81.0,0,36,0.0,0.0
1030,60.0,0,108,2.0,0.0
1031,65.0,40,36,1.0,0.0
1032,83.0,0,36,0.0,0.0
1033,63.0,32,36,1.0,0.0
1034,84.0,0,36,0.0,0.0
1035,64.0,40,36,1.0,0.0
1036,83.0,0,108,0.0,0.0
1037,56.0,8,108,3.0,0.0
1038,56.0,0,108,4.0,0.0
1039,65.0,40,36,1.0,0.0
1040,62.0,0,108,2.0,0.0
1041,63.0,32,36,1.0,0.0
1042,64.0,40,36,1.0,0.0
1043,65.0,40,36,1.0,0.0
1044,57.0,0,108,3.0,0.0
1045,81.0,0,36,0.0,0.0
1046,57.0,8,108,4.0,0.0
1047,60.0,0,108,2.0,0.0
1048,63.0,32,36,1.0,0.0
1049,83.0,0,36,0.0,0.0
1050,84.0,0,36,0.0,0.0
1051,64.0,40,36,1.0,0.0
1052,56.0,40,36,1.0,0.0
1053,59.0,0,108,3.0,0.0
1054,83.0,0,36,0.0,0.0
1055,52.0,0,108,4.0,0.0
1056,64.0,8,108,2.0,0.0
1057,81.0,32,36,0.0,0.0
1058,57.0,0,36,1.0,0.0
1059,59.0,40,36,1.0,0.0
1060,80.0,0,36,0.0,0.0
1061,57.0,40,36,2.0,0.0
1062,64.0,0,108,3.0,0.0
1063,52.0,8,108,4.0,0.0
1064,36.0,0,108,5.0,0.0
1065,48.0,0,108,5.0,0.0
1066,57.0,0,36,1.0,0.0
1067,48.0,0,108,10.0,0.0
1068,88.0,24,324,0.0,0.0
1069,59.0,32,36,2.0,0.0
1070,59.0,0,36,1.0,0.0
1071,60.0,40,36,2.0,0.0
1072,60.0,0,36,1.0,0.0
1073,32.0,0,108,5.0,0.0
1074,44.0,0,108,5.0,0.0
1075,59.0,40,36,1.0,0.0
1076,64.0,0,108,3.0,0.0
1077,59.0,0,36,2.0,0.0
1078,59.0,0,108,4.0,0.0
1079,44.0,8,108,10.0,0.0
1080,64.0,0,36,2.0,0.0
1081,64.0,32,36,1.0,0.0
1082,62.0,0,36,1.0,0.0
1083,62.0,40,36,2.0,0.0
1084,45.0,0,108,10.0,0.0
1085,33.0,0,108,5.0,0.0
1086,60.0,0,36,2.0,0.0
1087,45.0,8,108,5.0,0.0
1088,60.0,40,36,1.0,0.0
1089,52.0,0,108,4.0,0.0
1090,57.0,0,108,3.0,0.0
1091,59.0,0,36,2.0,0.0
1092,59.0,8,36,1.0,0.0
1093,57.0,80,36,2.0,0.0
1094,57.0,0,36,1.0,0.0
1095,52.0,8,108,4.0,0.0
1096,88.0,0,108,0.0,0.0
1097,59.0,0,108,3.0,0.0
1098,28.0,0,108,5.0,0.0
1099,40.0,0,108,10.0,0.0
1100,40.0,0,108,5.0,0.0
1101,56.0,0,108,1.0,0.0
1102,56.0,0,108,2.0,0.0
1103,83.0,32,36,6.0,0.0
1104,84.0,40,36,6.0,0.0
1105,86.0,40,36,6.0,0.0
1106,52.0,35,81,10.0,0.0
1107,84.0,5,36,6.0,0.0
1108,86.0,1,36,6.0,0.0
1109,54.0,39,27,10.0,0.0
1110,56.0,8,108,10.0,0.0
1111,76.0,40,36,6.0,0.0
1112,83.0,32,36,6.0,0.0
1113,84.0,40,36,6.0,0.0
1114,52.0,0,108,5.0,0.0
1115,80.0,0,108,2.0,0.0
1116,71.0,0,108,4.0,0.0
1117,52.0,0,108,10.0,0.0
1118,76.0,0,108,3.0,0.0
1119,86.0,40,36,6.0,0.0
1120,83.0,0,36,1.0,0.0
1121,40.0,8,108,5.0,0.0
1122,81.0,32,36,1.0,0.0
1123,84.0,0,36,6.0,0.0
1124,83.0,80,36,6.0,0.0
1125,80.0,0,36,1.0,0.0
1126,76.0,0,108,2.0,0.0
1127,84.0,0,108,6.0,0.0
1128,45.0,0,108,5.0,0.0
1129,45.0,0,108,10.0,0.0
1130,72.0,0,108,3.0,0.0
1131,81.0,0,108,1.0,0.0
1132,69.0,8,108,4.0,0.0
1133,33.0,0,108,5.0,0.0
1134,76.0,32,36,0.0,0.0
1135,78.0,40,36,0.0,0.0
1136,57.0,35,81,10.0,0.0
1137,79.0,40,36,0.0,0.0
1138,78.0,5,36,0.0,0.0
1139,79.0,1,36,0.0,0.0
1140,59.0,39,27,10.0,0.0
1141,69.0,40,36,0.0,0.0
1142,61.0,8,108,10.0,0.0
1143,76.0,32,36,0.0,0.0
1144,78.0,40,36,0.0,0.0
1145,79.0,0,36,0.0,0.0
1146,76.0,0,108,2.0,0.0
1147,57.0,8,108,10.0,0.0
1148,45.0,0,108,5.0,0.0
1149,57.0,0,108,5.0,0.0
1150,57.0,0,108,4.0,0.0
1151,76.0,40,36,1.0,0.0
1152,73.0,0,108,3.0,0.0
1153,78.0,0,36,0.0,0.0
1154,74.0,32,36,1.0,0.0
1155,73.0,80,36,1.0,0.0
1156,76.0,0,36,0.0,0.0
1157,69.0,0,108,3.0,0.0
1158,57.0,0,108,4.0,0.0
1159,62.0,0,108,10.0,0.0
1160,74.0,0,108,2.0,0.0
1161,62.0,0,108,5.0,0.0
1162,74.0,0,108,1.0,0.0
1163,50.0,0,108,5.0,0.0
1164,78.0,8,108,0.0,0.0
1165,81.0,32,36,6.0,0.0
1166,83.0,40,36,6.0,0.0
1167,50.0,35,81,10.0,0.0
1168,84.0,40,36,6.0,0.0
1169,83.0,5,36,6.0,0.0
1170,84.0,1,36,6.0,0.0
1171,52.0,39,27,10.0,0.0
1172,54.0,8,108,10.0,0.0
1173,74.0,40,36,6.0,0.0
1174,81.0,32,36,6.0,0.0
1175,83.0,40,36,6.0,0.0
1176,38.0,8,108,5.0,0.0
1177,50.0,0,108,10.0,0.0
1178,78.0,0,108,2.0,0.0
1179,50.0,0,108,5.0,0.0
1180,84.0,0,36,6.0,0.0
1181,74.0,0,108,3.0,0.0
1182,69.0,0,108,4.0,0.0
1183,81.0,40,36,0.0,0.0
1184,79.0,0,36,0.0,0.0
1185,83.0,32,36,6.0,0.0
1186,78.0,0,36,0.0,0.0
1187,81.0,80,36,6.0,0.0
1188,71.0,0,108,3.0,0.0
1189,67.0,0,108,4.0,0.0
1190,55.0,0,108,5.0,0.0
1191,79.0,8,108,0.0,0.0
1192,43.0,0,108,5.0,0.0
1193,74.0,0,108,2.0,0.0
1194,83.0,0,108,6.0,0.0
1195,43.0,0,108,10.0,0.0
1196,74.0,32,36,1.0,0.0
1197,76.0,40,36,1.0,0.0
1198,77.0,40,36,1.0,0.0
1199,55.0,35,81,10.0,0.0
1200,76.0,5,36,1.0,0.0
1201,77.0,1,36,1.0,0.0
1202,57.0,39,27,10.0,0.0
1203,59.0,8,108,10.0,0.0
1204,67.0,40,36,1.0,0.0
1205,74.0,0,36,1.0,0.0
1206,77.0,32,36,0.0,0.0
1207,79.0,40,36,0.0,0.0
1208,76.0,0,36,1.0,0.0
1209,71.0,0,108,3.0,0.0
1210,55.0,0,108,10.0,0.0
1211,81.0,0,36,0.0,0.0
1212,77.0,0,36,1.0,0.0
1213,43.0,8,108,5.0,0.0
1214,74.0,0,108,2.0,0.0
1215,55.0,0,108,5.0,0.0
1216,67.0,0,108,4.0,0.0
1217,86.0,40,36,6.0,0.0
1218,79.0,32,36,0.0,0.0
1219,84.0,0,36,6.0,0.0
1220,76.0,0,36,1.0,0.0
1221,83.0,0,36,6.0,0.0
1222,77.0,40,36,0.0,0.0
1223,74.0,0,36,1.0,0.0
1224,76.0,0,108,0.0,0.0
1225,72.0,27,81,2.0,0.0
1226,67.0,0,108,4.0,0.0
1227,84.0,0,108,6.0,0.0
1228,60.0,0,36,10.0,0.0
1229,60.0,40,36,5.0,0.0
1230,48.0,0,36,5.0,0.0
1231,64.0,8,108,3.0,0.0
1232,76.0,0,108,1.0,0.0
1233,59.0,0,36,5.0,0.0
1234,59.0,5,36,10.0,0.0
1235,47.0,0,36,5.0,0.0
1236,45.0,1,36,5.0,0.0
1237,57.0,0,36,5.0,0.0
1238,57.0,0,36,10.0,0.0
1239,76.0,39,27,2.0,0.0
1240,57.0,0,36,10.0,0.0
1241,76.0,0,108,3.0,0.0
1242,72.0,0,81,1.0,0.0
1243,57.0,0,36,5.0,0.0
1244,69.0,8,108,4.0,0.0
1245,45.0,40,36,5.0,0.0
1246,72.0,27,81,2.0,0.0
1247,55.0,0,36,5.0,0.0
1248,55.0,0,36,10.0,0.0
1249,43.0,5,36,5.0,0.0
1250,54.0,0,36,10.0,0.0
1251,42.0,1,36,5.0,0.0
1252,54.0,0,36,5.0,0.0
1253,76.0,39,27,2.0,0.0
1254,76.0,0,27,1.0,0.0
1255,54.0,0,36,5.0,0.0
1256,60.0,8,108,4.0,0.0
1257,42.0,0,36,5.0,0.0
1258,76.0,0,108,3.0,0.0
1259,69.0,0,81,1.0,0.0
1260,54.0,40,36,10.0,0.0
1261,69.0,27,81,2.0,0.0
1262,55.0,0,36,10.0,0.0
1263,43.0,5,36,5.0,0.0
1264,55.0,0,36,5.0,0.0
1265,57.0,1,36,5.0,0.0
1266,57.0,0,36,10.0,0.0
1267,45.0,0,36,5.0,0.0
1268,76.0,39,27,2.0,0.0
1269,76.0,0,27,1.0,0.0
1270,45.0,0,36,5.0,0.0
1271,60.0,0,108,4.0,0.0
1272,57.0,40,36,10.0,0.0
1273,57.0,0,36,5.0,0.0
1274,66.0,0,81,2.0,0.0
1275,66.0,27,81,1.0,0.0
1276,69.0,8,108,3.0,0.0
1277,59.0,5,36,5.0,0.0
1278,47.0,0,36,5.0,0.0
1279,59.0,0,36,10.0,0.0
1280,48.0,0,36,5.0,0.0
1281,60.0,1,36,10.0,0.0
1282,60.0,0,36,5.0,0.0
1283,76.0,0,27,1.0,0.0
1284,76.0,39,27,2.0,0.0
1285,59.0,40,36,5.0,0.0
1286,69.0,8,108,3.0,0.0
1287,74.0,0,36,1.0,0.0
1288,62.0,0,108,4.0,0.0
1289,59.0,0,36,10.0,0.0
1290,74.0,0,36,2.0,0.0
1291,47.0,0,36,5.0,0.0
1292,57.0,0,36,10.0,0.0
1293,72.0,0,36,2.0,0.0
1294,45.0,32,36,5.0,0.0
1295,72.0,0,36,1.0,0.0
1296,57.0,0,36,5.0,0.0
1297,56.0,0,36,10.0,0.0
1298,56.0,40,36,5.0,0.0
1299,44.0,0,36,5.0,0.0
1300,74.0,0,36,2.0,0.0
1301,74.0,0,36,1.0,0.0
1302,56.0,0,36,5.0,0.0
1303,64.0,0,108,4.0,0.0
1304,74.0,8,108,3.0,0.0
1305,44.0,40,36,5.0,0.0
1306,56.0,0,36,10.0,0.0
1307,71.0,0,81,1.0,0.0
1308,71.0,27,81,2.0,0.0
1309,54.0,0,36,10.0,0.0
1310,54.0,0,36,5.0,0.0
1311,42.0,5,36,5.0,0.0
1312,40.0,0,36,5.0,0.0
1313,52.0,0,36,5.0,0.0
1314,52.0,1,36,10.0,0.0
1315,74.0,0,27,1.0,0.0
1316,74.0,39,27,2.0,0.0
1317,52.0,40,36,5.0,0.0
1318,59.0,8,108,4.0,0.0
1319,68.0,0,81,2.0,0.0
1320,74.0,0,108,3.0,0.0
1321,68.0,27,81,1.0,0.0
1322,52.0,0,36,10.0,0.0
1323,40.0,0,36,5.0,0.0
1324,54.0,0,36,10.0,0.0
1325,42.0,0,36,5.0,0.0
1326,54.0,5,36,5.0,0.0
1327,56.0,0,36,5.0,0.0
1328,56.0,0,36,10.0,0.0
1329,44.0,1,36,5.0,0.0
1330,74.0,39,27,2.0,0.0
1331,74.0,0,27,1.0,0.0
1332,71.0,0,108,3.0,0.0
1333,59.0,8,108,4.0,0.0
1334,56.0,0,36,10.0,0.0
1335,64.0,0,81,2.0,0.0
1336,64.0,27,81,1.0,0.0
1337,44.0,0,36,5.0,0.0
1338,56.0,40,36,5.0,0.0
1339,57.0,0,36,5.0,0.0
1340,45.0,0,36,5.0,0.0
1341,57.0,5,36,10.0,0.0
1342,59.0,0,36,10.0,0.0
1343,47.0,0,36,5.0,0.0
1344,59.0,1,36,5.0,0.0
1345,74.0,0,27,2.0,0.0
1346,74.0,39,27,1.0,0.0
1347,57.0,0,108,10.0,0.0
1348,57.0,0,108,5.0,0.0
1349,45.0,8,108,5.0,0.0
1350,64.0,0,108,3.0,0.0
1351,60.0,0,108,4.0,0.0
1352,72.0,0,36,2.0,0.0
1353,72.0,40,36,1.0,0.0
1354,71.0,0,36,1.0,0.0
1355,71.0,32,36,2.0,0.0
1356,69.0,0,36,1.0,0.0
1357,69.0,40,36,2.0,0.0
1358,45.0,0,108,10.0,0.0
1359,45.0,8,108,5.0,0.0
1360,84.0,0,36,2.0,0.0
1361,69.0,0,108,3.0,0.0
1362,64.0,0,108,4.0,0.0
1363,33.0,0,108,5.0,0.0
1364,84.0,0,36,6.0,0.0
1365,84.0,0,36,1.0,0.0
1366,84.0,40,36,0.0,0.0
1367,83.0,0,36,1.0,0.0
1368,83.0,0,36,2.0,0.0
1369,83.0,0,36,6.0,0.0
1370,83.0,32,36,0.0,0.0
1371,81.0,0,36,0.0,0.0
1372,81.0,0,36,1.0,0.0
1373,81.0,40,36,2.0,0.0
1374,81.0,0,36,6.0,0.0
1375,76.0,0,108,3.0,0.0
1376,45.0,0,108,10.0,0.0
1377,45.0,0,108,5.0,0.0
1378,79.0,0,36,1.0,0.0
1379,33.0,8,108,5.0,0.0
1380,79.0,0,36,0.0,0.0
1381,60.0,0,108,4.0,0.0
1382,79.0,0,36,6.0,0.0
1383,79.0,40,36,2.0,0.0
1384,78.0,0,36,2.0,0.0
1385,78.0,0,36,0.0,0.0
1386,78.0,32,36,6.0,0.0
1387,78.0,0,36,1.0,0.0
1388,76.0,0,36,0.0,0.0
1389,76.0,0,36,1.0,0.0
1390,76.0,0,36,2.0,0.0
1391,76.0,40,36,6.0,0.0
1392,45.0,0,108,10.0,0.0
1393,72.0,0,108,3.0,0.0
1394,33.0,8,108,5.0,0.0
1395,45.0,0,108,5.0,0.0
1396,75.0,0,36,1.0,0.0
1397,75.0,40,36,0.0,0.0
1398,69.0,0,108,4.0,0.0
1399,75.0,0,36,6.0,0.0
1400,75.0,0,36,2.0,0.0
1401,76.0,0,36,6.0,0.0
1402,76.0,0,36,1.0,0.0
1403,76.0,0,36,0.0,0.0
1404,76.0,32,36,2.0,0.0
1405,78.0,0,36,2.0,0.0
1406,78.0,40,36,0.0,0.0
1407,78.0,0,36,1.0,0.0
1408,78.0,0,36,6.0,0.0
1409,71.0,0,162,2.0,0.0
1410,71.0,0,162,6.0,0.0
1411,45.0,0,108,10.0,0.0
1412,66.0,40,36,3.0,0.0
1413,71.0,34,162,0.0,0.0
1414,45.0,8,108,5.0,0.0
1415,63.0,0,36,4.0,0.0
1416,33.0,0,108,5.0,0.0
1417,71.0,0,162,1.0,0.0
1418,67.0,32,36,3.0,0.0
1419,64.0,0,36,4.0,0.0
1420,66.0,40,36,4.0,0.0
1421,69.0,0,36,3.0,0.0
1422,63.0,0,36,4.0,0.0
1423,57.0,0,108,5.0,0.0
1424,45.0,0,108,5.0,0.0
1425,57.0,8,108,10.0,0.0
1426,66.0,6,36,3.0,0.0
1427,64.0,0,36,4.0,0.0
1428,67.0,11,36,3.0,0.0
1429,73.0,21,27,2.0,0.0
1430,73.0,0,27,0.0,0.0
1431,73.0,0,27,6.0,0.0
1432,73.0,0,27,1.0,0.0
1433,66.0,1,36,4.0,0.0
1434,69.0,0,36,3.0,0.0
1435,75.0,0,27,2.0,0.0
1436,75.0,39,27,1.0,0.0
1437,75.0,0,27,0.0,0.0
1438,75.0,0,27,6.0,0.0
1439,76.0,0,36,0.0,0.0
1440,76.0,0,36,6.0,0.0
1441,64.0,8,108,4.0,0.0
1442,76.0,40,36,2.0,0.0
1443,71.0,0,108,3.0,0.0
1444,43.0,0,108,5.0,0.0
1445,76.0,0,36,1.0,0.0
1446,55.0,0,108,10.0,0.0
1447,55.0,0,108,5.0,0.0
1448,78.0,32,36,0.0,0.0
1449,78.0,0,36,2.0,0.0
1450,78.0,0,36,6.0,0.0
1451,78.0,0,36,1.0,0.0
1452,79.0,0,36,2.0,0.0
1453,79.0,0,36,1.0,0.0
1454,79.0,0,36,6.0,0.0
1455,79.0,40,36,0.0,0.0
1456,75.0,0,108,3.0,0.0
1457,54.0,0,108,10.0,0.0
1458,54.0,0,108,5.0,0.0
1459,81.0,0,36,0.0,0.0
1460,66.0,0,108,4.0,0.0
1461,81.0,0,36,2.0,0.0
1462,42.0,8,108,5.0,0.0
1463,81.0,0,36,6.0,0.0
1464,81.0,40,36,1.0,0.0
1465,83.0,0,36,1.0,0.0
1466,83.0,0,36,6.0,0.0
1467,83.0,0,36,2.0,0.0
1468,83.0,32,36,0.0,0.0
1469,84.0,40,36,6.0,0.0
1470,84.0,0,36,1.0,0.0
1471,84.0,0,36,0.0,0.0
1472,84.0,0,36,2.0,0.0
1473,83.0,0,36,2.0,0.0
1474,83.0,40,36,0.0,0.0
1475,55.0,0,108,5.0,0.0
1476,83.0,0,36,1.0,0.0
1477,83.0,0,36,6.0,0.0
1478,43.0,0,108,5.0,0.0
1479,76.0,0,108,3.0,0.0
1480,55.0,8,108,10.0,0.0
1481,59.0,0,108,4.0,0.0
1482,81.0,0,36,2.0,0.0
1483,81.0,0,36,0.0,0.0
1484,81.0,32,36,6.0,0.0
1485,81.0,0,36,1.0,0.0
1486,79.0,0,36,6.0,0.0
1487,79.0,40,36,0.0,0.0
1488,79.0,0,36,2.0,0.0
1489,79.0,0,36,1.0,0.0
1490,78.0,0,36,6.0,0.0
1491,78.0,0,36,0.0,0.0
1492,45.0,0,108,5.0,0.0
1493,78.0,0,36,1.0,0.0
1494,78.0,0,108,3.0,0.0
1495,78.0,40,36,2.0,0.0
1496,60.0,0,108,4.0,0.0
1497,57.0,0,108,10.0,0.0
1498,57.0,8,108,5.0,0.0
1499,79.0,0,36,1.0,0.0
1500,79.0,0,36,6.0,0.0
1501,79.0,0,36,2.0,0.0
1502,79.0,32,36,0.0,0.0
1503,76.0,85,36,0.0,0.0
1504,76.0,0,36,2.0,0.0
1505,76.0,0,36,1.0,0.0
1506,76.0,0,36,6.0,0.0
1507,71.0,0,81,2.0,0.0
1508,59.0,0,108,10.0,0.0
1509,71.0,0,81,1.0,0.0
1510,59.0,0,108,4.0,0.0
1511,71.0,27,81,0.0,0.0
1512,47.0,9,108,5.0,0.0
1513,79.0,0,108,3.0,0.0
1514,71.0,0,81,6.0,0.0
1515,59.0,0,108,5.0,0.0
1516,76.0,84,27,1.0,0.0
1517,76.0,0,27,6.0,0.0
1518,76.0,0,27,2.0,0.0
1519,76.0,0,27,0.0,0.0
1520,78.0,27,81,6.0,0.0
1521,57.0,0,108,4.0,0.0
1522,35.0,0,108,5.0,0.0
1523,78.0,0,81,1.0,0.0
1524,47.0,9,108,10.0,0.0
1525,78.0,0,108,3.0,0.0
1526,78.0,0,81,0.0,0.0
1527,78.0,0,81,2.0,0.0
1528,47.0,0,108,5.0,0.0
1529,75.0,0,27,0.0,0.0
1530,75.0,0,27,2.0,0.0
1531,75.0,84,27,1.0,0.0
1532,75.0,0,27,6.0,0.0
1533,48.0,9,108,10.0,0.0
1534,76.0,27,81,0.0,0.0
1535,55.0,0,108,4.0,0.0
1536,76.0,0,108,6.0,0.0
1537,76.0,0,81,1.0,0.0
1538,36.0,0,108,5.0,0.0
1539,76.0,0,81,2.0,0.0
1540,48.0,0,108,5.0,0.0
1541,76.0,0,108,3.0,0.0
1542,64.0,0,27,2.0,0.0
1543,64.0,0,27,1.0,0.0
1544,64.0,39,27,0.0,0.0
1545,33.0,8,108,5.0,0.0
1546,72.0,40,36,0.0,0.0
1547,57.0,0,36,4.0,0.0
1548,45.0,0,108,5.0,0.0
1549,45.0,0,108,10.0,0.0
1550,72.0,0,36,2.0,0.0
1551,72.0,0,36,1.0,0.0
1552,64.0,0,108,3.0,0.0
1553,71.0,0,36,2.0,0.0
1554,59.0,0,36,4.0,0.0
1555,71.0,0,36,0.0,0.0
1556,71.0,32,36,1.0,0.0
1557,69.0,0,36,1.0,0.0
1558,60.0,0,36,4.0,0.0
1559,69.0,0,36,0.0,0.0
1560,69.0,112,36,2.0,0.0
1561,67.0,0,108,0.0,0.0
1562,47.0,120,108,10.0,0.0
1563,64.0,0,108,3.0,0.0
1564,67.0,0,108,2.0,0.0
1565,67.0,0,108,1.0,0.0
1566,59.0,0,108,4.0,0.0
1567,47.0,0,108,5.0,0.0
1568,35.0,0,108,5.0,0.0
1569,66.0,0,108,0.0,0.0
1570,57.0,0,108,4.0,0.0
1571,66.0,0,108,2.0,0.0
1572,47.0,0,108,5.0,0.0
1573,66.0,0,108,1.0,0.0
1574,63.0,0,108,3.0,0.0
1575,35.0,120,108,5.0,0.0
1576,47.0,0,108,10.0,0.0
1577,64.0,0,108,2.0,0.0
1578,40.0,0,108,5.0,0.0
1579,28.0,0,108,5.0,0.0
1580,64.0,66,108,0.0,0.0
1581,64.0,0,108,1.0,0.0
1582,40.0,0,108,10.0,0.0
1583,55.0,0,108,4.0,0.0
1584,59.0,0,108,3.0,0.0
1585,64.0,54,54,6.0,0.0
1586,59.0,6,108,1.0,0.0
1587,66.0,60,54,6.0,0.0
1588,67.0,60,54,6.0,0.0
1589,59.0,6,648,1.0,0.0
1590,71.0,60,54,6.0,0.0
1591,69.0,60,54,6.0,0.0
1592,66.0,42,54,6.0,0.0
1593,67.0,40,36,6.0,0.0
1594,66.0,40,36,6.0,0.0
1595,64.0,58,36,6.0,0.0
1596,67.0,0,108,7.0,0.0
1597,55.0,0,54,3.0,0.0
1598,59.0,0,108,2.0,0.0
1599,52.0,54,54,10.0,0.0
1600,40.0,6,108,5.0,0.0
1601,55.0,0,54,4.0,0.0
1602,52.0,0,108,5.0,0.0
1603,71.0,0,108,6.0,0.0
1604,64.0,0,108,6.0,0.0
1605,57.0,0,54,3.0,0.0
1606,54.0,0,54,4.0,0.0
1607,54.0,42,54,10.0,0.0
1608,64.0,18,36,2.0,0.0
1609,43.0,0,108,5.0,0.0
1610,55.0,22,54,10.0,0.0
1611,31.0,0,108,5.0,0.0
1612,52.0,0,108,4.0,0.0
1613,64.0,0,108,6.0,0.0
1614,76.0,0,108,6.0,0.0
1615,71.0,0,108,6.0,0.0
1616,59.0,6,108,3.0,0.0
1617,66.0,32,36,2.0,0.0
1618,59.0,2,54,10.0,0.0
1619,67.0,40,36,2.0,0.0
1620,35.0,0,108,5.0,0.0
1621,66.0,12,36,2.0,0.0
1622,59.0,0,108,4.0,0.0
1623,59.0,27,81,3.0,0.0
1624,57.0,22,54,10.0,0.0
1625,71.0,0,108,6.0,0.0
1626,75.0,0,108,6.0,0.0
1627,47.0,6,108,5.0,0.0
1628,64.0,0,108,6.0,0.0
1629,64.0,5,36,2.0,0.0
1630,54.0,2,54,10.0,0.0
1631,63.0,1,36,2.0,0.0
1632,57.0,39,27,3.0,0.0
1633,55.0,18,36,10.0,0.0
1634,28.0,0,108,5.0,0.0
1635,76.0,0,54,6.0,0.0
1636,55.0,0,108,3.0,0.0
1637,59.0,0,108,4.0,0.0
1638,59.0,22,54,1.0,0.0
1639,64.0,0,108,2.0,0.0
1640,40.0,6,108,5.0,0.0
1641,54.0,32,36,10.0,0.0
1642,71.0,0,54,6.0,0.0
1643,64.0,2,54,1.0,0.0
1644,52.0,58,36,10.0,0.0
1645,76.0,0,54,6.0,0.0
1646,67.0,54,54,1.0,0.0
1647,71.0,6,108,0.0,0.0
1648,71.0,0,54,1.0,0.0
1649,78.0,42,54,6.0,0.0
1650,79.0,18,36,6.0,0.0
1651,71.0,22,294,0.0,0.0
1652,76.0,22,54,1.0,0.0
1653,81.0,38,36,6.0,0.0
1654,79.0,2,54,1.0,0.0
1655,83.0,40,36,6.0,0.0
1656,81.0,18,36,6.0,0.0
1657,78.0,22,54,1.0,0.0
1658,79.0,38,36,6.0,0.0
1659,75.0,2,54,1.0,0.0
1660,78.0,40,36,6.0,0.0
1661,76.0,18,36,1.0,0.0
1662,79.0,0,36,6.0,0.0
1663,78.0,0,36,6.0,0.0
1664,74.0,38,36,1.0,0.0
1665,64.0,2,54,0.0,0.0
1666,76.0,40,36,6.0,0.0
1667,72.0,0,36,1.0,0.0
1668,67.0,0,108,3.0,0.0
1669,67.0,0,54,0.0,0.0
1670,40.0,0,108,5.0,0.0
1671,71.0,6,108,2.0,0.0
1672,71.0,18,36,1.0,0.0
1673,64.0,0,108,4.0,0.0
1674,83.0,0,108,6.0,0.0
1675,64.0,22,54,10.0,0.0
1676,52.0,0,108,5.0,0.0
1677,72.0,32,36,1.0,0.0
1678,71.0,2,54,0.0,0.0
1679,66.0,0,54,10.0,0.0
1680,69.0,40,36,1.0,0.0
1681,67.0,27,81,1.0,0.0
1682,67.0,0,36,10.0,0.0
1683,64.0,0,108,4.0,0.0
1684,43.0,8,108,5.0,0.0
1685,71.0,0,108,3.0,0.0
1686,76.0,0,108,2.0,0.0
1687,31.0,0,108,5.0,0.0
1688,83.0,34,402,6.0,0.0
1689,76.0,40,36,0.0,0.0
1690,78.0,0,36,0.0,0.0
1691,69.0,5,36,10.0,0.0
1692,79.0,0,36,0.0,0.0
1693,71.0,1,36,10.0,0.0
1694,64.0,39,27,1.0,0.0
1695,69.0,0,36,10.0,0.0
1696,75.0,0,108,2.0,0.0
1697,59.0,27,81,1.0,0.0
1698,78.0,40,36,0.0,0.0
1699,66.0,8,108,4.0,0.0
1700,35.0,0,108,5.0,0.0
1701,71.0,0,108,3.0,0.0
1702,47.0,0,108,5.0,0.0
1703,67.0,0,36,10.0,0.0
1704,76.0,5,36,0.0,0.0
1705,75.0,1,36,0.0,0.0
1706,66.0,0,36,10.0,0.0
1707,69.0,39,27,1.0,0.0
1708,68.0,0,108,4.0,0.0
1709,68.0,0,108,1.0,0.0
1710,71.0,0,108,3.0,0.0
1711,68.0,40,36,10.0,0.0
1712,40.0,0,108,5.0,0.0
1713,76.0,0,108,2.0,0.0
1714,28.0,0,108,5.0,0.0
1715,76.0,8,108,0.0,0.0
1716,64.0,32,36,10.0,0.0
1717,62.0,40,36,10.0,0.0
1718,52.0,6,36,10.0,0.0
1719,71.0,8,108,1.0,0.0
1720,88.0,0,36,0.0,0.0
1721,59.0,2,36,10.0,0.0
1722,86.0,0,36,0.0,0.0
1723,81.0,20,18,6.0,0.0
1724,80.0,10,18,6.0,0.0
1725,84.0,0,36,0.0,0.0
1726,60.0,2,36,10.0,0.0
1727,78.0,38,18,6.0,0.0
1728,62.0,40,36,10.0,0.0
1729,80.0,34,162,6.0,0.0
1730,76.0,8,108,1.0,0.0
1731,83.0,0,108,0.0,0.0
1732,64.0,32,36,10.0,0.0
1733,65.0,40,36,10.0,0.0
1734,52.0,0,108,5.0,0.0
1735,59.0,8,108,4.0,0.0
1736,68.0,0,108,3.0,0.0
1737,40.0,0,108,5.0,0.0
1738,71.0,0,108,2.0,0.0
1739,65.0,6,36,10.0,0.0
1740,64.0,11,36,10.0,0.0
1741,78.0,21,27,6.0,0.0
1742,62.0,1,36,10.0,0.0
1743,80.0,39,27,6.0,0.0
1744,33.0,0,108,5.0,0.0
1745,57.0,8,108,4.0,0.0
1746,81.0,34,162,6.0,0.0
1747,72.0,0,108,2.0,0.0
1748,45.0,0,108,5.0,0.0
1749,60.0,40,36,10.0,0.0
1750,64.0,0,108,3.0,0.0
1751,59.0,32,36,10.0,0.0
1752,57.0,40,36,10.0,0.0
1753,57.0,0,36,10.0,0.0
1754,84.0,6,36,0.0,0.0
1755,69.0,8,108,1.0,0.0
1756,59.0,0,36,10.0,0.0
1757,86.0,2,36,0.0,0.0
1758,79.0,20,18,6.0,0.0
1759,60.0,0,36,10.0,0.0
1760,88.0,2,36,0.0,0.0
1761,78.0,10,18,6.0,0.0
1762,76.0,38,18,6.0,0.0
1763,74.0,0,108,1.0,0.0
1764,60.0,40,36,10.0,0.0
1765,81.0,8,108,0.0,0.0
1766,78.0,34,162,6.0,0.0
1767,62.0,32,36,10.0,0.0
1768,64.0,40,36,10.0,0.0
1769,38.0,0,108,5.0,0.0
1770,69.0,0,108,2.0,0.0
1771,66.0,0,108,3.0,0.0
1772,64.0,6,36,10.0,0.0
1773,50.0,0,108,5.0,0.0
1774,57.0,8,108,4.0,0.0
1775,62.0,11,36,10.0,0.0
1776,76.0,21,27,6.0,0.0
1777,60.0,1,36,10.0,0.0
1778,78.0,39,27,6.0,0.0
1779,71.0,0,108,2.0,0.0
1780,55.0,0,108,4.0,0.0
1781,59.0,40,36,10.0,0.0
1782,31.0,8,108,5.0,0.0
1783,79.0,0,108,6.0,0.0
1784,43.0,0,108,5.0,0.0
1785,62.0,0,108,3.0,0.0
1786,57.0,32,36,10.0,0.0
1787,55.0,40,36,10.0,0.0
1788,72.0,12,216,1.0,0.0
1789,64.0,40,36,10.0,0.0
1790,72.0,0,36,6.0,0.0
1791,71.0,40,36,6.0,0.0
1792,62.0,0,36,10.0,0.0
1793,72.0,0,36,6.0,0.0
1794,64.0,40,36,10.0,0.0
1795,81.0,20,216,0.0,0.0
1796,81.0,8,108,6.0,0.0
1797,54.0,40,36,10.0,0.0
1798,55.0,20,36,10.0,0.0
1799,57.0,40,36,10.0,0.0
1800,62.0,0,36,10.0,0.0
1801,71.0,40,36,6.0,0.0
1802,71.0,12,216,1.0,0.0
1803,60.0,0,36,10.0,0.0
1804,69.0,20,36,6.0,0.0
1805,71.0,0,36,6.0,0.0
1806,62.0,40,36,10.0,0.0
1807,79.0,20,216,0.0,0.0
1808,52.0,40,36,10.0,0.0
1809,79.0,8,108,6.0,0.0
1810,54.0,20,36,10.0,0.0
1811,55.0,40,36,10.0,0.0
1812,69.0,40,36,6.0,0.0
1813,69.0,12,216,1.0,0.0
1814,60.0,0,36,10.0,0.0
1815,67.0,20,36,6.0,0.0
1816,59.0,0,36,10.0,0.0
1817,69.0,0,36,6.0,0.0
1818,60.0,40,36,10.0,0.0
1819,78.0,20,216,0.0,0.0
1820,78.0,8,108,6.0,0.0
1821,51.0,40,36,10.0,0.0
1822,52.0,20,36,10.0,0.0
1823,54.0,40,36,10.0,0.0
1824,59.0,0,36,10.0,0.0
1825,67.0,8,228,1.0,0.0
1826,67.0,40,36,6.0,0.0
1827,57.0,20,36,10.0,0.0
1828,66.0,0,36,6.0,0.0
1829,59.0,0,36,10.0,0.0
1830,67.0,40,36,6.0,0.0
1831,49.0,40,36,10.0,0.0
1832,76.0,0,108,0.0,0.0
1833,76.0,0,36,6.0,0.0
1834,75.0,0,36,6.0,0.0
1835,59.0,32,36,10.0,0.0
1836,73.0,40,36,6.0,0.0
1837,57.0,0,36,10.0,0.0
1838,51.0,0,36,10.0,0.0
1839,78.0,40,36,6.0,0.0
1840,69.0,0,108,0.0,0.0
1841,66.0,8,108,1.0,0.0
1842,75.0,32,36,6.0,0.0
1843,59.0,0,36,10.0,0.0
1844,71.0,40,36,6.0,0.0
1845,57.0,0,36,10.0,0.0
1846,64.0,0,108,1.0,0.0
1847,52.0,0,36,10.0,0.0
1848,79.0,40,36,6.0,0.0
1849,67.0,8,108,0.0,0.0
1850,59.0,32,36,10.0,0.0
1851,76.0,0,36,6.0,0.0
1852,57.0,0,36,10.0,0.0
1853,73.0,40,36,6.0,0.0
1854,81.0,40,36,6.0,0.0
1855,54.0,0,36,10.0,0.0
1856,57.0,0,108,1.0,0.0
1857,63.0,8,108,0.0,0.0
1858,78.0,32,36,6.0,0.0
1859,59.0,0,36,10.0,0.0
1860,75.0,40,36,6.0,0.0
1861,57.0,0,36,10.0,0.0
1862,55.0,8,108,1.0,0.0
1863,64.0,0,108,0.0,0.0
1864,55.0,40,36,10.0,0.0
1865,83.0,0,36,6.0,0.0
1866,81.0,32,36,6.0,0.0
1867,54.0,0,36,10.0,0.0
1868,52.0,40,36,10.0,0.0
1869,79.0,0,36,6.0,0.0
1870,84.0,40,36,6.0,0.0
1871,57.0,0,36,10.0,0.0
1872,59.0,0,36,10.0,0.0
1873,83.0,38,36,6.0,0.0
1874,57.0,0,54,5.0,0.0
1875,60.0,0,54,4.0,0.0
1876,45.0,0,54,5.0,0.0
1877,76.0,0,54,0.0,0.0
1878,76.0,0,54,1.0,0.0
1879,64.0,2,54,3.0,0.0
1880,76.0,0,54,2.0,0.0
1881,60.0,40,36,10.0,0.0
1882,81.0,0,36,6.0,0.0
1883,59.0,0,108,10.0,0.0
1884,75.0,0,81,2.0,0.0
1885,59.0,0,108,5.0,0.0
1886,75.0,27,81,0.0,0.0
1887,47.0,8,108,5.0,0.0
1888,79.0,40,36,6.0,0.0
1889,75.0,0,81,1.0,0.0
1890,59.0,0,108,4.0,0.0
1891,71.0,0,108,3.0,0.0
1892,78.0,5,36,6.0,0.0
1893,76.0,1,36,6.0,0.0
1894,78.0,0,27,0.0,0.0
1895,78.0,0,27,2.0,0.0
1896,78.0,39,27,1.0,0.0
1897,71.0,0,108,4.0,0.0
1898,47.0,0,108,5.0,0.0
1899,75.0,40,36,6.0,0.0
1900,71.0,27,81,1.0,0.0
1901,47.0,8,108,10.0,0.0
1902,71.0,0,81,2.0,0.0
1903,35.0,0,108,5.0,0.0
1904,71.0,0,81,0.0,0.0
1905,75.0,0,108,3.0,0.0
1906,78.0,5,36,6.0,0.0
1907,81.0,1,36,6.0,0.0
1908,78.0,39,27,2.0,0.0
1909,78.0,0,27,1.0,0.0
1910,78.0,0,27,0.0,0.0
1911,79.0,40,36,6.0,0.0
1912,52.0,0,108,10.0,0.0
1913,52.0,0,108,5.0,0.0
1914,76.0,0,864,3.0,0.0
1915,79.0,0,108,1.0,0.0
1916,71.0,4,432,4.0,0.0
1917,79.0,0,108,0.0,0.0
1918,79.0,12,864,2.0,0.0
1919,40.0,8,108,5.0,0.0
1920,83.0,32,36,6.0,0.0
1921,81.0,40,36,6.0,0.0
1922,79.0,40,36,6.0,0.0
1923,40.0,8,108,10.0,0.0
1924,83.0,0,108,0.0,0.0
1925,81.0,32,36,6.0,0.0
1926,83.0,40,36,6.0,0.0
1927,79.0,8,108,0.0,0.0
1928,76.0,40,36,6.0,0.0
1929,77.0,32,36,6.0,0.0
1930,79.0,40,36,6.0,0.0
1931,76.0,8,108,0.0,0.0
1932,73.0,36,36,6.0,0.0
1933,74.0,32,36,6.0,0.0
1934,76.0,40,36,6.0,0.0
1935,73.0,0,432,0.0,0.0
1936,73.0,4,432,4.0,0.0
1937,69.0,40,36,6.0,0.0
1938,71.0,40,36,6.0,0.0
1939,73.0,40,36,6.0,0.0
1940,45.0,8,108,5.0,0.0
1941,64.0,0,36,10.0,0.0
1942,69.0,0,108,1.0,0.0
1943,33.0,0,108,5.0,0.0
1944,73.0,40,36,6.0,0.0
1945,74.0,0,36,6.0,0.0
1946,65.0,32,36,10.0,0.0
1947,76.0,40,36,6.0,0.0
1948,67.0,0,36,10.0,0.0
1949,61.0,0,36,10.0,0.0
1950,45.0,8,108,5.0,0.0
1951,76.0,40,36,6.0,0.0
1952,33.0,0,108,5.0,0.0
1953,76.0,0,108,1.0,0.0
1954,62.0,0,36,10.0,0.0
1955,77.0,32,36,6.0,0.0
1956,64.0,0,36,10.0,0.0
1957,79.0,28,36,6.0,0.0
1958,79.0,8,108,1.0,0.0
1959,82.0,36,36,6.0,0.0
1960,57.0,0,36,10.0,0.0
1961,45.0,0,108,5.0,0.0
1962,33.0,0,108,5.0,0.0
1963,81.0,32,36,6.0,0.0
1964,59.0,0,36,10.0,0.0
1965,61.0,0,36,10.0,0.0
1966,79.0,40,36,6.0,0.0
1967,50.0,0,108,10.0,0.0
1968,74.0,0,108,0.0,0.0
1969,77.0,0,108,1.0,0.0
1970,74.0,0,864,3.0,0.0
1971,69.0,4,432,4.0,0.0
1972,77.0,12,864,2.0,0.0
1973,38.0,8,108,5.0,0.0
1974,50.0,0,108,5.0,0.0
1975,77.0,40,36,6.0,0.0
1976,81.0,32,36,6.0,0.0
1977,79.0,40,36,6.0,0.0
1978,77.0,40,36,6.0,0.0
1979,81.0,8,108,1.0,0.0
1980,79.0,32,36,6.0,0.0
1981,81.0,40,36,6.0,0.0
1982,77.0,8,108,1.0,0.0
1983,74.0,40,36,6.0,0.0
1984,76.0,32,36,6.0,0.0
1985,77.0,40,36,6.0,0.0
1986,74.0,8,108,1.0,0.0
1987,71.0,36,36,6.0,0.0
1988,72.0,32,36,6.0,0.0
1989,74.0,40,36,6.0,0.0
1990,71.0,4,432,1.0,0.0
1991,67.0,40,36,6.0,0.0
1992,71.0,0,432,4.0,0.0
1993,69.0,40,36,6.0,0.0
1994,71.0,40,36,6.0,0.0
1995,31.0,8,108,5.0,0.0
1996,43.0,0,108,5.0,0.0
1997,71.0,0,36,6.0,0.0
1998,67.0,0,108,0.0,0.0
1999,62.0,40,36,10.0,0.0
2000,72.0,0,36,6.0,0.0
2001,64.0,32,36,10.0,0.0
2002,74.0,40,36,6.0,0.0
2003,65.0,0,36,10.0,0.0
2004,59.0,40,36,10.0,0.0
2005,31.0,8,108,5.0,0.0
2006,74.0,0,36,6.0,0.0
2007,74.0,0,108,0.0,0.0
2008,43.0,0,108,5.0,0.0
2009,60.0,32,36,10.0,0.0
2010,76.0,0,36,6.0,0.0
2011,77.0,0,36,6.0,0.0
2012,62.0,28,36,10.0,0.0
2013,77.0,0,108,0.0,0.0
2014,81.0,0,36,6.0,0.0
2015,43.0,8,108,5.0,0.0
2016,31.0,0,108,5.0,0.0
2017,55.0,36,36,10.0,0.0
2018,57.0,0,36,10.0,0.0
2019,79.0,32,36,6.0,0.0
2020,77.0,40,36,6.0,0.0
2021,59.0,0,36,10.0,0.0
2022,76.0,0,108,0.0,0.0
2023,67.0,0,108,4.0,0.0
2024,36.0,0,108,5.0,0.0
2025,48.0,0,108,10.0,0.0
2026,72.0,0,108,1.0,0.0
2027,76.0,40,36,6.0,0.0
2028,76.0,0,108,2.0,0.0
2029,72.0,8,108,3.0,0.0
2030,48.0,0,108,5.0,0.0
2031,67.0,32,36,6.0,0.0
2032,69.0,40,36,6.0,0.0
2033,79.0,0,36,1.0,0.0
2034,71.0,40,36,6.0,0.0
2035,72.0,0,36,6.0,0.0
2036,81.0,40,36,1.0,0.0
2037,83.0,0,36,1.0,0.0
2038,74.0,40,36,6.0,0.0
2039,84.0,8,108,1.0,0.0
2040,76.0,40,36,6.0,0.0
2041,77.0,32,36,6.0,0.0
2042,79.0,40,36,6.0,0.0
2043,77.0,0,36,6.0,0.0
2044,50.0,0,81,10.0,0.0
2045,59.0,0,81,10.0,0.0
2046,55.0,0,81,10.0,0.0
2047,48.0,35,81,10.0,0.0
2048,53.0,0,81,10.0,0.0
2049,74.0,40,36,0.0,0.0
2050,76.0,0,36,0.0,0.0
2051,76.0,5,36,6.0,0.0
2052,74.0,1,36,6.0,0.0
2053,77.0,0,36,0.0,0.0
2054,53.0,0,27,10.0,0.0
2055,50.0,0,27,10.0,0.0
2056,59.0,0,27,10.0,0.0
2057,48.0,39,27,10.0,0.0
2058,55.0,0,27,10.0,0.0
2059,76.0,40,36,6.0,0.0
2060,79.0,0,108,2.0,0.0
2061,60.0,0,108,10.0,0.0
2062,76.0,0,108,3.0,0.0
2063,48.0,0,108,10.0,0.0
2064,55.0,8,108,8.0,0.0
2065,48.0,0,108,5.0,0.0
2066,76.0,0,108,0.0,0.0
2067,72.0,0,108,4.0,0.0
2068,36.0,0,108,5.0,0.0
2069,74.0,32,36,6.0,0.0
2070,72.0,40,36,6.0,0.0
2071,74.0,0,36,6.0,0.0
2072,83.0,40,36,1.0,0.0
2073,76.0,0,36,6.0,0.0
2074,84.0,40,36,1.0,0.0
2075,86.0,40,36,1.0,0.0
2076,77.0,0,36,6.0,0.0
2077,84.0,8,108,1.0,0.0
2078,76.0,40,36,6.0,0.0
2079,74.0,32,36,6.0,0.0
2080,72.0,40,36,6.0,0.0
2081,74.0,40,36,6.0,0.0
2082,80.0,0,36,0.0,0.0
2083,53.0,0,81,10.0,0.0
2084,56.0,35,81,10.0,0.0
2085,59.0,0,81,10.0,0.0
2086,48.0,0,81,10.0,0.0
2087,81.0,0,36,0.0,0.0
2088,72.0,5,36,6.0,0.0
2089,71.0,1,36,6.0,0.0
2090,83.0,0,36,0.0,0.0
2091,48.0,0,27,10.0,0.0
2092,59.0,39,27,10.0,0.0
2093,56.0,0,27,10.0,0.0
2094,53.0,0,27,10.0,0.0
2095,36.0,0,108,5.0,0.0
2096,69.0,0,108,4.0,0.0
2097,76.0,0,108,3.0,0.0
2098,52.0,0,108,8.0,0.0
2099,72.0,40,36,6.0,0.0
2100,81.0,0,108,0.0,0.0
2101,48.0,0,108,10.0,0.0
2102,57.0,8,108,10.0,0.0
2103,81.0,0,108,2.0,0.0
2104,48.0,0,108,5.0,0.0
2105,74.0,32,36,6.0,0.0
2106,76.0,40,36,6.0,0.0
2107,77.0,0,36,1.0,0.0
2108,74.0,40,36,6.0,0.0
2109,72.0,40,36,6.0,0.0
2110,76.0,0,36,1.0,0.0
2111,74.0,40,36,1.0,0.0
2112,71.0,0,36,6.0,0.0
2113,76.0,8,108,1.0,0.0
2114,72.0,40,36,6.0,0.0
2115,71.0,32,36,6.0,0.0
2116,69.0,40,36,6.0,0.0
2117,53.0,0,81,10.0,0.0
2118,56.0,0,81,10.0,0.0
2119,48.0,0,81,10.0,0.0
2120,71.0,0,36,6.0,0.0
2121,83.0,40,36,0.0,0.0
2122,50.0,35,81,10.0,0.0
2123,81.0,0,36,0.0,0.0
2124,72.0,5,36,6.0,0.0
2125,80.0,0,36,0.0,0.0
2126,74.0,1,36,6.0,0.0
2127,50.0,0,27,10.0,0.0
2128,53.0,0,27,10.0,0.0
2129,56.0,0,27,10.0,0.0
2130,48.0,39,27,10.0,0.0
2131,60.0,8,108,4.0,0.0
2132,69.0,0,108,2.0,0.0
2133,57.0,0,108,10.0,0.0
2134,48.0,0,108,10.0,0.0
2135,52.0,0,108,8.0,0.0
2136,48.0,0,108,5.0,0.0
2137,36.0,0,108,5.0,0.0
2138,72.0,40,36,6.0,0.0
2139,64.0,0,108,3.0,0.0
2140,81.0,0,108,0.0,0.0
2141,71.0,32,36,6.0,0.0
2142,69.0,40,36,6.0,0.0
2143,74.0,40,36,1.0,0.0
2144,71.0,0,36,6.0,0.0
2145,69.0,0,36,6.0,0.0
2146,72.0,40,36,1.0,0.0
2147,71.0,0,36,1.0,0.0
2148,68.0,40,36,6.0,0.0
2149,69.0,40,36,6.0,0.0
2150,72.0,8,108,1.0,0.0
2151,68.0,32,36,6.0,0.0
2152,66.0,40,36,6.0,0.0
2153,81.0,40,36,0.0,0.0
2154,74.0,35,81,6.0,0.0
2155,80.0,5,36,0.0,0.0
2156,47.0,0,36,10.0,0.0
2157,45.0,1,36,10.0,0.0
2158,78.0,0,36,0.0,0.0
2159,74.0,39,27,6.0,0.0
2160,47.0,40,36,10.0,0.0
2161,62.0,0,108,4.0,0.0
2162,86.0,0,108,0.0,0.0
2163,68.0,0,108,2.0,0.0
2164,64.0,0,108,3.0,0.0
2165,64.0,0,108,6.0,0.0
2166,68.0,0,108,6.0,0.0
2167,71.0,0,108,6.0,0.0
2168,47.0,0,108,5.0,0.0
2169,35.0,0,108,5.0,0.0
2170,74.0,8,108,6.0,0.0
2171,48.0,32,36,10.0,0.0
2172,50.0,40,36,10.0,0.0
2173,64.0,8,108,1.0,0.0
2174,48.0,40,36,10.0,0.0
2175,47.0,32,36,10.0,0.0
2176,45.0,40,36,10.0,0.0
2177,47.0,40,36,10.0,0.0
2178,68.0,8,108,1.0,0.0
2179,45.0,32,36,10.0,0.0
2180,44.0,40,36,10.0,0.0
2181,65.0,0,81,6.0,0.0
2182,71.0,0,81,6.0,0.0
2183,74.0,0,81,6.0,0.0
2184,45.0,40,36,10.0,0.0
2185,71.0,8,108,1.0,0.0
2186,62.0,27,81,6.0,0.0
2187,47.0,5,36,10.0,0.0
2188,48.0,1,36,10.0,0.0
2189,65.0,0,27,6.0,0.0
2190,71.0,0,27,6.0,0.0
2191,74.0,0,27,6.0,0.0
2192,62.0,39,27,6.0,0.0
2193,71.0,0,108,6.0,0.0
2194,68.0,0,108,6.0,0.0
2195,74.0,0,108,6.0,0.0
2196,71.0,0,108,2.0,0.0
2197,64.0,0,108,3.0,0.0
2198,44.0,0,108,5.0,0.0
2199,32.0,0,108,5.0,0.0
2200,74.0,8,1068,1.0,0.0
2201,47.0,40,36,10.0,0.0
2202,64.0,8,108,6.0,0.0
2203,59.0,0,108,4.0,0.0
2204,45.0,32,36,10.0,0.0
2205,44.0,40,36,10.0,0.0
2206,45.0,40,36,10.0,0.0
2207,71.0,8,108,0.0,0.0
2208,44.0,32,36,10.0,0.0
2209,42.0,40,36,10.0,0.0
2210,74.0,8,108,0.0,0.0
2211,44.0,40,36,10.0,0.0
2212,45.0,32,36,10.0,0.0
2213,47.0,40,36,10.0,0.0
2214,77.0,8,108,0.0,0.0
2215,65.0,0,81,6.0,0.0
2216,71.0,0,81,6.0,0.0
2217,74.0,0,81,6.0,0.0
2218,62.0,27,81,6.0,0.0
2219,45.0,40,36,10.0,0.0
2220,44.0,5,36,10.0,0.0
2221,42.0,1,36,10.0,0.0
2222,62.0,39,27,6.0,0.0
2223,71.0,0,27,6.0,0.0
2224,74.0,0,27,6.0,0.0
2225,83.0,0,588,0.0,0.0
2226,74.0,0,36,6.0,0.0
2227,71.0,0,36,6.0,0.0
2228,64.0,0,36,6.0,0.0
2229,28.0,0,108,5.0,0.0
2230,71.0,0,108,3.0,0.0
2231,44.0,40,36,10.0,0.0
2232,64.0,8,108,4.0,0.0
2233,74.0,0,108,2.0,0.0
2234,40.0,0,108,5.0,0.0
2235,42.0,0,36,10.0,0.0
2236,66.0,32,36,6.0,0.0
2237,40.0,0,36,10.0,0.0
2238,68.0,40,36,6.0,0.0
2239,68.0,0,36,6.0,0.0
2240,47.0,40,36,10.0,0.0
2241,69.0,0,36,6.0,0.0
2242,45.0,40,36,10.0,0.0
2243,44.0,0,36,10.0,0.0
2244,71.0,40,36,6.0,0.0
2245,71.0,0,36,6.0,0.0
2246,50.0,40,36,10.0,0.0
2247,48.0,40,36,10.0,0.0
2248,72.0,0,36,6.0,0.0
2249,74.0,40,36,6.0,0.0
2250,47.0,0,36,10.0,0.0
2251,74.0,0,36,6.0,0.0
2252,53.0,40,36,10.0,0.0
2253,76.0,0,36,6.0,0.0
2254,52.0,40,36,10.0,0.0
2255,77.0,0,36,6.0,0.0
2256,50.0,40,36,10.0,0.0
2257,56.0,40,36,10.0,0.0
2258,77.0,0,36,6.0,0.0
2259,57.0,0,36,10.0,0.0
2260,76.0,32,36,6.0,0.0
2261,59.0,0,36,10.0,0.0
2262,74.0,40,36,6.0,0.0
2263,76.0,0,36,6.0,0.0
2264,48.0,40,36,5.0,0.0
2265,76.0,8,108,3.0,0.0
2266,36.0,0,36,5.0,0.0
2267,69.0,0,108,4.0,0.0
2268,60.0,0,36,10.0,0.0
2269,72.0,0,108,1.0,0.0
2270,81.0,0,108,2.0,0.0
2271,81.0,12,216,0.0,0.0
2272,35.0,0,36,5.0,0.0
2273,59.0,0,36,10.0,0.0
2274,80.0,0,36,6.0,0.0
2275,47.0,32,36,5.0,0.0
2276,81.0,0,36,6.0,0.0
2277,57.0,0,36,10.0,0.0
2278,45.0,0,36,5.0,0.0
2279,33.0,40,36,5.0,0.0
2280,64.0,0,108,10.0,0.0
2281,71.0,0,108,2.0,0.0
2282,76.0,40,36,6.0,0.0
2283,40.0,8,108,5.0,0.0
2284,52.0,0,108,5.0,0.0
2285,76.0,0,108,3.0,0.0
2286,71.0,0,108,4.0,0.0
2287,71.0,0,108,1.0,0.0
2288,74.0,20,36,6.0,0.0
2289,72.0,40,36,6.0,0.0
2290,52.0,0,108,10.0,0.0
2291,80.0,0,108,2.0,0.0
2292,74.0,40,36,6.0,0.0
2293,40.0,0,108,5.0,0.0
2294,64.0,0,108,4.0,0.0
2295,76.0,0,228,1.0,0.0
2296,28.0,0,108,5.0,0.0
2297,80.0,0,108,0.0,0.0
2298,71.0,8,108,3.0,0.0
2299,72.0,32,36,6.0,0.0
2300,71.0,40,36,6.0,0.0
2301,69.0,8,108,3.0,0.0
2302,69.0,0,108,4.0,0.0
2303,53.0,0,108,10.0,0.0
2304,29.0,0,108,5.0,0.0
2305,81.0,0,108,0.0,0.0
2306,69.0,40,36,6.0,0.0
2307,69.0,0,108,2.0,0.0
2308,41.0,0,108,5.0,0.0
2309,71.0,32,36,6.0,0.0
2310,72.0,40,36,6.0,0.0
2311,74.0,0,36,1.0,0.0
2312,41.0,8,108,10.0,0.0
2313,71.0,40,36,6.0,0.0
2314,69.0,0,36,6.0,0.0
2315,72.0,32,36,1.0,0.0
2316,68.0,80,36,6.0,0.0
2317,71.0,0,36,1.0,0.0
2318,69.0,8,108,1.0,0.0
2319,67.0,32,36,6.0,0.0
2320,65.0,40,36,6.0,0.0
2321,45.0,0,36,10.0,0.0
2322,67.0,40,36,6.0,0.0
2323,61.0,0,108,4.0,0.0
2324,64.0,0,108,3.0,0.0
2325,85.0,0,36,0.0,0.0
2326,33.0,8,108,5.0,0.0
2327,45.0,0,108,5.0,0.0
2328,67.0,0,108,2.0,0.0
2329,65.0,0,36,6.0,0.0
2330,86.0,32,36,0.0,0.0
2331,47.0,0,36,10.0,0.0
2332,88.0,0,36,0.0,0.0
2333,64.0,0,36,6.0,0.0
2334,49.0,40,36,10.0,0.0
2335,65.0,0,36,6.0,0.0
2336,50.0,0,108,5.0,0.0
2337,65.0,0,108,3.0,0.0
2338,86.0,0,108,0.0,0.0
2339,38.0,8,108,5.0,0.0
2340,65.0,0,108,2.0,0.0
2341,57.0,0,108,4.0,0.0
2342,50.0,40,36,10.0,0.0
2343,67.0,0,36,6.0,0.0
2344,52.0,32,36,10.0,0.0
2345,53.0,40,36,10.0,0.0
2346,69.0,0,36,6.0,0.0
2347,67.0,0,36,6.0,0.0
2348,52.0,40,36,10.0,0.0
2349,61.0,0,36,1.0,0.0
2350,62.0,0,36,1.0,0.0
2351,50.0,40,36,10.0,0.0
2352,65.0,0,36,6.0,0.0
2353,64.0,0,36,6.0,0.0
2354,64.0,0,36,1.0,0.0
2355,49.0,40,36,10.0,0.0
2356,57.0,8,108,1.0,0.0
2357,65.0,0,36,6.0,0.0
2358,50.0,40,36,10.0,0.0
2359,48.0,0,36,10.0,0.0
2360,64.0,32,36,6.0,0.0
2361,62.0,40,36,6.0,0.0
2362,47.0,0,36,10.0,0.0
2363,64.0,0,108,1.0,0.0
2364,57.0,0,108,4.0,0.0
2365,48.0,0,36,10.0,0.0
2366,81.0,40,36,0.0,0.0
2367,36.0,0,108,5.0,0.0
2368,64.0,0,108,2.0,0.0
2369,48.0,0,108,5.0,0.0
2370,64.0,0,36,6.0,0.0
2371,69.0,8,108,3.0,0.0
2372,47.0,0,36,10.0,0.0
2373,62.0,32,36,6.0,0.0
2374,79.0,0,36,0.0,0.0
2375,77.0,0,36,0.0,0.0
2376,60.0,40,36,6.0,0.0
2377,45.0,0,36,10.0,0.0
2378,62.0,40,36,6.0,0.0
2379,47.0,0,108,10.0,0.0
2380,62.0,0,108,4.0,0.0
2381,68.0,0,108,3.0,0.0
2382,47.0,0,108,5.0,0.0
2383,68.0,0,108,1.0,0.0
2384,77.0,40,1236,0.0,0.0
2385,35.0,8,108,5.0,0.0
2386,62.0,0,108,2.0,0.0
2387,64.0,32,36,6.0,0.0
2388,65.0,40,36,6.0,0.0
2389,68.0,40,36,6.0,0.0
2390,50.0,35,81,10.0,0.0
2391,74.0,0,81,1.0,0.0
2392,65.0,5,36,6.0,0.0
2393,64.0,1,36,6.0,0.0
2394,76.0,39,27,1.0,0.0
2395,48.0,0,27,10.0,0.0
2396,74.0,8,108,1.0,0.0
2397,62.0,40,36,6.0,0.0
2398,47.0,0,108,10.0,0.0
2399,64.0,32,36,6.0,0.0
2400,65.0,40,36,6.0,0.0
2401,45.0,0,108,10.0,0.0
2402,45.0,0,108,5.0,0.0
2403,69.0,8,108,3.0,0.0
2404,33.0,0,108,5.0,0.0
2405,74.0,27,81,2.0,0.0
2406,65.0,0,108,4.0,0.0
2407,69.0,40,36,6.0,0.0
2408,65.0,5,36,6.0,0.0
2409,64.0,1,36,6.0,0.0
2410,72.0,39,27,2.0,0.0
2411,74.0,0,108,2.0,0.0
2412,32.0,0,108,5.0,0.0
2413,62.0,40,36,6.0,0.0
2414,44.0,0,108,10.0,0.0
2415,59.0,0,108,4.0,0.0
2416,71.0,0,108,3.0,0.0
2417,44.0,8,108,5.0,0.0
2418,64.0,32,36,6.0,0.0
2419,65.0,40,36,6.0,0.0
2420,71.0,35,81,1.0,0.0
2421,56.0,0,81,10.0,0.0
2422,71.0,40,36,6.0,0.0
2423,65.0,5,36,6.0,0.0
2424,64.0,1,36,6.0,0.0
2425,57.0,0,27,10.0,0.0
2426,72.0,39,27,1.0,0.0
2427,74.0,0,108,1.0,0.0
2428,59.0,8,108,10.0,0.0
2429,62.0,40,36,6.0,0.0
2430,64.0,32,36,6.0,0.0
2431,65.0,40,36,6.0,0.0
2432,71.0,0,108,3.0,0.0
2433,74.0,27,81,2.0,0.0
2434,59.0,0,108,4.0,0.0
2435,74.0,40,36,6.0,0.0
2436,47.0,0,108,5.0,0.0
2437,56.0,0,108,10.0,0.0
2438,35.0,8,108,5.0,0.0
2439,65.0,5,36,6.0,0.0
2440,64.0,1,36,6.0,0.0
2441,72.0,39,27,2.0,0.0
2442,40.0,8,108,5.0,0.0
2443,74.0,0,108,2.0,0.0
2444,52.0,0,108,10.0,0.0
2445,68.0,0,108,3.0,0.0
2446,62.0,40,36,6.0,0.0
2447,59.0,0,108,4.0,0.0
2448,52.0,0,108,5.0,0.0
2449,65.0,32,36,6.0,0.0
2450,68.0,40,36,6.0,0.0
2451,40.0,8,108,10.0,0.0
2452,80.0,27,81,1.0,0.0
2453,71.0,40,36,6.0,0.0
2454,74.0,5,36,6.0,0.0
2455,71.0,1,36,6.0,0.0
2456,81.0,39,27,1.0,0.0
2457,68.0,0,36,6.0,0.0
2458,83.0,8,108,1.0,0.0
2459,71.0,32,36,6.0,0.0
2460,74.0,0,36,0.0,0.0
2461,71.0,40,36,0.0,0.0
2462,74.0,0,36,6.0,0.0
2463,68.0,8,108,4.0,0.0
2464,68.0,27,81,0.0,0.0
2465,38.0,0,36,5.0,0.0
2466,74.0,8,228,3.0,0.0
2467,71.0,0,36,2.0,0.0
2468,50.0,0,36,5.0,0.0
2469,77.0,40,36,6.0,0.0
2470,47.0,0,108,10.0,0.0
2471,56.0,0,156,10.0,0.0
2472,76.0,0,36,6.0,0.0
2473,48.0,5,36,5.0,0.0
2474,72.0,0,36,2.0,0.0
2475,36.0,0,36,5.0,0.0
2476,35.0,1,36,5.0,0.0
2477,74.0,0,36,2.0,0.0
2478,47.0,0,36,5.0,0.0
2479,74.0,0,36,6.0,0.0
2480,77.0,39,27,0.0,0.0
2481,48.0,0,108,5.0,0.0
2482,64.0,0,108,4.0,0.0
2483,76.0,40,36,2.0,0.0
2484,48.0,0,162,10.0,0.0
2485,76.0,0,108,0.0,0.0
2486,76.0,34,162,6.0,0.0
2487,36.0,0,108,5.0,0.0
2488,78.0,32,36,2.0,0.0
2489,54.0,0,36,10.0,0.0
2490,80.0,0,36,2.0,0.0
2491,52.0,40,36,10.0,0.0
2492,33.0,0,108,5.0,0.0
2493,57.0,0,108,10.0,0.0
2494,72.0,0,108,3.0,0.0
2495,45.0,0,108,5.0,0.0
2496,81.0,6,108,0.0,0.0
2497,81.0,0,108,1.0,0.0
2498,81.0,6,36,2.0,0.0
2499,64.0,0,108,4.0,0.0
2500,79.0,32,36,2.0,0.0
2501,50.0,0,54,10.0,0.0
2502,77.0,2,54,6.0,0.0
2503,77.0,40,36,2.0,0.0
2504,64.0,0,108,4.0,0.0
2505,76.0,40,36,2.0,0.0
2506,71.0,0,108,0.0,0.0
2507,71.0,34,162,6.0,0.0
2508,52.0,0,108,5.0,0.0
2509,71.0,0,108,1.0,0.0
2510,68.0,12,216,6.0,0.0
2511,52.0,0,108,10.0,0.0
2512,71.0,0,108,3.0,0.0
2513,40.0,8,108,5.0,0.0
2514,74.0,32,36,2.0,0.0
2515,72.0,40,36,2.0,0.0
2516,40.0,0,108,5.0,0.0
2517,80.0,0,108,1.0,0.0
2518,40.0,0,108,10.0,0.0
2519,71.0,6,108,4.0,0.0
2520,76.0,0,108,3.0,0.0
2521,28.0,0,108,5.0,0.0
2522,71.0,6,36,2.0,0.0
2523,80.0,0,108,0.0,0.0
2524,72.0,20,36,2.0,0.0
2525,69.0,2,54,6.0,0.0
2526,74.0,40,36,2.0,0.0
2527,81.0,8,108,0.0,0.0
2528,33.0,0,108,5.0,0.0
2529,45.0,0,108,10.0,0.0
2530,72.0,40,36,2.0,0.0
2531,45.0,0,108,5.0,0.0
2532,69.0,0,108,4.0,0.0
2533,69.0,0,108,6.0,0.0
2534,81.0,0,36,1.0,0.0
2535,64.0,0,108,3.0,0.0
2536,69.0,32,36,2.0,0.0
2537,69.0,0,36,1.0,0.0
2538,69.0,40,36,2.0,0.0
2539,69.0,0,36,1.0,0.0
2540,70.0,40,36,1.0,0.0
2541,62.0,8,108,4.0,0.0
2542,65.0,0,108,3.0,0.0
2543,70.0,0,36,2.0,0.0
2544,68.0,0,36,1.0,0.0
2545,68.0,32,36,2.0,0.0
2546,69.0,0,36,1.0,0.0
2547,69.0,40,36,2.0,0.0
2548,64.0,0,108,3.0,0.0
2549,70.0,0,36,1.0,0.0
2550,61.0,8,108,4.0,0.0
2551,70.0,40,36,2.0,0.0
2552,68.0,32,36,2.0,0.0
2553,68.0,0,36,1.0,0.0
2554,69.0,40,36,2.0,0.0
2555,69.0,0,36,1.0,0.0
2556,70.0,40,36,1.0,0.0
2557,62.0,8,108,4.0,0.0
2558,65.0,0,108,3.0,0.0
2559,70.0,0,36,2.0,0.0
2560,68.0,0,36,1.0,0.0
2561,68.0,32,36,2.0,0.0
2562,69.0,40,36,1.0,0.0
2563,69.0,0,36,2.0,0.0
2564,64.0,8,108,3.0,0.0
2565,57.0,0,108,4.0,0.0
2566,61.0,40,36,1.0,0.0
2567,61.0,0,36,2.0,0.0
2568,62.0,0,36,2.0,0.0
2569,62.0,32,36,1.0,0.0
2570,64.0,40,36,2.0,0.0
2571,64.0,0,36,1.0,0.0
2572,53.0,0,108,10.0,0.0
2573,69.0,8,108,3.0,0.0
2574,53.0,0,108,5.0,0.0
2575,57.0,0,108,4.0,0.0
2576,62.0,0,36,1.0,0.0
2577,62.0,40,36,2.0,0.0
2578,41.0,0,108,5.0,0.0
2579,64.0,0,36,1.0,0.0
2580,64.0,32,36,2.0,0.0
2581,65.0,40,36,1.0,0.0
2582,65.0,0,36,2.0,0.0
2583,64.0,0,36,2.0,0.0
2584,49.0,0,108,5.0,0.0
2585,37.0,8,108,5.0,0.0
2586,49.0,0,108,10.0,0.0
2587,64.0,40,36,1.0,0.0
2588,57.0,0,108,4.0,0.0
2589,69.0,0,108,3.0,0.0
2590,69.0,0,36,1.0,0.0
2591,69.0,32,36,2.0,0.0
2592,67.0,40,36,2.0,0.0
2593,67.0,0,36,1.0,0.0
2594,65.0,40,36,1.0,0.0
2595,50.0,0,108,10.0,0.0
2596,50.0,0,108,5.0,0.0
2597,57.0,0,108,4.0,0.0
2598,62.0,8,108,3.0,0.0
2599,38.0,0,108,5.0,0.0
2600,65.0,0,36,2.0,0.0
2601,64.0,32,36,2.0,0.0
2602,64.0,0,36,1.0,0.0
2603,62.0,80,36,1.0,0.0
2604,62.0,0,36,2.0,0.0
2605,57.0,0,108,4.0,0.0
2606,64.0,0,108,3.0,0.0
2607,33.0,0,108,5.0,0.0
2608,61.0,8,108,2.0,0.0
2609,45.0,0,108,5.0,0.0
2610,45.0,0,108,10.0,0.0
2611,61.0,0,108,1.0,0.0
2612,81.0,32,36,0.0,0.0
2613,81.0,40,36,0.0,0.0
2614,74.0,8,108,2.0,0.0
2615,82.0,40,36,0.0,0.0
2616,77.0,0,108,1.0,0.0
2617,80.0,32,36,0.0,0.0
2618,81.0,40,36,0.0,0.0
2619,76.0,8,108,1.0,0.0
2620,82.0,40,36,0.0,0.0
2621,73.0,0,108,2.0,0.0
2622,80.0,32,36,0.0,0.0
2623,81.0,40,36,0.0,0.0
2624,74.0,8,108,2.0,0.0
2625,82.0,40,36,0.0,0.0
2626,77.0,0,108,1.0,0.0
2627,80.0,32,36,0.0,0.0
2628,81.0,40,36,0.0,0.0
2629,73.0,40,36,0.0,0.0
2630,69.0,8,108,2.0,0.0
2631,76.0,0,108,1.0,0.0
2632,74.0,32,36,0.0,0.0
2633,76.0,40,36,0.0,0.0
2634,81.0,0,108,1.0,0.0
2635,65.0,8,108,4.0,0.0
2636,65.0,0,108,3.0,0.0
2637,69.0,0,108,2.0,0.0
2638,74.0,40,36,0.0,0.0
2639,76.0,32,36,0.0,0.0
2640,77.0,40,36,0.0,0.0
2641,76.0,40,36,0.0,0.0
2642,64.0,0,108,2.0,0.0
2643,61.0,0,108,3.0,0.0
2644,81.0,0,108,1.0,0.0
2645,61.0,8,108,4.0,0.0
2646,81.0,32,36,0.0,0.0
2647,79.0,40,36,0.0,0.0
2648,77.0,40,36,0.0,0.0
2649,62.0,0,108,2.0,0.0
2650,62.0,0,108,3.0,0.0
2651,69.0,0,108,1.0,0.0
2652,62.0,8,108,4.0,0.0
2653,76.0,32,36,0.0,0.0
2654,74.0,40,36,0.0,0.0
2655,73.0,40,36,0.0,0.0
2656,64.0,0,108,2.0,0.0
2657,69.0,0,36,1.0,0.0
2658,57.0,0,108,4.0,0.0
2659,57.0,8,108,3.0,0.0
2660,76.0,32,36,1.0,0.0
2661,71.0,0,36,0.0,0.0
2662,77.0,40,36,1.0,0.0
2663,69.0,0,36,0.0,0.0
2664,57.0,35,81,10.0,0.0
2665,79.0,40,36,1.0,0.0
2666,77.0,5,36,1.0,0.0
2667,79.0,1,36,1.0,0.0
2668,59.0,39,27,10.0,0.0
2669,61.0,8,108,10.0,0.0
2670,69.0,40,36,1.0,0.0
2671,76.0,32,36,1.0,0.0
2672,77.0,40,36,1.0,0.0
2673,64.0,0,108,4.0,0.0
2674,45.0,0,108,5.0,0.0
2675,79.0,40,36,1.0,0.0
2676,69.0,8,108,3.0,0.0
2677,57.0,0,108,5.0,0.0
2678,73.0,0,108,2.0,0.0
2679,57.0,0,108,10.0,0.0
2680,78.0,32,36,1.0,0.0
2681,76.0,40,36,1.0,0.0
2682,62.0,0,108,4.0,0.0
2683,74.0,8,108,2.0,0.0
2684,62.0,0,108,10.0,0.0
2685,69.0,0,108,3.0,0.0
2686,78.0,40,36,1.0,0.0
2687,50.0,0,108,5.0,0.0
2688,38.0,0,108,5.0,0.0
2689,76.0,32,36,1.0,0.0
2690,81.0,0,36,0.0,0.0
2691,83.0,40,36,0.0,0.0
2692,74.0,0,36,1.0,0.0
2693,84.0,40,36,0.0,0.0
2694,50.0,35,81,10.0,0.0
2695,83.0,5,36,0.0,0.0
2696,84.0,1,36,0.0,0.0
2697,52.0,39,27,10.0,0.0
2698,74.0,40,36,0.0,0.0
2699,54.0,8,108,10.0,0.0
2700,81.0,32,36,0.0,0.0
2701,83.0,40,36,0.0,0.0
2702,77.0,0,156,1.0,0.0
2703,50.0,0,108,5.0,0.0
2704,62.0,0,108,3.0,0.0
2705,65.0,0,108,4.0,0.0
2706,38.0,8,108,5.0,0.0
2707,50.0,0,108,10.0,0.0
2708,84.0,40,36,0.0,0.0
2709,69.0,0,108,2.0,0.0
2710,83.0,32,36,0.0,0.0
2711,81.0,40,36,0.0,0.0
2712,43.0,0,108,10.0,0.0
2713,43.0,0,108,5.0,0.0
2714,74.0,0,108,3.0,0.0
2715,31.0,0,108,5.0,0.0
2716,62.0,8,108,4.0,0.0
2717,67.0,0,108,2.0,0.0
2718,83.0,40,36,0.0,0.0
2719,74.0,0,36,1.0,0.0
2720,81.0,32,36,0.0,0.0
2721,79.0,40,36,0.0,0.0
2722,76.0,0,36,1.0,0.0
2723,77.0,40,36,1.0,0.0
2724,55.0,35,81,10.0,0.0
2725,76.0,5,36,1.0,0.0
2726,77.0,1,36,1.0,0.0
2727,57.0,39,27,10.0,0.0
2728,67.0,40,36,1.0,0.0
2729,59.0,8,108,10.0,0.0
2730,74.0,32,36,1.0,0.0
2731,76.0,40,36,1.0,0.0
2732,77.0,40,36,1.0,0.0
2733,55.0,0,108,10.0,0.0
2734,55.0,0,108,5.0,0.0
2735,67.0,8,108,3.0,0.0
2736,62.0,0,108,4.0,0.0
2737,82.0,40,156,0.0,0.0
2738,74.0,0,108,2.0,0.0
2739,43.0,0,108,5.0,0.0
2740,76.0,32,36,1.0,0.0
2741,74.0,40,36,1.0,0.0
2742,60.0,0,108,4.0,0.0
2743,36.0,0,108,5.0,0.0
2744,76.0,27,81,1.0,0.0
2745,48.0,0,108,5.0,0.0
2746,76.0,0,108,2.0,0.0
2747,67.0,8,108,3.0,0.0
2748,60.0,0,108,10.0,0.0
2749,79.0,5,36,0.0,0.0
2750,81.0,1,36,0.0,0.0
2751,72.0,39,27,1.0,0.0
2752,67.0,0,81,1.0,0.0
2753,82.0,40,36,0.0,0.0
2754,48.0,35,81,10.0,0.0
2755,81.0,5,36,0.0,0.0
2756,82.0,1,36,0.0,0.0
2757,65.0,39,27,1.0,0.0
2758,50.0,0,27,10.0,0.0
2759,67.0,27,81,1.0,0.0
2760,52.0,8,108,10.0,0.0
2761,72.0,40,36,0.0,0.0
2762,79.0,5,36,0.0,0.0
2763,81.0,1,36,0.0,0.0
2764,72.0,39,27,1.0,0.0
2765,48.0,0,108,10.0,0.0
2766,48.0,0,108,5.0,0.0
2767,76.0,27,81,1.0,0.0
2768,36.0,0,108,5.0,0.0
2769,82.0,40,36,0.0,0.0
2770,76.0,0,108,2.0,0.0
2771,67.0,8,108,4.0,0.0
2772,72.0,0,108,3.0,0.0
2773,81.0,5,36,0.0,0.0
2774,79.0,1,36,0.0,0.0
2775,79.0,39,27,1.0,0.0
2776,65.0,8,108,4.0,0.0
2777,81.0,40,36,1.0,0.0
2778,53.0,0,36,10.0,0.0
2779,77.0,34,162,2.0,0.0
2780,53.0,0,36,5.0,0.0
2781,41.0,0,36,5.0,0.0
2782,81.0,4,432,0.0,0.0
2783,72.0,0,108,3.0,0.0
2784,40.0,0,36,5.0,0.0
2785,52.0,32,36,10.0,0.0
2786,79.0,0,36,1.0,0.0
2787,52.0,0,36,5.0,0.0
2788,38.0,0,36,5.0,0.0
2789,50.0,0,36,10.0,0.0
2790,81.0,0,36,1.0,0.0
2791,50.0,40,36,5.0,0.0
2792,50.0,0,36,10.0,0.0
2793,50.0,6,36,5.0,0.0
2794,74.0,6,108,3.0,0.0
2795,38.0,0,36,5.0,0.0
2796,65.0,0,108,4.0,0.0
2797,77.0,27,81,1.0,0.0
2798,48.0,0,36,10.0,0.0
2799,36.0,0,36,5.0,0.0
2800,48.0,5,36,5.0,0.0
2801,81.0,2,54,2.0,0.0
2802,47.0,0,36,5.0,0.0
2803,47.0,1,36,10.0,0.0
2804,35.0,0,36,5.0,0.0
2805,81.0,39,27,1.0,0.0
2806,74.0,27,81,2.0,0.0
2807,74.0,0,81,1.0,0.0
2808,65.0,0,108,4.0,0.0
2809,74.0,8,108,3.0,0.0
2810,35.0,40,36,5.0,0.0
2811,47.0,0,36,10.0,0.0
2812,47.0,0,36,5.0,0.0
2813,49.0,0,36,5.0,0.0
2814,37.0,5,36,5.0,0.0
2815,49.0,0,36,10.0,0.0
2816,50.0,0,36,5.0,0.0
2817,50.0,0,36,10.0,0.0
2818,38.0,1,36,5.0,0.0
2819,81.0,39,27,1.0,0.0
2820,81.0,0,27,2.0,0.0
2821,71.0,27,81,2.0,0.0
2822,65.0,0,108,4.0,0.0
2823,50.0,0,36,10.0,0.0
2824,50.0,0,36,5.0,0.0
2825,74.0,8,108,3.0,0.0
2826,71.0,0,81,1.0,0.0
2827,38.0,36,36,5.0,0.0
2828,52.0,5,36,10.0,0.0
2829,40.0,0,36,5.0,0.0
2830,52.0,0,36,5.0,0.0
2831,53.0,0,36,5.0,0.0
2832,53.0,0,36,10.0,0.0
2833,41.0,1,36,5.0,0.0
2834,81.0,0,27,2.0,0.0
2835,81.0,39,27,1.0,0.0
2836,40.0,0,36,5.0,0.0
2837,79.0,4,432,0.0,0.0
2838,52.0,0,36,10.0,0.0
2839,70.0,0,108,4.0,0.0
2840,79.0,40,36,1.0,0.0
2841,79.0,0,36,2.0,0.0
2842,52.0,0,36,5.0,0.0
2843,67.0,8,108,3.0,0.0
2844,38.0,0,36,5.0,0.0
2845,50.0,0,36,5.0,0.0
2846,77.0,0,36,1.0,0.0
2847,50.0,0,36,10.0,0.0
2848,77.0,32,36,2.0,0.0
2849,79.0,0,36,1.0,0.0
2850,37.0,40,36,5.0,0.0
2851,49.0,0,36,5.0,0.0
2852,49.0,0,36,10.0,0.0
2853,79.0,0,36,2.0,0.0
2854,76.0,27,81,2.0,0.0
2855,69.0,8,108,3.0,0.0
2856,76.0,0,81,1.0,0.0
2857,37.0,0,36,5.0,0.0
2858,64.0,0,108,4.0,0.0
2859,49.0,0,36,10.0,0.0
2860,49.0,40,36,5.0,0.0
2861,35.0,0,36,5.0,0.0
2862,47.0,0,36,10.0,0.0
2863,47.0,5,36,5.0,0.0
2864,45.0,0,36,10.0,0.0
2865,33.0,1,36,5.0,0.0
2866,45.0,0,36,5.0,0.0
2867,79.0,39,27,1.0,0.0
2868,79.0,0,27,2.0,0.0
2869,73.0,0,81,2.0,0.0
2870,64.0,8,108,4.0,0.0
2871,73.0,27,81,1.0,0.0
2872,45.0,0,36,5.0,0.0
2873,69.0,0,108,3.0,0.0
2874,45.0,40,36,10.0,0.0
2875,33.0,0,36,5.0,0.0
2876,47.0,5,36,10.0,0.0
2877,47.0,0,36,5.0,0.0
2878,35.0,0,36,5.0,0.0
2879,37.0,0,36,5.0,0.0
2880,49.0,1,36,5.0,0.0
2881,49.0,0,36,10.0,0.0
2882,79.0,39,27,2.0,0.0
2883,79.0,0,27,1.0,0.0
2884,49.0,36,36,5.0,0.0
2885,49.0,0,36,10.0,0.0
2886,64.0,8,108,4.0,0.0
2887,69.0,27,81,1.0,0.0
2888,37.0,0,36,5.0,0.0
2889,69.0,0,108,3.0,0.0
2890,69.0,0,81,2.0,0.0
2891,38.0,0,36,5.0,0.0
2892,50.0,0,36,10.0,0.0
2893,50.0,5,36,5.0,0.0
2894,52.0,0,36,5.0,0.0
2895,52.0,0,36,10.0,0.0
2896,40.0,1,36,5.0,0.0
2897,79.0,39,27,1.0,0.0
2898,79.0,0,27,2.0,0.0
2899,50.0,0,108,5.0,0.0
2900,77.0,0,36,0.0,0.0
2901,77.0,40,36,2.0,0.0
2902,57.0,0,108,4.0,0.0
2903,69.0,8,108,3.0,0.0
2904,50.0,0,108,10.0,0.0
2905,38.0,0,108,5.0,0.0
2906,77.0,0,36,1.0,0.0
2907,81.0,0,36,2.0,0.0
2908,81.0,0,36,0.0,0.0
2909,81.0,32,36,1.0,0.0
2910,79.0,40,36,0.0,0.0
2911,79.0,0,36,2.0,0.0
2912,79.0,0,36,1.0,0.0
2913,77.0,0,36,2.0,0.0
2914,77.0,40,36,1.0,0.0
2915,74.0,0,108,3.0,0.0
2916,77.0,0,36,0.0,0.0
2917,38.0,8,108,5.0,0.0
2918,26.0,0,108,5.0,0.0
2919,69.0,0,108,4.0,0.0
2920,38.0,0,108,10.0,0.0
2921,76.0,0,36,2.0,0.0
2922,76.0,0,36,0.0,0.0
2923,76.0,32,36,1.0,0.0
2924,74.0,40,36,2.0,0.0
2925,74.0,0,36,0.0,0.0
2926,74.0,0,36,1.0,0.0
2927,72.0,0,36,2.0,0.0
2928,38.0,0,108,5.0,0.0
2929,38.0,0,108,10.0,0.0
2930,26.0,0,108,5.0,0.0
2931,69.0,0,108,3.0,0.0
2932,72.0,40,36,0.0,0.0
2933,72.0,0,36,1.0,0.0
2934,65.0,8,108,4.0,0.0
2935,71.0,0,36,0.0,0.0
2936,71.0,0,36,1.0,0.0
2937,71.0,32,36,2.0,0.0
2938,69.0,0,36,2.0,0.0
2939,69.0,40,36,0.0,0.0
2940,69.0,0,36,1.0,0.0
2941,68.0,0,36,2.0,0.0
2942,68.0,0,36,0.0,0.0
2943,68.0,40,36,1.0,0.0
2944,65.0,0,108,3.0,0.0
2945,62.0,0,108,4.0,0.0
2946,38.0,8,108,10.0,0.0
2947,26.0,0,108,5.0,0.0
2948,38.0,0,108,5.0,0.0
2949,69.0,0,36,1.0,0.0
2950,69.0,0,36,0.0,0.0
2951,69.0,32,36,2.0,0.0
2952,71.0,0,36,1.0,0.0
2953,71.0,0,36,0.0,0.0
2954,71.0,40,36,2.0,0.0
2955,38.0,0,108,10.0,0.0
2956,64.0,0,162,1.0,0.0
2957,38.0,8,108,5.0,0.0
2958,64.0,0,162,2.0,0.0
2959,26.0,0,108,5.0,0.0
2960,59.0,0,36,3.0,0.0
2961,56.0,40,36,4.0,0.0
2962,64.0,34,162,0.0,0.0
2963,60.0,0,36,3.0,0.0
2964,57.0,32,36,4.0,0.0
2965,62.0,0,36,3.0,0.0
2966,59.0,40,36,4.0,0.0
2967,50.0,0,108,10.0,0.0
2968,38.0,0,108,5.0,0.0
2969,50.0,8,108,5.0,0.0
2970,56.0,0,36,4.0,0.0
2971,59.0,6,36,3.0,0.0
2972,57.0,0,36,4.0,0.0
2973,60.0,11,36,3.0,0.0
2974,66.0,21,27,2.0,0.0
2975,66.0,0,27,1.0,0.0
2976,66.0,0,27,0.0,0.0
2977,62.0,1,36,3.0,0.0
2978,59.0,0,36,4.0,0.0
2979,68.0,39,27,0.0,0.0
2980,68.0,0,27,2.0,0.0
2981,68.0,0,27,1.0,0.0
2982,48.0,0,108,5.0,0.0
2983,64.0,0,108,3.0,0.0
2984,48.0,0,108,10.0,0.0
2985,69.0,0,36,2.0,0.0
2986,36.0,8,108,5.0,0.0
2987,69.0,0,36,0.0,0.0
2988,57.0,0,108,4.0,0.0
2989,69.0,40,36,1.0,0.0
2990,71.0,0,36,0.0,0.0
2991,71.0,0,36,2.0,0.0
2992,71.0,32,36,1.0,0.0
2993,72.0,0,36,0.0,0.0
2994,72.0,0,36,2.0,0.0
2995,72.0,40,36,1.0,0.0
2996,74.0,40,36,1.0,0.0
2997,74.0,0,36,2.0,0.0
2998,74.0,0,36,0.0,0.0
2999,59.0,0,108,4.0,0.0
3000,35.0,0,108,5.0,0.0
3001,47.0,0,108,5.0,0.0
3002,68.0,8,108,3.0,0.0
3003,47.0,0,108,10.0,0.0
3004,76.0,32,36,0.0,0.0
3005,76.0,0,36,1.0,0.0
3006,76.0,0,36,2.0,0.0
3007,77.0,0,36,2.0,0.0
3008,77.0,40,36,1.0,0.0
3009,77.0,0,36,0.0,0.0
3010,76.0,0,36,1.0,0.0
3011,76.0,0,36,0.0,0.0
3012,48.0,0,108,5.0,0.0
3013,76.0,40,36,2.0,0.0
3014,36.0,0,108,5.0,0.0
3015,48.0,0,108,10.0,0.0
3016,64.0,8,108,4.0,0.0
3017,69.0,0,108,3.0,0.0
3018,74.0,0,36,1.0,0.0
3019,74.0,32,36,2.0,0.0
3020,74.0,0,36,0.0,0.0
3021,72.0,40,36,2.0,0.0
3022,72.0,0,36,0.0,0.0
3023,72.0,0,36,1.0,0.0
3024,65.0,0,108,4.0,0.0
3025,71.0,0,36,2.0,0.0
3026,71.0,0,108,3.0,0.0
3027,71.0,40,36,0.0,0.0
3028,50.0,0,108,10.0,0.0
3029,71.0,0,36,1.0,0.0
3030,38.0,0,108,5.0,0.0
3031,50.0,8,108,5.0,0.0
3032,72.0,32,36,0.0,0.0
3033,72.0,0,36,1.0,0.0
3034,72.0,0,36,2.0,0.0
3035,69.0,0,36,1.0,0.0
3036,69.0,85,36,2.0,0.0
3037,69.0,0,36,0.0,0.0
3038,64.0,0,81,2.0,0.0
3039,72.0,9,108,3.0,0.0
3040,52.0,0,108,5.0,0.0
3041,40.0,0,108,5.0,0.0
3042,64.0,27,81,1.0,0.0
3043,64.0,0,108,4.0,0.0
3044,64.0,0,81,0.0,0.0
3045,52.0,0,108,10.0,0.0
3046,69.0,0,27,0.0,0.0
3047,69.0,0,27,2.0,0.0
3048,69.0,84,27,1.0,0.0
3049,71.0,0,81,2.0,0.0
3050,71.0,0,108,3.0,0.0
3051,28.0,0,108,5.0,0.0
3052,40.0,0,108,10.0,0.0
3053,40.0,0,108,5.0,0.0
3054,71.0,0,81,0.0,0.0
3055,62.0,9,108,4.0,0.0
3056,71.0,27,81,1.0,0.0
3057,68.0,0,27,1.0,0.0
3058,68.0,0,27,2.0,0.0
3059,68.0,84,27,0.0,0.0
3060,41.0,9,108,10.0,0.0
3061,41.0,0,108,5.0,0.0
3062,29.0,0,108,5.0,0.0
3063,69.0,0,108,3.0,0.0
3064,60.0,0,108,4.0,0.0
3065,69.0,0,108,0.0,0.0
3066,69.0,27,81,2.0,0.0
3067,69.0,0,81,1.0,0.0
3068,57.0,39,27,2.0,0.0
3069,57.0,0,27,1.0,0.0
3070,53.0,0,108,4.0,0.0
3071,57.0,0,108,3.0,0.0
3072,65.0,0,36,1.0,0.0
3073,26.0,8,108,5.0,0.0
3074,57.0,27,81,10.0,0.0
3075,65.0,40,36,2.0,0.0
3076,38.0,0,108,10.0,0.0
3077,38.0,0,108,5.0,0.0
3078,64.0,0,36,2.0,0.0
3079,64.0,5,36,1.0,0.0
3080,62.0,1,36,2.0,0.0
3081,62.0,0,36,1.0,0.0
3082,59.0,39,27,10.0,0.0
3083,60.0,0,108,1.0,0.0
3084,40.0,8,108,5.0,0.0
3085,64.0,0,108,3.0,0.0
3086,60.0,0,108,2.0,0.0
3087,28.0,0,108,5.0,0.0
3088,60.0,40,36,10.0,0.0
3089,40.0,0,108,10.0,0.0
3090,52.0,0,108,4.0,0.0
3091,62.0,32,36,10.0,0.0
3092,64.0,40,36,10.0,0.0
3093,59.0,0,108,2.0,0.0
3094,28.0,0,108,5.0,0.0
3095,68.0,0,108,0.0,0.0
3096,40.0,0,108,5.0,0.0
3097,64.0,0,108,3.0,0.0
3098,52.0,8,108,4.0,0.0
3099,59.0,0,108,1.0,0.0
3100,62.0,40,36,10.0,0.0
3101,40.0,0,108,10.0,0.0
3102,60.0,32,36,10.0,0.0
3103,59.0,40,36,10.0,0.0
3104,45.0,0,108,5.0,0.0
3105,69.0,0,108,0.0,0.0
3106,57.0,8,108,2.0,0.0
3107,52.0,0,108,4.0,0.0
3108,33.0,0,108,5.0,0.0
3109,60.0,0,108,3.0,0.0
3110,45.0,0,108,10.0,0.0
3111,60.0,40,36,10.0,0.0
3112,57.0,0,108,1.0,0.0
3113,59.0,32,36,10.0,0.0
3114,57.0,40,36,10.0,0.0
3115,64.0,22,54,6.0,0.0
3116,60.0,18,36,10.0,0.0
3117,59.0,38,36,10.0,0.0
3118,66.0,2,54,6.0,0.0
3119,57.0,40,36,10.0,0.0
3120,67.0,0,36,6.0,0.0
3121,59.0,40,36,10.0,0.0
3122,69.0,40,36,6.0,0.0
3123,57.0,0,36,10.0,0.0
3124,55.0,40,36,10.0,0.0
3125,71.0,0,36,6.0,0.0
3126,69.0,40,36,6.0,0.0
3127,54.0,0,36,10.0,0.0
3128,64.0,0,36,10.0,0.0
3129,67.0,40,36,6.0,0.0
3130,63.0,40,36,10.0,0.0
3131,66.0,0,36,6.0,0.0
3132,67.0,40,36,6.0,0.0
3133,64.0,8,108,10.0,0.0
3134,66.0,32,36,6.0,0.0
3135,64.0,40,36,6.0,0.0
3136,45.0,27,81,10.0,0.0
3137,60.0,8,108,10.0,0.0
3138,65.0,40,36,6.0,0.0
3139,64.0,5,36,6.0,0.0
3140,62.0,1,36,6.0,0.0
3141,47.0,39,27,10.0,0.0
3142,57.0,8,108,10.0,0.0
3143,48.0,0,36,10.0,0.0
3144,64.0,40,36,6.0,0.0
3145,62.0,0,36,6.0,0.0
3146,50.0,32,36,10.0,0.0
3147,60.0,40,36,6.0,0.0
3148,52.0,0,36,10.0,0.0
3149,50.0,40,36,10.0,0.0
3150,59.0,8,108,10.0,0.0
3151,69.0,0,36,6.0,0.0
3152,48.0,32,36,10.0,0.0
3153,47.0,40,36,10.0,0.0
3154,68.0,0,36,6.0,0.0
3155,69.0,8,108,6.0,0.0
3156,48.0,40,36,10.0,0.0
3157,64.0,0,108,10.0,0.0
3158,47.0,32,36,10.0,0.0
3159,45.0,40,36,10.0,0.0
3160,52.0,22,54,10.0,0.0
3161,48.0,18,36,10.0,0.0
3162,47.0,38,36,10.0,0.0
3163,54.0,2,54,10.0,0.0
3164,45.0,40,36,10.0,0.0
3165,47.0,0,36,10.0,0.0
3166,55.0,40,36,10.0,0.0
3167,57.0,0,36,10.0,0.0
3168,45.0,40,36,10.0,0.0
3169,43.0,40,36,10.0,0.0
3170,59.0,0,36,10.0,0.0
3171,57.0,40,36,10.0,0.0
3172,42.0,0,36,10.0,0.0
3173,55.0,40,36,10.0,0.0
3174,52.0,0,36,10.0,0.0
3175,51.0,80,36,10.0,0.0
3176,54.0,0,36,10.0,0.0
3177,55.0,8,108,10.0,0.0
3178,52.0,0,108,10.0,0.0
3179,64.0,32,36,6.0,0.0
3180,66.0,40,36,6.0,0.0
3181,40.0,35,81,10.0,0.0
3182,67.0,40,36,6.0,0.0
3183,64.0,5,36,6.0,0.0
3184,62.0,1,36,6.0,0.0
3185,42.0,39,27,10.0,0.0
3186,43.0,40,36,10.0,0.0
3187,61.0,8,108,6.0,0.0
3188,45.0,32,36,10.0,0.0
3189,47.0,40,36,10.0,0.0
3190,63.0,40,156,6.0,0.0
3191,59.0,0,228,10.0,0.0
3192,45.0,40,36,10.0,0.0
3193,54.0,8,108,8.0,0.0
3194,43.0,32,36,10.0,0.0
3195,42.0,40,36,10.0,0.0
3196,43.0,0,108,10.0,0.0
3197,47.0,8,108,8.0,0.0
3198,64.0,32,36,6.0,0.0
3199,63.0,40,36,6.0,0.0
3200,64.0,40,36,6.0,0.0
3201,59.0,8,108,10.0,0.0
3202,55.0,12,216,10.0,0.0
3203,66.0,32,36,6.0,0.0
3204,67.0,40,36,6.0,0.0
3205,69.0,40,36,6.0,0.0
3206,61.0,8,108,10.0,0.0
3207,71.0,20,36,6.0,0.0
3208,72.0,40,36,6.0,0.0
3209,63.0,8,108,10.0,0.0
3210,71.0,40,36,6.0,0.0
3211,54.0,0,108,10.0,0.0
3212,72.0,32,36,6.0,0.0
3213,69.0,40,36,6.0,0.0
3214,64.0,8,108,10.0,0.0
3215,52.0,12,216,10.0,0.0
3216,67.0,40,36,6.0,0.0
3217,66.0,32,36,6.0,0.0
3218,64.0,40,36,6.0,0.0
3219,59.0,8,108,10.0,0.0
3220,66.0,40,36,6.0,0.0
3221,67.0,20,36,6.0,0.0
3222,69.0,40,36,6.0,0.0
3223,71.0,40,36,6.0,0.0
3224,64.0,0,348,10.0,0.0
3225,72.0,40,36,6.0,0.0
3226,74.0,40,36,6.0,0.0
3227,56.0,8,108,8.0,0.0
3228,72.0,40,36,6.0,0.0
3229,52.0,0,108,10.0,0.0
3230,74.0,32,36,6.0,0.0
3231,71.0,40,36,6.0,0.0
3232,69.0,40,36,6.0,0.0
3233,54.0,0,108,10.0,0.0
3234,57.0,8,108,8.0,0.0
3235,68.0,32,36,6.0,0.0
3236,66.0,40,36,6.0,0.0
3237,62.0,0,36,10.0,0.0
3238,68.0,40,36,6.0,0.0
3239,60.0,40,36,10.0,0.0
3240,69.0,0,36,6.0,0.0
3241,62.0,0,36,10.0,0.0
3242,71.0,40,36,6.0,0.0
3243,72.0,40,36,6.0,0.0
3244,57.0,8,108,10.0,0.0
3245,74.0,32,36,6.0,0.0
3246,76.0,40,36,6.0,0.0
3247,57.0,8,108,8.0,0.0
3248,62.0,0,228,10.0,0.0
3249,74.0,40,36,6.0,0.0
3250,54.0,0,108,10.0,0.0
3251,76.0,32,36,6.0,0.0
3252,72.0,40,36,6.0,0.0
3253,59.0,0,108,8.0,0.0
3254,56.0,8,108,10.0,0.0
3255,71.0,40,36,6.0,0.0
3256,69.0,32,36,6.0,0.0
3257,68.0,40,36,6.0,0.0
3258,65.0,35,81,10.0,0.0
3259,69.0,40,36,6.0,0.0
3260,71.0,5,36,6.0,0.0
3261,72.0,1,36,6.0,0.0
3262,64.0,39,27,10.0,0.0
3263,65.0,8,108,10.0,0.0
3264,74.0,40,36,6.0,0.0
3265,76.0,32,36,6.0,0.0
3266,77.0,40,36,6.0,0.0
3267,56.0,0,108,10.0,0.0
3268,64.0,0,108,10.0,0.0
3269,76.0,40,36,6.0,0.0
3270,59.0,8,108,8.0,0.0
3271,77.0,32,36,6.0,0.0
3272,74.0,40,36,6.0,0.0
3273,57.0,8,108,10.0,0.0
3274,72.0,40,36,6.0,0.0
3275,72.0,12,216,1.0,0.0
3276,74.0,32,36,6.0,0.0
3277,76.0,40,36,6.0,0.0
3278,81.0,40,36,6.0,0.0
3279,65.0,8,108,10.0,0.0
3280,74.0,12,216,0.0,0.0
3281,79.0,20,36,6.0,0.0
3282,81.0,40,36,6.0,0.0
3283,71.0,12,216,1.0,0.0
3284,55.0,40,36,10.0,0.0
3285,71.0,8,108,6.0,0.0
3286,57.0,20,36,10.0,0.0
3287,59.0,40,36,10.0,0.0
3288,64.0,40,36,10.0,0.0
3289,79.0,8,108,6.0,0.0
3290,72.0,12,216,0.0,0.0
3291,62.0,20,36,10.0,0.0
3292,64.0,40,36,10.0,0.0
3293,69.0,40,36,6.0,0.0
3294,69.0,12,216,1.0,0.0
3295,53.0,8,108,10.0,0.0
3296,71.0,20,36,6.0,0.0
3297,72.0,40,36,6.0,0.0
3298,71.0,12,216,0.0,0.0
3299,77.0,40,36,6.0,0.0
3300,62.0,8,108,10.0,0.0
3301,76.0,20,36,6.0,0.0
3302,77.0,40,36,6.0,0.0
3303,67.0,8,108,6.0,0.0
3304,52.0,40,36,10.0,0.0
3305,67.0,12,216,1.0,0.0
3306,53.0,20,36,10.0,0.0
3307,55.0,40,36,10.0,0.0
3308,60.0,40,36,10.0,0.0
3309,76.0,8,108,6.0,0.0
3310,69.0,0,228,0.0,0.0
3311,59.0,20,36,10.0,0.0
3312,60.0,40,36,10.0,0.0
3313,65.0,40,36,6.0,0.0
3314,65.0,12,216,1.0,0.0
3315,50.0,8,108,10.0,0.0
3316,67.0,32,36,6.0,0.0
3317,69.0,40,36,6.0,0.0
3318,67.0,12,216,0.0,0.0
3319,74.0,40,36,6.0,0.0
3320,59.0,8,108,10.0,0.0
3321,72.0,20,36,6.0,0.0
3322,74.0,40,36,6.0,0.0
3323,64.0,15,81,6.0,0.0
3324,48.0,40,36,10.0,0.0
3325,64.0,8,108,1.0,0.0
3326,50.0,5,36,10.0,0.0
3327,52.0,1,36,10.0,0.0
3328,67.0,39,27,6.0,0.0
3329,57.0,40,36,10.0,0.0
3330,69.0,8,108,0.0,0.0
3331,60.0,0,108,1.0,0.0
3332,66.0,27,81,6.0,0.0
3333,55.0,5,36,10.0,0.0
3334,57.0,1,36,10.0,0.0
3335,72.0,39,27,6.0,0.0
3336,71.0,0,36,0.0,0.0
3337,43.0,0,1344,5.0,0.0
3338,55.0,8,108,10.0,0.0
3339,31.0,12,1344,5.0,0.0
3340,67.0,0,108,1.0,0.0
3341,62.0,40,36,6.0,0.0
3342,64.0,32,36,6.0,0.0
3343,72.0,0,36,0.0,0.0
3344,65.0,0,36,6.0,0.0
3345,74.0,40,36,0.0,0.0
3346,71.0,40,36,6.0,0.0
3347,74.0,0,36,1.0,0.0
3348,65.0,0,108,4.0,0.0
3349,43.0,0,108,10.0,0.0
3350,79.0,0,108,0.0,0.0
3351,71.0,0,108,2.0,0.0
3352,67.0,8,108,3.0,0.0
3353,69.0,32,36,6.0,0.0
3354,72.0,0,36,1.0,0.0
3355,71.0,0,36,6.0,0.0
3356,74.0,40,36,1.0,0.0
3357,64.0,40,36,6.0,0.0
3358,55.0,0,108,10.0,0.0
3359,72.0,0,36,0.0,0.0
3360,69.0,8,108,1.0,0.0
3361,65.0,32,36,6.0,0.0
3362,74.0,0,36,0.0,0.0
3363,76.0,40,36,0.0,0.0
3364,67.0,0,36,6.0,0.0
3365,64.0,8,108,4.0,0.0
3366,72.0,0,108,2.0,0.0
3367,81.0,0,108,0.0,0.0
3368,76.0,40,36,1.0,0.0
3369,60.0,0,108,3.0,0.0
3370,72.0,0,36,6.0,0.0
3371,43.0,0,108,10.0,0.0
3372,71.0,32,36,6.0,0.0
3373,74.0,0,36,1.0,0.0
3374,72.0,0,36,6.0,0.0
3375,76.0,40,36,1.0,0.0
3376,71.0,0,108,1.0,0.0
3377,65.0,0,36,6.0,0.0
3378,55.0,8,108,10.0,0.0
3379,74.0,40,36,0.0,0.0
3380,76.0,0,36,0.0,0.0
3381,67.0,32,36,6.0,0.0
3382,77.0,40,36,0.0,0.0
3383,69.0,0,36,6.0,0.0
3384,83.0,0,108,0.0,0.0
3385,43.0,8,108,10.0,0.0
3386,67.0,0,108,3.0,0.0
3387,77.0,40,36,1.0,0.0
3388,74.0,0,36,6.0,0.0
3389,62.0,0,108,4.0,0.0
3390,74.0,0,108,2.0,0.0
3391,72.0,0,36,6.0,0.0
3392,76.0,32,36,1.0,0.0
3393,74.0,0,36,6.0,0.0
3394,77.0,40,36,1.0,0.0
3395,76.0,40,36,0.0,0.0
3396,72.0,8,108,1.0,0.0
3397,67.0,0,36,6.0,0.0
3398,55.0,0,108,10.0,0.0
3399,69.0,0,36,6.0,0.0
3400,77.0,32,36,0.0,0.0
3401,71.0,40,36,6.0,0.0
3402,79.0,0,36,0.0,0.0
3403,60.0,0,108,4.0,0.0
3404,76.0,0,108,2.0,0.0
3405,67.0,0,108,3.0,0.0
3406,79.0,0,36,1.0,0.0
3407,76.0,40,36,6.0,0.0
3408,84.0,8,108,0.0,0.0
3409,43.0,0,108,10.0,0.0
3410,74.0,32,36,6.0,0.0
3411,77.0,0,36,1.0,0.0
3412,76.0,0,36,6.0,0.0
3413,79.0,40,36,1.0,0.0
3414,74.0,8,108,1.0,0.0
3415,77.0,40,36,0.0,0.0
3416,55.0,0,108,10.0,0.0
3417,69.0,0,36,6.0,0.0
3418,79.0,0,36,0.0,0.0
3419,71.0,32,36,6.0,0.0
3420,72.0,0,36,6.0,0.0
3421,81.0,40,36,0.0,0.0
3422,74.0,40,156,0.0,0.0
3423,77.0,40,36,6.0,0.0
3424,43.0,0,108,10.0,0.0
3425,62.0,0,108,3.0,0.0
3426,77.0,0,108,2.0,0.0
3427,59.0,8,108,4.0,0.0
3428,81.0,0,36,1.0,0.0
3429,79.0,0,36,1.0,0.0
3430,76.0,32,36,6.0,0.0
3431,81.0,0,36,1.0,0.0
3432,77.0,40,36,6.0,0.0
3433,77.0,0,108,1.0,0.0
3434,71.0,0,36,6.0,0.0
3435,55.0,8,108,10.0,0.0
3436,76.0,32,36,0.0,0.0
3437,72.0,0,36,6.0,0.0
3438,77.0,28,36,0.0,0.0
3439,74.0,0,36,6.0,0.0
3440,43.0,0,108,10.0,0.0
3441,79.0,40,36,6.0,0.0
3442,74.0,0,108,1.0,0.0
3443,62.0,0,108,4.0,0.0
3444,71.0,0,108,2.0,0.0
3445,67.0,0,108,3.0,0.0
3446,71.0,8,108,0.0,0.0
3447,77.0,32,36,6.0,0.0
3448,79.0,40,36,6.0,0.0
3449,72.0,0,108,0.0,0.0
3450,60.0,0,108,4.0,0.0
3451,76.0,0,108,1.0,0.0
3452,36.0,8,108,5.0,0.0
3453,72.0,0,108,2.0,0.0
3454,67.0,0,108,3.0,0.0
3455,76.0,0,108,6.0,0.0
3456,48.0,40,36,10.0,0.0
3457,48.0,0,108,5.0,0.0
3458,57.0,32,36,10.0,0.0
3459,55.0,40,36,10.0,0.0
3460,77.0,0,108,6.0,0.0
3461,47.0,40,36,10.0,0.0
3462,74.0,8,108,6.0,0.0
3463,57.0,32,36,10.0,0.0
3464,55.0,40,36,10.0,0.0
3465,48.0,40,36,10.0,0.0
3466,76.0,8,108,6.0,0.0
3467,72.0,0,108,6.0,0.0
3468,57.0,32,36,10.0,0.0
3469,55.0,40,36,10.0,0.0
3470,71.0,0,108,6.0,0.0
3471,50.0,40,36,10.0,0.0
3472,74.0,8,108,6.0,0.0
3473,57.0,32,36,10.0,0.0
3474,55.0,40,36,10.0,0.0
3475,52.0,40,36,10.0,0.0
3476,72.0,0,108,6.0,0.0
3477,57.0,32,36,10.0,0.0
3478,55.0,40,36,10.0,0.0
3479,47.0,40,36,10.0,0.0
3480,81.0,8,108,6.0,0.0
3481,77.0,0,108,7.0,0.0
3482,57.0,32,36,10.0,0.0
3483,74.0,22,114,6.0,0.0
3484,55.0,40,36,10.0,0.0
3485,79.0,0,108,6.0,0.0
3486,76.0,8,108,7.0,0.0
3487,48.0,18,36,10.0,0.0
3488,57.0,32,36,10.0,0.0
3489,72.0,28,108,6.0,0.0
3490,55.0,40,36,10.0,0.0
3491,74.0,0,108,7.0,0.0
3492,77.0,6,108,6.0,0.0
3493,50.0,12,36,10.0,0.0
3494,57.0,32,36,10.0,0.0
3495,71.0,2,54,6.0,0.0
3496,55.0,40,36,10.0,0.0
3497,76.0,0,108,6.0,0.0
3498,79.0,0,108,6.0,0.0
3499,67.0,8,108,6.0,0.0
3500,72.0,0,108,6.0,0.0
3501,52.0,40,36,10.0,0.0
3502,57.0,32,36,10.0,0.0
3503,55.0,40,36,10.0,0.0
3504,53.0,40,36,10.0,0.0
3505,74.0,0,81,6.0,0.0
3506,71.0,35,81,6.0,0.0
3507,55.0,5,36,10.0,0.0
3508,52.0,1,36,10.0,0.0
3509,76.0,0,27,6.0,0.0
3510,72.0,39,27,6.0,0.0
3511,50.0,40,36,10.0,0.0
3512,74.0,0,108,6.0,0.0
3513,77.0,8,108,6.0,0.0
3514,52.0,32,36,10.0,0.0
3515,53.0,40,36,10.0,0.0
3516,72.0,0,108,6.0,0.0
3517,74.0,8,108,7.0,0.0
3518,47.0,40,36,10.0,0.0
3519,77.0,0,108,6.0,0.0
3520,48.0,32,36,10.0,0.0
3521,50.0,40,36,10.0,0.0
3522,43.0,40,36,10.0,0.0
3523,77.0,0,108,6.0,0.0
3524,74.0,0,108,7.0,0.0
3525,71.0,8,108,6.0,0.0
3526,45.0,32,36,10.0,0.0
3527,47.0,40,36,10.0,0.0
3528,76.0,0,108,6.0,0.0
3529,67.0,0,108,6.0,0.0
3530,72.0,8,108,7.0,0.0
3531,48.0,40,36,10.0,0.0
3532,47.0,32,36,10.0,0.0
3533,48.0,40,36,10.0,0.0
3534,74.0,8,108,6.0,0.0
3535,41.0,40,36,10.0,0.0
3536,69.0,0,108,6.0,0.0
3537,72.0,0,108,7.0,0.0
3538,43.0,32,36,10.0,0.0
3539,45.0,40,36,10.0,0.0
3540,62.0,0,108,6.0,0.0
3541,43.0,40,36,10.0,0.0
3542,74.0,8,108,6.0,0.0
3543,71.0,0,108,7.0,0.0
3544,41.0,32,36,10.0,0.0
3545,43.0,112,36,10.0,0.0
3546,72.0,66,108,6.0,0.0
3547,67.0,0,108,7.0,0.0
3548,79.0,54,1014,0.0,0.0
3549,24.0,0,108,5.0,0.0
3550,36.0,0,108,10.0,0.0
3551,36.0,0,108,5.0,0.0
3552,64.0,0,108,6.0,0.0
3553,60.0,60,54,1.0,0.0
3554,62.0,60,54,1.0,0.0
3555,64.0,60,54,1.0,0.0
3556,67.0,60,54,1.0,0.0
3557,65.0,60,54,1.0,0.0
3558,62.0,60,54,1.0,0.0
3559,64.0,60,54,1.0,0.0
3560,60.0,60,54,1.0,0.0
3561,60.0,0,108,4.0,0.0
3562,60.0,0,108,5.0,0.0
3563,64.0,0,108,3.0,0.0
3564,60.0,0,108,10.0,0.0
3565,48.0,0,108,5.0,0.0
3566,64.0,54,54,1.0,0.0
3567,67.0,6,108,2.0,0.0
3568,67.0,42,54,1.0,0.0
3569,67.0,0,108,3.0,0.0
3570,52.0,0,108,5.0,0.0
3571,52.0,0,108,10.0,0.0
3572,72.0,40,36,1.0,0.0
3573,55.0,0,108,4.0,0.0
3574,40.0,0,108,5.0,0.0
3575,72.0,8,108,2.0,0.0
3576,74.0,32,36,1.0,0.0
3577,76.0,40,36,1.0,0.0
3578,55.0,0,108,4.0,0.0
3579,43.0,0,108,5.0,0.0
3580,55.0,8,108,5.0,0.0
3581,55.0,0,108,10.0,0.0
3582,74.0,40,36,1.0,0.0
3583,65.0,0,108,3.0,0.0
3584,71.0,0,108,2.0,0.0
3585,72.0,32,36,1.0,0.0
3586,71.0,58,36,1.0,0.0
3587,55.0,8,1068,2.0,0.0
3588,55.0,0,216,4.0,0.0
3589,36.0,0,108,5.0,0.0
3590,48.0,6,108,10.0,0.0
3591,64.0,18,216,3.0,0.0
3592,48.0,0,108,5.0,0.0
3593,72.0,0,108,1.0,0.0
3594,72.0,60,54,0.0,0.0
3595,60.0,0,54,6.0,0.0
3596,76.0,42,54,0.0,0.0
3597,62.0,0,54,6.0,0.0
3598,79.0,42,54,0.0,0.0
3599,84.0,18,36,0.0,0.0
3600,55.0,0,828,3.0,0.0
3601,64.0,22,54,6.0,0.0
3602,86.0,38,36,0.0,0.0
3603,67.0,2,54,6.0,0.0
3604,88.0,40,36,0.0,0.0
3605,86.0,18,36,0.0,0.0
3606,65.0,22,54,6.0,0.0
3607,84.0,38,36,0.0,0.0
3608,62.0,2,54,6.0,0.0
3609,83.0,40,36,0.0,0.0
3610,55.0,12,216,4.0,0.0
3611,84.0,0,36,0.0,0.0
3612,64.0,40,36,6.0,0.0
3613,62.0,0,36,6.0,0.0
3614,83.0,38,36,0.0,0.0
3615,60.0,2,54,1.0,0.0
3616,81.0,40,36,0.0,0.0
3617,60.0,0,36,6.0,0.0
3618,48.0,0,108,5.0,0.0
3619,64.0,0,54,1.0,0.0
3620,36.0,0,108,5.0,0.0
3621,67.0,0,108,6.0,0.0
3622,60.0,0,108,6.0,0.0
3623,79.0,18,36,0.0,0.0
3624,48.0,22,54,10.0,0.0
3625,64.0,6,108,7.0,0.0
3626,81.0,20,36,0.0,0.0
3627,67.0,0,54,1.0,0.0
3628,50.0,2,54,10.0,0.0
3629,77.0,40,36,0.0,0.0
3630,72.0,18,36,1.0,0.0
3631,72.0,0,108,6.0,0.0
3632,55.0,12,216,4.0,0.0
3633,40.0,6,108,5.0,0.0
3634,67.0,0,108,6.0,0.0
3635,60.0,0,108,6.0,0.0
3636,28.0,0,108,5.0,0.0
3637,52.0,22,54,10.0,0.0
3638,76.0,0,36,0.0,0.0
3639,74.0,32,36,0.0,0.0
3640,74.0,0,36,1.0,0.0
3641,55.0,2,54,10.0,0.0
3642,72.0,0,36,0.0,0.0
3643,76.0,40,36,1.0,0.0
3644,43.0,6,108,5.0,0.0
3645,53.0,22,54,10.0,0.0
3646,31.0,0,108,5.0,0.0
3647,71.0,0,36,0.0,0.0
3648,71.0,0,108,6.0,0.0
3649,62.0,0,108,6.0,0.0
3650,74.0,18,36,1.0,0.0
3651,67.0,0,108,6.0,0.0
3652,72.0,0,36,1.0,0.0
3653,72.0,20,36,0.0,0.0
3654,50.0,2,54,10.0,0.0
3655,71.0,40,36,1.0,0.0
3656,74.0,0,36,0.0,0.0
3657,55.0,0,108,4.0,0.0
3658,67.0,0,108,7.0,0.0
3659,36.0,0,108,5.0,0.0
3660,52.0,0,108,10.0,0.0
3661,72.0,0,108,6.0,0.0
3662,67.0,0,108,0.0,0.0
3663,72.0,40,36,1.0,0.0
3664,24.0,0,108,5.0,0.0
3665,60.0,0,108,6.0,0.0
3666,64.0,32,36,1.0,0.0
3667,65.0,40,36,1.0,0.0
3668,67.0,40,36,1.0,0.0
3669,64.0,0,108,7.0,0.0
3670,48.0,8,108,10.0,0.0
3671,69.0,32,36,1.0,0.0
3672,70.0,40,36,1.0,0.0
3673,50.0,0,108,10.0,0.0
3674,65.0,8,108,7.0,0.0
3675,70.0,40,36,1.0,0.0
3676,72.0,32,36,1.0,0.0
3677,74.0,40,36,1.0,0.0
3678,36.0,0,108,5.0,0.0
3679,60.0,0,108,3.0,0.0
3680,52.0,0,108,10.0,0.0
3681,74.0,40,36,1.0,0.0
3682,52.0,0,108,4.0,0.0
3683,67.0,0,108,7.0,0.0
3684,48.0,0,108,5.0,0.0
3685,67.0,8,108,2.0,0.0
3686,72.0,32,36,1.0,0.0
3687,70.0,80,36,1.0,0.0
3688,53.0,0,108,10.0,0.0
3689,69.0,0,108,1.0,0.0
3690,60.0,0,108,3.0,0.0
3691,29.0,0,108,5.0,0.0
3692,69.0,0,108,2.0,0.0
3693,53.0,8,108,4.0,0.0
3694,69.0,0,108,7.0,0.0
3695,41.0,0,108,5.0,0.0
3696,65.0,32,36,0.0,0.0
3697,67.0,40,36,0.0,0.0
3698,65.0,0,108,1.0,0.0
3699,69.0,40,36,0.0,0.0
3700,50.0,8,108,10.0,0.0
3701,71.0,32,36,0.0,0.0
3702,72.0,40,36,0.0,0.0
3703,67.0,8,108,1.0,0.0
3704,52.0,0,108,10.0,0.0
3705,72.0,40,36,0.0,0.0
3706,74.0,32,36,0.0,0.0
3707,76.0,40,36,0.0,0.0
3708,54.0,0,108,10.0,0.0
3709,50.0,0,108,5.0,0.0
3710,62.0,8,108,3.0,0.0
3711,38.0,0,108,5.0,0.0
3712,54.0,0,108,4.0,0.0
3713,69.0,0,108,2.0,0.0
3714,69.0,0,108,1.0,0.0
3715,76.0,40,36,0.0,0.0
3716,74.0,32,36,0.0,0.0
3717,72.0,80,36,0.0,0.0
3718,71.0,0,108,2.0,0.0
3719,55.0,0,108,10.0,0.0
3720,55.0,0,108,4.0,0.0
3721,43.0,0,108,5.0,0.0
3722,71.0,0,108,0.0,0.0
3723,31.0,0,108,5.0,0.0
3724,71.0,8,108,1.0,0.0
3725,62.0,0,108,3.0,0.0
3726,67.0,32,36,6.0,0.0
3727,69.0,40,36,6.0,0.0
3728,71.0,40,36,6.0,0.0
3729,74.0,8,108,1.0,0.0
3730,52.0,0,108,10.0,0.0
3731,68.0,0,108,0.0,0.0
3732,72.0,32,36,6.0,0.0
3733,74.0,40,36,6.0,0.0
3734,74.0,40,36,6.0,0.0
3735,72.0,0,108,1.0,0.0
3736,54.0,0,108,10.0,0.0
3737,69.0,8,108,0.0,0.0
3738,76.0,32,36,6.0,0.0
3739,77.0,40,36,6.0,0.0
3740,71.0,0,108,2.0,0.0
3741,56.0,0,108,4.0,0.0
3742,77.0,40,36,6.0,0.0
3743,40.0,0,108,5.0,0.0
3744,52.0,0,108,5.0,0.0
3745,71.0,0,108,1.0,0.0
3746,56.0,0,108,10.0,0.0
3747,64.0,0,108,3.0,0.0
3748,71.0,8,108,0.0,0.0
3749,76.0,32,36,6.0,0.0
3750,74.0,40,36,6.0,0.0
3751,72.0,0,108,2.0,0.0
3752,33.0,0,108,5.0,0.0
3753,72.0,0,36,6.0,0.0
3754,69.0,8,108,1.0,0.0
3755,64.0,0,108,3.0,0.0
3756,57.0,40,36,10.0,0.0
3757,45.0,0,108,5.0,0.0
3758,57.0,0,108,4.0,0.0
3759,72.0,0,108,0.0,0.0
3760,59.0,32,36,10.0,0.0
3761,71.0,0,36,6.0,0.0
3762,60.0,0,36,10.0,0.0
3763,69.0,40,36,6.0,0.0
3764,62.0,40,36,10.0,0.0
3765,77.0,0,36,6.0,0.0
3766,76.0,0,36,6.0,0.0
3767,60.0,40,36,10.0,0.0
3768,77.0,0,36,6.0,0.0
3769,62.0,40,36,10.0,0.0
3770,59.0,0,36,10.0,0.0
3771,67.0,40,36,6.0,0.0
3772,57.0,40,36,10.0,0.0
3773,69.0,0,36,6.0,0.0
3774,71.0,40,36,6.0,0.0
3775,55.0,0,36,10.0,0.0
3776,60.0,0,36,10.0,0.0
3777,76.0,40,36,6.0,0.0
3778,59.0,40,36,10.0,0.0
3779,74.0,0,36,6.0,0.0
3780,76.0,40,36,6.0,0.0
3781,60.0,0,36,10.0,0.0
3782,57.0,0,36,10.0,0.0
3783,65.0,40,36,6.0,0.0
3784,67.0,40,36,6.0,0.0
3785,59.0,0,36,10.0,0.0
3786,69.0,0,36,6.0,0.0
3787,60.0,40,36,10.0,0.0
3788,74.0,40,36,6.0,0.0
3789,59.0,0,36,10.0,0.0
3790,72.0,0,36,6.0,0.0
3791,57.0,40,36,10.0,0.0
3792,74.0,0,36,6.0,0.0
3793,59.0,40,36,10.0,0.0
3794,64.0,0,36,6.0,0.0
3795,55.0,40,36,10.0,0.0
3796,53.0,0,36,10.0,0.0
3797,65.0,40,36,6.0,0.0
3798,52.0,40,36,10.0,0.0
3799,67.0,0,36,6.0,0.0
3800,57.0,0,36,10.0,0.0
3801,72.0,40,36,6.0,0.0
3802,71.0,0,36,6.0,0.0
3803,55.0,40,36,10.0,0.0
3804,72.0,0,36,6.0,0.0
3805,57.0,40,36,10.0,0.0
3806,62.0,40,36,6.0,0.0
3807,53.0,0,36,10.0,0.0
3808,64.0,0,36,6.0,0.0
3809,55.0,40,36,10.0,0.0
3810,65.0,0,36,6.0,0.0
3811,57.0,40,36,10.0,0.0
3812,71.0,40,36,6.0,0.0
3813,55.0,0,36,10.0,0.0
3814,69.0,40,36,6.0,0.0
3815,53.0,0,36,10.0,0.0
3816,55.0,0,36,10.0,0.0
3817,71.0,40,36,6.0,0.0
3818,52.0,40,36,10.0,0.0
3819,60.0,0,36,6.0,0.0
3820,64.0,0,36,6.0,0.0
3821,55.0,40,36,10.0,0.0
3822,67.0,0,36,6.0,0.0
3823,52.0,40,36,10.0,0.0
3824,48.0,0,36,10.0,0.0
3825,70.0,40,36,6.0,0.0
3826,69.0,0,36,6.0,0.0
3827,50.0,40,36,10.0,0.0
3828,67.0,0,36,6.0,0.0
3829,52.0,40,36,10.0,0.0
3830,69.0,0,36,6.0,0.0
3831,53.0,40,36,10.0,0.0
3832,67.0,40,36,6.0,0.0
3833,55.0,0,36,10.0,0.0
3834,57.0,0,36,10.0,0.0
3835,65.0,40,36,6.0,0.0
3836,54.0,0,36,10.0,0.0
3837,74.0,40,36,6.0,0.0
3838,57.0,0,36,10.0,0.0
3839,76.0,40,36,6.0,0.0
3840,62.0,40,36,10.0,0.0
3841,72.0,0,36,6.0,0.0
3842,55.0,0,36,10.0,0.0
3843,71.0,40,36,6.0,0.0
3844,69.0,40,36,6.0,0.0
3845,57.0,0,36,10.0,0.0
3846,67.0,40,36,6.0,0.0
3847,59.0,0,36,10.0,0.0
3848,76.0,40,36,6.0,0.0
3849,56.0,0,36,10.0,0.0
3850,77.0,0,36,6.0,0.0
3851,59.0,40,36,10.0,0.0
3852,64.0,0,36,10.0,0.0
3853,74.0,40,36,6.0,0.0
3854,72.0,0,36,6.0,0.0
3855,57.0,40,36,10.0,0.0
3856,71.0,0,36,6.0,0.0
3857,59.0,40,36,10.0,0.0
3858,69.0,0,36,6.0,0.0
3859,60.0,40,36,10.0,0.0
3860,77.0,40,36,6.0,0.0
3861,57.0,0,36,10.0,0.0
3862,79.0,0,36,6.0,0.0
3863,60.0,40,36,10.0,0.0
3864,76.0,40,36,6.0,0.0
3865,65.0,0,36,10.0,0.0
3866,74.0,40,36,6.0,0.0
3867,59.0,0,36,10.0,0.0
3868,60.0,0,36,10.0,0.0
3869,72.0,40,36,6.0,0.0
3870,62.0,0,36,10.0,0.0
3871,71.0,40,36,6.0,0.0
3872,59.0,0,36,10.0,0.0
3873,79.0,40,36,6.0,0.0
3874,62.0,40,36,10.0,0.0
3875,81.0,0,36,6.0,0.0
3876,77.0,0,36,6.0,0.0
3877,67.0,80,36,10.0,0.0
3878,60.0,4,432,10.0,0.0
3879,76.0,0,516,6.0,0.0
3880,67.0,40,36,1.0,0.0
3881,76.0,0,36,0.0,0.0
3882,77.0,0,36,0.0,0.0
3883,69.0,40,36,1.0,0.0
3884,70.0,0,36,1.0,0.0
3885,72.0,0,108,3.0,0.0
3886,67.0,0,108,4.0,0.0
3887,36.0,0,108,5.0,0.0
3888,48.0,0,108,5.0,0.0
3889,76.0,8,108,2.0,0.0
3890,79.0,40,36,0.0,0.0
3891,77.0,32,36,0.0,0.0
3892,69.0,0,36,1.0,0.0
3893,79.0,0,36,0.0,0.0
3894,70.0,40,36,1.0,0.0
3895,36.0,0,108,5.0,0.0
3896,72.0,8,108,3.0,0.0
3897,84.0,40,36,0.0,0.0
3898,76.0,0,108,2.0,0.0
3899,67.0,0,108,4.0,0.0
3900,48.0,0,108,5.0,0.0
3901,64.0,0,108,1.0,0.0
3902,79.0,32,36,0.0,0.0
3903,81.0,40,36,0.0,0.0
3904,79.0,40,156,1.0,0.0
3905,82.0,36,36,0.0,0.0
3906,36.0,0,108,5.0,0.0
3907,48.0,0,108,5.0,0.0
3908,76.0,0,108,2.0,0.0
3909,67.0,8,108,3.0,0.0
3910,67.0,0,108,4.0,0.0
3911,81.0,32,36,0.0,0.0
3912,79.0,40,36,0.0,0.0
3913,81.0,0,516,0.0,0.0
3914,61.0,4,432,10.0,0.0
3915,76.0,40,36,6.0,0.0
3916,73.0,0,36,1.0,0.0
3917,74.0,0,36,1.0,0.0
3918,78.0,40,36,6.0,0.0
3919,69.0,0,108,3.0,0.0
3920,79.0,0,36,6.0,0.0
3921,76.0,40,36,1.0,0.0
3922,45.0,8,108,5.0,0.0
3923,61.0,0,108,4.0,0.0
3924,33.0,0,108,5.0,0.0
3925,76.0,0,108,2.0,0.0
3926,74.0,0,36,1.0,0.0
3927,78.0,32,36,6.0,0.0
3928,76.0,0,36,1.0,0.0
3929,79.0,40,36,6.0,0.0
3930,45.0,0,108,5.0,0.0
3931,76.0,8,108,2.0,0.0
3932,61.0,0,108,4.0,0.0
3933,69.0,40,36,1.0,0.0
3934,33.0,0,108,5.0,0.0
3935,69.0,0,108,3.0,0.0
3936,76.0,27,81,6.0,0.0
3937,76.0,5,36,1.0,0.0
3938,78.0,1,36,1.0,0.0
3939,81.0,39,27,6.0,0.0
3940,45.0,0,108,5.0,0.0
3941,33.0,0,108,5.0,0.0
3942,76.0,0,108,2.0,0.0
3943,79.0,36,36,1.0,0.0
3944,76.0,8,108,3.0,0.0
3945,61.0,0,108,4.0,0.0
3946,76.0,27,81,6.0,0.0
3947,78.0,5,36,1.0,0.0
3948,76.0,1,36,1.0,0.0
3949,79.0,39,27,6.0,0.0
3950,62.0,4,432,10.0,0.0
3951,74.0,40,36,1.0,0.0
3952,78.0,0,516,6.0,0.0
3953,69.0,0,36,1.0,0.0
3954,78.0,40,36,0.0,0.0
3955,71.0,0,36,1.0,0.0
3956,79.0,40,36,0.0,0.0
3957,74.0,0,108,3.0,0.0
3958,38.0,0,108,5.0,0.0
3959,69.0,0,108,4.0,0.0
3960,81.0,40,36,0.0,0.0
3961,78.0,8,108,2.0,0.0
3962,72.0,0,36,1.0,0.0
3963,50.0,0,108,5.0,0.0
3964,71.0,0,36,1.0,0.0
3965,79.0,32,36,0.0,0.0
3966,81.0,0,36,0.0,0.0
3967,72.0,40,36,1.0,0.0
3968,66.0,0,108,1.0,0.0
3969,50.0,0,108,5.0,0.0
3970,74.0,0,108,3.0,0.0
3971,69.0,8,108,4.0,0.0
3972,78.0,0,108,2.0,0.0
3973,38.0,0,108,5.0,0.0
3974,74.0,40,36,0.0,0.0
3975,81.0,32,36,0.0,0.0
3976,83.0,40,36,0.0,0.0
3977,50.0,0,108,5.0,0.0
3978,38.0,0,108,5.0,0.0
3979,78.0,0,108,2.0,0.0
3980,81.0,40,156,1.0,0.0
3981,84.0,36,36,0.0,0.0
3982,69.0,8,108,3.0,0.0
3983,69.0,0,108,4.0,0.0
3984,83.0,32,36,0.0,0.0
3985,81.0,40,36,0.0,0.0
3986,83.0,8,588,0.0,0.0
3987,63.0,4,432,10.0,0.0
3988,78.0,40,36,6.0,0.0
3989,75.0,0,36,1.0,0.0
3990,76.0,0,36,1.0,0.0
3991,79.0,40,36,6.0,0.0
3992,47.0,0,108,5.0,0.0
3993,35.0,0,108,5.0,0.0
3994,63.0,0,108,4.0,0.0
3995,81.0,40,36,6.0,0.0
3996,71.0,0,108,3.0,0.0
3997,78.0,0,36,1.0,0.0
3998,78.0,8,108,2.0,0.0
3999,79.0,0,36,6.0,0.0
4000,76.0,32,36,1.0,0.0
4001,81.0,0,36,6.0,0.0
4002,78.0,40,36,1.0,0.0
4003,47.0,8,108,5.0,0.0
4004,71.0,40,36,1.0,0.0
4005,78.0,0,108,2.0,0.0
4006,71.0,0,108,3.0,0.0
4007,35.0,0,108,5.0,0.0
4008,78.0,27,81,6.0,0.0
4009,63.0,0,108,4.0,0.0
4010,78.0,5,36,1.0,0.0
4011,79.0,1,36,1.0,0.0
4012,83.0,39,27,6.0,0.0
4013,47.0,8,108,5.0,0.0
4014,71.0,0,108,3.0,0.0
4015,35.0,0,108,5.0,0.0
4016,81.0,36,36,1.0,0.0
4017,78.0,27,81,6.0,0.0
4018,63.0,0,108,4.0,0.0
4019,78.0,0,108,2.0,0.0
4020,79.0,5,36,1.0,0.0
4021,78.0,1,36,1.0,0.0
4022,81.0,39,27,6.0,0.0
4023,79.0,0,108,2.0,0.0
4024,52.0,0,108,5.0,0.0
4025,40.0,0,108,5.0,0.0
4026,64.0,0,108,4.0,0.0
4027,76.0,0,108,1.0,0.0
4028,79.0,0,36,6.0,0.0
4029,71.0,0,108,3.0,0.0
4030,64.0,40,36,10.0,0.0
4031,81.0,32,36,6.0,0.0
4032,66.0,0,36,10.0,0.0
4033,67.0,40,36,10.0,0.0
4034,83.0,0,36,6.0,0.0
4035,84.0,35,81,6.0,0.0
4036,69.0,40,36,10.0,0.0
4037,67.0,5,36,10.0,0.0
4038,69.0,1,36,10.0,0.0
4039,76.0,39,27,6.0,0.0
4040,74.0,35,81,6.0,0.0
4041,66.0,40,36,10.0,0.0
4042,64.0,5,36,10.0,0.0
4043,62.0,1,36,10.0,0.0
4044,84.0,39,27,6.0,0.0
4045,67.0,40,36,10.0,0.0
4046,83.0,35,81,6.0,0.0
4047,66.0,5,36,10.0,0.0
4048,67.0,1,36,10.0,0.0
4049,74.0,39,27,6.0,0.0
4050,72.0,18,81,6.0,0.0
4051,64.0,40,36,10.0,0.0
4052,63.0,5,36,10.0,0.0
4053,64.0,3,36,10.0,0.0
4054,83.0,10,9,6.0,0.0
4055,81.0,7,9,6.0,0.0
4056,79.0,37,9,6.0,0.0
4057,66.0,40,36,10.0,0.0
4058,81.0,35,81,6.0,0.0
4059,64.0,5,36,10.0,0.0
4060,66.0,1,36,10.0,0.0
4061,72.0,39,27,6.0,0.0
4062,63.0,40,36,10.0,0.0
4063,71.0,35,81,6.0,0.0
4064,61.0,5,36,10.0,0.0
4065,59.0,1,36,10.0,0.0
4066,81.0,39,27,6.0,0.0
4067,64.0,40,36,10.0,0.0
4068,79.0,35,81,6.0,0.0
4069,63.0,5,36,10.0,0.0
4070,64.0,1,36,10.0,0.0
4071,71.0,39,27,6.0,0.0
4072,61.0,40,36,10.0,0.0
4073,69.0,18,81,6.0,0.0
4074,59.0,5,36,10.0,0.0
4075,57.0,3,36,10.0,0.0
4076,79.0,10,9,6.0,0.0
4077,77.0,7,9,6.0,0.0
4078,76.0,37,9,6.0,0.0
4079,62.0,40,36,10.0,0.0
4080,77.0,35,81,6.0,0.0
4081,60.0,5,36,10.0,0.0
4082,62.0,1,36,10.0,0.0
4083,69.0,39,27,6.0,0.0
4084,67.0,35,81,6.0,0.0
4085,59.0,40,36,10.0,0.0
4086,57.0,5,36,10.0,0.0
4087,55.0,1,36,10.0,0.0
4088,77.0,39,27,6.0,0.0
4089,76.0,35,81,6.0,0.0
4090,60.0,40,36,10.0,0.0
4091,59.0,5,36,10.0,0.0
4092,60.0,1,36,10.0,0.0
4093,67.0,39,27,6.0,0.0
4094,66.0,35,81,6.0,0.0
4095,57.0,40,36,10.0,0.0
4096,60.0,5,36,10.0,0.0
4097,59.0,1,36,10.0,0.0
4098,76.0,39,27,6.0,0.0
4099,72.0,0,36,3.0,0.0
4100,57.0,0,36,10.0,0.0
4101,72.0,0,36,4.0,0.0
4102,72.0,0,36,1.0,0.0
4103,45.0,0,36,5.0,0.0
4104,72.0,40,36,2.0,0.0
4105,76.0,40,396,6.0,0.0
4106,57.0,0,36,5.0,0.0
4107,55.0,0,36,5.0,0.0
4108,71.0,0,36,4.0,0.0
4109,55.0,0,36,10.0,0.0
4110,43.0,0,36,5.0,0.0
4111,71.0,0,36,3.0,0.0
4112,71.0,0,36,1.0,0.0
4113,71.0,40,36,2.0,0.0
4114,42.0,0,36,5.0,0.0
4115,69.0,0,36,1.0,0.0
4116,69.0,40,36,2.0,0.0
4117,69.0,0,36,3.0,0.0
4118,69.0,0,36,4.0,0.0
4119,54.0,0,36,5.0,0.0
4120,54.0,0,36,10.0,0.0
4121,69.0,0,36,2.0,0.0
4122,54.0,40,36,10.0,0.0
4123,69.0,0,36,4.0,0.0
4124,69.0,0,36,1.0,0.0
4125,42.0,0,36,5.0,0.0
4126,54.0,0,36,5.0,0.0
4127,69.0,0,36,3.0,0.0
4128,67.0,40,36,1.0,0.0
4129,43.0,0,36,5.0,0.0
4130,55.0,0,36,10.0,0.0
4131,55.0,0,36,5.0,0.0
4132,67.0,0,36,4.0,0.0
4133,67.0,0,36,2.0,0.0
4134,67.0,0,36,3.0,0.0
4135,66.0,0,36,2.0,0.0
4136,66.0,0,36,1.0,0.0
4137,45.0,0,36,5.0,0.0
4138,57.0,0,36,5.0,0.0
4139,57.0,0,36,10.0,0.0
4140,66.0,40,36,3.0,0.0
4141,66.0,0,36,4.0,0.0
4142,66.0,0,36,1.0,0.0
4143,57.0,0,36,10.0,0.0
4144,45.0,0,36,5.0,0.0
4145,57.0,0,36,5.0,0.0
4146,66.0,0,36,4.0,0.0
4147,66.0,0,36,3.0,0.0
4148,66.0,40,36,2.0,0.0
4149,67.0,0,36,3.0,0.0
4150,67.0,0,36,4.0,0.0
4151,47.0,0,36,5.0,0.0
4152,67.0,0,36,1.0,0.0
4153,67.0,0,36,2.0,0.0
4154,59.0,0,36,5.0,0.0
4155,59.0,40,36,10.0,0.0
4156,69.0,0,36,1.0,0.0
4157,60.0,0,36,5.0,0.0
4158,69.0,0,36,4.0,0.0
4159,60.0,0,36,10.0,0.0
4160,69.0,0,36,3.0,0.0
4161,69.0,40,36,2.0,0.0
4162,48.0,0,36,5.0,0.0
4163,59.0,0,108,2.0,0.0
4164,59.0,0,108,1.0,0.0
4165,59.0,0,108,4.0,0.0
4166,59.0,8,108,3.0,0.0
4167,59.0,27,81,10.0,0.0
4168,47.0,0,108,5.0,0.0
4169,59.0,0,108,5.0,0.0
4170,78.0,5,36,6.0,0.0
4171,76.0,1,36,6.0,0.0
4172,47.0,39,27,10.0,0.0
4173,59.0,35,81,10.0,0.0
4174,75.0,40,36,6.0,0.0
4175,78.0,5,36,6.0,0.0
4176,83.0,1,36,6.0,0.0
4177,57.0,39,27,10.0,0.0
4178,76.0,0,36,6.0,0.0
4179,55.0,40,36,10.0,0.0
4180,52.0,0,36,10.0,0.0
4181,74.0,40,36,6.0,0.0
4182,54.0,0,36,10.0,0.0
4183,72.0,40,36,6.0,0.0
4184,52.0,0,108,5.0,0.0
4185,56.0,0,36,10.0,0.0
4186,56.0,0,108,4.0,0.0
4187,71.0,40,36,6.0,0.0
4188,74.0,8,108,2.0,0.0
4189,40.0,0,108,5.0,0.0
4190,71.0,0,108,3.0,0.0
4191,72.0,0,36,6.0,0.0
4192,57.0,32,36,10.0,0.0
4193,74.0,40,36,6.0,0.0
4194,59.0,0,36,10.0,0.0
4195,72.0,0,108,2.0,0.0
4196,64.0,0,108,3.0,0.0
4197,28.0,0,1344,5.0,0.0
4198,57.0,8,108,4.0,0.0
4199,57.0,0,36,10.0,0.0
4200,72.0,40,36,6.0,0.0
4201,40.0,12,1344,5.0,0.0
4202,71.0,0,36,6.0,0.0
4203,59.0,32,36,10.0,0.0
4204,60.0,0,36,10.0,0.0
4205,69.0,1,36,6.0,0.0
4206,76.0,39,27,0.0,0.0
4207,62.0,40,36,10.0,0.0
4208,71.0,0,36,6.0,0.0
4209,68.0,35,81,0.0,0.0
4210,60.0,0,36,10.0,0.0
4211,69.0,5,36,6.0,0.0
4212,59.0,1,36,10.0,0.0
4213,68.0,0,36,6.0,0.0
4214,71.0,39,27,0.0,0.0
4215,69.0,0,108,3.0,0.0
4216,69.0,0,36,6.0,0.0
4217,64.0,8,108,0.0,0.0
4218,76.0,0,108,2.0,0.0
4219,60.0,0,108,4.0,0.0
4220,60.0,40,36,10.0,0.0
4221,71.0,0,36,6.0,0.0
4222,59.0,32,36,10.0,0.0
4223,57.0,1,36,10.0,0.0
4224,72.0,0,36,6.0,0.0
4225,76.0,39,27,1.0,0.0
4226,56.0,40,36,10.0,0.0
4227,64.0,35,81,1.0,0.0
4228,71.0,0,36,6.0,0.0
4229,69.0,0,36,6.0,0.0
4230,57.0,5,36,10.0,0.0
4231,68.0,0,36,6.0,0.0
4232,59.0,1,36,10.0,0.0
4233,74.0,39,27,1.0,0.0
4234,60.0,0,108,4.0,0.0
4235,60.0,40,36,10.0,0.0
4236,69.0,0,36,6.0,0.0
4237,72.0,0,108,1.0,0.0
4238,64.0,8,108,3.0,0.0
4239,69.0,0,108,2.0,0.0
4240,67.0,32,36,6.0,0.0
4241,59.0,0,36,10.0,0.0
4242,66.0,1,36,6.0,0.0
4243,57.0,0,36,10.0,0.0
4244,84.0,39,27,0.0,0.0
4245,67.0,40,36,6.0,0.0
4246,76.0,35,81,0.0,0.0
4247,59.0,0,36,10.0,0.0
4248,69.0,0,36,6.0,0.0
4249,57.0,5,36,10.0,0.0
4250,55.0,1,36,10.0,0.0
4251,71.0,0,36,6.0,0.0
4252,83.0,39,27,0.0,0.0
4253,69.0,0,36,6.0,0.0
4254,54.0,40,36,10.0,0.0
4255,57.0,0,108,4.0,0.0
4256,75.0,0,108,0.0,0.0
4257,72.0,0,108,2.0,0.0
4258,69.0,8,108,3.0,0.0
4259,55.0,0,36,10.0,0.0
4260,67.0,32,36,6.0,0.0
4261,57.0,0,36,10.0,0.0
4262,66.0,1,36,6.0,0.0
4263,78.0,39,27,1.0,0.0
4264,59.0,0,36,10.0,0.0
4265,76.0,35,81,1.0,0.0
4266,67.0,40,36,6.0,0.0
4267,57.0,0,36,10.0,0.0
4268,66.0,5,36,6.0,0.0
4269,55.0,1,36,10.0,0.0
4270,64.0,0,36,6.0,0.0
4271,79.0,39,27,1.0,0.0
4272,57.0,8,108,4.0,0.0
4273,66.0,0,108,2.0,0.0
4274,63.0,0,108,3.0,0.0
4275,66.0,40,36,6.0,0.0
4276,72.0,0,108,1.0,0.0
4277,57.0,0,36,10.0,0.0
4278,55.0,0,36,10.0,0.0
4279,67.0,32,36,6.0,0.0
4280,54.0,1,36,10.0,0.0
4281,69.0,0,36,6.0,0.0
4282,87.0,39,27,0.0,0.0
4283,52.0,40,36,10.0,0.0
4284,67.0,0,36,6.0,0.0
4285,88.0,35,81,0.0,0.0
4286,54.0,0,36,10.0,0.0
4287,66.0,5,36,6.0,0.0
4288,64.0,1,36,6.0,0.0
4289,55.0,0,36,10.0,0.0
4290,83.0,39,27,0.0,0.0
4291,84.0,0,108,0.0,0.0
4292,63.0,8,108,2.0,0.0
4293,54.0,0,108,4.0,0.0
4294,66.0,0,36,6.0,0.0
4295,57.0,40,36,10.0,0.0
4296,57.0,0,108,3.0,0.0
4297,64.0,0,36,6.0,0.0
4298,55.0,32,36,10.0,0.0
4299,63.0,0,36,6.0,0.0
4300,54.0,1,36,10.0,0.0
4301,69.0,27,27,1.0,0.0
4302,72.0,35,81,6.0,0.0
4303,55.0,40,36,10.0,0.0
4304,76.0,0,81,1.0,0.0
4305,54.0,5,36,10.0,0.0
4306,52.0,1,36,10.0,0.0
4307,72.0,0,27,6.0,0.0
4308,81.0,39,27,1.0,0.0
4309,81.0,0,1176,0.0,0.0
4310,66.0,12,864,4.0,0.0
4311,42.0,0,108,5.0,0.0
4312,54.0,40,36,10.0,0.0
4313,75.0,0,864,1.0,0.0
4314,69.0,0,864,3.0,0.0
4315,72.0,0,216,6.0,0.0
4316,69.0,0,216,6.0,0.0
4317,66.0,0,216,6.0,0.0
4318,63.0,20,216,6.0,0.0
4319,30.0,8,108,5.0,0.0
4320,72.0,0,864,2.0,0.0
4321,55.0,32,36,10.0,0.0
4322,57.0,40,36,10.0,0.0
4323,55.0,40,36,10.0,0.0
4324,54.0,20,36,10.0,0.0
4325,52.0,40,36,10.0,0.0
4326,45.0,8,108,5.0,0.0
4327,54.0,40,36,10.0,0.0
4328,33.0,0,108,5.0,0.0
4329,52.0,32,36,10.0,0.0
4330,51.0,40,36,10.0,0.0
4331,66.0,35,81,6.0,0.0
4332,69.0,0,81,6.0,0.0
4333,52.0,40,36,10.0,0.0
4334,60.0,0,81,6.0,0.0
4335,54.0,5,36,10.0,0.0
4336,55.0,1,36,10.0,0.0
4337,60.0,0,27,6.0,0.0
4338,69.0,39,27,6.0,0.0
4339,66.0,0,27,6.0,0.0
4340,54.0,40,36,10.0,0.0
4341,48.0,8,108,5.0,0.0
4342,36.0,0,108,5.0,0.0
4343,63.0,20,216,6.0,0.0
4344,66.0,0,216,6.0,0.0
4345,69.0,0,216,6.0,0.0
4346,60.0,0,216,6.0,0.0
4347,52.0,32,36,10.0,0.0
4348,51.0,40,36,10.0,0.0
4349,52.0,40,36,10.0,0.0
4350,51.0,20,36,10.0,0.0
4351,49.0,40,36,10.0,0.0
4352,51.0,40,36,10.0,0.0
4353,30.0,0,108,5.0,0.0
4354,42.0,8,108,5.0,0.0
4355,52.0,32,36,10.0,0.0
4356,54.0,28,36,10.0,0.0
4357,72.0,0,81,6.0,0.0
4358,78.0,0,81,6.0,0.0
4359,81.0,0,81,6.0,0.0
4360,69.0,35,81,6.0,0.0
4361,52.0,40,36,10.0,0.0
4362,51.0,5,36,10.0,0.0
4363,49.0,1,36,10.0,0.0
4364,81.0,0,27,6.0,0.0
4365,72.0,0,27,6.0,0.0
4366,78.0,0,27,6.0,0.0
4367,69.0,39,27,6.0,0.0
4368,71.0,0,216,2.0,0.0
4369,59.0,20,216,4.0,0.0
4370,66.0,0,216,3.0,0.0
4371,51.0,0,216,5.0,0.0
4372,78.0,0,216,1.0,0.0
4373,81.0,0,36,6.0,0.0
4374,78.0,0,36,6.0,0.0
4375,71.0,0,36,6.0,0.0
4376,51.0,40,36,10.0,0.0
4377,39.0,0,216,5.0,0.0
4378,73.0,0,36,6.0,0.0
4379,49.0,40,36,10.0,0.0
4380,75.0,0,36,6.0,0.0
4381,47.0,40,36,10.0,0.0
4382,75.0,40,36,6.0,0.0
4383,54.0,0,36,10.0,0.0
4384,76.0,20,36,6.0,0.0
4385,52.0,0,36,10.0,0.0
4386,78.0,0,36,6.0,0.0
4387,51.0,40,36,10.0,0.0
4388,78.0,40,36,6.0,0.0
4389,57.0,0,36,10.0,0.0
4390,79.0,0,36,6.0,0.0
4391,55.0,40,36,10.0,0.0
4392,81.0,0,36,6.0,0.0
4393,54.0,40,36,10.0,0.0
4394,60.0,0,36,10.0,0.0
4395,81.0,40,36,6.0,0.0
4396,83.0,40,36,6.0,0.0
4397,59.0,0,36,10.0,0.0
4398,84.0,0,36,6.0,0.0
4399,57.0,40,36,10.0,0.0
4400,84.0,40,36,6.0,0.0
4401,63.0,35,81,10.0,0.0
4402,83.0,5,36,6.0,0.0
4403,81.0,1,36,6.0,0.0
4404,59.0,0,27,10.0,0.0
4405,42.0,0,27,5.0,0.0
4406,75.0,0,27,1.0,0.0
4407,71.0,0,27,3.0,0.0
4408,66.0,39,27,4.0,0.0
4409,75.0,0,27,0.0,0.0
4410,54.0,0,27,5.0,0.0
4411,75.0,0,27,2.0,0.0
4412,43.0,35,81,5.0,0.0
4413,64.0,0,81,10.0,0.0
4414,79.0,40,36,6.0,0.0
4415,76.0,0,81,0.0,0.0
4416,71.0,0,81,3.0,0.0
4417,64.0,0,81,4.0,0.0
4418,55.0,0,81,5.0,0.0
4419,76.0,0,81,1.0,0.0
4420,76.0,0,81,2.0,0.0
4421,78.0,5,36,6.0,0.0
4422,76.0,1,36,6.0,0.0
4423,69.0,0,27,4.0,0.0
4424,57.0,0,27,5.0,0.0
4425,72.0,0,27,3.0,0.0
4426,57.0,39,27,10.0,0.0
4427,78.0,0,27,0.0,0.0
4428,78.0,0,27,1.0,0.0
4429,45.0,0,27,5.0,0.0
4430,78.0,0,27,2.0,0.0
4431,59.0,0,108,5.0,0.0
4432,71.0,0,108,2.0,0.0
4433,71.0,0,108,1.0,0.0
4434,47.0,0,108,5.0,0.0
4435,66.0,0,108,3.0,0.0
4436,75.0,40,36,6.0,0.0
4437,59.0,0,108,10.0,0.0
4438,69.0,0,108,4.0,0.0
4439,71.0,8,108,0.0,0.0
4440,76.0,32,36,6.0,0.0
4441,78.0,40,36,6.0,0.0
4442,75.0,0,108,0.0,0.0
4443,47.0,0,108,5.0,0.0
4444,75.0,0,108,2.0,0.0
4445,35.0,0,108,5.0,0.0
4446,71.0,0,108,3.0,0.0
4447,66.0,8,108,4.0,0.0
4448,47.0,27,81,10.0,0.0
4449,75.0,0,108,1.0,0.0
4450,71.0,40,36,6.0,0.0
4451,72.0,5,36,6.0,0.0
4452,69.0,1,36,6.0,0.0
4453,59.0,39,27,10.0,0.0
4454,76.0,0,108,0.0,0.0
4455,67.0,0,36,6.0,0.0
4456,64.0,0,108,4.0,0.0
4457,76.0,8,108,2.0,0.0
4458,67.0,0,108,3.0,0.0
4459,76.0,0,108,1.0,0.0
4460,48.0,8,588,5.0,0.0
4461,64.0,40,36,6.0,0.0
4462,36.0,0,588,5.0,0.0
4463,71.0,32,36,6.0,0.0
4464,66.0,0,36,6.0,0.0
4465,67.0,40,36,6.0,0.0
4466,76.0,0,36,6.0,0.0
4467,81.0,8,108,0.0,0.0
4468,76.0,40,276,6.0,0.0
4469,66.0,40,36,6.0,0.0
4470,64.0,32,36,6.0,0.0
4471,63.0,40,36,6.0,0.0
4472,80.0,8,108,0.0,0.0
4473,64.0,40,36,6.0,0.0
4474,62.0,32,36,6.0,0.0
4475,60.0,40,36,6.0,0.0
4476,83.0,8,108,0.0,0.0
4477,62.0,0,36,6.0,0.0
4478,60.0,32,36,6.0,0.0
4479,78.0,0,36,6.0,0.0
4480,80.0,0,36,6.0,0.0
4481,59.0,40,36,6.0,0.0
4482,81.0,0,108,0.0,0.0
4483,81.0,0,36,6.0,0.0
4484,60.0,40,36,6.0,0.0
4485,62.0,32,36,6.0,0.0
4486,83.0,0,36,6.0,0.0
4487,64.0,40,36,6.0,0.0
4488,84.0,0,36,6.0,0.0
4489,50.0,0,108,5.0,0.0
4490,38.0,0,108,5.0,0.0
4491,62.0,40,36,10.0,0.0
4492,80.0,8,108,1.0,0.0
4493,76.0,27,81,0.0,0.0
4494,83.0,0,36,6.0,0.0
4495,81.0,0,36,6.0,0.0
4496,60.0,5,36,10.0,0.0
4497,80.0,0,36,6.0,0.0
4498,59.0,1,36,10.0,0.0
4499,75.0,39,27,0.0,0.0
4500,60.0,0,36,10.0,0.0
4501,76.0,0,108,0.0,0.0
4502,81.0,0,108,1.0,0.0
4503,36.0,8,108,5.0,0.0
4504,48.0,0,108,5.0,0.0
4505,81.0,40,36,6.0,0.0
4506,59.0,0,36,10.0,0.0
4507,79.0,32,36,6.0,0.0
4508,78.0,0,36,6.0,0.0
4509,57.0,40,36,10.0,0.0
4510,47.0,0,108,5.0,0.0
4511,84.0,0,108,1.0,0.0
4512,35.0,0,108,5.0,0.0
4513,76.0,8,108,0.0,0.0
4514,79.0,0,36,6.0,0.0
4515,59.0,40,36,10.0,0.0
4516,57.0,32,36,10.0,0.0
4517,78.0,0,36,6.0,0.0
4518,76.0,0,36,6.0,0.0
4519,55.0,40,36,10.0,0.0
4520,84.0,12,864,0.0,0.0
4521,33.0,0,588,5.0,0.0
4522,75.0,0,108,1.0,0.0
4523,45.0,8,588,5.0,0.0
4524,57.0,40,36,10.0,0.0
4525,78.0,8,108,6.0,0.0
4526,59.0,32,36,10.0,0.0
4527,60.0,40,36,10.0,0.0
4528,78.0,0,81,1.0,0.0
4529,51.0,40,36,10.0,0.0
4530,81.0,35,81,6.0,0.0
4531,60.0,5,36,10.0,0.0
4532,59.0,1,36,10.0,0.0
4533,76.0,0,27,1.0,0.0
4534,79.0,39,27,6.0,0.0
4535,57.0,40,36,10.0,0.0
4536,78.0,0,108,6.0,0.0
4537,78.0,8,108,1.0,0.0
4538,59.0,32,36,10.0,0.0
4539,60.0,40,36,10.0,0.0
4540,76.0,8,108,6.0,0.0
4541,52.0,40,36,10.0,0.0
4542,81.0,0,108,1.0,0.0
4543,60.0,32,36,10.0,0.0
4544,59.0,40,36,10.0,0.0
4545,75.0,0,108,6.0,0.0
4546,66.0,0,588,1.0,0.0
4547,57.0,40,36,10.0,0.0
4548,59.0,32,36,10.0,0.0
4549,60.0,40,36,10.0,0.0
4550,35.0,0,108,5.0,0.0
4551,54.0,40,36,10.0,0.0
4552,78.0,27,81,6.0,0.0
4553,47.0,8,108,5.0,0.0
4554,60.0,5,36,10.0,0.0
4555,59.0,1,36,10.0,0.0
4556,76.0,39,27,6.0,0.0
4557,75.0,0,108,6.0,0.0
4558,36.0,0,108,5.0,0.0
4559,48.0,8,108,5.0,0.0
4560,57.0,40,36,10.0,0.0
4561,59.0,32,36,10.0,0.0
4562,60.0,28,36,10.0,0.0
4563,35.0,0,108,5.0,0.0
4564,76.0,27,81,6.0,0.0
4565,55.0,40,36,10.0,0.0
4566,47.0,8,108,5.0,0.0
4567,60.0,5,36,10.0,0.0
4568,59.0,1,36,10.0,0.0
4569,78.0,39,27,6.0,0.0
4570,33.0,0,108,5.0,0.0
4571,57.0,40,36,10.0,0.0
4572,75.0,8,108,0.0,0.0
4573,71.0,0,516,6.0,0.0
4574,45.0,0,108,5.0,0.0
4575,59.0,32,36,10.0,0.0
4576,63.0,40,36,10.0,0.0
4577,51.0,8,108,5.0,0.0
4578,66.0,40,36,6.0,0.0
4579,39.0,0,108,5.0,0.0
4580,69.0,32,36,6.0,0.0
4581,66.0,40,36,6.0,0.0
4582,54.0,8,108,5.0,0.0
4583,42.0,0,108,5.0,0.0
4584,63.0,40,36,6.0,0.0
4585,66.0,32,36,6.0,0.0
4586,63.0,40,36,6.0,0.0
4587,59.0,40,36,10.0,0.0
4588,57.0,0,108,5.0,0.0
4589,45.0,8,108,5.0,0.0
4590,63.0,32,36,10.0,0.0
4591,59.0,40,36,10.0,0.0
4592,55.0,8,108,5.0,0.0
4593,43.0,0,108,5.0,0.0
4594,55.0,40,36,10.0,0.0
4595,59.0,0,36,10.0,0.0
4596,76.0,32,36,6.0,0.0
4597,57.0,0,36,10.0,0.0
4598,75.0,40,36,6.0,0.0
4599,55.0,40,36,10.0,0.0
4600,40.0,0,108,5.0,0.0
4601,76.0,0,36,6.0,0.0
4602,52.0,8,108,5.0,0.0
4603,54.0,32,36,10.0,0.0
4604,71.0,0,36,6.0,0.0
4605,72.0,0,36,6.0,0.0
4606,52.0,112,36,10.0,0.0
4607,35.0,54,108,5.0,0.0
4608,47.0,0,108,5.0,0.0
4609,59.0,0,108,10.0,0.0
4610,66.0,12,162,6.0,0.0
4611,59.0,0,108,5.0,0.0
4612,47.0,54,54,10.0,0.0
4613,47.0,0,108,5.0,0.0
4614,87.0,6,108,0.0,0.0
4615,64.0,42,54,6.0,0.0
4616,59.0,0,54,10.0,0.0
4617,60.0,0,36,10.0,0.0
4618,60.0,0,36,5.0,0.0
4619,48.0,40,36,5.0,0.0
4620,64.0,12,216,6.0,0.0
4621,88.0,4,432,0.0,0.0
4622,59.0,0,36,10.0,0.0
4623,47.0,0,36,5.0,0.0
4624,59.0,40,36,5.0,0.0
4625,57.0,0,36,10.0,0.0
4626,57.0,0,36,5.0,0.0
4627,45.0,1,36,5.0,0.0
4628,76.0,39,27,1.0,0.0
4629,57.0,0,36,10.0,0.0
4630,57.0,40,36,5.0,0.0
4631,72.0,0,108,2.0,0.0
4632,72.0,15,81,1.0,0.0
4633,57.0,0,108,4.0,0.0
4634,69.0,8,108,3.0,0.0
4635,45.0,0,36,5.0,0.0
4636,43.0,0,36,5.0,0.0
4637,55.0,5,36,10.0,0.0
4638,55.0,0,36,5.0,0.0
4639,42.0,0,36,5.0,0.0
4640,54.0,0,36,5.0,0.0
4641,54.0,1,36,10.0,0.0
4642,76.0,39,27,1.0,0.0
4643,57.0,8,108,4.0,0.0
4644,69.0,0,108,3.0,0.0
4645,54.0,0,36,5.0,0.0
4646,42.0,40,36,5.0,0.0
4647,69.0,27,81,1.0,0.0
4648,54.0,0,36,10.0,0.0
4649,72.0,0,108,2.0,0.0
4650,43.0,5,36,5.0,0.0
4651,55.0,0,36,5.0,0.0
4652,55.0,0,36,10.0,0.0
4653,57.0,0,36,5.0,0.0
4654,57.0,1,36,10.0,0.0
4655,45.0,0,36,5.0,0.0
4656,72.0,39,27,1.0,0.0
4657,57.0,36,36,10.0,0.0
4658,66.0,27,81,1.0,0.0
4659,69.0,8,108,3.0,0.0
4660,57.0,0,108,4.0,0.0
4661,72.0,0,108,2.0,0.0
4662,45.0,0,36,5.0,0.0
4663,57.0,0,36,5.0,0.0
4664,47.0,0,36,5.0,0.0
4665,59.0,0,36,5.0,0.0
4666,59.0,5,36,10.0,0.0
4667,60.0,0,36,10.0,0.0
4668,48.0,1,36,5.0,0.0
4669,60.0,0,36,5.0,0.0
4670,69.0,39,27,1.0,0.0
4671,86.0,35,561,0.0,0.0
4672,59.0,40,36,10.0,0.0
4673,59.0,0,36,5.0,0.0
4674,47.0,0,36,5.0,0.0
4675,59.0,35,81,1.0,0.0
4676,45.0,5,36,5.0,0.0
4677,57.0,0,36,10.0,0.0
4678,57.0,0,36,5.0,0.0
4679,44.0,1,36,5.0,0.0
4680,56.0,0,36,10.0,0.0
4681,56.0,0,36,5.0,0.0
4682,74.0,39,27,1.0,0.0
4683,59.0,0,108,4.0,0.0
4684,44.0,0,36,5.0,0.0
4685,71.0,0,108,2.0,0.0
4686,64.0,8,108,3.0,0.0
4687,56.0,0,36,10.0,0.0
4688,71.0,27,81,1.0,0.0
4689,56.0,40,36,5.0,0.0
4690,42.0,0,36,5.0,0.0
4691,54.0,5,36,5.0,0.0
4692,54.0,0,36,10.0,0.0
4693,40.0,0,36,5.0,0.0
4694,52.0,0,36,5.0,0.0
4695,52.0,1,36,10.0,0.0
4696,74.0,39,27,1.0,0.0
4697,64.0,0,108,3.0,0.0
4698,52.0,0,36,5.0,0.0
4699,59.0,0,108,4.0,0.0
4700,68.0,27,81,1.0,0.0
4701,40.0,40,36,5.0,0.0
4702,52.0,0,36,10.0,0.0
4703,71.0,8,108,2.0,0.0
4704,54.0,5,36,10.0,0.0
4705,42.0,0,36,5.0,0.0
4706,54.0,0,36,5.0,0.0
4707,44.0,0,36,5.0,0.0
4708,56.0,0,36,10.0,0.0
4709,56.0,1,36,5.0,0.0
4710,71.0,39,27,1.0,0.0
4711,71.0,0,108,2.0,0.0
4712,64.0,8,108,3.0,0.0
4713,56.0,0,36,5.0,0.0
4714,59.0,0,108,4.0,0.0
4715,44.0,40,36,5.0,0.0
4716,56.0,0,36,10.0,0.0
4717,64.0,27,81,1.0,0.0
4718,57.0,0,36,10.0,0.0
4719,45.0,5,36,5.0,0.0
4720,57.0,0,36,5.0,0.0
4721,59.0,0,36,5.0,0.0
4722,47.0,0,36,5.0,0.0
4723,59.0,1,36,10.0,0.0
4724,68.0,39,27,1.0,0.0
4725,45.0,0,36,5.0,0.0
4726,57.0,40,36,5.0,0.0
4727,57.0,0,36,10.0,0.0
4728,57.0,12,216,1.0,0.0
4729,55.0,0,36,5.0,0.0
4730,55.0,0,36,10.0,0.0
4731,43.0,5,36,5.0,0.0
4732,42.0,1,36,5.0,0.0
4733,54.0,0,36,10.0,0.0
4734,54.0,0,36,5.0,0.0
4735,84.0,39,27,0.0,0.0
4736,81.0,15,81,0.0,0.0
4737,54.0,0,36,10.0,0.0
4738,69.0,0,108,2.0,0.0
4739,66.0,8,108,4.0,0.0
4740,72.0,0,108,3.0,0.0
4741,54.0,0,36,5.0,0.0
4742,42.0,40,36,5.0,0.0
4743,52.0,0,36,10.0,0.0
4744,52.0,0,36,5.0,0.0
4745,40.0,5,36,5.0,0.0
4746,51.0,1,36,5.0,0.0
4747,39.0,0,36,5.0,0.0
4748,51.0,0,36,10.0,0.0
4749,84.0,39,27,0.0,0.0
4750,51.0,0,36,10.0,0.0
4751,78.0,27,81,0.0,0.0
4752,69.0,0,108,3.0,0.0
4753,51.0,0,36,5.0,0.0
4754,39.0,40,36,5.0,0.0
4755,69.0,8,108,2.0,0.0
4756,66.0,0,108,4.0,0.0
4757,84.0,0,108,1.0,0.0
4758,52.0,0,36,10.0,0.0
4759,52.0,5,36,5.0,0.0
4760,40.0,0,36,5.0,0.0
4761,54.0,0,36,10.0,0.0
4762,42.0,1,36,5.0,0.0
4763,54.0,0,36,5.0,0.0
4764,81.0,39,27,0.0,0.0
4765,83.0,0,108,1.0,0.0
4766,66.0,0,108,3.0,0.0
4767,54.0,40,36,10.0,0.0
4768,69.0,0,108,2.0,0.0
4769,75.0,27,81,0.0,0.0
4770,54.0,0,36,5.0,0.0
4771,42.0,0,36,5.0,0.0
4772,69.0,8,108,4.0,0.0
4773,55.0,0,36,10.0,0.0
4774,43.0,0,36,5.0,0.0
4775,55.0,5,36,5.0,0.0
4776,57.0,0,36,10.0,0.0
4777,57.0,0,36,5.0,0.0
4778,45.0,1,36,5.0,0.0
4779,78.0,39,27,0.0,0.0
4780,43.0,0,36,5.0,0.0
4781,55.0,0,36,10.0,0.0
4782,71.0,35,81,0.0,0.0
4783,55.0,40,36,5.0,0.0
4784,54.0,0,36,5.0,0.0
4785,42.0,5,36,5.0,0.0
4786,54.0,0,36,10.0,0.0
4787,52.0,0,36,10.0,0.0
4788,40.0,1,36,5.0,0.0
4789,52.0,0,36,5.0,0.0
4790,83.0,39,27,0.0,0.0
4791,64.0,0,108,4.0,0.0
4792,40.0,0,36,5.0,0.0
4793,76.0,8,108,2.0,0.0
4794,79.0,27,81,0.0,0.0
4795,71.0,0,108,3.0,0.0
4796,52.0,0,36,10.0,0.0
4797,52.0,40,36,5.0,0.0
4798,39.0,0,36,5.0,0.0
4799,51.0,0,36,5.0,0.0
4800,51.0,5,36,10.0,0.0
4801,49.0,0,36,5.0,0.0
4802,37.0,1,36,5.0,0.0
4803,49.0,0,36,10.0,0.0
4804,83.0,39,27,0.0,0.0
4805,67.0,0,108,3.0,0.0
4806,64.0,0,108,4.0,0.0
4807,49.0,0,36,10.0,0.0
4808,83.0,0,108,1.0,0.0
4809,76.0,8,108,2.0,0.0
4810,76.0,27,81,0.0,0.0
4811,37.0,0,36,5.0,0.0
4812,49.0,40,36,5.0,0.0
4813,51.0,0,36,5.0,0.0
4814,51.0,5,36,10.0,0.0
4815,39.0,0,36,5.0,0.0
4816,40.0,1,36,5.0,0.0
4817,52.0,0,36,5.0,0.0
4818,52.0,0,36,10.0,0.0
4819,79.0,39,27,0.0,0.0
4820,40.0,0,36,5.0,0.0
4821,52.0,0,36,5.0,0.0
4822,81.0,0,108,1.0,0.0
4823,76.0,8,108,2.0,0.0
4824,67.0,0,108,4.0,0.0
4825,73.0,27,81,0.0,0.0
4826,64.0,0,108,3.0,0.0
4827,52.0,40,36,10.0,0.0
4828,54.0,0,36,10.0,0.0
4829,42.0,0,36,5.0,0.0
4830,54.0,5,36,5.0,0.0
4831,43.0,0,36,5.0,0.0
4832,55.0,1,36,5.0,0.0
4833,55.0,0,36,10.0,0.0
4834,76.0,111,27,0.0,0.0
4835,42.0,0,108,5.0,0.0
4836,75.0,0,108,1.0,0.0
4837,54.0,0,108,5.0,0.0
4838,54.0,0,108,10.0,0.0
4839,69.0,48,108,0.0,0.0
4840,33.0,0,108,5.0,0.0
4841,45.0,0,108,5.0,0.0
4842,72.0,0,36,3.0,0.0
4843,78.0,0,108,1.0,0.0
4844,72.0,40,36,4.0,0.0
4845,72.0,0,36,2.0,0.0
4846,75.0,0,108,0.0,0.0
4847,45.0,8,108,10.0,0.0
4848,71.0,0,36,2.0,0.0
4849,71.0,0,36,3.0,0.0
4850,71.0,32,36,4.0,0.0
4851,69.0,40,36,4.0,0.0
4852,69.0,0,36,2.0,0.0
4853,69.0,0,36,3.0,0.0
4854,79.0,0,36,1.0,0.0
4855,67.0,0,36,3.0,0.0
4856,67.0,0,36,2.0,0.0
4857,47.0,0,108,5.0,0.0
4858,67.0,40,36,4.0,0.0
4859,35.0,8,108,5.0,0.0
4860,47.0,0,108,10.0,0.0
4861,76.0,0,36,0.0,0.0
4862,81.0,32,36,1.0,0.0
4863,66.0,0,36,4.0,0.0
4864,78.0,0,36,0.0,0.0
4865,66.0,0,36,2.0,0.0
4866,66.0,0,36,3.0,0.0
4867,79.0,0,36,0.0,0.0
4868,64.0,0,36,2.0,0.0
4869,83.0,40,36,1.0,0.0
4870,64.0,0,36,4.0,0.0
4871,64.0,0,36,3.0,0.0
4872,36.0,8,108,5.0,0.0
4873,48.0,0,108,5.0,0.0
4874,63.0,0,36,3.0,0.0
4875,63.0,0,36,4.0,0.0
4876,78.0,0,156,0.0,0.0
4877,48.0,0,108,10.0,0.0
4878,81.0,40,156,1.0,0.0
4879,63.0,40,36,2.0,0.0
4880,64.0,0,36,3.0,0.0
4881,64.0,32,36,4.0,0.0
4882,64.0,0,36,2.0,0.0
4883,66.0,40,36,3.0,0.0
4884,66.0,0,36,4.0,0.0
4885,66.0,0,36,2.0,0.0
4886,39.0,0,108,10.0,0.0
4887,59.0,0,108,4.0,0.0
4888,27.0,0,108,5.0,0.0
4889,59.0,0,108,2.0,0.0
4890,59.0,8,108,3.0,0.0
4891,39.0,0,108,5.0,0.0
4892,79.0,0,36,1.0,0.0
4893,76.0,32,36,0.0,0.0
4894,78.0,0,36,0.0,0.0
4895,81.0,40,36,1.0,0.0
4896,71.0,40,36,0.0,0.0
4897,75.0,0,36,1.0,0.0
4898,57.0,0,108,5.0,0.0
4899,57.0,0,108,10.0,0.0
4900,45.0,8,108,5.0,0.0
4901,76.0,32,36,1.0,0.0
4902,73.0,0,36,0.0,0.0
4903,78.0,0,36,1.0,0.0
4904,75.0,40,36,0.0,0.0
4905,55.0,0,108,5.0,0.0
4906,79.0,0,36,1.0,0.0
4907,43.0,8,108,5.0,0.0
4908,55.0,0,108,10.0,0.0
4909,76.0,40,36,0.0,0.0
4910,78.0,32,36,0.0,0.0
4911,81.0,0,36,1.0,0.0
4912,83.0,0,36,1.0,0.0
4913,79.0,40,36,0.0,0.0
4914,42.0,0,108,5.0,0.0
4915,84.0,27,81,1.0,0.0
4916,54.0,0,108,5.0,0.0
4917,54.0,8,108,10.0,0.0
4918,81.0,40,36,0.0,0.0
4919,83.0,5,36,0.0,0.0
4920,84.0,1,36,0.0,0.0
4921,75.0,39,27,1.0,0.0
4922,55.0,0,108,5.0,0.0
4923,83.0,40,36,0.0,0.0
4924,76.0,27,81,1.0,0.0
4925,55.0,0,108,10.0,0.0
4926,43.0,8,108,5.0,0.0
4927,81.0,5,36,0.0,0.0
4928,79.0,1,36,0.0,0.0
4929,71.0,39,27,1.0,0.0
4930,45.0,6,108,5.0,0.0
4931,72.0,27,81,1.0,0.0
4932,78.0,40,36,0.0,0.0
4933,57.0,0,108,10.0,0.0
4934,57.0,0,108,5.0,0.0
4935,79.0,5,36,0.0,0.0
4936,64.0,0,54,4.0,0.0
4937,78.0,2,54,2.0,0.0
4938,72.0,0,54,3.0,0.0
4939,76.0,1,36,0.0,0.0
4940,69.0,84,27,1.0,0.0
4941,47.0,0,108,5.0,0.0
4942,59.0,9,108,5.0,0.0
4943,71.0,0,108,3.0,0.0
4944,67.0,0,108,1.0,0.0
4945,71.0,27,81,0.0,0.0
4946,64.0,0,108,4.0,0.0
4947,59.0,0,108,10.0,0.0
4948,79.0,0,81,2.0,0.0
4949,76.0,84,27,2.0,0.0
4950,76.0,0,27,0.0,0.0
4951,57.0,0,108,10.0,0.0
4952,63.0,0,108,4.0,0.0
4953,66.0,9,108,1.0,0.0
4954,71.0,0,108,3.0,0.0
4955,78.0,27,81,0.0,0.0
4956,57.0,0,108,5.0,0.0
4957,71.0,0,81,2.0,0.0
4958,45.0,0,108,5.0,0.0
4959,75.0,39,27,0.0,0.0
4960,75.0,0,27,2.0,0.0
4961,71.0,8,108,4.0,0.0
4962,76.0,40,516,0.0,0.0
4963,59.0,40,36,1.0,0.0
4964,76.0,0,108,2.0,0.0
4965,64.0,0,108,3.0,0.0
4966,44.0,0,108,5.0,0.0
4967,56.0,0,108,5.0,0.0
4968,56.0,0,108,10.0,0.0
4969,60.0,32,36,1.0,0.0
4970,62.0,40,36,1.0,0.0
4971,40.0,0,108,5.0,0.0
4972,52.0,0,108,10.0,0.0
4973,52.0,8,108,5.0,0.0
4974,64.0,40,36,1.0,0.0
4975,66.0,32,36,1.0,0.0
4976,68.0,40,36,1.0,0.0
4977,69.0,40,36,1.0,0.0
4978,54.0,0,108,10.0,0.0
4979,54.0,0,108,5.0,0.0
4980,42.0,8,108,5.0,0.0
4981,71.0,32,36,1.0,0.0
4982,72.0,40,36,1.0,0.0
4983,71.0,0,108,3.0,0.0
4984,74.0,40,36,1.0,0.0
4985,56.0,0,108,5.0,0.0
4986,64.0,0,108,4.0,0.0
4987,56.0,0,108,10.0,0.0
4988,44.0,0,108,5.0,0.0
4989,76.0,8,108,2.0,0.0
4990,72.0,32,36,1.0,0.0
4991,71.0,40,36,1.0,0.0
4992,76.0,0,108,2.0,0.0
4993,45.0,0,108,5.0,0.0
4994,72.0,8,108,1.0,0.0
4995,72.0,0,108,3.0,0.0
4996,57.0,0,108,5.0,0.0
4997,69.0,0,108,4.0,0.0
4998,57.0,0,108,10.0,0.0
4999,72.0,32,36,0.0,0.0
5000,74.0,40,36,0.0,0.0
5001,59.0,8,108,5.0,0.0
5002,47.0,0,108,5.0,0.0
5003,59.0,0,108,10.0,0.0
5004,76.0,40,36,0.0,0.0
5005,74.0,32,36,0.0,0.0
5006,76.0,40,36,0.0,0.0
5007,69.0,40,36,0.0,0.0
5008,60.0,0,108,10.0,0.0
5009,60.0,0,108,5.0,0.0
5010,48.0,8,108,5.0,0.0
5011,76.0,32,36,0.0,0.0
5012,78.0,40,36,0.0,0.0
5013,47.0,0,108,5.0,0.0
5014,67.0,0,108,3.0,0.0
5015,59.0,8,108,10.0,0.0
5016,79.0,40,36,0.0,0.0
5017,71.0,0,108,4.0,0.0
5018,59.0,0,108,5.0,0.0
5019,76.0,0,108,2.0,0.0
5020,78.0,32,36,0.0,0.0
5021,76.0,80,36,0.0,0.0
5022,78.0,40,516,0.0,0.0
5023,58.0,0,108,10.0,0.0
5024,78.0,0,108,2.0,0.0
5025,61.0,0,108,3.0,0.0
5026,66.0,0,108,4.0,0.0
5027,58.0,0,108,5.0,0.0
5028,46.0,8,108,5.0,0.0
5029,70.0,32,36,1.0,0.0
5030,71.0,40,36,1.0,0.0
5031,42.0,0,54,5.0,0.0
5032,54.0,22,54,5.0,0.0
5033,54.0,0,54,10.0,0.0
5034,73.0,18,36,1.0,0.0
5035,71.0,38,36,1.0,0.0
5036,44.0,0,54,5.0,0.0
5037,56.0,2,54,10.0,0.0
5038,56.0,0,54,5.0,0.0
5039,73.0,40,36,1.0,0.0
5040,58.0,8,108,10.0,0.0
5041,58.0,0,108,5.0,0.0
5042,66.0,40,36,1.0,0.0
5043,46.0,0,108,5.0,0.0
5044,73.0,32,36,1.0,0.0
5045,74.0,40,36,1.0,0.0
5046,76.0,40,36,1.0,0.0
5047,54.0,0,108,10.0,0.0
5048,42.0,0,108,5.0,0.0
5049,78.0,0,108,2.0,0.0
5050,66.0,0,108,4.0,0.0
5051,54.0,8,108,5.0,0.0
5052,73.0,0,108,3.0,0.0
5053,75.0,32,36,1.0,0.0
5054,73.0,40,36,1.0,0.0
5055,59.0,0,108,10.0,0.0
5056,47.0,0,108,5.0,0.0
5057,59.0,0,108,4.0,0.0
5058,78.0,8,108,3.0,0.0
5059,75.0,0,36,1.0,0.0
5060,59.0,0,108,5.0,0.0
5061,78.0,0,108,2.0,0.0
5062,78.0,0,36,1.0,0.0
5063,75.0,32,36,0.0,0.0
5064,76.0,40,36,0.0,0.0
5065,79.0,0,36,1.0,0.0
5066,81.0,18,36,1.0,0.0
5067,57.0,0,54,5.0,0.0
5068,45.0,22,54,5.0,0.0
5069,78.0,0,36,0.0,0.0
5070,57.0,0,54,10.0,0.0
5071,79.0,38,36,1.0,0.0
5072,76.0,0,36,0.0,0.0
5073,55.0,2,54,5.0,0.0
5074,43.0,0,54,5.0,0.0
5075,55.0,0,54,10.0,0.0
5076,78.0,40,36,0.0,0.0
5077,81.0,0,36,1.0,0.0
5078,57.0,0,108,5.0,0.0
5079,75.0,0,36,1.0,0.0
5080,57.0,8,108,10.0,0.0
5081,71.0,40,36,0.0,0.0
5082,45.0,0,108,5.0,0.0
5083,81.0,0,36,1.0,0.0
5084,78.0,32,36,0.0,0.0
5085,83.0,0,36,1.0,0.0
5086,79.0,40,36,0.0,0.0
5087,84.0,0,36,1.0,0.0
5088,51.0,0,108,5.0,0.0
5089,51.0,8,108,10.0,0.0
5090,39.0,0,108,5.0,0.0
5091,81.0,40,36,0.0,0.0
5092,83.0,32,36,1.0,0.0
5093,79.0,0,36,0.0,0.0
5094,78.0,0,36,0.0,0.0
5095,81.0,40,36,1.0,0.0
5096,83.0,40,36,0.0,0.0
5097,79.0,0,36,1.0,0.0
5098,52.0,0,108,5.0,0.0
5099,52.0,8,108,10.0,0.0
5100,40.0,0,108,5.0,0.0
5101,81.0,0,36,0.0,0.0
5102,78.0,32,36,1.0,0.0
5103,76.0,40,36,1.0,0.0
5104,79.0,0,36,0.0,0.0
5105,84.0,0,36,2.0,0.0
5106,76.0,0,108,3.0,0.0
5107,33.0,0,108,5.0,0.0
5108,45.0,0,108,10.0,0.0
5109,52.0,0,54,10.0,0.0
5110,84.0,18,36,1.0,0.0
5111,84.0,0,36,0.0,0.0
5112,52.0,22,54,4.0,0.0
5113,45.0,6,108,5.0,0.0
5114,83.0,32,36,2.0,0.0
5115,83.0,0,36,0.0,0.0
5116,83.0,0,36,1.0,0.0
5117,54.0,0,54,4.0,0.0
5118,54.0,2,54,10.0,0.0
5119,81.0,58,36,0.0,0.0
5120,81.0,0,36,1.0,0.0
5121,81.0,0,36,2.0,0.0
5122,35.0,0,108,5.0,0.0
5123,55.0,0,54,10.0,0.0
5124,79.0,0,108,0.0,0.0
5125,47.0,0,108,5.0,0.0
5126,47.0,6,108,10.0,0.0
5127,76.0,0,108,3.0,0.0
5128,79.0,0,108,1.0,0.0
5129,55.0,54,54,4.0,0.0
5130,79.0,0,108,2.0,0.0
5131,59.0,60,54,10.0,0.0
5132,59.0,0,54,4.0,0.0
5133,78.0,0,108,2.0,0.0
5134,35.0,0,108,5.0,0.0
5135,47.0,0,108,5.0,0.0
5136,35.0,0,108,10.0,0.0
5137,57.0,0,54,10.0,0.0
5138,75.0,0,108,3.0,0.0
5139,78.0,0,108,1.0,0.0
5140,57.0,54,54,4.0,0.0
5141,78.0,6,108,0.0,0.0
5142,54.0,0,54,4.0,0.0
5143,54.0,42,54,10.0,0.0
5144,40.0,0,108,5.0,0.0
5145,55.0,0,36,4.0,0.0
5146,55.0,40,36,10.0,0.0
5147,40.0,0,108,10.0,0.0
5148,76.0,0,108,1.0,0.0
5149,71.0,0,108,3.0,0.0
5150,28.0,0,108,5.0,0.0
5151,76.0,0,108,2.0,0.0
5152,76.0,8,108,0.0,0.0
5153,54.0,32,36,4.0,0.0
5154,54.0,0,36,10.0,0.0
5155,52.0,40,36,10.0,0.0
5156,52.0,0,36,4.0,0.0
5157,64.0,0,54,6.0,0.0
5158,60.0,18,36,4.0,0.0
5159,64.0,22,54,3.0,0.0
5160,60.0,0,36,10.0,0.0
5161,59.0,38,36,4.0,0.0
5162,59.0,0,36,10.0,0.0
5163,66.0,0,54,6.0,0.0
5164,66.0,2,54,3.0,0.0
5165,57.0,0,36,4.0,0.0
5166,57.0,58,36,10.0,0.0
5167,67.0,0,54,3.0,0.0
5168,67.0,54,54,6.0,0.0
5169,59.0,0,108,10.0,0.0
5170,59.0,6,108,4.0,0.0
5171,71.0,60,54,6.0,0.0
5172,71.0,0,54,3.0,0.0
5173,63.0,0,108,4.0,0.0
5174,69.0,0,54,3.0,0.0
5175,63.0,6,108,10.0,0.0
5176,69.0,54,54,6.0,0.0
5177,66.0,0,54,3.0,0.0
5178,66.0,42,54,6.0,0.0
5179,64.0,0,108,4.0,0.0
5180,67.0,0,36,6.0,0.0
5181,67.0,40,36,3.0,0.0
5182,66.0,32,36,6.0,0.0
5183,66.0,0,36,3.0,0.0
5184,64.0,0,28,6.0,0.0
5185,64.0,58,36,3.0,0.0
5186,64.0,0,108,4.0,0.0
5187,45.0,0,54,5.0,0.0
5188,72.0,0,108,3.0,0.0
5189,64.0,6,108,6.0,0.0
5190,72.0,0,108,6.0,0.0
5191,33.0,0,54,5.0,0.0
5192,45.0,54,54,10.0,0.0
5193,35.0,0,54,5.0,0.0
5194,47.0,42,54,5.0,0.0
5195,47.0,0,54,10.0,0.0
5196,36.0,0,54,5.0,0.0
5197,48.0,0,54,10.0,0.0
5198,48.0,22,54,5.0,0.0
5199,66.0,0,108,6.0,0.0
5200,57.0,0,108,6.0,0.0
5201,57.0,6,108,4.0,0.0
5202,66.0,18,36,3.0,0.0
5203,62.0,0,108,6.0,0.0
5204,64.0,32,36,3.0,0.0
5205,40.0,0,54,5.0,0.0
5206,52.0,2,54,5.0,0.0
5207,52.0,0,54,10.0,0.0
5208,66.0,40,36,3.0,0.0
5209,59.0,0,108,4.0,0.0
5210,64.0,0,108,6.0,0.0
5211,50.0,22,54,5.0,0.0
5212,68.0,18,36,3.0,0.0
5213,50.0,0,54,10.0,0.0
5214,38.0,0,54,5.0,0.0
5215,59.0,0,108,6.0,0.0
5216,68.0,6,108,6.0,0.0
5217,66.0,32,36,3.0,0.0
5218,35.0,0,54,5.0,0.0
5219,47.0,2,54,5.0,0.0
5220,47.0,0,54,10.0,0.0
5221,68.0,40,36,3.0,0.0
5222,69.0,22,54,3.0,0.0
5223,69.0,0,108,6.0,0.0
5224,48.0,0,36,10.0,0.0
5225,36.0,0,36,5.0,0.0
5226,57.0,0,108,6.0,0.0
5227,48.0,18,36,5.0,0.0
5228,52.0,6,108,4.0,0.0
5229,64.0,0,108,7.0,0.0
5230,47.0,0,36,5.0,0.0
5231,35.0,32,36,5.0,0.0
5232,47.0,0,36,10.0,0.0
5233,57.0,2,54,3.0,0.0
5234,45.0,0,36,5.0,0.0
5235,33.0,0,36,5.0,0.0
5236,45.0,40,36,10.0,0.0
5237,60.0,0,54,3.0,0.0
5238,41.0,0,36,5.0,0.0
5239,69.0,22,54,1.0,0.0
5240,53.0,0,36,10.0,0.0
5241,53.0,18,36,5.0,0.0
5242,69.0,0,54,2.0,0.0
5243,57.0,6,108,4.0,0.0
5244,52.0,0,36,10.0,0.0
5245,40.0,32,36,5.0,0.0
5246,52.0,0,36,5.0,0.0
5247,71.0,0,54,1.0,0.0
5248,71.0,2,54,2.0,0.0
5249,64.0,0,54,3.0,0.0
5250,50.0,0,36,5.0,0.0
5251,50.0,40,36,10.0,0.0
5252,38.0,0,36,5.0,0.0
5253,36.0,0,36,5.0,0.0
5254,48.0,0,36,10.0,0.0
5255,69.0,18,36,3.0,0.0
5256,72.0,22,54,2.0,0.0
5257,72.0,0,54,1.0,0.0
5258,48.0,0,36,5.0,0.0
5259,64.0,6,108,4.0,0.0
5260,47.0,32,36,5.0,0.0
5261,47.0,0,36,10.0,0.0
5262,71.0,0,36,3.0,0.0
5263,35.0,0,36,5.0,0.0
5264,76.0,0,54,2.0,0.0
5265,76.0,2,54,1.0,0.0
5266,45.0,0,36,10.0,0.0
5267,72.0,0,36,3.0,0.0
5268,45.0,0,36,5.0,0.0
5269,33.0,40,36,5.0,0.0
5270,52.0,0,36,5.0,0.0
5271,64.0,6,108,4.0,0.0
5272,74.0,22,54,2.0,0.0
5273,52.0,18,36,10.0,0.0
5274,40.0,0,36,5.0,0.0
5275,71.0,0,36,3.0,0.0
5276,74.0,0,54,1.0,0.0
5277,50.0,0,36,10.0,0.0
5278,69.0,0,36,3.0,0.0
5279,38.0,32,36,5.0,0.0
5280,50.0,0,36,5.0,0.0
5281,71.0,0,54,1.0,0.0
5282,71.0,2,54,2.0,0.0
5283,40.0,0,36,5.0,0.0
5284,52.0,0,36,10.0,0.0
5285,68.0,0,36,3.0,0.0
5286,52.0,40,36,5.0,0.0
5287,64.0,0,108,4.0,0.0
5288,69.0,6,108,3.0,0.0
5289,45.0,0,108,5.0,0.0
5290,72.0,22,54,1.0,0.0
5291,45.0,0,108,10.0,0.0
5292,33.0,0,108,5.0,0.0
5293,72.0,18,36,2.0,0.0
5294,71.0,32,36,2.0,0.0
5295,69.0,0,54,0.0,0.0
5296,69.0,2,54,1.0,0.0
5297,69.0,58,36,2.0,0.0
5298,41.0,0,108,5.0,0.0
5299,72.0,54,54,0.0,0.0
5300,81.0,0,228,2.0,0.0
5301,72.0,0,54,1.0,0.0
5302,41.0,0,108,10.0,0.0
5303,60.0,0,108,3.0,0.0
5304,29.0,6,108,5.0,0.0
5305,57.0,0,54,4.0,0.0
5306,76.0,42,54,0.0,0.0
5307,59.0,0,54,4.0,0.0
5308,76.0,0,54,1.0,0.0
5309,36.0,0,108,5.0,0.0
5310,60.0,22,54,4.0,0.0
5311,64.0,0,108,3.0,0.0
5312,81.0,18,36,0.0,0.0
5313,81.0,0,36,1.0,0.0
5314,36.0,0,108,10.0,0.0
5315,24.0,6,108,5.0,0.0
5316,83.0,32,36,1.0,0.0
5317,83.0,0,36,0.0,0.0
5318,64.0,2,54,4.0,0.0
5319,84.0,40,36,0.0,0.0
5320,84.0,0,36,1.0,0.0
5321,80.0,0,108,2.0,0.0
5322,83.0,0,36,1.0,0.0
5323,64.0,0,108,3.0,0.0
5324,40.0,0,108,10.0,0.0
5325,62.0,22,54,4.0,0.0
5326,83.0,18,36,0.0,0.0
5327,28.0,6,108,5.0,0.0
5328,40.0,0,108,5.0,0.0
5329,81.0,0,36,1.0,0.0
5330,81.0,32,36,0.0,0.0
5331,59.0,2,54,4.0,0.0
5332,80.0,112,36,0.0,0.0
5333,80.0,0,36,1.0,0.0
5334,45.0,0,108,5.0,0.0
5335,64.0,0,108,3.0,0.0
5336,81.0,0,108,1.0,0.0
5337,60.0,0,108,4.0,0.0
5338,45.0,93,108,10.0,0.0
5339,33.0,0,108,5.0,0.0
5340,81.0,0,108,0.0,0.0
5341,81.0,0,108,2.0,0.0
5342,81.0,27,81,6.0,0.0
5343,53.0,0,108,10.0,0.0
5344,62.0,0,108,10.0,0.0
5345,57.0,9,108,8.0,0.0
5346,79.0,39,27,6.0,0.0
5347,62.0,8,108,10.0,0.0
5348,58.0,0,108,8.0,0.0
5349,77.0,40,36,6.0,0.0
5350,55.0,0,108,10.0,0.0
5351,76.0,32,36,6.0,0.0
5352,74.0,40,36,6.0,0.0
5353,49.0,8,108,10.0,0.0
5354,52.0,0,108,8.0,0.0
5355,57.0,0,108,10.0,0.0
5356,76.0,40,36,6.0,0.0
5357,77.0,32,36,6.0,0.0
5358,79.0,40,36,6.0,0.0
5359,77.0,40,36,6.0,0.0
5360,57.0,8,108,10.0,0.0
5361,50.0,0,108,10.0,0.0
5362,76.0,32,36,6.0,0.0
5363,74.0,85,36,6.0,0.0
5364,52.0,0,81,5.0,0.0
5365,52.0,0,81,10.0,0.0
5366,67.0,0,81,4.0,0.0
5367,79.0,0,81,2.0,0.0
5368,79.0,0,81,1.0,0.0
5369,72.0,0,81,3.0,0.0
5370,79.0,36,81,0.0,0.0
5371,40.0,0,81,5.0,0.0
5372,53.0,0,27,10.0,0.0
5373,77.0,39,27,0.0,0.0
5374,77.0,0,27,1.0,0.0
5375,69.0,0,27,4.0,0.0
5376,41.0,0,27,5.0,0.0
5377,72.0,0,27,3.0,0.0
5378,77.0,0,27,2.0,0.0
5379,53.0,0,27,5.0,0.0
5380,55.0,0,108,10.0,0.0
5381,55.0,0,108,5.0,0.0
5382,67.0,0,108,4.0,0.0
5383,76.0,0,36,0.0,0.0
5384,76.0,40,36,2.0,0.0
5385,72.0,0,36,3.0,0.0
5386,76.0,0,36,1.0,0.0
5387,43.0,8,108,5.0,0.0
5388,74.0,0,36,0.0,0.0
5389,71.0,0,36,3.0,0.0
5390,74.0,0,36,1.0,0.0
5391,74.0,32,36,2.0,0.0
5392,69.0,0,36,3.0,0.0
5393,72.0,40,36,1.0,0.0
5394,72.0,0,36,0.0,0.0
5395,72.0,0,36,2.0,0.0
5396,31.0,0,108,5.0,0.0
5397,43.0,0,108,10.0,0.0
5398,43.0,0,108,5.0,0.0
5399,74.0,0,36,0.0,0.0
5400,71.0,40,36,3.0,0.0
5401,74.0,0,36,1.0,0.0
5402,67.0,8,108,4.0,0.0
5403,74.0,0,36,2.0,0.0
5404,76.0,0,36,2.0,0.0
5405,76.0,32,36,1.0,0.0
5406,76.0,0,36,0.0,0.0
5407,72.0,0,36,3.0,0.0
5408,77.0,0,36,1.0,0.0
5409,77.0,0,36,0.0,0.0
5410,74.0,0,36,3.0,0.0
5411,77.0,40,36,2.0,0.0
5412,76.0,0,36,1.0,0.0
5413,36.0,0,108,5.0,0.0
5414,72.0,0,108,3.0,0.0
5415,76.0,0,36,2.0,0.0
5416,67.0,8,108,4.0,0.0
5417,48.0,0,108,10.0,0.0
5418,76.0,40,36,0.0,0.0
5419,48.0,0,108,5.0,0.0
5420,74.0,0,36,1.0,0.0
5421,74.0,32,36,2.0,0.0
5422,74.0,0,36,0.0,0.0
5423,72.0,0,36,2.0,0.0
5424,72.0,0,36,0.0,0.0
5425,72.0,40,36,1.0,0.0
5426,60.0,35,81,10.0,0.0
5427,76.0,40,36,6.0,0.0
5428,77.0,5,36,6.0,0.0
5429,79.0,1,36,6.0,0.0
5430,58.0,39,27,10.0,0.0
5431,57.0,0,36,10.0,0.0
5432,77.0,40,36,6.0,0.0
5433,55.0,40,36,10.0,0.0
5434,79.0,0,36,6.0,0.0
5435,81.0,0,36,6.0,0.0
5436,53.0,40,36,10.0,0.0
5437,55.0,0,36,10.0,0.0
5438,76.0,40,36,6.0,0.0
5439,57.0,0,36,10.0,0.0
5440,77.0,40,36,6.0,0.0
5441,58.0,0,36,10.0,0.0
5442,79.0,40,36,6.0,0.0
5443,57.0,0,36,10.0,0.0
5444,77.0,40,36,6.0,0.0
5445,55.0,0,36,10.0,0.0
5446,79.0,40,36,6.0,0.0
5447,53.0,0,36,10.0,0.0
5448,81.0,40,36,6.0,0.0
5449,74.0,40,36,6.0,0.0
5450,58.0,35,81,10.0,0.0
5451,76.0,5,36,6.0,0.0
5452,77.0,1,36,6.0,0.0
5453,57.0,39,27,10.0,0.0
5454,55.0,0,36,10.0,0.0
5455,76.0,40,36,6.0,0.0
5456,53.0,0,36,10.0,0.0
5457,77.0,40,36,6.0,0.0
5458,79.0,40,36,6.0,0.0
5459,52.0,0,36,10.0,0.0
5460,53.0,0,36,10.0,0.0
5461,74.0,40,36,6.0,0.0
5462,76.0,40,36,6.0,0.0
5463,55.0,0,36,10.0,0.0
5464,57.0,0,36,10.0,0.0
5465,77.0,40,36,6.0,0.0
5466,55.0,40,36,10.0,0.0
5467,76.0,0,36,6.0,0.0
5468,77.0,40,36,6.0,0.0
5469,53.0,0,36,10.0,0.0
5470,52.0,0,36,10.0,0.0
5471,79.0,40,36,6.0,0.0
5472,73.0,40,36,6.0,0.0
5473,57.0,35,81,10.0,0.0
5474,74.0,5,36,6.0,0.0
5475,76.0,1,36,6.0,0.0
5476,55.0,39,27,10.0,0.0
5477,53.0,40,36,10.0,0.0
5478,74.0,0,36,6.0,0.0
5479,52.0,0,36,10.0,0.0
5480,76.0,40,36,6.0,0.0
5481,50.0,40,36,10.0,0.0
5482,77.0,0,36,6.0,0.0
5483,73.0,40,36,6.0,0.0
5484,52.0,0,36,10.0,0.0
5485,53.0,40,36,10.0,0.0
5486,74.0,0,36,6.0,0.0
5487,55.0,0,36,10.0,0.0
5488,76.0,40,36,6.0,0.0
5489,53.0,40,36,10.0,0.0
5490,74.0,8,108,6.0,0.0
5491,52.0,32,36,10.0,0.0
5492,50.0,40,36,10.0,0.0
5493,58.0,18,36,10.0,0.0
5494,62.0,12,216,4.0,0.0
5495,62.0,0,54,6.0,0.0
5496,62.0,22,54,3.0,0.0
5497,57.0,38,36,10.0,0.0
5498,64.0,0,54,6.0,0.0
5499,64.0,2,54,3.0,0.0
5500,55.0,58,36,10.0,0.0
5501,57.0,6,108,10.0,0.0
5502,65.0,0,54,6.0,0.0
5503,65.0,42,54,3.0,0.0
5504,69.0,60,54,6.0,0.0
5505,69.0,0,54,3.0,0.0
5506,61.0,6,108,4.0,0.0
5507,67.0,54,54,3.0,0.0
5508,67.0,0,54,6.0,0.0
5509,61.0,0,108,6.0,0.0
5510,45.0,0,108,10.0,0.0
5511,64.0,0,54,3.0,0.0
5512,64.0,42,54,6.0,0.0
5513,62.0,22,54,4.0,0.0
5514,50.0,6,108,10.0,0.0
5515,65.0,18,36,3.0,0.0
5516,65.0,0,36,6.0,0.0
5517,64.0,32,36,6.0,0.0
5518,64.0,0,36,3.0,0.0
5519,64.0,2,54,4.0,0.0
5520,62.0,58,36,3.0,0.0
5521,62.0,0,36,6.0,0.0
5522,74.0,60,54,2.0,0.0
5523,65.0,0,54,4.0,0.0
5524,74.0,12,216,3.0,0.0
5525,76.0,60,54,2.0,0.0
5526,67.0,0,54,4.0,0.0
5527,77.0,42,54,2.0,0.0
5528,69.0,6,108,4.0,0.0
5529,81.0,60,54,2.0,0.0
5530,73.0,0,108,3.0,0.0
5531,57.0,6,108,4.0,0.0
5532,79.0,54,54,2.0,0.0
5533,76.0,42,54,2.0,0.0
5534,74.0,0,108,3.0,0.0
5535,77.0,40,36,2.0,0.0
5536,62.0,8,108,4.0,0.0
5537,76.0,32,36,2.0,0.0
5538,74.0,58,36,2.0,0.0
5539,69.0,6,108,3.0,0.0
5540,62.0,0,108,4.0,0.0
5541,50.0,0,54,5.0,0.0
5542,50.0,0,54,10.0,0.0
5543,77.0,0,108,2.0,0.0
5544,38.0,54,54,5.0,0.0
5545,52.0,0,54,10.0,0.0
5546,40.0,0,54,5.0,0.0
5547,52.0,60,54,5.0,0.0
5548,53.0,0,54,10.0,0.0
5549,53.0,54,54,5.0,0.0
5550,62.0,0,108,4.0,0.0
5551,41.0,0,54,5.0,0.0
5552,71.0,0,108,2.0,0.0
5553,67.0,6,108,3.0,0.0
5554,57.0,0,54,10.0,0.0
5555,57.0,0,54,5.0,0.0
5556,45.0,60,54,5.0,0.0
5557,69.0,6,108,4.0,0.0
5558,64.0,0,108,3.0,0.0
5559,43.0,0,54,5.0,0.0
5560,73.0,0,108,2.0,0.0
5561,55.0,54,54,5.0,0.0
5562,55.0,0,54,10.0,0.0
5563,52.0,0,54,10.0,0.0
5564,52.0,42,54,5.0,0.0
5565,40.0,0,54,5.0,0.0
5566,69.0,6,108,4.0,0.0
5567,62.0,22,54,3.0,0.0
5568,53.0,0,36,10.0,0.0
5569,41.0,18,36,5.0,0.0
5570,53.0,0,36,5.0,0.0
5571,74.0,18,216,2.0,0.0
5572,52.0,0,36,10.0,0.0
5573,40.0,0,36,5.0,0.0
5574,52.0,32,36,5.0,0.0
5575,64.0,2,54,3.0,0.0
5576,38.0,0,36,5.0,0.0
5577,50.0,58,36,5.0,0.0
5578,50.0,0,36,10.0,0.0
5579,65.0,0,54,3.0,0.0
5580,57.0,42,54,4.0,0.0
5581,58.0,60,54,4.0,0.0
5582,67.0,0,54,3.0,0.0
5583,60.0,0,54,4.0,0.0
5584,69.0,60,54,3.0,0.0
5585,70.0,0,54,3.0,0.0
5586,63.0,60,54,4.0,0.0
5587,69.0,0,108,2.0,0.0
5588,72.0,0,54,3.0,0.0
5589,62.0,54,54,4.0,0.0
5590,42.0,0,108,5.0,0.0
5591,54.0,0,108,10.0,0.0
5592,54.0,6,108,5.0,0.0
5593,57.0,42,54,4.0,0.0
5594,74.0,0,54,3.0,0.0
5595,43.0,0,108,5.0,0.0
5596,62.0,6,108,3.0,0.0
5597,67.0,22,54,2.0,0.0
5598,55.0,0,108,10.0,0.0
5599,58.0,18,36,4.0,0.0
5600,55.0,0,108,5.0,0.0
5601,57.0,32,36,4.0,0.0
5602,69.0,2,54,2.0,0.0
5603,55.0,58,36,4.0,0.0
5604,67.0,0,108,4.0,0.0
5605,43.0,6,108,5.0,0.0
5606,74.0,0,54,1.0,0.0
5607,43.0,0,108,10.0,0.0
5608,70.0,0,108,3.0,0.0
5609,74.0,0,54,0.0,0.0
5610,31.0,0,108,5.0,0.0
5611,70.0,54,54,2.0,0.0
5612,72.0,0,54,2.0,0.0
5613,76.0,0,54,0.0,0.0
5614,76.0,60,54,1.0,0.0
5615,77.0,0,54,0.0,0.0
5616,74.0,54,54,2.0,0.0
5617,70.0,0,108,3.0,0.0
5618,67.0,6,108,4.0,0.0
5619,77.0,0,54,1.0,0.0
5620,81.0,42,54,0.0,0.0
5621,81.0,0,54,1.0,0.0
5622,77.0,0,54,2.0,0.0
5623,79.0,0,54,1.0,0.0
5624,76.0,22,54,2.0,0.0
5625,55.0,0,36,5.0,0.0
5626,79.0,0,54,0.0,0.0
5627,70.0,0,108,3.0,0.0
5628,43.0,0,36,5.0,0.0
5629,67.0,6,108,4.0,0.0
5630,55.0,18,36,10.0,0.0
5631,57.0,32,36,10.0,0.0
5632,45.0,0,36,5.0,0.0
5633,57.0,0,36,5.0,0.0
5634,74.0,0,54,0.0,0.0
5635,74.0,0,54,2.0,0.0
5636,74.0,2,54,1.0,0.0
5637,46.0,0,36,5.0,0.0
5638,58.0,40,36,5.0,0.0
5639,58.0,0,36,10.0,0.0
5640,76.0,18,36,0.0,0.0
5641,69.0,0,108,3.0,0.0
5642,67.0,0,108,4.0,0.0
5643,76.0,22,54,1.0,0.0
5644,49.0,6,108,10.0,0.0
5645,81.0,12,162,2.0,0.0
5646,37.0,0,108,5.0,0.0
5647,49.0,0,108,5.0,0.0
5648,74.0,32,36,0.0,0.0
5649,69.0,2,54,1.0,0.0
5650,73.0,46,36,0.0,0.0
5651,73.0,33,54,1.0,0.0
5652,64.0,0,54,3.0,0.0
5653,52.0,0,108,10.0,0.0
5654,52.0,0,108,5.0,0.0
5655,40.0,6,108,5.0,0.0
5656,82.0,18,156,0.0,0.0
5657,67.0,0,54,4.0,0.0
5658,65.0,3,54,3.0,0.0
5659,69.0,0,54,4.0,0.0
5660,74.0,0,54,1.0,0.0
5661,79.0,21,27,2.0,0.0
5662,77.0,39,27,2.0,0.0
5663,67.0,0,54,3.0,0.0
5664,49.0,6,108,10.0,0.0
5665,70.0,22,54,4.0,0.0
5666,76.0,0,108,2.0,0.0
5667,76.0,0,54,1.0,0.0
5668,37.0,0,108,5.0,0.0
5669,49.0,0,108,5.0,0.0
5670,76.0,32,36,0.0,0.0
5671,79.0,0,54,1.0,0.0
5672,67.0,2,54,4.0,0.0
5673,70.0,0,54,3.0,0.0
5674,74.0,40,36,0.0,0.0
5675,45.0,6,108,10.0,0.0
5676,73.0,18,36,0.0,0.0
5677,77.0,0,54,1.0,0.0
5678,69.0,0,108,4.0,0.0
5679,69.0,22,54,3.0,0.0
5680,81.0,0,108,2.0,0.0
5681,33.0,0,108,5.0,0.0
5682,45.0,0,108,5.0,0.0
5683,71.0,32,36,0.0,0.0
5684,64.0,0,54,3.0,0.0
5685,76.0,2,54,1.0,0.0
5686,69.0,40,36,0.0,0.0
5687,77.0,40,36,0.0,0.0
5688,38.0,0,108,5.0,0.0
5689,77.0,0,108,2.0,0.0
5690,50.0,8,108,5.0,0.0
5691,74.0,0,108,1.0,0.0
5692,50.0,0,108,10.0,0.0
5693,65.0,0,108,3.0,0.0
5694,69.0,0,108,4.0,0.0
5695,76.0,32,36,0.0,0.0
5696,74.0,40,36,0.0,0.0
5697,48.0,0,108,10.0,0.0
5698,66.0,40,36,6.0,0.0
5699,50.0,8,108,10.0,0.0
5700,66.0,0,108,1.0,0.0
5701,75.0,32,36,6.0,0.0
5702,74.0,40,36,6.0,0.0
5703,67.0,40,36,6.0,0.0
5704,52.0,0,108,10.0,0.0
5705,67.0,0,108,1.0,0.0
5706,46.0,8,108,10.0,0.0
5707,75.0,32,36,6.0,0.0
5708,74.0,40,36,6.0,0.0
5709,54.0,0,108,10.0,0.0
5710,36.0,0,108,5.0,0.0
5711,48.0,0,108,5.0,0.0
5712,45.0,0,108,10.0,0.0
5713,66.0,0,108,4.0,0.0
5714,62.0,0,108,3.0,0.0
5715,69.0,0,108,2.0,0.0
5716,69.0,40,36,6.0,0.0
5717,69.0,8,108,1.0,0.0
5718,75.0,32,36,6.0,0.0
5719,74.0,40,36,6.0,0.0
5720,34.0,0,108,5.0,0.0
5721,46.0,0,108,5.0,0.0
5722,67.0,8,108,3.0,0.0
5723,70.0,0,108,2.0,0.0
5724,55.0,0,108,10.0,0.0
5725,43.0,0,108,10.0,0.0
5726,62.0,0,108,4.0,0.0
5727,62.0,0,108,1.0,0.0
5728,70.0,40,36,6.0,0.0
5729,75.0,32,36,6.0,0.0
5730,74.0,40,36,6.0,0.0
5731,78.0,40,36,6.0,0.0
5732,78.0,0,108,0.0,0.0
5733,50.0,6,108,10.0,0.0
5734,75.0,32,36,6.0,0.0
5735,60.0,2,54,10.0,0.0
5736,74.0,40,36,6.0,0.0
5737,52.0,0,108,10.0,0.0
5738,79.0,6,108,0.0,0.0
5739,79.0,40,36,6.0,0.0
5740,75.0,32,36,6.0,0.0
5741,58.0,2,54,10.0,0.0
5742,74.0,40,36,6.0,0.0
5743,81.0,0,108,0.0,0.0
5744,50.0,6,108,5.0,0.0
5745,69.0,0,108,2.0,0.0
5746,38.0,0,108,5.0,0.0
5747,62.0,0,108,4.0,0.0
5748,72.0,0,108,1.0,0.0
5749,54.0,0,108,10.0,0.0
5750,81.0,40,36,6.0,0.0
5751,66.0,0,108,3.0,0.0
5752,75.0,32,36,6.0,0.0
5753,57.0,2,54,10.0,0.0
5754,74.0,40,36,6.0,0.0
5755,74.0,0,108,4.0,0.0
5756,70.0,8,108,1.0,0.0
5757,62.0,0,108,3.0,0.0
5758,82.0,0,108,0.0,0.0
5759,82.0,40,36,6.0,0.0
5760,67.0,0,108,2.0,0.0
5761,43.0,0,108,5.0,0.0
5762,31.0,0,108,5.0,0.0
5763,55.0,0,108,10.0,0.0
5764,81.0,32,36,6.0,0.0
5765,79.0,58,36,6.0,0.0
5766,74.0,0,108,3.0,0.0
5767,62.0,0,108,2.0,0.0
5768,43.0,0,108,5.0,0.0
5769,67.0,54,54,1.0,0.0
5770,55.0,0,108,5.0,0.0
5771,58.0,6,108,4.0,0.0
5772,69.0,60,54,1.0,0.0
5773,55.0,0,108,5.0,0.0
5774,70.0,0,108,3.0,0.0
5775,70.0,54,54,1.0,0.0
5776,67.0,0,108,2.0,0.0
5777,43.0,6,108,5.0,0.0
5778,62.0,0,108,4.0,0.0
5779,74.0,60,54,1.0,0.0
5780,55.0,0,108,5.0,0.0
5781,72.0,54,54,1.0,0.0
5782,66.0,0,108,2.0,0.0
5783,69.0,0,108,3.0,0.0
5784,63.0,6,108,4.0,0.0
5785,43.0,0,108,5.0,0.0
5786,69.0,60,54,1.0,0.0
5787,29.0,0,108,5.0,0.0
5788,67.0,6,108,6.0,0.0
5789,53.0,0,108,10.0,0.0
5790,67.0,0,54,2.0,0.0
5791,62.0,0,108,4.0,0.0
5792,62.0,0,108,6.0,0.0
5793,41.0,0,108,5.0,0.0
5794,71.0,54,54,1.0,0.0
5795,67.0,0,108,3.0,0.0
5796,74.0,0,108,6.0,0.0
5797,71.0,0,108,6.0,0.0
5798,67.0,0,54,1.0,0.0
5799,62.0,60,54,2.0,0.0
5800,62.0,6,108,4.0,0.0
5801,71.0,0,54,1.0,0.0
5802,53.0,0,108,5.0,0.0
5803,67.0,54,54,2.0,0.0
5804,41.0,0,108,5.0,0.0
5805,67.0,0,108,3.0,0.0
5806,72.0,0,54,1.0,0.0
5807,69.0,42,54,2.0,0.0
5808,68.0,6,108,3.0,0.0
5809,71.0,22,54,2.0,0.0
5810,62.0,0,108,4.0,0.0
5811,53.0,0,108,5.0,0.0
5812,74.0,18,36,1.0,0.0
5813,41.0,0,108,5.0,0.0
5814,76.0,32,36,1.0,0.0
5815,74.0,2,54,2.0,0.0
5816,77.0,40,36,1.0,0.0
5817,41.0,0,108,5.0,0.0
5818,69.0,0,108,3.0,0.0
5819,57.0,0,108,4.0,0.0
5820,76.0,18,36,1.0,0.0
5821,72.0,22,54,2.0,0.0
5822,53.0,6,108,5.0,0.0
5823,74.0,32,36,1.0,0.0
5824,69.0,2,54,2.0,0.0
5825,72.0,40,36,1.0,0.0
5826,74.0,0,108,1.0,0.0
5827,68.0,0,108,2.0,0.0
5828,40.0,0,108,5.0,0.0
5829,76.0,0,108,6.0,0.0
5830,68.0,0,108,6.0,0.0
5831,28.0,0,108,5.0,0.0
5832,64.0,0,108,4.0,0.0
5833,71.0,8,108,3.0,0.0
5834,52.0,40,36,10.0,0.0
5835,47.0,32,36,10.0,0.0
5836,50.0,40,36,10.0,0.0
5837,76.0,8,108,0.0,0.0
5838,76.0,0,108,6.0,0.0
5839,74.0,0,108,6.0,0.0
5840,44.0,40,36,10.0,0.0
5841,53.0,32,36,10.0,0.0
5842,52.0,40,36,10.0,0.0
5843,78.0,0,108,6.0,0.0
5844,72.0,8,108,6.0,0.0
5845,78.0,0,108,0.0,0.0
5846,45.0,40,36,10.0,0.0
5847,53.0,32,36,10.0,0.0
5848,52.0,40,36,10.0,0.0
5849,80.0,0,108,0.0,0.0
5850,77.0,0,108,2.0,0.0
5851,71.0,8,108,3.0,0.0
5852,59.0,0,108,4.0,0.0
5853,38.0,0,108,5.0,0.0
5854,47.0,40,36,10.0,0.0
5855,71.0,0,108,6.0,0.0
5856,80.0,0,108,6.0,0.0
5857,50.0,0,108,5.0,0.0
5858,53.0,32,36,10.0,0.0
5859,52.0,40,36,10.0,0.0
5860,76.0,0,108,2.0,0.0
5861,48.0,0,108,5.0,0.0
5862,64.0,0,108,3.0,0.0
5863,81.0,0,108,0.0,0.0
5864,69.0,8,108,6.0,0.0
5865,36.0,0,108,5.0,0.0
5866,60.0,0,108,4.0,0.0
5867,48.0,40,36,10.0,0.0
5868,81.0,0,108,6.0,0.0
5869,53.0,32,36,10.0,0.0
5870,52.0,40,36,10.0,0.0
5871,64.0,6,108,6.0,0.0
5872,64.0,0,108,1.0,0.0
5873,56.0,40,36,10.0,0.0
5874,53.0,32,36,10.0,0.0
5875,74.0,2,54,6.0,0.0
5876,52.0,40,36,10.0,0.0
5877,66.0,6,108,6.0,0.0
5878,66.0,0,108,1.0,0.0
5879,57.0,40,36,10.0,0.0
5880,53.0,32,36,10.0,0.0
5881,72.0,2,54,6.0,0.0
5882,52.0,40,36,10.0,0.0
5883,59.0,40,36,10.0,0.0
5884,71.0,0,108,2.0,0.0
5885,68.0,0,108,1.0,0.0
5886,86.0,0,108,0.0,0.0
5887,52.0,0,108,5.0,0.0
5888,59.0,0,108,4.0,0.0
5889,40.0,0,108,5.0,0.0
5890,68.0,0,108,6.0,0.0
5891,64.0,6,108,3.0,0.0
5892,53.0,32,36,10.0,0.0
5893,71.0,2,54,6.0,0.0
5894,52.0,40,36,10.0,0.0
5895,84.0,0,108,0.0,0.0
5896,60.0,0,108,4.0,0.0
5897,45.0,0,108,5.0,0.0
5898,60.0,18,36,10.0,0.0
5899,69.0,0,108,2.0,0.0
5900,33.0,0,108,5.0,0.0
5901,69.0,22,54,1.0,0.0
5902,69.0,0,108,6.0,0.0
5903,64.0,0,108,3.0,0.0
5904,59.0,32,36,10.0,0.0
5905,64.0,2,54,1.0,0.0
5906,57.0,58,36,10.0,0.0
5907,76.0,6,108,2.0,0.0
5908,60.0,0,108,4.0,0.0
5909,57.0,0,108,5.0,0.0
5910,64.0,0,108,3.0,0.0
5911,45.0,0,108,5.0,0.0
5912,69.0,54,54,1.0,0.0
5913,71.0,60,54,1.0,0.0
5914,72.0,54,54,1.0,0.0
5915,72.0,0,108,2.0,0.0
5916,69.0,0,108,3.0,0.0
5917,45.0,6,108,5.0,0.0
5918,57.0,0,108,5.0,0.0
5919,64.0,0,108,4.0,0.0
5920,76.0,60,54,1.0,0.0
5921,74.0,54,54,1.0,0.0
5922,68.0,0,108,3.0,0.0
5923,57.0,0,108,5.0,0.0
5924,71.0,0,108,2.0,0.0
5925,65.0,6,108,4.0,0.0
5926,45.0,0,108,5.0,0.0
5927,71.0,60,54,1.0,0.0
5928,73.0,0,108,6.0,0.0
5929,76.0,0,108,6.0,0.0
5930,31.0,6,108,5.0,0.0
5931,69.0,0,108,6.0,0.0
5932,64.0,0,108,6.0,0.0
5933,73.0,54,54,1.0,0.0
5934,55.0,0,108,10.0,0.0
5935,69.0,0,108,3.0,0.0
5936,43.0,0,108,5.0,0.0
5937,69.0,0,108,2.0,0.0
5938,64.0,0,108,4.0,0.0
5939,69.0,60,54,1.0,0.0
5940,76.0,0,54,0.0,0.0
5941,55.0,0,108,5.0,0.0
5942,43.0,0,108,5.0,0.0
5943,64.0,0,108,4.0,0.0
5944,73.0,54,54,1.0,0.0
5945,69.0,6,108,3.0,0.0
5946,76.0,0,108,2.0,0.0
5947,77.0,42,54,0.0,0.0
5948,74.0,0,54,1.0,0.0
5949,70.0,0,108,3.0,0.0
5950,43.0,0,108,5.0,0.0
5951,73.0,0,108,2.0,0.0
5952,55.0,6,108,5.0,0.0
5953,64.0,0,108,4.0,0.0
5954,76.0,18,36,1.0,0.0
5955,79.0,22,54,0.0,0.0
5956,79.0,32,36,1.0,0.0
5957,82.0,2,54,0.0,0.0
5958,77.0,40,36,1.0,0.0
5959,61.0,0,108,4.0,0.0
5960,76.0,0,108,2.0,0.0
5961,76.0,18,36,1.0,0.0
5962,64.0,0,108,3.0,0.0
5963,81.0,22,54,0.0,0.0
5964,55.0,6,108,5.0,0.0
5965,43.0,0,108,5.0,0.0
5966,74.0,32,36,1.0,0.0
5967,73.0,2,54,0.0,0.0
5968,73.0,40,36,1.0,0.0
5969,81.0,0,108,1.0,0.0
5970,74.0,0,108,2.0,0.0
5971,41.0,0,108,5.0,0.0
5972,57.0,8,108,4.0,0.0
5973,29.0,0,108,5.0,0.0
5974,81.0,40,36,6.0,0.0
5975,65.0,0,108,3.0,0.0
5976,74.0,0,108,0.0,0.0
5977,53.0,0,108,10.0,0.0
5978,77.0,32,36,6.0,0.0
5979,74.0,40,36,6.0,0.0
5980,73.0,40,36,6.0,0.0
5981,73.0,8,108,1.0,0.0
5982,57.0,0,108,10.0,0.0
5983,55.0,0,108,10.0,0.0
5984,70.0,32,36,6.0,0.0
5985,69.0,40,36,6.0,0.0
5986,74.0,40,36,6.0,0.0
5987,59.0,0,108,10.0,0.0
5988,53.0,0,108,10.0,0.0
5989,74.0,8,108,1.0,0.0
5990,70.0,32,36,6.0,0.0
5991,69.0,40,36,6.0,0.0
5992,76.0,8,108,1.0,0.0
5993,76.0,40,36,6.0,0.0
5994,61.0,0,108,10.0,0.0
5995,79.0,0,108,2.0,0.0
5996,52.0,0,108,5.0,0.0
5997,61.0,0,108,4.0,0.0
5998,52.0,0,108,10.0,0.0
5999,76.0,0,108,3.0,0.0
6000,40.0,0,108,5.0,0.0
6001,70.0,32,36,6.0,0.0
6002,69.0,40,36,6.0,0.0
6003,62.0,0,108,4.0,0.0
6004,77.0,40,36,6.0,0.0
6005,77.0,0,108,3.0,0.0
6006,50.0,8,108,10.0,0.0
6007,69.0,0,108,1.0,0.0
6008,62.0,0,108,10.0,0.0
6009,77.0,0,108,2.0,0.0
6010,50.0,0,108,5.0,0.0
6011,38.0,0,108,5.0,0.0
6012,76.0,32,36,6.0,0.0
6013,74.0,40,36,6.0,0.0
6014,70.0,6,108,1.0,0.0
6015,73.0,0,108,0.0,0.0
6016,73.0,40,36,6.0,0.0
6017,45.0,0,108,10.0,0.0
6018,82.0,32,36,6.0,0.0
6019,55.0,2,54,10.0,0.0
6020,81.0,40,36,6.0,0.0
6021,74.0,40,36,6.0,0.0
6022,74.0,0,108,0.0,0.0
6023,47.0,6,108,10.0,0.0
6024,69.0,0,108,1.0,0.0
6025,82.0,32,36,6.0,0.0
6026,53.0,2,54,10.0,0.0
6027,81.0,40,36,6.0,0.0
6028,76.0,40,36,6.0,0.0
6029,45.0,0,108,5.0,0.0
6030,67.0,0,108,1.0,0.0
6031,57.0,0,108,4.0,0.0
6032,33.0,0,108,5.0,0.0
6033,73.0,0,108,3.0,0.0
6034,76.0,6,108,2.0,0.0
6035,76.0,0,108,0.0,0.0
6036,49.0,0,108,10.0,0.0
6037,82.0,32,36,6.0,0.0
6038,52.0,2,54,10.0,0.0
6039,81.0,40,36,6.0,0.0
6040,74.0,0,108,2.0,0.0
6041,77.0,0,36,6.0,0.0
6042,77.0,0,108,0.0,0.0
6043,62.0,8,108,4.0,0.0
6044,45.0,0,108,5.0,0.0
6045,57.0,0,108,5.0,0.0
6046,65.0,0,108,1.0,0.0
6047,50.0,40,36,10.0,0.0
6048,69.0,0,108,3.0,0.0
6049,76.0,0,36,6.0,0.0
6050,53.0,32,36,10.0,0.0
6051,57.0,0,36,10.0,0.0
6052,74.0,40,36,6.0,0.0
6053,76.0,0,108,1.0,0.0
6054,76.0,0,108,6.0,0.0
6055,61.0,40,36,10.0,0.0
6056,70.0,0,108,2.0,0.0
6057,79.0,0,108,6.0,0.0
6058,79.0,8,108,0.0,0.0
6059,58.0,32,36,10.0,0.0
6060,57.0,40,36,10.0,0.0
6061,77.0,0,108,0.0,0.0
6062,74.0,0,108,1.0,0.0
6063,77.0,0,108,6.0,0.0
6064,74.0,8,108,6.0,0.0
6065,69.0,0,108,2.0,0.0
6066,62.0,40,36,10.0,0.0
6067,58.0,32,36,10.0,0.0
6068,57.0,40,36,10.0,0.0
6069,73.0,0,108,1.0,0.0
6070,45.0,8,108,5.0,0.0
6071,64.0,40,36,10.0,0.0
6072,67.0,0,108,2.0,0.0
6073,33.0,0,108,5.0,0.0
6074,76.0,0,108,0.0,0.0
6075,64.0,0,108,4.0,0.0
6076,76.0,0,108,6.0,0.0
6077,70.0,0,108,3.0,0.0
6078,73.0,0,108,6.0,0.0
6079,58.0,32,36,10.0,0.0
6080,57.0,40,36,10.0,0.0
6081,45.0,8,108,5.0,0.0
6082,74.0,0,108,1.0,0.0
6083,65.0,0,108,4.0,0.0
6084,65.0,40,36,10.0,0.0
6085,74.0,0,108,6.0,0.0
6086,57.0,0,108,5.0,0.0
6087,69.0,0,108,3.0,0.0
6088,74.0,0,108,0.0,0.0
6089,65.0,0,108,2.0,0.0
6090,64.0,32,36,10.0,0.0
6091,62.0,40,36,10.0,0.0
6092,64.0,0,108,3.0,0.0
6093,61.0,40,36,10.0,0.0
6094,82.0,0,108,0.0,0.0
6095,79.0,6,108,7.0,0.0
6096,33.0,0,108,5.0,0.0
6097,82.0,0,108,6.0,0.0
6098,76.0,0,108,2.0,0.0
6099,79.0,0,108,1.0,0.0
6100,45.0,0,108,5.0,0.0
6101,61.0,0,108,4.0,0.0
6102,70.0,32,36,10.0,0.0
6103,76.0,2,54,6.0,0.0
6104,69.0,40,36,10.0,0.0
6105,81.0,0,108,0.0,0.0
6106,62.0,0,108,4.0,0.0
6107,69.0,0,108,3.0,0.0
6108,45.0,0,108,5.0,0.0
6109,77.0,0,108,6.0,0.0
6110,62.0,40,36,10.0,0.0
6111,33.0,0,108,5.0,0.0
6112,77.0,0,108,1.0,0.0
6113,77.0,6,108,2.0,0.0
6114,81.0,0,108,6.0,0.0
6115,70.0,32,36,10.0,0.0
6116,74.0,2,54,6.0,0.0
6117,69.0,40,36,10.0,0.0
6118,45.0,0,108,5.0,0.0
6119,79.0,0,108,0.0,0.0
6120,33.0,6,108,5.0,0.0
6121,64.0,40,36,10.0,0.0
6122,69.0,0,108,3.0,0.0
6123,73.0,0,108,2.0,0.0
6124,76.0,0,108,1.0,0.0
6125,64.0,0,108,4.0,0.0
6126,76.0,0,108,6.0,0.0
6127,79.0,0,108,6.0,0.0
6128,70.0,32,36,10.0,0.0
6129,73.0,2,54,6.0,0.0
6130,69.0,40,36,10.0,0.0
6131,74.0,0,108,1.0,0.0
6132,69.0,0,108,3.0,0.0
6133,74.0,0,108,2.0,0.0
6134,50.0,8,108,5.0,0.0
6135,38.0,0,108,5.0,0.0
6136,65.0,0,108,4.0,0.0
6137,65.0,40,36,10.0,0.0
6138,77.0,0,108,0.0,0.0
6139,81.0,0,36,6.0,0.0
6140,73.0,0,36,10.0,0.0
6141,76.0,32,36,6.0,0.0
6142,74.0,0,36,10.0,0.0
6143,77.0,40,36,6.0,0.0
6144,70.0,40,36,10.0,0.0
6145,86.0,0,36,6.0,0.0
6146,73.0,0,36,10.0,0.0
6147,76.0,40,36,6.0,0.0
6148,74.0,40,36,10.0,0.0
6149,77.0,0,36,6.0,0.0
6150,82.0,0,36,6.0,0.0
6151,67.0,40,36,10.0,0.0
6152,81.0,40,36,6.0,0.0
6153,69.0,0,36,10.0,0.0
6154,79.0,0,36,6.0,0.0
6155,70.0,40,36,10.0,0.0
6156,77.0,0,36,6.0,0.0
6157,67.0,40,36,10.0,0.0
6158,69.0,40,36,10.0,0.0
6159,76.0,0,36,6.0,0.0
6160,74.0,40,36,6.0,0.0
6161,70.0,0,36,10.0,0.0
6162,60.0,40,36,10.0,0.0
6163,77.0,0,36,6.0,0.0
6164,71.0,0,36,10.0,0.0
6165,74.0,40,36,6.0,0.0
6166,72.0,40,36,10.0,0.0
6167,76.0,0,36,6.0,0.0
6168,69.0,40,36,10.0,0.0
6169,84.0,0,36,6.0,0.0
6170,74.0,0,36,6.0,0.0
6171,71.0,40,36,10.0,0.0
6172,72.0,0,36,10.0,0.0
6173,76.0,40,36,6.0,0.0
6174,81.0,0,36,6.0,0.0
6175,65.0,40,36,10.0,0.0
6176,67.0,0,36,10.0,0.0
6177,79.0,40,36,6.0,0.0
6178,69.0,0,36,10.0,0.0
6179,77.0,40,36,6.0,0.0
6180,65.0,40,36,10.0,0.0
6181,75.0,0,36,6.0,0.0
6182,74.0,40,36,6.0,0.0
6183,67.0,0,36,10.0,0.0
6184,73.0,0,36,6.0,0.0
6185,69.0,40,36,10.0,0.0
6186,75.0,0,36,6.0,0.0
6187,58.0,40,36,10.0,0.0
6188,69.0,0,36,10.0,0.0
6189,73.0,40,36,6.0,0.0
6190,70.0,0,36,10.0,0.0
6191,74.0,40,36,6.0,0.0
6192,67.0,0,36,10.0,0.0
6193,82.0,40,36,6.0,0.0
6194,69.0,0,36,10.0,0.0
6195,73.0,40,36,6.0,0.0
6196,74.0,0,36,6.0,0.0
6197,70.0,40,36,10.0,0.0
6198,64.0,40,36,10.0,0.0
6199,79.0,0,36,6.0,0.0
6200,77.0,0,36,6.0,0.0
6201,65.0,40,36,10.0,0.0
6202,67.0,0,36,10.0,0.0
6203,76.0,40,36,6.0,0.0
6204,64.0,0,36,10.0,0.0
6205,74.0,40,36,6.0,0.0
6206,65.0,0,36,10.0,0.0
6207,73.0,40,36,6.0,0.0
6208,67.0,40,36,10.0,0.0
6209,71.0,0,36,6.0,0.0
6210,73.0,40,36,6.0,0.0
6211,57.0,8,108,10.0,0.0
6212,61.0,0,36,4.0,0.0
6213,61.0,0,36,3.0,0.0
6214,76.0,32,36,6.0,0.0
6215,62.0,0,36,4.0,0.0
6216,62.0,0,36,3.0,0.0
6217,77.0,40,36,6.0,0.0
6218,64.0,0,36,3.0,0.0
6219,64.0,0,36,4.0,0.0
6220,45.0,0,108,5.0,0.0
6221,79.0,40,36,6.0,0.0
6222,33.0,8,108,5.0,0.0
6223,45.0,0,108,10.0,0.0
6224,77.0,32,36,6.0,0.0
6225,62.0,0,36,3.0,0.0
6226,62.0,0,36,4.0,0.0
6227,64.0,40,36,3.0,0.0
6228,79.0,0,36,6.0,0.0
6229,64.0,0,36,4.0,0.0
6230,57.0,0,36,4.0,0.0
6231,45.0,0,108,5.0,0.0
6232,33.0,8,108,5.0,0.0
6233,73.0,0,36,6.0,0.0
6234,57.0,40,36,3.0,0.0
6235,79.0,0,36,6.0,0.0
6236,64.0,0,36,3.0,0.0
6237,64.0,32,36,4.0,0.0
6238,77.0,0,36,6.0,0.0
6239,65.0,40,36,3.0,0.0
6240,65.0,0,36,4.0,0.0
6241,67.0,0,36,3.0,0.0
6242,76.0,40,36,6.0,0.0
6243,67.0,0,36,4.0,0.0
6244,33.0,0,108,5.0,0.0
6245,45.0,0,108,5.0,0.0
6246,57.0,8,108,10.0,0.0
6247,74.0,0,36,6.0,0.0
6248,65.0,32,36,3.0,0.0
6249,65.0,0,36,4.0,0.0
6250,73.0,0,36,6.0,0.0
6251,64.0,40,36,3.0,0.0
6252,64.0,0,36,4.0,0.0
6253,65.0,8,108,4.0,0.0
6254,74.0,40,36,6.0,0.0
6255,62.0,0,108,10.0,0.0
6256,65.0,0,36,3.0,0.0
6257,81.0,32,36,6.0,0.0
6258,65.0,0,36,3.0,0.0
6259,65.0,0,36,2.0,0.0
6260,67.0,0,36,2.0,0.0
6261,67.0,40,36,3.0,0.0
6262,82.0,0,36,6.0,0.0
6263,84.0,40,36,6.0,0.0
6264,38.0,0,108,5.0,0.0
6265,50.0,0,108,10.0,0.0
6266,69.0,0,36,3.0,0.0
6267,50.0,8,108,5.0,0.0
6268,66.0,0,108,4.0,0.0
6269,69.0,0,36,2.0,0.0
6270,82.0,32,36,6.0,0.0
6271,67.0,0,36,3.0,0.0
6272,67.0,0,36,2.0,0.0
6273,84.0,0,36,6.0,0.0
6274,69.0,0,36,2.0,0.0
6275,69.0,40,36,3.0,0.0
6276,50.0,0,108,5.0,0.0
6277,62.0,0,36,2.0,0.0
6278,62.0,40,36,3.0,0.0
6279,38.0,8,108,5.0,0.0
6280,78.0,0,36,6.0,0.0
6281,84.0,0,36,6.0,0.0
6282,69.0,32,36,2.0,0.0
6283,69.0,0,36,3.0,0.0
6284,70.0,0,36,3.0,0.0
6285,70.0,40,36,2.0,0.0
6286,82.0,0,36,6.0,0.0
6287,66.0,0,108,4.0,0.0
6288,38.0,8,108,5.0,0.0
6289,50.0,0,108,5.0,0.0
6290,50.0,0,108,10.0,0.0
6291,72.0,40,36,3.0,0.0
6292,72.0,0,36,2.0,0.0
6293,81.0,0,36,6.0,0.0
6294,70.0,0,36,3.0,0.0
6295,79.0,0,36,6.0,0.0
6296,70.0,32,36,2.0,0.0
6297,78.0,0,36,6.0,0.0
6298,69.0,0,36,2.0,0.0
6299,69.0,40,36,3.0,0.0
6300,70.0,8,108,3.0,0.0
6301,62.0,0,108,4.0,0.0
6302,79.0,0,516,6.0,0.0
6303,70.0,0,36,2.0,0.0
6304,55.0,40,36,10.0,0.0
6305,70.0,0,36,1.0,0.0
6306,62.0,0,36,10.0,0.0
6307,70.0,32,36,2.0,0.0
6308,64.0,40,36,10.0,0.0
6309,72.0,0,36,2.0,0.0
6310,72.0,0,36,1.0,0.0
6311,65.0,0,36,10.0,0.0
6312,74.0,40,36,2.0,0.0
6313,67.0,8,108,4.0,0.0
6314,43.0,0,108,5.0,0.0
6315,31.0,0,108,5.0,0.0
6316,71.0,0,108,3.0,0.0
6317,74.0,0,36,1.0,0.0
6318,64.0,32,36,10.0,0.0
6319,72.0,0,36,1.0,0.0
6320,72.0,0,36,2.0,0.0
6321,65.0,40,36,10.0,0.0
6322,74.0,0,36,2.0,0.0
6323,74.0,0,36,1.0,0.0
6324,59.0,0,36,10.0,0.0
6325,67.0,40,36,2.0,0.0
6326,67.0,0,36,1.0,0.0
6327,43.0,8,108,5.0,0.0
6328,31.0,0,108,5.0,0.0
6329,65.0,32,36,10.0,0.0
6330,74.0,0,36,1.0,0.0
6331,74.0,0,36,2.0,0.0
6332,64.0,40,36,10.0,0.0
6333,76.0,0,36,2.0,0.0
6334,76.0,0,36,1.0,0.0
6335,31.0,8,108,5.0,0.0
6336,62.0,0,108,4.0,0.0
6337,62.0,0,36,10.0,0.0
6338,77.0,0,36,1.0,0.0
6339,77.0,40,36,2.0,0.0
6340,43.0,0,108,5.0,0.0
6341,71.0,0,108,3.0,0.0
6342,76.0,32,36,1.0,0.0
6343,76.0,0,36,2.0,0.0
6344,60.0,0,36,10.0,0.0
6345,74.0,0,36,1.0,0.0
6346,74.0,40,36,2.0,0.0
6347,59.0,0,36,10.0,0.0
6348,76.0,0,36,1.0,0.0
6349,60.0,0,108,4.0,0.0
6350,67.0,0,108,3.0,0.0
6351,60.0,40,36,10.0,0.0
6352,76.0,8,108,2.0,0.0
6353,76.0,0,36,0.0,0.0
6354,82.0,0,36,6.0,0.0
6355,76.0,0,36,1.0,0.0
6356,55.0,32,36,10.0,0.0
6357,77.0,0,36,1.0,0.0
6358,81.0,0,36,6.0,0.0
6359,77.0,0,36,0.0,0.0
6360,57.0,40,36,10.0,0.0
6361,64.0,8,108,3.0,0.0
6362,79.0,40,36,0.0,0.0
6363,36.0,0,108,5.0,0.0
6364,48.0,0,108,5.0,0.0
6365,72.0,0,108,2.0,0.0
6366,55.0,0,108,4.0,0.0
6367,58.0,0,36,10.0,0.0
6368,79.0,0,36,6.0,0.0
6369,79.0,0,36,1.0,0.0
6370,77.0,0,36,1.0,0.0
6371,57.0,32,36,10.0,0.0
6372,77.0,0,36,0.0,0.0
6373,81.0,0,36,6.0,0.0
6374,79.0,0,36,0.0,0.0
6375,82.0,0,36,6.0,0.0
6376,55.0,40,36,10.0,0.0
6377,79.0,0,36,1.0,0.0
6378,48.0,0,108,5.0,0.0
6379,60.0,0,36,10.0,0.0
6380,72.0,40,36,1.0,0.0
6381,76.0,0,36,6.0,0.0
6382,72.0,0,36,0.0,0.0
6383,36.0,8,108,5.0,0.0
6384,79.0,32,36,1.0,0.0
6385,79.0,0,36,0.0,0.0
6386,79.0,0,36,6.0,0.0
6387,52.0,0,36,10.0,0.0
6388,81.0,0,36,1.0,0.0
6389,77.0,0,36,6.0,0.0
6390,50.0,40,36,10.0,0.0
6391,81.0,0,36,0.0,0.0
6392,36.0,0,108,5.0,0.0
6393,60.0,0,108,4.0,0.0
6394,48.0,0,108,5.0,0.0
6395,82.0,40,36,0.0,0.0
6396,67.0,0,108,3.0,0.0
6397,72.0,8,108,2.0,0.0
6398,82.0,0,36,1.0,0.0
6399,48.0,0,36,10.0,0.0
6400,76.0,0,36,6.0,0.0
6401,77.0,0,36,6.0,0.0
6402,81.0,32,36,1.0,0.0
6403,81.0,0,36,0.0,0.0
6404,50.0,0,36,10.0,0.0
6405,79.0,0,36,6.0,0.0
6406,79.0,40,36,0.0,0.0
6407,52.0,0,36,10.0,0.0
6408,79.0,0,36,1.0,0.0
6409,29.0,0,108,5.0,0.0
6410,41.0,0,108,5.0,0.0
6411,57.0,8,108,4.0,0.0
6412,81.0,20,216,0.0,0.0
6413,72.0,0,108,2.0,0.0
6414,53.0,40,36,10.0,0.0
6415,81.0,0,108,1.0,0.0
6416,81.0,0,108,6.0,0.0
6417,65.0,0,108,3.0,0.0
6418,55.0,32,36,10.0,0.0
6419,57.0,40,36,10.0,0.0
6420,70.0,12,216,1.0,0.0
6421,70.0,0,36,6.0,0.0
6422,62.0,40,36,10.0,0.0
6423,60.0,0,36,10.0,0.0
6424,69.0,20,36,6.0,0.0
6425,62.0,0,36,10.0,0.0
6426,70.0,40,36,6.0,0.0
6427,79.0,20,216,0.0,0.0
6428,79.0,8,108,6.0,0.0
6429,52.0,40,36,10.0,0.0
6430,53.0,20,36,10.0,0.0
6431,55.0,40,36,10.0,0.0
6432,60.0,40,36,10.0,0.0
6433,69.0,0,36,6.0,0.0
6434,69.0,12,216,1.0,0.0
6435,58.0,20,36,10.0,0.0
6436,67.0,0,36,6.0,0.0
6437,60.0,40,36,10.0,0.0
6438,69.0,0,36,6.0,0.0
6439,50.0,40,36,10.0,0.0
6440,77.0,20,216,0.0,0.0
6441,77.0,8,108,6.0,0.0
6442,52.0,20,36,10.0,0.0
6443,53.0,40,36,10.0,0.0
6444,67.0,0,36,6.0,0.0
6445,67.0,12,216,1.0,0.0
6446,58.0,40,36,10.0,0.0
6447,65.0,0,36,6.0,0.0
6448,57.0,20,36,10.0,0.0
6449,67.0,40,36,6.0,0.0
6450,58.0,0,36,10.0,0.0
6451,48.0,40,36,10.0,0.0
6452,76.0,20,216,0.0,0.0
6453,76.0,8,108,6.0,0.0
6454,50.0,20,36,10.0,0.0
6455,52.0,40,36,10.0,0.0
6456,57.0,40,36,10.0,0.0
6457,65.0,0,36,6.0,0.0
6458,65.0,8,228,1.0,0.0
6459,64.0,0,36,6.0,0.0
6460,55.0,20,36,10.0,0.0
6461,65.0,40,36,6.0,0.0
6462,57.0,0,36,10.0,0.0
6463,47.0,40,36,10.0,0.0
6464,74.0,0,108,0.0,0.0
6465,74.0,0,36,6.0,0.0
6466,73.0,0,36,6.0,0.0
6467,57.0,32,36,10.0,0.0
6468,74.0,40,36,6.0,0.0
6469,55.0,0,36,10.0,0.0
6470,49.0,40,36,10.0,0.0
6471,79.0,0,108,0.0,0.0
6472,64.0,8,108,1.0,0.0
6473,76.0,0,36,6.0,0.0
6474,73.0,32,36,6.0,0.0
6475,57.0,0,36,10.0,0.0
6476,55.0,40,36,10.0,0.0
6477,69.0,0,36,6.0,0.0
6478,77.0,8,108,0.0,0.0
6479,77.0,40,36,6.0,0.0
6480,50.0,0,36,10.0,0.0
6481,62.0,0,108,1.0,0.0
6482,74.0,0,36,6.0,0.0
6483,57.0,32,36,10.0,0.0
6484,55.0,40,36,10.0,0.0
6485,71.0,0,36,6.0,0.0
6486,79.0,0,36,6.0,0.0
6487,73.0,0,108,0.0,0.0
6488,70.0,8,108,1.0,0.0
6489,52.0,40,36,10.0,0.0
6490,76.0,0,36,6.0,0.0
6491,57.0,32,36,10.0,0.0
6492,73.0,0,36,6.0,0.0
6493,55.0,40,36,10.0,0.0
6494,74.0,34,162,0.0,0.0
6495,53.0,40,36,10.0,0.0
6496,81.0,0,36,6.0,0.0
6497,69.0,35,81,1.0,0.0
6498,79.0,5,36,6.0,0.0
6499,52.0,0,36,10.0,0.0
6500,77.0,1,36,6.0,0.0
6501,50.0,0,36,10.0,0.0
6502,77.0,0,27,2.0,0.0
6503,50.0,0,27,5.0,0.0
6504,62.0,39,27,5.0,0.0
6505,74.0,0,27,3.0,0.0
6506,81.0,0,27,1.0,0.0
6507,69.0,0,27,4.0,0.0
6508,79.0,0,81,1.0,0.0
6509,79.0,0,81,2.0,0.0
6510,76.0,6,36,6.0,0.0
6511,46.0,33,81,5.0,0.0
6512,58.0,0,81,5.0,0.0
6513,74.0,0,81,3.0,0.0
6514,70.0,0,81,4.0,0.0
6515,58.0,0,36,10.0,0.0
6516,57.0,0,36,10.0,0.0
6517,77.0,5,36,6.0,0.0
6518,76.0,2,54,0.0,0.0
6519,79.0,1,36,6.0,0.0
6520,55.0,0,36,10.0,0.0
6521,43.0,0,27,5.0,0.0
6522,82.0,0,27,1.0,0.0
6523,76.0,0,27,2.0,0.0
6524,64.0,84,27,4.0,0.0
6525,70.0,0,27,3.0,0.0
6526,55.0,0,27,5.0,0.0
6527,64.0,27,81,4.0,0.0
6528,57.0,0,108,10.0,0.0
6529,45.0,9,108,5.0,0.0
6530,76.0,0,162,1.0,0.0
6531,76.0,39,162,0.0,0.0
6532,73.0,0,162,2.0,0.0
6533,57.0,0,108,5.0,0.0
6534,73.0,0,162,6.0,0.0
6535,69.0,0,108,3.0,0.0
6536,65.0,45,27,4.0,0.0
6537,45.0,0,108,5.0,0.0
6538,69.0,0,108,3.0,0.0
6539,45.0,0,108,10.0,0.0
6540,67.0,27,81,4.0,0.0
6541,33.0,6,108,5.0,0.0
6542,74.0,0,54,2.0,0.0
6543,74.0,3,54,1.0,0.0
6544,74.0,0,54,0.0,0.0
6545,74.0,0,54,6.0,0.0
6546,64.0,57,27,4.0,0.0
6547,69.0,0,108,3.0,0.0
6548,74.0,0,108,2.0,0.0
6549,74.0,0,1824,0.0,0.0
6550,74.0,33,54,6.0,0.0
6551,50.0,0,108,5.0,0.0
6552,65.0,0,108,4.0,0.0
6553,38.0,0,108,5.0,0.0
6554,50.0,21,216,10.0,0.0
6555,74.0,9,108,1.0,0.0
6556,72.0,21,27,6.0,0.0
6557,70.0,30,27,6.0,0.0
6558,69.0,30,27,6.0,0.0
6559,67.0,30,27,6.0,0.0
6560,65.0,9,27,6.0,0.0
6561,64.0,30,27,6.0,0.0
6562,65.0,30,27,6.0,0.0
6563,48.0,0,108,5.0,0.0
6564,36.0,9,108,5.0,0.0
6565,69.0,30,27,6.0,0.0
6566,65.0,21,27,6.0,0.0
6567,62.0,30,27,6.0,0.0
6568,65.0,30,27,6.0,0.0
6569,64.0,30,27,6.0,0.0
6570,62.0,30,27,6.0,0.0
6571,61.0,30,27,6.0,0.0
6572,47.0,9,108,5.0,0.0
6573,62.0,30,27,6.0,0.0
6574,35.0,0,108,5.0,0.0
6575,77.0,15,432,1.0,0.0
6576,65.0,30,27,6.0,0.0
6577,62.0,21,27,6.0,0.0
6578,57.0,30,27,10.0,0.0
6579,62.0,30,27,10.0,0.0
6580,57.0,30,27,10.0,0.0
6581,53.0,30,27,10.0,0.0
6582,57.0,30,27,10.0,0.0
6583,33.0,9,108,5.0,0.0
6584,53.0,30,27,10.0,0.0
6585,45.0,0,108,5.0,0.0
6586,50.0,30,27,10.0,0.0
6587,53.0,21,27,10.0,0.0
6588,52.0,30,27,10.0,0.0
6589,50.0,30,27,10.0,0.0
6590,48.0,15,27,10.0,0.0
6591,47.0,30,27,10.0,0.0
6592,45.0,30,27,10.0,0.0
6593,32.0,9,108,5.0,0.0
6594,44.0,0,108,5.0,0.0
6595,62.0,0,108,3.0,0.0
6596,65.0,0,108,4.0,0.0
6597,59.0,0,108,2.0,0.0
6598,44.0,30,27,10.0,0.0
6599,71.0,0,108,3.0,0.0
6600,65.0,0,108,3.0,0.0
6601,74.0,0,108,2.0,0.0
6602,71.0,3,864,1.0,0.0
6603,50.0,0,108,4.0,0.0
6604,56.0,0,108,4.0,0.0
6605,65.0,0,108,2.0,0.0
6606,47.0,30,27,10.0,0.0
6607,50.0,21,27,10.0,0.0
6608,53.0,30,27,10.0,0.0
6609,59.0,30,27,10.0,0.0
6610,62.0,30,27,10.0,0.0
6611,59.0,30,27,10.0,0.0
6612,56.0,30,27,10.0,0.0
6613,52.0,30,27,10.0,0.0
6614,35.0,0,108,5.0,0.0
6615,47.0,9,108,5.0,0.0
6616,54.0,30,27,10.0,0.0
6617,56.0,21,27,10.0,0.0
6618,57.0,30,27,10.0,0.0
6619,59.0,30,27,10.0,0.0
6620,60.0,30,27,10.0,0.0
6621,62.0,30,27,6.0,0.0
6622,64.0,30,27,6.0,0.0
6623,44.0,0,108,5.0,0.0
6624,65.0,30,27,6.0,0.0
6625,32.0,9,108,5.0,0.0
6626,62.0,30,27,6.0,0.0
6627,64.0,21,27,6.0,0.0
6628,65.0,30,27,6.0,0.0
6629,59.0,30,27,10.0,0.0
6630,60.0,30,27,10.0,0.0
6631,62.0,30,27,6.0,0.0
6632,64.0,30,27,6.0,0.0
6633,40.0,0,108,5.0,0.0
6634,66.0,30,27,6.0,0.0
6635,28.0,9,108,5.0,0.0
6636,68.0,30,27,6.0,0.0
6637,69.0,21,27,6.0,0.0
6638,71.0,27,27,6.0,0.0
6639,72.0,30,27,6.0,0.0
6640,74.0,30,27,6.0,0.0
6641,76.0,30,27,6.0,0.0
6642,71.0,111,27,6.0,0.0
6643,72.0,0,108,0.0,0.0
6644,45.0,0,108,10.0,0.0
6645,69.0,0,108,3.0,0.0
6646,72.0,0,108,6.0,0.0
6647,72.0,0,108,2.0,0.0
6648,64.0,0,108,6.0,0.0
6649,64.0,0,108,4.0,0.0
6650,69.0,0,108,7.0,0.0
6651,33.0,0,108,5.0,0.0
6652,45.0,66,108,5.0,0.0
6653,57.0,60,54,1.0,0.0
6654,57.0,0,54,2.0,0.0
6655,59.0,60,54,1.0,0.0
6656,59.0,0,54,2.0,0.0
6657,60.0,0,54,2.0,0.0
6658,60.0,60,54,1.0,0.0
6659,64.0,0,54,2.0,0.0
6660,64.0,60,54,1.0,0.0
6661,62.0,0,54,1.0,0.0
6662,62.0,60,54,2.0,0.0
6663,59.0,0,54,2.0,0.0
6664,59.0,60,54,1.0,0.0
6665,60.0,0,54,2.0,0.0
6666,60.0,60,54,1.0,0.0
6667,57.0,60,54,1.0,0.0
6668,57.0,0,54,2.0,0.0
6669,45.0,6,108,10.0,0.0
6670,60.0,54,54,1.0,0.0
6671,45.0,0,108,5.0,0.0
6672,64.0,0,108,4.0,0.0
6673,57.0,0,54,3.0,0.0
6674,33.0,0,108,5.0,0.0
6675,60.0,0,54,2.0,0.0
6676,59.0,0,54,3.0,0.0
6677,64.0,0,54,2.0,0.0
6678,64.0,42,54,1.0,0.0
6679,45.0,6,108,5.0,0.0
6680,69.0,0,36,1.0,0.0
6681,60.0,22,54,3.0,0.0
6682,45.0,0,108,10.0,0.0
6683,64.0,0,108,4.0,0.0
6684,33.0,0,108,5.0,0.0
6685,69.0,18,36,2.0,0.0
6686,71.0,0,36,2.0,0.0
6687,71.0,32,36,1.0,0.0
6688,64.0,2,54,3.0,0.0
6689,72.0,0,36,2.0,0.0
6690,72.0,40,36,1.0,0.0
6691,45.0,0,108,5.0,0.0
6692,33.0,0,108,5.0,0.0
6693,71.0,0,36,2.0,0.0
6694,71.0,18,36,1.0,0.0
6695,65.0,6,108,4.0,0.0
6696,45.0,0,108,10.0,0.0
6697,62.0,22,54,3.0,0.0
6698,69.0,32,36,1.0,0.0
6699,69.0,0,36,2.0,0.0
6700,59.0,2,54,3.0,0.0
6701,68.0,58,36,1.0,0.0
6702,68.0,0,36,2.0,0.0
6703,45.0,0,108,10.0,0.0
6704,64.0,6,108,4.0,0.0
6705,60.0,54,54,3.0,0.0
6706,45.0,0,108,5.0,0.0
6707,33.0,0,108,5.0,0.0
6708,69.0,0,54,2.0,0.0
6709,69.0,0,54,1.0,0.0
6710,57.0,0,54,2.0,0.0
6711,64.0,60,54,1.0,0.0
6712,57.0,0,54,3.0,0.0
6713,60.0,60,54,3.0,0.0
6714,60.0,0,54,2.0,0.0
6715,69.0,0,54,0.0,0.0
6716,69.0,0,54,1.0,0.0
6717,64.0,0,54,3.0,0.0
6718,71.0,0,54,0.0,0.0
6719,71.0,0,54,1.0,0.0
6720,64.0,42,54,2.0,0.0
6721,69.0,18,36,3.0,0.0
6722,72.0,22,54,1.0,0.0
6723,72.0,0,54,0.0,0.0
6724,69.0,0,36,2.0,0.0
6725,71.0,38,36,3.0,0.0
6726,71.0,0,36,2.0,0.0
6727,76.0,0,54,0.0,0.0
6728,76.0,2,54,1.0,0.0
6729,72.0,40,36,3.0,0.0
6730,72.0,0,36,2.0,0.0
6731,74.0,22,54,0.0,0.0
6732,71.0,18,36,3.0,0.0
6733,74.0,0,54,1.0,0.0
6734,71.0,0,36,2.0,0.0
6735,69.0,0,36,2.0,0.0
6736,69.0,38,36,3.0,0.0
6737,71.0,0,54,1.0,0.0
6738,71.0,2,54,0.0,0.0
6739,68.0,58,36,2.0,0.0
6740,68.0,0,36,3.0,0.0
6741,69.0,0,54,2.0,0.0
6742,69.0,6,108,3.0,0.0
6743,72.0,0,54,0.0,0.0
6744,72.0,54,54,1.0,0.0
6745,64.0,60,54,2.0,0.0
6746,69.0,0,54,0.0,0.0
6747,69.0,0,54,1.0,0.0
6748,69.0,0,54,2.0,0.0
6749,69.0,0,108,3.0,0.0
6750,45.0,0,108,5.0,0.0
6751,72.0,0,54,1.0,0.0
6752,72.0,0,54,0.0,0.0
6753,45.0,0,108,10.0,0.0
6754,69.0,54,54,6.0,0.0
6755,64.0,0,108,4.0,0.0
6756,33.0,6,108,5.0,0.0
6757,76.0,0,54,0.0,0.0
6758,71.0,0,54,2.0,0.0
6759,71.0,0,54,6.0,0.0
6760,76.0,42,54,1.0,0.0
6761,52.0,0,108,4.0,0.0
6762,81.0,18,36,0.0,0.0
6763,33.0,6,108,5.0,0.0
6764,69.0,0,108,3.0,0.0
6765,81.0,0,36,1.0,0.0
6766,72.0,0,54,2.0,0.0
6767,45.0,0,108,5.0,0.0
6768,45.0,0,108,10.0,0.0
6769,72.0,22,54,6.0,0.0
6770,83.0,0,36,0.0,0.0
6771,83.0,32,36,1.0,0.0
6772,76.0,2,54,6.0,0.0
6773,76.0,0,54,2.0,0.0
6774,84.0,0,36,1.0,0.0
6775,84.0,40,36,0.0,0.0
6776,74.0,22,54,6.0,0.0
6777,33.0,0,108,5.0,0.0
6778,45.0,0,108,5.0,0.0
6779,83.0,0,36,0.0,0.0
6780,56.0,6,108,4.0,0.0
6781,65.0,0,108,3.0,0.0
6782,74.0,0,54,2.0,0.0
6783,83.0,18,36,1.0,0.0
6784,45.0,0,108,10.0,0.0
6785,81.0,0,36,0.0,0.0
6786,81.0,32,36,1.0,0.0
6787,71.0,2,54,2.0,0.0
6788,71.0,0,54,6.0,0.0
6789,80.0,31,36,0.0,0.0
6790,80.0,0,36,1.0,0.0
6791,72.0,30,27,6.0,0.0
6792,64.0,0,108,3.0,0.0
6793,60.0,0,108,4.0,0.0
6794,72.0,0,108,2.0,0.0
6795,45.0,0,108,5.0,0.0
6796,81.0,3,1824,0.0,0.0
6797,33.0,0,108,5.0,0.0
6798,81.0,0,108,1.0,0.0
6799,45.0,9,108,10.0,0.0
6800,69.0,30,27,6.0,0.0
6801,67.0,21,27,6.0,0.0
6802,65.0,30,27,6.0,0.0
6803,64.0,30,27,6.0,0.0
6804,62.0,30,27,6.0,0.0
6805,60.0,30,27,6.0,0.0
6806,59.0,30,27,6.0,0.0
6807,31.0,9,108,5.0,0.0
6808,60.0,30,27,6.0,0.0
6809,43.0,0,108,5.0,0.0
6810,64.0,30,27,6.0,0.0
6811,60.0,21,27,6.0,0.0
6812,57.0,30,27,10.0,0.0
6813,60.0,30,27,10.0,0.0
6814,59.0,30,27,10.0,0.0
6815,57.0,30,27,10.0,0.0
6816,56.0,30,27,10.0,0.0
6817,57.0,30,27,10.0,0.0
6818,42.0,9,108,5.0,0.0
6819,84.0,15,432,1.0,0.0
6820,30.0,0,108,5.0,0.0
6821,60.0,30,27,10.0,0.0
6822,57.0,21,27,10.0,0.0
6823,52.0,30,27,10.0,0.0
6824,57.0,30,27,10.0,0.0
6825,52.0,30,27,10.0,0.0
6826,48.0,30,27,10.0,0.0
6827,52.0,30,27,10.0,0.0
6828,48.0,30,27,10.0,0.0
6829,40.0,9,108,5.0,0.0
6830,28.0,0,108,5.0,0.0
6831,45.0,30,27,10.0,0.0
6832,48.0,21,27,10.0,0.0
6833,47.0,30,27,10.0,0.0
6834,45.0,30,27,10.0,0.0
6835,43.0,15,27,10.0,0.0
6836,42.0,30,27,10.0,0.0
6837,40.0,30,27,10.0,0.0
6838,51.0,9,108,4.0,0.0
6839,69.0,0,108,3.0,0.0
6840,66.0,0,108,3.0,0.0
6841,60.0,0,108,3.0,0.0
6842,66.0,0,108,4.0,0.0
6843,57.0,0,108,4.0,0.0
6844,39.0,0,108,5.0,0.0
6845,78.0,0,864,1.0,0.0
6846,72.0,0,108,2.0,0.0
6847,66.0,0,108,2.0,0.0
6848,57.0,0,108,2.0,0.0
6849,27.0,0,108,5.0,0.0
6850,39.0,30,27,10.0,0.0
6851,42.0,30,27,10.0,0.0
6852,45.0,21,27,10.0,0.0
6853,48.0,30,27,10.0,0.0
6854,54.0,30,27,10.0,0.0
6855,57.0,30,27,10.0,0.0
6856,54.0,30,27,10.0,0.0
6857,51.0,30,27,10.0,0.0
6858,54.0,9,108,5.0,0.0
6859,42.0,0,108,5.0,0.0
6860,47.0,30,27,10.0,0.0
6861,49.0,30,27,10.0,0.0
6862,51.0,21,27,10.0,0.0
6863,52.0,30,27,10.0,0.0
6864,54.0,30,27,10.0,0.0
6865,55.0,30,27,10.0,0.0
6866,57.0,30,27,10.0,0.0
6867,59.0,30,27,10.0,0.0
6868,39.0,9,108,5.0,0.0
6869,60.0,30,27,10.0,0.0
6870,51.0,0,108,5.0,0.0
6871,57.0,30,27,10.0,0.0
6872,59.0,21,27,10.0,0.0
6873,60.0,30,27,10.0,0.0
6874,54.0,30,27,10.0,0.0
6875,55.0,30,27,10.0,0.0
6876,57.0,30,27,10.0,0.0
6877,59.0,30,27,10.0,0.0
6878,35.0,9,108,5.0,0.0
6879,47.0,0,108,5.0,0.0
6880,61.0,30,27,6.0,0.0
6881,63.0,30,27,6.0,0.0
6882,64.0,21,27,6.0,0.0
6883,66.0,27,27,6.0,0.0
6884,67.0,30,27,6.0,0.0
6885,69.0,30,27,6.0,0.0
6886,71.0,30,27,6.0,0.0
6887,66.0,111,27,6.0,0.0
6888,67.0,0,108,6.0,0.0
6889,59.0,66,108,10.0,0.0
6890,64.0,0,108,6.0,0.0
6891,71.0,0,108,2.0,0.0
6892,40.0,0,108,10.0,0.0
6893,79.0,0,108,0.0,0.0
6894,76.0,0,108,1.0,0.0
6895,40.0,0,108,5.0,0.0
6896,52.0,0,108,5.0,0.0
6897,67.0,0,108,3.0,0.0
6898,40.0,0,108,5.0,0.0
6899,52.0,54,54,10.0,0.0
6900,28.0,6,108,5.0,0.0
6901,52.0,0,54,4.0,0.0
6902,54.0,60,54,4.0,0.0
6903,54.0,0,54,10.0,0.0
6904,55.0,0,54,10.0,0.0
6905,28.0,0,108,5.0,0.0
6906,55.0,54,54,4.0,0.0
6907,67.0,0,108,2.0,0.0
6908,40.0,6,108,5.0,0.0
6909,76.0,0,108,0.0,0.0
6910,83.0,0,108,1.0,0.0
6911,59.0,0,54,10.0,0.0
6912,59.0,60,54,4.0,0.0
6913,75.0,0,108,0.0,0.0
6914,40.0,0,108,5.0,0.0
6915,28.0,6,108,5.0,0.0
6916,84.0,0,108,1.0,0.0
6917,66.0,0,108,2.0,0.0
6918,57.0,54,54,10.0,0.0
6919,57.0,0,54,4.0,0.0
6920,54.0,0,54,4.0,0.0
6921,54.0,60,54,10.0,0.0
6922,40.0,6,108,5.0,0.0
6923,55.0,54,54,10.0,0.0
6924,55.0,0,54,4.0,0.0
6925,28.0,0,108,5.0,0.0
6926,52.0,0,54,10.0,0.0
6927,52.0,60,54,4.0,0.0
6928,64.0,0,54,6.0,0.0
6929,55.0,0,54,4.0,0.0
6930,55.0,0,54,10.0,0.0
6931,28.0,0,108,5.0,0.0
6932,64.0,54,54,3.0,0.0
6933,40.0,6,108,5.0,0.0
6934,59.0,0,54,10.0,0.0
6935,66.0,42,54,6.0,0.0
6936,66.0,0,54,3.0,0.0
6937,59.0,0,54,4.0,0.0
6938,67.0,0,108,2.0,0.0
6939,67.0,22,54,3.0,0.0
6940,40.0,6,108,5.0,0.0
6941,64.0,18,36,4.0,0.0
6942,76.0,0,108,1.0,0.0
6943,28.0,0,108,5.0,0.0
6944,83.0,0,108,0.0,0.0
6945,64.0,0,36,6.0,0.0
6946,67.0,0,36,6.0,0.0
6947,66.0,0,36,4.0,0.0
6948,69.0,0,36,6.0,0.0
6949,66.0,32,36,6.0,0.0
6950,71.0,2,54,3.0,0.0
6951,67.0,0,36,4.0,0.0
6952,67.0,40,36,6.0,0.0
6953,71.0,0,36,6.0,0.0
6954,66.0,0,36,4.0,0.0
6955,28.0,0,108,5.0,0.0
6956,69.0,22,54,3.0,0.0
6957,66.0,0,36,6.0,0.0
6958,69.0,18,36,6.0,0.0
6959,84.0,0,108,0.0,0.0
6960,69.0,0,108,2.0,0.0
6961,75.0,0,108,1.0,0.0
6962,40.0,6,108,5.0,0.0
6963,64.0,0,36,6.0,0.0
6964,64.0,32,36,4.0,0.0
6965,67.0,0,36,6.0,0.0
6966,66.0,2,54,3.0,0.0
6967,63.0,0,36,6.0,0.0
6968,66.0,0,36,6.0,0.0
6969,63.0,80,36,4.0,0.0
6970,64.0,0,108,7.0,0.0
6971,38.0,0,108,10.0,0.0
6972,26.0,8,108,5.0,0.0
6973,64.0,0,108,4.0,0.0
6974,68.0,0,108,6.0,0.0
6975,68.0,0,108,3.0,0.0
6976,59.0,0,108,6.0,0.0
6977,38.0,0,108,5.0,0.0
6978,68.0,32,36,1.0,0.0
6979,69.0,40,36,1.0,0.0
6980,38.0,8,108,5.0,0.0
6981,26.0,0,108,5.0,0.0
6982,71.0,40,36,1.0,0.0
6983,69.0,32,36,1.0,0.0
6984,71.0,40,36,1.0,0.0
6985,64.0,40,36,1.0,0.0
6986,26.0,0,108,5.0,0.0
6987,71.0,0,108,3.0,0.0
6988,68.0,0,108,4.0,0.0
6989,76.0,0,108,2.0,0.0
6990,38.0,8,108,5.0,0.0
6991,71.0,32,36,1.0,0.0
6992,72.0,40,36,1.0,0.0
6993,59.0,0,108,4.0,0.0
6994,64.0,8,108,3.0,0.0
6995,74.0,40,36,1.0,0.0
6996,26.0,0,108,5.0,0.0
6997,38.0,0,108,5.0,0.0
6998,68.0,0,108,2.0,0.0
6999,72.0,32,36,1.0,0.0
7000,71.0,40,36,1.0,0.0
7001,76.0,40,36,1.0,0.0
7002,38.0,0,108,10.0,0.0
7003,26.0,0,108,5.0,0.0
7004,64.0,0,108,6.0,0.0
7005,68.0,0,108,6.0,0.0
7006,71.0,0,108,6.0,0.0
7007,38.0,8,108,5.0,0.0
7008,59.0,0,108,6.0,0.0
7009,80.0,32,36,0.0,0.0
7010,71.0,0,36,1.0,0.0
7011,72.0,0,36,1.0,0.0
7012,81.0,40,36,0.0,0.0
7013,26.0,0,108,5.0,0.0
7014,38.0,8,108,5.0,0.0
7015,74.0,0,36,1.0,0.0
7016,83.0,40,36,0.0,0.0
7017,72.0,0,36,1.0,0.0
7018,81.0,32,36,0.0,0.0
7019,74.0,40,36,1.0,0.0
7020,83.0,0,36,0.0,0.0
7021,26.0,0,108,5.0,0.0
7022,68.0,40,36,1.0,0.0
7023,71.0,8,108,2.0,0.0
7024,62.0,0,108,4.0,0.0
7025,38.0,0,108,5.0,0.0
7026,68.0,0,108,3.0,0.0
7027,76.0,0,36,0.0,0.0
7028,80.0,32,36,0.0,0.0
7029,71.0,0,36,1.0,0.0
7030,72.0,0,36,1.0,0.0
7031,81.0,40,36,0.0,0.0
7032,26.0,0,108,5.0,0.0
7033,38.0,8,108,5.0,0.0
7034,59.0,0,108,3.0,0.0
7035,64.0,0,108,2.0,0.0
7036,83.0,40,36,0.0,0.0
7037,74.0,0,36,1.0,0.0
7038,56.0,0,108,4.0,0.0
7039,81.0,32,36,0.0,0.0
7040,72.0,0,36,1.0,0.0
7041,80.0,112,36,0.0,0.0
7042,71.0,0,36,1.0,0.0
7043,76.0,0,108,3.0,0.0
7044,60.0,93,108,4.0,0.0
7045,81.0,0,108,0.0,0.0
7046,36.0,0,108,5.0,0.0
7047,81.0,0,108,2.0,0.0
7048,36.0,0,108,10.0,0.0
7049,24.0,0,108,5.0,0.0
7050,76.0,0,108,1.0,0.0
7051,71.0,9,108,7.0,0.0
7052,68.0,0,108,6.0,0.0
7053,76.0,0,108,6.0,0.0
7054,64.0,27,81,10.0,0.0
7055,62.0,39,27,10.0,0.0
7056,60.0,40,36,10.0,0.0
7057,69.0,27,81,6.0,0.0
7058,76.0,8,108,7.0,0.0
7059,81.0,0,108,6.0,0.0
7060,59.0,5,36,10.0,0.0
7061,57.0,1,36,10.0,0.0
7062,72.0,39,27,6.0,0.0
7063,59.0,40,36,10.0,0.0
7064,50.0,0,108,5.0,0.0
7065,38.0,8,108,5.0,0.0
7066,74.0,27,81,6.0,0.0
7067,80.0,0,108,6.0,0.0
7068,76.0,0,108,7.0,0.0
7069,60.0,5,36,10.0,0.0
7070,62.0,1,36,10.0,0.0
7071,71.0,39,27,6.0,0.0
7072,81.0,0,108,6.0,0.0
7073,72.0,0,108,6.0,0.0
7074,36.0,0,108,5.0,0.0
7075,60.0,40,36,10.0,0.0
7076,48.0,8,108,5.0,0.0
7077,76.0,0,108,7.0,0.0
7078,59.0,32,36,10.0,0.0
7079,57.0,40,36,10.0,0.0
7080,76.0,8,108,2.0,0.0
7081,80.0,40,36,1.0,0.0
7082,88.0,27,81,0.0,0.0
7083,81.0,5,36,1.0,0.0
7084,83.0,1,36,1.0,0.0
7085,86.0,39,27,0.0,0.0
7086,81.0,40,36,1.0,0.0
7087,84.0,0,36,0.0,0.0
7088,76.0,8,108,2.0,0.0
7089,83.0,0,36,1.0,0.0
7090,83.0,32,36,0.0,0.0
7091,84.0,40,36,1.0,0.0
7092,81.0,0,36,0.0,0.0
7093,52.0,0,108,5.0,0.0
7094,40.0,0,108,5.0,0.0
7095,68.0,0,108,4.0,0.0
7096,83.0,0,36,0.0,0.0
7097,71.0,8,108,3.0,0.0
7098,80.0,40,36,1.0,0.0
7099,76.0,0,108,2.0,0.0
7100,84.0,0,36,0.0,0.0
7101,81.0,32,36,1.0,0.0
7102,86.0,0,36,0.0,0.0
7103,83.0,40,36,1.0,0.0
7104,81.0,0,36,1.0,0.0
7105,69.0,0,108,4.0,0.0
7106,84.0,40,36,0.0,0.0
7107,72.0,8,108,3.0,0.0
7108,45.0,0,108,5.0,0.0
7109,33.0,0,108,5.0,0.0
7110,76.0,0,108,2.0,0.0
7111,83.0,32,36,0.0,0.0
7112,52.0,0,36,10.0,0.0
7113,83.0,0,36,1.0,0.0
7114,81.0,0,36,0.0,0.0
7115,84.0,40,36,1.0,0.0
7116,57.0,0,36,10.0,0.0
7117,74.0,0,108,7.0,0.0
7118,60.0,40,36,10.0,0.0
7119,69.0,0,108,6.0,0.0
7120,78.0,8,108,6.0,0.0
7121,62.0,32,36,10.0,0.0
7122,60.0,40,36,10.0,0.0
7123,67.0,27,81,6.0,0.0
7124,74.0,8,108,6.0,0.0
7125,59.0,40,36,10.0,0.0
7126,79.0,0,108,6.0,0.0
7127,57.0,5,36,10.0,0.0
7128,55.0,1,36,10.0,0.0
7129,71.0,39,27,6.0,0.0
7130,78.0,0,108,6.0,0.0
7131,74.0,0,108,6.0,0.0
7132,36.0,0,108,5.0,0.0
7133,57.0,40,36,10.0,0.0
7134,72.0,27,81,6.0,0.0
7135,48.0,8,108,5.0,0.0
7136,59.0,5,36,10.0,0.0
7137,60.0,1,36,10.0,0.0
7138,69.0,39,27,6.0,0.0
7139,79.0,8,108,6.0,0.0
7140,35.0,0,108,5.0,0.0
7141,59.0,40,36,10.0,0.0
7142,74.0,0,108,7.0,0.0
7143,67.0,0,108,6.0,0.0
7144,47.0,0,108,5.0,0.0
7145,57.0,32,36,10.0,0.0
7146,55.0,40,36,10.0,0.0
7147,74.0,8,108,2.0,0.0
7148,78.0,40,36,1.0,0.0
7149,86.0,27,81,0.0,0.0
7150,79.0,5,36,1.0,0.0
7151,81.0,1,36,1.0,0.0
7152,84.0,39,27,0.0,0.0
7153,79.0,0,36,1.0,0.0
7154,74.0,8,108,2.0,0.0
7155,83.0,40,36,0.0,0.0
7156,81.0,0,36,1.0,0.0
7157,81.0,32,36,0.0,0.0
7158,79.0,40,36,0.0,0.0
7159,83.0,0,36,1.0,0.0
7160,66.0,0,108,4.0,0.0
7161,69.0,8,108,3.0,0.0
7162,38.0,0,108,5.0,0.0
7163,50.0,0,108,5.0,0.0
7164,74.0,0,108,2.0,0.0
7165,81.0,40,36,0.0,0.0
7166,78.0,0,36,1.0,0.0
7167,79.0,32,36,1.0,0.0
7168,83.0,0,36,0.0,0.0
7169,84.0,0,36,0.0,0.0
7170,81.0,40,36,1.0,0.0
7171,67.0,0,108,4.0,0.0
7172,74.0,0,108,2.0,0.0
7173,71.0,8,108,3.0,0.0
7174,83.0,0,36,0.0,0.0
7175,43.0,0,108,5.0,0.0
7176,31.0,0,108,5.0,0.0
7177,79.0,21,36,1.0,0.0
7178,71.0,19,27,6.0,0.0
7179,81.0,11,36,0.0,0.0
7180,81.0,0,36,1.0,0.0
7181,72.0,21,27,6.0,0.0
7182,83.0,0,36,1.0,0.0
7183,79.0,1,36,0.0,0.0
7184,74.0,39,27,6.0,0.0
7185,76.0,22,174,6.0,0.0
7186,60.0,40,36,10.0,0.0
7187,62.0,38,36,10.0,0.0
7188,67.0,2,54,6.0,0.0
7189,64.0,40,36,10.0,0.0
7190,57.0,18,36,10.0,0.0
7191,66.0,34,162,6.0,0.0
7192,55.0,38,36,10.0,0.0
7193,76.0,2,54,6.0,0.0
7194,54.0,40,36,10.0,0.0
7195,59.0,6,36,10.0,0.0
7196,74.0,22,174,6.0,0.0
7197,60.0,38,36,10.0,0.0
7198,65.0,2,54,6.0,0.0
7199,62.0,40,36,10.0,0.0
7200,64.0,34,162,6.0,0.0
7201,56.0,18,36,10.0,0.0
7202,54.0,38,36,10.0,0.0
7203,74.0,2,54,6.0,0.0
7204,52.0,40,36,10.0,0.0
7205,72.0,22,174,6.0,0.0
7206,57.0,6,36,10.0,0.0
7207,59.0,38,36,10.0,0.0
7208,63.0,2,54,6.0,0.0
7209,60.0,40,36,10.0,0.0
7210,54.0,18,36,10.0,0.0
7211,62.0,34,162,6.0,0.0
7212,52.0,38,36,10.0,0.0
7213,72.0,2,54,6.0,0.0
7214,50.0,40,36,10.0,0.0
7215,71.0,3,174,6.0,0.0
7216,55.0,6,36,10.0,0.0
7217,57.0,38,36,10.0,0.0
7218,62.0,2,54,6.0,0.0
7219,59.0,31,36,10.0,0.0
7220,49.0,27,27,10.0,0.0
7221,55.0,0,108,3.0,0.0
7222,64.0,0,108,3.0,0.0
7223,71.0,0,108,3.0,0.0
7224,67.0,0,108,4.0,0.0
7225,76.0,0,108,2.0,0.0
7226,71.0,0,108,2.0,0.0
7227,49.0,0,108,5.0,0.0
7228,64.0,0,54,6.0,0.0
7229,79.0,0,864,1.0,0.0
7230,83.0,3,864,0.0,0.0
7231,37.0,0,108,5.0,0.0
7232,52.0,0,108,4.0,0.0
7233,67.0,0,108,2.0,0.0
7234,59.0,9,108,4.0,0.0
7235,52.0,30,27,10.0,0.0
7236,55.0,21,27,10.0,0.0
7237,61.0,30,27,6.0,0.0
7238,64.0,30,27,6.0,0.0
7239,67.0,30,27,6.0,0.0
7240,64.0,30,27,6.0,0.0
7241,62.0,30,27,6.0,0.0
7242,61.0,30,27,6.0,0.0
7243,59.0,30,27,6.0,0.0
7244,61.0,30,27,6.0,0.0
7245,62.0,30,27,6.0,0.0
7246,64.0,30,27,6.0,0.0
7247,66.0,30,27,6.0,0.0
7248,67.0,30,27,6.0,0.0
7249,69.0,30,27,6.0,0.0
7250,71.0,30,27,6.0,0.0
7251,64.0,30,27,6.0,0.0
7252,66.0,30,27,6.0,0.0
7253,67.0,30,27,6.0,0.0
7254,64.0,30,27,6.0,0.0
7255,62.0,30,27,6.0,0.0
7256,64.0,30,27,6.0,0.0
7257,66.0,30,27,6.0,0.0
7258,67.0,30,27,6.0,0.0
7259,69.0,30,27,6.0,0.0
7260,71.0,30,27,6.0,0.0
7261,73.0,27,27,6.0,0.0
7262,74.0,30,27,6.0,0.0
7263,76.0,30,27,6.0,0.0
7264,78.0,30,27,6.0,0.0
7265,79.0,30,27,6.0,0.0
7266,48.0,0,108,5.0,0.0
7267,74.0,0,108,3.0,0.0
7268,66.0,0,108,3.0,0.0
7269,81.0,30,27,6.0,0.0
7270,57.0,0,108,3.0,0.0
7271,66.0,0,108,4.0,0.0
7272,81.0,3,864,0.0,0.0
7273,36.0,0,108,5.0,0.0
7274,50.0,0,108,4.0,0.0
7275,78.0,0,108,2.0,0.0
7276,78.0,0,864,1.0,0.0
7277,69.0,0,108,2.0,0.0
7278,62.0,9,108,2.0,0.0
7279,57.0,0,108,4.0,0.0
7280,78.0,30,27,6.0,0.0
7281,79.0,21,27,6.0,0.0
7282,81.0,30,27,6.0,0.0
7283,74.0,30,27,6.0,0.0
7284,76.0,30,27,6.0,0.0
7285,78.0,30,27,6.0,0.0
7286,74.0,30,27,6.0,0.0
7287,69.0,30,27,6.0,0.0
7288,74.0,30,27,6.0,0.0
7289,73.0,30,27,6.0,0.0
7290,71.0,30,27,6.0,0.0
7291,69.0,30,27,6.0,0.0
7292,67.0,30,27,6.0,0.0
7293,66.0,30,27,6.0,0.0
7294,64.0,30,27,6.0,0.0
7295,62.0,30,27,6.0,0.0
7296,64.0,30,27,6.0,0.0
7297,66.0,30,27,6.0,0.0
7298,61.0,30,27,6.0,0.0
7299,62.0,30,27,6.0,0.0
7300,57.0,30,27,10.0,0.0
7301,55.0,30,27,10.0,0.0
7302,52.0,30,27,10.0,0.0
7303,54.0,30,27,10.0,0.0
7304,57.0,30,27,10.0,0.0
7305,60.0,30,27,10.0,0.0
7306,57.0,27,27,10.0,0.0
7307,54.0,30,27,10.0,0.0
7308,52.0,30,27,10.0,0.0
7309,50.0,30,27,10.0,0.0
7310,48.0,57,27,10.0,0.0
7311,47.0,0,216,10.0,0.0
7312,59.0,0,108,3.0,0.0
7313,67.0,0,108,3.0,0.0
7314,74.0,0,108,3.0,0.0
7315,79.0,54,54,0.0,0.0
7316,62.0,0,108,2.0,0.0
7317,71.0,6,108,2.0,0.0
7318,79.0,0,108,2.0,0.0
7319,59.0,0,108,4.0,0.0
7320,62.0,0,108,1.0,0.0
7321,71.0,0,108,1.0,0.0
7322,79.0,0,108,1.0,0.0
7323,50.0,0,108,4.0,0.0
7324,35.0,0,216,5.0,0.0
7325,47.0,18,216,5.0,0.0
7326,67.0,0,108,4.0,0.0
7327,74.0,60,54,0.0,0.0
7328,76.0,0,54,0.0,0.0
7329,67.0,42,54,6.0,0.0
7330,78.0,0,54,0.0,0.0
7331,69.0,42,54,6.0,0.0
7332,71.0,22,54,6.0,0.0
7333,79.0,18,36,0.0,0.0
7334,81.0,38,36,0.0,0.0
7335,74.0,2,54,6.0,0.0
7336,83.0,40,36,0.0,0.0
7337,40.0,6,108,5.0,0.0
7338,81.0,18,36,0.0,0.0
7339,52.0,0,108,5.0,0.0
7340,60.0,0,108,10.0,0.0
7341,72.0,22,54,6.0,0.0
7342,54.0,0,108,10.0,0.0
7343,57.0,0,108,10.0,0.0
7344,52.0,0,108,10.0,0.0
7345,79.0,32,36,0.0,0.0
7346,69.0,2,54,6.0,0.0
7347,78.0,58,36,0.0,0.0
7348,55.0,54,54,10.0,0.0
7349,50.0,0,216,10.0,0.0
7350,79.0,6,108,0.0,0.0
7351,38.0,0,216,5.0,0.0
7352,62.0,0,216,8.0,0.0
7353,50.0,0,216,5.0,0.0
7354,71.0,12,216,6.0,0.0
7355,62.0,60,54,1.0,0.0
7356,54.0,0,54,10.0,0.0
7357,84.0,6,108,0.0,0.0
7358,64.0,42,54,1.0,0.0
7359,55.0,0,54,10.0,0.0
7360,57.0,42,54,10.0,0.0
7361,66.0,0,54,1.0,0.0
7362,67.0,18,36,1.0,0.0
7363,83.0,6,108,0.0,0.0
7364,59.0,22,54,10.0,0.0
7365,69.0,32,36,1.0,0.0
7366,62.0,2,54,10.0,0.0
7367,71.0,40,36,1.0,0.0
7368,60.0,22,54,10.0,0.0
7369,26.0,0,108,5.0,0.0
7370,78.0,0,108,0.0,0.0
7371,69.0,6,108,6.0,0.0
7372,38.0,0,108,5.0,0.0
7373,69.0,18,36,1.0,0.0
7374,38.0,0,108,10.0,0.0
7375,67.0,32,36,1.0,0.0
7376,57.0,2,54,10.0,0.0
7377,66.0,40,36,1.0,0.0
7378,38.0,0,216,5.0,0.0
7379,38.0,8,108,10.0,0.0
7380,67.0,0,108,1.0,0.0
7381,59.0,40,36,10.0,0.0
7382,62.0,0,108,6.0,0.0
7383,50.0,12,216,5.0,0.0
7384,60.0,32,36,10.0,0.0
7385,62.0,40,36,10.0,0.0
7386,60.0,40,36,10.0,0.0
7387,50.0,0,108,10.0,0.0
7388,66.0,0,108,6.0,0.0
7389,60.0,8,108,1.0,0.0
7390,81.0,0,108,0.0,0.0
7391,59.0,20,36,10.0,0.0
7392,57.0,40,36,10.0,0.0
7393,59.0,40,36,10.0,0.0
7394,38.0,0,108,10.0,0.0
7395,59.0,0,108,1.0,0.0
7396,79.0,8,108,0.0,0.0
7397,67.0,0,108,6.0,0.0
7398,60.0,32,36,10.0,0.0
7399,62.0,40,36,10.0,0.0
7400,57.0,8,108,1.0,0.0
7401,60.0,40,36,10.0,0.0
7402,39.0,0,108,5.0,0.0
7403,72.0,0,108,0.0,0.0
7404,39.0,0,108,10.0,0.0
7405,51.0,0,108,5.0,0.0
7406,66.0,0,108,6.0,0.0
7407,59.0,32,36,10.0,0.0
7408,57.0,40,36,10.0,0.0
7409,55.0,0,108,1.0,0.0
7410,40.0,8,108,5.0,0.0
7411,67.0,0,108,6.0,0.0
7412,71.0,0,108,0.0,0.0
7413,52.0,0,108,5.0,0.0
7414,55.0,40,36,10.0,0.0
7415,40.0,0,108,10.0,0.0
7416,57.0,32,36,10.0,0.0
7417,59.0,40,36,10.0,0.0
7418,67.0,0,108,3.0,0.0
7419,36.0,0,108,5.0,0.0
7420,57.0,0,108,4.0,0.0
7421,76.0,0,108,0.0,0.0
7422,60.0,40,36,10.0,0.0
7423,76.0,0,108,1.0,0.0
7424,48.0,0,108,5.0,0.0
7425,76.0,8,108,2.0,0.0
7426,52.0,0,36,10.0,0.0
7427,50.0,32,36,10.0,0.0
7428,62.0,0,36,10.0,0.0
7429,64.0,40,36,10.0,0.0
7430,48.0,0,36,10.0,0.0
7431,50.0,0,108,5.0,0.0
7432,74.0,0,108,0.0,0.0
7433,59.0,0,108,4.0,0.0
7434,38.0,0,108,5.0,0.0
7435,74.0,0,108,2.0,0.0
7436,74.0,8,108,1.0,0.0
7437,47.0,40,36,10.0,0.0
7438,62.0,0,36,10.0,0.0
7439,67.0,0,108,3.0,0.0
7440,60.0,32,36,10.0,0.0
7441,45.0,0,36,10.0,0.0
7442,59.0,40,36,10.0,0.0
7443,43.0,0,36,10.0,0.0
7444,50.0,27,81,10.0,0.0
7445,66.0,0,108,3.0,0.0
7446,72.0,0,108,0.0,0.0
7447,72.0,8,108,1.0,0.0
7448,57.0,40,36,6.0,0.0
7449,57.0,0,108,4.0,0.0
7450,38.0,0,108,5.0,0.0
7451,26.0,0,108,5.0,0.0
7452,72.0,0,108,2.0,0.0
7453,67.0,5,36,6.0,0.0
7454,66.0,1,36,6.0,0.0
7455,38.0,39,27,10.0,0.0
7456,55.0,0,108,10.0,0.0
7457,62.0,0,108,3.0,0.0
7458,59.0,40,36,6.0,0.0
7459,31.0,0,1824,5.0,0.0
7460,71.0,8,108,2.0,0.0
7461,43.0,12,1824,5.0,0.0
7462,71.0,0,36,1.0,0.0
7463,55.0,0,108,4.0,0.0
7464,71.0,0,108,0.0,0.0
7465,69.0,32,36,1.0,0.0
7466,60.0,0,36,6.0,0.0
7467,62.0,0,36,6.0,0.0
7468,67.0,40,36,1.0,0.0
7469,67.0,0,108,2.0,0.0
7470,83.0,40,36,0.0,0.0
7471,59.0,0,108,4.0,0.0
7472,74.0,0,108,1.0,0.0
7473,62.0,8,108,3.0,0.0
7474,43.0,0,108,10.0,0.0
7475,67.0,0,36,6.0,0.0
7476,66.0,32,36,6.0,0.0
7477,81.0,0,36,0.0,0.0
7478,83.0,40,36,0.0,0.0
7479,67.0,0,36,6.0,0.0
7480,66.0,8,108,0.0,0.0
7481,69.0,0,36,1.0,0.0
7482,60.0,40,36,6.0,0.0
7483,71.0,0,36,1.0,0.0
7484,62.0,32,36,6.0,0.0
7485,64.0,0,36,6.0,0.0
7486,72.0,40,36,1.0,0.0
7487,57.0,0,108,4.0,0.0
7488,84.0,0,36,0.0,0.0
7489,78.0,0,108,1.0,0.0
7490,69.0,0,108,2.0,0.0
7491,69.0,40,36,6.0,0.0
7492,60.0,0,108,3.0,0.0
7493,55.0,8,108,10.0,0.0
7494,83.0,0,36,0.0,0.0
7495,67.0,32,36,6.0,0.0
7496,69.0,40,36,6.0,0.0
7497,84.0,0,36,0.0,0.0
7498,67.0,8,108,0.0,0.0
7499,71.0,0,36,1.0,0.0
7500,62.0,40,36,6.0,0.0
7501,55.0,0,108,10.0,0.0
7502,72.0,32,36,1.0,0.0
7503,64.0,0,36,6.0,0.0
7504,65.0,40,36,6.0,0.0
7505,74.0,0,36,1.0,0.0
7506,43.0,0,108,10.0,0.0
7507,71.0,0,36,6.0,0.0
7508,71.0,0,108,2.0,0.0
7509,86.0,40,36,0.0,0.0
7510,67.0,0,108,3.0,0.0
7511,79.0,0,108,1.0,0.0
7512,62.0,8,108,4.0,0.0
7513,69.0,32,36,6.0,0.0
7514,84.0,0,36,0.0,0.0
7515,71.0,0,36,6.0,0.0
7516,86.0,40,36,0.0,0.0
7517,72.0,0,36,1.0,0.0
7518,64.0,40,36,6.0,0.0
7519,67.0,8,108,0.0,0.0
7520,74.0,32,36,1.0,0.0
7521,65.0,0,36,6.0,0.0
7522,76.0,0,36,1.0,0.0
7523,67.0,40,36,6.0,0.0
7524,55.0,0,108,10.0,0.0
7525,67.0,0,108,3.0,0.0
7526,88.0,40,36,0.0,0.0
7527,72.0,8,108,2.0,0.0
7528,72.0,0,36,6.0,0.0
7529,60.0,0,108,4.0,0.0
7530,67.0,0,108,1.0,0.0
7531,71.0,0,36,6.0,0.0
7532,86.0,32,36,0.0,0.0
7533,72.0,0,36,6.0,0.0
7534,88.0,40,36,0.0,0.0
7535,69.0,40,36,1.0,0.0
7536,66.0,0,36,6.0,0.0
7537,55.0,8,108,10.0,0.0
7538,84.0,0,108,0.0,0.0
7539,67.0,0,36,6.0,0.0
7540,71.0,32,36,1.0,0.0
7541,72.0,40,36,1.0,0.0
7542,69.0,0,36,6.0,0.0
7543,72.0,0,108,2.0,0.0
7544,69.0,0,108,3.0,0.0
7545,43.0,0,108,10.0,0.0
7546,66.0,8,108,1.0,0.0
7547,81.0,40,36,0.0,0.0
7548,60.0,0,108,4.0,0.0
7549,72.0,0,36,6.0,0.0
7550,79.0,0,36,0.0,0.0
7551,71.0,32,36,6.0,0.0
7552,81.0,40,36,0.0,0.0
7553,72.0,0,36,6.0,0.0
7554,57.0,40,36,1.0,0.0
7555,66.0,0,36,6.0,0.0
7556,55.0,8,108,10.0,0.0
7557,84.0,0,108,0.0,0.0
7558,69.0,32,36,6.0,0.0
7559,60.0,0,36,1.0,0.0
7560,66.0,0,36,1.0,0.0
7561,72.0,40,36,6.0,0.0
7562,69.0,0,36,1.0,0.0
7563,43.0,0,108,10.0,0.0
7564,66.0,0,108,3.0,0.0
7565,69.0,0,108,2.0,0.0
7566,76.0,40,36,6.0,0.0
7567,60.0,8,108,4.0,0.0
7568,72.0,0,36,0.0,0.0
7569,74.0,0,36,6.0,0.0
7570,67.0,0,36,1.0,0.0
7571,71.0,32,36,0.0,0.0
7572,66.0,0,36,1.0,0.0
7573,72.0,0,36,0.0,0.0
7574,72.0,40,36,6.0,0.0
7575,55.0,0,108,10.0,0.0
7576,62.0,8,108,4.0,0.0
7577,71.0,40,36,6.0,0.0
7578,67.0,0,108,1.0,0.0
7579,71.0,0,108,0.0,0.0
7580,67.0,0,108,3.0,0.0
7581,71.0,0,108,2.0,0.0
7582,69.0,32,36,6.0,0.0
7583,67.0,40,36,6.0,0.0
7584,74.0,0,108,3.0,0.0
7585,43.0,0,108,10.0,0.0
7586,71.0,8,108,4.0,0.0
7587,74.0,0,108,0.0,0.0
7588,71.0,0,108,2.0,0.0
7589,74.0,40,36,6.0,0.0
7590,79.0,0,108,1.0,0.0
7591,72.0,32,36,6.0,0.0
7592,71.0,40,36,6.0,0.0
7593,71.0,0,108,3.0,0.0
7594,77.0,40,36,6.0,0.0
7595,67.0,0,108,4.0,0.0
7596,77.0,8,108,0.0,0.0
7597,74.0,0,108,1.0,0.0
7598,74.0,0,108,2.0,0.0
7599,43.0,0,108,10.0,0.0
7600,76.0,32,36,6.0,0.0
7601,74.0,28,36,6.0,0.0
7602,74.0,0,108,3.0,0.0
7603,80.0,40,36,6.0,0.0
7604,77.0,0,108,2.0,0.0
7605,62.0,0,108,4.0,0.0
7606,43.0,8,108,10.0,0.0
7607,71.0,0,108,1.0,0.0
7608,80.0,0,108,0.0,0.0
7609,79.0,32,36,6.0,0.0
7610,77.0,112,36,6.0,0.0
7611,43.0,6,108,5.0,0.0
7612,83.0,0,216,6.0,0.0
7613,77.0,0,216,6.0,0.0
7614,62.0,0,216,10.0,0.0
7615,67.0,0,216,10.0,0.0
7616,55.0,12,216,10.0,0.0
7617,83.0,0,216,0.0,0.0
7618,31.0,0,108,5.0,0.0
7619,74.0,0,432,2.0,0.0
7620,71.0,0,216,6.0,0.0
7621,74.0,0,216,6.0,0.0
7622,59.0,36,432,4.0,0.0
7623,59.0,0,216,10.0,0.0
7624,67.0,36,1392,3.0,0.0
7625,67.0,60,54,1.0,0.0
7626,55.0,6,108,5.0,0.0
7627,43.0,0,108,5.0,0.0
7628,74.0,42,54,1.0,0.0
7629,76.0,60,54,1.0,0.0
7630,77.0,54,54,1.0,0.0
7631,43.0,0,108,5.0,0.0
7632,55.0,6,108,5.0,0.0
7633,81.0,60,54,1.0,0.0
7634,43.0,6,108,5.0,0.0
7635,55.0,0,108,5.0,0.0
7636,79.0,18,54,1.0,0.0
7637,74.0,120,54,1.0,0.0
7638,52.0,0,216,10.0,0.0
7639,72.0,0,216,6.0,0.0
7640,72.0,36,432,2.0,0.0
7641,48.0,0,216,10.0,0.0
7642,82.0,0,216,6.0,0.0
7643,79.0,0,216,6.0,0.0
7644,76.0,12,216,6.0,0.0
7645,60.0,0,216,10.0,0.0
7646,55.0,0,216,10.0,0.0
7647,60.0,0,432,4.0,0.0
7648,76.0,0,912,1.0,0.0
7649,72.0,60,54,0.0,0.0
7650,79.0,42,54,0.0,0.0
7651,48.0,6,108,5.0,0.0
7652,36.0,0,108,5.0,0.0
7653,81.0,60,54,0.0,0.0
7654,48.0,6,108,5.0,0.0
7655,82.0,54,54,0.0,0.0
7656,36.0,0,108,5.0,0.0
7657,86.0,60,54,0.0,0.0
7658,84.0,18,54,0.0,0.0
7659,36.0,0,108,5.0,0.0
7660,48.0,6,108,5.0,0.0
7661,79.0,120,54,0.0,0.0
7662,81.0,30,864,0.0,0.0
7663,69.0,0,864,2.0,0.0
7664,76.0,0,216,6.0,0.0
7665,79.0,0,216,6.0,0.0
7666,69.0,0,216,6.0,0.0
7667,81.0,0,216,6.0,0.0
7668,57.0,12,216,10.0,0.0
7669,49.0,0,216,10.0,0.0
7670,52.0,0,216,10.0,0.0
7671,57.0,60,54,4.0,0.0
7672,37.0,6,108,5.0,0.0
7673,64.0,42,54,4.0,0.0
7674,49.0,0,108,5.0,0.0
7675,65.0,60,54,4.0,0.0
7676,67.0,54,54,4.0,0.0
7677,49.0,0,108,5.0,0.0
7678,37.0,6,108,5.0,0.0
7679,70.0,60,54,4.0,0.0
7680,69.0,18,54,4.0,0.0
7681,37.0,6,108,5.0,0.0
7682,49.0,0,108,5.0,0.0
7683,64.0,120,54,4.0,0.0
7684,65.0,36,432,4.0,0.0
7685,62.0,0,216,10.0,0.0
7686,57.0,0,216,10.0,0.0
7687,83.0,0,216,6.0,0.0
7688,74.0,0,216,6.0,0.0
7689,77.0,0,216,6.0,0.0
7690,81.0,0,216,6.0,0.0
7691,74.0,0,912,1.0,0.0
7692,53.0,0,216,10.0,0.0
7693,50.0,12,216,10.0,0.0
7694,62.0,60,54,3.0,0.0
7695,69.0,42,54,3.0,0.0
7696,38.0,6,108,5.0,0.0
7697,50.0,0,108,5.0,0.0
7698,71.0,60,54,3.0,0.0
7699,38.0,0,108,5.0,0.0
7700,72.0,54,54,3.0,0.0
7701,50.0,6,108,5.0,0.0
7702,76.0,30,54,3.0,0.0
7703,74.0,18,54,3.0,0.0
7704,38.0,0,108,5.0,0.0
7705,50.0,6,108,5.0,0.0
7706,69.0,120,54,3.0,0.0
7707,83.0,36,432,0.0,0.0
7708,47.0,0,216,10.0,0.0
7709,64.0,0,432,4.0,0.0
7710,52.0,0,216,10.0,0.0
7711,44.0,12,216,10.0,0.0
7712,71.0,0,432,3.0,0.0
7713,64.0,60,54,6.0,0.0
7714,64.0,0,54,2.0,0.0
7715,44.0,0,108,5.0,0.0
7716,71.0,42,54,2.0,0.0
7717,32.0,6,108,5.0,0.0
7718,71.0,0,54,6.0,0.0
7719,72.0,60,54,2.0,0.0
7720,72.0,0,54,6.0,0.0
7721,74.0,54,54,2.0,0.0
7722,32.0,6,108,5.0,0.0
7723,74.0,0,54,6.0,0.0
7724,44.0,0,108,5.0,0.0
7725,77.0,0,54,6.0,0.0
7726,77.0,60,54,2.0,0.0
7727,32.0,6,108,5.0,0.0
7728,44.0,0,108,5.0,0.0
7729,76.0,18,54,6.0,0.0
7730,76.0,0,54,2.0,0.0
7731,71.0,42,54,2.0,0.0
7732,71.0,0,54,6.0,0.0
7733,72.0,40,36,6.0,0.0
7734,33.0,0,108,5.0,0.0
7735,72.0,0,108,2.0,0.0
7736,72.0,0,108,1.0,0.0
7737,64.0,0,108,3.0,0.0
7738,45.0,0,108,5.0,0.0
7739,81.0,0,108,0.0,0.0
7740,45.0,8,108,10.0,0.0
7741,69.0,0,108,4.0,0.0
7742,74.0,32,36,6.0,0.0
7743,76.0,40,36,6.0,0.0
7744,53.0,12,216,10.0,0.0
7745,74.0,40,36,0.0,0.0
7746,41.0,0,108,5.0,0.0
7747,81.0,0,36,6.0,0.0
7748,53.0,8,108,5.0,0.0
7749,57.0,0,108,8.0,0.0
7750,62.0,0,216,10.0,0.0
7751,79.0,32,36,6.0,0.0
7752,76.0,0,36,0.0,0.0
7753,77.0,40,36,0.0,0.0
7754,81.0,0,36,6.0,0.0
7755,55.0,12,216,8.0,0.0
7756,71.0,40,36,6.0,0.0
7757,79.0,8,108,0.0,0.0
7758,72.0,20,36,6.0,0.0
7759,74.0,40,36,6.0,0.0
7760,79.0,0,36,6.0,0.0
7761,40.0,8,108,5.0,0.0
7762,72.0,40,36,1.0,0.0
7763,60.0,0,228,10.0,0.0
7764,52.0,8,228,10.0,0.0
7765,52.0,0,108,5.0,0.0
7766,77.0,20,36,6.0,0.0
7767,74.0,0,36,1.0,0.0
7768,76.0,0,36,1.0,0.0
7769,79.0,40,36,6.0,0.0
7770,53.0,12,216,8.0,0.0
7771,77.0,0,108,1.0,0.0
7772,69.0,40,36,6.0,0.0
7773,71.0,32,36,6.0,0.0
7774,72.0,40,36,6.0,0.0
7775,71.0,0,36,0.0,0.0
7776,38.0,0,108,5.0,0.0
7777,59.0,12,216,10.0,0.0
7778,50.0,0,216,10.0,0.0
7779,50.0,8,108,5.0,0.0
7780,77.0,40,36,6.0,0.0
7781,76.0,0,36,6.0,0.0
7782,72.0,20,36,0.0,0.0
7783,74.0,40,36,0.0,0.0
7784,77.0,0,36,6.0,0.0
7785,68.0,40,36,6.0,0.0
7786,52.0,12,216,8.0,0.0
7787,76.0,8,108,0.0,0.0
7788,69.0,20,36,6.0,0.0
7789,71.0,40,36,6.0,0.0
7790,48.0,0,228,10.0,0.0
7791,57.0,0,228,10.0,0.0
7792,69.0,40,36,1.0,0.0
7793,48.0,8,108,5.0,0.0
7794,76.0,0,36,6.0,0.0
7795,36.0,0,108,5.0,0.0
7796,71.0,20,36,1.0,0.0
7797,74.0,0,36,6.0,0.0
7798,76.0,0,36,6.0,0.0
7799,72.0,40,36,1.0,0.0
7800,66.0,40,36,6.0,0.0
7801,50.0,0,108,8.0,0.0
7802,74.0,8,108,1.0,0.0
7803,68.0,32,36,6.0,0.0
7804,69.0,40,36,6.0,0.0
7805,48.0,0,108,5.0,0.0
7806,78.0,0,36,0.0,0.0
7807,60.0,0,108,10.0,0.0
7808,74.0,40,36,6.0,0.0
7809,36.0,8,108,5.0,0.0
7810,72.0,32,36,6.0,0.0
7811,76.0,0,36,0.0,0.0
7812,78.0,40,36,0.0,0.0
7813,74.0,0,36,6.0,0.0
7814,65.0,40,36,6.0,0.0
7815,86.0,0,108,0.0,0.0
7816,47.0,0,108,5.0,0.0
7817,35.0,8,108,5.0,0.0
7818,59.0,0,108,10.0,0.0
7819,68.0,32,36,6.0,0.0
7820,71.0,40,36,6.0,0.0
7821,45.0,0,108,5.0,0.0
7822,57.0,0,108,10.0,0.0
7823,33.0,8,108,5.0,0.0
7824,74.0,0,36,6.0,0.0
7825,77.0,40,36,1.0,0.0
7826,72.0,0,36,6.0,0.0
7827,76.0,32,36,1.0,0.0
7828,74.0,0,36,6.0,0.0
7829,77.0,40,36,1.0,0.0
7830,86.0,0,108,1.0,0.0
7831,56.0,40,36,10.0,0.0
7832,44.0,8,108,5.0,0.0
7833,64.0,0,108,6.0,0.0
7834,32.0,0,108,5.0,0.0
7835,57.0,32,36,10.0,0.0
7836,59.0,40,36,10.0,0.0
7837,28.0,0,108,5.0,0.0
7838,83.0,0,36,0.0,0.0
7839,68.0,40,36,6.0,0.0
7840,52.0,8,108,10.0,0.0
7841,40.0,0,108,5.0,0.0
7842,81.0,0,36,0.0,0.0
7843,69.0,32,36,6.0,0.0
7844,80.0,0,36,0.0,0.0
7845,71.0,40,36,6.0,0.0
7846,60.0,40,36,10.0,0.0
7847,48.0,0,108,5.0,0.0
7848,81.0,0,108,0.0,0.0
7849,76.0,0,108,6.0,0.0
7850,60.0,8,108,5.0,0.0
7851,62.0,32,36,10.0,0.0
7852,64.0,40,36,10.0,0.0
7853,57.0,0,108,5.0,0.0
7854,72.0,0,36,6.0,0.0
7855,57.0,40,36,10.0,0.0
7856,78.0,0,36,1.0,0.0
7857,45.0,8,108,5.0,0.0
7858,74.0,0,36,6.0,0.0
7859,59.0,0,36,10.0,0.0
7860,79.0,32,36,1.0,0.0
7861,81.0,0,36,1.0,0.0
7862,60.0,40,36,10.0,0.0
7863,76.0,0,36,6.0,0.0
7864,54.0,0,108,5.0,0.0
7865,81.0,8,108,6.0,0.0
7866,75.0,0,108,1.0,0.0
7867,42.0,0,108,5.0,0.0
7868,54.0,40,36,10.0,0.0
7869,55.0,32,36,10.0,0.0
7870,57.0,40,36,10.0,0.0
7871,66.0,0,36,6.0,0.0
7872,84.0,0,36,0.0,0.0
7873,51.0,8,108,5.0,0.0
7874,39.0,0,108,5.0,0.0
7875,51.0,40,36,10.0,0.0
7876,83.0,0,36,0.0,0.0
7877,67.0,32,36,6.0,0.0
7878,52.0,0,36,10.0,0.0
7879,69.0,0,36,6.0,0.0
7880,54.0,0,36,10.0,0.0
7881,81.0,40,36,0.0,0.0
7882,47.0,0,36,10.0,0.0
7883,35.0,0,108,5.0,0.0
7884,63.0,40,36,6.0,0.0
7885,47.0,0,108,5.0,0.0
7886,81.0,8,108,0.0,0.0
7887,49.0,0,36,10.0,0.0
7888,64.0,32,36,6.0,0.0
7889,66.0,0,36,6.0,0.0
7890,51.0,40,36,10.0,0.0
7891,44.0,0,36,10.0,0.0
7892,44.0,0,108,5.0,0.0
7893,86.0,0,36,0.0,0.0
7894,77.0,40,36,1.0,0.0
7895,32.0,8,108,5.0,0.0
7896,59.0,0,36,6.0,0.0
7897,84.0,0,36,0.0,0.0
7898,76.0,0,36,1.0,0.0
7899,60.0,32,36,6.0,0.0
7900,45.0,0,36,10.0,0.0
7901,47.0,40,36,10.0,0.0
7902,74.0,0,36,1.0,0.0
7903,62.0,0,36,6.0,0.0
7904,83.0,0,36,0.0,0.0
7905,40.0,0,108,5.0,0.0
7906,64.0,0,108,2.0,0.0
7907,83.0,0,108,2.0,0.0
7908,28.0,0,108,5.0,0.0
7909,71.0,0,108,4.0,0.0
7910,64.0,0,108,3.0,0.0
7911,71.0,0,108,3.0,0.0
7912,80.0,0,108,3.0,0.0
7913,74.0,0,108,1.0,0.0
7914,56.0,8,108,4.0,0.0
7915,83.0,0,108,0.0,0.0
7916,56.0,40,36,10.0,0.0
7917,62.0,0,108,4.0,0.0
7918,74.0,0,108,2.0,0.0
7919,40.0,0,108,10.0,0.0
7920,57.0,32,36,10.0,0.0
7921,59.0,40,36,10.0,0.0
7922,44.0,40,36,10.0,0.0
7923,52.0,8,108,10.0,0.0
7924,45.0,32,36,10.0,0.0
7925,47.0,40,36,10.0,0.0
7926,76.0,12,216,0.0,0.0
7927,57.0,40,36,10.0,0.0
7928,36.0,8,108,10.0,0.0
7929,59.0,32,36,10.0,0.0
7930,60.0,40,36,10.0,0.0
7931,72.0,0,228,1.0,0.0
7932,45.0,40,36,10.0,0.0
7933,54.0,8,108,10.0,0.0
7934,47.0,20,36,10.0,0.0
7935,48.0,40,36,10.0,0.0
7936,59.0,40,36,10.0,0.0
7937,38.0,8,108,10.0,0.0
7938,74.0,12,216,0.0,0.0
7939,60.0,32,36,10.0,0.0
7940,62.0,40,36,10.0,0.0
7941,47.0,40,36,10.0,0.0
7942,56.0,8,108,10.0,0.0
7943,71.0,12,216,1.0,0.0
7944,48.0,20,36,10.0,0.0
7945,50.0,40,36,10.0,0.0
7946,60.0,40,36,10.0,0.0
7947,72.0,12,216,0.0,0.0
7948,40.0,8,108,10.0,0.0
7949,62.0,20,36,10.0,0.0
7950,64.0,40,36,10.0,0.0
7951,57.0,8,108,10.0,0.0
7952,48.0,40,36,10.0,0.0
7953,69.0,8,228,1.0,0.0
7954,50.0,20,36,10.0,0.0
7955,52.0,40,36,10.0,0.0
7956,41.0,0,108,10.0,0.0
7957,71.0,0,108,0.0,0.0
7958,62.0,40,36,6.0,0.0
7959,64.0,32,36,6.0,0.0
7960,65.0,40,36,6.0,0.0
7961,50.0,40,36,10.0,0.0
7962,68.0,0,108,1.0,0.0
7963,83.0,0,36,0.0,0.0
7964,59.0,8,108,6.0,0.0
7965,84.0,32,36,0.0,0.0
7966,52.0,0,36,10.0,0.0
7967,86.0,40,36,0.0,0.0
7968,53.0,0,36,10.0,0.0
7969,74.0,0,36,1.0,0.0
7970,71.0,40,36,6.0,0.0
7971,77.0,0,108,0.0,0.0
7972,44.0,8,108,10.0,0.0
7973,72.0,32,36,6.0,0.0
7974,76.0,0,36,1.0,0.0
7975,74.0,40,36,6.0,0.0
7976,77.0,0,36,1.0,0.0
7977,71.0,0,36,1.0,0.0
7978,68.0,8,108,6.0,0.0
7979,62.0,40,36,10.0,0.0
7980,77.0,12,216,0.0,0.0
7981,64.0,0,36,10.0,0.0
7982,72.0,32,36,1.0,0.0
7983,74.0,0,36,1.0,0.0
7984,65.0,40,36,10.0,0.0
7985,59.0,40,36,10.0,0.0
7986,74.0,0,36,6.0,0.0
7987,68.0,8,108,1.0,0.0
7988,76.0,0,36,6.0,0.0
7989,60.0,20,36,10.0,0.0
7990,77.0,0,36,6.0,0.0
7991,62.0,40,36,10.0,0.0
7992,74.0,0,156,1.0,0.0
7993,77.0,0,156,0.0,0.0
7994,71.0,8,108,6.0,0.0
7995,56.0,40,36,10.0,0.0
7996,57.0,32,36,10.0,0.0
7997,59.0,40,36,10.0,0.0
7998,52.0,40,36,10.0,0.0
7999,80.0,0,36,6.0,0.0
8000,54.0,0,36,10.0,0.0
8001,81.0,40,36,6.0,0.0
8002,76.0,0,36,0.0,0.0
8003,72.0,0,36,1.0,0.0
8004,71.0,0,36,1.0,0.0
8005,56.0,40,36,10.0,0.0
8006,74.0,0,36,0.0,0.0
8007,83.0,0,36,6.0,0.0
8008,69.0,40,36,1.0,0.0
8009,54.0,0,36,10.0,0.0
8010,74.0,35,81,6.0,0.0
8011,72.0,0,36,0.0,0.0
8012,56.0,0,36,10.0,0.0
8013,71.0,5,36,0.0,0.0
8014,68.0,0,36,1.0,0.0
8015,66.0,0,36,1.0,0.0
8016,57.0,0,36,10.0,0.0
8017,69.0,1,36,0.0,0.0
8018,74.0,39,27,6.0,0.0
8019,64.0,8,108,1.0,0.0
8020,56.0,40,36,10.0,0.0
8021,74.0,40,1476,6.0,0.0
8022,69.0,0,108,0.0,0.0
8023,57.0,32,36,10.0,0.0
8024,59.0,40,36,10.0,0.0
8025,64.0,40,36,6.0,0.0
8026,68.0,8,108,0.0,0.0
8027,62.0,32,36,6.0,0.0
8028,64.0,40,36,6.0,0.0
8029,57.0,40,36,10.0,0.0
8030,66.0,8,108,1.0,0.0
8031,59.0,32,36,10.0,0.0
8032,60.0,40,36,10.0,0.0
8033,66.0,40,36,6.0,0.0
8034,69.0,8,108,0.0,0.0
8035,64.0,32,36,6.0,0.0
8036,66.0,40,36,6.0,0.0
8037,68.0,8,108,1.0,0.0
8038,59.0,40,36,10.0,0.0
8039,60.0,32,36,10.0,0.0
8040,62.0,40,36,10.0,0.0
8041,68.0,40,36,6.0,0.0
8042,76.0,8,108,0.0,0.0
8043,66.0,32,36,6.0,0.0
8044,68.0,40,36,6.0,0.0
8045,69.0,8,108,1.0,0.0
8046,60.0,40,36,6.0,0.0
8047,62.0,32,36,6.0,0.0
8048,64.0,40,36,6.0,0.0
8049,78.0,8,108,0.0,0.0
8050,69.0,40,36,6.0,0.0
8051,68.0,32,36,6.0,0.0
8052,69.0,40,36,6.0,0.0
8053,62.0,40,36,6.0,0.0
8054,71.0,8,108,1.0,0.0
8055,64.0,32,36,6.0,0.0
8056,65.0,40,36,6.0,0.0
8057,71.0,40,36,6.0,0.0
8058,80.0,8,108,0.0,0.0
8059,69.0,32,36,6.0,0.0
8060,71.0,40,36,6.0,0.0
8061,60.0,40,36,6.0,0.0
8062,81.0,8,108,0.0,0.0
8063,62.0,32,36,6.0,0.0
8064,64.0,40,36,6.0,0.0
8065,77.0,0,228,1.0,0.0
8066,69.0,40,36,6.0,0.0
8067,68.0,40,36,6.0,0.0
8068,69.0,40,36,6.0,0.0
8069,74.0,8,108,0.0,0.0
8070,59.0,0,36,10.0,0.0
8071,76.0,32,36,6.0,0.0
8072,60.0,0,36,10.0,0.0
8073,77.0,40,36,6.0,0.0
8074,62.0,0,36,10.0,0.0
8075,76.0,20,216,1.0,0.0
8076,68.0,0,36,6.0,0.0
8077,76.0,8,108,0.0,0.0
8078,83.0,40,36,6.0,0.0
8079,66.0,0,36,6.0,0.0
8080,81.0,32,36,6.0,0.0
8081,68.0,0,36,6.0,0.0
8082,83.0,40,36,6.0,0.0
8083,72.0,0,36,6.0,0.0
8084,57.0,40,36,10.0,0.0
8085,77.0,20,216,0.0,0.0
8086,74.0,20,36,6.0,0.0
8087,59.0,0,36,10.0,0.0
8088,60.0,0,36,10.0,0.0
8089,76.0,40,36,6.0,0.0
8090,65.0,40,36,6.0,0.0
8091,81.0,0,36,6.0,0.0
8092,74.0,8,228,1.0,0.0
8093,64.0,20,36,6.0,0.0
8094,79.0,0,36,6.0,0.0
8095,81.0,0,36,6.0,0.0
8096,65.0,40,36,6.0,0.0
8097,55.0,40,36,10.0,0.0
8098,71.0,0,36,6.0,0.0
8099,76.0,20,216,0.0,0.0
8100,57.0,32,36,10.0,0.0
8101,72.0,0,36,6.0,0.0
8102,74.0,0,36,6.0,0.0
8103,59.0,40,36,10.0,0.0
8104,64.0,0,36,6.0,0.0
8105,72.0,20,216,1.0,0.0
8106,79.0,40,36,6.0,0.0
8107,77.0,0,36,6.0,0.0
8108,62.0,20,36,6.0,0.0
8109,64.0,0,36,6.0,0.0
8110,79.0,40,36,6.0,0.0
8111,69.0,0,36,6.0,0.0
8112,74.0,20,216,0.0,0.0
8113,53.0,40,36,10.0,0.0
8114,71.0,0,36,6.0,0.0
8115,55.0,20,36,10.0,0.0
8116,57.0,0,36,10.0,0.0
8117,72.0,40,36,6.0,0.0
8118,77.0,0,36,6.0,0.0
8119,62.0,40,36,10.0,0.0
8120,70.0,8,228,1.0,0.0
8121,76.0,0,36,6.0,0.0
8122,60.0,20,36,10.0,0.0
8123,62.0,0,36,10.0,0.0
8124,77.0,40,36,6.0,0.0
8125,52.0,40,36,10.0,0.0
8126,67.0,0,36,6.0,0.0
8127,73.0,27,81,0.0,0.0
8128,53.0,0,36,10.0,0.0
8129,69.0,5,36,6.0,0.0
8130,55.0,1,36,10.0,0.0
8131,70.0,0,36,6.0,0.0
8132,76.0,39,27,0.0,0.0
8133,69.0,35,201,1.0,0.0
8134,61.0,0,36,10.0,0.0
8135,81.0,35,81,0.0,0.0
8136,76.0,40,36,6.0,0.0
8137,74.0,0,36,6.0,0.0
8138,59.0,5,36,10.0,0.0
8139,76.0,0,36,6.0,0.0
8140,61.0,1,36,10.0,0.0
8141,79.0,39,27,0.0,0.0
8142,77.0,0,81,0.0,0.0
8143,50.0,40,36,10.0,0.0
8144,65.0,0,36,6.0,0.0
8145,52.0,0,36,10.0,0.0
8146,67.0,5,36,6.0,0.0
8147,69.0,0,36,6.0,0.0
8148,53.0,1,36,10.0,0.0
8149,73.0,0,27,0.0,0.0
8150,69.0,39,27,1.0,0.0
8151,58.0,0,36,10.0,0.0
8152,74.0,8,228,0.0,0.0
8153,74.0,40,36,6.0,0.0
8154,68.0,35,81,1.0,0.0
8155,57.0,5,36,10.0,0.0
8156,73.0,0,36,6.0,0.0
8157,58.0,0,36,10.0,0.0
8158,74.0,1,36,6.0,0.0
8159,69.0,39,27,1.0,0.0
8160,68.0,40,36,6.0,0.0
8161,52.0,0,36,10.0,0.0
8162,71.0,0,108,1.0,0.0
8163,69.0,32,36,6.0,0.0
8164,54.0,0,36,10.0,0.0
8165,56.0,0,36,10.0,0.0
8166,71.0,40,36,6.0,0.0
8167,71.0,20,216,1.0,0.0
8168,74.0,0,216,0.0,0.0
8169,59.0,0,36,10.0,0.0
8170,74.0,40,36,6.0,0.0
8171,72.0,0,36,6.0,0.0
8172,57.0,40,36,10.0,0.0
8173,74.0,40,36,6.0,0.0
8174,59.0,0,36,10.0,0.0
8175,69.0,0,36,6.0,0.0
8176,54.0,40,36,10.0,0.0
8177,71.0,20,36,6.0,0.0
8178,56.0,0,36,10.0,0.0
8179,72.0,0,36,6.0,0.0
8180,57.0,40,36,10.0,0.0
8181,59.0,0,36,10.0,0.0
8182,74.0,40,36,6.0,0.0
8183,71.0,9,228,1.0,0.0
8184,74.0,0,228,0.0,0.0
8185,72.0,40,36,6.0,0.0
8186,57.0,0,36,10.0,0.0
8187,59.0,0,36,10.0,0.0
8188,74.0,31,36,6.0,0.0
8189,64.0,0,108,3.0,0.0
8190,64.0,0,108,2.0,0.0
8191,40.0,0,108,5.0,0.0
8192,56.0,0,108,4.0,0.0
8193,52.0,0,108,5.0,0.0
8194,56.0,30,27,10.0,0.0
8195,57.0,30,27,10.0,0.0
8196,59.0,21,27,10.0,0.0
8197,60.0,30,27,10.0,0.0
8198,80.0,9,108,1.0,0.0
8199,62.0,30,27,6.0,0.0
8200,83.0,0,108,0.0,0.0
8201,64.0,30,27,6.0,0.0
8202,65.0,21,27,6.0,0.0
8203,62.0,30,27,6.0,0.0
8204,40.0,9,108,5.0,0.0
8205,59.0,0,108,4.0,0.0
8206,68.0,0,108,3.0,0.0
8207,71.0,30,27,6.0,0.0
8208,68.0,0,108,2.0,0.0
8209,52.0,0,108,5.0,0.0
8210,68.0,30,27,6.0,0.0
8211,65.0,21,27,6.0,0.0
8212,64.0,30,27,6.0,0.0
8213,62.0,30,27,6.0,0.0
8214,80.0,0,108,0.0,0.0
8215,71.0,9,108,1.0,0.0
8216,60.0,30,27,10.0,0.0
8217,59.0,21,27,10.0,0.0
8218,57.0,30,27,10.0,0.0
8219,71.0,0,108,2.0,0.0
8220,56.0,30,27,10.0,0.0
8221,62.0,9,108,4.0,0.0
8222,68.0,0,108,3.0,0.0
8223,40.0,0,108,5.0,0.0
8224,52.0,0,108,5.0,0.0
8225,57.0,30,27,10.0,0.0
8226,59.0,21,27,10.0,0.0
8227,60.0,30,27,10.0,0.0
8228,62.0,30,27,6.0,0.0
8229,68.0,9,108,1.0,0.0
8230,76.0,0,108,0.0,0.0
8231,64.0,30,27,6.0,0.0
8232,65.0,21,27,6.0,0.0
8233,62.0,30,27,6.0,0.0
8234,40.0,0,108,5.0,0.0
8235,64.0,0,108,3.0,0.0
8236,71.0,30,27,6.0,0.0
8237,52.0,0,108,5.0,0.0
8238,59.0,9,108,4.0,0.0
8239,68.0,0,108,2.0,0.0
8240,69.0,30,27,6.0,0.0
8241,68.0,21,27,6.0,0.0
8242,65.0,30,27,6.0,0.0
8243,64.0,30,27,6.0,0.0
8244,71.0,9,108,1.0,0.0
8245,74.0,0,108,0.0,0.0
8246,62.0,30,27,10.0,0.0
8247,60.0,21,27,10.0,0.0
8248,59.0,30,27,10.0,0.0
8249,69.0,9,108,2.0,0.0
8250,64.0,0,108,3.0,0.0
8251,57.0,30,27,10.0,0.0
8252,57.0,0,108,5.0,0.0
8253,60.0,0,108,4.0,0.0
8254,45.0,0,108,5.0,0.0
8255,59.0,30,27,10.0,0.0
8256,60.0,21,27,10.0,0.0
8257,62.0,30,27,10.0,0.0
8258,69.0,0,108,1.0,0.0
8259,64.0,30,27,6.0,0.0
8260,72.0,9,108,0.0,0.0
8261,66.0,30,27,6.0,0.0
8262,68.0,21,27,6.0,0.0
8263,64.0,30,27,6.0,0.0
8264,72.0,30,27,6.0,0.0
8265,64.0,9,108,2.0,0.0
8266,60.0,0,108,3.0,0.0
8267,57.0,0,108,4.0,0.0
8268,45.0,0,108,5.0,0.0
8269,57.0,0,108,5.0,0.0
8270,69.0,30,27,6.0,0.0
8271,67.0,21,27,6.0,0.0
8272,65.0,30,27,6.0,0.0
8273,64.0,30,27,6.0,0.0
8274,88.0,9,108,0.0,0.0
8275,84.0,0,108,1.0,0.0
8276,62.0,30,27,10.0,0.0
8277,60.0,21,27,10.0,0.0
8278,59.0,30,27,10.0,0.0
8279,57.0,30,27,10.0,0.0
8280,45.0,0,108,5.0,0.0
8281,64.0,0,108,3.0,0.0
8282,60.0,0,108,4.0,0.0
8283,69.0,9,108,2.0,0.0
8284,57.0,0,108,5.0,0.0
8285,59.0,30,27,10.0,0.0
8286,60.0,21,27,10.0,0.0
8287,62.0,30,27,10.0,0.0
8288,81.0,0,108,1.0,0.0
8289,84.0,9,108,0.0,0.0
8290,64.0,30,27,6.0,0.0
8291,66.0,30,27,6.0,0.0
8292,68.0,21,27,6.0,0.0
8293,64.0,30,27,6.0,0.0
8294,45.0,0,108,5.0,0.0
8295,72.0,0,108,2.0,0.0
8296,64.0,9,108,4.0,0.0
8297,69.0,0,108,3.0,0.0
8298,57.0,0,108,5.0,0.0
8299,72.0,30,27,6.0,0.0
8300,69.0,30,27,6.0,0.0
8301,67.0,21,27,6.0,0.0
8302,65.0,30,27,6.0,0.0
8303,64.0,30,27,6.0,0.0
8304,81.0,0,108,0.0,0.0
8305,72.0,9,108,1.0,0.0
8306,62.0,30,27,10.0,0.0
8307,60.0,21,27,10.0,0.0
8308,59.0,30,27,10.0,0.0
8309,76.0,0,108,2.0,0.0
8310,70.0,0,108,3.0,0.0
8311,43.0,0,108,5.0,0.0
8312,55.0,0,108,5.0,0.0
8313,58.0,30,27,10.0,0.0
8314,61.0,9,108,4.0,0.0
8315,59.0,30,27,10.0,0.0
8316,61.0,21,27,10.0,0.0
8317,62.0,30,27,10.0,0.0
8318,73.0,0,108,1.0,0.0
8319,64.0,30,27,6.0,0.0
8320,82.0,9,108,0.0,0.0
8321,65.0,30,27,6.0,0.0
8322,67.0,21,27,6.0,0.0
8323,64.0,30,27,6.0,0.0
8324,70.0,0,108,3.0,0.0
8325,55.0,0,108,5.0,0.0
8326,64.0,0,108,4.0,0.0
8327,79.0,0,108,2.0,0.0
8328,73.0,30,27,6.0,0.0
8329,43.0,9,108,5.0,0.0
8330,70.0,30,27,6.0,0.0
8331,67.0,21,27,6.0,0.0
8332,65.0,30,27,6.0,0.0
8333,64.0,30,27,6.0,0.0
8334,76.0,0,108,1.0,0.0
8335,79.0,9,108,0.0,0.0
8336,62.0,30,27,10.0,0.0
8337,61.0,21,27,10.0,0.0
8338,59.0,30,27,10.0,0.0
8339,58.0,30,27,10.0,0.0
8340,82.0,0,108,2.0,0.0
8341,43.0,0,108,5.0,0.0
8342,76.0,0,108,3.0,0.0
8343,55.0,0,108,5.0,0.0
8344,73.0,9,108,4.0,0.0
8345,59.0,30,27,10.0,0.0
8346,61.0,21,27,10.0,0.0
8347,62.0,30,27,10.0,0.0
8348,64.0,30,27,6.0,0.0
8349,73.0,0,108,1.0,0.0
8350,76.0,9,108,0.0,0.0
8351,65.0,30,27,6.0,0.0
8352,67.0,21,27,6.0,0.0
8353,64.0,30,27,6.0,0.0
8354,55.0,0,108,5.0,0.0
8355,43.0,0,108,5.0,0.0
8356,73.0,0,108,4.0,0.0
8357,73.0,30,27,6.0,0.0
8358,81.0,0,108,2.0,0.0
8359,76.0,9,108,3.0,0.0
8360,70.0,30,27,6.0,0.0
8361,67.0,21,27,6.0,0.0
8362,65.0,30,27,6.0,0.0
8363,73.0,0,108,0.0,0.0
8364,64.0,30,27,6.0,0.0
8365,69.0,9,108,1.0,0.0
8366,62.0,30,27,10.0,0.0
8367,61.0,21,27,10.0,0.0
8368,59.0,30,27,10.0,0.0
8369,57.0,30,27,10.0,0.0
8370,86.0,0,108,2.0,0.0
8371,41.0,9,108,5.0,0.0
8372,74.0,0,108,4.0,0.0
8373,81.0,0,108,3.0,0.0
8374,53.0,0,108,5.0,0.0
8375,61.0,30,27,10.0,0.0
8376,62.0,21,27,10.0,0.0
8377,64.0,30,27,10.0,0.0
8378,65.0,30,27,6.0,0.0
8379,74.0,9,108,0.0,0.0
8380,69.0,0,108,1.0,0.0
8381,67.0,30,27,6.0,0.0
8382,69.0,21,27,6.0,0.0
8383,65.0,30,27,6.0,0.0
8384,77.0,0,108,3.0,0.0
8385,81.0,0,108,2.0,0.0
8386,41.0,9,108,5.0,0.0
8387,74.0,30,27,6.0,0.0
8388,74.0,0,108,4.0,0.0
8389,53.0,0,108,5.0,0.0
8390,69.0,30,27,6.0,0.0
8391,67.0,21,27,6.0,0.0
8392,65.0,30,27,6.0,0.0
8393,69.0,0,108,1.0,0.0
8394,64.0,30,27,10.0,0.0
8395,77.0,9,108,0.0,0.0
8396,62.0,30,27,10.0,0.0
8397,61.0,21,27,10.0,0.0
8398,59.0,30,27,10.0,0.0
8399,77.0,9,108,2.0,0.0
8400,69.0,0,108,4.0,0.0
8401,74.0,0,108,3.0,0.0
8402,57.0,30,27,10.0,0.0
8403,41.0,0,108,5.0,0.0
8404,53.0,0,108,5.0,0.0
8405,61.0,30,27,10.0,0.0
8406,62.0,21,27,10.0,0.0
8407,64.0,30,27,10.0,0.0
8408,74.0,0,108,1.0,0.0
8409,65.0,30,27,6.0,0.0
8410,81.0,9,108,0.0,0.0
8411,67.0,30,27,6.0,0.0
8412,69.0,21,27,6.0,0.0
8413,65.0,30,27,6.0,0.0
8414,74.0,30,27,6.0,0.0
8415,41.0,0,108,5.0,0.0
8416,65.0,9,108,4.0,0.0
8417,53.0,0,108,5.0,0.0
8418,74.0,0,108,2.0,0.0
8419,69.0,0,108,3.0,0.0
8420,69.0,30,27,6.0,0.0
8421,67.0,21,27,6.0,0.0
8422,65.0,30,27,6.0,0.0
8423,86.0,0,108,0.0,0.0
8424,77.0,9,108,1.0,0.0
8425,64.0,30,27,10.0,0.0
8426,62.0,30,27,10.0,0.0
8427,61.0,21,27,10.0,0.0
8428,62.0,30,27,10.0,0.0
8429,74.0,0,108,2.0,0.0
8430,56.0,30,27,10.0,0.0
8431,52.0,0,108,5.0,0.0
8432,71.0,9,108,3.0,0.0
8433,56.0,0,108,4.0,0.0
8434,40.0,0,108,5.0,0.0
8435,57.0,30,27,10.0,0.0
8436,59.0,21,27,10.0,0.0
8437,60.0,30,27,10.0,0.0
8438,62.0,30,27,6.0,0.0
8439,71.0,9,108,1.0,0.0
8440,80.0,0,108,0.0,0.0
8441,64.0,30,27,6.0,0.0
8442,65.0,21,27,6.0,0.0
8443,62.0,30,27,6.0,0.0
8444,40.0,0,108,5.0,0.0
8445,68.0,0,108,3.0,0.0
8446,71.0,30,27,6.0,0.0
8447,71.0,0,108,2.0,0.0
8448,62.0,0,108,4.0,0.0
8449,52.0,9,108,5.0,0.0
8450,65.0,30,27,6.0,0.0
8451,62.0,21,27,6.0,0.0
8452,60.0,30,27,6.0,0.0
8453,59.0,30,27,10.0,0.0
8454,74.0,0,108,1.0,0.0
8455,83.0,9,108,0.0,0.0
8456,57.0,30,27,10.0,0.0
8457,56.0,21,27,10.0,0.0
8458,59.0,30,27,10.0,0.0
8459,68.0,0,108,2.0,0.0
8460,40.0,0,108,5.0,0.0
8461,64.0,0,108,3.0,0.0
8462,52.0,0,108,5.0,0.0
8463,52.0,30,27,10.0,0.0
8464,62.0,9,108,4.0,0.0
8465,54.0,30,27,10.0,0.0
8466,56.0,21,27,10.0,0.0
8467,57.0,30,27,10.0,0.0
8468,68.0,0,108,1.0,0.0
8469,59.0,30,27,6.0,0.0
8470,76.0,9,108,0.0,0.0
8471,60.0,30,27,6.0,0.0
8472,62.0,21,27,6.0,0.0
8473,59.0,30,27,6.0,0.0
8474,64.0,0,108,3.0,0.0
8475,68.0,30,27,6.0,0.0
8476,52.0,0,108,5.0,0.0
8477,71.0,9,108,2.0,0.0
8478,56.0,0,108,4.0,0.0
8479,40.0,0,108,5.0,0.0
8480,65.0,30,27,6.0,0.0
8481,62.0,21,27,6.0,0.0
8482,60.0,30,27,6.0,0.0
8483,80.0,9,108,1.0,0.0
8484,59.0,30,27,10.0,0.0
8485,86.0,0,108,0.0,0.0
8486,57.0,30,27,10.0,0.0
8487,56.0,21,27,10.0,0.0
8488,59.0,30,27,10.0,0.0
8489,64.0,0,108,3.0,0.0
8490,69.0,0,108,2.0,0.0
8491,52.0,30,27,10.0,0.0
8492,61.0,0,108,4.0,0.0
8493,28.0,9,108,5.0,0.0
8494,40.0,0,108,5.0,0.0
8495,56.0,30,27,10.0,0.0
8496,57.0,21,27,10.0,0.0
8497,59.0,30,27,10.0,0.0
8498,81.0,0,108,1.0,0.0
8499,57.0,30,27,10.0,0.0
8500,85.0,9,108,0.0,0.0
8501,59.0,30,27,10.0,0.0
8502,61.0,21,27,10.0,0.0
8503,62.0,30,27,10.0,0.0
8504,61.0,30,27,10.0,0.0
8505,40.0,0,108,5.0,0.0
8506,64.0,0,108,2.0,0.0
8507,28.0,0,108,5.0,0.0
8508,61.0,9,108,3.0,0.0
8509,57.0,0,108,4.0,0.0
8510,62.0,30,27,6.0,0.0
8511,64.0,21,27,6.0,0.0
8512,65.0,30,27,6.0,0.0
8513,64.0,30,27,6.0,0.0
8514,81.0,0,108,1.0,0.0
8515,85.0,9,108,0.0,0.0
8516,68.0,30,27,6.0,0.0
8517,69.0,21,27,6.0,0.0
8518,71.0,30,27,6.0,0.0
8519,41.0,0,108,5.0,0.0
8520,29.0,9,108,5.0,0.0
8521,69.0,0,108,2.0,0.0
8522,72.0,30,27,6.0,0.0
8523,57.0,0,108,4.0,0.0
8524,63.0,0,108,3.0,0.0
8525,69.0,30,27,6.0,0.0
8526,68.0,21,27,6.0,0.0
8527,69.0,30,27,6.0,0.0
8528,65.0,30,27,6.0,0.0
8529,81.0,9,108,1.0,0.0
8530,87.0,0,108,0.0,0.0
8531,64.0,30,27,6.0,0.0
8532,63.0,21,27,6.0,0.0
8533,64.0,30,27,6.0,0.0
8534,60.0,30,27,6.0,0.0
8535,60.0,0,108,4.0,0.0
8536,29.0,0,108,5.0,0.0
8537,41.0,9,108,5.0,0.0
8538,69.0,0,108,2.0,0.0
8539,63.0,0,108,3.0,0.0
8540,57.0,30,27,10.0,0.0
8541,56.0,21,27,10.0,0.0
8542,57.0,30,27,10.0,0.0
8543,53.0,30,27,10.0,0.0
8544,87.0,9,108,0.0,0.0
8545,81.0,0,108,1.0,0.0
8546,52.0,30,27,10.0,0.0
8547,51.0,21,27,10.0,0.0
8548,52.0,30,27,10.0,0.0
8549,40.0,0,108,5.0,0.0
8550,71.0,0,108,2.0,0.0
8551,68.0,9,108,3.0,0.0
8552,28.0,0,108,5.0,0.0
8553,64.0,0,108,4.0,0.0
8554,40.0,30,27,10.0,0.0
8555,42.0,30,27,10.0,0.0
8556,44.0,21,27,10.0,0.0
8557,45.0,30,27,10.0,0.0
8558,80.0,0,108,1.0,0.0
8559,47.0,30,27,10.0,0.0
8560,88.0,9,108,0.0,0.0
8561,48.0,30,27,10.0,0.0
8562,50.0,21,27,10.0,0.0
8563,52.0,30,27,10.0,0.0
8564,53.0,30,27,10.0,0.0
8565,40.0,0,108,5.0,0.0
8566,28.0,0,108,5.0,0.0
8567,76.0,9,108,3.0,0.0
8568,80.0,0,108,2.0,0.0
8569,71.0,0,108,4.0,0.0
8570,52.0,30,27,10.0,0.0
8571,50.0,21,27,10.0,0.0
8572,52.0,30,27,10.0,0.0
8573,54.0,30,27,10.0,0.0
8574,83.0,9,108,1.0,0.0
8575,86.0,0,108,0.0,0.0
8576,56.0,30,27,10.0,0.0
8577,57.0,21,27,10.0,0.0
8578,59.0,30,27,10.0,0.0
8579,72.0,0,108,4.0,0.0
8580,81.0,0,108,2.0,0.0
8581,39.0,0,108,5.0,0.0
8582,60.0,30,27,10.0,0.0
8583,27.0,0,108,5.0,0.0
8584,78.0,9,108,3.0,0.0
8585,57.0,30,27,10.0,0.0
8586,56.0,21,27,10.0,0.0
8587,57.0,30,27,10.0,0.0
8588,84.0,0,108,0.0,0.0
8589,51.0,30,27,10.0,0.0
8590,81.0,9,108,1.0,0.0
8591,57.0,30,27,10.0,0.0
8592,56.0,21,27,10.0,0.0
8593,57.0,30,27,10.0,0.0
8594,78.0,0,108,3.0,0.0
8595,66.0,0,108,4.0,0.0
8596,69.0,9,108,2.0,0.0
8597,27.0,0,108,5.0,0.0
8598,66.0,30,27,6.0,0.0
8599,39.0,0,108,5.0,0.0
8600,64.0,30,27,6.0,0.0
8601,63.0,21,27,6.0,0.0
8602,60.0,30,27,6.0,0.0
8603,81.0,9,108,1.0,0.0
8604,59.0,30,27,10.0,0.0
8605,84.0,0,108,0.0,0.0
8606,57.0,30,27,10.0,0.0
8607,56.0,21,27,10.0,0.0
8608,54.0,30,27,10.0,0.0
8609,40.0,9,108,5.0,0.0
8610,28.0,0,108,5.0,0.0
8611,71.0,0,108,3.0,0.0
8612,56.0,30,27,10.0,0.0
8613,68.0,0,108,4.0,0.0
8614,76.0,0,108,2.0,0.0
8615,53.0,30,27,10.0,0.0
8616,52.0,21,27,10.0,0.0
8617,53.0,30,27,10.0,0.0
8618,83.0,9,108,0.0,0.0
8619,50.0,30,27,10.0,0.0
8620,80.0,0,108,1.0,0.0
8621,53.0,30,27,10.0,0.0
8622,52.0,21,27,10.0,0.0
8623,53.0,30,27,10.0,0.0
8624,74.0,9,108,2.0,0.0
8625,59.0,0,108,4.0,0.0
8626,40.0,0,108,5.0,0.0
8627,28.0,0,108,5.0,0.0
8628,59.0,30,27,10.0,0.0
8629,68.0,0,108,3.0,0.0
8630,57.0,30,27,10.0,0.0
8631,56.0,21,27,10.0,0.0
8632,54.0,30,27,10.0,0.0
8633,80.0,0,108,1.0,0.0
8634,83.0,9,108,0.0,0.0
8635,52.0,30,27,10.0,0.0
8636,50.0,30,27,10.0,0.0
8637,48.0,21,27,10.0,0.0
8638,47.0,111,27,10.0,0.0
8639,48.0,0,108,10.0,0.0
8640,81.0,0,108,1.0,0.0
8641,64.0,0,108,3.0,0.0
8642,84.0,0,108,0.0,0.0
8643,72.0,66,108,2.0,0.0
8644,52.0,0,108,8.0,0.0
8645,57.0,0,108,8.0,0.0
8646,57.0,0,108,4.0,0.0
8647,45.0,0,108,10.0,0.0
8648,45.0,0,54,10.0,0.0
8649,33.0,60,54,5.0,0.0
8650,45.0,0,54,5.0,0.0
8651,35.0,60,54,5.0,0.0
8652,47.0,0,54,5.0,0.0
8653,47.0,0,54,10.0,0.0
8654,48.0,0,54,10.0,0.0
8655,48.0,60,54,5.0,0.0
8656,36.0,0,54,5.0,0.0
8657,52.0,0,54,10.0,0.0
8658,40.0,0,54,5.0,0.0
8659,52.0,60,54,5.0,0.0
8660,38.0,0,54,5.0,0.0
8661,80.0,0,108,0.0,0.0
8662,65.0,0,108,2.0,0.0
8663,71.0,6,108,1.0,0.0
8664,50.0,0,54,5.0,0.0
8665,50.0,54,54,10.0,0.0
8666,47.0,0,54,5.0,0.0
8667,35.0,60,54,5.0,0.0
8668,47.0,0,54,10.0,0.0
8669,36.0,54,54,5.0,0.0
8670,64.0,0,108,2.0,0.0
8671,48.0,0,54,5.0,0.0
8672,69.0,6,108,1.0,0.0
8673,48.0,0,54,10.0,0.0
8674,81.0,0,108,0.0,0.0
8675,45.0,0,54,5.0,0.0
8676,45.0,60,54,10.0,0.0
8677,33.0,0,54,5.0,0.0
8678,48.0,60,54,5.0,0.0
8679,57.0,0,54,3.0,0.0
8680,36.0,0,54,5.0,0.0
8681,57.0,0,54,4.0,0.0
8682,48.0,0,54,10.0,0.0
8683,57.0,0,54,10.0,0.0
8684,40.0,0,54,5.0,0.0
8685,52.0,0,54,5.0,0.0
8686,59.0,42,54,10.0,0.0
8687,59.0,0,54,4.0,0.0
8688,59.0,0,54,3.0,0.0
8689,52.0,0,54,10.0,0.0
8690,45.0,18,36,5.0,0.0
8691,57.0,0,36,5.0,0.0
8692,60.0,22,54,3.0,0.0
8693,60.0,0,36,10.0,0.0
8694,57.0,0,36,10.0,0.0
8695,60.0,0,54,4.0,0.0
8696,59.0,38,36,5.0,0.0
8697,47.0,0,36,5.0,0.0
8698,59.0,0,36,10.0,0.0
8699,64.0,0,54,3.0,0.0
8700,64.0,2,54,4.0,0.0
8701,48.0,0,36,5.0,0.0
8702,64.0,0,36,10.0,0.0
8703,60.0,40,36,10.0,0.0
8704,60.0,0,36,5.0,0.0
8705,62.0,0,54,3.0,0.0
8706,59.0,0,36,5.0,0.0
8707,56.0,0,108,2.0,0.0
8708,65.0,0,108,1.0,0.0
8709,62.0,22,54,4.0,0.0
8710,62.0,0,36,10.0,0.0
8711,59.0,18,36,10.0,0.0
8712,47.0,0,36,5.0,0.0
8713,74.0,6,108,0.0,0.0
8714,45.0,0,36,5.0,0.0
8715,57.0,0,36,5.0,0.0
8716,57.0,0,36,10.0,0.0
8717,59.0,2,54,3.0,0.0
8718,59.0,0,54,4.0,0.0
8719,59.0,58,36,10.0,0.0
8720,56.0,0,36,10.0,0.0
8721,44.0,0,36,5.0,0.0
8722,56.0,0,36,5.0,0.0
8723,57.0,0,108,5.0,0.0
8724,45.0,0,108,5.0,0.0
8725,60.0,54,54,3.0,0.0
8726,60.0,0,54,2.0,0.0
8727,72.0,6,108,0.0,0.0
8728,60.0,0,54,10.0,0.0
8729,64.0,0,108,1.0,0.0
8730,60.0,0,54,4.0,0.0
8731,57.0,0,48,10.0,0.0
8732,64.0,0,54,2.0,0.0
8733,57.0,60,54,4.0,0.0
8734,57.0,0,54,3.0,0.0
8735,45.0,6,108,5.0,0.0
8736,60.0,54,54,4.0,0.0
8737,69.0,0,54,6.0,0.0
8738,33.0,0,108,5.0,0.0
8739,69.0,0,54,2.0,0.0
8740,60.0,0,54,10.0,0.0
8741,69.0,0,54,1.0,0.0
8742,60.0,0,54,3.0,0.0
8743,64.0,0,54,4.0,0.0
8744,64.0,42,54,10.0,0.0
8745,71.0,0,54,6.0,0.0
8746,64.0,0,54,3.0,0.0
8747,71.0,0,54,1.0,0.0
8748,71.0,0,54,2.0,0.0
8749,72.0,22,54,1.0,0.0
8750,69.0,0,36,4.0,0.0
8751,69.0,18,36,3.0,0.0
8752,45.0,0,108,5.0,0.0
8753,33.0,6,108,5.0,0.0
8754,72.0,0,54,2.0,0.0
8755,69.0,0,36,6.0,0.0
8756,72.0,0,36,6.0,0.0
8757,71.0,0,36,3.0,0.0
8758,71.0,0,36,6.0,0.0
8759,71.0,0,36,4.0,0.0
8760,76.0,0,54,2.0,0.0
8761,76.0,2,54,1.0,0.0
8762,72.0,0,36,3.0,0.0
8763,72.0,0,36,6.0,0.0
8764,76.0,40,36,6.0,0.0
8765,72.0,0,36,4.0,0.0
8766,71.0,18,36,4.0,0.0
8767,71.0,0,36,6.0,0.0
8768,74.0,0,36,6.0,0.0
8769,33.0,0,108,5.0,0.0
8770,71.0,0,36,3.0,0.0
8771,74.0,0,54,1.0,0.0
8772,74.0,22,54,2.0,0.0
8773,77.0,6,108,0.0,0.0
8774,45.0,0,108,5.0,0.0
8775,69.0,0,36,4.0,0.0
8776,69.0,0,36,3.0,0.0
8777,69.0,0,36,6.0,0.0
8778,71.0,2,54,1.0,0.0
8779,71.0,0,54,2.0,0.0
8780,68.0,0,36,3.0,0.0
8781,68.0,40,36,6.0,0.0
8782,71.0,0,36,6.0,0.0
8783,68.0,0,36,4.0,0.0
8784,69.0,6,108,4.0,0.0
8785,45.0,0,108,5.0,0.0
8786,72.0,18,36,2.0,0.0
8787,76.0,0,54,0.0,0.0
8788,72.0,0,54,1.0,0.0
8789,33.0,0,108,5.0,0.0
8790,72.0,22,54,6.0,0.0
8791,69.0,0,108,3.0,0.0
8792,71.0,32,36,2.0,0.0
8793,69.0,0,54,1.0,0.0
8794,69.0,0,48,6.0,0.0
8795,69.0,2,54,0.0,0.0
8796,69.0,58,36,2.0,0.0
8797,45.0,6,108,5.0,0.0
8798,72.0,54,54,6.0,0.0
8799,33.0,0,108,5.0,0.0
8800,57.0,0,54,10.0,0.0
8801,76.0,0,174,2.0,0.0
8802,57.0,0,54,3.0,0.0
8803,72.0,0,54,0.0,0.0
8804,72.0,0,54,1.0,0.0
8805,57.0,0,54,4.0,0.0
8806,59.0,0,54,4.0,0.0
8807,76.0,0,54,0.0,0.0
8808,59.0,0,54,10.0,0.0
8809,59.0,0,54,3.0,0.0
8810,76.0,42,54,1.0,0.0
8811,76.0,0,54,6.0,0.0
8812,60.0,22,54,3.0,0.0
8813,60.0,0,54,10.0,0.0
8814,81.0,18,36,0.0,0.0
8815,33.0,6,108,5.0,0.0
8816,81.0,0,36,6.0,0.0
8817,81.0,0,36,1.0,0.0
8818,45.0,0,108,5.0,0.0
8819,60.0,0,54,4.0,0.0
8820,83.0,0,36,1.0,0.0
8821,83.0,32,36,0.0,0.0
8822,83.0,0,36,6.0,0.0
8823,81.0,0,54,2.0,0.0
8824,64.0,2,54,10.0,0.0
8825,64.0,0,54,3.0,0.0
8826,64.0,0,54,4.0,0.0
8827,84.0,40,36,6.0,0.0
8828,84.0,0,36,0.0,0.0
8829,84.0,0,36,1.0,0.0
8830,62.0,22,54,3.0,0.0
8831,83.0,0,36,0.0,0.0
8832,77.0,0,54,2.0,0.0
8833,33.0,6,108,5.0,0.0
8834,62.0,0,54,4.0,0.0
8835,83.0,18,36,6.0,0.0
8836,45.0,0,108,5.0,0.0
8837,83.0,0,36,1.0,0.0
8838,62.0,0,54,10.0,0.0
8839,81.0,0,36,1.0,0.0
8840,81.0,32,36,6.0,0.0
8841,81.0,0,36,0.0,0.0
8842,59.0,0,54,10.0,0.0
8843,59.0,2,54,4.0,0.0
8844,74.0,0,54,2.0,0.0
8845,59.0,0,54,3.0,0.0
8846,80.0,40,36,1.0,0.0
8847,80.0,0,36,6.0,0.0
8848,80.0,0,36,0.0,0.0
8849,81.0,0,108,0.0,0.0
8850,33.0,0,108,5.0,0.0
8851,60.0,40,36,10.0,0.0
8852,81.0,8,108,1.0,0.0
8853,81.0,0,108,6.0,0.0
8854,60.0,0,432,3.0,0.0
8855,76.0,4,432,2.0,0.0
8856,57.0,12,1176,4.0,0.0
8857,45.0,0,108,5.0,0.0
8858,52.0,32,36,10.0,0.0
8859,54.0,40,36,10.0,0.0
8860,56.0,40,36,10.0,0.0
8861,76.0,8,108,0.0,0.0
8862,57.0,32,36,10.0,0.0
8863,59.0,40,36,10.0,0.0
8864,60.0,40,36,10.0,0.0
8865,81.0,8,108,0.0,0.0
8866,59.0,32,36,10.0,0.0
8867,57.0,40,36,10.0,0.0
8868,64.0,36,36,6.0,0.0
8869,84.0,8,108,0.0,0.0
8870,62.0,32,36,6.0,0.0
8871,60.0,40,36,6.0,0.0
8872,73.0,0,432,2.0,0.0
8873,67.0,40,36,6.0,0.0
8874,88.0,4,432,0.0,0.0
8875,67.0,0,432,3.0,0.0
8876,65.0,40,36,6.0,0.0
8877,64.0,40,36,6.0,0.0
8878,61.0,0,108,10.0,0.0
8879,70.0,40,36,6.0,0.0
8880,79.0,8,108,1.0,0.0
8881,45.0,0,108,5.0,0.0
8882,33.0,0,108,5.0,0.0
8883,57.0,0,108,10.0,0.0
8884,64.0,0,108,10.0,0.0
8885,69.0,32,36,6.0,0.0
8886,67.0,40,36,6.0,0.0
8887,76.0,0,108,1.0,0.0
8888,45.0,0,108,5.0,0.0
8889,57.0,8,108,10.0,0.0
8890,64.0,0,108,10.0,0.0
8891,61.0,0,108,10.0,0.0
8892,57.0,0,108,5.0,0.0
8893,73.0,40,36,6.0,0.0
8894,71.0,32,36,6.0,0.0
8895,69.0,40,36,6.0,0.0
8896,73.0,0,108,1.0,0.0
8897,57.0,0,108,10.0,0.0
8898,45.0,0,108,5.0,0.0
8899,76.0,36,36,6.0,0.0
8900,61.0,0,108,10.0,0.0
8901,64.0,8,108,10.0,0.0
8902,33.0,0,108,5.0,0.0
8903,74.0,32,36,6.0,0.0
8904,73.0,40,36,6.0,0.0
8905,74.0,4,432,2.0,0.0
8906,62.0,0,36,10.0,0.0
8907,65.0,28,648,3.0,0.0
8908,69.0,8,108,1.0,0.0
8909,77.0,0,36,6.0,0.0
8910,50.0,0,108,5.0,0.0
8911,38.0,0,108,5.0,0.0
8912,86.0,0,108,0.0,0.0
8913,76.0,0,36,6.0,0.0
8914,60.0,32,36,10.0,0.0
8915,74.0,0,36,6.0,0.0
8916,59.0,40,36,10.0,0.0
8917,57.0,0,36,10.0,0.0
8918,74.0,8,108,1.0,0.0
8919,72.0,40,36,6.0,0.0
8920,71.0,0,36,6.0,0.0
8921,59.0,20,36,10.0,0.0
8922,60.0,40,36,10.0,0.0
8923,69.0,0,36,6.0,0.0
8924,55.0,0,828,4.0,0.0
8925,59.0,40,36,10.0,0.0
8926,77.0,0,108,1.0,0.0
8927,67.0,8,108,6.0,0.0
8928,57.0,32,36,10.0,0.0
8929,55.0,40,36,10.0,0.0
8930,83.0,8,108,1.0,0.0
8931,62.0,36,36,10.0,0.0
8932,60.0,32,36,10.0,0.0
8933,59.0,40,36,10.0,0.0
8934,65.0,40,36,6.0,0.0
8935,86.0,4,432,1.0,0.0
8936,71.0,0,432,2.0,0.0
8937,64.0,40,36,6.0,0.0
8938,62.0,40,36,6.0,0.0
8939,55.0,0,108,10.0,0.0
8940,68.0,12,36,6.0,0.0
8941,43.0,8,108,5.0,0.0
8942,62.0,0,108,10.0,0.0
8943,59.0,0,108,10.0,0.0
8944,31.0,0,108,5.0,0.0
8945,83.0,0,36,0.0,0.0
8946,84.0,32,36,0.0,0.0
8947,67.0,0,36,6.0,0.0
8948,86.0,0,36,0.0,0.0
8949,65.0,40,36,6.0,0.0
8950,62.0,0,108,10.0,0.0
8951,59.0,0,108,10.0,0.0
8952,64.0,0,108,3.0,0.0
8953,71.0,40,36,6.0,0.0
8954,43.0,0,108,5.0,0.0
8955,79.0,0,108,0.0,0.0
8956,55.0,0,108,10.0,0.0
8957,55.0,8,108,5.0,0.0
8958,69.0,32,36,6.0,0.0
8959,67.0,40,36,6.0,0.0
8960,43.0,0,108,5.0,0.0
8961,31.0,0,108,5.0,0.0
8962,62.0,0,108,3.0,0.0
8963,55.0,8,108,10.0,0.0
8964,77.0,0,108,0.0,0.0
8965,62.0,0,108,10.0,0.0
8966,74.0,36,36,6.0,0.0
8967,59.0,0,108,10.0,0.0
8968,72.0,32,36,6.0,0.0
8969,71.0,40,36,6.0,0.0
8970,36.0,8,108,5.0,0.0
8971,76.0,0,108,0.0,0.0
8972,48.0,0,108,5.0,0.0
8973,84.0,0,108,1.0,0.0
8974,72.0,0,108,2.0,0.0
8975,64.0,0,108,3.0,0.0
8976,60.0,40,36,10.0,0.0
8977,76.0,0,36,6.0,0.0
8978,59.0,0,36,10.0,0.0
8979,74.0,32,36,6.0,0.0
8980,57.0,40,36,10.0,0.0
8981,72.0,0,36,6.0,0.0
8982,32.0,0,108,5.0,0.0
8983,71.0,40,36,6.0,0.0
8984,74.0,8,108,2.0,0.0
8985,56.0,0,36,10.0,0.0
8986,64.0,0,108,3.0,0.0
8987,59.0,0,108,4.0,0.0
8988,44.0,0,108,5.0,0.0
8989,57.0,0,36,10.0,0.0
8990,72.0,32,36,6.0,0.0
8991,59.0,0,36,10.0,0.0
8992,74.0,40,36,6.0,0.0
8993,45.0,0,108,5.0,0.0
8994,33.0,8,108,5.0,0.0
8995,76.0,0,108,2.0,0.0
8996,72.0,0,36,6.0,0.0
8997,57.0,40,36,10.0,0.0
8998,60.0,0,108,4.0,0.0
8999,69.0,0,108,3.0,0.0
9000,55.0,32,36,10.0,0.0
9001,71.0,0,36,6.0,0.0
9002,53.0,1,36,10.0,0.0
9003,69.0,0,36,6.0,0.0
9004,69.0,39,27,1.0,0.0
9005,76.0,40,36,6.0,0.0
9006,72.0,35,81,1.0,0.0
9007,52.0,0,36,10.0,0.0
9008,53.0,0,36,10.0,0.0
9009,74.0,5,36,6.0,0.0
9010,55.0,0,36,10.0,0.0
9011,72.0,1,36,6.0,0.0
9012,76.0,39,27,1.0,0.0
9013,81.0,0,36,6.0,0.0
9014,81.0,8,108,1.0,0.0
9015,53.0,40,36,10.0,0.0
9016,52.0,32,36,10.0,0.0
9017,79.0,0,36,6.0,0.0
9018,77.0,0,36,6.0,0.0
9019,50.0,40,36,10.0,0.0
9020,37.0,0,108,5.0,0.0
9021,64.0,0,108,4.0,0.0
9022,76.0,0,36,6.0,0.0
9023,69.0,8,108,3.0,0.0
9024,49.0,0,108,5.0,0.0
9025,49.0,40,36,10.0,0.0
9026,81.0,0,108,2.0,0.0
9027,77.0,32,36,6.0,0.0
9028,50.0,0,36,10.0,0.0
9029,52.0,40,36,10.0,0.0
9030,79.0,0,36,6.0,0.0
9031,50.0,0,108,5.0,0.0
9032,81.0,8,108,2.0,0.0
9033,38.0,0,108,5.0,0.0
9034,77.0,40,36,6.0,0.0
9035,65.0,0,108,4.0,0.0
9036,74.0,0,108,3.0,0.0
9037,50.0,0,36,10.0,0.0
9038,48.0,32,36,10.0,0.0
9039,76.0,0,36,6.0,0.0
9040,47.0,0,36,10.0,0.0
9041,74.0,1,36,6.0,0.0
9042,74.0,39,27,0.0,0.0
9043,77.0,27,81,0.0,0.0
9044,38.0,0,108,5.0,0.0
9045,72.0,0,108,2.0,0.0
9046,72.0,40,36,6.0,0.0
9047,26.0,8,108,5.0,0.0
9048,69.0,0,108,3.0,0.0
9049,45.0,0,36,10.0,0.0
9050,65.0,0,108,4.0,0.0
9051,74.0,5,36,6.0,0.0
9052,47.0,0,36,10.0,0.0
9053,76.0,0,36,6.0,0.0
9054,48.0,1,36,10.0,0.0
9055,81.0,39,27,0.0,0.0
9056,44.0,0,216,10.0,0.0
9057,28.0,0,108,5.0,0.0
9058,52.0,0,216,10.0,0.0
9059,86.0,8,108,0.0,0.0
9060,74.0,40,36,6.0,0.0
9061,59.0,0,108,4.0,0.0
9062,71.0,0,108,2.0,0.0
9063,40.0,0,108,5.0,0.0
9064,40.0,12,216,10.0,0.0
9065,68.0,0,108,3.0,0.0
9066,47.0,0,216,10.0,0.0
9067,76.0,32,36,6.0,0.0
9068,77.0,40,36,6.0,0.0
9069,76.0,0,36,6.0,0.0
9070,69.0,8,108,1.0,0.0
9071,84.0,40,36,0.0,0.0
9072,74.0,0,36,6.0,0.0
9073,83.0,20,36,0.0,0.0
9074,81.0,40,36,0.0,0.0
9075,72.0,0,36,6.0,0.0
9076,83.0,8,108,0.0,0.0
9077,68.0,0,108,1.0,0.0
9078,74.0,40,36,6.0,0.0
9079,72.0,32,36,6.0,0.0
9080,71.0,40,36,6.0,0.0
9081,69.0,40,36,1.0,0.0
9082,40.0,0,81,10.0,0.0
9083,52.0,27,81,10.0,0.0
9084,45.0,0,108,8.0,0.0
9085,48.0,0,108,8.0,0.0
9086,81.0,8,108,0.0,0.0
9087,72.0,0,36,6.0,0.0
9088,74.0,0,36,6.0,0.0
9089,71.0,5,36,1.0,0.0
9090,76.0,1,36,6.0,0.0
9091,72.0,0,36,1.0,0.0
9092,40.0,0,27,10.0,0.0
9093,52.0,39,27,10.0,0.0
9094,59.0,8,108,4.0,0.0
9095,40.0,0,108,5.0,0.0
9096,44.0,12,216,8.0,0.0
9097,68.0,0,108,3.0,0.0
9098,74.0,0,108,2.0,0.0
9099,28.0,0,108,5.0,0.0
9100,80.0,0,108,0.0,0.0
9101,47.0,0,216,10.0,0.0
9102,74.0,40,36,6.0,0.0
9103,52.0,0,216,10.0,0.0
9104,71.0,0,108,1.0,0.0
9105,40.0,0,216,10.0,0.0
9106,72.0,32,36,6.0,0.0
9107,71.0,40,36,6.0,0.0
9108,72.0,40,36,6.0,0.0
9109,75.0,8,108,1.0,0.0
9110,81.0,0,36,0.0,0.0
9111,71.0,0,36,6.0,0.0
9112,80.0,20,36,0.0,0.0
9113,69.0,40,36,6.0,0.0
9114,78.0,0,36,0.0,0.0
9115,76.0,8,108,1.0,0.0
9116,80.0,0,108,0.0,0.0
9117,71.0,40,36,6.0,0.0
9118,72.0,32,36,6.0,0.0
9119,74.0,40,36,6.0,0.0
9120,72.0,40,36,6.0,0.0
9121,52.0,0,81,10.0,0.0
9122,45.0,8,108,8.0,0.0
9123,48.0,0,108,8.0,0.0
9124,40.0,27,81,10.0,0.0
9125,75.0,0,108,0.0,0.0
9126,69.0,0,36,1.0,0.0
9127,71.0,0,36,6.0,0.0
9128,68.0,5,36,1.0,0.0
9129,69.0,0,36,6.0,0.0
9130,66.0,1,36,1.0,0.0
9131,40.0,0,27,10.0,0.0
9132,52.0,39,27,10.0,0.0
9133,68.0,0,108,3.0,0.0
9134,71.0,0,108,2.0,0.0
9135,64.0,0,108,4.0,0.0
9136,28.0,8,108,5.0,0.0
9137,40.0,0,108,5.0,0.0
9138,40.0,12,216,10.0,0.0
9139,68.0,0,108,1.0,0.0
9140,44.0,0,216,10.0,0.0
9141,52.0,0,216,10.0,0.0
9142,76.0,0,108,0.0,0.0
9143,47.0,0,216,10.0,0.0
9144,71.0,40,36,6.0,0.0
9145,69.0,32,36,6.0,0.0
9146,68.0,40,36,6.0,0.0
9147,69.0,40,36,6.0,0.0
9148,78.0,0,36,0.0,0.0
9149,75.0,8,108,1.0,0.0
9150,80.0,20,36,0.0,0.0
9151,71.0,0,36,6.0,0.0
9152,81.0,0,36,0.0,0.0
9153,72.0,40,36,6.0,0.0
9154,76.0,0,108,1.0,0.0
9155,80.0,8,108,0.0,0.0
9156,71.0,40,36,6.0,0.0
9157,69.0,32,36,6.0,0.0
9158,68.0,40,36,6.0,0.0
9159,40.0,27,81,10.0,0.0
9160,45.0,8,108,8.0,0.0
9161,52.0,0,81,10.0,0.0
9162,69.0,0,36,6.0,0.0
9163,48.0,0,108,8.0,0.0
9164,66.0,40,36,1.0,0.0
9165,84.0,0,108,0.0,0.0
9166,64.0,5,36,1.0,0.0
9167,68.0,0,36,6.0,0.0
9168,66.0,0,36,6.0,0.0
9169,63.0,1,36,1.0,0.0
9170,40.0,39,27,10.0,0.0
9171,52.0,0,27,10.0,0.0
9172,83.0,0,108,0.0,0.0
9173,40.0,0,108,5.0,0.0
9174,40.0,0,216,10.0,0.0
9175,28.0,0,108,5.0,0.0
9176,68.0,0,108,2.0,0.0
9177,52.0,0,216,10.0,0.0
9178,47.0,12,216,10.0,0.0
9179,68.0,40,36,6.0,0.0
9180,59.0,0,108,4.0,0.0
9181,64.0,0,108,1.0,0.0
9182,64.0,8,108,3.0,0.0
9183,69.0,32,36,6.0,0.0
9184,71.0,40,36,6.0,0.0
9185,69.0,40,36,6.0,0.0
9186,60.0,8,108,1.0,0.0
9187,87.0,0,108,0.0,0.0
9188,68.0,20,36,6.0,0.0
9189,66.0,40,36,6.0,0.0
9190,88.0,8,108,0.0,0.0
9191,59.0,0,108,1.0,0.0
9192,68.0,40,36,6.0,0.0
9193,66.0,32,36,6.0,0.0
9194,64.0,80,36,6.0,0.0
9195,74.0,35,81,6.0,0.0
9196,56.0,5,36,10.0,0.0
9197,57.0,1,36,10.0,0.0
9198,74.0,39,27,6.0,0.0
9199,64.0,0,108,2.0,0.0
9200,74.0,0,216,6.0,0.0
9201,40.0,0,108,5.0,0.0
9202,59.0,40,36,10.0,0.0
9203,28.0,8,108,5.0,0.0
9204,71.0,12,216,6.0,0.0
9205,59.0,0,108,3.0,0.0
9206,68.0,0,216,6.0,0.0
9207,56.0,0,108,4.0,0.0
9208,60.0,32,36,10.0,0.0
9209,62.0,40,36,10.0,0.0
9210,76.0,8,108,0.0,0.0
9211,60.0,40,36,10.0,0.0
9212,59.0,20,36,10.0,0.0
9213,57.0,40,36,10.0,0.0
9214,59.0,40,36,10.0,0.0
9215,80.0,8,108,0.0,0.0
9216,57.0,32,36,10.0,0.0
9217,56.0,40,36,10.0,0.0
9218,64.0,27,81,6.0,0.0
9219,74.0,0,81,6.0,0.0
9220,71.0,0,81,6.0,0.0
9221,64.0,0,108,2.0,0.0
9222,59.0,8,108,3.0,0.0
9223,57.0,40,36,10.0,0.0
9224,64.0,0,108,4.0,0.0
9225,83.0,0,108,0.0,0.0
9226,52.0,0,108,5.0,0.0
9227,40.0,0,108,5.0,0.0
9228,59.0,5,36,10.0,0.0
9229,60.0,1,36,10.0,0.0
9230,64.0,0,27,6.0,0.0
9231,74.0,0,27,6.0,0.0
9232,71.0,39,27,6.0,0.0
9233,86.0,0,1068,0.0,0.0
9234,59.0,40,36,10.0,0.0
9235,68.0,12,216,6.0,0.0
9236,64.0,0,216,6.0,0.0
9237,35.0,0,108,5.0,0.0
9238,68.0,0,108,2.0,0.0
9239,47.0,8,108,5.0,0.0
9240,64.0,0,108,3.0,0.0
9241,71.0,0,216,6.0,0.0
9242,74.0,0,216,6.0,0.0
9243,59.0,0,108,4.0,0.0
9244,57.0,32,36,10.0,0.0
9245,56.0,40,36,10.0,0.0
9246,57.0,40,36,10.0,0.0
9247,71.0,8,108,1.0,0.0
9248,56.0,20,36,10.0,0.0
9249,54.0,40,36,10.0,0.0
9250,74.0,8,108,1.0,0.0
9251,56.0,40,36,10.0,0.0
9252,57.0,32,36,10.0,0.0
9253,59.0,40,36,10.0,0.0
9254,74.0,0,81,6.0,0.0
9255,38.0,8,108,5.0,0.0
9256,62.0,0,108,4.0,0.0
9257,77.0,0,108,1.0,0.0
9258,71.0,0,108,2.0,0.0
9259,50.0,0,108,5.0,0.0
9260,71.0,0,108,3.0,0.0
9261,57.0,40,36,10.0,0.0
9262,71.0,0,81,6.0,0.0
9263,65.0,27,81,6.0,0.0
9264,56.0,5,36,10.0,0.0
9265,54.0,1,36,10.0,0.0
9266,62.0,39,27,6.0,0.0
9267,74.0,0,27,6.0,0.0
9268,71.0,0,27,6.0,0.0
9269,59.0,0,108,4.0,0.0
9270,76.0,0,108,2.0,0.0
9271,83.0,0,588,1.0,0.0
9272,64.0,8,108,6.0,0.0
9273,56.0,40,36,10.0,0.0
9274,71.0,0,108,7.0,0.0
9275,74.0,0,108,6.0,0.0
9276,71.0,0,108,3.0,0.0
9277,32.0,0,108,5.0,0.0
9278,44.0,0,108,5.0,0.0
9279,54.0,32,36,10.0,0.0
9280,52.0,40,36,10.0,0.0
9281,71.0,40,36,6.0,0.0
9282,50.0,0,36,10.0,0.0
9283,52.0,40,36,10.0,0.0
9284,69.0,0,36,6.0,0.0
9285,53.0,40,36,10.0,0.0
9286,68.0,0,36,6.0,0.0
9287,74.0,0,36,6.0,0.0
9288,47.0,40,36,10.0,0.0
9289,72.0,40,36,6.0,0.0
9290,48.0,0,36,10.0,0.0
9291,71.0,40,36,6.0,0.0
9292,50.0,0,36,10.0,0.0
9293,77.0,8,108,3.0,0.0
9294,47.0,0,108,5.0,0.0
9295,35.0,0,108,5.0,0.0
9296,44.0,40,36,10.0,0.0
9297,77.0,0,36,6.0,0.0
9298,56.0,0,108,4.0,0.0
9299,71.0,0,108,2.0,0.0
9300,76.0,32,36,6.0,0.0
9301,45.0,0,36,10.0,0.0
9302,74.0,0,36,6.0,0.0
9303,47.0,40,36,10.0,0.0
9304,24.0,0,108,5.0,0.0
9305,83.0,40,36,6.0,0.0
9306,76.0,0,108,3.0,0.0
9307,36.0,0,108,5.0,0.0
9308,60.0,0,108,4.0,0.0
9309,36.0,18,81,10.0,0.0
9310,64.0,1,108,2.0,0.0
9311,81.0,5,36,6.0,0.0
9312,80.0,3,36,6.0,0.0
9313,48.0,9,9,10.0,0.0
9314,50.0,7,9,10.0,0.0
9315,52.0,37,9,10.0,0.0
9316,53.0,40,36,10.0,0.0
9317,69.0,0,81,2.0,0.0
9318,84.0,35,81,0.0,0.0
9319,81.0,0,81,1.0,0.0
9320,41.0,0,81,5.0,0.0
9321,53.0,0,81,5.0,0.0
9322,81.0,0,81,6.0,0.0
9323,52.0,5,36,10.0,0.0
9324,50.0,1,36,10.0,0.0
9325,77.0,0,27,1.0,0.0
9326,50.0,0,27,5.0,0.0
9327,74.0,39,27,2.0,0.0
9328,38.0,0,27,5.0,0.0
9329,83.0,0,27,0.0,0.0
9330,74.0,0,27,6.0,0.0
9331,81.0,0,108,0.0,0.0
9332,72.0,8,108,2.0,0.0
9333,72.0,0,108,6.0,0.0
9334,52.0,0,108,5.0,0.0
9335,40.0,0,108,5.0,0.0
9336,76.0,0,108,1.0,0.0
9337,52.0,40,36,10.0,0.0
9338,50.0,32,36,10.0,0.0
9339,48.0,40,36,10.0,0.0
9340,50.0,40,36,10.0,0.0
9341,80.0,0,81,0.0,0.0
9342,64.0,0,108,3.0,0.0
9343,50.0,0,81,5.0,0.0
9344,68.0,0,108,4.0,0.0
9345,38.0,0,81,5.0,0.0
9346,71.0,27,81,6.0,0.0
9347,71.0,0,108,2.0,0.0
9348,80.0,8,108,1.0,0.0
9349,48.0,5,36,10.0,0.0
9350,47.0,1,36,10.0,0.0
9351,83.0,0,27,0.0,0.0
9352,69.0,39,27,6.0,0.0
9353,35.0,0,27,5.0,0.0
9354,47.0,0,27,5.0,0.0
9355,69.0,40,36,6.0,0.0
9356,37.0,0,108,5.0,0.0
9357,69.0,0,108,2.0,0.0
9358,81.0,0,108,1.0,0.0
9359,61.0,8,108,4.0,0.0
9360,49.0,0,108,5.0,0.0
9361,49.0,20,216,10.0,0.0
9362,64.0,0,108,3.0,0.0
9363,81.0,0,108,0.0,0.0
9364,67.0,32,36,6.0,0.0
9365,69.0,40,36,6.0,0.0
9366,70.0,0,36,6.0,0.0
9367,79.0,40,36,0.0,0.0
9368,81.0,20,36,0.0,0.0
9369,69.0,0,36,6.0,0.0
9370,67.0,80,36,6.0,0.0
9371,82.0,0,36,0.0,0.0
9372,76.0,8,108,0.0,0.0
9373,49.0,0,36,10.0,0.0
9374,67.0,32,36,6.0,0.0
9375,50.0,0,36,10.0,0.0
9376,65.0,40,36,6.0,0.0
9377,33.0,0,108,5.0,0.0
9378,52.0,0,36,10.0,0.0
9379,67.0,40,36,6.0,0.0
9380,45.0,0,108,5.0,0.0
9381,64.0,8,108,4.0,0.0
9382,61.0,0,108,3.0,0.0
9383,73.0,0,36,1.0,0.0
9384,67.0,0,108,2.0,0.0
9385,50.0,0,36,10.0,0.0
9386,74.0,32,36,1.0,0.0
9387,65.0,0,36,6.0,0.0
9388,49.0,0,36,10.0,0.0
9389,64.0,0,36,6.0,0.0
9390,76.0,40,36,1.0,0.0
9391,50.0,40,36,10.0,0.0
9392,65.0,0,108,2.0,0.0
9393,74.0,0,108,1.0,0.0
9394,57.0,8,108,3.0,0.0
9395,38.0,0,108,5.0,0.0
9396,65.0,0,108,4.0,0.0
9397,50.0,0,108,5.0,0.0
9398,65.0,0,36,6.0,0.0
9399,67.0,0,36,6.0,0.0
9400,52.0,32,36,10.0,0.0
9401,53.0,40,36,10.0,0.0
9402,69.0,0,36,6.0,0.0
9403,52.0,0,36,10.0,0.0
9404,73.0,0,36,0.0,0.0
9405,67.0,40,36,6.0,0.0
9406,65.0,0,36,6.0,0.0
9407,74.0,0,36,0.0,0.0
9408,50.0,40,36,10.0,0.0
9409,76.0,0,36,0.0,0.0
9410,64.0,0,36,6.0,0.0
9411,49.0,40,36,10.0,0.0
9412,50.0,40,36,10.0,0.0
9413,69.0,8,108,0.0,0.0
9414,65.0,0,36,6.0,0.0
9415,64.0,32,36,6.0,0.0
9416,48.0,0,36,10.0,0.0
9417,62.0,0,36,6.0,0.0
9418,47.0,40,36,10.0,0.0
9419,81.0,40,36,1.0,0.0
9420,57.0,0,108,3.0,0.0
9421,48.0,8,108,5.0,0.0
9422,69.0,0,108,4.0,0.0
9423,64.0,0,108,2.0,0.0
9424,36.0,0,108,5.0,0.0
9425,64.0,0,36,6.0,0.0
9426,48.0,0,36,10.0,0.0
9427,62.0,32,36,6.0,0.0
9428,47.0,0,36,10.0,0.0
9429,83.0,0,36,1.0,0.0
9430,45.0,0,36,10.0,0.0
9431,60.0,40,36,6.0,0.0
9432,84.0,0,36,1.0,0.0
9433,62.0,8,108,2.0,0.0
9434,83.0,0,2028,1.0,0.0
9435,44.0,0,108,5.0,0.0
9436,53.0,40,36,10.0,0.0
9437,65.0,12,1824,4.0,0.0
9438,74.0,0,2028,0.0,0.0
9439,59.0,0,108,3.0,0.0
9440,62.0,0,36,6.0,0.0
9441,32.0,0,108,5.0,0.0
9442,52.0,0,36,10.0,0.0
9443,64.0,32,36,6.0,0.0
9444,65.0,0,36,6.0,0.0
9445,50.0,40,36,10.0,0.0
9446,47.0,40,36,10.0,0.0
9447,68.0,0,36,6.0,0.0
9448,65.0,40,36,6.0,0.0
9449,50.0,0,36,10.0,0.0
9450,52.0,0,36,10.0,0.0
9451,64.0,40,36,6.0,0.0
9452,53.0,40,36,10.0,0.0
9453,53.0,0,108,5.0,0.0
9454,62.0,0,36,6.0,0.0
9455,41.0,8,108,5.0,0.0
9456,52.0,32,36,10.0,0.0
9457,64.0,0,36,6.0,0.0
9458,50.0,0,36,10.0,0.0
9459,65.0,40,36,6.0,0.0
9460,45.0,0,36,10.0,0.0
9461,69.0,40,36,6.0,0.0
9462,50.0,0,36,10.0,0.0
9463,71.0,0,36,2.0,0.0
9464,65.0,0,36,6.0,0.0
9465,68.0,40,36,3.0,0.0
9466,69.0,0,36,3.0,0.0
9467,52.0,0,36,10.0,0.0
9468,72.0,0,36,2.0,0.0
9469,64.0,40,36,6.0,0.0
9470,38.0,0,108,5.0,0.0
9471,71.0,0,108,3.0,0.0
9472,74.0,8,108,2.0,0.0
9473,50.0,0,108,5.0,0.0
9474,53.0,40,36,10.0,0.0
9475,62.0,0,36,6.0,0.0
9476,52.0,0,36,10.0,0.0
9477,64.0,32,36,6.0,0.0
9478,50.0,40,36,10.0,0.0
9479,65.0,0,36,6.0,0.0
9480,71.0,0,36,6.0,0.0
9481,44.0,40,36,10.0,0.0
9482,50.0,40,36,10.0,0.0
9483,65.0,0,36,6.0,0.0
9484,64.0,40,36,6.0,0.0
9485,52.0,0,36,10.0,0.0
9486,35.0,0,108,5.0,0.0
9487,53.0,0,36,10.0,0.0
9488,47.0,8,108,5.0,0.0
9489,62.0,40,36,6.0,0.0
9490,64.0,0,36,6.0,0.0
9491,52.0,32,36,10.0,0.0
9492,65.0,0,36,6.0,0.0
9493,50.0,40,36,10.0,0.0
9494,74.0,0,36,6.0,0.0
9495,40.0,40,36,10.0,0.0
9496,62.0,0,36,6.0,0.0
9497,71.0,0,36,3.0,0.0
9498,53.0,0,36,10.0,0.0
9499,68.0,40,36,2.0,0.0
9500,72.0,0,36,3.0,0.0
9501,69.0,0,36,2.0,0.0
9502,52.0,40,36,10.0,0.0
9503,64.0,0,36,6.0,0.0
9504,44.0,0,108,5.0,0.0
9505,65.0,0,36,6.0,0.0
9506,74.0,0,108,3.0,0.0
9507,50.0,40,36,10.0,0.0
9508,32.0,0,108,5.0,0.0
9509,71.0,8,108,2.0,0.0
9510,52.0,0,36,10.0,0.0
9511,64.0,32,36,6.0,0.0
9512,62.0,0,36,6.0,0.0
9513,53.0,40,36,10.0,0.0
9514,47.0,0,36,10.0,0.0
9515,68.0,40,36,6.0,0.0
9516,53.0,0,36,10.0,0.0
9517,62.0,40,36,6.0,0.0
9518,52.0,0,36,10.0,0.0
9519,64.0,40,36,6.0,0.0
9520,50.0,40,36,10.0,0.0
9521,65.0,0,36,6.0,0.0
9522,50.0,0,108,5.0,0.0
9523,38.0,8,108,5.0,0.0
9524,52.0,32,36,10.0,0.0
9525,64.0,0,36,6.0,0.0
9526,62.0,40,36,6.0,0.0
9527,53.0,0,36,10.0,0.0
9528,69.0,40,36,6.0,0.0
9529,45.0,0,36,10.0,0.0
9530,53.0,0,36,10.0,0.0
9531,59.0,40,36,2.0,0.0
9532,62.0,0,36,6.0,0.0
9533,56.0,0,36,3.0,0.0
9534,57.0,40,36,3.0,0.0
9535,52.0,0,36,10.0,0.0
9536,60.0,0,36,2.0,0.0
9537,64.0,0,36,6.0,0.0
9538,62.0,8,108,2.0,0.0
9539,47.0,0,108,5.0,0.0
9540,59.0,0,108,3.0,0.0
9541,50.0,40,36,10.0,0.0
9542,65.0,0,36,6.0,0.0
9543,35.0,0,108,5.0,0.0
9544,64.0,0,36,6.0,0.0
9545,53.0,32,36,10.0,0.0
9546,62.0,40,36,6.0,0.0
9547,52.0,0,36,10.0,0.0
9548,44.0,0,36,10.0,0.0
9549,71.0,40,36,6.0,0.0
9550,62.0,40,36,6.0,0.0
9551,53.0,0,36,10.0,0.0
9552,52.0,0,36,10.0,0.0
9553,64.0,40,36,6.0,0.0
9554,32.0,0,108,5.0,0.0
9555,65.0,40,36,6.0,0.0
9556,50.0,0,36,10.0,0.0
9557,44.0,8,108,5.0,0.0
9558,64.0,32,36,6.0,0.0
9559,53.0,0,36,10.0,0.0
9560,62.0,0,36,6.0,0.0
9561,52.0,28,36,10.0,0.0
9562,47.0,40,36,10.0,0.0
9563,68.0,0,36,6.0,0.0
9564,62.0,40,36,6.0,0.0
9565,59.0,0,36,3.0,0.0
9566,56.0,0,36,2.0,0.0
9567,53.0,0,36,10.0,0.0
9568,52.0,0,36,10.0,0.0
9569,60.0,0,36,3.0,0.0
9570,57.0,40,36,2.0,0.0
9571,64.0,0,36,6.0,0.0
9572,40.0,0,108,5.0,0.0
9573,28.0,8,108,5.0,0.0
9574,56.0,0,108,4.0,0.0
9575,65.0,40,36,6.0,0.0
9576,50.0,0,36,10.0,0.0
9577,62.0,0,108,3.0,0.0
9578,59.0,0,108,2.0,0.0
9579,62.0,32,36,6.0,0.0
9580,53.0,0,36,10.0,0.0
9581,50.0,40,36,10.0,0.0
9582,65.0,0,36,6.0,0.0
9583,68.0,0,36,6.0,0.0
9584,47.0,40,36,10.0,0.0
9585,50.0,0,36,10.0,0.0
9586,71.0,40,36,6.0,0.0
9587,47.0,0,36,10.0,0.0
9588,74.0,40,36,6.0,0.0
9589,44.0,0,36,10.0,0.0
9590,71.0,40,36,6.0,0.0
9591,47.0,40,36,10.0,0.0
9592,68.0,0,36,6.0,0.0
9593,71.0,0,36,6.0,0.0
9594,44.0,40,36,10.0,0.0
9595,40.0,35,81,10.0,0.0
9596,74.0,40,36,6.0,0.0
9597,77.0,5,36,6.0,0.0
9598,80.0,1,36,6.0,0.0
9599,50.0,30,27,10.0,0.0
9600,48.0,9,108,10.0,0.0
9601,81.0,30,27,6.0,0.0
9602,79.0,30,27,6.0,0.0
9603,77.0,21,27,6.0,0.0
9604,76.0,30,27,6.0,0.0
9605,53.0,3,54,10.0,0.0
9606,74.0,27,27,6.0,0.0
9607,72.0,30,27,6.0,0.0
9608,50.0,3,54,10.0,0.0
9609,71.0,27,27,6.0,0.0
9610,69.0,30,27,6.0,0.0
9611,68.0,30,27,6.0,0.0
9612,52.0,9,108,10.0,0.0
9613,66.0,30,27,6.0,0.0
9614,64.0,21,27,6.0,0.0
9615,62.0,30,27,6.0,0.0
9616,60.0,30,27,10.0,0.0
9617,40.0,9,108,10.0,0.0
9618,59.0,30,27,10.0,0.0
9619,57.0,21,27,10.0,0.0
9620,56.0,177,27,10.0,0.0
9621,33.0,18,216,5.0,0.0
9622,45.0,0,216,5.0,0.0
9623,45.0,0,216,10.0,0.0
9624,57.0,0,216,10.0,0.0
9625,57.0,0,54,1.0,0.0
9626,57.0,42,54,2.0,0.0
9627,59.0,60,54,2.0,0.0
9628,59.0,0,54,1.0,0.0
9629,60.0,60,54,2.0,0.0
9630,60.0,0,54,1.0,0.0
9631,64.0,0,54,2.0,0.0
9632,64.0,60,54,1.0,0.0
9633,62.0,0,54,1.0,0.0
9634,62.0,60,54,2.0,0.0
9635,59.0,0,54,2.0,0.0
9636,59.0,60,54,1.0,0.0
9637,60.0,0,54,1.0,0.0
9638,60.0,60,54,2.0,0.0
9639,57.0,60,54,1.0,0.0
9640,57.0,0,54,2.0,0.0
9641,57.0,0,108,10.0,0.0
9642,57.0,0,108,5.0,0.0
9643,60.0,0,108,4.0,0.0
9644,64.0,6,108,3.0,0.0
9645,60.0,54,54,1.0,0.0
9646,60.0,0,54,2.0,0.0
9647,45.0,0,108,5.0,0.0
9648,64.0,0,54,1.0,0.0
9649,64.0,42,54,2.0,0.0
9650,48.0,8,108,5.0,0.0
9651,64.0,0,108,3.0,0.0
9652,36.0,0,108,5.0,0.0
9653,48.0,0,108,10.0,0.0
9654,57.0,0,108,4.0,0.0
9655,69.0,0,36,2.0,0.0
9656,69.0,40,36,1.0,0.0
9657,71.0,0,36,1.0,0.0
9658,71.0,32,36,2.0,0.0
9659,72.0,0,36,1.0,0.0
9660,72.0,40,36,2.0,0.0
9661,52.0,0,108,10.0,0.0
9662,64.0,0,108,4.0,0.0
9663,64.0,8,108,3.0,0.0
9664,71.0,40,36,1.0,0.0
9665,71.0,0,36,2.0,0.0
9666,52.0,0,108,5.0,0.0
9667,40.0,0,108,5.0,0.0
9668,69.0,32,36,2.0,0.0
9669,69.0,0,36,1.0,0.0
9670,68.0,58,36,1.0,0.0
9671,68.0,0,36,2.0,0.0
9672,60.0,18,216,4.0,0.0
9673,45.0,0,216,10.0,0.0
9674,64.0,0,54,3.0,0.0
9675,33.0,0,216,5.0,0.0
9676,69.0,0,54,2.0,0.0
9677,69.0,60,54,1.0,0.0
9678,45.0,0,216,5.0,0.0
9679,64.0,60,54,2.0,0.0
9680,64.0,0,54,1.0,0.0
9681,57.0,0,54,3.0,0.0
9682,69.0,0,54,1.0,0.0
9683,60.0,0,54,3.0,0.0
9684,69.0,0,54,2.0,0.0
9685,69.0,42,54,0.0,0.0
9686,71.0,0,54,2.0,0.0
9687,71.0,0,54,1.0,0.0
9688,71.0,0,54,0.0,0.0
9689,64.0,42,54,3.0,0.0
9690,69.0,18,36,3.0,0.0
9691,72.0,22,54,0.0,0.0
9692,72.0,0,54,1.0,0.0
9693,72.0,0,54,2.0,0.0
9694,71.0,38,36,3.0,0.0
9695,76.0,0,54,0.0,0.0
9696,76.0,0,54,1.0,0.0
9697,76.0,2,54,2.0,0.0
9698,72.0,40,36,3.0,0.0
9699,74.0,22,54,1.0,0.0
9700,74.0,0,54,2.0,0.0
9701,74.0,0,54,0.0,0.0
9702,71.0,18,36,3.0,0.0
9703,69.0,38,36,3.0,0.0
9704,71.0,0,54,2.0,0.0
9705,71.0,0,54,0.0,0.0
9706,71.0,2,54,1.0,0.0
9707,68.0,58,36,3.0,0.0
9708,72.0,0,54,2.0,0.0
9709,69.0,6,108,3.0,0.0
9710,72.0,54,54,1.0,0.0
9711,72.0,0,54,0.0,0.0
9712,69.0,0,54,2.0,0.0
9713,69.0,0,54,0.0,0.0
9714,69.0,60,54,1.0,0.0
9715,72.0,54,54,0.0,0.0
9716,72.0,0,54,2.0,0.0
9717,69.0,6,108,3.0,0.0
9718,57.0,0,54,5.0,0.0
9719,64.0,0,108,4.0,0.0
9720,57.0,0,54,10.0,0.0
9721,72.0,0,54,1.0,0.0
9722,45.0,0,54,5.0,0.0
9723,59.0,0,54,5.0,0.0
9724,47.0,42,54,5.0,0.0
9725,59.0,0,54,10.0,0.0
9726,76.0,0,54,1.0,0.0
9727,76.0,0,54,0.0,0.0
9728,76.0,0,54,2.0,0.0
9729,76.0,0,108,3.0,0.0
9730,60.0,22,54,5.0,0.0
9731,81.0,0,36,1.0,0.0
9732,60.0,0,54,10.0,0.0
9733,81.0,18,36,2.0,0.0
9734,81.0,0,36,0.0,0.0
9735,64.0,6,108,4.0,0.0
9736,48.0,0,54,5.0,0.0
9737,83.0,0,36,1.0,0.0
9738,83.0,0,36,0.0,0.0
9739,83.0,32,36,2.0,0.0
9740,52.0,0,54,5.0,0.0
9741,64.0,2,54,5.0,0.0
9742,64.0,0,54,10.0,0.0
9743,84.0,0,36,0.0,0.0
9744,84.0,0,36,1.0,0.0
9745,84.0,40,36,2.0,0.0
9746,50.0,0,54,5.0,0.0
9747,71.0,0,108,4.0,0.0
9748,62.0,0,54,10.0,0.0
9749,83.0,0,36,1.0,0.0
9750,76.0,6,108,3.0,0.0
9751,62.0,22,54,5.0,0.0
9752,83.0,0,36,2.0,0.0
9753,83.0,18,36,0.0,0.0
9754,81.0,0,36,0.0,0.0
9755,81.0,0,36,2.0,0.0
9756,81.0,32,36,1.0,0.0
9757,47.0,2,54,5.0,0.0
9758,59.0,0,54,10.0,0.0
9759,59.0,0,54,5.0,0.0
9760,80.0,0,36,0.0,0.0
9761,80.0,40,36,2.0,0.0
9762,80.0,0,36,1.0,0.0
9763,81.0,0,36,0.0,0.0
9764,60.0,0,36,5.0,0.0
9765,81.0,0,36,2.0,0.0
9766,81.0,40,36,1.0,0.0
9767,64.0,0,108,4.0,0.0
9768,60.0,0,36,10.0,0.0
9769,76.0,8,108,3.0,0.0
9770,48.0,0,36,5.0,0.0
9771,76.0,0,36,2.0,0.0
9772,47.0,0,36,5.0,0.0
9773,59.0,0,36,10.0,0.0
9774,59.0,32,36,5.0,0.0
9775,76.0,0,36,1.0,0.0
9776,76.0,0,36,0.0,0.0
9777,76.0,40,36,1.0,0.0
9778,76.0,0,36,0.0,0.0
9779,57.0,0,36,5.0,0.0
9780,76.0,0,36,2.0,0.0
9781,45.0,0,36,5.0,0.0
9782,57.0,0,36,10.0,0.0
9783,69.0,0,108,4.0,0.0
9784,72.0,8,108,3.0,0.0
9785,77.0,0,36,2.0,0.0
9786,77.0,40,36,1.0,0.0
9787,77.0,0,36,0.0,0.0
9788,75.0,0,36,0.0,0.0
9789,75.0,0,36,2.0,0.0
9790,75.0,32,36,1.0,0.0
9791,76.0,0,36,0.0,0.0
9792,76.0,40,36,2.0,0.0
9793,76.0,0,36,1.0,0.0
9794,77.0,0,36,1.0,0.0
9795,68.0,0,108,4.0,0.0
9796,77.0,40,36,2.0,0.0
9797,71.0,8,108,3.0,0.0
9798,77.0,0,36,0.0,0.0
9799,75.0,0,36,1.0,0.0
9800,75.0,32,36,0.0,0.0
9801,75.0,0,36,2.0,0.0
9802,76.0,40,36,2.0,0.0
9803,76.0,0,36,0.0,0.0
9804,76.0,0,36,1.0,0.0
9805,77.0,0,36,2.0,0.0
9806,77.0,40,36,1.0,0.0
9807,72.0,8,108,3.0,0.0
9808,77.0,0,36,0.0,0.0
9809,69.0,0,108,4.0,0.0
9810,75.0,32,36,0.0,0.0
9811,75.0,0,36,1.0,0.0
9812,75.0,0,36,2.0,0.0
9813,76.0,0,36,2.0,0.0
9814,76.0,0,36,0.0,0.0
9815,76.0,40,36,1.0,0.0
9816,68.0,0,36,0.0,0.0
9817,68.0,40,36,2.0,0.0
9818,71.0,0,108,3.0,0.0
9819,64.0,8,108,4.0,0.0
9820,68.0,0,36,1.0,0.0
9821,69.0,0,36,2.0,0.0
9822,69.0,32,36,1.0,0.0
9823,69.0,0,36,0.0,0.0
9824,71.0,0,36,2.0,0.0
9825,71.0,40,36,0.0,0.0
9826,71.0,0,36,1.0,0.0
9827,60.0,0,108,5.0,0.0
9828,60.0,0,108,10.0,0.0
9829,69.0,0,36,1.0,0.0
9830,69.0,40,36,0.0,0.0
9831,64.0,0,108,4.0,0.0
9832,64.0,0,108,3.0,0.0
9833,48.0,8,108,5.0,0.0
9834,69.0,0,36,2.0,0.0
9835,71.0,0,36,0.0,0.0
9836,71.0,0,36,1.0,0.0
9837,71.0,32,36,2.0,0.0
9838,72.0,0,36,0.0,0.0
9839,72.0,0,36,1.0,0.0
9840,72.0,40,36,2.0,0.0
9841,64.0,0,108,3.0,0.0
9842,71.0,0,36,0.0,0.0
9843,71.0,0,36,1.0,0.0
9844,56.0,0,108,10.0,0.0
9845,59.0,0,108,4.0,0.0
9846,56.0,8,108,5.0,0.0
9847,44.0,0,108,5.0,0.0
9848,71.0,40,36,2.0,0.0
9849,76.0,32,36,0.0,0.0
9850,76.0,0,36,1.0,0.0
9851,76.0,0,36,2.0,0.0
9852,74.0,0,36,0.0,0.0
9853,74.0,0,36,1.0,0.0
9854,74.0,40,36,2.0,0.0
9855,72.0,40,36,1.0,0.0
9856,72.0,0,36,2.0,0.0
9857,57.0,8,108,5.0,0.0
9858,57.0,0,108,4.0,0.0
9859,64.0,0,108,3.0,0.0
9860,72.0,0,36,0.0,0.0
9861,57.0,0,108,10.0,0.0
9862,45.0,0,108,5.0,0.0
9863,71.0,32,36,2.0,0.0
9864,71.0,0,36,0.0,0.0
9865,71.0,0,36,1.0,0.0
9866,69.0,0,36,2.0,0.0
9867,69.0,0,36,0.0,0.0
9868,69.0,40,36,1.0,0.0
9869,68.0,0,36,1.0,0.0
9870,64.0,0,108,3.0,0.0
9871,52.0,8,108,10.0,0.0
9872,59.0,0,108,4.0,0.0
9873,40.0,0,108,5.0,0.0
9874,68.0,40,36,2.0,0.0
9875,52.0,0,108,5.0,0.0
9876,68.0,0,108,0.0,0.0
9877,64.0,32,36,1.0,0.0
9878,64.0,0,36,2.0,0.0
9879,64.0,40,36,1.0,0.0
9880,64.0,0,36,2.0,0.0
9881,57.0,8,108,4.0,0.0
9882,65.0,0,36,1.0,0.0
9883,60.0,0,108,3.0,0.0
9884,65.0,40,36,2.0,0.0
9885,63.0,0,36,1.0,0.0
9886,63.0,32,36,2.0,0.0
9887,64.0,40,36,2.0,0.0
9888,64.0,0,36,1.0,0.0
9889,56.0,8,108,4.0,0.0
9890,65.0,40,36,2.0,0.0
9891,59.0,0,108,3.0,0.0
9892,65.0,0,36,1.0,0.0
9893,63.0,0,36,2.0,0.0
9894,63.0,32,36,1.0,0.0
9895,64.0,0,36,1.0,0.0
9896,64.0,40,36,2.0,0.0
9897,60.0,8,108,3.0,0.0
9898,65.0,0,36,1.0,0.0
9899,57.0,0,108,4.0,0.0
9900,65.0,40,36,2.0,0.0
9901,63.0,0,36,1.0,0.0
9902,63.0,32,36,2.0,0.0
9903,64.0,40,36,2.0,0.0
9904,64.0,0,36,1.0,0.0
9905,56.0,0,36,2.0,0.0
9906,56.0,40,36,1.0,0.0
9907,59.0,8,108,3.0,0.0
9908,52.0,0,108,4.0,0.0
9909,57.0,0,36,2.0,0.0
9910,57.0,32,36,1.0,0.0
9911,59.0,0,36,1.0,0.0
9912,59.0,40,36,2.0,0.0
9913,57.0,40,36,2.0,0.0
9914,57.0,0,36,1.0,0.0
9915,48.0,0,108,5.0,0.0
9916,52.0,0,108,4.0,0.0
9917,64.0,0,108,3.0,0.0
9918,36.0,8,108,5.0,0.0
9919,48.0,0,108,10.0,0.0
9920,59.0,32,36,1.0,0.0
9921,59.0,0,36,2.0,0.0
9922,60.0,40,36,1.0,0.0
9923,60.0,0,36,2.0,0.0
9924,59.0,40,36,2.0,0.0
9925,59.0,0,36,1.0,0.0
9926,32.0,0,108,5.0,0.0
9927,64.0,0,108,3.0,0.0
9928,59.0,8,108,4.0,0.0
9929,44.0,0,108,10.0,0.0
9930,44.0,0,108,5.0,0.0
9931,64.0,0,36,2.0,0.0
9932,64.0,32,36,1.0,0.0
9933,62.0,40,36,1.0,0.0
9934,62.0,0,36,2.0,0.0
9935,33.0,8,108,5.0,0.0
9936,45.0,0,108,10.0,0.0
9937,60.0,0,36,1.0,0.0
9938,57.0,0,108,4.0,0.0
9939,60.0,40,36,2.0,0.0
9940,64.0,0,108,3.0,0.0
9941,45.0,0,108,5.0,0.0
9942,59.0,32,36,2.0,0.0
9943,59.0,0,36,1.0,0.0
9944,57.0,0,36,1.0,0.0
9945,57.0,40,36,2.0,0.0
9946,59.0,0,108,4.0,0.0
9947,56.0,40,36,1.0,0.0
9948,64.0,0,108,3.0,0.0
9949,28.0,0,108,5.0,0.0
9950,40.0,0,108,5.0,0.0
9951,40.0,8,108,10.0,0.0
9952,56.0,0,36,2.0,0.0
9953,76.0,0,36,0.0,0.0
9954,76.0,32,36,2.0,0.0
9955,76.0,0,36,1.0,0.0
9956,77.0,40,36,0.0,0.0
9957,77.0,0,36,1.0,0.0
9958,77.0,0,36,2.0,0.0
9959,64.0,0,81,10.0,0.0
9960,64.0,0,108,4.0,0.0
9961,64.0,0,81,5.0,0.0
9962,79.0,0,36,2.0,0.0
9963,71.0,8,108,3.0,0.0
9964,52.0,27,81,5.0,0.0
9965,79.0,40,36,1.0,0.0
9966,79.0,0,36,0.0,0.0
9967,77.0,0,36,0.0,0.0
9968,77.0,5,36,2.0,0.0
9969,77.0,0,36,1.0,0.0
9970,79.0,0,36,2.0,0.0
9971,79.0,1,36,1.0,0.0
9972,79.0,0,36,0.0,0.0
9973,62.0,39,27,10.0,0.0
9974,50.0,0,27,5.0,0.0
9975,62.0,0,27,5.0,0.0
9976,61.0,0,108,10.0,0.0
9977,69.0,0,36,2.0,0.0
9978,69.0,40,36,1.0,0.0
9979,69.0,0,36,0.0,0.0
9980,49.0,0,108,5.0,0.0
9981,64.0,0,108,4.0,0.0
9982,69.0,0,108,3.0,0.0
9983,61.0,8,108,5.0,0.0
9984,76.0,32,36,1.0,0.0
9985,76.0,0,36,0.0,0.0
9986,76.0,0,36,2.0,0.0
9987,77.0,0,36,0.0,0.0
9988,77.0,0,36,2.0,0.0
9989,77.0,40,36,1.0,0.0
9990,79.0,0,36,0.0,0.0
9991,45.0,8,108,5.0,0.0
9992,57.0,0,108,10.0,0.0
9993,57.0,0,108,5.0,0.0
9994,79.0,0,36,1.0,0.0
9995,73.0,0,108,3.0,0.0
9996,69.0,0,108,4.0,0.0
9997,79.0,40,36,2.0,0.0
9998,77.0,0,36,0.0,0.0
9999,77.0,0,36,1.0,0.0
10000,77.0,32,36,2.0,0.0
10001,76.0,0,36,2.0,0.0
10002,76.0,0,36,0.0,0.0
10003,76.0,40,36,1.0,0.0
10004,77.0,40,36,0.0,0.0
10005,77.0,0,36,2.0,0.0
10006,69.0,0,108,4.0,0.0
10007,50.0,0,108,10.0,0.0
10008,77.0,0,36,1.0,0.0
10009,38.0,8,108,5.0,0.0
10010,50.0,0,108,5.0,0.0
10011,74.0,0,108,3.0,0.0
10012,74.0,0,36,0.0,0.0
10013,74.0,32,36,2.0,0.0
10014,74.0,0,36,1.0,0.0
10015,76.0,0,36,1.0,0.0
10016,76.0,0,36,2.0,0.0
10017,76.0,40,36,0.0,0.0
10018,62.0,0,81,5.0,0.0
10019,77.0,0,36,2.0,0.0
10020,62.0,0,81,10.0,0.0
10021,62.0,8,108,4.0,0.0
10022,69.0,0,108,3.0,0.0
10023,50.0,27,81,5.0,0.0
10024,77.0,40,36,1.0,0.0
10025,77.0,0,36,0.0,0.0
10026,76.0,0,36,1.0,0.0
10027,76.0,0,36,0.0,0.0
10028,76.0,5,36,2.0,0.0
10029,77.0,0,36,0.0,0.0
10030,77.0,1,36,2.0,0.0
10031,77.0,0,36,1.0,0.0
10032,60.0,0,27,10.0,0.0
10033,48.0,0,27,5.0,0.0
10034,60.0,39,27,5.0,0.0
10035,59.0,0,108,10.0,0.0
10036,67.0,40,36,1.0,0.0
10037,47.0,8,108,5.0,0.0
10038,74.0,0,108,3.0,0.0
10039,62.0,0,108,4.0,0.0
10040,67.0,0,36,2.0,0.0
10041,59.0,0,108,5.0,0.0
10042,67.0,0,36,0.0,0.0
10043,74.0,32,36,0.0,0.0
10044,74.0,0,36,2.0,0.0
10045,74.0,0,36,1.0,0.0
10046,76.0,0,36,1.0,0.0
10047,76.0,40,36,0.0,0.0
10048,76.0,0,36,2.0,0.0
10049,77.0,0,36,0.0,0.0
10050,55.0,0,108,5.0,0.0
10051,43.0,0,108,5.0,0.0
10052,71.0,0,108,3.0,0.0
10053,55.0,8,108,10.0,0.0
10054,77.0,0,36,1.0,0.0
10055,67.0,0,108,4.0,0.0
10056,77.0,40,36,2.0,0.0
10057,76.0,0,36,2.0,0.0
10058,76.0,0,36,0.0,0.0
10059,76.0,32,36,1.0,0.0
10060,74.0,40,36,0.0,0.0
10061,74.0,0,36,2.0,0.0
10062,74.0,0,36,1.0,0.0
10063,76.0,0,108,1.0,0.0
10064,76.0,8,108,0.0,0.0
10065,76.0,0,108,2.0,0.0
10066,72.0,0,108,3.0,0.0
10067,48.0,40,36,5.0,0.0
10068,60.0,0,36,5.0,0.0
10069,67.0,0,108,4.0,0.0
10070,60.0,0,36,10.0,0.0
10071,59.0,0,36,10.0,0.0
10072,47.0,32,36,5.0,0.0
10073,59.0,0,36,5.0,0.0
10074,57.0,40,36,5.0,0.0
10075,45.0,0,36,5.0,0.0
10076,57.0,0,36,10.0,0.0
10077,69.0,0,108,4.0,0.0
10078,72.0,27,81,0.0,0.0
10079,45.0,0,36,5.0,0.0
10080,57.0,0,36,5.0,0.0
10081,57.0,40,36,10.0,0.0
10082,76.0,8,108,3.0,0.0
10083,72.0,0,81,2.0,0.0
10084,72.0,0,81,1.0,0.0
10085,55.0,5,36,5.0,0.0
10086,43.0,0,36,5.0,0.0
10087,55.0,0,36,10.0,0.0
10088,42.0,1,36,5.0,0.0
10089,54.0,0,36,10.0,0.0
10090,54.0,0,36,5.0,0.0
10091,76.0,0,27,0.0,0.0
10092,76.0,39,27,2.0,0.0
10093,76.0,0,27,1.0,0.0
10094,69.0,0,81,1.0,0.0
10095,54.0,0,36,5.0,0.0
10096,42.0,40,36,5.0,0.0
10097,76.0,0,108,3.0,0.0
10098,60.0,8,108,4.0,0.0
10099,69.0,0,81,2.0,0.0
10100,54.0,0,36,10.0,0.0
10101,69.0,27,81,0.0,0.0
10102,55.0,0,36,5.0,0.0
10103,43.0,0,36,5.0,0.0
10104,55.0,5,36,10.0,0.0
10105,57.0,0,36,5.0,0.0
10106,45.0,1,36,5.0,0.0
10107,57.0,0,36,10.0,0.0
10108,76.0,0,27,1.0,0.0
10109,76.0,0,27,2.0,0.0
10110,76.0,39,27,0.0,0.0
10111,45.0,0,36,5.0,0.0
10112,66.0,0,81,1.0,0.0
10113,57.0,0,36,10.0,0.0
10114,66.0,27,81,0.0,0.0
10115,60.0,0,108,4.0,0.0
10116,66.0,0,81,2.0,0.0
10117,57.0,40,36,5.0,0.0
10118,69.0,8,108,3.0,0.0
10119,59.0,0,36,10.0,0.0
10120,59.0,0,36,5.0,0.0
10121,47.0,5,36,5.0,0.0
10122,60.0,0,36,10.0,0.0
10123,48.0,1,36,5.0,0.0
10124,60.0,0,36,5.0,0.0
10125,76.0,39,27,0.0,0.0
10126,76.0,0,27,1.0,0.0
10127,76.0,0,27,2.0,0.0
10128,69.0,8,108,3.0,0.0
10129,62.0,0,108,4.0,0.0
10130,74.0,0,36,0.0,0.0
10131,74.0,0,36,2.0,0.0
10132,59.0,0,36,5.0,0.0
10133,47.0,0,36,5.0,0.0
10134,59.0,0,36,10.0,0.0
10135,74.0,40,36,1.0,0.0
10136,45.0,0,36,5.0,0.0
10137,72.0,0,36,2.0,0.0
10138,72.0,0,36,0.0,0.0
10139,57.0,32,36,10.0,0.0
10140,72.0,0,36,1.0,0.0
10141,57.0,0,36,5.0,0.0
10142,56.0,0,36,5.0,0.0
10143,44.0,0,36,5.0,0.0
10144,74.0,0,36,2.0,0.0
10145,56.0,0,36,10.0,0.0
10146,74.0,0,36,1.0,0.0
10147,74.0,40,36,0.0,0.0
10148,64.0,0,108,4.0,0.0
10149,71.0,0,81,0.0,0.0
10150,71.0,27,81,2.0,0.0
10151,71.0,0,81,1.0,0.0
10152,74.0,8,108,3.0,0.0
10153,56.0,0,36,5.0,0.0
10154,56.0,0,36,10.0,0.0
10155,44.0,40,36,5.0,0.0
10156,54.0,0,36,10.0,0.0
10157,54.0,0,36,5.0,0.0
10158,42.0,5,36,5.0,0.0
10159,52.0,1,36,10.0,0.0
10160,52.0,0,36,5.0,0.0
10161,40.0,0,36,5.0,0.0
10162,74.0,0,27,1.0,0.0
10163,74.0,0,27,2.0,0.0
10164,74.0,39,27,0.0,0.0
10165,59.0,8,108,4.0,0.0
10166,52.0,40,36,10.0,0.0
10167,52.0,0,36,5.0,0.0
10168,68.0,0,81,2.0,0.0
10169,40.0,0,36,5.0,0.0
10170,74.0,0,108,3.0,0.0
10171,68.0,0,81,0.0,0.0
10172,68.0,27,81,1.0,0.0
10173,54.0,0,36,10.0,0.0
10174,42.0,0,36,5.0,0.0
10175,54.0,5,36,5.0,0.0
10176,56.0,0,36,10.0,0.0
10177,44.0,0,36,5.0,0.0
10178,56.0,1,36,5.0,0.0
10179,74.0,0,27,2.0,0.0
10180,74.0,39,27,1.0,0.0
10181,74.0,0,27,0.0,0.0
10182,56.0,0,36,5.0,0.0
10183,64.0,0,81,0.0,0.0
10184,64.0,27,81,1.0,0.0
10185,64.0,0,81,2.0,0.0
10186,56.0,0,36,10.0,0.0
10187,59.0,0,108,4.0,0.0
10188,44.0,40,36,5.0,0.0
10189,71.0,8,108,3.0,0.0
10190,57.0,0,36,10.0,0.0
10191,45.0,0,36,5.0,0.0
10192,57.0,5,36,5.0,0.0
10193,59.0,0,36,10.0,0.0
10194,59.0,1,36,5.0,0.0
10195,47.0,0,36,5.0,0.0
10196,74.0,0,27,1.0,0.0
10197,74.0,0,27,0.0,0.0
10198,74.0,39,27,2.0,0.0
10199,72.0,0,36,1.0,0.0
10200,60.0,0,108,4.0,0.0
10201,57.0,0,108,10.0,0.0
10202,72.0,40,36,2.0,0.0
10203,45.0,8,108,5.0,0.0
10204,72.0,0,36,0.0,0.0
10205,57.0,0,108,5.0,0.0
10206,64.0,0,108,3.0,0.0
10207,71.0,0,36,2.0,0.0
10208,71.0,0,36,0.0,0.0
10209,71.0,32,36,1.0,0.0
10210,69.0,0,36,2.0,0.0
10211,69.0,40,36,1.0,0.0
10212,69.0,0,36,0.0,0.0
10213,50.0,0,108,10.0,0.0
10214,62.0,0,108,3.0,0.0
10215,69.0,0,108,4.0,0.0
10216,50.0,8,108,5.0,0.0
10217,77.0,40,36,2.0,0.0
10218,77.0,0,36,1.0,0.0
10219,77.0,0,36,0.0,0.0
10220,38.0,0,108,5.0,0.0
10221,76.0,0,36,1.0,0.0
10222,76.0,32,36,0.0,0.0
10223,76.0,0,36,2.0,0.0
10224,74.0,0,36,0.0,0.0
10225,74.0,0,36,1.0,0.0
10226,74.0,40,36,2.0,0.0
10227,50.0,0,108,5.0,0.0
10228,50.0,0,108,10.0,0.0
10229,38.0,0,108,5.0,0.0
10230,72.0,40,36,2.0,0.0
10231,72.0,0,36,0.0,0.0
10232,72.0,0,36,1.0,0.0
10233,65.0,0,108,4.0,0.0
10234,69.0,8,108,3.0,0.0
10235,71.0,0,36,0.0,0.0
10236,71.0,32,36,1.0,0.0
10237,71.0,0,36,2.0,0.0
10238,69.0,40,36,2.0,0.0
10239,69.0,0,36,0.0,0.0
10240,69.0,0,36,1.0,0.0
10241,68.0,40,36,1.0,0.0
10242,50.0,8,108,10.0,0.0
10243,62.0,0,108,4.0,0.0
10244,68.0,0,36,0.0,0.0
10245,38.0,0,108,5.0,0.0
10246,68.0,0,36,2.0,0.0
10247,50.0,0,108,5.0,0.0
10248,65.0,0,108,3.0,0.0
10249,69.0,0,36,0.0,0.0
10250,69.0,32,36,1.0,0.0
10251,69.0,0,36,2.0,0.0
10252,71.0,0,36,0.0,0.0
10253,71.0,0,36,1.0,0.0
10254,71.0,40,36,2.0,0.0
10255,64.0,34,162,2.0,0.0
10256,59.0,40,36,3.0,0.0
10257,26.0,0,108,5.0,0.0
10258,64.0,0,162,1.0,0.0
10259,38.0,8,108,10.0,0.0
10260,38.0,0,108,5.0,0.0
10261,64.0,0,162,0.0,0.0
10262,56.0,0,36,4.0,0.0
10263,60.0,32,36,3.0,0.0
10264,57.0,0,36,4.0,0.0
10265,59.0,0,36,4.0,0.0
10266,62.0,40,36,3.0,0.0
10267,59.0,0,36,3.0,0.0
10268,56.0,6,36,4.0,0.0
10269,50.0,0,108,10.0,0.0
10270,50.0,8,108,5.0,0.0
10271,38.0,0,108,5.0,0.0
10272,60.0,0,36,3.0,0.0
10273,57.0,11,36,4.0,0.0
10274,66.0,21,27,2.0,0.0
10275,66.0,0,27,0.0,0.0
10276,66.0,0,27,1.0,0.0
10277,62.0,1,36,3.0,0.0
10278,59.0,0,36,4.0,0.0
10279,68.0,0,27,2.0,0.0
10280,68.0,0,27,0.0,0.0
10281,68.0,39,27,1.0,0.0
10282,48.0,0,108,10.0,0.0
10283,57.0,0,108,4.0,0.0
10284,69.0,40,36,0.0,0.0
10285,48.0,8,108,5.0,0.0
10286,69.0,0,36,2.0,0.0
10287,64.0,0,108,3.0,0.0
10288,36.0,0,108,5.0,0.0
10289,69.0,0,36,1.0,0.0
10290,71.0,0,36,1.0,0.0
10291,71.0,0,36,0.0,0.0
10292,71.0,32,36,2.0,0.0
10293,72.0,0,36,2.0,0.0
10294,72.0,40,36,0.0,0.0
10295,72.0,0,36,1.0,0.0
10296,74.0,0,36,2.0,0.0
10297,74.0,0,36,1.0,0.0
10298,68.0,8,108,3.0,0.0
10299,35.0,0,108,5.0,0.0
10300,59.0,0,108,4.0,0.0
10301,74.0,40,36,0.0,0.0
10302,47.0,0,108,10.0,0.0
10303,47.0,0,108,5.0,0.0
10304,76.0,0,36,0.0,0.0
10305,76.0,0,36,2.0,0.0
10306,76.0,32,36,1.0,0.0
10307,77.0,40,36,2.0,0.0
10308,77.0,0,36,1.0,0.0
10309,77.0,0,36,0.0,0.0
10310,48.0,0,108,5.0,0.0
10311,69.0,0,108,3.0,0.0
10312,76.0,0,36,1.0,0.0
10313,36.0,0,108,5.0,0.0
10314,76.0,40,36,2.0,0.0
10315,64.0,0,108,4.0,0.0
10316,76.0,0,36,0.0,0.0
10317,48.0,8,108,10.0,0.0
10318,74.0,0,36,1.0,0.0
10319,74.0,0,36,0.0,0.0
10320,74.0,32,36,2.0,0.0
10321,72.0,0,36,1.0,0.0
10322,72.0,40,36,0.0,0.0
10323,72.0,0,36,2.0,0.0
10324,71.0,0,36,2.0,0.0
10325,50.0,0,108,5.0,0.0
10326,71.0,0,36,0.0,0.0
10327,50.0,0,108,10.0,0.0
10328,71.0,40,36,1.0,0.0
10329,65.0,0,108,4.0,0.0
10330,71.0,8,108,3.0,0.0
10331,38.0,0,108,5.0,0.0
10332,72.0,0,36,0.0,0.0
10333,72.0,0,36,1.0,0.0
10334,72.0,32,36,2.0,0.0
10335,69.0,85,36,1.0,0.0
10336,69.0,0,36,0.0,0.0
10337,69.0,0,36,2.0,0.0
10338,52.0,0,108,10.0,0.0
10339,64.0,27,81,0.0,0.0
10340,64.0,0,81,2.0,0.0
10341,64.0,9,108,4.0,0.0
10342,40.0,0,108,5.0,0.0
10343,64.0,0,81,1.0,0.0
10344,52.0,0,108,5.0,0.0
10345,72.0,0,108,3.0,0.0
10346,69.0,0,27,2.0,0.0
10347,69.0,84,27,1.0,0.0
10348,69.0,0,27,0.0,0.0
10349,62.0,0,108,4.0,0.0
10350,28.0,9,108,5.0,0.0
10351,40.0,0,108,5.0,0.0
10352,40.0,0,108,10.0,0.0
10353,71.0,0,108,3.0,0.0
10354,71.0,27,81,0.0,0.0
10355,71.0,0,81,1.0,0.0
10356,71.0,0,81,2.0,0.0
10357,68.0,0,27,0.0,0.0
10358,68.0,84,27,1.0,0.0
10359,68.0,0,27,2.0,0.0
10360,69.0,0,81,2.0,0.0
10361,69.0,0,108,0.0,0.0
10362,41.0,9,108,10.0,0.0
10363,41.0,0,108,5.0,0.0
10364,69.0,27,81,1.0,0.0
10365,60.0,0,108,4.0,0.0
10366,29.0,0,108,5.0,0.0
10367,69.0,0,108,3.0,0.0
10368,57.0,39,27,1.0,0.0
10369,57.0,0,27,2.0,0.0
10370,38.0,0,108,5.0,0.0
10371,53.0,0,108,4.0,0.0
10372,38.0,0,108,10.0,0.0
10373,57.0,0,108,3.0,0.0
10374,65.0,40,36,1.0,0.0
10375,65.0,0,36,2.0,0.0
10376,26.0,8,108,5.0,0.0
10377,64.0,0,36,2.0,0.0
10378,64.0,32,36,1.0,0.0
10379,62.0,112,36,2.0,0.0
10380,62.0,0,36,1.0,0.0
10381,28.0,0,108,5.0,0.0
10382,40.0,0,108,10.0,0.0
10383,60.0,9,108,1.0,0.0
10384,57.0,0,108,3.0,0.0
10385,60.0,0,108,2.0,0.0
10386,40.0,0,108,5.0,0.0
10387,52.0,0,108,4.0,0.0
10388,76.0,84,27,0.0,0.0
10389,28.0,0,108,5.0,0.0
10390,59.0,9,108,1.0,0.0
10391,40.0,0,108,10.0,0.0
10392,52.0,0,108,4.0,0.0
10393,40.0,0,108,5.0,0.0
10394,56.0,0,108,3.0,0.0
10395,64.0,27,81,0.0,0.0
10396,59.0,0,108,2.0,0.0
10397,68.0,219,27,0.0,0.0
10398,57.0,0,216,2.0,0.0
10399,69.0,0,216,0.0,0.0
10400,33.0,0,216,5.0,0.0
10401,57.0,0,216,3.0,0.0
10402,45.0,0,216,10.0,0.0
10403,45.0,0,216,5.0,0.0
10404,52.0,0,216,4.0,0.0
10405,57.0,0,216,1.0,0.0
