,note,step,duration,channel,velocity
0,66.0,0,224,1.0,0.0
1,66.0,360,224,0.0,0.0
2,71.0,120,584,0.0,0.0
3,71.0,0,584,1.0,0.0
4,59.0,15,104,4.0,0.0
5,62.0,0,104,3.0,0.0
6,74.0,0,119,5.0,0.0
7,66.0,0,224,2.0,0.0
8,59.0,0,119,5.0,0.0
9,71.0,0,119,5.0,0.0
10,78.0,105,119,5.0,0.0
11,61.0,0,104,4.0,0.0
12,76.0,105,119,5.0,0.0
13,79.0,0,119,5.0,0.0
14,61.0,0,119,5.0,0.0
15,73.0,0,119,5.0,0.0
16,64.0,15,104,3.0,0.0
17,62.0,0,224,4.0,0.0
18,66.0,15,224,3.0,0.0
19,62.0,0,239,5.0,0.0
20,78.0,0,239,5.0,0.0
21,71.0,15,704,2.0,0.0
22,74.0,105,239,5.0,0.0
23,83.0,0,239,5.0,0.0
24,73.0,0,104,1.0,0.0
25,73.0,0,104,0.0,0.0
26,74.0,0,104,1.0,0.0
27,73.0,0,239,5.0,0.0
28,76.0,0,239,5.0,0.0
29,74.0,120,104,0.0,0.0
30,82.0,225,239,5.0,0.0
31,61.0,0,224,4.0,0.0
32,64.0,0,224,3.0,0.0
33,61.0,0,239,5.0,0.0
34,76.0,15,104,1.0,0.0
35,76.0,0,104,0.0,0.0
36,71.0,225,239,5.0,0.0
37,78.0,0,224,0.0,0.0
38,78.0,0,239,5.0,0.0
39,59.0,0,239,5.0,0.0
40,78.0,0,224,1.0,0.0
41,74.0,0,239,5.0,0.0
42,62.0,0,224,3.0,0.0
43,59.0,0,224,4.0,0.0
44,73.0,0,239,5.0,0.0
45,61.0,0,239,5.0,0.0
46,82.0,0,239,5.0,0.0
47,76.0,225,239,5.0,0.0
48,70.0,0,224,1.0,0.0
49,79.0,0,224,2.0,0.0
50,61.0,0,224,4.0,0.0
51,70.0,0,224,0.0,0.0
52,64.0,15,224,3.0,0.0
53,82.0,0,239,5.0,0.0
54,62.0,0,239,5.0,0.0
55,74.0,225,239,5.0,0.0
56,78.0,0,239,5.0,0.0
57,62.0,0,224,4.0,0.0
58,71.0,0,224,0.0,0.0
59,78.0,0,224,2.0,0.0
60,66.0,0,704,3.0,0.0
61,71.0,15,224,1.0,0.0
62,76.0,0,224,1.0,0.0
63,61.0,0,239,5.0,0.0
64,73.0,0,239,5.0,0.0
65,70.0,0,224,2.0,0.0
66,76.0,0,224,0.0,0.0
67,82.0,225,239,5.0,0.0
68,61.0,15,224,4.0,0.0
69,76.0,0,239,5.0,0.0
70,74.0,15,224,0.0,0.0
71,59.0,0,224,4.0,0.0
72,59.0,225,239,5.0,0.0
73,71.0,0,239,5.0,0.0
74,71.0,0,224,2.0,0.0
75,74.0,0,224,1.0,0.0
76,74.0,0,239,5.0,0.0
77,78.0,0,239,5.0,0.0
78,79.0,0,224,1.0,0.0
79,61.0,0,224,4.0,0.0
80,82.0,0,239,5.0,0.0
81,61.0,0,239,5.0,0.0
82,76.0,0,239,5.0,0.0
83,73.0,225,239,5.0,0.0
84,64.0,15,224,2.0,0.0
85,70.0,0,224,3.0,0.0
86,79.0,0,224,0.0,0.0
87,74.0,0,239,5.0,0.0
88,62.0,225,239,5.0,0.0
89,82.0,0,239,5.0,0.0
90,71.0,0,224,3.0,0.0
91,78.0,0,224,1.0,0.0
92,62.0,0,224,4.0,0.0
93,62.0,15,224,2.0,0.0
94,78.0,0,239,5.0,0.0
95,78.0,0,224,0.0,0.0
96,76.0,0,224,2.0,0.0
97,82.0,0,224,1.0,0.0
98,61.0,15,224,4.0,0.0
99,82.0,0,224,0.0,0.0
100,73.0,0,224,3.0,0.0
101,61.0,0,239,5.0,0.0
102,76.0,0,239,5.0,0.0
103,82.0,0,239,5.0,0.0
104,73.0,225,239,5.0,0.0
105,59.0,105,239,5.0,0.0
106,66.0,0,224,3.0,0.0
107,59.0,15,224,4.0,0.0
108,74.0,0,224,2.0,0.0
109,78.0,0,239,5.0,0.0
110,71.0,0,239,5.0,0.0
111,74.0,0,239,5.0,0.0
112,83.0,0,224,0.0,0.0
113,83.0,0,224,1.0,0.0
114,61.0,0,239,5.0,0.0
115,73.0,105,239,5.0,0.0
116,76.0,0,239,5.0,0.0
117,82.0,0,239,5.0,0.0
118,76.0,0,224,2.0,0.0
119,81.0,120,104,0.0,0.0
120,81.0,0,104,1.0,0.0
121,61.0,0,224,4.0,0.0
122,64.0,15,224,3.0,0.0
123,79.0,0,104,0.0,0.0
124,79.0,0,104,1.0,0.0
125,82.0,0,239,5.0,0.0
126,78.0,0,239,5.0,0.0
127,74.0,0,239,5.0,0.0
128,78.0,0,104,0.0,0.0
129,62.0,105,239,5.0,0.0
130,78.0,0,224,2.0,0.0
131,62.0,0,224,3.0,0.0
132,78.0,120,104,1.0,0.0
133,62.0,0,224,4.0,0.0
134,79.0,0,104,0.0,0.0
135,79.0,15,104,1.0,0.0
136,64.0,15,224,3.0,0.0
137,76.0,0,104,1.0,0.0
138,70.0,0,224,2.0,0.0
139,61.0,0,224,4.0,0.0
140,76.0,0,239,5.0,0.0
141,73.0,0,239,5.0,0.0
142,61.0,0,239,5.0,0.0
143,82.0,105,239,5.0,0.0
144,76.0,120,104,0.0,0.0
145,78.0,0,104,0.0,0.0
146,78.0,0,104,1.0,0.0
147,71.0,0,224,2.0,0.0
148,59.0,15,224,4.0,0.0
149,71.0,105,239,5.0,0.0
150,74.0,0,104,1.0,0.0
151,78.0,0,239,5.0,0.0
152,59.0,0,239,5.0,0.0
153,74.0,120,104,0.0,0.0
154,74.0,0,239,5.0,0.0
155,66.0,0,224,3.0,0.0
156,76.0,0,104,1.0,0.0
157,76.0,0,104,0.0,0.0
158,82.0,0,239,5.0,0.0
159,76.0,0,239,5.0,0.0
160,61.0,0,224,4.0,0.0
161,73.0,0,104,1.0,0.0
162,70.0,0,224,2.0,0.0
163,61.0,105,239,5.0,0.0
164,73.0,120,104,0.0,0.0
165,64.0,15,224,3.0,0.0
166,73.0,0,239,5.0,0.0
167,74.0,0,104,1.0,0.0
168,74.0,0,104,0.0,0.0
169,71.0,0,104,1.0,0.0
170,71.0,15,224,2.0,0.0
171,62.0,0,239,5.0,0.0
172,74.0,105,239,5.0,0.0
173,71.0,120,104,0.0,0.0
174,62.0,0,224,4.0,0.0
175,78.0,0,239,5.0,0.0
176,83.0,0,239,5.0,0.0
177,66.0,120,584,3.0,0.0
178,73.0,0,104,0.0,0.0
179,73.0,0,104,1.0,0.0
180,69.0,120,104,1.0,0.0
181,61.0,0,239,5.0,0.0
182,78.0,0,239,5.0,0.0
183,69.0,0,104,0.0,0.0
184,82.0,105,239,5.0,0.0
185,61.0,0,224,4.0,0.0
186,74.0,0,239,5.0,0.0
187,73.0,0,239,5.0,0.0
188,73.0,0,224,2.0,0.0
189,71.0,0,104,0.0,0.0
190,71.0,15,104,1.0,0.0
191,67.0,0,224,1.0,0.0
192,59.0,105,239,5.0,0.0
193,74.0,0,224,2.0,0.0
194,78.0,0,239,5.0,0.0
195,67.0,15,224,0.0,0.0
196,71.0,0,239,5.0,0.0
197,59.0,0,224,4.0,0.0
198,79.0,0,239,5.0,0.0
199,74.0,0,239,5.0,0.0
200,67.0,0,104,3.0,0.0
201,64.0,120,104,3.0,0.0
202,69.0,120,344,2.0,0.0
203,61.0,0,224,4.0,0.0
204,76.0,0,239,5.0,0.0
205,79.0,0,239,5.0,0.0
206,61.0,105,239,5.0,0.0
207,73.0,0,239,5.0,0.0
208,76.0,0,224,1.0,0.0
209,81.0,0,239,5.0,0.0
210,76.0,0,224,0.0,0.0
211,66.0,15,104,3.0,0.0
212,66.0,15,224,0.0,0.0
213,81.0,0,239,5.0,0.0
214,74.0,105,239,5.0,0.0
215,62.0,0,239,5.0,0.0
216,62.0,0,224,4.0,0.0
217,62.0,0,224,3.0,0.0
218,66.0,0,224,1.0,0.0
219,78.0,0,239,5.0,0.0
220,67.0,0,104,2.0,0.0
221,78.0,0,239,5.0,0.0
222,69.0,0,224,1.0,0.0
223,64.0,0,224,3.0,0.0
224,69.0,15,224,0.0,0.0
225,61.0,0,224,4.0,0.0
226,73.0,225,239,5.0,0.0
227,61.0,0,239,5.0,0.0
228,74.0,0,239,5.0,0.0
229,81.0,0,239,5.0,0.0
230,66.0,120,104,2.0,0.0
231,64.0,0,104,2.0,0.0
232,66.0,0,224,3.0,0.0
233,62.0,0,224,2.0,0.0
234,74.0,0,224,1.0,0.0
235,78.0,0,239,5.0,0.0
236,59.0,0,239,5.0,0.0
237,71.0,225,239,5.0,0.0
238,74.0,0,224,0.0,0.0
239,59.0,15,224,4.0,0.0
240,74.0,0,239,5.0,0.0
241,74.0,0,239,5.0,0.0
242,55.0,0,224,4.0,0.0
243,79.0,15,224,1.0,0.0
244,79.0,0,224,0.0,0.0
245,71.0,0,239,5.0,0.0
246,67.0,30,239,5.0,0.0
247,71.0,0,224,3.0,0.0
248,74.0,0,224,2.0,0.0
249,55.0,0,239,5.0,0.0
250,78.0,0,224,1.0,0.0
251,69.0,0,239,5.0,0.0
252,74.0,0,239,5.0,0.0
253,78.0,0,239,5.0,0.0
254,57.0,0,239,5.0,0.0
255,74.0,0,224,2.0,0.0
256,57.0,15,224,4.0,0.0
257,69.0,0,224,3.0,0.0
258,78.0,30,29,0.0,0.0
259,79.0,30,29,0.0,0.0
260,78.0,30,29,0.0,0.0
261,79.0,30,29,0.0,0.0
262,78.0,30,29,0.0,0.0
263,79.0,30,29,0.0,0.0
264,76.0,15,29,0.0,0.0
265,78.0,105,29,0.0,0.0
266,64.0,0,239,5.0,0.0
267,57.0,225,239,5.0,0.0
268,67.0,0,224,3.0,0.0
269,61.0,0,239,5.0,0.0
270,45.0,0,239,5.0,0.0
271,45.0,0,224,4.0,0.0
272,76.0,0,104,0.0,0.0
273,76.0,120,104,1.0,0.0
274,73.0,0,224,2.0,0.0
275,74.0,0,104,0.0,0.0
276,74.0,15,104,1.0,0.0
277,74.0,0,704,0.0,0.0
278,69.0,0,239,5.0,0.0
279,62.0,225,239,5.0,0.0
280,74.0,15,704,1.0,0.0
281,50.0,0,239,5.0,0.0
282,66.0,0,239,5.0,0.0
283,66.0,0,719,3.0,0.0
284,50.0,15,224,4.0,0.0
285,69.0,0,719,2.0,0.0
286,57.0,225,239,5.0,0.0
287,45.0,0,239,5.0,0.0
288,64.0,0,239,5.0,0.0
289,61.0,0,239,5.0,0.0
290,45.0,15,224,4.0,0.0
291,38.0,0,239,4.0,0.0
292,57.0,225,239,5.0,0.0
293,54.0,0,239,5.0,0.0
294,50.0,0,239,5.0,0.0
295,38.0,0,239,5.0,0.0
296,66.0,0,224,0.0,0.0
297,66.0,360,224,1.0,0.0
298,71.0,120,584,0.0,0.0
299,71.0,0,584,1.0,0.0
300,59.0,0,104,4.0,0.0
301,66.0,15,224,2.0,0.0
302,59.0,105,119,5.0,0.0
303,71.0,0,119,5.0,0.0
304,78.0,0,119,5.0,0.0
305,74.0,0,119,5.0,0.0
306,62.0,15,104,3.0,0.0
307,61.0,0,119,5.0,0.0
308,61.0,0,104,4.0,0.0
309,79.0,0,119,5.0,0.0
310,73.0,105,119,5.0,0.0
311,76.0,0,119,5.0,0.0
312,64.0,0,104,3.0,0.0
313,62.0,0,224,4.0,0.0
314,66.0,0,224,3.0,0.0
315,71.0,0,704,2.0,0.0
316,83.0,105,239,5.0,0.0
317,78.0,0,239,5.0,0.0
318,74.0,0,239,5.0,0.0
319,62.0,0,239,5.0,0.0
320,73.0,0,104,0.0,0.0
321,73.0,15,104,1.0,0.0
322,73.0,0,239,5.0,0.0
323,64.0,15,224,3.0,0.0
324,61.0,0,224,4.0,0.0
325,82.0,0,239,5.0,0.0
326,76.0,0,239,5.0,0.0
327,74.0,0,104,1.0,0.0
328,74.0,120,104,0.0,0.0
329,61.0,225,239,5.0,0.0
330,76.0,0,104,0.0,0.0
331,76.0,0,104,1.0,0.0
332,59.0,0,224,4.0,0.0
333,78.0,15,224,0.0,0.0
334,78.0,0,224,1.0,0.0
335,59.0,225,239,5.0,0.0
336,78.0,0,239,5.0,0.0
337,74.0,0,239,5.0,0.0
338,71.0,0,239,5.0,0.0
339,62.0,0,224,3.0,0.0
340,70.0,15,224,1.0,0.0
341,82.0,0,239,5.0,0.0
342,76.0,0,239,5.0,0.0
343,73.0,0,239,5.0,0.0
344,61.0,225,239,5.0,0.0
345,70.0,0,224,0.0,0.0
346,79.0,0,224,2.0,0.0
347,61.0,0,224,4.0,0.0
348,64.0,0,224,3.0,0.0
349,78.0,0,239,5.0,0.0
350,66.0,15,704,3.0,0.0
351,82.0,225,239,5.0,0.0
352,71.0,0,224,0.0,0.0
353,74.0,0,239,5.0,0.0
354,71.0,0,224,1.0,0.0
355,62.0,0,239,5.0,0.0
356,62.0,0,224,4.0,0.0
357,78.0,15,224,2.0,0.0
358,82.0,0,239,5.0,0.0
359,61.0,225,239,5.0,0.0
360,73.0,0,239,5.0,0.0
361,76.0,0,239,5.0,0.0
362,76.0,0,224,0.0,0.0
363,61.0,15,224,4.0,0.0
364,76.0,0,224,1.0,0.0
365,70.0,0,224,2.0,0.0
366,59.0,0,224,4.0,0.0
367,71.0,0,224,2.0,0.0
368,59.0,0,239,5.0,0.0
369,74.0,0,224,0.0,0.0
370,74.0,0,224,1.0,0.0
371,71.0,0,239,5.0,0.0
372,78.0,225,239,5.0,0.0
373,74.0,0,239,5.0,0.0
374,79.0,0,224,1.0,0.0
375,70.0,0,224,3.0,0.0
376,61.0,0,224,4.0,0.0
377,79.0,0,224,0.0,0.0
378,82.0,0,239,5.0,0.0
379,61.0,0,239,5.0,0.0
380,64.0,15,224,2.0,0.0
381,73.0,225,239,5.0,0.0
382,76.0,0,239,5.0,0.0
383,71.0,0,224,3.0,0.0
384,62.0,0,239,5.0,0.0
385,62.0,0,224,2.0,0.0
386,78.0,225,239,5.0,0.0
387,82.0,0,239,5.0,0.0
388,78.0,0,224,1.0,0.0
389,62.0,0,224,4.0,0.0
390,78.0,15,224,0.0,0.0
391,74.0,0,239,5.0,0.0
392,73.0,0,224,3.0,0.0
393,73.0,0,239,5.0,0.0
394,61.0,0,239,5.0,0.0
395,76.0,0,239,5.0,0.0
396,82.0,0,224,0.0,0.0
397,82.0,225,239,5.0,0.0
398,76.0,0,224,2.0,0.0
399,61.0,15,224,4.0,0.0
400,82.0,0,224,1.0,0.0
401,78.0,0,239,5.0,0.0
402,59.0,0,239,5.0,0.0
403,71.0,105,239,5.0,0.0
404,74.0,0,239,5.0,0.0
405,83.0,0,224,0.0,0.0
406,83.0,0,224,1.0,0.0
407,74.0,15,224,2.0,0.0
408,59.0,0,224,4.0,0.0
409,66.0,0,224,3.0,0.0
410,76.0,0,224,2.0,0.0
411,81.0,0,104,0.0,0.0
412,64.0,0,224,3.0,0.0
413,73.0,105,239,5.0,0.0
414,61.0,0,239,5.0,0.0
415,76.0,0,239,5.0,0.0
416,81.0,120,104,1.0,0.0
417,82.0,0,239,5.0,0.0
418,61.0,0,224,4.0,0.0
419,79.0,0,104,0.0,0.0
420,79.0,15,104,1.0,0.0
421,62.0,0,239,5.0,0.0
422,78.0,15,224,2.0,0.0
423,82.0,0,239,5.0,0.0
424,74.0,0,239,5.0,0.0
425,78.0,120,104,0.0,0.0
426,62.0,0,224,3.0,0.0
427,62.0,0,224,4.0,0.0
428,78.0,0,104,1.0,0.0
429,78.0,105,239,5.0,0.0
430,79.0,0,104,0.0,0.0
431,79.0,0,104,1.0,0.0
432,64.0,0,224,3.0,0.0
433,73.0,105,239,5.0,0.0
434,82.0,0,239,5.0,0.0
435,70.0,15,224,2.0,0.0
436,76.0,0,239,5.0,0.0
437,76.0,0,104,1.0,0.0
438,61.0,0,239,5.0,0.0
439,61.0,0,224,4.0,0.0
440,76.0,120,104,0.0,0.0
441,78.0,0,104,0.0,0.0
442,78.0,0,104,1.0,0.0
443,74.0,0,104,0.0,0.0
444,74.0,120,104,1.0,0.0
445,71.0,15,224,2.0,0.0
446,66.0,0,224,3.0,0.0
447,59.0,0,239,5.0,0.0
448,74.0,0,239,5.0,0.0
449,78.0,105,239,5.0,0.0
450,71.0,0,239,5.0,0.0
451,59.0,0,224,4.0,0.0
452,76.0,0,104,0.0,0.0
453,76.0,0,104,1.0,0.0
454,61.0,0,224,4.0,0.0
455,82.0,105,239,5.0,0.0
456,73.0,0,239,5.0,0.0
457,73.0,0,104,1.0,0.0
458,76.0,0,239,5.0,0.0
459,73.0,120,104,0.0,0.0
460,64.0,0,224,3.0,0.0
461,61.0,0,239,5.0,0.0
462,70.0,0,224,2.0,0.0
463,74.0,0,104,0.0,0.0
464,74.0,15,104,1.0,0.0
465,62.0,0,239,5.0,0.0
466,74.0,0,239,5.0,0.0
467,83.0,105,239,5.0,0.0
468,78.0,0,239,5.0,0.0
469,62.0,0,224,4.0,0.0
470,66.0,120,584,3.0,0.0
471,71.0,0,104,0.0,0.0
472,71.0,0,224,2.0,0.0
473,71.0,120,104,1.0,0.0
474,73.0,0,104,0.0,0.0
475,73.0,15,104,1.0,0.0
476,61.0,0,224,4.0,0.0
477,78.0,0,239,5.0,0.0
478,73.0,105,239,5.0,0.0
479,82.0,0,239,5.0,0.0
480,61.0,0,239,5.0,0.0
481,69.0,0,104,1.0,0.0
482,73.0,0,224,2.0,0.0
483,69.0,120,104,0.0,0.0
484,74.0,0,239,5.0,0.0
485,71.0,0,104,0.0,0.0
486,71.0,15,104,1.0,0.0
487,71.0,0,239,5.0,0.0
488,74.0,0,239,5.0,0.0
489,79.0,0,239,5.0,0.0
490,78.0,105,239,5.0,0.0
491,59.0,0,239,5.0,0.0
492,74.0,0,224,2.0,0.0
493,67.0,0,224,1.0,0.0
494,59.0,0,224,4.0,0.0
495,67.0,15,224,0.0,0.0
496,67.0,0,104,3.0,0.0
497,61.0,0,224,4.0,0.0
498,76.0,0,224,0.0,0.0
499,64.0,120,104,3.0,0.0
500,73.0,0,239,5.0,0.0
501,81.0,0,239,5.0,0.0
502,69.0,120,344,2.0,0.0
503,76.0,0,239,5.0,0.0
504,79.0,0,239,5.0,0.0
505,61.0,105,239,5.0,0.0
506,76.0,15,224,1.0,0.0
507,66.0,0,104,3.0,0.0
508,66.0,0,224,0.0,0.0
509,62.0,0,224,4.0,0.0
510,62.0,0,239,5.0,0.0
511,78.0,0,239,5.0,0.0
512,74.0,0,239,5.0,0.0
513,81.0,105,239,5.0,0.0
514,62.0,0,224,3.0,0.0
515,66.0,0,224,1.0,0.0
516,67.0,15,104,2.0,0.0
517,81.0,0,239,5.0,0.0
518,61.0,225,239,5.0,0.0
519,74.0,0,239,5.0,0.0
520,78.0,0,239,5.0,0.0
521,61.0,15,224,4.0,0.0
522,66.0,120,104,2.0,0.0
523,69.0,0,224,1.0,0.0
524,69.0,0,224,0.0,0.0
525,64.0,0,224,3.0,0.0
526,73.0,0,239,5.0,0.0
527,64.0,0,104,2.0,0.0
528,66.0,0,224,3.0,0.0
529,74.0,15,224,1.0,0.0
530,59.0,0,224,4.0,0.0
531,71.0,0,239,5.0,0.0
532,59.0,0,239,5.0,0.0
533,62.0,0,224,2.0,0.0
534,78.0,0,239,5.0,0.0
535,74.0,0,224,0.0,0.0
536,74.0,225,239,5.0,0.0
537,74.0,0,224,2.0,0.0
538,55.0,15,224,4.0,0.0
539,74.0,0,239,5.0,0.0
540,71.0,0,239,5.0,0.0
541,67.0,0,239,5.0,0.0
542,71.0,0,224,3.0,0.0
543,79.0,0,224,1.0,0.0
544,79.0,0,224,0.0,0.0
545,55.0,30,239,5.0,0.0
546,69.0,0,224,3.0,0.0
547,78.0,30,29,0.0,0.0
548,78.0,0,239,5.0,0.0
549,74.0,15,224,2.0,0.0
550,74.0,0,239,5.0,0.0
551,78.0,0,224,1.0,0.0
552,69.0,105,239,5.0,0.0
553,57.0,0,224,4.0,0.0
554,57.0,0,239,5.0,0.0
555,79.0,30,29,0.0,0.0
556,78.0,30,29,0.0,0.0
557,79.0,30,29,0.0,0.0
558,78.0,30,29,0.0,0.0
559,79.0,30,29,0.0,0.0
560,76.0,15,29,0.0,0.0
561,78.0,0,29,0.0,0.0
562,67.0,0,224,3.0,0.0
563,64.0,0,239,5.0,0.0
564,61.0,225,239,5.0,0.0
565,73.0,0,224,2.0,0.0
566,57.0,0,239,5.0,0.0
567,76.0,0,104,1.0,0.0
568,76.0,120,104,0.0,0.0
569,45.0,0,239,5.0,0.0
570,45.0,0,224,4.0,0.0
571,74.0,0,104,0.0,0.0
572,74.0,15,104,1.0,0.0
573,74.0,0,704,1.0,0.0
574,74.0,15,704,0.0,0.0
575,69.0,0,719,2.0,0.0
576,66.0,225,719,3.0,0.0
577,50.0,0,239,5.0,0.0
578,69.0,0,239,5.0,0.0
579,50.0,15,224,4.0,0.0
580,66.0,225,239,5.0,0.0
581,62.0,0,239,5.0,0.0
582,45.0,15,224,4.0,0.0
583,57.0,0,239,5.0,0.0
584,45.0,0,239,5.0,0.0
585,61.0,225,239,5.0,0.0
586,64.0,0,239,5.0,0.0
587,50.0,0,239,5.0,0.0
588,38.0,0,239,4.0,0.0
589,54.0,0,239,5.0,0.0
590,38.0,0,239,5.0,0.0
591,57.0,0,239,5.0,0.0
592,69.0,360,224,1.0,0.0
593,69.0,0,224,0.0,0.0
594,74.0,120,584,1.0,0.0
595,74.0,0,584,0.0,0.0
596,50.0,0,104,4.0,0.0
597,69.0,0,119,5.0,0.0
598,66.0,0,119,5.0,0.0
599,50.0,105,119,5.0,0.0
600,62.0,0,119,5.0,0.0
601,69.0,15,224,2.0,0.0
602,66.0,15,104,3.0,0.0
603,67.0,0,119,5.0,0.0
604,52.0,0,104,4.0,0.0
605,71.0,0,119,5.0,0.0
606,64.0,0,119,5.0,0.0
607,52.0,105,119,5.0,0.0
608,67.0,0,104,3.0,0.0
609,66.0,0,239,5.0,0.0
610,74.0,0,239,5.0,0.0
611,69.0,0,239,5.0,0.0
612,54.0,105,239,5.0,0.0
613,74.0,120,584,2.0,0.0
614,54.0,0,224,4.0,0.0
615,69.0,0,224,3.0,0.0
616,76.0,15,104,0.0,0.0
617,76.0,0,104,1.0,0.0
618,64.0,0,239,5.0,0.0
619,73.0,105,239,5.0,0.0
620,67.0,0,239,5.0,0.0
621,78.0,0,104,0.0,0.0
622,67.0,0,224,3.0,0.0
623,52.0,0,239,5.0,0.0
624,52.0,0,224,4.0,0.0
625,78.0,120,104,1.0,0.0
626,79.0,15,104,1.0,0.0
627,79.0,0,104,0.0,0.0
628,50.0,0,239,5.0,0.0
629,81.0,0,104,0.0,0.0
630,62.0,105,239,5.0,0.0
631,50.0,0,224,4.0,0.0
632,69.0,0,239,5.0,0.0
633,66.0,0,224,3.0,0.0
634,81.0,0,104,1.0,0.0
635,66.0,0,239,5.0,0.0
636,79.0,0,104,0.0,0.0
637,79.0,15,104,1.0,0.0
638,71.0,0,104,2.0,0.0
639,67.0,0,239,5.0,0.0
640,73.0,0,239,5.0,0.0
641,69.0,0,104,2.0,0.0
642,52.0,0,239,5.0,0.0
643,78.0,0,104,1.0,0.0
644,64.0,105,239,5.0,0.0
645,67.0,15,224,3.0,0.0
646,78.0,120,104,0.0,0.0
647,52.0,0,224,4.0,0.0
648,76.0,0,104,0.0,0.0
649,67.0,0,104,2.0,0.0
650,76.0,0,104,1.0,0.0
651,69.0,0,239,5.0,0.0
652,74.0,0,224,0.0,0.0
653,54.0,0,224,4.0,0.0
654,66.0,120,104,2.0,0.0
655,74.0,0,224,1.0,0.0
656,74.0,105,239,5.0,0.0
657,66.0,0,239,5.0,0.0
658,54.0,0,239,5.0,0.0
659,69.0,0,104,3.0,0.0
660,67.0,15,104,3.0,0.0
661,67.0,0,104,2.0,0.0
662,52.0,15,224,4.0,0.0
663,72.0,0,239,5.0,0.0
664,52.0,225,239,5.0,0.0
665,72.0,0,224,0.0,0.0
666,69.0,0,464,2.0,0.0
667,64.0,0,239,5.0,0.0
668,67.0,0,239,5.0,0.0
669,72.0,0,224,1.0,0.0
670,66.0,120,104,3.0,0.0
671,64.0,0,104,3.0,0.0
672,66.0,15,224,3.0,0.0
673,51.0,0,224,4.0,0.0
674,63.0,0,239,5.0,0.0
675,71.0,0,224,0.0,0.0
676,71.0,225,239,5.0,0.0
677,51.0,0,239,5.0,0.0
678,69.0,0,239,5.0,0.0
679,66.0,0,239,5.0,0.0
680,71.0,0,224,1.0,0.0
681,52.0,0,224,4.0,0.0
682,67.0,0,224,2.0,0.0
683,64.0,0,239,5.0,0.0
684,52.0,0,239,5.0,0.0
685,71.0,0,239,5.0,0.0
686,76.0,0,224,1.0,0.0
687,71.0,0,224,3.0,0.0
688,76.0,15,224,0.0,0.0
689,67.0,225,239,5.0,0.0
690,54.0,0,239,5.0,0.0
691,66.0,0,224,2.0,0.0
692,54.0,15,224,4.0,0.0
693,75.0,0,224,0.0,0.0
694,75.0,0,224,1.0,0.0
695,69.0,0,239,5.0,0.0
696,66.0,0,239,5.0,0.0
697,75.0,225,239,5.0,0.0
698,69.0,0,224,3.0,0.0
699,71.0,15,464,3.0,0.0
700,81.0,0,224,0.0,0.0
701,63.0,0,239,5.0,0.0
702,69.0,0,239,5.0,0.0
703,51.0,0,239,5.0,0.0
704,66.0,0,239,5.0,0.0
705,71.0,30,239,5.0,0.0
706,51.0,15,224,4.0,0.0
707,78.0,0,224,2.0,0.0
708,81.0,0,224,1.0,0.0
709,52.0,0,239,5.0,0.0
710,76.0,0,224,2.0,0.0
711,79.0,0,224,1.0,0.0
712,67.0,0,239,5.0,0.0
713,71.0,0,239,5.0,0.0
714,64.0,0,239,5.0,0.0
715,52.0,0,224,4.0,0.0
716,79.0,30,29,0.0,0.0
717,81.0,30,29,0.0,0.0
718,79.0,30,29,0.0,0.0
719,81.0,30,29,0.0,0.0
720,79.0,30,29,0.0,0.0
721,81.0,30,29,0.0,0.0
722,78.0,15,29,0.0,0.0
723,79.0,105,29,0.0,0.0
724,69.0,0,224,3.0,0.0
725,78.0,0,104,1.0,0.0
726,75.0,0,239,5.0,0.0
727,54.0,105,239,5.0,0.0
728,66.0,0,239,5.0,0.0
729,78.0,120,104,0.0,0.0
730,69.0,0,239,5.0,0.0
731,75.0,0,224,2.0,0.0
732,54.0,0,224,4.0,0.0
733,79.0,0,104,1.0,0.0
734,79.0,15,104,0.0,0.0
735,76.0,120,104,1.0,0.0
736,55.0,0,239,5.0,0.0
737,71.0,0,104,3.0,0.0
738,76.0,0,104,0.0,0.0
739,75.0,0,239,5.0,0.0
740,67.0,0,239,5.0,0.0
741,71.0,105,239,5.0,0.0
742,76.0,0,704,2.0,0.0
743,55.0,0,224,4.0,0.0
744,71.0,15,104,1.0,0.0
745,71.0,0,104,0.0,0.0
746,69.0,0,104,3.0,0.0
747,54.0,15,224,4.0,0.0
748,69.0,0,239,5.0,0.0
749,75.0,0,239,5.0,0.0
750,67.0,120,104,3.0,0.0
751,66.0,0,239,5.0,0.0
752,54.0,105,239,5.0,0.0
753,76.0,0,104,1.0,0.0
754,76.0,0,104,0.0,0.0
755,78.0,0,104,0.0,0.0
756,78.0,0,104,1.0,0.0
757,69.0,0,104,3.0,0.0
758,52.0,0,239,5.0,0.0
759,79.0,120,104,1.0,0.0
760,79.0,0,104,0.0,0.0
761,71.0,105,239,5.0,0.0
762,67.0,0,239,5.0,0.0
763,52.0,0,224,4.0,0.0
764,71.0,0,224,3.0,0.0
765,64.0,0,239,5.0,0.0
766,81.0,15,104,0.0,0.0
767,81.0,0,104,1.0,0.0
768,66.0,0,239,5.0,0.0
769,54.0,0,239,5.0,0.0
770,70.0,0,239,5.0,0.0
771,74.0,105,239,5.0,0.0
772,54.0,0,224,4.0,0.0
773,78.0,120,104,1.0,0.0
774,78.0,0,104,0.0,0.0
775,70.0,0,224,2.0,0.0
776,62.0,0,224,3.0,0.0
777,79.0,0,104,0.0,0.0
778,79.0,15,104,1.0,0.0
779,55.0,0,239,5.0,0.0
780,76.0,0,239,5.0,0.0
781,71.0,105,239,5.0,0.0
782,67.0,0,239,5.0,0.0
783,76.0,120,104,1.0,0.0
784,55.0,15,224,4.0,0.0
785,59.0,0,224,3.0,0.0
786,71.0,120,584,2.0,0.0
787,76.0,0,104,0.0,0.0
788,78.0,0,104,1.0,0.0
789,78.0,0,104,0.0,0.0
790,74.0,120,104,1.0,0.0
791,66.0,0,239,5.0,0.0
792,74.0,0,239,5.0,0.0
793,71.0,0,239,5.0,0.0
794,74.0,0,104,0.0,0.0
795,54.0,105,239,5.0,0.0
796,66.0,0,224,3.0,0.0
797,54.0,15,224,4.0,0.0
798,76.0,0,104,0.0,0.0
799,76.0,0,104,1.0,0.0
800,73.0,15,224,0.0,0.0
801,67.0,0,224,3.0,0.0
802,64.0,0,239,5.0,0.0
803,71.0,0,239,5.0,0.0
804,52.0,0,239,5.0,0.0
805,67.0,0,239,5.0,0.0
806,52.0,0,224,4.0,0.0
807,73.0,0,224,1.0,0.0
808,73.0,105,239,5.0,0.0
809,73.0,0,104,2.0,0.0
810,54.0,0,239,5.0,0.0
811,54.0,0,224,4.0,0.0
812,82.0,0,224,1.0,0.0
813,70.0,0,239,5.0,0.0
814,73.0,105,239,5.0,0.0
815,82.0,0,224,0.0,0.0
816,66.0,0,224,3.0,0.0
817,66.0,0,239,5.0,0.0
818,74.0,120,104,2.0,0.0
819,76.0,15,104,2.0,0.0
820,83.0,0,224,1.0,0.0
821,55.0,0,224,4.0,0.0
822,59.0,15,224,3.0,0.0
823,67.0,0,239,5.0,0.0
824,83.0,0,224,0.0,0.0
825,74.0,120,104,2.0,0.0
826,74.0,0,239,5.0,0.0
827,71.0,105,239,5.0,0.0
828,55.0,0,239,5.0,0.0
829,73.0,0,104,2.0,0.0
830,54.0,0,224,4.0,0.0
831,66.0,15,224,3.0,0.0
832,54.0,0,239,5.0,0.0
833,74.0,0,239,5.0,0.0
834,71.0,0,239,5.0,0.0
835,74.0,15,464,1.0,0.0
836,74.0,0,464,0.0,0.0
837,71.0,120,104,2.0,0.0
838,66.0,105,239,5.0,0.0
839,69.0,0,104,2.0,0.0
840,71.0,0,224,3.0,0.0
841,67.0,0,239,5.0,0.0
842,52.0,0,239,5.0,0.0
843,71.0,105,239,5.0,0.0
844,74.0,0,239,5.0,0.0
845,67.0,120,104,2.0,0.0
846,52.0,0,224,4.0,0.0
847,64.0,0,239,5.0,0.0
848,66.0,0,104,2.0,0.0
849,64.0,120,104,2.0,0.0
850,66.0,0,239,5.0,0.0
851,54.0,0,239,5.0,0.0
852,70.0,0,239,5.0,0.0
853,73.0,105,239,5.0,0.0
854,73.0,0,104,1.0,0.0
855,54.0,0,224,4.0,0.0
856,73.0,0,104,0.0,0.0
857,70.0,0,224,3.0,0.0
858,74.0,0,104,0.0,0.0
859,74.0,15,104,1.0,0.0
860,62.0,0,104,2.0,0.0
861,55.0,105,239,5.0,0.0
862,76.0,0,239,5.0,0.0
863,71.0,0,224,3.0,0.0
864,76.0,120,104,0.0,0.0
865,71.0,0,239,5.0,0.0
866,55.0,15,224,4.0,0.0
867,61.0,0,104,2.0,0.0
868,76.0,0,104,1.0,0.0
869,67.0,0,239,5.0,0.0
870,74.0,0,104,1.0,0.0
871,59.0,0,104,2.0,0.0
872,74.0,0,104,0.0,0.0
873,64.0,0,239,5.0,0.0
874,73.0,0,239,5.0,0.0
875,67.0,105,239,5.0,0.0
876,64.0,0,224,3.0,0.0
877,52.0,0,239,5.0,0.0
878,71.0,0,239,5.0,0.0
879,52.0,0,224,4.0,0.0
880,73.0,0,104,0.0,0.0
881,67.0,0,224,2.0,0.0
882,73.0,120,104,1.0,0.0
883,71.0,0,104,1.0,0.0
884,71.0,15,104,0.0,0.0
885,66.0,0,704,2.0,0.0
886,61.0,0,224,3.0,0.0
887,70.0,0,104,1.0,0.0
888,54.0,0,224,4.0,0.0
889,70.0,0,239,5.0,0.0
890,66.0,0,239,5.0,0.0
891,70.0,120,104,0.0,0.0
892,73.0,0,239,5.0,0.0
893,54.0,105,239,5.0,0.0
894,71.0,0,104,1.0,0.0
895,71.0,15,104,0.0,0.0
896,64.0,0,239,5.0,0.0
897,71.0,0,239,5.0,0.0
898,52.0,105,239,5.0,0.0
899,67.0,0,239,5.0,0.0
900,58.0,0,224,3.0,0.0
901,52.0,15,224,4.0,0.0
902,73.0,120,104,1.0,0.0
903,73.0,0,104,0.0,0.0
904,70.0,0,104,1.0,0.0
905,70.0,0,104,0.0,0.0
906,71.0,0,239,5.0,0.0
907,66.0,120,104,0.0,0.0
908,50.0,0,224,4.0,0.0
909,59.0,15,224,3.0,0.0
910,50.0,0,239,5.0,0.0
911,62.0,105,239,5.0,0.0
912,66.0,0,104,1.0,0.0
913,66.0,0,239,5.0,0.0
914,68.0,0,104,1.0,0.0
915,68.0,0,104,0.0,0.0
916,70.0,0,239,5.0,0.0
917,64.0,0,224,2.0,0.0
918,61.0,0,224,3.0,0.0
919,64.0,0,239,5.0,0.0
920,70.0,120,104,0.0,0.0
921,49.0,0,239,5.0,0.0
922,61.0,225,239,5.0,0.0
923,49.0,0,224,4.0,0.0
924,70.0,0,104,1.0,0.0
925,66.0,0,104,1.0,0.0
926,66.0,15,104,0.0,0.0
927,54.0,0,224,3.0,0.0
928,47.0,0,224,4.0,0.0
929,59.0,105,239,5.0,0.0
930,66.0,0,239,5.0,0.0
931,62.0,0,239,5.0,0.0
932,47.0,0,239,5.0,0.0
933,71.0,120,584,0.0,0.0
934,62.0,15,224,2.0,0.0
935,71.0,0,584,1.0,0.0
936,74.0,0,119,5.0,0.0
937,71.0,105,119,5.0,0.0
938,78.0,0,119,5.0,0.0
939,62.0,0,104,3.0,0.0
940,59.0,15,104,4.0,0.0
941,59.0,0,119,5.0,0.0
942,66.0,0,224,2.0,0.0
943,64.0,15,104,3.0,0.0
944,73.0,105,119,5.0,0.0
945,61.0,0,104,4.0,0.0
946,61.0,0,119,5.0,0.0
947,76.0,0,119,5.0,0.0
948,79.0,0,119,5.0,0.0
949,71.0,0,584,2.0,0.0
950,83.0,0,239,5.0,0.0
951,74.0,0,239,5.0,0.0
952,62.0,0,239,5.0,0.0
953,78.0,105,239,5.0,0.0
954,66.0,120,584,3.0,0.0
955,62.0,15,224,4.0,0.0
956,66.0,0,104,1.0,0.0
957,66.0,0,104,0.0,0.0
958,64.0,0,104,0.0,0.0
959,61.0,0,239,5.0,0.0
960,73.0,0,239,5.0,0.0
961,76.0,0,239,5.0,0.0
962,82.0,105,239,5.0,0.0
963,61.0,15,224,4.0,0.0
964,64.0,120,104,1.0,0.0
965,66.0,0,104,1.0,0.0
966,66.0,0,104,0.0,0.0
967,74.0,0,584,0.0,0.0
968,59.0,0,224,4.0,0.0
969,59.0,0,239,5.0,0.0
970,74.0,120,584,1.0,0.0
971,74.0,105,239,5.0,0.0
972,78.0,0,239,5.0,0.0
973,71.0,0,239,5.0,0.0
974,66.0,15,104,2.0,0.0
975,62.0,0,104,3.0,0.0
976,73.0,0,239,5.0,0.0
977,64.0,120,104,2.0,0.0
978,61.0,0,239,5.0,0.0
979,78.0,0,239,5.0,0.0
980,61.0,0,104,3.0,0.0
981,61.0,0,224,4.0,0.0
982,74.0,105,239,5.0,0.0
983,66.0,0,104,2.0,0.0
984,59.0,15,104,3.0,0.0
985,83.0,105,239,5.0,0.0
986,62.0,0,239,5.0,0.0
987,74.0,0,239,5.0,0.0
988,78.0,0,239,5.0,0.0
989,62.0,15,224,4.0,0.0
990,71.0,120,584,2.0,0.0
991,66.0,0,224,3.0,0.0
992,71.0,0,104,0.0,0.0
993,71.0,0,104,1.0,0.0
994,61.0,15,224,4.0,0.0
995,70.0,120,104,0.0,0.0
996,64.0,0,224,3.0,0.0
997,70.0,0,104,1.0,0.0
998,61.0,105,239,5.0,0.0
999,83.0,0,239,5.0,0.0
1000,73.0,0,239,5.0,0.0
1001,78.0,0,239,5.0,0.0
1002,71.0,0,104,1.0,0.0
1003,71.0,0,104,0.0,0.0
1004,71.0,0,239,5.0,0.0
1005,59.0,0,239,5.0,0.0
1006,77.0,105,239,5.0,0.0
1007,74.0,0,239,5.0,0.0
1008,77.0,0,584,1.0,0.0
1009,80.0,0,239,5.0,0.0
1010,62.0,0,104,3.0,0.0
1011,59.0,0,224,4.0,0.0
1012,77.0,120,584,0.0,0.0
1013,69.0,0,104,2.0,0.0
1014,61.0,15,104,3.0,0.0
1015,77.0,0,239,5.0,0.0
1016,61.0,105,239,5.0,0.0
1017,80.0,0,239,5.0,0.0
1018,59.0,120,104,3.0,0.0
1019,68.0,0,104,2.0,0.0
1020,61.0,0,224,4.0,0.0
1021,74.0,0,239,5.0,0.0
1022,73.0,0,239,5.0,0.0
1023,57.0,0,104,3.0,0.0
1024,69.0,15,104,2.0,0.0
1025,80.0,105,239,5.0,0.0
1026,74.0,0,239,5.0,0.0
1027,62.0,0,239,5.0,0.0
1028,71.0,0,584,2.0,0.0
1029,77.0,0,239,5.0,0.0
1030,62.0,0,224,4.0,0.0
1031,56.0,15,224,3.0,0.0
1032,71.0,0,104,0.0,0.0
1033,71.0,0,104,1.0,0.0
1034,80.0,0,239,5.0,0.0
1035,74.0,0,239,5.0,0.0
1036,61.0,0,239,5.0,0.0
1037,73.0,0,239,5.0,0.0
1038,70.0,120,104,0.0,0.0
1039,70.0,0,104,1.0,0.0
1040,61.0,15,224,4.0,0.0
1041,65.0,120,344,3.0,0.0
1042,77.0,105,239,5.0,0.0
1043,71.0,0,104,1.0,0.0
1044,71.0,0,104,0.0,0.0
1045,74.0,0,239,5.0,0.0
1046,71.0,0,239,5.0,0.0
1047,80.0,120,584,1.0,0.0
1048,80.0,105,239,5.0,0.0
1049,77.0,0,239,5.0,0.0
1050,59.0,0,239,5.0,0.0
1051,59.0,15,224,4.0,0.0
1052,80.0,0,584,0.0,0.0
1053,69.0,0,104,2.0,0.0
1054,66.0,0,104,3.0,0.0
1055,80.0,0,239,5.0,0.0
1056,61.0,105,239,5.0,0.0
1057,61.0,0,224,4.0,0.0
1058,68.0,0,104,2.0,0.0
1059,65.0,120,104,3.0,0.0
1060,77.0,0,239,5.0,0.0
1061,73.0,0,239,5.0,0.0
1062,74.0,0,239,5.0,0.0
1063,69.0,0,104,2.0,0.0
1064,66.0,15,104,3.0,0.0
1065,77.0,105,239,5.0,0.0
1066,74.0,0,239,5.0,0.0
1067,62.0,0,224,4.0,0.0
1068,65.0,0,224,3.0,0.0
1069,80.0,0,239,5.0,0.0
1070,71.0,15,224,2.0,0.0
1071,62.0,0,239,5.0,0.0
1072,82.0,0,104,0.0,0.0
1073,82.0,0,104,1.0,0.0
1074,74.0,0,224,2.0,0.0
1075,59.0,0,224,4.0,0.0
1076,83.0,120,104,0.0,0.0
1077,83.0,0,104,1.0,0.0
1078,71.0,0,239,5.0,0.0
1079,74.0,0,239,5.0,0.0
1080,80.0,105,239,5.0,0.0
1081,59.0,0,239,5.0,0.0
1082,77.0,0,239,5.0,0.0
1083,66.0,15,224,3.0,0.0
1084,80.0,0,104,1.0,0.0
1085,80.0,0,104,0.0,0.0
1086,64.0,0,224,3.0,0.0
1087,82.0,105,239,5.0,0.0
1088,82.0,120,104,0.0,0.0
1089,73.0,15,224,2.0,0.0
1090,61.0,0,239,5.0,0.0
1091,76.0,0,239,5.0,0.0
1092,73.0,0,239,5.0,0.0
1093,61.0,0,224,4.0,0.0
1094,82.0,0,104,1.0,0.0
1095,78.0,0,104,0.0,0.0
1096,78.0,0,104,1.0,0.0
1097,62.0,0,224,4.0,0.0
1098,66.0,15,224,3.0,0.0
1099,83.0,120,104,0.0,0.0
1100,74.0,105,239,5.0,0.0
1101,71.0,0,344,2.0,0.0
1102,83.0,0,104,1.0,0.0
1103,62.0,0,239,5.0,0.0
1104,83.0,0,239,5.0,0.0
1105,78.0,0,239,5.0,0.0
1106,81.0,0,104,1.0,0.0
1107,81.0,0,104,0.0,0.0
1108,79.0,0,104,1.0,0.0
1109,64.0,0,239,5.0,0.0
1110,79.0,120,104,0.0,0.0
1111,67.0,0,584,3.0,0.0
1112,83.0,0,239,5.0,0.0
1113,76.0,105,239,5.0,0.0
1114,79.0,0,239,5.0,0.0
1115,64.0,15,224,4.0,0.0
1116,78.0,0,104,1.0,0.0
1117,74.0,0,104,2.0,0.0
1118,78.0,0,104,0.0,0.0
1119,83.0,0,239,5.0,0.0
1120,62.0,0,239,5.0,0.0
1121,76.0,120,344,0.0,0.0
1122,62.0,15,224,4.0,0.0
1123,74.0,0,239,5.0,0.0
1124,76.0,105,239,5.0,0.0
1125,73.0,120,104,2.0,0.0
1126,76.0,0,344,1.0,0.0
1127,79.0,0,239,5.0,0.0
1128,71.0,0,104,2.0,0.0
1129,76.0,0,239,5.0,0.0
1130,82.0,0,239,5.0,0.0
1131,73.0,105,239,5.0,0.0
1132,61.0,0,224,4.0,0.0
1133,70.0,0,224,2.0,0.0
1134,61.0,0,239,5.0,0.0
1135,74.0,15,104,0.0,0.0
1136,66.0,0,104,3.0,0.0
1137,74.0,0,104,1.0,0.0
1138,73.0,0,104,0.0,0.0
1139,62.0,0,224,4.0,0.0
1140,74.0,0,239,5.0,0.0
1141,76.0,105,239,5.0,0.0
1142,79.0,0,239,5.0,0.0
1143,62.0,0,239,5.0,0.0
1144,83.0,0,239,5.0,0.0
1145,64.0,120,104,3.0,0.0
1146,79.0,0,464,2.0,0.0
1147,73.0,0,104,1.0,0.0
1148,71.0,0,104,0.0,0.0
1149,71.0,0,104,1.0,0.0
1150,66.0,15,104,3.0,0.0
1151,76.0,0,239,5.0,0.0
1152,85.0,0,239,5.0,0.0
1153,79.0,105,239,5.0,0.0
1154,64.0,15,224,4.0,0.0
1155,64.0,0,239,5.0,0.0
1156,73.0,120,104,1.0,0.0
1157,73.0,0,104,0.0,0.0
1158,70.0,0,104,3.0,0.0
1159,74.0,0,104,0.0,0.0
1160,71.0,0,104,3.0,0.0
1161,74.0,0,104,1.0,0.0
1162,76.0,0,104,1.0,0.0
1163,76.0,120,104,0.0,0.0
1164,64.0,0,239,5.0,0.0
1165,73.0,0,224,3.0,0.0
1166,70.0,0,239,5.0,0.0
1167,78.0,15,464,2.0,0.0
1168,49.0,0,224,4.0,0.0
1169,49.0,0,239,5.0,0.0
1170,61.0,225,239,5.0,0.0
1171,70.0,0,104,1.0,0.0
1172,70.0,15,104,0.0,0.0
1173,71.0,0,224,1.0,0.0
1174,71.0,0,224,0.0,0.0
1175,66.0,0,224,3.0,0.0
1176,71.0,105,239,5.0,0.0
1177,66.0,0,239,5.0,0.0
1178,50.0,0,224,4.0,0.0
1179,50.0,0,239,5.0,0.0
1180,62.0,0,239,5.0,0.0
1181,79.0,105,119,0.0,0.0
1182,64.0,0,239,5.0,0.0
1183,71.0,105,239,5.0,0.0
1184,67.0,0,224,3.0,0.0
1185,67.0,0,239,5.0,0.0
1186,52.0,0,239,5.0,0.0
1187,73.0,0,239,5.0,0.0
1188,52.0,0,224,4.0,0.0
1189,79.0,15,104,1.0,0.0
1190,71.0,0,224,2.0,0.0
1191,78.0,0,104,1.0,0.0
1192,78.0,15,104,0.0,0.0
1193,71.0,0,224,2.0,0.0
1194,71.0,0,239,5.0,0.0
1195,54.0,105,239,5.0,0.0
1196,76.0,15,104,1.0,0.0
1197,76.0,105,119,0.0,0.0
1198,73.0,0,239,5.0,0.0
1199,54.0,0,224,4.0,0.0
1200,66.0,0,239,5.0,0.0
1201,66.0,15,224,3.0,0.0
1202,74.0,0,104,0.0,0.0
1203,74.0,0,104,1.0,0.0
1204,70.0,0,224,2.0,0.0
1205,54.0,0,239,5.0,0.0
1206,42.0,0,239,5.0,0.0
1207,73.0,105,119,0.0,0.0
1208,58.0,0,239,5.0,0.0
1209,61.0,225,239,5.0,0.0
1210,42.0,0,224,4.0,0.0
1211,64.0,15,224,3.0,0.0
1212,73.0,15,104,1.0,0.0
1213,71.0,0,104,0.0,0.0
1214,71.0,0,104,1.0,0.0
1215,59.0,0,239,5.0,0.0
1216,62.0,0,719,3.0,0.0
1217,47.0,15,224,4.0,0.0
1218,62.0,0,239,5.0,0.0
1219,71.0,15,704,1.0,0.0
1220,71.0,0,704,0.0,0.0
1221,66.0,0,719,2.0,0.0
1222,66.0,0,239,5.0,0.0
1223,47.0,225,239,5.0,0.0
1224,66.0,0,239,5.0,0.0
1225,73.0,225,239,5.0,0.0
1226,69.0,0,239,5.0,0.0
1227,54.0,0,239,5.0,0.0
1228,54.0,15,224,4.0,0.0
1229,74.0,0,239,5.0,0.0
1230,78.0,225,239,5.0,0.0
1231,59.0,0,239,4.0,0.0
1232,59.0,0,239,5.0,0.0
1233,71.0,0,239,5.0,0.0
1234,69.0,360,224,1.0,0.0
1235,69.0,0,224,0.0,0.0
1236,74.0,0,584,1.0,0.0
1237,74.0,120,584,0.0,0.0
1238,69.0,0,224,2.0,0.0
1239,66.0,0,104,3.0,0.0
1240,69.0,0,119,5.0,0.0
1241,62.0,0,119,5.0,0.0
1242,50.0,15,104,4.0,0.0
1243,66.0,0,119,5.0,0.0
1244,50.0,105,119,5.0,0.0
1245,67.0,0,119,5.0,0.0
1246,52.0,15,104,4.0,0.0
1247,64.0,0,119,5.0,0.0
1248,52.0,0,119,5.0,0.0
1249,71.0,105,119,5.0,0.0
1250,67.0,0,104,3.0,0.0
1251,74.0,0,239,5.0,0.0
1252,66.0,0,239,5.0,0.0
1253,69.0,105,239,5.0,0.0
1254,74.0,0,584,2.0,0.0
1255,69.0,0,224,3.0,0.0
1256,54.0,0,239,5.0,0.0
1257,54.0,0,224,4.0,0.0
1258,76.0,15,104,1.0,0.0
1259,76.0,0,104,0.0,0.0
1260,67.0,0,224,3.0,0.0
1261,52.0,0,224,4.0,0.0
1262,78.0,0,104,0.0,0.0
1263,78.0,120,104,1.0,0.0
1264,67.0,0,239,5.0,0.0
1265,73.0,0,239,5.0,0.0
1266,52.0,0,239,5.0,0.0
1267,64.0,105,239,5.0,0.0
1268,79.0,15,104,0.0,0.0
1269,79.0,0,104,1.0,0.0
1270,66.0,15,224,3.0,0.0
1271,81.0,0,104,1.0,0.0
1272,81.0,120,104,0.0,0.0
1273,50.0,105,239,5.0,0.0
1274,66.0,0,239,5.0,0.0
1275,50.0,0,224,4.0,0.0
1276,62.0,0,239,5.0,0.0
1277,69.0,0,239,5.0,0.0
1278,71.0,0,104,2.0,0.0
1279,79.0,0,104,1.0,0.0
1280,79.0,0,104,0.0,0.0
1281,78.0,0,104,1.0,0.0
1282,52.0,0,224,4.0,0.0
1283,78.0,0,104,0.0,0.0
1284,69.0,120,104,2.0,0.0
1285,67.0,0,224,3.0,0.0
1286,73.0,0,239,5.0,0.0
1287,64.0,105,239,5.0,0.0
1288,52.0,0,239,5.0,0.0
1289,67.0,0,239,5.0,0.0
1290,76.0,15,104,0.0,0.0
1291,76.0,0,104,1.0,0.0
1292,67.0,0,104,2.0,0.0
1293,74.0,0,239,5.0,0.0
1294,69.0,105,239,5.0,0.0
1295,54.0,15,224,4.0,0.0
1296,54.0,0,239,5.0,0.0
1297,69.0,0,104,3.0,0.0
1298,74.0,0,224,0.0,0.0
1299,74.0,0,224,1.0,0.0
1300,66.0,0,239,5.0,0.0
1301,66.0,120,104,2.0,0.0
1302,67.0,0,104,2.0,0.0
1303,67.0,0,104,3.0,0.0
1304,72.0,15,224,1.0,0.0
1305,72.0,0,224,0.0,0.0
1306,52.0,0,224,4.0,0.0
1307,52.0,0,239,5.0,0.0
1308,67.0,0,239,5.0,0.0
1309,72.0,225,239,5.0,0.0
1310,66.0,120,104,3.0,0.0
1311,69.0,0,464,2.0,0.0
1312,64.0,0,239,5.0,0.0
1313,64.0,0,104,3.0,0.0
1314,63.0,0,239,5.0,0.0
1315,71.0,0,224,1.0,0.0
1316,51.0,225,239,5.0,0.0
1317,69.0,0,239,5.0,0.0
1318,66.0,0,239,5.0,0.0
1319,71.0,0,239,5.0,0.0
1320,66.0,15,224,3.0,0.0
1321,51.0,0,224,4.0,0.0
1322,71.0,0,224,0.0,0.0
1323,52.0,0,224,4.0,0.0
1324,76.0,0,224,0.0,0.0
1325,67.0,0,239,5.0,0.0
1326,52.0,0,239,5.0,0.0
1327,71.0,0,239,5.0,0.0
1328,64.0,225,239,5.0,0.0
1329,76.0,0,224,1.0,0.0
1330,71.0,0,224,3.0,0.0
1331,67.0,15,224,2.0,0.0
1332,66.0,0,239,5.0,0.0
1333,75.0,225,239,5.0,0.0
1334,66.0,0,224,2.0,0.0
1335,54.0,0,224,4.0,0.0
1336,54.0,0,239,5.0,0.0
1337,75.0,0,224,1.0,0.0
1338,75.0,15,224,0.0,0.0
1339,69.0,0,239,5.0,0.0
1340,69.0,0,224,3.0,0.0
1341,51.0,0,239,5.0,0.0
1342,78.0,15,224,2.0,0.0
1343,81.0,0,224,0.0,0.0
1344,69.0,0,239,5.0,0.0
1345,71.0,30,239,5.0,0.0
1346,51.0,0,224,4.0,0.0
1347,81.0,0,224,1.0,0.0
1348,63.0,0,239,5.0,0.0
1349,66.0,0,239,5.0,0.0
1350,71.0,15,464,3.0,0.0
1351,67.0,0,239,5.0,0.0
1352,52.0,0,239,5.0,0.0
1353,79.0,30,29,0.0,0.0
1354,52.0,0,224,4.0,0.0
1355,71.0,0,239,5.0,0.0
1356,64.0,105,239,5.0,0.0
1357,79.0,0,224,1.0,0.0
1358,76.0,0,224,2.0,0.0
1359,81.0,30,29,0.0,0.0
1360,79.0,30,29,0.0,0.0
1361,81.0,30,29,0.0,0.0
1362,79.0,30,29,0.0,0.0
1363,81.0,30,29,0.0,0.0
1364,78.0,15,29,0.0,0.0
1365,79.0,0,29,0.0,0.0
1366,78.0,120,104,0.0,0.0
1367,75.0,15,224,2.0,0.0
1368,54.0,0,224,4.0,0.0
1369,69.0,0,224,3.0,0.0
1370,69.0,0,239,5.0,0.0
1371,54.0,105,239,5.0,0.0
1372,66.0,0,239,5.0,0.0
1373,75.0,0,239,5.0,0.0
1374,78.0,0,104,1.0,0.0
1375,79.0,0,104,1.0,0.0
1376,79.0,0,104,0.0,0.0
1377,76.0,0,104,0.0,0.0
1378,76.0,0,704,2.0,0.0
1379,67.0,0,239,5.0,0.0
1380,75.0,105,239,5.0,0.0
1381,76.0,0,104,1.0,0.0
1382,55.0,0,239,5.0,0.0
1383,55.0,15,224,4.0,0.0
1384,71.0,120,104,3.0,0.0
1385,71.0,0,239,5.0,0.0
1386,71.0,0,104,1.0,0.0
1387,69.0,0,104,3.0,0.0
1388,71.0,0,104,0.0,0.0
1389,67.0,0,104,3.0,0.0
1390,76.0,120,104,0.0,0.0
1391,76.0,0,104,1.0,0.0
1392,69.0,0,239,5.0,0.0
1393,54.0,0,224,4.0,0.0
1394,54.0,0,239,5.0,0.0
1395,66.0,0,239,5.0,0.0
1396,75.0,105,239,5.0,0.0
1397,78.0,0,104,0.0,0.0
1398,78.0,15,104,1.0,0.0
1399,69.0,0,104,3.0,0.0
1400,52.0,0,239,5.0,0.0
1401,71.0,0,239,5.0,0.0
1402,64.0,0,239,5.0,0.0
1403,71.0,0,224,3.0,0.0
1404,52.0,0,224,4.0,0.0
1405,79.0,0,104,0.0,0.0
1406,79.0,120,104,1.0,0.0
1407,67.0,105,239,5.0,0.0
1408,81.0,0,104,1.0,0.0
1409,81.0,15,104,0.0,0.0
1410,78.0,0,104,1.0,0.0
1411,62.0,15,224,3.0,0.0
1412,54.0,0,224,4.0,0.0
1413,70.0,0,224,2.0,0.0
1414,66.0,105,239,5.0,0.0
1415,54.0,0,239,5.0,0.0
1416,70.0,0,239,5.0,0.0
1417,74.0,0,239,5.0,0.0
1418,78.0,120,104,0.0,0.0
1419,79.0,0,104,0.0,0.0
1420,79.0,0,104,1.0,0.0
1421,71.0,105,239,5.0,0.0
1422,71.0,120,584,2.0,0.0
1423,55.0,15,224,4.0,0.0
1424,55.0,0,239,5.0,0.0
1425,76.0,120,104,1.0,0.0
1426,76.0,0,239,5.0,0.0
1427,76.0,0,104,0.0,0.0
1428,59.0,0,224,3.0,0.0
1429,67.0,0,239,5.0,0.0
1430,78.0,0,104,1.0,0.0
1431,78.0,0,104,0.0,0.0
1432,54.0,0,224,4.0,0.0
1433,74.0,0,104,0.0,0.0
1434,74.0,120,104,1.0,0.0
1435,66.0,0,239,5.0,0.0
1436,74.0,0,239,5.0,0.0
1437,71.0,105,239,5.0,0.0
1438,54.0,0,239,5.0,0.0
1439,66.0,0,224,3.0,0.0
1440,76.0,0,104,1.0,0.0
1441,76.0,15,104,0.0,0.0
1442,73.0,0,224,0.0,0.0
1443,71.0,0,239,5.0,0.0
1444,67.0,0,239,5.0,0.0
1445,73.0,0,239,5.0,0.0
1446,52.0,0,224,4.0,0.0
1447,73.0,0,224,1.0,0.0
1448,67.0,15,224,3.0,0.0
1449,52.0,105,239,5.0,0.0
1450,64.0,0,239,5.0,0.0
1451,73.0,0,104,2.0,0.0
1452,54.0,0,224,4.0,0.0
1453,82.0,0,224,1.0,0.0
1454,73.0,0,239,5.0,0.0
1455,82.0,0,224,0.0,0.0
1456,66.0,15,224,3.0,0.0
1457,54.0,0,239,5.0,0.0
1458,74.0,120,104,2.0,0.0
1459,70.0,105,239,5.0,0.0
1460,66.0,0,239,5.0,0.0
1461,76.0,0,104,2.0,0.0
1462,55.0,105,239,5.0,0.0
1463,59.0,15,224,3.0,0.0
1464,74.0,120,104,2.0,0.0
1465,83.0,0,224,1.0,0.0
1466,55.0,0,224,4.0,0.0
1467,74.0,0,239,5.0,0.0
1468,83.0,0,224,0.0,0.0
1469,67.0,0,239,5.0,0.0
1470,71.0,0,239,5.0,0.0
1471,73.0,0,104,2.0,0.0
1472,54.0,0,239,5.0,0.0
1473,71.0,120,104,2.0,0.0
1474,54.0,15,224,4.0,0.0
1475,66.0,0,239,5.0,0.0
1476,71.0,0,239,5.0,0.0
1477,66.0,0,224,3.0,0.0
1478,74.0,0,464,1.0,0.0
1479,74.0,105,239,5.0,0.0
1480,74.0,0,464,0.0,0.0
1481,69.0,0,104,2.0,0.0
1482,52.0,0,224,4.0,0.0
1483,71.0,0,224,3.0,0.0
1484,64.0,0,239,5.0,0.0
1485,67.0,0,239,5.0,0.0
1486,71.0,0,239,5.0,0.0
1487,52.0,105,239,5.0,0.0
1488,74.0,0,239,5.0,0.0
1489,67.0,120,104,2.0,0.0
1490,66.0,15,104,2.0,0.0
1491,66.0,0,239,5.0,0.0
1492,70.0,0,239,5.0,0.0
1493,73.0,0,239,5.0,0.0
1494,54.0,105,239,5.0,0.0
1495,73.0,120,104,0.0,0.0
1496,64.0,0,104,2.0,0.0
1497,73.0,0,104,1.0,0.0
1498,54.0,0,224,4.0,0.0
1499,70.0,0,224,3.0,0.0
1500,74.0,0,104,1.0,0.0
1501,74.0,15,104,0.0,0.0
1502,62.0,0,104,2.0,0.0
1503,76.0,120,104,0.0,0.0
1504,76.0,0,239,5.0,0.0
1505,55.0,0,224,4.0,0.0
1506,76.0,0,104,1.0,0.0
1507,67.0,0,239,5.0,0.0
1508,71.0,0,239,5.0,0.0
1509,61.0,0,104,2.0,0.0
1510,55.0,105,239,5.0,0.0
1511,71.0,0,224,3.0,0.0
1512,74.0,0,104,0.0,0.0
1513,74.0,15,104,1.0,0.0
1514,59.0,0,104,2.0,0.0
1515,73.0,0,104,1.0,0.0
1516,73.0,120,104,0.0,0.0
1517,52.0,0,224,4.0,0.0
1518,73.0,0,239,5.0,0.0
1519,64.0,0,239,5.0,0.0
1520,67.0,0,224,2.0,0.0
1521,67.0,105,239,5.0,0.0
1522,52.0,0,239,5.0,0.0
1523,64.0,15,224,3.0,0.0
1524,71.0,0,239,5.0,0.0
1525,71.0,0,104,1.0,0.0
1526,71.0,0,104,0.0,0.0
1527,66.0,0,704,2.0,0.0
1528,70.0,0,104,1.0,0.0
1529,70.0,120,104,0.0,0.0
1530,54.0,0,224,4.0,0.0
1531,54.0,0,239,5.0,0.0
1532,73.0,0,239,5.0,0.0
1533,66.0,0,239,5.0,0.0
1534,70.0,105,239,5.0,0.0
1535,61.0,15,224,3.0,0.0
1536,71.0,0,104,1.0,0.0
1537,71.0,0,104,0.0,0.0
1538,64.0,0,239,5.0,0.0
1539,52.0,0,239,5.0,0.0
1540,71.0,0,239,5.0,0.0
1541,52.0,0,224,4.0,0.0
1542,67.0,105,239,5.0,0.0
1543,73.0,0,104,1.0,0.0
1544,58.0,0,224,3.0,0.0
1545,73.0,120,104,0.0,0.0
1546,70.0,0,104,1.0,0.0
1547,70.0,15,104,0.0,0.0
1548,59.0,0,224,3.0,0.0
1549,66.0,0,104,0.0,0.0
1550,62.0,105,239,5.0,0.0
1551,50.0,0,239,5.0,0.0
1552,66.0,120,104,1.0,0.0
1553,50.0,0,224,4.0,0.0
1554,71.0,0,239,5.0,0.0
1555,66.0,0,239,5.0,0.0
1556,68.0,15,104,1.0,0.0
1557,68.0,0,104,0.0,0.0
1558,64.0,0,239,5.0,0.0
1559,61.0,0,239,5.0,0.0
1560,70.0,225,239,5.0,0.0
1561,49.0,0,239,5.0,0.0
1562,61.0,0,224,3.0,0.0
1563,49.0,0,224,4.0,0.0
1564,64.0,0,224,2.0,0.0
1565,70.0,0,104,1.0,0.0
1566,70.0,120,104,0.0,0.0
1567,66.0,0,104,1.0,0.0
1568,66.0,15,104,0.0,0.0
1569,47.0,0,239,5.0,0.0
1570,59.0,0,239,5.0,0.0
1571,62.0,15,224,2.0,0.0
1572,71.0,120,584,1.0,0.0
1573,71.0,0,584,0.0,0.0
1574,66.0,105,239,5.0,0.0
1575,62.0,0,239,5.0,0.0
1576,47.0,0,224,4.0,0.0
1577,54.0,0,224,3.0,0.0
1578,59.0,15,104,4.0,0.0
1579,66.0,15,224,2.0,0.0
1580,62.0,0,104,3.0,0.0
1581,59.0,0,119,5.0,0.0
1582,78.0,105,119,5.0,0.0
1583,74.0,0,119,5.0,0.0
1584,71.0,0,119,5.0,0.0
1585,73.0,0,119,5.0,0.0
1586,79.0,105,119,5.0,0.0
1587,61.0,0,119,5.0,0.0
1588,76.0,0,119,5.0,0.0
1589,61.0,0,104,4.0,0.0
1590,64.0,0,104,3.0,0.0
1591,66.0,120,584,3.0,0.0
1592,78.0,105,239,5.0,0.0
1593,71.0,0,584,2.0,0.0
1594,74.0,0,239,5.0,0.0
1595,62.0,0,224,4.0,0.0
1596,62.0,0,239,5.0,0.0
1597,83.0,0,239,5.0,0.0
1598,66.0,0,104,1.0,0.0
1599,66.0,15,104,0.0,0.0
1600,64.0,120,104,0.0,0.0
1601,64.0,0,104,1.0,0.0
1602,61.0,0,224,4.0,0.0
1603,73.0,105,239,5.0,0.0
1604,76.0,0,239,5.0,0.0
1605,61.0,0,239,5.0,0.0
1606,82.0,0,239,5.0,0.0
1607,66.0,15,104,1.0,0.0
1608,66.0,0,104,0.0,0.0
1609,59.0,0,239,5.0,0.0
1610,59.0,0,224,4.0,0.0
1611,74.0,0,584,1.0,0.0
1612,74.0,120,584,0.0,0.0
1613,78.0,105,239,5.0,0.0
1614,74.0,0,239,5.0,0.0
1615,71.0,0,239,5.0,0.0
1616,66.0,0,104,2.0,0.0
1617,62.0,15,104,3.0,0.0
1618,74.0,0,239,5.0,0.0
1619,61.0,105,239,5.0,0.0
1620,73.0,0,239,5.0,0.0
1621,78.0,0,239,5.0,0.0
1622,64.0,120,104,2.0,0.0
1623,61.0,0,104,3.0,0.0
1624,61.0,0,224,4.0,0.0
1625,66.0,0,104,2.0,0.0
1626,59.0,15,104,3.0,0.0
1627,71.0,120,584,2.0,0.0
1628,62.0,0,224,4.0,0.0
1629,74.0,0,239,5.0,0.0
1630,83.0,0,239,5.0,0.0
1631,78.0,0,239,5.0,0.0
1632,66.0,15,224,3.0,0.0
1633,62.0,105,239,5.0,0.0
1634,71.0,0,104,1.0,0.0
1635,71.0,0,104,0.0,0.0
1636,64.0,0,224,3.0,0.0
1637,61.0,0,224,4.0,0.0
1638,73.0,0,239,5.0,0.0
1639,70.0,0,104,1.0,0.0
1640,83.0,0,239,5.0,0.0
1641,78.0,0,239,5.0,0.0
1642,61.0,105,239,5.0,0.0
1643,70.0,120,104,0.0,0.0
1644,71.0,15,104,1.0,0.0
1645,71.0,0,104,0.0,0.0
1646,59.0,0,239,5.0,0.0
1647,77.0,0,239,5.0,0.0
1648,80.0,0,239,5.0,0.0
1649,62.0,0,104,3.0,0.0
1650,77.0,120,584,1.0,0.0
1651,74.0,0,239,5.0,0.0
1652,59.0,0,224,4.0,0.0
1653,77.0,0,584,0.0,0.0
1654,71.0,105,239,5.0,0.0
1655,61.0,15,104,3.0,0.0
1656,69.0,0,104,2.0,0.0
1657,61.0,0,239,5.0,0.0
1658,61.0,0,224,4.0,0.0
1659,59.0,0,104,3.0,0.0
1660,80.0,0,239,5.0,0.0
1661,77.0,0,239,5.0,0.0
1662,74.0,105,239,5.0,0.0
1663,68.0,120,104,2.0,0.0
1664,73.0,0,239,5.0,0.0
1665,69.0,15,104,2.0,0.0
1666,57.0,0,104,3.0,0.0
1667,62.0,0,224,4.0,0.0
1668,80.0,105,239,5.0,0.0
1669,71.0,120,584,2.0,0.0
1670,74.0,0,239,5.0,0.0
1671,62.0,0,239,5.0,0.0
1672,77.0,0,239,5.0,0.0
1673,56.0,15,224,3.0,0.0
1674,71.0,0,104,0.0,0.0
1675,71.0,0,104,1.0,0.0
1676,70.0,0,104,0.0,0.0
1677,70.0,120,104,1.0,0.0
1678,61.0,0,224,4.0,0.0
1679,80.0,0,239,5.0,0.0
1680,74.0,0,239,5.0,0.0
1681,61.0,0,239,5.0,0.0
1682,73.0,0,239,5.0,0.0
1683,77.0,105,239,5.0,0.0
1684,65.0,0,344,3.0,0.0
1685,71.0,0,104,0.0,0.0
1686,71.0,15,104,1.0,0.0
1687,59.0,0,239,5.0,0.0
1688,71.0,105,239,5.0,0.0
1689,74.0,0,239,5.0,0.0
1690,80.0,0,584,1.0,0.0
1691,80.0,120,584,0.0,0.0
1692,80.0,0,239,5.0,0.0
1693,77.0,0,239,5.0,0.0
1694,59.0,0,224,4.0,0.0
1695,69.0,0,104,2.0,0.0
1696,66.0,15,104,3.0,0.0
1697,61.0,0,239,5.0,0.0
1698,73.0,0,239,5.0,0.0
1699,68.0,0,104,2.0,0.0
1700,77.0,105,239,5.0,0.0
1701,61.0,0,224,4.0,0.0
1702,80.0,0,239,5.0,0.0
1703,74.0,0,239,5.0,0.0
1704,65.0,120,104,3.0,0.0
1705,69.0,15,104,2.0,0.0
1706,66.0,0,104,3.0,0.0
1707,65.0,0,224,3.0,0.0
1708,74.0,0,239,5.0,0.0
1709,62.0,0,239,5.0,0.0
1710,80.0,105,239,5.0,0.0
1711,77.0,0,239,5.0,0.0
1712,62.0,0,224,4.0,0.0
1713,71.0,15,224,2.0,0.0
1714,82.0,0,104,0.0,0.0
1715,82.0,0,104,1.0,0.0
1716,83.0,0,104,1.0,0.0
1717,71.0,0,239,5.0,0.0
1718,74.0,0,239,5.0,0.0
1719,83.0,120,104,0.0,0.0
1720,59.0,0,239,5.0,0.0
1721,74.0,0,224,2.0,0.0
1722,80.0,0,239,5.0,0.0
1723,77.0,105,239,5.0,0.0
1724,59.0,0,224,4.0,0.0
1725,66.0,0,224,3.0,0.0
1726,80.0,15,104,1.0,0.0
1727,80.0,0,104,0.0,0.0
1728,76.0,0,239,5.0,0.0
1729,82.0,0,239,5.0,0.0
1730,82.0,0,104,0.0,0.0
1731,61.0,0,239,5.0,0.0
1732,64.0,15,224,3.0,0.0
1733,73.0,105,239,5.0,0.0
1734,82.0,120,104,1.0,0.0
1735,61.0,0,224,4.0,0.0
1736,73.0,0,224,2.0,0.0
1737,78.0,0,104,1.0,0.0
1738,78.0,0,104,0.0,0.0
1739,66.0,0,224,3.0,0.0
1740,71.0,0,344,2.0,0.0
1741,83.0,0,239,5.0,0.0
1742,83.0,120,104,1.0,0.0
1743,78.0,0,239,5.0,0.0
1744,62.0,15,224,4.0,0.0
1745,62.0,105,239,5.0,0.0
1746,74.0,0,239,5.0,0.0
1747,83.0,0,104,0.0,0.0
1748,81.0,0,104,0.0,0.0
1749,81.0,0,104,1.0,0.0
1750,79.0,120,104,0.0,0.0
1751,64.0,0,224,4.0,0.0
1752,79.0,0,104,1.0,0.0
1753,79.0,0,239,5.0,0.0
1754,67.0,0,584,3.0,0.0
1755,83.0,0,239,5.0,0.0
1756,64.0,0,239,5.0,0.0
1757,76.0,105,239,5.0,0.0
1758,78.0,0,104,1.0,0.0
1759,74.0,0,104,2.0,0.0
1760,78.0,15,104,0.0,0.0
1761,62.0,0,224,4.0,0.0
1762,76.0,0,344,1.0,0.0
1763,76.0,120,344,0.0,0.0
1764,83.0,0,239,5.0,0.0
1765,74.0,0,239,5.0,0.0
1766,79.0,105,239,5.0,0.0
1767,76.0,0,239,5.0,0.0
1768,62.0,0,239,5.0,0.0
1769,73.0,120,104,2.0,0.0
1770,71.0,15,104,2.0,0.0
1771,82.0,0,239,5.0,0.0
1772,61.0,0,224,4.0,0.0
1773,61.0,105,239,5.0,0.0
1774,76.0,0,239,5.0,0.0
1775,73.0,0,239,5.0,0.0
1776,70.0,0,224,2.0,0.0
1777,74.0,0,104,1.0,0.0
1778,74.0,0,104,0.0,0.0
1779,66.0,15,104,3.0,0.0
1780,64.0,0,104,3.0,0.0
1781,62.0,0,224,4.0,0.0
1782,79.0,0,464,2.0,0.0
1783,73.0,0,104,0.0,0.0
1784,76.0,0,239,5.0,0.0
1785,83.0,0,239,5.0,0.0
1786,74.0,0,239,5.0,0.0
1787,79.0,105,239,5.0,0.0
1788,73.0,120,104,1.0,0.0
1789,62.0,0,239,5.0,0.0
1790,71.0,0,104,0.0,0.0
1791,66.0,0,104,3.0,0.0
1792,71.0,15,104,1.0,0.0
1793,85.0,0,239,5.0,0.0
1794,64.0,0,239,5.0,0.0
1795,76.0,105,239,5.0,0.0
1796,64.0,0,224,4.0,0.0
1797,70.0,0,104,3.0,0.0
1798,73.0,120,104,1.0,0.0
1799,73.0,0,104,0.0,0.0
1800,79.0,0,239,5.0,0.0
1801,71.0,0,104,3.0,0.0
1802,74.0,0,104,0.0,0.0
1803,74.0,15,104,1.0,0.0
1804,64.0,225,239,5.0,0.0
1805,70.0,0,239,5.0,0.0
1806,49.0,0,224,4.0,0.0
1807,61.0,0,239,5.0,0.0
1808,49.0,0,239,5.0,0.0
1809,76.0,120,104,1.0,0.0
1810,76.0,0,104,0.0,0.0
1811,73.0,15,224,3.0,0.0
1812,78.0,15,464,2.0,0.0
1813,70.0,0,104,1.0,0.0
1814,70.0,0,104,0.0,0.0
1815,66.0,0,239,5.0,0.0
1816,71.0,0,239,5.0,0.0
1817,71.0,0,224,0.0,0.0
1818,50.0,0,224,4.0,0.0
1819,71.0,0,224,1.0,0.0
1820,66.0,0,224,3.0,0.0
1821,62.0,0,239,5.0,0.0
1822,50.0,105,239,5.0,0.0
1823,71.0,0,224,2.0,0.0
1824,67.0,15,224,3.0,0.0
1825,79.0,15,104,1.0,0.0
1826,71.0,0,239,5.0,0.0
1827,52.0,0,239,5.0,0.0
1828,73.0,0,239,5.0,0.0
1829,64.0,105,239,5.0,0.0
1830,52.0,0,224,4.0,0.0
1831,67.0,0,239,5.0,0.0
1832,79.0,105,119,0.0,0.0
1833,78.0,0,104,1.0,0.0
1834,78.0,0,104,0.0,0.0
1835,66.0,15,224,3.0,0.0
1836,54.0,0,239,5.0,0.0
1837,73.0,105,239,5.0,0.0
1838,66.0,0,239,5.0,0.0
1839,71.0,0,239,5.0,0.0
1840,54.0,0,224,4.0,0.0
1841,71.0,0,224,2.0,0.0
1842,76.0,105,119,0.0,0.0
1843,76.0,15,104,1.0,0.0
1844,74.0,0,104,1.0,0.0
1845,74.0,0,104,0.0,0.0
1846,73.0,105,119,0.0,0.0
1847,70.0,0,224,2.0,0.0
1848,61.0,0,239,5.0,0.0
1849,58.0,225,239,5.0,0.0
1850,42.0,0,239,5.0,0.0
1851,54.0,0,239,5.0,0.0
1852,64.0,0,224,3.0,0.0
1853,42.0,0,224,4.0,0.0
1854,73.0,15,104,1.0,0.0
1855,71.0,0,104,0.0,0.0
1856,71.0,15,104,1.0,0.0
1857,47.0,0,239,5.0,0.0
1858,71.0,0,719,1.0,0.0
1859,71.0,0,719,0.0,0.0
1860,62.0,0,719,3.0,0.0
1861,59.0,0,239,5.0,0.0
1862,62.0,0,239,5.0,0.0
1863,66.0,225,239,5.0,0.0
1864,66.0,0,719,2.0,0.0
1865,47.0,15,224,4.0,0.0
1866,54.0,0,239,5.0,0.0
1867,54.0,15,224,4.0,0.0
1868,73.0,240,239,5.0,0.0
1869,69.0,0,239,5.0,0.0
1870,66.0,0,239,5.0,0.0
1871,74.0,345,239,5.0,0.0
1872,59.0,0,239,5.0,0.0
1873,78.0,0,239,5.0,0.0
1874,71.0,0,239,5.0,0.0
1875,59.0,0,239,4.0,0.0
1876,66.0,15,464,1.0,0.0
1877,66.0,120,104,2.0,0.0
1878,71.0,0,104,0.0,0.0
1879,62.0,0,104,3.0,0.0
1880,61.0,0,104,3.0,0.0
1881,64.0,135,104,2.0,0.0
1882,70.0,0,104,0.0,0.0
1883,66.0,105,239,2.0,0.0
1884,71.0,105,119,0.0,0.0
1885,62.0,0,239,3.0,0.0
1886,73.0,0,119,0.0,0.0
1887,59.0,0,224,4.0,0.0
1888,71.0,105,239,5.0,0.0
1889,74.0,0,239,5.0,0.0
1890,59.0,0,239,5.0,0.0
1891,78.0,0,239,5.0,0.0
1892,74.0,120,104,0.0,0.0
1893,71.0,0,464,1.0,0.0
1894,78.0,15,104,0.0,0.0
1895,76.0,120,104,0.0,0.0
1896,55.0,15,224,4.0,0.0
1897,67.0,0,239,5.0,0.0
1898,71.0,0,239,5.0,0.0
1899,76.0,105,239,5.0,0.0
1900,55.0,0,239,5.0,0.0
1901,74.0,0,104,0.0,0.0
1902,79.0,120,464,1.0,0.0
1903,73.0,120,104,0.0,0.0
1904,52.0,0,224,4.0,0.0
1905,73.0,120,239,5.0,0.0
1906,71.0,0,239,5.0,0.0
1907,52.0,0,239,5.0,0.0
1908,64.0,0,239,5.0,0.0
1909,67.0,0,239,5.0,0.0
1910,71.0,15,104,0.0,0.0
1911,66.0,0,479,5.0,0.0
1912,70.0,105,119,0.0,0.0
1913,54.0,0,479,4.0,0.0
1914,73.0,105,479,5.0,0.0
1915,70.0,0,479,5.0,0.0
1916,54.0,0,479,5.0,0.0
1917,71.0,0,104,0.0,0.0
1918,70.0,105,119,0.0,0.0
1919,73.0,0,224,1.0,0.0
1920,73.0,15,104,2.0,0.0
1921,66.0,0,224,3.0,0.0
1922,74.0,15,104,2.0,0.0
1923,71.0,0,104,0.0,0.0
1924,70.0,0,224,1.0,0.0
1925,64.0,0,224,3.0,0.0
1926,76.0,0,224,2.0,0.0
1927,73.0,120,104,0.0,0.0
1928,66.0,120,104,0.0,0.0
1929,66.0,15,104,2.0,0.0
1930,71.0,105,119,0.0,0.0
1931,62.0,0,104,3.0,0.0
1932,66.0,15,464,1.0,0.0
1933,64.0,0,104,2.0,0.0
1934,61.0,135,104,3.0,0.0
1935,70.0,0,104,0.0,0.0
1936,71.0,105,119,0.0,0.0
1937,66.0,0,239,2.0,0.0
1938,62.0,105,239,3.0,0.0
1939,73.0,0,119,0.0,0.0
1940,74.0,120,104,0.0,0.0
1941,59.0,0,224,4.0,0.0
1942,74.0,0,239,5.0,0.0
1943,71.0,0,239,5.0,0.0
1944,78.0,0,239,5.0,0.0
1945,59.0,105,239,5.0,0.0
1946,71.0,15,464,1.0,0.0
1947,78.0,15,104,0.0,0.0
1948,55.0,105,239,5.0,0.0
1949,67.0,0,239,5.0,0.0
1950,71.0,0,239,5.0,0.0
1951,76.0,0,239,5.0,0.0
1952,55.0,0,224,4.0,0.0
1953,76.0,120,104,0.0,0.0
1954,74.0,0,104,0.0,0.0
1955,71.0,345,239,5.0,0.0
1956,67.0,0,239,5.0,0.0
1957,64.0,0,239,5.0,0.0
1958,73.0,120,104,0.0,0.0
1959,52.0,0,224,4.0,0.0
1960,79.0,15,224,1.0,0.0
1961,52.0,0,239,5.0,0.0
1962,73.0,0,239,5.0,0.0
1963,71.0,0,104,0.0,0.0
1964,78.0,0,704,0.0,0.0
1965,54.0,105,719,4.0,0.0
1966,70.0,15,704,1.0,0.0
1967,70.0,0,719,5.0,0.0
1968,54.0,0,719,5.0,0.0
1969,66.0,0,719,5.0,0.0
1970,73.0,0,719,5.0,0.0
1971,70.0,120,104,2.0,0.0
1972,66.0,0,104,3.0,0.0
1973,71.0,0,104,2.0,0.0
1974,68.0,240,104,3.0,0.0
1975,73.0,0,224,2.0,0.0
1976,70.0,0,224,3.0,0.0
1977,62.0,0,104,3.0,0.0
1978,66.0,15,464,1.0,0.0
1979,71.0,0,104,0.0,0.0
1980,66.0,120,104,2.0,0.0
1981,61.0,0,104,3.0,0.0
1982,64.0,0,104,2.0,0.0
1983,70.0,135,104,0.0,0.0
1984,62.0,105,239,3.0,0.0
1985,66.0,0,239,2.0,0.0
1986,71.0,105,119,0.0,0.0
1987,73.0,0,119,0.0,0.0
1988,78.0,105,239,5.0,0.0
1989,59.0,15,224,4.0,0.0
1990,74.0,120,104,0.0,0.0
1991,71.0,0,464,1.0,0.0
1992,59.0,0,239,5.0,0.0
1993,74.0,0,239,5.0,0.0
1994,71.0,0,239,5.0,0.0
1995,78.0,0,104,0.0,0.0
1996,76.0,120,104,0.0,0.0
1997,67.0,0,239,5.0,0.0
1998,55.0,0,239,5.0,0.0
1999,55.0,0,224,4.0,0.0
2000,71.0,0,239,5.0,0.0
2001,76.0,105,239,5.0,0.0
2002,74.0,15,104,0.0,0.0
2003,73.0,0,239,5.0,0.0
2004,71.0,0,239,5.0,0.0
2005,64.0,0,239,5.0,0.0
2006,52.0,0,239,5.0,0.0
2007,67.0,120,239,5.0,0.0
2008,79.0,120,464,1.0,0.0
2009,73.0,120,104,0.0,0.0
2010,52.0,0,224,4.0,0.0
2011,71.0,15,104,0.0,0.0
2012,54.0,0,479,4.0,0.0
2013,66.0,0,479,5.0,0.0
2014,54.0,105,479,5.0,0.0
2015,70.0,0,479,5.0,0.0
2016,73.0,0,479,5.0,0.0
2017,70.0,105,119,0.0,0.0
2018,71.0,0,104,0.0,0.0
2019,73.0,0,224,1.0,0.0
2020,66.0,0,224,3.0,0.0
2021,70.0,105,119,0.0,0.0
2022,73.0,15,104,2.0,0.0
2023,71.0,15,104,0.0,0.0
2024,74.0,0,104,2.0,0.0
2025,64.0,0,224,3.0,0.0
2026,70.0,120,224,1.0,0.0
2027,73.0,120,104,0.0,0.0
2028,76.0,0,224,2.0,0.0
2029,66.0,0,104,0.0,0.0
2030,62.0,15,104,3.0,0.0
2031,71.0,105,119,0.0,0.0
2032,66.0,15,464,1.0,0.0
2033,66.0,0,104,2.0,0.0
2034,64.0,0,104,2.0,0.0
2035,61.0,0,104,3.0,0.0
2036,70.0,135,104,0.0,0.0
2037,71.0,105,119,0.0,0.0
2038,66.0,105,239,2.0,0.0
2039,62.0,0,239,3.0,0.0
2040,73.0,0,119,0.0,0.0
2041,74.0,0,239,5.0,0.0
2042,59.0,0,239,5.0,0.0
2043,71.0,105,239,5.0,0.0
2044,74.0,120,104,0.0,0.0
2045,59.0,15,224,4.0,0.0
2046,71.0,15,464,1.0,0.0
2047,78.0,0,239,5.0,0.0
2048,78.0,0,104,0.0,0.0
2049,76.0,0,239,5.0,0.0
2050,55.0,0,239,5.0,0.0
2051,55.0,0,224,4.0,0.0
2052,67.0,0,239,5.0,0.0
2053,76.0,120,104,0.0,0.0
2054,71.0,105,239,5.0,0.0
2055,74.0,0,104,0.0,0.0
2056,52.0,0,224,4.0,0.0
2057,52.0,0,239,5.0,0.0
2058,79.0,0,224,1.0,0.0
2059,67.0,0,239,5.0,0.0
2060,71.0,345,239,5.0,0.0
2061,64.0,0,239,5.0,0.0
2062,73.0,120,104,0.0,0.0
2063,73.0,0,239,5.0,0.0
2064,71.0,15,104,0.0,0.0
2065,54.0,105,719,5.0,0.0
2066,66.0,0,719,5.0,0.0
2067,73.0,0,719,5.0,0.0
2068,78.0,0,704,0.0,0.0
2069,70.0,0,719,5.0,0.0
2070,70.0,0,704,1.0,0.0
2071,54.0,0,719,4.0,0.0
2072,66.0,0,104,3.0,0.0
2073,70.0,120,104,2.0,0.0
2074,68.0,0,104,3.0,0.0
2075,71.0,240,104,2.0,0.0
2076,70.0,0,224,3.0,0.0
2077,73.0,15,224,2.0,0.0
2078,66.0,0,104,3.0,0.0
2079,73.0,0,104,0.0,0.0
2080,70.0,15,464,1.0,0.0
2081,78.0,120,104,2.0,0.0
2082,68.0,0,104,3.0,0.0
2083,76.0,0,104,2.0,0.0
2084,71.0,135,104,0.0,0.0
2085,73.0,105,119,0.0,0.0
2086,70.0,0,239,3.0,0.0
2087,78.0,105,239,2.0,0.0
2088,74.0,0,119,0.0,0.0
2089,61.0,0,239,5.0,0.0
2090,79.0,105,239,5.0,0.0
2091,82.0,0,239,5.0,0.0
2092,76.0,0,239,5.0,0.0
2093,73.0,0,239,5.0,0.0
2094,61.0,0,224,4.0,0.0
2095,79.0,15,464,1.0,0.0
2096,76.0,120,104,0.0,0.0
2097,79.0,15,104,0.0,0.0
2098,73.0,0,239,5.0,0.0
2099,58.0,0,239,5.0,0.0
2100,76.0,0,239,5.0,0.0
2101,70.0,0,239,5.0,0.0
2102,79.0,105,239,5.0,0.0
2103,78.0,120,104,0.0,0.0
2104,58.0,0,224,4.0,0.0
2105,76.0,0,104,0.0,0.0
2106,54.0,15,224,4.0,0.0
2107,73.0,0,239,5.0,0.0
2108,66.0,0,239,5.0,0.0
2109,76.0,120,239,5.0,0.0
2110,70.0,0,239,5.0,0.0
2111,78.0,15,464,1.0,0.0
2112,54.0,0,239,5.0,0.0
2113,74.0,120,104,0.0,0.0
2114,73.0,0,104,0.0,0.0
2115,59.0,105,479,4.0,0.0
2116,71.0,0,479,5.0,0.0
2117,74.0,105,119,0.0,0.0
2118,59.0,0,479,5.0,0.0
2119,74.0,0,479,5.0,0.0
2120,78.0,0,479,5.0,0.0
2121,73.0,105,119,0.0,0.0
2122,62.0,120,104,3.0,0.0
2123,71.0,0,104,0.0,0.0
2124,74.0,0,224,1.0,0.0
2125,78.0,0,104,2.0,0.0
2126,73.0,0,104,0.0,0.0
2127,64.0,15,104,3.0,0.0
2128,76.0,0,104,2.0,0.0
2129,71.0,0,224,1.0,0.0
2130,74.0,0,224,2.0,0.0
2131,66.0,0,224,3.0,0.0
2132,74.0,120,104,0.0,0.0
2133,76.0,120,104,0.0,0.0
2134,71.0,0,224,3.0,0.0
2135,74.0,15,464,1.0,0.0
2136,78.0,120,104,0.0,0.0
2137,71.0,135,224,2.0,0.0
2138,74.0,0,104,0.0,0.0
2139,67.0,105,239,3.0,0.0
2140,83.0,0,239,2.0,0.0
2141,76.0,105,119,0.0,0.0
2142,78.0,0,119,0.0,0.0
2143,79.0,0,239,5.0,0.0
2144,83.0,15,464,1.0,0.0
2145,79.0,120,104,0.0,0.0
2146,83.0,105,239,5.0,0.0
2147,64.0,0,239,5.0,0.0
2148,64.0,15,224,4.0,0.0
2149,76.0,0,239,5.0,0.0
2150,83.0,0,104,0.0,0.0
2151,73.0,0,239,5.0,0.0
2152,61.0,0,224,4.0,0.0
2153,76.0,0,239,5.0,0.0
2154,79.0,0,239,5.0,0.0
2155,61.0,105,239,5.0,0.0
2156,81.0,120,104,0.0,0.0
2157,83.0,0,239,5.0,0.0
2158,79.0,0,104,0.0,0.0
2159,73.0,0,119,5.0,0.0
2160,69.0,0,119,5.0,0.0
2161,81.0,15,464,1.0,0.0
2162,81.0,105,119,5.0,0.0
2163,76.0,0,119,5.0,0.0
2164,57.0,0,224,4.0,0.0
2165,57.0,120,239,5.0,0.0
2166,78.0,15,104,0.0,0.0
2167,76.0,15,104,0.0,0.0
2168,69.0,0,119,5.0,0.0
2169,73.0,0,119,5.0,0.0
2170,76.0,0,119,5.0,0.0
2171,79.0,0,119,5.0,0.0
2172,74.0,0,479,5.0,0.0
2173,78.0,105,119,0.0,0.0
2174,62.0,0,479,5.0,0.0
2175,81.0,0,479,5.0,0.0
2176,62.0,105,479,4.0,0.0
2177,78.0,0,479,5.0,0.0
2178,76.0,105,119,0.0,0.0
2179,78.0,0,224,1.0,0.0
2180,74.0,0,104,0.0,0.0
2181,74.0,0,104,2.0,0.0
2182,66.0,120,104,3.0,0.0
2183,67.0,0,104,3.0,0.0
2184,73.0,15,104,2.0,0.0
2185,76.0,0,104,0.0,0.0
2186,69.0,0,224,3.0,0.0
2187,74.0,0,224,1.0,0.0
2188,78.0,120,104,0.0,0.0
2189,74.0,120,224,2.0,0.0
2190,79.0,0,104,0.0,0.0
2191,69.0,0,479,2.0,0.0
2192,78.0,15,464,1.0,0.0
2193,81.0,120,104,0.0,0.0
2194,60.0,0,224,3.0,0.0
2195,78.0,135,104,0.0,0.0
2196,59.0,0,239,3.0,0.0
2197,75.0,105,119,0.0,0.0
2198,76.0,105,119,0.0,0.0
2199,69.0,0,239,5.0,0.0
2200,63.0,0,239,5.0,0.0
2201,47.0,0,239,5.0,0.0
2202,66.0,0,239,5.0,0.0
2203,47.0,0,224,4.0,0.0
2204,59.0,105,239,5.0,0.0
2205,78.0,120,104,0.0,0.0
2206,81.0,0,464,1.0,0.0
2207,84.0,15,104,0.0,0.0
2208,71.0,0,239,5.0,0.0
2209,49.0,105,239,5.0,0.0
2210,67.0,0,239,5.0,0.0
2211,64.0,0,239,5.0,0.0
2212,49.0,0,224,4.0,0.0
2213,83.0,120,104,0.0,0.0
2214,61.0,0,239,5.0,0.0
2215,81.0,15,104,0.0,0.0
2216,71.0,0,224,1.0,0.0
2217,79.0,120,104,0.0,0.0
2218,51.0,15,224,4.0,0.0
2219,63.0,0,239,5.0,0.0
2220,51.0,0,239,5.0,0.0
2221,66.0,120,239,5.0,0.0
2222,69.0,0,239,5.0,0.0
2223,71.0,0,239,5.0,0.0
2224,78.0,0,104,0.0,0.0
2225,71.0,0,479,5.0,0.0
2226,52.0,0,479,5.0,0.0
2227,64.0,0,479,5.0,0.0
2228,67.0,105,479,5.0,0.0
2229,52.0,0,479,4.0,0.0
2230,76.0,15,224,1.0,0.0
2231,79.0,105,119,0.0,0.0
2232,78.0,105,119,0.0,0.0
2233,73.0,0,104,3.0,0.0
2234,79.0,0,464,1.0,0.0
2235,76.0,120,104,2.0,0.0
2236,76.0,0,104,0.0,0.0
2237,79.0,0,104,0.0,0.0
2238,71.0,0,104,3.0,0.0
2239,74.0,15,104,2.0,0.0
2240,70.0,0,224,3.0,0.0
2241,78.0,120,104,0.0,0.0
2242,73.0,120,224,2.0,0.0
2243,76.0,0,104,0.0,0.0
2244,74.0,120,104,0.0,0.0
2245,70.0,0,224,1.0,0.0
2246,66.0,0,224,3.0,0.0
2247,78.0,0,224,2.0,0.0
2248,73.0,135,104,0.0,0.0
2249,71.0,0,239,3.0,0.0
2250,71.0,15,224,1.0,0.0
2251,74.0,105,119,0.0,0.0
2252,74.0,0,239,2.0,0.0
2253,76.0,105,119,0.0,0.0
2254,78.0,120,104,0.0,0.0
2255,50.0,0,239,5.0,0.0
2256,62.0,0,239,5.0,0.0
2257,50.0,0,224,4.0,0.0
2258,71.0,105,239,5.0,0.0
2259,83.0,15,464,1.0,0.0
2260,66.0,0,239,5.0,0.0
2261,71.0,15,104,0.0,0.0
2262,74.0,120,104,0.0,0.0
2263,52.0,0,239,5.0,0.0
2264,74.0,0,239,5.0,0.0
2265,67.0,0,239,5.0,0.0
2266,52.0,0,224,4.0,0.0
2267,64.0,30,239,5.0,0.0
2268,71.0,0,239,5.0,0.0
2269,73.0,0,104,0.0,0.0
2270,73.0,30,29,1.0,0.0
2271,54.0,15,224,4.0,0.0
2272,70.0,345,239,5.0,0.0
2273,73.0,0,239,5.0,0.0
2274,54.0,0,239,5.0,0.0
2275,66.0,0,239,5.0,0.0
2276,71.0,15,104,0.0,0.0
2277,74.0,30,29,1.0,0.0
2278,73.0,15,29,1.0,0.0
2279,74.0,30,29,1.0,0.0
2280,73.0,30,29,1.0,0.0
2281,70.0,0,104,0.0,0.0
2282,74.0,30,29,1.0,0.0
2283,71.0,15,29,1.0,0.0
2284,73.0,0,29,1.0,0.0
2285,47.0,105,719,4.0,0.0
2286,62.0,0,719,5.0,0.0
2287,59.0,0,719,5.0,0.0
2288,66.0,0,719,5.0,0.0
2289,47.0,0,719,5.0,0.0
2290,71.0,0,704,0.0,0.0
2291,71.0,15,704,1.0,0.0
2292,62.0,120,104,2.0,0.0
2293,59.0,0,104,3.0,0.0
2294,61.0,0,104,3.0,0.0
2295,64.0,240,104,2.0,0.0
2296,62.0,0,224,3.0,0.0
2297,66.0,0,224,2.0,0.0
2298,66.0,0,104,3.0,0.0
2299,70.0,15,464,1.0,0.0
2300,78.0,120,104,2.0,0.0
2301,73.0,0,104,0.0,0.0
2302,71.0,0,104,0.0,0.0
2303,68.0,0,104,3.0,0.0
2304,76.0,135,104,2.0,0.0
2305,78.0,0,239,2.0,0.0
2306,73.0,105,119,0.0,0.0
2307,70.0,105,239,3.0,0.0
2308,74.0,0,119,0.0,0.0
2309,73.0,0,239,5.0,0.0
2310,61.0,15,224,4.0,0.0
2311,61.0,105,239,5.0,0.0
2312,79.0,0,239,5.0,0.0
2313,82.0,0,239,5.0,0.0
2314,76.0,0,239,5.0,0.0
2315,79.0,15,464,1.0,0.0
2316,76.0,120,104,0.0,0.0
2317,79.0,0,104,0.0,0.0
2318,73.0,0,239,5.0,0.0
2319,78.0,120,104,0.0,0.0
2320,70.0,0,239,5.0,0.0
2321,76.0,0,239,5.0,0.0
2322,58.0,105,239,5.0,0.0
2323,58.0,0,224,4.0,0.0
2324,79.0,0,239,5.0,0.0
2325,76.0,0,104,0.0,0.0
2326,73.0,0,239,5.0,0.0
2327,70.0,0,239,5.0,0.0
2328,66.0,120,239,5.0,0.0
2329,54.0,0,224,4.0,0.0
2330,78.0,15,464,1.0,0.0
2331,74.0,120,104,0.0,0.0
2332,54.0,0,239,5.0,0.0
2333,76.0,0,239,5.0,0.0
2334,73.0,15,104,0.0,0.0
2335,78.0,0,479,5.0,0.0
2336,59.0,0,479,5.0,0.0
2337,59.0,0,479,4.0,0.0
2338,74.0,105,119,0.0,0.0
2339,74.0,105,479,5.0,0.0
2340,71.0,0,479,5.0,0.0
2341,73.0,105,119,0.0,0.0
2342,78.0,0,104,2.0,0.0
2343,71.0,120,104,0.0,0.0
2344,62.0,0,104,3.0,0.0
2345,74.0,0,224,1.0,0.0
2346,73.0,15,104,0.0,0.0
2347,64.0,0,104,3.0,0.0
2348,76.0,0,104,2.0,0.0
2349,74.0,120,104,0.0,0.0
2350,74.0,120,224,2.0,0.0
2351,66.0,0,224,3.0,0.0
2352,71.0,0,224,1.0,0.0
2353,76.0,0,104,0.0,0.0
2354,71.0,0,224,3.0,0.0
2355,71.0,0,224,2.0,0.0
2356,78.0,120,104,0.0,0.0
2357,74.0,15,464,1.0,0.0
2358,74.0,135,104,0.0,0.0
2359,76.0,105,119,0.0,0.0
2360,67.0,0,239,3.0,0.0
2361,83.0,0,239,2.0,0.0
2362,78.0,105,119,0.0,0.0
2363,64.0,15,224,4.0,0.0
2364,83.0,15,464,1.0,0.0
2365,76.0,0,239,5.0,0.0
2366,83.0,0,239,5.0,0.0
2367,64.0,0,239,5.0,0.0
2368,79.0,120,104,0.0,0.0
2369,79.0,105,239,5.0,0.0
2370,83.0,0,104,0.0,0.0
2371,61.0,0,224,4.0,0.0
2372,81.0,120,104,0.0,0.0
2373,73.0,0,239,5.0,0.0
2374,76.0,0,239,5.0,0.0
2375,83.0,0,239,5.0,0.0
2376,79.0,0,239,5.0,0.0
2377,61.0,105,239,5.0,0.0
2378,79.0,0,104,0.0,0.0
2379,57.0,15,224,4.0,0.0
2380,78.0,15,104,0.0,0.0
2381,81.0,0,119,5.0,0.0
2382,73.0,105,119,5.0,0.0
2383,69.0,0,119,5.0,0.0
2384,57.0,0,239,5.0,0.0
2385,76.0,0,119,5.0,0.0
2386,81.0,15,464,1.0,0.0
2387,76.0,0,104,0.0,0.0
2388,73.0,0,119,5.0,0.0
2389,69.0,0,119,5.0,0.0
2390,79.0,0,119,5.0,0.0
2391,76.0,120,119,5.0,0.0
2392,78.0,105,119,0.0,0.0
2393,62.0,0,479,4.0,0.0
2394,81.0,0,479,5.0,0.0
2395,74.0,105,479,5.0,0.0
2396,78.0,0,479,5.0,0.0
2397,62.0,0,479,5.0,0.0
2398,76.0,105,119,0.0,0.0
2399,74.0,0,104,2.0,0.0
2400,74.0,0,104,0.0,0.0
2401,66.0,120,104,3.0,0.0
2402,78.0,0,224,1.0,0.0
2403,76.0,15,104,0.0,0.0
2404,67.0,0,104,3.0,0.0
2405,73.0,0,104,2.0,0.0
2406,78.0,120,104,0.0,0.0
2407,74.0,0,224,1.0,0.0
2408,74.0,0,224,2.0,0.0
2409,69.0,0,224,3.0,0.0
2410,79.0,120,104,0.0,0.0
2411,78.0,15,464,1.0,0.0
2412,81.0,120,104,0.0,0.0
2413,60.0,0,224,3.0,0.0
2414,69.0,0,479,2.0,0.0
2415,78.0,135,104,0.0,0.0
2416,59.0,105,239,3.0,0.0
2417,75.0,105,119,0.0,0.0
2418,76.0,0,119,0.0,0.0
2419,59.0,0,239,5.0,0.0
2420,63.0,0,239,5.0,0.0
2421,69.0,105,239,5.0,0.0
2422,78.0,120,104,0.0,0.0
2423,47.0,15,224,4.0,0.0
2424,47.0,0,239,5.0,0.0
2425,81.0,0,464,1.0,0.0
2426,66.0,0,239,5.0,0.0
2427,84.0,0,104,0.0,0.0
2428,64.0,0,239,5.0,0.0
2429,71.0,105,239,5.0,0.0
2430,49.0,0,239,5.0,0.0
2431,83.0,120,104,0.0,0.0
2432,49.0,15,224,4.0,0.0
2433,61.0,0,239,5.0,0.0
2434,67.0,0,239,5.0,0.0
2435,81.0,0,104,0.0,0.0
2436,71.0,0,239,5.0,0.0
2437,69.0,0,239,5.0,0.0
2438,51.0,120,239,5.0,0.0
2439,63.0,0,239,5.0,0.0
2440,71.0,15,224,1.0,0.0
2441,79.0,120,104,0.0,0.0
2442,66.0,0,239,5.0,0.0
2443,51.0,0,224,4.0,0.0
2444,78.0,0,104,0.0,0.0
2445,79.0,105,119,0.0,0.0
2446,76.0,15,224,1.0,0.0
2447,67.0,105,479,5.0,0.0
2448,64.0,0,479,5.0,0.0
2449,52.0,0,479,4.0,0.0
2450,71.0,0,479,5.0,0.0
2451,52.0,0,479,5.0,0.0
2452,78.0,105,119,0.0,0.0
2453,76.0,120,104,0.0,0.0
2454,73.0,0,104,3.0,0.0
2455,76.0,0,104,2.0,0.0
2456,79.0,0,464,1.0,0.0
2457,74.0,0,104,2.0,0.0
2458,79.0,15,104,0.0,0.0
2459,71.0,0,104,3.0,0.0
2460,73.0,120,224,2.0,0.0
2461,70.0,0,224,3.0,0.0
2462,78.0,120,104,0.0,0.0
2463,76.0,0,104,0.0,0.0
2464,74.0,120,104,0.0,0.0
2465,70.0,0,224,1.0,0.0
2466,78.0,0,224,2.0,0.0
2467,66.0,135,224,3.0,0.0
2468,73.0,0,104,0.0,0.0
2469,74.0,0,239,2.0,0.0
2470,74.0,105,119,0.0,0.0
2471,71.0,105,239,3.0,0.0
2472,71.0,15,224,1.0,0.0
2473,76.0,0,119,0.0,0.0
2474,78.0,120,104,0.0,0.0
2475,83.0,15,464,1.0,0.0
2476,50.0,15,224,4.0,0.0
2477,62.0,0,239,5.0,0.0
2478,66.0,0,239,5.0,0.0
2479,71.0,0,239,5.0,0.0
2480,50.0,105,239,5.0,0.0
2481,71.0,0,104,0.0,0.0
2482,52.0,30,239,5.0,0.0
2483,67.0,0,239,5.0,0.0
2484,71.0,0,239,5.0,0.0
2485,64.0,0,239,5.0,0.0
2486,74.0,0,239,5.0,0.0
2487,74.0,120,104,0.0,0.0
2488,52.0,0,224,4.0,0.0
2489,73.0,0,104,0.0,0.0
2490,71.0,15,104,0.0,0.0
2491,54.0,0,239,5.0,0.0
2492,66.0,0,239,5.0,0.0
2493,73.0,30,29,1.0,0.0
2494,54.0,15,224,4.0,0.0
2495,73.0,0,239,5.0,0.0
2496,70.0,345,239,5.0,0.0
2497,74.0,30,29,1.0,0.0
2498,73.0,15,29,1.0,0.0
2499,74.0,30,29,1.0,0.0
2500,70.0,0,104,0.0,0.0
2501,73.0,30,29,1.0,0.0
2502,74.0,30,29,1.0,0.0
2503,71.0,15,29,1.0,0.0
2504,73.0,0,29,1.0,0.0
2505,71.0,0,704,1.0,0.0
2506,47.0,0,719,5.0,0.0
2507,62.0,0,719,5.0,0.0
2508,66.0,0,719,5.0,0.0
2509,59.0,465,719,5.0,0.0
2510,71.0,15,704,0.0,0.0
2511,47.0,0,719,4.0,0.0
2512,62.0,0,104,2.0,0.0
2513,59.0,120,104,3.0,0.0
2514,61.0,0,104,3.0,0.0
2515,64.0,240,104,2.0,0.0
2516,62.0,0,224,3.0,0.0
2517,66.0,0,224,2.0,0.0
2518,66.0,360,224,1.0,0.0
2519,66.0,0,224,0.0,0.0
2520,71.0,120,584,0.0,0.0
2521,71.0,0,584,1.0,0.0
2522,59.0,15,104,4.0,0.0
2523,78.0,0,119,5.0,0.0
2524,62.0,0,104,3.0,0.0
2525,71.0,105,119,5.0,0.0
2526,59.0,0,119,5.0,0.0
2527,74.0,0,119,5.0,0.0
2528,66.0,0,224,2.0,0.0
2529,61.0,105,119,5.0,0.0
2530,73.0,0,119,5.0,0.0
2531,76.0,0,119,5.0,0.0
2532,79.0,0,119,5.0,0.0
2533,64.0,15,104,3.0,0.0
2534,61.0,0,104,4.0,0.0
2535,74.0,0,239,5.0,0.0
2536,78.0,0,239,5.0,0.0
2537,62.0,0,239,5.0,0.0
2538,83.0,105,239,5.0,0.0
2539,66.0,0,224,3.0,0.0
2540,71.0,0,704,2.0,0.0
2541,62.0,15,224,4.0,0.0
2542,73.0,0,104,0.0,0.0
2543,73.0,0,104,1.0,0.0
2544,61.0,0,224,4.0,0.0
2545,64.0,0,224,3.0,0.0
2546,74.0,0,104,1.0,0.0
2547,74.0,120,104,0.0,0.0
2548,61.0,225,239,5.0,0.0
2549,73.0,0,239,5.0,0.0
2550,82.0,0,239,5.0,0.0
2551,76.0,0,239,5.0,0.0
2552,76.0,15,104,0.0,0.0
2553,76.0,0,104,1.0,0.0
2554,62.0,0,224,3.0,0.0
2555,78.0,0,224,1.0,0.0
2556,78.0,0,224,0.0,0.0
2557,78.0,0,239,5.0,0.0
2558,59.0,15,224,4.0,0.0
2559,71.0,225,239,5.0,0.0
2560,59.0,0,239,5.0,0.0
2561,74.0,0,239,5.0,0.0
2562,79.0,0,224,2.0,0.0
2563,70.0,0,224,1.0,0.0
2564,76.0,225,239,5.0,0.0
2565,64.0,0,224,3.0,0.0
2566,61.0,0,239,5.0,0.0
2567,73.0,0,239,5.0,0.0
2568,82.0,0,239,5.0,0.0
2569,70.0,15,224,0.0,0.0
2570,61.0,0,224,4.0,0.0
2571,71.0,15,224,1.0,0.0
2572,62.0,0,224,4.0,0.0
2573,71.0,0,224,0.0,0.0
2574,66.0,15,704,3.0,0.0
2575,74.0,0,239,5.0,0.0
2576,78.0,0,239,5.0,0.0
2577,62.0,0,239,5.0,0.0
2578,82.0,225,239,5.0,0.0
2579,78.0,0,224,2.0,0.0
2580,70.0,0,224,2.0,0.0
2581,76.0,0,224,0.0,0.0
2582,76.0,0,224,1.0,0.0
2583,82.0,0,239,5.0,0.0
2584,73.0,0,239,5.0,0.0
2585,61.0,15,224,4.0,0.0
2586,61.0,0,239,5.0,0.0
2587,76.0,225,239,5.0,0.0
2588,59.0,0,224,4.0,0.0
2589,71.0,225,239,5.0,0.0
2590,74.0,0,239,5.0,0.0
2591,78.0,0,239,5.0,0.0
2592,71.0,0,224,2.0,0.0
2593,74.0,0,224,1.0,0.0
2594,74.0,0,224,0.0,0.0
2595,59.0,0,239,5.0,0.0
2596,76.0,0,239,5.0,0.0
2597,61.0,0,239,5.0,0.0
2598,82.0,0,239,5.0,0.0
2599,73.0,225,239,5.0,0.0
2600,64.0,0,224,2.0,0.0
2601,79.0,0,224,0.0,0.0
2602,61.0,15,224,4.0,0.0
2603,79.0,0,224,1.0,0.0
2604,70.0,0,224,3.0,0.0
2605,62.0,225,239,5.0,0.0
2606,78.0,0,239,5.0,0.0
2607,74.0,0,239,5.0,0.0
2608,82.0,0,239,5.0,0.0
2609,71.0,0,224,3.0,0.0
2610,78.0,15,224,1.0,0.0
2611,78.0,0,224,0.0,0.0
2612,62.0,0,224,2.0,0.0
2613,62.0,0,224,4.0,0.0
2614,82.0,15,224,0.0,0.0
2615,73.0,0,239,5.0,0.0
2616,61.0,225,239,5.0,0.0
2617,82.0,0,239,5.0,0.0
2618,76.0,0,239,5.0,0.0
2619,73.0,0,224,3.0,0.0
2620,61.0,0,224,4.0,0.0
2621,76.0,0,224,2.0,0.0
2622,82.0,0,224,1.0,0.0
2623,59.0,0,239,5.0,0.0
2624,78.0,0,239,5.0,0.0
2625,59.0,0,224,4.0,0.0
2626,83.0,0,224,1.0,0.0
2627,74.0,0,224,2.0,0.0
2628,66.0,0,224,3.0,0.0
2629,83.0,15,224,0.0,0.0
2630,74.0,105,239,5.0,0.0
2631,71.0,0,239,5.0,0.0
2632,76.0,0,224,2.0,0.0
2633,61.0,0,224,4.0,0.0
2634,64.0,0,224,3.0,0.0
2635,81.0,120,104,1.0,0.0
2636,76.0,105,239,5.0,0.0
2637,81.0,0,104,0.0,0.0
2638,73.0,0,239,5.0,0.0
2639,61.0,0,239,5.0,0.0
2640,82.0,0,239,5.0,0.0
2641,79.0,0,104,0.0,0.0
2642,79.0,15,104,1.0,0.0
2643,78.0,0,224,2.0,0.0
2644,82.0,0,239,5.0,0.0
2645,62.0,0,224,3.0,0.0
2646,78.0,0,104,1.0,0.0
2647,74.0,0,239,5.0,0.0
2648,62.0,15,224,4.0,0.0
2649,78.0,0,239,5.0,0.0
2650,62.0,105,239,5.0,0.0
2651,78.0,120,104,0.0,0.0
2652,79.0,0,104,1.0,0.0
2653,79.0,0,104,0.0,0.0
2654,61.0,0,239,5.0,0.0
2655,73.0,0,239,5.0,0.0
2656,70.0,0,224,2.0,0.0
2657,76.0,0,239,5.0,0.0
2658,76.0,0,104,0.0,0.0
2659,76.0,120,104,1.0,0.0
2660,61.0,0,224,4.0,0.0
2661,82.0,105,239,5.0,0.0
2662,64.0,15,224,3.0,0.0
2663,78.0,0,104,0.0,0.0
2664,78.0,0,104,1.0,0.0
2665,74.0,0,104,0.0,0.0
2666,74.0,120,104,1.0,0.0
2667,71.0,0,224,2.0,0.0
2668,71.0,0,239,5.0,0.0
2669,66.0,0,224,3.0,0.0
2670,59.0,0,224,4.0,0.0
2671,59.0,0,239,5.0,0.0
2672,78.0,105,239,5.0,0.0
2673,74.0,0,239,5.0,0.0
2674,76.0,15,104,1.0,0.0
2675,76.0,0,104,0.0,0.0
2676,73.0,0,104,0.0,0.0
2677,64.0,0,224,3.0,0.0
2678,73.0,120,104,1.0,0.0
2679,61.0,0,239,5.0,0.0
2680,82.0,0,239,5.0,0.0
2681,76.0,105,239,5.0,0.0
2682,73.0,0,239,5.0,0.0
2683,70.0,0,224,2.0,0.0
2684,61.0,0,224,4.0,0.0
2685,74.0,0,104,0.0,0.0
2686,74.0,15,104,1.0,0.0
2687,71.0,0,224,2.0,0.0
2688,66.0,120,584,3.0,0.0
2689,62.0,15,224,4.0,0.0
2690,71.0,0,104,1.0,0.0
2691,74.0,0,239,5.0,0.0
2692,71.0,120,104,0.0,0.0
2693,78.0,0,239,5.0,0.0
2694,62.0,0,239,5.0,0.0
2695,83.0,105,239,5.0,0.0
2696,73.0,0,104,1.0,0.0
2697,73.0,0,104,0.0,0.0
2698,69.0,120,104,0.0,0.0
2699,61.0,0,224,4.0,0.0
2700,73.0,0,224,2.0,0.0
2701,82.0,0,239,5.0,0.0
2702,73.0,105,239,5.0,0.0
2703,78.0,0,239,5.0,0.0
2704,61.0,0,239,5.0,0.0
2705,69.0,0,104,1.0,0.0
2706,74.0,0,239,5.0,0.0
2707,71.0,15,104,1.0,0.0
2708,71.0,0,104,0.0,0.0
2709,67.0,0,224,0.0,0.0
2710,59.0,0,224,4.0,0.0
2711,74.0,0,224,2.0,0.0
2712,59.0,0,239,5.0,0.0
2713,71.0,0,239,5.0,0.0
2714,67.0,15,224,1.0,0.0
2715,79.0,0,239,5.0,0.0
2716,74.0,105,239,5.0,0.0
2717,78.0,0,239,5.0,0.0
2718,67.0,0,104,3.0,0.0
2719,76.0,0,224,0.0,0.0
2720,69.0,120,344,2.0,0.0
2721,61.0,0,224,4.0,0.0
2722,64.0,120,104,3.0,0.0
2723,76.0,15,224,1.0,0.0
2724,76.0,0,239,5.0,0.0
2725,73.0,105,239,5.0,0.0
2726,79.0,0,239,5.0,0.0
2727,61.0,0,239,5.0,0.0
2728,81.0,0,239,5.0,0.0
2729,66.0,0,104,3.0,0.0
2730,74.0,0,239,5.0,0.0
2731,62.0,105,239,5.0,0.0
2732,81.0,0,239,5.0,0.0
2733,62.0,0,224,4.0,0.0
2734,78.0,0,239,5.0,0.0
2735,66.0,0,224,1.0,0.0
2736,66.0,15,224,0.0,0.0
2737,62.0,0,224,3.0,0.0
2738,67.0,0,104,2.0,0.0
2739,64.0,0,224,3.0,0.0
2740,81.0,225,239,5.0,0.0
2741,69.0,15,224,0.0,0.0
2742,61.0,0,239,5.0,0.0
2743,74.0,0,239,5.0,0.0
2744,69.0,0,224,1.0,0.0
2745,61.0,0,224,4.0,0.0
2746,78.0,0,239,5.0,0.0
2747,73.0,0,239,5.0,0.0
2748,66.0,120,104,2.0,0.0
2749,64.0,0,104,2.0,0.0
2750,74.0,15,224,1.0,0.0
2751,62.0,0,224,2.0,0.0
2752,66.0,0,224,3.0,0.0
2753,74.0,0,239,5.0,0.0
2754,71.0,0,239,5.0,0.0
2755,78.0,225,239,5.0,0.0
2756,59.0,0,239,5.0,0.0
2757,74.0,0,224,0.0,0.0
2758,59.0,0,224,4.0,0.0
2759,79.0,15,224,1.0,0.0
2760,71.0,0,224,3.0,0.0
2761,74.0,30,239,5.0,0.0
2762,55.0,0,239,5.0,0.0
2763,74.0,0,224,2.0,0.0
2764,79.0,0,224,0.0,0.0
2765,55.0,0,224,4.0,0.0
2766,67.0,0,239,5.0,0.0
2767,71.0,0,239,5.0,0.0
2768,74.0,0,224,2.0,0.0
2769,78.0,0,239,5.0,0.0
2770,57.0,0,239,5.0,0.0
2771,78.0,15,224,1.0,0.0
2772,69.0,0,224,3.0,0.0
2773,69.0,105,239,5.0,0.0
2774,78.0,30,29,0.0,0.0
2775,74.0,0,239,5.0,0.0
2776,57.0,0,224,4.0,0.0
2777,79.0,30,29,0.0,0.0
2778,78.0,30,29,0.0,0.0
2779,79.0,30,29,0.0,0.0
2780,78.0,30,29,0.0,0.0
2781,79.0,30,29,0.0,0.0
2782,76.0,15,29,0.0,0.0
2783,78.0,0,29,0.0,0.0
2784,67.0,0,224,3.0,0.0
2785,45.0,15,224,4.0,0.0
2786,45.0,0,239,5.0,0.0
2787,57.0,0,239,5.0,0.0
2788,64.0,0,239,5.0,0.0
2789,76.0,120,104,0.0,0.0
2790,76.0,0,104,1.0,0.0
2791,61.0,225,239,5.0,0.0
2792,73.0,0,224,2.0,0.0
2793,74.0,0,104,1.0,0.0
2794,74.0,0,104,0.0,0.0
2795,50.0,225,239,5.0,0.0
2796,50.0,15,224,4.0,0.0
2797,74.0,15,704,1.0,0.0
2798,62.0,0,239,5.0,0.0
2799,74.0,0,704,0.0,0.0
2800,66.0,0,719,3.0,0.0
2801,66.0,0,239,5.0,0.0
2802,69.0,0,719,2.0,0.0
2803,69.0,0,239,5.0,0.0
2804,45.0,0,239,5.0,0.0
2805,57.0,0,239,5.0,0.0
2806,64.0,0,239,5.0,0.0
2807,61.0,225,239,5.0,0.0
2808,45.0,15,224,4.0,0.0
2809,38.0,225,239,4.0,0.0
2810,38.0,0,239,5.0,0.0
2811,54.0,0,239,5.0,0.0
2812,50.0,0,239,5.0,0.0
2813,57.0,0,239,5.0,0.0
2814,66.0,360,224,0.0,0.0
2815,66.0,0,224,1.0,0.0
2816,71.0,120,584,1.0,0.0
2817,71.0,0,584,0.0,0.0
2818,78.0,0,119,5.0,0.0
2819,59.0,15,104,4.0,0.0
2820,59.0,0,119,5.0,0.0
2821,71.0,0,119,5.0,0.0
2822,62.0,0,104,3.0,0.0
2823,74.0,105,119,5.0,0.0
2824,66.0,0,224,2.0,0.0
2825,64.0,0,104,3.0,0.0
2826,61.0,0,119,5.0,0.0
2827,73.0,0,119,5.0,0.0
2828,76.0,0,119,5.0,0.0
2829,79.0,105,119,5.0,0.0
2830,61.0,15,104,4.0,0.0
2831,62.0,15,224,4.0,0.0
2832,66.0,0,224,3.0,0.0
2833,71.0,0,704,2.0,0.0
2834,83.0,0,239,5.0,0.0
2835,74.0,0,239,5.0,0.0
2836,78.0,105,239,5.0,0.0
2837,62.0,0,239,5.0,0.0
2838,73.0,0,104,1.0,0.0
2839,73.0,0,104,0.0,0.0
2840,64.0,0,224,3.0,0.0
2841,74.0,0,104,1.0,0.0
2842,61.0,0,224,4.0,0.0
2843,82.0,0,239,5.0,0.0
2844,61.0,225,239,5.0,0.0
2845,73.0,0,239,5.0,0.0
2846,76.0,0,239,5.0,0.0
2847,74.0,120,104,0.0,0.0
2848,76.0,15,104,1.0,0.0
2849,76.0,0,104,0.0,0.0
2850,78.0,0,224,1.0,0.0
2851,74.0,0,239,5.0,0.0
2852,59.0,225,239,5.0,0.0
2853,78.0,0,239,5.0,0.0
2854,78.0,0,224,0.0,0.0
2855,71.0,0,239,5.0,0.0
2856,62.0,0,224,3.0,0.0
2857,59.0,15,224,4.0,0.0
2858,61.0,0,239,5.0,0.0
2859,64.0,0,224,3.0,0.0
2860,79.0,0,224,2.0,0.0
2861,73.0,0,239,5.0,0.0
2862,61.0,0,224,4.0,0.0
2863,70.0,15,224,1.0,0.0
2864,76.0,0,239,5.0,0.0
2865,70.0,0,224,0.0,0.0
2866,82.0,225,239,5.0,0.0
2867,62.0,0,224,4.0,0.0
2868,71.0,0,224,1.0,0.0
2869,78.0,0,239,5.0,0.0
2870,82.0,225,239,5.0,0.0
2871,74.0,0,239,5.0,0.0
2872,62.0,0,239,5.0,0.0
2873,66.0,15,704,3.0,0.0
2874,78.0,0,224,2.0,0.0
2875,71.0,15,224,0.0,0.0
2876,70.0,15,224,2.0,0.0
2877,73.0,0,239,5.0,0.0
2878,76.0,0,224,0.0,0.0
2879,76.0,0,224,1.0,0.0
2880,82.0,225,239,5.0,0.0
2881,76.0,0,239,5.0,0.0
2882,61.0,0,239,5.0,0.0
2883,61.0,0,224,4.0,0.0
2884,59.0,225,239,5.0,0.0
2885,74.0,0,239,5.0,0.0
2886,74.0,0,224,0.0,0.0
2887,74.0,0,224,1.0,0.0
2888,78.0,0,239,5.0,0.0
2889,71.0,0,239,5.0,0.0
2890,59.0,0,224,4.0,0.0
2891,71.0,0,224,2.0,0.0
2892,82.0,0,239,5.0,0.0
2893,79.0,0,224,1.0,0.0
2894,79.0,15,224,0.0,0.0
2895,61.0,225,239,5.0,0.0
2896,73.0,0,239,5.0,0.0
2897,61.0,0,224,4.0,0.0
2898,64.0,0,224,2.0,0.0
2899,76.0,0,239,5.0,0.0
2900,70.0,0,224,3.0,0.0
2901,71.0,0,224,3.0,0.0
2902,78.0,0,224,0.0,0.0
2903,62.0,0,224,2.0,0.0
2904,78.0,15,224,1.0,0.0
2905,62.0,0,224,4.0,0.0
2906,82.0,0,239,5.0,0.0
2907,74.0,225,239,5.0,0.0
2908,62.0,0,239,5.0,0.0
2909,78.0,0,239,5.0,0.0
2910,76.0,0,224,2.0,0.0
2911,82.0,15,224,0.0,0.0
2912,76.0,0,239,5.0,0.0
2913,73.0,0,239,5.0,0.0
2914,82.0,225,239,5.0,0.0
2915,61.0,0,224,4.0,0.0
2916,73.0,0,224,3.0,0.0
2917,61.0,0,239,5.0,0.0
2918,82.0,0,224,1.0,0.0
2919,83.0,15,224,0.0,0.0
2920,59.0,0,224,4.0,0.0
2921,66.0,0,224,3.0,0.0
2922,74.0,0,239,5.0,0.0
2923,74.0,0,224,2.0,0.0
2924,59.0,105,239,5.0,0.0
2925,71.0,0,239,5.0,0.0
2926,83.0,0,224,1.0,0.0
2927,78.0,0,239,5.0,0.0
2928,61.0,0,224,4.0,0.0
2929,76.0,0,224,2.0,0.0
2930,82.0,0,239,5.0,0.0
2931,76.0,0,239,5.0,0.0
2932,61.0,0,239,5.0,0.0
2933,64.0,15,224,3.0,0.0
2934,73.0,105,239,5.0,0.0
2935,81.0,120,104,1.0,0.0
2936,81.0,0,104,0.0,0.0
2937,79.0,0,104,1.0,0.0
2938,79.0,0,104,0.0,0.0
2939,78.0,120,104,0.0,0.0
2940,74.0,0,239,5.0,0.0
2941,62.0,15,224,4.0,0.0
2942,62.0,0,224,3.0,0.0
2943,78.0,0,104,1.0,0.0
2944,78.0,0,239,5.0,0.0
2945,62.0,0,239,5.0,0.0
2946,82.0,105,239,5.0,0.0
2947,78.0,0,224,2.0,0.0
2948,79.0,0,104,0.0,0.0
2949,79.0,0,104,1.0,0.0
2950,76.0,0,104,1.0,0.0
2951,70.0,0,224,2.0,0.0
2952,61.0,0,224,4.0,0.0
2953,61.0,0,239,5.0,0.0
2954,82.0,0,239,5.0,0.0
2955,76.0,105,239,5.0,0.0
2956,73.0,0,239,5.0,0.0
2957,64.0,0,224,3.0,0.0
2958,76.0,120,104,0.0,0.0
2959,78.0,15,104,1.0,0.0
2960,78.0,0,104,0.0,0.0
2961,66.0,0,224,3.0,0.0
2962,59.0,0,224,4.0,0.0
2963,71.0,0,224,2.0,0.0
2964,71.0,0,239,5.0,0.0
2965,78.0,0,239,5.0,0.0
2966,59.0,0,239,5.0,0.0
2967,74.0,105,239,5.0,0.0
2968,74.0,0,104,0.0,0.0
2969,74.0,120,104,1.0,0.0
2970,76.0,0,104,1.0,0.0
2971,76.0,15,104,0.0,0.0
2972,61.0,15,224,4.0,0.0
2973,64.0,0,224,3.0,0.0
2974,73.0,120,104,0.0,0.0
2975,70.0,0,224,2.0,0.0
2976,82.0,0,239,5.0,0.0
2977,73.0,0,239,5.0,0.0
2978,76.0,0,239,5.0,0.0
2979,61.0,105,239,5.0,0.0
2980,73.0,0,104,1.0,0.0
2981,74.0,0,104,0.0,0.0
2982,74.0,0,104,1.0,0.0
2983,71.0,0,224,2.0,0.0
2984,78.0,0,239,5.0,0.0
2985,71.0,0,104,0.0,0.0
2986,66.0,120,584,3.0,0.0
2987,83.0,105,239,5.0,0.0
2988,71.0,120,104,1.0,0.0
2989,62.0,0,239,5.0,0.0
2990,62.0,0,224,4.0,0.0
2991,74.0,0,239,5.0,0.0
2992,73.0,0,104,1.0,0.0
2993,73.0,15,104,0.0,0.0
2994,61.0,0,224,4.0,0.0
2995,74.0,0,239,5.0,0.0
2996,69.0,0,104,0.0,0.0
2997,73.0,15,224,2.0,0.0
2998,78.0,105,239,5.0,0.0
2999,69.0,120,104,1.0,0.0
3000,61.0,0,239,5.0,0.0
3001,73.0,0,239,5.0,0.0
3002,82.0,0,239,5.0,0.0
3003,71.0,0,104,0.0,0.0
3004,71.0,0,104,1.0,0.0
3005,59.0,0,239,5.0,0.0
3006,59.0,0,224,4.0,0.0
3007,79.0,0,239,5.0,0.0
3008,71.0,0,239,5.0,0.0
3009,74.0,0,239,5.0,0.0
3010,74.0,0,224,2.0,0.0
3011,78.0,105,239,5.0,0.0
3012,67.0,0,224,0.0,0.0
3013,67.0,15,224,1.0,0.0
3014,67.0,0,104,3.0,0.0
3015,69.0,120,344,2.0,0.0
3016,64.0,120,104,3.0,0.0
3017,76.0,0,224,1.0,0.0
3018,61.0,0,224,4.0,0.0
3019,76.0,15,224,0.0,0.0
3020,61.0,105,239,5.0,0.0
3021,79.0,0,239,5.0,0.0
3022,73.0,0,239,5.0,0.0
3023,81.0,0,239,5.0,0.0
3024,76.0,0,239,5.0,0.0
3025,66.0,0,104,3.0,0.0
3026,62.0,0,224,4.0,0.0
3027,78.0,0,239,5.0,0.0
3028,62.0,0,239,5.0,0.0
3029,66.0,0,224,0.0,0.0
3030,74.0,0,239,5.0,0.0
3031,66.0,0,224,1.0,0.0
3032,62.0,15,224,3.0,0.0
3033,81.0,105,239,5.0,0.0
3034,67.0,0,104,2.0,0.0
3035,74.0,0,239,5.0,0.0
3036,73.0,225,239,5.0,0.0
3037,78.0,0,239,5.0,0.0
3038,64.0,0,224,3.0,0.0
3039,69.0,0,224,1.0,0.0
3040,61.0,0,239,5.0,0.0
3041,81.0,0,239,5.0,0.0
3042,66.0,120,104,2.0,0.0
3043,69.0,15,224,0.0,0.0
3044,61.0,0,224,4.0,0.0
3045,64.0,0,104,2.0,0.0
3046,59.0,0,239,5.0,0.0
3047,78.0,0,239,5.0,0.0
3048,71.0,0,239,5.0,0.0
3049,66.0,15,224,3.0,0.0
3050,74.0,225,239,5.0,0.0
3051,59.0,0,224,4.0,0.0
3052,62.0,0,224,2.0,0.0
3053,74.0,0,224,1.0,0.0
3054,74.0,0,224,0.0,0.0
3055,74.0,0,224,2.0,0.0
3056,74.0,0,239,5.0,0.0
3057,55.0,0,239,5.0,0.0
3058,55.0,0,224,4.0,0.0
3059,71.0,15,224,3.0,0.0
3060,67.0,0,239,5.0,0.0
3061,79.0,0,224,0.0,0.0
3062,79.0,0,224,1.0,0.0
3063,71.0,30,239,5.0,0.0
3064,74.0,0,239,5.0,0.0
3065,78.0,0,239,5.0,0.0
3066,74.0,0,224,2.0,0.0
3067,69.0,0,239,5.0,0.0
3068,78.0,0,224,1.0,0.0
3069,57.0,0,239,5.0,0.0
3070,69.0,0,224,3.0,0.0
3071,78.0,30,29,0.0,0.0
3072,57.0,15,224,4.0,0.0
3073,79.0,30,29,0.0,0.0
3074,78.0,30,29,0.0,0.0
3075,79.0,30,29,0.0,0.0
3076,78.0,30,29,0.0,0.0
3077,79.0,30,29,0.0,0.0
3078,76.0,15,29,0.0,0.0
3079,78.0,105,29,0.0,0.0
3080,45.0,225,239,5.0,0.0
3081,61.0,0,239,5.0,0.0
3082,64.0,0,239,5.0,0.0
3083,57.0,0,239,5.0,0.0
3084,73.0,15,224,2.0,0.0
3085,45.0,0,224,4.0,0.0
3086,67.0,0,224,3.0,0.0
3087,76.0,120,104,0.0,0.0
3088,76.0,0,104,1.0,0.0
3089,74.0,0,104,0.0,0.0
3090,74.0,0,104,1.0,0.0
3091,62.0,225,239,5.0,0.0
3092,50.0,0,239,5.0,0.0
3093,69.0,0,239,5.0,0.0
3094,66.0,0,239,5.0,0.0
3095,74.0,0,704,1.0,0.0
3096,74.0,15,704,0.0,0.0
3097,69.0,0,719,2.0,0.0
3098,66.0,0,719,3.0,0.0
3099,50.0,15,224,4.0,0.0
3100,45.0,0,239,5.0,0.0
3101,45.0,15,224,4.0,0.0
3102,57.0,0,239,5.0,0.0
3103,61.0,225,239,5.0,0.0
3104,64.0,0,239,5.0,0.0
3105,54.0,0,239,5.0,0.0
3106,57.0,0,239,5.0,0.0
3107,50.0,0,239,5.0,0.0
3108,38.0,225,239,4.0,0.0
3109,38.0,0,239,5.0,0.0
3110,69.0,0,224,0.0,0.0
3111,69.0,360,224,1.0,0.0
3112,74.0,0,584,1.0,0.0
3113,74.0,120,584,0.0,0.0
3114,50.0,0,104,4.0,0.0
3115,69.0,105,119,5.0,0.0
3116,62.0,0,119,5.0,0.0
3117,66.0,15,104,3.0,0.0
3118,69.0,15,224,2.0,0.0
3119,50.0,0,119,5.0,0.0
3120,66.0,0,119,5.0,0.0
3121,67.0,0,104,3.0,0.0
3122,52.0,0,119,5.0,0.0
3123,71.0,0,119,5.0,0.0
3124,67.0,0,119,5.0,0.0
3125,64.0,105,119,5.0,0.0
3126,52.0,0,104,4.0,0.0
3127,69.0,0,224,3.0,0.0
3128,74.0,0,584,2.0,0.0
3129,66.0,0,239,5.0,0.0
3130,54.0,0,239,5.0,0.0
3131,69.0,105,239,5.0,0.0
3132,54.0,0,224,4.0,0.0
3133,74.0,0,239,5.0,0.0
3134,76.0,0,104,0.0,0.0
3135,76.0,15,104,1.0,0.0
3136,78.0,0,104,1.0,0.0
3137,67.0,0,224,3.0,0.0
3138,78.0,120,104,0.0,0.0
3139,52.0,0,224,4.0,0.0
3140,67.0,0,239,5.0,0.0
3141,52.0,105,239,5.0,0.0
3142,64.0,0,239,5.0,0.0
3143,73.0,0,239,5.0,0.0
3144,79.0,0,104,1.0,0.0
3145,79.0,15,104,0.0,0.0
3146,69.0,0,239,5.0,0.0
3147,62.0,0,239,5.0,0.0
3148,66.0,0,239,5.0,0.0
3149,50.0,105,239,5.0,0.0
3150,50.0,0,224,4.0,0.0
3151,81.0,0,104,0.0,0.0
3152,66.0,0,224,3.0,0.0
3153,81.0,120,104,1.0,0.0
3154,79.0,0,104,0.0,0.0
3155,71.0,0,104,2.0,0.0
3156,79.0,15,104,1.0,0.0
3157,69.0,0,104,2.0,0.0
3158,78.0,120,104,0.0,0.0
3159,52.0,0,224,4.0,0.0
3160,73.0,0,239,5.0,0.0
3161,67.0,0,224,3.0,0.0
3162,67.0,0,239,5.0,0.0
3163,64.0,0,239,5.0,0.0
3164,52.0,105,239,5.0,0.0
3165,78.0,0,104,1.0,0.0
3166,76.0,0,104,1.0,0.0
3167,76.0,0,104,0.0,0.0
3168,67.0,15,104,2.0,0.0
3169,66.0,0,104,2.0,0.0
3170,54.0,0,224,4.0,0.0
3171,54.0,0,239,5.0,0.0
3172,74.0,0,224,1.0,0.0
3173,69.0,120,104,3.0,0.0
3174,66.0,0,239,5.0,0.0
3175,74.0,105,239,5.0,0.0
3176,69.0,0,239,5.0,0.0
3177,74.0,0,224,0.0,0.0
3178,67.0,0,104,2.0,0.0
3179,67.0,15,104,3.0,0.0
3180,72.0,0,239,5.0,0.0
3181,67.0,225,239,5.0,0.0
3182,52.0,0,239,5.0,0.0
3183,64.0,0,239,5.0,0.0
3184,72.0,0,224,1.0,0.0
3185,72.0,15,224,0.0,0.0
3186,69.0,0,464,2.0,0.0
3187,66.0,120,104,3.0,0.0
3188,52.0,0,224,4.0,0.0
3189,64.0,0,104,3.0,0.0
3190,71.0,0,239,5.0,0.0
3191,63.0,0,239,5.0,0.0
3192,66.0,0,239,5.0,0.0
3193,71.0,15,224,1.0,0.0
3194,51.0,225,239,5.0,0.0
3195,69.0,0,239,5.0,0.0
3196,66.0,0,224,3.0,0.0
3197,51.0,0,224,4.0,0.0
3198,71.0,0,224,0.0,0.0
3199,67.0,0,239,5.0,0.0
3200,64.0,0,239,5.0,0.0
3201,52.0,225,239,5.0,0.0
3202,71.0,0,224,3.0,0.0
3203,76.0,0,224,1.0,0.0
3204,76.0,0,224,0.0,0.0
3205,67.0,0,224,2.0,0.0
3206,71.0,0,239,5.0,0.0
3207,52.0,15,224,4.0,0.0
3208,54.0,0,224,4.0,0.0
3209,66.0,0,224,2.0,0.0
3210,75.0,225,239,5.0,0.0
3211,69.0,0,224,3.0,0.0
3212,66.0,0,239,5.0,0.0
3213,69.0,0,239,5.0,0.0
3214,75.0,0,224,0.0,0.0
3215,54.0,0,239,5.0,0.0
3216,75.0,15,224,1.0,0.0
3217,81.0,0,224,0.0,0.0
3218,69.0,0,239,5.0,0.0
3219,71.0,0,239,5.0,0.0
3220,66.0,30,239,5.0,0.0
3221,63.0,0,239,5.0,0.0
3222,51.0,0,239,5.0,0.0
3223,78.0,0,224,2.0,0.0
3224,51.0,0,224,4.0,0.0
3225,71.0,15,464,3.0,0.0
3226,81.0,15,224,1.0,0.0
3227,76.0,0,224,2.0,0.0
3228,52.0,0,239,5.0,0.0
3229,64.0,0,239,5.0,0.0
3230,67.0,0,239,5.0,0.0
3231,71.0,0,239,5.0,0.0
3232,79.0,30,29,0.0,0.0
3233,79.0,0,224,1.0,0.0
3234,52.0,0,224,4.0,0.0
3235,81.0,30,29,0.0,0.0
3236,79.0,30,29,0.0,0.0
3237,81.0,30,29,0.0,0.0
3238,79.0,30,29,0.0,0.0
3239,81.0,30,29,0.0,0.0
3240,78.0,15,29,0.0,0.0
3241,79.0,105,29,0.0,0.0
3242,75.0,15,224,2.0,0.0
3243,54.0,0,224,4.0,0.0
3244,69.0,0,224,3.0,0.0
3245,78.0,120,104,1.0,0.0
3246,66.0,105,239,5.0,0.0
3247,78.0,0,104,0.0,0.0
3248,54.0,0,239,5.0,0.0
3249,75.0,0,239,5.0,0.0
3250,69.0,0,239,5.0,0.0
3251,79.0,0,104,0.0,0.0
3252,79.0,0,104,1.0,0.0
3253,71.0,0,104,3.0,0.0
3254,76.0,0,104,1.0,0.0
3255,76.0,0,704,2.0,0.0
3256,55.0,0,224,4.0,0.0
3257,75.0,0,239,5.0,0.0
3258,67.0,0,239,5.0,0.0
3259,71.0,0,239,5.0,0.0
3260,76.0,120,104,0.0,0.0
3261,55.0,105,239,5.0,0.0
3262,69.0,15,104,3.0,0.0
3263,71.0,0,104,0.0,0.0
3264,71.0,0,104,1.0,0.0
3265,76.0,0,104,1.0,0.0
3266,67.0,120,104,3.0,0.0
3267,69.0,105,239,5.0,0.0
3268,66.0,0,239,5.0,0.0
3269,75.0,0,239,5.0,0.0
3270,54.0,0,224,4.0,0.0
3271,76.0,0,104,0.0,0.0
3272,54.0,0,239,5.0,0.0
3273,78.0,0,104,1.0,0.0
3274,78.0,0,104,0.0,0.0
3275,69.0,15,104,3.0,0.0
3276,52.0,105,239,5.0,0.0
3277,67.0,0,239,5.0,0.0
3278,64.0,0,239,5.0,0.0
3279,52.0,15,224,4.0,0.0
3280,71.0,0,239,5.0,0.0
3281,79.0,120,104,1.0,0.0
3282,71.0,0,224,3.0,0.0
3283,79.0,0,104,0.0,0.0
3284,81.0,0,104,1.0,0.0
3285,81.0,0,104,0.0,0.0
3286,54.0,0,239,5.0,0.0
3287,70.0,0,239,5.0,0.0
3288,78.0,120,104,0.0,0.0
3289,70.0,0,224,2.0,0.0
3290,78.0,0,104,1.0,0.0
3291,62.0,0,224,3.0,0.0
3292,66.0,105,239,5.0,0.0
3293,54.0,0,224,4.0,0.0
3294,74.0,0,239,5.0,0.0
3295,79.0,0,104,0.0,0.0
3296,79.0,15,104,1.0,0.0
3297,76.0,0,239,5.0,0.0
3298,67.0,0,239,5.0,0.0
3299,71.0,0,239,5.0,0.0
3300,55.0,105,239,5.0,0.0
3301,71.0,120,584,2.0,0.0
3302,76.0,120,104,1.0,0.0
3303,76.0,0,104,0.0,0.0
3304,55.0,0,224,4.0,0.0
3305,59.0,0,224,3.0,0.0
3306,78.0,0,104,1.0,0.0
3307,78.0,15,104,0.0,0.0
3308,66.0,15,224,3.0,0.0
3309,74.0,0,104,0.0,0.0
3310,66.0,105,239,5.0,0.0
3311,74.0,120,104,1.0,0.0
3312,71.0,0,239,5.0,0.0
3313,54.0,0,239,5.0,0.0
3314,54.0,0,224,4.0,0.0
3315,74.0,0,239,5.0,0.0
3316,76.0,0,104,1.0,0.0
3317,76.0,0,104,0.0,0.0
3318,71.0,0,239,5.0,0.0
3319,73.0,15,224,0.0,0.0
3320,52.0,0,224,4.0,0.0
3321,67.0,0,239,5.0,0.0
3322,64.0,0,239,5.0,0.0
3323,52.0,105,239,5.0,0.0
3324,73.0,0,224,1.0,0.0
3325,67.0,0,224,3.0,0.0
3326,73.0,0,239,5.0,0.0
3327,73.0,0,104,2.0,0.0
3328,66.0,0,224,3.0,0.0
3329,82.0,0,224,1.0,0.0
3330,74.0,120,104,2.0,0.0
3331,54.0,15,224,4.0,0.0
3332,82.0,0,224,0.0,0.0
3333,73.0,0,239,5.0,0.0
3334,70.0,105,239,5.0,0.0
3335,66.0,0,239,5.0,0.0
3336,54.0,0,239,5.0,0.0
3337,76.0,0,104,2.0,0.0
3338,59.0,0,224,3.0,0.0
3339,74.0,0,239,5.0,0.0
3340,83.0,15,224,0.0,0.0
3341,55.0,105,239,5.0,0.0
3342,74.0,120,104,2.0,0.0
3343,71.0,0,239,5.0,0.0
3344,55.0,0,224,4.0,0.0
3345,67.0,0,239,5.0,0.0
3346,83.0,0,224,1.0,0.0
3347,73.0,0,104,2.0,0.0
3348,54.0,0,224,4.0,0.0
3349,71.0,105,239,5.0,0.0
3350,54.0,0,239,5.0,0.0
3351,71.0,120,104,2.0,0.0
3352,66.0,0,239,5.0,0.0
3353,74.0,0,464,0.0,0.0
3354,74.0,15,464,1.0,0.0
3355,66.0,15,224,3.0,0.0
3356,74.0,0,239,5.0,0.0
3357,69.0,0,104,2.0,0.0
3358,52.0,0,224,4.0,0.0
3359,64.0,105,239,5.0,0.0
3360,52.0,0,239,5.0,0.0
3361,74.0,0,239,5.0,0.0
3362,67.0,0,239,5.0,0.0
3363,71.0,0,239,5.0,0.0
3364,67.0,120,104,2.0,0.0
3365,71.0,0,224,3.0,0.0
3366,66.0,0,104,2.0,0.0
3367,73.0,0,104,1.0,0.0
3368,54.0,0,224,4.0,0.0
3369,70.0,0,224,3.0,0.0
3370,64.0,0,104,2.0,0.0
3371,73.0,120,104,0.0,0.0
3372,66.0,0,239,5.0,0.0
3373,73.0,0,239,5.0,0.0
3374,54.0,105,239,5.0,0.0
3375,70.0,0,239,5.0,0.0
3376,74.0,15,104,1.0,0.0
3377,74.0,0,104,0.0,0.0
3378,62.0,0,104,2.0,0.0
3379,61.0,120,104,2.0,0.0
3380,55.0,15,224,4.0,0.0
3381,71.0,0,224,3.0,0.0
3382,76.0,0,239,5.0,0.0
3383,76.0,0,104,0.0,0.0
3384,55.0,0,239,5.0,0.0
3385,67.0,105,239,5.0,0.0
3386,76.0,0,104,1.0,0.0
3387,71.0,0,239,5.0,0.0
3388,74.0,0,104,1.0,0.0
3389,74.0,0,104,0.0,0.0
3390,59.0,0,104,2.0,0.0
3391,67.0,15,224,2.0,0.0
3392,64.0,0,239,5.0,0.0
3393,67.0,0,239,5.0,0.0
3394,73.0,105,239,5.0,0.0
3395,52.0,0,239,5.0,0.0
3396,71.0,0,239,5.0,0.0
3397,64.0,0,224,3.0,0.0
3398,73.0,0,104,0.0,0.0
3399,73.0,120,104,1.0,0.0
3400,52.0,0,224,4.0,0.0
3401,71.0,0,104,0.0,0.0
3402,71.0,0,104,1.0,0.0
3403,54.0,0,224,4.0,0.0
3404,66.0,0,239,5.0,0.0
3405,70.0,105,239,5.0,0.0
3406,54.0,0,239,5.0,0.0
3407,70.0,0,104,1.0,0.0
3408,66.0,0,704,2.0,0.0
3409,73.0,0,239,5.0,0.0
3410,70.0,120,104,0.0,0.0
3411,61.0,0,224,3.0,0.0
3412,71.0,0,104,0.0,0.0
3413,71.0,15,104,1.0,0.0
3414,71.0,0,239,5.0,0.0
3415,64.0,0,239,5.0,0.0
3416,67.0,0,239,5.0,0.0
3417,52.0,105,239,5.0,0.0
3418,52.0,0,224,4.0,0.0
3419,58.0,0,224,3.0,0.0
3420,73.0,120,104,0.0,0.0
3421,73.0,0,104,1.0,0.0
3422,70.0,0,104,0.0,0.0
3423,70.0,15,104,1.0,0.0
3424,66.0,0,104,1.0,0.0
3425,71.0,0,239,5.0,0.0
3426,66.0,105,239,5.0,0.0
3427,50.0,0,239,5.0,0.0
3428,59.0,0,224,3.0,0.0
3429,62.0,0,239,5.0,0.0
3430,50.0,15,224,4.0,0.0
3431,66.0,120,104,0.0,0.0
3432,68.0,0,104,0.0,0.0
3433,68.0,0,104,1.0,0.0
3434,49.0,15,224,4.0,0.0
3435,64.0,0,239,5.0,0.0
3436,70.0,0,104,1.0,0.0
3437,61.0,0,224,3.0,0.0
3438,70.0,225,239,5.0,0.0
3439,49.0,0,239,5.0,0.0
3440,61.0,0,239,5.0,0.0
3441,64.0,0,224,2.0,0.0
3442,70.0,120,104,0.0,0.0
3443,66.0,0,104,1.0,0.0
3444,66.0,0,104,0.0,0.0
3445,71.0,0,584,1.0,0.0
3446,66.0,0,239,5.0,0.0
3447,62.0,105,239,5.0,0.0
3448,71.0,120,584,0.0,0.0
3449,47.0,0,224,4.0,0.0
3450,59.0,0,239,5.0,0.0
3451,62.0,0,224,2.0,0.0
3452,54.0,15,224,3.0,0.0
3453,47.0,0,239,5.0,0.0
3454,59.0,105,119,5.0,0.0
3455,74.0,0,119,5.0,0.0
3456,78.0,0,119,5.0,0.0
3457,71.0,0,119,5.0,0.0
3458,66.0,15,224,2.0,0.0
3459,59.0,0,104,4.0,0.0
3460,62.0,15,104,3.0,0.0
3461,64.0,0,104,3.0,0.0
3462,61.0,0,104,4.0,0.0
3463,61.0,0,119,5.0,0.0
3464,73.0,0,119,5.0,0.0
3465,76.0,105,119,5.0,0.0
3466,79.0,0,119,5.0,0.0
3467,78.0,0,239,5.0,0.0
3468,83.0,0,239,5.0,0.0
3469,74.0,105,239,5.0,0.0
3470,62.0,0,239,5.0,0.0
3471,62.0,15,224,4.0,0.0
3472,66.0,0,584,3.0,0.0
3473,71.0,120,584,2.0,0.0
3474,66.0,0,104,0.0,0.0
3475,66.0,0,104,1.0,0.0
3476,76.0,0,239,5.0,0.0
3477,61.0,0,239,5.0,0.0
3478,82.0,0,239,5.0,0.0
3479,73.0,105,239,5.0,0.0
3480,61.0,0,224,4.0,0.0
3481,64.0,0,104,0.0,0.0
3482,64.0,120,104,1.0,0.0
3483,66.0,0,104,0.0,0.0
3484,66.0,15,104,1.0,0.0
3485,71.0,105,239,5.0,0.0
3486,74.0,0,584,0.0,0.0
3487,74.0,0,239,5.0,0.0
3488,59.0,0,239,5.0,0.0
3489,74.0,120,584,1.0,0.0
3490,59.0,0,224,4.0,0.0
3491,78.0,0,239,5.0,0.0
3492,62.0,0,104,3.0,0.0
3493,66.0,15,104,2.0,0.0
3494,61.0,120,104,3.0,0.0
3495,61.0,0,239,5.0,0.0
3496,73.0,0,239,5.0,0.0
3497,64.0,0,104,2.0,0.0
3498,74.0,0,239,5.0,0.0
3499,61.0,15,224,4.0,0.0
3500,78.0,105,239,5.0,0.0
3501,66.0,0,104,2.0,0.0
3502,59.0,0,104,3.0,0.0
3503,74.0,105,239,5.0,0.0
3504,71.0,120,584,2.0,0.0
3505,83.0,0,239,5.0,0.0
3506,62.0,0,239,5.0,0.0
3507,66.0,0,224,3.0,0.0
3508,78.0,0,239,5.0,0.0
3509,62.0,0,224,4.0,0.0
3510,71.0,15,104,0.0,0.0
3511,71.0,0,104,1.0,0.0
3512,70.0,120,104,1.0,0.0
3513,73.0,0,239,5.0,0.0
3514,78.0,0,239,5.0,0.0
3515,61.0,15,224,4.0,0.0
3516,61.0,105,239,5.0,0.0
3517,70.0,0,104,0.0,0.0
3518,83.0,0,239,5.0,0.0
3519,64.0,0,224,3.0,0.0
3520,71.0,0,104,0.0,0.0
3521,71.0,0,104,1.0,0.0
3522,77.0,120,584,0.0,0.0
3523,62.0,0,104,3.0,0.0
3524,77.0,0,584,1.0,0.0
3525,74.0,105,239,5.0,0.0
3526,77.0,0,239,5.0,0.0
3527,59.0,0,239,5.0,0.0
3528,71.0,0,239,5.0,0.0
3529,80.0,0,239,5.0,0.0
3530,59.0,0,224,4.0,0.0
3531,69.0,15,104,2.0,0.0
3532,61.0,0,104,3.0,0.0
3533,68.0,120,104,2.0,0.0
3534,61.0,0,239,5.0,0.0
3535,73.0,105,239,5.0,0.0
3536,59.0,0,104,3.0,0.0
3537,77.0,0,239,5.0,0.0
3538,61.0,0,224,4.0,0.0
3539,74.0,0,239,5.0,0.0
3540,80.0,0,239,5.0,0.0
3541,57.0,0,104,3.0,0.0
3542,69.0,15,104,2.0,0.0
3543,56.0,0,224,3.0,0.0
3544,80.0,0,239,5.0,0.0
3545,74.0,0,239,5.0,0.0
3546,77.0,0,239,5.0,0.0
3547,62.0,105,239,5.0,0.0
3548,71.0,120,584,2.0,0.0
3549,62.0,0,224,4.0,0.0
3550,71.0,0,104,1.0,0.0
3551,71.0,15,104,0.0,0.0
3552,70.0,0,104,0.0,0.0
3553,74.0,105,239,5.0,0.0
3554,61.0,0,224,4.0,0.0
3555,80.0,0,239,5.0,0.0
3556,70.0,120,104,1.0,0.0
3557,61.0,0,239,5.0,0.0
3558,73.0,0,239,5.0,0.0
3559,65.0,0,344,3.0,0.0
3560,77.0,0,239,5.0,0.0
3561,71.0,15,104,0.0,0.0
3562,71.0,0,104,1.0,0.0
3563,74.0,0,239,5.0,0.0
3564,80.0,105,239,5.0,0.0
3565,59.0,0,224,4.0,0.0
3566,59.0,0,239,5.0,0.0
3567,71.0,0,239,5.0,0.0
3568,77.0,0,239,5.0,0.0
3569,80.0,120,584,1.0,0.0
3570,80.0,0,584,0.0,0.0
3571,66.0,15,104,3.0,0.0
3572,69.0,0,104,2.0,0.0
3573,61.0,0,239,5.0,0.0
3574,73.0,0,239,5.0,0.0
3575,74.0,105,239,5.0,0.0
3576,65.0,0,104,3.0,0.0
3577,61.0,15,224,4.0,0.0
3578,68.0,120,104,2.0,0.0
3579,77.0,0,239,5.0,0.0
3580,80.0,0,239,5.0,0.0
3581,69.0,0,104,2.0,0.0
3582,66.0,0,104,3.0,0.0
3583,62.0,0,224,4.0,0.0
3584,74.0,105,239,5.0,0.0
3585,62.0,0,239,5.0,0.0
3586,80.0,0,239,5.0,0.0
3587,77.0,0,239,5.0,0.0
3588,71.0,0,224,2.0,0.0
3589,65.0,15,224,3.0,0.0
3590,82.0,0,104,0.0,0.0
3591,82.0,0,104,1.0,0.0
3592,83.0,120,104,1.0,0.0
3593,74.0,0,224,2.0,0.0
3594,74.0,0,239,5.0,0.0
3595,77.0,0,239,5.0,0.0
3596,59.0,0,239,5.0,0.0
3597,80.0,0,239,5.0,0.0
3598,59.0,0,224,4.0,0.0
3599,83.0,0,104,0.0,0.0
3600,66.0,15,224,3.0,0.0
3601,71.0,105,239,5.0,0.0
3602,80.0,0,104,0.0,0.0
3603,80.0,0,104,1.0,0.0
3604,82.0,120,104,1.0,0.0
3605,76.0,0,239,5.0,0.0
3606,82.0,0,239,5.0,0.0
3607,73.0,0,239,5.0,0.0
3608,82.0,0,104,0.0,0.0
3609,64.0,0,224,3.0,0.0
3610,61.0,15,224,4.0,0.0
3611,73.0,0,224,2.0,0.0
3612,61.0,105,239,5.0,0.0
3613,78.0,0,104,1.0,0.0
3614,78.0,0,104,0.0,0.0
3615,83.0,120,104,1.0,0.0
3616,62.0,15,224,4.0,0.0
3617,66.0,0,224,3.0,0.0
3618,83.0,0,104,0.0,0.0
3619,78.0,105,239,5.0,0.0
3620,62.0,0,239,5.0,0.0
3621,71.0,120,344,2.0,0.0
3622,74.0,0,239,5.0,0.0
3623,83.0,0,239,5.0,0.0
3624,81.0,0,104,0.0,0.0
3625,81.0,0,104,1.0,0.0
3626,79.0,0,104,0.0,0.0
3627,67.0,0,584,3.0,0.0
3628,64.0,0,239,5.0,0.0
3629,79.0,0,104,1.0,0.0
3630,83.0,105,239,5.0,0.0
3631,76.0,0,239,5.0,0.0
3632,64.0,15,224,4.0,0.0
3633,79.0,0,239,5.0,0.0
3634,78.0,0,104,1.0,0.0
3635,78.0,0,104,0.0,0.0
3636,74.0,0,104,2.0,0.0
3637,83.0,0,239,5.0,0.0
3638,74.0,0,239,5.0,0.0
3639,62.0,0,239,5.0,0.0
3640,76.0,105,239,5.0,0.0
3641,79.0,0,239,5.0,0.0
3642,76.0,120,344,1.0,0.0
3643,73.0,120,104,2.0,0.0
3644,62.0,15,224,4.0,0.0
3645,76.0,0,344,0.0,0.0
3646,71.0,0,104,2.0,0.0
3647,70.0,15,224,2.0,0.0
3648,73.0,0,239,5.0,0.0
3649,82.0,0,239,5.0,0.0
3650,76.0,0,239,5.0,0.0
3651,61.0,105,239,5.0,0.0
3652,61.0,0,224,4.0,0.0
3653,66.0,0,104,3.0,0.0
3654,74.0,0,104,0.0,0.0
3655,74.0,0,104,1.0,0.0
3656,83.0,105,239,5.0,0.0
3657,74.0,0,239,5.0,0.0
3658,62.0,0,239,5.0,0.0
3659,64.0,0,104,3.0,0.0
3660,76.0,0,239,5.0,0.0
3661,79.0,0,239,5.0,0.0
3662,62.0,0,224,4.0,0.0
3663,73.0,120,104,1.0,0.0
3664,79.0,0,464,2.0,0.0
3665,73.0,0,104,0.0,0.0
3666,66.0,0,104,3.0,0.0
3667,71.0,15,104,1.0,0.0
3668,71.0,0,104,0.0,0.0
3669,73.0,0,104,0.0,0.0
3670,76.0,0,239,5.0,0.0
3671,73.0,0,104,1.0,0.0
3672,64.0,0,239,5.0,0.0
3673,64.0,0,224,4.0,0.0
3674,70.0,120,104,3.0,0.0
3675,85.0,105,239,5.0,0.0
3676,79.0,0,239,5.0,0.0
3677,74.0,15,104,0.0,0.0
3678,74.0,0,104,1.0,0.0
3679,71.0,0,104,3.0,0.0
3680,61.0,0,239,5.0,0.0
3681,78.0,0,464,2.0,0.0
3682,73.0,0,224,3.0,0.0
3683,49.0,0,224,4.0,0.0
3684,76.0,120,104,1.0,0.0
3685,70.0,225,239,5.0,0.0
3686,76.0,0,104,0.0,0.0
3687,64.0,0,239,5.0,0.0
3688,49.0,0,239,5.0,0.0
3689,70.0,0,104,1.0,0.0
3690,70.0,15,104,0.0,0.0
3691,71.0,0,224,1.0,0.0
3692,66.0,0,239,5.0,0.0
3693,62.0,105,239,5.0,0.0
3694,50.0,15,224,4.0,0.0
3695,50.0,0,239,5.0,0.0
3696,71.0,0,239,5.0,0.0
3697,71.0,0,224,0.0,0.0
3698,66.0,0,224,3.0,0.0
3699,71.0,0,239,5.0,0.0
3700,64.0,105,239,5.0,0.0
3701,73.0,0,239,5.0,0.0
3702,71.0,0,224,2.0,0.0
3703,79.0,105,119,0.0,0.0
3704,67.0,0,239,5.0,0.0
3705,67.0,15,224,3.0,0.0
3706,52.0,0,239,5.0,0.0
3707,52.0,0,224,4.0,0.0
3708,79.0,15,104,1.0,0.0
3709,78.0,0,104,0.0,0.0
3710,78.0,0,104,1.0,0.0
3711,54.0,105,239,5.0,0.0
3712,76.0,105,119,0.0,0.0
3713,73.0,0,239,5.0,0.0
3714,71.0,15,224,2.0,0.0
3715,76.0,15,104,1.0,0.0
3716,54.0,0,224,4.0,0.0
3717,66.0,0,224,3.0,0.0
3718,66.0,0,239,5.0,0.0
3719,71.0,0,239,5.0,0.0
3720,74.0,0,104,1.0,0.0
3721,74.0,0,104,0.0,0.0
3722,73.0,105,119,0.0,0.0
3723,42.0,225,239,5.0,0.0
3724,42.0,0,224,4.0,0.0
3725,54.0,0,239,5.0,0.0
3726,58.0,0,239,5.0,0.0
3727,61.0,0,239,5.0,0.0
3728,73.0,15,104,1.0,0.0
3729,70.0,0,224,2.0,0.0
3730,64.0,15,224,3.0,0.0
3731,71.0,0,104,1.0,0.0
3732,71.0,0,104,0.0,0.0
3733,62.0,225,239,5.0,0.0
3734,66.0,0,239,5.0,0.0
3735,59.0,0,239,5.0,0.0
3736,47.0,0,239,5.0,0.0
3737,47.0,15,224,4.0,0.0
3738,71.0,15,704,1.0,0.0
3739,71.0,0,704,0.0,0.0
3740,62.0,0,719,3.0,0.0
3741,66.0,225,719,2.0,0.0
3742,66.0,225,239,5.0,0.0
3743,54.0,0,239,5.0,0.0
3744,73.0,0,239,5.0,0.0
3745,69.0,0,239,5.0,0.0
3746,54.0,15,224,4.0,0.0
3747,59.0,0,239,4.0,0.0
3748,59.0,0,239,5.0,0.0
3749,74.0,0,239,5.0,0.0
3750,78.0,0,239,5.0,0.0
3751,71.0,0,239,5.0,0.0
3752,69.0,360,224,1.0,0.0
3753,69.0,0,224,0.0,0.0
3754,74.0,0,584,0.0,0.0
3755,74.0,120,584,1.0,0.0
3756,50.0,15,104,4.0,0.0
3757,66.0,0,104,3.0,0.0
3758,50.0,0,119,5.0,0.0
3759,62.0,105,119,5.0,0.0
3760,66.0,0,119,5.0,0.0
3761,69.0,0,119,5.0,0.0
3762,69.0,15,224,2.0,0.0
3763,67.0,0,119,5.0,0.0
3764,67.0,0,104,3.0,0.0
3765,64.0,105,119,5.0,0.0
3766,71.0,0,119,5.0,0.0
3767,52.0,0,104,4.0,0.0
3768,52.0,0,119,5.0,0.0
3769,66.0,0,239,5.0,0.0
3770,69.0,15,224,3.0,0.0
3771,54.0,0,239,5.0,0.0
3772,74.0,0,239,5.0,0.0
3773,69.0,105,239,5.0,0.0
3774,74.0,0,584,2.0,0.0
3775,54.0,0,224,4.0,0.0
3776,76.0,0,104,0.0,0.0
3777,76.0,0,104,1.0,0.0
3778,78.0,0,104,0.0,0.0
3779,52.0,0,239,5.0,0.0
3780,73.0,0,239,5.0,0.0
3781,67.0,0,239,5.0,0.0
3782,78.0,120,104,1.0,0.0
3783,67.0,0,224,3.0,0.0
3784,52.0,0,224,4.0,0.0
3785,64.0,105,239,5.0,0.0
3786,79.0,0,104,0.0,0.0
3787,79.0,15,104,1.0,0.0
3788,50.0,0,239,5.0,0.0
3789,69.0,0,239,5.0,0.0
3790,66.0,105,239,5.0,0.0
3791,62.0,0,239,5.0,0.0
3792,81.0,0,104,0.0,0.0
3793,50.0,0,224,4.0,0.0
3794,66.0,0,224,3.0,0.0
3795,81.0,120,104,1.0,0.0
3796,79.0,15,104,0.0,0.0
3797,71.0,0,104,2.0,0.0
3798,79.0,0,104,1.0,0.0
3799,52.0,0,239,5.0,0.0
3800,78.0,0,104,1.0,0.0
3801,67.0,105,239,5.0,0.0
3802,69.0,120,104,2.0,0.0
3803,64.0,0,239,5.0,0.0
3804,52.0,0,224,4.0,0.0
3805,73.0,0,239,5.0,0.0
3806,67.0,0,224,3.0,0.0
3807,78.0,0,104,0.0,0.0
3808,67.0,15,104,2.0,0.0
3809,76.0,0,104,0.0,0.0
3810,76.0,0,104,1.0,0.0
3811,54.0,0,239,5.0,0.0
3812,74.0,105,239,5.0,0.0
3813,54.0,0,224,4.0,0.0
3814,66.0,0,104,2.0,0.0
3815,69.0,120,104,3.0,0.0
3816,66.0,0,239,5.0,0.0
3817,69.0,0,239,5.0,0.0
3818,74.0,0,224,1.0,0.0
3819,74.0,0,224,0.0,0.0
3820,67.0,0,104,3.0,0.0
3821,67.0,15,104,2.0,0.0
3822,52.0,225,239,5.0,0.0
3823,69.0,0,464,2.0,0.0
3824,72.0,15,224,0.0,0.0
3825,52.0,0,224,4.0,0.0
3826,72.0,0,224,1.0,0.0
3827,72.0,0,239,5.0,0.0
3828,67.0,0,239,5.0,0.0
3829,64.0,0,239,5.0,0.0
3830,66.0,120,104,3.0,0.0
3831,64.0,0,104,3.0,0.0
3832,66.0,0,239,5.0,0.0
3833,51.0,0,239,5.0,0.0
3834,71.0,0,239,5.0,0.0
3835,69.0,0,239,5.0,0.0
3836,51.0,0,224,4.0,0.0
3837,71.0,0,224,1.0,0.0
3838,66.0,15,224,3.0,0.0
3839,63.0,225,239,5.0,0.0
3840,71.0,0,224,0.0,0.0
3841,76.0,0,224,0.0,0.0
3842,52.0,0,224,4.0,0.0
3843,76.0,0,224,1.0,0.0
3844,71.0,0,224,3.0,0.0
3845,67.0,15,224,2.0,0.0
3846,71.0,0,239,5.0,0.0
3847,67.0,0,239,5.0,0.0
3848,52.0,0,239,5.0,0.0
3849,64.0,225,239,5.0,0.0
3850,75.0,0,224,1.0,0.0
3851,75.0,0,239,5.0,0.0
3852,54.0,225,239,5.0,0.0
3853,54.0,15,224,4.0,0.0
3854,75.0,0,224,0.0,0.0
3855,69.0,0,239,5.0,0.0
3856,66.0,0,239,5.0,0.0
3857,69.0,0,224,3.0,0.0
3858,66.0,0,224,2.0,0.0
3859,71.0,0,464,3.0,0.0
3860,78.0,15,224,2.0,0.0
3861,81.0,0,224,1.0,0.0
3862,71.0,30,239,5.0,0.0
3863,51.0,0,239,5.0,0.0
3864,66.0,0,239,5.0,0.0
3865,63.0,0,239,5.0,0.0
3866,81.0,0,224,0.0,0.0
3867,69.0,0,239,5.0,0.0
3868,51.0,0,224,4.0,0.0
3869,52.0,15,224,4.0,0.0
3870,76.0,0,224,2.0,0.0
3871,79.0,30,29,0.0,0.0
3872,71.0,0,239,5.0,0.0
3873,64.0,0,239,5.0,0.0
3874,52.0,0,239,5.0,0.0
3875,67.0,105,239,5.0,0.0
3876,79.0,0,224,1.0,0.0
3877,81.0,30,29,0.0,0.0
3878,79.0,30,29,0.0,0.0
3879,81.0,30,29,0.0,0.0
3880,79.0,30,29,0.0,0.0
3881,81.0,30,29,0.0,0.0
3882,78.0,15,29,0.0,0.0
3883,79.0,0,29,0.0,0.0
3884,69.0,0,224,3.0,0.0
3885,54.0,15,224,4.0,0.0
3886,75.0,0,224,2.0,0.0
3887,78.0,120,104,0.0,0.0
3888,78.0,0,104,1.0,0.0
3889,54.0,0,239,5.0,0.0
3890,75.0,0,239,5.0,0.0
3891,69.0,105,239,5.0,0.0
3892,66.0,0,239,5.0,0.0
3893,79.0,0,104,1.0,0.0
3894,79.0,0,104,0.0,0.0
3895,71.0,0,104,3.0,0.0
3896,76.0,120,104,0.0,0.0
3897,76.0,0,104,1.0,0.0
3898,67.0,105,239,5.0,0.0
3899,71.0,0,239,5.0,0.0
3900,76.0,0,704,2.0,0.0
3901,55.0,15,224,4.0,0.0
3902,55.0,0,239,5.0,0.0
3903,75.0,0,239,5.0,0.0
3904,69.0,0,104,3.0,0.0
3905,71.0,0,104,0.0,0.0
3906,71.0,0,104,1.0,0.0
3907,76.0,0,104,0.0,0.0
3908,75.0,105,239,5.0,0.0
3909,67.0,120,104,3.0,0.0
3910,69.0,0,239,5.0,0.0
3911,66.0,0,239,5.0,0.0
3912,54.0,0,239,5.0,0.0
3913,76.0,0,104,1.0,0.0
3914,54.0,0,224,4.0,0.0
3915,78.0,15,104,1.0,0.0
3916,78.0,0,104,0.0,0.0
3917,69.0,0,104,3.0,0.0
3918,64.0,0,239,5.0,0.0
3919,52.0,0,224,4.0,0.0
3920,52.0,0,239,5.0,0.0
3921,71.0,0,239,5.0,0.0
3922,67.0,105,239,5.0,0.0
3923,79.0,0,104,1.0,0.0
3924,71.0,0,224,3.0,0.0
3925,79.0,120,104,0.0,0.0
3926,81.0,0,104,0.0,0.0
3927,81.0,15,104,1.0,0.0
3928,54.0,15,224,4.0,0.0
3929,70.0,0,224,2.0,0.0
3930,70.0,0,239,5.0,0.0
3931,66.0,0,239,5.0,0.0
3932,74.0,105,239,5.0,0.0
3933,78.0,0,104,0.0,0.0
3934,62.0,0,224,3.0,0.0
3935,78.0,120,104,1.0,0.0
3936,54.0,0,239,5.0,0.0
3937,79.0,0,104,0.0,0.0
3938,79.0,0,104,1.0,0.0
3939,71.0,120,584,2.0,0.0
3940,55.0,0,224,4.0,0.0
3941,67.0,0,239,5.0,0.0
3942,55.0,105,239,5.0,0.0
3943,76.0,0,239,5.0,0.0
3944,71.0,0,239,5.0,0.0
3945,76.0,0,104,0.0,0.0
3946,76.0,120,104,1.0,0.0
3947,59.0,0,224,3.0,0.0
3948,78.0,15,104,0.0,0.0
3949,78.0,0,104,1.0,0.0
3950,66.0,0,224,3.0,0.0
3951,74.0,0,104,0.0,0.0
3952,66.0,0,239,5.0,0.0
3953,54.0,0,239,5.0,0.0
3954,74.0,105,239,5.0,0.0
3955,71.0,0,239,5.0,0.0
3956,74.0,120,104,1.0,0.0
3957,54.0,0,224,4.0,0.0
3958,76.0,15,104,0.0,0.0
3959,76.0,0,104,1.0,0.0
3960,52.0,0,239,5.0,0.0
3961,67.0,0,239,5.0,0.0
3962,71.0,0,239,5.0,0.0
3963,73.0,0,224,1.0,0.0
3964,67.0,15,224,3.0,0.0
3965,52.0,0,224,4.0,0.0
3966,64.0,0,239,5.0,0.0
3967,73.0,0,224,0.0,0.0
3968,73.0,105,239,5.0,0.0
3969,73.0,0,104,2.0,0.0
3970,74.0,120,104,2.0,0.0
3971,54.0,0,224,4.0,0.0
3972,66.0,0,224,3.0,0.0
3973,82.0,15,224,1.0,0.0
3974,54.0,0,239,5.0,0.0
3975,66.0,0,239,5.0,0.0
3976,73.0,0,239,5.0,0.0
3977,82.0,0,224,0.0,0.0
3978,70.0,105,239,5.0,0.0
3979,76.0,0,104,2.0,0.0
3980,74.0,0,239,5.0,0.0
3981,83.0,0,224,0.0,0.0
3982,83.0,15,224,1.0,0.0
3983,55.0,0,224,4.0,0.0
3984,55.0,0,239,5.0,0.0
3985,74.0,120,104,2.0,0.0
3986,59.0,0,224,3.0,0.0
3987,67.0,0,239,5.0,0.0
3988,71.0,105,239,5.0,0.0
3989,73.0,0,104,2.0,0.0
3990,71.0,120,104,2.0,0.0
3991,54.0,0,224,4.0,0.0
3992,74.0,15,464,1.0,0.0
3993,71.0,0,239,5.0,0.0
3994,66.0,0,224,3.0,0.0
3995,74.0,0,464,0.0,0.0
3996,74.0,0,239,5.0,0.0
3997,66.0,0,239,5.0,0.0
3998,54.0,105,239,5.0,0.0
3999,69.0,15,104,2.0,0.0
4000,71.0,0,224,3.0,0.0
4001,67.0,0,239,5.0,0.0
4002,52.0,0,224,4.0,0.0
4003,67.0,120,104,2.0,0.0
4004,74.0,105,239,5.0,0.0
4005,64.0,0,239,5.0,0.0
4006,71.0,0,239,5.0,0.0
4007,52.0,0,239,5.0,0.0
4008,66.0,0,104,2.0,0.0
4009,73.0,0,104,1.0,0.0
4010,73.0,0,239,5.0,0.0
4011,70.0,0,239,5.0,0.0
4012,54.0,0,239,5.0,0.0
4013,64.0,0,104,2.0,0.0
4014,70.0,0,224,3.0,0.0
4015,66.0,105,239,5.0,0.0
4016,73.0,120,104,0.0,0.0
4017,54.0,0,224,4.0,0.0
4018,74.0,0,104,0.0,0.0
4019,74.0,0,104,1.0,0.0
4020,62.0,15,104,2.0,0.0
4021,61.0,120,104,2.0,0.0
4022,55.0,0,239,5.0,0.0
4023,76.0,0,104,0.0,0.0
4024,76.0,0,239,5.0,0.0
4025,71.0,0,224,3.0,0.0
4026,67.0,105,239,5.0,0.0
4027,55.0,0,224,4.0,0.0
4028,76.0,0,104,1.0,0.0
4029,71.0,0,239,5.0,0.0
4030,74.0,0,104,1.0,0.0
4031,74.0,0,104,0.0,0.0
4032,59.0,15,104,2.0,0.0
4033,73.0,120,104,1.0,0.0
4034,52.0,0,239,5.0,0.0
4035,71.0,0,239,5.0,0.0
4036,64.0,0,239,5.0,0.0
4037,67.0,105,239,5.0,0.0
4038,73.0,0,239,5.0,0.0
4039,64.0,0,224,3.0,0.0
4040,73.0,0,104,0.0,0.0
4041,52.0,15,224,4.0,0.0
4042,67.0,0,224,2.0,0.0
4043,71.0,0,104,0.0,0.0
4044,71.0,0,104,1.0,0.0
4045,54.0,0,239,5.0,0.0
4046,66.0,0,239,5.0,0.0
4047,70.0,0,239,5.0,0.0
4048,61.0,0,224,3.0,0.0
4049,73.0,105,239,5.0,0.0
4050,70.0,0,104,1.0,0.0
4051,66.0,15,704,2.0,0.0
4052,54.0,0,224,4.0,0.0
4053,70.0,120,104,0.0,0.0
4054,71.0,15,104,1.0,0.0
4055,71.0,0,104,0.0,0.0
4056,52.0,0,239,5.0,0.0
4057,73.0,0,104,0.0,0.0
4058,67.0,105,239,5.0,0.0
4059,71.0,0,239,5.0,0.0
4060,52.0,0,224,4.0,0.0
4061,64.0,0,239,5.0,0.0
4062,73.0,120,104,1.0,0.0
4063,58.0,15,224,3.0,0.0
4064,70.0,0,104,0.0,0.0
4065,70.0,0,104,1.0,0.0
4066,59.0,0,224,3.0,0.0
4067,71.0,0,239,5.0,0.0
4068,62.0,105,239,5.0,0.0
4069,66.0,0,104,1.0,0.0
4070,66.0,0,239,5.0,0.0
4071,50.0,0,239,5.0,0.0
4072,50.0,0,224,4.0,0.0
4073,66.0,120,104,0.0,0.0
4074,68.0,0,104,0.0,0.0
4075,68.0,0,104,1.0,0.0
4076,61.0,0,239,5.0,0.0
4077,70.0,0,104,1.0,0.0
4078,70.0,0,239,5.0,0.0
4079,64.0,0,224,2.0,0.0
4080,64.0,225,239,5.0,0.0
4081,49.0,0,224,4.0,0.0
4082,70.0,120,104,0.0,0.0
4083,61.0,0,224,3.0,0.0
4084,49.0,0,239,5.0,0.0
4085,66.0,0,104,0.0,0.0
4086,66.0,15,104,1.0,0.0
4087,71.0,120,584,1.0,0.0
4088,59.0,105,239,5.0,0.0
4089,66.0,0,239,5.0,0.0
4090,62.0,15,224,2.0,0.0
4091,62.0,0,239,5.0,0.0
4092,47.0,0,239,5.0,0.0
4093,71.0,0,584,0.0,0.0
4094,47.0,0,224,4.0,0.0
4095,54.0,0,224,3.0,0.0
4096,62.0,0,104,3.0,0.0
4097,71.0,105,119,5.0,0.0
4098,66.0,15,224,2.0,0.0
4099,78.0,0,119,5.0,0.0
4100,74.0,0,119,5.0,0.0
4101,59.0,15,104,4.0,0.0
4102,59.0,0,119,5.0,0.0
4103,61.0,0,104,4.0,0.0
4104,76.0,0,119,5.0,0.0
4105,61.0,0,119,5.0,0.0
4106,79.0,105,119,5.0,0.0
4107,73.0,0,119,5.0,0.0
4108,64.0,0,104,3.0,0.0
4109,83.0,0,239,5.0,0.0
4110,62.0,105,239,5.0,0.0
4111,78.0,0,239,5.0,0.0
4112,71.0,120,584,2.0,0.0
4113,74.0,0,239,5.0,0.0
4114,66.0,0,584,3.0,0.0
4115,62.0,15,224,4.0,0.0
4116,66.0,0,104,1.0,0.0
4117,66.0,0,104,0.0,0.0
4118,61.0,0,239,5.0,0.0
4119,76.0,0,239,5.0,0.0
4120,73.0,0,239,5.0,0.0
4121,82.0,105,239,5.0,0.0
4122,64.0,0,104,1.0,0.0
4123,61.0,0,224,4.0,0.0
4124,64.0,120,104,0.0,0.0
4125,66.0,15,104,1.0,0.0
4126,66.0,0,104,0.0,0.0
4127,71.0,0,239,5.0,0.0
4128,59.0,0,239,5.0,0.0
4129,74.0,120,584,1.0,0.0
4130,59.0,0,224,4.0,0.0
4131,74.0,0,584,0.0,0.0
4132,78.0,105,239,5.0,0.0
4133,74.0,0,239,5.0,0.0
4134,66.0,0,104,2.0,0.0
4135,62.0,15,104,3.0,0.0
4136,73.0,0,239,5.0,0.0
4137,74.0,105,239,5.0,0.0
4138,61.0,0,239,5.0,0.0
4139,78.0,0,239,5.0,0.0
4140,61.0,0,104,3.0,0.0
4141,64.0,120,104,2.0,0.0
4142,61.0,0,224,4.0,0.0
4143,66.0,0,104,2.0,0.0
4144,59.0,15,104,3.0,0.0
4145,62.0,0,239,5.0,0.0
4146,74.0,105,239,5.0,0.0
4147,62.0,15,224,4.0,0.0
4148,71.0,120,584,2.0,0.0
4149,78.0,0,239,5.0,0.0
4150,83.0,0,239,5.0,0.0
4151,66.0,0,224,3.0,0.0
4152,71.0,0,104,1.0,0.0
4153,71.0,0,104,0.0,0.0
4154,73.0,0,239,5.0,0.0
4155,61.0,0,224,4.0,0.0
4156,70.0,120,104,0.0,0.0
4157,61.0,0,239,5.0,0.0
4158,78.0,105,239,5.0,0.0
4159,83.0,0,239,5.0,0.0
4160,64.0,15,224,3.0,0.0
4161,70.0,0,104,1.0,0.0
4162,71.0,0,104,0.0,0.0
4163,71.0,0,104,1.0,0.0
4164,59.0,0,224,4.0,0.0
4165,77.0,120,584,1.0,0.0
4166,59.0,0,239,5.0,0.0
4167,71.0,0,239,5.0,0.0
4168,62.0,0,104,3.0,0.0
4169,80.0,0,239,5.0,0.0
4170,77.0,0,584,0.0,0.0
4171,77.0,105,239,5.0,0.0
4172,74.0,0,239,5.0,0.0
4173,69.0,15,104,2.0,0.0
4174,61.0,0,104,3.0,0.0
4175,73.0,0,239,5.0,0.0
4176,74.0,0,239,5.0,0.0
4177,61.0,105,239,5.0,0.0
4178,68.0,0,104,2.0,0.0
4179,59.0,120,104,3.0,0.0
4180,61.0,15,224,4.0,0.0
4181,80.0,0,239,5.0,0.0
4182,77.0,0,239,5.0,0.0
4183,69.0,0,104,2.0,0.0
4184,57.0,0,104,3.0,0.0
4185,62.0,105,239,5.0,0.0
4186,74.0,0,239,5.0,0.0
4187,56.0,0,224,3.0,0.0
4188,62.0,15,224,4.0,0.0
4189,80.0,0,239,5.0,0.0
4190,71.0,0,584,2.0,0.0
4191,77.0,0,239,5.0,0.0
4192,71.0,0,104,0.0,0.0
4193,71.0,0,104,1.0,0.0
4194,61.0,0,239,5.0,0.0
4195,70.0,0,104,1.0,0.0
4196,70.0,120,104,0.0,0.0
4197,65.0,120,344,3.0,0.0
4198,73.0,0,239,5.0,0.0
4199,61.0,15,224,4.0,0.0
4200,80.0,105,239,5.0,0.0
4201,77.0,0,239,5.0,0.0
4202,74.0,0,239,5.0,0.0
4203,71.0,0,104,1.0,0.0
4204,71.0,0,104,0.0,0.0
4205,80.0,105,239,5.0,0.0
4206,80.0,0,584,0.0,0.0
4207,59.0,0,224,4.0,0.0
4208,80.0,120,584,1.0,0.0
4209,74.0,0,239,5.0,0.0
4210,77.0,0,239,5.0,0.0
4211,59.0,0,239,5.0,0.0
4212,71.0,0,239,5.0,0.0
4213,66.0,15,104,3.0,0.0
4214,69.0,0,104,2.0,0.0
4215,61.0,0,224,4.0,0.0
4216,68.0,120,104,2.0,0.0
4217,80.0,0,239,5.0,0.0
4218,77.0,0,239,5.0,0.0
4219,73.0,0,239,5.0,0.0
4220,61.0,0,239,5.0,0.0
4221,74.0,105,239,5.0,0.0
4222,65.0,0,104,3.0,0.0
4223,66.0,15,104,3.0,0.0
4224,69.0,0,104,2.0,0.0
4225,65.0,15,224,3.0,0.0
4226,71.0,0,224,2.0,0.0
4227,74.0,0,239,5.0,0.0
4228,80.0,0,239,5.0,0.0
4229,77.0,0,239,5.0,0.0
4230,62.0,105,239,5.0,0.0
4231,62.0,0,224,4.0,0.0
4232,82.0,0,104,0.0,0.0
4233,82.0,0,104,1.0,0.0
4234,77.0,0,239,5.0,0.0
4235,71.0,0,239,5.0,0.0
4236,59.0,0,239,5.0,0.0
4237,74.0,0,239,5.0,0.0
4238,80.0,105,239,5.0,0.0
4239,66.0,0,224,3.0,0.0
4240,59.0,0,224,4.0,0.0
4241,74.0,0,224,2.0,0.0
4242,83.0,120,104,0.0,0.0
4243,83.0,0,104,1.0,0.0
4244,80.0,0,104,0.0,0.0
4245,80.0,15,104,1.0,0.0
4246,82.0,120,104,1.0,0.0
4247,82.0,105,239,5.0,0.0
4248,73.0,0,239,5.0,0.0
4249,61.0,0,239,5.0,0.0
4250,76.0,0,239,5.0,0.0
4251,73.0,0,224,2.0,0.0
4252,61.0,0,224,4.0,0.0
4253,64.0,0,224,3.0,0.0
4254,82.0,0,104,0.0,0.0
4255,78.0,0,104,0.0,0.0
4256,78.0,15,104,1.0,0.0
4257,62.0,0,224,4.0,0.0
4258,83.0,120,104,1.0,0.0
4259,62.0,0,239,5.0,0.0
4260,74.0,105,239,5.0,0.0
4261,78.0,0,239,5.0,0.0
4262,71.0,0,344,2.0,0.0
4263,83.0,0,239,5.0,0.0
4264,66.0,15,224,3.0,0.0
4265,83.0,0,104,0.0,0.0
4266,81.0,0,104,1.0,0.0
4267,81.0,0,104,0.0,0.0
4268,79.0,0,239,5.0,0.0
4269,83.0,0,239,5.0,0.0
4270,76.0,0,239,5.0,0.0
4271,64.0,105,239,5.0,0.0
4272,79.0,120,104,1.0,0.0
4273,64.0,15,224,4.0,0.0
4274,67.0,120,584,3.0,0.0
4275,79.0,0,104,0.0,0.0
4276,78.0,0,104,0.0,0.0
4277,74.0,0,104,2.0,0.0
4278,78.0,0,104,1.0,0.0
4279,76.0,0,344,0.0,0.0
4280,76.0,0,344,1.0,0.0
4281,79.0,105,239,5.0,0.0
4282,83.0,0,239,5.0,0.0
4283,62.0,0,239,5.0,0.0
4284,76.0,0,239,5.0,0.0
4285,74.0,0,239,5.0,0.0
4286,73.0,120,104,2.0,0.0
4287,62.0,15,224,4.0,0.0
4288,71.0,0,104,2.0,0.0
4289,73.0,0,239,5.0,0.0
4290,70.0,0,224,2.0,0.0
4291,61.0,0,239,5.0,0.0
4292,76.0,0,239,5.0,0.0
4293,61.0,0,224,4.0,0.0
4294,82.0,105,239,5.0,0.0
4295,66.0,0,104,3.0,0.0
4296,74.0,0,104,0.0,0.0
4297,74.0,15,104,1.0,0.0
4298,73.0,0,104,0.0,0.0
4299,62.0,15,224,4.0,0.0
4300,74.0,0,239,5.0,0.0
4301,79.0,0,239,5.0,0.0
4302,83.0,0,239,5.0,0.0
4303,76.0,0,239,5.0,0.0
4304,62.0,105,239,5.0,0.0
4305,79.0,0,464,2.0,0.0
4306,64.0,120,104,3.0,0.0
4307,73.0,0,104,1.0,0.0
4308,71.0,0,104,0.0,0.0
4309,71.0,0,104,1.0,0.0
4310,66.0,0,104,3.0,0.0
4311,70.0,0,104,3.0,0.0
4312,64.0,0,224,4.0,0.0
4313,73.0,0,104,0.0,0.0
4314,79.0,105,239,5.0,0.0
4315,76.0,0,239,5.0,0.0
4316,64.0,0,239,5.0,0.0
4317,85.0,0,239,5.0,0.0
4318,73.0,120,104,1.0,0.0
4319,74.0,15,104,0.0,0.0
4320,71.0,0,104,3.0,0.0
4321,74.0,0,104,1.0,0.0
4322,70.0,225,239,5.0,0.0
4323,76.0,0,104,0.0,0.0
4324,61.0,0,239,5.0,0.0
4325,64.0,0,239,5.0,0.0
4326,49.0,0,239,5.0,0.0
4327,78.0,0,464,2.0,0.0
4328,49.0,0,224,4.0,0.0
4329,76.0,120,104,1.0,0.0
4330,73.0,15,224,3.0,0.0
4331,70.0,0,104,0.0,0.0
4332,70.0,0,104,1.0,0.0
4333,50.0,0,239,5.0,0.0
4334,66.0,105,239,5.0,0.0
4335,71.0,0,224,1.0,0.0
4336,62.0,0,239,5.0,0.0
4337,66.0,0,224,3.0,0.0
4338,50.0,0,224,4.0,0.0
4339,71.0,0,239,5.0,0.0
4340,71.0,15,224,0.0,0.0
4341,79.0,15,104,1.0,0.0
4342,71.0,0,224,2.0,0.0
4343,73.0,0,239,5.0,0.0
4344,67.0,0,239,5.0,0.0
4345,52.0,15,224,4.0,0.0
4346,64.0,0,239,5.0,0.0
4347,71.0,0,239,5.0,0.0
4348,52.0,105,239,5.0,0.0
4349,67.0,0,224,3.0,0.0
4350,79.0,105,119,0.0,0.0
4351,78.0,0,104,1.0,0.0
4352,78.0,0,104,0.0,0.0
4353,66.0,0,224,3.0,0.0
4354,71.0,0,224,2.0,0.0
4355,76.0,105,119,0.0,0.0
4356,66.0,0,239,5.0,0.0
4357,71.0,0,239,5.0,0.0
4358,54.0,15,224,4.0,0.0
4359,54.0,105,239,5.0,0.0
4360,73.0,0,239,5.0,0.0
4361,76.0,15,104,1.0,0.0
4362,74.0,0,104,0.0,0.0
4363,74.0,0,104,1.0,0.0
4364,73.0,105,119,0.0,0.0
4365,58.0,0,239,5.0,0.0
4366,64.0,0,224,3.0,0.0
4367,42.0,0,239,5.0,0.0
4368,54.0,0,239,5.0,0.0
4369,70.0,0,224,2.0,0.0
4370,61.0,225,239,5.0,0.0
4371,42.0,0,224,4.0,0.0
4372,73.0,15,104,1.0,0.0
4373,71.0,0,104,0.0,0.0
4374,71.0,15,104,1.0,0.0
4375,59.0,0,239,5.0,0.0
4376,66.0,225,239,5.0,0.0
4377,62.0,961,719,3.0,0.0
4378,62.0,0,239,5.0,0.0
4379,71.0,0,719,0.0,0.0
4380,71.0,0,719,1.0,0.0
4381,47.0,0,239,5.0,0.0
4382,66.0,0,719,2.0,0.0
4383,47.0,15,224,4.0,0.0
4384,73.0,0,239,5.0,0.0
4385,54.0,0,239,5.0,0.0
4386,69.0,0,239,5.0,0.0
4387,66.0,240,239,5.0,0.0
4388,54.0,15,224,4.0,0.0
4389,78.0,0,239,5.0,0.0
4390,74.0,0,239,5.0,0.0
4391,59.0,0,239,4.0,0.0
4392,59.0,0,239,5.0,0.0
4393,71.0,0,239,5.0,0.0
