,note,step,duration,channel,velocity
0,45.0,0,21,3.0,0.0
1,33.0,0,21,4.0,0.0
2,45.0,1,21,6.0,0.0
3,76.0,12,10,5.0,0.0
4,73.0,0,10,0.0,0.0
5,69.0,0,10,1.0,0.0
6,64.0,0,21,2.0,0.0
7,57.0,0,21,3.0,0.0
8,45.0,0,21,4.0,0.0
9,81.0,11,10,5.0,0.0
10,57.0,1,21,6.0,0.0
11,74.0,0,10,0.0,0.0
12,71.0,0,10,1.0,0.0
13,80.0,12,10,5.0,0.0
14,76.0,0,21,0.0,0.0
15,73.0,0,21,1.0,0.0
16,69.0,1,21,2.0,0.0
17,81.0,11,10,5.0,0.0
18,76.0,12,10,5.0,0.0
19,81.0,0,21,0.0,0.0
20,76.0,0,21,1.0,0.0
21,73.0,1,21,2.0,0.0
22,73.0,11,10,5.0,0.0
23,69.0,12,10,5.0,0.0
24,73.0,0,21,0.0,0.0
25,69.0,0,21,1.0,0.0
26,64.0,1,21,2.0,0.0
27,76.0,11,10,5.0,0.0
28,73.0,12,10,5.0,0.0
29,76.0,0,21,0.0,0.0
30,73.0,0,21,1.0,0.0
31,69.0,1,21,2.0,0.0
32,69.0,11,10,5.0,0.0
33,64.0,12,10,5.0,0.0
34,69.0,0,21,0.0,0.0
35,64.0,0,21,1.0,0.0
36,61.0,1,21,2.0,0.0
37,73.0,11,10,5.0,0.0
38,69.0,12,10,5.0,0.0
39,73.0,0,21,0.0,0.0
40,69.0,0,21,1.0,0.0
41,64.0,1,21,2.0,0.0
42,64.0,11,10,5.0,0.0
43,61.0,23,10,5.0,0.0
44,44.0,0,21,3.0,0.0
45,32.0,0,21,4.0,0.0
46,44.0,1,21,6.0,0.0
47,74.0,12,10,5.0,0.0
48,71.0,0,10,0.0,0.0
49,68.0,0,10,1.0,0.0
50,64.0,0,21,2.0,0.0
51,56.0,0,21,3.0,0.0
52,44.0,0,21,4.0,0.0
53,83.0,11,10,5.0,0.0
54,56.0,1,21,6.0,0.0
55,73.0,0,10,0.0,0.0
56,69.0,0,10,1.0,0.0
57,81.0,12,10,5.0,0.0
58,74.0,0,21,0.0,0.0
59,71.0,0,21,1.0,0.0
60,59.0,1,21,2.0,0.0
61,83.0,11,10,5.0,0.0
62,80.0,12,10,5.0,0.0
63,83.0,0,21,0.0,0.0
64,74.0,0,21,1.0,0.0
65,56.0,1,21,2.0,0.0
66,74.0,11,10,5.0,0.0
67,71.0,12,10,5.0,0.0
68,74.0,0,21,0.0,0.0
69,71.0,0,21,1.0,0.0
70,68.0,1,21,2.0,0.0
71,80.0,11,10,5.0,0.0
72,74.0,12,10,5.0,0.0
73,80.0,0,21,0.0,0.0
74,74.0,0,21,1.0,0.0
75,71.0,1,21,2.0,0.0
76,71.0,11,10,5.0,0.0
77,68.0,12,10,5.0,0.0
78,71.0,0,21,0.0,0.0
79,68.0,0,21,1.0,0.0
80,74.0,1,21,2.0,0.0
81,74.0,11,10,5.0,0.0
82,71.0,12,10,5.0,0.0
83,74.0,0,21,0.0,0.0
84,71.0,0,21,1.0,0.0
85,64.0,1,21,2.0,0.0
86,68.0,11,10,5.0,0.0
87,64.0,23,10,5.0,0.0
88,73.0,0,21,0.0,0.0
89,69.0,0,21,1.0,0.0
90,69.0,0,21,2.0,0.0
91,73.0,13,21,5.0,0.0
92,69.0,0,21,0.0,0.0
93,73.0,0,10,1.0,0.0
94,64.0,0,21,2.0,0.0
95,57.0,0,10,3.0,0.0
96,45.0,0,10,4.0,0.0
97,69.0,1,21,5.0,0.0
98,57.0,11,10,6.0,0.0
99,71.0,0,10,1.0,0.0
100,56.0,0,10,3.0,0.0
101,44.0,0,10,4.0,0.0
102,56.0,8,10,6.0,0.0
103,78.0,1,63,0.0,0.0
104,73.0,0,21,1.0,0.0
105,61.0,0,21,2.0,0.0
106,57.0,0,21,3.0,0.0
107,45.0,0,21,4.0,0.0
108,78.0,6,6,5.0,0.0
109,57.0,13,21,6.0,0.0
110,76.0,9,6,5.0,0.0
111,78.0,5,52,5.0,0.0
112,75.0,11,10,1.0,0.0
113,57.0,0,21,2.0,0.0
114,54.0,0,21,3.0,0.0
115,42.0,0,21,4.0,0.0
116,54.0,1,21,6.0,0.0
117,76.0,17,10,1.0,0.0
118,78.0,0,21,1.0,0.0
119,69.0,0,21,2.0,0.0
120,51.0,0,21,3.0,0.0
121,39.0,0,21,4.0,0.0
122,51.0,15,21,6.0,0.0
123,80.0,0,12,0.0,0.0
124,54.0,0,21,3.0,0.0
125,42.0,0,21,4.0,0.0
126,80.0,9,12,5.0,0.0
127,54.0,3,21,6.0,0.0
128,81.0,0,12,0.0,0.0
129,81.0,12,12,5.0,0.0
130,83.0,0,12,0.0,0.0
131,51.0,0,21,3.0,0.0
132,39.0,0,21,4.0,0.0
133,83.0,9,12,5.0,0.0
134,51.0,3,21,6.0,0.0
135,81.0,0,12,0.0,0.0
136,81.0,12,12,5.0,0.0
137,80.0,0,12,0.0,0.0
138,47.0,0,21,3.0,0.0
139,35.0,0,21,4.0,0.0
140,80.0,9,12,5.0,0.0
141,47.0,1,21,6.0,0.0
142,81.0,0,10,0.0,0.0
143,81.0,23,10,5.0,0.0
144,83.0,0,21,0.0,0.0
145,44.0,0,21,3.0,0.0
146,32.0,0,21,4.0,0.0
147,83.0,0,21,5.0,0.0
148,44.0,13,21,6.0,0.0
149,71.0,0,21,0.0,0.0
150,71.0,0,10,1.0,0.0
151,63.0,0,21,2.0,0.0
152,56.0,0,10,3.0,0.0
153,44.0,0,10,4.0,0.0
154,71.0,1,21,5.0,0.0
155,56.0,11,10,6.0,0.0
156,69.0,0,10,1.0,0.0
157,54.0,0,10,3.0,0.0
158,42.0,0,10,4.0,0.0
159,54.0,8,10,6.0,0.0
160,76.0,1,63,0.0,0.0
161,71.0,0,21,1.0,0.0
162,59.0,0,21,2.0,0.0
163,56.0,0,21,3.0,0.0
164,44.0,0,21,4.0,0.0
165,76.0,6,6,5.0,0.0
166,56.0,13,21,6.0,0.0
167,75.0,9,6,5.0,0.0
168,76.0,5,52,5.0,0.0
169,73.0,11,10,1.0,0.0
170,56.0,0,21,2.0,0.0
171,52.0,0,21,3.0,0.0
172,40.0,0,21,4.0,0.0
173,52.0,1,21,6.0,0.0
174,75.0,17,10,1.0,0.0
175,76.0,0,21,1.0,0.0
176,68.0,0,21,2.0,0.0
177,49.0,0,21,3.0,0.0
178,37.0,0,21,4.0,0.0
179,49.0,15,21,6.0,0.0
180,78.0,0,12,0.0,0.0
181,52.0,0,21,3.0,0.0
182,40.0,0,21,4.0,0.0
183,78.0,9,12,5.0,0.0
184,52.0,3,21,6.0,0.0
185,80.0,0,12,0.0,0.0
186,80.0,12,12,5.0,0.0
187,81.0,0,12,0.0,0.0
188,49.0,0,21,3.0,0.0
189,37.0,0,21,4.0,0.0
190,81.0,9,12,5.0,0.0
191,49.0,3,21,6.0,0.0
192,80.0,0,12,0.0,0.0
193,80.0,12,12,5.0,0.0
194,78.0,0,12,0.0,0.0
195,45.0,0,21,3.0,0.0
196,33.0,0,21,4.0,0.0
197,78.0,9,12,5.0,0.0
198,45.0,1,21,6.0,0.0
199,80.0,0,10,0.0,0.0
200,80.0,23,10,5.0,0.0
201,81.0,0,21,0.0,0.0
202,42.0,0,21,3.0,0.0
203,30.0,0,21,4.0,0.0
204,81.0,0,21,5.0,0.0
205,42.0,13,21,6.0,0.0
206,69.0,0,10,0.0,0.0
207,66.0,0,10,1.0,0.0
208,61.0,0,10,2.0,0.0
209,54.0,0,21,3.0,0.0
210,42.0,0,21,4.0,0.0
211,69.0,11,10,5.0,0.0
212,54.0,1,21,6.0,0.0
213,68.0,0,10,0.0,0.0
214,64.0,0,10,1.0,0.0
215,59.0,0,10,2.0,0.0
216,68.0,23,10,5.0,0.0
217,69.0,0,21,0.0,0.0
218,66.0,0,21,1.0,0.0
219,61.0,0,21,2.0,0.0
220,52.0,0,21,3.0,0.0
221,40.0,0,21,4.0,0.0
222,69.0,0,21,5.0,0.0
223,52.0,13,21,6.0,0.0
224,81.0,0,10,0.0,0.0
225,78.0,0,10,1.0,0.0
226,61.0,0,21,2.0,0.0
227,40.0,0,21,3.0,0.0
228,28.0,0,21,4.0,0.0
229,81.0,11,10,5.0,0.0
230,40.0,1,21,6.0,0.0
231,80.0,0,10,0.0,0.0
232,76.0,0,10,1.0,0.0
233,80.0,23,10,5.0,0.0
234,81.0,0,21,0.0,0.0
235,78.0,0,21,1.0,0.0
236,59.0,0,21,2.0,0.0
237,39.0,0,21,3.0,0.0
238,27.0,0,21,4.0,0.0
239,81.0,0,21,5.0,0.0
240,39.0,13,21,6.0,0.0
241,69.0,0,10,0.0,0.0
242,66.0,0,10,1.0,0.0
243,66.0,0,21,2.0,0.0
244,51.0,0,21,3.0,0.0
245,39.0,0,21,4.0,0.0
246,69.0,11,10,5.0,0.0
247,51.0,1,21,6.0,0.0
248,68.0,0,10,0.0,0.0
249,64.0,0,10,1.0,0.0
250,68.0,23,10,5.0,0.0
251,69.0,0,21,0.0,0.0
252,66.0,0,21,1.0,0.0
253,64.0,0,21,2.0,0.0
254,49.0,0,21,3.0,0.0
255,37.0,0,21,4.0,0.0
256,69.0,0,21,5.0,0.0
257,49.0,13,21,6.0,0.0
258,81.0,0,10,0.0,0.0
259,78.0,0,10,1.0,0.0
260,64.0,0,21,2.0,0.0
261,61.0,0,21,3.0,0.0
262,49.0,0,21,4.0,0.0
263,81.0,11,10,5.0,0.0
264,61.0,1,21,6.0,0.0
265,80.0,0,10,0.0,0.0
266,76.0,0,10,1.0,0.0
267,80.0,23,10,5.0,0.0
268,81.0,0,21,0.0,0.0
269,78.0,0,21,1.0,0.0
270,63.0,0,21,2.0,0.0
271,59.0,0,21,3.0,0.0
272,47.0,0,21,4.0,0.0
273,81.0,0,21,5.0,0.0
274,59.0,7,21,6.0,0.0
275,80.0,0,10,0.0,0.0
276,76.0,1,10,1.0,0.0
277,59.0,0,21,2.0,0.0
278,47.0,0,21,3.0,0.0
279,35.0,0,21,4.0,0.0
280,80.0,4,4,5.0,0.0
281,47.0,1,21,6.0,0.0
282,81.0,2,4,5.0,0.0
283,80.0,10,3,5.0,0.0
284,78.0,0,10,0.0,0.0
285,75.0,0,10,1.0,0.0
286,78.0,23,10,5.0,0.0
287,80.0,0,21,0.0,0.0
288,76.0,0,21,1.0,0.0
289,59.0,0,21,2.0,0.0
290,52.0,0,21,3.0,0.0
291,40.0,0,21,4.0,0.0
292,80.0,0,21,5.0,0.0
293,52.0,24,21,6.0,0.0
294,76.0,0,21,0.0,0.0
295,71.0,0,21,1.0,0.0
296,64.0,0,21,2.0,0.0
297,56.0,0,21,3.0,0.0
298,44.0,0,21,4.0,0.0
299,76.0,0,21,5.0,0.0
300,56.0,24,21,6.0,0.0
301,73.0,0,21,0.0,0.0
302,69.0,0,21,1.0,0.0
303,64.0,0,21,2.0,0.0
304,45.0,0,21,3.0,0.0
305,33.0,0,21,4.0,0.0
306,73.0,0,21,5.0,0.0
307,45.0,13,21,6.0,0.0
308,75.0,0,48,0.0,0.0
309,66.0,0,48,1.0,0.0
310,66.0,0,10,2.0,0.0
311,57.0,0,10,3.0,0.0
312,45.0,2,10,4.0,0.0
313,75.0,12,48,5.0,0.0
314,57.0,10,12,6.0,0.0
315,64.0,0,10,2.0,0.0
316,56.0,0,10,3.0,0.0
317,44.0,2,10,4.0,0.0
318,56.0,21,12,6.0,0.0
319,66.0,0,21,2.0,0.0
320,57.0,0,21,3.0,0.0
321,45.0,0,21,4.0,0.0
322,57.0,3,21,6.0,0.0
323,76.0,0,12,0.0,0.0
324,68.0,0,12,1.0,0.0
325,59.0,3,42,2.0,0.0
326,54.0,0,21,3.0,0.0
327,42.0,0,21,4.0,0.0
328,76.0,9,12,5.0,0.0
329,54.0,1,21,6.0,0.0
330,78.0,0,10,0.0,0.0
331,69.0,0,10,1.0,0.0
332,78.0,12,10,5.0,0.0
333,71.0,0,21,0.0,0.0
334,71.0,8,10,1.0,0.0
335,47.0,0,21,3.0,0.0
336,35.0,0,21,4.0,0.0
337,71.0,0,21,5.0,0.0
338,47.0,1,21,6.0,0.0
339,73.0,12,10,1.0,0.0
340,75.0,9,36,0.0,0.0
341,71.0,0,10,1.0,0.0
342,56.0,1,21,2.0,0.0
343,56.0,0,10,3.0,0.0
344,44.0,0,10,4.0,0.0
345,75.0,3,31,5.0,0.0
346,56.0,11,10,6.0,0.0
347,69.0,0,10,1.0,0.0
348,54.0,0,10,3.0,0.0
349,42.0,0,10,4.0,0.0
350,54.0,9,10,6.0,0.0
351,71.0,2,10,1.0,0.0
352,59.0,0,21,2.0,0.0
353,56.0,0,21,3.0,0.0
354,44.0,0,21,4.0,0.0
355,56.0,1,21,6.0,0.0
356,76.0,0,12,0.0,0.0
357,69.0,2,10,1.0,0.0
358,76.0,10,12,5.0,0.0
359,75.0,0,12,0.0,0.0
360,71.0,2,10,1.0,0.0
361,64.0,0,21,2.0,0.0
362,52.0,0,21,3.0,0.0
363,40.0,0,21,4.0,0.0
364,75.0,9,12,5.0,0.0
365,52.0,1,21,6.0,0.0
366,76.0,0,10,0.0,0.0
367,68.0,0,10,1.0,0.0
368,76.0,12,10,5.0,0.0
369,69.0,0,21,0.0,0.0
370,69.0,11,10,1.0,0.0
371,61.0,0,21,2.0,0.0
372,42.0,0,21,3.0,0.0
373,30.0,0,21,4.0,0.0
374,69.0,0,21,5.0,0.0
375,42.0,1,21,6.0,0.0
376,71.0,12,10,1.0,0.0
377,75.0,0,48,0.0,0.0
378,69.0,0,10,1.0,0.0
379,66.0,1,21,2.0,0.0
380,54.0,0,10,3.0,0.0
381,42.0,0,10,4.0,0.0
382,75.0,10,48,5.0,0.0
383,54.0,11,10,6.0,0.0
384,68.0,0,10,1.0,0.0
385,52.0,0,10,3.0,0.0
386,40.0,0,10,4.0,0.0
387,52.0,12,10,6.0,0.0
388,69.0,11,10,1.0,0.0
389,57.0,0,21,2.0,0.0
390,54.0,0,21,3.0,0.0
391,42.0,0,21,4.0,0.0
392,54.0,1,21,6.0,0.0
393,66.0,2,10,1.0,0.0
394,76.0,0,12,0.0,0.0
395,64.0,2,10,1.0,0.0
396,59.0,0,21,2.0,0.0
397,47.0,0,21,3.0,0.0
398,35.0,0,21,4.0,0.0
399,76.0,9,12,5.0,0.0
400,47.0,1,21,6.0,0.0
401,78.0,0,10,0.0,0.0
402,63.0,0,10,1.0,0.0
403,78.0,23,10,5.0,0.0
404,68.0,0,21,0.0,0.0
405,64.0,0,21,1.0,0.0
406,59.0,0,21,2.0,0.0
407,40.0,0,21,3.0,0.0
408,28.0,0,21,4.0,0.0
409,68.0,0,21,5.0,0.0
410,40.0,13,21,6.0,0.0
411,69.0,0,10,0.0,0.0
412,64.0,3,42,1.0,0.0
413,64.0,1,21,2.0,0.0
414,42.0,0,10,3.0,0.0
415,30.0,0,10,4.0,0.0
416,69.0,0,10,5.0,0.0
417,42.0,11,10,6.0,0.0
418,71.0,0,10,0.0,0.0
419,44.0,0,10,3.0,0.0
420,32.0,0,10,4.0,0.0
421,71.0,0,10,5.0,0.0
422,44.0,20,10,6.0,0.0
423,73.0,0,21,0.0,0.0
424,57.0,0,21,2.0,0.0
425,45.0,0,63,3.0,0.0
426,33.0,0,63,4.0,0.0
427,73.0,24,21,5.0,0.0
428,45.0,6,63,6.0,0.0
429,78.0,0,21,0.0,0.0
430,69.0,0,21,1.0,0.0
431,61.0,0,21,2.0,0.0
432,78.0,18,21,5.0,0.0
433,71.0,0,21,0.0,0.0
434,66.0,0,21,1.0,0.0
435,63.0,0,21,2.0,0.0
436,71.0,24,21,5.0,0.0
437,83.0,0,21,0.0,0.0
438,64.0,0,21,1.0,0.0
439,64.0,0,21,2.0,0.0
440,44.0,0,21,3.0,0.0
441,32.0,0,21,4.0,0.0
442,83.0,0,21,5.0,0.0
443,44.0,13,21,6.0,0.0
444,81.0,9,12,0.0,0.0
445,76.0,0,21,1.0,0.0
446,61.0,0,21,2.0,0.0
447,45.0,0,21,3.0,0.0
448,33.0,0,21,4.0,0.0
449,81.0,2,10,5.0,0.0
450,45.0,1,21,6.0,0.0
451,80.0,0,10,0.0,0.0
452,80.0,12,10,5.0,0.0
453,78.0,9,12,0.0,0.0
454,75.0,0,21,1.0,0.0
455,66.0,0,21,2.0,0.0
456,47.0,0,21,3.0,0.0
457,35.0,0,21,4.0,0.0
458,78.0,2,10,5.0,0.0
459,47.0,1,21,6.0,0.0
460,80.0,0,10,0.0,0.0
461,80.0,12,10,5.0,0.0
462,76.0,0,21,0.0,0.0
463,71.0,0,21,1.0,0.0
464,68.0,0,21,2.0,0.0
465,40.0,0,21,3.0,0.0
466,28.0,0,21,4.0,0.0
467,76.0,11,10,5.0,0.0
468,40.0,1,21,6.0,0.0
469,71.0,12,10,5.0,0.0
470,68.0,0,10,0.0,0.0
471,64.0,0,10,1.0,0.0
472,59.0,0,21,2.0,0.0
473,52.0,0,21,3.0,0.0
474,40.0,0,21,4.0,0.0
475,76.0,11,10,5.0,0.0
476,52.0,1,21,6.0,0.0
477,69.0,0,10,0.0,0.0
478,66.0,0,10,1.0,0.0
479,75.0,12,10,5.0,0.0
480,71.0,0,21,0.0,0.0
481,68.0,0,21,1.0,0.0
482,64.0,1,21,2.0,0.0
483,76.0,11,10,5.0,0.0
484,71.0,12,10,5.0,0.0
485,76.0,0,21,0.0,0.0
486,71.0,0,21,1.0,0.0
487,68.0,1,21,2.0,0.0
488,68.0,11,10,5.0,0.0
489,64.0,12,10,5.0,0.0
490,68.0,0,21,0.0,0.0
491,64.0,0,21,1.0,0.0
492,59.0,1,21,2.0,0.0
493,71.0,11,10,5.0,0.0
494,68.0,12,10,5.0,0.0
495,71.0,0,21,0.0,0.0
496,68.0,0,21,1.0,0.0
497,64.0,1,21,2.0,0.0
498,64.0,11,10,5.0,0.0
499,59.0,12,10,5.0,0.0
500,64.0,0,21,0.0,0.0
501,59.0,0,21,1.0,0.0
502,56.0,1,21,2.0,0.0
503,68.0,11,10,5.0,0.0
504,64.0,12,10,5.0,0.0
505,68.0,0,21,0.0,0.0
506,64.0,0,21,1.0,0.0
507,59.0,1,21,2.0,0.0
508,59.0,11,10,5.0,0.0
509,56.0,23,10,5.0,0.0
510,38.0,0,21,3.0,0.0
511,26.0,0,21,4.0,0.0
512,38.0,1,21,6.0,0.0
513,71.0,12,10,5.0,0.0
514,76.0,0,10,0.0,0.0
515,68.0,0,10,1.0,0.0
516,59.0,0,21,2.0,0.0
517,50.0,0,21,3.0,0.0
518,38.0,0,21,4.0,0.0
519,80.0,11,10,5.0,0.0
520,50.0,1,21,6.0,0.0
521,78.0,0,10,0.0,0.0
522,69.0,0,10,1.0,0.0
523,78.0,12,10,5.0,0.0
524,80.0,0,21,0.0,0.0
525,71.0,0,21,1.0,0.0
526,64.0,1,21,2.0,0.0
527,80.0,11,10,5.0,0.0
528,76.0,12,10,5.0,0.0
529,83.0,0,21,0.0,0.0
530,76.0,0,21,1.0,0.0
531,68.0,1,21,2.0,0.0
532,71.0,11,10,5.0,0.0
533,68.0,12,10,5.0,0.0
534,76.0,0,21,0.0,0.0
535,68.0,0,21,1.0,0.0
536,71.0,1,21,2.0,0.0
537,76.0,11,10,5.0,0.0
538,71.0,12,10,5.0,0.0
539,80.0,0,21,0.0,0.0
540,71.0,0,21,1.0,0.0
541,76.0,1,21,2.0,0.0
542,68.0,11,10,5.0,0.0
543,64.0,12,10,5.0,0.0
544,71.0,0,21,0.0,0.0
545,64.0,0,21,1.0,0.0
546,68.0,1,21,2.0,0.0
547,71.0,11,10,5.0,0.0
548,68.0,12,10,5.0,0.0
549,76.0,0,21,0.0,0.0
550,68.0,0,21,1.0,0.0
551,71.0,1,21,2.0,0.0
552,64.0,11,10,5.0,0.0
553,59.0,23,10,5.0,0.0
554,49.0,0,21,3.0,0.0
555,37.0,0,21,4.0,0.0
556,49.0,1,21,6.0,0.0
557,76.0,12,10,5.0,0.0
558,81.0,0,10,0.0,0.0
559,76.0,0,10,1.0,0.0
560,73.0,0,10,2.0,0.0
561,61.0,0,21,3.0,0.0
562,49.0,0,21,4.0,0.0
563,81.0,11,10,5.0,0.0
564,61.0,1,21,6.0,0.0
565,80.0,0,10,0.0,0.0
566,74.0,0,10,1.0,0.0
567,71.0,0,10,2.0,0.0
568,80.0,12,10,5.0,0.0
569,81.0,0,21,0.0,0.0
570,76.0,0,21,1.0,0.0
571,73.0,1,21,2.0,0.0
572,81.0,11,10,5.0,0.0
573,76.0,12,10,5.0,0.0
574,76.0,0,21,0.0,0.0
575,73.0,0,21,1.0,0.0
576,69.0,1,21,2.0,0.0
577,73.0,11,10,5.0,0.0
578,69.0,12,10,5.0,0.0
579,73.0,0,21,0.0,0.0
580,69.0,0,21,1.0,0.0
581,64.0,1,21,2.0,0.0
582,76.0,11,10,5.0,0.0
583,73.0,12,10,5.0,0.0
584,76.0,0,21,0.0,0.0
585,73.0,0,21,1.0,0.0
586,69.0,1,21,2.0,0.0
587,69.0,11,10,5.0,0.0
588,64.0,12,10,5.0,0.0
589,69.0,0,21,0.0,0.0
590,64.0,0,21,1.0,0.0
591,61.0,1,21,2.0,0.0
592,73.0,11,10,5.0,0.0
593,69.0,12,10,5.0,0.0
594,73.0,0,21,0.0,0.0
595,69.0,0,21,1.0,0.0
596,64.0,1,21,2.0,0.0
597,64.0,11,10,5.0,0.0
598,61.0,23,10,5.0,0.0
599,76.0,0,21,0.0,0.0
600,73.0,0,21,1.0,0.0
601,69.0,0,21,2.0,0.0
602,45.0,0,21,3.0,0.0
603,33.0,0,21,4.0,0.0
604,45.0,1,21,6.0,0.0
605,76.0,12,10,5.0,0.0
606,79.0,0,10,0.0,0.0
607,76.0,0,10,1.0,0.0
608,61.0,0,21,2.0,0.0
609,57.0,0,21,3.0,0.0
610,45.0,0,21,4.0,0.0
611,79.0,11,10,5.0,0.0
612,57.0,1,21,6.0,0.0
613,78.0,0,10,0.0,0.0
614,74.0,0,10,1.0,0.0
615,78.0,12,10,5.0,0.0
616,79.0,0,21,0.0,0.0
617,76.0,0,21,1.0,0.0
618,57.0,1,21,2.0,0.0
619,79.0,11,10,5.0,0.0
620,76.0,12,10,5.0,0.0
621,76.0,0,21,0.0,0.0
622,73.0,0,21,1.0,0.0
623,61.0,1,21,2.0,0.0
624,73.0,11,10,5.0,0.0
625,69.0,12,10,5.0,0.0
626,73.0,0,21,0.0,0.0
627,69.0,0,21,1.0,0.0
628,64.0,1,21,2.0,0.0
629,76.0,11,10,5.0,0.0
630,73.0,12,10,5.0,0.0
631,76.0,0,21,0.0,0.0
632,73.0,0,21,1.0,0.0
633,69.0,1,21,2.0,0.0
634,69.0,11,10,5.0,0.0
635,64.0,12,10,5.0,0.0
636,69.0,0,21,0.0,0.0
637,64.0,0,21,1.0,0.0
638,61.0,1,21,2.0,0.0
639,73.0,11,10,5.0,0.0
640,69.0,12,10,5.0,0.0
641,73.0,0,21,0.0,0.0
642,69.0,0,21,1.0,0.0
643,64.0,1,21,2.0,0.0
644,64.0,11,10,5.0,0.0
645,61.0,23,10,5.0,0.0
646,78.0,0,21,0.0,0.0
647,66.0,0,21,1.0,0.0
648,57.0,0,21,2.0,0.0
649,50.0,0,21,3.0,0.0
650,38.0,0,21,4.0,0.0
651,78.0,0,21,5.0,0.0
652,50.0,13,21,6.0,0.0
653,71.0,0,48,0.0,0.0
654,68.0,0,10,1.0,0.0
655,59.0,11,10,2.0,0.0
656,62.0,0,21,3.0,0.0
657,50.0,0,21,4.0,0.0
658,71.0,4,48,5.0,0.0
659,62.0,1,21,6.0,0.0
660,69.0,0,10,1.0,0.0
661,61.0,23,10,2.0,0.0
662,71.0,0,21,1.0,0.0
663,62.0,0,21,2.0,0.0
664,56.0,0,21,3.0,0.0
665,44.0,0,21,4.0,0.0
666,56.0,3,21,6.0,0.0
667,73.0,0,12,0.0,0.0
668,68.0,0,21,1.0,0.0
669,59.0,0,21,2.0,0.0
670,59.0,0,21,3.0,0.0
671,47.0,0,21,4.0,0.0
672,73.0,4,4,5.0,0.0
673,59.0,1,21,6.0,0.0
674,71.0,4,4,5.0,0.0
675,73.0,9,4,5.0,0.0
676,74.0,0,10,0.0,0.0
677,74.0,23,10,5.0,0.0
678,76.0,0,21,0.0,0.0
679,64.0,0,21,1.0,0.0
680,56.0,0,21,2.0,0.0
681,49.0,0,21,3.0,0.0
682,37.0,0,21,4.0,0.0
683,76.0,0,21,5.0,0.0
684,49.0,13,21,6.0,0.0
685,69.0,0,48,0.0,0.0
686,66.0,0,10,1.0,0.0
687,57.0,11,10,2.0,0.0
688,61.0,0,21,3.0,0.0
689,49.0,0,21,4.0,0.0
690,69.0,4,48,5.0,0.0
691,61.0,1,21,6.0,0.0
692,68.0,0,10,1.0,0.0
693,59.0,23,10,2.0,0.0
694,69.0,0,21,1.0,0.0
695,61.0,0,21,2.0,0.0
696,54.0,0,21,3.0,0.0
697,42.0,0,21,4.0,0.0
698,54.0,3,21,6.0,0.0
699,71.0,0,12,0.0,0.0
700,66.0,0,21,1.0,0.0
701,57.0,0,21,2.0,0.0
702,57.0,0,21,3.0,0.0
703,45.0,0,21,4.0,0.0
704,71.0,4,4,5.0,0.0
705,57.0,1,21,6.0,0.0
706,69.0,4,4,5.0,0.0
707,71.0,9,4,5.0,0.0
708,73.0,0,10,0.0,0.0
709,73.0,12,10,5.0,0.0
710,74.0,0,10,0.0,0.0
711,62.0,0,21,1.0,0.0
712,54.0,0,21,2.0,0.0
713,47.0,0,21,3.0,0.0
714,35.0,0,21,4.0,0.0
715,74.0,11,10,5.0,0.0
716,47.0,1,21,6.0,0.0
717,73.0,0,10,0.0,0.0
718,73.0,12,10,5.0,0.0
719,74.0,0,10,0.0,0.0
720,66.0,0,21,1.0,0.0
721,59.0,3,42,2.0,0.0
722,59.0,0,21,3.0,0.0
723,47.0,0,21,4.0,0.0
724,74.0,11,10,5.0,0.0
725,59.0,1,21,6.0,0.0
726,76.0,0,10,0.0,0.0
727,76.0,12,10,5.0,0.0
728,74.0,0,10,0.0,0.0
729,68.0,0,21,1.0,0.0
730,52.0,0,21,3.0,0.0
731,40.0,0,21,4.0,0.0
732,74.0,8,10,5.0,0.0
733,52.0,1,21,6.0,0.0
734,78.0,0,10,0.0,0.0
735,78.0,12,10,5.0,0.0
736,76.0,0,10,0.0,0.0
737,71.0,3,42,1.0,0.0
738,64.0,0,21,2.0,0.0
739,56.0,0,21,3.0,0.0
740,44.0,0,21,4.0,0.0
741,76.0,11,10,5.0,0.0
742,56.0,1,21,6.0,0.0
743,74.0,0,10,0.0,0.0
744,74.0,12,10,5.0,0.0
745,73.0,0,10,0.0,0.0
746,64.0,0,21,2.0,0.0
747,45.0,0,21,3.0,0.0
748,33.0,0,21,4.0,0.0
749,73.0,8,10,5.0,0.0
750,45.0,1,21,6.0,0.0
751,71.0,0,10,0.0,0.0
752,71.0,12,10,5.0,0.0
753,73.0,0,10,0.0,0.0
754,64.0,0,21,1.0,0.0
755,61.0,0,21,2.0,0.0
756,57.0,0,21,3.0,0.0
757,45.0,0,21,4.0,0.0
758,73.0,11,10,5.0,0.0
759,57.0,1,21,6.0,0.0
760,74.0,0,10,0.0,0.0
761,74.0,12,10,5.0,0.0
762,73.0,0,10,0.0,0.0
763,69.0,6,63,1.0,0.0
764,57.0,0,21,2.0,0.0
765,54.0,0,21,3.0,0.0
766,42.0,0,21,4.0,0.0
767,73.0,11,10,5.0,0.0
768,54.0,1,21,6.0,0.0
769,76.0,0,10,0.0,0.0
770,76.0,12,10,5.0,0.0
771,74.0,0,10,0.0,0.0
772,64.0,0,21,2.0,0.0
773,49.0,0,21,3.0,0.0
774,37.0,0,21,4.0,0.0
775,74.0,11,10,5.0,0.0
776,49.0,1,21,6.0,0.0
777,73.0,0,10,0.0,0.0
778,73.0,12,10,5.0,0.0
779,71.0,0,10,0.0,0.0
780,66.0,3,42,2.0,0.0
781,51.0,0,21,3.0,0.0
782,39.0,0,21,4.0,0.0
783,71.0,5,10,5.0,0.0
784,51.0,1,21,6.0,0.0
785,69.0,0,10,0.0,0.0
786,69.0,12,10,5.0,0.0
787,71.0,0,10,0.0,0.0
788,69.0,0,10,1.0,0.0
789,39.0,0,21,3.0,0.0
790,27.0,0,21,4.0,0.0
791,71.0,8,10,5.0,0.0
792,39.0,1,21,6.0,0.0
793,73.0,0,10,0.0,0.0
794,68.0,0,10,1.0,0.0
795,73.0,12,10,5.0,0.0
796,71.0,9,12,0.0,0.0
797,69.0,0,21,1.0,0.0
798,39.0,0,21,3.0,0.0
799,27.0,0,21,4.0,0.0
800,71.0,2,10,5.0,0.0
801,39.0,1,21,6.0,0.0
802,73.0,10,12,0.0,0.0
803,73.0,2,10,5.0,0.0
804,69.0,0,10,0.0,0.0
805,69.0,3,42,1.0,0.0
806,66.0,0,21,2.0,0.0
807,51.0,0,21,3.0,0.0
808,39.0,0,21,4.0,0.0
809,69.0,11,10,5.0,0.0
810,51.0,1,21,6.0,0.0
811,71.0,0,10,0.0,0.0
812,71.0,12,10,5.0,0.0
813,73.0,0,10,0.0,0.0
814,64.0,3,42,2.0,0.0
815,52.0,0,21,3.0,0.0
816,40.0,0,21,4.0,0.0
817,73.0,8,10,5.0,0.0
818,52.0,1,21,6.0,0.0
819,71.0,0,10,0.0,0.0
820,71.0,12,10,5.0,0.0
821,73.0,0,10,0.0,0.0
822,69.0,0,10,1.0,0.0
823,40.0,0,21,3.0,0.0
824,28.0,0,21,4.0,0.0
825,73.0,8,10,5.0,0.0
826,40.0,1,21,6.0,0.0
827,74.0,0,10,0.0,0.0
828,68.0,0,10,1.0,0.0
829,74.0,12,10,5.0,0.0
830,73.0,9,12,0.0,0.0
831,69.0,0,21,1.0,0.0
832,40.0,0,21,3.0,0.0
833,28.0,0,21,4.0,0.0
834,73.0,2,10,5.0,0.0
835,40.0,1,21,6.0,0.0
836,74.0,10,12,0.0,0.0
837,74.0,2,10,5.0,0.0
838,71.0,0,10,0.0,0.0
839,69.0,3,42,1.0,0.0
840,64.0,0,21,2.0,0.0
841,52.0,0,21,3.0,0.0
842,40.0,0,21,4.0,0.0
843,71.0,11,10,5.0,0.0
844,52.0,1,21,6.0,0.0
845,73.0,0,10,0.0,0.0
846,73.0,12,10,5.0,0.0
847,74.0,0,10,0.0,0.0
848,62.0,3,42,2.0,0.0
849,54.0,0,21,3.0,0.0
850,42.0,0,21,4.0,0.0
851,74.0,8,10,5.0,0.0
852,54.0,1,21,6.0,0.0
853,73.0,0,10,0.0,0.0
854,73.0,12,10,5.0,0.0
855,74.0,0,10,0.0,0.0
856,69.0,0,10,1.0,0.0
857,42.0,0,21,3.0,0.0
858,30.0,0,21,4.0,0.0
859,74.0,8,10,5.0,0.0
860,42.0,1,21,6.0,0.0
861,76.0,0,10,0.0,0.0
862,68.0,0,10,1.0,0.0
863,76.0,12,10,5.0,0.0
864,74.0,0,10,0.0,0.0
865,69.0,0,21,1.0,0.0
866,42.0,0,21,3.0,0.0
867,30.0,0,21,4.0,0.0
868,74.0,11,10,5.0,0.0
869,42.0,1,21,6.0,0.0
870,73.0,0,10,0.0,0.0
871,73.0,12,10,5.0,0.0
872,71.0,0,10,0.0,0.0
873,69.0,3,42,1.0,0.0
874,62.0,0,21,2.0,0.0
875,54.0,0,21,3.0,0.0
876,42.0,0,21,4.0,0.0
877,71.0,11,10,5.0,0.0
878,54.0,1,21,6.0,0.0
879,69.0,0,10,0.0,0.0
880,69.0,12,10,5.0,0.0
881,76.0,0,21,0.0,0.0
882,61.0,0,21,2.0,0.0
883,49.0,0,10,3.0,0.0
884,37.0,0,10,4.0,0.0
885,76.0,1,21,5.0,0.0
886,49.0,8,10,6.0,0.0
887,47.0,0,10,3.0,0.0
888,35.0,0,10,4.0,0.0
889,47.0,12,10,6.0,0.0
890,69.0,0,21,0.0,0.0
891,64.0,0,21,1.0,0.0
892,64.0,0,21,2.0,0.0
893,49.0,0,10,3.0,0.0
894,37.0,0,10,4.0,0.0
895,69.0,1,21,5.0,0.0
896,49.0,11,10,6.0,0.0
897,50.0,0,10,3.0,0.0
898,38.0,0,10,4.0,0.0
899,50.0,23,10,6.0,0.0
900,64.0,0,21,0.0,0.0
901,61.0,0,21,1.0,0.0
902,64.0,0,21,2.0,0.0
903,52.0,0,21,3.0,0.0
904,40.0,0,21,4.0,0.0
905,64.0,0,21,5.0,0.0
906,52.0,9,21,6.0,0.0
907,68.0,0,21,0.0,0.0
908,59.0,0,21,1.0,0.0
909,64.0,0,21,2.0,0.0
910,40.0,0,21,3.0,0.0
911,28.0,0,21,4.0,0.0
912,69.0,6,6,5.0,0.0
913,40.0,2,21,6.0,0.0
914,68.0,6,6,5.0,0.0
915,66.0,3,6,5.0,0.0
916,68.0,22,5,5.0,0.0
917,69.0,0,21,0.0,0.0
918,61.0,0,21,1.0,0.0
919,64.0,0,21,2.0,0.0
920,45.0,0,42,3.0,0.0
921,33.0,3,42,4.0,0.0
922,57.0,17,52,5.0,0.0
923,45.0,13,21,6.0,0.0
924,64.0,0,21,0.0,0.0
925,61.0,0,10,1.0,0.0
926,57.0,8,10,2.0,0.0
927,45.0,1,21,6.0,0.0
928,62.0,0,10,1.0,0.0
929,59.0,6,10,2.0,0.0
930,69.0,0,21,0.0,0.0
931,64.0,0,21,1.0,0.0
932,61.0,0,21,2.0,0.0
933,33.0,1,21,6.0,0.0
934,61.0,12,10,5.0,0.0
935,68.0,0,21,0.0,0.0
936,64.0,3,42,1.0,0.0
937,62.0,1,21,2.0,0.0
938,59.0,11,10,5.0,0.0
939,61.0,14,10,5.0,0.0
940,69.0,6,12,0.0,0.0
941,61.0,3,21,2.0,0.0
942,59.0,12,24,5.0,0.0
943,71.0,0,12,0.0,0.0
944,73.0,0,12,0.0,0.0
945,69.0,9,12,1.0,0.0
946,64.0,0,21,2.0,0.0
947,57.0,14,31,5.0,0.0
948,45.0,3,21,6.0,0.0
949,74.0,0,12,0.0,0.0
950,71.0,7,12,1.0,0.0
951,76.0,0,21,0.0,0.0
952,73.0,0,21,1.0,0.0
953,69.0,0,21,2.0,0.0
954,33.0,1,21,6.0,0.0
955,61.0,12,10,5.0,0.0
956,74.0,0,21,0.0,0.0
957,68.0,0,21,1.0,0.0
958,64.0,1,21,2.0,0.0
959,59.0,11,10,5.0,0.0
960,61.0,12,10,5.0,0.0
961,73.0,0,21,0.0,0.0
962,69.0,0,21,1.0,0.0
963,64.0,1,21,2.0,0.0
964,57.0,11,10,5.0,0.0
965,59.0,12,10,5.0,0.0
966,45.0,0,10,3.0,0.0
967,61.0,0,10,5.0,0.0
968,45.0,12,10,6.0,0.0
969,47.0,0,10,3.0,0.0
970,62.0,0,10,5.0,0.0
971,47.0,12,10,6.0,0.0
972,49.0,0,21,3.0,0.0
973,64.0,11,10,5.0,0.0
974,49.0,1,21,6.0,0.0
975,69.0,12,10,5.0,0.0
976,45.0,0,21,3.0,0.0
977,68.0,11,10,5.0,0.0
978,45.0,1,21,6.0,0.0
979,66.0,23,10,5.0,0.0
980,44.0,0,21,3.0,0.0
981,66.0,10,24,5.0,0.0
982,44.0,3,21,6.0,0.0
983,71.0,0,21,0.0,0.0
984,68.0,0,10,1.0,0.0
985,64.0,11,10,2.0,0.0
986,40.0,0,21,3.0,0.0
987,64.0,14,31,5.0,0.0
988,52.0,1,21,6.0,0.0
989,69.0,0,10,1.0,0.0
990,66.0,9,10,2.0,0.0
991,76.0,0,21,0.0,0.0
992,71.0,0,21,1.0,0.0
993,68.0,0,21,2.0,0.0
994,40.0,1,21,6.0,0.0
995,68.0,12,10,5.0,0.0
996,75.0,0,21,0.0,0.0
997,71.0,3,42,1.0,0.0
998,69.0,1,21,2.0,0.0
999,66.0,11,10,5.0,0.0
1000,68.0,14,10,5.0,0.0
1001,76.0,6,12,0.0,0.0
1002,68.0,3,21,2.0,0.0
1003,66.0,12,24,5.0,0.0
1004,78.0,0,12,0.0,0.0
1005,80.0,0,12,0.0,0.0
1006,76.0,9,12,1.0,0.0
1007,71.0,0,21,2.0,0.0
1008,64.0,14,31,5.0,0.0
1009,52.0,1,21,6.0,0.0
1010,81.0,2,10,0.0,0.0
1011,78.0,7,12,1.0,0.0
1012,83.0,0,21,0.0,0.0
1013,80.0,0,21,1.0,0.0
1014,76.0,0,21,2.0,0.0
1015,40.0,1,21,6.0,0.0
1016,68.0,12,10,5.0,0.0
1017,81.0,0,21,0.0,0.0
1018,75.0,0,21,1.0,0.0
1019,71.0,1,21,2.0,0.0
1020,66.0,11,10,5.0,0.0
1021,68.0,12,10,5.0,0.0
1022,80.0,0,21,0.0,0.0
1023,76.0,0,21,1.0,0.0
1024,71.0,1,21,2.0,0.0
1025,64.0,11,10,5.0,0.0
1026,66.0,12,10,5.0,0.0
1027,52.0,0,10,3.0,0.0
1028,68.0,0,10,5.0,0.0
1029,52.0,12,10,6.0,0.0
1030,54.0,0,10,3.0,0.0
1031,69.0,0,10,5.0,0.0
1032,54.0,12,10,6.0,0.0
1033,56.0,0,21,3.0,0.0
1034,71.0,11,10,5.0,0.0
1035,56.0,1,21,6.0,0.0
1036,74.0,12,10,5.0,0.0
1037,52.0,0,21,3.0,0.0
1038,73.0,11,10,5.0,0.0
1039,52.0,1,21,6.0,0.0
1040,71.0,23,10,5.0,0.0
1041,57.0,0,21,3.0,0.0
1042,71.0,10,24,5.0,0.0
1043,57.0,3,21,6.0,0.0
1044,76.0,0,21,0.0,0.0
1045,73.0,0,10,1.0,0.0
1046,69.0,11,10,2.0,0.0
1047,45.0,0,21,3.0,0.0
1048,73.0,14,31,5.0,0.0
1049,69.0,1,21,6.0,0.0
1050,71.0,0,10,1.0,0.0
1051,71.0,9,10,2.0,0.0
1052,81.0,0,21,0.0,0.0
1053,69.0,0,21,1.0,0.0
1054,73.0,0,21,2.0,0.0
1055,57.0,1,21,6.0,0.0
1056,76.0,12,10,5.0,0.0
1057,80.0,0,21,0.0,0.0
1058,71.0,0,21,1.0,0.0
1059,71.0,1,21,2.0,0.0
1060,74.0,11,10,5.0,0.0
1061,76.0,14,10,5.0,0.0
1062,81.0,9,12,0.0,0.0
1063,73.0,0,21,1.0,0.0
1064,69.0,3,21,2.0,0.0
1065,74.0,10,24,5.0,0.0
1066,83.0,0,12,0.0,0.0
1067,85.0,9,12,0.0,0.0
1068,76.0,0,21,1.0,0.0
1069,57.0,2,10,2.0,0.0
1070,73.0,14,31,5.0,0.0
1071,69.0,1,21,6.0,0.0
1072,86.0,7,12,0.0,0.0
1073,59.0,2,10,2.0,0.0
1074,88.0,0,21,0.0,0.0
1075,69.0,0,21,1.0,0.0
1076,61.0,0,21,2.0,0.0
1077,57.0,1,21,6.0,0.0
1078,76.0,12,10,5.0,0.0
1079,80.0,0,21,0.0,0.0
1080,71.0,0,21,1.0,0.0
1081,59.0,1,21,2.0,0.0
1082,74.0,11,10,5.0,0.0
1083,76.0,12,10,5.0,0.0
1084,81.0,0,21,0.0,0.0
1085,64.0,0,21,1.0,0.0
1086,57.0,1,21,2.0,0.0
1087,73.0,11,10,5.0,0.0
1088,74.0,12,10,5.0,0.0
1089,76.0,11,10,5.0,0.0
1090,57.0,1,21,6.0,0.0
1091,78.0,12,10,5.0,0.0
1092,79.0,11,10,5.0,0.0
1093,49.0,1,21,6.0,0.0
1094,78.0,12,10,5.0,0.0
1095,76.0,11,10,5.0,0.0
1096,57.0,1,21,6.0,0.0
1097,79.0,12,10,5.0,0.0
1098,78.0,11,10,5.0,0.0
1099,50.0,1,21,6.0,0.0
1100,76.0,12,10,5.0,0.0
1101,74.0,11,10,5.0,0.0
1102,54.0,1,21,6.0,0.0
1103,78.0,12,10,5.0,0.0
1104,76.0,11,10,5.0,0.0
1105,59.0,1,21,6.0,0.0
1106,74.0,12,10,5.0,0.0
1107,73.0,11,10,5.0,0.0
1108,50.0,1,21,6.0,0.0
1109,71.0,12,10,5.0,0.0
1110,76.0,11,10,5.0,0.0
1111,49.0,1,21,6.0,0.0
1112,74.0,12,10,5.0,0.0
1113,73.0,11,10,5.0,0.0
1114,52.0,1,21,6.0,0.0
1115,76.0,12,10,5.0,0.0
1116,74.0,11,10,5.0,0.0
1117,57.0,1,21,6.0,0.0
1118,73.0,12,10,5.0,0.0
1119,71.0,11,10,5.0,0.0
1120,49.0,1,21,6.0,0.0
1121,69.0,12,10,5.0,0.0
1122,74.0,11,10,5.0,0.0
1123,47.0,1,21,6.0,0.0
1124,73.0,12,10,5.0,0.0
1125,71.0,11,10,5.0,0.0
1126,56.0,1,21,6.0,0.0
1127,74.0,12,10,5.0,0.0
1128,73.0,11,10,5.0,0.0
1129,57.0,1,21,6.0,0.0
1130,71.0,12,10,5.0,0.0
1131,69.0,11,10,5.0,0.0
1132,45.0,1,21,6.0,0.0
1133,73.0,12,10,5.0,0.0
1134,52.0,0,21,3.0,0.0
1135,40.0,0,21,4.0,0.0
1136,71.0,11,10,5.0,0.0
1137,52.0,1,21,6.0,0.0
1138,68.0,12,10,5.0,0.0
1139,68.0,0,10,0.0,0.0
1140,64.0,0,10,1.0,0.0
1141,59.0,0,21,2.0,0.0
1142,64.0,0,21,3.0,0.0
1143,52.0,0,21,4.0,0.0
1144,76.0,11,10,5.0,0.0
1145,64.0,1,21,6.0,0.0
1146,69.0,0,10,0.0,0.0
1147,66.0,0,10,1.0,0.0
1148,75.0,12,10,5.0,0.0
1149,71.0,0,21,0.0,0.0
1150,68.0,0,21,1.0,0.0
1151,64.0,1,21,2.0,0.0
1152,76.0,11,10,5.0,0.0
1153,71.0,12,10,5.0,0.0
1154,76.0,0,21,0.0,0.0
1155,71.0,0,21,1.0,0.0
1156,68.0,1,21,2.0,0.0
1157,68.0,11,10,5.0,0.0
1158,64.0,12,10,5.0,0.0
1159,68.0,0,21,0.0,0.0
1160,64.0,0,21,1.0,0.0
1161,59.0,1,21,2.0,0.0
1162,71.0,11,10,5.0,0.0
1163,68.0,12,10,5.0,0.0
1164,71.0,0,21,0.0,0.0
1165,68.0,0,21,1.0,0.0
1166,64.0,1,21,2.0,0.0
1167,64.0,11,10,5.0,0.0
1168,59.0,12,10,5.0,0.0
1169,64.0,0,21,0.0,0.0
1170,59.0,0,21,1.0,0.0
1171,56.0,1,21,2.0,0.0
1172,68.0,11,10,5.0,0.0
1173,64.0,12,10,5.0,0.0
1174,68.0,0,21,0.0,0.0
1175,64.0,0,21,1.0,0.0
1176,59.0,1,21,2.0,0.0
1177,59.0,11,10,5.0,0.0
1178,56.0,23,10,5.0,0.0
1179,50.0,0,21,3.0,0.0
1180,38.0,0,21,4.0,0.0
1181,50.0,1,21,6.0,0.0
1182,76.0,12,10,5.0,0.0
1183,76.0,0,10,0.0,0.0
1184,71.0,0,21,1.0,0.0
1185,68.0,0,10,2.0,0.0
1186,62.0,0,21,3.0,0.0
1187,50.0,0,21,4.0,0.0
1188,83.0,11,10,5.0,0.0
1189,62.0,1,21,6.0,0.0
1190,78.0,0,10,0.0,0.0
1191,69.0,0,10,2.0,0.0
1192,81.0,12,10,5.0,0.0
1193,80.0,0,21,0.0,0.0
1194,76.0,0,21,1.0,0.0
1195,71.0,1,21,2.0,0.0
1196,83.0,11,10,5.0,0.0
1197,80.0,12,10,5.0,0.0
1198,83.0,0,21,0.0,0.0
1199,80.0,0,21,1.0,0.0
1200,76.0,1,21,2.0,0.0
1201,76.0,11,10,5.0,0.0
1202,71.0,12,10,5.0,0.0
1203,76.0,0,21,0.0,0.0
1204,71.0,0,21,1.0,0.0
1205,68.0,1,21,2.0,0.0
1206,80.0,11,10,5.0,0.0
1207,76.0,12,10,5.0,0.0
1208,80.0,0,21,0.0,0.0
1209,76.0,0,21,1.0,0.0
1210,71.0,1,21,2.0,0.0
1211,71.0,11,10,5.0,0.0
1212,68.0,12,10,5.0,0.0
1213,71.0,0,21,0.0,0.0
1214,68.0,0,21,1.0,0.0
1215,64.0,1,21,2.0,0.0
1216,76.0,11,10,5.0,0.0
1217,71.0,12,10,5.0,0.0
1218,76.0,0,21,0.0,0.0
1219,71.0,0,21,1.0,0.0
1220,68.0,1,21,2.0,0.0
1221,68.0,11,10,5.0,0.0
1222,64.0,8,10,5.0,0.0
1223,81.0,0,21,0.0,0.0
1224,76.0,0,21,1.0,0.0
1225,69.0,0,21,2.0,0.0
1226,49.0,0,21,3.0,0.0
1227,37.0,13,21,4.0,0.0
1228,69.0,6,6,5.0,0.0
1229,68.0,9,6,5.0,0.0
1230,69.0,15,42,5.0,0.0
1231,73.0,0,10,0.0,0.0
1232,69.0,0,10,1.0,0.0
1233,64.0,0,21,2.0,0.0
1234,61.0,0,21,3.0,0.0
1235,49.0,1,21,4.0,0.0
1236,49.0,11,10,6.0,0.0
1237,74.0,0,10,0.0,0.0
1238,71.0,0,10,1.0,0.0
1239,47.0,8,10,6.0,0.0
1240,76.0,0,21,0.0,0.0
1241,73.0,0,21,1.0,0.0
1242,69.0,0,21,2.0,0.0
1243,45.0,1,21,6.0,0.0
1244,73.0,12,10,5.0,0.0
1245,71.0,11,10,5.0,0.0
1246,44.0,1,21,6.0,0.0
1247,73.0,23,10,5.0,0.0
1248,71.0,10,24,5.0,0.0
1249,42.0,3,21,6.0,0.0
1250,69.0,0,10,0.0,0.0
1251,66.0,0,10,1.0,0.0
1252,61.0,11,10,2.0,0.0
1253,69.0,14,31,5.0,0.0
1254,54.0,1,21,6.0,0.0
1255,71.0,0,10,0.0,0.0
1256,68.0,0,10,1.0,0.0
1257,62.0,9,10,2.0,0.0
1258,73.0,0,21,0.0,0.0
1259,69.0,0,21,1.0,0.0
1260,64.0,0,21,2.0,0.0
1261,52.0,1,21,6.0,0.0
1262,71.0,12,10,5.0,0.0
1263,73.0,11,10,5.0,0.0
1264,50.0,1,21,6.0,0.0
1265,74.0,12,10,5.0,0.0
1266,76.0,11,10,5.0,0.0
1267,49.0,1,21,6.0,0.0
1268,81.0,12,10,5.0,0.0
1269,80.0,11,10,5.0,0.0
1270,50.0,1,21,6.0,0.0
1271,78.0,23,10,5.0,0.0
1272,76.0,0,21,5.0,0.0
1273,52.0,9,21,6.0,0.0
1274,76.0,6,6,5.0,0.0
1275,40.0,2,21,6.0,0.0
1276,74.0,6,6,5.0,0.0
1277,73.0,3,6,5.0,0.0
1278,74.0,11,5,5.0,0.0
1279,73.0,11,10,5.0,0.0
1280,45.0,1,21,6.0,0.0
1281,71.0,12,10,5.0,0.0
1282,73.0,1,21,0.0,0.0
1283,73.0,0,10,5.0,0.0
1284,57.0,11,10,6.0,0.0
1285,74.0,0,10,5.0,0.0
1286,56.0,12,10,6.0,0.0
1287,78.0,6,63,0.0,0.0
1288,73.0,11,10,5.0,0.0
1289,57.0,1,21,6.0,0.0
1290,76.0,12,10,5.0,0.0
1291,74.0,11,10,5.0,0.0
1292,54.0,1,21,6.0,0.0
1293,73.0,12,10,5.0,0.0
1294,71.0,5,10,5.0,0.0
1295,44.0,1,21,6.0,0.0
1296,69.0,12,10,5.0,0.0
1297,76.0,0,10,0.0,0.0
1298,71.0,0,10,5.0,0.0
1299,56.0,12,10,6.0,0.0
1300,75.0,0,10,0.0,0.0
1301,73.0,0,10,5.0,0.0
1302,54.0,12,10,6.0,0.0
1303,76.0,6,63,0.0,0.0
1304,71.0,11,10,5.0,0.0
1305,56.0,1,21,6.0,0.0
1306,74.0,12,10,5.0,0.0
1307,73.0,11,10,5.0,0.0
1308,52.0,1,21,6.0,0.0
1309,71.0,12,10,5.0,0.0
1310,69.0,5,10,5.0,0.0
1311,42.0,1,21,6.0,0.0
1312,68.0,12,10,5.0,0.0
1313,75.0,0,10,0.0,0.0
1314,69.0,0,10,5.0,0.0
1315,54.0,12,10,6.0,0.0
1316,73.0,0,10,0.0,0.0
1317,71.0,0,10,5.0,0.0
1318,52.0,12,10,6.0,0.0
1319,75.0,3,31,0.0,0.0
1320,69.0,11,10,5.0,0.0
1321,54.0,1,21,6.0,0.0
1322,73.0,9,10,5.0,0.0
1323,71.0,11,10,5.0,0.0
1324,47.0,1,21,6.0,0.0
1325,76.0,0,10,0.0,0.0
1326,69.0,12,10,5.0,0.0
1327,76.0,10,288,0.0,0.0
1328,68.0,11,10,5.0,0.0
1329,40.0,1,21,6.0,0.0
1330,66.0,6,10,5.0,0.0
1331,68.0,4,4,5.0,0.0
1332,52.0,1,10,6.0,0.0
1333,66.0,2,4,5.0,0.0
1334,68.0,11,3,5.0,0.0
1335,69.0,0,10,5.0,0.0
1336,51.0,12,10,6.0,0.0
1337,68.0,11,10,5.0,0.0
1338,52.0,1,21,6.0,0.0
1339,64.0,12,10,5.0,0.0
1340,63.0,11,10,5.0,0.0
1341,40.0,1,21,6.0,0.0
1342,64.0,12,10,5.0,0.0
1343,69.0,11,10,5.0,0.0
1344,42.0,1,21,6.0,0.0
1345,68.0,12,10,5.0,0.0
1346,69.0,0,10,5.0,0.0
1347,54.0,12,10,6.0,0.0
1348,71.0,0,10,5.0,0.0
1349,52.0,12,10,6.0,0.0
1350,69.0,11,10,5.0,0.0
1351,54.0,1,21,6.0,0.0
1352,64.0,12,10,5.0,0.0
1353,63.0,11,10,5.0,0.0
1354,42.0,1,21,6.0,0.0
1355,64.0,12,10,5.0,0.0
1356,71.0,11,10,5.0,0.0
1357,44.0,1,21,6.0,0.0
1358,69.0,12,10,5.0,0.0
1359,71.0,0,10,5.0,0.0
1360,56.0,12,10,6.0,0.0
1361,73.0,0,10,5.0,0.0
1362,54.0,12,10,6.0,0.0
1363,71.0,11,10,5.0,0.0
1364,56.0,1,21,6.0,0.0
1365,64.0,12,10,5.0,0.0
1366,63.0,11,10,5.0,0.0
1367,44.0,1,21,6.0,0.0
1368,64.0,2,10,5.0,0.0
1369,73.0,11,10,5.0,0.0
1370,45.0,1,21,6.0,0.0
1371,74.0,12,10,5.0,0.0
1372,73.0,11,10,5.0,0.0
1373,47.0,1,21,6.0,0.0
1374,71.0,12,10,5.0,0.0
1375,69.0,11,10,5.0,0.0
1376,49.0,1,21,6.0,0.0
1377,68.0,12,10,5.0,0.0
1378,66.0,11,10,5.0,0.0
1379,45.0,1,21,6.0,0.0
1380,64.0,12,10,5.0,0.0
1381,63.0,11,10,5.0,0.0
1382,47.0,1,21,6.0,0.0
1383,61.0,12,10,5.0,0.0
1384,59.0,11,10,5.0,0.0
1385,35.0,1,21,6.0,0.0
1386,61.0,12,10,5.0,0.0
1387,63.0,12,10,5.0,0.0
1388,64.0,0,10,5.0,0.0
1389,59.0,12,10,6.0,0.0
1390,66.0,0,10,5.0,0.0
1391,57.0,12,10,6.0,0.0
1392,68.0,0,10,5.0,0.0
1393,56.0,12,10,6.0,0.0
1394,69.0,11,10,5.0,0.0
1395,54.0,1,21,6.0,0.0
1396,68.0,12,10,5.0,0.0
1397,69.0,11,10,5.0,0.0
1398,51.0,1,21,6.0,0.0
1399,71.0,12,10,5.0,0.0
1400,69.0,11,10,5.0,0.0
1401,47.0,1,21,6.0,0.0
1402,73.0,12,10,5.0,0.0
1403,71.0,11,10,5.0,0.0
1404,51.0,1,21,6.0,0.0
1405,69.0,12,10,5.0,0.0
1406,68.0,11,10,5.0,0.0
1407,52.0,1,21,6.0,0.0
1408,66.0,12,10,5.0,0.0
1409,64.0,11,10,5.0,0.0
1410,40.0,1,21,6.0,0.0
1411,66.0,12,10,5.0,0.0
1412,68.0,12,10,5.0,0.0
1413,69.0,0,10,5.0,0.0
1414,64.0,12,10,6.0,0.0
1415,71.0,0,10,5.0,0.0
1416,62.0,12,10,6.0,0.0
1417,73.0,0,10,5.0,0.0
1418,61.0,12,10,6.0,0.0
1419,74.0,11,10,5.0,0.0
1420,59.0,1,21,6.0,0.0
1421,73.0,12,10,5.0,0.0
1422,74.0,11,10,5.0,0.0
1423,56.0,1,21,6.0,0.0
1424,76.0,12,10,5.0,0.0
1425,74.0,11,10,5.0,0.0
1426,52.0,1,21,6.0,0.0
1427,78.0,12,10,5.0,0.0
1428,76.0,11,10,5.0,0.0
1429,56.0,1,21,6.0,0.0
1430,74.0,12,10,5.0,0.0
1431,73.0,11,10,5.0,0.0
1432,57.0,1,21,6.0,0.0
1433,76.0,12,10,5.0,0.0
1434,75.0,11,10,5.0,0.0
1435,54.0,1,21,6.0,0.0
1436,78.0,8,10,5.0,0.0
1437,76.0,4,6,5.0,0.0
1438,56.0,2,10,6.0,0.0
1439,75.0,10,6,5.0,0.0
1440,76.0,15,42,5.0,0.0
1441,59.0,12,10,6.0,0.0
1442,57.0,12,10,6.0,0.0
1443,61.0,8,10,6.0,0.0
1444,59.0,3,21,6.0,0.0
1445,75.0,6,12,5.0,0.0
1446,76.0,6,6,5.0,0.0
1447,58.0,1,21,6.0,0.0
1448,75.0,9,6,5.0,0.0
1449,73.0,8,10,5.0,0.0
1450,75.0,6,6,5.0,0.0
1451,59.0,3,21,6.0,0.0
1452,76.0,6,6,5.0,0.0
1453,75.0,3,6,5.0,0.0
1454,76.0,10,6,5.0,0.0
1455,75.0,11,10,5.0,0.0
1456,47.0,1,21,6.0,0.0
1457,76.0,12,10,5.0,0.0
1458,40.0,0,21,3.0,0.0
1459,28.0,0,21,4.0,0.0
1460,76.0,11,10,5.0,0.0
1461,40.0,1,21,6.0,0.0
1462,71.0,12,10,5.0,0.0
1463,76.0,0,10,0.0,0.0
1464,71.0,0,10,1.0,0.0
1465,68.0,0,10,2.0,0.0
1466,52.0,0,21,3.0,0.0
1467,40.0,0,21,4.0,0.0
1468,76.0,11,10,5.0,0.0
1469,52.0,1,21,6.0,0.0
1470,75.0,0,10,0.0,0.0
1471,69.0,0,10,1.0,0.0
1472,66.0,0,10,2.0,0.0
1473,75.0,12,10,5.0,0.0
1474,76.0,0,21,0.0,0.0
1475,71.0,0,21,1.0,0.0
1476,68.0,1,21,2.0,0.0
1477,76.0,11,10,5.0,0.0
1478,71.0,12,10,5.0,0.0
1479,71.0,0,21,0.0,0.0
1480,68.0,0,21,1.0,0.0
1481,64.0,1,21,2.0,0.0
1482,68.0,11,10,5.0,0.0
1483,64.0,12,10,5.0,0.0
1484,68.0,0,21,0.0,0.0
1485,64.0,0,21,1.0,0.0
1486,59.0,1,21,2.0,0.0
1487,71.0,11,10,5.0,0.0
1488,68.0,12,10,5.0,0.0
1489,71.0,0,21,0.0,0.0
1490,68.0,0,21,1.0,0.0
1491,64.0,1,21,2.0,0.0
1492,64.0,11,10,5.0,0.0
1493,59.0,12,10,5.0,0.0
1494,64.0,0,21,0.0,0.0
1495,59.0,0,21,1.0,0.0
1496,56.0,1,21,2.0,0.0
1497,68.0,11,10,5.0,0.0
1498,64.0,12,10,5.0,0.0
1499,68.0,0,21,0.0,0.0
1500,64.0,0,21,1.0,0.0
1501,59.0,1,21,2.0,0.0
1502,59.0,11,10,5.0,0.0
1503,56.0,23,10,5.0,0.0
1504,71.0,0,21,0.0,0.0
1505,64.0,0,21,1.0,0.0
1506,64.0,0,21,2.0,0.0
1507,44.0,0,21,3.0,0.0
1508,32.0,0,21,4.0,0.0
1509,44.0,1,21,6.0,0.0
1510,74.0,12,10,5.0,0.0
1511,74.0,0,10,0.0,0.0
1512,71.0,0,10,1.0,0.0
1513,56.0,0,21,2.0,0.0
1514,56.0,0,21,3.0,0.0
1515,44.0,0,21,4.0,0.0
1516,83.0,11,10,5.0,0.0
1517,56.0,1,21,6.0,0.0
1518,73.0,0,10,0.0,0.0
1519,69.0,0,10,1.0,0.0
1520,81.0,12,10,5.0,0.0
1521,74.0,0,21,0.0,0.0
1522,71.0,0,21,1.0,0.0
1523,52.0,1,21,2.0,0.0
1524,83.0,11,10,5.0,0.0
1525,80.0,12,10,5.0,0.0
1526,71.0,0,21,0.0,0.0
1527,68.0,0,21,1.0,0.0
1528,56.0,1,21,2.0,0.0
1529,74.0,11,10,5.0,0.0
1530,71.0,12,10,5.0,0.0
1531,68.0,0,21,0.0,0.0
1532,64.0,0,21,1.0,0.0
1533,59.0,1,21,2.0,0.0
1534,80.0,11,10,5.0,0.0
1535,74.0,12,10,5.0,0.0
1536,71.0,0,21,0.0,0.0
1537,68.0,0,21,1.0,0.0
1538,64.0,1,21,2.0,0.0
1539,71.0,11,10,5.0,0.0
1540,68.0,12,10,5.0,0.0
1541,64.0,0,21,0.0,0.0
1542,59.0,0,21,1.0,0.0
1543,56.0,1,21,2.0,0.0
1544,74.0,11,10,5.0,0.0
1545,71.0,12,10,5.0,0.0
1546,68.0,0,21,0.0,0.0
1547,64.0,0,21,1.0,0.0
1548,59.0,1,21,2.0,0.0
1549,68.0,11,10,5.0,0.0
1550,64.0,8,10,5.0,0.0
1551,73.0,0,21,0.0,0.0
1552,64.0,0,21,1.0,0.0
1553,57.0,1,21,2.0,0.0
1554,73.0,6,6,5.0,0.0
1555,71.0,9,6,5.0,0.0
1556,73.0,12,10,5.0,0.0
1557,69.0,0,21,0.0,0.0
1558,73.0,0,10,1.0,0.0
1559,64.0,0,21,2.0,0.0
1560,57.0,0,10,3.0,0.0
1561,45.0,0,10,4.0,0.0
1562,69.0,1,21,5.0,0.0
1563,57.0,11,10,6.0,0.0
1564,71.0,0,10,1.0,0.0
1565,56.0,0,10,3.0,0.0
1566,44.0,0,10,4.0,0.0
1567,56.0,8,10,6.0,0.0
1568,78.0,1,63,0.0,0.0
1569,73.0,0,21,1.0,0.0
1570,61.0,0,21,2.0,0.0
1571,57.0,0,21,3.0,0.0
1572,45.0,0,21,4.0,0.0
1573,78.0,6,6,5.0,0.0
1574,57.0,13,21,6.0,0.0
1575,76.0,9,6,5.0,0.0
1576,78.0,5,52,5.0,0.0
1577,75.0,11,10,1.0,0.0
1578,57.0,0,21,2.0,0.0
1579,54.0,0,21,3.0,0.0
1580,42.0,0,21,4.0,0.0
1581,54.0,1,21,6.0,0.0
1582,76.0,17,10,1.0,0.0
1583,78.0,0,21,1.0,0.0
1584,69.0,0,21,2.0,0.0
1585,51.0,0,21,3.0,0.0
1586,39.0,0,21,4.0,0.0
1587,51.0,13,21,6.0,0.0
1588,80.0,9,12,0.0,0.0
1589,54.0,0,21,3.0,0.0
1590,42.0,0,21,4.0,0.0
1591,80.0,2,10,5.0,0.0
1592,54.0,1,21,6.0,0.0
1593,81.0,12,12,0.0,0.0
1594,81.0,2,10,5.0,0.0
1595,83.0,0,12,0.0,0.0
1596,51.0,0,21,3.0,0.0
1597,39.0,0,21,4.0,0.0
1598,83.0,9,12,5.0,0.0
1599,51.0,3,21,6.0,0.0
1600,81.0,0,12,0.0,0.0
1601,81.0,12,12,5.0,0.0
1602,80.0,0,12,0.0,0.0
1603,47.0,0,21,3.0,0.0
1604,35.0,0,21,4.0,0.0
1605,80.0,9,12,5.0,0.0
1606,47.0,1,21,6.0,0.0
1607,81.0,0,10,0.0,0.0
1608,81.0,23,10,5.0,0.0
1609,83.0,0,21,0.0,0.0
1610,44.0,0,21,3.0,0.0
1611,32.0,0,21,4.0,0.0
1612,83.0,0,21,5.0,0.0
1613,44.0,13,21,6.0,0.0
1614,71.0,0,21,0.0,0.0
1615,71.0,0,10,1.0,0.0
1616,63.0,0,21,2.0,0.0
1617,56.0,0,10,3.0,0.0
1618,44.0,0,10,4.0,0.0
1619,71.0,1,21,5.0,0.0
1620,56.0,11,10,6.0,0.0
1621,69.0,0,10,1.0,0.0
1622,54.0,0,10,3.0,0.0
1623,42.0,0,10,4.0,0.0
1624,54.0,8,10,6.0,0.0
1625,76.0,1,63,0.0,0.0
1626,71.0,0,21,1.0,0.0
1627,59.0,0,21,2.0,0.0
1628,56.0,0,21,3.0,0.0
1629,44.0,0,21,4.0,0.0
1630,76.0,6,6,5.0,0.0
1631,56.0,13,21,6.0,0.0
1632,75.0,9,6,5.0,0.0
1633,76.0,5,52,5.0,0.0
1634,73.0,11,10,1.0,0.0
1635,56.0,0,21,2.0,0.0
1636,52.0,0,21,3.0,0.0
1637,40.0,0,21,4.0,0.0
1638,52.0,1,21,6.0,0.0
1639,75.0,17,10,1.0,0.0
1640,76.0,0,21,1.0,0.0
1641,68.0,0,21,2.0,0.0
1642,49.0,0,21,3.0,0.0
1643,37.0,0,21,4.0,0.0
1644,49.0,13,21,6.0,0.0
1645,78.0,9,12,0.0,0.0
1646,52.0,0,21,3.0,0.0
1647,40.0,0,21,4.0,0.0
1648,78.0,2,10,5.0,0.0
1649,52.0,1,21,6.0,0.0
1650,80.0,12,12,0.0,0.0
1651,80.0,2,10,5.0,0.0
1652,81.0,0,12,0.0,0.0
1653,49.0,0,21,3.0,0.0
1654,37.0,0,21,4.0,0.0
1655,81.0,9,12,5.0,0.0
1656,49.0,3,21,6.0,0.0
1657,80.0,0,12,0.0,0.0
1658,80.0,12,12,5.0,0.0
1659,78.0,0,12,0.0,0.0
1660,45.0,0,21,3.0,0.0
1661,33.0,0,21,4.0,0.0
1662,78.0,9,12,5.0,0.0
1663,45.0,1,21,6.0,0.0
1664,80.0,0,10,0.0,0.0
1665,80.0,23,10,5.0,0.0
1666,81.0,0,21,0.0,0.0
1667,42.0,0,21,3.0,0.0
1668,30.0,0,21,4.0,0.0
1669,81.0,0,21,5.0,0.0
1670,42.0,13,21,6.0,0.0
1671,69.0,0,10,0.0,0.0
1672,66.0,0,10,1.0,0.0
1673,61.0,0,10,2.0,0.0
1674,54.0,0,21,3.0,0.0
1675,42.0,0,21,4.0,0.0
1676,69.0,11,10,5.0,0.0
1677,54.0,1,21,6.0,0.0
1678,68.0,0,10,0.0,0.0
1679,64.0,0,10,1.0,0.0
1680,59.0,0,10,2.0,0.0
1681,68.0,23,10,5.0,0.0
1682,69.0,0,21,0.0,0.0
1683,66.0,0,21,1.0,0.0
1684,61.0,0,21,2.0,0.0
1685,52.0,0,21,3.0,0.0
1686,40.0,0,21,4.0,0.0
1687,69.0,0,21,5.0,0.0
1688,52.0,13,21,6.0,0.0
1689,81.0,0,10,0.0,0.0
1690,78.0,0,10,1.0,0.0
1691,61.0,0,21,2.0,0.0
1692,40.0,0,21,3.0,0.0
1693,28.0,0,21,4.0,0.0
1694,81.0,11,10,5.0,0.0
1695,40.0,1,21,6.0,0.0
1696,80.0,0,10,0.0,0.0
1697,76.0,0,10,1.0,0.0
1698,80.0,23,10,5.0,0.0
1699,81.0,0,21,0.0,0.0
1700,78.0,0,21,1.0,0.0
1701,59.0,0,21,2.0,0.0
1702,39.0,0,21,3.0,0.0
1703,27.0,0,21,4.0,0.0
1704,81.0,0,21,5.0,0.0
1705,39.0,13,21,6.0,0.0
1706,69.0,0,10,0.0,0.0
1707,66.0,0,10,1.0,0.0
1708,66.0,0,21,2.0,0.0
1709,51.0,0,21,3.0,0.0
1710,39.0,0,21,4.0,0.0
1711,69.0,11,10,5.0,0.0
1712,51.0,1,21,6.0,0.0
1713,68.0,0,10,0.0,0.0
1714,64.0,0,10,1.0,0.0
1715,68.0,23,10,5.0,0.0
1716,69.0,0,21,0.0,0.0
1717,66.0,0,21,1.0,0.0
1718,64.0,0,21,2.0,0.0
1719,49.0,0,21,3.0,0.0
1720,37.0,0,21,4.0,0.0
1721,69.0,0,21,5.0,0.0
1722,49.0,13,21,6.0,0.0
1723,81.0,0,10,0.0,0.0
1724,78.0,0,10,1.0,0.0
1725,64.0,0,21,2.0,0.0
1726,61.0,0,21,3.0,0.0
1727,49.0,0,21,4.0,0.0
1728,81.0,11,10,5.0,0.0
1729,61.0,1,21,6.0,0.0
1730,80.0,0,10,0.0,0.0
1731,76.0,0,10,1.0,0.0
1732,80.0,23,10,5.0,0.0
1733,81.0,0,21,0.0,0.0
1734,78.0,0,21,1.0,0.0
1735,63.0,0,21,2.0,0.0
1736,59.0,0,21,3.0,0.0
1737,47.0,0,21,4.0,0.0
1738,81.0,0,21,5.0,0.0
1739,59.0,7,21,6.0,0.0
1740,80.0,0,10,0.0,0.0
1741,76.0,1,10,1.0,0.0
1742,59.0,0,21,2.0,0.0
1743,47.0,0,21,3.0,0.0
1744,35.0,0,21,4.0,0.0
1745,80.0,4,4,5.0,0.0
1746,47.0,1,21,6.0,0.0
1747,81.0,2,4,5.0,0.0
1748,80.0,10,3,5.0,0.0
1749,78.0,0,10,0.0,0.0
1750,75.0,0,10,1.0,0.0
1751,78.0,23,10,5.0,0.0
1752,80.0,0,21,0.0,0.0
1753,76.0,0,21,1.0,0.0
1754,59.0,0,21,2.0,0.0
1755,52.0,0,21,3.0,0.0
1756,40.0,0,21,4.0,0.0
1757,80.0,0,21,5.0,0.0
1758,52.0,24,21,6.0,0.0
1759,76.0,0,21,0.0,0.0
1760,71.0,0,21,1.0,0.0
1761,64.0,0,21,2.0,0.0
1762,56.0,0,21,3.0,0.0
1763,44.0,0,21,4.0,0.0
1764,76.0,0,21,5.0,0.0
1765,56.0,24,21,6.0,0.0
1766,73.0,0,21,0.0,0.0
1767,69.0,0,21,1.0,0.0
1768,64.0,0,21,2.0,0.0
1769,45.0,0,21,3.0,0.0
1770,33.0,0,21,4.0,0.0
1771,73.0,0,21,5.0,0.0
1772,45.0,13,21,6.0,0.0
1773,75.0,0,48,0.0,0.0
1774,66.0,0,48,1.0,0.0
1775,66.0,0,10,2.0,0.0
1776,57.0,0,10,3.0,0.0
1777,45.0,0,10,4.0,0.0
1778,75.0,12,48,5.0,0.0
1779,57.0,12,10,6.0,0.0
1780,64.0,0,10,2.0,0.0
1781,56.0,0,10,3.0,0.0
1782,44.0,0,10,4.0,0.0
1783,56.0,23,10,6.0,0.0
1784,66.0,0,21,2.0,0.0
1785,57.0,0,21,3.0,0.0
1786,45.0,0,21,4.0,0.0
1787,57.0,3,21,6.0,0.0
1788,76.0,0,12,0.0,0.0
1789,68.0,0,12,1.0,0.0
1790,59.0,3,42,2.0,0.0
1791,54.0,0,21,3.0,0.0
1792,42.0,0,21,4.0,0.0
1793,76.0,9,12,5.0,0.0
1794,54.0,1,21,6.0,0.0
1795,78.0,0,10,0.0,0.0
1796,69.0,0,10,1.0,0.0
1797,78.0,12,10,5.0,0.0
1798,71.0,0,21,0.0,0.0
1799,71.0,8,10,1.0,0.0
1800,44.0,0,21,3.0,0.0
1801,32.0,0,21,4.0,0.0
1802,71.0,0,21,5.0,0.0
1803,44.0,1,21,6.0,0.0
1804,73.0,12,10,1.0,0.0
1805,75.0,9,36,0.0,0.0
1806,71.0,0,10,1.0,0.0
1807,56.0,1,21,2.0,0.0
1808,56.0,0,10,3.0,0.0
1809,44.0,0,10,4.0,0.0
1810,75.0,3,31,5.0,0.0
1811,56.0,11,10,6.0,0.0
1812,69.0,0,10,1.0,0.0
1813,54.0,0,10,3.0,0.0
1814,42.0,0,10,4.0,0.0
1815,54.0,9,10,6.0,0.0
1816,71.0,2,10,1.0,0.0
1817,59.0,0,21,2.0,0.0
1818,56.0,0,21,3.0,0.0
1819,44.0,0,21,4.0,0.0
1820,56.0,1,21,6.0,0.0
1821,76.0,10,12,0.0,0.0
1822,69.0,0,10,1.0,0.0
1823,76.0,2,10,5.0,0.0
1824,75.0,9,12,0.0,0.0
1825,71.0,0,10,1.0,0.0
1826,64.0,0,21,2.0,0.0
1827,49.0,0,21,3.0,0.0
1828,37.0,0,21,4.0,0.0
1829,75.0,2,10,5.0,0.0
1830,49.0,1,21,6.0,0.0
1831,76.0,0,10,0.0,0.0
1832,68.0,0,10,1.0,0.0
1833,76.0,12,10,5.0,0.0
1834,69.0,0,21,0.0,0.0
1835,69.0,11,10,1.0,0.0
1836,61.0,0,21,2.0,0.0
1837,42.0,0,21,3.0,0.0
1838,30.0,0,21,4.0,0.0
1839,69.0,0,21,5.0,0.0
1840,42.0,1,21,6.0,0.0
1841,71.0,12,10,1.0,0.0
1842,75.0,0,48,0.0,0.0
1843,69.0,0,10,1.0,0.0
1844,66.0,1,21,2.0,0.0
1845,54.0,0,10,3.0,0.0
1846,42.0,0,10,4.0,0.0
1847,75.0,10,48,5.0,0.0
1848,54.0,11,10,6.0,0.0
1849,68.0,0,10,1.0,0.0
1850,52.0,0,10,3.0,0.0
1851,40.0,0,10,4.0,0.0
1852,52.0,12,10,6.0,0.0
1853,69.0,11,10,1.0,0.0
1854,57.0,0,21,2.0,0.0
1855,54.0,0,21,3.0,0.0
1856,42.0,0,21,4.0,0.0
1857,54.0,1,21,6.0,0.0
1858,66.0,2,10,1.0,0.0
1859,76.0,0,12,0.0,0.0
1860,64.0,2,10,1.0,0.0
1861,59.0,0,21,2.0,0.0
1862,47.0,0,21,3.0,0.0
1863,35.0,0,21,4.0,0.0
1864,76.0,9,12,5.0,0.0
1865,47.0,1,21,6.0,0.0
1866,78.0,0,10,0.0,0.0
1867,63.0,0,10,1.0,0.0
1868,78.0,23,10,5.0,0.0
1869,68.0,0,21,0.0,0.0
1870,64.0,0,21,1.0,0.0
1871,59.0,0,21,2.0,0.0
1872,40.0,0,21,3.0,0.0
1873,28.0,0,21,4.0,0.0
1874,68.0,0,21,5.0,0.0
1875,40.0,13,21,6.0,0.0
1876,69.0,0,10,0.0,0.0
1877,64.0,3,42,1.0,0.0
1878,64.0,1,21,2.0,0.0
1879,42.0,0,10,3.0,0.0
1880,30.0,0,10,4.0,0.0
1881,69.0,0,10,5.0,0.0
1882,42.0,11,10,6.0,0.0
1883,71.0,0,10,0.0,0.0
1884,44.0,0,10,3.0,0.0
1885,32.0,0,10,4.0,0.0
1886,71.0,0,10,5.0,0.0
1887,44.0,20,10,6.0,0.0
1888,73.0,0,21,0.0,0.0
1889,57.0,0,21,2.0,0.0
1890,45.0,0,63,3.0,0.0
1891,33.0,0,63,4.0,0.0
1892,73.0,24,21,5.0,0.0
1893,45.0,6,63,6.0,0.0
1894,78.0,0,21,0.0,0.0
1895,69.0,0,21,1.0,0.0
1896,61.0,0,21,2.0,0.0
1897,78.0,18,21,5.0,0.0
1898,71.0,0,21,0.0,0.0
1899,66.0,0,21,1.0,0.0
1900,63.0,0,21,2.0,0.0
1901,71.0,24,21,5.0,0.0
1902,83.0,0,21,0.0,0.0
1903,64.0,0,21,1.0,0.0
1904,64.0,0,21,2.0,0.0
1905,44.0,0,21,3.0,0.0
1906,32.0,0,21,4.0,0.0
1907,83.0,0,21,5.0,0.0
1908,44.0,15,21,6.0,0.0
1909,81.0,0,12,0.0,0.0
1910,76.0,0,21,1.0,0.0
1911,61.0,0,21,2.0,0.0
1912,45.0,0,21,3.0,0.0
1913,33.0,0,21,4.0,0.0
1914,81.0,9,12,5.0,0.0
1915,45.0,1,21,6.0,0.0
1916,80.0,2,10,0.0,0.0
1917,80.0,12,12,5.0,0.0
1918,78.0,0,12,0.0,0.0
1919,75.0,0,21,1.0,0.0
1920,66.0,0,21,2.0,0.0
1921,47.0,0,21,3.0,0.0
1922,35.0,0,21,4.0,0.0
1923,78.0,9,12,5.0,0.0
1924,47.0,1,21,6.0,0.0
1925,80.0,0,10,0.0,0.0
1926,80.0,23,10,5.0,0.0
1927,76.0,0,21,0.0,0.0
1928,71.0,0,21,1.0,0.0
1929,68.0,0,21,2.0,0.0
1930,40.0,0,21,3.0,0.0
1931,28.0,0,21,4.0,0.0
1932,76.0,2,52,5.0,0.0
1933,40.0,9,21,6.0,0.0
1934,68.0,0,10,0.0,0.0
1935,64.0,11,10,1.0,0.0
1936,59.0,0,21,2.0,0.0
1937,52.0,0,21,3.0,0.0
1938,40.0,1,21,4.0,0.0
1939,64.0,4,6,6.0,0.0
1940,69.0,0,10,0.0,0.0
1941,66.0,6,10,1.0,0.0
1942,71.0,0,21,0.0,0.0
1943,68.0,0,21,1.0,0.0
1944,64.0,1,21,2.0,0.0
1945,56.0,15,6,6.0,0.0
1946,80.0,8,10,5.0,0.0
1947,78.0,12,10,5.0,0.0
1948,59.0,4,6,6.0,0.0
1949,80.0,8,10,5.0,0.0
1950,78.0,6,24,5.0,0.0
1951,52.0,18,6,6.0,0.0
1952,71.0,0,10,0.0,0.0
1953,68.0,11,10,1.0,0.0
1954,64.0,1,21,2.0,0.0
1955,76.0,14,31,5.0,0.0
1956,56.0,4,6,6.0,0.0
1957,73.0,0,10,0.0,0.0
1958,69.0,8,10,1.0,0.0
1959,74.0,0,21,0.0,0.0
1960,71.0,0,21,1.0,0.0
1961,56.0,1,21,2.0,0.0
1962,47.0,1,6,6.0,0.0
1963,80.0,8,10,5.0,0.0
1964,78.0,12,10,5.0,0.0
1965,52.0,4,6,6.0,0.0
1966,80.0,12,10,5.0,0.0
1967,76.0,11,10,5.0,0.0
1968,44.0,1,21,6.0,0.0
1969,78.0,12,10,5.0,0.0
1970,80.0,11,10,5.0,0.0
1971,47.0,1,21,6.0,0.0
1972,81.0,12,10,5.0,0.0
1973,83.0,11,10,5.0,0.0
1974,40.0,1,21,6.0,0.0
1975,86.0,12,10,5.0,0.0
1976,85.0,11,10,5.0,0.0
1977,52.0,1,21,6.0,0.0
1978,83.0,12,10,5.0,0.0
1979,45.0,0,21,3.0,0.0
1980,85.0,11,10,5.0,0.0
1981,45.0,1,21,6.0,0.0
1982,76.0,12,10,5.0,0.0
1983,73.0,0,10,0.0,0.0
1984,69.0,0,10,1.0,0.0
1985,64.0,0,21,2.0,0.0
1986,57.0,0,21,3.0,0.0
1987,81.0,11,10,5.0,0.0
1988,57.0,1,21,6.0,0.0
1989,74.0,0,10,0.0,0.0
1990,71.0,0,10,1.0,0.0
1991,80.0,12,10,5.0,0.0
1992,76.0,0,21,0.0,0.0
1993,73.0,0,21,1.0,0.0
1994,69.0,3,21,2.0,0.0
1995,81.0,8,10,5.0,0.0
1996,80.0,3,6,5.0,0.0
1997,78.0,6,6,5.0,0.0
1998,81.0,0,21,0.0,0.0
1999,76.0,0,21,1.0,0.0
2000,73.0,2,21,2.0,0.0
2001,76.0,6,6,5.0,0.0
2002,74.0,6,6,5.0,0.0
2003,73.0,3,6,5.0,0.0
2004,71.0,6,5,5.0,0.0
2005,73.0,0,21,0.0,0.0
2006,69.0,0,21,1.0,0.0
2007,64.0,9,21,2.0,0.0
2008,69.0,6,5,5.0,0.0
2009,68.0,10,5,5.0,0.0
2010,69.0,0,42,5.0,0.0
2011,76.0,0,21,0.0,0.0
2012,73.0,0,21,1.0,0.0
2013,69.0,9,21,2.0,0.0
2014,57.0,15,6,6.0,0.0
2015,69.0,0,21,0.0,0.0
2016,64.0,0,21,1.0,0.0
2017,64.0,1,21,2.0,0.0
2018,49.0,15,6,6.0,0.0
2019,73.0,8,10,5.0,0.0
2020,73.0,0,21,0.0,0.0
2021,69.0,0,21,1.0,0.0
2022,61.0,1,21,2.0,0.0
2023,71.0,11,10,5.0,0.0
2024,52.0,4,6,6.0,0.0
2025,73.0,23,10,5.0,0.0
2026,64.0,0,21,0.0,0.0
2027,61.0,0,21,1.0,0.0
2028,64.0,0,21,2.0,0.0
2029,71.0,10,24,5.0,0.0
2030,45.0,3,21,6.0,0.0
2031,73.0,0,10,0.0,0.0
2032,69.0,11,10,1.0,0.0
2033,64.0,0,21,2.0,0.0
2034,69.0,14,31,5.0,0.0
2035,49.0,1,21,6.0,0.0
2036,74.0,0,10,0.0,0.0
2037,71.0,9,10,1.0,0.0
2038,76.0,0,21,0.0,0.0
2039,73.0,0,21,1.0,0.0
2040,69.0,0,21,2.0,0.0
2041,40.0,1,21,6.0,0.0
2042,73.0,12,10,5.0,0.0
2043,71.0,11,10,5.0,0.0
2044,45.0,1,21,6.0,0.0
2045,73.0,12,10,5.0,0.0
2046,69.0,11,10,5.0,0.0
2047,37.0,1,21,6.0,0.0
2048,71.0,12,10,5.0,0.0
2049,76.0,0,10,0.0,0.0
2050,76.0,0,10,1.0,0.0
2051,69.0,0,21,2.0,0.0
2052,73.0,11,10,5.0,0.0
2053,40.0,1,21,6.0,0.0
2054,78.0,0,10,0.0,0.0
2055,74.0,0,10,1.0,0.0
2056,74.0,12,10,5.0,0.0
2057,79.0,0,21,0.0,0.0
2058,73.0,0,21,1.0,0.0
2059,64.0,0,21,2.0,0.0
2060,76.0,11,10,5.0,0.0
2061,33.0,1,21,6.0,0.0
2062,79.0,12,10,5.0,0.0
2063,78.0,11,10,5.0,0.0
2064,45.0,1,21,6.0,0.0
2065,76.0,8,10,5.0,0.0
2066,50.0,0,21,3.0,0.0
2067,78.0,15,6,5.0,0.0
2068,38.0,9,21,6.0,0.0
2069,74.0,0,10,0.0,0.0
2070,69.0,0,21,1.0,0.0
2071,66.0,0,10,2.0,0.0
2072,62.0,1,21,3.0,0.0
2073,74.0,4,6,5.0,0.0
2074,54.0,11,10,6.0,0.0
2075,76.0,0,10,0.0,0.0
2076,67.0,0,10,2.0,0.0
2077,52.0,23,10,6.0,0.0
2078,78.0,0,21,0.0,0.0
2079,74.0,0,21,1.0,0.0
2080,69.0,0,21,2.0,0.0
2081,50.0,1,21,6.0,0.0
2082,78.0,12,10,5.0,0.0
2083,76.0,11,10,5.0,0.0
2084,62.0,1,21,6.0,0.0
2085,78.0,12,10,5.0,0.0
2086,71.0,11,10,5.0,0.0
2087,55.0,1,21,6.0,0.0
2088,73.0,6,10,5.0,0.0
2089,71.0,4,4,5.0,0.0
2090,54.0,1,21,6.0,0.0
2091,73.0,3,4,5.0,0.0
2092,71.0,10,3,5.0,0.0
2093,70.0,12,10,5.0,0.0
2094,71.0,11,10,5.0,0.0
2095,52.0,3,21,6.0,0.0
2096,67.0,12,12,5.0,0.0
2097,66.0,9,12,5.0,0.0
2098,50.0,1,21,6.0,0.0
2099,67.0,12,10,5.0,0.0
2100,49.0,0,21,3.0,0.0
2101,76.0,11,10,5.0,0.0
2102,49.0,1,21,6.0,0.0
2103,74.0,12,10,5.0,0.0
2104,73.0,0,10,0.0,0.0
2105,70.0,0,10,1.0,0.0
2106,64.0,0,10,2.0,0.0
2107,61.0,1,21,3.0,0.0
2108,74.0,9,12,5.0,0.0
2109,52.0,2,10,6.0,0.0
2110,74.0,0,10,0.0,0.0
2111,71.0,0,10,1.0,0.0
2112,66.0,0,10,2.0,0.0
2113,76.0,12,21,5.0,0.0
2114,50.0,11,10,6.0,0.0
2115,76.0,0,21,0.0,0.0
2116,73.0,0,21,1.0,0.0
2117,67.0,0,21,2.0,0.0
2118,49.0,1,21,6.0,0.0
2119,74.0,6,10,5.0,0.0
2120,73.0,4,4,5.0,0.0
2121,52.0,1,21,6.0,0.0
2122,74.0,3,4,5.0,0.0
2123,73.0,10,3,5.0,0.0
2124,71.0,12,10,5.0,0.0
2125,70.0,11,10,5.0,0.0
2126,54.0,1,21,6.0,0.0
2127,71.0,12,10,5.0,0.0
2128,70.0,11,10,5.0,0.0
2129,52.0,1,21,6.0,0.0
2130,68.0,12,10,5.0,0.0
2131,70.0,11,10,5.0,0.0
2132,50.0,1,21,6.0,0.0
2133,66.0,12,10,5.0,0.0
2134,65.0,11,10,5.0,0.0
2135,49.0,1,21,6.0,0.0
2136,66.0,12,10,5.0,0.0
2137,47.0,0,21,3.0,0.0
2138,74.0,11,10,5.0,0.0
2139,47.0,1,21,6.0,0.0
2140,73.0,12,10,5.0,0.0
2141,71.0,0,10,0.0,0.0
2142,66.0,0,21,1.0,0.0
2143,62.0,0,10,2.0,0.0
2144,59.0,0,21,3.0,0.0
2145,74.0,1,21,5.0,0.0
2146,50.0,11,10,6.0,0.0
2147,73.0,0,10,0.0,0.0
2148,64.0,0,10,2.0,0.0
2149,49.0,23,10,6.0,0.0
2150,74.0,0,21,0.0,0.0
2151,71.0,0,21,1.0,0.0
2152,66.0,0,21,2.0,0.0
2153,47.0,1,21,6.0,0.0
2154,71.0,12,10,5.0,0.0
2155,70.0,11,10,5.0,0.0
2156,50.0,1,21,6.0,0.0
2157,71.0,23,10,5.0,0.0
2158,76.0,0,21,5.0,0.0
2159,49.0,13,21,6.0,0.0
2160,79.0,0,10,0.0,0.0
2161,64.0,11,10,5.0,0.0
2162,61.0,1,21,6.0,0.0
2163,78.0,0,10,0.0,0.0
2164,62.0,23,10,5.0,0.0
2165,79.0,0,21,0.0,0.0
2166,64.0,0,21,5.0,0.0
2167,59.0,13,21,6.0,0.0
2168,67.0,0,10,1.0,0.0
2169,76.0,11,10,5.0,0.0
2170,47.0,1,21,6.0,0.0
2171,66.0,0,10,1.0,0.0
2172,74.0,23,10,5.0,0.0
2173,67.0,0,21,1.0,0.0
2174,76.0,0,21,5.0,0.0
2175,46.0,13,21,6.0,0.0
2176,55.0,0,10,2.0,0.0
2177,64.0,11,10,5.0,0.0
2178,58.0,1,21,6.0,0.0
2179,54.0,0,10,2.0,0.0
2180,62.0,23,10,5.0,0.0
2181,55.0,0,21,2.0,0.0
2182,64.0,0,21,5.0,0.0
2183,59.0,13,21,6.0,0.0
2184,76.0,0,10,0.0,0.0
2185,73.0,0,10,1.0,0.0
2186,67.0,0,21,2.0,0.0
2187,76.0,11,10,5.0,0.0
2188,61.0,1,21,6.0,0.0
2189,74.0,0,10,0.0,0.0
2190,71.0,0,10,1.0,0.0
2191,74.0,12,10,5.0,0.0
2192,76.0,0,21,0.0,0.0
2193,73.0,0,21,1.0,0.0
2194,66.0,0,21,2.0,0.0
2195,42.0,0,21,3.0,0.0
2196,76.0,1,21,5.0,0.0
2197,54.0,11,10,6.0,0.0
2198,55.0,12,10,6.0,0.0
2199,54.0,0,21,3.0,0.0
2200,70.0,1,21,5.0,0.0
2201,54.0,11,10,6.0,0.0
2202,52.0,8,10,6.0,0.0
2203,73.0,4,6,5.0,0.0
2204,50.0,2,10,6.0,0.0
2205,71.0,6,6,5.0,0.0
2206,70.0,4,6,5.0,0.0
2207,49.0,1,10,6.0,0.0
2208,71.0,11,5,5.0,0.0
2209,73.0,1,21,5.0,0.0
2210,47.0,11,10,6.0,0.0
2211,46.0,12,10,6.0,0.0
2212,66.0,1,21,5.0,0.0
2213,47.0,11,10,6.0,0.0
2214,49.0,12,10,6.0,0.0
2215,78.0,1,21,5.0,0.0
2216,50.0,11,10,6.0,0.0
2217,52.0,12,10,6.0,0.0
2218,76.0,11,10,5.0,0.0
2219,54.0,1,21,6.0,0.0
2220,74.0,12,10,5.0,0.0
2221,73.0,11,10,5.0,0.0
2222,42.0,1,21,6.0,0.0
2223,74.0,12,10,5.0,0.0
2224,47.0,0,21,3.0,0.0
2225,35.0,0,21,4.0,0.0
2226,71.0,11,10,5.0,0.0
2227,47.0,1,21,6.0,0.0
2228,78.0,12,10,5.0,0.0
2229,74.0,0,10,0.0,0.0
2230,71.0,0,10,1.0,0.0
2231,66.0,0,21,2.0,0.0
2232,59.0,0,21,3.0,0.0
2233,47.0,0,21,4.0,0.0
2234,83.0,11,10,5.0,0.0
2235,59.0,1,21,6.0,0.0
2236,76.0,0,10,0.0,0.0
2237,73.0,0,10,1.0,0.0
2238,82.0,12,10,5.0,0.0
2239,78.0,0,21,0.0,0.0
2240,74.0,0,21,1.0,0.0
2241,71.0,1,21,2.0,0.0
2242,83.0,11,10,5.0,0.0
2243,78.0,12,10,5.0,0.0
2244,83.0,0,21,0.0,0.0
2245,78.0,0,21,1.0,0.0
2246,74.0,1,21,2.0,0.0
2247,74.0,11,10,5.0,0.0
2248,71.0,12,10,5.0,0.0
2249,74.0,0,21,0.0,0.0
2250,71.0,0,21,1.0,0.0
2251,66.0,1,21,2.0,0.0
2252,78.0,11,10,5.0,0.0
2253,74.0,12,10,5.0,0.0
2254,78.0,0,21,0.0,0.0
2255,74.0,0,21,1.0,0.0
2256,71.0,1,21,2.0,0.0
2257,71.0,11,10,5.0,0.0
2258,66.0,12,10,5.0,0.0
2259,71.0,0,21,0.0,0.0
2260,66.0,0,21,1.0,0.0
2261,62.0,1,21,2.0,0.0
2262,74.0,11,10,5.0,0.0
2263,71.0,12,10,5.0,0.0
2264,74.0,0,21,0.0,0.0
2265,71.0,0,21,1.0,0.0
2266,66.0,1,21,2.0,0.0
2267,66.0,11,10,5.0,0.0
2268,62.0,23,10,5.0,0.0
2269,66.0,0,21,0.0,0.0
2270,63.0,0,21,1.0,0.0
2271,59.0,0,21,2.0,0.0
2272,45.0,0,21,3.0,0.0
2273,33.0,0,21,4.0,0.0
2274,45.0,1,21,6.0,0.0
2275,78.0,12,10,5.0,0.0
2276,71.0,0,10,0.0,0.0
2277,66.0,0,21,1.0,0.0
2278,63.0,0,10,2.0,0.0
2279,57.0,0,21,3.0,0.0
2280,45.0,0,21,4.0,0.0
2281,83.0,11,10,5.0,0.0
2282,57.0,1,21,6.0,0.0
2283,73.0,0,10,0.0,0.0
2284,64.0,0,10,2.0,0.0
2285,82.0,12,10,5.0,0.0
2286,75.0,0,21,0.0,0.0
2287,71.0,0,21,1.0,0.0
2288,66.0,1,21,2.0,0.0
2289,83.0,11,10,5.0,0.0
2290,78.0,12,10,5.0,0.0
2291,78.0,0,21,0.0,0.0
2292,75.0,0,21,1.0,0.0
2293,71.0,1,21,2.0,0.0
2294,75.0,11,10,5.0,0.0
2295,71.0,12,10,5.0,0.0
2296,71.0,0,21,0.0,0.0
2297,66.0,0,21,1.0,0.0
2298,63.0,1,21,2.0,0.0
2299,78.0,11,10,5.0,0.0
2300,75.0,12,10,5.0,0.0
2301,75.0,0,21,0.0,0.0
2302,71.0,0,21,1.0,0.0
2303,66.0,1,21,2.0,0.0
2304,71.0,11,10,5.0,0.0
2305,66.0,12,10,5.0,0.0
2306,66.0,0,21,0.0,0.0
2307,63.0,0,21,1.0,0.0
2308,59.0,1,21,2.0,0.0
2309,75.0,11,10,5.0,0.0
2310,71.0,12,10,5.0,0.0
2311,71.0,0,21,0.0,0.0
2312,66.0,0,21,1.0,0.0
2313,63.0,1,21,2.0,0.0
2314,66.0,11,10,5.0,0.0
2315,63.0,8,10,5.0,0.0
2316,64.0,0,21,0.0,0.0
2317,59.0,0,21,1.0,0.0
2318,64.0,0,21,2.0,0.0
2319,44.0,0,21,3.0,0.0
2320,74.0,6,6,5.0,0.0
2321,44.0,13,21,6.0,0.0
2322,73.0,9,6,5.0,0.0
2323,74.0,15,42,5.0,0.0
2324,74.0,0,10,0.0,0.0
2325,71.0,0,10,1.0,0.0
2326,64.0,0,10,2.0,0.0
2327,56.0,1,21,3.0,0.0
2328,56.0,11,10,6.0,0.0
2329,73.0,0,10,0.0,0.0
2330,69.0,0,10,1.0,0.0
2331,66.0,0,10,2.0,0.0
2332,57.0,8,10,6.0,0.0
2333,74.0,0,21,0.0,0.0
2334,71.0,0,21,1.0,0.0
2335,68.0,0,21,2.0,0.0
2336,56.0,1,21,6.0,0.0
2337,76.0,12,10,5.0,0.0
2338,69.0,0,21,2.0,0.0
2339,74.0,11,10,5.0,0.0
2340,54.0,1,21,6.0,0.0
2341,73.0,8,10,5.0,0.0
2342,68.0,0,21,2.0,0.0
2343,74.0,6,6,5.0,0.0
2344,52.0,13,21,6.0,0.0
2345,73.0,9,6,5.0,0.0
2346,74.0,15,42,5.0,0.0
2347,74.0,0,10,0.0,0.0
2348,71.0,11,10,1.0,0.0
2349,66.0,0,21,2.0,0.0
2350,54.0,1,21,6.0,0.0
2351,73.0,0,10,0.0,0.0
2352,69.0,8,10,1.0,0.0
2353,74.0,0,21,0.0,0.0
2354,71.0,0,21,1.0,0.0
2355,64.0,0,21,2.0,0.0
2356,56.0,1,21,6.0,0.0
2357,78.0,12,10,5.0,0.0
2358,71.0,0,21,1.0,0.0
2359,68.0,0,21,2.0,0.0
2360,76.0,11,10,5.0,0.0
2361,52.0,1,21,6.0,0.0
2362,74.0,12,10,5.0,0.0
2363,69.0,0,21,1.0,0.0
2364,64.0,0,21,2.0,0.0
2365,45.0,0,21,3.0,0.0
2366,73.0,11,10,5.0,0.0
2367,45.0,3,21,6.0,0.0
2368,69.0,12,12,5.0,0.0
2369,76.0,0,21,0.0,0.0
2370,57.0,0,21,3.0,0.0
2371,68.0,9,12,5.0,0.0
2372,57.0,1,21,6.0,0.0
2373,69.0,12,10,5.0,0.0
2374,69.0,1,21,0.0,0.0
2375,73.0,11,10,5.0,0.0
2376,74.0,12,10,5.0,0.0
2377,73.0,0,21,0.0,0.0
2378,73.0,11,10,5.0,0.0
2379,45.0,1,21,6.0,0.0
2380,71.0,12,10,5.0,0.0
2381,66.0,0,21,0.0,0.0
2382,73.0,11,10,5.0,0.0
2383,38.0,1,21,6.0,0.0
2384,66.0,12,10,5.0,0.0
2385,65.0,0,10,5.0,0.0
2386,50.0,12,10,6.0,0.0
2387,66.0,0,10,5.0,0.0
2388,49.0,12,10,6.0,0.0
2389,74.0,11,10,5.0,0.0
2390,47.0,1,21,6.0,0.0
2391,73.0,12,10,5.0,0.0
2392,71.0,11,10,5.0,0.0
2393,50.0,1,21,6.0,0.0
2394,69.0,12,10,5.0,0.0
2395,44.0,0,21,3.0,0.0
2396,71.0,11,10,5.0,0.0
2397,44.0,1,21,6.0,0.0
2398,68.0,12,10,5.0,0.0
2399,74.0,0,21,0.0,0.0
2400,56.0,0,21,3.0,0.0
2401,66.0,11,10,5.0,0.0
2402,56.0,1,21,6.0,0.0
2403,68.0,12,10,5.0,0.0
2404,68.0,1,21,0.0,0.0
2405,71.0,11,10,5.0,0.0
2406,73.0,12,10,5.0,0.0
2407,71.0,0,21,0.0,0.0
2408,71.0,11,10,5.0,0.0
2409,44.0,1,21,6.0,0.0
2410,69.0,12,10,5.0,0.0
2411,65.0,0,21,0.0,0.0
2412,71.0,11,10,5.0,0.0
2413,37.0,1,21,6.0,0.0
2414,65.0,12,10,5.0,0.0
2415,63.0,0,10,5.0,0.0
2416,49.0,12,10,6.0,0.0
2417,65.0,0,10,5.0,0.0
2418,47.0,12,10,6.0,0.0
2419,73.0,11,10,5.0,0.0
2420,45.0,1,21,6.0,0.0
2421,71.0,12,10,5.0,0.0
2422,69.0,11,10,5.0,0.0
2423,49.0,1,21,6.0,0.0
2424,68.0,12,10,5.0,0.0
2425,42.0,0,21,3.0,0.0
2426,69.0,3,21,5.0,0.0
2427,42.0,11,10,6.0,0.0
2428,45.0,10,12,6.0,0.0
2429,69.0,2,10,0.0,0.0
2430,54.0,1,21,3.0,0.0
2431,65.0,0,48,5.0,0.0
2432,49.0,9,12,6.0,0.0
2433,71.0,2,10,0.0,0.0
2434,47.0,12,12,6.0,0.0
2435,73.0,3,21,0.0,0.0
2436,45.0,9,12,6.0,0.0
2437,44.0,12,12,6.0,0.0
2438,66.0,1,21,5.0,0.0
2439,45.0,9,12,6.0,0.0
2440,42.0,12,10,6.0,0.0
2441,71.0,3,21,5.0,0.0
2442,44.0,11,10,6.0,0.0
2443,47.0,10,12,6.0,0.0
2444,71.0,2,10,0.0,0.0
2445,65.0,0,48,5.0,0.0
2446,50.0,10,12,6.0,0.0
2447,73.0,2,10,0.0,0.0
2448,49.0,12,12,6.0,0.0
2449,74.0,3,21,0.0,0.0
2450,47.0,9,12,6.0,0.0
2451,45.0,12,12,6.0,0.0
2452,66.0,1,21,5.0,0.0
2453,47.0,9,12,6.0,0.0
2454,44.0,12,10,6.0,0.0
2455,73.0,0,10,5.0,0.0
2456,46.0,12,10,6.0,0.0
2457,65.0,0,10,5.0,0.0
2458,49.0,12,10,6.0,0.0
2459,73.0,0,10,0.0,0.0
2460,66.0,3,31,5.0,0.0
2461,52.0,12,10,6.0,0.0
2462,74.0,0,10,0.0,0.0
2463,55.0,9,10,6.0,0.0
2464,76.0,1,21,0.0,0.0
2465,54.0,11,10,6.0,0.0
2466,70.0,0,10,5.0,0.0
2467,52.0,12,10,6.0,0.0
2468,71.0,0,10,5.0,0.0
2469,50.0,12,10,6.0,0.0
2470,73.0,0,10,5.0,0.0
2471,49.0,12,10,6.0,0.0
2472,74.0,11,10,5.0,0.0
2473,47.0,1,21,6.0,0.0
2474,71.0,12,10,5.0,0.0
2475,70.0,11,10,5.0,0.0
2476,54.0,1,21,6.0,0.0
2477,71.0,12,10,5.0,0.0
2478,79.0,0,10,5.0,0.0
2479,59.0,12,10,6.0,0.0
2480,78.0,0,10,5.0,0.0
2481,58.0,12,10,6.0,0.0
2482,77.0,12,10,5.0,0.0
2483,59.0,4,42,6.0,0.0
2484,78.0,12,10,5.0,0.0
2485,77.0,8,10,5.0,0.0
2486,73.0,12,10,5.0,0.0
2487,75.0,0,10,5.0,0.0
2488,57.0,12,10,6.0,0.0
2489,77.0,0,10,5.0,0.0
2490,56.0,12,10,6.0,0.0
2491,78.0,11,10,5.0,0.0
2492,57.0,1,21,6.0,0.0
2493,80.0,12,10,5.0,0.0
2494,81.0,11,10,5.0,0.0
2495,54.0,1,21,6.0,0.0
2496,80.0,12,10,5.0,0.0
2497,83.0,11,10,5.0,0.0
2498,62.0,1,21,6.0,0.0
2499,81.0,12,10,5.0,0.0
2500,80.0,11,10,5.0,0.0
2501,59.0,1,21,6.0,0.0
2502,78.0,23,10,5.0,0.0
2503,81.0,0,21,5.0,0.0
2504,61.0,9,21,6.0,0.0
2505,80.0,6,6,5.0,0.0
2506,49.0,1,21,6.0,0.0
2507,81.0,9,6,5.0,0.0
2508,80.0,12,10,5.0,0.0
2509,42.0,0,21,3.0,0.0
2510,30.0,0,21,4.0,0.0
2511,78.0,11,10,5.0,0.0
2512,42.0,1,21,6.0,0.0
2513,73.0,12,10,5.0,0.0
2514,69.0,0,10,0.0,0.0
2515,66.0,0,10,1.0,0.0
2516,61.0,0,21,2.0,0.0
2517,54.0,0,21,3.0,0.0
2518,42.0,0,21,4.0,0.0
2519,78.0,11,10,5.0,0.0
2520,54.0,1,21,6.0,0.0
2521,71.0,0,10,0.0,0.0
2522,68.0,0,10,1.0,0.0
2523,77.0,12,10,5.0,0.0
2524,73.0,0,21,0.0,0.0
2525,69.0,0,21,1.0,0.0
2526,66.0,1,21,2.0,0.0
2527,78.0,11,10,5.0,0.0
2528,73.0,12,10,5.0,0.0
2529,78.0,0,21,0.0,0.0
2530,73.0,0,21,1.0,0.0
2531,69.0,1,21,2.0,0.0
2532,69.0,11,10,5.0,0.0
2533,66.0,12,10,5.0,0.0
2534,69.0,0,21,0.0,0.0
2535,66.0,0,21,1.0,0.0
2536,61.0,1,21,2.0,0.0
2537,73.0,11,10,5.0,0.0
2538,69.0,12,10,5.0,0.0
2539,73.0,0,21,0.0,0.0
2540,69.0,0,21,1.0,0.0
2541,66.0,1,21,2.0,0.0
2542,66.0,11,10,5.0,0.0
2543,61.0,12,10,5.0,0.0
2544,66.0,0,21,0.0,0.0
2545,61.0,0,21,1.0,0.0
2546,57.0,1,21,2.0,0.0
2547,69.0,11,10,5.0,0.0
2548,66.0,12,10,5.0,0.0
2549,69.0,0,21,0.0,0.0
2550,66.0,0,21,1.0,0.0
2551,61.0,1,21,2.0,0.0
2552,61.0,11,10,5.0,0.0
2553,57.0,23,10,5.0,0.0
2554,40.0,0,21,3.0,0.0
2555,28.0,0,21,4.0,0.0
2556,40.0,1,21,6.0,0.0
2557,73.0,12,10,5.0,0.0
2558,78.0,0,10,0.0,0.0
2559,70.0,0,10,1.0,0.0
2560,61.0,0,21,2.0,0.0
2561,52.0,0,21,3.0,0.0
2562,40.0,0,21,4.0,0.0
2563,78.0,11,10,5.0,0.0
2564,52.0,1,21,6.0,0.0
2565,80.0,0,10,0.0,0.0
2566,71.0,0,10,1.0,0.0
2567,77.0,12,10,5.0,0.0
2568,82.0,0,21,0.0,0.0
2569,73.0,0,21,1.0,0.0
2570,66.0,1,21,2.0,0.0
2571,78.0,11,10,5.0,0.0
2572,73.0,12,10,5.0,0.0
2573,85.0,0,21,0.0,0.0
2574,78.0,0,21,1.0,0.0
2575,70.0,1,21,2.0,0.0
2576,70.0,11,10,5.0,0.0
2577,66.0,12,10,5.0,0.0
2578,78.0,0,21,0.0,0.0
2579,70.0,0,21,1.0,0.0
2580,61.0,1,21,2.0,0.0
2581,73.0,11,10,5.0,0.0
2582,70.0,12,10,5.0,0.0
2583,82.0,0,21,0.0,0.0
2584,73.0,0,21,1.0,0.0
2585,66.0,1,21,2.0,0.0
2586,66.0,11,10,5.0,0.0
2587,61.0,12,10,5.0,0.0
2588,73.0,0,21,0.0,0.0
2589,66.0,0,21,1.0,0.0
2590,58.0,1,21,2.0,0.0
2591,70.0,11,10,5.0,0.0
2592,66.0,12,10,5.0,0.0
2593,78.0,0,21,0.0,0.0
2594,70.0,0,21,1.0,0.0
2595,61.0,1,21,2.0,0.0
2596,61.0,11,10,5.0,0.0
2597,58.0,12,10,5.0,0.0
2598,71.0,0,21,0.0,0.0
2599,71.0,0,21,1.0,0.0
2600,66.0,0,21,2.0,0.0
2601,51.0,0,21,3.0,0.0
2602,59.0,11,10,5.0,0.0
2603,39.0,13,21,6.0,0.0
2604,81.0,15,42,5.0,0.0
2605,81.0,0,10,0.0,0.0
2606,78.0,0,10,1.0,0.0
2607,59.0,0,10,2.0,0.0
2608,63.0,1,21,3.0,0.0
2609,51.0,11,10,6.0,0.0
2610,80.0,0,10,0.0,0.0
2611,76.0,0,10,1.0,0.0
2612,61.0,0,10,2.0,0.0
2613,52.0,8,10,6.0,0.0
2614,81.0,0,21,0.0,0.0
2615,78.0,0,21,1.0,0.0
2616,63.0,0,21,2.0,0.0
2617,51.0,1,21,6.0,0.0
2618,83.0,12,10,5.0,0.0
2619,64.0,0,21,2.0,0.0
2620,81.0,11,10,5.0,0.0
2621,49.0,1,21,6.0,0.0
2622,80.0,23,10,5.0,0.0
2623,63.0,0,21,2.0,0.0
2624,47.0,0,21,3.0,0.0
2625,81.0,17,52,5.0,0.0
2626,47.0,13,21,6.0,0.0
2627,81.0,0,10,0.0,0.0
2628,78.0,0,10,1.0,0.0
2629,59.0,0,21,2.0,0.0
2630,59.0,1,21,3.0,0.0
2631,59.0,11,10,6.0,0.0
2632,80.0,0,10,0.0,0.0
2633,76.0,0,10,1.0,0.0
2634,61.0,6,10,6.0,0.0
2635,81.0,0,21,0.0,0.0
2636,78.0,0,21,1.0,0.0
2637,71.0,0,21,2.0,0.0
2638,63.0,1,21,6.0,0.0
2639,78.0,12,10,5.0,0.0
2640,78.0,0,21,1.0,0.0
2641,71.0,0,21,2.0,0.0
2642,75.0,11,10,5.0,0.0
2643,59.0,1,21,6.0,0.0
2644,71.0,12,10,5.0,0.0
2645,76.0,0,21,1.0,0.0
2646,71.0,0,21,2.0,0.0
2647,52.0,0,21,3.0,0.0
2648,80.0,11,10,5.0,0.0
2649,52.0,1,21,6.0,0.0
2650,81.0,12,10,5.0,0.0
2651,83.0,0,21,0.0,0.0
2652,64.0,0,21,3.0,0.0
2653,80.0,11,10,5.0,0.0
2654,64.0,1,21,6.0,0.0
2655,78.0,12,10,5.0,0.0
2656,76.0,3,21,0.0,0.0
2657,80.0,11,10,5.0,0.0
2658,76.0,12,12,5.0,0.0
2659,80.0,0,21,0.0,0.0
2660,75.0,9,12,5.0,0.0
2661,52.0,1,21,6.0,0.0
2662,76.0,12,10,5.0,0.0
2663,73.0,0,21,0.0,0.0
2664,45.0,0,21,3.0,0.0
2665,80.0,11,10,5.0,0.0
2666,45.0,3,21,6.0,0.0
2667,73.0,10,12,5.0,0.0
2668,57.0,1,21,3.0,0.0
2669,72.0,9,12,5.0,0.0
2670,57.0,2,10,6.0,0.0
2671,73.0,0,10,5.0,0.0
2672,56.0,12,10,6.0,0.0
2673,81.0,11,10,5.0,0.0
2674,54.0,1,21,6.0,0.0
2675,80.0,12,10,5.0,0.0
2676,78.0,11,10,5.0,0.0
2677,57.0,1,21,6.0,0.0
2678,76.0,12,10,5.0,0.0
2679,51.0,0,21,3.0,0.0
2680,78.0,11,10,5.0,0.0
2681,51.0,1,21,6.0,0.0
2682,80.0,12,10,5.0,0.0
2683,81.0,0,21,0.0,0.0
2684,63.0,0,21,3.0,0.0
2685,78.0,11,10,5.0,0.0
2686,63.0,1,21,6.0,0.0
2687,76.0,12,10,5.0,0.0
2688,75.0,3,21,0.0,0.0
2689,78.0,11,10,5.0,0.0
2690,75.0,12,12,5.0,0.0
2691,78.0,0,21,0.0,0.0
2692,73.0,9,12,5.0,0.0
2693,51.0,1,21,6.0,0.0
2694,75.0,12,10,5.0,0.0
2695,73.0,0,21,0.0,0.0
2696,44.0,0,21,3.0,0.0
2697,78.0,11,10,5.0,0.0
2698,44.0,1,21,6.0,0.0
2699,72.0,12,10,5.0,0.0
2700,56.0,1,21,3.0,0.0
2701,75.0,0,10,5.0,0.0
2702,56.0,11,10,6.0,0.0
2703,78.0,0,10,5.0,0.0
2704,54.0,12,10,6.0,0.0
2705,80.0,11,10,5.0,0.0
2706,52.0,1,21,6.0,0.0
2707,78.0,12,10,5.0,0.0
2708,76.0,11,10,5.0,0.0
2709,56.0,1,21,6.0,0.0
2710,75.0,5,10,5.0,0.0
2711,49.0,3,21,3.0,0.0
2712,76.0,15,6,5.0,0.0
2713,49.0,3,3,6.0,0.0
2714,56.0,12,12,6.0,0.0
2715,64.0,0,24,0.0,0.0
2716,68.0,0,24,1.0,0.0
2717,73.0,0,24,5.0,0.0
2718,54.0,12,12,6.0,0.0
2719,56.0,12,12,6.0,0.0
2720,63.0,0,24,0.0,0.0
2721,66.0,0,24,1.0,0.0
2722,72.0,0,24,5.0,0.0
2723,57.0,12,12,6.0,0.0
2724,56.0,12,12,6.0,0.0
2725,64.0,0,21,0.0,0.0
2726,68.0,0,21,1.0,0.0
2727,73.0,1,21,5.0,0.0
2728,54.0,9,12,6.0,0.0
2729,56.0,5,10,6.0,0.0
2730,51.0,3,21,3.0,0.0
2731,78.0,15,6,5.0,0.0
2732,51.0,3,3,6.0,0.0
2733,56.0,12,12,6.0,0.0
2734,64.0,0,24,0.0,0.0
2735,68.0,0,24,1.0,0.0
2736,73.0,0,24,5.0,0.0
2737,54.0,12,12,6.0,0.0
2738,56.0,12,12,6.0,0.0
2739,63.0,0,24,0.0,0.0
2740,66.0,0,24,1.0,0.0
2741,72.0,0,24,5.0,0.0
2742,57.0,12,12,6.0,0.0
2743,56.0,12,12,6.0,0.0
2744,64.0,0,21,0.0,0.0
2745,68.0,0,21,1.0,0.0
2746,73.0,1,21,5.0,0.0
2747,54.0,9,12,6.0,0.0
2748,56.0,5,10,6.0,0.0
2749,52.0,3,21,3.0,0.0
2750,80.0,15,6,5.0,0.0
2751,52.0,3,3,6.0,0.0
2752,56.0,12,12,6.0,0.0
2753,64.0,0,24,0.0,0.0
2754,68.0,0,24,1.0,0.0
2755,73.0,0,24,5.0,0.0
2756,54.0,12,12,6.0,0.0
2757,56.0,12,12,6.0,0.0
2758,63.0,0,24,0.0,0.0
2759,66.0,0,24,1.0,0.0
2760,72.0,0,24,5.0,0.0
2761,57.0,12,12,6.0,0.0
2762,56.0,12,12,6.0,0.0
2763,64.0,0,21,0.0,0.0
2764,68.0,0,21,1.0,0.0
2765,73.0,1,21,5.0,0.0
2766,54.0,9,12,6.0,0.0
2767,52.0,14,10,6.0,0.0
2768,81.0,9,12,5.0,0.0
2769,54.0,3,21,6.0,0.0
2770,80.0,12,12,5.0,0.0
2771,78.0,9,12,5.0,0.0
2772,56.0,3,21,6.0,0.0
2773,76.0,12,12,5.0,0.0
2774,75.0,9,12,5.0,0.0
2775,57.0,3,21,6.0,0.0
2776,76.0,10,12,5.0,0.0
2777,78.0,11,10,5.0,0.0
2778,51.0,1,21,6.0,0.0
2779,73.0,12,10,5.0,0.0
2780,72.0,11,10,5.0,0.0
2781,56.0,1,21,6.0,0.0
2782,78.0,0,10,5.0,0.0
2783,60.0,12,10,5.0,0.0
2784,73.0,11,10,5.0,0.0
2785,58.0,1,21,6.0,0.0
2786,78.0,0,10,5.0,0.0
2787,61.0,12,10,5.0,0.0
2788,75.0,0,10,5.0,0.0
2789,60.0,12,10,6.0,0.0
2790,78.0,0,10,5.0,0.0
2791,63.0,12,10,6.0,0.0
2792,76.0,0,10,5.0,0.0
2793,56.0,12,10,6.0,0.0
2794,75.0,0,10,5.0,0.0
2795,54.0,12,10,6.0,0.0
2796,80.0,1,21,5.0,0.0
2797,52.0,11,10,6.0,0.0
2798,56.0,12,10,6.0,0.0
2799,73.0,1,21,5.0,0.0
2800,54.0,11,10,6.0,0.0
2801,57.0,23,10,6.0,0.0
2802,68.0,0,21,5.0,0.0
2803,56.0,9,21,6.0,0.0
2804,73.0,6,6,5.0,0.0
2805,44.0,2,21,6.0,0.0
2806,72.0,6,6,5.0,0.0
2807,70.0,3,6,5.0,0.0
2808,72.0,11,5,5.0,0.0
2809,49.0,0,21,3.0,0.0
2810,37.0,0,21,4.0,0.0
2811,73.0,11,10,5.0,0.0
2812,49.0,1,21,6.0,0.0
2813,68.0,12,10,5.0,0.0
2814,76.0,0,10,0.0,0.0
2815,73.0,0,10,1.0,0.0
2816,68.0,0,21,2.0,0.0
2817,61.0,0,21,3.0,0.0
2818,49.0,0,21,4.0,0.0
2819,73.0,11,10,5.0,0.0
2820,61.0,1,21,6.0,0.0
2821,78.0,0,10,0.0,0.0
2822,75.0,0,10,1.0,0.0
2823,72.0,12,10,5.0,0.0
2824,80.0,0,21,0.0,0.0
2825,76.0,0,21,1.0,0.0
2826,73.0,1,21,2.0,0.0
2827,73.0,11,10,5.0,0.0
2828,68.0,12,10,5.0,0.0
2829,85.0,0,21,0.0,0.0
2830,80.0,0,21,1.0,0.0
2831,76.0,1,21,2.0,0.0
2832,64.0,11,10,5.0,0.0
2833,61.0,12,10,5.0,0.0
2834,76.0,0,21,0.0,0.0
2835,73.0,0,21,1.0,0.0
2836,68.0,1,21,2.0,0.0
2837,68.0,11,10,5.0,0.0
2838,64.0,12,10,5.0,0.0
2839,80.0,0,21,0.0,0.0
2840,76.0,0,21,1.0,0.0
2841,73.0,1,21,2.0,0.0
2842,61.0,11,10,5.0,0.0
2843,56.0,12,10,5.0,0.0
2844,73.0,0,21,0.0,0.0
2845,68.0,0,21,1.0,0.0
2846,64.0,1,21,2.0,0.0
2847,64.0,11,10,5.0,0.0
2848,61.0,12,10,5.0,0.0
2849,76.0,0,21,0.0,0.0
2850,73.0,0,21,1.0,0.0
2851,68.0,1,21,2.0,0.0
2852,56.0,11,10,5.0,0.0
2853,52.0,23,10,5.0,0.0
2854,44.0,0,21,3.0,0.0
2855,32.0,0,21,4.0,0.0
2856,44.0,1,21,6.0,0.0
2857,75.0,12,10,5.0,0.0
2858,75.0,0,10,0.0,0.0
2859,72.0,0,10,1.0,0.0
2860,66.0,0,10,2.0,0.0
2861,56.0,0,21,3.0,0.0
2862,44.0,0,21,4.0,0.0
2863,78.0,11,10,5.0,0.0
2864,56.0,1,21,6.0,0.0
2865,76.0,0,10,0.0,0.0
2866,73.0,0,10,1.0,0.0
2867,64.0,0,10,2.0,0.0
2868,76.0,12,10,5.0,0.0
2869,78.0,0,21,0.0,0.0
2870,75.0,0,21,1.0,0.0
2871,63.0,1,21,2.0,0.0
2872,78.0,11,10,5.0,0.0
2873,75.0,12,10,5.0,0.0
2874,81.0,0,21,0.0,0.0
2875,78.0,0,21,1.0,0.0
2876,60.0,1,21,2.0,0.0
2877,72.0,11,10,5.0,0.0
2878,68.0,12,10,5.0,0.0
2879,75.0,0,21,0.0,0.0
2880,72.0,0,21,1.0,0.0
2881,68.0,1,21,2.0,0.0
2882,75.0,11,10,5.0,0.0
2883,72.0,12,10,5.0,0.0
2884,78.0,0,21,0.0,0.0
2885,75.0,0,21,1.0,0.0
2886,60.0,1,21,2.0,0.0
2887,68.0,11,10,5.0,0.0
2888,63.0,12,10,5.0,0.0
2889,72.0,0,21,0.0,0.0
2890,68.0,0,21,1.0,0.0
2891,63.0,1,21,2.0,0.0
2892,72.0,11,10,5.0,0.0
2893,68.0,12,10,5.0,0.0
2894,75.0,0,21,0.0,0.0
2895,72.0,0,21,1.0,0.0
2896,68.0,0,21,2.0,0.0
2897,63.0,11,10,5.0,0.0
2898,56.0,1,21,6.0,0.0
2899,60.0,12,10,5.0,0.0
2900,76.0,0,96,0.0,0.0
2901,73.0,21,96,1.0,0.0
2902,68.0,9,84,2.0,0.0
2903,37.0,1,21,3.0,0.0
2904,61.0,11,10,6.0,0.0
2905,56.0,12,10,6.0,0.0
2906,49.0,1,21,3.0,0.0
2907,76.0,0,10,5.0,0.0
2908,73.0,0,10,5.0,0.0
2909,52.0,11,10,6.0,0.0
2910,78.0,0,10,5.0,0.0
2911,75.0,0,10,5.0,0.0
2912,56.0,12,10,6.0,0.0
2913,80.0,0,21,5.0,0.0
2914,76.0,1,21,5.0,0.0
2915,49.0,11,10,6.0,0.0
2916,51.0,12,10,6.0,0.0
2917,76.0,0,21,5.0,0.0
2918,73.0,1,21,5.0,0.0
2919,52.0,2,10,6.0,0.0
2920,49.0,2,10,6.0,0.0
2921,70.0,9,84,2.0,0.0
2922,42.0,0,21,3.0,0.0
2923,73.0,0,21,5.0,0.0
2924,70.0,0,21,5.0,0.0
2925,54.0,1,21,6.0,0.0
2926,74.0,0,10,0.0,0.0
2927,71.0,12,10,1.0,0.0
2928,76.0,0,10,0.0,0.0
2929,73.0,11,10,1.0,0.0
2930,54.0,0,21,3.0,0.0
2931,76.0,0,21,5.0,0.0
2932,73.0,0,21,5.0,0.0
2933,42.0,1,21,6.0,0.0
2934,78.0,0,10,0.0,0.0
2935,74.0,12,10,1.0,0.0
2936,76.0,0,10,0.0,0.0
2937,73.0,11,10,1.0,0.0
2938,70.0,0,21,5.0,0.0
2939,66.0,1,21,5.0,0.0
2940,79.0,0,10,0.0,0.0
2941,76.0,12,10,1.0,0.0
2942,78.0,0,10,0.0,0.0
2943,74.0,2,10,1.0,0.0
2944,73.0,0,21,5.0,0.0
2945,70.0,0,21,5.0,0.0
2946,54.0,1,21,6.0,0.0
2947,76.0,0,10,0.0,0.0
2948,73.0,12,10,1.0,0.0
2949,74.0,0,96,0.0,0.0
2950,71.0,21,96,1.0,0.0
2951,66.0,9,84,2.0,0.0
2952,47.0,1,21,3.0,0.0
2953,59.0,11,10,6.0,0.0
2954,54.0,12,10,6.0,0.0
2955,59.0,1,21,3.0,0.0
2956,74.0,0,10,5.0,0.0
2957,71.0,0,10,5.0,0.0
2958,50.0,11,10,6.0,0.0
2959,76.0,0,10,5.0,0.0
2960,73.0,0,10,5.0,0.0
2961,54.0,12,10,6.0,0.0
2962,78.0,0,21,5.0,0.0
2963,74.0,1,21,5.0,0.0
2964,47.0,11,10,6.0,0.0
2965,49.0,12,10,6.0,0.0
2966,74.0,0,21,5.0,0.0
2967,71.0,1,21,5.0,0.0
2968,50.0,2,10,6.0,0.0
2969,47.0,2,10,6.0,0.0
2970,68.0,9,84,2.0,0.0
2971,52.0,0,21,3.0,0.0
2972,71.0,0,21,5.0,0.0
2973,68.0,0,21,5.0,0.0
2974,52.0,1,21,6.0,0.0
2975,73.0,0,10,0.0,0.0
2976,69.0,12,10,1.0,0.0
2977,74.0,0,10,0.0,0.0
2978,71.0,11,10,1.0,0.0
2979,64.0,0,21,3.0,0.0
2980,74.0,0,21,5.0,0.0
2981,71.0,0,21,5.0,0.0
2982,40.0,1,21,6.0,0.0
2983,76.0,0,10,0.0,0.0
2984,73.0,12,10,1.0,0.0
2985,74.0,0,10,0.0,0.0
2986,71.0,11,10,1.0,0.0
2987,68.0,0,21,5.0,0.0
2988,64.0,1,21,5.0,0.0
2989,78.0,0,10,0.0,0.0
2990,74.0,12,10,1.0,0.0
2991,76.0,0,10,0.0,0.0
2992,73.0,2,10,1.0,0.0
2993,71.0,0,21,5.0,0.0
2994,68.0,0,21,5.0,0.0
2995,52.0,1,21,6.0,0.0
2996,74.0,0,10,0.0,0.0
2997,71.0,12,10,1.0,0.0
2998,73.0,0,21,0.0,0.0
2999,69.0,0,21,1.0,0.0
3000,64.0,0,21,2.0,0.0
3001,45.0,0,21,3.0,0.0
3002,73.0,11,10,5.0,0.0
3003,69.0,0,21,5.0,0.0
3004,45.0,1,21,6.0,0.0
3005,74.0,12,10,5.0,0.0
3006,76.0,0,21,0.0,0.0
3007,57.0,1,21,3.0,0.0
3008,73.0,0,10,5.0,0.0
3009,57.0,11,10,6.0,0.0
3010,71.0,0,10,5.0,0.0
3011,56.0,14,10,6.0,0.0
3012,81.0,9,252,0.0,0.0
3013,73.0,9,12,5.0,0.0
3014,57.0,3,21,6.0,0.0
3015,69.0,12,12,5.0,0.0
3016,68.0,9,12,5.0,0.0
3017,45.0,1,21,6.0,0.0
3018,69.0,12,10,5.0,0.0
3019,74.0,11,10,5.0,0.0
3020,47.0,1,21,6.0,0.0
3021,76.0,12,10,5.0,0.0
3022,74.0,0,10,5.0,0.0
3023,59.0,12,10,6.0,0.0
3024,73.0,0,10,5.0,0.0
3025,57.0,12,10,6.0,0.0
3026,74.0,11,10,5.0,0.0
3027,59.0,3,21,6.0,0.0
3028,69.0,12,12,5.0,0.0
3029,68.0,9,12,5.0,0.0
3030,47.0,1,21,6.0,0.0
3031,69.0,12,10,5.0,0.0
3032,76.0,11,10,5.0,0.0
3033,49.0,1,21,6.0,0.0
3034,78.0,12,10,5.0,0.0
3035,76.0,0,10,5.0,0.0
3036,61.0,12,10,6.0,0.0
3037,74.0,0,10,5.0,0.0
3038,59.0,12,10,6.0,0.0
3039,76.0,11,10,5.0,0.0
3040,61.0,3,21,6.0,0.0
3041,69.0,12,12,5.0,0.0
3042,68.0,9,12,5.0,0.0
3043,49.0,1,21,6.0,0.0
3044,69.0,12,10,5.0,0.0
3045,78.0,2,10,5.0,0.0
3046,50.0,1,21,6.0,0.0
3047,79.0,12,10,5.0,0.0
3048,69.0,0,21,0.0,0.0
3049,78.0,11,10,5.0,0.0
3050,52.0,1,21,6.0,0.0
3051,76.0,12,10,5.0,0.0
3052,74.0,6,63,0.0,0.0
3053,74.0,11,10,5.0,0.0
3054,54.0,1,21,6.0,0.0
3055,73.0,12,10,5.0,0.0
3056,71.0,11,10,5.0,0.0
3057,50.0,1,21,6.0,0.0
3058,69.0,12,10,5.0,0.0
3059,68.0,5,10,5.0,0.0
3060,52.0,1,21,6.0,0.0
3061,69.0,12,10,5.0,0.0
3062,64.0,0,10,0.0,0.0
3063,68.0,11,10,5.0,0.0
3064,40.0,1,21,6.0,0.0
3065,62.0,0,10,0.0,0.0
3066,66.0,12,10,5.0,0.0
3067,64.0,1,21,0.0,0.0
3068,68.0,11,10,5.0,0.0
3069,64.0,10,12,5.0,0.0
3070,52.0,2,10,6.0,0.0
3071,73.0,3,42,0.0,0.0
3072,63.0,10,12,5.0,0.0
3073,56.0,2,10,6.0,0.0
3074,64.0,0,10,5.0,0.0
3075,52.0,12,10,6.0,0.0
3076,69.0,8,10,5.0,0.0
3077,54.0,1,21,6.0,0.0
3078,71.0,12,10,5.0,0.0
3079,66.0,0,10,0.0,0.0
3080,69.0,11,10,5.0,0.0
3081,42.0,1,21,6.0,0.0
3082,64.0,0,10,0.0,0.0
3083,68.0,12,10,5.0,0.0
3084,66.0,1,21,0.0,0.0
3085,69.0,11,10,5.0,0.0
3086,64.0,10,12,5.0,0.0
3087,42.0,2,10,6.0,0.0
3088,71.0,3,42,0.0,0.0
3089,63.0,10,12,5.0,0.0
3090,45.0,2,10,6.0,0.0
3091,64.0,0,10,5.0,0.0
3092,42.0,12,10,6.0,0.0
3093,71.0,8,10,5.0,0.0
3094,44.0,1,21,6.0,0.0
3095,73.0,12,10,5.0,0.0
3096,68.0,0,10,0.0,0.0
3097,71.0,11,10,5.0,0.0
3098,52.0,1,21,6.0,0.0
3099,66.0,0,10,0.0,0.0
3100,69.0,12,10,5.0,0.0
3101,68.0,1,21,0.0,0.0
3102,71.0,11,10,5.0,0.0
3103,64.0,10,12,5.0,0.0
3104,52.0,2,10,6.0,0.0
3105,71.0,1,21,0.0,0.0
3106,63.0,9,12,5.0,0.0
3107,54.0,2,10,6.0,0.0
3108,64.0,0,10,5.0,0.0
3109,56.0,12,10,6.0,0.0
3110,64.0,0,21,0.0,0.0
3111,73.0,11,10,5.0,0.0
3112,57.0,1,21,6.0,0.0
3113,74.0,12,10,5.0,0.0
3114,69.0,0,21,0.0,0.0
3115,73.0,11,10,5.0,0.0
3116,45.0,1,21,6.0,0.0
3117,71.0,12,10,5.0,0.0
3118,61.0,1,21,0.0,0.0
3119,69.0,11,10,5.0,0.0
3120,68.0,0,10,5.0,0.0
3121,42.0,12,10,6.0,0.0
3122,66.0,1,21,0.0,0.0
3123,66.0,0,10,5.0,0.0
3124,44.0,11,10,6.0,0.0
3125,64.0,0,10,5.0,0.0
3126,45.0,12,10,6.0,0.0
3127,59.0,0,21,0.0,0.0
3128,47.0,1,21,3.0,0.0
3129,64.0,10,24,5.0,0.0
3130,47.0,11,10,6.0,0.0
3131,49.0,2,10,6.0,0.0
3132,71.0,0,10,0.0,0.0
3133,66.0,0,21,1.0,0.0
3134,62.0,0,10,2.0,0.0
3135,59.0,1,21,3.0,0.0
3136,62.0,14,31,5.0,0.0
3137,50.0,11,10,6.0,0.0
3138,73.0,0,10,0.0,0.0
3139,64.0,0,10,2.0,0.0
3140,49.0,9,10,6.0,0.0
3141,74.0,0,21,0.0,0.0
3142,71.0,0,21,1.0,0.0
3143,66.0,0,21,2.0,0.0
3144,47.0,1,21,6.0,0.0
3145,64.0,12,10,5.0,0.0
3146,62.0,11,10,5.0,0.0
3147,45.0,1,21,6.0,0.0
3148,61.0,8,10,5.0,0.0
3149,44.0,1,21,3.0,0.0
3150,62.0,4,6,5.0,0.0
3151,44.0,2,10,6.0,0.0
3152,61.0,9,6,5.0,0.0
3153,62.0,15,42,5.0,0.0
3154,45.0,12,10,6.0,0.0
3155,68.0,0,10,0.0,0.0
3156,71.0,0,10,1.0,0.0
3157,62.0,0,10,2.0,0.0
3158,56.0,1,21,3.0,0.0
3159,47.0,11,10,6.0,0.0
3160,69.0,0,10,0.0,0.0
3161,73.0,0,10,1.0,0.0
3162,61.0,0,10,2.0,0.0
3163,45.0,8,10,6.0,0.0
3164,71.0,0,21,0.0,0.0
3165,74.0,0,21,1.0,0.0
3166,59.0,0,21,2.0,0.0
3167,44.0,1,21,6.0,0.0
3168,64.0,12,10,5.0,0.0
3169,62.0,11,10,5.0,0.0
3170,42.0,1,21,6.0,0.0
3171,61.0,12,10,5.0,0.0
3172,40.0,0,21,3.0,0.0
3173,62.0,11,10,5.0,0.0
3174,40.0,1,21,6.0,0.0
3175,68.0,12,10,5.0,0.0
3176,80.0,0,10,0.0,0.0
3177,76.0,0,10,1.0,0.0
3178,71.0,0,10,2.0,0.0
3179,52.0,0,21,3.0,0.0
3180,71.0,11,10,5.0,0.0
3181,52.0,1,21,6.0,0.0
3182,81.0,0,10,0.0,0.0
3183,78.0,0,10,1.0,0.0
3184,73.0,0,10,2.0,0.0
3185,69.0,12,10,5.0,0.0
3186,83.0,0,21,0.0,0.0
3187,80.0,0,21,1.0,0.0
3188,74.0,1,21,2.0,0.0
3189,68.0,11,10,5.0,0.0
3190,66.0,0,10,5.0,0.0
3191,40.0,12,10,6.0,0.0
3192,64.0,0,10,5.0,0.0
3193,42.0,12,10,6.0,0.0
3194,62.0,0,10,5.0,0.0
3195,44.0,12,10,6.0,0.0
3196,45.0,1,21,3.0,0.0
3197,62.0,10,24,5.0,0.0
3198,45.0,11,10,6.0,0.0
3199,47.0,2,10,6.0,0.0
3200,69.0,0,10,0.0,0.0
3201,64.0,0,21,1.0,0.0
3202,61.0,0,10,2.0,0.0
3203,57.0,1,21,3.0,0.0
3204,61.0,14,31,5.0,0.0
3205,49.0,11,10,6.0,0.0
3206,71.0,0,10,0.0,0.0
3207,62.0,0,10,2.0,0.0
3208,47.0,9,10,6.0,0.0
3209,73.0,0,21,0.0,0.0
3210,69.0,0,21,1.0,0.0
3211,64.0,0,21,2.0,0.0
3212,45.0,1,21,6.0,0.0
3213,62.0,12,10,5.0,0.0
3214,61.0,11,10,5.0,0.0
3215,44.0,1,21,6.0,0.0
3216,59.0,12,10,5.0,0.0
3217,42.0,1,21,3.0,0.0
3218,59.0,10,24,5.0,0.0
3219,42.0,11,10,6.0,0.0
3220,44.0,2,10,6.0,0.0
3221,66.0,0,10,0.0,0.0
3222,69.0,0,10,1.0,0.0
3223,61.0,0,10,2.0,0.0
3224,54.0,1,21,3.0,0.0
3225,61.0,14,31,5.0,0.0
3226,45.0,11,10,6.0,0.0
3227,68.0,0,10,0.0,0.0
3228,71.0,0,10,1.0,0.0
3229,59.0,0,10,2.0,0.0
3230,44.0,9,10,6.0,0.0
3231,69.0,0,21,0.0,0.0
3232,73.0,0,21,1.0,0.0
3233,57.0,0,21,2.0,0.0
3234,42.0,1,21,6.0,0.0
3235,62.0,12,10,5.0,0.0
3236,61.0,11,10,5.0,0.0
3237,40.0,1,21,6.0,0.0
3238,59.0,12,10,5.0,0.0
3239,39.0,0,21,3.0,0.0
3240,61.0,11,10,5.0,0.0
3241,39.0,1,21,6.0,0.0
3242,66.0,12,10,5.0,0.0
3243,78.0,0,10,0.0,0.0
3244,75.0,0,10,1.0,0.0
3245,66.0,0,21,2.0,0.0
3246,51.0,1,21,3.0,0.0
3247,69.0,0,10,5.0,0.0
3248,54.0,11,10,6.0,0.0
3249,80.0,0,10,0.0,0.0
3250,76.0,0,10,1.0,0.0
3251,68.0,0,10,5.0,0.0
3252,52.0,12,10,6.0,0.0
3253,81.0,0,21,0.0,0.0
3254,78.0,0,21,1.0,0.0
3255,59.0,1,21,2.0,0.0
3256,66.0,0,10,5.0,0.0
3257,51.0,11,10,6.0,0.0
3258,64.0,0,10,5.0,0.0
3259,52.0,12,10,6.0,0.0
3260,47.0,1,21,3.0,0.0
3261,63.0,0,10,5.0,0.0
3262,54.0,11,10,6.0,0.0
3263,61.0,0,10,5.0,0.0
3264,52.0,12,10,6.0,0.0
3265,51.0,1,21,3.0,0.0
3266,61.0,10,24,5.0,0.0
3267,51.0,11,10,6.0,0.0
3268,52.0,2,10,6.0,0.0
3269,81.0,0,21,0.0,0.0
3270,78.0,0,21,1.0,0.0
3271,75.0,0,21,2.0,0.0
3272,54.0,1,21,3.0,0.0
3273,59.0,14,31,5.0,0.0
3274,54.0,11,10,6.0,0.0
3275,56.0,9,10,6.0,0.0
3276,75.0,0,21,0.0,0.0
3277,71.0,0,21,1.0,0.0
3278,66.0,0,21,2.0,0.0
3279,57.0,0,21,3.0,0.0
3280,57.0,1,21,6.0,0.0
3281,61.0,12,10,5.0,0.0
3282,78.0,0,21,0.0,0.0
3283,75.0,0,21,1.0,0.0
3284,71.0,0,21,2.0,0.0
3285,54.0,0,21,3.0,0.0
3286,59.0,11,10,5.0,0.0
3287,54.0,1,21,6.0,0.0
3288,57.0,12,10,5.0,0.0
3289,71.0,0,21,0.0,0.0
3290,66.0,0,21,1.0,0.0
3291,59.0,0,21,2.0,0.0
3292,51.0,1,21,3.0,0.0
3293,57.0,10,24,5.0,0.0
3294,51.0,11,10,6.0,0.0
3295,49.0,2,10,6.0,0.0
3296,75.0,0,21,0.0,0.0
3297,71.0,0,21,1.0,0.0
3298,47.0,1,21,3.0,0.0
3299,59.0,14,31,5.0,0.0
3300,47.0,11,10,6.0,0.0
3301,49.0,9,10,6.0,0.0
3302,66.0,0,21,0.0,0.0
3303,59.0,0,21,1.0,0.0
3304,51.0,0,21,3.0,0.0
3305,51.0,1,21,6.0,0.0
3306,61.0,12,10,5.0,0.0
3307,69.0,0,21,0.0,0.0
3308,54.0,0,21,3.0,0.0
3309,59.0,11,10,5.0,0.0
3310,54.0,1,21,6.0,0.0
3311,57.0,12,10,5.0,0.0
3312,63.0,0,21,0.0,0.0
3313,59.0,1,21,3.0,0.0
3314,59.0,0,10,5.0,0.0
3315,57.0,11,10,6.0,0.0
3316,61.0,0,10,5.0,0.0
3317,56.0,12,10,6.0,0.0
3318,66.0,1,21,0.0,0.0
3319,63.0,0,10,5.0,0.0
3320,54.0,11,10,6.0,0.0
3321,64.0,0,10,5.0,0.0
3322,52.0,12,10,6.0,0.0
3323,59.0,1,21,0.0,0.0
3324,66.0,0,10,5.0,0.0
3325,51.0,11,10,6.0,0.0
3326,69.0,0,10,5.0,0.0
3327,47.0,12,10,6.0,0.0
3328,68.0,0,10,5.0,0.0
3329,49.0,12,10,6.0,0.0
3330,66.0,0,10,5.0,0.0
3331,51.0,12,10,6.0,0.0
3332,68.0,0,10,5.0,0.0
3333,52.0,12,10,6.0,0.0
3334,71.0,0,10,5.0,0.0
3335,54.0,12,10,6.0,0.0
3336,64.0,0,10,5.0,0.0
3337,56.0,12,10,6.0,0.0
3338,66.0,0,10,5.0,0.0
3339,57.0,12,10,6.0,0.0
3340,68.0,0,10,5.0,0.0
3341,59.0,12,10,6.0,0.0
3342,69.0,0,10,5.0,0.0
3343,61.0,12,10,6.0,0.0
3344,71.0,0,10,5.0,0.0
3345,59.0,12,10,6.0,0.0
3346,73.0,0,10,5.0,0.0
3347,57.0,12,10,6.0,0.0
3348,74.0,0,10,5.0,0.0
3349,56.0,12,10,6.0,0.0
3350,78.0,0,10,5.0,0.0
3351,57.0,12,10,6.0,0.0
3352,71.0,0,10,5.0,0.0
3353,56.0,12,10,6.0,0.0
3354,73.0,0,10,5.0,0.0
3355,54.0,12,10,6.0,0.0
3356,74.0,0,10,5.0,0.0
3357,52.0,12,10,6.0,0.0
3358,76.0,0,10,5.0,0.0
3359,50.0,12,10,6.0,0.0
3360,78.0,0,10,5.0,0.0
3361,49.0,12,10,6.0,0.0
3362,80.0,0,10,5.0,0.0
3363,47.0,23,10,6.0,0.0
3364,81.0,0,21,5.0,0.0
3365,49.0,24,21,6.0,0.0
3366,83.0,0,21,5.0,0.0
3367,50.0,24,21,6.0,0.0
3368,76.0,0,21,5.0,0.0
3369,52.0,9,21,6.0,0.0
3370,81.0,6,6,5.0,0.0
3371,40.0,2,21,6.0,0.0
3372,80.0,6,6,5.0,0.0
3373,78.0,3,6,5.0,0.0
3374,80.0,11,5,5.0,0.0
3375,45.0,0,21,3.0,0.0
3376,33.0,0,21,4.0,0.0
3377,81.0,11,10,5.0,0.0
3378,45.0,1,21,6.0,0.0
3379,76.0,12,10,5.0,0.0
3380,73.0,0,10,0.0,0.0
3381,69.0,0,10,1.0,0.0
3382,64.0,0,21,2.0,0.0
3383,57.0,0,21,3.0,0.0
3384,45.0,0,21,4.0,0.0
3385,81.0,11,10,5.0,0.0
3386,57.0,1,21,6.0,0.0
3387,74.0,0,10,0.0,0.0
3388,71.0,0,10,1.0,0.0
3389,80.0,12,10,5.0,0.0
3390,76.0,0,21,0.0,0.0
3391,73.0,0,21,1.0,0.0
3392,69.0,1,21,2.0,0.0
3393,81.0,11,10,5.0,0.0
3394,76.0,12,10,5.0,0.0
3395,81.0,0,21,0.0,0.0
3396,76.0,0,21,1.0,0.0
3397,73.0,1,21,2.0,0.0
3398,73.0,11,10,5.0,0.0
3399,69.0,12,10,5.0,0.0
3400,73.0,0,21,0.0,0.0
3401,69.0,0,21,1.0,0.0
3402,64.0,1,21,2.0,0.0
3403,76.0,11,10,5.0,0.0
3404,73.0,12,10,5.0,0.0
3405,76.0,0,21,0.0,0.0
3406,73.0,0,21,1.0,0.0
3407,69.0,1,21,2.0,0.0
3408,69.0,11,10,5.0,0.0
3409,64.0,12,10,5.0,0.0
3410,69.0,0,21,0.0,0.0
3411,64.0,0,21,1.0,0.0
3412,61.0,1,21,2.0,0.0
3413,73.0,11,10,5.0,0.0
3414,69.0,12,10,5.0,0.0
3415,73.0,0,21,0.0,0.0
3416,69.0,0,21,1.0,0.0
3417,64.0,1,21,2.0,0.0
3418,64.0,11,10,5.0,0.0
3419,61.0,23,10,5.0,0.0
3420,52.0,0,21,3.0,0.0
3421,40.0,0,21,4.0,0.0
3422,52.0,1,21,6.0,0.0
3423,74.0,12,10,5.0,0.0
3424,71.0,0,10,0.0,0.0
3425,68.0,0,10,1.0,0.0
3426,64.0,0,21,2.0,0.0
3427,64.0,0,21,3.0,0.0
3428,52.0,0,21,4.0,0.0
3429,83.0,11,10,5.0,0.0
3430,64.0,1,21,6.0,0.0
3431,73.0,0,10,0.0,0.0
3432,69.0,0,10,1.0,0.0
3433,81.0,12,10,5.0,0.0
3434,74.0,0,21,0.0,0.0
3435,71.0,0,21,1.0,0.0
3436,59.0,1,21,2.0,0.0
3437,83.0,11,10,5.0,0.0
3438,80.0,12,10,5.0,0.0
3439,83.0,0,21,0.0,0.0
3440,74.0,0,21,1.0,0.0
3441,56.0,1,21,2.0,0.0
3442,74.0,11,10,5.0,0.0
3443,71.0,12,10,5.0,0.0
3444,74.0,0,21,0.0,0.0
3445,68.0,0,21,1.0,0.0
3446,68.0,1,21,2.0,0.0
3447,80.0,11,10,5.0,0.0
3448,74.0,12,10,5.0,0.0
3449,80.0,0,21,0.0,0.0
3450,71.0,0,21,1.0,0.0
3451,71.0,1,21,2.0,0.0
3452,71.0,11,10,5.0,0.0
3453,68.0,12,10,5.0,0.0
3454,71.0,0,21,0.0,0.0
3455,64.0,0,21,1.0,0.0
3456,74.0,1,21,2.0,0.0
3457,74.0,11,10,5.0,0.0
3458,71.0,12,10,5.0,0.0
3459,74.0,0,21,0.0,0.0
3460,68.0,0,21,1.0,0.0
3461,64.0,1,21,2.0,0.0
3462,68.0,11,10,5.0,0.0
3463,64.0,7,10,5.0,0.0
3464,73.0,0,21,0.0,0.0
3465,69.0,0,21,1.0,0.0
3466,57.0,0,21,2.0,0.0
3467,45.0,9,21,3.0,0.0
3468,73.0,6,5,5.0,0.0
3469,71.0,10,5,5.0,0.0
3470,69.0,0,42,5.0,0.0
3471,61.0,0,10,0.0,0.0
3472,57.0,11,10,1.0,0.0
3473,52.0,0,21,2.0,0.0
3474,57.0,1,21,3.0,0.0
3475,57.0,4,6,6.0,0.0
3476,62.0,0,10,0.0,0.0
3477,59.0,8,10,1.0,0.0
3478,64.0,0,21,0.0,0.0
3479,61.0,0,21,1.0,0.0
3480,57.0,1,21,2.0,0.0
3481,49.0,15,6,6.0,0.0
3482,73.0,8,10,5.0,0.0
3483,71.0,12,10,5.0,0.0
3484,52.0,4,6,6.0,0.0
3485,73.0,8,10,5.0,0.0
3486,71.0,0,6,5.0,0.0
3487,45.0,5,6,6.0,0.0
3488,69.0,11,5,5.0,0.0
3489,64.0,8,10,5.0,0.0
3490,64.0,0,10,0.0,0.0
3491,61.0,11,10,1.0,0.0
3492,69.0,1,21,2.0,0.0
3493,69.0,14,31,5.0,0.0
3494,49.0,4,6,6.0,0.0
3495,66.0,0,10,0.0,0.0
3496,62.0,8,10,1.0,0.0
3497,67.0,0,21,0.0,0.0
3498,64.0,0,21,1.0,0.0
3499,61.0,1,21,2.0,0.0
3500,40.0,1,6,6.0,0.0
3501,73.0,8,10,5.0,0.0
3502,71.0,12,10,5.0,0.0
3503,45.0,4,6,6.0,0.0
3504,73.0,12,10,5.0,0.0
3505,69.0,11,10,5.0,0.0
3506,37.0,1,21,6.0,0.0
3507,71.0,12,10,5.0,0.0
3508,73.0,11,10,5.0,0.0
3509,40.0,1,21,6.0,0.0
3510,74.0,12,10,5.0,0.0
3511,76.0,11,10,5.0,0.0
3512,33.0,1,21,6.0,0.0
3513,79.0,12,10,5.0,0.0
3514,78.0,11,10,5.0,0.0
3515,45.0,1,21,6.0,0.0
3516,76.0,5,10,5.0,0.0
3517,50.0,0,21,3.0,0.0
3518,78.0,3,3,5.0,0.0
3519,38.0,1,21,6.0,0.0
3520,76.0,15,3,5.0,0.0
3521,74.0,12,16,5.0,0.0
3522,66.0,0,10,0.0,0.0
3523,62.0,11,10,1.0,0.0
3524,57.0,0,21,2.0,0.0
3525,62.0,0,21,3.0,0.0
3526,69.0,0,21,5.0,0.0
3527,50.0,1,21,6.0,0.0
3528,67.0,0,10,0.0,0.0
3529,64.0,23,10,1.0,0.0
3530,69.0,0,21,0.0,0.0
3531,66.0,0,21,1.0,0.0
3532,62.0,0,21,2.0,0.0
3533,62.0,1,21,5.0,0.0
3534,52.0,12,10,6.0,0.0
3535,74.0,0,21,0.0,0.0
3536,69.0,0,21,1.0,0.0
3537,66.0,1,21,2.0,0.0
3538,50.0,11,10,6.0,0.0
3539,49.0,8,10,6.0,0.0
3540,68.0,0,21,0.0,0.0
3541,62.0,0,21,1.0,0.0
3542,68.0,1,21,2.0,0.0
3543,68.0,4,6,5.0,0.0
3544,47.0,2,10,6.0,0.0
3545,66.0,9,6,5.0,0.0
3546,68.0,15,42,5.0,0.0
3547,45.0,12,10,6.0,0.0
3548,71.0,0,21,0.0,0.0
3549,68.0,0,21,1.0,0.0
3550,62.0,1,21,2.0,0.0
3551,44.0,11,10,6.0,0.0
3552,45.0,8,10,6.0,0.0
3553,62.0,0,21,0.0,0.0
3554,59.0,0,21,1.0,0.0
3555,62.0,0,21,2.0,0.0
3556,47.0,1,21,6.0,0.0
3557,71.0,12,10,5.0,0.0
3558,68.0,0,21,0.0,0.0
3559,64.0,0,21,1.0,0.0
3560,61.0,0,10,2.0,0.0
3561,69.0,11,10,5.0,0.0
3562,49.0,1,21,6.0,0.0
3563,62.0,0,10,2.0,0.0
3564,71.0,12,10,5.0,0.0
3565,59.0,0,21,0.0,0.0
3566,64.0,0,21,1.0,0.0
3567,64.0,1,21,2.0,0.0
3568,69.0,10,24,5.0,0.0
3569,50.0,11,10,6.0,0.0
3570,52.0,2,10,6.0,0.0
3571,68.0,0,10,0.0,0.0
3572,64.0,0,10,1.0,0.0
3573,59.0,1,21,2.0,0.0
3574,68.0,14,31,5.0,0.0
3575,50.0,11,10,6.0,0.0
3576,69.0,0,10,0.0,0.0
3577,66.0,0,10,1.0,0.0
3578,49.0,8,10,6.0,0.0
3579,71.0,0,21,0.0,0.0
3580,68.0,0,21,1.0,0.0
3581,52.0,1,21,2.0,0.0
3582,50.0,1,6,6.0,0.0
3583,71.0,8,10,5.0,0.0
3584,69.0,12,10,5.0,0.0
3585,54.0,4,6,6.0,0.0
3586,71.0,8,10,5.0,0.0
3587,68.0,12,10,5.0,0.0
3588,47.0,4,6,6.0,0.0
3589,69.0,8,10,5.0,0.0
3590,80.0,0,10,0.0,0.0
3591,74.0,0,10,1.0,0.0
3592,71.0,0,10,2.0,0.0
3593,71.0,12,10,5.0,0.0
3594,50.0,4,6,6.0,0.0
3595,81.0,0,10,0.0,0.0
3596,73.0,0,10,1.0,0.0
3597,69.0,0,10,2.0,0.0
3598,73.0,8,10,5.0,0.0
3599,83.0,0,21,0.0,0.0
3600,71.0,0,21,1.0,0.0
3601,68.0,1,21,2.0,0.0
3602,74.0,11,10,5.0,0.0
3603,44.0,4,6,6.0,0.0
3604,78.0,8,10,5.0,0.0
3605,76.0,12,10,5.0,0.0
3606,47.0,4,6,6.0,0.0
3607,74.0,8,10,5.0,0.0
3608,49.0,1,21,3.0,0.0
3609,76.0,4,6,5.0,0.0
3610,49.0,2,10,6.0,0.0
3611,74.0,9,6,5.0,0.0
3612,73.0,2,31,5.0,0.0
3613,50.0,12,10,6.0,0.0
3614,73.0,0,10,0.0,0.0
3615,68.0,0,21,1.0,0.0
3616,64.0,0,10,2.0,0.0
3617,61.0,1,21,3.0,0.0
3618,52.0,9,10,6.0,0.0
3619,74.0,0,10,0.0,0.0
3620,66.0,0,10,2.0,0.0
3621,50.0,12,10,6.0,0.0
3622,76.0,0,21,0.0,0.0
3623,73.0,0,21,1.0,0.0
3624,68.0,1,21,2.0,0.0
3625,49.0,11,10,6.0,0.0
3626,47.0,12,10,6.0,0.0
3627,76.0,1,21,5.0,0.0
3628,45.0,11,10,6.0,0.0
3629,44.0,12,10,6.0,0.0
3630,69.0,11,10,5.0,0.0
3631,42.0,1,21,6.0,0.0
3632,71.0,12,10,5.0,0.0
3633,69.0,0,10,5.0,0.0
3634,54.0,12,10,6.0,0.0
3635,68.0,0,10,5.0,0.0
3636,52.0,12,10,6.0,0.0
3637,69.0,11,10,5.0,0.0
3638,50.0,3,21,6.0,0.0
3639,66.0,12,12,5.0,0.0
3640,65.0,9,12,5.0,0.0
3641,49.0,1,21,6.0,0.0
3642,66.0,8,10,5.0,0.0
3643,47.0,0,21,3.0,0.0
3644,76.0,5,6,5.0,0.0
3645,47.0,1,21,6.0,0.0
3646,74.0,10,5,5.0,0.0
3647,73.0,12,10,5.0,0.0
3648,71.0,0,10,0.0,0.0
3649,66.0,0,21,1.0,0.0
3650,62.0,11,10,2.0,0.0
3651,59.0,0,21,3.0,0.0
3652,74.0,14,31,5.0,0.0
3653,59.0,1,21,6.0,0.0
3654,73.0,0,10,0.0,0.0
3655,64.0,9,10,2.0,0.0
3656,74.0,0,21,0.0,0.0
3657,71.0,0,21,1.0,0.0
3658,66.0,0,21,2.0,0.0
3659,47.0,1,21,6.0,0.0
3660,73.0,12,10,5.0,0.0
3661,71.0,0,10,5.0,0.0
3662,49.0,12,10,6.0,0.0
3663,69.0,0,10,5.0,0.0
3664,50.0,12,10,6.0,0.0
3665,68.0,11,10,5.0,0.0
3666,40.0,1,21,6.0,0.0
3667,69.0,12,10,5.0,0.0
3668,68.0,0,10,5.0,0.0
3669,52.0,12,10,6.0,0.0
3670,66.0,0,10,5.0,0.0
3671,50.0,12,10,6.0,0.0
3672,68.0,11,10,5.0,0.0
3673,49.0,3,21,6.0,0.0
3674,64.0,12,12,5.0,0.0
3675,63.0,9,12,5.0,0.0
3676,47.0,1,21,6.0,0.0
3677,64.0,8,10,5.0,0.0
3678,45.0,0,21,3.0,0.0
3679,74.0,5,6,5.0,0.0
3680,45.0,1,21,6.0,0.0
3681,73.0,10,5,5.0,0.0
3682,71.0,12,10,5.0,0.0
3683,69.0,0,10,0.0,0.0
3684,64.0,0,21,1.0,0.0
3685,61.0,11,10,2.0,0.0
3686,57.0,0,21,3.0,0.0
3687,73.0,0,21,5.0,0.0
3688,57.0,1,21,6.0,0.0
3689,71.0,0,10,0.0,0.0
3690,62.0,23,10,2.0,0.0
3691,73.0,0,21,0.0,0.0
3692,69.0,0,21,1.0,0.0
3693,64.0,0,21,2.0,0.0
3694,45.0,1,21,6.0,0.0
3695,69.0,12,10,5.0,0.0
3696,68.0,0,10,5.0,0.0
3697,47.0,12,10,6.0,0.0
3698,69.0,0,10,5.0,0.0
3699,49.0,23,10,6.0,0.0
3700,74.0,0,21,5.0,0.0
3701,47.0,13,21,6.0,0.0
3702,83.0,0,10,0.0,0.0
3703,62.0,11,10,5.0,0.0
3704,59.0,1,21,6.0,0.0
3705,81.0,0,10,0.0,0.0
3706,61.0,23,10,5.0,0.0
3707,83.0,0,21,0.0,0.0
3708,62.0,0,21,5.0,0.0
3709,57.0,13,21,6.0,0.0
3710,71.0,0,10,1.0,0.0
3711,74.0,11,10,5.0,0.0
3712,45.0,1,21,6.0,0.0
3713,69.0,0,10,1.0,0.0
3714,73.0,23,10,5.0,0.0
3715,71.0,0,21,1.0,0.0
3716,74.0,0,21,5.0,0.0
3717,44.0,13,21,6.0,0.0
3718,59.0,0,10,2.0,0.0
3719,62.0,11,10,5.0,0.0
3720,56.0,1,21,6.0,0.0
3721,57.0,0,10,2.0,0.0
3722,61.0,23,10,5.0,0.0
3723,59.0,0,21,2.0,0.0
3724,62.0,1,21,5.0,0.0
3725,56.0,12,10,6.0,0.0
3726,74.0,0,10,0.0,0.0
3727,71.0,0,10,1.0,0.0
3728,54.0,1,21,2.0,0.0
3729,74.0,0,10,5.0,0.0
3730,57.0,11,10,6.0,0.0
3731,73.0,0,10,0.0,0.0
3732,69.0,0,10,1.0,0.0
3733,73.0,0,10,5.0,0.0
3734,59.0,12,10,6.0,0.0
3735,74.0,0,21,0.0,0.0
3736,71.0,0,21,1.0,0.0
3737,56.0,0,21,2.0,0.0
3738,74.0,11,10,5.0,0.0
3739,52.0,1,21,6.0,0.0
3740,80.0,12,10,5.0,0.0
3741,81.0,11,10,5.0,0.0
3742,40.0,1,21,6.0,0.0
3743,83.0,12,10,5.0,0.0
3744,81.0,11,10,5.0,0.0
3745,42.0,1,21,6.0,0.0
3746,80.0,12,10,5.0,0.0
3747,78.0,11,10,5.0,0.0
3748,44.0,1,21,6.0,0.0
3749,76.0,12,10,5.0,0.0
3750,74.0,11,10,5.0,0.0
3751,45.0,1,21,6.0,0.0
3752,73.0,12,10,5.0,0.0
3753,71.0,11,10,5.0,0.0
3754,42.0,1,21,6.0,0.0
3755,69.0,23,10,5.0,0.0
3756,71.0,0,21,5.0,0.0
3757,38.0,9,21,6.0,0.0
3758,69.0,6,6,5.0,0.0
3759,40.0,2,21,6.0,0.0
3760,68.0,6,6,5.0,0.0
3761,66.0,3,6,5.0,0.0
3762,68.0,11,5,5.0,0.0
3763,45.0,0,21,3.0,0.0
3764,33.0,0,21,4.0,0.0
3765,69.0,11,10,5.0,0.0
3766,45.0,1,21,6.0,0.0
3767,76.0,12,10,5.0,0.0
3768,73.0,0,10,0.0,0.0
3769,69.0,0,10,1.0,0.0
3770,64.0,0,21,2.0,0.0
3771,57.0,0,21,3.0,0.0
3772,45.0,0,21,4.0,0.0
3773,81.0,11,10,5.0,0.0
3774,57.0,1,21,6.0,0.0
3775,74.0,0,10,0.0,0.0
3776,71.0,0,10,1.0,0.0
3777,80.0,12,10,5.0,0.0
3778,76.0,0,21,0.0,0.0
3779,73.0,0,21,1.0,0.0
3780,69.0,1,21,2.0,0.0
3781,81.0,11,10,5.0,0.0
3782,76.0,12,10,5.0,0.0
3783,81.0,0,21,0.0,0.0
3784,76.0,0,21,1.0,0.0
3785,73.0,1,21,2.0,0.0
3786,73.0,11,10,5.0,0.0
3787,69.0,12,10,5.0,0.0
3788,73.0,0,21,0.0,0.0
3789,69.0,0,21,1.0,0.0
3790,64.0,1,21,2.0,0.0
3791,76.0,11,10,5.0,0.0
3792,73.0,12,10,5.0,0.0
3793,76.0,0,21,0.0,0.0
3794,73.0,0,21,1.0,0.0
3795,69.0,1,21,2.0,0.0
3796,69.0,11,10,5.0,0.0
3797,64.0,12,10,5.0,0.0
3798,69.0,0,21,0.0,0.0
3799,64.0,0,21,1.0,0.0
3800,61.0,1,21,2.0,0.0
3801,73.0,11,10,5.0,0.0
3802,69.0,12,10,5.0,0.0
3803,73.0,0,21,0.0,0.0
3804,69.0,0,21,1.0,0.0
3805,64.0,1,21,2.0,0.0
3806,64.0,11,10,5.0,0.0
3807,61.0,23,10,5.0,0.0
3808,44.0,0,21,3.0,0.0
3809,32.0,0,21,4.0,0.0
3810,44.0,1,21,6.0,0.0
3811,74.0,12,10,5.0,0.0
3812,71.0,0,10,0.0,0.0
3813,68.0,0,10,1.0,0.0
3814,64.0,0,21,2.0,0.0
3815,56.0,0,21,3.0,0.0
3816,44.0,0,21,4.0,0.0
3817,83.0,11,10,5.0,0.0
3818,56.0,1,21,6.0,0.0
3819,73.0,0,10,0.0,0.0
3820,69.0,0,10,1.0,0.0
3821,81.0,12,10,5.0,0.0
3822,74.0,0,21,0.0,0.0
3823,71.0,0,21,1.0,0.0
3824,59.0,1,21,2.0,0.0
3825,83.0,11,10,5.0,0.0
3826,80.0,12,10,5.0,0.0
3827,83.0,0,21,0.0,0.0
3828,74.0,0,21,1.0,0.0
3829,56.0,1,21,2.0,0.0
3830,74.0,11,10,5.0,0.0
3831,71.0,12,10,5.0,0.0
3832,74.0,0,21,0.0,0.0
3833,71.0,0,21,1.0,0.0
3834,68.0,1,21,2.0,0.0
3835,80.0,11,10,5.0,0.0
3836,74.0,12,10,5.0,0.0
3837,80.0,0,21,0.0,0.0
3838,74.0,0,21,1.0,0.0
3839,71.0,1,21,2.0,0.0
3840,71.0,11,10,5.0,0.0
3841,68.0,12,10,5.0,0.0
3842,71.0,0,21,0.0,0.0
3843,68.0,0,21,1.0,0.0
3844,74.0,1,21,2.0,0.0
3845,74.0,11,10,5.0,0.0
3846,71.0,12,10,5.0,0.0
3847,74.0,0,21,0.0,0.0
3848,71.0,0,21,1.0,0.0
3849,64.0,1,21,2.0,0.0
3850,68.0,11,10,5.0,0.0
3851,64.0,23,10,5.0,0.0
3852,73.0,0,21,0.0,0.0
3853,69.0,0,21,1.0,0.0
3854,69.0,0,21,2.0,0.0
3855,73.0,13,21,5.0,0.0
3856,69.0,0,21,0.0,0.0
3857,73.0,0,10,1.0,0.0
3858,64.0,0,21,2.0,0.0
3859,57.0,0,10,3.0,0.0
3860,45.0,0,10,4.0,0.0
3861,69.0,1,21,5.0,0.0
3862,57.0,11,10,6.0,0.0
3863,71.0,0,10,1.0,0.0
3864,56.0,0,10,3.0,0.0
3865,44.0,0,10,4.0,0.0
3866,56.0,8,10,6.0,0.0
3867,78.0,1,63,0.0,0.0
3868,73.0,0,21,1.0,0.0
3869,61.0,0,21,2.0,0.0
3870,57.0,0,21,3.0,0.0
3871,45.0,0,21,4.0,0.0
3872,78.0,6,6,5.0,0.0
3873,57.0,13,21,6.0,0.0
3874,76.0,9,6,5.0,0.0
3875,78.0,5,52,5.0,0.0
3876,75.0,11,10,1.0,0.0
3877,57.0,0,21,2.0,0.0
3878,54.0,0,21,3.0,0.0
3879,42.0,0,21,4.0,0.0
3880,54.0,1,21,6.0,0.0
3881,76.0,17,10,1.0,0.0
3882,78.0,0,21,1.0,0.0
3883,69.0,0,21,2.0,0.0
3884,51.0,0,21,3.0,0.0
3885,39.0,0,21,4.0,0.0
3886,51.0,15,21,6.0,0.0
3887,80.0,0,12,0.0,0.0
3888,54.0,0,21,3.0,0.0
3889,42.0,0,21,4.0,0.0
3890,80.0,9,12,5.0,0.0
3891,54.0,3,21,6.0,0.0
3892,81.0,0,12,0.0,0.0
3893,81.0,12,12,5.0,0.0
3894,83.0,0,12,0.0,0.0
3895,51.0,0,21,3.0,0.0
3896,39.0,0,21,4.0,0.0
3897,83.0,9,12,5.0,0.0
3898,51.0,3,21,6.0,0.0
3899,81.0,0,12,0.0,0.0
3900,81.0,12,12,5.0,0.0
3901,80.0,0,12,0.0,0.0
3902,47.0,0,21,3.0,0.0
3903,35.0,0,21,4.0,0.0
3904,80.0,9,12,5.0,0.0
3905,47.0,1,21,6.0,0.0
3906,81.0,0,10,0.0,0.0
3907,81.0,23,10,5.0,0.0
3908,83.0,0,21,0.0,0.0
3909,44.0,0,21,3.0,0.0
3910,32.0,0,21,4.0,0.0
3911,83.0,0,21,5.0,0.0
3912,44.0,13,21,6.0,0.0
3913,71.0,0,21,0.0,0.0
3914,71.0,0,10,1.0,0.0
3915,63.0,0,21,2.0,0.0
3916,56.0,0,10,3.0,0.0
3917,44.0,0,10,4.0,0.0
3918,71.0,1,21,5.0,0.0
3919,56.0,11,10,6.0,0.0
3920,69.0,0,10,1.0,0.0
3921,54.0,0,10,3.0,0.0
3922,42.0,0,10,4.0,0.0
3923,54.0,8,10,6.0,0.0
3924,76.0,1,63,0.0,0.0
3925,71.0,0,21,1.0,0.0
3926,59.0,0,21,2.0,0.0
3927,56.0,0,21,3.0,0.0
3928,44.0,0,21,4.0,0.0
3929,76.0,6,6,5.0,0.0
3930,56.0,13,21,6.0,0.0
3931,75.0,9,6,5.0,0.0
3932,76.0,5,52,5.0,0.0
3933,73.0,11,10,1.0,0.0
3934,56.0,0,21,2.0,0.0
3935,52.0,0,21,3.0,0.0
3936,40.0,0,21,4.0,0.0
3937,52.0,1,21,6.0,0.0
3938,75.0,17,10,1.0,0.0
3939,76.0,0,21,1.0,0.0
3940,68.0,0,21,2.0,0.0
3941,49.0,0,21,3.0,0.0
3942,37.0,0,21,4.0,0.0
3943,49.0,15,21,6.0,0.0
3944,78.0,0,12,0.0,0.0
3945,52.0,0,21,3.0,0.0
3946,40.0,0,21,4.0,0.0
3947,78.0,9,12,5.0,0.0
3948,52.0,3,21,6.0,0.0
3949,80.0,0,12,0.0,0.0
3950,80.0,12,12,5.0,0.0
3951,81.0,0,12,0.0,0.0
3952,49.0,0,21,3.0,0.0
3953,37.0,0,21,4.0,0.0
3954,81.0,9,12,5.0,0.0
3955,49.0,3,21,6.0,0.0
3956,80.0,0,12,0.0,0.0
3957,80.0,12,12,5.0,0.0
3958,78.0,0,12,0.0,0.0
3959,45.0,0,21,3.0,0.0
3960,33.0,0,21,4.0,0.0
3961,78.0,9,12,5.0,0.0
3962,45.0,1,21,6.0,0.0
3963,80.0,0,10,0.0,0.0
3964,80.0,23,10,5.0,0.0
3965,81.0,0,21,0.0,0.0
3966,42.0,0,21,3.0,0.0
3967,30.0,0,21,4.0,0.0
3968,81.0,0,21,5.0,0.0
3969,42.0,13,21,6.0,0.0
3970,69.0,0,10,0.0,0.0
3971,66.0,0,10,1.0,0.0
3972,61.0,0,10,2.0,0.0
3973,54.0,0,21,3.0,0.0
3974,42.0,0,21,4.0,0.0
3975,69.0,11,10,5.0,0.0
3976,54.0,1,21,6.0,0.0
3977,68.0,0,10,0.0,0.0
3978,64.0,0,10,1.0,0.0
3979,59.0,0,10,2.0,0.0
3980,68.0,23,10,5.0,0.0
3981,69.0,0,21,0.0,0.0
3982,66.0,0,21,1.0,0.0
3983,61.0,0,21,2.0,0.0
3984,52.0,0,21,3.0,0.0
3985,40.0,0,21,4.0,0.0
3986,69.0,0,21,5.0,0.0
3987,52.0,13,21,6.0,0.0
3988,81.0,0,10,0.0,0.0
3989,78.0,0,10,1.0,0.0
3990,61.0,0,21,2.0,0.0
3991,40.0,0,21,3.0,0.0
3992,28.0,0,21,4.0,0.0
3993,81.0,11,10,5.0,0.0
3994,40.0,1,21,6.0,0.0
3995,80.0,0,10,0.0,0.0
3996,76.0,0,10,1.0,0.0
3997,80.0,23,10,5.0,0.0
3998,81.0,0,21,0.0,0.0
3999,78.0,0,21,1.0,0.0
4000,59.0,0,21,2.0,0.0
4001,39.0,0,21,3.0,0.0
4002,27.0,0,21,4.0,0.0
4003,81.0,0,21,5.0,0.0
4004,39.0,13,21,6.0,0.0
4005,69.0,0,10,0.0,0.0
4006,66.0,0,10,1.0,0.0
4007,66.0,0,21,2.0,0.0
4008,51.0,0,21,3.0,0.0
4009,39.0,0,21,4.0,0.0
4010,69.0,11,10,5.0,0.0
4011,51.0,1,21,6.0,0.0
4012,68.0,0,10,0.0,0.0
4013,64.0,0,10,1.0,0.0
4014,68.0,23,10,5.0,0.0
4015,69.0,0,21,0.0,0.0
4016,66.0,0,21,1.0,0.0
4017,64.0,0,21,2.0,0.0
4018,49.0,0,21,3.0,0.0
4019,37.0,0,21,4.0,0.0
4020,69.0,0,21,5.0,0.0
4021,49.0,13,21,6.0,0.0
4022,81.0,0,10,0.0,0.0
4023,78.0,0,10,1.0,0.0
4024,64.0,0,21,2.0,0.0
4025,61.0,0,21,3.0,0.0
4026,49.0,0,21,4.0,0.0
4027,81.0,11,10,5.0,0.0
4028,61.0,1,21,6.0,0.0
4029,80.0,0,10,0.0,0.0
4030,76.0,0,10,1.0,0.0
4031,80.0,23,10,5.0,0.0
4032,81.0,0,21,0.0,0.0
4033,78.0,0,21,1.0,0.0
4034,63.0,0,21,2.0,0.0
4035,59.0,0,21,3.0,0.0
4036,47.0,0,21,4.0,0.0
4037,81.0,0,21,5.0,0.0
4038,59.0,7,21,6.0,0.0
4039,80.0,0,10,0.0,0.0
4040,76.0,1,10,1.0,0.0
4041,59.0,0,21,2.0,0.0
4042,47.0,0,21,3.0,0.0
4043,35.0,0,21,4.0,0.0
4044,80.0,4,4,5.0,0.0
4045,47.0,1,21,6.0,0.0
4046,81.0,2,4,5.0,0.0
4047,80.0,10,3,5.0,0.0
4048,78.0,0,10,0.0,0.0
4049,75.0,0,10,1.0,0.0
4050,78.0,23,10,5.0,0.0
4051,80.0,0,21,0.0,0.0
4052,76.0,0,21,1.0,0.0
4053,59.0,0,21,2.0,0.0
4054,52.0,0,21,3.0,0.0
4055,40.0,0,21,4.0,0.0
4056,80.0,0,21,5.0,0.0
4057,52.0,24,21,6.0,0.0
4058,76.0,0,21,0.0,0.0
4059,71.0,0,21,1.0,0.0
4060,64.0,0,21,2.0,0.0
4061,56.0,0,21,3.0,0.0
4062,44.0,0,21,4.0,0.0
4063,76.0,0,21,5.0,0.0
4064,56.0,24,21,6.0,0.0
4065,73.0,0,21,0.0,0.0
4066,69.0,0,21,1.0,0.0
4067,64.0,0,21,2.0,0.0
4068,45.0,0,21,3.0,0.0
4069,33.0,0,21,4.0,0.0
4070,73.0,0,21,5.0,0.0
4071,45.0,13,21,6.0,0.0
4072,75.0,0,48,0.0,0.0
4073,66.0,0,48,1.0,0.0
4074,66.0,0,10,2.0,0.0
4075,57.0,0,10,3.0,0.0
4076,45.0,2,10,4.0,0.0
4077,75.0,12,48,5.0,0.0
4078,57.0,10,12,6.0,0.0
4079,64.0,0,10,2.0,0.0
4080,56.0,0,10,3.0,0.0
4081,44.0,2,10,4.0,0.0
4082,56.0,21,12,6.0,0.0
4083,66.0,0,21,2.0,0.0
4084,57.0,0,21,3.0,0.0
4085,45.0,0,21,4.0,0.0
4086,57.0,3,21,6.0,0.0
4087,76.0,0,12,0.0,0.0
4088,68.0,0,12,1.0,0.0
4089,59.0,3,42,2.0,0.0
4090,54.0,0,21,3.0,0.0
4091,42.0,0,21,4.0,0.0
4092,76.0,9,12,5.0,0.0
4093,54.0,1,21,6.0,0.0
4094,78.0,0,10,0.0,0.0
4095,69.0,0,10,1.0,0.0
4096,78.0,12,10,5.0,0.0
4097,71.0,0,21,0.0,0.0
4098,71.0,8,10,1.0,0.0
4099,47.0,0,21,3.0,0.0
4100,35.0,0,21,4.0,0.0
4101,71.0,0,21,5.0,0.0
4102,47.0,1,21,6.0,0.0
4103,73.0,12,10,1.0,0.0
4104,75.0,9,36,0.0,0.0
4105,71.0,0,10,1.0,0.0
4106,56.0,1,21,2.0,0.0
4107,56.0,0,10,3.0,0.0
4108,44.0,0,10,4.0,0.0
4109,75.0,3,31,5.0,0.0
4110,56.0,11,10,6.0,0.0
4111,69.0,0,10,1.0,0.0
4112,54.0,0,10,3.0,0.0
4113,42.0,0,10,4.0,0.0
4114,54.0,9,10,6.0,0.0
4115,71.0,2,10,1.0,0.0
4116,59.0,0,21,2.0,0.0
4117,56.0,0,21,3.0,0.0
4118,44.0,0,21,4.0,0.0
4119,56.0,1,21,6.0,0.0
4120,76.0,0,12,0.0,0.0
4121,69.0,2,10,1.0,0.0
4122,76.0,10,12,5.0,0.0
4123,75.0,0,12,0.0,0.0
4124,71.0,2,10,1.0,0.0
4125,64.0,0,21,2.0,0.0
4126,52.0,0,21,3.0,0.0
4127,40.0,0,21,4.0,0.0
4128,75.0,9,12,5.0,0.0
4129,52.0,1,21,6.0,0.0
4130,76.0,0,10,0.0,0.0
4131,68.0,0,10,1.0,0.0
4132,76.0,12,10,5.0,0.0
4133,69.0,0,21,0.0,0.0
4134,69.0,11,10,1.0,0.0
4135,61.0,0,21,2.0,0.0
4136,42.0,0,21,3.0,0.0
4137,30.0,0,21,4.0,0.0
4138,69.0,0,21,5.0,0.0
4139,42.0,1,21,6.0,0.0
4140,71.0,12,10,1.0,0.0
4141,75.0,0,48,0.0,0.0
4142,69.0,0,10,1.0,0.0
4143,66.0,1,21,2.0,0.0
4144,54.0,0,10,3.0,0.0
4145,42.0,0,10,4.0,0.0
4146,75.0,10,48,5.0,0.0
4147,54.0,11,10,6.0,0.0
4148,68.0,0,10,1.0,0.0
4149,52.0,0,10,3.0,0.0
4150,40.0,0,10,4.0,0.0
4151,52.0,12,10,6.0,0.0
4152,69.0,11,10,1.0,0.0
4153,57.0,0,21,2.0,0.0
4154,54.0,0,21,3.0,0.0
4155,42.0,0,21,4.0,0.0
4156,54.0,1,21,6.0,0.0
4157,66.0,2,10,1.0,0.0
4158,76.0,0,12,0.0,0.0
4159,64.0,2,10,1.0,0.0
4160,59.0,0,21,2.0,0.0
4161,47.0,0,21,3.0,0.0
4162,35.0,0,21,4.0,0.0
4163,76.0,9,12,5.0,0.0
4164,47.0,1,21,6.0,0.0
4165,78.0,0,10,0.0,0.0
4166,63.0,0,10,1.0,0.0
4167,78.0,23,10,5.0,0.0
4168,68.0,0,21,0.0,0.0
4169,64.0,0,21,1.0,0.0
4170,59.0,0,21,2.0,0.0
4171,40.0,0,21,3.0,0.0
4172,28.0,0,21,4.0,0.0
4173,68.0,0,21,5.0,0.0
4174,40.0,13,21,6.0,0.0
4175,69.0,0,10,0.0,0.0
4176,64.0,3,42,1.0,0.0
4177,64.0,1,21,2.0,0.0
4178,42.0,0,10,3.0,0.0
4179,30.0,0,10,4.0,0.0
4180,69.0,0,10,5.0,0.0
4181,42.0,11,10,6.0,0.0
4182,71.0,0,10,0.0,0.0
4183,44.0,0,10,3.0,0.0
4184,32.0,0,10,4.0,0.0
4185,71.0,0,10,5.0,0.0
4186,44.0,20,10,6.0,0.0
4187,73.0,0,21,0.0,0.0
4188,57.0,0,21,2.0,0.0
4189,45.0,0,63,3.0,0.0
4190,33.0,0,63,4.0,0.0
4191,73.0,24,21,5.0,0.0
4192,45.0,6,63,6.0,0.0
4193,78.0,0,21,0.0,0.0
4194,69.0,0,21,1.0,0.0
4195,61.0,0,21,2.0,0.0
4196,78.0,18,21,5.0,0.0
4197,71.0,0,21,0.0,0.0
4198,66.0,0,21,1.0,0.0
4199,63.0,0,21,2.0,0.0
4200,71.0,24,21,5.0,0.0
4201,83.0,0,21,0.0,0.0
4202,64.0,0,21,1.0,0.0
4203,64.0,0,21,2.0,0.0
4204,44.0,0,21,3.0,0.0
4205,32.0,0,21,4.0,0.0
4206,83.0,0,21,5.0,0.0
4207,44.0,13,21,6.0,0.0
4208,81.0,9,12,0.0,0.0
4209,76.0,0,21,1.0,0.0
4210,61.0,0,21,2.0,0.0
4211,45.0,0,21,3.0,0.0
4212,33.0,0,21,4.0,0.0
4213,81.0,2,10,5.0,0.0
4214,45.0,1,21,6.0,0.0
4215,80.0,0,10,0.0,0.0
4216,80.0,12,10,5.0,0.0
4217,78.0,9,12,0.0,0.0
4218,75.0,0,21,1.0,0.0
4219,66.0,0,21,2.0,0.0
4220,47.0,0,21,3.0,0.0
4221,35.0,0,21,4.0,0.0
4222,78.0,2,10,5.0,0.0
4223,47.0,1,21,6.0,0.0
4224,80.0,0,10,0.0,0.0
4225,80.0,12,10,5.0,0.0
4226,76.0,0,21,0.0,0.0
4227,71.0,0,21,1.0,0.0
4228,68.0,0,21,2.0,0.0
4229,40.0,0,21,3.0,0.0
4230,28.0,0,21,4.0,0.0
4231,76.0,11,10,5.0,0.0
4232,40.0,1,21,6.0,0.0
4233,71.0,12,10,5.0,0.0
4234,68.0,0,10,0.0,0.0
4235,64.0,0,10,1.0,0.0
4236,59.0,0,21,2.0,0.0
4237,52.0,0,21,3.0,0.0
4238,40.0,0,21,4.0,0.0
4239,76.0,11,10,5.0,0.0
4240,52.0,1,21,6.0,0.0
4241,69.0,0,10,0.0,0.0
4242,66.0,0,10,1.0,0.0
4243,75.0,12,10,5.0,0.0
4244,71.0,0,21,0.0,0.0
4245,68.0,0,21,1.0,0.0
4246,64.0,1,21,2.0,0.0
4247,76.0,11,10,5.0,0.0
4248,71.0,12,10,5.0,0.0
4249,76.0,0,21,0.0,0.0
4250,71.0,0,21,1.0,0.0
4251,68.0,1,21,2.0,0.0
4252,68.0,11,10,5.0,0.0
4253,64.0,12,10,5.0,0.0
4254,68.0,0,21,0.0,0.0
4255,64.0,0,21,1.0,0.0
4256,59.0,1,21,2.0,0.0
4257,71.0,11,10,5.0,0.0
4258,68.0,12,10,5.0,0.0
4259,71.0,0,21,0.0,0.0
4260,68.0,0,21,1.0,0.0
4261,64.0,1,21,2.0,0.0
4262,64.0,11,10,5.0,0.0
4263,59.0,12,10,5.0,0.0
4264,64.0,0,21,0.0,0.0
4265,59.0,0,21,1.0,0.0
4266,56.0,1,21,2.0,0.0
4267,68.0,11,10,5.0,0.0
4268,64.0,12,10,5.0,0.0
4269,68.0,0,21,0.0,0.0
4270,64.0,0,21,1.0,0.0
4271,59.0,1,21,2.0,0.0
4272,59.0,11,10,5.0,0.0
4273,56.0,23,10,5.0,0.0
4274,38.0,0,21,3.0,0.0
4275,26.0,0,21,4.0,0.0
4276,38.0,1,21,6.0,0.0
4277,71.0,12,10,5.0,0.0
4278,76.0,0,10,0.0,0.0
4279,68.0,0,10,1.0,0.0
4280,59.0,0,21,2.0,0.0
4281,50.0,0,21,3.0,0.0
4282,38.0,0,21,4.0,0.0
4283,80.0,11,10,5.0,0.0
4284,50.0,1,21,6.0,0.0
4285,78.0,0,10,0.0,0.0
4286,69.0,0,10,1.0,0.0
4287,78.0,12,10,5.0,0.0
4288,80.0,0,21,0.0,0.0
4289,71.0,0,21,1.0,0.0
4290,64.0,1,21,2.0,0.0
4291,80.0,11,10,5.0,0.0
4292,76.0,12,10,5.0,0.0
4293,83.0,0,21,0.0,0.0
4294,76.0,0,21,1.0,0.0
4295,68.0,1,21,2.0,0.0
4296,71.0,11,10,5.0,0.0
4297,68.0,12,10,5.0,0.0
4298,76.0,0,21,0.0,0.0
4299,68.0,0,21,1.0,0.0
4300,71.0,1,21,2.0,0.0
4301,76.0,11,10,5.0,0.0
4302,71.0,12,10,5.0,0.0
4303,80.0,0,21,0.0,0.0
4304,71.0,0,21,1.0,0.0
4305,76.0,1,21,2.0,0.0
4306,68.0,11,10,5.0,0.0
4307,64.0,12,10,5.0,0.0
4308,71.0,0,21,0.0,0.0
4309,64.0,0,21,1.0,0.0
4310,68.0,1,21,2.0,0.0
4311,71.0,11,10,5.0,0.0
4312,68.0,12,10,5.0,0.0
4313,76.0,0,21,0.0,0.0
4314,68.0,0,21,1.0,0.0
4315,71.0,1,21,2.0,0.0
4316,64.0,11,10,5.0,0.0
4317,59.0,23,10,5.0,0.0
4318,49.0,0,21,3.0,0.0
4319,37.0,0,21,4.0,0.0
4320,49.0,1,21,6.0,0.0
4321,76.0,12,10,5.0,0.0
4322,81.0,0,10,0.0,0.0
4323,76.0,0,10,1.0,0.0
4324,73.0,0,10,2.0,0.0
4325,61.0,0,21,3.0,0.0
4326,49.0,0,21,4.0,0.0
4327,81.0,11,10,5.0,0.0
4328,61.0,1,21,6.0,0.0
4329,80.0,0,10,0.0,0.0
4330,74.0,0,10,1.0,0.0
4331,71.0,0,10,2.0,0.0
4332,80.0,12,10,5.0,0.0
4333,81.0,0,21,0.0,0.0
4334,76.0,0,21,1.0,0.0
4335,73.0,1,21,2.0,0.0
4336,81.0,11,10,5.0,0.0
4337,76.0,12,10,5.0,0.0
4338,76.0,0,21,0.0,0.0
4339,73.0,0,21,1.0,0.0
4340,69.0,1,21,2.0,0.0
4341,73.0,11,10,5.0,0.0
4342,69.0,12,10,5.0,0.0
4343,73.0,0,21,0.0,0.0
4344,69.0,0,21,1.0,0.0
4345,64.0,1,21,2.0,0.0
4346,76.0,11,10,5.0,0.0
4347,73.0,12,10,5.0,0.0
4348,76.0,0,21,0.0,0.0
4349,73.0,0,21,1.0,0.0
4350,69.0,1,21,2.0,0.0
4351,69.0,11,10,5.0,0.0
4352,64.0,12,10,5.0,0.0
4353,69.0,0,21,0.0,0.0
4354,64.0,0,21,1.0,0.0
4355,61.0,1,21,2.0,0.0
4356,73.0,11,10,5.0,0.0
4357,69.0,12,10,5.0,0.0
4358,73.0,0,21,0.0,0.0
4359,69.0,0,21,1.0,0.0
4360,64.0,1,21,2.0,0.0
4361,64.0,11,10,5.0,0.0
4362,61.0,23,10,5.0,0.0
4363,76.0,0,21,0.0,0.0
4364,73.0,0,21,1.0,0.0
4365,69.0,0,21,2.0,0.0
4366,45.0,0,21,3.0,0.0
4367,33.0,0,21,4.0,0.0
4368,45.0,1,21,6.0,0.0
4369,76.0,12,10,5.0,0.0
4370,79.0,0,10,0.0,0.0
4371,76.0,0,10,1.0,0.0
4372,61.0,0,21,2.0,0.0
4373,57.0,0,21,3.0,0.0
4374,45.0,0,21,4.0,0.0
4375,79.0,11,10,5.0,0.0
4376,57.0,1,21,6.0,0.0
4377,78.0,0,10,0.0,0.0
4378,74.0,0,10,1.0,0.0
4379,78.0,12,10,5.0,0.0
4380,79.0,0,21,0.0,0.0
4381,76.0,0,21,1.0,0.0
4382,57.0,1,21,2.0,0.0
4383,79.0,11,10,5.0,0.0
4384,76.0,12,10,5.0,0.0
4385,76.0,0,21,0.0,0.0
4386,73.0,0,21,1.0,0.0
4387,61.0,1,21,2.0,0.0
4388,73.0,11,10,5.0,0.0
4389,69.0,12,10,5.0,0.0
4390,73.0,0,21,0.0,0.0
4391,69.0,0,21,1.0,0.0
4392,64.0,1,21,2.0,0.0
4393,76.0,11,10,5.0,0.0
4394,73.0,12,10,5.0,0.0
4395,76.0,0,21,0.0,0.0
4396,73.0,0,21,1.0,0.0
4397,69.0,1,21,2.0,0.0
4398,69.0,11,10,5.0,0.0
4399,64.0,12,10,5.0,0.0
4400,69.0,0,21,0.0,0.0
4401,64.0,0,21,1.0,0.0
4402,61.0,1,21,2.0,0.0
4403,73.0,11,10,5.0,0.0
4404,69.0,12,10,5.0,0.0
4405,73.0,0,21,0.0,0.0
4406,69.0,0,21,1.0,0.0
4407,64.0,1,21,2.0,0.0
4408,64.0,11,10,5.0,0.0
4409,61.0,23,10,5.0,0.0
4410,78.0,0,21,0.0,0.0
4411,66.0,0,21,1.0,0.0
4412,57.0,0,21,2.0,0.0
4413,50.0,0,21,3.0,0.0
4414,38.0,0,21,4.0,0.0
4415,78.0,0,21,5.0,0.0
4416,50.0,13,21,6.0,0.0
4417,71.0,0,48,0.0,0.0
4418,68.0,0,10,1.0,0.0
4419,59.0,11,10,2.0,0.0
4420,62.0,0,21,3.0,0.0
4421,50.0,0,21,4.0,0.0
4422,71.0,4,48,5.0,0.0
4423,62.0,1,21,6.0,0.0
4424,69.0,0,10,1.0,0.0
4425,61.0,23,10,2.0,0.0
4426,71.0,0,21,1.0,0.0
4427,62.0,0,21,2.0,0.0
4428,56.0,0,21,3.0,0.0
4429,44.0,0,21,4.0,0.0
4430,56.0,3,21,6.0,0.0
4431,73.0,0,12,0.0,0.0
4432,68.0,0,21,1.0,0.0
4433,59.0,0,21,2.0,0.0
4434,59.0,0,21,3.0,0.0
4435,47.0,0,21,4.0,0.0
4436,73.0,4,4,5.0,0.0
4437,59.0,1,21,6.0,0.0
4438,71.0,4,4,5.0,0.0
4439,73.0,9,4,5.0,0.0
4440,74.0,0,10,0.0,0.0
4441,74.0,23,10,5.0,0.0
4442,76.0,0,21,0.0,0.0
4443,64.0,0,21,1.0,0.0
4444,56.0,0,21,2.0,0.0
4445,49.0,0,21,3.0,0.0
4446,37.0,0,21,4.0,0.0
4447,76.0,0,21,5.0,0.0
4448,49.0,13,21,6.0,0.0
4449,69.0,0,48,0.0,0.0
4450,66.0,0,10,1.0,0.0
4451,57.0,11,10,2.0,0.0
4452,61.0,0,21,3.0,0.0
4453,49.0,0,21,4.0,0.0
4454,69.0,4,48,5.0,0.0
4455,61.0,1,21,6.0,0.0
4456,68.0,0,10,1.0,0.0
4457,59.0,23,10,2.0,0.0
4458,69.0,0,21,1.0,0.0
4459,61.0,0,21,2.0,0.0
4460,54.0,0,21,3.0,0.0
4461,42.0,0,21,4.0,0.0
4462,54.0,3,21,6.0,0.0
4463,71.0,0,12,0.0,0.0
4464,66.0,0,21,1.0,0.0
4465,57.0,0,21,2.0,0.0
4466,57.0,0,21,3.0,0.0
4467,45.0,0,21,4.0,0.0
4468,71.0,4,4,5.0,0.0
4469,57.0,1,21,6.0,0.0
4470,69.0,4,4,5.0,0.0
4471,71.0,9,4,5.0,0.0
4472,73.0,0,10,0.0,0.0
4473,73.0,12,10,5.0,0.0
4474,74.0,0,10,0.0,0.0
4475,62.0,0,21,1.0,0.0
4476,54.0,0,21,2.0,0.0
4477,47.0,0,21,3.0,0.0
4478,35.0,0,21,4.0,0.0
4479,74.0,11,10,5.0,0.0
4480,47.0,1,21,6.0,0.0
4481,73.0,0,10,0.0,0.0
4482,73.0,12,10,5.0,0.0
4483,74.0,0,10,0.0,0.0
4484,66.0,0,21,1.0,0.0
4485,59.0,3,42,2.0,0.0
4486,59.0,0,21,3.0,0.0
4487,47.0,0,21,4.0,0.0
4488,74.0,11,10,5.0,0.0
4489,59.0,1,21,6.0,0.0
4490,76.0,0,10,0.0,0.0
4491,76.0,12,10,5.0,0.0
4492,74.0,0,10,0.0,0.0
4493,68.0,0,21,1.0,0.0
4494,52.0,0,21,3.0,0.0
4495,40.0,0,21,4.0,0.0
4496,74.0,8,10,5.0,0.0
4497,52.0,1,21,6.0,0.0
4498,78.0,0,10,0.0,0.0
4499,78.0,12,10,5.0,0.0
4500,76.0,0,10,0.0,0.0
4501,71.0,3,42,1.0,0.0
4502,64.0,0,21,2.0,0.0
4503,56.0,0,21,3.0,0.0
4504,44.0,0,21,4.0,0.0
4505,76.0,11,10,5.0,0.0
4506,56.0,1,21,6.0,0.0
4507,74.0,0,10,0.0,0.0
4508,74.0,12,10,5.0,0.0
4509,73.0,0,10,0.0,0.0
4510,64.0,0,21,2.0,0.0
4511,45.0,0,21,3.0,0.0
4512,33.0,0,21,4.0,0.0
4513,73.0,8,10,5.0,0.0
4514,45.0,1,21,6.0,0.0
4515,71.0,0,10,0.0,0.0
4516,71.0,12,10,5.0,0.0
4517,73.0,0,10,0.0,0.0
4518,64.0,0,21,1.0,0.0
4519,61.0,0,21,2.0,0.0
4520,57.0,0,21,3.0,0.0
4521,45.0,0,21,4.0,0.0
4522,73.0,11,10,5.0,0.0
4523,57.0,1,21,6.0,0.0
4524,74.0,0,10,0.0,0.0
4525,74.0,12,10,5.0,0.0
4526,73.0,0,10,0.0,0.0
4527,69.0,6,63,1.0,0.0
4528,57.0,0,21,2.0,0.0
4529,54.0,0,21,3.0,0.0
4530,42.0,0,21,4.0,0.0
4531,73.0,11,10,5.0,0.0
4532,54.0,1,21,6.0,0.0
4533,76.0,0,10,0.0,0.0
4534,76.0,12,10,5.0,0.0
4535,74.0,0,10,0.0,0.0
4536,64.0,0,21,2.0,0.0
4537,49.0,0,21,3.0,0.0
4538,37.0,0,21,4.0,0.0
4539,74.0,11,10,5.0,0.0
4540,49.0,1,21,6.0,0.0
4541,73.0,0,10,0.0,0.0
4542,73.0,12,10,5.0,0.0
4543,71.0,0,10,0.0,0.0
4544,66.0,3,42,2.0,0.0
4545,51.0,0,21,3.0,0.0
4546,39.0,0,21,4.0,0.0
4547,71.0,5,10,5.0,0.0
4548,51.0,1,21,6.0,0.0
4549,69.0,0,10,0.0,0.0
4550,69.0,12,10,5.0,0.0
4551,71.0,0,10,0.0,0.0
4552,69.0,0,10,1.0,0.0
4553,39.0,0,21,3.0,0.0
4554,27.0,0,21,4.0,0.0
4555,71.0,8,10,5.0,0.0
4556,39.0,1,21,6.0,0.0
4557,73.0,0,10,0.0,0.0
4558,68.0,0,10,1.0,0.0
4559,73.0,12,10,5.0,0.0
4560,71.0,0,10,0.0,0.0
4561,69.0,0,21,1.0,0.0
4562,39.0,0,21,3.0,0.0
4563,27.0,0,21,4.0,0.0
4564,71.0,11,10,5.0,0.0
4565,39.0,1,21,6.0,0.0
4566,73.0,0,10,0.0,0.0
4567,73.0,12,10,5.0,0.0
4568,69.0,0,10,0.0,0.0
4569,69.0,3,42,1.0,0.0
4570,66.0,0,21,2.0,0.0
4571,51.0,0,21,3.0,0.0
4572,39.0,0,21,4.0,0.0
4573,69.0,11,10,5.0,0.0
4574,51.0,1,21,6.0,0.0
4575,71.0,0,10,0.0,0.0
4576,71.0,12,10,5.0,0.0
4577,73.0,0,10,0.0,0.0
4578,64.0,3,42,2.0,0.0
4579,52.0,0,21,3.0,0.0
4580,40.0,0,21,4.0,0.0
4581,73.0,8,10,5.0,0.0
4582,52.0,1,21,6.0,0.0
4583,71.0,0,10,0.0,0.0
4584,71.0,12,10,5.0,0.0
4585,73.0,0,10,0.0,0.0
4586,69.0,0,10,1.0,0.0
4587,40.0,0,21,3.0,0.0
4588,28.0,0,21,4.0,0.0
4589,73.0,8,10,5.0,0.0
4590,40.0,1,21,6.0,0.0
4591,74.0,0,10,0.0,0.0
4592,68.0,0,10,1.0,0.0
4593,74.0,12,10,5.0,0.0
4594,73.0,0,10,0.0,0.0
4595,69.0,0,21,1.0,0.0
4596,40.0,0,21,3.0,0.0
4597,28.0,0,21,4.0,0.0
4598,73.0,11,10,5.0,0.0
4599,40.0,1,21,6.0,0.0
4600,74.0,0,10,0.0,0.0
4601,74.0,12,10,5.0,0.0
4602,71.0,0,10,0.0,0.0
4603,69.0,3,42,1.0,0.0
4604,64.0,0,21,2.0,0.0
4605,52.0,0,21,3.0,0.0
4606,40.0,0,21,4.0,0.0
4607,71.0,11,10,5.0,0.0
4608,52.0,1,21,6.0,0.0
4609,73.0,0,10,0.0,0.0
4610,73.0,12,10,5.0,0.0
4611,74.0,0,10,0.0,0.0
4612,62.0,3,42,2.0,0.0
4613,54.0,0,21,3.0,0.0
4614,42.0,0,21,4.0,0.0
4615,74.0,8,10,5.0,0.0
4616,54.0,1,21,6.0,0.0
4617,73.0,0,10,0.0,0.0
4618,73.0,12,10,5.0,0.0
4619,74.0,0,10,0.0,0.0
4620,69.0,0,10,1.0,0.0
4621,42.0,0,21,3.0,0.0
4622,30.0,0,21,4.0,0.0
4623,74.0,8,10,5.0,0.0
4624,42.0,1,21,6.0,0.0
4625,76.0,0,10,0.0,0.0
4626,68.0,0,10,1.0,0.0
4627,76.0,12,10,5.0,0.0
4628,74.0,0,10,0.0,0.0
4629,69.0,0,21,1.0,0.0
4630,42.0,0,21,3.0,0.0
4631,30.0,0,21,4.0,0.0
4632,74.0,11,10,5.0,0.0
4633,42.0,1,21,6.0,0.0
4634,73.0,0,10,0.0,0.0
4635,73.0,12,10,5.0,0.0
4636,71.0,0,10,0.0,0.0
4637,69.0,3,42,1.0,0.0
4638,62.0,0,21,2.0,0.0
4639,54.0,0,21,3.0,0.0
4640,42.0,0,21,4.0,0.0
4641,71.0,11,10,5.0,0.0
4642,54.0,1,21,6.0,0.0
4643,69.0,0,10,0.0,0.0
4644,69.0,12,10,5.0,0.0
4645,76.0,0,21,0.0,0.0
4646,61.0,0,21,2.0,0.0
4647,49.0,0,10,3.0,0.0
4648,37.0,0,10,4.0,0.0
4649,76.0,1,21,5.0,0.0
4650,49.0,8,10,6.0,0.0
4651,47.0,0,10,3.0,0.0
4652,35.0,0,10,4.0,0.0
4653,47.0,12,10,6.0,0.0
4654,69.0,0,21,0.0,0.0
4655,64.0,0,21,1.0,0.0
4656,64.0,0,21,2.0,0.0
4657,49.0,0,10,3.0,0.0
4658,37.0,0,10,4.0,0.0
4659,69.0,1,21,5.0,0.0
4660,49.0,11,10,6.0,0.0
4661,50.0,0,10,3.0,0.0
4662,38.0,0,10,4.0,0.0
4663,50.0,23,10,6.0,0.0
4664,64.0,0,21,0.0,0.0
4665,61.0,0,21,1.0,0.0
4666,64.0,0,21,2.0,0.0
4667,52.0,0,21,3.0,0.0
4668,40.0,0,21,4.0,0.0
4669,64.0,0,21,5.0,0.0
4670,52.0,9,21,6.0,0.0
4671,68.0,0,21,0.0,0.0
4672,59.0,0,21,1.0,0.0
4673,64.0,0,21,2.0,0.0
4674,40.0,0,21,3.0,0.0
4675,28.0,0,21,4.0,0.0
4676,69.0,6,6,5.0,0.0
4677,62.0,0,21,5.0,0.0
4678,40.0,2,21,6.0,0.0
4679,68.0,6,6,5.0,0.0
4680,66.0,3,6,5.0,0.0
4681,68.0,49,5,5.0,0.0
4682,69.0,0,48,0.0,0.0
4683,61.0,0,48,1.0,0.0
4684,64.0,0,48,2.0,0.0
4685,45.0,0,48,3.0,0.0
4686,33.0,0,48,4.0,0.0
4687,69.0,0,48,5.0,0.0
4688,64.0,0,48,5.0,0.0
4689,61.0,0,48,5.0,0.0
4690,45.0,0,48,6.0,0.0
4691,33.0,336,48,6.0,0.0
