,note,step,duration,channel,velocity
0,64.0,0,104,1.0,76.0
1,64.0,0,104,0.0,76.0
2,64.0,0,104,11.0,76.0
3,65.0,0,104,0.0,76.0
4,65.0,0,104,11.0,76.0
5,65.0,120,104,1.0,76.0
6,67.0,0,224,1.0,76.0
7,67.0,0,224,0.0,76.0
8,67.0,120,224,11.0,76.0
9,64.0,240,104,12.0,76.0
10,48.0,0,104,2.0,76.0
11,48.0,0,104,14.0,76.0
12,48.0,0,119,15.0,76.0
13,64.0,0,119,15.0,76.0
14,67.0,0,119,15.0,76.0
15,60.0,0,119,15.0,76.0
16,65.0,0,104,12.0,76.0
17,50.0,0,104,2.0,76.0
18,50.0,120,104,14.0,76.0
19,55.0,0,224,13.0,76.0
20,69.0,0,119,15.0,76.0
21,62.0,0,119,15.0,76.0
22,65.0,0,119,15.0,76.0
23,50.0,0,119,15.0,76.0
24,72.0,0,464,0.0,76.0
25,52.0,0,224,14.0,76.0
26,60.0,0,224,13.0,76.0
27,52.0,0,224,2.0,76.0
28,67.0,0,224,12.0,76.0
29,72.0,0,464,1.0,76.0
30,72.0,0,464,11.0,76.0
31,72.0,0,239,15.0,76.0
32,52.0,0,239,15.0,76.0
33,64.0,120,239,15.0,76.0
34,67.0,0,239,15.0,76.0
35,67.0,0,224,0.0,76.0
36,67.0,0,224,11.0,76.0
37,62.0,0,224,13.0,76.0
38,67.0,0,224,1.0,76.0
39,59.0,240,224,12.0,76.0
40,55.0,0,224,2.0,76.0
41,55.0,0,224,14.0,76.0
42,74.0,0,239,15.0,76.0
43,55.0,0,239,15.0,76.0
44,67.0,0,239,15.0,76.0
45,71.0,0,239,15.0,76.0
46,64.0,0,104,11.0,76.0
47,64.0,0,104,0.0,76.0
48,60.0,0,104,12.0,76.0
49,64.0,0,104,1.0,76.0
50,64.0,0,224,13.0,76.0
51,59.0,120,104,12.0,76.0
52,60.0,240,224,14.0,76.0
53,62.0,0,104,0.0,76.0
54,62.0,0,104,1.0,76.0
55,62.0,0,104,11.0,76.0
56,60.0,0,224,2.0,76.0
57,76.0,0,239,15.0,76.0
58,60.0,0,239,15.0,76.0
59,79.0,0,239,15.0,76.0
60,72.0,0,239,15.0,76.0
61,67.0,0,104,13.0,76.0
62,64.0,0,104,0.0,76.0
63,64.0,0,104,1.0,76.0
64,60.0,120,104,12.0,76.0
65,64.0,0,104,11.0,76.0
66,55.0,0,224,14.0,76.0
67,65.0,0,104,1.0,76.0
68,65.0,0,104,13.0,76.0
69,62.0,0,104,12.0,76.0
70,65.0,0,104,11.0,76.0
71,55.0,0,224,2.0,76.0
72,65.0,120,104,0.0,76.0
73,74.0,0,239,15.0,76.0
74,55.0,0,239,15.0,76.0
75,71.0,0,239,15.0,76.0
76,67.0,0,239,15.0,76.0
77,64.0,0,224,13.0,76.0
78,48.0,0,224,14.0,76.0
79,67.0,0,224,1.0,76.0
80,48.0,0,224,2.0,76.0
81,67.0,0,224,0.0,76.0
82,67.0,0,224,11.0,76.0
83,64.0,120,224,12.0,76.0
84,48.0,0,239,15.0,76.0
85,64.0,0,239,15.0,76.0
86,60.0,0,239,15.0,76.0
87,67.0,0,239,15.0,76.0
88,69.0,0,104,0.0,76.0
89,69.0,0,104,11.0,76.0
90,69.0,0,104,1.0,76.0
91,60.0,0,224,13.0,76.0
92,71.0,0,104,11.0,76.0
93,53.0,0,224,2.0,76.0
94,71.0,120,104,0.0,76.0
95,71.0,0,104,1.0,76.0
96,53.0,0,224,14.0,76.0
97,65.0,240,224,12.0,76.0
98,72.0,0,239,15.0,76.0
99,65.0,0,239,15.0,76.0
100,53.0,0,239,15.0,76.0
101,69.0,0,239,15.0,76.0
102,72.0,0,104,0.0,76.0
103,72.0,0,104,1.0,76.0
104,72.0,0,104,11.0,76.0
105,74.0,120,104,0.0,76.0
106,60.0,0,224,13.0,76.0
107,52.0,0,224,14.0,76.0
108,67.0,0,224,12.0,76.0
109,74.0,0,104,1.0,76.0
110,74.0,0,104,11.0,76.0
111,52.0,0,224,2.0,76.0
112,67.0,0,239,15.0,76.0
113,64.0,120,239,15.0,76.0
114,52.0,0,239,15.0,76.0
115,72.0,0,239,15.0,76.0
116,76.0,120,104,0.0,76.0
117,76.0,0,104,1.0,76.0
118,76.0,0,104,11.0,76.0
119,77.0,120,104,1.0,76.0
120,50.0,0,224,14.0,76.0
121,50.0,0,224,2.0,76.0
122,77.0,0,104,11.0,76.0
123,77.0,0,104,0.0,76.0
124,65.0,0,224,13.0,76.0
125,71.0,0,224,12.0,76.0
126,65.0,0,239,15.0,76.0
127,50.0,0,239,15.0,76.0
128,69.0,0,239,15.0,76.0
129,62.0,0,239,15.0,76.0
130,52.0,0,224,14.0,76.0
131,72.0,0,224,12.0,76.0
132,79.0,0,224,11.0,76.0
133,52.0,0,224,2.0,76.0
134,79.0,0,224,1.0,76.0
135,79.0,0,224,0.0,76.0
136,64.0,0,224,13.0,76.0
137,67.0,120,239,15.0,76.0
138,52.0,0,239,15.0,76.0
139,72.0,0,239,15.0,76.0
140,64.0,0,239,15.0,76.0
141,60.0,0,224,13.0,76.0
142,81.0,240,224,11.0,76.0
143,81.0,0,224,1.0,76.0
144,72.0,0,224,12.0,76.0
145,53.0,0,224,2.0,76.0
146,81.0,0,224,0.0,76.0
147,53.0,0,224,14.0,76.0
148,65.0,0,239,15.0,76.0
149,69.0,0,239,15.0,76.0
150,53.0,0,239,15.0,76.0
151,72.0,0,239,15.0,76.0
152,74.0,0,104,11.0,76.0
153,74.0,0,104,0.0,76.0
154,74.0,0,104,1.0,76.0
155,71.0,0,224,12.0,76.0
156,55.0,0,224,14.0,76.0
157,72.0,120,104,1.0,76.0
158,72.0,0,104,0.0,76.0
159,55.0,0,224,2.0,76.0
160,72.0,0,104,11.0,76.0
161,67.0,240,224,13.0,76.0
162,71.0,0,239,15.0,76.0
163,67.0,0,239,15.0,76.0
164,74.0,0,239,15.0,76.0
165,55.0,0,239,15.0,76.0
166,74.0,0,104,0.0,76.0
167,74.0,0,104,1.0,76.0
168,74.0,0,104,11.0,76.0
169,57.0,0,224,14.0,76.0
170,57.0,0,224,2.0,76.0
171,76.0,0,104,11.0,76.0
172,76.0,120,104,1.0,76.0
173,72.0,0,224,12.0,76.0
174,66.0,0,224,13.0,76.0
175,76.0,0,104,0.0,76.0
176,72.0,0,239,15.0,76.0
177,69.0,0,239,15.0,76.0
178,76.0,120,239,15.0,76.0
179,57.0,0,239,15.0,76.0
180,74.0,0,224,11.0,76.0
181,74.0,0,224,0.0,76.0
182,59.0,0,224,14.0,76.0
183,74.0,0,224,12.0,76.0
184,74.0,0,224,1.0,76.0
185,59.0,120,224,2.0,76.0
186,67.0,0,224,13.0,76.0
187,71.0,0,239,15.0,76.0
188,59.0,0,239,15.0,76.0
189,79.0,0,239,15.0,76.0
190,74.0,0,239,15.0,76.0
191,76.0,0,104,0.0,76.0
192,76.0,0,104,1.0,76.0
193,76.0,0,104,11.0,76.0
194,67.0,240,104,13.0,76.0
195,60.0,0,224,2.0,76.0
196,69.0,0,104,13.0,76.0
197,78.0,120,104,11.0,76.0
198,78.0,0,104,0.0,76.0
199,78.0,0,104,1.0,76.0
200,60.0,0,224,14.0,76.0
201,72.0,0,224,12.0,76.0
202,76.0,0,239,15.0,76.0
203,60.0,0,239,15.0,76.0
204,72.0,0,239,15.0,76.0
205,79.0,0,239,15.0,76.0
206,59.0,0,224,14.0,76.0
207,59.0,0,224,2.0,76.0
208,79.0,0,224,11.0,76.0
209,79.0,0,224,1.0,76.0
210,79.0,0,224,0.0,76.0
211,74.0,0,239,15.0,76.0
212,71.0,0,239,15.0,76.0
213,74.0,0,239,12.0,76.0
214,79.0,0,239,15.0,76.0
215,59.0,0,239,15.0,76.0
216,71.0,120,239,13.0,76.0
217,71.0,240,104,11.0,76.0
218,71.0,0,104,0.0,76.0
219,71.0,0,104,1.0,76.0
220,72.0,0,104,0.0,76.0
221,72.0,120,104,1.0,76.0
222,57.0,0,224,14.0,76.0
223,72.0,0,104,11.0,76.0
224,57.0,0,224,2.0,76.0
225,69.0,0,239,15.0,76.0
226,72.0,0,239,15.0,76.0
227,57.0,0,239,15.0,76.0
228,76.0,0,239,15.0,76.0
229,74.0,0,224,1.0,76.0
230,55.0,0,224,2.0,76.0
231,74.0,0,224,0.0,76.0
232,55.0,0,224,14.0,76.0
233,74.0,120,224,11.0,76.0
234,74.0,0,239,15.0,76.0
235,67.0,0,239,15.0,76.0
236,55.0,0,239,15.0,76.0
237,71.0,0,239,15.0,76.0
238,76.0,0,104,11.0,76.0
239,76.0,0,104,1.0,76.0
240,76.0,240,104,0.0,76.0
241,67.0,0,104,12.0,76.0
242,78.0,120,104,0.0,76.0
243,54.0,0,224,2.0,76.0
244,54.0,0,224,14.0,76.0
245,78.0,0,104,1.0,76.0
246,69.0,0,104,12.0,76.0
247,59.0,0,224,13.0,76.0
248,78.0,0,104,11.0,76.0
249,66.0,0,239,15.0,76.0
250,72.0,0,239,15.0,76.0
251,69.0,0,239,15.0,76.0
252,54.0,0,239,15.0,76.0
253,52.0,0,224,14.0,76.0
254,79.0,0,224,0.0,76.0
255,52.0,120,224,2.0,76.0
256,79.0,0,224,1.0,76.0
257,79.0,0,224,11.0,76.0
258,71.0,0,239,12.0,76.0
259,64.0,0,239,13.0,76.0
260,71.0,0,239,15.0,76.0
261,52.0,0,239,15.0,76.0
262,67.0,0,239,15.0,76.0
263,64.0,0,239,15.0,76.0
264,69.0,0,104,0.0,76.0
265,69.0,0,104,1.0,76.0
266,69.0,0,104,11.0,76.0
267,71.0,120,104,0.0,76.0
268,50.0,0,224,14.0,76.0
269,71.0,0,104,11.0,76.0
270,50.0,0,224,2.0,76.0
271,71.0,0,104,1.0,76.0
272,65.0,0,239,15.0,76.0
273,69.0,0,239,15.0,76.0
274,50.0,240,239,15.0,76.0
275,62.0,0,239,15.0,76.0
276,72.0,0,224,1.0,76.0
277,72.0,0,224,0.0,76.0
278,72.0,0,224,11.0,76.0
279,52.0,0,224,14.0,76.0
280,52.0,0,224,2.0,76.0
281,52.0,0,239,15.0,76.0
282,71.0,0,239,15.0,76.0
283,67.0,0,239,15.0,76.0
284,64.0,120,239,15.0,76.0
285,74.0,240,224,0.0,76.0
286,74.0,0,224,1.0,76.0
287,74.0,0,224,11.0,76.0
288,69.0,0,224,12.0,76.0
289,54.0,0,224,14.0,76.0
290,57.0,0,224,13.0,76.0
291,54.0,0,224,2.0,76.0
292,69.0,0,239,15.0,76.0
293,66.0,0,239,15.0,76.0
294,54.0,0,239,15.0,76.0
295,74.0,0,239,15.0,76.0
296,55.0,0,224,2.0,76.0
297,67.0,0,224,12.0,76.0
298,62.0,0,224,13.0,76.0
299,55.0,0,224,14.0,76.0
300,74.0,0,239,15.0,76.0
301,55.0,0,239,15.0,76.0
302,71.0,240,239,15.0,76.0
303,67.0,0,239,15.0,76.0
304,71.0,0,344,1.0,76.0
305,71.0,0,344,11.0,76.0
306,71.0,0,344,0.0,76.0
307,69.0,120,104,1.0,76.0
308,67.0,0,224,12.0,76.0
309,69.0,0,104,11.0,76.0
310,64.0,0,224,13.0,76.0
311,48.0,0,224,14.0,76.0
312,69.0,0,104,0.0,76.0
313,48.0,0,224,2.0,76.0
314,69.0,240,239,15.0,76.0
315,60.0,0,239,15.0,76.0
316,48.0,0,239,15.0,76.0
317,67.0,0,239,15.0,76.0
318,64.0,0,239,15.0,76.0
319,50.0,0,224,2.0,76.0
320,67.0,0,224,12.0,76.0
321,50.0,0,224,14.0,76.0
322,62.0,0,224,13.0,76.0
323,62.0,0,239,15.0,76.0
324,69.0,0,239,15.0,76.0
325,50.0,0,239,15.0,76.0
326,67.0,0,239,15.0,76.0
327,69.0,120,344,0.0,76.0
328,69.0,0,344,11.0,76.0
329,69.0,0,344,1.0,76.0
330,38.0,0,224,2.0,76.0
331,38.0,0,224,14.0,76.0
332,66.0,240,224,12.0,76.0
333,67.0,0,104,1.0,76.0
334,67.0,120,104,11.0,76.0
335,67.0,0,104,0.0,76.0
336,60.0,0,224,13.0,76.0
337,38.0,0,239,15.0,76.0
338,50.0,0,239,15.0,76.0
339,54.0,0,239,15.0,76.0
340,57.0,0,239,15.0,76.0
341,43.0,0,224,2.0,76.0
342,43.0,0,224,14.0,76.0
343,43.0,0,239,15.0,76.0
344,59.0,0,239,15.0,76.0
345,62.0,0,239,15.0,76.0
346,55.0,120,239,15.0,76.0
347,50.0,0,224,2.0,76.0
348,50.0,0,224,14.0,76.0
349,50.0,0,239,15.0,76.0
350,62.0,0,239,15.0,76.0
351,69.0,240,239,15.0,76.0
352,65.0,0,239,15.0,76.0
353,67.0,0,704,1.0,76.0
354,67.0,0,704,0.0,76.0
355,67.0,0,704,11.0,76.0
356,74.0,240,239,15.0,76.0
357,59.0,0,719,13.0,76.0
358,67.0,0,239,15.0,76.0
359,55.0,0,239,14.0,76.0
360,62.0,0,719,12.0,76.0
361,55.0,0,239,15.0,76.0
362,71.0,0,239,15.0,76.0
363,55.0,0,239,2.0,76.0
364,64.0,240,104,0.0,76.0
365,64.0,0,104,1.0,76.0
366,64.0,0,104,11.0,76.0
367,65.0,120,104,11.0,76.0
368,65.0,0,104,1.0,76.0
369,65.0,0,104,0.0,76.0
370,67.0,0,224,11.0,76.0
371,67.0,120,224,1.0,76.0
372,67.0,0,224,0.0,76.0
373,48.0,0,104,2.0,76.0
374,48.0,240,104,14.0,76.0
375,64.0,0,104,12.0,76.0
376,60.0,0,119,15.0,76.0
377,67.0,0,119,15.0,76.0
378,64.0,0,119,15.0,76.0
379,48.0,0,119,15.0,76.0
380,50.0,0,104,2.0,76.0
381,55.0,0,224,13.0,76.0
382,50.0,0,104,14.0,76.0
383,65.0,0,104,12.0,76.0
384,69.0,0,119,15.0,76.0
385,65.0,0,119,15.0,76.0
386,62.0,120,119,15.0,76.0
387,50.0,0,119,15.0,76.0
388,72.0,0,464,11.0,76.0
389,72.0,0,464,1.0,76.0
390,60.0,0,224,13.0,76.0
391,67.0,0,224,12.0,76.0
392,72.0,0,464,0.0,76.0
393,52.0,0,224,2.0,76.0
394,52.0,0,224,14.0,76.0
395,67.0,0,239,15.0,76.0
396,72.0,0,239,15.0,76.0
397,64.0,0,239,15.0,76.0
398,52.0,120,239,15.0,76.0
399,55.0,0,224,2.0,76.0
400,59.0,0,224,12.0,76.0
401,62.0,0,224,13.0,76.0
402,67.0,240,224,1.0,76.0
403,55.0,0,224,14.0,76.0
404,67.0,0,224,0.0,76.0
405,67.0,0,224,11.0,76.0
406,74.0,0,239,15.0,76.0
407,67.0,0,239,15.0,76.0
408,71.0,0,239,15.0,76.0
409,55.0,0,239,15.0,76.0
410,64.0,0,104,1.0,76.0
411,60.0,240,104,12.0,76.0
412,64.0,0,104,11.0,76.0
413,64.0,0,104,0.0,76.0
414,59.0,120,104,12.0,76.0
415,60.0,0,224,2.0,76.0
416,62.0,0,104,11.0,76.0
417,62.0,0,104,0.0,76.0
418,64.0,0,224,13.0,76.0
419,60.0,0,224,14.0,76.0
420,62.0,0,104,1.0,76.0
421,76.0,0,239,15.0,76.0
422,60.0,0,239,15.0,76.0
423,72.0,0,239,15.0,76.0
424,79.0,0,239,15.0,76.0
425,64.0,0,104,11.0,76.0
426,64.0,0,104,0.0,76.0
427,64.0,0,104,1.0,76.0
428,67.0,120,104,13.0,76.0
429,60.0,0,104,12.0,76.0
430,62.0,0,104,12.0,76.0
431,55.0,0,224,2.0,76.0
432,65.0,0,104,1.0,76.0
433,65.0,0,104,11.0,76.0
434,55.0,0,224,14.0,76.0
435,65.0,120,104,0.0,76.0
436,65.0,0,104,13.0,76.0
437,67.0,0,239,15.0,76.0
438,55.0,0,239,15.0,76.0
439,71.0,0,239,15.0,76.0
440,74.0,0,239,15.0,76.0
441,67.0,0,224,11.0,76.0
442,64.0,0,224,12.0,76.0
443,67.0,0,224,0.0,76.0
444,64.0,0,224,13.0,76.0
445,48.0,0,224,14.0,76.0
446,48.0,0,224,2.0,76.0
447,67.0,0,224,1.0,76.0
448,48.0,120,239,15.0,76.0
449,64.0,0,239,15.0,76.0
450,60.0,0,239,15.0,76.0
451,67.0,0,239,15.0,76.0
452,69.0,0,104,0.0,76.0
453,69.0,0,104,11.0,76.0
454,69.0,0,104,1.0,76.0
455,65.0,240,224,12.0,76.0
456,53.0,0,224,2.0,76.0
457,71.0,120,104,1.0,76.0
458,60.0,0,224,13.0,76.0
459,71.0,0,104,0.0,76.0
460,71.0,0,104,11.0,76.0
461,53.0,0,224,14.0,76.0
462,53.0,0,239,15.0,76.0
463,72.0,0,239,15.0,76.0
464,65.0,0,239,15.0,76.0
465,69.0,0,239,15.0,76.0
466,72.0,0,104,0.0,76.0
467,72.0,0,104,1.0,76.0
468,72.0,0,104,11.0,76.0
469,52.0,0,224,2.0,76.0
470,74.0,0,104,1.0,76.0
471,67.0,120,224,12.0,76.0
472,74.0,0,104,0.0,76.0
473,52.0,0,224,14.0,76.0
474,74.0,120,104,11.0,76.0
475,60.0,0,224,13.0,76.0
476,67.0,0,239,15.0,76.0
477,52.0,0,239,15.0,76.0
478,72.0,0,239,15.0,76.0
479,64.0,0,239,15.0,76.0
480,76.0,0,104,11.0,76.0
481,76.0,0,104,1.0,76.0
482,76.0,0,104,0.0,76.0
483,77.0,120,104,11.0,76.0
484,77.0,0,104,0.0,76.0
485,50.0,0,224,2.0,76.0
486,77.0,0,104,1.0,76.0
487,65.0,0,224,13.0,76.0
488,71.0,0,224,12.0,76.0
489,50.0,120,224,14.0,76.0
490,62.0,0,239,15.0,76.0
491,65.0,0,239,15.0,76.0
492,50.0,0,239,15.0,76.0
493,69.0,0,239,15.0,76.0
494,52.0,0,224,2.0,76.0
495,79.0,0,224,11.0,76.0
496,79.0,0,224,0.0,76.0
497,79.0,0,224,1.0,76.0
498,64.0,0,224,13.0,76.0
499,72.0,0,224,12.0,76.0
500,52.0,120,224,14.0,76.0
501,64.0,0,239,15.0,76.0
502,67.0,0,239,15.0,76.0
503,52.0,0,239,15.0,76.0
504,72.0,0,239,15.0,76.0
505,60.0,0,224,13.0,76.0
506,53.0,0,224,2.0,76.0
507,53.0,0,224,14.0,76.0
508,81.0,0,224,11.0,76.0
509,72.0,0,224,12.0,76.0
510,81.0,0,224,0.0,76.0
511,81.0,240,224,1.0,76.0
512,53.0,0,239,15.0,76.0
513,72.0,0,239,15.0,76.0
514,69.0,0,239,15.0,76.0
515,65.0,0,239,15.0,76.0
516,74.0,240,104,0.0,76.0
517,74.0,0,104,1.0,76.0
518,74.0,0,104,11.0,76.0
519,55.0,0,224,14.0,76.0
520,72.0,120,104,0.0,76.0
521,72.0,0,104,11.0,76.0
522,72.0,0,104,1.0,76.0
523,67.0,0,224,13.0,76.0
524,55.0,0,224,2.0,76.0
525,71.0,0,224,12.0,76.0
526,55.0,0,239,15.0,76.0
527,71.0,0,239,15.0,76.0
528,74.0,0,239,15.0,76.0
529,67.0,0,239,15.0,76.0
530,74.0,0,104,0.0,76.0
531,74.0,0,104,11.0,76.0
532,74.0,0,104,1.0,76.0
533,66.0,0,224,13.0,76.0
534,76.0,0,104,1.0,76.0
535,76.0,120,104,11.0,76.0
536,57.0,0,224,14.0,76.0
537,72.0,0,224,12.0,76.0
538,57.0,0,224,2.0,76.0
539,76.0,0,104,0.0,76.0
540,57.0,120,239,15.0,76.0
541,69.0,0,239,15.0,76.0
542,72.0,0,239,15.0,76.0
543,76.0,0,239,15.0,76.0
544,59.0,120,224,14.0,76.0
545,59.0,0,224,2.0,76.0
546,74.0,0,224,11.0,76.0
547,67.0,0,224,13.0,76.0
548,74.0,0,224,1.0,76.0
549,74.0,0,224,0.0,76.0
550,74.0,0,224,12.0,76.0
551,79.0,0,239,15.0,76.0
552,59.0,0,239,15.0,76.0
553,74.0,0,239,15.0,76.0
554,71.0,0,239,15.0,76.0
555,76.0,0,104,1.0,76.0
556,67.0,0,104,13.0,76.0
557,76.0,0,104,11.0,76.0
558,76.0,0,104,0.0,76.0
559,60.0,0,224,14.0,76.0
560,78.0,0,104,11.0,76.0
561,69.0,0,104,13.0,76.0
562,60.0,240,224,2.0,76.0
563,78.0,120,104,0.0,76.0
564,72.0,0,224,12.0,76.0
565,78.0,0,104,1.0,76.0
566,60.0,0,239,15.0,76.0
567,79.0,0,239,15.0,76.0
568,72.0,0,239,15.0,76.0
569,76.0,0,239,15.0,76.0
570,79.0,0,224,0.0,76.0
571,79.0,0,224,11.0,76.0
572,59.0,0,224,14.0,76.0
573,59.0,0,224,2.0,76.0
574,79.0,120,224,1.0,76.0
575,74.0,0,239,15.0,76.0
576,71.0,0,239,15.0,76.0
577,59.0,0,239,15.0,76.0
578,71.0,0,239,13.0,76.0
579,79.0,0,239,15.0,76.0
580,74.0,0,239,12.0,76.0
581,71.0,0,104,11.0,76.0
582,71.0,0,104,0.0,76.0
583,71.0,0,104,1.0,76.0
584,72.0,0,104,0.0,76.0
585,57.0,240,224,2.0,76.0
586,57.0,0,224,14.0,76.0
587,72.0,0,104,1.0,76.0
588,72.0,120,104,11.0,76.0
589,72.0,0,239,15.0,76.0
590,69.0,0,239,15.0,76.0
591,76.0,0,239,15.0,76.0
592,57.0,0,239,15.0,76.0
593,55.0,0,224,14.0,76.0
594,74.0,120,224,11.0,76.0
595,74.0,0,224,0.0,76.0
596,74.0,0,224,1.0,76.0
597,55.0,0,224,2.0,76.0
598,55.0,0,239,15.0,76.0
599,74.0,0,239,15.0,76.0
600,71.0,0,239,15.0,76.0
601,67.0,0,239,15.0,76.0
602,76.0,0,104,0.0,76.0
603,76.0,0,104,1.0,76.0
604,76.0,0,104,11.0,76.0
605,67.0,0,104,12.0,76.0
606,59.0,240,224,13.0,76.0
607,54.0,0,224,2.0,76.0
608,78.0,0,104,11.0,76.0
609,69.0,120,104,12.0,76.0
610,78.0,0,104,0.0,76.0
611,78.0,0,104,1.0,76.0
612,54.0,0,224,14.0,76.0
613,69.0,0,239,15.0,76.0
614,66.0,0,239,15.0,76.0
615,72.0,0,239,15.0,76.0
616,54.0,0,239,15.0,76.0
617,52.0,0,224,14.0,76.0
618,79.0,0,224,11.0,76.0
619,79.0,0,224,0.0,76.0
620,52.0,0,224,2.0,76.0
621,79.0,0,224,1.0,76.0
622,52.0,0,239,15.0,76.0
623,71.0,0,239,15.0,76.0
624,71.0,0,239,12.0,76.0
625,64.0,0,239,13.0,76.0
626,67.0,0,239,15.0,76.0
627,64.0,120,239,15.0,76.0
628,69.0,0,104,11.0,76.0
629,69.0,0,104,1.0,76.0
630,69.0,0,104,0.0,76.0
631,71.0,0,104,1.0,76.0
632,71.0,120,104,11.0,76.0
633,50.0,0,224,14.0,76.0
634,50.0,0,224,2.0,76.0
635,71.0,0,104,0.0,76.0
636,65.0,0,239,15.0,76.0
637,50.0,0,239,15.0,76.0
638,62.0,0,239,15.0,76.0
639,69.0,240,239,15.0,76.0
640,72.0,0,224,0.0,76.0
641,72.0,0,224,1.0,76.0
642,72.0,0,224,11.0,76.0
643,52.0,0,224,14.0,76.0
644,52.0,0,224,2.0,76.0
645,64.0,120,239,15.0,76.0
646,71.0,0,239,15.0,76.0
647,52.0,0,239,15.0,76.0
648,67.0,0,239,15.0,76.0
649,74.0,0,224,1.0,76.0
650,57.0,0,224,13.0,76.0
651,54.0,0,224,14.0,76.0
652,54.0,0,224,2.0,76.0
653,74.0,0,224,11.0,76.0
654,74.0,0,224,0.0,76.0
655,69.0,240,224,12.0,76.0
656,54.0,0,239,15.0,76.0
657,66.0,0,239,15.0,76.0
658,69.0,0,239,15.0,76.0
659,74.0,0,239,15.0,76.0
660,67.0,0,224,12.0,76.0
661,55.0,0,224,14.0,76.0
662,62.0,0,224,13.0,76.0
663,55.0,0,224,2.0,76.0
664,71.0,0,239,15.0,76.0
665,55.0,0,239,15.0,76.0
666,74.0,0,239,15.0,76.0
667,67.0,0,239,15.0,76.0
668,71.0,0,344,0.0,76.0
669,71.0,0,344,11.0,76.0
670,71.0,240,344,1.0,76.0
671,69.0,0,104,0.0,76.0
672,48.0,0,224,14.0,76.0
673,64.0,0,224,13.0,76.0
674,69.0,0,104,1.0,76.0
675,69.0,120,104,11.0,76.0
676,67.0,0,224,12.0,76.0
677,48.0,0,224,2.0,76.0
678,64.0,0,239,15.0,76.0
679,48.0,240,239,15.0,76.0
680,69.0,0,239,15.0,76.0
681,60.0,0,239,15.0,76.0
682,67.0,0,239,15.0,76.0
683,50.0,0,224,14.0,76.0
684,62.0,0,224,13.0,76.0
685,50.0,0,224,2.0,76.0
686,67.0,0,224,12.0,76.0
687,69.0,120,239,15.0,76.0
688,62.0,0,239,15.0,76.0
689,67.0,0,239,15.0,76.0
690,50.0,0,239,15.0,76.0
691,69.0,0,344,11.0,76.0
692,69.0,0,344,0.0,76.0
693,69.0,0,344,1.0,76.0
694,60.0,0,224,13.0,76.0
695,38.0,0,224,14.0,76.0
696,66.0,240,224,12.0,76.0
697,67.0,120,104,0.0,76.0
698,67.0,0,104,1.0,76.0
699,38.0,0,224,2.0,76.0
700,67.0,0,104,11.0,76.0
701,50.0,0,239,15.0,76.0
702,57.0,0,239,15.0,76.0
703,54.0,0,239,15.0,76.0
704,38.0,0,239,15.0,76.0
705,43.0,0,224,2.0,76.0
706,43.0,0,224,14.0,76.0
707,59.0,0,239,15.0,76.0
708,55.0,0,239,15.0,76.0
709,43.0,0,239,15.0,76.0
710,62.0,120,239,15.0,76.0
711,50.0,240,224,2.0,76.0
712,50.0,0,224,14.0,76.0
713,65.0,0,239,15.0,76.0
714,62.0,0,239,15.0,76.0
715,69.0,0,239,15.0,76.0
716,50.0,0,239,15.0,76.0
717,67.0,0,704,1.0,76.0
718,67.0,0,704,0.0,76.0
719,67.0,0,704,11.0,76.0
720,67.0,0,239,15.0,76.0
721,62.0,0,719,12.0,76.0
722,59.0,0,719,13.0,76.0
723,55.0,0,239,14.0,76.0
724,55.0,0,239,15.0,76.0
725,74.0,0,239,15.0,76.0
726,71.0,240,239,15.0,76.0
727,55.0,0,239,2.0,76.0
728,71.0,240,104,0.0,76.0
729,71.0,0,104,1.0,76.0
730,71.0,0,104,11.0,76.0
731,72.0,0,104,11.0,76.0
732,72.0,0,104,1.0,76.0
733,72.0,120,104,0.0,76.0
734,74.0,120,224,11.0,76.0
735,74.0,0,224,1.0,76.0
736,74.0,0,224,0.0,76.0
737,55.0,0,104,14.0,76.0
738,71.0,0,104,13.0,76.0
739,55.0,0,104,2.0,76.0
740,74.0,0,119,15.0,76.0
741,67.0,0,119,15.0,76.0
742,71.0,240,119,15.0,76.0
743,55.0,0,119,15.0,76.0
744,53.0,0,104,2.0,76.0
745,69.0,0,104,13.0,76.0
746,53.0,0,104,14.0,76.0
747,74.0,0,224,12.0,76.0
748,65.0,120,119,15.0,76.0
749,72.0,0,119,15.0,76.0
750,69.0,0,119,15.0,76.0
751,53.0,0,119,15.0,76.0
752,79.0,0,464,0.0,76.0
753,79.0,0,464,11.0,76.0
754,52.0,0,224,2.0,76.0
755,79.0,0,464,1.0,76.0
756,52.0,0,224,14.0,76.0
757,67.0,0,224,13.0,76.0
758,73.0,0,224,12.0,76.0
759,71.0,0,239,15.0,76.0
760,64.0,0,239,15.0,76.0
761,52.0,0,239,15.0,76.0
762,67.0,120,239,15.0,76.0
763,82.0,0,224,11.0,76.0
764,55.0,0,224,2.0,76.0
765,55.0,0,224,14.0,76.0
766,74.0,0,224,12.0,76.0
767,82.0,240,224,0.0,76.0
768,82.0,0,224,1.0,76.0
769,65.0,0,224,13.0,76.0
770,55.0,0,239,15.0,76.0
771,74.0,0,239,15.0,76.0
772,70.0,0,239,15.0,76.0
773,67.0,0,239,15.0,76.0
774,69.0,0,104,12.0,76.0
775,73.0,0,104,1.0,76.0
776,73.0,0,104,11.0,76.0
777,64.0,0,104,13.0,76.0
778,73.0,240,104,0.0,76.0
779,62.0,0,104,13.0,76.0
780,71.0,0,104,1.0,76.0
781,71.0,120,104,0.0,76.0
782,57.0,0,224,14.0,76.0
783,71.0,0,104,11.0,76.0
784,57.0,0,224,2.0,76.0
785,67.0,0,104,12.0,76.0
786,69.0,0,239,15.0,76.0
787,73.0,0,239,15.0,76.0
788,57.0,0,239,15.0,76.0
789,76.0,0,239,15.0,76.0
790,64.0,0,104,13.0,76.0
791,73.0,120,104,1.0,76.0
792,73.0,0,104,0.0,76.0
793,73.0,0,104,11.0,76.0
794,69.0,0,104,12.0,76.0
795,65.0,0,104,13.0,76.0
796,45.0,0,224,2.0,76.0
797,45.0,0,224,14.0,76.0
798,71.0,0,104,12.0,76.0
799,74.0,0,104,1.0,76.0
800,74.0,120,104,11.0,76.0
801,74.0,0,104,0.0,76.0
802,45.0,0,239,15.0,76.0
803,57.0,0,239,15.0,76.0
804,61.0,0,239,15.0,76.0
805,64.0,0,239,15.0,76.0
806,76.0,0,224,0.0,76.0
807,57.0,120,224,14.0,76.0
808,57.0,0,224,2.0,76.0
809,73.0,0,224,12.0,76.0
810,64.0,0,224,13.0,76.0
811,76.0,0,224,11.0,76.0
812,76.0,0,224,1.0,76.0
813,73.0,0,239,15.0,76.0
814,76.0,0,239,15.0,76.0
815,57.0,0,239,15.0,76.0
816,69.0,0,239,15.0,76.0
817,77.0,0,104,0.0,76.0
818,74.0,240,104,12.0,76.0
819,77.0,0,104,1.0,76.0
820,77.0,0,104,11.0,76.0
821,79.0,0,104,11.0,76.0
822,55.0,0,224,2.0,76.0
823,57.0,0,224,13.0,76.0
824,79.0,0,104,1.0,76.0
825,55.0,0,224,14.0,76.0
826,76.0,0,104,12.0,76.0
827,79.0,120,104,0.0,76.0
828,67.0,0,239,15.0,76.0
829,71.0,0,239,15.0,76.0
830,55.0,0,239,15.0,76.0
831,74.0,0,239,15.0,76.0
832,81.0,0,104,0.0,76.0
833,81.0,0,104,1.0,76.0
834,81.0,0,104,11.0,76.0
835,79.0,120,104,1.0,76.0
836,53.0,0,224,14.0,76.0
837,62.0,0,224,13.0,76.0
838,77.0,120,224,12.0,76.0
839,79.0,0,104,11.0,76.0
840,79.0,0,104,0.0,76.0
841,53.0,0,224,2.0,76.0
842,69.0,0,239,15.0,76.0
843,53.0,0,239,15.0,76.0
844,74.0,0,239,15.0,76.0
845,65.0,0,239,15.0,76.0
846,81.0,0,104,11.0,76.0
847,76.0,0,104,12.0,76.0
848,81.0,0,104,1.0,76.0
849,81.0,0,104,0.0,76.0
850,82.0,120,104,11.0,76.0
851,82.0,0,104,0.0,76.0
852,74.0,0,104,12.0,76.0
853,55.0,0,224,2.0,76.0
854,67.0,0,224,13.0,76.0
855,82.0,0,104,1.0,76.0
856,55.0,0,224,14.0,76.0
857,76.0,120,239,15.0,76.0
858,67.0,0,239,15.0,76.0
859,71.0,0,239,15.0,76.0
860,55.0,0,239,15.0,76.0
861,81.0,0,104,1.0,76.0
862,81.0,0,104,0.0,76.0
863,81.0,120,104,11.0,76.0
864,79.0,0,104,1.0,76.0
865,57.0,0,224,2.0,76.0
866,64.0,0,224,13.0,76.0
867,57.0,0,224,14.0,76.0
868,79.0,0,104,0.0,76.0
869,73.0,0,224,12.0,76.0
870,79.0,120,104,11.0,76.0
871,69.0,0,239,15.0,76.0
872,73.0,0,239,15.0,76.0
873,76.0,0,239,15.0,76.0
874,57.0,0,239,15.0,76.0
875,77.0,0,104,11.0,76.0
876,77.0,0,104,1.0,76.0
877,77.0,0,104,0.0,76.0
878,76.0,0,104,1.0,76.0
879,76.0,0,104,0.0,76.0
880,73.0,0,224,12.0,76.0
881,69.0,0,224,13.0,76.0
882,45.0,0,224,2.0,76.0
883,45.0,0,224,14.0,76.0
884,76.0,120,104,11.0,76.0
885,61.0,0,239,15.0,76.0
886,64.0,0,239,15.0,76.0
887,57.0,0,239,15.0,76.0
888,45.0,120,239,15.0,76.0
889,77.0,0,104,0.0,76.0
890,77.0,0,104,1.0,76.0
891,69.0,0,104,13.0,76.0
892,77.0,0,104,11.0,76.0
893,70.0,120,104,13.0,76.0
894,79.0,0,104,1.0,76.0
895,74.0,0,224,12.0,76.0
896,50.0,0,224,2.0,76.0
897,79.0,0,104,11.0,76.0
898,79.0,0,104,0.0,76.0
899,50.0,0,224,14.0,76.0
900,69.0,0,239,15.0,76.0
901,62.0,0,239,15.0,76.0
902,65.0,0,239,15.0,76.0
903,50.0,120,239,15.0,76.0
904,77.0,120,104,0.0,76.0
905,77.0,0,104,11.0,76.0
906,69.0,0,104,13.0,76.0
907,77.0,0,104,1.0,76.0
908,76.0,0,104,1.0,76.0
909,76.0,120,104,0.0,76.0
910,69.0,0,224,12.0,76.0
911,45.0,0,224,14.0,76.0
912,45.0,0,224,2.0,76.0
913,76.0,0,104,11.0,76.0
914,67.0,0,104,13.0,76.0
915,57.0,0,239,15.0,76.0
916,60.0,0,239,15.0,76.0
917,45.0,0,239,15.0,76.0
918,64.0,0,239,15.0,76.0
919,65.0,0,104,13.0,76.0
920,69.0,0,224,12.0,76.0
921,38.0,0,224,14.0,76.0
922,74.0,0,224,1.0,76.0
923,74.0,0,224,0.0,76.0
924,38.0,0,224,2.0,76.0
925,67.0,120,104,13.0,76.0
926,74.0,0,224,11.0,76.0
927,57.0,0,239,15.0,76.0
928,53.0,120,239,15.0,76.0
929,50.0,0,239,15.0,76.0
930,38.0,0,239,15.0,76.0
931,83.0,0,104,11.0,76.0
932,56.0,0,104,14.0,76.0
933,74.0,0,104,12.0,76.0
934,83.0,0,104,0.0,76.0
935,56.0,0,104,2.0,76.0
936,65.0,0,104,13.0,76.0
937,83.0,0,104,1.0,76.0
938,74.0,120,119,15.0,76.0
939,56.0,0,119,15.0,76.0
940,71.0,0,119,15.0,76.0
941,68.0,0,119,15.0,76.0
942,64.0,0,104,13.0,76.0
943,57.0,0,104,2.0,76.0
944,84.0,0,104,11.0,76.0
945,72.0,120,104,12.0,76.0
946,84.0,0,104,0.0,76.0
947,84.0,0,104,1.0,76.0
948,57.0,0,104,14.0,76.0
949,57.0,0,119,15.0,76.0
950,69.0,0,119,15.0,76.0
951,76.0,0,119,15.0,76.0
952,72.0,0,119,15.0,76.0
953,71.0,0,104,12.0,76.0
954,86.0,0,224,1.0,76.0
955,62.0,0,224,13.0,76.0
956,59.0,0,224,14.0,76.0
957,86.0,0,224,11.0,76.0
958,86.0,120,224,0.0,76.0
959,72.0,120,104,12.0,76.0
960,59.0,0,224,2.0,76.0
961,79.0,0,239,15.0,76.0
962,71.0,0,239,15.0,76.0
963,74.0,0,239,15.0,76.0
964,59.0,0,239,15.0,76.0
965,71.0,0,104,12.0,76.0
966,62.0,0,104,13.0,76.0
967,59.0,0,104,2.0,76.0
968,59.0,0,104,14.0,76.0
969,80.0,0,104,11.0,76.0
970,80.0,0,104,1.0,76.0
971,80.0,0,104,0.0,76.0
972,71.0,120,119,15.0,76.0
973,80.0,0,119,15.0,76.0
974,74.0,0,119,15.0,76.0
975,59.0,0,119,15.0,76.0
976,64.0,0,104,13.0,76.0
977,60.0,0,104,14.0,76.0
978,60.0,0,104,2.0,76.0
979,69.0,0,104,12.0,76.0
980,81.0,0,104,11.0,76.0
981,81.0,0,104,1.0,76.0
982,81.0,0,104,0.0,76.0
983,60.0,120,119,15.0,76.0
984,72.0,0,119,15.0,76.0
985,80.0,0,119,15.0,76.0
986,76.0,0,119,15.0,76.0
987,83.0,0,224,0.0,76.0
988,68.0,0,224,12.0,76.0
989,83.0,0,224,1.0,76.0
990,65.0,120,224,13.0,76.0
991,83.0,0,224,11.0,76.0
992,62.0,0,239,14.0,76.0
993,77.0,0,239,15.0,76.0
994,62.0,0,239,15.0,76.0
995,80.0,0,239,15.0,76.0
996,62.0,0,239,2.0,76.0
997,74.0,0,239,15.0,76.0
998,74.0,240,104,11.0,76.0
999,59.0,0,104,13.0,76.0
1000,59.0,0,104,12.0,76.0
1001,74.0,0,104,0.0,76.0
1002,74.0,0,104,1.0,76.0
1003,60.0,0,104,12.0,76.0
1004,76.0,0,104,1.0,76.0
1005,76.0,0,104,11.0,76.0
1006,60.0,120,104,13.0,76.0
1007,76.0,0,104,0.0,76.0
1008,77.0,120,224,1.0,76.0
1009,77.0,0,224,11.0,76.0
1010,77.0,0,224,0.0,76.0
1011,62.0,0,224,12.0,76.0
1012,62.0,0,224,13.0,76.0
1013,71.0,0,104,0.0,76.0
1014,71.0,0,104,11.0,76.0
1015,62.0,0,104,12.0,76.0
1016,62.0,0,104,13.0,76.0
1017,71.0,240,104,1.0,76.0
1018,64.0,0,104,13.0,76.0
1019,72.0,0,104,1.0,76.0
1020,64.0,0,104,12.0,76.0
1021,72.0,120,104,11.0,76.0
1022,72.0,0,104,0.0,76.0
1023,74.0,0,224,0.0,76.0
1024,65.0,0,224,12.0,76.0
1025,74.0,0,224,1.0,76.0
1026,65.0,120,224,13.0,76.0
1027,74.0,0,224,11.0,76.0
1028,64.0,0,224,12.0,76.0
1029,50.0,0,224,2.0,76.0
1030,68.0,0,224,11.0,76.0
1031,68.0,0,224,1.0,76.0
1032,59.0,240,224,13.0,76.0
1033,50.0,0,224,14.0,76.0
1034,68.0,0,224,0.0,76.0
1035,71.0,0,239,15.0,76.0
1036,50.0,0,239,15.0,76.0
1037,62.0,0,239,15.0,76.0
1038,68.0,0,239,15.0,76.0
1039,64.0,0,239,15.0,76.0
1040,48.0,0,104,14.0,76.0
1041,48.0,0,104,2.0,76.0
1042,69.0,0,119,15.0,76.0
1043,60.0,240,119,15.0,76.0
1044,48.0,0,119,15.0,76.0
1045,64.0,0,119,15.0,76.0
1046,64.0,0,224,12.0,76.0
1047,47.0,120,104,2.0,76.0
1048,47.0,0,104,14.0,76.0
1049,60.0,0,224,13.0,76.0
1050,62.0,0,119,15.0,76.0
1051,47.0,0,119,15.0,76.0
1052,59.0,0,119,15.0,76.0
1053,65.0,0,119,15.0,76.0
1054,69.0,0,344,0.0,76.0
1055,69.0,0,344,1.0,76.0
1056,48.0,120,104,2.0,76.0
1057,48.0,0,104,14.0,76.0
1058,69.0,0,344,11.0,76.0
1059,64.0,0,119,15.0,76.0
1060,69.0,0,119,15.0,76.0
1061,60.0,0,119,15.0,76.0
1062,48.0,0,119,15.0,76.0
1063,69.0,0,224,12.0,76.0
1064,71.0,0,104,1.0,76.0
1065,71.0,120,104,0.0,76.0
1066,64.0,0,224,13.0,76.0
1067,50.0,0,104,14.0,76.0
1068,71.0,0,104,11.0,76.0
1069,50.0,0,104,2.0,76.0
1070,65.0,0,119,15.0,76.0
1071,62.0,0,119,15.0,76.0
1072,69.0,0,119,15.0,76.0
1073,50.0,0,119,15.0,76.0
1074,52.0,120,224,14.0,76.0
1075,64.0,0,224,13.0,76.0
1076,52.0,0,224,2.0,76.0
1077,68.0,0,239,15.0,76.0
1078,71.0,0,239,15.0,76.0
1079,52.0,0,239,15.0,76.0
1080,64.0,0,239,15.0,76.0
1081,71.0,0,344,1.0,76.0
1082,71.0,0,344,11.0,76.0
1083,68.0,0,344,12.0,76.0
1084,71.0,0,344,0.0,76.0
1085,59.0,0,224,13.0,76.0
1086,40.0,0,224,14.0,76.0
1087,40.0,0,224,2.0,76.0
1088,64.0,0,104,12.0,76.0
1089,69.0,0,104,11.0,76.0
1090,69.0,0,104,1.0,76.0
1091,69.0,120,104,0.0,76.0
1092,59.0,0,239,15.0,76.0
1093,52.0,0,239,15.0,76.0
1094,56.0,240,239,15.0,76.0
1095,40.0,0,239,15.0,76.0
1096,45.0,0,224,2.0,76.0
1097,45.0,0,224,14.0,76.0
1098,64.0,0,239,15.0,76.0
1099,45.0,0,239,15.0,76.0
1100,60.0,0,239,15.0,76.0
1101,57.0,0,239,15.0,76.0
1102,52.0,0,224,2.0,76.0
1103,52.0,0,224,14.0,76.0
1104,67.0,0,239,15.0,76.0
1105,52.0,0,239,15.0,76.0
1106,64.0,0,239,15.0,76.0
1107,71.0,240,239,15.0,76.0
1108,69.0,0,704,0.0,76.0
1109,69.0,120,704,1.0,76.0
1110,69.0,0,704,11.0,76.0
1111,64.0,0,719,12.0,76.0
1112,60.0,0,719,13.0,76.0
1113,57.0,0,239,2.0,76.0
1114,57.0,0,239,15.0,76.0
1115,76.0,0,239,15.0,76.0
1116,69.0,0,239,15.0,76.0
1117,72.0,0,239,15.0,76.0
1118,57.0,240,239,14.0,76.0
1119,76.0,0,104,1.0,76.0
1120,76.0,240,104,0.0,76.0
1121,76.0,0,104,11.0,76.0
1122,77.0,120,104,11.0,76.0
1123,77.0,0,104,0.0,76.0
1124,77.0,0,104,1.0,76.0
1125,79.0,0,224,0.0,76.0
1126,79.0,0,224,11.0,76.0
1127,79.0,120,224,1.0,76.0
1128,48.0,0,104,14.0,76.0
1129,79.0,0,104,12.0,76.0
1130,48.0,0,104,2.0,76.0
1131,64.0,0,104,13.0,76.0
1132,64.0,240,119,15.0,76.0
1133,67.0,0,119,15.0,76.0
1134,60.0,0,119,15.0,76.0
1135,48.0,0,119,15.0,76.0
1136,65.0,0,104,13.0,76.0
1137,50.0,0,104,14.0,76.0
1138,50.0,0,104,2.0,76.0
1139,77.0,120,104,12.0,76.0
1140,62.0,0,119,15.0,76.0
1141,69.0,0,119,15.0,76.0
1142,65.0,0,119,15.0,76.0
1143,50.0,0,119,15.0,76.0
1144,76.0,0,104,12.0,76.0
1145,52.0,0,224,2.0,76.0
1146,67.0,0,224,13.0,76.0
1147,74.0,120,104,12.0,76.0
1148,84.0,0,464,1.0,76.0
1149,84.0,0,464,0.0,76.0
1150,52.0,0,224,14.0,76.0
1151,84.0,0,464,11.0,76.0
1152,64.0,0,239,15.0,76.0
1153,72.0,120,239,15.0,76.0
1154,52.0,0,239,15.0,76.0
1155,67.0,0,239,15.0,76.0
1156,52.0,0,104,2.0,76.0
1157,76.0,0,104,12.0,76.0
1158,67.0,0,104,13.0,76.0
1159,52.0,0,104,14.0,76.0
1160,52.0,0,119,15.0,76.0
1161,67.0,0,119,15.0,76.0
1162,72.0,0,119,15.0,76.0
1163,64.0,0,119,15.0,76.0
1164,53.0,120,104,14.0,76.0
1165,79.0,0,224,1.0,76.0
1166,53.0,0,104,2.0,76.0
1167,72.0,0,104,12.0,76.0
1168,79.0,0,224,11.0,76.0
1169,69.0,0,104,13.0,76.0
1170,79.0,120,224,0.0,76.0
1171,65.0,0,119,15.0,76.0
1172,53.0,0,119,15.0,76.0
1173,72.0,0,119,15.0,76.0
1174,69.0,0,119,15.0,76.0
1175,76.0,0,104,11.0,76.0
1176,70.0,0,104,13.0,76.0
1177,76.0,0,104,1.0,76.0
1178,76.0,0,104,0.0,76.0
1179,70.0,0,104,12.0,76.0
1180,55.0,0,224,14.0,76.0
1181,72.0,0,104,12.0,76.0
1182,74.0,0,104,11.0,76.0
1183,74.0,0,104,0.0,76.0
1184,74.0,0,104,1.0,76.0
1185,55.0,0,224,2.0,76.0
1186,69.0,120,104,13.0,76.0
1187,67.0,0,239,15.0,76.0
1188,70.0,0,239,15.0,76.0
1189,55.0,0,239,15.0,76.0
1190,76.0,120,239,15.0,76.0
1191,55.0,0,104,2.0,76.0
1192,76.0,0,104,1.0,76.0
1193,76.0,0,104,0.0,76.0
1194,70.0,0,104,12.0,76.0
1195,76.0,0,104,11.0,76.0
1196,55.0,0,104,14.0,76.0
1197,67.0,0,104,13.0,76.0
1198,70.0,0,119,15.0,76.0
1199,76.0,0,119,15.0,76.0
1200,55.0,120,119,15.0,76.0
1201,67.0,0,119,15.0,76.0
1202,77.0,0,104,11.0,76.0
1203,69.0,0,104,12.0,76.0
1204,57.0,0,104,14.0,76.0
1205,65.0,0,104,13.0,76.0
1206,77.0,0,104,0.0,76.0
1207,77.0,0,104,1.0,76.0
1208,57.0,0,104,2.0,76.0
1209,72.0,0,119,15.0,76.0
1210,57.0,120,119,15.0,76.0
1211,69.0,0,119,15.0,76.0
1212,76.0,0,119,15.0,76.0
1213,58.0,0,224,2.0,76.0
1214,79.0,0,224,1.0,76.0
1215,64.0,0,224,13.0,76.0
1216,79.0,0,224,11.0,76.0
1217,67.0,0,224,12.0,76.0
1218,58.0,0,224,14.0,76.0
1219,79.0,0,224,0.0,76.0
1220,77.0,0,239,15.0,76.0
1221,58.0,120,239,15.0,76.0
1222,70.0,0,239,15.0,76.0
1223,74.0,0,239,15.0,76.0
1224,52.0,0,224,2.0,76.0
1225,60.0,0,224,13.0,76.0
1226,52.0,0,224,14.0,76.0
1227,70.0,240,224,1.0,76.0
1228,70.0,0,224,0.0,76.0
1229,67.0,0,224,12.0,76.0
1230,70.0,0,224,11.0,76.0
1231,52.0,0,239,15.0,76.0
1232,70.0,0,239,15.0,76.0
1233,72.0,0,239,15.0,76.0
1234,67.0,0,239,15.0,76.0
1235,64.0,0,239,15.0,76.0
1236,53.0,0,224,2.0,76.0
1237,53.0,0,224,14.0,76.0
1238,65.0,0,224,12.0,76.0
1239,60.0,240,224,13.0,76.0
1240,69.0,0,224,11.0,76.0
1241,69.0,0,224,0.0,76.0
1242,69.0,0,224,1.0,76.0
1243,65.0,0,239,15.0,76.0
1244,53.0,0,239,15.0,76.0
1245,69.0,0,239,15.0,76.0
1246,72.0,0,239,15.0,76.0
1247,74.0,0,104,0.0,76.0
1248,74.0,0,104,11.0,76.0
1249,74.0,0,104,1.0,76.0
1250,58.0,0,104,13.0,76.0
1251,46.0,0,224,2.0,76.0
1252,65.0,0,224,12.0,76.0
1253,60.0,0,104,13.0,76.0
1254,72.0,120,104,1.0,76.0
1255,72.0,0,104,11.0,76.0
1256,72.0,0,104,0.0,76.0
1257,46.0,0,224,14.0,76.0
1258,62.0,240,239,15.0,76.0
1259,58.0,0,239,15.0,76.0
1260,65.0,0,239,15.0,76.0
1261,46.0,0,239,15.0,76.0
1262,70.0,0,104,1.0,76.0
1263,70.0,0,104,0.0,76.0
1264,70.0,0,104,11.0,76.0
1265,43.0,0,224,14.0,76.0
1266,65.0,0,224,12.0,76.0
1267,62.0,0,224,13.0,76.0
1268,69.0,0,104,0.0,76.0
1269,69.0,0,104,11.0,76.0
1270,43.0,0,224,2.0,76.0
1271,69.0,120,104,1.0,76.0
1272,58.0,0,239,15.0,76.0
1273,43.0,120,239,15.0,76.0
1274,65.0,0,239,15.0,76.0
1275,62.0,0,239,15.0,76.0
1276,55.0,0,239,15.0,76.0
1277,70.0,0,104,1.0,76.0
1278,70.0,0,104,11.0,76.0
1279,70.0,0,104,0.0,76.0
1280,67.0,0,104,0.0,76.0
1281,67.0,120,104,1.0,76.0
1282,60.0,0,224,13.0,76.0
1283,67.0,0,104,11.0,76.0
1284,48.0,0,224,2.0,76.0
1285,48.0,0,224,14.0,76.0
1286,64.0,0,224,12.0,76.0
1287,60.0,0,239,15.0,76.0
1288,64.0,120,239,15.0,76.0
1289,70.0,0,239,15.0,76.0
1290,48.0,0,239,15.0,76.0
1291,67.0,0,239,15.0,76.0
1292,69.0,0,104,0.0,76.0
1293,69.0,120,104,1.0,76.0
1294,60.0,0,104,13.0,76.0
1295,69.0,0,104,11.0,76.0
1296,70.0,0,104,11.0,76.0
1297,70.0,0,104,0.0,76.0
1298,62.0,0,104,13.0,76.0
1299,65.0,0,224,12.0,76.0
1300,41.0,0,224,14.0,76.0
1301,70.0,120,104,1.0,76.0
1302,41.0,0,224,2.0,76.0
1303,41.0,0,239,15.0,76.0
1304,60.0,0,239,15.0,76.0
1305,57.0,0,239,15.0,76.0
1306,53.0,0,239,15.0,76.0
1307,69.0,0,104,11.0,76.0
1308,53.0,0,104,14.0,76.0
1309,53.0,0,104,2.0,76.0
1310,69.0,120,104,1.0,76.0
1311,69.0,0,104,0.0,76.0
1312,60.0,0,104,13.0,76.0
1313,72.0,0,119,15.0,76.0
1314,69.0,0,119,15.0,76.0
1315,65.0,0,119,15.0,76.0
1316,53.0,0,119,15.0,76.0
1317,55.0,0,104,2.0,76.0
1318,60.0,0,224,12.0,76.0
1319,67.0,0,104,11.0,76.0
1320,67.0,0,104,1.0,76.0
1321,67.0,0,104,0.0,76.0
1322,55.0,0,104,14.0,76.0
1323,58.0,120,104,13.0,76.0
1324,55.0,0,119,15.0,76.0
1325,74.0,0,119,15.0,76.0
1326,67.0,0,119,15.0,76.0
1327,71.0,0,119,15.0,76.0
1328,57.0,0,104,2.0,76.0
1329,57.0,0,104,14.0,76.0
1330,57.0,0,119,15.0,76.0
1331,77.0,0,119,15.0,76.0
1332,69.0,0,119,15.0,76.0
1333,72.0,120,119,15.0,76.0
1334,65.0,0,224,0.0,76.0
1335,65.0,0,224,11.0,76.0
1336,60.0,0,224,12.0,76.0
1337,65.0,0,224,1.0,76.0
1338,58.0,0,104,14.0,76.0
1339,58.0,0,104,2.0,76.0
1340,57.0,0,239,13.0,76.0
1341,70.0,0,119,15.0,76.0
1342,58.0,120,119,15.0,76.0
1343,77.0,0,119,15.0,76.0
1344,74.0,0,119,15.0,76.0
1345,77.0,0,104,11.0,76.0
1346,62.0,120,104,12.0,76.0
1347,57.0,0,104,2.0,76.0
1348,57.0,0,104,14.0,76.0
1349,77.0,0,104,1.0,76.0
1350,77.0,0,104,0.0,76.0
1351,69.0,0,119,15.0,76.0
1352,72.0,0,119,15.0,76.0
1353,57.0,0,119,15.0,76.0
1354,77.0,0,119,15.0,76.0
1355,55.0,0,104,14.0,76.0
1356,79.0,0,104,1.0,76.0
1357,55.0,0,104,2.0,76.0
1358,79.0,0,104,0.0,76.0
1359,79.0,0,104,11.0,76.0
1360,64.0,120,104,12.0,76.0
1361,55.0,0,119,15.0,76.0
1362,67.0,0,119,15.0,76.0
1363,70.0,0,119,15.0,76.0
1364,74.0,0,119,15.0,76.0
1365,53.0,0,104,2.0,76.0
1366,53.0,0,104,14.0,76.0
1367,72.0,0,119,15.0,76.0
1368,53.0,0,119,15.0,76.0
1369,65.0,0,119,15.0,76.0
1370,69.0,0,119,15.0,76.0
1371,81.0,120,224,1.0,76.0
1372,55.0,0,104,14.0,76.0
1373,55.0,0,104,2.0,76.0
1374,65.0,0,224,12.0,76.0
1375,81.0,0,224,11.0,76.0
1376,81.0,0,224,0.0,76.0
1377,71.0,0,119,15.0,76.0
1378,67.0,0,119,15.0,76.0
1379,55.0,120,119,15.0,76.0
1380,74.0,0,119,15.0,76.0
1381,74.0,0,104,0.0,76.0
1382,74.0,0,104,11.0,76.0
1383,65.0,0,104,12.0,76.0
1384,53.0,0,104,2.0,76.0
1385,74.0,0,104,1.0,76.0
1386,53.0,0,104,14.0,76.0
1387,53.0,0,119,15.0,76.0
1388,69.0,0,119,15.0,76.0
1389,65.0,0,119,15.0,76.0
1390,72.0,120,119,15.0,76.0
1391,76.0,0,104,1.0,76.0
1392,52.0,0,104,2.0,76.0
1393,76.0,0,104,11.0,76.0
1394,52.0,0,104,14.0,76.0
1395,67.0,0,104,12.0,76.0
1396,76.0,0,104,0.0,76.0
1397,67.0,120,119,15.0,76.0
1398,64.0,0,119,15.0,76.0
1399,52.0,0,119,15.0,76.0
1400,71.0,0,119,15.0,76.0
1401,50.0,0,104,14.0,76.0
1402,69.0,0,104,12.0,76.0
1403,50.0,0,104,2.0,76.0
1404,62.0,0,119,15.0,76.0
1405,50.0,0,119,15.0,76.0
1406,65.0,0,119,15.0,76.0
1407,77.0,120,224,1.0,76.0
1408,67.0,0,104,12.0,76.0
1409,52.0,0,104,14.0,76.0
1410,77.0,0,224,11.0,76.0
1411,77.0,0,224,0.0,76.0
1412,52.0,0,104,2.0,76.0
1413,67.0,0,119,15.0,76.0
1414,64.0,0,119,15.0,76.0
1415,52.0,0,119,15.0,76.0
1416,71.0,120,119,15.0,76.0
1417,71.0,0,104,0.0,76.0
1418,71.0,0,104,11.0,76.0
1419,50.0,0,104,14.0,76.0
1420,50.0,0,104,2.0,76.0
1421,55.0,0,104,13.0,76.0
1422,65.0,0,104,12.0,76.0
1423,71.0,0,104,1.0,76.0
1424,50.0,0,119,15.0,76.0
1425,65.0,120,119,15.0,76.0
1426,62.0,0,119,15.0,76.0
1427,72.0,0,104,11.0,76.0
1428,57.0,0,104,13.0,76.0
1429,48.0,0,104,14.0,76.0
1430,48.0,0,104,2.0,76.0
1431,64.0,0,104,12.0,76.0
1432,72.0,0,104,0.0,76.0
1433,72.0,0,104,1.0,76.0
1434,64.0,0,119,15.0,76.0
1435,60.0,0,119,15.0,76.0
1436,67.0,0,119,15.0,76.0
1437,48.0,120,119,15.0,76.0
1438,47.0,0,104,14.0,76.0
1439,62.0,0,104,12.0,76.0
1440,47.0,0,104,2.0,76.0
1441,59.0,0,119,15.0,76.0
1442,65.0,0,119,15.0,76.0
1443,62.0,120,119,15.0,76.0
1444,47.0,0,119,15.0,76.0
1445,48.0,120,104,14.0,76.0
1446,74.0,0,224,0.0,76.0
1447,64.0,0,104,12.0,76.0
1448,74.0,0,224,1.0,76.0
1449,74.0,0,224,11.0,76.0
1450,59.0,0,224,13.0,76.0
1451,48.0,0,104,2.0,76.0
1452,48.0,0,119,15.0,76.0
1453,60.0,0,119,15.0,76.0
1454,64.0,0,119,15.0,76.0
1455,67.0,0,119,15.0,76.0
1456,47.0,0,104,14.0,76.0
1457,59.0,0,104,13.0,76.0
1458,47.0,0,104,2.0,76.0
1459,62.0,120,104,12.0,76.0
1460,59.0,0,119,15.0,76.0
1461,65.0,0,119,15.0,76.0
1462,62.0,0,119,15.0,76.0
1463,47.0,0,119,15.0,76.0
1464,60.0,0,104,12.0,76.0
1465,45.0,0,104,2.0,76.0
1466,60.0,0,104,13.0,76.0
1467,67.0,0,224,0.0,76.0
1468,45.0,0,104,14.0,76.0
1469,67.0,0,224,11.0,76.0
1470,67.0,0,224,1.0,76.0
1471,45.0,0,119,15.0,76.0
1472,64.0,120,119,15.0,76.0
1473,57.0,0,119,15.0,76.0
1474,60.0,0,119,15.0,76.0
1475,43.0,0,104,2.0,76.0
1476,43.0,0,104,14.0,76.0
1477,55.0,0,119,15.0,76.0
1478,62.0,0,119,15.0,76.0
1479,59.0,0,119,15.0,76.0
1480,43.0,0,119,15.0,76.0
1481,79.0,0,224,0.0,76.0
1482,79.0,120,224,11.0,76.0
1483,79.0,0,224,1.0,76.0
1484,62.0,0,224,13.0,76.0
1485,59.0,0,224,12.0,76.0
1486,45.0,120,104,14.0,76.0
1487,45.0,0,104,2.0,76.0
1488,64.0,0,119,15.0,76.0
1489,45.0,0,119,15.0,76.0
1490,57.0,0,119,15.0,76.0
1491,60.0,0,119,15.0,76.0
1492,43.0,0,104,14.0,76.0
1493,43.0,0,104,2.0,76.0
1494,43.0,0,119,15.0,76.0
1495,59.0,0,119,15.0,76.0
1496,62.0,0,119,15.0,76.0
1497,55.0,120,119,15.0,76.0
1498,71.0,0,224,11.0,76.0
1499,41.0,0,104,14.0,76.0
1500,67.0,0,224,12.0,76.0
1501,71.0,0,224,1.0,76.0
1502,62.0,0,224,13.0,76.0
1503,71.0,0,224,0.0,76.0
1504,41.0,0,104,2.0,76.0
1505,53.0,0,119,15.0,76.0
1506,41.0,120,119,15.0,76.0
1507,57.0,0,119,15.0,76.0
1508,60.0,0,119,15.0,76.0
1509,40.0,0,224,14.0,76.0
1510,67.0,0,224,12.0,76.0
1511,40.0,120,224,2.0,76.0
1512,64.0,0,224,13.0,76.0
1513,52.0,0,239,15.0,76.0
1514,55.0,0,239,15.0,76.0
1515,59.0,0,239,15.0,76.0
1516,40.0,0,239,15.0,76.0
1517,72.0,0,344,11.0,76.0
1518,72.0,0,344,1.0,76.0
1519,72.0,0,344,0.0,76.0
1520,74.0,0,104,1.0,76.0
1521,72.0,0,224,12.0,76.0
1522,74.0,120,104,0.0,76.0
1523,41.0,0,224,14.0,76.0
1524,74.0,0,104,11.0,76.0
1525,69.0,0,224,13.0,76.0
1526,41.0,240,224,2.0,76.0
1527,57.0,0,239,15.0,76.0
1528,53.0,0,239,15.0,76.0
1529,41.0,0,239,15.0,76.0
1530,60.0,0,239,15.0,76.0
1531,43.0,120,224,2.0,76.0
1532,43.0,0,224,14.0,76.0
1533,71.0,0,224,12.0,76.0
1534,67.0,0,224,13.0,76.0
1535,59.0,0,239,15.0,76.0
1536,43.0,0,239,15.0,76.0
1537,62.0,0,239,15.0,76.0
1538,55.0,0,239,15.0,76.0
1539,74.0,0,344,0.0,76.0
1540,74.0,0,344,11.0,76.0
1541,74.0,0,344,1.0,76.0
1542,62.0,0,224,13.0,76.0
1543,43.0,0,224,2.0,76.0
1544,72.0,0,104,11.0,76.0
1545,72.0,120,104,1.0,76.0
1546,43.0,0,224,14.0,76.0
1547,67.0,0,224,12.0,76.0
1548,72.0,0,104,0.0,76.0
1549,62.0,0,239,15.0,76.0
1550,43.0,240,239,15.0,76.0
1551,59.0,0,239,15.0,76.0
1552,55.0,0,239,15.0,76.0
1553,72.0,0,704,1.0,76.0
1554,72.0,120,704,0.0,76.0
1555,72.0,0,704,11.0,76.0
1556,52.0,0,719,15.0,76.0
1557,48.0,0,719,15.0,76.0
1558,36.0,0,719,15.0,76.0
1559,64.0,0,719,13.0,76.0
1560,36.0,0,719,14.0,76.0
1561,36.0,0,719,2.0,76.0
1562,55.0,0,719,15.0,76.0
1563,67.0,0,719,12.0,76.0
1564,71.0,720,104,0.0,76.0
1565,71.0,0,104,1.0,76.0
1566,71.0,0,104,11.0,76.0
1567,72.0,0,104,1.0,76.0
1568,72.0,0,104,0.0,76.0
1569,72.0,120,104,11.0,76.0
1570,74.0,120,224,1.0,76.0
1571,74.0,0,224,11.0,76.0
1572,74.0,0,224,0.0,76.0
1573,55.0,0,104,2.0,76.0
1574,71.0,0,104,13.0,76.0
1575,55.0,0,104,14.0,76.0
1576,55.0,0,119,15.0,76.0
1577,67.0,0,119,15.0,76.0
1578,71.0,0,119,15.0,76.0
1579,74.0,0,119,15.0,76.0
1580,74.0,0,224,12.0,76.0
1581,53.0,120,104,14.0,76.0
1582,53.0,0,104,2.0,76.0
1583,69.0,0,104,13.0,76.0
1584,69.0,0,119,15.0,76.0
1585,65.0,0,119,15.0,76.0
1586,53.0,0,119,15.0,76.0
1587,72.0,0,119,15.0,76.0
1588,79.0,0,464,0.0,76.0
1589,79.0,0,464,11.0,76.0
1590,52.0,0,224,2.0,76.0
1591,52.0,0,224,14.0,76.0
1592,79.0,240,464,1.0,76.0
1593,73.0,0,224,12.0,76.0
1594,67.0,0,224,13.0,76.0
1595,71.0,0,239,15.0,76.0
1596,52.0,0,239,15.0,76.0
1597,67.0,120,239,15.0,76.0
1598,64.0,0,239,15.0,76.0
1599,82.0,240,224,11.0,76.0
1600,82.0,0,224,0.0,76.0
1601,65.0,0,224,13.0,76.0
1602,55.0,0,224,2.0,76.0
1603,74.0,0,224,12.0,76.0
1604,82.0,0,224,1.0,76.0
1605,55.0,0,224,14.0,76.0
1606,74.0,0,239,15.0,76.0
1607,70.0,0,239,15.0,76.0
1608,55.0,0,239,15.0,76.0
1609,67.0,0,239,15.0,76.0
1610,73.0,0,104,0.0,76.0
1611,69.0,240,104,12.0,76.0
1612,73.0,0,104,11.0,76.0
1613,73.0,0,104,1.0,76.0
1614,64.0,0,104,13.0,76.0
1615,71.0,120,104,0.0,76.0
1616,71.0,0,104,1.0,76.0
1617,57.0,0,224,2.0,76.0
1618,67.0,0,104,12.0,76.0
1619,71.0,0,104,11.0,76.0
1620,57.0,0,224,14.0,76.0
1621,62.0,0,104,13.0,76.0
1622,73.0,0,239,15.0,76.0
1623,69.0,0,239,15.0,76.0
1624,57.0,0,239,15.0,76.0
1625,76.0,0,239,15.0,76.0
1626,73.0,0,104,11.0,76.0
1627,73.0,0,104,1.0,76.0
1628,69.0,0,104,12.0,76.0
1629,64.0,120,104,13.0,76.0
1630,73.0,0,104,0.0,76.0
1631,74.0,120,104,0.0,76.0
1632,71.0,0,104,12.0,76.0
1633,45.0,0,224,2.0,76.0
1634,45.0,0,224,14.0,76.0
1635,74.0,0,104,11.0,76.0
1636,65.0,0,104,13.0,76.0
1637,74.0,0,104,1.0,76.0
1638,61.0,0,239,15.0,76.0
1639,45.0,0,239,15.0,76.0
1640,64.0,0,239,15.0,76.0
1641,57.0,0,239,15.0,76.0
1642,73.0,0,224,12.0,76.0
1643,64.0,0,224,13.0,76.0
1644,76.0,0,224,1.0,76.0
1645,76.0,0,224,0.0,76.0
1646,57.0,0,224,14.0,76.0
1647,57.0,0,224,2.0,76.0
1648,76.0,0,224,11.0,76.0
1649,73.0,120,239,15.0,76.0
1650,69.0,0,239,15.0,76.0
1651,57.0,0,239,15.0,76.0
1652,76.0,0,239,15.0,76.0
1653,77.0,0,104,11.0,76.0
1654,77.0,0,104,0.0,76.0
1655,77.0,0,104,1.0,76.0
1656,74.0,0,104,12.0,76.0
1657,79.0,120,104,11.0,76.0
1658,57.0,0,224,13.0,76.0
1659,55.0,240,224,2.0,76.0
1660,79.0,0,104,0.0,76.0
1661,79.0,0,104,1.0,76.0
1662,55.0,0,224,14.0,76.0
1663,76.0,0,104,12.0,76.0
1664,55.0,0,239,15.0,76.0
1665,71.0,0,239,15.0,76.0
1666,67.0,0,239,15.0,76.0
1667,74.0,0,239,15.0,76.0
1668,81.0,0,104,1.0,76.0
1669,81.0,0,104,0.0,76.0
1670,81.0,0,104,11.0,76.0
1671,77.0,120,224,12.0,76.0
1672,79.0,0,104,11.0,76.0
1673,79.0,0,104,1.0,76.0
1674,53.0,0,224,2.0,76.0
1675,62.0,0,224,13.0,76.0
1676,53.0,0,224,14.0,76.0
1677,79.0,120,104,0.0,76.0
1678,53.0,0,239,15.0,76.0
1679,74.0,0,239,15.0,76.0
1680,69.0,0,239,15.0,76.0
1681,65.0,0,239,15.0,76.0
1682,76.0,0,104,12.0,76.0
1683,81.0,0,104,1.0,76.0
1684,81.0,0,104,0.0,76.0
1685,81.0,0,104,11.0,76.0
1686,82.0,0,104,0.0,76.0
1687,67.0,0,224,13.0,76.0
1688,55.0,0,224,2.0,76.0
1689,55.0,120,224,14.0,76.0
1690,74.0,0,104,12.0,76.0
1691,82.0,0,104,11.0,76.0
1692,82.0,120,104,1.0,76.0
1693,55.0,0,239,15.0,76.0
1694,71.0,0,239,15.0,76.0
1695,67.0,0,239,15.0,76.0
1696,76.0,0,239,15.0,76.0
1697,81.0,0,104,1.0,76.0
1698,81.0,0,104,11.0,76.0
1699,81.0,120,104,0.0,76.0
1700,57.0,0,224,14.0,76.0
1701,73.0,0,224,12.0,76.0
1702,64.0,0,224,13.0,76.0
1703,79.0,120,104,0.0,76.0
1704,57.0,0,224,2.0,76.0
1705,79.0,0,104,11.0,76.0
1706,79.0,0,104,1.0,76.0
1707,76.0,0,239,15.0,76.0
1708,57.0,0,239,15.0,76.0
1709,69.0,0,239,15.0,76.0
1710,73.0,0,239,15.0,76.0
1711,77.0,0,104,1.0,76.0
1712,77.0,120,104,11.0,76.0
1713,77.0,0,104,0.0,76.0
1714,45.0,0,224,2.0,76.0
1715,76.0,120,104,0.0,76.0
1716,76.0,0,104,1.0,76.0
1717,69.0,0,224,13.0,76.0
1718,76.0,0,104,11.0,76.0
1719,73.0,0,224,12.0,76.0
1720,45.0,0,224,14.0,76.0
1721,61.0,0,239,15.0,76.0
1722,57.0,0,239,15.0,76.0
1723,45.0,0,239,15.0,76.0
1724,64.0,0,239,15.0,76.0
1725,77.0,0,104,1.0,76.0
1726,77.0,0,104,11.0,76.0
1727,77.0,0,104,0.0,76.0
1728,69.0,0,104,13.0,76.0
1729,79.0,0,104,1.0,76.0
1730,79.0,0,104,11.0,76.0
1731,70.0,120,104,13.0,76.0
1732,50.0,0,224,2.0,76.0
1733,74.0,120,224,12.0,76.0
1734,79.0,0,104,0.0,76.0
1735,50.0,0,224,14.0,76.0
1736,62.0,0,239,15.0,76.0
1737,69.0,0,239,15.0,76.0
1738,50.0,0,239,15.0,76.0
1739,65.0,0,239,15.0,76.0
1740,77.0,0,104,0.0,76.0
1741,77.0,0,104,1.0,76.0
1742,77.0,0,104,11.0,76.0
1743,69.0,0,104,13.0,76.0
1744,67.0,0,104,13.0,76.0
1745,76.0,0,104,1.0,76.0
1746,69.0,120,224,12.0,76.0
1747,76.0,120,104,11.0,76.0
1748,45.0,0,224,14.0,76.0
1749,76.0,0,104,0.0,76.0
1750,45.0,0,224,2.0,76.0
1751,64.0,0,239,15.0,76.0
1752,57.0,0,239,15.0,76.0
1753,60.0,0,239,15.0,76.0
1754,45.0,0,239,15.0,76.0
1755,65.0,0,104,13.0,76.0
1756,38.0,0,224,2.0,76.0
1757,38.0,0,224,14.0,76.0
1758,74.0,0,224,11.0,76.0
1759,74.0,0,224,0.0,76.0
1760,69.0,0,224,12.0,76.0
1761,74.0,120,224,1.0,76.0
1762,67.0,120,104,13.0,76.0
1763,53.0,0,239,15.0,76.0
1764,38.0,0,239,15.0,76.0
1765,57.0,0,239,15.0,76.0
1766,50.0,0,239,15.0,76.0
1767,83.0,0,104,11.0,76.0
1768,56.0,0,104,14.0,76.0
1769,83.0,0,104,0.0,76.0
1770,56.0,0,104,2.0,76.0
1771,65.0,0,104,13.0,76.0
1772,83.0,0,104,1.0,76.0
1773,74.0,120,104,12.0,76.0
1774,74.0,0,119,15.0,76.0
1775,71.0,0,119,15.0,76.0
1776,68.0,0,119,15.0,76.0
1777,56.0,0,119,15.0,76.0
1778,84.0,0,104,11.0,76.0
1779,72.0,120,104,12.0,76.0
1780,84.0,0,104,1.0,76.0
1781,84.0,0,104,0.0,76.0
1782,64.0,0,104,13.0,76.0
1783,57.0,0,104,2.0,76.0
1784,57.0,0,104,14.0,76.0
1785,72.0,0,119,15.0,76.0
1786,57.0,0,119,15.0,76.0
1787,69.0,0,119,15.0,76.0
1788,76.0,0,119,15.0,76.0
1789,71.0,0,104,12.0,76.0
1790,72.0,120,104,12.0,76.0
1791,86.0,0,224,0.0,76.0
1792,86.0,120,224,11.0,76.0
1793,86.0,0,224,1.0,76.0
1794,59.0,0,224,2.0,76.0
1795,59.0,0,224,14.0,76.0
1796,62.0,0,224,13.0,76.0
1797,79.0,0,239,15.0,76.0
1798,59.0,0,239,15.0,76.0
1799,74.0,0,239,15.0,76.0
1800,71.0,0,239,15.0,76.0
1801,71.0,0,104,12.0,76.0
1802,80.0,0,104,0.0,76.0
1803,59.0,0,104,14.0,76.0
1804,59.0,120,104,2.0,76.0
1805,80.0,0,104,11.0,76.0
1806,80.0,0,104,1.0,76.0
1807,62.0,0,104,13.0,76.0
1808,74.0,0,119,15.0,76.0
1809,59.0,0,119,15.0,76.0
1810,71.0,0,119,15.0,76.0
1811,80.0,0,119,15.0,76.0
1812,64.0,0,104,13.0,76.0
1813,60.0,0,104,2.0,76.0
1814,60.0,120,104,14.0,76.0
1815,81.0,0,104,0.0,76.0
1816,81.0,0,104,1.0,76.0
1817,69.0,0,104,12.0,76.0
1818,81.0,0,104,11.0,76.0
1819,72.0,0,119,15.0,76.0
1820,80.0,0,119,15.0,76.0
1821,76.0,0,119,15.0,76.0
1822,60.0,0,119,15.0,76.0
1823,68.0,120,224,12.0,76.0
1824,83.0,0,224,1.0,76.0
1825,65.0,0,224,13.0,76.0
1826,83.0,0,224,0.0,76.0
1827,83.0,0,224,11.0,76.0
1828,62.0,0,239,14.0,76.0
1829,62.0,0,239,2.0,76.0
1830,80.0,0,239,15.0,76.0
1831,77.0,0,239,15.0,76.0
1832,62.0,0,239,15.0,76.0
1833,74.0,0,239,15.0,76.0
1834,74.0,0,104,1.0,76.0
1835,74.0,0,104,0.0,76.0
1836,59.0,0,104,13.0,76.0
1837,59.0,240,104,12.0,76.0
1838,74.0,0,104,11.0,76.0
1839,76.0,0,104,11.0,76.0
1840,76.0,120,104,0.0,76.0
1841,76.0,0,104,1.0,76.0
1842,60.0,0,104,13.0,76.0
1843,60.0,0,104,12.0,76.0
1844,62.0,0,224,12.0,76.0
1845,77.0,120,224,0.0,76.0
1846,62.0,0,224,13.0,76.0
1847,77.0,0,224,1.0,76.0
1848,77.0,0,224,11.0,76.0
1849,71.0,0,104,1.0,76.0
1850,71.0,0,104,11.0,76.0
1851,62.0,0,104,13.0,76.0
1852,71.0,240,104,0.0,76.0
1853,62.0,0,104,12.0,76.0
1854,72.0,0,104,0.0,76.0
1855,64.0,120,104,12.0,76.0
1856,72.0,0,104,11.0,76.0
1857,64.0,0,104,13.0,76.0
1858,72.0,0,104,1.0,76.0
1859,65.0,0,224,12.0,76.0
1860,74.0,0,224,11.0,76.0
1861,65.0,0,224,13.0,76.0
1862,74.0,120,224,0.0,76.0
1863,74.0,0,224,1.0,76.0
1864,50.0,0,224,2.0,76.0
1865,68.0,0,224,0.0,76.0
1866,50.0,0,224,14.0,76.0
1867,64.0,0,224,12.0,76.0
1868,68.0,0,224,1.0,76.0
1869,68.0,0,224,11.0,76.0
1870,59.0,0,224,13.0,76.0
1871,64.0,0,239,15.0,76.0
1872,71.0,0,239,15.0,76.0
1873,62.0,240,239,15.0,76.0
1874,50.0,0,239,15.0,76.0
1875,68.0,0,239,15.0,76.0
1876,48.0,0,104,2.0,76.0
1877,48.0,0,104,14.0,76.0
1878,64.0,0,119,15.0,76.0
1879,69.0,0,119,15.0,76.0
1880,60.0,0,119,15.0,76.0
1881,48.0,0,119,15.0,76.0
1882,60.0,240,224,13.0,76.0
1883,47.0,0,104,14.0,76.0
1884,47.0,0,104,2.0,76.0
1885,64.0,0,224,12.0,76.0
1886,62.0,0,119,15.0,76.0
1887,65.0,0,119,15.0,76.0
1888,47.0,0,119,15.0,76.0
1889,59.0,120,119,15.0,76.0
1890,69.0,0,344,11.0,76.0
1891,69.0,0,344,0.0,76.0
1892,48.0,0,104,14.0,76.0
1893,69.0,0,344,1.0,76.0
1894,48.0,0,104,2.0,76.0
1895,60.0,0,119,15.0,76.0
1896,69.0,120,119,15.0,76.0
1897,48.0,0,119,15.0,76.0
1898,64.0,0,119,15.0,76.0
1899,71.0,0,104,0.0,76.0
1900,71.0,0,104,1.0,76.0
1901,50.0,0,104,14.0,76.0
1902,71.0,0,104,11.0,76.0
1903,64.0,0,224,13.0,76.0
1904,50.0,0,104,2.0,76.0
1905,69.0,0,224,12.0,76.0
1906,65.0,120,119,15.0,76.0
1907,62.0,0,119,15.0,76.0
1908,50.0,0,119,15.0,76.0
1909,69.0,0,119,15.0,76.0
1910,52.0,120,224,14.0,76.0
1911,64.0,0,224,13.0,76.0
1912,52.0,0,224,2.0,76.0
1913,52.0,0,239,15.0,76.0
1914,68.0,0,239,15.0,76.0
1915,64.0,0,239,15.0,76.0
1916,71.0,0,239,15.0,76.0
1917,71.0,0,344,0.0,76.0
1918,71.0,0,344,1.0,76.0
1919,71.0,0,344,11.0,76.0
1920,68.0,0,344,12.0,76.0
1921,64.0,120,104,12.0,76.0
1922,69.0,0,104,1.0,76.0
1923,69.0,0,104,0.0,76.0
1924,40.0,0,224,2.0,76.0
1925,69.0,0,104,11.0,76.0
1926,59.0,0,224,13.0,76.0
1927,40.0,240,224,14.0,76.0
1928,56.0,0,239,15.0,76.0
1929,59.0,0,239,15.0,76.0
1930,52.0,0,239,15.0,76.0
1931,40.0,0,239,15.0,76.0
1932,45.0,0,224,14.0,76.0
1933,45.0,0,224,2.0,76.0
1934,45.0,0,239,15.0,76.0
1935,57.0,0,239,15.0,76.0
1936,60.0,0,239,15.0,76.0
1937,64.0,120,239,15.0,76.0
1938,52.0,0,224,14.0,76.0
1939,52.0,0,224,2.0,76.0
1940,67.0,0,239,15.0,76.0
1941,64.0,240,239,15.0,76.0
1942,71.0,0,239,15.0,76.0
1943,52.0,0,239,15.0,76.0
1944,69.0,0,704,1.0,76.0
1945,69.0,0,704,11.0,76.0
1946,69.0,0,704,0.0,76.0
1947,60.0,0,719,13.0,76.0
1948,76.0,0,239,15.0,76.0
1949,69.0,240,239,15.0,76.0
1950,57.0,0,239,15.0,76.0
1951,57.0,0,239,14.0,76.0
1952,57.0,0,239,2.0,76.0
1953,72.0,0,239,15.0,76.0
1954,64.0,0,719,12.0,76.0
1955,76.0,0,104,11.0,76.0
1956,76.0,240,104,0.0,76.0
1957,76.0,0,104,1.0,76.0
1958,77.0,120,104,11.0,76.0
1959,77.0,0,104,0.0,76.0
1960,77.0,0,104,1.0,76.0
1961,79.0,0,224,0.0,76.0
1962,79.0,0,224,1.0,76.0
1963,79.0,120,224,11.0,76.0
1964,48.0,0,104,14.0,76.0
1965,64.0,0,104,13.0,76.0
1966,79.0,0,104,12.0,76.0
1967,48.0,0,104,2.0,76.0
1968,64.0,0,119,15.0,76.0
1969,60.0,0,119,15.0,76.0
1970,48.0,240,119,15.0,76.0
1971,67.0,0,119,15.0,76.0
1972,50.0,0,104,14.0,76.0
1973,77.0,0,104,12.0,76.0
1974,50.0,0,104,2.0,76.0
1975,65.0,0,104,13.0,76.0
1976,50.0,0,119,15.0,76.0
1977,62.0,120,119,15.0,76.0
1978,69.0,0,119,15.0,76.0
1979,65.0,0,119,15.0,76.0
1980,76.0,120,104,12.0,76.0
1981,67.0,0,224,13.0,76.0
1982,74.0,120,104,12.0,76.0
1983,84.0,0,464,0.0,76.0
1984,84.0,0,464,1.0,76.0
1985,52.0,0,224,2.0,76.0
1986,84.0,0,464,11.0,76.0
1987,52.0,0,224,14.0,76.0
1988,72.0,0,239,15.0,76.0
1989,64.0,0,239,15.0,76.0
1990,67.0,0,239,15.0,76.0
1991,52.0,0,239,15.0,76.0
1992,52.0,0,104,2.0,76.0
1993,52.0,0,104,14.0,76.0
1994,76.0,0,104,12.0,76.0
1995,67.0,120,104,13.0,76.0
1996,72.0,0,119,15.0,76.0
1997,67.0,0,119,15.0,76.0
1998,64.0,0,119,15.0,76.0
1999,52.0,0,119,15.0,76.0
2000,72.0,0,104,12.0,76.0
2001,69.0,0,104,13.0,76.0
2002,53.0,0,104,2.0,76.0
2003,79.0,0,224,0.0,76.0
2004,53.0,0,104,14.0,76.0
2005,79.0,0,224,11.0,76.0
2006,79.0,0,224,1.0,76.0
2007,69.0,0,119,15.0,76.0
2008,72.0,120,119,15.0,76.0
2009,53.0,0,119,15.0,76.0
2010,65.0,0,119,15.0,76.0
2011,70.0,0,104,12.0,76.0
2012,76.0,0,104,11.0,76.0
2013,70.0,0,104,13.0,76.0
2014,76.0,0,104,0.0,76.0
2015,76.0,0,104,1.0,76.0
2016,74.0,0,104,0.0,76.0
2017,74.0,0,104,1.0,76.0
2018,69.0,0,104,13.0,76.0
2019,55.0,0,224,14.0,76.0
2020,72.0,120,104,12.0,76.0
2021,55.0,0,224,2.0,76.0
2022,74.0,0,104,11.0,76.0
2023,55.0,0,239,15.0,76.0
2024,70.0,120,239,15.0,76.0
2025,76.0,0,239,15.0,76.0
2026,67.0,0,239,15.0,76.0
2027,67.0,0,104,13.0,76.0
2028,55.0,0,104,2.0,76.0
2029,76.0,0,104,11.0,76.0
2030,76.0,120,104,1.0,76.0
2031,55.0,0,104,14.0,76.0
2032,76.0,0,104,0.0,76.0
2033,70.0,0,104,12.0,76.0
2034,67.0,0,119,15.0,76.0
2035,55.0,0,119,15.0,76.0
2036,70.0,0,119,15.0,76.0
2037,76.0,0,119,15.0,76.0
2038,69.0,0,104,12.0,76.0
2039,57.0,0,104,2.0,76.0
2040,77.0,0,104,0.0,76.0
2041,77.0,120,104,1.0,76.0
2042,77.0,0,104,11.0,76.0
2043,65.0,0,104,13.0,76.0
2044,57.0,0,104,14.0,76.0
2045,57.0,0,119,15.0,76.0
2046,76.0,0,119,15.0,76.0
2047,69.0,0,119,15.0,76.0
2048,72.0,0,119,15.0,76.0
2049,79.0,0,224,1.0,76.0
2050,79.0,120,224,0.0,76.0
2051,79.0,0,224,11.0,76.0
2052,58.0,0,224,2.0,76.0
2053,67.0,0,224,12.0,76.0
2054,64.0,0,224,13.0,76.0
2055,58.0,0,224,14.0,76.0
2056,70.0,0,239,15.0,76.0
2057,74.0,0,239,15.0,76.0
2058,58.0,0,239,15.0,76.0
2059,77.0,0,239,15.0,76.0
2060,70.0,0,224,0.0,76.0
2061,52.0,0,224,2.0,76.0
2062,70.0,0,224,11.0,76.0
2063,67.0,0,224,12.0,76.0
2064,70.0,0,224,1.0,76.0
2065,60.0,0,224,13.0,76.0
2066,52.0,240,224,14.0,76.0
2067,67.0,0,239,15.0,76.0
2068,70.0,0,239,15.0,76.0
2069,52.0,0,239,15.0,76.0
2070,64.0,0,239,15.0,76.0
2071,72.0,0,239,15.0,76.0
2072,69.0,0,224,11.0,76.0
2073,69.0,0,224,0.0,76.0
2074,60.0,0,224,13.0,76.0
2075,65.0,0,224,12.0,76.0
2076,53.0,240,224,14.0,76.0
2077,53.0,0,224,2.0,76.0
2078,69.0,0,224,1.0,76.0
2079,65.0,0,239,15.0,76.0
2080,72.0,0,239,15.0,76.0
2081,53.0,0,239,15.0,76.0
2082,69.0,0,239,15.0,76.0
2083,74.0,0,104,1.0,76.0
2084,74.0,0,104,11.0,76.0
2085,74.0,240,104,0.0,76.0
2086,58.0,0,104,13.0,76.0
2087,65.0,0,224,12.0,76.0
2088,72.0,0,104,0.0,76.0
2089,60.0,120,104,13.0,76.0
2090,46.0,0,224,2.0,76.0
2091,72.0,0,104,1.0,76.0
2092,72.0,0,104,11.0,76.0
2093,46.0,0,224,14.0,76.0
2094,58.0,0,239,15.0,76.0
2095,62.0,0,239,15.0,76.0
2096,46.0,0,239,15.0,76.0
2097,65.0,0,239,15.0,76.0
2098,70.0,0,104,1.0,76.0
2099,70.0,0,104,11.0,76.0
2100,70.0,0,104,0.0,76.0
2101,69.0,0,104,0.0,76.0
2102,43.0,0,224,14.0,76.0
2103,65.0,0,224,12.0,76.0
2104,62.0,0,224,13.0,76.0
2105,69.0,0,104,11.0,76.0
2106,69.0,120,104,1.0,76.0
2107,43.0,0,224,2.0,76.0
2108,62.0,0,239,15.0,76.0
2109,58.0,0,239,15.0,76.0
2110,43.0,120,239,15.0,76.0
2111,65.0,0,239,15.0,76.0
2112,55.0,0,239,15.0,76.0
2113,70.0,0,104,11.0,76.0
2114,70.0,0,104,0.0,76.0
2115,70.0,0,104,1.0,76.0
2116,60.0,0,224,13.0,76.0
2117,67.0,0,104,0.0,76.0
2118,67.0,120,104,1.0,76.0
2119,67.0,0,104,11.0,76.0
2120,48.0,0,224,14.0,76.0
2121,64.0,0,224,12.0,76.0
2122,48.0,120,224,2.0,76.0
2123,67.0,0,239,15.0,76.0
2124,70.0,0,239,15.0,76.0
2125,48.0,0,239,15.0,76.0
2126,60.0,0,239,15.0,76.0
2127,64.0,0,239,15.0,76.0
2128,69.0,0,104,1.0,76.0
2129,69.0,0,104,0.0,76.0
2130,69.0,0,104,11.0,76.0
2131,60.0,0,104,13.0,76.0
2132,41.0,0,224,2.0,76.0
2133,70.0,0,104,11.0,76.0
2134,70.0,120,104,0.0,76.0
2135,41.0,0,224,14.0,76.0
2136,70.0,0,104,1.0,76.0
2137,65.0,0,224,12.0,76.0
2138,62.0,0,104,13.0,76.0
2139,60.0,0,239,15.0,76.0
2140,57.0,0,239,15.0,76.0
2141,41.0,0,239,15.0,76.0
2142,53.0,120,239,15.0,76.0
2143,69.0,0,104,11.0,76.0
2144,53.0,0,104,2.0,76.0
2145,69.0,0,104,1.0,76.0
2146,69.0,0,104,0.0,76.0
2147,60.0,120,104,13.0,76.0
2148,53.0,0,104,14.0,76.0
2149,65.0,0,119,15.0,76.0
2150,69.0,0,119,15.0,76.0
2151,72.0,0,119,15.0,76.0
2152,53.0,0,119,15.0,76.0
2153,55.0,0,104,14.0,76.0
2154,67.0,0,104,1.0,76.0
2155,67.0,120,104,11.0,76.0
2156,67.0,0,104,0.0,76.0
2157,55.0,0,104,2.0,76.0
2158,58.0,0,104,13.0,76.0
2159,60.0,0,224,12.0,76.0
2160,55.0,0,119,15.0,76.0
2161,67.0,0,119,15.0,76.0
2162,71.0,0,119,15.0,76.0
2163,74.0,0,119,15.0,76.0
2164,57.0,0,104,14.0,76.0
2165,57.0,0,104,2.0,76.0
2166,77.0,0,119,15.0,76.0
2167,72.0,0,119,15.0,76.0
2168,57.0,0,119,15.0,76.0
2169,69.0,0,119,15.0,76.0
2170,60.0,120,224,12.0,76.0
2171,65.0,0,224,0.0,76.0
2172,65.0,0,224,1.0,76.0
2173,58.0,0,104,14.0,76.0
2174,65.0,0,224,11.0,76.0
2175,58.0,0,104,2.0,76.0
2176,57.0,0,239,13.0,76.0
2177,77.0,0,119,15.0,76.0
2178,74.0,0,119,15.0,76.0
2179,70.0,120,119,15.0,76.0
2180,58.0,0,119,15.0,76.0
2181,57.0,120,104,2.0,76.0
2182,77.0,0,104,1.0,76.0
2183,77.0,0,104,0.0,76.0
2184,62.0,0,104,12.0,76.0
2185,77.0,0,104,11.0,76.0
2186,57.0,0,104,14.0,76.0
2187,72.0,0,119,15.0,76.0
2188,77.0,0,119,15.0,76.0
2189,69.0,0,119,15.0,76.0
2190,57.0,0,119,15.0,76.0
2191,64.0,0,104,12.0,76.0
2192,79.0,0,104,1.0,76.0
2193,79.0,0,104,11.0,76.0
2194,55.0,0,104,14.0,76.0
2195,55.0,0,104,2.0,76.0
2196,79.0,0,104,0.0,76.0
2197,55.0,0,119,15.0,76.0
2198,67.0,0,119,15.0,76.0
2199,74.0,120,119,15.0,76.0
2200,70.0,0,119,15.0,76.0
2201,53.0,0,104,2.0,76.0
2202,53.0,0,104,14.0,76.0
2203,53.0,0,119,15.0,76.0
2204,72.0,0,119,15.0,76.0
2205,69.0,0,119,15.0,76.0
2206,65.0,0,119,15.0,76.0
2207,55.0,0,104,14.0,76.0
2208,65.0,0,224,12.0,76.0
2209,55.0,0,104,2.0,76.0
2210,81.0,120,224,1.0,76.0
2211,81.0,0,224,0.0,76.0
2212,81.0,0,224,11.0,76.0
2213,74.0,0,119,15.0,76.0
2214,55.0,0,119,15.0,76.0
2215,71.0,120,119,15.0,76.0
2216,67.0,0,119,15.0,76.0
2217,53.0,0,104,14.0,76.0
2218,74.0,0,104,11.0,76.0
2219,53.0,120,104,2.0,76.0
2220,65.0,0,104,12.0,76.0
2221,74.0,0,104,0.0,76.0
2222,74.0,0,104,1.0,76.0
2223,69.0,0,119,15.0,76.0
2224,53.0,0,119,15.0,76.0
2225,65.0,0,119,15.0,76.0
2226,72.0,0,119,15.0,76.0
2227,76.0,0,104,1.0,76.0
2228,67.0,0,104,12.0,76.0
2229,76.0,0,104,0.0,76.0
2230,76.0,0,104,11.0,76.0
2231,52.0,0,104,14.0,76.0
2232,52.0,0,104,2.0,76.0
2233,52.0,120,119,15.0,76.0
2234,71.0,0,119,15.0,76.0
2235,64.0,0,119,15.0,76.0
2236,67.0,0,119,15.0,76.0
2237,69.0,120,104,12.0,76.0
2238,50.0,0,104,14.0,76.0
2239,50.0,0,104,2.0,76.0
2240,62.0,0,119,15.0,76.0
2241,50.0,0,119,15.0,76.0
2242,65.0,0,119,15.0,76.0
2243,52.0,0,104,2.0,76.0
2244,77.0,0,224,0.0,76.0
2245,67.0,0,104,12.0,76.0
2246,77.0,0,224,11.0,76.0
2247,52.0,0,104,14.0,76.0
2248,77.0,0,224,1.0,76.0
2249,64.0,0,119,15.0,76.0
2250,71.0,0,119,15.0,76.0
2251,52.0,0,119,15.0,76.0
2252,67.0,120,119,15.0,76.0
2253,71.0,0,104,1.0,76.0
2254,65.0,0,104,12.0,76.0
2255,71.0,0,104,11.0,76.0
2256,50.0,0,104,14.0,76.0
2257,50.0,0,104,2.0,76.0
2258,71.0,0,104,0.0,76.0
2259,55.0,0,104,13.0,76.0
2260,50.0,120,119,15.0,76.0
2261,62.0,0,119,15.0,76.0
2262,65.0,0,119,15.0,76.0
2263,72.0,0,104,11.0,76.0
2264,72.0,0,104,0.0,76.0
2265,57.0,0,104,13.0,76.0
2266,72.0,0,104,1.0,76.0
2267,48.0,0,104,2.0,76.0
2268,64.0,0,104,12.0,76.0
2269,48.0,0,104,14.0,76.0
2270,64.0,120,119,15.0,76.0
2271,48.0,0,119,15.0,76.0
2272,60.0,0,119,15.0,76.0
2273,67.0,0,119,15.0,76.0
2274,62.0,120,104,12.0,76.0
2275,47.0,0,104,2.0,76.0
2276,47.0,0,104,14.0,76.0
2277,47.0,0,119,15.0,76.0
2278,59.0,0,119,15.0,76.0
2279,65.0,0,119,15.0,76.0
2280,62.0,0,119,15.0,76.0
2281,74.0,0,224,11.0,76.0
2282,48.0,0,104,2.0,76.0
2283,48.0,0,104,14.0,76.0
2284,64.0,0,104,12.0,76.0
2285,59.0,0,224,13.0,76.0
2286,74.0,0,224,1.0,76.0
2287,74.0,0,224,0.0,76.0
2288,67.0,120,119,15.0,76.0
2289,48.0,0,119,15.0,76.0
2290,60.0,0,119,15.0,76.0
2291,64.0,0,119,15.0,76.0
2292,59.0,0,104,13.0,76.0
2293,62.0,0,104,12.0,76.0
2294,47.0,120,104,2.0,76.0
2295,47.0,0,104,14.0,76.0
2296,62.0,0,119,15.0,76.0
2297,65.0,0,119,15.0,76.0
2298,47.0,0,119,15.0,76.0
2299,59.0,0,119,15.0,76.0
2300,60.0,0,104,13.0,76.0
2301,67.0,0,224,0.0,76.0
2302,45.0,0,104,2.0,76.0
2303,67.0,0,224,1.0,76.0
2304,67.0,0,224,11.0,76.0
2305,60.0,120,104,12.0,76.0
2306,45.0,0,104,14.0,76.0
2307,60.0,0,119,15.0,76.0
2308,45.0,0,119,15.0,76.0
2309,57.0,0,119,15.0,76.0
2310,64.0,0,119,15.0,76.0
2311,43.0,0,104,14.0,76.0
2312,43.0,0,104,2.0,76.0
2313,55.0,0,119,15.0,76.0
2314,59.0,0,119,15.0,76.0
2315,62.0,0,119,15.0,76.0
2316,43.0,0,119,15.0,76.0
2317,62.0,120,224,13.0,76.0
2318,79.0,0,224,1.0,76.0
2319,79.0,0,224,0.0,76.0
2320,45.0,0,104,14.0,76.0
2321,59.0,0,224,12.0,76.0
2322,45.0,0,104,2.0,76.0
2323,79.0,0,224,11.0,76.0
2324,64.0,0,119,15.0,76.0
2325,45.0,120,119,15.0,76.0
2326,57.0,0,119,15.0,76.0
2327,60.0,0,119,15.0,76.0
2328,43.0,120,104,14.0,76.0
2329,43.0,0,104,2.0,76.0
2330,62.0,0,119,15.0,76.0
2331,59.0,0,119,15.0,76.0
2332,55.0,0,119,15.0,76.0
2333,43.0,0,119,15.0,76.0
2334,62.0,0,224,13.0,76.0
2335,41.0,0,104,2.0,76.0
2336,71.0,0,224,11.0,76.0
2337,41.0,0,104,14.0,76.0
2338,71.0,0,224,1.0,76.0
2339,67.0,0,224,12.0,76.0
2340,71.0,0,224,0.0,76.0
2341,60.0,0,119,15.0,76.0
2342,41.0,0,119,15.0,76.0
2343,57.0,0,119,15.0,76.0
2344,53.0,120,119,15.0,76.0
2345,67.0,0,224,12.0,76.0
2346,40.0,0,224,14.0,76.0
2347,40.0,0,224,2.0,76.0
2348,64.0,0,224,13.0,76.0
2349,55.0,0,239,15.0,76.0
2350,40.0,0,239,15.0,76.0
2351,59.0,120,239,15.0,76.0
2352,52.0,0,239,15.0,76.0
2353,72.0,0,344,1.0,76.0
2354,72.0,0,344,0.0,76.0
2355,72.0,0,344,11.0,76.0
2356,41.0,0,224,14.0,76.0
2357,69.0,0,224,13.0,76.0
2358,74.0,0,104,1.0,76.0
2359,74.0,120,104,11.0,76.0
2360,72.0,0,224,12.0,76.0
2361,74.0,0,104,0.0,76.0
2362,41.0,0,224,2.0,76.0
2363,57.0,240,239,15.0,76.0
2364,41.0,0,239,15.0,76.0
2365,60.0,0,239,15.0,76.0
2366,53.0,0,239,15.0,76.0
2367,43.0,0,224,14.0,76.0
2368,43.0,0,224,2.0,76.0
2369,67.0,0,224,13.0,76.0
2370,71.0,0,224,12.0,76.0
2371,55.0,0,239,15.0,76.0
2372,43.0,0,239,15.0,76.0
2373,62.0,0,239,15.0,76.0
2374,59.0,0,239,15.0,76.0
2375,74.0,0,344,1.0,76.0
2376,74.0,120,344,0.0,76.0
2377,74.0,0,344,11.0,76.0
2378,67.0,0,224,12.0,76.0
2379,62.0,0,224,13.0,76.0
2380,72.0,120,104,0.0,76.0
2381,72.0,0,104,11.0,76.0
2382,43.0,240,224,2.0,76.0
2383,43.0,0,224,14.0,76.0
2384,72.0,0,104,1.0,76.0
2385,43.0,0,239,15.0,76.0
2386,59.0,0,239,15.0,76.0
2387,55.0,0,239,15.0,76.0
2388,62.0,0,239,15.0,76.0
2389,36.0,120,719,2.0,76.0
2390,72.0,0,719,0.0,76.0
2391,67.0,0,719,12.0,76.0
2392,72.0,0,719,1.0,76.0
2393,36.0,0,719,15.0,76.0
2394,55.0,0,719,15.0,76.0
2395,36.0,0,719,14.0,76.0
2396,48.0,0,719,15.0,76.0
2397,52.0,0,719,15.0,76.0
2398,64.0,0,719,13.0,76.0
2399,72.0,0,719,11.0,76.0
2400,67.0,0,119,1.0,76.0
2401,75.0,0,119,0.0,76.0
2402,60.0,960,224,2.0,76.0
2403,74.0,0,104,0.0,76.0
2404,65.0,120,104,1.0,76.0
2405,67.0,0,224,1.0,76.0
2406,75.0,120,224,0.0,76.0
2407,53.0,0,464,2.0,76.0
2408,74.0,0,464,0.0,76.0
2409,65.0,240,464,1.0,76.0
2410,63.0,240,104,1.0,76.0
2411,72.0,0,104,0.0,76.0
2412,62.0,120,104,1.0,76.0
2413,71.0,0,104,0.0,76.0
2414,55.0,240,464,2.0,76.0
2415,63.0,120,164,1.0,76.0
2416,72.0,0,164,0.0,76.0
2417,65.0,180,29,1.0,76.0
2418,74.0,0,29,0.0,76.0
2419,51.0,0,224,2.0,76.0
2420,75.0,30,29,0.0,76.0
2421,67.0,0,29,1.0,76.0
2422,50.0,30,104,2.0,76.0
2423,48.0,120,104,2.0,76.0
2424,47.0,120,224,2.0,76.0
2425,77.0,0,464,0.0,76.0
2426,68.0,0,464,1.0,76.0
2427,67.0,240,104,1.0,76.0
2428,75.0,0,104,0.0,76.0
2429,65.0,0,104,1.0,76.0
2430,43.0,0,224,2.0,76.0
2431,74.0,120,104,0.0,76.0
2432,75.0,0,104,0.0,76.0
2433,67.0,0,104,1.0,76.0
2434,72.0,0,104,0.0,76.0
2435,48.0,120,224,2.0,76.0
2436,63.0,120,104,1.0,76.0
2437,44.0,120,104,2.0,76.0
2438,41.0,120,104,2.0,76.0
2439,43.0,120,224,2.0,76.0
2440,74.0,0,464,0.0,76.0
2441,65.0,0,464,1.0,76.0
2442,72.0,240,104,0.0,76.0
2443,63.0,0,104,1.0,76.0
2444,62.0,0,104,1.0,76.0
2445,71.0,120,104,0.0,76.0
2446,43.0,0,224,2.0,76.0
2447,72.0,0,104,0.0,76.0
2448,67.0,120,104,0.0,76.0
2449,48.0,120,224,2.0,76.0
2450,69.0,120,104,0.0,76.0
2451,63.0,0,344,1.0,76.0
2452,71.0,120,104,0.0,76.0
2453,62.0,0,104,1.0,76.0
2454,43.0,0,224,2.0,76.0
2455,63.0,120,104,1.0,76.0
2456,72.0,0,104,0.0,76.0
2457,39.0,0,224,2.0,76.0
2458,65.0,120,104,1.0,76.0
2459,74.0,0,104,0.0,76.0
2460,75.0,0,104,0.0,76.0
2461,67.0,120,104,1.0,76.0
2462,36.0,0,224,2.0,76.0
2463,68.0,0,104,1.0,76.0
2464,77.0,120,104,0.0,76.0
2465,75.0,0,224,0.0,76.0
2466,67.0,120,224,1.0,76.0
2467,41.0,0,464,2.0,76.0
2468,74.0,240,464,0.0,76.0
2469,43.0,240,224,2.0,76.0
2470,65.0,0,464,1.0,76.0
2471,63.0,0,104,1.0,76.0
2472,72.0,0,104,0.0,76.0
2473,62.0,0,104,1.0,76.0
2474,71.0,120,104,0.0,76.0
2475,72.0,0,224,0.0,76.0
2476,63.0,120,224,1.0,76.0
2477,55.0,240,464,2.0,76.0
2478,53.0,0,104,2.0,76.0
2479,51.0,120,104,2.0,76.0
2480,80.0,240,464,0.0,76.0
2481,50.0,120,224,2.0,76.0
2482,65.0,0,464,1.0,76.0
2483,79.0,0,104,0.0,76.0
2484,63.0,240,104,1.0,76.0
2485,77.0,120,104,0.0,76.0
2486,62.0,0,104,1.0,76.0
2487,46.0,0,224,2.0,76.0
2488,63.0,0,104,1.0,76.0
2489,79.0,0,104,0.0,76.0
2490,67.0,120,104,1.0,76.0
2491,75.0,0,104,0.0,76.0
2492,51.0,120,224,2.0,76.0
2493,48.0,0,104,2.0,76.0
2494,44.0,120,104,2.0,76.0
2495,46.0,120,224,2.0,76.0
2496,77.0,120,464,0.0,76.0
2497,68.0,0,464,1.0,76.0
2498,67.0,0,104,1.0,76.0
2499,75.0,240,104,0.0,76.0
2500,46.0,0,224,2.0,76.0
2501,65.0,0,104,1.0,76.0
2502,74.0,120,104,0.0,76.0
2503,67.0,0,704,1.0,76.0
2504,39.0,120,704,2.0,76.0
2505,75.0,0,704,0.0,76.0
2506,67.0,0,119,1.0,76.0
2507,75.0,720,119,0.0,76.0
2508,65.0,120,104,1.0,76.0
2509,74.0,0,104,0.0,76.0
2510,60.0,0,224,2.0,76.0
2511,67.0,120,224,1.0,76.0
2512,75.0,0,224,0.0,76.0
2513,53.0,0,464,2.0,76.0
2514,65.0,240,464,1.0,76.0
2515,74.0,0,464,0.0,76.0
2516,72.0,0,104,0.0,76.0
2517,63.0,240,104,1.0,76.0
2518,62.0,0,104,1.0,76.0
2519,71.0,120,104,0.0,76.0
2520,55.0,240,464,2.0,76.0
2521,63.0,0,164,1.0,76.0
2522,72.0,120,164,0.0,76.0
2523,74.0,0,29,0.0,76.0
2524,65.0,180,29,1.0,76.0
2525,51.0,0,224,2.0,76.0
2526,75.0,0,29,0.0,76.0
2527,67.0,30,29,1.0,76.0
2528,50.0,0,104,2.0,76.0
2529,48.0,120,104,2.0,76.0
2530,47.0,120,224,2.0,76.0
2531,77.0,30,464,0.0,76.0
2532,68.0,0,464,1.0,76.0
2533,67.0,240,104,1.0,76.0
2534,75.0,0,104,0.0,76.0
2535,74.0,0,104,0.0,76.0
2536,43.0,0,224,2.0,76.0
2537,65.0,120,104,1.0,76.0
2538,75.0,0,104,0.0,76.0
2539,67.0,0,104,1.0,76.0
2540,63.0,120,104,1.0,76.0
2541,48.0,120,224,2.0,76.0
2542,72.0,0,104,0.0,76.0
2543,44.0,0,104,2.0,76.0
2544,41.0,120,104,2.0,76.0
2545,43.0,120,224,2.0,76.0
2546,74.0,120,464,0.0,76.0
2547,65.0,0,464,1.0,76.0
2548,63.0,240,104,1.0,76.0
2549,72.0,0,104,0.0,76.0
2550,43.0,0,224,2.0,76.0
2551,71.0,120,104,0.0,76.0
2552,62.0,0,104,1.0,76.0
2553,72.0,0,104,0.0,76.0
2554,48.0,0,224,2.0,76.0
2555,67.0,120,104,0.0,76.0
2556,69.0,120,104,0.0,76.0
2557,63.0,120,344,1.0,76.0
2558,43.0,0,224,2.0,76.0
2559,71.0,120,104,0.0,76.0
2560,62.0,0,104,1.0,76.0
2561,63.0,0,104,1.0,76.0
2562,72.0,120,104,0.0,76.0
2563,39.0,0,224,2.0,76.0
2564,65.0,0,104,1.0,76.0
2565,74.0,120,104,0.0,76.0
2566,67.0,120,104,1.0,76.0
2567,75.0,0,104,0.0,76.0
2568,77.0,120,104,0.0,76.0
2569,36.0,0,224,2.0,76.0
2570,68.0,0,104,1.0,76.0
2571,67.0,120,224,1.0,76.0
2572,75.0,0,224,0.0,76.0
2573,41.0,0,464,2.0,76.0
2574,65.0,240,464,1.0,76.0
2575,74.0,0,464,0.0,76.0
2576,43.0,240,224,2.0,76.0
2577,72.0,240,104,0.0,76.0
2578,63.0,0,104,1.0,76.0
2579,71.0,120,104,0.0,76.0
2580,62.0,0,104,1.0,76.0
2581,63.0,120,224,1.0,76.0
2582,72.0,0,224,0.0,76.0
2583,55.0,0,464,2.0,76.0
2584,53.0,240,104,2.0,76.0
2585,51.0,120,104,2.0,76.0
2586,65.0,0,464,1.0,76.0
2587,80.0,0,464,0.0,76.0
2588,50.0,120,224,2.0,76.0
2589,79.0,0,104,0.0,76.0
2590,63.0,0,104,1.0,76.0
2591,62.0,120,104,1.0,76.0
2592,46.0,240,224,2.0,76.0
2593,77.0,0,104,0.0,76.0
2594,79.0,120,104,0.0,76.0
2595,63.0,0,104,1.0,76.0
2596,67.0,0,104,1.0,76.0
2597,75.0,120,104,0.0,76.0
2598,51.0,0,224,2.0,76.0
2599,48.0,0,104,2.0,76.0
2600,44.0,120,104,2.0,76.0
2601,46.0,120,224,2.0,76.0
2602,68.0,120,464,1.0,76.0
2603,77.0,0,464,0.0,76.0
2604,67.0,0,104,1.0,76.0
2605,75.0,240,104,0.0,76.0
2606,74.0,120,104,0.0,76.0
2607,65.0,0,104,1.0,76.0
2608,46.0,0,224,2.0,76.0
2609,67.0,0,704,1.0,76.0
2610,75.0,120,704,0.0,76.0
2611,39.0,0,704,2.0,76.0
2612,70.0,0,104,1.0,76.0
2613,79.0,0,104,0.0,76.0
2614,77.0,0,104,0.0,76.0
2615,69.0,120,104,1.0,76.0
2616,51.0,720,224,2.0,76.0
2617,70.0,0,224,1.0,76.0
2618,79.0,120,224,0.0,76.0
2619,50.0,0,464,2.0,76.0
2620,72.0,240,464,1.0,76.0
2621,81.0,0,464,0.0,76.0
2622,74.0,240,104,1.0,76.0
2623,75.0,120,104,1.0,76.0
2624,82.0,0,224,0.0,76.0
2625,48.0,240,464,2.0,76.0
2626,74.0,120,104,0.0,76.0
2627,46.0,0,224,2.0,76.0
2628,72.0,120,104,0.0,76.0
2629,77.0,0,224,1.0,76.0
2630,70.0,120,104,1.0,76.0
2631,74.0,0,104,0.0,76.0
2632,58.0,0,224,2.0,76.0
2633,75.0,120,104,0.0,76.0
2634,72.0,0,104,1.0,76.0
2635,74.0,0,104,1.0,76.0
2636,77.0,120,104,0.0,76.0
2637,75.0,0,104,0.0,76.0
2638,56.0,0,224,2.0,76.0
2639,72.0,120,104,1.0,76.0
2640,74.0,120,104,1.0,76.0
2641,77.0,0,104,0.0,76.0
2642,79.0,120,104,0.0,76.0
2643,55.0,0,224,2.0,76.0
2644,76.0,0,104,1.0,76.0
2645,77.0,0,104,1.0,76.0
2646,80.0,120,104,0.0,76.0
2647,53.0,0,224,2.0,76.0
2648,79.0,120,104,0.0,76.0
2649,76.0,0,104,1.0,76.0
2650,49.0,120,104,2.0,76.0
2651,46.0,120,104,2.0,76.0
2652,48.0,120,224,2.0,76.0
2653,79.0,0,464,1.0,76.0
2654,82.0,0,464,0.0,76.0
2655,80.0,240,104,0.0,76.0
2656,77.0,0,104,1.0,76.0
2657,36.0,0,224,2.0,76.0
2658,79.0,120,104,0.0,76.0
2659,76.0,0,104,1.0,76.0
2660,80.0,0,104,0.0,76.0
2661,41.0,0,224,2.0,76.0
2662,77.0,120,224,1.0,76.0
2663,79.0,120,104,0.0,76.0
2664,77.0,120,104,0.0,76.0
2665,53.0,0,224,2.0,76.0
2666,80.0,120,104,0.0,76.0
2667,72.0,0,224,1.0,76.0
2668,79.0,0,104,0.0,76.0
2669,47.0,120,224,2.0,76.0
2670,77.0,120,104,0.0,76.0
2671,74.0,0,224,1.0,76.0
2672,75.0,0,104,0.0,76.0
2673,55.0,0,224,2.0,76.0
2674,71.0,120,224,1.0,76.0
2675,74.0,120,104,0.0,76.0
2676,75.0,0,104,0.0,76.0
2677,72.0,120,104,1.0,76.0
2678,74.0,0,104,0.0,76.0
2679,71.0,120,104,1.0,76.0
2680,60.0,0,464,2.0,76.0
2681,74.0,120,464,1.0,76.0
2682,77.0,0,464,0.0,76.0
2683,75.0,240,104,0.0,76.0
2684,74.0,120,104,0.0,76.0
2685,59.0,240,464,2.0,76.0
2686,67.0,0,224,1.0,76.0
2687,75.0,120,104,0.0,76.0
2688,72.0,0,104,1.0,76.0
2689,67.0,0,104,1.0,76.0
2690,72.0,120,104,0.0,76.0
2691,60.0,0,464,2.0,76.0
2692,75.0,120,464,1.0,76.0
2693,78.0,0,464,0.0,76.0
2694,79.0,0,104,0.0,76.0
2695,74.0,240,104,1.0,76.0
2696,57.0,240,464,2.0,76.0
2697,81.0,120,104,0.0,76.0
2698,72.0,0,104,1.0,76.0
2699,70.0,120,224,1.0,76.0
2700,74.0,0,224,0.0,76.0
2701,58.0,0,224,2.0,76.0
2702,69.0,0,104,1.0,76.0
2703,72.0,240,104,0.0,76.0
2704,60.0,0,224,2.0,76.0
2705,70.0,0,104,0.0,76.0
2706,67.0,120,104,1.0,76.0
2707,72.0,0,104,0.0,76.0
2708,62.0,120,224,1.0,76.0
2709,62.0,0,224,2.0,76.0
2710,70.0,120,104,0.0,76.0
2711,69.0,0,104,0.0,76.0
2712,50.0,0,224,2.0,76.0
2713,66.0,120,224,1.0,76.0
2714,70.0,120,104,0.0,76.0
2715,55.0,0,224,2.0,76.0
2716,50.0,240,224,2.0,76.0
2717,43.0,240,224,2.0,76.0
2718,67.0,0,704,0.0,76.0
2719,67.0,120,719,1.0,76.0
2720,67.0,240,104,0.0,76.0
2721,53.0,0,224,2.0,76.0
2722,68.0,120,104,0.0,76.0
2723,70.0,120,104,0.0,76.0
2724,72.0,120,104,0.0,76.0
2725,67.0,0,104,1.0,76.0
2726,52.0,0,464,2.0,76.0
2727,68.0,120,104,1.0,76.0
2728,70.0,0,104,1.0,76.0
2729,72.0,120,104,1.0,76.0
2730,73.0,120,464,0.0,76.0
2731,72.0,0,104,0.0,76.0
2732,70.0,120,104,0.0,76.0
2733,55.0,120,464,2.0,76.0
2734,76.0,0,224,0.0,76.0
2735,73.0,120,464,1.0,76.0
2736,48.0,120,224,2.0,76.0
2737,72.0,240,104,1.0,76.0
2738,70.0,120,104,1.0,76.0
2739,56.0,0,224,2.0,76.0
2740,68.0,120,104,1.0,76.0
2741,65.0,120,104,1.0,76.0
2742,77.0,0,464,0.0,76.0
2743,50.0,0,224,2.0,76.0
2744,79.0,0,104,0.0,76.0
2745,59.0,120,224,2.0,76.0
2746,80.0,120,104,0.0,76.0
2747,79.0,120,104,0.0,76.0
2748,77.0,120,104,0.0,76.0
2749,51.0,0,224,2.0,76.0
2750,74.0,0,464,1.0,76.0
2751,75.0,120,104,0.0,76.0
2752,72.0,0,104,1.0,76.0
2753,79.0,120,104,0.0,76.0
2754,60.0,0,224,2.0,76.0
2755,70.0,0,104,1.0,76.0
2756,68.0,0,104,1.0,76.0
2757,77.0,0,104,0.0,76.0
2758,75.0,120,104,0.0,76.0
2759,53.0,120,224,2.0,76.0
2760,67.0,0,104,1.0,76.0
2761,74.0,120,104,0.0,76.0
2762,65.0,0,104,1.0,76.0
2763,63.0,120,104,1.0,76.0
2764,72.0,0,104,0.0,76.0
2765,62.0,0,224,2.0,76.0
2766,62.0,0,104,1.0,76.0
2767,71.0,120,104,0.0,76.0
2768,69.0,120,104,0.0,76.0
2769,60.0,0,104,1.0,76.0
2770,55.0,0,224,2.0,76.0
2771,71.0,0,104,0.0,76.0
2772,62.0,120,104,1.0,76.0
2773,72.0,120,104,0.0,76.0
2774,63.0,0,104,1.0,76.0
2775,53.0,0,224,2.0,76.0
2776,65.0,0,104,1.0,76.0
2777,74.0,120,104,0.0,76.0
2778,75.0,120,104,0.0,76.0
2779,67.0,0,104,1.0,76.0
2780,51.0,0,224,2.0,76.0
2781,68.0,120,104,1.0,76.0
2782,77.0,0,104,0.0,76.0
2783,65.0,120,104,1.0,76.0
2784,74.0,0,104,0.0,76.0
2785,50.0,0,224,2.0,76.0
2786,75.0,0,224,0.0,76.0
2787,67.0,0,224,1.0,76.0
2788,48.0,120,464,2.0,76.0
2789,65.0,0,464,1.0,76.0
2790,74.0,240,464,0.0,76.0
2791,63.0,240,104,1.0,76.0
2792,72.0,0,104,0.0,76.0
2793,43.0,240,464,2.0,76.0
2794,62.0,0,104,1.0,76.0
2795,71.0,120,104,0.0,76.0
2796,72.0,0,164,0.0,76.0
2797,63.0,0,164,1.0,76.0
2798,74.0,180,29,0.0,76.0
2799,65.0,0,29,1.0,76.0
2800,51.0,120,224,2.0,76.0
2801,67.0,30,29,1.0,76.0
2802,75.0,0,29,0.0,76.0
2803,50.0,30,104,2.0,76.0
2804,48.0,120,104,2.0,76.0
2805,68.0,0,464,1.0,76.0
2806,77.0,0,464,0.0,76.0
2807,47.0,120,224,2.0,76.0
2808,67.0,0,104,1.0,76.0
2809,75.0,0,104,0.0,76.0
2810,65.0,120,104,1.0,76.0
2811,43.0,240,224,2.0,76.0
2812,74.0,0,104,0.0,76.0
2813,67.0,120,104,1.0,76.0
2814,75.0,0,104,0.0,76.0
2815,63.0,0,104,1.0,76.0
2816,72.0,120,104,0.0,76.0
2817,48.0,0,224,2.0,76.0
2818,44.0,120,104,2.0,76.0
2819,41.0,120,104,2.0,76.0
2820,43.0,120,224,2.0,76.0
2821,74.0,0,464,0.0,76.0
2822,65.0,0,464,1.0,76.0
2823,63.0,240,104,1.0,76.0
2824,72.0,0,104,0.0,76.0
2825,62.0,120,104,1.0,76.0
2826,71.0,0,104,0.0,76.0
2827,43.0,0,224,2.0,76.0
2828,72.0,120,704,0.0,76.0
2829,36.0,0,704,2.0,76.0
2830,63.0,0,704,1.0,76.0
2831,70.0,720,104,1.0,76.0
2832,79.0,0,104,0.0,76.0
2833,51.0,0,224,2.0,76.0
2834,69.0,0,104,1.0,76.0
2835,77.0,120,104,0.0,76.0
2836,79.0,0,224,0.0,76.0
2837,70.0,120,224,1.0,76.0
2838,50.0,0,464,2.0,76.0
2839,81.0,0,464,0.0,76.0
2840,72.0,240,464,1.0,76.0
2841,74.0,240,104,1.0,76.0
2842,48.0,240,464,2.0,76.0
2843,82.0,0,224,0.0,76.0
2844,75.0,120,104,1.0,76.0
2845,74.0,0,104,0.0,76.0
2846,72.0,120,104,0.0,76.0
2847,46.0,120,224,2.0,76.0
2848,77.0,0,224,1.0,76.0
2849,70.0,0,104,1.0,76.0
2850,74.0,0,104,0.0,76.0
2851,58.0,120,224,2.0,76.0
2852,75.0,120,104,0.0,76.0
2853,72.0,0,104,1.0,76.0
2854,77.0,0,104,0.0,76.0
2855,74.0,120,104,1.0,76.0
2856,75.0,120,104,0.0,76.0
2857,72.0,0,104,1.0,76.0
2858,56.0,0,224,2.0,76.0
2859,77.0,0,104,0.0,76.0
2860,74.0,0,104,1.0,76.0
2861,55.0,120,224,2.0,76.0
2862,79.0,120,104,0.0,76.0
2863,76.0,0,104,1.0,76.0
2864,80.0,0,104,0.0,76.0
2865,77.0,120,104,1.0,76.0
2866,79.0,120,104,0.0,76.0
2867,53.0,0,224,2.0,76.0
2868,76.0,0,104,1.0,76.0
2869,49.0,120,104,2.0,76.0
2870,46.0,120,104,2.0,76.0
2871,48.0,120,224,2.0,76.0
2872,82.0,0,464,0.0,76.0
2873,79.0,0,464,1.0,76.0
2874,80.0,240,104,0.0,76.0
2875,77.0,0,104,1.0,76.0
2876,76.0,120,104,1.0,76.0
2877,79.0,0,104,0.0,76.0
2878,36.0,0,224,2.0,76.0
2879,80.0,0,104,0.0,76.0
2880,77.0,0,224,1.0,76.0
2881,41.0,120,224,2.0,76.0
2882,79.0,120,104,0.0,76.0
2883,77.0,0,104,0.0,76.0
2884,72.0,120,224,1.0,76.0
2885,53.0,0,224,2.0,76.0
2886,80.0,120,104,0.0,76.0
2887,79.0,0,104,0.0,76.0
2888,77.0,120,104,0.0,76.0
2889,74.0,120,224,1.0,76.0
2890,47.0,0,224,2.0,76.0
2891,75.0,0,104,0.0,76.0
2892,74.0,120,104,0.0,76.0
2893,71.0,0,224,1.0,76.0
2894,55.0,120,224,2.0,76.0
2895,75.0,0,104,0.0,76.0
2896,72.0,0,104,1.0,76.0
2897,71.0,0,104,1.0,76.0
2898,74.0,120,104,0.0,76.0
2899,60.0,120,464,2.0,76.0
2900,74.0,120,464,1.0,76.0
2901,77.0,0,464,0.0,76.0
2902,75.0,240,104,0.0,76.0
2903,59.0,240,464,2.0,76.0
2904,74.0,120,104,0.0,76.0
2905,67.0,0,224,1.0,76.0
2906,75.0,120,104,0.0,76.0
2907,72.0,0,104,1.0,76.0
2908,72.0,120,104,0.0,76.0
2909,67.0,0,104,1.0,76.0
2910,60.0,0,464,2.0,76.0
2911,78.0,0,464,0.0,76.0
2912,75.0,120,464,1.0,76.0
2913,74.0,240,104,1.0,76.0
2914,79.0,0,104,0.0,76.0
2915,57.0,240,464,2.0,76.0
2916,81.0,0,104,0.0,76.0
2917,72.0,120,104,1.0,76.0
2918,58.0,120,224,2.0,76.0
2919,74.0,0,224,0.0,76.0
2920,70.0,0,224,1.0,76.0
2921,69.0,240,104,1.0,76.0
2922,72.0,0,104,0.0,76.0
2923,70.0,0,104,0.0,76.0
2924,67.0,120,104,1.0,76.0
2925,60.0,0,224,2.0,76.0
2926,72.0,120,104,0.0,76.0
2927,62.0,0,224,2.0,76.0
2928,70.0,120,104,0.0,76.0
2929,62.0,0,224,1.0,76.0
2930,69.0,0,104,0.0,76.0
2931,50.0,120,224,2.0,76.0
2932,66.0,0,224,1.0,76.0
2933,70.0,120,104,0.0,76.0
2934,55.0,120,224,2.0,76.0
2935,50.0,240,224,2.0,76.0
2936,43.0,240,224,2.0,76.0
2937,67.0,0,704,0.0,76.0
2938,67.0,0,719,1.0,76.0
2939,67.0,240,104,0.0,76.0
2940,53.0,0,224,2.0,76.0
2941,68.0,120,104,0.0,76.0
2942,70.0,0,104,0.0,76.0
2943,72.0,120,104,0.0,76.0
2944,67.0,120,104,1.0,76.0
2945,52.0,120,464,2.0,76.0
2946,68.0,120,104,1.0,76.0
2947,70.0,120,104,1.0,76.0
2948,72.0,120,104,1.0,76.0
2949,73.0,0,464,0.0,76.0
2950,72.0,120,104,0.0,76.0
2951,55.0,0,464,2.0,76.0
2952,70.0,120,104,0.0,76.0
2953,48.0,120,224,2.0,76.0
2954,73.0,0,464,1.0,76.0
2955,76.0,0,224,0.0,76.0
2956,72.0,0,104,1.0,76.0
2957,56.0,240,224,2.0,76.0
2958,70.0,120,104,1.0,76.0
2959,68.0,0,104,1.0,76.0
2960,77.0,0,464,0.0,76.0
2961,65.0,120,104,1.0,76.0
2962,50.0,120,224,2.0,76.0
2963,79.0,120,104,0.0,76.0
2964,80.0,120,104,0.0,76.0
2965,59.0,0,224,2.0,76.0
2966,79.0,120,104,0.0,76.0
2967,51.0,0,224,2.0,76.0
2968,77.0,120,104,0.0,76.0
2969,74.0,0,464,1.0,76.0
2970,75.0,0,104,0.0,76.0
2971,72.0,0,104,1.0,76.0
2972,70.0,0,104,1.0,76.0
2973,79.0,120,104,0.0,76.0
2974,60.0,120,224,2.0,76.0
2975,68.0,0,104,1.0,76.0
2976,77.0,120,104,0.0,76.0
2977,53.0,0,224,2.0,76.0
2978,75.0,0,104,0.0,76.0
2979,67.0,120,104,1.0,76.0
2980,74.0,0,104,0.0,76.0
2981,65.0,120,104,1.0,76.0
2982,62.0,0,224,2.0,76.0
2983,72.0,0,104,0.0,76.0
2984,63.0,120,104,1.0,76.0
2985,71.0,120,104,0.0,76.0
2986,62.0,0,104,1.0,76.0
2987,60.0,120,104,1.0,76.0
2988,55.0,0,224,2.0,76.0
2989,69.0,0,104,0.0,76.0
2990,62.0,120,104,1.0,76.0
2991,71.0,0,104,0.0,76.0
2992,53.0,0,224,2.0,76.0
2993,72.0,0,104,0.0,76.0
2994,63.0,120,104,1.0,76.0
2995,65.0,0,104,1.0,76.0
2996,74.0,120,104,0.0,76.0
2997,75.0,120,104,0.0,76.0
2998,67.0,0,104,1.0,76.0
2999,51.0,0,224,2.0,76.0
3000,77.0,0,104,0.0,76.0
3001,68.0,120,104,1.0,76.0
3002,50.0,0,224,2.0,76.0
3003,74.0,120,104,0.0,76.0
3004,65.0,0,104,1.0,76.0
3005,75.0,0,224,0.0,76.0
3006,67.0,0,224,1.0,76.0
3007,48.0,120,464,2.0,76.0
3008,65.0,240,464,1.0,76.0
3009,74.0,0,464,0.0,76.0
3010,63.0,240,104,1.0,76.0
3011,72.0,0,104,0.0,76.0
3012,43.0,240,464,2.0,76.0
3013,71.0,0,104,0.0,76.0
3014,62.0,120,104,1.0,76.0
3015,72.0,0,164,0.0,76.0
3016,63.0,0,164,1.0,76.0
3017,65.0,180,29,1.0,76.0
3018,74.0,0,29,0.0,76.0
3019,51.0,120,224,2.0,76.0
3020,67.0,30,29,1.0,76.0
3021,75.0,0,29,0.0,76.0
3022,50.0,30,104,2.0,76.0
3023,48.0,120,104,2.0,76.0
3024,77.0,0,464,0.0,76.0
3025,47.0,120,224,2.0,76.0
3026,68.0,0,464,1.0,76.0
3027,67.0,0,104,1.0,76.0
3028,75.0,0,104,0.0,76.0
3029,43.0,240,224,2.0,76.0
3030,74.0,0,104,0.0,76.0
3031,65.0,120,104,1.0,76.0
3032,67.0,120,104,1.0,76.0
3033,75.0,0,104,0.0,76.0
3034,63.0,120,104,1.0,76.0
3035,72.0,0,104,0.0,76.0
3036,48.0,0,224,2.0,76.0
3037,44.0,120,104,2.0,76.0
3038,41.0,120,104,2.0,76.0
3039,65.0,0,464,1.0,76.0
3040,43.0,120,224,2.0,76.0
3041,74.0,0,464,0.0,76.0
3042,63.0,240,104,1.0,76.0
3043,72.0,0,104,0.0,76.0
3044,71.0,120,104,0.0,76.0
3045,62.0,0,104,1.0,76.0
3046,43.0,0,224,2.0,76.0
3047,36.0,0,719,2.0,76.0
3048,63.0,120,719,1.0,76.0
3049,72.0,0,719,0.0,76.0
3050,64.0,0,104,0.0,76.0
3051,64.0,960,104,11.0,76.0
3052,64.0,0,104,1.0,76.0
3053,65.0,120,104,11.0,76.0
3054,65.0,0,104,0.0,76.0
3055,65.0,0,104,1.0,76.0
3056,67.0,0,224,0.0,76.0
3057,67.0,120,224,1.0,76.0
3058,67.0,0,224,11.0,76.0
3059,64.0,240,104,12.0,76.0
3060,48.0,0,104,2.0,76.0
3061,48.0,0,104,14.0,76.0
3062,67.0,0,119,15.0,76.0
3063,48.0,0,119,15.0,76.0
3064,60.0,0,119,15.0,76.0
3065,64.0,0,119,15.0,76.0
3066,55.0,0,224,13.0,76.0
3067,50.0,0,104,14.0,76.0
3068,65.0,0,104,12.0,76.0
3069,50.0,0,104,2.0,76.0
3070,50.0,0,119,15.0,76.0
3071,69.0,0,119,15.0,76.0
3072,62.0,0,119,15.0,76.0
3073,65.0,120,119,15.0,76.0
3074,72.0,0,464,11.0,76.0
3075,72.0,0,464,1.0,76.0
3076,67.0,0,224,12.0,76.0
3077,60.0,120,224,13.0,76.0
3078,52.0,0,224,2.0,76.0
3079,52.0,0,224,14.0,76.0
3080,72.0,0,464,0.0,76.0
3081,64.0,0,239,15.0,76.0
3082,72.0,0,239,15.0,76.0
3083,52.0,0,239,15.0,76.0
3084,67.0,0,239,15.0,76.0
3085,67.0,0,224,11.0,76.0
3086,55.0,0,224,14.0,76.0
3087,59.0,0,224,12.0,76.0
3088,55.0,0,224,2.0,76.0
3089,67.0,0,224,1.0,76.0
3090,62.0,0,224,13.0,76.0
3091,67.0,0,224,0.0,76.0
3092,67.0,0,239,15.0,76.0
3093,74.0,240,239,15.0,76.0
3094,71.0,0,239,15.0,76.0
3095,55.0,0,239,15.0,76.0
3096,60.0,0,104,12.0,76.0
3097,64.0,0,104,11.0,76.0
3098,64.0,0,104,1.0,76.0
3099,64.0,0,104,0.0,76.0
3100,60.0,0,224,14.0,76.0
3101,62.0,0,104,1.0,76.0
3102,60.0,0,224,2.0,76.0
3103,59.0,120,104,12.0,76.0
3104,62.0,0,104,11.0,76.0
3105,64.0,0,224,13.0,76.0
3106,62.0,0,104,0.0,76.0
3107,76.0,240,239,15.0,76.0
3108,72.0,0,239,15.0,76.0
3109,79.0,0,239,15.0,76.0
3110,60.0,0,239,15.0,76.0
3111,67.0,0,104,13.0,76.0
3112,64.0,0,104,11.0,76.0
3113,60.0,0,104,12.0,76.0
3114,64.0,0,104,0.0,76.0
3115,64.0,0,104,1.0,76.0
3116,65.0,0,104,11.0,76.0
3117,65.0,0,104,0.0,76.0
3118,65.0,120,104,13.0,76.0
3119,65.0,0,104,1.0,76.0
3120,62.0,0,104,12.0,76.0
3121,55.0,120,224,14.0,76.0
3122,55.0,0,224,2.0,76.0
3123,71.0,0,239,15.0,76.0
3124,74.0,0,239,15.0,76.0
3125,55.0,0,239,15.0,76.0
3126,67.0,0,239,15.0,76.0
3127,64.0,0,224,13.0,76.0
3128,67.0,0,224,1.0,76.0
3129,67.0,0,224,11.0,76.0
3130,67.0,0,224,0.0,76.0
3131,48.0,120,224,2.0,76.0
3132,64.0,0,224,12.0,76.0
3133,48.0,0,224,14.0,76.0
3134,67.0,0,239,15.0,76.0
3135,64.0,0,239,15.0,76.0
3136,60.0,0,239,15.0,76.0
3137,48.0,0,239,15.0,76.0
3138,69.0,240,104,0.0,76.0
3139,69.0,0,104,1.0,76.0
3140,69.0,0,104,11.0,76.0
3141,71.0,0,104,0.0,76.0
3142,65.0,0,224,12.0,76.0
3143,53.0,0,224,14.0,76.0
3144,60.0,0,224,13.0,76.0
3145,53.0,0,224,2.0,76.0
3146,71.0,120,104,1.0,76.0
3147,71.0,0,104,11.0,76.0
3148,65.0,0,239,15.0,76.0
3149,53.0,0,239,15.0,76.0
3150,72.0,0,239,15.0,76.0
3151,69.0,0,239,15.0,76.0
3152,72.0,0,104,11.0,76.0
3153,72.0,0,104,1.0,76.0
3154,72.0,0,104,0.0,76.0
3155,74.0,0,104,1.0,76.0
3156,52.0,0,224,2.0,76.0
3157,74.0,120,104,11.0,76.0
3158,74.0,0,104,0.0,76.0
3159,52.0,120,224,14.0,76.0
3160,67.0,0,224,12.0,76.0
3161,60.0,0,224,13.0,76.0
3162,72.0,0,239,15.0,76.0
3163,52.0,0,239,15.0,76.0
3164,67.0,0,239,15.0,76.0
3165,64.0,0,239,15.0,76.0
3166,76.0,0,104,1.0,76.0
3167,76.0,0,104,11.0,76.0
3168,76.0,0,104,0.0,76.0
3169,77.0,0,104,0.0,76.0
3170,77.0,120,104,1.0,76.0
3171,50.0,0,224,2.0,76.0
3172,65.0,0,224,13.0,76.0
3173,50.0,120,224,14.0,76.0
3174,71.0,0,224,12.0,76.0
3175,77.0,0,104,11.0,76.0
3176,50.0,0,239,15.0,76.0
3177,69.0,0,239,15.0,76.0
3178,62.0,0,239,15.0,76.0
3179,65.0,0,239,15.0,76.0
3180,79.0,0,224,1.0,76.0
3181,52.0,0,224,2.0,76.0
3182,64.0,0,224,13.0,76.0
3183,52.0,0,224,14.0,76.0
3184,79.0,0,224,0.0,76.0
3185,72.0,0,224,12.0,76.0
3186,79.0,0,224,11.0,76.0
3187,64.0,120,239,15.0,76.0
3188,67.0,0,239,15.0,76.0
3189,52.0,0,239,15.0,76.0
3190,72.0,0,239,15.0,76.0
3191,81.0,0,224,0.0,76.0
3192,72.0,0,224,12.0,76.0
3193,53.0,240,224,14.0,76.0
3194,81.0,0,224,11.0,76.0
3195,81.0,0,224,1.0,76.0
3196,60.0,0,224,13.0,76.0
3197,53.0,0,224,2.0,76.0
3198,69.0,0,239,15.0,76.0
3199,65.0,0,239,15.0,76.0
3200,72.0,0,239,15.0,76.0
3201,53.0,0,239,15.0,76.0
3202,74.0,0,104,11.0,76.0
3203,74.0,0,104,0.0,76.0
3204,74.0,0,104,1.0,76.0
3205,72.0,0,104,11.0,76.0
3206,72.0,0,104,0.0,76.0
3207,55.0,0,224,2.0,76.0
3208,55.0,240,224,14.0,76.0
3209,72.0,120,104,1.0,76.0
3210,67.0,0,224,13.0,76.0
3211,71.0,0,224,12.0,76.0
3212,55.0,0,239,15.0,76.0
3213,67.0,0,239,15.0,76.0
3214,74.0,0,239,15.0,76.0
3215,71.0,0,239,15.0,76.0
3216,74.0,120,104,11.0,76.0
3217,74.0,0,104,0.0,76.0
3218,74.0,0,104,1.0,76.0
3219,66.0,0,224,13.0,76.0
3220,76.0,120,104,0.0,76.0
3221,72.0,0,224,12.0,76.0
3222,57.0,0,224,2.0,76.0
3223,57.0,0,224,14.0,76.0
3224,76.0,0,104,11.0,76.0
3225,76.0,0,104,1.0,76.0
3226,69.0,0,239,15.0,76.0
3227,57.0,0,239,15.0,76.0
3228,72.0,0,239,15.0,76.0
3229,76.0,0,239,15.0,76.0
3230,59.0,0,224,2.0,76.0
3231,67.0,0,224,13.0,76.0
3232,74.0,0,224,0.0,76.0
3233,74.0,0,224,1.0,76.0
3234,74.0,0,224,12.0,76.0
3235,59.0,0,224,14.0,76.0
3236,74.0,0,224,11.0,76.0
3237,79.0,0,239,15.0,76.0
3238,74.0,0,239,15.0,76.0
3239,71.0,0,239,15.0,76.0
3240,59.0,120,239,15.0,76.0
3241,67.0,240,104,13.0,76.0
3242,76.0,0,104,11.0,76.0
3243,76.0,0,104,1.0,76.0
3244,76.0,0,104,0.0,76.0
3245,78.0,0,104,11.0,76.0
3246,78.0,120,104,1.0,76.0
3247,60.0,0,224,14.0,76.0
3248,72.0,0,224,12.0,76.0
3249,60.0,0,224,2.0,76.0
3250,78.0,0,104,0.0,76.0
3251,69.0,0,104,13.0,76.0
3252,60.0,0,239,15.0,76.0
3253,72.0,0,239,15.0,76.0
3254,79.0,0,239,15.0,76.0
3255,76.0,0,239,15.0,76.0
3256,79.0,0,224,11.0,76.0
3257,79.0,120,224,0.0,76.0
3258,79.0,0,224,1.0,76.0
3259,59.0,0,224,2.0,76.0
3260,59.0,0,224,14.0,76.0
3261,79.0,0,239,15.0,76.0
3262,59.0,0,239,15.0,76.0
3263,71.0,0,239,13.0,76.0
3264,74.0,0,239,15.0,76.0
3265,74.0,0,239,12.0,76.0
3266,71.0,0,239,15.0,76.0
3267,71.0,0,104,11.0,76.0
3268,71.0,0,104,1.0,76.0
3269,71.0,0,104,0.0,76.0
3270,57.0,240,224,14.0,76.0
3271,72.0,0,104,11.0,76.0
3272,72.0,0,104,0.0,76.0
3273,72.0,120,104,1.0,76.0
3274,57.0,0,224,2.0,76.0
3275,57.0,0,239,15.0,76.0
3276,72.0,0,239,15.0,76.0
3277,76.0,0,239,15.0,76.0
3278,69.0,0,239,15.0,76.0
3279,74.0,0,224,11.0,76.0
3280,55.0,0,224,14.0,76.0
3281,74.0,0,224,1.0,76.0
3282,74.0,120,224,0.0,76.0
3283,55.0,0,224,2.0,76.0
3284,71.0,0,239,15.0,76.0
3285,74.0,0,239,15.0,76.0
3286,67.0,0,239,15.0,76.0
3287,55.0,0,239,15.0,76.0
3288,67.0,0,104,12.0,76.0
3289,76.0,0,104,1.0,76.0
3290,76.0,0,104,0.0,76.0
3291,76.0,0,104,11.0,76.0
3292,59.0,0,224,13.0,76.0
3293,78.0,0,104,1.0,76.0
3294,78.0,0,104,11.0,76.0
3295,69.0,120,104,12.0,76.0
3296,54.0,240,224,14.0,76.0
3297,78.0,0,104,0.0,76.0
3298,54.0,0,224,2.0,76.0
3299,72.0,0,239,15.0,76.0
3300,66.0,0,239,15.0,76.0
3301,69.0,0,239,15.0,76.0
3302,54.0,0,239,15.0,76.0
3303,79.0,0,224,1.0,76.0
3304,52.0,0,224,2.0,76.0
3305,52.0,0,224,14.0,76.0
3306,79.0,0,224,11.0,76.0
3307,79.0,0,224,0.0,76.0
3308,71.0,0,239,12.0,76.0
3309,64.0,0,239,13.0,76.0
3310,71.0,0,239,15.0,76.0
3311,52.0,0,239,15.0,76.0
3312,67.0,120,239,15.0,76.0
3313,64.0,0,239,15.0,76.0
3314,69.0,0,104,11.0,76.0
3315,69.0,240,104,1.0,76.0
3316,69.0,0,104,0.0,76.0
3317,71.0,0,104,1.0,76.0
3318,50.0,0,224,2.0,76.0
3319,71.0,0,104,0.0,76.0
3320,71.0,120,104,11.0,76.0
3321,50.0,0,224,14.0,76.0
3322,65.0,0,239,15.0,76.0
3323,50.0,0,239,15.0,76.0
3324,62.0,0,239,15.0,76.0
3325,69.0,0,239,15.0,76.0
3326,72.0,0,224,1.0,76.0
3327,52.0,0,224,2.0,76.0
3328,52.0,0,224,14.0,76.0
3329,72.0,0,224,11.0,76.0
3330,72.0,120,224,0.0,76.0
3331,52.0,0,239,15.0,76.0
3332,64.0,0,239,15.0,76.0
3333,67.0,0,239,15.0,76.0
3334,71.0,0,239,15.0,76.0
3335,54.0,0,224,14.0,76.0
3336,57.0,0,224,13.0,76.0
3337,74.0,240,224,11.0,76.0
3338,69.0,0,224,12.0,76.0
3339,74.0,0,224,0.0,76.0
3340,74.0,0,224,1.0,76.0
3341,54.0,0,224,2.0,76.0
3342,66.0,0,239,15.0,76.0
3343,69.0,0,239,15.0,76.0
3344,74.0,0,239,15.0,76.0
3345,54.0,0,239,15.0,76.0
3346,62.0,0,224,13.0,76.0
3347,67.0,0,224,12.0,76.0
3348,55.0,0,224,2.0,76.0
3349,55.0,0,224,14.0,76.0
3350,74.0,0,239,15.0,76.0
3351,67.0,0,239,15.0,76.0
3352,71.0,0,239,15.0,76.0
3353,55.0,0,239,15.0,76.0
3354,71.0,0,344,0.0,76.0
3355,71.0,240,344,11.0,76.0
3356,71.0,0,344,1.0,76.0
3357,69.0,0,104,11.0,76.0
3358,64.0,0,224,13.0,76.0
3359,67.0,0,224,12.0,76.0
3360,48.0,240,224,14.0,76.0
3361,48.0,0,224,2.0,76.0
3362,69.0,120,104,1.0,76.0
3363,69.0,0,104,0.0,76.0
3364,69.0,0,239,15.0,76.0
3365,64.0,0,239,15.0,76.0
3366,60.0,0,239,15.0,76.0
3367,67.0,0,239,15.0,76.0
3368,48.0,0,239,15.0,76.0
3369,50.0,0,224,14.0,76.0
3370,67.0,120,224,12.0,76.0
3371,50.0,0,224,2.0,76.0
3372,62.0,0,224,13.0,76.0
3373,69.0,0,239,15.0,76.0
3374,62.0,0,239,15.0,76.0
3375,50.0,0,239,15.0,76.0
3376,67.0,0,239,15.0,76.0
3377,69.0,0,344,0.0,76.0
3378,69.0,0,344,1.0,76.0
3379,69.0,0,344,11.0,76.0
3380,66.0,0,224,12.0,76.0
3381,38.0,0,224,2.0,76.0
3382,67.0,0,104,0.0,76.0
3383,67.0,120,104,11.0,76.0
3384,60.0,240,224,13.0,76.0
3385,38.0,0,224,14.0,76.0
3386,67.0,0,104,1.0,76.0
3387,54.0,0,239,15.0,76.0
3388,57.0,0,239,15.0,76.0
3389,38.0,0,239,15.0,76.0
3390,50.0,0,239,15.0,76.0
3391,43.0,120,224,2.0,76.0
3392,43.0,0,224,14.0,76.0
3393,43.0,0,239,15.0,76.0
3394,55.0,0,239,15.0,76.0
3395,59.0,0,239,15.0,76.0
3396,62.0,0,239,15.0,76.0
3397,50.0,0,224,2.0,76.0
3398,50.0,240,224,14.0,76.0
3399,69.0,0,239,15.0,76.0
3400,50.0,0,239,15.0,76.0
3401,62.0,0,239,15.0,76.0
3402,65.0,0,239,15.0,76.0
3403,67.0,0,704,1.0,76.0
3404,67.0,0,704,11.0,76.0
3405,67.0,0,704,0.0,76.0
3406,55.0,0,239,14.0,76.0
3407,55.0,0,239,2.0,76.0
3408,62.0,0,719,12.0,76.0
3409,67.0,0,239,15.0,76.0
3410,55.0,0,239,15.0,76.0
3411,71.0,0,239,15.0,76.0
3412,74.0,240,239,15.0,76.0
3413,59.0,0,719,13.0,76.0
3414,64.0,240,104,1.0,76.0
3415,64.0,0,104,11.0,76.0
3416,64.0,0,104,0.0,76.0
3417,65.0,120,104,1.0,76.0
3418,65.0,0,104,11.0,76.0
3419,65.0,0,104,0.0,76.0
3420,67.0,120,224,0.0,76.0
3421,67.0,0,224,11.0,76.0
3422,67.0,0,224,1.0,76.0
3423,64.0,0,104,12.0,76.0
3424,48.0,240,104,14.0,76.0
3425,48.0,0,104,2.0,76.0
3426,67.0,0,119,15.0,76.0
3427,64.0,0,119,15.0,76.0
3428,48.0,0,119,15.0,76.0
3429,60.0,0,119,15.0,76.0
3430,55.0,0,224,13.0,76.0
3431,50.0,0,104,14.0,76.0
3432,65.0,0,104,12.0,76.0
3433,50.0,0,104,2.0,76.0
3434,69.0,120,119,15.0,76.0
3435,65.0,0,119,15.0,76.0
3436,50.0,0,119,15.0,76.0
3437,62.0,0,119,15.0,76.0
3438,52.0,120,224,2.0,76.0
3439,72.0,0,464,1.0,76.0
3440,67.0,0,224,12.0,76.0
3441,52.0,0,224,14.0,76.0
3442,72.0,0,464,11.0,76.0
3443,60.0,0,224,13.0,76.0
3444,72.0,0,464,0.0,76.0
3445,67.0,0,239,15.0,76.0
3446,64.0,0,239,15.0,76.0
3447,52.0,0,239,15.0,76.0
3448,72.0,0,239,15.0,76.0
3449,67.0,0,224,1.0,76.0
3450,62.0,0,224,13.0,76.0
3451,67.0,0,224,11.0,76.0
3452,59.0,0,224,12.0,76.0
3453,67.0,0,224,0.0,76.0
3454,55.0,0,224,2.0,76.0
3455,55.0,0,224,14.0,76.0
3456,74.0,0,239,15.0,76.0
3457,55.0,0,239,15.0,76.0
3458,71.0,0,239,15.0,76.0
3459,67.0,240,239,15.0,76.0
3460,64.0,0,104,11.0,76.0
3461,60.0,0,104,12.0,76.0
3462,64.0,0,104,1.0,76.0
3463,64.0,240,104,0.0,76.0
3464,62.0,0,104,1.0,76.0
3465,62.0,0,104,0.0,76.0
3466,60.0,0,224,14.0,76.0
3467,59.0,0,104,12.0,76.0
3468,60.0,0,224,2.0,76.0
3469,64.0,0,224,13.0,76.0
3470,62.0,120,104,11.0,76.0
3471,76.0,0,239,15.0,76.0
3472,60.0,0,239,15.0,76.0
3473,72.0,0,239,15.0,76.0
3474,79.0,0,239,15.0,76.0
3475,67.0,0,104,13.0,76.0
3476,60.0,120,104,12.0,76.0
3477,64.0,0,104,0.0,76.0
3478,64.0,0,104,11.0,76.0
3479,64.0,0,104,1.0,76.0
3480,65.0,0,104,0.0,76.0
3481,65.0,0,104,13.0,76.0
3482,62.0,0,104,12.0,76.0
3483,65.0,120,104,1.0,76.0
3484,55.0,0,224,14.0,76.0
3485,55.0,0,224,2.0,76.0
3486,65.0,0,104,11.0,76.0
3487,74.0,0,239,15.0,76.0
3488,67.0,0,239,15.0,76.0
3489,55.0,0,239,15.0,76.0
3490,71.0,0,239,15.0,76.0
3491,48.0,0,224,14.0,76.0
3492,67.0,0,224,1.0,76.0
3493,64.0,0,224,12.0,76.0
3494,48.0,0,224,2.0,76.0
3495,64.0,0,224,13.0,76.0
3496,67.0,120,224,0.0,76.0
3497,67.0,0,224,11.0,76.0
3498,64.0,0,239,15.0,76.0
3499,60.0,0,239,15.0,76.0
3500,48.0,0,239,15.0,76.0
3501,67.0,0,239,15.0,76.0
3502,69.0,0,104,11.0,76.0
3503,69.0,0,104,1.0,76.0
3504,69.0,0,104,0.0,76.0
3505,71.0,0,104,0.0,76.0
3506,71.0,0,104,1.0,76.0
3507,65.0,0,224,12.0,76.0
3508,53.0,0,224,2.0,76.0
3509,60.0,240,224,13.0,76.0
3510,71.0,120,104,11.0,76.0
3511,53.0,0,224,14.0,76.0
3512,53.0,0,239,15.0,76.0
3513,65.0,0,239,15.0,76.0
3514,69.0,0,239,15.0,76.0
3515,72.0,0,239,15.0,76.0
3516,72.0,0,104,1.0,76.0
3517,72.0,0,104,11.0,76.0
3518,72.0,0,104,0.0,76.0
3519,74.0,120,104,0.0,76.0
3520,52.0,0,224,14.0,76.0
3521,67.0,120,224,12.0,76.0
3522,74.0,0,104,11.0,76.0
3523,74.0,0,104,1.0,76.0
3524,60.0,0,224,13.0,76.0
3525,52.0,0,224,2.0,76.0
3526,72.0,0,239,15.0,76.0
3527,64.0,0,239,15.0,76.0
3528,52.0,0,239,15.0,76.0
3529,67.0,0,239,15.0,76.0
3530,76.0,0,104,11.0,76.0
3531,76.0,0,104,1.0,76.0
3532,76.0,0,104,0.0,76.0
3533,77.0,0,104,11.0,76.0
3534,65.0,0,224,13.0,76.0
3535,77.0,0,104,0.0,76.0
3536,77.0,120,104,1.0,76.0
3537,71.0,0,224,12.0,76.0
3538,50.0,120,224,2.0,76.0
3539,50.0,0,224,14.0,76.0
3540,69.0,0,239,15.0,76.0
3541,62.0,0,239,15.0,76.0
3542,65.0,0,239,15.0,76.0
3543,50.0,0,239,15.0,76.0
3544,72.0,0,224,12.0,76.0
3545,64.0,0,224,13.0,76.0
3546,79.0,0,224,1.0,76.0
3547,79.0,120,224,11.0,76.0
3548,79.0,0,224,0.0,76.0
3549,52.0,0,224,2.0,76.0
3550,52.0,0,224,14.0,76.0
3551,64.0,0,239,15.0,76.0
3552,67.0,0,239,15.0,76.0
3553,72.0,0,239,15.0,76.0
3554,52.0,0,239,15.0,76.0
3555,53.0,0,224,14.0,76.0
3556,60.0,0,224,13.0,76.0
3557,81.0,0,224,11.0,76.0
3558,81.0,0,224,0.0,76.0
3559,53.0,0,224,2.0,76.0
3560,72.0,0,224,12.0,76.0
3561,81.0,0,224,1.0,76.0
3562,65.0,0,239,15.0,76.0
3563,69.0,240,239,15.0,76.0
3564,72.0,0,239,15.0,76.0
3565,53.0,0,239,15.0,76.0
3566,74.0,0,104,1.0,76.0
3567,74.0,0,104,11.0,76.0
3568,74.0,0,104,0.0,76.0
3569,55.0,0,224,14.0,76.0
3570,67.0,0,224,13.0,76.0
3571,55.0,0,224,2.0,76.0
3572,72.0,120,104,0.0,76.0
3573,72.0,0,104,1.0,76.0
3574,72.0,0,104,11.0,76.0
3575,71.0,0,224,12.0,76.0
3576,55.0,0,239,15.0,76.0
3577,74.0,240,239,15.0,76.0
3578,71.0,0,239,15.0,76.0
3579,67.0,0,239,15.0,76.0
3580,74.0,0,104,11.0,76.0
3581,74.0,0,104,0.0,76.0
3582,74.0,0,104,1.0,76.0
3583,76.0,120,104,11.0,76.0
3584,72.0,0,224,12.0,76.0
3585,76.0,0,104,0.0,76.0
3586,57.0,120,224,2.0,76.0
3587,76.0,0,104,1.0,76.0
3588,66.0,0,224,13.0,76.0
3589,57.0,0,224,14.0,76.0
3590,57.0,0,239,15.0,76.0
3591,69.0,0,239,15.0,76.0
3592,72.0,0,239,15.0,76.0
3593,76.0,0,239,15.0,76.0
3594,59.0,0,224,14.0,76.0
3595,74.0,0,224,1.0,76.0
3596,59.0,0,224,2.0,76.0
3597,74.0,0,224,12.0,76.0
3598,74.0,120,224,11.0,76.0
3599,74.0,0,224,0.0,76.0
3600,67.0,0,224,13.0,76.0
3601,71.0,0,239,15.0,76.0
3602,59.0,0,239,15.0,76.0
3603,79.0,0,239,15.0,76.0
3604,74.0,0,239,15.0,76.0
3605,76.0,0,104,1.0,76.0
3606,76.0,0,104,11.0,76.0
3607,76.0,0,104,0.0,76.0
3608,67.0,0,104,13.0,76.0
3609,78.0,0,104,1.0,76.0
3610,60.0,0,224,14.0,76.0
3611,69.0,0,104,13.0,76.0
3612,72.0,240,224,12.0,76.0
3613,78.0,120,104,11.0,76.0
3614,60.0,0,224,2.0,76.0
3615,78.0,0,104,0.0,76.0
3616,60.0,0,239,15.0,76.0
3617,76.0,0,239,15.0,76.0
3618,72.0,0,239,15.0,76.0
3619,79.0,0,239,15.0,76.0
3620,79.0,0,224,11.0,76.0
3621,79.0,0,224,1.0,76.0
3622,59.0,0,224,2.0,76.0
3623,59.0,120,224,14.0,76.0
3624,79.0,0,224,0.0,76.0
3625,71.0,0,239,13.0,76.0
3626,59.0,0,239,15.0,76.0
3627,79.0,0,239,15.0,76.0
3628,74.0,0,239,15.0,76.0
3629,74.0,0,239,12.0,76.0
3630,71.0,0,239,15.0,76.0
3631,71.0,240,104,0.0,76.0
3632,71.0,0,104,11.0,76.0
3633,71.0,0,104,1.0,76.0
3634,72.0,0,104,11.0,76.0
3635,57.0,0,224,14.0,76.0
3636,57.0,0,224,2.0,76.0
3637,72.0,0,104,1.0,76.0
3638,72.0,120,104,0.0,76.0
3639,76.0,0,239,15.0,76.0
3640,72.0,0,239,15.0,76.0
3641,69.0,0,239,15.0,76.0
3642,57.0,0,239,15.0,76.0
3643,55.0,0,224,14.0,76.0
3644,74.0,0,224,11.0,76.0
3645,74.0,0,224,0.0,76.0
3646,55.0,0,224,2.0,76.0
3647,74.0,0,224,1.0,76.0
3648,55.0,0,239,15.0,76.0
3649,74.0,0,239,15.0,76.0
3650,71.0,0,239,15.0,76.0
3651,67.0,120,239,15.0,76.0
3652,67.0,0,104,12.0,76.0
3653,76.0,0,104,11.0,76.0
3654,76.0,0,104,1.0,76.0
3655,76.0,0,104,0.0,76.0
3656,78.0,0,104,0.0,76.0
3657,78.0,0,104,1.0,76.0
3658,59.0,240,224,13.0,76.0
3659,54.0,0,224,2.0,76.0
3660,54.0,0,224,14.0,76.0
3661,78.0,0,104,11.0,76.0
3662,69.0,120,104,12.0,76.0
3663,69.0,0,239,15.0,76.0
3664,54.0,0,239,15.0,76.0
3665,66.0,0,239,15.0,76.0
3666,72.0,0,239,15.0,76.0
3667,79.0,0,224,1.0,76.0
3668,79.0,0,224,0.0,76.0
3669,79.0,120,224,11.0,76.0
3670,52.0,0,224,2.0,76.0
3671,52.0,0,224,14.0,76.0
3672,64.0,0,239,13.0,76.0
3673,71.0,0,239,15.0,76.0
3674,64.0,0,239,15.0,76.0
3675,52.0,0,239,15.0,76.0
3676,67.0,0,239,15.0,76.0
3677,71.0,0,239,12.0,76.0
3678,69.0,0,104,11.0,76.0
3679,69.0,0,104,1.0,76.0
3680,69.0,240,104,0.0,76.0
3681,71.0,0,104,0.0,76.0
3682,50.0,0,224,14.0,76.0
3683,71.0,0,104,11.0,76.0
3684,71.0,120,104,1.0,76.0
3685,50.0,0,224,2.0,76.0
3686,62.0,0,239,15.0,76.0
3687,65.0,0,239,15.0,76.0
3688,69.0,0,239,15.0,76.0
3689,50.0,0,239,15.0,76.0
3690,72.0,0,224,0.0,76.0
3691,72.0,0,224,1.0,76.0
3692,52.0,0,224,14.0,76.0
3693,52.0,0,224,2.0,76.0
3694,72.0,120,224,11.0,76.0
3695,67.0,0,239,15.0,76.0
3696,71.0,0,239,15.0,76.0
3697,64.0,0,239,15.0,76.0
3698,52.0,0,239,15.0,76.0
3699,69.0,0,224,12.0,76.0
3700,57.0,0,224,13.0,76.0
3701,54.0,0,224,2.0,76.0
3702,54.0,0,224,14.0,76.0
3703,74.0,0,224,0.0,76.0
3704,74.0,0,224,1.0,76.0
3705,74.0,0,224,11.0,76.0
3706,69.0,240,239,15.0,76.0
3707,54.0,0,239,15.0,76.0
3708,74.0,0,239,15.0,76.0
3709,66.0,0,239,15.0,76.0
3710,62.0,0,224,13.0,76.0
3711,55.0,0,224,2.0,76.0
3712,55.0,240,224,14.0,76.0
3713,67.0,0,224,12.0,76.0
3714,55.0,0,239,15.0,76.0
3715,71.0,0,239,15.0,76.0
3716,67.0,0,239,15.0,76.0
3717,74.0,0,239,15.0,76.0
3718,71.0,0,344,0.0,76.0
3719,71.0,0,344,11.0,76.0
3720,71.0,0,344,1.0,76.0
3721,69.0,0,104,11.0,76.0
3722,48.0,0,224,2.0,76.0
3723,69.0,0,104,1.0,76.0
3724,64.0,0,224,13.0,76.0
3725,69.0,120,104,0.0,76.0
3726,48.0,0,224,14.0,76.0
3727,67.0,0,224,12.0,76.0
3728,60.0,0,239,15.0,76.0
3729,64.0,0,239,15.0,76.0
3730,69.0,0,239,15.0,76.0
3731,67.0,240,239,15.0,76.0
3732,48.0,0,239,15.0,76.0
3733,67.0,0,224,12.0,76.0
3734,50.0,0,224,2.0,76.0
3735,50.0,0,224,14.0,76.0
3736,62.0,0,224,13.0,76.0
3737,67.0,0,239,15.0,76.0
3738,69.0,0,239,15.0,76.0
3739,50.0,0,239,15.0,76.0
3740,62.0,120,239,15.0,76.0
3741,69.0,0,344,11.0,76.0
3742,69.0,0,344,0.0,76.0
3743,69.0,0,344,1.0,76.0
3744,66.0,240,224,12.0,76.0
3745,67.0,120,104,1.0,76.0
3746,60.0,0,224,13.0,76.0
3747,38.0,0,224,14.0,76.0
3748,38.0,0,224,2.0,76.0
3749,67.0,0,104,11.0,76.0
3750,67.0,0,104,0.0,76.0
3751,54.0,0,239,15.0,76.0
3752,38.0,0,239,15.0,76.0
3753,57.0,0,239,15.0,76.0
3754,50.0,0,239,15.0,76.0
3755,43.0,0,224,14.0,76.0
3756,43.0,0,224,2.0,76.0
3757,43.0,0,239,15.0,76.0
3758,55.0,0,239,15.0,76.0
3759,59.0,0,239,15.0,76.0
3760,62.0,0,239,15.0,76.0
3761,50.0,0,224,2.0,76.0
3762,50.0,0,224,14.0,76.0
3763,69.0,0,239,15.0,76.0
3764,50.0,240,239,15.0,76.0
3765,62.0,0,239,15.0,76.0
3766,65.0,0,239,15.0,76.0
3767,67.0,0,704,11.0,76.0
3768,67.0,120,704,1.0,76.0
3769,67.0,0,704,0.0,76.0
3770,55.0,0,239,15.0,76.0
3771,74.0,0,239,15.0,76.0
3772,71.0,0,239,15.0,76.0
3773,67.0,0,239,15.0,76.0
3774,55.0,240,239,2.0,76.0
3775,55.0,0,239,14.0,76.0
3776,59.0,0,719,13.0,76.0
3777,62.0,0,719,12.0,76.0
3778,71.0,240,104,1.0,76.0
3779,71.0,0,104,0.0,76.0
3780,71.0,0,104,11.0,76.0
3781,72.0,120,104,0.0,76.0
3782,72.0,0,104,1.0,76.0
3783,72.0,0,104,11.0,76.0
3784,74.0,120,224,11.0,76.0
3785,74.0,0,224,1.0,76.0
3786,74.0,0,224,0.0,76.0
3787,55.0,0,104,2.0,76.0
3788,55.0,0,104,14.0,76.0
3789,71.0,0,104,13.0,76.0
3790,55.0,240,119,15.0,76.0
3791,67.0,0,119,15.0,76.0
3792,74.0,0,119,15.0,76.0
3793,71.0,0,119,15.0,76.0
3794,74.0,0,224,12.0,76.0
3795,53.0,0,104,2.0,76.0
3796,53.0,0,104,14.0,76.0
3797,69.0,0,104,13.0,76.0
3798,69.0,0,119,15.0,76.0
3799,65.0,120,119,15.0,76.0
3800,53.0,0,119,15.0,76.0
3801,72.0,0,119,15.0,76.0
3802,52.0,0,224,14.0,76.0
3803,79.0,0,464,1.0,76.0
3804,79.0,0,464,11.0,76.0
3805,73.0,0,224,12.0,76.0
3806,79.0,0,464,0.0,76.0
3807,67.0,0,224,13.0,76.0
3808,52.0,0,224,2.0,76.0
3809,64.0,120,239,15.0,76.0
3810,67.0,0,239,15.0,76.0
3811,52.0,0,239,15.0,76.0
3812,71.0,0,239,15.0,76.0
3813,55.0,0,224,2.0,76.0
3814,65.0,0,224,13.0,76.0
3815,82.0,0,224,1.0,76.0
3816,82.0,0,224,11.0,76.0
3817,74.0,240,224,12.0,76.0
3818,55.0,0,224,14.0,76.0
3819,82.0,0,224,0.0,76.0
3820,70.0,0,239,15.0,76.0
3821,67.0,0,239,15.0,76.0
3822,74.0,0,239,15.0,76.0
3823,55.0,0,239,15.0,76.0
3824,73.0,240,104,1.0,76.0
3825,73.0,0,104,0.0,76.0
3826,69.0,0,104,12.0,76.0
3827,73.0,0,104,11.0,76.0
3828,64.0,0,104,13.0,76.0
3829,71.0,0,104,0.0,76.0
3830,57.0,0,224,14.0,76.0
3831,57.0,0,224,2.0,76.0
3832,62.0,0,104,13.0,76.0
3833,67.0,0,104,12.0,76.0
3834,71.0,120,104,11.0,76.0
3835,71.0,0,104,1.0,76.0
3836,69.0,0,239,15.0,76.0
3837,76.0,0,239,15.0,76.0
3838,57.0,0,239,15.0,76.0
3839,73.0,0,239,15.0,76.0
3840,64.0,0,104,13.0,76.0
3841,73.0,0,104,11.0,76.0
3842,73.0,120,104,0.0,76.0
3843,73.0,0,104,1.0,76.0
3844,69.0,0,104,12.0,76.0
3845,65.0,0,104,13.0,76.0
3846,45.0,0,224,2.0,76.0
3847,45.0,0,224,14.0,76.0
3848,71.0,120,104,12.0,76.0
3849,74.0,0,104,11.0,76.0
3850,74.0,0,104,1.0,76.0
3851,74.0,0,104,0.0,76.0
3852,57.0,0,239,15.0,76.0
3853,61.0,0,239,15.0,76.0
3854,45.0,0,239,15.0,76.0
3855,64.0,0,239,15.0,76.0
3856,57.0,0,224,2.0,76.0
3857,73.0,120,224,12.0,76.0
3858,76.0,0,224,1.0,76.0
3859,57.0,0,224,14.0,76.0
3860,76.0,0,224,11.0,76.0
3861,64.0,0,224,13.0,76.0
3862,76.0,0,224,0.0,76.0
3863,69.0,0,239,15.0,76.0
3864,76.0,0,239,15.0,76.0
3865,57.0,0,239,15.0,76.0
3866,73.0,0,239,15.0,76.0
3867,74.0,0,104,12.0,76.0
3868,77.0,0,104,1.0,76.0
3869,77.0,0,104,11.0,76.0
3870,77.0,0,104,0.0,76.0
3871,55.0,0,224,2.0,76.0
3872,79.0,0,104,1.0,76.0
3873,55.0,0,224,14.0,76.0
3874,79.0,0,104,0.0,76.0
3875,76.0,0,104,12.0,76.0
3876,79.0,120,104,11.0,76.0
3877,57.0,0,224,13.0,76.0
3878,67.0,240,239,15.0,76.0
3879,71.0,0,239,15.0,76.0
3880,74.0,0,239,15.0,76.0
3881,55.0,0,239,15.0,76.0
3882,81.0,0,104,0.0,76.0
3883,81.0,0,104,11.0,76.0
3884,81.0,0,104,1.0,76.0
3885,79.0,0,104,1.0,76.0
3886,53.0,0,224,2.0,76.0
3887,77.0,0,224,12.0,76.0
3888,79.0,0,104,0.0,76.0
3889,62.0,0,224,13.0,76.0
3890,53.0,120,224,14.0,76.0
3891,79.0,120,104,11.0,76.0
3892,65.0,0,239,15.0,76.0
3893,74.0,0,239,15.0,76.0
3894,53.0,0,239,15.0,76.0
3895,69.0,0,239,15.0,76.0
3896,81.0,0,104,1.0,76.0
3897,81.0,0,104,11.0,76.0
3898,76.0,0,104,12.0,76.0
3899,81.0,0,104,0.0,76.0
3900,82.0,0,104,1.0,76.0
3901,82.0,120,104,11.0,76.0
3902,74.0,0,104,12.0,76.0
3903,82.0,0,104,0.0,76.0
3904,55.0,120,224,14.0,76.0
3905,55.0,0,224,2.0,76.0
3906,67.0,0,224,13.0,76.0
3907,55.0,0,239,15.0,76.0
3908,76.0,0,239,15.0,76.0
3909,71.0,0,239,15.0,76.0
3910,67.0,0,239,15.0,76.0
3911,81.0,0,104,11.0,76.0
3912,81.0,0,104,0.0,76.0
3913,81.0,0,104,1.0,76.0
3914,57.0,0,224,2.0,76.0
3915,79.0,0,104,1.0,76.0
3916,79.0,120,104,0.0,76.0
3917,73.0,120,224,12.0,76.0
3918,79.0,0,104,11.0,76.0
3919,57.0,0,224,14.0,76.0
3920,64.0,0,224,13.0,76.0
3921,76.0,0,239,15.0,76.0
3922,57.0,0,239,15.0,76.0
3923,73.0,0,239,15.0,76.0
3924,69.0,0,239,15.0,76.0
3925,77.0,0,104,0.0,76.0
3926,77.0,0,104,1.0,76.0
3927,77.0,0,104,11.0,76.0
3928,76.0,120,104,0.0,76.0
3929,76.0,0,104,1.0,76.0
3930,69.0,0,224,13.0,76.0
3931,73.0,0,224,12.0,76.0
3932,76.0,0,104,11.0,76.0
3933,45.0,0,224,2.0,76.0
3934,45.0,0,224,14.0,76.0
3935,61.0,120,239,15.0,76.0
3936,45.0,0,239,15.0,76.0
3937,57.0,0,239,15.0,76.0
3938,64.0,0,239,15.0,76.0
3939,77.0,0,104,11.0,76.0
3940,77.0,0,104,0.0,76.0
3941,77.0,0,104,1.0,76.0
3942,69.0,0,104,13.0,76.0
3943,79.0,120,104,1.0,76.0
3944,70.0,0,104,13.0,76.0
3945,79.0,0,104,0.0,76.0
3946,50.0,120,224,2.0,76.0
3947,74.0,0,224,12.0,76.0
3948,50.0,0,224,14.0,76.0
3949,79.0,0,104,11.0,76.0
3950,69.0,0,239,15.0,76.0
3951,50.0,0,239,15.0,76.0
3952,65.0,0,239,15.0,76.0
3953,62.0,0,239,15.0,76.0
3954,69.0,0,104,13.0,76.0
3955,77.0,0,104,1.0,76.0
3956,77.0,0,104,0.0,76.0
3957,77.0,0,104,11.0,76.0
3958,76.0,120,104,1.0,76.0
3959,76.0,0,104,0.0,76.0
3960,45.0,0,224,14.0,76.0
3961,67.0,0,104,13.0,76.0
3962,69.0,0,224,12.0,76.0
3963,76.0,0,104,11.0,76.0
3964,45.0,0,224,2.0,76.0
3965,64.0,0,239,15.0,76.0
3966,57.0,0,239,15.0,76.0
3967,45.0,120,239,15.0,76.0
3968,60.0,0,239,15.0,76.0
3969,65.0,0,104,13.0,76.0
3970,74.0,0,224,0.0,76.0
3971,74.0,0,224,11.0,76.0
3972,67.0,120,104,13.0,76.0
3973,74.0,0,224,1.0,76.0
3974,38.0,0,224,14.0,76.0
3975,69.0,0,224,12.0,76.0
3976,38.0,0,224,2.0,76.0
3977,57.0,0,239,15.0,76.0
3978,50.0,0,239,15.0,76.0
3979,53.0,120,239,15.0,76.0
3980,38.0,0,239,15.0,76.0
3981,56.0,120,104,2.0,76.0
3982,56.0,0,104,14.0,76.0
3983,83.0,0,104,11.0,76.0
3984,83.0,0,104,1.0,76.0
3985,65.0,0,104,13.0,76.0
3986,74.0,0,104,12.0,76.0
3987,83.0,0,104,0.0,76.0
3988,68.0,0,119,15.0,76.0
3989,71.0,0,119,15.0,76.0
3990,74.0,0,119,15.0,76.0
3991,56.0,0,119,15.0,76.0
3992,84.0,0,104,0.0,76.0
3993,57.0,0,104,2.0,76.0
3994,57.0,0,104,14.0,76.0
3995,84.0,0,104,1.0,76.0
3996,84.0,0,104,11.0,76.0
3997,72.0,0,104,12.0,76.0
3998,64.0,120,104,13.0,76.0
3999,72.0,0,119,15.0,76.0
4000,57.0,0,119,15.0,76.0
4001,76.0,0,119,15.0,76.0
4002,69.0,0,119,15.0,76.0
4003,71.0,0,104,12.0,76.0
4004,72.0,120,104,12.0,76.0
4005,62.0,0,224,13.0,76.0
4006,59.0,0,224,14.0,76.0
4007,86.0,0,224,11.0,76.0
4008,86.0,0,224,1.0,76.0
4009,59.0,0,224,2.0,76.0
4010,86.0,120,224,0.0,76.0
4011,59.0,0,239,15.0,76.0
4012,71.0,0,239,15.0,76.0
4013,74.0,0,239,15.0,76.0
4014,79.0,0,239,15.0,76.0
4015,59.0,0,104,14.0,76.0
4016,59.0,0,104,2.0,76.0
4017,71.0,0,104,12.0,76.0
4018,80.0,0,104,11.0,76.0
4019,62.0,0,104,13.0,76.0
4020,80.0,120,104,0.0,76.0
4021,80.0,0,104,1.0,76.0
4022,74.0,0,119,15.0,76.0
4023,80.0,0,119,15.0,76.0
4024,59.0,0,119,15.0,76.0
4025,71.0,0,119,15.0,76.0
4026,81.0,0,104,11.0,76.0
4027,64.0,0,104,13.0,76.0
4028,81.0,0,104,1.0,76.0
4029,81.0,0,104,0.0,76.0
4030,60.0,0,104,2.0,76.0
4031,60.0,0,104,14.0,76.0
4032,69.0,0,104,12.0,76.0
4033,80.0,0,119,15.0,76.0
4034,76.0,0,119,15.0,76.0
4035,72.0,0,119,15.0,76.0
4036,60.0,120,119,15.0,76.0
4037,65.0,0,224,13.0,76.0
4038,83.0,120,224,0.0,76.0
4039,68.0,0,224,12.0,76.0
4040,83.0,0,224,11.0,76.0
4041,83.0,0,224,1.0,76.0
4042,62.0,0,239,14.0,76.0
4043,62.0,0,239,2.0,76.0
4044,74.0,0,239,15.0,76.0
4045,62.0,0,239,15.0,76.0
4046,77.0,0,239,15.0,76.0
4047,80.0,0,239,15.0,76.0
4048,59.0,240,104,13.0,76.0
4049,74.0,0,104,0.0,76.0
4050,59.0,0,104,12.0,76.0
4051,74.0,0,104,1.0,76.0
4052,74.0,0,104,11.0,76.0
4053,76.0,0,104,11.0,76.0
4054,76.0,0,104,0.0,76.0
4055,60.0,120,104,13.0,76.0
4056,60.0,0,104,12.0,76.0
4057,76.0,0,104,1.0,76.0
4058,62.0,0,224,13.0,76.0
4059,62.0,0,224,12.0,76.0
4060,77.0,120,224,0.0,76.0
4061,77.0,0,224,11.0,76.0
4062,77.0,0,224,1.0,76.0
4063,62.0,0,104,12.0,76.0
4064,71.0,240,104,0.0,76.0
4065,71.0,0,104,11.0,76.0
4066,71.0,0,104,1.0,76.0
4067,62.0,0,104,13.0,76.0
4068,64.0,0,104,13.0,76.0
4069,72.0,0,104,1.0,76.0
4070,72.0,0,104,11.0,76.0
4071,64.0,0,104,12.0,76.0
4072,72.0,120,104,0.0,76.0
4073,74.0,120,224,0.0,76.0
4074,74.0,0,224,1.0,76.0
4075,65.0,0,224,13.0,76.0
4076,65.0,0,224,12.0,76.0
4077,74.0,0,224,11.0,76.0
4078,50.0,0,224,2.0,76.0
4079,68.0,0,224,0.0,76.0
4080,59.0,0,224,13.0,76.0
4081,64.0,0,224,12.0,76.0
4082,68.0,0,224,1.0,76.0
4083,68.0,0,224,11.0,76.0
4084,50.0,0,224,14.0,76.0
4085,62.0,240,239,15.0,76.0
4086,71.0,0,239,15.0,76.0
4087,68.0,0,239,15.0,76.0
4088,64.0,0,239,15.0,76.0
4089,50.0,0,239,15.0,76.0
4090,48.0,0,104,2.0,76.0
4091,48.0,0,104,14.0,76.0
4092,48.0,240,119,15.0,76.0
4093,60.0,0,119,15.0,76.0
4094,64.0,0,119,15.0,76.0
4095,69.0,0,119,15.0,76.0
4096,64.0,0,224,12.0,76.0
4097,47.0,0,104,2.0,76.0
4098,47.0,0,104,14.0,76.0
4099,60.0,0,224,13.0,76.0
4100,65.0,120,119,15.0,76.0
4101,59.0,0,119,15.0,76.0
4102,62.0,0,119,15.0,76.0
4103,47.0,0,119,15.0,76.0
4104,69.0,0,344,11.0,76.0
4105,48.0,0,104,2.0,76.0
4106,69.0,0,344,0.0,76.0
4107,48.0,0,104,14.0,76.0
4108,69.0,0,344,1.0,76.0
4109,64.0,0,119,15.0,76.0
4110,69.0,0,119,15.0,76.0
4111,48.0,0,119,15.0,76.0
4112,60.0,0,119,15.0,76.0
4113,69.0,0,224,12.0,76.0
4114,50.0,0,104,14.0,76.0
4115,71.0,0,104,1.0,76.0
4116,50.0,120,104,2.0,76.0
4117,64.0,120,224,13.0,76.0
4118,71.0,0,104,11.0,76.0
4119,71.0,0,104,0.0,76.0
4120,69.0,0,119,15.0,76.0
4121,62.0,0,119,15.0,76.0
4122,65.0,0,119,15.0,76.0
4123,50.0,0,119,15.0,76.0
4124,64.0,0,224,13.0,76.0
4125,52.0,0,224,14.0,76.0
4126,52.0,120,224,2.0,76.0
4127,71.0,0,239,15.0,76.0
4128,64.0,0,239,15.0,76.0
4129,68.0,0,239,15.0,76.0
4130,52.0,0,239,15.0,76.0
4131,71.0,0,344,0.0,76.0
4132,71.0,0,344,11.0,76.0
4133,68.0,0,344,12.0,76.0
4134,71.0,0,344,1.0,76.0
4135,69.0,120,104,1.0,76.0
4136,69.0,0,104,0.0,76.0
4137,40.0,0,224,2.0,76.0
4138,40.0,0,224,14.0,76.0
4139,59.0,0,224,13.0,76.0
4140,64.0,0,104,12.0,76.0
4141,69.0,0,104,11.0,76.0
4142,40.0,0,239,15.0,76.0
4143,56.0,240,239,15.0,76.0
4144,52.0,0,239,15.0,76.0
4145,59.0,0,239,15.0,76.0
4146,45.0,0,224,14.0,76.0
4147,45.0,0,224,2.0,76.0
4148,45.0,0,239,15.0,76.0
4149,57.0,0,239,15.0,76.0
4150,60.0,0,239,15.0,76.0
4151,64.0,0,239,15.0,76.0
4152,52.0,0,224,14.0,76.0
4153,52.0,0,224,2.0,76.0
4154,52.0,0,239,15.0,76.0
4155,71.0,0,239,15.0,76.0
4156,64.0,240,239,15.0,76.0
4157,67.0,0,239,15.0,76.0
4158,69.0,0,704,0.0,76.0
4159,69.0,0,704,1.0,76.0
4160,69.0,120,704,11.0,76.0
4161,57.0,0,239,15.0,76.0
4162,57.0,0,239,14.0,76.0
4163,69.0,240,239,15.0,76.0
4164,76.0,0,239,15.0,76.0
4165,57.0,0,239,2.0,76.0
4166,60.0,0,719,13.0,76.0
4167,64.0,0,719,12.0,76.0
4168,72.0,0,239,15.0,76.0
4169,76.0,240,104,11.0,76.0
4170,76.0,0,104,0.0,76.0
4171,76.0,0,104,1.0,76.0
4172,77.0,120,104,11.0,76.0
4173,77.0,0,104,0.0,76.0
4174,77.0,0,104,1.0,76.0
4175,79.0,0,224,1.0,76.0
4176,79.0,120,224,0.0,76.0
4177,79.0,0,224,11.0,76.0
4178,64.0,0,104,13.0,76.0
4179,48.0,0,104,2.0,76.0
4180,79.0,0,104,12.0,76.0
4181,48.0,0,104,14.0,76.0
4182,64.0,0,119,15.0,76.0
4183,48.0,0,119,15.0,76.0
4184,67.0,0,119,15.0,76.0
4185,60.0,0,119,15.0,76.0
4186,50.0,0,104,2.0,76.0
4187,65.0,0,104,13.0,76.0
4188,50.0,0,104,14.0,76.0
4189,77.0,120,104,12.0,76.0
4190,65.0,0,119,15.0,76.0
4191,50.0,0,119,15.0,76.0
4192,69.0,0,119,15.0,76.0
4193,62.0,0,119,15.0,76.0
4194,76.0,120,104,12.0,76.0
4195,52.0,0,224,2.0,76.0
4196,84.0,0,464,1.0,76.0
4197,84.0,0,464,11.0,76.0
4198,67.0,0,224,13.0,76.0
4199,52.0,0,224,14.0,76.0
4200,84.0,240,464,0.0,76.0
4201,74.0,120,104,12.0,76.0
4202,72.0,0,239,15.0,76.0
4203,64.0,0,239,15.0,76.0
4204,67.0,0,239,15.0,76.0
4205,52.0,0,239,15.0,76.0
4206,52.0,0,104,14.0,76.0
4207,76.0,0,104,12.0,76.0
4208,67.0,0,104,13.0,76.0
4209,52.0,120,104,2.0,76.0
4210,52.0,0,119,15.0,76.0
4211,72.0,0,119,15.0,76.0
4212,67.0,0,119,15.0,76.0
4213,64.0,0,119,15.0,76.0
4214,69.0,120,104,13.0,76.0
4215,53.0,0,104,2.0,76.0
4216,79.0,0,224,0.0,76.0
4217,79.0,0,224,11.0,76.0
4218,72.0,0,104,12.0,76.0
4219,53.0,0,104,14.0,76.0
4220,79.0,0,224,1.0,76.0
4221,69.0,0,119,15.0,76.0
4222,53.0,0,119,15.0,76.0
4223,72.0,0,119,15.0,76.0
4224,65.0,0,119,15.0,76.0
4225,70.0,0,104,13.0,76.0
4226,76.0,0,104,0.0,76.0
4227,70.0,0,104,12.0,76.0
4228,76.0,120,104,11.0,76.0
4229,76.0,0,104,1.0,76.0
4230,74.0,0,104,11.0,76.0
4231,74.0,0,104,1.0,76.0
4232,72.0,0,104,12.0,76.0
4233,55.0,0,224,14.0,76.0
4234,74.0,0,104,0.0,76.0
4235,55.0,0,224,2.0,76.0
4236,69.0,120,104,13.0,76.0
4237,76.0,0,239,15.0,76.0
4238,67.0,0,239,15.0,76.0
4239,70.0,0,239,15.0,76.0
4240,55.0,0,239,15.0,76.0
4241,76.0,0,104,1.0,76.0
4242,76.0,0,104,0.0,76.0
4243,67.0,0,104,13.0,76.0
4244,55.0,0,104,14.0,76.0
4245,55.0,0,104,2.0,76.0
4246,70.0,0,104,12.0,76.0
4247,76.0,0,104,11.0,76.0
4248,55.0,0,119,15.0,76.0
4249,67.0,0,119,15.0,76.0
4250,76.0,120,119,15.0,76.0
4251,70.0,0,119,15.0,76.0
4252,57.0,0,104,14.0,76.0
4253,77.0,0,104,11.0,76.0
4254,77.0,0,104,0.0,76.0
4255,65.0,120,104,13.0,76.0
4256,69.0,0,104,12.0,76.0
4257,77.0,0,104,1.0,76.0
4258,57.0,0,104,2.0,76.0
4259,69.0,0,119,15.0,76.0
4260,57.0,0,119,15.0,76.0
4261,76.0,0,119,15.0,76.0
4262,72.0,0,119,15.0,76.0
4263,79.0,0,224,11.0,76.0
4264,58.0,120,224,14.0,76.0
4265,58.0,0,224,2.0,76.0
4266,79.0,0,224,0.0,76.0
4267,64.0,0,224,13.0,76.0
4268,79.0,0,224,1.0,76.0
4269,67.0,0,224,12.0,76.0
4270,70.0,0,239,15.0,76.0
4271,74.0,0,239,15.0,76.0
4272,58.0,0,239,15.0,76.0
4273,77.0,0,239,15.0,76.0
4274,70.0,0,224,11.0,76.0
4275,52.0,0,224,14.0,76.0
4276,70.0,0,224,0.0,76.0
4277,67.0,0,224,12.0,76.0
4278,60.0,0,224,13.0,76.0
4279,70.0,240,224,1.0,76.0
4280,52.0,0,224,2.0,76.0
4281,67.0,0,239,15.0,76.0
4282,72.0,0,239,15.0,76.0
4283,70.0,0,239,15.0,76.0
4284,52.0,0,239,15.0,76.0
4285,64.0,0,239,15.0,76.0
4286,60.0,0,224,13.0,76.0
4287,65.0,0,224,12.0,76.0
4288,53.0,0,224,14.0,76.0
4289,69.0,0,224,11.0,76.0
4290,53.0,0,224,2.0,76.0
4291,69.0,0,224,1.0,76.0
4292,69.0,240,224,0.0,76.0
4293,65.0,0,239,15.0,76.0
4294,72.0,0,239,15.0,76.0
4295,53.0,0,239,15.0,76.0
4296,69.0,0,239,15.0,76.0
4297,74.0,0,104,1.0,76.0
4298,74.0,0,104,11.0,76.0
4299,58.0,0,104,13.0,76.0
4300,74.0,0,104,0.0,76.0
4301,60.0,0,104,13.0,76.0
4302,72.0,120,104,0.0,76.0
4303,46.0,0,224,2.0,76.0
4304,72.0,0,104,11.0,76.0
4305,72.0,0,104,1.0,76.0
4306,65.0,0,224,12.0,76.0
4307,46.0,0,224,14.0,76.0
4308,58.0,0,239,15.0,76.0
4309,46.0,0,239,15.0,76.0
4310,65.0,0,239,15.0,76.0
4311,62.0,240,239,15.0,76.0
4312,70.0,120,104,1.0,76.0
4313,70.0,0,104,0.0,76.0
4314,70.0,0,104,11.0,76.0
4315,43.0,0,224,2.0,76.0
4316,69.0,0,104,11.0,76.0
4317,69.0,120,104,0.0,76.0
4318,69.0,0,104,1.0,76.0
4319,62.0,0,224,13.0,76.0
4320,65.0,0,224,12.0,76.0
4321,43.0,0,224,14.0,76.0
4322,62.0,0,239,15.0,76.0
4323,58.0,0,239,15.0,76.0
4324,43.0,0,239,15.0,76.0
4325,55.0,0,239,15.0,76.0
4326,65.0,0,239,15.0,76.0
4327,70.0,0,104,11.0,76.0
4328,70.0,0,104,1.0,76.0
4329,70.0,0,104,0.0,76.0
4330,48.0,0,224,14.0,76.0
4331,67.0,0,104,0.0,76.0
4332,60.0,0,224,13.0,76.0
4333,64.0,0,224,12.0,76.0
4334,48.0,0,224,2.0,76.0
4335,67.0,0,104,1.0,76.0
4336,67.0,120,104,11.0,76.0
4337,48.0,0,239,15.0,76.0
4338,60.0,0,239,15.0,76.0
4339,67.0,0,239,15.0,76.0
4340,70.0,120,239,15.0,76.0
4341,64.0,0,239,15.0,76.0
4342,69.0,0,104,1.0,76.0
4343,60.0,0,104,13.0,76.0
4344,69.0,0,104,11.0,76.0
4345,69.0,0,104,0.0,76.0
4346,41.0,0,224,14.0,76.0
4347,62.0,0,104,13.0,76.0
4348,70.0,0,104,0.0,76.0
4349,41.0,0,224,2.0,76.0
4350,65.0,0,224,12.0,76.0
4351,70.0,120,104,1.0,76.0
4352,70.0,0,104,11.0,76.0
4353,57.0,0,239,15.0,76.0
4354,53.0,0,239,15.0,76.0
4355,60.0,120,239,15.0,76.0
4356,41.0,0,239,15.0,76.0
4357,53.0,0,104,14.0,76.0
4358,60.0,0,104,13.0,76.0
4359,69.0,0,104,1.0,76.0
4360,53.0,0,104,2.0,76.0
4361,69.0,120,104,11.0,76.0
4362,69.0,0,104,0.0,76.0
4363,53.0,0,119,15.0,76.0
4364,69.0,0,119,15.0,76.0
4365,72.0,0,119,15.0,76.0
4366,65.0,0,119,15.0,76.0
4367,58.0,0,104,13.0,76.0
4368,67.0,0,104,1.0,76.0
4369,60.0,0,224,12.0,76.0
4370,55.0,0,104,2.0,76.0
4371,67.0,0,104,0.0,76.0
4372,55.0,120,104,14.0,76.0
4373,67.0,0,104,11.0,76.0
4374,67.0,0,119,15.0,76.0
4375,55.0,0,119,15.0,76.0
4376,74.0,0,119,15.0,76.0
4377,71.0,0,119,15.0,76.0
4378,57.0,0,104,14.0,76.0
4379,57.0,0,104,2.0,76.0
4380,57.0,0,119,15.0,76.0
4381,72.0,0,119,15.0,76.0
4382,69.0,120,119,15.0,76.0
4383,77.0,0,119,15.0,76.0
4384,58.0,0,104,14.0,76.0
4385,65.0,0,224,11.0,76.0
4386,65.0,0,224,0.0,76.0
4387,58.0,0,104,2.0,76.0
4388,60.0,0,224,12.0,76.0
4389,65.0,0,224,1.0,76.0
4390,77.0,0,119,15.0,76.0
4391,74.0,0,119,15.0,76.0
4392,57.0,0,239,13.0,76.0
4393,58.0,0,119,15.0,76.0
4394,70.0,120,119,15.0,76.0
4395,77.0,120,104,1.0,76.0
4396,57.0,0,104,2.0,76.0
4397,62.0,0,104,12.0,76.0
4398,77.0,0,104,0.0,76.0
4399,57.0,0,104,14.0,76.0
4400,77.0,0,104,11.0,76.0
4401,77.0,0,119,15.0,76.0
4402,72.0,0,119,15.0,76.0
4403,69.0,0,119,15.0,76.0
4404,57.0,0,119,15.0,76.0
4405,55.0,0,104,2.0,76.0
4406,79.0,0,104,11.0,76.0
4407,79.0,0,104,0.0,76.0
4408,79.0,120,104,1.0,76.0
4409,55.0,0,104,14.0,76.0
4410,64.0,0,104,12.0,76.0
4411,55.0,0,119,15.0,76.0
4412,67.0,0,119,15.0,76.0
4413,74.0,0,119,15.0,76.0
4414,70.0,0,119,15.0,76.0
4415,53.0,0,104,2.0,76.0
4416,53.0,0,104,14.0,76.0
4417,65.0,0,119,15.0,76.0
4418,69.0,0,119,15.0,76.0
4419,72.0,0,119,15.0,76.0
4420,53.0,0,119,15.0,76.0
4421,65.0,0,224,12.0,76.0
4422,81.0,120,224,1.0,76.0
4423,55.0,0,104,14.0,76.0
4424,55.0,120,104,2.0,76.0
4425,81.0,0,224,11.0,76.0
4426,81.0,0,224,0.0,76.0
4427,55.0,0,119,15.0,76.0
4428,71.0,0,119,15.0,76.0
4429,74.0,0,119,15.0,76.0
4430,67.0,0,119,15.0,76.0
4431,65.0,0,104,12.0,76.0
4432,74.0,0,104,1.0,76.0
4433,53.0,0,104,2.0,76.0
4434,74.0,0,104,0.0,76.0
4435,74.0,0,104,11.0,76.0
4436,53.0,120,104,14.0,76.0
4437,69.0,0,119,15.0,76.0
4438,65.0,0,119,15.0,76.0
4439,72.0,0,119,15.0,76.0
4440,53.0,0,119,15.0,76.0
4441,67.0,0,104,12.0,76.0
4442,52.0,0,104,14.0,76.0
4443,52.0,120,104,2.0,76.0
4444,76.0,0,104,0.0,76.0
4445,76.0,0,104,11.0,76.0
4446,76.0,0,104,1.0,76.0
4447,64.0,0,119,15.0,76.0
4448,71.0,0,119,15.0,76.0
4449,52.0,0,119,15.0,76.0
4450,67.0,0,119,15.0,76.0
4451,50.0,0,104,14.0,76.0
4452,50.0,0,104,2.0,76.0
4453,69.0,0,104,12.0,76.0
4454,62.0,120,119,15.0,76.0
4455,50.0,0,119,15.0,76.0
4456,65.0,0,119,15.0,76.0
4457,77.0,0,224,1.0,76.0
4458,77.0,0,224,11.0,76.0
4459,67.0,0,104,12.0,76.0
4460,52.0,0,104,14.0,76.0
4461,77.0,0,224,0.0,76.0
4462,52.0,0,104,2.0,76.0
4463,52.0,0,119,15.0,76.0
4464,71.0,0,119,15.0,76.0
4465,64.0,0,119,15.0,76.0
4466,67.0,120,119,15.0,76.0
4467,50.0,0,104,2.0,76.0
4468,71.0,0,104,1.0,76.0
4469,50.0,120,104,14.0,76.0
4470,65.0,0,104,12.0,76.0
4471,71.0,0,104,0.0,76.0
4472,55.0,0,104,13.0,76.0
4473,71.0,0,104,11.0,76.0
4474,65.0,0,119,15.0,76.0
4475,50.0,0,119,15.0,76.0
4476,62.0,0,119,15.0,76.0
4477,72.0,0,104,11.0,76.0
4478,64.0,0,104,12.0,76.0
4479,48.0,0,104,2.0,76.0
4480,72.0,0,104,1.0,76.0
4481,48.0,0,104,14.0,76.0
4482,57.0,0,104,13.0,76.0
4483,72.0,120,104,0.0,76.0
4484,48.0,0,119,15.0,76.0
4485,64.0,0,119,15.0,76.0
4486,60.0,0,119,15.0,76.0
4487,67.0,0,119,15.0,76.0
4488,47.0,0,104,2.0,76.0
4489,62.0,0,104,12.0,76.0
4490,47.0,0,104,14.0,76.0
4491,65.0,0,119,15.0,76.0
4492,47.0,0,119,15.0,76.0
4493,62.0,0,119,15.0,76.0
4494,59.0,0,119,15.0,76.0
4495,74.0,120,224,1.0,76.0
4496,48.0,0,104,2.0,76.0
4497,74.0,0,224,0.0,76.0
4498,48.0,0,104,14.0,76.0
4499,64.0,0,104,12.0,76.0
4500,59.0,0,224,13.0,76.0
4501,74.0,0,224,11.0,76.0
4502,48.0,0,119,15.0,76.0
4503,67.0,0,119,15.0,76.0
4504,60.0,0,119,15.0,76.0
4505,64.0,120,119,15.0,76.0
4506,47.0,0,104,14.0,76.0
4507,62.0,0,104,12.0,76.0
4508,47.0,0,104,2.0,76.0
4509,59.0,0,104,13.0,76.0
4510,62.0,0,119,15.0,76.0
4511,65.0,0,119,15.0,76.0
4512,47.0,0,119,15.0,76.0
4513,59.0,0,119,15.0,76.0
4514,45.0,0,104,2.0,76.0
4515,45.0,120,104,14.0,76.0
4516,67.0,0,224,11.0,76.0
4517,67.0,120,224,1.0,76.0
4518,60.0,0,104,12.0,76.0
4519,67.0,0,224,0.0,76.0
4520,60.0,0,104,13.0,76.0
4521,45.0,0,119,15.0,76.0
4522,57.0,0,119,15.0,76.0
4523,64.0,0,119,15.0,76.0
4524,60.0,0,119,15.0,76.0
4525,43.0,0,104,14.0,76.0
4526,43.0,0,104,2.0,76.0
4527,43.0,0,119,15.0,76.0
4528,59.0,0,119,15.0,76.0
4529,55.0,0,119,15.0,76.0
4530,62.0,0,119,15.0,76.0
4531,79.0,120,224,11.0,76.0
4532,79.0,0,224,0.0,76.0
4533,59.0,0,224,12.0,76.0
4534,45.0,120,104,2.0,76.0
4535,45.0,0,104,14.0,76.0
4536,79.0,0,224,1.0,76.0
4537,62.0,0,224,13.0,76.0
4538,60.0,0,119,15.0,76.0
4539,45.0,0,119,15.0,76.0
4540,64.0,0,119,15.0,76.0
4541,57.0,0,119,15.0,76.0
4542,43.0,0,104,14.0,76.0
4543,43.0,0,104,2.0,76.0
4544,62.0,0,119,15.0,76.0
4545,55.0,0,119,15.0,76.0
4546,59.0,0,119,15.0,76.0
4547,43.0,0,119,15.0,76.0
4548,71.0,0,224,1.0,76.0
4549,67.0,0,224,12.0,76.0
4550,71.0,120,224,0.0,76.0
4551,41.0,0,104,14.0,76.0
4552,71.0,0,224,11.0,76.0
4553,41.0,0,104,2.0,76.0
4554,62.0,0,224,13.0,76.0
4555,57.0,0,119,15.0,76.0
4556,60.0,0,119,15.0,76.0
4557,41.0,0,119,15.0,76.0
4558,53.0,120,119,15.0,76.0
4559,40.0,0,224,2.0,76.0
4560,67.0,0,224,12.0,76.0
4561,64.0,0,224,13.0,76.0
4562,40.0,120,224,14.0,76.0
4563,52.0,0,239,15.0,76.0
4564,40.0,0,239,15.0,76.0
4565,55.0,0,239,15.0,76.0
4566,59.0,0,239,15.0,76.0
4567,72.0,0,344,0.0,76.0
4568,72.0,0,344,11.0,76.0
4569,72.0,0,344,1.0,76.0
4570,74.0,120,104,0.0,76.0
4571,72.0,0,224,12.0,76.0
4572,74.0,0,104,1.0,76.0
4573,41.0,240,224,2.0,76.0
4574,74.0,0,104,11.0,76.0
4575,69.0,0,224,13.0,76.0
4576,41.0,0,224,14.0,76.0
4577,41.0,0,239,15.0,76.0
4578,53.0,0,239,15.0,76.0
4579,57.0,0,239,15.0,76.0
4580,60.0,0,239,15.0,76.0
4581,43.0,0,224,2.0,76.0
4582,43.0,0,224,14.0,76.0
4583,71.0,0,224,12.0,76.0
4584,67.0,0,224,13.0,76.0
4585,55.0,0,239,15.0,76.0
4586,43.0,0,239,15.0,76.0
4587,62.0,0,239,15.0,76.0
4588,59.0,0,239,15.0,76.0
4589,74.0,0,344,1.0,76.0
4590,74.0,120,344,0.0,76.0
4591,74.0,0,344,11.0,76.0
4592,67.0,0,224,12.0,76.0
4593,62.0,0,224,13.0,76.0
4594,43.0,0,224,14.0,76.0
4595,72.0,0,104,1.0,76.0
4596,72.0,120,104,0.0,76.0
4597,43.0,0,224,2.0,76.0
4598,72.0,0,104,11.0,76.0
4599,43.0,0,239,15.0,76.0
4600,55.0,0,239,15.0,76.0
4601,62.0,0,239,15.0,76.0
4602,59.0,240,239,15.0,76.0
4603,72.0,0,704,0.0,76.0
4604,72.0,0,704,11.0,76.0
4605,72.0,0,704,1.0,76.0
4606,64.0,0,719,13.0,76.0
4607,36.0,0,719,14.0,76.0
4608,36.0,0,719,2.0,76.0
4609,36.0,0,719,15.0,76.0
4610,52.0,120,719,15.0,76.0
4611,55.0,0,719,15.0,76.0
4612,48.0,0,719,15.0,76.0
4613,67.0,0,719,12.0,76.0
4614,71.0,0,104,11.0,76.0
4615,71.0,0,104,1.0,76.0
4616,71.0,720,104,0.0,76.0
4617,72.0,0,104,0.0,76.0
4618,72.0,0,104,11.0,76.0
4619,72.0,120,104,1.0,76.0
4620,74.0,0,224,0.0,76.0
4621,74.0,0,224,11.0,76.0
4622,74.0,120,224,1.0,76.0
4623,55.0,0,104,2.0,76.0
4624,71.0,240,104,13.0,76.0
4625,55.0,0,104,14.0,76.0
4626,74.0,0,119,15.0,76.0
4627,55.0,0,119,15.0,76.0
4628,71.0,0,119,15.0,76.0
4629,67.0,0,119,15.0,76.0
4630,69.0,120,104,13.0,76.0
4631,53.0,0,104,14.0,76.0
4632,53.0,0,104,2.0,76.0
4633,74.0,0,224,12.0,76.0
4634,65.0,0,119,15.0,76.0
4635,72.0,0,119,15.0,76.0
4636,53.0,0,119,15.0,76.0
4637,69.0,0,119,15.0,76.0
4638,52.0,120,224,14.0,76.0
4639,79.0,0,464,1.0,76.0
4640,52.0,0,224,2.0,76.0
4641,79.0,0,464,11.0,76.0
4642,67.0,0,224,13.0,76.0
4643,79.0,0,464,0.0,76.0
4644,73.0,0,224,12.0,76.0
4645,64.0,0,239,15.0,76.0
4646,67.0,0,239,15.0,76.0
4647,71.0,0,239,15.0,76.0
4648,52.0,0,239,15.0,76.0
4649,82.0,0,224,0.0,76.0
4650,82.0,0,224,1.0,76.0
4651,55.0,240,224,2.0,76.0
4652,65.0,0,224,13.0,76.0
4653,82.0,0,224,11.0,76.0
4654,55.0,0,224,14.0,76.0
4655,74.0,0,224,12.0,76.0
4656,74.0,0,239,15.0,76.0
4657,67.0,0,239,15.0,76.0
4658,55.0,0,239,15.0,76.0
4659,70.0,0,239,15.0,76.0
4660,73.0,0,104,1.0,76.0
4661,64.0,0,104,13.0,76.0
4662,73.0,0,104,11.0,76.0
4663,69.0,0,104,12.0,76.0
4664,73.0,0,104,0.0,76.0
4665,71.0,0,104,1.0,76.0
4666,57.0,0,224,14.0,76.0
4667,71.0,0,104,0.0,76.0
4668,67.0,0,104,12.0,76.0
4669,62.0,120,104,13.0,76.0
4670,57.0,0,224,2.0,76.0
4671,71.0,0,104,11.0,76.0
4672,73.0,0,239,15.0,76.0
4673,76.0,0,239,15.0,76.0
4674,57.0,0,239,15.0,76.0
4675,69.0,240,239,15.0,76.0
4676,73.0,0,104,1.0,76.0
4677,73.0,0,104,11.0,76.0
4678,64.0,0,104,13.0,76.0
4679,69.0,0,104,12.0,76.0
4680,73.0,0,104,0.0,76.0
4681,71.0,120,104,12.0,76.0
4682,74.0,0,104,11.0,76.0
4683,74.0,0,104,1.0,76.0
4684,45.0,120,224,2.0,76.0
4685,65.0,0,104,13.0,76.0
4686,45.0,0,224,14.0,76.0
4687,74.0,0,104,0.0,76.0
4688,45.0,0,239,15.0,76.0
4689,61.0,0,239,15.0,76.0
4690,64.0,0,239,15.0,76.0
4691,57.0,0,239,15.0,76.0
4692,73.0,0,224,12.0,76.0
4693,76.0,0,224,1.0,76.0
4694,57.0,0,224,14.0,76.0
4695,57.0,0,224,2.0,76.0
4696,64.0,120,224,13.0,76.0
4697,76.0,0,224,0.0,76.0
4698,76.0,0,224,11.0,76.0
4699,76.0,0,239,15.0,76.0
4700,69.0,0,239,15.0,76.0
4701,73.0,0,239,15.0,76.0
4702,57.0,0,239,15.0,76.0
4703,77.0,240,104,1.0,76.0
4704,77.0,0,104,11.0,76.0
4705,74.0,0,104,12.0,76.0
4706,77.0,0,104,0.0,76.0
4707,55.0,0,224,14.0,76.0
4708,79.0,0,104,11.0,76.0
4709,57.0,0,224,13.0,76.0
4710,55.0,0,224,2.0,76.0
4711,76.0,0,104,12.0,76.0
4712,79.0,0,104,0.0,76.0
4713,79.0,120,104,1.0,76.0
4714,74.0,0,239,15.0,76.0
4715,67.0,0,239,15.0,76.0
4716,71.0,0,239,15.0,76.0
4717,55.0,0,239,15.0,76.0
4718,81.0,0,104,1.0,76.0
4719,81.0,0,104,11.0,76.0
4720,81.0,0,104,0.0,76.0
4721,79.0,0,104,0.0,76.0
4722,53.0,0,224,14.0,76.0
4723,62.0,0,224,13.0,76.0
4724,53.0,0,224,2.0,76.0
4725,79.0,120,104,11.0,76.0
4726,77.0,0,224,12.0,76.0
4727,79.0,0,104,1.0,76.0
4728,69.0,0,239,15.0,76.0
4729,53.0,0,239,15.0,76.0
4730,65.0,120,239,15.0,76.0
4731,74.0,0,239,15.0,76.0
4732,81.0,0,104,1.0,76.0
4733,76.0,0,104,12.0,76.0
4734,81.0,0,104,0.0,76.0
4735,81.0,0,104,11.0,76.0
4736,82.0,0,104,0.0,76.0
4737,74.0,0,104,12.0,76.0
4738,82.0,0,104,11.0,76.0
4739,55.0,0,224,2.0,76.0
4740,67.0,0,224,13.0,76.0
4741,82.0,120,104,1.0,76.0
4742,55.0,0,224,14.0,76.0
4743,55.0,0,239,15.0,76.0
4744,67.0,0,239,15.0,76.0
4745,76.0,0,239,15.0,76.0
4746,71.0,120,239,15.0,76.0
4747,81.0,0,104,0.0,76.0
4748,81.0,0,104,11.0,76.0
4749,81.0,0,104,1.0,76.0
4750,64.0,0,224,13.0,76.0
4751,57.0,120,224,2.0,76.0
4752,79.0,0,104,1.0,76.0
4753,57.0,0,224,14.0,76.0
4754,79.0,120,104,0.0,76.0
4755,79.0,0,104,11.0,76.0
4756,73.0,0,224,12.0,76.0
4757,69.0,0,239,15.0,76.0
4758,73.0,0,239,15.0,76.0
4759,76.0,0,239,15.0,76.0
4760,57.0,0,239,15.0,76.0
4761,77.0,0,104,1.0,76.0
4762,77.0,0,104,11.0,76.0
4763,77.0,0,104,0.0,76.0
4764,69.0,0,224,13.0,76.0
4765,45.0,0,224,14.0,76.0
4766,76.0,0,104,1.0,76.0
4767,76.0,0,104,0.0,76.0
4768,73.0,0,224,12.0,76.0
4769,45.0,120,224,2.0,76.0
4770,76.0,120,104,11.0,76.0
4771,57.0,0,239,15.0,76.0
4772,61.0,0,239,15.0,76.0
4773,45.0,0,239,15.0,76.0
4774,64.0,0,239,15.0,76.0
4775,77.0,0,104,1.0,76.0
4776,77.0,0,104,11.0,76.0
4777,77.0,0,104,0.0,76.0
4778,69.0,0,104,13.0,76.0
4779,50.0,0,224,14.0,76.0
4780,70.0,0,104,13.0,76.0
4781,50.0,0,224,2.0,76.0
4782,79.0,0,104,0.0,76.0
4783,74.0,0,224,12.0,76.0
4784,79.0,0,104,11.0,76.0
4785,79.0,120,104,1.0,76.0
4786,50.0,0,239,15.0,76.0
4787,69.0,0,239,15.0,76.0
4788,62.0,0,239,15.0,76.0
4789,65.0,120,239,15.0,76.0
4790,77.0,0,104,1.0,76.0
4791,77.0,0,104,0.0,76.0
4792,69.0,0,104,13.0,76.0
4793,77.0,0,104,11.0,76.0
4794,67.0,0,104,13.0,76.0
4795,69.0,0,224,12.0,76.0
4796,76.0,0,104,1.0,76.0
4797,45.0,0,224,2.0,76.0
4798,76.0,120,104,11.0,76.0
4799,76.0,0,104,0.0,76.0
4800,45.0,0,224,14.0,76.0
4801,45.0,0,239,15.0,76.0
4802,60.0,120,239,15.0,76.0
4803,57.0,0,239,15.0,76.0
4804,64.0,0,239,15.0,76.0
4805,65.0,0,104,13.0,76.0
4806,38.0,0,224,14.0,76.0
4807,74.0,0,224,0.0,76.0
4808,74.0,120,224,11.0,76.0
4809,74.0,0,224,1.0,76.0
4810,67.0,120,104,13.0,76.0
4811,38.0,0,224,2.0,76.0
4812,69.0,0,224,12.0,76.0
4813,53.0,0,239,15.0,76.0
4814,50.0,0,239,15.0,76.0
4815,38.0,0,239,15.0,76.0
4816,57.0,0,239,15.0,76.0
4817,65.0,0,104,13.0,76.0
4818,83.0,0,104,0.0,76.0
4819,56.0,120,104,14.0,76.0
4820,56.0,0,104,2.0,76.0
4821,83.0,0,104,11.0,76.0
4822,83.0,0,104,1.0,76.0
4823,74.0,0,104,12.0,76.0
4824,74.0,0,119,15.0,76.0
4825,68.0,0,119,15.0,76.0
4826,56.0,0,119,15.0,76.0
4827,71.0,0,119,15.0,76.0
4828,84.0,0,104,1.0,76.0
4829,84.0,120,104,11.0,76.0
4830,72.0,0,104,12.0,76.0
4831,64.0,0,104,13.0,76.0
4832,84.0,0,104,0.0,76.0
4833,57.0,0,104,14.0,76.0
4834,57.0,0,104,2.0,76.0
4835,72.0,0,119,15.0,76.0
4836,69.0,0,119,15.0,76.0
4837,76.0,0,119,15.0,76.0
4838,57.0,0,119,15.0,76.0
4839,71.0,0,104,12.0,76.0
4840,86.0,0,224,11.0,76.0
4841,62.0,0,224,13.0,76.0
4842,72.0,120,104,12.0,76.0
4843,59.0,0,224,14.0,76.0
4844,86.0,0,224,0.0,76.0
4845,59.0,0,224,2.0,76.0
4846,86.0,0,224,1.0,76.0
4847,79.0,0,239,15.0,76.0
4848,74.0,0,239,15.0,76.0
4849,71.0,120,239,15.0,76.0
4850,59.0,0,239,15.0,76.0
4851,80.0,0,104,11.0,76.0
4852,80.0,0,104,0.0,76.0
4853,59.0,0,104,14.0,76.0
4854,71.0,0,104,12.0,76.0
4855,59.0,0,104,2.0,76.0
4856,62.0,0,104,13.0,76.0
4857,80.0,120,104,1.0,76.0
4858,74.0,0,119,15.0,76.0
4859,80.0,0,119,15.0,76.0
4860,59.0,0,119,15.0,76.0
4861,71.0,0,119,15.0,76.0
4862,60.0,120,104,14.0,76.0
4863,64.0,0,104,13.0,76.0
4864,60.0,0,104,2.0,76.0
4865,81.0,0,104,1.0,76.0
4866,81.0,0,104,11.0,76.0
4867,69.0,0,104,12.0,76.0
4868,81.0,0,104,0.0,76.0
4869,72.0,0,119,15.0,76.0
4870,60.0,0,119,15.0,76.0
4871,80.0,0,119,15.0,76.0
4872,76.0,0,119,15.0,76.0
4873,83.0,0,224,1.0,76.0
4874,68.0,0,224,12.0,76.0
4875,65.0,120,224,13.0,76.0
4876,83.0,0,224,11.0,76.0
4877,83.0,0,224,0.0,76.0
4878,77.0,0,239,15.0,76.0
4879,62.0,0,239,14.0,76.0
4880,74.0,0,239,15.0,76.0
4881,80.0,0,239,15.0,76.0
4882,62.0,0,239,2.0,76.0
4883,62.0,0,239,15.0,76.0
4884,59.0,0,104,12.0,76.0
4885,74.0,240,104,11.0,76.0
4886,59.0,0,104,13.0,76.0
4887,74.0,0,104,0.0,76.0
4888,74.0,0,104,1.0,76.0
4889,60.0,0,104,13.0,76.0
4890,76.0,120,104,1.0,76.0
4891,76.0,0,104,0.0,76.0
4892,76.0,0,104,11.0,76.0
4893,60.0,0,104,12.0,76.0
4894,77.0,0,224,11.0,76.0
4895,77.0,0,224,1.0,76.0
4896,77.0,0,224,0.0,76.0
4897,62.0,0,224,13.0,76.0
4898,62.0,120,224,12.0,76.0
4899,71.0,240,104,0.0,76.0
4900,71.0,0,104,11.0,76.0
4901,62.0,0,104,13.0,76.0
4902,71.0,0,104,1.0,76.0
4903,62.0,0,104,12.0,76.0
4904,64.0,0,104,13.0,76.0
4905,72.0,0,104,0.0,76.0
4906,64.0,0,104,12.0,76.0
4907,72.0,0,104,11.0,76.0
4908,72.0,120,104,1.0,76.0
4909,74.0,0,224,11.0,76.0
4910,65.0,0,224,13.0,76.0
4911,74.0,0,224,1.0,76.0
4912,74.0,120,224,0.0,76.0
4913,65.0,0,224,12.0,76.0
4914,50.0,0,224,14.0,76.0
4915,59.0,0,224,13.0,76.0
4916,50.0,0,224,2.0,76.0
4917,64.0,0,224,12.0,76.0
4918,68.0,0,224,1.0,76.0
4919,68.0,0,224,0.0,76.0
4920,68.0,0,224,11.0,76.0
4921,50.0,0,239,15.0,76.0
4922,64.0,240,239,15.0,76.0
4923,62.0,0,239,15.0,76.0
4924,71.0,0,239,15.0,76.0
4925,68.0,0,239,15.0,76.0
4926,48.0,240,104,14.0,76.0
4927,48.0,0,104,2.0,76.0
4928,64.0,0,119,15.0,76.0
4929,60.0,0,119,15.0,76.0
4930,48.0,0,119,15.0,76.0
4931,69.0,0,119,15.0,76.0
4932,60.0,0,224,13.0,76.0
4933,47.0,120,104,2.0,76.0
4934,64.0,0,224,12.0,76.0
4935,47.0,0,104,14.0,76.0
4936,65.0,0,119,15.0,76.0
4937,62.0,0,119,15.0,76.0
4938,59.0,0,119,15.0,76.0
4939,47.0,0,119,15.0,76.0
4940,48.0,0,104,14.0,76.0
4941,69.0,0,344,1.0,76.0
4942,69.0,0,344,11.0,76.0
4943,69.0,0,344,0.0,76.0
4944,48.0,0,104,2.0,76.0
4945,69.0,0,119,15.0,76.0
4946,48.0,0,119,15.0,76.0
4947,64.0,0,119,15.0,76.0
4948,60.0,0,119,15.0,76.0
4949,71.0,0,104,11.0,76.0
4950,71.0,0,104,1.0,76.0
4951,69.0,120,224,12.0,76.0
4952,71.0,0,104,0.0,76.0
4953,50.0,0,104,2.0,76.0
4954,50.0,0,104,14.0,76.0
4955,64.0,0,224,13.0,76.0
4956,62.0,120,119,15.0,76.0
4957,69.0,0,119,15.0,76.0
4958,50.0,0,119,15.0,76.0
4959,65.0,0,119,15.0,76.0
4960,52.0,0,224,14.0,76.0
4961,64.0,0,224,13.0,76.0
4962,52.0,0,224,2.0,76.0
4963,68.0,0,239,15.0,76.0
4964,52.0,0,239,15.0,76.0
4965,71.0,0,239,15.0,76.0
4966,64.0,0,239,15.0,76.0
4967,71.0,0,344,1.0,76.0
4968,71.0,120,344,11.0,76.0
4969,68.0,0,344,12.0,76.0
4970,71.0,0,344,0.0,76.0
4971,69.0,0,104,1.0,76.0
4972,69.0,0,104,0.0,76.0
4973,59.0,0,224,13.0,76.0
4974,40.0,0,224,2.0,76.0
4975,40.0,0,224,14.0,76.0
4976,64.0,120,104,12.0,76.0
4977,69.0,0,104,11.0,76.0
4978,59.0,0,239,15.0,76.0
4979,56.0,0,239,15.0,76.0
4980,52.0,240,239,15.0,76.0
4981,40.0,0,239,15.0,76.0
4982,45.0,0,224,14.0,76.0
4983,45.0,0,224,2.0,76.0
4984,57.0,0,239,15.0,76.0
4985,64.0,0,239,15.0,76.0
4986,60.0,0,239,15.0,76.0
4987,45.0,0,239,15.0,76.0
4988,52.0,240,224,2.0,76.0
4989,52.0,0,224,14.0,76.0
4990,64.0,0,239,15.0,76.0
4991,52.0,0,239,15.0,76.0
4992,67.0,0,239,15.0,76.0
4993,71.0,0,239,15.0,76.0
4994,69.0,0,704,0.0,76.0
4995,69.0,0,704,1.0,76.0
4996,69.0,120,704,11.0,76.0
4997,76.0,0,239,15.0,76.0
4998,72.0,0,239,15.0,76.0
4999,64.0,0,719,12.0,76.0
5000,57.0,0,239,15.0,76.0
5001,60.0,0,719,13.0,76.0
5002,69.0,0,239,15.0,76.0
5003,57.0,0,239,14.0,76.0
5004,57.0,240,239,2.0,76.0
5005,76.0,0,104,0.0,76.0
5006,76.0,0,104,11.0,76.0
5007,76.0,240,104,1.0,76.0
5008,77.0,0,104,11.0,76.0
5009,77.0,120,104,1.0,76.0
5010,77.0,0,104,0.0,76.0
5011,79.0,0,224,1.0,76.0
5012,79.0,0,224,0.0,76.0
5013,79.0,120,224,11.0,76.0
5014,79.0,0,104,12.0,76.0
5015,64.0,0,104,13.0,76.0
5016,48.0,0,104,2.0,76.0
5017,48.0,0,104,14.0,76.0
5018,64.0,0,119,15.0,76.0
5019,48.0,0,119,15.0,76.0
5020,67.0,0,119,15.0,76.0
5021,60.0,240,119,15.0,76.0
5022,50.0,0,104,2.0,76.0
5023,65.0,0,104,13.0,76.0
5024,50.0,0,104,14.0,76.0
5025,77.0,120,104,12.0,76.0
5026,62.0,0,119,15.0,76.0
5027,69.0,0,119,15.0,76.0
5028,50.0,0,119,15.0,76.0
5029,65.0,0,119,15.0,76.0
5030,76.0,0,104,12.0,76.0
5031,52.0,0,224,2.0,76.0
5032,84.0,0,464,0.0,76.0
5033,84.0,0,464,1.0,76.0
5034,52.0,0,224,14.0,76.0
5035,74.0,120,104,12.0,76.0
5036,84.0,0,464,11.0,76.0
5037,67.0,120,224,13.0,76.0
5038,67.0,0,239,15.0,76.0
5039,52.0,0,239,15.0,76.0
5040,72.0,0,239,15.0,76.0
5041,64.0,0,239,15.0,76.0
5042,76.0,0,104,12.0,76.0
5043,52.0,120,104,14.0,76.0
5044,67.0,0,104,13.0,76.0
5045,52.0,0,104,2.0,76.0
5046,52.0,0,119,15.0,76.0
5047,67.0,0,119,15.0,76.0
5048,64.0,0,119,15.0,76.0
5049,72.0,0,119,15.0,76.0
5050,72.0,0,104,12.0,76.0
5051,79.0,0,224,0.0,76.0
5052,53.0,0,104,14.0,76.0
5053,69.0,0,104,13.0,76.0
5054,79.0,0,224,11.0,76.0
5055,53.0,120,104,2.0,76.0
5056,79.0,0,224,1.0,76.0
5057,53.0,0,119,15.0,76.0
5058,65.0,0,119,15.0,76.0
5059,72.0,0,119,15.0,76.0
5060,69.0,0,119,15.0,76.0
5061,76.0,0,104,11.0,76.0
5062,70.0,0,104,13.0,76.0
5063,70.0,0,104,12.0,76.0
5064,76.0,0,104,1.0,76.0
5065,76.0,0,104,0.0,76.0
5066,55.0,0,224,2.0,76.0
5067,69.0,0,104,13.0,76.0
5068,74.0,0,104,11.0,76.0
5069,55.0,0,224,14.0,76.0
5070,74.0,120,104,1.0,76.0
5071,72.0,0,104,12.0,76.0
5072,74.0,0,104,0.0,76.0
5073,55.0,0,239,15.0,76.0
5074,70.0,0,239,15.0,76.0
5075,67.0,0,239,15.0,76.0
5076,76.0,120,239,15.0,76.0
5077,76.0,0,104,1.0,76.0
5078,55.0,0,104,14.0,76.0
5079,67.0,0,104,13.0,76.0
5080,55.0,0,104,2.0,76.0
5081,76.0,0,104,11.0,76.0
5082,70.0,120,104,12.0,76.0
5083,76.0,0,104,0.0,76.0
5084,55.0,0,119,15.0,76.0
5085,70.0,0,119,15.0,76.0
5086,76.0,0,119,15.0,76.0
5087,67.0,0,119,15.0,76.0
5088,57.0,0,104,2.0,76.0
5089,69.0,0,104,12.0,76.0
5090,77.0,0,104,0.0,76.0
5091,65.0,0,104,13.0,76.0
5092,57.0,0,104,14.0,76.0
5093,77.0,0,104,11.0,76.0
5094,77.0,0,104,1.0,76.0
5095,69.0,120,119,15.0,76.0
5096,76.0,0,119,15.0,76.0
5097,57.0,0,119,15.0,76.0
5098,72.0,0,119,15.0,76.0
5099,67.0,0,224,12.0,76.0
5100,79.0,0,224,1.0,76.0
5101,64.0,0,224,13.0,76.0
5102,58.0,0,224,14.0,76.0
5103,79.0,0,224,0.0,76.0
5104,58.0,120,224,2.0,76.0
5105,79.0,0,224,11.0,76.0
5106,74.0,0,239,15.0,76.0
5107,58.0,0,239,15.0,76.0
5108,70.0,0,239,15.0,76.0
5109,77.0,0,239,15.0,76.0
5110,70.0,240,224,1.0,76.0
5111,52.0,0,224,2.0,76.0
5112,60.0,0,224,13.0,76.0
5113,70.0,0,224,11.0,76.0
5114,52.0,0,224,14.0,76.0
5115,67.0,0,224,12.0,76.0
5116,70.0,0,224,0.0,76.0
5117,64.0,0,239,15.0,76.0
5118,52.0,0,239,15.0,76.0
5119,72.0,0,239,15.0,76.0
5120,70.0,0,239,15.0,76.0
5121,67.0,0,239,15.0,76.0
5122,69.0,0,224,0.0,76.0
5123,69.0,0,224,11.0,76.0
5124,53.0,240,224,14.0,76.0
5125,53.0,0,224,2.0,76.0
5126,65.0,0,224,12.0,76.0
5127,60.0,0,224,13.0,76.0
5128,69.0,0,224,1.0,76.0
5129,72.0,0,239,15.0,76.0
5130,53.0,0,239,15.0,76.0
5131,65.0,0,239,15.0,76.0
5132,69.0,0,239,15.0,76.0
5133,74.0,0,104,1.0,76.0
5134,74.0,0,104,11.0,76.0
5135,58.0,0,104,13.0,76.0
5136,74.0,0,104,0.0,76.0
5137,46.0,0,224,2.0,76.0
5138,72.0,0,104,1.0,76.0
5139,46.0,0,224,14.0,76.0
5140,60.0,0,104,13.0,76.0
5141,65.0,0,224,12.0,76.0
5142,72.0,120,104,0.0,76.0
5143,72.0,0,104,11.0,76.0
5144,62.0,240,239,15.0,76.0
5145,46.0,0,239,15.0,76.0
5146,58.0,0,239,15.0,76.0
5147,65.0,0,239,15.0,76.0
5148,70.0,0,104,0.0,76.0
5149,70.0,0,104,1.0,76.0
5150,70.0,120,104,11.0,76.0
5151,69.0,0,104,0.0,76.0
5152,69.0,0,104,11.0,76.0
5153,43.0,0,224,14.0,76.0
5154,69.0,120,104,1.0,76.0
5155,62.0,0,224,13.0,76.0
5156,65.0,0,224,12.0,76.0
5157,43.0,0,224,2.0,76.0
5158,65.0,0,239,15.0,76.0
5159,62.0,0,239,15.0,76.0
5160,58.0,0,239,15.0,76.0
5161,43.0,0,239,15.0,76.0
5162,55.0,0,239,15.0,76.0
5163,70.0,0,104,11.0,76.0
5164,70.0,0,104,1.0,76.0
5165,70.0,0,104,0.0,76.0
5166,67.0,120,104,0.0,76.0
5167,67.0,0,104,1.0,76.0
5168,48.0,120,224,2.0,76.0
5169,60.0,0,224,13.0,76.0
5170,64.0,0,224,12.0,76.0
5171,67.0,0,104,11.0,76.0
5172,48.0,0,224,14.0,76.0
5173,67.0,0,239,15.0,76.0
5174,48.0,0,239,15.0,76.0
5175,60.0,0,239,15.0,76.0
5176,70.0,0,239,15.0,76.0
5177,64.0,0,239,15.0,76.0
5178,69.0,0,104,1.0,76.0
5179,69.0,0,104,11.0,76.0
5180,60.0,0,104,13.0,76.0
5181,69.0,0,104,0.0,76.0
5182,41.0,0,224,2.0,76.0
5183,70.0,0,104,1.0,76.0
5184,70.0,0,104,0.0,76.0
5185,41.0,0,224,14.0,76.0
5186,62.0,0,104,13.0,76.0
5187,65.0,0,224,12.0,76.0
5188,70.0,120,104,11.0,76.0
5189,53.0,120,239,15.0,76.0
5190,60.0,0,239,15.0,76.0
5191,41.0,0,239,15.0,76.0
5192,57.0,0,239,15.0,76.0
5193,69.0,0,104,1.0,76.0
5194,60.0,0,104,13.0,76.0
5195,53.0,120,104,14.0,76.0
5196,69.0,0,104,0.0,76.0
5197,69.0,0,104,11.0,76.0
5198,53.0,0,104,2.0,76.0
5199,53.0,0,119,15.0,76.0
5200,65.0,0,119,15.0,76.0
5201,72.0,0,119,15.0,76.0
5202,69.0,0,119,15.0,76.0
5203,67.0,0,104,11.0,76.0
5204,67.0,0,104,0.0,76.0
5205,58.0,0,104,13.0,76.0
5206,55.0,0,104,14.0,76.0
5207,67.0,0,104,1.0,76.0
5208,60.0,0,224,12.0,76.0
5209,55.0,0,104,2.0,76.0
5210,74.0,0,119,15.0,76.0
5211,67.0,0,119,15.0,76.0
5212,71.0,120,119,15.0,76.0
5213,55.0,0,119,15.0,76.0
5214,57.0,0,104,2.0,76.0
5215,57.0,0,104,14.0,76.0
5216,72.0,0,119,15.0,76.0
5217,69.0,0,119,15.0,76.0
5218,57.0,0,119,15.0,76.0
5219,77.0,0,119,15.0,76.0
5220,58.0,0,104,2.0,76.0
5221,65.0,0,224,11.0,76.0
5222,65.0,0,224,0.0,76.0
5223,58.0,0,104,14.0,76.0
5224,65.0,120,224,1.0,76.0
5225,60.0,0,224,12.0,76.0
5226,74.0,0,119,15.0,76.0
5227,77.0,0,119,15.0,76.0
5228,70.0,0,119,15.0,76.0
5229,57.0,0,239,13.0,76.0
5230,58.0,120,119,15.0,76.0
5231,77.0,0,104,1.0,76.0
5232,77.0,0,104,11.0,76.0
5233,57.0,0,104,14.0,76.0
5234,77.0,0,104,0.0,76.0
5235,62.0,0,104,12.0,76.0
5236,57.0,0,104,2.0,76.0
5237,72.0,0,119,15.0,76.0
5238,69.0,120,119,15.0,76.0
5239,57.0,0,119,15.0,76.0
5240,77.0,0,119,15.0,76.0
5241,55.0,0,104,14.0,76.0
5242,79.0,0,104,0.0,76.0
5243,55.0,0,104,2.0,76.0
5244,79.0,120,104,1.0,76.0
5245,79.0,0,104,11.0,76.0
5246,64.0,0,104,12.0,76.0
5247,67.0,0,119,15.0,76.0
5248,55.0,0,119,15.0,76.0
5249,70.0,0,119,15.0,76.0
5250,74.0,0,119,15.0,76.0
5251,53.0,0,104,2.0,76.0
5252,53.0,0,104,14.0,76.0
5253,72.0,0,119,15.0,76.0
5254,53.0,0,119,15.0,76.0
5255,69.0,0,119,15.0,76.0
5256,65.0,0,119,15.0,76.0
5257,65.0,0,224,12.0,76.0
5258,55.0,120,104,2.0,76.0
5259,81.0,120,224,0.0,76.0
5260,81.0,0,224,11.0,76.0
5261,81.0,0,224,1.0,76.0
5262,55.0,0,104,14.0,76.0
5263,71.0,0,119,15.0,76.0
5264,67.0,0,119,15.0,76.0
5265,74.0,0,119,15.0,76.0
5266,55.0,0,119,15.0,76.0
5267,53.0,0,104,14.0,76.0
5268,74.0,0,104,11.0,76.0
5269,65.0,0,104,12.0,76.0
5270,53.0,0,104,2.0,76.0
5271,74.0,0,104,0.0,76.0
5272,74.0,0,104,1.0,76.0
5273,53.0,0,119,15.0,76.0
5274,72.0,120,119,15.0,76.0
5275,69.0,0,119,15.0,76.0
5276,65.0,0,119,15.0,76.0
5277,52.0,0,104,14.0,76.0
5278,52.0,120,104,2.0,76.0
5279,76.0,0,104,0.0,76.0
5280,67.0,0,104,12.0,76.0
5281,76.0,0,104,11.0,76.0
5282,76.0,0,104,1.0,76.0
5283,67.0,0,119,15.0,76.0
5284,52.0,0,119,15.0,76.0
5285,71.0,0,119,15.0,76.0
5286,64.0,0,119,15.0,76.0
5287,50.0,0,104,14.0,76.0
5288,69.0,0,104,12.0,76.0
5289,50.0,0,104,2.0,76.0
5290,50.0,0,119,15.0,76.0
5291,62.0,0,119,15.0,76.0
5292,65.0,0,119,15.0,76.0
5293,52.0,0,104,14.0,76.0
5294,52.0,0,104,2.0,76.0
5295,77.0,0,224,1.0,76.0
5296,77.0,0,224,11.0,76.0
5297,77.0,120,224,0.0,76.0
5298,67.0,0,104,12.0,76.0
5299,71.0,120,119,15.0,76.0
5300,64.0,0,119,15.0,76.0
5301,67.0,0,119,15.0,76.0
5302,52.0,0,119,15.0,76.0
5303,50.0,0,104,2.0,76.0
5304,50.0,0,104,14.0,76.0
5305,71.0,0,104,0.0,76.0
5306,71.0,0,104,11.0,76.0
5307,71.0,120,104,1.0,76.0
5308,65.0,0,104,12.0,76.0
5309,55.0,0,104,13.0,76.0
5310,62.0,0,119,15.0,76.0
5311,65.0,0,119,15.0,76.0
5312,50.0,0,119,15.0,76.0
5313,72.0,0,104,0.0,76.0
5314,64.0,0,104,12.0,76.0
5315,57.0,0,104,13.0,76.0
5316,48.0,120,104,14.0,76.0
5317,72.0,0,104,11.0,76.0
5318,72.0,0,104,1.0,76.0
5319,48.0,0,104,2.0,76.0
5320,67.0,0,119,15.0,76.0
5321,48.0,0,119,15.0,76.0
5322,64.0,0,119,15.0,76.0
5323,60.0,0,119,15.0,76.0
5324,62.0,0,104,12.0,76.0
5325,47.0,0,104,14.0,76.0
5326,47.0,0,104,2.0,76.0
5327,62.0,0,119,15.0,76.0
5328,47.0,0,119,15.0,76.0
5329,65.0,0,119,15.0,76.0
5330,59.0,0,119,15.0,76.0
5331,74.0,120,224,11.0,76.0
5332,64.0,0,104,12.0,76.0
5333,74.0,0,224,0.0,76.0
5334,74.0,0,224,1.0,76.0
5335,48.0,0,104,14.0,76.0
5336,48.0,0,104,2.0,76.0
5337,59.0,0,224,13.0,76.0
5338,48.0,0,119,15.0,76.0
5339,64.0,0,119,15.0,76.0
5340,67.0,0,119,15.0,76.0
5341,60.0,120,119,15.0,76.0
5342,47.0,0,104,2.0,76.0
5343,59.0,0,104,13.0,76.0
5344,62.0,0,104,12.0,76.0
5345,47.0,0,104,14.0,76.0
5346,65.0,0,119,15.0,76.0
5347,59.0,0,119,15.0,76.0
5348,47.0,0,119,15.0,76.0
5349,62.0,0,119,15.0,76.0
5350,67.0,0,224,11.0,76.0
5351,45.0,0,104,14.0,76.0
5352,45.0,0,104,2.0,76.0
5353,67.0,0,224,1.0,76.0
5354,60.0,0,104,13.0,76.0
5355,67.0,120,224,0.0,76.0
5356,60.0,120,104,12.0,76.0
5357,45.0,0,119,15.0,76.0
5358,60.0,0,119,15.0,76.0
5359,64.0,0,119,15.0,76.0
5360,57.0,0,119,15.0,76.0
5361,43.0,0,104,14.0,76.0
5362,43.0,0,104,2.0,76.0
5363,55.0,0,119,15.0,76.0
5364,62.0,120,119,15.0,76.0
5365,43.0,0,119,15.0,76.0
5366,59.0,0,119,15.0,76.0
5367,79.0,0,224,11.0,76.0
5368,79.0,0,224,1.0,76.0
5369,62.0,0,224,13.0,76.0
5370,45.0,0,104,14.0,76.0
5371,59.0,0,224,12.0,76.0
5372,45.0,0,104,2.0,76.0
5373,79.0,0,224,0.0,76.0
5374,45.0,120,119,15.0,76.0
5375,60.0,0,119,15.0,76.0
5376,64.0,0,119,15.0,76.0
5377,57.0,0,119,15.0,76.0
5378,43.0,0,104,2.0,76.0
5379,43.0,0,104,14.0,76.0
5380,43.0,0,119,15.0,76.0
5381,55.0,120,119,15.0,76.0
5382,62.0,0,119,15.0,76.0
5383,59.0,0,119,15.0,76.0
5384,62.0,0,224,13.0,76.0
5385,71.0,0,224,0.0,76.0
5386,71.0,0,224,1.0,76.0
5387,67.0,0,224,12.0,76.0
5388,41.0,0,104,14.0,76.0
5389,41.0,120,104,2.0,76.0
5390,71.0,0,224,11.0,76.0
5391,57.0,0,119,15.0,76.0
5392,60.0,0,119,15.0,76.0
5393,41.0,0,119,15.0,76.0
5394,53.0,0,119,15.0,76.0
5395,40.0,0,224,14.0,76.0
5396,40.0,0,224,2.0,76.0
5397,64.0,0,224,13.0,76.0
5398,67.0,0,224,12.0,76.0
5399,55.0,0,239,15.0,76.0
5400,59.0,0,239,15.0,76.0
5401,40.0,120,239,15.0,76.0
5402,52.0,0,239,15.0,76.0
5403,72.0,0,344,1.0,76.0
5404,72.0,0,344,0.0,76.0
5405,72.0,0,344,11.0,76.0
5406,74.0,0,104,0.0,76.0
5407,74.0,0,104,11.0,76.0
5408,41.0,240,224,14.0,76.0
5409,74.0,120,104,1.0,76.0
5410,72.0,0,224,12.0,76.0
5411,69.0,0,224,13.0,76.0
5412,41.0,0,224,2.0,76.0
5413,57.0,0,239,15.0,76.0
5414,60.0,0,239,15.0,76.0
5415,53.0,0,239,15.0,76.0
5416,41.0,0,239,15.0,76.0
5417,43.0,0,224,14.0,76.0
5418,67.0,0,224,13.0,76.0
5419,71.0,0,224,12.0,76.0
5420,43.0,0,224,2.0,76.0
5421,59.0,120,239,15.0,76.0
5422,62.0,0,239,15.0,76.0
5423,43.0,0,239,15.0,76.0
5424,55.0,0,239,15.0,76.0
5425,74.0,0,344,11.0,76.0
5426,74.0,0,344,1.0,76.0
5427,74.0,0,344,0.0,76.0
5428,43.0,0,224,14.0,76.0
5429,72.0,120,104,0.0,76.0
5430,62.0,0,224,13.0,76.0
5431,67.0,0,224,12.0,76.0
5432,72.0,0,104,1.0,76.0
5433,72.0,0,104,11.0,76.0
5434,43.0,240,224,2.0,76.0
5435,43.0,0,239,15.0,76.0
5436,55.0,0,239,15.0,76.0
5437,62.0,0,239,15.0,76.0
5438,59.0,0,239,15.0,76.0
5439,72.0,0,719,0.0,76.0
5440,52.0,120,719,15.0,76.0
5441,48.0,0,719,15.0,76.0
5442,55.0,0,719,15.0,76.0
5443,36.0,0,719,15.0,76.0
5444,72.0,0,719,1.0,76.0
5445,36.0,0,719,2.0,76.0
5446,67.0,0,719,12.0,76.0
5447,64.0,0,719,13.0,76.0
5448,36.0,0,719,14.0,76.0
5449,72.0,0,719,11.0,76.0
