,note,step,duration,channel,velocity
0,47.0,0,89,4.0,76.0
1,83.0,0,89,1.0,76.0
2,78.0,0,89,2.0,76.0
3,74.0,0,89,3.0,76.0
4,66.0,0,104,5.0,76.0
5,47.0,0,104,5.0,76.0
6,59.0,0,104,5.0,76.0
7,62.0,0,104,5.0,76.0
8,83.0,0,104,0.0,76.0
9,86.0,120,47,0.0,76.0
10,47.0,0,89,4.0,76.0
11,66.0,0,104,5.0,76.0
12,62.0,0,104,5.0,76.0
13,47.0,0,104,5.0,76.0
14,59.0,0,104,5.0,76.0
15,83.0,60,47,0.0,76.0
16,78.0,60,89,1.0,76.0
17,50.0,0,89,4.0,76.0
18,74.0,0,89,2.0,76.0
19,71.0,0,89,3.0,76.0
20,78.0,0,104,0.0,76.0
21,50.0,0,104,5.0,76.0
22,62.0,0,104,5.0,76.0
23,71.0,0,104,5.0,76.0
24,66.0,0,104,5.0,76.0
25,83.0,0,47,0.0,76.0
26,47.0,0,89,4.0,76.0
27,66.0,0,104,5.0,76.0
28,62.0,0,104,5.0,76.0
29,47.0,120,104,5.0,76.0
30,59.0,0,104,5.0,76.0
31,78.0,60,47,0.0,76.0
32,54.0,0,89,4.0,76.0
33,71.0,0,89,2.0,76.0
34,66.0,0,89,3.0,76.0
35,74.0,60,89,1.0,76.0
36,71.0,0,104,5.0,76.0
37,74.0,0,104,0.0,76.0
38,74.0,0,104,5.0,76.0
39,54.0,0,104,5.0,76.0
40,66.0,0,104,5.0,76.0
41,78.0,0,47,0.0,76.0
42,50.0,0,89,4.0,76.0
43,50.0,120,104,5.0,76.0
44,62.0,0,104,5.0,76.0
45,71.0,0,104,5.0,76.0
46,66.0,0,104,5.0,76.0
47,74.0,60,47,0.0,76.0
48,59.0,60,89,4.0,76.0
49,74.0,0,104,5.0,76.0
50,59.0,0,104,5.0,76.0
51,71.0,0,104,5.0,76.0
52,67.0,0,104,5.0,76.0
53,54.0,0,89,4.0,76.0
54,66.0,120,104,5.0,76.0
55,73.0,0,104,5.0,76.0
56,71.0,0,224,1.0,76.0
57,66.0,0,224,2.0,76.0
58,71.0,0,224,0.0,76.0
59,54.0,0,104,5.0,76.0
60,62.0,0,224,3.0,76.0
61,69.0,0,104,5.0,76.0
62,66.0,0,47,0.0,76.0
63,62.0,0,89,3.0,76.0
64,50.0,0,89,4.0,76.0
65,71.0,0,89,1.0,76.0
66,66.0,0,89,2.0,76.0
67,62.0,120,104,5.0,76.0
68,50.0,0,104,5.0,76.0
69,66.0,0,104,5.0,76.0
70,71.0,0,104,5.0,76.0
71,71.0,60,47,0.0,76.0
72,74.0,0,47,0.0,76.0
73,47.0,0,89,4.0,76.0
74,66.0,0,89,3.0,76.0
75,71.0,0,89,2.0,76.0
76,74.0,0,89,1.0,76.0
77,59.0,0,104,5.0,76.0
78,47.0,0,104,5.0,76.0
79,66.0,0,104,5.0,76.0
80,62.0,60,104,5.0,76.0
81,71.0,60,47,0.0,76.0
82,73.0,0,47,0.0,76.0
83,52.0,0,89,4.0,76.0
84,71.0,0,89,2.0,76.0
85,73.0,0,89,1.0,76.0
86,67.0,0,89,3.0,76.0
87,73.0,0,104,5.0,76.0
88,64.0,0,104,5.0,76.0
89,67.0,60,104,5.0,76.0
90,71.0,0,104,5.0,76.0
91,52.0,0,104,5.0,76.0
92,71.0,60,47,0.0,76.0
93,73.0,60,47,0.0,76.0
94,73.0,0,89,1.0,76.0
95,71.0,0,89,2.0,76.0
96,64.0,0,89,3.0,76.0
97,49.0,0,89,4.0,76.0
98,67.0,0,104,5.0,76.0
99,61.0,0,104,5.0,76.0
100,64.0,0,104,5.0,76.0
101,49.0,0,104,5.0,76.0
102,71.0,60,47,0.0,76.0
103,70.0,0,47,0.0,76.0
104,73.0,0,89,1.0,76.0
105,66.0,0,89,3.0,76.0
106,54.0,0,89,4.0,76.0
107,70.0,0,89,2.0,76.0
108,73.0,0,104,5.0,76.0
109,66.0,0,104,5.0,76.0
110,54.0,0,104,5.0,76.0
111,70.0,60,104,5.0,76.0
112,73.0,60,47,0.0,76.0
113,76.0,0,47,0.0,76.0
114,42.0,0,89,4.0,76.0
115,70.0,0,89,2.0,76.0
116,76.0,0,89,1.0,76.0
117,66.0,0,89,3.0,76.0
118,61.0,0,104,5.0,76.0
119,42.0,0,104,5.0,76.0
120,58.0,60,104,5.0,76.0
121,54.0,0,104,5.0,76.0
122,73.0,60,47,0.0,76.0
123,47.0,0,44,5.0,76.0
124,47.0,0,44,4.0,76.0
125,62.0,0,44,5.0,76.0
126,66.0,0,44,5.0,76.0
127,59.0,0,44,5.0,76.0
128,66.0,60,89,3.0,76.0
129,74.0,0,89,1.0,76.0
130,71.0,0,89,2.0,76.0
131,74.0,0,104,0.0,76.0
132,49.0,0,44,5.0,76.0
133,61.0,60,44,5.0,76.0
134,49.0,0,44,4.0,76.0
135,64.0,0,44,5.0,76.0
136,67.0,0,44,5.0,76.0
137,69.0,0,44,5.0,76.0
138,50.0,0,44,5.0,76.0
139,66.0,0,44,5.0,76.0
140,62.0,60,44,5.0,76.0
141,50.0,0,44,4.0,76.0
142,62.0,0,89,3.0,76.0
143,71.0,0,89,1.0,76.0
144,66.0,0,89,2.0,76.0
145,61.0,0,44,5.0,76.0
146,49.0,0,44,5.0,76.0
147,67.0,60,44,5.0,76.0
148,64.0,0,44,5.0,76.0
149,49.0,0,44,4.0,76.0
150,71.0,0,104,0.0,76.0
151,74.0,0,89,3.0,76.0
152,47.0,0,89,4.0,76.0
153,83.0,0,89,1.0,76.0
154,78.0,0,89,2.0,76.0
155,66.0,0,104,5.0,76.0
156,47.0,0,104,5.0,76.0
157,62.0,0,104,5.0,76.0
158,59.0,60,104,5.0,76.0
159,83.0,0,104,0.0,76.0
160,86.0,0,47,0.0,76.0
161,47.0,0,89,4.0,76.0
162,66.0,0,104,5.0,76.0
163,47.0,0,104,5.0,76.0
164,59.0,0,104,5.0,76.0
165,62.0,120,104,5.0,76.0
166,83.0,60,47,0.0,76.0
167,74.0,0,89,2.0,76.0
168,50.0,60,89,4.0,76.0
169,71.0,0,89,3.0,76.0
170,78.0,0,89,1.0,76.0
171,66.0,0,104,5.0,76.0
172,78.0,0,104,0.0,76.0
173,62.0,0,104,5.0,76.0
174,71.0,0,104,5.0,76.0
175,50.0,0,104,5.0,76.0
176,83.0,120,47,0.0,76.0
177,47.0,0,89,4.0,76.0
178,66.0,0,104,5.0,76.0
179,47.0,0,104,5.0,76.0
180,62.0,0,104,5.0,76.0
181,59.0,0,104,5.0,76.0
182,78.0,60,47,0.0,76.0
183,66.0,60,89,3.0,76.0
184,71.0,0,89,2.0,76.0
185,74.0,0,89,1.0,76.0
186,54.0,0,89,4.0,76.0
187,74.0,0,104,0.0,76.0
188,66.0,0,104,5.0,76.0
189,54.0,0,104,5.0,76.0
190,71.0,0,104,5.0,76.0
191,74.0,0,104,5.0,76.0
192,78.0,120,47,0.0,76.0
193,50.0,0,89,4.0,76.0
194,69.0,0,104,5.0,76.0
195,50.0,0,104,5.0,76.0
196,62.0,0,104,5.0,76.0
197,66.0,0,104,5.0,76.0
198,74.0,60,47,0.0,76.0
199,59.0,0,89,4.0,76.0
200,78.0,0,104,5.0,76.0
201,71.0,60,104,5.0,76.0
202,59.0,0,104,5.0,76.0
203,74.0,0,104,5.0,76.0
204,54.0,120,89,4.0,76.0
205,71.0,0,224,1.0,76.0
206,66.0,0,104,5.0,76.0
207,73.0,0,104,5.0,76.0
208,69.0,0,104,5.0,76.0
209,54.0,0,104,5.0,76.0
210,66.0,0,224,2.0,76.0
211,62.0,0,224,3.0,76.0
212,71.0,0,224,0.0,76.0
213,74.0,0,47,1.0,76.0
214,59.0,0,89,4.0,76.0
215,71.0,0,89,3.0,76.0
216,66.0,120,89,2.0,76.0
217,74.0,0,89,0.0,76.0
218,59.0,0,104,5.0,76.0
219,71.0,0,104,5.0,76.0
220,78.0,0,104,5.0,76.0
221,74.0,0,104,5.0,76.0
222,73.0,60,47,1.0,76.0
223,62.0,0,44,4.0,76.0
224,81.0,0,44,5.0,76.0
225,78.0,0,44,5.0,76.0
226,74.0,60,44,5.0,76.0
227,62.0,0,44,5.0,76.0
228,74.0,0,89,0.0,76.0
229,66.0,0,89,3.0,76.0
230,71.0,0,89,2.0,76.0
231,78.0,0,44,5.0,76.0
232,71.0,0,44,5.0,76.0
233,74.0,0,44,5.0,76.0
234,59.0,0,44,5.0,76.0
235,59.0,60,44,4.0,76.0
236,74.0,0,167,1.0,76.0
237,71.0,0,89,3.0,76.0
238,74.0,0,89,0.0,76.0
239,64.0,0,89,2.0,76.0
240,56.0,60,89,4.0,76.0
241,76.0,0,104,5.0,76.0
242,56.0,0,104,5.0,76.0
243,68.0,0,104,5.0,76.0
244,71.0,0,104,5.0,76.0
245,74.0,0,104,5.0,76.0
246,73.0,60,47,1.0,76.0
247,71.0,0,44,5.0,76.0
248,74.0,0,44,5.0,76.0
249,59.0,60,44,4.0,76.0
250,59.0,0,44,5.0,76.0
251,78.0,0,44,5.0,76.0
252,74.0,0,89,0.0,76.0
253,68.0,0,89,3.0,76.0
254,71.0,0,89,2.0,76.0
255,76.0,0,44,5.0,76.0
256,56.0,0,44,5.0,76.0
257,71.0,0,44,5.0,76.0
258,56.0,0,44,4.0,76.0
259,74.0,0,44,5.0,76.0
260,68.0,60,44,5.0,76.0
261,74.0,0,167,1.0,76.0
262,71.0,0,89,3.0,76.0
263,52.0,60,89,4.0,76.0
264,68.0,0,89,2.0,76.0
265,71.0,0,104,5.0,76.0
266,68.0,0,104,5.0,76.0
267,52.0,0,104,5.0,76.0
268,64.0,0,104,5.0,76.0
269,74.0,0,104,5.0,76.0
270,83.0,0,104,0.0,76.0
271,79.0,60,47,1.0,76.0
272,71.0,0,44,5.0,76.0
273,68.0,0,44,5.0,76.0
274,74.0,0,44,5.0,76.0
275,56.0,0,44,5.0,76.0
276,56.0,0,44,4.0,76.0
277,64.0,0,89,3.0,76.0
278,71.0,0,89,2.0,76.0
279,74.0,0,44,5.0,76.0
280,68.0,60,44,5.0,76.0
281,74.0,60,104,0.0,76.0
282,64.0,0,44,5.0,76.0
283,74.0,0,104,1.0,76.0
284,52.0,0,44,4.0,76.0
285,71.0,0,44,5.0,76.0
286,52.0,0,44,5.0,76.0
287,74.0,0,29,1.0,76.0
288,74.0,0,29,0.0,76.0
289,76.0,30,29,1.0,76.0
290,76.0,0,29,0.0,76.0
291,73.0,30,29,0.0,76.0
292,64.0,0,89,3.0,76.0
293,73.0,0,29,1.0,76.0
294,69.0,0,89,2.0,76.0
295,57.0,0,89,4.0,76.0
296,74.0,0,104,5.0,76.0
297,69.0,0,104,5.0,76.0
298,57.0,0,104,5.0,76.0
299,64.0,60,104,5.0,76.0
300,74.0,30,29,0.0,76.0
301,74.0,0,29,1.0,76.0
302,61.0,0,44,4.0,76.0
303,81.0,30,44,5.0,76.0
304,73.0,0,44,5.0,76.0
305,76.0,0,44,5.0,76.0
306,61.0,0,44,5.0,76.0
307,69.0,0,89,3.0,76.0
308,64.0,0,89,2.0,76.0
309,73.0,0,104,1.0,76.0
310,73.0,0,104,0.0,76.0
311,57.0,0,44,4.0,76.0
312,64.0,60,44,5.0,76.0
313,69.0,0,44,5.0,76.0
314,74.0,0,44,5.0,76.0
315,57.0,0,44,5.0,76.0
316,78.0,0,47,1.0,76.0
317,66.0,0,89,3.0,76.0
318,78.0,0,89,0.0,76.0
319,62.0,0,89,4.0,76.0
320,69.0,60,89,2.0,76.0
321,62.0,0,104,5.0,76.0
322,81.0,0,104,5.0,76.0
323,74.0,0,104,5.0,76.0
324,78.0,0,104,5.0,76.0
325,77.0,60,47,1.0,76.0
326,85.0,0,44,5.0,76.0
327,81.0,0,44,5.0,76.0
328,66.0,0,44,5.0,76.0
329,78.0,0,44,5.0,76.0
330,66.0,0,44,4.0,76.0
331,74.0,60,89,2.0,76.0
332,69.0,0,89,3.0,76.0
333,78.0,0,89,0.0,76.0
334,74.0,0,44,5.0,76.0
335,62.0,0,44,4.0,76.0
336,81.0,0,44,5.0,76.0
337,62.0,0,44,5.0,76.0
338,78.0,60,44,5.0,76.0
339,78.0,0,167,1.0,76.0
340,59.0,60,89,4.0,76.0
341,68.0,0,89,2.0,76.0
342,74.0,0,89,3.0,76.0
343,80.0,0,104,5.0,76.0
344,71.0,0,104,5.0,76.0
345,78.0,0,104,5.0,76.0
346,59.0,0,104,5.0,76.0
347,74.0,0,104,5.0,76.0
348,78.0,0,104,0.0,76.0
349,77.0,60,47,1.0,76.0
350,62.0,0,44,5.0,76.0
351,78.0,0,44,5.0,76.0
352,74.0,0,44,5.0,76.0
353,81.0,0,44,5.0,76.0
354,62.0,0,44,4.0,76.0
355,74.0,0,89,2.0,76.0
356,71.0,60,89,3.0,76.0
357,78.0,0,104,0.0,76.0
358,59.0,60,44,4.0,76.0
359,71.0,0,44,5.0,76.0
360,80.0,0,44,5.0,76.0
361,59.0,0,44,5.0,76.0
362,78.0,0,44,5.0,76.0
363,74.0,0,44,5.0,76.0
364,78.0,0,167,1.0,76.0
365,56.0,0,89,4.0,76.0
366,71.0,0,89,2.0,76.0
367,74.0,0,89,3.0,76.0
368,86.0,60,104,0.0,76.0
369,56.0,0,104,5.0,76.0
370,71.0,0,104,5.0,76.0
371,74.0,0,104,5.0,76.0
372,68.0,0,104,5.0,76.0
373,78.0,0,104,5.0,76.0
374,86.0,60,47,1.0,76.0
375,78.0,60,44,5.0,76.0
376,71.0,0,44,5.0,76.0
377,59.0,0,44,4.0,76.0
378,74.0,0,44,5.0,76.0
379,59.0,0,44,5.0,76.0
380,74.0,0,89,2.0,76.0
381,68.0,0,89,3.0,76.0
382,78.0,0,104,0.0,76.0
383,56.0,0,44,4.0,76.0
384,56.0,0,44,5.0,76.0
385,74.0,0,44,5.0,76.0
386,71.0,60,44,5.0,76.0
387,78.0,0,104,1.0,76.0
388,78.0,0,44,5.0,76.0
389,68.0,0,44,5.0,76.0
390,78.0,0,29,1.0,76.0
391,78.0,0,29,0.0,76.0
392,61.0,0,44,5.0,76.0
393,73.0,0,44,5.0,76.0
394,78.0,0,44,5.0,76.0
395,80.0,0,44,5.0,76.0
396,61.0,60,44,4.0,76.0
397,79.0,30,29,1.0,76.0
398,79.0,0,29,0.0,76.0
399,73.0,0,89,2.0,76.0
400,77.0,0,29,1.0,76.0
401,68.0,0,89,3.0,76.0
402,77.0,30,29,0.0,76.0
403,62.0,0,44,4.0,76.0
404,81.0,0,44,5.0,76.0
405,62.0,0,44,5.0,76.0
406,78.0,0,44,5.0,76.0
407,74.0,0,44,5.0,76.0
408,78.0,30,29,1.0,76.0
409,78.0,0,29,0.0,76.0
410,61.0,0,44,5.0,76.0
411,77.0,0,44,5.0,76.0
412,80.0,0,44,5.0,76.0
413,73.0,0,44,5.0,76.0
414,61.0,0,44,4.0,76.0
415,68.0,0,89,2.0,76.0
416,73.0,30,89,3.0,76.0
417,59.0,0,44,4.0,76.0
418,77.0,0,104,0.0,76.0
419,59.0,0,44,5.0,76.0
420,78.0,0,44,5.0,76.0
421,71.0,60,44,5.0,76.0
422,74.0,0,44,5.0,76.0
423,77.0,0,104,1.0,76.0
424,73.0,60,47,0.0,76.0
425,66.0,0,89,3.0,76.0
426,57.0,0,89,4.0,76.0
427,73.0,0,89,2.0,76.0
428,78.0,0,89,1.0,76.0
429,73.0,0,104,5.0,76.0
430,57.0,0,104,5.0,76.0
431,78.0,0,104,5.0,76.0
432,69.0,0,104,5.0,76.0
433,78.0,60,47,0.0,76.0
434,81.0,0,47,0.0,76.0
435,54.0,0,89,4.0,76.0
436,73.0,0,89,3.0,76.0
437,81.0,0,89,1.0,76.0
438,78.0,0,89,2.0,76.0
439,73.0,0,104,5.0,76.0
440,69.0,60,104,5.0,76.0
441,66.0,0,104,5.0,76.0
442,54.0,0,104,5.0,76.0
443,78.0,60,47,0.0,76.0
444,80.0,0,47,0.0,76.0
445,80.0,0,89,1.0,76.0
446,78.0,0,89,2.0,76.0
447,59.0,0,89,4.0,76.0
448,74.0,0,89,3.0,76.0
449,78.0,0,104,5.0,76.0
450,59.0,60,104,5.0,76.0
451,74.0,0,104,5.0,76.0
452,80.0,0,104,5.0,76.0
453,71.0,0,104,5.0,76.0
454,78.0,60,47,0.0,76.0
455,80.0,0,47,0.0,76.0
456,56.0,0,89,4.0,76.0
457,78.0,0,89,2.0,76.0
458,80.0,60,89,1.0,76.0
459,74.0,0,89,3.0,76.0
460,68.0,0,104,5.0,76.0
461,56.0,0,104,5.0,76.0
462,71.0,0,104,5.0,76.0
463,74.0,0,104,5.0,76.0
464,78.0,60,47,0.0,76.0
465,77.0,0,47,0.0,76.0
466,61.0,0,89,4.0,76.0
467,80.0,0,89,1.0,76.0
468,73.0,0,89,3.0,76.0
469,77.0,0,89,2.0,76.0
470,73.0,0,104,5.0,76.0
471,83.0,0,104,5.0,76.0
472,77.0,0,104,5.0,76.0
473,61.0,60,104,5.0,76.0
474,80.0,0,104,5.0,76.0
475,80.0,60,47,0.0,76.0
476,83.0,0,47,0.0,76.0
477,83.0,0,89,1.0,76.0
478,77.0,0,89,2.0,76.0
479,49.0,0,89,4.0,76.0
480,73.0,60,89,3.0,76.0
481,68.0,0,104,5.0,76.0
482,49.0,0,104,5.0,76.0
483,61.0,0,104,5.0,76.0
484,65.0,0,104,5.0,76.0
485,71.0,0,104,5.0,76.0
486,80.0,60,47,0.0,76.0
487,81.0,60,47,0.0,76.0
488,78.0,0,89,2.0,76.0
489,61.0,0,89,3.0,76.0
490,54.0,0,89,4.0,76.0
491,81.0,0,104,1.0,76.0
492,54.0,0,104,5.0,76.0
493,73.0,0,104,5.0,76.0
494,66.0,0,104,5.0,76.0
495,69.0,0,104,5.0,76.0
496,80.0,60,47,0.0,76.0
497,81.0,0,47,0.0,76.0
498,78.0,0,59,1.0,76.0
499,73.0,0,89,3.0,76.0
500,42.0,0,89,4.0,76.0
501,69.0,0,89,2.0,76.0
502,57.0,0,104,5.0,76.0
503,54.0,0,104,5.0,76.0
504,42.0,60,104,5.0,76.0
505,61.0,0,104,5.0,76.0
506,80.0,0,47,0.0,76.0
507,77.0,60,59,1.0,76.0
508,78.0,0,47,0.0,76.0
509,69.0,0,89,3.0,76.0
510,73.0,0,89,2.0,76.0
511,54.0,0,89,4.0,76.0
512,78.0,60,104,1.0,76.0
513,66.0,0,104,5.0,76.0
514,69.0,0,104,5.0,76.0
515,54.0,0,104,5.0,76.0
516,73.0,0,104,5.0,76.0
517,81.0,60,47,0.0,76.0
518,78.0,0,59,0.0,76.0
519,57.0,0,89,4.0,76.0
520,78.0,0,104,5.0,76.0
521,73.0,0,104,1.0,76.0
522,57.0,0,104,5.0,76.0
523,73.0,60,104,5.0,76.0
524,69.0,0,104,5.0,76.0
525,77.0,60,59,0.0,76.0
526,78.0,0,47,0.0,76.0
527,50.0,0,89,4.0,76.0
528,66.0,0,89,3.0,76.0
529,78.0,60,89,1.0,76.0
530,71.0,0,89,2.0,76.0
531,71.0,0,104,5.0,76.0
532,62.0,0,104,5.0,76.0
533,50.0,0,104,5.0,76.0
534,66.0,0,104,5.0,76.0
535,83.0,60,47,0.0,76.0
536,78.0,60,59,0.0,76.0
537,71.0,0,89,1.0,76.0
538,59.0,0,89,4.0,76.0
539,74.0,0,104,5.0,76.0
540,71.0,0,104,5.0,76.0
541,59.0,0,104,5.0,76.0
542,78.0,0,104,5.0,76.0
543,77.0,60,59,0.0,76.0
544,78.0,60,47,0.0,76.0
545,49.0,0,89,4.0,76.0
546,78.0,0,89,1.0,76.0
547,69.0,0,89,3.0,76.0
548,69.0,0,89,2.0,76.0
549,69.0,0,104,5.0,76.0
550,49.0,0,104,5.0,76.0
551,66.0,0,104,5.0,76.0
552,61.0,0,104,5.0,76.0
553,85.0,60,47,0.0,76.0
554,78.0,0,59,0.0,76.0
555,69.0,60,89,1.0,76.0
556,61.0,0,89,4.0,76.0
557,81.0,0,104,5.0,76.0
558,78.0,0,104,5.0,76.0
559,61.0,0,104,5.0,76.0
560,73.0,0,104,5.0,76.0
561,77.0,60,59,0.0,76.0
562,78.0,0,47,0.0,76.0
563,47.0,0,89,4.0,76.0
564,78.0,0,89,1.0,76.0
565,68.0,0,89,2.0,76.0
566,71.0,0,89,3.0,76.0
567,59.0,0,104,5.0,76.0
568,68.0,0,104,5.0,76.0
569,66.0,60,104,5.0,76.0
570,47.0,0,104,5.0,76.0
571,62.0,0,104,5.0,76.0
572,86.0,60,47,0.0,76.0
573,78.0,0,59,0.0,76.0
574,62.0,0,89,4.0,76.0
575,68.0,0,89,1.0,76.0
576,81.0,0,104,5.0,76.0
577,74.0,0,104,5.0,76.0
578,62.0,60,104,5.0,76.0
579,78.0,0,104,5.0,76.0
580,77.0,60,59,0.0,76.0
581,78.0,0,47,0.0,76.0
582,71.0,0,89,2.0,76.0
583,59.0,0,89,4.0,76.0
584,78.0,0,89,1.0,76.0
585,68.0,60,89,3.0,76.0
586,59.0,0,104,5.0,76.0
587,74.0,0,104,5.0,76.0
588,71.0,0,104,5.0,76.0
589,80.0,0,104,5.0,76.0
590,78.0,0,104,5.0,76.0
591,86.0,60,47,0.0,76.0
592,85.0,0,47,0.0,76.0
593,56.0,0,89,4.0,76.0
594,74.0,0,89,2.0,76.0
595,77.0,0,89,1.0,76.0
596,71.0,0,89,3.0,76.0
597,71.0,0,104,5.0,76.0
598,68.0,0,104,5.0,76.0
599,56.0,0,104,5.0,76.0
600,77.0,60,104,5.0,76.0
601,83.0,60,47,0.0,76.0
602,85.0,0,47,0.0,76.0
603,73.0,0,89,2.0,76.0
604,69.0,0,89,3.0,76.0
605,57.0,0,89,4.0,76.0
606,78.0,0,89,1.0,76.0
607,73.0,60,104,5.0,76.0
608,78.0,0,104,5.0,76.0
609,69.0,0,104,5.0,76.0
610,57.0,0,104,5.0,76.0
611,81.0,60,47,0.0,76.0
612,80.0,0,47,0.0,76.0
613,59.0,0,89,4.0,76.0
614,80.0,0,89,1.0,76.0
615,74.0,0,89,3.0,76.0
616,71.0,0,89,2.0,76.0
617,71.0,0,104,5.0,76.0
618,74.0,60,104,5.0,76.0
619,80.0,0,104,5.0,76.0
620,59.0,0,104,5.0,76.0
621,78.0,60,47,0.0,76.0
622,73.0,0,89,3.0,76.0
623,73.0,0,89,1.0,76.0
624,69.0,0,89,2.0,76.0
625,61.0,0,89,4.0,76.0
626,81.0,0,104,5.0,76.0
627,73.0,0,104,5.0,76.0
628,78.0,0,104,5.0,76.0
629,61.0,0,104,5.0,76.0
630,81.0,60,104,0.0,76.0
631,80.0,0,29,0.0,76.0
632,81.0,30,29,0.0,76.0
633,73.0,120,89,2.0,76.0
634,77.0,0,89,1.0,76.0
635,71.0,0,89,3.0,76.0
636,78.0,30,29,0.0,76.0
637,49.0,0,89,4.0,76.0
638,61.0,0,104,5.0,76.0
639,49.0,0,104,5.0,76.0
640,68.0,0,104,5.0,76.0
641,65.0,0,104,5.0,76.0
642,80.0,30,29,0.0,76.0
643,54.0,0,209,4.0,76.0
644,69.0,0,224,3.0,76.0
645,78.0,0,224,1.0,76.0
646,78.0,30,224,0.0,76.0
647,73.0,0,224,2.0,76.0
648,69.0,0,224,5.0,76.0
649,54.0,0,224,5.0,76.0
650,73.0,0,224,5.0,76.0
651,66.0,0,224,5.0,76.0
652,83.0,0,89,1.0,76.0
653,78.0,240,89,2.0,76.0
654,74.0,0,89,3.0,76.0
655,47.0,0,89,4.0,76.0
656,62.0,0,104,5.0,76.0
657,66.0,0,104,5.0,76.0
658,47.0,0,104,5.0,76.0
659,59.0,0,104,5.0,76.0
660,83.0,0,104,0.0,76.0
661,86.0,120,47,0.0,76.0
662,47.0,0,89,4.0,76.0
663,59.0,0,104,5.0,76.0
664,62.0,0,104,5.0,76.0
665,47.0,0,104,5.0,76.0
666,66.0,0,104,5.0,76.0
667,83.0,60,47,0.0,76.0
668,71.0,0,89,3.0,76.0
669,78.0,0,89,1.0,76.0
670,74.0,0,89,2.0,76.0
671,50.0,0,89,4.0,76.0
672,62.0,0,104,5.0,76.0
673,71.0,0,104,5.0,76.0
674,50.0,0,104,5.0,76.0
675,66.0,0,104,5.0,76.0
676,78.0,60,104,0.0,76.0
677,83.0,120,47,0.0,76.0
678,47.0,0,89,4.0,76.0
679,66.0,0,104,5.0,76.0
680,47.0,0,104,5.0,76.0
681,62.0,0,104,5.0,76.0
682,59.0,0,104,5.0,76.0
683,78.0,60,47,0.0,76.0
684,71.0,60,89,2.0,76.0
685,54.0,0,89,4.0,76.0
686,66.0,0,89,3.0,76.0
687,74.0,0,89,1.0,76.0
688,74.0,0,104,0.0,76.0
689,71.0,0,104,5.0,76.0
690,74.0,0,104,5.0,76.0
691,54.0,0,104,5.0,76.0
692,66.0,0,104,5.0,76.0
693,78.0,0,47,0.0,76.0
694,50.0,120,89,4.0,76.0
695,62.0,0,104,5.0,76.0
696,50.0,0,104,5.0,76.0
697,66.0,0,104,5.0,76.0
698,71.0,0,104,5.0,76.0
699,74.0,60,47,0.0,76.0
700,59.0,0,89,4.0,76.0
701,67.0,0,104,5.0,76.0
702,74.0,60,104,5.0,76.0
703,71.0,0,104,5.0,76.0
704,59.0,0,104,5.0,76.0
705,54.0,0,89,4.0,76.0
706,71.0,0,224,1.0,76.0
707,54.0,0,104,5.0,76.0
708,66.0,0,224,2.0,76.0
709,66.0,120,104,5.0,76.0
710,69.0,0,104,5.0,76.0
711,62.0,0,224,3.0,76.0
712,73.0,0,104,5.0,76.0
713,71.0,0,224,0.0,76.0
714,66.0,0,47,0.0,76.0
715,50.0,0,89,4.0,76.0
716,66.0,0,89,2.0,76.0
717,62.0,120,89,3.0,76.0
718,71.0,0,89,1.0,76.0
719,66.0,0,104,5.0,76.0
720,71.0,0,104,5.0,76.0
721,50.0,0,104,5.0,76.0
722,62.0,0,104,5.0,76.0
723,71.0,60,47,0.0,76.0
724,74.0,0,47,0.0,76.0
725,47.0,0,89,4.0,76.0
726,71.0,60,89,2.0,76.0
727,74.0,0,89,1.0,76.0
728,66.0,0,89,3.0,76.0
729,62.0,0,104,5.0,76.0
730,47.0,0,104,5.0,76.0
731,59.0,0,104,5.0,76.0
732,66.0,0,104,5.0,76.0
733,71.0,60,47,0.0,76.0
734,73.0,60,47,0.0,76.0
735,52.0,0,89,4.0,76.0
736,71.0,0,89,2.0,76.0
737,67.0,0,89,3.0,76.0
738,73.0,0,89,1.0,76.0
739,71.0,0,104,5.0,76.0
740,52.0,0,104,5.0,76.0
741,64.0,0,104,5.0,76.0
742,73.0,0,104,5.0,76.0
743,67.0,0,104,5.0,76.0
744,71.0,60,47,0.0,76.0
745,73.0,0,47,0.0,76.0
746,71.0,0,89,2.0,76.0
747,64.0,0,89,3.0,76.0
748,49.0,0,89,4.0,76.0
749,73.0,0,89,1.0,76.0
750,64.0,0,104,5.0,76.0
751,61.0,0,104,5.0,76.0
752,67.0,0,104,5.0,76.0
753,49.0,60,104,5.0,76.0
754,71.0,60,47,0.0,76.0
755,70.0,0,47,0.0,76.0
756,54.0,0,89,4.0,76.0
757,73.0,0,89,1.0,76.0
758,66.0,0,89,3.0,76.0
759,70.0,0,89,2.0,76.0
760,73.0,0,104,5.0,76.0
761,54.0,0,104,5.0,76.0
762,70.0,0,104,5.0,76.0
763,66.0,60,104,5.0,76.0
764,73.0,60,47,0.0,76.0
765,76.0,0,47,0.0,76.0
766,66.0,0,89,3.0,76.0
767,42.0,0,89,4.0,76.0
768,76.0,0,89,1.0,76.0
769,70.0,60,89,2.0,76.0
770,58.0,0,104,5.0,76.0
771,61.0,0,104,5.0,76.0
772,54.0,0,104,5.0,76.0
773,42.0,0,104,5.0,76.0
774,73.0,60,47,0.0,76.0
775,66.0,0,44,5.0,76.0
776,59.0,0,44,5.0,76.0
777,47.0,0,44,5.0,76.0
778,47.0,0,44,4.0,76.0
779,62.0,0,44,5.0,76.0
780,66.0,0,89,3.0,76.0
781,74.0,0,89,1.0,76.0
782,71.0,0,89,2.0,76.0
783,64.0,0,44,5.0,76.0
784,61.0,0,44,5.0,76.0
785,67.0,0,44,5.0,76.0
786,49.0,60,44,5.0,76.0
787,74.0,60,104,0.0,76.0
788,49.0,0,44,4.0,76.0
789,69.0,0,44,5.0,76.0
790,66.0,0,44,5.0,76.0
791,50.0,0,44,5.0,76.0
792,62.0,0,44,5.0,76.0
793,50.0,60,44,4.0,76.0
794,66.0,0,89,2.0,76.0
795,62.0,0,89,3.0,76.0
796,71.0,0,89,1.0,76.0
797,64.0,0,44,5.0,76.0
798,71.0,0,104,0.0,76.0
799,67.0,0,44,5.0,76.0
800,49.0,0,44,5.0,76.0
801,61.0,60,44,5.0,76.0
802,49.0,0,44,4.0,76.0
803,78.0,0,89,2.0,76.0
804,74.0,0,89,3.0,76.0
805,83.0,0,89,1.0,76.0
806,47.0,0,89,4.0,76.0
807,62.0,0,104,5.0,76.0
808,66.0,0,104,5.0,76.0
809,47.0,60,104,5.0,76.0
810,83.0,0,104,0.0,76.0
811,59.0,0,104,5.0,76.0
812,86.0,120,47,0.0,76.0
813,47.0,0,89,4.0,76.0
814,62.0,0,104,5.0,76.0
815,59.0,0,104,5.0,76.0
816,47.0,0,104,5.0,76.0
817,66.0,0,104,5.0,76.0
818,83.0,60,47,0.0,76.0
819,78.0,0,89,1.0,76.0
820,74.0,0,89,2.0,76.0
821,50.0,0,89,4.0,76.0
822,71.0,0,89,3.0,76.0
823,71.0,60,104,5.0,76.0
824,50.0,0,104,5.0,76.0
825,66.0,0,104,5.0,76.0
826,62.0,0,104,5.0,76.0
827,78.0,0,104,0.0,76.0
828,83.0,120,47,0.0,76.0
829,47.0,0,89,4.0,76.0
830,47.0,0,104,5.0,76.0
831,59.0,0,104,5.0,76.0
832,66.0,0,104,5.0,76.0
833,62.0,0,104,5.0,76.0
834,78.0,60,47,0.0,76.0
835,54.0,0,89,4.0,76.0
836,74.0,0,89,1.0,76.0
837,71.0,0,89,2.0,76.0
838,66.0,0,89,3.0,76.0
839,74.0,0,104,0.0,76.0
840,66.0,0,104,5.0,76.0
841,71.0,0,104,5.0,76.0
842,74.0,60,104,5.0,76.0
843,54.0,0,104,5.0,76.0
844,78.0,0,47,0.0,76.0
845,50.0,0,89,4.0,76.0
846,69.0,120,104,5.0,76.0
847,66.0,0,104,5.0,76.0
848,50.0,0,104,5.0,76.0
849,62.0,0,104,5.0,76.0
850,74.0,60,47,0.0,76.0
851,59.0,0,89,4.0,76.0
852,74.0,0,104,5.0,76.0
853,78.0,0,104,5.0,76.0
854,71.0,0,104,5.0,76.0
855,59.0,0,104,5.0,76.0
856,54.0,0,89,4.0,76.0
857,66.0,60,224,2.0,76.0
858,62.0,0,224,3.0,76.0
859,71.0,0,224,1.0,76.0
860,66.0,0,104,5.0,76.0
861,69.0,120,104,5.0,76.0
862,71.0,0,224,0.0,76.0
863,73.0,0,104,5.0,76.0
864,54.0,0,104,5.0,76.0
865,74.0,0,47,1.0,76.0
866,71.0,0,89,3.0,76.0
867,74.0,0,89,0.0,76.0
868,59.0,120,89,4.0,76.0
869,66.0,0,89,2.0,76.0
870,59.0,0,104,5.0,76.0
871,78.0,0,104,5.0,76.0
872,74.0,0,104,5.0,76.0
873,71.0,0,104,5.0,76.0
874,73.0,60,47,1.0,76.0
875,62.0,60,44,5.0,76.0
876,78.0,0,44,5.0,76.0
877,74.0,0,44,5.0,76.0
878,81.0,0,44,5.0,76.0
879,62.0,0,44,4.0,76.0
880,66.0,0,89,3.0,76.0
881,74.0,0,89,0.0,76.0
882,71.0,0,89,2.0,76.0
883,74.0,0,44,5.0,76.0
884,59.0,60,44,4.0,76.0
885,59.0,0,44,5.0,76.0
886,71.0,0,44,5.0,76.0
887,78.0,0,44,5.0,76.0
888,74.0,0,167,1.0,76.0
889,71.0,0,89,3.0,76.0
890,64.0,0,89,2.0,76.0
891,56.0,0,89,4.0,76.0
892,74.0,0,89,0.0,76.0
893,76.0,0,104,5.0,76.0
894,56.0,60,104,5.0,76.0
895,71.0,0,104,5.0,76.0
896,68.0,0,104,5.0,76.0
897,74.0,0,104,5.0,76.0
898,73.0,60,47,1.0,76.0
899,78.0,0,44,5.0,76.0
900,59.0,0,44,5.0,76.0
901,74.0,0,44,5.0,76.0
902,71.0,0,44,5.0,76.0
903,59.0,0,44,4.0,76.0
904,71.0,0,89,2.0,76.0
905,74.0,60,89,0.0,76.0
906,68.0,0,89,3.0,76.0
907,56.0,60,44,4.0,76.0
908,56.0,0,44,5.0,76.0
909,76.0,0,44,5.0,76.0
910,74.0,0,44,5.0,76.0
911,71.0,0,44,5.0,76.0
912,68.0,0,44,5.0,76.0
913,74.0,0,167,1.0,76.0
914,68.0,0,89,2.0,76.0
915,52.0,0,89,4.0,76.0
916,71.0,0,89,3.0,76.0
917,83.0,0,104,0.0,76.0
918,74.0,60,104,5.0,76.0
919,71.0,0,104,5.0,76.0
920,68.0,0,104,5.0,76.0
921,64.0,0,104,5.0,76.0
922,52.0,0,104,5.0,76.0
923,79.0,60,47,1.0,76.0
924,71.0,0,44,5.0,76.0
925,68.0,60,44,5.0,76.0
926,56.0,0,44,5.0,76.0
927,74.0,0,44,5.0,76.0
928,56.0,0,44,4.0,76.0
929,64.0,0,89,3.0,76.0
930,71.0,0,89,2.0,76.0
931,68.0,0,44,5.0,76.0
932,74.0,0,104,1.0,76.0
933,52.0,60,44,4.0,76.0
934,74.0,0,44,5.0,76.0
935,74.0,0,104,0.0,76.0
936,71.0,0,44,5.0,76.0
937,52.0,0,44,5.0,76.0
938,64.0,0,44,5.0,76.0
939,74.0,0,29,1.0,76.0
940,74.0,0,29,0.0,76.0
941,76.0,30,29,0.0,76.0
942,76.0,0,29,1.0,76.0
943,73.0,30,29,1.0,76.0
944,57.0,0,89,4.0,76.0
945,64.0,0,89,3.0,76.0
946,69.0,0,89,2.0,76.0
947,73.0,0,29,0.0,76.0
948,64.0,0,104,5.0,76.0
949,57.0,0,104,5.0,76.0
950,69.0,60,104,5.0,76.0
951,74.0,0,104,5.0,76.0
952,74.0,30,29,1.0,76.0
953,74.0,0,29,0.0,76.0
954,76.0,0,44,5.0,76.0
955,81.0,0,44,5.0,76.0
956,61.0,0,44,5.0,76.0
957,73.0,0,44,5.0,76.0
958,61.0,0,44,4.0,76.0
959,69.0,0,89,3.0,76.0
960,64.0,0,89,2.0,76.0
961,64.0,0,44,5.0,76.0
962,73.0,0,104,0.0,76.0
963,73.0,30,104,1.0,76.0
964,57.0,60,44,4.0,76.0
965,57.0,0,44,5.0,76.0
966,69.0,0,44,5.0,76.0
967,74.0,0,44,5.0,76.0
968,78.0,0,47,1.0,76.0
969,78.0,0,89,0.0,76.0
970,66.0,0,89,3.0,76.0
971,69.0,0,89,2.0,76.0
972,62.0,0,89,4.0,76.0
973,74.0,0,104,5.0,76.0
974,62.0,0,104,5.0,76.0
975,81.0,0,104,5.0,76.0
976,78.0,60,104,5.0,76.0
977,77.0,60,47,1.0,76.0
978,66.0,0,44,4.0,76.0
979,81.0,0,44,5.0,76.0
980,66.0,0,44,5.0,76.0
981,85.0,0,44,5.0,76.0
982,78.0,0,44,5.0,76.0
983,78.0,0,89,0.0,76.0
984,69.0,0,89,3.0,76.0
985,74.0,0,89,2.0,76.0
986,62.0,0,44,4.0,76.0
987,62.0,0,44,5.0,76.0
988,74.0,0,44,5.0,76.0
989,81.0,0,44,5.0,76.0
990,78.0,60,44,5.0,76.0
991,78.0,60,167,1.0,76.0
992,74.0,60,89,3.0,76.0
993,59.0,0,89,4.0,76.0
994,68.0,0,89,2.0,76.0
995,74.0,0,104,5.0,76.0
996,78.0,0,104,0.0,76.0
997,80.0,0,104,5.0,76.0
998,78.0,0,104,5.0,76.0
999,59.0,0,104,5.0,76.0
1000,71.0,0,104,5.0,76.0
1001,77.0,60,47,1.0,76.0
1002,62.0,0,44,4.0,76.0
1003,62.0,0,44,5.0,76.0
1004,74.0,0,44,5.0,76.0
1005,78.0,0,44,5.0,76.0
1006,81.0,0,44,5.0,76.0
1007,71.0,60,89,3.0,76.0
1008,74.0,0,89,2.0,76.0
1009,78.0,0,44,5.0,76.0
1010,59.0,0,44,4.0,76.0
1011,74.0,0,44,5.0,76.0
1012,71.0,0,44,5.0,76.0
1013,78.0,0,104,0.0,76.0
1014,80.0,0,44,5.0,76.0
1015,59.0,60,44,5.0,76.0
1016,78.0,0,167,1.0,76.0
1017,56.0,0,89,4.0,76.0
1018,71.0,0,89,2.0,76.0
1019,74.0,0,89,3.0,76.0
1020,68.0,0,104,5.0,76.0
1021,71.0,0,104,5.0,76.0
1022,74.0,0,104,5.0,76.0
1023,86.0,0,104,0.0,76.0
1024,78.0,0,104,5.0,76.0
1025,56.0,60,104,5.0,76.0
1026,86.0,60,47,1.0,76.0
1027,59.0,0,44,4.0,76.0
1028,74.0,0,44,5.0,76.0
1029,59.0,0,44,5.0,76.0
1030,78.0,0,44,5.0,76.0
1031,71.0,0,44,5.0,76.0
1032,68.0,0,89,3.0,76.0
1033,74.0,0,89,2.0,76.0
1034,78.0,0,104,0.0,76.0
1035,78.0,60,104,1.0,76.0
1036,56.0,0,44,4.0,76.0
1037,74.0,0,44,5.0,76.0
1038,68.0,0,44,5.0,76.0
1039,56.0,60,44,5.0,76.0
1040,71.0,0,44,5.0,76.0
1041,78.0,0,44,5.0,76.0
1042,78.0,0,29,1.0,76.0
1043,78.0,0,29,0.0,76.0
1044,73.0,0,44,5.0,76.0
1045,61.0,0,44,5.0,76.0
1046,80.0,0,44,5.0,76.0
1047,61.0,0,44,4.0,76.0
1048,78.0,0,44,5.0,76.0
1049,79.0,0,29,1.0,76.0
1050,79.0,30,29,0.0,76.0
1051,77.0,30,29,0.0,76.0
1052,77.0,0,29,1.0,76.0
1053,73.0,0,89,2.0,76.0
1054,68.0,60,89,3.0,76.0
1055,81.0,0,44,5.0,76.0
1056,62.0,0,44,5.0,76.0
1057,74.0,0,44,5.0,76.0
1058,78.0,0,44,5.0,76.0
1059,62.0,0,44,4.0,76.0
1060,78.0,30,29,0.0,76.0
1061,78.0,0,29,1.0,76.0
1062,80.0,0,44,5.0,76.0
1063,61.0,0,44,4.0,76.0
1064,61.0,0,44,5.0,76.0
1065,73.0,0,44,5.0,76.0
1066,77.0,0,44,5.0,76.0
1067,68.0,0,89,2.0,76.0
1068,73.0,30,89,3.0,76.0
1069,74.0,60,44,5.0,76.0
1070,59.0,0,44,5.0,76.0
1071,71.0,0,44,5.0,76.0
1072,77.0,0,104,0.0,76.0
1073,77.0,0,104,1.0,76.0
1074,78.0,0,44,5.0,76.0
1075,59.0,0,44,4.0,76.0
1076,73.0,0,47,0.0,76.0
1077,66.0,60,89,3.0,76.0
1078,57.0,0,89,4.0,76.0
1079,78.0,0,89,1.0,76.0
1080,73.0,0,89,2.0,76.0
1081,73.0,0,104,5.0,76.0
1082,69.0,0,104,5.0,76.0
1083,78.0,0,104,5.0,76.0
1084,57.0,0,104,5.0,76.0
1085,78.0,60,47,0.0,76.0
1086,81.0,60,47,0.0,76.0
1087,54.0,0,89,4.0,76.0
1088,81.0,0,89,1.0,76.0
1089,78.0,0,89,2.0,76.0
1090,73.0,0,89,3.0,76.0
1091,66.0,0,104,5.0,76.0
1092,54.0,0,104,5.0,76.0
1093,73.0,0,104,5.0,76.0
1094,69.0,0,104,5.0,76.0
1095,78.0,60,47,0.0,76.0
1096,80.0,60,47,0.0,76.0
1097,59.0,0,89,4.0,76.0
1098,80.0,0,89,1.0,76.0
1099,78.0,0,89,2.0,76.0
1100,74.0,0,89,3.0,76.0
1101,80.0,0,104,5.0,76.0
1102,78.0,0,104,5.0,76.0
1103,71.0,0,104,5.0,76.0
1104,59.0,0,104,5.0,76.0
1105,74.0,0,104,5.0,76.0
1106,78.0,60,47,0.0,76.0
1107,80.0,0,47,0.0,76.0
1108,78.0,0,89,2.0,76.0
1109,74.0,0,89,3.0,76.0
1110,80.0,0,89,1.0,76.0
1111,56.0,0,89,4.0,76.0
1112,56.0,60,104,5.0,76.0
1113,71.0,0,104,5.0,76.0
1114,74.0,0,104,5.0,76.0
1115,68.0,0,104,5.0,76.0
1116,78.0,60,47,0.0,76.0
1117,77.0,0,47,0.0,76.0
1118,73.0,60,89,3.0,76.0
1119,77.0,0,89,2.0,76.0
1120,80.0,0,89,1.0,76.0
1121,61.0,0,89,4.0,76.0
1122,77.0,0,104,5.0,76.0
1123,73.0,0,104,5.0,76.0
1124,83.0,0,104,5.0,76.0
1125,80.0,0,104,5.0,76.0
1126,61.0,0,104,5.0,76.0
1127,80.0,60,47,0.0,76.0
1128,83.0,0,47,0.0,76.0
1129,83.0,0,89,1.0,76.0
1130,49.0,0,89,4.0,76.0
1131,73.0,60,89,3.0,76.0
1132,77.0,0,89,2.0,76.0
1133,71.0,0,104,5.0,76.0
1134,61.0,0,104,5.0,76.0
1135,49.0,0,104,5.0,76.0
1136,68.0,0,104,5.0,76.0
1137,65.0,0,104,5.0,76.0
1138,80.0,60,47,0.0,76.0
1139,81.0,0,47,0.0,76.0
1140,54.0,0,89,4.0,76.0
1141,61.0,0,89,3.0,76.0
1142,78.0,0,89,2.0,76.0
1143,81.0,60,104,1.0,76.0
1144,73.0,0,104,5.0,76.0
1145,69.0,0,104,5.0,76.0
1146,54.0,0,104,5.0,76.0
1147,66.0,0,104,5.0,76.0
1148,80.0,60,47,0.0,76.0
1149,81.0,0,47,0.0,76.0
1150,78.0,0,59,1.0,76.0
1151,42.0,0,89,4.0,76.0
1152,69.0,60,89,2.0,76.0
1153,73.0,0,89,3.0,76.0
1154,61.0,0,104,5.0,76.0
1155,57.0,0,104,5.0,76.0
1156,54.0,0,104,5.0,76.0
1157,42.0,0,104,5.0,76.0
1158,80.0,0,47,0.0,76.0
1159,77.0,60,59,1.0,76.0
1160,78.0,0,47,0.0,76.0
1161,69.0,0,89,3.0,76.0
1162,73.0,0,89,2.0,76.0
1163,54.0,0,89,4.0,76.0
1164,78.0,0,104,1.0,76.0
1165,69.0,60,104,5.0,76.0
1166,73.0,0,104,5.0,76.0
1167,66.0,0,104,5.0,76.0
1168,54.0,0,104,5.0,76.0
1169,81.0,60,47,0.0,76.0
1170,78.0,60,59,0.0,76.0
1171,57.0,0,89,4.0,76.0
1172,73.0,0,104,1.0,76.0
1173,73.0,0,104,5.0,76.0
1174,78.0,0,104,5.0,76.0
1175,69.0,0,104,5.0,76.0
1176,57.0,0,104,5.0,76.0
1177,77.0,60,59,0.0,76.0
1178,78.0,0,47,0.0,76.0
1179,78.0,0,89,1.0,76.0
1180,66.0,0,89,3.0,76.0
1181,71.0,0,89,2.0,76.0
1182,50.0,0,89,4.0,76.0
1183,66.0,60,104,5.0,76.0
1184,62.0,0,104,5.0,76.0
1185,71.0,0,104,5.0,76.0
1186,50.0,0,104,5.0,76.0
1187,83.0,60,47,0.0,76.0
1188,78.0,0,59,0.0,76.0
1189,71.0,0,89,1.0,76.0
1190,59.0,0,89,4.0,76.0
1191,78.0,0,104,5.0,76.0
1192,74.0,0,104,5.0,76.0
1193,59.0,0,104,5.0,76.0
1194,71.0,60,104,5.0,76.0
1195,77.0,60,59,0.0,76.0
1196,78.0,60,47,0.0,76.0
1197,69.0,0,89,3.0,76.0
1198,78.0,0,89,1.0,76.0
1199,49.0,0,89,4.0,76.0
1200,69.0,0,89,2.0,76.0
1201,61.0,0,104,5.0,76.0
1202,49.0,0,104,5.0,76.0
1203,69.0,0,104,5.0,76.0
1204,66.0,0,104,5.0,76.0
1205,85.0,60,47,0.0,76.0
1206,78.0,0,59,0.0,76.0
1207,61.0,0,89,4.0,76.0
1208,69.0,0,89,1.0,76.0
1209,78.0,60,104,5.0,76.0
1210,61.0,0,104,5.0,76.0
1211,73.0,0,104,5.0,76.0
1212,81.0,0,104,5.0,76.0
1213,77.0,60,59,0.0,76.0
1214,78.0,0,47,0.0,76.0
1215,71.0,0,89,3.0,76.0
1216,68.0,0,89,2.0,76.0
1217,47.0,0,89,4.0,76.0
1218,78.0,0,89,1.0,76.0
1219,66.0,0,104,5.0,76.0
1220,59.0,60,104,5.0,76.0
1221,62.0,0,104,5.0,76.0
1222,47.0,0,104,5.0,76.0
1223,68.0,0,104,5.0,76.0
1224,86.0,60,47,0.0,76.0
1225,78.0,0,59,0.0,76.0
1226,68.0,0,89,1.0,76.0
1227,62.0,0,89,4.0,76.0
1228,62.0,0,104,5.0,76.0
1229,78.0,60,104,5.0,76.0
1230,74.0,0,104,5.0,76.0
1231,81.0,0,104,5.0,76.0
1232,77.0,60,59,0.0,76.0
1233,78.0,0,47,0.0,76.0
1234,59.0,0,89,4.0,76.0
1235,71.0,0,89,2.0,76.0
1236,68.0,0,89,3.0,76.0
1237,78.0,0,89,1.0,76.0
1238,78.0,0,104,5.0,76.0
1239,74.0,60,104,5.0,76.0
1240,71.0,0,104,5.0,76.0
1241,80.0,0,104,5.0,76.0
1242,59.0,0,104,5.0,76.0
1243,86.0,60,47,0.0,76.0
1244,85.0,0,47,0.0,76.0
1245,56.0,0,89,4.0,76.0
1246,71.0,0,89,3.0,76.0
1247,77.0,0,89,1.0,76.0
1248,74.0,0,89,2.0,76.0
1249,77.0,0,104,5.0,76.0
1250,56.0,0,104,5.0,76.0
1251,68.0,0,104,5.0,76.0
1252,71.0,60,104,5.0,76.0
1253,83.0,60,47,0.0,76.0
1254,85.0,0,47,0.0,76.0
1255,57.0,0,89,4.0,76.0
1256,78.0,0,89,1.0,76.0
1257,73.0,0,89,2.0,76.0
1258,69.0,0,89,3.0,76.0
1259,69.0,0,104,5.0,76.0
1260,73.0,60,104,5.0,76.0
1261,57.0,0,104,5.0,76.0
1262,78.0,0,104,5.0,76.0
1263,81.0,60,47,0.0,76.0
1264,80.0,0,47,0.0,76.0
1265,71.0,0,89,2.0,76.0
1266,80.0,0,89,1.0,76.0
1267,59.0,0,89,4.0,76.0
1268,74.0,0,89,3.0,76.0
1269,59.0,0,104,5.0,76.0
1270,74.0,60,104,5.0,76.0
1271,71.0,0,104,5.0,76.0
1272,80.0,0,104,5.0,76.0
1273,78.0,60,47,0.0,76.0
1274,73.0,0,89,3.0,76.0
1275,69.0,0,89,2.0,76.0
1276,73.0,0,89,1.0,76.0
1277,61.0,0,89,4.0,76.0
1278,61.0,0,104,5.0,76.0
1279,78.0,60,104,5.0,76.0
1280,73.0,0,104,5.0,76.0
1281,81.0,0,104,5.0,76.0
1282,81.0,0,104,0.0,76.0
1283,80.0,0,29,0.0,76.0
1284,81.0,30,29,0.0,76.0
1285,73.0,0,89,2.0,76.0
1286,49.0,0,89,4.0,76.0
1287,77.0,0,89,1.0,76.0
1288,71.0,120,89,3.0,76.0
1289,78.0,30,29,0.0,76.0
1290,61.0,0,104,5.0,76.0
1291,65.0,0,104,5.0,76.0
1292,68.0,0,104,5.0,76.0
1293,49.0,0,104,5.0,76.0
1294,80.0,30,29,0.0,76.0
1295,54.0,30,209,4.0,76.0
1296,73.0,0,209,2.0,76.0
1297,69.0,0,224,3.0,76.0
1298,66.0,0,224,5.0,76.0
1299,69.0,0,224,5.0,76.0
1300,78.0,0,224,0.0,76.0
1301,54.0,0,224,5.0,76.0
1302,73.0,0,224,5.0,76.0
1303,78.0,0,224,1.0,76.0
1304,42.0,0,89,4.0,76.0
1305,78.0,0,89,1.0,76.0
1306,73.0,0,89,2.0,76.0
1307,69.0,240,89,3.0,76.0
1308,61.0,0,104,5.0,76.0
1309,54.0,0,104,5.0,76.0
1310,42.0,0,104,5.0,76.0
1311,78.0,0,104,0.0,76.0
1312,57.0,0,104,5.0,76.0
1313,81.0,0,47,0.0,76.0
1314,42.0,0,89,4.0,76.0
1315,54.0,0,104,5.0,76.0
1316,42.0,0,104,5.0,76.0
1317,57.0,0,104,5.0,76.0
1318,61.0,120,104,5.0,76.0
1319,78.0,60,47,0.0,76.0
1320,73.0,0,89,1.0,76.0
1321,66.0,0,89,3.0,76.0
1322,69.0,0,89,2.0,76.0
1323,45.0,60,89,4.0,76.0
1324,45.0,0,104,5.0,76.0
1325,66.0,0,104,5.0,76.0
1326,57.0,0,104,5.0,76.0
1327,73.0,0,104,0.0,76.0
1328,61.0,0,104,5.0,76.0
1329,78.0,0,47,0.0,76.0
1330,42.0,0,89,4.0,76.0
1331,61.0,120,104,5.0,76.0
1332,42.0,0,104,5.0,76.0
1333,54.0,0,104,5.0,76.0
1334,57.0,0,104,5.0,76.0
1335,73.0,60,47,0.0,76.0
1336,66.0,0,89,2.0,76.0
1337,61.0,0,89,3.0,76.0
1338,69.0,0,89,1.0,76.0
1339,49.0,0,89,4.0,76.0
1340,66.0,0,104,5.0,76.0
1341,61.0,60,104,5.0,76.0
1342,69.0,0,104,5.0,76.0
1343,49.0,0,104,5.0,76.0
1344,69.0,0,104,0.0,76.0
1345,73.0,0,47,0.0,76.0
1346,45.0,0,89,4.0,76.0
1347,66.0,0,104,5.0,76.0
1348,61.0,0,104,5.0,76.0
1349,57.0,0,104,5.0,76.0
1350,45.0,120,104,5.0,76.0
1351,69.0,60,47,0.0,76.0
1352,61.0,60,89,2.0,76.0
1353,54.0,0,89,4.0,76.0
1354,66.0,0,104,5.0,76.0
1355,54.0,0,104,5.0,76.0
1356,69.0,0,104,5.0,76.0
1357,73.0,0,104,5.0,76.0
1358,57.0,0,44,5.0,76.0
1359,57.0,120,44,4.0,76.0
1360,73.0,0,44,5.0,76.0
1361,76.0,0,44,5.0,76.0
1362,69.0,0,44,5.0,76.0
1363,57.0,0,224,3.0,76.0
1364,66.0,0,224,0.0,76.0
1365,54.0,0,44,4.0,76.0
1366,66.0,0,224,1.0,76.0
1367,73.0,0,44,5.0,76.0
1368,54.0,0,44,5.0,76.0
1369,66.0,0,44,5.0,76.0
1370,69.0,60,44,5.0,76.0
1371,51.0,0,89,4.0,52.0
1372,69.0,0,89,1.0,52.0
1373,54.0,0,89,3.0,52.0
1374,66.0,60,89,2.0,52.0
1375,69.0,0,104,5.0,76.0
1376,51.0,0,104,5.0,76.0
1377,63.0,0,104,5.0,76.0
1378,66.0,0,104,5.0,76.0
1379,72.0,0,104,5.0,76.0
1380,72.0,0,119,0.0,76.0
1381,71.0,120,44,5.0,76.0
1382,66.0,0,44,5.0,76.0
1383,54.0,0,44,4.0,52.0
1384,54.0,0,44,5.0,76.0
1385,75.0,0,44,5.0,76.0
1386,72.0,0,44,5.0,76.0
1387,66.0,0,44,5.0,76.0
1388,63.0,60,44,5.0,76.0
1389,71.0,0,104,0.0,76.0
1390,69.0,0,44,5.0,76.0
1391,51.0,0,44,5.0,76.0
1392,51.0,0,44,4.0,52.0
1393,67.0,0,89,1.0,52.0
1394,64.0,0,89,2.0,52.0
1395,55.0,0,89,3.0,52.0
1396,59.0,0,104,5.0,76.0
1397,47.0,0,104,5.0,76.0
1398,64.0,0,104,5.0,76.0
1399,67.0,0,104,5.0,76.0
1400,76.0,0,119,0.0,76.0
1401,47.0,60,119,4.0,52.0
1402,75.0,120,47,0.0,76.0
1403,47.0,0,104,5.0,76.0
1404,63.0,0,104,5.0,76.0
1405,66.0,0,104,5.0,76.0
1406,59.0,0,104,5.0,76.0
1407,78.0,60,47,0.0,76.0
1408,47.0,0,119,4.0,52.0
1409,63.0,0,89,2.0,52.0
1410,66.0,0,89,1.0,52.0
1411,59.0,0,89,3.0,52.0
1412,81.0,0,104,0.0,76.0
1413,59.0,0,104,5.0,76.0
1414,63.0,0,104,5.0,76.0
1415,47.0,0,104,5.0,76.0
1416,69.0,0,104,5.0,76.0
1417,66.0,0,104,5.0,76.0
1418,47.0,60,119,4.0,52.0
1419,79.0,0,47,0.0,76.0
1420,47.0,120,89,4.0,52.0
1421,66.0,0,104,5.0,76.0
1422,63.0,0,104,5.0,76.0
1423,59.0,0,104,5.0,76.0
1424,47.0,0,104,5.0,76.0
1425,78.0,60,47,0.0,76.0
1426,52.0,0,89,4.0,52.0
1427,64.0,0,89,1.0,52.0
1428,64.0,0,89,2.0,52.0
1429,59.0,0,89,3.0,52.0
1430,71.0,0,104,5.0,76.0
1431,67.0,0,104,5.0,76.0
1432,52.0,60,104,5.0,76.0
1433,64.0,0,104,5.0,76.0
1434,79.0,0,104,0.0,76.0
1435,78.0,0,44,5.0,76.0
1436,59.0,0,44,4.0,52.0
1437,71.0,0,44,5.0,76.0
1438,59.0,120,44,5.0,76.0
1439,74.0,0,44,5.0,76.0
1440,55.0,0,44,5.0,76.0
1441,55.0,0,44,4.0,52.0
1442,67.0,0,44,5.0,76.0
1443,74.0,0,44,5.0,76.0
1444,76.0,0,104,0.0,76.0
1445,71.0,60,44,5.0,76.0
1446,79.0,0,89,1.0,76.0
1447,52.0,0,89,4.0,76.0
1448,76.0,0,89,2.0,76.0
1449,71.0,0,89,3.0,76.0
1450,64.0,0,104,5.0,76.0
1451,67.0,0,104,5.0,76.0
1452,79.0,0,104,0.0,76.0
1453,71.0,0,104,5.0,76.0
1454,52.0,60,104,5.0,76.0
1455,71.0,0,44,5.0,76.0
1456,55.0,0,44,4.0,76.0
1457,67.0,120,44,5.0,76.0
1458,74.0,0,44,5.0,76.0
1459,55.0,0,44,5.0,76.0
1460,83.0,0,47,0.0,76.0
1461,52.0,60,44,5.0,76.0
1462,71.0,0,44,5.0,76.0
1463,64.0,0,44,5.0,76.0
1464,67.0,0,44,5.0,76.0
1465,52.0,0,44,4.0,76.0
1466,79.0,0,47,0.0,76.0
1467,49.0,0,89,4.0,76.0
1468,79.0,0,89,1.0,76.0
1469,69.0,60,89,3.0,76.0
1470,76.0,0,89,2.0,76.0
1471,49.0,0,104,5.0,76.0
1472,69.0,0,104,5.0,76.0
1473,67.0,0,104,5.0,76.0
1474,64.0,0,104,5.0,76.0
1475,61.0,0,104,5.0,76.0
1476,76.0,0,104,0.0,76.0
1477,79.0,0,47,0.0,76.0
1478,45.0,0,89,4.0,76.0
1479,64.0,0,104,5.0,76.0
1480,45.0,0,104,5.0,76.0
1481,57.0,0,104,5.0,76.0
1482,61.0,120,104,5.0,76.0
1483,76.0,60,47,0.0,76.0
1484,73.0,0,89,2.0,76.0
1485,76.0,0,89,1.0,76.0
1486,52.0,0,89,4.0,76.0
1487,69.0,60,89,3.0,76.0
1488,69.0,0,104,5.0,76.0
1489,64.0,0,104,5.0,76.0
1490,67.0,0,104,5.0,76.0
1491,73.0,0,104,5.0,76.0
1492,52.0,0,104,5.0,76.0
1493,73.0,0,104,0.0,76.0
1494,76.0,120,47,0.0,76.0
1495,49.0,0,89,4.0,76.0
1496,49.0,0,104,5.0,76.0
1497,64.0,0,104,5.0,76.0
1498,61.0,0,104,5.0,76.0
1499,67.0,0,104,5.0,76.0
1500,73.0,60,47,0.0,76.0
1501,55.0,0,89,4.0,76.0
1502,73.0,0,104,5.0,76.0
1503,76.0,0,104,5.0,76.0
1504,69.0,0,104,5.0,76.0
1505,67.0,0,104,5.0,76.0
1506,55.0,0,104,5.0,76.0
1507,52.0,0,89,4.0,76.0
1508,69.0,0,224,2.0,76.0
1509,64.0,60,224,3.0,76.0
1510,67.0,0,104,5.0,76.0
1511,71.0,0,104,5.0,76.0
1512,52.0,0,104,5.0,76.0
1513,64.0,120,104,5.0,76.0
1514,73.0,0,224,1.0,76.0
1515,69.0,0,287,0.0,76.0
1516,69.0,0,89,2.0,76.0
1517,69.0,120,89,3.0,76.0
1518,54.0,0,89,4.0,76.0
1519,66.0,0,104,5.0,76.0
1520,74.0,0,104,1.0,76.0
1521,54.0,0,104,5.0,76.0
1522,69.0,0,104,5.0,76.0
1523,74.0,0,104,5.0,76.0
1524,74.0,60,47,0.0,76.0
1525,78.0,0,47,0.0,76.0
1526,59.0,0,89,4.0,76.0
1527,66.0,0,89,3.0,76.0
1528,74.0,0,89,2.0,76.0
1529,59.0,0,104,5.0,76.0
1530,78.0,0,104,5.0,76.0
1531,71.0,0,104,5.0,76.0
1532,74.0,0,104,5.0,76.0
1533,78.0,60,104,1.0,76.0
1534,74.0,60,47,0.0,76.0
1535,76.0,60,47,0.0,76.0
1536,76.0,0,89,1.0,76.0
1537,55.0,0,89,4.0,76.0
1538,71.0,0,89,3.0,76.0
1539,74.0,0,89,2.0,76.0
1540,67.0,0,104,5.0,76.0
1541,71.0,0,104,5.0,76.0
1542,74.0,0,104,5.0,76.0
1543,76.0,0,104,5.0,76.0
1544,55.0,0,104,5.0,76.0
1545,74.0,60,47,0.0,76.0
1546,76.0,60,47,0.0,76.0
1547,52.0,0,89,4.0,76.0
1548,67.0,0,89,3.0,76.0
1549,76.0,0,89,1.0,76.0
1550,74.0,0,89,2.0,76.0
1551,67.0,0,104,5.0,76.0
1552,71.0,0,104,5.0,76.0
1553,52.0,0,104,5.0,76.0
1554,64.0,0,104,5.0,76.0
1555,74.0,60,47,0.0,76.0
1556,73.0,0,47,0.0,76.0
1557,76.0,0,89,1.0,76.0
1558,57.0,0,89,4.0,76.0
1559,69.0,0,89,3.0,76.0
1560,73.0,0,89,2.0,76.0
1561,69.0,60,104,5.0,76.0
1562,73.0,0,104,5.0,76.0
1563,76.0,0,104,5.0,76.0
1564,57.0,0,104,5.0,76.0
1565,76.0,60,47,0.0,76.0
1566,79.0,0,47,0.0,76.0
1567,73.0,0,89,2.0,76.0
1568,69.0,60,89,3.0,76.0
1569,45.0,0,89,4.0,76.0
1570,57.0,0,104,5.0,76.0
1571,64.0,0,104,5.0,76.0
1572,61.0,0,104,5.0,76.0
1573,45.0,0,104,5.0,76.0
1574,79.0,0,104,1.0,76.0
1575,76.0,60,47,0.0,76.0
1576,78.0,0,47,0.0,76.0
1577,57.0,0,89,3.0,76.0
1578,50.0,0,89,4.0,76.0
1579,74.0,60,89,2.0,76.0
1580,50.0,0,104,5.0,76.0
1581,66.0,0,104,5.0,76.0
1582,69.0,0,104,5.0,76.0
1583,78.0,0,104,1.0,76.0
1584,62.0,0,104,5.0,76.0
1585,76.0,60,47,0.0,76.0
1586,78.0,0,47,0.0,76.0
1587,74.0,0,59,1.0,76.0
1588,66.0,60,89,2.0,76.0
1589,69.0,0,89,3.0,76.0
1590,38.0,0,89,4.0,76.0
1591,38.0,0,104,5.0,76.0
1592,57.0,0,104,5.0,76.0
1593,54.0,0,104,5.0,76.0
1594,50.0,0,104,5.0,76.0
1595,76.0,60,47,0.0,76.0
1596,73.0,0,59,1.0,76.0
1597,74.0,0,47,0.0,76.0
1598,48.0,60,89,4.0,76.0
1599,66.0,0,89,3.0,76.0
1600,69.0,0,89,2.0,76.0
1601,74.0,0,104,1.0,76.0
1602,69.0,0,104,5.0,76.0
1603,48.0,0,104,5.0,76.0
1604,66.0,0,104,5.0,76.0
1605,60.0,0,104,5.0,76.0
1606,62.0,0,104,5.0,76.0
1607,78.0,60,47,0.0,76.0
1608,74.0,0,59,0.0,76.0
1609,54.0,0,89,4.0,76.0
1610,72.0,0,104,5.0,76.0
1611,66.0,0,104,5.0,76.0
1612,54.0,0,104,5.0,76.0
1613,69.0,60,104,1.0,76.0
1614,69.0,0,104,5.0,76.0
1615,73.0,60,59,0.0,76.0
1616,74.0,0,47,0.0,76.0
1617,74.0,0,89,1.0,76.0
1618,47.0,0,89,4.0,76.0
1619,62.0,0,89,3.0,76.0
1620,67.0,0,89,2.0,76.0
1621,67.0,0,104,5.0,76.0
1622,47.0,0,104,5.0,76.0
1623,62.0,60,104,5.0,76.0
1624,59.0,0,104,5.0,76.0
1625,79.0,60,47,0.0,76.0
1626,74.0,0,59,0.0,76.0
1627,67.0,60,89,1.0,76.0
1628,55.0,0,89,4.0,76.0
1629,55.0,0,104,5.0,76.0
1630,67.0,0,104,5.0,76.0
1631,71.0,0,104,5.0,76.0
1632,74.0,0,104,5.0,76.0
1633,73.0,60,59,0.0,76.0
1634,74.0,0,47,0.0,76.0
1635,45.0,0,89,4.0,76.0
1636,66.0,0,89,2.0,76.0
1637,66.0,0,89,3.0,76.0
1638,74.0,60,89,1.0,76.0
1639,66.0,0,104,5.0,76.0
1640,57.0,0,104,5.0,76.0
1641,45.0,0,104,5.0,76.0
1642,62.0,0,104,5.0,76.0
1643,81.0,60,47,0.0,76.0
1644,74.0,0,59,0.0,76.0
1645,57.0,0,89,4.0,76.0
1646,66.0,0,89,1.0,76.0
1647,57.0,0,104,5.0,76.0
1648,78.0,60,104,5.0,76.0
1649,69.0,0,104,5.0,76.0
1650,74.0,0,104,5.0,76.0
1651,73.0,60,59,0.0,76.0
1652,74.0,0,47,0.0,76.0
1653,74.0,0,89,1.0,76.0
1654,64.0,0,89,2.0,76.0
1655,67.0,0,89,3.0,76.0
1656,43.0,0,89,4.0,76.0
1657,55.0,0,104,5.0,76.0
1658,64.0,0,104,5.0,76.0
1659,62.0,0,104,5.0,76.0
1660,59.0,0,104,5.0,76.0
1661,43.0,60,104,5.0,76.0
1662,83.0,60,47,0.0,76.0
1663,74.0,0,59,0.0,76.0
1664,59.0,0,89,4.0,76.0
1665,64.0,0,89,1.0,76.0
1666,59.0,0,104,5.0,76.0
1667,71.0,0,104,5.0,76.0
1668,78.0,0,104,5.0,76.0
1669,74.0,60,104,5.0,76.0
1670,73.0,60,59,0.0,76.0
1671,74.0,60,47,0.0,76.0
1672,64.0,0,89,3.0,76.0
1673,74.0,0,89,1.0,76.0
1674,71.0,0,89,2.0,76.0
1675,55.0,0,89,4.0,76.0
1676,67.0,0,104,5.0,76.0
1677,55.0,0,104,5.0,76.0
1678,74.0,0,104,5.0,76.0
1679,76.0,0,104,5.0,76.0
1680,71.0,0,104,5.0,76.0
1681,83.0,60,47,0.0,76.0
1682,81.0,0,47,0.0,76.0
1683,67.0,0,89,3.0,76.0
1684,73.0,0,89,1.0,76.0
1685,76.0,0,89,2.0,76.0
1686,52.0,60,89,4.0,76.0
1687,69.0,0,104,5.0,76.0
1688,64.0,0,104,5.0,76.0
1689,73.0,0,104,5.0,76.0
1690,52.0,0,104,5.0,76.0
1691,67.0,0,104,5.0,76.0
1692,79.0,60,47,0.0,76.0
1693,81.0,60,47,0.0,76.0
1694,69.0,0,89,2.0,76.0
1695,74.0,0,89,1.0,76.0
1696,66.0,0,89,3.0,76.0
1697,54.0,0,89,4.0,76.0
1698,69.0,0,104,5.0,76.0
1699,66.0,0,104,5.0,76.0
1700,54.0,0,104,5.0,76.0
1701,74.0,0,104,5.0,76.0
1702,78.0,60,47,0.0,76.0
1703,76.0,0,47,0.0,76.0
1704,76.0,0,89,1.0,76.0
1705,55.0,0,89,4.0,76.0
1706,67.0,0,89,2.0,76.0
1707,71.0,0,89,3.0,76.0
1708,55.0,0,104,5.0,76.0
1709,74.0,60,104,5.0,76.0
1710,67.0,0,104,5.0,76.0
1711,76.0,0,104,5.0,76.0
1712,71.0,0,104,5.0,76.0
1713,74.0,60,47,0.0,76.0
1714,69.0,0,89,3.0,76.0
1715,66.0,0,89,2.0,76.0
1716,57.0,0,89,4.0,76.0
1717,69.0,0,89,1.0,76.0
1718,74.0,0,104,5.0,76.0
1719,57.0,0,104,5.0,76.0
1720,78.0,0,104,5.0,76.0
1721,69.0,0,104,5.0,76.0
1722,78.0,60,104,0.0,76.0
1723,76.0,0,29,0.0,76.0
1724,78.0,30,29,0.0,76.0
1725,67.0,120,89,3.0,76.0
1726,73.0,0,89,1.0,76.0
1727,74.0,30,29,0.0,76.0
1728,45.0,0,89,4.0,76.0
1729,69.0,0,89,2.0,76.0
1730,61.0,0,104,5.0,76.0
1731,57.0,0,104,5.0,76.0
1732,45.0,0,104,5.0,76.0
1733,64.0,0,104,5.0,76.0
1734,76.0,30,29,0.0,76.0
1735,50.0,0,89,4.0,76.0
1736,66.0,0,104,5.0,76.0
1737,62.0,0,104,5.0,76.0
1738,69.0,0,104,5.0,76.0
1739,50.0,0,104,5.0,76.0
1740,45.0,120,44,4.0,76.0
1741,61.0,0,44,5.0,76.0
1742,64.0,0,44,5.0,76.0
1743,57.0,0,44,5.0,76.0
1744,45.0,0,44,5.0,76.0
1745,54.0,60,44,5.0,76.0
1746,42.0,0,44,4.0,76.0
1747,57.0,0,44,5.0,76.0
1748,42.0,0,44,5.0,76.0
1749,61.0,0,44,5.0,76.0
1750,74.0,30,224,1.0,76.0
1751,66.0,0,224,3.0,76.0
1752,69.0,0,224,2.0,76.0
1753,74.0,0,224,0.0,76.0
1754,78.0,0,47,1.0,76.0
1755,78.0,0,89,0.0,76.0
1756,69.0,0,89,2.0,76.0
1757,74.0,0,89,3.0,76.0
1758,38.0,0,89,4.0,76.0
1759,50.0,60,104,5.0,76.0
1760,54.0,0,104,5.0,76.0
1761,57.0,0,104,5.0,76.0
1762,38.0,0,104,5.0,76.0
1763,76.0,60,47,1.0,76.0
1764,78.0,0,44,5.0,76.0
1765,74.0,0,44,5.0,76.0
1766,81.0,60,44,5.0,76.0
1767,62.0,0,44,4.0,76.0
1768,62.0,0,44,5.0,76.0
1769,74.0,0,89,2.0,76.0
1770,69.0,0,89,3.0,76.0
1771,78.0,0,89,0.0,76.0
1772,76.0,60,44,5.0,76.0
1773,69.0,0,44,5.0,76.0
1774,73.0,0,44,5.0,76.0
1775,57.0,0,44,5.0,76.0
1776,57.0,0,44,4.0,76.0
1777,78.0,0,167,1.0,76.0
1778,54.0,0,89,4.0,76.0
1779,62.0,0,89,3.0,76.0
1780,69.0,0,89,2.0,76.0
1781,78.0,0,89,0.0,76.0
1782,74.0,0,104,5.0,76.0
1783,69.0,60,104,5.0,76.0
1784,54.0,0,104,5.0,76.0
1785,66.0,0,104,5.0,76.0
1786,76.0,60,47,1.0,76.0
1787,73.0,60,44,5.0,76.0
1788,57.0,0,44,5.0,76.0
1789,76.0,0,44,5.0,76.0
1790,57.0,0,44,4.0,76.0
1791,69.0,0,44,5.0,76.0
1792,74.0,0,89,2.0,76.0
1793,69.0,0,89,3.0,76.0
1794,78.0,0,89,0.0,76.0
1795,69.0,60,44,5.0,76.0
1796,54.0,0,44,5.0,76.0
1797,66.0,0,44,5.0,76.0
1798,54.0,0,44,4.0,76.0
1799,74.0,0,44,5.0,76.0
1800,78.0,0,167,1.0,76.0
1801,66.0,0,89,3.0,76.0
1802,50.0,0,89,4.0,76.0
1803,69.0,0,89,2.0,76.0
1804,50.0,60,104,5.0,76.0
1805,86.0,0,104,0.0,76.0
1806,69.0,0,104,5.0,76.0
1807,62.0,0,104,5.0,76.0
1808,66.0,0,104,5.0,76.0
1809,86.0,60,47,1.0,76.0
1810,73.0,0,44,5.0,76.0
1811,54.0,0,44,5.0,76.0
1812,54.0,0,44,4.0,76.0
1813,66.0,0,44,5.0,76.0
1814,69.0,0,44,5.0,76.0
1815,69.0,0,89,3.0,76.0
1816,74.0,0,89,2.0,76.0
1817,62.0,0,44,5.0,76.0
1818,50.0,0,44,5.0,76.0
1819,78.0,0,104,0.0,76.0
1820,50.0,0,44,4.0,76.0
1821,78.0,60,104,1.0,76.0
1822,66.0,0,44,5.0,76.0
1823,69.0,60,44,5.0,76.0
1824,74.0,0,29,2.0,76.0
1825,78.0,0,29,0.0,76.0
1826,78.0,60,29,1.0,76.0
1827,76.0,0,29,2.0,76.0
1828,79.0,30,29,1.0,76.0
1829,79.0,0,29,0.0,76.0
1830,76.0,30,29,0.0,76.0
1831,76.0,0,29,1.0,76.0
1832,57.0,0,89,4.0,76.0
1833,73.0,0,29,2.0,76.0
1834,78.0,0,104,5.0,76.0
1835,74.0,0,104,5.0,76.0
1836,69.0,0,104,5.0,76.0
1837,57.0,0,104,5.0,76.0
1838,78.0,0,29,1.0,76.0
1839,74.0,0,29,2.0,76.0
1840,78.0,30,29,0.0,76.0
1841,52.0,0,44,4.0,76.0
1842,73.0,0,44,5.0,76.0
1843,69.0,0,44,5.0,76.0
1844,64.0,0,44,5.0,76.0
1845,52.0,0,44,5.0,76.0
1846,69.0,0,224,3.0,76.0
1847,73.0,0,104,2.0,76.0
1848,49.0,60,44,4.0,76.0
1849,76.0,0,104,1.0,76.0
1850,49.0,0,44,5.0,76.0
1851,67.0,0,44,5.0,76.0
1852,61.0,0,44,5.0,76.0
1853,64.0,0,44,5.0,76.0
1854,76.0,30,104,0.0,76.0
1855,76.0,60,47,1.0,76.0
1856,76.0,0,89,0.0,76.0
1857,66.0,0,89,2.0,76.0
1858,73.0,0,89,3.0,76.0
1859,46.0,0,89,4.0,76.0
1860,46.0,0,104,5.0,76.0
1861,66.0,0,104,5.0,76.0
1862,58.0,0,104,5.0,76.0
1863,64.0,0,104,5.0,76.0
1864,61.0,0,104,5.0,76.0
1865,74.0,60,47,1.0,76.0
1866,64.0,0,44,5.0,76.0
1867,64.0,0,44,4.0,76.0
1868,76.0,0,44,5.0,76.0
1869,82.0,0,44,5.0,76.0
1870,85.0,0,44,5.0,76.0
1871,76.0,60,89,0.0,76.0
1872,73.0,0,89,2.0,76.0
1873,70.0,0,89,3.0,76.0
1874,61.0,0,44,5.0,76.0
1875,76.0,60,44,5.0,76.0
1876,79.0,0,44,5.0,76.0
1877,61.0,0,44,4.0,76.0
1878,73.0,0,44,5.0,76.0
1879,76.0,0,167,1.0,76.0
1880,58.0,0,89,4.0,76.0
1881,73.0,0,89,3.0,76.0
1882,66.0,0,89,2.0,76.0
1883,58.0,60,104,5.0,76.0
1884,78.0,0,104,5.0,76.0
1885,73.0,0,104,5.0,76.0
1886,70.0,0,104,5.0,76.0
1887,76.0,0,104,5.0,76.0
1888,76.0,0,104,0.0,76.0
1889,74.0,60,47,1.0,76.0
1890,61.0,0,44,4.0,76.0
1891,73.0,0,44,5.0,76.0
1892,61.0,0,44,5.0,76.0
1893,79.0,0,44,5.0,76.0
1894,76.0,0,44,5.0,76.0
1895,73.0,0,89,2.0,76.0
1896,70.0,0,89,3.0,76.0
1897,76.0,60,104,0.0,76.0
1898,73.0,0,44,5.0,76.0
1899,58.0,0,44,5.0,76.0
1900,78.0,0,44,5.0,76.0
1901,58.0,60,44,4.0,76.0
1902,70.0,0,44,5.0,76.0
1903,76.0,0,44,5.0,76.0
1904,76.0,0,167,1.0,76.0
1905,70.0,0,89,2.0,76.0
1906,73.0,0,89,3.0,76.0
1907,54.0,0,89,4.0,76.0
1908,85.0,0,104,0.0,76.0
1909,54.0,60,104,5.0,76.0
1910,76.0,0,104,5.0,76.0
1911,70.0,0,104,5.0,76.0
1912,66.0,0,104,5.0,76.0
1913,73.0,0,104,5.0,76.0
1914,85.0,60,47,1.0,76.0
1915,76.0,0,44,5.0,76.0
1916,70.0,0,44,5.0,76.0
1917,73.0,0,44,5.0,76.0
1918,58.0,0,44,5.0,76.0
1919,58.0,0,44,4.0,76.0
1920,73.0,0,89,2.0,76.0
1921,66.0,0,89,3.0,76.0
1922,70.0,0,44,5.0,76.0
1923,66.0,0,44,5.0,76.0
1924,54.0,0,44,5.0,76.0
1925,76.0,0,104,0.0,76.0
1926,76.0,0,44,5.0,76.0
1927,76.0,60,104,1.0,76.0
1928,73.0,0,44,5.0,76.0
1929,54.0,60,44,4.0,76.0
1930,76.0,60,29,0.0,76.0
1931,73.0,0,29,2.0,76.0
1932,76.0,0,29,1.0,76.0
1933,74.0,30,29,2.0,76.0
1934,78.0,0,29,0.0,76.0
1935,78.0,0,29,1.0,76.0
1936,59.0,0,89,4.0,76.0
1937,71.0,30,29,2.0,76.0
1938,74.0,0,29,0.0,76.0
1939,74.0,0,29,1.0,76.0
1940,78.0,0,104,5.0,76.0
1941,59.0,0,104,5.0,76.0
1942,71.0,0,104,5.0,76.0
1943,76.0,0,104,5.0,76.0
1944,73.0,0,29,2.0,76.0
1945,76.0,0,29,1.0,76.0
1946,76.0,30,29,0.0,76.0
1947,54.0,0,89,4.0,76.0
1948,71.0,30,104,5.0,76.0
1949,74.0,0,104,5.0,76.0
1950,54.0,0,104,5.0,76.0
1951,66.0,0,104,5.0,76.0
1952,74.0,0,104,0.0,76.0
1953,66.0,0,239,3.0,76.0
1954,71.0,0,119,2.0,76.0
1955,74.0,0,119,1.0,76.0
1956,50.0,0,89,4.0,76.0
1957,66.0,0,104,5.0,76.0
1958,62.0,0,104,5.0,76.0
1959,50.0,0,104,5.0,76.0
1960,71.0,120,104,5.0,76.0
1961,83.0,0,104,0.0,76.0
1962,86.0,120,47,0.0,76.0
1963,47.0,0,89,4.0,76.0
1964,83.0,60,29,0.0,76.0
1965,59.0,0,104,5.0,76.0
1966,66.0,0,104,5.0,76.0
1967,62.0,0,104,5.0,76.0
1968,47.0,0,104,5.0,76.0
1969,81.0,40,19,0.0,76.0
1970,52.0,0,104,5.0,76.0
1971,71.0,0,104,5.0,76.0
1972,67.0,0,104,5.0,76.0
1973,64.0,20,104,5.0,76.0
1974,52.0,0,119,4.0,76.0
1975,76.0,0,47,2.0,76.0
1976,71.0,0,47,3.0,76.0
1977,79.0,0,47,1.0,76.0
1978,67.0,0,104,5.0,76.0
1979,64.0,0,104,5.0,76.0
1980,52.0,0,104,5.0,76.0
1981,71.0,120,104,5.0,76.0
1982,67.0,60,47,3.0,76.0
1983,71.0,0,47,2.0,76.0
1984,76.0,0,47,1.0,76.0
1985,52.0,0,119,4.0,76.0
1986,67.0,0,89,2.0,76.0
1987,64.0,0,89,3.0,76.0
1988,52.0,0,89,4.0,76.0
1989,71.0,0,89,1.0,76.0
1990,52.0,0,104,5.0,76.0
1991,79.0,0,344,0.0,76.0
1992,71.0,60,104,5.0,76.0
1993,64.0,0,104,5.0,76.0
1994,67.0,0,104,5.0,76.0
1995,83.0,0,29,0.0,76.0
1996,81.0,30,29,0.0,76.0
1997,40.0,0,89,4.0,76.0
1998,79.0,30,29,0.0,76.0
1999,52.0,120,104,5.0,76.0
2000,55.0,0,104,5.0,76.0
2001,59.0,0,104,5.0,76.0
2002,40.0,0,104,5.0,76.0
2003,78.0,30,23,0.0,76.0
2004,71.0,30,104,5.0,76.0
2005,67.0,0,104,5.0,76.0
2006,64.0,0,104,5.0,76.0
2007,52.0,0,104,5.0,76.0
2008,52.0,0,119,4.0,76.0
2009,67.0,0,47,3.0,76.0
2010,71.0,0,47,2.0,76.0
2011,76.0,0,47,1.0,76.0
2012,71.0,0,104,5.0,76.0
2013,67.0,0,104,5.0,76.0
2014,64.0,0,104,5.0,76.0
2015,52.0,0,104,5.0,76.0
2016,71.0,0,47,1.0,76.0
2017,64.0,0,47,3.0,76.0
2018,67.0,60,47,2.0,76.0
2019,52.0,120,119,4.0,76.0
2020,52.0,0,89,4.0,76.0
2021,59.0,0,89,3.0,76.0
2022,64.0,0,89,2.0,76.0
2023,67.0,0,89,1.0,76.0
2024,52.0,0,104,5.0,76.0
2025,67.0,60,104,5.0,76.0
2026,76.0,0,344,0.0,76.0
2027,64.0,0,104,5.0,76.0
2028,71.0,0,104,5.0,76.0
2029,79.0,0,29,0.0,76.0
2030,78.0,30,29,0.0,76.0
2031,76.0,30,29,0.0,76.0
2032,40.0,120,89,4.0,76.0
2033,55.0,0,104,5.0,76.0
2034,40.0,0,104,5.0,76.0
2035,59.0,0,104,5.0,76.0
2036,52.0,0,104,5.0,76.0
2037,74.0,30,23,0.0,76.0
2038,72.0,0,47,0.0,76.0
2039,64.0,0,104,5.0,76.0
2040,52.0,30,104,5.0,76.0
2041,72.0,0,104,5.0,76.0
2042,67.0,0,104,5.0,76.0
2043,76.0,60,47,0.0,76.0
2044,52.0,0,119,4.0,76.0
2045,79.0,0,47,0.0,76.0
2046,72.0,0,89,1.0,76.0
2047,64.0,0,104,2.0,76.0
2048,67.0,0,104,5.0,76.0
2049,52.0,0,104,5.0,76.0
2050,64.0,0,104,5.0,76.0
2051,72.0,0,104,5.0,76.0
2052,55.0,0,104,3.0,76.0
2053,76.0,60,47,0.0,76.0
2054,52.0,60,119,4.0,76.0
2055,72.0,0,59,0.0,76.0
2056,76.0,0,89,1.0,76.0
2057,52.0,0,89,4.0,76.0
2058,64.0,0,104,5.0,76.0
2059,67.0,0,104,5.0,76.0
2060,52.0,60,104,5.0,76.0
2061,72.0,0,104,5.0,76.0
2062,60.0,0,104,3.0,76.0
2063,67.0,0,104,2.0,76.0
2064,71.0,60,47,0.0,76.0
2065,72.0,0,59,0.0,76.0
2066,72.0,0,67,2.0,76.0
2067,40.0,0,89,4.0,76.0
2068,79.0,0,89,1.0,76.0
2069,64.0,0,104,3.0,76.0
2070,40.0,0,104,5.0,76.0
2071,52.0,0,104,5.0,76.0
2072,55.0,60,104,5.0,76.0
2073,60.0,0,104,5.0,76.0
2074,71.0,60,47,0.0,76.0
2075,71.0,20,39,2.0,76.0
2076,79.0,20,19,1.0,76.0
2077,70.0,0,89,0.0,76.0
2078,52.0,0,89,4.0,76.0
2079,66.0,0,104,5.0,76.0
2080,73.0,0,104,5.0,76.0
2081,64.0,0,104,5.0,76.0
2082,70.0,0,104,5.0,76.0
2083,52.0,20,104,5.0,76.0
2084,64.0,0,44,5.0,76.0
2085,78.0,0,44,5.0,76.0
2086,85.0,0,44,5.0,76.0
2087,76.0,120,44,5.0,76.0
2088,82.0,0,44,5.0,76.0
2089,64.0,0,44,4.0,76.0
2090,66.0,0,89,0.0,76.0
2091,73.0,0,44,5.0,76.0
2092,78.0,0,224,1.0,76.0
2093,61.0,0,44,4.0,76.0
2094,79.0,0,44,5.0,76.0
2095,70.0,0,224,2.0,76.0
2096,61.0,0,224,3.0,76.0
2097,61.0,60,44,5.0,76.0
2098,76.0,0,44,5.0,76.0
2099,61.0,0,89,3.0,52.0
2100,58.0,0,89,4.0,52.0
2101,76.0,0,89,1.0,52.0
2102,73.0,60,89,2.0,52.0
2103,76.0,0,104,5.0,76.0
2104,73.0,0,104,5.0,76.0
2105,58.0,0,104,5.0,76.0
2106,79.0,0,104,5.0,76.0
2107,70.0,0,104,5.0,76.0
2108,67.0,0,119,0.0,76.0
2109,79.0,0,44,5.0,76.0
2110,76.0,0,44,5.0,76.0
2111,73.0,120,44,5.0,76.0
2112,61.0,0,44,4.0,52.0
2113,61.0,0,44,5.0,76.0
2114,58.0,0,44,4.0,52.0
2115,76.0,60,44,5.0,76.0
2116,66.0,0,104,0.0,76.0
2117,70.0,0,44,5.0,76.0
2118,58.0,0,44,5.0,76.0
2119,73.0,0,44,5.0,76.0
2120,79.0,0,44,5.0,76.0
2121,71.0,60,89,2.0,52.0
2122,62.0,0,89,3.0,52.0
2123,54.0,0,89,4.0,52.0
2124,74.0,0,89,1.0,52.0
2125,54.0,0,104,5.0,76.0
2126,71.0,0,104,5.0,76.0
2127,66.0,0,104,5.0,76.0
2128,74.0,0,104,5.0,76.0
2129,71.0,0,119,0.0,76.0
2130,70.0,0,59,0.0,76.0
2131,54.0,0,89,4.0,52.0
2132,71.0,0,104,5.0,76.0
2133,66.0,120,104,5.0,76.0
2134,74.0,0,104,5.0,76.0
2135,54.0,0,104,5.0,76.0
2136,73.0,60,47,0.0,76.0
2137,66.0,0,89,3.0,52.0
2138,73.0,0,89,1.0,52.0
2139,70.0,0,89,2.0,52.0
2140,54.0,60,89,4.0,52.0
2141,66.0,0,104,5.0,76.0
2142,54.0,0,104,5.0,76.0
2143,73.0,0,104,5.0,76.0
2144,70.0,0,104,5.0,76.0
2145,76.0,0,104,0.0,76.0
2146,74.0,0,47,0.0,76.0
2147,54.0,0,89,4.0,52.0
2148,66.0,0,104,5.0,76.0
2149,54.0,0,104,5.0,76.0
2150,70.0,0,104,5.0,76.0
2151,73.0,120,104,5.0,76.0
2152,73.0,60,47,0.0,76.0
2153,59.0,0,89,4.0,52.0
2154,74.0,0,104,5.0,76.0
2155,59.0,60,104,5.0,76.0
2156,71.0,0,104,1.0,76.0
2157,78.0,0,104,5.0,76.0
2158,74.0,0,104,0.0,76.0
2159,71.0,0,104,5.0,76.0
2160,71.0,0,29,0.0,76.0
2161,78.0,120,44,5.0,76.0
2162,62.0,0,44,4.0,52.0
2163,62.0,0,44,5.0,76.0
2164,74.0,0,44,5.0,76.0
2165,81.0,0,44,5.0,76.0
2166,66.0,0,47,1.0,76.0
2167,73.0,30,29,0.0,76.0
2168,74.0,30,29,0.0,76.0
2169,71.0,0,224,2.0,52.0
2170,78.0,0,44,5.0,76.0
2171,59.0,0,44,5.0,76.0
2172,71.0,0,44,5.0,76.0
2173,59.0,0,44,4.0,52.0
2174,74.0,0,44,5.0,76.0
2175,71.0,0,47,1.0,76.0
2176,76.0,30,29,0.0,76.0
2177,66.0,0,239,3.0,52.0
2178,74.0,30,47,1.0,76.0
2179,54.0,0,89,4.0,76.0
2180,71.0,0,104,5.0,76.0
2181,78.0,0,104,0.0,76.0
2182,66.0,0,104,5.0,76.0
2183,74.0,0,104,5.0,76.0
2184,54.0,0,104,5.0,76.0
2185,71.0,60,47,1.0,76.0
2186,71.0,0,44,5.0,76.0
2187,59.0,0,44,5.0,76.0
2188,78.0,0,44,5.0,76.0
2189,74.0,0,44,5.0,76.0
2190,59.0,0,44,4.0,76.0
2191,74.0,60,47,0.0,76.0
2192,71.0,0,47,2.0,76.0
2193,74.0,0,47,1.0,76.0
2194,66.0,0,47,3.0,76.0
2195,71.0,0,44,5.0,76.0
2196,54.0,0,44,5.0,76.0
2197,66.0,0,44,5.0,76.0
2198,54.0,60,44,4.0,76.0
2199,74.0,0,44,5.0,76.0
2200,74.0,0,47,2.0,76.0
2201,78.0,0,47,1.0,76.0
2202,78.0,0,47,0.0,76.0
2203,71.0,0,47,3.0,76.0
2204,50.0,0,89,4.0,76.0
2205,83.0,0,104,1.0,76.0
2206,66.0,0,104,5.0,76.0
2207,62.0,0,104,5.0,76.0
2208,50.0,0,104,5.0,76.0
2209,71.0,0,104,5.0,76.0
2210,78.0,0,104,2.0,76.0
2211,83.0,0,104,0.0,76.0
2212,74.0,60,104,3.0,76.0
2213,47.0,0,44,5.0,76.0
2214,59.0,120,44,5.0,76.0
2215,62.0,0,44,5.0,76.0
2216,47.0,0,44,4.0,76.0
2217,66.0,0,44,5.0,76.0
2218,71.0,0,104,2.0,76.0
2219,78.0,0,104,1.0,76.0
2220,66.0,0,44,5.0,76.0
2221,62.0,0,44,5.0,76.0
2222,71.0,0,44,5.0,76.0
2223,50.0,0,44,5.0,76.0
2224,50.0,60,44,4.0,76.0
2225,78.0,0,104,0.0,76.0
2226,62.0,0,104,3.0,76.0
2227,76.0,0,47,1.0,76.0
2228,76.0,0,47,0.0,76.0
2229,54.0,0,89,4.0,76.0
2230,71.0,0,104,5.0,76.0
2231,66.0,0,104,5.0,76.0
2232,73.0,0,104,5.0,76.0
2233,61.0,60,104,3.0,76.0
2234,71.0,0,104,2.0,76.0
2235,54.0,0,104,5.0,76.0
2236,74.0,60,47,1.0,76.0
2237,74.0,0,47,0.0,76.0
2238,73.0,0,47,0.0,76.0
2239,73.0,0,47,1.0,76.0
2240,42.0,0,89,4.0,76.0
2241,74.0,0,29,0.0,76.0
2242,70.0,0,104,2.0,76.0
2243,61.0,0,104,5.0,76.0
2244,54.0,0,104,5.0,76.0
2245,42.0,0,104,5.0,76.0
2246,58.0,0,104,5.0,76.0
2247,66.0,60,104,3.0,76.0
2248,74.0,60,47,1.0,76.0
2249,73.0,40,19,0.0,76.0
2250,71.0,0,209,1.0,76.0
2251,66.0,0,209,2.0,76.0
2252,62.0,0,209,3.0,76.0
2253,71.0,0,209,0.0,76.0
2254,47.0,0,209,4.0,76.0
2255,62.0,0,224,5.0,76.0
2256,59.0,20,224,5.0,76.0
2257,47.0,0,224,5.0,76.0
2258,66.0,0,224,5.0,76.0
2259,69.0,0,89,3.0,76.0
2260,42.0,0,89,4.0,76.0
2261,78.0,0,89,1.0,76.0
2262,73.0,0,89,2.0,76.0
2263,78.0,0,104,0.0,76.0
2264,61.0,0,104,5.0,76.0
2265,42.0,0,104,5.0,76.0
2266,54.0,0,104,5.0,76.0
2267,57.0,240,104,5.0,76.0
2268,81.0,0,47,0.0,76.0
2269,42.0,0,89,4.0,76.0
2270,61.0,0,104,5.0,76.0
2271,57.0,0,104,5.0,76.0
2272,42.0,120,104,5.0,76.0
2273,54.0,0,104,5.0,76.0
2274,78.0,60,47,0.0,76.0
2275,45.0,60,89,4.0,76.0
2276,69.0,0,89,2.0,76.0
2277,73.0,0,89,1.0,76.0
2278,66.0,0,89,3.0,76.0
2279,73.0,0,104,0.0,76.0
2280,45.0,0,104,5.0,76.0
2281,66.0,0,104,5.0,76.0
2282,61.0,0,104,5.0,76.0
2283,57.0,0,104,5.0,76.0
2284,78.0,0,47,0.0,76.0
2285,42.0,0,89,4.0,76.0
2286,42.0,0,104,5.0,76.0
2287,54.0,0,104,5.0,76.0
2288,61.0,120,104,5.0,76.0
2289,57.0,0,104,5.0,76.0
2290,73.0,60,47,0.0,76.0
2291,61.0,0,89,3.0,76.0
2292,49.0,60,89,4.0,76.0
2293,69.0,0,89,1.0,76.0
2294,66.0,0,89,2.0,76.0
2295,69.0,0,104,0.0,76.0
2296,61.0,0,104,5.0,76.0
2297,69.0,0,104,5.0,76.0
2298,49.0,0,104,5.0,76.0
2299,66.0,0,104,5.0,76.0
2300,73.0,0,47,0.0,76.0
2301,45.0,120,89,4.0,76.0
2302,66.0,0,104,5.0,76.0
2303,61.0,0,104,5.0,76.0
2304,57.0,0,104,5.0,76.0
2305,45.0,0,104,5.0,76.0
2306,69.0,60,47,0.0,76.0
2307,54.0,0,89,4.0,76.0
2308,61.0,60,89,2.0,76.0
2309,66.0,0,104,5.0,76.0
2310,73.0,0,104,5.0,76.0
2311,54.0,0,104,5.0,76.0
2312,69.0,0,104,5.0,76.0
2313,69.0,0,44,5.0,76.0
2314,57.0,0,44,5.0,76.0
2315,73.0,0,44,5.0,76.0
2316,76.0,0,44,5.0,76.0
2317,57.0,120,44,4.0,76.0
2318,66.0,0,224,0.0,76.0
2319,66.0,60,44,5.0,76.0
2320,57.0,0,224,3.0,76.0
2321,54.0,0,44,4.0,76.0
2322,54.0,0,44,5.0,76.0
2323,73.0,0,44,5.0,76.0
2324,69.0,0,44,5.0,76.0
2325,66.0,0,224,1.0,76.0
2326,54.0,0,89,3.0,52.0
2327,51.0,0,89,4.0,52.0
2328,66.0,0,89,2.0,52.0
2329,69.0,60,89,1.0,52.0
2330,66.0,0,104,5.0,76.0
2331,51.0,0,104,5.0,76.0
2332,69.0,0,104,5.0,76.0
2333,72.0,0,104,5.0,76.0
2334,63.0,0,104,5.0,76.0
2335,72.0,0,119,0.0,76.0
2336,54.0,0,44,4.0,52.0
2337,54.0,0,44,5.0,76.0
2338,66.0,0,44,5.0,76.0
2339,71.0,0,44,5.0,76.0
2340,75.0,0,44,5.0,76.0
2341,51.0,60,44,4.0,52.0
2342,72.0,0,44,5.0,76.0
2343,51.0,0,44,5.0,76.0
2344,69.0,0,44,5.0,76.0
2345,71.0,120,104,0.0,76.0
2346,66.0,0,44,5.0,76.0
2347,63.0,0,44,5.0,76.0
2348,55.0,60,89,3.0,52.0
2349,67.0,0,89,1.0,52.0
2350,64.0,0,89,2.0,52.0
2351,64.0,0,104,5.0,76.0
2352,67.0,0,104,5.0,76.0
2353,47.0,0,104,5.0,76.0
2354,59.0,0,104,5.0,76.0
2355,76.0,0,119,0.0,76.0
2356,47.0,0,119,4.0,52.0
2357,75.0,0,47,0.0,76.0
2358,66.0,0,104,5.0,76.0
2359,59.0,120,104,5.0,76.0
2360,63.0,0,104,5.0,76.0
2361,47.0,0,104,5.0,76.0
2362,78.0,60,47,0.0,76.0
2363,47.0,0,119,4.0,52.0
2364,59.0,0,89,3.0,52.0
2365,66.0,0,89,1.0,52.0
2366,63.0,60,89,2.0,52.0
2367,47.0,0,104,5.0,76.0
2368,66.0,0,104,5.0,76.0
2369,69.0,0,104,5.0,76.0
2370,81.0,0,104,0.0,76.0
2371,59.0,0,104,5.0,76.0
2372,63.0,0,104,5.0,76.0
2373,47.0,0,119,4.0,52.0
2374,79.0,0,47,0.0,76.0
2375,47.0,0,89,4.0,52.0
2376,66.0,0,104,5.0,76.0
2377,47.0,0,104,5.0,76.0
2378,63.0,0,104,5.0,76.0
2379,59.0,120,104,5.0,76.0
2380,78.0,60,47,0.0,76.0
2381,52.0,0,89,4.0,52.0
2382,59.0,60,89,3.0,52.0
2383,64.0,0,89,1.0,52.0
2384,64.0,0,89,2.0,52.0
2385,71.0,0,104,5.0,76.0
2386,52.0,0,104,5.0,76.0
2387,67.0,0,104,5.0,76.0
2388,64.0,0,104,5.0,76.0
2389,79.0,0,104,0.0,76.0
2390,59.0,0,44,4.0,52.0
2391,71.0,120,44,5.0,76.0
2392,78.0,0,44,5.0,76.0
2393,59.0,0,44,5.0,76.0
2394,74.0,0,44,5.0,76.0
2395,76.0,0,104,0.0,76.0
2396,55.0,0,44,4.0,52.0
2397,67.0,0,44,5.0,76.0
2398,74.0,0,44,5.0,76.0
2399,55.0,0,44,5.0,76.0
2400,71.0,60,44,5.0,76.0
2401,71.0,0,89,3.0,76.0
2402,52.0,60,89,4.0,76.0
2403,76.0,0,89,2.0,76.0
2404,79.0,0,89,1.0,76.0
2405,79.0,0,104,0.0,76.0
2406,67.0,0,104,5.0,76.0
2407,52.0,0,104,5.0,76.0
2408,64.0,0,104,5.0,76.0
2409,71.0,0,104,5.0,76.0
2410,74.0,0,44,5.0,76.0
2411,67.0,120,44,5.0,76.0
2412,55.0,0,44,5.0,76.0
2413,55.0,0,44,4.0,76.0
2414,71.0,0,44,5.0,76.0
2415,83.0,0,47,0.0,76.0
2416,52.0,0,44,4.0,76.0
2417,67.0,0,44,5.0,76.0
2418,64.0,0,44,5.0,76.0
2419,52.0,0,44,5.0,76.0
2420,71.0,60,44,5.0,76.0
2421,79.0,0,47,0.0,76.0
2422,76.0,0,89,2.0,76.0
2423,69.0,0,89,3.0,76.0
2424,49.0,0,89,4.0,76.0
2425,79.0,0,89,1.0,76.0
2426,69.0,0,104,5.0,76.0
2427,61.0,0,104,5.0,76.0
2428,67.0,0,104,5.0,76.0
2429,76.0,60,104,0.0,76.0
2430,49.0,0,104,5.0,76.0
2431,64.0,0,104,5.0,76.0
2432,79.0,0,47,0.0,76.0
2433,45.0,120,89,4.0,76.0
2434,64.0,0,104,5.0,76.0
2435,45.0,0,104,5.0,76.0
2436,57.0,0,104,5.0,76.0
2437,61.0,0,104,5.0,76.0
2438,76.0,60,47,0.0,76.0
2439,76.0,0,89,1.0,76.0
2440,69.0,0,89,3.0,76.0
2441,52.0,0,89,4.0,76.0
2442,73.0,0,89,2.0,76.0
2443,73.0,0,104,5.0,76.0
2444,73.0,0,104,0.0,76.0
2445,64.0,0,104,5.0,76.0
2446,67.0,0,104,5.0,76.0
2447,52.0,60,104,5.0,76.0
2448,69.0,0,104,5.0,76.0
2449,76.0,0,47,0.0,76.0
2450,49.0,0,89,4.0,76.0
2451,64.0,0,104,5.0,76.0
2452,67.0,0,104,5.0,76.0
2453,61.0,120,104,5.0,76.0
2454,49.0,0,104,5.0,76.0
2455,73.0,60,47,0.0,76.0
2456,55.0,0,89,4.0,76.0
2457,73.0,0,104,5.0,76.0
2458,67.0,0,104,5.0,76.0
2459,55.0,0,104,5.0,76.0
2460,76.0,0,104,5.0,76.0
2461,69.0,0,104,5.0,76.0
2462,52.0,0,89,4.0,76.0
2463,73.0,0,224,1.0,76.0
2464,69.0,60,224,2.0,76.0
2465,64.0,0,104,5.0,76.0
2466,71.0,120,104,5.0,76.0
2467,52.0,0,104,5.0,76.0
2468,64.0,0,224,3.0,76.0
2469,67.0,0,104,5.0,76.0
2470,69.0,0,287,0.0,76.0
2471,69.0,0,89,3.0,76.0
2472,69.0,120,89,2.0,76.0
2473,54.0,0,89,4.0,76.0
2474,74.0,0,104,1.0,76.0
2475,69.0,0,104,5.0,76.0
2476,74.0,0,104,5.0,76.0
2477,66.0,0,104,5.0,76.0
2478,54.0,0,104,5.0,76.0
2479,74.0,60,47,0.0,76.0
2480,78.0,0,47,0.0,76.0
2481,74.0,0,89,2.0,76.0
2482,59.0,0,89,4.0,76.0
2483,66.0,0,89,3.0,76.0
2484,71.0,0,104,5.0,76.0
2485,78.0,0,104,1.0,76.0
2486,78.0,0,104,5.0,76.0
2487,74.0,60,104,5.0,76.0
2488,59.0,0,104,5.0,76.0
2489,74.0,60,47,0.0,76.0
2490,76.0,0,47,0.0,76.0
2491,55.0,0,89,4.0,76.0
2492,71.0,0,89,3.0,76.0
2493,76.0,0,89,1.0,76.0
2494,74.0,0,89,2.0,76.0
2495,76.0,0,104,5.0,76.0
2496,55.0,0,104,5.0,76.0
2497,74.0,0,104,5.0,76.0
2498,71.0,0,104,5.0,76.0
2499,67.0,60,104,5.0,76.0
2500,74.0,60,47,0.0,76.0
2501,76.0,0,47,0.0,76.0
2502,67.0,0,89,3.0,76.0
2503,76.0,0,89,1.0,76.0
2504,52.0,0,89,4.0,76.0
2505,74.0,60,89,2.0,76.0
2506,67.0,0,104,5.0,76.0
2507,71.0,0,104,5.0,76.0
2508,52.0,0,104,5.0,76.0
2509,64.0,0,104,5.0,76.0
2510,74.0,60,47,0.0,76.0
2511,73.0,0,47,0.0,76.0
2512,57.0,0,89,4.0,76.0
2513,76.0,0,89,1.0,76.0
2514,73.0,0,89,2.0,76.0
2515,69.0,0,89,3.0,76.0
2516,73.0,0,104,5.0,76.0
2517,76.0,0,104,5.0,76.0
2518,57.0,0,104,5.0,76.0
2519,69.0,60,104,5.0,76.0
2520,76.0,60,47,0.0,76.0
2521,79.0,0,47,0.0,76.0
2522,69.0,0,89,3.0,76.0
2523,45.0,0,89,4.0,76.0
2524,73.0,0,89,2.0,76.0
2525,79.0,0,104,1.0,76.0
2526,61.0,0,104,5.0,76.0
2527,64.0,0,104,5.0,76.0
2528,45.0,0,104,5.0,76.0
2529,57.0,60,104,5.0,76.0
2530,76.0,60,47,0.0,76.0
2531,78.0,0,47,0.0,76.0
2532,57.0,0,89,3.0,76.0
2533,74.0,60,89,2.0,76.0
2534,50.0,0,89,4.0,76.0
2535,66.0,0,104,5.0,76.0
2536,62.0,0,104,5.0,76.0
2537,69.0,0,104,5.0,76.0
2538,50.0,0,104,5.0,76.0
2539,78.0,0,104,1.0,76.0
2540,76.0,60,47,0.0,76.0
2541,78.0,0,47,0.0,76.0
2542,74.0,60,59,1.0,76.0
2543,69.0,0,89,3.0,76.0
2544,66.0,0,89,2.0,76.0
2545,38.0,0,89,4.0,76.0
2546,38.0,0,104,5.0,76.0
2547,57.0,0,104,5.0,76.0
2548,50.0,0,104,5.0,76.0
2549,54.0,0,104,5.0,76.0
2550,76.0,60,47,0.0,76.0
2551,73.0,0,59,1.0,76.0
2552,74.0,0,47,0.0,76.0
2553,66.0,0,89,3.0,76.0
2554,48.0,0,89,4.0,76.0
2555,69.0,0,89,2.0,76.0
2556,60.0,60,104,5.0,76.0
2557,66.0,0,104,5.0,76.0
2558,69.0,0,104,5.0,76.0
2559,62.0,0,104,5.0,76.0
2560,48.0,0,104,5.0,76.0
2561,74.0,0,104,1.0,76.0
2562,78.0,60,47,0.0,76.0
2563,74.0,0,59,0.0,76.0
2564,54.0,0,89,4.0,76.0
2565,69.0,0,104,1.0,76.0
2566,54.0,0,104,5.0,76.0
2567,66.0,0,104,5.0,76.0
2568,72.0,0,104,5.0,76.0
2569,69.0,60,104,5.0,76.0
2570,73.0,60,59,0.0,76.0
2571,74.0,0,47,0.0,76.0
2572,62.0,60,89,3.0,76.0
2573,67.0,0,89,2.0,76.0
2574,74.0,0,89,1.0,76.0
2575,47.0,0,89,4.0,76.0
2576,62.0,0,104,5.0,76.0
2577,67.0,0,104,5.0,76.0
2578,59.0,0,104,5.0,76.0
2579,47.0,0,104,5.0,76.0
2580,79.0,60,47,0.0,76.0
2581,74.0,0,59,0.0,76.0
2582,67.0,0,89,1.0,76.0
2583,55.0,60,89,4.0,76.0
2584,67.0,0,104,5.0,76.0
2585,74.0,0,104,5.0,76.0
2586,55.0,0,104,5.0,76.0
2587,71.0,0,104,5.0,76.0
2588,73.0,60,59,0.0,76.0
2589,74.0,0,47,0.0,76.0
2590,66.0,0,89,3.0,76.0
2591,66.0,60,89,2.0,76.0
2592,74.0,0,89,1.0,76.0
2593,45.0,0,89,4.0,76.0
2594,66.0,0,104,5.0,76.0
2595,45.0,0,104,5.0,76.0
2596,62.0,0,104,5.0,76.0
2597,57.0,0,104,5.0,76.0
2598,81.0,60,47,0.0,76.0
2599,74.0,60,59,0.0,76.0
2600,57.0,0,89,4.0,76.0
2601,66.0,0,89,1.0,76.0
2602,69.0,0,104,5.0,76.0
2603,57.0,0,104,5.0,76.0
2604,78.0,0,104,5.0,76.0
2605,74.0,0,104,5.0,76.0
2606,73.0,60,59,0.0,76.0
2607,74.0,60,47,0.0,76.0
2608,74.0,0,89,1.0,76.0
2609,43.0,0,89,4.0,76.0
2610,64.0,0,89,2.0,76.0
2611,67.0,0,89,3.0,76.0
2612,55.0,0,104,5.0,76.0
2613,43.0,0,104,5.0,76.0
2614,59.0,0,104,5.0,76.0
2615,62.0,0,104,5.0,76.0
2616,64.0,0,104,5.0,76.0
2617,83.0,60,47,0.0,76.0
2618,74.0,0,59,0.0,76.0
2619,64.0,0,89,1.0,76.0
2620,59.0,0,89,4.0,76.0
2621,74.0,0,104,5.0,76.0
2622,71.0,60,104,5.0,76.0
2623,78.0,0,104,5.0,76.0
2624,59.0,0,104,5.0,76.0
2625,73.0,60,59,0.0,76.0
2626,74.0,60,47,0.0,76.0
2627,74.0,0,89,1.0,76.0
2628,55.0,0,89,4.0,76.0
2629,64.0,0,89,3.0,76.0
2630,71.0,0,89,2.0,76.0
2631,55.0,0,104,5.0,76.0
2632,71.0,0,104,5.0,76.0
2633,67.0,0,104,5.0,76.0
2634,74.0,0,104,5.0,76.0
2635,76.0,0,104,5.0,76.0
2636,83.0,60,47,0.0,76.0
2637,81.0,0,47,0.0,76.0
2638,73.0,0,89,1.0,76.0
2639,52.0,0,89,4.0,76.0
2640,67.0,60,89,3.0,76.0
2641,76.0,0,89,2.0,76.0
2642,69.0,0,104,5.0,76.0
2643,64.0,0,104,5.0,76.0
2644,73.0,0,104,5.0,76.0
2645,52.0,0,104,5.0,76.0
2646,67.0,0,104,5.0,76.0
2647,79.0,60,47,0.0,76.0
2648,81.0,0,47,0.0,76.0
2649,74.0,0,89,1.0,76.0
2650,54.0,0,89,4.0,76.0
2651,66.0,0,89,3.0,76.0
2652,69.0,0,89,2.0,76.0
2653,54.0,60,104,5.0,76.0
2654,74.0,0,104,5.0,76.0
2655,69.0,0,104,5.0,76.0
2656,66.0,0,104,5.0,76.0
2657,78.0,60,47,0.0,76.0
2658,76.0,0,47,0.0,76.0
2659,71.0,0,89,3.0,76.0
2660,55.0,0,89,4.0,76.0
2661,67.0,60,89,2.0,76.0
2662,76.0,0,89,1.0,76.0
2663,71.0,0,104,5.0,76.0
2664,67.0,0,104,5.0,76.0
2665,74.0,0,104,5.0,76.0
2666,76.0,0,104,5.0,76.0
2667,55.0,0,104,5.0,76.0
2668,74.0,60,47,0.0,76.0
2669,57.0,0,89,4.0,76.0
2670,66.0,0,89,2.0,76.0
2671,69.0,0,89,3.0,76.0
2672,69.0,0,89,1.0,76.0
2673,78.0,0,104,0.0,76.0
2674,57.0,60,104,5.0,76.0
2675,69.0,0,104,5.0,76.0
2676,74.0,0,104,5.0,76.0
2677,78.0,0,104,5.0,76.0
2678,76.0,0,29,0.0,76.0
2679,78.0,30,29,0.0,76.0
2680,45.0,0,89,4.0,76.0
2681,74.0,30,29,0.0,76.0
2682,67.0,0,89,3.0,76.0
2683,69.0,120,89,2.0,76.0
2684,73.0,0,89,1.0,76.0
2685,45.0,0,104,5.0,76.0
2686,64.0,0,104,5.0,76.0
2687,61.0,0,104,5.0,76.0
2688,57.0,0,104,5.0,76.0
2689,76.0,30,29,0.0,76.0
2690,50.0,0,89,4.0,76.0
2691,62.0,0,104,5.0,76.0
2692,50.0,0,104,5.0,76.0
2693,69.0,0,104,5.0,76.0
2694,66.0,0,104,5.0,76.0
2695,45.0,0,44,5.0,76.0
2696,45.0,0,44,4.0,76.0
2697,64.0,0,44,5.0,76.0
2698,61.0,0,44,5.0,76.0
2699,57.0,120,44,5.0,76.0
2700,42.0,0,44,4.0,76.0
2701,54.0,0,44,5.0,76.0
2702,69.0,30,224,2.0,76.0
2703,74.0,0,224,0.0,76.0
2704,66.0,0,224,3.0,76.0
2705,74.0,0,224,1.0,76.0
2706,61.0,0,44,5.0,76.0
2707,57.0,0,44,5.0,76.0
2708,42.0,60,44,5.0,76.0
2709,78.0,0,47,1.0,76.0
2710,69.0,0,89,2.0,76.0
2711,74.0,0,89,3.0,76.0
2712,38.0,0,89,4.0,76.0
2713,78.0,60,89,0.0,76.0
2714,54.0,0,104,5.0,76.0
2715,38.0,0,104,5.0,76.0
2716,50.0,0,104,5.0,76.0
2717,57.0,0,104,5.0,76.0
2718,76.0,60,47,1.0,76.0
2719,81.0,0,44,5.0,76.0
2720,78.0,0,44,5.0,76.0
2721,62.0,0,44,4.0,76.0
2722,74.0,0,44,5.0,76.0
2723,62.0,0,44,5.0,76.0
2724,74.0,60,89,2.0,76.0
2725,78.0,0,89,0.0,76.0
2726,69.0,0,89,3.0,76.0
2727,57.0,0,44,4.0,76.0
2728,57.0,60,44,5.0,76.0
2729,76.0,0,44,5.0,76.0
2730,73.0,0,44,5.0,76.0
2731,69.0,0,44,5.0,76.0
2732,78.0,0,167,1.0,76.0
2733,78.0,0,89,0.0,76.0
2734,54.0,0,89,4.0,76.0
2735,69.0,0,89,2.0,76.0
2736,62.0,60,89,3.0,76.0
2737,66.0,0,104,5.0,76.0
2738,69.0,0,104,5.0,76.0
2739,54.0,0,104,5.0,76.0
2740,74.0,0,104,5.0,76.0
2741,76.0,60,47,1.0,76.0
2742,69.0,0,44,5.0,76.0
2743,57.0,0,44,4.0,76.0
2744,57.0,0,44,5.0,76.0
2745,76.0,0,44,5.0,76.0
2746,73.0,0,44,5.0,76.0
2747,78.0,0,89,0.0,76.0
2748,69.0,0,89,3.0,76.0
2749,74.0,60,89,2.0,76.0
2750,66.0,0,44,5.0,76.0
2751,69.0,0,44,5.0,76.0
2752,54.0,0,44,5.0,76.0
2753,54.0,60,44,4.0,76.0
2754,74.0,0,44,5.0,76.0
2755,78.0,0,167,1.0,76.0
2756,66.0,60,89,3.0,76.0
2757,50.0,0,89,4.0,76.0
2758,69.0,0,89,2.0,76.0
2759,62.0,0,104,5.0,76.0
2760,66.0,0,104,5.0,76.0
2761,50.0,0,104,5.0,76.0
2762,69.0,0,104,5.0,76.0
2763,86.0,0,104,0.0,76.0
2764,86.0,60,47,1.0,76.0
2765,54.0,0,44,4.0,76.0
2766,54.0,60,44,5.0,76.0
2767,69.0,0,44,5.0,76.0
2768,73.0,0,44,5.0,76.0
2769,66.0,0,44,5.0,76.0
2770,69.0,0,89,3.0,76.0
2771,74.0,0,89,2.0,76.0
2772,50.0,60,44,4.0,76.0
2773,66.0,0,44,5.0,76.0
2774,69.0,0,44,5.0,76.0
2775,62.0,0,44,5.0,76.0
2776,50.0,0,44,5.0,76.0
2777,78.0,0,104,0.0,76.0
2778,78.0,0,104,1.0,76.0
2779,78.0,0,29,0.0,76.0
2780,78.0,60,29,1.0,76.0
2781,74.0,0,29,2.0,76.0
2782,79.0,0,29,1.0,76.0
2783,79.0,0,29,0.0,76.0
2784,76.0,30,29,2.0,76.0
2785,76.0,0,29,1.0,76.0
2786,73.0,0,29,2.0,76.0
2787,76.0,30,29,0.0,76.0
2788,57.0,0,89,4.0,76.0
2789,57.0,0,104,5.0,76.0
2790,78.0,0,104,5.0,76.0
2791,69.0,0,104,5.0,76.0
2792,74.0,0,104,5.0,76.0
2793,78.0,0,29,1.0,76.0
2794,78.0,0,29,0.0,76.0
2795,74.0,30,29,2.0,76.0
2796,73.0,0,44,5.0,76.0
2797,69.0,0,44,5.0,76.0
2798,64.0,0,44,5.0,76.0
2799,52.0,0,44,5.0,76.0
2800,52.0,0,44,4.0,76.0
2801,49.0,0,44,5.0,76.0
2802,49.0,60,44,4.0,76.0
2803,61.0,0,44,5.0,76.0
2804,67.0,0,44,5.0,76.0
2805,76.0,0,104,0.0,76.0
2806,69.0,0,224,3.0,76.0
2807,73.0,30,104,2.0,76.0
2808,76.0,0,104,1.0,76.0
2809,64.0,0,44,5.0,76.0
2810,76.0,0,47,1.0,76.0
2811,73.0,0,89,3.0,76.0
2812,76.0,0,89,0.0,76.0
2813,66.0,60,89,2.0,76.0
2814,46.0,0,89,4.0,76.0
2815,64.0,0,104,5.0,76.0
2816,66.0,0,104,5.0,76.0
2817,46.0,0,104,5.0,76.0
2818,61.0,0,104,5.0,76.0
2819,58.0,0,104,5.0,76.0
2820,74.0,60,47,1.0,76.0
2821,76.0,0,44,5.0,76.0
2822,85.0,0,44,5.0,76.0
2823,64.0,60,44,5.0,76.0
2824,64.0,0,44,4.0,76.0
2825,82.0,0,44,5.0,76.0
2826,76.0,0,89,0.0,76.0
2827,73.0,0,89,2.0,76.0
2828,70.0,0,89,3.0,76.0
2829,79.0,0,44,5.0,76.0
2830,61.0,0,44,4.0,76.0
2831,73.0,0,44,5.0,76.0
2832,76.0,60,44,5.0,76.0
2833,61.0,0,44,5.0,76.0
2834,76.0,0,167,1.0,76.0
2835,66.0,0,89,2.0,76.0
2836,73.0,0,89,3.0,76.0
2837,58.0,0,89,4.0,76.0
2838,76.0,0,104,0.0,76.0
2839,76.0,0,104,5.0,76.0
2840,78.0,0,104,5.0,76.0
2841,70.0,0,104,5.0,76.0
2842,73.0,0,104,5.0,76.0
2843,58.0,60,104,5.0,76.0
2844,74.0,60,47,1.0,76.0
2845,79.0,0,44,5.0,76.0
2846,61.0,0,44,4.0,76.0
2847,73.0,0,44,5.0,76.0
2848,76.0,0,44,5.0,76.0
2849,61.0,0,44,5.0,76.0
2850,70.0,0,89,3.0,76.0
2851,73.0,0,89,2.0,76.0
2852,70.0,0,44,5.0,76.0
2853,58.0,60,44,4.0,76.0
2854,78.0,0,44,5.0,76.0
2855,58.0,0,44,5.0,76.0
2856,76.0,0,44,5.0,76.0
2857,73.0,0,44,5.0,76.0
2858,76.0,60,104,0.0,76.0
2859,76.0,0,167,1.0,76.0
2860,54.0,0,89,4.0,76.0
2861,70.0,0,89,2.0,76.0
2862,73.0,0,89,3.0,76.0
2863,76.0,0,104,5.0,76.0
2864,66.0,0,104,5.0,76.0
2865,54.0,0,104,5.0,76.0
2866,70.0,0,104,5.0,76.0
2867,85.0,60,104,0.0,76.0
2868,73.0,0,104,5.0,76.0
2869,85.0,60,47,1.0,76.0
2870,70.0,60,44,5.0,76.0
2871,58.0,0,44,5.0,76.0
2872,73.0,0,44,5.0,76.0
2873,76.0,0,44,5.0,76.0
2874,58.0,0,44,4.0,76.0
2875,66.0,0,89,3.0,76.0
2876,73.0,0,89,2.0,76.0
2877,76.0,0,104,0.0,76.0
2878,54.0,60,44,4.0,76.0
2879,66.0,0,44,5.0,76.0
2880,76.0,0,44,5.0,76.0
2881,76.0,0,104,1.0,76.0
2882,54.0,0,44,5.0,76.0
2883,70.0,0,44,5.0,76.0
2884,73.0,0,44,5.0,76.0
2885,76.0,0,29,1.0,76.0
2886,73.0,0,29,2.0,76.0
2887,76.0,0,29,0.0,76.0
2888,78.0,30,29,1.0,76.0
2889,74.0,0,29,2.0,76.0
2890,78.0,0,29,0.0,76.0
2891,71.0,30,29,2.0,76.0
2892,74.0,0,29,1.0,76.0
2893,59.0,0,89,4.0,76.0
2894,74.0,0,29,0.0,76.0
2895,71.0,0,104,5.0,76.0
2896,76.0,0,104,5.0,76.0
2897,59.0,0,104,5.0,76.0
2898,78.0,0,104,5.0,76.0
2899,76.0,0,29,1.0,76.0
2900,73.0,0,29,2.0,76.0
2901,76.0,30,29,0.0,76.0
2902,54.0,0,89,4.0,76.0
2903,66.0,0,104,5.0,76.0
2904,54.0,0,104,5.0,76.0
2905,74.0,0,104,5.0,76.0
2906,71.0,30,104,5.0,76.0
2907,74.0,0,104,0.0,76.0
2908,74.0,0,119,1.0,76.0
2909,66.0,60,239,3.0,76.0
2910,71.0,0,119,2.0,76.0
2911,50.0,0,89,4.0,76.0
2912,83.0,0,104,0.0,76.0
2913,66.0,0,104,5.0,76.0
2914,62.0,0,104,5.0,76.0
2915,50.0,0,104,5.0,76.0
2916,71.0,120,104,5.0,76.0
2917,86.0,0,47,0.0,76.0
2918,47.0,120,89,4.0,76.0
2919,83.0,60,29,0.0,76.0
2920,62.0,0,104,5.0,76.0
2921,47.0,0,104,5.0,76.0
2922,66.0,0,104,5.0,76.0
2923,59.0,0,104,5.0,76.0
2924,81.0,40,19,0.0,76.0
2925,71.0,0,104,5.0,76.0
2926,67.0,0,104,5.0,76.0
2927,52.0,0,104,5.0,76.0
2928,64.0,20,104,5.0,76.0
2929,52.0,0,119,4.0,76.0
2930,76.0,0,47,2.0,76.0
2931,71.0,120,47,3.0,76.0
2932,79.0,0,47,1.0,76.0
2933,67.0,0,104,5.0,76.0
2934,64.0,0,104,5.0,76.0
2935,71.0,0,104,5.0,76.0
2936,52.0,0,104,5.0,76.0
2937,67.0,60,47,3.0,76.0
2938,71.0,0,47,2.0,76.0
2939,76.0,0,47,1.0,76.0
2940,52.0,0,119,4.0,76.0
2941,71.0,0,89,1.0,76.0
2942,64.0,60,89,3.0,76.0
2943,67.0,0,89,2.0,76.0
2944,52.0,0,89,4.0,76.0
2945,67.0,0,104,5.0,76.0
2946,64.0,0,104,5.0,76.0
2947,52.0,0,104,5.0,76.0
2948,71.0,0,104,5.0,76.0
2949,79.0,0,344,0.0,76.0
2950,83.0,0,29,0.0,76.0
2951,81.0,30,29,0.0,76.0
2952,40.0,120,89,4.0,76.0
2953,79.0,30,29,0.0,76.0
2954,55.0,0,104,5.0,76.0
2955,52.0,0,104,5.0,76.0
2956,59.0,0,104,5.0,76.0
2957,40.0,0,104,5.0,76.0
2958,78.0,30,23,0.0,76.0
2959,64.0,0,104,5.0,76.0
2960,71.0,0,104,5.0,76.0
2961,52.0,0,104,5.0,76.0
2962,67.0,30,104,5.0,76.0
2963,52.0,0,119,4.0,76.0
2964,76.0,0,47,1.0,76.0
2965,67.0,0,47,3.0,76.0
2966,71.0,0,47,2.0,76.0
2967,52.0,0,104,5.0,76.0
2968,67.0,0,104,5.0,76.0
2969,71.0,0,104,5.0,76.0
2970,64.0,120,104,5.0,76.0
2971,64.0,0,47,3.0,76.0
2972,67.0,0,47,2.0,76.0
2973,71.0,60,47,1.0,76.0
2974,52.0,0,119,4.0,76.0
2975,52.0,60,89,4.0,76.0
2976,59.0,0,89,3.0,76.0
2977,64.0,0,89,2.0,76.0
2978,67.0,0,89,1.0,76.0
2979,76.0,0,344,0.0,76.0
2980,52.0,0,104,5.0,76.0
2981,64.0,0,104,5.0,76.0
2982,67.0,0,104,5.0,76.0
2983,71.0,0,104,5.0,76.0
2984,79.0,0,29,0.0,76.0
2985,78.0,30,29,0.0,76.0
2986,76.0,30,29,0.0,76.0
2987,40.0,0,89,4.0,76.0
2988,40.0,120,104,5.0,76.0
2989,52.0,0,104,5.0,76.0
2990,55.0,0,104,5.0,76.0
2991,59.0,0,104,5.0,76.0
2992,74.0,30,23,0.0,76.0
2993,72.0,0,47,0.0,76.0
2994,52.0,0,104,5.0,76.0
2995,67.0,30,104,5.0,76.0
2996,64.0,0,104,5.0,76.0
2997,72.0,0,104,5.0,76.0
2998,76.0,60,47,0.0,76.0
2999,52.0,0,119,4.0,76.0
3000,79.0,0,47,0.0,76.0
3001,72.0,0,89,1.0,76.0
3002,64.0,0,104,2.0,76.0
3003,55.0,0,104,3.0,76.0
3004,67.0,0,104,5.0,76.0
3005,64.0,60,104,5.0,76.0
3006,72.0,0,104,5.0,76.0
3007,52.0,0,104,5.0,76.0
3008,76.0,60,47,0.0,76.0
3009,52.0,0,119,4.0,76.0
3010,72.0,0,59,0.0,76.0
3011,76.0,0,89,1.0,76.0
3012,52.0,0,89,4.0,76.0
3013,67.0,60,104,2.0,76.0
3014,52.0,0,104,5.0,76.0
3015,72.0,0,104,5.0,76.0
3016,64.0,0,104,5.0,76.0
3017,67.0,0,104,5.0,76.0
3018,60.0,0,104,3.0,76.0
3019,71.0,60,47,0.0,76.0
3020,72.0,0,59,0.0,76.0
3021,72.0,0,67,2.0,76.0
3022,79.0,0,89,1.0,76.0
3023,40.0,0,89,4.0,76.0
3024,52.0,60,104,5.0,76.0
3025,60.0,0,104,5.0,76.0
3026,40.0,0,104,5.0,76.0
3027,55.0,0,104,5.0,76.0
3028,64.0,0,104,3.0,76.0
3029,71.0,60,47,0.0,76.0
3030,71.0,20,39,2.0,76.0
3031,79.0,20,19,1.0,76.0
3032,52.0,0,89,4.0,76.0
3033,70.0,0,89,0.0,76.0
3034,70.0,0,104,5.0,76.0
3035,64.0,20,104,5.0,76.0
3036,66.0,0,104,5.0,76.0
3037,73.0,0,104,5.0,76.0
3038,52.0,0,104,5.0,76.0
3039,64.0,0,44,5.0,76.0
3040,76.0,0,44,5.0,76.0
3041,64.0,120,44,4.0,76.0
3042,82.0,0,44,5.0,76.0
3043,85.0,0,44,5.0,76.0
3044,78.0,0,44,5.0,76.0
3045,66.0,0,89,0.0,76.0
3046,73.0,0,44,5.0,76.0
3047,61.0,0,44,5.0,76.0
3048,70.0,0,224,2.0,76.0
3049,79.0,0,44,5.0,76.0
3050,61.0,0,44,4.0,76.0
3051,78.0,0,224,1.0,76.0
3052,61.0,0,224,3.0,76.0
3053,76.0,60,44,5.0,76.0
3054,61.0,0,89,3.0,52.0
3055,73.0,60,89,2.0,52.0
3056,58.0,0,89,4.0,52.0
3057,76.0,0,89,1.0,52.0
3058,76.0,0,104,5.0,76.0
3059,58.0,0,104,5.0,76.0
3060,70.0,0,104,5.0,76.0
3061,73.0,0,104,5.0,76.0
3062,79.0,0,104,5.0,76.0
3063,67.0,0,119,0.0,76.0
3064,61.0,120,44,5.0,76.0
3065,79.0,0,44,5.0,76.0
3066,73.0,0,44,5.0,76.0
3067,76.0,0,44,5.0,76.0
3068,61.0,0,44,4.0,52.0
3069,58.0,0,44,4.0,52.0
3070,66.0,0,104,0.0,76.0
3071,70.0,60,44,5.0,76.0
3072,58.0,0,44,5.0,76.0
3073,73.0,0,44,5.0,76.0
3074,76.0,0,44,5.0,76.0
3075,79.0,0,44,5.0,76.0
3076,71.0,0,89,2.0,52.0
3077,54.0,0,89,4.0,52.0
3078,62.0,0,89,3.0,52.0
3079,74.0,0,89,1.0,52.0
3080,54.0,0,104,5.0,76.0
3081,66.0,0,104,5.0,76.0
3082,74.0,0,104,5.0,76.0
3083,71.0,0,104,5.0,76.0
3084,71.0,60,119,0.0,76.0
3085,70.0,0,59,0.0,76.0
3086,54.0,0,89,4.0,52.0
3087,66.0,120,104,5.0,76.0
3088,54.0,0,104,5.0,76.0
3089,71.0,0,104,5.0,76.0
3090,74.0,0,104,5.0,76.0
3091,73.0,60,47,0.0,76.0
3092,66.0,0,89,3.0,52.0
3093,54.0,0,89,4.0,52.0
3094,70.0,0,89,2.0,52.0
3095,73.0,0,89,1.0,52.0
3096,76.0,0,104,0.0,76.0
3097,73.0,0,104,5.0,76.0
3098,70.0,0,104,5.0,76.0
3099,54.0,60,104,5.0,76.0
3100,66.0,0,104,5.0,76.0
3101,74.0,0,47,0.0,76.0
3102,54.0,0,89,4.0,52.0
3103,66.0,0,104,5.0,76.0
3104,73.0,0,104,5.0,76.0
3105,54.0,120,104,5.0,76.0
3106,70.0,0,104,5.0,76.0
3107,73.0,60,47,0.0,76.0
3108,59.0,0,89,4.0,52.0
3109,71.0,0,104,1.0,76.0
3110,74.0,0,104,0.0,76.0
3111,74.0,0,104,5.0,76.0
3112,78.0,0,104,5.0,76.0
3113,71.0,0,104,5.0,76.0
3114,59.0,0,104,5.0,76.0
3115,71.0,120,29,0.0,76.0
3116,62.0,0,44,4.0,52.0
3117,74.0,0,44,5.0,76.0
3118,78.0,0,44,5.0,76.0
3119,81.0,0,44,5.0,76.0
3120,62.0,0,44,5.0,76.0
3121,66.0,0,47,1.0,76.0
3122,73.0,30,29,0.0,76.0
3123,74.0,0,29,0.0,76.0
3124,78.0,0,44,5.0,76.0
3125,71.0,0,44,5.0,76.0
3126,59.0,0,44,5.0,76.0
3127,59.0,0,44,4.0,52.0
3128,71.0,60,224,2.0,52.0
3129,74.0,30,44,5.0,76.0
3130,71.0,0,47,1.0,76.0
3131,66.0,0,239,3.0,52.0
3132,76.0,30,29,0.0,76.0
3133,74.0,0,47,1.0,76.0
3134,54.0,0,89,4.0,76.0
3135,66.0,30,104,5.0,76.0
3136,74.0,0,104,5.0,76.0
3137,54.0,0,104,5.0,76.0
3138,71.0,0,104,5.0,76.0
3139,78.0,0,104,0.0,76.0
3140,71.0,60,47,1.0,76.0
3141,74.0,0,44,5.0,76.0
3142,59.0,60,44,5.0,76.0
3143,78.0,0,44,5.0,76.0
3144,71.0,0,44,5.0,76.0
3145,59.0,0,44,4.0,76.0
3146,66.0,0,47,3.0,76.0
3147,71.0,0,47,2.0,76.0
3148,74.0,0,47,1.0,76.0
3149,74.0,0,47,0.0,76.0
3150,66.0,0,44,5.0,76.0
3151,54.0,0,44,5.0,76.0
3152,74.0,0,44,5.0,76.0
3153,71.0,60,44,5.0,76.0
3154,54.0,0,44,4.0,76.0
3155,74.0,0,47,2.0,76.0
3156,78.0,0,47,0.0,76.0
3157,71.0,0,47,3.0,76.0
3158,78.0,0,47,1.0,76.0
3159,50.0,0,89,4.0,76.0
3160,66.0,0,104,5.0,76.0
3161,78.0,0,104,2.0,76.0
3162,62.0,0,104,5.0,76.0
3163,71.0,0,104,5.0,76.0
3164,83.0,60,104,1.0,76.0
3165,83.0,0,104,0.0,76.0
3166,74.0,0,104,3.0,76.0
3167,50.0,0,104,5.0,76.0
3168,62.0,0,44,5.0,76.0
3169,66.0,0,44,5.0,76.0
3170,47.0,0,44,5.0,76.0
3171,59.0,0,44,5.0,76.0
3172,47.0,0,44,4.0,76.0
3173,71.0,0,104,2.0,76.0
3174,50.0,0,44,5.0,76.0
3175,78.0,120,104,0.0,76.0
3176,50.0,60,44,4.0,76.0
3177,78.0,0,104,1.0,76.0
3178,62.0,0,104,3.0,76.0
3179,66.0,0,44,5.0,76.0
3180,62.0,0,44,5.0,76.0
3181,71.0,0,44,5.0,76.0
3182,76.0,0,47,0.0,76.0
3183,76.0,0,47,1.0,76.0
3184,54.0,0,89,4.0,76.0
3185,71.0,60,104,2.0,76.0
3186,66.0,0,104,5.0,76.0
3187,71.0,0,104,5.0,76.0
3188,54.0,0,104,5.0,76.0
3189,61.0,0,104,3.0,76.0
3190,73.0,0,104,5.0,76.0
3191,74.0,0,47,0.0,76.0
3192,74.0,60,47,1.0,76.0
3193,73.0,0,47,1.0,76.0
3194,73.0,0,47,0.0,76.0
3195,42.0,0,89,4.0,76.0
3196,74.0,60,29,0.0,76.0
3197,66.0,0,104,3.0,76.0
3198,61.0,0,104,5.0,76.0
3199,54.0,0,104,5.0,76.0
3200,42.0,0,104,5.0,76.0
3201,58.0,60,104,5.0,76.0
3202,70.0,0,104,2.0,76.0
3203,74.0,0,47,1.0,76.0
3204,73.0,40,19,0.0,76.0
3205,62.0,0,239,5.0,76.0
3206,47.0,0,239,5.0,76.0
3207,66.0,20,239,5.0,76.0
3208,59.0,0,239,5.0,76.0
3209,66.0,0,239,2.0,76.0
3210,71.0,0,239,0.0,76.0
3211,71.0,0,239,1.0,76.0
3212,47.0,0,239,4.0,76.0
3213,62.0,0,239,3.0,76.0
