,note,step,duration,channel,velocity
0,78.0,0,42,0.0,96.0
1,73.0,0,63,1.0,96.0
2,69.0,0,63,2.0,96.0
3,42.0,0,63,3.0,96.0
4,30.0,0,63,4.0,96.0
5,42.0,0,63,6.0,96.0
6,73.0,48,21,0.0,96.0
7,66.0,24,42,0.0,96.0
8,81.0,48,21,0.0,96.0
9,74.0,0,21,1.0,96.0
10,66.0,0,21,2.0,96.0
11,54.0,0,21,3.0,96.0
12,42.0,0,21,4.0,96.0
13,54.0,0,21,6.0,96.0
14,74.0,0,24,1.0,96.0
15,80.0,24,42,0.0,96.0
16,68.0,0,42,2.0,96.0
17,73.0,24,21,1.0,96.0
18,53.0,0,63,3.0,96.0
19,41.0,0,63,4.0,96.0
20,53.0,0,63,6.0,96.0
21,73.0,24,21,0.0,96.0
22,64.0,24,42,0.0,96.0
23,80.0,48,21,0.0,96.0
24,73.0,0,21,1.0,96.0
25,68.0,0,21,2.0,96.0
26,52.0,0,21,3.0,96.0
27,40.0,0,21,4.0,96.0
28,52.0,0,21,6.0,96.0
29,73.0,0,24,1.0,96.0
30,69.0,0,24,2.0,96.0
31,78.0,24,42,0.0,96.0
32,71.0,24,21,1.0,96.0
33,66.0,0,21,2.0,96.0
34,51.0,0,63,3.0,96.0
35,39.0,0,63,4.0,96.0
36,51.0,0,63,6.0,96.0
37,71.0,24,21,0.0,96.0
38,62.0,24,42,0.0,96.0
39,78.0,48,21,0.0,96.0
40,71.0,0,21,1.0,96.0
41,71.0,0,21,2.0,96.0
42,50.0,0,21,3.0,96.0
43,38.0,0,21,4.0,96.0
44,50.0,0,21,6.0,96.0
45,71.0,0,31,1.0,96.0
46,77.0,24,42,0.0,96.0
47,68.0,0,42,2.0,96.0
48,49.0,0,42,3.0,96.0
49,37.0,0,42,4.0,96.0
50,49.0,0,42,6.0,96.0
51,73.0,36,10,1.0,96.0
52,78.0,12,21,0.0,96.0
53,69.0,0,21,1.0,96.0
54,66.0,0,21,2.0,96.0
55,50.0,0,21,3.0,96.0
56,38.0,0,21,4.0,96.0
57,50.0,0,21,6.0,96.0
58,69.0,0,12,1.0,96.0
59,68.0,12,21,1.0,96.0
60,78.0,24,42,0.0,96.0
61,62.0,0,42,2.0,96.0
62,47.0,0,42,3.0,96.0
63,35.0,0,42,4.0,96.0
64,47.0,0,42,6.0,96.0
65,69.0,24,10,1.0,96.0
66,77.0,12,21,0.0,96.0
67,71.0,0,21,1.0,96.0
68,61.0,0,21,2.0,96.0
69,49.0,0,21,3.0,96.0
70,37.0,0,21,4.0,96.0
71,49.0,0,21,6.0,96.0
72,73.0,0,12,5.0,96.0
73,69.0,12,12,5.0,96.0
74,68.0,12,12,5.0,96.0
75,78.0,24,42,0.0,80.0
76,69.0,0,42,1.0,80.0
77,61.0,0,42,2.0,80.0
78,66.0,12,10,5.0,96.0
79,73.0,0,6,5.0,96.0
80,42.0,0,63,3.0,96.0
81,30.0,0,63,4.0,96.0
82,42.0,0,63,6.0,96.0
83,73.0,12,21,0.0,80.0
84,73.0,0,4,5.0,96.0
85,71.0,4,4,5.0,96.0
86,66.0,24,42,0.0,80.0
87,81.0,40,21,0.0,80.0
88,78.0,0,21,1.0,80.0
89,73.0,0,21,2.0,80.0
90,42.0,0,21,6.0,96.0
91,73.0,4,66,5.0,96.0
92,68.0,12,10,5.0,96.0
93,66.0,12,10,5.0,96.0
94,80.0,24,42,0.0,80.0
95,77.0,0,42,1.0,80.0
96,73.0,0,42,2.0,80.0
97,65.0,12,10,5.0,96.0
98,73.0,0,6,5.0,96.0
99,49.0,0,63,6.0,96.0
100,73.0,12,21,0.0,80.0
101,74.0,0,4,5.0,96.0
102,73.0,4,4,5.0,96.0
103,71.0,4,4,5.0,96.0
104,65.0,24,42,0.0,80.0
105,83.0,36,21,0.0,80.0
106,77.0,0,21,1.0,80.0
107,73.0,0,21,2.0,80.0
108,49.0,0,21,6.0,96.0
109,73.0,4,63,5.0,96.0
110,71.0,12,12,5.0,96.0
111,69.0,12,12,5.0,96.0
112,81.0,24,42,0.0,80.0
113,78.0,0,42,1.0,80.0
114,73.0,0,42,2.0,80.0
115,68.0,12,12,5.0,96.0
116,69.0,0,12,5.0,96.0
117,54.0,0,63,6.0,96.0
118,73.0,12,21,0.0,80.0
119,66.0,12,10,5.0,96.0
120,69.0,0,12,5.0,96.0
121,73.0,12,12,5.0,96.0
122,78.0,12,12,5.0,96.0
123,66.0,12,42,0.0,80.0
124,80.0,12,10,5.0,96.0
125,73.0,12,21,0.0,80.0
126,73.0,0,21,1.0,80.0
127,66.0,0,21,2.0,80.0
128,54.0,0,21,6.0,96.0
129,81.0,0,31,5.0,96.0
130,80.0,12,12,5.0,96.0
131,81.0,12,12,5.0,96.0
132,74.0,24,42,0.0,80.0
133,71.0,0,42,1.0,80.0
134,66.0,0,42,2.0,80.0
135,83.0,12,12,5.0,96.0
136,81.0,0,12,5.0,96.0
137,47.0,0,63,6.0,96.0
138,66.0,12,21,0.0,80.0
139,80.0,12,12,5.0,96.0
140,78.0,0,12,5.0,96.0
141,76.0,12,12,5.0,96.0
142,74.0,12,12,5.0,96.0
143,68.0,12,42,0.0,80.0
144,73.0,12,12,5.0,96.0
145,74.0,0,12,5.0,96.0
146,71.0,12,21,0.0,80.0
147,68.0,0,21,1.0,80.0
148,64.0,0,21,2.0,80.0
149,52.0,0,21,6.0,96.0
150,83.0,12,10,5.0,96.0
151,74.0,0,12,5.0,96.0
152,73.0,12,21,5.0,96.0
153,73.0,12,42,0.0,80.0
154,69.0,0,42,1.0,80.0
155,64.0,0,42,2.0,80.0
156,71.0,24,12,5.0,96.0
157,69.0,0,12,5.0,96.0
158,45.0,0,63,6.0,96.0
159,65.0,12,21,0.0,80.0
160,68.0,12,12,5.0,96.0
161,69.0,0,10,5.0,96.0
162,73.0,12,12,5.0,96.0
163,78.0,12,12,5.0,96.0
164,66.0,12,42,0.0,80.0
165,81.0,12,12,5.0,96.0
166,74.0,0,12,5.0,96.0
167,69.0,12,21,0.0,80.0
168,57.0,0,21,1.0,80.0
169,66.0,0,21,2.0,80.0
170,54.0,0,21,6.0,96.0
171,73.0,12,10,5.0,96.0
172,73.0,0,12,5.0,96.0
173,62.0,0,24,1.0,80.0
174,66.0,0,24,2.0,80.0
175,71.0,12,21,5.0,96.0
176,71.0,12,42,0.0,80.0
177,59.0,12,21,1.0,80.0
178,65.0,0,21,2.0,80.0
179,69.0,12,12,5.0,96.0
180,68.0,0,12,5.0,96.0
181,56.0,0,63,6.0,96.0
182,63.0,12,21,0.0,80.0
183,66.0,12,10,5.0,96.0
184,68.0,0,12,5.0,96.0
185,71.0,12,12,5.0,96.0
186,77.0,12,12,5.0,96.0
187,65.0,12,42,0.0,80.0
188,80.0,12,10,5.0,96.0
189,73.0,0,10,5.0,96.0
190,68.0,12,21,0.0,80.0
191,68.0,0,21,1.0,80.0
192,61.0,0,21,2.0,80.0
193,53.0,0,21,6.0,96.0
194,71.0,12,10,5.0,96.0
195,69.0,0,6,5.0,96.0
196,66.0,6,6,5.0,96.0
197,65.0,6,6,5.0,96.0
198,66.0,6,6,5.0,96.0
199,68.0,6,6,5.0,96.0
200,69.0,6,6,5.0,96.0
201,69.0,12,42,0.0,80.0
202,66.0,0,42,1.0,80.0
203,61.0,0,42,2.0,80.0
204,71.0,6,6,5.0,96.0
205,73.0,6,6,5.0,96.0
206,74.0,0,6,5.0,96.0
207,73.0,6,6,5.0,96.0
208,54.0,0,63,6.0,96.0
209,66.0,6,21,0.0,80.0
210,71.0,6,10,5.0,96.0
211,69.0,0,12,5.0,96.0
212,73.0,12,12,5.0,96.0
213,77.0,12,12,5.0,96.0
214,78.0,12,12,5.0,96.0
215,80.0,0,10,5.0,96.0
216,68.0,12,21,1.0,80.0
217,65.0,0,21,2.0,80.0
218,49.0,0,21,6.0,96.0
219,71.0,12,10,5.0,96.0
220,69.0,0,10,5.0,96.0
221,66.0,12,10,5.0,96.0
222,65.0,12,10,5.0,96.0
223,73.0,12,108,0.0,80.0
224,66.0,12,42,1.0,80.0
225,61.0,0,42,2.0,80.0
226,42.0,0,42,6.0,96.0
227,66.0,12,10,5.0,96.0
228,66.0,12,21,0.0,80.0
229,69.0,0,21,1.0,80.0
230,61.0,0,21,2.0,80.0
231,40.0,0,21,6.0,96.0
232,73.0,0,42,5.0,96.0
233,71.0,24,10,5.0,96.0
234,78.0,24,42,0.0,80.0
235,69.0,0,42,1.0,80.0
236,62.0,0,42,2.0,80.0
237,38.0,0,42,6.0,96.0
238,69.0,12,10,5.0,96.0
239,68.0,0,10,5.0,96.0
240,71.0,12,21,0.0,80.0
241,71.0,0,21,1.0,80.0
242,62.0,0,21,2.0,80.0
243,50.0,0,21,6.0,96.0
244,66.0,12,10,5.0,96.0
245,66.0,0,24,5.0,96.0
246,73.0,12,42,0.0,80.0
247,65.0,0,42,1.0,80.0
248,56.0,0,42,2.0,80.0
249,49.0,0,63,3.0,96.0
250,37.0,0,63,4.0,96.0
251,49.0,0,63,6.0,96.0
252,68.0,24,21,0.0,96.0
253,65.0,24,48,5.0,96.0
254,73.0,24,42,0.0,96.0
255,77.0,48,21,0.0,96.0
256,73.0,0,21,1.0,96.0
257,68.0,0,21,2.0,96.0
258,49.0,0,21,3.0,96.0
259,37.0,0,21,4.0,96.0
260,49.0,0,21,6.0,96.0
261,78.0,24,42,0.0,96.0
262,73.0,0,42,1.0,96.0
263,66.0,0,42,2.0,96.0
264,50.0,0,63,3.0,96.0
265,38.0,0,63,4.0,96.0
266,50.0,0,63,6.0,96.0
267,73.0,48,21,0.0,96.0
268,63.0,24,42,0.0,96.0
269,81.0,48,21,0.0,96.0
270,71.0,0,21,1.0,96.0
271,66.0,0,21,2.0,96.0
272,51.0,0,21,3.0,96.0
273,39.0,0,21,4.0,96.0
274,51.0,0,21,6.0,96.0
275,80.0,24,42,0.0,96.0
276,71.0,0,42,1.0,96.0
277,64.0,0,42,2.0,96.0
278,52.0,0,63,3.0,96.0
279,40.0,0,63,4.0,96.0
280,52.0,0,63,6.0,96.0
281,74.0,48,21,0.0,96.0
282,65.0,24,42,0.0,96.0
283,83.0,48,21,0.0,96.0
284,80.0,0,21,1.0,96.0
285,61.0,0,21,2.0,96.0
286,53.0,0,21,3.0,96.0
287,41.0,0,21,4.0,96.0
288,53.0,0,21,6.0,96.0
289,83.0,24,31,0.0,96.0
290,80.0,0,31,1.0,96.0
291,61.0,0,42,2.0,96.0
292,54.0,0,42,3.0,96.0
293,42.0,0,42,4.0,96.0
294,54.0,0,42,6.0,96.0
295,80.0,36,10,0.0,96.0
296,77.0,0,10,1.0,96.0
297,81.0,12,21,0.0,96.0
298,78.0,0,21,1.0,96.0
299,66.0,0,21,2.0,96.0
300,50.0,0,21,3.0,96.0
301,38.0,0,21,4.0,96.0
302,50.0,0,21,6.0,96.0
303,86.0,24,31,0.0,96.0
304,78.0,0,42,1.0,96.0
305,68.0,0,42,2.0,96.0
306,47.0,0,42,3.0,96.0
307,35.0,0,42,4.0,96.0
308,47.0,0,42,6.0,96.0
309,85.0,36,10,0.0,96.0
310,83.0,12,21,0.0,96.0
311,77.0,0,21,1.0,96.0
312,68.0,0,21,2.0,96.0
313,49.0,0,21,3.0,96.0
314,37.0,0,21,4.0,96.0
315,49.0,0,21,6.0,96.0
316,73.0,0,12,5.0,96.0
317,69.0,12,12,5.0,96.0
318,68.0,12,12,5.0,96.0
319,81.0,24,42,0.0,96.0
320,78.0,0,42,1.0,96.0
321,66.0,0,42,2.0,96.0
322,66.0,12,12,5.0,96.0
323,65.0,0,12,5.0,96.0
324,42.0,0,63,3.0,96.0
325,30.0,0,63,4.0,96.0
326,42.0,0,63,6.0,96.0
327,73.0,12,21,0.0,80.0
328,66.0,12,10,5.0,96.0
329,66.0,0,24,5.0,96.0
330,66.0,12,42,0.0,80.0
331,81.0,24,21,0.0,80.0
332,69.0,0,21,1.0,80.0
333,66.0,0,21,2.0,80.0
334,54.0,0,21,6.0,96.0
335,74.0,24,52,5.0,96.0
336,81.0,12,12,5.0,96.0
337,80.0,12,12,5.0,96.0
338,80.0,24,42,0.0,80.0
339,71.0,0,42,1.0,80.0
340,68.0,0,42,2.0,80.0
341,78.0,12,12,5.0,96.0
342,80.0,0,12,5.0,96.0
343,53.0,0,63,6.0,96.0
344,73.0,12,21,0.0,80.0
345,76.0,12,10,5.0,96.0
346,74.0,0,24,5.0,96.0
347,64.0,12,42,0.0,80.0
348,80.0,24,21,0.0,80.0
349,73.0,0,21,1.0,80.0
350,68.0,0,21,2.0,80.0
351,52.0,0,21,6.0,96.0
352,73.0,24,52,5.0,96.0
353,79.0,12,12,5.0,96.0
354,78.0,12,12,5.0,96.0
355,78.0,24,42,0.0,80.0
356,66.0,0,42,1.0,80.0
357,69.0,0,42,2.0,80.0
358,77.0,12,12,5.0,96.0
359,78.0,0,12,5.0,96.0
360,51.0,0,63,6.0,96.0
361,71.0,12,21,0.0,80.0
362,74.0,12,10,5.0,96.0
363,73.0,0,24,5.0,96.0
364,62.0,12,42,0.0,80.0
365,78.0,24,21,0.0,80.0
366,66.0,0,21,1.0,80.0
367,71.0,0,21,2.0,80.0
368,50.0,0,21,6.0,96.0
369,71.0,24,52,5.0,96.0
370,73.0,12,12,5.0,96.0
371,71.0,12,12,5.0,96.0
372,77.0,24,42,0.0,80.0
373,68.0,0,42,1.0,80.0
374,73.0,0,42,2.0,80.0
375,49.0,0,42,6.0,96.0
376,69.0,12,12,5.0,96.0
377,68.0,0,12,5.0,96.0
378,78.0,12,21,0.0,80.0
379,74.0,0,21,1.0,80.0
380,69.0,0,21,2.0,80.0
381,50.0,0,21,6.0,96.0
382,66.0,12,10,5.0,96.0
383,68.0,0,12,5.0,96.0
384,69.0,12,12,5.0,96.0
385,71.0,12,12,5.0,96.0
386,78.0,12,42,0.0,80.0
387,74.0,0,42,1.0,80.0
388,68.0,0,42,2.0,80.0
389,47.0,0,42,6.0,96.0
390,74.0,12,12,5.0,96.0
391,73.0,0,12,5.0,96.0
392,77.0,12,21,0.0,80.0
393,68.0,0,21,1.0,80.0
394,73.0,0,21,2.0,80.0
395,49.0,0,21,6.0,96.0
396,71.0,12,10,5.0,96.0
397,69.0,0,10,5.0,96.0
398,65.0,12,12,5.0,96.0
399,66.0,12,12,5.0,96.0
400,78.0,12,42,0.0,80.0
401,69.0,0,42,1.0,80.0
402,73.0,0,42,2.0,80.0
403,69.0,12,12,5.0,96.0
404,74.0,0,12,5.0,96.0
405,42.0,0,63,6.0,96.0
406,66.0,12,21,0.0,80.0
407,73.0,12,10,5.0,96.0
408,74.0,0,10,5.0,96.0
409,81.0,12,5,5.0,96.0
410,78.0,6,5,5.0,96.0
411,76.0,6,12,5.0,96.0
412,75.0,12,4,5.0,96.0
413,59.0,12,42,0.0,80.0
414,76.0,4,4,5.0,96.0
415,75.0,4,4,5.0,96.0
416,76.0,0,4,5.0,96.0
417,75.0,4,7,5.0,96.0
418,73.0,8,5,5.0,96.0
419,69.0,4,21,0.0,80.0
420,66.0,0,21,1.0,80.0
421,69.0,0,21,2.0,80.0
422,54.0,0,21,6.0,96.0
423,75.0,6,5,5.0,96.0
424,76.0,0,10,5.0,96.0
425,66.0,12,12,5.0,96.0
426,68.0,12,12,5.0,96.0
427,71.0,6,42,0.0,80.0
428,64.0,0,42,1.0,80.0
429,68.0,0,42,2.0,80.0
430,71.0,12,12,5.0,96.0
431,76.0,0,12,5.0,96.0
432,56.0,0,63,6.0,96.0
433,68.0,12,21,0.0,80.0
434,75.0,12,10,5.0,96.0
435,76.0,0,10,5.0,96.0
436,83.0,12,5,5.0,96.0
437,80.0,6,5,5.0,96.0
438,78.0,6,12,5.0,96.0
439,77.0,12,4,5.0,96.0
440,61.0,12,42,0.0,80.0
441,78.0,4,4,5.0,96.0
442,77.0,4,4,5.0,96.0
443,78.0,0,4,5.0,96.0
444,77.0,4,7,5.0,96.0
445,75.0,8,5,5.0,96.0
446,71.0,4,21,0.0,80.0
447,68.0,0,21,1.0,80.0
448,62.0,0,21,2.0,80.0
449,44.0,0,21,6.0,96.0
450,77.0,6,5,5.0,96.0
451,78.0,0,10,5.0,96.0
452,73.0,12,12,5.0,96.0
453,78.0,12,12,5.0,96.0
454,73.0,6,42,0.0,80.0
455,66.0,0,42,1.0,80.0
456,61.0,0,42,2.0,80.0
457,45.0,0,42,6.0,96.0
458,80.0,12,12,5.0,96.0
459,81.0,0,12,5.0,96.0
460,78.0,12,21,0.0,80.0
461,73.0,0,21,1.0,80.0
462,57.0,0,21,2.0,80.0
463,42.0,0,21,6.0,96.0
464,80.0,12,10,5.0,96.0
465,83.0,0,12,5.0,96.0
466,81.0,12,12,5.0,96.0
467,80.0,12,12,5.0,96.0
468,66.0,12,42,0.0,80.0
469,71.0,0,42,1.0,80.0
470,62.0,0,42,2.0,80.0
471,50.0,0,42,6.0,96.0
472,78.0,12,12,5.0,96.0
473,77.0,0,12,5.0,96.0
474,74.0,12,21,0.0,80.0
475,68.0,0,21,1.0,80.0
476,62.0,0,21,2.0,80.0
477,47.0,0,21,6.0,96.0
478,78.0,12,10,5.0,96.0
479,78.0,0,24,5.0,96.0
480,68.0,12,42,0.0,80.0
481,73.0,0,42,1.0,80.0
482,61.0,0,42,2.0,80.0
483,49.0,0,42,6.0,96.0
484,71.0,24,21,0.0,80.0
485,77.0,0,21,1.0,80.0
486,61.0,0,21,2.0,80.0
487,56.0,0,21,6.0,96.0
488,77.0,24,73,5.0,96.0
489,61.0,24,42,0.0,80.0
490,80.0,0,42,1.0,80.0
491,65.0,0,42,2.0,80.0
492,61.0,0,42,6.0,96.0
493,73.0,36,10,5.0,96.0
494,75.0,0,3,5.0,96.0
495,73.0,3,3,5.0,96.0
496,72.0,3,5,5.0,96.0
497,80.0,12,21,0.0,80.0
498,73.0,0,21,1.0,80.0
499,68.0,0,21,2.0,80.0
500,53.0,0,21,6.0,96.0
501,73.0,6,10,5.0,96.0
502,81.0,0,12,5.0,96.0
503,80.0,12,12,5.0,96.0
504,78.0,12,12,5.0,96.0
505,81.0,12,42,0.0,80.0
506,73.0,0,42,1.0,80.0
507,66.0,0,42,2.0,80.0
508,77.0,12,12,5.0,96.0
509,78.0,0,12,5.0,96.0
510,54.0,0,63,6.0,96.0
511,73.0,12,21,0.0,80.0
512,81.0,12,12,5.0,96.0
513,75.0,0,12,5.0,96.0
514,76.0,12,12,5.0,96.0
515,78.0,12,12,5.0,96.0
516,66.0,12,42,0.0,80.0
517,72.0,12,12,5.0,96.0
518,73.0,0,12,5.0,96.0
519,81.0,12,21,0.0,80.0
520,73.0,0,21,1.0,80.0
521,66.0,0,21,2.0,80.0
522,42.0,0,21,6.0,96.0
523,75.0,12,10,5.0,96.0
524,69.0,0,12,5.0,96.0
525,68.0,12,12,5.0,96.0
526,69.0,12,12,5.0,96.0
527,72.0,12,42,0.0,80.0
528,75.0,0,42,1.0,80.0
529,63.0,0,42,2.0,80.0
530,66.0,12,12,5.0,96.0
531,68.0,0,10,5.0,96.0
532,54.0,0,63,6.0,96.0
533,63.0,12,21,0.0,80.0
534,73.0,12,10,5.0,96.0
535,72.0,0,12,5.0,96.0
536,76.0,12,12,5.0,96.0
537,75.0,12,12,5.0,96.0
538,56.0,12,42,0.0,80.0
539,78.0,12,12,5.0,96.0
540,76.0,0,12,5.0,96.0
541,80.0,12,21,0.0,80.0
542,68.0,0,21,1.0,80.0
543,63.0,0,21,2.0,80.0
544,48.0,0,21,6.0,96.0
545,75.0,12,10,5.0,96.0
546,80.0,0,10,5.0,96.0
547,73.0,12,12,5.0,96.0
548,72.0,12,12,5.0,96.0
549,68.0,0,42,1.0,80.0
550,64.0,0,42,2.0,80.0
551,52.0,0,42,6.0,96.0
552,73.0,12,12,5.0,96.0
553,78.0,0,12,5.0,96.0
554,69.0,12,21,1.0,80.0
555,66.0,0,21,2.0,80.0
556,45.0,0,21,6.0,96.0
557,75.0,12,10,5.0,96.0
558,76.0,0,12,5.0,96.0
559,73.0,12,96,0.0,80.0
560,73.0,12,12,5.0,96.0
561,76.0,12,12,5.0,96.0
562,69.0,12,42,1.0,80.0
563,66.0,0,42,2.0,80.0
564,42.0,0,42,6.0,96.0
565,78.0,12,10,0.0,80.0
566,75.0,0,12,5.0,96.0
567,73.0,0,12,5.0,96.0
568,75.0,12,21,0.0,80.0
569,68.0,0,21,1.0,80.0
570,66.0,0,21,2.0,80.0
571,56.0,0,21,3.0,80.0
572,44.0,0,21,4.0,80.0
573,44.0,0,21,6.0,96.0
574,72.0,12,10,5.0,96.0
575,72.0,0,24,5.0,96.0
576,49.0,0,42,3.0,80.0
577,37.0,0,42,4.0,80.0
578,49.0,0,42,6.0,96.0
579,44.0,24,21,3.0,80.0
580,32.0,0,21,4.0,80.0
581,44.0,0,21,6.0,96.0
582,73.0,24,52,5.0,96.0
583,68.0,12,12,5.0,96.0
584,69.0,12,12,5.0,96.0
585,37.0,24,42,3.0,80.0
586,25.0,0,42,4.0,80.0
587,37.0,0,42,6.0,96.0
588,73.0,12,120,0.0,80.0
589,68.0,0,120,1.0,80.0
590,64.0,0,120,2.0,80.0
591,71.0,12,12,5.0,96.0
592,73.0,12,12,5.0,96.0
593,74.0,12,10,5.0,96.0
594,69.0,0,21,6.0,96.0
595,69.0,12,42,0.0,80.0
596,69.0,0,42,1.0,80.0
597,69.0,0,42,2.0,80.0
598,64.0,24,21,6.0,96.0
599,76.0,24,21,0.0,80.0
600,61.0,0,21,6.0,96.0
601,76.0,0,73,5.0,96.0
602,80.0,12,12,5.0,96.0
603,81.0,12,12,5.0,96.0
604,85.0,24,42,0.0,80.0
605,57.0,0,42,6.0,96.0
606,78.0,12,12,5.0,96.0
607,76.0,0,12,5.0,96.0
608,69.0,12,21,0.0,80.0
609,69.0,0,21,1.0,80.0
610,69.0,0,21,2.0,80.0
611,69.0,0,21,6.0,96.0
612,75.0,12,10,5.0,96.0
613,68.0,0,21,6.0,96.0
614,75.0,0,24,5.0,96.0
615,68.0,12,42,0.0,80.0
616,68.0,0,42,1.0,80.0
617,68.0,0,42,2.0,80.0
618,64.0,0,21,6.0,96.0
619,76.0,24,21,0.0,80.0
620,59.0,0,21,6.0,96.0
621,76.0,24,52,5.0,96.0
622,81.0,12,12,5.0,96.0
623,83.0,12,12,5.0,96.0
624,83.0,24,42,0.0,80.0
625,56.0,0,42,6.0,96.0
626,80.0,12,12,5.0,96.0
627,78.0,0,12,5.0,96.0
628,68.0,12,21,0.0,80.0
629,68.0,0,21,1.0,80.0
630,68.0,0,21,2.0,80.0
631,68.0,0,21,6.0,96.0
632,76.0,12,10,5.0,96.0
633,66.0,0,21,6.0,96.0
634,76.0,0,24,5.0,96.0
635,66.0,12,42,0.0,80.0
636,66.0,0,42,1.0,80.0
637,66.0,0,42,2.0,80.0
638,63.0,0,21,6.0,96.0
639,75.0,24,21,0.0,80.0
640,59.0,0,21,6.0,96.0
641,75.0,24,52,5.0,96.0
642,76.0,12,12,5.0,96.0
643,78.0,12,12,5.0,96.0
644,81.0,24,42,0.0,80.0
645,54.0,0,42,6.0,96.0
646,73.0,12,12,5.0,96.0
647,71.0,0,12,5.0,96.0
648,66.0,12,21,0.0,80.0
649,66.0,0,21,1.0,80.0
650,66.0,0,21,2.0,80.0
651,63.0,0,21,6.0,96.0
652,69.0,12,12,5.0,96.0
653,68.0,0,12,5.0,96.0
654,64.0,0,21,6.0,96.0
655,69.0,12,10,5.0,96.0
656,71.0,12,10,5.0,96.0
657,64.0,12,42,0.0,80.0
658,64.0,0,42,1.0,80.0
659,64.0,0,42,2.0,80.0
660,59.0,0,21,6.0,96.0
661,66.0,12,10,5.0,96.0
662,64.0,0,10,5.0,96.0
663,71.0,12,21,0.0,80.0
664,56.0,0,21,6.0,96.0
665,63.0,12,12,5.0,96.0
666,64.0,0,12,5.0,96.0
667,52.0,0,21,6.0,96.0
668,66.0,12,12,5.0,96.0
669,68.0,12,12,5.0,96.0
670,80.0,12,42,0.0,80.0
671,50.0,0,21,6.0,96.0
672,70.0,12,12,5.0,96.0
673,71.0,0,12,5.0,96.0
674,64.0,12,21,0.0,80.0
675,70.0,0,21,1.0,80.0
676,64.0,0,21,2.0,80.0
677,49.0,0,21,6.0,96.0
678,73.0,12,10,5.0,96.0
679,73.0,0,6,5.0,96.0
680,74.0,6,6,5.0,96.0
681,70.0,6,12,5.0,96.0
682,71.0,12,12,5.0,96.0
683,66.0,12,42,0.0,80.0
684,71.0,0,42,1.0,80.0
685,62.0,0,42,2.0,80.0
686,65.0,12,12,5.0,96.0
687,66.0,0,12,5.0,96.0
688,47.0,0,63,6.0,96.0
689,74.0,12,21,0.0,80.0
690,71.0,12,10,5.0,96.0
691,74.0,0,12,5.0,96.0
692,76.0,12,12,5.0,96.0
693,74.0,12,12,5.0,96.0
694,83.0,12,42,0.0,80.0
695,73.0,12,12,5.0,96.0
696,74.0,0,12,5.0,96.0
697,66.0,12,21,0.0,80.0
698,71.0,0,21,1.0,80.0
699,62.0,0,21,2.0,80.0
700,45.0,0,21,6.0,96.0
701,78.0,12,10,5.0,96.0
702,76.0,0,6,5.0,96.0
703,74.0,6,6,5.0,96.0
704,69.0,6,12,5.0,96.0
705,71.0,12,12,5.0,96.0
706,64.0,12,42,0.0,80.0
707,71.0,0,42,1.0,80.0
708,64.0,0,42,2.0,80.0
709,66.0,12,12,5.0,96.0
710,68.0,0,12,5.0,96.0
711,44.0,0,63,6.0,96.0
712,74.0,12,21,0.0,80.0
713,71.0,12,10,5.0,96.0
714,74.0,0,12,5.0,96.0
715,76.0,12,12,5.0,96.0
716,74.0,12,12,5.0,96.0
717,83.0,12,42,0.0,80.0
718,73.0,12,12,5.0,96.0
719,74.0,0,12,5.0,96.0
720,74.0,12,21,0.0,80.0
721,71.0,0,21,1.0,80.0
722,64.0,0,21,2.0,80.0
723,40.0,0,21,6.0,96.0
724,83.0,12,10,5.0,96.0
725,73.0,0,12,5.0,96.0
726,74.0,12,12,5.0,96.0
727,73.0,12,12,5.0,96.0
728,64.0,12,42,0.0,80.0
729,69.0,0,42,1.0,80.0
730,64.0,0,42,2.0,80.0
731,71.0,12,12,5.0,96.0
732,73.0,0,12,5.0,96.0
733,45.0,0,63,6.0,96.0
734,73.0,12,21,0.0,80.0
735,69.0,12,10,5.0,96.0
736,64.0,0,12,5.0,96.0
737,68.0,12,12,5.0,96.0
738,69.0,12,12,5.0,96.0
739,71.0,12,12,5.0,96.0
740,73.0,0,12,5.0,96.0
741,66.0,12,21,1.0,80.0
742,62.0,0,21,2.0,80.0
743,47.0,0,21,6.0,96.0
744,74.0,12,10,5.0,96.0
745,76.0,0,12,5.0,96.0
746,78.0,12,12,5.0,96.0
747,81.0,12,108,0.0,80.0
748,76.0,12,12,5.0,96.0
749,64.0,12,42,1.0,80.0
750,61.0,0,42,2.0,80.0
751,74.0,12,12,5.0,96.0
752,76.0,0,12,5.0,96.0
753,49.0,0,63,6.0,96.0
754,67.0,12,21,0.0,80.0
755,73.0,12,12,5.0,96.0
756,69.0,0,12,5.0,96.0
757,71.0,12,12,5.0,96.0
758,73.0,12,12,5.0,96.0
759,66.0,12,42,0.0,80.0
760,75.0,12,12,5.0,96.0
761,76.0,0,12,5.0,96.0
762,69.0,12,21,0.0,80.0
763,71.0,0,21,1.0,80.0
764,59.0,0,21,2.0,80.0
765,51.0,0,21,6.0,96.0
766,78.0,12,10,5.0,96.0
767,79.0,0,12,5.0,96.0
768,75.0,12,12,5.0,96.0
769,76.0,12,12,5.0,96.0
770,59.0,12,42,0.0,80.0
771,71.0,0,42,1.0,80.0
772,64.0,0,42,2.0,80.0
773,70.0,12,12,5.0,96.0
774,71.0,0,12,5.0,96.0
775,52.0,0,63,6.0,96.0
776,67.0,12,21,0.0,80.0
777,76.0,12,12,5.0,96.0
778,79.0,0,12,5.0,96.0
779,81.0,12,12,5.0,96.0
780,79.0,12,12,5.0,96.0
781,76.0,12,42,0.0,80.0
782,78.0,12,12,5.0,96.0
783,79.0,0,12,5.0,96.0
784,59.0,12,21,0.0,80.0
785,71.0,0,21,1.0,80.0
786,67.0,0,21,2.0,80.0
787,50.0,0,21,6.0,96.0
788,83.0,12,10,5.0,96.0
789,81.0,0,6,5.0,96.0
790,79.0,6,6,5.0,96.0
791,74.0,6,12,5.0,96.0
792,76.0,12,12,5.0,96.0
793,57.0,12,42,0.0,80.0
794,76.0,0,42,1.0,80.0
795,69.0,0,42,2.0,80.0
796,71.0,12,12,5.0,96.0
797,73.0,0,12,5.0,96.0
798,49.0,0,63,6.0,96.0
799,69.0,12,21,0.0,80.0
800,76.0,12,12,5.0,96.0
801,79.0,0,12,5.0,96.0
802,81.0,12,12,5.0,96.0
803,79.0,12,12,5.0,96.0
804,76.0,12,42,0.0,80.0
805,78.0,12,12,5.0,96.0
806,79.0,0,12,5.0,96.0
807,61.0,12,21,0.0,80.0
808,76.0,0,21,1.0,80.0
809,69.0,0,21,2.0,80.0
810,45.0,0,21,6.0,96.0
811,69.0,12,10,5.0,96.0
812,78.0,0,12,5.0,96.0
813,79.0,12,12,5.0,96.0
814,78.0,12,12,5.0,96.0
815,62.0,12,42,0.0,80.0
816,74.0,0,42,1.0,80.0
817,69.0,0,42,2.0,80.0
818,76.0,12,12,5.0,96.0
819,78.0,0,12,5.0,96.0
820,50.0,0,63,6.0,96.0
821,71.0,12,21,0.0,80.0
822,74.0,12,12,5.0,96.0
823,71.0,0,12,5.0,96.0
824,70.0,12,12,5.0,96.0
825,71.0,12,12,5.0,96.0
826,78.0,12,42,0.0,80.0
827,67.0,12,12,5.0,96.0
828,66.0,0,12,5.0,96.0
829,71.0,12,21,0.0,80.0
830,74.0,0,21,1.0,80.0
831,71.0,0,21,2.0,80.0
832,55.0,0,21,6.0,96.0
833,67.0,12,10,5.0,96.0
834,76.0,0,12,5.0,96.0
835,78.0,12,12,5.0,96.0
836,76.0,12,12,5.0,96.0
837,61.0,12,42,0.0,80.0
838,76.0,0,42,1.0,80.0
839,71.0,0,42,2.0,80.0
840,74.0,12,12,5.0,96.0
841,76.0,0,12,5.0,96.0
842,49.0,0,63,6.0,96.0
843,70.0,12,21,0.0,80.0
844,73.0,12,12,5.0,96.0
845,70.0,0,12,5.0,96.0
846,68.0,12,12,5.0,96.0
847,70.0,12,12,5.0,96.0
848,76.0,12,42,0.0,80.0
849,66.0,12,12,5.0,96.0
850,65.0,0,12,5.0,96.0
851,70.0,12,21,0.0,80.0
852,73.0,0,21,1.0,80.0
853,70.0,0,21,2.0,80.0
854,54.0,0,21,6.0,96.0
855,66.0,12,10,5.0,96.0
856,74.0,0,10,5.0,96.0
857,76.0,12,10,5.0,96.0
858,74.0,12,10,5.0,96.0
859,71.0,12,42,0.0,80.0
860,74.0,0,42,1.0,80.0
861,66.0,0,42,2.0,80.0
862,73.0,12,10,5.0,96.0
863,74.0,0,10,5.0,96.0
864,47.0,0,63,6.0,96.0
865,66.0,12,21,0.0,80.0
866,71.0,12,10,5.0,96.0
867,69.0,0,24,5.0,96.0
868,59.0,12,42,0.0,80.0
869,74.0,24,21,0.0,80.0
870,62.0,0,21,1.0,80.0
871,59.0,0,21,2.0,80.0
872,59.0,0,21,6.0,96.0
873,67.0,24,52,5.0,96.0
874,74.0,12,10,5.0,96.0
875,73.0,12,10,5.0,96.0
876,73.0,24,42,0.0,80.0
877,64.0,0,42,1.0,80.0
878,61.0,0,42,2.0,80.0
879,71.0,12,10,5.0,96.0
880,73.0,0,10,5.0,96.0
881,58.0,0,63,6.0,96.0
882,66.0,12,21,0.0,80.0
883,69.0,12,10,5.0,96.0
884,67.0,0,24,5.0,96.0
885,57.0,12,42,0.0,80.0
886,73.0,24,21,0.0,80.0
887,66.0,0,21,1.0,80.0
888,61.0,0,21,2.0,80.0
889,57.0,0,21,6.0,96.0
890,66.0,24,52,5.0,96.0
891,72.0,12,10,5.0,96.0
892,71.0,12,10,5.0,96.0
893,71.0,24,42,0.0,80.0
894,59.0,0,42,1.0,80.0
895,62.0,0,42,2.0,80.0
896,70.0,12,10,5.0,96.0
897,71.0,0,10,5.0,96.0
898,56.0,0,63,6.0,96.0
899,64.0,12,21,0.0,80.0
900,67.0,12,10,5.0,96.0
901,66.0,0,24,5.0,96.0
902,55.0,12,42,0.0,80.0
903,71.0,24,21,0.0,80.0
904,59.0,0,21,1.0,80.0
905,64.0,0,21,2.0,80.0
906,55.0,0,21,6.0,96.0
907,64.0,24,52,5.0,96.0
908,71.0,12,12,5.0,96.0
909,70.0,12,12,5.0,96.0
910,70.0,24,42,0.0,80.0
911,61.0,0,42,1.0,80.0
912,66.0,0,42,2.0,80.0
913,54.0,0,42,6.0,96.0
914,71.0,12,12,5.0,96.0
915,76.0,0,12,5.0,96.0
916,71.0,12,21,0.0,80.0
917,59.0,0,21,1.0,80.0
918,64.0,0,21,2.0,80.0
919,55.0,0,21,6.0,96.0
920,73.0,12,10,5.0,96.0
921,74.0,0,12,5.0,96.0
922,71.0,12,12,5.0,96.0
923,79.0,12,31,0.0,80.0
924,74.0,12,12,5.0,96.0
925,64.0,0,42,1.0,80.0
926,59.0,0,42,2.0,80.0
927,52.0,0,42,6.0,96.0
928,78.0,12,10,0.0,80.0
929,73.0,0,12,5.0,96.0
930,71.0,0,12,5.0,96.0
931,76.0,12,21,0.0,80.0
932,61.0,0,21,1.0,80.0
933,66.0,0,21,2.0,80.0
934,54.0,0,21,6.0,96.0
935,70.0,12,10,5.0,96.0
936,71.0,0,4,5.0,96.0
937,70.0,4,4,5.0,96.0
938,74.0,12,42,0.0,96.0
939,59.0,0,42,1.0,80.0
940,66.0,0,42,2.0,80.0
941,47.0,0,63,3.0,96.0
942,35.0,0,63,4.0,96.0
943,47.0,0,63,6.0,96.0
944,71.0,4,56,5.0,96.0
945,66.0,40,21,0.0,96.0
946,59.0,24,42,0.0,96.0
947,74.0,48,21,0.0,96.0
948,71.0,0,21,1.0,96.0
949,66.0,0,21,2.0,96.0
950,47.0,0,21,3.0,96.0
951,35.0,0,21,4.0,96.0
952,47.0,0,21,6.0,96.0
953,75.0,24,42,0.0,96.0
954,71.0,0,42,1.0,96.0
955,66.0,0,42,2.0,96.0
956,45.0,0,63,3.0,96.0
957,33.0,0,63,4.0,96.0
958,45.0,0,63,6.0,96.0
959,71.0,48,21,0.0,96.0
960,71.0,0,4,5.0,96.0
961,69.0,4,4,5.0,96.0
962,59.0,24,42,0.0,96.0
963,75.0,40,21,0.0,80.0
964,71.0,0,21,1.0,80.0
965,66.0,0,21,2.0,80.0
966,45.0,0,21,3.0,80.0
967,33.0,0,21,4.0,80.0
968,45.0,0,21,6.0,96.0
969,71.0,4,66,5.0,96.0
970,68.0,12,12,5.0,96.0
971,64.0,12,12,5.0,96.0
972,76.0,24,42,0.0,80.0
973,71.0,0,42,1.0,80.0
974,68.0,0,42,2.0,80.0
975,63.0,12,12,5.0,96.0
976,64.0,0,12,5.0,96.0
977,44.0,0,63,3.0,80.0
978,32.0,0,63,4.0,80.0
979,44.0,0,63,6.0,96.0
980,68.0,12,21,0.0,80.0
981,59.0,12,10,5.0,96.0
982,64.0,0,10,5.0,96.0
983,66.0,12,10,5.0,96.0
984,68.0,12,10,5.0,96.0
985,59.0,12,42,0.0,80.0
986,69.0,12,10,5.0,96.0
987,76.0,12,21,0.0,80.0
988,71.0,0,21,1.0,80.0
989,59.0,0,21,2.0,80.0
990,44.0,0,21,3.0,80.0
991,32.0,0,21,4.0,80.0
992,44.0,0,21,6.0,96.0
993,71.0,0,26,5.0,96.0
994,73.0,6,6,5.0,96.0
995,71.0,6,6,5.0,96.0
996,69.0,6,6,5.0,96.0
997,71.0,6,12,5.0,96.0
998,77.0,24,42,0.0,80.0
999,68.0,0,42,1.0,80.0
1000,61.0,0,42,2.0,80.0
1001,68.0,12,12,5.0,96.0
1002,65.0,0,12,5.0,96.0
1003,49.0,0,63,3.0,80.0
1004,37.0,0,63,4.0,80.0
1005,49.0,0,63,6.0,96.0
1006,68.0,12,21,0.0,80.0
1007,66.0,12,12,5.0,96.0
1008,68.0,0,12,5.0,96.0
1009,69.0,12,12,5.0,96.0
1010,71.0,12,12,5.0,96.0
1011,61.0,12,42,0.0,80.0
1012,74.0,12,12,5.0,96.0
1013,73.0,0,12,5.0,96.0
1014,77.0,12,21,0.0,80.0
1015,73.0,0,21,1.0,80.0
1016,68.0,0,21,2.0,80.0
1017,49.0,0,21,3.0,80.0
1018,37.0,0,21,4.0,80.0
1019,49.0,0,21,6.0,96.0
1020,71.0,12,10,5.0,96.0
1021,69.0,0,10,5.0,96.0
1022,61.0,12,12,5.0,96.0
1023,63.0,12,12,5.0,96.0
1024,78.0,12,42,0.0,96.0
1025,73.0,0,42,1.0,80.0
1026,66.0,0,42,2.0,80.0
1027,42.0,0,42,3.0,80.0
1028,30.0,0,42,4.0,80.0
1029,65.0,12,12,5.0,96.0
1030,66.0,0,12,5.0,96.0
1031,42.0,0,63,6.0,96.0
1032,73.0,12,21,0.0,96.0
1033,68.0,12,10,5.0,96.0
1034,69.0,0,6,5.0,96.0
1035,68.0,6,6,5.0,96.0
1036,66.0,6,6,5.0,96.0
1037,65.0,6,6,5.0,96.0
1038,66.0,6,12,5.0,96.0
1039,66.0,12,42,0.0,96.0
1040,69.0,12,10,5.0,96.0
1041,74.0,0,4,5.0,96.0
1042,73.0,4,4,5.0,96.0
1043,81.0,12,21,0.0,80.0
1044,66.0,0,21,1.0,80.0
1045,66.0,0,21,2.0,80.0
1046,66.0,0,21,6.0,96.0
1047,74.0,4,24,5.0,96.0
1048,65.0,0,21,6.0,96.0
1049,59.0,12,12,5.0,96.0
1050,61.0,12,12,5.0,96.0
1051,80.0,16,42,0.0,80.0
1052,65.0,0,42,1.0,80.0
1053,65.0,0,42,2.0,80.0
1054,62.0,12,12,5.0,96.0
1055,64.0,0,12,5.0,96.0
1056,73.0,12,21,0.0,80.0
1057,66.0,12,10,5.0,96.0
1058,68.0,0,6,5.0,96.0
1059,66.0,6,6,5.0,96.0
1060,64.0,6,6,5.0,96.0
1061,63.0,6,6,5.0,96.0
1062,64.0,6,12,5.0,96.0
1063,64.0,12,42,0.0,80.0
1064,68.0,12,10,5.0,96.0
1065,80.0,12,21,0.0,80.0
1066,64.0,0,21,1.0,80.0
1067,64.0,0,21,2.0,80.0
1068,64.0,0,21,6.0,96.0
1069,73.0,0,31,5.0,96.0
1070,63.0,0,21,6.0,96.0
1071,57.0,12,12,5.0,96.0
1072,59.0,12,12,5.0,96.0
1073,78.0,24,42,0.0,80.0
1074,63.0,0,42,1.0,80.0
1075,63.0,0,42,2.0,80.0
1076,61.0,12,12,5.0,96.0
1077,63.0,0,12,5.0,96.0
1078,71.0,12,21,0.0,80.0
1079,64.0,12,10,5.0,96.0
1080,66.0,0,6,5.0,96.0
1081,64.0,6,6,5.0,96.0
1082,62.0,6,6,5.0,96.0
1083,61.0,6,6,5.0,96.0
1084,62.0,6,12,5.0,96.0
1085,62.0,12,42,0.0,80.0
1086,66.0,12,10,5.0,96.0
1087,78.0,12,21,0.0,80.0
1088,62.0,0,21,1.0,80.0
1089,62.0,0,21,2.0,80.0
1090,62.0,0,21,6.0,96.0
1091,71.0,0,31,5.0,96.0
1092,74.0,12,12,5.0,96.0
1093,73.0,12,12,5.0,96.0
1094,77.0,24,42,0.0,80.0
1095,61.0,0,42,1.0,80.0
1096,61.0,0,42,2.0,80.0
1097,61.0,0,42,3.0,80.0
1098,61.0,0,42,6.0,96.0
1099,71.0,12,12,5.0,96.0
1100,77.0,0,12,5.0,96.0
1101,56.0,12,21,3.0,80.0
1102,56.0,0,21,6.0,96.0
1103,78.0,12,10,5.0,96.0
1104,80.0,0,12,5.0,96.0
1105,77.0,12,12,5.0,96.0
1106,78.0,12,12,5.0,96.0
1107,49.0,12,42,3.0,80.0
1108,49.0,0,42,6.0,96.0
1109,75.0,12,10,5.0,96.0
1110,77.0,12,21,0.0,80.0
1111,73.0,0,21,1.0,80.0
1112,68.0,0,21,2.0,80.0
1113,59.0,0,21,3.0,80.0
1114,73.0,0,21,5.0,96.0
1115,59.0,0,21,6.0,96.0
1116,78.0,24,42,0.0,80.0
1117,73.0,0,42,1.0,80.0
1118,66.0,0,42,2.0,80.0
1119,58.0,0,42,3.0,80.0
1120,58.0,0,42,6.0,96.0
1121,73.0,48,21,0.0,80.0
1122,76.0,0,4,5.0,96.0
1123,75.0,4,4,5.0,96.0
1124,66.0,24,42,0.0,80.0
1125,70.0,40,21,0.0,80.0
1126,73.0,0,21,1.0,80.0
1127,66.0,0,21,2.0,80.0
1128,54.0,0,21,6.0,96.0
1129,76.0,4,66,5.0,96.0
1130,72.0,12,12,5.0,96.0
1131,71.0,12,12,5.0,96.0
1132,59.0,24,42,0.0,80.0
1133,71.0,0,42,1.0,80.0
1134,66.0,0,42,2.0,80.0
1135,59.0,0,42,3.0,80.0
1136,59.0,0,42,6.0,96.0
1137,69.0,12,12,5.0,96.0
1138,75.0,0,12,5.0,96.0
1139,54.0,12,21,3.0,80.0
1140,54.0,0,21,6.0,96.0
1141,76.0,12,10,5.0,96.0
1142,78.0,0,6,5.0,96.0
1143,76.0,6,5,5.0,96.0
1144,75.0,6,10,5.0,96.0
1145,76.0,12,6,5.0,96.0
1146,75.0,6,5,5.0,96.0
1147,47.0,12,42,3.0,80.0
1148,47.0,0,42,6.0,96.0
1149,73.0,6,10,5.0,96.0
1150,75.0,12,21,0.0,80.0
1151,71.0,0,21,1.0,80.0
1152,66.0,0,21,2.0,80.0
1153,57.0,0,21,3.0,80.0
1154,71.0,0,21,5.0,96.0
1155,57.0,0,21,6.0,96.0
1156,76.0,24,42,0.0,80.0
1157,71.0,0,42,1.0,80.0
1158,64.0,0,42,2.0,80.0
1159,56.0,0,42,3.0,80.0
1160,56.0,0,42,6.0,96.0
1161,71.0,48,21,0.0,80.0
1162,74.0,0,4,5.0,96.0
1163,73.0,4,4,5.0,96.0
1164,64.0,24,42,0.0,80.0
1165,68.0,40,21,0.0,80.0
1166,71.0,0,21,1.0,80.0
1167,64.0,0,21,2.0,80.0
1168,52.0,0,21,6.0,96.0
1169,74.0,4,66,5.0,96.0
1170,70.0,12,10,5.0,96.0
1171,69.0,12,10,5.0,96.0
1172,57.0,24,42,0.0,80.0
1173,69.0,0,42,1.0,80.0
1174,64.0,0,42,2.0,80.0
1175,57.0,0,42,3.0,80.0
1176,57.0,0,42,6.0,96.0
1177,67.0,12,10,5.0,96.0
1178,73.0,0,10,5.0,96.0
1179,52.0,12,21,3.0,80.0
1180,52.0,0,21,6.0,96.0
1181,74.0,12,10,5.0,96.0
1182,76.0,0,6,5.0,96.0
1183,78.0,6,6,5.0,96.0
1184,76.0,6,6,5.0,96.0
1185,73.0,6,5,5.0,96.0
1186,74.0,6,6,5.0,96.0
1187,76.0,6,6,5.0,96.0
1188,45.0,12,42,3.0,80.0
1189,74.0,6,6,5.0,96.0
1190,45.0,0,42,6.0,96.0
1191,71.0,6,5,5.0,96.0
1192,69.0,0,6,5.0,96.0
1193,57.0,6,21,0.0,80.0
1194,73.0,0,21,1.0,80.0
1195,64.0,0,21,2.0,80.0
1196,55.0,0,21,3.0,80.0
1197,55.0,0,21,6.0,96.0
1198,54.0,0,21,6.0,96.0
1199,62.0,24,42,0.0,80.0
1200,74.0,0,42,1.0,80.0
1201,62.0,0,42,2.0,80.0
1202,54.0,0,42,3.0,80.0
1203,57.0,24,21,6.0,96.0
1204,69.0,24,21,0.0,80.0
1205,54.0,0,21,6.0,96.0
1206,69.0,0,73,5.0,96.0
1207,73.0,12,12,5.0,96.0
1208,74.0,12,12,5.0,96.0
1209,78.0,24,42,0.0,80.0
1210,50.0,0,42,6.0,96.0
1211,71.0,12,12,5.0,96.0
1212,69.0,0,12,5.0,96.0
1213,62.0,12,21,0.0,80.0
1214,78.0,0,21,1.0,80.0
1215,69.0,0,21,2.0,80.0
1216,50.0,0,21,3.0,80.0
1217,38.0,0,21,6.0,96.0
1218,68.0,12,10,5.0,96.0
1219,45.0,0,21,6.0,96.0
1220,68.0,0,24,5.0,96.0
1221,61.0,12,42,0.0,80.0
1222,76.0,0,42,1.0,80.0
1223,69.0,0,42,2.0,80.0
1224,57.0,0,21,6.0,96.0
1225,57.0,0,63,3.0,80.0
1226,69.0,24,21,0.0,80.0
1227,52.0,0,21,6.0,96.0
1228,69.0,24,52,5.0,96.0
1229,74.0,12,12,5.0,96.0
1230,76.0,12,12,5.0,96.0
1231,76.0,24,42,0.0,80.0
1232,49.0,0,42,6.0,96.0
1233,73.0,12,12,5.0,96.0
1234,71.0,0,12,5.0,96.0
1235,61.0,12,21,0.0,80.0
1236,81.0,0,21,1.0,80.0
1237,69.0,0,21,2.0,80.0
1238,54.0,0,21,3.0,80.0
1239,54.0,0,21,6.0,96.0
1240,69.0,12,10,5.0,96.0
1241,47.0,0,21,6.0,96.0
1242,69.0,0,24,5.0,96.0
1243,59.0,12,42,0.0,80.0
1244,74.0,0,42,1.0,80.0
1245,71.0,0,42,2.0,80.0
1246,59.0,0,42,3.0,80.0
1247,50.0,0,21,6.0,96.0
1248,68.0,24,21,0.0,80.0
1249,47.0,0,21,6.0,96.0
1250,68.0,24,52,5.0,96.0
1251,69.0,12,12,5.0,96.0
1252,71.0,12,12,5.0,96.0
1253,74.0,24,42,0.0,80.0
1254,52.0,0,42,6.0,96.0
1255,66.0,12,12,5.0,96.0
1256,64.0,0,12,5.0,96.0
1257,59.0,12,21,0.0,80.0
1258,80.0,0,21,1.0,80.0
1259,71.0,0,21,2.0,80.0
1260,52.0,0,21,3.0,80.0
1261,40.0,0,21,6.0,96.0
1262,62.0,12,10,5.0,96.0
1263,61.0,0,10,5.0,96.0
1264,45.0,0,21,6.0,96.0
1265,62.0,12,10,5.0,96.0
1266,64.0,12,5,5.0,96.0
1267,62.0,6,5,5.0,96.0
1268,57.0,12,42,0.0,80.0
1269,81.0,0,42,1.0,80.0
1270,73.0,0,42,2.0,80.0
1271,57.0,0,42,3.0,80.0
1272,49.0,0,21,6.0,96.0
1273,61.0,6,10,5.0,96.0
1274,62.0,0,5,5.0,96.0
1275,61.0,6,5,5.0,96.0
1276,64.0,12,21,0.0,80.0
1277,52.0,0,21,6.0,96.0
1278,59.0,6,10,5.0,96.0
1279,73.0,12,42,0.0,80.0
1280,45.0,24,21,6.0,96.0
1281,64.0,24,21,0.0,80.0
1282,72.0,0,21,1.0,80.0
1283,69.0,0,21,2.0,80.0
1284,55.0,0,21,3.0,80.0
1285,55.0,0,21,6.0,96.0
1286,57.0,0,73,5.0,96.0
1287,67.0,12,12,5.0,96.0
1288,66.0,12,12,5.0,96.0
1289,63.0,24,42,0.0,80.0
1290,72.0,0,42,1.0,80.0
1291,69.0,0,42,2.0,80.0
1292,54.0,0,42,3.0,80.0
1293,54.0,0,42,6.0,96.0
1294,64.0,12,12,5.0,96.0
1295,63.0,0,12,5.0,96.0
1296,69.0,12,21,0.0,80.0
1297,66.0,12,12,5.0,96.0
1298,69.0,0,12,5.0,96.0
1299,71.0,12,12,5.0,96.0
1300,69.0,12,12,5.0,96.0
1301,78.0,12,42,0.0,80.0
1302,68.0,12,12,5.0,96.0
1303,69.0,0,12,5.0,96.0
1304,69.0,12,21,0.0,80.0
1305,76.0,0,21,1.0,80.0
1306,72.0,0,21,2.0,80.0
1307,52.0,0,21,3.0,80.0
1308,52.0,0,21,6.0,96.0
1309,72.0,12,10,5.0,96.0
1310,71.0,0,6,5.0,96.0
1311,69.0,6,5,5.0,96.0
1312,64.0,6,12,5.0,96.0
1313,66.0,12,12,5.0,96.0
1314,59.0,12,42,0.0,80.0
1315,78.0,0,42,1.0,80.0
1316,71.0,0,42,2.0,80.0
1317,51.0,0,42,3.0,80.0
1318,51.0,0,42,6.0,96.0
1319,69.0,12,12,5.0,96.0
1320,72.0,0,12,5.0,96.0
1321,69.0,12,21,0.0,80.0
1322,71.0,12,10,5.0,96.0
1323,72.0,0,12,5.0,96.0
1324,69.0,12,12,5.0,96.0
1325,75.0,12,12,5.0,96.0
1326,78.0,12,42,0.0,80.0
1327,76.0,12,12,5.0,96.0
1328,78.0,0,10,5.0,96.0
1329,69.0,12,21,0.0,80.0
1330,75.0,0,21,1.0,80.0
1331,71.0,0,21,2.0,80.0
1332,47.0,0,21,3.0,80.0
1333,47.0,0,21,6.0,96.0
1334,69.0,12,10,5.0,96.0
1335,67.0,0,12,5.0,96.0
1336,69.0,12,12,5.0,96.0
1337,67.0,12,12,5.0,96.0
1338,59.0,12,42,0.0,80.0
1339,76.0,0,42,1.0,80.0
1340,71.0,0,42,2.0,80.0
1341,52.0,0,42,3.0,80.0
1342,52.0,0,42,6.0,96.0
1343,66.0,12,12,5.0,96.0
1344,67.0,0,12,5.0,96.0
1345,67.0,12,21,0.0,80.0
1346,64.0,12,10,5.0,96.0
1347,59.0,0,10,5.0,96.0
1348,63.0,12,10,5.0,96.0
1349,64.0,12,10,5.0,96.0
1350,66.0,12,10,5.0,96.0
1351,67.0,0,10,5.0,96.0
1352,71.0,12,21,1.0,80.0
1353,66.0,0,21,2.0,80.0
1354,54.0,0,21,3.0,80.0
1355,54.0,0,21,6.0,96.0
1356,69.0,12,10,5.0,96.0
1357,71.0,0,12,5.0,96.0
1358,73.0,12,12,5.0,96.0
1359,76.0,12,108,0.0,80.0
1360,71.0,12,12,5.0,96.0
1361,71.0,12,42,1.0,80.0
1362,64.0,0,42,2.0,80.0
1363,56.0,0,42,3.0,80.0
1364,56.0,0,42,6.0,96.0
1365,70.0,12,12,5.0,96.0
1366,71.0,0,12,5.0,96.0
1367,62.0,12,21,0.0,80.0
1368,68.0,12,12,5.0,96.0
1369,64.0,0,12,5.0,96.0
1370,66.0,12,12,5.0,96.0
1371,68.0,12,12,5.0,96.0
1372,61.0,12,42,0.0,80.0
1373,70.0,12,12,5.0,96.0
1374,71.0,0,12,5.0,96.0
1375,76.0,12,21,0.0,80.0
1376,66.0,0,21,1.0,80.0
1377,66.0,0,21,2.0,80.0
1378,58.0,0,21,3.0,80.0
1379,58.0,0,21,6.0,96.0
1380,73.0,12,10,5.0,96.0
1381,74.0,0,12,5.0,96.0
1382,70.0,12,12,5.0,96.0
1383,71.0,12,12,5.0,96.0
1384,66.0,12,42,0.0,80.0
1385,71.0,0,42,1.0,80.0
1386,66.0,0,42,2.0,80.0
1387,59.0,0,42,3.0,80.0
1388,59.0,0,42,6.0,96.0
1389,65.0,12,12,5.0,96.0
1390,66.0,0,12,5.0,96.0
1391,74.0,12,21,0.0,80.0
1392,71.0,12,10,5.0,96.0
1393,74.0,0,10,5.0,96.0
1394,76.0,12,10,5.0,96.0
1395,74.0,12,10,5.0,96.0
1396,83.0,12,42,0.0,80.0
1397,73.0,12,10,5.0,96.0
1398,74.0,0,10,5.0,96.0
1399,66.0,12,21,0.0,80.0
1400,71.0,0,21,1.0,80.0
1401,66.0,0,21,2.0,80.0
1402,57.0,0,21,3.0,80.0
1403,57.0,0,21,6.0,96.0
1404,78.0,12,10,5.0,96.0
1405,76.0,0,6,5.0,96.0
1406,74.0,6,6,5.0,96.0
1407,69.0,6,12,5.0,96.0
1408,71.0,12,12,5.0,96.0
1409,64.0,12,42,0.0,80.0
1410,71.0,0,42,1.0,80.0
1411,64.0,0,42,2.0,80.0
1412,56.0,0,42,3.0,80.0
1413,56.0,0,42,6.0,96.0
1414,66.0,12,12,5.0,96.0
1415,68.0,0,12,5.0,96.0
1416,76.0,12,21,0.0,80.0
1417,71.0,12,12,5.0,96.0
1418,74.0,0,12,5.0,96.0
1419,76.0,12,12,5.0,96.0
1420,74.0,12,12,5.0,96.0
1421,83.0,12,42,0.0,80.0
1422,73.0,12,12,5.0,96.0
1423,74.0,0,10,5.0,96.0
1424,68.0,12,21,0.0,80.0
1425,71.0,0,21,1.0,80.0
1426,64.0,0,21,2.0,80.0
1427,52.0,0,21,3.0,80.0
1428,52.0,0,21,6.0,96.0
1429,83.0,12,10,5.0,96.0
1430,73.0,0,12,5.0,96.0
1431,74.0,12,12,5.0,96.0
1432,73.0,12,12,5.0,96.0
1433,69.0,12,42,0.0,80.0
1434,69.0,0,42,1.0,80.0
1435,64.0,0,42,2.0,80.0
1436,57.0,0,42,3.0,80.0
1437,45.0,0,42,6.0,96.0
1438,71.0,12,12,5.0,96.0
1439,73.0,0,12,5.0,96.0
1440,76.0,12,21,0.0,80.0
1441,69.0,12,12,5.0,96.0
1442,66.0,0,12,5.0,96.0
1443,65.0,12,12,5.0,96.0
1444,66.0,12,12,5.0,96.0
1445,85.0,12,42,0.0,80.0
1446,62.0,12,12,5.0,96.0
1447,61.0,0,12,5.0,96.0
1448,78.0,12,21,0.0,80.0
1449,78.0,0,21,1.0,80.0
1450,66.0,0,21,2.0,80.0
1451,62.0,0,21,3.0,80.0
1452,50.0,0,21,6.0,96.0
1453,62.0,12,10,5.0,96.0
1454,71.0,0,12,5.0,96.0
1455,78.0,0,24,1.0,80.0
1456,73.0,12,12,5.0,96.0
1457,71.0,0,12,5.0,96.0
1458,68.0,12,42,0.0,80.0
1459,68.0,0,42,2.0,80.0
1460,56.0,0,42,3.0,80.0
1461,44.0,0,42,6.0,96.0
1462,77.0,12,21,1.0,80.0
1463,69.0,12,12,5.0,96.0
1464,71.0,0,12,5.0,96.0
1465,74.0,12,21,0.0,80.0
1466,68.0,12,12,5.0,96.0
1467,65.0,0,12,5.0,96.0
1468,63.0,12,12,5.0,96.0
1469,65.0,12,12,5.0,96.0
1470,83.0,12,42,0.0,80.0
1471,61.0,12,12,5.0,96.0
1472,60.0,0,12,5.0,96.0
1473,77.0,12,21,0.0,80.0
1474,73.0,0,21,1.0,80.0
1475,68.0,0,21,2.0,80.0
1476,61.0,0,21,3.0,80.0
1477,49.0,0,21,6.0,96.0
1478,61.0,12,10,5.0,96.0
1479,69.0,0,12,5.0,96.0
1480,71.0,12,12,5.0,96.0
1481,69.0,12,12,5.0,96.0
1482,78.0,12,42,0.0,80.0
1483,73.0,0,42,1.0,80.0
1484,66.0,0,42,2.0,80.0
1485,54.0,0,42,3.0,80.0
1486,42.0,0,42,6.0,96.0
1487,68.0,12,12,5.0,96.0
1488,69.0,0,12,5.0,96.0
1489,73.0,12,21,0.0,80.0
1490,66.0,12,10,5.0,96.0
1491,64.0,0,24,5.0,96.0
1492,66.0,12,42,0.0,80.0
1493,81.0,24,21,0.0,80.0
1494,69.0,0,21,1.0,80.0
1495,66.0,0,21,2.0,80.0
1496,54.0,0,21,3.0,80.0
1497,54.0,0,21,6.0,96.0
1498,62.0,24,52,5.0,96.0
1499,69.0,12,12,5.0,96.0
1500,68.0,12,12,5.0,96.0
1501,80.0,24,42,0.0,80.0
1502,71.0,0,42,1.0,80.0
1503,68.0,0,42,2.0,80.0
1504,66.0,12,12,5.0,96.0
1505,68.0,0,12,5.0,96.0
1506,53.0,0,63,3.0,80.0
1507,53.0,0,63,6.0,96.0
1508,73.0,12,21,0.0,80.0
1509,64.0,12,10,5.0,96.0
1510,62.0,0,24,5.0,96.0
1511,64.0,12,42,0.0,80.0
1512,80.0,24,21,0.0,80.0
1513,73.0,0,21,1.0,80.0
1514,68.0,0,21,2.0,80.0
1515,52.0,0,21,3.0,80.0
1516,52.0,0,21,6.0,96.0
1517,61.0,24,52,5.0,96.0
1518,67.0,12,12,5.0,96.0
1519,66.0,12,12,5.0,96.0
1520,78.0,24,42,0.0,80.0
1521,66.0,0,42,1.0,80.0
1522,69.0,0,42,2.0,80.0
1523,65.0,12,12,5.0,96.0
1524,66.0,0,12,5.0,96.0
1525,51.0,0,63,3.0,80.0
1526,51.0,0,63,6.0,96.0
1527,71.0,12,21,0.0,80.0
1528,62.0,12,10,5.0,96.0
1529,61.0,0,24,5.0,96.0
1530,62.0,12,42,0.0,80.0
1531,78.0,24,21,0.0,80.0
1532,71.0,0,21,1.0,80.0
1533,66.0,0,21,2.0,80.0
1534,50.0,0,21,3.0,80.0
1535,50.0,0,21,6.0,96.0
1536,59.0,24,52,5.0,96.0
1537,66.0,12,12,5.0,96.0
1538,65.0,12,12,5.0,96.0
1539,77.0,24,42,0.0,80.0
1540,73.0,0,42,1.0,80.0
1541,68.0,0,42,2.0,80.0
1542,49.0,0,42,3.0,80.0
1543,49.0,0,42,6.0,96.0
1544,66.0,12,12,5.0,96.0
1545,71.0,0,12,5.0,96.0
1546,78.0,12,21,0.0,80.0
1547,71.0,0,21,1.0,80.0
1548,66.0,0,21,2.0,80.0
1549,50.0,0,21,3.0,80.0
1550,50.0,0,21,6.0,96.0
1551,68.0,12,10,5.0,96.0
1552,69.0,0,12,5.0,96.0
1553,66.0,12,12,5.0,96.0
1554,74.0,12,31,0.0,80.0
1555,69.0,12,12,5.0,96.0
1556,66.0,0,42,1.0,80.0
1557,71.0,0,42,2.0,80.0
1558,47.0,0,42,3.0,80.0
1559,47.0,0,42,6.0,96.0
1560,73.0,12,10,0.0,80.0
1561,68.0,0,12,5.0,96.0
1562,66.0,0,12,5.0,96.0
1563,71.0,12,21,0.0,80.0
1564,73.0,0,21,1.0,80.0
1565,68.0,0,21,2.0,80.0
1566,49.0,0,21,3.0,80.0
1567,49.0,0,21,6.0,96.0
1568,65.0,12,10,5.0,96.0
1569,69.0,12,42,0.0,80.0
1570,73.0,0,42,1.0,80.0
1571,69.0,0,42,2.0,80.0
1572,42.0,0,63,3.0,96.0
1573,30.0,0,63,4.0,96.0
1574,42.0,0,63,6.0,96.0
1575,73.0,48,21,0.0,96.0
1576,66.0,0,72,5.0,96.0
1577,66.0,24,42,0.0,96.0
1578,81.0,48,21,0.0,96.0
1579,74.0,0,21,1.0,96.0
1580,66.0,0,21,2.0,96.0
1581,54.0,0,21,3.0,96.0
1582,42.0,0,21,4.0,96.0
1583,54.0,0,21,6.0,96.0
1584,74.0,0,24,1.0,96.0
1585,80.0,24,42,0.0,96.0
1586,68.0,0,42,2.0,96.0
1587,53.0,0,42,3.0,96.0
1588,41.0,0,42,4.0,96.0
1589,53.0,0,42,6.0,96.0
1590,73.0,24,21,1.0,96.0
1591,73.0,24,21,0.0,96.0
1592,64.0,24,42,0.0,96.0
1593,80.0,48,21,0.0,96.0
1594,73.0,0,21,1.0,96.0
1595,68.0,0,21,2.0,96.0
1596,52.0,0,21,3.0,96.0
1597,40.0,0,21,4.0,96.0
1598,52.0,0,21,6.0,96.0
1599,73.0,0,24,1.0,96.0
1600,69.0,0,24,2.0,96.0
1601,78.0,24,42,0.0,96.0
1602,51.0,0,42,3.0,96.0
1603,39.0,0,42,4.0,96.0
1604,51.0,0,42,6.0,96.0
1605,71.0,24,21,1.0,96.0
1606,66.0,0,21,2.0,96.0
1607,71.0,24,21,0.0,96.0
1608,62.0,24,42,0.0,96.0
1609,78.0,48,21,0.0,96.0
1610,71.0,0,21,1.0,96.0
1611,71.0,0,21,2.0,96.0
1612,50.0,0,21,3.0,96.0
1613,38.0,0,21,4.0,96.0
1614,50.0,0,21,6.0,96.0
1615,71.0,0,31,1.0,96.0
1616,77.0,24,42,0.0,96.0
1617,68.0,0,42,2.0,96.0
1618,49.0,0,42,3.0,96.0
1619,37.0,0,42,4.0,96.0
1620,49.0,0,42,6.0,96.0
1621,73.0,36,10,1.0,96.0
1622,78.0,12,21,0.0,96.0
1623,69.0,0,21,1.0,96.0
1624,66.0,0,21,2.0,96.0
1625,50.0,0,21,3.0,96.0
1626,38.0,0,21,4.0,96.0
1627,50.0,0,21,6.0,96.0
1628,68.0,0,31,1.0,96.0
1629,78.0,24,42,0.0,96.0
1630,62.0,0,42,2.0,96.0
1631,47.0,0,42,3.0,96.0
1632,35.0,0,42,4.0,96.0
1633,47.0,0,42,6.0,96.0
1634,69.0,36,10,1.0,96.0
1635,77.0,12,21,0.0,96.0
1636,71.0,0,21,1.0,96.0
1637,61.0,0,21,2.0,96.0
1638,49.0,0,21,3.0,96.0
1639,37.0,0,21,4.0,96.0
1640,49.0,0,21,6.0,96.0
1641,78.0,24,72,0.0,96.0
1642,69.0,0,72,1.0,96.0
1643,61.0,0,72,2.0,96.0
1644,42.0,0,72,3.0,96.0
1645,30.0,0,72,4.0,96.0
1646,42.0,0,72,6.0,96.0
