,note,step,duration,channel,velocity
0,62.0,0,12,0.0,96.0
1,62.0,0,12,5.0,96.0
2,64.0,12,12,0.0,96.0
3,64.0,0,12,5.0,96.0
4,66.0,12,12,0.0,96.0
5,66.0,0,12,5.0,96.0
6,66.0,0,42,1.0,96.0
7,57.0,0,42,2.0,96.0
8,50.0,0,42,3.0,96.0
9,38.0,0,42,4.0,96.0
10,50.0,0,42,6.0,96.0
11,69.0,12,10,0.0,96.0
12,69.0,0,10,5.0,96.0
13,74.0,12,6,0.0,96.0
14,74.0,0,6,5.0,96.0
15,74.0,24,12,0.0,96.0
16,74.0,0,12,5.0,96.0
17,69.0,0,21,1.0,96.0
18,57.0,0,21,2.0,96.0
19,54.0,0,21,3.0,96.0
20,42.0,0,21,4.0,96.0
21,54.0,0,21,6.0,96.0
22,73.0,12,10,0.0,96.0
23,73.0,0,10,5.0,96.0
24,76.0,12,12,0.0,96.0
25,76.0,0,12,5.0,96.0
26,67.0,0,21,1.0,96.0
27,61.0,0,21,2.0,96.0
28,52.0,0,21,3.0,96.0
29,40.0,0,21,4.0,96.0
30,52.0,0,21,6.0,96.0
31,74.0,12,10,0.0,96.0
32,74.0,0,10,5.0,96.0
33,73.0,12,12,0.0,96.0
34,73.0,0,12,5.0,96.0
35,69.0,0,21,1.0,96.0
36,66.0,0,21,2.0,96.0
37,50.0,0,21,3.0,96.0
38,38.0,0,21,4.0,96.0
39,50.0,0,21,6.0,96.0
40,71.0,12,10,0.0,96.0
41,71.0,0,10,5.0,96.0
42,69.0,12,12,0.0,96.0
43,69.0,0,12,5.0,96.0
44,71.0,12,12,0.0,96.0
45,71.0,0,12,5.0,96.0
46,73.0,12,12,0.0,96.0
47,73.0,0,12,5.0,96.0
48,69.0,0,42,1.0,96.0
49,64.0,0,42,2.0,96.0
50,49.0,0,42,3.0,96.0
51,37.0,0,42,4.0,96.0
52,49.0,0,42,6.0,96.0
53,76.0,12,10,0.0,96.0
54,76.0,0,10,5.0,96.0
55,79.0,12,6,0.0,96.0
56,79.0,0,6,5.0,96.0
57,69.0,0,21,1.0,96.0
58,64.0,0,21,2.0,96.0
59,49.0,0,21,3.0,96.0
60,37.0,0,21,4.0,96.0
61,49.0,0,21,6.0,96.0
62,71.0,24,21,1.0,96.0
63,62.0,0,21,2.0,96.0
64,47.0,0,21,3.0,96.0
65,35.0,0,21,4.0,96.0
66,47.0,0,21,6.0,96.0
67,79.0,24,63,0.0,96.0
68,79.0,0,63,5.0,96.0
69,73.0,24,21,1.0,96.0
70,64.0,0,21,2.0,96.0
71,45.0,0,21,3.0,96.0
72,33.0,0,21,4.0,96.0
73,45.0,0,21,6.0,96.0
74,78.0,24,12,0.0,96.0
75,78.0,0,12,5.0,96.0
76,74.0,0,21,1.0,96.0
77,50.0,0,21,3.0,96.0
78,38.0,0,21,4.0,96.0
79,50.0,0,21,6.0,96.0
80,76.0,12,10,0.0,96.0
81,76.0,0,10,5.0,96.0
82,79.0,12,12,0.0,96.0
83,79.0,0,12,5.0,96.0
84,57.0,0,42,2.0,96.0
85,69.0,0,21,1.0,96.0
86,49.0,0,21,3.0,96.0
87,37.0,0,21,4.0,96.0
88,49.0,0,21,6.0,96.0
89,78.0,12,10,0.0,96.0
90,78.0,0,10,5.0,96.0
91,76.0,12,12,0.0,96.0
92,76.0,0,12,5.0,96.0
93,68.0,0,21,1.0,96.0
94,62.0,0,21,2.0,96.0
95,47.0,0,21,3.0,96.0
96,35.0,0,21,4.0,96.0
97,47.0,0,21,6.0,96.0
98,74.0,12,10,0.0,96.0
99,74.0,0,10,5.0,96.0
100,73.0,12,12,0.0,96.0
101,73.0,0,12,5.0,96.0
102,69.0,0,21,1.0,96.0
103,45.0,0,21,3.0,96.0
104,33.0,0,21,4.0,96.0
105,45.0,0,21,6.0,96.0
106,71.0,12,10,0.0,96.0
107,71.0,0,10,5.0,96.0
108,74.0,12,12,0.0,96.0
109,74.0,0,12,5.0,96.0
110,64.0,0,42,2.0,96.0
111,64.0,0,21,1.0,96.0
112,43.0,0,21,3.0,96.0
113,31.0,0,21,4.0,96.0
114,43.0,0,21,6.0,96.0
115,73.0,12,10,0.0,96.0
116,73.0,0,10,5.0,96.0
117,71.0,12,12,0.0,96.0
118,71.0,0,12,5.0,96.0
119,66.0,0,21,1.0,96.0
120,62.0,0,21,2.0,96.0
121,42.0,0,21,3.0,96.0
122,30.0,0,21,4.0,96.0
123,42.0,0,21,6.0,96.0
124,69.0,12,10,0.0,96.0
125,69.0,0,10,5.0,96.0
126,67.0,0,10,5.0,96.0
127,67.0,12,12,0.0,96.0
128,67.0,0,21,1.0,96.0
129,61.0,0,21,2.0,96.0
130,40.0,0,21,3.0,96.0
131,28.0,0,21,4.0,96.0
132,40.0,0,21,6.0,96.0
133,66.0,12,10,0.0,96.0
134,66.0,0,10,5.0,96.0
135,69.0,0,10,5.0,96.0
136,69.0,12,12,0.0,96.0
137,64.0,0,21,1.0,96.0
138,64.0,0,21,2.0,96.0
139,49.0,0,21,3.0,96.0
140,37.0,0,21,4.0,96.0
141,49.0,0,21,6.0,96.0
142,67.0,12,10,0.0,96.0
143,67.0,0,10,5.0,96.0
144,66.0,0,10,5.0,96.0
145,66.0,12,12,0.0,96.0
146,62.0,0,21,1.0,96.0
147,57.0,0,21,2.0,96.0
148,50.0,0,21,3.0,96.0
149,38.0,0,21,4.0,96.0
150,50.0,0,21,6.0,96.0
151,67.0,12,10,0.0,96.0
152,67.0,0,10,5.0,96.0
153,64.0,0,10,5.0,96.0
154,64.0,12,12,0.0,96.0
155,61.0,0,21,1.0,96.0
156,45.0,0,21,3.0,96.0
157,33.0,0,21,4.0,96.0
158,45.0,0,21,6.0,96.0
159,62.0,0,10,5.0,96.0
160,62.0,12,12,0.0,96.0
161,57.0,0,31,2.0,96.0
162,64.0,12,10,0.0,96.0
163,64.0,0,10,5.0,96.0
164,64.0,0,21,1.0,96.0
165,49.0,0,21,3.0,96.0
166,37.0,0,21,4.0,96.0
167,49.0,0,21,6.0,96.0
168,67.0,12,10,0.0,96.0
169,59.0,0,10,2.0,96.0
170,67.0,0,10,5.0,96.0
171,66.0,12,10,0.0,96.0
172,57.0,0,10,2.0,96.0
173,66.0,0,10,5.0,96.0
174,61.0,0,21,1.0,96.0
175,45.0,0,21,3.0,96.0
176,33.0,0,21,4.0,96.0
177,45.0,0,21,6.0,96.0
178,64.0,12,10,0.0,96.0
179,55.0,0,10,2.0,96.0
180,64.0,0,10,5.0,96.0
181,62.0,0,10,5.0,96.0
182,62.0,12,12,0.0,96.0
183,57.0,0,21,1.0,96.0
184,54.0,0,21,2.0,96.0
185,38.0,0,21,3.0,96.0
186,26.0,0,21,4.0,96.0
187,38.0,0,21,6.0,96.0
188,64.0,0,10,5.0,96.0
189,64.0,12,12,0.0,96.0
190,66.0,0,10,5.0,96.0
191,66.0,12,12,0.0,96.0
192,69.0,0,21,1.0,96.0
193,62.0,0,21,2.0,96.0
194,50.0,0,21,3.0,96.0
195,38.0,0,21,4.0,96.0
196,50.0,0,21,6.0,96.0
197,69.0,12,10,0.0,96.0
198,69.0,0,10,5.0,96.0
199,74.0,12,6,0.0,96.0
200,69.0,0,21,1.0,96.0
201,66.0,0,21,2.0,96.0
202,49.0,0,21,3.0,96.0
203,37.0,0,21,4.0,96.0
204,74.0,0,21,5.0,96.0
205,49.0,0,21,6.0,96.0
206,74.0,0,10,5.0,96.0
207,74.0,24,12,0.0,96.0
208,71.0,0,21,1.0,96.0
209,47.0,0,21,3.0,96.0
210,35.0,0,21,4.0,96.0
211,47.0,0,21,6.0,96.0
212,73.0,12,10,0.0,96.0
213,73.0,0,10,5.0,96.0
214,76.0,0,10,5.0,96.0
215,76.0,12,12,0.0,96.0
216,66.0,0,42,2.0,96.0
217,66.0,0,21,1.0,96.0
218,45.0,0,21,3.0,96.0
219,33.0,0,21,4.0,96.0
220,45.0,0,21,6.0,96.0
221,74.0,12,10,0.0,96.0
222,74.0,0,10,5.0,96.0
223,73.0,0,10,5.0,96.0
224,73.0,12,12,0.0,96.0
225,67.0,0,21,1.0,96.0
226,64.0,0,21,2.0,96.0
227,43.0,0,21,3.0,96.0
228,31.0,0,21,4.0,96.0
229,43.0,0,21,6.0,96.0
230,71.0,12,10,0.0,96.0
231,71.0,0,10,5.0,96.0
232,62.0,0,10,5.0,96.0
233,62.0,12,12,0.0,96.0
234,69.0,0,21,1.0,96.0
235,62.0,0,21,2.0,96.0
236,42.0,0,21,3.0,96.0
237,30.0,0,21,4.0,96.0
238,42.0,0,21,6.0,96.0
239,64.0,0,10,5.0,96.0
240,64.0,12,12,0.0,96.0
241,66.0,0,10,5.0,96.0
242,66.0,12,12,0.0,96.0
243,72.0,0,21,1.0,96.0
244,57.0,0,21,2.0,96.0
245,40.0,0,21,3.0,96.0
246,28.0,0,21,4.0,96.0
247,40.0,0,21,6.0,96.0
248,69.0,12,10,0.0,96.0
249,69.0,0,10,5.0,96.0
250,72.0,12,6,0.0,96.0
251,69.0,0,21,1.0,96.0
252,54.0,0,21,2.0,96.0
253,38.0,0,21,3.0,96.0
254,26.0,0,21,4.0,96.0
255,72.0,0,21,5.0,96.0
256,38.0,0,21,6.0,96.0
257,66.0,0,21,1.0,96.0
258,50.0,0,21,3.0,96.0
259,38.0,0,21,4.0,96.0
260,50.0,0,21,6.0,96.0
261,67.0,24,21,1.0,96.0
262,52.0,0,21,3.0,96.0
263,40.0,0,21,4.0,96.0
264,52.0,0,21,6.0,96.0
265,72.0,24,63,0.0,96.0
266,50.0,0,63,2.0,96.0
267,72.0,0,63,5.0,96.0
268,69.0,24,21,1.0,96.0
269,54.0,0,21,3.0,96.0
270,42.0,0,21,4.0,96.0
271,54.0,0,21,6.0,96.0
272,71.0,0,10,5.0,96.0
273,71.0,24,12,0.0,96.0
274,67.0,0,21,1.0,96.0
275,62.0,0,21,2.0,96.0
276,55.0,0,21,3.0,96.0
277,43.0,0,21,4.0,96.0
278,55.0,0,21,6.0,96.0
279,74.0,12,10,0.0,96.0
280,74.0,0,10,5.0,96.0
281,79.0,0,10,5.0,96.0
282,79.0,12,12,0.0,96.0
283,71.0,0,21,1.0,96.0
284,64.0,0,21,2.0,96.0
285,52.0,0,21,3.0,96.0
286,40.0,0,21,4.0,96.0
287,52.0,0,21,6.0,96.0
288,78.0,12,10,0.0,96.0
289,78.0,0,10,5.0,96.0
290,76.0,0,10,5.0,96.0
291,76.0,12,12,0.0,96.0
292,71.0,0,21,1.0,96.0
293,64.0,0,21,2.0,96.0
294,55.0,0,21,3.0,96.0
295,43.0,0,21,4.0,96.0
296,55.0,0,21,6.0,96.0
297,74.0,12,10,0.0,96.0
298,74.0,0,10,5.0,96.0
299,73.0,0,10,5.0,96.0
300,73.0,12,12,0.0,96.0
301,69.0,0,21,1.0,96.0
302,64.0,0,21,2.0,96.0
303,57.0,0,21,3.0,96.0
304,45.0,0,21,4.0,96.0
305,57.0,0,21,6.0,96.0
306,71.0,12,10,0.0,96.0
307,71.0,0,10,5.0,96.0
308,74.0,0,10,5.0,96.0
309,74.0,12,12,0.0,96.0
310,69.0,0,21,1.0,96.0
311,64.0,0,21,2.0,96.0
312,59.0,0,21,3.0,96.0
313,47.0,0,21,4.0,96.0
314,59.0,0,21,6.0,96.0
315,73.0,12,10,0.0,96.0
316,73.0,0,10,5.0,96.0
317,71.0,0,10,5.0,96.0
318,71.0,12,12,0.0,96.0
319,69.0,0,21,1.0,96.0
320,64.0,0,21,2.0,96.0
321,61.0,0,21,3.0,96.0
322,49.0,0,21,4.0,96.0
323,61.0,0,21,6.0,96.0
324,69.0,12,10,0.0,96.0
325,69.0,0,10,5.0,96.0
326,78.0,12,21,0.0,96.0
327,69.0,0,21,1.0,96.0
328,62.0,0,21,2.0,96.0
329,62.0,0,21,3.0,96.0
330,50.0,0,21,4.0,96.0
331,78.0,0,21,5.0,96.0
332,62.0,0,21,6.0,96.0
333,79.0,0,6,5.0,96.0
334,78.0,6,6,5.0,96.0
335,79.0,24,21,0.0,96.0
336,71.0,0,21,1.0,96.0
337,62.0,0,21,2.0,96.0
338,55.0,0,21,3.0,96.0
339,43.0,0,21,4.0,96.0
340,55.0,0,21,6.0,96.0
341,79.0,6,10,5.0,96.0
342,78.0,0,6,5.0,96.0
343,76.0,6,6,5.0,96.0
344,74.0,6,6,5.0,96.0
345,76.0,12,21,0.0,96.0
346,69.0,0,21,1.0,96.0
347,61.0,0,21,2.0,96.0
348,57.0,0,21,3.0,96.0
349,45.0,0,21,4.0,96.0
350,57.0,0,21,6.0,96.0
351,76.0,6,5,5.0,96.0
352,50.0,0,21,3.0,96.0
353,38.0,0,21,4.0,96.0
354,50.0,0,21,6.0,96.0
355,42.0,24,21,3.0,96.0
356,30.0,0,21,4.0,96.0
357,42.0,0,21,6.0,96.0
358,74.0,6,63,0.0,96.0
359,69.0,0,63,1.0,96.0
360,66.0,0,63,2.0,96.0
361,74.0,0,63,5.0,96.0
362,45.0,24,21,3.0,96.0
363,33.0,0,21,4.0,96.0
364,45.0,0,21,6.0,96.0
365,69.0,0,12,5.0,96.0
366,67.0,12,12,5.0,96.0
367,66.0,12,10,5.0,96.0
368,38.0,24,42,3.0,96.0
369,26.0,0,42,4.0,96.0
370,38.0,0,42,6.0,96.0
371,74.0,12,10,5.0,96.0
372,69.0,12,10,5.0,96.0
373,67.0,12,10,5.0,96.0
374,66.0,12,12,5.0,96.0
375,50.0,0,21,6.0,96.0
376,64.0,12,12,5.0,96.0
377,62.0,12,10,5.0,96.0
378,54.0,0,21,6.0,96.0
379,69.0,12,10,5.0,96.0
380,66.0,12,10,5.0,96.0
381,50.0,0,21,6.0,96.0
382,64.0,12,10,5.0,96.0
383,62.0,12,10,5.0,96.0
384,47.0,0,21,6.0,96.0
385,64.0,12,10,5.0,96.0
386,66.0,12,10,5.0,96.0
387,50.0,0,21,6.0,96.0
388,69.0,12,10,5.0,96.0
389,73.0,12,10,5.0,96.0
390,47.0,0,21,6.0,96.0
391,74.0,12,10,5.0,96.0
392,55.0,12,10,5.0,96.0
393,52.0,0,21,6.0,96.0
394,64.0,12,10,5.0,96.0
395,74.0,12,10,5.0,96.0
396,56.0,0,21,6.0,96.0
397,78.0,12,10,5.0,96.0
398,76.0,12,10,5.0,96.0
399,52.0,0,21,6.0,96.0
400,74.0,12,10,5.0,96.0
401,73.0,12,10,5.0,96.0
402,71.0,12,10,5.0,96.0
403,69.0,12,10,5.0,96.0
404,57.0,0,42,6.0,96.0
405,45.0,0,42,6.0,96.0
406,81.0,12,10,5.0,96.0
407,76.0,12,10,5.0,96.0
408,74.0,12,10,5.0,96.0
409,73.0,12,12,5.0,96.0
410,57.0,0,21,6.0,96.0
411,71.0,12,12,5.0,96.0
412,69.0,12,10,5.0,96.0
413,61.0,0,21,6.0,96.0
414,76.0,12,10,5.0,96.0
415,73.0,12,10,5.0,96.0
416,57.0,0,21,6.0,96.0
417,71.0,12,10,5.0,96.0
418,69.0,12,10,5.0,96.0
419,54.0,0,21,6.0,96.0
420,71.0,12,10,5.0,96.0
421,73.0,12,10,5.0,96.0
422,57.0,0,21,6.0,96.0
423,76.0,12,12,5.0,96.0
424,80.0,12,12,5.0,96.0
425,54.0,0,21,6.0,96.0
426,81.0,12,10,5.0,96.0
427,63.0,12,10,5.0,96.0
428,59.0,0,21,6.0,96.0
429,71.0,12,10,5.0,96.0
430,78.0,12,10,5.0,96.0
431,63.0,0,21,6.0,96.0
432,81.0,12,10,5.0,96.0
433,80.0,12,10,5.0,96.0
434,59.0,0,21,6.0,96.0
435,78.0,12,10,5.0,96.0
436,80.0,12,10,5.0,96.0
437,81.0,12,10,5.0,96.0
438,83.0,12,10,5.0,96.0
439,64.0,0,42,6.0,96.0
440,52.0,0,42,6.0,96.0
441,80.0,12,10,5.0,96.0
442,76.0,12,10,5.0,96.0
443,74.0,12,10,5.0,96.0
444,73.0,12,10,5.0,96.0
445,57.0,0,21,6.0,96.0
446,69.0,12,10,5.0,96.0
447,73.0,12,10,5.0,96.0
448,45.0,0,21,6.0,96.0
449,76.0,12,10,5.0,96.0
450,81.0,12,10,5.0,96.0
451,49.0,0,21,6.0,96.0
452,76.0,12,10,5.0,96.0
453,78.0,12,12,5.0,96.0
454,79.0,12,12,5.0,96.0
455,81.0,12,10,5.0,96.0
456,50.0,0,42,6.0,96.0
457,38.0,0,42,6.0,96.0
458,78.0,12,10,5.0,96.0
459,74.0,12,10,5.0,96.0
460,73.0,12,10,5.0,96.0
461,71.0,12,10,5.0,96.0
462,50.0,0,21,6.0,96.0
463,73.0,12,10,5.0,96.0
464,74.0,12,10,5.0,96.0
465,54.0,0,21,6.0,96.0
466,71.0,12,10,5.0,96.0
467,68.0,12,10,5.0,96.0
468,57.0,0,21,6.0,96.0
469,66.0,12,10,5.0,96.0
470,64.0,12,10,5.0,96.0
471,56.0,0,21,6.0,96.0
472,66.0,12,10,5.0,96.0
473,68.0,12,10,5.0,96.0
474,52.0,0,21,6.0,96.0
475,69.0,12,10,5.0,96.0
476,71.0,12,10,5.0,96.0
477,47.0,0,21,6.0,96.0
478,73.0,12,10,5.0,96.0
479,74.0,12,10,5.0,96.0
480,44.0,0,21,6.0,96.0
481,76.0,12,10,5.0,96.0
482,78.0,12,10,5.0,96.0
483,40.0,0,21,6.0,96.0
484,80.0,12,10,5.0,96.0
485,81.0,12,10,5.0,96.0
486,38.0,0,21,6.0,96.0
487,80.0,12,10,5.0,96.0
488,81.0,12,10,5.0,96.0
489,37.0,0,21,6.0,96.0
490,76.0,12,10,5.0,96.0
491,73.0,12,10,5.0,96.0
492,38.0,0,21,6.0,96.0
493,69.0,12,10,5.0,96.0
494,64.0,12,10,5.0,96.0
495,40.0,0,21,6.0,96.0
496,68.0,12,10,5.0,96.0
497,69.0,12,10,5.0,96.0
498,45.0,0,21,6.0,96.0
499,64.0,12,10,5.0,96.0
500,57.0,12,10,3.0,96.0
501,45.0,0,10,4.0,96.0
502,61.0,0,10,5.0,96.0
503,45.0,0,10,6.0,96.0
504,55.0,12,10,3.0,96.0
505,43.0,0,10,4.0,96.0
506,64.0,0,10,5.0,96.0
507,43.0,0,10,6.0,96.0
508,54.0,12,10,3.0,96.0
509,42.0,0,10,4.0,96.0
510,42.0,0,10,6.0,96.0
511,57.0,0,21,5.0,96.0
512,52.0,12,10,3.0,96.0
513,40.0,0,10,4.0,96.0
514,40.0,0,10,6.0,96.0
515,62.0,0,10,5.0,96.0
516,62.0,12,12,0.0,96.0
517,64.0,0,10,5.0,96.0
518,64.0,12,12,0.0,96.0
519,66.0,0,10,5.0,96.0
520,66.0,12,12,0.0,96.0
521,66.0,0,42,1.0,96.0
522,57.0,0,42,2.0,96.0
523,50.0,0,42,3.0,96.0
524,38.0,0,42,4.0,96.0
525,38.0,0,42,6.0,96.0
526,69.0,12,10,0.0,96.0
527,69.0,0,10,5.0,96.0
528,74.0,12,6,0.0,96.0
529,74.0,0,21,5.0,96.0
530,74.0,0,10,5.0,96.0
531,74.0,24,12,0.0,96.0
532,69.0,0,21,1.0,96.0
533,57.0,0,21,2.0,96.0
534,54.0,0,21,3.0,96.0
535,42.0,0,21,4.0,96.0
536,54.0,0,21,6.0,96.0
537,73.0,12,10,0.0,96.0
538,73.0,0,10,5.0,96.0
539,76.0,0,10,5.0,96.0
540,76.0,12,12,0.0,96.0
541,67.0,0,21,1.0,96.0
542,61.0,0,21,2.0,96.0
543,52.0,0,21,3.0,96.0
544,40.0,0,21,4.0,96.0
545,52.0,0,21,6.0,96.0
546,74.0,12,10,0.0,96.0
547,74.0,0,10,5.0,96.0
548,73.0,0,10,5.0,96.0
549,73.0,12,12,0.0,96.0
550,69.0,0,21,1.0,96.0
551,66.0,0,21,2.0,96.0
552,50.0,0,21,3.0,96.0
553,38.0,0,21,4.0,96.0
554,50.0,0,21,6.0,96.0
555,71.0,12,10,0.0,96.0
556,71.0,0,10,5.0,96.0
557,69.0,0,10,5.0,96.0
558,69.0,12,12,0.0,96.0
559,71.0,0,10,5.0,96.0
560,71.0,12,12,0.0,96.0
561,73.0,0,10,5.0,96.0
562,73.0,12,12,0.0,96.0
563,69.0,0,42,1.0,96.0
564,64.0,0,42,2.0,96.0
565,49.0,0,42,3.0,96.0
566,37.0,0,42,4.0,96.0
567,49.0,0,42,6.0,96.0
568,76.0,12,10,0.0,96.0
569,76.0,0,10,5.0,96.0
570,79.0,12,6,0.0,96.0
571,79.0,0,21,5.0,96.0
572,69.0,0,21,1.0,96.0
573,64.0,0,21,2.0,96.0
574,49.0,0,21,3.0,96.0
575,37.0,0,21,4.0,96.0
576,49.0,0,21,6.0,96.0
577,71.0,24,21,1.0,96.0
578,62.0,0,21,2.0,96.0
579,47.0,0,21,3.0,96.0
580,35.0,0,21,4.0,96.0
581,47.0,0,21,6.0,96.0
582,79.0,24,63,0.0,96.0
583,79.0,0,63,5.0,96.0
584,73.0,24,21,1.0,96.0
585,64.0,0,21,2.0,96.0
586,45.0,0,21,3.0,96.0
587,33.0,0,21,4.0,96.0
588,45.0,0,21,6.0,96.0
589,78.0,0,10,5.0,96.0
590,78.0,24,12,0.0,96.0
591,74.0,0,21,1.0,96.0
592,50.0,0,21,3.0,96.0
593,38.0,0,21,4.0,96.0
594,50.0,0,21,6.0,96.0
595,76.0,12,10,0.0,96.0
596,76.0,0,10,5.0,96.0
597,79.0,0,10,5.0,96.0
598,79.0,12,12,0.0,96.0
599,57.0,0,42,2.0,96.0
600,69.0,0,21,1.0,96.0
601,49.0,0,21,3.0,96.0
602,37.0,0,21,4.0,96.0
603,49.0,0,21,6.0,96.0
604,78.0,12,10,0.0,96.0
605,78.0,0,10,5.0,96.0
606,76.0,0,10,5.0,96.0
607,76.0,12,12,0.0,96.0
608,68.0,0,21,1.0,96.0
609,62.0,0,21,2.0,96.0
610,47.0,0,21,3.0,96.0
611,35.0,0,21,4.0,96.0
612,47.0,0,21,6.0,96.0
613,74.0,12,10,0.0,96.0
614,74.0,0,10,5.0,96.0
615,73.0,0,10,5.0,96.0
616,73.0,12,12,0.0,96.0
617,69.0,0,21,1.0,96.0
618,45.0,0,21,3.0,96.0
619,33.0,0,21,4.0,96.0
620,45.0,0,21,6.0,96.0
621,71.0,12,10,0.0,96.0
622,71.0,0,10,5.0,96.0
623,74.0,0,10,5.0,96.0
624,74.0,12,12,0.0,96.0
625,64.0,0,42,2.0,96.0
626,64.0,0,21,1.0,96.0
627,43.0,0,21,3.0,96.0
628,31.0,0,21,4.0,96.0
629,43.0,0,21,6.0,96.0
630,73.0,12,10,0.0,96.0
631,73.0,0,10,5.0,96.0
632,71.0,0,10,5.0,96.0
633,71.0,12,12,0.0,96.0
634,66.0,0,21,1.0,96.0
635,62.0,0,21,2.0,96.0
636,42.0,0,21,3.0,96.0
637,30.0,0,21,4.0,96.0
638,42.0,0,21,6.0,96.0
639,69.0,12,10,0.0,96.0
640,69.0,0,10,5.0,96.0
641,67.0,0,10,5.0,96.0
642,67.0,12,12,0.0,96.0
643,67.0,0,21,1.0,96.0
644,61.0,0,21,2.0,96.0
645,40.0,0,21,3.0,96.0
646,28.0,0,21,4.0,96.0
647,40.0,0,21,6.0,96.0
648,66.0,12,10,0.0,96.0
649,66.0,0,10,5.0,96.0
650,69.0,0,10,5.0,96.0
651,69.0,12,12,0.0,96.0
652,64.0,0,21,1.0,96.0
653,64.0,0,21,2.0,96.0
654,49.0,0,21,3.0,96.0
655,37.0,0,21,4.0,96.0
656,49.0,0,21,6.0,96.0
657,67.0,12,10,0.0,96.0
658,67.0,0,10,5.0,96.0
659,66.0,0,10,5.0,96.0
660,66.0,12,12,0.0,96.0
661,62.0,0,21,1.0,96.0
662,57.0,0,21,2.0,96.0
663,50.0,0,21,3.0,96.0
664,38.0,0,21,4.0,96.0
665,50.0,0,21,6.0,96.0
666,67.0,12,10,0.0,96.0
667,67.0,0,10,5.0,96.0
668,64.0,0,10,5.0,96.0
669,64.0,12,12,0.0,96.0
670,61.0,0,21,1.0,96.0
671,45.0,0,21,3.0,96.0
672,33.0,0,21,4.0,96.0
673,45.0,0,21,6.0,96.0
674,62.0,0,10,5.0,96.0
675,62.0,12,12,0.0,96.0
676,57.0,0,31,2.0,96.0
677,64.0,12,10,0.0,96.0
678,64.0,0,10,5.0,96.0
679,64.0,0,21,1.0,96.0
680,49.0,0,21,3.0,96.0
681,37.0,0,21,4.0,96.0
682,49.0,0,21,6.0,96.0
683,67.0,12,10,0.0,96.0
684,59.0,0,10,2.0,96.0
685,67.0,0,10,5.0,96.0
686,66.0,12,10,0.0,96.0
687,57.0,0,10,2.0,96.0
688,66.0,0,10,5.0,96.0
689,61.0,0,21,1.0,96.0
690,45.0,0,21,3.0,96.0
691,33.0,0,21,4.0,96.0
692,45.0,0,21,6.0,96.0
693,64.0,12,10,0.0,96.0
694,55.0,0,10,2.0,96.0
695,64.0,0,10,5.0,96.0
696,62.0,0,10,5.0,96.0
697,62.0,12,12,0.0,96.0
698,57.0,0,21,1.0,96.0
699,54.0,0,21,2.0,96.0
700,38.0,0,21,3.0,96.0
701,26.0,0,21,4.0,96.0
702,38.0,0,21,6.0,96.0
703,64.0,0,10,5.0,96.0
704,64.0,12,12,0.0,96.0
705,66.0,0,10,5.0,96.0
706,66.0,12,12,0.0,96.0
707,69.0,0,21,1.0,96.0
708,62.0,0,21,2.0,96.0
709,50.0,0,21,3.0,96.0
710,38.0,0,21,4.0,96.0
711,50.0,0,21,6.0,96.0
712,69.0,12,10,0.0,96.0
713,69.0,0,10,5.0,96.0
714,74.0,12,6,0.0,96.0
715,69.0,0,21,1.0,96.0
716,66.0,0,21,2.0,96.0
717,49.0,0,21,3.0,96.0
718,37.0,0,21,4.0,96.0
719,74.0,0,21,5.0,96.0
720,49.0,0,21,6.0,96.0
721,74.0,0,10,5.0,96.0
722,74.0,24,12,0.0,96.0
723,71.0,0,21,1.0,96.0
724,47.0,0,21,3.0,96.0
725,35.0,0,21,4.0,96.0
726,47.0,0,21,6.0,96.0
727,73.0,12,10,0.0,96.0
728,73.0,0,10,5.0,96.0
729,76.0,0,10,5.0,96.0
730,76.0,12,12,0.0,96.0
731,66.0,0,42,2.0,96.0
732,66.0,0,21,1.0,96.0
733,45.0,0,21,3.0,96.0
734,33.0,0,21,4.0,96.0
735,45.0,0,21,6.0,96.0
736,74.0,12,10,0.0,96.0
737,74.0,0,10,5.0,96.0
738,73.0,0,10,5.0,96.0
739,73.0,12,12,0.0,96.0
740,67.0,0,21,1.0,96.0
741,64.0,0,21,2.0,96.0
742,43.0,0,21,3.0,96.0
743,31.0,0,21,4.0,96.0
744,43.0,0,21,6.0,96.0
745,71.0,12,10,0.0,96.0
746,71.0,0,10,5.0,96.0
747,62.0,0,10,5.0,96.0
748,62.0,12,12,0.0,96.0
749,69.0,0,21,1.0,96.0
750,62.0,0,21,2.0,96.0
751,42.0,0,21,3.0,96.0
752,30.0,0,21,4.0,96.0
753,42.0,0,21,6.0,96.0
754,64.0,0,10,5.0,96.0
755,64.0,12,12,0.0,96.0
756,66.0,0,10,5.0,96.0
757,66.0,12,12,0.0,96.0
758,72.0,0,21,1.0,96.0
759,57.0,0,21,2.0,96.0
760,40.0,0,21,3.0,96.0
761,28.0,0,21,4.0,96.0
762,40.0,0,21,6.0,96.0
763,69.0,12,10,0.0,96.0
764,69.0,0,10,5.0,96.0
765,72.0,12,6,0.0,96.0
766,69.0,0,21,1.0,96.0
767,54.0,0,21,2.0,96.0
768,38.0,0,21,3.0,96.0
769,26.0,0,21,4.0,96.0
770,72.0,0,21,5.0,96.0
771,38.0,0,21,6.0,96.0
772,66.0,0,21,1.0,96.0
773,50.0,0,21,3.0,96.0
774,38.0,0,21,4.0,96.0
775,50.0,0,21,6.0,96.0
776,67.0,24,21,1.0,96.0
777,52.0,0,21,3.0,96.0
778,40.0,0,21,4.0,96.0
779,52.0,0,21,6.0,96.0
780,72.0,24,63,0.0,96.0
781,50.0,0,63,2.0,96.0
782,72.0,0,63,5.0,96.0
783,69.0,24,21,1.0,96.0
784,54.0,0,21,3.0,96.0
785,42.0,0,21,4.0,96.0
786,54.0,0,21,6.0,96.0
787,71.0,0,10,5.0,96.0
788,71.0,24,12,0.0,96.0
789,67.0,0,21,1.0,96.0
790,62.0,0,21,2.0,96.0
791,55.0,0,21,3.0,96.0
792,43.0,0,21,4.0,96.0
793,55.0,0,21,6.0,96.0
794,74.0,12,10,0.0,96.0
795,74.0,0,10,5.0,96.0
796,79.0,0,10,5.0,96.0
797,79.0,12,12,0.0,96.0
798,71.0,0,21,1.0,96.0
799,64.0,0,21,2.0,96.0
800,52.0,0,21,3.0,96.0
801,40.0,0,21,4.0,96.0
802,52.0,0,21,6.0,96.0
803,78.0,12,10,0.0,96.0
804,78.0,0,10,5.0,96.0
805,76.0,0,10,5.0,96.0
806,76.0,12,12,0.0,96.0
807,71.0,0,21,1.0,96.0
808,64.0,0,21,2.0,96.0
809,55.0,0,21,3.0,96.0
810,43.0,0,21,4.0,96.0
811,55.0,0,21,6.0,96.0
812,74.0,12,10,0.0,96.0
813,74.0,0,10,5.0,96.0
814,73.0,0,10,5.0,96.0
815,73.0,12,12,0.0,96.0
816,69.0,0,21,1.0,96.0
817,64.0,0,21,2.0,96.0
818,57.0,0,21,3.0,96.0
819,45.0,0,21,4.0,96.0
820,57.0,0,21,6.0,96.0
821,71.0,12,10,0.0,96.0
822,71.0,0,10,5.0,96.0
823,74.0,0,10,5.0,96.0
824,74.0,12,12,0.0,96.0
825,69.0,0,21,1.0,96.0
826,64.0,0,21,2.0,96.0
827,59.0,0,21,3.0,96.0
828,47.0,0,21,4.0,96.0
829,59.0,0,21,6.0,96.0
830,73.0,12,10,0.0,96.0
831,73.0,0,10,5.0,96.0
832,71.0,0,10,5.0,96.0
833,71.0,12,12,0.0,96.0
834,69.0,0,21,1.0,96.0
835,64.0,0,21,2.0,96.0
836,61.0,0,21,3.0,96.0
837,49.0,0,21,4.0,96.0
838,61.0,0,21,6.0,96.0
839,69.0,12,10,0.0,96.0
840,69.0,0,10,5.0,96.0
841,78.0,12,21,0.0,96.0
842,69.0,0,21,1.0,96.0
843,62.0,0,21,2.0,96.0
844,62.0,0,21,3.0,96.0
845,50.0,0,21,4.0,96.0
846,78.0,0,21,5.0,96.0
847,62.0,0,21,6.0,96.0
848,79.0,24,21,0.0,96.0
849,71.0,0,21,1.0,96.0
850,62.0,0,21,2.0,96.0
851,55.0,0,21,3.0,96.0
852,43.0,0,21,4.0,96.0
853,79.0,0,21,5.0,96.0
854,55.0,0,21,6.0,96.0
855,76.0,24,21,0.0,96.0
856,69.0,0,21,1.0,96.0
857,61.0,0,21,2.0,96.0
858,57.0,0,21,3.0,96.0
859,45.0,0,21,4.0,96.0
860,76.0,0,21,5.0,96.0
861,57.0,0,21,6.0,96.0
862,50.0,0,21,3.0,96.0
863,38.0,0,21,4.0,96.0
864,50.0,0,21,6.0,96.0
865,74.0,24,42,0.0,96.0
866,66.0,0,42,1.0,96.0
867,57.0,0,42,2.0,96.0
868,52.0,24,21,3.0,96.0
869,40.0,0,21,4.0,96.0
870,52.0,0,21,6.0,96.0
871,74.0,0,63,5.0,96.0
872,54.0,24,21,3.0,96.0
873,42.0,0,21,4.0,96.0
874,54.0,0,21,6.0,96.0
875,78.0,0,12,5.0,96.0
876,47.0,0,21,6.0,96.0
877,71.0,24,24,0.0,80.0
878,62.0,0,24,1.0,80.0
879,59.0,0,24,2.0,80.0
880,76.0,12,12,5.0,96.0
881,74.0,0,10,5.0,96.0
882,47.0,0,42,3.0,80.0
883,35.0,0,42,4.0,80.0
884,79.0,12,6,5.0,96.0
885,59.0,0,21,6.0,96.0
886,71.0,12,24,0.0,80.0
887,62.0,0,24,1.0,80.0
888,59.0,0,24,2.0,80.0
889,78.0,0,6,5.0,96.0
890,76.0,12,6,5.0,96.0
891,71.0,12,21,0.0,80.0
892,62.0,0,21,1.0,80.0
893,59.0,0,21,2.0,80.0
894,47.0,0,21,6.0,96.0
895,74.0,0,12,5.0,96.0
896,50.0,0,21,6.0,96.0
897,71.0,12,24,0.0,80.0
898,66.0,0,24,1.0,80.0
899,62.0,0,24,2.0,80.0
900,73.0,12,12,5.0,96.0
901,71.0,0,12,5.0,96.0
902,62.0,0,21,6.0,96.0
903,71.0,12,24,0.0,80.0
904,66.0,0,24,1.0,80.0
905,62.0,0,24,2.0,80.0
906,70.0,12,12,5.0,96.0
907,71.0,0,10,5.0,96.0
908,74.0,12,3,5.0,96.0
909,71.0,12,21,0.0,80.0
910,66.0,0,21,1.0,80.0
911,62.0,0,21,2.0,80.0
912,50.0,0,21,6.0,96.0
913,73.0,0,12,5.0,96.0
914,52.0,0,21,6.0,96.0
915,71.0,12,24,0.0,80.0
916,67.0,0,24,1.0,80.0
917,64.0,0,24,2.0,80.0
918,74.0,12,12,5.0,96.0
919,76.0,0,10,5.0,96.0
920,79.0,12,6,5.0,96.0
921,64.0,0,21,6.0,96.0
922,71.0,12,24,0.0,80.0
923,67.0,0,24,1.0,80.0
924,64.0,0,24,2.0,80.0
925,78.0,0,6,5.0,96.0
926,76.0,12,6,5.0,96.0
927,76.0,12,21,0.0,80.0
928,67.0,0,21,1.0,80.0
929,64.0,0,21,2.0,80.0
930,52.0,0,21,6.0,96.0
931,70.0,0,10,5.0,96.0
932,54.0,0,21,6.0,96.0
933,71.0,12,10,5.0,96.0
934,73.0,12,24,0.0,80.0
935,66.0,0,24,1.0,80.0
936,66.0,0,24,2.0,80.0
937,73.0,0,10,5.0,96.0
938,66.0,0,21,6.0,96.0
939,70.0,12,10,5.0,96.0
940,73.0,12,24,0.0,80.0
941,70.0,0,24,1.0,80.0
942,66.0,0,24,2.0,80.0
943,66.0,0,10,5.0,96.0
944,73.0,12,21,0.0,80.0
945,70.0,0,21,1.0,80.0
946,66.0,0,21,2.0,80.0
947,54.0,0,21,6.0,96.0
948,64.0,12,10,5.0,96.0
949,62.0,0,10,5.0,96.0
950,59.0,0,21,2.0,80.0
951,47.0,0,21,6.0,96.0
952,66.0,12,10,5.0,96.0
953,71.0,0,10,5.0,96.0
954,62.0,12,21,2.0,80.0
955,50.0,0,21,6.0,96.0
956,73.0,12,10,5.0,96.0
957,74.0,0,10,5.0,96.0
958,66.0,12,21,2.0,80.0
959,54.0,0,21,6.0,96.0
960,71.0,12,10,5.0,96.0
961,67.0,0,12,5.0,96.0
962,64.0,12,21,2.0,80.0
963,52.0,0,21,6.0,96.0
964,69.0,12,12,5.0,96.0
965,71.0,0,10,5.0,96.0
966,67.0,12,3,5.0,96.0
967,67.0,12,21,2.0,80.0
968,55.0,0,21,6.0,96.0
969,64.0,0,3,5.0,96.0
970,74.0,12,132,0.0,80.0
971,71.0,0,132,1.0,80.0
972,62.0,12,3,5.0,96.0
973,71.0,12,21,2.0,80.0
974,59.0,0,21,6.0,96.0
975,61.0,0,10,5.0,96.0
976,57.0,0,21,2.0,80.0
977,45.0,0,21,6.0,96.0
978,64.0,12,10,5.0,96.0
979,69.0,0,10,5.0,96.0
980,61.0,12,21,2.0,80.0
981,49.0,0,21,6.0,96.0
982,71.0,12,10,5.0,96.0
983,73.0,0,10,5.0,96.0
984,73.0,12,63,0.0,80.0
985,64.0,12,21,2.0,80.0
986,52.0,0,21,6.0,96.0
987,69.0,12,10,5.0,96.0
988,66.0,0,12,5.0,96.0
989,62.0,0,21,2.0,80.0
990,50.0,0,21,6.0,96.0
991,67.0,12,12,5.0,96.0
992,69.0,0,10,5.0,96.0
993,69.0,0,108,1.0,80.0
994,66.0,12,3,5.0,96.0
995,66.0,12,21,2.0,80.0
996,54.0,0,21,6.0,96.0
997,62.0,0,3,5.0,96.0
998,74.0,12,63,0.0,80.0
999,61.0,12,3,5.0,96.0
1000,66.0,12,21,1.0,80.0
1001,69.0,0,21,2.0,80.0
1002,57.0,0,21,6.0,96.0
1003,59.0,0,21,6.0,96.0
1004,62.0,12,10,5.0,96.0
1005,74.0,12,24,0.0,80.0
1006,66.0,0,24,1.0,80.0
1007,59.0,0,24,2.0,80.0
1008,66.0,0,10,5.0,96.0
1009,71.0,12,10,5.0,96.0
1010,74.0,12,24,0.0,80.0
1011,66.0,0,24,1.0,80.0
1012,59.0,0,24,2.0,80.0
1013,73.0,0,10,5.0,96.0
1014,74.0,12,21,0.0,80.0
1015,66.0,0,21,1.0,80.0
1016,59.0,0,21,2.0,80.0
1017,74.0,12,10,5.0,96.0
1018,58.0,0,21,6.0,96.0
1019,61.0,12,10,5.0,96.0
1020,73.0,12,24,0.0,80.0
1021,66.0,0,24,1.0,80.0
1022,58.0,0,24,2.0,80.0
1023,66.0,0,10,5.0,96.0
1024,73.0,12,10,5.0,96.0
1025,73.0,12,24,0.0,80.0
1026,66.0,0,24,1.0,80.0
1027,58.0,0,24,2.0,80.0
1028,74.0,0,10,5.0,96.0
1029,73.0,12,21,0.0,80.0
1030,66.0,0,21,1.0,80.0
1031,58.0,0,21,2.0,80.0
1032,76.0,12,10,5.0,96.0
1033,59.0,0,21,6.0,96.0
1034,66.0,12,10,5.0,96.0
1035,74.0,12,24,0.0,80.0
1036,66.0,0,24,1.0,80.0
1037,59.0,0,24,2.0,80.0
1038,71.0,0,10,5.0,96.0
1039,74.0,12,10,5.0,96.0
1040,74.0,12,24,0.0,80.0
1041,66.0,0,24,1.0,80.0
1042,59.0,0,24,2.0,80.0
1043,76.0,0,10,5.0,96.0
1044,74.0,12,21,0.0,80.0
1045,66.0,0,21,1.0,80.0
1046,59.0,0,21,2.0,80.0
1047,78.0,12,10,5.0,96.0
1048,61.0,0,21,6.0,96.0
1049,64.0,12,10,5.0,96.0
1050,76.0,12,24,0.0,80.0
1051,70.0,0,24,1.0,80.0
1052,61.0,0,24,2.0,80.0
1053,70.0,0,10,5.0,96.0
1054,76.0,12,10,5.0,96.0
1055,76.0,12,24,0.0,80.0
1056,70.0,0,24,1.0,80.0
1057,61.0,0,24,2.0,80.0
1058,78.0,0,10,5.0,96.0
1059,76.0,12,21,0.0,80.0
1060,70.0,0,21,1.0,80.0
1061,61.0,0,21,2.0,80.0
1062,79.0,12,10,5.0,96.0
1063,78.0,0,10,5.0,96.0
1064,62.0,0,21,6.0,96.0
1065,76.0,12,10,5.0,96.0
1066,78.0,12,24,0.0,80.0
1067,71.0,0,24,1.0,80.0
1068,62.0,0,24,2.0,80.0
1069,74.0,0,10,5.0,96.0
1070,78.0,12,21,0.0,80.0
1071,50.0,0,21,6.0,96.0
1072,73.0,12,10,5.0,96.0
1073,71.0,0,24,1.0,80.0
1074,62.0,0,24,2.0,80.0
1075,71.0,0,10,5.0,96.0
1076,71.0,0,21,1.0,80.0
1077,62.0,0,21,2.0,80.0
1078,62.0,0,21,6.0,96.0
1079,69.0,12,10,5.0,96.0
1080,67.0,0,10,5.0,96.0
1081,78.0,12,42,0.0,80.0
1082,71.0,12,21,1.0,80.0
1083,64.0,0,21,6.0,96.0
1084,64.0,0,24,2.0,80.0
1085,78.0,12,12,5.0,96.0
1086,79.0,12,10,0.0,80.0
1087,71.0,0,10,1.0,80.0
1088,76.0,0,12,5.0,96.0
1089,52.0,0,21,6.0,96.0
1090,78.0,12,10,0.0,80.0
1091,69.0,0,10,1.0,80.0
1092,64.0,0,24,2.0,80.0
1093,74.0,0,12,5.0,96.0
1094,73.0,0,12,5.0,96.0
1095,67.0,0,21,1.0,80.0
1096,64.0,0,21,2.0,80.0
1097,64.0,0,21,6.0,96.0
1098,71.0,12,10,5.0,96.0
1099,76.0,12,31,0.0,80.0
1100,70.0,0,10,5.0,96.0
1101,66.0,12,21,1.0,80.0
1102,66.0,0,21,6.0,96.0
1103,79.0,12,10,0.0,80.0
1104,76.0,0,10,5.0,96.0
1105,66.0,0,24,2.0,80.0
1106,74.0,0,10,5.0,96.0
1107,78.0,12,21,0.0,80.0
1108,66.0,0,21,1.0,80.0
1109,66.0,0,21,2.0,80.0
1110,54.0,0,21,6.0,96.0
1111,73.0,12,10,5.0,96.0
1112,74.0,12,6,0.0,80.0
1113,71.0,0,10,5.0,96.0
1114,73.0,6,6,0.0,80.0
1115,74.0,6,6,0.0,80.0
1116,64.0,0,21,1.0,80.0
1117,54.0,0,21,2.0,80.0
1118,66.0,0,21,6.0,96.0
1119,70.0,0,10,5.0,96.0
1120,73.0,6,5,0.0,80.0
1121,71.0,0,10,5.0,96.0
1122,66.0,12,10,5.0,96.0
1123,59.0,0,31,6.0,96.0
1124,64.0,12,10,5.0,96.0
1125,47.0,12,10,3.0,96.0
1126,35.0,0,10,4.0,96.0
1127,62.0,0,10,5.0,96.0
1128,47.0,0,10,6.0,96.0
1129,45.0,12,10,3.0,96.0
1130,33.0,0,10,4.0,96.0
1131,61.0,0,10,5.0,96.0
1132,45.0,0,10,6.0,96.0
1133,71.0,6,63,0.0,80.0
1134,62.0,0,63,1.0,80.0
1135,59.0,0,63,2.0,80.0
1136,43.0,12,10,3.0,96.0
1137,31.0,0,10,4.0,96.0
1138,59.0,0,10,5.0,96.0
1139,43.0,0,10,6.0,96.0
1140,62.0,0,10,5.0,96.0
1141,62.0,12,12,0.0,96.0
1142,42.0,0,21,3.0,96.0
1143,30.0,0,21,4.0,96.0
1144,42.0,0,21,6.0,96.0
1145,64.0,0,10,5.0,96.0
1146,64.0,12,12,0.0,96.0
1147,66.0,0,10,5.0,96.0
1148,66.0,12,12,0.0,96.0
1149,66.0,0,42,1.0,96.0
1150,57.0,0,42,2.0,96.0
1151,38.0,0,21,3.0,96.0
1152,26.0,0,21,4.0,96.0
1153,38.0,0,21,6.0,96.0
1154,69.0,12,10,0.0,96.0
1155,69.0,0,10,5.0,96.0
1156,74.0,12,6,0.0,96.0
1157,74.0,0,21,5.0,96.0
1158,74.0,0,10,5.0,96.0
1159,74.0,24,12,0.0,96.0
1160,69.0,0,21,1.0,96.0
1161,57.0,0,21,2.0,96.0
1162,54.0,0,21,3.0,96.0
1163,42.0,0,21,4.0,96.0
1164,54.0,0,21,6.0,96.0
1165,73.0,12,10,0.0,96.0
1166,73.0,0,10,5.0,96.0
1167,76.0,0,10,5.0,96.0
1168,76.0,12,12,0.0,96.0
1169,67.0,0,21,1.0,96.0
1170,61.0,0,21,2.0,96.0
1171,52.0,0,21,3.0,96.0
1172,40.0,0,21,4.0,96.0
1173,52.0,0,21,6.0,96.0
1174,74.0,12,10,0.0,96.0
1175,74.0,0,10,5.0,96.0
1176,73.0,0,10,5.0,96.0
1177,73.0,12,12,0.0,96.0
1178,69.0,0,21,1.0,96.0
1179,66.0,0,21,2.0,96.0
1180,50.0,0,21,3.0,96.0
1181,38.0,0,21,4.0,96.0
1182,50.0,0,21,6.0,96.0
1183,71.0,12,10,0.0,96.0
1184,71.0,0,10,5.0,96.0
1185,69.0,0,10,5.0,96.0
1186,69.0,12,12,0.0,96.0
1187,49.0,0,21,3.0,96.0
1188,37.0,0,21,4.0,96.0
1189,49.0,0,21,6.0,96.0
1190,71.0,0,10,5.0,96.0
1191,71.0,12,12,0.0,96.0
1192,73.0,0,10,5.0,96.0
1193,73.0,12,12,0.0,96.0
1194,69.0,0,42,1.0,96.0
1195,64.0,0,42,2.0,96.0
1196,57.0,0,21,3.0,96.0
1197,45.0,0,21,4.0,96.0
1198,57.0,0,21,6.0,96.0
1199,76.0,12,10,0.0,96.0
1200,76.0,0,10,5.0,96.0
1201,79.0,12,21,0.0,96.0
1202,79.0,0,21,5.0,96.0
1203,69.0,0,21,1.0,96.0
1204,64.0,0,21,2.0,96.0
1205,49.0,0,21,3.0,96.0
1206,37.0,0,21,4.0,96.0
1207,49.0,0,21,6.0,96.0
1208,71.0,24,21,1.0,96.0
1209,62.0,0,21,2.0,96.0
1210,47.0,0,21,3.0,96.0
1211,35.0,0,21,4.0,96.0
1212,47.0,0,21,6.0,96.0
1213,79.0,24,63,0.0,96.0
1214,79.0,0,63,5.0,96.0
1215,73.0,24,21,1.0,96.0
1216,64.0,0,21,2.0,96.0
1217,45.0,0,21,3.0,96.0
1218,33.0,0,21,4.0,96.0
1219,45.0,0,21,6.0,96.0
1220,78.0,0,10,5.0,96.0
1221,78.0,24,12,0.0,96.0
1222,74.0,0,21,1.0,96.0
1223,50.0,0,21,3.0,96.0
1224,38.0,0,21,4.0,96.0
1225,50.0,0,21,6.0,96.0
1226,76.0,12,10,0.0,96.0
1227,76.0,0,10,5.0,96.0
1228,79.0,0,10,5.0,96.0
1229,79.0,12,12,0.0,96.0
1230,57.0,0,42,2.0,96.0
1231,69.0,0,21,1.0,96.0
1232,49.0,0,21,3.0,96.0
1233,37.0,0,21,4.0,96.0
1234,49.0,0,21,6.0,96.0
1235,78.0,12,10,0.0,96.0
1236,78.0,0,10,5.0,96.0
1237,76.0,0,10,5.0,96.0
1238,76.0,12,12,0.0,96.0
1239,68.0,0,21,1.0,96.0
1240,62.0,0,21,2.0,96.0
1241,47.0,0,21,3.0,96.0
1242,35.0,0,21,4.0,96.0
1243,47.0,0,21,6.0,96.0
1244,74.0,12,10,0.0,96.0
1245,74.0,0,10,5.0,96.0
1246,73.0,0,10,5.0,96.0
1247,73.0,12,12,0.0,96.0
1248,69.0,0,21,1.0,96.0
1249,45.0,0,21,3.0,96.0
1250,33.0,0,21,4.0,96.0
1251,45.0,0,21,6.0,96.0
1252,71.0,12,10,0.0,96.0
1253,71.0,0,10,5.0,96.0
1254,74.0,0,10,5.0,96.0
1255,74.0,12,12,0.0,96.0
1256,64.0,0,42,2.0,96.0
1257,64.0,0,21,1.0,96.0
1258,43.0,0,21,3.0,96.0
1259,31.0,0,21,4.0,96.0
1260,43.0,0,21,6.0,96.0
1261,73.0,12,10,0.0,96.0
1262,73.0,0,10,5.0,96.0
1263,71.0,0,10,5.0,96.0
1264,71.0,12,12,0.0,96.0
1265,66.0,0,21,1.0,96.0
1266,62.0,0,21,2.0,96.0
1267,42.0,0,21,3.0,96.0
1268,30.0,0,21,4.0,96.0
1269,42.0,0,21,6.0,96.0
1270,69.0,12,10,0.0,96.0
1271,69.0,0,10,5.0,96.0
1272,67.0,0,10,5.0,96.0
1273,67.0,12,12,0.0,96.0
1274,67.0,0,21,1.0,96.0
1275,61.0,0,21,2.0,96.0
1276,40.0,0,21,3.0,96.0
1277,28.0,0,21,4.0,96.0
1278,40.0,0,21,6.0,96.0
1279,66.0,12,10,0.0,96.0
1280,66.0,0,10,5.0,96.0
1281,69.0,0,10,5.0,96.0
1282,69.0,12,12,0.0,96.0
1283,64.0,0,21,1.0,96.0
1284,64.0,0,21,2.0,96.0
1285,49.0,0,21,3.0,96.0
1286,37.0,0,21,4.0,96.0
1287,49.0,0,21,6.0,96.0
1288,67.0,12,10,0.0,96.0
1289,67.0,0,10,5.0,96.0
1290,66.0,0,10,5.0,96.0
1291,66.0,12,12,0.0,96.0
1292,62.0,0,21,1.0,96.0
1293,57.0,0,21,2.0,96.0
1294,50.0,0,21,3.0,96.0
1295,38.0,0,21,4.0,96.0
1296,50.0,0,21,6.0,96.0
1297,67.0,12,10,0.0,96.0
1298,67.0,0,10,5.0,96.0
1299,64.0,0,10,5.0,96.0
1300,64.0,12,12,0.0,96.0
1301,61.0,0,21,1.0,96.0
1302,45.0,0,21,3.0,96.0
1303,33.0,0,21,4.0,96.0
1304,45.0,0,21,6.0,96.0
1305,62.0,0,10,5.0,96.0
1306,62.0,12,12,0.0,96.0
1307,57.0,0,31,2.0,96.0
1308,64.0,12,10,0.0,96.0
1309,64.0,0,10,5.0,96.0
1310,64.0,0,21,1.0,96.0
1311,49.0,0,21,3.0,96.0
1312,37.0,0,21,4.0,96.0
1313,49.0,0,21,6.0,96.0
1314,67.0,12,10,0.0,96.0
1315,59.0,0,10,2.0,96.0
1316,67.0,0,10,5.0,96.0
1317,66.0,12,10,0.0,96.0
1318,57.0,0,10,2.0,96.0
1319,66.0,0,10,5.0,96.0
1320,61.0,0,21,1.0,96.0
1321,45.0,0,21,3.0,96.0
1322,33.0,0,21,4.0,96.0
1323,45.0,0,21,6.0,96.0
1324,64.0,12,10,0.0,96.0
1325,55.0,0,10,2.0,96.0
1326,64.0,0,10,5.0,96.0
1327,62.0,0,10,5.0,96.0
1328,62.0,12,12,0.0,96.0
1329,57.0,0,21,1.0,96.0
1330,54.0,0,21,2.0,96.0
1331,38.0,0,21,3.0,96.0
1332,26.0,0,21,4.0,96.0
1333,38.0,0,21,6.0,96.0
1334,64.0,0,10,5.0,96.0
1335,64.0,12,12,0.0,96.0
1336,66.0,0,10,5.0,96.0
1337,66.0,12,12,0.0,96.0
1338,69.0,0,21,1.0,96.0
1339,62.0,0,21,2.0,96.0
1340,50.0,0,21,3.0,96.0
1341,38.0,0,21,4.0,96.0
1342,50.0,0,21,6.0,96.0
1343,69.0,12,10,0.0,96.0
1344,69.0,0,10,5.0,96.0
1345,74.0,12,6,0.0,96.0
1346,69.0,0,21,1.0,96.0
1347,66.0,0,21,2.0,96.0
1348,49.0,0,21,3.0,96.0
1349,37.0,0,21,4.0,96.0
1350,74.0,0,21,5.0,96.0
1351,49.0,0,21,6.0,96.0
1352,74.0,0,10,5.0,96.0
1353,74.0,24,12,0.0,96.0
1354,71.0,0,21,1.0,96.0
1355,47.0,0,21,3.0,96.0
1356,35.0,0,21,4.0,96.0
1357,47.0,0,21,6.0,96.0
1358,73.0,12,10,0.0,96.0
1359,73.0,0,10,5.0,96.0
1360,76.0,0,10,5.0,96.0
1361,76.0,12,12,0.0,96.0
1362,66.0,0,42,2.0,96.0
1363,66.0,0,21,1.0,96.0
1364,45.0,0,21,3.0,96.0
1365,33.0,0,21,4.0,96.0
1366,45.0,0,21,6.0,96.0
1367,74.0,12,10,0.0,96.0
1368,74.0,0,10,5.0,96.0
1369,73.0,0,10,5.0,96.0
1370,73.0,12,12,0.0,96.0
1371,67.0,0,21,1.0,96.0
1372,64.0,0,21,2.0,96.0
1373,43.0,0,21,3.0,96.0
1374,31.0,0,21,4.0,96.0
1375,43.0,0,21,6.0,96.0
1376,71.0,12,10,0.0,96.0
1377,71.0,0,10,5.0,96.0
1378,62.0,0,10,5.0,96.0
1379,62.0,12,12,0.0,96.0
1380,69.0,0,21,1.0,96.0
1381,62.0,0,21,2.0,96.0
1382,42.0,0,21,3.0,96.0
1383,30.0,0,21,4.0,96.0
1384,42.0,0,21,6.0,96.0
1385,64.0,0,10,5.0,96.0
1386,64.0,12,12,0.0,96.0
1387,66.0,0,10,5.0,96.0
1388,66.0,12,12,0.0,96.0
1389,72.0,0,21,1.0,96.0
1390,57.0,0,21,2.0,96.0
1391,40.0,0,21,3.0,96.0
1392,28.0,0,21,4.0,96.0
1393,40.0,0,21,6.0,96.0
1394,69.0,12,10,0.0,96.0
1395,69.0,0,10,5.0,96.0
1396,72.0,12,6,0.0,96.0
1397,69.0,0,21,1.0,96.0
1398,54.0,0,21,2.0,96.0
1399,38.0,0,21,3.0,96.0
1400,26.0,0,21,4.0,96.0
1401,72.0,0,21,5.0,96.0
1402,38.0,0,21,6.0,96.0
1403,66.0,0,21,1.0,96.0
1404,50.0,0,21,3.0,96.0
1405,38.0,0,21,4.0,96.0
1406,50.0,0,21,6.0,96.0
1407,67.0,24,21,1.0,96.0
1408,52.0,0,21,3.0,96.0
1409,40.0,0,21,4.0,96.0
1410,52.0,0,21,6.0,96.0
1411,72.0,24,63,0.0,96.0
1412,50.0,0,63,2.0,96.0
1413,72.0,0,63,5.0,96.0
1414,69.0,24,21,1.0,96.0
1415,54.0,0,21,3.0,96.0
1416,42.0,0,21,4.0,96.0
1417,54.0,0,21,6.0,96.0
1418,71.0,0,10,5.0,96.0
1419,71.0,24,12,0.0,96.0
1420,67.0,0,21,1.0,96.0
1421,62.0,0,21,2.0,96.0
1422,55.0,0,21,3.0,96.0
1423,43.0,0,21,4.0,96.0
1424,55.0,0,21,6.0,96.0
1425,74.0,12,10,0.0,96.0
1426,74.0,0,10,5.0,96.0
1427,79.0,0,10,5.0,96.0
1428,79.0,12,12,0.0,96.0
1429,71.0,0,21,1.0,96.0
1430,64.0,0,21,2.0,96.0
1431,52.0,0,21,3.0,96.0
1432,40.0,0,21,4.0,96.0
1433,52.0,0,21,6.0,96.0
1434,78.0,12,10,0.0,96.0
1435,78.0,0,10,5.0,96.0
1436,76.0,0,10,5.0,96.0
1437,76.0,12,12,0.0,96.0
1438,71.0,0,21,1.0,96.0
1439,64.0,0,21,2.0,96.0
1440,55.0,0,21,3.0,96.0
1441,43.0,0,21,4.0,96.0
1442,55.0,0,21,6.0,96.0
1443,74.0,12,10,0.0,96.0
1444,74.0,0,10,5.0,96.0
1445,73.0,0,10,5.0,96.0
1446,73.0,12,12,0.0,96.0
1447,69.0,0,21,1.0,96.0
1448,64.0,0,21,2.0,96.0
1449,57.0,0,21,3.0,96.0
1450,45.0,0,21,4.0,96.0
1451,57.0,0,21,6.0,96.0
1452,71.0,12,10,0.0,96.0
1453,71.0,0,10,5.0,96.0
1454,74.0,0,10,5.0,96.0
1455,74.0,12,12,0.0,96.0
1456,69.0,0,21,1.0,96.0
1457,64.0,0,21,2.0,96.0
1458,59.0,0,21,3.0,96.0
1459,47.0,0,21,4.0,96.0
1460,59.0,0,21,6.0,96.0
1461,73.0,12,10,0.0,96.0
1462,73.0,0,10,5.0,96.0
1463,71.0,0,10,5.0,96.0
1464,71.0,12,12,0.0,96.0
1465,69.0,0,21,1.0,96.0
1466,64.0,0,21,2.0,96.0
1467,61.0,0,21,3.0,96.0
1468,49.0,0,21,4.0,96.0
1469,61.0,0,21,6.0,96.0
1470,69.0,12,10,0.0,96.0
1471,69.0,0,10,5.0,96.0
1472,78.0,12,21,0.0,96.0
1473,69.0,0,21,1.0,96.0
1474,62.0,0,21,2.0,96.0
1475,62.0,0,21,3.0,96.0
1476,50.0,0,21,4.0,96.0
1477,78.0,0,21,5.0,96.0
1478,62.0,0,21,6.0,96.0
1479,79.0,24,21,0.0,96.0
1480,71.0,0,21,1.0,96.0
1481,62.0,0,21,2.0,96.0
1482,55.0,0,21,3.0,96.0
1483,43.0,0,21,4.0,96.0
1484,79.0,0,21,5.0,96.0
1485,55.0,0,21,6.0,96.0
1486,78.0,24,6,0.0,96.0
1487,76.0,6,6,0.0,96.0
1488,78.0,6,6,0.0,96.0
1489,69.0,0,21,1.0,96.0
1490,61.0,0,21,2.0,96.0
1491,57.0,0,21,3.0,96.0
1492,45.0,0,21,4.0,96.0
1493,76.0,0,21,5.0,96.0
1494,57.0,0,21,6.0,96.0
1495,76.0,6,5,0.0,96.0
1496,50.0,0,21,3.0,96.0
1497,38.0,0,21,4.0,96.0
1498,50.0,0,21,6.0,96.0
1499,42.0,24,21,3.0,96.0
1500,30.0,0,21,4.0,96.0
1501,42.0,0,21,6.0,96.0
1502,74.0,6,63,0.0,96.0
1503,69.0,0,63,1.0,96.0
1504,66.0,0,63,2.0,96.0
1505,74.0,0,63,5.0,96.0
1506,45.0,24,21,3.0,96.0
1507,33.0,0,21,4.0,96.0
1508,45.0,0,21,6.0,96.0
1509,66.0,0,10,5.0,96.0
1510,50.0,0,21,6.0,96.0
1511,69.0,12,10,5.0,96.0
1512,74.0,12,10,5.0,96.0
1513,73.0,12,5,5.0,96.0
1514,38.0,0,42,3.0,80.0
1515,26.0,0,42,4.0,80.0
1516,54.0,0,21,6.0,96.0
1517,71.0,6,5,5.0,96.0
1518,69.0,6,5,5.0,96.0
1519,67.0,6,5,5.0,96.0
1520,69.0,0,63,1.0,80.0
1521,66.0,6,5,5.0,96.0
1522,52.0,0,21,6.0,96.0
1523,64.0,6,5,5.0,96.0
1524,66.0,0,7,5.0,96.0
1525,69.0,8,7,5.0,96.0
1526,74.0,8,7,5.0,96.0
1527,62.0,8,7,5.0,96.0
1528,66.0,8,7,5.0,96.0
1529,50.0,0,42,6.0,96.0
1530,74.0,8,7,5.0,96.0
1531,66.0,8,7,5.0,96.0
1532,66.0,0,132,2.0,80.0
1533,72.0,6,63,1.0,80.0
1534,69.0,8,7,5.0,96.0
1535,74.0,8,7,5.0,96.0
1536,67.0,0,7,5.0,96.0
1537,74.0,24,156,0.0,80.0
1538,71.0,8,7,5.0,96.0
1539,71.0,8,21,1.0,80.0
1540,67.0,0,21,2.0,80.0
1541,55.0,0,21,6.0,96.0
1542,74.0,8,7,5.0,96.0
1543,64.0,0,7,5.0,96.0
1544,69.0,8,7,5.0,96.0
1545,76.0,8,21,0.0,80.0
1546,69.0,0,21,1.0,80.0
1547,67.0,0,21,2.0,80.0
1548,48.0,0,21,6.0,96.0
1549,72.0,8,7,5.0,96.0
1550,66.0,0,7,5.0,96.0
1551,69.0,8,7,5.0,96.0
1552,74.0,8,21,0.0,80.0
1553,69.0,0,21,1.0,80.0
1554,66.0,0,21,2.0,80.0
1555,50.0,0,21,6.0,96.0
1556,72.0,8,7,5.0,96.0
1557,71.0,0,7,5.0,96.0
1558,69.0,8,7,5.0,96.0
1559,67.0,8,7,5.0,96.0
1560,66.0,8,7,5.0,96.0
1561,69.0,8,7,5.0,96.0
1562,74.0,8,42,0.0,80.0
1563,71.0,0,42,1.0,80.0
1564,67.0,0,42,2.0,80.0
1565,43.0,0,42,6.0,96.0
1566,72.0,8,7,5.0,96.0
1567,71.0,8,7,5.0,96.0
1568,69.0,8,7,5.0,96.0
1569,67.0,8,7,5.0,96.0
1570,73.0,0,10,5.0,96.0
1571,52.0,0,21,6.0,96.0
1572,76.0,12,10,5.0,96.0
1573,79.0,12,10,5.0,96.0
1574,78.0,12,5,5.0,96.0
1575,49.0,0,21,6.0,96.0
1576,76.0,6,5,5.0,96.0
1577,74.0,6,5,5.0,96.0
1578,73.0,6,5,5.0,96.0
1579,67.0,0,63,2.0,80.0
1580,71.0,6,5,5.0,96.0
1581,45.0,0,21,6.0,96.0
1582,69.0,6,5,5.0,96.0
1583,78.0,0,7,5.0,96.0
1584,76.0,8,84,0.0,80.0
1585,69.0,0,84,1.0,80.0
1586,76.0,8,7,5.0,96.0
1587,66.0,6,21,2.0,80.0
1588,81.0,8,7,5.0,96.0
1589,74.0,0,7,5.0,96.0
1590,73.0,8,7,5.0,96.0
1591,50.0,0,42,6.0,96.0
1592,74.0,8,21,0.0,80.0
1593,71.0,0,21,1.0,80.0
1594,67.0,0,21,2.0,80.0
1595,79.0,8,7,5.0,96.0
1596,78.0,0,7,5.0,96.0
1597,74.0,8,7,5.0,96.0
1598,72.0,8,21,0.0,80.0
1599,66.0,0,21,1.0,80.0
1600,69.0,0,21,2.0,80.0
1601,69.0,8,7,5.0,96.0
1602,71.0,0,7,5.0,96.0
1603,67.0,8,7,5.0,96.0
1604,71.0,8,21,0.0,80.0
1605,62.0,0,21,1.0,80.0
1606,71.0,0,21,2.0,80.0
1607,43.0,0,21,6.0,96.0
1608,78.0,8,7,5.0,96.0
1609,71.0,0,7,5.0,96.0
1610,67.0,8,7,5.0,96.0
1611,76.0,8,21,0.0,80.0
1612,67.0,0,21,1.0,80.0
1613,59.0,0,21,2.0,80.0
1614,55.0,0,21,6.0,96.0
1615,76.0,8,7,5.0,96.0
1616,71.0,0,7,5.0,96.0
1617,68.0,8,7,5.0,96.0
1618,74.0,8,21,0.0,80.0
1619,68.0,0,21,1.0,80.0
1620,64.0,0,21,2.0,80.0
1621,52.0,0,21,6.0,96.0
1622,74.0,8,7,5.0,96.0
1623,73.0,0,7,5.0,96.0
1624,71.0,8,7,5.0,96.0
1625,69.0,8,7,5.0,96.0
1626,68.0,8,7,5.0,96.0
1627,71.0,8,7,5.0,96.0
1628,73.0,8,42,0.0,80.0
1629,69.0,0,42,1.0,80.0
1630,64.0,0,42,2.0,80.0
1631,57.0,0,42,6.0,96.0
1632,74.0,8,7,5.0,96.0
1633,73.0,8,7,5.0,96.0
1634,71.0,8,7,5.0,96.0
1635,69.0,8,7,5.0,96.0
1636,76.0,0,7,5.0,96.0
1637,73.0,8,7,5.0,96.0
1638,61.0,0,21,2.0,80.0
1639,45.0,0,21,6.0,96.0
1640,69.0,8,7,5.0,96.0
1641,67.0,0,7,5.0,96.0
1642,66.0,8,7,5.0,96.0
1643,62.0,8,21,2.0,80.0
1644,47.0,0,21,6.0,96.0
1645,67.0,8,7,5.0,96.0
1646,67.0,0,7,5.0,96.0
1647,76.0,8,7,5.0,96.0
1648,64.0,8,21,2.0,80.0
1649,49.0,0,21,6.0,96.0
1650,67.0,8,7,5.0,96.0
1651,67.0,0,7,5.0,96.0
1652,76.0,8,84,0.0,80.0
1653,67.0,0,84,1.0,80.0
1654,66.0,8,7,5.0,96.0
1655,64.0,8,7,5.0,96.0
1656,66.0,0,7,5.0,96.0
1657,62.0,8,7,5.0,96.0
1658,57.0,8,42,2.0,80.0
1659,50.0,0,42,6.0,96.0
1660,74.0,8,21,0.0,80.0
1661,66.0,0,21,1.0,80.0
1662,66.0,8,7,5.0,96.0
1663,69.0,0,7,5.0,96.0
1664,78.0,8,12,0.0,80.0
1665,69.0,0,12,1.0,80.0
1666,74.0,8,7,5.0,96.0
1667,76.0,4,10,0.0,80.0
1668,67.0,0,10,1.0,80.0
1669,76.0,4,7,5.0,96.0
1670,78.0,0,7,5.0,96.0
1671,75.0,8,7,5.0,96.0
1672,63.0,0,21,2.0,80.0
1673,47.0,0,21,6.0,96.0
1674,71.0,8,7,5.0,96.0
1675,69.0,0,7,5.0,96.0
1676,67.0,8,7,5.0,96.0
1677,64.0,8,21,2.0,80.0
1678,49.0,0,21,6.0,96.0
1679,69.0,8,7,5.0,96.0
1680,69.0,0,7,5.0,96.0
1681,66.0,8,7,5.0,96.0
1682,66.0,8,21,2.0,80.0
1683,51.0,0,21,6.0,96.0
1684,69.0,8,7,5.0,96.0
1685,69.0,0,7,5.0,96.0
1686,78.0,8,84,0.0,80.0
1687,69.0,0,84,1.0,80.0
1688,67.0,8,7,5.0,96.0
1689,66.0,8,7,5.0,96.0
1690,67.0,0,7,5.0,96.0
1691,64.0,8,7,5.0,96.0
1692,59.0,8,42,2.0,80.0
1693,52.0,0,42,6.0,96.0
1694,76.0,8,21,0.0,80.0
1695,67.0,0,21,1.0,80.0
1696,67.0,8,7,5.0,96.0
1697,71.0,0,7,5.0,96.0
1698,79.0,8,12,0.0,80.0
1699,71.0,0,12,1.0,80.0
1700,76.0,8,7,5.0,96.0
1701,78.0,4,10,0.0,80.0
1702,69.0,0,10,1.0,80.0
1703,78.0,4,7,5.0,96.0
1704,79.0,0,7,5.0,96.0
1705,78.0,8,7,5.0,96.0
1706,71.0,0,21,1.0,80.0
1707,64.0,0,21,2.0,80.0
1708,76.0,8,7,5.0,96.0
1709,74.0,0,7,5.0,96.0
1710,72.0,8,7,5.0,96.0
1711,79.0,8,42,0.0,80.0
1712,52.0,0,42,6.0,96.0
1713,76.0,8,21,1.0,80.0
1714,67.0,0,21,2.0,80.0
1715,71.0,8,7,5.0,96.0
1716,72.0,8,7,5.0,96.0
1717,71.0,8,7,5.0,96.0
1718,72.0,8,7,5.0,96.0
1719,81.0,0,7,5.0,96.0
1720,78.0,8,7,5.0,96.0
1721,74.0,0,21,1.0,80.0
1722,62.0,0,21,2.0,80.0
1723,76.0,8,7,5.0,96.0
1724,74.0,0,7,5.0,96.0
1725,72.0,8,7,5.0,96.0
1726,81.0,8,42,0.0,80.0
1727,54.0,0,42,6.0,96.0
1728,66.0,8,21,1.0,80.0
1729,69.0,0,21,2.0,80.0
1730,71.0,8,7,5.0,96.0
1731,72.0,8,7,5.0,96.0
1732,71.0,8,7,5.0,96.0
1733,72.0,8,7,5.0,96.0
1734,71.0,0,7,5.0,96.0
1735,74.0,8,7,5.0,96.0
1736,74.0,8,21,0.0,80.0
1737,71.0,0,21,1.0,80.0
1738,67.0,0,21,2.0,80.0
1739,55.0,0,21,6.0,96.0
1740,79.0,8,7,5.0,96.0
1741,76.0,0,7,5.0,96.0
1742,72.0,8,7,5.0,96.0
1743,76.0,8,21,0.0,80.0
1744,72.0,0,21,1.0,80.0
1745,67.0,0,21,2.0,80.0
1746,48.0,0,21,6.0,96.0
1747,69.0,8,7,5.0,96.0
1748,66.0,0,7,5.0,96.0
1749,69.0,8,7,5.0,96.0
1750,78.0,8,21,0.0,80.0
1751,69.0,0,21,1.0,80.0
1752,62.0,0,21,2.0,80.0
1753,50.0,0,21,6.0,96.0
1754,72.0,8,7,5.0,96.0
1755,71.0,0,7,5.0,96.0
1756,67.0,8,7,5.0,96.0
1757,62.0,8,7,5.0,96.0
1758,67.0,8,7,5.0,96.0
1759,43.0,0,31,6.0,96.0
1760,71.0,8,7,5.0,96.0
1761,79.0,8,42,0.0,80.0
1762,71.0,0,42,1.0,80.0
1763,62.0,0,42,2.0,80.0
1764,45.0,4,10,3.0,96.0
1765,33.0,0,10,4.0,96.0
1766,45.0,0,10,6.0,96.0
1767,74.0,4,7,5.0,96.0
1768,47.0,8,10,3.0,96.0
1769,35.0,0,10,4.0,96.0
1770,47.0,0,10,6.0,96.0
1771,79.0,0,21,5.0,96.0
1772,49.0,12,10,3.0,96.0
1773,37.0,0,10,4.0,96.0
1774,49.0,0,10,6.0,96.0
1775,62.0,0,10,5.0,96.0
1776,62.0,12,12,0.0,96.0
1777,64.0,0,10,5.0,96.0
1778,64.0,12,12,0.0,96.0
1779,66.0,0,10,5.0,96.0
1780,66.0,12,12,0.0,96.0
1781,66.0,0,42,1.0,96.0
1782,57.0,0,42,2.0,96.0
1783,50.0,0,42,3.0,96.0
1784,38.0,0,42,4.0,96.0
1785,50.0,0,42,6.0,96.0
1786,69.0,12,10,0.0,96.0
1787,69.0,0,10,5.0,96.0
1788,74.0,12,6,0.0,96.0
1789,74.0,0,21,5.0,96.0
1790,74.0,0,10,5.0,96.0
1791,74.0,24,12,0.0,96.0
1792,69.0,0,21,1.0,96.0
1793,57.0,0,21,2.0,96.0
1794,54.0,0,21,3.0,96.0
1795,42.0,0,21,4.0,96.0
1796,54.0,0,21,6.0,96.0
1797,73.0,12,10,0.0,96.0
1798,73.0,0,10,5.0,96.0
1799,76.0,0,10,5.0,96.0
1800,76.0,12,12,0.0,96.0
1801,67.0,0,21,1.0,96.0
1802,61.0,0,21,2.0,96.0
1803,52.0,0,21,3.0,96.0
1804,40.0,0,21,4.0,96.0
1805,52.0,0,21,6.0,96.0
1806,74.0,12,10,0.0,96.0
1807,74.0,0,10,5.0,96.0
1808,73.0,0,10,5.0,96.0
1809,73.0,12,12,0.0,96.0
1810,69.0,0,21,1.0,96.0
1811,66.0,0,21,2.0,96.0
1812,50.0,0,21,3.0,96.0
1813,38.0,0,21,4.0,96.0
1814,50.0,0,21,6.0,96.0
1815,71.0,12,10,0.0,96.0
1816,71.0,0,10,5.0,96.0
1817,69.0,0,10,5.0,96.0
1818,69.0,12,12,0.0,96.0
1819,71.0,0,10,5.0,96.0
1820,71.0,12,12,0.0,96.0
1821,73.0,0,10,5.0,96.0
1822,73.0,12,12,0.0,96.0
1823,69.0,0,42,1.0,96.0
1824,64.0,0,42,2.0,96.0
1825,49.0,0,42,3.0,96.0
1826,37.0,0,42,4.0,96.0
1827,49.0,0,42,6.0,96.0
1828,76.0,12,10,0.0,96.0
1829,76.0,0,10,5.0,96.0
1830,79.0,12,6,0.0,96.0
1831,79.0,0,21,5.0,96.0
1832,69.0,0,21,1.0,96.0
1833,64.0,0,21,2.0,96.0
1834,49.0,0,21,3.0,96.0
1835,37.0,0,21,4.0,96.0
1836,49.0,0,21,6.0,96.0
1837,71.0,24,21,1.0,96.0
1838,62.0,0,21,2.0,96.0
1839,47.0,0,21,3.0,96.0
1840,35.0,0,21,4.0,96.0
1841,47.0,0,21,6.0,96.0
1842,79.0,24,63,0.0,96.0
1843,79.0,0,63,5.0,96.0
1844,73.0,24,21,1.0,96.0
1845,64.0,0,21,2.0,96.0
1846,45.0,0,21,3.0,96.0
1847,33.0,0,21,4.0,96.0
1848,45.0,0,21,6.0,96.0
1849,78.0,0,10,5.0,96.0
1850,78.0,24,12,0.0,96.0
1851,74.0,0,21,1.0,96.0
1852,50.0,0,21,3.0,96.0
1853,38.0,0,21,4.0,96.0
1854,50.0,0,21,6.0,96.0
1855,76.0,12,10,0.0,96.0
1856,76.0,0,10,5.0,96.0
1857,79.0,0,10,5.0,96.0
1858,79.0,12,12,0.0,96.0
1859,57.0,0,42,2.0,96.0
1860,69.0,0,21,1.0,96.0
1861,49.0,0,21,3.0,96.0
1862,37.0,0,21,4.0,96.0
1863,49.0,0,21,6.0,96.0
1864,78.0,12,10,0.0,96.0
1865,78.0,0,10,5.0,96.0
1866,76.0,0,10,5.0,96.0
1867,76.0,12,12,0.0,96.0
1868,68.0,0,21,1.0,96.0
1869,62.0,0,21,2.0,96.0
1870,47.0,0,21,3.0,96.0
1871,35.0,0,21,4.0,96.0
1872,47.0,0,21,6.0,96.0
1873,74.0,12,10,0.0,96.0
1874,74.0,0,10,5.0,96.0
1875,73.0,0,10,5.0,96.0
1876,73.0,12,12,0.0,96.0
1877,69.0,0,21,1.0,96.0
1878,45.0,0,21,3.0,96.0
1879,33.0,0,21,4.0,96.0
1880,45.0,0,21,6.0,96.0
1881,71.0,12,10,0.0,96.0
1882,71.0,0,10,5.0,96.0
1883,74.0,0,10,5.0,96.0
1884,74.0,12,12,0.0,96.0
1885,64.0,0,42,2.0,96.0
1886,64.0,0,21,1.0,96.0
1887,43.0,0,21,3.0,96.0
1888,31.0,0,21,4.0,96.0
1889,43.0,0,21,6.0,96.0
1890,73.0,12,10,0.0,96.0
1891,73.0,0,10,5.0,96.0
1892,71.0,0,10,5.0,96.0
1893,71.0,12,12,0.0,96.0
1894,66.0,0,21,1.0,96.0
1895,62.0,0,21,2.0,96.0
1896,42.0,0,21,3.0,96.0
1897,30.0,0,21,4.0,96.0
1898,42.0,0,21,6.0,96.0
1899,69.0,12,10,0.0,96.0
1900,69.0,0,10,5.0,96.0
1901,67.0,0,10,5.0,96.0
1902,67.0,12,12,0.0,96.0
1903,67.0,0,21,1.0,96.0
1904,61.0,0,21,2.0,96.0
1905,40.0,0,21,3.0,96.0
1906,28.0,0,21,4.0,96.0
1907,40.0,0,21,6.0,96.0
1908,66.0,12,10,0.0,96.0
1909,66.0,0,10,5.0,96.0
1910,69.0,0,10,5.0,96.0
1911,69.0,12,12,0.0,96.0
1912,64.0,0,21,1.0,96.0
1913,64.0,0,21,2.0,96.0
1914,49.0,0,21,3.0,96.0
1915,37.0,0,21,4.0,96.0
1916,49.0,0,21,6.0,96.0
1917,67.0,12,10,0.0,96.0
1918,67.0,0,10,5.0,96.0
1919,66.0,0,10,5.0,96.0
1920,66.0,12,12,0.0,96.0
1921,62.0,0,21,1.0,96.0
1922,57.0,0,21,2.0,96.0
1923,50.0,0,21,3.0,96.0
1924,38.0,0,21,4.0,96.0
1925,50.0,0,21,6.0,96.0
1926,67.0,12,10,0.0,96.0
1927,67.0,0,10,5.0,96.0
1928,64.0,0,10,5.0,96.0
1929,64.0,12,12,0.0,96.0
1930,61.0,0,21,1.0,96.0
1931,45.0,0,21,3.0,96.0
1932,33.0,0,21,4.0,96.0
1933,45.0,0,21,6.0,96.0
1934,62.0,0,10,5.0,96.0
1935,62.0,12,12,0.0,96.0
1936,57.0,0,31,2.0,96.0
1937,64.0,12,10,0.0,96.0
1938,64.0,0,10,5.0,96.0
1939,64.0,0,21,1.0,96.0
1940,49.0,0,21,3.0,96.0
1941,37.0,0,21,4.0,96.0
1942,49.0,0,21,6.0,96.0
1943,67.0,12,10,0.0,96.0
1944,59.0,0,10,2.0,96.0
1945,67.0,0,10,5.0,96.0
1946,66.0,12,10,0.0,96.0
1947,57.0,0,10,2.0,96.0
1948,66.0,0,10,5.0,96.0
1949,61.0,0,21,1.0,96.0
1950,45.0,0,21,3.0,96.0
1951,33.0,0,21,4.0,96.0
1952,45.0,0,21,6.0,96.0
1953,64.0,12,10,0.0,96.0
1954,55.0,0,10,2.0,96.0
1955,64.0,0,10,5.0,96.0
1956,62.0,0,10,5.0,96.0
1957,62.0,12,12,0.0,96.0
1958,57.0,0,21,1.0,96.0
1959,54.0,0,21,2.0,96.0
1960,38.0,0,21,3.0,96.0
1961,26.0,0,21,4.0,96.0
1962,38.0,0,21,6.0,96.0
1963,64.0,0,10,5.0,96.0
1964,64.0,12,12,0.0,96.0
1965,66.0,0,10,5.0,96.0
1966,66.0,12,12,0.0,96.0
1967,69.0,0,21,1.0,96.0
1968,62.0,0,21,2.0,96.0
1969,50.0,0,21,3.0,96.0
1970,38.0,0,21,4.0,96.0
1971,50.0,0,21,6.0,96.0
1972,69.0,12,10,0.0,96.0
1973,69.0,0,10,5.0,96.0
1974,74.0,12,6,0.0,96.0
1975,69.0,0,21,1.0,96.0
1976,66.0,0,21,2.0,96.0
1977,49.0,0,21,3.0,96.0
1978,37.0,0,21,4.0,96.0
1979,74.0,0,21,5.0,96.0
1980,49.0,0,21,6.0,96.0
1981,74.0,0,10,5.0,96.0
1982,74.0,24,12,0.0,96.0
1983,71.0,0,21,1.0,96.0
1984,47.0,0,21,3.0,96.0
1985,35.0,0,21,4.0,96.0
1986,47.0,0,21,6.0,96.0
1987,73.0,12,10,0.0,96.0
1988,73.0,0,10,5.0,96.0
1989,76.0,0,10,5.0,96.0
1990,76.0,12,12,0.0,96.0
1991,66.0,0,42,2.0,96.0
1992,66.0,0,21,1.0,96.0
1993,45.0,0,21,3.0,96.0
1994,33.0,0,21,4.0,96.0
1995,45.0,0,21,6.0,96.0
1996,74.0,12,10,0.0,96.0
1997,74.0,0,10,5.0,96.0
1998,73.0,0,10,5.0,96.0
1999,73.0,12,12,0.0,96.0
2000,67.0,0,21,1.0,96.0
2001,64.0,0,21,2.0,96.0
2002,43.0,0,21,3.0,96.0
2003,31.0,0,21,4.0,96.0
2004,43.0,0,21,6.0,96.0
2005,71.0,12,10,0.0,96.0
2006,71.0,0,10,5.0,96.0
2007,62.0,0,10,5.0,96.0
2008,62.0,12,12,0.0,96.0
2009,69.0,0,21,1.0,96.0
2010,62.0,0,21,2.0,96.0
2011,42.0,0,21,3.0,96.0
2012,30.0,0,21,4.0,96.0
2013,42.0,0,21,6.0,96.0
2014,64.0,0,10,5.0,96.0
2015,64.0,12,12,0.0,96.0
2016,66.0,0,10,5.0,96.0
2017,66.0,12,12,0.0,96.0
2018,72.0,0,21,1.0,96.0
2019,57.0,0,21,2.0,96.0
2020,40.0,0,21,3.0,96.0
2021,28.0,0,21,4.0,96.0
2022,40.0,0,21,6.0,96.0
2023,69.0,12,10,0.0,96.0
2024,69.0,0,10,5.0,96.0
2025,72.0,12,6,0.0,96.0
2026,69.0,0,21,1.0,96.0
2027,54.0,0,21,2.0,96.0
2028,38.0,0,21,3.0,96.0
2029,26.0,0,21,4.0,96.0
2030,72.0,0,21,5.0,96.0
2031,38.0,0,21,6.0,96.0
2032,66.0,0,21,1.0,96.0
2033,50.0,0,21,3.0,96.0
2034,38.0,0,21,4.0,96.0
2035,50.0,0,21,6.0,96.0
2036,67.0,24,21,1.0,96.0
2037,52.0,0,21,3.0,96.0
2038,40.0,0,21,4.0,96.0
2039,52.0,0,21,6.0,96.0
2040,72.0,24,63,0.0,96.0
2041,50.0,0,63,2.0,96.0
2042,72.0,0,63,5.0,96.0
2043,69.0,24,21,1.0,96.0
2044,54.0,0,21,3.0,96.0
2045,42.0,0,21,4.0,96.0
2046,54.0,0,21,6.0,96.0
2047,71.0,0,10,5.0,96.0
2048,71.0,24,12,0.0,96.0
2049,67.0,0,21,1.0,96.0
2050,62.0,0,21,2.0,96.0
2051,55.0,0,21,3.0,96.0
2052,43.0,0,21,4.0,96.0
2053,55.0,0,21,6.0,96.0
2054,74.0,12,10,0.0,96.0
2055,74.0,0,10,5.0,96.0
2056,79.0,0,10,5.0,96.0
2057,79.0,12,12,0.0,96.0
2058,71.0,0,21,1.0,96.0
2059,64.0,0,21,2.0,96.0
2060,52.0,0,21,3.0,96.0
2061,40.0,0,21,4.0,96.0
2062,52.0,0,21,6.0,96.0
2063,78.0,12,10,0.0,96.0
2064,78.0,0,10,5.0,96.0
2065,76.0,0,10,5.0,96.0
2066,76.0,12,12,0.0,96.0
2067,71.0,0,21,1.0,96.0
2068,64.0,0,21,2.0,96.0
2069,55.0,0,21,3.0,96.0
2070,43.0,0,21,4.0,96.0
2071,55.0,0,21,6.0,96.0
2072,74.0,12,10,0.0,96.0
2073,74.0,0,10,5.0,96.0
2074,73.0,0,10,5.0,96.0
2075,73.0,12,12,0.0,96.0
2076,69.0,0,21,1.0,96.0
2077,64.0,0,21,2.0,96.0
2078,57.0,0,21,3.0,96.0
2079,45.0,0,21,4.0,96.0
2080,57.0,0,21,6.0,96.0
2081,71.0,12,10,0.0,96.0
2082,71.0,0,10,5.0,96.0
2083,74.0,0,10,5.0,96.0
2084,74.0,12,12,0.0,96.0
2085,69.0,0,21,1.0,96.0
2086,64.0,0,21,2.0,96.0
2087,59.0,0,21,3.0,96.0
2088,47.0,0,21,4.0,96.0
2089,59.0,0,21,6.0,96.0
2090,73.0,12,10,0.0,96.0
2091,73.0,0,10,5.0,96.0
2092,71.0,0,10,5.0,96.0
2093,71.0,12,12,0.0,96.0
2094,69.0,0,21,1.0,96.0
2095,64.0,0,21,2.0,96.0
2096,61.0,0,21,3.0,96.0
2097,49.0,0,21,4.0,96.0
2098,61.0,0,21,6.0,96.0
2099,69.0,12,10,0.0,96.0
2100,69.0,0,10,5.0,96.0
2101,78.0,12,21,0.0,96.0
2102,69.0,0,21,1.0,96.0
2103,62.0,0,21,2.0,96.0
2104,62.0,0,21,3.0,96.0
2105,50.0,0,21,4.0,96.0
2106,78.0,0,21,5.0,96.0
2107,62.0,0,21,6.0,96.0
2108,79.0,24,21,0.0,96.0
2109,71.0,0,21,1.0,96.0
2110,62.0,0,21,2.0,96.0
2111,55.0,0,21,3.0,96.0
2112,43.0,0,21,4.0,96.0
2113,79.0,0,21,5.0,96.0
2114,55.0,0,21,6.0,96.0
2115,76.0,24,21,0.0,96.0
2116,69.0,0,21,1.0,96.0
2117,61.0,0,21,2.0,96.0
2118,57.0,0,21,3.0,96.0
2119,45.0,0,21,4.0,96.0
2120,76.0,0,21,5.0,96.0
2121,57.0,0,21,6.0,96.0
2122,50.0,0,21,3.0,96.0
2123,38.0,0,21,4.0,96.0
2124,50.0,0,21,6.0,96.0
2125,45.0,24,21,3.0,96.0
2126,33.0,0,21,4.0,96.0
2127,45.0,0,21,6.0,96.0
2128,74.0,24,63,0.0,96.0
2129,69.0,0,63,1.0,96.0
2130,66.0,0,63,2.0,96.0
2131,74.0,0,63,5.0,96.0
2132,38.0,24,21,3.0,96.0
2133,26.0,0,21,4.0,96.0
2134,38.0,0,21,6.0,96.0
2135,66.0,0,10,5.0,96.0
2136,69.0,24,21,0.0,80.0
2137,66.0,0,21,1.0,80.0
2138,62.0,0,21,2.0,80.0
2139,64.0,12,10,5.0,96.0
2140,62.0,0,10,5.0,96.0
2141,50.0,0,42,6.0,96.0
2142,72.0,12,21,0.0,80.0
2143,69.0,0,21,1.0,80.0
2144,50.0,0,21,2.0,80.0
2145,64.0,12,10,5.0,96.0
2146,66.0,0,10,5.0,96.0
2147,71.0,12,21,0.0,80.0
2148,67.0,0,21,1.0,80.0
2149,62.0,0,21,2.0,80.0
2150,67.0,12,10,5.0,96.0
2151,69.0,0,10,5.0,96.0
2152,66.0,12,6,5.0,96.0
2153,69.0,12,21,0.0,80.0
2154,66.0,0,21,1.0,80.0
2155,62.0,0,21,2.0,80.0
2156,67.0,6,6,5.0,96.0
2157,69.0,0,10,5.0,96.0
2158,69.0,12,6,5.0,96.0
2159,38.0,0,42,6.0,96.0
2160,50.0,0,21,2.0,80.0
2161,71.0,6,6,5.0,96.0
2162,72.0,0,10,5.0,96.0
2163,69.0,12,5,5.0,96.0
2164,62.0,6,21,2.0,80.0
2165,71.0,6,5,5.0,96.0
2166,72.0,0,10,5.0,96.0
2167,72.0,6,63,0.0,80.0
2168,66.0,0,63,1.0,80.0
2169,72.0,12,6,5.0,96.0
2170,62.0,6,21,2.0,80.0
2171,74.0,6,6,5.0,96.0
2172,76.0,0,10,5.0,96.0
2173,72.0,12,6,5.0,96.0
2174,50.0,0,42,6.0,96.0
2175,71.0,6,21,0.0,80.0
2176,67.0,0,21,1.0,80.0
2177,50.0,0,21,2.0,80.0
2178,74.0,6,6,5.0,96.0
2179,76.0,0,10,5.0,96.0
2180,76.0,12,5,5.0,96.0
2181,69.0,6,21,0.0,80.0
2182,69.0,0,21,1.0,80.0
2183,62.0,0,21,2.0,80.0
2184,78.0,6,5,5.0,96.0
2185,79.0,0,10,5.0,96.0
2186,79.0,12,6,5.0,96.0
2187,55.0,0,21,3.0,80.0
2188,43.0,0,21,4.0,80.0
2189,55.0,0,21,6.0,96.0
2190,78.0,6,6,5.0,96.0
2191,79.0,0,10,5.0,96.0
2192,71.0,6,42,0.0,80.0
2193,67.0,0,42,1.0,80.0
2194,55.0,0,42,2.0,80.0
2195,50.0,6,21,3.0,80.0
2196,38.0,0,21,4.0,80.0
2197,50.0,0,21,6.0,96.0
2198,74.0,12,10,5.0,96.0
2199,74.0,0,6,5.0,96.0
2200,72.0,6,6,5.0,96.0
2201,71.0,6,6,5.0,96.0
2202,43.0,12,21,3.0,80.0
2203,31.0,0,21,4.0,80.0
2204,43.0,0,21,6.0,96.0
2205,69.0,6,5,5.0,96.0
2206,68.0,0,10,5.0,96.0
2207,71.0,6,21,0.0,80.0
2208,68.0,0,21,1.0,80.0
2209,64.0,0,21,2.0,80.0
2210,66.0,12,10,5.0,96.0
2211,64.0,0,10,5.0,96.0
2212,52.0,0,42,6.0,96.0
2213,74.0,12,21,0.0,80.0
2214,71.0,0,21,1.0,80.0
2215,52.0,0,21,2.0,80.0
2216,66.0,12,10,5.0,96.0
2217,68.0,0,10,5.0,96.0
2218,73.0,12,21,0.0,80.0
2219,69.0,0,21,1.0,80.0
2220,64.0,0,21,2.0,80.0
2221,69.0,12,10,5.0,96.0
2222,71.0,0,10,5.0,96.0
2223,68.0,12,6,5.0,96.0
2224,71.0,12,21,0.0,80.0
2225,68.0,0,21,1.0,80.0
2226,64.0,0,21,2.0,80.0
2227,69.0,6,6,5.0,96.0
2228,71.0,0,10,5.0,96.0
2229,71.0,12,6,5.0,96.0
2230,40.0,0,42,6.0,96.0
2231,52.0,0,21,2.0,80.0
2232,73.0,6,6,5.0,96.0
2233,74.0,0,10,5.0,96.0
2234,71.0,12,5,5.0,96.0
2235,64.0,6,21,2.0,80.0
2236,73.0,6,5,5.0,96.0
2237,74.0,0,10,5.0,96.0
2238,74.0,6,63,0.0,80.0
2239,68.0,0,63,1.0,80.0
2240,74.0,12,6,5.0,96.0
2241,64.0,6,21,2.0,80.0
2242,76.0,6,6,5.0,96.0
2243,78.0,0,10,5.0,96.0
2244,74.0,12,6,5.0,96.0
2245,52.0,0,42,6.0,96.0
2246,73.0,6,21,0.0,80.0
2247,69.0,0,21,1.0,80.0
2248,52.0,0,21,2.0,80.0
2249,76.0,6,6,5.0,96.0
2250,78.0,0,10,5.0,96.0
2251,78.0,12,6,5.0,96.0
2252,71.0,6,21,0.0,80.0
2253,71.0,0,21,1.0,80.0
2254,64.0,0,21,2.0,80.0
2255,80.0,6,6,5.0,96.0
2256,81.0,0,10,5.0,96.0
2257,81.0,12,6,5.0,96.0
2258,57.0,0,21,3.0,80.0
2259,45.0,0,21,4.0,80.0
2260,57.0,0,21,6.0,96.0
2261,80.0,6,6,5.0,96.0
2262,81.0,0,10,5.0,96.0
2263,73.0,6,42,0.0,80.0
2264,69.0,0,42,1.0,80.0
2265,57.0,0,42,2.0,80.0
2266,52.0,6,21,3.0,80.0
2267,40.0,0,21,4.0,80.0
2268,52.0,0,21,6.0,96.0
2269,76.0,12,10,5.0,96.0
2270,76.0,0,6,5.0,96.0
2271,74.0,6,6,5.0,96.0
2272,73.0,6,6,5.0,96.0
2273,45.0,12,21,3.0,80.0
2274,33.0,0,21,4.0,80.0
2275,45.0,0,21,6.0,96.0
2276,71.0,6,5,5.0,96.0
2277,70.0,0,10,5.0,96.0
2278,76.0,12,5,5.0,96.0
2279,49.0,6,21,3.0,80.0
2280,37.0,0,21,4.0,80.0
2281,49.0,0,21,6.0,96.0
2282,78.0,6,5,5.0,96.0
2283,70.0,6,10,0.0,80.0
2284,64.0,0,10,1.0,80.0
2285,61.0,0,10,2.0,80.0
2286,79.0,0,10,5.0,96.0
2287,76.0,0,5,5.0,96.0
2288,71.0,12,10,0.0,80.0
2289,62.0,0,10,1.0,80.0
2290,59.0,0,10,2.0,80.0
2291,78.0,6,5,5.0,96.0
2292,79.0,0,10,5.0,96.0
2293,70.0,6,21,0.0,80.0
2294,64.0,0,21,1.0,80.0
2295,61.0,0,21,2.0,80.0
2296,76.0,12,10,5.0,96.0
2297,71.0,0,10,5.0,96.0
2298,76.0,12,5,5.0,96.0
2299,47.0,12,21,3.0,80.0
2300,35.0,0,21,4.0,80.0
2301,47.0,0,21,6.0,96.0
2302,78.0,6,5,5.0,96.0
2303,71.0,6,10,0.0,80.0
2304,62.0,0,10,1.0,80.0
2305,59.0,0,10,2.0,80.0
2306,79.0,0,10,5.0,96.0
2307,76.0,0,5,5.0,96.0
2308,73.0,12,10,0.0,80.0
2309,61.0,0,10,1.0,80.0
2310,58.0,0,10,2.0,80.0
2311,78.0,6,5,5.0,96.0
2312,79.0,0,10,5.0,96.0
2313,71.0,6,21,0.0,80.0
2314,62.0,0,21,1.0,80.0
2315,59.0,0,21,2.0,80.0
2316,76.0,12,10,5.0,96.0
2317,73.0,0,10,5.0,96.0
2318,76.0,12,5,5.0,96.0
2319,46.0,12,21,3.0,80.0
2320,34.0,0,21,4.0,80.0
2321,46.0,0,21,6.0,96.0
2322,78.0,6,5,5.0,96.0
2323,73.0,6,10,0.0,80.0
2324,79.0,0,10,5.0,96.0
2325,64.0,0,21,1.0,80.0
2326,58.0,0,21,2.0,80.0
2327,74.0,12,10,0.0,80.0
2328,76.0,0,10,5.0,96.0
2329,76.0,12,10,0.0,80.0
2330,82.0,0,10,5.0,96.0
2331,66.0,0,21,1.0,80.0
2332,61.0,0,21,2.0,80.0
2333,42.0,0,21,3.0,80.0
2334,30.0,0,21,4.0,80.0
2335,42.0,0,21,6.0,96.0
2336,73.0,12,10,0.0,80.0
2337,76.0,0,10,5.0,96.0
2338,74.0,0,10,5.0,96.0
2339,74.0,12,21,0.0,80.0
2340,66.0,0,21,1.0,80.0
2341,59.0,0,21,2.0,80.0
2342,47.0,0,21,3.0,80.0
2343,35.0,0,21,4.0,80.0
2344,47.0,0,21,6.0,96.0
2345,73.0,12,10,5.0,96.0
2346,71.0,0,10,5.0,96.0
2347,71.0,12,21,0.0,80.0
2348,62.0,0,21,1.0,80.0
2349,66.0,0,21,2.0,80.0
2350,50.0,0,21,3.0,80.0
2351,38.0,0,21,4.0,80.0
2352,50.0,0,21,6.0,96.0
2353,73.0,12,10,5.0,96.0
2354,74.0,0,10,5.0,96.0
2355,47.0,12,21,3.0,80.0
2356,35.0,0,21,4.0,80.0
2357,47.0,0,21,6.0,96.0
2358,71.0,12,10,5.0,96.0
2359,77.0,0,10,5.0,96.0
2360,71.0,12,5,5.0,96.0
2361,44.0,12,21,3.0,80.0
2362,32.0,0,21,4.0,80.0
2363,44.0,0,21,6.0,96.0
2364,73.0,6,5,5.0,96.0
2365,71.0,6,10,0.0,80.0
2366,65.0,0,10,1.0,80.0
2367,68.0,0,10,2.0,80.0
2368,74.0,0,10,5.0,96.0
2369,71.0,0,5,5.0,96.0
2370,69.0,12,10,0.0,80.0
2371,66.0,0,10,1.0,80.0
2372,66.0,0,10,2.0,80.0
2373,73.0,6,5,5.0,96.0
2374,74.0,0,10,5.0,96.0
2375,71.0,6,21,0.0,80.0
2376,65.0,0,21,1.0,80.0
2377,68.0,0,21,2.0,80.0
2378,71.0,12,10,5.0,96.0
2379,78.0,0,10,5.0,96.0
2380,71.0,12,5,5.0,96.0
2381,42.0,12,21,3.0,80.0
2382,30.0,0,21,4.0,80.0
2383,42.0,0,21,6.0,96.0
2384,73.0,6,5,5.0,96.0
2385,69.0,6,10,0.0,80.0
2386,66.0,0,10,1.0,80.0
2387,66.0,0,10,2.0,80.0
2388,74.0,0,10,5.0,96.0
2389,71.0,0,5,5.0,96.0
2390,68.0,12,10,0.0,80.0
2391,68.0,0,10,1.0,80.0
2392,65.0,0,10,2.0,80.0
2393,73.0,6,5,5.0,96.0
2394,74.0,0,10,5.0,96.0
2395,69.0,6,21,0.0,80.0
2396,66.0,0,21,1.0,80.0
2397,66.0,0,21,2.0,80.0
2398,71.0,12,10,5.0,96.0
2399,80.0,0,10,5.0,96.0
2400,71.0,12,5,5.0,96.0
2401,41.0,12,21,3.0,80.0
2402,29.0,0,21,4.0,80.0
2403,41.0,0,21,6.0,96.0
2404,73.0,6,5,5.0,96.0
2405,68.0,6,10,0.0,80.0
2406,65.0,0,10,2.0,80.0
2407,74.0,0,10,5.0,96.0
2408,59.0,0,21,1.0,80.0
2409,69.0,12,10,0.0,80.0
2410,63.0,0,10,2.0,80.0
2411,71.0,0,10,5.0,96.0
2412,71.0,12,10,0.0,80.0
2413,68.0,0,10,5.0,96.0
2414,61.0,0,21,1.0,80.0
2415,65.0,0,21,2.0,80.0
2416,37.0,0,21,3.0,80.0
2417,25.0,0,21,4.0,80.0
2418,37.0,0,21,6.0,96.0
2419,68.0,12,10,0.0,80.0
2420,73.0,0,10,5.0,96.0
2421,69.0,0,10,5.0,96.0
2422,69.0,12,21,0.0,80.0
2423,61.0,0,21,1.0,80.0
2424,66.0,0,21,2.0,80.0
2425,42.0,0,21,3.0,80.0
2426,30.0,0,21,4.0,80.0
2427,42.0,0,21,6.0,96.0
2428,68.0,12,10,5.0,96.0
2429,66.0,0,10,5.0,96.0
2430,66.0,12,21,0.0,80.0
2431,61.0,0,21,1.0,80.0
2432,57.0,0,21,2.0,80.0
2433,45.0,0,21,3.0,80.0
2434,33.0,0,21,4.0,80.0
2435,45.0,0,21,6.0,96.0
2436,68.0,12,10,5.0,96.0
2437,69.0,0,10,5.0,96.0
2438,49.0,12,21,3.0,80.0
2439,37.0,0,21,4.0,80.0
2440,49.0,0,21,6.0,96.0
2441,71.0,12,10,5.0,96.0
2442,73.0,0,10,5.0,96.0
2443,78.0,12,5,5.0,96.0
2444,54.0,0,21,3.0,80.0
2445,42.0,0,21,4.0,80.0
2446,54.0,0,21,6.0,96.0
2447,79.0,6,5,5.0,96.0
2448,81.0,6,5,5.0,96.0
2449,79.0,6,5,5.0,96.0
2450,78.0,6,5,5.0,96.0
2451,51.0,0,21,6.0,96.0
2452,76.0,6,5,5.0,96.0
2453,75.0,6,10,5.0,96.0
2454,47.0,0,21,6.0,96.0
2455,81.0,12,10,5.0,96.0
2456,71.0,12,10,5.0,96.0
2457,78.0,12,84,0.0,80.0
2458,69.0,0,84,1.0,80.0
2459,75.0,12,10,5.0,96.0
2460,78.0,0,10,5.0,96.0
2461,75.0,12,21,0.0,80.0
2462,66.0,0,21,1.0,80.0
2463,81.0,12,10,5.0,96.0
2464,79.0,0,10,5.0,96.0
2465,71.0,12,21,0.0,80.0
2466,63.0,0,21,1.0,80.0
2467,78.0,12,10,5.0,96.0
2468,71.0,0,10,5.0,96.0
2469,52.0,0,84,6.0,96.0
2470,76.0,12,5,5.0,96.0
2471,78.0,6,5,5.0,96.0
2472,79.0,6,5,5.0,96.0
2473,78.0,6,5,5.0,96.0
2474,76.0,6,5,5.0,96.0
2475,49.0,0,21,6.0,96.0
2476,74.0,6,5,5.0,96.0
2477,73.0,6,10,5.0,96.0
2478,45.0,0,21,6.0,96.0
2479,79.0,12,10,5.0,96.0
2480,69.0,12,10,5.0,96.0
2481,76.0,12,84,0.0,80.0
2482,67.0,0,84,1.0,80.0
2483,73.0,12,10,5.0,96.0
2484,76.0,0,10,5.0,96.0
2485,73.0,12,21,0.0,80.0
2486,64.0,0,21,1.0,80.0
2487,79.0,12,10,5.0,96.0
2488,78.0,0,10,5.0,96.0
2489,69.0,12,21,0.0,80.0
2490,61.0,0,21,1.0,80.0
2491,76.0,12,10,5.0,96.0
2492,69.0,0,10,5.0,96.0
2493,50.0,0,84,6.0,96.0
2494,74.0,12,5,5.0,96.0
2495,76.0,6,5,5.0,96.0
2496,78.0,6,10,5.0,96.0
2497,78.0,12,5,5.0,96.0
2498,57.0,0,21,6.0,96.0
2499,76.0,6,5,5.0,96.0
2500,74.0,6,10,5.0,96.0
2501,74.0,12,5,5.0,96.0
2502,54.0,0,21,6.0,96.0
2503,73.0,6,5,5.0,96.0
2504,71.0,6,10,5.0,96.0
2505,71.0,12,5,5.0,96.0
2506,50.0,0,21,6.0,96.0
2507,73.0,6,5,5.0,96.0
2508,74.0,6,10,5.0,96.0
2509,74.0,12,5,5.0,96.0
2510,54.0,0,21,6.0,96.0
2511,73.0,6,5,5.0,96.0
2512,71.0,6,10,5.0,96.0
2513,66.0,0,132,1.0,80.0
2514,71.0,12,5,5.0,96.0
2515,50.0,0,21,6.0,96.0
2516,69.0,6,5,5.0,96.0
2517,67.0,0,10,5.0,96.0
2518,67.0,12,5,5.0,96.0
2519,47.0,0,21,6.0,96.0
2520,69.0,6,5,5.0,96.0
2521,71.0,6,10,5.0,96.0
2522,71.0,12,5,5.0,96.0
2523,50.0,0,21,6.0,96.0
2524,69.0,6,5,5.0,96.0
2525,67.0,6,10,5.0,96.0
2526,71.0,6,63,1.0,80.0
2527,67.0,12,5,5.0,96.0
2528,47.0,0,21,6.0,96.0
2529,66.0,6,5,5.0,96.0
2530,65.0,0,5,5.0,96.0
2531,68.0,6,5,5.0,96.0
2532,74.0,12,228,0.0,80.0
2533,71.0,6,5,5.0,96.0
2534,74.0,6,5,5.0,96.0
2535,66.0,6,6,0.0,80.0
2536,59.0,0,31,6.0,96.0
2537,65.0,6,6,0.0,80.0
2538,66.0,6,6,0.0,80.0
2539,62.0,0,10,3.0,80.0
2540,50.0,0,10,4.0,80.0
2541,62.0,0,10,6.0,96.0
2542,65.0,6,6,0.0,80.0
2543,74.0,0,24,5.0,96.0
2544,66.0,6,6,0.0,80.0
2545,61.0,0,10,3.0,80.0
2546,49.0,0,10,4.0,80.0
2547,61.0,0,10,6.0,96.0
2548,68.0,6,63,1.0,80.0
2549,65.0,6,16,0.0,80.0
2550,59.0,6,10,3.0,80.0
2551,47.0,0,10,4.0,80.0
2552,59.0,0,10,6.0,96.0
2553,73.0,0,31,5.0,96.0
2554,69.0,12,5,5.0,96.0
2555,57.0,12,21,3.0,80.0
2556,45.0,0,21,4.0,80.0
2557,57.0,0,21,6.0,96.0
2558,71.0,6,5,5.0,96.0
2559,73.0,0,10,5.0,96.0
2560,73.0,6,21,0.0,80.0
2561,69.0,0,21,1.0,80.0
2562,66.0,0,21,2.0,80.0
2563,54.0,0,21,3.0,80.0
2564,42.0,0,21,4.0,80.0
2565,54.0,0,21,6.0,96.0
2566,78.0,12,10,5.0,96.0
2567,73.0,0,10,5.0,96.0
2568,78.0,12,21,0.0,80.0
2569,73.0,0,21,1.0,80.0
2570,69.0,0,21,2.0,80.0
2571,69.0,12,10,5.0,96.0
2572,68.0,0,10,5.0,96.0
2573,65.0,12,5,5.0,96.0
2574,53.0,12,21,3.0,80.0
2575,41.0,0,21,4.0,80.0
2576,53.0,0,21,6.0,96.0
2577,66.0,6,5,5.0,96.0
2578,68.0,0,10,5.0,96.0
2579,73.0,6,21,0.0,80.0
2580,68.0,0,21,1.0,80.0
2581,65.0,0,21,2.0,80.0
2582,49.0,0,21,3.0,80.0
2583,37.0,0,21,4.0,80.0
2584,49.0,0,21,6.0,96.0
2585,71.0,12,10,5.0,96.0
2586,68.0,0,10,5.0,96.0
2587,80.0,12,21,0.0,80.0
2588,71.0,0,21,1.0,80.0
2589,61.0,0,21,2.0,80.0
2590,65.0,12,10,5.0,96.0
2591,61.0,0,10,5.0,96.0
2592,57.0,12,5,5.0,96.0
2593,45.0,12,21,3.0,80.0
2594,33.0,0,21,4.0,80.0
2595,45.0,0,21,6.0,96.0
2596,59.0,6,5,5.0,96.0
2597,61.0,0,10,5.0,96.0
2598,73.0,6,21,0.0,80.0
2599,69.0,0,21,1.0,80.0
2600,66.0,0,21,2.0,80.0
2601,42.0,0,21,3.0,80.0
2602,30.0,0,21,4.0,80.0
2603,42.0,0,21,6.0,96.0
2604,66.0,12,10,5.0,96.0
2605,61.0,0,10,5.0,96.0
2606,81.0,12,21,0.0,80.0
2607,73.0,0,21,1.0,80.0
2608,54.0,0,21,2.0,80.0
2609,57.0,12,10,5.0,96.0
2610,53.0,0,5,5.0,96.0
2611,54.0,6,5,5.0,96.0
2612,80.0,12,12,0.0,80.0
2613,56.0,0,5,5.0,96.0
2614,53.0,0,21,2.0,80.0
2615,49.0,0,21,3.0,80.0
2616,37.0,0,21,4.0,80.0
2617,49.0,0,21,6.0,96.0
2618,78.0,6,10,0.0,80.0
2619,57.0,6,5,5.0,96.0
2620,77.0,6,12,0.0,80.0
2621,73.0,0,42,1.0,80.0
2622,56.0,0,21,2.0,80.0
2623,37.0,0,21,3.0,80.0
2624,25.0,0,21,4.0,80.0
2625,37.0,0,21,6.0,96.0
2626,75.0,12,10,0.0,80.0
2627,73.0,12,12,0.0,80.0
2628,39.0,0,21,3.0,80.0
2629,27.0,0,21,4.0,80.0
2630,39.0,0,21,6.0,96.0
2631,71.0,12,10,0.0,80.0
2632,59.0,0,52,5.0,96.0
2633,65.0,12,5,5.0,96.0
2634,74.0,12,21,0.0,80.0
2635,41.0,0,21,3.0,80.0
2636,29.0,0,21,4.0,80.0
2637,41.0,0,21,6.0,96.0
2638,63.0,6,5,5.0,96.0
2639,65.0,0,10,5.0,96.0
2640,59.0,12,5,5.0,96.0
2641,65.0,0,42,1.0,80.0
2642,56.0,0,42,2.0,80.0
2643,71.0,6,21,0.0,80.0
2644,44.0,0,21,3.0,80.0
2645,32.0,0,21,4.0,80.0
2646,44.0,0,21,6.0,96.0
2647,58.0,6,5,5.0,96.0
2648,59.0,0,10,5.0,96.0
2649,66.0,12,5,5.0,96.0
2650,68.0,6,21,0.0,80.0
2651,47.0,0,21,3.0,80.0
2652,35.0,0,21,4.0,80.0
2653,47.0,0,21,6.0,96.0
2654,65.0,6,5,5.0,96.0
2655,66.0,0,10,5.0,96.0
2656,59.0,12,5,5.0,96.0
2657,71.0,6,21,0.0,80.0
2658,50.0,0,21,3.0,80.0
2659,38.0,0,21,4.0,80.0
2660,50.0,0,21,6.0,96.0
2661,58.0,6,5,5.0,96.0
2662,53.0,0,10,3.0,80.0
2663,41.0,0,10,4.0,80.0
2664,59.0,0,10,5.0,96.0
2665,53.0,0,10,6.0,96.0
2666,68.0,0,5,5.0,96.0
2667,66.0,0,42,1.0,80.0
2668,56.0,0,42,2.0,80.0
2669,68.0,6,21,0.0,80.0
2670,56.0,12,10,3.0,80.0
2671,44.0,0,10,4.0,80.0
2672,56.0,0,10,6.0,96.0
2673,66.0,6,5,5.0,96.0
2674,68.0,0,10,5.0,96.0
2675,59.0,0,10,6.0,96.0
2676,57.0,12,5,5.0,96.0
2677,65.0,6,21,0.0,80.0
2678,59.0,0,21,3.0,80.0
2679,47.0,0,21,4.0,80.0
2680,56.0,6,5,5.0,96.0
2681,57.0,0,10,5.0,96.0
2682,57.0,6,21,0.0,80.0
2683,57.0,0,21,1.0,80.0
2684,57.0,0,21,2.0,80.0
2685,45.0,0,21,3.0,80.0
2686,33.0,0,21,4.0,80.0
2687,45.0,0,21,6.0,96.0
2688,66.0,12,10,5.0,96.0
2689,62.0,0,10,5.0,96.0
2690,59.0,12,21,0.0,80.0
2691,59.0,0,21,1.0,80.0
2692,59.0,0,21,2.0,80.0
2693,47.0,0,21,3.0,80.0
2694,35.0,0,21,4.0,80.0
2695,47.0,0,21,6.0,96.0
2696,59.0,12,10,5.0,96.0
2697,56.0,0,10,5.0,96.0
2698,61.0,12,21,0.0,80.0
2699,61.0,0,21,1.0,80.0
2700,61.0,0,21,2.0,80.0
2701,49.0,0,21,3.0,80.0
2702,37.0,0,21,4.0,80.0
2703,49.0,0,21,6.0,96.0
2704,65.0,12,10,5.0,96.0
2705,66.0,0,31,5.0,96.0
2706,69.0,36,5,5.0,96.0
2707,66.0,12,42,0.0,80.0
2708,66.0,0,42,1.0,80.0
2709,54.0,0,42,2.0,80.0
2710,42.0,0,42,3.0,80.0
2711,30.0,0,42,4.0,80.0
2712,42.0,0,42,6.0,96.0
2713,67.0,6,5,5.0,96.0
2714,66.0,6,5,5.0,96.0
2715,64.0,6,5,5.0,96.0
2716,62.0,6,5,5.0,96.0
2717,61.0,6,5,5.0,96.0
2718,62.0,0,10,5.0,96.0
2719,62.0,6,12,0.0,96.0
2720,64.0,0,10,5.0,96.0
2721,64.0,12,12,0.0,96.0
2722,66.0,0,10,5.0,96.0
2723,66.0,12,12,0.0,96.0
2724,66.0,0,42,1.0,96.0
2725,57.0,0,42,2.0,96.0
2726,50.0,0,42,3.0,96.0
2727,38.0,0,42,4.0,96.0
2728,50.0,0,42,6.0,96.0
2729,69.0,12,10,0.0,96.0
2730,69.0,0,10,5.0,96.0
2731,74.0,12,6,0.0,96.0
2732,74.0,0,21,5.0,96.0
2733,74.0,0,10,5.0,96.0
2734,74.0,24,12,0.0,96.0
2735,69.0,0,21,1.0,96.0
2736,57.0,0,21,2.0,96.0
2737,54.0,0,21,3.0,96.0
2738,42.0,0,21,4.0,96.0
2739,54.0,0,21,6.0,96.0
2740,73.0,12,10,0.0,96.0
2741,73.0,0,10,5.0,96.0
2742,76.0,0,10,5.0,96.0
2743,76.0,12,12,0.0,96.0
2744,67.0,0,21,1.0,96.0
2745,61.0,0,21,2.0,96.0
2746,52.0,0,21,3.0,96.0
2747,40.0,0,21,4.0,96.0
2748,52.0,0,21,6.0,96.0
2749,74.0,12,10,0.0,96.0
2750,74.0,0,10,5.0,96.0
2751,73.0,0,10,5.0,96.0
2752,73.0,12,12,0.0,96.0
2753,69.0,0,21,1.0,96.0
2754,66.0,0,21,2.0,96.0
2755,50.0,0,21,3.0,96.0
2756,38.0,0,21,4.0,96.0
2757,50.0,0,21,6.0,96.0
2758,71.0,12,10,0.0,96.0
2759,71.0,0,10,5.0,96.0
2760,69.0,0,10,5.0,96.0
2761,69.0,12,12,0.0,96.0
2762,71.0,0,10,5.0,96.0
2763,71.0,12,12,0.0,96.0
2764,73.0,0,10,5.0,96.0
2765,73.0,12,12,0.0,96.0
2766,69.0,0,42,1.0,96.0
2767,64.0,0,42,2.0,96.0
2768,49.0,0,42,3.0,96.0
2769,37.0,0,42,4.0,96.0
2770,49.0,0,42,6.0,96.0
2771,76.0,12,10,0.0,96.0
2772,76.0,0,10,5.0,96.0
2773,79.0,12,6,0.0,96.0
2774,79.0,0,21,5.0,96.0
2775,69.0,0,21,1.0,96.0
2776,64.0,0,21,2.0,96.0
2777,49.0,0,21,3.0,96.0
2778,37.0,0,21,4.0,96.0
2779,49.0,0,21,6.0,96.0
2780,71.0,24,21,1.0,96.0
2781,62.0,0,21,2.0,96.0
2782,47.0,0,21,3.0,96.0
2783,35.0,0,21,4.0,96.0
2784,47.0,0,21,6.0,96.0
2785,79.0,24,63,0.0,96.0
2786,79.0,0,63,5.0,96.0
2787,73.0,24,21,1.0,96.0
2788,64.0,0,21,2.0,96.0
2789,45.0,0,21,3.0,96.0
2790,33.0,0,21,4.0,96.0
2791,45.0,0,21,6.0,96.0
2792,78.0,0,10,5.0,96.0
2793,78.0,24,12,0.0,96.0
2794,74.0,0,21,1.0,96.0
2795,50.0,0,21,3.0,96.0
2796,38.0,0,21,4.0,96.0
2797,50.0,0,21,6.0,96.0
2798,76.0,12,10,0.0,96.0
2799,76.0,0,10,5.0,96.0
2800,79.0,0,10,5.0,96.0
2801,79.0,12,12,0.0,96.0
2802,57.0,0,42,2.0,96.0
2803,69.0,0,21,1.0,96.0
2804,49.0,0,21,3.0,96.0
2805,37.0,0,21,4.0,96.0
2806,49.0,0,21,6.0,96.0
2807,78.0,12,10,0.0,96.0
2808,78.0,0,10,5.0,96.0
2809,76.0,0,10,5.0,96.0
2810,76.0,12,12,0.0,96.0
2811,68.0,0,21,1.0,96.0
2812,62.0,0,21,2.0,96.0
2813,47.0,0,21,3.0,96.0
2814,35.0,0,21,4.0,96.0
2815,47.0,0,21,6.0,96.0
2816,74.0,12,10,0.0,96.0
2817,74.0,0,10,5.0,96.0
2818,73.0,0,10,5.0,96.0
2819,73.0,12,12,0.0,96.0
2820,69.0,0,21,1.0,96.0
2821,45.0,0,21,3.0,96.0
2822,33.0,0,21,4.0,96.0
2823,45.0,0,21,6.0,96.0
2824,71.0,12,10,0.0,96.0
2825,71.0,0,10,5.0,96.0
2826,74.0,0,10,5.0,96.0
2827,74.0,12,12,0.0,96.0
2828,64.0,0,42,2.0,96.0
2829,64.0,0,21,1.0,96.0
2830,43.0,0,21,3.0,96.0
2831,31.0,0,21,4.0,96.0
2832,43.0,0,21,6.0,96.0
2833,73.0,12,10,0.0,96.0
2834,73.0,0,10,5.0,96.0
2835,71.0,0,10,5.0,96.0
2836,71.0,12,12,0.0,96.0
2837,66.0,0,21,1.0,96.0
2838,62.0,0,21,2.0,96.0
2839,42.0,0,21,3.0,96.0
2840,30.0,0,21,4.0,96.0
2841,42.0,0,21,6.0,96.0
2842,69.0,12,10,0.0,96.0
2843,69.0,0,10,5.0,96.0
2844,67.0,0,10,5.0,96.0
2845,67.0,12,12,0.0,96.0
2846,67.0,0,21,1.0,96.0
2847,61.0,0,21,2.0,96.0
2848,40.0,0,21,3.0,96.0
2849,28.0,0,21,4.0,96.0
2850,40.0,0,21,6.0,96.0
2851,66.0,12,10,0.0,96.0
2852,66.0,0,10,5.0,96.0
2853,69.0,0,10,5.0,96.0
2854,69.0,12,12,0.0,96.0
2855,64.0,0,21,1.0,96.0
2856,64.0,0,21,2.0,96.0
2857,49.0,0,21,3.0,96.0
2858,37.0,0,21,4.0,96.0
2859,49.0,0,21,6.0,96.0
2860,67.0,12,10,0.0,96.0
2861,67.0,0,10,5.0,96.0
2862,66.0,0,10,5.0,96.0
2863,66.0,12,12,0.0,96.0
2864,62.0,0,21,1.0,96.0
2865,57.0,0,21,2.0,96.0
2866,50.0,0,21,3.0,96.0
2867,38.0,0,21,4.0,96.0
2868,50.0,0,21,6.0,96.0
2869,67.0,12,10,0.0,96.0
2870,67.0,0,10,5.0,96.0
2871,64.0,0,10,5.0,96.0
2872,64.0,12,12,0.0,96.0
2873,61.0,0,21,1.0,96.0
2874,45.0,0,21,3.0,96.0
2875,33.0,0,21,4.0,96.0
2876,45.0,0,21,6.0,96.0
2877,62.0,0,10,5.0,96.0
2878,62.0,12,12,0.0,96.0
2879,57.0,0,31,2.0,96.0
2880,64.0,12,10,0.0,96.0
2881,64.0,0,10,5.0,96.0
2882,64.0,0,21,1.0,96.0
2883,49.0,0,21,3.0,96.0
2884,37.0,0,21,4.0,96.0
2885,49.0,0,21,6.0,96.0
2886,67.0,12,10,0.0,96.0
2887,59.0,0,10,2.0,96.0
2888,67.0,0,10,5.0,96.0
2889,66.0,12,10,0.0,96.0
2890,57.0,0,10,2.0,96.0
2891,66.0,0,10,5.0,96.0
2892,61.0,0,21,1.0,96.0
2893,45.0,0,21,3.0,96.0
2894,33.0,0,21,4.0,96.0
2895,45.0,0,21,6.0,96.0
2896,64.0,12,10,0.0,96.0
2897,55.0,0,10,2.0,96.0
2898,64.0,0,10,5.0,96.0
2899,62.0,0,10,5.0,96.0
2900,62.0,12,12,0.0,96.0
2901,57.0,0,21,1.0,96.0
2902,54.0,0,21,2.0,96.0
2903,38.0,0,21,3.0,96.0
2904,26.0,0,21,4.0,96.0
2905,38.0,0,21,6.0,96.0
2906,64.0,0,10,5.0,96.0
2907,64.0,12,12,0.0,96.0
2908,66.0,0,10,5.0,96.0
2909,66.0,12,12,0.0,96.0
2910,69.0,0,21,1.0,96.0
2911,62.0,0,21,2.0,96.0
2912,50.0,0,21,3.0,96.0
2913,38.0,0,21,4.0,96.0
2914,50.0,0,21,6.0,96.0
2915,69.0,12,10,0.0,96.0
2916,69.0,0,10,5.0,96.0
2917,74.0,12,6,0.0,96.0
2918,69.0,0,21,1.0,96.0
2919,66.0,0,21,2.0,96.0
2920,49.0,0,21,3.0,96.0
2921,37.0,0,21,4.0,96.0
2922,74.0,0,21,5.0,96.0
2923,49.0,0,21,6.0,96.0
2924,74.0,0,10,5.0,96.0
2925,74.0,24,12,0.0,96.0
2926,71.0,0,21,1.0,96.0
2927,47.0,0,21,3.0,96.0
2928,35.0,0,21,4.0,96.0
2929,47.0,0,21,6.0,96.0
2930,73.0,12,10,0.0,96.0
2931,73.0,0,10,5.0,96.0
2932,76.0,0,10,5.0,96.0
2933,76.0,12,12,0.0,96.0
2934,66.0,0,42,2.0,96.0
2935,66.0,0,21,1.0,96.0
2936,45.0,0,21,3.0,96.0
2937,33.0,0,21,4.0,96.0
2938,45.0,0,21,6.0,96.0
2939,74.0,12,10,0.0,96.0
2940,74.0,0,10,5.0,96.0
2941,73.0,0,10,5.0,96.0
2942,73.0,12,12,0.0,96.0
2943,67.0,0,21,1.0,96.0
2944,64.0,0,21,2.0,96.0
2945,43.0,0,21,3.0,96.0
2946,31.0,0,21,4.0,96.0
2947,43.0,0,21,6.0,96.0
2948,71.0,12,10,0.0,96.0
2949,71.0,0,10,5.0,96.0
2950,62.0,0,10,5.0,96.0
2951,62.0,12,12,0.0,96.0
2952,69.0,0,21,1.0,96.0
2953,62.0,0,21,2.0,96.0
2954,42.0,0,21,3.0,96.0
2955,30.0,0,21,4.0,96.0
2956,42.0,0,21,6.0,96.0
2957,64.0,0,10,5.0,96.0
2958,64.0,12,12,0.0,96.0
2959,66.0,0,10,5.0,96.0
2960,66.0,12,12,0.0,96.0
2961,72.0,0,21,1.0,96.0
2962,57.0,0,21,2.0,96.0
2963,40.0,0,21,3.0,96.0
2964,28.0,0,21,4.0,96.0
2965,40.0,0,21,6.0,96.0
2966,69.0,12,10,0.0,96.0
2967,69.0,0,10,5.0,96.0
2968,72.0,12,6,0.0,96.0
2969,69.0,0,21,1.0,96.0
2970,54.0,0,21,2.0,96.0
2971,38.0,0,21,3.0,96.0
2972,26.0,0,21,4.0,96.0
2973,72.0,0,21,5.0,96.0
2974,38.0,0,21,6.0,96.0
2975,66.0,0,21,1.0,96.0
2976,50.0,0,21,3.0,96.0
2977,38.0,0,21,4.0,96.0
2978,50.0,0,21,6.0,96.0
2979,67.0,24,21,1.0,96.0
2980,52.0,0,21,3.0,96.0
2981,40.0,0,21,4.0,96.0
2982,52.0,0,21,6.0,96.0
2983,72.0,24,63,0.0,96.0
2984,50.0,0,63,2.0,96.0
2985,72.0,0,63,5.0,96.0
2986,69.0,24,21,1.0,96.0
2987,54.0,0,21,3.0,96.0
2988,42.0,0,21,4.0,96.0
2989,54.0,0,21,6.0,96.0
2990,71.0,0,10,5.0,96.0
2991,71.0,24,12,0.0,96.0
2992,67.0,0,21,1.0,96.0
2993,62.0,0,21,2.0,96.0
2994,55.0,0,21,3.0,96.0
2995,43.0,0,21,4.0,96.0
2996,55.0,0,21,6.0,96.0
2997,74.0,12,10,0.0,96.0
2998,74.0,0,10,5.0,96.0
2999,79.0,0,10,5.0,96.0
3000,79.0,12,12,0.0,96.0
3001,71.0,0,21,1.0,96.0
3002,64.0,0,21,2.0,96.0
3003,52.0,0,21,3.0,96.0
3004,40.0,0,21,4.0,96.0
3005,52.0,0,21,6.0,96.0
3006,78.0,12,10,0.0,96.0
3007,78.0,0,10,5.0,96.0
3008,76.0,0,10,5.0,96.0
3009,76.0,12,12,0.0,96.0
3010,71.0,0,21,1.0,96.0
3011,64.0,0,21,2.0,96.0
3012,55.0,0,21,3.0,96.0
3013,43.0,0,21,4.0,96.0
3014,55.0,0,21,6.0,96.0
3015,74.0,12,10,0.0,96.0
3016,74.0,0,10,5.0,96.0
3017,73.0,0,10,5.0,96.0
3018,73.0,12,12,0.0,96.0
3019,69.0,0,21,1.0,96.0
3020,64.0,0,21,2.0,96.0
3021,57.0,0,21,3.0,96.0
3022,45.0,0,21,4.0,96.0
3023,57.0,0,21,6.0,96.0
3024,71.0,12,10,0.0,96.0
3025,71.0,0,10,5.0,96.0
3026,74.0,0,10,5.0,96.0
3027,74.0,12,12,0.0,96.0
3028,69.0,0,21,1.0,96.0
3029,64.0,0,21,2.0,96.0
3030,59.0,0,21,3.0,96.0
3031,47.0,0,21,4.0,96.0
3032,59.0,0,21,6.0,96.0
3033,73.0,12,10,0.0,96.0
3034,73.0,0,10,5.0,96.0
3035,71.0,0,10,5.0,96.0
3036,71.0,12,12,0.0,96.0
3037,69.0,0,21,1.0,96.0
3038,64.0,0,21,2.0,96.0
3039,61.0,0,21,3.0,96.0
3040,49.0,0,21,4.0,96.0
3041,61.0,0,21,6.0,96.0
3042,69.0,12,10,0.0,96.0
3043,69.0,0,10,5.0,96.0
3044,78.0,12,21,0.0,96.0
3045,69.0,0,21,1.0,96.0
3046,62.0,0,21,2.0,96.0
3047,62.0,0,21,3.0,96.0
3048,50.0,0,21,4.0,96.0
3049,78.0,0,21,5.0,96.0
3050,62.0,0,21,6.0,96.0
3051,79.0,24,21,0.0,96.0
3052,71.0,0,21,1.0,96.0
3053,62.0,0,21,2.0,96.0
3054,55.0,0,21,3.0,96.0
3055,43.0,0,21,4.0,96.0
3056,79.0,0,21,5.0,96.0
3057,55.0,0,21,6.0,96.0
3058,76.0,24,21,0.0,96.0
3059,69.0,0,21,1.0,96.0
3060,61.0,0,21,2.0,96.0
3061,57.0,0,21,3.0,96.0
3062,45.0,0,21,4.0,96.0
3063,76.0,0,21,5.0,96.0
3064,57.0,0,21,6.0,96.0
3065,74.0,24,72,0.0,96.0
3066,69.0,0,72,1.0,96.0
3067,66.0,0,72,2.0,96.0
3068,50.0,0,72,3.0,96.0
3069,38.0,0,72,4.0,96.0
3070,74.0,0,72,5.0,96.0
3071,50.0,0,72,6.0,96.0
