,note,step,duration,channel,velocity
0,57.0,384,192,0.0,0.0
1,50.0,192,384,0.0,0.0
2,53.0,192,192,0.0,0.0
3,53.0,384,192,0.0,0.0
4,57.0,192,384,0.0,0.0
5,58.0,192,192,0.0,0.0
6,58.0,384,192,0.0,0.0
7,57.0,192,384,0.0,0.0
8,55.0,192,192,0.0,0.0
9,55.0,288,192,0.0,0.0
10,53.0,48,288,0.0,0.0
11,53.0,48,48,0.0,0.0
12,52.0,144,48,0.0,0.0
13,53.0,48,144,0.0,0.0
14,55.0,64,48,0.0,0.0
15,57.0,64,64,0.0,0.0
16,72.0,64,192,0.0,0.0
17,55.0,64,64,0.0,0.0
18,57.0,0,64,0.0,0.0
19,58.0,64,64,0.0,0.0
20,65.0,64,384,0.0,0.0
21,57.0,64,64,0.0,0.0
22,55.0,64,64,0.0,0.0
23,53.0,64,64,0.0,0.0
24,55.0,64,64,0.0,0.0
25,52.0,0,64,0.0,0.0
26,50.0,64,64,0.0,0.0
27,52.0,64,64,0.0,0.0
28,49.0,0,64,0.0,0.0
29,69.0,64,0,0.0,0.0
30,50.0,64,64,0.0,0.0
31,57.0,64,64,0.0,0.0
32,62.0,64,64,0.0,0.0
33,72.0,64,384,0.0,0.0
34,60.0,64,64,0.0,0.0
35,62.0,64,64,0.0,0.0
36,58.0,64,64,0.0,0.0
37,57.0,64,64,0.0,0.0
38,58.0,64,64,0.0,0.0
39,55.0,0,64,0.0,0.0
40,74.0,64,192,0.0,0.0
41,53.0,64,64,0.0,0.0
42,55.0,64,64,0.0,0.0
43,52.0,0,64,0.0,0.0
44,53.0,64,64,0.0,0.0
45,74.0,0,192,0.0,0.0
46,50.0,64,64,0.0,0.0
47,52.0,64,64,0.0,0.0
48,53.0,64,64,0.0,0.0
49,72.0,0,384,0.0,0.0
50,57.0,64,64,0.0,0.0
51,55.0,64,64,0.0,0.0
52,57.0,64,64,0.0,0.0
53,58.0,64,64,0.0,0.0
54,60.0,64,64,0.0,0.0
55,62.0,64,64,0.0,0.0
56,64.0,64,64,0.0,0.0
57,61.0,64,64,0.0,0.0
58,70.0,0,0,0.0,0.0
59,62.0,64,64,0.0,0.0
60,50.0,64,64,0.0,0.0
61,62.0,64,128,0.0,0.0
62,61.0,64,64,0.0,0.0
63,64.0,64,64,0.0,0.0
64,62.0,32,64,0.0,0.0
65,64.0,16,64,0.0,0.0
66,69.0,32,0,0.0,0.0
67,65.0,0,64,0.0,0.0
68,67.0,64,48,0.0,0.0
69,64.0,64,64,0.0,0.0
70,69.0,48,144,0.0,0.0
71,65.0,16,64,0.0,0.0
72,62.0,0,64,0.0,0.0
73,71.0,64,48,0.0,0.0
74,72.0,64,64,0.0,0.0
75,60.0,64,192,0.0,0.0
76,70.0,64,64,0.0,0.0
77,72.0,0,64,0.0,0.0
78,74.0,64,64,0.0,0.0
79,53.0,64,384,0.0,0.0
80,72.0,64,64,0.0,0.0
81,70.0,64,64,0.0,0.0
82,69.0,64,64,0.0,0.0
83,70.0,64,64,0.0,0.0
84,67.0,0,64,0.0,0.0
85,65.0,64,64,0.0,0.0
86,67.0,64,64,0.0,0.0
87,64.0,0,64,0.0,0.0
88,65.0,64,64,0.0,0.0
89,57.0,64,0,0.0,0.0
90,72.0,64,64,0.0,0.0
91,77.0,64,64,0.0,0.0
92,76.0,64,64,0.0,0.0
93,60.0,64,384,0.0,0.0
94,77.0,64,64,0.0,0.0
95,74.0,64,64,0.0,0.0
96,72.0,64,64,0.0,0.0
97,74.0,64,64,0.0,0.0
98,70.0,0,64,0.0,0.0
99,69.0,64,64,0.0,0.0
100,70.0,64,64,0.0,0.0
101,67.0,64,64,0.0,0.0
102,62.0,0,0,0.0,0.0
103,69.0,64,64,0.0,0.0
104,65.0,64,64,0.0,0.0
105,67.0,0,64,0.0,0.0
106,69.0,64,64,0.0,0.0
107,60.0,64,384,0.0,0.0
108,72.0,64,64,0.0,0.0
109,70.0,64,64,0.0,0.0
110,72.0,64,64,0.0,0.0
111,74.0,64,64,0.0,0.0
112,76.0,0,64,0.0,0.0
113,77.0,64,64,0.0,0.0
114,79.0,64,64,0.0,0.0
115,76.0,0,64,0.0,0.0
116,58.0,64,0,0.0,0.0
117,77.0,64,64,0.0,0.0
118,65.0,64,64,0.0,0.0
119,77.0,64,128,0.0,0.0
120,76.0,64,64,0.0,0.0
121,79.0,64,64,0.0,0.0
122,77.0,32,64,0.0,0.0
123,79.0,16,64,0.0,0.0
124,57.0,32,0,0.0,0.0
125,81.0,0,64,0.0,0.0
126,55.0,64,48,0.0,0.0
127,79.0,64,64,0.0,0.0
128,57.0,48,144,0.0,0.0
129,81.0,16,64,0.0,0.0
130,77.0,0,64,0.0,0.0
131,59.0,64,48,0.0,0.0
132,76.0,64,192,0.0,0.0
133,60.0,64,64,0.0,0.0
134,59.0,64,64,0.0,0.0
135,60.0,64,128,0.0,0.0
136,69.0,0,384,0.0,0.0
137,62.0,64,64,0.0,0.0
138,64.0,64,64,0.0,0.0
139,62.0,64,64,0.0,0.0
140,64.0,64,64,0.0,0.0
141,65.0,64,64,0.0,0.0
142,72.0,0,192,0.0,0.0
143,64.0,64,64,0.0,0.0
144,65.0,64,64,0.0,0.0
145,67.0,64,64,0.0,0.0
146,65.0,64,64,0.0,0.0
147,72.0,64,192,0.0,0.0
148,67.0,64,64,0.0,0.0
149,69.0,0,64,0.0,0.0
150,67.0,64,64,0.0,0.0
151,76.0,64,384,0.0,0.0
152,69.0,64,64,0.0,0.0
153,70.0,64,64,0.0,0.0
154,69.0,64,64,0.0,0.0
155,67.0,64,64,0.0,0.0
156,69.0,64,128,0.0,0.0
157,77.0,64,192,0.0,0.0
158,65.0,64,64,0.0,0.0
159,62.0,0,64,0.0,0.0
160,58.0,64,64,0.0,0.0
161,77.0,64,192,0.0,0.0
162,57.0,64,64,0.0,0.0
163,58.0,64,128,0.0,0.0
164,76.0,64,384,0.0,0.0
165,67.0,64,64,0.0,0.0
166,58.0,64,64,0.0,0.0
167,57.0,64,64,0.0,0.0
168,55.0,64,64,0.0,0.0
169,57.0,64,128,0.0,0.0
170,74.0,64,192,0.0,0.0
171,65.0,64,64,0.0,0.0
172,57.0,0,64,0.0,0.0
173,55.0,64,64,0.0,0.0
174,74.0,64,192,0.0,0.0
175,53.0,64,64,0.0,0.0
176,55.0,64,128,0.0,0.0
177,64.0,64,64,0.0,0.0
178,55.0,64,64,0.0,0.0
179,53.0,32,64,0.0,0.0
180,52.0,16,64,0.0,0.0
181,72.0,32,0,0.0,0.0
182,53.0,64,128,0.0,0.0
183,71.0,64,48,0.0,0.0
184,72.0,48,144,0.0,0.0
185,52.0,16,64,0.0,0.0
186,50.0,0,64,0.0,0.0
187,74.0,64,48,0.0,0.0
188,76.0,64,64,0.0,0.0
189,55.0,48,144,0.0,0.0
190,74.0,16,64,0.0,0.0
191,76.0,64,128,0.0,0.0
192,52.0,64,48,0.0,0.0
193,48.0,0,192,0.0,0.0
194,77.0,64,64,0.0,0.0
195,79.0,64,64,0.0,0.0
196,77.0,64,64,0.0,0.0
197,79.0,64,64,0.0,0.0
198,81.0,64,64,0.0,0.0
199,79.0,64,64,0.0,0.0
200,81.0,64,64,0.0,0.0
201,82.0,0,64,0.0,0.0
202,81.0,32,64,0.0,0.0
203,60.0,64,0,0.0,0.0
204,58.0,32,32,0.0,0.0
205,82.0,32,64,0.0,0.0
206,57.0,0,32,0.0,0.0
207,84.0,64,64,0.0,0.0
208,55.0,32,32,0.0,0.0
209,53.0,0,32,0.0,0.0
210,82.0,64,64,0.0,0.0
211,84.0,64,64,0.0,0.0
212,86.0,64,64,0.0,0.0
213,84.0,32,64,0.0,0.0
214,82.0,16,64,0.0,0.0
215,64.0,32,0,0.0,0.0
216,84.0,64,128,0.0,0.0
217,60.0,64,48,0.0,0.0
218,81.0,64,64,0.0,0.0
219,77.0,64,64,0.0,0.0
220,65.0,0,0,0.0,0.0
221,74.0,64,64,0.0,0.0
222,72.0,64,64,0.0,0.0
223,74.0,64,128,0.0,0.0
224,64.0,64,192,0.0,0.0
225,82.0,64,64,0.0,0.0
226,74.0,0,64,0.0,0.0
227,72.0,64,64,0.0,0.0
228,63.0,64,192,0.0,0.0
229,70.0,64,64,0.0,0.0
230,72.0,64,128,0.0,0.0
231,62.0,64,192,0.0,0.0
232,81.0,64,64,0.0,0.0
233,72.0,0,64,0.0,0.0
234,70.0,64,64,0.0,0.0
235,61.0,64,192,0.0,0.0
236,69.0,64,64,0.0,0.0
237,70.0,64,128,0.0,0.0
238,79.0,64,64,0.0,0.0
239,70.0,64,64,0.0,0.0
240,69.0,32,64,0.0,0.0
241,67.0,16,64,0.0,0.0
242,60.0,32,0,0.0,0.0
243,69.0,64,128,0.0,0.0
244,65.0,64,48,0.0,0.0
245,59.0,0,64,0.0,0.0
246,61.0,0,64,0.0,0.0
247,67.0,64,64,0.0,0.0
248,65.0,0,64,0.0,0.0
249,70.0,48,144,0.0,0.0
250,62.0,64,0,0.0,0.0
251,61.0,32,32,0.0,0.0
252,59.0,16,32,0.0,0.0
253,61.0,96,64,0.0,0.0
254,67.0,0,48,0.0,0.0
255,64.0,32,192,0.0,0.0
256,70.0,32,32,0.0,0.0
257,69.0,32,32,0.0,0.0
258,67.0,32,32,0.0,0.0
259,65.0,0,32,0.0,0.0
260,64.0,32,32,0.0,0.0
261,65.0,32,32,0.0,0.0
262,67.0,32,32,0.0,0.0
263,65.0,32,32,0.0,0.0
264,64.0,32,32,0.0,0.0
265,62.0,64,32,0.0,0.0
266,76.0,0,192,0.0,0.0
267,61.0,64,64,0.0,0.0
268,64.0,64,64,0.0,0.0
269,67.0,64,64,0.0,0.0
270,76.0,0,64,0.0,0.0
271,57.0,32,64,0.0,0.0
272,74.0,32,32,0.0,0.0
273,61.0,32,64,0.0,0.0
274,73.0,0,32,0.0,0.0
275,71.0,32,32,0.0,0.0
276,64.0,0,64,0.0,0.0
277,69.0,128,32,0.0,0.0
278,61.0,64,64,0.0,0.0
279,62.0,64,64,0.0,0.0
280,64.0,32,64,0.0,0.0
281,65.0,16,64,0.0,0.0
282,79.0,32,0,0.0,0.0
283,67.0,32,96,0.0,0.0
284,76.0,32,48,0.0,0.0
285,65.0,32,32,0.0,0.0
286,64.0,32,32,0.0,0.0
287,65.0,32,32,0.0,0.0
288,67.0,32,32,0.0,0.0
289,64.0,0,32,0.0,0.0
290,81.0,32,0,0.0,0.0
291,65.0,32,32,0.0,0.0
292,64.0,32,32,0.0,0.0
293,62.0,32,32,0.0,0.0
294,61.0,64,32,0.0,0.0
295,62.0,64,128,0.0,0.0
296,80.0,0,192,0.0,0.0
297,61.0,64,64,0.0,0.0
298,59.0,32,64,0.0,0.0
299,79.0,64,192,0.0,0.0
300,61.0,32,32,0.0,0.0
301,59.0,32,32,0.0,0.0
302,57.0,32,32,0.0,0.0
303,59.0,64,32,0.0,0.0
304,60.0,64,128,0.0,0.0
305,78.0,32,192,0.0,0.0
306,59.0,64,64,0.0,0.0
307,57.0,0,64,0.0,0.0
308,77.0,64,192,0.0,0.0
309,59.0,32,32,0.0,0.0
310,57.0,32,32,0.0,0.0
311,55.0,32,32,0.0,0.0
312,57.0,64,32,0.0,0.0
313,58.0,64,128,0.0,0.0
314,57.0,64,64,0.0,0.0
315,56.0,96,64,0.0,0.0
316,57.0,32,288,0.0,0.0
317,76.0,48,0,0.0,0.0
318,81.0,64,48,0.0,0.0
319,74.0,32,64,0.0,0.0
320,76.0,64,64,0.0,0.0
321,68.0,0,48,0.0,0.0
322,77.0,64,0,0.0,0.0
323,69.0,48,144,0.0,0.0
324,76.0,32,32,0.0,0.0
325,74.0,16,32,0.0,0.0
326,76.0,0,64,0.0,0.0
327,57.0,96,48,0.0,0.0
328,62.0,32,256,0.0,0.0
329,86.0,32,32,0.0,0.0
330,84.0,32,32,0.0,0.0
331,82.0,32,32,0.0,0.0
332,81.0,32,32,0.0,0.0
333,79.0,32,32,0.0,0.0
334,81.0,0,32,0.0,0.0
335,82.0,32,32,0.0,0.0
336,61.0,0,64,0.0,0.0
337,81.0,32,32,0.0,0.0
338,79.0,32,32,0.0,0.0
339,62.0,64,64,0.0,0.0
340,77.0,0,32,0.0,0.0
341,76.0,64,64,0.0,0.0
342,79.0,64,64,0.0,0.0
343,82.0,64,64,0.0,0.0
344,73.0,0,64,0.0,0.0
345,67.0,0,0,0.0,0.0
346,65.0,32,32,0.0,0.0
347,76.0,32,64,0.0,0.0
348,64.0,0,32,0.0,0.0
349,62.0,32,32,0.0,0.0
350,79.0,0,64,0.0,0.0
351,61.0,128,32,0.0,0.0
352,76.0,64,64,0.0,0.0
353,77.0,64,64,0.0,0.0
354,79.0,32,64,0.0,0.0
355,81.0,16,64,0.0,0.0
356,70.0,32,0,0.0,0.0
357,82.0,32,96,0.0,0.0
358,62.0,32,48,0.0,0.0
359,61.0,32,64,0.0,0.0
360,81.0,0,32,0.0,0.0
361,79.0,32,32,0.0,0.0
362,62.0,0,64,0.0,0.0
363,81.0,32,32,0.0,0.0
364,82.0,32,32,0.0,0.0
365,79.0,0,32,0.0,0.0
366,64.0,32,0,0.0,0.0
367,81.0,32,32,0.0,0.0
368,79.0,0,32,0.0,0.0
369,69.0,0,64,0.0,0.0
370,77.0,32,32,0.0,0.0
371,76.0,64,32,0.0,0.0
372,62.0,64,64,0.0,0.0
373,77.0,64,128,0.0,0.0
374,76.0,64,64,0.0,0.0
375,75.0,32,64,0.0,0.0
376,76.0,32,32,0.0,0.0
377,74.0,32,32,0.0,0.0
378,72.0,32,32,0.0,0.0
379,67.0,0,0,0.0,0.0
380,74.0,16,32,0.0,0.0
381,75.0,64,128,0.0,0.0
382,57.0,64,48,0.0,0.0
383,74.0,64,64,0.0,0.0
384,73.0,0,64,0.0,0.0
385,65.0,32,0,0.0,0.0
386,74.0,32,32,0.0,0.0
387,72.0,32,32,0.0,0.0
388,70.0,32,32,0.0,0.0
389,72.0,16,32,0.0,0.0
390,73.0,64,128,0.0,0.0
391,55.0,64,48,0.0,0.0
392,64.0,64,256,0.0,0.0
393,72.0,64,64,0.0,0.0
394,71.0,64,64,0.0,0.0
395,72.0,32,288,0.0,0.0
396,62.0,64,64,0.0,0.0
397,60.0,64,64,0.0,0.0
398,62.0,32,64,0.0,0.0
399,64.0,64,64,0.0,0.0
400,65.0,0,64,0.0,0.0
401,83.0,64,48,0.0,0.0
402,64.0,64,64,0.0,0.0
403,84.0,48,144,0.0,0.0
404,57.0,16,64,0.0,0.0
405,72.0,64,48,0.0,0.0
406,77.0,64,256,0.0,0.0
407,70.0,32,32,0.0,0.0
408,69.0,32,32,0.0,0.0
409,67.0,32,32,0.0,0.0
410,65.0,32,32,0.0,0.0
411,64.0,64,32,0.0,0.0
412,76.0,64,64,0.0,0.0
413,77.0,0,64,0.0,0.0
414,62.0,32,0,0.0,0.0
415,82.0,64,192,0.0,0.0
416,65.0,32,32,0.0,0.0
417,67.0,32,32,0.0,0.0
418,65.0,32,32,0.0,0.0
419,64.0,32,32,0.0,0.0
420,62.0,0,32,0.0,0.0
421,61.0,0,64,0.0,0.0
422,82.0,32,64,0.0,0.0
423,62.0,0,64,0.0,0.0
424,81.0,32,32,0.0,0.0
425,79.0,32,32,0.0,0.0
426,77.0,32,32,0.0,0.0
427,64.0,0,64,0.0,0.0
428,76.0,32,32,0.0,0.0
429,65.0,32,32,0.0,0.0
430,86.0,32,288,0.0,0.0
431,64.0,32,32,0.0,0.0
432,62.0,32,32,0.0,0.0
433,64.0,64,32,0.0,0.0
434,65.0,64,64,0.0,0.0
435,67.0,32,64,0.0,0.0
436,69.0,16,64,0.0,0.0
437,86.0,48,48,0.0,0.0
438,70.0,0,128,0.0,0.0
439,77.0,64,48,0.0,0.0
440,76.0,64,64,0.0,0.0
441,69.0,64,64,0.0,0.0
442,77.0,0,64,0.0,0.0
443,67.0,0,64,0.0,0.0
444,79.0,32,0,0.0,0.0
445,69.0,32,32,0.0,0.0
446,67.0,32,32,0.0,0.0
447,84.0,0,64,0.0,0.0
448,65.0,32,32,0.0,0.0
449,64.0,64,32,0.0,0.0
450,77.0,64,64,0.0,0.0
451,65.0,64,128,0.0,0.0
452,82.0,32,288,0.0,0.0
453,67.0,64,64,0.0,0.0
454,65.0,64,64,0.0,0.0
455,64.0,32,64,0.0,0.0
456,62.0,16,64,0.0,0.0
457,82.0,48,48,0.0,0.0
458,64.0,32,128,0.0,0.0
459,72.0,64,48,0.0,0.0
460,81.0,64,192,0.0,0.0
461,62.0,32,32,0.0,0.0
462,60.0,32,32,0.0,0.0
463,58.0,32,32,0.0,0.0
464,57.0,0,32,0.0,0.0
465,62.0,64,64,0.0,0.0
466,81.0,48,144,0.0,0.0
467,61.0,16,64,0.0,0.0
468,62.0,64,128,0.0,0.0
469,70.0,64,48,0.0,0.0
470,79.0,0,256,0.0,0.0
471,64.0,64,64,0.0,0.0
472,62.0,64,64,0.0,0.0
473,61.0,64,64,0.0,0.0
474,62.0,0,64,0.0,0.0
475,77.0,64,64,0.0,0.0
476,64.0,0,64,0.0,0.0
477,76.0,64,64,0.0,0.0
478,77.0,64,64,0.0,0.0
479,57.0,0,64,0.0,0.0
480,61.0,0,64,0.0,0.0
481,79.0,64,64,0.0,0.0
482,59.0,0,64,0.0,0.0
483,81.0,32,64,0.0,0.0
484,61.0,32,32,0.0,0.0
485,79.0,0,64,0.0,0.0
486,62.0,32,32,0.0,0.0
487,64.0,32,32,0.0,0.0
488,73.0,32,64,0.0,0.0
489,65.0,0,32,0.0,0.0
490,67.0,32,32,0.0,0.0
491,64.0,32,32,0.0,0.0
492,65.0,32,32,0.0,0.0
493,67.0,0,32,0.0,0.0
494,86.0,32,32,0.0,0.0
495,85.0,32,32,0.0,0.0
496,69.0,0,64,0.0,0.0
497,83.0,32,32,0.0,0.0
498,81.0,32,32,0.0,0.0
499,61.0,32,64,0.0,0.0
500,79.0,0,32,0.0,0.0
501,77.0,0,192,0.0,0.0
502,62.0,32,32,0.0,0.0
503,65.0,32,32,0.0,0.0
504,64.0,32,32,0.0,0.0
505,62.0,32,32,0.0,0.0
506,61.0,32,32,0.0,0.0
507,59.0,32,32,0.0,0.0
508,77.0,32,32,0.0,0.0
509,57.0,32,64,0.0,0.0
510,81.0,0,32,0.0,0.0
511,82.0,32,32,0.0,0.0
512,61.0,32,64,0.0,0.0
513,81.0,0,32,0.0,0.0
514,64.0,64,64,0.0,0.0
515,79.0,32,32,0.0,0.0
516,77.0,0,32,0.0,0.0
517,69.0,0,384,0.0,0.0
518,76.0,64,64,0.0,0.0
519,77.0,64,64,0.0,0.0
520,79.0,32,64,0.0,0.0
521,81.0,32,32,0.0,0.0
522,79.0,32,32,0.0,0.0
523,77.0,32,32,0.0,0.0
524,79.0,64,32,0.0,0.0
525,81.0,64,64,0.0,0.0
526,69.0,0,64,0.0,0.0
527,83.0,64,64,0.0,0.0
528,67.0,0,64,0.0,0.0
529,85.0,64,64,0.0,0.0
530,65.0,64,64,0.0,0.0
531,86.0,64,128,0.0,0.0
532,64.0,32,192,0.0,0.0
533,84.0,64,64,0.0,0.0
534,83.0,0,64,0.0,0.0
535,84.0,32,32,0.0,0.0
536,64.0,48,144,0.0,0.0
537,83.0,32,32,0.0,0.0
538,81.0,32,32,0.0,0.0
539,80.0,16,32,0.0,0.0
540,81.0,64,128,0.0,0.0
541,69.0,64,48,0.0,0.0
542,62.0,32,288,0.0,0.0
543,82.0,64,64,0.0,0.0
544,81.0,64,64,0.0,0.0
545,79.0,32,64,0.0,0.0
546,78.0,16,64,0.0,0.0
547,62.0,48,48,0.0,0.0
548,79.0,0,128,0.0,0.0
549,70.0,64,48,0.0,0.0
550,61.0,32,64,0.0,0.0
551,64.0,0,64,0.0,0.0
552,77.0,32,32,0.0,0.0
553,76.0,32,32,0.0,0.0
554,69.0,64,64,0.0,0.0
555,74.0,32,32,0.0,0.0
556,73.0,0,32,0.0,0.0
557,77.0,64,64,0.0,0.0
558,57.0,48,144,0.0,0.0
559,76.0,16,64,0.0,0.0
560,77.0,64,128,0.0,0.0
561,62.0,64,48,0.0,0.0
562,58.0,64,256,0.0,0.0
563,79.0,64,64,0.0,0.0
564,77.0,64,64,0.0,0.0
565,76.0,0,64,0.0,0.0
566,57.0,0,64,0.0,0.0
567,77.0,64,64,0.0,0.0
568,79.0,0,64,0.0,0.0
569,55.0,64,64,0.0,0.0
570,72.0,64,64,0.0,0.0
571,76.0,64,64,0.0,0.0
572,74.0,0,64,0.0,0.0
573,57.0,32,0,0.0,0.0
574,76.0,32,32,0.0,0.0
575,77.0,0,32,0.0,0.0
576,79.0,32,32,0.0,0.0
577,64.0,0,64,0.0,0.0
578,81.0,32,32,0.0,0.0
579,60.0,32,64,0.0,0.0
580,82.0,32,32,0.0,0.0
581,79.0,0,32,0.0,0.0
582,81.0,32,32,0.0,0.0
583,82.0,0,32,0.0,0.0
584,70.0,64,24,0.0,0.0
585,84.0,64,64,0.0,0.0
586,69.0,0,64,0.0,0.0
587,76.0,24,64,0.0,0.0
588,67.0,0,64,0.0,0.0
589,69.0,8,24,0.0,0.0
590,77.0,32,32,0.0,0.0
591,65.0,8,192,0.0,0.0
592,81.0,32,32,0.0,0.0
593,79.0,32,32,0.0,0.0
594,77.0,32,32,0.0,0.0
595,76.0,32,32,0.0,0.0
596,74.0,24,32,0.0,0.0
597,72.0,32,64,0.0,0.0
598,65.0,32,8,0.0,0.0
599,69.0,0,32,0.0,0.0
600,67.0,32,32,0.0,0.0
601,76.0,32,64,0.0,0.0
602,65.0,0,32,0.0,0.0
603,79.0,32,64,0.0,0.0
604,64.0,32,32,0.0,0.0
605,62.0,0,32,0.0,0.0
606,60.0,32,32,0.0,0.0
607,58.0,32,32,0.0,0.0
608,57.0,32,32,0.0,0.0
609,58.0,32,32,0.0,0.0
610,60.0,32,32,0.0,0.0
611,62.0,32,32,0.0,0.0
612,64.0,32,32,0.0,0.0
613,62.0,32,32,0.0,0.0
614,64.0,32,32,0.0,0.0
615,66.0,32,32,0.0,0.0
616,67.0,32,32,0.0,0.0
617,64.0,0,32,0.0,0.0
618,84.0,32,0,0.0,0.0
619,66.0,32,32,0.0,0.0
620,62.0,0,32,0.0,0.0
621,64.0,32,32,0.0,0.0
622,82.0,32,64,0.0,0.0
623,66.0,0,32,0.0,0.0
624,67.0,32,32,0.0,0.0
625,81.0,32,64,0.0,0.0
626,69.0,0,32,0.0,0.0
627,70.0,32,32,0.0,0.0
628,79.0,32,192,0.0,0.0
629,69.0,32,32,0.0,0.0
630,67.0,32,32,0.0,0.0
631,65.0,32,32,0.0,0.0
632,64.0,32,32,0.0,0.0
633,62.0,0,32,0.0,0.0
634,60.0,32,32,0.0,0.0
635,79.0,16,144,0.0,0.0
636,64.0,32,32,0.0,0.0
637,67.0,32,32,0.0,0.0
638,70.0,16,32,0.0,0.0
639,69.0,32,32,0.0,0.0
640,84.0,0,48,0.0,0.0
641,67.0,32,32,0.0,0.0
642,69.0,32,32,0.0,0.0
643,67.0,32,32,0.0,0.0
644,65.0,32,32,0.0,0.0
645,64.0,32,32,0.0,0.0
646,62.0,32,32,0.0,0.0
647,60.0,32,32,0.0,0.0
648,58.0,32,32,0.0,0.0
649,60.0,32,32,0.0,0.0
650,58.0,0,32,0.0,0.0
651,57.0,16,32,0.0,0.0
652,77.0,32,0,0.0,0.0
653,55.0,32,32,0.0,0.0
654,86.0,0,48,0.0,0.0
655,53.0,32,32,0.0,0.0
656,76.0,32,64,0.0,0.0
657,55.0,32,32,0.0,0.0
658,58.0,0,32,0.0,0.0
659,57.0,32,32,0.0,0.0
660,79.0,32,64,0.0,0.0
661,55.0,0,32,0.0,0.0
662,85.0,0,64,0.0,0.0
663,53.0,32,32,0.0,0.0
664,52.0,32,32,0.0,0.0
665,69.0,0,192,0.0,0.0
666,53.0,32,32,0.0,0.0
667,50.0,32,32,0.0,0.0
668,52.0,32,32,0.0,0.0
669,53.0,32,32,0.0,0.0
670,55.0,32,32,0.0,0.0
671,57.0,64,32,0.0,0.0
672,58.0,64,64,0.0,0.0
673,62.0,0,384,0.0,0.0
674,57.0,64,64,0.0,0.0
675,55.0,64,64,0.0,0.0
676,53.0,64,64,0.0,0.0
677,55.0,64,64,0.0,0.0
678,52.0,64,64,0.0,0.0
679,50.0,64,64,0.0,0.0
680,52.0,64,64,0.0,0.0
681,49.0,32,64,0.0,0.0
682,65.0,0,0,0.0,0.0
683,50.0,32,32,0.0,0.0
684,52.0,32,32,0.0,0.0
685,53.0,32,32,0.0,0.0
686,55.0,32,32,0.0,0.0
687,57.0,32,32,0.0,0.0
688,58.0,64,32,0.0,0.0
689,69.0,0,384,0.0,0.0
690,60.0,64,64,0.0,0.0
691,62.0,64,64,0.0,0.0
692,58.0,64,64,0.0,0.0
693,57.0,64,64,0.0,0.0
694,58.0,64,64,0.0,0.0
695,55.0,64,64,0.0,0.0
696,53.0,64,64,0.0,0.0
697,55.0,64,64,0.0,0.0
698,52.0,0,64,0.0,0.0
699,53.0,32,32,0.0,0.0
700,70.0,32,0,0.0,0.0
701,57.0,32,32,0.0,0.0
702,58.0,32,32,0.0,0.0
703,60.0,32,32,0.0,0.0
704,62.0,32,32,0.0,0.0
705,64.0,0,32,0.0,0.0
706,65.0,64,64,0.0,0.0
707,69.0,0,384,0.0,0.0
708,67.0,64,64,0.0,0.0
709,64.0,64,64,0.0,0.0
710,62.0,64,64,0.0,0.0
711,61.0,64,64,0.0,0.0
712,62.0,64,64,0.0,0.0
713,67.0,0,192,0.0,0.0
714,64.0,64,64,0.0,0.0
715,65.0,64,64,0.0,0.0
716,62.0,64,64,0.0,0.0
717,61.0,64,64,0.0,0.0
718,67.0,0,192,0.0,0.0
719,59.0,64,64,0.0,0.0
720,61.0,64,64,0.0,0.0
721,62.0,64,64,0.0,0.0
722,64.0,72,64,0.0,0.0
723,60.0,16,72,0.0,0.0
724,60.0,24,16,0.0,0.0
725,58.0,24,24,0.0,0.0
726,60.0,24,24,0.0,0.0
727,58.0,24,24,0.0,0.0
728,65.0,0,0,0.0,0.0
729,60.0,24,24,0.0,0.0
730,58.0,0,24,0.0,0.0
731,60.0,24,24,0.0,0.0
732,64.0,0,48,0.0,0.0
733,58.0,24,24,0.0,0.0
734,65.0,24,144,0.0,0.0
735,60.0,24,24,0.0,0.0
736,58.0,24,24,0.0,0.0
737,60.0,24,24,0.0,0.0
738,58.0,24,24,0.0,0.0
739,60.0,24,24,0.0,0.0
740,58.0,0,24,0.0,0.0
741,67.0,0,48,0.0,0.0
742,57.0,24,24,0.0,0.0
743,58.0,64,24,0.0,0.0
744,69.0,64,64,0.0,0.0
745,57.0,0,192,0.0,0.0
746,67.0,64,64,0.0,0.0
747,69.0,64,64,0.0,0.0
748,50.0,0,384,0.0,0.0
749,70.0,64,64,0.0,0.0
750,69.0,64,64,0.0,0.0
751,67.0,64,64,0.0,0.0
752,65.0,64,64,0.0,0.0
753,67.0,64,64,0.0,0.0
754,64.0,64,64,0.0,0.0
755,62.0,64,64,0.0,0.0
756,53.0,0,192,0.0,0.0
757,64.0,64,64,0.0,0.0
758,61.0,64,64,0.0,0.0
759,53.0,64,192,0.0,0.0
760,62.0,64,64,0.0,0.0
761,69.0,64,64,0.0,0.0
762,74.0,0,64,0.0,0.0
763,72.0,64,64,0.0,0.0
764,57.0,0,384,0.0,0.0
765,74.0,64,64,0.0,0.0
766,70.0,64,64,0.0,0.0
767,69.0,64,64,0.0,0.0
768,70.0,64,64,0.0,0.0
769,67.0,64,64,0.0,0.0
770,65.0,64,64,0.0,0.0
771,58.0,0,192,0.0,0.0
772,67.0,64,64,0.0,0.0
773,64.0,64,64,0.0,0.0
774,58.0,64,192,0.0,0.0
775,65.0,64,64,0.0,0.0
776,62.0,64,64,0.0,0.0
777,64.0,0,64,0.0,0.0
778,65.0,64,64,0.0,0.0
779,57.0,64,384,0.0,0.0
780,69.0,64,64,0.0,0.0
781,67.0,64,64,0.0,0.0
782,69.0,64,64,0.0,0.0
783,71.0,64,64,0.0,0.0
784,73.0,0,64,0.0,0.0
785,74.0,64,64,0.0,0.0
786,76.0,64,64,0.0,0.0
787,73.0,64,64,0.0,0.0
788,55.0,0,0,0.0,0.0
789,74.0,64,64,0.0,0.0
790,62.0,64,64,0.0,0.0
791,74.0,64,128,0.0,0.0
792,73.0,64,64,0.0,0.0
793,76.0,64,64,0.0,0.0
794,74.0,32,64,0.0,0.0
795,76.0,16,64,0.0,0.0
796,53.0,32,0,0.0,0.0
797,77.0,64,64,0.0,0.0
798,52.0,0,48,0.0,0.0
799,53.0,48,144,0.0,0.0
800,76.0,64,64,0.0,0.0
801,77.0,16,64,0.0,0.0
802,74.0,0,64,0.0,0.0
803,55.0,64,48,0.0,0.0
804,72.0,64,192,0.0,0.0
805,57.0,64,64,0.0,0.0
806,55.0,64,64,0.0,0.0
807,57.0,0,64,0.0,0.0
808,58.0,64,64,0.0,0.0
809,65.0,64,384,0.0,0.0
810,57.0,64,64,0.0,0.0
811,55.0,64,64,0.0,0.0
812,53.0,64,64,0.0,0.0
813,55.0,64,64,0.0,0.0
814,52.0,0,64,0.0,0.0
815,69.0,0,192,0.0,0.0
816,50.0,64,64,0.0,0.0
817,52.0,64,64,0.0,0.0
818,49.0,64,64,0.0,0.0
819,50.0,64,64,0.0,0.0
820,69.0,0,192,0.0,0.0
821,57.0,64,64,0.0,0.0
822,62.0,64,64,0.0,0.0
823,72.0,0,384,0.0,0.0
824,60.0,64,64,0.0,0.0
825,62.0,64,64,0.0,0.0
826,58.0,64,64,0.0,0.0
827,57.0,64,64,0.0,0.0
828,58.0,64,64,0.0,0.0
829,55.0,64,64,0.0,0.0
830,53.0,64,64,0.0,0.0
831,55.0,64,64,0.0,0.0
832,52.0,0,64,0.0,0.0
833,74.0,64,0,0.0,0.0
834,53.0,64,64,0.0,0.0
835,50.0,64,64,0.0,0.0
836,52.0,0,64,0.0,0.0
837,53.0,64,64,0.0,0.0
838,72.0,0,384,0.0,0.0
839,57.0,64,64,0.0,0.0
840,55.0,64,64,0.0,0.0
841,57.0,64,64,0.0,0.0
842,58.0,64,64,0.0,0.0
843,60.0,64,64,0.0,0.0
844,62.0,64,64,0.0,0.0
845,70.0,0,192,0.0,0.0
846,64.0,64,64,0.0,0.0
847,61.0,64,64,0.0,0.0
848,62.0,64,64,0.0,0.0
849,70.0,64,192,0.0,0.0
850,50.0,64,64,0.0,0.0
851,62.0,64,128,0.0,0.0
852,61.0,64,64,0.0,0.0
853,64.0,64,64,0.0,0.0
854,62.0,32,64,0.0,0.0
855,64.0,16,64,0.0,0.0
856,69.0,32,0,0.0,0.0
857,65.0,64,64,0.0,0.0
858,67.0,0,48,0.0,0.0
859,69.0,48,144,0.0,0.0
860,64.0,64,64,0.0,0.0
861,65.0,16,64,0.0,0.0
862,62.0,0,64,0.0,0.0
863,71.0,64,48,0.0,0.0
864,72.0,64,64,0.0,0.0
865,60.0,64,192,0.0,0.0
866,71.0,64,64,0.0,0.0
867,72.0,64,128,0.0,0.0
868,53.0,0,384,0.0,0.0
869,74.0,64,64,0.0,0.0
870,76.0,64,64,0.0,0.0
871,74.0,64,64,0.0,0.0
872,76.0,64,64,0.0,0.0
873,77.0,64,64,0.0,0.0
874,76.0,64,64,0.0,0.0
875,57.0,64,192,0.0,0.0
876,77.0,64,64,0.0,0.0
877,79.0,0,64,0.0,0.0
878,77.0,64,64,0.0,0.0
879,57.0,64,192,0.0,0.0
880,79.0,64,64,0.0,0.0
881,81.0,0,64,0.0,0.0
882,79.0,64,64,0.0,0.0
883,60.0,64,384,0.0,0.0
884,81.0,64,64,0.0,0.0
885,82.0,64,64,0.0,0.0
886,81.0,64,64,0.0,0.0
887,79.0,64,64,0.0,0.0
888,81.0,64,128,0.0,0.0
889,62.0,0,192,0.0,0.0
890,77.0,64,64,0.0,0.0
891,74.0,64,64,0.0,0.0
892,62.0,64,192,0.0,0.0
893,70.0,64,64,0.0,0.0
894,69.0,64,64,0.0,0.0
895,70.0,64,128,0.0,0.0
896,60.0,64,384,0.0,0.0
897,79.0,64,64,0.0,0.0
898,70.0,64,64,0.0,0.0
899,69.0,64,64,0.0,0.0
900,67.0,64,64,0.0,0.0
901,69.0,64,128,0.0,0.0
902,77.0,64,64,0.0,0.0
903,69.0,64,64,0.0,0.0
904,58.0,0,0,0.0,0.0
905,67.0,64,64,0.0,0.0
906,65.0,64,64,0.0,0.0
907,67.0,64,128,0.0,0.0
908,76.0,64,64,0.0,0.0
909,67.0,64,64,0.0,0.0
910,65.0,32,64,0.0,0.0
911,64.0,16,64,0.0,0.0
912,57.0,32,0,0.0,0.0
913,65.0,64,128,0.0,0.0
914,55.0,64,48,0.0,0.0
915,57.0,48,144,0.0,0.0
916,64.0,16,64,0.0,0.0
917,62.0,64,64,0.0,0.0
918,59.0,0,48,0.0,0.0
919,60.0,64,64,0.0,0.0
920,67.0,48,144,0.0,0.0
921,59.0,16,64,0.0,0.0
922,64.0,64,48,0.0,0.0
923,60.0,64,64,0.0,0.0
924,62.0,64,64,0.0,0.0
925,64.0,0,64,0.0,0.0
926,62.0,64,64,0.0,0.0
927,64.0,64,64,0.0,0.0
928,65.0,64,64,0.0,0.0
929,64.0,64,64,0.0,0.0
930,72.0,0,192,0.0,0.0
931,65.0,64,64,0.0,0.0
932,67.0,64,64,0.0,0.0
933,72.0,0,64,0.0,0.0
934,65.0,32,64,0.0,0.0
935,70.0,32,32,0.0,0.0
936,67.0,32,64,0.0,0.0
937,69.0,0,0,0.0,0.0
938,67.0,32,32,0.0,0.0
939,65.0,64,32,0.0,0.0
940,76.0,32,288,0.0,0.0
941,67.0,64,64,0.0,0.0
942,69.0,64,64,0.0,0.0
943,70.0,64,64,0.0,0.0
944,69.0,32,64,0.0,0.0
945,67.0,16,64,0.0,0.0
946,76.0,48,48,0.0,0.0
947,69.0,64,128,0.0,0.0
948,72.0,64,48,0.0,0.0
949,77.0,0,192,0.0,0.0
950,65.0,64,64,0.0,0.0
951,62.0,64,64,0.0,0.0
952,77.0,64,192,0.0,0.0
953,58.0,64,64,0.0,0.0
954,57.0,64,64,0.0,0.0
955,58.0,64,128,0.0,0.0
956,76.0,64,192,0.0,0.0
957,67.0,64,64,0.0,0.0
958,58.0,0,64,0.0,0.0
959,57.0,64,64,0.0,0.0
960,75.0,64,192,0.0,0.0
961,55.0,64,64,0.0,0.0
962,57.0,64,128,0.0,0.0
963,74.0,64,192,0.0,0.0
964,65.0,64,64,0.0,0.0
965,57.0,0,64,0.0,0.0
966,55.0,64,64,0.0,0.0
967,73.0,64,192,0.0,0.0
968,53.0,64,64,0.0,0.0
969,55.0,64,128,0.0,0.0
970,72.0,32,288,0.0,0.0
971,64.0,64,64,0.0,0.0
972,55.0,64,64,0.0,0.0
973,53.0,32,64,0.0,0.0
974,52.0,16,64,0.0,0.0
975,72.0,48,48,0.0,0.0
976,53.0,64,128,0.0,0.0
977,77.0,64,48,0.0,0.0
978,71.0,0,64,0.0,0.0
979,72.0,0,64,0.0,0.0
980,52.0,64,64,0.0,0.0
981,50.0,0,64,0.0,0.0
982,74.0,64,0,0.0,0.0
983,55.0,48,144,0.0,0.0
984,72.0,32,32,0.0,0.0
985,71.0,16,32,0.0,0.0
986,72.0,96,64,0.0,0.0
987,52.0,0,48,0.0,0.0
988,48.0,32,192,0.0,0.0
989,82.0,32,32,0.0,0.0
990,81.0,32,32,0.0,0.0
991,79.0,32,32,0.0,0.0
992,77.0,0,32,0.0,0.0
993,76.0,32,32,0.0,0.0
994,77.0,32,32,0.0,0.0
995,79.0,32,32,0.0,0.0
996,77.0,32,32,0.0,0.0
997,76.0,32,32,0.0,0.0
998,74.0,64,32,0.0,0.0
999,72.0,64,64,0.0,0.0
1000,76.0,64,64,0.0,0.0
1001,79.0,0,64,0.0,0.0
1002,69.0,0,64,0.0,0.0
1003,60.0,64,0,0.0,0.0
1004,72.0,0,64,0.0,0.0
1005,58.0,32,32,0.0,0.0
1006,57.0,32,32,0.0,0.0
1007,76.0,0,64,0.0,0.0
1008,55.0,32,32,0.0,0.0
1009,53.0,128,32,0.0,0.0
1010,72.0,64,64,0.0,0.0
1011,74.0,64,64,0.0,0.0
1012,76.0,32,64,0.0,0.0
1013,77.0,16,64,0.0,0.0
1014,64.0,32,0,0.0,0.0
1015,79.0,32,96,0.0,0.0
1016,60.0,32,48,0.0,0.0
1017,77.0,32,32,0.0,0.0
1018,76.0,32,32,0.0,0.0
1019,77.0,32,32,0.0,0.0
1020,79.0,32,32,0.0,0.0
1021,76.0,32,32,0.0,0.0
1022,77.0,32,32,0.0,0.0
1023,65.0,0,0,0.0,0.0
1024,76.0,32,32,0.0,0.0
1025,74.0,32,32,0.0,0.0
1026,73.0,64,32,0.0,0.0
1027,74.0,64,128,0.0,0.0
1028,64.0,0,192,0.0,0.0
1029,72.0,64,64,0.0,0.0
1030,71.0,32,64,0.0,0.0
1031,63.0,64,192,0.0,0.0
1032,72.0,32,32,0.0,0.0
1033,71.0,32,32,0.0,0.0
1034,69.0,32,32,0.0,0.0
1035,71.0,64,32,0.0,0.0
1036,72.0,64,128,0.0,0.0
1037,62.0,32,192,0.0,0.0
1038,70.0,64,64,0.0,0.0
1039,69.0,0,64,0.0,0.0
1040,70.0,32,32,0.0,0.0
1041,61.0,64,192,0.0,0.0
1042,69.0,32,32,0.0,0.0
1043,67.0,32,32,0.0,0.0
1044,69.0,64,32,0.0,0.0
1045,70.0,64,128,0.0,0.0
1046,69.0,64,64,0.0,0.0
1047,68.0,24,0,0.0,0.0
1048,69.0,40,192,0.0,0.0
1049,60.0,48,0,0.0,0.0
1050,65.0,24,48,0.0,0.0
1051,59.0,32,64,0.0,0.0
1052,69.0,32,72,0.0,0.0
1053,61.0,64,64,0.0,0.0
1054,62.0,0,64,0.0,0.0
1055,80.0,64,48,0.0,0.0
1056,62.0,32,64,0.0,0.0
1057,81.0,48,144,0.0,0.0
1058,61.0,32,32,0.0,0.0
1059,59.0,16,32,0.0,0.0
1060,61.0,0,64,0.0,0.0
1061,69.0,96,48,0.0,0.0
1062,74.0,0,256,0.0,0.0
1063,70.0,32,32,0.0,0.0
1064,69.0,32,32,0.0,0.0
1065,67.0,32,32,0.0,0.0
1066,65.0,32,32,0.0,0.0
1067,64.0,32,32,0.0,0.0
1068,65.0,32,32,0.0,0.0
1069,73.0,0,64,0.0,0.0
1070,67.0,32,32,0.0,0.0
1071,65.0,32,32,0.0,0.0
1072,74.0,64,64,0.0,0.0
1073,64.0,32,32,0.0,0.0
1074,62.0,0,32,0.0,0.0
1075,61.0,64,64,0.0,0.0
1076,64.0,64,64,0.0,0.0
1077,67.0,64,64,0.0,0.0
1078,79.0,0,0,0.0,0.0
1079,57.0,32,64,0.0,0.0
1080,77.0,32,32,0.0,0.0
1081,61.0,0,64,0.0,0.0
1082,76.0,32,32,0.0,0.0
1083,64.0,128,64,0.0,0.0
1084,74.0,32,32,0.0,0.0
1085,73.0,0,32,0.0,0.0
1086,82.0,32,288,0.0,0.0
1087,61.0,64,64,0.0,0.0
1088,62.0,64,64,0.0,0.0
1089,64.0,32,64,0.0,0.0
1090,65.0,16,64,0.0,0.0
1091,82.0,48,48,0.0,0.0
1092,67.0,32,96,0.0,0.0
1093,74.0,32,48,0.0,0.0
1094,73.0,0,64,0.0,0.0
1095,65.0,32,32,0.0,0.0
1096,74.0,0,64,0.0,0.0
1097,64.0,32,32,0.0,0.0
1098,65.0,32,32,0.0,0.0
1099,67.0,32,32,0.0,0.0
1100,64.0,0,32,0.0,0.0
1101,65.0,32,32,0.0,0.0
1102,76.0,32,0,0.0,0.0
1103,64.0,0,32,0.0,0.0
1104,62.0,32,32,0.0,0.0
1105,81.0,0,64,0.0,0.0
1106,61.0,64,32,0.0,0.0
1107,74.0,64,64,0.0,0.0
1108,62.0,64,128,0.0,0.0
1109,61.0,64,64,0.0,0.0
1110,59.0,32,64,0.0,0.0
1111,61.0,32,32,0.0,0.0
1112,59.0,32,32,0.0,0.0
1113,57.0,0,32,0.0,0.0
1114,59.0,16,32,0.0,0.0
1115,79.0,32,0,0.0,0.0
1116,60.0,64,128,0.0,0.0
1117,69.0,64,48,0.0,0.0
1118,59.0,64,64,0.0,0.0
1119,57.0,32,64,0.0,0.0
1120,77.0,0,0,0.0,0.0
1121,59.0,32,32,0.0,0.0
1122,57.0,32,32,0.0,0.0
1123,55.0,32,32,0.0,0.0
1124,57.0,16,32,0.0,0.0
1125,58.0,64,128,0.0,0.0
1126,67.0,64,48,0.0,0.0
1127,76.0,64,256,0.0,0.0
1128,57.0,64,64,0.0,0.0
1129,56.0,64,64,0.0,0.0
1130,57.0,32,288,0.0,0.0
1131,74.0,64,64,0.0,0.0
1132,73.0,64,64,0.0,0.0
1133,74.0,32,64,0.0,0.0
1134,76.0,64,64,0.0,0.0
1135,77.0,0,64,0.0,0.0
1136,68.0,64,48,0.0,0.0
1137,76.0,64,64,0.0,0.0
1138,69.0,16,64,0.0,0.0
1139,57.0,64,48,0.0,0.0
1140,62.0,64,256,0.0,0.0
1141,82.0,32,32,0.0,0.0
1142,81.0,32,32,0.0,0.0
1143,79.0,32,32,0.0,0.0
1144,77.0,32,32,0.0,0.0
1145,76.0,64,32,0.0,0.0
1146,61.0,64,64,0.0,0.0
1147,62.0,0,64,0.0,0.0
1148,74.0,32,0,0.0,0.0
1149,67.0,64,192,0.0,0.0
1150,77.0,32,32,0.0,0.0
1151,79.0,32,32,0.0,0.0
1152,77.0,32,32,0.0,0.0
1153,76.0,32,32,0.0,0.0
1154,74.0,0,32,0.0,0.0
1155,73.0,0,64,0.0,0.0
1156,67.0,32,64,0.0,0.0
1157,74.0,32,64,0.0,0.0
1158,65.0,32,32,0.0,0.0
1159,64.0,0,32,0.0,0.0
1160,62.0,32,32,0.0,0.0
1161,76.0,32,64,0.0,0.0
1162,61.0,0,32,0.0,0.0
1163,77.0,32,32,0.0,0.0
1164,76.0,32,32,0.0,0.0
1165,74.0,32,32,0.0,0.0
1166,76.0,64,32,0.0,0.0
1167,77.0,64,64,0.0,0.0
1168,79.0,32,64,0.0,0.0
1169,81.0,16,64,0.0,0.0
1170,70.0,32,0,0.0,0.0
1171,82.0,0,128,0.0,0.0
1172,62.0,64,48,0.0,0.0
1173,61.0,64,64,0.0,0.0
1174,62.0,64,64,0.0,0.0
1175,81.0,0,64,0.0,0.0
1176,64.0,0,64,0.0,0.0
1177,79.0,32,64,0.0,0.0
1178,64.0,32,64,0.0,0.0
1179,81.0,32,32,0.0,0.0
1180,79.0,0,32,0.0,0.0
1181,69.0,64,64,0.0,0.0
1182,77.0,32,32,0.0,0.0
1183,76.0,0,32,0.0,0.0
1184,77.0,64,128,0.0,0.0
1185,62.0,64,64,0.0,0.0
1186,79.0,64,64,0.0,0.0
1187,77.0,64,64,0.0,0.0
1188,76.0,32,64,0.0,0.0
1189,75.0,16,64,0.0,0.0
1190,67.0,32,0,0.0,0.0
1191,76.0,32,128,0.0,0.0
1192,57.0,64,48,0.0,0.0
1193,74.0,32,32,0.0,0.0
1194,72.0,32,32,0.0,0.0
1195,70.0,32,32,0.0,0.0
1196,69.0,64,32,0.0,0.0
1197,65.0,0,0,0.0,0.0
1198,74.0,64,64,0.0,0.0
1199,73.0,16,64,0.0,0.0
1200,74.0,64,128,0.0,0.0
1201,55.0,64,48,0.0,0.0
1202,64.0,64,256,0.0,0.0
1203,76.0,64,64,0.0,0.0
1204,74.0,64,64,0.0,0.0
1205,73.0,0,64,0.0,0.0
1206,74.0,64,64,0.0,0.0
1207,62.0,0,64,0.0,0.0
1208,76.0,64,64,0.0,0.0
1209,61.0,0,64,0.0,0.0
1210,62.0,64,64,0.0,0.0
1211,69.0,0,64,0.0,0.0
1212,73.0,0,64,0.0,0.0
1213,64.0,64,64,0.0,0.0
1214,71.0,0,64,0.0,0.0
1215,65.0,32,64,0.0,0.0
1216,73.0,32,32,0.0,0.0
1217,64.0,32,64,0.0,0.0
1218,74.0,0,32,0.0,0.0
1219,57.0,0,64,0.0,0.0
1220,76.0,32,32,0.0,0.0
1221,77.0,32,32,0.0,0.0
1222,79.0,32,32,0.0,0.0
1223,76.0,32,32,0.0,0.0
1224,77.0,32,32,0.0,0.0
1225,79.0,32,32,0.0,0.0
1226,69.0,32,32,0.0,0.0
1227,81.0,0,64,0.0,0.0
1228,67.0,32,32,0.0,0.0
1229,73.0,0,64,0.0,0.0
1230,65.0,32,32,0.0,0.0
1231,64.0,32,32,0.0,0.0
1232,74.0,32,32,0.0,0.0
1233,77.0,32,32,0.0,0.0
1234,76.0,32,32,0.0,0.0
1235,74.0,32,32,0.0,0.0
1236,73.0,32,32,0.0,0.0
1237,71.0,0,32,0.0,0.0
1238,62.0,32,0,0.0,0.0
1239,69.0,32,64,0.0,0.0
1240,65.0,0,32,0.0,0.0
1241,67.0,32,32,0.0,0.0
1242,73.0,32,64,0.0,0.0
1243,65.0,0,32,0.0,0.0
1244,76.0,0,64,0.0,0.0
1245,64.0,32,32,0.0,0.0
1246,62.0,64,32,0.0,0.0
1247,61.0,64,64,0.0,0.0
1248,81.0,0,384,0.0,0.0
1249,62.0,64,64,0.0,0.0
1250,64.0,32,64,0.0,0.0
1251,65.0,32,32,0.0,0.0
1252,64.0,32,32,0.0,0.0
1253,62.0,32,32,0.0,0.0
1254,64.0,64,32,0.0,0.0
1255,65.0,64,64,0.0,0.0
1256,81.0,64,64,0.0,0.0
1257,67.0,0,64,0.0,0.0
1258,69.0,64,64,0.0,0.0
1259,79.0,0,64,0.0,0.0
1260,77.0,64,64,0.0,0.0
1261,70.0,64,128,0.0,0.0
1262,76.0,32,192,0.0,0.0
1263,69.0,64,64,0.0,0.0
1264,67.0,0,64,0.0,0.0
1265,69.0,32,32,0.0,0.0
1266,76.0,48,144,0.0,0.0
1267,67.0,32,32,0.0,0.0
1268,65.0,32,32,0.0,0.0
1269,64.0,16,32,0.0,0.0
1270,65.0,64,128,0.0,0.0
1271,81.0,64,48,0.0,0.0
1272,74.0,32,288,0.0,0.0
1273,67.0,64,64,0.0,0.0
1274,65.0,64,64,0.0,0.0
1275,64.0,32,64,0.0,0.0
1276,62.0,16,64,0.0,0.0
1277,74.0,48,48,0.0,0.0
1278,64.0,32,128,0.0,0.0
1279,82.0,64,48,0.0,0.0
1280,73.0,0,64,0.0,0.0
1281,76.0,0,64,0.0,0.0
1282,62.0,32,32,0.0,0.0
1283,61.0,32,32,0.0,0.0
1284,81.0,64,64,0.0,0.0
1285,59.0,32,32,0.0,0.0
1286,57.0,0,32,0.0,0.0
1287,69.0,48,144,0.0,0.0
1288,62.0,64,64,0.0,0.0
1289,61.0,16,64,0.0,0.0
1290,62.0,64,128,0.0,0.0
1291,74.0,64,48,0.0,0.0
1292,70.0,0,256,0.0,0.0
1293,64.0,64,64,0.0,0.0
1294,62.0,64,64,0.0,0.0
1295,61.0,64,64,0.0,0.0
1296,62.0,0,64,0.0,0.0
1297,69.0,64,64,0.0,0.0
1298,68.0,0,64,0.0,0.0
1299,64.0,64,64,0.0,0.0
1300,69.0,0,192,0.0,0.0
1301,57.0,64,64,0.0,0.0
1302,61.0,64,64,0.0,0.0
1303,59.0,32,64,0.0,0.0
1304,69.0,0,64,0.0,0.0
1305,61.0,32,32,0.0,0.0
1306,62.0,32,32,0.0,0.0
1307,76.0,0,64,0.0,0.0
1308,64.0,32,32,0.0,0.0
1309,65.0,32,32,0.0,0.0
1310,73.0,0,64,0.0,0.0
1311,67.0,32,32,0.0,0.0
1312,64.0,32,32,0.0,0.0
1313,65.0,32,32,0.0,0.0
1314,67.0,64,32,0.0,0.0
1315,82.0,0,24,0.0,0.0
1316,81.0,0,64,0.0,0.0
1317,69.0,64,64,0.0,0.0
1318,61.0,0,64,0.0,0.0
1319,79.0,24,64,0.0,0.0
1320,62.0,32,32,0.0,0.0
1321,81.0,8,24,0.0,0.0
1322,65.0,32,32,0.0,0.0
1323,64.0,32,32,0.0,0.0
1324,62.0,32,32,0.0,0.0
1325,61.0,32,32,0.0,0.0
1326,59.0,24,32,0.0,0.0
1327,57.0,0,64,0.0,0.0
1328,77.0,8,0,0.0,0.0
1329,81.0,32,32,0.0,0.0
1330,79.0,32,32,0.0,0.0
1331,61.0,32,64,0.0,0.0
1332,77.0,0,32,0.0,0.0
1333,76.0,32,32,0.0,0.0
1334,64.0,32,64,0.0,0.0
1335,74.0,0,32,0.0,0.0
1336,73.0,32,32,0.0,0.0
1337,71.0,32,32,0.0,0.0
1338,69.0,32,32,0.0,0.0
1339,71.0,32,32,0.0,0.0
1340,73.0,32,32,0.0,0.0
1341,74.0,32,32,0.0,0.0
1342,76.0,32,32,0.0,0.0
1343,74.0,32,32,0.0,0.0
1344,76.0,32,32,0.0,0.0
1345,77.0,32,32,0.0,0.0
1346,79.0,32,32,0.0,0.0
1347,76.0,0,32,0.0,0.0
1348,69.0,32,64,0.0,0.0
1349,77.0,32,32,0.0,0.0
1350,74.0,0,32,0.0,0.0
1351,67.0,0,64,0.0,0.0
1352,76.0,32,32,0.0,0.0
1353,77.0,32,32,0.0,0.0
1354,65.0,0,64,0.0,0.0
1355,79.0,32,32,0.0,0.0
1356,81.0,32,32,0.0,0.0
1357,82.0,32,32,0.0,0.0
1358,64.0,32,192,0.0,0.0
1359,81.0,32,32,0.0,0.0
1360,79.0,32,32,0.0,0.0
1361,77.0,32,32,0.0,0.0
1362,76.0,32,32,0.0,0.0
1363,74.0,0,32,0.0,0.0
1364,73.0,32,32,0.0,0.0
1365,64.0,16,144,0.0,0.0
1366,76.0,32,32,0.0,0.0
1367,79.0,32,32,0.0,0.0
1368,82.0,16,32,0.0,0.0
1369,81.0,32,32,0.0,0.0
1370,69.0,32,48,0.0,0.0
1371,79.0,0,32,0.0,0.0
1372,81.0,32,32,0.0,0.0
1373,79.0,32,32,0.0,0.0
1374,77.0,32,32,0.0,0.0
1375,76.0,32,32,0.0,0.0
1376,74.0,32,32,0.0,0.0
1377,72.0,32,32,0.0,0.0
1378,70.0,32,32,0.0,0.0
1379,72.0,32,32,0.0,0.0
1380,70.0,0,32,0.0,0.0
1381,62.0,32,0,0.0,0.0
1382,69.0,16,32,0.0,0.0
1383,67.0,32,32,0.0,0.0
1384,70.0,32,48,0.0,0.0
1385,65.0,0,32,0.0,0.0
1386,67.0,32,32,0.0,0.0
1387,61.0,0,64,0.0,0.0
1388,70.0,32,32,0.0,0.0
1389,69.0,32,32,0.0,0.0
1390,64.0,0,64,0.0,0.0
1391,67.0,32,32,0.0,0.0
1392,69.0,24,64,0.0,0.0
1393,65.0,32,32,0.0,0.0
1394,64.0,0,32,0.0,0.0
1395,57.0,0,96,0.0,0.0
1396,65.0,72,24,0.0,0.0
1397,67.0,48,48,0.0,0.0
1398,65.0,48,48,0.0,0.0
1399,50.0,48,192,0.0,0.0
1400,64.0,24,48,0.0,0.0
1401,65.0,72,24,0.0,0.0
1402,70.0,0,48,0.0,0.0
1403,53.0,48,192,0.0,0.0
1404,69.0,48,48,0.0,0.0
1405,67.0,24,48,0.0,0.0
1406,69.0,72,24,0.0,0.0
1407,74.0,0,48,0.0,0.0
1408,73.0,48,48,0.0,0.0
1409,57.0,0,192,0.0,0.0
1410,71.0,24,48,0.0,0.0
1411,73.0,72,24,0.0,0.0
1412,77.0,48,48,0.0,0.0
1413,58.0,48,96,0.0,0.0
1414,76.0,48,48,0.0,0.0
1415,74.0,0,48,0.0,0.0
1416,76.0,24,48,0.0,0.0
1417,58.0,24,96,0.0,0.0
1418,77.0,24,24,0.0,0.0
1419,79.0,0,24,0.0,0.0
1420,77.0,24,24,0.0,0.0
1421,57.0,48,192,0.0,0.0
1422,76.0,24,24,0.0,0.0
1423,74.0,24,24,0.0,0.0
1424,73.0,24,24,0.0,0.0
1425,74.0,24,24,0.0,0.0
1426,77.0,24,24,0.0,0.0
1427,79.0,24,24,0.0,0.0
1428,81.0,0,24,0.0,0.0
1429,82.0,48,48,0.0,0.0
1430,55.0,48,192,0.0,0.0
1431,74.0,48,48,0.0,0.0
1432,73.0,48,48,0.0,0.0
1433,69.0,0,48,0.0,0.0
1434,74.0,48,48,0.0,0.0
1435,53.0,0,96,0.0,0.0
1436,73.0,48,48,0.0,0.0
1437,53.0,48,48,0.0,0.0
1438,52.0,48,48,0.0,0.0
1439,53.0,48,48,0.0,0.0
1440,55.0,0,48,0.0,0.0
1441,57.0,24,384,0.0,0.0
1442,74.0,288,0,0.0,0.0
1443,62.0,48,48,0.0,0.0
1444,64.0,0,48,0.0,0.0
1445,65.0,24,24,0.0,0.0
1446,45.0,0,384,0.0,0.0
1447,64.0,24,24,0.0,0.0
1448,65.0,24,24,0.0,0.0
1449,64.0,24,24,0.0,0.0
1450,65.0,24,24,0.0,0.0
1451,64.0,24,24,0.0,0.0
1452,65.0,24,24,0.0,0.0
1453,64.0,24,24,0.0,0.0
1454,65.0,24,24,0.0,0.0
1455,64.0,24,24,0.0,0.0
1456,65.0,24,24,0.0,0.0
1457,64.0,24,24,0.0,0.0
1458,65.0,24,24,0.0,0.0
1459,64.0,24,24,0.0,0.0
1460,62.0,24,24,0.0,0.0
1461,64.0,576,24,0.0,0.0
1462,62.0,0,576,0.0,0.0
1463,38.0,192,0,0.0,0.0
1464,62.0,0,192,0.0,0.0
