,note,step,duration,channel,velocity
0,60.0,240,720,0.0,64.0
1,48.0,120,120,2.0,64.0
2,51.0,120,120,2.0,64.0
3,55.0,240,120,2.0,64.0
4,60.0,0,960,2.0,64.0
5,62.0,240,240,0.0,64.0
6,63.0,240,240,0.0,64.0
7,64.0,240,240,0.0,64.0
8,58.0,0,240,2.0,64.0
9,65.0,240,240,0.0,64.0
10,57.0,0,240,2.0,64.0
11,66.0,240,240,0.0,64.0
12,58.0,120,600,2.0,64.0
13,67.0,0,960,0.0,64.0
14,55.0,120,120,1.0,64.0
15,58.0,120,120,1.0,64.0
16,62.0,120,120,1.0,64.0
17,67.0,120,960,1.0,64.0
18,52.0,120,120,2.0,64.0
19,50.0,120,120,2.0,64.0
20,52.0,120,120,2.0,64.0
21,53.0,120,120,2.0,64.0
22,68.0,120,600,0.0,64.0
23,48.0,120,120,2.0,64.0
24,53.0,120,120,2.0,64.0
25,55.0,0,120,2.0,64.0
26,65.0,120,240,1.0,64.0
27,56.0,240,720,2.0,64.0
28,65.0,0,120,0.0,64.0
29,61.0,120,120,0.0,64.0
30,64.0,240,240,1.0,64.0
31,60.0,0,120,0.0,64.0
32,59.0,120,480,0.0,64.0
33,65.0,120,600,1.0,64.0
34,56.0,0,240,2.0,64.0
35,55.0,120,240,2.0,64.0
36,59.0,0,120,1.0,64.0
37,53.0,120,240,2.0,64.0
38,57.0,120,120,1.0,64.0
39,59.0,0,120,1.0,64.0
40,51.0,120,600,2.0,64.0
41,60.0,120,120,1.0,64.0
42,55.0,120,120,1.0,64.0
43,60.0,120,120,1.0,64.0
44,62.0,120,120,1.0,64.0
45,63.0,0,720,1.0,64.0
46,67.0,0,960,0.0,64.0
47,53.0,120,120,2.0,64.0
48,51.0,120,120,2.0,64.0
49,50.0,240,120,2.0,64.0
50,48.0,240,240,2.0,64.0
51,63.0,0,240,1.0,64.0
52,49.0,240,240,2.0,64.0
53,66.0,120,960,0.0,64.0
54,62.0,240,240,1.0,64.0
55,50.0,0,480,2.0,64.0
56,60.0,480,240,1.0,64.0
57,58.0,120,600,1.0,64.0
58,51.0,0,240,2.0,64.0
59,50.0,0,240,2.0,64.0
60,65.0,120,960,0.0,64.0
61,60.0,120,120,1.0,64.0
62,48.0,0,240,2.0,64.0
63,58.0,120,120,1.0,64.0
64,57.0,240,120,1.0,64.0
65,47.0,0,240,2.0,64.0
66,55.0,120,240,1.0,64.0
67,48.0,120,120,2.0,64.0
68,56.0,0,240,1.0,64.0
69,47.0,0,120,2.0,64.0
70,64.0,120,960,0.0,64.0
71,48.0,120,120,2.0,64.0
72,57.0,120,480,1.0,64.0
73,50.0,120,120,2.0,64.0
74,48.0,120,120,2.0,64.0
75,46.0,0,120,2.0,64.0
76,45.0,120,120,2.0,64.0
77,43.0,120,120,2.0,64.0
78,58.0,0,240,1.0,64.0
79,45.0,120,120,2.0,64.0
80,46.0,0,120,2.0,64.0
81,48.0,120,120,2.0,64.0
82,63.0,120,960,0.0,64.0
83,57.0,120,240,1.0,64.0
84,45.0,0,120,2.0,64.0
85,55.0,0,240,1.0,64.0
86,46.0,120,120,2.0,64.0
87,48.0,240,120,2.0,64.0
88,50.0,120,240,2.0,64.0
89,54.0,0,240,1.0,64.0
90,55.0,120,120,1.0,64.0
91,60.0,120,480,2.0,64.0
92,54.0,0,120,1.0,64.0
93,55.0,120,120,1.0,64.0
94,62.0,0,720,0.0,64.0
95,57.0,0,120,1.0,64.0
96,58.0,0,120,2.0,64.0
97,55.0,120,120,1.0,64.0
98,57.0,120,120,2.0,64.0
99,53.0,0,120,1.0,64.0
100,52.0,120,120,1.0,64.0
101,58.0,0,240,2.0,64.0
102,50.0,120,120,1.0,64.0
103,61.0,120,240,0.0,64.0
104,55.0,0,240,2.0,64.0
105,52.0,120,120,1.0,64.0
106,53.0,0,120,1.0,64.0
107,52.0,0,240,2.0,64.0
108,58.0,120,240,0.0,64.0
109,55.0,120,120,1.0,64.0
110,52.0,0,120,1.0,64.0
111,53.0,0,120,1.0,64.0
112,57.0,240,240,0.0,64.0
113,57.0,120,120,2.0,64.0
114,55.0,0,120,2.0,64.0
115,55.0,0,120,1.0,64.0
116,54.0,120,240,2.0,64.0
117,57.0,0,240,1.0,64.0
118,62.0,240,480,0.0,64.0
119,55.0,120,120,2.0,64.0
120,67.0,120,480,1.0,64.0
121,57.0,0,120,2.0,64.0
122,58.0,0,240,2.0,64.0
123,65.0,120,120,1.0,64.0
124,49.0,240,240,2.0,64.0
125,64.0,0,120,1.0,64.0
126,50.0,240,480,2.0,64.0
127,65.0,240,240,1.0,64.0
128,62.0,0,240,1.0,64.0
129,59.0,120,240,1.0,64.0
130,67.0,0,960,0.0,64.0
131,64.0,120,120,1.0,64.0
132,62.0,240,120,1.0,64.0
133,61.0,120,240,1.0,64.0
134,62.0,120,120,1.0,64.0
135,50.0,120,360,2.0,64.0
136,64.0,120,120,1.0,64.0
137,65.0,0,480,0.0,64.0
138,65.0,120,240,1.0,64.0
139,53.0,0,120,2.0,64.0
140,56.0,0,240,1.0,64.0
141,52.0,120,120,2.0,64.0
142,50.0,120,120,2.0,64.0
143,57.0,120,480,1.0,64.0
144,49.0,120,120,2.0,64.0
145,64.0,120,960,0.0,64.0
146,50.0,120,120,2.0,64.0
147,52.0,120,120,2.0,64.0
148,53.0,0,120,2.0,64.0
149,55.0,120,120,2.0,64.0
150,58.0,120,120,2.0,64.0
151,57.0,120,120,2.0,64.0
152,55.0,0,120,2.0,64.0
153,53.0,120,120,2.0,64.0
154,62.0,0,720,0.0,64.0
155,50.0,120,120,2.0,64.0
156,53.0,120,120,2.0,64.0
157,57.0,120,360,1.0,64.0
158,57.0,120,120,2.0,64.0
159,62.0,0,960,2.0,64.0
160,60.0,120,120,1.0,64.0
161,64.0,0,240,0.0,64.0
162,59.0,120,120,1.0,64.0
163,57.0,120,120,1.0,64.0
164,65.0,0,240,0.0,64.0
165,56.0,120,120,1.0,64.0
166,57.0,120,120,1.0,64.0
167,66.0,0,240,0.0,64.0
168,59.0,120,120,1.0,64.0
169,60.0,120,120,1.0,64.0
170,60.0,0,240,2.0,64.0
171,67.0,120,240,0.0,64.0
172,62.0,120,120,1.0,64.0
173,65.0,0,120,1.0,64.0
174,59.0,0,240,2.0,64.0
175,64.0,120,120,1.0,64.0
176,68.0,0,240,0.0,64.0
177,62.0,120,120,1.0,64.0
178,60.0,120,600,2.0,64.0
179,69.0,120,960,0.0,64.0
180,60.0,120,120,1.0,64.0
181,57.0,120,120,1.0,64.0
182,60.0,120,120,1.0,64.0
183,64.0,120,120,1.0,64.0
184,69.0,120,960,1.0,64.0
185,54.0,120,120,2.0,64.0
186,52.0,120,120,2.0,64.0
187,54.0,0,120,2.0,64.0
188,55.0,120,120,2.0,64.0
189,70.0,120,600,0.0,64.0
190,50.0,120,120,2.0,64.0
191,55.0,120,120,2.0,64.0
192,57.0,0,120,2.0,64.0
193,67.0,120,240,1.0,64.0
194,58.0,240,720,2.0,64.0
195,67.0,0,120,0.0,64.0
196,66.0,240,240,1.0,64.0
197,63.0,120,120,0.0,64.0
198,62.0,0,120,0.0,64.0
199,67.0,120,600,1.0,64.0
200,61.0,120,480,0.0,64.0
201,58.0,0,240,2.0,64.0
202,57.0,120,240,2.0,64.0
203,61.0,0,120,1.0,64.0
204,55.0,120,240,2.0,64.0
205,59.0,120,120,1.0,64.0
206,61.0,0,120,1.0,64.0
207,62.0,120,120,1.0,64.0
208,53.0,120,600,2.0,64.0
209,57.0,120,120,1.0,64.0
210,62.0,120,120,1.0,64.0
211,64.0,120,120,1.0,64.0
212,69.0,0,960,0.0,64.0
213,55.0,120,120,2.0,64.0
214,53.0,120,120,2.0,64.0
215,52.0,240,120,2.0,64.0
216,50.0,0,240,2.0,64.0
217,65.0,240,0,1.0,64.0
218,51.0,0,240,2.0,64.0
219,68.0,120,960,0.0,64.0
220,64.0,240,240,1.0,64.0
221,52.0,480,480,2.0,64.0
222,62.0,0,240,1.0,64.0
223,60.0,120,600,1.0,64.0
224,53.0,0,240,2.0,64.0
225,67.0,120,960,0.0,64.0
226,52.0,0,240,2.0,64.0
227,62.0,120,120,1.0,64.0
228,50.0,240,240,2.0,64.0
229,60.0,120,120,1.0,64.0
230,59.0,0,120,1.0,64.0
231,49.0,0,240,2.0,64.0
232,57.0,120,240,1.0,64.0
233,50.0,120,120,2.0,64.0
234,58.0,0,240,1.0,64.0
235,49.0,0,120,2.0,64.0
236,66.0,0,960,0.0,64.0
237,50.0,120,120,2.0,64.0
238,59.0,0,480,1.0,64.0
239,52.0,120,120,2.0,64.0
240,50.0,120,120,2.0,64.0
241,48.0,120,120,2.0,64.0
242,47.0,120,120,2.0,64.0
243,45.0,120,120,2.0,64.0
244,47.0,120,120,2.0,64.0
245,60.0,0,240,1.0,64.0
246,48.0,120,120,2.0,64.0
247,59.0,120,240,1.0,64.0
248,65.0,120,960,0.0,64.0
249,50.0,120,120,2.0,64.0
250,47.0,0,120,2.0,64.0
251,48.0,120,120,2.0,64.0
252,57.0,0,240,1.0,64.0
253,50.0,240,120,2.0,64.0
254,56.0,0,240,1.0,64.0
255,52.0,120,240,2.0,64.0
256,62.0,120,480,2.0,64.0
257,57.0,120,120,1.0,64.0
258,56.0,0,120,1.0,64.0
259,57.0,120,120,1.0,64.0
260,64.0,120,720,0.0,64.0
261,59.0,0,120,1.0,64.0
262,57.0,0,120,1.0,64.0
263,60.0,120,120,2.0,64.0
264,55.0,0,120,1.0,64.0
265,59.0,120,120,2.0,64.0
266,54.0,120,120,1.0,64.0
267,60.0,0,240,2.0,64.0
268,52.0,0,120,1.0,64.0
269,63.0,120,240,0.0,64.0
270,57.0,0,240,2.0,64.0
271,54.0,120,120,1.0,64.0
272,55.0,0,120,1.0,64.0
273,57.0,120,120,1.0,64.0
274,54.0,0,240,2.0,64.0
275,60.0,120,240,0.0,64.0
276,54.0,0,120,1.0,64.0
277,55.0,0,120,1.0,64.0
278,59.0,240,240,0.0,64.0
279,59.0,120,120,2.0,64.0
280,57.0,0,120,1.0,64.0
281,57.0,0,120,2.0,64.0
282,59.0,120,240,1.0,64.0
283,64.0,0,480,0.0,64.0
284,56.0,0,240,2.0,64.0
285,57.0,120,120,2.0,64.0
286,69.0,0,480,1.0,64.0
287,59.0,240,120,2.0,64.0
288,60.0,120,240,2.0,64.0
289,67.0,120,120,1.0,64.0
290,51.0,0,240,2.0,64.0
291,66.0,240,120,1.0,64.0
292,52.0,240,480,2.0,64.0
293,67.0,240,240,1.0,64.0
294,64.0,0,240,1.0,64.0
295,61.0,120,240,1.0,64.0
296,69.0,120,960,0.0,64.0
297,66.0,120,120,1.0,64.0
298,64.0,240,120,1.0,64.0
299,63.0,120,240,1.0,64.0
300,64.0,120,120,1.0,64.0
301,52.0,120,360,2.0,64.0
302,66.0,0,120,1.0,64.0
303,67.0,120,240,1.0,64.0
304,67.0,120,480,0.0,64.0
305,55.0,0,120,2.0,64.0
306,54.0,120,120,2.0,64.0
307,58.0,0,240,1.0,64.0
308,52.0,0,120,2.0,64.0
309,66.0,0,960,0.0,64.0
310,51.0,120,120,2.0,64.0
311,59.0,120,480,1.0,64.0
312,52.0,120,120,2.0,64.0
313,54.0,120,120,2.0,64.0
314,55.0,0,120,2.0,64.0
315,57.0,120,120,2.0,64.0
316,60.0,120,120,2.0,64.0
317,59.0,120,120,2.0,64.0
318,57.0,120,120,2.0,64.0
319,64.0,0,720,0.0,64.0
320,55.0,120,120,2.0,64.0
321,52.0,120,120,2.0,64.0
322,55.0,120,120,2.0,64.0
323,59.0,120,360,1.0,64.0
324,59.0,120,120,2.0,64.0
325,64.0,0,960,2.0,64.0
326,62.0,120,120,1.0,64.0
327,66.0,0,240,0.0,64.0
328,61.0,120,120,1.0,64.0
329,59.0,120,120,1.0,64.0
330,58.0,120,120,1.0,64.0
331,67.0,120,240,0.0,64.0
332,59.0,0,120,1.0,64.0
333,61.0,120,120,1.0,64.0
334,68.0,0,240,0.0,64.0
335,62.0,120,120,1.0,64.0
336,62.0,0,240,2.0,64.0
337,69.0,120,240,0.0,64.0
338,64.0,120,120,1.0,64.0
339,67.0,0,120,1.0,64.0
340,66.0,120,120,1.0,64.0
341,70.0,0,240,0.0,64.0
342,61.0,120,240,2.0,64.0
343,64.0,0,120,1.0,64.0
344,62.0,120,120,1.0,64.0
345,71.0,120,960,0.0,64.0
346,62.0,120,600,2.0,64.0
347,59.0,120,120,1.0,64.0
348,62.0,120,120,1.0,64.0
349,66.0,120,120,1.0,64.0
350,71.0,0,960,1.0,64.0
351,56.0,120,120,2.0,64.0
352,54.0,120,120,2.0,64.0
353,56.0,0,120,2.0,64.0
354,72.0,120,600,0.0,64.0
355,57.0,120,120,2.0,64.0
356,52.0,120,120,2.0,64.0
357,57.0,120,120,2.0,64.0
358,59.0,120,120,2.0,64.0
359,69.0,0,240,1.0,64.0
360,60.0,240,720,2.0,64.0
361,69.0,120,120,0.0,64.0
362,68.0,240,240,1.0,64.0
363,65.0,120,120,0.0,64.0
364,64.0,0,120,0.0,64.0
365,63.0,0,480,0.0,64.0
366,69.0,120,600,1.0,64.0
367,60.0,120,240,2.0,64.0
368,59.0,120,240,2.0,64.0
369,63.0,0,120,1.0,64.0
370,61.0,120,120,1.0,64.0
371,57.0,120,240,2.0,64.0
372,63.0,0,120,1.0,64.0
373,64.0,120,120,1.0,64.0
374,55.0,120,600,2.0,64.0
375,59.0,120,120,1.0,64.0
376,64.0,120,120,1.0,64.0
377,66.0,120,120,1.0,64.0
378,67.0,240,720,1.0,64.0
379,71.0,240,960,0.0,64.0
380,57.0,120,120,2.0,64.0
381,55.0,120,120,2.0,64.0
382,54.0,240,120,2.0,64.0
383,52.0,0,240,2.0,64.0
384,53.0,0,240,2.0,64.0
385,67.0,0,240,1.0,64.0
386,54.0,0,480,2.0,64.0
387,66.0,240,240,1.0,64.0
388,70.0,120,960,0.0,64.0
389,64.0,480,240,1.0,64.0
390,62.0,120,600,1.0,64.0
391,55.0,0,240,2.0,64.0
392,69.0,0,960,0.0,64.0
393,54.0,0,240,2.0,64.0
394,64.0,120,120,1.0,64.0
395,52.0,240,240,2.0,64.0
396,62.0,120,120,1.0,64.0
397,61.0,0,120,1.0,64.0
398,59.0,120,240,1.0,64.0
399,51.0,0,240,2.0,64.0
400,52.0,120,120,2.0,64.0
401,60.0,0,240,1.0,64.0
402,51.0,120,120,2.0,64.0
403,68.0,120,960,0.0,64.0
404,61.0,120,480,1.0,64.0
405,52.0,120,120,2.0,64.0
406,54.0,120,120,2.0,64.0
407,52.0,120,120,2.0,64.0
408,50.0,0,120,2.0,64.0
409,49.0,120,120,2.0,64.0
410,47.0,120,120,2.0,64.0
411,49.0,120,120,2.0,64.0
412,62.0,0,240,1.0,64.0
413,50.0,0,120,2.0,64.0
414,67.0,120,960,0.0,64.0
415,61.0,0,240,1.0,64.0
416,52.0,120,120,2.0,64.0
417,49.0,120,120,2.0,64.0
418,59.0,240,240,1.0,64.0
419,50.0,120,120,2.0,64.0
420,52.0,0,120,2.0,64.0
421,54.0,0,240,2.0,64.0
422,58.0,120,240,1.0,64.0
423,64.0,0,480,2.0,64.0
424,59.0,120,120,1.0,64.0
425,58.0,0,120,1.0,64.0
426,66.0,0,720,0.0,64.0
427,59.0,120,120,1.0,64.0
428,61.0,120,120,1.0,64.0
429,62.0,120,120,2.0,64.0
430,59.0,0,120,1.0,64.0
431,61.0,0,120,2.0,64.0
432,57.0,120,120,1.0,64.0
433,62.0,0,240,2.0,64.0
434,56.0,120,120,1.0,64.0
435,54.0,120,120,1.0,64.0
436,59.0,120,240,2.0,64.0
437,56.0,120,120,1.0,64.0
438,65.0,0,240,0.0,64.0
439,57.0,0,120,1.0,64.0
440,59.0,120,120,1.0,64.0
441,56.0,0,240,2.0,64.0
442,62.0,120,240,0.0,64.0
443,56.0,0,120,1.0,64.0
444,61.0,120,120,2.0,64.0
445,57.0,0,120,1.0,64.0
446,61.0,0,240,0.0,64.0
447,59.0,0,120,1.0,64.0
448,59.0,240,120,2.0,64.0
449,61.0,0,240,1.0,64.0
450,58.0,120,240,2.0,64.0
451,66.0,0,480,0.0,64.0
452,71.0,120,480,1.0,64.0
453,59.0,120,120,2.0,64.0
454,61.0,240,120,2.0,64.0
455,62.0,0,240,2.0,64.0
456,53.0,240,240,2.0,64.0
457,69.0,120,120,1.0,64.0
458,68.0,0,120,1.0,64.0
459,54.0,240,480,2.0,64.0
460,69.0,240,240,1.0,64.0
461,66.0,0,240,1.0,64.0
462,71.0,0,960,0.0,64.0
463,63.0,120,240,1.0,64.0
464,68.0,120,120,1.0,64.0
465,66.0,240,120,1.0,64.0
466,65.0,120,240,1.0,64.0
467,66.0,120,120,1.0,64.0
468,54.0,120,360,2.0,64.0
469,68.0,120,120,1.0,64.0
470,69.0,120,240,1.0,64.0
471,69.0,0,480,0.0,64.0
472,57.0,0,120,2.0,64.0
473,56.0,120,120,2.0,64.0
474,60.0,0,240,1.0,64.0
475,54.0,120,120,2.0,64.0
476,61.0,0,480,1.0,64.0
477,68.0,0,960,0.0,64.0
478,53.0,120,120,2.0,64.0
479,54.0,120,120,2.0,64.0
480,56.0,120,120,2.0,64.0
481,57.0,120,120,2.0,64.0
482,59.0,120,120,2.0,64.0
483,62.0,120,120,2.0,64.0
484,61.0,120,120,2.0,64.0
485,59.0,120,120,2.0,64.0
486,66.0,0,720,0.0,64.0
487,57.0,120,120,2.0,64.0
488,54.0,120,120,2.0,64.0
489,57.0,120,120,2.0,64.0
490,61.0,120,360,1.0,64.0
491,61.0,120,120,2.0,64.0
492,66.0,120,960,2.0,64.0
493,64.0,120,120,1.0,64.0
494,68.0,0,240,0.0,64.0
495,63.0,120,120,1.0,64.0
496,61.0,120,120,1.0,64.0
497,69.0,120,240,0.0,64.0
498,60.0,120,120,1.0,64.0
499,61.0,0,120,1.0,64.0
500,70.0,0,240,0.0,64.0
501,63.0,120,120,1.0,64.0
502,64.0,0,120,1.0,64.0
503,71.0,0,240,0.0,64.0
504,64.0,120,240,2.0,64.0
505,66.0,120,120,1.0,64.0
506,69.0,0,120,1.0,64.0
507,68.0,120,120,1.0,64.0
508,72.0,0,240,0.0,64.0
509,63.0,120,240,2.0,64.0
510,66.0,0,120,1.0,64.0
511,64.0,120,120,1.0,64.0
512,64.0,120,600,2.0,64.0
513,73.0,120,960,0.0,64.0
514,61.0,120,120,1.0,64.0
515,64.0,120,120,1.0,64.0
516,68.0,120,120,1.0,64.0
517,73.0,120,960,1.0,64.0
518,58.0,120,120,2.0,64.0
519,56.0,120,120,2.0,64.0
520,58.0,0,120,2.0,64.0
521,59.0,120,120,2.0,64.0
522,74.0,120,600,0.0,64.0
523,54.0,120,120,2.0,64.0
524,59.0,120,120,2.0,64.0
525,61.0,0,120,2.0,64.0
526,62.0,240,720,2.0,64.0
527,71.0,0,240,1.0,64.0
528,71.0,120,120,0.0,64.0
529,70.0,240,240,1.0,64.0
530,67.0,120,120,0.0,64.0
531,66.0,0,120,0.0,64.0
532,65.0,120,480,0.0,64.0
533,71.0,120,600,1.0,64.0
534,62.0,0,240,2.0,64.0
535,61.0,120,240,2.0,64.0
536,65.0,0,120,1.0,64.0
537,63.0,120,120,1.0,64.0
538,59.0,0,240,2.0,64.0
539,65.0,120,120,1.0,64.0
540,66.0,120,120,1.0,64.0
541,57.0,120,600,2.0,64.0
542,61.0,120,120,1.0,64.0
543,66.0,120,120,1.0,64.0
544,68.0,120,120,1.0,64.0
545,73.0,0,960,0.0,64.0
546,59.0,120,120,2.0,64.0
547,57.0,120,120,2.0,64.0
548,56.0,240,120,2.0,64.0
549,54.0,0,240,2.0,64.0
550,69.0,240,0,1.0,64.0
551,55.0,240,240,2.0,64.0
552,68.0,240,240,1.0,64.0
553,56.0,0,480,2.0,64.0
554,72.0,120,960,0.0,64.0
555,66.0,480,240,1.0,64.0
556,64.0,120,600,1.0,64.0
557,57.0,0,240,2.0,64.0
558,71.0,0,960,0.0,64.0
559,56.0,0,240,2.0,64.0
560,66.0,120,120,1.0,64.0
561,64.0,120,120,1.0,64.0
562,54.0,0,240,2.0,64.0
563,63.0,240,120,1.0,64.0
564,53.0,120,240,2.0,64.0
565,61.0,0,240,1.0,64.0
566,54.0,120,120,2.0,64.0
567,62.0,0,240,1.0,64.0
568,53.0,120,120,2.0,64.0
569,63.0,120,480,1.0,64.0
570,54.0,120,120,2.0,64.0
571,70.0,120,960,0.0,64.0
572,56.0,120,120,2.0,64.0
573,54.0,120,120,2.0,64.0
574,52.0,0,120,2.0,64.0
575,51.0,120,120,2.0,64.0
576,49.0,120,120,2.0,64.0
577,51.0,120,120,2.0,64.0
578,64.0,0,240,1.0,64.0
579,52.0,0,120,2.0,64.0
580,63.0,0,240,1.0,64.0
581,69.0,0,960,0.0,64.0
582,54.0,120,120,2.0,64.0
583,51.0,120,120,2.0,64.0
584,61.0,240,240,1.0,64.0
585,52.0,120,120,2.0,64.0
586,54.0,0,120,2.0,64.0
587,60.0,120,240,1.0,64.0
588,56.0,0,240,2.0,64.0
589,66.0,120,480,2.0,64.0
590,61.0,120,120,1.0,64.0
591,60.0,120,120,1.0,64.0
592,68.0,0,720,0.0,64.0
593,61.0,120,120,1.0,64.0
594,63.0,0,120,1.0,64.0
595,61.0,120,120,1.0,64.0
596,64.0,0,120,2.0,64.0
597,59.0,120,120,1.0,64.0
598,63.0,0,120,2.0,64.0
599,58.0,120,120,1.0,64.0
600,64.0,120,240,2.0,64.0
601,56.0,0,120,1.0,64.0
602,61.0,0,240,2.0,64.0
603,67.0,0,240,0.0,64.0
604,58.0,120,120,1.0,64.0
605,59.0,120,120,1.0,64.0
606,58.0,0,240,2.0,64.0
607,64.0,120,240,0.0,64.0
608,61.0,120,120,1.0,64.0
609,58.0,0,120,1.0,64.0
610,59.0,120,120,1.0,64.0
611,63.0,0,120,2.0,64.0
612,63.0,240,240,0.0,64.0
613,61.0,0,120,2.0,64.0
614,61.0,0,120,1.0,64.0
615,63.0,120,240,1.0,64.0
616,68.0,240,480,0.0,64.0
617,60.0,0,240,2.0,64.0
618,61.0,120,120,2.0,64.0
619,73.0,0,480,1.0,64.0
620,63.0,0,120,2.0,64.0
621,64.0,120,240,2.0,64.0
622,55.0,240,240,2.0,64.0
623,71.0,120,120,1.0,64.0
624,70.0,0,120,1.0,64.0
625,71.0,240,240,1.0,64.0
626,56.0,0,480,2.0,64.0
627,68.0,240,240,1.0,64.0
628,73.0,120,960,0.0,64.0
629,65.0,120,240,1.0,64.0
630,70.0,120,120,1.0,64.0
631,68.0,240,120,1.0,64.0
632,67.0,120,240,1.0,64.0
633,56.0,120,360,2.0,64.0
634,68.0,120,120,1.0,64.0
635,70.0,0,120,1.0,64.0
636,71.0,0,480,0.0,64.0
637,71.0,0,240,1.0,64.0
638,59.0,120,120,2.0,64.0
639,62.0,120,240,1.0,64.0
640,58.0,120,120,2.0,64.0
641,56.0,0,120,2.0,64.0
642,55.0,120,120,2.0,64.0
643,70.0,120,960,0.0,64.0
644,63.0,0,480,1.0,64.0
645,56.0,120,120,2.0,64.0
646,58.0,120,120,2.0,64.0
647,59.0,120,120,2.0,64.0
648,61.0,120,120,2.0,64.0
649,64.0,120,120,2.0,64.0
650,63.0,120,120,2.0,64.0
651,61.0,0,120,2.0,64.0
652,59.0,120,120,2.0,64.0
653,68.0,0,720,0.0,64.0
654,56.0,120,120,2.0,64.0
655,63.0,120,360,1.0,64.0
656,59.0,120,120,2.0,64.0
657,63.0,120,120,2.0,64.0
658,68.0,0,960,2.0,64.0
659,66.0,120,120,1.0,64.0
660,70.0,120,240,0.0,64.0
661,65.0,120,120,1.0,64.0
662,63.0,0,120,1.0,64.0
663,62.0,120,120,1.0,64.0
664,71.0,0,240,0.0,64.0
665,63.0,120,120,1.0,64.0
666,72.0,0,240,0.0,64.0
667,65.0,120,120,1.0,64.0
668,66.0,120,120,1.0,64.0
669,68.0,120,120,1.0,64.0
670,66.0,0,240,2.0,64.0
671,73.0,0,240,0.0,64.0
672,71.0,120,120,1.0,64.0
673,65.0,0,240,2.0,64.0
674,74.0,120,240,0.0,64.0
675,70.0,120,120,1.0,64.0
676,68.0,0,120,1.0,64.0
677,66.0,120,600,2.0,64.0
678,66.0,120,120,1.0,64.0
679,75.0,0,960,0.0,64.0
680,63.0,120,120,1.0,64.0
681,66.0,120,120,1.0,64.0
682,70.0,120,120,1.0,64.0
683,75.0,120,960,1.0,64.0
684,60.0,120,120,2.0,64.0
685,58.0,120,120,2.0,64.0
686,60.0,120,120,2.0,64.0
687,61.0,120,120,2.0,64.0
688,76.0,120,600,0.0,64.0
689,56.0,120,120,2.0,64.0
690,61.0,120,120,2.0,64.0
691,63.0,0,120,2.0,64.0
692,73.0,0,240,1.0,64.0
693,73.0,120,120,0.0,64.0
694,69.0,120,120,0.0,64.0
695,72.0,0,240,1.0,64.0
696,68.0,240,120,0.0,64.0
697,73.0,120,600,1.0,64.0
698,67.0,0,480,0.0,64.0
699,64.0,240,0,2.0,64.0
700,63.0,0,240,2.0,64.0
701,67.0,120,120,1.0,64.0
702,65.0,120,120,1.0,64.0
703,61.0,120,240,2.0,64.0
704,67.0,0,120,1.0,64.0
705,59.0,120,600,2.0,64.0
706,68.0,120,120,1.0,64.0
707,63.0,120,120,1.0,64.0
708,68.0,120,120,1.0,64.0
709,70.0,120,120,1.0,64.0
710,75.0,240,960,0.0,64.0
711,61.0,120,120,2.0,64.0
712,59.0,120,120,2.0,64.0
713,58.0,240,120,2.0,64.0
714,56.0,240,240,2.0,64.0
715,71.0,0,0,1.0,64.0
716,57.0,0,240,2.0,64.0
717,70.0,240,240,1.0,64.0
718,58.0,480,480,2.0,64.0
719,74.0,0,960,0.0,64.0
720,68.0,0,240,1.0,64.0
721,66.0,120,600,1.0,64.0
722,59.0,120,240,2.0,64.0
723,58.0,0,240,2.0,64.0
724,73.0,120,960,0.0,64.0
725,68.0,120,120,1.0,64.0
726,66.0,120,120,1.0,64.0
727,56.0,0,240,2.0,64.0
728,65.0,240,120,1.0,64.0
729,55.0,120,240,2.0,64.0
730,63.0,0,240,1.0,64.0
731,56.0,120,120,2.0,64.0
732,64.0,0,240,1.0,64.0
733,55.0,0,120,2.0,64.0
734,65.0,120,480,1.0,64.0
735,72.0,0,960,0.0,64.0
736,56.0,120,120,2.0,64.0
737,58.0,120,120,2.0,64.0
738,56.0,120,120,2.0,64.0
739,54.0,0,120,2.0,64.0
740,53.0,120,120,2.0,64.0
741,51.0,120,120,2.0,64.0
742,66.0,0,240,1.0,64.0
743,53.0,120,120,2.0,64.0
744,54.0,120,120,2.0,64.0
745,71.0,120,960,0.0,64.0
746,65.0,0,240,1.0,64.0
747,56.0,120,120,2.0,64.0
748,53.0,120,120,2.0,64.0
749,54.0,120,120,2.0,64.0
750,63.0,240,240,1.0,64.0
751,56.0,0,120,2.0,64.0
752,58.0,0,240,2.0,64.0
753,62.0,120,240,1.0,64.0
754,68.0,120,480,2.0,64.0
755,63.0,120,120,1.0,64.0
756,62.0,0,120,1.0,64.0
757,70.0,0,720,0.0,64.0
758,63.0,120,120,1.0,64.0
759,65.0,0,120,1.0,64.0
760,63.0,0,120,1.0,64.0
761,66.0,120,120,2.0,64.0
762,61.0,120,120,1.0,64.0
763,65.0,0,120,2.0,64.0
764,66.0,0,240,2.0,64.0
765,60.0,120,120,1.0,64.0
766,58.0,120,120,1.0,64.0
767,60.0,120,120,1.0,64.0
768,69.0,120,240,0.0,64.0
769,63.0,0,240,2.0,64.0
770,61.0,0,120,1.0,64.0
771,60.0,120,240,2.0,64.0
772,63.0,120,120,1.0,64.0
773,66.0,0,240,0.0,64.0
774,60.0,0,120,1.0,64.0
775,61.0,0,120,1.0,64.0
776,65.0,0,240,0.0,64.0
777,65.0,120,120,2.0,64.0
778,63.0,0,120,2.0,64.0
779,63.0,240,120,1.0,64.0
780,62.0,0,240,2.0,64.0
781,70.0,0,480,0.0,64.0
782,65.0,120,240,1.0,64.0
783,63.0,120,120,2.0,64.0
784,75.0,120,480,1.0,64.0
785,65.0,240,120,2.0,64.0
786,66.0,0,240,2.0,64.0
787,57.0,240,240,2.0,64.0
788,73.0,120,120,1.0,64.0
789,72.0,0,120,1.0,64.0
790,73.0,240,240,1.0,64.0
791,58.0,0,480,2.0,64.0
792,70.0,240,240,1.0,64.0
793,75.0,120,960,0.0,64.0
794,67.0,120,240,1.0,64.0
795,72.0,120,120,1.0,64.0
796,70.0,240,120,1.0,64.0
797,69.0,120,240,1.0,64.0
798,70.0,120,120,1.0,64.0
799,58.0,120,360,2.0,64.0
800,72.0,0,120,1.0,64.0
801,73.0,0,480,0.0,64.0
802,73.0,0,240,1.0,64.0
803,61.0,120,120,2.0,64.0
804,60.0,120,120,2.0,64.0
805,64.0,0,240,1.0,64.0
806,58.0,120,120,2.0,64.0
807,57.0,120,120,2.0,64.0
808,65.0,120,480,1.0,64.0
809,72.0,120,960,0.0,64.0
810,58.0,120,120,2.0,64.0
811,60.0,120,120,2.0,64.0
812,61.0,0,120,2.0,64.0
813,63.0,120,120,2.0,64.0
814,66.0,120,120,2.0,64.0
815,65.0,120,120,2.0,64.0
816,63.0,0,120,2.0,64.0
817,61.0,120,120,2.0,64.0
818,70.0,0,720,0.0,64.0
819,58.0,120,120,2.0,64.0
820,65.0,120,360,1.0,64.0
821,61.0,120,120,2.0,64.0
822,65.0,120,120,2.0,64.0
823,70.0,120,960,2.0,64.0
824,68.0,120,120,1.0,64.0
825,67.0,120,120,1.0,64.0
826,72.0,120,240,0.0,64.0
827,65.0,0,120,1.0,64.0
828,64.0,120,120,1.0,64.0
829,73.0,120,240,0.0,64.0
830,65.0,0,120,1.0,64.0
831,67.0,120,120,1.0,64.0
832,74.0,0,240,0.0,64.0
833,68.0,0,120,1.0,64.0
834,75.0,0,240,0.0,64.0
835,68.0,120,240,2.0,64.0
836,70.0,120,120,1.0,64.0
837,73.0,0,120,1.0,64.0
838,72.0,120,120,1.0,64.0
839,76.0,120,240,0.0,64.0
840,67.0,0,240,2.0,64.0
841,70.0,0,120,1.0,64.0
842,68.0,120,120,1.0,64.0
843,77.0,0,960,0.0,64.0
844,68.0,120,600,2.0,64.0
845,65.0,120,120,1.0,64.0
846,68.0,120,120,1.0,64.0
847,72.0,120,120,1.0,64.0
848,77.0,0,960,1.0,64.0
849,62.0,120,120,2.0,64.0
850,60.0,120,120,2.0,64.0
851,62.0,120,120,2.0,64.0
852,78.0,120,600,0.0,64.0
853,63.0,120,120,2.0,64.0
854,58.0,120,120,2.0,64.0
855,63.0,120,120,2.0,64.0
856,65.0,120,120,2.0,64.0
857,75.0,0,240,1.0,64.0
858,75.0,120,120,0.0,64.0
859,74.0,240,240,1.0,64.0
860,71.0,120,120,0.0,64.0
861,70.0,0,120,0.0,64.0
862,69.0,0,480,0.0,64.0
863,75.0,120,600,1.0,64.0
864,66.0,240,0,2.0,64.0
865,65.0,0,240,2.0,64.0
866,69.0,120,120,1.0,64.0
867,63.0,120,240,2.0,64.0
868,67.0,120,120,1.0,64.0
869,69.0,0,120,1.0,64.0
870,70.0,120,120,1.0,64.0
871,61.0,120,600,2.0,64.0
872,65.0,120,120,1.0,64.0
873,70.0,120,120,1.0,64.0
874,72.0,120,120,1.0,64.0
875,73.0,240,720,1.0,64.0
876,77.0,0,960,0.0,64.0
877,63.0,120,120,2.0,64.0
878,61.0,120,120,2.0,64.0
879,60.0,240,120,2.0,64.0
880,58.0,0,240,2.0,64.0
881,59.0,0,240,2.0,64.0
882,73.0,240,240,1.0,64.0
883,72.0,240,240,1.0,64.0
884,76.0,120,960,0.0,64.0
885,60.0,480,480,2.0,64.0
886,70.0,0,240,1.0,64.0
887,68.0,120,600,1.0,64.0
888,61.0,0,240,2.0,64.0
889,60.0,0,240,2.0,64.0
890,75.0,120,960,0.0,64.0
891,70.0,120,120,1.0,64.0
892,58.0,240,240,2.0,64.0
893,68.0,120,120,1.0,64.0
894,67.0,0,120,1.0,64.0
895,57.0,120,240,2.0,64.0
896,65.0,0,240,1.0,64.0
897,66.0,0,240,1.0,64.0
898,58.0,120,120,2.0,64.0
899,57.0,0,120,2.0,64.0
900,67.0,0,480,1.0,64.0
901,74.0,0,960,0.0,64.0
902,58.0,120,120,2.0,64.0
903,60.0,120,120,2.0,64.0
904,58.0,120,120,2.0,64.0
905,56.0,120,120,2.0,64.0
906,55.0,120,120,2.0,64.0
907,53.0,120,120,2.0,64.0
908,55.0,120,120,2.0,64.0
909,68.0,0,240,1.0,64.0
910,56.0,120,120,2.0,64.0
911,67.0,0,240,1.0,64.0
912,73.0,120,960,0.0,64.0
913,58.0,120,120,2.0,64.0
914,55.0,120,120,2.0,64.0
915,65.0,0,240,1.0,64.0
916,56.0,120,120,2.0,64.0
917,58.0,240,120,2.0,64.0
918,64.0,120,240,1.0,64.0
919,60.0,0,240,2.0,64.0
920,65.0,120,120,1.0,64.0
921,70.0,120,480,2.0,64.0
922,64.0,0,120,1.0,64.0
923,72.0,120,720,0.0,64.0
924,65.0,120,120,1.0,64.0
925,67.0,0,120,1.0,64.0
926,65.0,120,120,1.0,64.0
927,68.0,0,120,2.0,64.0
928,67.0,120,120,2.0,64.0
929,63.0,0,120,1.0,64.0
930,62.0,120,120,1.0,64.0
931,68.0,0,240,2.0,64.0
932,60.0,0,120,1.0,64.0
933,71.0,120,240,0.0,64.0
934,62.0,120,120,1.0,64.0
935,65.0,0,240,2.0,64.0
936,63.0,0,120,1.0,64.0
937,65.0,120,120,1.0,64.0
938,62.0,0,240,2.0,64.0
939,68.0,0,240,0.0,64.0
940,62.0,120,120,1.0,64.0
941,67.0,240,240,0.0,64.0
942,67.0,0,120,2.0,64.0
943,63.0,120,120,1.0,64.0
944,65.0,0,120,1.0,64.0
945,65.0,0,120,2.0,64.0
946,67.0,0,240,1.0,64.0
947,72.0,0,480,0.0,64.0
948,64.0,120,240,2.0,64.0
949,77.0,120,480,1.0,64.0
950,65.0,120,120,2.0,64.0
951,67.0,240,120,2.0,64.0
952,68.0,0,240,2.0,64.0
953,75.0,120,120,1.0,64.0
954,59.0,240,240,2.0,64.0
955,74.0,0,120,1.0,64.0
956,60.0,0,480,2.0,64.0
957,75.0,240,240,1.0,64.0
958,72.0,240,240,1.0,64.0
959,77.0,120,960,0.0,64.0
960,69.0,120,240,1.0,64.0
961,74.0,120,120,1.0,64.0
962,72.0,240,120,1.0,64.0
963,71.0,120,240,1.0,64.0
964,72.0,120,120,1.0,64.0
965,60.0,120,360,2.0,64.0
966,74.0,0,120,1.0,64.0
967,75.0,0,240,1.0,64.0
968,75.0,0,480,0.0,64.0
969,63.0,120,120,2.0,64.0
970,66.0,0,240,1.0,64.0
971,62.0,120,120,2.0,64.0
972,60.0,120,120,2.0,64.0
973,67.0,120,480,1.0,64.0
974,59.0,120,120,2.0,64.0
975,74.0,120,960,0.0,64.0
976,60.0,120,120,2.0,64.0
977,62.0,120,120,2.0,64.0
978,63.0,0,120,2.0,64.0
979,65.0,120,120,2.0,64.0
980,68.0,120,120,2.0,64.0
981,67.0,120,120,2.0,64.0
982,65.0,0,120,2.0,64.0
983,63.0,120,120,2.0,64.0
984,72.0,120,720,0.0,64.0
985,60.0,120,120,2.0,64.0
986,67.0,120,360,1.0,64.0
987,63.0,120,120,2.0,64.0
988,67.0,120,120,2.0,64.0
989,72.0,120,960,2.0,64.0
990,70.0,0,120,1.0,64.0
991,69.0,120,120,1.0,64.0
992,74.0,0,240,0.0,64.0
993,67.0,120,120,1.0,64.0
994,75.0,120,240,0.0,64.0
995,66.0,120,120,1.0,64.0
996,67.0,0,120,1.0,64.0
997,76.0,0,240,0.0,64.0
998,69.0,120,120,1.0,64.0
999,70.0,0,120,1.0,64.0
1000,72.0,120,120,1.0,64.0
1001,77.0,120,240,0.0,64.0
1002,70.0,0,240,2.0,64.0
1003,75.0,0,120,1.0,64.0
1004,69.0,120,240,2.0,64.0
1005,78.0,0,240,0.0,64.0
1006,74.0,120,120,1.0,64.0
1007,72.0,0,120,1.0,64.0
1008,70.0,120,120,1.0,64.0
1009,79.0,0,960,0.0,64.0
1010,70.0,120,600,2.0,64.0
1011,67.0,120,120,1.0,64.0
1012,70.0,120,120,1.0,64.0
1013,74.0,120,120,1.0,64.0
1014,79.0,0,960,1.0,64.0
1015,64.0,120,120,2.0,64.0
1016,62.0,120,120,2.0,64.0
1017,64.0,120,120,2.0,64.0
1018,65.0,120,120,2.0,64.0
1019,80.0,120,600,0.0,64.0
1020,60.0,120,120,2.0,64.0
1021,65.0,120,120,2.0,64.0
1022,67.0,120,120,2.0,64.0
1023,77.0,0,240,1.0,64.0
1024,77.0,120,120,0.0,64.0
1025,76.0,0,240,1.0,64.0
1026,73.0,120,120,0.0,64.0
1027,72.0,240,120,0.0,64.0
1028,77.0,120,600,1.0,64.0
1029,71.0,0,480,0.0,64.0
1030,68.0,240,0,2.0,64.0
1031,67.0,0,240,2.0,64.0
1032,71.0,120,120,1.0,64.0
1033,65.0,0,240,2.0,64.0
1034,69.0,120,120,1.0,64.0
1035,71.0,120,120,1.0,64.0
1036,72.0,120,120,1.0,64.0
1037,63.0,120,600,2.0,64.0
1038,67.0,120,120,1.0,64.0
1039,72.0,120,120,1.0,64.0
1040,74.0,120,120,1.0,64.0
1041,79.0,240,960,0.0,64.0
1042,65.0,120,120,2.0,64.0
1043,63.0,120,120,2.0,64.0
1044,62.0,240,120,2.0,64.0
1045,60.0,0,240,2.0,64.0
1046,75.0,240,0,1.0,64.0
1047,61.0,0,240,2.0,64.0
1048,74.0,240,240,1.0,64.0
1049,62.0,480,480,2.0,64.0
1050,78.0,120,960,0.0,64.0
1051,72.0,0,240,1.0,64.0
1052,70.0,120,600,1.0,64.0
1053,63.0,0,240,2.0,64.0
1054,62.0,120,240,2.0,64.0
1055,77.0,120,960,0.0,64.0
1056,72.0,0,120,1.0,64.0
1057,70.0,120,120,1.0,64.0
1058,60.0,240,240,2.0,64.0
1059,69.0,0,120,1.0,64.0
1060,67.0,120,240,1.0,64.0
1061,59.0,0,240,2.0,64.0
1062,68.0,0,240,1.0,64.0
1063,60.0,120,120,2.0,64.0
1064,59.0,0,120,2.0,64.0
1065,60.0,120,120,2.0,64.0
1066,69.0,0,480,1.0,64.0
1067,76.0,0,960,0.0,64.0
1068,62.0,120,120,2.0,64.0
1069,60.0,120,120,2.0,64.0
1070,58.0,120,120,2.0,64.0
1071,57.0,120,120,2.0,64.0
1072,55.0,120,120,2.0,64.0
1073,57.0,120,120,2.0,64.0
1074,70.0,0,240,1.0,64.0
1075,58.0,120,120,2.0,64.0
1076,60.0,120,120,2.0,64.0
1077,75.0,0,960,0.0,64.0
1078,69.0,120,240,1.0,64.0
1079,57.0,0,120,2.0,64.0
1080,58.0,120,120,2.0,64.0
1081,67.0,240,240,1.0,64.0
1082,60.0,0,120,2.0,64.0
1083,62.0,120,240,2.0,64.0
1084,66.0,0,240,1.0,64.0
1085,72.0,0,480,2.0,64.0
1086,67.0,120,120,1.0,64.0
1087,66.0,120,120,1.0,64.0
1088,74.0,0,720,0.0,64.0
1089,67.0,120,120,1.0,64.0
1090,69.0,120,120,1.0,64.0
1091,70.0,120,120,2.0,64.0
1092,67.0,0,120,1.0,64.0
1093,69.0,0,120,2.0,64.0
1094,65.0,120,120,1.0,64.0
1095,70.0,0,240,2.0,64.0
1096,64.0,120,120,1.0,64.0
1097,62.0,120,120,1.0,64.0
1098,73.0,0,240,0.0,64.0
1099,67.0,0,240,2.0,64.0
1100,64.0,120,120,1.0,64.0
1101,65.0,120,120,1.0,64.0
1102,70.0,0,240,0.0,64.0
1103,67.0,120,120,1.0,64.0
1104,64.0,120,240,2.0,64.0
1105,64.0,0,120,1.0,64.0
1106,69.0,120,120,2.0,64.0
1107,69.0,0,240,0.0,64.0
1108,65.0,0,120,1.0,64.0
1109,67.0,240,120,1.0,64.0
1110,67.0,0,120,2.0,64.0
1111,69.0,120,240,1.0,64.0
1112,66.0,0,240,2.0,64.0
1113,74.0,240,480,0.0,64.0
1114,67.0,120,120,2.0,64.0
1115,79.0,0,480,1.0,64.0
1116,69.0,0,120,2.0,64.0
1117,70.0,120,240,2.0,64.0
1118,77.0,120,120,1.0,64.0
1119,61.0,0,240,2.0,64.0
1120,76.0,240,120,1.0,64.0
1121,77.0,240,240,1.0,64.0
1122,62.0,240,480,2.0,64.0
1123,74.0,0,240,1.0,64.0
1124,79.0,0,960,0.0,64.0
1125,71.0,120,240,1.0,64.0
1126,76.0,120,120,1.0,64.0
1127,74.0,240,120,1.0,64.0
1128,73.0,120,240,1.0,64.0
1129,62.0,120,360,2.0,64.0
1130,74.0,120,120,1.0,64.0
1131,76.0,120,120,1.0,64.0
1132,77.0,120,240,1.0,64.0
1133,77.0,0,480,0.0,64.0
1134,65.0,0,120,2.0,64.0
1135,64.0,120,120,2.0,64.0
1136,68.0,120,240,1.0,64.0
1137,62.0,0,120,2.0,64.0
1138,76.0,0,960,0.0,64.0
1139,69.0,120,480,1.0,64.0
1140,61.0,120,120,2.0,64.0
1141,62.0,120,120,2.0,64.0
1142,64.0,120,120,2.0,64.0
1143,65.0,0,120,2.0,64.0
1144,67.0,120,120,2.0,64.0
1145,70.0,120,120,2.0,64.0
1146,69.0,120,120,2.0,64.0
1147,67.0,120,120,2.0,64.0
1148,65.0,120,120,2.0,64.0
1149,74.0,0,960,0.0,64.0
1150,62.0,120,120,2.0,64.0
1151,65.0,120,120,2.0,64.0
1152,69.0,480,120,2.0,64.0
1153,74.0,0,480,2.0,64.0
