,note,step,duration,channel,velocity
0,50.0,28,109,1.0,1.0
1,74.0,17,46,0.0,1.0
2,76.0,43,46,0.0,1.0
3,78.0,43,44,0.0,1.0
4,69.0,41,44,0.0,1.0
5,62.0,1,85,1.0,1.0
6,78.0,43,43,0.0,1.0
7,76.0,45,43,0.0,1.0
8,74.0,42,46,0.0,1.0
9,81.0,42,44,0.0,1.0
10,54.0,27,102,1.0,1.0
11,74.0,16,44,0.0,1.0
12,76.0,42,44,0.0,1.0
13,78.0,41,43,0.0,1.0
14,69.0,41,42,0.0,1.0
15,62.0,1,83,1.0,1.0
16,78.0,42,43,0.0,1.0
17,76.0,43,43,0.0,1.0
18,74.0,44,44,0.0,1.0
19,79.0,43,45,0.0,1.0
20,52.0,27,103,1.0,1.0
21,76.0,15,45,0.0,1.0
22,78.0,42,44,0.0,1.0
23,79.0,42,42,0.0,1.0
24,71.0,41,43,0.0,1.0
25,62.0,2,84,1.0,1.0
26,74.0,42,44,0.0,1.0
27,73.0,43,43,0.0,1.0
28,71.0,42,43,0.0,1.0
29,73.0,41,43,0.0,1.0
30,57.0,1,84,1.0,1.0
31,76.0,41,43,0.0,1.0
32,78.0,42,41,0.0,1.0
33,79.0,41,42,0.0,1.0
34,69.0,40,43,0.0,1.0
35,61.0,2,83,1.0,1.0
36,79.0,43,44,0.0,1.0
37,78.0,44,44,0.0,1.0
38,76.0,43,45,0.0,1.0
39,78.0,42,45,0.0,1.0
40,50.0,26,103,1.0,1.0
41,74.0,16,44,0.0,1.0
42,76.0,41,43,0.0,1.0
43,78.0,42,43,0.0,1.0
44,69.0,40,43,0.0,1.0
45,62.0,1,83,1.0,1.0
46,73.0,42,43,0.0,1.0
47,71.0,43,42,0.0,1.0
48,69.0,42,43,0.0,1.0
49,71.0,41,43,0.0,1.0
50,50.0,26,99,1.0,1.0
51,74.0,15,42,0.0,1.0
52,76.0,41,42,0.0,1.0
53,78.0,41,43,0.0,1.0
54,71.0,41,43,0.0,1.0
55,62.0,2,84,1.0,1.0
56,81.0,43,44,0.0,1.0
57,80.0,42,44,0.0,1.0
58,78.0,42,44,0.0,1.0
59,80.0,42,44,0.0,1.0
60,50.0,26,103,1.0,1.0
61,76.0,17,43,0.0,1.0
62,78.0,43,44,0.0,1.0
63,80.0,42,44,0.0,1.0
64,71.0,41,44,0.0,1.0
65,56.0,2,85,1.0,1.0
66,74.0,41,45,0.0,1.0
67,73.0,44,42,0.0,1.0
68,71.0,41,45,0.0,1.0
69,69.0,42,43,0.0,1.0
70,49.0,26,101,1.0,1.0
71,73.0,16,43,0.0,1.0
72,74.0,42,43,0.0,1.0
73,76.0,40,44,0.0,1.0
74,66.0,41,41,1.0,1.0
75,57.0,1,82,1.0,1.0
76,76.0,42,42,0.0,1.0
77,74.0,43,42,0.0,1.0
78,73.0,43,44,0.0,1.0
79,74.0,42,44,0.0,1.0
80,47.0,26,102,2.0,1.0
81,71.0,16,44,0.0,1.0
82,73.0,42,43,0.0,1.0
83,74.0,40,43,0.0,1.0
84,66.0,43,42,1.0,1.0
85,57.0,0,84,1.0,1.0
86,69.0,42,42,0.0,1.0
87,68.0,42,42,0.0,1.0
88,66.0,42,43,1.0,1.0
89,68.0,42,41,0.0,1.0
90,52.0,1,83,1.0,1.0
91,71.0,40,44,0.0,1.0
92,73.0,42,41,0.0,1.0
93,74.0,40,42,0.0,1.0
94,64.0,42,42,1.0,1.0
95,56.0,1,83,1.0,1.0
96,74.0,42,43,0.0,1.0
97,73.0,42,43,0.0,1.0
98,71.0,42,43,0.0,1.0
99,73.0,42,44,0.0,1.0
100,45.0,26,101,2.0,1.0
101,69.0,16,43,0.0,1.0
102,71.0,42,43,0.0,1.0
103,73.0,42,43,0.0,1.0
104,64.0,42,43,1.0,1.0
105,57.0,43,84,1.0,1.0
106,67.0,0,42,1.0,1.0
107,66.0,42,42,1.0,1.0
108,64.0,42,42,1.0,1.0
109,66.0,43,41,1.0,1.0
110,45.0,27,99,2.0,1.0
111,69.0,15,42,0.0,1.0
112,71.0,41,43,0.0,1.0
113,73.0,42,43,0.0,1.0
114,66.0,42,43,1.0,1.0
115,57.0,2,84,1.0,1.0
116,76.0,42,44,0.0,1.0
117,75.0,43,44,0.0,1.0
118,73.0,43,44,0.0,1.0
119,75.0,43,44,0.0,1.0
120,45.0,27,101,2.0,1.0
121,71.0,15,44,0.0,1.0
122,73.0,43,43,0.0,1.0
123,75.0,40,44,0.0,1.0
124,66.0,43,42,1.0,1.0
125,51.0,1,84,1.0,1.0
126,69.0,40,43,0.0,1.0
127,67.0,42,41,1.0,1.0
128,66.0,41,42,1.0,1.0
129,64.0,42,40,1.0,1.0
130,43.0,26,98,2.0,1.0
131,67.0,16,42,1.0,1.0
132,69.0,40,42,0.0,1.0
133,71.0,39,42,0.0,1.0
134,61.0,40,40,1.0,1.0
135,52.0,2,79,1.0,1.0
136,74.0,41,42,0.0,1.0
137,73.0,42,43,0.0,1.0
138,71.0,43,43,0.0,1.0
139,70.0,40,45,0.0,1.0
140,42.0,25,101,2.0,1.0
141,64.0,17,42,1.0,1.0
142,66.0,42,42,1.0,1.0
143,67.0,43,41,1.0,1.0
144,61.0,42,42,1.0,1.0
145,54.0,42,84,1.0,1.0
146,67.0,0,42,1.0,1.0
147,66.0,43,41,1.0,1.0
148,64.0,42,42,1.0,1.0
149,62.0,42,42,1.0,1.0
150,42.0,26,99,2.0,1.0
151,71.0,15,42,0.0,1.0
152,73.0,41,42,0.0,1.0
153,74.0,40,41,0.0,1.0
154,66.0,42,41,1.0,1.0
155,54.0,42,83,1.0,1.0
156,69.0,0,41,0.0,1.0
157,68.0,42,42,0.0,1.0
158,66.0,42,42,1.0,1.0
159,65.0,44,42,1.0,1.0
160,42.0,28,101,2.0,1.0
161,68.0,15,44,0.0,1.0
162,69.0,43,44,0.0,1.0
163,71.0,41,44,0.0,1.0
164,54.0,2,85,1.0,1.0
165,65.0,42,43,1.0,1.0
166,74.0,42,43,0.0,1.0
167,73.0,42,43,0.0,1.0
168,71.0,42,43,0.0,1.0
169,80.0,41,43,0.0,1.0
170,42.0,27,100,2.0,1.0
171,77.0,16,42,0.0,1.0
172,78.0,40,44,0.0,1.0
173,80.0,42,42,0.0,1.0
174,73.0,41,43,0.0,1.0
175,54.0,1,84,1.0,1.0
176,83.0,43,43,0.0,1.0
177,81.0,43,43,0.0,1.0
178,80.0,42,44,0.0,1.0
179,81.0,42,44,0.0,1.0
180,42.0,27,102,2.0,1.0
181,78.0,16,44,0.0,1.0
182,80.0,42,45,0.0,1.0
183,81.0,42,43,0.0,1.0
184,73.0,41,43,0.0,1.0
185,54.0,2,84,1.0,1.0
186,76.0,42,44,0.0,1.0
187,75.0,43,43,0.0,1.0
188,73.0,43,44,0.0,1.0
189,75.0,40,44,0.0,1.0
190,47.0,2,84,2.0,1.0
191,78.0,41,44,0.0,1.0
192,79.0,43,42,0.0,1.0
193,81.0,40,44,0.0,1.0
194,71.0,40,42,0.0,1.0
195,51.0,1,82,1.0,1.0
196,81.0,42,42,0.0,1.0
197,79.0,43,42,0.0,1.0
198,78.0,41,44,0.0,1.0
199,79.0,42,42,0.0,1.0
200,40.0,26,100,2.0,1.0
201,76.0,16,43,0.0,1.0
202,78.0,42,43,0.0,1.0
203,79.0,41,42,0.0,1.0
204,71.0,38,42,0.0,1.0
205,52.0,2,80,1.0,1.0
206,74.0,41,42,0.0,1.0
207,72.0,41,42,0.0,1.0
208,71.0,41,42,0.0,1.0
209,72.0,42,42,0.0,1.0
210,40.0,26,98,2.0,1.0
211,75.0,14,43,0.0,1.0
212,76.0,41,42,0.0,1.0
213,78.0,42,42,0.0,1.0
214,69.0,41,43,0.0,1.0
215,51.0,1,83,1.0,1.0
216,72.0,41,43,0.0,1.0
217,71.0,42,42,0.0,1.0
218,69.0,42,43,0.0,1.0
219,67.0,45,43,1.0,1.0
220,40.0,28,104,2.0,1.0
221,76.0,16,45,0.0,1.0
222,78.0,43,46,0.0,1.0
223,79.0,43,45,0.0,1.0
224,71.0,43,45,0.0,1.0
225,52.0,1,87,1.0,1.0
226,74.0,42,44,0.0,1.0
227,73.0,42,43,0.0,1.0
228,71.0,42,43,0.0,1.0
229,73.0,41,43,0.0,1.0
230,45.0,1,83,2.0,1.0
231,76.0,43,42,0.0,1.0
232,78.0,42,44,0.0,1.0
233,79.0,43,44,0.0,1.0
234,69.0,42,44,0.0,1.0
235,49.0,1,85,1.0,1.0
236,79.0,42,44,0.0,1.0
237,78.0,44,43,0.0,1.0
238,76.0,43,44,0.0,1.0
239,78.0,43,44,0.0,1.0
240,38.0,28,101,2.0,1.0
241,74.0,15,45,0.0,1.0
242,76.0,43,44,0.0,1.0
243,78.0,42,44,0.0,1.0
244,69.0,40,44,0.0,1.0
245,50.0,2,84,1.0,1.0
246,72.0,41,44,0.0,1.0
247,71.0,43,42,0.0,1.0
248,69.0,42,43,0.0,1.0
249,71.0,40,44,0.0,1.0
250,38.0,27,101,2.0,1.0
251,67.0,17,42,1.0,1.0
252,69.0,41,43,0.0,1.0
253,71.0,39,43,0.0,1.0
254,61.0,42,41,1.0,1.0
255,50.0,1,82,1.0,1.0
256,71.0,41,42,0.0,1.0
257,69.0,40,42,0.0,1.0
258,67.0,43,42,1.0,1.0
259,66.0,43,42,1.0,1.0
260,38.0,26,102,2.0,1.0
261,62.0,17,42,1.0,1.0
262,64.0,42,43,1.0,1.0
263,66.0,43,42,1.0,1.0
264,57.0,42,42,1.0,1.0
265,50.0,42,85,1.0,1.0
266,60.0,1,41,1.0,1.0
267,59.0,42,42,1.0,1.0
268,57.0,42,42,1.0,1.0
269,59.0,41,42,1.0,1.0
270,38.0,25,99,2.0,1.0
271,62.0,17,40,1.0,1.0
272,64.0,41,41,1.0,1.0
273,66.0,41,41,1.0,1.0
274,59.0,42,40,1.0,1.0
275,50.0,1,82,1.0,1.0
276,69.0,41,42,0.0,1.0
277,68.0,41,42,0.0,1.0
278,66.0,44,42,1.0,1.0
279,68.0,41,43,0.0,1.0
280,38.0,25,101,2.0,1.0
281,64.0,17,43,1.0,1.0
282,66.0,43,42,1.0,1.0
283,68.0,40,43,0.0,1.0
284,59.0,43,41,1.0,1.0
285,56.0,41,83,1.0,1.0
286,62.0,0,42,1.0,1.0
287,60.0,42,40,1.0,1.0
288,59.0,41,42,1.0,1.0
289,57.0,41,40,1.0,1.0
290,48.0,25,97,2.0,1.0
291,60.0,16,41,1.0,1.0
292,62.0,39,41,1.0,1.0
293,64.0,41,39,1.0,1.0
294,57.0,41,40,1.0,1.0
295,54.0,41,80,1.0,1.0
296,67.0,0,40,1.0,1.0
297,66.0,42,40,1.0,1.0
298,64.0,42,41,1.0,1.0
299,63.0,42,42,1.0,1.0
300,47.0,27,100,2.0,1.0
301,57.0,16,41,1.0,1.0
302,59.0,41,42,1.0,1.0
303,60.0,42,41,1.0,1.0
304,54.0,42,42,1.0,1.0
305,51.0,41,83,1.0,1.0
306,60.0,0,41,1.0,1.0
307,59.0,41,41,1.0,1.0
308,57.0,40,41,1.0,1.0
309,55.0,42,39,1.0,1.0
310,52.0,40,81,1.0,1.0
311,64.0,0,41,1.0,1.0
312,66.0,41,39,1.0,1.0
313,67.0,42,41,1.0,1.0
314,55.0,41,82,1.0,1.0
315,59.0,41,41,1.0,1.0
316,62.0,0,41,1.0,1.0
317,61.0,42,40,1.0,1.0
318,59.0,41,41,1.0,1.0
319,58.0,41,40,1.0,1.0
320,47.0,24,98,2.0,1.0
321,61.0,17,41,1.0,1.0
322,62.0,42,41,1.0,1.0
323,64.0,42,41,1.0,1.0
324,58.0,41,41,1.0,1.0
325,52.0,41,83,1.0,1.0
326,67.0,1,41,1.0,1.0
327,66.0,42,41,1.0,1.0
328,64.0,42,41,1.0,1.0
329,73.0,39,42,0.0,1.0
330,55.0,2,80,1.0,1.0
331,70.0,41,43,0.0,1.0
332,71.0,42,42,0.0,1.0
333,73.0,39,44,0.0,1.0
334,58.0,1,82,1.0,1.0
335,66.0,41,41,1.0,1.0
336,76.0,42,42,0.0,1.0
337,74.0,43,42,0.0,1.0
338,73.0,41,44,0.0,1.0
339,74.0,42,43,0.0,1.0
340,47.0,26,101,2.0,1.0
341,71.0,16,43,0.0,1.0
342,73.0,44,44,0.0,1.0
343,74.0,40,45,0.0,1.0
344,66.0,43,42,1.0,1.0
345,59.0,1,85,1.0,1.0
346,69.0,42,44,0.0,1.0
347,68.0,41,42,0.0,1.0
348,66.0,42,43,1.0,1.0
349,68.0,40,42,0.0,1.0
350,52.0,2,81,1.0,1.0
351,71.0,41,43,0.0,1.0
352,72.0,42,42,0.0,1.0
353,74.0,38,43,0.0,1.0
354,64.0,40,40,1.0,1.0
355,56.0,1,79,1.0,1.0
356,74.0,41,40,0.0,1.0
357,72.0,41,42,0.0,1.0
358,71.0,41,42,0.0,1.0
359,72.0,41,43,0.0,1.0
360,45.0,26,98,2.0,1.0
361,69.0,15,42,0.0,1.0
362,71.0,41,42,0.0,1.0
363,72.0,41,42,0.0,1.0
364,57.0,41,84,1.0,1.0
365,64.0,42,41,1.0,1.0
366,67.0,1,42,1.0,1.0
367,66.0,43,41,1.0,1.0
368,64.0,43,43,1.0,1.0
369,66.0,42,43,1.0,1.0
370,50.0,1,84,1.0,1.0
371,69.0,42,43,0.0,1.0
372,71.0,42,43,0.0,1.0
373,72.0,39,43,0.0,1.0
374,62.0,40,40,1.0,1.0
375,54.0,2,80,1.0,1.0
376,72.0,41,42,0.0,1.0
377,71.0,43,42,0.0,1.0
378,69.0,42,43,0.0,1.0
379,71.0,41,43,0.0,1.0
380,43.0,26,102,2.0,1.0
381,67.0,18,42,1.0,1.0
382,69.0,43,43,0.0,1.0
383,71.0,42,44,0.0,1.0
384,62.0,42,43,1.0,1.0
385,55.0,1,85,1.0,1.0
386,71.0,42,43,0.0,1.0
387,69.0,41,42,0.0,1.0
388,67.0,42,43,1.0,1.0
389,74.0,40,42,0.0,1.0
390,47.0,25,98,2.0,1.0
391,67.0,17,41,1.0,1.0
392,69.0,43,41,0.0,1.0
393,71.0,40,43,0.0,1.0
394,62.0,40,42,1.0,1.0
395,55.0,2,82,1.0,1.0
396,71.0,42,41,0.0,1.0
397,69.0,41,43,0.0,1.0
398,67.0,43,42,1.0,1.0
399,72.0,43,43,0.0,1.0
400,45.0,26,101,2.0,1.0
401,69.0,16,44,0.0,1.0
402,71.0,43,44,0.0,1.0
403,72.0,40,44,0.0,1.0
404,64.0,42,42,1.0,1.0
405,55.0,42,85,1.0,1.0
406,67.0,1,41,1.0,1.0
407,66.0,41,42,1.0,1.0
408,64.0,42,41,1.0,1.0
409,66.0,42,42,1.0,1.0
410,50.0,1,83,1.0,1.0
411,69.0,42,42,0.0,1.0
412,71.0,43,42,0.0,1.0
413,72.0,39,43,0.0,1.0
414,62.0,41,41,1.0,1.0
415,54.0,2,81,1.0,1.0
416,72.0,41,42,0.0,1.0
417,71.0,42,42,0.0,1.0
418,69.0,41,43,0.0,1.0
419,71.0,40,42,0.0,1.0
420,43.0,27,99,2.0,1.0
421,67.0,17,41,1.0,1.0
422,69.0,43,43,0.0,1.0
423,71.0,40,44,0.0,1.0
424,62.0,42,42,1.0,1.0
425,55.0,41,85,1.0,1.0
426,66.0,1,41,1.0,1.0
427,64.0,43,41,1.0,1.0
428,62.0,42,43,1.0,1.0
429,64.0,43,42,1.0,1.0
430,43.0,26,102,2.0,1.0
431,67.0,18,42,1.0,1.0
432,69.0,42,43,0.0,1.0
433,71.0,41,43,0.0,1.0
434,64.0,39,42,1.0,1.0
435,55.0,2,80,1.0,1.0
436,74.0,41,41,0.0,1.0
437,73.0,42,42,0.0,1.0
438,71.0,42,43,0.0,1.0
439,73.0,43,43,0.0,1.0
440,43.0,27,101,2.0,1.0
441,69.0,15,44,0.0,1.0
442,71.0,42,43,0.0,1.0
443,73.0,42,44,0.0,1.0
444,64.0,42,44,1.0,1.0
445,49.0,42,85,1.0,1.0
446,67.0,0,42,1.0,1.0
447,66.0,43,41,1.0,1.0
448,64.0,42,42,1.0,1.0
449,62.0,41,41,1.0,1.0
450,42.0,25,98,2.0,1.0
451,66.0,16,41,1.0,1.0
452,67.0,42,41,1.0,1.0
453,69.0,40,41,0.0,1.0
454,59.0,41,41,1.0,1.0
455,50.0,1,81,1.0,1.0
456,69.0,40,42,0.0,1.0
457,67.0,43,41,1.0,1.0
458,66.0,43,42,1.0,1.0
459,67.0,42,43,1.0,1.0
460,40.0,26,101,2.0,1.0
461,64.0,16,42,1.0,1.0
462,66.0,43,42,1.0,1.0
463,67.0,43,42,1.0,1.0
464,50.0,43,84,1.0,1.0
465,59.0,42,42,1.0,1.0
466,62.0,0,42,1.0,1.0
467,61.0,42,42,1.0,1.0
468,59.0,42,41,1.0,1.0
469,61.0,42,41,1.0,1.0
470,45.0,25,99,2.0,1.0
471,64.0,16,42,1.0,1.0
472,66.0,41,41,1.0,1.0
473,67.0,42,40,1.0,1.0
474,57.0,43,41,1.0,1.0
475,49.0,43,84,1.0,1.0
476,67.0,0,43,1.0,1.0
477,66.0,43,42,1.0,1.0
478,64.0,43,42,1.0,1.0
479,66.0,43,42,1.0,1.0
480,38.0,26,102,2.0,1.0
481,62.0,17,43,1.0,1.0
482,64.0,43,43,1.0,1.0
483,66.0,44,43,1.0,1.0
484,57.0,42,43,1.0,1.0
485,50.0,43,85,1.0,1.0
486,66.0,0,42,1.0,1.0
487,64.0,43,42,1.0,1.0
488,62.0,44,43,1.0,1.0
489,69.0,40,44,0.0,1.0
490,42.0,25,101,2.0,1.0
491,66.0,18,42,1.0,1.0
492,67.0,43,42,1.0,1.0
493,69.0,40,43,0.0,1.0
494,62.0,41,42,1.0,1.0
495,57.0,42,83,1.0,1.0
496,72.0,0,40,0.0,1.0
497,71.0,43,42,0.0,1.0
498,69.0,42,44,0.0,1.0
499,71.0,41,44,0.0,1.0
500,43.0,37,133,2.0,1.0
501,67.0,43,41,1.0,1.0
502,69.0,6,43,0.0,1.0
503,71.0,42,45,0.0,1.0
504,62.0,41,44,1.0,1.0
505,55.0,30,137,1.0,1.0
506,71.0,42,41,0.0,1.0
507,69.0,11,42,0.0,1.0
508,67.0,46,43,1.0,1.0
509,74.0,38,46,0.0,1.0
510,47.0,4,122,2.0,1.0
511,71.0,38,42,0.0,1.0
512,72.0,45,43,0.0,1.0
513,74.0,36,47,0.0,1.0
514,68.0,41,41,0.0,1.0
515,62.0,39,129,1.0,1.0
516,77.0,42,42,0.0,1.0
517,76.0,5,43,0.0,1.0
518,74.0,42,45,0.0,1.0
519,73.0,43,43,0.0,1.0
520,45.0,36,2084,2.0,1.0
521,69.0,43,44,0.0,1.0
522,71.0,43,44,0.0,1.0
523,73.0,42,44,0.0,1.0
524,64.0,43,43,1.0,1.0
525,55.0,42,85,1.0,1.0
526,67.0,0,43,1.0,1.0
527,66.0,43,41,1.0,1.0
528,64.0,44,42,1.0,1.0
529,69.0,41,43,0.0,1.0
530,54.0,1,84,1.0,1.0
531,74.0,42,43,0.0,1.0
532,76.0,41,43,0.0,1.0
533,78.0,42,43,0.0,1.0
534,71.0,40,43,0.0,1.0
535,50.0,1,82,1.0,1.0
536,81.0,42,42,0.0,1.0
537,79.0,42,43,0.0,1.0
538,78.0,43,44,0.0,1.0
539,79.0,40,45,0.0,1.0
540,52.0,2,84,1.0,1.0
541,73.0,42,44,0.0,1.0
542,74.0,42,44,0.0,1.0
543,76.0,43,43,0.0,1.0
544,69.0,40,45,0.0,1.0
545,49.0,2,84,1.0,1.0
546,79.0,42,44,0.0,1.0
547,78.0,42,44,0.0,1.0
548,76.0,43,44,0.0,1.0
549,78.0,42,44,0.0,1.0
550,50.0,2,85,1.0,1.0
551,71.0,43,46,0.0,1.0
552,73.0,44,45,0.0,1.0
553,74.0,44,45,0.0,1.0
554,68.0,42,46,0.0,1.0
555,47.0,1,87,2.0,1.0
556,78.0,44,45,0.0,1.0
557,76.0,44,44,0.0,1.0
558,74.0,44,45,0.0,1.0
559,73.0,44,46,0.0,1.0
560,67.0,44,45,1.0,1.0
561,52.0,0,45,1.0,1.0
562,69.0,42,45,0.0,1.0
563,54.0,2,43,1.0,1.0
564,70.0,43,45,0.0,1.0
565,55.0,2,43,1.0,1.0
566,49.0,44,44,1.0,1.0
567,64.0,0,44,1.0,1.0
568,67.0,44,43,1.0,1.0
569,52.0,0,43,1.0,1.0
570,65.0,45,43,1.0,1.0
571,50.0,0,43,1.0,1.0
572,64.0,45,44,1.0,1.0
573,49.0,0,44,1.0,1.0
574,65.0,44,44,1.0,1.0
575,50.0,0,44,1.0,1.0
576,74.0,43,45,0.0,1.0
577,53.0,1,43,1.0,1.0
578,76.0,43,45,0.0,1.0
579,55.0,1,44,1.0,1.0
580,77.0,42,46,0.0,1.0
581,57.0,2,44,1.0,1.0
582,73.0,43,45,0.0,1.0
583,52.0,2,43,1.0,1.0
584,76.0,42,46,0.0,1.0
585,55.0,2,44,1.0,1.0
586,74.0,44,45,0.0,1.0
587,53.0,2,43,1.0,1.0
588,73.0,8,46,0.0,1.0
589,52.0,1,44,1.0,1.0
590,74.0,44,46,0.0,1.0
591,53.0,1,45,1.0,1.0
592,82.0,45,46,0.0,1.0
593,50.0,1,44,1.0,1.0
594,81.0,45,47,0.0,1.0
595,52.0,1,45,1.0,1.0
596,79.0,43,48,0.0,1.0
597,53.0,2,46,1.0,1.0
598,77.0,44,46,0.0,1.0
599,45.0,2,44,2.0,1.0
600,76.0,44,47,0.0,1.0
601,48.0,2,45,2.0,1.0
602,74.0,44,47,0.0,1.0
603,46.0,2,45,2.0,1.0
604,73.0,45,47,0.0,1.0
605,45.0,2,45,2.0,1.0
606,74.0,46,46,0.0,1.0
607,44.0,105,1079,2.0,1.0
608,77.0,44,46,0.0,1.0
609,76.0,45,46,0.0,1.0
610,74.0,44,47,0.0,1.0
611,83.0,45,46,0.0,1.0
612,80.0,45,46,0.0,1.0
613,81.0,45,46,0.0,1.0
614,83.0,46,46,0.0,1.0
615,77.0,47,48,0.0,1.0
616,74.0,46,47,0.0,1.0
617,76.0,45,47,0.0,1.0
618,77.0,46,47,0.0,1.0
619,71.0,45,47,0.0,1.0
620,68.0,44,47,0.0,1.0
621,69.0,45,46,0.0,1.0
622,71.0,43,46,0.0,1.0
623,64.0,46,44,1.0,1.0
624,66.0,46,45,1.0,1.0
625,68.0,45,46,0.0,1.0
626,69.0,44,47,0.0,1.0
627,71.0,45,46,0.0,1.0
628,73.0,44,46,0.0,1.0
629,74.0,39,46,0.0,1.0
630,76.0,3,41,0.0,1.0
631,77.0,22,285,0.0,1.0
632,45.0,10,834,2.0,1.0
633,72.0,51,53,0.0,1.0
634,74.0,49,53,0.0,1.0
635,57.0,2,101,1.0,1.0
636,69.0,51,53,0.0,1.0
637,70.0,28,53,0.0,1.0
638,55.0,100,102,1.0,1.0
639,67.0,0,52,1.0,1.0
640,76.0,9,191,0.0,1.0
641,49.0,52,100,1.0,1.0
642,67.0,1,50,1.0,1.0
643,69.0,39,52,0.0,1.0
644,53.0,101,100,1.0,1.0
645,65.0,1,51,1.0,1.0
646,74.0,11,196,0.0,1.0
647,50.0,52,100,1.0,1.0
648,65.0,0,51,1.0,1.0
649,52.0,116,106,1.0,1.0
650,67.0,43,51,1.0,1.0
651,64.0,1,54,1.0,1.0
652,73.0,586,127,0.0,1.0
653,55.0,1,116,1.0,1.0
654,64.0,0,60,1.0,1.0
655,45.0,0,598,2.0,1.0
656,50.0,12,571,1.0,1.0
657,53.0,1,542,1.0,1.0
658,56.0,0,520,1.0,1.0
659,59.0,0,497,1.0,1.0
660,62.0,1,478,1.0,1.0
661,65.0,1,459,1.0,1.0
662,68.0,0,459,0.0,1.0
663,71.0,14,448,0.0,1.0
664,74.0,94,449,0.0,1.0
665,73.0,56,62,0.0,1.0
666,71.0,53,58,0.0,1.0
667,69.0,52,55,0.0,1.0
668,68.0,48,53,0.0,1.0
669,66.0,48,49,1.0,1.0
670,64.0,45,47,1.0,1.0
671,66.0,43,45,1.0,1.0
672,68.0,41,43,0.0,1.0
673,69.0,40,42,0.0,1.0
674,71.0,39,41,0.0,1.0
675,73.0,36,40,0.0,1.0
676,74.0,38,37,0.0,1.0
677,76.0,36,39,0.0,1.0
678,77.0,38,38,0.0,1.0
679,76.0,39,39,0.0,1.0
680,74.0,41,40,0.0,1.0
681,73.0,46,41,0.0,1.0
682,71.0,58,47,0.0,1.0
683,69.0,68,60,0.0,1.0
684,68.0,77,71,0.0,1.0
685,66.0,112,79,1.0,1.0
686,64.0,162,112,1.0,1.0
687,62.0,415,161,1.0,1.0
688,61.0,3,417,1.0,1.0
689,64.0,1,367,1.0,1.0
690,67.0,1,315,1.0,1.0
691,70.0,526,289,0.0,1.0
692,73.0,0,256,0.0,1.0
693,76.0,1,234,0.0,1.0
694,79.0,1,220,0.0,1.0
695,82.0,1,205,0.0,1.0
696,77.0,799,377,0.0,1.0
697,83.0,0,377,0.0,1.0
698,68.0,1,375,0.0,1.0
699,74.0,0,375,0.0,1.0
700,71.0,0,375,0.0,1.0
701,80.0,1,373,0.0,1.0
702,62.0,6,367,1.0,1.0
703,65.0,1,365,1.0,1.0
704,69.0,3,1287,0.0,1.0
705,74.0,641,632,0.0,1.0
706,57.0,13,1273,1.0,1.0
707,64.0,19,1289,1.0,1.0
708,52.0,23,608,1.0,1.0
709,45.0,0,1288,2.0,1.0
710,73.0,1642,700,0.0,1.0
711,55.0,1,679,1.0,1.0
712,74.0,1,1662,0.0,1.0
713,57.0,1,1639,1.0,1.0
714,69.0,718,1661,0.0,1.0
715,66.0,0,1639,1.0,1.0
716,50.0,0,1638,1.0,1.0
717,54.0,21,1638,1.0,1.0
718,50.0,56,60,1.0,1.0
719,52.0,55,56,1.0,1.0
720,54.0,56,55,1.0,1.0
721,55.0,57,55,1.0,1.0
722,54.0,56,57,1.0,1.0
723,52.0,56,55,1.0,1.0
724,54.0,57,56,1.0,1.0
725,50.0,42,57,1.0,1.0
726,59.0,37,42,1.0,1.0
727,57.0,240,42,1.0,1.0
728,59.0,130,244,1.0,1.0
729,59.0,43,112,1.0,1.0
730,57.0,38,42,1.0,1.0
731,59.0,257,43,1.0,1.0
732,57.0,113,263,1.0,1.0
733,55.0,309,112,1.0,1.0
734,54.0,127,309,1.0,1.0
735,55.0,54,109,1.0,1.0
736,54.0,54,326,1.0,1.0
737,57.0,55,53,1.0,1.0
738,59.0,55,54,1.0,1.0
739,61.0,54,55,1.0,1.0
740,62.0,55,54,1.0,1.0
741,61.0,54,54,1.0,1.0
742,59.0,0,54,1.0,1.0
743,52.0,41,109,1.0,1.0
744,61.0,55,53,1.0,1.0
745,57.0,1,54,1.0,1.0
746,50.0,42,436,1.0,1.0
747,66.0,37,40,1.0,1.0
748,64.0,232,42,1.0,1.0
749,66.0,126,238,1.0,1.0
750,66.0,0,108,1.0,1.0
751,52.0,268,437,1.0,1.0
752,64.0,37,41,1.0,1.0
753,66.0,249,42,1.0,1.0
754,64.0,109,255,1.0,1.0
755,62.0,1,109,1.0,1.0
756,61.0,41,429,1.0,1.0
757,45.0,54,267,2.0,1.0
758,52.0,53,53,1.0,1.0
759,54.0,53,53,1.0,1.0
760,55.0,1,53,1.0,1.0
761,57.0,107,860,1.0,1.0
762,66.0,36,40,1.0,1.0
763,64.0,228,41,1.0,1.0
764,66.0,124,234,1.0,1.0
765,66.0,251,107,1.0,1.0
766,59.0,72,250,1.0,1.0
767,59.0,54,54,1.0,1.0
768,61.0,54,54,1.0,1.0
769,62.0,0,54,1.0,1.0
770,55.0,52,748,1.0,1.0
771,64.0,108,106,1.0,1.0
772,62.0,107,107,1.0,1.0
773,64.0,108,107,1.0,1.0
774,61.0,318,107,1.0,1.0
775,57.0,105,424,1.0,1.0
776,54.0,53,52,1.0,1.0
777,52.0,1,52,1.0,1.0
778,54.0,52,318,1.0,1.0
779,64.0,53,53,1.0,1.0
780,66.0,53,52,1.0,1.0
781,67.0,53,53,1.0,1.0
782,66.0,53,53,1.0,1.0
783,64.0,1,52,1.0,1.0
784,66.0,53,52,1.0,1.0
785,50.0,300,104,1.0,1.0
786,62.0,0,53,1.0,1.0
787,71.0,18,299,0.0,1.0
788,55.0,106,317,1.0,1.0
789,71.0,317,107,0.0,1.0
790,52.0,1,105,1.0,1.0
791,69.0,105,316,0.0,1.0
792,61.0,317,422,1.0,1.0
793,57.0,0,315,1.0,1.0
794,67.0,0,105,1.0,1.0
795,45.0,1,104,2.0,1.0
796,62.0,104,423,1.0,1.0
797,66.0,105,317,1.0,1.0
798,50.0,1,315,1.0,1.0
799,68.0,1,105,0.0,1.0
800,52.0,0,104,1.0,1.0
801,61.0,295,422,1.0,1.0
802,54.0,53,316,1.0,1.0
803,71.0,54,52,0.0,1.0
804,73.0,53,53,0.0,1.0
805,74.0,53,52,0.0,1.0
806,73.0,53,53,0.0,1.0
807,71.0,0,53,0.0,1.0
808,73.0,52,52,0.0,1.0
809,52.0,0,105,1.0,1.0
810,69.0,1,52,0.0,1.0
811,78.0,18,294,0.0,1.0
812,59.0,0,835,1.0,1.0
813,50.0,104,311,1.0,1.0
814,78.0,0,105,0.0,1.0
815,47.0,1,103,2.0,1.0
816,68.0,263,417,0.0,1.0
817,76.0,105,311,0.0,1.0
818,52.0,1,415,1.0,1.0
819,74.0,0,104,0.0,1.0
820,69.0,52,422,0.0,1.0
821,73.0,53,262,0.0,1.0
822,45.0,0,421,2.0,1.0
823,76.0,53,53,0.0,1.0
824,78.0,53,53,0.0,1.0
825,79.0,1,52,0.0,1.0
826,73.0,265,422,0.0,1.0
827,81.0,17,299,0.0,1.0
828,66.0,53,50,1.0,1.0
829,67.0,54,52,1.0,1.0
830,69.0,52,54,0.0,1.0
831,71.0,53,52,0.0,1.0
832,69.0,36,52,0.0,1.0
833,67.0,53,52,1.0,1.0
834,81.0,18,88,0.0,1.0
835,69.0,35,52,0.0,1.0
836,66.0,0,53,1.0,1.0
837,71.0,53,423,0.0,1.0
838,81.0,52,264,0.0,1.0
839,74.0,53,52,0.0,1.0
840,76.0,36,52,0.0,1.0
841,78.0,6,47,0.0,1.0
842,79.0,17,299,0.0,1.0
843,74.0,269,423,0.0,1.0
844,64.0,53,51,1.0,1.0
845,66.0,53,53,1.0,1.0
846,67.0,52,53,1.0,1.0
847,69.0,53,52,0.0,1.0
848,67.0,36,52,1.0,1.0
849,66.0,53,52,1.0,1.0
850,79.0,18,88,0.0,1.0
851,67.0,36,52,1.0,1.0
852,64.0,0,53,1.0,1.0
853,79.0,52,431,0.0,1.0
854,69.0,15,414,0.0,1.0
855,73.0,53,267,0.0,1.0
856,76.0,54,53,0.0,1.0
857,74.0,39,53,0.0,1.0
858,73.0,1,53,0.0,1.0
859,74.0,0,321,0.0,1.0
860,78.0,52,322,0.0,1.0
861,69.0,1,320,0.0,1.0
862,38.0,53,51,2.0,1.0
863,40.0,54,53,2.0,1.0
864,42.0,54,53,2.0,1.0
865,43.0,54,53,2.0,1.0
866,42.0,53,54,2.0,1.0
867,40.0,1,53,2.0,1.0
868,76.0,35,107,0.0,1.0
869,73.0,0,106,0.0,1.0
870,67.0,1,105,1.0,1.0
871,42.0,54,50,2.0,1.0
872,38.0,0,53,2.0,1.0
873,71.0,0,413,0.0,1.0
874,74.0,103,309,0.0,1.0
875,66.0,0,308,1.0,1.0
876,47.0,35,33,2.0,1.0
877,45.0,223,34,2.0,1.0
878,47.0,17,223,2.0,1.0
879,76.0,32,103,0.0,1.0
880,67.0,1,102,1.0,1.0
881,47.0,0,101,2.0,1.0
882,69.0,260,418,0.0,1.0
883,73.0,19,291,0.0,1.0
884,64.0,0,417,1.0,1.0
885,45.0,35,30,2.0,1.0
886,47.0,225,34,2.0,1.0
887,45.0,89,244,2.0,1.0
888,73.0,18,89,0.0,1.0
889,43.0,1,106,2.0,1.0
890,69.0,102,417,0.0,1.0
891,73.0,17,399,0.0,1.0
892,62.0,0,416,1.0,1.0
893,42.0,52,258,2.0,1.0
894,50.0,53,51,1.0,1.0
895,52.0,35,52,1.0,1.0
896,54.0,1,52,1.0,1.0
897,62.0,299,418,1.0,1.0
898,55.0,52,312,1.0,1.0
899,73.0,51,51,0.0,1.0
900,74.0,54,50,0.0,1.0
901,76.0,52,53,0.0,1.0
902,74.0,53,52,0.0,1.0
903,73.0,1,53,0.0,1.0
904,74.0,53,52,0.0,1.0
905,54.0,0,104,1.0,1.0
906,71.0,1,52,0.0,1.0
907,79.0,18,299,0.0,1.0
908,61.0,0,847,1.0,1.0
909,52.0,106,316,1.0,1.0
910,79.0,0,107,0.0,1.0
911,49.0,1,105,1.0,1.0
912,70.0,51,423,0.0,1.0
913,78.0,106,316,0.0,1.0
914,54.0,1,421,1.0,1.0
915,76.0,0,106,0.0,1.0
916,74.0,0,423,0.0,1.0
917,71.0,105,422,0.0,1.0
918,59.0,1,421,1.0,1.0
919,47.0,53,49,2.0,1.0
920,49.0,53,52,1.0,1.0
921,50.0,53,52,1.0,1.0
922,52.0,54,53,1.0,1.0
923,50.0,52,54,1.0,1.0
924,49.0,53,52,1.0,1.0
925,50.0,53,52,1.0,1.0
926,47.0,0,52,2.0,1.0
927,83.0,106,104,0.0,1.0
928,56.0,105,211,1.0,1.0
929,81.0,1,106,0.0,1.0
930,83.0,88,105,0.0,1.0
931,80.0,123,88,0.0,1.0
932,80.0,107,106,0.0,1.0
933,71.0,88,318,0.0,1.0
934,74.0,0,318,0.0,1.0
935,78.0,105,107,0.0,1.0
936,80.0,1,105,0.0,1.0
937,76.0,123,89,0.0,1.0
938,68.0,1,87,0.0,1.0
939,71.0,0,87,0.0,1.0
940,76.0,105,107,0.0,1.0
941,68.0,1,317,0.0,1.0
942,71.0,87,318,0.0,1.0
943,74.0,106,105,0.0,1.0
944,76.0,0,105,0.0,1.0
945,73.0,52,88,0.0,1.0
946,69.0,0,87,0.0,1.0
947,64.0,1,86,1.0,1.0
948,74.0,18,35,0.0,1.0
949,69.0,104,424,0.0,1.0
950,64.0,0,424,1.0,1.0
951,45.0,53,51,2.0,1.0
952,73.0,1,389,0.0,1.0
953,47.0,53,52,2.0,1.0
954,49.0,53,52,1.0,1.0
955,50.0,52,53,1.0,1.0
956,49.0,53,52,1.0,1.0
957,47.0,54,52,2.0,1.0
958,49.0,53,53,1.0,1.0
959,45.0,0,53,2.0,1.0
960,81.0,107,103,0.0,1.0
961,54.0,106,210,1.0,1.0
962,79.0,0,106,0.0,1.0
963,81.0,88,105,0.0,1.0
964,78.0,124,88,0.0,1.0
965,78.0,105,107,0.0,1.0
966,69.0,1,317,0.0,1.0
967,72.0,87,318,0.0,1.0
968,76.0,106,105,0.0,1.0
969,78.0,0,105,0.0,1.0
970,74.0,0,88,0.0,1.0
971,69.0,123,87,0.0,1.0
972,66.0,1,86,1.0,1.0
973,74.0,106,106,0.0,1.0
974,69.0,88,317,0.0,1.0
975,66.0,0,317,1.0,1.0
976,72.0,105,105,0.0,1.0
977,74.0,1,105,0.0,1.0
978,71.0,69,88,0.0,1.0
979,67.0,1,87,1.0,1.0
980,62.0,0,86,1.0,1.0
981,71.0,33,385,0.0,1.0
982,62.0,53,417,1.0,1.0
983,67.0,51,313,1.0,1.0
984,43.0,52,51,2.0,1.0
985,45.0,52,51,2.0,1.0
986,47.0,52,52,2.0,1.0
987,48.0,52,51,2.0,1.0
988,47.0,53,51,2.0,1.0
989,45.0,1,53,2.0,1.0
990,47.0,20,51,2.0,1.0
991,43.0,0,52,2.0,1.0
992,69.0,52,52,0.0,1.0
993,52.0,0,312,1.0,1.0
994,71.0,51,52,0.0,1.0
995,72.0,53,51,0.0,1.0
996,74.0,52,52,0.0,1.0
997,72.0,52,51,0.0,1.0
998,71.0,52,51,0.0,1.0
999,72.0,52,51,0.0,1.0
1000,50.0,290,103,1.0,1.0
1001,69.0,0,52,0.0,1.0
1002,76.0,122,289,0.0,1.0
1003,48.0,312,412,2.0,1.0
1004,76.0,1,104,0.0,1.0
1005,74.0,105,312,0.0,1.0
1006,50.0,0,416,1.0,1.0
1007,72.0,313,104,0.0,1.0
1008,71.0,105,312,0.0,1.0
1009,55.0,0,312,1.0,1.0
1010,73.0,51,104,0.0,1.0
1011,57.0,0,104,1.0,1.0
1012,74.0,0,835,0.0,1.0
1013,59.0,52,312,1.0,1.0
1014,62.0,54,50,1.0,1.0
1015,64.0,51,53,1.0,1.0
1016,66.0,52,51,1.0,1.0
1017,67.0,53,51,1.0,1.0
1018,66.0,52,53,1.0,1.0
1019,64.0,0,52,1.0,1.0
1020,57.0,295,105,1.0,1.0
1021,66.0,52,51,1.0,1.0
1022,62.0,1,52,1.0,1.0
1023,71.0,18,294,0.0,1.0
1024,55.0,104,312,1.0,1.0
1025,71.0,312,105,0.0,1.0
1026,52.0,1,103,1.0,1.0
1027,69.0,96,312,0.0,1.0
1028,73.0,53,415,0.0,1.0
1029,57.0,1,310,1.0,1.0
1030,67.0,0,103,1.0,1.0
1031,45.0,7,95,2.0,1.0
1032,74.0,18,398,0.0,1.0
1033,66.0,52,312,1.0,1.0
1034,47.0,52,51,2.0,1.0
1035,49.0,51,52,1.0,1.0
1036,50.0,53,51,1.0,1.0
1037,52.0,52,52,1.0,1.0
1038,50.0,52,51,1.0,1.0
1039,49.0,0,52,1.0,1.0
1040,69.0,101,103,0.0,1.0
1041,50.0,34,51,1.0,1.0
1042,47.0,0,52,2.0,1.0
1043,59.0,52,306,1.0,1.0
1044,76.0,51,51,0.0,1.0
1045,78.0,51,50,0.0,1.0
1046,79.0,52,50,0.0,1.0
1047,78.0,52,51,0.0,1.0
1048,76.0,0,52,0.0,1.0
1049,78.0,52,51,0.0,1.0
1050,57.0,295,104,1.0,1.0
1051,74.0,1,52,0.0,1.0
1052,83.0,18,295,0.0,1.0
1053,55.0,103,312,1.0,1.0
1054,83.0,1,103,0.0,1.0
1055,52.0,0,102,1.0,1.0
1056,72.0,52,848,0.0,1.0
1057,81.0,103,313,0.0,1.0
1058,57.0,1,312,1.0,1.0
1059,79.0,268,104,0.0,1.0
1060,45.0,1,103,2.0,1.0
1061,78.0,54,268,0.0,1.0
1062,50.0,0,429,1.0,1.0
1063,74.0,53,54,0.0,1.0
1064,76.0,54,53,0.0,1.0
1065,78.0,1,53,0.0,1.0
1066,71.0,22,422,0.0,1.0
1067,79.0,17,299,0.0,1.0
1068,52.0,269,443,1.0,1.0
1069,55.0,53,50,1.0,1.0
1070,57.0,54,53,1.0,1.0
1071,59.0,52,54,1.0,1.0
1072,60.0,53,52,1.0,1.0
1073,59.0,36,52,1.0,1.0
1074,57.0,53,52,1.0,1.0
1075,79.0,18,88,0.0,1.0
1076,59.0,35,52,1.0,1.0
1077,55.0,0,53,1.0,1.0
1078,79.0,102,309,0.0,1.0
1079,69.0,41,822,0.0,1.0
1080,64.0,18,290,1.0,1.0
1081,60.0,0,307,1.0,1.0
1082,81.0,290,102,0.0,1.0
1083,64.0,0,102,1.0,1.0
1084,57.0,1,100,1.0,1.0
1085,78.0,18,289,0.0,1.0
1086,62.0,86,307,1.0,1.0
1087,78.0,16,86,0.0,1.0
1088,60.0,0,103,1.0,1.0
1089,50.0,1,101,1.0,1.0
1090,78.0,34,40,0.0,1.0
1091,67.0,50,419,1.0,1.0
1092,55.0,9,408,1.0,1.0
1093,59.0,1,417,1.0,1.0
1094,76.0,240,40,0.0,1.0
1095,78.0,52,244,0.0,1.0
1096,76.0,43,51,0.0,1.0
1097,75.0,0,52,0.0,1.0
1098,76.0,100,715,0.0,1.0
1099,71.0,288,410,0.0,1.0
1100,67.0,0,410,1.0,1.0
1101,40.0,51,48,2.0,1.0
1102,42.0,52,51,2.0,1.0
1103,43.0,52,51,2.0,1.0
1104,45.0,51,52,2.0,1.0
1105,43.0,51,51,2.0,1.0
1106,42.0,52,51,2.0,1.0
1107,43.0,51,51,2.0,1.0
1108,40.0,1,50,2.0,1.0
1109,66.0,1,1224,1.0,1.0
1110,48.0,16,286,2.0,1.0
1111,74.0,300,100,0.0,1.0
1112,48.0,1,99,2.0,1.0
1113,76.0,100,300,0.0,1.0
1114,47.0,0,299,2.0,1.0
1115,78.0,314,99,0.0,1.0
1116,45.0,0,99,2.0,1.0
1117,71.0,52,314,0.0,1.0
1118,43.0,1,313,2.0,1.0
1119,72.0,52,52,0.0,1.0
1120,42.0,0,104,2.0,1.0
1121,69.0,1,51,0.0,1.0
1122,71.0,86,312,0.0,1.0
1123,67.0,0,312,1.0,1.0
1124,64.0,0,311,1.0,1.0
1125,43.0,1,310,2.0,1.0
1126,72.0,312,104,0.0,1.0
1127,64.0,18,85,1.0,1.0
1128,54.0,1,102,1.0,1.0
1129,45.0,0,102,2.0,1.0
1130,67.0,19,399,1.0,1.0
1131,55.0,87,311,1.0,1.0
1132,64.0,50,417,1.0,1.0
1133,47.0,109,908,2.0,1.0
1134,57.0,0,106,1.0,1.0
1135,59.0,5,380,1.0,1.0
1136,63.0,1,490,1.0,1.0
1137,67.0,44,49,1.0,1.0
1138,66.0,44,51,1.0,1.0
1139,67.0,46,50,1.0,1.0
1140,66.0,44,52,1.0,1.0
1141,67.0,40,51,1.0,1.0
1142,66.0,39,47,1.0,1.0
1143,67.0,40,44,1.0,1.0
1144,66.0,34,45,1.0,1.0
1145,67.0,37,45,1.0,1.0
1146,66.0,36,42,1.0,1.0
1147,57.0,0,109,1.0,1.0
1148,64.0,31,42,1.0,1.0
1149,66.0,1,36,1.0,1.0
1150,52.0,29,449,1.0,1.0
1151,55.0,4,444,1.0,1.0
1152,66.0,55,55,1.0,1.0
1153,67.0,57,55,1.0,1.0
1154,69.0,55,56,0.0,1.0
1155,67.0,56,55,1.0,1.0
1156,66.0,56,56,1.0,1.0
1157,67.0,57,55,1.0,1.0
1158,64.0,0,56,1.0,1.0
1159,79.0,4,221,0.0,1.0
1160,59.0,110,111,1.0,1.0
1161,57.0,98,114,1.0,1.0
1162,59.0,73,101,1.0,1.0
1163,55.0,137,71,1.0,1.0
1164,64.0,0,313,1.0,1.0
1165,55.0,105,103,1.0,1.0
1166,59.0,87,312,1.0,1.0
1167,54.0,94,104,1.0,1.0
1168,55.0,11,93,1.0,1.0
1169,61.0,0,86,1.0,1.0
1170,52.0,130,87,1.0,1.0
1171,55.0,1,85,1.0,1.0
1172,52.0,95,115,1.0,1.0
1173,55.0,1,314,1.0,1.0
1174,61.0,10,315,1.0,1.0
1175,50.0,105,104,1.0,1.0
1176,49.0,0,88,1.0,1.0
1177,52.0,78,9,1.0,1.0
1178,57.0,17,87,1.0,1.0
1179,69.0,56,55,0.0,1.0
1180,52.0,106,438,1.0,1.0
1181,57.0,0,438,1.0,1.0
1182,49.0,38,398,1.0,1.0
1183,71.0,55,56,0.0,1.0
1184,73.0,55,55,0.0,1.0
1185,74.0,54,54,0.0,1.0
1186,73.0,55,54,0.0,1.0
1187,71.0,53,54,0.0,1.0
1188,73.0,16,53,0.0,1.0
1189,69.0,1,53,0.0,1.0
1190,78.0,105,212,0.0,1.0
1191,57.0,105,105,1.0,1.0
1192,55.0,1,105,1.0,1.0
1193,57.0,88,105,1.0,1.0
1194,54.0,124,88,1.0,1.0
1195,54.0,106,106,1.0,1.0
1196,57.0,87,316,1.0,1.0
1197,62.0,0,316,1.0,1.0
1198,52.0,104,106,1.0,1.0
1199,54.0,1,104,1.0,1.0
1200,50.0,121,87,1.0,1.0
1201,59.0,1,86,1.0,1.0
1202,54.0,0,85,1.0,1.0
1203,59.0,86,314,1.0,1.0
1204,50.0,103,105,1.0,1.0
1205,54.0,1,312,1.0,1.0
1206,49.0,105,103,1.0,1.0
1207,50.0,0,104,1.0,1.0
1208,55.0,0,87,1.0,1.0
1209,50.0,72,86,1.0,1.0
1210,47.0,1,85,2.0,1.0
1211,67.0,56,56,1.0,1.0
1212,50.0,1,415,1.0,1.0
1213,55.0,102,416,1.0,1.0
1214,47.0,0,414,2.0,1.0
1215,69.0,53,55,0.0,1.0
1216,71.0,50,53,0.0,1.0
1217,72.0,49,50,0.0,1.0
1218,71.0,49,49,0.0,1.0
1219,69.0,51,48,0.0,1.0
1220,71.0,51,50,0.0,1.0
1221,67.0,1,50,1.0,1.0
1222,76.0,107,209,0.0,1.0
1223,55.0,107,101,1.0,1.0
1224,54.0,0,107,1.0,1.0
1225,55.0,91,107,1.0,1.0
1226,52.0,123,90,1.0,1.0
1227,52.0,106,107,1.0,1.0
1228,61.0,87,319,1.0,1.0
1229,55.0,1,317,1.0,1.0
1230,50.0,106,106,1.0,1.0
1231,52.0,0,105,1.0,1.0
1232,49.0,120,88,1.0,1.0
1233,57.0,0,87,1.0,1.0
1234,52.0,1,86,1.0,1.0
1235,49.0,103,104,1.0,1.0
1236,52.0,85,309,1.0,1.0
1237,57.0,0,309,1.0,1.0
1238,47.0,102,103,2.0,1.0
1239,49.0,1,102,1.0,1.0
1240,49.0,17,84,1.0,1.0
1241,54.0,0,84,1.0,1.0
1242,45.0,52,100,2.0,1.0
1243,54.0,50,309,1.0,1.0
1244,66.0,51,51,1.0,1.0
1245,49.0,50,411,1.0,1.0
1246,45.0,1,410,2.0,1.0
1247,67.0,52,51,1.0,1.0
1248,69.0,51,52,0.0,1.0
1249,71.0,51,51,0.0,1.0
1250,69.0,52,51,0.0,1.0
1251,67.0,1,51,1.0,1.0
1252,69.0,52,50,0.0,1.0
1253,66.0,0,51,1.0,1.0
1254,74.0,17,294,0.0,1.0
1255,59.0,52,49,1.0,1.0
1256,61.0,53,52,1.0,1.0
1257,62.0,51,53,1.0,1.0
1258,64.0,52,51,1.0,1.0
1259,62.0,36,51,1.0,1.0
1260,61.0,52,52,1.0,1.0
1261,74.0,18,86,0.0,1.0
1262,62.0,34,51,1.0,1.0
1263,59.0,53,52,1.0,1.0
1264,74.0,51,313,0.0,1.0
1265,67.0,51,904,1.0,1.0
1266,52.0,51,51,1.0,1.0
1267,54.0,53,51,1.0,1.0
1268,55.0,52,52,1.0,1.0
1269,57.0,52,51,1.0,1.0
1270,55.0,53,52,1.0,1.0
1271,54.0,0,53,1.0,1.0
1272,76.0,54,105,0.0,1.0
1273,55.0,55,50,1.0,1.0
1274,52.0,0,54,1.0,1.0
1275,74.0,48,54,0.0,1.0
1276,73.0,42,54,0.0,1.0
1277,59.0,6,73,1.0,1.0
1278,74.0,48,54,0.0,1.0
1279,73.0,17,54,0.0,1.0
1280,61.0,27,71,1.0,1.0
1281,74.0,30,50,0.0,1.0
1282,62.0,53,56,1.0,1.0
1283,73.0,53,141,0.0,1.0
1284,61.0,53,52,1.0,1.0
1285,59.0,0,52,1.0,1.0
1286,74.0,53,52,0.0,1.0
1287,61.0,0,52,1.0,1.0
1288,76.0,0,53,0.0,1.0
1289,57.0,0,52,1.0,1.0
1290,78.0,103,418,0.0,1.0
1291,62.0,1,416,1.0,1.0
1292,66.0,0,416,1.0,1.0
1293,50.0,52,50,1.0,1.0
1294,52.0,52,51,1.0,1.0
1295,54.0,53,51,1.0,1.0
1296,55.0,52,53,1.0,1.0
1297,54.0,51,52,1.0,1.0
1298,52.0,53,51,1.0,1.0
1299,54.0,52,52,1.0,1.0
1300,50.0,1,51,1.0,1.0
1301,83.0,104,103,0.0,1.0
1302,55.0,104,207,1.0,1.0
1303,81.0,1,104,0.0,1.0
1304,83.0,89,104,0.0,1.0
1305,79.0,123,88,0.0,1.0
1306,74.0,0,319,0.0,1.0
1307,79.0,107,106,0.0,1.0
1308,71.0,88,318,0.0,1.0
1309,78.0,105,106,0.0,1.0
1310,79.0,1,105,0.0,1.0
1311,76.0,123,88,0.0,1.0
1312,71.0,1,87,0.0,1.0
1313,67.0,0,86,1.0,1.0
1314,71.0,89,323,0.0,1.0
1315,76.0,108,107,0.0,1.0
1316,67.0,0,322,1.0,1.0
1317,74.0,108,107,0.0,1.0
1318,76.0,0,108,0.0,1.0
1319,73.0,417,89,0.0,1.0
1320,69.0,1,88,0.0,1.0
1321,64.0,0,87,1.0,1.0
1322,73.0,51,419,0.0,1.0
1323,69.0,18,399,0.0,1.0
1324,64.0,0,418,1.0,1.0
1325,43.0,1,417,2.0,1.0
1326,74.0,16,296,0.0,1.0
1327,69.0,1,294,0.0,1.0
1328,66.0,0,294,1.0,1.0
1329,54.0,52,49,1.0,1.0
1330,55.0,53,52,1.0,1.0
1331,57.0,51,53,1.0,1.0
1332,55.0,52,51,1.0,1.0
1333,54.0,36,51,1.0,1.0
1334,52.0,52,52,1.0,1.0
1335,74.0,18,86,0.0,1.0
1336,69.0,53,104,0.0,1.0
1337,66.0,1,84,1.0,1.0
1338,50.0,34,50,1.0,1.0
1339,49.0,0,53,1.0,1.0
1340,71.0,18,298,0.0,1.0
1341,74.0,52,317,0.0,1.0
1342,66.0,0,316,1.0,1.0
1343,47.0,52,51,2.0,1.0
1344,49.0,53,52,1.0,1.0
1345,50.0,53,52,1.0,1.0
1346,49.0,54,52,1.0,1.0
1347,47.0,34,54,2.0,1.0
1348,45.0,1,52,2.0,1.0
1349,76.0,52,106,0.0,1.0
1350,71.0,1,105,0.0,1.0
1351,67.0,0,104,1.0,1.0
1352,47.0,53,50,2.0,1.0
1353,43.0,1,52,2.0,1.0
1354,69.0,8,478,0.0,1.0
1355,71.0,51,52,0.0,1.0
1356,64.0,257,497,1.0,1.0
1357,45.0,97,380,2.0,1.0
1358,73.0,52,59,0.0,1.0
1359,74.0,44,60,0.0,1.0
1360,73.0,42,52,0.0,1.0
1361,74.0,37,49,0.0,1.0
1362,73.0,37,44,0.0,1.0
1363,74.0,60,42,0.0,1.0
1364,73.0,6,66,0.0,1.0
1365,45.0,1,115,2.0,1.0
1366,74.0,11,97,0.0,1.0
1367,74.0,17,394,0.0,1.0
1368,69.0,49,411,0.0,1.0
1369,66.0,0,411,1.0,1.0
1370,38.0,51,255,2.0,1.0
1371,50.0,51,51,1.0,1.0
1372,52.0,35,50,1.0,1.0
1373,54.0,1,51,1.0,1.0
1374,71.0,50,48,0.0,1.0
1375,55.0,50,405,1.0,1.0
1376,73.0,51,49,0.0,1.0
1377,74.0,51,51,0.0,1.0
1378,76.0,51,51,0.0,1.0
1379,74.0,51,51,0.0,1.0
1380,73.0,52,51,0.0,1.0
1381,74.0,48,51,0.0,1.0
1382,71.0,3,48,0.0,1.0
1383,71.0,1,405,0.0,1.0
1384,76.0,50,406,0.0,1.0
1385,64.0,0,404,1.0,1.0
1386,49.0,51,49,1.0,1.0
1387,50.0,51,51,1.0,1.0
1388,52.0,50,50,1.0,1.0
1389,54.0,51,49,1.0,1.0
1390,52.0,50,50,1.0,1.0
1391,50.0,51,50,1.0,1.0
1392,52.0,51,50,1.0,1.0
1393,49.0,0,51,1.0,1.0
1394,69.0,50,49,0.0,1.0
1395,54.0,51,403,1.0,1.0
1396,71.0,50,50,0.0,1.0
1397,73.0,50,50,0.0,1.0
1398,74.0,51,50,0.0,1.0
1399,73.0,51,50,0.0,1.0
1400,71.0,51,50,0.0,1.0
1401,73.0,51,50,0.0,1.0
1402,69.0,0,50,0.0,1.0
1403,74.0,4,410,0.0,1.0
1404,47.0,52,50,2.0,1.0
1405,69.0,2,412,0.0,1.0
1406,62.0,45,412,1.0,1.0
1407,49.0,51,52,1.0,1.0
1408,50.0,51,51,1.0,1.0
1409,52.0,52,51,1.0,1.0
1410,50.0,51,51,1.0,1.0
1411,49.0,52,50,1.0,1.0
1412,50.0,51,51,1.0,1.0
1413,47.0,0,51,2.0,1.0
1414,67.0,51,50,1.0,1.0
1415,52.0,0,50,1.0,1.0
1416,69.0,50,50,0.0,1.0
1417,54.0,0,50,1.0,1.0
1418,71.0,50,50,0.0,1.0
1419,55.0,1,49,1.0,1.0
1420,72.0,50,51,0.0,1.0
1421,57.0,1,49,1.0,1.0
1422,71.0,51,50,0.0,1.0
1423,55.0,0,49,1.0,1.0
1424,69.0,49,51,0.0,1.0
1425,54.0,1,50,1.0,1.0
1426,71.0,51,49,0.0,1.0
1427,55.0,0,48,1.0,1.0
1428,67.0,51,50,1.0,1.0
1429,52.0,0,50,1.0,1.0
1430,73.0,51,50,0.0,1.0
1431,57.0,0,50,1.0,1.0
1432,74.0,51,50,0.0,1.0
1433,59.0,0,50,1.0,1.0
1434,76.0,49,50,0.0,1.0
1435,61.0,0,50,1.0,1.0
1436,78.0,51,50,0.0,1.0
1437,62.0,1,48,1.0,1.0
1438,76.0,50,52,0.0,1.0
1439,61.0,1,50,1.0,1.0
1440,74.0,51,51,0.0,1.0
1441,59.0,1,49,1.0,1.0
1442,76.0,51,51,0.0,1.0
1443,61.0,0,50,1.0,1.0
1444,73.0,52,50,0.0,1.0
1445,57.0,0,50,1.0,1.0
1446,78.0,53,51,0.0,1.0
1447,62.0,0,51,1.0,1.0
1448,79.0,51,52,0.0,1.0
1449,64.0,0,52,1.0,1.0
1450,81.0,51,52,0.0,1.0
1451,66.0,1,50,1.0,1.0
1452,83.0,52,52,0.0,1.0
1453,67.0,1,50,1.0,1.0
1454,81.0,52,52,0.0,1.0
1455,66.0,0,51,1.0,1.0
1456,79.0,52,51,0.0,1.0
1457,64.0,0,51,1.0,1.0
1458,81.0,52,51,0.0,1.0
1459,66.0,0,51,1.0,1.0
1460,78.0,304,52,0.0,1.0
1461,62.0,1,51,1.0,1.0
1462,83.0,84,305,0.0,1.0
1463,67.0,1,303,1.0,1.0
1464,73.0,305,102,0.0,1.0
1465,69.0,17,83,0.0,1.0
1466,55.0,1,100,1.0,1.0
1467,64.0,0,101,1.0,1.0
1468,69.0,1,306,0.0,1.0
1469,74.0,111,307,0.0,1.0
1470,54.0,1,304,1.0,1.0
1471,66.0,0,305,1.0,1.0
1472,76.0,337,112,0.0,1.0
1473,73.0,0,111,0.0,1.0
1474,67.0,1,110,1.0,1.0
1475,52.0,0,109,1.0,1.0
1476,69.0,1,336,0.0,1.0
1477,74.0,0,336,0.0,1.0
1478,78.0,93,337,0.0,1.0
1479,50.0,0,335,1.0,1.0
1480,66.0,351,112,1.0,1.0
1481,62.0,18,92,1.0,1.0
1482,57.0,1,110,1.0,1.0
1483,48.0,0,109,2.0,1.0
1484,67.0,116,353,1.0,1.0
1485,59.0,1,351,1.0,1.0
1486,62.0,0,351,1.0,1.0
1487,47.0,1,349,2.0,1.0
1488,69.0,319,118,0.0,1.0
1489,66.0,1,116,1.0,1.0
1490,60.0,0,116,1.0,1.0
1491,45.0,1,114,2.0,1.0
1492,71.0,19,319,0.0,1.0
1493,62.0,117,338,1.0,1.0
1494,67.0,0,338,1.0,1.0
1495,43.0,1,336,2.0,1.0
1496,71.0,378,118,0.0,1.0
1497,62.0,1,117,1.0,1.0
1498,67.0,0,117,1.0,1.0
1499,42.0,1,115,2.0,1.0
1500,73.0,96,379,0.0,1.0
1501,67.0,1,377,1.0,1.0
1502,64.0,0,378,1.0,1.0
1503,40.0,0,376,2.0,1.0
1504,74.0,511,130,0.0,1.0
1505,69.0,0,129,0.0,1.0
1506,66.0,33,95,1.0,1.0
1507,38.0,1,127,2.0,1.0
1508,62.0,90,511,1.0,1.0
1509,66.0,0,511,1.0,1.0
1510,57.0,1,509,1.0,1.0
1511,45.0,24,1171,2.0,1.0
1512,66.0,66,69,1.0,1.0
1513,55.0,1,626,1.0,1.0
1514,61.0,12,627,1.0,1.0
1515,64.0,64,75,1.0,1.0
1516,66.0,57,74,1.0,1.0
1517,64.0,58,67,1.0,1.0
1518,66.0,57,66,1.0,1.0
1519,64.0,47,66,1.0,1.0
1520,66.0,46,56,1.0,1.0
1521,64.0,47,53,1.0,1.0
1522,66.0,47,54,1.0,1.0
1523,64.0,52,55,1.0,1.0
1524,62.0,17,60,1.0,1.0
1525,64.0,3481,62,1.0,1.0
1526,57.0,0,3493,1.0,1.0
1527,62.0,0,3494,1.0,1.0
1528,54.0,1,3492,1.0,1.0
1529,38.0,1,3491,2.0,1.0
