,note,step,duration,channel,velocity
0,55.0,0,240,1.0,100.0
1,71.0,120,120,0.0,100.0
2,59.0,120,240,1.0,100.0
3,67.0,120,120,0.0,100.0
4,62.0,120,120,0.0,100.0
5,62.0,120,240,1.0,100.0
6,59.0,120,120,0.0,100.0
7,67.0,120,240,1.0,100.0
8,55.0,120,120,0.0,100.0
9,71.0,120,240,1.0,100.0
10,54.0,120,120,0.0,100.0
11,73.0,0,240,1.0,100.0
12,52.0,120,120,0.0,100.0
13,74.0,120,120,1.0,100.0
14,54.0,120,240,0.0,100.0
15,57.0,120,240,0.0,100.0
16,69.0,120,120,1.0,100.0
17,62.0,120,240,0.0,100.0
18,66.0,120,120,1.0,100.0
19,66.0,120,240,0.0,100.0
20,62.0,120,120,1.0,100.0
21,57.0,120,120,1.0,100.0
22,69.0,120,240,0.0,100.0
23,55.0,120,120,1.0,100.0
24,74.0,0,240,0.0,100.0
25,54.0,120,120,1.0,100.0
26,67.0,120,120,0.0,100.0
27,52.0,120,240,1.0,100.0
28,64.0,120,120,0.0,100.0
29,55.0,120,240,1.0,100.0
30,61.0,120,120,0.0,100.0
31,57.0,120,240,1.0,100.0
32,61.0,120,240,1.0,100.0
33,57.0,120,120,0.0,100.0
34,55.0,120,120,0.0,100.0
35,64.0,120,240,1.0,100.0
36,54.0,0,120,0.0,100.0
37,52.0,120,120,0.0,100.0
38,67.0,120,240,1.0,100.0
39,66.0,120,120,1.0,100.0
40,50.0,120,240,0.0,100.0
41,62.0,120,120,1.0,100.0
42,54.0,120,240,0.0,100.0
43,57.0,120,120,1.0,100.0
44,57.0,120,240,0.0,100.0
45,62.0,120,240,0.0,100.0
46,54.0,120,120,1.0,100.0
47,66.0,120,240,0.0,100.0
48,52.0,120,120,1.0,100.0
49,50.0,0,120,1.0,100.0
50,69.0,120,240,0.0,100.0
51,48.0,120,120,1.0,100.0
52,47.0,120,240,1.0,100.0
53,67.0,120,120,0.0,100.0
54,62.0,120,120,0.0,100.0
55,50.0,120,240,1.0,100.0
56,59.0,120,120,0.0,100.0
57,55.0,120,240,1.0,100.0
58,55.0,120,120,0.0,100.0
59,59.0,120,240,1.0,100.0
60,62.0,120,240,1.0,100.0
61,53.0,120,120,0.0,100.0
62,52.0,0,120,0.0,100.0
63,65.0,120,240,1.0,100.0
64,50.0,120,120,0.0,100.0
65,48.0,120,240,0.0,100.0
66,64.0,120,120,1.0,100.0
67,60.0,120,120,1.0,100.0
68,52.0,120,240,0.0,100.0
69,55.0,120,240,0.0,100.0
70,55.0,120,120,1.0,100.0
71,60.0,120,240,0.0,100.0
72,52.0,120,120,1.0,100.0
73,64.0,120,240,0.0,100.0
74,48.0,120,120,1.0,100.0
75,47.0,120,120,1.0,100.0
76,45.0,120,120,1.0,100.0
77,67.0,0,240,0.0,100.0
78,66.0,120,120,0.0,100.0
79,50.0,120,240,1.0,100.0
80,62.0,120,120,0.0,100.0
81,54.0,120,240,1.0,100.0
82,57.0,120,240,1.0,100.0
83,57.0,120,120,0.0,100.0
84,54.0,120,120,0.0,100.0
85,62.0,120,240,1.0,100.0
86,50.0,120,120,0.0,100.0
87,66.0,120,240,1.0,100.0
88,48.0,120,120,0.0,100.0
89,50.0,120,120,0.0,100.0
90,69.0,0,240,1.0,100.0
91,71.0,120,120,1.0,100.0
92,43.0,120,240,0.0,100.0
93,67.0,120,120,1.0,100.0
94,47.0,120,240,0.0,100.0
95,62.0,120,120,1.0,100.0
96,50.0,120,240,0.0,100.0
97,59.0,120,120,1.0,100.0
98,55.0,120,240,0.0,100.0
99,54.0,120,240,0.0,100.0
100,57.0,120,120,1.0,100.0
101,55.0,0,120,1.0,100.0
102,54.0,120,120,1.0,100.0
103,60.0,120,240,0.0,100.0
104,59.0,0,80,0.0,100.0
105,57.0,80,80,0.0,100.0
106,55.0,120,240,1.0,100.0
107,59.0,80,80,0.0,100.0
108,60.0,80,80,0.0,100.0
109,59.0,80,80,0.0,100.0
110,60.0,80,80,0.0,100.0
111,83.0,0,40,1.0,100.0
112,81.0,40,40,1.0,100.0
113,62.0,80,80,0.0,100.0
114,60.0,0,80,0.0,100.0
115,62.0,80,80,0.0,100.0
116,64.0,80,80,0.0,100.0
117,62.0,80,80,0.0,100.0
118,64.0,80,80,0.0,100.0
119,83.0,40,400,1.0,100.0
120,66.0,80,80,0.0,100.0
121,64.0,80,80,0.0,100.0
122,66.0,80,80,0.0,100.0
123,67.0,80,80,0.0,100.0
124,66.0,80,80,0.0,100.0
125,64.0,0,240,1.0,100.0
126,67.0,80,80,0.0,100.0
127,69.0,0,80,0.0,100.0
128,67.0,80,80,0.0,100.0
129,54.0,80,240,1.0,100.0
130,69.0,80,80,0.0,100.0
131,71.0,80,80,0.0,100.0
132,69.0,80,80,0.0,100.0
133,71.0,80,80,0.0,100.0
134,81.0,0,40,1.0,100.0
135,79.0,40,40,1.0,100.0
136,73.0,80,80,0.0,100.0
137,71.0,0,80,0.0,100.0
138,73.0,80,80,0.0,100.0
139,74.0,80,80,0.0,100.0
140,73.0,80,80,0.0,100.0
141,81.0,40,400,1.0,100.0
142,74.0,80,80,0.0,100.0
143,76.0,80,80,0.0,100.0
144,74.0,80,80,0.0,100.0
145,76.0,80,80,0.0,100.0
146,78.0,80,80,0.0,100.0
147,76.0,80,80,0.0,100.0
148,78.0,80,80,0.0,100.0
149,62.0,0,240,1.0,100.0
150,71.0,0,80,1.0,100.0
151,72.0,80,80,1.0,100.0
152,71.0,80,80,1.0,100.0
153,79.0,80,240,0.0,100.0
154,69.0,80,80,1.0,100.0
155,71.0,80,80,1.0,100.0
156,69.0,80,80,1.0,100.0
157,52.0,0,40,0.0,100.0
158,50.0,40,40,0.0,100.0
159,67.0,80,80,1.0,100.0
160,69.0,40,80,1.0,100.0
161,67.0,80,80,1.0,100.0
162,66.0,80,80,1.0,100.0
163,67.0,80,80,1.0,100.0
164,52.0,0,400,0.0,100.0
165,66.0,80,80,1.0,100.0
166,64.0,80,80,1.0,100.0
167,66.0,80,80,1.0,100.0
168,64.0,80,80,1.0,100.0
169,62.0,80,80,1.0,100.0
170,64.0,80,80,1.0,100.0
171,71.0,0,240,0.0,100.0
172,62.0,80,80,1.0,100.0
173,61.0,80,80,1.0,100.0
174,62.0,80,80,1.0,100.0
175,79.0,0,240,0.0,100.0
176,61.0,80,80,1.0,100.0
177,59.0,80,80,1.0,100.0
178,61.0,80,80,1.0,100.0
179,59.0,80,80,1.0,100.0
180,49.0,0,40,0.0,100.0
181,57.0,80,80,1.0,100.0
182,47.0,40,40,0.0,100.0
183,59.0,40,80,1.0,100.0
184,57.0,80,80,1.0,100.0
185,55.0,80,80,1.0,100.0
186,57.0,80,80,1.0,100.0
187,55.0,80,80,1.0,100.0
188,49.0,0,400,0.0,100.0
189,54.0,80,80,1.0,100.0
190,55.0,80,80,1.0,100.0
191,54.0,80,80,1.0,100.0
192,52.0,80,80,1.0,100.0
193,54.0,80,80,1.0,100.0
194,52.0,80,80,1.0,100.0
195,79.0,0,240,0.0,100.0
196,78.0,0,80,0.0,100.0
197,81.0,80,80,0.0,100.0
198,74.0,80,80,0.0,100.0
199,50.0,80,240,1.0,100.0
200,76.0,0,80,0.0,100.0
201,79.0,80,80,0.0,100.0
202,73.0,80,80,0.0,100.0
203,57.0,80,240,1.0,100.0
204,74.0,80,80,0.0,100.0
205,78.0,80,80,0.0,100.0
206,71.0,80,80,0.0,100.0
207,66.0,0,240,1.0,100.0
208,72.0,0,80,0.0,100.0
209,76.0,80,80,0.0,100.0
210,69.0,80,80,0.0,100.0
211,57.0,80,240,1.0,100.0
212,71.0,0,80,0.0,100.0
213,74.0,80,80,0.0,100.0
214,50.0,80,240,1.0,100.0
215,67.0,80,80,0.0,100.0
216,69.0,0,80,0.0,100.0
217,72.0,80,80,0.0,100.0
218,66.0,80,80,0.0,100.0
219,60.0,80,240,1.0,100.0
220,59.0,80,80,1.0,100.0
221,55.0,80,80,1.0,100.0
222,67.0,0,240,0.0,100.0
223,62.0,80,80,1.0,100.0
224,61.0,0,80,1.0,100.0
225,57.0,80,80,1.0,100.0
226,55.0,80,240,0.0,100.0
227,64.0,80,80,1.0,100.0
228,62.0,80,80,1.0,100.0
229,59.0,80,80,1.0,100.0
230,66.0,80,80,1.0,100.0
231,54.0,0,240,0.0,100.0
232,64.0,80,80,1.0,100.0
233,61.0,80,80,1.0,100.0
234,57.0,0,240,0.0,100.0
235,67.0,80,80,1.0,100.0
236,66.0,0,80,1.0,100.0
237,62.0,80,80,1.0,100.0
238,50.0,80,240,0.0,100.0
239,69.0,80,80,1.0,100.0
240,67.0,0,80,1.0,100.0
241,64.0,80,80,1.0,100.0
242,62.0,80,240,0.0,100.0
243,71.0,80,80,1.0,100.0
244,61.0,0,80,0.0,100.0
245,57.0,80,80,0.0,100.0
246,59.0,80,80,0.0,100.0
247,61.0,80,80,0.0,100.0
248,69.0,80,320,1.0,100.0
249,62.0,80,80,0.0,100.0
250,71.0,0,80,1.0,100.0
251,64.0,80,80,0.0,100.0
252,73.0,0,80,1.0,100.0
253,74.0,0,80,1.0,100.0
254,73.0,80,80,1.0,100.0
255,71.0,80,80,1.0,100.0
256,66.0,80,320,0.0,100.0
257,64.0,80,80,0.0,100.0
258,62.0,80,80,0.0,100.0
259,69.0,80,320,1.0,100.0
260,67.0,80,80,1.0,100.0
261,66.0,80,80,1.0,100.0
262,71.0,80,240,0.0,100.0
263,74.0,0,60,0.0,100.0
264,64.0,80,80,1.0,100.0
265,73.0,60,60,0.0,100.0
266,66.0,20,80,1.0,100.0
267,71.0,40,60,0.0,100.0
268,67.0,40,80,1.0,100.0
269,73.0,20,60,0.0,100.0
270,74.0,0,80,0.0,100.0
271,69.0,80,80,0.0,100.0
272,66.0,60,240,1.0,100.0
273,66.0,80,80,0.0,100.0
274,62.0,80,80,0.0,100.0
275,57.0,80,80,0.0,100.0
276,54.0,80,80,0.0,100.0
277,66.0,80,80,1.0,100.0
278,69.0,80,80,1.0,100.0
279,50.0,80,240,0.0,100.0
280,74.0,80,80,1.0,100.0
281,78.0,80,80,1.0,100.0
282,81.0,80,80,1.0,100.0
283,86.0,80,240,1.0,100.0
284,71.0,120,120,0.0,100.0
285,55.0,480,240,1.0,100.0
286,59.0,120,240,1.0,100.0
287,67.0,120,120,0.0,100.0
288,62.0,120,240,1.0,100.0
289,62.0,120,120,0.0,100.0
290,59.0,120,120,0.0,100.0
291,67.0,120,240,1.0,100.0
292,55.0,120,120,0.0,100.0
293,71.0,120,240,1.0,100.0
294,54.0,0,120,0.0,100.0
295,73.0,120,240,1.0,100.0
296,52.0,120,120,0.0,100.0
297,74.0,120,120,1.0,100.0
298,54.0,120,240,0.0,100.0
299,57.0,120,240,0.0,100.0
300,69.0,120,120,1.0,100.0
301,62.0,120,240,0.0,100.0
302,66.0,120,120,1.0,100.0
303,66.0,120,240,0.0,100.0
304,62.0,120,120,1.0,100.0
305,57.0,120,120,1.0,100.0
306,69.0,120,240,0.0,100.0
307,55.0,0,120,1.0,100.0
308,74.0,120,240,0.0,100.0
309,54.0,120,120,1.0,100.0
310,67.0,120,120,0.0,100.0
311,52.0,120,240,1.0,100.0
312,64.0,120,120,0.0,100.0
313,55.0,120,240,1.0,100.0
314,57.0,120,240,1.0,100.0
315,61.0,120,120,0.0,100.0
316,61.0,120,240,1.0,100.0
317,57.0,120,120,0.0,100.0
318,55.0,120,120,0.0,100.0
319,64.0,120,240,1.0,100.0
320,54.0,120,120,0.0,100.0
321,52.0,120,120,0.0,100.0
322,67.0,0,240,1.0,100.0
323,66.0,120,120,1.0,100.0
324,50.0,120,240,0.0,100.0
325,54.0,120,240,0.0,100.0
326,62.0,120,120,1.0,100.0
327,57.0,120,120,1.0,100.0
328,57.0,120,240,0.0,100.0
329,54.0,120,120,1.0,100.0
330,62.0,120,240,0.0,100.0
331,66.0,120,240,0.0,100.0
332,52.0,120,120,1.0,100.0
333,50.0,0,120,1.0,100.0
334,69.0,120,240,0.0,100.0
335,48.0,120,120,1.0,100.0
336,67.0,120,120,0.0,100.0
337,47.0,120,240,1.0,100.0
338,50.0,120,240,1.0,100.0
339,62.0,120,120,0.0,100.0
340,59.0,120,120,0.0,100.0
341,55.0,120,240,1.0,100.0
342,55.0,120,120,0.0,100.0
343,59.0,120,240,1.0,100.0
344,62.0,120,240,1.0,100.0
345,53.0,120,120,0.0,100.0
346,52.0,120,120,0.0,100.0
347,50.0,120,120,0.0,100.0
348,65.0,0,240,1.0,100.0
349,48.0,120,240,0.0,100.0
350,64.0,120,120,1.0,100.0
351,52.0,120,240,0.0,100.0
352,60.0,120,120,1.0,100.0
353,55.0,120,240,0.0,100.0
354,55.0,120,120,1.0,100.0
355,52.0,120,120,1.0,100.0
356,60.0,120,240,0.0,100.0
357,64.0,120,240,0.0,100.0
358,48.0,120,120,1.0,100.0
359,47.0,120,120,1.0,100.0
360,45.0,120,120,1.0,100.0
361,67.0,0,240,0.0,100.0
362,66.0,120,120,0.0,100.0
363,50.0,120,240,1.0,100.0
364,54.0,120,240,1.0,100.0
365,62.0,120,120,0.0,100.0
366,57.0,120,240,1.0,100.0
367,57.0,120,120,0.0,100.0
368,54.0,120,120,0.0,100.0
369,62.0,120,240,1.0,100.0
370,50.0,120,120,0.0,100.0
371,66.0,120,240,1.0,100.0
372,48.0,0,120,0.0,100.0
373,69.0,120,240,1.0,100.0
374,50.0,120,120,0.0,100.0
375,43.0,120,240,0.0,100.0
376,71.0,120,120,1.0,100.0
377,47.0,120,240,0.0,100.0
378,67.0,120,120,1.0,100.0
379,50.0,120,240,0.0,100.0
380,62.0,120,120,1.0,100.0
381,55.0,120,240,0.0,100.0
382,59.0,120,120,1.0,100.0
383,57.0,120,120,1.0,100.0
384,54.0,120,240,0.0,100.0
385,55.0,120,120,1.0,100.0
386,54.0,120,120,1.0,100.0
387,60.0,0,240,0.0,100.0
388,59.0,120,80,0.0,100.0
389,57.0,80,80,0.0,100.0
390,59.0,80,80,0.0,100.0
391,55.0,0,240,1.0,100.0
392,60.0,80,80,0.0,100.0
393,59.0,80,80,0.0,100.0
394,60.0,80,80,0.0,100.0
395,83.0,0,40,1.0,100.0
396,81.0,40,40,1.0,100.0
397,62.0,80,80,0.0,100.0
398,60.0,0,80,0.0,100.0
399,62.0,80,80,0.0,100.0
400,64.0,80,80,0.0,100.0
401,62.0,80,80,0.0,100.0
402,83.0,40,400,1.0,100.0
403,64.0,80,80,0.0,100.0
404,66.0,80,80,0.0,100.0
405,64.0,80,80,0.0,100.0
406,66.0,80,80,0.0,100.0
407,67.0,80,80,0.0,100.0
408,66.0,80,80,0.0,100.0
409,64.0,0,240,1.0,100.0
410,67.0,80,80,0.0,100.0
411,69.0,0,80,0.0,100.0
412,67.0,80,80,0.0,100.0
413,54.0,80,240,1.0,100.0
414,69.0,80,80,0.0,100.0
415,71.0,80,80,0.0,100.0
416,69.0,80,80,0.0,100.0
417,71.0,80,80,0.0,100.0
418,81.0,0,40,1.0,100.0
419,79.0,40,40,1.0,100.0
420,73.0,80,80,0.0,100.0
421,71.0,40,80,0.0,100.0
422,73.0,80,80,0.0,100.0
423,74.0,80,80,0.0,100.0
424,73.0,80,80,0.0,100.0
425,81.0,0,400,1.0,100.0
426,74.0,80,80,0.0,100.0
427,76.0,80,80,0.0,100.0
428,74.0,80,80,0.0,100.0
429,76.0,80,80,0.0,100.0
430,78.0,0,80,0.0,100.0
431,76.0,80,80,0.0,100.0
432,78.0,80,80,0.0,100.0
433,62.0,80,240,1.0,100.0
434,71.0,80,80,1.0,100.0
435,72.0,80,80,1.0,100.0
436,79.0,0,240,0.0,100.0
437,71.0,80,80,1.0,100.0
438,69.0,80,80,1.0,100.0
439,71.0,80,80,1.0,100.0
440,69.0,80,80,1.0,100.0
441,52.0,0,40,0.0,100.0
442,50.0,40,40,0.0,100.0
443,67.0,80,80,1.0,100.0
444,69.0,0,80,1.0,100.0
445,67.0,80,80,1.0,100.0
446,66.0,80,80,1.0,100.0
447,67.0,80,80,1.0,100.0
448,66.0,80,80,1.0,100.0
449,52.0,40,400,0.0,100.0
450,64.0,80,80,1.0,100.0
451,66.0,80,80,1.0,100.0
452,64.0,80,80,1.0,100.0
453,62.0,0,80,1.0,100.0
454,64.0,80,80,1.0,100.0
455,62.0,80,80,1.0,100.0
456,71.0,80,240,0.0,100.0
457,61.0,80,80,1.0,100.0
458,62.0,80,80,1.0,100.0
459,61.0,80,80,1.0,100.0
460,79.0,0,240,0.0,100.0
461,59.0,80,80,1.0,100.0
462,61.0,80,80,1.0,100.0
463,59.0,80,80,1.0,100.0
464,49.0,0,40,0.0,100.0
465,47.0,40,40,0.0,100.0
466,57.0,80,80,1.0,100.0
467,59.0,40,80,1.0,100.0
468,57.0,80,80,1.0,100.0
469,55.0,80,80,1.0,100.0
470,57.0,80,80,1.0,100.0
471,49.0,0,400,0.0,100.0
472,55.0,80,80,1.0,100.0
473,54.0,80,80,1.0,100.0
474,55.0,80,80,1.0,100.0
475,54.0,80,80,1.0,100.0
476,52.0,80,80,1.0,100.0
477,54.0,80,80,1.0,100.0
478,79.0,0,240,0.0,100.0
479,52.0,80,80,1.0,100.0
480,78.0,80,80,0.0,100.0
481,81.0,80,80,0.0,100.0
482,74.0,80,80,0.0,100.0
483,50.0,0,240,1.0,100.0
484,76.0,80,80,0.0,100.0
485,79.0,80,80,0.0,100.0
486,57.0,0,240,1.0,100.0
487,73.0,80,80,0.0,100.0
488,74.0,0,80,0.0,100.0
489,78.0,80,80,0.0,100.0
490,66.0,80,240,1.0,100.0
491,71.0,80,80,0.0,100.0
492,72.0,80,80,0.0,100.0
493,76.0,80,80,0.0,100.0
494,69.0,80,80,0.0,100.0
495,57.0,0,240,1.0,100.0
496,71.0,80,80,0.0,100.0
497,74.0,80,80,0.0,100.0
498,50.0,0,240,1.0,100.0
499,67.0,80,80,0.0,100.0
500,69.0,0,80,0.0,100.0
501,72.0,80,80,0.0,100.0
502,66.0,80,80,0.0,100.0
503,60.0,80,240,1.0,100.0
504,59.0,0,80,1.0,100.0
505,55.0,80,80,1.0,100.0
506,67.0,80,240,0.0,100.0
507,62.0,80,80,1.0,100.0
508,61.0,80,80,1.0,100.0
509,57.0,80,80,1.0,100.0
510,55.0,0,240,0.0,100.0
511,64.0,80,80,1.0,100.0
512,62.0,80,80,1.0,100.0
513,59.0,80,80,1.0,100.0
514,66.0,80,80,1.0,100.0
515,54.0,0,240,0.0,100.0
516,64.0,0,80,1.0,100.0
517,61.0,80,80,1.0,100.0
518,57.0,80,240,0.0,100.0
519,67.0,80,80,1.0,100.0
520,66.0,0,80,1.0,100.0
521,62.0,80,80,1.0,100.0
522,69.0,80,80,1.0,100.0
523,50.0,80,240,0.0,100.0
524,67.0,80,80,1.0,100.0
525,64.0,80,80,1.0,100.0
526,62.0,0,240,0.0,100.0
527,71.0,80,80,1.0,100.0
528,61.0,80,80,0.0,100.0
529,57.0,80,80,0.0,100.0
530,59.0,80,80,0.0,100.0
531,69.0,0,320,1.0,100.0
532,61.0,80,80,0.0,100.0
533,71.0,80,80,1.0,100.0
534,62.0,0,80,0.0,100.0
535,73.0,80,80,1.0,100.0
536,64.0,0,80,0.0,100.0
537,74.0,80,80,1.0,100.0
538,73.0,80,80,1.0,100.0
539,71.0,80,80,1.0,100.0
540,66.0,0,320,0.0,100.0
541,64.0,80,80,0.0,100.0
542,62.0,80,80,0.0,100.0
543,69.0,80,320,1.0,100.0
544,67.0,80,80,1.0,100.0
545,66.0,80,80,1.0,100.0
546,71.0,80,240,0.0,100.0
547,74.0,0,60,0.0,100.0
548,64.0,80,80,1.0,100.0
549,73.0,60,60,0.0,100.0
550,66.0,20,80,1.0,100.0
551,71.0,40,60,0.0,100.0
552,73.0,20,60,0.0,100.0
553,67.0,40,80,1.0,100.0
554,74.0,0,80,0.0,100.0
555,69.0,80,80,0.0,100.0
556,66.0,60,240,1.0,100.0
557,66.0,80,80,0.0,100.0
558,62.0,80,80,0.0,100.0
559,57.0,80,80,0.0,100.0
560,54.0,80,80,0.0,100.0
561,66.0,80,80,1.0,100.0
562,69.0,80,80,1.0,100.0
563,50.0,80,240,0.0,100.0
564,74.0,80,80,1.0,100.0
565,78.0,80,80,1.0,100.0
566,81.0,80,80,1.0,100.0
567,86.0,80,240,1.0,100.0
568,50.0,480,240,1.0,100.0
569,81.0,120,120,0.0,100.0
570,38.0,120,240,1.0,100.0
571,78.0,120,120,0.0,100.0
572,74.0,120,120,0.0,100.0
573,42.0,120,240,1.0,100.0
574,69.0,120,120,0.0,100.0
575,45.0,120,240,1.0,100.0
576,50.0,120,240,1.0,100.0
577,66.0,120,120,0.0,100.0
578,54.0,120,240,1.0,100.0
579,62.0,120,120,0.0,100.0
580,59.0,120,120,0.0,100.0
581,55.0,120,240,1.0,100.0
582,55.0,120,120,0.0,100.0
583,59.0,120,240,1.0,100.0
584,62.0,120,240,1.0,100.0
585,50.0,120,120,0.0,100.0
586,67.0,120,240,1.0,100.0
587,47.0,120,120,0.0,100.0
588,71.0,120,60,1.0,100.0
589,69.0,60,60,1.0,100.0
590,43.0,60,120,0.0,100.0
591,45.0,120,120,0.0,100.0
592,47.0,120,120,0.0,100.0
593,71.0,0,420,1.0,100.0
594,64.0,80,80,1.0,100.0
595,63.0,80,80,1.0,100.0
596,48.0,120,240,0.0,100.0
597,64.0,80,80,1.0,100.0
598,66.0,80,80,1.0,100.0
599,67.0,80,80,1.0,100.0
600,55.0,0,240,0.0,100.0
601,69.0,0,80,1.0,100.0
602,67.0,80,80,1.0,100.0
603,66.0,80,80,1.0,100.0
604,60.0,80,240,0.0,100.0
605,67.0,80,80,1.0,100.0
606,69.0,80,80,1.0,100.0
607,64.0,0,240,0.0,100.0
608,71.0,80,80,1.0,100.0
609,72.0,80,80,1.0,100.0
610,71.0,80,80,1.0,100.0
611,69.0,80,80,1.0,100.0
612,57.0,0,240,0.0,100.0
613,67.0,80,80,1.0,100.0
614,66.0,80,80,1.0,100.0
615,64.0,80,80,1.0,100.0
616,72.0,0,320,0.0,100.0
617,71.0,80,80,0.0,100.0
618,70.0,80,80,0.0,100.0
619,63.0,80,320,1.0,100.0
620,71.0,80,80,0.0,100.0
621,64.0,80,80,1.0,100.0
622,73.0,0,80,0.0,100.0
623,75.0,80,80,0.0,100.0
624,66.0,0,80,1.0,100.0
625,76.0,80,80,0.0,100.0
626,67.0,0,80,1.0,100.0
627,66.0,0,80,1.0,100.0
628,75.0,80,80,0.0,100.0
629,64.0,80,80,1.0,100.0
630,73.0,0,80,0.0,100.0
631,66.0,0,80,1.0,100.0
632,75.0,80,80,0.0,100.0
633,76.0,80,80,0.0,100.0
634,67.0,0,80,1.0,100.0
635,78.0,80,80,0.0,100.0
636,69.0,0,80,1.0,100.0
637,79.0,80,80,0.0,100.0
638,78.0,80,80,0.0,100.0
639,59.0,0,240,1.0,100.0
640,76.0,80,80,0.0,100.0
641,78.0,0,80,0.0,100.0
642,79.0,80,80,0.0,100.0
643,57.0,80,240,1.0,100.0
644,81.0,80,80,0.0,100.0
645,55.0,80,80,1.0,100.0
646,83.0,0,80,0.0,100.0
647,81.0,80,80,0.0,100.0
648,54.0,0,80,1.0,100.0
649,79.0,80,80,0.0,100.0
650,52.0,0,160,1.0,100.0
651,81.0,80,80,0.0,100.0
652,51.0,0,80,1.0,100.0
653,83.0,80,80,0.0,100.0
654,52.0,80,80,1.0,100.0
655,84.0,0,80,0.0,100.0
656,53.0,0,80,1.0,100.0
657,52.0,80,80,1.0,100.0
658,75.0,80,240,0.0,100.0
659,53.0,80,80,1.0,100.0
660,54.0,0,80,1.0,100.0
661,52.0,80,80,1.0,100.0
662,54.0,80,80,1.0,100.0
663,84.0,80,240,0.0,100.0
664,55.0,0,80,1.0,100.0
665,54.0,80,80,1.0,100.0
666,83.0,80,240,0.0,100.0
667,55.0,80,80,1.0,100.0
668,56.0,80,80,1.0,100.0
669,54.0,80,80,1.0,100.0
670,56.0,80,80,1.0,100.0
671,74.0,0,320,0.0,100.0
672,73.0,80,80,0.0,100.0
673,75.0,80,80,0.0,100.0
674,57.0,80,320,1.0,100.0
675,76.0,80,80,0.0,100.0
676,78.0,80,80,0.0,100.0
677,58.0,10,80,1.0,100.0
678,59.0,70,80,1.0,100.0
679,79.0,0,80,0.0,100.0
680,60.0,0,80,1.0,100.0
681,59.0,80,80,1.0,100.0
682,60.0,80,80,1.0,100.0
683,70.0,80,240,0.0,100.0
684,61.0,80,80,1.0,100.0
685,59.0,80,80,1.0,100.0
686,79.0,0,240,0.0,100.0
687,61.0,80,80,1.0,100.0
688,62.0,0,80,1.0,100.0
689,61.0,80,80,1.0,100.0
690,78.0,80,240,0.0,100.0
691,62.0,80,80,1.0,100.0
692,63.0,80,80,1.0,100.0
693,61.0,80,80,1.0,100.0
694,63.0,80,80,1.0,100.0
695,69.0,0,240,0.0,100.0
696,64.0,80,80,1.0,100.0
697,63.0,80,80,1.0,100.0
698,67.0,0,240,0.0,100.0
699,64.0,80,80,1.0,100.0
700,66.0,0,80,1.0,100.0
701,64.0,80,80,1.0,100.0
702,63.0,80,240,0.0,100.0
703,66.0,80,80,1.0,100.0
704,67.0,0,80,1.0,100.0
705,66.0,80,80,1.0,100.0
706,64.0,80,240,0.0,100.0
707,67.0,80,80,1.0,100.0
708,69.0,0,80,1.0,100.0
709,67.0,80,80,1.0,100.0
710,69.0,80,80,1.0,100.0
711,60.0,80,240,0.0,100.0
712,71.0,80,80,1.0,100.0
713,69.0,80,80,1.0,100.0
714,71.0,80,80,1.0,100.0
715,51.0,0,240,0.0,100.0
716,72.0,80,80,1.0,100.0
717,71.0,80,80,1.0,100.0
718,69.0,80,80,1.0,100.0
719,75.0,0,240,0.0,100.0
720,67.0,80,80,1.0,100.0
721,66.0,80,80,1.0,100.0
722,67.0,80,80,1.0,100.0
723,76.0,0,240,0.0,100.0
724,69.0,0,80,1.0,100.0
725,67.0,80,80,1.0,100.0
726,64.0,80,240,0.0,100.0
727,66.0,80,80,1.0,100.0
728,67.0,80,80,0.0,100.0
729,71.0,80,80,0.0,100.0
730,76.0,80,80,0.0,100.0
731,79.0,80,80,0.0,100.0
732,75.0,80,80,0.0,100.0
733,76.0,80,80,0.0,100.0
734,71.0,80,80,0.0,100.0
735,64.0,80,720,1.0,100.0
736,67.0,80,80,0.0,100.0
737,68.0,80,80,0.0,100.0
738,50.0,80,240,1.0,100.0
739,77.0,100,80,0.0,100.0
740,76.0,60,80,0.0,100.0
741,72.0,80,80,0.0,100.0
742,69.0,80,80,0.0,100.0
743,48.0,0,240,1.0,100.0
744,64.0,80,120,1.0,100.0
745,62.0,80,80,0.0,100.0
746,71.0,80,80,0.0,100.0
747,64.0,80,120,1.0,100.0
748,60.0,80,80,0.0,100.0
749,69.0,80,80,0.0,100.0
750,64.0,80,120,1.0,100.0
751,59.0,80,80,0.0,100.0
752,67.0,80,80,0.0,100.0
753,64.0,80,120,1.0,100.0
754,60.0,80,80,0.0,100.0
755,69.0,80,80,0.0,100.0
756,66.0,80,80,0.0,100.0
757,48.0,80,240,1.0,100.0
758,75.0,80,80,0.0,100.0
759,74.0,0,80,0.0,100.0
760,71.0,80,80,0.0,100.0
761,67.0,80,80,0.0,100.0
762,47.0,80,240,1.0,100.0
763,62.0,80,120,1.0,100.0
764,60.0,80,80,0.0,100.0
765,69.0,80,80,0.0,100.0
766,62.0,80,120,1.0,100.0
767,59.0,80,80,0.0,100.0
768,67.0,80,80,0.0,100.0
769,62.0,80,120,1.0,100.0
770,57.0,80,80,0.0,100.0
771,66.0,80,80,0.0,100.0
772,62.0,80,120,1.0,100.0
773,59.0,80,80,0.0,100.0
774,67.0,80,80,0.0,100.0
775,64.0,80,80,0.0,100.0
776,47.0,80,240,1.0,100.0
777,74.0,80,80,0.0,100.0
778,72.0,0,80,0.0,100.0
779,69.0,80,80,0.0,100.0
780,64.0,80,80,0.0,100.0
781,45.0,80,240,1.0,100.0
782,60.0,80,120,0.0,100.0
783,59.0,80,80,1.0,100.0
784,67.0,80,80,1.0,100.0
785,60.0,80,120,0.0,100.0
786,57.0,80,80,1.0,100.0
787,66.0,80,80,1.0,100.0
788,60.0,80,120,0.0,100.0
789,55.0,80,80,1.0,100.0
790,64.0,80,80,1.0,100.0
791,60.0,80,120,0.0,100.0
792,54.0,80,80,1.0,100.0
793,62.0,80,80,1.0,100.0
794,55.0,80,80,1.0,100.0
795,64.0,80,80,1.0,100.0
796,72.0,0,0,0.0,100.0
797,69.0,80,80,0.0,100.0
798,50.0,80,240,1.0,100.0
799,66.0,80,80,0.0,100.0
800,62.0,80,120,0.0,100.0
801,57.0,80,80,1.0,100.0
802,66.0,80,80,1.0,100.0
803,62.0,80,120,0.0,100.0
804,59.0,80,80,1.0,100.0
805,67.0,80,80,1.0,100.0
806,62.0,80,120,0.0,100.0
807,60.0,80,80,1.0,100.0
808,69.0,80,80,1.0,100.0
809,62.0,80,120,0.0,100.0
810,59.0,80,80,1.0,100.0
811,67.0,80,80,1.0,100.0
812,57.0,80,80,1.0,100.0
813,66.0,80,80,1.0,100.0
814,72.0,80,240,0.0,100.0
815,71.0,0,80,0.0,100.0
816,67.0,80,80,0.0,100.0
817,55.0,80,240,1.0,100.0
818,74.0,80,80,0.0,100.0
819,72.0,80,80,0.0,100.0
820,69.0,80,80,0.0,100.0
821,76.0,80,80,0.0,100.0
822,67.0,0,320,1.0,100.0
823,71.0,80,80,1.0,100.0
824,64.0,80,80,1.0,100.0
825,74.0,80,240,0.0,100.0
826,65.0,80,80,1.0,100.0
827,69.0,80,80,1.0,100.0
828,59.0,0,240,0.0,100.0
829,62.0,80,80,1.0,100.0
830,64.0,80,80,1.0,100.0
831,67.0,80,80,1.0,100.0
832,55.0,0,240,0.0,100.0
833,60.0,80,80,1.0,100.0
834,62.0,0,80,1.0,100.0
835,65.0,80,80,1.0,100.0
836,77.0,80,240,0.0,100.0
837,59.0,80,80,1.0,100.0
838,76.0,80,80,0.0,100.0
839,60.0,0,80,1.0,100.0
840,55.0,80,80,1.0,100.0
841,79.0,0,80,0.0,100.0
842,72.0,0,80,0.0,100.0
843,64.0,80,80,1.0,100.0
844,62.0,0,80,1.0,100.0
845,74.0,80,80,0.0,100.0
846,59.0,80,80,1.0,100.0
847,77.0,0,80,0.0,100.0
848,71.0,0,80,0.0,100.0
849,65.0,80,80,1.0,100.0
850,72.0,0,80,0.0,100.0
851,76.0,80,80,0.0,100.0
852,69.0,80,80,0.0,100.0
853,64.0,80,240,1.0,100.0
854,71.0,0,80,0.0,100.0
855,74.0,80,80,0.0,100.0
856,79.0,80,240,1.0,100.0
857,67.0,80,80,0.0,100.0
858,69.0,0,80,0.0,100.0
859,72.0,80,80,0.0,100.0
860,66.0,80,80,0.0,100.0
861,84.0,80,240,1.0,100.0
862,67.0,0,80,0.0,100.0
863,71.0,80,80,0.0,100.0
864,64.0,80,80,0.0,100.0
865,76.0,80,240,1.0,100.0
866,66.0,80,80,0.0,100.0
867,62.0,80,80,0.0,100.0
868,64.0,80,80,0.0,100.0
869,74.0,0,320,1.0,100.0
870,66.0,80,80,0.0,100.0
871,76.0,80,80,1.0,100.0
872,67.0,0,80,0.0,100.0
873,69.0,80,80,0.0,100.0
874,78.0,0,80,1.0,100.0
875,79.0,0,80,1.0,100.0
876,78.0,80,80,1.0,100.0
877,76.0,80,80,1.0,100.0
878,59.0,80,320,0.0,100.0
879,57.0,80,80,0.0,100.0
880,55.0,80,80,0.0,100.0
881,74.0,80,320,1.0,100.0
882,72.0,80,80,1.0,100.0
883,64.0,80,240,0.0,100.0
884,71.0,80,80,1.0,100.0
885,67.0,80,60,0.0,100.0
886,69.0,0,80,1.0,100.0
887,66.0,60,60,0.0,100.0
888,71.0,20,80,1.0,100.0
889,64.0,40,60,0.0,100.0
890,66.0,20,60,0.0,100.0
891,72.0,40,80,1.0,100.0
892,67.0,60,80,0.0,100.0
893,62.0,80,80,0.0,100.0
894,59.0,80,80,0.0,100.0
895,71.0,0,240,1.0,100.0
896,55.0,80,80,0.0,100.0
897,50.0,80,80,0.0,100.0
898,47.0,80,80,0.0,100.0
899,59.0,80,80,1.0,100.0
900,62.0,80,80,1.0,100.0
901,43.0,80,240,0.0,100.0
902,67.0,80,80,1.0,100.0
903,71.0,80,80,1.0,100.0
904,74.0,80,80,1.0,100.0
905,79.0,80,240,1.0,100.0
906,81.0,120,120,0.0,100.0
907,50.0,480,240,1.0,100.0
908,78.0,120,120,0.0,100.0
909,38.0,120,240,1.0,100.0
910,74.0,120,120,0.0,100.0
911,42.0,120,240,1.0,100.0
912,45.0,120,240,1.0,100.0
913,69.0,120,120,0.0,100.0
914,50.0,120,240,1.0,100.0
915,66.0,120,120,0.0,100.0
916,54.0,120,240,1.0,100.0
917,62.0,120,120,0.0,100.0
918,55.0,120,240,1.0,100.0
919,59.0,120,120,0.0,100.0
920,55.0,120,120,0.0,100.0
921,59.0,120,240,1.0,100.0
922,50.0,120,120,0.0,100.0
923,62.0,120,240,1.0,100.0
924,47.0,120,120,0.0,100.0
925,67.0,120,240,1.0,100.0
926,71.0,120,60,1.0,100.0
927,69.0,60,60,1.0,100.0
928,43.0,60,120,0.0,100.0
929,45.0,120,120,0.0,100.0
930,47.0,120,120,0.0,100.0
931,71.0,0,420,1.0,100.0
932,64.0,80,80,1.0,100.0
933,48.0,120,240,0.0,100.0
934,63.0,80,80,1.0,100.0
935,64.0,0,80,1.0,100.0
936,66.0,80,80,1.0,100.0
937,55.0,80,240,0.0,100.0
938,67.0,80,80,1.0,100.0
939,69.0,80,80,1.0,100.0
940,67.0,80,80,1.0,100.0
941,66.0,80,80,1.0,100.0
942,60.0,0,240,0.0,100.0
943,67.0,80,80,1.0,100.0
944,69.0,80,80,1.0,100.0
945,71.0,80,80,1.0,100.0
946,64.0,0,240,0.0,100.0
947,72.0,80,80,1.0,100.0
948,71.0,80,80,1.0,100.0
949,69.0,80,80,1.0,100.0
950,57.0,0,240,0.0,100.0
951,67.0,80,80,1.0,100.0
952,66.0,80,80,1.0,100.0
953,64.0,80,80,1.0,100.0
954,72.0,0,320,0.0,100.0
955,71.0,80,80,0.0,100.0
956,70.0,80,80,0.0,100.0
957,71.0,80,80,0.0,100.0
958,63.0,80,320,1.0,100.0
959,64.0,0,80,1.0,100.0
960,73.0,80,80,0.0,100.0
961,66.0,0,80,1.0,100.0
962,75.0,80,80,0.0,100.0
963,76.0,0,80,0.0,100.0
964,67.0,80,80,1.0,100.0
965,66.0,0,80,1.0,100.0
966,75.0,80,80,0.0,100.0
967,64.0,0,80,1.0,100.0
968,73.0,80,80,0.0,100.0
969,66.0,80,80,1.0,100.0
970,75.0,0,80,0.0,100.0
971,67.0,0,80,1.0,100.0
972,76.0,80,80,0.0,100.0
973,78.0,80,80,0.0,100.0
974,69.0,0,80,1.0,100.0
975,79.0,80,80,0.0,100.0
976,78.0,80,80,0.0,100.0
977,76.0,80,80,0.0,100.0
978,59.0,0,240,1.0,100.0
979,78.0,80,80,0.0,100.0
980,79.0,80,80,0.0,100.0
981,57.0,0,240,1.0,100.0
982,81.0,80,80,0.0,100.0
983,55.0,80,80,1.0,100.0
984,83.0,0,80,0.0,100.0
985,81.0,80,80,0.0,100.0
986,54.0,0,80,1.0,100.0
987,79.0,0,80,0.0,100.0
988,52.0,80,160,1.0,100.0
989,81.0,80,80,0.0,100.0
990,83.0,80,80,0.0,100.0
991,51.0,0,80,1.0,100.0
992,84.0,0,80,0.0,100.0
993,52.0,80,80,1.0,100.0
994,53.0,0,80,1.0,100.0
995,52.0,80,80,1.0,100.0
996,75.0,80,240,0.0,100.0
997,53.0,80,80,1.0,100.0
998,54.0,0,80,1.0,100.0
999,52.0,80,80,1.0,100.0
1000,54.0,80,80,1.0,100.0
1001,84.0,80,240,0.0,100.0
1002,55.0,0,80,1.0,100.0
1003,54.0,80,80,1.0,100.0
1004,55.0,80,80,1.0,100.0
1005,83.0,80,240,0.0,100.0
1006,56.0,80,80,1.0,100.0
1007,54.0,80,80,1.0,100.0
1008,56.0,80,80,1.0,100.0
1009,74.0,0,320,0.0,100.0
1010,73.0,80,80,0.0,100.0
1011,75.0,80,80,0.0,100.0
1012,57.0,80,320,1.0,100.0
1013,76.0,80,80,0.0,100.0
1014,78.0,80,80,0.0,100.0
1015,58.0,10,80,1.0,100.0
1016,79.0,0,80,0.0,100.0
1017,59.0,70,80,1.0,100.0
1018,60.0,0,80,1.0,100.0
1019,59.0,80,80,1.0,100.0
1020,60.0,80,80,1.0,100.0
1021,70.0,80,240,0.0,100.0
1022,61.0,0,80,1.0,100.0
1023,59.0,80,80,1.0,100.0
1024,79.0,80,240,0.0,100.0
1025,61.0,80,80,1.0,100.0
1026,62.0,80,80,1.0,100.0
1027,61.0,80,80,1.0,100.0
1028,62.0,80,80,1.0,100.0
1029,78.0,0,240,0.0,100.0
1030,63.0,80,80,1.0,100.0
1031,61.0,80,80,1.0,100.0
1032,63.0,80,80,1.0,100.0
1033,69.0,0,240,0.0,100.0
1034,64.0,0,80,1.0,100.0
1035,63.0,80,80,1.0,100.0
1036,64.0,80,80,1.0,100.0
1037,67.0,80,240,0.0,100.0
1038,66.0,80,80,1.0,100.0
1039,64.0,80,80,1.0,100.0
1040,66.0,80,80,1.0,100.0
1041,63.0,0,240,0.0,100.0
1042,67.0,0,80,1.0,100.0
1043,66.0,80,80,1.0,100.0
1044,67.0,80,80,1.0,100.0
1045,64.0,80,240,0.0,100.0
1046,69.0,80,80,1.0,100.0
1047,67.0,80,80,1.0,100.0
1048,60.0,0,240,0.0,100.0
1049,69.0,80,80,1.0,100.0
1050,71.0,80,80,1.0,100.0
1051,69.0,80,80,1.0,100.0
1052,71.0,80,80,1.0,100.0
1053,51.0,0,240,0.0,100.0
1054,72.0,80,80,1.0,100.0
1055,71.0,80,80,1.0,100.0
1056,75.0,0,240,0.0,100.0
1057,69.0,80,80,1.0,100.0
1058,67.0,0,80,1.0,100.0
1059,66.0,80,80,1.0,100.0
1060,76.0,80,240,0.0,100.0
1061,67.0,80,80,1.0,100.0
1062,69.0,0,80,1.0,100.0
1063,67.0,80,80,1.0,100.0
1064,66.0,80,80,1.0,100.0
1065,64.0,80,240,0.0,100.0
1066,67.0,80,80,0.0,100.0
1067,71.0,80,80,0.0,100.0
1068,76.0,80,80,0.0,100.0
1069,79.0,80,80,0.0,100.0
1070,75.0,80,80,0.0,100.0
1071,76.0,80,80,0.0,100.0
1072,71.0,80,80,0.0,100.0
1073,67.0,80,80,0.0,100.0
1074,64.0,80,720,1.0,100.0
1075,68.0,80,80,0.0,100.0
1076,50.0,80,240,1.0,100.0
1077,77.0,100,80,0.0,100.0
1078,76.0,60,80,0.0,100.0
1079,72.0,80,80,0.0,100.0
1080,48.0,0,240,1.0,100.0
1081,69.0,80,80,0.0,100.0
1082,64.0,80,120,1.0,100.0
1083,62.0,80,80,0.0,100.0
1084,71.0,80,80,0.0,100.0
1085,64.0,80,120,1.0,100.0
1086,60.0,80,80,0.0,100.0
1087,69.0,80,80,0.0,100.0
1088,64.0,80,120,1.0,100.0
1089,59.0,80,80,0.0,100.0
1090,67.0,80,80,0.0,100.0
1091,64.0,80,120,1.0,100.0
1092,60.0,80,80,0.0,100.0
1093,69.0,80,80,0.0,100.0
1094,66.0,80,80,0.0,100.0
1095,75.0,80,80,0.0,100.0
1096,48.0,80,240,1.0,100.0
1097,74.0,80,80,0.0,100.0
1098,71.0,80,80,0.0,100.0
1099,47.0,0,240,1.0,100.0
1100,67.0,80,80,0.0,100.0
1101,62.0,80,120,1.0,100.0
1102,60.0,80,80,0.0,100.0
1103,69.0,80,80,0.0,100.0
1104,62.0,80,120,1.0,100.0
1105,59.0,80,80,0.0,100.0
1106,67.0,80,80,0.0,100.0
1107,62.0,80,120,1.0,100.0
1108,57.0,80,80,0.0,100.0
1109,66.0,80,80,0.0,100.0
1110,62.0,80,120,1.0,100.0
1111,59.0,80,80,0.0,100.0
1112,67.0,80,80,0.0,100.0
1113,64.0,80,80,0.0,100.0
1114,47.0,80,240,1.0,100.0
1115,74.0,80,80,0.0,100.0
1116,72.0,0,80,0.0,100.0
1117,69.0,80,80,0.0,100.0
1118,64.0,80,80,0.0,100.0
1119,45.0,80,240,1.0,100.0
1120,60.0,80,120,0.0,100.0
1121,59.0,80,80,1.0,100.0
1122,67.0,80,80,1.0,100.0
1123,60.0,80,120,0.0,100.0
1124,57.0,80,80,1.0,100.0
1125,66.0,80,80,1.0,100.0
1126,60.0,80,120,0.0,100.0
1127,55.0,80,80,1.0,100.0
1128,64.0,80,80,1.0,100.0
1129,60.0,80,120,0.0,100.0
1130,54.0,80,80,1.0,100.0
1131,62.0,80,80,1.0,100.0
1132,55.0,80,80,1.0,100.0
1133,64.0,80,80,1.0,100.0
1134,72.0,80,0,0.0,100.0
1135,69.0,80,80,0.0,100.0
1136,66.0,80,80,0.0,100.0
1137,50.0,0,240,1.0,100.0
1138,62.0,80,120,0.0,100.0
1139,57.0,80,80,1.0,100.0
1140,66.0,80,80,1.0,100.0
1141,62.0,80,120,0.0,100.0
1142,59.0,80,80,1.0,100.0
1143,67.0,80,80,1.0,100.0
1144,62.0,80,120,0.0,100.0
1145,60.0,80,80,1.0,100.0
1146,69.0,80,80,1.0,100.0
1147,62.0,80,120,0.0,100.0
1148,59.0,80,80,1.0,100.0
1149,67.0,80,80,1.0,100.0
1150,57.0,80,80,1.0,100.0
1151,72.0,80,240,0.0,100.0
1152,66.0,80,80,1.0,100.0
1153,71.0,0,80,0.0,100.0
1154,67.0,80,80,0.0,100.0
1155,74.0,80,80,0.0,100.0
1156,55.0,80,240,1.0,100.0
1157,72.0,0,80,0.0,100.0
1158,69.0,80,80,0.0,100.0
1159,76.0,80,80,0.0,100.0
1160,67.0,80,320,1.0,100.0
1161,71.0,80,80,1.0,100.0
1162,64.0,80,80,1.0,100.0
1163,74.0,80,240,0.0,100.0
1164,65.0,80,80,1.0,100.0
1165,69.0,80,80,1.0,100.0
1166,59.0,0,240,0.0,100.0
1167,62.0,80,80,1.0,100.0
1168,64.0,80,80,1.0,100.0
1169,67.0,80,80,1.0,100.0
1170,60.0,80,80,1.0,100.0
1171,55.0,0,240,0.0,100.0
1172,62.0,80,80,1.0,100.0
1173,65.0,80,80,1.0,100.0
1174,59.0,80,80,1.0,100.0
1175,77.0,0,240,0.0,100.0
1176,76.0,0,80,0.0,100.0
1177,60.0,80,80,1.0,100.0
1178,55.0,0,80,1.0,100.0
1179,79.0,80,80,0.0,100.0
1180,64.0,80,80,1.0,100.0
1181,72.0,0,80,0.0,100.0
1182,74.0,0,80,0.0,100.0
1183,62.0,80,80,1.0,100.0
1184,59.0,0,80,1.0,100.0
1185,77.0,80,80,0.0,100.0
1186,65.0,80,80,1.0,100.0
1187,71.0,0,80,0.0,100.0
1188,72.0,80,80,0.0,100.0
1189,76.0,80,80,0.0,100.0
1190,64.0,0,240,1.0,100.0
1191,69.0,80,80,0.0,100.0
1192,71.0,0,80,0.0,100.0
1193,74.0,80,80,0.0,100.0
1194,67.0,80,80,0.0,100.0
1195,79.0,80,240,1.0,100.0
1196,69.0,80,80,0.0,100.0
1197,72.0,80,80,0.0,100.0
1198,84.0,0,240,1.0,100.0
1199,66.0,80,80,0.0,100.0
1200,67.0,0,80,0.0,100.0
1201,71.0,80,80,0.0,100.0
1202,64.0,80,80,0.0,100.0
1203,76.0,80,240,1.0,100.0
1204,66.0,80,80,0.0,100.0
1205,62.0,80,80,0.0,100.0
1206,64.0,80,80,0.0,100.0
1207,66.0,80,80,0.0,100.0
1208,74.0,0,320,1.0,100.0
1209,76.0,0,80,1.0,100.0
1210,67.0,80,80,0.0,100.0
1211,69.0,80,80,0.0,100.0
1212,78.0,0,80,1.0,100.0
1213,79.0,0,80,1.0,100.0
1214,78.0,80,80,1.0,100.0
1215,76.0,80,80,1.0,100.0
1216,59.0,80,320,0.0,100.0
1217,57.0,80,80,0.0,100.0
1218,55.0,80,80,0.0,100.0
1219,74.0,80,320,1.0,100.0
1220,72.0,80,80,1.0,100.0
1221,71.0,80,80,1.0,100.0
1222,64.0,80,240,0.0,100.0
1223,67.0,0,60,0.0,100.0
1224,69.0,80,80,1.0,100.0
1225,66.0,60,60,0.0,100.0
1226,71.0,20,80,1.0,100.0
1227,64.0,40,60,0.0,100.0
1228,72.0,40,80,1.0,100.0
1229,66.0,20,60,0.0,100.0
1230,67.0,60,80,0.0,100.0
1231,62.0,80,80,0.0,100.0
1232,59.0,80,80,0.0,100.0
1233,71.0,0,240,1.0,100.0
1234,55.0,80,80,0.0,100.0
1235,50.0,80,80,0.0,100.0
1236,47.0,80,80,0.0,100.0
1237,59.0,80,80,1.0,100.0
1238,62.0,80,80,1.0,100.0
1239,43.0,80,240,0.0,100.0
1240,67.0,80,80,1.0,100.0
1241,71.0,80,80,1.0,100.0
1242,74.0,80,80,1.0,100.0
1243,79.0,80,240,1.0,100.0
