,note,step,duration,channel,velocity
0,45.0,6,52,1.0,0.0
1,72.0,15,13,0.0,0.0
2,74.0,9,13,0.0,0.0
3,76.0,28,13,0.0,0.0
4,57.0,4,52,1.0,0.0
5,77.0,26,26,0.0,0.0
6,72.0,30,26,0.0,0.0
7,56.0,4,52,1.0,0.0
8,71.0,26,26,0.0,0.0
9,75.0,30,26,0.0,0.0
10,55.0,4,52,1.0,0.0
11,76.0,26,26,0.0,0.0
12,70.0,30,26,0.0,0.0
13,69.0,26,26,0.0,0.0
14,54.0,4,52,1.0,0.0
15,73.0,30,26,0.0,0.0
16,74.0,26,26,0.0,0.0
17,53.0,34,52,1.0,0.0
18,68.0,26,56,0.0,0.0
19,52.0,30,52,1.0,0.0
20,69.0,34,52,0.0,0.0
21,50.0,15,73,1.0,0.0
22,71.0,17,26,0.0,0.0
23,64.0,6,52,0.0,0.0
24,48.0,15,13,1.0,0.0
25,50.0,9,13,1.0,0.0
26,52.0,28,13,1.0,0.0
27,69.0,4,52,0.0,0.0
28,53.0,26,26,1.0,0.0
29,48.0,30,26,1.0,0.0
30,47.0,26,26,1.0,0.0
31,68.0,4,52,0.0,0.0
32,51.0,30,26,1.0,0.0
33,52.0,26,26,1.0,0.0
34,67.0,4,52,0.0,0.0
35,46.0,30,26,1.0,0.0
36,45.0,26,26,1.0,0.0
37,66.0,4,52,0.0,0.0
38,49.0,30,26,1.0,0.0
39,50.0,26,26,1.0,0.0
40,65.0,34,52,0.0,0.0
41,44.0,26,56,1.0,0.0
42,64.0,30,52,0.0,0.0
43,45.0,34,52,1.0,0.0
44,62.0,17,86,0.0,0.0
45,47.0,30,26,1.0,0.0
46,40.0,6,52,1.0,0.0
47,60.0,9,13,0.0,0.0
48,59.0,28,13,0.0,0.0
49,45.0,34,52,1.0,0.0
50,60.0,26,26,0.0,0.0
51,69.0,26,56,0.0,0.0
52,47.0,4,52,1.0,0.0
53,68.0,30,26,0.0,0.0
54,76.0,26,26,0.0,0.0
55,49.0,34,52,1.0,0.0
56,67.0,17,56,0.0,0.0
57,50.0,6,52,1.0,0.0
58,66.0,9,13,0.0,0.0
59,64.0,28,13,0.0,0.0
60,63.0,26,26,0.0,0.0
61,47.0,34,52,1.0,0.0
62,71.0,26,56,0.0,0.0
63,49.0,4,52,1.0,0.0
64,70.0,30,26,0.0,0.0
65,78.0,26,26,0.0,0.0
66,51.0,21,52,1.0,0.0
67,69.0,15,43,0.0,0.0
68,52.0,6,52,1.0,0.0
69,67.0,15,13,0.0,0.0
70,69.0,9,13,0.0,0.0
71,71.0,28,13,0.0,0.0
72,64.0,4,52,1.0,0.0
73,72.0,26,26,0.0,0.0
74,67.0,30,26,0.0,0.0
75,63.0,4,52,1.0,0.0
76,66.0,26,26,0.0,0.0
77,70.0,30,26,0.0,0.0
78,71.0,26,26,0.0,0.0
79,62.0,4,52,1.0,0.0
80,65.0,30,26,0.0,0.0
81,64.0,26,26,0.0,0.0
82,61.0,4,52,1.0,0.0
83,68.0,30,26,0.0,0.0
84,69.0,26,26,0.0,0.0
85,60.0,34,52,1.0,0.0
86,63.0,26,56,0.0,0.0
87,59.0,30,52,1.0,0.0
88,64.0,34,52,0.0,0.0
89,57.0,15,73,1.0,0.0
90,66.0,17,26,0.0,0.0
91,59.0,6,52,0.0,0.0
92,55.0,15,13,1.0,0.0
93,57.0,9,13,1.0,0.0
94,59.0,28,13,1.0,0.0
95,60.0,26,26,1.0,0.0
96,76.0,4,52,0.0,0.0
97,55.0,30,26,1.0,0.0
98,54.0,26,26,1.0,0.0
99,75.0,4,52,0.0,0.0
100,58.0,30,26,1.0,0.0
101,59.0,26,26,1.0,0.0
102,74.0,4,52,0.0,0.0
103,53.0,30,26,1.0,0.0
104,52.0,26,26,1.0,0.0
105,73.0,4,52,0.0,0.0
106,56.0,30,26,1.0,0.0
107,57.0,26,26,1.0,0.0
108,72.0,34,52,0.0,0.0
109,51.0,26,56,1.0,0.0
110,71.0,30,52,0.0,0.0
111,52.0,34,52,1.0,0.0
112,69.0,17,86,0.0,0.0
113,54.0,30,26,1.0,0.0
114,47.0,6,52,1.0,0.0
115,67.0,9,13,0.0,0.0
116,66.0,28,13,0.0,0.0
117,52.0,34,52,1.0,0.0
118,67.0,26,26,0.0,0.0
119,76.0,26,56,0.0,0.0
120,54.0,4,52,1.0,0.0
121,75.0,30,26,0.0,0.0
122,56.0,34,52,1.0,0.0
123,83.0,26,26,0.0,0.0
124,74.0,17,56,0.0,0.0
125,57.0,0,26,1.0,0.0
126,45.0,2,26,1.0,0.0
127,72.0,13,13,0.0,0.0
128,71.0,28,13,0.0,0.0
129,57.0,26,86,1.0,0.0
130,72.0,30,26,0.0,0.0
131,69.0,30,26,0.0,0.0
132,71.0,4,52,0.0,0.0
133,56.0,30,26,1.0,0.0
134,73.0,34,52,0.0,0.0
135,64.0,26,26,1.0,0.0
136,55.0,0,56,1.0,0.0
137,74.0,17,26,0.0,0.0
138,54.0,13,13,1.0,0.0
139,62.0,2,26,0.0,0.0
140,52.0,28,13,1.0,0.0
141,54.0,30,26,1.0,0.0
142,74.0,26,86,0.0,0.0
143,50.0,30,26,1.0,0.0
144,52.0,4,52,1.0,0.0
145,73.0,30,26,0.0,0.0
146,81.0,26,26,0.0,0.0
147,54.0,34,52,1.0,0.0
148,72.0,17,56,0.0,0.0
149,55.0,0,26,1.0,0.0
150,43.0,2,26,1.0,0.0
151,71.0,13,13,0.0,0.0
152,69.0,28,13,0.0,0.0
153,71.0,30,26,0.0,0.0
154,55.0,26,86,1.0,0.0
155,67.0,30,26,0.0,0.0
156,69.0,4,52,0.0,0.0
157,54.0,30,26,1.0,0.0
158,62.0,26,26,1.0,0.0
159,71.0,21,52,0.0,0.0
160,53.0,15,43,1.0,0.0
161,72.0,6,52,0.0,0.0
162,52.0,15,13,1.0,0.0
163,53.0,9,13,1.0,0.0
164,55.0,28,13,1.0,0.0
165,84.0,4,52,0.0,0.0
166,57.0,26,26,1.0,0.0
167,52.0,30,26,1.0,0.0
168,83.0,4,52,0.0,0.0
169,51.0,26,26,1.0,0.0
170,54.0,30,26,1.0,0.0
171,82.0,4,52,0.0,0.0
172,55.0,26,26,1.0,0.0
173,50.0,30,26,1.0,0.0
174,49.0,26,26,1.0,0.0
175,81.0,4,52,0.0,0.0
176,52.0,30,26,1.0,0.0
177,53.0,26,26,1.0,0.0
178,80.0,34,52,0.0,0.0
179,48.0,26,56,1.0,0.0
180,79.0,30,52,0.0,0.0
181,47.0,21,52,1.0,0.0
182,77.0,15,73,0.0,0.0
183,48.0,15,13,1.0,0.0
184,50.0,15,13,1.0,0.0
185,43.0,6,52,1.0,0.0
186,71.0,15,13,0.0,0.0
187,72.0,9,13,0.0,0.0
188,74.0,28,13,0.0,0.0
189,55.0,4,52,1.0,0.0
190,76.0,26,26,0.0,0.0
191,71.0,30,26,0.0,0.0
192,54.0,4,52,1.0,0.0
193,70.0,26,26,0.0,0.0
194,73.0,30,26,0.0,0.0
195,53.0,4,52,1.0,0.0
196,74.0,26,26,0.0,0.0
197,69.0,30,26,0.0,0.0
198,68.0,26,26,0.0,0.0
199,52.0,4,52,1.0,0.0
200,71.0,30,26,0.0,0.0
201,51.0,34,52,1.0,0.0
202,72.0,26,26,0.0,0.0
203,67.0,26,56,0.0,0.0
204,50.0,30,52,1.0,0.0
205,66.0,21,52,0.0,0.0
206,48.0,17,86,1.0,0.0
207,67.0,15,13,0.0,0.0
208,69.0,28,13,0.0,0.0
209,62.0,6,52,0.0,0.0
210,47.0,9,13,1.0,0.0
211,45.0,28,13,1.0,0.0
212,67.0,34,52,0.0,0.0
213,47.0,26,26,1.0,0.0
214,55.0,26,56,1.0,0.0
215,69.0,4,52,0.0,0.0
216,54.0,30,26,1.0,0.0
217,62.0,26,26,1.0,0.0
218,71.0,34,52,0.0,0.0
219,53.0,17,56,1.0,0.0
220,72.0,6,52,0.0,0.0
221,52.0,9,13,1.0,0.0
222,50.0,28,13,1.0,0.0
223,69.0,34,52,0.0,0.0
224,49.0,26,26,1.0,0.0
225,57.0,26,56,1.0,0.0
226,71.0,4,52,0.0,0.0
227,56.0,30,26,1.0,0.0
228,73.0,21,52,0.0,0.0
229,64.0,26,26,1.0,0.0
230,55.0,15,43,1.0,0.0
231,74.0,6,52,0.0,0.0
232,54.0,15,13,1.0,0.0
233,55.0,9,13,1.0,0.0
234,57.0,28,13,1.0,0.0
235,58.0,26,26,1.0,0.0
236,62.0,4,52,0.0,0.0
237,53.0,30,26,1.0,0.0
238,61.0,4,52,0.0,0.0
239,52.0,26,26,1.0,0.0
240,56.0,30,26,1.0,0.0
241,60.0,4,52,0.0,0.0
242,57.0,26,26,1.0,0.0
243,51.0,30,26,1.0,0.0
244,50.0,26,26,1.0,0.0
245,59.0,4,52,0.0,0.0
246,54.0,30,26,1.0,0.0
247,55.0,26,26,1.0,0.0
248,58.0,34,52,0.0,0.0
249,49.0,26,56,1.0,0.0
250,57.0,30,52,0.0,0.0
251,50.0,34,52,1.0,0.0
252,55.0,17,86,0.0,0.0
253,52.0,30,26,1.0,0.0
254,45.0,6,52,1.0,0.0
255,53.0,9,13,0.0,0.0
256,52.0,28,13,0.0,0.0
257,53.0,26,26,0.0,0.0
258,50.0,34,52,1.0,0.0
259,62.0,26,56,0.0,0.0
260,52.0,4,52,1.0,0.0
261,61.0,30,26,0.0,0.0
262,69.0,26,26,0.0,0.0
263,54.0,34,52,1.0,0.0
264,60.0,17,56,0.0,0.0
265,55.0,6,52,1.0,0.0
266,59.0,9,13,0.0,0.0
267,57.0,28,13,0.0,0.0
268,52.0,34,52,1.0,0.0
269,56.0,26,26,0.0,0.0
270,64.0,26,56,0.0,0.0
271,54.0,4,52,1.0,0.0
272,63.0,30,26,0.0,0.0
273,71.0,26,26,0.0,0.0
274,56.0,21,52,1.0,0.0
275,62.0,13,43,0.0,0.0
276,57.0,2,26,1.0,0.0
277,60.0,15,13,0.0,0.0
278,45.0,2,26,1.0,0.0
279,62.0,13,13,0.0,0.0
280,64.0,28,13,0.0,0.0
281,57.0,4,52,1.0,0.0
282,65.0,26,26,0.0,0.0
283,60.0,30,26,0.0,0.0
284,59.0,26,26,0.0,0.0
285,56.0,4,52,1.0,0.0
286,63.0,30,26,0.0,0.0
287,55.0,4,52,1.0,0.0
288,64.0,26,26,0.0,0.0
289,58.0,30,26,0.0,0.0
290,54.0,4,52,1.0,0.0
291,57.0,26,26,0.0,0.0
292,61.0,30,26,0.0,0.0
293,62.0,26,26,0.0,0.0
294,53.0,34,52,1.0,0.0
295,56.0,26,56,0.0,0.0
296,52.0,30,52,1.0,0.0
297,57.0,34,52,0.0,0.0
298,50.0,17,86,1.0,0.0
299,59.0,30,26,0.0,0.0
300,52.0,6,52,0.0,0.0
301,48.0,9,13,1.0,0.0
302,47.0,28,13,1.0,0.0
303,48.0,26,26,1.0,0.0
304,64.0,34,52,0.0,0.0
305,52.0,26,56,1.0,0.0
306,66.0,4,52,0.0,0.0
307,51.0,30,26,1.0,0.0
308,68.0,34,52,0.0,0.0
309,59.0,26,26,1.0,0.0
310,50.0,17,56,1.0,0.0
311,69.0,0,26,0.0,0.0
312,49.0,13,13,1.0,0.0
313,57.0,2,26,0.0,0.0
314,47.0,28,13,1.0,0.0
315,49.0,30,26,1.0,0.0
316,69.0,26,86,0.0,0.0
317,45.0,30,26,1.0,0.0
318,47.0,4,52,1.0,0.0
319,68.0,30,26,0.0,0.0
320,49.0,34,52,1.0,0.0
321,76.0,26,26,0.0,0.0
322,67.0,0,56,0.0,0.0
323,50.0,17,26,1.0,0.0
324,66.0,13,13,0.0,0.0
325,38.0,2,26,1.0,0.0
326,64.0,28,13,0.0,0.0
327,66.0,30,26,0.0,0.0
328,50.0,26,86,1.0,0.0
329,62.0,30,26,0.0,0.0
330,64.0,4,52,0.0,0.0
331,49.0,30,26,1.0,0.0
332,66.0,34,52,0.0,0.0
333,57.0,26,26,1.0,0.0
334,48.0,0,56,1.0,0.0
335,67.0,17,26,0.0,0.0
336,47.0,13,13,1.0,0.0
337,55.0,2,26,0.0,0.0
338,45.0,28,13,1.0,0.0
339,67.0,26,86,0.0,0.0
340,47.0,30,26,1.0,0.0
341,43.0,30,26,1.0,0.0
342,45.0,4,52,1.0,0.0
343,66.0,30,26,0.0,0.0
344,74.0,26,26,0.0,0.0
345,47.0,34,52,1.0,0.0
346,65.0,17,56,0.0,0.0
347,48.0,8,78,1.0,0.0
348,64.0,15,13,0.0,0.0
349,62.0,20,13,0.0,0.0
350,64.0,17,26,0.0,0.0
351,76.0,17,56,0.0,0.0
352,47.0,15,13,1.0,0.0
353,45.0,28,13,1.0,0.0
354,53.0,13,105,1.0,0.0
355,77.0,15,13,0.0,0.0
356,76.0,15,13,0.0,0.0
357,74.0,15,13,0.0,0.0
358,72.0,15,13,0.0,0.0
359,71.0,2,13,0.0,0.0
360,69.0,28,13,0.0,0.0
361,68.0,7,225,0.0,0.0
362,52.0,2,26,1.0,0.0
363,64.0,15,13,0.0,0.0
364,62.0,15,13,0.0,0.0
365,60.0,15,13,0.0,0.0
366,59.0,15,13,0.0,0.0
367,57.0,15,13,0.0,0.0
368,56.0,15,13,0.0,0.0
369,54.0,54,13,0.0,0.0
370,52.0,53,52,0.0,0.0
371,40.0,36,52,0.0,0.0
372,45.0,6,52,1.0,0.0
373,72.0,15,13,0.0,0.0
374,74.0,9,13,0.0,0.0
375,76.0,28,13,0.0,0.0
376,77.0,26,26,0.0,0.0
377,57.0,4,52,1.0,0.0
378,72.0,30,26,0.0,0.0
379,56.0,4,52,1.0,0.0
380,71.0,26,26,0.0,0.0
381,75.0,30,26,0.0,0.0
382,55.0,4,52,1.0,0.0
383,76.0,26,26,0.0,0.0
384,70.0,30,26,0.0,0.0
385,54.0,4,52,1.0,0.0
386,69.0,26,26,0.0,0.0
387,73.0,30,26,0.0,0.0
388,74.0,26,26,0.0,0.0
389,53.0,34,52,1.0,0.0
390,68.0,26,56,0.0,0.0
391,52.0,30,52,1.0,0.0
392,69.0,34,52,0.0,0.0
393,50.0,15,73,1.0,0.0
394,71.0,17,26,0.0,0.0
395,64.0,6,52,0.0,0.0
396,48.0,15,13,1.0,0.0
397,50.0,9,13,1.0,0.0
398,52.0,28,13,1.0,0.0
399,53.0,26,26,1.0,0.0
400,69.0,4,52,0.0,0.0
401,48.0,30,26,1.0,0.0
402,68.0,4,52,0.0,0.0
403,47.0,26,26,1.0,0.0
404,51.0,30,26,1.0,0.0
405,52.0,26,26,1.0,0.0
406,67.0,4,52,0.0,0.0
407,46.0,30,26,1.0,0.0
408,45.0,26,26,1.0,0.0
409,66.0,4,52,0.0,0.0
410,49.0,30,26,1.0,0.0
411,65.0,34,52,0.0,0.0
412,50.0,26,26,1.0,0.0
413,44.0,26,56,1.0,0.0
414,64.0,30,52,0.0,0.0
415,45.0,34,52,1.0,0.0
416,62.0,17,86,0.0,0.0
417,47.0,30,26,1.0,0.0
418,40.0,6,52,1.0,0.0
419,60.0,9,13,0.0,0.0
420,59.0,28,13,0.0,0.0
421,60.0,26,26,0.0,0.0
422,45.0,34,52,1.0,0.0
423,69.0,26,56,0.0,0.0
424,47.0,4,52,1.0,0.0
425,68.0,30,26,0.0,0.0
426,49.0,34,52,1.0,0.0
427,76.0,26,26,0.0,0.0
428,67.0,17,56,0.0,0.0
429,50.0,6,52,1.0,0.0
430,66.0,9,13,0.0,0.0
431,64.0,28,13,0.0,0.0
432,47.0,34,52,1.0,0.0
433,63.0,26,26,0.0,0.0
434,71.0,26,56,0.0,0.0
435,49.0,4,52,1.0,0.0
436,70.0,30,26,0.0,0.0
437,78.0,26,26,0.0,0.0
438,51.0,21,52,1.0,0.0
439,69.0,15,43,0.0,0.0
440,52.0,6,52,1.0,0.0
441,67.0,15,13,0.0,0.0
442,69.0,9,13,0.0,0.0
443,71.0,28,13,0.0,0.0
444,64.0,4,52,1.0,0.0
445,72.0,26,26,0.0,0.0
446,67.0,30,26,0.0,0.0
447,63.0,4,52,1.0,0.0
448,66.0,26,26,0.0,0.0
449,70.0,30,26,0.0,0.0
450,62.0,4,52,1.0,0.0
451,71.0,26,26,0.0,0.0
452,65.0,30,26,0.0,0.0
453,61.0,4,52,1.0,0.0
454,64.0,26,26,0.0,0.0
455,68.0,30,26,0.0,0.0
456,60.0,34,52,1.0,0.0
457,69.0,26,26,0.0,0.0
458,63.0,26,56,0.0,0.0
459,59.0,30,52,1.0,0.0
460,64.0,34,52,0.0,0.0
461,57.0,15,73,1.0,0.0
462,66.0,17,26,0.0,0.0
463,59.0,6,52,0.0,0.0
464,55.0,15,13,1.0,0.0
465,57.0,9,13,1.0,0.0
466,59.0,28,13,1.0,0.0
467,76.0,4,52,0.0,0.0
468,60.0,26,26,1.0,0.0
469,55.0,30,26,1.0,0.0
470,54.0,26,26,1.0,0.0
471,75.0,4,52,0.0,0.0
472,58.0,30,26,1.0,0.0
473,74.0,4,52,0.0,0.0
474,59.0,26,26,1.0,0.0
475,53.0,30,26,1.0,0.0
476,73.0,4,52,0.0,0.0
477,52.0,26,26,1.0,0.0
478,56.0,30,26,1.0,0.0
479,57.0,26,26,1.0,0.0
480,72.0,34,52,0.0,0.0
481,51.0,26,56,1.0,0.0
482,71.0,30,52,0.0,0.0
483,52.0,34,52,1.0,0.0
484,69.0,17,86,0.0,0.0
485,54.0,30,26,1.0,0.0
486,47.0,6,52,1.0,0.0
487,67.0,9,13,0.0,0.0
488,66.0,28,13,0.0,0.0
489,67.0,26,26,0.0,0.0
490,52.0,34,52,1.0,0.0
491,76.0,26,56,0.0,0.0
492,54.0,4,52,1.0,0.0
493,75.0,30,26,0.0,0.0
494,83.0,26,26,0.0,0.0
495,56.0,34,52,1.0,0.0
496,74.0,0,56,0.0,0.0
497,57.0,17,26,1.0,0.0
498,45.0,2,26,1.0,0.0
499,72.0,13,13,0.0,0.0
500,71.0,28,13,0.0,0.0
501,57.0,26,86,1.0,0.0
502,72.0,30,26,0.0,0.0
503,69.0,30,26,0.0,0.0
504,71.0,4,52,0.0,0.0
505,56.0,30,26,1.0,0.0
506,73.0,34,52,0.0,0.0
507,64.0,26,26,1.0,0.0
508,55.0,0,56,1.0,0.0
509,74.0,17,26,0.0,0.0
510,62.0,2,26,0.0,0.0
511,54.0,13,13,1.0,0.0
512,52.0,28,13,1.0,0.0
513,54.0,30,26,1.0,0.0
514,74.0,26,86,0.0,0.0
515,50.0,30,26,1.0,0.0
516,52.0,4,52,1.0,0.0
517,73.0,30,26,0.0,0.0
518,81.0,26,26,0.0,0.0
519,54.0,34,52,1.0,0.0
520,72.0,0,56,0.0,0.0
521,55.0,17,26,1.0,0.0
522,43.0,2,26,1.0,0.0
523,71.0,13,13,0.0,0.0
524,69.0,28,13,0.0,0.0
525,55.0,26,86,1.0,0.0
526,71.0,30,26,0.0,0.0
527,67.0,30,26,0.0,0.0
528,69.0,4,52,0.0,0.0
529,54.0,30,26,1.0,0.0
530,71.0,21,52,0.0,0.0
531,62.0,26,26,1.0,0.0
532,53.0,15,43,1.0,0.0
533,72.0,6,52,0.0,0.0
534,52.0,15,13,1.0,0.0
535,53.0,9,13,1.0,0.0
536,55.0,28,13,1.0,0.0
537,84.0,4,52,0.0,0.0
538,57.0,26,26,1.0,0.0
539,52.0,30,26,1.0,0.0
540,51.0,26,26,1.0,0.0
541,83.0,4,52,0.0,0.0
542,54.0,30,26,1.0,0.0
543,55.0,26,26,1.0,0.0
544,82.0,4,52,0.0,0.0
545,50.0,30,26,1.0,0.0
546,81.0,4,52,0.0,0.0
547,49.0,26,26,1.0,0.0
548,52.0,30,26,1.0,0.0
549,80.0,34,52,0.0,0.0
550,53.0,26,26,1.0,0.0
551,48.0,26,56,1.0,0.0
552,79.0,30,52,0.0,0.0
553,47.0,21,52,1.0,0.0
554,77.0,15,73,0.0,0.0
555,48.0,15,13,1.0,0.0
556,50.0,15,13,1.0,0.0
557,43.0,6,52,1.0,0.0
558,71.0,15,13,0.0,0.0
559,72.0,9,13,0.0,0.0
560,74.0,28,13,0.0,0.0
561,55.0,4,52,1.0,0.0
562,76.0,26,26,0.0,0.0
563,71.0,30,26,0.0,0.0
564,54.0,4,52,1.0,0.0
565,70.0,26,26,0.0,0.0
566,73.0,30,26,0.0,0.0
567,53.0,4,52,1.0,0.0
568,74.0,26,26,0.0,0.0
569,69.0,30,26,0.0,0.0
570,52.0,4,52,1.0,0.0
571,68.0,26,26,0.0,0.0
572,71.0,30,26,0.0,0.0
573,51.0,34,52,1.0,0.0
574,72.0,26,26,0.0,0.0
575,67.0,26,56,0.0,0.0
576,50.0,30,52,1.0,0.0
577,66.0,21,52,0.0,0.0
578,48.0,17,86,1.0,0.0
579,67.0,15,13,0.0,0.0
580,69.0,28,13,0.0,0.0
581,62.0,6,52,0.0,0.0
582,47.0,9,13,1.0,0.0
583,45.0,28,13,1.0,0.0
584,67.0,34,52,0.0,0.0
585,47.0,26,26,1.0,0.0
586,55.0,26,56,1.0,0.0
587,69.0,4,52,0.0,0.0
588,54.0,30,26,1.0,0.0
589,62.0,26,26,1.0,0.0
590,71.0,34,52,0.0,0.0
591,53.0,17,56,1.0,0.0
592,72.0,6,52,0.0,0.0
593,52.0,9,13,1.0,0.0
594,50.0,28,13,1.0,0.0
595,69.0,34,52,0.0,0.0
596,49.0,26,26,1.0,0.0
597,57.0,26,56,1.0,0.0
598,71.0,4,52,0.0,0.0
599,56.0,30,26,1.0,0.0
600,73.0,21,52,0.0,0.0
601,64.0,26,26,1.0,0.0
602,55.0,15,43,1.0,0.0
603,74.0,6,52,0.0,0.0
604,54.0,15,13,1.0,0.0
605,55.0,9,13,1.0,0.0
606,57.0,28,13,1.0,0.0
607,62.0,4,52,0.0,0.0
608,58.0,26,26,1.0,0.0
609,53.0,30,26,1.0,0.0
610,61.0,4,52,0.0,0.0
611,52.0,26,26,1.0,0.0
612,56.0,30,26,1.0,0.0
613,57.0,26,26,1.0,0.0
614,60.0,4,52,0.0,0.0
615,51.0,30,26,1.0,0.0
616,59.0,4,52,0.0,0.0
617,50.0,26,26,1.0,0.0
618,54.0,30,26,1.0,0.0
619,58.0,34,52,0.0,0.0
620,55.0,26,26,1.0,0.0
621,49.0,26,56,1.0,0.0
622,57.0,30,52,0.0,0.0
623,50.0,34,52,1.0,0.0
624,55.0,17,86,0.0,0.0
625,52.0,30,26,1.0,0.0
626,45.0,6,52,1.0,0.0
627,53.0,9,13,0.0,0.0
628,52.0,28,13,0.0,0.0
629,50.0,34,52,1.0,0.0
630,53.0,26,26,0.0,0.0
631,62.0,26,56,0.0,0.0
632,52.0,4,52,1.0,0.0
633,61.0,30,26,0.0,0.0
634,69.0,26,26,0.0,0.0
635,54.0,34,52,1.0,0.0
636,60.0,17,56,0.0,0.0
637,55.0,6,52,1.0,0.0
638,59.0,9,13,0.0,0.0
639,57.0,28,13,0.0,0.0
640,52.0,34,52,1.0,0.0
641,56.0,26,26,0.0,0.0
642,64.0,26,56,0.0,0.0
643,54.0,4,52,1.0,0.0
644,63.0,30,26,0.0,0.0
645,56.0,21,52,1.0,0.0
646,71.0,26,26,0.0,0.0
647,62.0,13,43,0.0,0.0
648,57.0,2,26,1.0,0.0
649,60.0,15,13,0.0,0.0
650,45.0,2,26,1.0,0.0
651,62.0,13,13,0.0,0.0
652,64.0,28,13,0.0,0.0
653,57.0,4,52,1.0,0.0
654,65.0,26,26,0.0,0.0
655,60.0,30,26,0.0,0.0
656,56.0,4,52,1.0,0.0
657,59.0,26,26,0.0,0.0
658,63.0,30,26,0.0,0.0
659,55.0,4,52,1.0,0.0
660,64.0,26,26,0.0,0.0
661,58.0,30,26,0.0,0.0
662,57.0,26,26,0.0,0.0
663,54.0,4,52,1.0,0.0
664,61.0,30,26,0.0,0.0
665,53.0,34,52,1.0,0.0
666,62.0,26,26,0.0,0.0
667,56.0,26,56,0.0,0.0
668,52.0,30,52,1.0,0.0
669,57.0,34,52,0.0,0.0
670,50.0,17,86,1.0,0.0
671,59.0,30,26,0.0,0.0
672,52.0,6,52,0.0,0.0
673,48.0,9,13,1.0,0.0
674,47.0,28,13,1.0,0.0
675,64.0,34,52,0.0,0.0
676,48.0,26,26,1.0,0.0
677,52.0,26,56,1.0,0.0
678,66.0,4,52,0.0,0.0
679,51.0,30,26,1.0,0.0
680,68.0,34,52,0.0,0.0
681,59.0,26,26,1.0,0.0
682,50.0,17,56,1.0,0.0
683,69.0,0,26,0.0,0.0
684,49.0,13,13,1.0,0.0
685,57.0,2,26,0.0,0.0
686,47.0,28,13,1.0,0.0
687,69.0,26,86,0.0,0.0
688,49.0,30,26,1.0,0.0
689,45.0,30,26,1.0,0.0
690,47.0,4,52,1.0,0.0
691,68.0,30,26,0.0,0.0
692,49.0,34,52,1.0,0.0
693,76.0,26,26,0.0,0.0
694,67.0,0,56,0.0,0.0
695,50.0,17,26,1.0,0.0
696,66.0,13,13,0.0,0.0
697,38.0,2,26,1.0,0.0
698,64.0,28,13,0.0,0.0
699,66.0,30,26,0.0,0.0
700,50.0,26,86,1.0,0.0
701,62.0,30,26,0.0,0.0
702,64.0,4,52,0.0,0.0
703,49.0,30,26,1.0,0.0
704,66.0,34,52,0.0,0.0
705,57.0,26,26,1.0,0.0
706,48.0,17,56,1.0,0.0
707,67.0,0,26,0.0,0.0
708,55.0,2,26,0.0,0.0
709,47.0,13,13,1.0,0.0
710,45.0,28,13,1.0,0.0
711,67.0,26,86,0.0,0.0
712,47.0,30,26,1.0,0.0
713,43.0,30,26,1.0,0.0
714,45.0,4,52,1.0,0.0
715,66.0,30,26,0.0,0.0
716,74.0,26,26,0.0,0.0
717,47.0,34,52,1.0,0.0
718,65.0,17,56,0.0,0.0
719,48.0,8,78,1.0,0.0
720,64.0,15,13,0.0,0.0
721,62.0,20,13,0.0,0.0
722,64.0,17,26,0.0,0.0
723,47.0,15,13,1.0,0.0
724,76.0,17,56,0.0,0.0
725,45.0,28,13,1.0,0.0
726,53.0,13,105,1.0,0.0
727,77.0,15,13,0.0,0.0
728,76.0,15,13,0.0,0.0
729,74.0,15,13,0.0,0.0
730,72.0,15,13,0.0,0.0
731,71.0,2,13,0.0,0.0
732,69.0,28,13,0.0,0.0
733,52.0,2,26,1.0,0.0
734,68.0,7,225,0.0,0.0
735,64.0,15,13,0.0,0.0
736,62.0,15,13,0.0,0.0
737,60.0,15,13,0.0,0.0
738,59.0,15,13,0.0,0.0
739,57.0,15,13,0.0,0.0
740,56.0,15,13,0.0,0.0
741,54.0,54,13,0.0,0.0
742,52.0,53,52,0.0,0.0
743,40.0,36,52,0.0,0.0
744,76.0,6,52,0.0,0.0
745,60.0,15,13,1.0,0.0
746,59.0,9,13,1.0,0.0
747,57.0,28,13,1.0,0.0
748,64.0,4,52,0.0,0.0
749,56.0,26,26,1.0,0.0
750,61.0,30,26,1.0,0.0
751,65.0,4,52,0.0,0.0
752,62.0,26,26,1.0,0.0
753,58.0,30,26,1.0,0.0
754,66.0,4,52,0.0,0.0
755,57.0,26,26,1.0,0.0
756,63.0,30,26,1.0,0.0
757,67.0,4,52,0.0,0.0
758,64.0,26,26,1.0,0.0
759,60.0,30,26,1.0,0.0
760,68.0,34,52,0.0,0.0
761,59.0,26,26,1.0,0.0
762,65.0,26,56,1.0,0.0
763,69.0,30,52,0.0,0.0
764,64.0,30,52,1.0,0.0
765,71.0,4,52,0.0,0.0
766,62.0,17,26,1.0,0.0
767,72.0,15,13,0.0,0.0
768,69.0,6,52,1.0,0.0
769,77.0,15,13,0.0,0.0
770,76.0,9,13,0.0,0.0
771,74.0,28,13,0.0,0.0
772,57.0,4,52,1.0,0.0
773,73.0,26,26,0.0,0.0
774,78.0,30,26,0.0,0.0
775,58.0,4,52,1.0,0.0
776,79.0,26,26,0.0,0.0
777,75.0,30,26,0.0,0.0
778,74.0,26,26,0.0,0.0
779,59.0,4,52,1.0,0.0
780,80.0,30,26,0.0,0.0
781,81.0,26,26,0.0,0.0
782,60.0,4,52,1.0,0.0
783,77.0,30,26,0.0,0.0
784,61.0,34,52,1.0,0.0
785,76.0,26,26,0.0,0.0
786,82.0,26,56,0.0,0.0
787,62.0,30,52,1.0,0.0
788,81.0,30,52,0.0,0.0
789,64.0,4,52,1.0,0.0
790,80.0,17,26,0.0,0.0
791,65.0,6,52,1.0,0.0
792,81.0,15,13,0.0,0.0
793,79.0,15,13,0.0,0.0
794,77.0,9,13,0.0,0.0
795,76.0,28,13,0.0,0.0
796,77.0,26,26,0.0,0.0
797,62.0,4,52,1.0,0.0
798,70.0,30,26,0.0,0.0
799,60.0,4,52,1.0,0.0
800,69.0,26,26,0.0,0.0
801,76.0,30,26,0.0,0.0
802,59.0,21,52,1.0,0.0
803,74.0,26,26,0.0,0.0
804,68.0,15,43,0.0,0.0
805,57.0,6,52,1.0,0.0
806,74.0,15,13,0.0,0.0
807,72.0,9,13,0.0,0.0
808,71.0,28,13,0.0,0.0
809,69.0,26,26,0.0,0.0
810,60.0,4,52,1.0,0.0
811,76.0,30,26,0.0,0.0
812,59.0,4,52,1.0,0.0
813,74.0,26,26,0.0,0.0
814,67.0,30,26,0.0,0.0
815,57.0,4,52,1.0,0.0
816,66.0,26,26,0.0,0.0
817,72.0,17,26,0.0,0.0
818,71.0,6,52,0.0,0.0
819,55.0,15,13,1.0,0.0
820,59.0,15,13,1.0,0.0
821,60.0,9,13,1.0,0.0
822,62.0,28,13,1.0,0.0
823,79.0,4,52,0.0,0.0
824,64.0,26,26,1.0,0.0
825,58.0,30,26,1.0,0.0
826,57.0,26,26,1.0,0.0
827,77.0,4,52,0.0,0.0
828,62.0,30,26,1.0,0.0
829,61.0,26,26,1.0,0.0
830,76.0,21,52,0.0,0.0
831,55.0,15,43,1.0,0.0
832,74.0,6,52,0.0,0.0
833,67.0,15,13,1.0,0.0
834,65.0,9,13,1.0,0.0
835,64.0,28,13,1.0,0.0
836,62.0,26,26,1.0,0.0
837,77.0,4,52,0.0,0.0
838,68.0,30,26,1.0,0.0
839,69.0,26,26,1.0,0.0
840,76.0,4,52,0.0,0.0
841,60.0,30,26,1.0,0.0
842,74.0,6,112,0.0,0.0
843,59.0,30,26,1.0,0.0
844,65.0,17,26,1.0,0.0
845,64.0,15,13,1.0,0.0
846,62.0,15,13,1.0,0.0
847,60.0,9,13,1.0,0.0
848,59.0,28,13,1.0,0.0
849,72.0,30,26,0.0,0.0
850,57.0,0,26,1.0,0.0
851,56.0,30,26,1.0,0.0
852,71.0,0,26,0.0,0.0
853,72.0,4,52,0.0,0.0
854,57.0,26,26,1.0,0.0
855,53.0,30,26,1.0,0.0
856,73.0,4,52,0.0,0.0
857,52.0,26,26,1.0,0.0
858,58.0,30,26,1.0,0.0
859,74.0,4,52,0.0,0.0
860,59.0,26,26,1.0,0.0
861,55.0,30,26,1.0,0.0
862,54.0,26,26,1.0,0.0
863,75.0,34,52,0.0,0.0
864,60.0,26,56,1.0,0.0
865,76.0,30,52,0.0,0.0
866,59.0,30,52,1.0,0.0
867,78.0,4,52,0.0,0.0
868,57.0,17,26,1.0,0.0
869,79.0,15,13,0.0,0.0
870,64.0,6,52,1.0,0.0
871,77.0,15,13,0.0,0.0
872,76.0,9,13,0.0,0.0
873,74.0,28,13,0.0,0.0
874,73.0,26,26,0.0,0.0
875,52.0,4,52,1.0,0.0
876,80.0,30,26,0.0,0.0
877,81.0,26,26,0.0,0.0
878,53.0,4,52,1.0,0.0
879,75.0,30,26,0.0,0.0
880,74.0,26,26,0.0,0.0
881,54.0,4,52,1.0,0.0
882,82.0,30,26,0.0,0.0
883,55.0,4,52,1.0,0.0
884,83.0,26,26,0.0,0.0
885,77.0,30,26,0.0,0.0
886,76.0,26,26,0.0,0.0
887,56.0,34,52,1.0,0.0
888,74.0,26,56,0.0,0.0
889,57.0,30,52,1.0,0.0
890,72.0,30,52,0.0,0.0
891,59.0,34,52,1.0,0.0
892,71.0,17,56,0.0,0.0
893,60.0,6,52,1.0,0.0
894,69.0,9,13,0.0,0.0
895,71.0,28,13,0.0,0.0
896,57.0,4,52,1.0,0.0
897,72.0,26,26,0.0,0.0
898,63.0,30,26,0.0,0.0
899,55.0,4,52,1.0,0.0
900,64.0,26,26,0.0,0.0
901,73.0,30,26,0.0,0.0
902,53.0,4,52,1.0,0.0
903,74.0,26,26,0.0,0.0
904,65.0,17,26,0.0,0.0
905,67.0,6,52,0.0,0.0
906,52.0,15,13,1.0,0.0
907,53.0,15,13,1.0,0.0
908,55.0,9,13,1.0,0.0
909,57.0,28,13,1.0,0.0
910,58.0,26,26,1.0,0.0
911,74.0,4,52,0.0,0.0
912,53.0,30,26,1.0,0.0
913,52.0,26,26,1.0,0.0
914,73.0,4,52,0.0,0.0
915,57.0,30,26,1.0,0.0
916,70.0,15,73,0.0,0.0
917,55.0,30,26,1.0,0.0
918,50.0,17,26,1.0,0.0
919,49.0,6,52,1.0,0.0
920,69.0,15,13,0.0,0.0
921,67.0,9,13,0.0,0.0
922,69.0,28,13,0.0,0.0
923,55.0,4,52,1.0,0.0
924,70.0,26,26,0.0,0.0
925,61.0,30,26,0.0,0.0
926,62.0,26,26,0.0,0.0
927,53.0,4,52,1.0,0.0
928,71.0,30,26,0.0,0.0
929,72.0,26,26,0.0,0.0
930,51.0,4,52,1.0,0.0
931,63.0,17,26,0.0,0.0
932,50.0,15,13,1.0,0.0
933,65.0,6,52,0.0,0.0
934,51.0,15,13,1.0,0.0
935,53.0,9,13,1.0,0.0
936,55.0,28,13,1.0,0.0
937,56.0,26,26,1.0,0.0
938,72.0,4,52,0.0,0.0
939,51.0,30,26,1.0,0.0
940,50.0,26,26,1.0,0.0
941,71.0,4,52,0.0,0.0
942,55.0,30,26,1.0,0.0
943,68.0,15,73,0.0,0.0
944,53.0,30,26,1.0,0.0
945,48.0,17,26,1.0,0.0
946,47.0,6,52,1.0,0.0
947,67.0,15,13,0.0,0.0
948,69.0,9,13,0.0,0.0
949,71.0,28,13,0.0,0.0
950,72.0,26,26,0.0,0.0
951,52.0,4,52,1.0,0.0
952,67.0,30,26,0.0,0.0
953,51.0,4,52,1.0,0.0
954,66.0,26,26,0.0,0.0
955,70.0,30,26,0.0,0.0
956,71.0,26,26,0.0,0.0
957,50.0,4,52,1.0,0.0
958,65.0,30,26,0.0,0.0
959,64.0,26,26,0.0,0.0
960,49.0,4,52,1.0,0.0
961,68.0,30,26,0.0,0.0
962,69.0,26,26,0.0,0.0
963,48.0,34,52,1.0,0.0
964,63.0,26,56,0.0,0.0
965,47.0,30,52,1.0,0.0
966,64.0,34,52,0.0,0.0
967,45.0,15,73,1.0,0.0
968,65.0,17,26,0.0,0.0
969,59.0,6,52,0.0,0.0
970,48.0,15,13,1.0,0.0
971,47.0,9,13,1.0,0.0
972,45.0,28,13,1.0,0.0
973,44.0,26,26,1.0,0.0
974,76.0,4,52,0.0,0.0
975,49.0,30,26,1.0,0.0
976,77.0,4,52,0.0,0.0
977,50.0,26,26,1.0,0.0
978,46.0,30,26,1.0,0.0
979,45.0,26,26,1.0,0.0
980,78.0,4,52,0.0,0.0
981,51.0,30,26,1.0,0.0
982,52.0,26,26,1.0,0.0
983,79.0,4,52,0.0,0.0
984,48.0,30,26,1.0,0.0
985,47.0,26,26,1.0,0.0
986,80.0,34,52,0.0,0.0
987,53.0,26,56,1.0,0.0
988,81.0,30,52,0.0,0.0
989,52.0,34,52,1.0,0.0
990,83.0,17,86,0.0,0.0
991,50.0,30,26,1.0,0.0
992,48.0,6,52,1.0,0.0
993,81.0,9,13,0.0,0.0
994,83.0,28,13,0.0,0.0
995,52.0,34,52,1.0,0.0
996,84.0,26,26,0.0,0.0
997,76.0,26,56,0.0,0.0
998,54.0,4,52,1.0,0.0
999,75.0,30,26,0.0,0.0
1000,83.0,26,26,0.0,0.0
1001,56.0,21,52,1.0,0.0
1002,74.0,15,43,0.0,0.0
1003,57.0,6,52,1.0,0.0
1004,72.0,15,13,0.0,0.0
1005,74.0,9,13,0.0,0.0
1006,76.0,28,13,0.0,0.0
1007,77.0,26,26,0.0,0.0
1008,45.0,34,52,1.0,0.0
1009,69.0,26,56,0.0,0.0
1010,47.0,4,52,1.0,0.0
1011,68.0,30,26,0.0,0.0
1012,49.0,21,52,1.0,0.0
1013,76.0,26,26,0.0,0.0
1014,67.0,15,43,0.0,0.0
1015,50.0,6,52,1.0,0.0
1016,65.0,15,13,0.0,0.0
1017,67.0,9,13,0.0,0.0
1018,69.0,28,13,0.0,0.0
1019,38.0,34,52,1.0,0.0
1020,70.0,26,26,0.0,0.0
1021,62.0,26,56,0.0,0.0
1022,40.0,4,52,1.0,0.0
1023,61.0,30,26,0.0,0.0
1024,69.0,26,26,0.0,0.0
1025,52.0,34,52,1.0,0.0
1026,60.0,26,56,0.0,0.0
1027,51.0,4,52,1.0,0.0
1028,59.0,30,26,0.0,0.0
1029,50.0,34,52,1.0,0.0
1030,68.0,26,26,0.0,0.0
1031,59.0,26,56,0.0,0.0
1032,49.0,4,52,1.0,0.0
1033,57.0,30,26,0.0,0.0
1034,65.0,26,26,0.0,0.0
1035,48.0,34,52,1.0,0.0
1036,57.0,17,56,0.0,0.0
1037,47.0,6,52,1.0,0.0
1038,56.0,9,13,0.0,0.0
1039,54.0,28,13,0.0,0.0
1040,47.0,21,52,1.0,0.0
1041,56.0,26,26,0.0,0.0
1042,62.0,15,43,0.0,0.0
1043,45.0,6,52,1.0,0.0
1044,60.0,15,13,0.0,0.0
1045,59.0,9,13,0.0,0.0
1046,57.0,28,13,0.0,0.0
1047,45.0,21,52,1.0,0.0
1048,59.0,26,26,0.0,0.0
1049,65.0,15,43,0.0,0.0
1050,44.0,6,52,1.0,0.0
1051,64.0,15,13,0.0,0.0
1052,62.0,9,13,0.0,0.0
1053,61.0,28,13,0.0,0.0
1054,62.0,26,26,0.0,0.0
1055,44.0,21,52,1.0,0.0
1056,71.0,15,43,0.0,0.0
1057,40.0,6,52,1.0,0.0
1058,69.0,15,13,0.0,0.0
1059,68.0,9,13,0.0,0.0
1060,66.0,28,13,0.0,0.0
1061,40.0,34,52,1.0,0.0
1062,68.0,26,26,0.0,0.0
1063,74.0,17,56,0.0,0.0
1064,45.0,13,73,1.0,0.0
1065,72.0,15,13,0.0,0.0
1066,71.0,15,13,0.0,0.0
1067,72.0,2,26,0.0,0.0
1068,50.0,15,13,1.0,0.0
1069,52.0,13,13,1.0,0.0
1070,69.0,2,26,0.0,0.0
1071,54.0,28,13,1.0,0.0
1072,70.0,4,52,0.0,0.0
1073,55.0,26,26,1.0,0.0
1074,51.0,30,26,1.0,0.0
1075,71.0,4,52,0.0,0.0
1076,50.0,26,26,1.0,0.0
1077,56.0,30,26,1.0,0.0
1078,72.0,4,52,0.0,0.0
1079,57.0,26,26,1.0,0.0
1080,53.0,30,26,1.0,0.0
1081,52.0,26,26,1.0,0.0
1082,73.0,34,52,0.0,0.0
1083,58.0,26,56,1.0,0.0
1084,74.0,30,52,0.0,0.0
1085,57.0,34,52,1.0,0.0
1086,76.0,0,73,0.0,0.0
1087,55.0,17,26,1.0,0.0
1088,53.0,15,13,1.0,0.0
1089,73.0,0,13,0.0,0.0
1090,52.0,15,13,1.0,0.0
1091,53.0,0,13,1.0,0.0
1092,74.0,15,13,0.0,0.0
1093,55.0,0,13,1.0,0.0
1094,76.0,28,13,0.0,0.0
1095,77.0,26,26,0.0,0.0
1096,57.0,4,52,1.0,0.0
1097,72.0,30,26,0.0,0.0
1098,71.0,26,26,0.0,0.0
1099,56.0,4,52,1.0,0.0
1100,75.0,30,26,0.0,0.0
1101,76.0,26,26,0.0,0.0
1102,55.0,4,52,1.0,0.0
1103,70.0,30,26,0.0,0.0
1104,69.0,26,26,0.0,0.0
1105,54.0,4,52,1.0,0.0
1106,73.0,30,26,0.0,0.0
1107,74.0,26,26,0.0,0.0
1108,53.0,34,52,1.0,0.0
1109,68.0,26,56,0.0,0.0
1110,52.0,30,52,1.0,0.0
1111,69.0,34,52,0.0,0.0
1112,50.0,17,86,1.0,0.0
1113,71.0,30,26,0.0,0.0
1114,64.0,0,26,0.0,0.0
1115,48.0,15,13,1.0,0.0
1116,76.0,17,39,0.0,0.0
1117,47.0,11,13,1.0,0.0
1118,48.0,2,26,1.0,0.0
1119,74.0,15,13,0.0,0.0
1120,45.0,2,26,1.0,0.0
1121,72.0,13,13,0.0,0.0
1122,71.0,15,13,0.0,0.0
1123,74.0,15,13,0.0,0.0
1124,52.0,6,52,1.0,0.0
1125,72.0,15,13,0.0,0.0
1126,71.0,9,13,0.0,0.0
1127,69.0,15,13,0.0,0.0
1128,40.0,6,52,1.0,0.0
1129,72.0,15,13,0.0,0.0
1130,71.0,15,13,0.0,0.0
1131,69.0,9,13,0.0,0.0
1132,68.0,28,13,0.0,0.0
1133,69.0,7,225,0.0,0.0
1134,45.0,17,26,1.0,0.0
1135,47.0,15,13,1.0,0.0
1136,48.0,15,13,1.0,0.0
1137,50.0,15,13,1.0,0.0
1138,52.0,15,13,1.0,0.0
1139,54.0,15,13,1.0,0.0
1140,56.0,54,13,1.0,0.0
1141,57.0,53,52,1.0,0.0
1142,45.0,36,52,1.0,0.0
1143,76.0,6,52,0.0,0.0
1144,60.0,15,13,1.0,0.0
1145,59.0,9,13,1.0,0.0
1146,57.0,28,13,1.0,0.0
1147,56.0,26,26,1.0,0.0
1148,64.0,4,52,0.0,0.0
1149,61.0,30,26,1.0,0.0
1150,65.0,4,52,0.0,0.0
1151,62.0,26,26,1.0,0.0
1152,58.0,30,26,1.0,0.0
1153,57.0,26,26,1.0,0.0
1154,66.0,4,52,0.0,0.0
1155,63.0,30,26,1.0,0.0
1156,67.0,4,52,0.0,0.0
1157,64.0,26,26,1.0,0.0
1158,60.0,30,26,1.0,0.0
1159,59.0,26,26,1.0,0.0
1160,68.0,34,52,0.0,0.0
1161,65.0,26,56,1.0,0.0
1162,69.0,30,52,0.0,0.0
1163,64.0,30,52,1.0,0.0
1164,71.0,4,52,0.0,0.0
1165,62.0,17,26,1.0,0.0
1166,69.0,6,52,1.0,0.0
1167,72.0,15,13,0.0,0.0
1168,77.0,15,13,0.0,0.0
1169,76.0,9,13,0.0,0.0
1170,74.0,28,13,0.0,0.0
1171,73.0,26,26,0.0,0.0
1172,57.0,4,52,1.0,0.0
1173,78.0,30,26,0.0,0.0
1174,79.0,26,26,0.0,0.0
1175,58.0,4,52,1.0,0.0
1176,75.0,30,26,0.0,0.0
1177,74.0,26,26,0.0,0.0
1178,59.0,4,52,1.0,0.0
1179,80.0,30,26,0.0,0.0
1180,60.0,4,52,1.0,0.0
1181,81.0,26,26,0.0,0.0
1182,77.0,30,26,0.0,0.0
1183,61.0,34,52,1.0,0.0
1184,76.0,26,26,0.0,0.0
1185,82.0,26,56,0.0,0.0
1186,62.0,30,52,1.0,0.0
1187,81.0,30,52,0.0,0.0
1188,64.0,4,52,1.0,0.0
1189,80.0,17,26,0.0,0.0
1190,65.0,6,52,1.0,0.0
1191,81.0,15,13,0.0,0.0
1192,79.0,15,13,0.0,0.0
1193,77.0,9,13,0.0,0.0
1194,76.0,28,13,0.0,0.0
1195,77.0,26,26,0.0,0.0
1196,62.0,4,52,1.0,0.0
1197,70.0,30,26,0.0,0.0
1198,60.0,4,52,1.0,0.0
1199,69.0,26,26,0.0,0.0
1200,76.0,30,26,0.0,0.0
1201,59.0,21,52,1.0,0.0
1202,74.0,26,26,0.0,0.0
1203,68.0,15,43,0.0,0.0
1204,57.0,6,52,1.0,0.0
1205,74.0,15,13,0.0,0.0
1206,72.0,9,13,0.0,0.0
1207,71.0,28,13,0.0,0.0
1208,69.0,26,26,0.0,0.0
1209,60.0,4,52,1.0,0.0
1210,76.0,30,26,0.0,0.0
1211,59.0,4,52,1.0,0.0
1212,74.0,26,26,0.0,0.0
1213,67.0,30,26,0.0,0.0
1214,66.0,26,26,0.0,0.0
1215,57.0,4,52,1.0,0.0
1216,72.0,17,26,0.0,0.0
1217,55.0,15,13,1.0,0.0
1218,71.0,6,52,0.0,0.0
1219,59.0,15,13,1.0,0.0
1220,60.0,9,13,1.0,0.0
1221,62.0,28,13,1.0,0.0
1222,64.0,26,26,1.0,0.0
1223,79.0,4,52,0.0,0.0
1224,58.0,30,26,1.0,0.0
1225,57.0,26,26,1.0,0.0
1226,77.0,4,52,0.0,0.0
1227,62.0,30,26,1.0,0.0
1228,61.0,26,26,1.0,0.0
1229,76.0,21,52,0.0,0.0
1230,55.0,15,43,1.0,0.0
1231,74.0,6,52,0.0,0.0
1232,67.0,15,13,1.0,0.0
1233,65.0,9,13,1.0,0.0
1234,64.0,28,13,1.0,0.0
1235,62.0,26,26,1.0,0.0
1236,77.0,4,52,0.0,0.0
1237,68.0,30,26,1.0,0.0
1238,76.0,4,52,0.0,0.0
1239,69.0,26,26,1.0,0.0
1240,60.0,30,26,1.0,0.0
1241,74.0,6,112,0.0,0.0
1242,59.0,30,26,1.0,0.0
1243,65.0,17,26,1.0,0.0
1244,64.0,15,13,1.0,0.0
1245,62.0,15,13,1.0,0.0
1246,60.0,9,13,1.0,0.0
1247,59.0,28,13,1.0,0.0
1248,72.0,0,26,0.0,0.0
1249,57.0,30,26,1.0,0.0
1250,56.0,0,26,1.0,0.0
1251,71.0,30,26,0.0,0.0
1252,57.0,26,26,1.0,0.0
1253,72.0,4,52,0.0,0.0
1254,53.0,30,26,1.0,0.0
1255,52.0,26,26,1.0,0.0
1256,73.0,4,52,0.0,0.0
1257,58.0,30,26,1.0,0.0
1258,74.0,4,52,0.0,0.0
1259,59.0,26,26,1.0,0.0
1260,55.0,30,26,1.0,0.0
1261,54.0,26,26,1.0,0.0
1262,75.0,34,52,0.0,0.0
1263,60.0,26,56,1.0,0.0
1264,76.0,30,52,0.0,0.0
1265,59.0,30,52,1.0,0.0
1266,78.0,4,52,0.0,0.0
1267,57.0,17,26,1.0,0.0
1268,64.0,6,52,1.0,0.0
1269,79.0,15,13,0.0,0.0
1270,77.0,15,13,0.0,0.0
1271,76.0,9,13,0.0,0.0
1272,74.0,28,13,0.0,0.0
1273,73.0,26,26,0.0,0.0
1274,52.0,4,52,1.0,0.0
1275,80.0,30,26,0.0,0.0
1276,81.0,26,26,0.0,0.0
1277,53.0,4,52,1.0,0.0
1278,75.0,30,26,0.0,0.0
1279,74.0,26,26,0.0,0.0
1280,54.0,4,52,1.0,0.0
1281,82.0,30,26,0.0,0.0
1282,83.0,26,26,0.0,0.0
1283,55.0,4,52,1.0,0.0
1284,77.0,30,26,0.0,0.0
1285,56.0,34,52,1.0,0.0
1286,76.0,26,26,0.0,0.0
1287,74.0,26,56,0.0,0.0
1288,57.0,30,52,1.0,0.0
1289,72.0,30,52,0.0,0.0
1290,59.0,34,52,1.0,0.0
1291,71.0,17,56,0.0,0.0
1292,60.0,6,52,1.0,0.0
1293,69.0,9,13,0.0,0.0
1294,71.0,28,13,0.0,0.0
1295,57.0,4,52,1.0,0.0
1296,72.0,26,26,0.0,0.0
1297,63.0,30,26,0.0,0.0
1298,55.0,4,52,1.0,0.0
1299,64.0,26,26,0.0,0.0
1300,73.0,30,26,0.0,0.0
1301,74.0,26,26,0.0,0.0
1302,53.0,4,52,1.0,0.0
1303,65.0,17,26,0.0,0.0
1304,67.0,6,52,0.0,0.0
1305,52.0,15,13,1.0,0.0
1306,53.0,15,13,1.0,0.0
1307,55.0,9,13,1.0,0.0
1308,57.0,28,13,1.0,0.0
1309,58.0,26,26,1.0,0.0
1310,74.0,4,52,0.0,0.0
1311,53.0,30,26,1.0,0.0
1312,52.0,26,26,1.0,0.0
1313,73.0,4,52,0.0,0.0
1314,57.0,30,26,1.0,0.0
1315,55.0,30,26,1.0,0.0
1316,70.0,15,73,0.0,0.0
1317,50.0,17,26,1.0,0.0
1318,49.0,6,52,1.0,0.0
1319,69.0,15,13,0.0,0.0
1320,67.0,9,13,0.0,0.0
1321,69.0,28,13,0.0,0.0
1322,55.0,4,52,1.0,0.0
1323,70.0,26,26,0.0,0.0
1324,61.0,30,26,0.0,0.0
1325,53.0,4,52,1.0,0.0
1326,62.0,26,26,0.0,0.0
1327,71.0,30,26,0.0,0.0
1328,51.0,4,52,1.0,0.0
1329,72.0,26,26,0.0,0.0
1330,63.0,17,26,0.0,0.0
1331,65.0,6,52,0.0,0.0
1332,50.0,15,13,1.0,0.0
1333,51.0,15,13,1.0,0.0
1334,53.0,9,13,1.0,0.0
1335,55.0,28,13,1.0,0.0
1336,56.0,26,26,1.0,0.0
1337,72.0,4,52,0.0,0.0
1338,51.0,30,26,1.0,0.0
1339,71.0,4,52,0.0,0.0
1340,50.0,26,26,1.0,0.0
1341,55.0,30,26,1.0,0.0
1342,53.0,30,26,1.0,0.0
1343,68.0,15,73,0.0,0.0
1344,48.0,17,26,1.0,0.0
1345,47.0,6,52,1.0,0.0
1346,67.0,15,13,0.0,0.0
1347,69.0,9,13,0.0,0.0
1348,71.0,28,13,0.0,0.0
1349,72.0,26,26,0.0,0.0
1350,52.0,4,52,1.0,0.0
1351,67.0,30,26,0.0,0.0
1352,66.0,26,26,0.0,0.0
1353,51.0,4,52,1.0,0.0
1354,70.0,30,26,0.0,0.0
1355,71.0,26,26,0.0,0.0
1356,50.0,4,52,1.0,0.0
1357,65.0,30,26,0.0,0.0
1358,49.0,4,52,1.0,0.0
1359,64.0,26,26,0.0,0.0
1360,68.0,30,26,0.0,0.0
1361,48.0,34,52,1.0,0.0
1362,69.0,26,26,0.0,0.0
1363,63.0,26,56,0.0,0.0
1364,47.0,30,52,1.0,0.0
1365,64.0,34,52,0.0,0.0
1366,45.0,15,73,1.0,0.0
1367,65.0,17,26,0.0,0.0
1368,59.0,6,52,0.0,0.0
1369,48.0,15,13,1.0,0.0
1370,47.0,9,13,1.0,0.0
1371,45.0,28,13,1.0,0.0
1372,44.0,26,26,1.0,0.0
1373,76.0,4,52,0.0,0.0
1374,49.0,30,26,1.0,0.0
1375,50.0,26,26,1.0,0.0
1376,77.0,4,52,0.0,0.0
1377,46.0,30,26,1.0,0.0
1378,78.0,4,52,0.0,0.0
1379,45.0,26,26,1.0,0.0
1380,51.0,30,26,1.0,0.0
1381,79.0,4,52,0.0,0.0
1382,52.0,26,26,1.0,0.0
1383,48.0,30,26,1.0,0.0
1384,47.0,26,26,1.0,0.0
1385,80.0,34,52,0.0,0.0
1386,53.0,26,56,1.0,0.0
1387,81.0,30,52,0.0,0.0
1388,52.0,34,52,1.0,0.0
1389,83.0,17,86,0.0,0.0
1390,50.0,30,26,1.0,0.0
1391,48.0,6,52,1.0,0.0
1392,81.0,9,13,0.0,0.0
1393,83.0,28,13,0.0,0.0
1394,52.0,34,52,1.0,0.0
1395,84.0,26,26,0.0,0.0
1396,76.0,26,56,0.0,0.0
1397,54.0,4,52,1.0,0.0
1398,75.0,30,26,0.0,0.0
1399,83.0,26,26,0.0,0.0
1400,56.0,21,52,1.0,0.0
1401,74.0,15,43,0.0,0.0
1402,57.0,6,52,1.0,0.0
1403,72.0,15,13,0.0,0.0
1404,74.0,9,13,0.0,0.0
1405,76.0,28,13,0.0,0.0
1406,77.0,26,26,0.0,0.0
1407,45.0,34,52,1.0,0.0
1408,69.0,26,56,0.0,0.0
1409,47.0,4,52,1.0,0.0
1410,68.0,30,26,0.0,0.0
1411,49.0,21,52,1.0,0.0
1412,76.0,26,26,0.0,0.0
1413,67.0,15,43,0.0,0.0
1414,50.0,6,52,1.0,0.0
1415,65.0,15,13,0.0,0.0
1416,67.0,9,13,0.0,0.0
1417,69.0,28,13,0.0,0.0
1418,38.0,34,52,1.0,0.0
1419,70.0,26,26,0.0,0.0
1420,62.0,26,56,0.0,0.0
1421,40.0,4,52,1.0,0.0
1422,61.0,30,26,0.0,0.0
1423,52.0,34,52,1.0,0.0
1424,69.0,26,26,0.0,0.0
1425,60.0,26,56,0.0,0.0
1426,51.0,4,52,1.0,0.0
1427,59.0,30,26,0.0,0.0
1428,50.0,34,52,1.0,0.0
1429,68.0,26,26,0.0,0.0
1430,59.0,26,56,0.0,0.0
1431,49.0,4,52,1.0,0.0
1432,57.0,30,26,0.0,0.0
1433,65.0,26,26,0.0,0.0
1434,48.0,34,52,1.0,0.0
1435,57.0,17,56,0.0,0.0
1436,47.0,6,52,1.0,0.0
1437,56.0,9,13,0.0,0.0
1438,54.0,28,13,0.0,0.0
1439,56.0,26,26,0.0,0.0
1440,47.0,21,52,1.0,0.0
1441,62.0,15,43,0.0,0.0
1442,45.0,6,52,1.0,0.0
1443,60.0,15,13,0.0,0.0
1444,59.0,9,13,0.0,0.0
1445,57.0,28,13,0.0,0.0
1446,59.0,26,26,0.0,0.0
1447,45.0,21,52,1.0,0.0
1448,65.0,15,43,0.0,0.0
1449,44.0,6,52,1.0,0.0
1450,64.0,15,13,0.0,0.0
1451,62.0,9,13,0.0,0.0
1452,61.0,28,13,0.0,0.0
1453,62.0,26,26,0.0,0.0
1454,44.0,21,52,1.0,0.0
1455,71.0,15,43,0.0,0.0
1456,40.0,6,52,1.0,0.0
1457,69.0,15,13,0.0,0.0
1458,68.0,9,13,0.0,0.0
1459,66.0,28,13,0.0,0.0
1460,68.0,26,26,0.0,0.0
1461,40.0,34,52,1.0,0.0
1462,74.0,17,56,0.0,0.0
1463,45.0,13,73,1.0,0.0
1464,72.0,15,13,0.0,0.0
1465,71.0,15,13,0.0,0.0
1466,72.0,2,26,0.0,0.0
1467,50.0,15,13,1.0,0.0
1468,52.0,13,13,1.0,0.0
1469,69.0,2,26,0.0,0.0
1470,54.0,28,13,1.0,0.0
1471,55.0,26,26,1.0,0.0
1472,70.0,4,52,0.0,0.0
1473,51.0,30,26,1.0,0.0
1474,50.0,26,26,1.0,0.0
1475,71.0,4,52,0.0,0.0
1476,56.0,30,26,1.0,0.0
1477,72.0,4,52,0.0,0.0
1478,57.0,26,26,1.0,0.0
1479,53.0,30,26,1.0,0.0
1480,52.0,26,26,1.0,0.0
1481,73.0,34,52,0.0,0.0
1482,58.0,26,56,1.0,0.0
1483,74.0,30,52,0.0,0.0
1484,57.0,34,52,1.0,0.0
1485,76.0,15,73,0.0,0.0
1486,55.0,17,26,1.0,0.0
1487,53.0,0,13,1.0,0.0
1488,52.0,15,13,1.0,0.0
1489,73.0,0,13,0.0,0.0
1490,74.0,0,13,0.0,0.0
1491,53.0,15,13,1.0,0.0
1492,76.0,0,13,0.0,0.0
1493,55.0,28,13,1.0,0.0
1494,77.0,26,26,0.0,0.0
1495,57.0,4,52,1.0,0.0
1496,72.0,30,26,0.0,0.0
1497,71.0,26,26,0.0,0.0
1498,56.0,4,52,1.0,0.0
1499,75.0,30,26,0.0,0.0
1500,55.0,4,52,1.0,0.0
1501,76.0,26,26,0.0,0.0
1502,70.0,30,26,0.0,0.0
1503,69.0,26,26,0.0,0.0
1504,54.0,4,52,1.0,0.0
1505,73.0,30,26,0.0,0.0
1506,74.0,26,26,0.0,0.0
1507,53.0,34,52,1.0,0.0
1508,68.0,26,56,0.0,0.0
1509,52.0,30,52,1.0,0.0
1510,69.0,34,52,0.0,0.0
1511,50.0,17,86,1.0,0.0
1512,71.0,30,26,0.0,0.0
1513,64.0,0,26,0.0,0.0
1514,76.0,17,39,0.0,0.0
1515,48.0,15,13,1.0,0.0
1516,47.0,11,13,1.0,0.0
1517,48.0,2,26,1.0,0.0
1518,74.0,15,13,0.0,0.0
1519,45.0,2,26,1.0,0.0
1520,72.0,13,13,0.0,0.0
1521,71.0,15,13,0.0,0.0
1522,52.0,6,52,1.0,0.0
1523,74.0,15,13,0.0,0.0
1524,72.0,15,13,0.0,0.0
1525,71.0,9,13,0.0,0.0
1526,69.0,15,13,0.0,0.0
1527,40.0,6,52,1.0,0.0
1528,72.0,15,13,0.0,0.0
1529,71.0,15,13,0.0,0.0
1530,69.0,9,13,0.0,0.0
1531,68.0,28,13,0.0,0.0
1532,45.0,17,26,1.0,0.0
1533,69.0,7,225,0.0,0.0
1534,47.0,15,13,1.0,0.0
1535,48.0,15,13,1.0,0.0
1536,50.0,15,13,1.0,0.0
1537,52.0,15,13,1.0,0.0
1538,54.0,15,13,1.0,0.0
1539,56.0,54,13,1.0,0.0
1540,57.0,53,52,1.0,0.0
1541,45.0,60,52,1.0,0.0
