,note,step,duration,channel,velocity
0,72.0,0,70,0.0,60.0
1,57.0,0,94,1.0,60.0
2,60.0,0,94,1.0,60.0
3,74.0,72,22,0.0,60.0
4,65.0,0,94,0.0,60.0
5,72.0,0,94,0.0,60.0
6,60.0,0,160,1.0,60.0
7,52.0,24,160,1.0,60.0
8,67.0,0,160,0.0,60.0
9,70.0,96,94,0.0,60.0
10,69.0,0,70,0.0,60.0
11,70.0,72,22,0.0,60.0
12,57.0,96,94,1.0,60.0
13,60.0,0,94,0.0,60.0
14,53.0,0,94,1.0,60.0
15,69.0,0,94,0.0,60.0
16,57.0,24,160,1.0,60.0
17,64.0,0,160,0.0,60.0
18,49.0,0,160,1.0,60.0
19,67.0,96,94,0.0,60.0
20,50.0,0,70,1.0,60.0
21,57.0,96,70,1.0,60.0
22,65.0,0,72,0.0,60.0
23,62.0,0,72,0.0,60.0
24,48.0,72,22,1.0,60.0
25,57.0,0,22,1.0,60.0
26,66.0,0,24,0.0,60.0
27,62.0,0,24,0.0,60.0
28,67.0,24,96,0.0,60.0
29,58.0,0,0,1.0,55.0
30,46.0,0,0,1.0,55.0
31,62.0,96,0,0.0,60.0
32,67.0,0,72,0.0,60.0
33,57.0,0,22,1.0,52.0
34,45.0,0,22,1.0,52.0
35,60.0,0,24,0.0,60.0
36,66.0,0,24,0.0,60.0
37,69.0,72,24,0.0,60.0
38,72.0,24,24,0.0,60.0
39,55.0,0,70,1.0,51.0
40,43.0,0,70,1.0,51.0
41,62.0,0,48,0.0,60.0
42,67.0,24,48,0.0,60.0
43,70.0,0,48,0.0,60.0
44,46.0,48,22,1.0,47.0
45,58.0,0,22,1.0,47.0
46,62.0,0,24,0.0,60.0
47,67.0,0,24,0.0,60.0
48,48.0,24,94,1.0,45.0
49,57.0,0,96,0.0,60.0
50,60.0,0,96,0.0,60.0
51,65.0,0,96,0.0,60.0
52,36.0,0,46,1.0,45.0
53,60.0,0,46,0.0,60.0
54,64.0,0,46,0.0,60.0
55,55.0,96,46,0.0,60.0
56,72.0,96,70,0.0,60.0
57,57.0,0,94,1.0,45.0
58,60.0,0,94,1.0,45.0
59,74.0,72,22,0.0,60.0
60,65.0,0,94,0.0,60.0
61,72.0,24,94,0.0,60.0
62,52.0,0,160,1.0,45.0
63,60.0,0,160,1.0,45.0
64,67.0,0,160,0.0,60.0
65,70.0,96,94,0.0,60.0
66,69.0,0,70,0.0,60.0
67,70.0,72,22,0.0,60.0
68,60.0,0,94,0.0,60.0
69,57.0,96,94,1.0,45.0
70,53.0,0,94,1.0,45.0
71,69.0,24,94,0.0,60.0
72,67.0,96,46,0.0,60.0
73,64.0,0,160,0.0,60.0
74,57.0,0,160,1.0,45.0
75,49.0,0,160,1.0,45.0
76,67.0,48,46,0.0,60.0
77,57.0,0,70,0.0,60.0
78,50.0,48,70,1.0,50.0
79,62.0,0,70,0.0,60.0
80,65.0,0,70,0.0,60.0
81,58.0,72,22,0.0,60.0
82,46.0,0,22,1.0,51.0
83,67.0,0,22,0.0,60.0
84,62.0,0,22,0.0,60.0
85,48.0,0,94,1.0,51.0
86,36.0,96,32,1.0,54.0
87,65.0,0,160,0.0,84.0
88,69.0,24,160,0.0,84.0
89,60.0,0,160,0.0,84.0
90,36.0,0,32,1.0,57.0
91,70.0,0,70,0.0,60.0
92,58.0,96,94,0.0,60.0
93,64.0,0,94,0.0,60.0
94,67.0,72,22,0.0,60.0
95,41.0,0,32,1.0,60.0
96,65.0,0,94,0.0,60.0
97,57.0,24,94,0.0,60.0
98,29.0,96,32,1.0,60.0
99,57.0,0,46,1.0,60.0
100,53.0,96,46,1.0,60.0
101,72.0,0,70,0.0,60.0
102,60.0,48,46,1.0,60.0
103,69.0,24,22,0.0,60.0
104,55.0,24,46,1.0,60.0
105,58.0,0,46,1.0,60.0
106,70.0,0,94,0.0,60.0
107,60.0,48,46,1.0,60.0
108,67.0,0,32,0.0,60.0
109,48.0,48,46,1.0,60.0
110,60.0,48,32,1.0,60.0
111,58.0,48,46,1.0,60.0
112,64.0,0,46,1.0,60.0
113,79.0,0,70,0.0,60.0
114,76.0,24,22,0.0,60.0
115,60.0,48,46,1.0,60.0
116,57.0,0,46,1.0,60.0
117,65.0,0,46,1.0,60.0
118,60.0,48,32,1.0,60.0
119,77.0,24,94,0.0,60.0
120,72.0,0,32,0.0,60.0
121,60.0,48,32,1.0,60.0
122,60.0,48,32,1.0,60.0
123,72.0,0,22,0.0,60.0
124,53.0,0,46,1.0,60.0
125,57.0,48,46,1.0,60.0
126,69.0,24,22,0.0,60.0
127,72.0,0,22,0.0,60.0
128,60.0,24,46,1.0,60.0
129,69.0,24,22,0.0,60.0
130,58.0,0,46,1.0,60.0
131,55.0,0,46,1.0,60.0
132,70.0,24,94,0.0,60.0
133,60.0,48,46,1.0,60.0
134,67.0,0,32,0.0,60.0
135,48.0,48,46,1.0,60.0
136,60.0,48,46,1.0,60.0
137,79.0,0,22,0.0,60.0
138,64.0,48,46,1.0,60.0
139,58.0,0,46,1.0,60.0
140,76.0,24,22,0.0,60.0
141,79.0,0,22,0.0,60.0
142,60.0,24,46,1.0,60.0
143,76.0,24,22,0.0,60.0
144,57.0,0,46,1.0,60.0
145,77.0,24,94,0.0,60.0
146,60.0,48,46,1.0,60.0
147,72.0,48,32,0.0,60.0
148,65.0,0,142,1.0,60.0
149,60.0,0,46,1.0,60.0
150,79.0,48,22,0.0,60.0
151,67.0,0,46,1.0,60.0
152,58.0,0,46,1.0,60.0
153,76.0,24,22,0.0,60.0
154,60.0,0,46,1.0,60.0
155,77.0,0,46,0.0,60.0
156,65.0,24,46,1.0,60.0
157,60.0,0,46,1.0,60.0
158,57.0,0,46,1.0,60.0
159,79.0,0,22,0.0,60.0
160,76.0,24,22,0.0,60.0
161,60.0,0,46,1.0,60.0
162,67.0,48,46,1.0,60.0
163,58.0,0,46,1.0,60.0
164,57.0,24,46,1.0,60.0
165,77.0,0,94,0.0,60.0
166,60.0,48,46,1.0,60.0
167,72.0,0,32,0.0,60.0
168,60.0,48,46,1.0,60.0
169,65.0,0,142,1.0,60.0
170,79.0,0,22,0.0,60.0
171,58.0,48,46,1.0,60.0
172,60.0,0,46,1.0,60.0
173,67.0,0,46,1.0,60.0
174,76.0,24,22,0.0,60.0
175,77.0,0,46,0.0,60.0
176,60.0,0,46,1.0,60.0
177,57.0,24,46,1.0,60.0
178,65.0,0,46,1.0,60.0
179,79.0,48,22,0.0,60.0
180,67.0,0,46,1.0,60.0
181,60.0,0,46,1.0,60.0
182,58.0,0,46,1.0,60.0
183,76.0,24,22,0.0,60.0
184,60.0,24,46,1.0,60.0
185,57.0,0,46,1.0,60.0
186,65.0,0,46,1.0,60.0
187,77.0,0,46,0.0,60.0
188,79.0,48,22,0.0,60.0
189,60.0,0,46,1.0,60.0
190,76.0,24,22,0.0,60.0
191,58.0,0,46,1.0,60.0
192,67.0,0,46,1.0,60.0
193,57.0,24,46,1.0,60.0
194,65.0,0,46,1.0,60.0
195,77.0,0,46,0.0,60.0
196,60.0,0,46,1.0,60.0
197,79.0,0,22,0.0,60.0
198,58.0,0,46,1.0,60.0
199,60.0,0,46,1.0,60.0
200,67.0,48,46,1.0,60.0
201,76.0,24,22,0.0,60.0
202,65.0,0,46,1.0,60.0
203,60.0,0,46,1.0,60.0
204,77.0,0,46,0.0,60.0
205,57.0,24,46,1.0,60.0
206,79.0,48,22,0.0,60.0
207,67.0,0,46,1.0,60.0
208,60.0,0,46,1.0,60.0
209,58.0,0,46,1.0,60.0
210,76.0,24,22,0.0,60.0
211,77.0,24,46,0.0,60.0
212,79.0,48,22,0.0,60.0
213,76.0,24,22,0.0,60.0
214,60.0,0,94,1.0,60.0
215,57.0,0,94,1.0,60.0
216,65.0,0,94,1.0,60.0
217,77.0,24,46,0.0,60.0
218,79.0,48,22,0.0,60.0
219,76.0,24,22,0.0,60.0
220,77.0,24,46,0.0,60.0
221,79.0,48,22,0.0,60.0
222,76.0,24,22,0.0,60.0
223,77.0,24,32,0.0,60.0
224,77.0,96,32,0.0,60.0
225,77.0,96,32,0.0,60.0
226,37.0,0,32,1.0,30.0
227,37.0,96,32,1.0,30.0
228,73.0,96,160,0.0,45.0
229,77.0,0,160,0.0,45.0
230,37.0,0,32,1.0,30.0
231,68.0,0,94,0.0,45.0
232,75.0,96,94,0.0,45.0
233,37.0,96,32,1.0,30.0
234,73.0,96,0,0.0,45.0
235,65.0,0,0,0.0,45.0
236,37.0,0,32,1.0,30.0
237,68.0,72,22,0.0,45.0
238,75.0,0,22,0.0,45.0
239,37.0,24,32,1.0,30.0
240,65.0,0,70,0.0,45.0
241,73.0,0,70,0.0,45.0
242,68.0,72,22,0.0,45.0
243,75.0,0,22,0.0,45.0
244,37.0,0,32,1.0,30.0
245,77.0,24,32,0.0,45.0
246,73.0,0,32,0.0,45.0
247,73.0,0,32,0.0,45.0
248,77.0,96,32,0.0,45.0
249,37.0,0,32,1.0,30.0
250,37.0,96,32,1.0,30.0
251,75.0,0,32,0.0,45.0
252,68.0,0,32,0.0,45.0
253,37.0,96,94,1.0,30.0
254,73.0,0,160,0.0,45.0
255,65.0,0,160,0.0,45.0
256,37.0,96,94,1.0,30.0
257,49.0,0,70,1.0,30.0
258,61.0,96,70,0.0,45.0
259,37.0,0,94,1.0,30.0
260,60.0,0,22,0.0,45.0
261,48.0,72,22,1.0,30.0
262,60.0,0,24,0.0,45.0
263,37.0,24,32,1.0,30.0
264,47.0,0,32,1.0,30.0
265,59.0,0,48,0.0,45.0
266,53.0,24,48,0.0,45.0
267,53.0,0,32,0.0,60.0
268,59.0,72,32,0.0,60.0
269,37.0,0,32,1.0,50.0
270,47.0,0,32,1.0,50.0
271,37.0,0,32,1.0,71.0
272,47.0,0,32,1.0,71.0
273,53.0,96,32,0.0,76.0
274,59.0,0,32,0.0,76.0
275,36.0,96,94,1.0,92.0
276,53.0,0,94,0.0,92.0
277,60.0,0,94,0.0,92.0
278,48.0,96,160,1.0,92.0
279,72.0,0,70,0.0,45.0
280,65.0,0,94,0.0,45.0
281,74.0,72,22,0.0,45.0
282,45.0,96,94,1.0,45.0
283,72.0,0,94,0.0,45.0
284,67.0,24,160,0.0,45.0
285,40.0,0,160,1.0,45.0
286,48.0,0,160,1.0,45.0
287,70.0,96,94,0.0,45.0
288,69.0,0,70,0.0,45.0
289,48.0,0,94,1.0,45.0
290,65.0,96,94,0.0,45.0
291,70.0,72,22,0.0,45.0
292,41.0,0,94,1.0,45.0
293,65.0,0,94,0.0,45.0
294,48.0,24,94,1.0,45.0
295,69.0,0,94,0.0,45.0
296,36.0,0,94,1.0,45.0
297,49.0,0,94,1.0,45.0
298,64.0,0,94,0.0,45.0
299,67.0,0,94,0.0,45.0
300,58.0,96,94,0.0,45.0
301,37.0,0,94,1.0,45.0
302,62.0,96,70,0.0,45.0
303,65.0,0,70,0.0,45.0
304,38.0,0,70,1.0,45.0
305,57.0,0,70,0.0,45.0
306,50.0,0,70,1.0,45.0
307,48.0,0,22,1.0,45.0
308,36.0,0,22,1.0,45.0
309,57.0,72,22,0.0,45.0
310,62.0,0,22,0.0,45.0
311,66.0,0,22,0.0,45.0
312,67.0,0,94,0.0,45.0
313,62.0,24,94,0.0,45.0
314,46.0,0,96,1.0,45.0
315,34.0,0,0,1.0,45.0
316,62.0,96,70,0.0,45.0
317,46.0,0,70,1.0,45.0
318,67.0,0,70,0.0,45.0
319,60.0,0,22,0.0,45.0
320,66.0,0,22,0.0,45.0
321,69.0,0,22,0.0,45.0
322,45.0,0,22,1.0,45.0
323,33.0,72,22,1.0,45.0
324,72.0,24,22,0.0,45.0
325,43.0,0,70,1.0,45.0
326,31.0,0,70,1.0,45.0
327,67.0,0,46,0.0,45.0
328,70.0,0,46,0.0,45.0
329,62.0,24,46,0.0,45.0
330,67.0,0,22,0.0,45.0
331,62.0,0,22,0.0,45.0
332,58.0,48,22,0.0,45.0
333,46.0,0,22,1.0,45.0
334,34.0,0,22,1.0,45.0
335,48.0,0,32,1.0,45.0
336,36.0,0,32,1.0,45.0
337,57.0,0,94,0.0,45.0
338,60.0,24,94,0.0,45.0
339,65.0,0,94,0.0,45.0
340,36.0,0,32,1.0,45.0
341,55.0,0,46,0.0,45.0
342,60.0,0,46,0.0,45.0
343,64.0,96,46,0.0,45.0
344,72.0,96,22,0.0,45.0
345,74.0,0,24,0.0,45.0
346,71.0,24,22,0.0,45.0
347,72.0,24,22,0.0,45.0
348,45.0,0,94,1.0,45.0
349,57.0,0,94,1.0,45.0
350,74.0,24,22,0.0,45.0
351,65.0,0,70,0.0,45.0
352,48.0,0,94,1.0,45.0
353,72.0,0,94,0.0,45.0
354,48.0,0,160,1.0,45.0
355,40.0,24,160,1.0,45.0
356,67.0,0,160,0.0,45.0
357,52.0,0,160,1.0,45.0
358,70.0,96,94,0.0,45.0
359,69.0,96,22,0.0,45.0
360,70.0,0,24,0.0,45.0
361,68.0,0,22,0.0,45.0
362,69.0,24,22,0.0,45.0
363,60.0,24,70,0.0,45.0
364,70.0,24,22,0.0,45.0
365,41.0,0,94,1.0,45.0
366,48.0,0,94,1.0,45.0
367,53.0,0,94,1.0,45.0
368,69.0,24,94,0.0,45.0
369,45.0,0,160,1.0,45.0
370,37.0,0,160,1.0,45.0
371,64.0,0,160,0.0,45.0
372,49.0,0,160,1.0,45.0
373,67.0,96,94,0.0,47.0
374,50.0,96,70,1.0,50.0
375,38.0,0,70,1.0,50.0
376,65.0,0,70,0.0,49.0
377,62.0,0,70,0.0,49.0
378,57.0,0,70,0.0,49.0
379,67.0,0,22,0.0,51.0
380,62.0,0,22,0.0,51.0
381,58.0,0,22,0.0,51.0
382,34.0,0,22,1.0,51.0
383,46.0,72,22,1.0,51.0
384,36.0,0,32,1.0,71.0
385,36.0,96,32,1.0,54.0
386,60.0,24,160,0.0,71.0
387,65.0,0,160,0.0,71.0
388,69.0,0,160,0.0,71.0
389,48.0,0,160,1.0,51.0
390,36.0,0,32,1.0,57.0
391,48.0,0,32,1.0,57.0
392,70.0,0,70,0.0,57.0
393,58.0,0,94,0.0,57.0
394,64.0,96,94,0.0,57.0
395,67.0,72,22,0.0,59.0
396,41.0,0,32,1.0,60.0
397,57.0,24,94,0.0,60.0
398,65.0,0,94,0.0,60.0
399,29.0,96,32,1.0,60.0
400,48.0,96,22,1.0,60.0
401,50.0,0,24,1.0,60.0
402,47.0,24,22,1.0,60.0
403,48.0,24,22,1.0,60.0
404,50.0,24,22,1.0,60.0
405,57.0,24,16,0.0,60.0
406,60.0,24,16,0.0,60.0
407,65.0,24,16,0.0,60.0
408,69.0,24,16,0.0,60.0
409,72.0,24,16,0.0,60.0
410,77.0,24,16,0.0,60.0
411,79.0,24,16,0.0,60.0
412,81.0,24,32,0.0,60.0
413,48.0,24,256,1.0,60.0
414,57.0,72,22,0.0,60.0
415,41.0,0,94,1.0,60.0
416,60.0,0,94,0.0,60.0
417,52.0,24,94,0.0,60.0
418,43.0,0,94,1.0,60.0
419,36.0,96,32,1.0,60.0
420,52.0,0,46,0.0,60.0
421,58.0,0,46,0.0,60.0
422,48.0,0,160,1.0,60.0
423,48.0,0,22,1.0,60.0
424,50.0,96,24,1.0,60.0
425,47.0,24,22,1.0,60.0
426,48.0,24,22,1.0,60.0
427,50.0,24,22,1.0,60.0
428,58.0,24,16,0.0,60.0
429,64.0,24,16,0.0,60.0
430,67.0,24,16,0.0,60.0
431,70.0,24,16,0.0,60.0
432,76.0,24,16,0.0,60.0
433,79.0,24,16,0.0,60.0
434,81.0,24,16,0.0,60.0
435,82.0,0,46,0.0,60.0
436,48.0,24,256,1.0,60.0
437,58.0,72,22,0.0,60.0
438,43.0,24,94,1.0,60.0
439,45.0,0,32,1.0,60.0
440,62.0,0,94,0.0,60.0
441,53.0,24,94,0.0,60.0
442,36.0,0,32,1.0,60.0
443,60.0,96,46,0.0,60.0
444,53.0,0,46,0.0,60.0
445,48.0,0,160,1.0,60.0
446,48.0,0,22,1.0,60.0
447,50.0,96,24,1.0,60.0
448,47.0,24,22,1.0,60.0
449,48.0,24,22,1.0,60.0
450,50.0,24,22,1.0,60.0
451,65.0,24,16,0.0,60.0
452,69.0,24,16,0.0,60.0
453,72.0,24,16,0.0,60.0
454,77.0,24,16,0.0,60.0
455,81.0,24,16,0.0,60.0
456,84.0,24,16,0.0,60.0
457,45.0,0,94,1.0,60.0
458,89.0,24,22,0.0,60.0
459,89.0,24,46,0.0,60.0
460,48.0,24,256,1.0,60.0
461,88.0,48,46,0.0,60.0
462,43.0,0,94,1.0,60.0
463,62.0,24,16,0.0,60.0
464,65.0,24,16,0.0,60.0
465,69.0,24,16,0.0,60.0
466,74.0,24,16,0.0,60.0
467,77.0,24,16,0.0,60.0
468,81.0,24,16,0.0,60.0
469,41.0,0,94,1.0,60.0
470,86.0,24,22,0.0,60.0
471,86.0,0,46,0.0,60.0
472,48.0,48,256,1.0,60.0
473,40.0,24,94,1.0,60.0
474,84.0,48,46,0.0,60.0
475,84.0,0,16,0.0,60.0
476,48.0,48,32,1.0,60.0
477,83.0,24,32,0.0,60.0
478,49.0,24,32,1.0,60.0
479,81.0,24,32,0.0,60.0
480,50.0,24,32,1.0,60.0
481,79.0,24,32,0.0,60.0
482,41.0,0,160,1.0,60.0
483,52.0,24,32,1.0,60.0
484,77.0,24,32,0.0,60.0
485,53.0,24,32,1.0,60.0
486,41.0,0,32,1.0,60.0
487,76.0,24,32,0.0,60.0
488,42.0,24,32,1.0,60.0
489,54.0,0,32,1.0,60.0
490,74.0,24,16,0.0,60.0
491,64.0,24,94,0.0,84.0
492,72.0,0,94,0.0,84.0
493,62.0,0,46,0.0,60.0
494,71.0,96,46,0.0,60.0
495,43.0,0,160,1.0,84.0
496,55.0,0,160,1.0,84.0
497,67.0,0,22,0.0,60.0
498,69.0,96,24,0.0,60.0
499,66.0,24,22,0.0,60.0
500,67.0,24,22,0.0,60.0
501,69.0,24,22,0.0,60.0
502,71.0,24,22,0.0,60.0
503,63.0,0,22,1.0,60.0
504,65.0,0,22,1.0,60.0
505,74.0,24,22,0.0,60.0
506,64.0,24,22,1.0,60.0
507,72.0,0,22,0.0,60.0
508,76.0,0,22,0.0,60.0
509,60.0,24,22,1.0,60.0
510,59.0,0,22,1.0,60.0
511,74.0,24,22,0.0,60.0
512,67.0,24,160,0.0,60.0
513,77.0,24,22,0.0,60.0
514,62.0,0,22,1.0,60.0
515,60.0,0,22,1.0,60.0
516,76.0,24,22,0.0,60.0
517,79.0,0,22,0.0,60.0
518,64.0,24,22,1.0,60.0
519,78.0,24,22,0.0,60.0
520,63.0,0,22,1.0,60.0
521,64.0,0,22,1.0,60.0
522,79.0,24,22,0.0,60.0
523,60.0,24,22,1.0,60.0
524,67.0,0,94,0.0,60.0
525,76.0,0,22,0.0,60.0
526,73.0,24,94,0.0,60.0
527,58.0,0,94,1.0,60.0
528,59.0,96,46,1.0,60.0
529,67.0,0,142,0.0,60.0
530,74.0,0,46,0.0,60.0
531,67.0,0,22,0.0,60.0
532,69.0,96,24,0.0,60.0
533,66.0,24,22,0.0,60.0
534,67.0,24,22,0.0,60.0
535,69.0,24,22,0.0,60.0
536,64.0,24,22,1.0,60.0
537,73.0,0,22,0.0,60.0
538,67.0,24,22,1.0,60.0
539,76.0,0,22,0.0,60.0
540,65.0,24,22,1.0,60.0
541,67.0,24,94,0.0,60.0
542,74.0,0,22,0.0,60.0
543,62.0,24,22,1.0,60.0
544,77.0,0,22,0.0,60.0
545,61.0,24,22,1.0,60.0
546,76.0,0,22,0.0,60.0
547,79.0,0,22,0.0,60.0
548,64.0,24,22,1.0,60.0
549,77.0,0,22,0.0,60.0
550,62.0,24,22,1.0,60.0
551,65.0,0,22,1.0,60.0
552,81.0,24,22,0.0,60.0
553,64.0,24,22,1.0,60.0
554,80.0,0,22,0.0,60.0
555,65.0,24,22,1.0,60.0
556,81.0,0,22,0.0,60.0
557,62.0,24,22,1.0,60.0
558,67.0,0,94,1.0,60.0
559,77.0,0,22,0.0,60.0
560,75.0,24,94,0.0,60.0
561,59.0,0,94,1.0,60.0
562,75.0,0,46,0.0,60.0
563,67.0,0,142,1.0,60.0
564,60.0,96,46,1.0,60.0
565,76.0,0,22,0.0,60.0
566,77.0,96,24,0.0,60.0
567,74.0,24,22,0.0,60.0
568,76.0,24,22,0.0,60.0
569,77.0,24,22,0.0,60.0
570,79.0,0,16,0.0,60.0
571,64.0,24,16,0.0,60.0
572,60.0,0,16,0.0,60.0
573,65.0,24,16,0.0,60.0
574,62.0,0,16,0.0,60.0
575,67.0,24,16,0.0,60.0
576,64.0,0,16,0.0,60.0
577,65.0,24,16,0.0,60.0
578,69.0,0,16,0.0,60.0
579,67.0,24,16,0.0,60.0
580,71.0,0,16,0.0,60.0
581,36.0,24,160,1.0,60.0
582,72.0,24,16,0.0,60.0
583,69.0,0,16,0.0,60.0
584,71.0,0,16,0.0,60.0
585,74.0,24,16,0.0,60.0
586,76.0,24,16,0.0,60.0
587,72.0,0,16,0.0,60.0
588,36.0,0,22,1.0,60.0
589,48.0,0,16,1.0,60.0
590,76.0,0,16,0.0,60.0
591,72.0,24,16,0.0,60.0
592,74.0,24,16,0.0,60.0
593,77.0,0,16,0.0,60.0
594,47.0,0,16,1.0,60.0
595,79.0,0,16,0.0,60.0
596,76.0,24,16,0.0,60.0
597,45.0,0,16,1.0,60.0
598,43.0,24,16,1.0,60.0
599,77.0,0,16,0.0,60.0
600,81.0,0,16,0.0,60.0
601,83.0,0,16,0.0,60.0
602,79.0,0,16,0.0,60.0
603,41.0,24,16,1.0,60.0
604,40.0,24,16,1.0,60.0
605,84.0,0,16,0.0,60.0
606,81.0,0,16,0.0,60.0
607,83.0,24,16,0.0,60.0
608,86.0,0,16,0.0,60.0
609,38.0,0,16,1.0,60.0
610,84.0,0,16,0.0,60.0
611,88.0,0,16,0.0,60.0
612,36.0,24,16,1.0,60.0
613,38.0,24,16,1.0,60.0
614,86.0,0,16,0.0,60.0
615,83.0,0,16,0.0,60.0
616,84.0,0,16,0.0,60.0
617,81.0,24,16,0.0,60.0
618,40.0,0,16,1.0,60.0
619,83.0,24,16,0.0,60.0
620,79.0,0,16,0.0,60.0
621,41.0,0,16,1.0,60.0
622,43.0,0,16,1.0,60.0
623,77.0,0,16,0.0,60.0
624,81.0,24,16,0.0,60.0
625,45.0,0,16,1.0,60.0
626,76.0,24,16,0.0,60.0
627,79.0,0,16,0.0,60.0
628,47.0,24,16,1.0,60.0
629,77.0,0,16,0.0,60.0
630,74.0,0,16,0.0,60.0
631,48.0,0,16,1.0,60.0
632,76.0,24,16,0.0,60.0
633,72.0,0,16,0.0,60.0
634,49.0,0,22,1.0,60.0
635,70.0,24,22,0.0,60.0
636,79.0,0,22,0.0,60.0
637,50.0,24,16,1.0,62.0
638,69.0,0,16,0.0,62.0
639,77.0,0,16,0.0,62.0
640,76.0,0,16,0.0,64.0
641,52.0,24,16,1.0,64.0
642,67.0,0,16,0.0,64.0
643,65.0,0,16,0.0,66.0
644,74.0,0,16,0.0,66.0
645,53.0,24,16,1.0,66.0
646,41.0,0,94,1.0,60.0
647,64.0,0,32,0.0,68.0
648,72.0,24,32,0.0,68.0
649,55.0,0,94,1.0,68.0
650,43.0,0,94,1.0,68.0
651,71.0,0,32,0.0,80.0
652,65.0,0,32,0.0,80.0
653,62.0,96,32,0.0,80.0
654,56.0,0,94,1.0,80.0
655,44.0,0,94,1.0,80.0
656,74.0,0,22,0.0,92.0
657,57.0,96,46,1.0,92.0
658,45.0,0,46,1.0,92.0
659,72.0,24,22,0.0,92.0
660,71.0,0,22,0.0,92.0
661,69.0,24,22,0.0,92.0
662,57.0,24,46,1.0,92.0
663,60.0,0,46,1.0,92.0
664,59.0,0,46,1.0,92.0
665,67.0,24,46,0.0,92.0
666,62.0,0,46,1.0,92.0
667,55.0,48,46,1.0,92.0
668,65.0,0,94,0.0,92.0
669,60.0,48,46,1.0,92.0
670,64.0,0,46,0.0,92.0
671,48.0,48,46,1.0,92.0
672,64.0,48,14,0.0,60.0
673,62.0,16,14,0.0,60.0
674,53.0,0,32,1.0,60.0
675,57.0,0,32,1.0,60.0
676,61.0,32,14,0.0,60.0
677,62.0,16,14,0.0,60.0
678,64.0,32,14,0.0,60.0
679,65.0,16,14,0.0,60.0
680,68.0,32,14,0.0,60.0
681,69.0,16,14,0.0,60.0
682,67.0,32,14,0.0,60.0
683,65.0,16,14,0.0,60.0
684,41.0,0,32,1.0,60.0
685,45.0,0,32,1.0,60.0
686,50.0,0,32,1.0,60.0
687,64.0,32,14,0.0,60.0
688,62.0,16,14,0.0,60.0
689,52.0,0,160,1.0,60.0
690,55.0,0,160,1.0,60.0
691,60.0,32,160,0.0,60.0
692,43.0,96,94,1.0,60.0
693,62.0,96,70,0.0,60.0
694,55.0,0,94,1.0,60.0
695,59.0,72,22,0.0,60.0
696,43.0,0,94,1.0,60.0
697,31.0,0,94,1.0,60.0
698,53.0,0,94,1.0,60.0
699,36.0,0,94,1.0,60.0
700,60.0,24,94,0.0,60.0
701,55.0,0,160,1.0,60.0
702,52.0,0,160,1.0,60.0
703,48.0,96,160,1.0,84.0
704,72.0,96,70,0.0,84.0
705,68.0,0,94,0.0,60.0
706,65.0,0,94,0.0,60.0
707,73.0,72,22,0.0,60.0
708,48.0,0,94,1.0,60.0
709,72.0,0,94,0.0,60.0
710,67.0,0,160,0.0,60.0
711,64.0,24,160,0.0,60.0
712,70.0,96,94,0.0,60.0
713,36.0,0,256,1.0,60.0
714,48.0,0,160,1.0,84.0
715,68.0,0,70,0.0,84.0
716,65.0,0,94,0.0,60.0
717,70.0,72,22,0.0,60.0
718,60.0,96,94,0.0,60.0
719,60.0,24,46,0.0,60.0
720,48.0,0,46,1.0,60.0
721,36.0,0,46,1.0,60.0
722,60.0,48,46,1.0,60.0
723,64.0,0,94,0.0,60.0
724,68.0,0,94,0.0,60.0
725,67.0,0,46,0.0,60.0
726,64.0,0,46,0.0,60.0
727,59.0,48,46,1.0,60.0
728,58.0,48,46,1.0,60.0
729,57.0,48,46,1.0,60.0
730,72.0,0,70,0.0,60.0
731,54.0,48,46,1.0,60.0
732,74.0,24,22,0.0,60.0
733,55.0,0,46,1.0,60.0
734,54.0,48,46,1.0,60.0
735,72.0,24,94,0.0,60.0
736,55.0,48,46,1.0,60.0
737,52.0,48,46,1.0,60.0
738,70.0,0,94,0.0,60.0
739,53.0,0,46,1.0,60.0
740,69.0,48,70,0.0,60.0
741,50.0,48,46,1.0,60.0
742,70.0,24,22,0.0,60.0
743,52.0,24,46,1.0,60.0
744,50.0,48,46,1.0,60.0
745,69.0,0,94,0.0,60.0
746,52.0,0,46,1.0,60.0
747,49.0,48,46,1.0,60.0
748,67.0,48,94,0.0,60.0
749,50.0,48,46,1.0,60.0
750,65.0,0,70,0.0,60.0
751,48.0,48,46,1.0,60.0
752,66.0,24,22,0.0,60.0
753,46.0,0,46,1.0,60.0
754,67.0,24,46,0.0,60.0
755,50.0,0,46,1.0,60.0
756,67.0,48,46,0.0,60.0
757,46.0,0,46,1.0,60.0
758,67.0,48,70,0.0,60.0
759,69.0,24,22,0.0,60.0
760,42.0,48,46,1.0,60.0
761,72.0,24,24,0.0,60.0
762,43.0,0,46,1.0,60.0
763,70.0,24,46,0.0,60.0
764,46.0,24,46,1.0,60.0
765,67.0,24,22,0.0,60.0
766,48.0,0,46,1.0,60.0
767,65.0,24,94,0.0,60.0
768,36.0,48,46,1.0,60.0
769,48.0,0,46,1.0,60.0
770,64.0,48,46,0.0,60.0
771,46.0,48,46,1.0,60.0
772,45.0,0,46,1.0,60.0
773,60.0,0,70,0.0,60.0
774,72.0,48,70,0.0,60.0
775,42.0,48,46,1.0,60.0
776,62.0,0,22,0.0,60.0
777,74.0,24,22,0.0,60.0
778,43.0,24,46,1.0,60.0
779,42.0,48,46,1.0,60.0
780,60.0,0,94,0.0,60.0
781,72.0,0,94,0.0,60.0
782,43.0,48,46,1.0,60.0
783,40.0,48,46,1.0,60.0
784,70.0,0,94,0.0,60.0
785,58.0,0,94,0.0,60.0
786,41.0,48,46,1.0,60.0
787,69.0,0,70,0.0,60.0
788,57.0,0,70,0.0,60.0
789,70.0,24,22,0.0,60.0
790,58.0,0,22,0.0,60.0
791,38.0,48,46,1.0,60.0
792,40.0,24,46,1.0,60.0
793,38.0,48,46,1.0,59.0
794,69.0,0,94,0.0,60.0
795,57.0,0,94,0.0,60.0
796,40.0,0,46,1.0,58.0
797,67.0,0,94,0.0,58.0
798,37.0,48,46,1.0,57.0
799,55.0,48,94,0.0,58.0
800,38.0,0,46,1.0,56.0
801,53.0,48,70,0.0,56.0
802,65.0,0,70,0.0,56.0
803,55.0,24,22,0.0,54.0
804,67.0,0,22,0.0,54.0
805,34.0,48,46,1.0,55.0
806,36.0,0,46,1.0,54.0
807,41.0,48,46,1.0,53.0
808,45.0,48,46,1.0,52.0
809,57.0,0,160,0.0,75.0
810,60.0,0,160,0.0,75.0
811,69.0,24,160,0.0,75.0
812,65.0,0,160,0.0,75.0
813,48.0,48,46,1.0,51.0
814,36.0,0,46,1.0,49.0
815,70.0,0,70,0.0,48.0
816,58.0,0,94,0.0,48.0
817,64.0,0,94,0.0,48.0
818,67.0,24,22,0.0,46.0
819,48.0,48,46,1.0,47.0
820,41.0,24,46,1.0,45.0
821,57.0,0,94,0.0,45.0
822,65.0,0,94,0.0,45.0
823,60.0,48,46,1.0,45.0
824,57.0,48,46,1.0,45.0
825,53.0,48,46,1.0,45.0
826,48.0,48,46,1.0,45.0
827,72.0,0,70,0.0,45.0
828,69.0,24,22,0.0,45.0
829,60.0,48,46,1.0,45.0
830,48.0,0,46,1.0,45.0
831,60.0,48,46,1.0,45.0
832,70.0,24,94,0.0,45.0
833,67.0,48,32,0.0,45.0
834,57.0,0,46,1.0,45.0
835,53.0,48,46,1.0,45.0
836,48.0,0,46,1.0,45.0
837,79.0,0,70,0.0,45.0
838,60.0,48,46,1.0,45.0
839,76.0,24,22,0.0,45.0
840,48.0,0,46,1.0,45.0
841,77.0,0,94,0.0,45.0
842,60.0,48,46,1.0,45.0
843,72.0,0,32,0.0,45.0
844,57.0,48,46,1.0,45.0
845,53.0,48,46,1.0,45.0
846,72.0,0,22,0.0,45.0
847,48.0,0,46,1.0,45.0
848,69.0,24,22,0.0,45.0
849,72.0,24,22,0.0,45.0
850,60.0,0,46,1.0,45.0
851,69.0,24,22,0.0,45.0
852,48.0,0,46,1.0,45.0
853,70.0,24,94,0.0,45.0
854,60.0,48,46,1.0,45.0
855,67.0,48,32,0.0,45.0
856,58.0,0,46,1.0,45.0
857,55.0,48,46,1.0,45.0
858,79.0,48,22,0.0,45.0
859,76.0,24,22,0.0,45.0
860,48.0,0,46,1.0,45.0
861,79.0,24,22,0.0,45.0
862,58.0,0,46,1.0,45.0
863,60.0,0,46,1.0,45.0
864,76.0,24,22,0.0,45.0
865,60.0,24,46,1.0,45.0
866,77.0,0,94,0.0,45.0
867,65.0,48,46,1.0,45.0
868,72.0,0,32,0.0,45.0
869,60.0,48,46,1.0,45.0
870,57.0,0,142,1.0,45.0
871,79.0,48,22,0.0,45.0
872,58.0,0,46,1.0,45.0
873,60.0,0,46,1.0,45.0
874,67.0,0,46,1.0,45.0
875,76.0,24,22,0.0,45.0
876,77.0,0,46,0.0,45.0
877,65.0,0,46,1.0,45.0
878,60.0,0,46,1.0,45.0
879,57.0,24,46,1.0,45.0
880,79.0,0,22,0.0,45.0
881,58.0,0,46,1.0,45.0
882,76.0,24,22,0.0,45.0
883,67.0,0,46,1.0,45.0
884,60.0,48,46,1.0,45.0
885,60.0,0,46,1.0,45.0
886,77.0,0,94,0.0,45.0
887,65.0,48,46,1.0,45.0
888,60.0,0,46,1.0,45.0
889,72.0,48,46,0.0,45.0
890,57.0,24,142,1.0,45.0
891,79.0,48,22,0.0,45.0
892,76.0,24,22,0.0,45.0
893,67.0,0,46,1.0,45.0
894,60.0,0,46,1.0,45.0
895,58.0,0,46,1.0,45.0
896,65.0,0,46,1.0,45.0
897,60.0,0,46,1.0,45.0
898,57.0,0,46,1.0,45.0
899,77.0,24,46,0.0,45.0
900,79.0,0,22,0.0,45.0
901,76.0,24,22,0.0,45.0
902,58.0,0,46,1.0,45.0
903,60.0,48,46,1.0,45.0
904,67.0,0,46,1.0,45.0
905,57.0,0,46,1.0,45.0
906,60.0,0,46,1.0,45.0
907,65.0,24,46,1.0,45.0
908,77.0,0,46,0.0,45.0
909,79.0,48,22,0.0,45.0
910,76.0,24,22,0.0,45.0
911,67.0,0,46,1.0,45.0
912,60.0,0,46,1.0,45.0
913,58.0,0,46,1.0,45.0
914,60.0,0,46,1.0,45.0
915,65.0,24,46,1.0,45.0
916,57.0,0,46,1.0,45.0
917,77.0,0,46,0.0,45.0
918,79.0,0,22,0.0,45.0
919,76.0,24,22,0.0,45.0
920,58.0,48,46,1.0,45.0
921,60.0,0,46,1.0,45.0
922,67.0,0,46,1.0,45.0
923,77.0,0,46,0.0,45.0
924,65.0,0,46,1.0,45.0
925,60.0,24,46,1.0,45.0
926,57.0,0,46,1.0,45.0
927,79.0,48,22,0.0,45.0
928,58.0,0,46,1.0,45.0
929,76.0,24,22,0.0,45.0
930,67.0,0,46,1.0,45.0
931,60.0,0,46,1.0,45.0
932,77.0,24,46,0.0,45.0
933,79.0,48,22,0.0,45.0
934,57.0,0,94,1.0,45.0
935,65.0,0,94,1.0,45.0
936,60.0,0,94,1.0,45.0
937,76.0,24,22,0.0,45.0
938,77.0,24,46,0.0,45.0
939,79.0,48,22,0.0,45.0
940,76.0,24,22,0.0,45.0
941,77.0,24,46,0.0,45.0
942,79.0,48,22,0.0,45.0
943,76.0,24,22,0.0,45.0
944,77.0,24,32,0.0,45.0
945,77.0,96,32,0.0,45.0
946,77.0,96,32,0.0,45.0
947,37.0,0,46,1.0,30.0
948,44.0,48,46,1.0,30.0
949,49.0,48,46,1.0,30.0
950,77.0,0,160,0.0,45.0
951,73.0,96,160,0.0,45.0
952,44.0,48,46,1.0,30.0
953,48.0,48,46,1.0,30.0
954,75.0,0,94,0.0,45.0
955,68.0,0,94,0.0,45.0
956,44.0,48,46,1.0,30.0
957,37.0,0,46,1.0,30.0
958,44.0,48,46,1.0,30.0
959,65.0,0,96,0.0,45.0
960,73.0,0,0,0.0,45.0
961,49.0,48,46,1.0,30.0
962,65.0,0,70,0.0,45.0
963,44.0,48,46,1.0,30.0
964,75.0,0,22,0.0,45.0
965,68.0,24,22,0.0,45.0
966,48.0,24,46,1.0,30.0
967,65.0,0,70,0.0,45.0
968,73.0,0,70,0.0,45.0
969,68.0,0,22,0.0,45.0
970,44.0,48,46,1.0,30.0
971,75.0,24,22,0.0,45.0
972,73.0,0,32,0.0,45.0
973,77.0,0,32,0.0,45.0
974,37.0,0,46,1.0,30.0
975,44.0,48,46,1.0,30.0
976,77.0,48,32,0.0,45.0
977,73.0,0,32,0.0,45.0
978,49.0,0,46,1.0,30.0
979,44.0,48,46,1.0,30.0
980,68.0,0,32,0.0,45.0
981,75.0,0,32,0.0,45.0
982,48.0,48,46,1.0,30.0
983,44.0,48,46,1.0,30.0
984,37.0,0,46,1.0,30.0
985,44.0,48,46,1.0,31.0
986,49.0,48,46,1.0,32.0
987,73.0,48,160,0.0,45.0
988,65.0,0,160,0.0,45.0
989,44.0,48,46,1.0,33.0
990,41.0,0,46,1.0,34.0
991,61.0,48,70,0.0,50.0
992,44.0,48,46,1.0,35.0
993,60.0,24,22,0.0,51.0
994,60.0,24,24,0.0,51.0
995,41.0,0,46,1.0,36.0
996,59.0,24,48,0.0,51.0
997,53.0,0,48,0.0,51.0
998,37.0,0,94,1.0,36.0
999,44.0,24,46,1.0,37.0
1000,53.0,0,32,0.0,54.0
1001,59.0,0,32,0.0,54.0
1002,41.0,48,46,1.0,38.0
1003,37.0,0,94,1.0,38.0
1004,44.0,48,46,1.0,39.0
1005,53.0,48,32,0.0,57.0
1006,59.0,0,32,0.0,57.0
1007,41.0,0,46,1.0,41.0
1008,44.0,48,46,1.0,43.0
1009,37.0,0,94,1.0,41.0
1010,36.0,48,46,1.0,45.0
1011,48.0,48,46,1.0,45.0
1012,52.0,0,94,0.0,60.0
1013,60.0,0,94,0.0,60.0
1014,47.0,48,46,1.0,45.0
1015,46.0,48,46,1.0,45.0
1016,45.0,48,46,1.0,45.0
1017,72.0,0,70,0.0,60.0
1018,42.0,0,46,1.0,45.0
1019,74.0,24,22,0.0,60.0
1020,62.0,48,46,0.0,60.0
1021,62.0,0,46,0.0,60.0
1022,43.0,0,46,1.0,45.0
1023,72.0,24,94,0.0,60.0
1024,42.0,0,46,1.0,45.0
1025,69.0,48,46,0.0,60.0
1026,43.0,0,46,1.0,45.0
1027,40.0,48,46,1.0,45.0
1028,67.0,0,94,0.0,60.0
1029,70.0,48,94,0.0,60.0
1030,60.0,0,46,0.0,60.0
1031,41.0,48,46,1.0,45.0
1032,65.0,0,46,0.0,60.0
1033,60.0,0,46,0.0,60.0
1034,69.0,0,94,0.0,60.0
1035,38.0,48,46,1.0,45.0
1036,58.0,0,46,0.0,60.0
1037,70.0,24,22,0.0,60.0
1038,58.0,24,46,0.0,60.0
1039,40.0,0,46,1.0,45.0
1040,38.0,48,46,1.0,45.0
1041,65.0,0,46,0.0,60.0
1042,69.0,0,94,0.0,60.0
1043,40.0,0,46,1.0,45.0
1044,37.0,0,46,1.0,45.0
1045,64.0,0,94,0.0,60.0
1046,67.0,48,94,0.0,60.0
1047,57.0,48,46,0.0,60.0
1048,38.0,48,46,1.0,45.0
1049,57.0,0,46,0.0,60.0
1050,65.0,0,70,0.0,60.0
1051,66.0,24,22,0.0,60.0
1052,62.0,48,46,0.0,60.0
1053,36.0,0,46,1.0,45.0
1054,34.0,0,46,1.0,45.0
1055,38.0,48,46,1.0,47.0
1056,67.0,0,94,0.0,60.0
1057,62.0,24,142,0.0,60.0
1058,34.0,48,46,1.0,49.0
1059,67.0,0,70,0.0,60.0
1060,69.0,24,22,0.0,60.0
1061,62.0,48,46,0.0,60.0
1062,30.0,0,46,1.0,51.0
1063,72.0,24,22,0.0,60.0
1064,62.0,24,22,0.0,60.0
1065,31.0,0,46,1.0,54.0
1066,70.0,0,46,0.0,60.0
1067,62.0,24,46,0.0,60.0
1068,67.0,24,22,0.0,60.0
1069,34.0,0,46,1.0,57.0
1070,36.0,0,46,1.0,60.0
1071,60.0,0,94,0.0,60.0
1072,65.0,0,94,0.0,60.0
1073,57.0,24,94,0.0,60.0
1074,48.0,0,46,1.0,60.0
1075,47.0,48,46,1.0,60.0
1076,60.0,0,46,0.0,60.0
1077,64.0,0,46,0.0,60.0
1078,55.0,0,46,0.0,60.0
1079,46.0,48,46,1.0,60.0
1080,72.0,0,22,0.0,60.0
1081,74.0,48,24,0.0,60.0
1082,71.0,24,22,0.0,60.0
1083,45.0,0,46,1.0,60.0
1084,72.0,0,22,0.0,60.0
1085,48.0,0,94,1.0,60.0
1086,74.0,24,22,0.0,60.0
1087,42.0,24,46,1.0,60.0
1088,72.0,0,22,0.0,60.0
1089,43.0,0,46,1.0,60.0
1090,69.0,24,22,0.0,60.0
1091,70.0,0,22,0.0,60.0
1092,72.0,24,22,0.0,60.0
1093,42.0,24,46,1.0,60.0
1094,76.0,0,22,0.0,60.0
1095,79.0,24,22,0.0,60.0
1096,43.0,24,46,1.0,60.0
1097,48.0,24,160,1.0,60.0
1098,82.0,0,22,0.0,60.0
1099,70.0,24,22,0.0,60.0
1100,40.0,24,46,1.0,60.0
1101,69.0,24,22,0.0,60.0
1102,70.0,0,24,0.0,60.0
1103,68.0,24,22,0.0,60.0
1104,41.0,0,46,1.0,60.0
1105,69.0,24,22,0.0,60.0
1106,38.0,0,46,1.0,60.0
1107,45.0,0,94,1.0,60.0
1108,70.0,24,22,0.0,60.0
1109,69.0,0,22,0.0,60.0
1110,66.0,24,22,0.0,60.0
1111,40.0,0,46,1.0,60.0
1112,67.0,0,22,0.0,60.0
1113,69.0,24,22,0.0,60.0
1114,38.0,24,46,1.0,60.0
1115,73.0,0,22,0.0,60.0
1116,40.0,24,46,1.0,60.0
1117,76.0,24,22,0.0,60.0
1118,45.0,24,160,1.0,60.0
1119,79.0,0,22,0.0,60.0
1120,67.0,24,22,0.0,60.0
1121,37.0,24,46,1.0,60.0
1122,65.0,24,22,0.0,60.0
1123,67.0,0,24,0.0,60.0
1124,45.0,0,46,1.0,60.0
1125,64.0,24,22,0.0,60.0
1126,38.0,0,46,1.0,60.0
1127,65.0,24,22,0.0,60.0
1128,34.0,0,46,1.0,60.0
1129,46.0,0,46,1.0,60.0
1130,67.0,24,22,0.0,60.0
1131,36.0,0,46,1.0,92.0
1132,65.0,24,22,0.0,91.0
1133,60.0,0,22,0.0,90.0
1134,57.0,24,22,0.0,89.0
1135,41.0,24,46,1.0,89.0
1136,45.0,24,46,1.0,85.0
1137,65.0,24,22,0.0,87.0
1138,69.0,0,160,0.0,92.0
1139,60.0,24,22,0.0,86.0
1140,57.0,24,22,0.0,85.0
1141,48.0,0,46,1.0,81.0
1142,64.0,24,22,0.0,83.0
1143,36.0,0,46,1.0,77.0
1144,60.0,24,22,0.0,82.0
1145,48.0,0,46,1.0,73.0
1146,67.0,24,22,0.0,81.0
1147,58.0,0,22,0.0,81.0
1148,41.0,24,32,1.0,69.0
1149,70.0,24,142,0.0,84.0
1150,65.0,0,94,0.0,80.0
1151,57.0,0,94,0.0,80.0
1152,29.0,96,32,1.0,61.0
1153,77.0,72,24,0.0,69.0
1154,89.0,24,32,0.0,68.0
1155,89.0,72,22,0.0,62.0
1156,89.0,24,32,0.0,60.0
1157,46.0,0,32,1.0,45.0
1158,65.0,48,32,1.0,45.0
1159,62.0,0,32,1.0,45.0
1160,58.0,0,32,1.0,45.0
1161,87.0,24,16,0.0,60.0
1162,86.0,0,32,0.0,60.0
1163,58.0,0,32,1.0,45.0
1164,62.0,0,32,1.0,45.0
1165,65.0,24,32,1.0,45.0
1166,58.0,48,32,1.0,45.0
1167,62.0,0,32,1.0,45.0
1168,65.0,0,32,1.0,45.0
1169,84.0,24,16,0.0,60.0
1170,58.0,0,32,1.0,45.0
1171,62.0,0,32,1.0,45.0
1172,65.0,24,32,1.0,45.0
1173,82.0,0,32,0.0,60.0
1174,58.0,0,32,1.0,45.0
1175,65.0,48,32,1.0,45.0
1176,62.0,0,32,1.0,45.0
1177,81.0,24,16,0.0,60.0
1178,46.0,0,32,1.0,45.0
1179,79.0,24,32,0.0,60.0
1180,67.0,0,32,1.0,45.0
1181,58.0,48,32,1.0,45.0
1182,63.0,0,32,1.0,45.0
1183,77.0,24,16,0.0,60.0
1184,67.0,0,32,1.0,45.0
1185,63.0,0,32,1.0,45.0
1186,75.0,24,32,0.0,60.0
1187,58.0,0,32,1.0,45.0
1188,67.0,0,32,1.0,45.0
1189,58.0,48,32,1.0,45.0
1190,63.0,0,32,1.0,45.0
1191,74.0,24,16,0.0,60.0
1192,58.0,0,32,1.0,45.0
1193,63.0,24,32,1.0,45.0
1194,67.0,0,32,1.0,45.0
1195,72.0,0,32,0.0,60.0
1196,58.0,48,32,1.0,45.0
1197,63.0,0,32,1.0,45.0
1198,67.0,0,32,1.0,45.0
1199,70.0,24,16,0.0,60.0
1200,69.0,0,32,0.0,60.0
1201,50.0,24,32,1.0,45.0
1202,58.0,48,32,1.0,45.0
1203,63.0,0,32,1.0,45.0
1204,65.0,0,32,1.0,45.0
1205,60.0,0,32,1.0,45.0
1206,84.0,24,16,0.0,60.0
1207,58.0,24,32,1.0,45.0
1208,65.0,0,32,1.0,45.0
1209,63.0,0,32,1.0,45.0
1210,60.0,0,32,1.0,45.0
1211,81.0,0,32,0.0,60.0
1212,65.0,48,32,1.0,45.0
1213,60.0,0,32,1.0,45.0
1214,58.0,0,32,1.0,45.0
1215,63.0,0,32,1.0,45.0
1216,79.0,24,16,0.0,60.0
1217,77.0,24,32,0.0,60.0
1218,65.0,0,32,1.0,45.0
1219,63.0,0,32,1.0,45.0
1220,60.0,0,32,1.0,45.0
1221,58.0,0,32,1.0,45.0
1222,65.0,0,32,1.0,45.0
1223,63.0,0,32,1.0,45.0
1224,60.0,48,32,1.0,45.0
1225,58.0,0,32,1.0,45.0
1226,75.0,24,16,0.0,60.0
1227,58.0,24,32,1.0,45.0
1228,46.0,0,32,1.0,45.0
1229,74.0,0,32,0.0,60.0
1230,55.0,0,32,1.0,45.0
1231,67.0,48,32,1.0,45.0
1232,69.0,24,16,0.0,60.0
1233,81.0,0,16,0.0,60.0
1234,65.0,0,32,1.0,45.0
1235,53.0,24,32,1.0,45.0
1236,82.0,24,16,0.0,60.0
1237,70.0,0,16,0.0,60.0
1238,51.0,24,32,1.0,45.0
1239,63.0,0,32,1.0,45.0
1240,72.0,0,16,0.0,60.0
1241,84.0,24,16,0.0,60.0
1242,62.0,24,32,1.0,45.0
1243,50.0,0,32,1.0,45.0
1244,74.0,24,16,0.0,60.0
1245,86.0,0,16,0.0,60.0
1246,60.0,24,32,1.0,45.0
1247,48.0,0,32,1.0,45.0
1248,87.0,0,16,0.0,60.0
1249,75.0,24,16,0.0,60.0
1250,77.0,0,16,0.0,60.0
1251,89.0,24,16,0.0,60.0
1252,58.0,0,32,1.0,45.0
1253,46.0,0,32,1.0,45.0
1254,89.0,0,16,0.0,60.0
1255,77.0,24,16,0.0,60.0
1256,65.0,24,32,1.0,45.0
1257,62.0,0,32,1.0,45.0
1258,58.0,0,32,1.0,45.0
1259,87.0,0,16,0.0,60.0
1260,75.0,24,16,0.0,60.0
1261,86.0,0,16,0.0,60.0
1262,74.0,0,16,0.0,60.0
1263,65.0,0,32,1.0,45.0
1264,62.0,0,32,1.0,45.0
1265,58.0,24,32,1.0,45.0
1266,86.0,24,16,0.0,60.0
1267,74.0,0,16,0.0,60.0
1268,58.0,0,32,1.0,45.0
1269,62.0,0,32,1.0,45.0
1270,65.0,24,32,1.0,45.0
1271,72.0,24,16,0.0,60.0
1272,84.0,0,16,0.0,60.0
1273,70.0,24,16,0.0,60.0
1274,82.0,0,16,0.0,60.0
1275,65.0,0,32,1.0,45.0
1276,62.0,0,32,1.0,45.0
1277,58.0,0,32,1.0,45.0
1278,82.0,24,16,0.0,60.0
1279,70.0,0,16,0.0,60.0
1280,50.0,24,32,1.0,45.0
1281,38.0,0,32,1.0,45.0
1282,81.0,24,16,0.0,60.0
1283,69.0,0,16,0.0,60.0
1284,67.0,0,16,0.0,60.0
1285,79.0,0,16,0.0,60.0
1286,39.0,0,32,1.0,45.0
1287,51.0,24,32,1.0,45.0
1288,67.0,0,16,0.0,60.0
1289,79.0,24,16,0.0,60.0
1290,35.0,24,32,1.0,45.0
1291,47.0,0,32,1.0,45.0
1292,77.0,0,16,0.0,60.0
1293,65.0,24,16,0.0,60.0
1294,63.0,0,16,0.0,60.0
1295,75.0,0,16,0.0,60.0
1296,36.0,24,32,1.0,45.0
1297,48.0,0,32,1.0,45.0
1298,75.0,24,16,0.0,60.0
1299,63.0,0,16,0.0,60.0
1300,38.0,24,32,1.0,45.0
1301,50.0,0,32,1.0,45.0
1302,62.0,24,16,0.0,60.0
1303,74.0,0,16,0.0,60.0
1304,60.0,24,16,0.0,60.0
1305,72.0,0,16,0.0,60.0
1306,51.0,0,32,1.0,45.0
1307,39.0,0,32,1.0,45.0
1308,60.0,24,16,0.0,60.0
1309,72.0,0,16,0.0,60.0
1310,52.0,24,32,1.0,45.0
1311,40.0,0,32,1.0,45.0
1312,70.0,0,16,0.0,60.0
1313,60.0,24,16,0.0,60.0
1314,60.0,0,16,0.0,60.0
1315,63.0,0,16,0.0,60.0
1316,69.0,24,16,0.0,60.0
1317,41.0,0,46,1.0,45.0
1318,53.0,24,46,1.0,45.0
1319,67.0,0,16,0.0,60.0
1320,58.0,0,16,0.0,60.0
1321,62.0,24,16,0.0,60.0
1322,41.0,24,46,1.0,46.0
1323,57.0,24,16,0.0,60.0
1324,60.0,0,16,0.0,60.0
1325,65.0,0,16,0.0,60.0
1326,41.0,24,46,1.0,47.0
1327,63.0,0,16,0.0,60.0
1328,58.0,0,16,0.0,60.0
1329,55.0,24,16,0.0,60.0
1330,29.0,24,46,1.0,48.0
1331,41.0,0,46,1.0,48.0
1332,62.0,0,16,0.0,60.0
1333,57.0,0,16,0.0,60.0
1334,53.0,24,16,0.0,60.0
1335,29.0,0,46,1.0,49.0
1336,41.0,24,46,1.0,49.0
1337,60.0,0,22,0.0,84.0
1338,53.0,0,22,0.0,84.0
1339,29.0,24,46,1.0,50.0
1340,41.0,0,46,1.0,50.0
1341,57.0,0,22,0.0,84.0
1342,51.0,24,22,0.0,84.0
1343,51.0,0,94,0.0,60.0
1344,53.0,0,94,0.0,60.0
1345,57.0,0,94,0.0,60.0
1346,60.0,0,94,0.0,60.0
1347,34.0,0,94,1.0,51.0
1348,46.0,0,46,1.0,53.0
1349,41.0,24,142,1.0,51.0
1350,58.0,0,46,0.0,61.0
1351,50.0,96,46,1.0,53.0
1352,53.0,0,46,0.0,61.0
1353,77.0,72,22,0.0,61.0
1354,89.0,24,32,0.0,61.0
1355,89.0,72,16,0.0,61.0
1356,46.0,0,32,1.0,45.0
1357,89.0,24,32,0.0,60.0
1358,58.0,48,32,1.0,45.0
1359,62.0,0,32,1.0,45.0
1360,65.0,0,32,1.0,45.0
1361,87.0,24,16,0.0,60.0
1362,58.0,24,32,1.0,45.0
1363,65.0,0,32,1.0,45.0
1364,86.0,0,32,0.0,60.0
1365,62.0,0,32,1.0,45.0
1366,65.0,48,32,1.0,45.0
1367,62.0,0,32,1.0,45.0
1368,58.0,0,32,1.0,45.0
1369,84.0,24,16,0.0,60.0
1370,65.0,0,32,1.0,45.0
1371,62.0,24,32,1.0,45.0
1372,58.0,0,32,1.0,45.0
1373,82.0,0,32,0.0,60.0
1374,65.0,48,32,1.0,45.0
1375,62.0,0,32,1.0,45.0
1376,58.0,0,32,1.0,45.0
1377,81.0,24,16,0.0,60.0
1378,79.0,24,32,0.0,60.0
1379,46.0,0,32,1.0,45.0
1380,67.0,0,32,1.0,45.0
1381,63.0,0,32,1.0,45.0
1382,58.0,48,32,1.0,45.0
1383,77.0,24,16,0.0,60.0
1384,63.0,0,32,1.0,45.0
1385,75.0,0,32,0.0,60.0
1386,67.0,0,32,1.0,45.0
1387,58.0,24,32,1.0,45.0
1388,58.0,0,32,1.0,45.0
1389,63.0,48,32,1.0,45.0
1390,67.0,0,32,1.0,45.0
1391,74.0,24,16,0.0,60.0
1392,72.0,0,32,0.0,60.0
1393,63.0,0,32,1.0,45.0
1394,67.0,0,32,1.0,45.0
1395,58.0,24,32,1.0,45.0
1396,67.0,48,32,1.0,45.0
1397,63.0,0,32,1.0,45.0
1398,58.0,0,32,1.0,45.0
1399,70.0,24,16,0.0,60.0
1400,69.0,0,32,0.0,60.0
1401,50.0,24,32,1.0,45.0
1402,58.0,48,32,1.0,45.0
1403,60.0,0,32,1.0,45.0
1404,63.0,0,32,1.0,45.0
1405,65.0,0,32,1.0,45.0
1406,84.0,24,16,0.0,60.0
1407,58.0,0,32,1.0,45.0
1408,63.0,0,32,1.0,45.0
1409,65.0,0,32,1.0,45.0
1410,81.0,0,32,0.0,60.0
1411,60.0,24,32,1.0,45.0
1412,58.0,48,32,1.0,45.0
1413,60.0,0,32,1.0,45.0
1414,63.0,0,32,1.0,45.0
1415,65.0,0,32,1.0,45.0
1416,79.0,24,16,0.0,60.0
1417,58.0,0,32,1.0,45.0
1418,63.0,24,32,1.0,45.0
1419,65.0,0,32,1.0,45.0
1420,77.0,0,32,0.0,60.0
1421,60.0,0,32,1.0,45.0
1422,65.0,0,32,1.0,45.0
1423,63.0,0,32,1.0,45.0
1424,60.0,0,32,1.0,45.0
1425,58.0,48,32,1.0,45.0
1426,75.0,24,16,0.0,60.0
1427,46.0,24,32,1.0,45.0
1428,58.0,0,32,1.0,45.0
1429,74.0,0,32,0.0,60.0
1430,67.0,0,32,1.0,45.0
1431,55.0,48,32,1.0,45.0
1432,69.0,24,16,0.0,60.0
1433,81.0,0,16,0.0,60.0
1434,65.0,0,32,1.0,45.0
1435,53.0,24,32,1.0,45.0
1436,82.0,24,16,0.0,60.0
1437,70.0,0,16,0.0,60.0
1438,51.0,0,32,1.0,45.0
1439,63.0,24,32,1.0,45.0
1440,72.0,24,16,0.0,60.0
1441,84.0,0,16,0.0,60.0
1442,62.0,24,32,1.0,45.0
1443,50.0,0,32,1.0,45.0
1444,74.0,24,16,0.0,60.0
1445,86.0,0,16,0.0,60.0
1446,48.0,24,32,1.0,45.0
1447,60.0,0,32,1.0,45.0
1448,75.0,24,16,0.0,60.0
1449,87.0,0,16,0.0,60.0
1450,89.0,0,16,0.0,60.0
1451,77.0,0,16,0.0,60.0
1452,58.0,0,32,1.0,45.0
1453,46.0,24,32,1.0,45.0
1454,89.0,0,16,0.0,60.0
1455,77.0,24,16,0.0,60.0
1456,65.0,24,32,1.0,45.0
1457,58.0,0,32,1.0,45.0
1458,62.0,0,32,1.0,45.0
1459,75.0,0,16,0.0,60.0
1460,87.0,24,16,0.0,60.0
1461,74.0,0,16,0.0,60.0
1462,86.0,0,16,0.0,60.0
1463,65.0,0,32,1.0,45.0
1464,62.0,24,32,1.0,45.0
1465,58.0,0,32,1.0,45.0
1466,86.0,24,16,0.0,60.0
1467,74.0,0,16,0.0,60.0
1468,65.0,0,32,1.0,45.0
1469,62.0,24,32,1.0,45.0
1470,58.0,0,32,1.0,45.0
1471,72.0,24,16,0.0,60.0
1472,84.0,0,16,0.0,60.0
1473,82.0,0,16,0.0,60.0
1474,70.0,0,16,0.0,60.0
1475,62.0,24,32,1.0,45.0
1476,58.0,0,32,1.0,45.0
1477,65.0,0,32,1.0,45.0
1478,82.0,0,16,0.0,60.0
1479,70.0,24,16,0.0,60.0
1480,38.0,24,32,1.0,45.0
1481,50.0,0,32,1.0,45.0
1482,81.0,24,16,0.0,60.0
1483,69.0,0,16,0.0,60.0
1484,67.0,0,16,0.0,60.0
1485,79.0,0,16,0.0,60.0
1486,39.0,24,32,1.0,45.0
1487,51.0,0,32,1.0,45.0
1488,79.0,0,16,0.0,60.0
1489,67.0,24,16,0.0,60.0
1490,35.0,0,32,1.0,45.0
1491,47.0,24,32,1.0,45.0
1492,77.0,24,16,0.0,60.0
1493,65.0,0,16,0.0,60.0
1494,75.0,0,16,0.0,60.0
1495,63.0,0,16,0.0,60.0
1496,36.0,0,32,1.0,45.0
1497,48.0,24,32,1.0,45.0
1498,63.0,0,16,0.0,60.0
1499,75.0,24,16,0.0,60.0
1500,38.0,24,32,1.0,45.0
1501,50.0,0,32,1.0,45.0
1502,62.0,24,16,0.0,60.0
1503,74.0,0,16,0.0,60.0
1504,60.0,0,16,0.0,60.0
1505,72.0,24,16,0.0,60.0
1506,51.0,0,32,1.0,45.0
1507,39.0,0,32,1.0,45.0
1508,72.0,24,16,0.0,60.0
1509,60.0,0,16,0.0,60.0
1510,52.0,0,32,1.0,45.0
1511,40.0,24,32,1.0,45.0
1512,70.0,24,16,0.0,60.0
1513,60.0,0,16,0.0,60.0
1514,69.0,24,16,0.0,60.0
1515,63.0,0,16,0.0,60.0
1516,60.0,0,16,0.0,60.0
1517,41.0,24,46,1.0,45.0
1518,53.0,0,46,1.0,45.0
1519,67.0,0,16,0.0,60.0
1520,58.0,24,16,0.0,60.0
1521,62.0,0,16,0.0,60.0
1522,41.0,24,46,1.0,46.0
1523,57.0,0,16,0.0,60.0
1524,60.0,24,16,0.0,60.0
1525,65.0,0,16,0.0,60.0
1526,41.0,24,46,1.0,47.0
1527,55.0,0,16,0.0,60.0
1528,58.0,0,16,0.0,60.0
1529,63.0,24,16,0.0,60.0
1530,29.0,24,46,1.0,48.0
1531,41.0,0,46,1.0,48.0
1532,53.0,24,16,0.0,60.0
1533,57.0,0,16,0.0,60.0
1534,62.0,0,16,0.0,60.0
1535,29.0,24,46,1.0,49.0
1536,41.0,0,46,1.0,49.0
1537,53.0,0,22,0.0,84.0
1538,57.0,0,22,0.0,84.0
1539,51.0,0,22,0.0,84.0
1540,60.0,24,22,0.0,84.0
1541,29.0,24,46,1.0,50.0
1542,41.0,0,46,1.0,50.0
1543,34.0,0,94,1.0,51.0
1544,60.0,24,94,0.0,60.0
1545,57.0,0,94,0.0,60.0
1546,53.0,0,94,0.0,60.0
1547,51.0,0,94,0.0,60.0
1548,41.0,0,142,1.0,51.0
1549,46.0,0,46,1.0,53.0
1550,50.0,96,46,1.0,53.0
1551,58.0,0,46,0.0,61.0
1552,53.0,0,46,0.0,61.0
1553,77.0,72,22,0.0,61.0
1554,89.0,24,32,0.0,61.0
1555,89.0,72,16,0.0,61.0
1556,34.0,0,94,1.0,57.0
1557,51.0,0,94,0.0,61.0
1558,53.0,0,94,0.0,61.0
1559,57.0,24,94,0.0,61.0
1560,60.0,0,94,0.0,61.0
1561,41.0,0,142,1.0,57.0
1562,46.0,96,46,1.0,59.0
1563,50.0,0,46,1.0,59.0
1564,58.0,0,46,0.0,63.0
1565,53.0,0,46,0.0,63.0
1566,76.0,96,22,0.0,65.0
1567,77.0,24,22,0.0,65.0
1568,74.0,24,22,0.0,65.0
1569,70.0,24,22,0.0,65.0
1570,69.0,0,22,0.0,65.0
1571,72.0,24,22,0.0,65.0
1572,78.0,24,22,0.0,65.0
1573,60.0,0,94,1.0,63.0
1574,76.0,24,22,0.0,65.0
1575,60.0,0,22,1.0,65.0
1576,69.0,24,22,0.0,65.0
1577,69.0,24,22,0.0,65.0
1578,60.0,0,22,1.0,65.0
1579,72.0,0,22,0.0,65.0
1580,63.0,24,22,1.0,65.0
1581,60.0,24,22,1.0,65.0
1582,69.0,0,22,0.0,65.0
1583,70.0,24,22,0.0,65.0
1584,62.0,0,22,1.0,65.0
1585,74.0,24,22,0.0,65.0
1586,65.0,0,22,1.0,65.0
1587,53.0,24,256,1.0,63.0
1588,77.0,0,160,0.0,65.0
1589,62.0,24,22,1.0,65.0
1590,70.0,0,22,0.0,65.0
1591,74.0,0,22,0.0,65.0
1592,65.0,24,22,1.0,65.0
1593,77.0,0,22,0.0,65.0
1594,75.0,24,22,0.0,65.0
1595,79.0,24,22,0.0,65.0
1596,57.0,24,94,1.0,65.0
1597,72.0,0,94,0.0,65.0
1598,76.0,24,22,0.0,65.0
1599,72.0,24,22,0.0,65.0
1600,57.0,0,22,1.0,68.0
1601,57.0,0,22,1.0,68.0
1602,72.0,24,22,0.0,65.0
1603,60.0,0,22,1.0,68.0
1604,75.0,24,22,0.0,65.0
1605,57.0,24,22,1.0,68.0
1606,72.0,0,22,0.0,65.0
1607,74.0,24,22,0.0,65.0
1608,58.0,0,22,1.0,68.0
1609,70.0,24,22,0.0,65.0
1610,62.0,0,22,1.0,68.0
1611,77.0,0,160,0.0,65.0
1612,53.0,0,256,1.0,65.0
1613,74.0,24,22,0.0,66.0
1614,58.0,0,22,1.0,68.0
1615,62.0,0,22,1.0,68.0
1616,70.0,24,22,0.0,67.0
1617,69.0,0,22,0.0,67.0
1618,72.0,24,22,0.0,68.0
1619,78.0,24,22,0.0,69.0
1620,76.0,24,22,0.0,70.0
1621,60.0,0,94,1.0,68.0
1622,69.0,0,22,0.0,71.0
1623,60.0,24,22,1.0,72.0
1624,69.0,24,22,0.0,72.0
1625,60.0,0,22,1.0,73.0
1626,63.0,0,22,1.0,74.0
1627,72.0,24,22,0.0,73.0
1628,60.0,24,22,1.0,75.0
1629,69.0,0,22,0.0,74.0
1630,62.0,24,22,1.0,76.0
1631,70.0,0,22,0.0,75.0
1632,65.0,24,22,1.0,77.0
1633,74.0,0,22,0.0,76.0
1634,53.0,0,256,1.0,68.0
1635,77.0,0,160,0.0,71.0
1636,62.0,0,22,1.0,78.0
1637,70.0,24,22,0.0,77.0
1638,65.0,24,22,1.0,79.0
1639,74.0,0,22,0.0,78.0
1640,71.0,0,22,0.0,79.0
1641,62.0,0,22,1.0,80.0
1642,74.0,0,22,0.0,80.0
1643,65.0,24,22,1.0,81.0
1644,62.0,0,22,1.0,82.0
1645,71.0,24,22,0.0,81.0
1646,74.0,24,22,0.0,82.0
1647,65.0,0,22,1.0,83.0
1648,63.0,0,22,1.0,84.0
1649,72.0,24,22,0.0,83.0
1650,75.0,24,22,0.0,84.0
1651,65.0,0,22,1.0,85.0
1652,77.0,0,160,0.0,79.0
1653,53.0,24,160,1.0,80.0
1654,72.0,24,22,0.0,85.0
1655,63.0,0,22,1.0,86.0
1656,65.0,24,22,1.0,87.0
1657,75.0,0,22,0.0,86.0
1658,77.0,0,22,0.0,87.0
1659,60.0,0,22,1.0,88.0
1660,53.0,0,46,1.0,88.0
1661,77.0,24,22,0.0,88.0
1662,63.0,0,22,1.0,89.0
1663,89.0,0,16,0.0,89.0
1664,60.0,24,22,1.0,90.0
1665,89.0,0,16,0.0,90.0
1666,69.0,24,94,0.0,87.0
1667,63.0,24,22,1.0,91.0
1668,53.0,0,46,1.0,90.0
1669,77.0,24,16,0.0,92.0
1670,89.0,0,16,0.0,92.0
1671,46.0,0,32,1.0,92.0
1672,89.0,24,16,0.0,92.0
1673,77.0,0,16,0.0,92.0
1674,65.0,0,32,1.0,60.0
1675,62.0,0,32,1.0,60.0
1676,58.0,24,32,1.0,60.0
1677,87.0,0,16,0.0,60.0
1678,75.0,24,16,0.0,60.0
1679,86.0,24,16,0.0,60.0
1680,74.0,0,16,0.0,60.0
1681,62.0,0,32,1.0,60.0
1682,65.0,0,32,1.0,60.0
1683,58.0,0,32,1.0,60.0
1684,86.0,24,16,0.0,60.0
1685,74.0,0,16,0.0,60.0
1686,65.0,0,32,1.0,60.0
1687,62.0,0,32,1.0,60.0
1688,58.0,24,32,1.0,60.0
1689,72.0,24,16,0.0,60.0
1690,84.0,0,16,0.0,60.0
1691,82.0,0,16,0.0,60.0
1692,70.0,0,16,0.0,60.0
1693,58.0,0,32,1.0,60.0
1694,65.0,24,32,1.0,60.0
1695,62.0,0,32,1.0,60.0
1696,82.0,24,16,0.0,60.0
1697,70.0,0,16,0.0,60.0
1698,50.0,24,32,1.0,60.0
1699,38.0,0,32,1.0,60.0
1700,69.0,24,16,0.0,60.0
1701,81.0,0,16,0.0,60.0
1702,79.0,0,16,0.0,60.0
1703,67.0,24,16,0.0,60.0
1704,51.0,0,32,1.0,60.0
1705,39.0,0,32,1.0,60.0
1706,67.0,24,16,0.0,60.0
1707,79.0,0,16,0.0,60.0
1708,47.0,24,32,1.0,60.0
1709,35.0,0,32,1.0,60.0
1710,65.0,24,16,0.0,60.0
1711,77.0,0,16,0.0,60.0
1712,75.0,0,16,0.0,60.0
1713,63.0,0,16,0.0,60.0
1714,48.0,24,32,1.0,60.0
1715,36.0,0,32,1.0,60.0
1716,63.0,0,16,0.0,60.0
1717,75.0,24,16,0.0,60.0
1718,38.0,24,32,1.0,60.0
1719,50.0,0,32,1.0,60.0
1720,74.0,0,16,0.0,60.0
1721,62.0,24,16,0.0,60.0
1722,60.0,0,16,0.0,60.0
1723,72.0,24,16,0.0,60.0
1724,39.0,0,32,1.0,60.0
1725,51.0,0,32,1.0,60.0
1726,72.0,24,16,0.0,60.0
1727,60.0,0,16,0.0,60.0
1728,40.0,24,32,1.0,60.0
1729,52.0,0,32,1.0,60.0
1730,60.0,0,16,0.0,60.0
1731,70.0,24,16,0.0,60.0
1732,53.0,24,32,1.0,60.0
1733,41.0,0,32,1.0,60.0
1734,69.0,0,16,0.0,60.0
1735,60.0,24,16,0.0,60.0
1736,63.0,0,16,0.0,60.0
1737,41.0,24,32,1.0,60.0
1738,58.0,0,16,0.0,60.0
1739,62.0,0,16,0.0,60.0
1740,65.0,24,16,0.0,60.0
1741,41.0,24,32,1.0,59.0
1742,65.0,24,16,0.0,60.0
1743,60.0,0,16,0.0,60.0
1744,57.0,0,16,0.0,60.0
1745,55.0,0,16,0.0,60.0
1746,58.0,24,16,0.0,60.0
1747,63.0,0,16,0.0,60.0
1748,29.0,24,46,1.0,58.0
1749,41.0,0,46,1.0,58.0
1750,53.0,24,16,0.0,60.0
1751,62.0,0,16,0.0,60.0
1752,57.0,0,16,0.0,60.0
1753,41.0,0,46,1.0,57.0
1754,29.0,24,46,1.0,57.0
1755,41.0,0,46,1.0,56.0
1756,29.0,24,46,1.0,56.0
1757,53.0,0,22,0.0,84.0
1758,60.0,0,22,0.0,84.0
1759,57.0,0,22,0.0,84.0
1760,51.0,24,22,0.0,84.0
1761,53.0,0,94,0.0,60.0
1762,57.0,0,94,0.0,60.0
1763,60.0,0,94,0.0,60.0
1764,51.0,0,94,0.0,60.0
1765,41.0,24,94,1.0,55.0
1766,53.0,0,46,0.0,57.0
1767,58.0,96,46,0.0,57.0
1768,46.0,0,46,1.0,53.0
1769,34.0,0,142,1.0,55.0
1770,50.0,0,46,0.0,57.0
1771,76.0,96,22,0.0,55.0
1772,77.0,24,22,0.0,55.0
1773,74.0,24,22,0.0,55.0
1774,70.0,24,22,0.0,54.0
1775,69.0,0,22,0.0,53.0
1776,72.0,24,22,0.0,52.0
1777,78.0,24,22,0.0,51.0
1778,60.0,0,94,1.0,49.0
1779,76.0,24,22,0.0,50.0
1780,60.0,24,22,1.0,47.0
1781,69.0,0,22,0.0,49.0
1782,69.0,24,22,0.0,48.0
1783,60.0,0,22,1.0,47.0
1784,72.0,0,22,0.0,47.0
1785,63.0,24,22,1.0,47.0
1786,69.0,0,22,0.0,46.0
1787,60.0,24,22,1.0,46.0
1788,62.0,24,22,1.0,45.0
1789,70.0,0,22,0.0,45.0
1790,65.0,24,22,1.0,45.0
1791,74.0,0,22,0.0,45.0
1792,77.0,0,160,0.0,49.0
1793,53.0,0,256,1.0,49.0
1794,70.0,0,22,0.0,45.0
1795,62.0,24,22,1.0,45.0
1796,74.0,24,22,0.0,45.0
1797,65.0,0,22,1.0,45.0
1798,77.0,0,22,0.0,45.0
1799,75.0,24,22,0.0,45.0
1800,79.0,24,22,0.0,45.0
1801,57.0,0,94,1.0,45.0
1802,76.0,24,22,0.0,45.0
1803,72.0,0,94,0.0,45.0
1804,57.0,24,22,1.0,45.0
1805,72.0,0,22,0.0,45.0
1806,57.0,0,22,1.0,45.0
1807,72.0,24,22,0.0,45.0
1808,60.0,0,22,1.0,45.0
1809,75.0,24,22,0.0,45.0
1810,72.0,24,22,0.0,45.0
1811,57.0,0,22,1.0,45.0
1812,74.0,24,22,0.0,45.0
1813,58.0,0,22,1.0,45.0
1814,62.0,0,22,1.0,45.0
1815,70.0,24,22,0.0,45.0
1816,77.0,0,160,0.0,45.0
1817,53.0,24,256,1.0,45.0
1818,58.0,0,22,1.0,45.0
1819,74.0,24,22,0.0,45.0
1820,70.0,24,22,0.0,45.0
1821,62.0,0,22,1.0,45.0
1822,69.0,0,22,0.0,45.0
1823,72.0,24,22,0.0,45.0
1824,78.0,24,22,0.0,45.0
1825,76.0,24,22,0.0,45.0
1826,60.0,0,94,1.0,45.0
1827,60.0,0,22,1.0,45.0
1828,69.0,24,22,0.0,45.0
1829,69.0,0,22,0.0,45.0
1830,60.0,24,22,1.0,45.0
1831,72.0,0,22,0.0,45.0
1832,63.0,24,22,1.0,45.0
1833,60.0,0,22,1.0,45.0
1834,69.0,24,22,0.0,45.0
1835,62.0,0,22,1.0,45.0
1836,70.0,24,22,0.0,45.0
1837,65.0,24,22,1.0,45.0
1838,74.0,0,22,0.0,45.0
1839,53.0,24,256,1.0,45.0
1840,77.0,0,160,0.0,45.0
1841,70.0,24,22,0.0,45.0
1842,62.0,0,22,1.0,45.0
1843,74.0,0,22,0.0,45.0
1844,65.0,24,22,1.0,45.0
1845,71.0,0,22,0.0,45.0
1846,62.0,0,22,1.0,45.0
1847,65.0,0,22,1.0,45.0
1848,74.0,24,22,0.0,45.0
1849,71.0,24,22,0.0,45.0
1850,62.0,0,22,1.0,45.0
1851,65.0,0,22,1.0,45.0
1852,74.0,24,22,0.0,45.0
1853,63.0,0,22,1.0,45.0
1854,72.0,24,22,0.0,45.0
1855,65.0,0,22,1.0,45.0
1856,75.0,24,22,0.0,45.0
1857,77.0,24,160,0.0,45.0
1858,53.0,0,160,1.0,45.0
1859,72.0,24,22,0.0,45.0
1860,63.0,0,22,1.0,45.0
1861,75.0,0,22,0.0,45.0
1862,65.0,24,22,1.0,45.0
1863,60.0,0,22,1.0,45.0
1864,77.0,0,22,0.0,45.0
1865,63.0,24,22,1.0,45.0
1866,77.0,0,22,0.0,45.0
1867,53.0,0,46,1.0,45.0
1868,89.0,0,16,0.0,45.0
1869,60.0,0,22,1.0,45.0
1870,89.0,0,16,0.0,45.0
1871,53.0,24,46,1.0,45.0
1872,63.0,24,22,1.0,45.0
1873,69.0,24,94,0.0,45.0
1874,89.0,0,16,0.0,92.0
1875,77.0,24,16,0.0,92.0
1876,46.0,0,32,1.0,92.0
1877,77.0,0,16,0.0,92.0
1878,89.0,24,16,0.0,92.0
1879,58.0,24,32,1.0,60.0
1880,65.0,0,32,1.0,60.0
1881,62.0,0,32,1.0,60.0
1882,75.0,24,16,0.0,60.0
1883,87.0,0,16,0.0,60.0
1884,86.0,0,16,0.0,60.0
1885,74.0,0,16,0.0,60.0
1886,65.0,24,32,1.0,60.0
1887,62.0,0,32,1.0,60.0
1888,58.0,0,32,1.0,60.0
1889,86.0,24,16,0.0,60.0
1890,74.0,0,16,0.0,60.0
1891,65.0,0,32,1.0,60.0
1892,58.0,0,32,1.0,60.0
1893,62.0,24,32,1.0,60.0
1894,72.0,0,16,0.0,60.0
1895,84.0,24,16,0.0,60.0
1896,82.0,0,16,0.0,60.0
1897,70.0,0,16,0.0,60.0
1898,65.0,24,32,1.0,60.0
1899,62.0,0,32,1.0,60.0
1900,58.0,0,32,1.0,60.0
1901,70.0,24,16,0.0,60.0
1902,82.0,0,16,0.0,60.0
1903,50.0,24,32,1.0,60.0
1904,38.0,0,32,1.0,60.0
1905,81.0,0,16,0.0,60.0
1906,69.0,24,16,0.0,60.0
1907,79.0,0,16,0.0,60.0
1908,67.0,0,16,0.0,60.0
1909,39.0,24,32,1.0,60.0
1910,51.0,0,32,1.0,60.0
1911,79.0,24,16,0.0,60.0
1912,67.0,0,16,0.0,60.0
1913,35.0,24,32,1.0,60.0
1914,47.0,0,32,1.0,60.0
1915,77.0,24,16,0.0,60.0
1916,65.0,0,16,0.0,60.0
1917,63.0,0,16,0.0,60.0
1918,75.0,0,16,0.0,60.0
1919,48.0,0,32,1.0,60.0
1920,36.0,24,32,1.0,60.0
1921,75.0,0,16,0.0,60.0
1922,63.0,24,16,0.0,60.0
1923,50.0,0,32,1.0,60.0
1924,38.0,24,32,1.0,60.0
1925,62.0,24,16,0.0,60.0
1926,74.0,0,16,0.0,60.0
1927,72.0,0,16,0.0,60.0
1928,60.0,0,16,0.0,60.0
1929,39.0,24,32,1.0,60.0
1930,51.0,0,32,1.0,60.0
1931,72.0,24,16,0.0,60.0
1932,60.0,0,16,0.0,60.0
1933,40.0,24,32,1.0,60.0
1934,52.0,0,32,1.0,60.0
1935,70.0,24,16,0.0,60.0
1936,60.0,0,16,0.0,60.0
1937,53.0,24,32,1.0,60.0
1938,41.0,0,32,1.0,60.0
1939,60.0,24,16,0.0,60.0
1940,63.0,0,16,0.0,60.0
1941,69.0,0,16,0.0,60.0
1942,41.0,24,32,1.0,60.0
1943,62.0,0,16,0.0,60.0
1944,58.0,0,16,0.0,60.0
1945,65.0,24,16,0.0,60.0
1946,41.0,24,32,1.0,59.0
1947,65.0,0,16,0.0,60.0
1948,57.0,0,16,0.0,60.0
1949,60.0,24,16,0.0,60.0
1950,55.0,24,16,0.0,60.0
1951,58.0,0,16,0.0,60.0
1952,63.0,0,16,0.0,60.0
1953,41.0,0,46,1.0,58.0
1954,29.0,24,46,1.0,58.0
1955,62.0,0,16,0.0,60.0
1956,53.0,24,16,0.0,60.0
1957,57.0,0,16,0.0,60.0
1958,41.0,0,46,1.0,57.0
1959,29.0,24,46,1.0,57.0
1960,41.0,24,46,1.0,56.0
1961,60.0,0,22,0.0,84.0
1962,29.0,0,46,1.0,56.0
1963,57.0,0,22,0.0,84.0
1964,53.0,0,22,0.0,84.0
1965,51.0,24,22,0.0,84.0
1966,60.0,0,94,0.0,60.0
1967,51.0,0,94,0.0,60.0
1968,53.0,0,94,0.0,60.0
1969,57.0,0,94,0.0,60.0
1970,41.0,24,94,1.0,55.0
1971,58.0,96,46,0.0,57.0
1972,53.0,0,46,0.0,57.0
1973,50.0,0,46,0.0,57.0
1974,46.0,0,46,1.0,53.0
1975,34.0,0,142,1.0,55.0
1976,76.0,96,22,0.0,55.0
1977,77.0,24,22,0.0,55.0
1978,74.0,24,22,0.0,55.0
1979,70.0,24,22,0.0,54.0
1980,60.0,0,94,0.0,53.0
1981,57.0,0,94,0.0,53.0
1982,53.0,0,94,0.0,53.0
1983,51.0,0,94,0.0,53.0
1984,41.0,0,94,1.0,49.0
1985,58.0,0,46,0.0,49.0
1986,53.0,0,46,0.0,49.0
1987,50.0,0,46,0.0,49.0
1988,46.0,96,46,1.0,47.0
1989,34.0,24,142,1.0,49.0
1990,74.0,0,70,0.0,45.0
1991,75.0,72,22,0.0,45.0
1992,58.0,96,94,1.0,45.0
1993,67.0,0,94,0.0,45.0
1994,62.0,0,94,1.0,45.0
1995,74.0,0,94,0.0,45.0
1996,54.0,0,160,1.0,45.0
1997,62.0,0,160,1.0,45.0
1998,69.0,24,160,0.0,45.0
1999,72.0,96,94,0.0,45.0
2000,58.0,0,70,1.0,45.0
2001,60.0,72,22,1.0,45.0
2002,50.0,0,94,1.0,45.0
2003,43.0,96,94,1.0,45.0
2004,55.0,0,94,1.0,45.0
2005,58.0,0,94,1.0,45.0
2006,54.0,0,160,1.0,45.0
2007,50.0,0,160,1.0,45.0
2008,38.0,24,160,1.0,45.0
2009,57.0,96,94,1.0,50.0
2010,74.0,0,70,0.0,60.0
2011,67.0,96,94,0.0,60.0
2012,75.0,72,22,0.0,66.0
2013,62.0,0,94,1.0,55.0
2014,58.0,0,94,1.0,55.0
2015,74.0,24,94,0.0,68.0
2016,72.0,96,46,0.0,76.0
2017,54.0,0,160,1.0,60.0
2018,69.0,0,160,0.0,68.0
2019,62.0,0,160,1.0,60.0
2020,72.0,48,46,0.0,80.0
2021,62.0,0,94,1.0,70.0
2022,55.0,48,94,1.0,70.0
2023,67.0,0,94,0.0,84.0
2024,70.0,0,94,0.0,84.0
2025,71.0,0,94,0.0,92.0
2026,68.0,96,94,0.0,92.0
2027,62.0,0,94,1.0,75.0
2028,53.0,0,94,1.0,75.0
2029,52.0,0,22,1.0,60.0
2030,64.0,96,22,1.0,60.0
2031,48.0,24,22,1.0,60.0
2032,60.0,24,22,1.0,60.0
2033,72.0,0,94,0.0,60.0
2034,58.0,24,22,1.0,60.0
2035,67.0,0,94,0.0,60.0
2036,57.0,0,22,1.0,60.0
2037,55.0,24,22,1.0,60.0
2038,72.0,24,70,0.0,60.0
2039,57.0,24,22,1.0,60.0
2040,74.0,24,22,0.0,60.0
2041,54.0,0,22,1.0,60.0
2042,55.0,0,22,1.0,60.0
2043,53.0,24,22,1.0,60.0
2044,52.0,24,22,1.0,60.0
2045,50.0,24,22,1.0,60.0
2046,72.0,24,94,0.0,60.0
2047,52.0,24,22,1.0,60.0
2048,48.0,24,22,1.0,60.0
2049,50.0,24,22,1.0,60.0
2050,70.0,0,94,0.0,60.0
2051,52.0,24,22,1.0,60.0
2052,53.0,0,22,1.0,60.0
2053,52.0,24,22,1.0,60.0
2054,53.0,24,22,1.0,60.0
2055,69.0,24,70,0.0,60.0
2056,70.0,0,22,0.0,60.0
2057,50.0,24,22,1.0,60.0
2058,52.0,24,22,1.0,60.0
2059,50.0,24,22,1.0,60.0
2060,49.0,24,22,1.0,60.0
2061,69.0,0,94,0.0,60.0
2062,47.0,24,22,1.0,60.0
2063,49.0,24,22,1.0,60.0
2064,45.0,24,22,1.0,60.0
2065,47.0,24,22,1.0,60.0
2066,49.0,24,22,1.0,60.0
2067,67.0,0,94,0.0,60.0
2068,50.0,24,22,1.0,60.0
2069,49.0,24,22,1.0,60.0
2070,50.0,24,22,1.0,60.0
2071,65.0,0,70,0.0,60.0
2072,66.0,24,22,0.0,60.0
2073,48.0,0,22,1.0,60.0
2074,46.0,0,22,1.0,60.0
2075,48.0,24,22,1.0,58.0
2076,50.0,24,22,1.0,56.0
2077,67.0,24,94,0.0,60.0
2078,48.0,24,22,1.0,54.0
2079,46.0,24,22,1.0,52.0
2080,45.0,24,22,1.0,50.0
2081,67.0,0,70,0.0,55.0
2082,43.0,24,22,1.0,48.0
2083,42.0,24,22,1.0,45.0
2084,69.0,0,22,0.0,52.0
2085,43.0,24,22,1.0,42.0
2086,72.0,0,24,0.0,51.0
2087,45.0,0,22,1.0,39.0
2088,70.0,24,46,0.0,51.0
2089,46.0,24,22,1.0,36.0
2090,47.0,24,22,1.0,33.0
2091,67.0,0,22,0.0,47.0
2092,36.0,24,22,1.0,30.0
2093,48.0,24,22,1.0,30.0
2094,47.0,24,22,1.0,30.0
2095,48.0,24,22,1.0,30.0
2096,65.0,0,94,0.0,45.0
2097,50.0,0,22,1.0,30.0
2098,48.0,24,22,1.0,30.0
2099,64.0,24,46,0.0,45.0
2100,47.0,24,22,1.0,30.0
2101,46.0,24,22,1.0,30.0
2102,45.0,24,22,1.0,30.0
2103,44.0,24,22,1.0,30.0
2104,72.0,0,70,0.0,45.0
2105,60.0,0,70,0.0,45.0
2106,45.0,24,22,1.0,30.0
2107,62.0,24,22,0.0,45.0
2108,74.0,0,22,0.0,45.0
2109,42.0,0,22,1.0,30.0
2110,43.0,0,22,1.0,30.0
2111,41.0,24,22,1.0,30.0
2112,72.0,0,46,0.0,45.0
2113,40.0,0,22,1.0,30.0
2114,60.0,24,94,0.0,45.0
2115,72.0,24,46,0.0,45.0
2116,38.0,24,22,1.0,30.0
2117,40.0,0,22,1.0,30.0
2118,36.0,24,22,1.0,30.0
2119,38.0,24,22,1.0,30.0
2120,70.0,0,94,0.0,45.0
2121,58.0,24,94,0.0,45.0
2122,40.0,24,22,1.0,30.0
2123,41.0,0,22,1.0,30.0
2124,40.0,24,22,1.0,30.0
2125,41.0,24,22,1.0,30.0
2126,57.0,0,70,0.0,45.0
2127,69.0,24,70,0.0,45.0
2128,58.0,24,22,0.0,45.0
2129,70.0,0,22,0.0,45.0
2130,38.0,0,22,1.0,30.0
2131,40.0,0,22,1.0,30.0
2132,38.0,24,22,1.0,30.0
2133,37.0,24,22,1.0,30.0
2134,57.0,24,94,0.0,45.0
2135,35.0,24,22,1.0,30.0
2136,69.0,0,94,0.0,45.0
2137,37.0,24,22,1.0,30.0
2138,33.0,24,22,1.0,30.0
2139,35.0,24,22,1.0,30.0
2140,67.0,0,94,0.0,47.0
2141,55.0,0,94,0.0,47.0
2142,37.0,24,22,1.0,30.0
2143,38.0,24,22,1.0,30.0
2144,37.0,24,22,1.0,30.0
2145,38.0,24,22,1.0,31.0
2146,65.0,0,70,0.0,49.0
2147,53.0,0,70,0.0,49.0
2148,67.0,24,22,0.0,51.0
2149,55.0,0,22,0.0,51.0
2150,34.0,0,22,1.0,32.0
2151,36.0,0,22,1.0,33.0
2152,41.0,24,22,1.0,34.0
2153,45.0,24,22,1.0,35.0
2154,48.0,24,22,1.0,36.0
2155,36.0,24,22,1.0,37.0
2156,41.0,24,22,1.0,38.0
2157,69.0,0,160,0.0,71.0
2158,65.0,0,160,0.0,71.0
2159,60.0,0,160,0.0,71.0
2160,57.0,24,160,0.0,71.0
2161,45.0,24,22,1.0,39.0
2162,48.0,24,22,1.0,40.0
2163,36.0,24,22,1.0,41.0
2164,43.0,24,22,1.0,42.0
2165,70.0,0,70,0.0,57.0
2166,46.0,24,22,1.0,43.0
2167,48.0,0,22,1.0,44.0
2168,64.0,0,94,0.0,57.0
2169,67.0,24,22,0.0,59.0
2170,58.0,0,94,0.0,57.0
2171,41.0,24,22,1.0,45.0
2172,60.0,24,22,1.0,45.0
2173,57.0,24,22,1.0,45.0
2174,57.0,0,94,0.0,60.0
2175,65.0,0,94,0.0,60.0
2176,53.0,24,22,1.0,45.0
2177,48.0,0,22,1.0,45.0
2178,53.0,24,22,1.0,45.0
2179,57.0,24,22,1.0,45.0
2180,60.0,24,22,1.0,45.0
2181,48.0,0,22,1.0,45.0
2182,53.0,24,22,1.0,45.0
2183,72.0,0,70,0.0,60.0
2184,57.0,24,22,1.0,45.0
2185,69.0,24,22,0.0,60.0
2186,60.0,0,22,1.0,45.0
2187,48.0,0,22,1.0,45.0
2188,60.0,24,22,1.0,45.0
2189,58.0,24,22,1.0,45.0
2190,70.0,24,94,0.0,60.0
2191,55.0,24,22,1.0,45.0
2192,48.0,0,22,1.0,45.0
2193,67.0,0,32,0.0,60.0
2194,55.0,24,22,1.0,45.0
2195,58.0,24,22,1.0,45.0
2196,60.0,24,22,1.0,45.0
2197,48.0,0,22,1.0,45.0
2198,55.0,24,22,1.0,45.0
2199,58.0,24,22,1.0,45.0
2200,79.0,0,70,0.0,60.0
2201,60.0,24,22,1.0,45.0
2202,76.0,0,22,0.0,60.0
2203,48.0,0,22,1.0,45.0
2204,60.0,24,22,1.0,45.0
2205,57.0,24,22,1.0,45.0
2206,77.0,0,94,0.0,60.0
2207,53.0,24,22,1.0,45.0
2208,48.0,0,22,1.0,45.0
2209,72.0,0,32,0.0,60.0
2210,53.0,24,22,1.0,45.0
2211,57.0,24,22,1.0,45.0
2212,60.0,24,22,1.0,45.0
2213,72.0,24,22,0.0,60.0
2214,48.0,0,22,1.0,45.0
2215,69.0,24,22,0.0,60.0
2216,53.0,0,22,1.0,45.0
2217,57.0,0,22,1.0,45.0
2218,72.0,24,22,0.0,60.0
2219,60.0,0,22,1.0,45.0
2220,69.0,24,22,0.0,60.0
2221,48.0,0,22,1.0,45.0
2222,60.0,24,22,1.0,45.0
2223,58.0,24,22,1.0,45.0
2224,55.0,24,22,1.0,45.0
2225,70.0,0,94,0.0,60.0
2226,48.0,0,22,1.0,45.0
2227,67.0,0,32,0.0,60.0
2228,55.0,24,22,1.0,45.0
2229,58.0,24,22,1.0,45.0
2230,60.0,24,22,1.0,45.0
2231,79.0,24,22,0.0,60.0
2232,58.0,0,22,1.0,45.0
2233,60.0,24,22,1.0,45.0
2234,76.0,0,22,0.0,60.0
2235,79.0,24,22,0.0,60.0
2236,64.0,0,22,1.0,45.0
2237,67.0,24,22,1.0,45.0
2238,76.0,0,22,0.0,60.0
2239,57.0,0,22,1.0,45.0
2240,69.0,24,22,1.0,45.0
2241,65.0,24,22,1.0,45.0
2242,77.0,24,94,0.0,60.0
2243,60.0,24,22,1.0,45.0
2244,57.0,24,22,1.0,45.0
2245,72.0,0,32,0.0,60.0
2246,65.0,24,22,1.0,45.0
2247,58.0,24,22,1.0,45.0
2248,60.0,0,22,1.0,45.0
2249,79.0,0,22,0.0,60.0
2250,67.0,0,22,1.0,45.0
2251,76.0,24,22,0.0,60.0
2252,60.0,24,22,1.0,45.0
2253,57.0,0,22,1.0,45.0
2254,65.0,24,22,1.0,45.0
2255,77.0,0,46,0.0,60.0
2256,79.0,24,22,0.0,60.0
2257,60.0,0,22,1.0,45.0
2258,58.0,0,22,1.0,45.0
2259,67.0,24,22,1.0,45.0
2260,76.0,0,22,0.0,60.0
2261,57.0,0,22,1.0,45.0
2262,69.0,24,22,1.0,45.0
2263,65.0,24,22,1.0,45.0
2264,77.0,24,94,0.0,60.0
2265,60.0,24,22,1.0,45.0
2266,57.0,0,22,1.0,45.0
2267,65.0,24,22,1.0,45.0
2268,72.0,0,46,0.0,60.0
2269,60.0,24,22,1.0,45.0
2270,79.0,0,22,0.0,60.0
2271,76.0,24,22,0.0,60.0
2272,67.0,0,22,1.0,45.0
2273,58.0,0,46,1.0,45.0
2274,60.0,0,22,1.0,45.0
2275,77.0,24,46,0.0,60.0
2276,57.0,0,46,1.0,45.0
2277,65.0,24,22,1.0,45.0
2278,60.0,24,22,1.0,45.0
2279,79.0,0,22,0.0,60.0
2280,76.0,24,22,0.0,60.0
2281,58.0,0,46,1.0,45.0
2282,67.0,0,22,1.0,45.0
2283,60.0,0,22,1.0,45.0
2284,57.0,0,46,1.0,45.0
2285,77.0,24,46,0.0,60.0
2286,65.0,24,22,1.0,45.0
2287,60.0,0,22,1.0,45.0
2288,79.0,24,22,0.0,60.0
2289,67.0,24,22,1.0,45.0
2290,58.0,0,46,1.0,45.0
2291,76.0,0,22,0.0,60.0
2292,60.0,0,22,1.0,45.0
2293,77.0,24,46,0.0,60.0
2294,65.0,24,22,1.0,45.0
2295,57.0,0,46,1.0,45.0
2296,79.0,24,22,0.0,60.0
2297,60.0,0,22,1.0,45.0
2298,58.0,0,46,1.0,45.0
2299,67.0,0,22,1.0,45.0
2300,76.0,24,22,0.0,60.0
2301,60.0,0,22,1.0,45.0
2302,65.0,24,22,1.0,45.0
2303,57.0,24,46,1.0,45.0
2304,77.0,0,46,0.0,60.0
2305,79.0,0,22,0.0,60.0
2306,60.0,0,22,1.0,45.0
2307,76.0,0,22,0.0,60.0
2308,67.0,24,22,1.0,45.0
2309,58.0,24,46,1.0,45.0
2310,77.0,0,46,0.0,60.0
2311,79.0,48,22,0.0,58.0
2312,76.0,24,22,0.0,57.0
2313,60.0,0,94,1.0,45.0
2314,65.0,24,94,1.0,45.0
2315,57.0,0,94,1.0,45.0
2316,77.0,24,46,0.0,56.0
2317,79.0,48,22,0.0,54.0
2318,76.0,24,22,0.0,53.0
2319,77.0,24,46,0.0,52.0
2320,79.0,48,22,0.0,49.0
2321,76.0,24,22,0.0,47.0
2322,77.0,24,48,0.0,45.0
2323,77.0,96,48,0.0,45.0
2324,77.0,96,48,0.0,45.0
2325,37.0,0,22,1.0,30.0
2326,44.0,24,22,1.0,30.0
2327,49.0,24,22,1.0,30.0
2328,44.0,24,22,1.0,30.0
2329,49.0,24,22,1.0,30.0
2330,44.0,24,22,1.0,30.0
2331,49.0,24,22,1.0,30.0
2332,44.0,24,22,1.0,30.0
2333,73.0,0,192,0.0,45.0
2334,77.0,0,192,0.0,45.0
2335,48.0,24,22,1.0,30.0
2336,44.0,24,22,1.0,30.0
2337,48.0,24,22,1.0,30.0
2338,44.0,24,22,1.0,30.0
2339,68.0,0,96,0.0,45.0
2340,75.0,0,96,0.0,45.0
2341,37.0,0,22,1.0,30.0
2342,44.0,24,22,1.0,30.0
2343,49.0,24,22,1.0,30.0
2344,44.0,24,22,1.0,30.0
2345,65.0,0,96,0.0,45.0
2346,73.0,0,0,0.0,45.0
2347,49.0,24,22,1.0,30.0
2348,44.0,24,22,1.0,30.0
2349,49.0,24,22,1.0,30.0
2350,65.0,0,72,0.0,45.0
2351,44.0,0,22,1.0,30.0
2352,68.0,24,24,0.0,45.0
2353,75.0,0,24,0.0,45.0
2354,48.0,24,22,1.0,30.0
2355,44.0,24,22,1.0,30.0
2356,48.0,24,22,1.0,30.0
2357,73.0,0,72,0.0,45.0
2358,65.0,0,72,0.0,45.0
2359,68.0,0,22,0.0,45.0
2360,44.0,0,22,1.0,30.0
2361,75.0,24,22,0.0,45.0
2362,37.0,0,22,1.0,30.0
2363,73.0,0,32,0.0,45.0
2364,77.0,24,32,0.0,45.0
2365,44.0,24,22,1.0,30.0
2366,49.0,24,22,1.0,30.0
2367,44.0,24,22,1.0,30.0
2368,49.0,24,22,1.0,30.0
2369,77.0,0,32,0.0,45.0
2370,73.0,0,32,0.0,45.0
2371,44.0,24,22,1.0,30.0
2372,49.0,24,22,1.0,30.0
2373,44.0,24,22,1.0,30.0
2374,48.0,0,22,1.0,30.0
2375,75.0,0,32,0.0,45.0
2376,68.0,24,32,0.0,45.0
2377,44.0,24,22,1.0,30.0
2378,37.0,0,64,1.0,30.0
2379,48.0,24,22,1.0,30.0
2380,44.0,24,22,1.0,30.0
2381,37.0,0,22,1.0,30.0
2382,44.0,24,22,1.0,30.0
2383,49.0,24,22,1.0,30.0
2384,44.0,24,22,1.0,30.0
2385,49.0,24,22,1.0,30.0
2386,44.0,24,22,1.0,30.0
2387,73.0,24,160,0.0,45.0
2388,65.0,0,160,0.0,45.0
2389,49.0,24,22,1.0,30.0
2390,44.0,24,22,1.0,30.0
2391,41.0,24,22,1.0,30.0
2392,44.0,24,22,1.0,30.0
2393,61.0,0,70,0.0,45.0
2394,41.0,24,22,1.0,30.0
2395,60.0,24,22,0.0,45.0
2396,44.0,0,22,1.0,30.0
2397,37.0,0,22,1.0,30.0
2398,60.0,24,24,0.0,45.0
2399,44.0,0,22,1.0,31.0
2400,41.0,24,22,1.0,32.0
2401,59.0,24,48,0.0,45.0
2402,53.0,0,48,0.0,45.0
2403,44.0,24,22,1.0,33.0
2404,37.0,24,22,1.0,34.0
2405,53.0,0,32,0.0,50.0
2406,59.0,0,32,0.0,50.0
2407,44.0,24,22,1.0,35.0
2408,41.0,24,22,1.0,36.0
2409,44.0,24,22,1.0,37.0
2410,37.0,0,22,1.0,38.0
2411,59.0,0,32,0.0,55.0
2412,53.0,24,32,0.0,55.0
2413,44.0,24,22,1.0,39.0
2414,41.0,24,22,1.0,41.0
2415,44.0,24,22,1.0,43.0
2416,36.0,24,22,1.0,45.0
2417,48.0,24,22,1.0,45.0
2418,47.0,24,22,1.0,45.0
2419,48.0,24,22,1.0,45.0
2420,60.0,0,94,0.0,60.0
2421,52.0,0,94,0.0,60.0
2422,50.0,24,22,1.0,45.0
2423,48.0,24,22,1.0,45.0
2424,47.0,24,22,1.0,45.0
2425,46.0,24,22,1.0,45.0
2426,45.0,24,22,1.0,45.0
2427,44.0,24,22,1.0,45.0
2428,45.0,24,22,1.0,45.0
2429,72.0,0,70,0.0,60.0
2430,74.0,0,22,0.0,60.0
2431,62.0,0,46,0.0,60.0
2432,42.0,24,22,1.0,45.0
2433,43.0,0,22,1.0,45.0
2434,62.0,24,46,0.0,60.0
2435,41.0,24,22,1.0,45.0
2436,40.0,0,22,1.0,45.0
2437,38.0,24,22,1.0,45.0
2438,72.0,0,94,0.0,60.0
2439,40.0,0,22,1.0,45.0
2440,67.0,24,94,0.0,60.0
2441,36.0,24,22,1.0,45.0
2442,38.0,24,22,1.0,45.0
2443,60.0,0,46,0.0,60.0
2444,40.0,24,22,1.0,45.0
2445,70.0,24,94,0.0,60.0
2446,41.0,24,22,1.0,45.0
2447,40.0,24,22,1.0,45.0
2448,60.0,0,46,0.0,60.0
2449,41.0,24,22,1.0,45.0
2450,69.0,0,70,0.0,60.0
2451,70.0,24,22,0.0,60.0
2452,38.0,0,22,1.0,45.0
2453,58.0,0,46,0.0,60.0
2454,40.0,24,22,1.0,45.0
2455,58.0,0,46,0.0,60.0
2456,38.0,24,22,1.0,45.0
2457,37.0,24,22,1.0,45.0
2458,35.0,24,22,1.0,45.0
2459,69.0,0,94,0.0,60.0
2460,37.0,0,22,1.0,45.0
2461,33.0,24,22,1.0,45.0
2462,64.0,0,94,0.0,60.0
2463,35.0,0,22,1.0,45.0
2464,67.0,24,94,0.0,60.0
2465,57.0,24,46,0.0,60.0
2466,37.0,24,22,1.0,45.0
2467,38.0,24,22,1.0,45.0
2468,37.0,24,22,1.0,45.0
2469,57.0,0,46,0.0,60.0
2470,38.0,24,22,1.0,45.0
2471,65.0,0,70,0.0,60.0
2472,66.0,0,22,0.0,60.0
2473,62.0,0,46,0.0,60.0
2474,36.0,24,22,1.0,45.0
2475,34.0,0,22,1.0,45.0
2476,36.0,24,22,1.0,44.0
2477,38.0,24,22,1.0,43.0
2478,36.0,24,22,1.0,42.0
2479,67.0,0,94,0.0,60.0
2480,34.0,24,22,1.0,41.0
2481,33.0,24,22,1.0,40.0
2482,62.0,24,142,0.0,60.0
2483,31.0,0,22,1.0,39.0
2484,67.0,0,70,0.0,55.0
2485,69.0,24,22,0.0,52.0
2486,62.0,24,46,0.0,53.0
2487,30.0,0,22,1.0,38.0
2488,31.0,24,22,1.0,37.0
2489,72.0,0,24,0.0,51.0
2490,33.0,0,22,1.0,36.0
2491,62.0,0,22,0.0,51.0
2492,70.0,24,46,0.0,51.0
2493,34.0,0,22,1.0,34.0
2494,35.0,24,22,1.0,32.0
2495,62.0,24,46,0.0,48.0
2496,67.0,0,22,0.0,47.0
2497,36.0,0,16,1.0,30.0
2498,48.0,24,22,1.0,30.0
2499,47.0,24,22,1.0,30.0
2500,57.0,24,94,0.0,45.0
2501,60.0,0,94,0.0,45.0
2502,48.0,24,22,1.0,30.0
2503,65.0,0,94,0.0,45.0
2504,50.0,0,22,1.0,30.0
2505,48.0,0,22,1.0,30.0
2506,60.0,24,46,0.0,45.0
2507,64.0,0,46,0.0,45.0
2508,55.0,0,46,0.0,45.0
2509,47.0,24,22,1.0,30.0
2510,46.0,24,22,1.0,30.0
2511,45.0,0,22,1.0,30.0
2512,72.0,24,22,0.0,45.0
2513,84.0,0,22,0.0,45.0
2514,83.0,0,22,0.0,45.0
2515,71.0,0,22,0.0,45.0
2516,44.0,24,22,1.0,30.0
2517,45.0,24,22,1.0,30.0
2518,72.0,0,22,0.0,45.0
2519,84.0,0,22,0.0,45.0
2520,86.0,0,16,0.0,45.0
2521,74.0,0,16,0.0,45.0
2522,48.0,0,94,1.0,30.0
2523,42.0,24,22,1.0,30.0
2524,84.0,24,22,0.0,45.0
2525,72.0,0,22,0.0,45.0
2526,43.0,0,22,1.0,30.0
2527,82.0,0,16,0.0,45.0
2528,70.0,0,16,0.0,45.0
2529,41.0,24,22,1.0,30.0
2530,70.0,0,16,0.0,45.0
2531,82.0,24,16,0.0,45.0
2532,40.0,0,22,1.0,30.0
2533,70.0,24,16,0.0,45.0
2534,82.0,0,16,0.0,45.0
2535,38.0,0,22,1.0,30.0
2536,82.0,0,22,0.0,45.0
2537,40.0,24,22,1.0,30.0
2538,70.0,0,22,0.0,45.0
2539,36.0,24,22,1.0,30.0
2540,70.0,0,22,0.0,45.0
2541,82.0,0,22,0.0,45.0
2542,48.0,0,160,1.0,30.0
2543,38.0,0,22,1.0,30.0
2544,70.0,24,22,0.0,45.0
2545,82.0,0,22,0.0,45.0
2546,40.0,24,22,1.0,30.0
2547,82.0,0,22,0.0,45.0
2548,70.0,0,22,0.0,45.0
2549,69.0,0,22,0.0,45.0
2550,81.0,0,22,0.0,45.0
2551,41.0,0,22,1.0,30.0
2552,40.0,24,22,1.0,30.0
2553,68.0,0,22,0.0,45.0
2554,80.0,0,22,0.0,45.0
2555,69.0,24,22,0.0,45.0
2556,41.0,0,22,1.0,30.0
2557,81.0,0,22,0.0,45.0
2558,70.0,24,16,0.0,45.0
2559,82.0,0,16,0.0,45.0
2560,45.0,24,94,1.0,30.0
2561,38.0,0,22,1.0,30.0
2562,40.0,24,22,1.0,30.0
2563,81.0,0,22,0.0,45.0
2564,69.0,0,22,0.0,45.0
2565,38.0,24,22,1.0,30.0
2566,79.0,0,22,0.0,45.0
2567,67.0,0,22,0.0,45.0
2568,79.0,0,16,0.0,45.0
2569,67.0,0,16,0.0,45.0
2570,37.0,24,22,1.0,30.0
2571,79.0,0,16,0.0,45.0
2572,67.0,0,16,0.0,45.0
2573,35.0,24,22,1.0,30.0
2574,67.0,24,16,0.0,45.0
2575,79.0,0,16,0.0,45.0
2576,37.0,0,22,1.0,30.0
2577,79.0,0,16,0.0,45.0
2578,67.0,0,16,0.0,45.0
2579,33.0,24,22,1.0,30.0
2580,45.0,0,160,1.0,30.0
2581,79.0,0,16,0.0,45.0
2582,67.0,0,16,0.0,45.0
2583,35.0,24,22,1.0,30.0
2584,79.0,0,16,0.0,45.0
2585,67.0,24,16,0.0,45.0
2586,37.0,0,22,1.0,30.0
2587,38.0,0,22,1.0,30.0
2588,67.0,0,22,0.0,45.0
2589,79.0,0,22,0.0,45.0
2590,77.0,24,22,0.0,45.0
2591,65.0,0,22,0.0,45.0
2592,37.0,24,22,1.0,30.0
2593,64.0,0,22,0.0,45.0
2594,76.0,0,22,0.0,45.0
2595,38.0,0,22,1.0,30.0
2596,65.0,0,22,0.0,45.0
2597,77.0,24,22,0.0,45.0
2598,67.0,0,22,0.0,45.0
2599,34.0,24,22,1.0,30.0
2600,79.0,0,22,0.0,45.0
2601,68.0,0,16,0.0,45.0
2602,80.0,0,16,0.0,45.0
2603,36.0,0,22,1.0,30.0
2604,69.0,24,16,0.0,46.0
2605,81.0,0,16,0.0,46.0
2606,41.0,0,22,1.0,31.0
2607,45.0,0,22,1.0,32.0
2608,81.0,0,22,0.0,47.0
2609,69.0,24,22,0.0,47.0
2610,48.0,0,22,1.0,33.0
2611,69.0,24,22,0.0,48.0
2612,81.0,0,22,0.0,48.0
2613,68.0,24,22,0.0,49.0
2614,36.0,0,22,1.0,34.0
2615,80.0,0,22,0.0,49.0
2616,81.0,0,16,0.0,50.0
2617,69.0,0,16,0.0,50.0
2618,41.0,24,22,1.0,35.0
2619,81.0,24,22,0.0,51.0
2620,69.0,0,22,0.0,51.0
2621,45.0,0,22,1.0,36.0
2622,81.0,24,22,0.0,52.0
2623,69.0,0,22,0.0,52.0
2624,48.0,0,22,1.0,37.0
2625,36.0,24,22,1.0,38.0
2626,81.0,0,22,0.0,53.0
2627,69.0,0,22,0.0,53.0
2628,82.0,0,16,0.0,54.0
2629,70.0,0,16,0.0,54.0
2630,48.0,24,22,1.0,39.0
2631,70.0,0,22,0.0,56.0
2632,82.0,24,22,0.0,56.0
2633,50.0,0,22,1.0,41.0
2634,67.0,0,16,0.0,58.0
2635,79.0,0,16,0.0,58.0
2636,52.0,24,22,1.0,43.0
2637,41.0,24,32,1.0,45.0
2638,77.0,0,32,0.0,60.0
2639,65.0,0,32,0.0,60.0
2640,45.0,48,32,1.0,45.0
2641,48.0,0,32,1.0,45.0
2642,53.0,0,32,1.0,45.0
2643,48.0,0,32,1.0,45.0
2644,45.0,48,32,1.0,45.0
2645,53.0,0,32,1.0,45.0
2646,48.0,0,32,1.0,45.0
2647,53.0,0,32,1.0,45.0
2648,45.0,48,32,1.0,45.0
2649,48.0,48,32,1.0,45.0
2650,53.0,0,32,1.0,45.0
2651,45.0,0,32,1.0,45.0
2652,53.0,0,32,1.0,45.0
2653,45.0,48,32,1.0,45.0
2654,48.0,0,32,1.0,45.0
2655,41.0,48,32,1.0,45.0
2656,77.0,0,22,0.0,60.0
2657,89.0,0,22,0.0,60.0
2658,53.0,0,32,1.0,45.0
2659,45.0,48,32,1.0,45.0
2660,48.0,0,32,1.0,45.0
2661,76.0,24,22,0.0,60.0
2662,88.0,0,22,0.0,60.0
2663,77.0,24,16,0.0,60.0
2664,89.0,0,16,0.0,60.0
2665,53.0,0,32,1.0,45.0
2666,48.0,0,32,1.0,45.0
2667,45.0,0,32,1.0,45.0
2668,88.0,24,16,0.0,60.0
2669,76.0,0,16,0.0,60.0
2670,74.0,24,16,0.0,60.0
2671,86.0,0,16,0.0,60.0
2672,53.0,0,32,1.0,45.0
2673,48.0,0,32,1.0,45.0
2674,45.0,0,32,1.0,45.0
2675,84.0,24,16,0.0,60.0
2676,72.0,0,16,0.0,60.0
2677,82.0,0,16,0.0,60.0
2678,70.0,24,16,0.0,60.0
2679,53.0,0,32,1.0,45.0
2680,48.0,0,32,1.0,45.0
2681,45.0,0,32,1.0,45.0
2682,81.0,24,16,0.0,60.0
2683,69.0,0,16,0.0,60.0
2684,79.0,24,16,0.0,60.0
2685,67.0,0,16,0.0,60.0
2686,48.0,0,32,1.0,45.0
2687,53.0,0,32,1.0,45.0
2688,45.0,0,32,1.0,45.0
2689,77.0,0,16,0.0,60.0
2690,65.0,24,16,0.0,60.0
2691,64.0,0,16,0.0,60.0
2692,76.0,0,16,0.0,60.0
2693,41.0,24,32,1.0,45.0
2694,77.0,24,16,0.0,60.0
2695,65.0,0,16,0.0,60.0
2696,67.0,0,16,0.0,60.0
2697,79.0,0,16,0.0,60.0
2698,55.0,0,32,1.0,45.0
2699,52.0,0,32,1.0,45.0
2700,48.0,24,32,1.0,45.0
2701,81.0,24,16,0.0,60.0
2702,69.0,0,16,0.0,60.0
2703,48.0,0,32,1.0,45.0
2704,52.0,24,32,1.0,45.0
2705,55.0,0,32,1.0,45.0
2706,48.0,48,32,1.0,45.0
2707,55.0,0,32,1.0,45.0
2708,52.0,0,32,1.0,45.0
2709,48.0,48,32,1.0,45.0
2710,52.0,0,32,1.0,45.0
2711,55.0,0,32,1.0,45.0
2712,70.0,0,160,0.0,60.0
2713,82.0,0,160,0.0,60.0
2714,48.0,48,32,1.0,45.0
2715,52.0,0,32,1.0,45.0
2716,55.0,0,32,1.0,45.0
2717,41.0,48,32,1.0,45.0
2718,82.0,0,22,0.0,60.0
2719,70.0,0,22,0.0,60.0
2720,48.0,0,32,1.0,45.0
2721,52.0,48,32,1.0,45.0
2722,55.0,0,32,1.0,45.0
2723,81.0,24,22,0.0,60.0
2724,69.0,0,22,0.0,60.0
2725,70.0,24,16,0.0,60.0
2726,82.0,0,16,0.0,60.0
2727,48.0,0,32,1.0,45.0
2728,52.0,0,32,1.0,45.0
2729,55.0,0,32,1.0,45.0
2730,81.0,0,16,0.0,60.0
2731,69.0,24,16,0.0,60.0
2732,79.0,0,16,0.0,60.0
2733,67.0,0,16,0.0,60.0
2734,52.0,0,32,1.0,45.0
2735,48.0,24,32,1.0,45.0
2736,55.0,0,32,1.0,45.0
2737,65.0,24,16,0.0,60.0
2738,77.0,0,16,0.0,60.0
2739,64.0,24,16,0.0,60.0
2740,76.0,0,16,0.0,60.0
2741,55.0,0,32,1.0,45.0
2742,48.0,0,32,1.0,45.0
2743,52.0,0,32,1.0,45.0
2744,74.0,24,16,0.0,60.0
2745,62.0,0,16,0.0,60.0
2746,60.0,0,16,0.0,60.0
2747,72.0,0,16,0.0,60.0
2748,55.0,0,32,1.0,45.0
2749,52.0,24,32,1.0,45.0
2750,48.0,0,32,1.0,45.0
2751,70.0,24,16,0.0,60.0
2752,58.0,0,16,0.0,60.0
2753,57.0,0,16,0.0,60.0
2754,69.0,24,16,0.0,60.0
2755,41.0,0,32,1.0,45.0
2756,58.0,24,16,0.0,60.0
2757,70.0,0,16,0.0,60.0
2758,60.0,24,16,0.0,60.0
2759,72.0,0,16,0.0,60.0
2760,57.0,0,32,1.0,45.0
2761,53.0,0,32,1.0,45.0
2762,74.0,0,16,0.0,60.0
2763,62.0,24,16,0.0,60.0
2764,53.0,0,32,1.0,45.0
2765,57.0,0,32,1.0,45.0
2766,60.0,0,32,1.0,45.0
2767,60.0,0,32,1.0,45.0
2768,57.0,48,32,1.0,45.0
2769,53.0,0,32,1.0,45.0
2770,53.0,48,32,1.0,45.0
2771,57.0,0,32,1.0,45.0
2772,60.0,0,32,1.0,45.0
2773,75.0,24,160,0.0,60.0
2774,63.0,0,160,0.0,60.0
2775,53.0,0,32,1.0,45.0
2776,57.0,0,32,1.0,45.0
2777,60.0,48,32,1.0,45.0
2778,41.0,48,32,1.0,45.0
2779,75.0,0,22,0.0,60.0
2780,87.0,48,22,0.0,60.0
2781,57.0,0,32,1.0,45.0
2782,53.0,0,32,1.0,45.0
2783,60.0,0,32,1.0,45.0
2784,63.0,0,32,1.0,45.0
2785,86.0,24,22,0.0,60.0
2786,74.0,0,22,0.0,60.0
2787,75.0,0,16,0.0,60.0
2788,87.0,0,16,0.0,60.0
2789,63.0,0,32,1.0,45.0
2790,60.0,0,32,1.0,45.0
2791,57.0,0,32,1.0,45.0
2792,53.0,24,32,1.0,45.0
2793,86.0,24,16,0.0,60.0
2794,74.0,0,16,0.0,60.0
2795,72.0,24,16,0.0,60.0
2796,84.0,0,16,0.0,60.0
2797,63.0,0,32,1.0,45.0
2798,53.0,0,32,1.0,45.0
2799,60.0,0,32,1.0,45.0
2800,57.0,0,32,1.0,45.0
2801,82.0,0,16,0.0,60.0
2802,70.0,24,16,0.0,60.0
2803,81.0,0,16,0.0,60.0
2804,69.0,24,16,0.0,60.0
2805,60.0,0,32,1.0,45.0
2806,57.0,0,32,1.0,45.0
2807,63.0,0,32,1.0,45.0
2808,53.0,0,32,1.0,45.0
2809,79.0,0,16,0.0,60.0
2810,67.0,24,16,0.0,60.0
2811,65.0,0,16,0.0,60.0
2812,77.0,0,16,0.0,60.0
2813,57.0,24,32,1.0,45.0
2814,53.0,0,32,1.0,45.0
2815,60.0,0,32,1.0,45.0
2816,63.0,0,16,0.0,60.0
2817,75.0,24,16,0.0,60.0
2818,54.0,0,32,1.0,45.0
2819,60.0,0,32,1.0,45.0
2820,57.0,0,32,1.0,45.0
2821,62.0,24,32,0.0,60.0
2822,74.0,0,32,0.0,60.0
2823,48.0,0,16,1.0,45.0
2824,60.0,48,16,1.0,45.0
2825,69.0,0,32,0.0,60.0
2826,62.0,0,32,0.0,60.0
2827,74.0,0,32,0.0,60.0
2828,66.0,0,32,0.0,60.0
2829,47.0,24,16,1.0,45.0
2830,59.0,0,16,1.0,45.0
2831,48.0,24,16,1.0,45.0
2832,60.0,0,16,1.0,45.0
2833,62.0,0,32,0.0,60.0
2834,74.0,0,32,0.0,60.0
2835,66.0,0,32,0.0,60.0
2836,69.0,0,32,0.0,60.0
2837,47.0,24,16,1.0,45.0
2838,59.0,0,16,1.0,45.0
2839,45.0,0,16,1.0,45.0
2840,57.0,0,16,1.0,45.0
2841,62.0,24,32,0.0,60.0
2842,69.0,0,32,0.0,60.0
2843,66.0,0,32,0.0,60.0
2844,74.0,0,32,0.0,60.0
2845,43.0,24,16,1.0,45.0
2846,55.0,0,16,1.0,45.0
2847,42.0,24,16,1.0,45.0
2848,54.0,0,16,1.0,45.0
2849,66.0,0,32,0.0,60.0
2850,62.0,0,32,0.0,60.0
2851,69.0,0,32,0.0,60.0
2852,74.0,0,32,0.0,60.0
2853,52.0,24,16,1.0,45.0
2854,40.0,0,16,1.0,45.0
2855,50.0,0,16,1.0,45.0
2856,38.0,0,16,1.0,45.0
2857,69.0,0,32,0.0,60.0
2858,62.0,0,32,0.0,60.0
2859,66.0,0,32,0.0,60.0
2860,74.0,24,32,0.0,60.0
2861,36.0,0,16,1.0,45.0
2862,48.0,24,16,1.0,45.0
2863,35.0,24,32,1.0,45.0
2864,47.0,0,32,1.0,45.0
2865,65.0,0,16,1.0,45.0
2866,53.0,0,16,1.0,45.0
2867,74.0,0,32,0.0,60.0
2868,79.0,0,32,0.0,60.0
2869,71.0,0,32,0.0,60.0
2870,67.0,48,32,0.0,60.0
2871,64.0,24,16,1.0,45.0
2872,52.0,0,16,1.0,45.0
2873,65.0,0,16,1.0,45.0
2874,53.0,0,16,1.0,45.0
2875,67.0,0,32,0.0,60.0
2876,74.0,24,32,0.0,60.0
2877,71.0,0,32,0.0,60.0
2878,79.0,0,32,0.0,60.0
2879,64.0,0,16,1.0,45.0
2880,52.0,24,16,1.0,45.0
2881,50.0,0,16,1.0,45.0
2882,62.0,24,16,1.0,45.0
2883,79.0,0,32,0.0,60.0
2884,71.0,0,32,0.0,60.0
2885,67.0,0,32,0.0,60.0
2886,74.0,0,32,0.0,60.0
2887,48.0,24,16,1.0,45.0
2888,60.0,0,16,1.0,45.0
2889,47.0,24,16,1.0,45.0
2890,59.0,0,16,1.0,45.0
2891,67.0,0,32,0.0,60.0
2892,71.0,0,32,0.0,60.0
2893,74.0,0,32,0.0,60.0
2894,79.0,0,32,0.0,60.0
2895,45.0,24,16,1.0,45.0
2896,57.0,0,16,1.0,45.0
2897,55.0,0,16,1.0,45.0
2898,43.0,0,16,1.0,45.0
2899,79.0,0,32,0.0,60.0
2900,71.0,0,32,0.0,60.0
2901,74.0,0,32,0.0,60.0
2902,67.0,24,32,0.0,60.0
2903,41.0,24,16,1.0,45.0
2904,53.0,0,16,1.0,45.0
2905,40.0,24,46,1.0,45.0
2906,52.0,0,46,1.0,45.0
2907,46.0,0,16,1.0,45.0
2908,58.0,0,16,1.0,45.0
2909,72.0,0,32,0.0,60.0
2910,67.0,0,32,0.0,60.0
2911,60.0,48,32,0.0,60.0
2912,64.0,0,32,0.0,60.0
2913,57.0,0,16,1.0,45.0
2914,45.0,24,16,1.0,45.0
2915,46.0,0,16,1.0,45.0
2916,58.0,0,16,1.0,45.0
2917,60.0,24,32,0.0,60.0
2918,64.0,0,32,0.0,60.0
2919,67.0,0,32,0.0,60.0
2920,72.0,0,32,0.0,60.0
2921,57.0,0,16,1.0,45.0
2922,45.0,24,16,1.0,45.0
2923,43.0,0,16,1.0,45.0
2924,55.0,0,16,1.0,45.0
2925,60.0,24,32,0.0,60.0
2926,64.0,0,32,0.0,60.0
2927,67.0,0,32,0.0,60.0
2928,72.0,0,32,0.0,60.0
2929,53.0,24,16,1.0,45.0
2930,41.0,0,16,1.0,45.0
2931,52.0,24,16,1.0,45.0
2932,40.0,0,16,1.0,45.0
2933,67.0,0,32,0.0,60.0
2934,64.0,0,32,0.0,60.0
2935,60.0,0,32,0.0,60.0
2936,72.0,0,32,0.0,60.0
2937,50.0,0,16,1.0,45.0
2938,38.0,24,16,1.0,45.0
2939,36.0,24,16,1.0,45.0
2940,48.0,0,16,1.0,45.0
2941,67.0,0,32,0.0,60.0
2942,60.0,0,32,0.0,60.0
2943,72.0,0,32,0.0,60.0
2944,64.0,0,32,0.0,60.0
2945,34.0,24,16,1.0,45.0
2946,46.0,0,16,1.0,45.0
2947,33.0,24,46,1.0,45.0
2948,45.0,0,46,1.0,45.0
2949,63.0,0,16,1.0,45.0
2950,51.0,0,16,1.0,45.0
2951,72.0,0,32,0.0,60.0
2952,77.0,0,32,0.0,60.0
2953,65.0,48,32,0.0,60.0
2954,69.0,0,32,0.0,60.0
2955,62.0,0,16,1.0,45.0
2956,50.0,24,16,1.0,45.0
2957,51.0,24,16,1.0,45.0
2958,63.0,0,16,1.0,45.0
2959,72.0,0,32,0.0,60.0
2960,77.0,0,32,0.0,60.0
2961,65.0,0,32,0.0,60.0
2962,69.0,0,32,0.0,60.0
2963,50.0,24,16,1.0,45.0
2964,62.0,0,16,1.0,45.0
2965,48.0,24,16,1.0,45.0
2966,60.0,0,16,1.0,45.0
2967,77.0,0,32,0.0,60.0
2968,65.0,0,32,0.0,60.0
2969,69.0,0,32,0.0,60.0
2970,72.0,0,32,0.0,60.0
2971,58.0,24,16,1.0,45.0
2972,46.0,0,16,1.0,45.0
2973,45.0,0,16,1.0,45.0
2974,57.0,0,16,1.0,45.0
2975,65.0,24,32,0.0,60.0
2976,69.0,0,32,0.0,60.0
2977,72.0,0,32,0.0,60.0
2978,77.0,0,32,0.0,60.0
2979,43.0,0,16,1.0,45.0
2980,55.0,24,16,1.0,45.0
2981,53.0,0,16,1.0,45.0
2982,41.0,0,16,1.0,45.0
2983,65.0,0,32,0.0,60.0
2984,77.0,0,32,0.0,60.0
2985,72.0,0,32,0.0,60.0
2986,69.0,24,32,0.0,60.0
2987,39.0,24,16,1.0,45.0
2988,51.0,0,16,1.0,45.0
2989,77.0,24,16,0.0,60.0
2990,74.0,0,16,0.0,60.0
2991,70.0,0,16,0.0,60.0
2992,65.0,0,16,0.0,60.0
2993,77.0,0,16,0.0,60.0
2994,89.0,24,16,0.0,60.0
2995,87.0,24,16,0.0,60.0
2996,75.0,0,16,0.0,60.0
2997,86.0,24,16,0.0,60.0
2998,74.0,0,16,0.0,60.0
2999,84.0,24,16,0.0,60.0
3000,72.0,0,16,0.0,60.0
3001,70.0,0,16,0.0,60.0
3002,82.0,24,16,0.0,60.0
3003,81.0,24,16,0.0,60.0
3004,50.0,0,160,1.0,45.0
3005,41.0,0,160,1.0,45.0
3006,69.0,0,16,0.0,60.0
3007,38.0,0,160,1.0,45.0
3008,82.0,24,16,0.0,60.0
3009,70.0,0,16,0.0,60.0
3010,84.0,0,16,0.0,84.0
3011,72.0,24,16,0.0,84.0
3012,51.0,0,32,1.0,63.0
3013,41.0,0,32,1.0,63.0
3014,39.0,0,32,1.0,63.0
3015,77.0,24,16,0.0,84.0
3016,65.0,0,16,0.0,84.0
3017,67.0,24,16,0.0,60.0
3018,79.0,0,16,0.0,60.0
3019,69.0,24,16,0.0,60.0
3020,81.0,0,16,0.0,60.0
3021,70.0,0,16,0.0,60.0
3022,82.0,0,16,0.0,60.0
3023,89.0,0,16,0.0,60.0
3024,77.0,24,16,0.0,60.0
3025,87.0,0,16,0.0,60.0
3026,75.0,24,16,0.0,60.0
3027,74.0,24,16,0.0,60.0
3028,86.0,0,16,0.0,60.0
3029,72.0,24,16,0.0,60.0
3030,84.0,0,16,0.0,60.0
3031,70.0,24,16,0.0,60.0
3032,82.0,0,16,0.0,60.0
3033,50.0,0,160,1.0,45.0
3034,38.0,24,160,1.0,45.0
3035,41.0,0,160,1.0,45.0
3036,69.0,24,16,0.0,60.0
3037,81.0,0,16,0.0,60.0
3038,70.0,0,16,0.0,60.0
3039,82.0,24,16,0.0,60.0
3040,84.0,0,16,0.0,84.0
3041,72.0,0,16,0.0,84.0
3042,41.0,0,32,1.0,63.0
3043,51.0,0,32,1.0,63.0
3044,39.0,24,32,1.0,63.0
3045,65.0,24,16,0.0,84.0
3046,77.0,0,16,0.0,84.0
3047,67.0,24,16,0.0,60.0
3048,79.0,0,16,0.0,60.0
3049,81.0,0,16,0.0,60.0
3050,69.0,24,16,0.0,60.0
3051,70.0,0,16,0.0,60.0
3052,82.0,0,16,0.0,60.0
3053,50.0,0,32,1.0,45.0
3054,41.0,24,32,1.0,45.0
3055,38.0,0,32,1.0,45.0
3056,69.0,0,16,0.0,60.0
3057,81.0,24,16,0.0,60.0
3058,70.0,24,16,0.0,60.0
3059,82.0,0,16,0.0,60.0
3060,72.0,24,16,0.0,60.0
3061,84.0,0,16,0.0,60.0
3062,86.0,0,16,0.0,60.0
3063,74.0,0,16,0.0,60.0
3064,50.0,24,32,1.0,45.0
3065,48.0,0,32,1.0,45.0
3066,74.0,0,16,0.0,60.0
3067,62.0,24,16,0.0,60.0
3068,64.0,24,16,0.0,60.0
3069,76.0,0,16,0.0,60.0
3070,66.0,24,16,0.0,60.0
3071,78.0,0,16,0.0,60.0
3072,67.0,0,16,0.0,60.0
3073,79.0,0,16,0.0,60.0
3074,46.0,24,32,1.0,45.0
3075,50.0,0,32,1.0,45.0
3076,78.0,0,16,0.0,60.0
3077,66.0,24,16,0.0,60.0
3078,67.0,24,16,0.0,60.0
3079,79.0,0,16,0.0,60.0
3080,69.0,24,16,0.0,60.0
3081,81.0,0,16,0.0,60.0
3082,77.0,0,16,0.0,60.0
3083,65.0,0,16,0.0,60.0
3084,47.0,24,32,1.0,45.0
3085,50.0,0,32,1.0,45.0
3086,64.0,0,16,0.0,60.0
3087,76.0,24,16,0.0,60.0
3088,65.0,24,16,0.0,60.0
3089,77.0,0,16,0.0,60.0
3090,79.0,0,16,0.0,60.0
3091,67.0,24,16,0.0,60.0
3092,76.0,0,16,0.0,60.0
3093,64.0,0,16,0.0,60.0
3094,48.0,0,32,1.0,45.0
3095,55.0,24,32,1.0,45.0
3096,75.0,24,16,0.0,60.0
3097,63.0,0,16,0.0,60.0
3098,64.0,24,16,0.0,60.0
3099,76.0,0,16,0.0,60.0
3100,77.0,24,16,0.0,60.0
3101,65.0,0,16,0.0,60.0
3102,62.0,0,16,0.0,60.0
3103,74.0,0,16,0.0,60.0
3104,55.0,0,32,1.0,45.0
3105,53.0,24,32,1.0,45.0
3106,48.0,0,32,1.0,45.0
3107,61.0,24,16,0.0,60.0
3108,73.0,0,16,0.0,60.0
3109,62.0,24,16,0.0,60.0
3110,74.0,0,16,0.0,60.0
3111,76.0,0,16,0.0,60.0
3112,64.0,24,16,0.0,60.0
3113,60.0,0,16,0.0,60.0
3114,72.0,0,16,0.0,60.0
3115,79.0,0,16,0.0,60.0
3116,67.0,24,16,0.0,60.0
3117,65.0,0,16,0.0,60.0
3118,77.0,24,16,0.0,60.0
3119,64.0,24,16,0.0,60.0
3120,76.0,0,16,0.0,60.0
3121,62.0,24,16,0.0,60.0
3122,74.0,0,16,0.0,60.0
3123,60.0,0,16,0.0,60.0
3124,72.0,24,16,0.0,60.0
3125,59.0,24,16,0.0,60.0
3126,48.0,24,160,1.0,45.0
3127,52.0,0,160,1.0,45.0
3128,55.0,0,160,1.0,45.0
3129,71.0,0,16,0.0,60.0
3130,60.0,24,16,0.0,60.0
3131,72.0,0,16,0.0,60.0
3132,62.0,0,16,0.0,84.0
3133,74.0,0,16,0.0,84.0
3134,53.0,24,32,1.0,63.0
3135,48.0,0,32,1.0,63.0
3136,55.0,0,16,0.0,84.0
3137,67.0,24,16,0.0,84.0
3138,57.0,24,16,0.0,60.0
3139,69.0,0,16,0.0,60.0
3140,71.0,0,16,0.0,60.0
3141,59.0,24,16,0.0,60.0
3142,72.0,0,16,0.0,60.0
3143,60.0,0,16,0.0,60.0
3144,79.0,24,16,0.0,60.0
3145,67.0,0,16,0.0,60.0
3146,65.0,0,16,0.0,60.0
3147,77.0,24,16,0.0,60.0
3148,64.0,24,16,0.0,60.0
3149,76.0,0,16,0.0,60.0
3150,62.0,24,16,0.0,60.0
3151,74.0,0,16,0.0,60.0
3152,60.0,0,16,0.0,60.0
3153,72.0,24,16,0.0,60.0
3154,48.0,0,160,1.0,45.0
3155,52.0,24,160,1.0,45.0
3156,71.0,0,16,0.0,60.0
3157,59.0,24,16,0.0,60.0
3158,60.0,0,16,0.0,60.0
3159,72.0,24,16,0.0,60.0
3160,62.0,24,16,0.0,84.0
3161,74.0,0,16,0.0,84.0
3162,53.0,0,32,1.0,63.0
3163,48.0,0,32,1.0,63.0
3164,55.0,24,16,0.0,84.0
3165,67.0,0,16,0.0,84.0
3166,57.0,24,16,0.0,60.0
3167,69.0,0,16,0.0,60.0
3168,59.0,24,16,0.0,60.0
3169,71.0,0,16,0.0,60.0
3170,60.0,0,16,0.0,60.0
3171,72.0,0,16,0.0,60.0
3172,71.0,24,16,0.0,60.0
3173,59.0,0,16,0.0,60.0
3174,60.0,0,16,0.0,60.0
3175,72.0,24,16,0.0,60.0
3176,64.0,24,16,0.0,60.0
3177,76.0,0,16,0.0,60.0
3178,52.0,0,94,1.0,45.0
3179,62.0,0,16,0.0,60.0
3180,74.0,0,16,0.0,60.0
3181,61.0,24,16,0.0,60.0
3182,73.0,0,16,0.0,60.0
3183,62.0,24,16,0.0,60.0
3184,74.0,0,16,0.0,60.0
3185,65.0,24,16,0.0,60.0
3186,77.0,0,16,0.0,60.0
3187,59.0,24,94,1.0,45.0
3188,64.0,0,16,0.0,60.0
3189,76.0,0,16,0.0,60.0
3190,75.0,0,16,0.0,60.0
3191,63.0,24,16,0.0,60.0
3192,64.0,24,16,0.0,60.0
3193,76.0,0,16,0.0,60.0
3194,48.0,24,256,1.0,45.0
3195,72.0,24,16,0.0,60.0
3196,84.0,0,16,0.0,60.0
3197,58.0,24,94,1.0,45.0
3198,65.0,0,16,0.0,60.0
3199,77.0,0,16,0.0,60.0
3200,76.0,24,16,0.0,60.0
3201,64.0,0,16,0.0,60.0
3202,65.0,0,16,0.0,60.0
3203,77.0,24,16,0.0,60.0
3204,72.0,24,16,0.0,60.0
3205,84.0,0,16,0.0,60.0
3206,57.0,24,94,1.0,45.0
3207,67.0,0,16,0.0,60.0
3208,79.0,24,16,0.0,60.0
3209,66.0,24,16,0.0,60.0
3210,78.0,0,16,0.0,60.0
3211,67.0,24,16,0.0,60.0
3212,79.0,0,16,0.0,60.0
3213,84.0,24,16,0.0,60.0
3214,72.0,0,16,0.0,60.0
3215,55.0,0,94,1.0,45.0
3216,69.0,24,16,0.0,60.0
3217,81.0,0,16,0.0,60.0
3218,68.0,24,16,0.0,60.0
3219,80.0,0,16,0.0,60.0
3220,48.0,0,256,1.0,45.0
3221,69.0,0,16,0.0,60.0
3222,81.0,24,16,0.0,60.0
3223,72.0,0,16,0.0,60.0
3224,84.0,24,16,0.0,60.0
3225,53.0,0,94,1.0,45.0
3226,70.0,0,16,0.0,60.0
3227,82.0,0,16,0.0,60.0
3228,69.0,24,16,0.0,60.0
3229,81.0,0,16,0.0,60.0
3230,82.0,0,16,0.0,60.0
3231,70.0,24,16,0.0,60.0
3232,86.0,24,16,0.0,60.0
3233,74.0,0,16,0.0,60.0
3234,70.0,0,16,0.0,60.0
3235,82.0,24,16,0.0,60.0
3236,74.0,24,16,0.0,60.0
3237,86.0,0,16,0.0,60.0
3238,52.0,24,142,1.0,45.0
3239,67.0,24,16,0.0,60.0
3240,79.0,0,16,0.0,60.0
3241,58.0,0,32,1.0,45.0
3242,70.0,0,16,0.0,60.0
3243,82.0,24,16,0.0,60.0
3244,67.0,24,16,0.0,60.0
3245,79.0,0,16,0.0,60.0
3246,82.0,0,16,0.0,60.0
3247,70.0,24,16,0.0,60.0
3248,58.0,0,46,1.0,45.0
3249,69.0,24,16,0.0,60.0
3250,48.0,0,256,1.0,45.0
3251,81.0,0,16,0.0,60.0
3252,72.0,24,16,0.0,60.0
3253,84.0,0,16,0.0,60.0
3254,54.0,0,46,1.0,45.0
3255,82.0,0,16,0.0,60.0
3256,70.0,0,16,0.0,60.0
3257,81.0,24,16,0.0,60.0
3258,69.0,0,16,0.0,60.0
3259,70.0,24,16,0.0,60.0
3260,82.0,0,16,0.0,60.0
3261,74.0,0,16,0.0,60.0
3262,86.0,24,16,0.0,60.0
3263,70.0,24,16,0.0,60.0
3264,82.0,0,16,0.0,60.0
3265,86.0,0,16,0.0,60.0
3266,74.0,24,16,0.0,60.0
3267,55.0,24,142,1.0,45.0
3268,67.0,24,16,0.0,60.0
3269,79.0,0,16,0.0,60.0
3270,58.0,0,32,1.0,45.0
3271,82.0,24,16,0.0,60.0
3272,70.0,0,16,0.0,60.0
3273,67.0,24,16,0.0,60.0
3274,79.0,0,16,0.0,60.0
3275,70.0,0,16,0.0,60.0
3276,82.0,24,16,0.0,60.0
3277,58.0,0,46,1.0,45.0
3278,48.0,0,256,1.0,45.0
3279,81.0,24,16,0.0,60.0
3280,69.0,0,16,0.0,60.0
3281,72.0,24,16,0.0,60.0
3282,84.0,0,16,0.0,60.0
3283,54.0,0,46,1.0,45.0
3284,82.0,0,16,0.0,60.0
3285,70.0,0,16,0.0,60.0
3286,69.0,0,16,0.0,60.0
3287,81.0,24,16,0.0,60.0
3288,70.0,0,16,0.0,60.0
3289,82.0,24,16,0.0,60.0
3290,86.0,24,16,0.0,60.0
3291,74.0,0,16,0.0,60.0
3292,55.0,24,94,1.0,45.0
3293,81.0,0,16,0.0,60.0
3294,69.0,0,16,0.0,60.0
3295,68.0,0,16,0.0,60.0
3296,80.0,24,16,0.0,60.0
3297,69.0,24,16,0.0,60.0
3298,81.0,0,16,0.0,60.0
3299,72.0,0,16,0.0,60.0
3300,84.0,24,16,0.0,60.0
3301,57.0,24,94,1.0,45.0
3302,79.0,0,16,0.0,60.0
3303,67.0,24,16,0.0,60.0
3304,66.0,0,16,0.0,60.0
3305,78.0,24,16,0.0,60.0
3306,79.0,24,16,0.0,60.0
3307,48.0,0,256,1.0,45.0
3308,67.0,0,16,0.0,60.0
3309,70.0,24,16,0.0,60.0
3310,82.0,0,16,0.0,60.0
3311,58.0,0,94,1.0,45.0
3312,77.0,24,16,0.0,60.0
3313,65.0,0,16,0.0,60.0
3314,76.0,24,16,0.0,60.0
3315,64.0,0,16,0.0,60.0
3316,65.0,0,16,0.0,60.0
3317,77.0,24,16,0.0,60.0
3318,69.0,0,16,0.0,60.0
3319,81.0,24,16,0.0,60.0
3320,59.0,0,94,1.0,45.0
3321,64.0,0,16,0.0,60.0
3322,76.0,0,16,0.0,60.0
3323,63.0,24,16,0.0,60.0
3324,75.0,0,16,0.0,60.0
3325,64.0,0,16,0.0,60.0
3326,76.0,24,16,0.0,60.0
3327,67.0,24,22,0.0,60.0
3328,79.0,0,22,0.0,60.0
3329,60.0,24,94,1.0,45.0
3330,74.0,24,22,0.0,60.0
3331,73.0,24,22,0.0,60.0
3332,48.0,0,256,1.0,45.0
3333,74.0,24,22,0.0,60.0
3334,62.0,0,94,1.0,45.0
3335,77.0,24,22,0.0,60.0
3336,72.0,0,22,0.0,60.0
3337,71.0,24,22,0.0,60.0
3338,72.0,24,22,0.0,60.0
3339,76.0,24,22,0.0,60.0
3340,64.0,24,94,1.0,45.0
3341,72.0,0,22,0.0,60.0
3342,71.0,24,22,0.0,59.0
3343,72.0,24,22,0.0,58.0
3344,74.0,24,22,0.0,57.0
3345,65.0,24,94,1.0,45.0
3346,72.0,24,22,0.0,56.0
3347,71.0,24,22,0.0,55.0
3348,60.0,0,256,1.0,45.0
3349,72.0,24,22,0.0,54.0
3350,74.0,24,22,0.0,53.0
3351,66.0,0,94,1.0,40.0
3352,72.0,0,22,0.0,52.0
3353,71.0,24,22,0.0,51.0
3354,72.0,24,22,0.0,49.0
3355,74.0,24,22,0.0,47.0
3356,67.0,0,94,1.0,35.0
3357,72.0,24,22,0.0,45.0
3358,71.0,24,22,0.0,45.0
3359,72.0,24,22,0.0,45.0
3360,68.0,0,94,1.0,30.0
3361,74.0,24,22,0.0,45.0
3362,72.0,0,22,0.0,45.0
3363,71.0,24,22,0.0,45.0
3364,60.0,24,256,1.0,35.0
3365,72.0,24,22,0.0,45.0
3366,69.0,24,94,1.0,30.0
3367,74.0,24,22,0.0,45.0
3368,72.0,24,22,0.0,45.0
3369,71.0,24,22,0.0,45.0
3370,72.0,24,22,0.0,45.0
3371,74.0,24,22,0.0,45.0
3372,72.0,24,22,0.0,45.0
3373,71.0,24,22,0.0,45.0
3374,72.0,24,22,0.0,45.0
3375,74.0,24,22,0.0,45.0
3376,72.0,24,22,0.0,45.0
3377,71.0,24,22,0.0,45.0
3378,70.0,0,256,1.0,30.0
3379,60.0,0,256,1.0,30.0
3380,72.0,24,22,0.0,45.0
3381,74.0,24,22,0.0,45.0
3382,76.0,24,22,0.0,45.0
3383,77.0,24,22,0.0,45.0
3384,78.0,24,22,0.0,45.0
3385,79.0,24,22,0.0,45.0
3386,80.0,24,22,0.0,45.0
3387,60.0,0,142,1.0,30.0
3388,70.0,0,142,1.0,30.0
3389,81.0,24,22,0.0,45.0
3390,82.0,0,22,0.0,45.0
3391,58.0,24,46,1.0,30.0
3392,83.0,24,22,0.0,45.0
3393,84.0,0,70,0.0,45.0
3394,60.0,24,94,1.0,30.0
3395,57.0,0,94,1.0,30.0
3396,77.0,0,94,0.0,45.0
3397,86.0,72,22,0.0,45.0
3398,84.0,0,94,0.0,45.0
3399,79.0,24,160,0.0,45.0
3400,60.0,0,160,1.0,30.0
3401,52.0,0,160,1.0,30.0
3402,82.0,96,94,0.0,45.0
3403,69.0,0,70,0.0,45.0
3404,70.0,72,22,0.0,45.0
3405,60.0,0,94,0.0,45.0
3406,65.0,0,94,0.0,45.0
3407,41.0,96,94,1.0,30.0
3408,53.0,0,94,1.0,30.0
3409,69.0,0,94,0.0,45.0
3410,57.0,24,160,0.0,45.0
3411,64.0,0,160,0.0,45.0
3412,49.0,0,160,1.0,30.0
3413,37.0,0,160,1.0,30.0
3414,67.0,96,94,0.0,45.0
3415,77.0,0,70,0.0,45.0
3416,62.0,0,70,1.0,30.0
3417,60.0,0,22,1.0,30.0
3418,78.0,72,22,0.0,45.0
3419,69.0,96,94,0.0,45.0
3420,79.0,0,46,0.0,45.0
3421,58.0,0,94,1.0,30.0
3422,62.0,0,94,1.0,30.0
3423,79.0,48,46,0.0,46.0
3424,74.0,24,160,0.0,45.0
3425,62.0,0,70,1.0,35.0
3426,79.0,48,70,0.0,47.0
3427,58.0,0,70,1.0,35.0
3428,66.0,0,22,1.0,38.0
3429,57.0,0,22,1.0,38.0
3430,81.0,72,22,0.0,48.0
3431,84.0,0,24,0.0,48.0
3432,67.0,24,70,1.0,39.0
3433,82.0,0,46,0.0,48.0
3434,74.0,24,46,0.0,48.0
3435,55.0,0,70,1.0,39.0
3436,70.0,0,22,0.0,50.0
3437,79.0,48,22,0.0,50.0
3438,62.0,0,22,1.0,42.0
3439,58.0,0,22,1.0,42.0
3440,60.0,0,94,1.0,43.0
3441,69.0,24,94,0.0,50.0
3442,77.0,0,94,0.0,50.0
3443,67.0,0,46,0.0,53.0
3444,48.0,96,46,1.0,48.0
3445,76.0,0,46,0.0,53.0
3446,72.0,0,70,0.0,56.0
3447,74.0,72,22,0.0,59.0
3448,48.0,96,94,1.0,54.0
3449,57.0,0,94,1.0,54.0
3450,45.0,0,94,1.0,54.0
3451,65.0,0,94,0.0,56.0
3452,72.0,24,96,0.0,60.0
3453,60.0,0,256,0.0,60.0
3454,67.0,0,256,0.0,60.0
3455,70.0,96,160,0.0,60.0
3456,48.0,0,288,1.0,60.0
3457,52.0,0,288,1.0,60.0
3458,40.0,192,0,1.0,60.0
3459,70.0,0,160,0.0,60.0
3460,67.0,0,160,0.0,60.0
3461,60.0,0,160,0.0,60.0
3462,48.0,0,160,1.0,60.0
3463,52.0,0,160,1.0,60.0
3464,69.0,192,70,0.0,60.0
3465,70.0,72,22,0.0,60.0
3466,60.0,0,94,0.0,60.0
3467,41.0,0,94,1.0,60.0
3468,48.0,0,94,1.0,60.0
3469,53.0,0,94,1.0,60.0
3470,65.0,0,94,0.0,60.0
3471,69.0,0,94,0.0,60.0
3472,67.0,96,160,0.0,60.0
3473,57.0,0,256,0.0,60.0
3474,64.0,0,256,0.0,60.0
3475,49.0,0,288,1.0,60.0
3476,37.0,0,288,1.0,60.0
3477,45.0,0,0,1.0,60.0
3478,48.0,0,160,1.0,60.0
3479,64.0,0,160,0.0,60.0
3480,67.0,0,160,0.0,60.0
3481,36.0,192,160,1.0,60.0
3482,57.0,0,160,0.0,60.0
3483,50.0,0,70,1.0,54.0
3484,65.0,0,70,0.0,57.0
3485,53.0,192,70,1.0,54.0
3486,57.0,0,70,0.0,57.0
3487,62.0,0,70,0.0,57.0
3488,58.0,0,22,0.0,56.0
3489,62.0,0,22,0.0,56.0
3490,46.0,0,22,1.0,52.0
3491,67.0,72,22,0.0,56.0
3492,55.0,0,22,1.0,52.0
3493,50.0,0,22,1.0,52.0
3494,57.0,0,256,1.0,72.0
3495,53.0,0,256,1.0,72.0
3496,48.0,0,256,1.0,72.0
3497,60.0,24,256,0.0,78.0
3498,65.0,0,256,0.0,78.0
3499,69.0,0,256,0.0,78.0
3500,58.0,0,256,1.0,57.0
3501,52.0,0,256,1.0,57.0
3502,48.0,0,256,1.0,57.0
3503,60.0,0,256,0.0,71.0
3504,55.0,0,256,1.0,57.0
3505,67.0,0,256,0.0,71.0
3506,70.0,288,256,0.0,71.0
3507,64.0,0,256,0.0,71.0
3508,52.0,0,22,1.0,30.0
3509,57.0,24,22,1.0,30.0
3510,52.0,24,22,1.0,30.0
3511,57.0,24,22,1.0,30.0
3512,69.0,288,94,0.0,45.0
3513,49.0,0,94,1.0,30.0
3514,52.0,0,22,1.0,30.0
3515,49.0,24,46,1.0,30.0
3516,57.0,24,22,1.0,30.0
3517,69.0,0,46,0.0,45.0
3518,81.0,24,22,0.0,45.0
3519,52.0,0,22,1.0,30.0
3520,79.0,24,22,0.0,45.0
3521,57.0,0,22,1.0,30.0
3522,49.0,0,46,1.0,30.0
3523,79.0,24,22,0.0,45.0
3524,53.0,0,22,1.0,30.0
3525,77.0,0,22,0.0,45.0
3526,50.0,0,46,1.0,30.0
3527,57.0,24,22,1.0,30.0
3528,81.0,0,22,0.0,45.0
3529,52.0,0,22,1.0,30.0
3530,49.0,24,46,1.0,30.0
3531,57.0,0,22,1.0,30.0
3532,79.0,24,22,0.0,45.0
3533,53.0,0,22,1.0,30.0
3534,79.0,0,22,0.0,45.0
3535,77.0,0,22,0.0,45.0
3536,50.0,24,46,1.0,30.0
3537,57.0,24,22,1.0,30.0
3538,81.0,0,22,0.0,45.0
3539,52.0,24,22,1.0,30.0
3540,57.0,24,22,1.0,30.0
3541,79.0,0,22,0.0,45.0
3542,49.0,0,46,1.0,30.0
3543,79.0,24,22,0.0,45.0
3544,53.0,0,22,1.0,30.0
3545,77.0,0,22,0.0,45.0
3546,50.0,0,46,1.0,30.0
3547,57.0,24,22,1.0,30.0
3548,48.0,0,22,1.0,30.0
3549,77.0,0,22,0.0,45.0
3550,53.0,24,22,1.0,30.0
3551,75.0,0,22,0.0,45.0
3552,45.0,24,46,1.0,30.0
3553,50.0,0,22,1.0,30.0
3554,75.0,0,22,0.0,45.0
3555,74.0,24,22,0.0,45.0
3556,53.0,0,22,1.0,30.0
3557,46.0,24,46,1.0,30.0
3558,50.0,0,22,1.0,30.0
3559,74.0,24,22,0.0,45.0
3560,72.0,24,22,0.0,45.0
3561,42.0,0,46,1.0,30.0
3562,54.0,0,22,1.0,30.0
3563,72.0,0,22,0.0,45.0
3564,50.0,0,22,1.0,30.0
3565,70.0,24,22,0.0,45.0
3566,43.0,24,46,1.0,30.0
3567,55.0,0,22,1.0,30.0
3568,50.0,0,22,1.0,30.0
3569,72.0,0,22,0.0,45.0
3570,62.0,24,22,0.0,45.0
3571,53.0,24,22,1.0,30.0
3572,41.0,0,46,1.0,30.0
3573,71.0,0,22,0.0,45.0
3574,67.0,0,22,0.0,45.0
3575,64.0,0,22,0.0,45.0
3576,74.0,0,22,0.0,45.0
3577,40.0,0,22,1.0,30.0
3578,67.0,24,22,0.0,45.0
3579,72.0,0,22,0.0,45.0
3580,52.0,0,22,1.0,30.0
3581,65.0,24,22,0.0,45.0
3582,76.0,0,22,0.0,45.0
3583,38.0,0,22,1.0,30.0
3584,50.0,0,22,1.0,30.0
3585,74.0,0,22,0.0,45.0
3586,71.0,24,22,0.0,45.0
3587,67.0,24,22,0.0,45.0
3588,77.0,0,22,0.0,45.0
3589,36.0,0,22,1.0,30.0
3590,48.0,24,22,1.0,30.0
3591,72.0,0,22,0.0,45.0
3592,75.0,0,22,0.0,45.0
3593,77.0,0,22,0.0,45.0
3594,67.0,0,22,0.0,45.0
3595,34.0,0,22,1.0,31.0
3596,46.0,0,22,1.0,32.0
3597,76.0,0,22,0.0,45.0
3598,72.0,24,22,0.0,45.0
3599,69.0,0,22,0.0,45.0
3600,79.0,0,22,0.0,45.0
3601,33.0,24,22,1.0,33.0
3602,77.0,0,22,0.0,45.0
3603,72.0,24,22,0.0,45.0
3604,45.0,0,22,1.0,34.0
3605,34.0,0,22,1.0,35.0
3606,65.0,24,22,0.0,45.0
3607,76.0,0,22,0.0,45.0
3608,70.0,0,22,0.0,45.0
3609,74.0,0,22,0.0,45.0
3610,46.0,24,22,1.0,36.0
3611,65.0,0,22,0.0,45.0
3612,74.0,24,22,0.0,45.0
3613,36.0,0,22,1.0,37.0
3614,48.0,24,22,1.0,38.0
3615,69.0,0,22,0.0,45.0
3616,72.0,0,22,0.0,45.0
3617,36.0,0,22,1.0,39.0
3618,65.0,0,22,0.0,45.0
3619,74.0,24,22,0.0,45.0
3620,72.0,0,22,0.0,45.0
3621,48.0,24,22,1.0,40.0
3622,69.0,0,22,0.0,45.0
3623,72.0,0,22,0.0,45.0
3624,36.0,24,22,1.0,41.0
3625,64.0,0,22,0.0,45.0
3626,67.0,0,22,0.0,45.0
3627,70.0,0,22,0.0,45.0
3628,48.0,24,22,1.0,42.0
3629,64.0,0,22,0.0,45.0
3630,72.0,0,22,0.0,45.0
3631,36.0,24,22,1.0,43.0
3632,48.0,0,22,1.0,44.0
3633,67.0,0,22,0.0,45.0
3634,70.0,24,22,0.0,45.0
3635,37.0,0,22,1.0,45.0
3636,45.0,24,22,1.0,45.0
3637,49.0,24,22,1.0,45.0
3638,67.0,0,94,0.0,45.0
3639,69.0,0,94,0.0,45.0
3640,45.0,24,22,1.0,45.0
3641,64.0,0,94,0.0,45.0
3642,49.0,0,22,1.0,45.0
3643,45.0,24,22,1.0,45.0
3644,69.0,0,46,0.0,45.0
3645,67.0,0,46,0.0,45.0
3646,64.0,24,46,0.0,45.0
3647,81.0,0,22,0.0,45.0
3648,69.0,0,22,0.0,45.0
3649,49.0,24,22,1.0,45.0
3650,37.0,0,46,1.0,45.0
3651,45.0,24,22,1.0,45.0
3652,79.0,0,22,0.0,45.0
3653,76.0,0,22,0.0,45.0
3654,69.0,0,22,0.0,45.0
3655,79.0,0,22,0.0,45.0
3656,50.0,24,22,1.0,45.0
3657,38.0,0,46,1.0,45.0
3658,45.0,24,22,1.0,45.0
3659,77.0,0,22,0.0,45.0
3660,74.0,0,22,0.0,45.0
3661,81.0,0,22,0.0,45.0
3662,69.0,24,22,0.0,45.0
3663,49.0,0,22,1.0,45.0
3664,79.0,24,22,0.0,45.0
3665,76.0,0,22,0.0,45.0
3666,37.0,0,46,1.0,45.0
3667,45.0,0,22,1.0,45.0
3668,50.0,0,22,1.0,45.0
3669,69.0,0,22,0.0,45.0
3670,79.0,0,22,0.0,45.0
3671,45.0,0,22,1.0,45.0
3672,38.0,24,46,1.0,45.0
3673,77.0,0,22,0.0,45.0
3674,74.0,24,22,0.0,45.0
3675,49.0,24,22,1.0,45.0
3676,81.0,0,22,0.0,45.0
3677,69.0,0,22,0.0,45.0
3678,79.0,0,22,0.0,45.0
3679,45.0,0,22,1.0,45.0
3680,37.0,0,46,1.0,45.0
3681,76.0,24,22,0.0,45.0
3682,79.0,0,22,0.0,45.0
3683,69.0,24,22,0.0,45.0
3684,50.0,0,22,1.0,45.0
3685,45.0,0,22,1.0,45.0
3686,38.0,0,46,1.0,45.0
3687,74.0,24,22,0.0,45.0
3688,77.0,0,22,0.0,45.0
3689,77.0,0,22,0.0,45.0
3690,65.0,24,22,0.0,45.0
3691,45.0,0,22,1.0,45.0
3692,75.0,0,22,0.0,45.0
3693,33.0,0,46,1.0,45.0
3694,41.0,0,22,1.0,45.0
3695,72.0,24,22,0.0,45.0
3696,46.0,24,22,1.0,45.0
3697,75.0,0,22,0.0,45.0
3698,65.0,0,22,0.0,45.0
3699,74.0,0,22,0.0,45.0
3700,70.0,0,22,0.0,45.0
3701,34.0,0,46,1.0,45.0
3702,41.0,24,22,1.0,45.0
3703,74.0,0,22,0.0,45.0
3704,42.0,0,22,1.0,45.0
3705,62.0,24,22,0.0,45.0
3706,69.0,24,22,0.0,45.0
3707,72.0,0,22,0.0,45.0
3708,38.0,0,22,1.0,45.0
3709,30.0,0,46,1.0,45.0
3710,72.0,0,22,0.0,45.0
3711,31.0,0,22,1.0,45.0
3712,62.0,24,22,0.0,45.0
3713,43.0,24,22,1.0,45.0
3714,70.0,0,22,0.0,45.0
3715,67.0,0,22,0.0,45.0
3716,29.0,0,22,1.0,45.0
3717,62.0,0,22,0.0,45.0
3718,72.0,24,22,0.0,45.0
3719,41.0,0,22,1.0,45.0
3720,71.0,24,22,0.0,45.0
3721,67.0,0,22,0.0,45.0
3722,64.0,24,22,0.0,45.0
3723,74.0,0,22,0.0,45.0
3724,40.0,0,22,1.0,45.0
3725,52.0,0,22,1.0,45.0
3726,72.0,0,22,0.0,45.0
3727,67.0,24,22,0.0,45.0
3728,76.0,0,22,0.0,45.0
3729,65.0,24,22,0.0,45.0
3730,38.0,0,22,1.0,45.0
3731,71.0,0,22,0.0,45.0
3732,74.0,24,22,0.0,45.0
3733,50.0,0,22,1.0,45.0
3734,77.0,0,22,0.0,45.0
3735,67.0,0,22,0.0,45.0
3736,36.0,24,22,1.0,45.0
3737,75.0,0,22,0.0,45.0
3738,48.0,24,22,1.0,45.0
3739,72.0,0,22,0.0,45.0
3740,67.0,24,22,0.0,45.0
3741,77.0,0,22,0.0,45.0
3742,34.0,0,22,1.0,45.0
3743,72.0,0,22,0.0,45.0
3744,46.0,24,22,1.0,45.0
3745,76.0,0,22,0.0,45.0
3746,69.0,24,22,0.0,45.0
3747,79.0,0,22,0.0,45.0
3748,33.0,0,22,1.0,45.0
3749,72.0,0,22,0.0,45.0
3750,45.0,24,22,1.0,45.0
3751,77.0,0,22,0.0,45.0
3752,81.0,0,22,0.0,45.0
3753,31.0,24,22,1.0,45.0
3754,70.0,0,22,0.0,45.0
3755,43.0,24,22,1.0,45.0
3756,79.0,0,22,0.0,45.0
3757,76.0,0,22,0.0,45.0
3758,72.0,0,22,0.0,45.0
3759,29.0,24,22,1.0,45.0
3760,82.0,0,22,0.0,45.0
3761,81.0,24,22,0.0,45.0
3762,77.0,0,22,0.0,45.0
3763,41.0,0,22,1.0,45.0
3764,39.0,0,22,1.0,45.0
3765,82.0,24,22,0.0,45.0
3766,72.0,0,22,0.0,45.0
3767,51.0,0,22,1.0,45.0
3768,77.0,0,22,0.0,45.0
3769,81.0,24,22,0.0,45.0
3770,74.0,24,22,0.0,45.0
3771,84.0,0,22,0.0,45.0
3772,38.0,0,22,1.0,45.0
3773,50.0,0,22,1.0,45.0
3774,82.0,0,22,0.0,45.0
3775,77.0,24,22,0.0,45.0
3776,75.0,0,22,0.0,45.0
3777,86.0,0,22,0.0,45.0
3778,36.0,24,22,1.0,45.0
3779,48.0,24,22,1.0,45.0
3780,81.0,0,22,0.0,45.0
3781,84.0,0,22,0.0,45.0
3782,77.0,24,22,0.0,63.0
3783,87.0,0,22,0.0,63.0
3784,86.0,0,22,0.0,63.0
3785,82.0,24,22,0.0,63.0
3786,87.0,24,22,0.0,45.0
3787,77.0,0,22,0.0,45.0
3788,86.0,0,22,0.0,45.0
3789,82.0,24,22,0.0,45.0
3790,77.0,24,22,0.0,45.0
3791,87.0,0,22,0.0,45.0
3792,82.0,24,22,0.0,45.0
3793,86.0,0,22,0.0,45.0
3794,77.0,24,22,0.0,45.0
3795,87.0,0,22,0.0,45.0
3796,82.0,24,22,0.0,45.0
3797,86.0,0,22,0.0,45.0
3798,87.0,0,22,0.0,45.0
3799,77.0,24,22,0.0,45.0
3800,82.0,24,22,0.0,45.0
3801,86.0,0,22,0.0,45.0
3802,46.0,0,256,1.0,63.0
3803,34.0,0,256,1.0,63.0
3804,87.0,0,22,0.0,45.0
3805,77.0,24,22,0.0,45.0
3806,86.0,24,22,0.0,45.0
3807,82.0,0,22,0.0,45.0
3808,88.0,0,22,0.0,63.0
3809,77.0,0,22,0.0,63.0
3810,86.0,24,22,0.0,63.0
3811,80.0,0,22,0.0,63.0
3812,77.0,24,22,0.0,45.0
3813,88.0,0,22,0.0,45.0
3814,86.0,24,22,0.0,45.0
3815,80.0,0,22,0.0,45.0
3816,88.0,24,22,0.0,45.0
3817,77.0,0,22,0.0,45.0
3818,86.0,24,22,0.0,46.0
3819,80.0,0,22,0.0,46.0
3820,47.0,24,160,1.0,63.0
3821,35.0,0,160,1.0,63.0
3822,88.0,24,22,0.0,48.0
3823,77.0,0,22,0.0,48.0
3824,80.0,0,22,0.0,50.0
3825,86.0,24,22,0.0,50.0
3826,88.0,0,22,0.0,52.0
3827,77.0,0,22,0.0,52.0
3828,35.0,24,32,1.0,45.0
3829,80.0,24,22,0.0,54.0
3830,86.0,0,22,0.0,54.0
3831,77.0,24,22,0.0,56.0
3832,88.0,0,22,0.0,56.0
3833,80.0,24,22,0.0,58.0
3834,86.0,0,22,0.0,58.0
3835,77.0,0,22,0.0,60.0
3836,86.0,24,22,0.0,60.0
3837,81.0,24,22,0.0,60.0
3838,84.0,0,22,0.0,60.0
3839,86.0,0,22,0.0,60.0
3840,77.0,24,22,0.0,60.0
3841,81.0,24,22,0.0,60.0
3842,84.0,0,22,0.0,60.0
3843,36.0,0,94,1.0,60.0
3844,72.0,24,22,0.0,60.0
3845,82.0,0,22,0.0,60.0
3846,36.0,0,46,1.0,60.0
3847,81.0,24,22,0.0,60.0
3848,77.0,0,22,0.0,60.0
3849,38.0,24,22,1.0,60.0
3850,82.0,0,22,0.0,60.0
3851,72.0,0,22,0.0,60.0
3852,81.0,0,22,0.0,60.0
3853,77.0,24,22,0.0,60.0
3854,40.0,0,22,1.0,60.0
3855,69.0,0,22,0.0,60.0
3856,41.0,24,22,1.0,60.0
3857,79.0,0,22,0.0,60.0
3858,43.0,24,22,1.0,60.0
3859,72.0,0,22,0.0,60.0
3860,77.0,0,22,0.0,60.0
3861,79.0,0,22,0.0,60.0
3862,69.0,0,22,0.0,60.0
3863,45.0,24,22,1.0,60.0
3864,72.0,0,22,0.0,60.0
3865,77.0,0,22,0.0,60.0
3866,47.0,24,22,1.0,60.0
3867,76.0,0,22,0.0,60.0
3868,84.0,0,22,0.0,60.0
3869,82.0,0,22,0.0,60.0
3870,79.0,24,22,0.0,60.0
3871,84.0,24,22,0.0,60.0
3872,76.0,0,22,0.0,60.0
3873,82.0,0,22,0.0,60.0
3874,48.0,24,94,1.0,60.0
3875,79.0,24,22,0.0,60.0
3876,48.0,24,22,1.0,60.0
3877,81.0,0,22,0.0,60.0
3878,70.0,0,22,0.0,60.0
3879,50.0,0,22,1.0,60.0
3880,79.0,24,22,0.0,60.0
3881,76.0,0,22,0.0,60.0
3882,81.0,24,22,0.0,60.0
3883,70.0,0,22,0.0,60.0
3884,52.0,0,22,1.0,60.0
3885,79.0,24,22,0.0,60.0
3886,76.0,0,22,0.0,60.0
3887,53.0,0,22,1.0,60.0
3888,77.0,24,22,0.0,60.0
3889,67.0,0,22,0.0,60.0
3890,55.0,0,22,1.0,60.0
3891,57.0,24,22,1.0,60.0
3892,76.0,0,22,0.0,60.0
3893,72.0,0,22,0.0,60.0
3894,58.0,24,22,1.0,60.0
3895,77.0,0,22,0.0,60.0
3896,67.0,0,22,0.0,60.0
3897,76.0,0,22,0.0,60.0
3898,55.0,24,22,1.0,60.0
3899,48.0,0,94,1.0,60.0
3900,72.0,0,22,0.0,60.0
3901,41.0,0,22,1.0,45.0
3902,48.0,24,22,1.0,45.0
3903,53.0,24,22,1.0,45.0
3904,48.0,24,22,1.0,45.0
3905,77.0,0,94,0.0,60.0
3906,69.0,24,94,0.0,60.0
3907,41.0,24,22,1.0,45.0
3908,48.0,24,22,1.0,45.0
3909,57.0,24,22,1.0,45.0
3910,48.0,24,22,1.0,45.0
3911,41.0,0,22,1.0,45.0
3912,48.0,24,22,1.0,45.0
3913,72.0,24,70,0.0,60.0
3914,53.0,24,22,1.0,45.0
3915,48.0,24,22,1.0,45.0
3916,69.0,0,22,0.0,60.0
3917,41.0,24,22,1.0,45.0
3918,48.0,24,22,1.0,45.0
3919,55.0,24,22,1.0,45.0
3920,70.0,0,94,0.0,60.0
3921,48.0,24,22,1.0,45.0
3922,41.0,0,22,1.0,45.0
3923,67.0,24,32,0.0,60.0
3924,48.0,24,22,1.0,45.0
3925,52.0,24,22,1.0,45.0
3926,48.0,24,22,1.0,45.0
3927,41.0,24,22,1.0,45.0
3928,48.0,24,22,1.0,45.0
3929,79.0,0,70,0.0,60.0
3930,58.0,24,22,1.0,45.0
3931,76.0,24,22,0.0,60.0
3932,48.0,0,22,1.0,45.0
3933,41.0,24,22,1.0,45.0
3934,48.0,24,22,1.0,45.0
3935,57.0,24,22,1.0,45.0
3936,48.0,24,22,1.0,45.0
3937,77.0,0,94,0.0,60.0
3938,41.0,24,22,1.0,45.0
3939,72.0,0,32,0.0,60.0
3940,48.0,24,22,1.0,45.0
3941,53.0,24,22,1.0,45.0
3942,48.0,24,22,1.0,45.0
3943,72.0,0,22,0.0,60.0
3944,41.0,24,22,1.0,45.0
3945,69.0,0,22,0.0,60.0
3946,48.0,24,22,1.0,45.0
3947,53.0,0,22,1.0,45.0
3948,72.0,24,22,0.0,60.0
3949,48.0,0,22,1.0,45.0
3950,69.0,24,22,0.0,60.0
3951,41.0,24,22,1.0,45.0
3952,48.0,24,22,1.0,45.0
3953,52.0,24,22,1.0,45.0
3954,48.0,24,22,1.0,45.0
3955,70.0,0,94,0.0,60.0
3956,41.0,0,22,1.0,45.0
3957,67.0,24,32,0.0,60.0
3958,48.0,24,22,1.0,45.0
3959,52.0,24,22,1.0,45.0
3960,48.0,24,22,1.0,45.0
3961,41.0,0,22,1.0,45.0
3962,79.0,24,22,0.0,60.0
3963,48.0,24,22,1.0,45.0
3964,76.0,0,22,0.0,60.0
3965,58.0,24,22,1.0,45.0
3966,79.0,0,22,0.0,60.0
3967,76.0,0,22,0.0,60.0
3968,48.0,24,22,1.0,45.0
3969,41.0,0,22,1.0,45.0
3970,48.0,24,22,1.0,45.0
3971,57.0,24,22,1.0,45.0
3972,77.0,24,94,0.0,60.0
3973,48.0,24,22,1.0,45.0
3974,41.0,0,22,1.0,45.0
3975,72.0,24,32,0.0,60.0
3976,48.0,24,22,1.0,45.0
3977,57.0,24,22,1.0,45.0
3978,48.0,24,22,1.0,45.0
3979,79.0,24,22,0.0,60.0
3980,41.0,0,22,1.0,45.0
3981,76.0,24,22,0.0,60.0
3982,48.0,0,22,1.0,45.0
3983,79.0,24,22,0.0,60.0
3984,58.0,0,22,1.0,45.0
3985,48.0,0,22,1.0,45.0
3986,76.0,24,22,0.0,60.0
3987,41.0,24,22,1.0,45.0
3988,48.0,24,22,1.0,45.0
3989,57.0,24,22,1.0,45.0
3990,77.0,0,94,0.0,60.0
3991,48.0,24,22,1.0,45.0
3992,41.0,24,22,1.0,45.0
3993,72.0,0,32,0.0,60.0
3994,48.0,24,22,1.0,45.0
3995,57.0,24,22,1.0,45.0
3996,48.0,24,22,1.0,45.0
3997,79.0,0,22,0.0,60.0
3998,41.0,24,22,1.0,45.0
3999,48.0,0,22,1.0,45.0
4000,76.0,24,22,0.0,60.0
4001,58.0,24,22,1.0,45.0
4002,79.0,0,22,0.0,60.0
4003,48.0,24,22,1.0,45.0
4004,76.0,0,22,0.0,60.0
4005,41.0,0,22,1.0,45.0
4006,48.0,24,22,1.0,45.0
4007,57.0,24,22,1.0,45.0
4008,77.0,24,94,0.0,60.0
4009,48.0,24,22,1.0,45.0
4010,41.0,24,22,1.0,45.0
4011,72.0,0,32,0.0,60.0
4012,48.0,24,22,1.0,45.0
4013,53.0,24,22,1.0,45.0
4014,48.0,24,22,1.0,45.0
4015,81.0,24,22,0.0,60.0
4016,41.0,0,22,1.0,45.0
4017,45.0,24,22,1.0,45.0
4018,77.0,0,22,0.0,60.0
4019,48.0,24,22,1.0,45.0
4020,81.0,0,22,0.0,60.0
4021,77.0,24,22,0.0,60.0
4022,45.0,0,22,1.0,45.0
4023,41.0,0,22,1.0,45.0
4024,45.0,24,22,1.0,45.0
4025,48.0,24,22,1.0,45.0
4026,45.0,24,22,1.0,45.0
4027,81.0,24,94,0.0,60.0
4028,36.0,0,22,1.0,45.0
4029,77.0,24,32,0.0,60.0
4030,41.0,24,22,1.0,45.0
4031,45.0,24,22,1.0,45.0
4032,41.0,24,22,1.0,45.0
4033,84.0,0,22,0.0,60.0
4034,33.0,24,22,1.0,45.0
4035,36.0,0,22,1.0,45.0
4036,81.0,24,22,0.0,60.0
4037,84.0,0,22,0.0,60.0
4038,41.0,24,22,1.0,45.0
4039,81.0,0,22,0.0,60.0
4040,36.0,24,22,1.0,45.0
4041,29.0,24,22,1.0,45.0
4042,33.0,24,22,1.0,45.0
4043,36.0,24,22,1.0,45.0
4044,33.0,24,22,1.0,45.0
4045,89.0,0,94,0.0,60.0
4046,29.0,24,22,1.0,45.0
4047,84.0,0,32,0.0,58.0
4048,33.0,24,22,1.0,45.0
4049,36.0,24,22,1.0,45.0
4050,33.0,24,22,1.0,45.0
4051,89.0,0,22,0.0,56.0
4052,29.0,24,22,1.0,45.0
4053,84.0,0,22,0.0,56.0
4054,33.0,24,22,1.0,45.0
4055,89.0,24,22,0.0,56.0
4056,36.0,0,22,1.0,44.0
4057,33.0,0,22,1.0,43.0
4058,84.0,24,22,0.0,56.0
4059,29.0,0,22,1.0,42.0
4060,33.0,24,22,1.0,41.0
4061,36.0,24,22,1.0,40.0
4062,89.0,24,94,0.0,56.0
4063,33.0,24,22,1.0,39.0
4064,29.0,24,22,1.0,38.0
4065,84.0,0,32,0.0,53.0
4066,33.0,24,22,1.0,37.0
4067,36.0,24,22,1.0,36.0
4068,33.0,24,22,1.0,35.0
4069,89.0,0,22,0.0,49.0
4070,29.0,24,22,1.0,34.0
4071,33.0,24,22,1.0,33.0
4072,84.0,0,22,0.0,48.0
4073,89.0,0,22,0.0,47.0
4074,36.0,24,22,1.0,32.0
4075,33.0,24,22,1.0,31.0
4076,84.0,0,22,0.0,46.0
4077,29.0,24,22,1.0,30.0
4078,89.0,0,32,0.0,45.0
4079,33.0,24,22,1.0,30.0
4080,36.0,24,22,1.0,30.0
4081,33.0,24,22,1.0,30.0
4082,29.0,24,22,1.0,30.0
4083,89.0,0,32,0.0,45.0
4084,33.0,24,22,1.0,30.0
4085,36.0,24,22,1.0,30.0
4086,33.0,24,22,1.0,30.0
4087,29.0,24,22,1.0,30.0
4088,89.0,0,32,0.0,45.0
4089,33.0,24,22,1.0,30.0
4090,36.0,24,22,1.0,30.0
4091,33.0,24,22,1.0,30.0
4092,29.0,0,22,1.0,10.0
4093,33.0,24,22,1.0,10.0
4094,36.0,24,22,1.0,10.0
4095,89.0,24,94,0.0,30.0
4096,33.0,24,22,1.0,10.0
4097,29.0,24,22,1.0,10.0
4098,33.0,24,22,1.0,10.0
4099,36.0,24,22,1.0,10.0
4100,33.0,24,22,1.0,10.0
4101,29.0,24,22,1.0,10.0
4102,33.0,24,22,1.0,10.0
4103,36.0,24,22,1.0,10.0
4104,33.0,24,22,1.0,10.0
4105,29.0,24,32,1.0,10.0
4106,29.0,96,32,1.0,18.0
4107,41.0,0,32,1.0,18.0
4108,53.0,0,32,0.0,35.0
4109,41.0,0,32,1.0,26.0
4110,29.0,96,32,1.0,26.0
4111,53.0,0,32,0.0,40.0
4112,53.0,0,32,0.0,45.0
4113,29.0,96,32,1.0,34.0
4114,41.0,0,32,1.0,34.0
4115,29.0,0,32,1.0,42.0
4116,41.0,96,32,1.0,42.0
4117,53.0,0,32,0.0,50.0
4118,29.0,96,94,1.0,51.0
4119,41.0,0,94,1.0,51.0
4120,53.0,0,94,0.0,55.0
4121,54.0,96,160,0.0,60.0
4122,42.0,0,256,1.0,60.0
4123,30.0,0,256,1.0,60.0
4124,73.0,192,70,0.0,60.0
4125,66.0,0,94,0.0,60.0
4126,70.0,0,94,0.0,60.0
4127,75.0,72,22,0.0,60.0
4128,73.0,0,94,0.0,60.0
4129,68.0,0,160,0.0,60.0
4130,65.0,24,160,0.0,60.0
4131,71.0,96,94,0.0,60.0
4132,42.0,0,256,1.0,60.0
4133,30.0,0,256,1.0,60.0
4134,71.0,96,70,0.0,60.0
4135,65.0,0,94,0.0,60.0
4136,73.0,72,22,0.0,60.0
4137,68.0,0,94,0.0,60.0
4138,71.0,0,94,0.0,60.0
4139,66.0,0,160,0.0,60.0
4140,42.0,24,160,1.0,60.0
4141,30.0,0,160,1.0,60.0
4142,61.0,0,160,0.0,60.0
4143,70.0,96,94,0.0,60.0
4144,70.0,0,70,0.0,60.0
4145,60.0,0,94,0.0,60.0
4146,67.0,0,94,0.0,60.0
4147,72.0,72,22,0.0,62.0
4148,52.0,96,94,1.0,60.0
4149,40.0,0,94,1.0,60.0
4150,70.0,0,94,0.0,62.0
4151,60.0,0,160,0.0,62.0
4152,65.0,0,160,0.0,62.0
4153,41.0,0,160,1.0,63.0
4154,53.0,24,160,1.0,63.0
4155,69.0,96,94,0.0,65.0
4156,69.0,0,70,0.0,68.0
4157,50.0,0,94,1.0,70.0
4158,38.0,0,94,1.0,70.0
4159,62.0,96,94,0.0,68.0
4160,65.0,0,94,0.0,68.0
4161,70.0,72,22,0.0,71.0
4162,69.0,0,94,0.0,72.0
4163,65.0,0,160,0.0,72.0
4164,46.0,0,160,1.0,73.0
4165,34.0,0,160,1.0,73.0
4166,62.0,24,160,0.0,72.0
4167,67.0,96,94,0.0,76.0
4168,67.0,0,70,0.0,80.0
4169,64.0,0,94,0.0,80.0
4170,58.0,96,94,0.0,80.0
4171,36.0,0,94,1.0,80.0
4172,48.0,0,94,1.0,80.0
4173,69.0,72,22,0.0,83.0
4174,29.0,0,160,1.0,84.0
4175,41.0,0,160,1.0,84.0
4176,65.0,24,160,0.0,84.0
4177,57.0,0,160,0.0,84.0
4178,67.0,0,70,0.0,92.0
4179,76.0,0,94,0.0,92.0
4180,70.0,0,94,0.0,92.0
4181,41.0,0,94,1.0,92.0
4182,29.0,192,94,1.0,92.0
4183,72.0,72,22,0.0,92.0
4184,65.0,0,142,0.0,92.0
4185,69.0,0,160,0.0,92.0
4186,77.0,0,160,0.0,92.0
4187,29.0,24,160,1.0,92.0
4188,41.0,0,160,1.0,92.0
4189,72.0,144,46,0.0,92.0
4190,82.0,48,70,0.0,45.0
4191,79.0,0,94,0.0,45.0
4192,84.0,72,22,0.0,45.0
4193,76.0,0,94,0.0,45.0
4194,29.0,0,94,1.0,45.0
4195,41.0,0,94,1.0,45.0
4196,29.0,0,160,1.0,45.0
4197,41.0,24,160,1.0,45.0
4198,72.0,0,160,0.0,45.0
4199,77.0,0,160,0.0,45.0
4200,81.0,0,160,0.0,45.0
4201,79.0,0,70,0.0,92.0
4202,82.0,0,94,0.0,92.0
4203,88.0,0,94,0.0,92.0
4204,84.0,72,22,0.0,92.0
4205,29.0,0,94,1.0,92.0
4206,41.0,192,94,1.0,92.0
4207,77.0,0,142,0.0,92.0
4208,29.0,24,160,1.0,92.0
4209,41.0,0,160,1.0,92.0
4210,81.0,0,160,0.0,92.0
4211,89.0,0,160,0.0,92.0
4212,84.0,144,46,0.0,92.0
4213,79.0,0,70,0.0,45.0
4214,84.0,72,22,0.0,45.0
4215,82.0,0,94,0.0,45.0
4216,29.0,0,94,1.0,45.0
4217,41.0,48,94,1.0,45.0
4218,88.0,0,94,0.0,45.0
4219,77.0,0,70,0.0,45.0
4220,84.0,72,22,0.0,46.0
4221,41.0,24,94,1.0,30.0
4222,29.0,0,94,1.0,30.0
4223,81.0,0,94,0.0,45.0
4224,89.0,0,94,0.0,45.0
4225,79.0,0,70,0.0,46.0
4226,29.0,0,94,1.0,32.0
4227,41.0,24,94,1.0,32.0
4228,82.0,0,94,0.0,46.0
4229,88.0,0,94,0.0,46.0
4230,84.0,72,22,0.0,48.0
4231,77.0,0,70,0.0,48.0
4232,84.0,72,22,0.0,50.0
4233,81.0,0,94,0.0,48.0
4234,41.0,0,94,1.0,34.0
4235,29.0,24,94,1.0,34.0
4236,89.0,0,94,0.0,48.0
4237,79.0,0,70,0.0,50.0
4238,41.0,0,94,1.0,36.0
4239,29.0,24,94,1.0,36.0
4240,84.0,72,22,0.0,52.0
4241,88.0,0,94,0.0,50.0
4242,82.0,0,94,0.0,50.0
4243,77.0,0,70,0.0,52.0
4244,81.0,24,94,0.0,52.0
4245,29.0,0,94,1.0,39.0
4246,41.0,0,94,1.0,39.0
4247,84.0,72,22,0.0,55.0
4248,89.0,0,94,0.0,52.0
4249,79.0,0,70,0.0,56.0
4250,84.0,72,22,0.0,59.0
4251,88.0,0,94,0.0,56.0
4252,82.0,0,94,0.0,56.0
4253,41.0,0,94,1.0,42.0
4254,29.0,24,94,1.0,42.0
4255,29.0,0,94,1.0,45.0
4256,77.0,0,94,0.0,60.0
4257,81.0,0,94,0.0,60.0
4258,89.0,0,94,0.0,60.0
4259,41.0,24,94,1.0,45.0
4260,69.0,192,32,0.0,60.0
4261,72.0,0,32,0.0,60.0
4262,60.0,0,32,1.0,45.0
4263,57.0,0,32,1.0,45.0
4264,65.0,0,32,0.0,60.0
4265,69.0,0,32,0.0,60.0
4266,57.0,96,32,1.0,45.0
4267,53.0,0,32,1.0,45.0
