,note,step,duration,channel,velocity
0,55.0,0,120,8.0,117.0
1,63.0,0,120,8.0,117.0
2,51.0,0,120,6.0,127.0
3,39.0,473,30,7.0,106.0
4,43.0,30,30,7.0,106.0
5,46.0,30,30,7.0,106.0
6,87.0,0,600,0.0,94.0
7,75.0,0,600,8.0,117.0
8,79.0,0,600,0.0,94.0
9,51.0,30,30,7.0,106.0
10,63.0,0,600,5.0,104.0
11,79.0,0,600,1.0,98.0
12,75.0,0,600,1.0,98.0
13,75.0,1,600,5.0,104.0
14,55.0,0,600,10.0,112.0
15,67.0,0,600,2.0,94.0
16,63.0,0,600,10.0,112.0
17,63.0,1,600,4.0,107.0
18,55.0,0,600,4.0,107.0
19,75.0,0,600,2.0,94.0
20,55.0,2,600,11.0,117.0
21,51.0,0,600,11.0,117.0
22,39.0,1,600,12.0,117.0
23,51.0,0,600,3.0,110.0
24,55.0,1,600,3.0,110.0
25,39.0,1,600,13.0,127.0
26,55.0,30,20,7.0,106.0
27,58.0,20,20,7.0,106.0
28,63.0,20,20,7.0,106.0
29,67.0,20,24,7.0,106.0
30,55.0,24,24,7.0,106.0
31,58.0,24,24,7.0,106.0
32,63.0,24,24,7.0,106.0
33,67.0,24,24,7.0,106.0
34,51.0,24,30,7.0,106.0
35,55.0,30,30,7.0,106.0
36,58.0,30,30,7.0,106.0
37,63.0,30,30,7.0,106.0
38,67.0,30,20,7.0,106.0
39,70.0,20,20,7.0,106.0
40,75.0,20,20,7.0,106.0
41,67.0,20,24,7.0,106.0
42,79.0,24,24,7.0,106.0
43,70.0,24,24,7.0,106.0
44,75.0,24,24,7.0,106.0
45,79.0,24,24,7.0,106.0
46,63.0,24,30,7.0,106.0
47,67.0,30,30,7.0,106.0
48,70.0,30,30,7.0,106.0
49,75.0,30,30,7.0,106.0
50,79.0,30,17,7.0,106.0
51,82.0,17,17,7.0,106.0
52,87.0,18,17,7.0,106.0
53,91.0,17,17,7.0,106.0
54,82.0,15,17,7.0,106.0
55,87.0,18,17,7.0,106.0
56,91.0,17,17,7.0,106.0
57,94.0,18,30,7.0,106.0
58,93.0,30,30,7.0,106.0
59,94.0,30,30,7.0,106.0
60,93.0,30,30,7.0,106.0
61,94.0,30,30,7.0,106.0
62,93.0,30,30,7.0,106.0
63,94.0,30,30,7.0,106.0
64,93.0,30,30,7.0,106.0
65,94.0,30,30,7.0,106.0
66,93.0,30,30,7.0,106.0
67,94.0,30,30,7.0,106.0
68,93.0,30,30,7.0,106.0
69,94.0,30,30,7.0,106.0
70,93.0,30,30,7.0,106.0
71,94.0,30,30,7.0,106.0
72,93.0,30,30,7.0,106.0
73,94.0,30,30,7.0,106.0
74,86.0,30,30,7.0,106.0
75,89.0,30,30,7.0,106.0
76,87.0,30,30,7.0,106.0
77,91.0,30,30,7.0,106.0
78,81.0,30,30,7.0,106.0
79,84.0,30,30,7.0,106.0
80,82.0,30,30,7.0,106.0
81,87.0,30,30,7.0,106.0
82,78.0,30,30,7.0,106.0
83,80.0,30,30,7.0,106.0
84,79.0,30,30,7.0,106.0
85,82.0,30,30,7.0,106.0
86,74.0,30,30,7.0,106.0
87,77.0,30,30,7.0,106.0
88,75.0,30,30,7.0,106.0
89,79.0,30,30,7.0,106.0
90,69.0,30,30,7.0,106.0
91,72.0,30,30,7.0,106.0
92,70.0,30,30,7.0,106.0
93,75.0,30,30,7.0,106.0
94,66.0,30,30,7.0,106.0
95,68.0,30,30,7.0,106.0
96,67.0,30,30,7.0,106.0
97,70.0,30,30,7.0,106.0
98,62.0,30,30,7.0,106.0
99,65.0,30,30,7.0,106.0
100,63.0,30,30,7.0,106.0
101,65.0,30,20,7.0,106.0
102,63.0,20,20,7.0,106.0
103,65.0,20,20,7.0,106.0
104,63.0,20,20,7.0,106.0
105,65.0,20,20,7.0,106.0
106,63.0,20,20,7.0,106.0
107,65.0,20,20,7.0,106.0
108,63.0,20,20,7.0,106.0
109,65.0,20,20,7.0,106.0
110,63.0,20,20,7.0,106.0
111,65.0,20,20,7.0,106.0
112,63.0,20,20,7.0,106.0
113,65.0,20,20,7.0,106.0
114,63.0,20,20,7.0,106.0
115,65.0,20,20,7.0,106.0
116,63.0,20,20,7.0,106.0
117,65.0,20,20,7.0,106.0
118,63.0,20,20,7.0,106.0
119,65.0,20,20,7.0,106.0
120,63.0,20,20,7.0,106.0
121,65.0,20,20,7.0,106.0
122,63.0,20,20,7.0,106.0
123,65.0,20,20,7.0,106.0
124,63.0,20,20,7.0,106.0
125,65.0,20,20,7.0,106.0
126,63.0,20,20,7.0,106.0
127,65.0,20,20,7.0,106.0
128,63.0,20,20,7.0,106.0
129,65.0,20,20,7.0,106.0
130,63.0,20,20,7.0,106.0
131,65.0,20,20,7.0,106.0
132,63.0,20,20,7.0,106.0
133,65.0,20,20,7.0,106.0
134,63.0,20,20,7.0,106.0
135,65.0,20,20,7.0,106.0
136,63.0,20,20,7.0,106.0
137,62.0,20,30,7.0,106.0
138,63.0,30,30,7.0,106.0
139,65.0,30,30,7.0,106.0
140,67.0,30,30,7.0,106.0
141,68.0,30,30,7.0,106.0
142,70.0,30,30,7.0,106.0
143,72.0,30,30,7.0,106.0
144,74.0,30,30,7.0,106.0
145,75.0,30,30,7.0,106.0
146,77.0,30,30,7.0,106.0
147,79.0,30,30,7.0,106.0
148,80.0,30,30,7.0,106.0
149,82.0,30,30,7.0,106.0
150,80.0,30,30,7.0,106.0
151,79.0,30,30,7.0,106.0
152,80.0,30,30,7.0,106.0
153,84.0,30,60,7.0,106.0
154,82.0,60,60,7.0,106.0
155,80.0,60,60,7.0,106.0
156,79.0,60,0,7.0,106.0
157,77.0,60,60,7.0,106.0
158,75.0,60,60,7.0,106.0
159,74.0,60,60,7.0,106.0
160,44.0,0,120,7.0,106.0
161,72.0,60,120,7.0,106.0
162,32.0,0,120,7.0,106.0
163,63.0,0,120,7.0,106.0
164,60.0,0,120,7.0,106.0
165,36.0,0,120,7.0,106.0
166,68.0,0,120,8.0,117.0
167,75.0,0,120,8.0,117.0
168,68.0,0,120,7.0,106.0
169,39.0,0,120,7.0,106.0
170,51.0,0,120,6.0,122.0
171,32.0,473,30,7.0,106.0
172,36.0,30,30,7.0,106.0
173,39.0,30,30,7.0,106.0
174,48.0,0,20,7.0,106.0
175,84.0,0,600,0.0,94.0
176,80.0,0,600,0.0,94.0
177,44.0,30,30,7.0,106.0
178,84.0,0,600,8.0,117.0
179,80.0,0,600,1.0,98.0
180,72.0,1,600,1.0,98.0
181,75.0,0,600,5.0,104.0
182,63.0,0,600,5.0,104.0
183,63.0,0,600,4.0,107.0
184,72.0,0,600,2.0,94.0
185,68.0,1,600,2.0,94.0
186,80.0,0,600,10.0,112.0
187,72.0,0,600,10.0,112.0
188,51.0,0,600,4.0,107.0
189,68.0,2,600,11.0,117.0
190,56.0,0,600,11.0,117.0
191,44.0,1,600,12.0,117.0
192,56.0,0,600,3.0,110.0
193,60.0,1,600,3.0,110.0
194,32.0,1,600,13.0,127.0
195,51.0,20,20,7.0,106.0
196,56.0,20,20,7.0,106.0
197,60.0,20,24,7.0,106.0
198,48.0,24,24,7.0,106.0
199,51.0,24,24,7.0,106.0
200,56.0,24,24,7.0,106.0
201,60.0,24,24,7.0,106.0
202,44.0,24,30,7.0,106.0
203,48.0,30,30,7.0,106.0
204,51.0,30,30,7.0,106.0
205,60.0,30,20,7.0,106.0
206,56.0,0,30,7.0,106.0
207,63.0,20,20,7.0,106.0
208,68.0,20,20,7.0,106.0
209,72.0,24,24,7.0,106.0
210,60.0,24,24,7.0,106.0
211,63.0,24,24,7.0,106.0
212,68.0,24,24,7.0,106.0
213,72.0,24,24,7.0,106.0
214,56.0,20,30,7.0,106.0
215,60.0,30,30,7.0,106.0
216,63.0,30,30,7.0,106.0
217,72.0,30,20,7.0,106.0
218,68.0,0,30,7.0,106.0
219,75.0,20,20,7.0,106.0
220,80.0,20,20,7.0,106.0
221,84.0,20,30,7.0,106.0
222,72.0,30,30,7.0,106.0
223,75.0,30,30,7.0,106.0
224,80.0,30,30,7.0,106.0
225,84.0,30,20,7.0,106.0
226,87.0,20,20,7.0,106.0
227,92.0,20,20,7.0,106.0
228,96.0,20,30,7.0,106.0
229,95.0,30,30,7.0,106.0
230,96.0,30,30,7.0,106.0
231,95.0,30,30,7.0,106.0
232,96.0,30,30,7.0,106.0
233,91.0,0,30,7.0,106.0
234,86.0,30,30,7.0,106.0
235,92.0,0,30,7.0,106.0
236,87.0,30,30,7.0,106.0
237,86.0,30,30,7.0,106.0
238,91.0,0,30,7.0,106.0
239,87.0,0,30,7.0,106.0
240,92.0,30,30,7.0,106.0
241,79.0,0,30,7.0,106.0
242,83.0,30,30,7.0,106.0
243,80.0,30,30,7.0,106.0
244,84.0,0,30,7.0,106.0
245,79.0,30,30,7.0,106.0
246,83.0,0,30,7.0,106.0
247,80.0,30,30,7.0,106.0
248,84.0,0,30,7.0,106.0
249,79.0,30,30,7.0,106.0
250,71.0,0,30,7.0,106.0
251,80.0,30,30,7.0,106.0
252,72.0,0,30,7.0,106.0
253,71.0,30,30,7.0,106.0
254,79.0,0,30,7.0,106.0
255,72.0,30,30,7.0,106.0
256,80.0,0,30,7.0,106.0
257,71.0,30,30,7.0,106.0
258,67.0,0,30,7.0,106.0
259,68.0,30,30,7.0,106.0
260,72.0,0,30,7.0,106.0
261,67.0,30,30,7.0,106.0
262,71.0,0,30,7.0,106.0
263,68.0,30,30,7.0,106.0
264,72.0,0,30,7.0,106.0
265,67.0,30,30,7.0,106.0
266,59.0,0,30,7.0,106.0
267,68.0,0,30,7.0,106.0
268,60.0,30,30,7.0,106.0
269,67.0,0,30,7.0,106.0
270,59.0,30,30,7.0,106.0
271,68.0,0,30,7.0,106.0
272,60.0,30,30,7.0,106.0
273,55.0,30,30,7.0,106.0
274,59.0,0,30,7.0,106.0
275,60.0,0,30,7.0,106.0
276,56.0,30,30,7.0,106.0
277,59.0,30,30,7.0,106.0
278,55.0,0,30,7.0,106.0
279,60.0,30,30,7.0,106.0
280,56.0,0,30,7.0,106.0
281,58.0,0,20,7.0,106.0
282,62.0,30,20,7.0,106.0
283,56.0,0,20,7.0,106.0
284,60.0,20,20,7.0,106.0
285,58.0,0,20,7.0,106.0
286,62.0,20,20,7.0,106.0
287,56.0,20,20,7.0,106.0
288,60.0,0,20,7.0,106.0
289,62.0,20,20,7.0,106.0
290,58.0,0,20,7.0,106.0
291,60.0,20,20,7.0,106.0
292,56.0,0,20,7.0,106.0
293,58.0,0,20,7.0,106.0
294,62.0,20,20,7.0,106.0
295,60.0,20,20,7.0,106.0
296,56.0,0,20,7.0,106.0
297,62.0,0,20,7.0,106.0
298,58.0,20,20,7.0,106.0
299,60.0,0,20,7.0,106.0
300,56.0,20,20,7.0,106.0
301,58.0,20,20,7.0,106.0
302,62.0,0,20,7.0,106.0
303,60.0,0,20,7.0,106.0
304,56.0,20,20,7.0,106.0
305,62.0,0,20,7.0,106.0
306,58.0,20,20,7.0,106.0
307,60.0,20,20,7.0,106.0
308,56.0,0,20,7.0,106.0
309,58.0,0,20,7.0,106.0
310,62.0,20,20,7.0,106.0
311,56.0,0,20,7.0,106.0
312,60.0,20,20,7.0,106.0
313,58.0,20,20,7.0,106.0
314,62.0,0,20,7.0,106.0
315,60.0,20,20,7.0,106.0
316,56.0,0,20,7.0,106.0
317,62.0,0,20,7.0,106.0
318,58.0,20,20,7.0,106.0
319,60.0,20,20,7.0,106.0
320,56.0,0,20,7.0,106.0
321,58.0,0,20,7.0,106.0
322,62.0,20,20,7.0,106.0
323,60.0,20,20,7.0,106.0
324,56.0,0,20,7.0,106.0
325,59.0,20,30,7.0,106.0
326,55.0,0,30,7.0,106.0
327,60.0,30,30,7.0,106.0
328,56.0,0,30,7.0,106.0
329,58.0,0,30,7.0,106.0
330,62.0,30,30,7.0,106.0
331,60.0,0,30,7.0,106.0
332,63.0,30,30,7.0,106.0
333,62.0,30,30,7.0,106.0
334,65.0,0,30,7.0,106.0
335,63.0,30,30,7.0,106.0
336,67.0,0,30,7.0,106.0
337,65.0,0,30,7.0,106.0
338,68.0,30,30,7.0,106.0
339,67.0,30,30,7.0,106.0
340,70.0,30,0,7.0,106.0
341,74.0,0,20,7.0,106.0
342,68.0,0,20,7.0,106.0
343,72.0,19,20,7.0,106.0
344,74.0,0,20,7.0,106.0
345,70.0,20,20,7.0,106.0
346,68.0,0,20,7.0,106.0
347,72.0,20,20,7.0,106.0
348,74.0,20,20,7.0,106.0
349,70.0,0,20,7.0,106.0
350,72.0,0,20,7.0,106.0
351,68.0,20,20,7.0,106.0
352,70.0,20,20,7.0,106.0
353,74.0,0,20,7.0,106.0
354,72.0,0,20,7.0,106.0
355,68.0,20,20,7.0,106.0
356,70.0,0,20,7.0,106.0
357,74.0,20,20,7.0,106.0
358,68.0,0,20,7.0,106.0
359,72.0,20,20,7.0,106.0
360,70.0,0,20,7.0,106.0
361,74.0,20,20,7.0,106.0
362,68.0,20,20,7.0,106.0
363,72.0,0,20,7.0,106.0
364,74.0,0,20,7.0,106.0
365,70.0,20,20,7.0,106.0
366,72.0,0,20,7.0,106.0
367,68.0,20,20,7.0,106.0
368,74.0,20,20,7.0,106.0
369,70.0,0,20,7.0,106.0
370,72.0,0,20,7.0,106.0
371,68.0,20,20,7.0,106.0
372,74.0,20,20,7.0,106.0
373,70.0,0,20,7.0,106.0
374,72.0,20,20,7.0,106.0
375,68.0,0,20,7.0,106.0
376,70.0,20,20,7.0,106.0
377,74.0,0,20,7.0,106.0
378,72.0,20,20,7.0,106.0
379,68.0,0,20,7.0,106.0
380,74.0,0,20,7.0,106.0
381,70.0,20,20,7.0,106.0
382,72.0,0,20,7.0,106.0
383,68.0,19,20,7.0,106.0
384,74.0,20,20,7.0,106.0
385,70.0,0,20,7.0,106.0
386,68.0,20,20,7.0,106.0
387,72.0,0,20,7.0,106.0
388,70.0,0,20,7.0,106.0
389,74.0,22,20,7.0,106.0
390,72.0,0,20,7.0,106.0
391,68.0,20,20,7.0,106.0
392,71.0,0,30,7.0,106.0
393,67.0,20,30,7.0,106.0
394,68.0,30,30,7.0,106.0
395,72.0,0,30,7.0,106.0
396,74.0,0,30,7.0,106.0
397,70.0,30,30,7.0,106.0
398,75.0,0,30,7.0,106.0
399,72.0,30,30,7.0,106.0
400,74.0,0,30,7.0,106.0
401,77.0,30,30,7.0,106.0
402,79.0,0,30,7.0,106.0
403,75.0,30,30,7.0,106.0
404,80.0,0,30,7.0,106.0
405,77.0,30,30,7.0,106.0
406,82.0,0,30,7.0,106.0
407,79.0,30,30,7.0,106.0
408,84.0,0,30,7.0,106.0
409,80.0,30,30,7.0,106.0
410,82.0,30,30,7.0,106.0
411,86.0,0,30,7.0,106.0
412,84.0,30,30,7.0,106.0
413,87.0,0,30,7.0,106.0
414,89.0,0,30,7.0,106.0
415,86.0,30,30,7.0,106.0
416,87.0,30,30,7.0,106.0
417,91.0,0,30,7.0,106.0
418,92.0,30,30,7.0,106.0
419,89.0,0,30,7.0,106.0
420,94.0,0,30,7.0,106.0
421,91.0,30,30,7.0,106.0
422,96.0,0,30,7.0,106.0
423,92.0,30,30,7.0,106.0
424,91.0,30,30,7.0,106.0
425,94.0,0,30,7.0,106.0
426,92.0,0,30,7.0,106.0
427,89.0,30,30,7.0,106.0
428,87.0,0,30,7.0,106.0
429,91.0,30,30,7.0,106.0
430,89.0,30,30,7.0,106.0
431,86.0,0,30,7.0,106.0
432,84.0,0,30,7.0,106.0
433,87.0,30,30,7.0,106.0
434,82.0,30,30,7.0,106.0
435,86.0,0,30,7.0,106.0
436,80.0,0,30,7.0,106.0
437,84.0,30,30,7.0,106.0
438,82.0,30,30,7.0,106.0
439,79.0,0,30,7.0,106.0
440,80.0,30,30,7.0,106.0
441,77.0,0,30,7.0,106.0
442,75.0,0,30,7.0,106.0
443,79.0,30,30,7.0,106.0
444,74.0,30,30,7.0,106.0
445,77.0,0,30,7.0,106.0
446,75.0,0,30,7.0,106.0
447,72.0,30,30,7.0,106.0
448,74.0,0,30,7.0,106.0
449,70.0,30,30,7.0,106.0
450,68.0,30,30,7.0,106.0
451,72.0,30,0,7.0,106.0
452,75.0,0,90,7.0,106.0
453,80.0,0,90,7.0,106.0
454,74.0,0,90,7.0,106.0
455,70.0,0,90,7.0,106.0
456,79.0,120,90,7.0,106.0
457,68.0,120,120,7.0,106.0
458,77.0,0,120,7.0,106.0
459,72.0,0,120,7.0,106.0
460,79.0,0,60,7.0,106.0
461,70.0,0,0,7.0,106.0
462,67.0,120,120,7.0,106.0
463,75.0,60,60,7.0,106.0
464,70.0,0,120,8.0,117.0
465,62.0,0,120,8.0,117.0
466,41.0,0,120,7.0,106.0
467,34.0,0,120,7.0,106.0
468,46.0,60,120,7.0,106.0
469,80.0,0,120,7.0,106.0
470,68.0,0,120,7.0,106.0
471,38.0,0,120,7.0,106.0
472,77.0,0,120,7.0,106.0
473,74.0,0,120,7.0,106.0
474,46.0,0,120,6.0,122.0
475,46.0,473,30,7.0,106.0
476,58.0,30,30,7.0,106.0
477,48.0,30,30,7.0,106.0
478,60.0,30,30,7.0,106.0
479,74.0,0,600,0.0,94.0
480,80.0,0,600,0.0,94.0
481,80.0,0,600,8.0,117.0
482,58.0,0,600,5.0,104.0
483,70.0,1,600,5.0,104.0
484,77.0,0,600,1.0,98.0
485,80.0,0,600,1.0,98.0
486,77.0,0,600,10.0,112.0
487,74.0,0,600,2.0,94.0
488,80.0,1,600,2.0,94.0
489,70.0,0,600,10.0,112.0
490,65.0,0,600,4.0,107.0
491,58.0,0,600,4.0,107.0
492,58.0,0,600,11.0,117.0
493,62.0,2,600,11.0,117.0
494,46.0,1,600,12.0,117.0
495,56.0,1,600,3.0,110.0
496,53.0,0,600,3.0,110.0
497,34.0,1,600,13.0,127.0
498,50.0,0,30,7.0,106.0
499,46.0,30,45,7.0,106.0
500,62.0,30,30,7.0,106.0
501,51.0,0,30,7.0,106.0
502,48.0,30,45,7.0,106.0
503,63.0,30,30,7.0,106.0
504,53.0,30,30,7.0,106.0
505,50.0,0,45,7.0,106.0
506,65.0,30,30,7.0,106.0
507,55.0,0,30,7.0,106.0
508,51.0,30,45,7.0,106.0
509,67.0,30,30,7.0,106.0
510,56.0,0,30,7.0,106.0
511,53.0,30,45,7.0,106.0
512,68.0,30,30,7.0,106.0
513,58.0,0,30,7.0,106.0
514,55.0,30,45,7.0,106.0
515,70.0,30,30,7.0,106.0
516,60.0,30,30,7.0,106.0
517,56.0,0,45,7.0,106.0
518,72.0,30,30,7.0,106.0
519,62.0,0,30,7.0,106.0
520,58.0,30,45,7.0,106.0
521,74.0,30,30,7.0,106.0
522,63.0,30,30,7.0,106.0
523,60.0,0,45,7.0,106.0
524,75.0,30,30,7.0,106.0
525,65.0,0,30,7.0,106.0
526,62.0,30,45,7.0,106.0
527,77.0,30,30,7.0,106.0
528,67.0,30,30,7.0,106.0
529,63.0,0,45,7.0,106.0
530,79.0,30,30,7.0,106.0
531,68.0,30,30,7.0,106.0
532,65.0,0,45,7.0,106.0
533,80.0,30,30,7.0,106.0
534,70.0,0,30,7.0,106.0
535,67.0,30,45,7.0,106.0
536,82.0,30,30,7.0,106.0
537,72.0,30,30,7.0,106.0
538,68.0,0,45,7.0,106.0
539,84.0,30,30,7.0,106.0
540,74.0,0,30,7.0,106.0
541,70.0,30,45,7.0,106.0
542,86.0,30,30,7.0,106.0
543,75.0,30,30,7.0,106.0
544,72.0,0,45,7.0,106.0
545,87.0,30,30,7.0,106.0
546,77.0,30,30,7.0,106.0
547,74.0,0,45,7.0,106.0
548,89.0,30,30,7.0,106.0
549,79.0,30,30,7.0,106.0
550,75.0,0,45,7.0,106.0
551,91.0,30,30,7.0,106.0
552,80.0,0,80,7.0,106.0
553,77.0,0,0,7.0,106.0
554,65.0,30,80,7.0,106.0
555,92.0,80,0,7.0,106.0
556,67.0,0,80,7.0,106.0
557,77.0,0,0,7.0,106.0
558,82.0,0,80,7.0,106.0
559,92.0,80,80,7.0,106.0
560,84.0,0,80,7.0,106.0
561,77.0,80,0,7.0,106.0
562,68.0,0,80,7.0,106.0
563,86.0,0,120,7.0,106.0
564,70.0,0,120,7.0,106.0
565,92.0,0,120,7.0,106.0
566,91.0,0,120,7.0,106.0
567,63.0,0,120,7.0,106.0
568,75.0,120,120,7.0,106.0
569,79.0,0,120,7.0,106.0
570,67.0,0,180,7.0,106.0
571,89.0,120,180,7.0,106.0
572,74.0,0,180,7.0,106.0
573,83.0,0,180,7.0,106.0
574,87.0,180,60,7.0,106.0
575,60.0,0,60,7.0,106.0
576,72.0,0,60,7.0,106.0
577,75.0,0,60,7.0,106.0
578,85.0,0,60,7.0,106.0
579,63.0,60,60,7.0,106.0
580,70.0,0,60,7.0,106.0
581,79.0,0,60,7.0,106.0
582,84.0,0,60,7.0,106.0
583,68.0,0,60,7.0,106.0
584,72.0,0,60,7.0,106.0
585,56.0,60,60,7.0,106.0
586,82.0,0,60,7.0,106.0
587,60.0,60,60,7.0,106.0
588,76.0,0,60,7.0,106.0
589,67.0,0,60,7.0,106.0
590,65.0,0,60,7.0,106.0
591,53.0,60,60,7.0,106.0
592,80.0,0,60,7.0,106.0
593,68.0,0,60,7.0,106.0
594,55.0,0,60,7.0,106.0
595,64.0,60,60,7.0,106.0
596,79.0,0,60,7.0,106.0
597,70.0,0,60,7.0,106.0
598,56.0,0,60,7.0,106.0
599,60.0,0,0,7.0,106.0
600,77.0,0,60,7.0,106.0
601,72.0,60,60,7.0,106.0
602,75.0,60,60,7.0,106.0
603,66.0,0,60,7.0,106.0
604,57.0,0,60,7.0,106.0
605,74.0,0,60,7.0,106.0
606,62.0,0,60,7.0,106.0
607,58.0,0,60,7.0,106.0
608,65.0,60,60,7.0,106.0
609,63.0,0,60,7.0,106.0
610,58.0,0,0,7.0,106.0
611,72.0,0,60,7.0,106.0
612,67.0,0,60,7.0,106.0
613,62.0,60,60,7.0,106.0
614,70.0,0,60,7.0,106.0
615,65.0,0,0,7.0,106.0
616,68.0,60,60,7.0,106.0
617,59.0,0,60,7.0,106.0
618,63.0,0,60,7.0,106.0
619,68.0,0,60,7.0,106.0
620,59.0,60,60,7.0,106.0
621,63.0,0,60,7.0,106.0
622,65.0,0,60,7.0,106.0
623,70.0,0,15,7.0,106.0
624,68.0,15,15,7.0,106.0
625,70.0,15,15,7.0,106.0
626,68.0,15,15,7.0,106.0
627,70.0,15,15,7.0,106.0
628,68.0,15,15,7.0,106.0
629,70.0,15,15,7.0,106.0
630,68.0,15,15,7.0,106.0
631,70.0,15,15,7.0,106.0
632,68.0,15,15,7.0,106.0
633,70.0,15,15,7.0,106.0
634,68.0,15,15,7.0,106.0
635,70.0,15,15,7.0,106.0
636,68.0,15,15,7.0,106.0
637,70.0,15,15,7.0,106.0
638,68.0,15,15,7.0,106.0
639,70.0,15,15,7.0,106.0
640,68.0,15,15,7.0,106.0
641,70.0,15,15,7.0,106.0
642,68.0,15,15,7.0,106.0
643,70.0,15,15,7.0,106.0
644,68.0,15,15,7.0,106.0
645,70.0,15,15,7.0,106.0
646,68.0,15,15,7.0,106.0
647,70.0,15,15,7.0,106.0
648,68.0,15,15,7.0,106.0
649,70.0,15,15,7.0,106.0
650,68.0,15,15,7.0,106.0
651,70.0,15,15,7.0,106.0
652,68.0,15,15,7.0,106.0
653,70.0,15,15,7.0,106.0
654,68.0,15,15,7.0,106.0
655,59.0,0,480,7.0,106.0
656,65.0,0,480,7.0,106.0
657,63.0,60,480,7.0,106.0
658,70.0,15,15,7.0,106.0
659,68.0,15,15,7.0,106.0
660,70.0,15,15,7.0,106.0
661,68.0,15,15,7.0,106.0
662,70.0,15,15,7.0,106.0
663,68.0,15,15,7.0,106.0
664,70.0,15,15,7.0,106.0
665,68.0,15,15,7.0,106.0
666,70.0,15,15,7.0,106.0
667,68.0,15,15,7.0,106.0
668,70.0,15,15,7.0,106.0
669,68.0,15,15,7.0,106.0
670,70.0,15,15,7.0,106.0
671,68.0,15,15,7.0,106.0
672,70.0,15,15,7.0,106.0
673,68.0,15,15,7.0,106.0
674,70.0,15,15,7.0,106.0
675,68.0,15,15,7.0,106.0
676,70.0,15,15,7.0,106.0
677,68.0,15,15,7.0,106.0
678,67.0,15,30,7.0,106.0
679,65.0,0,360,7.0,106.0
680,62.0,0,360,7.0,106.0
681,58.0,0,360,7.0,106.0
682,68.0,30,30,7.0,106.0
683,70.0,30,30,7.0,106.0
684,68.0,30,30,7.0,106.0
685,67.0,30,30,7.0,106.0
686,65.0,30,30,7.0,106.0
687,75.0,30,30,7.0,106.0
688,74.0,30,30,7.0,106.0
689,72.0,30,30,7.0,106.0
690,70.0,30,30,7.0,106.0
691,79.0,30,30,7.0,106.0
692,77.0,30,30,7.0,106.0
693,75.0,30,30,7.0,106.0
694,74.0,30,30,7.0,106.0
695,82.0,30,30,7.0,106.0
696,80.0,30,30,7.0,106.0
697,79.0,30,30,7.0,106.0
698,77.0,30,30,7.0,106.0
699,87.0,30,30,7.0,106.0
700,86.0,30,30,7.0,106.0
701,84.0,30,30,7.0,106.0
702,82.0,30,30,7.0,106.0
703,91.0,30,30,7.0,106.0
704,89.0,30,30,7.0,106.0
705,87.0,30,30,7.0,106.0
706,86.0,30,30,7.0,106.0
707,94.0,30,30,7.0,106.0
708,92.0,30,30,7.0,106.0
709,91.0,30,30,7.0,106.0
710,89.0,30,30,7.0,106.0
711,96.0,30,30,7.0,106.0
712,94.0,30,30,7.0,106.0
713,92.0,30,30,7.0,106.0
714,91.0,30,30,7.0,106.0
715,89.0,30,30,7.0,106.0
716,87.0,30,30,7.0,106.0
717,86.0,30,30,7.0,106.0
718,84.0,30,30,7.0,106.0
719,82.0,30,30,7.0,106.0
720,80.0,30,30,7.0,106.0
721,79.0,30,30,7.0,106.0
722,77.0,30,30,7.0,106.0
723,75.0,30,30,7.0,106.0
724,74.0,30,30,7.0,106.0
725,72.0,30,30,7.0,106.0
726,70.0,30,30,7.0,106.0
727,69.0,30,60,7.0,106.0
728,56.0,0,180,7.0,106.0
729,58.0,0,0,7.0,106.0
730,68.0,0,180,7.0,106.0
731,53.0,0,180,7.0,106.0
732,62.0,0,180,7.0,106.0
733,46.0,180,0,7.0,106.0
734,63.0,0,240,7.0,106.0
735,51.0,0,240,7.0,106.0
736,67.0,0,240,7.0,106.0
737,55.0,0,240,7.0,106.0
738,62.0,0,120,8.0,117.0
739,58.0,2,120,10.0,112.0
740,53.0,0,120,11.0,117.0
741,56.0,2,120,11.0,117.0
742,46.0,1,120,12.0,117.0
743,34.0,2,120,13.0,127.0
744,58.0,0,240,7.0,106.0
745,62.0,0,240,7.0,106.0
746,34.0,240,240,7.0,106.0
747,53.0,0,240,7.0,106.0
748,56.0,0,240,7.0,106.0
749,46.0,0,0,7.0,106.0
750,58.0,2,30,10.0,112.0
751,55.0,0,30,11.0,117.0
752,51.0,2,30,11.0,117.0
753,58.0,25,30,10.0,112.0
754,51.0,2,0,11.0,117.0
755,55.0,0,0,11.0,117.0
756,58.0,28,0,10.0,112.0
757,51.0,2,0,11.0,117.0
758,43.0,0,120,7.0,106.0
759,58.0,0,120,7.0,106.0
760,51.0,0,120,7.0,106.0
761,39.0,233,120,7.0,106.0
762,63.0,0,120,7.0,106.0
763,55.0,0,120,7.0,106.0
764,55.0,0,0,11.0,117.0
765,51.0,2,0,11.0,117.0
766,51.0,1,120,12.0,117.0
767,39.0,2,120,13.0,127.0
768,58.0,28,0,10.0,112.0
769,51.0,2,0,11.0,117.0
770,58.0,28,0,10.0,112.0
771,55.0,0,30,11.0,117.0
772,58.0,28,0,10.0,112.0
773,51.0,0,30,11.0,117.0
774,55.0,0,0,11.0,117.0
775,51.0,2,30,11.0,117.0
776,58.0,28,30,10.0,112.0
777,51.0,0,0,11.0,117.0
778,55.0,2,0,11.0,117.0
779,63.0,0,300,8.0,117.0
780,58.0,2,0,10.0,112.0
781,51.0,0,0,11.0,117.0
782,55.0,2,0,11.0,117.0
783,65.0,26,20,8.0,117.0
784,55.0,0,0,11.0,117.0
785,51.0,2,0,11.0,117.0
786,63.0,16,20,8.0,117.0
787,62.0,6,20,8.0,117.0
788,58.0,12,30,10.0,112.0
789,55.0,2,0,11.0,117.0
790,58.0,2,30,10.0,112.0
791,51.0,0,0,11.0,117.0
792,55.0,2,0,11.0,117.0
793,63.0,20,45,8.0,117.0
794,58.0,2,0,10.0,112.0
795,51.0,2,0,11.0,117.0
796,55.0,0,0,11.0,117.0
797,65.0,26,45,8.0,117.0
798,58.0,2,0,10.0,112.0
799,51.0,2,30,11.0,117.0
800,55.0,0,30,11.0,117.0
801,51.0,2,0,11.0,117.0
802,55.0,0,0,11.0,117.0
803,58.0,28,30,10.0,112.0
804,55.0,0,0,11.0,117.0
805,51.0,2,0,11.0,117.0
806,58.0,28,30,10.0,112.0
807,51.0,2,0,11.0,117.0
808,67.0,26,120,8.0,117.0
809,58.0,2,0,10.0,112.0
810,55.0,0,30,11.0,117.0
811,58.0,28,0,10.0,112.0
812,51.0,2,30,11.0,117.0
813,55.0,0,30,11.0,117.0
814,58.0,28,0,10.0,112.0
815,55.0,2,30,11.0,117.0
816,51.0,0,30,11.0,117.0
817,51.0,0,30,11.0,117.0
818,55.0,0,0,11.0,117.0
819,63.0,26,120,8.0,117.0
820,58.0,2,0,10.0,112.0
821,51.0,2,0,11.0,117.0
822,51.0,0,0,11.0,117.0
823,55.0,2,0,11.0,117.0
824,58.0,28,30,10.0,112.0
825,51.0,2,0,11.0,117.0
826,58.0,28,0,10.0,112.0
827,55.0,2,0,11.0,117.0
828,60.0,26,120,8.0,117.0
829,51.0,0,0,11.0,117.0
830,55.0,2,0,11.0,117.0
831,58.0,25,0,10.0,112.0
832,55.0,2,0,11.0,117.0
833,58.0,28,0,10.0,112.0
834,55.0,2,0,11.0,117.0
835,51.0,0,0,11.0,117.0
836,58.0,26,90,8.0,117.0
837,58.0,0,90,4.0,107.0
838,55.0,0,90,4.0,107.0
839,51.0,1,0,12.0,117.0
840,39.0,2,90,13.0,127.0
841,58.0,26,30,8.0,117.0
842,55.0,0,30,4.0,107.0
843,58.0,2,0,10.0,112.0
844,58.0,2,30,4.0,107.0
845,51.0,0,0,11.0,117.0
846,55.0,2,0,11.0,117.0
847,39.0,2,0,13.0,127.0
848,58.0,28,0,10.0,112.0
849,51.0,0,30,11.0,117.0
850,55.0,2,0,11.0,117.0
851,51.0,0,0,11.0,117.0
852,55.0,2,0,11.0,117.0
853,58.0,28,0,10.0,112.0
854,51.0,0,0,11.0,117.0
855,55.0,2,0,11.0,117.0
856,58.0,28,0,10.0,112.0
857,55.0,0,0,11.0,117.0
858,51.0,2,0,11.0,117.0
859,58.0,28,0,10.0,112.0
860,58.0,28,0,10.0,112.0
861,51.0,0,30,11.0,117.0
862,55.0,2,30,11.0,117.0
863,58.0,28,0,10.0,112.0
864,55.0,2,0,11.0,117.0
865,51.0,2,30,11.0,117.0
866,51.0,0,30,11.0,117.0
867,63.0,23,300,8.0,117.0
868,58.0,28,30,10.0,112.0
869,63.0,0,300,4.0,107.0
870,55.0,0,300,4.0,107.0
871,51.0,2,0,11.0,117.0
872,55.0,0,0,11.0,117.0
873,51.0,1,300,12.0,117.0
874,65.0,26,20,8.0,117.0
875,58.0,12,0,10.0,112.0
876,51.0,2,0,11.0,117.0
877,63.0,16,20,8.0,117.0
878,62.0,6,20,8.0,117.0
879,55.0,0,30,11.0,117.0
880,51.0,2,0,11.0,117.0
881,58.0,28,0,10.0,112.0
882,55.0,0,30,11.0,117.0
883,63.0,20,45,8.0,117.0
884,55.0,2,0,11.0,117.0
885,51.0,0,30,11.0,117.0
886,58.0,2,30,10.0,112.0
887,51.0,0,30,11.0,117.0
888,55.0,0,0,11.0,117.0
889,65.0,26,45,8.0,117.0
890,58.0,2,0,10.0,112.0
891,51.0,2,0,11.0,117.0
892,55.0,0,30,11.0,117.0
893,58.0,28,0,10.0,112.0
894,55.0,2,30,11.0,117.0
895,51.0,0,30,11.0,117.0
896,58.0,28,0,10.0,112.0
897,55.0,2,30,11.0,117.0
898,51.0,0,30,11.0,117.0
899,67.0,26,120,8.0,117.0
900,58.0,2,0,10.0,112.0
901,55.0,0,0,11.0,117.0
902,51.0,2,0,11.0,117.0
903,58.0,28,0,10.0,112.0
904,55.0,0,30,11.0,117.0
905,51.0,2,30,11.0,117.0
906,51.0,2,0,11.0,117.0
907,55.0,0,0,11.0,117.0
908,63.0,26,120,8.0,117.0
909,58.0,28,30,10.0,112.0
910,58.0,2,30,10.0,112.0
911,55.0,0,30,11.0,117.0
912,51.0,2,30,11.0,117.0
913,58.0,28,0,10.0,112.0
914,51.0,2,30,11.0,117.0
915,55.0,2,0,11.0,117.0
916,58.0,28,0,10.0,112.0
917,51.0,2,0,11.0,117.0
918,60.0,26,120,8.0,117.0
919,55.0,0,30,11.0,117.0
920,63.0,0,0,10.0,112.0
921,58.0,25,0,10.0,112.0
922,51.0,0,0,11.0,117.0
923,55.0,2,0,11.0,117.0
924,63.0,0,0,10.0,112.0
925,58.0,26,90,8.0,117.0
926,58.0,0,90,4.0,107.0
927,51.0,2,90,4.0,107.0
928,58.0,28,30,10.0,112.0
929,63.0,2,0,10.0,112.0
930,51.0,2,30,11.0,117.0
931,55.0,2,0,11.0,117.0
932,51.0,1,90,12.0,117.0
933,39.0,2,0,13.0,127.0
934,58.0,26,30,8.0,117.0
935,58.0,0,30,10.0,112.0
936,51.0,0,30,4.0,107.0
937,58.0,2,0,4.0,107.0
938,51.0,0,30,11.0,117.0
939,51.0,1,30,12.0,117.0
940,68.0,0,30,10.0,112.0
941,56.0,2,30,11.0,117.0
942,53.0,2,0,11.0,117.0
943,58.0,28,0,10.0,112.0
944,56.0,0,30,11.0,117.0
945,53.0,2,30,11.0,117.0
946,56.0,0,0,11.0,117.0
947,58.0,28,0,10.0,112.0
948,53.0,2,30,11.0,117.0
949,58.0,28,0,10.0,112.0
950,56.0,0,0,11.0,117.0
951,53.0,2,0,11.0,117.0
952,53.0,2,0,11.0,117.0
953,58.0,28,30,10.0,112.0
954,53.0,2,0,11.0,117.0
955,56.0,0,0,11.0,117.0
956,62.0,23,240,8.0,117.0
957,58.0,28,30,10.0,112.0
958,46.0,0,240,4.0,107.0
959,46.0,1,240,12.0,117.0
960,34.0,2,240,13.0,127.0
961,58.0,25,0,10.0,112.0
962,55.0,2,30,11.0,117.0
963,51.0,0,30,11.0,117.0
964,63.0,26,60,8.0,117.0
965,51.0,0,30,11.0,117.0
966,55.0,0,0,11.0,117.0
967,51.0,1,60,12.0,117.0
968,39.0,2,60,13.0,127.0
969,58.0,28,30,10.0,112.0
970,51.0,0,0,11.0,117.0
971,58.0,28,30,10.0,112.0
972,51.0,2,0,11.0,117.0
973,55.0,2,30,11.0,117.0
974,60.0,2,30,10.0,112.0
975,51.0,2,0,11.0,117.0
976,65.0,26,60,8.0,117.0
977,60.0,28,0,10.0,112.0
978,44.0,1,60,12.0,117.0
979,32.0,2,60,13.0,127.0
980,51.0,2,0,11.0,117.0
981,60.0,28,30,10.0,112.0
982,51.0,0,0,11.0,117.0
983,58.0,2,30,10.0,112.0
984,55.0,2,30,11.0,117.0
985,58.0,28,0,10.0,112.0
986,51.0,0,30,11.0,117.0
987,55.0,2,30,11.0,117.0
988,51.0,2,0,11.0,117.0
989,55.0,0,0,11.0,117.0
990,58.0,28,0,10.0,112.0
991,55.0,0,0,11.0,117.0
992,51.0,0,0,11.0,117.0
993,58.0,28,0,10.0,112.0
994,55.0,2,30,11.0,117.0
995,58.0,28,0,10.0,112.0
996,51.0,0,30,11.0,117.0
997,55.0,2,0,11.0,117.0
998,67.0,26,240,8.0,117.0
999,58.0,2,0,10.0,112.0
1000,51.0,0,30,11.0,117.0
1001,46.0,1,0,12.0,117.0
1002,34.0,2,240,13.0,127.0
1003,50.0,0,30,11.0,117.0
1004,53.0,0,0,11.0,117.0
1005,58.0,25,30,10.0,112.0
1006,50.0,2,0,11.0,117.0
1007,53.0,0,0,11.0,117.0
1008,58.0,28,30,10.0,112.0
1009,53.0,2,0,11.0,117.0
1010,58.0,28,0,10.0,112.0
1011,50.0,0,30,11.0,117.0
1012,50.0,0,30,11.0,117.0
1013,53.0,2,0,11.0,117.0
1014,68.0,26,180,8.0,117.0
1015,58.0,28,30,10.0,112.0
1016,34.0,2,0,13.0,127.0
1017,56.0,2,30,10.0,112.0
1018,58.0,2,30,11.0,117.0
1019,65.0,26,60,8.0,117.0
1020,56.0,25,30,10.0,112.0
1021,58.0,2,0,11.0,117.0
1022,46.0,1,60,12.0,117.0
1023,55.0,0,0,11.0,117.0
1024,51.0,27,30,11.0,117.0
1025,55.0,0,0,11.0,117.0
1026,58.0,30,30,11.0,117.0
1027,63.0,26,120,8.0,117.0
1028,55.0,0,120,10.0,112.0
1029,55.0,0,30,11.0,117.0
1030,51.0,30,30,11.0,117.0
1031,51.0,1,120,12.0,117.0
1032,39.0,1,120,13.0,127.0
1033,55.0,0,30,11.0,117.0
1034,58.0,30,30,11.0,117.0
1035,51.0,0,30,11.0,117.0
1036,55.0,30,30,11.0,117.0
1037,58.0,30,30,11.0,117.0
1038,55.0,0,0,11.0,117.0
1039,51.0,30,30,11.0,117.0
1040,55.0,0,0,11.0,117.0
1041,58.0,30,30,11.0,117.0
1042,67.0,0,300,1.0,98.0
1043,70.0,1,300,1.0,98.0
1044,63.0,1,300,4.0,107.0
1045,75.0,0,300,2.0,94.0
1046,55.0,1,0,4.0,107.0
1047,55.0,0,30,11.0,117.0
1048,51.0,30,30,11.0,117.0
1049,58.0,0,300,3.0,110.0
1050,51.0,0,0,3.0,110.0
1051,77.0,0,20,2.0,94.0
1052,55.0,0,30,11.0,117.0
1053,58.0,2,30,11.0,117.0
1054,75.0,16,20,2.0,94.0
1055,74.0,8,20,2.0,94.0
1056,51.0,12,30,11.0,117.0
1057,55.0,2,0,11.0,117.0
1058,58.0,0,30,11.0,117.0
1059,67.0,27,0,1.0,98.0
1060,70.0,0,0,1.0,98.0
1061,75.0,20,60,2.0,94.0
1062,63.0,0,120,4.0,107.0
1063,51.0,30,30,11.0,117.0
1064,55.0,2,0,11.0,117.0
1065,58.0,2,120,3.0,110.0
1066,58.0,0,30,11.0,117.0
1067,77.0,1,60,2.0,94.0
1068,55.0,0,60,4.0,107.0
1069,63.0,1,0,4.0,107.0
1070,55.0,0,0,11.0,117.0
1071,51.0,0,30,11.0,117.0
1072,51.0,0,60,3.0,110.0
1073,58.0,2,60,3.0,110.0
1074,58.0,2,30,11.0,117.0
1075,55.0,0,0,11.0,117.0
1076,51.0,28,30,11.0,117.0
1077,55.0,0,0,11.0,117.0
1078,55.0,30,0,11.0,117.0
1079,58.0,30,30,11.0,117.0
1080,70.0,0,0,1.0,98.0
1081,67.0,27,0,1.0,98.0
1082,79.0,0,120,2.0,94.0
1083,55.0,0,120,4.0,107.0
1084,51.0,0,30,11.0,117.0
1085,58.0,0,120,3.0,110.0
1086,51.0,2,120,3.0,110.0
1087,58.0,2,30,11.0,117.0
1088,55.0,28,0,11.0,117.0
1089,51.0,0,30,11.0,117.0
1090,55.0,30,0,11.0,117.0
1091,58.0,0,30,11.0,117.0
1092,75.0,1,120,2.0,94.0
1093,55.0,0,120,4.0,107.0
1094,63.0,0,0,4.0,107.0
1095,55.0,0,30,11.0,117.0
1096,51.0,30,30,11.0,117.0
1097,58.0,0,0,3.0,110.0
1098,51.0,2,0,3.0,110.0
1099,55.0,2,30,11.0,117.0
1100,58.0,0,30,11.0,117.0
1101,51.0,28,30,11.0,117.0
1102,55.0,0,30,11.0,117.0
1103,58.0,30,30,11.0,117.0
1104,55.0,0,0,11.0,117.0
1105,70.0,27,120,1.0,98.0
1106,67.0,0,120,1.0,98.0
1107,72.0,1,120,2.0,94.0
1108,55.0,1,0,4.0,107.0
1109,51.0,30,30,11.0,117.0
1110,58.0,1,0,3.0,110.0
1111,55.0,27,0,11.0,117.0
1112,58.0,2,30,11.0,117.0
1113,51.0,0,30,11.0,117.0
1114,70.0,26,0,8.0,117.0
1115,82.0,0,90,0.0,94.0
1116,79.0,0,0,0.0,94.0
1117,67.0,0,0,1.0,98.0
1118,70.0,0,0,1.0,98.0
1119,70.0,1,0,5.0,104.0
1120,58.0,0,90,5.0,104.0
1121,70.0,0,90,10.0,112.0
1122,58.0,0,0,4.0,107.0
1123,58.0,0,90,2.0,94.0
1124,70.0,0,90,2.0,94.0
1125,55.0,30,30,11.0,117.0
1126,58.0,0,30,11.0,117.0
1127,51.0,1,0,12.0,117.0
1128,51.0,0,90,6.0,122.0
1129,51.0,0,0,3.0,110.0
1130,39.0,1,0,13.0,127.0
1131,82.0,0,30,0.0,94.0
1132,58.0,0,30,5.0,104.0
1133,70.0,0,0,1.0,98.0
1134,58.0,0,30,2.0,94.0
1135,70.0,0,30,10.0,112.0
1136,55.0,1,30,4.0,107.0
1137,70.0,0,30,2.0,94.0
1138,51.0,2,30,11.0,117.0
1139,55.0,2,0,11.0,117.0
1140,51.0,1,0,12.0,117.0
1141,51.0,0,30,6.0,122.0
1142,58.0,1,0,3.0,110.0
1143,55.0,27,0,11.0,117.0
1144,58.0,0,30,11.0,117.0
1145,51.0,0,30,11.0,117.0
1146,55.0,0,30,11.0,117.0
1147,58.0,30,30,11.0,117.0
1148,63.0,0,120,8.0,117.0
1149,55.0,0,120,8.0,117.0
1150,55.0,0,120,10.0,112.0
1151,63.0,0,120,10.0,112.0
1152,55.0,0,30,11.0,117.0
1153,51.0,30,30,11.0,117.0
1154,51.0,0,120,6.0,122.0
1155,55.0,0,30,11.0,117.0
1156,58.0,30,30,11.0,117.0
1157,55.0,0,30,11.0,117.0
1158,51.0,30,30,11.0,117.0
1159,58.0,30,30,11.0,117.0
1160,55.0,30,0,11.0,117.0
1161,51.0,0,30,11.0,117.0
1162,55.0,30,0,11.0,117.0
1163,58.0,0,30,11.0,117.0
1164,55.0,0,0,11.0,117.0
1165,79.0,0,300,0.0,94.0
1166,75.0,0,300,8.0,117.0
1167,87.0,23,300,0.0,94.0
1168,75.0,1,300,5.0,104.0
1169,63.0,0,300,5.0,104.0
1170,67.0,0,0,1.0,98.0
1171,63.0,1,300,4.0,107.0
1172,55.0,0,0,4.0,107.0
1173,75.0,0,300,10.0,112.0
1174,75.0,0,300,2.0,94.0
1175,67.0,0,300,2.0,94.0
1176,51.0,30,30,11.0,117.0
1177,58.0,2,0,3.0,110.0
1178,51.0,0,0,3.0,110.0
1179,39.0,1,300,13.0,127.0
1180,77.0,1,20,2.0,94.0
1181,55.0,2,30,11.0,117.0
1182,58.0,0,30,11.0,117.0
1183,75.0,16,20,2.0,94.0
1184,74.0,8,20,2.0,94.0
1185,51.0,12,30,11.0,117.0
1186,55.0,2,0,11.0,117.0
1187,58.0,0,30,11.0,117.0
1188,70.0,27,120,1.0,98.0
1189,55.0,1,0,4.0,107.0
1190,75.0,20,60,2.0,94.0
1191,63.0,0,0,4.0,107.0
1192,51.0,30,30,11.0,117.0
1193,55.0,2,0,11.0,117.0
1194,58.0,0,30,11.0,117.0
1195,70.0,0,60,1.0,98.0
1196,67.0,27,60,1.0,98.0
1197,77.0,0,60,2.0,94.0
1198,55.0,1,0,4.0,107.0
1199,51.0,28,30,11.0,117.0
1200,55.0,0,0,11.0,117.0
1201,51.0,0,0,3.0,110.0
1202,58.0,2,0,3.0,110.0
1203,58.0,2,30,11.0,117.0
1204,55.0,30,0,11.0,117.0
1205,51.0,28,30,11.0,117.0
1206,58.0,0,30,11.0,117.0
1207,55.0,0,0,11.0,117.0
1208,70.0,0,0,1.0,98.0
1209,67.0,27,0,1.0,98.0
1210,79.0,0,120,2.0,94.0
1211,63.0,0,120,4.0,107.0
1212,51.0,30,30,11.0,117.0
1213,51.0,0,0,3.0,110.0
1214,58.0,2,0,3.0,110.0
1215,55.0,0,30,11.0,117.0
1216,58.0,2,30,11.0,117.0
1217,51.0,28,30,11.0,117.0
1218,55.0,0,30,11.0,117.0
1219,55.0,30,0,11.0,117.0
1220,58.0,30,30,11.0,117.0
1221,70.0,0,0,1.0,98.0
1222,67.0,27,0,1.0,98.0
1223,75.0,1,120,2.0,94.0
1224,63.0,0,0,4.0,107.0
1225,55.0,0,120,4.0,107.0
1226,51.0,0,30,11.0,117.0
1227,55.0,0,0,11.0,117.0
1228,58.0,2,0,3.0,110.0
1229,51.0,0,0,3.0,110.0
1230,58.0,2,30,11.0,117.0
1231,55.0,0,30,11.0,117.0
1232,51.0,28,30,11.0,117.0
1233,58.0,0,30,11.0,117.0
1234,55.0,30,0,11.0,117.0
1235,70.0,0,0,1.0,98.0
1236,72.0,1,120,2.0,94.0
1237,55.0,0,0,4.0,107.0
1238,51.0,0,30,11.0,117.0
1239,58.0,0,0,3.0,110.0
1240,55.0,2,30,11.0,117.0
1241,58.0,0,30,11.0,117.0
1242,51.0,27,30,11.0,117.0
1243,55.0,30,0,11.0,117.0
1244,79.0,26,90,0.0,94.0
1245,82.0,0,90,0.0,94.0
1246,70.0,26,0,8.0,117.0
1247,70.0,0,90,5.0,104.0
1248,58.0,1,0,5.0,104.0
1249,70.0,0,0,1.0,98.0
1250,79.0,0,0,1.0,98.0
1251,70.0,1,0,10.0,112.0
1252,58.0,0,90,4.0,107.0
1253,58.0,0,0,2.0,94.0
1254,70.0,0,0,2.0,94.0
1255,55.0,2,0,11.0,117.0
1256,58.0,0,30,11.0,117.0
1257,51.0,1,90,12.0,117.0
1258,51.0,1,90,6.0,122.0
1259,51.0,0,90,3.0,110.0
1260,39.0,1,90,13.0,127.0
1261,82.0,0,30,0.0,94.0
1262,79.0,0,30,0.0,94.0
1263,58.0,0,0,5.0,104.0
1264,70.0,1,0,5.0,104.0
1265,58.0,0,30,4.0,107.0
1266,55.0,0,30,4.0,107.0
1267,51.0,0,30,11.0,117.0
1268,51.0,1,30,12.0,117.0
1269,51.0,1,30,6.0,122.0
1270,58.0,0,0,3.0,110.0
1271,51.0,0,30,3.0,110.0
1272,39.0,1,30,13.0,127.0
1273,58.0,23,120,8.0,117.0
1274,65.0,0,120,8.0,117.0
1275,65.0,0,120,10.0,112.0
1276,58.0,0,120,10.0,112.0
1277,46.0,1,120,6.0,122.0
1278,86.0,0,240,0.0,94.0
1279,77.0,0,240,0.0,94.0
1280,74.0,0,240,8.0,117.0
1281,80.0,0,240,1.0,98.0
1282,77.0,0,240,1.0,98.0
1283,62.0,0,240,2.0,94.0
1284,65.0,1,240,4.0,107.0
1285,74.0,0,240,10.0,112.0
1286,74.0,0,240,2.0,94.0
1287,58.0,0,240,4.0,107.0
1288,58.0,2,240,11.0,117.0
1289,46.0,1,240,12.0,117.0
1290,46.0,0,240,3.0,110.0
1291,34.0,1,240,13.0,127.0
1292,79.0,0,60,0.0,94.0
1293,55.0,0,60,8.0,117.0
1294,63.0,233,60,8.0,117.0
1295,75.0,0,60,8.0,117.0
1296,87.0,0,60,0.0,94.0
1297,75.0,0,60,1.0,98.0
1298,79.0,1,60,1.0,98.0
1299,63.0,0,60,5.0,104.0
1300,75.0,0,60,10.0,112.0
1301,75.0,0,60,2.0,94.0
1302,55.0,0,60,10.0,112.0
1303,63.0,1,60,2.0,94.0
1304,63.0,0,60,4.0,107.0
1305,55.0,0,60,4.0,107.0
1306,63.0,0,60,10.0,112.0
1307,63.0,2,60,11.0,117.0
1308,51.0,1,60,12.0,117.0
1309,58.0,0,60,3.0,110.0
1310,51.0,0,60,3.0,110.0
1311,51.0,1,60,6.0,122.0
1312,39.0,1,60,13.0,127.0
1313,84.0,113,60,0.0,94.0
1314,89.0,0,60,0.0,94.0
1315,65.0,0,60,8.0,117.0
1316,77.0,0,60,8.0,117.0
1317,72.0,0,60,8.0,117.0
1318,77.0,0,60,1.0,98.0
1319,63.0,0,60,5.0,104.0
1320,75.0,1,60,1.0,98.0
1321,65.0,0,60,10.0,112.0
1322,63.0,0,60,4.0,107.0
1323,65.0,0,60,2.0,94.0
1324,65.0,0,60,4.0,107.0
1325,77.0,0,60,10.0,112.0
1326,72.0,1,60,10.0,112.0
1327,75.0,0,60,2.0,94.0
1328,56.0,2,60,11.0,117.0
1329,44.0,1,60,12.0,117.0
1330,51.0,1,60,6.0,122.0
1331,44.0,0,60,3.0,110.0
1332,60.0,0,60,3.0,110.0
1333,32.0,1,60,13.0,127.0
1334,63.0,0,120,8.0,117.0
1335,70.0,113,120,8.0,117.0
1336,58.0,1,120,5.0,104.0
1337,70.0,0,120,5.0,104.0
1338,63.0,0,120,10.0,112.0
1339,70.0,0,120,10.0,112.0
1340,46.0,0,120,6.0,122.0
1341,87.0,0,240,0.0,94.0
1342,79.0,0,240,8.0,117.0
1343,91.0,0,240,0.0,94.0
1344,79.0,0,240,1.0,98.0
1345,75.0,0,240,1.0,98.0
1346,67.0,0,240,2.0,94.0
1347,75.0,0,240,2.0,94.0
1348,79.0,0,240,10.0,112.0
1349,63.0,1,240,4.0,107.0
1350,67.0,0,240,4.0,107.0
1351,58.0,2,240,11.0,117.0
1352,46.0,1,240,12.0,117.0
1353,51.0,0,240,3.0,110.0
1354,55.0,1,240,3.0,110.0
1355,34.0,1,240,13.0,127.0
1356,70.0,0,120,8.0,117.0
1357,62.0,0,120,8.0,117.0
1358,70.0,0,120,5.0,104.0
1359,58.0,0,120,5.0,104.0
1360,70.0,0,120,10.0,112.0
1361,62.0,0,120,10.0,112.0
1362,46.0,0,120,6.0,122.0
1363,92.0,0,180,0.0,94.0
1364,80.0,0,180,8.0,117.0
1365,89.0,173,0,0.0,94.0
1366,77.0,0,180,1.0,98.0
1367,80.0,1,180,1.0,98.0
1368,77.0,0,180,2.0,94.0
1369,68.0,0,180,2.0,94.0
1370,77.0,0,180,10.0,112.0
1371,68.0,0,180,4.0,107.0
1372,65.0,1,180,4.0,107.0
1373,58.0,2,0,11.0,117.0
1374,46.0,1,0,12.0,117.0
1375,46.0,1,0,3.0,110.0
1376,58.0,0,0,3.0,110.0
1377,34.0,1,180,13.0,127.0
1378,86.0,0,60,0.0,94.0
1379,77.0,0,60,8.0,117.0
1380,58.0,0,60,5.0,104.0
1381,70.0,0,60,5.0,104.0
1382,77.0,1,60,1.0,98.0
1383,74.0,0,60,1.0,98.0
1384,74.0,0,60,2.0,94.0
1385,65.0,1,60,2.0,94.0
1386,58.0,0,60,4.0,107.0
1387,62.0,0,60,10.0,112.0
1388,56.0,0,60,10.0,112.0
1389,65.0,0,60,4.0,107.0
1390,46.0,0,60,6.0,122.0
1391,34.0,1,60,13.0,127.0
1392,63.0,0,30,10.0,112.0
1393,55.0,0,30,10.0,112.0
1394,51.0,0,0,11.0,117.0
1395,58.0,2,0,11.0,117.0
1396,63.0,0,0,10.0,112.0
1397,55.0,28,0,10.0,112.0
1398,51.0,2,0,11.0,117.0
1399,55.0,0,0,10.0,112.0
1400,63.0,28,0,10.0,112.0
1401,58.0,2,0,11.0,117.0
1402,63.0,0,120,8.0,117.0
1403,55.0,53,120,8.0,117.0
1404,75.0,1,120,5.0,127.0
1405,63.0,0,120,5.0,127.0
1406,63.0,1,120,4.0,127.0
1407,55.0,0,0,10.0,112.0
1408,63.0,0,0,10.0,112.0
1409,51.0,0,0,11.0,117.0
1410,58.0,2,0,11.0,117.0
1411,51.0,0,120,6.0,122.0
1412,55.0,0,0,10.0,112.0
1413,63.0,28,30,10.0,112.0
1414,58.0,2,30,11.0,117.0
1415,51.0,2,0,11.0,117.0
1416,55.0,0,0,10.0,112.0
1417,63.0,28,0,10.0,112.0
1418,58.0,0,30,11.0,117.0
1419,70.0,27,120,5.0,127.0
1420,58.0,1,120,4.0,127.0
1421,58.0,0,30,11.0,117.0
1422,51.0,2,30,11.0,117.0
1423,55.0,0,30,10.0,112.0
1424,63.0,28,0,10.0,112.0
1425,51.0,2,0,11.0,117.0
1426,58.0,0,30,11.0,117.0
1427,55.0,28,0,10.0,112.0
1428,58.0,0,30,11.0,117.0
1429,63.0,28,0,10.0,112.0
1430,58.0,0,30,11.0,117.0
1431,51.0,2,0,11.0,117.0
1432,75.0,26,0,8.0,117.0
1433,67.0,27,120,5.0,127.0
1434,55.0,0,0,10.0,112.0
1435,55.0,1,120,4.0,127.0
1436,58.0,2,0,11.0,117.0
1437,55.0,0,0,10.0,112.0
1438,63.0,28,0,10.0,112.0
1439,51.0,0,30,11.0,117.0
1440,58.0,2,0,11.0,117.0
1441,51.0,0,0,11.0,117.0
1442,79.0,26,30,8.0,117.0
1443,63.0,0,30,10.0,112.0
1444,55.0,2,30,10.0,112.0
1445,58.0,2,30,11.0,117.0
1446,51.0,0,0,11.0,117.0
1447,82.0,26,30,8.0,117.0
1448,79.0,0,480,0.0,94.0
1449,87.0,0,480,0.0,94.0
1450,79.0,0,480,1.0,98.0
1451,75.0,0,480,1.0,98.0
1452,63.0,1,120,5.0,127.0
1453,67.0,0,480,2.0,94.0
1454,51.0,1,0,4.0,127.0
1455,55.0,2,30,10.0,112.0
1456,63.0,0,0,10.0,112.0
1457,75.0,0,0,2.0,94.0
1458,58.0,2,30,11.0,117.0
1459,51.0,2,0,11.0,117.0
1460,51.0,1,480,12.0,117.0
1461,51.0,0,480,3.0,110.0
1462,63.0,1,480,3.0,110.0
1463,39.0,1,480,13.0,127.0
1464,56.0,0,0,10.0,112.0
1465,60.0,0,30,11.0,117.0
1466,63.0,28,0,10.0,112.0
1467,60.0,2,0,11.0,117.0
1468,51.0,0,0,11.0,117.0
1469,56.0,0,30,10.0,112.0
1470,60.0,2,0,11.0,117.0
1471,87.0,26,120,8.0,117.0
1472,63.0,0,30,10.0,112.0
1473,56.0,2,0,10.0,112.0
1474,60.0,2,0,11.0,117.0
1475,51.0,0,30,11.0,117.0
1476,51.0,0,120,6.0,122.0
1477,63.0,0,30,10.0,112.0
1478,51.0,0,30,11.0,117.0
1479,60.0,0,0,11.0,117.0
1480,56.0,0,30,10.0,112.0
1481,63.0,28,0,10.0,112.0
1482,60.0,0,0,11.0,117.0
1483,51.0,2,0,11.0,117.0
1484,56.0,0,30,10.0,112.0
1485,51.0,2,0,11.0,117.0
1486,60.0,0,0,11.0,117.0
1487,84.0,26,120,8.0,117.0
1488,56.0,2,0,10.0,112.0
1489,63.0,0,30,10.0,112.0
1490,60.0,2,0,11.0,117.0
1491,63.0,0,30,10.0,112.0
1492,56.0,0,0,10.0,112.0
1493,60.0,0,0,11.0,117.0
1494,51.0,2,0,11.0,117.0
1495,56.0,28,0,10.0,112.0
1496,63.0,28,30,10.0,112.0
1497,60.0,2,0,11.0,117.0
1498,51.0,0,0,11.0,117.0
1499,56.0,28,0,10.0,112.0
1500,63.0,0,0,10.0,112.0
1501,60.0,0,0,11.0,117.0
1502,51.0,2,0,11.0,117.0
1503,80.0,26,120,8.0,117.0
1504,51.0,2,0,11.0,117.0
1505,60.0,0,0,11.0,117.0
1506,63.0,0,30,10.0,112.0
1507,56.0,2,30,10.0,112.0
1508,51.0,2,30,6.0,122.0
1509,63.0,0,30,10.0,112.0
1510,56.0,26,30,10.0,112.0
1511,51.0,0,30,11.0,117.0
1512,60.0,2,30,11.0,117.0
1513,51.0,2,0,6.0,122.0
1514,63.0,26,30,10.0,112.0
1515,56.0,26,0,10.0,112.0
1516,60.0,2,0,11.0,117.0
1517,51.0,0,0,11.0,117.0
1518,75.0,0,480,0.0,94.0
1519,87.0,0,480,0.0,94.0
1520,75.0,26,120,8.0,117.0
1521,75.0,0,480,1.0,98.0
1522,80.0,1,480,1.0,98.0
1523,63.0,0,480,5.0,127.0
1524,63.0,1,0,10.0,112.0
1525,68.0,0,480,2.0,94.0
1526,48.0,1,480,12.0,117.0
1527,60.0,1,480,3.0,110.0
1528,48.0,0,480,3.0,110.0
1529,51.0,0,0,6.0,122.0
1530,36.0,1,480,13.0,127.0
1531,55.0,0,30,10.0,112.0
1532,63.0,25,0,10.0,112.0
1533,58.0,2,30,11.0,117.0
1534,51.0,2,0,11.0,117.0
1535,55.0,0,30,10.0,112.0
1536,58.0,0,0,11.0,117.0
1537,51.0,2,0,11.0,117.0
1538,55.0,28,30,10.0,112.0
1539,63.0,0,0,10.0,112.0
1540,58.0,2,0,11.0,117.0
1541,63.0,0,120,8.0,117.0
1542,55.0,0,120,8.0,117.0
1543,75.0,1,120,5.0,127.0
1544,55.0,28,30,10.0,112.0
1545,63.0,0,0,10.0,112.0
1546,63.0,0,120,4.0,127.0
1547,51.0,0,30,11.0,117.0
1548,58.0,2,0,11.0,117.0
1549,55.0,1,30,10.0,112.0
1550,51.0,0,30,11.0,117.0
1551,63.0,28,0,10.0,112.0
1552,55.0,0,0,10.0,112.0
1553,58.0,2,30,11.0,117.0
1554,51.0,0,30,11.0,117.0
1555,58.0,0,30,11.0,117.0
1556,51.0,2,0,11.0,117.0
1557,70.0,27,120,5.0,127.0
1558,63.0,0,30,10.0,112.0
1559,55.0,28,30,10.0,112.0
1560,58.0,0,120,4.0,127.0
1561,58.0,0,30,11.0,117.0
1562,63.0,0,30,10.0,112.0
1563,55.0,1,30,10.0,112.0
1564,51.0,0,30,11.0,117.0
1565,58.0,2,30,11.0,117.0
1566,55.0,0,30,10.0,112.0
1567,63.0,28,30,10.0,112.0
1568,51.0,0,30,11.0,117.0
1569,58.0,2,30,11.0,117.0
1570,63.0,28,30,10.0,112.0
1571,55.0,0,30,10.0,112.0
1572,58.0,2,30,11.0,117.0
1573,51.0,2,0,11.0,117.0
1574,75.0,26,0,8.0,117.0
1575,67.0,27,120,5.0,127.0
1576,55.0,28,30,10.0,112.0
1577,55.0,0,120,4.0,127.0
1578,63.0,0,0,10.0,112.0
1579,58.0,2,0,11.0,117.0
1580,55.0,1,30,10.0,112.0
1581,63.0,28,0,10.0,112.0
1582,58.0,2,0,11.0,117.0
1583,51.0,0,30,11.0,117.0
1584,55.0,0,30,10.0,112.0
1585,51.0,0,30,11.0,117.0
1586,58.0,2,0,11.0,117.0
1587,79.0,26,30,8.0,117.0
1588,55.0,2,0,10.0,112.0
1589,63.0,0,0,10.0,112.0
1590,51.0,0,30,11.0,117.0
1591,87.0,0,480,0.0,94.0
1592,82.0,26,30,8.0,117.0
1593,75.0,0,0,0.0,94.0
1594,63.0,0,0,5.0,127.0
1595,75.0,0,0,1.0,98.0
1596,79.0,0,480,1.0,98.0
1597,67.0,0,480,2.0,94.0
1598,75.0,0,480,2.0,94.0
1599,51.0,0,0,4.0,127.0
1600,51.0,2,30,11.0,117.0
1601,58.0,0,30,11.0,117.0
1602,46.0,1,480,12.0,117.0
1603,46.0,1,480,3.0,110.0
1604,58.0,0,480,3.0,110.0
1605,34.0,1,480,13.0,127.0
1606,60.0,0,30,10.0,112.0
1607,63.0,25,0,10.0,112.0
1608,51.0,2,0,11.0,117.0
1609,56.0,0,0,11.0,117.0
1610,60.0,0,30,10.0,112.0
1611,51.0,2,0,11.0,117.0
1612,60.0,0,0,10.0,112.0
1613,63.0,28,0,10.0,112.0
1614,56.0,0,30,11.0,117.0
1615,51.0,2,0,11.0,117.0
1616,87.0,26,120,8.0,117.0
1617,56.0,2,0,11.0,117.0
1618,51.0,1,120,6.0,122.0
1619,60.0,28,0,10.0,112.0
1620,63.0,0,0,10.0,112.0
1621,51.0,0,30,11.0,117.0
1622,60.0,0,0,10.0,112.0
1623,63.0,28,0,10.0,112.0
1624,56.0,0,0,11.0,117.0
1625,51.0,2,0,11.0,117.0
1626,60.0,28,0,10.0,112.0
1627,51.0,2,0,11.0,117.0
1628,56.0,0,0,11.0,117.0
1629,84.0,26,120,8.0,117.0
1630,60.0,2,0,10.0,112.0
1631,63.0,0,0,10.0,112.0
1632,51.0,2,0,11.0,117.0
1633,56.0,0,0,11.0,117.0
1634,60.0,28,30,10.0,112.0
1635,63.0,28,0,10.0,112.0
1636,60.0,0,30,10.0,112.0
1637,51.0,2,0,11.0,117.0
1638,56.0,2,30,11.0,117.0
1639,80.0,26,120,8.0,117.0
1640,60.0,0,30,10.0,112.0
1641,63.0,28,30,10.0,112.0
1642,56.0,0,30,11.0,117.0
1643,63.0,2,30,10.0,112.0
1644,60.0,26,0,10.0,112.0
1645,56.0,2,0,11.0,117.0
1646,51.0,2,30,11.0,117.0
1647,51.0,2,30,6.0,122.0
1648,60.0,0,0,10.0,112.0
1649,63.0,26,0,10.0,112.0
1650,56.0,0,0,11.0,117.0
1651,51.0,2,0,11.0,117.0
1652,51.0,2,0,6.0,122.0
1653,56.0,2,0,11.0,117.0
1654,87.0,0,480,0.0,94.0
1655,75.0,26,120,8.0,117.0
1656,84.0,1,480,1.0,98.0
1657,75.0,1,0,1.0,98.0
1658,72.0,0,480,2.0,94.0
1659,63.0,0,0,2.0,94.0
1660,63.0,0,0,10.0,112.0
1661,60.0,26,30,10.0,112.0
1662,51.0,0,30,11.0,117.0
1663,44.0,1,480,12.0,117.0
1664,51.0,2,30,6.0,122.0
1665,44.0,0,480,3.0,110.0
1666,56.0,0,480,3.0,110.0
1667,32.0,1,480,13.0,127.0
1668,63.0,25,0,10.0,112.0
1669,58.0,0,30,10.0,112.0
1670,51.0,2,0,11.0,117.0
1671,55.0,0,0,11.0,117.0
1672,58.0,0,0,10.0,112.0
1673,63.0,28,0,10.0,112.0
1674,55.0,0,0,11.0,117.0
1675,51.0,2,0,11.0,117.0
1676,55.0,0,120,8.0,117.0
1677,63.0,0,120,8.0,117.0
1678,75.0,0,120,5.0,127.0
1679,58.0,28,30,10.0,112.0
1680,63.0,1,120,4.0,127.0
1681,63.0,0,0,10.0,112.0
1682,51.0,2,30,11.0,117.0
1683,55.0,0,30,11.0,117.0
1684,51.0,1,120,6.0,122.0
1685,58.0,0,0,10.0,112.0
1686,51.0,0,0,11.0,117.0
1687,55.0,2,0,11.0,117.0
1688,63.0,28,0,10.0,112.0
1689,55.0,0,0,11.0,117.0
1690,51.0,2,0,11.0,117.0
1691,58.0,0,30,10.0,112.0
1692,63.0,28,0,10.0,112.0
1693,55.0,2,0,11.0,117.0
1694,70.0,27,120,5.0,127.0
1695,58.0,0,120,4.0,127.0
1696,58.0,1,0,10.0,112.0
1697,63.0,0,0,10.0,112.0
1698,51.0,2,0,11.0,117.0
1699,51.0,0,0,11.0,117.0
1700,55.0,2,0,11.0,117.0
1701,58.0,0,0,10.0,112.0
1702,63.0,28,0,10.0,112.0
1703,51.0,0,0,11.0,117.0
1704,63.0,28,0,10.0,112.0
1705,55.0,2,30,11.0,117.0
1706,75.0,0,360,8.0,117.0
1707,67.0,27,120,5.0,127.0
1708,58.0,1,0,10.0,112.0
1709,55.0,0,120,4.0,127.0
1710,55.0,2,30,11.0,117.0
1711,51.0,0,30,11.0,117.0
1712,43.0,1,360,12.0,117.0
1713,55.0,0,360,3.0,110.0
1714,43.0,0,360,3.0,110.0
1715,31.0,1,360,13.0,127.0
1716,63.0,0,30,10.0,112.0
1717,58.0,0,0,10.0,112.0
1718,51.0,0,30,11.0,117.0
1719,54.0,2,0,11.0,117.0
1720,51.0,0,30,6.0,122.0
1721,75.0,26,60,8.0,117.0
1722,58.0,2,0,10.0,112.0
1723,63.0,0,0,10.0,112.0
1724,54.0,0,0,11.0,117.0
1725,51.0,2,0,11.0,117.0
1726,51.0,2,0,6.0,122.0
1727,78.0,24,30,8.0,117.0
1728,54.0,2,0,11.0,117.0
1729,82.0,24,30,8.0,117.0
1730,87.0,0,0,0.0,94.0
1731,75.0,24,0,0.0,94.0
1732,63.0,1,0,5.0,127.0
1733,82.0,0,480,1.0,98.0
1734,58.0,0,30,10.0,112.0
1735,63.0,2,30,10.0,112.0
1736,63.0,0,0,2.0,94.0
1737,70.0,0,480,2.0,94.0
1738,51.0,0,0,4.0,127.0
1739,63.0,0,0,4.0,127.0
1740,51.0,0,30,11.0,117.0
1741,42.0,1,120,12.0,117.0
1742,42.0,0,120,3.0,110.0
1743,54.0,1,120,3.0,110.0
1744,51.0,2,30,6.0,122.0
1745,30.0,1,120,13.0,127.0
1746,60.0,1,30,10.0,112.0
1747,63.0,25,0,10.0,112.0
1748,57.0,2,0,11.0,117.0
1749,51.0,0,0,11.0,117.0
1750,60.0,0,30,10.0,112.0
1751,51.0,0,0,11.0,117.0
1752,63.0,0,30,10.0,112.0
1753,60.0,0,0,10.0,112.0
1754,57.0,2,30,11.0,117.0
1755,87.0,0,120,8.0,117.0
1756,75.0,0,120,5.0,127.0
1757,60.0,2,0,10.0,112.0
1758,63.0,0,0,10.0,112.0
1759,57.0,2,30,11.0,117.0
1760,51.0,2,0,11.0,117.0
1761,41.0,1,120,12.0,117.0
1762,51.0,0,120,6.0,122.0
1763,53.0,1,120,3.0,110.0
1764,29.0,1,120,13.0,127.0
1765,60.0,0,0,10.0,112.0
1766,57.0,0,30,11.0,117.0
1767,51.0,2,0,11.0,117.0
1768,63.0,25,30,10.0,112.0
1769,57.0,0,30,11.0,117.0
1770,63.0,28,0,10.0,112.0
1771,60.0,0,30,10.0,112.0
1772,65.0,0,1,4.0,107.0
1773,57.0,0,0,11.0,117.0
1774,51.0,2,0,11.0,117.0
1775,84.0,26,120,8.0,117.0
1776,60.0,0,30,10.0,112.0
1777,65.0,1,0,4.0,107.0
1778,63.0,0,0,10.0,112.0
1779,45.0,1,120,12.0,117.0
1780,45.0,0,120,3.0,110.0
1781,57.0,1,120,3.0,110.0
1782,33.0,1,120,13.0,127.0
1783,69.0,0,0,10.0,112.0
1784,63.0,25,0,10.0,112.0
1785,60.0,2,30,11.0,117.0
1786,60.0,2,0,11.0,117.0
1787,63.0,0,30,10.0,112.0
1788,69.0,28,30,10.0,112.0
1789,81.0,26,120,8.0,117.0
1790,87.0,0,0,0.0,94.0
1791,75.0,0,360,1.0,98.0
1792,77.0,1,120,5.0,104.0
1793,84.0,0,360,1.0,98.0
1794,72.0,0,360,2.0,94.0
1795,63.0,1,0,10.0,112.0
1796,69.0,28,30,10.0,112.0
1797,60.0,2,30,11.0,117.0
1798,48.0,1,120,12.0,117.0
1799,60.0,0,120,3.0,110.0
1800,51.0,0,120,6.0,122.0
1801,48.0,1,120,3.0,110.0
1802,36.0,1,120,13.0,127.0
1803,72.0,0,0,10.0,112.0
1804,63.0,25,0,10.0,112.0
1805,53.0,2,0,11.0,117.0
1806,72.0,0,0,10.0,112.0
1807,63.0,28,0,10.0,112.0
1808,53.0,2,0,11.0,117.0
1809,75.0,0,91,0.0,94.0
1810,84.0,26,91,8.0,117.0
1811,72.0,1,0,10.0,112.0
1812,81.0,0,91,1.0,98.0
1813,72.0,1,91,1.0,98.0
1814,69.0,0,91,2.0,94.0
1815,60.0,0,91,2.0,94.0
1816,53.0,2,0,11.0,117.0
1817,74.0,26,30,0.0,94.0
1818,86.0,0,30,0.0,94.0
1819,82.0,0,0,8.0,117.0
1820,82.0,1,30,1.0,98.0
1821,74.0,0,30,1.0,98.0
1822,70.0,0,30,2.0,94.0
1823,63.0,0,30,10.0,112.0
1824,65.0,0,120,4.0,107.0
1825,62.0,0,0,2.0,94.0
1826,53.0,2,0,11.0,117.0
1827,53.0,1,120,12.0,117.0
1828,53.0,0,120,3.0,110.0
1829,65.0,1,120,3.0,110.0
1830,41.0,1,120,13.0,127.0
1831,86.0,0,120,0.0,94.0
1832,74.0,26,120,0.0,94.0
1833,58.0,0,120,5.0,104.0
1834,82.0,1,120,1.0,98.0
1835,74.0,0,120,1.0,98.0
1836,70.0,0,120,5.0,104.0
1837,70.0,0,120,10.0,112.0
1838,62.0,1,120,10.0,112.0
1839,58.0,0,0,4.0,107.0
1840,70.0,0,120,2.0,94.0
1841,46.0,1,120,12.0,117.0
1842,46.0,1,120,3.0,110.0
1843,46.0,0,120,6.0,122.0
1844,58.0,0,120,3.0,110.0
1845,34.0,1,120,13.0,127.0
1846,70.0,0,240,10.0,112.0
1847,46.0,115,240,4.0,107.0
1848,58.0,2,240,11.0,117.0
1849,72.0,238,45,10.0,112.0
1850,60.0,2,45,11.0,117.0
1851,70.0,58,45,10.0,112.0
1852,58.0,2,45,11.0,117.0
1853,68.0,1,45,10.0,112.0
1854,56.0,2,45,11.0,117.0
1855,67.0,55,45,10.0,112.0
1856,55.0,2,45,11.0,117.0
1857,70.0,0,120,5.0,104.0
1858,58.0,57,120,5.0,104.0
1859,46.0,1,120,12.0,117.0
1860,46.0,1,120,6.0,122.0
1861,34.0,1,120,13.0,127.0
1862,65.0,1,45,10.0,112.0
1863,53.0,2,45,11.0,117.0
1864,67.0,56,45,10.0,112.0
1865,55.0,2,45,11.0,117.0
1866,68.0,58,45,10.0,112.0
1867,56.0,2,45,11.0,117.0
1868,62.0,58,45,10.0,112.0
1869,50.0,2,45,11.0,117.0
1870,80.0,56,240,8.0,117.0
1871,77.0,1,240,1.0,98.0
1872,80.0,0,240,1.0,98.0
1873,58.0,0,240,4.0,107.0
1874,46.0,0,240,4.0,107.0
1875,56.0,0,240,3.0,110.0
1876,53.0,2,240,3.0,110.0
1877,82.0,56,45,8.0,117.0
1878,63.0,2,45,10.0,112.0
1879,51.0,2,45,11.0,117.0
1880,80.0,56,45,8.0,117.0
1881,65.0,2,45,10.0,112.0
1882,53.0,2,45,11.0,117.0
1883,58.0,1,45,10.0,112.0
1884,55.0,2,45,11.0,117.0
1885,63.0,55,45,10.0,112.0
1886,51.0,2,45,11.0,117.0
1887,79.0,0,0,8.0,117.0
1888,58.0,0,120,5.0,104.0
1889,70.0,1,120,5.0,104.0
1890,46.0,1,120,12.0,117.0
1891,46.0,1,120,6.0,122.0
1892,34.0,1,120,13.0,127.0
1893,67.0,0,45,10.0,112.0
1894,55.0,2,45,11.0,117.0
1895,70.0,55,45,10.0,112.0
1896,58.0,2,45,11.0,117.0
1897,75.0,58,45,10.0,112.0
1898,63.0,2,45,11.0,117.0
1899,70.0,58,45,10.0,112.0
1900,58.0,2,45,11.0,117.0
1901,87.0,0,240,0.0,94.0
1902,91.0,56,240,0.0,94.0
1903,75.0,1,240,1.0,98.0
1904,79.0,0,240,1.0,98.0
1905,58.0,1,240,4.0,107.0
1906,70.0,1,0,2.0,94.0
1907,82.0,0,0,2.0,94.0
1908,46.0,0,0,4.0,107.0
1909,46.0,1,0,12.0,117.0
1910,55.0,0,0,3.0,110.0
1911,51.0,1,240,3.0,110.0
1912,34.0,1,0,13.0,127.0
1913,80.0,56,45,8.0,117.0
1914,75.0,0,45,10.0,112.0
1915,63.0,2,45,11.0,117.0
1916,91.0,0,0,0.0,94.0
1917,82.0,53,0,0.0,94.0
1918,79.0,0,60,1.0,98.0
1919,70.0,1,0,1.0,98.0
1920,46.0,1,0,12.0,117.0
1921,51.0,0,0,3.0,110.0
1922,55.0,1,0,3.0,110.0
1923,34.0,1,0,13.0,127.0
1924,79.0,0,45,8.0,117.0
1925,70.0,0,45,10.0,112.0
1926,58.0,2,45,11.0,117.0
1927,79.0,0,60,1.0,98.0
1928,70.0,0,120,5.0,104.0
1929,58.0,0,120,5.0,104.0
1930,58.0,0,120,4.0,107.0
1931,82.0,0,60,2.0,94.0
1932,70.0,1,60,2.0,94.0
1933,46.0,1,120,6.0,122.0
1934,70.0,2,45,10.0,112.0
1935,58.0,2,45,11.0,117.0
1936,68.0,55,45,10.0,112.0
1937,56.0,2,45,11.0,117.0
1938,77.0,53,120,8.0,117.0
1939,50.0,1,0,12.0,117.0
1940,38.0,1,0,13.0,127.0
1941,70.0,1,45,10.0,112.0
1942,58.0,2,45,11.0,117.0
1943,80.0,56,60,0.0,94.0
1944,89.0,0,60,0.0,94.0
1945,79.0,0,60,8.0,117.0
1946,68.0,0,60,1.0,98.0
1947,77.0,1,60,1.0,98.0
1948,82.0,0,0,2.0,94.0
1949,70.0,1,0,2.0,94.0
1950,53.0,0,60,3.0,110.0
1951,56.0,0,60,3.0,110.0
1952,68.0,0,45,10.0,112.0
1953,56.0,2,45,11.0,117.0
1954,80.0,53,60,0.0,94.0
1955,89.0,0,60,0.0,94.0
1956,77.0,0,60,8.0,117.0
1957,68.0,1,60,1.0,98.0
1958,77.0,0,60,1.0,98.0
1959,70.0,0,120,5.0,104.0
1960,58.0,0,120,5.0,104.0
1961,58.0,0,120,4.0,107.0
1962,46.0,0,120,4.0,107.0
1963,50.0,1,60,12.0,117.0
1964,56.0,0,60,3.0,110.0
1965,46.0,1,120,6.0,122.0
1966,53.0,1,60,3.0,110.0
1967,38.0,1,60,13.0,127.0
1968,68.0,2,45,10.0,112.0
1969,56.0,2,45,11.0,117.0
1970,67.0,55,45,10.0,112.0
1971,55.0,2,45,11.0,117.0
1972,75.0,53,120,8.0,117.0
1973,51.0,1,120,12.0,117.0
1974,39.0,2,120,13.0,127.0
1975,68.0,0,45,10.0,112.0
1976,56.0,2,45,11.0,117.0
1977,87.0,0,60,0.0,94.0
1978,79.0,56,60,0.0,94.0
1979,77.0,0,60,8.0,117.0
1980,67.0,1,0,1.0,98.0
1981,75.0,0,0,1.0,98.0
1982,70.0,1,60,2.0,94.0
1983,82.0,0,60,2.0,94.0
1984,55.0,1,60,12.0,117.0
1985,51.0,1,0,3.0,110.0
1986,55.0,0,0,3.0,110.0
1987,43.0,1,60,13.0,127.0
1988,67.0,0,45,10.0,112.0
1989,55.0,2,45,11.0,117.0
1990,87.0,0,60,0.0,94.0
1991,79.0,53,60,0.0,94.0
1992,75.0,0,60,8.0,117.0
1993,70.0,0,120,5.0,104.0
1994,58.0,0,120,5.0,104.0
1995,58.0,0,120,4.0,107.0
1996,46.0,0,120,4.0,107.0
1997,70.0,0,60,2.0,94.0
1998,82.0,1,60,2.0,94.0
1999,55.0,1,60,12.0,117.0
2000,46.0,0,0,6.0,122.0
2001,43.0,1,60,13.0,127.0
2002,65.0,1,30,10.0,112.0
2003,53.0,2,30,11.0,117.0
2004,70.0,0,0,10.0,112.0
2005,58.0,2,30,11.0,117.0
2006,70.0,28,0,10.0,112.0
2007,58.0,2,0,11.0,117.0
2008,86.0,0,120,0.0,94.0
2009,77.0,53,120,0.0,94.0
2010,74.0,0,120,8.0,117.0
2011,65.0,0,120,1.0,98.0
2012,58.0,0,120,5.0,104.0
2013,74.0,1,120,1.0,98.0
2014,70.0,0,120,5.0,104.0
2015,70.0,0,120,2.0,94.0
2016,82.0,0,120,2.0,94.0
2017,46.0,0,60,4.0,107.0
2018,58.0,28,0,4.0,107.0
2019,58.0,2,0,11.0,117.0
2020,58.0,1,120,12.0,117.0
2021,53.0,1,120,3.0,110.0
2022,50.0,0,120,3.0,110.0
2023,46.0,1,120,13.0,127.0
2024,70.0,0,30,10.0,112.0
2025,46.0,28,0,4.0,107.0
2026,70.0,28,30,10.0,112.0
2027,58.0,2,0,11.0,117.0
2028,70.0,0,30,10.0,112.0
2029,58.0,2,0,11.0,117.0
2030,58.0,28,0,4.0,107.0
2031,70.0,0,0,10.0,112.0
2032,58.0,2,0,11.0,117.0
2033,70.0,28,0,10.0,112.0
2034,58.0,2,0,11.0,117.0
2035,46.0,0,0,4.0,107.0
2036,58.0,0,0,4.0,107.0
2037,70.0,28,0,10.0,112.0
2038,70.0,28,0,10.0,112.0
2039,58.0,2,30,11.0,117.0
2040,46.0,0,0,4.0,107.0
2041,58.0,2,30,11.0,117.0
2042,72.0,28,0,10.0,112.0
2043,60.0,2,30,11.0,117.0
2044,58.0,0,60,4.0,107.0
2045,60.0,2,30,11.0,117.0
2046,70.0,28,0,10.0,112.0
2047,58.0,2,30,11.0,117.0
2048,46.0,0,60,4.0,107.0
2049,58.0,0,60,4.0,107.0
2050,58.0,2,30,11.0,117.0
2051,68.0,25,0,10.0,112.0
2052,56.0,2,0,11.0,117.0
2053,80.0,24,0,8.0,117.0
2054,67.0,0,30,10.0,112.0
2055,55.0,2,30,11.0,117.0
2056,80.0,26,0,8.0,117.0
2057,70.0,0,120,5.0,104.0
2058,58.0,27,120,5.0,104.0
2059,68.0,0,0,2.0,94.0
2060,65.0,0,0,2.0,94.0
2061,46.0,0,0,4.0,107.0
2062,67.0,2,30,10.0,112.0
2063,58.0,2,0,4.0,107.0
2064,55.0,2,30,11.0,117.0
2065,46.0,1,120,12.0,117.0
2066,53.0,0,60,3.0,110.0
2067,56.0,2,60,3.0,110.0
2068,46.0,1,120,6.0,122.0
2069,34.0,1,120,13.0,127.0
2070,80.0,24,0,8.0,117.0
2071,65.0,0,30,10.0,112.0
2072,53.0,2,30,11.0,117.0
2073,65.0,2,30,10.0,112.0
2074,46.0,0,0,4.0,107.0
2075,53.0,2,30,11.0,117.0
2076,53.0,2,0,3.0,110.0
2077,56.0,0,60,3.0,110.0
2078,80.0,24,0,8.0,117.0
2079,67.0,2,30,10.0,112.0
2080,55.0,2,0,11.0,117.0
2081,58.0,0,60,4.0,107.0
2082,67.0,2,30,10.0,112.0
2083,46.0,0,0,4.0,107.0
2084,65.0,0,0,2.0,94.0
2085,68.0,0,0,2.0,94.0
2086,56.0,0,60,3.0,110.0
2087,80.0,24,0,8.0,117.0
2088,68.0,2,30,10.0,112.0
2089,56.0,2,0,11.0,117.0
2090,58.0,2,0,4.0,107.0
2091,68.0,2,30,10.0,112.0
2092,46.0,0,0,4.0,107.0
2093,56.0,0,60,3.0,110.0
2094,53.0,2,60,3.0,110.0
2095,80.0,26,30,8.0,117.0
2096,62.0,0,30,10.0,112.0
2097,50.0,2,30,11.0,117.0
2098,80.0,24,30,8.0,117.0
2099,58.0,0,0,4.0,107.0
2100,62.0,2,30,10.0,112.0
2101,65.0,0,0,2.0,94.0
2102,68.0,0,0,2.0,94.0
2103,50.0,2,30,11.0,117.0
2104,53.0,0,60,3.0,110.0
2105,56.0,0,0,3.0,110.0
2106,82.0,26,30,8.0,117.0
2107,63.0,0,30,10.0,112.0
2108,51.0,2,0,11.0,117.0
2109,82.0,24,30,8.0,117.0
2110,63.0,2,30,10.0,112.0
2111,65.0,0,0,2.0,94.0
2112,68.0,0,0,2.0,94.0
2113,46.0,0,0,4.0,107.0
2114,53.0,0,0,3.0,110.0
2115,56.0,2,0,3.0,110.0
2116,80.0,24,0,8.0,117.0
2117,65.0,2,0,10.0,112.0
2118,53.0,2,0,11.0,117.0
2119,58.0,0,120,5.0,104.0
2120,70.0,1,0,5.0,104.0
2121,58.0,0,60,4.0,107.0
2122,46.0,1,0,6.0,122.0
2123,79.0,26,30,8.0,117.0
2124,58.0,2,0,10.0,112.0
2125,55.0,2,30,11.0,117.0
2126,79.0,0,0,8.0,117.0
2127,70.0,1,0,5.0,104.0
2128,58.0,0,0,5.0,104.0
2129,55.0,2,30,11.0,117.0
2130,46.0,1,60,12.0,117.0
2131,34.0,1,60,13.0,127.0
2132,63.0,0,30,10.0,112.0
2133,51.0,2,0,11.0,117.0
2134,91.0,26,0,0.0,94.0
2135,82.0,0,60,0.0,94.0
2136,79.0,0,0,8.0,117.0
2137,79.0,0,60,1.0,98.0
2138,70.0,0,0,1.0,98.0
2139,58.0,0,0,5.0,104.0
2140,70.0,0,0,5.0,104.0
2141,63.0,2,30,10.0,112.0
2142,82.0,0,0,2.0,94.0
2143,46.0,0,0,4.0,107.0
2144,58.0,0,0,4.0,107.0
2145,70.0,0,0,2.0,94.0
2146,46.0,1,60,12.0,117.0
2147,55.0,1,60,3.0,110.0
2148,51.0,0,60,3.0,110.0
2149,46.0,0,0,6.0,122.0
2150,34.0,1,60,13.0,127.0
2151,79.0,23,0,8.0,117.0
2152,67.0,1,30,10.0,112.0
2153,55.0,2,0,11.0,117.0
2154,91.0,0,0,0.0,94.0
2155,82.0,0,0,0.0,94.0
2156,79.0,1,60,1.0,98.0
2157,58.0,0,0,5.0,104.0
2158,82.0,1,0,2.0,94.0
2159,67.0,2,30,10.0,112.0
2160,46.0,1,60,12.0,117.0
2161,55.0,0,60,3.0,110.0
2162,51.0,1,60,3.0,110.0
2163,34.0,1,60,13.0,127.0
2164,79.0,23,0,8.0,117.0
2165,70.0,0,30,10.0,112.0
2166,58.0,2,0,11.0,117.0
2167,70.0,0,60,5.0,104.0
2168,79.0,0,0,1.0,98.0
2169,70.0,1,0,1.0,98.0
2170,58.0,0,0,5.0,104.0
2171,82.0,1,0,2.0,94.0
2172,70.0,0,60,2.0,94.0
2173,46.0,0,60,4.0,107.0
2174,70.0,2,30,10.0,112.0
2175,58.0,0,60,4.0,107.0
2176,46.0,1,60,12.0,117.0
2177,46.0,0,60,6.0,122.0
2178,55.0,1,60,3.0,110.0
2179,51.0,1,0,3.0,110.0
2180,34.0,1,60,13.0,127.0
2181,79.0,26,30,8.0,117.0
2182,75.0,0,30,10.0,112.0
2183,63.0,2,30,11.0,117.0
2184,79.0,23,30,8.0,117.0
2185,82.0,0,60,0.0,94.0
2186,91.0,26,0,0.0,94.0
2187,58.0,0,0,5.0,104.0
2188,70.0,0,60,5.0,104.0
2189,70.0,0,60,2.0,94.0
2190,75.0,2,30,10.0,112.0
2191,58.0,0,60,4.0,107.0
2192,46.0,0,60,4.0,107.0
2193,63.0,2,30,11.0,117.0
2194,46.0,1,0,12.0,117.0
2195,55.0,1,0,3.0,110.0
2196,46.0,0,0,6.0,122.0
2197,34.0,1,60,13.0,127.0
2198,79.0,23,0,8.0,117.0
2199,70.0,2,0,10.0,112.0
2200,58.0,2,0,11.0,117.0
2201,82.0,0,60,0.0,94.0
2202,70.0,0,60,5.0,104.0
2203,79.0,1,60,1.0,98.0
2204,70.0,0,60,1.0,98.0
2205,58.0,1,0,5.0,104.0
2206,82.0,0,60,2.0,94.0
2207,46.0,0,0,4.0,107.0
2208,70.0,0,0,2.0,94.0
2209,58.0,0,0,4.0,107.0
2210,46.0,1,0,12.0,117.0
2211,58.0,0,60,3.0,110.0
2212,46.0,1,0,6.0,122.0
2213,34.0,1,60,13.0,127.0
2214,80.0,23,0,8.0,117.0
2215,75.0,0,30,10.0,112.0
2216,63.0,2,0,11.0,117.0
2217,84.0,26,60,0.0,94.0
2218,92.0,0,60,0.0,94.0
2219,70.0,0,60,5.0,104.0
2220,72.0,0,60,1.0,98.0
2221,80.0,0,60,1.0,98.0
2222,82.0,0,0,2.0,94.0
2223,70.0,1,0,2.0,94.0
2224,75.0,2,30,10.0,112.0
2225,46.0,1,0,12.0,117.0
2226,56.0,0,60,3.0,110.0
2227,60.0,0,60,3.0,110.0
2228,46.0,1,0,6.0,122.0
2229,34.0,1,0,13.0,127.0
2230,79.0,23,0,8.0,117.0
2231,70.0,2,0,10.0,112.0
2232,58.0,2,0,11.0,117.0
2233,82.0,0,60,0.0,94.0
2234,91.0,26,60,0.0,94.0
2235,79.0,0,60,1.0,98.0
2236,70.0,0,60,1.0,98.0
2237,70.0,1,0,5.0,104.0
2238,58.0,0,0,5.0,104.0
2239,58.0,0,60,4.0,107.0
2240,46.0,0,60,4.0,107.0
2241,70.0,1,0,10.0,112.0
2242,58.0,0,60,3.0,110.0
2243,55.0,0,60,3.0,110.0
2244,46.0,1,0,6.0,122.0
2245,77.0,23,0,8.0,117.0
2246,70.0,2,0,10.0,112.0
2247,58.0,2,30,11.0,117.0
2248,77.0,0,0,8.0,117.0
2249,58.0,2,30,11.0,117.0
2250,50.0,1,60,12.0,117.0
2251,38.0,1,0,13.0,127.0
2252,77.0,23,0,8.0,117.0
2253,68.0,2,0,10.0,112.0
2254,56.0,2,0,11.0,117.0
2255,89.0,0,60,0.0,94.0
2256,80.0,26,60,0.0,94.0
2257,68.0,0,60,1.0,98.0
2258,77.0,1,60,1.0,98.0
2259,82.0,0,60,2.0,94.0
2260,70.0,1,0,2.0,94.0
2261,46.0,0,0,4.0,107.0
2262,58.0,0,0,4.0,107.0
2263,50.0,1,0,12.0,117.0
2264,53.0,0,60,3.0,110.0
2265,56.0,1,60,3.0,110.0
2266,38.0,1,0,13.0,127.0
2267,79.0,23,0,8.0,117.0
2268,70.0,0,30,10.0,112.0
2269,58.0,2,0,11.0,117.0
2270,91.0,0,60,0.0,94.0
2271,82.0,0,60,0.0,94.0
2272,79.0,1,60,1.0,98.0
2273,70.0,0,60,1.0,98.0
2274,70.0,2,30,10.0,112.0
2275,46.0,0,0,4.0,107.0
2276,82.0,0,60,2.0,94.0
2277,50.0,1,0,12.0,117.0
2278,58.0,1,60,3.0,110.0
2279,55.0,0,60,3.0,110.0
2280,77.0,0,30,8.0,117.0
2281,68.0,2,0,10.0,112.0
2282,56.0,2,30,11.0,117.0
2283,80.0,0,60,0.0,94.0
2284,89.0,26,60,0.0,94.0
2285,77.0,23,30,8.0,117.0
2286,77.0,1,60,1.0,98.0
2287,68.0,0,60,1.0,98.0
2288,70.0,0,60,2.0,94.0
2289,58.0,0,60,4.0,107.0
2290,68.0,1,0,10.0,112.0
2291,82.0,0,60,2.0,94.0
2292,56.0,2,0,11.0,117.0
2293,53.0,0,60,3.0,110.0
2294,56.0,1,60,3.0,110.0
2295,38.0,1,60,13.0,127.0
2296,75.0,26,30,8.0,117.0
2297,75.0,23,30,8.0,117.0
2298,68.0,2,30,10.0,112.0
2299,56.0,2,30,11.0,117.0
2300,51.0,1,0,12.0,117.0
2301,39.0,1,0,13.0,127.0
2302,75.0,0,30,8.0,117.0
2303,67.0,2,0,10.0,112.0
2304,55.0,2,30,11.0,117.0
2305,79.0,26,60,0.0,94.0
2306,75.0,23,30,8.0,117.0
2307,87.0,0,60,0.0,94.0
2308,70.0,0,120,5.0,104.0
2309,67.0,1,60,1.0,98.0
2310,75.0,0,60,1.0,98.0
2311,58.0,1,120,5.0,104.0
2312,70.0,0,0,2.0,94.0
2313,58.0,0,60,4.0,107.0
2314,46.0,0,60,4.0,107.0
2315,82.0,0,0,2.0,94.0
2316,55.0,2,30,11.0,117.0
2317,46.0,1,120,6.0,122.0
2318,55.0,1,60,3.0,110.0
2319,51.0,0,60,3.0,110.0
2320,77.0,0,30,8.0,117.0
2321,68.0,2,0,10.0,112.0
2322,56.0,2,0,11.0,117.0
2323,80.0,0,60,0.0,94.0
2324,89.0,26,60,0.0,94.0
2325,77.0,23,30,8.0,117.0
2326,68.0,0,60,1.0,98.0
2327,77.0,1,60,1.0,98.0
2328,82.0,1,0,2.0,94.0
2329,46.0,0,0,4.0,107.0
2330,58.0,0,0,4.0,107.0
2331,55.0,1,0,12.0,117.0
2332,56.0,0,60,3.0,110.0
2333,53.0,1,60,3.0,110.0
2334,43.0,1,0,13.0,127.0
2335,75.0,23,0,8.0,117.0
2336,67.0,0,30,10.0,112.0
2337,55.0,2,0,11.0,117.0
2338,87.0,0,60,0.0,94.0
2339,79.0,26,60,0.0,94.0
2340,75.0,1,60,1.0,98.0
2341,67.0,0,60,1.0,98.0
2342,67.0,2,30,10.0,112.0
2343,70.0,1,0,2.0,94.0
2344,82.0,0,0,2.0,94.0
2345,51.0,1,60,3.0,110.0
2346,55.0,0,60,3.0,110.0
2347,74.0,23,0,8.0,117.0
2348,58.0,30,0,8.0,117.0
2349,77.0,26,120,0.0,94.0
2350,86.0,0,120,0.0,94.0
2351,58.0,0,120,5.0,104.0
2352,74.0,1,120,1.0,98.0
2353,65.0,0,120,1.0,98.0
2354,70.0,0,120,5.0,104.0
2355,65.0,0,120,10.0,112.0
2356,58.0,0,120,4.0,107.0
2357,46.0,0,120,4.0,107.0
2358,53.0,2,120,11.0,117.0
2359,58.0,1,120,12.0,117.0
2360,46.0,0,120,6.0,122.0
2361,53.0,1,120,3.0,110.0
2362,50.0,0,120,3.0,110.0
2363,46.0,1,120,13.0,127.0
2364,59.0,30,30,8.0,117.0
2365,59.0,30,30,8.0,117.0
2366,58.0,30,30,8.0,117.0
2367,58.0,30,30,8.0,117.0
2368,63.0,30,30,8.0,117.0
2369,63.0,30,30,8.0,117.0
2370,62.0,30,30,8.0,117.0
2371,62.0,30,30,8.0,117.0
2372,66.0,23,0,8.0,117.0
2373,66.0,1,30,10.0,112.0
2374,54.0,2,30,11.0,117.0
2375,70.0,0,60,0.0,94.0
2376,82.0,0,0,0.0,94.0
2377,70.0,1,60,5.0,104.0
2378,70.0,0,60,1.0,98.0
2379,82.0,0,60,1.0,98.0
2380,58.0,1,0,5.0,104.0
2381,78.0,0,60,2.0,94.0
2382,66.0,0,60,2.0,94.0
2383,66.0,2,30,10.0,112.0
2384,54.0,2,30,11.0,117.0
2385,54.0,1,60,12.0,117.0
2386,46.0,0,0,6.0,122.0
2387,54.0,0,60,3.0,110.0
2388,42.0,1,60,13.0,127.0
2389,65.0,23,0,8.0,117.0
2390,65.0,0,30,10.0,112.0
2391,53.0,2,0,11.0,117.0
2392,82.0,0,0,0.0,94.0
2393,70.0,26,0,0.0,94.0
2394,70.0,0,60,5.0,104.0
2395,58.0,1,0,5.0,104.0
2396,82.0,0,60,1.0,98.0
2397,70.0,0,0,1.0,98.0
2398,46.0,1,0,4.0,107.0
2399,58.0,0,120,4.0,107.0
2400,65.0,2,30,10.0,112.0
2401,77.0,1,60,2.0,94.0
2402,65.0,0,60,2.0,94.0
2403,53.0,1,60,12.0,117.0
2404,46.0,1,0,6.0,122.0
2405,53.0,1,60,3.0,110.0
2406,41.0,1,60,13.0,127.0
2407,71.0,0,30,8.0,117.0
2408,71.0,23,30,8.0,117.0
2409,70.0,30,30,8.0,117.0
2410,70.0,30,30,8.0,117.0
2411,70.0,0,120,5.0,104.0
2412,82.0,0,120,1.0,98.0
2413,82.0,0,120,2.0,94.0
2414,58.0,0,120,4.0,107.0
2415,70.0,0,120,2.0,94.0
2416,70.0,0,120,10.0,112.0
2417,58.0,2,120,11.0,117.0
2418,58.0,1,120,12.0,117.0
2419,58.0,0,120,3.0,110.0
2420,46.0,1,120,13.0,127.0
2421,75.0,30,30,8.0,117.0
2422,75.0,30,30,8.0,117.0
2423,74.0,30,0,8.0,117.0
2424,78.0,30,30,8.0,117.0
2425,78.0,30,30,8.0,117.0
2426,77.0,30,30,8.0,117.0
2427,77.0,30,30,8.0,117.0
2428,83.0,30,30,8.0,117.0
2429,71.0,2,0,10.0,112.0
2430,83.0,28,30,8.0,117.0
2431,74.0,0,0,2.0,94.0
2432,58.0,2,60,4.0,107.0
2433,65.0,2,0,4.0,107.0
2434,77.0,0,0,2.0,94.0
2435,82.0,28,0,8.0,117.0
2436,70.0,0,30,10.0,112.0
2437,70.0,2,30,10.0,112.0
2438,58.0,0,60,4.0,107.0
2439,78.0,28,30,8.0,117.0
2440,66.0,2,0,10.0,112.0
2441,78.0,28,30,8.0,117.0
2442,77.0,28,30,8.0,117.0
2443,65.0,2,30,10.0,112.0
2444,77.0,28,30,8.0,117.0
2445,65.0,2,30,10.0,112.0
2446,83.0,28,30,8.0,117.0
2447,71.0,2,0,10.0,112.0
2448,83.0,28,30,8.0,117.0
2449,58.0,0,0,4.0,107.0
2450,65.0,2,0,4.0,107.0
2451,77.0,0,60,2.0,94.0
2452,74.0,0,0,2.0,94.0
2453,82.0,28,30,8.0,117.0
2454,70.0,0,30,10.0,112.0
2455,82.0,28,30,8.0,117.0
2456,70.0,2,30,10.0,112.0
2457,77.0,0,60,2.0,94.0
2458,78.0,28,0,8.0,117.0
2459,66.0,2,30,10.0,112.0
2460,66.0,2,30,10.0,112.0
2461,77.0,28,0,8.0,117.0
2462,65.0,2,30,10.0,112.0
2463,65.0,2,30,10.0,112.0
2464,83.0,28,0,8.0,117.0
2465,71.0,0,30,10.0,112.0
2466,74.0,2,0,2.0,94.0
2467,58.0,0,60,4.0,107.0
2468,65.0,0,60,4.0,107.0
2469,71.0,2,30,10.0,112.0
2470,77.0,0,0,2.0,94.0
2471,82.0,28,30,8.0,117.0
2472,70.0,2,0,10.0,112.0
2473,82.0,28,30,8.0,117.0
2474,58.0,0,60,4.0,107.0
2475,65.0,0,60,4.0,107.0
2476,78.0,28,30,8.0,117.0
2477,66.0,2,0,10.0,112.0
2478,78.0,28,30,8.0,117.0
2479,77.0,28,0,8.0,117.0
2480,65.0,2,30,10.0,112.0
2481,65.0,2,30,10.0,112.0
2482,82.0,28,30,8.0,117.0
2483,70.0,2,0,10.0,112.0
2484,82.0,28,30,8.0,117.0
2485,77.0,0,60,2.0,94.0
2486,58.0,0,0,4.0,107.0
2487,74.0,2,0,2.0,94.0
2488,65.0,0,0,4.0,107.0
2489,80.0,28,30,8.0,117.0
2490,68.0,0,30,10.0,112.0
2491,80.0,28,30,8.0,117.0
2492,68.0,2,30,10.0,112.0
2493,77.0,0,60,2.0,94.0
2494,78.0,28,0,8.0,117.0
2495,66.0,2,0,10.0,112.0
2496,77.0,28,30,8.0,117.0
2497,65.0,2,0,10.0,112.0
2498,77.0,28,30,8.0,117.0
2499,82.0,28,0,8.0,117.0
2500,70.0,2,0,10.0,112.0
2501,58.0,0,45,4.0,107.0
2502,65.0,0,45,4.0,107.0
2503,77.0,0,60,2.0,94.0
2504,74.0,0,0,2.0,94.0
2505,80.0,24,0,8.0,117.0
2506,68.0,2,30,10.0,112.0
2507,58.0,0,45,4.0,107.0
2508,65.0,0,45,4.0,107.0
2509,68.0,2,30,10.0,112.0
2510,77.0,0,60,2.0,94.0
2511,65.0,2,60,11.0,117.0
2512,58.0,1,60,12.0,117.0
2513,58.0,1,60,3.0,110.0
2514,78.0,28,45,8.0,117.0
2515,66.0,2,45,10.0,112.0
2516,51.0,0,90,4.0,107.0
2517,63.0,0,90,4.0,107.0
2518,66.0,2,90,11.0,117.0
2519,63.0,1,90,12.0,117.0
2520,63.0,1,90,3.0,110.0
2521,75.0,0,120,2.0,94.0
2522,78.0,0,120,2.0,94.0
2523,77.0,114,45,8.0,117.0
2524,74.0,2,45,10.0,112.0
2525,65.0,60,60,2.0,94.0
2526,65.0,2,60,11.0,117.0
2527,58.0,1,60,12.0,117.0
2528,58.0,1,60,3.0,110.0
2529,75.0,54,45,8.0,117.0
2530,75.0,2,45,10.0,112.0
2531,66.0,0,90,2.0,94.0
2532,66.0,2,90,11.0,117.0
2533,63.0,1,90,12.0,117.0
2534,63.0,1,90,3.0,110.0
2535,77.0,114,45,8.0,117.0
2536,74.0,2,45,10.0,112.0
2537,65.0,60,60,2.0,94.0
2538,65.0,2,60,11.0,117.0
2539,58.0,1,60,12.0,117.0
2540,58.0,1,60,3.0,110.0
2541,78.0,54,45,8.0,117.0
2542,75.0,0,45,10.0,112.0
2543,66.0,2,90,2.0,94.0
2544,66.0,2,90,11.0,117.0
2545,63.0,1,90,12.0,117.0
2546,63.0,1,90,3.0,110.0
2547,77.0,114,45,8.0,117.0
2548,74.0,2,45,10.0,112.0
2549,65.0,60,60,2.0,94.0
2550,65.0,2,60,11.0,117.0
2551,58.0,1,60,12.0,117.0
2552,58.0,1,60,3.0,110.0
2553,78.0,54,45,8.0,117.0
2554,75.0,2,45,10.0,112.0
2555,66.0,0,90,2.0,94.0
2556,66.0,2,90,11.0,117.0
2557,63.0,1,90,12.0,117.0
2558,63.0,1,90,3.0,110.0
2559,78.0,114,45,8.0,117.0
2560,75.0,2,45,10.0,112.0
2561,77.0,58,45,8.0,117.0
2562,74.0,2,45,10.0,112.0
2563,65.0,0,60,2.0,94.0
2564,65.0,2,60,11.0,117.0
2565,58.0,1,60,12.0,117.0
2566,58.0,1,60,3.0,110.0
2567,78.0,54,45,8.0,117.0
2568,75.0,2,45,10.0,112.0
2569,66.0,0,90,2.0,94.0
2570,66.0,2,90,11.0,117.0
2571,63.0,1,90,12.0,117.0
2572,63.0,1,90,3.0,110.0
2573,77.0,114,45,8.0,117.0
2574,74.0,2,45,10.0,112.0
2575,65.0,60,60,2.0,94.0
2576,65.0,2,60,11.0,117.0
2577,58.0,1,60,12.0,117.0
2578,58.0,1,60,3.0,110.0
2579,78.0,54,45,8.0,117.0
2580,75.0,0,45,10.0,112.0
2581,66.0,2,90,2.0,94.0
2582,66.0,2,90,11.0,117.0
2583,63.0,1,90,12.0,117.0
2584,63.0,1,90,3.0,110.0
2585,80.0,114,45,8.0,117.0
2586,77.0,2,45,10.0,112.0
2587,61.0,3,0,12.0,117.0
2588,61.0,1,60,3.0,110.0
2589,68.0,60,180,2.0,94.0
2590,68.0,2,180,11.0,117.0
2591,61.0,1,120,3.0,110.0
2592,80.0,54,240,8.0,117.0
2593,70.0,176,60,2.0,94.0
2594,77.0,2,0,10.0,112.0
2595,70.0,2,60,11.0,117.0
2596,66.0,1,60,12.0,117.0
2597,66.0,1,60,3.0,110.0
2598,68.0,0,90,2.0,94.0
2599,68.0,2,90,11.0,117.0
2600,61.0,1,90,12.0,117.0
2601,61.0,1,90,3.0,110.0
2602,80.0,54,120,8.0,117.0
2603,82.0,114,45,8.0,117.0
2604,78.0,2,45,10.0,112.0
2605,80.0,58,45,8.0,117.0
2606,77.0,2,45,10.0,112.0
2607,68.0,0,60,2.0,94.0
2608,68.0,2,60,11.0,117.0
2609,61.0,1,60,12.0,117.0
2610,61.0,1,60,3.0,110.0
2611,82.0,54,45,8.0,117.0
2612,78.0,0,45,10.0,112.0
2613,70.0,2,90,2.0,94.0
2614,70.0,2,90,11.0,117.0
2615,66.0,1,90,12.0,117.0
2616,66.0,1,90,3.0,110.0
2617,80.0,114,45,8.0,117.0
2618,77.0,2,45,10.0,112.0
2619,68.0,60,60,2.0,94.0
2620,68.0,2,60,11.0,117.0
2621,61.0,1,60,12.0,117.0
2622,61.0,1,60,3.0,110.0
2623,82.0,54,45,8.0,117.0
2624,78.0,2,45,10.0,112.0
2625,70.0,0,90,2.0,94.0
2626,70.0,2,90,11.0,117.0
2627,66.0,1,90,12.0,117.0
2628,66.0,1,90,3.0,110.0
2629,80.0,114,45,8.0,117.0
2630,77.0,2,45,10.0,112.0
2631,78.0,58,45,8.0,117.0
2632,75.0,0,45,10.0,112.0
2633,66.0,2,60,2.0,94.0
2634,66.0,2,60,11.0,117.0
2635,63.0,1,60,12.0,117.0
2636,63.0,1,60,3.0,110.0
2637,80.0,54,45,8.0,117.0
2638,77.0,2,45,10.0,112.0
2639,68.0,0,90,2.0,94.0
2640,68.0,2,90,11.0,117.0
2641,65.0,1,90,12.0,117.0
2642,65.0,1,90,3.0,110.0
2643,78.0,114,45,8.0,117.0
2644,75.0,2,45,10.0,112.0
2645,66.0,60,60,2.0,94.0
2646,66.0,2,60,11.0,117.0
2647,63.0,1,60,12.0,117.0
2648,63.0,1,60,3.0,110.0
2649,80.0,54,45,8.0,117.0
2650,77.0,0,45,10.0,112.0
2651,68.0,2,90,2.0,94.0
2652,68.0,2,90,11.0,117.0
2653,65.0,1,90,12.0,117.0
2654,65.0,1,90,3.0,110.0
2655,78.0,114,45,8.0,117.0
2656,75.0,2,45,10.0,112.0
2657,77.0,58,45,8.0,117.0
2658,74.0,2,45,10.0,112.0
2659,65.0,0,60,2.0,94.0
2660,65.0,2,60,11.0,117.0
2661,58.0,1,60,12.0,117.0
2662,58.0,1,60,3.0,110.0
2663,78.0,54,45,8.0,117.0
2664,75.0,0,45,10.0,112.0
2665,66.0,2,90,2.0,94.0
2666,66.0,2,90,11.0,117.0
2667,63.0,1,90,12.0,117.0
2668,63.0,1,90,3.0,110.0
2669,77.0,114,45,8.0,117.0
2670,74.0,2,45,10.0,112.0
2671,65.0,60,60,2.0,94.0
2672,65.0,2,60,11.0,117.0
2673,58.0,1,60,12.0,117.0
2674,58.0,1,60,3.0,110.0
2675,78.0,54,45,8.0,117.0
2676,75.0,0,45,10.0,112.0
2677,66.0,2,90,2.0,94.0
2678,66.0,2,90,11.0,117.0
2679,63.0,1,90,12.0,117.0
2680,63.0,1,90,3.0,110.0
2681,77.0,114,45,8.0,117.0
2682,74.0,2,45,10.0,112.0
2683,65.0,2,0,2.0,94.0
2684,65.0,2,60,11.0,117.0
2685,58.0,1,60,12.0,117.0
2686,58.0,1,0,3.0,110.0
2687,65.0,2,120,11.0,117.0
2688,58.0,1,120,12.0,117.0
2689,77.0,54,240,8.0,117.0
2690,74.0,0,240,10.0,112.0
2691,65.0,2,0,2.0,94.0
2692,65.0,2,0,11.0,117.0
2693,58.0,1,0,12.0,117.0
2694,58.0,1,0,3.0,110.0
2695,77.0,54,120,8.0,117.0
2696,74.0,0,120,10.0,112.0
2697,58.0,0,120,4.0,107.0
2698,65.0,116,120,4.0,107.0
2699,70.0,53,60,8.0,117.0
2700,67.0,0,120,4.0,107.0
2701,63.0,120,120,4.0,107.0
2702,58.0,2,60,10.0,112.0
2703,51.0,3,120,12.0,117.0
2704,51.0,0,120,6.0,122.0
2705,39.0,1,120,13.0,127.0
2706,79.0,58,60,8.0,117.0
2707,67.0,0,60,10.0,112.0
2708,77.0,58,60,8.0,117.0
2709,65.0,2,60,10.0,112.0
2710,65.0,0,120,4.0,107.0
2711,58.0,2,120,4.0,107.0
2712,46.0,4,60,6.0,122.0
2713,75.0,54,60,8.0,117.0
2714,63.0,2,60,10.0,112.0
2715,70.0,54,60,8.0,117.0
2716,63.0,0,120,4.0,107.0
2717,55.0,0,120,4.0,107.0
2718,58.0,2,60,10.0,112.0
2719,51.0,4,120,6.0,122.0
2720,75.0,58,60,8.0,117.0
2721,63.0,0,60,10.0,112.0
2722,77.0,58,60,8.0,117.0
2723,58.0,2,120,4.0,107.0
2724,65.0,0,120,4.0,107.0
2725,65.0,2,60,10.0,112.0
2726,46.0,4,60,6.0,122.0
2727,70.0,53,60,8.0,117.0
2728,63.0,0,120,4.0,107.0
2729,67.0,56,120,4.0,107.0
2730,58.0,2,60,10.0,112.0
2731,51.0,3,120,12.0,117.0
2732,51.0,1,120,6.0,122.0
2733,39.0,1,120,13.0,127.0
2734,79.0,58,60,8.0,117.0
2735,67.0,0,60,10.0,112.0
2736,77.0,58,60,8.0,117.0
2737,65.0,2,60,10.0,112.0
2738,58.0,2,120,4.0,107.0
2739,65.0,0,120,4.0,107.0
2740,46.0,4,60,6.0,122.0
2741,79.0,54,60,8.0,117.0
2742,67.0,0,60,10.0,112.0
2743,70.0,54,60,8.0,117.0
2744,58.0,2,60,10.0,112.0
2745,67.0,0,0,4.0,107.0
2746,63.0,2,0,4.0,107.0
2747,51.0,4,120,6.0,122.0
2748,79.0,58,60,8.0,117.0
2749,67.0,0,60,10.0,112.0
2750,77.0,58,60,8.0,117.0
2751,65.0,2,60,10.0,112.0
2752,58.0,0,60,4.0,107.0
2753,65.0,0,60,4.0,107.0
2754,46.0,4,60,6.0,122.0
2755,70.0,53,60,8.0,117.0
2756,58.0,2,60,10.0,112.0
2757,63.0,56,120,4.0,107.0
2758,67.0,0,120,4.0,107.0
2759,51.0,3,120,12.0,117.0
2760,51.0,1,120,6.0,122.0
2761,39.0,1,120,13.0,127.0
2762,79.0,58,60,8.0,117.0
2763,67.0,0,60,10.0,112.0
2764,77.0,58,60,8.0,117.0
2765,65.0,0,120,4.0,107.0
2766,58.0,2,120,4.0,107.0
2767,65.0,2,60,10.0,112.0
2768,46.0,4,60,6.0,122.0
2769,79.0,54,60,8.0,117.0
2770,67.0,0,60,10.0,112.0
2771,70.0,53,60,8.0,117.0
2772,58.0,2,60,10.0,112.0
2773,67.0,0,0,4.0,107.0
2774,63.0,2,0,4.0,107.0
2775,51.0,3,120,12.0,117.0
2776,51.0,1,120,6.0,122.0
2777,39.0,1,120,13.0,127.0
2778,79.0,58,60,8.0,117.0
2779,67.0,0,60,10.0,112.0
2780,80.0,58,60,8.0,117.0
2781,68.0,0,60,4.0,107.0
2782,65.0,0,60,4.0,107.0
2783,68.0,2,60,10.0,112.0
2784,46.0,1,0,6.0,122.0
2785,70.0,53,60,8.0,117.0
2786,58.0,2,60,10.0,112.0
2787,46.0,3,120,12.0,117.0
2788,34.0,1,120,13.0,127.0
2789,80.0,58,60,8.0,117.0
2790,68.0,2,60,10.0,112.0
2791,79.0,58,60,8.0,117.0
2792,65.0,56,240,4.0,107.0
2793,68.0,0,240,4.0,107.0
2794,67.0,2,60,10.0,112.0
2795,46.0,4,0,6.0,122.0
2796,80.0,54,60,8.0,117.0
2797,68.0,0,60,10.0,112.0
2798,70.0,54,60,8.0,117.0
2799,58.0,2,60,10.0,112.0
2800,68.0,0,120,4.0,107.0
2801,65.0,2,120,4.0,107.0
2802,82.0,58,60,8.0,117.0
2803,67.0,0,60,4.0,107.0
2804,70.0,0,60,4.0,107.0
2805,70.0,2,60,10.0,112.0
2806,80.0,58,60,8.0,117.0
2807,68.0,2,60,4.0,107.0
2808,65.0,0,60,4.0,107.0
2809,68.0,0,60,10.0,112.0
2810,46.0,4,60,6.0,122.0
2811,70.0,53,60,8.0,117.0
2812,58.0,2,60,10.0,112.0
2813,67.0,56,120,4.0,107.0
2814,70.0,0,120,4.0,107.0
2815,51.0,3,120,12.0,117.0
2816,51.0,1,120,6.0,122.0
2817,39.0,1,120,13.0,127.0
2818,82.0,58,60,8.0,117.0
2819,70.0,0,60,10.0,112.0
2820,80.0,58,60,8.0,117.0
2821,68.0,2,60,10.0,112.0
2822,68.0,2,120,4.0,107.0
2823,65.0,0,120,4.0,107.0
2824,46.0,4,60,6.0,122.0
2825,82.0,54,60,8.0,117.0
2826,70.0,2,60,10.0,112.0
2827,70.0,54,60,8.0,117.0
2828,67.0,0,120,4.0,107.0
2829,70.0,0,120,4.0,107.0
2830,58.0,2,60,10.0,112.0
2831,51.0,4,120,6.0,122.0
2832,80.0,58,60,8.0,117.0
2833,68.0,0,60,10.0,112.0
2834,68.0,2,60,4.0,107.0
2835,65.0,0,60,4.0,107.0
2836,79.0,53,60,8.0,117.0
2837,67.0,2,60,4.0,107.0
2838,63.0,0,60,4.0,107.0
2839,67.0,0,60,10.0,112.0
2840,51.0,3,120,12.0,117.0
2841,51.0,4,60,6.0,122.0
2842,39.0,2,120,13.0,127.0
2843,70.0,53,60,8.0,117.0
2844,68.0,56,120,4.0,107.0
2845,58.0,2,60,10.0,112.0
2846,65.0,0,120,4.0,107.0
2847,46.0,3,120,12.0,117.0
2848,46.0,1,120,6.0,122.0
2849,34.0,1,120,13.0,127.0
2850,80.0,58,60,8.0,117.0
2851,68.0,2,60,10.0,112.0
2852,79.0,58,60,8.0,117.0
2853,63.0,0,120,4.0,107.0
2854,67.0,0,120,4.0,107.0
2855,67.0,2,60,10.0,112.0
2856,51.0,4,60,6.0,122.0
2857,80.0,54,60,8.0,117.0
2858,68.0,0,60,10.0,112.0
2859,70.0,54,60,8.0,117.0
2860,65.0,0,120,4.0,107.0
2861,68.0,2,120,4.0,107.0
2862,58.0,2,60,10.0,112.0
2863,46.0,4,120,6.0,122.0
2864,79.0,58,60,8.0,117.0
2865,63.0,0,60,4.0,107.0
2866,67.0,0,60,4.0,107.0
2867,67.0,2,60,10.0,112.0
2868,77.0,53,60,8.0,117.0
2869,65.0,2,60,10.0,112.0
2870,58.0,0,60,4.0,107.0
2871,65.0,0,60,4.0,107.0
2872,46.0,3,120,12.0,117.0
2873,46.0,4,60,6.0,122.0
2874,34.0,2,120,13.0,127.0
2875,70.0,53,60,8.0,117.0
2876,67.0,0,120,4.0,107.0
2877,63.0,56,120,4.0,107.0
2878,58.0,2,60,10.0,112.0
2879,51.0,3,120,12.0,117.0
2880,51.0,1,120,6.0,122.0
2881,39.0,1,120,13.0,127.0
2882,79.0,58,60,8.0,117.0
2883,67.0,0,60,10.0,112.0
2884,77.0,58,60,8.0,117.0
2885,58.0,2,120,4.0,107.0
2886,65.0,0,120,4.0,107.0
2887,65.0,2,60,10.0,112.0
2888,46.0,4,60,6.0,122.0
2889,79.0,54,60,8.0,117.0
2890,67.0,2,60,10.0,112.0
2891,70.0,53,60,8.0,117.0
2892,58.0,2,60,10.0,112.0
2893,67.0,0,120,4.0,107.0
2894,63.0,0,120,4.0,107.0
2895,51.0,3,120,12.0,117.0
2896,51.0,1,120,6.0,122.0
2897,39.0,1,120,13.0,127.0
2898,79.0,58,60,8.0,117.0
2899,67.0,2,60,10.0,112.0
2900,77.0,58,60,8.0,117.0
2901,65.0,0,120,4.0,107.0
2902,58.0,0,120,4.0,107.0
2903,65.0,0,0,10.0,112.0
2904,46.0,4,60,6.0,122.0
2905,77.0,54,120,8.0,117.0
2906,46.0,3,120,12.0,117.0
2907,46.0,1,120,6.0,122.0
2908,34.0,1,120,13.0,127.0
2909,58.0,0,0,4.0,107.0
2910,65.0,235,0,4.0,107.0
2911,58.0,0,0,3.0,110.0
2912,46.0,2,0,3.0,110.0
2913,70.0,0,30,10.0,112.0
2914,58.0,2,30,11.0,117.0
2915,70.0,26,30,10.0,112.0
2916,58.0,2,30,11.0,117.0
2917,83.0,26,20,8.0,117.0
2918,70.0,12,0,10.0,112.0
2919,58.0,2,30,11.0,117.0
2920,82.0,16,20,8.0,117.0
2921,81.0,6,20,8.0,117.0
2922,70.0,2,0,10.0,112.0
2923,58.0,2,30,11.0,117.0
2924,70.0,28,0,10.0,112.0
2925,58.0,2,30,11.0,117.0
2926,82.0,20,45,8.0,117.0
2927,70.0,2,0,10.0,112.0
2928,58.0,2,0,11.0,117.0
2929,58.0,2,0,11.0,117.0
2930,82.0,26,45,8.0,117.0
2931,82.0,26,0,0.0,94.0
2932,70.0,2,0,10.0,112.0
2933,70.0,0,0,2.0,94.0
2934,70.0,26,0,10.0,112.0
2935,58.0,2,30,11.0,117.0
2936,82.0,0,45,8.0,117.0
2937,58.0,2,30,11.0,117.0
2938,83.0,26,20,8.0,117.0
2939,70.0,12,0,10.0,112.0
2940,58.0,2,30,11.0,117.0
2941,82.0,16,20,8.0,117.0
2942,81.0,6,20,8.0,117.0
2943,58.0,2,30,11.0,117.0
2944,70.0,2,30,10.0,112.0
2945,58.0,2,0,11.0,117.0
2946,82.0,20,45,8.0,117.0
2947,70.0,28,30,10.0,112.0
2948,70.0,2,30,10.0,112.0
2949,58.0,2,30,11.0,117.0
2950,82.0,26,45,8.0,117.0
2951,82.0,26,0,0.0,94.0
2952,70.0,28,30,10.0,112.0
2953,58.0,2,30,11.0,117.0
2954,58.0,2,240,3.0,110.0
2955,46.0,0,240,3.0,110.0
2956,70.0,25,0,10.0,112.0
2957,58.0,2,0,11.0,117.0
2958,58.0,2,0,11.0,117.0
2959,70.0,28,30,10.0,112.0
2960,82.0,0,120,8.0,117.0
2961,70.0,28,30,10.0,112.0
2962,58.0,2,30,11.0,117.0
2963,70.0,28,0,10.0,112.0
2964,58.0,2,0,11.0,117.0
2965,70.0,28,0,10.0,112.0
2966,58.0,2,0,11.0,117.0
2967,70.0,28,0,10.0,112.0
2968,58.0,2,0,11.0,117.0
2969,58.0,0,240,4.0,107.0
2970,46.0,0,240,4.0,107.0
2971,58.0,2,0,11.0,117.0
2972,70.0,0,30,10.0,112.0
2973,70.0,28,0,10.0,112.0
2974,58.0,2,0,11.0,117.0
2975,42.0,1,300,12.0,117.0
2976,30.0,1,300,13.0,127.0
2977,44.0,1,20,12.0,117.0
2978,32.0,2,20,13.0,127.0
2979,42.0,18,20,12.0,117.0
2980,30.0,2,20,13.0,127.0
2981,70.0,5,30,10.0,112.0
2982,58.0,2,0,11.0,117.0
2983,41.0,11,20,12.0,117.0
2984,29.0,2,20,13.0,127.0
2985,70.0,15,30,10.0,112.0
2986,70.0,25,30,10.0,112.0
2987,58.0,2,0,11.0,117.0
2988,42.0,1,60,12.0,117.0
2989,30.0,2,60,13.0,127.0
2990,70.0,25,0,10.0,112.0
2991,82.0,26,0,0.0,94.0
2992,46.0,0,0,4.0,107.0
2993,58.0,0,240,4.0,107.0
2994,70.0,0,0,2.0,94.0
2995,58.0,2,30,11.0,117.0
2996,44.0,1,60,12.0,117.0
2997,46.0,0,0,3.0,110.0
2998,58.0,1,0,3.0,110.0
2999,32.0,2,60,13.0,127.0
3000,70.0,25,0,10.0,112.0
3001,58.0,2,30,11.0,117.0
3002,70.0,2,0,10.0,112.0
3003,58.0,2,30,11.0,117.0
3004,84.0,26,20,8.0,117.0
3005,58.0,2,30,11.0,117.0
3006,82.0,16,20,8.0,117.0
3007,81.0,6,20,8.0,117.0
3008,70.0,2,0,10.0,112.0
3009,58.0,2,0,11.0,117.0
3010,46.0,1,120,12.0,117.0
3011,34.0,1,120,13.0,127.0
3012,70.0,28,0,10.0,112.0
3013,82.0,20,45,8.0,117.0
3014,70.0,2,0,10.0,112.0
3015,58.0,2,30,11.0,117.0
3016,58.0,2,0,11.0,117.0
3017,82.0,26,45,8.0,117.0
3018,70.0,28,30,10.0,112.0
3019,58.0,2,0,11.0,117.0
3020,58.0,2,0,3.0,110.0
3021,70.0,26,0,10.0,112.0
3022,82.0,26,45,8.0,117.0
3023,58.0,2,0,11.0,117.0
3024,84.0,26,20,8.0,117.0
3025,70.0,2,30,10.0,112.0
3026,58.0,2,0,11.0,117.0
3027,82.0,16,20,8.0,117.0
3028,81.0,6,20,8.0,117.0
3029,70.0,2,0,10.0,112.0
3030,70.0,28,0,10.0,112.0
3031,58.0,2,0,11.0,117.0
3032,82.0,20,45,8.0,117.0
3033,70.0,2,0,10.0,112.0
3034,58.0,2,30,11.0,117.0
3035,82.0,26,45,8.0,117.0
3036,82.0,26,0,0.0,94.0
3037,70.0,2,0,10.0,112.0
3038,70.0,0,240,2.0,94.0
3039,46.0,0,0,4.0,107.0
3040,58.0,0,0,4.0,107.0
3041,58.0,2,30,11.0,117.0
3042,58.0,1,0,3.0,110.0
3043,46.0,0,0,3.0,110.0
3044,58.0,2,0,11.0,117.0
3045,70.0,28,0,10.0,112.0
3046,58.0,2,0,11.0,117.0
3047,58.0,2,0,11.0,117.0
3048,82.0,0,120,8.0,117.0
3049,70.0,28,0,10.0,112.0
3050,58.0,2,0,11.0,117.0
3051,70.0,28,0,10.0,112.0
3052,70.0,28,0,10.0,112.0
3053,58.0,2,0,11.0,117.0
3054,70.0,28,30,10.0,112.0
3055,58.0,2,30,11.0,117.0
3056,70.0,28,0,10.0,112.0
3057,58.0,2,30,11.0,117.0
3058,70.0,28,0,10.0,112.0
3059,58.0,2,0,11.0,117.0
3060,43.0,1,300,12.0,117.0
3061,31.0,1,300,13.0,127.0
3062,44.0,1,20,12.0,117.0
3063,32.0,2,20,13.0,127.0
3064,43.0,18,20,12.0,117.0
3065,31.0,2,20,13.0,127.0
3066,70.0,5,30,10.0,112.0
3067,58.0,2,0,11.0,117.0
3068,41.0,11,20,12.0,117.0
3069,29.0,2,20,13.0,127.0
3070,70.0,15,30,10.0,112.0
3071,58.0,2,0,11.0,117.0
3072,43.0,1,45,12.0,117.0
3073,31.0,2,45,13.0,127.0
3074,70.0,25,30,10.0,112.0
3075,70.0,28,30,10.0,112.0
3076,58.0,2,30,11.0,117.0
3077,44.0,1,45,12.0,117.0
3078,32.0,2,45,13.0,127.0
3079,58.0,0,240,4.0,107.0
3080,70.0,25,30,10.0,112.0
3081,46.0,28,240,4.0,107.0
3082,70.0,0,0,2.0,94.0
3083,58.0,2,30,11.0,117.0
3084,46.0,0,0,3.0,110.0
3085,58.0,1,0,3.0,110.0
3086,58.0,2,30,11.0,117.0
3087,46.0,1,45,12.0,117.0
3088,34.0,1,45,13.0,127.0
3089,70.0,2,60,10.0,112.0
3090,58.0,27,30,11.0,117.0
3091,48.0,1,20,12.0,117.0
3092,36.0,2,20,13.0,127.0
3093,58.0,7,0,11.0,117.0
3094,46.0,18,20,12.0,117.0
3095,34.0,2,20,13.0,127.0
3096,45.0,11,20,12.0,117.0
3097,33.0,2,20,13.0,127.0
3098,58.0,27,0,11.0,117.0
3099,46.0,1,45,12.0,117.0
3100,34.0,2,45,13.0,127.0
3101,82.0,26,0,8.0,117.0
3102,70.0,2,0,10.0,112.0
3103,58.0,2,0,11.0,117.0
3104,48.0,1,45,12.0,117.0
3105,36.0,2,45,13.0,127.0
3106,82.0,26,240,0.0,94.0
3107,58.0,2,0,11.0,117.0
3108,46.0,1,0,3.0,110.0
3109,49.0,1,45,12.0,117.0
3110,37.0,1,45,13.0,127.0
3111,82.0,26,0,8.0,117.0
3112,70.0,2,0,10.0,112.0
3113,58.0,27,30,11.0,117.0
3114,51.0,1,20,12.0,117.0
3115,39.0,2,20,13.0,127.0
3116,58.0,7,0,11.0,117.0
3117,49.0,18,20,12.0,117.0
3118,37.0,2,20,13.0,127.0
3119,82.0,26,120,0.0,94.0
3120,82.0,13,0,8.0,117.0
3121,77.0,2,120,2.0,74.0
3122,80.0,0,120,2.0,74.0
3123,58.0,2,0,11.0,117.0
3124,48.0,11,20,12.0,117.0
3125,36.0,2,20,13.0,127.0
3126,70.0,1,30,10.0,112.0
3127,49.0,1,45,12.0,117.0
3128,37.0,2,45,13.0,127.0
3129,80.0,23,30,8.0,117.0
3130,68.0,2,30,10.0,112.0
3131,58.0,2,30,11.0,117.0
3132,79.0,26,30,8.0,117.0
3133,67.0,2,30,10.0,112.0
3134,50.0,2,0,11.0,117.0
3135,50.0,1,45,12.0,117.0
3136,38.0,2,45,13.0,127.0
3137,89.0,0,120,0.0,94.0
3138,77.0,23,30,8.0,117.0
3139,70.0,0,120,1.0,98.0
3140,82.0,0,0,1.0,98.0
3141,65.0,2,30,10.0,112.0
3142,46.0,0,480,4.0,107.0
3143,68.0,0,120,2.0,94.0
3144,58.0,0,480,4.0,107.0
3145,77.0,0,120,2.0,94.0
3146,58.0,0,240,3.0,110.0
3147,63.0,0,30,10.0,112.0
3148,58.0,0,30,10.0,112.0
3149,55.0,0,30,11.0,117.0
3150,51.0,0,0,11.0,117.0
3151,58.0,0,30,10.0,112.0
3152,63.0,25,30,10.0,112.0
3153,55.0,0,0,11.0,117.0
3154,51.0,2,0,11.0,117.0
3155,51.0,1,0,12.0,117.0
3156,51.0,1,0,3.0,110.0
3157,39.0,1,60,13.0,127.0
3158,63.0,0,0,10.0,112.0
3159,58.0,25,0,10.0,112.0
3160,55.0,0,0,11.0,117.0
3161,55.0,0,120,8.0,117.0
3162,63.0,0,120,8.0,117.0
3163,58.0,0,0,10.0,112.0
3164,55.0,2,0,11.0,117.0
3165,51.0,0,0,11.0,117.0
3166,51.0,1,0,12.0,117.0
3167,51.0,0,120,6.0,122.0
3168,51.0,1,0,3.0,110.0
3169,39.0,1,60,13.0,127.0
3170,63.0,28,30,10.0,112.0
3171,55.0,0,0,11.0,117.0
3172,51.0,2,0,11.0,117.0
3173,63.0,0,0,10.0,112.0
3174,58.0,28,0,10.0,112.0
3175,51.0,2,0,11.0,117.0
3176,51.0,1,0,12.0,117.0
3177,39.0,1,60,13.0,127.0
3178,58.0,0,0,10.0,112.0
3179,63.0,25,0,10.0,112.0
3180,55.0,0,30,11.0,117.0
3181,58.0,28,0,10.0,112.0
3182,55.0,2,30,11.0,117.0
3183,51.0,2,0,11.0,117.0
3184,51.0,1,60,3.0,110.0
3185,39.0,1,0,13.0,127.0
3186,63.0,0,30,10.0,112.0
3187,51.0,2,0,11.0,117.0
3188,55.0,0,0,11.0,117.0
3189,75.0,0,300,8.0,117.0
3190,63.0,25,30,10.0,112.0
3191,58.0,0,0,10.0,112.0
3192,55.0,2,0,11.0,117.0
3193,51.0,1,0,12.0,117.0
3194,51.0,1,0,3.0,110.0
3195,77.0,26,20,8.0,117.0
3196,58.0,12,0,10.0,112.0
3197,63.0,2,30,10.0,112.0
3198,55.0,0,0,11.0,117.0
3199,51.0,2,0,11.0,117.0
3200,75.0,13,20,8.0,117.0
3201,74.0,6,20,8.0,117.0
3202,58.0,0,0,10.0,112.0
3203,63.0,2,0,10.0,112.0
3204,55.0,0,0,11.0,117.0
3205,51.0,1,0,12.0,117.0
3206,39.0,1,0,13.0,127.0
3207,51.0,2,30,11.0,117.0
3208,55.0,2,0,11.0,117.0
3209,75.0,20,45,8.0,117.0
3210,58.0,0,0,10.0,112.0
3211,63.0,2,0,10.0,112.0
3212,51.0,2,0,11.0,117.0
3213,55.0,0,0,11.0,117.0
3214,51.0,1,0,12.0,117.0
3215,51.0,1,0,3.0,110.0
3216,77.0,26,45,8.0,117.0
3217,63.0,0,30,10.0,112.0
3218,58.0,2,0,10.0,112.0
3219,55.0,0,0,11.0,117.0
3220,51.0,2,0,11.0,117.0
3221,51.0,1,0,12.0,117.0
3222,39.0,1,0,13.0,127.0
3223,58.0,0,0,10.0,112.0
3224,63.0,25,0,10.0,112.0
3225,51.0,0,0,11.0,117.0
3226,55.0,2,0,11.0,117.0
3227,51.0,1,0,12.0,117.0
3228,63.0,28,30,10.0,112.0
3229,58.0,0,30,10.0,112.0
3230,51.0,0,30,11.0,117.0
3231,82.0,0,600,0.0,94.0
3232,87.0,26,600,0.0,94.0
3233,79.0,26,120,8.0,117.0
3234,82.0,1,0,1.0,98.0
3235,79.0,0,0,1.0,98.0
3236,63.0,0,0,5.0,104.0
3237,75.0,0,0,5.0,104.0
3238,75.0,0,600,2.0,94.0
3239,67.0,0,600,2.0,94.0
3240,51.0,0,0,4.0,107.0
3241,63.0,1,0,4.0,107.0
3242,63.0,25,30,10.0,112.0
3243,58.0,0,30,10.0,112.0
3244,51.0,0,30,11.0,117.0
3245,55.0,2,0,11.0,117.0
3246,51.0,0,120,6.0,122.0
3247,51.0,1,120,3.0,110.0
3248,39.0,1,0,13.0,127.0
3249,58.0,0,30,10.0,112.0
3250,63.0,0,0,10.0,112.0
3251,51.0,0,30,11.0,117.0
3252,63.0,0,0,10.0,112.0
3253,58.0,28,0,10.0,112.0
3254,55.0,0,0,11.0,117.0
3255,51.0,2,0,11.0,117.0
3256,51.0,1,0,12.0,117.0
3257,58.0,0,0,10.0,112.0
3258,63.0,25,0,10.0,112.0
3259,82.0,26,120,0.0,94.0
3260,87.0,0,0,0.0,94.0
3261,75.0,0,120,8.0,117.0
3262,63.0,0,0,5.0,104.0
3263,75.0,0,0,5.0,104.0
3264,70.0,0,120,2.0,94.0
3265,67.0,0,120,2.0,94.0
3266,51.0,0,30,11.0,117.0
3267,55.0,2,30,11.0,117.0
3268,55.0,1,120,3.0,110.0
3269,58.0,0,120,3.0,110.0
3270,51.0,0,120,6.0,122.0
3271,39.0,2,60,13.0,127.0
3272,63.0,0,30,10.0,112.0
3273,60.0,0,30,10.0,112.0
3274,51.0,2,0,11.0,117.0
3275,56.0,0,0,11.0,117.0
3276,60.0,25,30,10.0,112.0
3277,63.0,28,0,10.0,112.0
3278,56.0,1,60,12.0,117.0
3279,44.0,1,60,13.0,127.0
3280,60.0,0,30,10.0,112.0
3281,56.0,2,0,11.0,117.0
3282,51.0,0,30,11.0,117.0
3283,72.0,26,120,8.0,117.0
3284,87.0,0,0,0.0,94.0
3285,84.0,0,120,0.0,94.0
3286,63.0,1,0,5.0,104.0
3287,75.0,0,0,5.0,104.0
3288,80.0,0,120,1.0,98.0
3289,84.0,1,120,1.0,98.0
3290,63.0,0,30,10.0,112.0
3291,63.0,0,120,4.0,107.0
3292,51.0,1,120,4.0,107.0
3293,68.0,0,120,2.0,94.0
3294,60.0,25,30,10.0,112.0
3295,72.0,0,120,2.0,94.0
3296,51.0,0,30,11.0,117.0
3297,56.0,1,60,12.0,117.0
3298,56.0,1,120,3.0,110.0
3299,60.0,0,120,3.0,110.0
3300,51.0,0,120,6.0,122.0
3301,44.0,2,60,13.0,127.0
3302,63.0,25,0,10.0,112.0
3303,58.0,0,30,10.0,112.0
3304,51.0,2,30,11.0,117.0
3305,55.0,0,30,11.0,117.0
3306,58.0,0,30,10.0,112.0
3307,63.0,28,0,10.0,112.0
3308,55.0,2,0,11.0,117.0
3309,51.0,0,0,11.0,117.0
3310,51.0,1,60,12.0,117.0
3311,39.0,1,60,13.0,127.0
3312,58.0,25,0,10.0,112.0
3313,70.0,26,120,8.0,117.0
3314,82.0,0,120,0.0,94.0
3315,79.0,0,120,1.0,98.0
3316,82.0,0,120,1.0,98.0
3317,75.0,0,0,5.0,104.0
3318,63.0,0,30,10.0,112.0
3319,67.0,0,120,2.0,94.0
3320,51.0,0,0,4.0,107.0
3321,63.0,0,0,4.0,107.0
3322,58.0,0,0,10.0,112.0
3323,70.0,0,120,2.0,94.0
3324,55.0,0,0,11.0,117.0
3325,51.0,2,0,11.0,117.0
3326,51.0,1,60,12.0,117.0
3327,55.0,0,0,3.0,110.0
3328,58.0,0,120,3.0,110.0
3329,51.0,1,0,6.0,122.0
3330,39.0,2,60,13.0,127.0
3331,63.0,0,0,8.0,117.0
3332,75.0,9,0,8.0,117.0
3333,58.0,2,0,10.0,112.0
3334,63.0,0,0,10.0,112.0
3335,51.0,2,0,11.0,117.0
3336,50.0,14,15,6.0,122.0
3337,51.0,2,15,6.0,122.0
3338,87.0,0,0,0.0,94.0
3339,75.0,0,0,0.0,94.0
3340,63.0,0,60,5.0,104.0
3341,75.0,1,60,1.0,98.0
3342,63.0,0,60,2.0,94.0
3343,51.0,0,0,4.0,107.0
3344,63.0,1,0,4.0,107.0
3345,75.0,0,60,2.0,94.0
3346,55.0,0,30,11.0,117.0
3347,63.0,1,60,12.0,117.0
3348,50.0,15,15,6.0,122.0
3349,58.0,0,60,3.0,110.0
3350,51.0,1,60,13.0,127.0
3351,51.0,0,15,6.0,122.0
3352,75.0,0,30,8.0,117.0
3353,63.0,9,0,8.0,117.0
3354,63.0,0,30,10.0,112.0
3355,58.0,2,0,10.0,112.0
3356,55.0,0,0,11.0,117.0
3357,51.0,2,0,11.0,117.0
3358,50.0,14,15,6.0,122.0
3359,51.0,2,15,6.0,122.0
3360,75.0,9,0,8.0,117.0
3361,75.0,1,0,5.0,104.0
3362,63.0,0,0,5.0,104.0
3363,58.0,1,0,10.0,112.0
3364,63.0,0,0,10.0,112.0
3365,51.0,1,60,12.0,117.0
3366,51.0,1,0,3.0,110.0
3367,50.0,15,15,6.0,122.0
3368,39.0,1,60,13.0,127.0
3369,51.0,0,15,6.0,122.0
3370,63.0,0,30,8.0,117.0
3371,75.0,0,0,8.0,117.0
3372,63.0,2,0,10.0,112.0
3373,55.0,0,30,11.0,117.0
3374,51.0,2,30,11.0,117.0
3375,50.0,14,15,6.0,122.0
3376,51.0,2,15,6.0,122.0
3377,87.0,0,0,0.0,94.0
3378,75.0,9,0,8.0,117.0
3379,63.0,0,0,8.0,117.0
3380,75.0,0,120,1.0,98.0
3381,63.0,1,0,2.0,94.0
3382,75.0,0,120,2.0,94.0
3383,51.0,0,0,4.0,107.0
3384,63.0,0,0,4.0,107.0
3385,63.0,0,0,10.0,112.0
3386,58.0,0,30,10.0,112.0
3387,55.0,2,30,11.0,117.0
3388,51.0,0,0,11.0,117.0
3389,51.0,1,0,12.0,117.0
3390,50.0,15,15,6.0,122.0
3391,51.0,0,0,3.0,110.0
3392,63.0,1,0,3.0,110.0
3393,39.0,1,60,13.0,127.0
3394,51.0,0,15,6.0,122.0
3395,75.0,9,0,8.0,117.0
3396,63.0,0,0,8.0,117.0
3397,58.0,0,30,10.0,112.0
3398,63.0,2,0,10.0,112.0
3399,51.0,2,0,11.0,117.0
3400,55.0,2,30,11.0,117.0
3401,50.0,14,15,6.0,122.0
3402,51.0,2,15,6.0,122.0
3403,63.0,1,60,5.0,104.0
3404,75.0,0,60,5.0,104.0
3405,58.0,0,0,10.0,112.0
3406,63.0,0,0,4.0,107.0
3407,51.0,1,0,4.0,107.0
3408,55.0,0,30,11.0,117.0
3409,50.0,15,15,6.0,122.0
3410,51.0,1,0,3.0,110.0
3411,39.0,1,0,13.0,127.0
3412,51.0,0,15,6.0,122.0
3413,63.0,0,0,10.0,112.0
3414,58.0,11,0,10.0,112.0
3415,51.0,0,30,11.0,117.0
3416,55.0,0,0,11.0,117.0
3417,50.0,14,15,6.0,122.0
3418,51.0,2,15,6.0,122.0
3419,63.0,9,60,8.0,117.0
3420,75.0,0,60,8.0,117.0
3421,87.0,0,0,0.0,94.0
3422,75.0,0,0,0.0,94.0
3423,75.0,1,60,5.0,104.0
3424,63.0,0,60,5.0,104.0
3425,75.0,1,0,1.0,98.0
3426,75.0,0,0,2.0,94.0
3427,63.0,0,0,2.0,94.0
3428,58.0,0,0,10.0,112.0
3429,51.0,0,0,4.0,107.0
3430,63.0,0,0,4.0,107.0
3431,63.0,1,0,10.0,112.0
3432,55.0,2,0,11.0,117.0
3433,51.0,2,30,11.0,117.0
3434,51.0,1,0,12.0,117.0
3435,51.0,1,0,3.0,110.0
3436,50.0,15,15,6.0,122.0
3437,39.0,1,0,13.0,127.0
3438,77.0,9,20,8.0,117.0
3439,51.0,0,15,6.0,122.0
3440,58.0,11,0,10.0,112.0
3441,63.0,0,0,10.0,112.0
3442,51.0,2,0,11.0,117.0
3443,50.0,1,15,6.0,122.0
3444,75.0,13,20,8.0,117.0
3445,51.0,2,15,6.0,122.0
3446,74.0,4,20,8.0,117.0
3447,75.0,0,0,5.0,104.0
3448,63.0,1,0,5.0,104.0
3449,51.0,2,0,11.0,117.0
3450,55.0,0,30,11.0,117.0
3451,50.0,11,15,6.0,122.0
3452,51.0,0,0,3.0,110.0
3453,39.0,1,0,13.0,127.0
3454,51.0,1,15,6.0,122.0
3455,75.0,9,0,8.0,117.0
3456,63.0,0,30,10.0,112.0
3457,58.0,0,30,10.0,112.0
3458,55.0,0,30,11.0,117.0
3459,50.0,14,15,6.0,122.0
3460,51.0,2,15,6.0,122.0
3461,63.0,0,0,5.0,104.0
3462,75.0,0,0,5.0,104.0
3463,58.0,1,0,10.0,112.0
3464,63.0,0,60,4.0,107.0
3465,63.0,0,0,10.0,112.0
3466,51.0,0,0,4.0,107.0
3467,51.0,2,0,11.0,117.0
3468,55.0,2,30,11.0,117.0
3469,51.0,1,0,12.0,117.0
3470,50.0,15,15,6.0,122.0
3471,63.0,1,0,3.0,110.0
3472,51.0,0,15,6.0,122.0
3473,77.0,9,0,8.0,117.0
3474,58.0,2,0,10.0,112.0
3475,55.0,0,30,11.0,117.0
3476,51.0,2,0,11.0,117.0
3477,50.0,14,15,6.0,122.0
3478,51.0,2,15,6.0,122.0
3479,77.0,0,60,0.0,94.0
3480,89.0,0,60,0.0,94.0
3481,75.0,0,0,5.0,104.0
3482,77.0,1,60,1.0,98.0
3483,51.0,1,0,4.0,107.0
3484,63.0,0,0,4.0,107.0
3485,65.0,0,60,2.0,94.0
3486,77.0,0,60,2.0,94.0
3487,63.0,0,30,10.0,112.0
3488,55.0,0,0,11.0,117.0
3489,51.0,2,0,11.0,117.0
3490,50.0,15,15,6.0,122.0
3491,51.0,0,0,3.0,110.0
3492,39.0,1,0,13.0,127.0
3493,79.0,0,30,8.0,117.0
3494,58.0,0,30,10.0,112.0
3495,63.0,2,0,10.0,112.0
3496,79.0,26,0,8.0,117.0
3497,79.0,0,60,0.0,94.0
3498,91.0,9,60,0.0,94.0
3499,79.0,1,0,1.0,98.0
3500,51.0,1,0,4.0,107.0
3501,67.0,0,60,2.0,94.0
3502,79.0,0,0,2.0,94.0
3503,63.0,0,0,4.0,107.0
3504,63.0,0,0,10.0,112.0
3505,58.0,0,0,10.0,112.0
3506,55.0,2,30,11.0,117.0
3507,51.0,0,30,11.0,117.0
3508,51.0,1,0,12.0,117.0
3509,67.0,0,0,3.0,110.0
3510,79.0,23,0,8.0,117.0
3511,63.0,0,0,10.0,112.0
3512,58.0,2,0,10.0,112.0
3513,51.0,2,30,11.0,117.0
3514,55.0,0,30,11.0,117.0
3515,63.0,1,0,5.0,104.0
3516,51.0,0,0,4.0,107.0
3517,63.0,0,0,4.0,107.0
3518,63.0,0,0,10.0,112.0
3519,58.0,1,0,10.0,112.0
3520,55.0,0,0,11.0,117.0
3521,51.0,2,0,11.0,117.0
3522,51.0,1,0,12.0,117.0
3523,51.0,0,120,6.0,122.0
3524,51.0,1,60,3.0,110.0
3525,39.0,1,0,13.0,127.0
3526,75.0,23,0,8.0,117.0
3527,58.0,2,0,10.0,112.0
3528,55.0,0,0,11.0,117.0
3529,91.0,0,120,0.0,94.0
3530,79.0,0,120,0.0,94.0
3531,51.0,1,0,4.0,107.0
3532,63.0,0,0,4.0,107.0
3533,67.0,0,120,2.0,94.0
3534,58.0,0,0,10.0,112.0
3535,63.0,0,0,10.0,112.0
3536,51.0,2,30,11.0,117.0
3537,51.0,1,0,12.0,117.0
3538,51.0,1,0,3.0,110.0
3539,39.0,1,0,13.0,127.0
3540,75.0,23,0,8.0,117.0
3541,63.0,2,0,10.0,112.0
3542,55.0,2,30,11.0,117.0
3543,51.0,2,0,11.0,117.0
3544,75.0,1,0,5.0,104.0
3545,63.0,0,0,5.0,104.0
3546,51.0,1,0,4.0,107.0
3547,63.0,0,0,4.0,107.0
3548,58.0,0,30,10.0,112.0
3549,63.0,0,0,10.0,112.0
3550,55.0,0,30,11.0,117.0
3551,51.0,1,0,6.0,122.0
3552,72.0,26,30,8.0,117.0
3553,60.0,0,30,10.0,112.0
3554,51.0,0,30,11.0,117.0
3555,56.0,2,30,11.0,117.0
3556,75.0,26,120,0.0,94.0
3557,72.0,0,0,8.0,117.0
3558,87.0,0,120,0.0,94.0
3559,75.0,1,120,1.0,98.0
3560,63.0,0,120,2.0,94.0
3561,75.0,0,120,2.0,94.0
3562,51.0,0,0,4.0,107.0
3563,63.0,0,0,10.0,112.0
3564,60.0,2,30,10.0,112.0
3565,56.0,2,30,11.0,117.0
3566,51.0,0,30,11.0,117.0
3567,56.0,1,0,12.0,117.0
3568,63.0,0,120,3.0,110.0
3569,44.0,0,60,3.0,110.0
3570,44.0,1,60,13.0,127.0
3571,60.0,0,0,10.0,112.0
3572,56.0,0,30,11.0,117.0
3573,51.0,0,0,11.0,117.0
3574,72.0,23,30,8.0,117.0
3575,63.0,2,30,10.0,112.0
3576,63.0,1,0,4.0,107.0
3577,56.0,2,30,11.0,117.0
3578,44.0,1,60,3.0,110.0
3579,51.0,0,0,6.0,122.0
3580,44.0,1,60,13.0,127.0
3581,71.0,23,0,8.0,117.0
3582,63.0,2,0,10.0,112.0
3583,59.0,0,0,10.0,112.0
3584,55.0,2,30,11.0,117.0
3585,51.0,2,0,11.0,117.0
3586,72.0,0,120,0.0,94.0
3587,84.0,26,120,0.0,94.0
3588,71.0,0,0,8.0,117.0
3589,72.0,0,120,1.0,98.0
3590,84.0,1,120,1.0,98.0
3591,60.0,1,120,2.0,94.0
3592,72.0,0,120,2.0,94.0
3593,63.0,0,0,4.0,107.0
3594,51.0,0,0,4.0,107.0
3595,55.0,0,30,11.0,117.0
3596,55.0,1,60,12.0,117.0
3597,60.0,0,120,3.0,110.0
3598,43.0,1,0,3.0,110.0
3599,43.0,1,60,13.0,127.0
3600,59.0,2,0,10.0,112.0
3601,63.0,0,30,10.0,112.0
3602,55.0,0,0,11.0,117.0
3603,51.0,2,0,11.0,117.0
3604,83.0,0,60,0.0,94.0
3605,71.0,26,60,0.0,94.0
3606,71.0,23,30,8.0,117.0
3607,75.0,1,0,5.0,104.0
3608,63.0,1,120,5.0,104.0
3609,83.0,0,60,1.0,98.0
3610,71.0,1,60,1.0,98.0
3611,59.0,1,60,2.0,94.0
3612,71.0,0,60,2.0,94.0
3613,63.0,0,30,10.0,112.0
3614,55.0,1,60,12.0,117.0
3615,59.0,0,60,3.0,110.0
3616,43.0,1,60,13.0,127.0
3617,51.0,1,15,6.0,122.0
3618,51.0,2,30,11.0,117.0
3619,50.0,14,15,6.0,122.0
3620,51.0,2,15,6.0,122.0
3621,84.0,0,60,0.0,94.0
3622,72.0,26,60,0.0,94.0
3623,84.0,0,0,1.0,98.0
3624,72.0,1,0,1.0,98.0
3625,51.0,0,60,4.0,107.0
3626,63.0,0,60,4.0,107.0
3627,72.0,1,0,2.0,94.0
3628,60.0,0,0,2.0,94.0
3629,51.0,13,30,11.0,117.0
3630,56.0,1,60,12.0,117.0
3631,44.0,0,60,3.0,110.0
3632,60.0,0,0,3.0,110.0
3633,50.0,15,15,6.0,122.0
3634,44.0,1,60,13.0,127.0
3635,51.0,0,15,6.0,122.0
3636,46.0,1,20,12.0,117.0
3637,46.0,1,20,3.0,110.0
3638,34.0,1,20,13.0,127.0
3639,63.0,2,30,11.0,117.0
3640,50.0,14,15,6.0,122.0
3641,44.0,4,20,12.0,117.0
3642,44.0,1,20,3.0,110.0
3643,32.0,1,20,13.0,127.0
3644,51.0,2,15,6.0,122.0
3645,63.0,7,30,11.0,117.0
3646,43.0,9,20,12.0,117.0
3647,43.0,1,20,3.0,110.0
3648,50.0,4,15,6.0,122.0
3649,31.0,1,20,13.0,127.0
3650,51.0,0,15,6.0,122.0
3651,48.0,13,30,11.0,117.0
3652,50.0,14,15,6.0,122.0
3653,44.0,1,45,12.0,117.0
3654,51.0,2,15,6.0,122.0
3655,44.0,1,45,3.0,110.0
3656,32.0,1,45,13.0,127.0
3657,72.0,9,0,0.0,94.0
3658,84.0,0,0,0.0,94.0
3659,63.0,0,120,4.0,107.0
3660,51.0,1,0,4.0,107.0
3661,48.0,13,30,11.0,117.0
3662,50.0,15,15,6.0,122.0
3663,60.0,0,0,3.0,110.0
3664,51.0,0,15,6.0,122.0
3665,60.0,2,30,11.0,117.0
3666,50.0,14,15,6.0,122.0
3667,46.0,1,45,12.0,117.0
3668,46.0,1,45,3.0,110.0
3669,51.0,2,15,6.0,122.0
3670,34.0,1,45,13.0,127.0
3671,51.0,0,0,4.0,107.0
3672,63.0,11,0,4.0,107.0
3673,60.0,13,30,11.0,117.0
3674,50.0,15,15,6.0,122.0
3675,51.0,0,15,6.0,122.0
3676,48.0,13,0,11.0,117.0
3677,50.0,14,15,6.0,122.0
3678,51.0,2,15,6.0,122.0
3679,72.0,0,300,8.0,117.0
3680,63.0,0,300,5.0,104.0
3681,72.0,1,0,1.0,98.0
3682,84.0,0,0,1.0,98.0
3683,60.0,0,300,10.0,112.0
3684,60.0,1,0,2.0,94.0
3685,72.0,0,0,2.0,94.0
3686,51.0,15,15,6.0,122.0
3687,74.0,0,20,8.0,117.0
3688,62.0,0,20,10.0,112.0
3689,60.0,2,30,11.0,117.0
3690,72.0,14,20,8.0,117.0
3691,60.0,2,20,10.0,112.0
3692,71.0,6,20,8.0,117.0
3693,59.0,2,20,10.0,112.0
3694,60.0,12,30,11.0,117.0
3695,48.0,30,0,11.0,117.0
3696,72.0,18,45,8.0,117.0
3697,60.0,2,45,10.0,112.0
3698,72.0,0,120,0.0,94.0
3699,84.0,9,120,0.0,94.0
3700,60.0,2,120,3.0,110.0
3701,60.0,28,0,11.0,117.0
3702,74.0,0,45,8.0,117.0
3703,62.0,1,45,10.0,112.0
3704,86.0,0,60,0.0,94.0
3705,74.0,26,60,0.0,94.0
3706,74.0,1,60,1.0,98.0
3707,74.0,0,60,2.0,94.0
3708,62.0,0,60,2.0,94.0
3709,62.0,2,60,3.0,110.0
3710,51.0,2,15,6.0,122.0
3711,48.0,13,0,11.0,117.0
3712,50.0,15,15,6.0,122.0
3713,51.0,2,15,6.0,122.0
3714,75.0,0,60,0.0,94.0
3715,87.0,9,0,0.0,94.0
3716,75.0,1,0,1.0,98.0
3717,63.0,1,0,2.0,94.0
3718,75.0,0,60,2.0,94.0
3719,48.0,1,300,12.0,117.0
3720,63.0,1,0,3.0,110.0
3721,50.0,15,15,6.0,122.0
3722,48.0,1,300,3.0,110.0
3723,36.0,1,300,13.0,127.0
3724,51.0,0,15,6.0,122.0
3725,50.0,1,20,12.0,117.0
3726,50.0,0,20,3.0,110.0
3727,38.0,1,20,13.0,127.0
3728,60.0,7,0,11.0,117.0
3729,50.0,14,15,6.0,122.0
3730,48.0,4,20,12.0,117.0
3731,48.0,1,20,3.0,110.0
3732,36.0,1,20,13.0,127.0
3733,51.0,2,15,6.0,122.0
3734,47.0,9,20,12.0,117.0
3735,47.0,1,20,3.0,110.0
3736,50.0,4,15,6.0,122.0
3737,35.0,1,20,13.0,127.0
3738,51.0,1,15,6.0,122.0
3739,48.0,13,30,11.0,117.0
3740,50.0,14,15,6.0,122.0
3741,48.0,1,45,12.0,117.0
3742,51.0,2,15,6.0,122.0
3743,48.0,0,45,3.0,110.0
3744,36.0,1,45,13.0,127.0
3745,87.0,0,0,0.0,94.0
3746,75.0,9,0,0.0,94.0
3747,75.0,1,0,1.0,98.0
3748,75.0,0,120,2.0,94.0
3749,63.0,1,0,4.0,107.0
3750,51.0,0,120,4.0,107.0
3751,63.0,0,0,2.0,94.0
3752,48.0,13,30,11.0,117.0
3753,50.0,15,15,6.0,122.0
3754,51.0,0,15,6.0,122.0
3755,60.0,2,30,11.0,117.0
3756,50.0,14,15,6.0,122.0
3757,50.0,1,45,12.0,117.0
3758,50.0,1,45,3.0,110.0
3759,51.0,2,15,6.0,122.0
3760,38.0,1,45,13.0,127.0
3761,51.0,0,60,4.0,107.0
3762,63.0,11,0,4.0,107.0
3763,60.0,13,30,11.0,117.0
3764,50.0,15,15,6.0,122.0
3765,51.0,1,15,6.0,122.0
3766,48.0,13,0,11.0,117.0
3767,50.0,14,15,6.0,122.0
3768,51.0,2,15,6.0,122.0
3769,75.0,0,300,8.0,117.0
3770,87.0,9,0,0.0,94.0
3771,75.0,1,300,5.0,104.0
3772,63.0,0,300,5.0,104.0
3773,75.0,0,120,2.0,94.0
3774,63.0,1,300,10.0,112.0
3775,63.0,2,0,3.0,110.0
3776,51.0,15,15,6.0,122.0
3777,77.0,0,20,8.0,117.0
3778,65.0,0,20,10.0,112.0
3779,60.0,12,0,11.0,117.0
3780,75.0,14,20,8.0,117.0
3781,63.0,2,20,10.0,112.0
3782,74.0,6,20,8.0,117.0
3783,51.0,0,120,4.0,107.0
3784,62.0,2,20,10.0,112.0
3785,51.0,1,120,12.0,117.0
3786,51.0,0,120,3.0,110.0
3787,39.0,1,120,13.0,127.0
3788,48.0,27,0,11.0,117.0
3789,75.0,18,45,8.0,117.0
3790,63.0,2,45,10.0,112.0
3791,75.0,0,120,0.0,94.0
3792,75.0,1,120,1.0,98.0
3793,63.0,1,120,2.0,94.0
3794,75.0,0,120,2.0,94.0
3795,60.0,28,0,11.0,117.0
3796,77.0,0,45,8.0,117.0
3797,65.0,0,45,10.0,112.0
3798,89.0,0,60,0.0,94.0
3799,77.0,26,60,0.0,94.0
3800,77.0,1,60,1.0,98.0
3801,77.0,1,60,2.0,94.0
3802,65.0,0,60,2.0,94.0
3803,45.0,1,120,12.0,117.0
3804,45.0,1,120,3.0,110.0
3805,65.0,2,60,3.0,110.0
3806,33.0,1,120,13.0,127.0
3807,46.0,0,15,6.0,122.0
3808,50.0,13,0,11.0,117.0
3809,45.0,14,15,6.0,122.0
3810,46.0,1,45,12.0,117.0
3811,46.0,1,45,3.0,110.0
3812,46.0,2,15,6.0,122.0
3813,34.0,1,45,13.0,127.0
3814,74.0,0,60,0.0,94.0
3815,86.0,26,60,0.0,94.0
3816,74.0,1,0,1.0,98.0
3817,74.0,0,0,2.0,94.0
3818,62.0,0,0,2.0,94.0
3819,62.0,0,0,3.0,110.0
3820,45.0,15,15,6.0,122.0
3821,46.0,0,15,6.0,122.0
3822,48.0,1,20,12.0,117.0
3823,48.0,1,20,3.0,110.0
3824,36.0,1,20,13.0,127.0
3825,62.0,2,30,11.0,117.0
3826,45.0,14,15,6.0,122.0
3827,46.0,4,20,12.0,117.0
3828,46.0,1,20,3.0,110.0
3829,34.0,1,20,13.0,127.0
3830,46.0,2,15,6.0,122.0
3831,62.0,7,30,11.0,117.0
3832,45.0,9,20,12.0,117.0
3833,45.0,1,20,3.0,110.0
3834,45.0,4,15,6.0,122.0
3835,33.0,1,20,13.0,127.0
3836,46.0,0,15,6.0,122.0
3837,50.0,13,30,11.0,117.0
3838,45.0,14,15,6.0,122.0
3839,46.0,1,45,12.0,117.0
3840,46.0,2,15,6.0,122.0
3841,46.0,1,45,3.0,110.0
3842,34.0,1,45,13.0,127.0
3843,74.0,0,120,0.0,94.0
3844,86.0,9,0,0.0,94.0
3845,74.0,1,0,1.0,98.0
3846,46.0,1,0,4.0,107.0
3847,58.0,0,120,4.0,107.0
3848,62.0,0,0,2.0,94.0
3849,74.0,0,0,2.0,94.0
3850,50.0,13,30,11.0,117.0
3851,45.0,15,15,6.0,122.0
3852,46.0,1,15,6.0,122.0
3853,62.0,13,0,11.0,117.0
3854,45.0,14,15,6.0,122.0
3855,48.0,1,45,12.0,117.0
3856,46.0,2,15,6.0,122.0
3857,48.0,0,45,3.0,110.0
3858,36.0,1,45,13.0,127.0
3859,58.0,11,0,4.0,107.0
3860,45.0,15,15,6.0,122.0
3861,46.0,1,15,6.0,122.0
3862,50.0,13,0,11.0,117.0
3863,45.0,14,15,6.0,122.0
3864,46.0,15,0,6.0,122.0
3865,74.0,0,300,8.0,117.0
3866,74.0,0,120,0.0,94.0
3867,86.0,0,0,0.0,94.0
3868,58.0,1,300,5.0,104.0
3869,70.0,0,300,5.0,104.0
3870,62.0,1,0,2.0,94.0
3871,62.0,0,300,10.0,112.0
3872,74.0,0,0,2.0,94.0
3873,62.0,2,0,3.0,110.0
3874,75.0,9,20,8.0,117.0
3875,63.0,0,20,10.0,112.0
3876,62.0,12,0,11.0,117.0
3877,74.0,14,20,8.0,117.0
3878,62.0,2,20,10.0,112.0
3879,72.0,6,20,8.0,117.0
3880,46.0,0,120,4.0,107.0
3881,60.0,2,20,10.0,112.0
3882,50.0,30,0,11.0,117.0
3883,74.0,18,45,8.0,117.0
3884,62.0,2,45,10.0,112.0
3885,74.0,0,120,0.0,94.0
3886,74.0,1,120,1.0,98.0
3887,62.0,28,0,11.0,117.0
3888,75.0,0,45,8.0,117.0
3889,63.0,1,45,10.0,112.0
3890,75.0,0,60,0.0,94.0
3891,87.0,26,60,0.0,94.0
3892,75.0,1,60,1.0,98.0
3893,63.0,0,60,2.0,94.0
3894,75.0,0,60,2.0,94.0
3895,63.0,2,60,3.0,110.0
3896,46.0,0,15,6.0,122.0
3897,50.0,2,30,11.0,117.0
3898,45.0,15,15,6.0,122.0
3899,46.0,2,15,6.0,122.0
3900,77.0,9,0,0.0,94.0
3901,89.0,0,0,0.0,94.0
3902,77.0,1,0,1.0,98.0
3903,77.0,0,60,2.0,94.0
3904,65.0,1,60,2.0,94.0
3905,50.0,13,30,11.0,117.0
3906,50.0,1,300,12.0,117.0
3907,65.0,2,60,3.0,110.0
3908,45.0,15,15,6.0,122.0
3909,50.0,0,300,3.0,110.0
3910,38.0,1,300,13.0,127.0
3911,46.0,0,15,6.0,122.0
3912,51.0,1,20,12.0,117.0
3913,51.0,0,20,3.0,110.0
3914,39.0,1,20,13.0,127.0
3915,62.0,7,0,11.0,117.0
3916,45.0,14,15,6.0,122.0
3917,50.0,4,20,12.0,117.0
3918,50.0,1,20,3.0,110.0
3919,38.0,1,20,13.0,127.0
3920,46.0,2,15,6.0,122.0
3921,48.0,9,20,12.0,117.0
3922,48.0,1,20,3.0,110.0
3923,45.0,4,15,6.0,122.0
3924,36.0,1,20,13.0,127.0
3925,46.0,1,15,6.0,122.0
3926,50.0,13,30,11.0,117.0
3927,45.0,14,15,6.0,122.0
3928,50.0,1,45,12.0,117.0
3929,50.0,0,45,3.0,110.0
3930,46.0,2,15,6.0,122.0
3931,38.0,1,45,13.0,127.0
3932,77.0,1,0,1.0,98.0
3933,77.0,0,120,2.0,94.0
3934,65.0,0,120,2.0,94.0
3935,65.0,1,120,4.0,107.0
3936,50.0,13,30,11.0,117.0
3937,45.0,15,15,6.0,122.0
3938,65.0,1,0,3.0,110.0
3939,46.0,0,15,6.0,122.0
3940,62.0,13,0,11.0,117.0
3941,45.0,14,15,6.0,122.0
3942,51.0,1,45,12.0,117.0
3943,51.0,0,45,3.0,110.0
3944,46.0,2,15,6.0,122.0
3945,39.0,1,45,13.0,127.0
3946,65.0,0,60,4.0,107.0
3947,45.0,15,15,6.0,122.0
3948,46.0,1,15,6.0,122.0
3949,50.0,2,30,11.0,117.0
3950,45.0,14,15,6.0,122.0
3951,46.0,15,0,6.0,122.0
3952,77.0,0,300,8.0,117.0
3953,89.0,0,0,0.0,94.0
3954,77.0,9,0,0.0,94.0
3955,70.0,0,300,5.0,104.0
3956,58.0,1,300,5.0,104.0
3957,77.0,0,120,2.0,94.0
3958,65.0,1,0,2.0,94.0
3959,65.0,0,300,10.0,112.0
3960,50.0,13,30,11.0,117.0
3961,79.0,0,20,8.0,117.0
3962,67.0,0,20,10.0,112.0
3963,62.0,2,30,11.0,117.0
3964,77.0,14,20,8.0,117.0
3965,65.0,2,20,10.0,112.0
3966,76.0,6,20,8.0,117.0
3967,65.0,11,120,4.0,107.0
3968,64.0,2,20,10.0,112.0
3969,62.0,12,30,11.0,117.0
3970,53.0,1,120,12.0,117.0
3971,53.0,0,120,3.0,110.0
3972,41.0,1,120,13.0,127.0
3973,50.0,27,0,11.0,117.0
3974,77.0,18,45,8.0,117.0
3975,65.0,2,45,10.0,112.0
3976,77.0,1,120,1.0,98.0
3977,77.0,0,120,2.0,94.0
3978,65.0,2,120,3.0,110.0
3979,62.0,28,0,11.0,117.0
3980,79.0,26,45,8.0,117.0
3981,67.0,1,45,10.0,112.0
3982,79.0,0,60,0.0,94.0
3983,91.0,0,60,0.0,94.0
3984,79.0,1,60,1.0,98.0
3985,67.0,0,60,2.0,94.0
3986,79.0,0,60,2.0,94.0
3987,47.0,1,120,12.0,117.0
3988,47.0,1,120,3.0,110.0
3989,67.0,2,60,3.0,110.0
3990,35.0,1,120,13.0,127.0
3991,60.0,27,0,11.0,117.0
3992,75.0,0,45,8.0,117.0
3993,63.0,1,45,10.0,112.0
3994,48.0,1,45,12.0,117.0
3995,48.0,1,45,3.0,110.0
3996,36.0,1,45,13.0,127.0
3997,87.0,26,60,0.0,94.0
3998,75.0,0,60,0.0,94.0
3999,75.0,1,60,1.0,98.0
4000,63.0,0,0,2.0,94.0
4001,75.0,1,0,2.0,94.0
4002,63.0,1,0,3.0,110.0
4003,77.0,26,20,8.0,117.0
4004,65.0,0,20,10.0,112.0
4005,48.0,12,0,11.0,117.0
4006,75.0,13,20,8.0,117.0
4007,63.0,2,20,10.0,112.0
4008,48.0,1,45,12.0,117.0
4009,48.0,0,45,3.0,110.0
4010,36.0,1,45,13.0,127.0
4011,74.0,6,20,8.0,117.0
4012,62.0,2,20,10.0,112.0
4013,60.0,27,0,11.0,117.0
4014,75.0,18,45,8.0,117.0
4015,63.0,0,45,10.0,112.0
4016,75.0,0,120,0.0,94.0
4017,87.0,0,120,0.0,94.0
4018,75.0,1,120,1.0,98.0
4019,62.0,2,30,11.0,117.0
4020,77.0,0,45,8.0,117.0
4021,65.0,0,45,10.0,112.0
4022,77.0,0,60,0.0,94.0
4023,89.0,26,60,0.0,94.0
4024,63.0,0,120,5.0,104.0
4025,75.0,1,120,5.0,104.0
4026,77.0,1,60,1.0,98.0
4027,63.0,1,120,4.0,107.0
4028,77.0,1,60,2.0,94.0
4029,51.0,0,120,4.0,107.0
4030,65.0,0,60,2.0,94.0
4031,62.0,28,30,11.0,117.0
4032,51.0,0,120,6.0,122.0
4033,65.0,2,60,3.0,110.0
4034,63.0,2,30,11.0,117.0
4035,79.0,26,45,8.0,117.0
4036,67.0,2,45,10.0,112.0
4037,63.0,30,30,11.0,117.0
4038,50.0,1,180,12.0,117.0
4039,50.0,1,180,3.0,110.0
4040,38.0,1,180,13.0,127.0
4041,80.0,0,20,8.0,117.0
4042,68.0,0,20,10.0,112.0
4043,51.0,2,30,11.0,117.0
4044,79.0,13,20,8.0,117.0
4045,67.0,2,20,10.0,112.0
4046,51.0,1,45,12.0,117.0
4047,51.0,1,45,3.0,110.0
4048,39.0,1,45,13.0,127.0
4049,77.0,6,20,8.0,117.0
4050,65.0,2,20,10.0,112.0
4051,51.0,12,30,11.0,117.0
4052,63.0,2,30,11.0,117.0
4053,79.0,18,45,8.0,117.0
4054,67.0,1,45,10.0,112.0
4055,91.0,26,120,0.0,94.0
4056,79.0,0,120,0.0,94.0
4057,79.0,1,120,1.0,98.0
4058,79.0,0,120,2.0,94.0
4059,67.0,1,120,2.0,94.0
4060,63.0,27,30,11.0,117.0
4061,67.0,0,120,3.0,110.0
4062,65.0,2,30,11.0,117.0
4063,80.0,0,45,8.0,117.0
4064,68.0,0,45,10.0,112.0
4065,92.0,0,60,0.0,94.0
4066,80.0,26,60,0.0,94.0
4067,80.0,1,60,1.0,98.0
4068,63.0,0,120,5.0,104.0
4069,75.0,1,120,5.0,104.0
4070,80.0,0,60,2.0,94.0
4071,68.0,1,60,2.0,94.0
4072,63.0,0,120,4.0,107.0
4073,51.0,0,120,4.0,107.0
4074,65.0,28,30,11.0,117.0
4075,68.0,2,60,3.0,110.0
4076,51.0,1,120,6.0,122.0
4077,62.0,2,30,11.0,117.0
4078,77.0,26,45,8.0,117.0
4079,65.0,2,45,10.0,112.0
4080,62.0,30,30,11.0,117.0
4081,53.0,1,180,12.0,117.0
4082,53.0,0,180,3.0,110.0
4083,41.0,1,180,13.0,127.0
4084,79.0,0,20,8.0,117.0
4085,67.0,0,20,10.0,112.0
4086,50.0,2,30,11.0,117.0
4087,77.0,13,20,8.0,117.0
4088,65.0,2,20,10.0,112.0
4089,50.0,1,45,12.0,117.0
4090,50.0,0,45,3.0,110.0
4091,38.0,1,45,13.0,127.0
4092,75.0,6,20,8.0,117.0
4093,63.0,2,20,10.0,112.0
4094,50.0,12,30,11.0,117.0
4095,62.0,2,30,11.0,117.0
4096,77.0,18,45,8.0,117.0
4097,65.0,1,45,10.0,112.0
4098,89.0,0,120,0.0,94.0
4099,77.0,26,120,0.0,94.0
4100,77.0,1,120,1.0,98.0
4101,77.0,0,120,2.0,94.0
4102,65.0,1,120,2.0,94.0
4103,62.0,27,30,11.0,117.0
4104,53.0,1,120,3.0,110.0
4105,63.0,28,0,11.0,117.0
4106,79.0,0,45,8.0,117.0
4107,67.0,0,45,10.0,112.0
4108,91.0,26,60,0.0,94.0
4109,79.0,0,60,0.0,94.0
4110,70.0,0,120,5.0,104.0
4111,58.0,1,120,5.0,104.0
4112,79.0,1,60,1.0,98.0
4113,65.0,0,120,4.0,107.0
4114,67.0,1,60,2.0,94.0
4115,79.0,0,60,2.0,94.0
4116,55.0,2,60,3.0,110.0
4117,46.0,0,120,6.0,122.0
4118,65.0,2,30,11.0,117.0
4119,80.0,26,45,8.0,117.0
4120,68.0,2,45,10.0,112.0
4121,65.0,30,30,11.0,117.0
4122,51.0,1,180,12.0,117.0
4123,51.0,1,180,3.0,110.0
4124,39.0,1,180,13.0,127.0
4125,82.0,26,20,8.0,117.0
4126,70.0,1,20,10.0,112.0
4127,53.0,2,30,11.0,117.0
4128,80.0,13,20,8.0,117.0
4129,68.0,2,20,10.0,112.0
4130,53.0,1,45,12.0,117.0
4131,53.0,1,45,3.0,110.0
4132,41.0,1,45,13.0,127.0
4133,79.0,6,20,8.0,117.0
4134,67.0,2,20,10.0,112.0
4135,53.0,12,30,11.0,117.0
4136,65.0,2,30,11.0,117.0
4137,80.0,18,45,8.0,117.0
4138,68.0,1,45,10.0,112.0
4139,68.0,1,120,1.0,98.0
4140,80.0,0,120,1.0,98.0
4141,80.0,0,120,2.0,94.0
4142,68.0,0,120,2.0,94.0
4143,65.0,27,30,11.0,117.0
4144,56.0,0,120,3.0,110.0
4145,67.0,28,0,11.0,117.0
4146,82.0,26,45,8.0,117.0
4147,70.0,0,45,10.0,112.0
4148,82.0,1,60,1.0,98.0
4149,70.0,0,60,1.0,98.0
4150,70.0,1,120,5.0,104.0
4151,58.0,0,120,5.0,104.0
4152,82.0,0,60,2.0,94.0
4153,70.0,1,60,2.0,94.0
4154,65.0,0,120,4.0,107.0
4155,46.0,0,120,6.0,122.0
4156,58.0,2,60,3.0,110.0
4157,68.0,2,30,11.0,117.0
4158,84.0,26,45,8.0,117.0
4159,72.0,0,45,10.0,112.0
4160,72.0,1,0,1.0,98.0
4161,84.0,0,0,1.0,98.0
4162,72.0,1,0,2.0,94.0
4163,84.0,0,60,2.0,94.0
4164,68.0,28,30,11.0,117.0
4165,55.0,1,180,12.0,117.0
4166,55.0,1,180,3.0,110.0
4167,60.0,0,0,3.0,110.0
4168,43.0,1,180,13.0,127.0
4169,86.0,0,20,8.0,117.0
4170,74.0,0,20,10.0,112.0
4171,56.0,12,0,11.0,117.0
4172,84.0,13,20,8.0,117.0
4173,72.0,2,20,10.0,112.0
4174,56.0,1,45,12.0,117.0
4175,56.0,1,45,3.0,110.0
4176,44.0,1,45,13.0,127.0
4177,83.0,6,20,8.0,117.0
4178,71.0,2,20,10.0,112.0
4179,68.0,27,0,11.0,117.0
4180,84.0,18,45,8.0,117.0
4181,72.0,1,45,10.0,112.0
4182,84.0,26,120,0.0,94.0
4183,72.0,0,120,0.0,94.0
4184,63.0,1,0,4.0,107.0
4185,51.0,0,0,4.0,107.0
4186,60.0,0,120,2.0,94.0
4187,71.0,28,0,11.0,117.0
4188,86.0,0,45,8.0,117.0
4189,74.0,0,45,10.0,112.0
4190,74.0,0,60,0.0,94.0
4191,86.0,26,60,0.0,94.0
4192,63.0,0,120,5.0,104.0
4193,75.0,1,120,5.0,104.0
4194,74.0,0,60,1.0,98.0
4195,86.0,1,60,1.0,98.0
4196,62.0,0,60,2.0,94.0
4197,74.0,0,60,2.0,94.0
4198,62.0,2,60,3.0,110.0
4199,51.0,1,120,6.0,122.0
4200,72.0,2,30,11.0,117.0
4201,87.0,26,45,8.0,117.0
4202,75.0,1,45,10.0,112.0
4203,74.0,1,60,1.0,98.0
4204,75.0,0,0,2.0,94.0
4205,63.0,0,0,2.0,94.0
4206,72.0,28,30,11.0,117.0
4207,59.0,1,0,12.0,117.0
4208,63.0,1,0,3.0,110.0
4209,59.0,0,0,3.0,110.0
4210,47.0,1,180,13.0,127.0
4211,89.0,26,20,8.0,117.0
4212,77.0,1,20,10.0,112.0
4213,48.0,12,0,11.0,117.0
4214,87.0,13,20,8.0,117.0
4215,75.0,2,20,10.0,112.0
4216,47.0,1,45,13.0,127.0
4217,86.0,6,20,8.0,117.0
4218,74.0,2,20,10.0,112.0
4219,60.0,27,0,11.0,117.0
4220,87.0,18,45,8.0,117.0
4221,75.0,1,45,10.0,112.0
4222,75.0,0,120,0.0,94.0
4223,87.0,0,120,0.0,94.0
4224,75.0,1,120,1.0,98.0
4225,51.0,0,120,4.0,107.0
4226,63.0,0,0,4.0,107.0
4227,59.0,28,0,11.0,117.0
4228,86.0,0,45,8.0,117.0
4229,74.0,0,45,10.0,112.0
4230,86.0,0,60,0.0,94.0
4231,74.0,26,60,0.0,94.0
4232,74.0,1,60,1.0,98.0
4233,75.0,1,120,5.0,104.0
4234,63.0,0,120,5.0,104.0
4235,74.0,0,60,2.0,94.0
4236,62.0,1,60,2.0,94.0
4237,51.0,0,60,4.0,107.0
4238,62.0,2,60,3.0,110.0
4239,51.0,1,120,6.0,122.0
4240,60.0,28,0,11.0,117.0
4241,87.0,26,45,8.0,117.0
4242,75.0,1,45,10.0,112.0
4243,75.0,1,60,1.0,98.0
4244,63.0,0,60,2.0,94.0
4245,75.0,0,0,2.0,94.0
4246,60.0,1,180,12.0,117.0
4247,63.0,2,60,3.0,110.0
4248,60.0,0,180,3.0,110.0
4249,48.0,1,180,13.0,127.0
4250,89.0,26,20,8.0,117.0
4251,77.0,0,20,10.0,112.0
4252,48.0,2,30,11.0,117.0
4253,87.0,13,20,8.0,117.0
4254,75.0,2,20,10.0,112.0
4255,59.0,1,45,12.0,117.0
4256,59.0,0,45,3.0,110.0
4257,47.0,1,45,13.0,127.0
4258,86.0,6,20,8.0,117.0
4259,74.0,2,20,10.0,112.0
4260,48.0,12,30,11.0,117.0
4261,60.0,2,30,11.0,117.0
4262,87.0,18,45,8.0,117.0
4263,75.0,1,45,10.0,112.0
4264,75.0,0,120,0.0,94.0
4265,87.0,0,120,0.0,94.0
4266,75.0,1,120,1.0,98.0
4267,63.0,0,120,2.0,94.0
4268,51.0,0,0,4.0,107.0
4269,63.0,0,0,4.0,107.0
4270,60.0,27,30,11.0,117.0
4271,63.0,1,120,3.0,110.0
4272,59.0,2,30,11.0,117.0
4273,86.0,0,45,8.0,117.0
4274,74.0,0,45,10.0,112.0
4275,86.0,26,60,0.0,94.0
4276,74.0,0,60,0.0,94.0
4277,74.0,1,60,1.0,98.0
4278,63.0,0,120,5.0,104.0
4279,75.0,1,120,5.0,104.0
4280,62.0,0,60,2.0,94.0
4281,74.0,1,60,2.0,94.0
4282,59.0,28,30,11.0,117.0
4283,51.0,0,120,6.0,122.0
4284,62.0,2,60,3.0,110.0
4285,60.0,2,30,11.0,117.0
4286,87.0,26,45,8.0,117.0
4287,75.0,0,45,10.0,112.0
4288,75.0,1,60,1.0,98.0
4289,75.0,1,60,2.0,94.0
4290,63.0,0,0,2.0,94.0
4291,60.0,28,30,11.0,117.0
4292,60.0,1,180,12.0,117.0
4293,60.0,1,180,3.0,110.0
4294,63.0,2,60,3.0,110.0
4295,48.0,1,180,13.0,127.0
4296,89.0,0,20,8.0,117.0
4297,77.0,1,20,10.0,112.0
4298,48.0,2,30,11.0,117.0
4299,87.0,13,20,8.0,117.0
4300,75.0,2,20,10.0,112.0
4301,59.0,1,45,3.0,110.0
4302,86.0,6,20,8.0,117.0
4303,74.0,2,20,10.0,112.0
4304,48.0,12,30,11.0,117.0
4305,59.0,1,60,12.0,117.0
4306,47.0,1,60,13.0,127.0
4307,60.0,2,30,11.0,117.0
4308,87.0,18,45,8.0,117.0
4309,75.0,1,45,10.0,112.0
4310,60.0,0,45,3.0,110.0
4311,75.0,0,120,0.0,94.0
4312,87.0,26,120,0.0,94.0
4313,75.0,1,120,1.0,98.0
4314,75.0,0,120,2.0,94.0
4315,63.0,1,0,4.0,107.0
4316,51.0,0,0,4.0,107.0
4317,60.0,27,30,11.0,117.0
4318,60.0,1,60,12.0,117.0
4319,63.0,0,120,3.0,110.0
4320,48.0,1,60,13.0,127.0
4321,58.0,2,30,11.0,117.0
4322,86.0,0,45,8.0,117.0
4323,74.0,0,45,10.0,112.0
4324,59.0,1,45,3.0,110.0
4325,86.0,0,60,0.0,94.0
4326,74.0,26,60,0.0,94.0
4327,74.0,1,60,1.0,98.0
4328,75.0,1,0,5.0,104.0
4329,63.0,0,0,5.0,104.0
4330,51.0,0,0,4.0,107.0
4331,62.0,0,60,2.0,94.0
4332,74.0,0,60,2.0,94.0
4333,58.0,27,30,11.0,117.0
4334,59.0,1,60,12.0,117.0
4335,62.0,0,60,3.0,110.0
4336,51.0,1,0,6.0,122.0
4337,47.0,1,60,13.0,127.0
4338,87.0,23,0,8.0,117.0
4339,75.0,0,30,10.0,112.0
4340,60.0,2,30,11.0,117.0
4341,87.0,0,60,0.0,94.0
4342,75.0,0,60,0.0,94.0
4343,75.0,1,0,1.0,98.0
4344,75.0,2,30,10.0,112.0
4345,75.0,1,60,2.0,94.0
4346,63.0,0,60,2.0,94.0
4347,60.0,2,30,11.0,117.0
4348,63.0,0,60,3.0,110.0
4349,87.0,24,0,8.0,117.0
4350,75.0,1,30,10.0,112.0
4351,48.0,2,30,11.0,117.0
4352,87.0,26,0,8.0,117.0
4353,75.0,2,0,10.0,112.0
4354,63.0,0,120,4.0,107.0
4355,48.0,2,30,11.0,117.0
4356,60.0,1,120,12.0,117.0
4357,60.0,0,120,3.0,110.0
4358,48.0,1,120,13.0,127.0
4359,87.0,23,0,8.0,117.0
4360,75.0,2,0,10.0,112.0
4361,62.0,2,0,11.0,117.0
4362,75.0,0,0,0.0,94.0
4363,87.0,26,0,0.0,94.0
4364,75.0,0,0,2.0,94.0
4365,63.0,0,0,2.0,94.0
4366,63.0,2,120,3.0,110.0
4367,87.0,24,0,8.0,117.0
4368,75.0,1,30,10.0,112.0
4369,50.0,2,0,11.0,117.0
4370,87.0,26,0,8.0,117.0
4371,75.0,2,0,10.0,112.0
4372,62.0,1,120,12.0,117.0
4373,62.0,1,120,3.0,110.0
4374,50.0,1,120,13.0,127.0
4375,63.0,2,30,11.0,117.0
4376,87.0,23,30,8.0,117.0
4377,75.0,1,0,1.0,98.0
4378,63.0,1,0,2.0,94.0
4379,75.0,0,0,10.0,112.0
4380,63.0,2,30,11.0,117.0
4381,63.0,1,60,3.0,110.0
4382,87.0,24,0,8.0,117.0
4383,51.0,2,30,11.0,117.0
4384,75.0,2,30,10.0,112.0
4385,51.0,2,30,11.0,117.0
4386,63.0,1,120,12.0,117.0
4387,63.0,2,60,3.0,110.0
4388,51.0,1,120,13.0,127.0
4389,87.0,26,30,8.0,117.0
4390,75.0,2,30,10.0,112.0
4391,64.0,2,30,11.0,117.0
4392,75.0,0,120,0.0,94.0
4393,87.0,26,0,8.0,117.0
4394,87.0,0,0,0.0,94.0
4395,75.0,2,30,10.0,112.0
4396,75.0,0,120,2.0,94.0
4397,64.0,2,30,11.0,117.0
4398,63.0,2,0,3.0,110.0
4399,87.0,24,0,8.0,117.0
4400,75.0,2,0,10.0,112.0
4401,52.0,2,0,11.0,117.0
4402,75.0,2,0,10.0,112.0
4403,64.0,1,120,12.0,117.0
4404,64.0,1,120,3.0,110.0
4405,52.0,1,120,13.0,127.0
4406,87.0,26,30,8.0,117.0
4407,75.0,2,0,10.0,112.0
4408,65.0,2,30,11.0,117.0
4409,75.0,0,120,0.0,94.0
4410,87.0,26,0,0.0,94.0
4411,87.0,0,0,8.0,117.0
4412,75.0,1,120,1.0,98.0
4413,75.0,0,120,2.0,94.0
4414,63.0,0,120,2.0,94.0
4415,75.0,1,0,10.0,112.0
4416,65.0,2,30,11.0,117.0
4417,63.0,2,0,3.0,110.0
4418,87.0,24,0,8.0,117.0
4419,53.0,2,0,11.0,117.0
4420,75.0,2,30,10.0,112.0
4421,65.0,1,120,12.0,117.0
4422,65.0,1,120,3.0,110.0
4423,53.0,1,120,13.0,127.0
4424,84.0,23,0,8.0,117.0
4425,72.0,0,30,10.0,112.0
4426,65.0,2,30,11.0,117.0
4427,84.0,26,0,8.0,117.0
4428,75.0,0,120,0.0,94.0
4429,75.0,1,120,1.0,98.0
4430,72.0,2,30,10.0,112.0
4431,75.0,0,120,2.0,94.0
4432,65.0,2,30,11.0,117.0
4433,53.0,1,60,12.0,117.0
4434,53.0,0,60,3.0,110.0
4435,41.0,1,60,13.0,127.0
4436,72.0,1,30,10.0,112.0
4437,67.0,2,30,11.0,117.0
4438,51.0,1,90,6.0,122.0
4439,84.0,23,30,8.0,117.0
4440,63.0,0,0,5.0,104.0
4441,75.0,1,0,5.0,104.0
4442,72.0,2,30,10.0,112.0
4443,63.0,1,120,4.0,107.0
4444,65.0,1,0,4.0,107.0
4445,67.0,2,30,11.0,117.0
4446,55.0,1,60,12.0,117.0
4447,55.0,1,60,3.0,110.0
4448,51.0,2,30,6.0,122.0
4449,43.0,1,60,13.0,127.0
4450,80.0,24,30,8.0,117.0
4451,68.0,2,0,10.0,112.0
4452,68.0,2,30,11.0,117.0
4453,84.0,0,120,0.0,94.0
4454,72.0,0,120,0.0,94.0
4455,80.0,26,0,8.0,117.0
4456,72.0,1,120,1.0,98.0
4457,84.0,0,120,1.0,98.0
4458,68.0,1,0,10.0,112.0
4459,72.0,0,120,2.0,94.0
4460,68.0,2,30,11.0,117.0
4461,60.0,0,120,3.0,110.0
4462,80.0,24,0,8.0,117.0
4463,56.0,2,0,11.0,117.0
4464,68.0,2,30,10.0,112.0
4465,63.0,1,0,4.0,107.0
4466,56.0,1,120,12.0,117.0
4467,51.0,1,0,6.0,122.0
4468,56.0,2,60,3.0,110.0
4469,44.0,1,120,13.0,127.0
4470,77.0,23,0,8.0,117.0
4471,65.0,0,30,10.0,112.0
4472,69.0,2,30,11.0,117.0
4473,68.0,0,120,0.0,94.0
4474,80.0,0,120,0.0,94.0
4475,80.0,1,120,1.0,98.0
4476,68.0,0,120,1.0,98.0
4477,65.0,2,30,10.0,112.0
4478,68.0,0,120,2.0,94.0
4479,69.0,2,30,11.0,117.0
4480,77.0,0,30,8.0,117.0
4481,65.0,2,0,10.0,112.0
4482,57.0,2,30,11.0,117.0
4483,77.0,24,30,8.0,117.0
4484,77.0,26,60,0.0,94.0
4485,89.0,0,60,0.0,94.0
4486,75.0,1,120,5.0,104.0
4487,65.0,1,60,1.0,98.0
4488,63.0,0,0,5.0,104.0
4489,77.0,0,60,1.0,98.0
4490,65.0,0,120,4.0,107.0
4491,63.0,1,0,4.0,107.0
4492,65.0,1,60,2.0,94.0
4493,57.0,2,30,11.0,117.0
4494,57.0,1,120,12.0,117.0
4495,57.0,0,120,3.0,110.0
4496,53.0,2,60,3.0,110.0
4497,51.0,2,30,6.0,122.0
4498,45.0,1,120,13.0,127.0
4499,46.0,0,15,6.0,122.0
4500,75.0,0,30,8.0,117.0
4501,63.0,2,0,10.0,112.0
4502,70.0,2,0,11.0,117.0
4503,45.0,14,15,6.0,122.0
4504,46.0,2,15,6.0,122.0
4505,75.0,9,30,8.0,117.0
4506,63.0,2,0,10.0,112.0
4507,45.0,15,15,6.0,122.0
4508,46.0,2,15,6.0,122.0
4509,75.0,9,30,8.0,117.0
4510,63.0,2,0,10.0,112.0
4511,58.0,2,0,11.0,117.0
4512,45.0,15,15,6.0,122.0
4513,46.0,2,15,6.0,122.0
4514,75.0,9,30,8.0,117.0
4515,87.0,0,120,0.0,94.0
4516,75.0,24,120,0.0,94.0
4517,63.0,1,120,1.0,98.0
4518,75.0,0,120,5.0,104.0
4519,75.0,0,120,1.0,98.0
4520,70.0,0,120,2.0,94.0
4521,67.0,0,120,4.0,107.0
4522,45.0,15,15,6.0,122.0
4523,46.0,2,15,6.0,122.0
4524,70.0,9,0,8.0,117.0
4525,70.0,2,0,10.0,112.0
4526,70.0,2,0,11.0,117.0
4527,45.0,15,15,6.0,122.0
4528,46.0,2,15,6.0,122.0
4529,70.0,9,0,8.0,117.0
4530,45.0,15,15,6.0,122.0
4531,46.0,2,15,6.0,122.0
4532,70.0,9,0,8.0,117.0
4533,70.0,2,30,10.0,112.0
4534,58.0,2,30,11.0,117.0
4535,45.0,15,15,6.0,122.0
4536,46.0,2,15,6.0,122.0
4537,70.0,9,120,0.0,94.0
4538,82.0,0,120,0.0,94.0
4539,70.0,0,120,1.0,98.0
4540,82.0,0,120,1.0,98.0
4541,70.0,1,120,5.0,104.0
4542,70.0,0,120,4.0,107.0
4543,82.0,0,120,2.0,94.0
4544,70.0,2,30,10.0,112.0
4545,58.0,1,120,4.0,107.0
4546,70.0,0,120,2.0,94.0
4547,58.0,2,30,11.0,117.0
4548,45.0,15,15,6.0,122.0
4549,46.0,2,15,6.0,122.0
4550,67.0,9,0,8.0,117.0
4551,67.0,0,30,10.0,112.0
4552,67.0,2,0,11.0,117.0
4553,45.0,15,15,6.0,122.0
4554,46.0,2,15,6.0,122.0
4555,67.0,9,0,8.0,117.0
4556,67.0,2,30,10.0,112.0
4557,45.0,15,15,6.0,122.0
4558,46.0,2,15,6.0,122.0
4559,67.0,9,0,8.0,117.0
4560,67.0,2,0,10.0,112.0
4561,55.0,2,0,11.0,117.0
4562,45.0,15,15,6.0,122.0
4563,46.0,2,15,6.0,122.0
4564,91.0,9,120,0.0,94.0
4565,79.0,0,120,0.0,94.0
4566,67.0,1,120,5.0,104.0
4567,79.0,0,120,1.0,98.0
4568,67.0,0,120,1.0,98.0
4569,67.0,0,120,2.0,94.0
4570,55.0,0,120,4.0,107.0
4571,67.0,0,120,4.0,107.0
4572,79.0,1,120,2.0,94.0
4573,45.0,15,15,6.0,122.0
4574,46.0,2,15,6.0,122.0
4575,63.0,9,0,8.0,117.0
4576,63.0,0,30,10.0,112.0
4577,63.0,2,0,11.0,117.0
4578,45.0,15,15,6.0,122.0
4579,46.0,2,15,6.0,122.0
4580,63.0,9,0,8.0,117.0
4581,63.0,2,30,10.0,112.0
4582,45.0,15,15,6.0,122.0
4583,46.0,2,15,6.0,122.0
4584,63.0,9,0,8.0,117.0
4585,63.0,2,30,10.0,112.0
4586,51.0,2,0,11.0,117.0
4587,45.0,15,15,6.0,122.0
4588,46.0,2,15,6.0,122.0
4589,87.0,0,120,0.0,94.0
4590,75.0,0,120,0.0,94.0
4591,75.0,1,120,1.0,98.0
4592,63.0,0,120,5.0,104.0
4593,63.0,0,120,1.0,98.0
4594,75.0,1,120,2.0,94.0
4595,63.0,0,120,2.0,94.0
4596,63.0,2,30,10.0,112.0
4597,51.0,0,120,4.0,107.0
4598,63.0,0,120,4.0,107.0
4599,45.0,15,15,6.0,122.0
4600,58.0,1,540,12.0,117.0
4601,58.0,1,540,3.0,110.0
4602,46.0,1,540,13.0,127.0
4603,58.0,0,120,8.0,117.0
4604,82.0,0,120,0.0,94.0
4605,70.0,9,120,0.0,94.0
4606,58.0,0,120,5.0,104.0
4607,70.0,1,120,5.0,104.0
4608,70.0,0,120,1.0,98.0
4609,58.0,1,120,4.0,107.0
4610,46.0,0,120,4.0,107.0
4611,70.0,0,120,2.0,94.0
4612,58.0,0,120,10.0,112.0
4613,58.0,0,120,2.0,94.0
4614,58.0,2,120,11.0,117.0
4615,56.0,59,60,12.0,117.0
4616,56.0,1,60,3.0,110.0
4617,46.0,2,120,6.0,122.0
4618,44.0,1,60,13.0,127.0
4619,53.0,58,45,12.0,117.0
4620,53.0,1,45,3.0,110.0
4621,41.0,1,45,13.0,127.0
4622,51.0,58,45,12.0,117.0
4623,51.0,1,45,3.0,110.0
4624,39.0,1,45,13.0,127.0
4625,50.0,1,45,12.0,117.0
4626,50.0,1,45,3.0,110.0
4627,38.0,1,45,13.0,127.0
4628,48.0,58,45,12.0,117.0
4629,48.0,1,45,3.0,110.0
4630,36.0,1,45,13.0,127.0
4631,70.0,0,120,8.0,117.0
4632,65.0,53,120,8.0,117.0
4633,58.0,0,120,8.0,117.0
4634,70.0,0,120,0.0,94.0
4635,82.0,0,120,0.0,94.0
4636,74.0,0,120,1.0,98.0
4637,77.0,1,120,1.0,98.0
4638,70.0,0,120,5.0,104.0
4639,58.0,0,120,5.0,104.0
4640,58.0,0,120,10.0,112.0
4641,70.0,0,120,10.0,112.0
4642,70.0,0,120,2.0,94.0
4643,62.0,0,120,2.0,94.0
4644,65.0,0,120,10.0,112.0
4645,58.0,1,120,4.0,107.0
4646,65.0,0,120,4.0,107.0
4647,53.0,2,120,11.0,117.0
4648,62.0,0,120,11.0,117.0
4649,58.0,0,120,11.0,117.0
4650,46.0,0,120,6.0,122.0
4651,46.0,58,45,12.0,117.0
4652,46.0,1,45,3.0,110.0
4653,34.0,1,45,13.0,127.0
4654,44.0,58,45,12.0,117.0
4655,44.0,1,45,3.0,110.0
4656,32.0,1,45,13.0,127.0
4657,75.0,54,60,1.0,98.0
4658,74.0,54,60,1.0,98.0
4659,43.0,1,120,12.0,117.0
4660,43.0,1,120,3.0,110.0
4661,31.0,1,120,13.0,127.0
4662,72.0,60,60,1.0,98.0
4663,70.0,60,60,1.0,98.0
4664,80.0,60,60,1.0,98.0
4665,68.0,1,60,2.0,94.0
4666,79.0,59,60,1.0,98.0
4667,67.0,1,60,2.0,94.0
4668,77.0,59,60,1.0,98.0
4669,65.0,1,60,2.0,94.0
4670,75.0,59,60,1.0,98.0
4671,63.0,1,60,2.0,94.0
4672,84.0,58,60,0.0,94.0
4673,80.0,1,60,1.0,98.0
4674,68.0,1,60,2.0,94.0
4675,72.0,0,60,2.0,94.0
4676,60.0,0,60,3.0,110.0
4677,56.0,4,60,3.0,110.0
4678,82.0,54,60,0.0,94.0
4679,79.0,1,60,1.0,98.0
4680,70.0,0,60,2.0,94.0
4681,67.0,1,60,2.0,94.0
4682,58.0,4,60,3.0,110.0
4683,55.0,0,60,3.0,110.0
4684,80.0,54,60,0.0,94.0
4685,77.0,1,60,1.0,98.0
4686,65.0,0,60,2.0,94.0
4687,68.0,1,60,2.0,94.0
4688,53.0,4,60,3.0,110.0
4689,56.0,0,60,3.0,110.0
4690,79.0,54,60,0.0,94.0
4691,75.0,1,60,1.0,98.0
4692,67.0,1,60,2.0,94.0
4693,58.0,1,720,10.0,112.0
4694,63.0,0,60,2.0,94.0
4695,55.0,2,720,11.0,117.0
4696,51.0,4,60,3.0,110.0
4697,55.0,0,60,3.0,110.0
4698,89.0,54,60,0.0,94.0
4699,86.0,1,60,1.0,98.0
4700,74.0,0,60,2.0,94.0
4701,77.0,0,60,2.0,94.0
4702,62.0,2,60,3.0,110.0
4703,65.0,0,60,3.0,110.0
4704,87.0,54,60,0.0,94.0
4705,84.0,1,60,1.0,98.0
4706,72.0,0,60,2.0,94.0
4707,75.0,1,60,2.0,94.0
4708,60.0,0,60,3.0,110.0
4709,63.0,4,60,3.0,110.0
4710,86.0,54,60,0.0,94.0
4711,82.0,1,60,1.0,98.0
4712,74.0,1,60,2.0,94.0
4713,70.0,0,60,2.0,94.0
4714,58.0,0,60,3.0,110.0
4715,62.0,4,60,3.0,110.0
4716,84.0,54,60,0.0,94.0
4717,80.0,1,60,1.0,98.0
4718,60.0,1,240,10.0,112.0
4719,68.0,0,60,2.0,94.0
4720,72.0,1,60,2.0,94.0
4721,56.0,2,240,11.0,117.0
4722,60.0,0,60,3.0,110.0
4723,56.0,4,60,3.0,110.0
4724,58.0,53,45,8.0,117.0
4725,67.0,0,120,2.0,94.0
4726,63.0,0,120,10.0,112.0
4727,70.0,1,120,2.0,94.0
4728,58.0,2,120,11.0,117.0
4729,60.0,60,45,8.0,117.0
4730,62.0,60,45,8.0,117.0
4731,63.0,60,45,8.0,117.0
4732,58.0,60,45,8.0,117.0
4733,82.0,54,360,0.0,94.0
4734,79.0,1,360,1.0,98.0
4735,67.0,0,360,4.0,107.0
4736,70.0,0,360,4.0,107.0
4737,55.0,1,360,3.0,110.0
4738,58.0,0,360,3.0,110.0
4739,65.0,0,45,8.0,117.0
4740,58.0,54,45,8.0,117.0
4741,80.0,60,120,0.0,94.0
4742,77.0,1,120,1.0,98.0
4743,65.0,0,120,4.0,107.0
4744,68.0,1,120,4.0,107.0
4745,53.0,0,120,3.0,110.0
4746,56.0,4,120,3.0,110.0
4747,67.0,0,45,8.0,117.0
4748,58.0,54,45,8.0,117.0
4749,68.0,60,45,8.0,117.0
4750,58.0,60,45,8.0,117.0
4751,79.0,60,240,0.0,94.0
4752,75.0,1,240,1.0,98.0
4753,63.0,1,240,4.0,107.0
4754,67.0,0,240,4.0,107.0
4755,46.0,1,720,12.0,117.0
4756,55.0,0,240,3.0,110.0
4757,51.0,4,240,3.0,110.0
4758,34.0,1,720,13.0,127.0
4759,70.0,0,90,8.0,117.0
4760,70.0,113,90,8.0,117.0
4761,77.0,60,240,0.0,94.0
4762,74.0,1,240,1.0,98.0
4763,58.0,1,240,4.0,107.0
4764,65.0,0,240,4.0,107.0
4765,44.0,3,240,12.0,117.0
4766,50.0,1,240,3.0,110.0
4767,53.0,0,240,3.0,110.0
4768,32.0,1,240,13.0,127.0
4769,75.0,0,60,0.0,94.0
4770,63.0,2,60,2.0,94.0
4771,51.0,1,60,3.0,110.0
4772,74.0,53,60,0.0,94.0
4773,62.0,2,60,2.0,94.0
4774,50.0,4,60,3.0,110.0
4775,72.0,54,60,0.0,94.0
4776,60.0,2,60,2.0,94.0
4777,48.0,4,60,3.0,110.0
4778,70.0,54,60,0.0,94.0
4779,58.0,2,60,2.0,94.0
4780,46.0,4,60,3.0,110.0
4781,80.0,54,60,0.0,94.0
4782,68.0,2,60,2.0,94.0
4783,56.0,2,60,3.0,110.0
4784,79.0,54,60,0.0,94.0
4785,67.0,2,60,2.0,94.0
4786,55.0,4,60,3.0,110.0
4787,77.0,54,60,0.0,94.0
4788,65.0,2,60,2.0,94.0
4789,53.0,4,60,3.0,110.0
4790,75.0,54,60,0.0,94.0
4791,63.0,2,60,2.0,94.0
4792,51.0,4,60,3.0,110.0
4793,84.0,54,60,0.0,94.0
4794,80.0,1,60,1.0,98.0
4795,68.0,1,60,2.0,94.0
4796,72.0,0,60,2.0,94.0
4797,56.0,4,60,3.0,110.0
4798,60.0,0,60,3.0,110.0
4799,82.0,54,60,0.0,94.0
4800,79.0,1,60,1.0,98.0
4801,70.0,1,60,2.0,94.0
4802,67.0,0,60,2.0,94.0
4803,55.0,0,60,3.0,110.0
4804,58.0,4,60,3.0,110.0
4805,80.0,54,60,0.0,94.0
4806,77.0,1,60,1.0,98.0
4807,68.0,0,60,2.0,94.0
4808,65.0,1,60,2.0,94.0
4809,56.0,4,60,3.0,110.0
4810,53.0,0,60,3.0,110.0
4811,79.0,54,60,0.0,94.0
4812,70.0,120,720,8.0,117.0
4813,75.0,1,60,1.0,98.0
4814,63.0,0,60,2.0,94.0
4815,67.0,1,60,2.0,94.0
4816,63.0,0,720,4.0,107.0
4817,51.0,0,720,4.0,107.0
4818,58.0,0,720,10.0,112.0
4819,58.0,2,480,11.0,117.0
4820,43.0,3,720,12.0,117.0
4821,55.0,0,60,3.0,110.0
4822,51.0,4,60,3.0,110.0
4823,31.0,1,720,13.0,127.0
4824,89.0,0,60,0.0,94.0
4825,86.0,1,60,1.0,98.0
4826,74.0,1,60,2.0,94.0
4827,77.0,0,60,2.0,94.0
4828,65.0,1,60,3.0,110.0
4829,62.0,0,60,3.0,110.0
4830,87.0,53,60,0.0,94.0
4831,84.0,1,60,1.0,98.0
4832,75.0,0,60,2.0,94.0
4833,72.0,1,60,2.0,94.0
4834,60.0,0,60,3.0,110.0
4835,63.0,4,60,3.0,110.0
4836,86.0,54,60,0.0,94.0
4837,82.0,1,60,1.0,98.0
4838,70.0,1,60,2.0,94.0
4839,74.0,0,60,2.0,94.0
4840,62.0,4,60,3.0,110.0
4841,58.0,0,60,3.0,110.0
4842,72.0,54,240,8.0,117.0
4843,84.0,54,60,0.0,94.0
4844,80.0,1,60,1.0,98.0
4845,63.0,0,240,4.0,107.0
4846,60.0,0,240,10.0,112.0
4847,51.0,0,240,4.0,107.0
4848,72.0,0,60,2.0,94.0
4849,68.0,1,60,2.0,94.0
4850,56.0,2,240,11.0,117.0
4851,44.0,1,240,12.0,117.0
4852,60.0,4,60,3.0,110.0
4853,56.0,0,60,3.0,110.0
4854,32.0,1,240,13.0,127.0
4855,46.0,1,45,12.0,117.0
4856,34.0,1,45,13.0,127.0
4857,46.0,58,45,12.0,117.0
4858,34.0,2,45,13.0,127.0
4859,70.0,54,120,8.0,117.0
4860,67.0,0,120,2.0,94.0
4861,67.0,0,120,10.0,112.0
4862,70.0,0,120,2.0,94.0
4863,58.0,2,120,11.0,117.0
4864,48.0,58,45,12.0,117.0
4865,36.0,2,45,13.0,127.0
4866,50.0,58,45,12.0,117.0
4867,38.0,2,45,13.0,127.0
4868,51.0,58,45,12.0,117.0
4869,39.0,2,45,13.0,127.0
4870,46.0,58,45,12.0,117.0
4871,34.0,2,45,13.0,127.0
4872,82.0,0,360,0.0,94.0
4873,79.0,1,360,1.0,98.0
4874,67.0,0,360,4.0,107.0
4875,70.0,1,360,4.0,107.0
4876,55.0,0,360,3.0,110.0
4877,58.0,1,360,3.0,110.0
4878,53.0,3,45,12.0,117.0
4879,41.0,1,45,13.0,127.0
4880,46.0,58,45,12.0,117.0
4881,34.0,2,45,13.0,127.0
4882,80.0,53,120,0.0,94.0
4883,77.0,1,120,1.0,98.0
4884,68.0,1,120,4.0,107.0
4885,65.0,0,120,4.0,107.0
4886,56.0,0,120,3.0,110.0
4887,53.0,1,120,3.0,110.0
4888,70.0,25,0,10.0,112.0
4889,58.0,2,0,11.0,117.0
4890,55.0,1,45,12.0,117.0
4891,43.0,1,45,13.0,127.0
4892,70.0,28,30,10.0,112.0
4893,58.0,2,0,11.0,117.0
4894,46.0,1,45,12.0,117.0
4895,34.0,2,45,13.0,127.0
4896,70.0,25,30,10.0,112.0
4897,70.0,25,0,10.0,112.0
4898,58.0,2,0,11.0,117.0
4899,56.0,1,45,12.0,117.0
4900,44.0,2,45,13.0,127.0
4901,70.0,28,0,10.0,112.0
4902,58.0,2,30,11.0,117.0
4903,46.0,1,45,12.0,117.0
4904,34.0,2,45,13.0,127.0
4905,79.0,53,240,0.0,94.0
4906,75.0,1,240,1.0,98.0
4907,67.0,0,240,4.0,107.0
4908,63.0,1,240,4.0,107.0
4909,70.0,25,30,10.0,112.0
4910,58.0,2,30,11.0,117.0
4911,51.0,1,240,3.0,110.0
4912,55.0,0,240,3.0,110.0
4913,82.0,0,30,8.0,117.0
4914,70.0,2,0,10.0,112.0
4915,58.0,2,0,11.0,117.0
4916,82.0,26,0,8.0,117.0
4917,70.0,2,0,10.0,112.0
4918,82.0,26,0,8.0,117.0
4919,70.0,2,0,10.0,112.0
4920,58.0,2,0,11.0,117.0
4921,82.0,26,0,8.0,117.0
4922,70.0,2,0,10.0,112.0
4923,58.0,1,120,12.0,117.0
4924,46.0,1,120,13.0,127.0
4925,82.0,23,0,8.0,117.0
4926,70.0,2,0,10.0,112.0
4927,56.0,2,0,11.0,117.0
4928,82.0,26,30,8.0,117.0
4929,70.0,2,30,10.0,112.0
4930,56.0,2,0,11.0,117.0
4931,82.0,26,30,8.0,117.0
4932,89.0,0,120,0.0,94.0
4933,77.0,26,240,0.0,94.0
4934,73.0,1,240,1.0,98.0
4935,70.0,0,240,1.0,98.0
4936,70.0,2,30,10.0,112.0
4937,70.0,0,240,2.0,94.0
4938,82.0,0,240,2.0,94.0
4939,65.0,0,240,4.0,107.0
4940,58.0,1,0,4.0,107.0
4941,56.0,1,120,12.0,117.0
4942,65.0,1,240,3.0,110.0
4943,61.0,0,240,3.0,110.0
4944,44.0,2,120,13.0,127.0
4945,82.0,0,30,8.0,117.0
4946,70.0,0,30,10.0,112.0
4947,55.0,2,30,11.0,117.0
4948,88.0,0,45,0.0,94.0
4949,76.0,26,45,0.0,94.0
4950,76.0,0,45,1.0,98.0
4951,73.0,0,45,1.0,98.0
4952,64.0,1,45,3.0,110.0
4953,82.0,0,0,8.0,117.0
4954,70.0,2,30,10.0,112.0
4955,55.0,2,30,11.0,117.0
4956,70.0,2,0,10.0,112.0
4957,67.0,2,0,11.0,117.0
4958,70.0,0,45,0.0,94.0
4959,82.0,26,45,0.0,94.0
4960,70.0,1,45,1.0,98.0
4961,58.0,2,45,3.0,110.0
4962,82.0,24,30,8.0,117.0
4963,46.0,0,120,6.0,122.0
4964,55.0,0,120,3.0,110.0
4965,82.0,0,30,8.0,117.0
4966,70.0,1,30,10.0,112.0
4967,55.0,2,0,11.0,117.0
4968,72.0,0,45,0.0,94.0
4969,84.0,26,45,0.0,94.0
4970,72.0,1,45,1.0,98.0
4971,60.0,2,45,3.0,110.0
4972,82.0,24,30,8.0,117.0
4973,70.0,1,0,10.0,112.0
4974,82.0,24,0,8.0,117.0
4975,67.0,2,0,11.0,117.0
4976,73.0,0,45,0.0,94.0
4977,85.0,26,45,0.0,94.0
4978,73.0,1,45,1.0,98.0
4979,61.0,2,45,3.0,110.0
4980,70.0,1,0,10.0,112.0
4981,82.0,24,0,8.0,117.0
4982,55.0,2,0,11.0,117.0
4983,76.0,26,45,0.0,94.0
4984,88.0,0,45,0.0,94.0
4985,76.0,1,45,1.0,98.0
4986,64.0,2,45,3.0,110.0
4987,82.0,26,0,8.0,117.0
4988,70.0,2,30,10.0,112.0
4989,70.0,1,30,10.0,112.0
4990,67.0,2,0,11.0,117.0
4991,70.0,0,45,0.0,94.0
4992,82.0,0,45,0.0,94.0
4993,70.0,1,45,1.0,98.0
4994,58.0,2,45,3.0,110.0
4995,82.0,24,30,8.0,117.0
4996,58.0,1,0,5.0,104.0
4997,70.0,1,360,5.0,104.0
4998,82.0,0,360,2.0,94.0
4999,70.0,0,360,2.0,94.0
5000,70.0,2,30,10.0,112.0
5001,58.0,0,0,4.0,107.0
5002,46.0,0,360,4.0,107.0
5003,55.0,1,360,12.0,117.0
5004,55.0,0,240,3.0,110.0
5005,43.0,1,360,13.0,127.0
5006,80.0,0,30,8.0,117.0
5007,68.0,2,0,10.0,112.0
5008,53.0,2,0,11.0,117.0
5009,77.0,0,45,0.0,94.0
5010,89.0,26,45,0.0,94.0
5011,77.0,0,45,1.0,98.0
5012,65.0,0,45,3.0,110.0
5013,80.0,23,30,8.0,117.0
5014,68.0,1,0,10.0,112.0
5015,80.0,24,0,8.0,117.0
5016,65.0,2,0,11.0,117.0
5017,82.0,26,45,0.0,94.0
5018,70.0,0,45,0.0,94.0
5019,70.0,1,45,1.0,98.0
5020,58.0,2,45,3.0,110.0
5021,70.0,0,0,5.0,104.0
5022,46.0,0,120,4.0,107.0
5023,68.0,1,120,2.0,94.0
5024,68.0,2,30,10.0,112.0
5025,80.0,0,120,2.0,94.0
5026,58.0,0,0,4.0,107.0
5027,53.0,1,120,12.0,117.0
5028,46.0,1,120,6.0,122.0
5029,53.0,0,120,3.0,110.0
5030,41.0,1,120,13.0,127.0
5031,79.0,26,30,8.0,117.0
5032,67.0,0,30,10.0,112.0
5033,52.0,2,30,11.0,117.0
5034,79.0,0,45,0.0,94.0
5035,91.0,0,45,0.0,94.0
5036,79.0,1,45,1.0,98.0
5037,67.0,0,45,3.0,110.0
5038,79.0,23,30,8.0,117.0
5039,67.0,2,30,10.0,112.0
5040,52.0,2,30,11.0,117.0
5041,79.0,0,30,8.0,117.0
5042,67.0,2,0,10.0,112.0
5043,64.0,2,30,11.0,117.0
5044,82.0,0,45,0.0,94.0
5045,70.0,26,45,0.0,94.0
5046,70.0,1,45,1.0,98.0
5047,58.0,2,45,3.0,110.0
5048,79.0,24,30,8.0,117.0
5049,58.0,0,120,5.0,104.0
5050,46.0,0,120,4.0,107.0
5051,79.0,1,120,2.0,94.0
5052,67.0,0,120,2.0,94.0
5053,58.0,1,0,4.0,107.0
5054,64.0,2,30,11.0,117.0
5055,52.0,1,120,12.0,117.0
5056,46.0,0,120,6.0,122.0
5057,52.0,1,120,3.0,110.0
5058,40.0,1,120,13.0,127.0
5059,77.0,23,0,8.0,117.0
5060,65.0,0,30,10.0,112.0
5061,49.0,2,0,11.0,117.0
5062,79.0,0,45,0.0,94.0
5063,91.0,26,45,0.0,94.0
5064,79.0,1,45,1.0,98.0
5065,67.0,0,45,3.0,110.0
5066,77.0,26,0,8.0,117.0
5067,65.0,1,0,10.0,112.0
5068,77.0,24,0,8.0,117.0
5069,65.0,2,0,10.0,112.0
5070,61.0,2,30,11.0,117.0
5071,89.0,0,45,0.0,94.0
5072,77.0,0,45,0.0,94.0
5073,77.0,1,45,1.0,98.0
5074,65.0,2,45,3.0,110.0
5075,58.0,0,0,5.0,104.0
5076,70.0,1,0,5.0,104.0
5077,46.0,0,120,4.0,107.0
5078,65.0,0,120,2.0,94.0
5079,77.0,0,120,2.0,94.0
5080,61.0,2,30,11.0,117.0
5081,49.0,1,120,12.0,117.0
5082,46.0,1,120,6.0,122.0
5083,49.0,0,120,3.0,110.0
5084,37.0,1,120,13.0,127.0
5085,76.0,0,30,8.0,117.0
5086,64.0,2,0,10.0,112.0
5087,48.0,2,30,11.0,117.0
5088,91.0,0,45,0.0,94.0
5089,79.0,26,45,0.0,94.0
5090,79.0,0,45,1.0,98.0
5091,67.0,0,45,3.0,110.0
5092,76.0,23,30,8.0,117.0
5093,48.0,2,30,11.0,117.0
5094,76.0,24,0,8.0,117.0
5095,64.0,1,30,10.0,112.0
5096,60.0,2,0,11.0,117.0
5097,88.0,0,45,0.0,94.0
5098,76.0,0,45,0.0,94.0
5099,76.0,1,45,1.0,98.0
5100,64.0,2,45,3.0,110.0
5101,70.0,0,0,5.0,104.0
5102,58.0,1,0,5.0,104.0
5103,46.0,1,120,4.0,107.0
5104,58.0,0,120,4.0,107.0
5105,64.0,2,30,10.0,112.0
5106,64.0,0,120,2.0,94.0
5107,76.0,0,120,2.0,94.0
5108,48.0,1,120,12.0,117.0
5109,48.0,0,120,3.0,110.0
5110,46.0,0,0,6.0,122.0
5111,36.0,1,120,13.0,127.0
5112,82.0,23,0,8.0,117.0
5113,70.0,0,30,10.0,112.0
5114,55.0,2,30,11.0,117.0
5115,91.0,0,45,0.0,94.0
5116,79.0,26,45,0.0,94.0
5117,79.0,0,45,1.0,98.0
5118,67.0,0,45,3.0,110.0
5119,82.0,26,0,8.0,117.0
5120,70.0,1,0,10.0,112.0
5121,55.0,2,30,11.0,117.0
5122,67.0,2,30,11.0,117.0
5123,76.0,0,45,0.0,94.0
5124,88.0,0,45,0.0,94.0
5125,76.0,1,45,1.0,98.0
5126,64.0,2,45,3.0,110.0
5127,82.0,24,30,8.0,117.0
5128,58.0,1,0,5.0,104.0
5129,46.0,1,120,4.0,107.0
5130,58.0,0,120,4.0,107.0
5131,79.0,0,120,2.0,94.0
5132,70.0,2,30,10.0,112.0
5133,67.0,0,0,2.0,94.0
5134,67.0,2,30,11.0,117.0
5135,48.0,1,120,12.0,117.0
5136,48.0,0,0,3.0,110.0
5137,46.0,1,0,6.0,122.0
5138,36.0,1,120,13.0,127.0
5139,82.0,0,30,8.0,117.0
5140,70.0,0,30,10.0,112.0
5141,67.0,2,0,11.0,117.0
5142,48.0,1,45,12.0,117.0
5143,60.0,0,45,3.0,110.0
5144,36.0,1,45,13.0,127.0
5145,82.0,26,0,8.0,117.0
5146,70.0,2,30,10.0,112.0
5147,67.0,2,0,11.0,117.0
5148,82.0,23,0,8.0,117.0
5149,70.0,2,30,10.0,112.0
5150,48.0,1,45,12.0,117.0
5151,60.0,0,45,3.0,110.0
5152,48.0,1,45,3.0,110.0
5153,36.0,1,45,13.0,127.0
5154,70.0,0,120,5.0,104.0
5155,70.0,2,30,10.0,112.0
5156,67.0,2,30,11.0,117.0
5157,70.0,26,30,8.0,117.0
5158,58.0,2,0,10.0,112.0
5159,55.0,2,0,11.0,117.0
5160,52.0,1,45,12.0,117.0
5161,52.0,0,45,3.0,110.0
5162,64.0,1,45,3.0,110.0
5163,40.0,1,45,13.0,127.0
5164,91.0,0,0,0.0,94.0
5165,84.0,0,0,0.0,94.0
5166,70.0,23,30,8.0,117.0
5167,82.0,0,180,1.0,98.0
5168,79.0,0,180,1.0,98.0
5169,67.0,1,180,4.0,107.0
5170,70.0,0,180,2.0,94.0
5171,82.0,26,30,8.0,117.0
5172,70.0,2,0,10.0,112.0
5173,67.0,2,30,11.0,117.0
5174,48.0,1,45,12.0,117.0
5175,48.0,0,45,3.0,110.0
5176,60.0,1,45,3.0,110.0
5177,36.0,1,45,13.0,127.0
5178,82.0,23,30,8.0,117.0
5179,79.0,1,60,1.0,98.0
5180,82.0,0,60,1.0,98.0
5181,70.0,0,60,2.0,94.0
5182,67.0,1,60,2.0,94.0
5183,67.0,0,60,4.0,107.0
5184,67.0,2,30,11.0,117.0
5185,80.0,26,30,8.0,117.0
5186,68.0,2,0,10.0,112.0
5187,65.0,2,30,11.0,117.0
5188,53.0,1,45,12.0,117.0
5189,65.0,0,45,3.0,110.0
5190,53.0,1,45,3.0,110.0
5191,41.0,1,45,13.0,127.0
5192,80.0,23,30,8.0,117.0
5193,65.0,2,30,11.0,117.0
5194,80.0,23,0,8.0,117.0
5195,68.0,2,30,10.0,112.0
5196,65.0,2,0,11.0,117.0
5197,53.0,1,45,12.0,117.0
5198,53.0,1,45,3.0,110.0
5199,41.0,1,45,13.0,127.0
5200,77.0,1,120,5.0,104.0
5201,68.0,2,30,10.0,112.0
5202,68.0,23,0,8.0,117.0
5203,56.0,2,30,10.0,112.0
5204,53.0,2,30,11.0,117.0
5205,56.0,1,45,12.0,117.0
5206,56.0,1,45,3.0,110.0
5207,44.0,1,45,13.0,127.0
5208,92.0,0,180,0.0,94.0
5209,84.0,0,180,0.0,94.0
5210,80.0,0,180,1.0,98.0
5211,77.0,1,0,1.0,98.0
5212,56.0,2,30,10.0,112.0
5213,65.0,1,0,4.0,107.0
5214,65.0,0,0,2.0,94.0
5215,68.0,0,0,2.0,94.0
5216,53.0,2,30,11.0,117.0
5217,80.0,0,30,8.0,117.0
5218,68.0,2,0,10.0,112.0
5219,65.0,2,30,11.0,117.0
5220,53.0,1,45,12.0,117.0
5221,53.0,1,45,3.0,110.0
5222,41.0,1,45,13.0,127.0
5223,89.0,26,60,0.0,94.0
5224,92.0,26,0,0.0,94.0
5225,80.0,0,0,8.0,117.0
5226,77.0,1,0,1.0,98.0
5227,80.0,0,60,1.0,98.0
5228,65.0,2,30,11.0,117.0
5229,68.0,0,30,10.0,112.0
5230,65.0,2,0,11.0,117.0
5231,50.0,1,45,12.0,117.0
5232,50.0,1,45,3.0,110.0
5233,38.0,1,45,13.0,127.0
5234,80.0,23,30,8.0,117.0
5235,68.0,2,30,10.0,112.0
5236,68.0,26,30,8.0,117.0
5237,56.0,2,30,10.0,112.0
5238,53.0,2,0,11.0,117.0
5239,46.0,1,45,12.0,117.0
5240,46.0,1,45,3.0,110.0
5241,34.0,1,45,13.0,127.0
5242,68.0,23,30,8.0,117.0
5243,89.0,0,120,0.0,94.0
5244,80.0,0,120,1.0,98.0
5245,70.0,0,120,5.0,104.0
5246,77.0,0,120,5.0,104.0
5247,68.0,1,120,2.0,94.0
5248,56.0,2,30,10.0,112.0
5249,65.0,0,120,4.0,107.0
5250,65.0,0,120,2.0,94.0
5251,58.0,0,120,4.0,107.0
5252,46.0,0,120,6.0,122.0
5253,79.0,23,0,8.0,117.0
5254,67.0,0,30,10.0,112.0
5255,63.0,2,0,11.0,117.0
5256,51.0,1,45,12.0,117.0
5257,51.0,0,45,3.0,110.0
5258,39.0,1,45,13.0,127.0
5259,67.0,2,30,10.0,112.0
5260,67.0,23,0,8.0,117.0
5261,55.0,2,30,10.0,112.0
5262,51.0,2,30,11.0,117.0
5263,55.0,1,45,12.0,117.0
5264,55.0,1,45,3.0,110.0
5265,43.0,1,45,13.0,127.0
5266,91.0,0,120,0.0,94.0
5267,87.0,0,120,0.0,94.0
5268,79.0,1,120,1.0,98.0
5269,75.0,0,120,1.0,98.0
5270,79.0,0,120,5.0,104.0
5271,75.0,0,120,5.0,104.0
5272,63.0,1,120,4.0,107.0
5273,67.0,0,120,4.0,107.0
5274,55.0,2,30,10.0,112.0
5275,67.0,0,120,2.0,94.0
5276,63.0,0,120,2.0,94.0
5277,51.0,2,30,11.0,117.0
5278,51.0,1,120,6.0,122.0
5279,77.0,0,30,8.0,117.0
5280,74.0,1,30,10.0,112.0
5281,58.0,2,0,11.0,117.0
5282,77.0,23,30,8.0,117.0
5283,74.0,2,30,10.0,112.0
5284,65.0,26,30,8.0,117.0
5285,62.0,2,30,10.0,112.0
5286,70.0,2,30,11.0,117.0
5287,65.0,26,30,8.0,117.0
5288,89.0,26,120,0.0,94.0
5289,86.0,0,120,0.0,94.0
5290,77.0,1,120,1.0,98.0
5291,70.0,0,120,5.0,104.0
5292,77.0,0,0,5.0,104.0
5293,74.0,0,120,1.0,98.0
5294,58.0,0,120,4.0,107.0
5295,62.0,2,30,10.0,112.0
5296,62.0,0,120,2.0,94.0
5297,65.0,0,120,2.0,94.0
5298,65.0,0,0,4.0,107.0
5299,70.0,2,30,11.0,117.0
5300,58.0,1,120,12.0,117.0
5301,58.0,1,120,3.0,110.0
5302,46.0,0,120,6.0,122.0
5303,46.0,1,120,13.0,127.0
5304,86.0,26,30,8.0,117.0
5305,77.0,2,0,10.0,112.0
5306,58.0,2,0,11.0,117.0
5307,86.0,23,30,8.0,117.0
5308,74.0,26,0,8.0,117.0
5309,65.0,2,0,10.0,112.0
5310,70.0,2,0,11.0,117.0
5311,86.0,0,120,0.0,94.0
5312,89.0,0,120,0.0,94.0
5313,70.0,0,120,5.0,104.0
5314,77.0,0,120,1.0,98.0
5315,82.0,1,120,1.0,98.0
5316,58.0,1,120,4.0,107.0
5317,65.0,0,120,2.0,94.0
5318,74.0,0,120,2.0,94.0
5319,46.0,1,120,12.0,117.0
5320,46.0,1,120,3.0,110.0
5321,46.0,0,120,6.0,122.0
5322,34.0,1,120,13.0,127.0
5323,51.0,0,15,6.0,122.0
5324,75.0,0,0,8.0,117.0
5325,87.0,9,0,8.0,117.0
5326,70.0,0,30,10.0,112.0
5327,79.0,1,30,10.0,112.0
5328,55.0,2,30,11.0,117.0
5329,51.0,2,0,11.0,117.0
5330,50.0,14,15,6.0,122.0
5331,39.0,1,45,12.0,117.0
5332,51.0,2,15,6.0,122.0
5333,27.0,1,45,13.0,127.0
5334,75.0,9,0,8.0,117.0
5335,63.0,0,60,5.0,104.0
5336,75.0,1,60,5.0,104.0
5337,70.0,1,0,10.0,112.0
5338,79.0,2,30,10.0,112.0
5339,55.0,0,30,11.0,117.0
5340,51.0,0,0,11.0,117.0
5341,50.0,15,15,6.0,122.0
5342,51.0,1,15,6.0,122.0
5343,87.0,0,30,8.0,117.0
5344,79.0,0,0,10.0,112.0
5345,70.0,2,0,10.0,112.0
5346,51.0,2,0,11.0,117.0
5347,55.0,2,30,11.0,117.0
5348,50.0,14,15,6.0,122.0
5349,39.0,1,45,12.0,117.0
5350,51.0,2,15,6.0,122.0
5351,27.0,1,45,13.0,127.0
5352,87.0,9,0,8.0,117.0
5353,75.0,0,0,8.0,117.0
5354,63.0,1,0,5.0,104.0
5355,75.0,0,60,5.0,104.0
5356,55.0,0,0,11.0,117.0
5357,50.0,15,15,6.0,122.0
5358,51.0,1,15,6.0,122.0
5359,70.0,0,30,10.0,112.0
5360,79.0,1,30,10.0,112.0
5361,51.0,2,30,11.0,117.0
5362,50.0,14,15,6.0,122.0
5363,43.0,1,45,12.0,117.0
5364,51.0,2,15,6.0,122.0
5365,31.0,1,45,13.0,127.0
5366,87.0,0,0,8.0,117.0
5367,75.0,9,0,8.0,117.0
5368,75.0,1,0,5.0,104.0
5369,79.0,1,0,10.0,112.0
5370,70.0,0,0,10.0,112.0
5371,55.0,0,30,11.0,117.0
5372,51.0,2,0,11.0,117.0
5373,50.0,15,15,6.0,122.0
5374,51.0,1,15,6.0,122.0
5375,75.0,0,0,8.0,117.0
5376,87.0,9,0,8.0,117.0
5377,79.0,0,0,10.0,112.0
5378,70.0,2,0,10.0,112.0
5379,51.0,0,0,11.0,117.0
5380,55.0,2,0,11.0,117.0
5381,50.0,14,15,6.0,122.0
5382,46.0,1,45,12.0,117.0
5383,51.0,2,15,6.0,122.0
5384,34.0,1,45,13.0,127.0
5385,63.0,0,60,5.0,104.0
5386,70.0,1,0,10.0,112.0
5387,79.0,0,0,10.0,112.0
5388,55.0,2,0,11.0,117.0
5389,51.0,0,0,11.0,117.0
5390,50.0,15,15,6.0,122.0
5391,51.0,1,15,6.0,122.0
5392,75.0,0,0,8.0,117.0
5393,87.0,9,0,8.0,117.0
5394,51.0,0,0,11.0,117.0
5395,55.0,2,0,11.0,117.0
5396,50.0,14,15,6.0,122.0
5397,51.0,1,45,12.0,117.0
5398,51.0,2,15,6.0,122.0
5399,39.0,1,45,13.0,127.0
5400,75.0,0,0,8.0,117.0
5401,63.0,1,0,5.0,104.0
5402,75.0,0,60,5.0,104.0
5403,70.0,0,30,10.0,112.0
5404,79.0,2,30,10.0,112.0
5405,51.0,0,0,11.0,117.0
5406,50.0,15,15,6.0,122.0
5407,51.0,1,15,6.0,122.0
5408,87.0,9,0,8.0,117.0
5409,79.0,2,0,10.0,112.0
5410,70.0,0,30,10.0,112.0
5411,51.0,2,0,11.0,117.0
5412,55.0,0,0,11.0,117.0
5413,50.0,14,15,6.0,122.0
5414,55.0,1,45,12.0,117.0
5415,51.0,2,15,6.0,122.0
5416,43.0,1,45,13.0,127.0
5417,75.0,9,0,8.0,117.0
5418,87.0,0,0,8.0,117.0
5419,75.0,0,60,5.0,104.0
5420,70.0,1,0,10.0,112.0
5421,51.0,0,0,11.0,117.0
5422,55.0,2,0,11.0,117.0
5423,50.0,15,15,6.0,122.0
5424,51.0,1,15,6.0,122.0
5425,87.0,9,0,8.0,117.0
5426,75.0,0,0,8.0,117.0
5427,79.0,0,30,10.0,112.0
5428,51.0,2,0,11.0,117.0
5429,50.0,14,15,6.0,122.0
5430,58.0,1,45,12.0,117.0
5431,51.0,2,15,6.0,122.0
5432,46.0,1,45,13.0,127.0
5433,75.0,9,0,8.0,117.0
5434,63.0,1,60,5.0,104.0
5435,75.0,0,60,5.0,104.0
5436,70.0,1,0,10.0,112.0
5437,79.0,0,0,10.0,112.0
5438,55.0,0,30,11.0,117.0
5439,50.0,15,15,6.0,122.0
5440,51.0,1,15,6.0,122.0
5441,87.0,0,0,8.0,117.0
5442,75.0,9,0,8.0,117.0
5443,55.0,2,30,11.0,117.0
5444,51.0,0,30,11.0,117.0
5445,50.0,14,15,6.0,122.0
5446,63.0,1,45,12.0,117.0
5447,51.0,2,15,6.0,122.0
5448,51.0,1,45,13.0,127.0
5449,63.0,0,0,5.0,104.0
5450,75.0,1,0,5.0,104.0
5451,79.0,1,0,10.0,112.0
5452,70.0,0,0,10.0,112.0
5453,55.0,0,30,11.0,117.0
5454,51.0,2,30,11.0,117.0
5455,50.0,15,15,6.0,122.0
5456,87.0,9,30,8.0,117.0
5457,70.0,0,0,10.0,112.0
5458,79.0,2,0,10.0,112.0
5459,51.0,2,30,11.0,117.0
5460,55.0,0,0,11.0,117.0
5461,87.0,23,30,8.0,117.0
5462,79.0,2,0,10.0,112.0
5463,70.0,0,0,10.0,112.0
5464,51.0,2,30,11.0,117.0
5465,55.0,0,0,11.0,117.0
5466,87.0,26,0,8.0,117.0
5467,55.0,2,0,11.0,117.0
5468,51.0,2,30,11.0,117.0
5469,87.0,0,600,0.0,94.0
5470,91.0,0,600,0.0,94.0
5471,82.0,0,600,1.0,98.0
5472,79.0,0,600,1.0,98.0
5473,79.0,0,30,10.0,112.0
5474,67.0,0,600,2.0,94.0
5475,70.0,1,0,10.0,112.0
5476,67.0,0,600,4.0,107.0
5477,63.0,0,600,4.0,107.0
5478,75.0,0,600,2.0,94.0
5479,51.0,0,30,11.0,117.0
5480,51.0,1,120,12.0,117.0
5481,51.0,1,120,6.0,122.0
5482,55.0,1,600,3.0,110.0
5483,51.0,2,0,3.0,110.0
5484,39.0,1,120,13.0,127.0
5485,82.0,24,0,8.0,117.0
5486,70.0,2,0,10.0,112.0
5487,55.0,0,30,11.0,117.0
5488,51.0,2,30,11.0,117.0
5489,82.0,26,0,8.0,117.0
5490,55.0,0,30,11.0,117.0
5491,51.0,2,0,11.0,117.0
5492,70.0,2,30,10.0,112.0
5493,51.0,2,0,11.0,117.0
5494,55.0,0,30,11.0,117.0
5495,94.0,26,120,0.0,94.0
5496,82.0,0,120,0.0,94.0
5497,82.0,26,30,8.0,117.0
5498,82.0,1,120,1.0,98.0
5499,70.0,2,30,10.0,112.0
5500,70.0,0,120,2.0,94.0
5501,67.0,0,120,4.0,107.0
5502,63.0,0,120,4.0,107.0
5503,55.0,0,30,11.0,117.0
5504,51.0,0,0,11.0,117.0
5505,58.0,0,120,3.0,110.0
5506,80.0,0,30,8.0,117.0
5507,68.0,1,30,10.0,112.0
5508,55.0,2,0,11.0,117.0
5509,51.0,0,0,11.0,117.0
5510,80.0,26,0,8.0,117.0
5511,68.0,2,0,10.0,112.0
5512,51.0,0,0,11.0,117.0
5513,55.0,2,0,11.0,117.0
5514,68.0,2,0,10.0,112.0
5515,51.0,0,0,11.0,117.0
5516,92.0,0,120,0.0,94.0
5517,80.0,26,30,8.0,117.0
5518,80.0,26,120,0.0,94.0
5519,80.0,1,120,1.0,98.0
5520,67.0,0,120,4.0,107.0
5521,68.0,0,120,2.0,94.0
5522,63.0,0,0,4.0,107.0
5523,51.0,2,0,11.0,117.0
5524,55.0,2,30,11.0,117.0
5525,56.0,2,120,3.0,110.0
5526,51.0,0,120,3.0,110.0
5527,79.0,24,0,8.0,117.0
5528,67.0,2,0,10.0,112.0
5529,55.0,0,0,11.0,117.0
5530,79.0,26,0,8.0,117.0
5531,51.0,2,30,11.0,117.0
5532,67.0,2,0,10.0,112.0
5533,51.0,2,0,11.0,117.0
5534,55.0,0,30,11.0,117.0
5535,91.0,26,120,0.0,94.0
5536,79.0,0,120,0.0,94.0
5537,79.0,26,30,8.0,117.0
5538,79.0,1,120,1.0,98.0
5539,63.0,0,0,5.0,104.0
5540,75.0,1,0,5.0,104.0
5541,67.0,0,120,4.0,107.0
5542,67.0,0,120,2.0,94.0
5543,51.0,2,0,11.0,117.0
5544,55.0,0,30,11.0,117.0
5545,51.0,0,120,3.0,110.0
5546,55.0,2,120,3.0,110.0
5547,51.0,1,15,6.0,122.0
5548,84.0,9,0,8.0,117.0
5549,72.0,0,30,10.0,112.0
5550,80.0,0,0,10.0,112.0
5551,60.0,0,30,11.0,117.0
5552,53.0,0,30,11.0,117.0
5553,51.0,2,0,11.0,117.0
5554,50.0,14,15,6.0,122.0
5555,44.0,1,45,12.0,117.0
5556,51.0,2,15,6.0,122.0
5557,32.0,1,45,13.0,127.0
5558,84.0,9,0,8.0,117.0
5559,63.0,1,0,5.0,104.0
5560,80.0,0,0,10.0,112.0
5561,72.0,1,0,10.0,112.0
5562,53.0,0,30,11.0,117.0
5563,60.0,0,30,11.0,117.0
5564,51.0,2,0,11.0,117.0
5565,50.0,15,15,6.0,122.0
5566,51.0,1,15,6.0,122.0
5567,84.0,9,0,8.0,117.0
5568,72.0,2,0,10.0,112.0
5569,53.0,0,0,11.0,117.0
5570,60.0,2,0,11.0,117.0
5571,51.0,0,0,11.0,117.0
5572,50.0,14,15,6.0,122.0
5573,44.0,1,45,12.0,117.0
5574,51.0,2,15,6.0,122.0
5575,32.0,1,45,13.0,127.0
5576,75.0,1,0,5.0,104.0
5577,80.0,1,0,10.0,112.0
5578,50.0,15,15,6.0,122.0
5579,51.0,1,15,6.0,122.0
5580,84.0,9,0,8.0,117.0
5581,72.0,0,0,10.0,112.0
5582,60.0,2,0,11.0,117.0
5583,51.0,0,0,11.0,117.0
5584,53.0,0,0,11.0,117.0
5585,50.0,14,15,6.0,122.0
5586,48.0,1,45,12.0,117.0
5587,51.0,2,15,6.0,122.0
5588,36.0,1,45,13.0,127.0
5589,84.0,9,0,8.0,117.0
5590,63.0,0,0,5.0,104.0
5591,80.0,0,0,10.0,112.0
5592,72.0,1,0,10.0,112.0
5593,60.0,0,0,11.0,117.0
5594,51.0,2,0,11.0,117.0
5595,50.0,15,15,6.0,122.0
5596,51.0,1,15,6.0,122.0
5597,84.0,9,0,8.0,117.0
5598,72.0,2,0,10.0,112.0
5599,53.0,0,30,11.0,117.0
5600,51.0,0,0,11.0,117.0
5601,50.0,14,15,6.0,122.0
5602,53.0,1,45,12.0,117.0
5603,51.0,2,15,6.0,122.0
5604,41.0,1,45,13.0,127.0
5605,75.0,1,0,5.0,104.0
5606,80.0,0,30,10.0,112.0
5607,72.0,1,0,10.0,112.0
5608,53.0,0,30,11.0,117.0
5609,60.0,2,30,11.0,117.0
5610,50.0,15,15,6.0,122.0
5611,51.0,1,15,6.0,122.0
5612,84.0,9,30,8.0,117.0
5613,80.0,0,0,10.0,112.0
5614,72.0,2,0,10.0,112.0
5615,53.0,0,30,11.0,117.0
5616,60.0,2,30,11.0,117.0
5617,51.0,0,0,11.0,117.0
5618,50.0,14,15,6.0,122.0
5619,56.0,1,45,12.0,117.0
5620,51.0,2,15,6.0,122.0
5621,44.0,1,45,13.0,127.0
5622,84.0,9,30,8.0,117.0
5623,63.0,1,0,5.0,104.0
5624,80.0,0,0,10.0,112.0
5625,51.0,2,0,11.0,117.0
5626,53.0,0,0,11.0,117.0
5627,60.0,2,30,11.0,117.0
5628,50.0,15,15,6.0,122.0
5629,51.0,1,15,6.0,122.0
5630,84.0,9,0,8.0,117.0
5631,72.0,1,30,10.0,112.0
5632,51.0,0,0,11.0,117.0
5633,60.0,2,0,11.0,117.0
5634,50.0,14,15,6.0,122.0
5635,60.0,1,45,12.0,117.0
5636,51.0,2,15,6.0,122.0
5637,48.0,1,45,13.0,127.0
5638,75.0,1,0,5.0,104.0
5639,63.0,0,0,5.0,104.0
5640,72.0,0,30,10.0,112.0
5641,80.0,0,0,10.0,112.0
5642,60.0,0,0,11.0,117.0
5643,53.0,0,0,11.0,117.0
5644,51.0,2,0,11.0,117.0
5645,50.0,15,15,6.0,122.0
5646,51.0,1,15,6.0,122.0
5647,84.0,9,30,8.0,117.0
5648,72.0,1,30,10.0,112.0
5649,51.0,2,0,11.0,117.0
5650,50.0,14,15,6.0,122.0
5651,65.0,1,45,12.0,117.0
5652,51.0,2,15,6.0,122.0
5653,53.0,1,45,13.0,127.0
5654,84.0,9,0,8.0,117.0
5655,63.0,1,0,5.0,104.0
5656,80.0,2,30,10.0,112.0
5657,72.0,0,0,10.0,112.0
5658,60.0,0,30,11.0,117.0
5659,53.0,0,30,11.0,117.0
5660,50.0,15,15,6.0,122.0
5661,51.0,1,15,6.0,122.0
5662,84.0,9,0,8.0,117.0
5663,80.0,2,0,10.0,112.0
5664,60.0,0,0,11.0,117.0
5665,51.0,2,0,11.0,117.0
5666,53.0,0,0,11.0,117.0
5667,50.0,14,15,6.0,122.0
5668,68.0,1,45,12.0,117.0
5669,51.0,2,15,6.0,122.0
5670,56.0,1,45,13.0,127.0
5671,84.0,9,0,8.0,117.0
5672,80.0,0,480,1.0,98.0
5673,75.0,0,0,5.0,104.0
5674,72.0,0,30,10.0,112.0
5675,68.0,0,480,2.0,94.0
5676,80.0,1,0,10.0,112.0
5677,72.0,0,480,2.0,94.0
5678,60.0,2,0,11.0,117.0
5679,53.0,0,0,11.0,117.0
5680,50.0,15,15,6.0,122.0
5681,56.0,0,480,3.0,110.0
5682,72.0,0,30,10.0,112.0
5683,80.0,0,0,10.0,112.0
5684,51.0,2,0,11.0,117.0
5685,84.0,26,0,8.0,117.0
5686,72.0,2,0,10.0,112.0
5687,60.0,0,0,11.0,117.0
5688,53.0,0,0,11.0,117.0
5689,72.0,0,0,10.0,112.0
5690,80.0,2,0,10.0,112.0
5691,51.0,2,0,11.0,117.0
5692,87.0,0,600,0.0,94.0
5693,89.0,0,600,0.0,94.0
5694,84.0,26,30,8.0,117.0
5695,84.0,0,600,1.0,98.0
5696,72.0,0,120,2.0,94.0
5697,63.0,1,600,4.0,107.0
5698,65.0,0,600,4.0,107.0
5699,84.0,0,120,2.0,94.0
5700,53.0,0,30,11.0,117.0
5701,60.0,0,30,11.0,117.0
5702,56.0,1,120,12.0,117.0
5703,44.0,0,600,3.0,110.0
5704,51.0,1,120,6.0,122.0
5705,62.0,0,120,3.0,110.0
5706,44.0,1,120,13.0,127.0
5707,80.0,24,0,8.0,117.0
5708,68.0,0,30,10.0,112.0
5709,60.0,2,30,11.0,117.0
5710,51.0,0,30,11.0,117.0
5711,53.0,0,0,11.0,117.0
5712,80.0,26,0,8.0,117.0
5713,68.0,2,30,10.0,112.0
5714,51.0,0,0,11.0,117.0
5715,60.0,2,0,11.0,117.0
5716,80.0,26,0,8.0,117.0
5717,68.0,2,0,10.0,112.0
5718,53.0,0,30,11.0,117.0
5719,60.0,2,0,11.0,117.0
5720,80.0,0,120,0.0,94.0
5721,92.0,26,120,0.0,94.0
5722,80.0,1,120,1.0,98.0
5723,63.0,0,120,4.0,107.0
5724,68.0,1,120,2.0,94.0
5725,65.0,0,0,4.0,107.0
5726,51.0,0,30,11.0,117.0
5727,53.0,2,0,11.0,117.0
5728,56.0,2,120,3.0,110.0
5729,44.0,0,0,3.0,110.0
5730,79.0,24,0,8.0,117.0
5731,67.0,0,30,10.0,112.0
5732,51.0,0,30,11.0,117.0
5733,60.0,0,30,11.0,117.0
5734,79.0,26,0,8.0,117.0
5735,67.0,2,30,10.0,112.0
5736,51.0,0,30,11.0,117.0
5737,53.0,0,30,11.0,117.0
5738,60.0,2,30,11.0,117.0
5739,79.0,26,0,8.0,117.0
5740,67.0,2,0,10.0,112.0
5741,51.0,0,30,11.0,117.0
5742,53.0,0,30,11.0,117.0
5743,60.0,2,30,11.0,117.0
5744,79.0,0,120,0.0,94.0
5745,91.0,26,120,0.0,94.0
5746,79.0,1,120,1.0,98.0
5747,63.0,1,120,4.0,107.0
5748,67.0,0,120,2.0,94.0
5749,51.0,2,30,11.0,117.0
5750,53.0,2,0,11.0,117.0
5751,60.0,0,0,11.0,117.0
5752,55.0,2,120,3.0,110.0
5753,77.0,24,0,8.0,117.0
5754,65.0,1,30,10.0,112.0
5755,51.0,0,0,11.0,117.0
5756,65.0,2,30,10.0,112.0
5757,60.0,2,30,11.0,117.0
5758,53.0,2,0,11.0,117.0
5759,77.0,26,0,8.0,117.0
5760,65.0,2,30,10.0,112.0
5761,51.0,0,30,11.0,117.0
5762,60.0,2,0,11.0,117.0
5763,53.0,0,0,11.0,117.0
5764,89.0,0,0,0.0,94.0
5765,77.0,26,120,0.0,94.0
5766,63.0,1,480,5.0,104.0
5767,77.0,0,0,1.0,98.0
5768,63.0,0,120,4.0,107.0
5769,65.0,0,120,4.0,107.0
5770,65.0,0,0,2.0,94.0
5771,65.0,2,30,10.0,112.0
5772,51.0,0,30,11.0,117.0
5773,53.0,2,120,3.0,110.0
5774,44.0,0,120,3.0,110.0
5775,46.0,1,15,6.0,122.0
5776,80.0,9,0,8.0,117.0
5777,68.0,0,0,10.0,112.0
5778,58.0,2,0,10.0,112.0
5779,53.0,0,30,11.0,117.0
5780,56.0,2,30,11.0,117.0
5781,45.0,14,15,6.0,122.0
5782,46.0,1,45,12.0,117.0
5783,46.0,2,15,6.0,122.0
5784,34.0,1,45,13.0,127.0
5785,58.0,0,60,5.0,104.0
5786,70.0,1,0,5.0,104.0
5787,58.0,0,0,10.0,112.0
5788,68.0,1,0,10.0,112.0
5789,53.0,0,30,11.0,117.0
5790,56.0,2,30,11.0,117.0
5791,45.0,15,15,6.0,122.0
5792,46.0,1,15,6.0,122.0
5793,80.0,9,30,8.0,117.0
5794,68.0,2,0,10.0,112.0
5795,53.0,0,30,11.0,117.0
5796,56.0,2,30,11.0,117.0
5797,45.0,14,15,6.0,122.0
5798,46.0,1,45,12.0,117.0
5799,46.0,2,15,6.0,122.0
5800,34.0,1,45,13.0,127.0
5801,80.0,9,30,8.0,117.0
5802,58.0,0,0,5.0,104.0
5803,70.0,1,0,5.0,104.0
5804,58.0,1,0,10.0,112.0
5805,53.0,0,30,11.0,117.0
5806,56.0,2,0,11.0,117.0
5807,45.0,15,15,6.0,122.0
5808,46.0,1,15,6.0,122.0
5809,80.0,9,30,8.0,117.0
5810,68.0,0,30,10.0,112.0
5811,53.0,0,0,11.0,117.0
5812,56.0,2,0,11.0,117.0
5813,45.0,14,15,6.0,122.0
5814,50.0,1,45,12.0,117.0
5815,46.0,2,15,6.0,122.0
5816,38.0,1,45,13.0,127.0
5817,80.0,9,0,8.0,117.0
5818,58.0,0,0,5.0,104.0
5819,70.0,1,0,5.0,104.0
5820,58.0,2,30,10.0,112.0
5821,68.0,0,0,10.0,112.0
5822,56.0,0,0,11.0,117.0
5823,53.0,2,0,11.0,117.0
5824,45.0,15,15,6.0,122.0
5825,46.0,1,15,6.0,122.0
5826,80.0,9,0,8.0,117.0
5827,58.0,2,0,10.0,112.0
5828,53.0,2,0,11.0,117.0
5829,45.0,14,15,6.0,122.0
5830,53.0,1,45,12.0,117.0
5831,46.0,2,15,6.0,122.0
5832,41.0,1,45,13.0,127.0
5833,58.0,1,0,5.0,104.0
5834,70.0,0,0,5.0,104.0
5835,68.0,1,0,10.0,112.0
5836,56.0,0,30,11.0,117.0
5837,53.0,2,0,11.0,117.0
5838,45.0,15,15,6.0,122.0
5839,46.0,1,15,6.0,122.0
5840,80.0,9,0,8.0,117.0
5841,58.0,0,0,10.0,112.0
5842,68.0,2,0,10.0,112.0
5843,56.0,0,30,11.0,117.0
5844,45.0,14,15,6.0,122.0
5845,58.0,1,45,12.0,117.0
5846,46.0,2,15,6.0,122.0
5847,46.0,1,45,13.0,127.0
5848,58.0,1,0,5.0,104.0
5849,56.0,0,30,11.0,117.0
5850,53.0,2,30,11.0,117.0
5851,45.0,15,15,6.0,122.0
5852,46.0,1,15,6.0,122.0
5853,80.0,9,30,8.0,117.0
5854,68.0,2,0,10.0,112.0
5855,58.0,0,0,10.0,112.0
5856,53.0,0,30,11.0,117.0
5857,56.0,2,0,11.0,117.0
5858,45.0,14,15,6.0,122.0
5859,62.0,1,45,12.0,117.0
5860,46.0,2,15,6.0,122.0
5861,50.0,1,45,13.0,127.0
5862,80.0,9,0,8.0,117.0
5863,58.0,0,0,5.0,104.0
5864,70.0,1,0,5.0,104.0
5865,53.0,2,0,11.0,117.0
5866,45.0,15,15,6.0,122.0
5867,46.0,1,15,6.0,122.0
5868,80.0,9,0,8.0,117.0
5869,58.0,0,0,10.0,112.0
5870,68.0,2,0,10.0,112.0
5871,53.0,2,0,11.0,117.0
5872,56.0,0,0,11.0,117.0
5873,45.0,14,15,6.0,122.0
5874,65.0,1,45,12.0,117.0
5875,46.0,2,15,6.0,122.0
5876,53.0,1,45,13.0,127.0
5877,80.0,9,0,8.0,117.0
5878,68.0,1,0,10.0,112.0
5879,45.0,15,15,6.0,122.0
5880,46.0,1,15,6.0,122.0
5881,58.0,0,30,10.0,112.0
5882,53.0,0,30,11.0,117.0
5883,56.0,2,30,11.0,117.0
5884,45.0,14,15,6.0,122.0
5885,68.0,1,45,12.0,117.0
5886,46.0,2,15,6.0,122.0
5887,56.0,1,45,13.0,127.0
5888,80.0,9,0,8.0,117.0
5889,58.0,0,0,5.0,104.0
5890,70.0,1,0,5.0,104.0
5891,68.0,0,30,10.0,112.0
5892,58.0,2,30,10.0,112.0
5893,56.0,2,0,11.0,117.0
5894,53.0,2,30,11.0,117.0
5895,45.0,15,15,6.0,122.0
5896,53.0,0,30,11.0,117.0
5897,53.0,0,30,11.0,117.0
5898,56.0,27,30,11.0,117.0
5899,53.0,30,0,11.0,117.0
5900,56.0,30,30,11.0,117.0
5901,92.0,0,600,0.0,94.0
5902,86.0,0,600,1.0,98.0
5903,74.0,1,600,2.0,94.0
5904,58.0,0,600,4.0,107.0
5905,68.0,0,120,10.0,112.0
5906,58.0,1,120,10.0,112.0
5907,65.0,0,600,4.0,107.0
5908,56.0,2,0,11.0,117.0
5909,46.0,1,120,12.0,117.0
5910,46.0,0,600,3.0,110.0
5911,58.0,0,600,3.0,110.0
5912,46.0,1,120,6.0,122.0
5913,34.0,1,120,13.0,127.0
5914,53.0,0,30,11.0,117.0
5915,53.0,30,0,11.0,117.0
5916,56.0,0,0,11.0,117.0
5917,77.0,26,120,8.0,117.0
5918,65.0,2,120,10.0,112.0
5919,53.0,30,30,11.0,117.0
5920,56.0,0,30,11.0,117.0
5921,53.0,0,0,11.0,117.0
5922,56.0,30,0,11.0,117.0
5923,53.0,0,0,11.0,117.0
5924,56.0,30,0,11.0,117.0
5925,75.0,26,120,8.0,117.0
5926,63.0,2,120,10.0,112.0
5927,53.0,2,0,11.0,117.0
5928,53.0,27,0,11.0,117.0
5929,56.0,0,0,11.0,117.0
5930,56.0,30,0,11.0,117.0
5931,89.0,26,90,0.0,94.0
5932,92.0,0,90,0.0,94.0
5933,80.0,0,0,1.0,98.0
5934,77.0,0,0,1.0,98.0
5935,70.0,1,0,5.0,104.0
5936,58.0,0,0,5.0,104.0
5937,65.0,1,0,4.0,107.0
5938,58.0,0,0,4.0,107.0
5939,68.0,0,90,2.0,94.0
5940,65.0,0,0,2.0,94.0
5941,53.0,0,30,11.0,117.0
5942,56.0,0,0,11.0,117.0
5943,46.0,1,0,12.0,117.0
5944,46.0,0,90,3.0,110.0
5945,46.0,1,90,6.0,122.0
5946,58.0,1,0,3.0,110.0
5947,34.0,1,0,13.0,127.0
5948,89.0,23,0,0.0,94.0
5949,74.0,0,120,8.0,117.0
5950,92.0,0,0,0.0,94.0
5951,77.0,0,0,1.0,98.0
5952,80.0,1,0,1.0,98.0
5953,62.0,0,120,10.0,112.0
5954,68.0,0,0,2.0,94.0
5955,58.0,0,0,4.0,107.0
5956,65.0,1,0,2.0,94.0
5957,53.0,2,0,11.0,117.0
5958,56.0,0,0,11.0,117.0
5959,46.0,1,0,6.0,122.0
5960,46.0,0,0,3.0,110.0
5961,34.0,1,0,13.0,127.0
5962,53.0,27,0,11.0,117.0
5963,56.0,0,0,11.0,117.0
5964,53.0,30,0,11.0,117.0
5965,53.0,30,0,11.0,117.0
5966,77.0,0,120,8.0,117.0
5967,58.0,0,120,5.0,104.0
5968,70.0,0,120,5.0,104.0
5969,65.0,0,120,10.0,112.0
5970,65.0,0,120,4.0,107.0
5971,56.0,0,30,11.0,117.0
5972,46.0,1,120,12.0,117.0
5973,58.0,0,120,3.0,110.0
5974,53.0,0,30,11.0,117.0
5975,56.0,2,30,11.0,117.0
5976,56.0,30,30,11.0,117.0
5977,53.0,0,30,11.0,117.0
5978,53.0,30,0,11.0,117.0
5979,56.0,0,0,11.0,117.0
5980,74.0,26,120,8.0,117.0
5981,62.0,2,120,10.0,112.0
5982,53.0,0,30,11.0,117.0
5983,56.0,2,30,11.0,117.0
5984,56.0,0,0,11.0,117.0
5985,53.0,30,0,11.0,117.0
5986,56.0,0,0,11.0,117.0
5987,53.0,30,0,11.0,117.0
5988,72.0,26,120,8.0,117.0
5989,60.0,2,120,10.0,112.0
5990,53.0,2,0,11.0,117.0
5991,56.0,27,0,11.0,117.0
5992,53.0,0,30,11.0,117.0
5993,92.0,26,0,0.0,94.0
5994,89.0,0,0,0.0,94.0
5995,58.0,1,0,5.0,104.0
5996,70.0,0,0,5.0,104.0
5997,80.0,0,0,1.0,98.0
5998,77.0,0,0,1.0,98.0
5999,65.0,1,0,4.0,107.0
6000,68.0,0,90,2.0,94.0
6001,65.0,0,90,2.0,94.0
6002,58.0,0,0,4.0,107.0
6003,53.0,0,30,11.0,117.0
6004,56.0,30,30,11.0,117.0
6005,46.0,1,90,12.0,117.0
6006,58.0,0,90,3.0,110.0
6007,46.0,1,90,6.0,122.0
6008,46.0,0,0,3.0,110.0
6009,34.0,1,0,13.0,127.0
6010,70.0,0,120,8.0,117.0
6011,92.0,0,0,0.0,94.0
6012,80.0,1,0,1.0,98.0
6013,65.0,0,30,2.0,94.0
6014,68.0,0,30,2.0,94.0
6015,58.0,1,120,10.0,112.0
6016,58.0,0,0,4.0,107.0
6017,56.0,0,30,11.0,117.0
6018,53.0,2,30,11.0,117.0
6019,46.0,1,30,12.0,117.0
6020,58.0,1,0,3.0,110.0
6021,46.0,1,30,6.0,122.0
6022,34.0,1,0,13.0,127.0
6023,53.0,37,0,11.0,117.0
6024,50.0,0,40,11.0,117.0
6025,58.0,40,0,11.0,117.0
6026,72.0,23,120,8.0,117.0
6027,89.0,0,120,0.0,94.0
6028,77.0,0,120,1.0,98.0
6029,60.0,1,120,10.0,112.0
6030,65.0,0,120,4.0,107.0
6031,68.0,0,120,2.0,94.0
6032,65.0,0,120,2.0,94.0
6033,53.0,0,40,11.0,117.0
6034,46.0,1,120,12.0,117.0
6035,46.0,0,120,3.0,110.0
6036,53.0,0,40,11.0,117.0
6037,50.0,2,40,11.0,117.0
6038,53.0,0,40,11.0,117.0
6039,58.0,40,40,11.0,117.0
6040,68.0,36,120,8.0,117.0
6041,56.0,2,120,10.0,112.0
6042,58.0,0,40,11.0,117.0
6043,53.0,40,40,11.0,117.0
6044,53.0,40,0,11.0,117.0
6045,50.0,0,40,11.0,117.0
6046,53.0,40,0,11.0,117.0
6047,58.0,0,0,11.0,117.0
6048,67.0,36,120,8.0,117.0
6049,55.0,2,120,10.0,112.0
6050,53.0,0,0,11.0,117.0
6051,50.0,2,40,11.0,117.0
6052,53.0,40,0,11.0,117.0
6053,58.0,0,0,11.0,117.0
6054,46.0,1,90,12.0,117.0
6055,34.0,2,90,13.0,127.0
6056,65.0,36,120,8.0,117.0
6057,56.0,2,120,10.0,112.0
6058,53.0,4,0,11.0,117.0
6059,46.0,11,30,12.0,117.0
6060,34.0,2,0,13.0,127.0
6061,50.0,0,40,11.0,117.0
6062,53.0,37,0,11.0,117.0
6063,56.0,0,40,11.0,117.0
6064,68.0,23,120,8.0,117.0
6065,53.0,4,0,11.0,117.0
6066,56.0,40,40,11.0,117.0
6067,46.0,1,120,12.0,117.0
6068,50.0,0,40,11.0,117.0
6069,53.0,0,0,11.0,117.0
6070,53.0,40,0,11.0,117.0
6071,56.0,0,0,11.0,117.0
6072,65.0,36,120,8.0,117.0
6073,50.0,0,40,11.0,117.0
6074,53.0,2,40,11.0,117.0
6075,53.0,0,40,11.0,117.0
6076,56.0,0,0,11.0,117.0
6077,72.0,36,120,8.0,117.0
6078,68.0,2,120,10.0,112.0
6079,58.0,0,120,10.0,112.0
6080,53.0,2,0,11.0,117.0
6081,46.0,1,120,12.0,117.0
6082,34.0,2,120,13.0,127.0
6083,50.0,0,40,11.0,117.0
6084,53.0,38,0,11.0,117.0
6085,56.0,40,0,11.0,117.0
6086,70.0,0,0,8.0,117.0
6087,82.0,36,0,0.0,94.0
6088,70.0,2,120,2.0,94.0
6089,53.0,0,40,11.0,117.0
6090,58.0,1,0,3.0,110.0
6091,55.0,0,40,11.0,117.0
6092,51.0,2,40,11.0,117.0
6093,39.0,1,60,12.0,117.0
6094,39.0,1,60,13.0,127.0
6095,58.0,0,0,11.0,117.0
6096,55.0,17,0,11.0,117.0
6097,41.0,21,20,12.0,117.0
6098,41.0,2,20,13.0,127.0
6099,39.0,1,20,12.0,117.0
6100,39.0,2,20,13.0,127.0
6101,58.0,0,120,10.0,112.0
6102,67.0,0,120,10.0,112.0
6103,55.0,17,0,11.0,117.0
6104,38.0,18,20,12.0,117.0
6105,38.0,2,20,13.0,127.0
6106,51.0,0,40,11.0,117.0
6107,39.0,1,45,12.0,117.0
6108,39.0,2,45,13.0,127.0
6109,58.0,37,40,11.0,117.0
6110,55.0,0,40,11.0,117.0
6111,41.0,21,45,12.0,117.0
6112,41.0,2,45,13.0,127.0
6113,55.0,40,0,11.0,117.0
6114,58.0,0,40,11.0,117.0
6115,55.0,37,0,11.0,117.0
6116,51.0,0,40,11.0,117.0
6117,58.0,0,40,11.0,117.0
6118,55.0,0,0,11.0,117.0
6119,79.0,1,360,1.0,98.0
6120,70.0,0,360,2.0,94.0
6121,67.0,1,360,2.0,94.0
6122,58.0,40,40,11.0,117.0
6123,55.0,4,0,11.0,117.0
6124,39.0,1,120,12.0,117.0
6125,55.0,0,360,3.0,110.0
6126,39.0,2,120,13.0,127.0
6127,51.0,0,40,11.0,117.0
6128,55.0,0,40,11.0,117.0
6129,58.0,40,40,11.0,117.0
6130,67.0,36,120,8.0,117.0
6131,55.0,0,40,11.0,117.0
6132,58.0,40,40,11.0,117.0
6133,53.0,0,40,11.0,117.0
6134,50.0,4,40,11.0,117.0
6135,68.0,36,60,8.0,117.0
6136,56.0,24,0,11.0,117.0
6137,53.0,0,0,11.0,117.0
6138,65.0,16,60,8.0,117.0
6139,46.0,1,120,12.0,117.0
6140,34.0,2,120,13.0,127.0
6141,53.0,0,40,11.0,117.0
6142,50.0,4,40,11.0,117.0
6143,64.0,36,60,8.0,117.0
6144,53.0,0,40,11.0,117.0
6145,56.0,40,40,11.0,117.0
6146,65.0,16,60,8.0,117.0
6147,53.0,0,40,11.0,117.0
6148,56.0,24,40,11.0,117.0
6149,53.0,0,40,11.0,117.0
6150,50.0,2,40,11.0,117.0
6151,68.0,36,60,8.0,117.0
6152,53.0,0,40,11.0,117.0
6153,56.0,37,40,11.0,117.0
6154,65.0,16,60,8.0,117.0
6155,58.0,0,120,10.0,112.0
6156,68.0,2,120,10.0,112.0
6157,53.0,0,40,11.0,117.0
6158,56.0,24,40,11.0,117.0
6159,46.0,1,120,12.0,117.0
6160,34.0,2,120,13.0,127.0
6161,50.0,0,40,11.0,117.0
6162,53.0,2,40,11.0,117.0
6163,72.0,36,60,8.0,117.0
6164,84.0,0,60,0.0,94.0
6165,72.0,2,60,2.0,94.0
6166,60.0,2,60,3.0,110.0
6167,56.0,18,0,11.0,117.0
6168,53.0,0,0,11.0,117.0
6169,70.0,36,0,8.0,117.0
6170,82.0,0,60,0.0,94.0
6171,70.0,2,60,2.0,94.0
6172,58.0,0,0,3.0,110.0
6173,55.0,37,0,11.0,117.0
6174,51.0,2,40,11.0,117.0
6175,39.0,1,60,12.0,117.0
6176,39.0,1,60,13.0,127.0
6177,58.0,17,0,11.0,117.0
6178,41.0,21,20,12.0,117.0
6179,41.0,2,20,13.0,127.0
6180,39.0,1,20,12.0,117.0
6181,39.0,2,20,13.0,127.0
6182,67.0,0,120,10.0,112.0
6183,58.0,0,120,10.0,112.0
6184,55.0,0,40,11.0,117.0
6185,38.0,18,20,12.0,117.0
6186,38.0,2,20,13.0,127.0
6187,55.0,17,40,11.0,117.0
6188,51.0,0,40,11.0,117.0
6189,39.0,1,45,12.0,117.0
6190,39.0,2,45,13.0,127.0
6191,58.0,37,40,11.0,117.0
6192,55.0,0,40,11.0,117.0
6193,41.0,21,45,12.0,117.0
6194,41.0,2,45,13.0,127.0
6195,55.0,40,0,11.0,117.0
6196,58.0,0,40,11.0,117.0
6197,51.0,0,40,11.0,117.0
6198,58.0,0,0,11.0,117.0
6199,55.0,40,0,11.0,117.0
6200,82.0,0,360,0.0,94.0
6201,79.0,1,360,1.0,98.0
6202,70.0,0,360,2.0,94.0
6203,67.0,1,360,2.0,94.0
6204,39.0,1,120,12.0,117.0
6205,55.0,1,360,3.0,110.0
6206,39.0,2,120,13.0,127.0
6207,51.0,4,40,11.0,117.0
6208,55.0,40,0,11.0,117.0
6209,58.0,0,40,11.0,117.0
6210,55.0,0,0,11.0,117.0
6211,67.0,36,120,8.0,117.0
6212,58.0,40,40,11.0,117.0
6213,53.0,0,0,11.0,117.0
6214,50.0,0,40,11.0,117.0
6215,68.0,36,60,8.0,117.0
6216,56.0,37,40,11.0,117.0
6217,65.0,16,60,8.0,117.0
6218,56.0,0,40,11.0,117.0
6219,53.0,4,0,11.0,117.0
6220,46.0,1,120,12.0,117.0
6221,34.0,2,120,13.0,127.0
6222,50.0,0,40,11.0,117.0
6223,53.0,0,0,11.0,117.0
6224,64.0,36,60,8.0,117.0
6225,56.0,40,40,11.0,117.0
6226,65.0,16,60,8.0,117.0
6227,56.0,24,40,11.0,117.0
6228,53.0,0,0,11.0,117.0
6229,50.0,4,40,11.0,117.0
6230,53.0,0,0,11.0,117.0
6231,68.0,36,60,8.0,117.0
6232,56.0,37,40,11.0,117.0
6233,65.0,16,60,8.0,117.0
6234,53.0,0,40,11.0,117.0
6235,56.0,2,0,11.0,117.0
6236,46.0,1,0,12.0,117.0
6237,34.0,2,120,13.0,127.0
6238,77.0,0,90,0.0,94.0
6239,86.0,83,0,0.0,94.0
6240,74.0,0,0,8.0,117.0
6241,74.0,1,0,1.0,98.0
6242,58.0,0,0,5.0,104.0
6243,77.0,0,0,1.0,98.0
6244,70.0,0,0,5.0,104.0
6245,65.0,0,0,2.0,94.0
6246,74.0,1,0,2.0,94.0
6247,65.0,0,0,10.0,112.0
6248,46.0,0,0,4.0,107.0
6249,58.0,0,0,4.0,107.0
6250,56.0,0,90,3.0,110.0
6251,53.0,0,90,3.0,110.0
6252,46.0,0,0,6.0,122.0
6253,34.0,1,0,13.0,127.0
6254,86.0,23,0,0.0,94.0
6255,77.0,0,30,0.0,94.0
6256,70.0,1,0,5.0,104.0
6257,58.0,0,0,5.0,104.0
6258,46.0,1,0,4.0,107.0
6259,58.0,0,0,4.0,107.0
6260,56.0,2,30,11.0,117.0
6261,48.0,1,30,12.0,117.0
6262,46.0,1,0,6.0,122.0
6263,56.0,1,30,3.0,110.0
6264,53.0,0,30,3.0,110.0
6265,74.0,0,120,8.0,117.0
6266,77.0,0,120,0.0,94.0
6267,74.0,0,120,1.0,98.0
6268,77.0,0,120,1.0,98.0
6269,65.0,0,120,10.0,112.0
6270,65.0,0,120,2.0,94.0
6271,74.0,0,120,2.0,94.0
6272,56.0,2,120,11.0,117.0
6273,46.0,1,120,12.0,117.0
6274,56.0,0,120,3.0,110.0
6275,53.0,0,120,3.0,110.0
6276,34.0,1,120,13.0,127.0
6277,89.0,83,0,0.0,94.0
6278,86.0,0,0,0.0,94.0
6279,77.0,0,0,8.0,117.0
6280,77.0,0,90,1.0,98.0
6281,86.0,1,90,1.0,98.0
6282,58.0,1,0,5.0,104.0
6283,70.0,0,0,5.0,104.0
6284,77.0,1,0,2.0,94.0
6285,74.0,0,0,2.0,94.0
6286,68.0,0,0,10.0,112.0
6287,65.0,1,90,4.0,107.0
6288,58.0,0,0,4.0,107.0
6289,62.0,2,90,11.0,117.0
6290,46.0,1,0,12.0,117.0
6291,56.0,1,90,3.0,110.0
6292,53.0,0,90,3.0,110.0
6293,46.0,0,90,6.0,122.0
6294,34.0,1,0,13.0,127.0
6295,77.0,23,0,8.0,117.0
6296,89.0,0,0,0.0,94.0
6297,86.0,0,30,1.0,98.0
6298,77.0,1,0,1.0,98.0
6299,65.0,0,30,4.0,107.0
6300,68.0,0,0,10.0,112.0
6301,74.0,0,0,2.0,94.0
6302,77.0,1,0,2.0,94.0
6303,62.0,2,0,11.0,117.0
6304,46.0,1,0,12.0,117.0
6305,56.0,0,30,3.0,110.0
6306,53.0,1,30,3.0,110.0
6307,46.0,1,0,6.0,122.0
6308,86.0,0,120,0.0,94.0
6309,70.0,0,120,5.0,104.0
6310,58.0,0,120,5.0,104.0
6311,86.0,0,120,1.0,98.0
6312,58.0,0,120,4.0,107.0
6313,65.0,0,120,4.0,107.0
6314,53.0,0,120,3.0,110.0
6315,56.0,0,120,3.0,110.0
6316,34.0,1,120,13.0,127.0
6317,74.0,0,90,1.0,98.0
6318,80.0,89,0,1.0,98.0
6319,46.0,1,0,4.0,107.0
6320,65.0,0,90,4.0,107.0
6321,74.0,0,30,1.0,98.0
6322,46.0,0,0,4.0,107.0
6323,65.0,1,0,4.0,107.0
6324,80.0,0,120,1.0,98.0
6325,74.0,29,120,1.0,98.0
6326,46.0,0,0,4.0,107.0
6327,65.0,1,0,4.0,107.0
6328,74.0,0,90,1.0,98.0
6329,80.0,89,0,1.0,98.0
6330,74.0,0,30,1.0,98.0
6331,46.0,1,0,4.0,107.0
6332,65.0,0,0,4.0,107.0
6333,80.0,29,120,1.0,98.0
6334,74.0,119,0,1.0,98.0
6335,46.0,1,0,4.0,107.0
6336,80.0,0,90,1.0,98.0
6337,65.0,1,0,4.0,107.0
6338,46.0,0,0,4.0,107.0
6339,59.0,4,0,3.0,110.0
6340,74.0,85,30,1.0,98.0
6341,80.0,0,30,1.0,98.0
6342,46.0,0,0,4.0,107.0
6343,80.0,0,0,1.0,98.0
6344,74.0,1,0,1.0,98.0
6345,46.0,1,0,4.0,107.0
6346,65.0,0,0,4.0,107.0
6347,59.0,4,0,3.0,110.0
6348,86.0,84,0,0.0,94.0
6349,74.0,1,0,1.0,98.0
6350,46.0,1,0,4.0,107.0
6351,56.0,0,90,3.0,110.0
6352,86.0,24,0,0.0,94.0
6353,80.0,0,30,1.0,98.0
6354,74.0,1,0,1.0,98.0
6355,65.0,0,30,4.0,107.0
6356,59.0,4,30,3.0,110.0
6357,56.0,0,0,3.0,110.0
6358,80.0,0,120,1.0,98.0
6359,46.0,0,120,4.0,107.0
6360,65.0,0,0,4.0,107.0
6361,56.0,4,0,3.0,110.0
6362,59.0,0,0,3.0,110.0
6363,86.0,84,0,0.0,94.0
6364,74.0,1,90,1.0,98.0
6365,80.0,1,0,1.0,98.0
6366,46.0,0,90,4.0,107.0
6367,68.0,0,0,2.0,94.0
6368,71.0,0,0,2.0,94.0
6369,59.0,4,0,3.0,110.0
6370,56.0,0,0,3.0,110.0
6371,86.0,0,0,0.0,94.0
6372,74.0,1,0,1.0,98.0
6373,80.0,0,0,1.0,98.0
6374,46.0,0,0,4.0,107.0
6375,65.0,0,0,4.0,107.0
6376,68.0,1,0,2.0,94.0
6377,56.0,1,0,3.0,110.0
6378,59.0,0,0,3.0,110.0
6379,62.0,24,30,7.0,106.0
6380,63.0,23,30,7.0,106.0
6381,86.0,0,0,0.0,94.0
6382,74.0,0,0,1.0,98.0
6383,80.0,1,0,1.0,98.0
6384,65.0,0,0,4.0,107.0
6385,68.0,1,0,2.0,94.0
6386,71.0,0,60,2.0,94.0
6387,46.0,0,0,4.0,107.0
6388,64.0,30,30,7.0,106.0
6389,65.0,24,30,7.0,106.0
6390,68.0,0,120,8.0,117.0
6391,86.0,30,0,0.0,94.0
6392,68.0,0,0,2.0,94.0
6393,65.0,0,120,10.0,112.0
6394,71.0,1,0,2.0,94.0
6395,46.0,0,0,4.0,107.0
6396,65.0,0,0,4.0,107.0
6397,59.0,2,120,11.0,117.0
6398,46.0,1,120,12.0,117.0
6399,56.0,4,0,3.0,110.0
6400,59.0,0,60,3.0,110.0
6401,34.0,1,120,13.0,127.0
6402,66.0,0,30,7.0,106.0
6403,86.0,0,0,0.0,94.0
6404,67.0,24,30,7.0,106.0
6405,80.0,1,0,1.0,98.0
6406,74.0,0,0,1.0,98.0
6407,59.0,0,60,3.0,110.0
6408,68.0,30,30,7.0,106.0
6409,69.0,24,30,7.0,106.0
6410,86.0,0,0,0.0,94.0
6411,80.0,1,0,1.0,98.0
6412,71.0,0,60,2.0,94.0
6413,68.0,0,60,2.0,94.0
6414,65.0,0,60,4.0,107.0
6415,46.0,1,60,4.0,107.0
6416,59.0,0,0,3.0,110.0
6417,56.0,4,0,3.0,110.0
6418,70.0,30,30,7.0,106.0
6419,71.0,24,30,7.0,106.0
6420,86.0,30,0,0.0,94.0
6421,74.0,0,60,1.0,98.0
6422,65.0,1,0,4.0,107.0
6423,71.0,0,0,2.0,94.0
6424,68.0,1,60,2.0,94.0
6425,46.0,0,0,4.0,107.0
6426,72.0,0,30,7.0,106.0
6427,73.0,24,30,7.0,106.0
6428,80.0,1,0,1.0,98.0
6429,74.0,0,0,1.0,98.0
6430,68.0,0,60,2.0,94.0
6431,46.0,1,0,4.0,107.0
6432,65.0,0,0,4.0,107.0
6433,56.0,0,60,3.0,110.0
6434,59.0,4,0,3.0,110.0
6435,74.0,30,30,7.0,106.0
6436,86.0,0,60,0.0,94.0
6437,75.0,24,30,7.0,106.0
6438,74.0,1,0,1.0,98.0
6439,80.0,0,0,1.0,98.0
6440,71.0,0,60,2.0,94.0
6441,68.0,0,60,2.0,94.0
6442,46.0,0,0,4.0,107.0
6443,56.0,0,0,3.0,110.0
6444,76.0,30,30,7.0,106.0
6445,86.0,30,0,0.0,94.0
6446,77.0,24,30,7.0,106.0
6447,68.0,0,0,2.0,94.0
6448,71.0,1,0,2.0,94.0
6449,65.0,1,60,4.0,107.0
6450,59.0,4,60,3.0,110.0
6451,78.0,0,30,7.0,106.0
6452,79.0,24,30,7.0,106.0
6453,74.0,1,0,1.0,98.0
6454,80.0,0,0,1.0,98.0
6455,65.0,0,60,4.0,107.0
6456,46.0,0,60,4.0,107.0
6457,68.0,1,0,2.0,94.0
6458,59.0,4,0,3.0,110.0
6459,56.0,0,0,3.0,110.0
6460,80.0,0,30,7.0,106.0
6461,86.0,30,60,0.0,94.0
6462,81.0,24,30,7.0,106.0
6463,71.0,0,60,2.0,94.0
6464,46.0,0,0,4.0,107.0
6465,65.0,0,0,4.0,107.0
6466,68.0,1,0,2.0,94.0
6467,82.0,30,30,7.0,106.0
6468,83.0,24,30,7.0,106.0
6469,86.0,30,0,0.0,94.0
6470,74.0,0,0,1.0,98.0
6471,80.0,1,0,1.0,98.0
6472,71.0,1,0,2.0,94.0
6473,46.0,0,0,4.0,107.0
6474,65.0,0,0,4.0,107.0
6475,59.0,0,0,3.0,110.0
6476,56.0,4,0,3.0,110.0
6477,84.0,0,30,7.0,106.0
6478,85.0,24,30,7.0,106.0
6479,74.0,0,0,1.0,98.0
6480,80.0,1,0,1.0,98.0
6481,68.0,0,60,2.0,94.0
6482,65.0,0,0,4.0,107.0
6483,46.0,0,0,4.0,107.0
6484,71.0,0,0,2.0,94.0
6485,86.0,30,30,7.0,106.0
6486,86.0,0,60,0.0,94.0
6487,87.0,23,30,7.0,106.0
6488,80.0,1,0,1.0,98.0
6489,68.0,0,60,2.0,94.0
6490,56.0,1,60,3.0,110.0
6491,59.0,0,60,3.0,110.0
6492,88.0,30,30,7.0,106.0
6493,89.0,24,30,7.0,106.0
6494,86.0,0,60,0.0,94.0
6495,68.0,0,120,8.0,117.0
6496,74.0,1,0,1.0,98.0
6497,46.0,0,60,4.0,107.0
6498,68.0,0,60,2.0,94.0
6499,65.0,1,120,10.0,112.0
6500,65.0,0,0,4.0,107.0
6501,71.0,0,0,2.0,94.0
6502,58.0,2,120,11.0,117.0
6503,46.0,1,120,12.0,117.0
6504,56.0,4,60,3.0,110.0
6505,59.0,0,60,3.0,110.0
6506,34.0,1,120,13.0,127.0
6507,90.0,30,30,7.0,106.0
6508,86.0,0,60,0.0,94.0
6509,91.0,24,30,7.0,106.0
6510,80.0,0,60,1.0,98.0
6511,65.0,1,0,4.0,107.0
6512,46.0,1,60,4.0,107.0
6513,71.0,0,0,2.0,94.0
6514,68.0,0,0,2.0,94.0
6515,56.0,0,60,3.0,110.0
6516,59.0,4,0,3.0,110.0
6517,92.0,0,30,7.0,106.0
6518,86.0,24,30,7.0,106.0
6519,86.0,30,60,0.0,94.0
6520,80.0,1,60,1.0,98.0
6521,74.0,0,60,1.0,98.0
6522,46.0,0,60,4.0,107.0
6523,56.0,0,60,3.0,110.0
6524,89.0,30,20,7.0,106.0
6525,87.0,14,20,7.0,106.0
6526,89.0,20,20,7.0,106.0
6527,87.0,20,20,7.0,106.0
6528,89.0,20,20,7.0,106.0
6529,87.0,20,20,7.0,106.0
6530,87.0,0,120,0.0,94.0
6531,79.0,1,120,1.0,98.0
6532,75.0,0,120,1.0,98.0
6533,51.0,0,120,4.0,107.0
6534,63.0,0,120,4.0,107.0
6535,70.0,1,120,2.0,94.0
6536,67.0,0,120,2.0,94.0
6537,55.0,4,120,3.0,110.0
6538,58.0,0,120,3.0,110.0
6539,89.0,20,20,7.0,106.0
6540,87.0,20,20,7.0,106.0
6541,89.0,20,20,7.0,106.0
6542,87.0,20,20,7.0,106.0
6543,89.0,20,20,7.0,106.0
6544,87.0,20,20,7.0,106.0
6545,89.0,20,20,7.0,106.0
6546,87.0,14,20,7.0,106.0
6547,89.0,20,20,7.0,106.0
6548,87.0,20,20,7.0,106.0
6549,89.0,20,20,7.0,106.0
6550,87.0,0,120,0.0,94.0
6551,87.0,20,20,7.0,106.0
6552,75.0,1,120,1.0,98.0
6553,79.0,0,120,1.0,98.0
6554,67.0,0,120,2.0,94.0
6555,70.0,0,120,2.0,94.0
6556,63.0,1,120,4.0,107.0
6557,55.0,0,120,4.0,107.0
6558,63.0,4,120,3.0,110.0
6559,51.0,0,120,3.0,110.0
6560,89.0,20,20,7.0,106.0
6561,87.0,20,20,7.0,106.0
6562,89.0,20,20,7.0,106.0
6563,87.0,20,20,7.0,106.0
6564,89.0,20,20,7.0,106.0
6565,87.0,20,20,7.0,106.0
6566,89.0,20,20,7.0,106.0
6567,87.0,14,20,7.0,106.0
6568,89.0,20,20,7.0,106.0
6569,87.0,20,20,7.0,106.0
6570,89.0,20,20,7.0,106.0
6571,87.0,0,120,0.0,94.0
6572,87.0,20,20,7.0,106.0
6573,75.0,1,120,1.0,98.0
6574,79.0,0,120,1.0,98.0
6575,70.0,1,120,2.0,94.0
6576,67.0,0,120,2.0,94.0
6577,46.0,4,120,3.0,110.0
6578,58.0,0,120,3.0,110.0
6579,89.0,20,20,7.0,106.0
6580,87.0,20,20,7.0,106.0
6581,89.0,20,20,7.0,106.0
6582,87.0,20,20,7.0,106.0
6583,89.0,20,20,7.0,106.0
6584,87.0,20,20,7.0,106.0
6585,89.0,0,20,7.0,106.0
6586,87.0,13,20,7.0,106.0
6587,89.0,20,20,7.0,106.0
6588,87.0,20,20,7.0,106.0
6589,89.0,20,20,7.0,106.0
6590,87.0,20,20,7.0,106.0
6591,67.0,0,120,8.0,117.0
6592,87.0,20,120,0.0,94.0
6593,79.0,1,120,1.0,98.0
6594,75.0,0,120,1.0,98.0
6595,63.0,0,120,4.0,107.0
6596,70.0,1,120,2.0,94.0
6597,55.0,0,120,4.0,107.0
6598,67.0,0,120,2.0,94.0
6599,63.0,0,120,10.0,112.0
6600,58.0,2,120,11.0,117.0
6601,39.0,1,120,12.0,117.0
6602,43.0,0,120,3.0,110.0
6603,55.0,1,120,3.0,110.0
6604,39.0,1,120,13.0,127.0
6605,89.0,20,20,7.0,106.0
6606,87.0,20,20,7.0,106.0
6607,89.0,20,20,7.0,106.0
6608,87.0,20,20,7.0,106.0
6609,86.0,20,40,7.0,106.0
6610,67.0,0,120,8.0,117.0
6611,87.0,7,120,0.0,94.0
6612,75.0,1,120,1.0,98.0
6613,79.0,0,120,1.0,98.0
6614,63.0,0,120,10.0,112.0
6615,67.0,1,120,2.0,94.0
6616,70.0,0,120,2.0,94.0
6617,58.0,2,120,11.0,117.0
6618,39.0,1,120,12.0,117.0
6619,39.0,0,120,3.0,110.0
6620,51.0,1,120,3.0,110.0
6621,39.0,1,120,13.0,127.0
6622,75.0,0,307,7.0,86.0
6623,87.0,0,307,7.0,106.0
6624,82.0,33,307,7.0,76.0
6625,79.0,0,307,7.0,86.0
6626,89.0,293,20,7.0,106.0
6627,87.0,20,20,7.0,106.0
6628,86.0,20,20,7.0,106.0
6629,87.0,20,60,7.0,106.0
6630,89.0,60,60,7.0,106.0
6631,87.0,0,0,7.0,106.0
6632,58.0,0,0,7.0,106.0
6633,51.0,0,0,7.0,106.0
6634,63.0,0,0,7.0,106.0
6635,91.0,60,120,7.0,106.0
6636,55.0,0,0,7.0,106.0
6637,79.0,120,0,7.0,106.0
6638,82.0,0,0,7.0,106.0
6639,75.0,0,120,7.0,106.0
6640,60.0,0,120,7.0,106.0
6641,63.0,0,120,7.0,106.0
6642,84.0,120,120,7.0,106.0
6643,80.0,0,120,7.0,106.0
6644,68.0,0,120,7.0,106.0
6645,56.0,0,120,7.0,106.0
6646,72.0,0,120,7.0,106.0
6647,75.0,0,0,7.0,106.0
6648,79.0,0,120,7.0,106.0
6649,51.0,0,120,7.0,106.0
6650,63.0,120,120,7.0,106.0
6651,58.0,0,0,7.0,106.0
6652,55.0,0,120,7.0,106.0
6653,70.0,0,0,7.0,106.0
6654,82.0,0,0,7.0,106.0
6655,50.0,120,240,7.0,106.0
6656,53.0,0,0,7.0,106.0
6657,74.0,0,240,7.0,106.0
6658,77.0,0,240,7.0,106.0
6659,46.0,0,240,7.0,106.0
6660,80.0,120,120,7.0,106.0
6661,47.0,0,240,7.0,106.0
6662,56.0,240,240,7.0,106.0
6663,74.0,0,240,7.0,106.0
6664,68.0,0,240,7.0,106.0
6665,80.0,120,60,7.0,106.0
6666,79.0,60,60,7.0,106.0
6667,78.0,60,60,7.0,106.0
6668,79.0,60,60,7.0,106.0
6669,67.0,0,240,7.0,106.0
6670,60.0,0,240,7.0,106.0
6671,48.0,0,0,7.0,106.0
6672,51.0,0,240,7.0,106.0
6673,55.0,0,240,7.0,106.0
6674,75.0,0,240,7.0,106.0
6675,82.0,0,60,7.0,106.0
6676,53.0,0,0,7.0,106.0
6677,56.0,0,120,7.0,106.0
6678,72.0,60,120,7.0,106.0
6679,44.0,0,120,7.0,106.0
6680,80.0,60,60,7.0,106.0
6681,48.0,60,0,7.0,106.0
6682,84.0,0,60,7.0,106.0
6683,72.0,53,60,7.0,106.0
6684,57.0,0,120,7.0,106.0
6685,45.0,0,120,7.0,106.0
6686,72.0,0,120,8.0,117.0
6687,60.0,2,120,10.0,112.0
6688,51.0,2,120,11.0,117.0
6689,45.0,1,120,12.0,117.0
6690,33.0,2,120,13.0,127.0
6691,63.0,0,120,8.0,117.0
6692,58.0,2,120,10.0,112.0
6693,55.0,2,120,11.0,117.0
6694,46.0,1,120,12.0,117.0
6695,34.0,2,120,13.0,127.0
6696,75.0,0,210,7.0,106.0
6697,46.0,0,210,7.0,106.0
6698,55.0,60,210,7.0,106.0
6699,63.0,0,210,7.0,106.0
6700,58.0,0,210,7.0,106.0
6701,53.0,203,30,7.0,106.0
6702,56.0,0,0,7.0,106.0
6703,74.0,0,30,7.0,106.0
6704,77.0,30,90,7.0,106.0
6705,60.0,0,90,7.0,106.0
6706,65.0,0,90,7.0,106.0
6707,75.0,0,30,7.0,106.0
6708,58.0,90,30,7.0,106.0
6709,55.0,0,30,7.0,106.0
6710,79.0,0,90,7.0,106.0
6711,62.0,30,90,7.0,106.0
6712,67.0,0,90,7.0,106.0
6713,58.0,0,90,7.0,106.0
6714,77.0,0,30,7.0,106.0
6715,56.0,90,30,7.0,106.0
6716,60.0,0,0,7.0,106.0
6717,68.0,0,90,7.0,106.0
6718,63.0,30,90,7.0,106.0
6719,80.0,0,90,7.0,106.0
6720,62.0,90,30,7.0,106.0
6721,58.0,0,30,7.0,106.0
6722,79.0,0,30,7.0,106.0
6723,82.0,30,90,7.0,106.0
6724,65.0,0,90,7.0,106.0
6725,70.0,0,90,7.0,106.0
6726,62.0,0,90,7.0,106.0
6727,80.0,0,30,7.0,106.0
6728,63.0,0,30,7.0,106.0
6729,60.0,90,30,7.0,106.0
6730,63.0,0,90,7.0,106.0
6731,67.0,30,90,7.0,106.0
6732,84.0,0,90,7.0,106.0
6733,72.0,0,90,7.0,106.0
6734,62.0,0,30,7.0,106.0
6735,82.0,90,30,7.0,106.0
6736,65.0,0,0,7.0,106.0
6737,86.0,0,90,7.0,106.0
6738,68.0,30,90,7.0,106.0
6739,74.0,0,90,7.0,106.0
6740,84.0,0,30,7.0,106.0
6741,63.0,90,30,7.0,106.0
6742,67.0,0,0,7.0,106.0
6743,70.0,0,30,7.0,106.0
6744,87.0,0,30,7.0,106.0
6745,75.0,30,30,7.0,106.0
6746,68.0,0,30,7.0,106.0
6747,65.0,0,30,7.0,106.0
6748,86.0,40,30,7.0,106.0
6749,68.0,40,30,7.0,106.0
6750,72.0,0,30,7.0,106.0
6751,89.0,0,30,7.0,106.0
6752,87.0,0,30,7.0,106.0
6753,67.0,0,30,7.0,106.0
6754,70.0,40,30,7.0,106.0
6755,70.0,40,30,7.0,106.0
6756,79.0,0,30,7.0,106.0
6757,91.0,0,30,7.0,106.0
6758,74.0,0,30,7.0,106.0
6759,89.0,40,30,7.0,106.0
6760,72.0,0,30,7.0,106.0
6761,68.0,0,30,7.0,106.0
6762,72.0,0,30,7.0,106.0
6763,92.0,40,30,7.0,106.0
6764,80.0,0,30,7.0,106.0
6765,75.0,0,30,7.0,106.0
6766,91.0,40,30,7.0,106.0
6767,74.0,0,30,7.0,106.0
6768,70.0,0,30,7.0,106.0
6769,74.0,0,30,7.0,106.0
6770,77.0,40,30,7.0,106.0
6771,94.0,0,30,7.0,106.0
6772,75.0,0,30,7.0,106.0
6773,92.0,40,30,7.0,106.0
6774,72.0,0,30,7.0,106.0
6775,75.0,0,30,7.0,106.0
6776,79.0,0,30,7.0,106.0
6777,84.0,40,30,7.0,106.0
6778,96.0,0,30,7.0,106.0
6779,75.0,40,30,7.0,106.0
6780,96.0,0,30,7.0,106.0
6781,79.0,0,30,7.0,106.0
6782,84.0,0,30,7.0,106.0
6783,96.0,0,30,7.0,106.0
6784,75.0,40,30,7.0,106.0
6785,84.0,0,30,7.0,106.0
6786,79.0,0,30,7.0,106.0
6787,74.0,0,30,7.0,106.0
6788,77.0,40,30,7.0,106.0
6789,94.0,0,30,7.0,106.0
6790,82.0,5,30,7.0,106.0
6791,80.0,30,30,7.0,106.0
6792,72.0,0,30,7.0,106.0
6793,75.0,0,30,7.0,106.0
6794,92.0,5,30,7.0,106.0
6795,86.0,0,30,7.0,106.0
6796,91.0,0,30,7.0,106.0
6797,82.0,40,30,7.0,106.0
6798,89.0,40,30,7.0,106.0
6799,80.0,0,30,7.0,106.0
6800,84.0,5,30,7.0,106.0
6801,82.0,30,30,7.0,106.0
6802,87.0,5,30,7.0,106.0
6803,79.0,0,30,7.0,106.0
6804,80.0,40,30,7.0,106.0
6805,86.0,0,30,7.0,106.0
6806,77.0,0,30,7.0,106.0
6807,75.0,0,30,7.0,106.0
6808,84.0,40,30,7.0,106.0
6809,79.0,5,30,7.0,106.0
6810,77.0,30,30,7.0,106.0
6811,74.0,0,30,7.0,106.0
6812,82.0,5,30,7.0,106.0
6813,75.0,0,30,7.0,106.0
6814,72.0,40,30,7.0,106.0
6815,80.0,0,30,7.0,106.0
6816,79.0,40,30,7.0,106.0
6817,70.0,0,30,7.0,106.0
6818,74.0,5,30,7.0,106.0
6819,72.0,30,30,7.0,106.0
6820,68.0,5,30,7.0,106.0
6821,77.0,0,30,7.0,106.0
6822,75.0,40,40,7.0,106.0
6823,70.0,0,40,7.0,106.0
6824,67.0,0,40,7.0,106.0
6825,74.0,40,40,7.0,106.0
6826,65.0,0,40,7.0,106.0
6827,68.0,5,40,7.0,106.0
6828,67.0,30,40,7.0,106.0
6829,72.0,0,40,7.0,106.0
6830,63.0,5,40,7.0,106.0
6831,70.0,40,40,7.0,106.0
6832,65.0,0,40,7.0,106.0
6833,62.0,0,40,7.0,106.0
6834,68.0,40,40,7.0,106.0
6835,60.0,0,40,7.0,106.0
6836,63.0,5,40,7.0,106.0
6837,62.0,30,40,7.0,106.0
6838,67.0,5,40,7.0,106.0
6839,58.0,0,40,7.0,106.0
6840,56.0,40,40,7.0,106.0
6841,60.0,0,40,7.0,106.0
6842,65.0,0,40,7.0,106.0
6843,55.0,0,40,7.0,106.0
6844,63.0,40,40,7.0,106.0
6845,62.0,40,40,7.0,106.0
6846,53.0,0,40,7.0,106.0
6847,55.0,0,40,7.0,106.0
6848,60.0,0,40,7.0,106.0
6849,51.0,40,40,7.0,106.0
6850,50.0,0,40,7.0,106.0
6851,58.0,0,40,7.0,106.0
6852,53.0,40,40,7.0,106.0
6853,57.0,35,40,7.0,106.0
6854,51.0,5,40,7.0,106.0
6855,48.0,0,40,7.0,106.0
6856,56.0,0,30,7.0,106.0
6857,58.0,30,30,7.0,106.0
6858,56.0,30,30,7.0,106.0
6859,47.0,40,120,7.0,106.0
6860,55.0,30,30,7.0,106.0
6861,56.0,0,30,7.0,106.0
6862,53.0,30,30,7.0,106.0
6863,62.0,30,30,7.0,106.0
6864,61.0,30,30,7.0,106.0
6865,62.0,0,30,7.0,106.0
6866,56.0,28,30,7.0,106.0
6867,65.0,30,30,7.0,106.0
6868,64.0,30,30,7.0,106.0
6869,47.0,30,240,7.0,106.0
6870,65.0,30,30,7.0,106.0
6871,62.0,30,30,7.0,106.0
6872,68.0,30,30,7.0,106.0
6873,67.0,30,30,7.0,106.0
6874,68.0,30,30,7.0,106.0
6875,65.0,23,30,7.0,106.0
6876,74.0,30,30,7.0,106.0
6877,73.0,30,30,7.0,106.0
6878,35.0,0,240,7.0,106.0
6879,74.0,0,30,7.0,106.0
6880,68.0,30,30,7.0,106.0
6881,77.0,30,30,7.0,106.0
6882,76.0,30,30,7.0,106.0
6883,68.0,30,480,8.0,117.0
6884,56.0,2,480,10.0,112.0
6885,46.0,5,240,12.0,117.0
6886,34.0,2,240,13.0,127.0
6887,77.0,30,30,7.0,106.0
6888,74.0,23,30,7.0,106.0
6889,80.0,30,30,7.0,106.0
6890,34.0,30,240,7.0,106.0
6891,79.0,30,30,7.0,106.0
6892,80.0,0,30,7.0,106.0
6893,77.0,30,30,7.0,106.0
6894,79.0,30,30,7.0,106.0
6895,80.0,30,30,7.0,106.0
6896,32.0,30,120,7.0,106.0
6897,65.0,0,240,8.0,117.0
6898,50.0,2,240,11.0,117.0
6899,44.0,1,240,12.0,117.0
6900,32.0,2,240,13.0,127.0
6901,82.0,30,30,7.0,106.0
6902,84.0,23,30,7.0,106.0
6903,82.0,30,30,7.0,106.0
6904,31.0,0,120,7.0,106.0
6905,80.0,30,30,7.0,106.0
6906,79.0,0,17,7.0,106.0
6907,80.0,17,17,7.0,106.0
6908,82.0,18,17,7.0,106.0
6909,84.0,17,17,7.0,106.0
6910,86.0,17,17,7.0,106.0
6911,87.0,18,17,7.0,106.0
6912,89.0,17,17,7.0,106.0
6913,91.0,16,30,7.0,106.0
6914,92.0,30,30,7.0,106.0
6915,94.0,30,30,7.0,106.0
6916,92.0,30,30,7.0,106.0
6917,70.0,0,360,8.0,117.0
6918,58.0,2,600,10.0,112.0
6919,91.0,30,20,7.0,106.0
6920,89.0,18,20,7.0,106.0
6921,87.0,20,20,7.0,106.0
6922,58.0,30,300,7.0,106.0
6923,86.0,0,20,7.0,106.0
6924,84.0,20,20,7.0,106.0
6925,83.0,20,20,7.0,106.0
6926,43.0,20,60,7.0,106.0
6927,71.0,0,120,8.0,117.0
6928,59.0,2,120,10.0,112.0
6929,51.0,2,0,11.0,117.0
6930,43.0,1,480,12.0,117.0
6931,31.0,2,480,13.0,127.0
6932,84.0,0,30,7.0,106.0
6933,86.0,23,30,7.0,106.0
6934,44.0,0,60,7.0,106.0
6935,84.0,30,30,7.0,106.0
6936,82.0,30,30,7.0,106.0
6937,80.0,0,17,7.0,106.0
6938,82.0,17,17,7.0,106.0
6939,84.0,18,17,7.0,106.0
6940,86.0,17,17,7.0,106.0
6941,87.0,18,17,7.0,106.0
6942,89.0,17,17,7.0,106.0
6943,91.0,17,17,7.0,106.0
6944,92.0,16,24,7.0,106.0
6945,94.0,24,24,7.0,106.0
6946,96.0,24,24,7.0,106.0
6947,94.0,24,24,7.0,106.0
6948,72.0,20,360,8.0,117.0
6949,92.0,24,24,7.0,106.0
6950,60.0,2,0,10.0,112.0
6951,44.0,1,360,12.0,117.0
6952,32.0,2,360,13.0,127.0
6953,91.0,0,24,7.0,106.0
6954,89.0,17,24,7.0,106.0
6955,72.0,30,300,7.0,106.0
6956,87.0,24,24,7.0,106.0
6957,86.0,12,24,7.0,106.0
6958,84.0,24,24,7.0,106.0
6959,57.0,12,60,7.0,126.0
6960,75.0,0,0,8.0,117.0
6961,51.0,2,120,11.0,117.0
6962,45.0,1,120,12.0,117.0
6963,33.0,2,120,13.0,127.0
6964,82.0,24,30,7.0,106.0
6965,58.0,0,60,7.0,126.0
6966,81.0,23,30,7.0,106.0
6967,80.0,0,30,7.0,106.0
6968,79.0,30,30,7.0,106.0
6969,63.0,30,60,7.0,126.0
6970,67.0,0,60,7.0,126.0
6971,67.0,0,120,10.0,112.0
6972,58.0,2,120,11.0,117.0
6973,46.0,1,120,12.0,117.0
6974,34.0,2,120,13.0,127.0
6975,77.0,0,30,7.0,106.0
6976,75.0,28,30,7.0,106.0
6977,58.0,0,60,7.0,126.0
6978,74.0,0,30,7.0,106.0
6979,67.0,30,120,8.0,117.0
6980,72.0,30,30,7.0,106.0
6981,67.0,30,60,7.0,126.0
6982,63.0,0,60,7.0,126.0
6983,63.0,2,120,10.0,112.0
6984,70.0,0,20,7.0,106.0
6985,72.0,20,20,7.0,106.0
6986,58.0,30,60,7.0,126.0
6987,70.0,20,20,7.0,106.0
6988,69.0,0,20,7.0,106.0
6989,70.0,20,20,7.0,106.0
6990,71.0,20,20,7.0,106.0
6991,67.0,20,60,7.0,126.0
6992,63.0,0,60,7.0,126.0
6993,72.0,20,20,7.0,106.0
6994,73.0,20,20,7.0,106.0
6995,74.0,20,20,7.0,106.0
6996,58.0,0,60,7.0,126.0
6997,75.0,0,20,7.0,106.0
6998,77.0,20,20,7.0,106.0
6999,79.0,20,20,7.0,106.0
7000,67.0,0,60,7.0,126.0
7001,63.0,20,60,7.0,126.0
7002,80.0,20,20,7.0,106.0
7003,81.0,20,20,7.0,106.0
7004,82.0,20,20,7.0,106.0
7005,58.0,0,60,7.0,126.0
7006,83.0,0,20,7.0,106.0
7007,84.0,20,20,7.0,106.0
7008,85.0,20,20,7.0,106.0
7009,63.0,0,60,7.0,126.0
7010,67.0,20,60,7.0,126.0
7011,86.0,0,20,7.0,106.0
7012,87.0,20,20,7.0,106.0
7013,88.0,20,20,7.0,106.0
7014,58.0,20,60,7.0,126.0
7015,89.0,20,20,7.0,106.0
7016,90.0,20,20,7.0,106.0
7017,63.0,0,60,7.0,126.0
7018,67.0,0,60,7.0,126.0
7019,91.0,20,20,7.0,106.0
7020,79.0,0,720,2.0,94.0
7021,67.0,0,720,4.0,107.0
7022,63.0,0,720,4.0,107.0
7023,75.0,2,720,2.0,94.0
7024,65.0,0,45,7.0,106.0
7025,58.0,0,45,7.0,106.0
7026,92.0,0,45,7.0,106.0
7027,80.0,0,45,7.0,106.0
7028,68.0,0,45,7.0,106.0
7029,58.0,0,45,7.0,106.0
7030,79.0,0,45,7.0,106.0
7031,91.0,0,45,7.0,106.0
7032,64.0,0,45,7.0,106.0
7033,67.0,53,45,7.0,106.0
7034,58.0,0,120,8.0,117.0
7035,65.0,0,120,8.0,117.0
7036,74.0,20,120,8.0,117.0
7037,65.0,0,120,4.0,107.0
7038,68.0,2,120,10.0,112.0
7039,74.0,0,120,2.0,94.0
7040,77.0,0,120,2.0,94.0
7041,58.0,0,120,10.0,112.0
7042,58.0,0,120,4.0,107.0
7043,58.0,2,120,11.0,117.0
7044,46.0,1,120,12.0,117.0
7045,34.0,2,120,13.0,127.0
7046,68.0,0,45,7.0,106.0
7047,92.0,60,45,7.0,106.0
7048,58.0,0,45,7.0,106.0
7049,65.0,0,45,7.0,106.0
7050,80.0,0,45,7.0,106.0
7051,50.0,60,45,7.0,106.0
7052,53.0,0,45,7.0,106.0
7053,74.0,0,45,7.0,106.0
7054,82.0,0,45,7.0,106.0
7055,58.0,0,45,7.0,106.0
7056,86.0,0,45,7.0,106.0
7057,46.0,0,45,7.0,106.0
7058,80.0,0,45,7.0,106.0
7059,55.0,0,30,10.0,112.0
7060,63.0,25,0,10.0,112.0
7061,51.0,2,30,11.0,117.0
7062,58.0,2,0,11.0,117.0
7063,55.0,0,30,10.0,112.0
7064,51.0,2,0,11.0,117.0
7065,55.0,28,30,10.0,112.0
7066,63.0,28,0,10.0,112.0
7067,58.0,2,0,11.0,117.0
7068,87.0,0,120,7.0,106.0
7069,46.0,0,120,7.0,106.0
7070,43.0,0,120,7.0,106.0
7071,39.0,0,120,7.0,106.0
7072,63.0,0,120,8.0,117.0
7073,82.0,0,120,7.0,106.0
7074,55.0,0,120,8.0,117.0
7075,79.0,0,120,7.0,106.0
7076,51.0,0,120,7.0,106.0
7077,75.0,60,120,7.0,106.0
7078,75.0,0,120,5.0,104.0
7079,63.0,1,0,10.0,112.0
7080,55.0,0,30,10.0,112.0
7081,55.0,0,120,4.0,107.0
7082,63.0,1,120,4.0,107.0
7083,51.0,0,30,11.0,117.0
7084,58.0,2,0,11.0,117.0
7085,51.0,0,120,6.0,122.0
7086,55.0,0,30,10.0,112.0
7087,58.0,2,0,11.0,117.0
7088,51.0,0,0,11.0,117.0
7089,55.0,28,30,10.0,112.0
7090,63.0,28,0,10.0,112.0
7091,58.0,0,0,11.0,117.0
7092,55.0,0,30,10.0,112.0
7093,58.0,2,0,11.0,117.0
7094,51.0,2,30,11.0,117.0
7095,70.0,27,120,5.0,104.0
7096,63.0,1,0,10.0,112.0
7097,55.0,0,0,10.0,112.0
7098,58.0,0,120,4.0,107.0
7099,51.0,0,30,11.0,117.0
7100,58.0,2,30,11.0,117.0
7101,51.0,0,30,11.0,117.0
7102,55.0,28,30,10.0,112.0
7103,63.0,28,0,10.0,112.0
7104,51.0,0,30,11.0,117.0
7105,58.0,2,30,11.0,117.0
7106,55.0,28,0,10.0,112.0
7107,63.0,0,0,10.0,112.0
7108,58.0,2,30,11.0,117.0
7109,51.0,2,0,11.0,117.0
7110,75.0,26,0,8.0,117.0
7111,67.0,27,120,5.0,104.0
7112,63.0,1,0,10.0,112.0
7113,55.0,0,120,4.0,107.0
7114,55.0,0,0,10.0,112.0
7115,58.0,0,30,11.0,117.0
7116,55.0,0,0,10.0,112.0
7117,63.0,28,0,10.0,112.0
7118,51.0,2,0,11.0,117.0
7119,58.0,0,0,11.0,117.0
7120,63.0,0,0,10.0,112.0
7121,51.0,2,0,11.0,117.0
7122,79.0,26,30,8.0,117.0
7123,55.0,2,30,10.0,112.0
7124,58.0,0,30,11.0,117.0
7125,51.0,0,0,11.0,117.0
7126,79.0,0,480,0.0,94.0
7127,87.0,0,480,0.0,94.0
7128,82.0,26,30,8.0,117.0
7129,63.0,1,120,5.0,104.0
7130,79.0,1,480,1.0,98.0
7131,75.0,0,0,1.0,98.0
7132,51.0,0,120,4.0,107.0
7133,75.0,1,0,2.0,94.0
7134,67.0,0,480,2.0,94.0
7135,63.0,0,30,10.0,112.0
7136,55.0,2,30,10.0,112.0
7137,58.0,2,30,11.0,117.0
7138,51.0,0,0,11.0,117.0
7139,51.0,1,480,12.0,117.0
7140,39.0,0,480,3.0,110.0
7141,51.0,1,480,3.0,110.0
7142,39.0,1,480,13.0,127.0
7143,56.0,0,30,10.0,112.0
7144,63.0,0,0,10.0,112.0
7145,60.0,0,0,11.0,117.0
7146,56.0,25,30,10.0,112.0
7147,51.0,2,30,11.0,117.0
7148,56.0,0,30,10.0,112.0
7149,63.0,28,0,10.0,112.0
7150,60.0,2,30,11.0,117.0
7151,51.0,2,0,11.0,117.0
7152,87.0,0,120,8.0,117.0
7153,56.0,0,30,10.0,112.0
7154,63.0,0,0,10.0,112.0
7155,60.0,0,30,11.0,117.0
7156,51.0,0,0,11.0,117.0
7157,51.0,0,120,6.0,122.0
7158,56.0,2,30,10.0,112.0
7159,60.0,2,30,11.0,117.0
7160,56.0,0,0,10.0,112.0
7161,63.0,28,0,10.0,112.0
7162,51.0,0,30,11.0,117.0
7163,60.0,2,30,11.0,117.0
7164,63.0,0,0,10.0,112.0
7165,56.0,28,0,10.0,112.0
7166,51.0,2,0,11.0,117.0
7167,60.0,0,0,11.0,117.0
7168,84.0,26,120,8.0,117.0
7169,63.0,0,30,10.0,112.0
7170,56.0,2,30,10.0,112.0
7171,51.0,2,0,11.0,117.0
7172,60.0,2,30,11.0,117.0
7173,63.0,0,30,10.0,112.0
7174,56.0,28,30,10.0,112.0
7175,60.0,2,0,11.0,117.0
7176,56.0,0,0,10.0,112.0
7177,63.0,28,0,10.0,112.0
7178,60.0,0,0,11.0,117.0
7179,51.0,2,0,11.0,117.0
7180,80.0,26,120,8.0,117.0
7181,63.0,2,0,10.0,112.0
7182,51.0,0,0,11.0,117.0
7183,56.0,0,30,10.0,112.0
7184,60.0,2,0,11.0,117.0
7185,51.0,2,30,6.0,122.0
7186,63.0,26,0,10.0,112.0
7187,56.0,26,30,10.0,112.0
7188,51.0,0,30,11.0,117.0
7189,51.0,2,30,6.0,122.0
7190,56.0,0,30,10.0,112.0
7191,51.0,2,30,11.0,117.0
7192,60.0,0,30,11.0,117.0
7193,51.0,2,30,6.0,122.0
7194,80.0,26,480,0.0,94.0
7195,87.0,24,0,0.0,94.0
7196,75.0,26,120,8.0,117.0
7197,80.0,0,480,1.0,98.0
7198,75.0,1,0,1.0,98.0
7199,63.0,1,480,5.0,104.0
7200,75.0,1,0,2.0,94.0
7201,68.0,0,480,2.0,94.0
7202,51.0,0,480,4.0,107.0
7203,63.0,0,30,10.0,112.0
7204,56.0,26,30,10.0,112.0
7205,51.0,0,30,11.0,117.0
7206,60.0,2,30,11.0,117.0
7207,48.0,1,480,12.0,117.0
7208,51.0,2,30,6.0,122.0
7209,36.0,0,480,3.0,110.0
7210,48.0,1,480,3.0,110.0
7211,36.0,1,480,13.0,127.0
7212,63.0,0,30,10.0,112.0
7213,55.0,25,0,10.0,112.0
7214,51.0,2,0,11.0,117.0
7215,58.0,2,30,11.0,117.0
7216,63.0,0,30,10.0,112.0
7217,51.0,0,0,11.0,117.0
7218,58.0,2,0,11.0,117.0
7219,55.0,0,0,10.0,112.0
7220,63.0,28,0,10.0,112.0
7221,63.0,0,120,8.0,117.0
7222,55.0,0,120,8.0,117.0
7223,75.0,0,120,5.0,104.0
7224,63.0,0,120,4.0,107.0
7225,63.0,0,0,10.0,112.0
7226,58.0,2,30,11.0,117.0
7227,51.0,0,0,11.0,117.0
7228,51.0,1,120,6.0,122.0
7229,55.0,1,30,10.0,112.0
7230,63.0,28,0,10.0,112.0
7231,58.0,2,0,11.0,117.0
7232,55.0,0,30,10.0,112.0
7233,51.0,0,30,11.0,117.0
7234,58.0,2,0,11.0,117.0
7235,63.0,28,0,10.0,112.0
7236,55.0,0,0,10.0,112.0
7237,58.0,0,0,11.0,117.0
7238,51.0,2,0,11.0,117.0
7239,70.0,27,120,5.0,104.0
7240,55.0,1,0,10.0,112.0
7241,58.0,0,120,4.0,107.0
7242,63.0,0,0,10.0,112.0
7243,51.0,2,0,11.0,117.0
7244,58.0,0,0,11.0,117.0
7245,51.0,2,0,11.0,117.0
7246,63.0,28,30,10.0,112.0
7247,55.0,28,0,10.0,112.0
7248,55.0,0,0,10.0,112.0
7249,63.0,28,0,10.0,112.0
7250,58.0,0,0,11.0,117.0
7251,51.0,2,0,11.0,117.0
7252,75.0,0,360,8.0,117.0
7253,67.0,27,120,5.0,104.0
7254,55.0,0,120,4.0,107.0
7255,55.0,0,0,10.0,112.0
7256,63.0,1,0,10.0,112.0
7257,58.0,2,0,11.0,117.0
7258,51.0,0,0,11.0,117.0
7259,55.0,26,0,10.0,112.0
7260,58.0,2,0,11.0,117.0
7261,51.0,0,0,11.0,117.0
7262,51.0,2,30,6.0,122.0
7263,75.0,26,60,8.0,117.0
7264,63.0,2,0,10.0,112.0
7265,51.0,2,30,6.0,122.0
7266,79.0,24,30,8.0,117.0
7267,55.0,2,0,10.0,112.0
7268,63.0,0,0,10.0,112.0
7269,58.0,0,30,11.0,117.0
7270,51.0,2,0,11.0,117.0
7271,51.0,2,30,6.0,122.0
7272,82.0,0,480,0.0,94.0
7273,82.0,24,30,8.0,117.0
7274,75.0,1,0,1.0,98.0
7275,63.0,0,0,5.0,104.0
7276,82.0,0,480,1.0,98.0
7277,51.0,0,120,4.0,107.0
7278,75.0,0,0,2.0,94.0
7279,70.0,0,480,2.0,94.0
7280,51.0,0,0,11.0,117.0
7281,58.0,0,30,11.0,117.0
7282,46.0,1,480,12.0,117.0
7283,46.0,0,480,3.0,110.0
7284,51.0,1,0,6.0,122.0
7285,34.0,1,480,13.0,127.0
7286,63.0,25,0,10.0,112.0
7287,60.0,0,0,10.0,112.0
7288,51.0,2,0,11.0,117.0
7289,56.0,0,0,11.0,117.0
7290,60.0,28,0,10.0,112.0
7291,63.0,28,0,10.0,112.0
7292,60.0,0,0,10.0,112.0
7293,56.0,2,0,11.0,117.0
7294,51.0,0,0,11.0,117.0
7295,87.0,24,120,8.0,117.0
7296,60.0,0,0,10.0,112.0
7297,63.0,2,30,10.0,112.0
7298,56.0,2,0,11.0,117.0
7299,51.0,2,30,11.0,117.0
7300,63.0,0,30,10.0,112.0
7301,60.0,28,0,10.0,112.0
7302,51.0,0,0,11.0,117.0
7303,60.0,28,0,10.0,112.0
7304,63.0,0,30,10.0,112.0
7305,56.0,2,30,11.0,117.0
7306,51.0,2,0,11.0,117.0
7307,84.0,26,120,8.0,117.0
7308,63.0,0,30,10.0,112.0
7309,56.0,2,0,11.0,117.0
7310,51.0,0,0,11.0,117.0
7311,63.0,0,30,10.0,112.0
7312,60.0,2,30,10.0,112.0
7313,51.0,2,0,11.0,117.0
7314,60.0,0,30,10.0,112.0
7315,63.0,0,0,10.0,112.0
7316,56.0,0,30,11.0,117.0
7317,63.0,28,0,10.0,112.0
7318,60.0,0,0,10.0,112.0
7319,56.0,0,0,11.0,117.0
7320,51.0,2,0,11.0,117.0
7321,80.0,26,120,8.0,117.0
7322,63.0,2,0,10.0,112.0
7323,60.0,0,0,10.0,112.0
7324,56.0,2,0,11.0,117.0
7325,60.0,0,0,10.0,112.0
7326,63.0,28,0,10.0,112.0
7327,51.0,0,0,11.0,117.0
7328,56.0,2,0,11.0,117.0
7329,60.0,0,0,10.0,112.0
7330,63.0,28,0,10.0,112.0
7331,51.0,2,0,11.0,117.0
7332,56.0,0,30,11.0,117.0
7333,51.0,2,0,11.0,117.0
7334,75.0,26,120,8.0,117.0
7335,87.0,0,480,0.0,94.0
7336,84.0,0,480,0.0,94.0
7337,84.0,0,480,1.0,98.0
7338,51.0,1,480,4.0,107.0
7339,72.0,0,480,2.0,94.0
7340,60.0,0,30,10.0,112.0
7341,63.0,28,30,10.0,112.0
7342,56.0,0,30,11.0,117.0
7343,44.0,1,480,12.0,117.0
7344,46.0,0,480,3.0,110.0
7345,32.0,1,480,13.0,127.0
7346,42.0,26,120,7.0,106.0
7347,87.0,53,120,7.0,106.0
7348,46.0,60,120,7.0,106.0
7349,82.0,60,120,7.0,106.0
7350,51.0,60,120,7.0,106.0
7351,78.0,60,120,7.0,106.0
7352,54.0,60,120,7.0,106.0
7353,42.0,1,480,12.0,117.0
7354,30.0,2,480,13.0,127.0
7355,75.0,60,120,7.0,106.0
7356,47.0,60,120,7.0,106.0
7357,87.0,53,120,7.0,106.0
7358,51.0,60,120,7.0,106.0
7359,83.0,60,120,7.0,106.0
7360,56.0,60,120,7.0,106.0
7361,80.0,60,120,7.0,106.0
7362,59.0,60,120,7.0,106.0
7363,51.0,4,0,11.0,117.0
7364,47.0,5,480,12.0,117.0
7365,35.0,2,480,13.0,127.0
7366,75.0,60,120,7.0,106.0
7367,46.0,60,120,7.0,106.0
7368,87.0,53,120,7.0,106.0
7369,51.0,60,120,7.0,106.0
7370,82.0,60,120,7.0,106.0
7371,54.0,60,120,7.0,106.0
7372,78.0,60,120,7.0,106.0
7373,58.0,60,120,7.0,106.0
7374,46.0,1,480,12.0,117.0
7375,34.0,2,480,13.0,127.0
7376,75.0,60,120,7.0,106.0
7377,44.0,60,120,7.0,106.0
7378,87.0,53,120,7.0,106.0
7379,47.0,60,120,7.0,106.0
7380,83.0,60,120,7.0,106.0
7381,51.0,60,120,7.0,106.0
7382,80.0,60,120,7.0,106.0
7383,56.0,60,120,7.0,106.0
7384,75.0,60,60,7.0,106.0
7385,63.0,0,1920,8.0,117.0
7386,76.0,60,60,7.0,106.0
7387,44.0,0,120,7.0,106.0
7388,88.0,56,120,7.0,106.0
7389,47.0,60,120,7.0,106.0
7390,83.0,60,120,7.0,106.0
7391,52.0,60,120,7.0,106.0
7392,80.0,60,120,7.0,106.0
7393,64.0,0,480,8.0,117.0
7394,56.0,60,120,7.0,106.0
7395,76.0,60,60,7.0,106.0
7396,52.0,4,480,11.0,117.0
7397,77.0,60,60,7.0,106.0
7398,44.0,0,120,7.0,106.0
7399,89.0,56,120,7.0,106.0
7400,47.0,60,120,7.0,106.0
7401,53.0,4,240,11.0,117.0
7402,83.0,60,120,7.0,106.0
7403,53.0,60,120,7.0,106.0
7404,49.0,4,120,11.0,117.0
7405,80.0,56,120,7.0,106.0
7406,56.0,60,120,7.0,106.0
7407,65.0,0,480,8.0,117.0
7408,77.0,56,60,7.0,106.0
7409,59.0,2,1440,10.0,112.0
7410,61.0,4,120,11.0,117.0
7411,44.0,3,1440,12.0,117.0
7412,32.0,2,1440,13.0,127.0
7413,78.0,0,30,7.0,106.0
7414,82.0,0,30,7.0,106.0
7415,85.0,23,30,7.0,106.0
7416,78.0,30,30,7.0,106.0
7417,66.0,0,120,8.0,117.0
7418,82.0,30,30,7.0,106.0
7419,42.0,0,120,7.0,106.0
7420,54.0,60,120,7.0,106.0
7421,85.0,0,30,7.0,106.0
7422,58.0,2,120,10.0,112.0
7423,54.0,2,120,11.0,117.0
7424,42.0,1,120,12.0,117.0
7425,30.0,2,120,13.0,127.0
7426,70.0,54,30,7.0,106.0
7427,73.0,30,30,7.0,106.0
7428,90.0,30,150,7.0,106.0
7429,70.0,0,30,7.0,106.0
7430,73.0,30,30,7.0,106.0
7431,66.0,30,60,7.0,106.0
7432,66.0,30,30,7.0,106.0
7433,73.0,0,30,7.0,106.0
7434,70.0,30,30,7.0,106.0
7435,66.0,6,240,3.0,110.0
7436,68.0,6,60,3.0,110.0
7437,58.0,54,30,7.0,106.0
7438,61.0,24,30,7.0,106.0
7439,66.0,6,60,3.0,110.0
7440,78.0,30,150,7.0,106.0
7441,64.0,1,45,3.0,110.0
7442,54.0,30,0,7.0,106.0
7443,61.0,0,30,7.0,106.0
7444,58.0,23,30,7.0,106.0
7445,63.0,6,45,3.0,110.0
7446,61.0,0,30,7.0,106.0
7447,58.0,24,30,7.0,106.0
7448,54.0,5,120,12.0,117.0
7449,42.0,1,120,13.0,127.0
7450,61.0,6,45,3.0,110.0
7451,46.0,54,30,7.0,106.0
7452,63.0,6,45,3.0,110.0
7453,49.0,24,30,7.0,106.0
7454,66.0,30,150,7.0,106.0
7455,64.0,6,45,3.0,110.0
7456,42.0,30,60,7.0,106.0
7457,46.0,0,30,7.0,106.0
7458,49.0,24,30,7.0,106.0
7459,42.0,30,30,7.0,106.0
7460,58.0,6,45,3.0,110.0
7461,46.0,0,30,7.0,106.0
7462,49.0,24,30,7.0,106.0
7463,59.0,6,45,3.0,110.0
7464,34.0,54,30,7.0,106.0
7465,61.0,6,45,3.0,110.0
7466,37.0,24,30,7.0,106.0
7467,54.0,30,150,7.0,106.0
7468,51.0,23,30,7.0,106.0
7469,47.0,0,30,7.0,106.0
7470,30.0,30,60,7.0,106.0
7471,42.0,30,30,7.0,106.0
7472,51.0,0,30,7.0,106.0
7473,47.0,30,30,7.0,106.0
7474,54.0,5,120,12.0,117.0
7475,54.0,1,120,3.0,110.0
7476,42.0,1,120,13.0,127.0
7477,35.0,54,30,7.0,106.0
7478,39.0,30,30,7.0,106.0
7479,54.0,0,150,7.0,106.0
7480,59.0,0,30,7.0,106.0
7481,42.0,30,60,7.0,106.0
7482,63.0,30,30,7.0,106.0
7483,54.0,30,30,7.0,106.0
7484,63.0,0,30,7.0,106.0
7485,59.0,30,30,7.0,106.0
7486,87.0,30,240,0.0,94.0
7487,78.0,1,240,1.0,98.0
7488,66.0,5,0,3.0,110.0
7489,88.0,0,60,0.0,94.0
7490,80.0,1,60,1.0,98.0
7491,47.0,0,30,7.0,106.0
7492,87.0,54,60,0.0,94.0
7493,51.0,29,30,7.0,106.0
7494,78.0,1,60,1.0,98.0
7495,66.0,30,150,7.0,106.0
7496,73.0,0,30,7.0,106.0
7497,76.0,23,30,7.0,106.0
7498,54.0,0,60,7.0,106.0
7499,66.0,30,30,7.0,106.0
7500,73.0,0,30,7.0,106.0
7501,76.0,30,30,7.0,106.0
7502,66.0,30,120,8.0,117.0
7503,54.0,3,120,11.0,117.0
7504,46.0,1,120,12.0,117.0
7505,34.0,1,120,13.0,127.0
7506,61.0,60,30,7.0,106.0
7507,85.0,0,240,0.0,94.0
7508,64.0,30,30,7.0,106.0
7509,76.0,1,240,1.0,98.0
7510,66.0,1,240,3.0,110.0
7511,78.0,30,150,7.0,106.0
7512,83.0,23,30,7.0,106.0
7513,87.0,0,30,7.0,106.0
7514,66.0,30,60,7.0,106.0
7515,78.0,30,30,7.0,106.0
7516,83.0,0,30,7.0,106.0
7517,87.0,30,30,7.0,106.0
7518,66.0,0,120,8.0,117.0
7519,54.0,3,120,11.0,117.0
7520,47.0,1,120,12.0,117.0
7521,35.0,1,120,13.0,127.0
7522,71.0,60,30,7.0,106.0
7523,75.0,30,30,7.0,106.0
7524,83.0,0,240,0.0,94.0
7525,75.0,1,240,1.0,98.0
7526,66.0,1,240,3.0,110.0
7527,66.0,1,45,3.0,110.0
7528,90.0,30,180,7.0,106.0
7529,78.0,30,60,7.0,106.0
7530,85.0,0,30,7.0,106.0
7531,82.0,53,30,7.0,106.0
7532,66.0,6,45,3.0,110.0
7533,66.0,0,120,8.0,117.0
7534,90.0,24,30,7.0,106.0
7535,82.0,0,120,0.0,94.0
7536,73.0,1,120,1.0,98.0
7537,42.0,4,120,12.0,117.0
7538,30.0,1,120,13.0,127.0
7539,82.0,30,30,7.0,106.0
7540,85.0,0,30,7.0,106.0
7541,66.0,6,45,3.0,110.0
7542,90.0,24,30,7.0,106.0
7543,70.0,30,30,7.0,106.0
7544,73.0,0,30,7.0,106.0
7545,66.0,6,45,3.0,110.0
7546,78.0,24,30,7.0,106.0
7547,73.0,30,30,7.0,106.0
7548,70.0,0,30,7.0,106.0
7549,66.0,6,45,3.0,110.0
7550,78.0,24,30,7.0,106.0
7551,73.0,0,30,7.0,106.0
7552,70.0,30,30,7.0,106.0
7553,66.0,6,45,3.0,110.0
7554,78.0,24,30,7.0,106.0
7555,70.0,0,30,7.0,106.0
7556,73.0,30,30,7.0,106.0
7557,68.0,6,45,3.0,110.0
7558,78.0,24,30,7.0,106.0
7559,58.0,30,30,7.0,106.0
7560,61.0,0,30,7.0,106.0
7561,66.0,6,45,3.0,110.0
7562,66.0,24,30,7.0,106.0
7563,61.0,0,30,7.0,106.0
7564,58.0,30,30,7.0,106.0
7565,64.0,1,45,3.0,110.0
7566,66.0,23,30,7.0,106.0
7567,58.0,30,30,7.0,106.0
7568,61.0,0,30,7.0,106.0
7569,76.0,1,45,1.0,98.0
7570,63.0,5,45,3.0,110.0
7571,66.0,24,30,7.0,106.0
7572,54.0,5,120,12.0,117.0
7573,42.0,1,120,13.0,127.0
7574,58.0,30,30,7.0,106.0
7575,61.0,0,30,7.0,106.0
7576,76.0,1,45,1.0,98.0
7577,61.0,5,45,3.0,110.0
7578,66.0,24,30,7.0,106.0
7579,46.0,30,30,7.0,106.0
7580,49.0,0,30,7.0,106.0
7581,76.0,1,45,1.0,98.0
7582,63.0,5,45,3.0,110.0
7583,54.0,24,30,7.0,106.0
7584,49.0,0,30,7.0,106.0
7585,46.0,30,30,7.0,106.0
7586,76.0,1,45,1.0,98.0
7587,64.0,5,45,3.0,110.0
7588,54.0,24,30,7.0,106.0
7589,46.0,0,30,7.0,106.0
7590,49.0,30,30,7.0,106.0
7591,76.0,1,45,1.0,98.0
7592,58.0,5,45,3.0,110.0
7593,54.0,24,30,7.0,106.0
7594,46.0,30,30,7.0,106.0
7595,49.0,0,30,7.0,106.0
7596,78.0,1,45,1.0,98.0
7597,59.0,5,45,3.0,110.0
7598,54.0,24,30,7.0,106.0
7599,30.0,30,30,7.0,106.0
7600,76.0,1,45,1.0,98.0
7601,61.0,5,45,3.0,110.0
7602,42.0,24,30,7.0,106.0
7603,30.0,0,30,7.0,106.0
7604,75.0,1,45,1.0,98.0
7605,54.0,1,45,3.0,110.0
7606,42.0,0,0,7.0,106.0
7607,87.0,30,45,0.0,94.0
7608,78.0,1,45,1.0,98.0
7609,66.0,5,45,3.0,110.0
7610,66.0,30,120,8.0,117.0
7611,54.0,24,30,7.0,106.0
7612,54.0,3,120,11.0,117.0
7613,54.0,1,120,12.0,117.0
7614,42.0,1,120,13.0,127.0
7615,42.0,30,30,7.0,106.0
7616,87.0,0,45,0.0,94.0
7617,78.0,1,45,1.0,98.0
7618,66.0,5,45,3.0,110.0
7619,54.0,24,30,7.0,106.0
7620,30.0,30,30,7.0,106.0
7621,87.0,0,45,0.0,94.0
7622,78.0,1,45,1.0,98.0
7623,66.0,5,45,3.0,110.0
7624,42.0,24,30,7.0,106.0
7625,30.0,30,30,7.0,106.0
7626,87.0,0,45,0.0,94.0
7627,78.0,1,45,1.0,98.0
7628,66.0,5,45,3.0,110.0
7629,42.0,24,30,7.0,106.0
7630,54.0,30,30,7.0,106.0
7631,87.0,0,45,0.0,94.0
7632,78.0,1,45,1.0,98.0
7633,66.0,5,45,3.0,110.0
7634,66.0,24,30,7.0,106.0
7635,54.0,30,30,7.0,106.0
7636,88.0,0,45,0.0,94.0
7637,80.0,1,45,1.0,98.0
7638,66.0,5,45,3.0,110.0
7639,66.0,24,30,7.0,106.0
7640,42.0,30,30,7.0,106.0
7641,87.0,0,45,0.0,94.0
7642,78.0,1,45,1.0,98.0
7643,66.0,5,45,3.0,110.0
7644,54.0,24,30,7.0,106.0
7645,42.0,30,30,7.0,106.0
7646,85.0,0,45,0.0,94.0
7647,76.0,1,45,1.0,98.0
7648,66.0,1,45,3.0,110.0
7649,54.0,23,30,7.0,106.0
7650,66.0,30,30,7.0,106.0
7651,85.0,0,45,0.0,94.0
7652,76.0,1,45,1.0,98.0
7653,66.0,5,45,3.0,110.0
7654,66.0,0,120,8.0,117.0
7655,78.0,24,30,7.0,106.0
7656,54.0,3,120,11.0,117.0
7657,46.0,1,120,12.0,117.0
7658,34.0,1,120,13.0,127.0
7659,66.0,30,30,7.0,106.0
7660,87.0,0,45,0.0,94.0
7661,78.0,1,45,1.0,98.0
7662,66.0,5,45,3.0,110.0
7663,78.0,24,30,7.0,106.0
7664,54.0,0,30,7.0,106.0
7665,85.0,30,45,0.0,94.0
7666,76.0,1,45,1.0,98.0
7667,66.0,5,45,3.0,110.0
7668,66.0,24,30,7.0,106.0
7669,54.0,0,30,7.0,106.0
7670,83.0,30,45,0.0,94.0
7671,75.0,1,45,1.0,98.0
7672,66.0,1,45,3.0,110.0
7673,66.0,23,30,7.0,106.0
7674,78.0,30,30,7.0,106.0
7675,83.0,0,45,0.0,94.0
7676,75.0,1,45,1.0,98.0
7677,66.0,5,45,3.0,110.0
7678,90.0,24,30,7.0,106.0
7679,66.0,0,120,8.0,117.0
7680,54.0,3,120,11.0,117.0
7681,47.0,1,120,12.0,117.0
7682,35.0,1,120,13.0,127.0
7683,78.0,30,30,7.0,106.0
7684,85.0,0,45,0.0,94.0
7685,76.0,1,45,1.0,98.0
7686,66.0,5,45,3.0,110.0
7687,90.0,24,30,7.0,106.0
7688,42.0,0,30,7.0,106.0
7689,83.0,30,45,0.0,94.0
7690,75.0,1,45,1.0,98.0
7691,66.0,5,45,3.0,110.0
7692,54.0,24,30,7.0,106.0
7693,90.0,0,45,7.0,106.0
7694,54.0,0,45,7.0,106.0
7695,42.0,0,45,7.0,106.0
7696,78.0,0,45,7.0,106.0
7697,55.0,53,30,7.0,106.0
7698,43.0,2,30,7.0,106.0
7699,82.0,30,120,0.0,94.0
7700,66.0,0,120,8.0,117.0
7701,54.0,28,30,7.0,106.0
7702,73.0,1,120,1.0,98.0
7703,42.0,2,30,7.0,106.0
7704,54.0,3,120,11.0,117.0
7705,42.0,1,120,12.0,117.0
7706,66.0,1,120,3.0,110.0
7707,30.0,1,120,13.0,127.0
7708,55.0,28,30,7.0,106.0
7709,43.0,2,30,7.0,106.0
7710,54.0,28,30,7.0,106.0
7711,42.0,2,30,7.0,106.0
7712,55.0,28,30,7.0,106.0
7713,43.0,2,30,7.0,106.0
7714,54.0,28,30,7.0,106.0
7715,42.0,2,30,7.0,106.0
7716,59.0,28,30,7.0,106.0
7717,47.0,2,30,7.0,106.0
7718,58.0,28,30,7.0,106.0
7719,46.0,2,30,7.0,106.0
7720,59.0,28,30,7.0,106.0
7721,47.0,2,30,7.0,106.0
7722,58.0,28,30,7.0,106.0
7723,46.0,2,30,7.0,106.0
7724,62.0,28,30,7.0,106.0
7725,50.0,2,30,7.0,106.0
7726,61.0,28,30,7.0,106.0
7727,49.0,2,30,7.0,106.0
7728,62.0,28,30,7.0,106.0
7729,50.0,2,30,7.0,106.0
7730,61.0,28,30,7.0,106.0
7731,49.0,2,30,7.0,106.0
7732,67.0,28,30,7.0,106.0
7733,55.0,2,30,7.0,106.0
7734,66.0,28,30,7.0,106.0
7735,54.0,2,30,7.0,106.0
7736,67.0,28,30,7.0,106.0
7737,55.0,2,30,7.0,106.0
7738,66.0,28,30,7.0,106.0
7739,54.0,2,30,7.0,106.0
7740,71.0,28,30,7.0,106.0
7741,59.0,2,30,7.0,106.0
7742,70.0,28,30,7.0,106.0
7743,58.0,2,30,7.0,106.0
7744,71.0,28,30,7.0,106.0
7745,59.0,2,30,7.0,106.0
7746,70.0,28,30,7.0,106.0
7747,58.0,2,30,7.0,106.0
7748,74.0,28,30,7.0,106.0
7749,62.0,2,30,7.0,106.0
7750,73.0,28,30,7.0,106.0
7751,61.0,2,30,7.0,106.0
7752,74.0,28,30,7.0,106.0
7753,62.0,2,30,7.0,106.0
7754,73.0,28,30,7.0,106.0
7755,61.0,2,30,7.0,106.0
7756,79.0,28,30,7.0,106.0
7757,67.0,2,30,7.0,106.0
7758,78.0,28,30,7.0,106.0
7759,66.0,2,30,7.0,106.0
7760,79.0,28,30,7.0,106.0
7761,67.0,2,30,7.0,106.0
7762,78.0,28,30,7.0,106.0
7763,66.0,2,30,7.0,106.0
7764,83.0,28,30,7.0,106.0
7765,71.0,2,30,7.0,106.0
7766,82.0,28,30,7.0,106.0
7767,70.0,2,30,7.0,106.0
7768,83.0,28,30,7.0,106.0
7769,71.0,2,30,7.0,106.0
7770,82.0,28,30,7.0,106.0
7771,70.0,2,30,7.0,106.0
7772,86.0,28,30,7.0,106.0
7773,74.0,2,30,7.0,106.0
7774,85.0,28,30,7.0,106.0
7775,73.0,2,30,7.0,106.0
7776,86.0,28,30,7.0,106.0
7777,74.0,2,30,7.0,106.0
7778,85.0,28,30,7.0,106.0
7779,73.0,2,30,7.0,106.0
7780,91.0,28,30,7.0,127.0
7781,79.0,2,30,7.0,127.0
7782,90.0,28,30,7.0,106.0
7783,78.0,2,30,7.0,106.0
7784,91.0,28,30,7.0,106.0
7785,79.0,2,30,7.0,106.0
7786,90.0,28,30,7.0,106.0
7787,78.0,2,30,7.0,106.0
7788,86.0,28,30,7.0,106.0
7789,74.0,2,30,7.0,106.0
7790,85.0,28,30,7.0,106.0
7791,73.0,2,30,7.0,106.0
7792,86.0,28,30,7.0,106.0
7793,74.0,2,30,7.0,106.0
7794,85.0,28,30,7.0,106.0
7795,73.0,2,30,7.0,106.0
7796,91.0,28,30,7.0,127.0
7797,79.0,2,30,7.0,127.0
7798,90.0,28,30,7.0,106.0
7799,78.0,2,30,7.0,106.0
7800,91.0,28,30,7.0,106.0
7801,79.0,2,30,7.0,106.0
7802,90.0,28,30,7.0,106.0
7803,78.0,2,30,7.0,106.0
7804,86.0,28,30,7.0,106.0
7805,74.0,2,30,7.0,106.0
7806,85.0,28,30,7.0,106.0
7807,73.0,2,30,7.0,106.0
7808,86.0,28,30,7.0,106.0
7809,74.0,2,30,7.0,106.0
7810,85.0,28,30,7.0,106.0
7811,73.0,2,30,7.0,106.0
7812,91.0,28,30,7.0,127.0
7813,79.0,2,30,7.0,127.0
7814,90.0,28,30,7.0,106.0
7815,78.0,2,30,7.0,106.0
7816,91.0,28,30,7.0,106.0
7817,79.0,2,30,7.0,106.0
7818,90.0,28,30,7.0,106.0
7819,78.0,2,30,7.0,106.0
7820,86.0,28,30,7.0,106.0
7821,74.0,2,30,7.0,106.0
7822,85.0,28,30,7.0,106.0
7823,73.0,2,30,7.0,106.0
7824,86.0,28,30,7.0,106.0
7825,74.0,2,30,7.0,106.0
7826,85.0,28,30,7.0,106.0
7827,73.0,2,30,7.0,106.0
7828,90.0,28,30,7.0,127.0
7829,78.0,2,30,7.0,127.0
7830,88.0,28,30,7.0,106.0
7831,76.0,2,30,7.0,106.0
7832,90.0,28,30,7.0,106.0
7833,78.0,2,30,7.0,106.0
7834,88.0,28,30,7.0,106.0
7835,76.0,2,30,7.0,106.0
7836,86.0,28,30,7.0,106.0
7837,74.0,2,30,7.0,106.0
7838,85.0,28,30,7.0,106.0
7839,73.0,2,30,7.0,106.0
7840,86.0,28,30,7.0,106.0
7841,74.0,2,30,7.0,106.0
7842,85.0,28,30,7.0,106.0
7843,73.0,2,30,7.0,106.0
7844,90.0,28,30,7.0,127.0
7845,78.0,2,30,7.0,127.0
7846,88.0,28,30,7.0,106.0
7847,76.0,2,30,7.0,106.0
7848,90.0,28,30,7.0,106.0
7849,78.0,2,30,7.0,106.0
7850,88.0,28,30,7.0,106.0
7851,76.0,2,30,7.0,106.0
7852,86.0,28,30,7.0,106.0
7853,74.0,2,30,7.0,106.0
7854,85.0,28,30,7.0,106.0
7855,73.0,2,30,7.0,106.0
7856,86.0,28,30,7.0,106.0
7857,74.0,2,30,7.0,106.0
7858,85.0,28,30,7.0,106.0
7859,73.0,2,30,7.0,106.0
7860,90.0,28,30,7.0,127.0
7861,78.0,2,30,7.0,127.0
7862,88.0,28,30,7.0,106.0
7863,76.0,2,30,7.0,106.0
7864,86.0,28,30,7.0,106.0
7865,74.0,2,30,7.0,106.0
7866,85.0,28,30,7.0,106.0
7867,73.0,2,30,7.0,106.0
7868,90.0,28,30,7.0,127.0
7869,78.0,2,30,7.0,127.0
7870,88.0,28,30,7.0,106.0
7871,76.0,2,30,7.0,106.0
7872,86.0,28,30,7.0,106.0
7873,74.0,2,30,7.0,106.0
7874,85.0,28,30,7.0,106.0
7875,73.0,2,30,7.0,106.0
7876,90.0,28,30,7.0,127.0
7877,78.0,2,30,7.0,127.0
7878,88.0,28,30,7.0,106.0
7879,76.0,2,30,7.0,106.0
7880,86.0,28,30,7.0,106.0
7881,74.0,2,30,7.0,106.0
7882,85.0,28,30,7.0,106.0
7883,73.0,2,30,7.0,106.0
7884,90.0,28,30,7.0,127.0
7885,78.0,2,30,7.0,127.0
7886,88.0,28,30,7.0,106.0
7887,76.0,2,30,7.0,106.0
7888,86.0,28,30,7.0,106.0
7889,74.0,2,30,7.0,106.0
7890,85.0,28,30,7.0,106.0
7891,73.0,2,30,7.0,106.0
7892,90.0,28,30,7.0,116.0
7893,78.0,2,30,7.0,116.0
7894,88.0,28,30,7.0,106.0
7895,76.0,2,30,7.0,106.0
7896,86.0,28,30,7.0,106.0
7897,74.0,2,30,7.0,106.0
7898,85.0,28,30,7.0,106.0
7899,73.0,2,30,7.0,106.0
7900,90.0,28,30,7.0,116.0
7901,78.0,2,30,7.0,116.0
7902,88.0,28,30,7.0,106.0
7903,76.0,2,30,7.0,106.0
7904,86.0,28,30,7.0,106.0
7905,74.0,2,30,7.0,106.0
7906,85.0,28,30,7.0,106.0
7907,73.0,2,30,7.0,106.0
7908,90.0,28,30,7.0,116.0
7909,78.0,2,30,7.0,116.0
7910,88.0,28,30,7.0,106.0
7911,76.0,2,30,7.0,106.0
7912,86.0,28,30,7.0,106.0
7913,74.0,2,30,7.0,106.0
7914,85.0,28,30,7.0,106.0
7915,73.0,2,30,7.0,106.0
7916,90.0,0,30,7.0,116.0
7917,88.0,26,30,7.0,106.0
7918,78.0,28,60,7.0,106.0
7919,86.0,0,30,7.0,106.0
7920,73.0,0,60,7.0,106.0
7921,61.0,0,120,8.0,117.0
7922,85.0,30,30,7.0,106.0
7923,66.0,30,60,7.0,106.0
7924,58.0,2,120,10.0,112.0
7925,54.0,2,120,11.0,117.0
7926,86.0,0,40,7.0,106.0
7927,83.0,30,40,7.0,106.0
7928,78.0,40,40,7.0,106.0
7929,71.0,0,90,7.0,106.0
7930,74.0,0,90,7.0,106.0
7931,83.0,0,40,7.0,106.0
7932,86.0,40,40,7.0,106.0
7933,78.0,40,40,7.0,106.0
7934,82.0,36,40,7.0,106.0
7935,85.0,0,40,7.0,106.0
7936,78.0,20,40,7.0,106.0
7937,73.0,20,60,7.0,106.0
7938,66.0,0,60,7.0,106.0
7939,62.0,0,120,8.0,117.0
7940,59.0,2,120,10.0,112.0
7941,59.0,2,120,11.0,117.0
7942,83.0,40,40,7.0,106.0
7943,78.0,40,40,7.0,106.0
7944,71.0,0,90,7.0,106.0
7945,74.0,0,90,7.0,106.0
7946,83.0,40,40,7.0,106.0
7947,78.0,0,40,7.0,106.0
7948,85.0,38,40,7.0,106.0
7949,82.0,0,40,7.0,106.0
7950,78.0,20,40,7.0,106.0
7951,73.0,20,60,7.0,106.0
7952,66.0,0,60,7.0,106.0
7953,62.0,40,120,8.0,117.0
7954,59.0,2,120,10.0,112.0
7955,83.0,0,40,7.0,106.0
7956,86.0,0,40,7.0,106.0
7957,78.0,40,40,7.0,106.0
7958,71.0,0,90,7.0,106.0
7959,74.0,40,90,7.0,106.0
7960,86.0,0,40,7.0,106.0
7961,83.0,40,40,7.0,106.0
7962,78.0,40,40,7.0,106.0
7963,82.0,38,40,7.0,106.0
7964,85.0,0,40,7.0,106.0
7965,78.0,20,40,7.0,106.0
7966,62.0,0,120,8.0,117.0
7967,73.0,20,60,7.0,106.0
7968,66.0,0,60,7.0,106.0
7969,59.0,2,120,10.0,112.0
7970,83.0,0,40,7.0,106.0
7971,86.0,0,40,7.0,106.0
7972,78.0,40,40,7.0,106.0
7973,74.0,40,90,7.0,106.0
7974,71.0,0,90,7.0,106.0
7975,83.0,0,40,7.0,106.0
7976,86.0,40,40,7.0,106.0
7977,78.0,0,40,7.0,106.0
7978,86.0,0,40,7.0,106.0
7979,83.0,38,40,7.0,106.0
7980,82.0,0,40,7.0,106.0
7981,66.0,0,60,7.0,106.0
7982,85.0,20,40,7.0,106.0
7983,62.0,40,120,8.0,117.0
7984,73.0,20,60,7.0,106.0
7985,59.0,2,120,10.0,112.0
7986,83.0,0,40,7.0,106.0
7987,86.0,0,40,7.0,106.0
7988,78.0,40,40,7.0,106.0
7989,71.0,0,90,7.0,106.0
7990,74.0,40,90,7.0,106.0
7991,83.0,0,40,7.0,106.0
7992,86.0,40,40,7.0,106.0
7993,78.0,0,40,7.0,106.0
7994,82.0,38,40,7.0,106.0
7995,85.0,0,40,7.0,106.0
7996,78.0,20,40,7.0,106.0
7997,73.0,20,60,7.0,106.0
7998,66.0,0,60,7.0,106.0
7999,62.0,40,120,8.0,117.0
8000,59.0,2,120,10.0,112.0
8001,83.0,0,40,7.0,106.0
8002,86.0,0,40,7.0,106.0
8003,78.0,40,40,7.0,106.0
8004,74.0,40,90,7.0,106.0
8005,71.0,0,90,7.0,106.0
8006,86.0,0,40,7.0,106.0
8007,83.0,40,40,7.0,106.0
8008,81.0,0,40,7.0,106.0
8009,85.0,0,40,7.0,106.0
8010,88.0,36,40,7.0,106.0
8011,64.0,40,120,8.0,117.0
8012,69.0,20,60,7.0,106.0
8013,76.0,40,0,7.0,106.0
8014,81.0,20,40,7.0,106.0
8015,61.0,2,120,10.0,112.0
8016,57.0,2,120,11.0,117.0
8017,85.0,0,40,7.0,106.0
8018,88.0,0,40,7.0,106.0
8019,81.0,40,40,7.0,106.0
8020,69.0,0,90,7.0,106.0
8021,88.0,40,40,7.0,106.0
8022,85.0,0,40,7.0,106.0
8023,81.0,40,40,7.0,106.0
8024,85.0,0,40,7.0,106.0
8025,88.0,36,40,7.0,106.0
8026,76.0,0,0,7.0,106.0
8027,69.0,0,0,7.0,106.0
8028,64.0,0,120,8.0,117.0
8029,81.0,20,40,7.0,106.0
8030,61.0,2,120,10.0,112.0
8031,57.0,2,120,11.0,117.0
8032,88.0,40,40,7.0,106.0
8033,85.0,0,40,7.0,106.0
8034,81.0,40,40,7.0,106.0
8035,85.0,40,40,7.0,106.0
8036,88.0,0,40,7.0,106.0
8037,81.0,0,40,7.0,106.0
8038,90.0,0,40,7.0,106.0
8039,86.0,36,40,7.0,106.0
8040,66.0,40,120,8.0,117.0
8041,88.0,20,40,7.0,106.0
8042,74.0,0,0,7.0,106.0
8043,85.0,0,40,7.0,106.0
8044,78.0,0,0,7.0,106.0
8045,62.0,2,120,10.0,112.0
8046,50.0,2,120,11.0,117.0
8047,86.0,0,40,7.0,106.0
8048,90.0,40,40,7.0,106.0
8049,78.0,40,40,7.0,106.0
8050,90.0,40,40,7.0,106.0
8051,86.0,0,40,7.0,106.0
8052,78.0,40,40,7.0,106.0
8053,85.0,36,40,7.0,106.0
8054,88.0,0,40,7.0,106.0
8055,73.0,0,60,7.0,106.0
8056,66.0,0,120,8.0,117.0
8057,76.0,20,60,7.0,106.0
8058,78.0,0,0,7.0,106.0
8059,62.0,2,120,10.0,112.0
8060,62.0,2,120,11.0,117.0
8061,86.0,0,40,7.0,106.0
8062,90.0,40,40,7.0,106.0
8063,78.0,40,40,7.0,106.0
8064,74.0,0,90,7.0,106.0
8065,86.0,40,40,7.0,106.0
8066,90.0,0,40,7.0,106.0
8067,78.0,40,40,7.0,106.0
8068,85.0,0,40,7.0,106.0
8069,88.0,36,40,7.0,106.0
8070,86.0,20,40,7.0,106.0
8071,74.0,0,60,7.0,106.0
8072,66.0,0,120,8.0,117.0
8073,71.0,20,60,7.0,106.0
8074,83.0,0,40,7.0,106.0
8075,62.0,2,120,10.0,112.0
8076,59.0,2,120,11.0,117.0
8077,88.0,0,40,7.0,106.0
8078,85.0,40,40,7.0,106.0
8079,78.0,40,40,7.0,106.0
8080,73.0,0,90,7.0,106.0
8081,76.0,0,90,7.0,106.0
8082,85.0,0,40,7.0,106.0
8083,88.0,40,40,7.0,106.0
8084,78.0,0,40,7.0,106.0
8085,86.0,36,40,7.0,106.0
8086,83.0,0,40,7.0,106.0
8087,71.0,0,60,7.0,106.0
8088,74.0,20,60,7.0,106.0
8089,78.0,20,40,7.0,106.0
8090,64.0,40,120,8.0,117.0
8091,61.0,2,120,10.0,112.0
8092,54.0,2,120,11.0,117.0
8093,88.0,0,40,7.0,106.0
8094,85.0,40,40,7.0,106.0
8095,78.0,40,40,7.0,106.0
8096,73.0,0,90,7.0,106.0
8097,76.0,0,90,7.0,106.0
8098,85.0,0,40,7.0,106.0
8099,88.0,40,40,7.0,106.0
8100,78.0,0,40,7.0,106.0
8101,83.0,0,40,7.0,106.0
8102,86.0,36,40,7.0,106.0
8103,82.0,20,40,7.0,106.0
8104,66.0,0,60,7.0,106.0
8105,73.0,20,60,7.0,106.0
8106,85.0,0,40,7.0,106.0
8107,64.0,40,120,8.0,117.0
8108,61.0,2,120,10.0,112.0
8109,54.0,2,120,11.0,117.0
8110,83.0,0,40,7.0,106.0
8111,86.0,0,40,7.0,106.0
8112,78.0,40,40,7.0,106.0
8113,74.0,40,90,7.0,106.0
8114,71.0,0,90,7.0,106.0
8115,86.0,0,40,7.0,106.0
8116,83.0,40,40,7.0,106.0
8117,78.0,40,40,7.0,106.0
8118,82.0,0,40,7.0,106.0
8119,85.0,36,40,7.0,106.0
8120,78.0,20,40,7.0,106.0
8121,73.0,20,60,7.0,106.0
8122,66.0,0,60,7.0,106.0
8123,62.0,0,120,8.0,117.0
8124,59.0,2,120,10.0,112.0
8125,59.0,2,120,11.0,117.0
8126,83.0,0,40,7.0,106.0
8127,86.0,0,40,7.0,106.0
8128,78.0,40,40,7.0,106.0
8129,71.0,0,90,7.0,106.0
8130,74.0,40,90,7.0,106.0
8131,86.0,0,40,7.0,106.0
8132,83.0,40,40,7.0,106.0
8133,78.0,40,40,7.0,106.0
8134,82.0,36,40,7.0,106.0
8135,85.0,0,40,7.0,106.0
8136,78.0,20,40,7.0,106.0
8137,73.0,20,60,7.0,106.0
8138,66.0,0,60,7.0,106.0
8139,61.0,0,120,8.0,117.0
8140,58.0,2,120,10.0,112.0
8141,54.0,2,120,11.0,117.0
8142,82.0,0,60,7.0,106.0
8143,85.0,0,60,7.0,106.0
8144,78.0,54,45,7.0,106.0
8145,73.0,40,120,7.0,106.0
8146,66.0,0,120,7.0,106.0
8147,77.0,60,45,7.0,106.0
8148,78.0,60,45,7.0,106.0
8149,80.0,60,45,7.0,106.0
8150,82.0,60,45,7.0,106.0
8151,83.0,60,45,7.0,106.0
8152,85.0,60,45,7.0,106.0
8153,73.0,2,480,2.0,94.0
8154,58.0,1,480,3.0,110.0
8155,87.0,60,45,7.0,106.0
8156,83.0,53,45,7.0,106.0
8157,35.0,0,120,7.0,106.0
8158,35.0,1,120,13.0,127.0
8159,78.0,0,45,7.0,106.0
8160,83.0,60,45,7.0,106.0
8161,63.0,60,120,7.0,106.0
8162,75.0,60,45,7.0,106.0
8163,83.0,60,45,7.0,106.0
8164,54.0,0,120,7.0,106.0
8165,78.0,0,45,7.0,106.0
8166,83.0,60,45,7.0,106.0
8167,63.0,60,120,7.0,106.0
8168,87.0,60,45,7.0,106.0
8169,83.0,53,45,7.0,106.0
8170,47.0,0,120,7.0,106.0
8171,35.0,7,120,13.0,127.0
8172,78.0,60,45,7.0,106.0
8173,83.0,60,45,7.0,106.0
8174,63.0,0,120,7.0,106.0
8175,78.0,60,45,7.0,106.0
8176,87.0,60,45,7.0,106.0
8177,54.0,0,120,7.0,106.0
8178,83.0,60,45,7.0,106.0
8179,87.0,60,45,7.0,106.0
8180,63.0,0,120,7.0,106.0
8181,90.0,0,60,7.0,106.0
8182,87.0,53,60,7.0,106.0
8183,47.0,60,120,7.0,106.0
8184,35.0,7,120,13.0,127.0
8185,95.0,60,60,7.0,106.0
8186,94.0,60,60,7.0,106.0
8187,63.0,0,120,7.0,106.0
8188,92.0,0,60,7.0,106.0
8189,54.0,60,120,7.0,106.0
8190,90.0,60,60,7.0,106.0
8191,88.0,60,60,7.0,106.0
8192,87.0,60,60,7.0,106.0
8193,63.0,0,120,7.0,106.0
8194,75.0,2,1440,2.0,94.0
8195,59.0,4,1440,3.0,110.0
8196,90.0,0,60,7.0,106.0
8197,88.0,53,60,7.0,106.0
8198,42.0,60,120,7.0,106.0
8199,30.0,1,120,13.0,127.0
8200,87.0,60,60,7.0,106.0
8201,88.0,60,60,7.0,106.0
8202,64.0,0,120,7.0,106.0
8203,88.0,0,45,7.0,106.0
8204,85.0,60,45,7.0,106.0
8205,54.0,60,120,7.0,106.0
8206,87.0,0,45,7.0,106.0
8207,88.0,60,45,7.0,106.0
8208,64.0,60,120,7.0,106.0
8209,76.0,2,480,2.0,94.0
8210,61.0,4,480,3.0,110.0
8211,90.0,60,60,7.0,106.0
8212,95.0,53,60,7.0,106.0
8213,42.0,0,120,7.0,106.0
8214,30.0,1,120,13.0,127.0
8215,99.0,0,45,7.0,106.0
8216,97.0,60,45,7.0,106.0
8217,63.0,60,120,7.0,106.0
8218,95.0,60,45,7.0,106.0
8219,94.0,60,45,7.0,106.0
8220,54.0,0,120,7.0,106.0
8221,92.0,0,45,7.0,106.0
8222,90.0,60,45,7.0,106.0
8223,63.0,60,120,7.0,106.0
8224,78.0,2,480,2.0,94.0
8225,63.0,4,480,3.0,110.0
8226,88.0,0,60,7.0,106.0
8227,42.0,60,120,7.0,106.0
8228,94.0,53,60,7.0,106.0
8229,30.0,1,120,13.0,127.0
8230,97.0,0,45,7.0,106.0
8231,95.0,60,45,7.0,106.0
8232,61.0,60,120,7.0,106.0
8233,94.0,0,45,7.0,106.0
8234,92.0,60,45,7.0,106.0
8235,54.0,60,120,7.0,106.0
8236,90.0,60,45,7.0,106.0
8237,88.0,60,45,7.0,106.0
8238,61.0,0,120,7.0,106.0
8239,76.0,2,480,2.0,94.0
8240,61.0,4,480,3.0,110.0
8241,87.0,60,60,7.0,106.0
8242,95.0,53,60,7.0,106.0
8243,42.0,0,120,7.0,106.0
8244,30.0,1,120,13.0,127.0
8245,90.0,0,60,7.0,106.0
8246,59.0,60,120,7.0,106.0
8247,95.0,60,60,7.0,106.0
8248,99.0,60,60,7.0,106.0
8249,95.0,60,45,7.0,106.0
8250,54.0,0,120,7.0,106.0
8251,90.0,60,45,7.0,106.0
8252,87.0,60,45,7.0,106.0
8253,59.0,0,120,7.0,106.0
8254,75.0,2,480,2.0,94.0
8255,42.0,3,3840,12.0,117.0
8256,59.0,4,480,3.0,110.0
8257,85.0,0,45,7.0,106.0
8258,78.0,53,45,7.0,106.0
8259,42.0,60,120,7.0,106.0
8260,30.0,1,120,13.0,127.0
8261,73.0,60,45,7.0,106.0
8262,66.0,60,45,7.0,106.0
8263,61.0,60,45,7.0,106.0
8264,54.0,60,45,7.0,106.0
8265,73.0,0,360,2.0,94.0
8266,70.0,0,0,2.0,94.0
8267,43.0,3,360,12.0,117.0
8268,61.0,0,360,3.0,110.0
8269,58.0,0,0,3.0,110.0
8270,82.0,0,60,0.0,94.0
8271,86.0,0,60,0.0,94.0
8272,65.0,0,60,8.0,117.0
8273,58.0,0,60,8.0,117.0
8274,74.0,60,60,8.0,117.0
8275,82.0,1,60,1.0,98.0
8276,74.0,0,60,1.0,98.0
8277,62.0,0,60,10.0,112.0
8278,74.0,1,60,2.0,94.0
8279,70.0,0,60,10.0,112.0
8280,65.0,2,60,11.0,117.0
8281,41.0,1,60,12.0,117.0
8282,62.0,1,60,3.0,110.0
8283,29.0,1,60,13.0,127.0
8284,58.0,113,60,8.0,117.0
8285,65.0,0,60,8.0,117.0
8286,74.0,0,60,8.0,117.0
8287,82.0,0,60,0.0,94.0
8288,86.0,0,60,0.0,94.0
8289,74.0,1,60,1.0,98.0
8290,82.0,0,60,1.0,98.0
8291,70.0,0,60,2.0,94.0
8292,74.0,0,60,2.0,94.0
8293,62.0,0,60,10.0,112.0
8294,65.0,1,60,4.0,107.0
8295,70.0,0,60,10.0,112.0
8296,65.0,2,60,11.0,117.0
8297,41.0,1,60,12.0,117.0
8298,62.0,0,60,3.0,110.0
8299,58.0,1,60,3.0,110.0
8300,29.0,1,60,13.0,127.0
8301,72.0,0,60,8.0,117.0
8302,84.0,0,60,0.0,94.0
8303,81.0,113,60,0.0,94.0
8304,81.0,0,60,1.0,98.0
8305,72.0,1,60,1.0,98.0
8306,69.0,0,60,2.0,94.0
8307,72.0,0,60,2.0,94.0
8308,65.0,0,60,10.0,112.0
8309,69.0,0,60,10.0,112.0
8310,65.0,1,60,4.0,107.0
8311,53.0,2,60,11.0,117.0
8312,41.0,1,60,12.0,117.0
8313,60.0,1,60,3.0,110.0
8314,53.0,0,60,3.0,110.0
8315,29.0,1,60,13.0,127.0
8316,58.0,113,60,8.0,117.0
8317,65.0,0,60,8.0,117.0
8318,70.0,0,60,8.0,117.0
8319,82.0,0,60,0.0,94.0
8320,58.0,1,60,5.0,104.0
8321,82.0,0,60,1.0,98.0
8322,74.0,0,60,1.0,98.0
8323,70.0,0,60,5.0,104.0
8324,65.0,0,60,4.0,107.0
8325,62.0,0,60,10.0,112.0
8326,70.0,0,60,10.0,112.0
8327,70.0,0,60,2.0,94.0
8328,58.0,1,60,4.0,107.0
8329,65.0,2,60,11.0,117.0
8330,46.0,1,60,12.0,117.0
8331,50.0,0,60,3.0,110.0
8332,58.0,1,60,3.0,110.0
8333,46.0,0,60,6.0,122.0
8334,34.0,1,60,13.0,127.0
8335,72.0,0,60,8.0,117.0
8336,81.0,113,60,0.0,94.0
8337,84.0,0,60,0.0,94.0
8338,72.0,0,60,1.0,98.0
8339,81.0,1,60,1.0,98.0
8340,69.0,0,60,2.0,94.0
8341,65.0,1,60,4.0,107.0
8342,69.0,0,60,10.0,112.0
8343,72.0,0,60,2.0,94.0
8344,65.0,0,60,10.0,112.0
8345,53.0,2,60,11.0,117.0
8346,41.0,1,60,12.0,117.0
8347,53.0,0,60,3.0,110.0
8348,60.0,1,60,3.0,110.0
8349,29.0,1,60,13.0,127.0
8350,86.0,0,60,0.0,94.0
8351,82.0,0,60,0.0,94.0
8352,74.0,0,60,8.0,117.0
8353,65.0,113,60,8.0,117.0
8354,58.0,0,60,8.0,117.0
8355,82.0,0,60,1.0,98.0
8356,74.0,1,60,1.0,98.0
8357,65.0,1,60,4.0,107.0
8358,58.0,0,60,4.0,107.0
8359,62.0,0,60,10.0,112.0
8360,70.0,0,60,10.0,112.0
8361,74.0,0,60,2.0,94.0
8362,70.0,0,60,2.0,94.0
8363,65.0,2,60,11.0,117.0
8364,46.0,1,60,12.0,117.0
8365,58.0,1,60,3.0,110.0
8366,62.0,0,60,3.0,110.0
8367,34.0,1,60,13.0,127.0
8368,81.0,0,60,0.0,94.0
8369,84.0,113,60,0.0,94.0
8370,72.0,0,60,8.0,117.0
8371,81.0,1,60,1.0,98.0
8372,72.0,0,60,1.0,98.0
8373,65.0,0,60,4.0,107.0
8374,69.0,0,60,2.0,94.0
8375,65.0,0,60,10.0,112.0
8376,69.0,0,60,10.0,112.0
8377,72.0,1,60,2.0,94.0
8378,53.0,2,60,11.0,117.0
8379,41.0,1,60,12.0,117.0
8380,53.0,0,60,3.0,110.0
8381,60.0,1,60,3.0,110.0
8382,29.0,1,60,13.0,127.0
8383,58.0,0,60,8.0,117.0
8384,74.0,113,60,8.0,117.0
8385,82.0,0,60,0.0,94.0
8386,65.0,0,60,8.0,117.0
8387,86.0,0,60,0.0,94.0
8388,58.0,0,60,5.0,104.0
8389,82.0,0,60,1.0,98.0
8390,74.0,1,60,1.0,98.0
8391,70.0,0,60,5.0,104.0
8392,62.0,0,60,10.0,112.0
8393,58.0,0,60,4.0,107.0
8394,65.0,0,60,4.0,107.0
8395,74.0,0,60,2.0,94.0
8396,70.0,1,60,2.0,94.0
8397,70.0,0,60,10.0,112.0
8398,65.0,2,60,11.0,117.0
8399,46.0,1,60,12.0,117.0
8400,62.0,0,60,3.0,110.0
8401,46.0,0,60,6.0,122.0
8402,58.0,1,60,3.0,110.0
8403,34.0,1,60,13.0,127.0
8404,74.0,0,60,8.0,117.0
8405,82.0,0,60,0.0,94.0
8406,86.0,113,60,0.0,94.0
8407,74.0,1,60,1.0,98.0
8408,82.0,0,60,1.0,98.0
8409,58.0,0,60,4.0,107.0
8410,65.0,0,60,4.0,107.0
8411,70.0,0,60,10.0,112.0
8412,62.0,0,60,10.0,112.0
8413,70.0,0,60,2.0,94.0
8414,74.0,1,60,2.0,94.0
8415,65.0,2,60,11.0,117.0
8416,46.0,1,60,12.0,117.0
8417,62.0,0,60,3.0,110.0
8418,58.0,1,60,3.0,110.0
8419,34.0,1,60,13.0,127.0
8420,84.0,0,60,0.0,94.0
8421,72.0,53,60,8.0,117.0
8422,81.0,0,60,0.0,94.0
8423,81.0,1,60,1.0,98.0
8424,72.0,0,60,1.0,98.0
8425,69.0,0,60,10.0,112.0
8426,65.0,1,60,4.0,107.0
8427,72.0,0,60,2.0,94.0
8428,69.0,0,60,2.0,94.0
8429,65.0,0,60,10.0,112.0
8430,53.0,2,60,11.0,117.0
8431,41.0,1,60,12.0,117.0
8432,60.0,0,60,3.0,110.0
8433,53.0,1,60,3.0,110.0
8434,29.0,1,60,13.0,127.0
8435,58.0,0,60,8.0,117.0
8436,74.0,0,60,8.0,117.0
8437,82.0,53,60,0.0,94.0
8438,86.0,0,60,0.0,94.0
8439,65.0,0,60,8.0,117.0
8440,82.0,0,60,1.0,98.0
8441,70.0,0,60,5.0,104.0
8442,74.0,1,60,1.0,98.0
8443,58.0,0,60,5.0,104.0
8444,70.0,0,60,2.0,94.0
8445,62.0,1,60,10.0,112.0
8446,70.0,0,60,10.0,112.0
8447,74.0,0,60,2.0,94.0
8448,65.0,0,60,4.0,107.0
8449,58.0,0,60,4.0,107.0
8450,65.0,2,60,11.0,117.0
8451,46.0,1,60,12.0,117.0
8452,62.0,0,60,3.0,110.0
8453,46.0,0,60,6.0,122.0
8454,58.0,1,60,3.0,110.0
8455,34.0,1,60,13.0,127.0
8456,84.0,0,60,0.0,94.0
8457,81.0,113,60,0.0,94.0
8458,72.0,0,60,8.0,117.0
8459,81.0,1,60,1.0,98.0
8460,72.0,0,60,1.0,98.0
8461,65.0,0,60,10.0,112.0
8462,72.0,0,60,2.0,94.0
8463,69.0,0,60,2.0,94.0
8464,65.0,1,60,4.0,107.0
8465,69.0,0,60,10.0,112.0
8466,53.0,2,60,11.0,117.0
8467,41.0,1,60,12.0,117.0
8468,60.0,0,60,3.0,110.0
8469,53.0,1,60,3.0,110.0
8470,29.0,1,60,13.0,127.0
8471,82.0,0,60,0.0,94.0
8472,65.0,0,60,8.0,117.0
8473,74.0,0,60,8.0,117.0
8474,58.0,113,60,8.0,117.0
8475,86.0,0,60,0.0,94.0
8476,58.0,0,60,5.0,104.0
8477,82.0,0,60,1.0,98.0
8478,70.0,1,60,5.0,104.0
8479,74.0,0,60,1.0,98.0
8480,58.0,1,60,4.0,107.0
8481,70.0,0,60,2.0,94.0
8482,74.0,0,60,2.0,94.0
8483,65.0,0,60,4.0,107.0
8484,70.0,0,60,10.0,112.0
8485,62.0,0,60,10.0,112.0
8486,65.0,2,60,11.0,117.0
8487,46.0,1,60,12.0,117.0
8488,58.0,0,60,3.0,110.0
8489,62.0,0,60,3.0,110.0
8490,46.0,1,60,6.0,122.0
8491,34.0,1,60,13.0,127.0
8492,74.0,0,60,8.0,117.0
8493,86.0,113,60,0.0,94.0
8494,82.0,0,60,0.0,94.0
8495,58.0,1,60,5.0,104.0
8496,70.0,0,60,5.0,104.0
8497,74.0,0,60,1.0,98.0
8498,82.0,0,60,1.0,98.0
8499,58.0,0,60,10.0,112.0
8500,58.0,0,60,4.0,107.0
8501,65.0,0,60,4.0,107.0
8502,74.0,0,60,2.0,94.0
8503,70.0,1,60,2.0,94.0
8504,65.0,2,60,11.0,117.0
8505,46.0,1,60,12.0,117.0
8506,58.0,1,60,3.0,110.0
8507,62.0,0,60,3.0,110.0
8508,46.0,0,60,6.0,122.0
8509,34.0,1,60,13.0,127.0
8510,75.0,53,60,8.0,117.0
8511,84.0,0,60,0.0,94.0
8512,87.0,0,0,0.0,94.0
8513,75.0,0,60,1.0,98.0
8514,84.0,1,0,1.0,98.0
8515,65.0,0,60,4.0,107.0
8516,72.0,0,0,2.0,94.0
8517,75.0,0,0,2.0,94.0
8518,57.0,0,0,10.0,112.0
8519,53.0,2,60,11.0,117.0
8520,41.0,1,60,12.0,117.0
8521,60.0,0,60,3.0,110.0
8522,63.0,1,60,3.0,110.0
8523,29.0,1,60,13.0,127.0
8524,84.0,233,0,0.0,94.0
8525,87.0,0,0,0.0,94.0
8526,75.0,0,0,8.0,117.0
8527,75.0,0,240,1.0,98.0
8528,75.0,1,0,2.0,94.0
8529,72.0,0,0,2.0,94.0
8530,65.0,0,0,4.0,107.0
8531,53.0,2,240,11.0,117.0
8532,41.0,1,0,12.0,117.0
8533,60.0,1,240,3.0,110.0
8534,63.0,1,0,3.0,110.0
8535,29.0,1,240,13.0,127.0
8536,75.0,0,60,1.0,98.0
8537,84.0,1,60,1.0,98.0
8538,69.0,0,60,10.0,112.0
8539,53.0,2,60,11.0,117.0
8540,60.0,0,60,3.0,110.0
8541,29.0,1,60,13.0,127.0
8542,65.0,0,0,4.0,107.0
8543,77.0,0,60,8.0,117.0
8544,86.0,0,60,0.0,94.0
8545,89.0,113,60,0.0,94.0
8546,77.0,0,60,1.0,98.0
8547,86.0,0,60,1.0,98.0
8548,70.0,1,60,5.0,104.0
8549,58.0,0,60,5.0,104.0
8550,77.0,0,60,2.0,94.0
8551,74.0,0,60,2.0,94.0
8552,62.0,0,60,10.0,112.0
8553,74.0,1,60,10.0,112.0
8554,65.0,2,60,11.0,117.0
8555,46.0,1,60,12.0,117.0
8556,46.0,1,60,6.0,122.0
8557,62.0,0,60,3.0,110.0
8558,65.0,0,60,3.0,110.0
8559,34.0,1,60,13.0,127.0
8560,84.0,0,60,0.0,94.0
8561,75.0,53,60,8.0,117.0
8562,87.0,0,60,0.0,94.0
8563,84.0,1,60,1.0,98.0
8564,75.0,0,60,1.0,98.0
8565,65.0,0,60,4.0,107.0
8566,72.0,0,60,10.0,112.0
8567,72.0,1,60,2.0,94.0
8568,75.0,0,60,2.0,94.0
8569,53.0,2,60,11.0,117.0
8570,41.0,1,60,12.0,117.0
8571,63.0,1,60,3.0,110.0
8572,60.0,0,60,3.0,110.0
8573,29.0,1,60,13.0,127.0
8574,70.0,0,60,8.0,117.0
8575,62.0,0,60,8.0,117.0
8576,77.0,0,60,8.0,117.0
8577,89.0,53,60,0.0,94.0
8578,86.0,0,60,0.0,94.0
8579,58.0,0,60,5.0,104.0
8580,70.0,0,60,5.0,104.0
8581,86.0,1,60,1.0,98.0
8582,77.0,0,60,1.0,98.0
8583,77.0,0,60,2.0,94.0
8584,74.0,0,60,2.0,94.0
8585,62.0,0,60,10.0,112.0
8586,74.0,0,60,10.0,112.0
8587,65.0,1,60,4.0,107.0
8588,65.0,2,60,11.0,117.0
8589,46.0,1,60,12.0,117.0
8590,62.0,0,60,3.0,110.0
8591,65.0,1,60,3.0,110.0
8592,46.0,0,60,6.0,122.0
8593,34.0,1,60,13.0,127.0
8594,87.0,0,60,0.0,94.0
8595,84.0,0,60,0.0,94.0
8596,75.0,113,60,8.0,117.0
8597,75.0,0,60,1.0,98.0
8598,84.0,1,60,1.0,98.0
8599,72.0,0,60,10.0,112.0
8600,65.0,0,60,4.0,107.0
8601,72.0,1,60,2.0,94.0
8602,75.0,0,60,2.0,94.0
8603,53.0,2,60,11.0,117.0
8604,41.0,1,60,12.0,117.0
8605,63.0,0,60,3.0,110.0
8606,60.0,1,60,3.0,110.0
8607,29.0,1,60,13.0,127.0
8608,89.0,0,15,0.0,94.0
8609,86.0,113,15,0.0,94.0
8610,77.0,0,15,8.0,117.0
8611,77.0,0,15,1.0,98.0
8612,74.0,1,15,10.0,112.0
8613,77.0,0,15,2.0,94.0
8614,74.0,0,15,2.0,94.0
8615,62.0,0,15,3.0,110.0
8616,65.0,1,15,3.0,110.0
8617,91.0,8,15,0.0,94.0
8618,87.0,0,15,0.0,94.0
8619,79.0,0,15,8.0,117.0
8620,79.0,1,15,1.0,98.0
8621,75.0,1,15,10.0,112.0
8622,79.0,0,15,2.0,94.0
8623,75.0,0,15,2.0,94.0
8624,63.0,4,15,3.0,110.0
8625,67.0,0,15,3.0,110.0
8626,86.0,9,90,0.0,94.0
8627,89.0,0,90,0.0,94.0
8628,77.0,0,90,8.0,117.0
8629,86.0,0,120,1.0,98.0
8630,77.0,1,90,1.0,98.0
8631,58.0,0,120,5.0,104.0
8632,70.0,1,120,5.0,104.0
8633,74.0,0,90,10.0,112.0
8634,74.0,1,90,2.0,94.0
8635,65.0,0,120,4.0,107.0
8636,77.0,0,90,2.0,94.0
8637,65.0,2,120,11.0,117.0
8638,46.0,1,120,12.0,117.0
8639,62.0,4,90,3.0,110.0
8640,65.0,0,90,3.0,110.0
8641,46.0,0,120,6.0,122.0
8642,34.0,1,120,13.0,127.0
8643,87.0,84,45,0.0,94.0
8644,84.0,0,45,0.0,94.0
8645,75.0,0,45,8.0,117.0
8646,84.0,1,45,1.0,98.0
8647,75.0,0,45,1.0,98.0
8648,72.0,1,45,2.0,94.0
8649,72.0,0,45,10.0,112.0
8650,75.0,0,45,2.0,94.0
8651,53.0,2,45,11.0,117.0
8652,41.0,1,45,12.0,117.0
8653,60.0,0,45,3.0,110.0
8654,63.0,1,45,3.0,110.0
8655,29.0,1,45,13.0,127.0
8656,65.0,1,0,4.0,107.0
8657,82.0,0,45,0.0,94.0
8658,86.0,53,45,0.0,94.0
8659,74.0,0,45,8.0,117.0
8660,74.0,0,45,1.0,98.0
8661,82.0,1,45,1.0,98.0
8662,70.0,0,45,2.0,94.0
8663,74.0,0,45,2.0,94.0
8664,46.0,3,45,12.0,117.0
8665,58.0,0,45,3.0,110.0
8666,62.0,1,45,3.0,110.0
8667,34.0,1,45,13.0,127.0
8668,65.0,1,0,4.0,107.0
8669,70.0,10,45,10.0,112.0
8670,65.0,2,45,11.0,117.0
8671,75.0,1,45,1.0,98.0
8672,84.0,0,45,1.0,98.0
8673,75.0,0,45,2.0,94.0
8674,72.0,0,45,2.0,94.0
8675,63.0,0,45,3.0,110.0
8676,60.0,1,45,3.0,110.0
8677,75.0,0,60,8.0,117.0
8678,84.0,0,60,0.0,94.0
8679,87.0,41,60,0.0,94.0
8680,57.0,0,60,8.0,117.0
8681,65.0,0,60,8.0,117.0
8682,72.0,0,60,10.0,112.0
8683,65.0,0,60,10.0,112.0
8684,53.0,2,60,11.0,117.0
8685,41.0,1,60,12.0,117.0
8686,29.0,1,60,13.0,127.0
8687,74.0,1,45,1.0,98.0
8688,82.0,0,45,1.0,98.0
8689,74.0,0,45,2.0,94.0
8690,70.0,0,45,2.0,94.0
8691,58.0,1,45,3.0,110.0
8692,62.0,0,45,3.0,110.0
8693,82.0,0,60,0.0,94.0
8694,86.0,113,60,0.0,94.0
8695,74.0,0,60,8.0,117.0
8696,65.0,1,60,4.0,107.0
8697,70.0,0,60,10.0,112.0
8698,65.0,2,60,11.0,117.0
8699,46.0,1,60,12.0,117.0
8700,34.0,1,60,13.0,127.0
8701,84.0,113,15,0.0,94.0
8702,87.0,0,15,0.0,94.0
8703,75.0,0,15,8.0,117.0
8704,84.0,0,15,1.0,98.0
8705,75.0,1,15,1.0,98.0
8706,72.0,0,15,2.0,94.0
8707,72.0,0,15,10.0,112.0
8708,75.0,0,15,2.0,94.0
8709,60.0,1,15,3.0,110.0
8710,63.0,0,15,3.0,110.0
8711,89.0,0,15,0.0,94.0
8712,86.0,8,15,0.0,94.0
8713,77.0,0,15,8.0,117.0
8714,86.0,1,15,1.0,98.0
8715,77.0,0,15,1.0,98.0
8716,74.0,0,15,10.0,112.0
8717,74.0,0,15,2.0,94.0
8718,77.0,1,15,2.0,94.0
8719,62.0,0,15,3.0,110.0
8720,65.0,4,15,3.0,110.0
8721,70.0,0,60,5.0,104.0
8722,58.0,0,60,5.0,104.0
8723,46.0,0,60,6.0,122.0
8724,87.0,0,90,0.0,94.0
8725,75.0,0,90,8.0,117.0
8726,84.0,9,90,0.0,94.0
8727,75.0,1,90,1.0,98.0
8728,84.0,0,90,1.0,98.0
8729,75.0,0,90,2.0,94.0
8730,72.0,0,90,2.0,94.0
8731,65.0,1,120,4.0,107.0
8732,72.0,1,90,10.0,112.0
8733,53.0,2,120,11.0,117.0
8734,41.0,1,120,12.0,117.0
8735,60.0,0,90,3.0,110.0
8736,63.0,4,90,3.0,110.0
8737,29.0,1,120,13.0,127.0
8738,86.0,84,60,0.0,94.0
8739,74.0,0,60,8.0,117.0
8740,82.0,0,60,0.0,94.0
8741,82.0,0,60,1.0,98.0
8742,74.0,0,60,1.0,98.0
8743,65.0,0,60,4.0,107.0
8744,58.0,1,60,4.0,107.0
8745,74.0,0,60,2.0,94.0
8746,70.0,0,60,2.0,94.0
8747,70.0,0,60,10.0,112.0
8748,65.0,2,60,11.0,117.0
8749,46.0,1,60,12.0,117.0
8750,58.0,1,60,3.0,110.0
8751,62.0,0,60,3.0,110.0
8752,34.0,1,60,13.0,127.0
8753,84.0,0,60,0.0,94.0
8754,81.0,53,60,0.0,94.0
8755,72.0,0,60,8.0,117.0
8756,77.0,1,120,5.0,104.0
8757,72.0,0,60,1.0,98.0
8758,81.0,1,60,1.0,98.0
8759,69.0,0,60,10.0,112.0
8760,65.0,0,0,4.0,107.0
8761,69.0,0,60,2.0,94.0
8762,72.0,0,60,2.0,94.0
8763,53.0,2,60,11.0,117.0
8764,41.0,1,60,12.0,117.0
8765,60.0,1,60,3.0,110.0
8766,53.0,0,60,3.0,110.0
8767,29.0,1,60,13.0,127.0
8768,82.0,0,60,0.0,94.0
8769,86.0,0,60,0.0,94.0
8770,65.0,53,60,8.0,117.0
8771,58.0,0,60,8.0,117.0
8772,74.0,0,60,8.0,117.0
8773,58.0,0,60,5.0,104.0
8774,70.0,0,60,5.0,104.0
8775,74.0,0,60,1.0,98.0
8776,82.0,1,60,1.0,98.0
8777,74.0,0,60,2.0,94.0
8778,70.0,0,60,10.0,112.0
8779,62.0,0,60,10.0,112.0
8780,70.0,1,60,2.0,94.0
8781,58.0,0,60,4.0,107.0
8782,65.0,2,60,11.0,117.0
8783,46.0,1,60,12.0,117.0
8784,46.0,1,60,6.0,122.0
8785,62.0,0,60,3.0,110.0
8786,58.0,0,60,3.0,110.0
8787,34.0,1,60,13.0,127.0
8788,72.0,0,60,8.0,117.0
8789,84.0,0,60,0.0,94.0
8790,81.0,113,60,0.0,94.0
8791,81.0,0,60,1.0,98.0
8792,72.0,1,60,1.0,98.0
8793,72.0,0,60,2.0,94.0
8794,69.0,0,60,2.0,94.0
8795,65.0,0,60,4.0,107.0
8796,65.0,0,60,10.0,112.0
8797,69.0,1,60,10.0,112.0
8798,53.0,2,60,11.0,117.0
8799,41.0,1,60,12.0,117.0
8800,53.0,0,60,3.0,110.0
8801,60.0,1,60,3.0,110.0
8802,29.0,1,60,13.0,127.0
8803,58.0,0,60,8.0,117.0
8804,82.0,0,60,0.0,94.0
8805,65.0,0,60,8.0,117.0
8806,74.0,0,60,8.0,117.0
8807,86.0,113,60,0.0,94.0
8808,74.0,0,60,1.0,98.0
8809,82.0,1,60,1.0,98.0
8810,58.0,0,60,5.0,104.0
8811,70.0,0,60,5.0,104.0
8812,58.0,0,60,4.0,107.0
8813,65.0,0,60,4.0,107.0
8814,70.0,0,60,10.0,112.0
8815,70.0,0,60,2.0,94.0
8816,74.0,0,60,2.0,94.0
8817,62.0,1,60,10.0,112.0
8818,65.0,2,60,11.0,117.0
8819,46.0,1,60,12.0,117.0
8820,46.0,1,60,6.0,122.0
8821,62.0,0,60,3.0,110.0
8822,58.0,0,60,3.0,110.0
8823,34.0,1,60,13.0,127.0
8824,81.0,0,60,0.0,94.0
8825,72.0,0,60,8.0,117.0
8826,84.0,113,60,0.0,94.0
8827,72.0,0,60,1.0,98.0
8828,81.0,1,60,1.0,98.0
8829,69.0,1,60,10.0,112.0
8830,65.0,0,60,10.0,112.0
8831,69.0,0,60,2.0,94.0
8832,72.0,0,60,2.0,94.0
8833,65.0,0,60,4.0,107.0
8834,53.0,2,60,11.0,117.0
8835,41.0,1,60,12.0,117.0
8836,53.0,0,60,3.0,110.0
8837,60.0,1,60,3.0,110.0
8838,29.0,1,60,13.0,127.0
8839,81.0,0,120,0.0,94.0
8840,84.0,0,120,0.0,94.0
8841,72.0,1,120,1.0,98.0
8842,81.0,0,120,1.0,98.0
8843,69.0,0,120,2.0,94.0
8844,72.0,1,120,2.0,94.0
8845,60.0,1,120,3.0,110.0
8846,53.0,0,120,3.0,110.0
8847,72.0,233,0,8.0,117.0
8848,69.0,0,240,10.0,112.0
8849,65.0,0,240,10.0,112.0
8850,53.0,2,240,11.0,117.0
8851,41.0,1,240,12.0,117.0
8852,29.0,1,240,13.0,127.0
8853,57.0,53,30,7.0,106.0
8854,53.0,30,30,7.0,106.0
8855,60.0,30,30,7.0,106.0
8856,57.0,30,30,7.0,106.0
8857,65.0,30,30,7.0,106.0
8858,60.0,30,30,7.0,106.0
8859,65.0,2,240,10.0,112.0
8860,57.0,2,240,11.0,117.0
8861,53.0,1,240,12.0,117.0
8862,41.0,2,240,13.0,127.0
8863,69.0,30,30,7.0,106.0
8864,65.0,23,30,7.0,106.0
8865,72.0,30,30,7.0,106.0
8866,72.0,0,120,8.0,117.0
8867,69.0,30,30,7.0,106.0
8868,65.0,0,120,10.0,112.0
8869,57.0,2,120,11.0,117.0
8870,53.0,1,120,12.0,117.0
8871,41.0,2,120,13.0,127.0
8872,77.0,30,30,7.0,106.0
8873,72.0,30,30,7.0,106.0
8874,81.0,30,30,7.0,106.0
8875,77.0,30,30,7.0,106.0
8876,72.0,1,240,1.0,98.0
8877,69.0,0,240,2.0,94.0
8878,65.0,1,240,4.0,107.0
8879,84.0,30,30,7.0,106.0
8880,81.0,28,30,7.0,106.0
8881,89.0,30,30,7.0,106.0
8882,84.0,30,30,7.0,106.0
8883,89.0,30,30,7.0,106.0
8884,84.0,30,30,7.0,106.0
8885,93.0,30,30,7.0,106.0
8886,89.0,30,30,7.0,106.0
8887,72.0,1,240,1.0,98.0
8888,69.0,0,240,2.0,94.0
8889,65.0,1,240,4.0,107.0
8890,51.0,0,40,7.0,106.0
8891,60.0,33,40,7.0,106.0
8892,96.0,30,120,7.0,106.0
8893,57.0,40,40,7.0,106.0
8894,51.0,40,40,7.0,106.0
8895,48.0,40,40,7.0,106.0
8896,45.0,40,40,7.0,106.0
8897,72.0,40,0,8.0,117.0
8898,65.0,2,240,10.0,112.0
8899,57.0,2,0,11.0,117.0
8900,51.0,1,240,12.0,117.0
8901,39.0,2,0,13.0,127.0
8902,57.0,53,30,7.0,106.0
8903,53.0,30,30,7.0,106.0
8904,39.0,0,120,7.0,106.0
8905,60.0,30,30,7.0,106.0
8906,57.0,30,30,7.0,106.0
8907,65.0,30,30,7.0,106.0
8908,60.0,30,30,7.0,106.0
8909,65.0,0,0,10.0,112.0
8910,57.0,2,0,11.0,117.0
8911,51.0,1,240,12.0,117.0
8912,69.0,0,30,7.0,106.0
8913,65.0,23,30,7.0,106.0
8914,72.0,30,30,7.0,106.0
8915,72.0,30,120,8.0,117.0
8916,69.0,30,30,7.0,106.0
8917,51.0,1,120,12.0,117.0
8918,39.0,1,120,13.0,127.0
8919,77.0,30,30,7.0,106.0
8920,72.0,30,30,7.0,106.0
8921,81.0,30,30,7.0,106.0
8922,77.0,30,30,7.0,106.0
8923,72.0,1,0,1.0,98.0
8924,69.0,1,240,2.0,94.0
8925,65.0,0,0,4.0,107.0
8926,63.0,4,0,3.0,110.0
8927,84.0,30,30,7.0,106.0
8928,81.0,24,30,7.0,106.0
8929,89.0,30,30,7.0,106.0
8930,84.0,30,30,7.0,106.0
8931,93.0,30,30,7.0,106.0
8932,89.0,30,30,7.0,106.0
8933,96.0,30,30,7.0,106.0
8934,93.0,30,30,7.0,106.0
8935,69.0,1,240,2.0,94.0
8936,50.0,0,40,7.0,106.0
8937,58.0,33,40,7.0,106.0
8938,53.0,40,40,7.0,106.0
8939,98.0,0,120,7.0,106.0
8940,50.0,40,40,7.0,106.0
8941,46.0,40,40,7.0,106.0
8942,41.0,40,40,7.0,106.0
8943,74.0,0,0,8.0,117.0
8944,65.0,2,240,10.0,112.0
8945,58.0,2,0,11.0,117.0
8946,50.0,1,0,12.0,117.0
8947,38.0,2,240,13.0,127.0
8948,58.0,53,30,7.0,106.0
8949,53.0,30,30,7.0,106.0
8950,38.0,40,120,7.0,106.0
8951,62.0,30,30,7.0,106.0
8952,58.0,30,30,7.0,106.0
8953,65.0,30,30,7.0,106.0
8954,62.0,30,30,7.0,106.0
8955,65.0,1,0,10.0,112.0
8956,50.0,1,0,12.0,117.0
8957,38.0,2,240,13.0,127.0
8958,70.0,0,30,7.0,106.0
8959,65.0,23,30,7.0,106.0
8960,74.0,30,30,7.0,106.0
8961,70.0,30,30,7.0,106.0
8962,74.0,30,120,8.0,117.0
8963,58.0,2,120,11.0,117.0
8964,38.0,1,120,13.0,127.0
8965,77.0,30,30,7.0,106.0
8966,74.0,30,30,7.0,106.0
8967,82.0,30,30,7.0,106.0
8968,77.0,30,30,7.0,106.0
8969,74.0,1,0,1.0,98.0
8970,65.0,1,0,4.0,107.0
8971,70.0,0,0,2.0,94.0
8972,62.0,4,0,3.0,110.0
8973,86.0,30,30,7.0,106.0
8974,82.0,24,30,7.0,106.0
8975,89.0,30,30,7.0,106.0
8976,86.0,30,30,7.0,106.0
8977,94.0,30,30,7.0,106.0
8978,89.0,30,30,7.0,106.0
8979,98.0,30,30,7.0,106.0
8980,94.0,30,30,7.0,106.0
8981,63.0,30,30,7.0,106.0
8982,60.0,0,30,7.0,106.0
8983,65.0,23,30,7.0,106.0
8984,60.0,30,30,7.0,106.0
8985,63.0,0,30,7.0,106.0
8986,87.0,0,120,7.0,106.0
8987,99.0,0,120,7.0,106.0
8988,65.0,30,30,7.0,106.0
8989,75.0,0,120,8.0,117.0
8990,65.0,2,120,10.0,112.0
8991,57.0,2,120,11.0,117.0
8992,48.0,1,120,12.0,117.0
8993,36.0,2,120,13.0,127.0
8994,60.0,30,30,7.0,106.0
8995,63.0,0,30,7.0,106.0
8996,65.0,30,30,7.0,106.0
8997,60.0,0,30,7.0,106.0
8998,63.0,30,30,7.0,106.0
8999,65.0,30,30,7.0,106.0
9000,60.0,0,30,7.0,106.0
9001,63.0,30,30,7.0,106.0
9002,65.0,30,30,7.0,106.0
9003,60.0,0,30,7.0,106.0
9004,63.0,30,30,7.0,106.0
9005,87.0,0,240,7.0,127.0
9006,65.0,30,30,7.0,106.0
9007,75.0,0,240,7.0,127.0
9008,60.0,30,30,7.0,106.0
9009,63.0,0,30,7.0,106.0
9010,74.0,0,45,7.0,106.0
9011,86.0,0,45,7.0,106.0
9012,65.0,30,30,7.0,106.0
9013,60.0,0,30,7.0,106.0
9014,63.0,0,30,7.0,106.0
9015,72.0,0,45,7.0,106.0
9016,84.0,30,45,7.0,106.0
9017,65.0,30,30,7.0,106.0
9018,63.0,0,30,7.0,106.0
9019,60.0,0,30,7.0,106.0
9020,82.0,0,60,7.0,106.0
9021,70.0,30,60,7.0,106.0
9022,65.0,30,30,7.0,106.0
9023,63.0,30,30,7.0,106.0
9024,60.0,0,30,7.0,106.0
9025,69.0,0,60,7.0,106.0
9026,81.0,0,60,7.0,106.0
9027,65.0,30,30,7.0,106.0
9028,63.0,30,30,7.0,106.0
9029,60.0,0,30,7.0,106.0
9030,67.0,0,45,7.0,106.0
9031,79.0,0,45,7.0,106.0
9032,65.0,0,0,7.0,106.0
9033,60.0,0,30,7.0,106.0
9034,63.0,0,30,7.0,106.0
9035,65.0,30,15,7.0,106.0
9036,77.0,30,45,7.0,106.0
9037,53.0,0,30,7.0,106.0
9038,77.0,0,45,7.0,106.0
9039,65.0,30,30,7.0,106.0
9040,77.0,30,60,8.0,117.0
9041,52.0,30,30,7.0,106.0
9042,76.0,0,45,7.0,106.0
9043,76.0,0,60,8.0,117.0
9044,64.0,30,30,7.0,106.0
9045,51.0,0,30,7.0,106.0
9046,75.0,30,45,7.0,106.0
9047,63.0,30,30,7.0,106.0
9048,75.0,0,60,8.0,117.0
9049,50.0,0,30,7.0,106.0
9050,74.0,0,45,7.0,106.0
9051,74.0,30,60,8.0,117.0
9052,62.0,30,30,7.0,106.0
9053,48.0,30,30,7.0,106.0
9054,72.0,0,45,7.0,106.0
9055,72.0,0,60,8.0,117.0
9056,60.0,28,30,7.0,106.0
9057,72.0,2,60,10.0,112.0
9058,46.0,0,30,7.0,106.0
9059,70.0,30,45,7.0,106.0
9060,58.0,28,30,7.0,106.0
9061,70.0,2,60,10.0,112.0
9062,45.0,0,30,7.0,106.0
9063,69.0,30,45,7.0,106.0
9064,57.0,28,30,7.0,106.0
9065,69.0,2,60,10.0,112.0
9066,43.0,0,30,7.0,106.0
9067,67.0,30,45,7.0,106.0
9068,55.0,28,30,7.0,106.0
9069,67.0,2,60,10.0,112.0
9070,41.0,30,30,7.0,106.0
9071,65.0,0,45,7.0,106.0
9072,53.0,26,30,7.0,106.0
9073,65.0,2,60,10.0,112.0
9074,65.0,2,60,11.0,117.0
9075,40.0,30,30,7.0,106.0
9076,64.0,0,45,7.0,106.0
9077,52.0,26,30,7.0,106.0
9078,64.0,4,60,11.0,117.0
9079,39.0,0,30,7.0,106.0
9080,63.0,30,45,7.0,106.0
9081,51.0,26,30,7.0,106.0
9082,63.0,4,60,11.0,117.0
9083,38.0,0,30,7.0,106.0
9084,62.0,30,45,7.0,106.0
9085,50.0,26,30,7.0,106.0
9086,62.0,4,60,11.0,117.0
9087,36.0,30,30,7.0,106.0
9088,60.0,0,30,7.0,106.0
9089,58.0,23,30,7.0,106.0
9090,48.0,0,30,7.0,106.0
9091,60.0,4,60,11.0,117.0
9092,60.0,1,60,12.0,117.0
9093,48.0,2,60,13.0,127.0
9094,57.0,30,30,7.0,106.0
9095,34.0,0,30,7.0,106.0
9096,46.0,0,30,7.0,106.0
9097,55.0,23,30,7.0,106.0
9098,58.0,5,60,12.0,117.0
9099,46.0,2,60,13.0,127.0
9100,33.0,0,30,7.0,106.0
9101,53.0,30,30,7.0,106.0
9102,55.0,0,30,7.0,106.0
9103,45.0,23,30,7.0,106.0
9104,57.0,5,60,12.0,117.0
9105,45.0,2,60,13.0,127.0
9106,31.0,30,30,7.0,106.0
9107,53.0,0,30,7.0,106.0
9108,43.0,0,30,7.0,106.0
9109,52.0,23,30,7.0,106.0
9110,55.0,5,60,12.0,117.0
9111,43.0,2,60,13.0,127.0
9112,53.0,0,24,7.0,106.0
9113,29.0,30,30,7.0,106.0
9114,55.0,17,24,7.0,106.0
9115,41.0,6,30,7.0,106.0
9116,53.0,5,60,12.0,117.0
9117,41.0,2,60,13.0,127.0
9118,57.0,18,24,7.0,106.0
9119,39.0,0,30,7.0,106.0
9120,58.0,5,24,7.0,106.0
9121,60.0,6,24,7.0,106.0
9122,51.0,18,30,7.0,106.0
9123,65.0,12,60,8.0,117.0
9124,51.0,5,60,12.0,117.0
9125,39.0,2,60,13.0,127.0
9126,62.0,0,24,7.0,106.0
9127,38.0,24,30,7.0,106.0
9128,63.0,17,24,7.0,106.0
9129,67.0,0,60,8.0,117.0
9130,50.0,6,30,7.0,106.0
9131,50.0,5,60,12.0,117.0
9132,38.0,2,60,13.0,127.0
9133,65.0,18,24,7.0,106.0
9134,36.0,0,30,7.0,106.0
9135,67.0,5,24,7.0,106.0
9136,69.0,12,60,8.0,117.0
9137,69.0,6,24,7.0,106.0
9138,48.0,18,30,7.0,106.0
9139,63.0,2,60,10.0,112.0
9140,53.0,2,60,11.0,117.0
9141,48.0,1,60,12.0,117.0
9142,36.0,2,60,13.0,127.0
9143,34.0,0,30,7.0,106.0
9144,46.0,0,30,7.0,106.0
9145,70.0,0,45,7.0,106.0
9146,58.0,33,30,7.0,106.0
9147,72.0,20,20,7.0,106.0
9148,70.0,0,20,7.0,106.0
9149,57.0,20,30,7.0,106.0
9150,70.0,24,120,8.0,117.0
9151,69.0,20,20,7.0,106.0
9152,62.0,2,120,10.0,112.0
9153,58.0,2,120,11.0,117.0
9154,46.0,1,120,12.0,117.0
9155,34.0,2,120,13.0,127.0
9156,56.0,20,30,7.0,106.0
9157,70.0,0,45,7.0,106.0
9158,55.0,40,30,7.0,106.0
9159,69.0,20,45,7.0,106.0
9160,72.0,0,45,7.0,106.0
9161,54.0,20,30,7.0,106.0
9162,53.0,0,30,7.0,106.0
9163,52.0,40,30,7.0,106.0
9164,51.0,40,30,7.0,106.0
9165,50.0,0,30,7.0,106.0
9166,70.0,1,45,1.0,98.0
9167,70.0,0,45,2.0,94.0
9168,50.0,0,45,3.0,110.0
9169,58.0,1,45,3.0,110.0
9170,70.0,40,60,8.0,117.0
9171,58.0,1,60,10.0,112.0
9172,58.0,2,60,11.0,117.0
9173,58.0,1,60,12.0,117.0
9174,46.0,1,60,13.0,127.0
9175,49.0,33,30,7.0,106.0
9176,72.0,1,45,1.0,98.0
9177,69.0,0,45,2.0,94.0
9178,48.0,13,30,7.0,106.0
9179,60.0,1,45,3.0,110.0
9180,53.0,0,45,3.0,110.0
9181,70.0,40,240,7.0,127.0
9182,74.0,0,240,7.0,127.0
9183,65.0,20,60,8.0,117.0
9184,65.0,1,60,10.0,112.0
9185,53.0,2,60,11.0,117.0
9186,53.0,1,60,12.0,117.0
9187,41.0,1,60,13.0,127.0
9188,46.0,40,30,7.0,106.0
9189,74.0,0,45,7.0,106.0
9190,70.0,0,45,7.0,106.0
9191,74.0,1,45,1.0,98.0
9192,70.0,1,45,2.0,94.0
9193,58.0,1,45,3.0,110.0
9194,62.0,0,45,3.0,110.0
9195,58.0,33,30,7.0,106.0
9196,75.0,20,20,7.0,106.0
9197,72.0,0,20,7.0,106.0
9198,70.0,0,20,7.0,106.0
9199,74.0,0,20,7.0,106.0
9200,57.0,20,30,7.0,106.0
9201,70.0,0,120,8.0,117.0
9202,69.0,0,20,7.0,106.0
9203,72.0,20,20,7.0,106.0
9204,58.0,0,120,10.0,112.0
9205,58.0,2,120,11.0,117.0
9206,58.0,1,120,12.0,117.0
9207,46.0,1,120,13.0,127.0
9208,56.0,20,30,7.0,106.0
9209,70.0,0,45,7.0,106.0
9210,74.0,0,45,7.0,106.0
9211,55.0,40,30,7.0,106.0
9212,75.0,0,45,7.0,106.0
9213,72.0,20,45,7.0,106.0
9214,54.0,20,30,7.0,106.0
9215,53.0,0,30,7.0,106.0
9216,52.0,40,30,7.0,106.0
9217,51.0,40,30,7.0,106.0
9218,50.0,40,30,7.0,106.0
9219,74.0,1,45,1.0,98.0
9220,70.0,0,45,2.0,94.0
9221,62.0,0,45,3.0,110.0
9222,58.0,1,45,3.0,110.0
9223,70.0,0,60,8.0,117.0
9224,58.0,1,60,10.0,112.0
9225,58.0,2,60,11.0,117.0
9226,58.0,1,60,12.0,117.0
9227,46.0,1,60,13.0,127.0
9228,49.0,33,30,7.0,106.0
9229,75.0,1,45,1.0,98.0
9230,72.0,1,45,2.0,94.0
9231,48.0,13,30,7.0,106.0
9232,63.0,1,45,3.0,110.0
9233,60.0,0,45,3.0,110.0
9234,58.0,20,60,8.0,117.0
9235,77.0,0,240,7.0,127.0
9236,74.0,40,240,7.0,127.0
9237,58.0,0,60,10.0,112.0
9238,58.0,2,60,11.0,117.0
9239,46.0,1,60,12.0,117.0
9240,34.0,1,60,13.0,127.0
9241,46.0,0,30,7.0,106.0
9242,77.0,1,45,1.0,98.0
9243,74.0,0,45,2.0,94.0
9244,62.0,0,45,3.0,110.0
9245,65.0,1,45,3.0,110.0
9246,82.0,0,60,7.0,106.0
9247,58.0,33,30,7.0,106.0
9248,84.0,20,20,7.0,106.0
9249,82.0,20,20,7.0,106.0
9250,57.0,0,30,7.0,106.0
9251,70.0,40,120,8.0,117.0
9252,81.0,20,20,7.0,106.0
9253,58.0,1,120,10.0,112.0
9254,58.0,2,120,11.0,117.0
9255,58.0,1,120,12.0,117.0
9256,46.0,1,120,13.0,127.0
9257,56.0,0,30,7.0,106.0
9258,82.0,20,45,7.0,106.0
9259,55.0,40,30,7.0,106.0
9260,84.0,20,45,7.0,106.0
9261,54.0,20,30,7.0,106.0
9262,53.0,0,30,7.0,106.0
9263,86.0,0,60,7.0,106.0
9264,82.0,40,60,7.0,106.0
9265,52.0,40,30,7.0,106.0
9266,87.0,0,20,7.0,106.0
9267,84.0,20,20,7.0,106.0
9268,86.0,20,20,7.0,106.0
9269,82.0,0,20,7.0,106.0
9270,51.0,0,30,7.0,106.0
9271,81.0,0,20,7.0,106.0
9272,84.0,20,20,7.0,106.0
9273,50.0,0,30,7.0,106.0
9274,86.0,0,45,7.0,106.0
9275,82.0,20,45,7.0,106.0
9276,49.0,40,30,7.0,106.0
9277,84.0,0,45,7.0,106.0
9278,87.0,20,45,7.0,106.0
9279,48.0,20,30,7.0,106.0
9280,46.0,40,30,7.0,106.0
9281,50.0,30,30,7.0,106.0
9282,91.0,0,60,7.0,106.0
9283,87.0,0,60,7.0,106.0
9284,53.0,0,30,7.0,106.0
9285,58.0,30,30,7.0,106.0
9286,89.0,30,60,7.0,106.0
9287,86.0,0,60,7.0,106.0
9288,46.0,30,30,7.0,106.0
9289,87.0,0,45,7.0,106.0
9290,84.0,0,45,7.0,106.0
9291,50.0,23,30,7.0,106.0
9292,53.0,0,30,7.0,106.0
9293,86.0,30,45,7.0,106.0
9294,82.0,0,45,7.0,106.0
9295,58.0,0,120,8.0,117.0
9296,58.0,30,30,7.0,106.0
9297,46.0,5,120,12.0,117.0
9298,34.0,2,120,13.0,127.0
9299,48.0,0,30,7.0,106.0
9300,51.0,23,30,7.0,106.0
9301,86.0,0,60,7.0,106.0
9302,82.0,0,60,7.0,106.0
9303,56.0,0,30,7.0,106.0
9304,60.0,30,30,7.0,106.0
9305,84.0,30,60,7.0,106.0
9306,60.0,30,120,8.0,117.0
9307,80.0,0,60,7.0,106.0
9308,48.0,5,120,12.0,117.0
9309,36.0,2,120,13.0,127.0
9310,50.0,0,30,7.0,106.0
9311,82.0,0,45,7.0,106.0
9312,79.0,0,45,7.0,106.0
9313,53.0,23,30,7.0,106.0
9314,58.0,0,30,7.0,106.0
9315,80.0,0,45,7.0,106.0
9316,77.0,30,45,7.0,106.0
9317,62.0,30,30,7.0,106.0
9318,62.0,30,120,8.0,117.0
9319,50.0,5,120,12.0,117.0
9320,38.0,2,120,13.0,127.0
9321,39.0,0,30,7.0,106.0
9322,51.0,0,30,7.0,106.0
9323,75.0,0,45,7.0,106.0
9324,72.0,0,45,7.0,106.0
9325,63.0,33,30,7.0,106.0
9326,77.0,20,20,7.0,106.0
9327,75.0,0,20,7.0,106.0
9328,62.0,20,30,7.0,106.0
9329,63.0,30,120,8.0,117.0
9330,74.0,20,20,7.0,106.0
9331,51.0,5,120,12.0,117.0
9332,39.0,2,120,13.0,127.0
9333,61.0,0,30,7.0,106.0
9334,67.0,20,45,7.0,106.0
9335,75.0,0,45,7.0,106.0
9336,60.0,40,30,7.0,106.0
9337,77.0,0,45,7.0,106.0
9338,70.0,20,45,7.0,106.0
9339,59.0,20,30,7.0,106.0
9340,58.0,0,30,7.0,106.0
9341,57.0,40,30,7.0,106.0
9342,56.0,40,30,7.0,106.0
9343,55.0,40,30,7.0,106.0
9344,75.0,0,45,0.0,94.0
9345,67.0,1,45,1.0,98.0
9346,63.0,0,45,4.0,107.0
9347,55.0,0,45,4.0,107.0
9348,75.0,0,60,8.0,117.0
9349,63.0,1,60,10.0,112.0
9350,63.0,3,60,12.0,117.0
9351,51.0,2,60,13.0,127.0
9352,54.0,33,30,7.0,106.0
9353,77.0,0,45,0.0,94.0
9354,70.0,1,45,1.0,98.0
9355,65.0,1,45,4.0,107.0
9356,58.0,0,45,4.0,107.0
9357,53.0,13,30,7.0,106.0
9358,70.0,20,60,8.0,117.0
9359,75.0,0,240,7.0,127.0
9360,79.0,0,0,7.0,106.0
9361,58.0,0,60,10.0,112.0
9362,58.0,3,60,12.0,117.0
9363,46.0,2,60,13.0,127.0
9364,51.0,40,30,7.0,106.0
9365,75.0,0,45,7.0,106.0
9366,79.0,0,45,0.0,94.0
9367,75.0,1,45,1.0,98.0
9368,63.0,0,45,4.0,107.0
9369,67.0,0,45,4.0,107.0
9370,63.0,33,30,7.0,106.0
9371,80.0,0,20,7.0,106.0
9372,77.0,20,20,7.0,106.0
9373,75.0,0,20,7.0,106.0
9374,79.0,0,20,7.0,106.0
9375,62.0,20,30,7.0,106.0
9376,75.0,0,120,8.0,117.0
9377,77.0,0,20,7.0,106.0
9378,74.0,20,20,7.0,106.0
9379,63.0,1,120,10.0,112.0
9380,63.0,3,120,12.0,117.0
9381,51.0,2,120,13.0,127.0
9382,61.0,0,30,7.0,106.0
9383,79.0,20,45,7.0,106.0
9384,75.0,0,45,7.0,106.0
9385,60.0,40,30,7.0,106.0
9386,77.0,20,45,7.0,106.0
9387,80.0,0,45,7.0,106.0
9388,59.0,20,30,7.0,106.0
9389,58.0,0,30,7.0,106.0
9390,57.0,40,30,7.0,106.0
9391,56.0,40,30,7.0,106.0
9392,55.0,40,30,7.0,106.0
9393,79.0,0,45,0.0,94.0
9394,75.0,1,45,1.0,98.0
9395,67.0,0,45,4.0,107.0
9396,63.0,1,45,4.0,107.0
9397,75.0,0,60,8.0,117.0
9398,63.0,0,60,10.0,112.0
9399,63.0,3,60,12.0,117.0
9400,51.0,2,60,13.0,127.0
9401,54.0,33,30,7.0,106.0
9402,80.0,20,45,0.0,94.0
9403,77.0,1,45,1.0,98.0
9404,65.0,0,45,4.0,107.0
9405,68.0,1,45,4.0,107.0
9406,53.0,13,30,7.0,106.0
9407,82.0,0,240,7.0,127.0
9408,79.0,40,240,7.0,127.0
9409,63.0,0,60,8.0,117.0
9410,63.0,0,0,10.0,112.0
9411,51.0,3,60,12.0,117.0
9412,39.0,2,60,13.0,127.0
9413,51.0,40,30,7.0,106.0
9414,82.0,0,45,0.0,94.0
9415,79.0,1,45,1.0,98.0
9416,67.0,0,45,4.0,107.0
9417,70.0,1,45,4.0,107.0
9418,75.0,0,60,7.0,106.0
9419,51.0,33,30,7.0,106.0
9420,77.0,20,20,7.0,106.0
9421,75.0,20,20,7.0,106.0
9422,50.0,0,30,7.0,106.0
9423,75.0,0,120,8.0,117.0
9424,74.0,20,20,7.0,106.0
9425,63.0,3,120,12.0,117.0
9426,51.0,2,120,13.0,127.0
9427,49.0,20,30,7.0,106.0
9428,75.0,0,45,7.0,106.0
9429,48.0,40,30,7.0,106.0
9430,77.0,20,45,7.0,106.0
9431,47.0,20,30,7.0,106.0
9432,46.0,0,30,7.0,106.0
9433,79.0,0,60,7.0,106.0
9434,75.0,40,60,7.0,106.0
9435,45.0,40,30,7.0,106.0
9436,80.0,20,20,7.0,106.0
9437,77.0,0,20,7.0,106.0
9438,75.0,0,20,7.0,106.0
9439,79.0,0,20,7.0,106.0
9440,44.0,20,30,7.0,106.0
9441,74.0,0,20,7.0,106.0
9442,77.0,20,20,7.0,106.0
9443,43.0,0,30,7.0,106.0
9444,75.0,20,45,7.0,106.0
9445,79.0,0,45,7.0,106.0
9446,42.0,40,30,7.0,106.0
9447,80.0,20,45,7.0,106.0
9448,77.0,0,45,7.0,106.0
9449,41.0,20,30,7.0,106.0
9450,39.0,40,30,7.0,106.0
9451,43.0,30,30,7.0,106.0
9452,79.0,0,60,7.0,106.0
9453,82.0,0,60,7.0,106.0
9454,80.0,0,20,7.0,106.0
9455,84.0,30,20,7.0,106.0
9456,46.0,0,30,7.0,106.0
9457,82.0,0,20,7.0,106.0
9458,79.0,20,20,7.0,106.0
9459,80.0,0,20,7.0,106.0
9460,77.0,10,20,7.0,106.0
9461,51.0,10,30,7.0,106.0
9462,43.0,0,30,7.0,106.0
9463,82.0,20,45,7.0,106.0
9464,79.0,0,45,7.0,106.0
9465,46.0,30,30,7.0,106.0
9466,51.0,30,30,7.0,106.0
9467,86.0,0,45,7.0,106.0
9468,77.0,0,45,7.0,106.0
9469,55.0,30,30,7.0,106.0
9470,46.0,0,30,7.0,106.0
9471,79.0,30,45,7.0,106.0
9472,87.0,0,45,7.0,106.0
9473,51.0,30,30,7.0,106.0
9474,55.0,0,30,7.0,106.0
9475,79.0,0,45,7.0,106.0
9476,87.0,30,45,7.0,106.0
9477,58.0,30,30,7.0,106.0
9478,51.0,0,30,7.0,106.0
9479,79.0,30,45,7.0,106.0
9480,87.0,0,45,7.0,106.0
9481,55.0,30,30,7.0,106.0
9482,58.0,0,30,7.0,106.0
9483,79.0,30,45,7.0,106.0
9484,87.0,0,45,7.0,106.0
9485,63.0,30,30,7.0,106.0
9486,48.0,0,30,7.0,106.0
9487,75.0,0,45,7.0,106.0
9488,87.0,0,45,7.0,106.0
9489,60.0,33,30,7.0,106.0
9490,86.0,20,20,7.0,106.0
9491,84.0,0,20,7.0,106.0
9492,59.0,20,30,7.0,106.0
9493,83.0,20,20,7.0,106.0
9494,60.0,30,120,8.0,117.0
9495,60.0,2,120,10.0,112.0
9496,48.0,2,120,11.0,117.0
9497,48.0,1,120,12.0,117.0
9498,36.0,2,120,13.0,127.0
9499,58.0,0,30,7.0,106.0
9500,75.0,0,45,7.0,106.0
9501,84.0,20,45,7.0,106.0
9502,57.0,40,30,7.0,106.0
9503,86.0,0,45,7.0,106.0
9504,83.0,20,45,7.0,106.0
9505,56.0,20,30,7.0,106.0
9506,55.0,0,30,7.0,106.0
9507,54.0,40,30,7.0,106.0
9508,53.0,40,30,7.0,106.0
9509,52.0,0,30,7.0,106.0
9510,72.0,40,60,8.0,117.0
9511,72.0,1,60,1.0,98.0
9512,60.0,1,60,10.0,112.0
9513,72.0,0,60,2.0,94.0
9514,48.0,2,60,11.0,117.0
9515,60.0,1,60,12.0,117.0
9516,60.0,1,60,3.0,110.0
9517,48.0,1,60,13.0,127.0
9518,51.0,33,30,7.0,106.0
9519,50.0,13,30,7.0,106.0
9520,67.0,20,60,8.0,117.0
9521,87.0,40,240,7.0,127.0
9522,84.0,0,240,7.0,127.0
9523,74.0,1,60,1.0,98.0
9524,55.0,1,60,10.0,112.0
9525,71.0,0,60,2.0,94.0
9526,55.0,2,60,11.0,117.0
9527,55.0,1,60,12.0,117.0
9528,59.0,0,60,3.0,110.0
9529,62.0,1,60,3.0,110.0
9530,43.0,1,60,13.0,127.0
9531,48.0,0,30,7.0,106.0
9532,75.0,1,60,1.0,98.0
9533,72.0,1,60,2.0,94.0
9534,63.0,1,60,3.0,110.0
9535,60.0,0,60,3.0,110.0
9536,60.0,33,30,7.0,106.0
9537,86.0,20,20,7.0,106.0
9538,84.0,20,20,7.0,106.0
9539,59.0,0,30,7.0,106.0
9540,72.0,40,120,8.0,117.0
9541,83.0,20,20,7.0,106.0
9542,60.0,0,120,10.0,112.0
9543,48.0,2,120,11.0,117.0
9544,60.0,1,120,12.0,117.0
9545,48.0,1,120,13.0,127.0
9546,58.0,20,30,7.0,106.0
9547,84.0,0,45,7.0,106.0
9548,57.0,40,30,7.0,106.0
9549,86.0,20,45,7.0,106.0
9550,83.0,0,45,7.0,106.0
9551,56.0,20,30,7.0,106.0
9552,55.0,40,30,7.0,106.0
9553,84.0,0,45,7.0,106.0
9554,87.0,0,45,7.0,106.0
9555,53.0,40,30,7.0,106.0
9556,74.0,20,20,7.0,106.0
9557,72.0,0,20,7.0,106.0
9558,51.0,20,30,7.0,106.0
9559,71.0,20,20,7.0,106.0
9560,50.0,0,30,7.0,106.0
9561,72.0,20,45,7.0,106.0
9562,72.0,0,60,8.0,117.0
9563,75.0,1,60,1.0,98.0
9564,60.0,0,60,10.0,112.0
9565,72.0,1,60,2.0,94.0
9566,60.0,2,60,11.0,117.0
9567,60.0,1,60,12.0,117.0
9568,63.0,0,60,3.0,110.0
9569,60.0,1,60,3.0,110.0
9570,48.0,1,60,13.0,127.0
9571,48.0,33,30,7.0,106.0
9572,74.0,0,45,7.0,106.0
9573,46.0,13,30,7.0,106.0
9574,70.0,20,60,8.0,117.0
9575,75.0,1,60,1.0,98.0
9576,72.0,0,0,2.0,94.0
9577,58.0,1,60,10.0,112.0
9578,58.0,2,60,11.0,117.0
9579,58.0,1,60,12.0,117.0
9580,63.0,1,0,3.0,110.0
9581,60.0,0,0,3.0,110.0
9582,46.0,1,60,13.0,127.0
9583,45.0,40,30,7.0,106.0
9584,75.0,0,45,7.0,106.0
9585,48.0,23,30,7.0,106.0
9586,86.0,30,20,7.0,106.0
9587,51.0,0,30,7.0,106.0
9588,84.0,20,20,7.0,106.0
9589,57.0,10,30,7.0,106.0
9590,69.0,0,120,8.0,117.0
9591,83.0,10,20,7.0,106.0
9592,75.0,1,120,1.0,98.0
9593,72.0,0,0,2.0,94.0
9594,57.0,1,120,10.0,112.0
9595,57.0,2,120,11.0,117.0
9596,57.0,1,120,12.0,117.0
9597,63.0,1,0,3.0,110.0
9598,60.0,0,0,3.0,110.0
9599,45.0,1,120,13.0,127.0
9600,43.0,20,30,7.0,106.0
9601,84.0,0,45,7.0,106.0
9602,72.0,0,45,7.0,106.0
9603,48.0,23,30,7.0,106.0
9604,67.0,0,60,8.0,117.0
9605,75.0,1,0,1.0,98.0
9606,67.0,1,60,10.0,112.0
9607,55.0,2,0,11.0,117.0
9608,55.0,1,60,12.0,117.0
9609,63.0,0,0,3.0,110.0
9610,43.0,1,60,13.0,127.0
9611,51.0,30,30,7.0,106.0
9612,74.0,0,45,7.0,106.0
9613,86.0,0,45,7.0,106.0
9614,55.0,23,30,7.0,106.0
9615,67.0,0,60,8.0,117.0
9616,72.0,1,60,2.0,94.0
9617,67.0,0,60,10.0,112.0
9618,55.0,1,60,12.0,117.0
9619,60.0,1,0,3.0,110.0
9620,63.0,0,0,3.0,110.0
9621,43.0,1,60,13.0,127.0
9622,41.0,0,30,7.0,106.0
9623,75.0,30,45,7.0,106.0
9624,87.0,0,45,7.0,106.0
9625,45.0,23,30,7.0,106.0
9626,48.0,0,30,7.0,106.0
9627,77.0,30,45,7.0,106.0
9628,89.0,0,45,7.0,106.0
9629,53.0,30,30,7.0,106.0
9630,65.0,0,120,8.0,117.0
9631,75.0,1,120,1.0,98.0
9632,65.0,1,120,10.0,112.0
9633,72.0,0,120,2.0,94.0
9634,53.0,2,120,11.0,117.0
9635,53.0,1,120,12.0,117.0
9636,63.0,1,0,3.0,110.0
9637,41.0,1,120,13.0,127.0
9638,42.0,0,30,7.0,106.0
9639,91.0,0,45,7.0,106.0
9640,79.0,30,45,7.0,106.0
9641,45.0,23,30,7.0,106.0
9642,66.0,0,60,8.0,117.0
9643,75.0,1,0,1.0,98.0
9644,72.0,1,60,2.0,94.0
9645,54.0,2,60,11.0,117.0
9646,54.0,1,0,12.0,117.0
9647,60.0,0,0,3.0,110.0
9648,63.0,1,0,3.0,110.0
9649,42.0,1,0,13.0,127.0
9650,48.0,30,30,7.0,106.0
9651,93.0,0,45,7.0,106.0
9652,81.0,0,45,7.0,106.0
9653,66.0,0,60,8.0,117.0
9654,54.0,23,30,7.0,106.0
9655,72.0,1,60,2.0,94.0
9656,54.0,2,60,11.0,117.0
9657,82.0,0,60,7.0,106.0
9658,94.0,0,60,7.0,106.0
9659,43.0,0,60,7.0,106.0
9660,74.0,1,60,1.0,98.0
9661,70.0,1,60,2.0,94.0
9662,58.0,0,60,3.0,110.0
9663,62.0,1,60,3.0,110.0
9664,55.0,0,30,7.0,106.0
9665,67.0,30,120,8.0,117.0
9666,54.0,30,30,7.0,106.0
9667,55.0,2,120,11.0,117.0
9668,55.0,1,120,12.0,117.0
9669,43.0,1,120,13.0,127.0
9670,57.0,30,30,7.0,106.0
9671,55.0,30,30,7.0,106.0
9672,82.0,53,120,7.0,106.0
9673,94.0,0,120,7.0,106.0
9674,58.0,30,30,7.0,106.0
9675,57.0,30,30,7.0,106.0
9676,60.0,30,30,7.0,106.0
9677,93.0,0,120,7.0,106.0
9678,58.0,30,30,7.0,106.0
9679,81.0,0,120,7.0,106.0
9680,62.0,30,30,7.0,106.0
9681,61.0,30,30,7.0,106.0
9682,63.0,30,30,7.0,106.0
9683,62.0,30,30,7.0,106.0
9684,92.0,0,120,7.0,106.0
9685,80.0,0,120,7.0,106.0
9686,64.0,30,30,7.0,106.0
9687,63.0,30,30,7.0,106.0
9688,65.0,30,30,7.0,106.0
9689,64.0,30,30,7.0,106.0
9690,79.0,0,120,7.0,106.0
9691,91.0,0,120,7.0,106.0
9692,66.0,30,30,7.0,106.0
9693,65.0,30,30,7.0,106.0
9694,67.0,30,30,7.0,106.0
9695,78.0,0,120,7.0,106.0
9696,66.0,30,30,7.0,106.0
9697,90.0,0,120,7.0,106.0
9698,67.0,0,30,7.0,106.0
9699,66.0,30,30,7.0,106.0
9700,67.0,30,30,7.0,106.0
9701,66.0,30,30,7.0,106.0
9702,77.0,30,120,7.0,106.0
9703,89.0,0,120,7.0,106.0
9704,67.0,30,30,7.0,106.0
9705,88.0,0,45,7.0,106.0
9706,76.0,0,45,7.0,106.0
9707,66.0,30,30,7.0,106.0
9708,67.0,0,30,7.0,106.0
9709,75.0,0,45,7.0,106.0
9710,87.0,0,45,7.0,106.0
9711,62.0,23,30,7.0,106.0
9712,67.0,30,60,8.0,117.0
9713,74.0,1,60,1.0,98.0
9714,55.0,1,60,10.0,112.0
9715,70.0,0,60,2.0,94.0
9716,55.0,2,0,11.0,117.0
9717,55.0,1,60,12.0,117.0
9718,62.0,1,60,3.0,110.0
9719,58.0,0,60,3.0,110.0
9720,43.0,1,60,13.0,127.0
9721,58.0,30,30,7.0,106.0
9722,74.0,0,45,7.0,106.0
9723,86.0,0,45,7.0,106.0
9724,55.0,23,30,7.0,106.0
9725,55.0,0,60,8.0,117.0
9726,74.0,1,60,1.0,98.0
9727,70.0,1,60,2.0,94.0
9728,55.0,0,60,10.0,112.0
9729,43.0,1,60,12.0,117.0
9730,62.0,0,60,3.0,110.0
9731,58.0,1,60,3.0,110.0
9732,31.0,1,60,13.0,127.0
9733,91.0,0,60,7.0,106.0
9734,79.0,0,60,7.0,106.0
9735,51.0,0,60,7.0,106.0
9736,63.0,53,30,7.0,106.0
9737,63.0,30,120,8.0,117.0
9738,62.0,30,30,7.0,106.0
9739,79.0,1,120,1.0,98.0
9740,70.0,0,120,2.0,94.0
9741,63.0,1,120,10.0,112.0
9742,51.0,2,120,11.0,117.0
9743,51.0,1,120,12.0,117.0
9744,67.0,1,120,3.0,110.0
9745,63.0,0,120,3.0,110.0
9746,39.0,1,120,13.0,127.0
9747,65.0,30,30,7.0,106.0
9748,63.0,30,30,7.0,106.0
9749,79.0,0,120,7.0,106.0
9750,91.0,0,120,7.0,106.0
9751,67.0,0,30,7.0,106.0
9752,66.0,30,30,7.0,106.0
9753,69.0,30,30,7.0,106.0
9754,67.0,30,30,7.0,106.0
9755,90.0,0,120,7.0,106.0
9756,78.0,30,120,7.0,106.0
9757,71.0,0,30,7.0,106.0
9758,69.0,30,30,7.0,106.0
9759,72.0,30,30,7.0,106.0
9760,89.0,0,120,7.0,106.0
9761,71.0,30,30,7.0,106.0
9762,77.0,30,120,7.0,106.0
9763,73.0,30,30,7.0,106.0
9764,72.0,30,30,7.0,106.0
9765,74.0,30,30,7.0,106.0
9766,88.0,0,120,7.0,106.0
9767,76.0,0,120,7.0,106.0
9768,73.0,30,30,7.0,106.0
9769,75.0,0,30,7.0,106.0
9770,74.0,30,30,7.0,106.0
9771,75.0,30,30,7.0,106.0
9772,87.0,30,120,7.0,106.0
9773,74.0,30,30,7.0,106.0
9774,75.0,30,30,7.0,106.0
9775,74.0,30,30,7.0,106.0
9776,86.0,0,60,7.0,106.0
9777,75.0,30,30,7.0,106.0
9778,74.0,30,30,7.0,106.0
9779,89.0,0,60,7.0,106.0
9780,75.0,0,30,7.0,106.0
9781,87.0,30,60,7.0,106.0
9782,74.0,30,30,7.0,106.0
9783,75.0,0,30,7.0,106.0
9784,86.0,0,45,7.0,106.0
9785,72.0,23,30,7.0,106.0
9786,75.0,30,60,8.0,117.0
9787,79.0,1,0,1.0,98.0
9788,70.0,0,60,2.0,94.0
9789,63.0,1,60,10.0,112.0
9790,63.0,2,60,11.0,117.0
9791,63.0,1,60,12.0,117.0
9792,63.0,0,60,3.0,110.0
9793,67.0,1,60,3.0,110.0
9794,51.0,1,60,13.0,127.0
9795,67.0,30,30,7.0,106.0
9796,84.0,0,45,7.0,106.0
9797,63.0,23,30,7.0,106.0
9798,63.0,0,60,8.0,117.0
9799,70.0,1,60,2.0,94.0
9800,63.0,0,60,10.0,112.0
9801,51.0,2,60,11.0,117.0
9802,51.0,1,60,12.0,117.0
9803,63.0,0,60,3.0,110.0
9804,67.0,1,60,3.0,110.0
9805,39.0,1,60,13.0,127.0
9806,51.0,30,60,7.0,106.0
9807,70.0,1,60,1.0,98.0
9808,74.0,0,60,2.0,94.0
9809,58.0,0,60,3.0,110.0
9810,62.0,1,60,3.0,110.0
9811,89.0,0,30,7.0,106.0
9812,65.0,53,30,7.0,106.0
9813,62.0,0,30,7.0,106.0
9814,86.0,24,30,7.0,106.0
9815,65.0,0,120,8.0,117.0
9816,65.0,1,120,10.0,112.0
9817,53.0,2,120,11.0,117.0
9818,53.0,1,120,12.0,117.0
9819,41.0,1,120,13.0,127.0
9820,65.0,0,30,7.0,106.0
9821,89.0,30,30,7.0,106.0
9822,62.0,0,30,7.0,106.0
9823,86.0,30,30,7.0,106.0
9824,77.0,2,0,2.0,94.0
9825,62.0,4,120,3.0,110.0
9826,58.0,0,30,7.0,106.0
9827,82.0,30,30,7.0,106.0
9828,62.0,0,30,7.0,106.0
9829,86.0,24,30,7.0,106.0
9830,82.0,0,30,7.0,106.0
9831,58.0,30,30,7.0,106.0
9832,86.0,0,30,7.0,106.0
9833,62.0,30,30,7.0,106.0
9834,62.0,4,120,3.0,110.0
9835,53.0,0,30,7.0,106.0
9836,77.0,30,30,7.0,106.0
9837,82.0,0,30,7.0,106.0
9838,58.0,24,30,7.0,106.0
9839,53.0,0,30,7.0,106.0
9840,77.0,30,30,7.0,106.0
9841,58.0,0,30,7.0,106.0
9842,82.0,30,30,7.0,106.0
9843,75.0,2,120,2.0,94.0
9844,60.0,4,120,3.0,110.0
9845,74.0,30,30,7.0,106.0
9846,50.0,0,30,7.0,106.0
9847,77.0,24,30,7.0,106.0
9848,53.0,0,30,7.0,106.0
9849,74.0,2,60,2.0,94.0
9850,58.0,4,0,3.0,110.0
9851,74.0,0,30,7.0,106.0
9852,50.0,30,30,7.0,106.0
9853,53.0,24,30,7.0,106.0
9854,77.0,0,30,7.0,106.0
9855,46.0,30,30,7.0,106.0
9856,70.0,0,30,7.0,106.0
9857,74.0,30,30,7.0,106.0
9858,50.0,0,30,7.0,106.0
9859,70.0,0,30,7.0,106.0
9860,46.0,30,30,7.0,106.0
9861,50.0,30,30,7.0,106.0
9862,74.0,0,30,7.0,106.0
9863,65.0,30,30,7.0,106.0
9864,41.0,0,30,7.0,106.0
9865,46.0,30,30,7.0,106.0
9866,70.0,0,30,7.0,106.0
9867,65.0,30,30,7.0,106.0
9868,41.0,0,30,7.0,106.0
9869,70.0,0,30,7.0,106.0
9870,46.0,30,30,7.0,106.0
9871,62.0,30,30,7.0,106.0
9872,38.0,0,30,7.0,106.0
9873,65.0,0,30,7.0,106.0
9874,41.0,30,30,7.0,106.0
9875,38.0,30,30,7.0,106.0
9876,62.0,0,30,7.0,106.0
9877,77.0,0,60,8.0,117.0
9878,41.0,0,30,7.0,106.0
9879,65.0,23,30,7.0,106.0
9880,65.0,2,0,10.0,112.0
9881,65.0,2,60,11.0,117.0
9882,65.0,1,60,12.0,117.0
9883,53.0,2,60,13.0,127.0
9884,34.0,0,30,7.0,106.0
9885,58.0,0,30,7.0,106.0
9886,38.0,23,30,7.0,106.0
9887,62.0,0,30,7.0,106.0
9888,65.0,30,0,8.0,117.0
9889,65.0,2,0,10.0,112.0
9890,53.0,2,60,11.0,117.0
9891,53.0,1,0,12.0,117.0
9892,41.0,2,60,13.0,127.0
9893,29.0,0,60,7.0,106.0
9894,74.0,2,540,2.0,94.0
9895,65.0,0,30,7.0,106.0
9896,89.0,53,30,7.0,106.0
9897,85.0,0,30,7.0,106.0
9898,61.0,24,30,7.0,106.0
9899,53.0,2,120,11.0,117.0
9900,41.0,2,120,13.0,127.0
9901,89.0,30,30,7.0,106.0
9902,65.0,0,30,7.0,106.0
9903,61.0,0,30,7.0,106.0
9904,85.0,30,30,7.0,106.0
9905,77.0,2,0,2.0,94.0
9906,62.0,4,0,3.0,110.0
9907,82.0,0,30,7.0,106.0
9908,58.0,30,30,7.0,106.0
9909,61.0,0,30,7.0,106.0
9910,85.0,24,30,7.0,106.0
9911,82.0,0,30,7.0,106.0
9912,58.0,30,30,7.0,106.0
9913,61.0,30,30,7.0,106.0
9914,85.0,0,30,7.0,106.0
9915,77.0,0,30,7.0,106.0
9916,53.0,30,30,7.0,106.0
9917,82.0,24,30,7.0,106.0
9918,58.0,0,30,7.0,106.0
9919,77.0,30,30,7.0,106.0
9920,53.0,0,30,7.0,106.0
9921,82.0,0,30,7.0,106.0
9922,58.0,30,30,7.0,106.0
9923,75.0,2,120,2.0,94.0
9924,60.0,4,120,3.0,110.0
9925,49.0,30,30,7.0,106.0
9926,73.0,0,30,7.0,106.0
9927,53.0,0,30,7.0,106.0
9928,77.0,24,30,7.0,106.0
9929,73.0,2,0,2.0,94.0
9930,58.0,4,60,3.0,110.0
9931,73.0,30,30,7.0,106.0
9932,49.0,0,30,7.0,106.0
9933,53.0,24,30,7.0,106.0
9934,77.0,0,30,7.0,106.0
9935,70.0,30,30,7.0,106.0
9936,46.0,0,30,7.0,106.0
9937,73.0,0,30,7.0,106.0
9938,49.0,30,30,7.0,106.0
9939,70.0,0,30,7.0,106.0
9940,46.0,30,30,7.0,106.0
9941,49.0,0,30,7.0,106.0
9942,73.0,30,30,7.0,106.0
9943,65.0,0,30,7.0,106.0
9944,41.0,30,30,7.0,106.0
9945,46.0,30,30,7.0,106.0
9946,70.0,0,30,7.0,106.0
9947,65.0,30,30,7.0,106.0
9948,41.0,0,30,7.0,106.0
9949,46.0,30,30,7.0,106.0
9950,70.0,0,30,7.0,106.0
9951,37.0,30,30,7.0,106.0
9952,61.0,0,30,7.0,106.0
9953,41.0,0,30,7.0,106.0
9954,65.0,30,30,7.0,106.0
9955,61.0,0,30,7.0,106.0
9956,37.0,0,30,7.0,106.0
9957,65.0,23,30,7.0,106.0
9958,41.0,0,30,7.0,106.0
9959,77.0,30,60,8.0,117.0
9960,65.0,2,60,10.0,112.0
9961,65.0,2,60,11.0,117.0
9962,65.0,1,60,12.0,117.0
9963,53.0,2,60,13.0,127.0
9964,58.0,0,30,7.0,106.0
9965,34.0,0,30,7.0,106.0
9966,61.0,23,30,7.0,106.0
9967,65.0,30,60,8.0,117.0
9968,37.0,0,30,7.0,106.0
9969,65.0,2,60,10.0,112.0
9970,53.0,2,60,11.0,117.0
9971,53.0,1,60,12.0,117.0
9972,41.0,2,60,13.0,127.0
9973,54.0,0,30,7.0,106.0
9974,40.0,30,30,7.0,106.0
9975,49.0,23,30,7.0,106.0
9976,46.0,0,30,7.0,106.0
9977,61.0,0,30,7.0,106.0
9978,52.0,0,30,7.0,106.0
9979,58.0,30,30,7.0,106.0
9980,64.0,0,120,8.0,117.0
9981,61.0,0,30,7.0,106.0
9982,49.0,0,30,7.0,106.0
9983,46.0,30,30,7.0,106.0
9984,64.0,2,120,10.0,112.0
9985,52.0,2,120,11.0,117.0
9986,52.0,1,120,12.0,117.0
9987,58.0,4,600,3.0,110.0
9988,40.0,2,120,13.0,127.0
9989,52.0,30,30,7.0,106.0
9990,66.0,0,30,7.0,106.0
9991,61.0,0,30,7.0,106.0
9992,49.0,30,30,7.0,106.0
9993,46.0,0,30,7.0,106.0
9994,58.0,0,30,7.0,106.0
9995,52.0,30,30,7.0,106.0
9996,46.0,0,30,7.0,106.0
9997,49.0,30,30,7.0,106.0
9998,61.0,0,30,7.0,106.0
9999,58.0,0,30,7.0,106.0
10000,37.0,30,30,7.0,106.0
10001,46.0,23,30,7.0,106.0
10002,66.0,0,30,7.0,106.0
10003,49.0,0,30,7.0,106.0
10004,61.0,30,30,7.0,106.0
10005,52.0,0,30,7.0,106.0
10006,49.0,0,30,7.0,106.0
10007,61.0,0,120,8.0,117.0
10008,46.0,30,30,7.0,106.0
10009,66.0,0,30,7.0,106.0
10010,49.0,5,120,12.0,117.0
10011,37.0,2,120,13.0,127.0
10012,52.0,30,30,7.0,106.0
10013,70.0,0,30,7.0,106.0
10014,49.0,30,30,7.0,106.0
10015,46.0,0,30,7.0,106.0
10016,66.0,0,30,7.0,106.0
10017,61.0,30,30,7.0,106.0
10018,52.0,0,30,7.0,106.0
10019,66.0,0,30,7.0,106.0
10020,46.0,0,30,7.0,106.0
10021,49.0,30,30,7.0,106.0
10022,61.0,30,30,7.0,106.0
10023,34.0,0,30,7.0,106.0
10024,46.0,0,30,7.0,106.0
10025,49.0,23,30,7.0,106.0
10026,70.0,0,30,7.0,106.0
10027,52.0,30,30,7.0,106.0
10028,66.0,0,30,7.0,106.0
10029,70.0,0,30,7.0,106.0
10030,46.0,0,30,7.0,106.0
10031,49.0,30,30,7.0,106.0
10032,58.0,0,120,8.0,117.0
10033,46.0,5,120,12.0,117.0
10034,34.0,2,120,13.0,127.0
10035,52.0,30,30,7.0,106.0
10036,73.0,0,30,7.0,106.0
10037,49.0,0,30,7.0,106.0
10038,70.0,30,30,7.0,106.0
10039,46.0,0,30,7.0,106.0
10040,52.0,30,30,7.0,106.0
10041,66.0,0,30,7.0,106.0
10042,70.0,0,30,7.0,106.0
10043,46.0,0,30,7.0,106.0
10044,49.0,30,30,7.0,106.0
10045,66.0,0,30,7.0,106.0
10046,40.0,0,30,7.0,106.0
10047,49.0,23,30,7.0,106.0
10048,46.0,0,30,7.0,106.0
10049,73.0,0,30,7.0,106.0
10050,52.0,0,30,7.0,106.0
10051,70.0,30,30,7.0,106.0
10052,78.0,30,30,7.0,106.0
10053,46.0,0,30,7.0,106.0
10054,49.0,0,30,7.0,106.0
10055,52.0,1,120,12.0,117.0
10056,40.0,2,120,13.0,127.0
10057,52.0,0,30,7.0,106.0
10058,70.0,30,30,7.0,106.0
10059,46.0,0,30,7.0,106.0
10060,78.0,30,30,7.0,106.0
10061,49.0,0,30,7.0,106.0
10062,52.0,0,30,7.0,106.0
10063,73.0,30,30,7.0,106.0
10064,82.0,30,30,7.0,106.0
10065,46.0,0,30,7.0,106.0
10066,49.0,0,30,7.0,106.0
10067,39.0,30,30,7.0,106.0
10068,71.0,0,30,7.0,106.0
10069,51.0,5,30,12.0,117.0
10070,83.0,0,30,7.0,106.0
10071,42.0,23,30,7.0,106.0
10072,51.0,5,30,12.0,117.0
10073,47.0,0,30,7.0,106.0
10074,70.0,25,30,7.0,106.0
10075,51.0,5,30,12.0,117.0
10076,82.0,25,30,7.0,106.0
10077,51.0,0,30,7.0,106.0
10078,51.0,5,0,12.0,117.0
10079,39.0,2,120,13.0,127.0
10080,39.0,0,30,7.0,106.0
10081,68.0,25,30,7.0,106.0
10082,51.0,5,0,12.0,117.0
10083,42.0,0,30,7.0,106.0
10084,80.0,25,30,7.0,106.0
10085,51.0,5,0,12.0,117.0
10086,47.0,0,30,7.0,106.0
10087,66.0,25,30,7.0,106.0
10088,51.0,5,0,12.0,117.0
10089,78.0,0,30,7.0,106.0
10090,66.0,30,480,8.0,117.0
10091,51.0,25,30,7.0,106.0
10092,37.0,0,30,7.0,106.0
10093,76.0,0,30,7.0,106.0
10094,49.0,5,30,12.0,117.0
10095,88.0,25,30,7.0,106.0
10096,42.0,0,30,7.0,106.0
10097,49.0,5,0,12.0,117.0
10098,46.0,0,30,7.0,106.0
10099,75.0,25,30,7.0,106.0
10100,87.0,0,30,7.0,106.0
10101,49.0,25,30,7.0,106.0
10102,49.0,5,30,12.0,117.0
10103,73.0,0,30,7.0,106.0
10104,37.0,25,30,7.0,106.0
10105,49.0,5,30,12.0,117.0
10106,42.0,25,30,7.0,106.0
10107,85.0,0,30,7.0,106.0
10108,49.0,5,30,12.0,117.0
10109,71.0,25,30,7.0,106.0
10110,46.0,0,30,7.0,106.0
10111,49.0,5,0,12.0,117.0
10112,64.0,25,240,8.0,117.0
10113,49.0,25,30,7.0,106.0
10114,83.0,0,30,7.0,106.0
10115,80.0,0,30,7.0,106.0
10116,35.0,0,30,7.0,106.0
10117,47.0,5,30,12.0,117.0
10118,92.0,25,30,7.0,106.0
10119,39.0,0,30,7.0,106.0
10120,47.0,5,0,12.0,117.0
10121,42.0,25,30,7.0,106.0
10122,78.0,0,30,7.0,106.0
10123,47.0,5,0,12.0,117.0
10124,90.0,25,30,7.0,106.0
10125,47.0,0,30,7.0,106.0
10126,76.0,0,30,7.0,106.0
10127,35.0,25,30,7.0,106.0
10128,47.0,5,30,12.0,117.0
10129,88.0,25,30,7.0,106.0
10130,39.0,0,30,7.0,106.0
10131,47.0,5,0,12.0,117.0
10132,75.0,0,30,7.0,106.0
10133,42.0,25,30,7.0,106.0
10134,47.0,0,30,7.0,106.0
10135,87.0,25,30,7.0,106.0
10136,63.0,25,240,8.0,117.0
10137,54.0,4,960,11.0,117.0
10138,47.0,5,30,12.0,117.0
10139,85.0,0,30,7.0,106.0
10140,40.0,25,30,7.0,106.0
10141,40.0,1,30,12.0,117.0
10142,97.0,0,30,7.0,106.0
10143,44.0,25,30,7.0,106.0
10144,40.0,5,30,12.0,117.0
10145,83.0,0,30,7.0,106.0
10146,47.0,25,30,7.0,106.0
10147,40.0,5,0,12.0,117.0
10148,95.0,25,30,7.0,106.0
10149,52.0,0,30,7.0,106.0
10150,40.0,5,0,12.0,117.0
10151,82.0,0,30,7.0,106.0
10152,40.0,25,30,7.0,106.0
10153,94.0,25,30,7.0,106.0
10154,44.0,0,30,7.0,106.0
10155,40.0,5,0,12.0,117.0
10156,47.0,25,30,7.0,106.0
10157,80.0,0,30,7.0,106.0
10158,68.0,0,240,8.0,117.0
10159,92.0,0,30,7.0,106.0
10160,52.0,25,30,7.0,106.0
10161,56.0,4,240,11.0,117.0
10162,40.0,5,30,12.0,117.0
10163,79.0,0,40,7.0,106.0
10164,91.0,35,40,7.0,106.0
10165,88.0,40,40,7.0,106.0
10166,40.0,0,120,7.0,106.0
10167,85.0,40,40,7.0,106.0
10168,82.0,40,40,7.0,106.0
10169,79.0,40,40,7.0,106.0
10170,76.0,40,40,7.0,106.0
10171,73.0,40,40,7.0,106.0
10172,70.0,40,40,7.0,106.0
10173,67.0,40,40,7.0,106.0
10174,64.0,40,40,7.0,106.0
10175,61.0,40,40,7.0,106.0
10176,58.0,40,30,7.0,106.0
10177,55.0,30,30,7.0,106.0
10178,52.0,30,30,7.0,106.0
10179,49.0,30,30,7.0,106.0
10180,46.0,30,40,7.0,106.0
10181,43.0,40,40,7.0,106.0
10182,40.0,40,40,7.0,106.0
10183,91.0,0,720,0.0,94.0
10184,67.0,25,720,8.0,117.0
10185,79.0,1,720,1.0,98.0
10186,55.0,3,720,11.0,117.0
10187,40.0,1,720,12.0,117.0
10188,39.0,0,24,7.0,106.0
10189,42.0,19,24,7.0,106.0
10190,45.0,24,24,7.0,106.0
10191,48.0,24,24,7.0,106.0
10192,51.0,24,24,7.0,106.0
10193,54.0,24,24,7.0,106.0
10194,57.0,24,24,7.0,106.0
10195,60.0,24,24,7.0,106.0
10196,63.0,30,24,7.0,106.0
10197,66.0,0,240,8.0,117.0
10198,90.0,40,240,0.0,94.0
10199,78.0,1,240,1.0,98.0
10200,54.0,3,240,11.0,117.0
10201,39.0,1,240,12.0,117.0
10202,66.0,24,24,7.0,106.0
10203,38.0,0,30,7.0,106.0
10204,38.0,1,30,12.0,117.0
10205,41.0,24,30,7.0,106.0
10206,70.0,1,60,2.0,94.0
10207,50.0,5,30,12.0,117.0
10208,58.0,1,60,3.0,110.0
10209,46.0,25,30,7.0,106.0
10210,50.0,5,0,12.0,117.0
10211,50.0,24,30,7.0,106.0
10212,69.0,2,60,2.0,94.0
10213,57.0,1,60,3.0,110.0
10214,53.0,25,30,7.0,106.0
10215,50.0,3,30,12.0,117.0
10216,58.0,24,30,7.0,106.0
10217,67.0,2,60,2.0,94.0
10218,50.0,3,0,12.0,117.0
10219,55.0,1,60,3.0,110.0
10220,62.0,25,30,7.0,106.0
10221,65.0,24,30,7.0,106.0
10222,65.0,2,60,2.0,94.0
10223,50.0,5,30,12.0,117.0
10224,53.0,1,60,3.0,110.0
10225,36.0,25,30,7.0,106.0
10226,48.0,5,0,12.0,117.0
10227,41.0,24,30,7.0,106.0
10228,75.0,2,60,2.0,94.0
10229,48.0,3,0,12.0,117.0
10230,63.0,1,60,3.0,110.0
10231,45.0,25,30,7.0,106.0
10232,48.0,5,0,12.0,117.0
10233,48.0,24,30,7.0,106.0
10234,74.0,2,60,2.0,94.0
10235,62.0,1,60,3.0,110.0
10236,53.0,25,30,7.0,106.0
10237,48.0,3,30,12.0,117.0
10238,57.0,24,30,7.0,106.0
10239,72.0,2,60,2.0,94.0
10240,48.0,5,30,12.0,117.0
10241,60.0,1,60,3.0,110.0
10242,63.0,25,30,7.0,106.0
10243,48.0,3,30,12.0,117.0
10244,65.0,24,30,7.0,106.0
10245,70.0,2,60,2.0,94.0
10246,63.0,0,240,10.0,112.0
10247,48.0,5,30,12.0,117.0
10248,58.0,1,60,3.0,110.0
10249,34.0,25,30,7.0,106.0
10250,46.0,5,0,12.0,117.0
10251,38.0,24,30,7.0,106.0
10252,79.0,0,60,2.0,94.0
10253,75.0,2,60,2.0,94.0
10254,67.0,0,60,3.0,110.0
10255,63.0,1,60,3.0,110.0
10256,41.0,25,30,7.0,106.0
10257,46.0,3,30,12.0,117.0
10258,46.0,24,30,7.0,106.0
10259,89.0,18,600,0.0,94.0
10260,77.0,1,600,1.0,98.0
10261,74.0,0,60,2.0,94.0
10262,77.0,2,60,2.0,94.0
10263,46.0,3,0,12.0,117.0
10264,62.0,1,60,3.0,110.0
10265,65.0,0,60,3.0,110.0
10266,53.0,25,30,7.0,106.0
10267,46.0,5,0,12.0,117.0
10268,87.0,0,60,0.0,94.0
10269,58.0,24,30,7.0,106.0
10270,65.0,0,660,8.0,117.0
10271,84.0,1,60,1.0,98.0
10272,62.0,0,180,10.0,112.0
10273,72.0,0,60,2.0,94.0
10274,75.0,1,60,2.0,94.0
10275,46.0,3,0,12.0,117.0
10276,60.0,0,60,3.0,110.0
10277,63.0,1,60,3.0,110.0
10278,62.0,0,30,7.0,106.0
10279,65.0,24,30,7.0,106.0
10280,74.0,0,60,8.0,117.0
10281,86.0,25,60,0.0,94.0
10282,82.0,1,60,1.0,98.0
10283,70.0,1,60,10.0,112.0
10284,70.0,0,60,2.0,94.0
10285,74.0,0,60,2.0,94.0
10286,53.0,2,720,11.0,117.0
10287,46.0,5,30,12.0,117.0
10288,58.0,1,60,3.0,110.0
10289,62.0,0,60,3.0,110.0
10290,39.0,25,30,7.0,106.0
10291,39.0,5,0,12.0,117.0
10292,84.0,0,60,0.0,94.0
10293,43.0,23,30,7.0,106.0
10294,72.0,0,60,8.0,117.0
10295,81.0,1,60,1.0,98.0
10296,69.0,0,60,2.0,94.0
10297,72.0,1,60,2.0,94.0
10298,69.0,0,60,10.0,112.0
10299,39.0,3,0,12.0,117.0
10300,57.0,0,60,3.0,110.0
10301,60.0,1,60,3.0,110.0
10302,46.0,0,30,7.0,106.0
10303,39.0,5,0,12.0,117.0
10304,51.0,24,30,7.0,106.0
10305,82.0,25,60,0.0,94.0
10306,70.0,0,60,8.0,117.0
10307,79.0,1,60,1.0,98.0
10308,67.0,1,60,10.0,112.0
10309,67.0,0,60,2.0,94.0
10310,70.0,0,60,2.0,94.0
10311,55.0,2,120,11.0,117.0
10312,58.0,1,60,3.0,110.0
10313,55.0,0,60,3.0,110.0
10314,39.0,1,120,13.0,127.0
10315,55.0,25,30,7.0,106.0
10316,39.0,1,30,12.0,117.0
10317,58.0,24,30,7.0,106.0
10318,69.0,0,60,8.0,117.0
10319,81.0,0,60,0.0,94.0
10320,77.0,1,60,1.0,98.0
10321,65.0,1,60,10.0,112.0
10322,69.0,0,60,2.0,94.0
10323,65.0,0,60,2.0,94.0
10324,57.0,2,60,11.0,117.0
10325,39.0,1,0,12.0,117.0
10326,53.0,1,60,3.0,110.0
10327,57.0,0,60,3.0,110.0
10328,63.0,0,30,7.0,106.0
10329,79.0,25,60,0.0,94.0
10330,67.0,0,60,8.0,117.0
10331,67.0,24,30,7.0,106.0
10332,75.0,1,60,1.0,98.0
10333,67.0,0,60,2.0,94.0
10334,63.0,0,60,2.0,94.0
10335,63.0,1,60,10.0,112.0
10336,58.0,2,60,11.0,117.0
10337,39.0,5,30,12.0,117.0
10338,55.0,0,60,3.0,110.0
10339,51.0,1,60,3.0,110.0
10340,29.0,0,45,7.0,106.0
10341,53.0,0,45,7.0,106.0
10342,53.0,0,45,7.0,106.0
10343,29.0,53,45,7.0,106.0
10344,65.0,0,120,8.0,117.0
10345,62.0,0,120,10.0,112.0
10346,58.0,2,120,11.0,117.0
10347,41.0,1,120,12.0,117.0
10348,53.0,1,120,3.0,110.0
10349,50.0,0,120,3.0,110.0
10350,41.0,1,120,13.0,127.0
10351,31.0,60,45,7.0,106.0
10352,55.0,0,45,7.0,106.0
10353,57.0,0,45,7.0,106.0
10354,33.0,60,45,7.0,106.0
10355,58.0,0,45,7.0,106.0
10356,34.0,60,45,7.0,106.0
10357,29.0,0,45,7.0,106.0
10358,53.0,60,45,7.0,106.0
10359,77.0,25,360,0.0,94.0
10360,74.0,1,360,1.0,98.0
10361,65.0,0,360,2.0,94.0
10362,62.0,1,360,2.0,94.0
10363,36.0,0,45,7.0,106.0
10364,60.0,60,45,7.0,106.0
10365,29.0,0,45,7.0,106.0
10366,53.0,58,45,7.0,106.0
10367,75.0,0,120,0.0,94.0
10368,72.0,1,120,1.0,98.0
10369,60.0,1,120,2.0,94.0
10370,63.0,0,120,2.0,94.0
10371,62.0,60,45,7.0,106.0
10372,38.0,0,45,7.0,106.0
10373,29.0,0,45,7.0,106.0
10374,53.0,58,45,7.0,106.0
10375,39.0,0,45,7.0,106.0
10376,63.0,60,45,7.0,106.0
10377,29.0,0,45,7.0,106.0
10378,53.0,60,45,7.0,106.0
10379,74.0,0,240,0.0,94.0
10380,70.0,1,240,1.0,98.0
10381,62.0,1,240,2.0,94.0
10382,58.0,0,240,2.0,94.0
10383,41.0,60,45,7.0,106.0
10384,65.0,0,45,7.0,106.0
10385,53.0,58,45,7.0,106.0
10386,29.0,0,45,7.0,106.0
10387,67.0,60,45,7.0,106.0
10388,31.0,0,45,7.0,106.0
10389,55.0,0,45,7.0,106.0
10390,43.0,60,45,7.0,106.0
10391,74.0,0,240,0.0,94.0
10392,70.0,1,240,1.0,98.0
10393,58.0,0,240,2.0,94.0
10394,62.0,1,240,2.0,94.0
10395,33.0,60,45,7.0,106.0
10396,69.0,0,45,7.0,106.0
10397,45.0,0,45,7.0,106.0
10398,57.0,54,45,7.0,106.0
10399,70.0,0,45,7.0,106.0
10400,34.0,60,45,7.0,106.0
10401,58.0,0,45,7.0,106.0
10402,46.0,60,45,7.0,106.0
10403,72.0,0,45,7.0,106.0
10404,36.0,60,45,7.0,106.0
10405,48.0,0,45,7.0,106.0
10406,60.0,60,45,7.0,106.0
10407,74.0,2,360,2.0,94.0
10408,70.0,0,360,2.0,94.0
10409,62.0,4,360,3.0,110.0
10410,58.0,0,360,3.0,110.0
10411,74.0,60,45,7.0,106.0
10412,38.0,0,45,7.0,106.0
10413,50.0,54,45,7.0,106.0
10414,62.0,0,45,7.0,106.0
10415,72.0,0,120,2.0,94.0
10416,65.0,2,120,2.0,94.0
10417,60.0,4,120,3.0,110.0
10418,53.0,0,120,3.0,110.0
10419,75.0,0,45,7.0,106.0
10420,39.0,60,45,7.0,106.0
10421,63.0,0,45,7.0,106.0
10422,51.0,54,45,7.0,106.0
10423,41.0,60,45,7.0,106.0
10424,77.0,0,45,7.0,106.0
10425,65.0,60,45,7.0,106.0
10426,53.0,0,45,7.0,106.0
10427,70.0,2,240,2.0,94.0
10428,62.0,0,240,2.0,94.0
10429,58.0,0,0,3.0,110.0
10430,50.0,4,0,3.0,110.0
10431,79.0,0,45,7.0,106.0
10432,43.0,60,45,7.0,106.0
10433,55.0,0,45,7.0,106.0
10434,67.0,54,45,7.0,106.0
10435,45.0,0,45,7.0,106.0
10436,81.0,60,45,7.0,106.0
10437,57.0,0,45,7.0,106.0
10438,69.0,60,45,7.0,106.0
10439,70.0,2,240,2.0,94.0
10440,62.0,0,240,2.0,94.0
10441,82.0,60,30,7.0,106.0
10442,46.0,0,30,7.0,106.0
10443,58.0,23,30,7.0,106.0
10444,70.0,0,30,7.0,106.0
10445,48.0,30,30,7.0,106.0
10446,84.0,0,30,7.0,106.0
10447,60.0,30,30,7.0,106.0
10448,72.0,0,30,7.0,106.0
10449,86.0,30,30,7.0,106.0
10450,50.0,0,30,7.0,106.0
10451,62.0,0,30,7.0,106.0
10452,74.0,30,30,7.0,106.0
10453,51.0,30,30,7.0,106.0
10454,87.0,0,30,7.0,106.0
10455,63.0,0,30,7.0,106.0
10456,75.0,30,30,7.0,106.0
10457,89.0,30,30,7.0,106.0
10458,53.0,0,30,7.0,106.0
10459,65.0,30,30,7.0,106.0
10460,77.0,0,30,7.0,106.0
10461,55.0,0,30,7.0,106.0
10462,91.0,30,30,7.0,106.0
10463,67.0,0,30,7.0,106.0
10464,79.0,30,30,7.0,106.0
10465,82.0,0,360,8.0,117.0
10466,70.0,2,360,10.0,112.0
10467,58.0,2,360,11.0,117.0
10468,58.0,1,360,12.0,117.0
10469,46.0,2,360,13.0,127.0
10470,93.0,30,30,7.0,106.0
10471,57.0,0,30,7.0,106.0
10472,69.0,23,30,7.0,106.0
10473,81.0,0,30,7.0,106.0
10474,77.0,0,90,8.0,117.0
10475,58.0,0,30,7.0,106.0
10476,94.0,30,30,7.0,106.0
10477,65.0,2,90,10.0,112.0
10478,53.0,2,90,11.0,117.0
10479,53.0,1,90,12.0,117.0
10480,41.0,2,90,13.0,127.0
10481,70.0,30,30,7.0,106.0
10482,82.0,0,30,7.0,106.0
10483,60.0,0,30,7.0,106.0
10484,96.0,30,30,7.0,106.0
10485,72.0,0,30,7.0,106.0
10486,84.0,23,30,7.0,106.0
10487,62.0,0,30,7.0,106.0
10488,98.0,30,30,7.0,106.0
10489,74.0,0,90,8.0,117.0
10490,62.0,2,90,10.0,112.0
10491,50.0,2,90,11.0,117.0
10492,50.0,1,90,12.0,117.0
10493,38.0,2,90,13.0,127.0
10494,86.0,30,30,7.0,106.0
10495,74.0,0,30,7.0,106.0
10496,99.0,0,30,7.0,106.0
10497,63.0,0,30,7.0,106.0
10498,75.0,0,30,7.0,106.0
10499,87.0,23,30,7.0,106.0
10500,77.0,30,90,8.0,117.0
10501,100.0,0,30,7.0,106.0
10502,64.0,30,30,7.0,106.0
10503,65.0,2,90,10.0,112.0
10504,53.0,2,90,11.0,117.0
10505,53.0,1,90,12.0,117.0
10506,41.0,2,90,13.0,127.0
10507,76.0,0,30,7.0,106.0
10508,88.0,30,30,7.0,106.0
10509,65.0,0,30,7.0,106.0
10510,101.0,30,30,7.0,106.0
10511,77.0,0,30,7.0,106.0
10512,89.0,23,30,7.0,106.0
10513,101.0,0,30,7.0,106.0
10514,65.0,30,30,7.0,106.0
10515,74.0,0,90,8.0,117.0
10516,62.0,2,90,10.0,112.0
10517,50.0,2,90,11.0,117.0
10518,50.0,1,90,12.0,117.0
10519,38.0,2,90,13.0,127.0
10520,77.0,0,30,7.0,106.0
10521,89.0,30,30,7.0,106.0
10522,62.0,0,30,7.0,106.0
10523,98.0,0,30,7.0,106.0
10524,86.0,23,30,7.0,106.0
10525,74.0,0,30,7.0,106.0
10526,58.0,0,30,7.0,106.0
10527,94.0,30,30,7.0,106.0
10528,70.0,30,90,8.0,117.0
10529,58.0,2,90,10.0,112.0
10530,58.0,2,90,11.0,117.0
10531,46.0,1,90,12.0,117.0
10532,34.0,2,90,13.0,127.0
10533,82.0,30,30,7.0,106.0
10534,70.0,0,30,7.0,106.0
10535,63.0,30,30,7.0,106.0
10536,99.0,0,30,7.0,106.0
10537,75.0,23,30,7.0,106.0
10538,98.0,30,30,7.0,106.0
10539,75.0,0,120,8.0,117.0
10540,96.0,30,30,7.0,106.0
10541,63.0,2,120,10.0,112.0
10542,51.0,2,120,11.0,117.0
10543,51.0,1,120,12.0,117.0
10544,39.0,2,120,13.0,127.0
10545,94.0,30,30,7.0,106.0
10546,93.0,30,30,7.0,106.0
10547,91.0,30,30,7.0,106.0
10548,89.0,30,30,7.0,106.0
10549,87.0,30,30,7.0,106.0
10550,86.0,30,30,7.0,106.0
10551,84.0,30,30,7.0,106.0
10552,82.0,30,30,7.0,106.0
10553,81.0,30,30,7.0,106.0
10554,79.0,30,30,7.0,106.0
10555,77.0,30,30,7.0,106.0
10556,75.0,30,30,7.0,106.0
10557,60.0,30,30,7.0,106.0
10558,72.0,0,30,7.0,106.0
10559,96.0,23,30,7.0,106.0
10560,94.0,30,30,7.0,106.0
10561,72.0,0,120,8.0,117.0
10562,93.0,30,30,7.0,106.0
10563,72.0,2,120,10.0,112.0
10564,60.0,2,120,11.0,117.0
10565,60.0,1,120,12.0,117.0
10566,48.0,2,120,13.0,127.0
10567,91.0,30,30,7.0,106.0
10568,89.0,30,30,7.0,106.0
10569,87.0,30,30,7.0,106.0
10570,86.0,30,30,7.0,106.0
10571,84.0,30,30,7.0,106.0
10572,82.0,30,30,7.0,106.0
10573,81.0,30,30,7.0,106.0
10574,79.0,30,30,7.0,106.0
10575,77.0,30,30,7.0,106.0
10576,75.0,30,30,7.0,106.0
10577,74.0,30,30,7.0,106.0
10578,72.0,30,30,7.0,106.0
10579,57.0,30,30,7.0,106.0
10580,69.0,0,30,7.0,106.0
10581,93.0,23,30,7.0,106.0
10582,91.0,30,30,7.0,106.0
10583,69.0,0,120,8.0,117.0
10584,89.0,30,30,7.0,106.0
10585,69.0,2,120,10.0,112.0
10586,57.0,2,120,11.0,117.0
10587,57.0,1,120,12.0,117.0
10588,45.0,2,120,13.0,127.0
10589,87.0,30,30,7.0,106.0
10590,86.0,30,30,7.0,106.0
10591,84.0,30,30,7.0,106.0
10592,82.0,30,30,7.0,106.0
10593,53.0,0,30,7.0,106.0
10594,81.0,30,30,7.0,106.0
10595,79.0,0,30,7.0,106.0
10596,65.0,23,30,7.0,106.0
10597,77.0,30,30,7.0,106.0
10598,75.0,30,30,7.0,106.0
10599,65.0,0,120,8.0,117.0
10600,65.0,2,120,10.0,112.0
10601,53.0,2,120,11.0,117.0
10602,53.0,1,120,12.0,117.0
10603,41.0,2,120,13.0,127.0
10604,74.0,30,30,7.0,106.0
10605,72.0,30,30,7.0,106.0
10606,70.0,30,30,7.0,106.0
10607,69.0,30,30,7.0,106.0
10608,67.0,30,30,7.0,106.0
10609,51.0,0,30,7.0,106.0
10610,65.0,0,30,7.0,106.0
10611,63.0,30,0,7.0,106.0
10612,63.0,0,120,8.0,117.0
10613,62.0,30,30,7.0,106.0
10614,63.0,2,120,10.0,112.0
10615,51.0,2,120,11.0,117.0
10616,51.0,1,120,12.0,117.0
10617,39.0,2,120,13.0,127.0
10618,60.0,30,30,7.0,106.0
10619,58.0,30,30,7.0,106.0
10620,57.0,30,30,7.0,106.0
10621,55.0,30,30,7.0,106.0
10622,53.0,30,30,7.0,106.0
10623,51.0,23,30,7.0,106.0
10624,36.0,0,60,7.0,106.0
10625,50.0,30,30,7.0,106.0
10626,60.0,0,120,8.0,117.0
10627,48.0,30,30,7.0,106.0
10628,60.0,2,120,10.0,112.0
10629,48.0,2,120,11.0,117.0
10630,48.0,1,120,12.0,117.0
10631,36.0,2,120,13.0,127.0
10632,46.0,30,30,7.0,106.0
10633,45.0,23,30,7.0,106.0
10634,33.0,0,60,7.0,106.0
10635,43.0,30,30,7.0,106.0
10636,57.0,0,120,8.0,117.0
10637,41.0,30,30,7.0,106.0
10638,57.0,2,120,10.0,112.0
10639,57.0,2,120,11.0,117.0
10640,45.0,1,120,12.0,117.0
10641,33.0,2,120,13.0,127.0
10642,42.0,0,30,7.0,106.0
10643,30.0,0,30,7.0,106.0
10644,54.0,0,30,7.0,106.0
10645,42.0,23,30,7.0,106.0
10646,45.0,30,30,7.0,106.0
10647,57.0,0,30,7.0,106.0
10648,48.0,0,30,7.0,106.0
10649,63.0,30,120,8.0,117.0
10650,60.0,28,30,7.0,106.0
10651,63.0,2,120,10.0,112.0
10652,60.0,2,120,11.0,117.0
10653,41.0,1,120,12.0,117.0
10654,29.0,2,120,13.0,127.0
10655,63.0,0,30,7.0,106.0
10656,51.0,30,30,7.0,106.0
10657,78.0,1,108,1.0,98.0
10658,66.0,1,108,2.0,94.0
10659,45.0,30,30,7.0,106.0
10660,57.0,0,30,7.0,106.0
10661,48.0,30,30,7.0,106.0
10662,60.0,0,30,7.0,106.0
10663,78.0,1,54,1.0,98.0
10664,66.0,1,54,2.0,94.0
10665,63.0,28,30,7.0,106.0
10666,51.0,0,30,7.0,106.0
10667,66.0,0,30,7.0,106.0
10668,54.0,30,30,7.0,106.0
10669,60.0,0,30,7.0,106.0
10670,48.0,28,30,7.0,106.0
10671,63.0,0,30,7.0,106.0
10672,51.0,30,30,7.0,106.0
10673,54.0,0,30,7.0,106.0
10674,66.0,24,30,7.0,106.0
10675,57.0,30,30,7.0,106.0
10676,69.0,0,30,7.0,106.0
10677,63.0,0,108,3.0,110.0
10678,60.0,6,108,3.0,110.0
10679,63.0,0,30,7.0,106.0
10680,51.0,30,30,7.0,106.0
10681,54.0,30,30,7.0,106.0
10682,66.0,0,30,7.0,106.0
10683,69.0,24,30,7.0,106.0
10684,57.0,0,30,7.0,106.0
10685,60.0,0,54,3.0,110.0
10686,63.0,6,54,3.0,110.0
10687,60.0,30,30,7.0,106.0
10688,72.0,0,30,7.0,106.0
10689,54.0,0,30,7.0,106.0
10690,66.0,24,30,7.0,106.0
10691,69.0,0,30,7.0,106.0
10692,57.0,30,30,7.0,106.0
10693,60.0,0,30,7.0,106.0
10694,72.0,30,30,7.0,106.0
10695,63.0,0,30,7.0,106.0
10696,75.0,30,30,7.0,106.0
10697,69.0,0,30,7.0,106.0
10698,57.0,30,30,7.0,106.0
10699,72.0,30,30,7.0,106.0
10700,60.0,0,30,7.0,106.0
10701,75.0,0,30,7.0,106.0
10702,63.0,30,30,7.0,106.0
10703,78.0,0,30,7.0,106.0
10704,66.0,30,30,7.0,106.0
10705,72.0,30,30,7.0,106.0
10706,60.0,0,30,7.0,106.0
10707,75.0,0,30,7.0,106.0
10708,63.0,30,30,7.0,106.0
10709,78.0,0,30,7.0,106.0
10710,66.0,30,30,7.0,106.0
10711,81.0,30,30,7.0,106.0
10712,69.0,0,30,7.0,106.0
10713,75.0,0,30,7.0,106.0
10714,63.0,30,30,7.0,106.0
10715,78.0,0,30,7.0,106.0
10716,66.0,30,30,7.0,106.0
10717,81.0,30,30,7.0,106.0
10718,69.0,0,30,7.0,106.0
10719,78.0,1,720,1.0,98.0
10720,66.0,1,720,2.0,94.0
10721,63.0,0,480,3.0,110.0
10722,60.0,6,480,3.0,110.0
10723,41.0,0,30,7.0,106.0
10724,48.0,0,30,7.0,106.0
10725,60.0,23,30,7.0,106.0
10726,51.0,30,30,7.0,106.0
10727,63.0,0,30,7.0,106.0
10728,66.0,28,30,7.0,106.0
10729,54.0,0,30,7.0,106.0
10730,69.0,30,120,8.0,117.0
10731,60.0,2,120,10.0,112.0
10732,63.0,2,120,11.0,117.0
10733,53.0,1,120,12.0,117.0
10734,41.0,2,120,13.0,127.0
10735,57.0,0,30,7.0,106.0
10736,69.0,30,30,7.0,106.0
10737,81.0,1,108,1.0,98.0
10738,69.0,1,108,2.0,94.0
10739,63.0,30,30,7.0,106.0
10740,51.0,0,30,7.0,106.0
10741,54.0,30,30,7.0,106.0
10742,66.0,0,30,7.0,106.0
10743,81.0,1,54,1.0,98.0
10744,69.0,1,54,2.0,94.0
10745,57.0,28,30,7.0,106.0
10746,69.0,0,30,7.0,106.0
10747,60.0,30,30,7.0,106.0
10748,72.0,0,30,7.0,106.0
10749,54.0,0,30,7.0,106.0
10750,66.0,28,30,7.0,106.0
10751,69.0,0,30,7.0,106.0
10752,57.0,30,30,7.0,106.0
10753,60.0,0,30,7.0,106.0
10754,72.0,24,30,7.0,106.0
10755,63.0,0,30,7.0,106.0
10756,75.0,30,30,7.0,106.0
10757,63.0,6,108,3.0,110.0
10758,60.0,0,108,3.0,110.0
10759,69.0,0,30,7.0,106.0
10760,57.0,30,30,7.0,106.0
10761,60.0,30,30,7.0,106.0
10762,72.0,0,30,7.0,106.0
10763,63.0,0,54,3.0,110.0
10764,60.0,6,54,3.0,110.0
10765,63.0,0,30,7.0,106.0
10766,75.0,24,30,7.0,106.0
10767,78.0,0,30,7.0,106.0
10768,66.0,30,30,7.0,106.0
10769,60.0,0,30,7.0,106.0
10770,72.0,24,30,7.0,106.0
10771,63.0,0,30,7.0,106.0
10772,75.0,30,30,7.0,106.0
10773,66.0,0,30,7.0,106.0
10774,78.0,30,30,7.0,106.0
10775,69.0,0,30,7.0,106.0
10776,81.0,30,30,7.0,106.0
10777,63.0,0,30,7.0,106.0
10778,75.0,30,30,7.0,106.0
10779,66.0,0,30,7.0,106.0
10780,78.0,30,30,7.0,106.0
10781,69.0,0,30,7.0,106.0
10782,81.0,30,30,7.0,106.0
10783,72.0,30,30,7.0,106.0
10784,84.0,0,30,7.0,106.0
10785,66.0,30,30,7.0,106.0
10786,78.0,0,30,7.0,106.0
10787,69.0,0,30,7.0,106.0
10788,81.0,30,30,7.0,106.0
10789,72.0,0,30,7.0,106.0
10790,84.0,30,30,7.0,106.0
10791,75.0,0,30,7.0,106.0
10792,87.0,30,30,7.0,106.0
10793,69.0,0,30,7.0,106.0
10794,81.0,30,30,7.0,106.0
10795,72.0,0,30,7.0,106.0
10796,84.0,30,30,7.0,106.0
10797,75.0,30,30,7.0,106.0
10798,87.0,0,30,7.0,106.0
10799,81.0,1,720,1.0,98.0
10800,69.0,1,720,2.0,94.0
10801,63.0,0,480,3.0,110.0
10802,60.0,6,480,3.0,110.0
10803,69.0,30,30,7.0,106.0
10804,67.0,0,40,7.0,106.0
10805,70.0,23,30,7.0,106.0
10806,65.0,10,40,7.0,106.0
10807,71.0,20,30,7.0,106.0
10808,64.0,9,40,7.0,106.0
10809,72.0,15,30,7.0,106.0
10810,69.0,0,120,8.0,117.0
10811,63.0,2,120,10.0,112.0
10812,60.0,2,120,11.0,117.0
10813,53.0,1,120,12.0,117.0
10814,41.0,2,120,13.0,127.0
10815,73.0,30,30,7.0,106.0
10816,63.0,0,40,7.0,106.0
10817,81.0,1,108,1.0,98.0
10818,72.0,1,108,2.0,94.0
10819,63.0,4,108,3.0,110.0
10820,66.0,0,108,3.0,110.0
10821,74.0,30,30,7.0,106.0
10822,62.0,10,40,7.0,106.0
10823,75.0,20,30,7.0,106.0
10824,81.0,1,54,1.0,98.0
10825,72.0,1,54,2.0,94.0
10826,66.0,4,54,3.0,110.0
10827,61.0,14,40,7.0,106.0
10828,63.0,0,54,3.0,110.0
10829,76.0,10,30,7.0,106.0
10830,77.0,30,30,7.0,106.0
10831,60.0,0,40,7.0,106.0
10832,78.0,23,30,7.0,106.0
10833,59.0,10,40,7.0,106.0
10834,79.0,20,30,7.0,106.0
10835,58.0,9,40,7.0,106.0
10836,72.0,0,120,8.0,117.0
10837,80.0,15,30,7.0,106.0
10838,69.0,2,120,10.0,112.0
10839,63.0,2,120,11.0,117.0
10840,53.0,1,120,12.0,117.0
10841,41.0,2,120,13.0,127.0
10842,81.0,30,30,7.0,106.0
10843,57.0,0,30,7.0,106.0
10844,81.0,1,108,1.0,98.0
10845,72.0,1,108,2.0,94.0
10846,63.0,4,108,3.0,110.0
10847,66.0,0,108,3.0,110.0
10848,56.0,30,30,7.0,106.0
10849,82.0,0,30,7.0,106.0
10850,83.0,0,30,7.0,106.0
10851,55.0,30,30,7.0,106.0
10852,81.0,1,54,1.0,98.0
10853,72.0,1,54,2.0,94.0
10854,84.0,0,30,7.0,106.0
10855,54.0,24,30,7.0,106.0
10856,63.0,4,54,3.0,110.0
10857,66.0,0,54,3.0,110.0
10858,85.0,0,30,7.0,106.0
10859,53.0,30,40,7.0,106.0
10860,86.0,23,30,7.0,106.0
10861,52.0,10,40,7.0,106.0
10862,87.0,20,30,7.0,106.0
10863,75.0,0,120,8.0,117.0
10864,51.0,14,40,7.0,106.0
10865,88.0,10,30,7.0,106.0
10866,72.0,2,120,10.0,112.0
10867,69.0,2,120,11.0,117.0
10868,53.0,1,120,12.0,117.0
10869,41.0,2,120,13.0,127.0
10870,89.0,0,30,7.0,106.0
10871,50.0,30,40,7.0,106.0
10872,81.0,1,108,1.0,98.0
10873,72.0,1,108,2.0,94.0
10874,65.0,4,108,3.0,110.0
10875,63.0,0,108,3.0,110.0
10876,90.0,30,30,7.0,106.0
10877,49.0,10,40,7.0,106.0
10878,91.0,20,30,7.0,106.0
10879,81.0,1,54,1.0,98.0
10880,72.0,1,54,2.0,94.0
10881,92.0,10,30,7.0,106.0
10882,48.0,14,40,7.0,106.0
10883,65.0,4,54,3.0,110.0
10884,63.0,0,54,3.0,110.0
10885,93.0,0,30,7.0,106.0
10886,47.0,0,40,7.0,106.0
10887,94.0,23,30,7.0,106.0
10888,46.0,10,40,7.0,106.0
10889,95.0,20,30,7.0,106.0
10890,96.0,10,30,7.0,106.0
10891,45.0,14,40,7.0,106.0
10892,81.0,30,120,8.0,117.0
10893,72.0,2,120,10.0,112.0
10894,65.0,2,120,11.0,117.0
10895,53.0,1,120,12.0,117.0
10896,41.0,2,120,13.0,127.0
10897,44.0,30,30,7.0,106.0
10898,97.0,0,30,7.0,106.0
10899,81.0,1,108,1.0,98.0
10900,72.0,1,108,2.0,94.0
10901,63.0,4,108,3.0,110.0
10902,65.0,0,108,3.0,110.0
10903,84.0,0,120,0.0,94.0
10904,43.0,0,30,7.0,106.0
10905,98.0,30,30,7.0,106.0
10906,99.0,30,30,7.0,106.0
10907,42.0,0,30,7.0,106.0
10908,81.0,1,54,1.0,98.0
10909,72.0,1,54,2.0,94.0
10910,101.0,24,30,7.0,106.0
10911,41.0,0,30,7.0,106.0
10912,84.0,0,60,0.0,94.0
10913,63.0,4,54,3.0,110.0
10914,65.0,0,54,3.0,110.0
10915,65.0,0,30,10.0,112.0
10916,70.0,25,0,10.0,112.0
10917,62.0,0,30,11.0,117.0
10918,58.0,2,0,11.0,117.0
10919,65.0,0,0,10.0,112.0
10920,62.0,0,30,11.0,117.0
10921,46.0,1,60,12.0,117.0
10922,34.0,2,0,13.0,127.0
10923,70.0,25,0,10.0,112.0
10924,62.0,2,30,11.0,117.0
10925,58.0,2,0,11.0,117.0
10926,94.0,30,120,7.0,106.0
10927,46.0,0,120,7.0,106.0
10928,34.0,0,120,7.0,106.0
10929,65.0,0,30,10.0,112.0
10930,58.0,2,0,11.0,117.0
10931,62.0,0,0,11.0,117.0
10932,46.0,1,60,12.0,117.0
10933,46.0,1,120,6.0,122.0
10934,34.0,2,0,13.0,127.0
10935,70.0,28,30,10.0,112.0
10936,65.0,25,0,10.0,112.0
10937,65.0,28,0,10.0,112.0
10938,70.0,0,0,10.0,112.0
10939,58.0,2,0,11.0,117.0
10940,62.0,0,0,11.0,117.0
10941,46.0,1,60,12.0,117.0
10942,65.0,0,30,10.0,112.0
10943,70.0,28,0,10.0,112.0
10944,62.0,2,30,11.0,117.0
10945,58.0,0,30,11.0,117.0
10946,46.0,1,0,12.0,117.0
10947,34.0,2,0,13.0,127.0
10948,70.0,25,0,10.0,112.0
10949,65.0,0,30,10.0,112.0
10950,58.0,0,30,11.0,117.0
10951,62.0,2,30,11.0,117.0
10952,82.0,0,300,8.0,117.0
10953,70.0,2,0,10.0,112.0
10954,65.0,0,30,10.0,112.0
10955,58.0,0,30,11.0,117.0
10956,62.0,2,30,11.0,117.0
10957,34.0,2,0,13.0,127.0
10958,84.0,26,20,8.0,117.0
10959,65.0,0,30,10.0,112.0
10960,70.0,12,0,10.0,112.0
10961,58.0,0,30,11.0,117.0
10962,62.0,2,30,11.0,117.0
10963,82.0,13,20,8.0,117.0
10964,81.0,6,20,8.0,117.0
10965,65.0,0,30,10.0,112.0
10966,70.0,2,0,10.0,112.0
10967,58.0,0,30,11.0,117.0
10968,62.0,2,30,11.0,117.0
10969,46.0,1,60,12.0,117.0
10970,34.0,2,0,13.0,127.0
10971,65.0,0,30,10.0,112.0
10972,58.0,0,30,11.0,117.0
10973,62.0,2,30,11.0,117.0
10974,82.0,20,45,8.0,117.0
10975,65.0,0,0,10.0,112.0
10976,70.0,2,0,10.0,112.0
10977,62.0,0,0,11.0,117.0
10978,58.0,2,0,11.0,117.0
10979,46.0,1,0,12.0,117.0
10980,34.0,2,0,13.0,127.0
10981,65.0,25,0,10.0,112.0
10982,70.0,0,0,10.0,112.0
10983,84.0,26,45,8.0,117.0
10984,65.0,0,0,10.0,112.0
10985,62.0,0,0,11.0,117.0
10986,58.0,2,0,11.0,117.0
10987,46.0,1,0,12.0,117.0
10988,70.0,2,30,10.0,112.0
10989,65.0,25,0,10.0,112.0
10990,58.0,2,0,11.0,117.0
10991,62.0,0,0,11.0,117.0
10992,70.0,0,30,10.0,112.0
10993,65.0,28,0,10.0,112.0
10994,58.0,2,0,11.0,117.0
10995,34.0,2,0,13.0,127.0
10996,70.0,25,0,10.0,112.0
10997,62.0,0,0,11.0,117.0
10998,58.0,2,0,11.0,117.0
10999,82.0,0,600,0.0,94.0
11000,86.0,0,600,0.0,94.0
11001,86.0,26,120,8.0,117.0
11002,70.0,0,600,5.0,104.0
11003,58.0,1,600,5.0,104.0
11004,82.0,0,0,1.0,98.0
11005,74.0,0,0,1.0,98.0
11006,58.0,0,600,4.0,107.0
11007,65.0,0,600,4.0,107.0
11008,62.0,0,600,2.0,94.0
11009,70.0,0,600,2.0,94.0
11010,65.0,0,0,10.0,112.0
11011,58.0,2,0,11.0,117.0
11012,62.0,0,0,11.0,117.0
11013,46.0,1,60,12.0,117.0
11014,58.0,0,0,3.0,110.0
11015,46.0,1,0,6.0,122.0
11016,46.0,0,0,3.0,110.0
11017,65.0,25,0,10.0,112.0
11018,70.0,0,0,10.0,112.0
11019,62.0,0,0,11.0,117.0
11020,58.0,2,0,11.0,117.0
11021,65.0,28,0,10.0,112.0
11022,70.0,0,0,10.0,112.0
11023,58.0,2,0,11.0,117.0
11024,46.0,1,60,12.0,117.0
11025,34.0,1,60,13.0,127.0
11026,70.0,25,0,10.0,112.0
11027,62.0,0,30,11.0,117.0
11028,58.0,0,0,11.0,117.0
11029,82.0,0,120,8.0,117.0
11030,86.0,26,120,0.0,94.0
11031,82.0,0,120,0.0,94.0
11032,70.0,0,120,5.0,104.0
11033,58.0,1,120,5.0,104.0
11034,58.0,1,120,4.0,107.0
11035,65.0,0,120,4.0,107.0
11036,62.0,0,120,2.0,94.0
11037,70.0,0,120,2.0,94.0
11038,70.0,0,0,10.0,112.0
11039,65.0,0,30,10.0,112.0
11040,58.0,2,0,11.0,117.0
11041,62.0,2,30,11.0,117.0
11042,46.0,1,60,12.0,117.0
11043,46.0,1,0,6.0,122.0
11044,34.0,2,60,13.0,127.0
11045,67.0,25,0,10.0,112.0
11046,58.0,2,0,11.0,117.0
11047,63.0,0,0,11.0,117.0
11048,70.0,0,30,10.0,112.0
11049,58.0,0,0,11.0,117.0
11050,63.0,2,0,11.0,117.0
11051,51.0,1,60,12.0,117.0
11052,39.0,1,60,13.0,127.0
11053,70.0,0,0,10.0,112.0
11054,67.0,25,0,10.0,112.0
11055,58.0,0,0,11.0,117.0
11056,87.0,26,120,0.0,94.0
11057,91.0,0,120,0.0,94.0
11058,79.0,0,120,8.0,117.0
11059,58.0,0,0,5.0,104.0
11060,70.0,1,0,5.0,104.0
11061,79.0,1,120,1.0,98.0
11062,75.0,0,120,1.0,98.0
11063,63.0,0,120,4.0,107.0
11064,67.0,1,120,4.0,107.0
11065,63.0,0,120,2.0,94.0
11066,70.0,0,0,10.0,112.0
11067,67.0,0,120,2.0,94.0
11068,63.0,2,30,11.0,117.0
11069,51.0,1,60,12.0,117.0
11070,51.0,0,120,3.0,110.0
11071,63.0,0,120,3.0,110.0
11072,39.0,2,60,13.0,127.0
11073,65.0,0,0,10.0,112.0
11074,58.0,0,30,11.0,117.0
11075,62.0,2,30,11.0,117.0
11076,70.0,25,30,10.0,112.0
11077,65.0,0,0,10.0,112.0
11078,58.0,0,30,11.0,117.0
11079,62.0,0,0,11.0,117.0
11080,46.0,1,60,12.0,117.0
11081,34.0,1,60,13.0,127.0
11082,70.0,28,30,10.0,112.0
11083,58.0,2,0,11.0,117.0
11084,89.0,0,120,0.0,94.0
11085,86.0,0,120,0.0,94.0
11086,77.0,26,120,8.0,117.0
11087,74.0,0,120,1.0,98.0
11088,77.0,0,120,1.0,98.0
11089,65.0,25,30,10.0,112.0
11090,70.0,0,30,10.0,112.0
11091,65.0,0,120,2.0,94.0
11092,62.0,0,120,2.0,94.0
11093,58.0,1,0,4.0,107.0
11094,65.0,0,120,4.0,107.0
11095,62.0,0,30,11.0,117.0
11096,46.0,1,0,12.0,117.0
11097,58.0,0,0,3.0,110.0
11098,46.0,1,0,3.0,110.0
11099,46.0,0,0,6.0,122.0
11100,34.0,1,0,13.0,127.0
11101,82.0,9,0,8.0,117.0
11102,70.0,0,30,8.0,117.0
11103,65.0,0,30,10.0,112.0
11104,70.0,0,30,10.0,112.0
11105,58.0,0,30,11.0,117.0
11106,62.0,2,0,11.0,117.0
11107,45.0,14,15,6.0,122.0
11108,46.0,2,15,6.0,122.0
11109,70.0,0,60,0.0,94.0
11110,82.0,26,60,0.0,94.0
11111,82.0,0,0,8.0,117.0
11112,70.0,9,0,8.0,117.0
11113,58.0,1,60,5.0,104.0
11114,70.0,1,0,5.0,104.0
11115,82.0,0,60,1.0,98.0
11116,70.0,0,0,1.0,98.0
11117,46.0,1,0,4.0,107.0
11118,70.0,0,0,10.0,112.0
11119,65.0,0,0,10.0,112.0
11120,70.0,0,0,2.0,94.0
11121,58.0,2,0,11.0,117.0
11122,45.0,15,15,6.0,122.0
11123,46.0,1,0,3.0,110.0
11124,58.0,0,0,3.0,110.0
11125,46.0,0,15,6.0,122.0
11126,62.0,0,30,11.0,117.0
11127,45.0,14,15,6.0,122.0
11128,46.0,2,15,6.0,122.0
11129,82.0,0,30,8.0,117.0
11130,70.0,9,30,8.0,117.0
11131,58.0,0,60,5.0,104.0
11132,58.0,0,60,4.0,107.0
11133,70.0,1,0,10.0,112.0
11134,65.0,0,0,10.0,112.0
11135,58.0,0,30,11.0,117.0
11136,62.0,2,30,11.0,117.0
11137,58.0,1,60,12.0,117.0
11138,45.0,15,15,6.0,122.0
11139,46.0,1,60,13.0,127.0
11140,46.0,1,15,6.0,122.0
11141,82.0,0,30,8.0,117.0
11142,70.0,9,30,8.0,117.0
11143,70.0,0,0,10.0,112.0
11144,65.0,2,0,10.0,112.0
11145,58.0,0,30,11.0,117.0
11146,62.0,2,30,11.0,117.0
11147,45.0,14,15,6.0,122.0
11148,46.0,2,15,6.0,122.0
11149,70.0,0,120,0.0,94.0
11150,82.0,0,120,0.0,94.0
11151,70.0,9,0,8.0,117.0
11152,82.0,0,0,8.0,117.0
11153,70.0,0,0,1.0,98.0
11154,82.0,0,0,1.0,98.0
11155,58.0,0,0,5.0,104.0
11156,70.0,1,0,5.0,104.0
11157,70.0,0,0,10.0,112.0
11158,65.0,1,0,10.0,112.0
11159,58.0,0,60,4.0,107.0
11160,46.0,0,0,4.0,107.0
11161,58.0,2,30,11.0,117.0
11162,62.0,0,30,11.0,117.0
11163,46.0,1,0,12.0,117.0
11164,46.0,0,0,3.0,110.0
11165,45.0,15,15,6.0,122.0
11166,34.0,1,0,13.0,127.0
11167,46.0,1,15,6.0,122.0
11168,70.0,9,0,8.0,117.0
11169,70.0,2,0,10.0,112.0
11170,58.0,0,30,11.0,117.0
11171,62.0,2,0,11.0,117.0
11172,45.0,14,15,6.0,122.0
11173,46.0,2,15,6.0,122.0
11174,82.0,9,0,8.0,117.0
11175,58.0,0,60,4.0,107.0
11176,65.0,0,0,10.0,112.0
11177,58.0,2,0,11.0,117.0
11178,46.0,1,0,12.0,117.0
11179,46.0,1,0,3.0,110.0
11180,45.0,15,15,6.0,122.0
11181,34.0,1,0,13.0,127.0
11182,46.0,0,15,6.0,122.0
11183,70.0,11,0,10.0,112.0
11184,58.0,2,0,11.0,117.0
11185,62.0,0,0,11.0,117.0
11186,45.0,14,15,6.0,122.0
11187,70.0,0,45,8.0,117.0
11188,46.0,2,15,6.0,122.0
11189,82.0,0,0,0.0,94.0
11190,70.0,9,0,0.0,94.0
11191,70.0,0,60,5.0,104.0
11192,58.0,1,0,5.0,104.0
11193,46.0,1,60,4.0,107.0
11194,58.0,0,60,4.0,107.0
11195,70.0,0,120,2.0,94.0
11196,65.0,0,30,10.0,112.0
11197,46.0,1,0,12.0,117.0
11198,45.0,15,15,6.0,122.0
11199,58.0,0,120,3.0,110.0
11200,84.0,0,20,8.0,117.0
11201,46.0,0,15,6.0,122.0
11202,65.0,0,30,10.0,112.0
11203,70.0,0,0,10.0,112.0
11204,58.0,0,30,11.0,117.0
11205,62.0,2,30,11.0,117.0
11206,45.0,1,15,6.0,122.0
11207,82.0,13,20,8.0,117.0
11208,46.0,2,15,6.0,122.0
11209,81.0,4,20,8.0,117.0
11210,58.0,1,0,5.0,104.0
11211,70.0,0,60,5.0,104.0
11212,65.0,11,30,10.0,112.0
11213,58.0,0,60,4.0,107.0
11214,46.0,0,0,4.0,107.0
11215,58.0,0,30,11.0,117.0
11216,62.0,2,0,11.0,117.0
11217,46.0,1,0,3.0,110.0
11218,45.0,11,15,6.0,122.0
11219,34.0,1,60,13.0,127.0
11220,46.0,0,15,6.0,122.0
11221,82.0,9,30,8.0,117.0
11222,70.0,0,0,10.0,112.0
11223,65.0,2,0,10.0,112.0
11224,58.0,0,0,11.0,117.0
11225,45.0,14,15,6.0,122.0
11226,46.0,2,15,6.0,122.0
11227,82.0,9,30,8.0,117.0
11228,70.0,0,120,1.0,98.0
11229,70.0,0,60,5.0,104.0
11230,82.0,0,120,1.0,98.0
11231,58.0,1,0,5.0,104.0
11232,70.0,0,120,2.0,94.0
11233,58.0,0,60,4.0,107.0
11234,70.0,0,0,10.0,112.0
11235,65.0,0,0,10.0,112.0
11236,62.0,2,30,11.0,117.0
11237,46.0,1,60,12.0,117.0
11238,45.0,15,15,6.0,122.0
11239,58.0,1,120,3.0,110.0
11240,34.0,1,0,13.0,127.0
11241,46.0,1,15,6.0,122.0
11242,84.0,9,30,8.0,117.0
11243,65.0,2,0,10.0,112.0
11244,62.0,0,0,11.0,117.0
11245,58.0,2,0,11.0,117.0
11246,45.0,14,15,6.0,122.0
11247,46.0,2,15,6.0,122.0
11248,84.0,0,60,0.0,94.0
11249,84.0,9,30,8.0,117.0
11250,72.0,0,60,0.0,94.0
11251,58.0,1,0,5.0,104.0
11252,70.0,0,60,5.0,104.0
11253,84.0,0,60,1.0,98.0
11254,72.0,0,60,1.0,98.0
11255,70.0,0,30,10.0,112.0
11256,72.0,1,60,2.0,94.0
11257,46.0,0,60,4.0,107.0
11258,58.0,0,0,4.0,107.0
11259,62.0,2,0,11.0,117.0
11260,58.0,0,0,11.0,117.0
11261,46.0,1,60,12.0,117.0
11262,45.0,15,15,6.0,122.0
11263,60.0,0,60,3.0,110.0
11264,46.0,1,0,3.0,110.0
11265,34.0,1,0,13.0,127.0
11266,86.0,23,0,8.0,117.0
11267,65.0,0,30,10.0,112.0
11268,70.0,0,30,10.0,112.0
11269,62.0,0,0,11.0,117.0
11270,58.0,2,0,11.0,117.0
11271,86.0,9,60,0.0,94.0
11272,74.0,0,60,1.0,98.0
11273,86.0,0,60,1.0,98.0
11274,46.0,0,60,4.0,107.0
11275,74.0,1,60,2.0,94.0
11276,70.0,2,30,10.0,112.0
11277,65.0,0,0,10.0,112.0
11278,58.0,0,0,11.0,117.0
11279,62.0,2,0,11.0,117.0
11280,46.0,1,60,12.0,117.0
11281,62.0,0,60,3.0,110.0
11282,86.0,23,0,8.0,117.0
11283,70.0,0,30,10.0,112.0
11284,58.0,2,0,11.0,117.0
11285,62.0,0,0,11.0,117.0
11286,70.0,0,0,5.0,104.0
11287,46.0,0,0,4.0,107.0
11288,58.0,1,0,4.0,107.0
11289,65.0,0,30,10.0,112.0
11290,70.0,2,30,10.0,112.0
11291,46.0,1,0,12.0,117.0
11292,46.0,0,120,6.0,122.0
11293,46.0,1,0,3.0,110.0
11294,34.0,1,0,13.0,127.0
11295,82.0,26,30,8.0,117.0
11296,65.0,2,0,10.0,112.0
11297,70.0,0,30,10.0,112.0
11298,58.0,2,30,11.0,117.0
11299,62.0,2,0,11.0,117.0
11300,86.0,26,120,0.0,94.0
11301,82.0,23,30,8.0,117.0
11302,74.0,1,120,1.0,98.0
11303,86.0,0,120,1.0,98.0
11304,70.0,0,0,10.0,112.0
11305,65.0,1,0,10.0,112.0
11306,74.0,0,120,2.0,94.0
11307,62.0,2,0,11.0,117.0
11308,58.0,0,30,11.0,117.0
11309,46.0,1,0,12.0,117.0
11310,62.0,1,120,3.0,110.0
11311,82.0,23,0,8.0,117.0
11312,70.0,0,0,10.0,112.0
11313,65.0,2,0,10.0,112.0
11314,62.0,2,0,11.0,117.0
11315,58.0,0,0,11.0,117.0
11316,82.0,26,0,0.0,94.0
11317,58.0,1,0,5.0,104.0
11318,46.0,0,60,4.0,107.0
11319,58.0,0,0,4.0,107.0
11320,46.0,0,60,3.0,110.0
11321,46.0,0,0,6.0,122.0
11322,34.0,1,60,13.0,127.0
11323,79.0,0,30,8.0,117.0
11324,67.0,0,30,10.0,112.0
11325,58.0,2,0,11.0,117.0
11326,79.0,26,0,8.0,117.0
11327,82.0,0,120,1.0,98.0
11328,70.0,1,120,1.0,98.0
11329,70.0,0,120,2.0,94.0
11330,46.0,1,60,4.0,107.0
11331,67.0,0,0,10.0,112.0
11332,51.0,1,60,12.0,117.0
11333,58.0,1,120,3.0,110.0
11334,51.0,1,0,3.0,110.0
11335,39.0,1,0,13.0,127.0
11336,58.0,2,0,11.0,117.0
11337,79.0,23,30,8.0,117.0
11338,70.0,0,120,5.0,104.0
11339,46.0,1,60,4.0,107.0
11340,58.0,1,0,4.0,107.0
11341,67.0,2,30,10.0,112.0
11342,58.0,2,0,11.0,117.0
11343,51.0,1,60,12.0,117.0
11344,46.0,1,0,6.0,122.0
11345,78.0,23,0,8.0,117.0
11346,66.0,2,0,10.0,112.0
11347,78.0,26,0,8.0,117.0
11348,79.0,0,120,0.0,94.0
11349,67.0,0,120,1.0,98.0
11350,79.0,1,120,1.0,98.0
11351,46.0,0,60,4.0,107.0
11352,66.0,1,0,10.0,112.0
11353,58.0,0,0,4.0,107.0
11354,67.0,0,120,2.0,94.0
11355,58.0,2,30,11.0,117.0
11356,50.0,1,0,12.0,117.0
11357,55.0,0,120,3.0,110.0
11358,50.0,0,60,3.0,110.0
11359,38.0,1,0,13.0,127.0
11360,78.0,23,0,8.0,117.0
11361,58.0,2,0,11.0,117.0
11362,78.0,0,60,0.0,94.0
11363,82.0,0,120,0.0,94.0
11364,58.0,1,0,5.0,104.0
11365,70.0,1,120,5.0,104.0
11366,78.0,1,60,1.0,98.0
11367,66.0,0,60,1.0,98.0
11368,46.0,0,60,4.0,107.0
11369,66.0,2,30,10.0,112.0
11370,66.0,0,60,2.0,94.0
11371,50.0,0,60,3.0,110.0
11372,54.0,1,60,3.0,110.0
11373,46.0,0,15,6.0,122.0
11374,55.0,13,0,11.0,117.0
11375,45.0,14,15,6.0,122.0
11376,51.0,1,45,12.0,117.0
11377,51.0,1,45,3.0,110.0
11378,46.0,2,15,6.0,122.0
11379,39.0,1,45,13.0,127.0
11380,79.0,10,0,1.0,98.0
11381,67.0,0,0,1.0,98.0
11382,67.0,1,0,2.0,94.0
11383,55.0,0,60,3.0,110.0
11384,45.0,15,15,6.0,122.0
11385,46.0,1,15,6.0,122.0
11386,53.0,1,20,12.0,117.0
11387,53.0,0,20,3.0,110.0
11388,41.0,1,20,13.0,127.0
11389,67.0,7,0,11.0,117.0
11390,45.0,14,15,6.0,122.0
11391,51.0,4,20,12.0,117.0
11392,51.0,1,20,3.0,110.0
11393,39.0,1,20,13.0,127.0
11394,46.0,2,15,6.0,122.0
11395,94.0,26,120,0.0,94.0
11396,82.0,0,120,0.0,94.0
11397,46.0,0,120,4.0,107.0
11398,58.0,0,120,4.0,107.0
11399,50.0,9,20,12.0,117.0
11400,50.0,1,20,3.0,110.0
11401,45.0,4,15,6.0,122.0
11402,38.0,1,20,13.0,127.0
11403,46.0,0,15,6.0,122.0
11404,55.0,13,0,11.0,117.0
11405,45.0,14,15,6.0,122.0
11406,51.0,1,45,12.0,117.0
11407,51.0,1,45,3.0,110.0
11408,46.0,2,15,6.0,122.0
11409,39.0,1,45,13.0,127.0
11410,79.0,0,0,1.0,98.0
11411,67.0,10,0,1.0,98.0
11412,55.0,0,0,3.0,110.0
11413,45.0,15,15,6.0,122.0
11414,46.0,0,15,6.0,122.0
11415,67.0,13,0,11.0,117.0
11416,45.0,14,15,6.0,122.0
11417,53.0,1,45,12.0,117.0
11418,53.0,1,45,3.0,110.0
11419,46.0,2,15,6.0,122.0
11420,41.0,1,45,13.0,127.0
11421,45.0,15,15,6.0,122.0
11422,46.0,0,15,6.0,122.0
11423,55.0,13,30,11.0,117.0
11424,45.0,14,15,6.0,122.0
11425,46.0,15,0,6.0,122.0
11426,79.0,0,300,8.0,117.0
11427,70.0,0,300,5.0,104.0
11428,79.0,0,0,1.0,98.0
11429,67.0,1,0,2.0,94.0
11430,67.0,1,300,10.0,112.0
11431,55.0,13,30,11.0,117.0
11432,55.0,2,0,3.0,110.0
11433,81.0,9,20,8.0,117.0
11434,69.0,0,20,10.0,112.0
11435,67.0,2,30,11.0,117.0
11436,79.0,14,20,8.0,117.0
11437,67.0,2,20,10.0,112.0
11438,78.0,6,20,8.0,117.0
11439,66.0,2,20,10.0,112.0
11440,67.0,12,30,11.0,117.0
11441,55.0,2,30,11.0,117.0
11442,79.0,18,45,8.0,117.0
11443,67.0,2,45,10.0,112.0
11444,67.0,1,120,1.0,98.0
11445,55.0,30,30,11.0,117.0
11446,67.0,28,0,11.0,117.0
11447,81.0,26,45,8.0,117.0
11448,69.0,1,45,10.0,112.0
11449,81.0,1,60,1.0,98.0
11450,69.0,0,60,1.0,98.0
11451,69.0,0,60,2.0,94.0
11452,57.0,2,60,3.0,110.0
11453,46.0,2,15,6.0,122.0
11454,55.0,13,0,11.0,117.0
11455,45.0,15,15,6.0,122.0
11456,46.0,2,15,6.0,122.0
11457,70.0,0,0,0.0,94.0
11458,82.0,9,0,0.0,94.0
11459,70.0,1,0,1.0,98.0
11460,82.0,0,60,1.0,98.0
11461,70.0,1,0,2.0,94.0
11462,55.0,1,300,12.0,117.0
11463,45.0,15,15,6.0,122.0
11464,58.0,0,0,3.0,110.0
11465,43.0,1,300,13.0,127.0
11466,46.0,0,15,6.0,122.0
11467,57.0,1,20,12.0,117.0
11468,57.0,1,20,3.0,110.0
11469,45.0,1,20,13.0,127.0
11470,67.0,2,30,11.0,117.0
11471,45.0,14,15,6.0,122.0
11472,55.0,4,20,12.0,117.0
11473,55.0,1,20,3.0,110.0
11474,43.0,1,20,13.0,127.0
11475,46.0,2,15,6.0,122.0
11476,58.0,0,120,4.0,107.0
11477,46.0,0,120,4.0,107.0
11478,67.0,7,30,11.0,117.0
11479,54.0,9,20,12.0,117.0
11480,54.0,1,20,3.0,110.0
11481,45.0,4,15,6.0,122.0
11482,42.0,1,20,13.0,127.0
11483,46.0,1,15,6.0,122.0
11484,55.0,13,0,11.0,117.0
11485,45.0,14,15,6.0,122.0
11486,55.0,1,45,12.0,117.0
11487,55.0,0,45,3.0,110.0
11488,46.0,2,15,6.0,122.0
11489,43.0,1,45,13.0,127.0
11490,82.0,1,0,1.0,98.0
11491,70.0,1,0,2.0,94.0
11492,45.0,15,15,6.0,122.0
11493,46.0,0,15,6.0,122.0
11494,67.0,2,30,11.0,117.0
11495,45.0,14,15,6.0,122.0
11496,57.0,1,45,12.0,117.0
11497,57.0,0,45,3.0,110.0
11498,46.0,2,15,6.0,122.0
11499,45.0,1,45,13.0,127.0
11500,67.0,13,30,11.0,117.0
11501,45.0,15,15,6.0,122.0
11502,46.0,0,15,6.0,122.0
11503,55.0,13,0,11.0,117.0
11504,45.0,14,15,6.0,122.0
11505,46.0,2,15,6.0,122.0
11506,82.0,0,300,8.0,117.0
11507,82.0,0,120,0.0,94.0
11508,70.0,9,0,0.0,94.0
11509,82.0,0,0,1.0,98.0
11510,70.0,1,0,1.0,98.0
11511,58.0,0,300,5.0,104.0
11512,70.0,1,300,5.0,104.0
11513,70.0,0,300,10.0,112.0
11514,70.0,1,0,2.0,94.0
11515,58.0,1,60,3.0,110.0
11516,46.0,15,15,6.0,122.0
11517,84.0,0,20,8.0,117.0
11518,72.0,0,20,10.0,112.0
11519,67.0,12,0,11.0,117.0
11520,82.0,14,20,8.0,117.0
11521,70.0,2,20,10.0,112.0
11522,81.0,6,20,8.0,117.0
11523,69.0,2,20,10.0,112.0
11524,58.0,1,120,12.0,117.0
11525,58.0,2,60,3.0,110.0
11526,46.0,1,120,13.0,127.0
11527,55.0,27,0,11.0,117.0
11528,82.0,18,45,8.0,117.0
11529,70.0,2,45,10.0,112.0
11530,82.0,0,120,0.0,94.0
11531,67.0,2,30,11.0,117.0
11532,84.0,26,45,8.0,117.0
11533,72.0,0,45,10.0,112.0
11534,84.0,0,60,0.0,94.0
11535,72.0,0,60,0.0,94.0
11536,84.0,0,60,1.0,98.0
11537,72.0,1,60,1.0,98.0
11538,72.0,1,60,2.0,94.0
11539,67.0,28,30,11.0,117.0
11540,52.0,1,120,12.0,117.0
11541,52.0,1,120,3.0,110.0
11542,60.0,2,60,3.0,110.0
11543,40.0,1,120,13.0,127.0
11544,57.0,27,0,11.0,117.0
11545,53.0,1,45,12.0,117.0
11546,53.0,0,45,3.0,110.0
11547,41.0,1,45,13.0,127.0
11548,81.0,26,0,0.0,94.0
11549,69.0,0,60,0.0,94.0
11550,81.0,0,0,1.0,98.0
11551,69.0,1,0,1.0,98.0
11552,69.0,1,60,2.0,94.0
11553,57.0,1,0,3.0,110.0
11554,55.0,1,20,12.0,117.0
11555,55.0,0,20,3.0,110.0
11556,43.0,1,20,13.0,127.0
11557,69.0,2,30,11.0,117.0
11558,53.0,18,20,12.0,117.0
11559,53.0,1,20,3.0,110.0
11560,41.0,1,20,13.0,127.0
11561,69.0,7,30,11.0,117.0
11562,52.0,11,20,12.0,117.0
11563,52.0,1,20,3.0,110.0
11564,40.0,1,20,13.0,127.0
11565,57.0,27,0,11.0,117.0
11566,53.0,1,45,12.0,117.0
11567,53.0,1,45,3.0,110.0
11568,41.0,1,45,13.0,127.0
11569,81.0,1,0,1.0,98.0
11570,69.0,0,0,1.0,98.0
11571,69.0,1,120,2.0,94.0
11572,57.0,1,0,3.0,110.0
11573,69.0,2,30,11.0,117.0
11574,55.0,1,45,12.0,117.0
11575,55.0,0,45,3.0,110.0
11576,43.0,1,45,13.0,127.0
11577,69.0,27,30,11.0,117.0
11578,57.0,30,30,11.0,117.0
11579,81.0,0,300,8.0,117.0
11580,81.0,26,0,0.0,94.0
11581,81.0,0,0,1.0,98.0
11582,69.0,1,120,2.0,94.0
11583,69.0,0,300,10.0,112.0
11584,57.0,27,30,11.0,117.0
11585,57.0,1,60,3.0,110.0
11586,82.0,0,20,8.0,117.0
11587,70.0,0,20,10.0,112.0
11588,69.0,2,30,11.0,117.0
11589,81.0,14,20,8.0,117.0
11590,69.0,2,20,10.0,112.0
11591,79.0,6,20,8.0,117.0
11592,67.0,2,20,10.0,112.0
11593,69.0,12,30,11.0,117.0
11594,57.0,2,30,11.0,117.0
11595,81.0,18,45,8.0,117.0
11596,69.0,2,45,10.0,112.0
11597,69.0,1,120,1.0,98.0
11598,69.0,1,120,2.0,94.0
11599,57.0,30,30,11.0,117.0
11600,57.0,2,120,3.0,110.0
11601,69.0,28,0,11.0,117.0
11602,82.0,26,45,8.0,117.0
11603,70.0,1,45,10.0,112.0
11604,82.0,0,60,0.0,94.0
11605,70.0,1,60,1.0,98.0
11606,82.0,0,60,1.0,98.0
11607,70.0,0,60,2.0,94.0
11608,58.0,2,60,3.0,110.0
11609,57.0,28,0,11.0,117.0
11610,84.0,0,60,0.0,94.0
11611,72.0,0,0,0.0,94.0
11612,72.0,1,0,1.0,98.0
11613,84.0,0,0,1.0,98.0
11614,72.0,0,60,2.0,94.0
11615,57.0,1,300,12.0,117.0
11616,60.0,2,60,3.0,110.0
11617,45.0,1,300,13.0,127.0
11618,58.0,1,20,12.0,117.0
11619,58.0,0,20,3.0,110.0
11620,46.0,1,20,13.0,127.0
11621,69.0,7,0,11.0,117.0
11622,57.0,18,20,12.0,117.0
11623,57.0,1,20,3.0,110.0
11624,45.0,1,20,13.0,127.0
11625,55.0,11,20,12.0,117.0
11626,55.0,1,20,3.0,110.0
11627,43.0,1,20,13.0,127.0
11628,57.0,27,0,11.0,117.0
11629,57.0,1,45,12.0,117.0
11630,57.0,1,45,3.0,110.0
11631,45.0,1,45,13.0,127.0
11632,84.0,26,120,0.0,94.0
11633,72.0,26,0,0.0,94.0
11634,72.0,1,0,2.0,94.0
11635,60.0,1,120,3.0,110.0
11636,69.0,2,30,11.0,117.0
11637,58.0,1,45,12.0,117.0
11638,58.0,0,45,3.0,110.0
11639,46.0,1,45,13.0,127.0
11640,69.0,27,30,11.0,117.0
11641,57.0,30,30,11.0,117.0
11642,84.0,0,300,8.0,117.0
11643,84.0,26,0,0.0,94.0
11644,72.0,0,0,0.0,94.0
11645,72.0,1,120,1.0,98.0
11646,84.0,0,120,1.0,98.0
11647,72.0,1,300,10.0,112.0
11648,57.0,27,30,11.0,117.0
11649,60.0,2,0,3.0,110.0
11650,86.0,0,20,8.0,117.0
11651,74.0,0,20,10.0,112.0
11652,69.0,12,0,11.0,117.0
11653,84.0,14,20,8.0,117.0
11654,72.0,2,20,10.0,112.0
11655,83.0,6,20,8.0,117.0
11656,71.0,2,20,10.0,112.0
11657,60.0,1,120,12.0,117.0
11658,48.0,1,120,13.0,127.0
11659,57.0,27,0,11.0,117.0
11660,84.0,18,45,8.0,117.0
11661,72.0,2,45,10.0,112.0
11662,72.0,0,120,1.0,98.0
11663,84.0,1,120,1.0,98.0
11664,72.0,1,120,2.0,94.0
11665,69.0,2,30,11.0,117.0
11666,86.0,0,45,8.0,117.0
11667,74.0,0,45,10.0,112.0
11668,74.0,0,60,0.0,94.0
11669,86.0,26,60,0.0,94.0
11670,86.0,0,60,1.0,98.0
11671,74.0,1,60,1.0,98.0
11672,74.0,1,60,2.0,94.0
11673,69.0,28,30,11.0,117.0
11674,54.0,1,120,12.0,117.0
11675,62.0,2,60,3.0,110.0
11676,54.0,1,120,3.0,110.0
11677,42.0,1,120,13.0,127.0
11678,67.0,2,30,11.0,117.0
11679,82.0,26,45,8.0,117.0
11680,70.0,0,45,10.0,112.0
11681,55.0,1,45,12.0,117.0
11682,55.0,1,45,3.0,110.0
11683,43.0,1,45,13.0,127.0
11684,82.0,0,60,0.0,94.0
11685,70.0,0,60,0.0,94.0
11686,70.0,0,60,1.0,98.0
11687,82.0,1,60,1.0,98.0
11688,70.0,1,60,2.0,94.0
11689,67.0,27,30,11.0,117.0
11690,58.0,1,0,3.0,110.0
11691,84.0,0,20,8.0,117.0
11692,72.0,0,20,10.0,112.0
11693,55.0,2,30,11.0,117.0
11694,82.0,13,20,8.0,117.0
11695,70.0,2,20,10.0,112.0
11696,43.0,1,45,12.0,117.0
11697,43.0,0,45,3.0,110.0
11698,31.0,1,45,13.0,127.0
11699,81.0,6,20,8.0,117.0
11700,69.0,2,20,10.0,112.0
11701,55.0,12,30,11.0,117.0
11702,67.0,27,0,11.0,117.0
11703,82.0,18,45,8.0,117.0
11704,70.0,1,45,10.0,112.0
11705,70.0,0,120,0.0,94.0
11706,82.0,26,120,0.0,94.0
11707,70.0,0,120,1.0,98.0
11708,82.0,1,120,1.0,98.0
11709,58.0,1,120,4.0,107.0
11710,46.0,0,0,4.0,107.0
11711,70.0,0,120,2.0,94.0
11712,69.0,28,0,11.0,117.0
11713,84.0,0,45,8.0,117.0
11714,72.0,1,45,10.0,112.0
11715,84.0,26,60,0.0,94.0
11716,72.0,0,60,0.0,94.0
11717,84.0,1,60,1.0,98.0
11718,72.0,0,60,1.0,98.0
11719,70.0,1,120,5.0,104.0
11720,58.0,0,120,5.0,104.0
11721,58.0,0,60,4.0,107.0
11722,72.0,0,60,2.0,94.0
11723,46.0,1,120,6.0,122.0
11724,60.0,2,60,3.0,110.0
11725,70.0,2,30,11.0,117.0
11726,86.0,26,45,8.0,117.0
11727,74.0,2,45,10.0,112.0
11728,70.0,30,30,11.0,117.0
11729,45.0,1,180,12.0,117.0
11730,45.0,0,180,3.0,110.0
11731,33.0,1,180,13.0,127.0
11732,75.0,0,20,8.0,117.0
11733,63.0,0,20,10.0,112.0
11734,58.0,2,30,11.0,117.0
11735,74.0,13,20,8.0,117.0
11736,62.0,2,20,10.0,112.0
11737,46.0,1,45,12.0,117.0
11738,46.0,1,45,3.0,110.0
11739,34.0,1,45,13.0,127.0
11740,72.0,6,20,8.0,117.0
11741,60.0,2,20,10.0,112.0
11742,58.0,12,30,11.0,117.0
11743,70.0,27,0,11.0,117.0
11744,74.0,18,45,8.0,117.0
11745,62.0,1,45,10.0,112.0
11746,82.0,0,0,0.0,94.0
11747,86.0,26,120,0.0,94.0
11748,82.0,1,120,1.0,98.0
11749,70.0,1,0,1.0,98.0
11750,46.0,0,120,4.0,107.0
11751,58.0,1,120,4.0,107.0
11752,74.0,0,120,2.0,94.0
11753,62.0,0,120,3.0,110.0
11754,72.0,2,30,11.0,117.0
11755,75.0,0,45,8.0,117.0
11756,63.0,0,45,10.0,112.0
11757,87.0,26,60,0.0,94.0
11758,58.0,1,120,5.0,104.0
11759,70.0,0,120,5.0,104.0
11760,82.0,0,60,1.0,98.0
11761,46.0,0,60,4.0,107.0
11762,58.0,0,60,4.0,107.0
11763,75.0,1,60,2.0,94.0
11764,72.0,28,30,11.0,117.0
11765,46.0,1,120,6.0,122.0
11766,63.0,2,60,3.0,110.0
11767,74.0,2,30,11.0,117.0
11768,77.0,26,45,8.0,117.0
11769,65.0,2,45,10.0,112.0
11770,74.0,30,30,11.0,117.0
11771,48.0,1,180,12.0,117.0
11772,48.0,0,180,3.0,110.0
11773,36.0,1,180,13.0,127.0
11774,79.0,26,20,8.0,117.0
11775,67.0,0,20,10.0,112.0
11776,48.0,2,30,11.0,117.0
11777,77.0,13,20,8.0,117.0
11778,65.0,2,20,10.0,112.0
11779,48.0,1,45,12.0,117.0
11780,48.0,1,45,3.0,110.0
11781,36.0,1,45,13.0,127.0
11782,76.0,6,20,8.0,117.0
11783,64.0,2,20,10.0,112.0
11784,48.0,12,30,11.0,117.0
11785,60.0,27,0,11.0,117.0
11786,77.0,18,45,8.0,117.0
11787,65.0,1,45,10.0,112.0
11788,89.0,0,120,0.0,94.0
11789,82.0,0,0,0.0,94.0
11790,70.0,1,0,1.0,98.0
11791,82.0,0,0,1.0,98.0
11792,58.0,0,120,4.0,107.0
11793,46.0,1,120,4.0,107.0
11794,77.0,0,120,2.0,94.0
11795,65.0,0,120,3.0,110.0
11796,62.0,2,30,11.0,117.0
11797,78.0,26,45,8.0,117.0
11798,66.0,0,45,10.0,112.0
11799,90.0,0,60,0.0,94.0
11800,70.0,1,120,5.0,104.0
11801,58.0,0,120,5.0,104.0
11802,78.0,1,60,2.0,94.0
11803,58.0,0,60,4.0,107.0
11804,46.0,0,60,4.0,107.0
11805,62.0,28,30,11.0,117.0
11806,66.0,2,60,3.0,110.0
11807,46.0,0,120,6.0,122.0
11808,63.0,30,0,11.0,117.0
11809,79.0,26,45,8.0,117.0
11810,67.0,2,45,10.0,112.0
11811,50.0,1,180,12.0,117.0
11812,50.0,1,180,3.0,110.0
11813,38.0,1,180,13.0,127.0
11814,81.0,0,20,8.0,117.0
11815,69.0,0,20,10.0,112.0
11816,51.0,12,0,11.0,117.0
11817,79.0,13,20,8.0,117.0
11818,67.0,2,20,10.0,112.0
11819,51.0,1,45,12.0,117.0
11820,51.0,0,45,3.0,110.0
11821,39.0,1,45,13.0,127.0
11822,78.0,6,20,8.0,117.0
11823,66.0,2,20,10.0,112.0
11824,63.0,27,0,11.0,117.0
11825,79.0,18,45,8.0,117.0
11826,67.0,1,45,10.0,112.0
11827,82.0,26,0,0.0,94.0
11828,91.0,0,120,0.0,94.0
11829,82.0,0,120,1.0,98.0
11830,70.0,1,120,1.0,98.0
11831,79.0,0,120,2.0,94.0
11832,46.0,1,120,4.0,107.0
11833,58.0,0,120,4.0,107.0
11834,67.0,1,120,3.0,110.0
11835,65.0,28,0,11.0,117.0
11836,81.0,0,45,8.0,117.0
11837,69.0,0,45,10.0,112.0
11838,82.0,0,0,0.0,94.0
11839,93.0,0,60,0.0,94.0
11840,70.0,0,120,5.0,104.0
11841,58.0,1,120,5.0,104.0
11842,82.0,1,60,1.0,98.0
11843,70.0,0,60,1.0,98.0
11844,81.0,0,60,2.0,94.0
11845,46.0,1,60,4.0,107.0
11846,58.0,0,60,4.0,107.0
11847,57.0,2,60,3.0,110.0
11848,46.0,1,120,6.0,122.0
11849,67.0,2,30,11.0,117.0
11850,82.0,26,45,8.0,117.0
11851,70.0,2,45,10.0,112.0
11852,67.0,30,30,11.0,117.0
11853,53.0,1,180,12.0,117.0
11854,53.0,0,180,3.0,110.0
11855,41.0,1,180,13.0,127.0
11856,84.0,26,20,0.0,94.0
11857,84.0,0,20,8.0,117.0
11858,72.0,1,20,10.0,112.0
11859,55.0,2,30,11.0,117.0
11860,82.0,13,20,0.0,94.0
11861,82.0,0,20,8.0,117.0
11862,70.0,2,20,10.0,112.0
11863,54.0,1,45,12.0,117.0
11864,54.0,0,45,3.0,110.0
11865,42.0,1,45,13.0,127.0
11866,81.0,0,20,8.0,117.0
11867,81.0,6,20,0.0,94.0
11868,69.0,2,20,10.0,112.0
11869,55.0,12,30,11.0,117.0
11870,67.0,2,30,11.0,117.0
11871,82.0,18,45,0.0,94.0
11872,82.0,0,45,8.0,117.0
11873,70.0,1,45,10.0,112.0
11874,70.0,1,0,1.0,98.0
11875,82.0,0,0,1.0,98.0
11876,46.0,0,120,4.0,107.0
11877,58.0,0,120,4.0,107.0
11878,82.0,0,120,2.0,94.0
11879,70.0,0,120,2.0,94.0
11880,67.0,27,30,11.0,117.0
11881,58.0,1,120,3.0,110.0
11882,66.0,2,30,11.0,117.0
11883,81.0,0,45,0.0,94.0
11884,81.0,26,45,8.0,117.0
11885,69.0,1,45,10.0,112.0
11886,70.0,0,120,5.0,104.0
11887,58.0,1,120,5.0,104.0
11888,58.0,0,60,4.0,107.0
11889,46.0,0,60,4.0,107.0
11890,81.0,0,60,2.0,94.0
11891,69.0,0,60,2.0,94.0
11892,66.0,28,30,11.0,117.0
11893,57.0,2,60,3.0,110.0
11894,46.0,1,120,6.0,122.0
11895,67.0,30,0,11.0,117.0
11896,82.0,0,45,0.0,94.0
11897,82.0,26,45,8.0,117.0
11898,70.0,2,45,10.0,112.0
11899,55.0,1,180,12.0,117.0
11900,55.0,0,180,3.0,110.0
11901,43.0,1,180,13.0,127.0
11902,84.0,0,20,0.0,94.0
11903,84.0,26,20,8.0,117.0
11904,72.0,0,20,10.0,112.0
11905,66.0,2,30,11.0,117.0
11906,82.0,13,20,0.0,94.0
11907,82.0,0,20,8.0,117.0
11908,70.0,2,20,10.0,112.0
11909,54.0,1,45,12.0,117.0
11910,54.0,1,45,3.0,110.0
11911,42.0,1,45,13.0,127.0
11912,81.0,0,20,8.0,117.0
11913,81.0,6,20,0.0,94.0
11914,69.0,2,20,10.0,112.0
11915,66.0,12,30,11.0,117.0
11916,67.0,2,30,11.0,117.0
11917,82.0,18,45,0.0,94.0
11918,82.0,0,45,8.0,117.0
11919,70.0,1,45,10.0,112.0
11920,55.0,1,45,12.0,117.0
11921,55.0,0,45,3.0,110.0
11922,43.0,1,45,13.0,127.0
11923,70.0,0,120,1.0,98.0
11924,82.0,1,0,1.0,98.0
11925,70.0,1,120,2.0,94.0
11926,46.0,0,120,4.0,107.0
11927,58.0,0,120,4.0,107.0
11928,82.0,0,120,2.0,94.0
11929,67.0,27,30,11.0,117.0
11930,58.0,0,120,3.0,110.0
11931,66.0,27,0,11.0,117.0
11932,81.0,26,45,8.0,117.0
11933,81.0,0,45,0.0,94.0
11934,69.0,0,45,10.0,112.0
11935,54.0,1,45,12.0,117.0
11936,54.0,1,45,3.0,110.0
11937,42.0,1,45,13.0,127.0
11938,70.0,0,60,1.0,98.0
11939,58.0,0,0,5.0,104.0
11940,70.0,1,0,5.0,104.0
11941,46.0,0,60,4.0,107.0
11942,58.0,0,60,4.0,107.0
11943,69.0,1,60,2.0,94.0
11944,81.0,0,60,2.0,94.0
11945,57.0,0,60,3.0,110.0
11946,46.0,0,0,6.0,122.0
11947,82.0,26,30,8.0,117.0
11948,70.0,0,30,10.0,112.0
11949,67.0,2,0,11.0,117.0
11950,45.0,14,15,6.0,122.0
11951,46.0,2,15,6.0,122.0
11952,82.0,9,30,8.0,117.0
11953,82.0,0,60,1.0,98.0
11954,70.0,0,0,1.0,98.0
11955,70.0,0,60,2.0,94.0
11956,82.0,0,60,2.0,94.0
11957,70.0,0,0,10.0,112.0
11958,58.0,0,60,3.0,110.0
11959,45.0,15,15,6.0,122.0
11960,46.0,2,15,6.0,122.0
11961,82.0,9,30,8.0,117.0
11962,70.0,2,0,10.0,112.0
11963,55.0,2,0,11.0,117.0
11964,45.0,15,15,6.0,122.0
11965,46.0,2,15,6.0,122.0
11966,82.0,9,0,8.0,117.0
11967,55.0,1,120,12.0,117.0
11968,45.0,15,15,6.0,122.0
11969,55.0,1,120,3.0,110.0
11970,43.0,1,120,13.0,127.0
11971,46.0,1,15,6.0,122.0
11972,70.0,2,30,10.0,112.0
11973,57.0,2,0,11.0,117.0
11974,45.0,14,15,6.0,122.0
11975,46.0,2,15,6.0,122.0
11976,82.0,9,30,8.0,117.0
11977,82.0,1,120,1.0,98.0
11978,70.0,0,0,10.0,112.0
11979,82.0,1,0,2.0,94.0
11980,70.0,0,0,2.0,94.0
11981,57.0,2,0,11.0,117.0
11982,58.0,0,120,3.0,110.0
11983,45.0,15,15,6.0,122.0
11984,46.0,0,15,6.0,122.0
11985,82.0,9,30,8.0,117.0
11986,45.0,15,15,6.0,122.0
11987,46.0,2,15,6.0,122.0
11988,82.0,9,0,8.0,117.0
11989,70.0,2,0,10.0,112.0
11990,57.0,2,30,11.0,117.0
11991,57.0,1,120,12.0,117.0
11992,57.0,0,120,3.0,110.0
11993,45.0,15,15,6.0,122.0
11994,45.0,1,120,13.0,127.0
11995,46.0,0,15,6.0,122.0
11996,82.0,9,0,8.0,117.0
11997,58.0,2,0,11.0,117.0
11998,45.0,14,15,6.0,122.0
11999,46.0,2,15,6.0,122.0
12000,82.0,9,0,8.0,117.0
12001,70.0,0,120,1.0,98.0
12002,82.0,0,0,1.0,98.0
12003,70.0,1,0,10.0,112.0
12004,82.0,0,0,2.0,94.0
12005,70.0,0,0,2.0,94.0
12006,45.0,15,15,6.0,122.0
12007,58.0,0,0,3.0,110.0
12008,46.0,2,15,6.0,122.0
12009,82.0,9,0,8.0,117.0
12010,70.0,2,0,10.0,112.0
12011,58.0,2,30,11.0,117.0
12012,45.0,15,15,6.0,122.0
12013,46.0,2,15,6.0,122.0
12014,58.0,2,30,11.0,117.0
12015,58.0,1,120,12.0,117.0
12016,45.0,15,15,6.0,122.0
12017,46.0,1,120,13.0,127.0
12018,46.0,1,15,6.0,122.0
12019,82.0,9,30,8.0,117.0
12020,70.0,2,0,10.0,112.0
12021,59.0,2,30,11.0,117.0
12022,45.0,14,15,6.0,122.0
12023,46.0,2,15,6.0,122.0
12024,82.0,9,0,8.0,117.0
12025,82.0,1,0,1.0,98.0
12026,70.0,1,120,1.0,98.0
12027,70.0,1,0,10.0,112.0
12028,59.0,2,0,11.0,117.0
12029,45.0,15,15,6.0,122.0
12030,46.0,2,15,6.0,122.0
12031,59.0,2,0,11.0,117.0
12032,45.0,15,15,6.0,122.0
12033,46.0,2,15,6.0,122.0
12034,82.0,9,0,8.0,117.0
12035,70.0,2,0,10.0,112.0
12036,59.0,1,120,12.0,117.0
12037,59.0,0,120,3.0,110.0
12038,45.0,15,15,6.0,122.0
12039,47.0,1,120,13.0,127.0
12040,60.0,2,30,11.0,117.0
12041,70.0,0,540,0.0,94.0
12042,82.0,0,540,0.0,94.0
12043,82.0,26,0,8.0,117.0
12044,70.0,0,120,1.0,98.0
12045,82.0,0,120,2.0,94.0
12046,70.0,1,0,10.0,112.0
12047,70.0,0,120,2.0,94.0
12048,60.0,2,30,11.0,117.0
12049,58.0,0,120,3.0,110.0
12050,82.0,24,0,8.0,117.0
12051,70.0,2,0,10.0,112.0
12052,60.0,2,30,11.0,117.0
12053,58.0,0,0,5.0,104.0
12054,70.0,1,0,5.0,104.0
12055,58.0,0,600,4.0,107.0
12056,46.0,1,600,4.0,107.0
12057,60.0,2,30,11.0,117.0
12058,60.0,1,120,12.0,117.0
12059,60.0,0,120,3.0,110.0
12060,46.0,1,120,6.0,122.0
12061,48.0,1,120,13.0,127.0
12062,79.0,26,30,8.0,117.0
12063,67.0,2,0,10.0,112.0
12064,62.0,2,0,11.0,117.0
12065,79.0,26,0,8.0,117.0
12066,82.0,0,120,0.0,94.0
12067,70.0,0,120,1.0,98.0
12068,82.0,1,120,1.0,98.0
12069,82.0,0,120,2.0,94.0
12070,70.0,0,120,2.0,94.0
12071,67.0,1,0,10.0,112.0
12072,62.0,2,0,11.0,117.0
12073,58.0,2,120,3.0,110.0
12074,79.0,24,30,8.0,117.0
12075,70.0,0,0,5.0,104.0
12076,67.0,2,30,10.0,112.0
12077,58.0,0,0,4.0,107.0
12078,46.0,0,120,4.0,107.0
12079,62.0,2,30,11.0,117.0
12080,62.0,1,120,12.0,117.0
12081,62.0,1,120,3.0,110.0
12082,46.0,0,120,6.0,122.0
12083,50.0,1,120,13.0,127.0
12084,75.0,26,30,8.0,117.0
12085,63.0,2,0,10.0,112.0
12086,63.0,2,30,11.0,117.0
12087,75.0,23,30,8.0,117.0
12088,91.0,0,120,0.0,94.0
12089,79.0,0,120,1.0,98.0
12090,67.0,1,120,1.0,98.0
12091,79.0,0,120,2.0,94.0
12092,67.0,0,120,2.0,94.0
12093,63.0,0,0,10.0,112.0
12094,63.0,2,0,11.0,117.0
12095,67.0,2,120,3.0,110.0
12096,75.0,26,30,8.0,117.0
12097,75.0,24,30,8.0,117.0
12098,58.0,1,120,5.0,104.0
12099,63.0,2,30,10.0,112.0
12100,46.0,0,0,4.0,107.0
12101,63.0,2,30,11.0,117.0
12102,63.0,1,120,12.0,117.0
12103,46.0,1,0,6.0,122.0
12104,63.0,2,60,3.0,110.0
12105,51.0,1,120,13.0,127.0
12106,72.0,23,0,8.0,117.0
12107,60.0,1,30,10.0,112.0
12108,64.0,2,0,11.0,117.0
12109,72.0,0,0,8.0,117.0
12110,87.0,0,120,0.0,94.0
12111,75.0,1,120,1.0,98.0
12112,75.0,0,120,2.0,94.0
12113,60.0,0,0,10.0,112.0
12114,63.0,1,120,2.0,94.0
12115,60.0,2,0,10.0,112.0
12116,64.0,2,30,11.0,117.0
12117,72.0,24,30,8.0,117.0
12118,84.0,26,60,0.0,94.0
12119,58.0,1,120,5.0,104.0
12120,70.0,0,120,5.0,104.0
12121,72.0,1,60,1.0,98.0
12122,58.0,0,120,4.0,107.0
12123,60.0,1,60,2.0,94.0
12124,72.0,0,60,2.0,94.0
12125,64.0,2,30,11.0,117.0
12126,64.0,1,120,12.0,117.0
12127,64.0,0,120,3.0,110.0
12128,60.0,2,60,3.0,110.0
12129,52.0,1,120,13.0,127.0
12130,70.0,23,0,8.0,117.0
12131,58.0,2,0,10.0,112.0
12132,65.0,2,30,11.0,117.0
12133,58.0,2,0,10.0,112.0
12134,65.0,2,30,11.0,117.0
12135,70.0,26,0,8.0,117.0
12136,65.0,2,0,11.0,117.0
12137,82.0,0,120,0.0,94.0
12138,70.0,0,120,0.0,94.0
12139,70.0,0,120,1.0,98.0
12140,70.0,0,120,2.0,94.0
12141,58.0,0,120,2.0,94.0
12142,58.0,2,30,10.0,112.0
12143,65.0,2,0,11.0,117.0
12144,77.0,0,30,8.0,117.0
12145,77.0,0,30,10.0,112.0
12146,77.0,26,30,8.0,117.0
12147,77.0,2,0,10.0,112.0
12148,65.0,2,30,11.0,117.0
12149,77.0,26,30,8.0,117.0
12150,77.0,2,0,10.0,112.0
12151,65.0,2,30,11.0,117.0
12152,77.0,26,30,8.0,117.0
12153,89.0,0,120,0.0,94.0
12154,77.0,26,120,0.0,94.0
12155,77.0,1,120,1.0,98.0
12156,65.0,1,120,2.0,94.0
12157,77.0,0,120,2.0,94.0
12158,65.0,2,30,11.0,117.0
12159,74.0,26,30,8.0,117.0
12160,74.0,0,30,10.0,112.0
12161,62.0,2,30,11.0,117.0
12162,74.0,26,0,8.0,117.0
12163,74.0,2,0,10.0,112.0
12164,62.0,2,30,11.0,117.0
12165,74.0,26,0,8.0,117.0
12166,62.0,2,0,11.0,117.0
12167,86.0,0,120,0.0,94.0
12168,74.0,0,120,0.0,94.0
12169,74.0,1,120,1.0,98.0
12170,74.0,2,30,10.0,112.0
12171,74.0,0,120,2.0,94.0
12172,62.0,1,120,2.0,94.0
12173,70.0,26,0,8.0,117.0
12174,70.0,1,30,10.0,112.0
12175,58.0,2,30,11.0,117.0
12176,70.0,26,0,8.0,117.0
12177,70.0,2,0,10.0,112.0
12178,58.0,2,30,11.0,117.0
12179,70.0,26,0,8.0,117.0
12180,70.0,2,0,10.0,112.0
12181,58.0,2,30,11.0,117.0
12182,82.0,0,120,0.0,94.0
12183,70.0,0,120,0.0,94.0
12184,70.0,1,120,1.0,98.0
12185,70.0,0,120,2.0,94.0
12186,58.0,0,120,2.0,94.0
12187,58.0,2,30,11.0,117.0
12188,65.0,1,540,12.0,117.0
12189,65.0,1,540,3.0,110.0
12190,53.0,0,540,3.0,110.0
12191,53.0,1,540,13.0,127.0
12192,65.0,26,120,8.0,117.0
12193,89.0,0,120,0.0,94.0
12194,77.0,0,120,0.0,94.0
12195,77.0,1,600,5.0,104.0
12196,65.0,1,120,1.0,98.0
12197,77.0,0,120,1.0,98.0
12198,65.0,0,120,2.0,94.0
12199,65.0,1,600,4.0,107.0
12200,53.0,0,120,2.0,94.0
12201,65.0,1,120,10.0,112.0
12202,53.0,2,120,11.0,117.0
12203,63.0,61,60,12.0,117.0
12204,51.0,1,60,3.0,110.0
12205,63.0,0,60,3.0,110.0
12206,51.0,1,60,13.0,127.0
12207,60.0,58,45,12.0,117.0
12208,48.0,0,45,3.0,110.0
12209,60.0,1,45,3.0,110.0
12210,48.0,1,45,13.0,127.0
12211,58.0,58,45,12.0,117.0
12212,46.0,0,45,3.0,110.0
12213,58.0,1,45,3.0,110.0
12214,46.0,1,45,13.0,127.0
12215,57.0,1,45,12.0,117.0
12216,57.0,0,45,3.0,110.0
12217,45.0,1,45,3.0,110.0
12218,45.0,1,45,13.0,127.0
12219,55.0,58,45,12.0,117.0
12220,43.0,0,45,3.0,110.0
12221,55.0,1,45,3.0,110.0
12222,43.0,1,45,13.0,127.0
12223,65.0,53,120,8.0,117.0
12224,72.0,0,120,8.0,117.0
12225,81.0,0,120,8.0,117.0
12226,89.0,0,120,0.0,94.0
12227,84.0,0,120,0.0,94.0
12228,77.0,1,120,5.0,104.0
12229,81.0,0,120,1.0,98.0
12230,77.0,0,120,1.0,98.0
12231,72.0,1,120,2.0,94.0
12232,65.0,0,120,10.0,112.0
12233,72.0,0,120,10.0,112.0
12234,65.0,0,120,4.0,107.0
12235,81.0,0,120,10.0,112.0
12236,69.0,0,120,2.0,94.0
12237,60.0,2,120,11.0,117.0
12238,53.0,0,120,11.0,117.0
12239,53.0,58,45,12.0,117.0
12240,41.0,1,45,3.0,110.0
12241,53.0,0,45,3.0,110.0
12242,41.0,1,45,13.0,127.0
12243,51.0,58,45,12.0,117.0
12244,39.0,1,45,3.0,110.0
12245,51.0,0,45,3.0,110.0
12246,39.0,1,45,13.0,127.0
12247,70.0,0,60,2.0,94.0
12248,58.0,1,60,3.0,110.0
12249,69.0,55,60,2.0,94.0
12250,50.0,1,120,12.0,117.0
12251,57.0,4,60,3.0,110.0
12252,38.0,1,120,13.0,127.0
12253,67.0,56,60,2.0,94.0
12254,55.0,4,60,3.0,110.0
12255,65.0,56,60,2.0,94.0
12256,53.0,4,60,3.0,110.0
12257,75.0,55,60,1.0,98.0
12258,63.0,5,60,3.0,110.0
12259,74.0,55,60,1.0,98.0
12260,62.0,5,60,3.0,110.0
12261,72.0,55,60,1.0,98.0
12262,60.0,5,60,3.0,110.0
12263,70.0,55,60,1.0,98.0
12264,58.0,5,60,3.0,110.0
12265,79.0,54,60,0.0,94.0
12266,75.0,1,60,1.0,98.0
12267,67.0,1,60,2.0,94.0
12268,63.0,0,60,2.0,94.0
12269,77.0,58,60,0.0,94.0
12270,74.0,1,60,1.0,98.0
12271,62.0,1,60,2.0,94.0
12272,65.0,0,60,2.0,94.0
12273,75.0,58,60,0.0,94.0
12274,72.0,1,60,1.0,98.0
12275,63.0,1,60,2.0,94.0
12276,60.0,0,60,2.0,94.0
12277,65.0,53,720,8.0,117.0
12278,74.0,58,60,0.0,94.0
12279,70.0,1,60,1.0,98.0
12280,62.0,0,60,2.0,94.0
12281,58.0,1,60,2.0,94.0
12282,58.0,2,720,10.0,112.0
12283,50.0,2,720,11.0,117.0
12284,84.0,0,60,0.0,94.0
12285,81.0,1,60,1.0,98.0
12286,72.0,0,60,2.0,94.0
12287,69.0,0,60,2.0,94.0
12288,82.0,56,60,0.0,94.0
12289,79.0,1,60,1.0,98.0
12290,70.0,0,60,2.0,94.0
12291,67.0,1,60,2.0,94.0
12292,81.0,58,60,0.0,94.0
12293,77.0,1,60,1.0,98.0
12294,69.0,0,60,2.0,94.0
12295,65.0,1,60,2.0,94.0
12296,67.0,58,240,8.0,117.0
12297,79.0,58,60,0.0,94.0
12298,75.0,1,60,1.0,98.0
12299,58.0,1,240,10.0,112.0
12300,67.0,0,60,2.0,94.0
12301,63.0,1,60,2.0,94.0
12302,51.0,2,240,11.0,117.0
12303,62.0,0,60,8.0,117.0
12304,58.0,0,60,10.0,112.0
12305,53.0,4,0,11.0,117.0
12306,65.0,53,45,8.0,117.0
12307,62.0,0,120,2.0,94.0
12308,65.0,1,120,2.0,94.0
12309,67.0,56,45,8.0,117.0
12310,55.0,4,45,11.0,117.0
12311,69.0,56,45,8.0,117.0
12312,57.0,4,45,11.0,117.0
12313,70.0,56,45,8.0,117.0
12314,58.0,4,45,11.0,117.0
12315,65.0,56,45,8.0,117.0
12316,53.0,4,45,11.0,117.0
12317,77.0,58,360,0.0,94.0
12318,74.0,1,360,1.0,98.0
12319,62.0,0,360,3.0,110.0
12320,65.0,1,360,3.0,110.0
12321,72.0,56,45,8.0,117.0
12322,60.0,3,45,11.0,117.0
12323,65.0,54,45,8.0,117.0
12324,53.0,4,45,11.0,117.0
12325,75.0,0,120,0.0,94.0
12326,72.0,1,120,1.0,98.0
12327,60.0,2,120,3.0,110.0
12328,63.0,0,120,3.0,110.0
12329,74.0,56,45,8.0,117.0
12330,62.0,3,45,11.0,117.0
12331,65.0,54,45,8.0,117.0
12332,53.0,4,45,11.0,117.0
12333,75.0,56,45,8.0,117.0
12334,63.0,4,45,11.0,117.0
12335,65.0,56,45,8.0,117.0
12336,53.0,4,45,11.0,117.0
12337,74.0,0,240,0.0,94.0
12338,70.0,1,240,1.0,98.0
12339,53.0,1,720,12.0,117.0
12340,58.0,0,240,3.0,110.0
12341,62.0,2,240,3.0,110.0
12342,41.0,1,720,13.0,127.0
12343,77.0,56,90,8.0,117.0
12344,65.0,3,90,11.0,117.0
12345,77.0,113,90,8.0,117.0
12346,65.0,4,90,11.0,117.0
12347,72.0,0,240,0.0,94.0
12348,69.0,1,240,1.0,98.0
12349,51.0,1,240,12.0,117.0
12350,53.0,1,240,3.0,110.0
12351,60.0,0,240,3.0,110.0
12352,39.0,1,240,13.0,127.0
12353,70.0,0,30,8.0,117.0
12354,58.0,4,0,11.0,117.0
12355,82.0,116,60,0.0,94.0
12356,70.0,23,30,8.0,117.0
12357,70.0,2,60,2.0,94.0
12358,58.0,1,60,3.0,110.0
12359,69.0,24,0,8.0,117.0
12360,57.0,2,30,11.0,117.0
12361,81.0,26,60,0.0,94.0
12362,69.0,2,60,2.0,94.0
12363,57.0,4,30,11.0,117.0
12364,57.0,2,60,3.0,110.0
12365,67.0,24,0,8.0,117.0
12366,55.0,2,30,11.0,117.0
12367,79.0,0,60,0.0,94.0
12368,67.0,2,60,2.0,94.0
12369,55.0,4,30,11.0,117.0
12370,55.0,2,60,3.0,110.0
12371,65.0,0,30,8.0,117.0
12372,53.0,2,30,11.0,117.0
12373,77.0,26,60,0.0,94.0
12374,65.0,24,30,8.0,117.0
12375,65.0,2,60,2.0,94.0
12376,53.0,4,30,11.0,117.0
12377,53.0,2,60,3.0,110.0
12378,75.0,24,0,8.0,117.0
12379,63.0,4,0,11.0,117.0
12380,87.0,26,60,0.0,94.0
12381,75.0,2,60,2.0,94.0
12382,63.0,2,60,3.0,110.0
12383,74.0,0,30,8.0,117.0
12384,62.0,4,0,11.0,117.0
12385,74.0,24,30,8.0,117.0
12386,86.0,26,60,0.0,94.0
12387,74.0,2,60,2.0,94.0
12388,62.0,2,60,3.0,110.0
12389,72.0,0,30,8.0,117.0
12390,60.0,2,30,11.0,117.0
12391,72.0,24,30,8.0,117.0
12392,84.0,26,60,0.0,94.0
12393,72.0,2,60,2.0,94.0
12394,60.0,4,30,11.0,117.0
12395,60.0,2,60,3.0,110.0
12396,70.0,24,0,8.0,117.0
12397,58.0,2,30,11.0,117.0
12398,82.0,0,60,0.0,94.0
12399,70.0,2,60,2.0,94.0
12400,58.0,4,30,11.0,117.0
12401,58.0,2,60,3.0,110.0
12402,79.0,24,0,8.0,117.0
12403,67.0,1,30,10.0,112.0
12404,63.0,2,0,11.0,117.0
12405,91.0,0,60,0.0,94.0
12406,87.0,0,60,0.0,94.0
12407,79.0,0,60,1.0,98.0
12408,75.0,1,60,1.0,98.0
12409,67.0,2,30,10.0,112.0
12410,79.0,0,60,2.0,94.0
12411,75.0,0,60,2.0,94.0
12412,63.0,0,60,3.0,110.0
12413,67.0,2,60,3.0,110.0
12414,77.0,26,30,8.0,117.0
12415,65.0,1,30,10.0,112.0
12416,62.0,2,30,11.0,117.0
12417,89.0,0,60,0.0,94.0
12418,86.0,0,60,0.0,94.0
12419,77.0,24,30,8.0,117.0
12420,74.0,1,60,1.0,98.0
12421,77.0,0,60,1.0,98.0
12422,65.0,2,30,10.0,112.0
12423,77.0,0,60,2.0,94.0
12424,74.0,0,60,2.0,94.0
12425,62.0,2,30,11.0,117.0
12426,62.0,0,60,3.0,110.0
12427,65.0,2,60,3.0,110.0
12428,75.0,0,30,8.0,117.0
12429,63.0,0,30,10.0,112.0
12430,60.0,2,0,11.0,117.0
12431,75.0,24,30,8.0,117.0
12432,87.0,26,60,0.0,94.0
12433,84.0,0,60,0.0,94.0
12434,75.0,1,60,1.0,98.0
12435,72.0,0,60,1.0,98.0
12436,75.0,1,60,2.0,94.0
12437,72.0,0,60,2.0,94.0
12438,63.0,2,30,10.0,112.0
12439,60.0,2,60,3.0,110.0
12440,63.0,0,60,3.0,110.0
12441,74.0,0,30,8.0,117.0
12442,62.0,2,0,10.0,112.0
12443,58.0,2,30,11.0,117.0
12444,86.0,0,60,0.0,94.0
12445,82.0,26,60,0.0,94.0
12446,74.0,24,30,8.0,117.0
12447,74.0,0,60,1.0,98.0
12448,70.0,1,60,1.0,98.0
12449,70.0,0,60,2.0,94.0
12450,74.0,0,60,2.0,94.0
12451,58.0,2,30,11.0,117.0
12452,50.0,1,720,12.0,117.0
12453,58.0,0,60,3.0,110.0
12454,62.0,2,60,3.0,110.0
12455,38.0,1,720,13.0,127.0
12456,84.0,23,0,8.0,117.0
12457,72.0,2,0,10.0,112.0
12458,69.0,2,30,11.0,117.0
12459,81.0,0,60,0.0,94.0
12460,84.0,26,60,0.0,94.0
12461,84.0,1,60,1.0,98.0
12462,81.0,0,60,1.0,98.0
12463,69.0,1,60,2.0,94.0
12464,72.0,0,60,2.0,94.0
12465,69.0,2,30,11.0,117.0
12466,57.0,1,60,3.0,110.0
12467,60.0,0,60,3.0,110.0
12468,82.0,24,0,8.0,117.0
12469,70.0,0,30,10.0,112.0
12470,67.0,2,30,11.0,117.0
12471,79.0,26,60,0.0,94.0
12472,82.0,0,60,0.0,94.0
12473,82.0,0,60,1.0,98.0
12474,79.0,1,60,1.0,98.0
12475,70.0,0,60,2.0,94.0
12476,67.0,1,60,2.0,94.0
12477,70.0,2,30,10.0,112.0
12478,67.0,2,30,11.0,117.0
12479,58.0,2,60,3.0,110.0
12480,55.0,0,60,3.0,110.0
12481,81.0,0,30,8.0,117.0
12482,69.0,2,0,10.0,112.0
12483,65.0,2,30,11.0,117.0
12484,81.0,26,60,0.0,94.0
12485,77.0,0,60,0.0,94.0
12486,81.0,24,30,8.0,117.0
12487,77.0,1,60,1.0,98.0
12488,81.0,0,60,1.0,98.0
12489,65.0,1,60,2.0,94.0
12490,69.0,0,60,2.0,94.0
12491,65.0,2,30,11.0,117.0
12492,53.0,2,60,3.0,110.0
12493,57.0,0,60,3.0,110.0
12494,79.0,24,0,8.0,117.0
12495,67.0,2,0,10.0,112.0
12496,63.0,2,30,11.0,117.0
12497,75.0,26,60,0.0,94.0
12498,79.0,0,60,0.0,94.0
12499,79.0,0,60,1.0,98.0
12500,75.0,1,60,1.0,98.0
12501,67.0,0,60,2.0,94.0
12502,63.0,0,60,2.0,94.0
12503,63.0,2,30,11.0,117.0
12504,51.0,1,240,12.0,117.0
12505,51.0,2,60,3.0,110.0
12506,55.0,0,60,3.0,110.0
12507,39.0,1,240,13.0,127.0
12508,77.0,23,0,8.0,117.0
12509,65.0,1,30,10.0,112.0
12510,62.0,2,30,11.0,117.0
12511,53.0,1,45,12.0,117.0
12512,41.0,1,45,13.0,127.0
12513,65.0,2,0,10.0,112.0
12514,62.0,2,0,11.0,117.0
12515,77.0,23,0,8.0,117.0
12516,62.0,2,0,11.0,117.0
12517,53.0,1,45,12.0,117.0
12518,41.0,2,45,13.0,127.0
12519,74.0,0,120,0.0,94.0
12520,77.0,26,0,8.0,117.0
12521,77.0,26,120,0.0,94.0
12522,62.0,0,120,2.0,94.0
12523,65.0,0,120,2.0,94.0
12524,65.0,2,30,10.0,112.0
12525,50.0,1,120,3.0,110.0
12526,53.0,0,120,3.0,110.0
12527,77.0,23,0,8.0,117.0
12528,65.0,2,0,10.0,112.0
12529,62.0,2,0,11.0,117.0
12530,55.0,1,45,12.0,117.0
12531,43.0,1,45,13.0,127.0
12532,77.0,26,0,8.0,117.0
12533,65.0,2,0,10.0,112.0
12534,62.0,2,0,11.0,117.0
12535,57.0,1,45,12.0,117.0
12536,45.0,2,45,13.0,127.0
12537,77.0,23,30,8.0,117.0
12538,65.0,2,0,10.0,112.0
12539,62.0,2,0,11.0,117.0
12540,77.0,26,30,8.0,117.0
12541,62.0,2,0,11.0,117.0
12542,58.0,1,45,12.0,117.0
12543,46.0,2,45,13.0,127.0
12544,77.0,26,0,8.0,117.0
12545,65.0,2,30,10.0,112.0
12546,62.0,2,0,11.0,117.0
12547,77.0,23,0,8.0,117.0
12548,65.0,2,0,10.0,112.0
12549,53.0,1,45,12.0,117.0
12550,41.0,2,45,13.0,127.0
12551,77.0,0,360,1.0,98.0
12552,74.0,1,360,1.0,98.0
12553,62.0,2,30,11.0,117.0
12554,65.0,1,240,3.0,110.0
12555,62.0,0,240,3.0,110.0
12556,75.0,26,30,8.0,117.0
12557,63.0,2,0,10.0,112.0
12558,60.0,2,30,11.0,117.0
12559,60.0,1,45,12.0,117.0
12560,48.0,1,45,13.0,127.0
12561,75.0,26,0,8.0,117.0
12562,60.0,2,30,11.0,117.0
12563,63.0,2,0,10.0,112.0
12564,60.0,2,0,11.0,117.0
12565,53.0,1,45,12.0,117.0
12566,41.0,2,45,13.0,127.0
12567,75.0,23,30,8.0,117.0
12568,75.0,0,120,1.0,98.0
12569,72.0,1,120,1.0,98.0
12570,63.0,0,120,3.0,110.0
12571,60.0,1,120,3.0,110.0
12572,74.0,0,30,8.0,117.0
12573,62.0,2,0,10.0,112.0
12574,58.0,2,0,11.0,117.0
12575,62.0,1,45,12.0,117.0
12576,50.0,1,45,13.0,127.0
12577,74.0,26,0,8.0,117.0
12578,58.0,2,0,11.0,117.0
12579,74.0,23,0,8.0,117.0
12580,62.0,2,0,10.0,112.0
12581,53.0,1,45,12.0,117.0
12582,41.0,2,45,13.0,127.0
12583,62.0,2,0,10.0,112.0
12584,58.0,2,30,11.0,117.0
12585,74.0,23,0,8.0,117.0
12586,62.0,2,0,10.0,112.0
12587,58.0,2,30,11.0,117.0
12588,63.0,1,45,12.0,117.0
12589,51.0,2,45,13.0,127.0
12590,58.0,2,30,11.0,117.0
12591,74.0,26,30,8.0,117.0
12592,62.0,2,0,10.0,112.0
12593,58.0,2,30,11.0,117.0
12594,53.0,1,45,12.0,117.0
12595,41.0,2,45,13.0,127.0
12596,74.0,23,30,8.0,117.0
12597,74.0,1,240,1.0,98.0
12598,70.0,0,240,1.0,98.0
12599,58.0,2,30,11.0,117.0
12600,62.0,1,240,3.0,110.0
12601,58.0,0,240,3.0,110.0
12602,72.0,26,30,8.0,117.0
12603,60.0,1,30,10.0,112.0
12604,56.0,2,30,11.0,117.0
12605,72.0,26,0,8.0,117.0
12606,60.0,2,0,10.0,112.0
12607,56.0,2,30,11.0,117.0
12608,72.0,26,0,8.0,117.0
12609,56.0,2,0,11.0,117.0
12610,72.0,26,0,8.0,117.0
12611,60.0,2,30,10.0,112.0
12612,65.0,1,120,12.0,117.0
12613,53.0,1,120,13.0,127.0
12614,72.0,23,0,8.0,117.0
12615,60.0,2,30,10.0,112.0
12616,56.0,2,0,11.0,117.0
12617,72.0,26,0,8.0,117.0
12618,60.0,2,30,10.0,112.0
12619,56.0,2,0,11.0,117.0
12620,72.0,26,0,8.0,117.0
12621,60.0,2,30,10.0,112.0
12622,89.0,26,480,0.0,94.0
12623,77.0,0,0,0.0,94.0
12624,68.0,1,0,1.0,98.0
12625,72.0,0,240,1.0,98.0
12626,77.0,0,480,2.0,94.0
12627,60.0,2,30,10.0,112.0
12628,65.0,0,480,2.0,94.0
12629,56.0,2,30,11.0,117.0
12630,63.0,1,120,12.0,117.0
12631,56.0,1,0,3.0,110.0
12632,60.0,1,240,3.0,110.0
12633,51.0,2,120,13.0,127.0
12634,71.0,23,0,8.0,117.0
12635,59.0,0,30,10.0,112.0
12636,53.0,2,0,11.0,117.0
12637,59.0,2,30,10.0,112.0
12638,65.0,26,30,8.0,117.0
12639,65.0,2,0,10.0,112.0
12640,53.0,2,30,11.0,117.0
12641,65.0,26,30,8.0,117.0
12642,71.0,1,0,1.0,98.0
12643,53.0,2,30,11.0,117.0
12644,59.0,0,120,3.0,110.0
12645,67.0,24,0,8.0,117.0
12646,67.0,1,30,10.0,112.0
12647,55.0,2,0,11.0,117.0
12648,67.0,2,30,10.0,112.0
12649,68.0,26,0,8.0,117.0
12650,68.0,2,30,10.0,112.0
12651,56.0,2,30,11.0,117.0
12652,68.0,2,30,10.0,112.0
12653,56.0,2,30,11.0,117.0
12654,71.0,26,0,8.0,117.0
12655,71.0,2,0,10.0,112.0
12656,59.0,2,30,11.0,117.0
12657,59.0,2,30,11.0,117.0
12658,65.0,26,0,8.0,117.0
12659,65.0,2,0,10.0,112.0
12660,53.0,2,30,11.0,117.0
12661,89.0,26,360,0.0,94.0
12662,77.0,0,360,5.0,104.0
12663,83.0,0,240,1.0,98.0
12664,65.0,1,360,2.0,94.0
12665,77.0,0,360,2.0,94.0
12666,65.0,0,360,4.0,107.0
12667,53.0,2,30,11.0,117.0
12668,62.0,1,360,12.0,117.0
12669,65.0,0,240,3.0,110.0
12670,62.0,2,240,3.0,110.0
12671,50.0,1,360,13.0,127.0
12672,72.0,26,30,8.0,117.0
12673,72.0,2,0,10.0,112.0
12674,60.0,2,0,11.0,117.0
12675,72.0,23,30,8.0,117.0
12676,65.0,26,0,8.0,117.0
12677,65.0,2,30,10.0,112.0
12678,53.0,2,0,11.0,117.0
12679,87.0,0,120,0.0,94.0
12680,75.0,0,120,0.0,94.0
12681,84.0,0,120,1.0,98.0
12682,72.0,1,120,1.0,98.0
12683,63.0,0,120,2.0,94.0
12684,65.0,2,30,10.0,112.0
12685,75.0,1,120,2.0,94.0
12686,63.0,0,120,4.0,107.0
12687,60.0,1,120,12.0,117.0
12688,60.0,1,120,3.0,110.0
12689,63.0,0,120,3.0,110.0
12690,48.0,1,120,13.0,127.0
12691,74.0,26,30,8.0,117.0
12692,74.0,2,0,10.0,112.0
12693,62.0,2,30,11.0,117.0
12694,74.0,23,30,8.0,117.0
12695,62.0,2,30,11.0,117.0
12696,65.0,26,0,8.0,117.0
12697,65.0,2,30,10.0,112.0
12698,53.0,2,30,11.0,117.0
12699,86.0,0,120,0.0,94.0
12700,74.0,0,120,0.0,94.0
12701,74.0,1,120,1.0,98.0
12702,86.0,0,120,1.0,98.0
12703,74.0,0,120,2.0,94.0
12704,65.0,0,120,4.0,107.0
12705,62.0,1,120,2.0,94.0
12706,65.0,2,30,10.0,112.0
12707,53.0,2,30,11.0,117.0
12708,59.0,1,120,12.0,117.0
12709,59.0,1,120,3.0,110.0
12710,62.0,0,120,3.0,110.0
12711,47.0,1,120,13.0,127.0
12712,75.0,23,0,8.0,117.0
12713,75.0,2,0,10.0,112.0
12714,63.0,2,30,11.0,117.0
12715,63.0,2,30,11.0,117.0
12716,65.0,26,30,8.0,117.0
12717,65.0,2,0,10.0,112.0
12718,53.0,2,30,11.0,117.0
12719,72.0,0,120,0.0,94.0
12720,65.0,26,30,8.0,117.0
12721,84.0,0,120,0.0,94.0
12722,84.0,1,120,1.0,98.0
12723,72.0,0,120,1.0,98.0
12724,60.0,1,120,2.0,94.0
12725,72.0,0,120,2.0,94.0
12726,53.0,2,30,11.0,117.0
12727,56.0,1,120,12.0,117.0
12728,56.0,0,120,3.0,110.0
12729,60.0,1,120,3.0,110.0
12730,44.0,1,120,13.0,127.0
12731,77.0,23,0,8.0,117.0
12732,77.0,0,30,10.0,112.0
12733,65.0,2,0,11.0,117.0
12734,77.0,2,30,10.0,112.0
12735,65.0,26,0,8.0,117.0
12736,65.0,2,0,10.0,112.0
12737,53.0,2,30,11.0,117.0
12738,83.0,0,120,0.0,94.0
12739,71.0,26,120,0.0,94.0
12740,86.0,0,0,1.0,98.0
12741,74.0,1,0,1.0,98.0
12742,71.0,0,120,2.0,94.0
12743,59.0,1,120,2.0,94.0
12744,53.0,2,30,11.0,117.0
12745,55.0,1,120,12.0,117.0
12746,55.0,1,0,3.0,110.0
12747,59.0,0,0,3.0,110.0
12748,43.0,1,120,13.0,127.0
12749,77.0,0,30,8.0,117.0
12750,77.0,2,0,10.0,112.0
12751,65.0,2,30,11.0,117.0
12752,77.0,23,30,8.0,117.0
12753,65.0,2,30,11.0,117.0
12754,65.0,26,30,8.0,117.0
12755,65.0,2,0,10.0,112.0
12756,53.0,2,30,11.0,117.0
12757,83.0,26,0,0.0,94.0
12758,65.0,26,30,8.0,117.0
12759,71.0,0,0,0.0,94.0
12760,59.0,0,120,2.0,94.0
12761,71.0,1,120,2.0,94.0
12762,65.0,0,0,4.0,107.0
12763,53.0,2,30,11.0,117.0
12764,43.0,1,120,12.0,117.0
12765,59.0,1,0,3.0,110.0
12766,55.0,0,0,3.0,110.0
12767,31.0,1,0,13.0,127.0
12768,77.0,0,30,8.0,117.0
12769,74.0,2,0,10.0,112.0
12770,65.0,0,30,11.0,117.0
12771,62.0,2,30,11.0,117.0
12772,83.0,1,45,1.0,98.0
12773,71.0,0,45,1.0,98.0
12774,71.0,0,45,2.0,94.0
12775,59.0,0,45,2.0,94.0
12776,77.0,23,30,8.0,117.0
12777,74.0,0,0,10.0,112.0
12778,65.0,0,30,11.0,117.0
12779,62.0,2,0,11.0,117.0
12780,43.0,1,0,12.0,117.0
12781,77.0,26,30,8.0,117.0
12782,74.0,2,0,10.0,112.0
12783,65.0,2,0,11.0,117.0
12784,77.0,0,45,0.0,94.0
12785,65.0,0,45,0.0,94.0
12786,77.0,1,45,1.0,98.0
12787,65.0,0,45,1.0,98.0
12788,65.0,1,45,2.0,94.0
12789,53.0,0,45,3.0,110.0
12790,77.0,0,0,8.0,117.0
12791,74.0,0,0,10.0,112.0
12792,62.0,0,30,11.0,117.0
12793,43.0,1,0,3.0,110.0
12794,31.0,1,60,13.0,127.0
12795,77.0,23,0,8.0,117.0
12796,65.0,0,30,11.0,117.0
12797,62.0,2,0,11.0,117.0
12798,67.0,0,45,0.0,94.0
12799,79.0,26,45,0.0,94.0
12800,79.0,1,45,1.0,98.0
12801,67.0,0,45,1.0,98.0
12802,67.0,1,45,2.0,94.0
12803,55.0,0,45,3.0,110.0
12804,77.0,0,0,8.0,117.0
12805,74.0,2,30,10.0,112.0
12806,65.0,0,30,11.0,117.0
12807,43.0,1,0,12.0,117.0
12808,31.0,1,0,13.0,127.0
12809,77.0,23,0,8.0,117.0
12810,74.0,2,0,10.0,112.0
12811,62.0,2,0,11.0,117.0
12812,65.0,0,30,11.0,117.0
12813,68.0,0,45,0.0,94.0
12814,80.0,26,45,0.0,94.0
12815,80.0,1,45,1.0,98.0
12816,68.0,0,45,1.0,98.0
12817,68.0,1,45,2.0,94.0
12818,56.0,1,45,3.0,110.0
12819,65.0,2,0,11.0,117.0
12820,43.0,1,0,3.0,110.0
12821,31.0,1,0,13.0,127.0
12822,77.0,23,0,8.0,117.0
12823,74.0,0,30,10.0,112.0
12824,62.0,0,30,11.0,117.0
12825,71.0,26,45,0.0,94.0
12826,83.0,0,45,0.0,94.0
12827,83.0,1,45,1.0,98.0
12828,71.0,0,45,1.0,98.0
12829,71.0,1,45,2.0,94.0
12830,59.0,0,45,3.0,110.0
12831,74.0,1,0,10.0,112.0
12832,65.0,0,30,11.0,117.0
12833,62.0,2,0,11.0,117.0
12834,43.0,1,0,12.0,117.0
12835,77.0,23,0,8.0,117.0
12836,65.0,2,0,11.0,117.0
12837,65.0,0,45,0.0,94.0
12838,77.0,26,45,0.0,94.0
12839,65.0,0,45,1.0,98.0
12840,77.0,1,45,1.0,98.0
12841,65.0,0,45,2.0,94.0
12842,53.0,1,45,3.0,110.0
12843,77.0,0,360,5.0,104.0
12844,74.0,2,30,10.0,112.0
12845,62.0,0,30,11.0,117.0
12846,43.0,1,0,12.0,117.0
12847,43.0,0,0,3.0,110.0
12848,31.0,1,0,13.0,127.0
12849,75.0,0,30,8.0,117.0
12850,72.0,0,30,10.0,112.0
12851,63.0,2,30,11.0,117.0
12852,60.0,0,30,11.0,117.0
12853,84.0,0,45,0.0,94.0
12854,72.0,26,45,0.0,94.0
12855,84.0,0,45,1.0,98.0
12856,72.0,0,45,1.0,98.0
12857,72.0,0,45,2.0,94.0
12858,60.0,1,45,3.0,110.0
12859,75.0,23,30,8.0,117.0
12860,72.0,2,30,10.0,112.0
12861,60.0,2,30,11.0,117.0
12862,63.0,0,0,11.0,117.0
12863,43.0,1,0,12.0,117.0
12864,31.0,1,0,13.0,127.0
12865,75.0,0,30,8.0,117.0
12866,67.0,1,90,5.0,104.0
12867,72.0,1,0,10.0,112.0
12868,60.0,2,0,11.0,117.0
12869,77.0,0,45,0.0,94.0
12870,65.0,26,45,0.0,94.0
12871,77.0,0,45,1.0,98.0
12872,65.0,1,45,1.0,98.0
12873,65.0,1,45,2.0,94.0
12874,53.0,1,45,3.0,110.0
12875,75.0,23,30,8.0,117.0
12876,67.0,1,0,5.0,104.0
12877,63.0,1,120,4.0,107.0
12878,63.0,0,30,11.0,117.0
12879,43.0,1,0,12.0,117.0
12880,43.0,0,60,3.0,110.0
12881,31.0,1,0,13.0,127.0
12882,74.0,23,0,8.0,117.0
12883,65.0,1,30,10.0,112.0
12884,62.0,2,30,11.0,117.0
12885,53.0,2,0,11.0,117.0
12886,74.0,0,60,0.0,94.0
12887,86.0,26,60,0.0,94.0
12888,86.0,0,60,1.0,98.0
12889,74.0,0,60,1.0,98.0
12890,65.0,1,0,10.0,112.0
12891,74.0,0,60,2.0,94.0
12892,53.0,0,0,11.0,117.0
12893,62.0,2,0,11.0,117.0
12894,43.0,1,0,12.0,117.0
12895,43.0,0,60,3.0,110.0
12896,62.0,1,60,3.0,110.0
12897,31.0,1,0,13.0,127.0
12898,74.0,0,30,8.0,117.0
12899,62.0,2,0,11.0,117.0
12900,65.0,26,60,0.0,94.0
12901,74.0,23,30,8.0,117.0
12902,77.0,0,60,0.0,94.0
12903,65.0,1,60,1.0,98.0
12904,67.0,1,0,5.0,104.0
12905,77.0,0,60,1.0,98.0
12906,65.0,0,120,4.0,107.0
12907,65.0,2,30,10.0,112.0
12908,65.0,0,60,2.0,94.0
12909,53.0,0,30,11.0,117.0
12910,43.0,1,60,3.0,110.0
12911,53.0,0,60,3.0,110.0
12912,31.0,1,0,13.0,127.0
12913,72.0,26,30,8.0,117.0
12914,63.0,2,0,10.0,112.0
12915,60.0,2,0,11.0,117.0
12916,51.0,0,0,11.0,117.0
12917,72.0,23,30,8.0,117.0
12918,75.0,0,60,0.0,94.0
12919,87.0,0,60,0.0,94.0
12920,75.0,0,60,1.0,98.0
12921,75.0,0,60,2.0,94.0
12922,63.0,0,0,10.0,112.0
12923,43.0,1,60,12.0,117.0
12924,63.0,0,60,3.0,110.0
12925,43.0,1,60,3.0,110.0
12926,72.0,0,30,8.0,117.0
12927,67.0,1,0,5.0,104.0
12928,60.0,0,30,11.0,117.0
12929,51.0,2,30,11.0,117.0
12930,77.0,0,0,0.0,94.0
12931,72.0,23,30,8.0,117.0
12932,65.0,0,60,0.0,94.0
12933,77.0,0,60,1.0,98.0
12934,65.0,1,60,1.0,98.0
12935,63.0,1,30,10.0,112.0
12936,63.0,1,120,4.0,107.0
12937,65.0,1,60,2.0,94.0
12938,60.0,0,30,11.0,117.0
12939,51.0,2,30,11.0,117.0
12940,43.0,1,60,12.0,117.0
12941,43.0,0,60,3.0,110.0
12942,53.0,1,60,3.0,110.0
12943,31.0,1,0,13.0,127.0
12944,71.0,0,30,8.0,117.0
12945,62.0,2,0,10.0,112.0
12946,50.0,0,30,11.0,117.0
12947,59.0,2,30,11.0,117.0
12948,89.0,26,60,0.0,94.0
12949,77.0,0,0,0.0,94.0
12950,71.0,26,0,8.0,117.0
12951,77.0,1,60,1.0,98.0
12952,77.0,0,60,2.0,94.0
12953,50.0,0,30,11.0,117.0
12954,59.0,2,0,11.0,117.0
12955,43.0,1,0,12.0,117.0
12956,65.0,1,60,3.0,110.0
12957,43.0,1,0,3.0,110.0
12958,31.0,1,0,13.0,127.0
12959,62.0,2,0,10.0,112.0
12960,50.0,0,30,11.0,117.0
12961,65.0,0,60,0.0,94.0
12962,71.0,23,30,8.0,117.0
12963,65.0,1,60,1.0,98.0
12964,77.0,0,60,1.0,98.0
12965,67.0,1,0,5.0,104.0
12966,65.0,1,60,2.0,94.0
12967,65.0,0,120,4.0,107.0
12968,59.0,0,30,11.0,117.0
12969,50.0,2,30,11.0,117.0
12970,43.0,1,0,12.0,117.0
12971,53.0,0,60,3.0,110.0
12972,43.0,1,0,3.0,110.0
12973,72.0,0,30,8.0,117.0
12974,63.0,0,30,10.0,112.0
12975,51.0,2,30,11.0,117.0
12976,60.0,0,30,11.0,117.0
12977,90.0,0,0,0.0,94.0
12978,78.0,26,0,0.0,94.0
12979,72.0,0,0,8.0,117.0
12980,78.0,1,0,1.0,98.0
12981,75.0,0,60,2.0,94.0
12982,72.0,1,60,2.0,94.0
12983,63.0,1,0,10.0,112.0
12984,51.0,0,0,11.0,117.0
12985,60.0,2,0,11.0,117.0
12986,66.0,0,60,3.0,110.0
12987,31.0,1,0,13.0,127.0
12988,51.0,2,0,11.0,117.0
12989,60.0,0,0,11.0,117.0
12990,72.0,23,30,8.0,117.0
12991,67.0,1,30,5.0,104.0
12992,72.0,0,60,2.0,94.0
12993,63.0,1,30,10.0,112.0
12994,75.0,0,60,2.0,94.0
12995,63.0,0,120,4.0,107.0
12996,51.0,0,120,4.0,107.0
12997,43.0,1,0,12.0,117.0
12998,43.0,1,60,3.0,110.0
12999,66.0,0,60,3.0,110.0
13000,55.0,0,40,10.0,112.0
13001,71.0,0,40,10.0,112.0
13002,62.0,35,0,10.0,112.0
13003,59.0,0,40,11.0,117.0
13004,50.0,2,40,11.0,117.0
13005,43.0,1,60,3.0,110.0
13006,31.0,1,60,13.0,127.0
13007,59.0,2,40,11.0,117.0
13008,45.0,21,20,12.0,117.0
13009,45.0,1,20,3.0,110.0
13010,33.0,1,20,13.0,127.0
13011,43.0,1,20,12.0,117.0
13012,43.0,1,20,3.0,110.0
13013,31.0,1,20,13.0,127.0
13014,79.0,0,120,0.0,94.0
13015,91.0,0,120,0.0,94.0
13016,71.0,0,120,8.0,77.0
13017,55.0,0,120,8.0,77.0
13018,79.0,0,120,8.0,117.0
13019,62.0,26,120,8.0,77.0
13020,79.0,1,120,1.0,98.0
13021,67.0,0,120,5.0,104.0
13022,67.0,0,120,4.0,107.0
13023,55.0,0,120,4.0,107.0
13024,74.0,0,120,2.0,94.0
13025,62.0,15,40,10.0,112.0
13026,71.0,1,120,2.0,94.0
13027,59.0,2,40,11.0,117.0
13028,42.0,18,20,12.0,117.0
13029,42.0,1,20,3.0,110.0
13030,67.0,0,120,3.0,110.0
13031,30.0,1,20,13.0,127.0
13032,59.0,15,40,10.0,112.0
13033,55.0,2,40,11.0,117.0
13034,43.0,1,45,12.0,117.0
13035,43.0,1,45,3.0,110.0
13036,31.0,1,45,13.0,127.0
13037,62.0,35,40,10.0,112.0
13038,59.0,2,40,11.0,117.0
13039,45.0,21,45,12.0,117.0
13040,45.0,1,45,3.0,110.0
13041,33.0,1,45,13.0,127.0
13042,62.0,15,40,10.0,112.0
13043,59.0,2,40,11.0,117.0
13044,59.0,38,40,10.0,112.0
13045,55.0,2,40,11.0,117.0
13046,62.0,38,0,10.0,112.0
13047,59.0,2,40,11.0,117.0
13048,59.0,2,40,11.0,117.0
13049,43.0,1,120,12.0,117.0
13050,43.0,1,120,3.0,110.0
13051,31.0,1,120,13.0,127.0
13052,59.0,2,40,10.0,112.0
13053,55.0,2,40,11.0,117.0
13054,62.0,38,0,10.0,112.0
13055,59.0,2,0,11.0,117.0
13056,71.0,36,120,8.0,117.0
13057,57.0,2,40,10.0,112.0
13058,54.0,2,40,11.0,117.0
13059,60.0,38,0,10.0,112.0
13060,57.0,2,40,11.0,117.0
13061,72.0,36,120,8.0,117.0
13062,57.0,2,40,11.0,117.0
13063,57.0,2,40,10.0,112.0
13064,54.0,2,40,11.0,117.0
13065,60.0,38,40,10.0,112.0
13066,57.0,2,40,11.0,117.0
13067,69.0,36,120,8.0,117.0
13068,60.0,38,40,10.0,112.0
13069,57.0,2,40,11.0,117.0
13070,57.0,2,40,10.0,112.0
13071,54.0,2,40,11.0,117.0
13072,60.0,38,0,10.0,112.0
13073,57.0,2,0,11.0,117.0
13074,76.0,36,120,8.0,117.0
13075,57.0,1,40,10.0,112.0
13076,54.0,2,40,11.0,117.0
13077,60.0,35,40,10.0,112.0
13078,57.0,2,40,11.0,117.0
13079,50.0,11,0,12.0,117.0
13080,38.0,1,90,13.0,127.0
13081,74.0,23,0,8.0,117.0
13082,86.0,36,120,0.0,94.0
13083,74.0,1,120,1.0,98.0
13084,60.0,38,40,10.0,112.0
13085,57.0,2,40,11.0,117.0
13086,62.0,1,120,3.0,110.0
13087,38.0,2,30,13.0,127.0
13088,59.0,1,40,10.0,112.0
13089,55.0,2,40,11.0,117.0
13090,43.0,1,60,12.0,117.0
13091,31.0,1,60,13.0,127.0
13092,62.0,35,40,10.0,112.0
13093,59.0,2,40,11.0,117.0
13094,45.0,21,20,12.0,117.0
13095,33.0,2,20,13.0,127.0
13096,43.0,1,20,12.0,117.0
13097,31.0,2,20,13.0,127.0
13098,62.0,15,40,10.0,112.0
13099,59.0,2,40,11.0,117.0
13100,42.0,18,20,12.0,117.0
13101,30.0,2,20,13.0,127.0
13102,59.0,15,40,10.0,112.0
13103,55.0,2,40,11.0,117.0
13104,43.0,1,45,12.0,117.0
13105,31.0,2,45,13.0,127.0
13106,62.0,15,0,10.0,112.0
13107,59.0,2,0,11.0,117.0
13108,45.0,21,45,12.0,117.0
13109,33.0,2,45,13.0,127.0
13110,59.0,38,40,10.0,112.0
13111,55.0,2,40,11.0,117.0
13112,62.0,35,40,10.0,112.0
13113,59.0,2,0,11.0,117.0
13114,86.0,0,360,0.0,94.0
13115,74.0,1,360,1.0,98.0
13116,62.0,38,40,10.0,112.0
13117,43.0,1,120,12.0,117.0
13118,62.0,1,360,3.0,110.0
13119,31.0,2,120,13.0,127.0
13120,59.0,2,40,10.0,112.0
13121,55.0,2,40,11.0,117.0
13122,62.0,38,0,10.0,112.0
13123,59.0,2,40,11.0,117.0
13124,71.0,36,120,8.0,117.0
13125,59.0,2,40,11.0,117.0
13126,57.0,2,40,10.0,112.0
13127,54.0,2,40,11.0,117.0
13128,72.0,36,60,8.0,117.0
13129,60.0,38,40,10.0,112.0
13130,57.0,2,40,11.0,117.0
13131,69.0,16,60,8.0,117.0
13132,60.0,22,40,10.0,112.0
13133,57.0,2,40,11.0,117.0
13134,57.0,2,40,10.0,112.0
13135,54.0,2,40,11.0,117.0
13136,68.0,36,60,8.0,117.0
13137,60.0,38,40,10.0,112.0
13138,57.0,2,40,11.0,117.0
13139,69.0,16,60,8.0,117.0
13140,60.0,22,40,10.0,112.0
13141,57.0,2,40,11.0,117.0
13142,57.0,2,40,10.0,112.0
13143,54.0,2,40,11.0,117.0
13144,72.0,36,60,8.0,117.0
13145,60.0,22,0,10.0,112.0
13146,57.0,2,0,11.0,117.0
13147,69.0,16,60,8.0,117.0
13148,57.0,1,40,10.0,112.0
13149,54.0,2,40,11.0,117.0
13150,76.0,36,60,8.0,117.0
13151,88.0,0,60,0.0,94.0
13152,76.0,1,60,1.0,98.0
13153,64.0,1,60,3.0,110.0
13154,60.0,35,40,10.0,112.0
13155,57.0,2,40,11.0,117.0
13156,50.0,1,90,12.0,117.0
13157,38.0,1,90,13.0,127.0
13158,86.0,23,0,0.0,94.0
13159,74.0,16,60,8.0,117.0
13160,74.0,1,60,1.0,98.0
13161,60.0,16,40,10.0,112.0
13162,57.0,2,40,11.0,117.0
13163,50.0,11,30,12.0,117.0
13164,62.0,5,60,3.0,110.0
13165,38.0,2,30,13.0,127.0
13166,59.0,1,40,10.0,112.0
13167,55.0,2,40,11.0,117.0
13168,43.0,1,60,12.0,117.0
13169,31.0,1,60,13.0,127.0
13170,62.0,15,0,10.0,112.0
13171,59.0,2,0,11.0,117.0
13172,45.0,21,20,12.0,117.0
13173,33.0,2,20,13.0,127.0
13174,43.0,1,20,12.0,117.0
13175,31.0,2,20,13.0,127.0
13176,42.0,18,20,12.0,117.0
13177,30.0,2,20,13.0,127.0
13178,59.0,15,40,10.0,112.0
13179,55.0,2,40,11.0,117.0
13180,43.0,1,45,12.0,117.0
13181,31.0,2,45,13.0,127.0
13182,62.0,15,0,10.0,112.0
13183,59.0,2,0,11.0,117.0
13184,45.0,21,45,12.0,117.0
13185,33.0,2,45,13.0,127.0
13186,59.0,38,40,10.0,112.0
13187,55.0,2,40,11.0,117.0
13188,62.0,38,0,10.0,112.0
13189,59.0,2,0,11.0,117.0
13190,74.0,0,360,8.0,117.0
13191,74.0,1,360,1.0,98.0
13192,43.0,1,120,12.0,117.0
13193,62.0,1,360,3.0,110.0
13194,31.0,2,120,13.0,127.0
13195,59.0,2,40,10.0,112.0
13196,55.0,2,40,11.0,117.0
13197,62.0,38,40,10.0,112.0
13198,59.0,2,40,11.0,117.0
13199,71.0,36,120,8.0,117.0
13200,62.0,38,40,10.0,112.0
13201,59.0,2,40,11.0,117.0
13202,57.0,2,40,10.0,112.0
13203,54.0,2,40,11.0,117.0
13204,72.0,36,60,8.0,117.0
13205,60.0,22,0,10.0,112.0
13206,57.0,2,40,11.0,117.0
13207,69.0,16,60,8.0,117.0
13208,57.0,2,40,11.0,117.0
13209,57.0,2,40,10.0,112.0
13210,54.0,2,40,11.0,117.0
13211,68.0,36,60,8.0,117.0
13212,60.0,22,0,10.0,112.0
13213,57.0,2,40,11.0,117.0
13214,69.0,16,60,8.0,117.0
13215,57.0,2,40,11.0,117.0
13216,57.0,2,40,10.0,112.0
13217,54.0,2,40,11.0,117.0
13218,72.0,36,60,8.0,117.0
13219,60.0,38,40,10.0,112.0
13220,57.0,2,0,11.0,117.0
13221,69.0,16,60,8.0,117.0
13222,60.0,22,40,10.0,112.0
13223,78.0,83,0,8.0,117.0
13224,72.0,0,90,0.0,94.0
13225,84.0,0,0,0.0,94.0
13226,78.0,0,0,1.0,98.0
13227,69.0,1,0,1.0,98.0
13228,72.0,1,90,2.0,94.0
13229,69.0,1,0,2.0,94.0
13230,60.0,0,0,10.0,112.0
13231,57.0,2,0,11.0,117.0
13232,50.0,1,0,12.0,117.0
13233,57.0,0,90,3.0,110.0
13234,60.0,1,90,3.0,110.0
13235,38.0,1,90,13.0,127.0
13236,84.0,23,0,0.0,94.0
13237,72.0,0,0,0.0,94.0
13238,69.0,1,0,1.0,98.0
13239,72.0,0,30,2.0,94.0
13240,69.0,0,0,2.0,94.0
13241,57.0,2,0,11.0,117.0
13242,60.0,0,30,3.0,110.0
13243,57.0,1,30,3.0,110.0
13244,38.0,1,0,13.0,127.0
13245,78.0,0,120,8.0,117.0
13246,78.0,0,120,1.0,98.0
13247,60.0,0,120,10.0,112.0
13248,72.0,1,120,2.0,94.0
13249,50.0,1,120,12.0,117.0
13250,60.0,1,120,3.0,110.0
13251,57.0,0,120,3.0,110.0
13252,81.0,0,90,0.0,94.0
13253,84.0,353,90,0.0,94.0
13254,81.0,0,90,8.0,117.0
13255,78.0,1,90,1.0,98.0
13256,69.0,1,0,1.0,98.0
13257,66.0,0,90,10.0,112.0
13258,72.0,1,90,2.0,94.0
13259,69.0,0,90,2.0,94.0
13260,60.0,2,90,11.0,117.0
13261,50.0,1,90,12.0,117.0
13262,57.0,0,0,3.0,110.0
13263,60.0,1,0,3.0,110.0
13264,38.0,1,0,13.0,127.0
13265,84.0,0,30,0.0,94.0
13266,81.0,0,30,8.0,117.0
13267,81.0,0,0,0.0,94.0
13268,78.0,1,0,1.0,98.0
13269,72.0,1,0,2.0,94.0
13270,69.0,0,30,2.0,94.0
13271,66.0,0,0,10.0,112.0
13272,60.0,2,30,11.0,117.0
13273,50.0,1,30,12.0,117.0
13274,57.0,1,0,3.0,110.0
13275,60.0,0,0,3.0,110.0
13276,84.0,0,120,0.0,94.0
13277,81.0,23,120,8.0,117.0
13278,69.0,0,120,1.0,98.0
13279,69.0,0,120,2.0,94.0
13280,60.0,2,120,11.0,117.0
13281,50.0,1,120,12.0,117.0
13282,38.0,1,120,13.0,127.0
13283,78.0,0,0,0.0,94.0
13284,84.0,84,0,0.0,94.0
13285,57.0,6,90,3.0,110.0
13286,50.0,0,0,3.0,110.0
13287,78.0,0,0,0.0,94.0
13288,84.0,24,0,0.0,94.0
13289,57.0,0,0,3.0,110.0
13290,50.0,6,0,3.0,110.0
13291,78.0,114,0,0.0,94.0
13292,50.0,6,0,3.0,110.0
13293,84.0,84,0,0.0,94.0
13294,57.0,0,90,3.0,110.0
13295,78.0,0,30,0.0,94.0
13296,50.0,0,30,3.0,110.0
13297,57.0,6,30,3.0,110.0
13298,84.0,0,120,0.0,94.0
13299,78.0,114,0,0.0,94.0
13300,57.0,6,120,3.0,110.0
13301,50.0,4,0,3.0,110.0
13302,78.0,0,0,0.0,94.0
13303,84.0,84,0,0.0,94.0
13304,69.0,1,90,1.0,98.0
13305,72.0,0,0,1.0,98.0
13306,63.0,1,90,2.0,94.0
13307,60.0,1,0,2.0,94.0
13308,57.0,0,90,3.0,110.0
13309,78.0,24,0,0.0,94.0
13310,69.0,0,0,1.0,98.0
13311,72.0,1,0,1.0,98.0
13312,63.0,0,30,2.0,94.0
13313,57.0,4,0,3.0,110.0
13314,50.0,0,30,3.0,110.0
13315,78.0,114,0,0.0,94.0
13316,84.0,0,0,0.0,94.0
13317,72.0,1,0,1.0,98.0
13318,69.0,0,0,1.0,98.0
13319,63.0,1,0,2.0,94.0
13320,60.0,0,0,2.0,94.0
13321,57.0,4,0,3.0,110.0
13322,50.0,0,120,3.0,110.0
13323,84.0,84,0,0.0,94.0
13324,78.0,0,0,0.0,94.0
13325,60.0,1,0,2.0,94.0
13326,63.0,0,0,2.0,94.0
13327,57.0,0,0,3.0,110.0
13328,50.0,4,0,3.0,110.0
13329,84.0,24,0,0.0,94.0
13330,72.0,1,0,1.0,98.0
13331,69.0,0,0,1.0,98.0
13332,63.0,0,0,2.0,94.0
13333,60.0,1,0,2.0,94.0
13334,50.0,0,0,3.0,110.0
13335,78.0,0,120,0.0,94.0
13336,84.0,114,0,0.0,94.0
13337,60.0,0,0,2.0,94.0
13338,57.0,4,120,3.0,110.0
13339,78.0,0,90,0.0,94.0
13340,84.0,84,0,0.0,94.0
13341,69.0,0,90,1.0,98.0
13342,72.0,0,0,1.0,98.0
13343,63.0,0,0,2.0,94.0
13344,60.0,1,0,2.0,94.0
13345,50.0,4,90,3.0,110.0
13346,57.0,0,0,3.0,110.0
13347,78.0,0,30,0.0,94.0
13348,69.0,1,30,1.0,98.0
13349,63.0,1,0,2.0,94.0
13350,60.0,0,0,2.0,94.0
13351,50.0,4,30,3.0,110.0
13352,54.0,0,30,7.0,106.0
13353,66.0,24,30,7.0,106.0
13354,84.0,0,60,0.0,94.0
13355,78.0,0,60,0.0,94.0
13356,67.0,24,30,7.0,106.0
13357,55.0,0,30,7.0,106.0
13358,72.0,0,60,1.0,98.0
13359,69.0,1,0,1.0,98.0
13360,63.0,1,0,2.0,94.0
13361,50.0,4,60,3.0,110.0
13362,57.0,0,60,3.0,110.0
13363,68.0,0,30,7.0,106.0
13364,56.0,0,30,7.0,106.0
13365,84.0,30,0,0.0,94.0
13366,57.0,0,30,7.0,106.0
13367,69.0,24,30,7.0,106.0
13368,78.0,0,0,0.0,94.0
13369,72.0,0,60,1.0,98.0
13370,60.0,1,0,2.0,94.0
13371,63.0,0,0,2.0,94.0
13372,57.0,4,0,3.0,110.0
13373,50.0,0,0,3.0,110.0
13374,58.0,0,30,7.0,106.0
13375,70.0,0,30,7.0,106.0
13376,59.0,0,30,7.0,106.0
13377,84.0,0,0,0.0,94.0
13378,78.0,30,0,0.0,94.0
13379,71.0,24,30,7.0,106.0
13380,69.0,1,0,1.0,98.0
13381,72.0,0,60,1.0,98.0
13382,63.0,1,0,2.0,94.0
13383,60.0,0,0,2.0,94.0
13384,57.0,4,0,3.0,110.0
13385,72.0,0,30,7.0,106.0
13386,60.0,0,30,7.0,106.0
13387,84.0,30,0,0.0,94.0
13388,61.0,0,30,7.0,106.0
13389,73.0,24,30,7.0,106.0
13390,72.0,1,0,1.0,98.0
13391,69.0,0,0,1.0,98.0
13392,50.0,4,0,3.0,110.0
13393,74.0,0,30,7.0,106.0
13394,62.0,0,30,7.0,106.0
13395,75.0,24,30,7.0,106.0
13396,63.0,0,30,7.0,106.0
13397,78.0,0,0,0.0,94.0
13398,84.0,30,0,0.0,94.0
13399,69.0,1,0,1.0,98.0
13400,72.0,0,0,1.0,98.0
13401,60.0,0,60,2.0,94.0
13402,63.0,1,60,2.0,94.0
13403,50.0,4,0,3.0,110.0
13404,57.0,0,0,3.0,110.0
13405,64.0,0,30,7.0,106.0
13406,76.0,0,30,7.0,106.0
13407,77.0,24,30,7.0,106.0
13408,65.0,0,30,7.0,106.0
13409,78.0,30,0,0.0,94.0
13410,63.0,0,0,2.0,94.0
13411,60.0,1,0,2.0,94.0
13412,57.0,4,0,3.0,110.0
13413,78.0,0,30,7.0,106.0
13414,66.0,0,30,7.0,106.0
13415,84.0,0,60,0.0,94.0
13416,79.0,0,30,7.0,106.0
13417,67.0,24,30,7.0,106.0
13418,72.0,0,60,1.0,98.0
13419,69.0,1,60,1.0,98.0
13420,50.0,0,0,3.0,110.0
13421,57.0,4,0,3.0,110.0
13422,80.0,0,30,7.0,106.0
13423,68.0,0,30,7.0,106.0
13424,84.0,30,0,0.0,94.0
13425,78.0,30,60,0.0,94.0
13426,69.0,0,30,7.0,106.0
13427,81.0,24,30,7.0,106.0
13428,72.0,0,0,1.0,98.0
13429,69.0,1,0,1.0,98.0
13430,60.0,1,60,2.0,94.0
13431,63.0,0,60,2.0,94.0
13432,70.0,0,30,7.0,106.0
13433,82.0,0,30,7.0,106.0
13434,71.0,0,30,7.0,106.0
13435,83.0,24,30,7.0,106.0
13436,78.0,0,0,0.0,94.0
13437,62.0,1,0,2.0,94.0
13438,60.0,0,60,2.0,94.0
13439,57.0,4,60,3.0,110.0
13440,50.0,4,0,3.0,110.0
13441,72.0,0,30,7.0,106.0
13442,84.0,30,30,7.0,106.0
13443,84.0,30,0,0.0,94.0
13444,73.0,24,30,7.0,106.0
13445,85.0,0,30,7.0,106.0
13446,69.0,1,60,1.0,98.0
13447,72.0,1,0,1.0,98.0
13448,60.0,1,0,2.0,94.0
13449,62.0,0,0,2.0,94.0
13450,57.0,0,60,3.0,110.0
13451,74.0,0,30,7.0,106.0
13452,86.0,0,30,7.0,106.0
13453,75.0,24,30,7.0,106.0
13454,87.0,0,30,7.0,106.0
13455,78.0,30,0,0.0,94.0
13456,84.0,0,0,0.0,94.0
13457,69.0,1,0,1.0,98.0
13458,62.0,0,0,2.0,94.0
13459,60.0,1,0,2.0,94.0
13460,50.0,0,60,3.0,110.0
13461,57.0,4,60,3.0,110.0
13462,76.0,0,30,7.0,106.0
13463,88.0,0,30,7.0,106.0
13464,77.0,0,30,7.0,106.0
13465,89.0,24,30,7.0,106.0
13466,84.0,0,0,0.0,94.0
13467,78.0,30,0,0.0,94.0
13468,72.0,1,0,1.0,98.0
13469,50.0,0,60,3.0,110.0
13470,57.0,4,0,3.0,110.0
13471,78.0,0,30,7.0,106.0
13472,90.0,0,30,7.0,106.0
13473,79.0,0,30,7.0,106.0
13474,91.0,24,30,7.0,106.0
13475,84.0,0,0,0.0,94.0
13476,78.0,0,0,0.0,94.0
13477,69.0,0,60,1.0,98.0
13478,62.0,1,60,2.0,94.0
13479,60.0,0,0,2.0,94.0
13480,50.0,0,60,3.0,110.0
13481,92.0,30,30,7.0,106.0
13482,80.0,0,30,7.0,106.0
13483,93.0,0,30,7.0,106.0
13484,81.0,24,30,7.0,106.0
13485,78.0,30,0,0.0,94.0
13486,84.0,0,0,0.0,94.0
13487,72.0,1,0,1.0,98.0
13488,69.0,0,0,1.0,98.0
13489,60.0,1,0,2.0,94.0
13490,62.0,0,0,2.0,94.0
13491,57.0,0,0,3.0,110.0
13492,50.0,4,0,3.0,110.0
13493,94.0,0,30,7.0,106.0
13494,82.0,0,30,7.0,106.0
13495,83.0,24,30,7.0,106.0
13496,95.0,0,30,7.0,106.0
13497,69.0,0,0,1.0,98.0
13498,72.0,1,0,1.0,98.0
13499,62.0,0,0,2.0,94.0
13500,60.0,1,0,2.0,94.0
13501,50.0,4,0,3.0,110.0
13502,84.0,0,30,7.0,106.0
13503,96.0,30,30,7.0,106.0
13504,78.0,0,60,0.0,94.0
13505,84.0,0,60,0.0,94.0
13506,78.0,0,30,7.0,106.0
13507,90.0,24,30,7.0,106.0
13508,57.0,0,60,3.0,110.0
13509,81.0,0,20,7.0,106.0
13510,93.0,0,20,7.0,106.0
13511,91.0,14,20,7.0,106.0
13512,79.0,0,20,7.0,106.0
13513,81.0,0,20,7.0,106.0
13514,93.0,20,20,7.0,106.0
13515,79.0,0,20,7.0,106.0
13516,91.0,20,20,7.0,106.0
13517,93.0,0,20,7.0,106.0
13518,81.0,20,20,7.0,106.0
13519,79.0,20,20,7.0,106.0
13520,83.0,0,120,0.0,94.0
13521,91.0,0,20,7.0,106.0
13522,79.0,30,120,0.0,94.0
13523,71.0,0,120,1.0,98.0
13524,67.0,1,120,1.0,98.0
13525,62.0,1,120,2.0,94.0
13526,59.0,0,120,2.0,94.0
13527,59.0,0,120,3.0,110.0
13528,55.0,4,120,3.0,110.0
13529,93.0,0,20,7.0,106.0
13530,81.0,20,20,7.0,106.0
13531,79.0,20,20,7.0,106.0
13532,91.0,0,20,7.0,106.0
13533,81.0,20,20,7.0,106.0
13534,93.0,0,20,7.0,106.0
13535,91.0,20,20,7.0,106.0
13536,79.0,0,20,7.0,106.0
13537,93.0,0,20,7.0,106.0
13538,81.0,20,20,7.0,106.0
13539,91.0,20,20,7.0,106.0
13540,79.0,0,20,7.0,106.0
13541,81.0,0,20,7.0,106.0
13542,93.0,0,20,7.0,106.0
13543,91.0,0,20,7.0,106.0
13544,79.0,14,20,7.0,106.0
13545,93.0,20,20,7.0,106.0
13546,81.0,0,20,7.0,106.0
13547,79.0,20,20,7.0,106.0
13548,91.0,0,20,7.0,106.0
13549,81.0,20,20,7.0,106.0
13550,93.0,0,20,7.0,106.0
13551,83.0,0,120,0.0,94.0
13552,79.0,20,120,0.0,94.0
13553,79.0,0,20,7.0,106.0
13554,91.0,20,20,7.0,106.0
13555,71.0,0,120,1.0,98.0
13556,74.0,1,120,1.0,98.0
13557,67.0,0,120,3.0,110.0
13558,55.0,5,120,3.0,110.0
13559,81.0,20,20,7.0,106.0
13560,93.0,0,20,7.0,106.0
13561,91.0,0,20,7.0,106.0
13562,79.0,20,20,7.0,106.0
13563,93.0,0,20,7.0,106.0
13564,81.0,20,20,7.0,106.0
13565,91.0,0,20,7.0,106.0
13566,79.0,20,20,7.0,106.0
13567,93.0,0,20,7.0,106.0
13568,81.0,20,20,7.0,106.0
13569,91.0,0,20,7.0,106.0
13570,79.0,20,20,7.0,106.0
13571,81.0,0,20,7.0,106.0
13572,93.0,0,20,7.0,106.0
13573,91.0,14,20,7.0,106.0
13574,79.0,0,20,7.0,106.0
13575,81.0,0,20,7.0,106.0
13576,93.0,20,20,7.0,106.0
13577,91.0,20,20,7.0,106.0
13578,79.0,0,20,7.0,106.0
13579,93.0,0,20,7.0,106.0
13580,81.0,20,20,7.0,106.0
13581,83.0,0,120,0.0,94.0
13582,79.0,20,120,0.0,94.0
13583,79.0,20,20,7.0,106.0
13584,91.0,0,20,7.0,106.0
13585,74.0,1,120,1.0,98.0
13586,71.0,0,120,1.0,98.0
13587,62.0,5,120,3.0,110.0
13588,50.0,0,120,3.0,110.0
13589,81.0,0,20,7.0,106.0
13590,93.0,20,20,7.0,106.0
13591,91.0,20,20,7.0,106.0
13592,79.0,0,20,7.0,106.0
13593,93.0,20,20,7.0,106.0
13594,81.0,0,20,7.0,106.0
13595,79.0,20,20,7.0,106.0
13596,91.0,0,20,7.0,106.0
13597,81.0,0,20,7.0,106.0
13598,93.0,20,20,7.0,106.0
13599,79.0,20,20,7.0,106.0
13600,91.0,0,20,7.0,106.0
13601,93.0,20,20,7.0,106.0
13602,81.0,0,20,7.0,106.0
13603,91.0,14,20,7.0,106.0
13604,79.0,0,20,7.0,106.0
13605,93.0,0,20,7.0,106.0
13606,81.0,20,20,7.0,106.0
13607,79.0,0,20,7.0,106.0
13608,91.0,20,20,7.0,106.0
13609,93.0,0,20,7.0,106.0
13610,81.0,20,20,7.0,106.0
13611,83.0,0,120,0.0,94.0
13612,91.0,0,20,7.0,106.0
13613,79.0,0,120,0.0,94.0
13614,79.0,20,20,7.0,106.0
13615,74.0,1,120,1.0,98.0
13616,71.0,0,120,1.0,98.0
13617,47.0,0,120,3.0,110.0
13618,59.0,5,120,3.0,110.0
13619,93.0,20,20,7.0,106.0
13620,81.0,0,20,7.0,106.0
13621,79.0,20,20,7.0,106.0
13622,91.0,0,20,7.0,106.0
13623,93.0,0,20,7.0,106.0
13624,81.0,20,20,7.0,106.0
13625,91.0,20,20,7.0,106.0
13626,79.0,0,20,7.0,106.0
13627,90.0,20,40,7.0,106.0
13628,78.0,0,40,7.0,106.0
13629,91.0,40,60,7.0,106.0
13630,79.0,0,60,7.0,106.0
13631,79.0,0,120,0.0,94.0
13632,74.0,53,60,7.0,106.0
13633,83.0,0,120,0.0,94.0
13634,86.0,0,60,7.0,106.0
13635,74.0,1,120,1.0,98.0
13636,71.0,0,120,1.0,98.0
13637,55.0,1,120,3.0,110.0
13638,43.0,0,120,3.0,110.0
13639,83.0,0,60,7.0,106.0
13640,71.0,60,60,7.0,106.0
13641,86.0,60,60,7.0,106.0
13642,74.0,0,60,7.0,106.0
13643,79.0,0,60,7.0,106.0
13644,67.0,60,60,7.0,106.0
13645,71.0,60,60,7.0,106.0
13646,83.0,0,60,7.0,106.0
13647,62.0,0,60,7.0,106.0
13648,74.0,60,60,7.0,106.0
13649,79.0,60,60,7.0,106.0
13650,67.0,0,60,7.0,106.0
13651,71.0,0,60,7.0,106.0
13652,59.0,60,60,7.0,106.0
13653,74.0,60,60,7.0,106.0
13654,62.0,0,60,7.0,106.0
13655,55.0,60,60,7.0,106.0
13656,67.0,0,60,7.0,106.0
13657,71.0,60,60,7.0,106.0
13658,59.0,0,60,7.0,106.0
13659,74.0,60,40,7.0,106.0
13660,62.0,0,40,7.0,106.0
13661,79.0,0,40,7.0,106.0
13662,67.0,40,40,7.0,106.0
13663,83.0,40,40,7.0,106.0
13664,71.0,0,40,7.0,106.0
13665,86.0,0,60,7.0,106.0
13666,74.0,40,60,7.0,106.0
13667,91.0,60,60,7.0,106.0
13668,79.0,0,60,7.0,106.0
13669,55.0,1,960,12.0,117.0
13670,43.0,1,960,13.0,127.0
13671,84.0,60,20,7.0,106.0
13672,96.0,0,20,7.0,106.0
13673,83.0,0,20,7.0,106.0
13674,95.0,13,20,7.0,106.0
13675,84.0,20,20,7.0,106.0
13676,96.0,0,20,7.0,106.0
13677,83.0,0,20,7.0,106.0
13678,95.0,20,20,7.0,106.0
13679,84.0,0,20,7.0,106.0
13680,96.0,20,20,7.0,106.0
13681,83.0,0,20,7.0,106.0
13682,95.0,20,20,7.0,106.0
13683,79.0,0,120,0.0,94.0
13684,83.0,0,120,0.0,94.0
13685,71.0,0,1080,8.0,117.0
13686,71.0,0,120,1.0,98.0
13687,74.0,1,120,1.0,98.0
13688,62.0,1,1080,10.0,112.0
13689,55.0,2,1080,11.0,117.0
13690,53.0,4,120,12.0,117.0
13691,53.0,0,120,3.0,110.0
13692,65.0,1,120,3.0,110.0
13693,41.0,1,120,13.0,127.0
13694,96.0,20,20,7.0,106.0
13695,84.0,0,20,7.0,106.0
13696,95.0,20,20,7.0,106.0
13697,83.0,0,20,7.0,106.0
13698,84.0,0,20,7.0,106.0
13699,96.0,20,20,7.0,106.0
13700,83.0,20,20,7.0,106.0
13701,95.0,0,20,7.0,106.0
13702,96.0,0,20,7.0,106.0
13703,84.0,20,20,7.0,106.0
13704,83.0,0,20,7.0,106.0
13705,95.0,20,20,7.0,106.0
13706,84.0,0,20,7.0,106.0
13707,96.0,20,20,7.0,106.0
13708,83.0,0,20,7.0,106.0
13709,95.0,14,20,7.0,106.0
13710,84.0,0,20,7.0,106.0
13711,96.0,20,20,7.0,106.0
13712,95.0,0,20,7.0,106.0
13713,83.0,20,20,7.0,106.0
13714,96.0,0,20,7.0,106.0
13715,84.0,20,20,7.0,106.0
13716,83.0,0,20,7.0,106.0
13717,79.0,0,120,0.0,94.0
13718,83.0,0,120,0.0,94.0
13719,95.0,20,20,7.0,106.0
13720,71.0,0,120,1.0,98.0
13721,74.0,1,120,1.0,98.0
13722,65.0,5,120,3.0,110.0
13723,53.0,0,120,3.0,110.0
13724,96.0,0,20,7.0,106.0
13725,84.0,20,20,7.0,106.0
13726,95.0,0,20,7.0,106.0
13727,83.0,20,20,7.0,106.0
13728,96.0,0,20,7.0,106.0
13729,84.0,20,20,7.0,106.0
13730,83.0,20,20,7.0,106.0
13731,95.0,0,20,7.0,106.0
13732,96.0,0,20,7.0,106.0
13733,84.0,20,20,7.0,106.0
13734,95.0,20,20,7.0,106.0
13735,83.0,0,20,7.0,106.0
13736,96.0,0,20,7.0,106.0
13737,84.0,0,20,7.0,106.0
13738,83.0,0,20,7.0,106.0
13739,95.0,14,20,7.0,106.0
13740,96.0,0,20,7.0,106.0
13741,84.0,20,20,7.0,106.0
13742,83.0,0,20,7.0,106.0
13743,95.0,20,20,7.0,106.0
13744,96.0,0,20,7.0,106.0
13745,84.0,20,20,7.0,106.0
13746,83.0,0,120,0.0,94.0
13747,79.0,20,120,0.0,94.0
13748,83.0,0,20,7.0,106.0
13749,95.0,20,20,7.0,106.0
13750,71.0,0,120,1.0,98.0
13751,74.0,1,120,1.0,98.0
13752,62.0,5,120,3.0,110.0
13753,50.0,0,120,3.0,110.0
13754,96.0,20,20,7.0,106.0
13755,84.0,0,20,7.0,106.0
13756,95.0,0,20,7.0,106.0
13757,83.0,20,20,7.0,106.0
13758,84.0,0,20,7.0,106.0
13759,96.0,20,20,7.0,106.0
13760,83.0,0,20,7.0,106.0
13761,95.0,20,20,7.0,106.0
13762,96.0,20,20,7.0,106.0
13763,84.0,0,20,7.0,106.0
13764,95.0,0,20,7.0,106.0
13765,83.0,20,20,7.0,106.0
13766,84.0,0,20,7.0,106.0
13767,96.0,0,20,7.0,106.0
13768,83.0,14,20,7.0,106.0
13769,95.0,0,20,7.0,106.0
13770,96.0,20,20,7.0,106.0
13771,84.0,0,20,7.0,106.0
13772,95.0,20,20,7.0,106.0
13773,83.0,0,20,7.0,106.0
13774,96.0,0,20,7.0,106.0
13775,84.0,20,20,7.0,106.0
13776,79.0,0,120,0.0,94.0
13777,83.0,20,120,0.0,94.0
13778,83.0,0,20,7.0,106.0
13779,95.0,20,20,7.0,106.0
13780,71.0,1,120,1.0,98.0
13781,74.0,0,120,1.0,98.0
13782,47.0,5,120,3.0,110.0
13783,59.0,0,120,3.0,110.0
13784,84.0,0,20,7.0,106.0
13785,96.0,20,20,7.0,106.0
13786,95.0,0,20,7.0,106.0
13787,83.0,20,20,7.0,106.0
13788,84.0,0,20,7.0,106.0
13789,96.0,20,20,7.0,106.0
13790,95.0,20,20,7.0,106.0
13791,83.0,0,20,7.0,106.0
13792,81.0,0,40,7.0,106.0
13793,93.0,20,40,7.0,106.0
13794,83.0,0,60,7.0,106.0
13795,95.0,0,60,7.0,106.0
13796,79.0,0,120,0.0,94.0
13797,83.0,0,120,0.0,94.0
13798,91.0,0,60,7.0,106.0
13799,79.0,53,60,7.0,106.0
13800,71.0,0,120,1.0,98.0
13801,74.0,1,120,1.0,98.0
13802,53.0,1,120,3.0,110.0
13803,41.0,0,120,3.0,110.0
13804,86.0,60,60,7.0,106.0
13805,74.0,0,60,7.0,106.0
13806,91.0,60,60,7.0,106.0
13807,79.0,0,60,7.0,106.0
13808,71.0,0,60,7.0,106.0
13809,83.0,60,60,7.0,106.0
13810,86.0,0,60,7.0,106.0
13811,74.0,60,60,7.0,106.0
13812,67.0,60,60,7.0,106.0
13813,79.0,0,60,7.0,106.0
13814,83.0,60,60,7.0,106.0
13815,71.0,0,60,7.0,106.0
13816,62.0,60,60,7.0,106.0
13817,74.0,0,60,7.0,106.0
13818,67.0,60,60,7.0,106.0
13819,79.0,0,60,7.0,106.0
13820,59.0,0,60,7.0,106.0
13821,71.0,60,60,7.0,106.0
13822,74.0,0,60,7.0,106.0
13823,62.0,60,60,7.0,106.0
13824,79.0,0,40,7.0,106.0
13825,67.0,60,40,7.0,106.0
13826,71.0,40,40,7.0,106.0
13827,83.0,0,40,7.0,106.0
13828,86.0,40,40,7.0,106.0
13829,74.0,0,40,7.0,106.0
13830,79.0,0,60,7.0,106.0
13831,91.0,40,60,7.0,106.0
13832,71.0,40,960,8.0,117.0
13833,95.0,60,60,7.0,106.0
13834,83.0,0,60,7.0,106.0
13835,62.0,1,960,10.0,112.0
13836,55.0,2,0,11.0,117.0
13837,53.0,1,960,12.0,117.0
13838,41.0,1,960,13.0,127.0
13839,86.0,0,20,7.0,106.0
13840,98.0,0,20,7.0,106.0
13841,96.0,0,20,7.0,106.0
13842,84.0,13,20,7.0,106.0
13843,98.0,20,20,7.0,106.0
13844,86.0,0,20,7.0,106.0
13845,84.0,20,20,7.0,106.0
13846,96.0,0,20,7.0,106.0
13847,98.0,0,20,7.0,106.0
13848,86.0,20,20,7.0,106.0
13849,72.0,60,120,8.0,117.0
13850,96.0,20,20,7.0,106.0
13851,84.0,0,20,7.0,106.0
13852,63.0,2,120,10.0,112.0
13853,51.0,1,120,12.0,117.0
13854,39.0,2,120,13.0,127.0
13855,86.0,20,20,7.0,106.0
13856,98.0,0,20,7.0,106.0
13857,84.0,0,20,7.0,106.0
13858,96.0,20,20,7.0,106.0
13859,86.0,0,20,7.0,106.0
13860,98.0,20,20,7.0,106.0
13861,96.0,20,20,7.0,106.0
13862,84.0,0,20,7.0,106.0
13863,86.0,0,20,7.0,106.0
13864,98.0,20,20,7.0,106.0
13865,96.0,20,20,7.0,106.0
13866,84.0,0,20,7.0,106.0
13867,74.0,0,20,7.0,106.0
13868,86.0,20,20,7.0,106.0
13869,72.0,0,20,7.0,106.0
13870,84.0,13,20,7.0,106.0
13871,86.0,0,20,7.0,106.0
13872,74.0,20,20,7.0,106.0
13873,72.0,0,20,7.0,106.0
13874,84.0,20,20,7.0,106.0
13875,86.0,20,20,7.0,106.0
13876,74.0,0,20,7.0,106.0
13877,72.0,20,20,7.0,106.0
13878,84.0,0,20,7.0,106.0
13879,72.0,0,120,8.0,117.0
13880,72.0,2,120,10.0,112.0
13881,60.0,2,120,11.0,117.0
13882,60.0,1,120,12.0,117.0
13883,48.0,2,120,13.0,127.0
13884,86.0,20,20,7.0,106.0
13885,74.0,0,20,7.0,106.0
13886,72.0,0,20,7.0,106.0
13887,84.0,20,20,7.0,106.0
13888,74.0,0,20,7.0,106.0
13889,86.0,20,20,7.0,106.0
13890,84.0,0,20,7.0,106.0
13891,72.0,20,20,7.0,106.0
13892,86.0,0,20,7.0,106.0
13893,74.0,20,20,7.0,106.0
13894,72.0,20,20,7.0,106.0
13895,84.0,0,20,7.0,106.0
13896,86.0,0,20,7.0,106.0
13897,74.0,20,20,7.0,106.0
13898,72.0,0,20,7.0,106.0
13899,84.0,13,20,7.0,106.0
13900,74.0,0,20,7.0,106.0
13901,86.0,20,20,7.0,106.0
13902,72.0,20,20,7.0,106.0
13903,84.0,0,20,7.0,106.0
13904,86.0,0,20,7.0,106.0
13905,74.0,20,20,7.0,106.0
13906,84.0,0,20,7.0,106.0
13907,67.0,0,120,8.0,117.0
13908,72.0,20,20,7.0,106.0
13909,67.0,2,120,10.0,112.0
13910,55.0,2,120,11.0,117.0
13911,55.0,1,120,12.0,117.0
13912,43.0,2,120,13.0,127.0
13913,86.0,20,20,7.0,106.0
13914,74.0,0,20,7.0,106.0
13915,72.0,20,20,7.0,106.0
13916,84.0,0,20,7.0,106.0
13917,86.0,20,20,7.0,106.0
13918,74.0,0,20,7.0,106.0
13919,72.0,20,20,7.0,106.0
13920,84.0,0,20,7.0,106.0
13921,86.0,20,20,7.0,106.0
13922,74.0,0,20,7.0,106.0
13923,72.0,20,20,7.0,106.0
13924,84.0,0,20,7.0,106.0
13925,74.0,0,20,7.0,106.0
13926,86.0,0,20,7.0,106.0
13927,72.0,0,20,7.0,106.0
13928,84.0,13,20,7.0,106.0
13929,74.0,0,20,7.0,106.0
13930,86.0,20,20,7.0,106.0
13931,72.0,0,20,7.0,106.0
13932,84.0,20,20,7.0,106.0
13933,86.0,0,20,7.0,106.0
13934,74.0,20,20,7.0,106.0
13935,84.0,20,20,7.0,106.0
13936,72.0,0,20,7.0,106.0
13937,63.0,20,120,8.0,117.0
13938,63.0,2,120,10.0,112.0
13939,51.0,2,120,11.0,117.0
13940,51.0,1,120,12.0,117.0
13941,39.0,2,120,13.0,127.0
13942,74.0,20,20,7.0,106.0
13943,86.0,0,20,7.0,106.0
13944,72.0,20,20,7.0,106.0
13945,84.0,0,20,7.0,106.0
13946,74.0,20,20,7.0,106.0
13947,86.0,0,20,7.0,106.0
13948,72.0,20,20,7.0,106.0
13949,84.0,0,20,7.0,106.0
13950,83.0,20,40,7.0,106.0
13951,71.0,0,40,7.0,106.0
13952,60.0,0,30,7.0,106.0
13953,84.0,0,30,7.0,106.0
13954,72.0,0,30,7.0,106.0
13955,63.0,23,30,7.0,106.0
13956,48.0,1,60,12.0,117.0
13957,75.0,0,30,7.0,106.0
13958,67.0,30,30,7.0,106.0
13959,79.0,30,30,7.0,106.0
13960,63.0,0,30,7.0,106.0
13961,60.0,40,120,8.0,117.0
13962,60.0,2,120,10.0,112.0
13963,48.0,2,120,11.0,117.0
13964,36.0,2,120,13.0,127.0
13965,50.0,5,15,12.0,117.0
13966,67.0,0,30,7.0,106.0
13967,48.0,15,15,12.0,117.0
13968,47.0,5,15,12.0,117.0
13969,63.0,10,30,7.0,106.0
13970,84.0,30,60,7.0,106.0
13971,48.0,15,15,12.0,117.0
13972,67.0,10,30,7.0,106.0
13973,63.0,30,30,7.0,106.0
13974,62.0,4,15,11.0,117.0
13975,60.0,30,30,7.0,106.0
13976,60.0,15,15,11.0,117.0
13977,59.0,4,15,11.0,117.0
13978,63.0,11,30,7.0,106.0
13979,72.0,0,30,7.0,106.0
13980,72.0,0,300,2.0,94.0
13981,60.0,15,15,11.0,117.0
13982,74.0,2,20,2.0,94.0
13983,67.0,11,30,7.0,106.0
13984,75.0,0,30,7.0,106.0
13985,72.0,20,20,2.0,94.0
13986,63.0,8,30,7.0,106.0
13987,79.0,0,30,7.0,106.0
13988,71.0,12,20,2.0,94.0
13989,74.0,2,15,10.0,112.0
13990,67.0,0,30,7.0,106.0
13991,72.0,15,15,10.0,112.0
13992,71.0,2,15,10.0,112.0
13993,63.0,13,30,7.0,106.0
13994,84.0,18,60,7.0,106.0
13995,72.0,15,15,10.0,112.0
13996,72.0,0,60,2.0,94.0
13997,67.0,13,30,7.0,106.0
13998,63.0,28,30,7.0,106.0
13999,74.0,2,60,2.0,94.0
14000,86.0,0,15,8.0,117.0
14001,84.0,13,15,8.0,117.0
14002,60.0,30,30,7.0,106.0
14003,83.0,15,15,8.0,117.0
14004,84.0,15,15,8.0,117.0
14005,63.0,0,30,7.0,106.0
14006,75.0,0,30,7.0,106.0
14007,67.0,15,30,7.0,106.0
14008,79.0,0,30,7.0,106.0
14009,63.0,30,30,7.0,106.0
14010,84.0,0,30,7.0,106.0
14011,75.0,2,120,2.0,94.0
14012,67.0,0,30,7.0,106.0
14013,63.0,28,30,7.0,106.0
14014,87.0,30,60,7.0,106.0
14015,67.0,30,30,7.0,106.0
14016,63.0,30,30,7.0,106.0
14017,72.0,2,120,2.0,94.0
14018,60.0,30,30,7.0,106.0
14019,63.0,0,30,7.0,106.0
14020,75.0,28,30,7.0,106.0
14021,67.0,0,30,7.0,106.0
14022,79.0,30,30,7.0,106.0
14023,63.0,30,30,7.0,106.0
14024,84.0,0,30,7.0,106.0
14025,68.0,2,120,2.0,94.0
14026,67.0,0,30,7.0,106.0
14027,87.0,30,60,7.0,106.0
14028,63.0,24,30,7.0,106.0
14029,67.0,30,30,7.0,106.0
14030,63.0,30,30,7.0,106.0
14031,67.0,6,120,3.0,110.0
14032,50.0,30,30,7.0,106.0
14033,77.0,0,30,7.0,106.0
14034,62.0,24,30,7.0,106.0
14035,50.0,30,30,7.0,106.0
14036,83.0,0,30,7.0,106.0
14037,86.0,30,30,7.0,106.0
14038,62.0,0,30,7.0,106.0
14039,66.0,6,120,3.0,110.0
14040,55.0,30,30,7.0,106.0
14041,59.0,0,30,7.0,106.0
14042,62.0,24,30,7.0,106.0
14043,89.0,0,60,7.0,106.0
14044,65.0,30,30,7.0,106.0
14045,59.0,0,30,7.0,106.0
14046,62.0,30,30,7.0,106.0
14047,65.0,6,120,3.0,110.0
14048,55.0,30,30,7.0,106.0
14049,59.0,0,30,7.0,106.0
14050,62.0,0,30,7.0,106.0
14051,77.0,24,30,7.0,106.0
14052,65.0,0,30,7.0,106.0
14053,83.0,30,30,7.0,106.0
14054,59.0,0,30,7.0,106.0
14055,86.0,30,30,7.0,106.0
14056,62.0,0,30,7.0,106.0
14057,62.0,6,120,3.0,110.0
14058,65.0,0,30,7.0,106.0
14059,62.0,0,30,7.0,106.0
14060,59.0,24,30,7.0,106.0
14061,89.0,30,60,7.0,106.0
14062,65.0,30,30,7.0,106.0
14063,59.0,30,30,7.0,106.0
14064,62.0,0,30,7.0,106.0
14065,71.0,2,120,2.0,94.0
14066,59.0,4,120,3.0,110.0
14067,55.0,30,30,7.0,106.0
14068,83.0,24,30,7.0,106.0
14069,59.0,0,30,7.0,106.0
14070,62.0,0,30,7.0,106.0
14071,86.0,0,30,7.0,106.0
14072,65.0,30,30,7.0,106.0
14073,59.0,0,30,7.0,106.0
14074,89.0,0,30,7.0,106.0
14075,62.0,30,30,7.0,106.0
14076,68.0,2,120,2.0,94.0
14077,56.0,4,120,3.0,110.0
14078,65.0,0,30,7.0,106.0
14079,59.0,0,30,7.0,106.0
14080,95.0,30,60,7.0,106.0
14081,62.0,24,30,7.0,106.0
14082,65.0,30,30,7.0,106.0
14083,62.0,0,30,7.0,106.0
14084,59.0,30,30,7.0,106.0
14085,67.0,2,120,2.0,94.0
14086,55.0,4,120,3.0,110.0
14087,55.0,30,30,7.0,106.0
14088,83.0,0,30,7.0,106.0
14089,59.0,0,30,7.0,106.0
14090,62.0,24,30,7.0,106.0
14091,86.0,30,30,7.0,106.0
14092,65.0,0,30,7.0,106.0
14093,89.0,30,30,7.0,106.0
14094,62.0,0,30,7.0,106.0
14095,59.0,0,30,7.0,106.0
14096,65.0,2,120,2.0,94.0
14097,53.0,4,120,3.0,110.0
14098,65.0,30,30,7.0,106.0
14099,95.0,0,60,7.0,106.0
14100,62.0,23,30,7.0,106.0
14101,59.0,0,30,7.0,106.0
14102,65.0,30,30,7.0,106.0
14103,62.0,30,30,7.0,106.0
14104,59.0,0,30,7.0,106.0
14105,62.0,2,120,2.0,94.0
14106,43.0,3,120,12.0,117.0
14107,50.0,1,120,3.0,110.0
14108,31.0,1,120,13.0,127.0
14109,36.0,0,40,7.0,106.0
14110,48.0,30,40,7.0,106.0
14111,51.0,0,40,7.0,106.0
14112,39.0,33,40,7.0,106.0
14113,55.0,40,40,7.0,106.0
14114,43.0,0,40,7.0,106.0
14115,36.0,7,120,13.0,127.0
14116,50.0,5,15,12.0,117.0
14117,48.0,15,15,12.0,117.0
14118,60.0,0,40,7.0,106.0
14119,48.0,40,40,7.0,106.0
14120,47.0,15,15,12.0,117.0
14121,48.0,10,15,12.0,117.0
14122,63.0,0,40,7.0,106.0
14123,51.0,5,40,7.0,106.0
14124,55.0,30,40,7.0,106.0
14125,67.0,0,40,7.0,106.0
14126,62.0,4,15,11.0,117.0
14127,60.0,15,15,11.0,117.0
14128,48.0,40,40,7.0,106.0
14129,60.0,0,40,7.0,106.0
14130,59.0,15,15,11.0,117.0
14131,84.0,0,300,0.0,94.0
14132,60.0,9,15,11.0,117.0
14133,63.0,6,40,7.0,106.0
14134,51.0,0,40,7.0,106.0
14135,86.0,11,20,0.0,94.0
14136,84.0,0,20,0.0,94.0
14137,55.0,20,40,7.0,106.0
14138,83.0,20,20,0.0,94.0
14139,67.0,0,40,7.0,106.0
14140,74.0,2,15,10.0,112.0
14141,72.0,0,30,7.0,106.0
14142,60.0,0,30,7.0,106.0
14143,72.0,15,15,10.0,112.0
14144,71.0,2,15,10.0,112.0
14145,75.0,13,30,7.0,106.0
14146,84.0,20,60,0.0,94.0
14147,63.0,0,30,7.0,106.0
14148,72.0,15,15,10.0,112.0
14149,79.0,0,30,7.0,106.0
14150,67.0,0,30,7.0,106.0
14151,84.0,0,30,7.0,106.0
14152,72.0,30,30,7.0,106.0
14153,86.0,13,60,0.0,94.0
14154,86.0,0,15,8.0,117.0
14155,87.0,0,30,7.0,106.0
14156,84.0,15,15,8.0,117.0
14157,51.0,0,30,7.0,106.0
14158,83.0,15,15,8.0,117.0
14159,75.0,0,30,7.0,106.0
14160,63.0,0,30,7.0,106.0
14161,84.0,15,15,8.0,117.0
14162,87.0,0,30,7.0,106.0
14163,51.0,15,30,7.0,106.0
14164,87.0,30,120,0.0,94.0
14165,75.0,30,30,7.0,106.0
14166,63.0,0,30,7.0,106.0
14167,84.0,0,30,7.0,106.0
14168,48.0,0,30,7.0,106.0
14169,72.0,30,30,7.0,106.0
14170,60.0,0,30,7.0,106.0
14171,48.0,30,30,7.0,106.0
14172,84.0,0,30,7.0,106.0
14173,72.0,0,30,7.0,106.0
14174,60.0,30,30,7.0,106.0
14175,84.0,30,120,0.0,94.0
14176,93.0,30,30,7.0,106.0
14177,57.0,0,30,7.0,106.0
14178,69.0,30,30,7.0,106.0
14179,81.0,0,30,7.0,106.0
14180,93.0,30,30,7.0,106.0
14181,57.0,0,30,7.0,106.0
14182,81.0,30,30,7.0,106.0
14183,69.0,0,30,7.0,106.0
14184,81.0,0,120,0.0,94.0
14185,91.0,0,30,7.0,106.0
14186,55.0,30,30,7.0,106.0
14187,79.0,24,30,7.0,106.0
14188,67.0,0,30,7.0,106.0
14189,55.0,30,30,7.0,106.0
14190,91.0,0,30,7.0,106.0
14191,79.0,0,30,7.0,106.0
14192,67.0,30,30,7.0,106.0
14193,79.0,2,120,2.0,94.0
14194,67.0,4,120,3.0,110.0
14195,54.0,30,30,7.0,106.0
14196,90.0,0,30,7.0,106.0
14197,78.0,24,30,7.0,106.0
14198,66.0,0,30,7.0,106.0
14199,90.0,0,30,7.0,106.0
14200,54.0,30,30,7.0,106.0
14201,66.0,30,30,7.0,106.0
14202,78.0,0,30,7.0,106.0
14203,78.0,2,120,2.0,94.0
14204,66.0,4,120,3.0,110.0
14205,51.0,0,30,7.0,106.0
14206,87.0,30,30,7.0,106.0
14207,75.0,24,30,7.0,106.0
14208,63.0,0,30,7.0,106.0
14209,87.0,0,30,7.0,106.0
14210,51.0,30,30,7.0,106.0
14211,75.0,0,30,7.0,106.0
14212,63.0,30,30,7.0,106.0
14213,75.0,2,120,2.0,94.0
14214,63.0,4,120,3.0,110.0
14215,50.0,30,30,7.0,106.0
14216,86.0,0,30,7.0,106.0
14217,62.0,0,30,7.0,106.0
14218,74.0,24,30,7.0,106.0
14219,50.0,0,30,7.0,106.0
14220,86.0,30,30,7.0,106.0
14221,74.0,0,30,7.0,106.0
14222,62.0,30,30,7.0,106.0
14223,74.0,2,120,2.0,94.0
14224,62.0,4,120,3.0,110.0
14225,85.0,0,30,7.0,106.0
14226,49.0,30,30,7.0,106.0
14227,73.0,0,30,7.0,106.0
14228,61.0,24,30,7.0,106.0
14229,85.0,30,30,7.0,106.0
14230,49.0,0,30,7.0,106.0
14231,73.0,0,30,7.0,106.0
14232,61.0,30,30,7.0,106.0
14233,85.0,0,120,0.0,94.0
14234,73.0,2,120,2.0,94.0
14235,61.0,4,120,3.0,110.0
14236,84.0,0,30,7.0,106.0
14237,48.0,30,30,7.0,106.0
14238,72.0,0,30,7.0,106.0
14239,60.0,24,30,7.0,106.0
14240,84.0,30,30,7.0,106.0
14241,48.0,0,30,7.0,106.0
14242,72.0,30,30,7.0,106.0
14243,60.0,0,30,7.0,106.0
14244,84.0,0,120,0.0,94.0
14245,72.0,2,120,2.0,94.0
14246,60.0,4,120,3.0,110.0
14247,45.0,0,30,7.0,106.0
14248,81.0,0,30,7.0,106.0
14249,57.0,0,30,7.0,106.0
14250,69.0,24,30,7.0,106.0
14251,81.0,30,30,7.0,106.0
14252,45.0,0,30,7.0,106.0
14253,57.0,0,30,7.0,106.0
14254,69.0,30,30,7.0,106.0
14255,81.0,30,120,0.0,94.0
14256,69.0,2,120,2.0,94.0
14257,57.0,4,120,3.0,110.0
14258,78.0,0,30,7.0,106.0
14259,42.0,30,30,7.0,106.0
14260,66.0,24,30,7.0,106.0
14261,54.0,0,30,7.0,106.0
14262,78.0,0,30,7.0,106.0
14263,42.0,30,30,7.0,106.0
14264,78.0,0,120,0.0,94.0
14265,66.0,0,30,7.0,106.0
14266,54.0,30,30,7.0,106.0
14267,66.0,2,120,2.0,94.0
14268,54.0,4,120,3.0,110.0
14269,74.0,0,30,7.0,106.0
14270,38.0,0,30,7.0,106.0
14271,50.0,0,30,7.0,106.0
14272,62.0,23,30,7.0,106.0
14273,74.0,0,30,7.0,106.0
14274,38.0,30,30,7.0,106.0
14275,50.0,0,30,7.0,106.0
14276,74.0,30,120,0.0,94.0
14277,62.0,30,30,7.0,106.0
14278,62.0,2,120,2.0,94.0
14279,50.0,3,120,12.0,117.0
14280,50.0,1,120,3.0,110.0
14281,38.0,1,120,13.0,127.0
14282,55.0,0,30,7.0,106.0
14283,58.0,0,30,7.0,106.0
14284,67.0,23,30,7.0,106.0
14285,70.0,30,30,7.0,106.0
14286,62.0,0,30,7.0,106.0
14287,58.0,0,30,7.0,106.0
14288,82.0,30,120,0.0,94.0
14289,74.0,30,30,7.0,106.0
14290,67.0,1,120,2.0,94.0
14291,55.0,4,120,3.0,110.0
14292,31.0,1,120,13.0,127.0
14293,45.0,5,15,12.0,117.0
14294,62.0,0,30,7.0,106.0
14295,43.0,15,15,12.0,117.0
14296,42.0,5,15,12.0,117.0
14297,58.0,10,30,7.0,106.0
14298,79.0,30,60,7.0,106.0
14299,43.0,15,15,12.0,117.0
14300,62.0,10,30,7.0,106.0
14301,58.0,30,30,7.0,106.0
14302,57.0,4,15,11.0,117.0
14303,55.0,30,30,7.0,106.0
14304,55.0,15,15,11.0,117.0
14305,54.0,4,15,11.0,117.0
14306,58.0,0,30,7.0,106.0
14307,67.0,11,30,7.0,106.0
14308,79.0,1,300,1.0,98.0
14309,55.0,15,15,11.0,117.0
14310,81.0,1,20,1.0,98.0
14311,70.0,0,30,7.0,106.0
14312,62.0,11,30,7.0,106.0
14313,79.0,20,20,1.0,98.0
14314,58.0,9,30,7.0,106.0
14315,74.0,0,30,7.0,106.0
14316,78.0,11,20,1.0,98.0
14317,69.0,1,15,10.0,112.0
14318,62.0,19,30,7.0,106.0
14319,67.0,15,15,10.0,112.0
14320,66.0,2,15,10.0,112.0
14321,58.0,13,30,7.0,106.0
14322,79.0,0,60,7.0,106.0
14323,79.0,1,60,1.0,98.0
14324,67.0,15,15,10.0,112.0
14325,62.0,13,30,7.0,106.0
14326,58.0,29,30,7.0,106.0
14327,81.0,1,60,1.0,98.0
14328,81.0,0,15,8.0,117.0
14329,79.0,14,15,8.0,117.0
14330,55.0,30,30,7.0,106.0
14331,78.0,0,15,8.0,117.0
14332,70.0,0,30,7.0,106.0
14333,58.0,15,30,7.0,106.0
14334,79.0,15,15,8.0,117.0
14335,62.0,0,30,7.0,106.0
14336,74.0,15,30,7.0,106.0
14337,79.0,30,30,7.0,106.0
14338,58.0,0,30,7.0,106.0
14339,82.0,1,120,1.0,98.0
14340,62.0,30,30,7.0,106.0
14341,58.0,29,30,7.0,106.0
14342,82.0,0,60,7.0,106.0
14343,62.0,30,30,7.0,106.0
14344,58.0,30,30,7.0,106.0
14345,79.0,1,120,1.0,98.0
14346,55.0,30,30,7.0,106.0
14347,58.0,0,30,7.0,106.0
14348,70.0,29,30,7.0,106.0
14349,62.0,30,30,7.0,106.0
14350,74.0,0,30,7.0,106.0
14351,58.0,0,30,7.0,106.0
14352,79.0,30,30,7.0,106.0
14353,75.0,1,120,1.0,98.0
14354,62.0,0,30,7.0,106.0
14355,82.0,30,60,7.0,106.0
14356,58.0,28,30,7.0,106.0
14357,62.0,30,30,7.0,106.0
14358,58.0,30,30,7.0,106.0
14359,74.0,2,120,2.0,94.0
14360,45.0,30,30,7.0,106.0
14361,57.0,28,30,7.0,106.0
14362,72.0,0,30,7.0,106.0
14363,45.0,0,30,7.0,106.0
14364,78.0,30,30,7.0,106.0
14365,81.0,30,30,7.0,106.0
14366,57.0,0,30,7.0,106.0
14367,73.0,2,120,2.0,94.0
14368,50.0,0,30,7.0,106.0
14369,84.0,30,60,7.0,106.0
14370,54.0,0,30,7.0,106.0
14371,57.0,28,30,7.0,106.0
14372,60.0,30,30,7.0,106.0
14373,57.0,30,30,7.0,106.0
14374,54.0,0,30,7.0,106.0
14375,72.0,2,120,2.0,94.0
14376,50.0,30,30,7.0,106.0
14377,54.0,28,30,7.0,106.0
14378,57.0,0,30,7.0,106.0
14379,72.0,0,30,7.0,106.0
14380,60.0,0,30,7.0,106.0
14381,78.0,30,30,7.0,106.0
14382,57.0,30,30,7.0,106.0
14383,54.0,0,30,7.0,106.0
14384,81.0,0,30,7.0,106.0
14385,69.0,2,120,2.0,94.0
14386,60.0,0,30,7.0,106.0
14387,57.0,24,30,7.0,106.0
14388,54.0,0,30,7.0,106.0
14389,84.0,30,60,7.0,106.0
14390,60.0,30,30,7.0,106.0
14391,54.0,30,30,7.0,106.0
14392,57.0,0,30,7.0,106.0
14393,66.0,6,120,3.0,110.0
14394,50.0,30,30,7.0,106.0
14395,54.0,0,30,7.0,106.0
14396,57.0,24,30,7.0,106.0
14397,78.0,0,30,7.0,106.0
14398,81.0,0,30,7.0,106.0
14399,60.0,30,30,7.0,106.0
14400,54.0,0,30,7.0,106.0
14401,57.0,0,30,7.0,106.0
14402,84.0,30,30,7.0,106.0
14403,63.0,6,120,3.0,110.0
14404,60.0,0,30,7.0,106.0
14405,54.0,24,30,7.0,106.0
14406,57.0,0,30,7.0,106.0
14407,90.0,30,60,7.0,106.0
14408,60.0,30,30,7.0,106.0
14409,54.0,0,30,7.0,106.0
14410,57.0,30,30,7.0,106.0
14411,62.0,6,120,3.0,110.0
14412,50.0,30,30,7.0,106.0
14413,78.0,0,30,7.0,106.0
14414,54.0,0,30,7.0,106.0
14415,57.0,24,30,7.0,106.0
14416,60.0,0,30,7.0,106.0
14417,81.0,30,30,7.0,106.0
14418,54.0,0,30,7.0,106.0
14419,57.0,30,30,7.0,106.0
14420,84.0,0,30,7.0,106.0
14421,60.0,6,120,3.0,110.0
14422,60.0,30,30,7.0,106.0
14423,57.0,23,30,7.0,106.0
14424,90.0,0,60,7.0,106.0
14425,54.0,0,30,7.0,106.0
14426,60.0,30,30,7.0,106.0
14427,57.0,30,30,7.0,106.0
14428,54.0,0,30,7.0,106.0
14429,50.0,5,120,12.0,117.0
14430,57.0,1,120,3.0,110.0
14431,38.0,1,120,13.0,127.0
14432,43.0,30,40,7.0,106.0
14433,31.0,0,40,7.0,106.0
14434,46.0,33,40,7.0,106.0
14435,34.0,0,40,7.0,106.0
14436,50.0,40,40,7.0,106.0
14437,38.0,0,40,7.0,106.0
14438,31.0,1,120,13.0,127.0
14439,45.0,5,15,12.0,117.0
14440,43.0,15,15,12.0,117.0
14441,43.0,40,40,7.0,106.0
14442,55.0,0,40,7.0,106.0
14443,42.0,15,15,12.0,117.0
14444,43.0,10,15,12.0,117.0
14445,58.0,5,40,7.0,106.0
14446,46.0,0,40,7.0,106.0
14447,50.0,0,40,7.0,106.0
14448,62.0,30,40,7.0,106.0
14449,57.0,4,15,11.0,117.0
14450,55.0,15,15,11.0,117.0
14451,55.0,40,40,7.0,106.0
14452,43.0,0,40,7.0,106.0
14453,54.0,15,15,11.0,117.0
14454,55.0,9,15,11.0,117.0
14455,55.0,6,300,3.0,110.0
14456,46.0,6,40,7.0,106.0
14457,58.0,0,40,7.0,106.0
14458,57.0,17,20,3.0,110.0
14459,55.0,6,20,3.0,110.0
14460,50.0,14,40,7.0,106.0
14461,62.0,0,40,7.0,106.0
14462,54.0,20,20,3.0,110.0
14463,69.0,2,15,10.0,112.0
14464,67.0,14,30,7.0,106.0
14465,55.0,0,30,7.0,106.0
14466,67.0,11,15,10.0,112.0
14467,66.0,2,15,10.0,112.0
14468,58.0,13,30,7.0,106.0
14469,70.0,0,30,7.0,106.0
14470,67.0,15,15,10.0,112.0
14471,55.0,4,60,3.0,110.0
14472,74.0,0,30,7.0,106.0
14473,62.0,13,30,7.0,106.0
14474,79.0,0,30,7.0,106.0
14475,67.0,24,30,7.0,106.0
14476,57.0,6,60,3.0,110.0
14477,81.0,30,15,8.0,117.0
14478,46.0,0,30,7.0,106.0
14479,82.0,0,30,7.0,106.0
14480,79.0,9,15,8.0,117.0
14481,78.0,0,15,8.0,117.0
14482,79.0,15,15,8.0,117.0
14483,58.0,15,30,7.0,106.0
14484,70.0,0,30,7.0,106.0
14485,46.0,0,30,7.0,106.0
14486,82.0,15,30,7.0,106.0
14487,70.0,0,30,7.0,106.0
14488,58.0,30,30,7.0,106.0
14489,58.0,6,120,3.0,110.0
14490,79.0,30,30,7.0,106.0
14491,43.0,0,30,7.0,106.0
14492,67.0,24,30,7.0,106.0
14493,55.0,0,30,7.0,106.0
14494,79.0,0,30,7.0,106.0
14495,43.0,30,30,7.0,106.0
14496,67.0,0,30,7.0,106.0
14497,55.0,30,30,7.0,106.0
14498,55.0,6,120,3.0,110.0
14499,88.0,0,30,7.0,106.0
14500,52.0,30,30,7.0,106.0
14501,76.0,0,30,7.0,106.0
14502,64.0,24,30,7.0,106.0
14503,88.0,0,30,7.0,106.0
14504,52.0,30,30,7.0,106.0
14505,76.0,0,30,7.0,106.0
14506,64.0,30,30,7.0,106.0
14507,52.0,6,120,3.0,110.0
14508,49.0,30,30,7.0,106.0
14509,85.0,0,30,7.0,106.0
14510,73.0,0,30,7.0,106.0
14511,61.0,28,30,7.0,106.0
14512,49.0,0,30,7.0,106.0
14513,85.0,30,30,7.0,106.0
14514,73.0,0,30,7.0,106.0
14515,61.0,30,30,7.0,106.0
14516,85.0,0,120,0.0,94.0
14517,73.0,2,120,2.0,94.0
14518,48.0,30,30,7.0,106.0
14519,84.0,0,30,7.0,106.0
14520,60.0,28,30,7.0,106.0
14521,72.0,0,30,7.0,106.0
14522,48.0,0,30,7.0,106.0
14523,84.0,30,30,7.0,106.0
14524,60.0,0,30,7.0,106.0
14525,84.0,0,120,0.0,94.0
14526,72.0,30,30,7.0,106.0
14527,72.0,2,120,2.0,94.0
14528,83.0,0,30,7.0,106.0
14529,47.0,30,30,7.0,106.0
14530,59.0,28,30,7.0,106.0
14531,71.0,0,30,7.0,106.0
14532,47.0,0,30,7.0,106.0
14533,83.0,30,30,7.0,106.0
14534,83.0,0,120,0.0,94.0
14535,59.0,0,30,7.0,106.0
14536,71.0,30,30,7.0,106.0
14537,71.0,2,120,2.0,94.0
14538,46.0,0,30,7.0,106.0
14539,82.0,30,30,7.0,106.0
14540,58.0,28,30,7.0,106.0
14541,70.0,0,30,7.0,106.0
14542,82.0,0,30,7.0,106.0
14543,46.0,30,30,7.0,106.0
14544,70.0,0,30,7.0,106.0
14545,58.0,30,30,7.0,106.0
14546,82.0,0,120,0.0,94.0
14547,70.0,2,120,2.0,94.0
14548,43.0,30,30,7.0,106.0
14549,79.0,0,30,7.0,106.0
14550,55.0,0,30,7.0,106.0
14551,67.0,24,30,7.0,106.0
14552,79.0,0,30,7.0,106.0
14553,43.0,30,30,7.0,106.0
14554,55.0,30,30,7.0,106.0
14555,67.0,0,30,7.0,106.0
14556,79.0,1,120,1.0,98.0
14557,67.0,5,120,3.0,110.0
14558,40.0,0,30,7.0,106.0
14559,76.0,30,30,7.0,106.0
14560,64.0,0,30,7.0,106.0
14561,52.0,24,30,7.0,106.0
14562,76.0,0,30,7.0,106.0
14563,40.0,30,30,7.0,106.0
14564,64.0,30,30,7.0,106.0
14565,52.0,0,30,7.0,106.0
14566,76.0,1,120,1.0,98.0
14567,64.0,5,120,3.0,110.0
14568,36.0,0,30,7.0,106.0
14569,72.0,30,30,7.0,106.0
14570,60.0,24,30,7.0,106.0
14571,48.0,0,30,7.0,106.0
14572,36.0,30,30,7.0,106.0
14573,72.0,0,30,7.0,106.0
14574,60.0,0,30,7.0,106.0
14575,48.0,30,30,7.0,106.0
14576,72.0,1,120,1.0,98.0
14577,60.0,5,120,3.0,110.0
14578,34.0,30,30,7.0,106.0
14579,70.0,0,30,7.0,106.0
14580,46.0,0,30,7.0,106.0
14581,58.0,24,30,7.0,106.0
14582,34.0,0,30,7.0,106.0
14583,70.0,30,30,7.0,106.0
14584,58.0,30,30,7.0,106.0
14585,46.0,0,30,7.0,106.0
14586,70.0,1,120,1.0,98.0
14587,58.0,5,120,3.0,110.0
14588,31.0,0,30,7.0,106.0
14589,67.0,0,30,7.0,106.0
14590,43.0,23,30,7.0,106.0
14591,55.0,0,30,7.0,106.0
14592,31.0,30,30,7.0,106.0
14593,67.0,0,30,7.0,106.0
14594,58.0,30,120,8.0,117.0
14595,55.0,0,30,7.0,106.0
14596,43.0,30,30,7.0,106.0
14597,67.0,1,120,1.0,98.0
14598,60.0,1,120,10.0,112.0
14599,48.0,2,120,11.0,117.0
14600,48.0,1,120,12.0,117.0
14601,63.0,1,120,3.0,110.0
14602,36.0,1,120,13.0,127.0
14603,41.0,0,30,7.0,106.0
14604,53.0,0,30,7.0,106.0
14605,48.0,23,30,7.0,106.0
14606,60.0,0,30,7.0,106.0
14607,44.0,0,30,7.0,106.0
14608,56.0,30,30,7.0,106.0
14609,48.0,30,30,7.0,106.0
14610,60.0,0,30,7.0,106.0
14611,65.0,1,120,3.0,110.0
14612,53.0,30,30,7.0,106.0
14613,65.0,0,30,7.0,106.0
14614,48.0,0,30,7.0,106.0
14615,60.0,24,30,7.0,106.0
14616,44.0,0,30,7.0,106.0
14617,56.0,30,30,7.0,106.0
14618,48.0,0,30,7.0,106.0
14619,60.0,30,30,7.0,106.0
14620,60.0,6,120,3.0,110.0
14621,44.0,30,30,7.0,106.0
14622,56.0,0,30,7.0,106.0
14623,53.0,0,30,7.0,106.0
14624,65.0,24,30,7.0,106.0
14625,48.0,0,30,7.0,106.0
14626,60.0,30,30,7.0,106.0
14627,53.0,0,30,7.0,106.0
14628,65.0,30,30,7.0,106.0
14629,56.0,6,120,3.0,110.0
14630,56.0,30,30,7.0,106.0
14631,68.0,0,30,7.0,106.0
14632,53.0,0,30,7.0,106.0
14633,65.0,24,30,7.0,106.0
14634,60.0,30,30,7.0,106.0
14635,48.0,0,30,7.0,106.0
14636,65.0,0,30,7.0,106.0
14637,53.0,30,30,7.0,106.0
14638,53.0,6,120,3.0,110.0
14639,60.0,0,30,7.0,106.0
14640,48.0,30,30,7.0,106.0
14641,68.0,0,30,7.0,106.0
14642,56.0,28,30,7.0,106.0
14643,53.0,0,30,7.0,106.0
14644,65.0,30,30,7.0,106.0
14645,68.0,30,30,7.0,106.0
14646,56.0,0,30,7.0,106.0
14647,80.0,1,120,1.0,98.0
14648,77.0,1,120,2.0,94.0
14649,72.0,0,30,7.0,106.0
14650,60.0,30,30,7.0,106.0
14651,68.0,0,30,7.0,106.0
14652,56.0,28,30,7.0,106.0
14653,53.0,0,30,7.0,106.0
14654,65.0,30,30,7.0,106.0
14655,56.0,0,30,7.0,106.0
14656,68.0,30,30,7.0,106.0
14657,77.0,1,120,1.0,98.0
14658,72.0,1,120,2.0,94.0
14659,65.0,0,30,7.0,106.0
14660,53.0,30,30,7.0,106.0
14661,72.0,0,30,7.0,106.0
14662,60.0,28,30,7.0,106.0
14663,56.0,30,810,8.0,117.0
14664,68.0,0,30,7.0,106.0
14665,56.0,30,30,7.0,106.0
14666,60.0,2,810,10.0,112.0
14667,53.0,2,810,11.0,117.0
14668,41.0,1,810,12.0,117.0
14669,29.0,1,810,13.0,127.0
14670,60.0,30,30,7.0,106.0
14671,72.0,0,30,7.0,106.0
14672,72.0,1,120,1.0,98.0
14673,68.0,1,120,2.0,94.0
14674,58.0,0,15,8.0,117.0
14675,77.0,0,30,7.0,106.0
14676,65.0,30,30,7.0,106.0
14677,56.0,8,15,8.0,117.0
14678,55.0,15,15,8.0,117.0
14679,60.0,0,30,7.0,106.0
14680,72.0,0,30,7.0,106.0
14681,56.0,0,30,7.0,106.0
14682,68.0,15,30,7.0,106.0
14683,56.0,30,0,8.0,117.0
14684,60.0,2,0,10.0,112.0
14685,53.0,2,90,11.0,117.0
14686,41.0,1,0,12.0,117.0
14687,29.0,2,90,13.0,127.0
14688,60.0,0,30,7.0,106.0
14689,72.0,0,30,7.0,106.0
14690,68.0,1,120,1.0,98.0
14691,65.0,1,120,2.0,94.0
14692,53.0,2,0,11.0,117.0
14693,41.0,1,0,12.0,117.0
14694,29.0,1,0,13.0,127.0
14695,53.0,0,30,7.0,106.0
14696,41.0,0,30,7.0,106.0
14697,48.0,23,30,7.0,106.0
14698,60.0,0,30,7.0,106.0
14699,44.0,30,30,7.0,106.0
14700,56.0,0,30,7.0,106.0
14701,48.0,30,30,7.0,106.0
14702,60.0,0,30,7.0,106.0
14703,65.0,1,120,3.0,110.0
14704,65.0,0,30,7.0,106.0
14705,53.0,30,30,7.0,106.0
14706,60.0,0,30,7.0,106.0
14707,48.0,24,30,7.0,106.0
14708,56.0,30,30,7.0,106.0
14709,44.0,0,30,7.0,106.0
14710,48.0,0,30,7.0,106.0
14711,60.0,30,30,7.0,106.0
14712,60.0,6,120,3.0,110.0
14713,44.0,0,30,7.0,106.0
14714,56.0,30,30,7.0,106.0
14715,53.0,24,30,7.0,106.0
14716,65.0,0,30,7.0,106.0
14717,48.0,0,30,7.0,106.0
14718,60.0,30,30,7.0,106.0
14719,53.0,30,30,7.0,106.0
14720,65.0,0,30,7.0,106.0
14721,56.0,6,120,3.0,110.0
14722,68.0,30,30,7.0,106.0
14723,56.0,0,30,7.0,106.0
14724,53.0,24,30,7.0,106.0
14725,65.0,0,30,7.0,106.0
14726,60.0,30,30,7.0,106.0
14727,48.0,0,30,7.0,106.0
14728,53.0,0,30,7.0,106.0
14729,65.0,30,30,7.0,106.0
14730,53.0,6,120,3.0,110.0
14731,48.0,30,30,7.0,106.0
14732,60.0,0,30,7.0,106.0
14733,56.0,0,30,7.0,106.0
14734,68.0,28,30,7.0,106.0
14735,53.0,0,30,7.0,106.0
14736,65.0,30,30,7.0,106.0
14737,56.0,0,30,7.0,106.0
14738,68.0,30,30,7.0,106.0
14739,80.0,1,120,1.0,98.0
14740,77.0,1,120,2.0,94.0
14741,60.0,0,30,7.0,106.0
14742,72.0,30,30,7.0,106.0
14743,68.0,28,30,7.0,106.0
14744,56.0,0,30,7.0,106.0
14745,53.0,30,30,7.0,106.0
14746,65.0,0,30,7.0,106.0
14747,56.0,30,30,7.0,106.0
14748,68.0,0,30,7.0,106.0
14749,77.0,1,120,1.0,98.0
14750,72.0,1,120,2.0,94.0
14751,53.0,30,30,7.0,106.0
14752,65.0,0,30,7.0,106.0
14753,60.0,28,30,7.0,106.0
14754,72.0,0,30,7.0,106.0
14755,56.0,23,810,8.0,117.0
14756,68.0,30,30,7.0,106.0
14757,56.0,0,30,7.0,106.0
14758,60.0,2,810,10.0,112.0
14759,72.0,0,30,7.0,106.0
14760,60.0,30,30,7.0,106.0
14761,72.0,1,120,1.0,98.0
14762,68.0,1,120,2.0,94.0
14763,58.0,0,15,8.0,117.0
14764,77.0,0,30,7.0,106.0
14765,65.0,30,30,7.0,106.0
14766,56.0,8,15,8.0,117.0
14767,55.0,0,15,8.0,117.0
14768,72.0,0,30,7.0,106.0
14769,60.0,15,30,7.0,106.0
14770,68.0,15,30,7.0,106.0
14771,56.0,0,30,7.0,106.0
14772,56.0,30,0,8.0,117.0
14773,60.0,2,0,10.0,112.0
14774,53.0,2,0,11.0,117.0
14775,41.0,1,90,12.0,117.0
14776,29.0,2,90,13.0,127.0
14777,72.0,0,30,7.0,106.0
14778,60.0,0,30,7.0,106.0
14779,68.0,1,120,1.0,98.0
14780,65.0,0,120,2.0,94.0
14781,41.0,1,30,12.0,117.0
14782,29.0,2,30,13.0,127.0
14783,59.0,23,30,7.0,106.0
14784,47.0,0,30,7.0,106.0
14785,65.0,23,30,7.0,106.0
14786,53.0,0,30,7.0,106.0
14787,62.0,30,30,7.0,106.0
14788,50.0,0,30,7.0,106.0
14789,65.0,30,30,7.0,106.0
14790,53.0,0,30,7.0,106.0
14791,59.0,1,120,3.0,110.0
14792,59.0,30,30,7.0,106.0
14793,71.0,0,30,7.0,106.0
14794,65.0,24,30,7.0,106.0
14795,53.0,0,30,7.0,106.0
14796,62.0,30,30,7.0,106.0
14797,50.0,0,30,7.0,106.0
14798,65.0,0,30,7.0,106.0
14799,53.0,30,30,7.0,106.0
14800,53.0,6,120,3.0,110.0
14801,62.0,30,30,7.0,106.0
14802,50.0,0,30,7.0,106.0
14803,59.0,24,30,7.0,106.0
14804,71.0,0,30,7.0,106.0
14805,53.0,0,30,7.0,106.0
14806,65.0,30,30,7.0,106.0
14807,59.0,0,30,7.0,106.0
14808,71.0,30,30,7.0,106.0
14809,50.0,6,120,3.0,110.0
14810,62.0,0,30,7.0,106.0
14811,74.0,30,30,7.0,106.0
14812,71.0,0,30,7.0,106.0
14813,59.0,24,30,7.0,106.0
14814,53.0,0,30,7.0,106.0
14815,65.0,30,30,7.0,106.0
14816,71.0,30,30,7.0,106.0
14817,59.0,0,30,7.0,106.0
14818,47.0,6,120,3.0,110.0
14819,53.0,0,30,7.0,106.0
14820,65.0,30,30,7.0,106.0
14821,62.0,0,30,7.0,106.0
14822,74.0,28,30,7.0,106.0
14823,59.0,0,30,7.0,106.0
14824,71.0,30,30,7.0,106.0
14825,62.0,0,30,7.0,106.0
14826,74.0,30,30,7.0,106.0
14827,83.0,1,120,1.0,98.0
14828,77.0,1,120,2.0,94.0
14829,77.0,30,30,7.0,106.0
14830,65.0,0,30,7.0,106.0
14831,74.0,28,30,7.0,106.0
14832,62.0,0,30,7.0,106.0
14833,71.0,0,30,7.0,106.0
14834,59.0,30,30,7.0,106.0
14835,62.0,0,30,7.0,106.0
14836,74.0,30,30,7.0,106.0
14837,77.0,1,120,1.0,98.0
14838,74.0,1,120,2.0,94.0
14839,71.0,0,30,7.0,106.0
14840,59.0,30,30,7.0,106.0
14841,77.0,28,30,7.0,106.0
14842,65.0,0,30,7.0,106.0
14843,74.0,30,30,7.0,106.0
14844,59.0,0,810,8.0,117.0
14845,62.0,0,30,7.0,106.0
14846,65.0,2,810,10.0,112.0
14847,50.0,2,810,11.0,117.0
14848,43.0,1,810,12.0,117.0
14849,31.0,1,810,13.0,127.0
14850,65.0,0,30,7.0,106.0
14851,77.0,30,30,7.0,106.0
14852,74.0,1,120,1.0,98.0
14853,71.0,1,120,2.0,94.0
14854,60.0,0,15,8.0,117.0
14855,59.0,8,15,8.0,117.0
14856,83.0,0,30,7.0,106.0
14857,71.0,30,30,7.0,106.0
14858,57.0,0,15,8.0,117.0
14859,65.0,15,30,7.0,106.0
14860,77.0,0,30,7.0,106.0
14861,59.0,15,45,8.0,117.0
14862,62.0,0,30,7.0,106.0
14863,74.0,15,30,7.0,106.0
14864,65.0,2,0,10.0,112.0
14865,50.0,2,0,11.0,117.0
14866,43.0,1,0,12.0,117.0
14867,31.0,2,0,13.0,127.0
14868,59.0,23,0,8.0,117.0
14869,77.0,0,30,7.0,106.0
14870,65.0,0,30,7.0,106.0
14871,71.0,1,120,1.0,98.0
14872,65.0,2,0,10.0,112.0
14873,65.0,0,120,2.0,94.0
14874,50.0,2,0,11.0,117.0
14875,31.0,1,0,13.0,127.0
14876,47.0,0,30,7.0,106.0
14877,59.0,0,30,7.0,106.0
14878,65.0,23,30,7.0,106.0
14879,53.0,0,30,7.0,106.0
14880,50.0,0,30,7.0,106.0
14881,62.0,30,30,7.0,106.0
14882,65.0,30,30,7.0,106.0
14883,53.0,0,30,7.0,106.0
14884,59.0,1,120,3.0,110.0
14885,71.0,30,30,7.0,106.0
14886,59.0,0,30,7.0,106.0
14887,65.0,0,30,7.0,106.0
14888,53.0,24,30,7.0,106.0
14889,62.0,30,30,7.0,106.0
14890,50.0,0,30,7.0,106.0
14891,53.0,30,30,7.0,106.0
14892,65.0,0,30,7.0,106.0
14893,53.0,6,120,3.0,110.0
14894,62.0,0,30,7.0,106.0
14895,50.0,30,30,7.0,106.0
14896,59.0,0,30,7.0,106.0
14897,71.0,24,30,7.0,106.0
14898,65.0,0,30,7.0,106.0
14899,53.0,30,30,7.0,106.0
14900,71.0,0,30,7.0,106.0
14901,59.0,30,30,7.0,106.0
14902,50.0,6,120,3.0,110.0
14903,74.0,30,30,7.0,106.0
14904,62.0,0,30,7.0,106.0
14905,59.0,24,30,7.0,106.0
14906,71.0,0,30,7.0,106.0
14907,53.0,30,30,7.0,106.0
14908,65.0,0,30,7.0,106.0
14909,71.0,30,30,7.0,106.0
14910,59.0,0,30,7.0,106.0
14911,47.0,6,120,3.0,110.0
14912,65.0,30,30,7.0,106.0
14913,53.0,0,30,7.0,106.0
14914,62.0,28,30,7.0,106.0
14915,74.0,0,30,7.0,106.0
14916,71.0,30,30,7.0,106.0
14917,59.0,0,30,7.0,106.0
14918,74.0,30,30,7.0,106.0
14919,62.0,0,30,7.0,106.0
14920,83.0,1,120,1.0,98.0
14921,77.0,1,120,2.0,94.0
14922,77.0,30,30,7.0,106.0
14923,65.0,0,30,7.0,106.0
14924,62.0,0,30,7.0,106.0
14925,74.0,28,30,7.0,106.0
14926,59.0,0,30,7.0,106.0
14927,71.0,30,30,7.0,106.0
14928,74.0,30,30,7.0,106.0
14929,62.0,0,30,7.0,106.0
14930,77.0,1,120,1.0,98.0
14931,74.0,1,120,2.0,94.0
14932,71.0,0,30,7.0,106.0
14933,59.0,30,30,7.0,106.0
14934,65.0,0,30,7.0,106.0
14935,77.0,28,30,7.0,106.0
14936,62.0,0,30,7.0,106.0
14937,74.0,30,30,7.0,106.0
14938,43.0,1,810,12.0,117.0
14939,65.0,0,30,7.0,106.0
14940,77.0,30,30,7.0,106.0
14941,74.0,1,120,1.0,98.0
14942,71.0,1,120,2.0,94.0
14943,60.0,0,15,8.0,117.0
14944,71.0,30,30,7.0,106.0
14945,59.0,8,15,8.0,117.0
14946,83.0,0,30,7.0,106.0
14947,57.0,15,15,8.0,117.0
14948,77.0,0,30,7.0,106.0
14949,65.0,0,30,7.0,106.0
14950,59.0,15,45,8.0,117.0
14951,62.0,0,30,7.0,106.0
14952,74.0,15,30,7.0,106.0
14953,65.0,1,90,10.0,112.0
14954,50.0,2,90,11.0,117.0
14955,43.0,1,90,12.0,117.0
14956,31.0,2,90,13.0,127.0
14957,65.0,30,30,7.0,106.0
14958,59.0,0,30,8.0,117.0
14959,77.0,0,30,7.0,106.0
14960,71.0,1,120,1.0,98.0
14961,65.0,0,120,2.0,94.0
14962,65.0,2,30,10.0,112.0
14963,50.0,2,30,11.0,117.0
14964,43.0,1,30,12.0,117.0
14965,31.0,2,30,13.0,127.0
14966,48.0,0,30,7.0,106.0
14967,60.0,0,30,7.0,106.0
14968,56.0,0,30,7.0,106.0
14969,68.0,23,30,7.0,106.0
14970,63.0,0,30,7.0,106.0
14971,51.0,30,30,7.0,106.0
14972,56.0,30,30,7.0,106.0
14973,68.0,0,30,7.0,106.0
14974,60.0,1,120,3.0,110.0
14975,72.0,0,30,7.0,106.0
14976,60.0,30,30,7.0,106.0
14977,68.0,0,30,7.0,106.0
14978,56.0,24,30,7.0,106.0
14979,51.0,0,30,7.0,106.0
14980,63.0,30,30,7.0,106.0
14981,56.0,0,30,7.0,106.0
14982,68.0,30,30,7.0,106.0
14983,56.0,6,120,3.0,110.0
14984,51.0,0,30,7.0,106.0
14985,63.0,30,30,7.0,106.0
14986,60.0,24,30,7.0,106.0
14987,72.0,0,30,7.0,106.0
14988,60.0,23,330,8.0,117.0
14989,56.0,30,30,7.0,106.0
14990,68.0,0,30,7.0,106.0
14991,63.0,2,330,10.0,112.0
14992,48.0,2,330,11.0,117.0
14993,44.0,1,330,12.0,117.0
14994,32.0,1,330,13.0,127.0
14995,84.0,0,120,0.0,94.0
14996,72.0,0,30,7.0,106.0
14997,60.0,30,30,7.0,106.0
14998,72.0,2,120,2.0,94.0
14999,51.0,4,120,3.0,110.0
15000,62.0,0,15,8.0,117.0
15001,63.0,0,30,7.0,106.0
15002,60.0,8,15,8.0,117.0
15003,75.0,30,30,7.0,106.0
15004,59.0,0,15,8.0,117.0
15005,72.0,15,30,7.0,106.0
15006,60.0,0,30,7.0,106.0
15007,60.0,15,45,8.0,117.0
15008,68.0,15,30,7.0,106.0
15009,56.0,0,30,7.0,106.0
15010,63.0,2,90,10.0,112.0
15011,48.0,2,0,11.0,117.0
15012,44.0,1,0,12.0,117.0
15013,32.0,1,90,13.0,127.0
15014,60.0,0,30,7.0,106.0
15015,60.0,23,0,8.0,117.0
15016,72.0,0,30,7.0,106.0
15017,80.0,0,120,0.0,94.0
15018,68.0,0,120,2.0,94.0
15019,63.0,2,0,10.0,112.0
15020,48.0,1,120,3.0,110.0
15021,32.0,2,30,13.0,127.0
15022,63.0,0,30,7.0,106.0
15023,51.0,0,30,7.0,106.0
15024,72.0,0,30,7.0,106.0
15025,60.0,23,30,7.0,106.0
15026,66.0,30,30,7.0,106.0
15027,54.0,0,30,7.0,106.0
15028,60.0,0,30,7.0,106.0
15029,72.0,30,30,7.0,106.0
15030,75.0,0,120,0.0,94.0
15031,63.0,0,120,2.0,94.0
15032,63.0,1,120,3.0,110.0
15033,75.0,30,30,7.0,106.0
15034,63.0,0,30,7.0,106.0
15035,60.0,24,30,7.0,106.0
15036,72.0,0,30,7.0,106.0
15037,66.0,30,30,7.0,106.0
15038,54.0,0,30,7.0,106.0
15039,60.0,0,30,7.0,106.0
15040,72.0,30,30,7.0,106.0
15041,72.0,0,120,0.0,94.0
15042,60.0,2,120,2.0,94.0
15043,60.0,4,120,3.0,110.0
15044,54.0,0,30,7.0,106.0
15045,66.0,30,30,7.0,106.0
15046,63.0,0,30,7.0,106.0
15047,75.0,24,30,7.0,106.0
15048,60.0,0,30,7.0,106.0
15049,72.0,30,30,7.0,106.0
15050,54.0,2,330,11.0,117.0
15051,45.0,1,330,12.0,117.0
15052,33.0,1,330,13.0,127.0
15053,63.0,0,30,7.0,106.0
15054,75.0,30,30,7.0,106.0
15055,87.0,0,120,0.0,94.0
15056,75.0,2,120,2.0,94.0
15057,54.0,4,120,3.0,110.0
15058,62.0,0,15,8.0,117.0
15059,60.0,8,15,8.0,117.0
15060,66.0,0,30,7.0,106.0
15061,78.0,30,30,7.0,106.0
15062,59.0,15,15,8.0,117.0
15063,63.0,0,30,7.0,106.0
15064,75.0,0,30,7.0,106.0
15065,60.0,15,45,8.0,117.0
15066,60.0,0,30,7.0,106.0
15067,72.0,15,30,7.0,106.0
15068,63.0,2,0,10.0,112.0
15069,54.0,2,0,11.0,117.0
15070,45.0,1,0,12.0,117.0
15071,33.0,2,0,13.0,127.0
15072,84.0,0,120,0.0,94.0
15073,60.0,30,30,8.0,117.0
15074,63.0,0,30,7.0,106.0
15075,75.0,0,30,7.0,106.0
15076,72.0,2,120,2.0,94.0
15077,51.0,1,120,3.0,110.0
15078,55.0,0,30,7.0,106.0
15079,67.0,0,30,7.0,106.0
15080,63.0,0,30,7.0,106.0
15081,75.0,23,30,7.0,106.0
15082,58.0,30,30,7.0,106.0
15083,70.0,0,30,7.0,106.0
15084,75.0,0,30,7.0,106.0
15085,63.0,30,30,7.0,106.0
15086,79.0,0,120,0.0,94.0
15087,75.0,0,120,4.0,107.0
15088,63.0,0,120,4.0,107.0
15089,67.0,2,120,2.0,94.0
15090,79.0,30,30,7.0,106.0
15091,67.0,0,30,7.0,106.0
15092,75.0,0,30,7.0,106.0
15093,63.0,28,30,7.0,106.0
15094,58.0,0,30,7.0,106.0
15095,70.0,30,30,7.0,106.0
15096,75.0,30,30,7.0,106.0
15097,63.0,0,30,7.0,106.0
15098,75.0,0,120,0.0,94.0
15099,58.0,2,120,4.0,107.0
15100,63.0,0,120,2.0,94.0
15101,70.0,0,120,4.0,107.0
15102,70.0,0,30,7.0,106.0
15103,58.0,30,30,7.0,106.0
15104,67.0,0,30,7.0,106.0
15105,79.0,24,30,7.0,106.0
15106,75.0,30,30,7.0,106.0
15107,58.0,23,330,8.0,117.0
15108,63.0,0,30,7.0,106.0
15109,63.0,0,330,10.0,112.0
15110,55.0,2,330,11.0,117.0
15111,46.0,1,330,12.0,117.0
15112,34.0,2,330,13.0,127.0
15113,79.0,0,30,7.0,106.0
15114,67.0,30,30,7.0,106.0
15115,67.0,0,120,4.0,107.0
15116,55.0,2,120,4.0,107.0
15117,63.0,4,120,3.0,110.0
15118,60.0,0,15,8.0,117.0
15119,58.0,8,15,8.0,117.0
15120,70.0,30,30,7.0,106.0
15121,82.0,0,30,7.0,106.0
15122,57.0,15,15,8.0,117.0
15123,79.0,0,30,7.0,106.0
15124,67.0,0,30,7.0,106.0
15125,63.0,0,30,7.0,106.0
15126,75.0,15,30,7.0,106.0
15127,58.0,15,45,8.0,117.0
15128,63.0,2,90,10.0,112.0
15129,55.0,2,0,11.0,117.0
15130,46.0,1,0,12.0,117.0
15131,34.0,1,90,13.0,127.0
15132,79.0,30,30,7.0,106.0
15133,67.0,0,30,7.0,106.0
15134,58.0,0,30,8.0,117.0
15135,63.0,2,30,10.0,112.0
15136,51.0,0,120,4.0,107.0
15137,63.0,0,120,4.0,107.0
15138,58.0,1,120,3.0,110.0
15139,34.0,2,30,13.0,127.0
15140,63.0,0,30,7.0,106.0
15141,75.0,23,30,7.0,106.0
15142,70.0,0,30,7.0,106.0
15143,82.0,23,30,7.0,106.0
15144,66.0,0,30,7.0,106.0
15145,78.0,30,30,7.0,106.0
15146,82.0,0,30,7.0,106.0
15147,87.0,0,120,0.0,94.0
15148,70.0,30,30,7.0,106.0
15149,75.0,2,120,2.0,94.0
15150,54.0,1,120,3.0,110.0
15151,87.0,30,30,7.0,106.0
15152,75.0,0,30,7.0,106.0
15153,82.0,0,30,7.0,106.0
15154,70.0,24,30,7.0,106.0
15155,66.0,0,30,7.0,106.0
15156,78.0,30,30,7.0,106.0
15157,70.0,0,30,7.0,106.0
15158,82.0,30,30,7.0,106.0
15159,82.0,0,120,0.0,94.0
15160,70.0,2,120,2.0,94.0
15161,51.0,4,120,3.0,110.0
15162,87.0,0,30,7.0,106.0
15163,75.0,30,30,7.0,106.0
15164,94.0,24,30,7.0,106.0
15165,82.0,0,30,7.0,106.0
15166,90.0,0,30,7.0,106.0
15167,78.0,30,30,7.0,106.0
15168,58.0,0,330,8.0,117.0
15169,63.0,1,90,5.0,104.0
15170,63.0,0,330,10.0,112.0
15171,54.0,2,330,11.0,117.0
15172,46.0,1,330,12.0,117.0
15173,34.0,1,330,13.0,127.0
15174,94.0,30,30,7.0,106.0
15175,82.0,0,30,7.0,106.0
15176,78.0,0,120,0.0,94.0
15177,66.0,1,120,2.0,94.0
15178,51.0,4,120,6.0,122.0
15179,60.0,30,15,8.0,117.0
15180,58.0,8,15,8.0,117.0
15181,99.0,0,30,7.0,106.0
15182,87.0,0,30,7.0,106.0
15183,57.0,0,15,8.0,117.0
15184,94.0,15,30,7.0,106.0
15185,82.0,0,30,7.0,106.0
15186,78.0,15,30,7.0,106.0
15187,90.0,0,30,7.0,106.0
15188,58.0,15,45,8.0,117.0
15189,58.0,1,90,5.0,104.0
15190,70.0,0,90,5.0,104.0
15191,63.0,1,90,10.0,112.0
15192,54.0,2,90,11.0,117.0
15193,46.0,1,0,12.0,117.0
15194,34.0,2,0,13.0,127.0
15195,82.0,0,30,7.0,106.0
15196,75.0,0,0,0.0,94.0
15197,58.0,0,30,8.0,117.0
15198,94.0,30,30,7.0,106.0
15199,63.0,1,0,2.0,94.0
15200,63.0,2,30,10.0,112.0
15201,55.0,2,30,11.0,117.0
15202,46.0,1,120,6.0,122.0
15203,87.0,23,120,7.0,106.0
15204,63.0,0,120,8.0,117.0
15205,99.0,0,120,7.0,106.0
15206,59.0,0,120,10.0,112.0
15207,51.0,2,120,11.0,117.0
15208,47.0,1,120,12.0,117.0
15209,51.0,1,120,6.0,122.0
15210,35.0,1,120,13.0,127.0
15211,87.0,0,360,0.0,94.0
15212,63.0,0,360,5.0,104.0
15213,75.0,0,360,5.0,104.0
15214,75.0,1,360,1.0,98.0
15215,78.0,0,360,1.0,98.0
15216,66.0,0,360,2.0,94.0
15217,51.0,1,0,4.0,107.0
15218,63.0,0,360,4.0,107.0
15219,47.0,0,360,3.0,110.0
15220,59.0,4,0,3.0,110.0
15221,75.0,0,90,0.0,94.0
15222,87.0,353,90,0.0,94.0
15223,78.0,0,90,1.0,98.0
15224,75.0,0,90,1.0,98.0
15225,75.0,1,90,5.0,104.0
15226,63.0,1,0,5.0,104.0
15227,63.0,0,90,4.0,107.0
15228,66.0,0,0,2.0,94.0
15229,63.0,0,0,2.0,94.0
15230,47.0,0,90,3.0,110.0
15231,51.0,0,90,6.0,122.0
15232,87.0,0,30,0.0,94.0
15233,75.0,84,30,0.0,94.0
15234,75.0,1,0,1.0,98.0
15235,78.0,0,0,1.0,98.0
15236,75.0,0,0,5.0,104.0
15237,63.0,1,0,2.0,94.0
15238,63.0,0,30,4.0,107.0
15239,51.0,0,0,4.0,107.0
15240,59.0,0,30,3.0,110.0
15241,51.0,0,30,6.0,122.0
15242,47.0,4,0,3.0,110.0
15243,87.0,0,120,0.0,94.0
15244,75.0,24,120,0.0,94.0
15245,63.0,1,0,5.0,104.0
15246,75.0,0,0,5.0,104.0
15247,75.0,0,0,1.0,98.0
15248,63.0,0,120,4.0,107.0
15249,66.0,1,0,2.0,94.0
15250,59.0,0,120,3.0,110.0
15251,51.0,0,120,6.0,122.0
15252,87.0,114,90,0.0,94.0
15253,75.0,84,0,0.0,94.0
15254,78.0,0,90,1.0,98.0
15255,75.0,1,0,1.0,98.0
15256,63.0,0,0,5.0,104.0
15257,75.0,0,0,5.0,104.0
15258,51.0,0,0,4.0,107.0
15259,63.0,1,0,4.0,107.0
15260,63.0,0,0,2.0,94.0
15261,47.0,0,0,3.0,110.0
15262,59.0,4,0,3.0,110.0
15263,51.0,0,0,6.0,122.0
15264,75.0,24,0,0.0,94.0
15265,87.0,0,0,0.0,94.0
15266,63.0,1,0,5.0,104.0
15267,75.0,0,0,5.0,104.0
15268,78.0,0,30,1.0,98.0
15269,51.0,1,0,4.0,107.0
15270,63.0,0,0,4.0,107.0
15271,66.0,0,0,2.0,94.0
15272,63.0,0,0,2.0,94.0
15273,51.0,0,0,6.0,122.0
15274,75.0,114,0,0.0,94.0
15275,75.0,0,120,1.0,98.0
15276,78.0,1,0,1.0,98.0
15277,63.0,1,0,4.0,107.0
15278,66.0,0,0,2.0,94.0
15279,51.0,0,0,4.0,107.0
15280,47.0,0,120,3.0,110.0
15281,59.0,4,120,3.0,110.0
15282,51.0,4,0,6.0,122.0
15283,87.0,0,90,0.0,94.0
15284,75.0,1,0,1.0,98.0
15285,75.0,0,0,5.0,104.0
15286,63.0,0,0,5.0,104.0
15287,66.0,0,0,2.0,94.0
15288,63.0,1,0,2.0,94.0
15289,51.0,0,0,4.0,107.0
15290,63.0,0,0,4.0,107.0
15291,59.0,0,90,3.0,110.0
15292,47.0,0,0,3.0,110.0
15293,87.0,0,0,0.0,94.0
15294,75.0,24,0,0.0,94.0
15295,75.0,1,0,1.0,98.0
15296,75.0,0,0,5.0,104.0
15297,78.0,0,0,1.0,98.0
15298,63.0,0,0,4.0,107.0
15299,59.0,0,30,3.0,110.0
15300,51.0,4,30,6.0,122.0
15301,63.0,0,120,8.0,117.0
15302,63.0,0,120,5.0,104.0
15303,51.0,0,120,4.0,107.0
15304,63.0,1,120,2.0,94.0
15305,66.0,0,120,2.0,94.0
15306,59.0,0,120,10.0,112.0
15307,51.0,2,120,11.0,117.0
15308,47.0,1,120,12.0,117.0
15309,51.0,0,120,6.0,122.0
15310,47.0,1,120,3.0,110.0
15311,59.0,0,120,3.0,110.0
15312,35.0,1,120,13.0,127.0
15313,78.0,0,90,7.0,106.0
15314,87.0,0,90,7.0,106.0
15315,35.0,0,90,7.0,106.0
15316,83.0,0,90,7.0,106.0
15317,75.0,113,90,7.0,106.0
15318,43.0,0,90,7.0,106.0
15319,39.0,0,90,7.0,106.0
15320,47.0,0,90,7.0,106.0
15321,43.0,0,30,7.0,106.0
15322,39.0,0,30,7.0,106.0
15323,35.0,0,30,7.0,106.0
15324,47.0,0,30,7.0,106.0
15325,78.0,90,30,7.0,106.0
15326,87.0,0,30,7.0,106.0
15327,83.0,0,30,7.0,106.0
15328,75.0,0,0,7.0,106.0
15329,39.0,0,120,7.0,106.0
15330,87.0,30,120,7.0,106.0
15331,78.0,0,120,7.0,106.0
15332,47.0,0,120,7.0,106.0
15333,35.0,0,120,7.0,106.0
15334,43.0,0,120,7.0,106.0
15335,83.0,0,120,7.0,106.0
15336,87.0,84,0,0.0,94.0
15337,75.0,0,0,0.0,94.0
15338,75.0,0,90,5.0,104.0
15339,63.0,1,0,5.0,104.0
15340,78.0,0,0,1.0,98.0
15341,75.0,0,0,1.0,98.0
15342,63.0,0,90,2.0,94.0
15343,51.0,0,0,4.0,107.0
15344,63.0,0,0,4.0,107.0
15345,66.0,1,0,2.0,94.0
15346,47.0,0,90,3.0,110.0
15347,59.0,4,0,3.0,110.0
15348,51.0,0,0,6.0,122.0
15349,75.0,0,0,0.0,94.0
15350,87.0,24,0,0.0,94.0
15351,75.0,0,30,5.0,104.0
15352,63.0,0,0,5.0,104.0
15353,75.0,1,0,1.0,98.0
15354,63.0,0,30,2.0,94.0
15355,47.0,4,0,3.0,110.0
15356,51.0,0,0,6.0,122.0
15357,75.0,114,0,0.0,94.0
15358,87.0,0,0,0.0,94.0
15359,75.0,0,120,5.0,104.0
15360,75.0,0,0,1.0,98.0
15361,78.0,0,120,1.0,98.0
15362,63.0,0,0,5.0,104.0
15363,63.0,0,120,4.0,107.0
15364,51.0,0,120,4.0,107.0
15365,63.0,0,120,2.0,94.0
15366,66.0,1,0,2.0,94.0
15367,59.0,0,120,3.0,110.0
15368,51.0,4,0,6.0,122.0
15369,87.0,84,0,0.0,94.0
15370,75.0,0,0,0.0,94.0
15371,75.0,0,0,5.0,104.0
15372,63.0,0,0,5.0,104.0
15373,78.0,0,0,1.0,98.0
15374,75.0,1,0,1.0,98.0
15375,63.0,0,90,4.0,107.0
15376,51.0,0,90,4.0,107.0
15377,66.0,0,0,2.0,94.0
15378,63.0,1,0,2.0,94.0
15379,47.0,4,0,3.0,110.0
15380,59.0,0,0,3.0,110.0
15381,75.0,24,0,0.0,94.0
15382,63.0,0,0,5.0,104.0
15383,78.0,1,0,1.0,98.0
15384,75.0,0,0,1.0,98.0
15385,75.0,0,0,5.0,104.0
15386,51.0,0,0,4.0,107.0
15387,63.0,0,30,4.0,107.0
15388,59.0,0,0,3.0,110.0
15389,51.0,0,30,6.0,122.0
15390,47.0,4,0,3.0,110.0
15391,75.0,114,0,0.0,94.0
15392,87.0,0,120,0.0,94.0
15393,75.0,1,0,5.0,104.0
15394,63.0,0,120,2.0,94.0
15395,66.0,1,120,2.0,94.0
15396,63.0,0,120,4.0,107.0
15397,51.0,1,0,4.0,107.0
15398,51.0,0,0,6.0,122.0
15399,87.0,84,0,0.0,94.0
15400,75.0,0,0,0.0,94.0
15401,75.0,0,90,1.0,98.0
15402,63.0,0,90,5.0,104.0
15403,75.0,1,0,5.0,104.0
15404,78.0,0,90,1.0,98.0
15405,63.0,0,90,4.0,107.0
15406,66.0,0,90,2.0,94.0
15407,63.0,1,0,2.0,94.0
15408,51.0,4,0,6.0,122.0
15409,59.0,0,0,3.0,110.0
15410,47.0,0,0,3.0,110.0
15411,63.0,0,30,5.0,104.0
15412,78.0,0,30,1.0,98.0
15413,75.0,0,0,1.0,98.0
15414,63.0,1,0,4.0,107.0
15415,66.0,0,30,2.0,94.0
15416,51.0,0,0,4.0,107.0
15417,51.0,1,0,6.0,122.0
15418,87.0,0,120,0.0,94.0
15419,75.0,24,120,0.0,94.0
15420,63.0,0,120,8.0,117.0
15421,63.0,0,120,5.0,104.0
15422,78.0,1,120,1.0,98.0
15423,75.0,0,120,5.0,104.0
15424,63.0,0,120,2.0,94.0
15425,59.0,0,120,10.0,112.0
15426,66.0,0,120,2.0,94.0
15427,51.0,2,120,11.0,117.0
15428,47.0,1,120,12.0,117.0
15429,47.0,0,120,3.0,110.0
15430,59.0,0,120,3.0,110.0
15431,35.0,1,120,13.0,127.0
15432,83.0,0,90,7.0,106.0
15433,47.0,0,90,7.0,106.0
15434,39.0,0,90,7.0,106.0
15435,87.0,0,90,7.0,106.0
15436,78.0,0,0,7.0,106.0
15437,75.0,0,0,7.0,106.0
15438,43.0,0,0,7.0,106.0
15439,35.0,0,0,7.0,106.0
15440,47.0,0,30,7.0,106.0
15441,39.0,0,30,7.0,106.0
15442,83.0,90,30,7.0,106.0
15443,87.0,0,30,7.0,106.0
15444,43.0,0,120,7.0,106.0
15445,87.0,0,120,7.0,106.0
15446,78.0,30,120,7.0,106.0
15447,47.0,0,120,7.0,106.0
15448,35.0,0,120,7.0,106.0
15449,83.0,0,120,7.0,106.0
15450,75.0,0,120,7.0,106.0
15451,39.0,0,120,7.0,106.0
15452,87.0,84,0,0.0,94.0
15453,75.0,0,0,0.0,94.0
15454,75.0,1,0,1.0,98.0
15455,63.0,0,0,5.0,104.0
15456,75.0,0,90,5.0,104.0
15457,78.0,0,90,1.0,98.0
15458,66.0,1,90,2.0,94.0
15459,63.0,0,90,4.0,107.0
15460,51.0,0,90,4.0,107.0
15461,63.0,0,0,2.0,94.0
15462,59.0,4,0,3.0,110.0
15463,51.0,0,90,6.0,122.0
15464,47.0,0,0,3.0,110.0
15465,87.0,0,0,0.0,94.0
15466,75.0,1,0,5.0,104.0
15467,63.0,0,0,5.0,104.0
15468,78.0,0,0,1.0,98.0
15469,66.0,0,30,2.0,94.0
15470,51.0,0,30,4.0,107.0
15471,63.0,1,30,4.0,107.0
15472,63.0,0,0,2.0,94.0
15473,51.0,0,30,6.0,122.0
15474,75.0,0,120,0.0,94.0
15475,63.0,24,120,8.0,117.0
15476,75.0,0,120,1.0,98.0
15477,63.0,1,120,4.0,107.0
15478,66.0,0,120,2.0,94.0
15479,51.0,0,120,4.0,107.0
15480,58.0,0,120,10.0,112.0
15481,51.0,2,120,11.0,117.0
15482,46.0,1,120,12.0,117.0
15483,58.0,0,120,3.0,110.0
15484,46.0,0,120,3.0,110.0
15485,51.0,1,120,6.0,122.0
15486,34.0,1,120,13.0,127.0
15487,39.0,0,90,7.0,106.0
15488,82.0,0,90,7.0,106.0
15489,87.0,0,90,7.0,106.0
15490,46.0,0,90,7.0,106.0
15491,34.0,0,90,7.0,106.0
15492,42.0,0,90,7.0,106.0
15493,78.0,0,0,7.0,106.0
15494,75.0,90,0,7.0,106.0
15495,46.0,0,30,7.0,106.0
15496,34.0,0,30,7.0,106.0
15497,39.0,0,30,7.0,106.0
15498,42.0,0,0,7.0,106.0
15499,82.0,30,0,7.0,106.0
15500,87.0,0,0,7.0,106.0
15501,78.0,0,120,7.0,106.0
15502,75.0,0,120,7.0,106.0
15503,39.0,0,120,7.0,106.0
15504,34.0,0,120,7.0,106.0
15505,46.0,0,120,7.0,106.0
15506,75.0,0,0,0.0,94.0
15507,87.0,84,0,0.0,94.0
15508,63.0,0,90,5.0,104.0
15509,78.0,1,0,1.0,98.0
15510,75.0,0,90,1.0,98.0
15511,75.0,0,0,5.0,104.0
15512,63.0,1,0,2.0,94.0
15513,66.0,0,90,2.0,94.0
15514,51.0,0,0,4.0,107.0
15515,63.0,0,0,4.0,107.0
15516,46.0,4,90,3.0,110.0
15517,58.0,0,0,3.0,110.0
15518,51.0,0,90,6.0,122.0
15519,63.0,1,0,5.0,104.0
15520,75.0,0,30,1.0,98.0
15521,78.0,0,0,1.0,98.0
15522,63.0,1,0,4.0,107.0
15523,66.0,0,0,2.0,94.0
15524,63.0,0,0,2.0,94.0
15525,51.0,0,0,4.0,107.0
15526,46.0,4,30,3.0,110.0
15527,51.0,0,0,6.0,122.0
15528,63.0,0,120,8.0,117.0
15529,75.0,24,120,0.0,94.0
15530,87.0,0,120,0.0,94.0
15531,75.0,0,120,1.0,98.0
15532,75.0,0,120,5.0,104.0
15533,60.0,0,120,10.0,112.0
15534,51.0,2,120,11.0,117.0
15535,45.0,1,120,12.0,117.0
15536,57.0,1,120,3.0,110.0
15537,45.0,0,120,3.0,110.0
15538,33.0,1,120,13.0,127.0
15539,84.0,0,90,7.0,106.0
15540,45.0,0,90,7.0,106.0
15541,33.0,0,90,7.0,106.0
15542,81.0,113,90,7.0,106.0
15543,78.0,0,90,7.0,106.0
15544,87.0,0,90,7.0,106.0
15545,42.0,0,90,7.0,106.0
15546,39.0,0,0,7.0,106.0
15547,75.0,0,0,7.0,106.0
15548,45.0,0,30,7.0,106.0
15549,81.0,0,30,7.0,106.0
15550,78.0,0,30,7.0,106.0
15551,87.0,0,30,7.0,106.0
15552,84.0,90,30,7.0,106.0
15553,42.0,0,30,7.0,106.0
15554,33.0,0,30,7.0,106.0
15555,36.0,0,0,7.0,106.0
15556,87.0,0,120,7.0,106.0
15557,45.0,0,120,7.0,106.0
15558,84.0,30,120,7.0,106.0
15559,33.0,0,120,7.0,106.0
15560,81.0,0,120,7.0,106.0
15561,39.0,0,120,7.0,106.0
15562,78.0,0,120,7.0,106.0
15563,75.0,0,120,7.0,106.0
15564,42.0,0,120,7.0,106.0
15565,51.0,0,90,7.0,106.0
15566,63.0,0,90,7.0,106.0
15567,75.0,0,0,7.0,106.0
15568,39.0,90,0,7.0,106.0
15569,63.0,0,30,7.0,106.0
15570,51.0,0,30,7.0,106.0
15571,54.0,0,180,7.0,127.0
15572,66.0,0,180,7.0,127.0
15573,78.0,0,180,7.0,127.0
15574,42.0,30,180,7.0,127.0
15575,53.0,0,45,7.0,106.0
15576,65.0,0,45,7.0,106.0
15577,77.0,180,45,7.0,106.0
15578,41.0,0,45,7.0,106.0
15579,51.0,0,45,7.0,106.0
15580,63.0,0,45,7.0,106.0
15581,75.0,60,45,7.0,106.0
15582,39.0,0,45,7.0,106.0
15583,37.0,60,45,7.0,106.0
15584,49.0,0,45,7.0,106.0
15585,73.0,0,45,7.0,106.0
15586,61.0,0,45,7.0,106.0
15587,60.0,0,45,7.0,106.0
15588,48.0,0,45,7.0,106.0
15589,36.0,0,45,7.0,106.0
15590,72.0,60,45,7.0,106.0
15591,58.0,0,45,7.0,106.0
15592,46.0,60,45,7.0,106.0
15593,34.0,0,45,7.0,106.0
15594,70.0,0,45,7.0,106.0
15595,69.0,0,45,7.0,106.0
15596,33.0,0,45,7.0,106.0
15597,45.0,0,45,7.0,106.0
15598,57.0,60,45,7.0,106.0
15599,66.0,60,45,7.0,106.0
15600,54.0,0,45,7.0,106.0
15601,42.0,0,45,7.0,106.0
15602,65.0,0,45,7.0,106.0
15603,41.0,60,45,7.0,106.0
15604,53.0,0,45,7.0,106.0
15605,63.0,60,45,7.0,106.0
15606,51.0,0,45,7.0,106.0
15607,39.0,0,45,7.0,106.0
15608,61.0,0,45,7.0,106.0
15609,49.0,0,45,7.0,106.0
15610,37.0,60,45,7.0,106.0
15611,36.0,0,45,7.0,106.0
15612,60.0,60,45,7.0,106.0
15613,48.0,0,45,7.0,106.0
15614,46.0,0,45,7.0,106.0
15615,34.0,0,45,7.0,106.0
15616,58.0,0,45,7.0,106.0
15617,77.0,60,90,8.0,117.0
15618,65.0,2,0,10.0,112.0
15619,57.0,0,45,7.0,106.0
15620,45.0,0,45,7.0,106.0
15621,33.0,58,45,7.0,106.0
15622,77.0,30,30,8.0,117.0
15623,58.0,28,45,7.0,106.0
15624,46.0,0,45,7.0,106.0
15625,34.0,0,45,7.0,106.0
15626,36.0,0,45,7.0,106.0
15627,48.0,54,45,7.0,106.0
15628,60.0,0,45,7.0,106.0
15629,82.0,0,120,8.0,117.0
15630,70.0,2,120,10.0,112.0
15631,62.0,0,45,7.0,106.0
15632,38.0,0,45,7.0,106.0
15633,50.0,60,45,7.0,106.0
15634,81.0,0,45,8.0,117.0
15635,69.0,2,45,10.0,112.0
15636,79.0,58,45,8.0,117.0
15637,63.0,0,45,7.0,106.0
15638,51.0,0,45,7.0,106.0
15639,39.0,0,45,7.0,106.0
15640,67.0,2,45,10.0,112.0
15641,41.0,58,45,7.0,106.0
15642,65.0,0,45,7.0,106.0
15643,77.0,0,45,8.0,117.0
15644,53.0,0,45,7.0,106.0
15645,65.0,2,45,10.0,112.0
15646,67.0,0,45,7.0,106.0
15647,55.0,0,45,7.0,106.0
15648,43.0,0,45,7.0,106.0
15649,75.0,58,45,8.0,117.0
15650,63.0,2,45,10.0,112.0
15651,68.0,0,45,7.0,106.0
15652,44.0,58,45,7.0,106.0
15653,74.0,0,45,8.0,117.0
15654,56.0,0,45,7.0,106.0
15655,62.0,2,45,10.0,112.0
15656,62.0,3,45,12.0,117.0
15657,50.0,2,45,13.0,127.0
15658,69.0,0,45,7.0,106.0
15659,57.0,53,45,7.0,106.0
15660,45.0,0,45,7.0,106.0
15661,72.0,0,45,8.0,117.0
15662,60.0,2,45,10.0,112.0
15663,60.0,3,45,12.0,117.0
15664,48.0,2,45,13.0,127.0
15665,70.0,0,45,8.0,117.0
15666,70.0,0,45,7.0,106.0
15667,58.0,0,45,7.0,106.0
15668,46.0,53,45,7.0,106.0
15669,58.0,3,45,12.0,117.0
15670,46.0,2,45,13.0,127.0
15671,69.0,0,45,8.0,117.0
15672,72.0,0,45,7.0,106.0
15673,60.0,53,45,7.0,106.0
15674,48.0,0,45,7.0,106.0
15675,57.0,5,45,12.0,117.0
15676,45.0,2,45,13.0,127.0
15677,58.0,2,120,10.0,112.0
15678,49.0,0,45,7.0,106.0
15679,73.0,0,45,7.0,106.0
15680,61.0,0,45,7.0,106.0
15681,67.0,53,45,8.0,117.0
15682,55.0,5,45,12.0,117.0
15683,43.0,2,45,13.0,127.0
15684,74.0,0,45,7.0,106.0
15685,62.0,53,45,7.0,106.0
15686,50.0,0,45,7.0,106.0
15687,65.0,0,45,8.0,117.0
15688,53.0,5,45,12.0,117.0
15689,41.0,2,45,13.0,127.0
15690,63.0,53,45,7.0,106.0
15691,75.0,0,45,7.0,106.0
15692,51.0,0,45,7.0,106.0
15693,63.0,0,45,8.0,117.0
15694,51.0,5,45,12.0,117.0
15695,39.0,2,45,13.0,127.0
15696,76.0,0,45,7.0,106.0
15697,64.0,0,45,7.0,106.0
15698,52.0,0,45,7.0,106.0
15699,62.0,53,45,8.0,117.0
15700,50.0,5,45,12.0,117.0
15701,38.0,2,45,13.0,127.0
15702,46.0,1,0,3.0,110.0
15703,60.0,0,45,8.0,117.0
15704,77.0,0,45,7.0,106.0
15705,65.0,0,45,7.0,106.0
15706,53.0,53,45,7.0,106.0
15707,48.0,5,45,12.0,117.0
15708,36.0,1,45,13.0,127.0
15709,67.0,0,45,7.0,106.0
15710,55.0,0,45,7.0,106.0
15711,58.0,53,45,8.0,117.0
15712,79.0,0,45,7.0,106.0
15713,46.0,5,45,12.0,117.0
15714,34.0,2,45,13.0,127.0
15715,46.0,29,30,3.0,110.0
15716,59.0,24,120,8.0,117.0
15717,47.0,5,120,12.0,117.0
15718,35.0,1,120,13.0,127.0
15719,68.0,0,180,7.0,127.0
15720,56.0,0,180,7.0,127.0
15721,80.0,0,180,7.0,127.0
15722,79.0,173,45,7.0,106.0
15723,67.0,0,45,7.0,106.0
15724,55.0,0,45,7.0,106.0
15725,53.0,60,45,7.0,106.0
15726,65.0,0,45,7.0,106.0
15727,77.0,0,45,7.0,106.0
15728,51.0,60,45,7.0,106.0
15729,63.0,0,45,7.0,106.0
15730,75.0,0,45,7.0,106.0
15731,62.0,0,45,7.0,106.0
15732,50.0,0,45,7.0,106.0
15733,74.0,60,45,7.0,106.0
15734,60.0,0,45,7.0,106.0
15735,48.0,60,45,7.0,106.0
15736,72.0,0,45,7.0,106.0
15737,71.0,0,45,7.0,106.0
15738,47.0,60,45,7.0,106.0
15739,59.0,0,45,7.0,106.0
15740,68.0,0,45,7.0,106.0
15741,56.0,0,45,7.0,106.0
15742,44.0,60,45,7.0,106.0
15743,43.0,0,45,7.0,106.0
15744,67.0,60,45,7.0,106.0
15745,55.0,0,45,7.0,106.0
15746,65.0,0,45,7.0,106.0
15747,53.0,0,45,7.0,106.0
15748,41.0,60,45,7.0,106.0
15749,51.0,60,45,7.0,106.0
15750,39.0,0,45,7.0,106.0
15751,63.0,0,45,7.0,106.0
15752,38.0,60,45,7.0,106.0
15753,50.0,0,45,7.0,106.0
15754,62.0,0,45,7.0,106.0
15755,47.0,1,840,3.0,110.0
15756,48.0,0,45,7.0,106.0
15757,36.0,0,45,7.0,106.0
15758,60.0,60,45,7.0,106.0
15759,79.0,30,0,8.0,117.0
15760,67.0,2,0,10.0,112.0
15761,47.0,4,0,3.0,110.0
15762,35.0,54,45,7.0,106.0
15763,47.0,0,45,7.0,106.0
15764,59.0,0,45,7.0,106.0
15765,48.0,0,45,7.0,106.0
15766,60.0,0,45,7.0,106.0
15767,36.0,24,45,7.0,106.0
15768,38.0,0,45,7.0,106.0
15769,50.0,0,45,7.0,106.0
15770,62.0,54,45,7.0,106.0
15771,84.0,0,120,8.0,117.0
15772,72.0,2,120,10.0,112.0
15773,83.0,0,45,8.0,117.0
15774,40.0,0,45,7.0,106.0
15775,52.0,0,45,7.0,106.0
15776,64.0,60,45,7.0,106.0
15777,71.0,2,45,10.0,112.0
15778,41.0,0,45,7.0,106.0
15779,53.0,0,45,7.0,106.0
15780,81.0,58,45,8.0,117.0
15781,65.0,0,45,7.0,106.0
15782,69.0,2,45,10.0,112.0
15783,79.0,58,45,8.0,117.0
15784,43.0,0,45,7.0,106.0
15785,55.0,0,45,7.0,106.0
15786,67.0,0,45,7.0,106.0
15787,67.0,2,45,10.0,112.0
15788,57.0,0,45,7.0,106.0
15789,69.0,0,45,7.0,106.0
15790,77.0,0,45,8.0,117.0
15791,45.0,58,45,7.0,106.0
15792,65.0,2,45,10.0,112.0
15793,71.0,58,45,7.0,106.0
15794,47.0,0,45,7.0,106.0
15795,59.0,0,45,7.0,106.0
15796,76.0,0,45,8.0,117.0
15797,64.0,2,45,10.0,112.0
15798,64.0,3,45,12.0,117.0
15799,52.0,2,45,13.0,127.0
15800,74.0,53,45,8.0,117.0
15801,72.0,0,45,7.0,106.0
15802,60.0,0,45,7.0,106.0
15803,48.0,0,45,7.0,106.0
15804,62.0,2,45,10.0,112.0
15805,62.0,3,45,12.0,117.0
15806,50.0,2,45,13.0,127.0
15807,50.0,0,45,7.0,106.0
15808,74.0,53,45,7.0,106.0
15809,62.0,0,45,7.0,106.0
15810,72.0,0,45,8.0,117.0
15811,60.0,3,45,12.0,117.0
15812,48.0,2,45,13.0,127.0
15813,71.0,53,45,8.0,117.0
15814,76.0,0,45,7.0,106.0
15815,64.0,0,45,7.0,106.0
15816,52.0,0,45,7.0,106.0
15817,59.0,5,45,12.0,117.0
15818,47.0,2,45,13.0,127.0
15819,60.0,2,120,10.0,112.0
15820,77.0,0,45,7.0,106.0
15821,65.0,0,45,7.0,106.0
15822,53.0,0,45,7.0,106.0
15823,69.0,53,45,8.0,117.0
15824,57.0,5,45,12.0,117.0
15825,45.0,2,45,13.0,127.0
15826,78.0,0,45,7.0,106.0
15827,67.0,53,45,8.0,117.0
15828,54.0,0,45,7.0,106.0
15829,66.0,0,45,7.0,106.0
15830,55.0,5,45,12.0,117.0
15831,43.0,2,45,13.0,127.0
15832,79.0,0,45,7.0,106.0
15833,67.0,0,45,7.0,106.0
15834,55.0,53,45,7.0,106.0
15835,65.0,0,45,8.0,117.0
15836,53.0,5,45,12.0,117.0
15837,41.0,2,45,13.0,127.0
15838,64.0,53,45,8.0,117.0
15839,57.0,0,45,7.0,106.0
15840,69.0,0,45,7.0,106.0
15841,81.0,0,45,7.0,106.0
15842,52.0,5,45,12.0,117.0
15843,40.0,2,45,13.0,127.0
15844,48.0,1,0,3.0,110.0
15845,62.0,0,45,8.0,117.0
15846,82.0,53,45,7.0,106.0
15847,70.0,0,45,7.0,106.0
15848,58.0,0,45,7.0,106.0
15849,50.0,5,45,12.0,117.0
15850,38.0,1,45,13.0,127.0
15851,60.0,0,45,8.0,117.0
15852,58.0,53,45,7.0,106.0
15853,70.0,0,45,7.0,106.0
15854,82.0,0,45,7.0,106.0
15855,48.0,5,45,12.0,117.0
15856,36.0,2,45,13.0,127.0
15857,48.0,29,30,3.0,110.0
15858,61.0,24,120,8.0,117.0
15859,49.0,5,120,12.0,117.0
15860,37.0,1,120,13.0,127.0
15861,82.0,0,180,7.0,127.0
15862,70.0,0,180,7.0,127.0
15863,58.0,0,180,7.0,127.0
15864,69.0,0,45,7.0,106.0
15865,81.0,0,45,7.0,106.0
15866,57.0,173,45,7.0,106.0
15867,67.0,0,45,7.0,106.0
15868,55.0,0,45,7.0,106.0
15869,79.0,60,45,7.0,106.0
15870,53.0,60,45,7.0,106.0
15871,65.0,0,45,7.0,106.0
15872,77.0,0,45,7.0,106.0
15873,76.0,0,45,7.0,106.0
15874,52.0,0,45,7.0,106.0
15875,64.0,60,45,7.0,106.0
15876,50.0,0,45,7.0,106.0
15877,74.0,60,45,7.0,106.0
15878,62.0,0,45,7.0,106.0
15879,49.0,0,45,7.0,106.0
15880,73.0,60,45,7.0,106.0
15881,61.0,0,45,7.0,106.0
15882,46.0,60,45,7.0,106.0
15883,58.0,0,45,7.0,106.0
15884,70.0,0,45,7.0,106.0
15885,45.0,0,45,7.0,106.0
15886,69.0,60,45,7.0,106.0
15887,57.0,0,45,7.0,106.0
15888,43.0,60,45,7.0,106.0
15889,67.0,0,45,7.0,106.0
15890,55.0,0,45,7.0,106.0
15891,41.0,60,45,7.0,106.0
15892,53.0,0,45,7.0,106.0
15893,65.0,0,45,7.0,106.0
15894,64.0,60,45,7.0,106.0
15895,40.0,0,45,7.0,106.0
15896,52.0,0,45,7.0,106.0
15897,49.0,4,0,3.0,110.0
15898,38.0,0,45,7.0,106.0
15899,62.0,60,45,7.0,106.0
15900,50.0,0,45,7.0,106.0
15901,81.0,0,90,8.0,117.0
15902,69.0,2,90,10.0,112.0
15903,49.0,4,0,3.0,110.0
15904,49.0,0,45,7.0,106.0
15905,37.0,0,45,7.0,106.0
15906,61.0,54,45,7.0,106.0
15907,81.0,30,30,8.0,117.0
15908,69.0,2,30,10.0,112.0
15909,38.0,24,45,7.0,106.0
15910,62.0,0,45,7.0,106.0
15911,50.0,0,45,7.0,106.0
15912,40.0,54,45,7.0,106.0
15913,52.0,0,45,7.0,106.0
15914,64.0,0,45,7.0,106.0
15915,86.0,0,120,8.0,117.0
15916,74.0,2,120,10.0,112.0
15917,84.0,60,45,8.0,117.0
15918,65.0,0,45,7.0,106.0
15919,53.0,0,45,7.0,106.0
15920,41.0,0,45,7.0,106.0
15921,72.0,2,45,10.0,112.0
15922,67.0,0,45,7.0,106.0
15923,55.0,0,45,7.0,106.0
15924,43.0,58,45,7.0,106.0
15925,82.0,0,45,8.0,117.0
15926,70.0,2,45,10.0,112.0
15927,57.0,0,45,7.0,106.0
15928,45.0,0,45,7.0,106.0
15929,69.0,58,45,7.0,106.0
15930,81.0,0,45,8.0,117.0
15931,69.0,2,45,10.0,112.0
15932,47.0,0,45,7.0,106.0
15933,59.0,58,45,7.0,106.0
15934,71.0,0,45,7.0,106.0
15935,79.0,0,45,8.0,117.0
15936,67.0,2,45,10.0,112.0
15937,50.0,1,0,3.0,110.0
15938,72.0,0,45,7.0,106.0
15939,60.0,0,45,7.0,106.0
15940,48.0,58,45,7.0,106.0
15941,77.0,0,45,8.0,117.0
15942,65.0,2,45,10.0,112.0
15943,65.0,3,45,12.0,117.0
15944,53.0,1,45,13.0,127.0
15945,50.0,29,0,3.0,110.0
15946,73.0,0,45,7.0,106.0
15947,61.0,0,45,7.0,106.0
15948,49.0,0,45,7.0,106.0
15949,76.0,53,45,8.0,117.0
15950,64.0,2,45,10.0,112.0
15951,64.0,3,45,12.0,117.0
15952,52.0,2,45,13.0,127.0
15953,50.0,1,0,3.0,110.0
15954,74.0,24,45,7.0,106.0
15955,62.0,0,45,7.0,106.0
15956,50.0,0,45,7.0,106.0
15957,74.0,0,45,8.0,117.0
15958,62.0,3,45,12.0,117.0
15959,50.0,1,45,13.0,127.0
15960,76.0,0,45,7.0,106.0
15961,64.0,0,45,7.0,106.0
15962,52.0,53,45,7.0,106.0
15963,72.0,0,45,8.0,117.0
15964,60.0,5,45,12.0,117.0
15965,48.0,2,45,13.0,127.0
15966,62.0,2,120,10.0,112.0
15967,65.0,0,45,7.0,106.0
15968,77.0,53,45,7.0,106.0
15969,53.0,0,45,7.0,106.0
15970,70.0,0,45,8.0,117.0
15971,58.0,5,45,12.0,117.0
15972,46.0,1,45,13.0,127.0
15973,50.0,29,0,3.0,110.0
15974,67.0,0,45,7.0,106.0
15975,55.0,0,45,7.0,106.0
15976,79.0,53,45,7.0,106.0
15977,69.0,0,45,8.0,117.0
15978,57.0,5,45,12.0,117.0
15979,45.0,2,45,13.0,127.0
15980,50.0,1,0,3.0,110.0
15981,67.0,0,45,8.0,117.0
15982,57.0,0,45,7.0,106.0
15983,69.0,24,45,7.0,106.0
15984,81.0,0,45,7.0,106.0
15985,55.0,5,45,12.0,117.0
15986,43.0,1,45,13.0,127.0
15987,71.0,0,45,7.0,106.0
15988,65.0,0,45,8.0,117.0
15989,59.0,0,45,7.0,106.0
15990,83.0,53,45,7.0,106.0
15991,53.0,5,45,12.0,117.0
15992,41.0,2,45,13.0,127.0
15993,50.0,1,0,3.0,110.0
15994,72.0,0,45,7.0,106.0
15995,84.0,0,45,7.0,106.0
15996,60.0,0,45,7.0,106.0
15997,64.0,53,45,8.0,117.0
15998,52.0,5,45,12.0,117.0
15999,40.0,1,45,13.0,127.0
16000,50.0,29,0,3.0,110.0
16001,62.0,0,45,8.0,117.0
16002,61.0,53,45,7.0,106.0
16003,85.0,0,45,7.0,106.0
16004,73.0,0,45,7.0,106.0
16005,50.0,5,45,12.0,117.0
16006,38.0,2,45,13.0,127.0
16007,86.0,0,45,7.0,106.0
16008,74.0,0,45,7.0,106.0
16009,62.0,24,45,7.0,106.0
16010,84.0,0,45,7.0,106.0
16011,72.0,0,45,7.0,106.0
16012,60.0,53,45,7.0,106.0
16013,60.0,0,120,8.0,117.0
16014,48.0,5,120,12.0,117.0
16015,36.0,1,120,13.0,127.0
16016,82.0,0,45,7.0,106.0
16017,70.0,0,45,7.0,106.0
16018,58.0,60,45,7.0,106.0
16019,81.0,60,45,7.0,106.0
16020,69.0,0,45,7.0,106.0
16021,57.0,0,45,7.0,106.0
16022,79.0,0,45,7.0,106.0
16023,67.0,0,45,7.0,106.0
16024,55.0,60,45,7.0,106.0
16025,66.0,60,45,7.0,106.0
16026,54.0,0,45,7.0,106.0
16027,78.0,0,45,7.0,106.0
16028,48.0,6,0,3.0,110.0
16029,51.0,60,45,7.0,106.0
16030,63.0,0,45,7.0,106.0
16031,75.0,0,45,7.0,106.0
16032,74.0,0,45,7.0,106.0
16033,62.0,54,45,7.0,106.0
16034,50.0,0,45,7.0,106.0
16035,48.0,36,30,3.0,110.0
16036,72.0,0,45,7.0,106.0
16037,48.0,24,45,7.0,106.0
16038,60.0,0,45,7.0,106.0
16039,58.0,0,45,7.0,106.0
16040,70.0,54,45,7.0,106.0
16041,46.0,0,45,7.0,106.0
16042,48.0,6,0,3.0,110.0
16043,69.0,0,45,7.0,106.0
16044,57.0,60,45,7.0,106.0
16045,45.0,0,45,7.0,106.0
16046,55.0,54,45,7.0,106.0
16047,43.0,0,45,7.0,106.0
16048,67.0,0,45,7.0,106.0
16049,48.0,6,0,3.0,110.0
16050,66.0,0,45,7.0,106.0
16051,54.0,0,45,7.0,106.0
16052,42.0,24,45,7.0,106.0
16053,63.0,0,45,7.0,106.0
16054,51.0,0,45,7.0,106.0
16055,39.0,54,45,7.0,106.0
16056,50.0,0,45,7.0,106.0
16057,62.0,60,45,7.0,106.0
16058,38.0,0,45,7.0,106.0
16059,48.0,6,90,3.0,110.0
16060,49.0,54,45,7.0,106.0
16061,37.0,0,45,7.0,106.0
16062,61.0,0,45,7.0,106.0
16063,48.0,36,30,3.0,110.0
16064,36.0,0,45,7.0,106.0
16065,48.0,0,45,7.0,106.0
16066,60.0,24,45,7.0,106.0
16067,46.0,0,45,7.0,106.0
16068,58.0,54,45,7.0,106.0
16069,34.0,0,45,7.0,106.0
16070,82.0,0,120,8.0,117.0
16071,70.0,2,120,10.0,112.0
16072,36.0,60,45,7.0,106.0
16073,60.0,0,45,7.0,106.0
16074,81.0,0,45,8.0,117.0
16075,48.0,0,45,7.0,106.0
16076,69.0,2,45,10.0,112.0
16077,79.0,0,45,8.0,117.0
16078,38.0,58,45,7.0,106.0
16079,50.0,0,45,7.0,106.0
16080,62.0,0,45,7.0,106.0
16081,67.0,2,45,10.0,112.0
16082,40.0,0,45,7.0,106.0
16083,52.0,58,45,7.0,106.0
16084,64.0,0,45,7.0,106.0
16085,78.0,0,45,8.0,117.0
16086,66.0,2,45,10.0,112.0
16087,66.0,0,45,7.0,106.0
16088,54.0,0,45,7.0,106.0
16089,42.0,0,45,7.0,106.0
16090,75.0,58,45,8.0,117.0
16091,63.0,2,45,10.0,112.0
16092,46.0,4,360,3.0,110.0
16093,74.0,0,45,8.0,117.0
16094,67.0,0,45,7.0,106.0
16095,55.0,58,45,7.0,106.0
16096,43.0,0,45,7.0,106.0
16097,62.0,2,45,10.0,112.0
16098,62.0,3,45,12.0,117.0
16099,50.0,1,45,13.0,127.0
16100,46.0,29,0,3.0,110.0
16101,45.0,0,45,7.0,106.0
16102,69.0,0,45,7.0,106.0
16103,57.0,0,45,7.0,106.0
16104,72.0,53,45,8.0,117.0
16105,60.0,2,45,10.0,112.0
16106,60.0,3,45,12.0,117.0
16107,48.0,2,45,13.0,127.0
16108,46.0,1,0,3.0,110.0
16109,58.0,0,45,7.0,106.0
16110,70.0,0,45,7.0,106.0
16111,46.0,24,45,7.0,106.0
16112,70.0,0,45,8.0,117.0
16113,58.0,3,45,12.0,117.0
16114,46.0,1,45,13.0,127.0
16115,72.0,0,45,7.0,106.0
16116,48.0,53,45,7.0,106.0
16117,60.0,0,45,7.0,106.0
16118,69.0,0,45,8.0,117.0
16119,57.0,5,45,12.0,117.0
16120,45.0,2,45,13.0,127.0
16121,58.0,2,120,10.0,112.0
16122,46.0,1,0,3.0,110.0
16123,62.0,53,45,7.0,106.0
16124,67.0,0,45,8.0,117.0
16125,74.0,0,45,7.0,106.0
16126,50.0,0,45,7.0,106.0
16127,55.0,5,45,12.0,117.0
16128,43.0,1,45,13.0,127.0
16129,63.0,53,45,7.0,106.0
16130,51.0,0,45,7.0,106.0
16131,66.0,0,45,8.0,117.0
16132,75.0,0,45,7.0,106.0
16133,54.0,5,45,12.0,117.0
16134,42.0,2,45,13.0,127.0
16135,46.0,29,30,3.0,110.0
16136,54.0,0,45,7.0,106.0
16137,78.0,24,45,7.0,106.0
16138,63.0,0,45,8.0,117.0
16139,66.0,0,45,7.0,106.0
16140,51.0,5,45,12.0,117.0
16141,39.0,1,45,13.0,127.0
16142,79.0,53,45,7.0,106.0
16143,62.0,0,45,8.0,117.0
16144,67.0,0,45,7.0,106.0
16145,55.0,0,45,7.0,106.0
16146,50.0,5,45,12.0,117.0
16147,38.0,2,45,13.0,127.0
16148,46.0,1,0,3.0,110.0
16149,60.0,0,45,8.0,117.0
16150,56.0,0,45,7.0,106.0
16151,80.0,53,45,7.0,106.0
16152,68.0,0,45,7.0,106.0
16153,48.0,5,45,12.0,117.0
16154,36.0,1,45,13.0,127.0
16155,46.0,29,0,3.0,110.0
16156,57.0,53,45,7.0,106.0
16157,69.0,0,45,7.0,106.0
16158,81.0,0,45,7.0,106.0
16159,58.0,0,45,8.0,117.0
16160,46.0,5,45,12.0,117.0
16161,34.0,2,45,13.0,127.0
16162,70.0,0,45,7.0,106.0
16163,82.0,0,45,7.0,106.0
16164,58.0,24,45,7.0,106.0
16165,57.0,0,45,7.0,106.0
16166,69.0,0,45,7.0,106.0
16167,81.0,53,45,7.0,106.0
16168,57.0,0,120,8.0,117.0
16169,45.0,5,120,12.0,117.0
16170,33.0,1,120,13.0,127.0
16171,55.0,60,45,7.0,106.0
16172,67.0,0,45,7.0,106.0
16173,79.0,0,45,7.0,106.0
16174,66.0,0,45,7.0,106.0
16175,54.0,60,45,7.0,106.0
16176,78.0,0,45,7.0,106.0
16177,51.0,0,45,7.0,106.0
16178,63.0,60,45,7.0,106.0
16179,75.0,0,45,7.0,106.0
16180,50.0,0,45,7.0,106.0
16181,62.0,0,45,7.0,106.0
16182,74.0,60,45,7.0,106.0
16183,45.0,6,0,3.0,110.0
16184,48.0,0,45,7.0,106.0
16185,60.0,0,45,7.0,106.0
16186,72.0,60,45,7.0,106.0
16187,58.0,0,45,7.0,106.0
16188,70.0,54,45,7.0,106.0
16189,46.0,0,45,7.0,106.0
16190,45.0,6,0,3.0,110.0
16191,45.0,24,45,7.0,106.0
16192,57.0,0,45,7.0,106.0
16193,69.0,0,45,7.0,106.0
16194,67.0,0,45,7.0,106.0
16195,55.0,0,45,7.0,106.0
16196,43.0,54,45,7.0,106.0
16197,42.0,0,45,7.0,106.0
16198,54.0,0,45,7.0,106.0
16199,66.0,60,45,7.0,106.0
16200,45.0,6,90,3.0,110.0
16201,63.0,54,45,7.0,106.0
16202,51.0,0,45,7.0,106.0
16203,39.0,0,45,7.0,106.0
16204,45.0,6,0,3.0,110.0
16205,38.0,0,45,7.0,106.0
16206,50.0,0,45,7.0,106.0
16207,62.0,24,45,7.0,106.0
16208,48.0,0,45,7.0,106.0
16209,60.0,54,45,7.0,106.0
16210,36.0,0,45,7.0,106.0
16211,34.0,0,45,7.0,106.0
16212,46.0,0,45,7.0,106.0
16213,58.0,60,45,7.0,106.0
16214,45.0,36,0,3.0,110.0
16215,57.0,0,45,7.0,106.0
16216,45.0,54,45,7.0,106.0
16217,33.0,0,45,7.0,106.0
16218,31.0,0,45,7.0,106.0
16219,43.0,0,45,7.0,106.0
16220,55.0,0,45,7.0,106.0
16221,57.0,0,45,7.0,106.0
16222,45.0,54,45,7.0,106.0
16223,33.0,0,45,7.0,106.0
16224,79.0,24,120,8.0,117.0
16225,35.0,60,45,7.0,106.0
16226,77.0,0,45,8.0,117.0
16227,59.0,0,45,7.0,106.0
16228,47.0,0,45,7.0,106.0
16229,48.0,60,45,7.0,106.0
16230,75.0,0,45,8.0,117.0
16231,36.0,0,45,7.0,106.0
16232,60.0,0,45,7.0,106.0
16233,38.0,0,45,7.0,106.0
16234,74.0,60,45,8.0,117.0
16235,50.0,0,45,7.0,106.0
16236,62.0,0,45,7.0,106.0
16237,51.0,0,45,7.0,106.0
16238,72.0,0,45,8.0,117.0
16239,63.0,60,45,7.0,106.0
16240,39.0,0,45,7.0,106.0
16241,41.0,0,45,7.0,106.0
16242,53.0,0,45,7.0,106.0
16243,71.0,0,45,8.0,117.0
16244,65.0,60,45,7.0,106.0
16245,42.0,0,45,7.0,106.0
16246,54.0,0,45,7.0,106.0
16247,66.0,60,45,7.0,106.0
16248,69.0,0,45,8.0,117.0
16249,55.0,0,45,7.0,106.0
16250,67.0,60,45,7.0,106.0
16251,43.0,0,45,7.0,106.0
16252,45.0,58,45,7.0,106.0
16253,69.0,0,45,7.0,106.0
16254,57.0,0,45,7.0,106.0
16255,67.0,0,120,8.0,117.0
16256,67.0,2,120,10.0,112.0
16257,47.0,60,45,7.0,106.0
16258,59.0,0,45,7.0,106.0
16259,71.0,0,45,7.0,106.0
16260,65.0,2,45,10.0,112.0
16261,72.0,0,45,7.0,106.0
16262,60.0,0,45,7.0,106.0
16263,48.0,58,45,7.0,106.0
16264,63.0,2,45,10.0,112.0
16265,74.0,0,45,7.0,106.0
16266,50.0,58,45,7.0,106.0
16267,62.0,0,45,7.0,106.0
16268,62.0,2,45,10.0,112.0
16269,51.0,0,45,7.0,106.0
16270,75.0,58,45,7.0,106.0
16271,63.0,0,45,7.0,106.0
16272,60.0,2,45,10.0,112.0
16273,53.0,0,45,7.0,106.0
16274,77.0,58,45,7.0,106.0
16275,65.0,0,45,7.0,106.0
16276,59.0,2,45,10.0,112.0
16277,54.0,0,45,7.0,106.0
16278,78.0,58,45,7.0,106.0
16279,66.0,0,45,7.0,106.0
16280,57.0,2,45,10.0,112.0
16281,67.0,0,45,7.0,106.0
16282,55.0,58,45,7.0,106.0
16283,79.0,0,45,7.0,106.0
16284,81.0,0,45,7.0,106.0
16285,57.0,0,45,7.0,106.0
16286,69.0,53,45,7.0,106.0
16287,55.0,2,120,10.0,112.0
16288,55.0,3,120,12.0,117.0
16289,43.0,2,120,13.0,127.0
16290,71.0,0,45,7.0,106.0
16291,59.0,60,45,7.0,106.0
16292,83.0,0,45,7.0,106.0
16293,53.0,5,45,12.0,117.0
16294,41.0,2,45,13.0,127.0
16295,72.0,0,45,7.0,106.0
16296,60.0,53,45,7.0,106.0
16297,84.0,0,45,7.0,106.0
16298,51.0,5,45,12.0,117.0
16299,39.0,2,45,13.0,127.0
16300,62.0,0,45,7.0,106.0
16301,86.0,0,45,7.0,106.0
16302,74.0,53,45,7.0,106.0
16303,50.0,5,45,12.0,117.0
16304,38.0,2,45,13.0,127.0
16305,63.0,53,45,7.0,106.0
16306,75.0,0,45,7.0,106.0
16307,87.0,0,45,7.0,106.0
16308,48.0,5,45,12.0,117.0
16309,36.0,2,45,13.0,127.0
16310,77.0,0,45,7.0,106.0
16311,89.0,53,45,7.0,106.0
16312,65.0,0,45,7.0,106.0
16313,47.0,5,45,12.0,117.0
16314,35.0,2,45,13.0,127.0
16315,90.0,0,45,7.0,106.0
16316,66.0,0,45,7.0,106.0
16317,78.0,53,45,7.0,106.0
16318,45.0,5,45,12.0,117.0
16319,33.0,2,45,13.0,127.0
16320,67.0,0,45,7.0,106.0
16321,79.0,0,45,7.0,106.0
16322,91.0,53,45,7.0,106.0
16323,93.0,53,45,7.0,106.0
16324,81.0,0,45,7.0,106.0
16325,69.0,0,45,7.0,106.0
16326,43.0,5,120,12.0,117.0
16327,43.0,1,0,3.0,110.0
16328,31.0,2,120,13.0,127.0
16329,71.0,0,45,7.0,106.0
16330,83.0,0,45,7.0,106.0
16331,95.0,0,45,7.0,106.0
16332,43.0,36,0,3.0,110.0
16333,84.0,53,45,7.0,106.0
16334,72.0,0,45,7.0,106.0
16335,96.0,0,45,7.0,106.0
16336,65.0,60,120,8.0,117.0
16337,62.0,2,120,10.0,112.0
16338,55.0,2,0,11.0,117.0
16339,43.0,1,0,12.0,117.0
16340,43.0,1,0,3.0,110.0
16341,31.0,1,120,13.0,127.0
16342,74.0,0,45,7.0,106.0
16343,86.0,0,45,7.0,106.0
16344,98.0,24,45,7.0,106.0
16345,99.0,53,45,7.0,106.0
16346,75.0,0,45,7.0,106.0
16347,87.0,0,45,7.0,106.0
16348,63.0,0,120,8.0,117.0
16349,60.0,2,120,10.0,112.0
16350,55.0,2,0,11.0,117.0
16351,43.0,1,0,3.0,110.0
16352,31.0,1,120,13.0,127.0
16353,101.0,0,45,7.0,106.0
16354,77.0,0,45,7.0,106.0
16355,89.0,60,45,7.0,106.0
16356,62.0,0,60,8.0,117.0
16357,60.0,2,60,10.0,112.0
16358,43.0,32,0,3.0,110.0
16359,78.0,0,45,7.0,106.0
16360,90.0,53,45,7.0,106.0
16361,72.0,0,60,8.0,117.0
16362,69.0,2,60,10.0,112.0
16363,67.0,2,60,11.0,117.0
16364,43.0,1,0,12.0,117.0
16365,43.0,1,0,3.0,110.0
16366,31.0,1,0,13.0,127.0
16367,67.0,0,40,7.0,86.0
16368,71.0,33,40,7.0,86.0
16369,74.0,40,40,7.0,86.0
16370,67.0,40,40,7.0,86.0
16371,71.0,40,40,7.0,86.0
16372,74.0,40,40,7.0,86.0
16373,67.0,40,40,7.0,86.0
16374,71.0,40,40,7.0,86.0
16375,71.0,40,0,8.0,117.0
16376,91.0,24,360,7.0,106.0
16377,74.0,40,40,7.0,86.0
16378,67.0,2,360,11.0,117.0
16379,67.0,0,40,7.0,86.0
16380,71.0,36,40,7.0,86.0
16381,74.0,40,40,7.0,86.0
16382,83.0,0,120,7.0,106.0
16383,79.0,0,480,7.0,106.0
16384,67.0,4,120,11.0,117.0
16385,67.0,0,40,7.0,86.0
16386,69.0,36,40,7.0,86.0
16387,72.0,40,40,7.0,86.0
16388,84.0,0,120,7.0,106.0
16389,67.0,0,40,7.0,86.0
16390,69.0,40,40,7.0,86.0
16391,72.0,40,40,7.0,86.0
16392,81.0,40,120,7.0,106.0
16393,67.0,0,40,7.0,86.0
16394,69.0,40,40,7.0,86.0
16395,88.0,40,120,7.0,106.0
16396,72.0,40,40,7.0,86.0
16397,67.0,40,40,7.0,86.0
16398,69.0,40,40,7.0,86.0
16399,72.0,40,480,8.0,117.0
16400,78.0,0,480,7.0,106.0
16401,86.0,0,0,7.0,106.0
16402,72.0,40,40,7.0,86.0
16403,69.0,4,480,11.0,117.0
16404,67.0,40,40,7.0,86.0
16405,71.0,36,40,7.0,86.0
16406,74.0,40,40,7.0,86.0
16407,67.0,40,40,7.0,86.0
16408,71.0,40,40,7.0,86.0
16409,74.0,40,40,7.0,86.0
16410,67.0,40,40,7.0,86.0
16411,71.0,40,40,7.0,86.0
16412,74.0,40,40,7.0,86.0
16413,84.0,40,15,7.0,81.0
16414,83.0,15,15,7.0,86.0
16415,67.0,0,40,7.0,86.0
16416,84.0,15,15,7.0,91.0
16417,83.0,5,15,7.0,96.0
16418,84.0,15,15,7.0,101.0
16419,71.0,10,40,7.0,86.0
16420,83.0,15,15,7.0,106.0
16421,84.0,10,15,7.0,106.0
16422,79.0,0,480,7.0,106.0
16423,71.0,0,480,8.0,117.0
16424,74.0,5,40,7.0,86.0
16425,83.0,15,15,7.0,106.0
16426,67.0,4,480,11.0,117.0
16427,67.0,0,40,7.0,86.0
16428,84.0,15,60,7.0,106.0
16429,69.0,36,40,7.0,86.0
16430,72.0,20,40,7.0,86.0
16431,81.0,20,60,7.0,106.0
16432,67.0,0,40,7.0,86.0
16433,80.0,40,60,7.0,106.0
16434,69.0,40,40,7.0,86.0
16435,72.0,20,40,7.0,86.0
16436,81.0,20,60,7.0,106.0
16437,67.0,0,40,7.0,86.0
16438,84.0,40,60,7.0,106.0
16439,69.0,40,40,7.0,86.0
16440,72.0,20,40,7.0,86.0
16441,81.0,20,60,7.0,106.0
16442,67.0,40,40,7.0,86.0
16443,88.0,0,60,7.0,106.0
16444,69.0,40,40,7.0,86.0
16445,72.0,0,480,8.0,117.0
16446,78.0,0,480,7.0,106.0
16447,86.0,20,60,7.0,106.0
16448,72.0,20,40,7.0,86.0
16449,69.0,4,480,11.0,117.0
16450,67.0,4,60,11.0,117.0
16451,43.0,1,60,12.0,117.0
16452,57.0,59,20,11.0,117.0
16453,45.0,1,20,12.0,117.0
16454,55.0,19,20,11.0,117.0
16455,43.0,1,20,12.0,117.0
16456,71.0,0,120,7.0,106.0
16457,71.0,0,120,8.0,117.0
16458,79.0,0,120,7.0,106.0
16459,67.0,40,120,7.0,106.0
16460,86.0,0,120,7.0,106.0
16461,67.0,2,2040,10.0,112.0
16462,54.0,19,20,11.0,117.0
16463,42.0,1,20,12.0,117.0
16464,55.0,19,60,11.0,117.0
16465,43.0,1,60,12.0,117.0
16466,57.0,59,60,11.0,117.0
16467,45.0,1,60,12.0,117.0
16468,55.0,59,60,11.0,117.0
16469,43.0,1,60,12.0,117.0
16470,58.0,59,20,11.0,117.0
16471,46.0,1,20,12.0,117.0
16472,56.0,19,20,11.0,117.0
16473,45.0,1,20,12.0,117.0
16474,55.0,19,20,11.0,117.0
16475,43.0,1,20,12.0,117.0
16476,56.0,19,60,11.0,117.0
16477,44.0,1,60,12.0,117.0
16478,58.0,59,60,11.0,117.0
16479,46.0,1,60,12.0,117.0
16480,77.0,357,120,2.0,94.0
16481,73.0,0,120,2.0,94.0
16482,61.0,0,120,3.0,110.0
16483,65.0,4,120,3.0,110.0
16484,78.0,0,120,2.0,94.0
16485,75.0,116,120,2.0,94.0
16486,82.0,120,120,2.0,94.0
16487,72.0,116,480,2.0,94.0
16488,80.0,2,0,2.0,94.0
16489,63.0,4,480,3.0,110.0
16490,66.0,0,480,3.0,110.0
16491,56.0,118,40,7.0,86.0
16492,61.0,34,40,7.0,86.0
16493,65.0,40,40,7.0,86.0
16494,56.0,40,40,7.0,86.0
16495,61.0,40,40,7.0,86.0
16496,65.0,40,40,7.0,86.0
16497,56.0,40,40,7.0,86.0
16498,73.0,0,300,2.0,94.0
16499,65.0,4,300,3.0,110.0
16500,61.0,0,300,3.0,110.0
16501,61.0,40,40,7.0,86.0
16502,65.0,40,40,7.0,86.0
16503,78.0,40,15,7.0,76.0
16504,77.0,13,15,7.0,81.0
16505,56.0,0,40,7.0,86.0
16506,78.0,15,15,7.0,86.0
16507,77.0,5,15,7.0,91.0
16508,78.0,15,15,7.0,96.0
16509,61.0,10,40,7.0,86.0
16510,77.0,15,15,7.0,101.0
16511,78.0,10,15,7.0,106.0
16512,65.0,0,120,8.0,117.0
16513,65.0,5,40,7.0,86.0
16514,73.0,0,120,7.0,106.0
16515,77.0,15,15,7.0,106.0
16516,61.0,2,120,10.0,112.0
16517,56.0,0,40,7.0,86.0
16518,78.0,15,60,7.0,106.0
16519,63.0,38,40,7.0,86.0
16520,66.0,20,40,7.0,86.0
16521,75.0,20,60,7.0,106.0
16522,56.0,0,40,7.0,86.0
16523,74.0,40,60,7.0,106.0
16524,63.0,40,40,7.0,86.0
16525,66.0,20,40,7.0,86.0
16526,75.0,20,60,7.0,106.0
16527,56.0,40,40,7.0,86.0
16528,78.0,0,60,7.0,106.0
16529,63.0,40,40,7.0,86.0
16530,66.0,20,40,7.0,86.0
16531,75.0,20,60,7.0,106.0
16532,56.0,0,40,7.0,86.0
16533,82.0,40,60,7.0,106.0
16534,63.0,40,40,7.0,86.0
16535,66.0,20,40,7.0,86.0
16536,80.0,20,60,7.0,106.0
16537,72.0,0,480,7.0,106.0
16538,66.0,0,480,8.0,117.0
16539,63.0,2,480,10.0,112.0
16540,60.0,0,480,10.0,112.0
16541,56.0,59,1980,11.0,117.0
16542,44.0,1,1980,12.0,117.0
16543,58.0,62,20,11.0,117.0
16544,46.0,1,20,12.0,117.0
16545,56.0,19,20,11.0,117.0
16546,44.0,1,20,12.0,117.0
16547,65.0,0,120,7.0,66.0
16548,56.0,40,120,7.0,106.0
16549,80.0,0,120,7.0,66.0
16550,65.0,0,120,8.0,117.0
16551,73.0,0,120,7.0,66.0
16552,61.0,2,120,10.0,112.0
16553,55.0,19,20,11.0,117.0
16554,43.0,1,20,12.0,117.0
16555,56.0,19,60,11.0,117.0
16556,44.0,1,60,12.0,117.0
16557,58.0,59,60,11.0,117.0
16558,46.0,1,60,12.0,117.0
16559,57.0,59,60,11.0,117.0
16560,45.0,1,60,12.0,117.0
16561,60.0,59,20,11.0,117.0
16562,48.0,1,20,12.0,117.0
16563,58.0,19,20,11.0,117.0
16564,46.0,1,20,12.0,117.0
16565,57.0,19,20,11.0,117.0
16566,45.0,1,20,12.0,117.0
16567,58.0,19,60,11.0,117.0
16568,46.0,1,60,12.0,117.0
16569,60.0,59,60,11.0,117.0
16570,48.0,1,60,12.0,117.0
16571,79.0,356,120,1.0,98.0
16572,63.0,1,120,4.0,107.0
16573,67.0,0,120,4.0,107.0
16574,67.0,0,120,2.0,94.0
16575,75.0,0,120,2.0,94.0
16576,80.0,119,120,1.0,98.0
16577,77.0,119,120,1.0,98.0
16578,84.0,120,120,1.0,98.0
16579,82.0,120,120,1.0,98.0
16580,68.0,0,480,2.0,94.0
16581,74.0,0,480,2.0,94.0
16582,58.0,1,480,4.0,107.0
16583,65.0,0,480,4.0,107.0
16584,58.0,119,40,7.0,86.0
16585,63.0,38,40,7.0,86.0
16586,67.0,40,40,7.0,86.0
16587,58.0,40,40,7.0,86.0
16588,63.0,40,40,7.0,86.0
16589,67.0,40,40,7.0,86.0
16590,58.0,40,40,7.0,86.0
16591,82.0,1,300,1.0,98.0
16592,63.0,0,300,4.0,107.0
16593,67.0,0,300,4.0,107.0
16594,75.0,1,300,2.0,94.0
16595,67.0,0,300,2.0,94.0
16596,63.0,40,40,7.0,86.0
16597,67.0,40,40,7.0,86.0
16598,80.0,0,15,7.0,76.0
16599,79.0,13,15,7.0,81.0
16600,58.0,40,40,7.0,86.0
16601,80.0,15,15,7.0,86.0
16602,79.0,5,15,7.0,91.0
16603,80.0,15,15,7.0,96.0
16604,63.0,10,40,7.0,86.0
16605,79.0,15,15,7.0,101.0
16606,80.0,10,15,7.0,106.0
16607,79.0,15,15,7.0,106.0
16608,67.0,0,120,8.0,117.0
16609,67.0,5,40,7.0,86.0
16610,75.0,0,120,7.0,86.0
16611,63.0,2,120,10.0,112.0
16612,58.0,0,40,7.0,86.0
16613,80.0,0,60,7.0,106.0
16614,65.0,38,40,7.0,86.0
16615,77.0,20,60,7.0,106.0
16616,68.0,20,40,7.0,86.0
16617,58.0,40,40,7.0,86.0
16618,76.0,0,60,7.0,106.0
16619,65.0,40,40,7.0,86.0
16620,68.0,20,40,7.0,86.0
16621,77.0,20,60,7.0,106.0
16622,65.0,0,40,7.0,86.0
16623,80.0,40,60,7.0,106.0
16624,68.0,40,40,7.0,86.0
16625,68.0,15,360,8.0,117.0
16626,70.0,20,40,7.0,86.0
16627,77.0,20,60,7.0,106.0
16628,65.0,2,0,10.0,112.0
16629,65.0,0,40,7.0,86.0
16630,84.0,40,60,7.0,106.0
16631,68.0,38,40,7.0,86.0
16632,82.0,20,60,7.0,106.0
16633,70.0,20,40,7.0,86.0
16634,68.0,0,120,8.0,117.0
16635,67.0,0,40,7.0,86.0
16636,82.0,40,60,7.0,106.0
16637,70.0,38,40,7.0,86.0
16638,79.0,20,60,7.0,106.0
16639,73.0,20,40,7.0,86.0
16640,67.0,0,40,7.0,86.0
16641,78.0,40,60,7.0,106.0
16642,70.0,40,40,7.0,86.0
16643,73.0,20,40,7.0,86.0
16644,79.0,20,60,7.0,106.0
16645,67.0,0,40,7.0,86.0
16646,82.0,40,60,7.0,106.0
16647,70.0,40,40,7.0,86.0
16648,73.0,20,40,7.0,86.0
16649,79.0,20,60,7.0,106.0
16650,70.0,0,360,8.0,117.0
16651,67.0,2,360,10.0,112.0
16652,67.0,0,40,7.0,86.0
16653,85.0,40,60,7.0,106.0
16654,70.0,38,40,7.0,86.0
16655,58.0,0,120,8.0,117.0
16656,76.0,0,480,7.0,106.0
16657,84.0,0,0,7.0,106.0
16658,73.0,20,40,7.0,86.0
16659,55.0,2,120,10.0,112.0
16660,69.0,40,40,7.0,86.0
16661,72.0,38,40,7.0,86.0
16662,81.0,20,60,7.0,106.0
16663,60.0,0,120,8.0,117.0
16664,75.0,20,40,7.0,86.0
16665,57.0,2,120,10.0,112.0
16666,69.0,40,40,7.0,86.0
16667,87.0,0,60,7.0,106.0
16668,72.0,40,40,7.0,86.0
16669,86.0,40,0,7.0,106.0
16670,75.0,20,40,7.0,86.0
16671,71.0,0,40,7.0,86.0
16672,74.0,38,40,7.0,86.0
16673,77.0,20,40,7.0,86.0
16674,80.0,20,60,7.0,106.0
16675,62.0,0,120,8.0,117.0
16676,59.0,2,120,10.0,112.0
16677,71.0,0,40,7.0,86.0
16678,89.0,40,60,7.0,106.0
16679,74.0,40,40,7.0,86.0
16680,77.0,20,40,7.0,86.0
16681,88.0,20,60,7.0,106.0
16682,73.0,0,40,7.0,86.0
16683,88.0,40,60,7.0,106.0
16684,76.0,38,40,7.0,86.0
16685,64.0,0,120,8.0,117.0
16686,82.0,20,60,7.0,106.0
16687,79.0,20,40,7.0,86.0
16688,61.0,2,120,10.0,112.0
16689,74.0,40,40,7.0,86.0
16690,91.0,0,60,7.0,106.0
16691,77.0,40,40,7.0,86.0
16692,89.0,0,0,7.0,106.0
16693,80.0,20,40,7.0,86.0
16694,74.0,0,40,7.0,86.0
16695,77.0,38,40,7.0,86.0
16696,83.0,20,60,7.0,106.0
16697,80.0,20,40,7.0,86.0
16698,65.0,40,120,8.0,117.0
16699,62.0,2,120,10.0,112.0
16700,58.0,59,3240,11.0,117.0
16701,46.0,1,3240,12.0,117.0
16702,71.0,0,30,7.0,106.0
16703,91.0,0,60,7.0,106.0
16704,74.0,25,30,7.0,106.0
16705,77.0,30,30,7.0,106.0
16706,71.0,30,0,8.0,117.0
16707,92.0,0,60,7.0,106.0
16708,80.0,30,30,7.0,106.0
16709,71.0,0,30,7.0,106.0
16710,83.0,0,30,7.0,106.0
16711,74.0,28,30,7.0,106.0
16712,86.0,0,30,7.0,106.0
16713,89.0,0,30,7.0,106.0
16714,77.0,30,30,7.0,106.0
16715,92.0,0,30,7.0,106.0
16716,80.0,30,30,7.0,106.0
16717,59.0,2,120,10.0,112.0
16718,71.0,30,30,7.0,106.0
16719,83.0,0,30,7.0,106.0
16720,86.0,0,30,7.0,106.0
16721,74.0,30,30,7.0,106.0
16722,89.0,0,30,7.0,106.0
16723,77.0,30,30,7.0,106.0
16724,92.0,0,30,7.0,106.0
16725,80.0,30,30,7.0,106.0
16726,83.0,0,30,7.0,106.0
16727,71.0,30,30,7.0,106.0
16728,74.0,30,30,7.0,106.0
16729,86.0,0,30,7.0,106.0
16730,77.0,0,30,7.0,106.0
16731,89.0,30,30,7.0,106.0
16732,92.0,0,30,7.0,106.0
16733,80.0,30,30,7.0,106.0
16734,71.0,30,30,7.0,106.0
16735,83.0,0,30,7.0,106.0
16736,86.0,0,30,7.0,106.0
16737,74.0,30,30,7.0,106.0
16738,77.0,0,30,7.0,106.0
16739,89.0,30,30,7.0,106.0
16740,92.0,0,30,7.0,106.0
16741,80.0,30,30,7.0,106.0
16742,83.0,30,30,7.0,106.0
16743,71.0,0,30,7.0,106.0
16744,86.0,0,30,7.0,106.0
16745,74.0,30,30,7.0,106.0
16746,77.0,0,30,7.0,106.0
16747,89.0,30,30,7.0,106.0
16748,80.0,0,30,7.0,106.0
16749,92.0,30,30,7.0,106.0
16750,59.0,4,720,11.0,117.0
16751,47.0,1,720,12.0,117.0
16752,74.0,0,30,7.0,106.0
16753,86.0,30,30,7.0,106.0
16754,77.0,0,30,7.0,106.0
16755,89.0,25,30,7.0,106.0
16756,80.0,30,30,7.0,106.0
16757,92.0,0,30,7.0,106.0
16758,83.0,30,30,7.0,106.0
16759,95.0,0,30,7.0,106.0
16760,86.0,30,30,7.0,106.0
16761,74.0,0,30,7.0,106.0
16762,77.0,0,30,7.0,106.0
16763,89.0,30,30,7.0,106.0
16764,92.0,30,30,7.0,106.0
16765,80.0,0,30,7.0,106.0
16766,95.0,0,30,7.0,106.0
16767,83.0,30,30,7.0,106.0
16768,86.0,30,30,7.0,106.0
16769,74.0,0,30,7.0,106.0
16770,89.0,0,30,7.0,106.0
16771,77.0,30,30,7.0,106.0
16772,80.0,30,30,7.0,106.0
16773,92.0,0,30,7.0,106.0
16774,83.0,30,30,7.0,106.0
16775,95.0,0,30,7.0,106.0
16776,74.0,0,30,7.0,106.0
16777,86.0,30,30,7.0,106.0
16778,77.0,30,30,7.0,106.0
16779,89.0,0,30,7.0,106.0
16780,92.0,30,30,7.0,106.0
16781,80.0,0,30,7.0,106.0
16782,95.0,0,30,7.0,106.0
16783,83.0,30,30,7.0,106.0
16784,86.0,0,30,7.0,106.0
16785,74.0,30,30,7.0,106.0
16786,89.0,30,30,7.0,106.0
16787,77.0,0,30,7.0,106.0
16788,80.0,0,30,7.0,106.0
16789,92.0,30,30,7.0,106.0
16790,83.0,0,30,7.0,106.0
16791,95.0,30,30,7.0,106.0
16792,74.0,30,30,7.0,106.0
16793,86.0,0,30,7.0,106.0
16794,77.0,0,30,7.0,106.0
16795,89.0,30,30,7.0,106.0
16796,80.0,30,30,7.0,106.0
16797,92.0,0,30,7.0,106.0
16798,83.0,0,30,7.0,106.0
16799,95.0,30,30,7.0,106.0
16800,74.0,0,30,7.0,106.0
16801,86.0,30,30,7.0,106.0
16802,89.0,30,30,7.0,106.0
16803,77.0,0,30,7.0,106.0
16804,80.0,30,30,7.0,106.0
16805,92.0,0,30,7.0,106.0
16806,83.0,0,30,7.0,106.0
16807,95.0,30,30,7.0,106.0
16808,74.0,0,30,7.0,106.0
16809,86.0,30,30,7.0,106.0
16810,77.0,0,30,7.0,106.0
16811,89.0,30,30,7.0,106.0
16812,50.0,4,900,11.0,117.0
16813,51.0,4,20,11.0,117.0
16814,80.0,30,30,7.0,106.0
16815,92.0,0,30,7.0,106.0
16816,50.0,20,20,11.0,117.0
16817,83.0,6,30,7.0,106.0
16818,95.0,0,30,7.0,106.0
16819,49.0,14,20,11.0,117.0
16820,38.0,1,960,12.0,117.0
16821,77.0,0,30,7.0,106.0
16822,89.0,16,30,7.0,106.0
16823,50.0,4,45,11.0,117.0
16824,80.0,0,30,7.0,106.0
16825,92.0,26,30,7.0,106.0
16826,83.0,0,30,7.0,106.0
16827,95.0,30,30,7.0,106.0
16828,51.0,4,45,11.0,117.0
16829,86.0,0,30,7.0,106.0
16830,98.0,26,30,7.0,106.0
16831,89.0,0,30,7.0,106.0
16832,77.0,30,30,7.0,106.0
16833,92.0,26,30,7.0,106.0
16834,80.0,0,30,7.0,106.0
16835,83.0,0,30,7.0,106.0
16836,95.0,30,30,7.0,106.0
16837,50.0,4,90,11.0,117.0
16838,86.0,0,30,7.0,106.0
16839,98.0,30,30,7.0,106.0
16840,77.0,0,30,7.0,106.0
16841,89.0,30,30,7.0,106.0
16842,92.0,0,30,7.0,106.0
16843,80.0,30,30,7.0,106.0
16844,95.0,0,30,7.0,106.0
16845,83.0,30,30,7.0,106.0
16846,98.0,30,30,7.0,106.0
16847,86.0,0,30,7.0,106.0
16848,89.0,30,30,7.0,106.0
16849,77.0,0,30,7.0,106.0
16850,80.0,30,30,7.0,106.0
16851,92.0,0,30,7.0,106.0
16852,51.0,4,20,11.0,117.0
16853,83.0,0,30,7.0,106.0
16854,95.0,30,30,7.0,106.0
16855,50.0,20,20,11.0,117.0
16856,86.0,6,30,7.0,106.0
16857,98.0,0,30,7.0,106.0
16858,49.0,14,20,11.0,117.0
16859,92.0,16,30,7.0,106.0
16860,80.0,0,30,7.0,106.0
16861,50.0,4,45,11.0,117.0
16862,83.0,26,30,7.0,106.0
16863,95.0,0,30,7.0,106.0
16864,98.0,30,30,7.0,106.0
16865,86.0,0,30,7.0,106.0
16866,51.0,4,45,11.0,117.0
16867,89.0,0,30,7.0,106.0
16868,101.0,26,30,7.0,106.0
16869,80.0,0,30,7.0,106.0
16870,92.0,30,30,7.0,106.0
16871,83.0,0,30,7.0,106.0
16872,95.0,26,30,7.0,106.0
16873,86.0,30,30,7.0,106.0
16874,98.0,0,30,7.0,106.0
16875,50.0,4,90,11.0,117.0
16876,89.0,30,30,7.0,106.0
16877,101.0,0,30,7.0,106.0
16878,80.0,0,30,7.0,106.0
16879,92.0,30,30,7.0,106.0
16880,83.0,0,30,7.0,106.0
16881,95.0,30,30,7.0,106.0
16882,86.0,0,30,7.0,106.0
16883,98.0,30,30,7.0,106.0
16884,89.0,30,30,7.0,106.0
16885,101.0,0,30,7.0,106.0
16886,80.0,0,30,7.0,106.0
16887,92.0,30,30,7.0,106.0
16888,95.0,30,30,7.0,106.0
16889,83.0,0,30,7.0,106.0
16890,51.0,4,20,11.0,117.0
16891,98.0,0,30,7.0,106.0
16892,86.0,30,30,7.0,106.0
16893,50.0,20,20,11.0,117.0
16894,89.0,6,30,7.0,106.0
16895,101.0,0,30,7.0,106.0
16896,49.0,14,20,11.0,117.0
16897,80.0,16,30,7.0,106.0
16898,92.0,0,30,7.0,106.0
16899,50.0,4,45,11.0,117.0
16900,83.0,0,30,7.0,106.0
16901,95.0,26,30,7.0,106.0
16902,86.0,30,30,7.0,106.0
16903,98.0,0,30,7.0,106.0
16904,51.0,4,45,11.0,117.0
16905,101.0,26,30,7.0,106.0
16906,89.0,0,30,7.0,106.0
16907,80.0,30,30,7.0,106.0
16908,92.0,0,30,7.0,106.0
16909,83.0,0,30,7.0,106.0
16910,95.0,26,30,7.0,106.0
16911,86.0,30,30,7.0,106.0
16912,98.0,0,30,7.0,106.0
16913,50.0,4,90,11.0,117.0
16914,89.0,0,30,7.0,106.0
16915,101.0,30,30,7.0,106.0
16916,92.0,30,40,7.0,106.0
16917,80.0,0,40,7.0,106.0
16918,83.0,40,40,7.0,106.0
16919,95.0,0,40,7.0,106.0
16920,86.0,0,40,7.0,106.0
16921,98.0,40,40,7.0,106.0
16922,51.0,64,20,11.0,117.0
16923,50.0,20,20,11.0,117.0
16924,89.0,0,120,7.0,106.0
16925,101.0,40,120,7.0,106.0
16926,49.0,20,20,11.0,117.0
16927,50.0,20,45,11.0,117.0
16928,51.0,60,45,11.0,117.0
16929,50.0,60,45,11.0,117.0
16930,51.0,60,20,11.0,117.0
16931,50.0,20,20,11.0,117.0
16932,49.0,20,20,11.0,117.0
16933,50.0,20,45,11.0,117.0
16934,51.0,60,45,11.0,117.0
16935,50.0,60,45,11.0,117.0
16936,51.0,60,20,11.0,117.0
16937,50.0,20,20,11.0,117.0
16938,49.0,20,20,11.0,117.0
16939,50.0,20,45,11.0,117.0
16940,51.0,60,45,11.0,117.0
16941,50.0,60,45,11.0,117.0
16942,60.0,58,20,10.0,112.0
16943,51.0,2,20,11.0,117.0
16944,58.0,18,20,10.0,112.0
16945,50.0,2,20,11.0,117.0
16946,57.0,18,20,10.0,112.0
16947,49.0,2,20,11.0,117.0
16948,58.0,18,45,10.0,112.0
16949,50.0,2,45,11.0,117.0
16950,60.0,58,45,10.0,112.0
16951,51.0,2,45,11.0,117.0
16952,58.0,58,45,10.0,112.0
16953,50.0,2,45,11.0,117.0
16954,60.0,58,20,10.0,112.0
16955,51.0,2,20,11.0,117.0
16956,58.0,18,20,10.0,112.0
16957,50.0,2,20,11.0,117.0
16958,57.0,18,20,10.0,112.0
16959,49.0,2,20,11.0,117.0
16960,58.0,18,45,10.0,112.0
16961,50.0,2,45,11.0,117.0
16962,60.0,58,45,10.0,112.0
16963,51.0,2,45,11.0,117.0
16964,58.0,58,45,10.0,112.0
16965,50.0,2,45,11.0,117.0
16966,60.0,58,20,10.0,112.0
16967,51.0,2,20,11.0,117.0
16968,58.0,18,20,10.0,112.0
16969,50.0,2,20,11.0,117.0
16970,57.0,18,20,10.0,112.0
16971,49.0,2,20,11.0,117.0
16972,58.0,18,45,10.0,112.0
16973,50.0,2,45,11.0,117.0
16974,60.0,58,45,10.0,112.0
16975,51.0,2,45,11.0,117.0
16976,58.0,58,45,10.0,112.0
16977,50.0,2,45,11.0,117.0
16978,60.0,58,20,10.0,112.0
16979,51.0,2,20,11.0,117.0
16980,58.0,18,20,10.0,112.0
16981,50.0,2,20,11.0,117.0
16982,57.0,18,20,10.0,112.0
16983,49.0,2,20,11.0,117.0
16984,58.0,18,45,10.0,112.0
16985,50.0,2,45,11.0,117.0
16986,60.0,58,45,10.0,112.0
16987,51.0,2,45,11.0,117.0
16988,58.0,58,45,10.0,112.0
16989,50.0,2,45,11.0,117.0
16990,84.0,0,20,8.0,117.0
16991,84.0,0,20,0.0,94.0
16992,72.0,56,20,0.0,94.0
16993,72.0,1,20,10.0,112.0
16994,60.0,2,20,11.0,117.0
16995,48.0,1,20,12.0,117.0
16996,36.0,1,20,13.0,127.0
16997,82.0,0,20,8.0,117.0
16998,82.0,0,20,0.0,94.0
16999,70.0,13,20,0.0,94.0
17000,70.0,2,20,10.0,112.0
17001,58.0,2,20,11.0,117.0
17002,46.0,1,20,12.0,117.0
17003,34.0,2,20,13.0,127.0
17004,81.0,0,20,0.0,94.0
17005,81.0,13,20,8.0,117.0
17006,69.0,0,20,0.0,94.0
17007,70.0,1,0,5.0,104.0
17008,58.0,0,60,5.0,104.0
17009,69.0,2,20,10.0,112.0
17010,58.0,0,0,4.0,107.0
17011,46.0,0,0,4.0,107.0
17012,57.0,2,20,11.0,117.0
17013,45.0,1,20,12.0,117.0
17014,46.0,1,0,6.0,122.0
17015,33.0,2,20,13.0,127.0
17016,70.0,13,45,0.0,94.0
17017,82.0,0,45,8.0,117.0
17018,82.0,0,45,0.0,94.0
17019,70.0,1,45,10.0,112.0
17020,58.0,2,45,11.0,117.0
17021,46.0,1,45,12.0,117.0
17022,34.0,1,45,13.0,127.0
17023,82.0,1,0,1.0,98.0
17024,58.0,0,0,5.0,104.0
17025,70.0,0,0,1.0,98.0
17026,70.0,1,0,2.0,94.0
17027,82.0,0,120,2.0,94.0
17028,46.0,0,0,4.0,107.0
17029,58.0,0,0,4.0,107.0
17030,46.0,0,0,3.0,110.0
17031,58.0,1,0,3.0,110.0
17032,46.0,0,0,6.0,122.0
17033,72.0,0,45,0.0,94.0
17034,84.0,53,45,0.0,94.0
17035,84.0,0,45,8.0,117.0
17036,72.0,0,45,10.0,112.0
17037,60.0,2,45,11.0,117.0
17038,48.0,1,45,12.0,117.0
17039,36.0,1,45,13.0,127.0
17040,70.0,0,60,5.0,104.0
17041,82.0,0,0,2.0,94.0
17042,58.0,0,0,4.0,107.0
17043,46.0,0,0,6.0,122.0
17044,58.0,1,0,3.0,110.0
17045,82.0,53,45,8.0,117.0
17046,82.0,0,45,0.0,94.0
17047,70.0,0,45,0.0,94.0
17048,70.0,1,45,10.0,112.0
17049,58.0,2,45,11.0,117.0
17050,46.0,1,45,12.0,117.0
17051,34.0,1,45,13.0,127.0
17052,82.0,1,60,1.0,98.0
17053,70.0,0,0,1.0,98.0
17054,82.0,0,0,2.0,94.0
17055,70.0,0,0,2.0,94.0
17056,46.0,1,0,3.0,110.0
17057,84.0,0,20,8.0,117.0
17058,84.0,53,20,0.0,94.0
17059,72.0,0,20,0.0,94.0
17060,72.0,1,20,10.0,112.0
17061,60.0,2,20,11.0,117.0
17062,48.0,1,20,12.0,117.0
17063,36.0,1,20,13.0,127.0
17064,82.0,0,20,8.0,117.0
17065,82.0,13,20,0.0,94.0
17066,70.0,0,20,0.0,94.0
17067,70.0,2,20,10.0,112.0
17068,58.0,2,20,11.0,117.0
17069,46.0,1,20,12.0,117.0
17070,34.0,2,20,13.0,127.0
17071,81.0,13,20,0.0,94.0
17072,69.0,0,20,0.0,94.0
17073,81.0,0,20,8.0,117.0
17074,58.0,0,120,5.0,104.0
17075,70.0,0,120,5.0,104.0
17076,69.0,2,20,10.0,112.0
17077,46.0,0,120,4.0,107.0
17078,57.0,2,20,11.0,117.0
17079,45.0,1,20,12.0,117.0
17080,33.0,2,20,13.0,127.0
17081,70.0,13,45,0.0,94.0
17082,82.0,0,45,0.0,94.0
17083,82.0,0,45,8.0,117.0
17084,70.0,2,45,10.0,112.0
17085,58.0,2,45,11.0,117.0
17086,46.0,1,45,12.0,117.0
17087,34.0,2,45,13.0,127.0
17088,82.0,1,120,1.0,98.0
17089,82.0,0,0,2.0,94.0
17090,70.0,0,0,2.0,94.0
17091,58.0,0,120,3.0,110.0
17092,46.0,1,0,3.0,110.0
17093,72.0,0,45,0.0,94.0
17094,84.0,0,45,0.0,94.0
17095,84.0,53,45,8.0,117.0
17096,72.0,1,45,10.0,112.0
17097,60.0,2,45,11.0,117.0
17098,48.0,1,45,12.0,117.0
17099,36.0,1,45,13.0,127.0
17100,70.0,0,60,5.0,104.0
17101,82.0,1,0,1.0,98.0
17102,70.0,0,0,1.0,98.0
17103,58.0,0,0,5.0,104.0
17104,46.0,0,60,4.0,107.0
17105,70.0,0,0,2.0,94.0
17106,58.0,0,0,4.0,107.0
17107,82.0,0,0,2.0,94.0
17108,58.0,0,60,3.0,110.0
17109,46.0,0,0,3.0,110.0
17110,46.0,0,60,6.0,122.0
17111,82.0,0,45,0.0,94.0
17112,70.0,0,45,0.0,94.0
17113,82.0,53,45,8.0,117.0
17114,70.0,1,45,10.0,112.0
17115,58.0,2,45,11.0,117.0
17116,46.0,1,45,12.0,117.0
17117,34.0,1,45,13.0,127.0
17118,70.0,1,0,2.0,94.0
17119,58.0,1,0,3.0,110.0
17120,84.0,0,20,8.0,117.0
17121,84.0,0,20,0.0,94.0
17122,72.0,53,20,0.0,94.0
17123,72.0,0,20,10.0,112.0
17124,60.0,2,20,11.0,117.0
17125,48.0,1,20,12.0,117.0
17126,36.0,1,20,13.0,127.0
17127,82.0,13,20,8.0,117.0
17128,70.0,0,20,0.0,94.0
17129,82.0,0,20,0.0,94.0
17130,70.0,2,20,10.0,112.0
17131,58.0,2,20,11.0,117.0
17132,46.0,1,20,12.0,117.0
17133,34.0,2,20,13.0,127.0
17134,69.0,0,20,0.0,94.0
17135,81.0,13,20,0.0,94.0
17136,81.0,0,20,8.0,117.0
17137,70.0,0,120,5.0,104.0
17138,46.0,0,120,4.0,107.0
17139,69.0,2,20,10.0,112.0
17140,57.0,2,20,11.0,117.0
17141,45.0,1,20,12.0,117.0
17142,46.0,0,120,6.0,122.0
17143,33.0,2,20,13.0,127.0
17144,82.0,0,45,8.0,117.0
17145,70.0,0,45,0.0,94.0
17146,82.0,13,45,0.0,94.0
17147,70.0,2,45,10.0,112.0
17148,58.0,2,45,11.0,117.0
17149,46.0,1,45,12.0,117.0
17150,34.0,2,45,13.0,127.0
17151,82.0,0,120,1.0,98.0
17152,70.0,1,120,1.0,98.0
17153,82.0,0,120,2.0,94.0
17154,46.0,0,120,3.0,110.0
17155,84.0,53,45,8.0,117.0
17156,72.0,0,45,0.0,94.0
17157,84.0,0,45,0.0,94.0
17158,72.0,0,45,10.0,112.0
17159,60.0,2,45,11.0,117.0
17160,48.0,1,45,12.0,117.0
17161,36.0,1,45,13.0,127.0
17162,70.0,0,60,1.0,98.0
17163,82.0,1,60,1.0,98.0
17164,58.0,0,60,5.0,104.0
17165,70.0,1,0,5.0,104.0
17166,46.0,1,60,4.0,107.0
17167,82.0,0,0,2.0,94.0
17168,70.0,1,0,2.0,94.0
17169,58.0,0,60,4.0,107.0
17170,46.0,1,0,6.0,122.0
17171,46.0,0,0,3.0,110.0
17172,58.0,0,0,3.0,110.0
17173,82.0,0,45,0.0,94.0
17174,70.0,0,45,0.0,94.0
17175,82.0,53,45,8.0,117.0
17176,70.0,0,45,10.0,112.0
17177,58.0,2,45,11.0,117.0
17178,46.0,1,45,12.0,117.0
17179,34.0,1,45,13.0,127.0
17180,70.0,0,0,1.0,98.0
17181,82.0,1,0,1.0,98.0
17182,70.0,0,0,2.0,94.0
17183,82.0,1,0,2.0,94.0
17184,46.0,1,0,3.0,110.0
17185,84.0,0,20,8.0,117.0
17186,84.0,0,20,0.0,94.0
17187,72.0,53,20,0.0,94.0
17188,72.0,0,20,10.0,112.0
17189,60.0,2,20,11.0,117.0
17190,48.0,1,20,12.0,117.0
17191,36.0,1,20,13.0,127.0
17192,82.0,0,20,0.0,94.0
17193,82.0,0,20,8.0,117.0
17194,70.0,13,20,0.0,94.0
17195,70.0,2,20,10.0,112.0
17196,58.0,2,20,11.0,117.0
17197,46.0,1,20,12.0,117.0
17198,34.0,2,20,13.0,127.0
17199,69.0,0,20,0.0,94.0
17200,81.0,13,20,0.0,94.0
17201,81.0,0,20,8.0,117.0
17202,58.0,0,120,5.0,104.0
17203,58.0,0,120,4.0,107.0
17204,69.0,2,20,10.0,112.0
17205,46.0,0,120,4.0,107.0
17206,57.0,2,20,11.0,117.0
17207,45.0,1,20,12.0,117.0
17208,33.0,2,20,13.0,127.0
17209,82.0,0,45,8.0,117.0
17210,82.0,0,45,0.0,94.0
17211,70.0,13,45,0.0,94.0
17212,70.0,2,45,10.0,112.0
17213,58.0,2,45,11.0,117.0
17214,46.0,1,45,12.0,117.0
17215,34.0,2,45,13.0,127.0
17216,82.0,1,0,1.0,98.0
17217,82.0,0,0,2.0,94.0
17218,58.0,0,120,3.0,110.0
17219,46.0,1,0,3.0,110.0
17220,72.0,53,45,0.0,94.0
17221,84.0,0,45,8.0,117.0
17222,84.0,0,45,0.0,94.0
17223,72.0,0,45,10.0,112.0
17224,60.0,2,45,11.0,117.0
17225,48.0,1,45,12.0,117.0
17226,36.0,1,45,13.0,127.0
17227,58.0,0,0,5.0,104.0
17228,70.0,0,60,5.0,104.0
17229,70.0,0,0,1.0,98.0
17230,82.0,1,0,1.0,98.0
17231,58.0,1,60,4.0,107.0
17232,70.0,0,60,2.0,94.0
17233,46.0,0,0,4.0,107.0
17234,46.0,1,0,3.0,110.0
17235,58.0,0,60,3.0,110.0
17236,46.0,0,0,6.0,122.0
17237,70.0,0,45,0.0,94.0
17238,82.0,53,45,8.0,117.0
17239,82.0,0,45,0.0,94.0
17240,70.0,1,45,10.0,112.0
17241,58.0,2,45,11.0,117.0
17242,46.0,1,45,12.0,117.0
17243,34.0,1,45,13.0,127.0
17244,70.0,0,60,5.0,104.0
17245,70.0,0,0,1.0,98.0
17246,82.0,0,0,1.0,98.0
17247,58.0,1,0,4.0,107.0
17248,70.0,0,0,2.0,94.0
17249,82.0,0,0,2.0,94.0
17250,58.0,1,0,3.0,110.0
17251,84.0,0,20,8.0,117.0
17252,84.0,0,20,0.0,94.0
17253,72.0,53,20,0.0,94.0
17254,72.0,0,20,10.0,112.0
17255,60.0,2,20,11.0,117.0
17256,48.0,1,20,12.0,117.0
17257,36.0,1,20,13.0,127.0
17258,82.0,0,20,8.0,117.0
17259,82.0,13,20,0.0,94.0
17260,70.0,0,20,0.0,94.0
17261,70.0,2,20,10.0,112.0
17262,58.0,2,20,11.0,117.0
17263,46.0,1,20,12.0,117.0
17264,34.0,2,20,13.0,127.0
17265,81.0,0,20,8.0,117.0
17266,81.0,0,20,0.0,94.0
17267,69.0,13,20,0.0,94.0
17268,70.0,1,60,5.0,104.0
17269,58.0,1,0,5.0,104.0
17270,58.0,1,0,4.0,107.0
17271,46.0,0,0,4.0,107.0
17272,69.0,2,20,10.0,112.0
17273,57.0,2,20,11.0,117.0
17274,45.0,1,20,12.0,117.0
17275,46.0,0,60,6.0,122.0
17276,33.0,2,20,13.0,127.0
17277,70.0,0,45,0.0,94.0
17278,82.0,13,45,8.0,117.0
17279,82.0,0,45,0.0,94.0
17280,70.0,0,45,10.0,112.0
17281,58.0,2,45,11.0,117.0
17282,46.0,1,45,12.0,117.0
17283,34.0,1,45,13.0,127.0
17284,70.0,0,60,5.0,104.0
17285,82.0,0,0,1.0,98.0
17286,70.0,0,0,2.0,94.0
17287,82.0,0,0,2.0,94.0
17288,46.0,0,120,3.0,110.0
17289,58.0,0,0,3.0,110.0
17290,46.0,1,0,6.0,122.0
17291,70.0,0,45,0.0,94.0
17292,82.0,0,45,0.0,94.0
17293,82.0,53,45,8.0,117.0
17294,70.0,0,45,10.0,112.0
17295,58.0,2,45,11.0,117.0
17296,46.0,1,45,12.0,117.0
17297,34.0,1,45,13.0,127.0
17298,70.0,0,60,1.0,98.0
17299,70.0,1,60,5.0,104.0
17300,58.0,0,60,5.0,104.0
17301,46.0,1,60,4.0,107.0
17302,58.0,0,60,4.0,107.0
17303,46.0,0,60,3.0,110.0
17304,63.0,0,120,8.0,117.0
17305,55.0,0,120,8.0,117.0
17306,55.0,0,120,10.0,112.0
17307,63.0,0,120,10.0,112.0
17308,51.0,1,120,6.0,127.0
17309,39.0,473,15,7.0,106.0
17310,43.0,15,15,7.0,106.0
17311,46.0,15,15,7.0,106.0
17312,51.0,15,15,7.0,106.0
17313,55.0,15,15,7.0,106.0
17314,58.0,15,15,7.0,106.0
17315,63.0,15,15,7.0,106.0
17316,75.0,0,600,8.0,117.0
17317,63.0,0,600,0.0,94.0
17318,75.0,53,600,0.0,94.0
17319,67.0,15,15,7.0,106.0
17320,75.0,0,600,5.0,104.0
17321,75.0,0,600,1.0,98.0
17322,63.0,0,600,5.0,104.0
17323,79.0,1,600,1.0,98.0
17324,75.0,1,600,10.0,112.0
17325,51.0,0,600,11.0,117.0
17326,55.0,2,600,11.0,117.0
17327,51.0,1,600,12.0,117.0
17328,55.0,0,600,3.0,110.0
17329,51.0,0,600,3.0,110.0
17330,39.0,1,600,13.0,127.0
17331,51.0,15,15,7.0,106.0
17332,55.0,15,15,7.0,106.0
17333,58.0,15,15,7.0,106.0
17334,63.0,15,15,7.0,106.0
17335,67.0,15,15,7.0,106.0
17336,70.0,15,15,7.0,106.0
17337,75.0,15,15,7.0,106.0
17338,79.0,15,15,7.0,106.0
17339,63.0,15,15,7.0,106.0
17340,67.0,15,15,7.0,106.0
17341,70.0,15,15,7.0,106.0
17342,75.0,15,15,7.0,106.0
17343,79.0,15,15,7.0,106.0
17344,82.0,15,15,7.0,106.0
17345,87.0,15,15,7.0,106.0
17346,91.0,15,15,7.0,106.0
17347,67.0,15,15,7.0,106.0
17348,70.0,15,15,7.0,106.0
17349,75.0,15,15,7.0,106.0
17350,79.0,15,15,7.0,106.0
17351,82.0,15,15,7.0,106.0
17352,87.0,15,15,7.0,106.0
17353,91.0,15,15,7.0,106.0
17354,94.0,15,15,7.0,106.0
17355,79.0,0,30,7.0,106.0
17356,67.0,15,30,7.0,106.0
17357,94.0,30,30,7.0,106.0
17358,82.0,0,30,7.0,106.0
17359,75.0,30,30,7.0,106.0
17360,63.0,0,30,7.0,106.0
17361,91.0,30,30,7.0,106.0
17362,79.0,0,30,7.0,106.0
17363,63.0,30,30,7.0,106.0
17364,75.0,0,30,7.0,106.0
17365,91.0,0,30,7.0,106.0
17366,79.0,30,30,7.0,106.0
17367,58.0,0,30,7.0,106.0
17368,70.0,30,30,7.0,106.0
17369,75.0,0,30,7.0,106.0
17370,87.0,30,30,7.0,106.0
17371,58.0,30,30,7.0,106.0
17372,70.0,0,30,7.0,106.0
17373,87.0,30,30,7.0,106.0
17374,75.0,0,30,7.0,106.0
17375,55.0,30,30,7.0,106.0
17376,67.0,0,30,7.0,106.0
17377,70.0,0,30,7.0,106.0
17378,82.0,30,30,7.0,106.0
17379,55.0,30,30,7.0,106.0
17380,67.0,0,30,7.0,106.0
17381,82.0,0,30,7.0,106.0
17382,70.0,30,30,7.0,106.0
17383,63.0,0,30,7.0,106.0
17384,51.0,30,30,7.0,106.0
17385,79.0,0,30,7.0,106.0
17386,67.0,30,30,7.0,106.0
17387,51.0,30,30,7.0,106.0
17388,63.0,0,30,7.0,106.0
17389,67.0,0,30,7.0,106.0
17390,79.0,30,30,7.0,106.0
17391,58.0,0,30,7.0,106.0
17392,46.0,30,30,7.0,106.0
17393,75.0,0,30,7.0,106.0
17394,63.0,30,30,7.0,106.0
17395,58.0,30,30,7.0,106.0
17396,46.0,0,30,7.0,106.0
17397,63.0,0,30,7.0,106.0
17398,75.0,30,30,7.0,106.0
17399,43.0,30,30,7.0,106.0
17400,55.0,0,30,7.0,106.0
17401,70.0,30,30,7.0,106.0
17402,58.0,0,30,7.0,106.0
17403,55.0,0,30,7.0,106.0
17404,43.0,30,30,7.0,106.0
17405,70.0,30,30,7.0,106.0
17406,58.0,0,30,7.0,106.0
17407,51.0,0,30,7.0,106.0
17408,39.0,30,30,7.0,106.0
17409,67.0,0,30,7.0,106.0
17410,55.0,30,30,7.0,106.0
17411,51.0,30,30,7.0,106.0
17412,39.0,0,30,7.0,106.0
17413,67.0,0,30,7.0,106.0
17414,55.0,30,30,7.0,106.0
17415,39.0,30,30,7.0,106.0
17416,51.0,30,0,7.0,106.0
17417,63.0,0,30,7.0,106.0
17418,67.0,0,1920,2.0,94.0
17419,75.0,0,1920,2.0,94.0
17420,63.0,0,1920,4.0,107.0
17421,55.0,0,1920,4.0,107.0
17422,36.0,0,120,7.0,106.0
17423,32.0,30,120,7.0,106.0
17424,60.0,0,120,7.0,106.0
17425,68.0,0,120,8.0,117.0
17426,75.0,0,120,8.0,117.0
17427,44.0,0,120,7.0,106.0
17428,72.0,0,120,7.0,106.0
17429,39.0,0,120,7.0,106.0
17430,63.0,0,120,7.0,106.0
17431,68.0,0,120,7.0,106.0
17432,51.0,1,120,6.0,122.0
17433,32.0,473,15,7.0,106.0
17434,36.0,15,15,7.0,106.0
17435,39.0,15,15,7.0,106.0
17436,44.0,15,15,7.0,106.0
17437,48.0,15,15,7.0,106.0
17438,51.0,15,15,7.0,106.0
17439,56.0,15,15,7.0,106.0
17440,84.0,0,600,8.0,117.0
17441,80.0,0,600,0.0,94.0
17442,84.0,0,600,0.0,94.0
17443,60.0,15,15,7.0,106.0
17444,63.0,1,600,5.0,104.0
17445,75.0,0,600,5.0,104.0
17446,72.0,0,600,1.0,98.0
17447,80.0,0,600,1.0,98.0
17448,80.0,1,600,10.0,112.0
17449,72.0,0,600,10.0,112.0
17450,68.0,0,600,11.0,117.0
17451,56.0,2,600,11.0,117.0
17452,44.0,1,600,12.0,117.0
17453,56.0,0,600,3.0,110.0
17454,60.0,0,600,3.0,110.0
17455,32.0,1,600,13.0,127.0
17456,44.0,15,15,7.0,106.0
17457,48.0,15,15,7.0,106.0
17458,51.0,15,15,7.0,106.0
17459,56.0,15,15,7.0,106.0
17460,60.0,15,15,7.0,106.0
17461,63.0,15,15,7.0,106.0
17462,68.0,15,15,7.0,106.0
17463,72.0,15,15,7.0,106.0
17464,56.0,15,15,7.0,106.0
17465,60.0,15,15,7.0,106.0
17466,63.0,15,15,7.0,106.0
17467,68.0,15,15,7.0,106.0
17468,72.0,15,15,7.0,106.0
17469,75.0,15,15,7.0,106.0
17470,80.0,15,15,7.0,106.0
17471,84.0,15,15,7.0,106.0
17472,68.0,15,15,7.0,106.0
17473,72.0,15,15,7.0,106.0
17474,75.0,15,15,7.0,106.0
17475,80.0,15,15,7.0,106.0
17476,84.0,15,15,7.0,106.0
17477,87.0,15,15,7.0,106.0
17478,92.0,15,15,7.0,106.0
17479,96.0,15,15,7.0,106.0
17480,68.0,15,30,7.0,106.0
17481,80.0,0,30,7.0,106.0
17482,96.0,0,30,7.0,106.0
17483,84.0,30,30,7.0,106.0
17484,63.0,0,30,7.0,106.0
17485,75.0,30,30,7.0,106.0
17486,80.0,0,30,7.0,106.0
17487,92.0,30,30,7.0,106.0
17488,63.0,0,30,7.0,106.0
17489,75.0,30,30,7.0,106.0
17490,80.0,0,30,7.0,106.0
17491,92.0,30,30,7.0,106.0
17492,60.0,0,30,7.0,106.0
17493,72.0,30,30,7.0,106.0
17494,75.0,0,30,7.0,106.0
17495,87.0,30,30,7.0,106.0
17496,60.0,30,30,7.0,106.0
17497,72.0,0,30,7.0,106.0
17498,75.0,0,30,7.0,106.0
17499,87.0,30,30,7.0,106.0
17500,56.0,30,30,7.0,106.0
17501,68.0,0,30,7.0,106.0
17502,72.0,0,30,7.0,106.0
17503,84.0,30,30,7.0,106.0
17504,68.0,30,30,7.0,106.0
17505,56.0,0,30,7.0,106.0
17506,72.0,0,30,7.0,106.0
17507,84.0,30,30,7.0,106.0
17508,63.0,30,30,7.0,106.0
17509,51.0,0,30,7.0,106.0
17510,68.0,30,30,7.0,106.0
17511,80.0,0,30,7.0,106.0
17512,51.0,0,30,7.0,106.0
17513,63.0,30,30,7.0,106.0
17514,68.0,0,30,7.0,106.0
17515,80.0,30,30,7.0,106.0
17516,48.0,0,30,7.0,106.0
17517,60.0,30,30,7.0,106.0
17518,63.0,0,30,7.0,106.0
17519,75.0,30,30,7.0,106.0
17520,60.0,30,30,7.0,106.0
17521,48.0,0,30,7.0,106.0
17522,63.0,30,30,7.0,106.0
17523,75.0,0,30,7.0,106.0
17524,56.0,30,30,7.0,106.0
17525,44.0,0,30,7.0,106.0
17526,60.0,30,30,7.0,106.0
17527,72.0,0,30,7.0,106.0
17528,56.0,30,30,7.0,106.0
17529,44.0,0,30,7.0,106.0
17530,60.0,30,30,7.0,106.0
17531,72.0,0,30,7.0,106.0
17532,39.0,0,30,7.0,106.0
17533,51.0,30,30,7.0,106.0
17534,68.0,30,30,7.0,106.0
17535,56.0,0,30,7.0,106.0
17536,51.0,30,0,7.0,106.0
17537,39.0,30,30,7.0,106.0
17538,63.0,0,30,7.0,106.0
17539,36.0,0,30,7.0,106.0
17540,48.0,30,30,7.0,106.0
17541,60.0,0,30,7.0,106.0
17542,48.0,30,30,7.0,106.0
17543,68.0,0,0,2.0,94.0
17544,72.0,0,1920,2.0,94.0
17545,63.0,0,1920,4.0,107.0
17546,51.0,0,1920,4.0,107.0
17547,77.0,0,120,7.0,106.0
17548,68.0,0,120,7.0,106.0
17549,34.0,0,120,7.0,106.0
17550,80.0,0,120,7.0,106.0
17551,70.0,0,120,8.0,117.0
17552,74.0,0,120,7.0,106.0
17553,46.0,0,120,7.0,106.0
17554,70.0,0,120,7.0,106.0
17555,38.0,0,120,7.0,106.0
17556,62.0,0,120,8.0,117.0
17557,41.0,30,120,7.0,106.0
17558,46.0,0,120,4.0,107.0
17559,58.0,115,0,4.0,107.0
17560,46.0,0,120,6.0,122.0
17561,58.0,0,22,7.0,106.0
17562,46.0,358,22,7.0,106.0
17563,60.0,0,22,7.0,106.0
17564,48.0,30,22,7.0,106.0
17565,62.0,30,22,7.0,106.0
17566,46.0,0,22,7.0,106.0
17567,50.0,0,22,7.0,106.0
17568,48.0,0,22,7.0,106.0
17569,51.0,0,22,7.0,106.0
17570,63.0,30,22,7.0,106.0
17571,89.0,0,600,0.0,94.0
17572,80.0,0,600,0.0,94.0
17573,80.0,0,600,8.0,117.0
17574,80.0,1,600,1.0,98.0
17575,77.0,0,600,1.0,98.0
17576,70.0,0,600,5.0,104.0
17577,58.0,0,600,5.0,104.0
17578,77.0,1,600,2.0,94.0
17579,70.0,0,600,10.0,112.0
17580,77.0,0,600,10.0,112.0
17581,70.0,0,480,4.0,107.0
17582,62.0,2,600,11.0,117.0
17583,58.0,0,600,11.0,117.0
17584,46.0,1,600,12.0,117.0
17585,53.0,0,600,3.0,110.0
17586,56.0,1,600,3.0,110.0
17587,34.0,1,600,13.0,127.0
17588,50.0,0,22,7.0,106.0
17589,53.0,0,22,7.0,106.0
17590,65.0,30,22,7.0,106.0
17591,55.0,0,22,7.0,106.0
17592,51.0,30,22,7.0,106.0
17593,67.0,0,22,7.0,106.0
17594,68.0,30,22,7.0,106.0
17595,53.0,0,22,7.0,106.0
17596,56.0,0,22,7.0,106.0
17597,55.0,0,22,7.0,106.0
17598,70.0,0,22,7.0,106.0
17599,58.0,30,22,7.0,106.0
17600,56.0,30,22,7.0,106.0
17601,60.0,0,22,7.0,106.0
17602,72.0,0,22,7.0,106.0
17603,58.0,0,22,7.0,106.0
17604,62.0,0,22,7.0,106.0
17605,74.0,30,22,7.0,106.0
17606,63.0,30,22,7.0,106.0
17607,75.0,0,22,7.0,106.0
17608,60.0,0,22,7.0,106.0
17609,62.0,0,22,7.0,106.0
17610,65.0,30,22,7.0,106.0
17611,77.0,0,22,7.0,106.0
17612,67.0,30,22,7.0,106.0
17613,63.0,0,22,7.0,106.0
17614,79.0,0,22,7.0,106.0
17615,80.0,30,22,7.0,106.0
17616,65.0,0,22,7.0,106.0
17617,68.0,0,22,7.0,106.0
17618,67.0,30,22,7.0,106.0
17619,82.0,0,22,7.0,106.0
17620,70.0,0,22,7.0,106.0
17621,84.0,30,22,7.0,106.0
17622,72.0,0,22,7.0,106.0
17623,68.0,0,22,7.0,106.0
17624,86.0,0,22,7.0,106.0
17625,58.0,30,22,7.0,106.0
17626,70.0,0,22,7.0,106.0
17627,74.0,0,22,7.0,106.0
17628,75.0,0,22,7.0,106.0
17629,87.0,30,22,7.0,106.0
17630,60.0,0,22,7.0,106.0
17631,72.0,0,22,7.0,106.0
17632,89.0,0,22,7.0,106.0
17633,62.0,30,22,7.0,106.0
17634,74.0,0,22,7.0,106.0
17635,77.0,0,22,7.0,106.0
17636,91.0,30,22,7.0,106.0
17637,63.0,0,22,7.0,106.0
17638,75.0,0,22,7.0,106.0
17639,79.0,0,22,7.0,106.0
17640,92.0,30,40,7.0,106.0
17641,65.0,0,40,7.0,106.0
17642,80.0,0,40,7.0,106.0
17643,77.0,0,40,7.0,106.0
17644,92.0,0,40,7.0,106.0
17645,82.0,0,40,7.0,106.0
17646,67.0,40,40,7.0,106.0
17647,77.0,0,40,7.0,106.0
17648,77.0,0,40,7.0,106.0
17649,84.0,0,40,7.0,106.0
17650,68.0,40,40,7.0,106.0
17651,92.0,0,40,7.0,106.0
17652,70.0,0,60,7.0,106.0
17653,77.0,0,60,7.0,106.0
17654,86.0,40,60,7.0,106.0
17655,92.0,0,60,7.0,106.0
17656,63.0,0,120,7.0,106.0
17657,91.0,0,120,7.0,106.0
17658,79.0,0,120,7.0,106.0
17659,75.0,60,120,7.0,106.0
17660,74.0,60,0,7.0,106.0
17661,83.0,0,0,7.0,106.0
17662,89.0,0,0,7.0,106.0
17663,67.0,0,0,7.0,106.0
17664,72.0,0,120,7.0,106.0
17665,75.0,0,120,7.0,106.0
17666,87.0,0,120,7.0,106.0
17667,60.0,60,120,7.0,106.0
17668,63.0,0,60,7.0,106.0
17669,79.0,0,0,7.0,106.0
17670,70.0,0,0,7.0,106.0
17671,85.0,60,0,7.0,106.0
17672,63.0,0,60,7.0,106.0
17673,56.0,0,60,7.0,106.0
17674,68.0,0,60,7.0,106.0
17675,72.0,0,60,7.0,106.0
17676,84.0,60,60,7.0,106.0
17677,67.0,0,60,7.0,106.0
17678,76.0,0,60,7.0,106.0
17679,82.0,0,60,7.0,106.0
17680,60.0,60,60,7.0,106.0
17681,65.0,0,60,7.0,106.0
17682,53.0,0,60,7.0,106.0
17683,80.0,0,60,7.0,106.0
17684,68.0,60,60,7.0,106.0
17685,55.0,0,60,7.0,106.0
17686,64.0,0,60,7.0,106.0
17687,70.0,0,60,7.0,106.0
17688,79.0,60,60,7.0,106.0
17689,77.0,0,60,7.0,106.0
17690,56.0,60,60,7.0,106.0
17691,60.0,0,60,7.0,106.0
17692,72.0,0,60,7.0,106.0
17693,66.0,0,60,7.0,106.0
17694,60.0,0,60,7.0,106.0
17695,57.0,0,60,7.0,106.0
17696,75.0,60,60,7.0,106.0
17697,65.0,60,60,7.0,106.0
17698,62.0,0,60,7.0,106.0
17699,58.0,0,0,7.0,106.0
17700,74.0,0,60,7.0,106.0
17701,72.0,60,60,7.0,106.0
17702,67.0,0,60,7.0,106.0
17703,63.0,0,60,7.0,106.0
17704,62.0,0,60,7.0,106.0
17705,65.0,0,0,7.0,106.0
17706,70.0,0,60,7.0,106.0
17707,58.0,0,60,7.0,106.0
17708,68.0,0,60,7.0,106.0
17709,65.0,0,0,7.0,106.0
17710,63.0,0,0,7.0,106.0
17711,59.0,60,0,7.0,106.0
17712,68.0,0,60,7.0,106.0
17713,59.0,0,0,7.0,106.0
17714,67.0,60,20,7.0,106.0
17715,70.0,20,20,7.0,106.0
17716,68.0,20,20,7.0,106.0
17717,70.0,20,20,7.0,106.0
17718,68.0,20,20,7.0,106.0
17719,70.0,20,20,7.0,106.0
17720,68.0,20,20,7.0,106.0
17721,70.0,20,20,7.0,106.0
17722,68.0,20,20,7.0,106.0
17723,70.0,20,20,7.0,106.0
17724,68.0,20,20,7.0,106.0
17725,70.0,20,20,7.0,106.0
17726,68.0,20,20,7.0,106.0
17727,70.0,20,20,7.0,106.0
17728,68.0,20,20,7.0,106.0
17729,70.0,20,20,7.0,106.0
17730,68.0,20,20,7.0,106.0
17731,70.0,20,20,7.0,106.0
17732,68.0,20,20,7.0,106.0
17733,70.0,20,20,7.0,106.0
17734,68.0,20,20,7.0,106.0
17735,70.0,20,20,7.0,106.0
17736,68.0,20,20,7.0,106.0
17737,65.0,0,480,7.0,106.0
17738,63.0,0,480,7.0,106.0
17739,70.0,20,20,7.0,106.0
17740,68.0,0,20,7.0,106.0
17741,70.0,20,20,7.0,106.0
17742,68.0,20,20,7.0,106.0
17743,70.0,20,20,7.0,106.0
17744,68.0,20,20,7.0,106.0
17745,70.0,20,20,7.0,106.0
17746,68.0,20,15,7.0,106.0
17747,70.0,15,15,7.0,106.0
17748,68.0,15,15,7.0,106.0
17749,70.0,15,15,7.0,106.0
17750,67.0,15,30,7.0,106.0
17751,58.0,0,240,7.0,106.0
17752,62.0,20,240,7.0,106.0
17753,65.0,0,240,7.0,106.0
17754,68.0,30,30,7.0,106.0
17755,70.0,30,30,7.0,106.0
17756,68.0,30,30,7.0,106.0
17757,67.0,30,30,7.0,106.0
17758,65.0,30,30,7.0,106.0
17759,75.0,30,30,7.0,106.0
17760,74.0,30,30,7.0,106.0
17761,72.0,30,30,7.0,106.0
17762,70.0,30,30,7.0,106.0
17763,79.0,30,30,7.0,106.0
17764,77.0,30,30,7.0,106.0
17765,75.0,30,30,7.0,106.0
17766,74.0,30,30,7.0,106.0
17767,82.0,30,30,7.0,106.0
17768,80.0,30,30,7.0,106.0
17769,79.0,30,30,7.0,106.0
17770,77.0,30,30,7.0,106.0
17771,87.0,30,30,7.0,106.0
17772,86.0,30,30,7.0,106.0
17773,84.0,30,30,7.0,106.0
17774,82.0,30,30,7.0,106.0
17775,91.0,30,30,7.0,106.0
17776,89.0,30,30,7.0,106.0
17777,87.0,30,30,7.0,106.0
17778,86.0,30,30,7.0,106.0
17779,94.0,30,30,7.0,106.0
17780,92.0,30,30,7.0,106.0
17781,91.0,30,30,7.0,106.0
17782,89.0,30,30,7.0,106.0
17783,96.0,30,30,7.0,106.0
17784,94.0,30,30,7.0,106.0
17785,92.0,30,30,7.0,106.0
17786,91.0,30,30,7.0,106.0
17787,89.0,30,30,7.0,106.0
17788,87.0,30,30,7.0,106.0
17789,86.0,30,30,7.0,106.0
17790,84.0,30,30,7.0,106.0
17791,82.0,30,30,7.0,106.0
17792,80.0,30,30,7.0,106.0
17793,79.0,30,30,7.0,106.0
17794,77.0,30,30,7.0,106.0
17795,75.0,30,30,7.0,106.0
17796,74.0,30,30,7.0,106.0
17797,72.0,30,30,7.0,106.0
17798,70.0,30,30,7.0,106.0
17799,68.0,30,30,7.0,106.0
17800,67.0,30,30,7.0,106.0
17801,65.0,30,30,7.0,106.0
17802,63.0,30,30,7.0,106.0
17803,62.0,30,30,7.0,106.0
17804,60.0,30,30,7.0,106.0
17805,58.0,30,30,7.0,106.0
17806,56.0,30,30,7.0,106.0
17807,55.0,30,30,7.0,106.0
17808,53.0,30,30,7.0,106.0
17809,51.0,30,30,7.0,106.0
17810,50.0,30,30,7.0,106.0
17811,48.0,30,30,7.0,106.0
17812,46.0,30,30,7.0,106.0
17813,45.0,30,30,7.0,106.0
17814,46.0,30,30,7.0,106.0
17815,47.0,30,30,7.0,106.0
17816,48.0,30,30,7.0,106.0
17817,49.0,30,30,7.0,106.0
17818,50.0,30,30,7.0,106.0
17819,51.0,30,30,7.0,106.0
17820,52.0,30,30,7.0,106.0
17821,53.0,30,30,7.0,106.0
17822,54.0,30,30,7.0,106.0
17823,55.0,30,30,7.0,106.0
17824,56.0,30,30,7.0,106.0
17825,57.0,30,30,7.0,106.0
17826,58.0,30,30,7.0,106.0
17827,59.0,30,30,7.0,106.0
17828,60.0,30,30,7.0,106.0
17829,61.0,30,30,7.0,106.0
17830,62.0,30,30,7.0,106.0
17831,63.0,30,30,7.0,106.0
17832,64.0,30,30,7.0,106.0
17833,65.0,30,30,7.0,106.0
17834,66.0,30,30,7.0,106.0
17835,67.0,30,30,7.0,106.0
17836,68.0,30,30,7.0,106.0
17837,69.0,30,30,7.0,106.0
17838,70.0,30,30,7.0,106.0
17839,71.0,30,30,7.0,106.0
17840,72.0,30,30,7.0,106.0
17841,73.0,30,30,7.0,106.0
17842,74.0,30,30,7.0,106.0
17843,58.0,25,0,10.0,112.0
17844,51.0,2,0,11.0,117.0
17845,55.0,0,30,11.0,117.0
17846,51.0,0,0,11.0,117.0
17847,55.0,2,0,11.0,117.0
17848,58.0,28,30,10.0,112.0
17849,55.0,0,0,11.0,117.0
17850,75.0,30,120,7.0,106.0
17851,58.0,28,30,10.0,112.0
17852,51.0,2,30,11.0,117.0
17853,51.0,1,120,12.0,117.0
17854,51.0,0,120,6.0,122.0
17855,39.0,1,120,13.0,127.0
17856,58.0,28,30,10.0,112.0
17857,51.0,2,0,11.0,117.0
17858,55.0,0,0,11.0,117.0
17859,58.0,28,0,10.0,112.0
17860,51.0,0,0,11.0,117.0
17861,55.0,2,0,11.0,117.0
17862,58.0,28,0,10.0,112.0
17863,51.0,0,0,11.0,117.0
17864,51.0,2,0,11.0,117.0
17865,55.0,0,0,11.0,117.0
17866,58.0,28,0,10.0,112.0
17867,51.0,2,0,11.0,117.0
17868,55.0,0,0,11.0,117.0
17869,63.0,0,300,8.0,117.0
17870,87.0,0,300,0.0,94.0
17871,79.0,0,300,0.0,94.0
17872,63.0,0,300,5.0,104.0
17873,75.0,0,300,5.0,104.0
17874,75.0,1,300,1.0,98.0
17875,67.0,0,300,1.0,98.0
17876,63.0,1,300,4.0,107.0
17877,75.0,0,300,2.0,94.0
17878,67.0,0,300,2.0,94.0
17879,51.0,0,300,4.0,107.0
17880,58.0,2,0,10.0,112.0
17881,51.0,0,0,11.0,117.0
17882,55.0,2,0,11.0,117.0
17883,55.0,0,300,3.0,110.0
17884,51.0,1,300,3.0,110.0
17885,65.0,26,20,8.0,117.0
17886,58.0,12,0,10.0,112.0
17887,51.0,0,0,11.0,117.0
17888,55.0,2,0,11.0,117.0
17889,63.0,16,20,8.0,117.0
17890,62.0,6,20,8.0,117.0
17891,55.0,2,0,11.0,117.0
17892,58.0,2,30,10.0,112.0
17893,51.0,0,30,11.0,117.0
17894,63.0,20,45,8.0,117.0
17895,58.0,2,0,10.0,112.0
17896,55.0,2,0,11.0,117.0
17897,51.0,2,30,11.0,117.0
17898,58.0,28,0,10.0,112.0
17899,51.0,2,0,11.0,117.0
17900,55.0,0,0,11.0,117.0
17901,65.0,26,45,8.0,117.0
17902,58.0,2,0,10.0,112.0
17903,51.0,2,0,11.0,117.0
17904,58.0,28,0,10.0,112.0
17905,55.0,0,30,11.0,117.0
17906,58.0,28,0,10.0,112.0
17907,55.0,0,30,11.0,117.0
17908,51.0,2,30,11.0,117.0
17909,58.0,28,0,10.0,112.0
17910,55.0,0,30,11.0,117.0
17911,51.0,2,30,11.0,117.0
17912,67.0,26,120,8.0,117.0
17913,55.0,2,30,11.0,117.0
17914,51.0,0,30,11.0,117.0
17915,58.0,28,0,10.0,112.0
17916,55.0,2,30,11.0,117.0
17917,51.0,0,30,11.0,117.0
17918,58.0,28,0,10.0,112.0
17919,51.0,0,30,11.0,117.0
17920,55.0,2,0,11.0,117.0
17921,58.0,28,0,10.0,112.0
17922,51.0,0,0,11.0,117.0
17923,63.0,26,120,8.0,117.0
17924,58.0,2,0,10.0,112.0
17925,55.0,2,30,11.0,117.0
17926,51.0,2,30,11.0,117.0
17927,55.0,0,30,11.0,117.0
17928,58.0,28,30,10.0,112.0
17929,55.0,0,30,11.0,117.0
17930,51.0,2,30,11.0,117.0
17931,58.0,28,0,10.0,112.0
17932,51.0,0,30,11.0,117.0
17933,55.0,2,30,11.0,117.0
17934,60.0,26,120,8.0,117.0
17935,51.0,0,0,11.0,117.0
17936,55.0,2,0,11.0,117.0
17937,58.0,0,30,10.0,112.0
17938,51.0,2,0,11.0,117.0
17939,58.0,25,30,10.0,112.0
17940,55.0,0,30,11.0,117.0
17941,51.0,2,0,11.0,117.0
17942,58.0,0,90,8.0,117.0
17943,82.0,0,90,0.0,94.0
17944,79.0,26,0,0.0,94.0
17945,70.0,1,0,5.0,104.0
17946,58.0,0,0,5.0,104.0
17947,67.0,0,0,1.0,98.0
17948,70.0,0,0,1.0,98.0
17949,67.0,0,90,2.0,94.0
17950,58.0,0,0,4.0,107.0
17951,55.0,0,0,4.0,107.0
17952,58.0,1,0,10.0,112.0
17953,70.0,0,0,2.0,94.0
17954,55.0,0,30,11.0,117.0
17955,51.0,1,90,12.0,117.0
17956,51.0,1,0,6.0,122.0
17957,51.0,0,0,3.0,110.0
17958,55.0,1,90,3.0,110.0
17959,39.0,1,90,13.0,127.0
17960,82.0,0,30,0.0,94.0
17961,58.0,0,30,8.0,117.0
17962,79.0,23,0,0.0,94.0
17963,67.0,0,30,2.0,94.0
17964,51.0,2,0,11.0,117.0
17965,55.0,0,30,11.0,117.0
17966,51.0,1,0,12.0,117.0
17967,55.0,0,30,3.0,110.0
17968,51.0,1,0,3.0,110.0
17969,51.0,0,0,6.0,122.0
17970,39.0,1,0,13.0,127.0
17971,58.0,0,30,10.0,112.0
17972,55.0,0,30,11.0,117.0
17973,58.0,28,0,10.0,112.0
17974,51.0,0,30,11.0,117.0
17975,55.0,2,30,11.0,117.0
17976,58.0,28,0,10.0,112.0
17977,51.0,2,0,11.0,117.0
17978,55.0,0,0,11.0,117.0
17979,58.0,28,0,10.0,112.0
17980,51.0,0,0,11.0,117.0
17981,55.0,2,30,11.0,117.0
17982,58.0,28,30,10.0,112.0
17983,51.0,2,0,11.0,117.0
17984,55.0,0,0,11.0,117.0
17985,58.0,28,30,10.0,112.0
17986,51.0,2,0,11.0,117.0
17987,55.0,0,0,11.0,117.0
17988,58.0,28,30,10.0,112.0
17989,51.0,2,0,11.0,117.0
17990,55.0,0,0,11.0,117.0
17991,58.0,28,30,10.0,112.0
17992,63.0,0,300,8.0,117.0
17993,87.0,0,300,0.0,94.0
17994,67.0,0,300,1.0,98.0
17995,75.0,0,300,1.0,98.0
17996,75.0,1,300,5.0,104.0
17997,63.0,0,300,5.0,104.0
17998,55.0,0,300,4.0,107.0
17999,58.0,28,30,10.0,112.0
18000,63.0,0,300,4.0,107.0
18001,67.0,0,300,2.0,94.0
18002,75.0,1,300,2.0,94.0
18003,51.0,0,0,11.0,117.0
18004,55.0,2,0,11.0,117.0
18005,55.0,0,300,3.0,110.0
18006,65.0,26,20,8.0,117.0
18007,58.0,2,30,10.0,112.0
18008,51.0,0,0,11.0,117.0
18009,63.0,16,20,8.0,117.0
18010,62.0,6,20,8.0,117.0
18011,58.0,12,30,10.0,112.0
18012,55.0,2,0,11.0,117.0
18013,58.0,28,0,10.0,112.0
18014,51.0,0,0,11.0,117.0
18015,55.0,2,0,11.0,117.0
18016,63.0,20,45,8.0,117.0
18017,58.0,2,0,10.0,112.0
18018,55.0,0,30,11.0,117.0
18019,51.0,2,30,11.0,117.0
18020,65.0,26,45,8.0,117.0
18021,58.0,2,0,10.0,112.0
18022,51.0,0,30,11.0,117.0
18023,55.0,2,30,11.0,117.0
18024,51.0,2,30,11.0,117.0
18025,55.0,0,30,11.0,117.0
18026,58.0,28,0,10.0,112.0
18027,51.0,2,0,11.0,117.0
18028,55.0,0,0,11.0,117.0
18029,58.0,28,0,10.0,112.0
18030,51.0,2,0,11.0,117.0
18031,67.0,26,120,8.0,117.0
18032,55.0,0,30,11.0,117.0
18033,51.0,0,0,11.0,117.0
18034,58.0,28,0,10.0,112.0
18035,55.0,2,30,11.0,117.0
18036,58.0,28,0,10.0,112.0
18037,55.0,2,30,11.0,117.0
18038,51.0,2,0,11.0,117.0
18039,55.0,0,30,11.0,117.0
18040,63.0,26,120,8.0,117.0
18041,58.0,2,0,10.0,112.0
18042,51.0,0,0,11.0,117.0
18043,55.0,2,0,11.0,117.0
18044,58.0,28,0,10.0,112.0
18045,55.0,2,0,11.0,117.0
18046,51.0,0,0,11.0,117.0
18047,51.0,0,0,11.0,117.0
18048,55.0,2,0,11.0,117.0
18049,58.0,28,30,10.0,112.0
18050,55.0,2,0,11.0,117.0
18051,60.0,26,120,8.0,117.0
18052,58.0,1,0,10.0,112.0
18053,51.0,0,30,11.0,117.0
18054,55.0,2,0,11.0,117.0
18055,63.0,25,0,10.0,112.0
18056,58.0,0,0,10.0,112.0
18057,51.0,2,0,11.0,117.0
18058,51.0,0,0,11.0,117.0
18059,55.0,2,0,11.0,117.0
18060,58.0,0,90,8.0,117.0
18061,82.0,0,90,0.0,94.0
18062,79.0,26,0,0.0,94.0
18063,70.0,1,90,5.0,104.0
18064,70.0,1,0,1.0,98.0
18065,67.0,0,90,1.0,98.0
18066,58.0,0,0,5.0,104.0
18067,58.0,0,30,10.0,112.0
18068,63.0,28,30,10.0,112.0
18069,70.0,0,90,2.0,94.0
18070,67.0,0,90,2.0,94.0
18071,55.0,0,90,4.0,107.0
18072,58.0,0,0,4.0,107.0
18073,51.0,1,90,12.0,117.0
18074,55.0,1,90,3.0,110.0
18075,51.0,1,0,3.0,110.0
18076,51.0,0,0,6.0,122.0
18077,39.0,1,90,13.0,127.0
18078,70.0,0,30,8.0,117.0
18079,82.0,0,30,0.0,94.0
18080,58.0,1,0,5.0,104.0
18081,70.0,0,0,5.0,104.0
18082,67.0,0,30,1.0,98.0
18083,55.0,0,30,4.0,107.0
18084,63.0,1,30,10.0,112.0
18085,58.0,1,0,10.0,112.0
18086,70.0,0,30,2.0,94.0
18087,67.0,0,30,2.0,94.0
18088,58.0,0,0,4.0,107.0
18089,51.0,2,30,11.0,117.0
18090,55.0,0,30,11.0,117.0
18091,51.0,1,30,12.0,117.0
18092,55.0,0,30,3.0,110.0
18093,39.0,1,30,13.0,127.0
18094,46.0,0,60,6.0,122.0
18095,58.0,0,120,8.0,117.0
18096,65.0,0,120,8.0,117.0
18097,65.0,0,120,10.0,112.0
18098,74.0,23,240,8.0,117.0
18099,86.0,0,240,0.0,94.0
18100,77.0,0,240,0.0,94.0
18101,74.0,0,240,1.0,98.0
18102,65.0,0,240,1.0,98.0
18103,65.0,0,240,2.0,94.0
18104,70.0,0,0,2.0,94.0
18105,74.0,0,240,10.0,112.0
18106,46.0,0,240,4.0,107.0
18107,58.0,2,240,11.0,117.0
18108,46.0,1,240,12.0,117.0
18109,53.0,1,240,3.0,110.0
18110,46.0,0,240,3.0,110.0
18111,34.0,1,240,13.0,127.0
18112,87.0,0,60,0.0,94.0
18113,55.0,233,60,8.0,117.0
18114,63.0,0,60,8.0,117.0
18115,79.0,0,60,0.0,94.0
18116,75.0,0,60,8.0,117.0
18117,75.0,1,60,1.0,98.0
18118,63.0,0,60,5.0,104.0
18119,67.0,0,60,1.0,98.0
18120,63.0,0,60,10.0,112.0
18121,67.0,0,60,2.0,94.0
18122,63.0,0,60,4.0,107.0
18123,55.0,0,60,10.0,112.0
18124,51.0,1,60,4.0,107.0
18125,75.0,0,60,10.0,112.0
18126,63.0,2,60,11.0,117.0
18127,51.0,1,60,12.0,117.0
18128,51.0,1,60,3.0,110.0
18129,51.0,0,60,6.0,122.0
18130,55.0,0,60,3.0,110.0
18131,39.0,1,60,13.0,127.0
18132,84.0,113,60,0.0,94.0
18133,89.0,0,60,0.0,94.0
18134,77.0,0,60,8.0,117.0
18135,75.0,0,60,5.0,104.0
18136,72.0,1,60,1.0,98.0
18137,63.0,0,60,5.0,104.0
18138,77.0,0,60,1.0,98.0
18139,63.0,0,60,2.0,94.0
18140,75.0,0,60,10.0,112.0
18141,65.0,0,60,10.0,112.0
18142,72.0,1,60,2.0,94.0
18143,60.0,2,60,11.0,117.0
18144,44.0,1,60,12.0,117.0
18145,44.0,0,60,3.0,110.0
18146,53.0,1,60,3.0,110.0
18147,51.0,0,60,6.0,122.0
18148,32.0,1,60,13.0,127.0
18149,58.0,0,60,5.0,104.0
18150,70.0,0,60,5.0,104.0
18151,46.0,1,60,6.0,122.0
18152,70.0,113,120,8.0,117.0
18153,63.0,0,120,8.0,117.0
18154,58.0,0,120,10.0,112.0
18155,67.0,1,120,10.0,112.0
18156,91.0,0,240,0.0,94.0
18157,79.0,0,240,8.0,117.0
18158,87.0,0,240,0.0,94.0
18159,75.0,1,240,1.0,98.0
18160,79.0,0,240,1.0,98.0
18161,75.0,0,240,10.0,112.0
18162,63.0,0,240,2.0,94.0
18163,67.0,0,240,2.0,94.0
18164,67.0,0,240,11.0,117.0
18165,63.0,2,240,11.0,117.0
18166,46.0,1,240,12.0,117.0
18167,58.0,1,0,3.0,110.0
18168,46.0,0,240,3.0,110.0
18169,34.0,1,0,13.0,127.0
18170,58.0,0,60,5.0,104.0
18171,70.0,0,60,5.0,104.0
18172,46.0,0,60,6.0,122.0
18173,89.0,233,180,0.0,94.0
18174,92.0,0,180,0.0,94.0
18175,80.0,0,180,8.0,117.0
18176,70.0,0,180,8.0,117.0
18177,62.0,0,180,8.0,117.0
18178,80.0,0,180,1.0,98.0
18179,77.0,1,0,1.0,98.0
18180,68.0,0,180,2.0,94.0
18181,65.0,0,0,2.0,94.0
18182,77.0,0,180,10.0,112.0
18183,68.0,2,180,11.0,117.0
18184,65.0,0,180,11.0,117.0
18185,46.0,1,0,12.0,117.0
18186,46.0,0,180,3.0,110.0
18187,89.0,173,60,0.0,94.0
18188,77.0,0,60,8.0,117.0
18189,86.0,0,60,0.0,94.0
18190,74.0,0,60,1.0,98.0
18191,74.0,1,60,10.0,112.0
18192,62.0,0,60,2.0,94.0
18193,65.0,0,60,11.0,117.0
18194,62.0,2,60,11.0,117.0
18195,46.0,1,60,3.0,110.0
18196,58.0,4,0,3.0,110.0
18197,34.0,1,60,13.0,127.0
18198,74.0,0,240,2.0,94.0
18199,68.0,55,240,2.0,94.0
18200,65.0,0,240,3.0,110.0
18201,67.0,236,120,2.0,94.0
18202,75.0,0,120,2.0,94.0
18203,63.0,4,120,3.0,110.0
18204,63.0,116,120,4.0,107.0
18205,65.0,0,120,2.0,94.0
18206,77.0,0,120,2.0,94.0
18207,65.0,0,120,4.0,107.0
18208,60.0,0,120,3.0,110.0
18209,56.0,4,120,3.0,110.0
18210,58.0,4,120,3.0,110.0
18211,75.0,0,240,2.0,94.0
18212,79.0,0,240,2.0,94.0
18213,67.0,0,240,4.0,107.0
18214,63.0,116,240,4.0,107.0
18215,46.0,4,120,3.0,110.0
18216,77.0,0,180,2.0,94.0
18217,80.0,236,180,2.0,94.0
18218,68.0,0,180,4.0,107.0
18219,65.0,0,180,4.0,107.0
18220,58.0,0,60,4.0,107.0
18221,77.0,176,60,2.0,94.0
18222,74.0,0,60,2.0,94.0
18223,65.0,0,60,4.0,107.0
18224,75.0,0,20,7.0,106.0
18225,74.0,20,20,7.0,106.0
18226,75.0,20,20,7.0,106.0
18227,74.0,20,20,7.0,106.0
18228,75.0,20,20,7.0,106.0
18229,74.0,20,20,7.0,106.0
18230,75.0,20,20,7.0,106.0
18231,74.0,20,20,7.0,106.0
18232,75.0,20,20,7.0,106.0
18233,74.0,20,20,7.0,106.0
18234,75.0,20,20,7.0,106.0
18235,58.0,58,240,7.0,106.0
18236,65.0,0,240,7.0,106.0
18237,68.0,0,240,7.0,106.0
18238,74.0,20,20,7.0,106.0
18239,77.0,20,20,7.0,106.0
18240,75.0,20,20,7.0,106.0
18241,77.0,20,20,7.0,106.0
18242,75.0,20,20,7.0,106.0
18243,77.0,20,20,7.0,106.0
18244,67.0,0,120,7.0,106.0
18245,63.0,0,120,7.0,106.0
18246,75.0,20,20,7.0,106.0
18247,79.0,20,20,7.0,106.0
18248,77.0,20,20,7.0,106.0
18249,63.0,0,60,7.0,106.0
18250,60.0,0,60,7.0,106.0
18251,57.0,0,60,7.0,106.0
18252,79.0,20,20,7.0,106.0
18253,77.0,0,20,7.0,106.0
18254,79.0,20,20,7.0,106.0
18255,62.0,0,60,7.0,106.0
18256,56.0,20,60,7.0,106.0
18257,77.0,20,20,7.0,106.0
18258,58.0,0,0,7.0,106.0
18259,65.0,0,120,7.0,106.0
18260,80.0,0,20,7.0,106.0
18261,79.0,20,20,7.0,106.0
18262,80.0,20,20,7.0,106.0
18263,79.0,20,20,7.0,106.0
18264,80.0,20,20,7.0,106.0
18265,55.0,0,120,7.0,106.0
18266,79.0,20,20,7.0,106.0
18267,63.0,0,120,7.0,106.0
18268,80.0,0,20,7.0,106.0
18269,79.0,20,20,7.0,106.0
18270,80.0,20,20,7.0,106.0
18271,79.0,20,20,7.0,106.0
18272,80.0,20,20,7.0,106.0
18273,63.0,0,120,7.0,106.0
18274,79.0,20,20,7.0,106.0
18275,60.0,20,120,7.0,106.0
18276,67.0,20,240,7.0,106.0
18277,82.0,20,60,7.0,106.0
18278,80.0,60,60,7.0,106.0
18279,56.0,0,120,7.0,106.0
18280,65.0,0,120,7.0,106.0
18281,60.0,0,120,7.0,106.0
18282,79.0,60,45,7.0,106.0
18283,77.0,53,45,7.0,106.0
18284,58.0,0,120,7.0,106.0
18285,68.0,0,120,7.0,106.0
18286,74.0,0,120,7.0,106.0
18287,46.0,0,120,7.0,66.0
18288,65.0,0,120,8.0,117.0
18289,56.0,2,120,10.0,112.0
18290,58.0,2,120,11.0,117.0
18291,46.0,1,120,12.0,117.0
18292,34.0,2,120,13.0,127.0
18293,51.0,0,30,7.0,86.0
18294,55.0,23,30,7.0,86.0
18295,58.0,30,30,7.0,86.0
18296,63.0,30,30,7.0,86.0
18297,51.0,30,30,7.0,86.0
18298,55.0,30,30,7.0,86.0
18299,58.0,30,30,7.0,86.0
18300,63.0,30,30,7.0,86.0
18301,51.0,30,30,7.0,86.0
18302,55.0,30,30,7.0,86.0
18303,75.0,0,300,7.0,106.0
18304,77.0,30,20,7.0,106.0
18305,58.0,0,30,7.0,86.0
18306,75.0,20,20,7.0,106.0
18307,63.0,10,30,7.0,86.0
18308,74.0,10,20,7.0,106.0
18309,51.0,20,30,7.0,86.0
18310,55.0,30,30,7.0,86.0
18311,75.0,0,60,7.0,106.0
18312,58.0,30,30,7.0,86.0
18313,63.0,30,30,7.0,86.0
18314,77.0,0,60,7.0,106.0
18315,51.0,0,30,7.0,86.0
18316,78.0,30,60,7.0,106.0
18317,55.0,30,30,7.0,86.0
18318,58.0,0,30,7.0,86.0
18319,63.0,30,30,7.0,86.0
18320,79.0,30,60,7.0,106.0
18321,51.0,30,30,7.0,86.0
18322,55.0,30,30,7.0,86.0
18323,74.0,0,60,7.0,106.0
18324,58.0,30,30,7.0,86.0
18325,75.0,0,60,7.0,106.0
18326,63.0,30,30,7.0,86.0
18327,51.0,0,30,7.0,86.0
18328,71.0,30,60,7.0,106.0
18329,55.0,30,30,7.0,86.0
18330,58.0,0,30,7.0,86.0
18331,63.0,30,30,7.0,86.0
18332,72.0,30,60,7.0,106.0
18333,51.0,30,30,7.0,86.0
18334,55.0,24,30,7.0,86.0
18335,58.0,30,30,7.0,86.0
18336,67.0,2,90,2.0,94.0
18337,70.0,0,0,2.0,94.0
18338,55.0,4,0,3.0,110.0
18339,58.0,0,0,3.0,110.0
18340,63.0,24,0,8.0,117.0
18341,63.0,30,30,7.0,86.0
18342,67.0,2,0,2.0,94.0
18343,55.0,2,960,10.0,112.0
18344,58.0,2,0,11.0,117.0
18345,58.0,2,0,3.0,110.0
18346,51.0,0,30,7.0,86.0
18347,55.0,24,30,7.0,86.0
18348,58.0,30,30,7.0,86.0
18349,63.0,30,30,7.0,86.0
18350,51.0,30,30,7.0,86.0
18351,55.0,30,30,7.0,86.0
18352,58.0,30,30,7.0,86.0
18353,63.0,30,30,7.0,86.0
18354,70.0,0,240,2.0,94.0
18355,55.0,4,0,3.0,110.0
18356,51.0,30,30,7.0,86.0
18357,55.0,24,30,7.0,86.0
18358,87.0,0,300,7.0,106.0
18359,63.0,2,60,2.0,94.0
18360,67.0,0,60,2.0,94.0
18361,51.0,0,60,3.0,110.0
18362,89.0,30,20,7.0,106.0
18363,58.0,0,30,7.0,86.0
18364,87.0,20,20,7.0,106.0
18365,86.0,10,20,7.0,106.0
18366,63.0,10,30,7.0,86.0
18367,51.0,20,30,7.0,86.0
18368,87.0,0,60,7.0,106.0
18369,55.0,30,30,7.0,86.0
18370,58.0,30,30,7.0,86.0
18371,89.0,0,60,7.0,106.0
18372,63.0,30,30,7.0,86.0
18373,51.0,0,30,7.0,86.0
18374,90.0,30,60,7.0,106.0
18375,55.0,30,30,7.0,86.0
18376,58.0,0,30,7.0,86.0
18377,63.0,30,30,7.0,86.0
18378,91.0,30,60,7.0,106.0
18379,51.0,0,30,7.0,86.0
18380,86.0,30,60,7.0,106.0
18381,55.0,30,30,7.0,86.0
18382,58.0,30,30,7.0,86.0
18383,63.0,30,30,7.0,86.0
18384,87.0,0,60,7.0,106.0
18385,51.0,0,30,7.0,86.0
18386,55.0,30,30,7.0,86.0
18387,83.0,30,60,7.0,106.0
18388,58.0,30,30,7.0,86.0
18389,63.0,30,30,7.0,86.0
18390,84.0,0,60,7.0,106.0
18391,51.0,30,30,7.0,86.0
18392,55.0,24,30,7.0,86.0
18393,58.0,30,30,7.0,86.0
18394,67.0,2,0,2.0,94.0
18395,75.0,0,0,2.0,94.0
18396,55.0,4,0,3.0,110.0
18397,63.0,0,0,3.0,110.0
18398,63.0,0,0,8.0,117.0
18399,63.0,30,30,7.0,86.0
18400,55.0,0,960,10.0,112.0
18401,51.0,1,1920,12.0,117.0
18402,39.0,2,1920,13.0,127.0
18403,49.0,0,24,7.0,96.0
18404,51.0,17,24,7.0,96.0
18405,55.0,24,24,7.0,96.0
18406,58.0,24,24,7.0,96.0
18407,63.0,24,24,7.0,96.0
18408,49.0,24,24,7.0,96.0
18409,51.0,24,24,7.0,96.0
18410,55.0,24,24,7.0,96.0
18411,58.0,24,24,7.0,96.0
18412,63.0,24,24,7.0,96.0
18413,75.0,0,240,2.0,94.0
18414,63.0,0,240,3.0,110.0
18415,49.0,24,24,7.0,96.0
18416,51.0,18,24,7.0,96.0
18417,91.0,24,300,7.0,106.0
18418,67.0,0,300,2.0,94.0
18419,70.0,2,60,2.0,94.0
18420,58.0,4,60,3.0,110.0
18421,55.0,1,300,3.0,110.0
18422,55.0,24,24,7.0,96.0
18423,92.0,12,20,7.0,106.0
18424,58.0,12,24,7.0,96.0
18425,91.0,8,20,7.0,106.0
18426,90.0,4,20,7.0,106.0
18427,63.0,16,24,7.0,96.0
18428,49.0,0,24,7.0,96.0
18429,51.0,24,24,7.0,96.0
18430,91.0,20,60,7.0,106.0
18431,55.0,24,24,7.0,96.0
18432,58.0,12,24,7.0,96.0
18433,92.0,12,60,7.0,106.0
18434,63.0,24,24,7.0,96.0
18435,49.0,0,24,7.0,96.0
18436,51.0,24,24,7.0,96.0
18437,93.0,24,60,7.0,106.0
18438,55.0,24,24,7.0,96.0
18439,58.0,12,24,7.0,96.0
18440,94.0,12,60,7.0,106.0
18441,63.0,24,24,7.0,96.0
18442,49.0,24,24,7.0,96.0
18443,51.0,24,24,7.0,96.0
18444,90.0,0,60,7.0,106.0
18445,55.0,24,24,7.0,96.0
18446,58.0,12,24,7.0,96.0
18447,63.0,24,24,7.0,96.0
18448,91.0,12,60,7.0,106.0
18449,49.0,0,24,7.0,96.0
18450,51.0,24,24,7.0,96.0
18451,86.0,24,60,7.0,106.0
18452,55.0,24,24,7.0,96.0
18453,58.0,12,24,7.0,96.0
18454,63.0,24,24,7.0,96.0
18455,87.0,12,60,7.0,106.0
18456,49.0,24,24,7.0,96.0
18457,51.0,18,24,7.0,96.0
18458,55.0,24,24,7.0,96.0
18459,67.0,0,0,2.0,94.0
18460,75.0,20,0,2.0,94.0
18461,55.0,0,90,3.0,110.0
18462,58.0,24,24,7.0,96.0
18463,63.0,4,0,3.0,110.0
18464,63.0,0,24,7.0,96.0
18465,63.0,0,0,8.0,117.0
18466,67.0,0,0,2.0,94.0
18467,75.0,2,0,2.0,94.0
18468,58.0,0,0,10.0,112.0
18469,55.0,2,960,11.0,117.0
18470,51.0,0,960,11.0,117.0
18471,49.0,1,960,12.0,117.0
18472,55.0,0,30,3.0,110.0
18473,37.0,1,960,13.0,127.0
18474,49.0,24,24,7.0,96.0
18475,51.0,17,24,7.0,96.0
18476,93.0,0,60,7.0,106.0
18477,55.0,24,24,7.0,96.0
18478,58.0,12,24,7.0,96.0
18479,94.0,12,60,7.0,106.0
18480,63.0,24,24,7.0,96.0
18481,63.0,0,120,3.0,110.0
18482,55.0,1,120,3.0,110.0
18483,49.0,24,24,7.0,96.0
18484,51.0,24,24,7.0,96.0
18485,90.0,0,60,7.0,106.0
18486,55.0,24,24,7.0,96.0
18487,58.0,12,24,7.0,96.0
18488,63.0,24,24,7.0,96.0
18489,91.0,12,60,7.0,106.0
18490,49.0,24,24,7.0,96.0
18491,51.0,24,24,7.0,96.0
18492,86.0,0,60,7.0,106.0
18493,55.0,24,24,7.0,96.0
18494,58.0,12,24,7.0,96.0
18495,63.0,24,24,7.0,96.0
18496,87.0,12,60,7.0,106.0
18497,49.0,24,24,7.0,96.0
18498,51.0,18,24,7.0,96.0
18499,55.0,24,24,7.0,96.0
18500,67.0,20,0,2.0,94.0
18501,75.0,0,0,2.0,94.0
18502,55.0,0,0,3.0,110.0
18503,63.0,0,0,3.0,110.0
18504,58.0,24,24,7.0,96.0
18505,63.0,4,24,7.0,96.0
18506,51.0,2,0,11.0,117.0
18507,55.0,0,480,11.0,117.0
18508,49.0,1,480,12.0,117.0
18509,63.0,1,0,3.0,110.0
18510,37.0,1,480,13.0,127.0
18511,48.0,0,30,7.0,106.0
18512,95.0,24,60,7.0,106.0
18513,51.0,23,30,7.0,106.0
18514,56.0,0,30,7.0,106.0
18515,96.0,30,60,7.0,106.0
18516,63.0,30,30,7.0,106.0
18517,68.0,0,120,2.0,94.0
18518,75.0,0,120,2.0,94.0
18519,56.0,0,120,3.0,110.0
18520,48.0,30,30,7.0,106.0
18521,51.0,30,30,7.0,106.0
18522,91.0,0,60,7.0,106.0
18523,56.0,30,30,7.0,106.0
18524,92.0,0,60,7.0,106.0
18525,63.0,30,30,7.0,106.0
18526,48.0,30,30,7.0,106.0
18527,51.0,30,30,7.0,106.0
18528,86.0,0,60,7.0,106.0
18529,56.0,30,30,7.0,106.0
18530,63.0,30,30,7.0,106.0
18531,87.0,0,60,7.0,106.0
18532,48.0,30,30,7.0,106.0
18533,51.0,24,30,7.0,106.0
18534,56.0,30,30,7.0,106.0
18535,68.0,0,0,2.0,94.0
18536,75.0,2,0,2.0,94.0
18537,63.0,4,90,3.0,110.0
18538,56.0,0,90,3.0,110.0
18539,63.0,30,30,7.0,106.0
18540,63.0,0,0,8.0,117.0
18541,60.0,2,480,10.0,112.0
18542,56.0,2,0,11.0,117.0
18543,48.0,1,480,12.0,117.0
18544,63.0,0,30,3.0,110.0
18545,56.0,4,30,3.0,110.0
18546,36.0,1,0,13.0,127.0
18547,48.0,0,30,7.0,106.0
18548,51.0,23,30,7.0,106.0
18549,95.0,24,60,7.0,106.0
18550,56.0,0,30,7.0,106.0
18551,63.0,30,30,7.0,106.0
18552,96.0,30,60,7.0,106.0
18553,68.0,0,120,2.0,94.0
18554,75.0,0,120,2.0,94.0
18555,56.0,0,120,3.0,110.0
18556,63.0,1,120,3.0,110.0
18557,48.0,30,30,7.0,106.0
18558,51.0,30,30,7.0,106.0
18559,91.0,0,60,7.0,106.0
18560,56.0,30,30,7.0,106.0
18561,63.0,30,30,7.0,106.0
18562,92.0,0,60,7.0,106.0
18563,48.0,30,30,7.0,106.0
18564,86.0,0,60,7.0,106.0
18565,51.0,30,30,7.0,106.0
18566,56.0,0,30,7.0,106.0
18567,87.0,30,60,7.0,106.0
18568,63.0,30,30,7.0,106.0
18569,48.0,30,30,7.0,106.0
18570,51.0,24,30,7.0,106.0
18571,56.0,30,30,7.0,106.0
18572,75.0,2,90,2.0,94.0
18573,68.0,2,0,2.0,94.0
18574,63.0,0,90,3.0,110.0
18575,56.0,4,90,3.0,110.0
18576,63.0,30,30,7.0,106.0
18577,60.0,2,480,10.0,112.0
18578,75.0,0,30,2.0,94.0
18579,51.0,0,480,11.0,117.0
18580,48.0,1,480,12.0,117.0
18581,63.0,0,30,3.0,110.0
18582,56.0,4,30,3.0,110.0
18583,46.0,0,30,7.0,106.0
18584,96.0,24,60,7.0,106.0
18585,51.0,23,30,7.0,106.0
18586,55.0,0,30,7.0,106.0
18587,97.0,30,60,7.0,106.0
18588,61.0,30,30,7.0,106.0
18589,46.0,0,30,7.0,106.0
18590,51.0,24,30,7.0,106.0
18591,93.0,30,60,7.0,106.0
18592,55.0,30,30,7.0,106.0
18593,67.0,0,90,2.0,94.0
18594,75.0,0,0,2.0,94.0
18595,63.0,4,0,3.0,110.0
18596,55.0,0,0,3.0,110.0
18597,61.0,30,30,7.0,106.0
18598,94.0,0,60,7.0,106.0
18599,67.0,2,30,2.0,94.0
18600,46.0,0,30,7.0,106.0
18601,90.0,24,60,7.0,106.0
18602,51.0,30,30,7.0,106.0
18603,55.0,0,30,7.0,106.0
18604,61.0,30,30,7.0,106.0
18605,91.0,30,60,7.0,106.0
18606,46.0,0,30,7.0,106.0
18607,51.0,24,30,7.0,106.0
18608,86.0,30,60,7.0,106.0
18609,55.0,30,30,7.0,106.0
18610,67.0,0,90,2.0,94.0
18611,75.0,2,90,2.0,94.0
18612,63.0,4,90,3.0,110.0
18613,55.0,0,0,3.0,110.0
18614,63.0,0,480,8.0,117.0
18615,61.0,30,30,7.0,106.0
18616,87.0,0,60,7.0,106.0
18617,67.0,2,30,2.0,94.0
18618,75.0,0,30,2.0,94.0
18619,61.0,2,480,10.0,112.0
18620,55.0,0,480,11.0,117.0
18621,51.0,2,480,11.0,117.0
18622,46.0,1,480,12.0,117.0
18623,63.0,4,30,3.0,110.0
18624,34.0,2,480,13.0,127.0
18625,51.0,0,30,7.0,106.0
18626,55.0,23,30,7.0,106.0
18627,84.0,24,60,7.0,106.0
18628,58.0,30,30,7.0,106.0
18629,85.0,0,60,7.0,106.0
18630,61.0,30,30,7.0,106.0
18631,51.0,30,30,7.0,106.0
18632,81.0,0,60,7.0,106.0
18633,55.0,24,30,7.0,106.0
18634,58.0,0,30,7.0,106.0
18635,63.0,0,90,4.0,107.0
18636,73.0,0,90,2.0,94.0
18637,51.0,0,0,4.0,107.0
18638,70.0,2,0,2.0,94.0
18639,61.0,4,90,3.0,110.0
18640,58.0,4,0,3.0,110.0
18641,82.0,30,60,7.0,106.0
18642,61.0,30,30,7.0,106.0
18643,63.0,0,30,4.0,107.0
18644,73.0,0,30,2.0,94.0
18645,61.0,0,30,3.0,110.0
18646,51.0,0,30,7.0,106.0
18647,55.0,30,30,7.0,106.0
18648,78.0,24,60,7.0,106.0
18649,58.0,30,30,7.0,106.0
18650,61.0,30,30,7.0,106.0
18651,79.0,0,60,7.0,106.0
18652,51.0,0,30,7.0,106.0
18653,55.0,24,30,7.0,106.0
18654,72.0,30,60,7.0,106.0
18655,58.0,0,30,7.0,106.0
18656,70.0,0,90,2.0,94.0
18657,73.0,2,90,2.0,94.0
18658,63.0,0,90,4.0,107.0
18659,51.0,0,0,4.0,107.0
18660,61.0,0,90,3.0,110.0
18661,58.0,4,0,3.0,110.0
18662,73.0,30,60,7.0,106.0
18663,67.0,0,480,8.0,117.0
18664,61.0,30,30,7.0,106.0
18665,63.0,0,30,4.0,107.0
18666,70.0,0,30,2.0,94.0
18667,73.0,2,30,2.0,94.0
18668,61.0,2,480,10.0,112.0
18669,51.0,0,480,11.0,117.0
18670,58.0,2,480,11.0,117.0
18671,51.0,1,480,12.0,117.0
18672,61.0,0,30,3.0,110.0
18673,39.0,2,480,13.0,127.0
18674,72.0,0,30,7.0,106.0
18675,84.0,0,30,7.0,106.0
18676,87.0,23,30,7.0,106.0
18677,80.0,30,30,7.0,106.0
18678,84.0,0,30,7.0,106.0
18679,44.0,24,120,7.0,106.0
18680,87.0,30,30,7.0,106.0
18681,68.0,0,120,8.0,117.0
18682,60.0,0,120,10.0,112.0
18683,68.0,2,120,4.0,107.0
18684,56.0,2,120,11.0,117.0
18685,44.0,1,120,12.0,117.0
18686,32.0,2,120,13.0,127.0
18687,72.0,58,30,7.0,106.0
18688,75.0,30,30,7.0,106.0
18689,92.0,30,150,7.0,106.0
18690,75.0,0,30,7.0,106.0
18691,72.0,30,30,7.0,106.0
18692,68.0,30,30,7.0,106.0
18693,75.0,30,30,7.0,106.0
18694,72.0,0,30,7.0,106.0
18695,68.0,2,240,4.0,107.0
18696,70.0,2,60,4.0,107.0
18697,60.0,58,30,7.0,106.0
18698,63.0,28,30,7.0,106.0
18699,68.0,2,60,4.0,107.0
18700,80.0,30,150,7.0,106.0
18701,66.0,0,45,4.0,107.0
18702,63.0,23,30,7.0,106.0
18703,60.0,0,30,7.0,106.0
18704,56.0,30,30,7.0,106.0
18705,65.0,2,45,4.0,107.0
18706,63.0,0,30,7.0,106.0
18707,60.0,28,30,7.0,106.0
18708,68.0,30,120,8.0,117.0
18709,63.0,2,120,10.0,112.0
18710,56.0,2,120,11.0,117.0
18711,44.0,1,120,12.0,117.0
18712,32.0,2,120,13.0,127.0
18713,63.0,2,45,4.0,107.0
18714,48.0,58,30,7.0,106.0
18715,65.0,2,45,4.0,107.0
18716,51.0,28,30,7.0,106.0
18717,68.0,30,150,7.0,106.0
18718,66.0,2,45,4.0,107.0
18719,51.0,0,30,7.0,106.0
18720,48.0,28,30,7.0,106.0
18721,44.0,30,30,7.0,106.0
18722,63.0,2,45,4.0,107.0
18723,48.0,0,30,7.0,106.0
18724,51.0,28,30,7.0,106.0
18725,65.0,2,45,4.0,107.0
18726,36.0,58,30,7.0,106.0
18727,66.0,2,45,4.0,107.0
18728,39.0,28,30,7.0,106.0
18729,56.0,30,150,7.0,106.0
18730,53.0,0,30,7.0,106.0
18731,49.0,23,30,7.0,106.0
18732,44.0,30,30,7.0,106.0
18733,53.0,30,30,7.0,106.0
18734,32.0,30,120,7.0,106.0
18735,68.0,0,120,8.0,117.0
18736,49.0,0,30,7.0,106.0
18737,65.0,0,120,4.0,107.0
18738,61.0,2,120,10.0,112.0
18739,56.0,2,120,11.0,117.0
18740,44.0,1,120,12.0,117.0
18741,32.0,2,120,13.0,127.0
18742,37.0,54,30,7.0,106.0
18743,41.0,30,30,7.0,106.0
18744,56.0,30,150,7.0,106.0
18745,61.0,0,30,7.0,106.0
18746,65.0,30,30,7.0,106.0
18747,53.0,30,30,7.0,106.0
18748,61.0,30,30,7.0,106.0
18749,65.0,0,30,7.0,106.0
18750,44.0,30,120,7.0,106.0
18751,77.0,0,240,2.0,94.0
18752,68.0,0,0,2.0,94.0
18753,56.0,4,240,3.0,110.0
18754,49.0,54,30,7.0,106.0
18755,53.0,30,30,7.0,106.0
18756,77.0,2,120,2.0,94.0
18757,56.0,4,120,3.0,110.0
18758,68.0,30,150,7.0,106.0
18759,75.0,0,30,7.0,106.0
18760,78.0,23,30,7.0,106.0
18761,68.0,30,30,7.0,106.0
18762,56.0,30,120,7.0,106.0
18763,78.0,30,30,7.0,106.0
18764,75.0,0,30,7.0,106.0
18765,68.0,0,120,8.0,117.0
18766,56.0,0,120,10.0,112.0
18767,56.0,2,120,11.0,117.0
18768,44.0,1,120,12.0,117.0
18769,32.0,1,120,13.0,127.0
18770,63.0,60,30,7.0,106.0
18771,66.0,30,30,7.0,106.0
18772,75.0,2,240,2.0,94.0
18773,66.0,0,240,2.0,94.0
18774,60.0,1,240,3.0,110.0
18775,80.0,30,150,7.0,106.0
18776,85.0,0,30,7.0,106.0
18777,89.0,23,30,7.0,106.0
18778,80.0,30,30,7.0,106.0
18779,85.0,30,30,7.0,106.0
18780,89.0,0,30,7.0,106.0
18781,68.0,0,120,7.0,106.0
18782,68.0,30,120,8.0,117.0
18783,56.0,0,120,10.0,112.0
18784,56.0,2,120,11.0,117.0
18785,44.0,1,120,12.0,117.0
18786,32.0,1,120,13.0,127.0
18787,73.0,60,30,7.0,106.0
18788,77.0,30,30,7.0,106.0
18789,73.0,0,240,2.0,94.0
18790,65.0,2,240,2.0,94.0
18791,61.0,1,240,3.0,110.0
18792,92.0,30,180,7.0,106.0
18793,80.0,30,60,7.0,106.0
18794,87.0,0,30,7.0,106.0
18795,84.0,53,30,7.0,106.0
18796,68.0,0,120,8.0,117.0
18797,92.0,28,30,7.0,106.0
18798,68.0,2,60,4.0,107.0
18799,63.0,0,120,2.0,94.0
18800,72.0,0,120,2.0,94.0
18801,56.0,2,120,10.0,112.0
18802,56.0,2,120,11.0,117.0
18803,44.0,1,120,12.0,117.0
18804,56.0,1,120,3.0,110.0
18805,32.0,1,120,13.0,127.0
18806,84.0,0,30,7.0,106.0
18807,87.0,30,30,7.0,106.0
18808,92.0,28,30,7.0,106.0
18809,68.0,2,0,4.0,107.0
18810,75.0,0,30,7.0,106.0
18811,72.0,30,30,7.0,106.0
18812,80.0,28,30,7.0,106.0
18813,72.0,30,30,7.0,106.0
18814,75.0,0,30,7.0,106.0
18815,80.0,28,30,7.0,106.0
18816,68.0,2,60,4.0,107.0
18817,72.0,0,30,7.0,106.0
18818,75.0,30,30,7.0,106.0
18819,80.0,28,30,7.0,106.0
18820,68.0,2,60,4.0,107.0
18821,72.0,0,30,7.0,106.0
18822,75.0,30,30,7.0,106.0
18823,80.0,28,30,7.0,106.0
18824,70.0,2,60,4.0,107.0
18825,63.0,30,30,7.0,106.0
18826,60.0,0,30,7.0,106.0
18827,68.0,28,30,7.0,106.0
18828,68.0,2,60,4.0,107.0
18829,60.0,30,30,7.0,106.0
18830,63.0,0,30,7.0,106.0
18831,68.0,23,30,7.0,106.0
18832,66.0,2,60,4.0,107.0
18833,63.0,0,30,7.0,106.0
18834,60.0,30,30,7.0,106.0
18835,68.0,28,30,7.0,106.0
18836,68.0,0,120,8.0,117.0
18837,65.0,2,60,4.0,107.0
18838,63.0,0,120,10.0,112.0
18839,56.0,2,120,11.0,117.0
18840,44.0,1,120,12.0,117.0
18841,32.0,2,120,13.0,127.0
18842,60.0,30,30,7.0,106.0
18843,63.0,0,30,7.0,106.0
18844,68.0,28,30,7.0,106.0
18845,63.0,2,60,4.0,107.0
18846,48.0,30,30,7.0,106.0
18847,51.0,0,30,7.0,106.0
18848,56.0,28,30,7.0,106.0
18849,65.0,2,60,4.0,107.0
18850,48.0,30,30,7.0,106.0
18851,51.0,0,30,7.0,106.0
18852,56.0,28,30,7.0,106.0
18853,66.0,2,60,4.0,107.0
18854,48.0,30,30,7.0,106.0
18855,51.0,0,30,7.0,106.0
18856,56.0,28,30,7.0,106.0
18857,63.0,2,60,4.0,107.0
18858,51.0,30,30,7.0,106.0
18859,48.0,0,30,7.0,106.0
18860,56.0,28,30,7.0,106.0
18861,65.0,2,60,4.0,107.0
18862,32.0,30,30,7.0,106.0
18863,44.0,28,30,7.0,106.0
18864,66.0,2,60,4.0,107.0
18865,32.0,0,30,7.0,106.0
18866,44.0,23,30,7.0,106.0
18867,44.0,30,30,7.0,106.0
18868,56.0,24,30,7.0,106.0
18869,68.0,30,120,8.0,117.0
18870,61.0,2,120,10.0,112.0
18871,77.0,2,0,2.0,94.0
18872,68.0,0,0,2.0,94.0
18873,65.0,0,120,4.0,107.0
18874,56.0,2,120,11.0,117.0
18875,44.0,1,120,12.0,117.0
18876,56.0,4,0,3.0,110.0
18877,32.0,2,120,13.0,127.0
18878,44.0,30,30,7.0,106.0
18879,56.0,24,30,7.0,106.0
18880,77.0,2,0,2.0,94.0
18881,68.0,0,0,2.0,94.0
18882,32.0,30,30,7.0,106.0
18883,44.0,24,30,7.0,106.0
18884,77.0,0,0,2.0,94.0
18885,68.0,2,0,2.0,94.0
18886,56.0,4,60,3.0,110.0
18887,32.0,30,30,7.0,106.0
18888,44.0,24,30,7.0,106.0
18889,56.0,4,0,3.0,110.0
18890,56.0,30,30,7.0,106.0
18891,68.0,0,45,2.0,94.0
18892,77.0,2,45,2.0,94.0
18893,68.0,24,30,7.0,106.0
18894,56.0,4,0,3.0,110.0
18895,56.0,30,30,7.0,106.0
18896,68.0,24,30,7.0,106.0
18897,70.0,0,60,2.0,94.0
18898,78.0,2,60,2.0,94.0
18899,44.0,30,30,7.0,106.0
18900,56.0,24,30,7.0,106.0
18901,68.0,2,60,2.0,94.0
18902,77.0,0,60,2.0,94.0
18903,56.0,4,60,3.0,110.0
18904,44.0,30,30,7.0,106.0
18905,66.0,0,45,2.0,94.0
18906,75.0,0,45,2.0,94.0
18907,56.0,23,30,7.0,106.0
18908,68.0,30,30,7.0,106.0
18909,75.0,0,45,2.0,94.0
18910,66.0,2,45,2.0,94.0
18911,68.0,0,120,8.0,117.0
18912,80.0,28,30,7.0,106.0
18913,56.0,2,120,10.0,112.0
18914,68.0,2,0,4.0,107.0
18915,56.0,2,120,11.0,117.0
18916,44.0,1,120,12.0,117.0
18917,32.0,1,120,13.0,127.0
18918,68.0,30,30,7.0,106.0
18919,77.0,0,45,2.0,94.0
18920,68.0,0,45,2.0,94.0
18921,80.0,28,30,7.0,106.0
18922,68.0,0,0,4.0,107.0
18923,60.0,4,0,3.0,110.0
18924,56.0,30,30,7.0,106.0
18925,66.0,0,45,2.0,94.0
18926,75.0,2,45,2.0,94.0
18927,68.0,24,30,7.0,106.0
18928,56.0,30,30,7.0,106.0
18929,73.0,2,45,2.0,94.0
18930,65.0,0,45,2.0,94.0
18931,68.0,23,30,7.0,106.0
18932,80.0,30,30,7.0,106.0
18933,73.0,0,45,2.0,94.0
18934,65.0,2,45,2.0,94.0
18935,68.0,0,120,8.0,117.0
18936,92.0,28,30,7.0,106.0
18937,56.0,0,120,10.0,112.0
18938,68.0,0,0,4.0,107.0
18939,56.0,2,120,11.0,117.0
18940,44.0,1,120,12.0,117.0
18941,32.0,1,120,13.0,127.0
18942,80.0,30,30,7.0,106.0
18943,75.0,2,45,2.0,94.0
18944,66.0,0,45,2.0,94.0
18945,92.0,28,30,7.0,106.0
18946,61.0,4,0,3.0,110.0
18947,44.0,30,30,7.0,106.0
18948,65.0,2,45,2.0,94.0
18949,73.0,0,45,2.0,94.0
18950,56.0,30,0,7.0,106.0
18951,92.0,0,0,7.0,106.0
18952,80.0,0,0,7.0,106.0
18953,68.0,2,0,4.0,107.0
18954,44.0,0,60,7.0,106.0
18955,57.0,53,30,7.0,106.0
18956,45.0,2,30,7.0,106.0
18957,56.0,28,30,7.0,106.0
18958,68.0,0,120,8.0,117.0
18959,72.0,0,120,2.0,94.0
18960,63.0,0,120,2.0,94.0
18961,56.0,0,120,10.0,112.0
18962,44.0,2,30,7.0,106.0
18963,56.0,2,120,11.0,117.0
18964,44.0,1,120,12.0,117.0
18965,56.0,1,120,3.0,110.0
18966,32.0,1,120,13.0,127.0
18967,57.0,28,30,7.0,106.0
18968,45.0,2,30,7.0,106.0
18969,56.0,28,30,7.0,106.0
18970,44.0,2,30,7.0,106.0
18971,57.0,28,30,7.0,106.0
18972,45.0,2,30,7.0,106.0
18973,56.0,28,30,7.0,106.0
18974,44.0,2,30,7.0,106.0
18975,61.0,28,30,7.0,106.0
18976,49.0,2,30,7.0,106.0
18977,60.0,28,30,7.0,106.0
18978,48.0,2,30,7.0,106.0
18979,61.0,28,30,7.0,106.0
18980,49.0,2,30,7.0,106.0
18981,60.0,28,30,7.0,106.0
18982,48.0,2,30,7.0,106.0
18983,64.0,28,30,7.0,106.0
18984,52.0,2,30,7.0,106.0
18985,63.0,28,30,7.0,106.0
18986,51.0,2,30,7.0,106.0
18987,64.0,28,30,7.0,106.0
18988,52.0,2,30,7.0,106.0
18989,63.0,28,30,7.0,106.0
18990,51.0,2,30,7.0,106.0
18991,69.0,28,30,7.0,106.0
18992,57.0,2,30,7.0,106.0
18993,68.0,28,30,7.0,106.0
18994,56.0,2,30,7.0,106.0
18995,69.0,28,30,7.0,106.0
18996,57.0,2,30,7.0,106.0
18997,68.0,28,30,7.0,106.0
18998,56.0,2,30,7.0,106.0
18999,73.0,28,30,7.0,106.0
19000,61.0,2,30,7.0,106.0
19001,72.0,28,30,7.0,106.0
19002,60.0,2,30,7.0,106.0
19003,73.0,28,30,7.0,106.0
19004,61.0,2,30,7.0,106.0
19005,72.0,28,30,7.0,106.0
19006,60.0,2,30,7.0,106.0
19007,76.0,28,30,7.0,106.0
19008,64.0,2,30,7.0,106.0
19009,75.0,28,30,7.0,106.0
19010,63.0,2,30,7.0,106.0
19011,76.0,28,30,7.0,106.0
19012,64.0,2,30,7.0,106.0
19013,75.0,28,30,7.0,106.0
19014,63.0,2,30,7.0,106.0
19015,81.0,28,30,7.0,106.0
19016,69.0,2,30,7.0,106.0
19017,80.0,28,30,7.0,106.0
19018,68.0,2,30,7.0,106.0
19019,81.0,28,30,7.0,106.0
19020,69.0,2,30,7.0,106.0
19021,80.0,28,30,7.0,106.0
19022,68.0,2,30,7.0,106.0
19023,85.0,28,30,7.0,106.0
19024,73.0,2,30,7.0,106.0
19025,84.0,28,30,7.0,106.0
19026,72.0,2,30,7.0,106.0
19027,85.0,28,30,7.0,106.0
19028,73.0,2,30,7.0,106.0
19029,84.0,28,30,7.0,106.0
19030,72.0,2,30,7.0,106.0
19031,88.0,28,30,7.0,106.0
19032,76.0,2,30,7.0,106.0
19033,87.0,28,30,7.0,106.0
19034,75.0,2,30,7.0,106.0
19035,88.0,28,30,7.0,106.0
19036,76.0,2,30,7.0,106.0
19037,87.0,28,30,7.0,106.0
19038,75.0,2,30,7.0,106.0
19039,93.0,28,30,7.0,127.0
19040,81.0,2,30,7.0,127.0
19041,92.0,28,30,7.0,106.0
19042,80.0,2,30,7.0,106.0
19043,93.0,28,30,7.0,106.0
19044,81.0,2,30,7.0,106.0
19045,92.0,28,30,7.0,106.0
19046,80.0,2,30,7.0,106.0
19047,88.0,28,30,7.0,106.0
19048,76.0,2,30,7.0,106.0
19049,87.0,28,30,7.0,106.0
19050,75.0,2,30,7.0,106.0
19051,88.0,28,30,7.0,106.0
19052,76.0,2,30,7.0,106.0
19053,87.0,28,30,7.0,106.0
19054,75.0,2,30,7.0,106.0
19055,93.0,28,30,7.0,127.0
19056,81.0,2,30,7.0,127.0
19057,92.0,28,30,7.0,106.0
19058,80.0,2,30,7.0,106.0
19059,93.0,28,30,7.0,106.0
19060,81.0,2,30,7.0,106.0
19061,92.0,28,30,7.0,106.0
19062,80.0,2,30,7.0,106.0
19063,88.0,28,30,7.0,106.0
19064,76.0,2,30,7.0,106.0
19065,87.0,28,30,7.0,106.0
19066,75.0,2,30,7.0,106.0
19067,88.0,28,30,7.0,106.0
19068,76.0,2,30,7.0,106.0
19069,87.0,28,30,7.0,106.0
19070,75.0,2,30,7.0,106.0
19071,93.0,28,30,7.0,127.0
19072,81.0,2,30,7.0,127.0
19073,92.0,28,30,7.0,106.0
19074,80.0,2,30,7.0,106.0
19075,93.0,28,30,7.0,106.0
19076,81.0,2,30,7.0,106.0
19077,92.0,28,30,7.0,106.0
19078,80.0,2,30,7.0,106.0
19079,88.0,28,30,7.0,106.0
19080,76.0,2,30,7.0,106.0
19081,87.0,28,30,7.0,106.0
19082,75.0,2,30,7.0,106.0
19083,88.0,28,30,7.0,106.0
19084,76.0,2,30,7.0,106.0
19085,87.0,28,30,7.0,106.0
19086,75.0,2,30,7.0,106.0
19087,92.0,28,30,7.0,127.0
19088,80.0,2,30,7.0,127.0
19089,90.0,28,30,7.0,106.0
19090,78.0,2,30,7.0,106.0
19091,92.0,28,30,7.0,106.0
19092,80.0,2,30,7.0,106.0
19093,90.0,28,30,7.0,106.0
19094,78.0,2,30,7.0,106.0
19095,88.0,28,30,7.0,106.0
19096,76.0,2,30,7.0,106.0
19097,87.0,28,30,7.0,106.0
19098,75.0,2,30,7.0,106.0
19099,88.0,28,30,7.0,106.0
19100,76.0,2,30,7.0,106.0
19101,87.0,28,30,7.0,106.0
19102,75.0,2,30,7.0,106.0
19103,92.0,28,30,7.0,127.0
19104,80.0,2,30,7.0,127.0
19105,90.0,28,30,7.0,106.0
19106,78.0,2,30,7.0,106.0
19107,92.0,28,30,7.0,106.0
19108,80.0,2,30,7.0,106.0
19109,90.0,28,30,7.0,106.0
19110,78.0,2,30,7.0,106.0
19111,88.0,28,30,7.0,106.0
19112,76.0,2,30,7.0,106.0
19113,87.0,28,30,7.0,106.0
19114,75.0,2,30,7.0,106.0
19115,88.0,28,30,7.0,106.0
19116,76.0,2,30,7.0,106.0
19117,87.0,28,30,7.0,106.0
19118,75.0,2,30,7.0,106.0
19119,92.0,28,30,7.0,127.0
19120,80.0,2,30,7.0,127.0
19121,90.0,28,30,7.0,106.0
19122,78.0,2,30,7.0,106.0
19123,88.0,28,30,7.0,106.0
19124,76.0,2,30,7.0,106.0
19125,87.0,28,30,7.0,106.0
19126,75.0,2,30,7.0,106.0
19127,92.0,28,30,7.0,127.0
19128,80.0,2,30,7.0,127.0
19129,90.0,28,30,7.0,106.0
19130,78.0,2,30,7.0,106.0
19131,88.0,28,30,7.0,106.0
19132,76.0,2,30,7.0,106.0
19133,87.0,28,30,7.0,106.0
19134,75.0,2,30,7.0,106.0
19135,92.0,28,30,7.0,127.0
19136,80.0,2,30,7.0,127.0
19137,90.0,28,30,7.0,106.0
19138,78.0,2,30,7.0,106.0
19139,88.0,28,30,7.0,106.0
19140,76.0,2,30,7.0,106.0
19141,87.0,28,30,7.0,106.0
19142,75.0,2,30,7.0,106.0
19143,92.0,28,30,7.0,127.0
19144,80.0,2,30,7.0,127.0
19145,90.0,28,30,7.0,106.0
19146,78.0,2,30,7.0,106.0
19147,88.0,28,30,7.0,106.0
19148,76.0,2,30,7.0,106.0
19149,87.0,28,30,7.0,106.0
19150,75.0,2,30,7.0,106.0
19151,92.0,28,30,7.0,116.0
19152,80.0,2,30,7.0,116.0
19153,90.0,28,30,7.0,106.0
19154,78.0,2,30,7.0,106.0
19155,88.0,28,30,7.0,106.0
19156,76.0,2,30,7.0,106.0
19157,87.0,28,30,7.0,106.0
19158,75.0,2,30,7.0,106.0
19159,92.0,28,30,7.0,116.0
19160,80.0,2,30,7.0,116.0
19161,90.0,28,30,7.0,106.0
19162,78.0,2,30,7.0,106.0
19163,88.0,28,30,7.0,106.0
19164,76.0,2,30,7.0,106.0
19165,87.0,28,30,7.0,106.0
19166,75.0,2,30,7.0,106.0
19167,92.0,28,30,7.0,116.0
19168,80.0,2,30,7.0,116.0
19169,90.0,28,30,7.0,106.0
19170,78.0,2,30,7.0,106.0
19171,88.0,28,30,7.0,106.0
19172,76.0,2,30,7.0,106.0
19173,87.0,28,30,7.0,106.0
19174,75.0,2,30,7.0,106.0
19175,92.0,28,30,7.0,116.0
19176,90.0,26,30,7.0,106.0
19177,80.0,0,60,7.0,106.0
19178,88.0,0,30,7.0,106.0
19179,68.0,30,60,7.0,106.0
19180,75.0,0,60,7.0,106.0
19181,87.0,30,30,7.0,106.0
19182,63.0,0,120,8.0,117.0
19183,60.0,2,120,10.0,112.0
19184,56.0,2,120,11.0,117.0
19185,85.0,30,40,7.0,106.0
19186,88.0,0,40,7.0,106.0
19187,80.0,40,40,7.0,106.0
19188,73.0,0,90,7.0,106.0
19189,76.0,0,90,7.0,106.0
19190,88.0,40,40,7.0,106.0
19191,85.0,0,40,7.0,106.0
19192,80.0,40,40,7.0,106.0
19193,84.0,38,40,7.0,106.0
19194,87.0,0,40,7.0,106.0
19195,64.0,0,120,8.0,117.0
19196,68.0,0,60,7.0,106.0
19197,75.0,20,60,7.0,106.0
19198,80.0,20,40,7.0,106.0
19199,61.0,2,120,10.0,112.0
19200,85.0,40,40,7.0,106.0
19201,80.0,40,40,7.0,106.0
19202,73.0,0,90,7.0,106.0
19203,85.0,40,40,7.0,106.0
19204,80.0,0,40,7.0,106.0
19205,87.0,38,40,7.0,106.0
19206,84.0,0,40,7.0,106.0
19207,80.0,20,40,7.0,106.0
19208,75.0,20,60,7.0,106.0
19209,68.0,0,60,7.0,106.0
19210,64.0,40,120,8.0,117.0
19211,61.0,2,120,10.0,112.0
19212,88.0,0,40,7.0,106.0
19213,85.0,0,40,7.0,106.0
19214,80.0,40,40,7.0,106.0
19215,73.0,0,90,7.0,106.0
19216,76.0,40,90,7.0,106.0
19217,88.0,40,40,7.0,106.0
19218,85.0,0,40,7.0,106.0
19219,80.0,0,40,7.0,106.0
19220,84.0,0,40,7.0,106.0
19221,87.0,38,40,7.0,106.0
19222,75.0,20,60,7.0,106.0
19223,80.0,20,40,7.0,106.0
19224,64.0,40,120,8.0,117.0
19225,68.0,0,60,7.0,106.0
19226,61.0,2,120,10.0,112.0
19227,88.0,0,40,7.0,106.0
19228,85.0,0,40,7.0,106.0
19229,80.0,40,40,7.0,106.0
19230,73.0,0,90,7.0,106.0
19231,76.0,40,90,7.0,106.0
19232,88.0,40,40,7.0,106.0
19233,85.0,0,40,7.0,106.0
19234,80.0,0,40,7.0,106.0
19235,85.0,38,40,7.0,106.0
19236,88.0,0,40,7.0,106.0
19237,64.0,40,120,8.0,117.0
19238,87.0,0,40,7.0,106.0
19239,68.0,0,60,7.0,106.0
19240,75.0,20,60,7.0,106.0
19241,84.0,20,40,7.0,106.0
19242,61.0,2,120,10.0,112.0
19243,85.0,0,40,7.0,106.0
19244,88.0,40,40,7.0,106.0
19245,80.0,40,40,7.0,106.0
19246,76.0,0,90,7.0,106.0
19247,73.0,0,90,7.0,106.0
19248,85.0,40,40,7.0,106.0
19249,88.0,0,40,7.0,106.0
19250,80.0,40,40,7.0,106.0
19251,87.0,36,40,7.0,106.0
19252,84.0,0,40,7.0,106.0
19253,80.0,20,40,7.0,106.0
19254,75.0,0,60,7.0,106.0
19255,64.0,0,120,8.0,117.0
19256,68.0,20,60,7.0,106.0
19257,61.0,2,120,10.0,112.0
19258,61.0,2,120,11.0,117.0
19259,85.0,40,40,7.0,106.0
19260,88.0,0,40,7.0,106.0
19261,80.0,40,40,7.0,106.0
19262,73.0,0,90,7.0,106.0
19263,76.0,0,90,7.0,106.0
19264,88.0,40,40,7.0,106.0
19265,85.0,0,40,7.0,106.0
19266,83.0,40,40,7.0,106.0
19267,90.0,0,40,7.0,106.0
19268,87.0,36,40,7.0,106.0
19269,83.0,20,40,7.0,106.0
19270,78.0,40,0,7.0,106.0
19271,71.0,20,60,7.0,106.0
19272,66.0,0,120,8.0,117.0
19273,63.0,2,120,10.0,112.0
19274,59.0,2,120,11.0,117.0
19275,87.0,0,40,7.0,106.0
19276,90.0,0,40,7.0,106.0
19277,83.0,40,40,7.0,106.0
19278,71.0,0,90,7.0,106.0
19279,90.0,40,40,7.0,106.0
19280,87.0,0,40,7.0,106.0
19281,83.0,40,40,7.0,106.0
19282,87.0,0,40,7.0,106.0
19283,90.0,36,40,7.0,106.0
19284,78.0,20,60,7.0,106.0
19285,83.0,20,40,7.0,106.0
19286,66.0,0,120,8.0,117.0
19287,71.0,0,0,7.0,106.0
19288,63.0,2,120,10.0,112.0
19289,59.0,2,120,11.0,117.0
19290,90.0,0,40,7.0,106.0
19291,87.0,0,40,7.0,106.0
19292,83.0,40,40,7.0,106.0
19293,78.0,40,90,7.0,106.0
19294,90.0,40,40,7.0,106.0
19295,87.0,0,40,7.0,106.0
19296,83.0,40,40,7.0,106.0
19297,92.0,36,40,7.0,106.0
19298,88.0,0,40,7.0,106.0
19299,76.0,0,0,7.0,106.0
19300,66.0,0,120,8.0,117.0
19301,80.0,20,60,7.0,106.0
19302,90.0,0,40,7.0,106.0
19303,87.0,20,40,7.0,106.0
19304,63.0,2,120,10.0,112.0
19305,59.0,2,120,11.0,117.0
19306,92.0,40,40,7.0,106.0
19307,88.0,0,40,7.0,106.0
19308,80.0,40,40,7.0,106.0
19309,92.0,40,40,7.0,106.0
19310,88.0,0,40,7.0,106.0
19311,80.0,0,40,7.0,106.0
19312,87.0,0,40,7.0,106.0
19313,90.0,36,40,7.0,106.0
19314,68.0,40,120,8.0,117.0
19315,78.0,20,60,7.0,106.0
19316,80.0,0,0,7.0,106.0
19317,75.0,0,60,7.0,106.0
19318,64.0,2,120,10.0,112.0
19319,53.0,2,120,11.0,117.0
19320,88.0,40,40,7.0,106.0
19321,92.0,0,40,7.0,106.0
19322,80.0,40,40,7.0,106.0
19323,76.0,0,90,7.0,106.0
19324,92.0,40,40,7.0,106.0
19325,88.0,0,40,7.0,106.0
19326,80.0,40,40,7.0,106.0
19327,90.0,0,40,7.0,106.0
19328,87.0,36,40,7.0,106.0
19329,68.0,0,120,8.0,117.0
19330,76.0,0,60,7.0,106.0
19331,73.0,20,60,7.0,106.0
19332,85.0,0,40,7.0,106.0
19333,88.0,20,40,7.0,106.0
19334,64.0,2,120,10.0,112.0
19335,61.0,2,120,11.0,117.0
19336,90.0,40,40,7.0,106.0
19337,87.0,0,40,7.0,106.0
19338,80.0,40,40,7.0,106.0
19339,78.0,0,90,7.0,106.0
19340,75.0,0,90,7.0,106.0
19341,87.0,0,40,7.0,106.0
19342,90.0,40,40,7.0,106.0
19343,80.0,40,40,7.0,106.0
19344,85.0,0,40,7.0,106.0
19345,88.0,36,40,7.0,106.0
19346,80.0,20,40,7.0,106.0
19347,73.0,0,60,7.0,106.0
19348,66.0,0,120,8.0,117.0
19349,76.0,20,60,7.0,106.0
19350,63.0,2,120,10.0,112.0
19351,56.0,2,120,11.0,117.0
19352,87.0,0,40,7.0,106.0
19353,90.0,0,40,7.0,106.0
19354,80.0,40,40,7.0,106.0
19355,75.0,0,90,7.0,106.0
19356,78.0,40,90,7.0,106.0
19357,87.0,40,40,7.0,106.0
19358,90.0,0,40,7.0,106.0
19359,80.0,40,40,7.0,106.0
19360,88.0,36,40,7.0,106.0
19361,85.0,0,40,7.0,106.0
19362,87.0,20,40,7.0,106.0
19363,75.0,20,60,7.0,106.0
19364,68.0,0,60,7.0,106.0
19365,84.0,0,40,7.0,106.0
19366,66.0,0,120,8.0,117.0
19367,63.0,2,120,10.0,112.0
19368,56.0,2,120,11.0,117.0
19369,85.0,0,40,7.0,106.0
19370,88.0,0,40,7.0,106.0
19371,80.0,40,40,7.0,106.0
19372,73.0,0,90,7.0,106.0
19373,76.0,40,90,7.0,106.0
19374,88.0,0,40,7.0,106.0
19375,85.0,40,40,7.0,106.0
19376,80.0,40,40,7.0,106.0
19377,87.0,36,40,7.0,106.0
19378,84.0,0,40,7.0,106.0
19379,80.0,20,40,7.0,106.0
19380,64.0,0,120,8.0,117.0
19381,75.0,0,60,7.0,106.0
19382,68.0,20,60,7.0,106.0
19383,61.0,2,120,10.0,112.0
19384,49.0,2,120,11.0,117.0
19385,88.0,0,40,7.0,106.0
19386,85.0,40,40,7.0,106.0
19387,80.0,40,40,7.0,106.0
19388,76.0,0,90,7.0,106.0
19389,73.0,0,90,7.0,106.0
19390,88.0,0,40,7.0,106.0
19391,85.0,40,40,7.0,106.0
19392,80.0,40,40,7.0,106.0
19393,84.0,36,40,7.0,106.0
19394,87.0,0,40,7.0,106.0
19395,75.0,20,60,7.0,106.0
19396,68.0,0,60,7.0,106.0
19397,63.0,0,120,8.0,117.0
19398,80.0,20,40,7.0,106.0
19399,60.0,2,120,10.0,112.0
19400,56.0,2,120,11.0,117.0
19401,84.0,0,60,7.0,106.0
19402,87.0,40,60,7.0,106.0
19403,80.0,54,45,7.0,106.0
19404,75.0,0,120,7.0,106.0
19405,68.0,0,120,7.0,106.0
19406,79.0,60,45,7.0,106.0
19407,80.0,60,45,7.0,106.0
19408,82.0,60,45,7.0,106.0
19409,84.0,60,45,7.0,106.0
19410,85.0,60,45,7.0,106.0
19411,87.0,60,45,7.0,106.0
19412,75.0,2,480,2.0,94.0
19413,60.0,1,480,3.0,110.0
19414,89.0,0,45,7.0,106.0
19415,85.0,53,45,7.0,106.0
19416,37.0,60,120,7.0,106.0
19417,37.0,1,120,13.0,127.0
19418,80.0,60,45,7.0,106.0
19419,85.0,60,45,7.0,106.0
19420,65.0,0,120,7.0,106.0
19421,77.0,60,45,7.0,106.0
19422,85.0,60,45,7.0,106.0
19423,56.0,0,120,7.0,106.0
19424,80.0,60,45,7.0,106.0
19425,85.0,60,45,7.0,106.0
19426,65.0,0,120,7.0,106.0
19427,89.0,60,45,7.0,106.0
19428,85.0,53,45,7.0,106.0
19429,49.0,0,120,7.0,106.0
19430,37.0,7,120,13.0,127.0
19431,80.0,0,45,7.0,106.0
19432,85.0,60,45,7.0,106.0
19433,65.0,60,120,7.0,106.0
19434,80.0,0,45,7.0,106.0
19435,89.0,60,45,7.0,106.0
19436,56.0,60,120,7.0,106.0
19437,85.0,60,45,7.0,106.0
19438,89.0,60,45,7.0,106.0
19439,65.0,0,120,7.0,106.0
19440,92.0,0,60,7.0,106.0
19441,89.0,53,60,7.0,106.0
19442,49.0,60,120,7.0,106.0
19443,37.0,7,120,13.0,127.0
19444,97.0,0,60,7.0,106.0
19445,65.0,60,120,7.0,106.0
19446,96.0,60,60,7.0,106.0
19447,94.0,0,60,7.0,106.0
19448,92.0,60,60,7.0,106.0
19449,56.0,60,120,7.0,106.0
19450,90.0,0,60,7.0,106.0
19451,65.0,60,120,7.0,106.0
19452,89.0,60,60,7.0,106.0
19453,77.0,2,1440,2.0,94.0
19454,61.0,4,1440,3.0,110.0
19455,92.0,60,60,7.0,106.0
19456,90.0,53,60,7.0,106.0
19457,44.0,0,120,7.0,106.0
19458,32.0,1,120,13.0,127.0
19459,89.0,0,60,7.0,106.0
19460,66.0,60,120,7.0,106.0
19461,90.0,60,60,7.0,106.0
19462,90.0,0,45,7.0,106.0
19463,87.0,60,45,7.0,106.0
19464,56.0,60,120,7.0,106.0
19465,89.0,60,45,7.0,106.0
19466,90.0,60,45,7.0,106.0
19467,66.0,0,120,7.0,106.0
19468,78.0,2,480,2.0,94.0
19469,63.0,4,480,3.0,110.0
19470,92.0,0,60,7.0,106.0
19471,44.0,60,120,7.0,106.0
19472,97.0,53,60,7.0,106.0
19473,32.0,1,120,13.0,127.0
19474,101.0,60,45,7.0,106.0
19475,99.0,60,45,7.0,106.0
19476,65.0,0,120,7.0,106.0
19477,97.0,0,45,7.0,106.0
19478,96.0,60,45,7.0,106.0
19479,56.0,60,120,7.0,106.0
19480,94.0,0,45,7.0,106.0
19481,92.0,60,45,7.0,106.0
19482,65.0,60,120,7.0,106.0
19483,80.0,2,480,2.0,94.0
19484,65.0,4,480,3.0,110.0
19485,90.0,0,60,7.0,106.0
19486,96.0,54,60,7.0,106.0
19487,44.0,60,120,7.0,106.0
19488,99.0,60,45,7.0,106.0
19489,97.0,60,45,7.0,106.0
19490,63.0,0,120,7.0,106.0
19491,96.0,60,45,7.0,106.0
19492,94.0,60,45,7.0,106.0
19493,56.0,0,120,7.0,106.0
19494,92.0,0,45,7.0,106.0
19495,90.0,60,45,7.0,106.0
19496,63.0,60,120,7.0,106.0
19497,78.0,2,480,2.0,94.0
19498,63.0,4,480,3.0,110.0
19499,89.0,60,60,7.0,106.0
19500,97.0,54,60,7.0,106.0
19501,44.0,0,120,7.0,106.0
19502,92.0,60,60,7.0,106.0
19503,61.0,0,120,7.0,106.0
19504,97.0,60,60,7.0,106.0
19505,101.0,0,60,7.0,106.0
19506,97.0,60,45,7.0,106.0
19507,56.0,60,120,7.0,106.0
19508,92.0,60,45,7.0,106.0
19509,89.0,60,45,7.0,106.0
19510,61.0,0,120,7.0,106.0
19511,77.0,2,480,2.0,94.0
19512,61.0,4,480,3.0,110.0
19513,87.0,60,45,7.0,106.0
19514,44.0,0,60,7.0,106.0
19515,80.0,54,45,7.0,106.0
19516,75.0,60,45,7.0,106.0
19517,68.0,60,45,7.0,106.0
19518,44.0,3,4080,12.0,117.0
19519,63.0,0,45,7.0,106.0
19520,45.0,60,60,7.0,106.0
19521,60.0,60,45,7.0,106.0
19522,75.0,0,0,2.0,94.0
19523,60.0,4,360,3.0,110.0
19524,79.0,60,60,8.0,117.0
19525,70.0,0,60,8.0,117.0
19526,63.0,0,60,8.0,117.0
19527,91.0,0,60,0.0,94.0
19528,87.0,0,60,0.0,94.0
19529,70.0,0,60,5.0,104.0
19530,79.0,0,60,1.0,98.0
19531,58.0,1,60,5.0,104.0
19532,75.0,0,60,1.0,98.0
19533,67.0,0,60,4.0,107.0
19534,79.0,0,60,2.0,94.0
19535,67.0,0,60,10.0,112.0
19536,75.0,0,60,10.0,112.0
19537,63.0,0,60,4.0,107.0
19538,58.0,1,60,10.0,112.0
19539,58.0,2,60,11.0,117.0
19540,46.0,1,60,12.0,117.0
19541,51.0,0,60,3.0,110.0
19542,46.0,1,60,6.0,122.0
19543,55.0,0,60,3.0,110.0
19544,34.0,1,60,13.0,127.0
19545,87.0,0,60,0.0,94.0
19546,63.0,0,60,8.0,117.0
19547,70.0,113,60,8.0,117.0
19548,91.0,0,60,0.0,94.0
19549,79.0,0,60,8.0,117.0
19550,75.0,0,60,1.0,98.0
19551,58.0,0,60,5.0,104.0
19552,70.0,1,60,5.0,104.0
19553,79.0,0,60,1.0,98.0
19554,67.0,0,60,4.0,107.0
19555,75.0,1,60,10.0,112.0
19556,75.0,0,60,2.0,94.0
19557,63.0,0,60,4.0,107.0
19558,58.0,0,60,10.0,112.0
19559,67.0,0,60,10.0,112.0
19560,79.0,0,60,2.0,94.0
19561,58.0,2,60,11.0,117.0
19562,46.0,1,60,12.0,117.0
19563,51.0,1,60,3.0,110.0
19564,55.0,0,60,3.0,110.0
19565,46.0,0,60,6.0,122.0
19566,34.0,1,60,13.0,127.0
19567,62.0,0,60,8.0,117.0
19568,70.0,0,60,8.0,117.0
19569,77.0,0,60,8.0,117.0
19570,86.0,113,60,0.0,94.0
19571,89.0,0,60,0.0,94.0
19572,74.0,0,60,1.0,98.0
19573,58.0,0,60,5.0,104.0
19574,77.0,0,60,1.0,98.0
19575,70.0,1,60,5.0,104.0
19576,58.0,0,60,4.0,107.0
19577,70.0,1,60,2.0,94.0
19578,74.0,0,60,10.0,112.0
19579,77.0,0,60,2.0,94.0
19580,65.0,0,60,10.0,112.0
19581,58.0,0,60,10.0,112.0
19582,65.0,0,60,4.0,107.0
19583,58.0,2,60,11.0,117.0
19584,46.0,1,60,12.0,117.0
19585,53.0,0,60,3.0,110.0
19586,46.0,1,60,3.0,110.0
19587,46.0,0,60,6.0,122.0
19588,34.0,1,60,13.0,127.0
19589,75.0,0,60,8.0,117.0
19590,87.0,0,60,0.0,94.0
19591,63.0,113,60,8.0,117.0
19592,75.0,0,60,1.0,98.0
19593,75.0,0,60,5.0,104.0
19594,63.0,1,60,5.0,104.0
19595,75.0,0,60,10.0,112.0
19596,58.0,1,60,10.0,112.0
19597,55.0,0,60,4.0,107.0
19598,63.0,0,60,4.0,107.0
19599,67.0,0,60,2.0,94.0
19600,75.0,0,60,2.0,94.0
19601,67.0,0,60,10.0,112.0
19602,63.0,2,60,11.0,117.0
19603,51.0,1,60,12.0,117.0
19604,51.0,0,60,6.0,122.0
19605,43.0,0,60,3.0,110.0
19606,51.0,1,60,3.0,110.0
19607,39.0,1,60,13.0,127.0
19608,89.0,0,60,0.0,94.0
19609,62.0,0,60,8.0,117.0
19610,77.0,0,60,8.0,117.0
19611,70.0,0,60,8.0,117.0
19612,86.0,113,60,0.0,94.0
19613,77.0,1,60,1.0,98.0
19614,74.0,0,60,1.0,98.0
19615,70.0,0,60,5.0,104.0
19616,58.0,0,60,5.0,104.0
19617,77.0,0,60,2.0,94.0
19618,70.0,0,60,2.0,94.0
19619,58.0,0,60,4.0,107.0
19620,58.0,0,60,10.0,112.0
19621,65.0,0,60,10.0,112.0
19622,74.0,0,60,10.0,112.0
19623,65.0,1,60,4.0,107.0
19624,58.0,2,60,11.0,117.0
19625,46.0,1,60,12.0,117.0
19626,53.0,1,60,3.0,110.0
19627,46.0,0,60,6.0,122.0
19628,46.0,0,60,3.0,110.0
19629,34.0,1,60,13.0,127.0
19630,91.0,0,60,0.0,94.0
19631,79.0,0,60,8.0,117.0
19632,70.0,0,60,8.0,117.0
19633,63.0,113,60,8.0,117.0
19634,87.0,0,60,0.0,94.0
19635,75.0,0,60,1.0,98.0
19636,63.0,0,60,5.0,104.0
19637,75.0,1,60,5.0,104.0
19638,79.0,0,60,1.0,98.0
19639,67.0,0,60,4.0,107.0
19640,63.0,0,60,4.0,107.0
19641,79.0,0,60,2.0,94.0
19642,75.0,1,60,10.0,112.0
19643,67.0,0,60,10.0,112.0
19644,75.0,0,60,2.0,94.0
19645,58.0,0,60,10.0,112.0
19646,63.0,2,60,11.0,117.0
19647,51.0,1,60,12.0,117.0
19648,51.0,0,60,3.0,110.0
19649,55.0,1,60,3.0,110.0
19650,51.0,0,60,6.0,122.0
19651,39.0,1,60,13.0,127.0
19652,62.0,0,60,8.0,117.0
19653,70.0,113,60,8.0,117.0
19654,77.0,0,60,8.0,117.0
19655,89.0,0,60,0.0,94.0
19656,86.0,0,60,0.0,94.0
19657,74.0,0,60,1.0,98.0
19658,70.0,0,60,5.0,104.0
19659,77.0,1,60,1.0,98.0
19660,58.0,0,60,5.0,104.0
19661,58.0,0,60,4.0,107.0
19662,65.0,0,60,10.0,112.0
19663,70.0,0,60,2.0,94.0
19664,65.0,0,60,4.0,107.0
19665,74.0,0,60,10.0,112.0
19666,77.0,0,60,2.0,94.0
19667,58.0,1,60,10.0,112.0
19668,58.0,2,60,11.0,117.0
19669,46.0,1,60,12.0,117.0
19670,53.0,0,60,3.0,110.0
19671,46.0,1,60,3.0,110.0
19672,46.0,0,60,6.0,122.0
19673,34.0,1,60,13.0,127.0
19674,91.0,0,60,0.0,94.0
19675,87.0,113,60,0.0,94.0
19676,63.0,0,60,8.0,117.0
19677,70.0,0,60,8.0,117.0
19678,79.0,0,60,8.0,117.0
19679,63.0,0,60,5.0,104.0
19680,75.0,1,60,5.0,104.0
19681,75.0,0,60,1.0,98.0
19682,79.0,0,60,1.0,98.0
19683,67.0,0,60,4.0,107.0
19684,75.0,0,60,10.0,112.0
19685,63.0,0,60,4.0,107.0
19686,75.0,0,60,2.0,94.0
19687,79.0,1,60,2.0,94.0
19688,58.0,0,60,10.0,112.0
19689,67.0,0,60,10.0,112.0
19690,63.0,2,60,11.0,117.0
19691,51.0,1,60,12.0,117.0
19692,51.0,0,60,6.0,122.0
19693,51.0,0,60,3.0,110.0
19694,55.0,1,60,3.0,110.0
19695,39.0,1,60,13.0,127.0
19696,91.0,0,60,0.0,94.0
19697,87.0,113,60,0.0,94.0
19698,79.0,0,60,8.0,117.0
19699,75.0,0,60,1.0,98.0
19700,63.0,0,60,5.0,104.0
19701,79.0,1,60,1.0,98.0
19702,75.0,0,60,5.0,104.0
19703,75.0,0,60,2.0,94.0
19704,79.0,0,60,2.0,94.0
19705,63.0,1,60,4.0,107.0
19706,75.0,0,60,10.0,112.0
19707,67.0,0,60,4.0,107.0
19708,63.0,2,60,11.0,117.0
19709,51.0,1,60,12.0,117.0
19710,51.0,1,60,6.0,122.0
19711,51.0,0,60,3.0,110.0
19712,55.0,0,60,3.0,110.0
19713,39.0,1,60,13.0,127.0
19714,77.0,53,60,8.0,117.0
19715,89.0,0,60,0.0,94.0
19716,86.0,0,60,0.0,94.0
19717,74.0,0,60,1.0,98.0
19718,77.0,1,60,1.0,98.0
19719,70.0,0,60,5.0,104.0
19720,58.0,0,60,5.0,104.0
19721,58.0,1,60,4.0,107.0
19722,65.0,0,60,4.0,107.0
19723,74.0,0,60,10.0,112.0
19724,70.0,0,60,2.0,94.0
19725,77.0,0,60,2.0,94.0
19726,58.0,2,60,11.0,117.0
19727,46.0,1,60,12.0,117.0
19728,53.0,0,60,3.0,110.0
19729,46.0,1,60,3.0,110.0
19730,46.0,0,60,6.0,122.0
19731,34.0,1,60,13.0,127.0
19732,91.0,0,60,0.0,94.0
19733,87.0,0,60,0.0,94.0
19734,63.0,53,60,8.0,117.0
19735,70.0,0,60,8.0,117.0
19736,79.0,0,60,8.0,117.0
19737,63.0,0,60,5.0,104.0
19738,75.0,0,60,5.0,104.0
19739,75.0,1,60,1.0,98.0
19740,79.0,0,60,1.0,98.0
19741,67.0,0,60,10.0,112.0
19742,58.0,0,60,10.0,112.0
19743,63.0,0,60,4.0,107.0
19744,67.0,0,60,4.0,107.0
19745,79.0,0,60,2.0,94.0
19746,75.0,1,60,2.0,94.0
19747,75.0,0,60,10.0,112.0
19748,63.0,2,60,11.0,117.0
19749,51.0,1,60,12.0,117.0
19750,55.0,0,60,3.0,110.0
19751,51.0,1,60,6.0,122.0
19752,51.0,0,60,3.0,110.0
19753,39.0,1,60,13.0,127.0
19754,86.0,0,60,0.0,94.0
19755,77.0,0,60,8.0,117.0
19756,89.0,113,60,0.0,94.0
19757,77.0,0,60,1.0,98.0
19758,74.0,1,60,1.0,98.0
19759,70.0,0,60,5.0,104.0
19760,58.0,0,60,5.0,104.0
19761,65.0,0,60,4.0,107.0
19762,58.0,0,60,4.0,107.0
19763,77.0,1,60,2.0,94.0
19764,74.0,0,60,2.0,94.0
19765,58.0,0,60,10.0,112.0
19766,74.0,0,60,10.0,112.0
19767,65.0,0,60,10.0,112.0
19768,58.0,2,60,11.0,117.0
19769,46.0,1,60,12.0,117.0
19770,53.0,1,60,3.0,110.0
19771,46.0,0,60,3.0,110.0
19772,46.0,0,60,6.0,122.0
19773,34.0,1,60,13.0,127.0
19774,87.0,0,60,0.0,94.0
19775,63.0,0,60,8.0,117.0
19776,70.0,0,60,8.0,117.0
19777,79.0,113,60,8.0,117.0
19778,91.0,0,60,0.0,94.0
19779,75.0,0,60,1.0,98.0
19780,75.0,0,60,5.0,104.0
19781,63.0,0,60,5.0,104.0
19782,79.0,1,60,1.0,98.0
19783,58.0,0,60,10.0,112.0
19784,67.0,1,60,10.0,112.0
19785,75.0,0,60,10.0,112.0
19786,75.0,0,60,2.0,94.0
19787,67.0,0,60,4.0,107.0
19788,63.0,0,60,4.0,107.0
19789,79.0,0,60,2.0,94.0
19790,63.0,2,60,11.0,117.0
19791,51.0,1,60,12.0,117.0
19792,51.0,1,60,3.0,110.0
19793,55.0,0,60,3.0,110.0
19794,51.0,0,60,6.0,122.0
19795,39.0,1,60,13.0,127.0
19796,87.0,113,60,0.0,94.0
19797,91.0,0,60,0.0,94.0
19798,79.0,0,60,8.0,117.0
19799,63.0,1,60,5.0,104.0
19800,75.0,0,60,1.0,98.0
19801,79.0,0,60,1.0,98.0
19802,75.0,0,60,5.0,104.0
19803,63.0,1,60,4.0,107.0
19804,75.0,0,60,10.0,112.0
19805,75.0,0,60,2.0,94.0
19806,79.0,0,60,2.0,94.0
19807,67.0,0,60,4.0,107.0
19808,63.0,2,60,11.0,117.0
19809,51.0,1,60,12.0,117.0
19810,51.0,1,60,6.0,122.0
19811,55.0,0,60,3.0,110.0
19812,51.0,0,60,3.0,110.0
19813,39.0,1,60,13.0,127.0
19814,92.0,53,60,0.0,94.0
19815,89.0,0,60,0.0,94.0
19816,80.0,0,60,8.0,117.0
19817,70.0,0,60,5.0,104.0
19818,77.0,1,0,1.0,98.0
19819,80.0,1,60,1.0,98.0
19820,58.0,0,0,5.0,104.0
19821,65.0,1,60,4.0,107.0
19822,77.0,0,0,10.0,112.0
19823,80.0,0,60,2.0,94.0
19824,77.0,0,60,2.0,94.0
19825,68.0,1,0,4.0,107.0
19826,58.0,2,0,11.0,117.0
19827,46.0,1,60,12.0,117.0
19828,46.0,0,60,6.0,122.0
19829,53.0,1,0,3.0,110.0
19830,56.0,0,0,3.0,110.0
19831,34.0,1,0,13.0,127.0
19832,46.0,0,120,6.0,122.0
19833,92.0,0,0,0.0,94.0
19834,89.0,233,0,0.0,94.0
19835,80.0,0,240,8.0,117.0
19836,77.0,1,0,1.0,98.0
19837,70.0,0,240,5.0,104.0
19838,80.0,0,0,1.0,98.0
19839,77.0,1,0,10.0,112.0
19840,65.0,0,240,4.0,107.0
19841,80.0,0,240,2.0,94.0
19842,77.0,0,240,2.0,94.0
19843,58.0,2,0,11.0,117.0
19844,46.0,1,0,12.0,117.0
19845,34.0,1,0,13.0,127.0
19846,80.0,0,120,8.0,117.0
19847,58.0,0,0,5.0,104.0
19848,70.0,0,0,5.0,104.0
19849,77.0,0,120,2.0,94.0
19850,80.0,0,120,2.0,94.0
19851,65.0,0,120,4.0,107.0
19852,68.0,0,120,4.0,107.0
19853,56.0,1,120,3.0,110.0
19854,46.0,0,120,6.0,122.0
19855,53.0,0,120,3.0,110.0
19856,82.0,113,60,8.0,117.0
19857,82.0,0,60,1.0,98.0
19858,79.0,1,60,1.0,98.0
19859,58.0,0,0,5.0,104.0
19860,70.0,1,60,4.0,107.0
19861,79.0,0,60,2.0,94.0
19862,82.0,0,60,2.0,94.0
19863,67.0,0,60,4.0,107.0
19864,79.0,0,60,10.0,112.0
19865,63.0,2,60,11.0,117.0
19866,51.0,1,60,12.0,117.0
19867,58.0,1,60,3.0,110.0
19868,55.0,0,60,3.0,110.0
19869,51.0,0,60,6.0,122.0
19870,39.0,1,60,13.0,127.0
19871,80.0,53,60,8.0,117.0
19872,80.0,0,60,1.0,98.0
19873,77.0,1,60,1.0,98.0
19874,70.0,0,0,5.0,104.0
19875,68.0,0,60,4.0,107.0
19876,65.0,0,60,4.0,107.0
19877,77.0,0,60,10.0,112.0
19878,77.0,1,60,2.0,94.0
19879,80.0,0,60,2.0,94.0
19880,58.0,2,60,11.0,117.0
19881,46.0,1,60,12.0,117.0
19882,46.0,0,60,6.0,122.0
19883,56.0,0,60,3.0,110.0
19884,53.0,1,60,3.0,110.0
19885,34.0,1,60,13.0,127.0
19886,63.0,0,60,8.0,117.0
19887,82.0,53,60,8.0,117.0
19888,70.0,0,60,8.0,117.0
19889,58.0,0,60,5.0,104.0
19890,79.0,1,60,1.0,98.0
19891,82.0,0,60,1.0,98.0
19892,70.0,0,60,4.0,107.0
19893,67.0,0,60,4.0,107.0
19894,82.0,0,60,2.0,94.0
19895,79.0,0,60,2.0,94.0
19896,79.0,0,60,10.0,112.0
19897,70.0,0,60,10.0,112.0
19898,63.0,1,60,10.0,112.0
19899,63.0,2,60,11.0,117.0
19900,51.0,1,60,12.0,117.0
19901,58.0,0,60,3.0,110.0
19902,55.0,0,60,3.0,110.0
19903,51.0,1,60,6.0,122.0
19904,39.0,1,60,13.0,127.0
19905,80.0,113,60,8.0,117.0
19906,77.0,0,60,1.0,98.0
19907,70.0,1,60,5.0,104.0
19908,58.0,0,60,5.0,104.0
19909,80.0,0,60,1.0,98.0
19910,77.0,0,60,10.0,112.0
19911,80.0,0,60,2.0,94.0
19912,65.0,0,60,4.0,107.0
19913,68.0,1,60,4.0,107.0
19914,77.0,0,60,2.0,94.0
19915,58.0,2,60,11.0,117.0
19916,46.0,1,60,12.0,117.0
19917,46.0,0,60,6.0,122.0
19918,56.0,0,60,3.0,110.0
19919,53.0,1,60,3.0,110.0
19920,34.0,1,60,13.0,127.0
19921,82.0,113,15,8.0,117.0
19922,82.0,1,15,1.0,98.0
19923,79.0,0,15,1.0,98.0
19924,79.0,0,15,2.0,94.0
19925,82.0,0,15,2.0,94.0
19926,79.0,0,15,10.0,112.0
19927,58.0,0,15,3.0,110.0
19928,55.0,1,15,3.0,110.0
19929,51.0,0,15,6.0,122.0
19930,84.0,8,15,8.0,117.0
19931,80.0,1,15,1.0,98.0
19932,84.0,0,15,1.0,98.0
19933,84.0,0,15,2.0,94.0
19934,80.0,0,15,2.0,94.0
19935,80.0,1,15,10.0,112.0
19936,50.0,0,15,6.0,122.0
19937,56.0,0,15,3.0,110.0
19938,60.0,4,15,3.0,110.0
19939,51.0,4,15,6.0,122.0
19940,50.0,15,15,6.0,122.0
19941,51.0,15,15,6.0,122.0
19942,50.0,15,15,6.0,122.0
19943,51.0,15,15,6.0,122.0
19944,82.0,9,90,8.0,117.0
19945,82.0,0,90,1.0,98.0
19946,79.0,1,90,1.0,98.0
19947,70.0,0,0,5.0,104.0
19948,58.0,0,0,5.0,104.0
19949,70.0,1,120,4.0,107.0
19950,67.0,0,120,4.0,107.0
19951,79.0,1,90,10.0,112.0
19952,79.0,0,90,2.0,94.0
19953,82.0,0,90,2.0,94.0
19954,63.0,2,120,11.0,117.0
19955,51.0,1,120,12.0,117.0
19956,50.0,15,15,6.0,122.0
19957,55.0,0,90,3.0,110.0
19958,58.0,0,90,3.0,110.0
19959,39.0,1,120,13.0,127.0
19960,46.0,1,45,12.0,117.0
19961,46.0,1,45,6.0,122.0
19962,34.0,1,45,13.0,127.0
19963,80.0,0,60,8.0,117.0
19964,89.0,9,60,0.0,94.0
19965,92.0,0,60,0.0,94.0
19966,80.0,0,60,1.0,98.0
19967,77.0,1,60,1.0,98.0
19968,77.0,0,60,2.0,94.0
19969,77.0,0,60,10.0,112.0
19970,65.0,1,60,4.0,107.0
19971,68.0,0,60,4.0,107.0
19972,80.0,0,60,2.0,94.0
19973,58.0,2,60,11.0,117.0
19974,53.0,0,60,3.0,110.0
19975,56.0,0,60,3.0,110.0
19976,58.0,0,45,5.0,104.0
19977,70.0,0,45,5.0,104.0
19978,51.0,1,45,12.0,117.0
19979,51.0,1,45,6.0,122.0
19980,39.0,1,45,13.0,127.0
19981,79.0,0,60,8.0,117.0
19982,87.0,0,60,0.0,94.0
19983,91.0,53,60,0.0,94.0
19984,79.0,1,60,1.0,98.0
19985,75.0,0,60,1.0,98.0
19986,63.0,0,60,4.0,107.0
19987,67.0,0,60,4.0,107.0
19988,79.0,0,60,2.0,94.0
19989,75.0,1,60,2.0,94.0
19990,75.0,0,60,10.0,112.0
19991,63.0,2,60,11.0,117.0
19992,55.0,0,60,3.0,110.0
19993,51.0,0,60,3.0,110.0
19994,89.0,53,60,0.0,94.0
19995,92.0,0,60,0.0,94.0
19996,80.0,0,60,8.0,117.0
19997,70.0,0,60,5.0,104.0
19998,58.0,1,60,5.0,104.0
19999,80.0,0,60,1.0,98.0
20000,77.0,0,60,1.0,98.0
20001,65.0,1,60,4.0,107.0
20002,68.0,0,60,4.0,107.0
20003,77.0,0,60,10.0,112.0
20004,77.0,0,60,2.0,94.0
20005,80.0,0,60,2.0,94.0
20006,58.0,2,60,11.0,117.0
20007,46.0,1,60,12.0,117.0
20008,56.0,0,60,3.0,110.0
20009,46.0,1,60,6.0,122.0
20010,53.0,0,60,3.0,110.0
20011,34.0,1,60,13.0,127.0
20012,87.0,0,60,0.0,94.0
20013,91.0,0,60,0.0,94.0
20014,79.0,113,60,8.0,117.0
20015,70.0,0,60,5.0,104.0
20016,58.0,1,60,5.0,104.0
20017,79.0,0,60,1.0,98.0
20018,75.0,0,60,1.0,98.0
20019,75.0,1,60,10.0,112.0
20020,79.0,0,60,2.0,94.0
20021,67.0,0,60,4.0,107.0
20022,75.0,0,60,2.0,94.0
20023,63.0,0,60,4.0,107.0
20024,63.0,2,60,11.0,117.0
20025,51.0,1,60,12.0,117.0
20026,51.0,1,60,3.0,110.0
20027,55.0,0,60,3.0,110.0
20028,51.0,0,60,6.0,122.0
20029,39.0,1,60,13.0,127.0
20030,80.0,0,15,8.0,117.0
20031,80.0,1,15,1.0,98.0
20032,77.0,0,15,1.0,98.0
20033,77.0,1,15,10.0,112.0
20034,80.0,0,15,2.0,94.0
20035,77.0,0,15,2.0,94.0
20036,46.0,1,15,6.0,122.0
20037,82.0,8,15,8.0,117.0
20038,79.0,1,15,1.0,98.0
20039,82.0,0,15,1.0,98.0
20040,82.0,0,15,2.0,94.0
20041,79.0,1,15,10.0,112.0
20042,79.0,0,15,2.0,94.0
20043,45.0,4,15,6.0,122.0
20044,46.0,4,15,6.0,122.0
20045,45.0,15,15,6.0,122.0
20046,46.0,15,15,6.0,122.0
20047,45.0,15,15,6.0,122.0
20048,46.0,15,15,6.0,122.0
20049,80.0,9,90,8.0,117.0
20050,92.0,113,120,0.0,94.0
20051,89.0,0,120,0.0,94.0
20052,77.0,0,90,1.0,98.0
20053,80.0,1,90,1.0,98.0
20054,58.0,0,0,5.0,104.0
20055,70.0,0,120,5.0,104.0
20056,80.0,1,90,2.0,94.0
20057,77.0,0,90,10.0,112.0
20058,65.0,0,120,4.0,107.0
20059,68.0,0,120,4.0,107.0
20060,77.0,0,90,2.0,94.0
20061,58.0,2,120,11.0,117.0
20062,46.0,1,120,12.0,117.0
20063,53.0,0,120,3.0,110.0
20064,56.0,0,120,3.0,110.0
20065,45.0,15,15,6.0,122.0
20066,34.0,1,120,13.0,127.0
20067,70.0,0,45,5.0,104.0
20068,51.0,1,45,12.0,117.0
20069,51.0,0,45,6.0,122.0
20070,39.0,1,45,13.0,127.0
20071,79.0,9,60,8.0,117.0
20072,91.0,0,60,0.0,94.0
20073,87.0,0,60,0.0,94.0
20074,75.0,1,60,1.0,98.0
20075,79.0,0,60,1.0,98.0
20076,67.0,0,60,4.0,107.0
20077,63.0,0,60,4.0,107.0
20078,75.0,0,60,10.0,112.0
20079,75.0,1,60,2.0,94.0
20080,79.0,0,60,2.0,94.0
20081,63.0,2,60,11.0,117.0
20082,51.0,1,60,3.0,110.0
20083,55.0,0,60,3.0,110.0
20084,70.0,0,45,5.0,104.0
20085,58.0,0,45,5.0,104.0
20086,46.0,1,45,12.0,117.0
20087,46.0,1,45,6.0,122.0
20088,34.0,1,45,13.0,127.0
20089,89.0,53,60,0.0,94.0
20090,86.0,0,60,0.0,94.0
20091,77.0,0,60,8.0,117.0
20092,74.0,0,60,1.0,98.0
20093,77.0,1,60,1.0,98.0
20094,65.0,1,60,4.0,107.0
20095,77.0,0,60,2.0,94.0
20096,74.0,0,60,10.0,112.0
20097,74.0,0,60,2.0,94.0
20098,58.0,0,60,4.0,107.0
20099,58.0,2,60,11.0,117.0
20100,46.0,0,60,3.0,110.0
20101,53.0,0,60,3.0,110.0
20102,91.0,53,60,0.0,94.0
20103,87.0,0,60,0.0,94.0
20104,70.0,0,60,8.0,117.0
20105,63.0,0,60,8.0,117.0
20106,79.0,0,60,8.0,117.0
20107,75.0,0,60,5.0,104.0
20108,79.0,0,60,1.0,98.0
20109,75.0,1,60,1.0,98.0
20110,63.0,0,60,5.0,104.0
20111,63.0,0,60,4.0,107.0
20112,67.0,0,60,4.0,107.0
20113,58.0,0,60,10.0,112.0
20114,79.0,1,60,2.0,94.0
20115,75.0,0,60,10.0,112.0
20116,67.0,0,60,10.0,112.0
20117,75.0,0,60,2.0,94.0
20118,63.0,2,60,11.0,117.0
20119,51.0,1,60,12.0,117.0
20120,51.0,0,60,6.0,122.0
20121,51.0,0,60,3.0,110.0
20122,55.0,1,60,3.0,110.0
20123,39.0,1,60,13.0,127.0
20124,86.0,0,60,0.0,94.0
20125,89.0,0,60,0.0,94.0
20126,62.0,0,60,8.0,117.0
20127,70.0,0,60,8.0,117.0
20128,77.0,113,60,8.0,117.0
20129,77.0,0,60,1.0,98.0
20130,70.0,1,60,5.0,104.0
20131,74.0,0,60,1.0,98.0
20132,58.0,0,60,5.0,104.0
20133,65.0,0,60,10.0,112.0
20134,58.0,1,60,10.0,112.0
20135,74.0,0,60,2.0,94.0
20136,58.0,0,60,4.0,107.0
20137,65.0,0,60,4.0,107.0
20138,77.0,0,60,2.0,94.0
20139,74.0,0,60,10.0,112.0
20140,58.0,2,60,11.0,117.0
20141,46.0,1,60,12.0,117.0
20142,53.0,0,60,3.0,110.0
20143,46.0,0,60,6.0,122.0
20144,46.0,1,60,3.0,110.0
20145,34.0,1,60,13.0,127.0
20146,87.0,0,60,0.0,94.0
20147,63.0,0,60,8.0,117.0
20148,70.0,0,60,8.0,117.0
20149,79.0,0,60,8.0,117.0
20150,91.0,113,60,0.0,94.0
20151,79.0,0,60,1.0,98.0
20152,63.0,0,60,5.0,104.0
20153,75.0,0,60,1.0,98.0
20154,75.0,1,60,5.0,104.0
20155,58.0,0,60,10.0,112.0
20156,75.0,0,60,10.0,112.0
20157,67.0,0,60,10.0,112.0
20158,63.0,0,60,4.0,107.0
20159,67.0,0,60,4.0,107.0
20160,75.0,1,60,2.0,94.0
20161,79.0,0,60,2.0,94.0
20162,63.0,2,60,11.0,117.0
20163,51.0,1,60,12.0,117.0
20164,55.0,0,60,3.0,110.0
20165,51.0,0,60,3.0,110.0
20166,51.0,1,60,6.0,122.0
20167,39.0,1,60,13.0,127.0
20168,62.0,0,60,8.0,117.0
20169,77.0,0,60,8.0,117.0
20170,86.0,0,60,0.0,94.0
20171,89.0,113,60,0.0,94.0
20172,70.0,0,60,8.0,117.0
20173,77.0,0,60,1.0,98.0
20174,74.0,0,60,1.0,98.0
20175,70.0,1,60,5.0,104.0
20176,58.0,0,60,5.0,104.0
20177,58.0,0,60,4.0,107.0
20178,74.0,0,60,2.0,94.0
20179,74.0,0,60,10.0,112.0
20180,58.0,0,60,10.0,112.0
20181,77.0,0,60,2.0,94.0
20182,65.0,1,60,4.0,107.0
20183,65.0,0,60,10.0,112.0
20184,58.0,2,60,11.0,117.0
20185,46.0,1,60,12.0,117.0
20186,53.0,1,60,3.0,110.0
20187,46.0,0,60,6.0,122.0
20188,46.0,0,60,3.0,110.0
20189,34.0,1,60,13.0,127.0
20190,86.0,113,120,0.0,94.0
20191,89.0,0,120,0.0,94.0
20192,70.0,0,120,8.0,117.0
20193,62.0,0,120,8.0,117.0
20194,70.0,0,120,5.0,104.0
20195,58.0,0,120,5.0,104.0
20196,77.0,1,120,1.0,98.0
20197,74.0,0,120,1.0,98.0
20198,58.0,0,120,4.0,107.0
20199,65.0,1,120,4.0,107.0
20200,74.0,0,120,2.0,94.0
20201,77.0,0,120,2.0,94.0
20202,46.0,1,120,6.0,122.0
20203,53.0,0,120,3.0,110.0
20204,46.0,0,120,3.0,110.0
20205,77.0,0,240,8.0,117.0
20206,74.0,0,240,10.0,112.0
20207,62.0,0,240,10.0,112.0
20208,58.0,2,0,11.0,117.0
20209,46.0,1,0,12.0,117.0
20210,34.0,1,240,13.0,127.0
20211,58.0,53,30,7.0,106.0
20212,53.0,30,30,7.0,106.0
20213,62.0,30,30,7.0,106.0
20214,58.0,30,30,7.0,106.0
20215,65.0,30,30,7.0,106.0
20216,62.0,30,30,7.0,106.0
20217,65.0,233,240,8.0,117.0
20218,62.0,1,0,10.0,112.0
20219,46.0,1,0,12.0,117.0
20220,34.0,2,240,13.0,127.0
20221,70.0,30,30,7.0,106.0
20222,65.0,23,30,7.0,106.0
20223,74.0,30,30,7.0,106.0
20224,68.0,0,120,8.0,117.0
20225,70.0,30,30,7.0,106.0
20226,58.0,2,120,11.0,117.0
20227,34.0,2,120,13.0,127.0
20228,77.0,30,30,7.0,106.0
20229,74.0,30,30,7.0,106.0
20230,82.0,30,30,7.0,106.0
20231,77.0,30,30,7.0,106.0
20232,77.0,1,240,1.0,98.0
20233,74.0,0,240,2.0,94.0
20234,58.0,0,0,4.0,107.0
20235,86.0,30,30,7.0,106.0
20236,82.0,28,30,7.0,106.0
20237,89.0,30,30,7.0,106.0
20238,86.0,30,30,7.0,106.0
20239,94.0,60,0,7.0,106.0
20240,77.0,1,240,1.0,98.0
20241,74.0,1,240,2.0,94.0
20242,65.0,60,40,7.0,106.0
20243,62.0,33,40,7.0,106.0
20244,58.0,40,40,7.0,106.0
20245,94.0,0,120,7.0,106.0
20246,56.0,40,30,7.0,106.0
20247,53.0,30,30,7.0,106.0
20248,50.0,30,30,7.0,106.0
20249,46.0,30,30,7.0,106.0
20250,65.0,0,0,8.0,117.0
20251,62.0,2,0,10.0,112.0
20252,58.0,2,240,11.0,117.0
20253,56.0,1,0,12.0,117.0
20254,44.0,2,240,13.0,127.0
20255,58.0,53,30,7.0,106.0
20256,53.0,30,30,7.0,106.0
20257,44.0,30,120,7.0,106.0
20258,62.0,30,30,7.0,106.0
20259,58.0,30,30,7.0,106.0
20260,65.0,30,30,7.0,106.0
20261,62.0,30,30,7.0,106.0
20262,58.0,2,0,11.0,117.0
20263,56.0,1,0,12.0,117.0
20264,44.0,1,0,13.0,127.0
20265,70.0,30,30,7.0,106.0
20266,65.0,23,30,7.0,106.0
20267,74.0,30,30,7.0,106.0
20268,70.0,30,30,7.0,106.0
20269,65.0,0,120,8.0,117.0
20270,62.0,1,120,10.0,112.0
20271,77.0,30,30,7.0,106.0
20272,74.0,30,30,7.0,106.0
20273,82.0,30,30,7.0,106.0
20274,77.0,30,30,7.0,106.0
20275,77.0,1,240,1.0,98.0
20276,58.0,0,240,4.0,107.0
20277,74.0,0,240,2.0,94.0
20278,56.0,4,0,3.0,110.0
20279,86.0,30,30,7.0,106.0
20280,82.0,24,30,7.0,106.0
20281,89.0,30,30,7.0,106.0
20282,86.0,30,30,7.0,106.0
20283,94.0,30,30,7.0,106.0
20284,89.0,30,30,7.0,106.0
20285,98.0,30,30,7.0,106.0
20286,94.0,30,30,7.0,106.0
20287,77.0,1,240,1.0,98.0
20288,58.0,1,240,4.0,107.0
20289,74.0,0,240,2.0,94.0
20290,67.0,0,40,7.0,106.0
20291,63.0,33,40,7.0,106.0
20292,58.0,40,40,7.0,106.0
20293,99.0,0,120,7.0,106.0
20294,55.0,40,40,7.0,106.0
20295,51.0,40,40,7.0,106.0
20296,67.0,30,240,8.0,117.0
20297,46.0,40,40,7.0,106.0
20298,63.0,2,240,10.0,112.0
20299,58.0,2,240,11.0,117.0
20300,55.0,1,0,12.0,117.0
20301,43.0,2,240,13.0,127.0
20302,58.0,53,30,7.0,106.0
20303,43.0,0,120,7.0,106.0
20304,55.0,30,30,7.0,106.0
20305,63.0,30,30,7.0,106.0
20306,58.0,30,30,7.0,106.0
20307,67.0,30,30,7.0,106.0
20308,67.0,40,240,8.0,117.0
20309,63.0,30,30,7.0,106.0
20310,63.0,2,240,10.0,112.0
20311,58.0,2,240,11.0,117.0
20312,55.0,1,0,12.0,117.0
20313,43.0,1,0,13.0,127.0
20314,70.0,0,30,7.0,106.0
20315,67.0,23,30,7.0,106.0
20316,75.0,30,30,7.0,106.0
20317,67.0,30,120,8.0,117.0
20318,70.0,30,30,7.0,106.0
20319,63.0,0,120,10.0,112.0
20320,58.0,2,120,11.0,117.0
20321,79.0,30,30,7.0,106.0
20322,75.0,30,30,7.0,106.0
20323,82.0,30,30,7.0,106.0
20324,79.0,30,30,7.0,106.0
20325,79.0,1,240,1.0,98.0
20326,58.0,1,0,4.0,107.0
20327,75.0,0,0,2.0,94.0
20328,55.0,1,240,3.0,110.0
20329,87.0,30,30,7.0,106.0
20330,82.0,24,30,7.0,106.0
20331,91.0,30,30,7.0,106.0
20332,87.0,30,30,7.0,106.0
20333,94.0,30,30,7.0,106.0
20334,91.0,30,30,7.0,106.0
20335,99.0,30,30,7.0,106.0
20336,91.0,30,30,7.0,106.0
20337,79.0,1,240,1.0,98.0
20338,55.0,4,240,3.0,110.0
20339,53.0,30,30,7.0,106.0
20340,56.0,23,30,7.0,106.0
20341,58.0,30,30,7.0,106.0
20342,92.0,30,0,7.0,127.0
20343,62.0,30,30,7.0,106.0
20344,68.0,0,120,8.0,117.0
20345,62.0,2,120,10.0,112.0
20346,58.0,2,120,11.0,117.0
20347,53.0,1,120,12.0,117.0
20348,41.0,2,120,13.0,127.0
20349,53.0,0,30,7.0,106.0
20350,56.0,30,30,7.0,106.0
20351,58.0,30,30,7.0,106.0
20352,62.0,30,30,7.0,106.0
20353,53.0,30,30,7.0,106.0
20354,56.0,30,30,7.0,106.0
20355,58.0,30,30,7.0,106.0
20356,80.0,0,240,7.0,127.0
20357,62.0,30,30,7.0,106.0
20358,53.0,30,30,7.0,106.0
20359,79.0,0,45,7.0,106.0
20360,91.0,0,45,7.0,106.0
20361,56.0,30,30,7.0,106.0
20362,58.0,0,30,7.0,106.0
20363,77.0,30,45,7.0,106.0
20364,89.0,0,45,7.0,106.0
20365,62.0,30,30,7.0,106.0
20366,53.0,0,30,7.0,106.0
20367,77.0,0,45,7.0,106.0
20368,89.0,30,45,7.0,106.0
20369,56.0,30,30,7.0,106.0
20370,58.0,0,30,7.0,106.0
20371,75.0,30,45,7.0,106.0
20372,87.0,0,45,7.0,106.0
20373,62.0,30,30,7.0,106.0
20374,53.0,0,30,7.0,106.0
20375,86.0,0,45,7.0,106.0
20376,74.0,30,45,7.0,106.0
20377,56.0,30,30,7.0,106.0
20378,58.0,30,30,7.0,106.0
20379,72.0,0,45,7.0,106.0
20380,84.0,0,45,7.0,106.0
20381,62.0,30,30,7.0,106.0
20382,58.0,0,30,7.0,106.0
20383,82.0,0,45,7.0,106.0
20384,70.0,30,60,8.0,117.0
20385,70.0,30,30,7.0,106.0
20386,57.0,0,30,7.0,106.0
20387,81.0,0,45,7.0,106.0
20388,69.0,30,30,7.0,106.0
20389,69.0,30,60,8.0,117.0
20390,56.0,0,30,7.0,106.0
20391,80.0,30,45,7.0,106.0
20392,68.0,0,60,8.0,117.0
20393,68.0,30,30,7.0,106.0
20394,55.0,0,30,7.0,106.0
20395,79.0,30,45,7.0,106.0
20396,67.0,0,60,8.0,117.0
20397,67.0,30,30,7.0,106.0
20398,53.0,0,30,7.0,106.0
20399,77.0,0,45,7.0,106.0
20400,65.0,28,30,7.0,106.0
20401,65.0,30,60,8.0,117.0
20402,65.0,2,60,10.0,112.0
20403,51.0,0,30,7.0,106.0
20404,75.0,30,45,7.0,106.0
20405,63.0,28,30,7.0,106.0
20406,63.0,2,60,10.0,112.0
20407,50.0,30,30,7.0,106.0
20408,74.0,0,45,7.0,106.0
20409,62.0,28,30,7.0,106.0
20410,62.0,2,60,10.0,112.0
20411,48.0,30,30,7.0,106.0
20412,72.0,0,45,7.0,106.0
20413,60.0,28,30,7.0,106.0
20414,60.0,2,60,10.0,112.0
20415,46.0,30,30,7.0,106.0
20416,70.0,0,45,7.0,106.0
20417,58.0,26,30,7.0,106.0
20418,58.0,2,60,10.0,112.0
20419,58.0,2,60,11.0,117.0
20420,45.0,0,30,7.0,106.0
20421,69.0,30,45,7.0,106.0
20422,57.0,26,30,7.0,106.0
20423,57.0,4,60,11.0,117.0
20424,44.0,0,30,7.0,106.0
20425,68.0,30,45,7.0,106.0
20426,56.0,26,30,7.0,106.0
20427,56.0,4,60,11.0,117.0
20428,43.0,0,30,7.0,106.0
20429,67.0,30,45,7.0,106.0
20430,55.0,26,30,7.0,106.0
20431,55.0,4,60,11.0,117.0
20432,41.0,0,30,7.0,106.0
20433,65.0,30,30,7.0,106.0
20434,63.0,25,30,7.0,106.0
20435,53.0,0,30,7.0,106.0
20436,53.0,4,60,11.0,117.0
20437,53.0,1,60,12.0,117.0
20438,62.0,30,30,7.0,106.0
20439,39.0,0,30,7.0,106.0
20440,60.0,25,30,7.0,106.0
20441,51.0,0,30,7.0,106.0
20442,51.0,5,60,12.0,117.0
20443,38.0,30,30,7.0,106.0
20444,58.0,0,30,7.0,106.0
20445,50.0,0,30,7.0,106.0
20446,60.0,25,30,7.0,106.0
20447,50.0,5,60,12.0,117.0
20448,58.0,30,30,7.0,106.0
20449,36.0,0,30,7.0,106.0
20450,57.0,25,30,7.0,106.0
20451,48.0,0,30,7.0,106.0
20452,48.0,5,60,12.0,117.0
20453,58.0,0,30,7.0,106.0
20454,34.0,30,30,7.0,106.0
20455,46.0,23,30,7.0,106.0
20456,60.0,0,30,7.0,106.0
20457,70.0,0,60,8.0,117.0
20458,58.0,2,60,10.0,112.0
20459,46.0,3,60,12.0,117.0
20460,46.0,2,60,13.0,127.0
20461,44.0,0,30,7.0,106.0
20462,62.0,30,30,7.0,106.0
20463,56.0,0,30,7.0,106.0
20464,63.0,23,30,7.0,106.0
20465,68.0,0,60,8.0,117.0
20466,56.0,2,60,10.0,112.0
20467,56.0,3,60,12.0,117.0
20468,44.0,2,60,13.0,127.0
20469,65.0,0,20,7.0,106.0
20470,43.0,0,30,7.0,106.0
20471,67.0,13,20,7.0,106.0
20472,55.0,10,30,7.0,106.0
20473,68.0,10,20,7.0,106.0
20474,67.0,30,60,8.0,117.0
20475,55.0,2,60,10.0,112.0
20476,55.0,3,60,12.0,117.0
20477,43.0,2,60,13.0,127.0
20478,70.0,20,20,7.0,106.0
20479,41.0,0,30,7.0,106.0
20480,72.0,13,20,7.0,106.0
20481,53.0,10,30,7.0,106.0
20482,65.0,0,60,8.0,117.0
20483,74.0,10,20,7.0,106.0
20484,65.0,2,60,10.0,112.0
20485,53.0,3,60,12.0,117.0
20486,41.0,2,60,13.0,127.0
20487,39.0,0,30,7.0,106.0
20488,51.0,20,30,7.0,106.0
20489,75.0,0,45,7.0,106.0
20490,67.0,0,45,7.0,106.0
20491,63.0,33,30,7.0,106.0
20492,77.0,20,20,7.0,106.0
20493,75.0,0,20,7.0,106.0
20494,62.0,20,30,7.0,106.0
20495,63.0,0,120,8.0,117.0
20496,74.0,20,20,7.0,106.0
20497,63.0,2,120,10.0,112.0
20498,51.0,2,120,11.0,117.0
20499,51.0,1,120,12.0,117.0
20500,39.0,2,120,13.0,127.0
20501,61.0,20,30,7.0,106.0
20502,75.0,0,45,7.0,106.0
20503,60.0,40,30,7.0,106.0
20504,74.0,0,45,7.0,106.0
20505,77.0,20,45,7.0,106.0
20506,59.0,20,30,7.0,106.0
20507,58.0,40,30,7.0,106.0
20508,57.0,40,30,7.0,106.0
20509,56.0,40,30,7.0,106.0
20510,55.0,40,30,7.0,106.0
20511,75.0,1,45,1.0,98.0
20512,70.0,1,45,2.0,94.0
20513,55.0,0,45,4.0,107.0
20514,63.0,0,45,4.0,107.0
20515,75.0,0,60,8.0,117.0
20516,63.0,0,60,10.0,112.0
20517,51.0,2,60,11.0,117.0
20518,63.0,1,60,12.0,117.0
20519,51.0,2,60,13.0,127.0
20520,54.0,33,30,7.0,106.0
20521,77.0,1,45,1.0,98.0
20522,74.0,0,45,2.0,94.0
20523,58.0,0,45,4.0,107.0
20524,65.0,1,45,4.0,107.0
20525,53.0,13,30,7.0,106.0
20526,70.0,20,60,8.0,117.0
20527,75.0,0,240,7.0,127.0
20528,79.0,0,0,7.0,106.0
20529,58.0,0,60,10.0,112.0
20530,58.0,2,60,11.0,117.0
20531,58.0,1,60,12.0,117.0
20532,46.0,2,60,13.0,127.0
20533,51.0,40,30,7.0,106.0
20534,75.0,0,45,7.0,106.0
20535,63.0,33,30,7.0,106.0
20536,77.0,20,20,7.0,106.0
20537,80.0,0,20,7.0,106.0
20538,75.0,0,20,7.0,106.0
20539,79.0,0,20,7.0,106.0
20540,62.0,20,30,7.0,106.0
20541,74.0,0,20,7.0,106.0
20542,77.0,20,20,7.0,106.0
20543,75.0,0,120,8.0,117.0
20544,79.0,1,120,1.0,98.0
20545,63.0,1,120,4.0,107.0
20546,67.0,0,120,4.0,107.0
20547,63.0,0,120,10.0,112.0
20548,75.0,0,120,2.0,94.0
20549,51.0,2,120,11.0,117.0
20550,63.0,1,120,12.0,117.0
20551,51.0,2,120,13.0,127.0
20552,61.0,20,30,7.0,106.0
20553,79.0,0,45,7.0,106.0
20554,75.0,0,45,7.0,106.0
20555,60.0,40,30,7.0,106.0
20556,77.0,0,45,7.0,106.0
20557,80.0,20,45,7.0,106.0
20558,59.0,20,30,7.0,106.0
20559,58.0,40,30,7.0,106.0
20560,57.0,40,30,7.0,106.0
20561,56.0,40,30,7.0,106.0
20562,55.0,0,30,7.0,106.0
20563,79.0,1,45,1.0,98.0
20564,63.0,0,45,4.0,107.0
20565,67.0,0,45,4.0,107.0
20566,75.0,1,45,2.0,94.0
20567,75.0,40,60,8.0,117.0
20568,63.0,0,60,10.0,112.0
20569,51.0,2,60,11.0,117.0
20570,63.0,1,60,12.0,117.0
20571,51.0,2,60,13.0,127.0
20572,54.0,33,30,7.0,106.0
20573,80.0,1,45,1.0,98.0
20574,68.0,1,45,4.0,107.0
20575,65.0,0,45,4.0,107.0
20576,77.0,0,45,2.0,94.0
20577,53.0,13,30,7.0,106.0
20578,79.0,0,240,7.0,127.0
20579,82.0,0,240,7.0,127.0
20580,63.0,20,60,8.0,117.0
20581,63.0,0,60,10.0,112.0
20582,63.0,2,60,11.0,117.0
20583,51.0,1,60,12.0,117.0
20584,39.0,2,60,13.0,127.0
20585,51.0,0,30,7.0,106.0
20586,87.0,40,45,7.0,106.0
20587,75.0,0,45,7.0,106.0
20588,63.0,33,30,7.0,106.0
20589,89.0,20,20,7.0,106.0
20590,87.0,0,20,7.0,106.0
20591,62.0,20,30,7.0,106.0
20592,86.0,20,20,7.0,106.0
20593,75.0,0,120,8.0,117.0
20594,82.0,1,120,1.0,98.0
20595,63.0,0,120,10.0,112.0
20596,79.0,1,120,2.0,94.0
20597,70.0,0,120,4.0,107.0
20598,67.0,0,120,4.0,107.0
20599,51.0,2,120,11.0,117.0
20600,63.0,1,120,12.0,117.0
20601,51.0,2,120,13.0,127.0
20602,61.0,0,30,7.0,106.0
20603,87.0,20,45,7.0,106.0
20604,60.0,40,30,7.0,106.0
20605,89.0,20,45,7.0,106.0
20606,59.0,20,30,7.0,106.0
20607,58.0,0,30,7.0,106.0
20608,87.0,40,60,7.0,106.0
20609,91.0,0,60,7.0,106.0
20610,57.0,40,30,7.0,106.0
20611,92.0,20,20,7.0,106.0
20612,89.0,0,20,7.0,106.0
20613,87.0,0,20,7.0,106.0
20614,91.0,0,20,7.0,106.0
20615,56.0,20,30,7.0,106.0
20616,89.0,20,20,7.0,106.0
20617,86.0,0,20,7.0,106.0
20618,55.0,20,30,7.0,106.0
20619,87.0,0,45,7.0,106.0
20620,91.0,0,45,7.0,106.0
20621,54.0,40,30,7.0,106.0
20622,92.0,0,45,7.0,106.0
20623,89.0,20,45,7.0,106.0
20624,53.0,20,30,7.0,106.0
20625,51.0,0,30,7.0,106.0
20626,96.0,0,60,7.0,106.0
20627,92.0,40,60,7.0,106.0
20628,55.0,30,30,7.0,106.0
20629,58.0,30,30,7.0,106.0
20630,94.0,0,60,7.0,106.0
20631,63.0,30,30,7.0,106.0
20632,91.0,0,60,7.0,106.0
20633,51.0,0,30,7.0,106.0
20634,92.0,0,45,7.0,106.0
20635,89.0,30,45,7.0,106.0
20636,55.0,23,30,7.0,106.0
20637,58.0,30,30,7.0,106.0
20638,87.0,0,45,7.0,106.0
20639,91.0,0,45,7.0,106.0
20640,63.0,0,120,8.0,117.0
20641,63.0,30,30,7.0,106.0
20642,51.0,4,120,11.0,117.0
20643,51.0,1,120,12.0,117.0
20644,39.0,2,120,13.0,127.0
20645,53.0,0,30,7.0,106.0
20646,87.0,0,60,7.0,106.0
20647,91.0,30,60,7.0,106.0
20648,56.0,23,30,7.0,106.0
20649,61.0,0,30,7.0,106.0
20650,85.0,30,60,7.0,106.0
20651,65.0,0,120,8.0,117.0
20652,89.0,0,60,7.0,106.0
20653,65.0,30,30,7.0,106.0
20654,53.0,4,120,11.0,117.0
20655,53.0,1,120,12.0,117.0
20656,41.0,2,120,13.0,127.0
20657,55.0,0,30,7.0,106.0
20658,84.0,0,45,7.0,106.0
20659,87.0,30,45,7.0,106.0
20660,58.0,23,30,7.0,106.0
20661,63.0,30,30,7.0,106.0
20662,85.0,0,45,7.0,106.0
20663,82.0,0,45,7.0,106.0
20664,67.0,0,120,8.0,117.0
20665,67.0,30,30,7.0,106.0
20666,55.0,2,120,10.0,112.0
20667,55.0,2,120,11.0,117.0
20668,55.0,1,120,12.0,117.0
20669,43.0,2,120,13.0,127.0
20670,56.0,0,30,7.0,106.0
20671,77.0,0,45,7.0,106.0
20672,80.0,30,45,7.0,106.0
20673,68.0,33,30,7.0,106.0
20674,82.0,20,20,7.0,106.0
20675,80.0,0,20,7.0,106.0
20676,67.0,20,30,7.0,106.0
20677,79.0,20,20,7.0,106.0
20678,68.0,0,120,8.0,117.0
20679,56.0,2,120,10.0,112.0
20680,56.0,2,120,11.0,117.0
20681,56.0,1,120,12.0,117.0
20682,44.0,2,120,13.0,127.0
20683,66.0,0,30,7.0,106.0
20684,80.0,20,45,7.0,106.0
20685,72.0,0,45,7.0,106.0
20686,65.0,40,30,7.0,106.0
20687,82.0,0,45,7.0,106.0
20688,75.0,20,45,7.0,106.0
20689,64.0,20,30,7.0,106.0
20690,63.0,40,30,7.0,106.0
20691,62.0,40,30,7.0,106.0
20692,61.0,40,30,7.0,106.0
20693,60.0,0,30,7.0,106.0
20694,68.0,0,45,2.0,94.0
20695,56.0,1,45,3.0,110.0
20696,68.0,40,60,8.0,117.0
20697,56.0,2,60,10.0,112.0
20698,56.0,2,60,11.0,117.0
20699,56.0,1,60,12.0,117.0
20700,44.0,1,60,13.0,127.0
20701,59.0,33,30,7.0,106.0
20702,70.0,2,45,2.0,94.0
20703,67.0,0,45,2.0,94.0
20704,58.0,13,30,7.0,106.0
20705,58.0,0,45,3.0,110.0
20706,51.0,1,45,3.0,110.0
20707,80.0,40,0,7.0,106.0
20708,84.0,0,240,7.0,127.0
20709,63.0,20,60,8.0,117.0
20710,63.0,0,60,10.0,112.0
20711,51.0,2,60,11.0,117.0
20712,51.0,1,60,12.0,117.0
20713,39.0,1,60,13.0,127.0
20714,56.0,0,30,7.0,106.0
20715,84.0,0,45,7.0,106.0
20716,68.0,33,30,7.0,106.0
20717,82.0,0,20,7.0,106.0
20718,85.0,20,20,7.0,106.0
20719,80.0,0,20,7.0,106.0
20720,84.0,0,20,7.0,106.0
20721,67.0,20,30,7.0,106.0
20722,68.0,0,120,8.0,117.0
20723,79.0,20,20,7.0,106.0
20724,82.0,0,20,7.0,106.0
20725,56.0,0,120,10.0,112.0
20726,68.0,2,120,2.0,94.0
20727,72.0,0,120,2.0,94.0
20728,56.0,2,120,11.0,117.0
20729,56.0,1,120,12.0,117.0
20730,60.0,1,120,3.0,110.0
20731,56.0,0,120,3.0,110.0
20732,44.0,1,120,13.0,127.0
20733,66.0,0,30,7.0,106.0
20734,84.0,0,45,7.0,106.0
20735,80.0,20,45,7.0,106.0
20736,65.0,40,30,7.0,106.0
20737,82.0,0,45,7.0,106.0
20738,85.0,20,45,7.0,106.0
20739,64.0,20,30,7.0,106.0
20740,63.0,0,30,7.0,106.0
20741,62.0,40,30,7.0,106.0
20742,61.0,40,30,7.0,106.0
20743,60.0,40,30,7.0,106.0
20744,72.0,2,45,2.0,94.0
20745,68.0,0,45,2.0,94.0
20746,56.0,1,45,3.0,110.0
20747,60.0,0,45,3.0,110.0
20748,68.0,0,60,8.0,117.0
20749,56.0,0,60,10.0,112.0
20750,68.0,2,60,11.0,117.0
20751,56.0,1,60,12.0,117.0
20752,44.0,1,60,13.0,127.0
20753,59.0,33,30,7.0,106.0
20754,73.0,2,45,2.0,94.0
20755,70.0,0,45,2.0,94.0
20756,58.0,13,30,7.0,106.0
20757,58.0,1,45,3.0,110.0
20758,61.0,0,45,3.0,110.0
20759,56.0,20,60,8.0,117.0
20760,87.0,0,240,7.0,127.0
20761,84.0,40,240,7.0,127.0
20762,56.0,0,60,10.0,112.0
20763,56.0,2,60,11.0,117.0
20764,44.0,1,60,12.0,117.0
20765,32.0,1,60,13.0,127.0
20766,56.0,0,30,7.0,106.0
20767,72.0,0,45,7.0,106.0
20768,80.0,0,45,7.0,106.0
20769,56.0,33,30,7.0,106.0
20770,82.0,20,20,7.0,106.0
20771,80.0,0,20,7.0,106.0
20772,55.0,20,30,7.0,106.0
20773,79.0,20,20,7.0,106.0
20774,68.0,40,120,8.0,117.0
20775,72.0,0,120,2.0,94.0
20776,75.0,2,120,2.0,94.0
20777,56.0,0,120,10.0,112.0
20778,68.0,2,120,11.0,117.0
20779,56.0,1,120,12.0,117.0
20780,63.0,0,120,3.0,110.0
20781,60.0,1,120,3.0,110.0
20782,44.0,1,120,13.0,127.0
20783,54.0,20,30,7.0,106.0
20784,80.0,0,45,7.0,106.0
20785,53.0,40,30,7.0,106.0
20786,82.0,20,45,7.0,106.0
20787,52.0,20,30,7.0,106.0
20788,51.0,0,30,7.0,106.0
20789,84.0,0,60,7.0,106.0
20790,80.0,40,60,7.0,106.0
20791,50.0,40,30,7.0,106.0
20792,85.0,0,20,7.0,106.0
20793,82.0,20,20,7.0,106.0
20794,84.0,20,20,7.0,106.0
20795,80.0,0,20,7.0,106.0
20796,49.0,0,30,7.0,106.0
20797,79.0,0,20,7.0,106.0
20798,82.0,20,20,7.0,106.0
20799,48.0,0,30,7.0,106.0
20800,80.0,20,45,7.0,106.0
20801,84.0,0,45,7.0,106.0
20802,47.0,40,30,7.0,106.0
20803,85.0,20,45,7.0,106.0
20804,82.0,0,45,7.0,106.0
20805,46.0,20,30,7.0,106.0
20806,44.0,0,30,7.0,106.0
20807,84.0,0,60,7.0,106.0
20808,87.0,40,60,7.0,106.0
20809,48.0,30,30,7.0,106.0
20810,89.0,30,20,7.0,106.0
20811,51.0,0,30,7.0,106.0
20812,87.0,20,20,7.0,106.0
20813,86.0,10,20,7.0,106.0
20814,56.0,10,30,7.0,106.0
20815,48.0,0,30,7.0,106.0
20816,87.0,20,45,7.0,106.0
20817,51.0,30,30,7.0,106.0
20818,56.0,0,30,7.0,106.0
20819,91.0,0,45,7.0,106.0
20820,82.0,30,45,7.0,106.0
20821,60.0,30,30,7.0,106.0
20822,51.0,0,30,7.0,106.0
20823,92.0,0,45,7.0,106.0
20824,84.0,30,45,7.0,106.0
20825,56.0,30,30,7.0,106.0
20826,60.0,0,30,7.0,106.0
20827,91.0,30,45,7.0,106.0
20828,94.0,0,45,7.0,106.0
20829,63.0,30,30,7.0,106.0
20830,56.0,0,30,7.0,106.0
20831,96.0,30,45,7.0,106.0
20832,92.0,0,45,7.0,106.0
20833,60.0,30,30,7.0,106.0
20834,63.0,0,30,7.0,106.0
20835,96.0,0,45,7.0,106.0
20836,92.0,30,45,7.0,106.0
20837,68.0,30,30,7.0,106.0
20838,53.0,0,30,7.0,106.0
20839,96.0,0,45,7.0,106.0
20840,92.0,0,45,7.0,106.0
20841,65.0,33,30,7.0,106.0
20842,82.0,20,20,7.0,106.0
20843,80.0,0,20,7.0,106.0
20844,64.0,20,30,7.0,106.0
20845,65.0,30,120,8.0,117.0
20846,79.0,20,20,7.0,106.0
20847,60.0,2,120,10.0,112.0
20848,53.0,2,120,11.0,117.0
20849,53.0,1,120,12.0,117.0
20850,41.0,2,120,13.0,127.0
20851,63.0,20,30,7.0,106.0
20852,80.0,0,45,7.0,106.0
20853,62.0,40,30,7.0,106.0
20854,82.0,20,45,7.0,106.0
20855,79.0,0,45,7.0,106.0
20856,61.0,20,30,7.0,106.0
20857,60.0,0,30,7.0,106.0
20858,59.0,40,30,7.0,106.0
20859,58.0,40,30,7.0,106.0
20860,57.0,40,30,7.0,106.0
20861,65.0,0,60,8.0,117.0
20862,77.0,1,60,1.0,98.0
20863,65.0,1,60,2.0,94.0
20864,60.0,1,0,10.0,112.0
20865,53.0,2,60,11.0,117.0
20866,53.0,1,60,12.0,117.0
20867,53.0,1,60,3.0,110.0
20868,41.0,1,60,13.0,127.0
20869,56.0,33,30,7.0,106.0
20870,55.0,13,30,7.0,106.0
20871,60.0,20,60,8.0,117.0
20872,80.0,0,240,7.0,127.0
20873,84.0,40,240,7.0,127.0
20874,79.0,1,60,1.0,98.0
20875,60.0,1,0,10.0,112.0
20876,67.0,0,60,2.0,94.0
20877,60.0,2,60,11.0,117.0
20878,48.0,1,60,12.0,117.0
20879,55.0,1,60,3.0,110.0
20880,36.0,1,60,13.0,127.0
20881,53.0,0,30,7.0,106.0
20882,80.0,40,45,7.0,127.0
20883,65.0,33,30,7.0,106.0
20884,91.0,20,20,7.0,106.0
20885,89.0,0,20,7.0,106.0
20886,64.0,20,30,7.0,106.0
20887,65.0,0,120,8.0,117.0
20888,88.0,20,20,7.0,106.0
20889,80.0,1,120,1.0,98.0
20890,68.0,0,120,2.0,94.0
20891,53.0,2,120,11.0,117.0
20892,53.0,1,120,12.0,117.0
20893,56.0,1,120,3.0,110.0
20894,41.0,1,120,13.0,127.0
20895,63.0,0,30,7.0,106.0
20896,89.0,20,45,7.0,106.0
20897,62.0,40,30,7.0,106.0
20898,91.0,20,45,7.0,106.0
20899,61.0,20,30,7.0,106.0
20900,60.0,0,30,7.0,106.0
20901,92.0,40,45,7.0,106.0
20902,58.0,40,30,7.0,106.0
20903,79.0,20,20,7.0,106.0
20904,77.0,20,20,7.0,106.0
20905,56.0,0,30,7.0,106.0
20906,76.0,20,20,7.0,106.0
20907,55.0,0,30,7.0,106.0
20908,77.0,0,45,7.0,106.0
20909,65.0,20,60,8.0,117.0
20910,77.0,1,60,1.0,98.0
20911,65.0,1,60,2.0,94.0
20912,53.0,2,60,11.0,117.0
20913,53.0,1,60,12.0,117.0
20914,53.0,1,60,3.0,110.0
20915,41.0,1,60,13.0,127.0
20916,53.0,33,30,7.0,106.0
20917,79.0,0,45,7.0,106.0
20918,51.0,13,30,7.0,106.0
20919,63.0,20,60,8.0,117.0
20920,79.0,1,60,1.0,98.0
20921,67.0,1,60,2.0,94.0
20922,51.0,2,60,11.0,117.0
20923,51.0,1,60,12.0,117.0
20924,55.0,1,60,3.0,110.0
20925,39.0,1,60,13.0,127.0
20926,50.0,40,30,7.0,106.0
20927,80.0,0,45,7.0,106.0
20928,53.0,23,30,7.0,106.0
20929,79.0,30,20,7.0,106.0
20930,56.0,0,30,7.0,106.0
20931,77.0,20,20,7.0,106.0
20932,76.0,10,20,7.0,106.0
20933,62.0,10,30,7.0,106.0
20934,62.0,0,120,8.0,117.0
20935,80.0,1,0,1.0,98.0
20936,68.0,1,120,2.0,94.0
20937,50.0,2,120,11.0,117.0
20938,50.0,1,120,12.0,117.0
20939,56.0,1,0,3.0,110.0
20940,38.0,1,120,13.0,127.0
20941,48.0,0,30,7.0,106.0
20942,77.0,0,45,7.0,106.0
20943,65.0,20,45,7.0,106.0
20944,60.0,0,60,8.0,117.0
20945,53.0,23,30,7.0,106.0
20946,68.0,1,60,2.0,94.0
20947,48.0,3,0,12.0,117.0
20948,56.0,1,0,3.0,110.0
20949,36.0,1,60,13.0,127.0
20950,56.0,0,30,7.0,106.0
20951,79.0,0,45,7.0,106.0
20952,67.0,0,45,7.0,106.0
20953,60.0,23,30,7.0,106.0
20954,60.0,30,60,8.0,117.0
20955,80.0,1,60,1.0,98.0
20956,68.0,1,0,2.0,94.0
20957,36.0,1,60,13.0,127.0
20958,46.0,0,30,7.0,106.0
20959,80.0,0,45,7.0,106.0
20960,68.0,0,45,7.0,106.0
20961,50.0,23,30,7.0,106.0
20962,53.0,0,30,7.0,106.0
20963,82.0,0,45,7.0,106.0
20964,70.0,30,45,7.0,106.0
20965,58.0,30,30,7.0,106.0
20966,58.0,30,120,8.0,117.0
20967,80.0,1,120,1.0,98.0
20968,68.0,1,0,2.0,94.0
20969,46.0,3,120,12.0,117.0
20970,56.0,1,0,3.0,110.0
20971,34.0,1,120,13.0,127.0
20972,47.0,30,30,7.0,106.0
20973,84.0,0,45,7.0,106.0
20974,72.0,0,45,7.0,106.0
20975,59.0,30,0,8.0,117.0
20976,50.0,23,30,7.0,106.0
20977,80.0,1,0,1.0,98.0
20978,68.0,1,0,2.0,94.0
20979,59.0,0,0,10.0,112.0
20980,59.0,2,60,11.0,117.0
20981,47.0,1,0,12.0,117.0
20982,35.0,1,60,13.0,127.0
20983,53.0,0,30,7.0,106.0
20984,86.0,0,45,7.0,106.0
20985,74.0,0,45,7.0,106.0
20986,59.0,23,30,7.0,106.0
20987,59.0,2,60,11.0,117.0
20988,56.0,1,60,3.0,110.0
20989,35.0,1,60,13.0,127.0
20990,75.0,0,60,7.0,106.0
20991,48.0,30,60,7.0,106.0
20992,87.0,0,60,7.0,106.0
20993,60.0,0,30,7.0,106.0
20994,60.0,0,120,8.0,117.0
20995,59.0,30,30,7.0,106.0
20996,79.0,1,120,1.0,98.0
20997,67.0,0,120,2.0,94.0
20998,60.0,1,120,10.0,112.0
20999,60.0,2,120,11.0,117.0
21000,48.0,1,120,12.0,117.0
21001,55.0,1,120,3.0,110.0
21002,36.0,1,120,13.0,127.0
21003,62.0,30,30,7.0,106.0
21004,99.0,53,120,7.0,106.0
21005,60.0,30,30,7.0,106.0
21006,87.0,0,120,7.0,106.0
21007,63.0,30,30,7.0,106.0
21008,62.0,30,30,7.0,106.0
21009,65.0,30,30,7.0,106.0
21010,63.0,30,30,7.0,106.0
21011,86.0,0,120,7.0,106.0
21012,98.0,0,120,7.0,106.0
21013,67.0,0,30,7.0,106.0
21014,66.0,30,30,7.0,106.0
21015,68.0,30,30,7.0,106.0
21016,85.0,0,120,7.0,106.0
21017,97.0,30,120,7.0,106.0
21018,67.0,30,30,7.0,106.0
21019,69.0,0,30,7.0,106.0
21020,68.0,30,30,7.0,106.0
21021,70.0,30,30,7.0,106.0
21022,96.0,0,120,7.0,106.0
21023,84.0,30,120,7.0,106.0
21024,69.0,30,30,7.0,106.0
21025,71.0,0,30,7.0,106.0
21026,70.0,30,30,7.0,106.0
21027,72.0,30,30,7.0,106.0
21028,95.0,30,120,7.0,106.0
21029,71.0,30,30,7.0,106.0
21030,83.0,0,120,7.0,106.0
21031,72.0,30,30,7.0,106.0
21032,71.0,30,30,7.0,106.0
21033,72.0,30,30,7.0,106.0
21034,71.0,30,30,7.0,106.0
21035,82.0,0,120,7.0,106.0
21036,94.0,0,120,7.0,106.0
21037,72.0,0,30,7.0,106.0
21038,81.0,30,45,7.0,106.0
21039,93.0,0,45,7.0,106.0
21040,71.0,30,30,7.0,106.0
21041,72.0,0,30,7.0,106.0
21042,80.0,30,45,7.0,106.0
21043,92.0,0,45,7.0,106.0
21044,72.0,0,60,8.0,117.0
21045,67.0,23,30,7.0,106.0
21046,79.0,1,0,1.0,98.0
21047,63.0,1,0,4.0,107.0
21048,67.0,1,60,4.0,107.0
21049,75.0,0,60,2.0,94.0
21050,60.0,0,0,10.0,112.0
21051,60.0,2,60,11.0,117.0
21052,60.0,1,60,12.0,117.0
21053,48.0,2,60,13.0,127.0
21054,63.0,30,30,7.0,106.0
21055,91.0,0,45,7.0,106.0
21056,79.0,0,45,7.0,106.0
21057,60.0,23,30,7.0,106.0
21058,60.0,0,60,8.0,117.0
21059,60.0,1,0,10.0,112.0
21060,63.0,0,0,4.0,107.0
21061,67.0,0,60,4.0,107.0
21062,75.0,0,0,2.0,94.0
21063,48.0,2,60,11.0,117.0
21064,48.0,1,60,12.0,117.0
21065,36.0,2,60,13.0,127.0
21066,56.0,30,60,7.0,106.0
21067,84.0,53,0,7.0,106.0
21068,96.0,0,60,7.0,106.0
21069,68.0,0,30,7.0,106.0
21070,67.0,30,30,7.0,106.0
21071,68.0,0,120,8.0,117.0
21072,84.0,1,120,1.0,98.0
21073,65.0,0,120,4.0,107.0
21074,56.0,2,120,11.0,117.0
21075,56.0,1,120,12.0,117.0
21076,44.0,2,120,13.0,127.0
21077,70.0,30,30,7.0,106.0
21078,96.0,0,120,7.0,106.0
21079,68.0,30,30,7.0,106.0
21080,72.0,0,30,7.0,106.0
21081,71.0,30,30,7.0,106.0
21082,74.0,30,30,7.0,106.0
21083,72.0,30,30,7.0,106.0
21084,83.0,30,120,7.0,106.0
21085,95.0,0,120,7.0,106.0
21086,76.0,0,30,7.0,106.0
21087,74.0,30,30,7.0,106.0
21088,77.0,30,30,7.0,106.0
21089,94.0,0,120,7.0,106.0
21090,82.0,30,120,7.0,106.0
21091,76.0,30,30,7.0,106.0
21092,78.0,0,30,7.0,106.0
21093,77.0,30,30,7.0,106.0
21094,79.0,30,30,7.0,106.0
21095,78.0,30,30,7.0,106.0
21096,93.0,0,120,7.0,106.0
21097,81.0,30,120,7.0,106.0
21098,80.0,30,30,7.0,106.0
21099,79.0,30,30,7.0,106.0
21100,80.0,30,30,7.0,106.0
21101,92.0,0,120,7.0,106.0
21102,79.0,30,30,7.0,106.0
21103,80.0,0,30,7.0,106.0
21104,79.0,30,30,7.0,106.0
21105,91.0,30,60,7.0,106.0
21106,80.0,30,30,7.0,106.0
21107,94.0,0,60,7.0,106.0
21108,77.0,30,30,7.0,106.0
21109,72.0,30,30,7.0,106.0
21110,92.0,0,60,7.0,106.0
21111,68.0,30,30,7.0,106.0
21112,80.0,0,30,7.0,106.0
21113,91.0,0,45,7.0,106.0
21114,77.0,23,30,7.0,106.0
21115,68.0,30,60,8.0,117.0
21116,84.0,1,0,1.0,98.0
21117,65.0,0,0,4.0,107.0
21118,63.0,1,0,4.0,107.0
21119,75.0,0,0,2.0,94.0
21120,68.0,0,60,10.0,112.0
21121,56.0,2,0,11.0,117.0
21122,56.0,1,60,12.0,117.0
21123,44.0,2,60,13.0,127.0
21124,72.0,30,30,7.0,106.0
21125,89.0,0,45,7.0,106.0
21126,68.0,23,30,7.0,106.0
21127,56.0,0,60,8.0,117.0
21128,56.0,0,60,10.0,112.0
21129,44.0,1,60,12.0,117.0
21130,32.0,2,60,13.0,127.0
21131,70.0,0,60,7.0,106.0
21132,79.0,1,60,1.0,98.0
21133,82.0,0,30,7.0,106.0
21134,94.0,53,30,7.0,106.0
21135,58.0,30,120,8.0,117.0
21136,91.0,24,30,7.0,106.0
21137,79.0,0,30,7.0,106.0
21138,58.0,1,120,10.0,112.0
21139,63.0,0,120,4.0,107.0
21140,75.0,0,120,2.0,94.0
21141,67.0,0,120,4.0,107.0
21142,58.0,2,120,11.0,117.0
21143,46.0,1,120,12.0,117.0
21144,34.0,2,120,13.0,127.0
21145,94.0,0,30,7.0,106.0
21146,82.0,30,30,7.0,106.0
21147,79.0,0,30,7.0,106.0
21148,91.0,30,30,7.0,106.0
21149,82.0,1,120,1.0,98.0
21150,67.0,5,120,3.0,110.0
21151,75.0,30,30,7.0,106.0
21152,87.0,0,30,7.0,106.0
21153,79.0,0,30,7.0,106.0
21154,91.0,24,30,7.0,106.0
21155,75.0,0,30,7.0,106.0
21156,87.0,30,30,7.0,106.0
21157,79.0,0,30,7.0,106.0
21158,91.0,30,30,7.0,106.0
21159,82.0,1,120,1.0,98.0
21160,67.0,5,120,3.0,110.0
21161,70.0,0,30,7.0,106.0
21162,82.0,30,30,7.0,106.0
21163,75.0,0,30,7.0,106.0
21164,87.0,24,30,7.0,106.0
21165,70.0,30,30,7.0,106.0
21166,82.0,0,30,7.0,106.0
21167,87.0,30,30,7.0,106.0
21168,75.0,0,30,7.0,106.0
21169,80.0,1,120,1.0,98.0
21170,65.0,5,120,3.0,110.0
21171,79.0,0,30,7.0,106.0
21172,67.0,30,30,7.0,106.0
21173,70.0,24,30,7.0,106.0
21174,82.0,0,30,7.0,106.0
21175,79.0,1,0,1.0,98.0
21176,63.0,5,60,3.0,110.0
21177,67.0,0,30,7.0,106.0
21178,79.0,30,30,7.0,106.0
21179,70.0,0,30,7.0,106.0
21180,82.0,24,30,7.0,106.0
21181,63.0,30,30,7.0,106.0
21182,75.0,0,30,7.0,106.0
21183,79.0,0,30,7.0,106.0
21184,67.0,30,30,7.0,106.0
21185,75.0,0,30,7.0,106.0
21186,63.0,30,30,7.0,106.0
21187,67.0,30,30,7.0,106.0
21188,79.0,0,30,7.0,106.0
21189,58.0,30,30,7.0,106.0
21190,70.0,0,30,7.0,106.0
21191,63.0,0,30,7.0,106.0
21192,75.0,30,30,7.0,106.0
21193,58.0,30,30,7.0,106.0
21194,70.0,0,30,7.0,106.0
21195,75.0,0,30,7.0,106.0
21196,63.0,30,30,7.0,106.0
21197,67.0,0,30,7.0,106.0
21198,55.0,30,30,7.0,106.0
21199,70.0,0,30,7.0,106.0
21200,58.0,30,30,7.0,106.0
21201,55.0,0,30,7.0,106.0
21202,67.0,0,30,7.0,106.0
21203,58.0,23,30,7.0,106.0
21204,70.0,0,30,7.0,106.0
21205,70.0,30,60,8.0,117.0
21206,70.0,2,60,10.0,112.0
21207,58.0,2,60,11.0,117.0
21208,58.0,1,60,12.0,117.0
21209,46.0,2,60,13.0,127.0
21210,63.0,0,30,7.0,106.0
21211,51.0,30,30,7.0,106.0
21212,58.0,0,60,8.0,117.0
21213,67.0,23,30,7.0,106.0
21214,55.0,0,30,7.0,106.0
21215,58.0,2,0,10.0,112.0
21216,58.0,2,60,11.0,117.0
21217,46.0,1,60,12.0,117.0
21218,34.0,2,60,13.0,127.0
21219,46.0,30,60,7.0,106.0
21220,63.0,5,540,3.0,110.0
21221,82.0,0,30,7.0,106.0
21222,70.0,53,30,7.0,106.0
21223,58.0,0,120,8.0,117.0
21224,66.0,0,30,7.0,106.0
21225,78.0,24,30,7.0,106.0
21226,58.0,2,120,11.0,117.0
21227,46.0,1,120,12.0,117.0
21228,34.0,2,120,13.0,127.0
21229,82.0,0,30,7.0,106.0
21230,70.0,30,30,7.0,106.0
21231,66.0,30,30,7.0,106.0
21232,78.0,0,30,7.0,106.0
21233,82.0,1,120,1.0,98.0
21234,66.0,5,0,3.0,110.0
21235,75.0,30,30,7.0,106.0
21236,63.0,0,30,7.0,106.0
21237,66.0,24,30,7.0,106.0
21238,78.0,0,30,7.0,106.0
21239,75.0,30,30,7.0,106.0
21240,63.0,0,30,7.0,106.0
21241,66.0,30,30,7.0,106.0
21242,78.0,0,30,7.0,106.0
21243,82.0,1,120,1.0,98.0
21244,58.0,30,30,7.0,106.0
21245,70.0,0,30,7.0,106.0
21246,63.0,24,30,7.0,106.0
21247,75.0,0,30,7.0,106.0
21248,70.0,30,30,7.0,106.0
21249,58.0,0,30,7.0,106.0
21250,63.0,30,30,7.0,106.0
21251,75.0,0,30,7.0,106.0
21252,80.0,1,120,1.0,98.0
21253,65.0,5,120,3.0,110.0
21254,66.0,30,30,7.0,106.0
21255,54.0,0,30,7.0,106.0
21256,70.0,0,30,7.0,106.0
21257,58.0,24,30,7.0,106.0
21258,78.0,1,60,1.0,98.0
21259,63.0,5,0,3.0,110.0
21260,54.0,0,30,7.0,106.0
21261,66.0,30,30,7.0,106.0
21262,70.0,24,30,7.0,106.0
21263,58.0,0,30,7.0,106.0
21264,63.0,0,30,7.0,106.0
21265,51.0,30,30,7.0,106.0
21266,54.0,0,30,7.0,106.0
21267,66.0,30,30,7.0,106.0
21268,51.0,30,30,7.0,106.0
21269,63.0,0,30,7.0,106.0
21270,54.0,0,30,7.0,106.0
21271,66.0,30,30,7.0,106.0
21272,46.0,30,30,7.0,106.0
21273,58.0,0,30,7.0,106.0
21274,51.0,0,30,7.0,106.0
21275,63.0,30,30,7.0,106.0
21276,46.0,0,30,7.0,106.0
21277,58.0,30,30,7.0,106.0
21278,63.0,0,30,7.0,106.0
21279,51.0,30,30,7.0,106.0
21280,54.0,30,30,7.0,106.0
21281,42.0,0,30,7.0,106.0
21282,46.0,0,30,7.0,106.0
21283,58.0,30,30,7.0,106.0
21284,54.0,30,30,7.0,106.0
21285,42.0,0,30,7.0,106.0
21286,46.0,23,30,7.0,106.0
21287,70.0,0,60,8.0,117.0
21288,58.0,0,30,7.0,106.0
21289,70.0,2,60,10.0,112.0
21290,58.0,2,60,11.0,117.0
21291,58.0,1,60,12.0,117.0
21292,46.0,2,60,13.0,127.0
21293,39.0,0,30,7.0,106.0
21294,51.0,0,30,7.0,106.0
21295,42.0,0,30,7.0,106.0
21296,58.0,30,60,8.0,117.0
21297,54.0,23,30,7.0,106.0
21298,58.0,2,60,10.0,112.0
21299,58.0,2,60,11.0,117.0
21300,46.0,1,60,12.0,117.0
21301,34.0,2,60,13.0,127.0
21302,33.0,0,30,7.0,106.0
21303,47.0,0,30,7.0,106.0
21304,54.0,0,30,7.0,106.0
21305,39.0,0,30,7.0,106.0
21306,42.0,23,30,7.0,106.0
21307,51.0,30,30,7.0,106.0
21308,44.0,0,30,7.0,106.0
21309,54.0,0,30,7.0,106.0
21310,39.0,0,30,7.0,106.0
21311,42.0,30,30,7.0,106.0
21312,57.0,30,120,8.0,117.0
21313,78.0,1,600,1.0,98.0
21314,57.0,2,120,10.0,112.0
21315,57.0,2,120,11.0,117.0
21316,45.0,1,120,12.0,117.0
21317,33.0,2,120,13.0,127.0
21318,44.0,30,30,7.0,106.0
21319,59.0,0,30,7.0,106.0
21320,39.0,0,30,7.0,106.0
21321,42.0,30,30,7.0,106.0
21322,54.0,0,30,7.0,106.0
21323,44.0,30,30,7.0,106.0
21324,51.0,0,30,7.0,106.0
21325,39.0,0,30,7.0,106.0
21326,42.0,0,30,7.0,106.0
21327,54.0,30,30,7.0,106.0
21328,51.0,30,30,7.0,106.0
21329,30.0,0,30,7.0,106.0
21330,59.0,0,30,7.0,106.0
21331,39.0,23,30,7.0,106.0
21332,42.0,0,30,7.0,106.0
21333,54.0,0,30,7.0,106.0
21334,44.0,30,30,7.0,106.0
21335,59.0,0,30,7.0,106.0
21336,66.0,0,120,8.0,117.0
21337,39.0,0,30,7.0,106.0
21338,42.0,30,30,7.0,106.0
21339,66.0,2,120,10.0,112.0
21340,54.0,2,120,11.0,117.0
21341,54.0,1,120,12.0,117.0
21342,42.0,2,120,13.0,127.0
21343,63.0,0,30,7.0,106.0
21344,44.0,30,30,7.0,106.0
21345,59.0,0,30,7.0,106.0
21346,42.0,30,30,7.0,106.0
21347,39.0,0,30,7.0,106.0
21348,44.0,0,30,7.0,106.0
21349,54.0,30,30,7.0,106.0
21350,59.0,0,30,7.0,106.0
21351,42.0,30,30,7.0,106.0
21352,39.0,0,30,7.0,106.0
21353,33.0,0,30,7.0,106.0
21354,54.0,30,30,7.0,106.0
21355,39.0,0,30,7.0,106.0
21356,42.0,0,30,7.0,106.0
21357,63.0,23,30,7.0,106.0
21358,44.0,0,30,7.0,106.0
21359,59.0,30,30,7.0,106.0
21360,63.0,0,120,8.0,117.0
21361,39.0,0,30,7.0,106.0
21362,42.0,0,30,7.0,106.0
21363,63.0,30,30,7.0,106.0
21364,63.0,2,120,10.0,112.0
21365,51.0,2,120,11.0,117.0
21366,51.0,1,120,12.0,117.0
21367,39.0,2,120,13.0,127.0
21368,66.0,30,30,7.0,106.0
21369,44.0,0,30,7.0,106.0
21370,63.0,30,30,7.0,106.0
21371,39.0,0,30,7.0,106.0
21372,42.0,0,30,7.0,106.0
21373,59.0,0,30,7.0,106.0
21374,44.0,30,30,7.0,106.0
21375,63.0,0,30,7.0,106.0
21376,39.0,0,30,7.0,106.0
21377,42.0,30,30,7.0,106.0
21378,33.0,30,30,7.0,106.0
21379,59.0,0,30,7.0,106.0
21380,63.0,23,30,7.0,106.0
21381,38.0,0,30,7.0,106.0
21382,41.0,0,30,7.0,106.0
21383,66.0,30,30,7.0,106.0
21384,44.0,0,30,7.0,106.0
21385,71.0,30,30,7.0,106.0
21386,45.0,1,120,12.0,117.0
21387,33.0,2,120,13.0,127.0
21388,33.0,30,30,7.0,106.0
21389,63.0,0,30,7.0,106.0
21390,38.0,0,30,7.0,106.0
21391,66.0,30,30,7.0,106.0
21392,71.0,30,30,7.0,106.0
21393,41.0,0,30,7.0,106.0
21394,75.0,30,30,7.0,106.0
21395,44.0,0,30,7.0,106.0
21396,32.0,0,30,7.0,106.0
21397,64.0,30,30,7.0,106.0
21398,44.0,5,0,12.0,117.0
21399,35.0,0,30,7.0,106.0
21400,76.0,23,30,7.0,106.0
21401,44.0,5,0,12.0,117.0
21402,40.0,0,30,7.0,106.0
21403,63.0,25,30,7.0,106.0
21404,44.0,5,0,12.0,117.0
21405,44.0,25,30,7.0,106.0
21406,75.0,0,30,7.0,106.0
21407,44.0,5,0,12.0,117.0
21408,32.0,2,120,13.0,127.0
21409,32.0,25,30,7.0,106.0
21410,61.0,0,30,7.0,106.0
21411,44.0,5,0,12.0,117.0
21412,73.0,0,30,7.0,106.0
21413,35.0,25,30,7.0,106.0
21414,44.0,5,0,12.0,117.0
21415,59.0,0,30,7.0,106.0
21416,40.0,25,30,7.0,106.0
21417,71.0,0,30,7.0,106.0
21418,44.0,25,30,7.0,106.0
21419,71.0,0,480,8.0,117.0
21420,44.0,5,30,12.0,117.0
21421,69.0,25,30,7.0,106.0
21422,30.0,0,30,7.0,106.0
21423,42.0,5,0,12.0,117.0
21424,81.0,25,30,7.0,106.0
21425,33.0,0,30,7.0,106.0
21426,68.0,25,30,7.0,106.0
21427,39.0,0,30,7.0,106.0
21428,42.0,5,0,12.0,117.0
21429,42.0,0,30,7.0,106.0
21430,80.0,25,30,7.0,106.0
21431,42.0,5,0,12.0,117.0
21432,30.0,0,30,7.0,106.0
21433,66.0,25,30,7.0,106.0
21434,78.0,0,30,7.0,106.0
21435,33.0,25,30,7.0,106.0
21436,42.0,5,30,12.0,117.0
21437,64.0,25,30,7.0,106.0
21438,39.0,0,30,7.0,106.0
21439,42.0,5,30,12.0,117.0
21440,42.0,25,30,7.0,106.0
21441,69.0,0,240,8.0,117.0
21442,76.0,0,30,7.0,106.0
21443,42.0,5,30,12.0,117.0
21444,73.0,25,30,7.0,106.0
21445,40.0,0,30,7.0,106.0
21446,40.0,5,30,12.0,117.0
21447,85.0,0,30,7.0,106.0
21448,44.0,25,30,7.0,106.0
21449,40.0,5,0,12.0,117.0
21450,47.0,25,30,7.0,106.0
21451,71.0,0,30,7.0,106.0
21452,40.0,5,0,12.0,117.0
21453,83.0,25,30,7.0,106.0
21454,52.0,0,30,7.0,106.0
21455,40.0,5,0,12.0,117.0
21456,69.0,25,30,7.0,106.0
21457,40.0,0,30,7.0,106.0
21458,44.0,0,30,7.0,106.0
21459,81.0,25,30,7.0,106.0
21460,40.0,5,30,12.0,117.0
21461,68.0,0,30,7.0,106.0
21462,47.0,25,30,7.0,106.0
21463,40.0,5,30,12.0,117.0
21464,68.0,0,240,8.0,117.0
21465,80.0,25,30,7.0,106.0
21466,52.0,0,30,7.0,106.0
21467,59.0,4,960,11.0,117.0
21468,40.0,5,30,12.0,117.0
21469,78.0,0,30,7.0,106.0
21470,33.0,0,30,7.0,106.0
21471,45.0,5,0,12.0,117.0
21472,90.0,25,30,7.0,106.0
21473,37.0,0,30,7.0,106.0
21474,40.0,25,30,7.0,106.0
21475,76.0,0,30,7.0,106.0
21476,45.0,5,30,12.0,117.0
21477,88.0,25,30,7.0,106.0
21478,45.0,0,30,7.0,106.0
21479,45.0,5,30,12.0,117.0
21480,33.0,25,30,7.0,106.0
21481,75.0,0,30,7.0,106.0
21482,45.0,5,0,12.0,117.0
21483,37.0,25,30,7.0,106.0
21484,87.0,0,30,7.0,106.0
21485,73.0,0,30,7.0,106.0
21486,40.0,25,30,7.0,106.0
21487,45.0,5,0,12.0,117.0
21488,45.0,0,30,7.0,106.0
21489,85.0,25,30,7.0,106.0
21490,73.0,25,240,8.0,117.0
21491,61.0,2,240,10.0,112.0
21492,72.0,25,40,7.0,106.0
21493,84.0,35,40,7.0,106.0
21494,45.0,0,120,7.0,106.0
21495,81.0,40,40,7.0,106.0
21496,78.0,40,40,7.0,106.0
21497,75.0,40,40,7.0,106.0
21498,72.0,40,40,7.0,106.0
21499,69.0,40,40,7.0,106.0
21500,66.0,40,40,7.0,106.0
21501,63.0,40,40,7.0,106.0
21502,60.0,40,40,7.0,106.0
21503,57.0,40,40,7.0,106.0
21504,54.0,35,40,7.0,106.0
21505,51.0,45,40,7.0,106.0
21506,48.0,40,40,7.0,106.0
21507,45.0,40,40,7.0,106.0
21508,42.0,40,30,7.0,106.0
21509,39.0,30,30,7.0,106.0
21510,36.0,30,30,7.0,106.0
21511,33.0,30,30,7.0,106.0
21512,72.0,0,720,8.0,117.0
21513,84.0,1,720,1.0,98.0
21514,60.0,1,720,10.0,112.0
21515,57.0,2,720,11.0,117.0
21516,45.0,1,720,12.0,117.0
21517,32.0,30,24,7.0,106.0
21518,35.0,19,24,7.0,106.0
21519,38.0,24,24,7.0,106.0
21520,41.0,24,24,7.0,106.0
21521,44.0,24,24,7.0,106.0
21522,47.0,24,24,7.0,106.0
21523,50.0,24,24,7.0,106.0
21524,53.0,24,24,7.0,106.0
21525,56.0,24,24,7.0,106.0
21526,59.0,24,24,7.0,106.0
21527,71.0,0,240,8.0,117.0
21528,83.0,1,240,1.0,98.0
21529,59.0,1,240,10.0,112.0
21530,56.0,2,240,11.0,117.0
21531,44.0,1,240,12.0,117.0
21532,31.0,24,30,7.0,106.0
21533,43.0,1,30,12.0,117.0
21534,75.0,0,60,0.0,94.0
21535,34.0,23,30,7.0,106.0
21536,63.0,0,60,2.0,94.0
21537,43.0,5,30,12.0,117.0
21538,51.0,1,60,3.0,110.0
21539,46.0,0,20,7.0,106.0
21540,39.0,0,30,7.0,106.0
21541,43.0,3,30,12.0,117.0
21542,51.0,14,20,7.0,106.0
21543,55.0,5,20,7.0,106.0
21544,43.0,10,30,7.0,106.0
21545,74.0,25,60,0.0,94.0
21546,62.0,2,60,2.0,94.0
21547,43.0,3,0,12.0,117.0
21548,50.0,1,60,3.0,110.0
21549,31.0,1,120,13.0,127.0
21550,58.0,0,30,7.0,106.0
21551,72.0,20,60,0.0,94.0
21552,55.0,24,30,7.0,106.0
21553,60.0,2,60,2.0,94.0
21554,43.0,5,30,12.0,117.0
21555,48.0,1,60,3.0,110.0
21556,51.0,0,30,7.0,106.0
21557,43.0,5,0,12.0,117.0
21558,46.0,24,30,7.0,106.0
21559,70.0,0,240,8.0,117.0
21560,70.0,25,60,0.0,94.0
21561,58.0,1,240,10.0,112.0
21562,58.0,2,60,2.0,94.0
21563,55.0,2,240,11.0,117.0
21564,46.0,1,60,3.0,110.0
21565,29.0,0,24,7.0,106.0
21566,41.0,1,30,12.0,117.0
21567,32.0,18,24,7.0,106.0
21568,80.0,25,60,0.0,94.0
21569,68.0,0,60,2.0,94.0
21570,41.0,3,0,12.0,117.0
21571,56.0,1,60,3.0,110.0
21572,34.0,13,24,7.0,106.0
21573,50.0,12,20,7.0,106.0
21574,38.0,6,24,7.0,106.0
21575,56.0,8,20,7.0,106.0
21576,79.0,0,60,0.0,94.0
21577,41.0,1,24,7.0,106.0
21578,58.0,4,20,7.0,106.0
21579,67.0,2,60,2.0,94.0
21580,41.0,15,30,12.0,117.0
21581,55.0,1,60,3.0,110.0
21582,62.0,0,30,7.0,106.0
21583,41.0,5,0,12.0,117.0
21584,58.0,24,30,7.0,106.0
21585,77.0,20,60,0.0,94.0
21586,65.0,2,60,2.0,94.0
21587,41.0,3,0,12.0,117.0
21588,53.0,1,60,3.0,110.0
21589,56.0,0,30,7.0,106.0
21590,68.0,0,240,8.0,117.0
21591,75.0,25,60,0.0,94.0
21592,50.0,24,30,7.0,106.0
21593,63.0,2,60,2.0,94.0
21594,56.0,2,240,10.0,112.0
21595,41.0,5,30,12.0,117.0
21596,51.0,1,60,3.0,110.0
21597,39.0,25,30,7.0,106.0
21598,39.0,3,30,12.0,117.0
21599,84.0,0,60,0.0,94.0
21600,80.0,0,60,0.0,94.0
21601,43.0,24,30,7.0,106.0
21602,68.0,0,60,2.0,94.0
21603,72.0,2,60,2.0,94.0
21604,39.0,5,30,12.0,117.0
21605,60.0,1,60,3.0,110.0
21606,56.0,0,60,3.0,110.0
21607,55.0,0,20,7.0,106.0
21608,46.0,0,30,7.0,106.0
21609,39.0,3,30,12.0,117.0
21610,58.0,14,20,7.0,106.0
21611,79.0,25,60,0.0,94.0
21612,82.0,0,60,0.0,94.0
21613,51.0,10,30,7.0,106.0
21614,63.0,5,20,7.0,106.0
21615,70.0,2,60,2.0,94.0
21616,67.0,0,60,2.0,94.0
21617,39.0,3,0,12.0,117.0
21618,55.0,1,60,3.0,110.0
21619,58.0,0,60,3.0,110.0
21620,67.0,0,30,7.0,106.0
21621,39.0,5,0,12.0,117.0
21622,77.0,0,60,0.0,94.0
21623,80.0,20,60,0.0,94.0
21624,63.0,24,30,7.0,106.0
21625,68.0,2,60,2.0,94.0
21626,65.0,0,60,2.0,94.0
21627,53.0,0,60,3.0,110.0
21628,56.0,1,60,3.0,110.0
21629,58.0,0,30,7.0,106.0
21630,39.0,3,30,12.0,117.0
21631,79.0,25,60,0.0,94.0
21632,67.0,0,240,8.0,117.0
21633,75.0,0,60,0.0,94.0
21634,55.0,24,30,7.0,106.0
21635,82.0,0,720,1.0,98.0
21636,70.0,1,720,1.0,98.0
21637,55.0,0,240,10.0,112.0
21638,63.0,0,60,2.0,94.0
21639,67.0,2,60,2.0,94.0
21640,58.0,2,480,11.0,117.0
21641,39.0,5,30,12.0,117.0
21642,51.0,0,60,3.0,110.0
21643,55.0,1,60,3.0,110.0
21644,32.0,0,30,7.0,106.0
21645,44.0,5,0,12.0,117.0
21646,89.0,0,60,0.0,94.0
21647,86.0,0,60,0.0,94.0
21648,36.0,23,30,7.0,106.0
21649,74.0,1,60,2.0,94.0
21650,77.0,0,60,2.0,94.0
21651,62.0,0,60,3.0,110.0
21652,65.0,1,60,3.0,110.0
21653,48.0,0,20,7.0,106.0
21654,39.0,0,30,7.0,106.0
21655,44.0,3,30,12.0,117.0
21656,51.0,14,20,7.0,106.0
21657,84.0,0,60,0.0,94.0
21658,87.0,25,60,0.0,94.0
21659,44.0,10,30,7.0,106.0
21660,56.0,5,20,7.0,106.0
21661,72.0,2,60,2.0,94.0
21662,75.0,0,60,2.0,94.0
21663,51.0,2,120,11.0,117.0
21664,44.0,5,30,12.0,117.0
21665,63.0,1,60,3.0,110.0
21666,60.0,0,60,3.0,110.0
21667,32.0,1,120,13.0,127.0
21668,60.0,0,30,7.0,106.0
21669,44.0,5,0,12.0,117.0
21670,82.0,20,60,0.0,94.0
21671,86.0,0,60,0.0,94.0
21672,56.0,24,30,7.0,106.0
21673,70.0,0,60,2.0,94.0
21674,74.0,0,60,2.0,94.0
21675,58.0,0,60,3.0,110.0
21676,62.0,1,60,3.0,110.0
21677,51.0,25,30,7.0,106.0
21678,44.0,3,30,12.0,117.0
21679,72.0,25,240,8.0,117.0
21680,84.0,0,60,0.0,94.0
21681,48.0,24,30,7.0,106.0
21682,80.0,0,60,0.0,94.0
21683,84.0,1,240,1.0,98.0
21684,72.0,0,240,1.0,98.0
21685,51.0,0,120,4.0,107.0
21686,63.0,2,120,4.0,107.0
21687,68.0,2,60,2.0,94.0
21688,72.0,0,60,2.0,94.0
21689,60.0,0,240,10.0,112.0
21690,63.0,2,0,11.0,117.0
21691,44.0,5,30,12.0,117.0
21692,60.0,0,60,3.0,110.0
21693,56.0,1,60,3.0,110.0
21694,34.0,0,45,7.0,106.0
21695,46.0,0,45,7.0,106.0
21696,34.0,0,45,7.0,106.0
21697,46.0,53,45,7.0,106.0
21698,67.0,25,120,8.0,117.0
21699,82.0,0,120,0.0,94.0
21700,79.0,0,120,0.0,94.0
21701,70.0,0,120,1.0,98.0
21702,58.0,0,120,10.0,112.0
21703,67.0,0,120,2.0,94.0
21704,70.0,1,120,2.0,94.0
21705,46.0,1,120,12.0,117.0
21706,55.0,1,120,3.0,110.0
21707,58.0,0,120,3.0,110.0
21708,34.0,1,120,13.0,127.0
21709,36.0,0,45,7.0,106.0
21710,48.0,60,45,7.0,106.0
21711,38.0,58,45,7.0,106.0
21712,50.0,0,45,7.0,106.0
21713,51.0,60,45,7.0,106.0
21714,39.0,0,45,7.0,106.0
21715,46.0,0,45,7.0,106.0
21716,34.0,60,45,7.0,106.0
21717,82.0,1,360,1.0,98.0
21718,70.0,0,360,4.0,107.0
21719,67.0,0,360,4.0,107.0
21720,79.0,2,240,2.0,94.0
21721,41.0,60,45,7.0,106.0
21722,53.0,0,45,7.0,106.0
21723,46.0,0,45,7.0,106.0
21724,34.0,58,45,7.0,106.0
21725,80.0,1,120,1.0,98.0
21726,77.0,1,120,2.0,94.0
21727,65.0,0,120,4.0,107.0
21728,68.0,0,120,4.0,107.0
21729,55.0,60,60,7.0,106.0
21730,43.0,0,60,7.0,106.0
21731,46.0,0,60,7.0,106.0
21732,34.0,58,60,7.0,106.0
21733,44.0,0,60,7.0,106.0
21734,56.0,60,60,7.0,106.0
21735,46.0,60,60,7.0,106.0
21736,34.0,0,60,7.0,106.0
21737,79.0,1,0,1.0,98.0
21738,67.0,1,240,4.0,107.0
21739,75.0,0,0,2.0,94.0
21740,63.0,0,240,4.0,107.0
21741,46.0,0,60,7.0,106.0
21742,58.0,60,60,7.0,106.0
21743,46.0,58,60,7.0,106.0
21744,34.0,0,60,7.0,106.0
21745,48.0,60,60,7.0,106.0
21746,60.0,0,60,7.0,106.0
21747,48.0,60,60,7.0,106.0
21748,36.0,0,60,7.0,106.0
21749,67.0,1,240,4.0,107.0
21750,63.0,1,0,4.0,107.0
21751,50.0,58,0,7.0,106.0
21752,62.0,60,60,7.0,106.0
21753,38.0,0,60,7.0,106.0
21754,63.0,60,60,7.0,106.0
21755,51.0,60,0,7.0,106.0
21756,39.0,0,60,7.0,106.0
21757,29.0,0,60,7.0,106.0
21758,65.0,60,60,7.0,106.0
21759,53.0,60,60,7.0,106.0
21760,41.0,0,60,7.0,106.0
21761,79.0,1,360,1.0,98.0
21762,67.0,0,360,4.0,107.0
21763,75.0,0,360,2.0,94.0
21764,31.0,60,60,7.0,106.0
21765,67.0,0,60,7.0,106.0
21766,55.0,58,60,7.0,106.0
21767,77.0,1,120,1.0,98.0
21768,70.0,0,120,2.0,94.0
21769,58.0,1,120,4.0,107.0
21770,65.0,0,120,4.0,107.0
21771,32.0,0,60,7.0,106.0
21772,68.0,60,60,7.0,106.0
21773,56.0,0,60,7.0,106.0
21774,44.0,58,60,7.0,106.0
21775,70.0,60,60,7.0,106.0
21776,34.0,0,60,7.0,106.0
21777,46.0,0,60,7.0,106.0
21778,58.0,60,60,7.0,106.0
21779,75.0,1,0,1.0,98.0
21780,63.0,0,240,4.0,107.0
21781,55.0,1,0,4.0,107.0
21782,67.0,0,0,2.0,94.0
21783,72.0,60,60,7.0,106.0
21784,36.0,0,60,7.0,106.0
21785,60.0,0,60,7.0,106.0
21786,48.0,58,60,7.0,106.0
21787,38.0,0,60,7.0,106.0
21788,74.0,60,60,7.0,106.0
21789,62.0,60,60,7.0,106.0
21790,50.0,0,60,7.0,106.0
21791,63.0,0,240,4.0,107.0
21792,75.0,0,30,7.0,106.0
21793,39.0,0,30,7.0,106.0
21794,63.0,0,30,7.0,106.0
21795,51.0,23,30,7.0,106.0
21796,77.0,30,30,7.0,106.0
21797,41.0,0,30,7.0,106.0
21798,53.0,0,30,7.0,106.0
21799,65.0,30,30,7.0,106.0
21800,43.0,30,30,7.0,106.0
21801,79.0,0,30,7.0,106.0
21802,67.0,30,30,7.0,106.0
21803,55.0,0,30,7.0,106.0
21804,80.0,30,30,7.0,106.0
21805,44.0,0,30,7.0,106.0
21806,68.0,0,30,7.0,106.0
21807,56.0,30,30,7.0,106.0
21808,82.0,0,30,7.0,106.0
21809,46.0,30,30,7.0,106.0
21810,58.0,0,30,7.0,106.0
21811,70.0,30,30,7.0,106.0
21812,48.0,0,30,7.0,106.0
21813,84.0,30,30,7.0,106.0
21814,60.0,0,30,7.0,106.0
21815,72.0,30,30,7.0,106.0
21816,75.0,60,360,8.0,117.0
21817,63.0,2,360,10.0,112.0
21818,51.0,2,360,11.0,117.0
21819,63.0,1,360,12.0,117.0
21820,51.0,2,360,13.0,127.0
21821,50.0,30,30,7.0,106.0
21822,86.0,0,30,7.0,106.0
21823,74.0,23,30,7.0,106.0
21824,62.0,0,30,7.0,106.0
21825,87.0,30,30,7.0,106.0
21826,51.0,0,30,7.0,106.0
21827,70.0,0,90,8.0,117.0
21828,58.0,2,90,10.0,112.0
21829,58.0,2,90,11.0,117.0
21830,58.0,1,90,12.0,117.0
21831,46.0,2,90,13.0,127.0
21832,75.0,30,30,7.0,106.0
21833,89.0,0,30,7.0,106.0
21834,53.0,0,30,7.0,106.0
21835,77.0,23,30,7.0,106.0
21836,65.0,0,30,7.0,106.0
21837,67.0,30,90,8.0,117.0
21838,55.0,30,30,7.0,106.0
21839,91.0,0,30,7.0,106.0
21840,55.0,2,90,10.0,112.0
21841,55.0,2,90,11.0,117.0
21842,55.0,1,90,12.0,117.0
21843,43.0,2,90,13.0,127.0
21844,79.0,0,30,7.0,106.0
21845,67.0,30,30,7.0,106.0
21846,56.0,0,30,7.0,106.0
21847,92.0,0,30,7.0,106.0
21848,80.0,23,30,7.0,106.0
21849,68.0,0,30,7.0,106.0
21850,93.0,30,30,7.0,106.0
21851,70.0,30,90,8.0,117.0
21852,57.0,0,30,7.0,106.0
21853,70.0,2,90,10.0,112.0
21854,58.0,2,90,11.0,117.0
21855,58.0,1,90,12.0,117.0
21856,46.0,2,90,13.0,127.0
21857,81.0,0,30,7.0,106.0
21858,69.0,30,30,7.0,106.0
21859,94.0,0,30,7.0,106.0
21860,58.0,0,30,7.0,106.0
21861,82.0,0,30,7.0,106.0
21862,70.0,23,30,7.0,106.0
21863,58.0,30,30,7.0,106.0
21864,67.0,30,90,8.0,117.0
21865,94.0,0,30,7.0,106.0
21866,67.0,2,90,10.0,112.0
21867,55.0,2,90,11.0,117.0
21868,55.0,1,90,12.0,117.0
21869,43.0,2,90,13.0,127.0
21870,82.0,0,30,7.0,106.0
21871,70.0,30,30,7.0,106.0
21872,55.0,0,30,7.0,106.0
21873,91.0,0,30,7.0,106.0
21874,79.0,0,30,7.0,106.0
21875,67.0,23,30,7.0,106.0
21876,87.0,30,30,7.0,106.0
21877,51.0,0,30,7.0,106.0
21878,63.0,30,90,8.0,117.0
21879,63.0,2,90,10.0,112.0
21880,51.0,2,90,11.0,117.0
21881,51.0,1,90,12.0,117.0
21882,39.0,2,90,13.0,127.0
21883,63.0,30,30,7.0,106.0
21884,75.0,0,30,7.0,106.0
21885,56.0,30,30,7.0,106.0
21886,92.0,0,30,7.0,106.0
21887,68.0,23,30,7.0,106.0
21888,91.0,30,30,7.0,106.0
21889,68.0,0,120,8.0,117.0
21890,89.0,30,30,7.0,106.0
21891,68.0,2,120,10.0,112.0
21892,56.0,2,120,11.0,117.0
21893,56.0,1,120,12.0,117.0
21894,44.0,2,120,13.0,127.0
21895,87.0,30,30,7.0,106.0
21896,86.0,30,30,7.0,106.0
21897,84.0,30,30,7.0,106.0
21898,82.0,30,30,7.0,106.0
21899,80.0,30,30,7.0,106.0
21900,79.0,30,30,7.0,106.0
21901,77.0,30,30,7.0,106.0
21902,75.0,30,30,7.0,106.0
21903,74.0,30,30,7.0,106.0
21904,72.0,30,30,7.0,106.0
21905,70.0,30,30,7.0,106.0
21906,68.0,30,30,7.0,106.0
21907,53.0,0,30,7.0,106.0
21908,65.0,0,30,7.0,106.0
21909,89.0,23,30,7.0,106.0
21910,87.0,30,30,7.0,106.0
21911,86.0,30,30,7.0,106.0
21912,65.0,30,120,8.0,117.0
21913,65.0,2,120,10.0,112.0
21914,53.0,2,120,11.0,117.0
21915,53.0,1,120,12.0,117.0
21916,41.0,2,120,13.0,127.0
21917,84.0,30,30,7.0,106.0
21918,82.0,30,30,7.0,106.0
21919,80.0,30,30,7.0,106.0
21920,79.0,30,30,7.0,106.0
21921,77.0,30,30,7.0,106.0
21922,75.0,30,30,7.0,106.0
21923,74.0,30,30,7.0,106.0
21924,72.0,30,30,7.0,106.0
21925,70.0,30,30,7.0,106.0
21926,68.0,30,30,7.0,106.0
21927,67.0,30,30,7.0,106.0
21928,65.0,30,30,7.0,106.0
21929,50.0,30,30,7.0,106.0
21930,86.0,0,30,7.0,106.0
21931,62.0,23,30,7.0,106.0
21932,84.0,30,30,7.0,106.0
21933,82.0,30,30,7.0,106.0
21934,62.0,0,120,8.0,117.0
21935,62.0,2,120,10.0,112.0
21936,50.0,2,120,11.0,117.0
21937,50.0,1,120,12.0,117.0
21938,38.0,2,120,13.0,127.0
21939,80.0,30,30,7.0,106.0
21940,79.0,30,30,7.0,106.0
21941,77.0,30,30,7.0,106.0
21942,75.0,30,30,7.0,106.0
21943,74.0,0,30,7.0,106.0
21944,46.0,30,30,7.0,106.0
21945,72.0,0,30,7.0,106.0
21946,58.0,23,30,7.0,106.0
21947,70.0,30,30,7.0,106.0
21948,70.0,0,120,8.0,117.0
21949,68.0,30,30,7.0,106.0
21950,70.0,2,120,10.0,112.0
21951,58.0,2,120,11.0,117.0
21952,58.0,1,120,12.0,117.0
21953,46.0,2,120,13.0,127.0
21954,67.0,30,30,7.0,106.0
21955,65.0,30,30,7.0,106.0
21956,63.0,30,30,7.0,106.0
21957,62.0,30,30,7.0,106.0
21958,60.0,0,30,7.0,106.0
21959,44.0,0,30,7.0,106.0
21960,56.0,23,30,7.0,106.0
21961,58.0,0,30,7.0,106.0
21962,56.0,30,30,7.0,106.0
21963,55.0,30,30,7.0,106.0
21964,68.0,30,120,8.0,117.0
21965,68.0,2,120,10.0,112.0
21966,56.0,2,120,11.0,117.0
21967,56.0,1,120,12.0,117.0
21968,44.0,2,120,13.0,127.0
21969,53.0,30,30,7.0,106.0
21970,51.0,30,30,7.0,106.0
21971,50.0,30,30,7.0,106.0
21972,48.0,30,30,7.0,106.0
21973,46.0,0,30,7.0,106.0
21974,44.0,23,30,7.0,106.0
21975,43.0,30,30,7.0,106.0
21976,41.0,30,30,7.0,106.0
21977,65.0,30,120,8.0,117.0
21978,65.0,2,120,10.0,112.0
21979,53.0,2,120,11.0,117.0
21980,53.0,1,120,12.0,117.0
21981,41.0,2,120,13.0,127.0
21982,39.0,0,40,7.0,106.0
21983,38.0,33,40,7.0,106.0
21984,36.0,40,40,7.0,106.0
21985,62.0,30,120,8.0,117.0
21986,62.0,2,120,10.0,112.0
21987,50.0,2,120,11.0,117.0
21988,50.0,1,120,12.0,117.0
21989,38.0,2,120,13.0,127.0
21990,47.0,23,30,7.0,106.0
21991,50.0,30,30,7.0,106.0
21992,53.0,29,30,7.0,106.0
21993,34.0,0,120,7.0,106.0
21994,56.0,40,120,8.0,117.0
21995,65.0,2,120,10.0,112.0
21996,62.0,2,120,11.0,117.0
21997,46.0,1,120,12.0,117.0
21998,34.0,2,120,13.0,127.0
21999,56.0,30,30,7.0,106.0
22000,50.0,0,30,7.0,106.0
22001,38.0,30,30,7.0,106.0
22002,83.0,0,120,0.0,94.0
22003,71.0,1,120,1.0,98.0
22004,53.0,0,30,7.0,106.0
22005,41.0,30,30,7.0,106.0
22006,83.0,30,0,0.0,94.0
22007,44.0,0,30,7.0,106.0
22008,56.0,29,30,7.0,106.0
22009,71.0,1,0,1.0,98.0
22010,59.0,0,30,7.0,106.0
22011,47.0,0,30,7.0,106.0
22012,53.0,0,30,7.0,106.0
22013,41.0,29,30,7.0,106.0
22014,44.0,30,30,7.0,106.0
22015,56.0,0,30,7.0,106.0
22016,47.0,0,30,7.0,106.0
22017,59.0,28,30,7.0,106.0
22018,50.0,0,30,7.0,106.0
22019,62.0,30,30,7.0,106.0
22020,44.0,0,30,7.0,106.0
22021,56.0,30,30,7.0,106.0
22022,65.0,0,0,2.0,94.0
22023,68.0,2,0,2.0,94.0
22024,59.0,0,30,7.0,106.0
22025,47.0,30,30,7.0,106.0
22026,62.0,28,30,7.0,106.0
22027,50.0,0,30,7.0,106.0
22028,65.0,2,0,2.0,94.0
22029,68.0,0,0,2.0,94.0
22030,65.0,0,30,7.0,106.0
22031,53.0,30,30,7.0,106.0
22032,59.0,0,30,7.0,106.0
22033,47.0,28,30,7.0,106.0
22034,50.0,0,30,7.0,106.0
22035,62.0,30,30,7.0,106.0
22036,65.0,30,30,7.0,106.0
22037,53.0,0,30,7.0,106.0
22038,56.0,0,30,7.0,106.0
22039,68.0,30,30,7.0,106.0
22040,50.0,0,30,7.0,106.0
22041,62.0,30,30,7.0,106.0
22042,65.0,30,30,7.0,106.0
22043,53.0,0,30,7.0,106.0
22044,68.0,30,30,7.0,106.0
22045,56.0,0,30,7.0,106.0
22046,59.0,0,30,7.0,106.0
22047,71.0,30,30,7.0,106.0
22048,53.0,30,30,7.0,106.0
22049,65.0,0,30,7.0,106.0
22050,56.0,0,30,7.0,106.0
22051,68.0,30,30,7.0,106.0
22052,71.0,30,30,7.0,106.0
22053,59.0,0,30,7.0,106.0
22054,74.0,30,30,7.0,106.0
22055,62.0,0,30,7.0,106.0
22056,68.0,0,30,7.0,106.0
22057,56.0,30,30,7.0,106.0
22058,59.0,30,30,7.0,106.0
22059,71.0,0,30,7.0,106.0
22060,74.0,0,30,7.0,106.0
22061,62.0,30,30,7.0,106.0
22062,53.0,23,30,7.0,106.0
22063,56.0,30,30,7.0,106.0
22064,59.0,29,30,7.0,106.0
22065,34.0,0,120,7.0,106.0
22066,62.0,30,120,8.0,117.0
22067,56.0,2,120,10.0,112.0
22068,53.0,2,120,11.0,117.0
22069,46.0,1,120,12.0,117.0
22070,34.0,2,120,13.0,127.0
22071,62.0,30,30,7.0,106.0
22072,56.0,0,30,7.0,106.0
22073,86.0,0,0,0.0,94.0
22074,44.0,30,30,7.0,106.0
22075,74.0,1,0,1.0,98.0
22076,59.0,30,30,7.0,106.0
22077,47.0,0,30,7.0,106.0
22078,86.0,30,0,0.0,94.0
22079,62.0,0,30,7.0,106.0
22080,50.0,29,30,7.0,106.0
22081,74.0,1,0,1.0,98.0
22082,53.0,0,30,7.0,106.0
22083,65.0,0,30,7.0,106.0
22084,59.0,29,30,7.0,106.0
22085,47.0,0,30,7.0,106.0
22086,50.0,30,30,7.0,106.0
22087,62.0,0,30,7.0,106.0
22088,53.0,0,30,7.0,106.0
22089,65.0,28,30,7.0,106.0
22090,56.0,0,30,7.0,106.0
22091,68.0,30,30,7.0,106.0
22092,62.0,30,30,7.0,106.0
22093,50.0,0,30,7.0,106.0
22094,65.0,0,0,2.0,94.0
22095,68.0,2,0,2.0,94.0
22096,65.0,0,30,7.0,106.0
22097,53.0,30,30,7.0,106.0
22098,68.0,0,30,7.0,106.0
22099,56.0,28,30,7.0,106.0
22100,65.0,2,0,2.0,94.0
22101,68.0,0,0,2.0,94.0
22102,71.0,0,30,7.0,106.0
22103,59.0,30,30,7.0,106.0
22104,65.0,0,30,7.0,106.0
22105,53.0,28,30,7.0,106.0
22106,68.0,0,30,7.0,106.0
22107,56.0,30,30,7.0,106.0
22108,71.0,0,30,7.0,106.0
22109,59.0,30,30,7.0,106.0
22110,62.0,30,30,7.0,106.0
22111,74.0,0,30,7.0,106.0
22112,68.0,0,30,7.0,106.0
22113,56.0,30,30,7.0,106.0
22114,71.0,0,30,7.0,106.0
22115,59.0,30,30,7.0,106.0
22116,74.0,30,30,7.0,106.0
22117,62.0,0,30,7.0,106.0
22118,77.0,0,30,7.0,106.0
22119,65.0,30,30,7.0,106.0
22120,71.0,0,30,7.0,106.0
22121,59.0,30,30,7.0,106.0
22122,74.0,0,30,7.0,106.0
22123,62.0,30,30,7.0,106.0
22124,65.0,0,30,7.0,106.0
22125,77.0,30,30,7.0,106.0
22126,80.0,0,30,7.0,106.0
22127,68.0,30,30,7.0,106.0
22128,62.0,30,30,7.0,106.0
22129,74.0,0,30,7.0,106.0
22130,77.0,30,30,7.0,106.0
22131,65.0,0,30,7.0,106.0
22132,68.0,30,30,7.0,106.0
22133,80.0,0,30,7.0,106.0
22134,46.0,30,30,7.0,106.0
22135,62.0,0,30,7.0,106.0
22136,58.0,23,30,7.0,106.0
22137,57.0,30,30,7.0,106.0
22138,63.0,0,30,7.0,106.0
22139,62.0,0,120,8.0,117.0
22140,64.0,0,30,7.0,106.0
22141,56.0,28,30,7.0,106.0
22142,56.0,2,120,10.0,112.0
22143,53.0,2,120,11.0,117.0
22144,46.0,1,120,12.0,117.0
22145,34.0,2,120,13.0,127.0
22146,65.0,0,30,7.0,106.0
22147,55.0,30,40,7.0,106.0
22148,66.0,30,30,7.0,106.0
22149,80.0,1,120,1.0,98.0
22150,58.0,0,120,4.0,107.0
22151,65.0,1,0,4.0,107.0
22152,74.0,1,120,2.0,94.0
22153,54.0,10,40,7.0,106.0
22154,67.0,20,30,7.0,106.0
22155,53.0,18,40,7.0,106.0
22156,68.0,10,30,7.0,106.0
22157,80.0,1,60,1.0,98.0
22158,58.0,0,60,4.0,107.0
22159,74.0,0,60,2.0,94.0
22160,69.0,0,30,7.0,106.0
22161,52.0,30,40,7.0,106.0
22162,70.0,23,30,7.0,106.0
22163,51.0,10,40,7.0,106.0
22164,71.0,20,30,7.0,106.0
22165,65.0,0,120,8.0,117.0
22166,72.0,10,30,7.0,106.0
22167,50.0,18,40,7.0,106.0
22168,62.0,2,120,10.0,112.0
22169,56.0,2,120,11.0,117.0
22170,46.0,1,120,12.0,117.0
22171,34.0,2,120,13.0,127.0
22172,73.0,0,30,7.0,106.0
22173,49.0,30,40,7.0,106.0
22174,74.0,30,30,7.0,106.0
22175,80.0,1,120,1.0,98.0
22176,74.0,0,120,2.0,94.0
22177,58.0,0,120,4.0,107.0
22178,65.0,1,120,4.0,107.0
22179,48.0,10,40,7.0,106.0
22180,75.0,20,30,7.0,106.0
22181,47.0,18,40,7.0,106.0
22182,76.0,10,30,7.0,106.0
22183,80.0,1,60,1.0,98.0
22184,74.0,1,60,2.0,94.0
22185,65.0,0,60,4.0,107.0
22186,58.0,0,60,4.0,107.0
22187,77.0,30,20,7.0,106.0
22188,46.0,0,40,7.0,106.0
22189,78.0,13,20,7.0,106.0
22190,79.0,20,20,7.0,106.0
22191,45.0,0,40,7.0,106.0
22192,80.0,20,20,7.0,106.0
22193,81.0,18,20,7.0,106.0
22194,82.0,20,20,7.0,106.0
22195,44.0,0,40,7.0,106.0
22196,68.0,0,120,8.0,117.0
22197,65.0,2,120,10.0,112.0
22198,62.0,2,120,11.0,117.0
22199,46.0,1,120,12.0,117.0
22200,34.0,2,120,13.0,127.0
22201,83.0,0,20,7.0,106.0
22202,43.0,20,40,7.0,106.0
22203,84.0,20,20,7.0,106.0
22204,85.0,0,20,7.0,106.0
22205,80.0,1,0,1.0,98.0
22206,74.0,1,0,2.0,94.0
22207,58.0,0,0,4.0,107.0
22208,65.0,0,0,4.0,107.0
22209,42.0,20,40,7.0,106.0
22210,86.0,20,20,7.0,106.0
22211,87.0,0,20,7.0,106.0
22212,88.0,20,20,7.0,106.0
22213,41.0,18,40,7.0,106.0
22214,89.0,0,20,7.0,106.0
22215,40.0,0,40,7.0,106.0
22216,90.0,13,20,7.0,106.0
22217,91.0,0,20,7.0,106.0
22218,92.0,20,20,7.0,106.0
22219,39.0,20,40,7.0,106.0
22220,93.0,18,20,7.0,106.0
22221,38.0,0,40,7.0,106.0
22222,94.0,20,20,7.0,106.0
22223,74.0,20,120,8.0,117.0
22224,68.0,2,120,10.0,112.0
22225,65.0,2,120,11.0,117.0
22226,46.0,1,120,12.0,117.0
22227,34.0,2,120,13.0,127.0
22228,95.0,0,30,7.0,106.0
22229,36.0,20,40,7.0,106.0
22230,96.0,30,30,7.0,106.0
22231,80.0,1,120,1.0,98.0
22232,74.0,0,120,2.0,94.0
22233,65.0,1,120,4.0,107.0
22234,58.0,0,120,4.0,107.0
22235,35.0,10,40,7.0,106.0
22236,97.0,20,30,7.0,106.0
22237,98.0,10,30,7.0,106.0
22238,34.0,18,40,7.0,106.0
22239,80.0,1,60,1.0,98.0
22240,65.0,1,60,4.0,107.0
22241,58.0,0,60,4.0,107.0
22242,74.0,0,60,2.0,94.0
22243,55.0,0,0,10.0,112.0
22244,63.0,25,0,10.0,112.0
22245,58.0,2,0,11.0,117.0
22246,51.0,0,30,11.0,117.0
22247,51.0,0,30,11.0,117.0
22248,55.0,28,0,10.0,112.0
22249,63.0,28,30,10.0,112.0
22250,51.0,2,0,11.0,117.0
22251,58.0,2,30,11.0,117.0
22252,87.0,0,120,7.0,106.0
22253,94.0,0,120,7.0,106.0
22254,99.0,0,120,7.0,106.0
22255,91.0,0,120,7.0,106.0
22256,39.0,0,120,7.0,106.0
22257,55.0,0,120,8.0,117.0
22258,63.0,0,120,8.0,117.0
22259,63.0,0,30,10.0,112.0
22260,58.0,2,0,11.0,117.0
22261,51.0,1,120,6.0,122.0
22262,63.0,0,30,10.0,112.0
22263,55.0,28,30,10.0,112.0
22264,51.0,0,30,11.0,117.0
22265,58.0,0,0,11.0,117.0
22266,63.0,0,30,10.0,112.0
22267,55.0,28,30,10.0,112.0
22268,58.0,0,0,11.0,117.0
22269,51.0,2,0,11.0,117.0
22270,63.0,0,30,10.0,112.0
22271,55.0,28,30,10.0,112.0
22272,51.0,2,0,11.0,117.0
22273,55.0,28,30,10.0,112.0
22274,63.0,0,30,10.0,112.0
22275,58.0,0,30,11.0,117.0
22276,51.0,2,0,11.0,117.0
22277,55.0,0,30,10.0,112.0
22278,63.0,28,0,10.0,112.0
22279,58.0,0,30,11.0,117.0
22280,51.0,0,0,11.0,117.0
22281,87.0,0,300,0.0,94.0
22282,75.0,30,300,0.0,94.0
22283,75.0,0,300,8.0,117.0
22284,55.0,0,30,10.0,112.0
22285,63.0,2,0,10.0,112.0
22286,58.0,0,0,11.0,117.0
22287,51.0,2,0,11.0,117.0
22288,77.0,26,20,8.0,117.0
22289,77.0,0,20,0.0,94.0
22290,89.0,0,20,0.0,94.0
22291,55.0,12,0,10.0,112.0
22292,51.0,0,0,11.0,117.0
22293,75.0,16,20,8.0,117.0
22294,87.0,0,20,0.0,94.0
22295,75.0,0,20,0.0,94.0
22296,86.0,6,20,0.0,94.0
22297,74.0,0,20,0.0,94.0
22298,74.0,0,20,8.0,117.0
22299,63.0,0,30,10.0,112.0
22300,55.0,0,0,10.0,112.0
22301,58.0,2,30,11.0,117.0
22302,63.0,2,30,10.0,112.0
22303,58.0,0,0,11.0,117.0
22304,51.0,2,0,11.0,117.0
22305,75.0,0,45,8.0,117.0
22306,75.0,20,45,0.0,94.0
22307,87.0,0,45,0.0,94.0
22308,55.0,0,0,10.0,112.0
22309,63.0,2,0,10.0,112.0
22310,51.0,2,0,11.0,117.0
22311,63.0,28,0,10.0,112.0
22312,58.0,0,30,11.0,117.0
22313,77.0,0,45,8.0,117.0
22314,89.0,26,45,0.0,94.0
22315,77.0,0,45,0.0,94.0
22316,55.0,2,0,10.0,112.0
22317,63.0,0,0,10.0,112.0
22318,58.0,2,30,11.0,117.0
22319,51.0,0,30,11.0,117.0
22320,63.0,0,0,10.0,112.0
22321,58.0,2,0,11.0,117.0
22322,51.0,0,0,11.0,117.0
22323,55.0,26,30,10.0,112.0
22324,58.0,0,0,11.0,117.0
22325,51.0,2,0,11.0,117.0
22326,63.0,0,0,10.0,112.0
22327,55.0,28,0,10.0,112.0
22328,79.0,0,120,0.0,94.0
22329,91.0,0,120,0.0,94.0
22330,79.0,26,120,8.0,117.0
22331,63.0,0,600,5.0,104.0
22332,75.0,1,600,1.0,98.0
22333,79.0,0,600,1.0,98.0
22334,75.0,0,600,5.0,104.0
22335,63.0,0,600,4.0,107.0
22336,63.0,1,0,10.0,112.0
22337,67.0,0,600,2.0,94.0
22338,75.0,0,600,2.0,94.0
22339,51.0,0,0,4.0,107.0
22340,51.0,0,30,11.0,117.0
22341,58.0,0,0,11.0,117.0
22342,51.0,1,0,12.0,117.0
22343,51.0,1,0,6.0,122.0
22344,51.0,0,0,3.0,110.0
22345,39.0,1,0,13.0,127.0
22346,55.0,0,30,10.0,112.0
22347,51.0,2,0,11.0,117.0
22348,55.0,0,30,10.0,112.0
22349,63.0,25,30,10.0,112.0
22350,58.0,0,30,11.0,117.0
22351,51.0,0,0,11.0,117.0
22352,55.0,28,30,10.0,112.0
22353,63.0,0,0,10.0,112.0
22354,58.0,2,30,11.0,117.0
22355,75.0,0,120,8.0,117.0
22356,75.0,0,120,0.0,94.0
22357,87.0,26,120,0.0,94.0
22358,79.0,1,120,1.0,98.0
22359,75.0,0,120,1.0,98.0
22360,63.0,0,120,5.0,104.0
22361,75.0,0,120,5.0,104.0
22362,55.0,28,30,10.0,112.0
22363,63.0,0,120,4.0,107.0
22364,75.0,0,120,2.0,94.0
22365,67.0,0,120,2.0,94.0
22366,51.0,2,0,11.0,117.0
22367,58.0,2,30,11.0,117.0
22368,56.0,0,30,10.0,112.0
22369,63.0,0,0,10.0,112.0
22370,60.0,0,30,11.0,117.0
22371,56.0,25,30,10.0,112.0
22372,60.0,2,0,11.0,117.0
22373,51.0,2,30,11.0,117.0
22374,56.0,0,30,10.0,112.0
22375,63.0,28,0,10.0,112.0
22376,51.0,0,30,11.0,117.0
22377,72.0,26,120,0.0,94.0
22378,84.0,0,120,0.0,94.0
22379,72.0,0,120,8.0,117.0
22380,75.0,0,0,5.0,104.0
22381,84.0,1,120,1.0,98.0
22382,80.0,0,120,1.0,98.0
22383,63.0,1,0,5.0,104.0
22384,68.0,0,120,2.0,94.0
22385,72.0,1,120,2.0,94.0
22386,63.0,0,0,10.0,112.0
22387,56.0,0,30,10.0,112.0
22388,51.0,0,120,4.0,107.0
22389,63.0,0,120,4.0,107.0
22390,51.0,2,0,11.0,117.0
22391,60.0,2,30,11.0,117.0
22392,56.0,1,120,12.0,117.0
22393,55.0,0,120,3.0,110.0
22394,51.0,1,120,6.0,122.0
22395,44.0,1,120,13.0,127.0
22396,55.0,0,30,10.0,112.0
22397,51.0,2,0,11.0,117.0
22398,58.0,0,0,11.0,117.0
22399,63.0,0,0,10.0,112.0
22400,55.0,28,0,10.0,112.0
22401,51.0,2,0,11.0,117.0
22402,82.0,26,0,0.0,94.0
22403,70.0,0,90,8.0,117.0
22404,70.0,0,0,0.0,94.0
22405,63.0,2,0,10.0,112.0
22406,58.0,0,0,11.0,117.0
22407,51.0,2,0,11.0,117.0
22408,70.0,0,30,8.0,117.0
22409,79.0,0,120,1.0,98.0
22410,82.0,0,120,1.0,98.0
22411,75.0,1,0,5.0,104.0
22412,70.0,1,120,2.0,94.0
22413,67.0,0,120,2.0,94.0
22414,51.0,0,0,4.0,107.0
22415,63.0,0,0,4.0,107.0
22416,55.0,0,0,10.0,112.0
22417,51.0,2,0,11.0,117.0
22418,51.0,1,0,12.0,117.0
22419,51.0,1,0,6.0,122.0
22420,51.0,0,0,3.0,110.0
22421,39.0,1,120,13.0,127.0
22422,63.0,0,30,8.0,117.0
22423,75.0,0,0,8.0,117.0
22424,63.0,2,0,10.0,112.0
22425,58.0,0,30,11.0,117.0
22426,50.0,14,15,6.0,122.0
22427,51.0,2,15,6.0,122.0
22428,75.0,26,60,0.0,94.0
22429,87.0,0,60,0.0,94.0
22430,63.0,9,0,8.0,117.0
22431,75.0,0,0,8.0,117.0
22432,75.0,1,0,1.0,98.0
22433,63.0,0,0,5.0,104.0
22434,75.0,0,0,5.0,104.0
22435,63.0,0,60,2.0,94.0
22436,63.0,1,0,4.0,107.0
22437,63.0,0,0,10.0,112.0
22438,55.0,0,0,10.0,112.0
22439,75.0,1,60,2.0,94.0
22440,51.0,0,30,11.0,117.0
22441,58.0,2,30,11.0,117.0
22442,51.0,1,0,12.0,117.0
22443,50.0,15,15,6.0,122.0
22444,63.0,0,60,3.0,110.0
22445,39.0,1,0,13.0,127.0
22446,51.0,0,15,6.0,122.0
22447,75.0,9,0,8.0,117.0
22448,58.0,0,0,11.0,117.0
22449,51.0,2,0,11.0,117.0
22450,50.0,14,15,6.0,122.0
22451,51.0,2,15,6.0,122.0
22452,63.0,0,30,8.0,117.0
22453,63.0,2,30,10.0,112.0
22454,51.0,0,60,4.0,107.0
22455,55.0,0,0,10.0,112.0
22456,51.0,2,0,11.0,117.0
22457,50.0,15,15,6.0,122.0
22458,51.0,0,60,3.0,110.0
22459,51.0,1,15,6.0,122.0
22460,63.0,0,30,8.0,117.0
22461,75.0,9,30,8.0,117.0
22462,63.0,2,0,10.0,112.0
22463,51.0,0,0,11.0,117.0
22464,58.0,2,0,11.0,117.0
22465,50.0,14,15,6.0,122.0
22466,51.0,2,15,6.0,122.0
22467,87.0,0,120,0.0,94.0
22468,75.0,0,120,0.0,94.0
22469,75.0,9,30,8.0,117.0
22470,63.0,0,30,8.0,117.0
22471,63.0,1,0,5.0,104.0
22472,75.0,0,0,5.0,104.0
22473,63.0,1,0,10.0,112.0
22474,55.0,0,30,10.0,112.0
22475,51.0,1,60,4.0,107.0
22476,63.0,0,120,2.0,94.0
22477,63.0,0,0,4.0,107.0
22478,75.0,0,0,2.0,94.0
22479,58.0,0,0,11.0,117.0
22480,51.0,2,0,11.0,117.0
22481,51.0,1,0,12.0,117.0
22482,51.0,0,0,3.0,110.0
22483,50.0,15,15,6.0,122.0
22484,63.0,0,0,3.0,110.0
22485,39.0,1,0,13.0,127.0
22486,51.0,1,15,6.0,122.0
22487,75.0,0,30,8.0,117.0
22488,63.0,0,0,8.0,117.0
22489,63.0,2,0,10.0,112.0
22490,55.0,0,30,10.0,112.0
22491,51.0,0,0,11.0,117.0
22492,50.0,14,15,6.0,122.0
22493,51.0,2,15,6.0,122.0
22494,75.0,9,30,8.0,117.0
22495,51.0,0,60,4.0,107.0
22496,63.0,0,0,4.0,107.0
22497,63.0,0,0,10.0,112.0
22498,55.0,0,0,10.0,112.0
22499,58.0,0,0,11.0,117.0
22500,51.0,1,0,12.0,117.0
22501,50.0,15,15,6.0,122.0
22502,51.0,1,0,3.0,110.0
22503,51.0,0,15,6.0,122.0
22504,51.0,2,30,11.0,117.0
22505,58.0,2,0,11.0,117.0
22506,50.0,14,15,6.0,122.0
22507,63.0,9,45,8.0,117.0
22508,75.0,0,45,8.0,117.0
22509,51.0,2,15,6.0,122.0
22510,87.0,9,0,0.0,94.0
22511,75.0,0,0,0.0,94.0
22512,75.0,1,60,5.0,104.0
22513,75.0,0,0,1.0,98.0
22514,63.0,1,0,5.0,104.0
22515,51.0,1,60,4.0,107.0
22516,55.0,0,30,10.0,112.0
22517,63.0,11,30,10.0,112.0
22518,63.0,0,120,2.0,94.0
22519,75.0,0,0,2.0,94.0
22520,51.0,0,30,11.0,117.0
22521,58.0,2,0,11.0,117.0
22522,51.0,1,0,12.0,117.0
22523,63.0,0,0,3.0,110.0
22524,50.0,15,15,6.0,122.0
22525,51.0,0,0,3.0,110.0
22526,39.0,1,0,13.0,127.0
22527,77.0,0,20,8.0,117.0
22528,51.0,1,15,6.0,122.0
22529,55.0,0,30,10.0,112.0
22530,63.0,1,30,10.0,112.0
22531,51.0,0,30,11.0,117.0
22532,58.0,0,0,11.0,117.0
22533,50.0,1,15,6.0,122.0
22534,75.0,13,20,8.0,117.0
22535,51.0,2,15,6.0,122.0
22536,74.0,4,20,8.0,117.0
22537,75.0,1,0,5.0,104.0
22538,63.0,0,60,4.0,107.0
22539,51.0,0,60,4.0,107.0
22540,55.0,11,30,10.0,112.0
22541,63.0,1,0,10.0,112.0
22542,58.0,2,0,11.0,117.0
22543,51.0,2,30,11.0,117.0
22544,51.0,1,0,3.0,110.0
22545,50.0,11,15,6.0,122.0
22546,51.0,0,15,6.0,122.0
22547,75.0,9,30,8.0,117.0
22548,55.0,2,0,10.0,112.0
22549,58.0,0,0,11.0,117.0
22550,51.0,2,0,11.0,117.0
22551,50.0,14,15,6.0,122.0
22552,51.0,2,15,6.0,122.0
22553,75.0,9,30,8.0,117.0
22554,63.0,1,0,5.0,104.0
22555,63.0,0,60,4.0,107.0
22556,51.0,0,0,4.0,107.0
22557,63.0,0,120,2.0,94.0
22558,63.0,0,0,10.0,112.0
22559,51.0,1,0,12.0,117.0
22560,50.0,15,15,6.0,122.0
22561,39.0,1,60,13.0,127.0
22562,51.0,0,15,6.0,122.0
22563,77.0,0,30,8.0,117.0
22564,55.0,0,30,10.0,112.0
22565,58.0,0,30,11.0,117.0
22566,51.0,2,30,11.0,117.0
22567,50.0,14,15,6.0,122.0
22568,51.0,2,15,6.0,122.0
22569,77.0,9,60,0.0,94.0
22570,77.0,9,30,8.0,117.0
22571,89.0,0,60,0.0,94.0
22572,75.0,1,0,5.0,104.0
22573,77.0,0,60,1.0,98.0
22574,63.0,0,0,5.0,104.0
22575,65.0,0,60,2.0,94.0
22576,77.0,1,60,2.0,94.0
22577,63.0,0,30,10.0,112.0
22578,63.0,1,0,4.0,107.0
22579,55.0,2,30,10.0,112.0
22580,58.0,2,0,11.0,117.0
22581,51.0,0,0,11.0,117.0
22582,51.0,1,0,12.0,117.0
22583,51.0,0,60,3.0,110.0
22584,65.0,1,60,3.0,110.0
22585,50.0,15,15,6.0,122.0
22586,39.0,1,60,13.0,127.0
22587,79.0,9,30,8.0,117.0
22588,67.0,0,30,10.0,112.0
22589,91.0,0,60,0.0,94.0
22590,79.0,23,30,8.0,117.0
22591,79.0,26,0,0.0,94.0
22592,79.0,0,60,1.0,98.0
22593,79.0,0,60,2.0,94.0
22594,67.0,1,0,10.0,112.0
22595,67.0,0,60,2.0,94.0
22596,51.0,2,30,11.0,117.0
22597,58.0,2,0,11.0,117.0
22598,51.0,1,0,12.0,117.0
22599,51.0,0,60,3.0,110.0
22600,67.0,1,0,3.0,110.0
22601,39.0,1,0,13.0,127.0
22602,79.0,23,0,8.0,117.0
22603,51.0,0,30,11.0,117.0
22604,58.0,2,0,11.0,117.0
22605,63.0,1,0,5.0,104.0
22606,67.0,2,30,10.0,112.0
22607,51.0,0,0,4.0,107.0
22608,63.0,1,0,4.0,107.0
22609,51.0,2,0,11.0,117.0
22610,51.0,1,0,3.0,110.0
22611,51.0,1,120,6.0,122.0
22612,75.0,26,30,8.0,117.0
22613,63.0,0,30,10.0,112.0
22614,55.0,2,0,11.0,117.0
22615,75.0,26,0,8.0,117.0
22616,91.0,0,120,0.0,94.0
22617,79.0,1,120,1.0,98.0
22618,79.0,0,120,2.0,94.0
22619,67.0,0,120,2.0,94.0
22620,63.0,0,0,10.0,112.0
22621,51.0,0,30,11.0,117.0
22622,51.0,1,0,12.0,117.0
22623,39.0,1,60,13.0,127.0
22624,75.0,23,0,8.0,117.0
22625,63.0,2,0,10.0,112.0
22626,51.0,0,30,11.0,117.0
22627,55.0,2,30,11.0,117.0
22628,75.0,0,120,5.0,104.0
22629,63.0,0,0,4.0,107.0
22630,51.0,1,0,4.0,107.0
22631,55.0,2,30,11.0,117.0
22632,51.0,0,0,11.0,117.0
22633,51.0,0,120,6.0,122.0
22634,51.0,0,60,3.0,110.0
22635,39.0,1,60,13.0,127.0
22636,72.0,23,0,8.0,117.0
22637,60.0,2,0,10.0,112.0
22638,56.0,0,0,11.0,117.0
22639,51.0,2,0,11.0,117.0
22640,75.0,0,120,0.0,94.0
22641,87.0,0,120,0.0,94.0
22642,75.0,1,120,1.0,98.0
22643,75.0,1,120,2.0,94.0
22644,63.0,0,120,2.0,94.0
22645,56.0,0,0,11.0,117.0
22646,51.0,2,0,11.0,117.0
22647,56.0,1,0,12.0,117.0
22648,56.0,1,0,3.0,110.0
22649,63.0,1,120,3.0,110.0
22650,44.0,1,60,13.0,127.0
22651,72.0,0,30,8.0,117.0
22652,60.0,2,0,10.0,112.0
22653,72.0,23,30,8.0,117.0
22654,63.0,0,120,5.0,104.0
22655,75.0,0,0,5.0,104.0
22656,51.0,2,0,11.0,117.0
22657,56.0,2,30,11.0,117.0
22658,51.0,1,120,6.0,122.0
22659,44.0,1,60,13.0,127.0
22660,71.0,23,0,8.0,117.0
22661,59.0,1,30,10.0,112.0
22662,55.0,2,0,11.0,117.0
22663,51.0,0,0,11.0,117.0
22664,72.0,0,120,0.0,94.0
22665,71.0,26,0,8.0,117.0
22666,84.0,26,120,0.0,94.0
22667,72.0,1,120,1.0,98.0
22668,59.0,1,0,10.0,112.0
22669,72.0,1,120,2.0,94.0
22670,60.0,0,120,2.0,94.0
22671,51.0,2,0,11.0,117.0
22672,55.0,1,60,12.0,117.0
22673,55.0,1,60,3.0,110.0
22674,60.0,0,120,3.0,110.0
22675,43.0,1,0,13.0,127.0
22676,55.0,2,0,11.0,117.0
22677,51.0,0,0,11.0,117.0
22678,71.0,23,30,8.0,117.0
22679,71.0,0,60,0.0,94.0
22680,83.0,0,60,0.0,94.0
22681,71.0,1,60,1.0,98.0
22682,75.0,1,0,5.0,104.0
22683,63.0,1,120,5.0,104.0
22684,59.0,2,30,10.0,112.0
22685,59.0,0,60,2.0,94.0
22686,51.0,0,0,4.0,107.0
22687,63.0,1,0,4.0,107.0
22688,71.0,0,60,2.0,94.0
22689,55.0,1,60,12.0,117.0
22690,59.0,1,60,3.0,110.0
22691,51.0,0,0,6.0,122.0
22692,55.0,0,60,3.0,110.0
22693,84.0,0,0,0.0,94.0
22694,72.0,353,0,0.0,94.0
22695,72.0,0,360,8.0,117.0
22696,72.0,0,360,1.0,98.0
22697,75.0,1,0,5.0,104.0
22698,63.0,0,0,5.0,104.0
22699,72.0,0,0,2.0,94.0
22700,60.0,0,0,2.0,94.0
22701,60.0,0,360,10.0,112.0
22702,56.0,2,0,11.0,117.0
22703,56.0,1,360,12.0,117.0
22704,56.0,0,360,3.0,110.0
22705,60.0,1,0,3.0,110.0
22706,44.0,1,360,13.0,127.0
22707,84.0,0,79,8.0,117.0
22708,72.0,0,79,1.0,98.0
22709,84.0,0,79,1.0,98.0
22710,63.0,0,79,4.0,107.0
22711,51.0,0,79,4.0,107.0
22712,63.0,1,79,10.0,112.0
22713,72.0,0,79,10.0,112.0
22714,44.0,1,79,12.0,117.0
22715,51.0,0,79,6.0,122.0
22716,56.0,0,79,3.0,110.0
22717,32.0,1,79,13.0,127.0
22718,84.0,0,24,0.0,94.0
22719,72.0,83,24,0.0,94.0
22720,84.0,0,24,8.0,117.0
22721,84.0,0,24,1.0,98.0
22722,72.0,0,24,1.0,98.0
22723,63.0,0,24,5.0,104.0
22724,75.0,1,24,5.0,104.0
22725,72.0,0,24,2.0,94.0
22726,63.0,0,24,10.0,112.0
22727,63.0,1,24,4.0,107.0
22728,72.0,0,24,10.0,112.0
22729,51.0,0,24,4.0,107.0
22730,60.0,0,24,2.0,94.0
22731,56.0,2,24,11.0,117.0
22732,44.0,1,24,12.0,117.0
22733,60.0,0,24,3.0,110.0
22734,56.0,0,24,3.0,110.0
22735,51.0,1,24,6.0,122.0
22736,32.0,1,24,13.0,127.0
22737,84.0,113,0,8.0,117.0
22738,72.0,0,120,0.0,94.0
22739,84.0,0,0,0.0,94.0
22740,63.0,0,120,5.0,104.0
22741,75.0,0,120,1.0,98.0
22742,84.0,0,120,1.0,98.0
22743,75.0,1,0,5.0,104.0
22744,72.0,1,120,10.0,112.0
22745,63.0,0,0,10.0,112.0
22746,51.0,0,120,4.0,107.0
22747,60.0,0,0,2.0,94.0
22748,63.0,0,0,4.0,107.0
22749,72.0,0,0,2.0,94.0
22750,56.0,2,0,11.0,117.0
22751,44.0,1,120,12.0,117.0
22752,60.0,0,0,3.0,110.0
22753,56.0,1,0,3.0,110.0
22754,51.0,0,0,6.0,122.0
22755,32.0,1,0,13.0,127.0
22756,72.0,0,79,0.0,94.0
22757,63.0,0,79,5.0,104.0
22758,84.0,0,79,1.0,98.0
22759,75.0,0,79,1.0,98.0
22760,72.0,1,79,10.0,112.0
22761,51.0,0,79,4.0,107.0
22762,44.0,1,79,12.0,117.0
22763,84.0,0,24,8.0,117.0
22764,84.0,83,24,0.0,94.0
22765,72.0,0,24,0.0,94.0
22766,63.0,1,24,5.0,104.0
22767,75.0,0,24,5.0,104.0
22768,75.0,0,24,1.0,98.0
22769,84.0,0,24,1.0,98.0
22770,72.0,0,24,10.0,112.0
22771,60.0,0,24,2.0,94.0
22772,72.0,0,24,2.0,94.0
22773,63.0,0,24,10.0,112.0
22774,63.0,0,24,4.0,107.0
22775,51.0,1,24,4.0,107.0
22776,56.0,2,24,11.0,117.0
22777,44.0,1,24,12.0,117.0
22778,60.0,0,24,3.0,110.0
22779,51.0,0,24,6.0,122.0
22780,56.0,1,24,3.0,110.0
22781,32.0,1,24,13.0,127.0
22782,84.0,0,120,0.0,94.0
22783,84.0,113,0,8.0,117.0
22784,72.0,0,0,0.0,94.0
22785,75.0,1,120,5.0,104.0
22786,63.0,0,120,5.0,104.0
22787,84.0,0,120,1.0,98.0
22788,75.0,0,0,1.0,98.0
22789,63.0,0,120,4.0,107.0
22790,63.0,0,120,10.0,112.0
22791,51.0,0,0,4.0,107.0
22792,72.0,1,0,10.0,112.0
22793,72.0,0,120,2.0,94.0
22794,60.0,0,0,2.0,94.0
22795,56.0,2,0,11.0,117.0
22796,44.0,1,120,12.0,117.0
22797,60.0,0,120,3.0,110.0
22798,51.0,0,120,6.0,122.0
22799,56.0,1,0,3.0,110.0
22800,32.0,1,120,13.0,127.0
22801,84.0,0,79,0.0,94.0
22802,84.0,0,79,1.0,98.0
22803,63.0,1,79,5.0,104.0
22804,75.0,0,79,5.0,104.0
22805,63.0,0,79,10.0,112.0
22806,63.0,0,79,4.0,107.0
22807,72.0,0,79,2.0,94.0
22808,44.0,1,79,12.0,117.0
22809,60.0,0,79,3.0,110.0
22810,51.0,0,79,6.0,122.0
22811,32.0,1,79,13.0,127.0
22812,84.0,0,24,8.0,117.0
22813,84.0,0,24,0.0,94.0
22814,72.0,83,24,0.0,94.0
22815,75.0,0,24,1.0,98.0
22816,63.0,1,24,5.0,104.0
22817,75.0,0,24,5.0,104.0
22818,84.0,0,24,1.0,98.0
22819,72.0,0,24,10.0,112.0
22820,63.0,1,24,10.0,112.0
22821,63.0,0,24,4.0,107.0
22822,51.0,0,24,4.0,107.0
22823,72.0,0,24,2.0,94.0
22824,60.0,0,24,2.0,94.0
22825,56.0,2,24,11.0,117.0
22826,44.0,1,24,12.0,117.0
22827,56.0,0,24,3.0,110.0
22828,60.0,0,24,3.0,110.0
22829,51.0,1,24,6.0,122.0
22830,32.0,1,24,13.0,127.0
22831,32.0,53,15,7.0,127.0
22832,36.0,15,15,7.0,127.0
22833,39.0,15,15,7.0,127.0
22834,44.0,15,15,7.0,127.0
22835,75.0,0,120,8.0,117.0
22836,68.0,0,120,8.0,117.0
22837,51.0,0,120,6.0,122.0
22838,48.0,15,15,7.0,127.0
22839,51.0,15,15,7.0,127.0
22840,56.0,15,15,7.0,127.0
22841,60.0,15,15,7.0,127.0
22842,63.0,15,15,7.0,127.0
22843,68.0,15,15,7.0,127.0
22844,72.0,15,15,7.0,127.0
22845,75.0,15,15,7.0,127.0
22846,80.0,15,15,7.0,127.0
22847,84.0,15,15,7.0,127.0
22848,87.0,15,15,7.0,127.0
22849,92.0,15,15,7.0,127.0
22850,84.0,0,345,8.0,117.0
22851,84.0,23,345,0.0,94.0
22852,72.0,0,345,0.0,94.0
22853,75.0,0,345,5.0,104.0
22854,63.0,0,345,5.0,104.0
22855,75.0,0,345,1.0,98.0
22856,84.0,1,345,1.0,98.0
22857,72.0,0,345,10.0,112.0
22858,63.0,0,345,10.0,112.0
22859,63.0,1,345,4.0,107.0
22860,51.0,0,345,4.0,107.0
22861,60.0,0,345,2.0,94.0
22862,72.0,0,345,2.0,94.0
22863,56.0,2,345,11.0,117.0
22864,44.0,1,345,12.0,117.0
22865,60.0,1,345,3.0,110.0
22866,56.0,0,345,3.0,110.0
22867,32.0,1,345,13.0,127.0
22868,96.0,15,60,7.0,127.0
22869,86.0,0,15,0.0,94.0
22870,86.0,60,15,8.0,117.0
22871,74.0,0,15,10.0,112.0
22872,62.0,1,15,2.0,94.0
22873,74.0,0,15,2.0,94.0
22874,62.0,0,15,3.0,110.0
22875,84.0,0,15,8.0,117.0
22876,84.0,8,15,0.0,94.0
22877,60.0,0,15,2.0,94.0
22878,72.0,2,15,10.0,112.0
22879,72.0,0,15,2.0,94.0
22880,60.0,4,15,3.0,110.0
22881,83.0,0,15,0.0,94.0
22882,83.0,9,15,8.0,117.0
22883,59.0,0,15,2.0,94.0
22884,71.0,2,15,10.0,112.0
22885,71.0,0,15,2.0,94.0
22886,59.0,4,15,3.0,110.0
22887,75.0,0,79,5.0,104.0
22888,63.0,1,79,5.0,104.0
22889,84.0,9,36,0.0,94.0
22890,63.0,0,79,4.0,107.0
22891,84.0,0,36,8.0,117.0
22892,51.0,0,79,4.0,107.0
22893,72.0,0,36,10.0,112.0
22894,56.0,2,79,11.0,117.0
22895,72.0,0,36,2.0,94.0
22896,60.0,2,36,2.0,94.0
22897,44.0,1,79,12.0,117.0
22898,51.0,1,79,6.0,122.0
22899,32.0,1,79,13.0,127.0
22900,60.0,4,36,3.0,110.0
22901,86.0,39,24,0.0,94.0
22902,86.0,0,24,8.0,117.0
22903,75.0,1,24,5.0,104.0
22904,63.0,0,24,5.0,104.0
22905,51.0,0,24,4.0,107.0
22906,74.0,0,24,10.0,112.0
22907,62.0,1,24,2.0,94.0
22908,74.0,0,24,2.0,94.0
22909,63.0,0,24,4.0,107.0
22910,56.0,2,24,11.0,117.0
22911,44.0,1,24,12.0,117.0
22912,62.0,1,24,3.0,110.0
22913,51.0,0,24,6.0,122.0
22914,32.0,1,24,13.0,127.0
22915,51.0,1,120,6.0,122.0
22916,87.0,23,330,8.0,117.0
22917,84.0,0,330,0.0,94.0
22918,87.0,0,330,0.0,94.0
22919,63.0,0,330,5.0,104.0
22920,75.0,1,330,5.0,104.0
22921,75.0,0,330,1.0,98.0
22922,84.0,0,330,1.0,98.0
22923,51.0,0,330,4.0,107.0
22924,75.0,0,330,10.0,112.0
22925,65.0,0,330,10.0,112.0
22926,63.0,0,330,4.0,107.0
22927,72.0,0,330,2.0,94.0
22928,60.0,1,330,2.0,94.0
22929,57.0,2,330,11.0,117.0
22930,45.0,1,330,12.0,117.0
22931,60.0,0,330,3.0,110.0
22932,57.0,0,330,3.0,110.0
22933,33.0,1,330,13.0,127.0
22934,87.0,0,79,0.0,94.0
22935,84.0,353,79,0.0,94.0
22936,87.0,0,79,8.0,117.0
22937,63.0,0,79,5.0,104.0
22938,84.0,1,79,1.0,98.0
22939,75.0,0,79,1.0,98.0
22940,75.0,0,79,5.0,104.0
22941,60.0,1,79,2.0,94.0
22942,72.0,0,79,2.0,94.0
22943,63.0,0,79,4.0,107.0
22944,51.0,0,79,4.0,107.0
22945,84.0,0,79,10.0,112.0
22946,75.0,0,79,10.0,112.0
22947,57.0,2,79,11.0,117.0
22948,65.0,0,79,11.0,117.0
22949,45.0,1,79,12.0,117.0
22950,57.0,0,79,3.0,110.0
22951,51.0,1,79,6.0,122.0
22952,60.0,0,79,3.0,110.0
22953,33.0,1,79,13.0,127.0
22954,87.0,0,24,8.0,117.0
22955,84.0,0,24,0.0,94.0
22956,87.0,83,24,0.0,94.0
22957,75.0,0,24,1.0,98.0
22958,84.0,0,24,1.0,98.0
22959,63.0,0,24,5.0,104.0
22960,75.0,1,24,5.0,104.0
22961,63.0,0,24,4.0,107.0
22962,84.0,0,24,10.0,112.0
22963,75.0,1,24,10.0,112.0
22964,51.0,0,24,4.0,107.0
22965,60.0,0,24,2.0,94.0
22966,72.0,0,24,2.0,94.0
22967,65.0,0,24,11.0,117.0
22968,57.0,2,24,11.0,117.0
22969,45.0,1,24,12.0,117.0
22970,51.0,0,24,6.0,122.0
22971,60.0,0,24,3.0,110.0
22972,57.0,1,24,3.0,110.0
22973,33.0,1,24,13.0,127.0
22974,87.0,23,120,0.0,94.0
22975,87.0,0,120,8.0,117.0
22976,84.0,0,0,0.0,94.0
22977,84.0,0,120,1.0,98.0
22978,75.0,0,120,1.0,98.0
22979,75.0,0,120,5.0,104.0
22980,63.0,0,0,5.0,104.0
22981,72.0,0,120,2.0,94.0
22982,60.0,0,120,2.0,94.0
22983,75.0,0,120,10.0,112.0
22984,63.0,0,0,4.0,107.0
22985,51.0,0,0,4.0,107.0
22986,84.0,0,0,10.0,112.0
22987,57.0,2,120,11.0,117.0
22988,65.0,0,120,11.0,117.0
22989,45.0,1,120,12.0,117.0
22990,60.0,0,120,3.0,110.0
22991,57.0,1,0,3.0,110.0
22992,51.0,0,0,6.0,122.0
22993,33.0,1,0,13.0,127.0
22994,87.0,113,79,0.0,94.0
22995,87.0,0,79,8.0,117.0
22996,84.0,1,79,1.0,98.0
22997,75.0,0,79,5.0,104.0
22998,75.0,0,79,1.0,98.0
22999,60.0,0,79,2.0,94.0
23000,75.0,0,79,10.0,112.0
23001,72.0,1,79,2.0,94.0
23002,57.0,2,79,11.0,117.0
23003,65.0,0,79,11.0,117.0
23004,45.0,1,79,12.0,117.0
23005,60.0,0,79,3.0,110.0
23006,87.0,83,24,8.0,117.0
23007,84.0,0,24,0.0,94.0
23008,87.0,0,24,0.0,94.0
23009,84.0,0,24,1.0,98.0
23010,63.0,0,24,5.0,104.0
23011,75.0,0,24,5.0,104.0
23012,75.0,1,24,1.0,98.0
23013,84.0,0,24,10.0,112.0
23014,75.0,0,24,10.0,112.0
23015,63.0,0,24,4.0,107.0
23016,60.0,0,24,2.0,94.0
23017,51.0,1,24,4.0,107.0
23018,72.0,0,24,2.0,94.0
23019,57.0,2,24,11.0,117.0
23020,65.0,0,24,11.0,117.0
23021,45.0,1,24,12.0,117.0
23022,60.0,0,24,3.0,110.0
23023,57.0,1,24,3.0,110.0
23024,51.0,0,24,6.0,122.0
23025,33.0,1,24,13.0,127.0
23026,87.0,0,120,0.0,94.0
23027,84.0,0,120,0.0,94.0
23028,87.0,23,120,8.0,117.0
23029,75.0,0,120,1.0,98.0
23030,84.0,0,120,1.0,98.0
23031,75.0,0,120,5.0,104.0
23032,63.0,1,0,5.0,104.0
23033,75.0,0,120,10.0,112.0
23034,84.0,0,0,10.0,112.0
23035,72.0,0,0,2.0,94.0
23036,51.0,0,120,4.0,107.0
23037,63.0,0,0,4.0,107.0
23038,60.0,1,0,2.0,94.0
23039,65.0,2,0,11.0,117.0
23040,57.0,0,120,11.0,117.0
23041,45.0,1,120,12.0,117.0
23042,51.0,1,0,6.0,122.0
23043,60.0,1,120,3.0,110.0
23044,57.0,0,0,3.0,110.0
23045,33.0,1,120,13.0,127.0
23046,87.0,113,79,0.0,94.0
23047,87.0,0,79,8.0,117.0
23048,84.0,0,79,0.0,94.0
23049,75.0,0,79,5.0,104.0
23050,84.0,0,79,1.0,98.0
23051,75.0,0,79,1.0,98.0
23052,51.0,0,79,4.0,107.0
23053,75.0,0,79,10.0,112.0
23054,57.0,0,79,11.0,117.0
23055,45.0,1,79,12.0,117.0
23056,60.0,0,79,3.0,110.0
23057,33.0,1,79,13.0,127.0
23058,87.0,0,24,8.0,117.0
23059,87.0,83,24,0.0,94.0
23060,84.0,0,24,0.0,94.0
23061,63.0,0,24,5.0,104.0
23062,75.0,1,24,1.0,98.0
23063,84.0,0,24,1.0,98.0
23064,75.0,0,24,5.0,104.0
23065,75.0,0,24,10.0,112.0
23066,84.0,0,24,10.0,112.0
23067,60.0,0,24,2.0,94.0
23068,63.0,1,24,4.0,107.0
23069,72.0,0,24,2.0,94.0
23070,51.0,0,24,4.0,107.0
23071,65.0,0,24,11.0,117.0
23072,57.0,2,24,11.0,117.0
23073,45.0,1,24,12.0,117.0
23074,57.0,0,24,3.0,110.0
23075,60.0,0,24,3.0,110.0
23076,51.0,1,24,6.0,122.0
23077,33.0,1,24,13.0,127.0
23078,33.0,53,15,7.0,127.0
23079,36.0,15,10,7.0,127.0
23080,39.0,10,10,7.0,127.0
23081,41.0,10,10,7.0,127.0
23082,45.0,10,10,7.0,127.0
23083,48.0,10,10,7.0,127.0
23084,51.0,1,120,6.0,122.0
23085,51.0,10,10,7.0,127.0
23086,53.0,10,10,7.0,127.0
23087,57.0,10,10,7.0,127.0
23088,60.0,10,10,7.0,127.0
23089,63.0,10,10,7.0,127.0
23090,65.0,10,10,7.0,127.0
23091,69.0,10,10,7.0,127.0
23092,72.0,10,10,7.0,127.0
23093,75.0,10,10,7.0,127.0
23094,77.0,10,10,7.0,127.0
23095,81.0,10,10,7.0,127.0
23096,84.0,10,10,7.0,127.0
23097,87.0,10,10,7.0,127.0
23098,89.0,10,10,7.0,127.0
23099,93.0,10,10,7.0,127.0
23100,96.0,10,10,7.0,127.0
23101,84.0,0,345,0.0,94.0
23102,87.0,23,345,0.0,94.0
23103,99.0,10,60,7.0,127.0
23104,87.0,0,345,8.0,117.0
23105,75.0,1,345,5.0,104.0
23106,63.0,0,345,5.0,104.0
23107,84.0,0,345,1.0,98.0
23108,75.0,0,345,1.0,98.0
23109,84.0,1,345,10.0,112.0
23110,75.0,0,345,10.0,112.0
23111,51.0,0,345,4.0,107.0
23112,63.0,0,345,4.0,107.0
23113,60.0,0,345,2.0,94.0
23114,72.0,0,345,2.0,94.0
23115,65.0,0,345,11.0,117.0
23116,57.0,2,345,11.0,117.0
23117,45.0,1,345,12.0,117.0
23118,57.0,0,345,3.0,110.0
23119,60.0,0,345,3.0,110.0
23120,33.0,1,345,13.0,127.0
23121,77.0,75,15,8.0,117.0
23122,77.0,0,15,0.0,94.0
23123,89.0,0,15,0.0,94.0
23124,77.0,0,15,2.0,94.0
23125,65.0,0,15,2.0,94.0
23126,75.0,0,15,8.0,117.0
23127,87.0,0,15,0.0,94.0
23128,75.0,8,15,0.0,94.0
23129,75.0,2,15,2.0,94.0
23130,63.0,0,15,2.0,94.0
23131,74.0,13,15,8.0,117.0
23132,86.0,0,15,0.0,94.0
23133,74.0,0,15,0.0,94.0
23134,62.0,2,15,2.0,94.0
23135,74.0,0,15,2.0,94.0
23136,75.0,0,79,5.0,104.0
23137,63.0,0,79,5.0,104.0
23138,84.0,0,79,1.0,98.0
23139,72.0,1,79,1.0,98.0
23140,87.0,0,36,0.0,94.0
23141,75.0,13,36,0.0,94.0
23142,63.0,0,79,4.0,107.0
23143,51.0,0,79,4.0,107.0
23144,75.0,1,79,10.0,112.0
23145,65.0,0,79,10.0,112.0
23146,75.0,0,36,8.0,117.0
23147,63.0,0,36,2.0,94.0
23148,75.0,2,36,2.0,94.0
23149,57.0,2,79,11.0,117.0
23150,45.0,1,79,12.0,117.0
23151,60.0,0,79,3.0,110.0
23152,57.0,1,79,3.0,110.0
23153,51.0,0,79,6.0,122.0
23154,33.0,1,79,13.0,127.0
23155,77.0,43,24,0.0,94.0
23156,89.0,0,24,0.0,94.0
23157,77.0,0,24,8.0,117.0
23158,63.0,0,24,5.0,104.0
23159,72.0,0,24,1.0,98.0
23160,75.0,1,24,5.0,104.0
23161,84.0,0,24,1.0,98.0
23162,51.0,0,24,4.0,107.0
23163,77.0,0,24,2.0,94.0
23164,65.0,1,24,10.0,112.0
23165,63.0,0,24,4.0,107.0
23166,65.0,0,24,2.0,94.0
23167,75.0,0,24,10.0,112.0
23168,57.0,2,24,11.0,117.0
23169,45.0,1,24,12.0,117.0
23170,51.0,0,24,6.0,122.0
23171,57.0,0,24,3.0,110.0
23172,60.0,1,24,3.0,110.0
23173,33.0,1,24,13.0,127.0
23174,63.0,0,120,8.0,117.0
23175,70.0,0,120,8.0,117.0
23176,55.0,0,120,8.0,117.0
23177,51.0,0,120,6.0,122.0
23178,79.0,0,330,8.0,117.0
23179,91.0,0,330,0.0,94.0
23180,87.0,23,330,0.0,94.0
23181,75.0,0,330,1.0,98.0
23182,63.0,0,330,5.0,104.0
23183,75.0,0,330,5.0,104.0
23184,82.0,1,330,1.0,98.0
23185,67.0,0,330,10.0,112.0
23186,75.0,0,330,10.0,112.0
23187,75.0,0,330,2.0,94.0
23188,63.0,0,330,4.0,107.0
23189,51.0,1,330,4.0,107.0
23190,67.0,0,330,2.0,94.0
23191,58.0,2,330,11.0,117.0
23192,46.0,1,330,12.0,117.0
23193,58.0,1,330,3.0,110.0
23194,63.0,0,330,3.0,110.0
23195,34.0,1,330,13.0,127.0
23196,87.0,0,79,0.0,94.0
23197,79.0,353,79,8.0,117.0
23198,91.0,0,79,0.0,94.0
23199,63.0,0,79,5.0,104.0
23200,82.0,1,79,1.0,98.0
23201,79.0,0,79,1.0,98.0
23202,75.0,0,79,5.0,104.0
23203,51.0,0,79,4.0,107.0
23204,63.0,0,79,4.0,107.0
23205,75.0,0,79,2.0,94.0
23206,75.0,0,79,10.0,112.0
23207,67.0,0,79,2.0,94.0
23208,67.0,1,79,10.0,112.0
23209,58.0,2,79,11.0,117.0
23210,46.0,1,79,12.0,117.0
23211,58.0,0,79,3.0,110.0
23212,51.0,1,79,6.0,122.0
23213,46.0,0,79,3.0,110.0
23214,34.0,1,79,13.0,127.0
23215,79.0,0,24,8.0,117.0
23216,91.0,0,24,0.0,94.0
23217,87.0,83,24,0.0,94.0
23218,75.0,0,24,5.0,104.0
23219,79.0,0,24,1.0,98.0
23220,82.0,0,24,1.0,98.0
23221,63.0,1,24,5.0,104.0
23222,67.0,0,24,2.0,94.0
23223,75.0,0,24,2.0,94.0
23224,63.0,1,24,4.0,107.0
23225,51.0,0,24,4.0,107.0
23226,75.0,0,24,10.0,112.0
23227,67.0,0,24,10.0,112.0
23228,58.0,2,24,11.0,117.0
23229,46.0,1,24,12.0,117.0
23230,58.0,0,24,3.0,110.0
23231,46.0,0,24,3.0,110.0
23232,51.0,1,24,6.0,122.0
23233,34.0,1,24,13.0,127.0
23234,87.0,113,0,0.0,94.0
23235,79.0,0,120,8.0,117.0
23236,91.0,0,120,0.0,94.0
23237,63.0,1,120,5.0,104.0
23238,82.0,0,120,1.0,98.0
23239,75.0,1,0,5.0,104.0
23240,79.0,0,0,1.0,98.0
23241,67.0,0,120,10.0,112.0
23242,75.0,0,120,10.0,112.0
23243,51.0,0,120,4.0,107.0
23244,63.0,0,120,4.0,107.0
23245,67.0,0,0,2.0,94.0
23246,75.0,0,120,2.0,94.0
23247,58.0,2,0,11.0,117.0
23248,46.0,1,0,12.0,117.0
23249,46.0,0,120,3.0,110.0
23250,51.0,0,120,6.0,122.0
23251,58.0,1,120,3.0,110.0
23252,34.0,1,120,13.0,127.0
23253,79.0,0,79,8.0,117.0
23254,91.0,0,79,0.0,94.0
23255,82.0,0,79,1.0,98.0
23256,63.0,0,79,5.0,104.0
23257,67.0,0,79,10.0,112.0
23258,75.0,0,79,2.0,94.0
23259,51.0,0,79,4.0,107.0
23260,63.0,0,79,4.0,107.0
23261,75.0,1,79,10.0,112.0
23262,46.0,1,79,3.0,110.0
23263,58.0,0,79,3.0,110.0
23264,51.0,0,79,6.0,122.0
23265,34.0,1,79,13.0,127.0
23266,87.0,83,24,0.0,94.0
23267,79.0,0,24,8.0,117.0
23268,91.0,0,24,0.0,94.0
23269,79.0,0,24,1.0,98.0
23270,63.0,1,24,5.0,104.0
23271,82.0,0,24,1.0,98.0
23272,75.0,0,24,5.0,104.0
23273,75.0,1,24,2.0,94.0
23274,67.0,0,24,10.0,112.0
23275,75.0,0,24,10.0,112.0
23276,67.0,0,24,2.0,94.0
23277,63.0,0,24,4.0,107.0
23278,51.0,0,24,4.0,107.0
23279,58.0,2,24,11.0,117.0
23280,46.0,1,24,12.0,117.0
23281,51.0,1,24,6.0,122.0
23282,58.0,0,24,3.0,110.0
23283,46.0,0,24,3.0,110.0
23284,34.0,1,24,13.0,127.0
23285,87.0,0,120,0.0,94.0
23286,91.0,113,0,0.0,94.0
23287,79.0,0,0,8.0,117.0
23288,82.0,0,0,1.0,98.0
23289,79.0,1,0,1.0,98.0
23290,75.0,1,120,5.0,104.0
23291,63.0,0,120,5.0,104.0
23292,75.0,0,120,10.0,112.0
23293,67.0,1,120,10.0,112.0
23294,63.0,0,120,4.0,107.0
23295,51.0,0,120,4.0,107.0
23296,67.0,0,0,2.0,94.0
23297,75.0,0,0,2.0,94.0
23298,58.0,2,120,11.0,117.0
23299,46.0,1,0,12.0,117.0
23300,46.0,0,120,3.0,110.0
23301,51.0,1,0,6.0,122.0
23302,58.0,0,0,3.0,110.0
23303,34.0,1,120,13.0,127.0
23304,87.0,0,79,0.0,94.0
23305,63.0,0,79,5.0,104.0
23306,75.0,0,79,5.0,104.0
23307,67.0,1,79,10.0,112.0
23308,75.0,0,79,10.0,112.0
23309,63.0,0,79,4.0,107.0
23310,51.0,0,79,4.0,107.0
23311,58.0,2,79,11.0,117.0
23312,46.0,0,79,3.0,110.0
23313,34.0,1,79,13.0,127.0
23314,91.0,0,24,0.0,94.0
23315,79.0,83,24,8.0,117.0
23316,87.0,0,24,0.0,94.0
23317,63.0,0,24,5.0,104.0
23318,75.0,1,24,5.0,104.0
23319,79.0,0,24,1.0,98.0
23320,82.0,0,24,1.0,98.0
23321,67.0,1,24,10.0,112.0
23322,67.0,0,24,2.0,94.0
23323,75.0,0,24,2.0,94.0
23324,63.0,0,24,4.0,107.0
23325,75.0,0,24,10.0,112.0
23326,51.0,0,24,4.0,107.0
23327,58.0,2,24,11.0,117.0
23328,46.0,1,24,12.0,117.0
23329,51.0,0,24,6.0,122.0
23330,58.0,1,24,3.0,110.0
23331,46.0,0,24,3.0,110.0
23332,34.0,1,24,13.0,127.0
23333,51.0,0,120,6.0,122.0
23334,91.0,0,210,0.0,94.0
23335,87.0,0,210,0.0,94.0
23336,79.0,23,210,8.0,117.0
23337,82.0,0,210,1.0,98.0
23338,79.0,0,210,1.0,98.0
23339,63.0,0,210,5.0,104.0
23340,75.0,1,210,5.0,104.0
23341,75.0,0,210,2.0,94.0
23342,51.0,0,210,4.0,107.0
23343,67.0,0,210,10.0,112.0
23344,75.0,1,210,10.0,112.0
23345,63.0,0,210,4.0,107.0
23346,67.0,0,210,2.0,94.0
23347,58.0,2,210,11.0,117.0
23348,46.0,1,210,12.0,117.0
23349,58.0,1,210,3.0,110.0
23350,46.0,0,210,3.0,110.0
23351,34.0,1,210,13.0,127.0
23352,58.0,233,45,7.0,106.0
23353,46.0,0,45,7.0,106.0
23354,60.0,0,20,7.0,106.0
23355,48.0,60,20,7.0,106.0
23356,58.0,20,20,7.0,106.0
23357,46.0,0,20,7.0,106.0
23358,45.0,0,20,7.0,106.0
23359,57.0,20,20,7.0,106.0
23360,58.0,0,45,7.0,106.0
23361,46.0,20,45,7.0,106.0
23362,59.0,0,45,7.0,106.0
23363,47.0,60,45,7.0,106.0
23364,60.0,0,45,7.0,106.0
23365,48.0,60,45,7.0,106.0
23366,50.0,60,20,7.0,106.0
23367,62.0,0,20,7.0,106.0
23368,48.0,0,20,7.0,106.0
23369,60.0,20,20,7.0,106.0
23370,47.0,20,20,7.0,106.0
23371,59.0,0,20,7.0,106.0
23372,60.0,0,45,7.0,106.0
23373,48.0,20,45,7.0,106.0
23374,61.0,0,45,7.0,106.0
23375,49.0,60,45,7.0,106.0
23376,50.0,60,45,7.0,106.0
23377,62.0,0,45,7.0,106.0
23378,63.0,0,20,7.0,106.0
23379,51.0,60,20,7.0,106.0
23380,62.0,0,20,7.0,106.0
23381,50.0,20,20,7.0,106.0
23382,49.0,20,20,7.0,106.0
23383,61.0,0,20,7.0,106.0
23384,62.0,20,45,7.0,106.0
23385,50.0,0,45,7.0,106.0
23386,62.0,0,45,7.0,106.0
23387,50.0,60,45,7.0,106.0
23388,63.0,0,45,7.0,106.0
23389,51.0,60,45,7.0,106.0
23390,65.0,60,20,7.0,106.0
23391,53.0,0,20,7.0,106.0
23392,63.0,0,20,7.0,106.0
23393,51.0,20,20,7.0,106.0
23394,62.0,0,20,7.0,106.0
23395,50.0,20,20,7.0,106.0
23396,63.0,0,45,7.0,106.0
23397,51.0,20,45,7.0,106.0
23398,64.0,0,45,7.0,106.0
23399,52.0,60,45,7.0,106.0
23400,53.0,60,45,7.0,106.0
23401,65.0,0,45,7.0,106.0
23402,67.0,60,20,7.0,106.0
23403,55.0,0,20,7.0,106.0
23404,65.0,0,20,7.0,106.0
23405,53.0,20,20,7.0,106.0
23406,64.0,0,20,7.0,106.0
23407,52.0,20,20,7.0,106.0
23408,65.0,0,45,7.0,106.0
23409,53.0,20,45,7.0,106.0
23410,66.0,0,45,7.0,106.0
23411,54.0,60,45,7.0,106.0
23412,67.0,0,30,7.0,106.0
23413,55.0,60,45,7.0,106.0
23414,66.0,30,30,7.0,106.0
23415,68.0,30,30,7.0,106.0
23416,56.0,0,45,7.0,106.0
23417,67.0,30,30,7.0,106.0
23418,69.0,30,30,7.0,106.0
23419,57.0,0,45,7.0,106.0
23420,68.0,30,30,7.0,106.0
23421,70.0,0,30,7.0,106.0
23422,58.0,30,45,7.0,106.0
23423,69.0,30,30,7.0,106.0
23424,71.0,30,30,7.0,106.0
23425,59.0,0,45,7.0,106.0
23426,70.0,30,30,7.0,106.0
23427,72.0,0,30,7.0,106.0
23428,60.0,30,45,7.0,106.0
23429,71.0,30,30,7.0,106.0
23430,73.0,30,30,7.0,106.0
23431,61.0,0,45,7.0,106.0
23432,72.0,30,30,7.0,106.0
23433,74.0,30,30,7.0,106.0
23434,62.0,0,45,7.0,106.0
23435,73.0,30,30,7.0,106.0
23436,75.0,30,30,7.0,106.0
23437,63.0,0,45,7.0,106.0
23438,74.0,30,30,7.0,106.0
23439,76.0,30,30,7.0,106.0
23440,64.0,0,45,7.0,106.0
23441,75.0,30,30,7.0,106.0
23442,77.0,30,30,7.0,106.0
23443,65.0,0,45,7.0,106.0
23444,76.0,30,30,7.0,106.0
23445,78.0,0,30,7.0,106.0
23446,66.0,30,45,7.0,106.0
23447,77.0,30,30,7.0,106.0
23448,79.0,30,30,7.0,106.0
23449,67.0,0,45,7.0,106.0
23450,78.0,30,30,7.0,106.0
23451,80.0,30,30,7.0,106.0
23452,68.0,0,45,7.0,106.0
23453,79.0,30,30,7.0,106.0
23454,81.0,30,30,7.0,106.0
23455,69.0,0,45,7.0,106.0
23456,80.0,30,30,7.0,106.0
23457,82.0,30,30,7.0,106.0
23458,70.0,0,45,7.0,106.0
23459,81.0,30,30,7.0,106.0
23460,83.0,30,30,7.0,106.0
23461,71.0,0,60,7.0,106.0
23462,82.0,30,30,7.0,106.0
23463,84.0,30,30,7.0,106.0
23464,83.0,30,30,7.0,106.0
23465,72.0,0,60,7.0,106.0
23466,85.0,0,30,7.0,106.0
23467,84.0,30,30,7.0,106.0
23468,73.0,30,60,7.0,106.0
23469,86.0,0,30,7.0,106.0
23470,85.0,30,30,7.0,106.0
23471,74.0,30,60,7.0,106.0
23472,87.0,30,30,7.0,106.0
23473,86.0,30,30,7.0,106.0
23474,75.0,0,60,7.0,106.0
23475,88.0,0,30,7.0,106.0
23476,76.0,30,60,7.0,106.0
23477,87.0,30,30,7.0,106.0
23478,89.0,0,30,7.0,106.0
23479,88.0,30,30,7.0,106.0
23480,77.0,30,60,7.0,106.0
23481,90.0,30,30,7.0,106.0
23482,89.0,30,30,7.0,106.0
23483,78.0,0,60,7.0,106.0
23484,91.0,30,30,7.0,106.0
23485,90.0,30,30,7.0,106.0
23486,79.0,0,60,7.0,106.0
23487,92.0,30,30,7.0,106.0
23488,91.0,30,30,7.0,106.0
23489,80.0,0,60,7.0,106.0
23490,93.0,30,30,7.0,106.0
23491,92.0,30,30,7.0,106.0
23492,81.0,0,60,7.0,106.0
23493,94.0,0,30,7.0,106.0
23494,93.0,30,30,7.0,106.0
23495,82.0,30,60,7.0,106.0
23496,95.0,30,30,7.0,106.0
23497,94.0,30,30,7.0,106.0
23498,83.0,0,60,7.0,106.0
23499,96.0,30,30,7.0,106.0
23500,95.0,30,30,7.0,106.0
23501,84.0,0,60,7.0,106.0
23502,97.0,30,20,7.0,106.0
23503,96.0,20,20,7.0,106.0
23504,98.0,20,20,7.0,106.0
23505,85.0,0,60,7.0,106.0
23506,97.0,20,20,7.0,106.0
23507,99.0,20,20,7.0,106.0
23508,86.0,0,60,7.0,106.0
23509,98.0,20,20,7.0,106.0
23510,101.0,0,20,7.0,106.0
23511,99.0,20,20,7.0,106.0
23512,87.0,20,60,7.0,106.0
23513,98.0,20,20,7.0,106.0
23514,96.0,0,20,7.0,106.0
23515,94.0,20,20,7.0,106.0
23516,92.0,20,20,7.0,106.0
23517,82.0,20,60,7.0,106.0
23518,91.0,20,20,7.0,106.0
23519,89.0,20,20,7.0,106.0
23520,87.0,20,20,7.0,106.0
23521,79.0,0,60,7.0,106.0
23522,86.0,0,20,7.0,106.0
23523,84.0,20,20,7.0,106.0
23524,82.0,20,20,7.0,106.0
23525,75.0,20,60,7.0,106.0
23526,80.0,20,20,7.0,106.0
23527,79.0,20,20,7.0,106.0
23528,77.0,20,20,7.0,106.0
23529,70.0,0,60,7.0,106.0
23530,75.0,20,20,7.0,106.0
23531,74.0,20,20,7.0,106.0
23532,67.0,0,60,7.0,106.0
23533,72.0,20,20,7.0,106.0
23534,70.0,20,24,7.0,106.0
23535,63.0,0,30,7.0,106.0
23536,68.0,24,24,7.0,106.0
23537,58.0,6,30,7.0,106.0
23538,67.0,18,24,7.0,106.0
23539,55.0,12,30,7.0,106.0
23540,65.0,12,24,7.0,106.0
23541,63.0,6,24,7.0,106.0
23542,51.0,18,30,7.0,106.0
23543,67.0,0,20,7.0,106.0
23544,65.0,20,20,7.0,106.0
23545,67.0,20,20,7.0,106.0
23546,65.0,20,20,7.0,106.0
23547,67.0,20,20,7.0,106.0
23548,46.0,0,120,7.0,106.0
23549,65.0,20,20,7.0,106.0
23550,53.0,0,120,7.0,106.0
23551,50.0,24,120,7.0,106.0
23552,56.0,0,120,7.0,106.0
23553,79.0,20,20,7.0,106.0
23554,77.0,20,20,7.0,106.0
23555,79.0,20,20,7.0,106.0
23556,77.0,20,20,7.0,106.0
23557,79.0,20,20,7.0,106.0
23558,77.0,20,20,7.0,106.0
23559,79.0,20,20,7.0,106.0
23560,77.0,20,20,7.0,106.0
23561,79.0,20,20,7.0,106.0
23562,77.0,20,20,7.0,106.0
23563,79.0,20,20,7.0,106.0
23564,77.0,20,20,7.0,106.0
23565,79.0,20,20,7.0,106.0
23566,77.0,20,20,7.0,106.0
23567,79.0,20,20,7.0,106.0
23568,76.0,20,30,7.0,106.0
23569,77.0,30,30,7.0,106.0
23570,84.0,30,20,7.0,106.0
23571,82.0,20,20,7.0,106.0
23572,84.0,20,20,7.0,106.0
23573,82.0,20,20,7.0,106.0
23574,84.0,20,20,7.0,106.0
23575,82.0,20,20,7.0,106.0
23576,84.0,20,20,7.0,106.0
23577,82.0,20,20,7.0,106.0
23578,84.0,20,20,7.0,106.0
23579,82.0,20,20,7.0,106.0
23580,84.0,20,20,7.0,106.0
23581,82.0,20,20,7.0,106.0
23582,84.0,20,20,7.0,106.0
23583,82.0,20,20,7.0,106.0
23584,84.0,20,20,7.0,106.0
23585,82.0,20,20,7.0,106.0
23586,84.0,20,20,7.0,106.0
23587,82.0,20,20,7.0,106.0
23588,84.0,20,20,7.0,106.0
23589,82.0,20,20,7.0,106.0
23590,84.0,20,20,7.0,106.0
23591,82.0,20,20,7.0,106.0
23592,84.0,20,20,7.0,106.0
23593,82.0,20,20,7.0,106.0
23594,83.0,20,20,7.0,106.0
23595,82.0,20,20,7.0,106.0
23596,83.0,20,20,7.0,106.0
23597,82.0,20,20,7.0,106.0
23598,83.0,20,20,7.0,106.0
23599,82.0,20,20,7.0,106.0
23600,83.0,20,20,7.0,106.0
23601,82.0,20,20,7.0,106.0
23602,83.0,20,20,7.0,106.0
23603,82.0,20,20,7.0,106.0
23604,83.0,20,20,7.0,106.0
23605,82.0,20,20,7.0,106.0
23606,83.0,20,20,7.0,106.0
23607,82.0,20,20,7.0,106.0
23608,83.0,20,20,7.0,106.0
23609,82.0,20,20,7.0,106.0
23610,83.0,20,20,7.0,106.0
23611,82.0,20,20,7.0,106.0
23612,83.0,20,20,7.0,106.0
23613,82.0,20,20,7.0,106.0
23614,83.0,20,20,7.0,106.0
23615,82.0,20,20,7.0,106.0
23616,83.0,20,20,7.0,106.0
23617,82.0,20,20,7.0,106.0
23618,83.0,20,20,7.0,106.0
23619,82.0,20,20,7.0,106.0
23620,83.0,20,20,7.0,106.0
23621,82.0,20,20,7.0,106.0
23622,83.0,20,20,7.0,106.0
23623,82.0,20,20,7.0,106.0
23624,83.0,20,20,7.0,106.0
23625,82.0,20,20,7.0,106.0
23626,83.0,20,20,7.0,106.0
23627,82.0,20,20,7.0,106.0
23628,83.0,20,20,7.0,106.0
23629,82.0,20,20,7.0,106.0
23630,83.0,20,20,7.0,106.0
23631,82.0,20,20,7.0,106.0
23632,83.0,20,20,7.0,106.0
23633,82.0,20,20,7.0,106.0
23634,83.0,20,20,7.0,106.0
23635,82.0,20,20,7.0,106.0
23636,83.0,20,20,7.0,106.0
23637,82.0,20,20,7.0,106.0
23638,83.0,20,20,7.0,106.0
23639,81.0,20,30,7.0,106.0
23640,82.0,30,30,7.0,106.0
23641,87.0,30,45,7.0,106.0
23642,90.0,0,45,7.0,106.0
23643,75.0,0,60,7.0,106.0
23644,78.0,0,60,7.0,106.0
23645,82.0,60,45,7.0,106.0
23646,89.0,60,45,7.0,106.0
23647,86.0,0,45,7.0,106.0
23648,77.0,0,60,7.0,106.0
23649,70.0,0,60,7.0,106.0
23650,82.0,60,45,7.0,106.0
23651,87.0,0,45,7.0,106.0
23652,75.0,60,60,7.0,106.0
23653,82.0,60,45,7.0,106.0
23654,89.0,0,45,7.0,106.0
23655,86.0,0,45,7.0,106.0
23656,77.0,0,60,7.0,106.0
23657,70.0,60,60,7.0,106.0
23658,82.0,60,45,7.0,106.0
23659,87.0,0,45,7.0,106.0
23660,90.0,0,45,7.0,106.0
23661,75.0,60,60,7.0,106.0
23662,78.0,0,60,7.0,106.0
23663,82.0,60,45,7.0,106.0
23664,86.0,0,45,7.0,106.0
23665,89.0,60,45,7.0,106.0
23666,70.0,0,60,7.0,106.0
23667,77.0,0,60,7.0,106.0
23668,82.0,60,45,7.0,106.0
23669,87.0,0,45,7.0,106.0
23670,90.0,0,45,7.0,106.0
23671,75.0,60,60,7.0,106.0
23672,78.0,0,60,7.0,106.0
23673,82.0,60,45,7.0,106.0
23674,90.0,0,45,7.0,106.0
23675,87.0,0,45,7.0,106.0
23676,75.0,60,60,7.0,106.0
23677,78.0,0,60,7.0,106.0
23678,89.0,60,45,7.0,106.0
23679,86.0,0,45,7.0,106.0
23680,77.0,0,60,7.0,106.0
23681,70.0,0,60,7.0,106.0
23682,90.0,0,45,7.0,106.0
23683,87.0,0,45,7.0,106.0
23684,75.0,0,60,7.0,106.0
23685,78.0,60,60,7.0,106.0
23686,82.0,60,45,7.0,106.0
23687,86.0,0,45,7.0,106.0
23688,89.0,0,45,7.0,106.0
23689,70.0,60,60,7.0,106.0
23690,77.0,0,60,7.0,106.0
23691,82.0,60,45,7.0,106.0
23692,87.0,0,45,7.0,106.0
23693,90.0,0,45,7.0,106.0
23694,75.0,60,60,7.0,106.0
23695,78.0,0,60,7.0,106.0
23696,82.0,60,45,7.0,106.0
23697,89.0,0,45,7.0,106.0
23698,92.0,0,45,7.0,106.0
23699,73.0,0,60,7.0,106.0
23700,80.0,60,60,7.0,106.0
23701,85.0,60,45,7.0,106.0
23702,89.0,0,45,7.0,106.0
23703,92.0,0,45,7.0,106.0
23704,73.0,60,60,7.0,106.0
23705,80.0,0,60,7.0,106.0
23706,85.0,60,45,7.0,106.0
23707,83.0,60,45,7.0,106.0
23708,85.0,60,45,7.0,106.0
23709,92.0,0,45,7.0,106.0
23710,89.0,0,45,7.0,106.0
23711,73.0,0,60,7.0,106.0
23712,80.0,60,60,7.0,106.0
23713,85.0,60,45,7.0,106.0
23714,90.0,0,45,7.0,106.0
23715,94.0,0,45,7.0,106.0
23716,82.0,60,60,7.0,106.0
23717,78.0,0,60,7.0,106.0
23718,89.0,0,45,7.0,106.0
23719,92.0,0,45,7.0,106.0
23720,80.0,0,60,7.0,106.0
23721,77.0,60,60,7.0,106.0
23722,94.0,0,45,7.0,106.0
23723,90.0,60,45,7.0,106.0
23724,78.0,0,60,7.0,106.0
23725,82.0,0,60,7.0,106.0
23726,82.0,60,45,7.0,106.0
23727,89.0,0,45,7.0,106.0
23728,92.0,60,45,7.0,106.0
23729,80.0,0,60,7.0,106.0
23730,77.0,0,60,7.0,106.0
23731,82.0,60,45,7.0,106.0
23732,90.0,0,45,7.0,106.0
23733,94.0,0,45,7.0,106.0
23734,78.0,0,60,7.0,106.0
23735,82.0,60,60,7.0,106.0
23736,82.0,60,45,7.0,106.0
23737,89.0,0,45,7.0,106.0
23738,92.0,60,45,7.0,106.0
23739,77.0,0,60,7.0,106.0
23740,80.0,0,60,7.0,106.0
23741,90.0,0,45,7.0,106.0
23742,87.0,60,45,7.0,106.0
23743,78.0,0,60,7.0,106.0
23744,75.0,0,60,7.0,106.0
23745,89.0,0,45,7.0,106.0
23746,92.0,0,45,7.0,106.0
23747,77.0,0,60,7.0,106.0
23748,80.0,60,60,7.0,106.0
23749,82.0,60,45,7.0,106.0
23750,90.0,0,45,7.0,106.0
23751,87.0,0,45,7.0,106.0
23752,78.0,60,60,7.0,106.0
23753,75.0,0,60,7.0,106.0
23754,82.0,60,45,7.0,106.0
23755,89.0,0,45,7.0,106.0
23756,92.0,0,45,7.0,106.0
23757,80.0,60,60,7.0,106.0
23758,77.0,0,60,7.0,106.0
23759,82.0,60,45,7.0,106.0
23760,87.0,0,45,7.0,106.0
23761,90.0,60,45,7.0,106.0
23762,75.0,0,60,7.0,106.0
23763,78.0,0,60,7.0,106.0
23764,89.0,0,45,7.0,106.0
23765,86.0,60,45,7.0,106.0
23766,70.0,0,60,7.0,106.0
23767,77.0,0,60,7.0,106.0
23768,87.0,0,45,7.0,106.0
23769,90.0,0,45,7.0,106.0
23770,75.0,0,60,7.0,106.0
23771,78.0,60,60,7.0,106.0
23772,82.0,60,45,7.0,106.0
23773,86.0,0,45,7.0,106.0
23774,89.0,60,45,7.0,106.0
23775,70.0,0,60,7.0,106.0
23776,77.0,0,60,7.0,106.0
23777,82.0,60,45,7.0,106.0
23778,87.0,0,45,7.0,106.0
23779,90.0,0,45,7.0,106.0
23780,75.0,60,60,7.0,106.0
23781,78.0,0,60,7.0,106.0
23782,82.0,60,45,7.0,106.0
23783,89.0,60,45,7.0,106.0
23784,86.0,0,45,7.0,106.0
23785,77.0,0,60,7.0,106.0
23786,70.0,0,60,7.0,106.0
23787,82.0,60,45,7.0,106.0
23788,86.0,0,45,7.0,106.0
23789,89.0,0,45,7.0,106.0
23790,70.0,60,60,7.0,106.0
23791,77.0,0,60,7.0,106.0
23792,82.0,60,45,7.0,106.0
23793,81.0,60,45,7.0,106.0
23794,82.0,60,45,7.0,106.0
23795,86.0,60,45,7.0,106.0
23796,89.0,0,45,7.0,106.0
23797,70.0,0,60,7.0,106.0
23798,77.0,0,60,7.0,106.0
23799,82.0,60,45,7.0,106.0
23800,80.0,60,45,7.0,106.0
23801,82.0,58,45,7.0,106.0
23802,65.0,2,120,4.0,107.0
23803,58.0,0,120,4.0,107.0
23804,79.0,0,30,7.0,106.0
23805,87.0,23,30,7.0,106.0
23806,82.0,30,30,7.0,106.0
23807,87.0,30,30,7.0,106.0
23808,67.0,60,120,8.0,117.0
23809,63.0,0,120,4.0,107.0
23810,63.0,2,120,10.0,112.0
23811,67.0,0,120,4.0,107.0
23812,58.0,2,120,11.0,117.0
23813,51.0,1,120,12.0,117.0
23814,39.0,2,120,13.0,127.0
23815,91.0,30,30,7.0,106.0
23816,87.0,28,30,7.0,106.0
23817,82.0,30,30,7.0,106.0
23818,87.0,30,30,7.0,106.0
23819,65.0,0,120,4.0,107.0
23820,58.0,2,120,4.0,107.0
23821,75.0,28,30,7.0,106.0
23822,70.0,30,30,7.0,106.0
23823,75.0,30,30,7.0,106.0
23824,63.0,0,120,4.0,107.0
23825,55.0,2,120,4.0,107.0
23826,79.0,30,30,7.0,106.0
23827,75.0,28,30,7.0,106.0
23828,70.0,30,30,7.0,106.0
23829,75.0,30,30,7.0,106.0
23830,65.0,0,120,4.0,107.0
23831,58.0,2,120,4.0,107.0
23832,87.0,23,30,7.0,106.0
23833,82.0,30,30,7.0,106.0
23834,67.0,30,120,7.0,106.0
23835,67.0,0,120,8.0,117.0
23836,87.0,30,30,7.0,106.0
23837,63.0,0,120,10.0,112.0
23838,63.0,2,120,4.0,107.0
23839,67.0,0,120,4.0,107.0
23840,58.0,2,120,11.0,117.0
23841,51.0,1,120,12.0,117.0
23842,39.0,2,120,13.0,127.0
23843,91.0,30,30,7.0,106.0
23844,87.0,28,30,7.0,106.0
23845,82.0,30,30,7.0,106.0
23846,87.0,30,30,7.0,106.0
23847,65.0,2,120,4.0,107.0
23848,58.0,0,120,4.0,107.0
23849,75.0,28,30,7.0,106.0
23850,70.0,30,30,7.0,106.0
23851,75.0,30,30,7.0,106.0
23852,63.0,2,120,4.0,107.0
23853,67.0,0,0,4.0,107.0
23854,79.0,30,30,7.0,106.0
23855,75.0,28,30,7.0,106.0
23856,63.0,2,60,4.0,107.0
23857,70.0,30,30,7.0,106.0
23858,75.0,28,30,7.0,106.0
23859,65.0,0,60,4.0,107.0
23860,58.0,2,60,4.0,107.0
23861,87.0,23,30,7.0,106.0
23862,82.0,30,30,7.0,106.0
23863,67.0,30,120,7.0,106.0
23864,87.0,30,30,7.0,106.0
23865,67.0,0,120,8.0,117.0
23866,67.0,0,120,4.0,107.0
23867,63.0,0,120,10.0,112.0
23868,63.0,2,120,4.0,107.0
23869,58.0,2,120,11.0,117.0
23870,51.0,1,120,12.0,117.0
23871,39.0,2,120,13.0,127.0
23872,91.0,30,30,7.0,106.0
23873,87.0,28,30,7.0,106.0
23874,82.0,30,30,7.0,106.0
23875,87.0,30,30,7.0,106.0
23876,65.0,0,120,4.0,107.0
23877,58.0,2,120,4.0,107.0
23878,75.0,23,30,7.0,106.0
23879,70.0,30,30,7.0,106.0
23880,75.0,30,30,7.0,106.0
23881,67.0,30,120,8.0,117.0
23882,63.0,0,120,10.0,112.0
23883,67.0,2,0,4.0,107.0
23884,63.0,0,0,4.0,107.0
23885,58.0,2,120,11.0,117.0
23886,51.0,1,120,12.0,117.0
23887,39.0,2,120,13.0,127.0
23888,79.0,30,30,7.0,106.0
23889,75.0,28,30,7.0,106.0
23890,70.0,30,30,7.0,106.0
23891,67.0,28,30,7.0,106.0
23892,68.0,0,0,4.0,107.0
23893,65.0,2,0,4.0,107.0
23894,89.0,23,30,7.0,106.0
23895,86.0,30,30,7.0,106.0
23896,68.0,30,120,8.0,117.0
23897,89.0,30,30,7.0,106.0
23898,68.0,0,120,7.0,106.0
23899,65.0,0,120,10.0,112.0
23900,58.0,2,120,11.0,117.0
23901,46.0,1,120,12.0,117.0
23902,34.0,2,120,13.0,127.0
23903,92.0,30,30,7.0,106.0
23904,89.0,30,30,7.0,106.0
23905,86.0,30,30,7.0,106.0
23906,89.0,30,30,7.0,106.0
23907,77.0,28,30,7.0,106.0
23908,74.0,30,30,7.0,106.0
23909,82.0,30,120,7.0,106.0
23910,77.0,30,30,7.0,106.0
23911,68.0,2,120,4.0,107.0
23912,65.0,0,120,4.0,107.0
23913,80.0,30,30,7.0,106.0
23914,77.0,28,30,7.0,106.0
23915,70.0,2,60,4.0,107.0
23916,67.0,0,60,4.0,107.0
23917,74.0,30,30,7.0,106.0
23918,77.0,28,30,7.0,106.0
23919,68.0,2,60,4.0,107.0
23920,65.0,0,60,4.0,107.0
23921,91.0,23,30,7.0,106.0
23922,87.0,30,30,7.0,106.0
23923,91.0,30,30,7.0,106.0
23924,70.0,30,120,8.0,117.0
23925,70.0,0,120,4.0,107.0
23926,67.0,2,120,10.0,112.0
23927,67.0,0,120,4.0,107.0
23928,58.0,2,120,11.0,117.0
23929,51.0,1,120,12.0,117.0
23930,39.0,2,120,13.0,127.0
23931,70.0,0,150,7.0,106.0
23932,79.0,28,30,7.0,106.0
23933,75.0,30,30,7.0,106.0
23934,79.0,30,30,7.0,106.0
23935,65.0,0,120,4.0,107.0
23936,68.0,2,120,4.0,107.0
23937,94.0,30,150,7.0,106.0
23938,91.0,28,30,7.0,106.0
23939,87.0,30,30,7.0,106.0
23940,91.0,30,30,7.0,106.0
23941,67.0,0,120,4.0,107.0
23942,70.0,2,120,4.0,107.0
23943,82.0,30,30,7.0,106.0
23944,79.0,28,30,7.0,106.0
23945,65.0,2,60,4.0,107.0
23946,68.0,0,60,4.0,107.0
23947,75.0,30,30,7.0,106.0
23948,79.0,28,30,7.0,106.0
23949,63.0,2,60,4.0,107.0
23950,67.0,0,60,4.0,107.0
23951,92.0,23,30,7.0,106.0
23952,89.0,30,30,7.0,106.0
23953,68.0,30,120,8.0,117.0
23954,92.0,30,30,7.0,106.0
23955,68.0,0,120,4.0,107.0
23956,65.0,0,120,4.0,107.0
23957,65.0,2,120,10.0,112.0
23958,58.0,2,120,11.0,117.0
23959,46.0,1,120,12.0,117.0
23960,34.0,2,120,13.0,127.0
23961,70.0,0,150,7.0,106.0
23962,80.0,28,30,7.0,106.0
23963,77.0,30,30,7.0,106.0
23964,80.0,30,30,7.0,106.0
23965,63.0,0,120,4.0,107.0
23966,67.0,2,120,4.0,107.0
23967,94.0,30,150,7.0,106.0
23968,92.0,28,30,7.0,106.0
23969,89.0,30,30,7.0,106.0
23970,92.0,30,30,7.0,106.0
23971,65.0,2,120,4.0,107.0
23972,68.0,0,120,4.0,107.0
23973,82.0,30,30,7.0,106.0
23974,80.0,28,30,7.0,106.0
23975,67.0,0,60,4.0,107.0
23976,63.0,2,60,4.0,107.0
23977,77.0,30,30,7.0,106.0
23978,80.0,28,30,7.0,106.0
23979,65.0,0,60,4.0,107.0
23980,58.0,2,60,4.0,107.0
23981,91.0,23,30,7.0,106.0
23982,87.0,30,30,7.0,106.0
23983,91.0,30,30,7.0,106.0
23984,67.0,30,120,8.0,117.0
23985,67.0,0,120,4.0,107.0
23986,63.0,0,120,4.0,107.0
23987,63.0,2,120,10.0,112.0
23988,58.0,2,120,11.0,117.0
23989,51.0,1,120,12.0,117.0
23990,39.0,2,120,13.0,127.0
23991,70.0,0,150,7.0,106.0
23992,79.0,28,30,7.0,106.0
23993,75.0,30,30,7.0,106.0
23994,79.0,30,30,7.0,106.0
23995,58.0,2,120,4.0,107.0
23996,65.0,0,120,4.0,107.0
23997,94.0,30,150,7.0,106.0
23998,91.0,23,30,7.0,106.0
23999,87.0,30,30,7.0,106.0
24000,63.0,2,90,4.0,107.0
24001,67.0,0,90,4.0,107.0
24002,91.0,30,30,7.0,106.0
24003,67.0,0,120,8.0,117.0
24004,63.0,0,120,10.0,112.0
24005,58.0,2,120,11.0,117.0
24006,51.0,1,120,12.0,117.0
24007,39.0,2,120,13.0,127.0
24008,82.0,30,30,7.0,106.0
24009,79.0,28,30,7.0,106.0
24010,75.0,30,30,7.0,106.0
24011,58.0,2,90,4.0,107.0
24012,65.0,0,90,4.0,107.0
24013,79.0,30,30,7.0,106.0
24014,65.0,30,120,8.0,117.0
24015,70.0,0,120,7.0,106.0
24016,62.0,0,120,10.0,112.0
24017,58.0,2,120,11.0,117.0
24018,46.0,1,120,12.0,117.0
24019,34.0,2,120,13.0,127.0
24020,58.0,0,0,4.0,107.0
24021,65.0,2,0,4.0,107.0
24022,94.0,233,30,7.0,106.0
24023,93.0,28,30,7.0,106.0
24024,92.0,30,30,7.0,106.0
24025,91.0,30,30,7.0,106.0
24026,90.0,30,30,7.0,106.0
24027,89.0,30,30,7.0,106.0
24028,88.0,30,30,7.0,106.0
24029,87.0,30,30,7.0,106.0
24030,86.0,30,30,7.0,106.0
24031,85.0,24,30,7.0,106.0
24032,83.0,0,20,8.0,117.0
24033,84.0,30,30,7.0,106.0
24034,82.0,20,20,8.0,117.0
24035,81.0,10,20,8.0,117.0
24036,83.0,10,30,7.0,106.0
24037,82.0,0,30,7.0,106.0
24038,82.0,20,45,8.0,117.0
24039,81.0,30,30,7.0,106.0
24040,80.0,30,30,7.0,106.0
24041,82.0,0,45,8.0,117.0
24042,79.0,30,30,7.0,106.0
24043,82.0,0,0,0.0,94.0
24044,58.0,0,240,2.0,94.0
24045,70.0,2,240,2.0,94.0
24046,46.0,4,240,3.0,110.0
24047,78.0,0,30,7.0,106.0
24048,82.0,30,45,8.0,117.0
24049,77.0,24,30,7.0,106.0
24050,83.0,30,20,8.0,117.0
24051,76.0,0,30,7.0,106.0
24052,82.0,20,20,8.0,117.0
24053,81.0,10,20,8.0,117.0
24054,75.0,10,30,7.0,106.0
24055,74.0,0,20,7.0,106.0
24056,73.0,20,20,7.0,106.0
24057,82.0,20,45,8.0,117.0
24058,72.0,20,20,7.0,106.0
24059,71.0,20,20,7.0,106.0
24060,70.0,20,20,7.0,106.0
24061,82.0,0,45,8.0,117.0
24062,82.0,0,0,0.0,94.0
24063,69.0,20,20,7.0,106.0
24064,70.0,0,0,2.0,94.0
24065,58.0,2,0,2.0,94.0
24066,46.0,4,240,3.0,110.0
24067,68.0,0,30,7.0,106.0
24068,67.0,23,30,7.0,106.0
24069,66.0,30,30,7.0,106.0
24070,82.0,20,120,8.0,117.0
24071,65.0,30,30,7.0,106.0
24072,64.0,30,20,7.0,106.0
24073,63.0,20,20,7.0,106.0
24074,62.0,20,20,7.0,106.0
24075,61.0,20,20,7.0,106.0
24076,60.0,20,20,7.0,106.0
24077,59.0,20,20,7.0,106.0
24078,58.0,0,240,4.0,107.0
24079,46.0,0,240,4.0,107.0
24080,58.0,20,20,7.0,106.0
24081,57.0,18,20,7.0,106.0
24082,56.0,20,20,7.0,106.0
24083,42.0,3,300,12.0,117.0
24084,30.0,1,300,13.0,127.0
24085,55.0,20,20,7.0,106.0
24086,44.0,5,20,12.0,117.0
24087,32.0,2,20,13.0,127.0
24088,54.0,13,20,7.0,106.0
24089,42.0,5,20,12.0,117.0
24090,30.0,2,20,13.0,127.0
24091,53.0,13,20,7.0,106.0
24092,41.0,5,20,12.0,117.0
24093,29.0,2,20,13.0,127.0
24094,52.0,13,20,7.0,106.0
24095,51.0,13,20,7.0,106.0
24096,42.0,5,45,12.0,117.0
24097,30.0,2,45,13.0,127.0
24098,50.0,20,20,7.0,106.0
24099,49.0,20,20,7.0,106.0
24100,48.0,13,20,7.0,106.0
24101,44.0,5,45,12.0,117.0
24102,32.0,2,45,13.0,127.0
24103,47.0,20,20,7.0,106.0
24104,82.0,0,0,0.0,94.0
24105,58.0,0,0,2.0,94.0
24106,70.0,2,0,2.0,94.0
24107,58.0,0,240,4.0,107.0
24108,46.0,2,240,4.0,107.0
24109,46.0,1,0,3.0,110.0
24110,84.0,53,20,8.0,117.0
24111,82.0,20,20,8.0,117.0
24112,81.0,20,20,8.0,117.0
24113,46.0,20,120,7.0,106.0
24114,46.0,3,120,12.0,117.0
24115,34.0,1,120,13.0,127.0
24116,82.0,20,45,8.0,117.0
24117,82.0,60,45,8.0,117.0
24118,58.0,0,0,2.0,94.0
24119,94.0,0,30,7.0,106.0
24120,82.0,60,45,8.0,117.0
24121,93.0,24,30,7.0,106.0
24122,84.0,0,20,8.0,117.0
24123,92.0,30,30,7.0,106.0
24124,82.0,20,20,8.0,117.0
24125,91.0,10,30,7.0,106.0
24126,81.0,10,20,8.0,117.0
24127,90.0,0,30,7.0,106.0
24128,82.0,20,45,8.0,117.0
24129,89.0,30,30,7.0,106.0
24130,88.0,0,30,7.0,106.0
24131,82.0,30,45,8.0,117.0
24132,87.0,30,30,7.0,106.0
24133,82.0,0,240,0.0,94.0
24134,70.0,2,240,2.0,94.0
24135,46.0,4,240,3.0,110.0
24136,86.0,30,30,7.0,106.0
24137,85.0,23,30,7.0,106.0
24138,84.0,30,30,7.0,106.0
24139,83.0,30,30,7.0,106.0
24140,82.0,0,120,8.0,117.0
24141,82.0,30,30,7.0,106.0
24142,81.0,30,30,7.0,106.0
24143,80.0,30,30,7.0,106.0
24144,79.0,30,30,7.0,106.0
24145,58.0,0,0,4.0,107.0
24146,46.0,2,0,4.0,107.0
24147,78.0,30,30,7.0,106.0
24148,77.0,28,30,7.0,106.0
24149,43.0,3,300,12.0,117.0
24150,31.0,1,300,13.0,127.0
24151,44.0,5,20,12.0,117.0
24152,32.0,2,20,13.0,127.0
24153,76.0,30,30,7.0,106.0
24154,43.0,18,20,12.0,117.0
24155,31.0,2,20,13.0,127.0
24156,75.0,3,30,7.0,106.0
24157,41.0,15,20,12.0,117.0
24158,29.0,2,20,13.0,127.0
24159,74.0,13,30,7.0,106.0
24160,43.0,5,45,12.0,117.0
24161,31.0,2,45,13.0,127.0
24162,73.0,23,30,7.0,106.0
24163,72.0,30,30,7.0,106.0
24164,44.0,5,45,12.0,117.0
24165,32.0,2,45,13.0,127.0
24166,71.0,23,30,7.0,106.0
24167,82.0,30,0,0.0,94.0
24168,70.0,0,480,2.0,94.0
24169,58.0,2,480,2.0,94.0
24170,46.0,1,480,3.0,110.0
24171,70.0,0,30,7.0,106.0
24172,46.0,3,45,12.0,117.0
24173,34.0,2,45,13.0,127.0
24174,69.0,23,30,7.0,106.0
24175,48.0,5,20,12.0,117.0
24176,36.0,2,20,13.0,127.0
24177,68.0,30,30,7.0,106.0
24178,46.0,18,20,12.0,117.0
24179,34.0,2,20,13.0,127.0
24180,67.0,3,30,7.0,106.0
24181,45.0,15,20,12.0,117.0
24182,33.0,2,20,13.0,127.0
24183,66.0,13,30,7.0,106.0
24184,46.0,5,45,12.0,117.0
24185,34.0,2,45,13.0,127.0
24186,65.0,23,30,7.0,106.0
24187,64.0,30,30,7.0,106.0
24188,48.0,5,45,12.0,117.0
24189,36.0,2,45,13.0,127.0
24190,63.0,23,30,7.0,106.0
24191,82.0,0,0,0.0,94.0
24192,46.0,2,0,4.0,107.0
24193,58.0,0,0,4.0,107.0
24194,62.0,30,30,7.0,106.0
24195,49.0,3,45,12.0,117.0
24196,37.0,2,45,13.0,127.0
24197,61.0,23,30,7.0,106.0
24198,51.0,5,20,12.0,117.0
24199,39.0,2,20,13.0,127.0
24200,60.0,30,30,7.0,106.0
24201,49.0,18,20,12.0,117.0
24202,37.0,2,20,13.0,127.0
24203,59.0,3,30,7.0,106.0
24204,48.0,15,20,12.0,117.0
24205,36.0,2,20,13.0,127.0
24206,58.0,0,24,7.0,106.0
24207,70.0,13,30,8.0,117.0
24208,57.0,17,24,7.0,106.0
24209,49.0,5,45,12.0,117.0
24210,37.0,2,45,13.0,127.0
24211,68.0,6,30,8.0,117.0
24212,56.0,18,24,7.0,106.0
24213,67.0,12,30,8.0,117.0
24214,55.0,5,24,7.0,106.0
24215,50.0,5,45,12.0,117.0
24216,38.0,2,45,13.0,127.0
24217,53.0,6,24,7.0,106.0
24218,65.0,18,30,8.0,117.0
24219,63.0,0,120,8.0,117.0
24220,55.0,24,120,8.0,117.0
24221,51.0,0,120,7.0,106.0
24222,51.0,0,120,6.0,122.0
24223,75.0,0,300,0.0,94.0
24224,87.0,0,300,0.0,94.0
24225,75.0,0,300,8.0,117.0
24226,67.0,0,0,1.0,98.0
24227,75.0,0,0,1.0,98.0
24228,75.0,0,300,5.0,104.0
24229,63.0,1,0,5.0,104.0
24230,70.0,1,0,2.0,94.0
24231,63.0,0,300,10.0,112.0
24232,63.0,0,0,4.0,107.0
24233,51.0,0,300,4.0,107.0
24234,55.0,0,300,10.0,112.0
24235,67.0,0,0,2.0,94.0
24236,63.0,2,300,11.0,117.0
24237,51.0,1,300,12.0,117.0
24238,51.0,1,0,3.0,110.0
24239,55.0,0,0,3.0,110.0
24240,39.0,1,300,13.0,127.0
24241,77.0,0,20,8.0,117.0
24242,77.0,0,20,10.0,112.0
24243,75.0,13,20,8.0,117.0
24244,75.0,2,20,10.0,112.0
24245,74.0,18,20,8.0,117.0
24246,74.0,2,20,10.0,112.0
24247,51.0,0,60,6.0,122.0
24248,75.0,18,45,8.0,117.0
24249,75.0,2,45,10.0,112.0
24250,87.0,0,120,0.0,94.0
24251,75.0,293,120,0.0,94.0
24252,75.0,0,120,5.0,104.0
24253,55.0,0,120,4.0,107.0
24254,63.0,2,120,11.0,117.0
24255,51.0,1,120,12.0,117.0
24256,51.0,4,60,6.0,122.0
24257,39.0,1,120,13.0,127.0
24258,77.0,54,45,8.0,117.0
24259,74.0,0,45,10.0,112.0
24260,86.0,0,60,0.0,94.0
24261,89.0,0,60,0.0,94.0
24262,74.0,0,60,1.0,98.0
24263,77.0,0,60,1.0,98.0
24264,58.0,0,60,5.0,104.0
24265,70.0,1,60,5.0,104.0
24266,65.0,0,60,2.0,94.0
24267,74.0,0,60,2.0,94.0
24268,58.0,1,60,4.0,107.0
24269,65.0,0,60,4.0,107.0
24270,58.0,2,60,11.0,117.0
24271,46.0,1,60,12.0,117.0
24272,46.0,0,60,3.0,110.0
24273,53.0,1,60,3.0,110.0
24274,46.0,0,60,6.0,122.0
24275,34.0,1,60,13.0,127.0
24276,87.0,53,120,0.0,94.0
24277,79.0,0,120,8.0,117.0
24278,91.0,0,120,0.0,94.0
24279,63.0,0,0,5.0,104.0
24280,75.0,0,0,5.0,104.0
24281,79.0,1,120,1.0,98.0
24282,75.0,1,0,1.0,98.0
24283,63.0,0,120,4.0,107.0
24284,75.0,0,120,2.0,94.0
24285,67.0,1,120,2.0,94.0
24286,67.0,0,120,4.0,107.0
24287,75.0,0,120,10.0,112.0
24288,63.0,2,120,11.0,117.0
24289,51.0,1,0,12.0,117.0
24290,55.0,1,120,3.0,110.0
24291,51.0,0,120,6.0,122.0
24292,51.0,0,120,3.0,110.0
24293,39.0,1,120,13.0,127.0
24294,79.0,113,120,0.0,94.0
24295,75.0,0,120,8.0,117.0
24296,87.0,0,120,0.0,94.0
24297,70.0,0,120,1.0,98.0
24298,63.0,0,0,5.0,104.0
24299,75.0,0,0,5.0,104.0
24300,67.0,1,120,2.0,94.0
24301,70.0,0,120,2.0,94.0
24302,51.0,0,0,4.0,107.0
24303,63.0,0,120,4.0,107.0
24304,67.0,0,120,10.0,112.0
24305,55.0,0,120,11.0,117.0
24306,51.0,2,120,11.0,117.0
24307,51.0,1,120,6.0,122.0
24308,51.0,0,120,3.0,110.0
24309,55.0,0,120,3.0,110.0
24310,39.0,1,120,13.0,127.0
24311,72.0,0,120,8.0,117.0
24312,80.0,0,120,0.0,94.0
24313,84.0,113,120,0.0,94.0
24314,72.0,1,120,1.0,98.0
24315,68.0,0,120,1.0,98.0
24316,63.0,1,0,5.0,104.0
24317,75.0,0,0,5.0,104.0
24318,68.0,1,120,2.0,94.0
24319,72.0,0,120,2.0,94.0
24320,51.0,0,0,4.0,107.0
24321,63.0,0,0,4.0,107.0
24322,68.0,0,120,10.0,112.0
24323,56.0,2,120,11.0,117.0
24324,60.0,0,120,11.0,117.0
24325,56.0,1,120,12.0,117.0
24326,60.0,0,120,3.0,110.0
24327,56.0,1,120,3.0,110.0
24328,51.0,0,0,6.0,122.0
24329,44.0,1,120,13.0,127.0
24330,79.0,0,120,0.0,94.0
24331,70.0,113,120,8.0,117.0
24332,82.0,0,120,0.0,94.0
24333,70.0,0,120,1.0,98.0
24334,67.0,0,120,1.0,98.0
24335,70.0,1,120,2.0,94.0
24336,67.0,0,120,2.0,94.0
24337,67.0,0,120,10.0,112.0
24338,55.0,0,120,11.0,117.0
24339,58.0,2,120,11.0,117.0
24340,51.0,1,120,12.0,117.0
24341,55.0,1,120,3.0,110.0
24342,58.0,0,120,3.0,110.0
24343,39.0,1,120,13.0,127.0
24344,63.0,113,30,7.0,106.0
24345,39.0,0,30,7.0,106.0
24346,51.0,30,30,7.0,106.0
24347,75.0,0,30,7.0,106.0
24348,67.0,0,30,7.0,106.0
24349,46.0,0,30,7.0,106.0
24350,70.0,0,30,7.0,106.0
24351,43.0,30,30,7.0,106.0
24352,51.0,0,30,7.0,106.0
24353,75.0,30,30,7.0,106.0
24354,67.0,30,30,7.0,106.0
24355,43.0,0,30,7.0,106.0
24356,55.0,30,30,7.0,106.0
24357,79.0,0,30,7.0,106.0
24358,46.0,30,30,7.0,106.0
24359,51.0,0,30,7.0,106.0
24360,70.0,0,30,7.0,106.0
24361,75.0,0,30,7.0,106.0
24362,79.0,30,30,7.0,106.0
24363,55.0,0,30,7.0,106.0
24364,70.0,0,30,7.0,106.0
24365,46.0,30,30,7.0,106.0
24366,58.0,30,30,7.0,106.0
24367,82.0,0,30,7.0,106.0
24368,75.0,0,30,7.0,106.0
24369,51.0,0,30,7.0,106.0
24370,79.0,30,30,7.0,106.0
24371,55.0,0,30,7.0,106.0
24372,82.0,0,30,7.0,106.0
24373,58.0,30,30,7.0,106.0
24374,75.0,0,30,7.0,106.0
24375,51.0,30,30,7.0,106.0
24376,63.0,0,30,7.0,106.0
24377,87.0,30,30,7.0,106.0
24378,79.0,0,30,7.0,106.0
24379,55.0,0,30,7.0,106.0
24380,58.0,0,30,7.0,106.0
24381,82.0,30,30,7.0,106.0
24382,87.0,30,30,7.0,106.0
24383,63.0,0,30,7.0,106.0
24384,51.0,0,30,7.0,106.0
24385,79.0,30,30,7.0,106.0
24386,91.0,30,30,7.0,106.0
24387,63.0,0,30,7.0,106.0
24388,82.0,0,30,7.0,106.0
24389,55.0,0,30,7.0,106.0
24390,58.0,0,30,7.0,106.0
24391,87.0,30,30,7.0,106.0
24392,63.0,0,30,7.0,106.0
24393,91.0,30,30,7.0,106.0
24394,75.0,0,30,7.0,106.0
24395,51.0,30,30,7.0,106.0
24396,63.0,0,30,7.0,106.0
24397,87.0,30,30,7.0,106.0
24398,82.0,0,30,7.0,106.0
24399,55.0,0,30,7.0,106.0
24400,58.0,0,30,7.0,106.0
24401,79.0,30,30,7.0,106.0
24402,63.0,30,30,7.0,106.0
24403,87.0,0,30,7.0,106.0
24404,56.0,0,30,7.0,106.0
24405,72.0,30,30,7.0,106.0
24406,84.0,0,30,7.0,106.0
24407,68.0,30,30,7.0,106.0
24408,80.0,0,30,7.0,106.0
24409,60.0,0,30,7.0,106.0
24410,63.0,0,30,7.0,106.0
24411,75.0,30,30,7.0,106.0
24412,84.0,0,30,7.0,106.0
24413,68.0,30,30,7.0,106.0
24414,70.0,0,30,7.0,106.0
24415,51.0,30,30,7.0,106.0
24416,63.0,30,30,7.0,106.0
24417,82.0,0,30,7.0,106.0
24418,79.0,30,0,7.0,106.0
24419,75.0,0,30,7.0,106.0
24420,55.0,0,30,7.0,106.0
24421,58.0,0,30,7.0,106.0
24422,79.0,30,0,7.0,106.0
24423,63.0,0,30,7.0,106.0
24424,82.0,0,30,7.0,106.0
24425,55.0,0,120,8.0,117.0
24426,63.0,0,120,8.0,117.0
24427,75.0,0,120,5.0,104.0
24428,63.0,1,120,5.0,104.0
24429,63.0,1,120,10.0,112.0
24430,55.0,0,120,10.0,112.0
24431,51.0,0,120,6.0,122.0
24432,72.0,30,300,8.0,117.0
24433,84.0,0,300,0.0,94.0
24434,72.0,0,300,0.0,94.0
24435,75.0,0,300,1.0,98.0
24436,84.0,1,0,1.0,98.0
24437,72.0,0,300,2.0,94.0
24438,72.0,0,300,10.0,112.0
24439,63.0,0,300,2.0,94.0
24440,55.0,0,0,4.0,107.0
24441,67.0,0,300,4.0,107.0
24442,48.0,0,300,11.0,117.0
24443,60.0,2,300,11.0,117.0
24444,48.0,1,300,12.0,117.0
24445,48.0,1,300,3.0,110.0
24446,60.0,1,0,3.0,110.0
24447,36.0,1,0,13.0,127.0
24448,74.0,293,20,8.0,117.0
24449,86.0,0,20,0.0,94.0
24450,74.0,0,20,0.0,94.0
24451,74.0,1,20,10.0,112.0
24452,72.0,0,20,0.0,94.0
24453,72.0,0,20,8.0,117.0
24454,84.0,13,20,0.0,94.0
24455,72.0,2,20,10.0,112.0
24456,83.0,0,20,0.0,94.0
24457,71.0,0,20,0.0,94.0
24458,71.0,18,20,8.0,117.0
24459,71.0,2,20,10.0,112.0
24460,72.0,0,45,0.0,94.0
24461,84.0,18,45,0.0,94.0
24462,72.0,0,45,8.0,117.0
24463,72.0,2,45,10.0,112.0
24464,75.0,0,120,1.0,98.0
24465,72.0,0,120,2.0,94.0
24466,67.0,0,120,4.0,107.0
24467,55.0,1,0,4.0,107.0
24468,63.0,0,120,2.0,94.0
24469,48.0,2,120,11.0,117.0
24470,60.0,0,120,11.0,117.0
24471,48.0,1,120,12.0,117.0
24472,86.0,0,45,0.0,94.0
24473,74.0,0,45,0.0,94.0
24474,74.0,58,45,8.0,117.0
24475,71.0,0,45,10.0,112.0
24476,74.0,1,60,1.0,98.0
24477,83.0,0,60,1.0,98.0
24478,74.0,0,60,2.0,94.0
24479,71.0,0,60,2.0,94.0
24480,67.0,0,0,4.0,107.0
24481,55.0,2,60,11.0,117.0
24482,43.0,1,60,12.0,117.0
24483,59.0,1,60,3.0,110.0
24484,62.0,0,60,3.0,110.0
24485,31.0,1,60,13.0,127.0
24486,87.0,0,120,0.0,94.0
24487,75.0,53,120,0.0,94.0
24488,75.0,0,120,8.0,117.0
24489,75.0,1,0,1.0,98.0
24490,84.0,1,120,1.0,98.0
24491,72.0,0,120,10.0,112.0
24492,72.0,0,120,2.0,94.0
24493,75.0,0,120,2.0,94.0
24494,55.0,1,120,4.0,107.0
24495,60.0,0,120,11.0,117.0
24496,48.0,2,0,11.0,117.0
24497,48.0,1,120,12.0,117.0
24498,60.0,1,120,3.0,110.0
24499,63.0,0,120,3.0,110.0
24500,36.0,1,120,13.0,127.0
24501,72.0,0,120,8.0,117.0
24502,87.0,0,120,0.0,94.0
24503,84.0,113,120,0.0,94.0
24504,63.0,0,120,5.0,104.0
24505,75.0,0,120,5.0,104.0
24506,84.0,0,120,1.0,98.0
24507,51.0,0,120,4.0,107.0
24508,72.0,0,120,2.0,94.0
24509,63.0,0,120,10.0,112.0
24510,67.0,1,120,2.0,94.0
24511,63.0,0,120,4.0,107.0
24512,60.0,0,120,11.0,117.0
24513,48.0,1,120,12.0,117.0
24514,60.0,0,120,3.0,110.0
24515,51.0,0,120,6.0,122.0
24516,48.0,1,120,3.0,110.0
24517,36.0,1,120,13.0,127.0
24518,92.0,0,120,0.0,94.0
24519,68.0,113,120,8.0,117.0
24520,89.0,0,120,0.0,94.0
24521,80.0,1,120,1.0,98.0
24522,77.0,0,120,1.0,98.0
24523,65.0,0,120,2.0,94.0
24524,65.0,0,120,10.0,112.0
24525,68.0,1,120,2.0,94.0
24526,60.0,0,120,11.0,117.0
24527,48.0,0,0,11.0,117.0
24528,53.0,1,120,12.0,117.0
24529,56.0,1,120,3.0,110.0
24530,53.0,0,120,3.0,110.0
24531,41.0,1,120,13.0,127.0
24532,91.0,0,120,0.0,94.0
24533,87.0,0,120,0.0,94.0
24534,67.0,113,120,8.0,117.0
24535,75.0,0,120,1.0,98.0
24536,79.0,0,120,1.0,98.0
24537,63.0,0,120,5.0,104.0
24538,75.0,1,120,5.0,104.0
24539,63.0,0,120,4.0,107.0
24540,63.0,0,120,10.0,112.0
24541,51.0,0,120,4.0,107.0
24542,63.0,1,120,2.0,94.0
24543,67.0,0,120,2.0,94.0
24544,60.0,2,120,11.0,117.0
24545,48.0,1,120,12.0,117.0
24546,51.0,0,120,6.0,122.0
24547,51.0,0,120,3.0,110.0
24548,55.0,1,120,3.0,110.0
24549,36.0,1,120,13.0,127.0
24550,36.0,113,30,7.0,106.0
24551,60.0,0,30,7.0,106.0
24552,48.0,30,30,7.0,106.0
24553,72.0,0,30,7.0,106.0
24554,43.0,0,30,7.0,106.0
24555,67.0,0,30,7.0,106.0
24556,39.0,30,30,7.0,106.0
24557,63.0,0,30,7.0,106.0
24558,72.0,0,30,7.0,106.0
24559,48.0,30,30,7.0,106.0
24560,63.0,0,30,7.0,106.0
24561,39.0,30,30,7.0,106.0
24562,75.0,30,30,7.0,106.0
24563,51.0,0,30,7.0,106.0
24564,72.0,0,30,7.0,106.0
24565,48.0,0,30,7.0,106.0
24566,67.0,30,30,7.0,106.0
24567,43.0,0,30,7.0,106.0
24568,75.0,0,30,7.0,106.0
24569,51.0,30,30,7.0,106.0
24570,67.0,30,30,7.0,106.0
24571,43.0,0,30,7.0,106.0
24572,79.0,30,30,7.0,106.0
24573,55.0,0,30,7.0,106.0
24574,75.0,0,30,7.0,106.0
24575,72.0,30,30,7.0,106.0
24576,48.0,0,30,7.0,106.0
24577,51.0,0,30,7.0,106.0
24578,79.0,30,30,7.0,106.0
24579,55.0,0,30,7.0,106.0
24580,48.0,0,30,7.0,106.0
24581,72.0,30,30,7.0,106.0
24582,60.0,30,30,7.0,106.0
24583,84.0,0,30,7.0,106.0
24584,75.0,0,30,7.0,106.0
24585,79.0,30,30,7.0,106.0
24586,51.0,0,30,7.0,106.0
24587,55.0,0,30,7.0,106.0
24588,84.0,30,30,7.0,106.0
24589,60.0,0,30,7.0,106.0
24590,48.0,0,30,7.0,106.0
24591,75.0,30,30,7.0,106.0
24592,60.0,30,30,7.0,106.0
24593,87.0,0,30,7.0,106.0
24594,79.0,0,30,7.0,106.0
24595,51.0,30,30,7.0,106.0
24596,84.0,0,30,7.0,106.0
24597,55.0,0,30,7.0,106.0
24598,87.0,0,30,7.0,106.0
24599,60.0,30,30,7.0,106.0
24600,48.0,30,30,7.0,106.0
24601,72.0,0,30,7.0,106.0
24602,60.0,0,30,7.0,106.0
24603,84.0,30,30,7.0,106.0
24604,79.0,0,30,7.0,106.0
24605,55.0,0,30,7.0,106.0
24606,51.0,30,30,7.0,106.0
24607,75.0,0,30,7.0,106.0
24608,84.0,30,30,7.0,106.0
24609,60.0,0,30,7.0,106.0
24610,53.0,30,30,7.0,106.0
24611,68.0,0,30,7.0,106.0
24612,65.0,0,30,7.0,106.0
24613,80.0,30,30,7.0,106.0
24614,77.0,30,30,7.0,106.0
24615,60.0,0,30,7.0,106.0
24616,72.0,0,30,7.0,106.0
24617,56.0,0,30,7.0,106.0
24618,80.0,0,30,7.0,106.0
24619,65.0,30,30,7.0,106.0
24620,67.0,0,30,7.0,106.0
24621,48.0,0,30,7.0,106.0
24622,60.0,23,30,7.0,106.0
24623,79.0,0,30,7.0,106.0
24624,72.0,0,30,7.0,106.0
24625,55.0,0,30,7.0,106.0
24626,51.0,0,30,7.0,106.0
24627,75.0,30,30,7.0,106.0
24628,67.0,0,120,8.0,117.0
24629,91.0,0,120,0.0,94.0
24630,79.0,30,30,7.0,106.0
24631,60.0,0,30,7.0,106.0
24632,87.0,30,120,0.0,94.0
24633,79.0,1,120,1.0,98.0
24634,75.0,0,120,1.0,98.0
24635,60.0,0,120,2.0,94.0
24636,72.0,0,120,2.0,94.0
24637,63.0,1,120,10.0,112.0
24638,48.0,0,0,11.0,117.0
24639,60.0,2,0,11.0,117.0
24640,48.0,1,120,12.0,117.0
24641,48.0,0,120,3.0,110.0
24642,55.0,1,120,3.0,110.0
24643,36.0,1,120,13.0,127.0
24644,68.0,30,120,8.0,117.0
24645,89.0,0,120,0.0,94.0
24646,92.0,0,120,0.0,94.0
24647,80.0,0,120,1.0,98.0
24648,77.0,1,120,1.0,98.0
24649,60.0,1,120,2.0,94.0
24650,72.0,1,0,2.0,94.0
24651,65.0,0,120,10.0,112.0
24652,53.0,1,120,12.0,117.0
24653,56.0,0,120,3.0,110.0
24654,53.0,1,120,3.0,110.0
24655,41.0,1,120,13.0,127.0
24656,67.0,0,30,7.0,106.0
24657,48.0,0,30,7.0,106.0
24658,79.0,23,30,7.0,106.0
24659,60.0,0,30,7.0,106.0
24660,75.0,0,30,7.0,106.0
24661,55.0,30,30,7.0,106.0
24662,51.0,0,30,7.0,106.0
24663,72.0,0,30,7.0,106.0
24664,87.0,0,120,0.0,94.0
24665,67.0,113,120,8.0,117.0
24666,91.0,0,120,0.0,94.0
24667,79.0,0,30,7.0,106.0
24668,60.0,30,30,7.0,106.0
24669,79.0,0,120,1.0,98.0
24670,75.0,1,120,1.0,98.0
24671,60.0,0,120,2.0,94.0
24672,63.0,0,120,10.0,112.0
24673,60.0,0,120,11.0,117.0
24674,48.0,2,120,11.0,117.0
24675,48.0,1,120,12.0,117.0
24676,55.0,0,120,3.0,110.0
24677,48.0,1,120,3.0,110.0
24678,36.0,1,120,13.0,127.0
24679,68.0,0,30,7.0,106.0
24680,53.0,30,30,7.0,106.0
24681,80.0,0,30,7.0,106.0
24682,65.0,30,30,7.0,106.0
24683,77.0,30,30,7.0,106.0
24684,60.0,0,30,7.0,106.0
24685,56.0,0,30,7.0,106.0
24686,72.0,0,30,7.0,106.0
24687,80.0,30,30,7.0,106.0
24688,65.0,0,30,7.0,106.0
24689,68.0,0,30,7.0,106.0
24690,49.0,30,30,7.0,106.0
24691,80.0,30,30,7.0,106.0
24692,61.0,0,30,7.0,106.0
24693,77.0,0,30,7.0,106.0
24694,56.0,30,30,7.0,106.0
24695,53.0,0,30,7.0,106.0
24696,73.0,0,30,7.0,106.0
24697,80.0,30,30,7.0,106.0
24698,61.0,0,30,7.0,106.0
24699,70.0,0,30,7.0,106.0
24700,54.0,30,30,7.0,106.0
24701,66.0,30,30,7.0,106.0
24702,82.0,0,30,7.0,106.0
24703,78.0,0,30,7.0,106.0
24704,61.0,30,30,7.0,106.0
24705,58.0,0,30,7.0,106.0
24706,73.0,0,30,7.0,106.0
24707,66.0,30,30,7.0,106.0
24708,82.0,0,30,7.0,106.0
24709,68.0,0,30,7.0,106.0
24710,49.0,0,30,7.0,106.0
24711,61.0,23,30,7.0,106.0
24712,80.0,0,30,7.0,106.0
24713,73.0,0,30,7.0,106.0
24714,56.0,30,30,7.0,106.0
24715,53.0,0,30,7.0,106.0
24716,77.0,0,30,7.0,106.0
24717,89.0,0,120,0.0,94.0
24718,85.0,30,0,0.0,94.0
24719,68.0,30,120,8.0,117.0
24720,80.0,30,30,7.0,106.0
24721,61.0,0,30,7.0,106.0
24722,77.0,1,120,1.0,98.0
24723,80.0,0,120,1.0,98.0
24724,65.0,0,120,10.0,112.0
24725,65.0,0,120,2.0,94.0
24726,68.0,1,120,2.0,94.0
24727,49.0,2,120,11.0,117.0
24728,61.0,0,120,11.0,117.0
24729,49.0,1,120,12.0,117.0
24730,49.0,0,120,3.0,110.0
24731,53.0,1,120,3.0,110.0
24732,37.0,1,120,13.0,127.0
24733,70.0,0,120,8.0,117.0
24734,91.0,0,120,0.0,94.0
24735,85.0,0,0,0.0,94.0
24736,82.0,1,120,1.0,98.0
24737,78.0,0,120,1.0,98.0
24738,66.0,1,120,10.0,112.0
24739,70.0,0,120,2.0,94.0
24740,66.0,0,120,2.0,94.0
24741,61.0,2,120,11.0,117.0
24742,49.0,0,120,11.0,117.0
24743,54.0,1,120,12.0,117.0
24744,54.0,1,120,3.0,110.0
24745,58.0,0,120,3.0,110.0
24746,42.0,1,120,13.0,127.0
24747,49.0,0,30,7.0,106.0
24748,68.0,0,30,7.0,106.0
24749,80.0,23,30,7.0,106.0
24750,61.0,0,30,7.0,106.0
24751,77.0,0,30,7.0,106.0
24752,56.0,30,30,7.0,106.0
24753,53.0,0,30,7.0,106.0
24754,73.0,0,30,7.0,106.0
24755,89.0,0,120,0.0,94.0
24756,61.0,0,30,7.0,106.0
24757,80.0,30,30,7.0,106.0
24758,68.0,113,120,8.0,117.0
24759,80.0,1,120,1.0,98.0
24760,77.0,0,120,1.0,98.0
24761,65.0,0,120,2.0,94.0
24762,68.0,0,120,2.0,94.0
24763,65.0,1,120,10.0,112.0
24764,61.0,0,120,11.0,117.0
24765,49.0,2,120,11.0,117.0
24766,49.0,1,120,12.0,117.0
24767,53.0,1,120,3.0,110.0
24768,56.0,0,120,3.0,110.0
24769,37.0,1,120,13.0,127.0
24770,70.0,0,30,7.0,106.0
24771,54.0,30,30,7.0,106.0
24772,82.0,30,30,7.0,106.0
24773,66.0,0,30,7.0,106.0
24774,61.0,0,30,7.0,106.0
24775,58.0,30,30,7.0,106.0
24776,73.0,0,30,7.0,106.0
24777,78.0,0,30,7.0,106.0
24778,66.0,0,30,7.0,106.0
24779,82.0,30,30,7.0,106.0
24780,49.0,30,30,7.0,106.0
24781,68.0,0,30,7.0,106.0
24782,61.0,30,30,7.0,106.0
24783,80.0,0,30,7.0,106.0
24784,56.0,0,30,7.0,106.0
24785,53.0,0,30,7.0,106.0
24786,77.0,30,30,7.0,106.0
24787,73.0,0,30,7.0,106.0
24788,80.0,0,30,7.0,106.0
24789,61.0,30,30,7.0,106.0
24790,54.0,0,30,7.0,106.0
24791,70.0,30,30,7.0,106.0
24792,66.0,30,30,7.0,106.0
24793,82.0,0,30,7.0,106.0
24794,73.0,30,30,7.0,106.0
24795,58.0,0,30,7.0,106.0
24796,61.0,0,30,7.0,106.0
24797,78.0,0,30,7.0,106.0
24798,66.0,0,30,7.0,106.0
24799,82.0,30,30,7.0,106.0
24800,70.0,0,30,7.0,106.0
24801,51.0,0,30,7.0,106.0
24802,63.0,0,30,7.0,106.0
24803,82.0,23,30,7.0,106.0
24804,75.0,30,30,7.0,106.0
24805,58.0,0,30,7.0,106.0
24806,55.0,0,30,7.0,106.0
24807,79.0,0,30,7.0,106.0
24808,63.0,30,30,7.0,106.0
24809,70.0,30,120,8.0,117.0
24810,82.0,0,30,7.0,106.0
24811,82.0,0,120,0.0,94.0
24812,79.0,1,120,1.0,98.0
24813,70.0,1,120,2.0,94.0
24814,58.0,0,120,10.0,112.0
24815,67.0,0,120,2.0,94.0
24816,51.0,2,120,11.0,117.0
24817,51.0,1,120,12.0,117.0
24818,58.0,1,120,3.0,110.0
24819,55.0,0,120,3.0,110.0
24820,39.0,1,120,13.0,127.0
24821,72.0,0,30,7.0,106.0
24822,56.0,30,30,7.0,106.0
24823,84.0,23,30,7.0,106.0
24824,68.0,0,30,7.0,106.0
24825,63.0,0,30,7.0,106.0
24826,60.0,0,30,7.0,106.0
24827,80.0,30,30,7.0,106.0
24828,75.0,0,30,7.0,106.0
24829,84.0,0,30,7.0,106.0
24830,72.0,0,120,8.0,117.0
24831,84.0,30,0,0.0,94.0
24832,68.0,30,30,7.0,106.0
24833,80.0,1,120,1.0,98.0
24834,72.0,1,0,2.0,94.0
24835,68.0,0,120,2.0,94.0
24836,60.0,1,120,10.0,112.0
24837,56.0,2,120,11.0,117.0
24838,56.0,1,120,12.0,117.0
24839,56.0,1,120,3.0,110.0
24840,60.0,0,0,3.0,110.0
24841,44.0,1,120,13.0,127.0
24842,72.0,0,30,7.0,106.0
24843,53.0,0,30,7.0,106.0
24844,84.0,23,30,7.0,106.0
24845,65.0,0,30,7.0,106.0
24846,77.0,0,30,7.0,106.0
24847,60.0,0,30,7.0,106.0
24848,81.0,0,30,7.0,106.0
24849,57.0,30,30,7.0,106.0
24850,84.0,0,30,7.0,106.0
24851,65.0,30,30,7.0,106.0
24852,77.0,0,120,8.0,117.0
24853,81.0,1,120,1.0,98.0
24854,69.0,0,120,2.0,94.0
24855,65.0,0,120,10.0,112.0
24856,53.0,2,120,11.0,117.0
24857,53.0,1,120,12.0,117.0
24858,57.0,1,120,3.0,110.0
24859,41.0,1,120,13.0,127.0
24860,58.0,30,30,7.0,106.0
24861,74.0,0,30,7.0,106.0
24862,86.0,0,30,7.0,106.0
24863,70.0,23,30,7.0,106.0
24864,82.0,0,30,7.0,106.0
24865,62.0,0,30,7.0,106.0
24866,65.0,30,30,7.0,106.0
24867,77.0,0,30,7.0,106.0
24868,86.0,30,30,7.0,106.0
24869,74.0,0,120,8.0,117.0
24870,70.0,0,30,7.0,106.0
24871,86.0,0,0,0.0,94.0
24872,82.0,1,120,1.0,98.0
24873,74.0,0,120,2.0,94.0
24874,62.0,0,120,10.0,112.0
24875,70.0,1,120,2.0,94.0
24876,58.0,2,120,11.0,117.0
24877,58.0,1,120,12.0,117.0
24878,62.0,1,120,3.0,110.0
24879,58.0,0,120,3.0,110.0
24880,46.0,1,120,13.0,127.0
24881,74.0,0,30,7.0,106.0
24882,55.0,0,30,7.0,106.0
24883,67.0,0,30,7.0,106.0
24884,86.0,23,30,7.0,106.0
24885,62.0,0,30,7.0,106.0
24886,79.0,0,30,7.0,106.0
24887,83.0,30,30,7.0,106.0
24888,59.0,0,30,7.0,106.0
24889,79.0,30,120,8.0,117.0
24890,86.0,0,30,7.0,106.0
24891,67.0,30,30,7.0,106.0
24892,83.0,1,120,1.0,98.0
24893,67.0,0,120,10.0,112.0
24894,71.0,1,120,2.0,94.0
24895,74.0,0,120,2.0,94.0
24896,55.0,2,120,11.0,117.0
24897,55.0,1,120,12.0,117.0
24898,59.0,1,120,3.0,110.0
24899,62.0,0,120,3.0,110.0
24900,43.0,1,120,13.0,127.0
24901,60.0,0,30,7.0,106.0
24902,75.0,0,30,7.0,106.0
24903,87.0,0,30,7.0,106.0
24904,72.0,23,30,7.0,106.0
24905,67.0,30,30,7.0,106.0
24906,63.0,0,30,7.0,106.0
24907,84.0,0,30,7.0,106.0
24908,79.0,0,30,7.0,106.0
24909,87.0,30,0,0.0,94.0
24910,75.0,30,120,8.0,117.0
24911,72.0,30,30,7.0,106.0
24912,87.0,0,30,7.0,106.0
24913,84.0,1,0,1.0,98.0
24914,75.0,0,120,2.0,94.0
24915,63.0,0,120,10.0,112.0
24916,72.0,1,0,2.0,94.0
24917,60.0,2,120,11.0,117.0
24918,60.0,1,120,12.0,117.0
24919,60.0,1,0,3.0,110.0
24920,63.0,0,0,3.0,110.0
24921,48.0,1,120,13.0,127.0
24922,75.0,0,30,7.0,106.0
24923,56.0,0,30,7.0,106.0
24924,68.0,23,30,7.0,106.0
24925,87.0,0,30,7.0,106.0
24926,80.0,30,30,7.0,106.0
24927,63.0,0,30,7.0,106.0
24928,60.0,0,30,7.0,106.0
24929,84.0,0,30,7.0,106.0
24930,80.0,0,120,8.0,117.0
24931,68.0,30,30,7.0,106.0
24932,87.0,0,30,7.0,106.0
24933,75.0,0,120,2.0,94.0
24934,68.0,0,120,10.0,112.0
24935,56.0,2,120,11.0,117.0
24936,56.0,1,120,12.0,117.0
24937,44.0,1,120,13.0,127.0
24938,77.0,0,30,7.0,106.0
24939,62.0,0,30,7.0,106.0
24940,74.0,23,30,7.0,106.0
24941,89.0,0,30,7.0,106.0
24942,65.0,0,30,7.0,106.0
24943,68.0,30,30,7.0,106.0
24944,86.0,0,30,7.0,106.0
24945,80.0,0,30,7.0,106.0
24946,77.0,30,120,8.0,117.0
24947,89.0,0,0,0.0,94.0
24948,89.0,30,30,7.0,106.0
24949,74.0,0,30,7.0,106.0
24950,82.0,1,120,1.0,98.0
24951,77.0,0,120,2.0,94.0
24952,70.0,1,120,2.0,94.0
24953,65.0,0,120,10.0,112.0
24954,62.0,2,120,11.0,117.0
24955,62.0,1,120,12.0,117.0
24956,62.0,1,0,3.0,110.0
24957,65.0,1,120,3.0,110.0
24958,50.0,1,120,13.0,127.0
24959,58.0,0,30,7.0,106.0
24960,77.0,0,30,7.0,106.0
24961,89.0,0,30,7.0,106.0
24962,70.0,23,30,7.0,106.0
24963,82.0,0,30,7.0,106.0
24964,62.0,0,30,7.0,106.0
24965,65.0,0,30,7.0,106.0
24966,86.0,30,30,7.0,106.0
24967,82.0,30,120,8.0,117.0
24968,70.0,30,30,7.0,106.0
24969,89.0,0,30,7.0,106.0
24970,80.0,1,120,1.0,98.0
24971,68.0,0,120,2.0,94.0
24972,70.0,1,120,10.0,112.0
24973,77.0,0,120,2.0,94.0
24974,58.0,2,120,11.0,117.0
24975,58.0,1,120,12.0,117.0
24976,65.0,0,120,3.0,110.0
24977,46.0,1,120,13.0,127.0
24978,51.0,0,60,7.0,106.0
24979,79.0,23,30,7.0,106.0
24980,63.0,0,60,5.0,104.0
24981,75.0,0,60,5.0,104.0
24982,51.0,1,60,6.0,122.0
24983,79.0,30,90,8.0,117.0
24984,82.0,30,30,7.0,106.0
24985,70.0,0,90,10.0,112.0
24986,63.0,2,90,11.0,117.0
24987,51.0,1,90,12.0,117.0
24988,39.0,1,90,13.0,127.0
24989,87.0,30,30,7.0,106.0
24990,79.0,1,120,1.0,98.0
24991,67.0,0,120,2.0,94.0
24992,91.0,0,60,7.0,106.0
24993,58.0,26,30,7.0,106.0
24994,63.0,30,30,7.0,106.0
24995,67.0,30,90,8.0,117.0
24996,63.0,2,90,10.0,112.0
24997,58.0,2,90,11.0,117.0
24998,67.0,30,30,7.0,106.0
24999,51.0,30,60,7.0,106.0
25000,79.0,23,30,7.0,106.0
25001,82.0,30,30,7.0,106.0
25002,51.0,5,90,12.0,117.0
25003,39.0,2,90,13.0,127.0
25004,87.0,30,30,7.0,106.0
25005,58.0,26,30,7.0,106.0
25006,91.0,30,60,7.0,106.0
25007,63.0,30,30,7.0,106.0
25008,67.0,0,90,8.0,117.0
25009,63.0,2,90,10.0,112.0
25010,58.0,2,90,11.0,117.0
25011,67.0,30,30,7.0,106.0
25012,79.0,23,30,7.0,106.0
25013,51.0,30,60,7.0,106.0
25014,82.0,30,30,7.0,106.0
25015,51.0,5,90,12.0,117.0
25016,39.0,2,90,13.0,127.0
25017,87.0,0,600,0.0,94.0
25018,87.0,30,30,7.0,106.0
25019,75.0,0,600,2.0,94.0
25020,63.0,0,600,3.0,110.0
25021,58.0,24,30,7.0,106.0
25022,91.0,0,60,7.0,106.0
25023,63.0,30,30,7.0,106.0
25024,67.0,30,90,8.0,117.0
25025,63.0,0,90,10.0,112.0
25026,58.0,2,90,11.0,117.0
25027,67.0,30,30,7.0,106.0
25028,82.0,0,120,0.0,94.0
25029,70.0,2,120,2.0,94.0
25030,58.0,2,120,3.0,110.0
25031,79.0,23,30,7.0,106.0
25032,51.0,30,60,7.0,106.0
25033,82.0,30,30,7.0,106.0
25034,51.0,3,90,12.0,117.0
25035,39.0,1,90,13.0,127.0
25036,80.0,0,120,0.0,94.0
25037,87.0,30,30,7.0,106.0
25038,68.0,2,120,2.0,94.0
25039,56.0,1,120,3.0,110.0
25040,91.0,0,60,7.0,106.0
25041,58.0,24,30,7.0,106.0
25042,67.0,0,90,8.0,117.0
25043,63.0,30,30,7.0,106.0
25044,63.0,0,90,10.0,112.0
25045,58.0,2,90,11.0,117.0
25046,67.0,30,30,7.0,106.0
25047,79.0,30,120,0.0,94.0
25048,67.0,2,120,2.0,94.0
25049,63.0,0,960,4.0,107.0
25050,67.0,1,960,4.0,107.0
25051,55.0,2,120,3.0,110.0
25052,44.0,0,60,7.0,106.0
25053,84.0,23,30,7.0,106.0
25054,63.0,0,60,5.0,104.0
25055,75.0,1,60,5.0,104.0
25056,51.0,1,60,6.0,122.0
25057,89.0,30,30,7.0,106.0
25058,92.0,30,30,7.0,106.0
25059,56.0,3,120,12.0,117.0
25060,44.0,1,120,13.0,127.0
25061,56.0,26,30,7.0,106.0
25062,96.0,0,60,7.0,106.0
25063,60.0,30,30,7.0,106.0
25064,65.0,30,30,7.0,106.0
25065,72.0,30,120,8.0,117.0
25066,65.0,2,120,10.0,112.0
25067,56.0,2,120,11.0,117.0
25068,44.0,30,60,7.0,106.0
25069,84.0,23,30,7.0,106.0
25070,89.0,30,30,7.0,106.0
25071,92.0,30,30,7.0,106.0
25072,44.0,5,120,12.0,117.0
25073,32.0,2,120,13.0,127.0
25074,56.0,26,30,7.0,106.0
25075,96.0,30,60,7.0,106.0
25076,60.0,30,30,7.0,106.0
25077,65.0,30,30,7.0,106.0
25078,72.0,0,120,8.0,117.0
25079,65.0,2,120,10.0,112.0
25080,56.0,2,120,11.0,117.0
25081,84.0,23,30,7.0,106.0
25082,44.0,30,60,7.0,106.0
25083,89.0,30,30,7.0,106.0
25084,92.0,30,30,7.0,106.0
25085,84.0,30,600,0.0,94.0
25086,72.0,0,600,2.0,94.0
25087,44.0,5,120,12.0,117.0
25088,60.0,0,600,3.0,110.0
25089,32.0,2,120,13.0,127.0
25090,96.0,0,60,7.0,106.0
25091,56.0,24,30,7.0,106.0
25092,60.0,30,30,7.0,106.0
25093,72.0,30,120,8.0,117.0
25094,80.0,0,120,0.0,94.0
25095,65.0,30,30,7.0,106.0
25096,65.0,2,120,10.0,112.0
25097,68.0,0,120,2.0,94.0
25098,56.0,2,120,11.0,117.0
25099,56.0,2,120,3.0,110.0
25100,44.0,0,60,7.0,106.0
25101,84.0,23,30,7.0,106.0
25102,89.0,30,30,7.0,106.0
25103,92.0,30,30,7.0,106.0
25104,79.0,30,120,0.0,94.0
25105,67.0,2,120,2.0,94.0
25106,44.0,3,120,12.0,117.0
25107,55.0,1,120,3.0,110.0
25108,32.0,1,120,13.0,127.0
25109,96.0,0,60,7.0,106.0
25110,56.0,24,30,7.0,106.0
25111,60.0,30,30,7.0,106.0
25112,77.0,0,120,0.0,94.0
25113,72.0,30,120,8.0,117.0
25114,65.0,30,30,7.0,106.0
25115,65.0,2,120,10.0,112.0
25116,63.0,0,960,4.0,107.0
25117,65.0,1,960,4.0,107.0
25118,65.0,0,120,2.0,94.0
25119,56.0,2,120,11.0,117.0
25120,53.0,2,120,3.0,110.0
25121,46.0,30,60,7.0,106.0
25122,86.0,23,30,7.0,106.0
25123,70.0,0,60,5.0,104.0
25124,58.0,1,60,5.0,104.0
25125,46.0,0,60,6.0,122.0
25126,89.0,30,30,7.0,106.0
25127,92.0,30,30,7.0,106.0
25128,46.0,3,120,12.0,117.0
25129,34.0,1,120,13.0,127.0
25130,53.0,20,24,7.0,106.0
25131,98.0,30,60,7.0,106.0
25132,56.0,24,24,7.0,106.0
25133,58.0,24,24,7.0,106.0
25134,68.0,0,120,8.0,117.0
25135,62.0,24,24,7.0,106.0
25136,65.0,2,120,10.0,112.0
25137,58.0,2,120,11.0,117.0
25138,86.0,23,30,7.0,106.0
25139,46.0,24,60,7.0,106.0
25140,89.0,30,30,7.0,106.0
25141,92.0,30,30,7.0,106.0
25142,46.0,5,120,12.0,117.0
25143,34.0,2,120,13.0,127.0
25144,53.0,20,24,7.0,106.0
25145,98.0,0,60,7.0,106.0
25146,56.0,24,24,7.0,106.0
25147,58.0,24,24,7.0,106.0
25148,68.0,30,120,8.0,117.0
25149,62.0,24,24,7.0,106.0
25150,80.0,0,480,0.0,94.0
25151,65.0,2,120,10.0,112.0
25152,58.0,2,120,11.0,117.0
25153,46.0,24,60,7.0,106.0
25154,86.0,23,30,7.0,106.0
25155,89.0,30,30,7.0,106.0
25156,92.0,30,30,7.0,106.0
25157,80.0,1,600,2.0,94.0
25158,58.0,0,600,4.0,107.0
25159,65.0,0,600,4.0,107.0
25160,46.0,5,120,12.0,117.0
25161,56.0,1,600,3.0,110.0
25162,34.0,2,120,13.0,127.0
25163,53.0,18,24,7.0,106.0
25164,98.0,30,60,7.0,106.0
25165,56.0,24,24,7.0,106.0
25166,58.0,24,24,7.0,106.0
25167,62.0,24,24,7.0,106.0
25168,68.0,0,120,8.0,117.0
25169,65.0,2,120,10.0,112.0
25170,77.0,0,120,2.0,94.0
25171,58.0,2,120,11.0,117.0
25172,53.0,2,120,3.0,110.0
25173,86.0,23,30,7.0,106.0
25174,46.0,24,60,7.0,106.0
25175,89.0,30,30,7.0,106.0
25176,92.0,30,30,7.0,106.0
25177,75.0,2,120,2.0,94.0
25178,46.0,3,120,12.0,117.0
25179,51.0,1,120,3.0,110.0
25180,34.0,1,120,13.0,127.0
25181,53.0,18,24,7.0,106.0
25182,98.0,30,60,7.0,106.0
25183,56.0,24,24,7.0,106.0
25184,58.0,24,24,7.0,106.0
25185,62.0,24,24,7.0,106.0
25186,68.0,0,120,8.0,117.0
25187,65.0,2,120,10.0,112.0
25188,74.0,0,120,2.0,94.0
25189,58.0,2,120,11.0,117.0
25190,50.0,2,120,3.0,110.0
25191,86.0,23,30,7.0,106.0
25192,46.0,24,60,7.0,106.0
25193,89.0,30,30,7.0,106.0
25194,92.0,30,30,7.0,106.0
25195,77.0,2,120,2.0,94.0
25196,46.0,3,120,12.0,117.0
25197,65.0,1,120,3.0,110.0
25198,34.0,1,120,13.0,127.0
25199,53.0,18,24,7.0,106.0
25200,98.0,30,60,7.0,106.0
25201,56.0,24,24,7.0,106.0
25202,58.0,24,24,7.0,106.0
25203,62.0,24,24,7.0,106.0
25204,68.0,0,120,8.0,117.0
25205,74.0,2,120,2.0,94.0
25206,65.0,0,120,10.0,112.0
25207,58.0,2,120,11.0,117.0
25208,62.0,2,120,3.0,110.0
25209,46.0,24,60,7.0,106.0
25210,86.0,23,30,7.0,106.0
25211,89.0,30,30,7.0,106.0
25212,92.0,30,30,7.0,106.0
25213,72.0,2,120,2.0,94.0
25214,46.0,3,120,12.0,117.0
25215,60.0,1,120,3.0,110.0
25216,34.0,1,120,13.0,127.0
25217,53.0,18,24,7.0,106.0
25218,98.0,0,60,7.0,106.0
25219,56.0,24,24,7.0,106.0
25220,58.0,24,24,7.0,106.0
25221,68.0,30,120,8.0,117.0
25222,62.0,24,24,7.0,106.0
25223,65.0,2,120,10.0,112.0
25224,70.0,0,120,2.0,94.0
25225,58.0,2,120,11.0,117.0
25226,58.0,2,120,3.0,110.0
25227,86.0,23,30,7.0,106.0
25228,46.0,24,60,7.0,106.0
25229,89.0,30,30,7.0,106.0
25230,92.0,30,30,7.0,106.0
25231,72.0,2,120,2.0,94.0
25232,46.0,3,120,12.0,117.0
25233,60.0,1,120,3.0,110.0
25234,34.0,1,120,13.0,127.0
25235,53.0,18,24,7.0,106.0
25236,98.0,0,60,7.0,106.0
25237,56.0,24,24,7.0,106.0
25238,58.0,24,24,7.0,106.0
25239,68.0,30,120,8.0,117.0
25240,62.0,24,24,7.0,106.0
25241,68.0,0,120,2.0,94.0
25242,65.0,2,120,10.0,112.0
25243,58.0,2,120,11.0,117.0
25244,56.0,2,120,3.0,110.0
25245,86.0,23,30,7.0,106.0
25246,46.0,24,60,7.0,106.0
25247,89.0,30,30,7.0,106.0
25248,92.0,30,30,7.0,106.0
25249,67.0,2,120,2.0,94.0
25250,46.0,3,120,12.0,117.0
25251,55.0,1,120,3.0,110.0
25252,34.0,1,120,13.0,127.0
25253,53.0,18,24,7.0,106.0
25254,98.0,30,60,7.0,106.0
25255,56.0,24,24,7.0,106.0
25256,58.0,24,24,7.0,106.0
25257,62.0,24,24,7.0,106.0
25258,68.0,0,120,8.0,117.0
25259,77.0,0,120,0.0,94.0
25260,65.0,2,120,10.0,112.0
25261,65.0,0,120,2.0,94.0
25262,58.0,2,120,11.0,117.0
25263,53.0,2,120,3.0,110.0
25264,86.0,23,30,7.0,106.0
25265,46.0,24,60,7.0,106.0
25266,89.0,30,30,7.0,106.0
25267,92.0,30,30,7.0,106.0
25268,80.0,0,120,0.0,94.0
25269,68.0,2,120,2.0,94.0
25270,46.0,3,120,12.0,117.0
25271,56.0,1,120,3.0,110.0
25272,34.0,1,120,13.0,127.0
25273,53.0,18,24,7.0,106.0
25274,98.0,0,60,7.0,106.0
25275,56.0,24,24,7.0,106.0
25276,58.0,24,24,7.0,106.0
25277,68.0,30,120,8.0,117.0
25278,77.0,0,120,0.0,94.0
25279,62.0,24,24,7.0,106.0
25280,65.0,0,120,2.0,94.0
25281,65.0,2,120,10.0,112.0
25282,58.0,2,120,11.0,117.0
25283,53.0,2,120,3.0,110.0
25284,86.0,23,30,7.0,106.0
25285,46.0,0,60,7.0,106.0
25286,89.0,30,30,7.0,106.0
25287,84.0,24,120,0.0,94.0
25288,92.0,30,30,7.0,106.0
25289,72.0,2,120,2.0,94.0
25290,46.0,3,120,12.0,117.0
25291,60.0,1,120,3.0,110.0
25292,34.0,1,120,13.0,127.0
25293,53.0,18,24,7.0,106.0
25294,98.0,0,60,7.0,106.0
25295,56.0,24,24,7.0,106.0
25296,58.0,24,24,7.0,106.0
25297,68.0,30,120,8.0,117.0
25298,62.0,24,24,7.0,106.0
25299,82.0,0,120,0.0,94.0
25300,65.0,2,120,10.0,112.0
25301,70.0,2,0,2.0,94.0
25302,58.0,2,120,11.0,117.0
25303,58.0,2,120,3.0,110.0
25304,51.0,24,60,7.0,106.0
25305,87.0,23,30,7.0,106.0
25306,91.0,30,30,7.0,106.0
25307,94.0,30,30,7.0,106.0
25308,51.0,3,120,12.0,117.0
25309,39.0,1,120,13.0,127.0
25310,99.0,30,60,7.0,106.0
25311,55.0,26,30,7.0,106.0
25312,58.0,30,30,7.0,106.0
25313,67.0,0,120,8.0,117.0
25314,63.0,30,30,7.0,106.0
25315,63.0,2,120,10.0,112.0
25316,58.0,2,120,11.0,117.0
25317,51.0,30,60,7.0,106.0
25318,87.0,23,30,7.0,106.0
25319,91.0,30,30,7.0,106.0
25320,94.0,30,30,7.0,106.0
25321,82.0,0,360,0.0,94.0
25322,51.0,5,120,12.0,117.0
25323,58.0,1,360,3.0,110.0
25324,39.0,2,120,13.0,127.0
25325,99.0,0,60,7.0,106.0
25326,55.0,24,30,7.0,106.0
25327,58.0,30,30,7.0,106.0
25328,67.0,0,120,8.0,117.0
25329,79.0,30,120,0.0,94.0
25330,63.0,30,30,7.0,106.0
25331,67.0,0,120,2.0,94.0
25332,63.0,2,120,10.0,112.0
25333,58.0,2,120,11.0,117.0
25334,55.0,2,120,3.0,110.0
25335,80.0,30,60,0.0,94.0
25336,46.0,0,60,7.0,106.0
25337,86.0,23,30,7.0,106.0
25338,68.0,2,60,2.0,94.0
25339,56.0,1,60,3.0,110.0
25340,89.0,30,30,7.0,106.0
25341,77.0,0,60,0.0,94.0
25342,92.0,24,30,7.0,106.0
25343,65.0,2,60,2.0,94.0
25344,46.0,3,120,12.0,117.0
25345,53.0,4,60,3.0,110.0
25346,34.0,1,120,13.0,127.0
25347,53.0,18,24,7.0,106.0
25348,76.0,0,60,0.0,94.0
25349,98.0,0,60,7.0,106.0
25350,64.0,2,60,2.0,94.0
25351,52.0,2,60,3.0,110.0
25352,56.0,24,24,7.0,106.0
25353,58.0,6,24,7.0,106.0
25354,68.0,30,120,8.0,117.0
25355,62.0,24,24,7.0,106.0
25356,77.0,12,60,0.0,94.0
25357,65.0,0,120,10.0,112.0
25358,65.0,2,60,2.0,94.0
25359,58.0,2,120,11.0,117.0
25360,53.0,4,60,3.0,110.0
25361,80.0,24,60,0.0,94.0
25362,86.0,23,30,7.0,106.0
25363,46.0,0,60,7.0,106.0
25364,68.0,2,60,2.0,94.0
25365,56.0,1,60,3.0,110.0
25366,89.0,0,30,7.0,106.0
25367,77.0,30,60,0.0,94.0
25368,92.0,24,30,7.0,106.0
25369,65.0,2,60,2.0,94.0
25370,46.0,3,120,12.0,117.0
25371,53.0,4,60,3.0,110.0
25372,34.0,1,120,13.0,127.0
25373,53.0,18,24,7.0,106.0
25374,84.0,30,60,0.0,94.0
25375,98.0,0,60,7.0,106.0
25376,72.0,0,60,2.0,94.0
25377,60.0,2,60,3.0,110.0
25378,56.0,24,24,7.0,106.0
25379,58.0,6,24,7.0,106.0
25380,68.0,0,120,8.0,117.0
25381,82.0,12,60,0.0,94.0
25382,62.0,24,24,7.0,106.0
25383,70.0,2,60,2.0,94.0
25384,65.0,2,120,10.0,112.0
25385,58.0,2,120,11.0,117.0
25386,58.0,4,60,3.0,110.0
25387,87.0,23,30,7.0,106.0
25388,51.0,0,60,7.0,106.0
25389,91.0,30,30,7.0,106.0
25390,94.0,30,30,7.0,106.0
25391,51.0,3,120,12.0,117.0
25392,39.0,1,120,13.0,127.0
25393,55.0,26,30,7.0,106.0
25394,99.0,0,60,7.0,106.0
25395,58.0,30,30,7.0,106.0
25396,63.0,30,30,7.0,106.0
25397,67.0,30,120,8.0,117.0
25398,63.0,2,120,10.0,112.0
25399,58.0,2,120,11.0,117.0
25400,51.0,30,60,7.0,106.0
25401,87.0,23,30,7.0,106.0
25402,91.0,30,30,7.0,106.0
25403,82.0,24,360,0.0,94.0
25404,94.0,30,30,7.0,106.0
25405,70.0,2,360,2.0,94.0
25406,51.0,5,120,12.0,117.0
25407,58.0,1,360,3.0,110.0
25408,39.0,2,120,13.0,127.0
25409,55.0,26,30,7.0,106.0
25410,99.0,0,60,7.0,106.0
25411,58.0,0,30,7.0,106.0
25412,63.0,30,30,7.0,106.0
25413,79.0,30,60,7.0,106.0
25414,67.0,30,120,8.0,117.0
25415,67.0,0,60,7.0,106.0
25416,63.0,2,120,10.0,112.0
25417,58.0,2,120,11.0,117.0
25418,46.0,0,30,7.0,106.0
25419,50.0,30,30,7.0,106.0
25420,68.0,0,60,7.0,106.0
25421,80.0,30,60,7.0,106.0
25422,53.0,0,30,7.0,106.0
25423,56.0,30,30,7.0,106.0
25424,65.0,0,60,7.0,106.0
25425,77.0,30,60,7.0,106.0
25426,46.0,0,30,7.0,106.0
25427,50.0,30,30,7.0,106.0
25428,64.0,0,60,7.0,106.0
25429,76.0,30,60,7.0,106.0
25430,53.0,0,30,7.0,106.0
25431,56.0,30,30,7.0,106.0
25432,65.0,0,60,7.0,106.0
25433,77.0,30,60,7.0,106.0
25434,46.0,30,30,7.0,106.0
25435,50.0,30,30,7.0,106.0
25436,68.0,0,60,7.0,106.0
25437,80.0,0,60,7.0,106.0
25438,53.0,0,30,7.0,106.0
25439,77.0,0,0,7.0,106.0
25440,56.0,30,30,7.0,106.0
25441,65.0,0,60,7.0,106.0
25442,46.0,0,30,7.0,106.0
25443,50.0,30,30,7.0,106.0
25444,53.0,30,30,7.0,106.0
25445,74.0,0,0,7.0,106.0
25446,80.0,0,0,7.0,106.0
25447,86.0,0,90,7.0,106.0
25448,77.0,30,0,7.0,106.0
25449,74.0,0,0,7.0,106.0
25450,56.0,30,30,7.0,106.0
25451,80.0,0,0,7.0,106.0
25452,86.0,0,0,7.0,106.0
25453,46.0,0,30,7.0,106.0
25454,50.0,30,30,7.0,106.0
25455,53.0,30,30,7.0,106.0
25456,56.0,30,30,7.0,106.0
25457,46.0,30,30,7.0,106.0
25458,50.0,23,30,7.0,106.0
25459,68.0,0,90,8.0,117.0
25460,53.0,30,30,7.0,106.0
25461,65.0,2,0,10.0,112.0
25462,58.0,2,0,11.0,117.0
25463,46.0,1,90,12.0,117.0
25464,34.0,2,90,13.0,127.0
25465,56.0,0,30,7.0,106.0
25466,68.0,0,0,8.0,117.0
25467,46.0,1,30,12.0,117.0
25468,34.0,2,30,13.0,127.0
25469,46.0,23,30,7.0,106.0
25470,50.0,23,30,7.0,106.0
25471,53.0,30,30,7.0,106.0
25472,56.0,30,30,7.0,106.0
25473,65.0,2,120,10.0,112.0
25474,58.0,2,120,11.0,117.0
25475,46.0,1,120,12.0,117.0
25476,34.0,2,120,13.0,127.0
25477,46.0,0,30,7.0,106.0
25478,50.0,30,30,7.0,106.0
25479,89.0,0,0,7.0,106.0
25480,77.0,0,0,7.0,106.0
25481,86.0,0,0,7.0,106.0
25482,53.0,30,30,7.0,106.0
25483,80.0,0,0,7.0,106.0
25484,89.0,30,0,7.0,106.0
25485,56.0,30,30,7.0,106.0
25486,77.0,0,0,7.0,106.0
25487,80.0,0,0,7.0,106.0
25488,86.0,0,0,7.0,106.0
25489,46.0,0,30,7.0,106.0
25490,50.0,30,30,7.0,106.0
25491,53.0,30,30,7.0,106.0
25492,56.0,30,30,7.0,106.0
25493,46.0,30,30,7.0,106.0
25494,58.0,0,30,7.0,106.0
25495,50.0,0,30,7.0,106.0
25496,62.0,23,30,7.0,106.0
25497,53.0,30,30,7.0,106.0
25498,65.0,0,30,7.0,106.0
25499,68.0,0,90,8.0,117.0
25500,65.0,2,0,10.0,112.0
25501,58.0,2,90,11.0,117.0
25502,46.0,1,0,12.0,117.0
25503,34.0,2,0,13.0,127.0
25504,68.0,30,30,7.0,106.0
25505,56.0,0,30,7.0,106.0
25506,68.0,23,0,8.0,117.0
25507,58.0,2,0,11.0,117.0
25508,46.0,0,30,7.0,106.0
25509,58.0,0,30,7.0,106.0
25510,50.0,0,30,7.0,106.0
25511,62.0,23,30,7.0,106.0
25512,65.0,30,30,7.0,106.0
25513,53.0,0,30,7.0,106.0
25514,68.0,0,30,7.0,106.0
25515,56.0,30,30,7.0,106.0
25516,65.0,2,120,10.0,112.0
25517,46.0,1,120,12.0,117.0
25518,34.0,2,120,13.0,127.0
25519,58.0,30,30,7.0,106.0
25520,46.0,0,30,7.0,106.0
25521,50.0,28,30,7.0,106.0
25522,62.0,0,30,7.0,106.0
25523,53.0,30,30,7.0,106.0
25524,65.0,0,30,7.0,106.0
25525,80.0,1,90,1.0,98.0
25526,74.0,0,90,2.0,94.0
25527,46.0,1,0,4.0,107.0
25528,65.0,0,0,4.0,107.0
25529,56.0,30,30,7.0,106.0
25530,68.0,0,30,7.0,106.0
25531,80.0,1,0,1.0,98.0
25532,46.0,0,0,4.0,107.0
25533,65.0,0,0,4.0,107.0
25534,74.0,1,0,2.0,94.0
25535,46.0,28,30,7.0,106.0
25536,58.0,0,30,7.0,106.0
25537,62.0,28,30,7.0,106.0
25538,50.0,0,30,7.0,106.0
25539,65.0,30,30,7.0,106.0
25540,53.0,0,30,7.0,106.0
25541,68.0,30,30,7.0,106.0
25542,56.0,0,30,7.0,106.0
25543,80.0,1,0,1.0,98.0
25544,74.0,0,0,2.0,94.0
25545,46.0,30,30,7.0,106.0
25546,58.0,0,30,7.0,106.0
25547,62.0,28,30,7.0,106.0
25548,50.0,0,30,7.0,106.0
25549,65.0,30,30,7.0,106.0
25550,53.0,0,30,7.0,106.0
25551,80.0,1,0,1.0,98.0
25552,65.0,0,90,4.0,107.0
25553,46.0,1,90,4.0,107.0
25554,56.0,30,30,7.0,106.0
25555,68.0,0,30,7.0,106.0
25556,74.0,1,0,2.0,94.0
25557,46.0,0,30,4.0,107.0
25558,65.0,0,0,4.0,107.0
25559,46.0,0,30,7.0,106.0
25560,58.0,28,30,7.0,106.0
25561,50.0,0,30,7.0,106.0
25562,62.0,28,30,7.0,106.0
25563,65.0,0,30,7.0,106.0
25564,53.0,30,30,7.0,106.0
25565,56.0,0,30,7.0,106.0
25566,68.0,30,30,7.0,106.0
25567,80.0,1,120,1.0,98.0
25568,46.0,0,120,4.0,107.0
25569,74.0,1,0,2.0,94.0
25570,50.0,0,30,7.0,106.0
25571,62.0,30,30,7.0,106.0
25572,53.0,0,30,7.0,106.0
25573,65.0,24,30,7.0,106.0
25574,56.0,30,30,7.0,106.0
25575,68.0,0,30,7.0,106.0
25576,80.0,1,0,1.0,98.0
25577,65.0,0,90,4.0,107.0
25578,46.0,0,90,4.0,107.0
25579,74.0,1,0,2.0,94.0
25580,59.0,4,90,3.0,110.0
25581,59.0,30,30,7.0,106.0
25582,71.0,0,30,7.0,106.0
25583,80.0,1,0,1.0,98.0
25584,65.0,0,30,4.0,107.0
25585,46.0,0,30,4.0,107.0
25586,74.0,0,0,2.0,94.0
25587,59.0,4,0,3.0,110.0
25588,50.0,24,30,7.0,106.0
25589,62.0,0,30,7.0,106.0
25590,65.0,0,30,7.0,106.0
25591,53.0,24,30,7.0,106.0
25592,68.0,30,30,7.0,106.0
25593,56.0,0,30,7.0,106.0
25594,59.0,30,30,7.0,106.0
25595,71.0,0,30,7.0,106.0
25596,80.0,1,0,1.0,98.0
25597,65.0,1,0,4.0,107.0
25598,46.0,0,0,4.0,107.0
25599,59.0,4,0,3.0,110.0
25600,53.0,0,30,7.0,106.0
25601,65.0,30,30,7.0,106.0
25602,56.0,0,30,7.0,106.0
25603,68.0,24,30,7.0,106.0
25604,71.0,0,30,7.0,106.0
25605,59.0,30,30,7.0,106.0
25606,74.0,0,90,2.0,94.0
25607,46.0,0,0,4.0,107.0
25608,65.0,0,0,4.0,107.0
25609,59.0,4,0,3.0,110.0
25610,74.0,30,30,7.0,106.0
25611,62.0,0,30,7.0,106.0
25612,80.0,1,30,1.0,98.0
25613,74.0,1,30,2.0,94.0
25614,59.0,4,0,3.0,110.0
25615,65.0,24,30,7.0,106.0
25616,53.0,0,30,7.0,106.0
25617,56.0,24,30,7.0,106.0
25618,68.0,0,30,7.0,106.0
25619,59.0,30,30,7.0,106.0
25620,71.0,0,30,7.0,106.0
25621,74.0,0,30,7.0,106.0
25622,62.0,30,30,7.0,106.0
25623,80.0,1,120,1.0,98.0
25624,46.0,1,120,4.0,107.0
25625,74.0,0,0,2.0,94.0
25626,65.0,0,0,4.0,107.0
25627,68.0,0,30,7.0,106.0
25628,56.0,0,30,7.0,106.0
25629,59.0,24,30,7.0,106.0
25630,71.0,0,30,7.0,106.0
25631,62.0,0,30,7.0,106.0
25632,74.0,30,30,7.0,106.0
25633,86.0,30,90,0.0,94.0
25634,80.0,1,90,1.0,98.0
25635,46.0,1,90,4.0,107.0
25636,59.0,4,90,3.0,110.0
25637,65.0,0,30,7.0,106.0
25638,77.0,30,30,7.0,106.0
25639,86.0,24,0,0.0,94.0
25640,80.0,1,0,1.0,98.0
25641,65.0,0,30,4.0,107.0
25642,74.0,0,30,2.0,94.0
25643,46.0,1,30,4.0,107.0
25644,59.0,4,30,3.0,110.0
25645,74.0,0,40,7.0,106.0
25646,62.0,0,40,7.0,106.0
25647,86.0,20,0,0.0,94.0
25648,80.0,1,0,1.0,98.0
25649,46.0,0,0,4.0,107.0
25650,65.0,1,0,4.0,107.0
25651,74.0,1,60,2.0,94.0
25652,59.0,1,60,3.0,110.0
25653,75.0,33,40,7.0,106.0
25654,63.0,0,40,7.0,106.0
25655,76.0,14,40,7.0,106.0
25656,64.0,0,40,7.0,106.0
25657,68.0,0,120,8.0,117.0
25658,65.0,0,120,10.0,112.0
25659,65.0,1,0,4.0,107.0
25660,46.0,0,0,4.0,107.0
25661,74.0,0,0,2.0,94.0
25662,60.0,2,120,11.0,117.0
25663,46.0,1,120,12.0,117.0
25664,59.0,4,0,3.0,110.0
25665,34.0,1,120,13.0,127.0
25666,77.0,0,40,7.0,106.0
25667,65.0,0,40,7.0,106.0
25668,86.0,40,60,0.0,94.0
25669,80.0,1,60,1.0,98.0
25670,46.0,0,0,4.0,107.0
25671,65.0,1,0,4.0,107.0
25672,74.0,0,0,2.0,94.0
25673,59.0,4,0,3.0,110.0
25674,78.0,0,40,7.0,106.0
25675,66.0,34,40,7.0,106.0
25676,86.0,20,60,0.0,94.0
25677,79.0,0,40,7.0,106.0
25678,67.0,14,40,7.0,106.0
25679,80.0,1,60,1.0,98.0
25680,46.0,1,0,4.0,107.0
25681,59.0,4,0,3.0,110.0
25682,68.0,0,40,7.0,106.0
25683,80.0,0,40,7.0,106.0
25684,86.0,40,60,0.0,94.0
25685,80.0,1,0,1.0,98.0
25686,65.0,0,60,4.0,107.0
25687,74.0,1,0,2.0,94.0
25688,59.0,4,0,3.0,110.0
25689,69.0,34,40,7.0,106.0
25690,81.0,0,40,7.0,106.0
25691,82.0,14,40,7.0,106.0
25692,86.0,40,0,0.0,94.0
25693,70.0,0,40,7.0,106.0
25694,80.0,1,0,1.0,98.0
25695,65.0,0,60,4.0,107.0
25696,46.0,0,60,4.0,107.0
25697,74.0,1,0,2.0,94.0
25698,71.0,0,40,7.0,106.0
25699,83.0,0,40,7.0,106.0
25700,46.0,1,0,4.0,107.0
25701,74.0,0,0,2.0,94.0
25702,65.0,0,0,4.0,107.0
25703,59.0,4,60,3.0,110.0
25704,84.0,0,40,7.0,106.0
25705,72.0,34,40,7.0,106.0
25706,86.0,20,60,0.0,94.0
25707,73.0,14,40,7.0,106.0
25708,85.0,0,40,7.0,106.0
25709,80.0,1,60,1.0,98.0
25710,59.0,1,0,3.0,110.0
25711,74.0,0,40,7.0,106.0
25712,86.0,0,40,7.0,106.0
25713,86.0,0,60,0.0,94.0
25714,80.0,1,0,1.0,98.0
25715,46.0,1,0,4.0,107.0
25716,65.0,0,60,4.0,107.0
25717,74.0,0,0,2.0,94.0
25718,59.0,4,0,3.0,110.0
25719,75.0,33,40,7.0,106.0
25720,87.0,0,40,7.0,106.0
25721,68.0,40,120,8.0,117.0
25722,86.0,20,60,0.0,94.0
25723,88.0,14,40,7.0,106.0
25724,76.0,0,40,7.0,106.0
25725,65.0,1,120,10.0,112.0
25726,65.0,0,60,4.0,107.0
25727,60.0,2,120,11.0,117.0
25728,46.0,1,120,12.0,117.0
25729,34.0,1,120,13.0,127.0
25730,77.0,0,40,7.0,106.0
25731,89.0,0,40,7.0,106.0
25732,86.0,20,0,0.0,94.0
25733,80.0,1,0,1.0,98.0
25734,46.0,0,60,4.0,107.0
25735,74.0,1,60,2.0,94.0
25736,65.0,0,0,4.0,107.0
25737,59.0,4,60,3.0,110.0
25738,90.0,34,40,7.0,106.0
25739,78.0,0,40,7.0,106.0
25740,79.0,0,40,7.0,106.0
25741,91.0,14,40,7.0,106.0
25742,86.0,0,0,0.0,94.0
25743,80.0,1,0,1.0,98.0
25744,46.0,1,60,4.0,107.0
25745,65.0,1,0,4.0,107.0
25746,74.0,0,0,2.0,94.0
25747,59.0,4,60,3.0,110.0
25748,92.0,40,40,7.0,106.0
25749,80.0,0,40,7.0,106.0
25750,86.0,20,0,0.0,94.0
25751,80.0,1,0,1.0,98.0
25752,46.0,1,0,4.0,107.0
25753,65.0,0,0,4.0,107.0
25754,59.0,4,0,3.0,110.0
25755,81.0,34,40,7.0,106.0
25756,93.0,0,40,7.0,106.0
25757,94.0,14,40,7.0,106.0
25758,82.0,0,40,7.0,106.0
25759,74.0,0,60,2.0,94.0
25760,59.0,4,0,3.0,110.0
25761,95.0,0,24,7.0,106.0
25762,83.0,0,24,7.0,106.0
25763,96.0,18,24,7.0,106.0
25764,84.0,0,24,7.0,106.0
25765,86.0,12,0,0.0,94.0
25766,80.0,1,0,1.0,98.0
25767,46.0,0,0,4.0,107.0
25768,65.0,1,0,4.0,107.0
25769,74.0,1,60,2.0,94.0
25770,85.0,24,24,7.0,106.0
25771,97.0,0,24,7.0,106.0
25772,86.0,6,24,7.0,106.0
25773,98.0,0,24,7.0,106.0
25774,99.0,24,24,7.0,106.0
25775,87.0,0,24,7.0,106.0
25776,74.0,0,60,2.0,94.0
25777,59.0,4,60,3.0,110.0
25778,91.0,0,30,7.0,106.0
25779,79.0,0,30,7.0,106.0
25780,101.0,0,30,7.0,106.0
25781,82.0,0,30,7.0,106.0
25782,87.0,0,30,7.0,106.0
25783,99.0,0,30,7.0,106.0
25784,94.0,24,30,7.0,106.0
25785,101.0,0,30,7.0,106.0
25786,79.0,0,30,7.0,106.0
25787,91.0,30,30,7.0,106.0
25788,82.0,0,30,7.0,106.0
25789,99.0,30,30,7.0,106.0
25790,94.0,0,30,7.0,106.0
25791,87.0,24,120,0.0,94.0
25792,87.0,0,30,7.0,106.0
25793,79.0,1,120,1.0,98.0
25794,75.0,0,120,2.0,94.0
25795,63.0,0,120,4.0,107.0
25796,51.0,1,120,4.0,107.0
25797,58.0,4,120,3.0,110.0
25798,82.0,0,30,7.0,106.0
25799,79.0,0,30,7.0,106.0
25800,91.0,0,30,7.0,106.0
25801,101.0,30,30,7.0,106.0
25802,87.0,0,30,7.0,106.0
25803,94.0,0,30,7.0,106.0
25804,99.0,30,30,7.0,106.0
25805,101.0,0,30,7.0,106.0
25806,82.0,0,30,7.0,106.0
25807,79.0,30,30,7.0,106.0
25808,91.0,0,30,7.0,106.0
25809,87.0,30,30,7.0,106.0
25810,94.0,0,30,7.0,106.0
25811,99.0,0,30,7.0,106.0
25812,82.0,0,30,7.0,106.0
25813,79.0,0,30,7.0,106.0
25814,101.0,0,30,7.0,106.0
25815,91.0,30,30,7.0,106.0
25816,87.0,0,30,7.0,106.0
25817,94.0,0,30,7.0,106.0
25818,99.0,24,30,7.0,106.0
25819,79.0,0,30,7.0,106.0
25820,82.0,0,30,7.0,106.0
25821,101.0,0,30,7.0,106.0
25822,91.0,30,30,7.0,106.0
25823,94.0,0,30,7.0,106.0
25824,87.0,0,30,7.0,106.0
25825,87.0,0,120,0.0,94.0
25826,99.0,30,30,7.0,106.0
25827,79.0,1,120,1.0,98.0
25828,63.0,0,120,4.0,107.0
25829,75.0,1,120,2.0,94.0
25830,51.0,0,120,4.0,107.0
25831,51.0,4,120,3.0,110.0
25832,91.0,0,30,7.0,106.0
25833,79.0,0,30,7.0,106.0
25834,101.0,30,30,7.0,106.0
25835,82.0,0,30,7.0,106.0
25836,99.0,0,30,7.0,106.0
25837,94.0,30,30,7.0,106.0
25838,87.0,0,30,7.0,106.0
25839,101.0,30,30,7.0,106.0
25840,82.0,0,30,7.0,106.0
25841,79.0,0,30,7.0,106.0
25842,91.0,0,30,7.0,106.0
25843,94.0,0,30,7.0,106.0
25844,99.0,30,30,7.0,106.0
25845,87.0,0,30,7.0,106.0
25846,101.0,0,30,7.0,106.0
25847,79.0,0,30,7.0,106.0
25848,82.0,0,30,7.0,106.0
25849,91.0,30,30,7.0,106.0
25850,87.0,24,30,7.0,106.0
25851,99.0,0,30,7.0,106.0
25852,94.0,0,30,7.0,106.0
25853,79.0,0,30,7.0,106.0
25854,91.0,30,30,7.0,106.0
25855,82.0,0,30,7.0,106.0
25856,101.0,0,30,7.0,106.0
25857,99.0,0,30,7.0,106.0
25858,94.0,0,30,7.0,106.0
25859,87.0,30,30,7.0,106.0
25860,87.0,0,120,0.0,94.0
25861,79.0,1,120,1.0,98.0
25862,75.0,0,120,2.0,94.0
25863,58.0,1,120,4.0,107.0
25864,51.0,0,120,4.0,107.0
25865,46.0,4,120,3.0,110.0
25866,79.0,0,30,7.0,106.0
25867,91.0,0,30,7.0,106.0
25868,101.0,0,30,7.0,106.0
25869,82.0,30,30,7.0,106.0
25870,99.0,0,30,7.0,106.0
25871,94.0,0,30,7.0,106.0
25872,87.0,30,30,7.0,106.0
25873,91.0,0,30,7.0,106.0
25874,79.0,0,30,7.0,106.0
25875,82.0,30,30,7.0,106.0
25876,101.0,0,30,7.0,106.0
25877,94.0,30,30,7.0,106.0
25878,99.0,0,30,7.0,106.0
25879,87.0,0,30,7.0,106.0
25880,82.0,30,30,7.0,106.0
25881,79.0,0,30,7.0,106.0
25882,101.0,0,30,7.0,106.0
25883,91.0,0,30,7.0,106.0
25884,94.0,23,30,7.0,106.0
25885,99.0,0,30,7.0,106.0
25886,87.0,0,30,7.0,106.0
25887,101.0,0,30,7.0,106.0
25888,82.0,30,30,7.0,106.0
25889,79.0,0,30,7.0,106.0
25890,91.0,0,30,7.0,106.0
25891,87.0,0,120,0.0,94.0
25892,87.0,0,30,7.0,106.0
25893,94.0,0,30,7.0,106.0
25894,63.0,0,120,8.0,117.0
25895,99.0,30,30,7.0,106.0
25896,79.0,1,120,1.0,98.0
25897,75.0,0,120,2.0,94.0
25898,58.0,0,120,10.0,112.0
25899,55.0,0,120,4.0,107.0
25900,51.0,1,120,4.0,107.0
25901,51.0,2,120,11.0,117.0
25902,51.0,1,120,12.0,117.0
25903,43.0,1,120,3.0,110.0
25904,39.0,1,120,13.0,127.0
25905,101.0,30,30,7.0,106.0
25906,82.0,0,30,7.0,106.0
25907,79.0,0,30,7.0,106.0
25908,91.0,0,30,7.0,106.0
25909,99.0,30,30,7.0,106.0
25910,94.0,0,30,7.0,106.0
25911,87.0,0,30,7.0,106.0
25912,82.0,0,30,7.0,106.0
25913,91.0,0,30,7.0,106.0
25914,79.0,0,30,7.0,106.0
25915,101.0,30,30,7.0,106.0
25916,87.0,0,30,7.0,106.0
25917,94.0,0,30,7.0,106.0
25918,99.0,30,30,7.0,106.0
25919,101.0,0,30,7.0,106.0
25920,79.0,0,30,7.0,106.0
25921,82.0,0,30,7.0,106.0
25922,91.0,30,30,7.0,106.0
25923,94.0,0,30,7.0,106.0
25924,87.0,0,30,7.0,106.0
25925,99.0,23,30,7.0,106.0
25926,101.0,0,30,7.0,106.0
25927,82.0,30,30,7.0,106.0
25928,79.0,0,30,7.0,106.0
25929,91.0,0,30,7.0,106.0
25930,99.0,0,30,7.0,106.0
25931,87.0,30,30,7.0,106.0
25932,94.0,0,30,7.0,106.0
25933,87.0,0,120,0.0,94.0
25934,63.0,0,120,8.0,117.0
25935,79.0,1,120,1.0,98.0
25936,75.0,0,120,2.0,94.0
25937,55.0,1,120,10.0,112.0
25938,51.0,2,120,11.0,117.0
25939,51.0,1,120,12.0,117.0
25940,39.0,1,120,3.0,110.0
25941,39.0,1,120,13.0,127.0
25942,101.0,30,30,7.0,106.0
25943,91.0,0,30,7.0,106.0
25944,79.0,0,30,7.0,106.0
25945,82.0,0,30,7.0,106.0
25946,99.0,0,30,7.0,106.0
25947,94.0,0,30,7.0,106.0
25948,87.0,30,30,7.0,106.0
25949,91.0,30,30,7.0,106.0
25950,79.0,0,30,7.0,106.0
25951,101.0,0,30,7.0,106.0
25952,82.0,0,30,7.0,106.0
25953,87.0,0,30,7.0,106.0
25954,99.0,30,30,7.0,106.0
25955,94.0,0,30,7.0,106.0
25956,99.0,0,30,7.0,106.0
25957,89.0,30,30,7.0,106.0
25958,80.0,0,30,7.0,106.0
25959,77.0,0,30,7.0,106.0
25960,86.0,0,30,7.0,106.0
25961,98.0,0,30,7.0,106.0
25962,92.0,30,30,7.0,106.0
25963,99.0,30,30,7.0,106.0
25964,77.0,0,30,7.0,106.0
25965,89.0,0,30,7.0,106.0
25966,80.0,0,30,7.0,106.0
25967,86.0,0,30,7.0,106.0
25968,92.0,30,30,7.0,106.0
25969,98.0,0,30,7.0,106.0
25970,87.0,0,30,7.0,106.0
25971,75.0,0,30,7.0,106.0
25972,98.0,0,30,7.0,106.0
25973,79.0,30,30,7.0,106.0
25974,84.0,30,30,7.0,106.0
25975,96.0,0,30,7.0,106.0
25976,91.0,0,30,7.0,106.0
25977,75.0,0,30,7.0,106.0
25978,87.0,30,30,7.0,106.0
25979,98.0,0,30,7.0,106.0
25980,79.0,0,30,7.0,106.0
25981,96.0,0,30,7.0,106.0
25982,91.0,30,30,7.0,106.0
25983,84.0,0,30,7.0,106.0
25984,96.0,30,30,7.0,106.0
25985,74.0,0,30,7.0,106.0
25986,77.0,0,30,7.0,106.0
25987,86.0,0,30,7.0,106.0
25988,82.0,30,30,7.0,106.0
25989,94.0,0,30,7.0,106.0
25990,89.0,0,30,7.0,106.0
25991,86.0,0,30,7.0,106.0
25992,96.0,30,30,7.0,106.0
25993,74.0,0,30,7.0,106.0
25994,77.0,0,30,7.0,106.0
25995,82.0,0,30,7.0,106.0
25996,89.0,30,30,7.0,106.0
25997,94.0,0,30,7.0,106.0
25998,75.0,0,30,7.0,106.0
25999,72.0,0,30,7.0,106.0
26000,84.0,0,30,7.0,106.0
26001,94.0,30,30,7.0,106.0
26002,92.0,0,30,7.0,106.0
26003,80.0,30,30,7.0,106.0
26004,87.0,0,30,7.0,106.0
26005,94.0,0,30,7.0,106.0
26006,75.0,30,30,7.0,106.0
26007,72.0,0,30,7.0,106.0
26008,84.0,0,30,7.0,106.0
26009,80.0,30,30,7.0,106.0
26010,87.0,0,30,7.0,106.0
26011,92.0,30,0,7.0,106.0
26012,70.0,0,30,7.0,106.0
26013,74.0,0,30,7.0,106.0
26014,82.0,0,30,7.0,106.0
26015,79.0,30,30,7.0,106.0
26016,86.0,0,30,7.0,106.0
26017,91.0,0,30,7.0,106.0
26018,92.0,30,30,7.0,106.0
26019,82.0,0,30,7.0,106.0
26020,70.0,0,30,7.0,106.0
26021,74.0,0,30,7.0,106.0
26022,86.0,30,30,7.0,106.0
26023,79.0,0,30,7.0,106.0
26024,91.0,0,0,7.0,106.0
26025,80.0,0,30,7.0,106.0
26026,68.0,0,30,7.0,106.0
26027,72.0,30,30,7.0,106.0
26028,77.0,0,30,7.0,106.0
26029,84.0,0,30,7.0,106.0
26030,89.0,30,30,7.0,106.0
26031,91.0,30,30,7.0,106.0
26032,72.0,0,30,7.0,106.0
26033,68.0,0,30,7.0,106.0
26034,80.0,0,30,7.0,106.0
26035,77.0,30,30,7.0,106.0
26036,84.0,0,30,7.0,106.0
26037,89.0,0,30,7.0,106.0
26038,79.0,0,30,7.0,106.0
26039,70.0,30,30,7.0,106.0
26040,67.0,0,30,7.0,106.0
26041,89.0,0,30,7.0,106.0
26042,82.0,23,30,7.0,106.0
26043,87.0,0,30,7.0,106.0
26044,75.0,0,30,7.0,106.0
26045,67.0,0,30,7.0,106.0
26046,79.0,0,30,7.0,106.0
26047,89.0,0,30,7.0,106.0
26048,70.0,30,30,7.0,106.0
26049,63.0,0,120,8.0,117.0
26050,87.0,0,30,7.0,106.0
26051,82.0,0,30,7.0,106.0
26052,75.0,30,30,7.0,106.0
26053,63.0,2,120,10.0,112.0
26054,51.0,2,120,11.0,117.0
26055,51.0,1,120,12.0,117.0
26056,39.0,2,120,13.0,127.0
26057,67.0,0,30,7.0,106.0
26058,89.0,30,30,7.0,106.0
26059,70.0,0,30,7.0,106.0
26060,79.0,0,30,7.0,106.0
26061,82.0,0,30,7.0,106.0
26062,87.0,30,30,7.0,106.0
26063,75.0,0,30,7.0,106.0
26064,89.0,0,30,7.0,106.0
26065,70.0,30,30,7.0,106.0
26066,67.0,0,30,7.0,106.0
26067,79.0,0,30,7.0,106.0
26068,87.0,0,30,7.0,106.0
26069,82.0,0,30,7.0,106.0
26070,75.0,30,30,7.0,106.0
26071,68.0,0,30,7.0,106.0
26072,77.0,30,30,7.0,106.0
26073,65.0,0,30,7.0,106.0
26074,87.0,0,30,7.0,106.0
26075,74.0,30,30,7.0,106.0
26076,80.0,0,30,7.0,106.0
26077,86.0,0,30,7.0,106.0
26078,68.0,30,30,7.0,106.0
26079,65.0,0,30,7.0,106.0
26080,77.0,0,30,7.0,106.0
26081,87.0,0,30,7.0,106.0
26082,74.0,30,30,7.0,106.0
26083,86.0,0,30,7.0,106.0
26084,80.0,0,30,7.0,106.0
26085,63.0,0,30,7.0,106.0
26086,86.0,0,30,7.0,106.0
26087,75.0,30,30,7.0,106.0
26088,67.0,0,30,7.0,106.0
26089,84.0,0,30,7.0,106.0
26090,79.0,30,30,7.0,106.0
26091,72.0,0,30,7.0,106.0
26092,86.0,30,30,7.0,106.0
26093,63.0,0,30,7.0,106.0
26094,75.0,0,30,7.0,106.0
26095,67.0,0,30,7.0,106.0
26096,84.0,30,0,7.0,106.0
26097,79.0,0,30,7.0,106.0
26098,72.0,0,30,7.0,106.0
26099,65.0,0,30,7.0,106.0
26100,62.0,0,30,7.0,106.0
26101,74.0,0,30,7.0,106.0
26102,82.0,0,30,7.0,106.0
26103,77.0,0,30,7.0,106.0
26104,70.0,30,30,7.0,106.0
26105,74.0,30,30,7.0,106.0
26106,62.0,0,30,7.0,106.0
26107,84.0,0,30,7.0,106.0
26108,65.0,0,30,7.0,106.0
26109,70.0,0,30,7.0,106.0
26110,77.0,0,30,7.0,106.0
26111,82.0,30,30,7.0,106.0
26112,63.0,0,30,7.0,106.0
26113,82.0,0,30,7.0,106.0
26114,72.0,30,30,7.0,106.0
26115,60.0,0,30,7.0,106.0
26116,68.0,0,30,7.0,106.0
26117,80.0,30,30,7.0,106.0
26118,75.0,0,30,7.0,106.0
26119,82.0,0,30,7.0,106.0
26120,60.0,0,30,7.0,106.0
26121,63.0,30,30,7.0,106.0
26122,72.0,0,30,7.0,106.0
26123,80.0,0,30,7.0,106.0
26124,75.0,0,30,7.0,106.0
26125,68.0,30,30,7.0,106.0
26126,70.0,30,30,7.0,106.0
26127,80.0,0,30,7.0,106.0
26128,62.0,0,30,7.0,106.0
26129,58.0,0,30,7.0,106.0
26130,74.0,0,30,7.0,106.0
26131,67.0,30,30,7.0,106.0
26132,79.0,0,30,7.0,106.0
26133,70.0,0,30,7.0,106.0
26134,62.0,30,30,7.0,106.0
26135,80.0,0,30,7.0,106.0
26136,58.0,0,30,7.0,106.0
26137,67.0,0,30,7.0,106.0
26138,74.0,30,30,7.0,106.0
26139,79.0,30,0,7.0,106.0
26140,60.0,0,30,7.0,106.0
26141,68.0,0,30,7.0,106.0
26142,56.0,0,30,7.0,106.0
26143,65.0,30,30,7.0,106.0
26144,72.0,0,30,7.0,106.0
26145,77.0,0,30,7.0,106.0
26146,60.0,0,30,7.0,106.0
26147,79.0,30,30,7.0,106.0
26148,68.0,0,30,7.0,106.0
26149,56.0,0,30,7.0,106.0
26150,72.0,0,30,7.0,106.0
26151,77.0,30,30,7.0,106.0
26152,65.0,0,30,7.0,106.0
26153,67.0,0,30,7.0,106.0
26154,58.0,30,30,7.0,106.0
26155,55.0,0,30,7.0,106.0
26156,77.0,0,30,7.0,106.0
26157,63.0,23,30,7.0,106.0
26158,70.0,0,30,7.0,106.0
26159,75.0,0,30,7.0,106.0
26160,55.0,0,30,7.0,106.0
26161,67.0,0,30,7.0,106.0
26162,77.0,30,30,7.0,106.0
26163,58.0,0,30,7.0,106.0
26164,63.0,0,120,8.0,117.0
26165,75.0,30,30,7.0,106.0
26166,70.0,0,30,7.0,106.0
26167,63.0,0,30,7.0,106.0
26168,63.0,2,120,10.0,112.0
26169,51.0,2,120,11.0,117.0
26170,51.0,1,120,12.0,117.0
26171,39.0,2,120,13.0,127.0
26172,77.0,30,30,7.0,106.0
26173,67.0,0,30,7.0,106.0
26174,55.0,0,30,7.0,106.0
26175,58.0,0,30,7.0,106.0
26176,63.0,0,30,7.0,106.0
26177,70.0,0,30,7.0,106.0
26178,75.0,30,30,7.0,106.0
26179,58.0,0,30,7.0,106.0
26180,55.0,0,30,7.0,106.0
26181,67.0,0,30,7.0,106.0
26182,77.0,30,30,7.0,106.0
26183,63.0,30,30,7.0,106.0
26184,70.0,0,30,7.0,106.0
26185,75.0,0,30,7.0,106.0
26186,53.0,30,30,7.0,106.0
26187,65.0,0,30,7.0,106.0
26188,75.0,0,30,7.0,106.0
26189,56.0,0,30,7.0,106.0
26190,62.0,0,30,7.0,106.0
26191,74.0,0,30,7.0,106.0
26192,68.0,30,30,7.0,106.0
26193,56.0,0,30,7.0,106.0
26194,65.0,0,30,7.0,106.0
26195,75.0,0,30,7.0,106.0
26196,53.0,30,30,7.0,106.0
26197,62.0,0,30,7.0,106.0
26198,74.0,0,30,7.0,106.0
26199,68.0,30,30,7.0,106.0
26200,74.0,0,30,7.0,106.0
26201,51.0,0,30,7.0,106.0
26202,63.0,30,30,7.0,106.0
26203,55.0,0,30,7.0,106.0
26204,67.0,0,30,7.0,106.0
26205,60.0,30,30,7.0,106.0
26206,72.0,0,30,7.0,106.0
26207,55.0,0,30,7.0,106.0
26208,63.0,0,30,7.0,106.0
26209,74.0,0,30,7.0,106.0
26210,51.0,30,30,7.0,106.0
26211,72.0,0,0,7.0,106.0
26212,67.0,0,30,7.0,106.0
26213,60.0,0,30,7.0,106.0
26214,50.0,0,30,7.0,106.0
26215,62.0,0,30,7.0,106.0
26216,53.0,30,30,7.0,106.0
26217,70.0,30,30,7.0,106.0
26218,65.0,0,30,7.0,106.0
26219,58.0,0,30,7.0,106.0
26220,53.0,0,30,7.0,106.0
26221,72.0,30,30,7.0,106.0
26222,62.0,0,30,7.0,106.0
26223,50.0,0,30,7.0,106.0
26224,70.0,30,30,7.0,106.0
26225,58.0,0,30,7.0,106.0
26226,65.0,0,30,7.0,106.0
26227,70.0,0,30,7.0,106.0
26228,60.0,30,30,7.0,106.0
26229,48.0,0,30,7.0,106.0
26230,51.0,0,30,7.0,106.0
26231,63.0,0,30,7.0,106.0
26232,68.0,30,30,7.0,106.0
26233,56.0,0,30,7.0,106.0
26234,60.0,0,30,7.0,106.0
26235,51.0,0,30,7.0,106.0
26236,48.0,0,30,7.0,106.0
26237,70.0,30,30,7.0,106.0
26238,56.0,30,30,7.0,106.0
26239,63.0,0,30,7.0,106.0
26240,68.0,0,30,7.0,106.0
26241,50.0,0,30,7.0,106.0
26242,68.0,30,30,7.0,106.0
26243,46.0,0,30,7.0,106.0
26244,58.0,0,30,7.0,106.0
26245,67.0,30,30,7.0,106.0
26246,62.0,0,30,7.0,106.0
26247,55.0,0,30,7.0,106.0
26248,58.0,0,30,7.0,106.0
26249,50.0,0,30,7.0,106.0
26250,46.0,30,30,7.0,106.0
26251,68.0,0,30,7.0,106.0
26252,55.0,0,30,7.0,106.0
26253,62.0,30,30,7.0,106.0
26254,67.0,0,30,7.0,106.0
26255,56.0,0,30,7.0,106.0
26256,67.0,30,30,7.0,106.0
26257,48.0,0,30,7.0,106.0
26258,44.0,0,30,7.0,106.0
26259,53.0,0,30,7.0,106.0
26260,60.0,0,30,7.0,106.0
26261,65.0,30,30,7.0,106.0
26262,67.0,0,30,7.0,106.0
26263,48.0,30,30,7.0,106.0
26264,56.0,0,30,7.0,106.0
26265,44.0,0,30,7.0,106.0
26266,53.0,0,30,7.0,106.0
26267,60.0,30,30,7.0,106.0
26268,65.0,0,30,7.0,106.0
26269,39.0,0,22,7.0,106.0
26270,51.0,0,22,7.0,106.0
26271,46.0,0,30,7.0,106.0
26272,58.0,23,30,7.0,106.0
26273,55.0,30,30,7.0,106.0
26274,43.0,0,30,7.0,106.0
26275,58.0,0,30,7.0,106.0
26276,46.0,30,30,7.0,106.0
26277,39.0,0,3000,4.0,107.0
26278,63.0,30,30,7.0,106.0
26279,51.0,0,30,7.0,106.0
26280,58.0,30,30,7.0,106.0
26281,46.0,0,30,7.0,106.0
26282,55.0,30,30,7.0,106.0
26283,43.0,0,30,7.0,106.0
26284,46.0,0,30,7.0,106.0
26285,58.0,30,30,7.0,106.0
26286,63.0,30,22,7.0,106.0
26287,51.0,0,22,7.0,106.0
26288,70.0,30,30,7.0,106.0
26289,58.0,0,30,7.0,106.0
26290,55.0,30,30,7.0,106.0
26291,67.0,0,30,7.0,106.0
26292,63.0,30,360,8.0,117.0
26293,58.0,0,30,7.0,106.0
26294,70.0,30,30,7.0,106.0
26295,51.0,4,360,11.0,117.0
26296,51.0,1,0,12.0,117.0
26297,39.0,2,360,13.0,127.0
26298,63.0,0,30,7.0,106.0
26299,75.0,0,30,7.0,106.0
26300,58.0,0,30,7.0,106.0
26301,70.0,23,30,7.0,106.0
26302,63.0,30,90,8.0,117.0
26303,67.0,0,30,7.0,106.0
26304,55.0,30,30,7.0,106.0
26305,51.0,4,0,11.0,117.0
26306,51.0,1,0,12.0,117.0
26307,39.0,2,0,13.0,127.0
26308,70.0,30,30,7.0,106.0
26309,63.0,0,30,8.0,117.0
26310,58.0,0,0,7.0,106.0
26311,46.0,0,22,7.0,106.0
26312,53.0,0,30,7.0,106.0
26313,65.0,23,30,7.0,106.0
26314,50.0,0,30,7.0,106.0
26315,62.0,30,30,7.0,106.0
26316,65.0,30,30,7.0,106.0
26317,53.0,0,30,7.0,106.0
26318,58.0,0,30,7.0,106.0
26319,70.0,30,30,7.0,106.0
26320,65.0,30,30,7.0,106.0
26321,53.0,0,30,7.0,106.0
26322,50.0,0,30,7.0,106.0
26323,62.0,30,30,7.0,106.0
26324,53.0,0,30,7.0,106.0
26325,65.0,30,30,7.0,106.0
26326,58.0,0,22,7.0,106.0
26327,70.0,30,22,7.0,106.0
26328,65.0,30,30,7.0,106.0
26329,77.0,0,30,7.0,106.0
26330,62.0,0,30,7.0,106.0
26331,74.0,30,30,7.0,106.0
26332,70.0,23,360,8.0,117.0
26333,65.0,30,30,7.0,106.0
26334,77.0,0,30,7.0,106.0
26335,58.0,4,360,11.0,117.0
26336,58.0,1,0,12.0,117.0
26337,46.0,2,0,13.0,127.0
26338,70.0,0,30,7.0,106.0
26339,82.0,30,30,7.0,106.0
26340,65.0,0,30,7.0,106.0
26341,77.0,23,30,7.0,106.0
26342,62.0,0,30,7.0,106.0
26343,74.0,30,30,7.0,106.0
26344,70.0,30,0,8.0,117.0
26345,58.0,4,90,11.0,117.0
26346,58.0,1,0,12.0,117.0
26347,46.0,2,0,13.0,127.0
26348,77.0,0,30,7.0,106.0
26349,65.0,0,30,7.0,106.0
26350,58.0,4,30,11.0,117.0
26351,63.0,0,22,7.0,106.0
26352,51.0,23,22,7.0,106.0
26353,58.0,0,30,7.0,106.0
26354,70.0,23,30,7.0,106.0
26355,67.0,30,30,7.0,106.0
26356,55.0,0,30,7.0,106.0
26357,58.0,0,30,7.0,106.0
26358,70.0,30,30,7.0,106.0
26359,75.0,0,120,8.0,117.0
26360,63.0,2,120,11.0,117.0
26361,63.0,1,120,12.0,117.0
26362,51.0,2,120,13.0,127.0
26363,75.0,30,30,7.0,106.0
26364,63.0,0,30,7.0,106.0
26365,70.0,30,30,7.0,106.0
26366,58.0,0,30,7.0,106.0
26367,55.0,30,30,7.0,106.0
26368,67.0,0,30,7.0,106.0
26369,58.0,30,30,7.0,106.0
26370,70.0,0,30,7.0,106.0
26371,63.0,0,22,7.0,106.0
26372,75.0,30,22,7.0,106.0
26373,70.0,0,30,7.0,106.0
26374,82.0,30,30,7.0,106.0
26375,67.0,30,30,7.0,106.0
26376,79.0,0,30,7.0,106.0
26377,70.0,30,30,7.0,106.0
26378,82.0,0,30,7.0,106.0
26379,51.0,2,360,4.0,107.0
26380,75.0,0,0,2.0,94.0
26381,63.0,2,0,4.0,107.0
26382,87.0,30,30,7.0,106.0
26383,75.0,0,30,7.0,106.0
26384,82.0,28,30,7.0,106.0
26385,70.0,0,30,7.0,106.0
26386,79.0,0,30,7.0,106.0
26387,67.0,30,30,7.0,106.0
26388,51.0,0,0,4.0,107.0
26389,63.0,2,0,4.0,107.0
26390,82.0,0,30,7.0,106.0
26391,70.0,0,0,7.0,106.0
26392,75.0,0,30,2.0,94.0
26393,58.0,28,22,7.0,106.0
26394,77.0,0,30,7.0,106.0
26395,65.0,23,30,7.0,106.0
26396,74.0,0,30,7.0,106.0
26397,62.0,30,30,7.0,106.0
26398,70.0,0,120,8.0,117.0
26399,65.0,30,30,7.0,106.0
26400,77.0,0,30,7.0,106.0
26401,58.0,2,120,11.0,117.0
26402,58.0,1,120,12.0,117.0
26403,46.0,2,120,13.0,127.0
26404,82.0,0,30,7.0,106.0
26405,70.0,30,30,7.0,106.0
26406,77.0,0,30,7.0,106.0
26407,65.0,30,30,7.0,106.0
26408,62.0,30,30,7.0,106.0
26409,74.0,0,30,7.0,106.0
26410,77.0,0,30,7.0,106.0
26411,65.0,30,30,7.0,106.0
26412,70.0,30,22,7.0,106.0
26413,82.0,0,22,7.0,106.0
26414,86.0,0,30,7.0,106.0
26415,74.0,30,30,7.0,106.0
26416,77.0,30,30,7.0,106.0
26417,89.0,0,30,7.0,106.0
26418,82.0,0,30,7.0,106.0
26419,94.0,30,30,7.0,106.0
26420,58.0,2,0,4.0,107.0
26421,82.0,2,360,2.0,94.0
26422,70.0,0,360,2.0,94.0
26423,74.0,0,22,7.0,106.0
26424,86.0,30,22,7.0,106.0
26425,77.0,0,30,7.0,106.0
26426,89.0,23,30,7.0,106.0
26427,82.0,30,30,7.0,106.0
26428,94.0,0,30,7.0,106.0
26429,70.0,30,0,8.0,117.0
26430,65.0,0,0,4.0,107.0
26431,82.0,0,90,2.0,94.0
26432,58.0,2,0,4.0,107.0
26433,70.0,0,90,2.0,94.0
26434,58.0,2,0,11.0,117.0
26435,58.0,1,0,12.0,117.0
26436,46.0,2,90,13.0,127.0
26437,98.0,0,30,7.0,106.0
26438,86.0,0,30,7.0,106.0
26439,70.0,0,30,2.0,94.0
26440,82.0,0,30,2.0,94.0
26441,58.0,2,0,11.0,117.0
26442,46.0,2,30,13.0,127.0
26443,79.0,23,30,7.0,106.0
26444,91.0,0,30,7.0,106.0
26445,94.0,23,30,7.0,106.0
26446,82.0,0,30,7.0,106.0
26447,87.0,30,30,7.0,106.0
26448,99.0,0,30,7.0,106.0
26449,75.0,0,120,8.0,117.0
26450,82.0,0,30,7.0,106.0
26451,94.0,30,30,7.0,106.0
26452,75.0,1,120,5.0,104.0
26453,63.0,0,120,5.0,104.0
26454,75.0,2,0,2.0,94.0
26455,67.0,0,0,4.0,107.0
26456,63.0,0,0,4.0,107.0
26457,63.0,0,120,10.0,112.0
26458,79.0,0,120,2.0,94.0
26459,51.0,1,120,12.0,117.0
26460,51.0,1,120,6.0,122.0
26461,39.0,1,120,13.0,127.0
26462,79.0,30,30,7.0,106.0
26463,91.0,0,30,7.0,106.0
26464,82.0,0,30,7.0,106.0
26465,94.0,28,30,7.0,106.0
26466,87.0,0,30,7.0,106.0
26467,99.0,30,30,7.0,106.0
26468,79.0,0,0,2.0,94.0
26469,67.0,0,0,4.0,107.0
26470,94.0,0,30,7.0,106.0
26471,82.0,30,30,7.0,106.0
26472,75.0,2,30,2.0,94.0
26473,63.0,0,30,4.0,107.0
26474,92.0,28,30,7.0,106.0
26475,80.0,0,30,7.0,106.0
26476,82.0,28,30,7.0,106.0
26477,94.0,0,30,7.0,106.0
26478,89.0,0,30,7.0,106.0
26479,101.0,30,30,7.0,106.0
26480,94.0,30,30,7.0,106.0
26481,82.0,0,30,7.0,106.0
26482,80.0,0,120,2.0,94.0
26483,77.0,0,0,2.0,94.0
26484,65.0,0,0,4.0,107.0
26485,68.0,0,120,4.0,107.0
26486,77.0,0,30,7.0,106.0
26487,89.0,30,30,7.0,106.0
26488,94.0,0,30,7.0,106.0
26489,82.0,23,30,7.0,106.0
26490,77.0,0,90,8.0,117.0
26491,98.0,0,30,7.0,106.0
26492,86.0,30,30,7.0,106.0
26493,58.0,0,0,5.0,104.0
26494,70.0,1,0,5.0,104.0
26495,62.0,1,0,10.0,112.0
26496,74.0,0,90,2.0,94.0
26497,65.0,0,0,4.0,107.0
26498,58.0,0,0,4.0,107.0
26499,58.0,2,90,11.0,117.0
26500,58.0,1,0,12.0,117.0
26501,46.0,1,90,6.0,122.0
26502,46.0,1,90,13.0,127.0
26503,77.0,30,30,8.0,117.0
26504,82.0,0,30,7.0,106.0
26505,94.0,0,30,7.0,106.0
26506,77.0,0,30,2.0,94.0
26507,74.0,0,30,2.0,94.0
26508,58.0,2,30,11.0,117.0
26509,46.0,1,30,6.0,122.0
26510,46.0,1,30,13.0,127.0
26511,79.0,0,30,7.0,106.0
26512,91.0,0,30,7.0,106.0
26513,82.0,0,30,7.0,106.0
26514,94.0,23,30,7.0,106.0
26515,87.0,30,30,7.0,106.0
26516,99.0,0,30,7.0,106.0
26517,82.0,0,30,7.0,106.0
26518,94.0,30,30,7.0,106.0
26519,79.0,23,120,8.0,117.0
26520,63.0,0,120,5.0,104.0
26521,75.0,1,120,5.0,104.0
26522,79.0,0,0,2.0,94.0
26523,63.0,2,0,4.0,107.0
26524,67.0,0,0,4.0,107.0
26525,75.0,0,0,2.0,94.0
26526,63.0,0,120,10.0,112.0
26527,58.0,2,120,11.0,117.0
26528,51.0,1,120,12.0,117.0
26529,51.0,1,120,6.0,122.0
26530,39.0,1,120,13.0,127.0
26531,79.0,0,30,7.0,106.0
26532,91.0,30,30,7.0,106.0
26533,94.0,28,30,7.0,106.0
26534,82.0,0,30,7.0,106.0
26535,99.0,0,30,7.0,106.0
26536,87.0,30,30,7.0,106.0
26537,82.0,0,30,7.0,106.0
26538,94.0,30,30,7.0,106.0
26539,75.0,0,30,2.0,94.0
26540,79.0,0,30,2.0,94.0
26541,63.0,2,30,4.0,107.0
26542,67.0,0,30,4.0,107.0
26543,80.0,0,30,7.0,106.0
26544,92.0,28,30,7.0,106.0
26545,94.0,0,30,7.0,106.0
26546,82.0,28,30,7.0,106.0
26547,101.0,0,30,7.0,106.0
26548,89.0,30,30,7.0,106.0
26549,82.0,0,30,7.0,106.0
26550,94.0,30,30,7.0,106.0
26551,80.0,2,120,2.0,94.0
26552,68.0,0,120,4.0,107.0
26553,65.0,0,0,4.0,107.0
26554,77.0,0,0,2.0,94.0
26555,77.0,30,30,7.0,106.0
26556,89.0,0,30,7.0,106.0
26557,82.0,0,30,7.0,106.0
26558,94.0,23,30,7.0,106.0
26559,86.0,0,30,7.0,106.0
26560,98.0,30,30,7.0,106.0
26561,77.0,0,90,8.0,117.0
26562,70.0,1,90,5.0,104.0
26563,58.0,1,0,5.0,104.0
26564,58.0,1,0,4.0,107.0
26565,62.0,0,90,10.0,112.0
26566,74.0,0,0,2.0,94.0
26567,58.0,2,0,11.0,117.0
26568,58.0,1,0,12.0,117.0
26569,46.0,1,0,6.0,122.0
26570,46.0,1,90,13.0,127.0
26571,94.0,30,30,7.0,106.0
26572,77.0,0,30,8.0,117.0
26573,82.0,0,30,7.0,106.0
26574,70.0,0,30,5.0,104.0
26575,62.0,0,30,10.0,112.0
26576,65.0,0,30,4.0,107.0
26577,77.0,0,30,2.0,94.0
26578,58.0,2,0,11.0,117.0
26579,46.0,1,30,13.0,127.0
26580,91.0,0,30,7.0,106.0
26581,79.0,23,30,7.0,106.0
26582,94.0,0,30,7.0,106.0
26583,82.0,23,30,7.0,106.0
26584,99.0,0,30,7.0,106.0
26585,87.0,30,30,7.0,106.0
26586,94.0,0,30,7.0,106.0
26587,82.0,30,30,7.0,106.0
26588,79.0,0,120,8.0,117.0
26589,75.0,1,120,5.0,104.0
26590,63.0,0,120,5.0,104.0
26591,63.0,0,120,10.0,112.0
26592,63.0,0,120,4.0,107.0
26593,79.0,0,120,2.0,94.0
26594,75.0,0,120,2.0,94.0
26595,67.0,2,0,4.0,107.0
26596,51.0,1,120,12.0,117.0
26597,51.0,1,120,6.0,122.0
26598,39.0,1,120,13.0,127.0
26599,91.0,0,30,7.0,106.0
26600,79.0,30,30,7.0,106.0
26601,82.0,28,30,7.0,106.0
26602,94.0,0,30,7.0,106.0
26603,99.0,0,30,7.0,106.0
26604,87.0,30,30,7.0,106.0
26605,63.0,0,90,4.0,107.0
26606,79.0,0,90,2.0,94.0
26607,75.0,0,90,2.0,94.0
26608,67.0,2,0,4.0,107.0
26609,94.0,30,30,7.0,106.0
26610,82.0,0,30,7.0,106.0
26611,63.0,0,30,4.0,107.0
26612,79.0,0,30,2.0,94.0
26613,75.0,0,30,2.0,94.0
26614,80.0,0,30,7.0,106.0
26615,92.0,28,30,7.0,106.0
26616,94.0,28,30,7.0,106.0
26617,82.0,0,30,7.0,106.0
26618,101.0,0,30,7.0,106.0
26619,89.0,30,30,7.0,106.0
26620,82.0,30,30,7.0,106.0
26621,94.0,0,30,7.0,106.0
26622,77.0,0,120,2.0,94.0
26623,68.0,2,120,4.0,107.0
26624,65.0,0,0,4.0,107.0
26625,80.0,0,120,2.0,94.0
26626,77.0,0,30,7.0,106.0
26627,89.0,0,30,7.0,106.0
26628,82.0,23,30,7.0,106.0
26629,94.0,0,30,7.0,106.0
26630,86.0,0,30,7.0,106.0
26631,98.0,30,30,7.0,106.0
26632,77.0,0,0,8.0,117.0
26633,74.0,0,90,0.0,94.0
26634,77.0,0,0,0.0,94.0
26635,74.0,0,0,1.0,98.0
26636,77.0,1,0,1.0,98.0
26637,58.0,0,0,5.0,104.0
26638,70.0,0,0,5.0,104.0
26639,58.0,0,90,4.0,107.0
26640,62.0,1,0,10.0,112.0
26641,74.0,0,0,2.0,94.0
26642,77.0,0,0,2.0,94.0
26643,65.0,0,0,4.0,107.0
26644,58.0,2,0,11.0,117.0
26645,58.0,1,90,12.0,117.0
26646,46.0,1,90,6.0,122.0
26647,46.0,1,90,13.0,127.0
26648,94.0,30,30,7.0,106.0
26649,82.0,0,30,7.0,106.0
26650,74.0,0,30,0.0,94.0
26651,58.0,0,30,4.0,107.0
26652,58.0,2,0,11.0,117.0
26653,58.0,1,30,12.0,117.0
26654,46.0,1,30,6.0,122.0
26655,46.0,1,30,13.0,127.0
26656,79.0,0,30,7.0,106.0
26657,91.0,0,30,7.0,106.0
26658,82.0,0,30,7.0,106.0
26659,94.0,23,30,7.0,106.0
26660,99.0,0,30,7.0,106.0
26661,87.0,30,30,7.0,106.0
26662,79.0,0,120,0.0,94.0
26663,82.0,30,30,7.0,106.0
26664,75.0,30,0,0.0,94.0
26665,79.0,23,120,8.0,117.0
26666,94.0,0,30,7.0,106.0
26667,75.0,0,0,1.0,98.0
26668,79.0,1,0,1.0,98.0
26669,75.0,0,120,5.0,104.0
26670,63.0,1,120,5.0,104.0
26671,75.0,0,0,2.0,94.0
26672,79.0,1,0,2.0,94.0
26673,63.0,0,0,10.0,112.0
26674,67.0,0,0,4.0,107.0
26675,63.0,0,0,4.0,107.0
26676,58.0,2,0,11.0,117.0
26677,51.0,1,120,12.0,117.0
26678,51.0,1,120,6.0,122.0
26679,39.0,1,120,13.0,127.0
26680,79.0,0,30,7.0,106.0
26681,91.0,0,30,7.0,106.0
26682,94.0,0,30,7.0,106.0
26683,82.0,23,30,7.0,106.0
26684,87.0,30,30,7.0,106.0
26685,99.0,0,30,7.0,106.0
26686,79.0,0,0,8.0,117.0
26687,75.0,0,0,0.0,94.0
26688,79.0,0,0,0.0,94.0
26689,75.0,1,0,1.0,98.0
26690,58.0,0,0,5.0,104.0
26691,70.0,0,0,5.0,104.0
26692,79.0,0,0,1.0,98.0
26693,75.0,0,0,2.0,94.0
26694,79.0,0,0,2.0,94.0
26695,63.0,1,0,10.0,112.0
26696,51.0,1,90,12.0,117.0
26697,51.0,1,90,6.0,122.0
26698,39.0,1,90,13.0,127.0
26699,82.0,0,30,7.0,106.0
26700,94.0,30,30,7.0,106.0
26701,70.0,0,0,5.0,104.0
26702,67.0,0,30,4.0,107.0
26703,63.0,0,30,4.0,107.0
26704,58.0,2,30,11.0,117.0
26705,51.0,1,30,12.0,117.0
26706,51.0,1,30,6.0,122.0
26707,39.0,1,30,13.0,127.0
26708,80.0,0,30,7.0,106.0
26709,92.0,0,30,7.0,106.0
26710,94.0,0,30,7.0,106.0
26711,82.0,23,30,7.0,106.0
26712,89.0,30,30,7.0,106.0
26713,101.0,0,30,7.0,106.0
26714,77.0,23,120,0.0,94.0
26715,80.0,0,120,0.0,94.0
26716,80.0,0,120,8.0,117.0
26717,94.0,30,30,7.0,106.0
26718,82.0,0,30,7.0,106.0
26719,80.0,1,120,1.0,98.0
26720,77.0,0,0,1.0,98.0
26721,58.0,0,120,5.0,104.0
26722,70.0,0,0,5.0,104.0
26723,80.0,0,120,2.0,94.0
26724,77.0,0,0,2.0,94.0
26725,68.0,0,120,4.0,107.0
26726,65.0,0,120,4.0,107.0
26727,65.0,1,0,10.0,112.0
26728,58.0,2,120,11.0,117.0
26729,46.0,1,120,12.0,117.0
26730,46.0,1,0,6.0,122.0
26731,34.0,1,0,13.0,127.0
26732,89.0,0,30,7.0,106.0
26733,77.0,0,30,7.0,106.0
26734,94.0,0,30,7.0,106.0
26735,82.0,23,30,7.0,106.0
26736,98.0,30,30,7.0,106.0
26737,74.0,0,0,0.0,94.0
26738,77.0,0,0,0.0,94.0
26739,86.0,0,30,7.0,106.0
26740,77.0,0,0,8.0,117.0
26741,58.0,0,90,5.0,104.0
26742,74.0,1,90,1.0,98.0
26743,74.0,0,90,2.0,94.0
26744,65.0,0,90,4.0,107.0
26745,77.0,0,0,2.0,94.0
26746,74.0,0,0,10.0,112.0
26747,58.0,0,0,4.0,107.0
26748,65.0,0,0,10.0,112.0
26749,58.0,2,90,11.0,117.0
26750,46.0,1,90,12.0,117.0
26751,82.0,0,30,7.0,106.0
26752,94.0,30,30,7.0,106.0
26753,77.0,0,30,1.0,98.0
26754,74.0,0,30,1.0,98.0
26755,58.0,1,30,5.0,104.0
26756,70.0,0,30,5.0,104.0
26757,74.0,1,30,2.0,94.0
26758,65.0,0,30,4.0,107.0
26759,58.0,2,30,11.0,117.0
26760,46.0,1,30,12.0,117.0
26761,46.0,1,30,6.0,122.0
26762,34.0,1,30,13.0,127.0
26763,99.0,0,40,7.0,106.0
26764,94.0,33,40,7.0,106.0
26765,55.0,0,120,8.0,117.0
26766,63.0,0,120,8.0,117.0
26767,70.0,0,120,8.0,117.0
26768,75.0,23,120,7.0,106.0
26769,79.0,0,120,0.0,94.0
26770,91.0,40,40,7.0,106.0
26771,79.0,0,120,7.0,106.0
26772,82.0,0,120,7.0,106.0
26773,79.0,0,120,8.0,117.0
26774,75.0,0,120,0.0,94.0
26775,63.0,0,120,5.0,104.0
26776,79.0,0,120,1.0,98.0
26777,75.0,0,120,5.0,104.0
26778,75.0,1,120,1.0,98.0
26779,79.0,0,120,2.0,94.0
26780,67.0,1,120,4.0,107.0
26781,75.0,0,120,10.0,112.0
26782,67.0,0,120,10.0,112.0
26783,63.0,0,120,4.0,107.0
26784,75.0,0,120,2.0,94.0
26785,58.0,0,120,10.0,112.0
26786,63.0,2,120,11.0,117.0
26787,51.0,1,120,12.0,117.0
26788,51.0,1,120,3.0,110.0
26789,51.0,0,120,6.0,122.0
26790,39.0,1,120,13.0,127.0
26791,87.0,40,40,7.0,106.0
26792,82.0,40,40,7.0,106.0
26793,79.0,40,40,7.0,106.0
26794,75.0,40,30,7.0,106.0
26795,70.0,30,30,7.0,106.0
26796,67.0,30,30,7.0,106.0
26797,63.0,30,30,7.0,106.0
26798,58.0,30,30,7.0,106.0
26799,55.0,30,30,7.0,106.0
26800,51.0,30,20,7.0,106.0
26801,46.0,20,20,7.0,106.0
26802,43.0,20,20,7.0,106.0
26803,39.0,20,30,7.0,106.0
26804,43.0,23,30,7.0,106.0
26805,46.0,30,30,7.0,106.0
26806,51.0,30,30,7.0,106.0
26807,82.0,0,120,8.0,117.0
26808,75.0,0,120,0.0,94.0
26809,79.0,0,120,0.0,94.0
26810,75.0,0,120,8.0,117.0
26811,67.0,0,120,8.0,117.0
26812,79.0,1,120,1.0,98.0
26813,75.0,0,120,1.0,98.0
26814,63.0,0,120,5.0,104.0
26815,75.0,0,120,5.0,104.0
26816,79.0,0,120,2.0,94.0
26817,63.0,0,120,4.0,107.0
26818,67.0,0,120,4.0,107.0
26819,63.0,0,120,10.0,112.0
26820,70.0,0,120,10.0,112.0
26821,79.0,0,120,10.0,112.0
26822,82.0,1,120,2.0,94.0
26823,55.0,0,120,10.0,112.0
26824,63.0,2,120,11.0,117.0
26825,51.0,1,120,12.0,117.0
26826,51.0,1,120,3.0,110.0
26827,51.0,0,120,6.0,122.0
26828,39.0,1,120,13.0,127.0
26829,55.0,30,30,7.0,106.0
26830,58.0,30,30,7.0,106.0
26831,63.0,30,30,7.0,106.0
26832,67.0,30,30,7.0,106.0
26833,70.0,30,30,7.0,106.0
26834,75.0,30,30,7.0,106.0
26835,79.0,30,30,7.0,106.0
26836,82.0,30,30,7.0,106.0
26837,87.0,30,40,7.0,106.0
26838,91.0,40,40,7.0,106.0
26839,94.0,40,40,7.0,106.0
26840,99.0,0,30,7.0,106.0
26841,94.0,23,30,7.0,106.0
26842,75.0,0,90,7.0,106.0
26843,79.0,0,90,7.0,106.0
26844,82.0,0,90,7.0,106.0
26845,91.0,30,30,7.0,106.0
26846,87.0,0,120,0.0,94.0
26847,87.0,40,120,8.0,117.0
26848,94.0,30,30,7.0,106.0
26849,82.0,0,120,8.0,117.0
26850,70.0,0,120,8.0,117.0
26851,75.0,1,120,1.0,98.0
26852,63.0,0,120,5.0,104.0
26853,75.0,0,120,5.0,104.0
26854,79.0,0,120,1.0,98.0
26855,75.0,0,120,10.0,112.0
26856,63.0,0,120,4.0,107.0
26857,75.0,1,120,2.0,94.0
26858,67.0,0,120,4.0,107.0
26859,79.0,0,120,2.0,94.0
26860,63.0,0,120,10.0,112.0
26861,55.0,0,120,10.0,112.0
26862,51.0,0,120,11.0,117.0
26863,55.0,2,120,11.0,117.0
26864,51.0,1,120,12.0,117.0
26865,51.0,1,120,6.0,122.0
26866,51.0,0,120,3.0,110.0
26867,39.0,1,120,13.0,127.0
26868,99.0,30,30,7.0,106.0
26869,94.0,30,30,7.0,106.0
26870,91.0,30,30,7.0,106.0
26871,94.0,30,30,7.0,106.0
26872,99.0,0,30,7.0,106.0
26873,94.0,30,30,7.0,106.0
26874,79.0,0,90,7.0,106.0
26875,82.0,30,90,7.0,106.0
26876,91.0,30,30,7.0,106.0
26877,75.0,0,90,7.0,106.0
26878,94.0,30,30,7.0,106.0
26879,99.0,0,30,7.0,106.0
26880,94.0,30,30,7.0,106.0
26881,91.0,30,30,7.0,106.0
26882,82.0,30,90,7.0,106.0
26883,75.0,0,90,7.0,106.0
26884,79.0,0,90,7.0,106.0
26885,94.0,0,0,7.0,106.0
26886,79.0,0,90,7.0,106.0
26887,91.0,0,90,7.0,106.0
26888,99.0,0,90,7.0,106.0
26889,87.0,0,90,7.0,106.0
26890,82.0,0,90,7.0,106.0
26891,75.0,30,90,7.0,106.0
26892,87.0,0,120,8.0,117.0
26893,79.0,0,120,0.0,94.0
26894,70.0,0,120,8.0,117.0
26895,79.0,0,120,8.0,117.0
26896,87.0,0,120,0.0,94.0
26897,63.0,0,120,5.0,104.0
26898,75.0,0,120,5.0,104.0
26899,75.0,0,120,1.0,98.0
26900,79.0,1,120,1.0,98.0
26901,55.0,0,120,4.0,107.0
26902,63.0,0,120,4.0,107.0
26903,55.0,0,120,10.0,112.0
26904,75.0,0,120,10.0,112.0
26905,75.0,1,120,2.0,94.0
26906,67.0,0,120,2.0,94.0
26907,63.0,0,120,10.0,112.0
26908,51.0,2,120,11.0,117.0
26909,55.0,0,120,11.0,117.0
26910,51.0,1,120,12.0,117.0
26911,51.0,0,120,3.0,110.0
26912,51.0,1,120,6.0,122.0
26913,39.0,1,120,13.0,127.0
26914,91.0,0,90,7.0,106.0
26915,67.0,0,90,7.0,106.0
26916,75.0,0,90,7.0,106.0
26917,99.0,0,90,7.0,106.0
26918,70.0,0,90,7.0,106.0
26919,94.0,0,90,7.0,106.0
26920,87.0,0,90,7.0,106.0
26921,63.0,0,90,7.0,106.0
26922,87.0,0,120,0.0,94.0
26923,79.0,0,120,8.0,117.0
26924,70.0,0,120,8.0,117.0
26925,79.0,233,120,0.0,94.0
26926,63.0,0,120,8.0,117.0
26927,55.0,0,120,8.0,117.0
26928,75.0,1,120,1.0,98.0
26929,63.0,0,120,5.0,104.0
26930,67.0,0,120,1.0,98.0
26931,67.0,1,120,2.0,94.0
26932,63.0,0,120,4.0,107.0
26933,55.0,0,120,4.0,107.0
26934,70.0,0,120,10.0,112.0
26935,63.0,0,120,10.0,112.0
26936,79.0,0,120,10.0,112.0
26937,75.0,0,120,2.0,94.0
26938,55.0,0,120,10.0,112.0
26939,55.0,0,120,11.0,117.0
26940,51.0,2,120,11.0,117.0
26941,51.0,1,120,12.0,117.0
26942,51.0,0,120,3.0,110.0
26943,51.0,1,120,6.0,122.0
26944,39.0,1,120,13.0,127.0
26945,99.0,0,90,7.0,106.0
26946,75.0,0,90,7.0,106.0
26947,87.0,0,90,7.0,106.0
26948,70.0,0,90,7.0,106.0
26949,67.0,0,90,7.0,106.0
26950,63.0,0,90,7.0,106.0
26951,91.0,0,90,7.0,106.0
26952,94.0,0,90,7.0,106.0
26953,55.0,0,120,8.0,117.0
26954,63.0,0,120,8.0,117.0
26955,79.0,0,120,0.0,94.0
26956,87.0,233,120,0.0,94.0
26957,63.0,1,120,5.0,104.0
26958,67.0,0,120,1.0,98.0
26959,75.0,0,120,1.0,98.0
26960,55.0,0,120,10.0,112.0
26961,63.0,0,120,10.0,112.0
26962,63.0,0,120,4.0,107.0
26963,55.0,0,120,4.0,107.0
26964,67.0,1,120,2.0,94.0
26965,75.0,0,120,2.0,94.0
26966,55.0,0,120,11.0,117.0
26967,51.0,2,120,11.0,117.0
26968,51.0,1,120,12.0,117.0
26969,51.0,0,120,3.0,110.0
26970,51.0,1,120,6.0,122.0
26971,39.0,1,120,13.0,127.0
