,note,step,duration,channel,velocity
0,79.0,0,124,0.0,107.0
1,67.0,0,124,0.0,109.0
2,55.0,0,188,0.0,84.0
3,59.0,0,188,0.0,78.0
4,62.0,192,188,0.0,63.0
5,71.0,192,124,0.0,100.0
6,83.0,0,124,0.0,116.0
7,59.0,0,188,0.0,82.0
8,55.0,0,188,0.0,82.0
9,62.0,192,188,0.0,76.0
10,67.0,0,124,0.0,110.0
11,79.0,192,124,0.0,107.0
12,55.0,0,188,0.0,93.0
13,59.0,0,188,0.0,87.0
14,62.0,192,188,0.0,87.0
15,59.0,0,188,0.0,77.0
16,55.0,0,188,0.0,88.0
17,62.0,192,188,0.0,66.0
18,59.0,192,188,0.0,76.0
19,55.0,0,188,0.0,74.0
20,62.0,192,188,0.0,63.0
21,86.0,192,764,0.0,86.0
22,74.0,0,764,0.0,110.0
23,55.0,0,188,0.0,82.0
24,84.0,192,188,0.0,86.0
25,59.0,0,188,0.0,82.0
26,83.0,192,188,0.0,99.0
27,62.0,0,188,0.0,81.0
28,81.0,0,188,0.0,85.0
29,59.0,192,188,0.0,77.0
30,55.0,0,188,0.0,89.0
31,79.0,192,188,0.0,92.0
32,62.0,0,188,0.0,79.0
33,55.0,192,188,0.0,92.0
34,78.0,0,188,0.0,87.0
35,59.0,0,188,0.0,85.0
36,62.0,192,188,0.0,86.0
37,79.0,0,188,0.0,88.0
38,83.0,192,188,0.0,93.0
39,59.0,0,188,0.0,82.0
40,55.0,0,188,0.0,89.0
41,79.0,0,188,0.0,99.0
42,62.0,192,188,0.0,86.0
43,55.0,0,188,0.0,87.0
44,60.0,192,188,0.0,90.0
45,64.0,192,188,0.0,68.0
46,78.0,0,380,0.0,93.0
47,55.0,192,188,0.0,87.0
48,60.0,0,188,0.0,79.0
49,76.0,0,380,0.0,107.0
50,64.0,192,188,0.0,81.0
51,55.0,0,188,0.0,90.0
52,60.0,0,188,0.0,88.0
53,74.0,192,188,0.0,90.0
54,72.0,0,188,0.0,89.0
55,64.0,192,188,0.0,82.0
56,71.0,0,188,0.0,92.0
57,55.0,192,188,0.0,88.0
58,60.0,0,188,0.0,88.0
59,64.0,192,188,0.0,80.0
60,69.0,0,188,0.0,90.0
61,55.0,192,188,0.0,88.0
62,60.0,0,188,0.0,85.0
63,68.0,0,188,0.0,89.0
64,69.0,0,188,0.0,92.0
65,64.0,192,188,0.0,82.0
66,55.0,0,188,0.0,94.0
67,60.0,192,188,0.0,93.0
68,72.0,0,188,0.0,82.0
69,69.0,0,188,0.0,97.0
70,64.0,192,188,0.0,86.0
71,57.0,0,188,0.0,83.0
72,55.0,192,188,0.0,81.0
73,60.0,0,188,0.0,86.0
74,62.0,192,188,0.0,40.0
75,55.0,192,188,0.0,83.0
76,60.0,0,188,0.0,73.0
77,57.0,0,188,0.0,80.0
78,62.0,192,188,0.0,85.0
79,66.0,0,764,0.0,93.0
80,69.0,0,124,0.0,84.0
81,60.0,192,188,0.0,81.0
82,55.0,0,188,0.0,78.0
83,57.0,0,188,0.0,80.0
84,62.0,192,188,0.0,90.0
85,72.0,192,124,0.0,92.0
86,55.0,0,188,0.0,80.0
87,60.0,0,188,0.0,88.0
88,57.0,0,188,0.0,82.0
89,62.0,192,188,0.0,79.0
90,69.0,0,124,0.0,88.0
91,55.0,0,188,0.0,71.0
92,57.0,0,188,0.0,79.0
93,60.0,192,188,0.0,89.0
94,62.0,192,188,0.0,96.0
95,66.0,0,124,0.0,93.0
96,57.0,0,188,0.0,86.0
97,60.0,192,188,0.0,87.0
98,55.0,0,188,0.0,82.0
99,62.0,192,188,0.0,76.0
100,67.0,0,188,0.0,74.0
101,62.0,192,188,0.0,74.0
102,61.0,192,188,0.0,74.0
103,62.0,192,188,0.0,80.0
104,66.0,192,188,0.0,81.0
105,59.0,0,1148,0.0,64.0
106,67.0,192,188,0.0,84.0
107,55.0,192,1148,0.0,69.0
108,69.0,192,188,0.0,81.0
109,62.0,192,188,0.0,78.0
110,61.0,192,188,0.0,78.0
111,62.0,192,188,0.0,76.0
112,67.0,192,188,0.0,93.0
113,54.0,0,1148,0.0,49.0
114,42.0,0,1148,0.0,52.0
115,50.0,0,1148,0.0,60.0
116,69.0,192,188,0.0,77.0
117,71.0,0,188,0.0,79.0
118,67.0,192,188,0.0,82.0
119,66.0,192,188,0.0,76.0
120,43.0,0,764,0.0,62.0
121,50.0,192,764,0.0,75.0
122,55.0,0,764,0.0,59.0
123,67.0,192,188,0.0,80.0
124,57.0,192,188,0.0,61.0
125,72.0,0,188,0.0,79.0
126,45.0,0,188,0.0,70.0
127,47.0,192,188,0.0,76.0
128,59.0,0,188,0.0,72.0
129,74.0,0,188,0.0,84.0
130,60.0,0,124,0.0,64.0
131,48.0,192,124,0.0,76.0
132,76.0,0,188,0.0,82.0
133,74.0,192,188,0.0,73.0
134,60.0,192,124,0.0,82.0
135,48.0,0,124,0.0,86.0
136,72.0,0,188,0.0,76.0
137,71.0,192,188,0.0,75.0
138,49.0,192,124,0.0,79.0
139,61.0,0,124,0.0,70.0
140,69.0,0,188,0.0,74.0
141,67.0,192,188,0.0,82.0
142,50.0,0,188,0.0,53.0
143,62.0,192,188,0.0,42.0
144,66.0,0,380,0.0,59.0
145,50.0,192,188,0.0,55.0
146,54.0,192,188,0.0,50.0
147,57.0,0,188,0.0,54.0
148,62.0,192,188,0.0,53.0
149,66.0,192,188,0.0,56.0
150,69.0,192,188,0.0,55.0
151,74.0,192,188,0.0,63.0
152,66.0,192,188,0.0,58.0
153,69.0,192,188,0.0,56.0
154,74.0,192,188,0.0,63.0
155,78.0,192,188,0.0,64.0
156,69.0,192,188,0.0,43.0
157,74.0,192,188,0.0,58.0
158,78.0,192,188,0.0,47.0
159,81.0,192,188,0.0,57.0
160,74.0,192,188,0.0,24.0
161,78.0,192,188,0.0,46.0
162,81.0,192,188,0.0,55.0
163,86.0,192,188,0.0,56.0
164,78.0,192,188,0.0,42.0
165,81.0,192,188,0.0,52.0
166,86.0,192,188,0.0,58.0
167,90.0,192,188,0.0,55.0
168,88.0,192,188,0.0,56.0
169,47.0,192,188,0.0,46.0
170,50.0,192,188,0.0,59.0
171,86.0,0,380,0.0,71.0
172,54.0,192,188,0.0,50.0
173,59.0,0,188,0.0,44.0
174,62.0,192,188,0.0,58.0
175,66.0,192,188,0.0,58.0
176,71.0,192,188,0.0,49.0
177,74.0,192,188,0.0,66.0
178,66.0,192,188,0.0,55.0
179,71.0,192,188,0.0,57.0
180,74.0,192,188,0.0,63.0
181,78.0,192,188,0.0,61.0
182,71.0,192,188,0.0,51.0
183,74.0,192,188,0.0,43.0
184,78.0,192,188,0.0,38.0
185,83.0,192,188,0.0,59.0
186,74.0,192,188,0.0,57.0
187,78.0,192,188,0.0,49.0
188,83.0,192,188,0.0,36.0
189,86.0,192,188,0.0,54.0
190,78.0,192,188,0.0,48.0
191,83.0,192,188,0.0,60.0
192,86.0,192,188,0.0,62.0
193,90.0,192,188,0.0,60.0
194,88.0,192,188,0.0,66.0
195,44.0,0,188,0.0,55.0
196,47.0,192,188,0.0,56.0
197,86.0,192,380,0.0,69.0
198,50.0,192,188,0.0,60.0
199,62.0,0,188,0.0,48.0
200,52.0,192,188,0.0,51.0
201,56.0,0,188,0.0,38.0
202,64.0,192,188,0.0,63.0
203,68.0,192,188,0.0,55.0
204,71.0,192,188,0.0,60.0
205,64.0,192,188,0.0,64.0
206,68.0,192,188,0.0,58.0
207,71.0,192,188,0.0,47.0
208,74.0,192,188,0.0,68.0
209,68.0,192,188,0.0,48.0
210,71.0,192,188,0.0,53.0
211,74.0,192,188,0.0,57.0
212,80.0,192,188,0.0,69.0
213,71.0,192,188,0.0,51.0
214,74.0,192,188,0.0,55.0
215,80.0,192,188,0.0,64.0
216,83.0,192,188,0.0,60.0
217,80.0,192,188,0.0,60.0
218,76.0,192,188,0.0,66.0
219,56.0,0,380,0.0,64.0
220,59.0,0,380,0.0,55.0
221,78.0,192,188,0.0,60.0
222,76.0,0,188,0.0,62.0
223,59.0,0,380,0.0,42.0
224,78.0,192,188,0.0,54.0
225,62.0,192,380,0.0,49.0
226,61.0,0,188,0.0,57.0
227,62.0,192,188,0.0,66.0
228,57.0,0,380,0.0,52.0
229,64.0,192,188,0.0,69.0
230,66.0,192,188,0.0,68.0
231,68.0,192,188,0.0,68.0
232,69.0,192,188,0.0,76.0
233,76.0,0,1148,0.0,74.0
234,73.0,192,1148,0.0,67.0
235,68.0,192,188,0.0,73.0
236,66.0,192,188,0.0,69.0
237,64.0,192,188,0.0,59.0
238,62.0,192,188,0.0,68.0
239,61.0,192,188,0.0,73.0
240,74.0,0,1148,0.0,71.0
241,76.0,0,1148,0.0,71.0
242,59.0,192,188,0.0,71.0
243,57.0,0,188,0.0,77.0
244,55.0,192,188,0.0,75.0
245,54.0,192,188,0.0,65.0
246,52.0,192,188,0.0,67.0
247,50.0,192,188,0.0,80.0
248,49.0,192,188,0.0,72.0
249,79.0,0,1148,0.0,75.0
250,76.0,192,1148,0.0,83.0
251,50.0,0,188,0.0,58.0
252,74.0,0,380,0.0,35.0
253,78.0,192,380,0.0,40.0
254,52.0,192,188,0.0,49.0
255,54.0,0,188,0.0,71.0
256,56.0,192,188,0.0,56.0
257,74.0,192,380,0.0,44.0
258,78.0,0,380,0.0,48.0
259,57.0,192,188,0.0,61.0
260,59.0,192,188,0.0,60.0
261,74.0,0,380,0.0,43.0
262,78.0,0,380,0.0,44.0
263,61.0,0,188,0.0,60.0
264,57.0,0,380,0.0,58.0
265,62.0,192,188,0.0,65.0
266,64.0,192,188,0.0,68.0
267,66.0,192,188,0.0,70.0
268,68.0,192,188,0.0,73.0
269,69.0,192,188,0.0,72.0
270,73.0,0,1148,0.0,58.0
271,76.0,192,1148,0.0,71.0
272,68.0,0,188,0.0,60.0
273,66.0,192,188,0.0,67.0
274,64.0,192,188,0.0,58.0
275,62.0,192,188,0.0,68.0
276,61.0,192,188,0.0,69.0
277,74.0,0,1148,0.0,69.0
278,76.0,192,1148,0.0,68.0
279,59.0,192,188,0.0,70.0
280,57.0,192,188,0.0,81.0
281,55.0,192,188,0.0,81.0
282,54.0,192,188,0.0,75.0
283,52.0,192,188,0.0,81.0
284,50.0,192,188,0.0,84.0
285,49.0,192,188,0.0,77.0
286,76.0,0,1148,0.0,85.0
287,79.0,0,1148,0.0,80.0
288,50.0,0,188,0.0,48.0
289,52.0,192,188,0.0,54.0
290,78.0,0,380,0.0,50.0
291,74.0,192,380,0.0,40.0
292,54.0,192,188,0.0,63.0
293,78.0,0,380,0.0,45.0
294,74.0,0,380,0.0,52.0
295,56.0,192,188,0.0,56.0
296,57.0,0,188,0.0,63.0
297,78.0,192,380,0.0,42.0
298,74.0,0,380,0.0,41.0
299,59.0,192,188,0.0,58.0
300,76.0,0,188,0.0,60.0
301,73.0,0,188,0.0,50.0
302,74.0,192,188,0.0,68.0
303,76.0,192,188,0.0,68.0
304,78.0,192,188,0.0,60.0
305,80.0,192,188,0.0,70.0
306,64.0,0,1148,0.0,55.0
307,61.0,0,1148,0.0,55.0
308,81.0,192,188,0.0,67.0
309,80.0,0,188,0.0,67.0
310,78.0,192,188,0.0,60.0
311,76.0,192,188,0.0,56.0
312,74.0,192,188,0.0,43.0
313,73.0,192,188,0.0,57.0
314,57.0,192,2300,0.0,61.0
315,59.0,192,1148,0.0,45.0
316,62.0,0,1148,0.0,42.0
317,71.0,192,188,0.0,46.0
318,74.0,0,188,0.0,48.0
319,76.0,192,188,0.0,65.0
320,78.0,192,188,0.0,62.0
321,80.0,192,188,0.0,53.0
322,81.0,192,188,0.0,49.0
323,62.0,0,1148,0.0,64.0
324,68.0,192,1148,0.0,54.0
325,83.0,192,188,0.0,61.0
326,81.0,0,188,0.0,52.0
327,79.0,192,188,0.0,62.0
328,78.0,192,188,0.0,60.0
329,76.0,192,188,0.0,48.0
330,74.0,192,188,0.0,54.0
331,73.0,192,188,0.0,49.0
332,64.0,0,1148,0.0,55.0
333,61.0,192,1148,0.0,62.0
334,57.0,0,2300,0.0,54.0
335,76.0,0,188,0.0,70.0
336,79.0,192,188,0.0,69.0
337,85.0,192,188,0.0,84.0
338,79.0,192,188,0.0,71.0
339,88.0,192,188,0.0,81.0
340,85.0,192,188,0.0,73.0
341,57.0,0,1148,0.0,47.0
342,61.0,192,1148,0.0,53.0
343,64.0,0,1148,0.0,49.0
344,67.0,0,1148,0.0,63.0
345,88.0,0,188,0.0,76.0
346,85.0,192,188,0.0,65.0
347,88.0,192,188,0.0,85.0
348,85.0,192,188,0.0,77.0
349,88.0,192,188,0.0,78.0
350,58.0,0,1148,0.0,69.0
351,67.0,0,1148,0.0,79.0
352,61.0,0,1148,0.0,68.0
353,64.0,192,1148,0.0,67.0
354,85.0,192,188,0.0,74.0
355,88.0,0,188,0.0,83.0
356,85.0,192,188,0.0,71.0
357,81.0,192,188,0.0,71.0
358,61.0,192,764,0.0,67.0
359,57.0,0,764,0.0,70.0
360,64.0,0,764,0.0,66.0
361,67.0,0,764,0.0,76.0
362,83.0,192,188,0.0,82.0
363,85.0,0,188,0.0,83.0
364,55.0,192,380,0.0,62.0
365,61.0,0,380,0.0,62.0
366,64.0,0,380,0.0,63.0
367,81.0,192,188,0.0,72.0
368,86.0,0,188,0.0,82.0
369,81.0,192,188,0.0,73.0
370,86.0,192,188,0.0,82.0
371,81.0,192,188,0.0,78.0
372,57.0,0,764,0.0,44.0
373,62.0,192,764,0.0,42.0
374,54.0,0,764,0.0,43.0
375,78.0,0,188,0.0,63.0
376,62.0,0,380,0.0,43.0
377,57.0,0,380,0.0,44.0
378,50.0,192,380,0.0,41.0
379,74.0,192,188,0.0,59.0
380,76.0,192,188,0.0,70.0
381,79.0,192,188,0.0,72.0
382,85.0,192,188,0.0,74.0
383,79.0,192,188,0.0,70.0
384,88.0,192,188,0.0,68.0
385,57.0,0,1148,0.0,51.0
386,85.0,192,188,0.0,70.0
387,64.0,0,1148,0.0,45.0
388,67.0,0,1148,0.0,64.0
389,61.0,0,1148,0.0,49.0
390,88.0,0,188,0.0,85.0
391,85.0,192,188,0.0,80.0
392,88.0,192,188,0.0,88.0
393,85.0,192,188,0.0,84.0
394,88.0,192,188,0.0,82.0
395,58.0,192,1148,0.0,73.0
396,67.0,0,1148,0.0,80.0
397,64.0,0,1148,0.0,70.0
398,61.0,0,1148,0.0,67.0
399,85.0,192,188,0.0,80.0
400,88.0,0,188,0.0,79.0
401,85.0,192,188,0.0,76.0
402,81.0,192,188,0.0,74.0
403,57.0,192,764,0.0,74.0
404,61.0,0,764,0.0,69.0
405,67.0,0,764,0.0,80.0
406,64.0,0,764,0.0,67.0
407,83.0,192,188,0.0,83.0
408,85.0,0,188,0.0,82.0
409,64.0,192,380,0.0,59.0
410,61.0,0,380,0.0,61.0
411,55.0,0,380,0.0,63.0
412,81.0,192,188,0.0,73.0
413,86.0,0,188,0.0,74.0
414,81.0,192,188,0.0,66.0
415,86.0,192,188,0.0,83.0
416,81.0,192,188,0.0,69.0
417,62.0,0,764,0.0,67.0
418,57.0,192,764,0.0,56.0
419,54.0,0,764,0.0,56.0
420,78.0,0,188,0.0,67.0
421,74.0,192,188,0.0,71.0
422,57.0,192,380,0.0,59.0
423,62.0,0,380,0.0,60.0
424,50.0,0,380,0.0,52.0
425,83.0,0,188,0.0,66.0
426,62.0,192,380,0.0,46.0
427,59.0,0,380,0.0,60.0
428,55.0,0,380,0.0,55.0
429,79.0,192,188,0.0,58.0
430,83.0,192,188,0.0,62.0
431,79.0,192,188,0.0,61.0
432,74.0,0,188,0.0,62.0
433,71.0,192,188,0.0,44.0
434,59.0,0,380,0.0,57.0
435,55.0,192,380,0.0,44.0
436,64.0,0,380,0.0,47.0
437,66.0,192,380,0.0,56.0
438,62.0,0,380,0.0,60.0
439,57.0,0,380,0.0,52.0
440,69.0,0,764,0.0,63.0
441,76.0,768,92,0.0,84.0
442,74.0,96,92,0.0,63.0
443,76.0,96,92,0.0,82.0
444,74.0,96,44,0.0,78.0
445,76.0,48,44,0.0,80.0
446,57.0,0,380,0.0,51.0
447,67.0,0,380,0.0,65.0
448,61.0,0,380,0.0,60.0
449,74.0,48,124,0.0,96.0
450,54.0,0,188,0.0,78.0
451,50.0,0,188,0.0,80.0
452,57.0,192,188,0.0,74.0
453,81.0,192,124,0.0,81.0
454,69.0,0,124,0.0,75.0
455,50.0,0,188,0.0,77.0
456,54.0,0,188,0.0,75.0
457,57.0,192,188,0.0,65.0
458,74.0,0,124,0.0,85.0
459,62.0,192,124,0.0,76.0
460,54.0,0,188,0.0,80.0
461,50.0,0,188,0.0,75.0
462,57.0,192,188,0.0,75.0
463,55.0,192,188,0.0,69.0
464,52.0,0,188,0.0,70.0
465,50.0,0,188,0.0,74.0
466,57.0,192,188,0.0,74.0
467,67.0,192,124,0.0,82.0
468,79.0,0,124,0.0,78.0
469,55.0,0,188,0.0,75.0
470,50.0,0,188,0.0,70.0
471,52.0,0,188,0.0,70.0
472,57.0,192,188,0.0,81.0
473,73.0,192,124,0.0,86.0
474,61.0,0,124,0.0,79.0
475,50.0,0,188,0.0,70.0
476,55.0,0,188,0.0,71.0
477,52.0,0,188,0.0,66.0
478,57.0,192,188,0.0,82.0
479,74.0,0,124,0.0,80.0
480,50.0,0,124,0.0,65.0
481,62.0,576,124,0.0,64.0
482,59.0,0,124,0.0,41.0
483,71.0,384,124,0.0,60.0
484,47.0,0,124,0.0,54.0
485,60.0,0,124,0.0,58.0
486,48.0,768,124,0.0,54.0
487,72.0,0,124,0.0,65.0
488,69.0,384,124,0.0,64.0
489,45.0,0,124,0.0,59.0
490,57.0,0,124,0.0,43.0
491,43.0,0,124,0.0,76.0
492,79.0,384,124,0.0,92.0
493,67.0,0,124,0.0,90.0
494,71.0,0,124,0.0,85.0
495,83.0,0,124,0.0,90.0
496,55.0,0,188,0.0,75.0
497,59.0,384,188,0.0,68.0
498,62.0,192,188,0.0,82.0
499,79.0,0,124,0.0,92.0
500,67.0,0,124,0.0,92.0
501,55.0,0,188,0.0,75.0
502,59.0,192,188,0.0,79.0
503,62.0,192,188,0.0,88.0
504,55.0,192,188,0.0,88.0
505,59.0,0,188,0.0,77.0
506,62.0,192,188,0.0,66.0
507,55.0,0,188,0.0,74.0
508,59.0,192,188,0.0,76.0
509,74.0,0,764,0.0,110.0
510,86.0,0,764,0.0,86.0
511,62.0,192,188,0.0,63.0
512,84.0,192,188,0.0,86.0
513,55.0,0,188,0.0,82.0
514,59.0,0,188,0.0,82.0
515,83.0,0,188,0.0,99.0
516,62.0,192,188,0.0,81.0
517,81.0,0,188,0.0,85.0
518,59.0,0,188,0.0,77.0
519,55.0,192,188,0.0,89.0
520,79.0,192,188,0.0,92.0
521,62.0,0,188,0.0,79.0
522,55.0,0,188,0.0,92.0
523,59.0,192,188,0.0,85.0
524,78.0,0,188,0.0,87.0
525,62.0,192,188,0.0,86.0
526,79.0,0,188,0.0,88.0
527,83.0,192,188,0.0,93.0
528,55.0,0,188,0.0,89.0
529,59.0,0,188,0.0,82.0
530,62.0,192,188,0.0,86.0
531,79.0,0,188,0.0,99.0
532,55.0,0,188,0.0,87.0
533,60.0,192,188,0.0,90.0
534,78.0,0,380,0.0,93.0
535,64.0,192,188,0.0,68.0
536,55.0,192,188,0.0,87.0
537,60.0,0,188,0.0,79.0
538,76.0,0,380,0.0,107.0
539,64.0,192,188,0.0,81.0
540,55.0,0,188,0.0,90.0
541,60.0,0,188,0.0,88.0
542,74.0,192,188,0.0,90.0
543,64.0,192,188,0.0,82.0
544,72.0,0,188,0.0,89.0
545,71.0,192,188,0.0,92.0
546,55.0,0,188,0.0,88.0
547,60.0,0,188,0.0,88.0
548,69.0,192,188,0.0,90.0
549,64.0,0,188,0.0,80.0
550,68.0,0,188,0.0,89.0
551,60.0,192,188,0.0,85.0
552,55.0,0,188,0.0,88.0
553,69.0,192,188,0.0,92.0
554,64.0,0,188,0.0,82.0
555,72.0,192,188,0.0,82.0
556,55.0,0,188,0.0,94.0
557,60.0,0,188,0.0,93.0
558,69.0,192,188,0.0,97.0
559,64.0,0,188,0.0,86.0
560,57.0,0,188,0.0,83.0
561,60.0,0,188,0.0,86.0
562,55.0,192,188,0.0,81.0
563,62.0,192,188,0.0,40.0
564,55.0,0,188,0.0,83.0
565,60.0,192,188,0.0,73.0
566,57.0,0,188,0.0,80.0
567,66.0,0,764,0.0,93.0
568,62.0,192,188,0.0,85.0
569,69.0,0,124,0.0,84.0
570,57.0,0,188,0.0,80.0
571,55.0,0,188,0.0,78.0
572,60.0,192,188,0.0,81.0
573,62.0,192,188,0.0,90.0
574,72.0,192,124,0.0,92.0
575,57.0,0,188,0.0,82.0
576,60.0,0,188,0.0,88.0
577,55.0,0,188,0.0,80.0
578,62.0,192,188,0.0,79.0
579,69.0,192,124,0.0,88.0
580,57.0,0,188,0.0,79.0
581,55.0,0,188,0.0,71.0
582,60.0,0,188,0.0,89.0
583,62.0,192,188,0.0,96.0
584,66.0,192,124,0.0,93.0
585,57.0,0,188,0.0,86.0
586,55.0,0,188,0.0,82.0
587,60.0,0,188,0.0,87.0
588,62.0,192,188,0.0,76.0
589,67.0,0,188,0.0,74.0
590,62.0,192,188,0.0,74.0
591,61.0,192,188,0.0,74.0
592,62.0,192,188,0.0,80.0
593,66.0,192,188,0.0,81.0
594,59.0,0,1148,0.0,64.0
595,55.0,192,1148,0.0,69.0
596,67.0,192,188,0.0,84.0
597,69.0,192,188,0.0,81.0
598,62.0,192,188,0.0,78.0
599,61.0,192,188,0.0,78.0
600,62.0,192,188,0.0,76.0
601,67.0,192,188,0.0,93.0
602,50.0,0,1148,0.0,60.0
603,69.0,192,188,0.0,77.0
604,42.0,0,1148,0.0,52.0
605,54.0,0,1148,0.0,49.0
606,71.0,0,188,0.0,79.0
607,67.0,192,188,0.0,82.0
608,66.0,192,188,0.0,76.0
609,67.0,192,188,0.0,80.0
610,43.0,0,764,0.0,62.0
611,55.0,0,764,0.0,59.0
612,50.0,192,764,0.0,75.0
613,45.0,192,188,0.0,70.0
614,57.0,0,188,0.0,61.0
615,72.0,0,188,0.0,79.0
616,47.0,0,188,0.0,76.0
617,59.0,192,188,0.0,72.0
618,74.0,0,188,0.0,84.0
619,60.0,0,124,0.0,64.0
620,48.0,192,124,0.0,76.0
621,76.0,0,188,0.0,82.0
622,74.0,192,188,0.0,73.0
623,60.0,0,124,0.0,82.0
624,48.0,0,124,0.0,86.0
625,72.0,192,188,0.0,76.0
626,71.0,192,188,0.0,75.0
627,61.0,0,124,0.0,70.0
628,49.0,0,124,0.0,79.0
629,69.0,192,188,0.0,74.0
630,67.0,192,188,0.0,82.0
631,62.0,192,188,0.0,42.0
632,50.0,0,188,0.0,53.0
633,50.0,192,188,0.0,55.0
634,66.0,0,380,0.0,59.0
635,54.0,192,188,0.0,50.0
636,57.0,0,188,0.0,54.0
637,62.0,192,188,0.0,53.0
638,66.0,192,188,0.0,56.0
639,69.0,192,188,0.0,55.0
640,74.0,192,188,0.0,63.0
641,66.0,192,188,0.0,58.0
642,69.0,192,188,0.0,56.0
643,74.0,192,188,0.0,63.0
644,78.0,192,188,0.0,64.0
645,69.0,192,188,0.0,43.0
646,74.0,192,188,0.0,58.0
647,78.0,192,188,0.0,47.0
648,81.0,192,188,0.0,57.0
649,74.0,192,188,0.0,24.0
650,78.0,192,188,0.0,46.0
651,81.0,192,188,0.0,55.0
652,86.0,192,188,0.0,56.0
653,78.0,192,188,0.0,42.0
654,81.0,192,188,0.0,52.0
655,86.0,192,188,0.0,58.0
656,90.0,192,188,0.0,55.0
657,88.0,192,188,0.0,56.0
658,47.0,0,188,0.0,46.0
659,86.0,192,380,0.0,71.0
660,50.0,192,188,0.0,59.0
661,54.0,192,188,0.0,50.0
662,59.0,192,188,0.0,44.0
663,62.0,0,188,0.0,58.0
664,66.0,192,188,0.0,58.0
665,71.0,192,188,0.0,49.0
666,74.0,192,188,0.0,66.0
667,66.0,192,188,0.0,55.0
668,71.0,192,188,0.0,57.0
669,74.0,192,188,0.0,63.0
670,78.0,192,188,0.0,61.0
671,71.0,192,188,0.0,51.0
672,74.0,192,188,0.0,43.0
673,78.0,192,188,0.0,38.0
674,83.0,192,188,0.0,59.0
675,74.0,192,188,0.0,57.0
676,78.0,192,188,0.0,49.0
677,83.0,192,188,0.0,36.0
678,86.0,192,188,0.0,54.0
679,78.0,192,188,0.0,48.0
680,83.0,192,188,0.0,60.0
681,86.0,192,188,0.0,62.0
682,90.0,192,188,0.0,60.0
683,88.0,192,188,0.0,66.0
684,44.0,0,188,0.0,55.0
685,86.0,192,380,0.0,69.0
686,47.0,192,188,0.0,56.0
687,50.0,192,188,0.0,60.0
688,52.0,192,188,0.0,51.0
689,62.0,0,188,0.0,48.0
690,56.0,0,188,0.0,38.0
691,64.0,192,188,0.0,63.0
692,68.0,192,188,0.0,55.0
693,71.0,192,188,0.0,60.0
694,64.0,192,188,0.0,64.0
695,68.0,192,188,0.0,58.0
696,71.0,192,188,0.0,47.0
697,74.0,192,188,0.0,68.0
698,68.0,192,188,0.0,48.0
699,71.0,192,188,0.0,53.0
700,74.0,192,188,0.0,57.0
701,80.0,192,188,0.0,69.0
702,71.0,192,188,0.0,51.0
703,74.0,192,188,0.0,55.0
704,80.0,192,188,0.0,64.0
705,83.0,192,188,0.0,60.0
706,80.0,192,188,0.0,60.0
707,76.0,192,188,0.0,66.0
708,56.0,0,380,0.0,64.0
709,59.0,0,380,0.0,55.0
710,78.0,192,188,0.0,60.0
711,76.0,0,188,0.0,62.0
712,62.0,0,380,0.0,49.0
713,59.0,192,380,0.0,42.0
714,78.0,192,188,0.0,54.0
715,61.0,192,188,0.0,57.0
716,57.0,0,380,0.0,52.0
717,62.0,192,188,0.0,66.0
718,64.0,192,188,0.0,69.0
719,66.0,192,188,0.0,68.0
720,68.0,192,188,0.0,68.0
721,73.0,0,1148,0.0,67.0
722,76.0,0,1148,0.0,74.0
723,69.0,192,188,0.0,76.0
724,68.0,0,188,0.0,73.0
725,66.0,192,188,0.0,69.0
726,64.0,192,188,0.0,59.0
727,62.0,192,188,0.0,68.0
728,61.0,192,188,0.0,73.0
729,74.0,192,1148,0.0,71.0
730,76.0,0,1148,0.0,71.0
731,59.0,192,188,0.0,71.0
732,57.0,0,188,0.0,77.0
733,55.0,192,188,0.0,75.0
734,54.0,192,188,0.0,65.0
735,52.0,192,188,0.0,67.0
736,50.0,192,188,0.0,80.0
737,49.0,192,188,0.0,72.0
738,79.0,192,1148,0.0,75.0
739,76.0,0,1148,0.0,83.0
740,50.0,192,188,0.0,58.0
741,78.0,0,380,0.0,40.0
742,74.0,0,380,0.0,35.0
743,52.0,192,188,0.0,49.0
744,54.0,192,188,0.0,71.0
745,56.0,192,188,0.0,56.0
746,74.0,0,380,0.0,44.0
747,78.0,0,380,0.0,48.0
748,57.0,0,188,0.0,61.0
749,74.0,192,380,0.0,43.0
750,59.0,192,188,0.0,60.0
751,78.0,0,380,0.0,44.0
752,61.0,0,188,0.0,60.0
753,62.0,192,188,0.0,65.0
754,57.0,192,380,0.0,58.0
755,64.0,192,188,0.0,68.0
756,66.0,192,188,0.0,70.0
757,68.0,192,188,0.0,73.0
758,73.0,0,1148,0.0,58.0
759,76.0,0,1148,0.0,71.0
760,69.0,192,188,0.0,72.0
761,68.0,192,188,0.0,60.0
762,66.0,192,188,0.0,67.0
763,64.0,192,188,0.0,58.0
764,62.0,192,188,0.0,68.0
765,61.0,192,188,0.0,69.0
766,74.0,0,1148,0.0,69.0
767,59.0,192,188,0.0,70.0
768,76.0,0,1148,0.0,68.0
769,57.0,0,188,0.0,81.0
770,55.0,192,188,0.0,81.0
771,54.0,192,188,0.0,75.0
772,52.0,192,188,0.0,81.0
773,50.0,192,188,0.0,84.0
774,49.0,192,188,0.0,77.0
775,76.0,192,1148,0.0,85.0
776,79.0,0,1148,0.0,80.0
777,50.0,0,188,0.0,48.0
778,74.0,0,380,0.0,40.0
779,78.0,192,380,0.0,50.0
780,52.0,192,188,0.0,54.0
781,54.0,0,188,0.0,63.0
782,56.0,192,188,0.0,56.0
783,74.0,0,380,0.0,52.0
784,78.0,192,380,0.0,45.0
785,57.0,192,188,0.0,63.0
786,74.0,0,380,0.0,41.0
787,59.0,192,188,0.0,58.0
788,78.0,0,380,0.0,42.0
789,76.0,192,188,0.0,60.0
790,73.0,0,188,0.0,50.0
791,74.0,192,188,0.0,68.0
792,76.0,192,188,0.0,68.0
793,78.0,192,188,0.0,60.0
794,80.0,192,188,0.0,70.0
795,64.0,0,1148,0.0,55.0
796,61.0,0,1148,0.0,55.0
797,81.0,192,188,0.0,67.0
798,80.0,0,188,0.0,67.0
799,78.0,192,188,0.0,60.0
800,76.0,192,188,0.0,56.0
801,74.0,192,188,0.0,43.0
802,73.0,192,188,0.0,57.0
803,62.0,192,1148,0.0,42.0
804,59.0,0,1148,0.0,45.0
805,57.0,0,2300,0.0,61.0
806,71.0,192,188,0.0,46.0
807,74.0,0,188,0.0,48.0
808,76.0,192,188,0.0,65.0
809,78.0,192,188,0.0,62.0
810,80.0,192,188,0.0,53.0
811,81.0,192,188,0.0,49.0
812,62.0,192,1148,0.0,64.0
813,68.0,0,1148,0.0,54.0
814,83.0,192,188,0.0,61.0
815,81.0,0,188,0.0,52.0
816,79.0,192,188,0.0,62.0
817,78.0,192,188,0.0,60.0
818,76.0,192,188,0.0,48.0
819,74.0,192,188,0.0,54.0
820,57.0,0,2300,0.0,54.0
821,61.0,192,1148,0.0,62.0
822,64.0,0,1148,0.0,55.0
823,73.0,192,188,0.0,49.0
824,76.0,0,188,0.0,70.0
825,79.0,192,188,0.0,69.0
826,85.0,192,188,0.0,84.0
827,79.0,192,188,0.0,71.0
828,88.0,192,188,0.0,81.0
829,85.0,192,188,0.0,73.0
830,57.0,0,1148,0.0,47.0
831,61.0,0,1148,0.0,53.0
832,64.0,0,1148,0.0,49.0
833,67.0,192,1148,0.0,63.0
834,88.0,0,188,0.0,76.0
835,85.0,192,188,0.0,65.0
836,88.0,192,188,0.0,85.0
837,85.0,192,188,0.0,77.0
838,88.0,192,188,0.0,78.0
839,85.0,192,188,0.0,74.0
840,64.0,192,1148,0.0,67.0
841,61.0,0,1148,0.0,68.0
842,67.0,0,1148,0.0,79.0
843,58.0,0,1148,0.0,69.0
844,88.0,192,188,0.0,83.0
845,85.0,192,188,0.0,71.0
846,81.0,192,188,0.0,71.0
847,83.0,192,188,0.0,82.0
848,61.0,0,764,0.0,67.0
849,57.0,0,764,0.0,70.0
850,64.0,0,764,0.0,66.0
851,67.0,0,764,0.0,76.0
852,85.0,192,188,0.0,83.0
853,55.0,0,380,0.0,62.0
854,61.0,0,380,0.0,62.0
855,64.0,0,380,0.0,63.0
856,81.0,192,188,0.0,72.0
857,86.0,192,188,0.0,82.0
858,81.0,192,188,0.0,73.0
859,86.0,192,188,0.0,82.0
860,81.0,192,188,0.0,78.0
861,57.0,0,764,0.0,44.0
862,62.0,0,764,0.0,42.0
863,54.0,0,764,0.0,43.0
864,78.0,0,188,0.0,63.0
865,62.0,192,380,0.0,43.0
866,57.0,0,380,0.0,44.0
867,50.0,0,380,0.0,41.0
868,74.0,192,188,0.0,59.0
869,76.0,192,188,0.0,70.0
870,79.0,192,188,0.0,72.0
871,85.0,192,188,0.0,74.0
872,79.0,192,188,0.0,70.0
873,88.0,192,188,0.0,68.0
874,61.0,0,1148,0.0,49.0
875,64.0,0,1148,0.0,45.0
876,67.0,0,1148,0.0,64.0
877,57.0,0,1148,0.0,51.0
878,85.0,192,188,0.0,70.0
879,88.0,192,188,0.0,85.0
880,85.0,192,188,0.0,80.0
881,88.0,192,188,0.0,88.0
882,85.0,192,188,0.0,84.0
883,88.0,192,188,0.0,82.0
884,85.0,192,188,0.0,80.0
885,61.0,0,1148,0.0,67.0
886,64.0,0,1148,0.0,70.0
887,67.0,0,1148,0.0,80.0
888,58.0,0,1148,0.0,73.0
889,88.0,0,188,0.0,79.0
890,85.0,192,188,0.0,76.0
891,81.0,192,188,0.0,74.0
892,83.0,192,188,0.0,83.0
893,64.0,0,764,0.0,67.0
894,67.0,0,764,0.0,80.0
895,61.0,0,764,0.0,69.0
896,57.0,192,764,0.0,74.0
897,85.0,0,188,0.0,82.0
898,64.0,192,380,0.0,59.0
899,61.0,0,380,0.0,61.0
900,55.0,0,380,0.0,63.0
901,81.0,192,188,0.0,73.0
902,86.0,0,188,0.0,74.0
903,81.0,192,188,0.0,66.0
904,86.0,192,188,0.0,83.0
905,81.0,192,188,0.0,69.0
906,62.0,192,764,0.0,67.0
907,57.0,0,764,0.0,56.0
908,54.0,0,764,0.0,56.0
909,78.0,192,188,0.0,67.0
910,74.0,192,188,0.0,71.0
911,50.0,0,380,0.0,52.0
912,62.0,0,380,0.0,60.0
913,57.0,0,380,0.0,59.0
914,83.0,0,188,0.0,66.0
915,62.0,192,380,0.0,46.0
916,59.0,0,380,0.0,60.0
917,55.0,0,380,0.0,55.0
918,79.0,192,188,0.0,58.0
919,83.0,192,188,0.0,62.0
920,79.0,192,188,0.0,61.0
921,74.0,0,188,0.0,62.0
922,64.0,192,380,0.0,47.0
923,59.0,0,380,0.0,57.0
924,55.0,0,380,0.0,44.0
925,71.0,192,188,0.0,44.0
926,62.0,0,380,0.0,60.0
927,57.0,0,380,0.0,52.0
928,66.0,192,380,0.0,56.0
929,69.0,0,764,0.0,63.0
930,76.0,0,92,0.0,84.0
931,74.0,96,92,0.0,63.0
932,76.0,96,92,0.0,82.0
933,74.0,96,44,0.0,78.0
934,76.0,48,44,0.0,80.0
935,57.0,0,380,0.0,51.0
936,67.0,768,380,0.0,65.0
937,61.0,0,380,0.0,60.0
938,74.0,48,124,0.0,96.0
939,50.0,0,188,0.0,80.0
940,54.0,0,188,0.0,78.0
941,57.0,192,188,0.0,74.0
942,81.0,0,124,0.0,81.0
943,69.0,0,124,0.0,75.0
944,50.0,192,188,0.0,77.0
945,54.0,0,188,0.0,75.0
946,57.0,192,188,0.0,65.0
947,74.0,0,124,0.0,85.0
948,62.0,0,124,0.0,76.0
949,50.0,192,188,0.0,75.0
950,54.0,0,188,0.0,80.0
951,57.0,192,188,0.0,75.0
952,50.0,192,188,0.0,74.0
953,52.0,0,188,0.0,70.0
954,55.0,0,188,0.0,69.0
955,57.0,192,188,0.0,74.0
956,79.0,192,124,0.0,78.0
957,67.0,0,124,0.0,82.0
958,52.0,0,188,0.0,70.0
959,55.0,0,188,0.0,75.0
960,50.0,0,188,0.0,70.0
961,57.0,192,188,0.0,81.0
962,73.0,0,124,0.0,86.0
963,61.0,192,124,0.0,79.0
964,50.0,0,188,0.0,70.0
965,55.0,0,188,0.0,71.0
966,52.0,0,188,0.0,66.0
967,57.0,192,188,0.0,82.0
968,74.0,576,124,0.0,80.0
969,50.0,0,124,0.0,65.0
970,62.0,0,124,0.0,64.0
971,47.0,0,124,0.0,54.0
972,71.0,0,124,0.0,60.0
973,59.0,384,124,0.0,41.0
974,72.0,768,124,0.0,65.0
975,48.0,0,124,0.0,54.0
976,60.0,0,124,0.0,58.0
977,45.0,384,124,0.0,59.0
978,69.0,0,124,0.0,64.0
979,57.0,0,124,0.0,43.0
980,83.0,768,124,0.0,87.0
981,71.0,0,124,0.0,75.0
982,47.0,0,124,0.0,85.0
983,59.0,0,124,0.0,85.0
984,44.0,384,124,0.0,85.0
985,56.0,0,124,0.0,83.0
986,68.0,0,124,0.0,89.0
987,80.0,0,124,0.0,93.0
988,45.0,768,124,0.0,85.0
989,57.0,0,124,0.0,81.0
990,81.0,0,124,0.0,85.0
991,69.0,0,124,0.0,82.0
992,78.0,384,124,0.0,90.0
993,66.0,0,124,0.0,92.0
994,54.0,0,124,0.0,80.0
995,42.0,0,124,0.0,84.0
996,64.0,0,124,0.0,80.0
997,76.0,0,124,0.0,87.0
998,56.0,384,188,0.0,83.0
999,52.0,0,188,0.0,78.0
1000,59.0,192,188,0.0,70.0
1001,80.0,0,124,0.0,95.0
1002,68.0,0,124,0.0,87.0
1003,56.0,192,188,0.0,81.0
1004,52.0,0,188,0.0,76.0
1005,59.0,192,188,0.0,77.0
1006,64.0,192,124,0.0,83.0
1007,76.0,0,124,0.0,92.0
1008,56.0,0,188,0.0,76.0
1009,52.0,0,188,0.0,82.0
1010,59.0,192,188,0.0,64.0
1011,56.0,192,188,0.0,71.0
1012,52.0,0,188,0.0,74.0
1013,59.0,192,188,0.0,63.0
1014,52.0,0,188,0.0,64.0
1015,56.0,192,188,0.0,65.0
1016,83.0,0,764,0.0,100.0
1017,71.0,0,764,0.0,93.0
1018,59.0,192,188,0.0,65.0
1019,52.0,0,188,0.0,64.0
1020,56.0,192,188,0.0,75.0
1021,81.0,0,188,0.0,62.0
1022,80.0,192,188,0.0,53.0
1023,59.0,0,188,0.0,64.0
1024,52.0,192,188,0.0,59.0
1025,56.0,0,188,0.0,60.0
1026,78.0,0,188,0.0,62.0
1027,59.0,0,188,0.0,56.0
1028,76.0,192,188,0.0,52.0
1029,52.0,0,188,0.0,42.0
1030,75.0,192,188,0.0,58.0
1031,56.0,0,188,0.0,51.0
1032,76.0,192,188,0.0,55.0
1033,59.0,0,188,0.0,62.0
1034,80.0,192,188,0.0,69.0
1035,56.0,0,188,0.0,50.0
1036,52.0,0,188,0.0,51.0
1037,59.0,0,188,0.0,51.0
1038,76.0,192,188,0.0,76.0
1039,57.0,192,188,0.0,64.0
1040,52.0,0,188,0.0,53.0
1041,61.0,192,188,0.0,57.0
1042,75.0,0,380,0.0,73.0
1043,57.0,0,188,0.0,60.0
1044,52.0,0,188,0.0,60.0
1045,73.0,192,380,0.0,62.0
1046,61.0,192,188,0.0,55.0
1047,71.0,0,188,0.0,41.0
1048,57.0,192,188,0.0,61.0
1049,52.0,0,188,0.0,62.0
1050,61.0,0,188,0.0,62.0
1051,69.0,192,188,0.0,55.0
1052,52.0,0,188,0.0,60.0
1053,57.0,192,188,0.0,54.0
1054,68.0,0,188,0.0,58.0
1055,61.0,0,188,0.0,51.0
1056,66.0,192,188,0.0,57.0
1057,52.0,0,188,0.0,54.0
1058,65.0,192,188,0.0,53.0
1059,57.0,0,188,0.0,64.0
1060,66.0,0,188,0.0,57.0
1061,61.0,192,188,0.0,50.0
1062,69.0,0,188,0.0,64.0
1063,57.0,0,188,0.0,51.0
1064,52.0,192,188,0.0,49.0
1065,61.0,0,188,0.0,58.0
1066,66.0,192,188,0.0,63.0
1067,54.0,0,188,0.0,58.0
1068,52.0,0,188,0.0,58.0
1069,57.0,0,188,0.0,58.0
1070,59.0,192,188,0.0,39.0
1071,54.0,0,188,0.0,58.0
1072,52.0,0,188,0.0,58.0
1073,57.0,192,188,0.0,63.0
1074,63.0,192,764,0.0,56.0
1075,59.0,192,188,0.0,35.0
1076,66.0,0,124,0.0,64.0
1077,54.0,0,188,0.0,44.0
1078,52.0,0,188,0.0,55.0
1079,57.0,192,188,0.0,46.0
1080,59.0,192,188,0.0,52.0
1081,69.0,192,124,0.0,70.0
1082,52.0,0,188,0.0,66.0
1083,54.0,0,188,0.0,58.0
1084,57.0,0,188,0.0,51.0
1085,59.0,192,188,0.0,48.0
1086,66.0,0,124,0.0,65.0
1087,52.0,0,188,0.0,60.0
1088,54.0,192,188,0.0,64.0
1089,57.0,0,188,0.0,63.0
1090,59.0,192,188,0.0,54.0
1091,63.0,0,124,0.0,64.0
1092,52.0,192,188,0.0,52.0
1093,57.0,0,188,0.0,56.0
1094,54.0,0,188,0.0,56.0
1095,59.0,192,188,0.0,52.0
1096,64.0,192,188,0.0,61.0
1097,52.0,0,380,0.0,44.0
1098,59.0,192,188,0.0,51.0
1099,71.0,192,124,0.0,96.0
1100,68.0,0,188,0.0,51.0
1101,59.0,192,188,0.0,49.0
1102,68.0,0,124,0.0,57.0
1103,64.0,192,188,0.0,59.0
1104,59.0,192,188,0.0,53.0
1105,64.0,192,188,0.0,61.0
1106,59.0,192,188,0.0,45.0
1107,52.0,0,380,0.0,64.0
1108,71.0,192,124,0.0,92.0
1109,68.0,0,188,0.0,59.0
1110,59.0,192,188,0.0,46.0
1111,68.0,0,124,0.0,67.0
1112,64.0,192,188,0.0,70.0
1113,59.0,192,188,0.0,42.0
1114,64.0,0,188,0.0,66.0
1115,52.0,192,380,0.0,56.0
1116,59.0,192,188,0.0,57.0
1117,71.0,192,124,0.0,78.0
1118,68.0,0,188,0.0,65.0
1119,59.0,192,188,0.0,44.0
1120,68.0,192,124,0.0,45.0
1121,64.0,0,188,0.0,69.0
1122,59.0,192,188,0.0,44.0
1123,63.0,192,188,0.0,71.0
1124,47.0,0,380,0.0,61.0
1125,59.0,192,188,0.0,50.0
1126,69.0,192,124,0.0,82.0
1127,66.0,0,188,0.0,69.0
1128,59.0,192,188,0.0,47.0
1129,66.0,0,124,0.0,53.0
1130,63.0,192,188,0.0,56.0
1131,59.0,192,188,0.0,43.0
1132,63.0,0,188,0.0,58.0
1133,59.0,192,188,0.0,38.0
1134,47.0,192,380,0.0,68.0
1135,66.0,192,188,0.0,75.0
1136,59.0,192,188,0.0,49.0
1137,69.0,0,380,0.0,84.0
1138,63.0,0,188,0.0,62.0
1139,59.0,192,188,0.0,49.0
1140,66.0,192,380,0.0,83.0
1141,63.0,192,188,0.0,56.0
1142,59.0,192,188,0.0,55.0
1143,47.0,0,380,0.0,73.0
1144,66.0,192,188,0.0,67.0
1145,69.0,0,380,0.0,83.0
1146,59.0,192,188,0.0,38.0
1147,63.0,0,188,0.0,56.0
1148,66.0,192,380,0.0,58.0
1149,59.0,192,188,0.0,34.0
1150,63.0,192,188,0.0,61.0
1151,59.0,192,188,0.0,53.0
1152,47.0,0,380,0.0,62.0
1153,66.0,192,188,0.0,70.0
1154,59.0,192,188,0.0,46.0
1155,69.0,0,380,0.0,84.0
1156,63.0,192,188,0.0,60.0
1157,66.0,0,380,0.0,56.0
1158,59.0,192,188,0.0,38.0
1159,64.0,192,188,0.0,54.0
1160,59.0,192,188,0.0,30.0
1161,52.0,0,380,0.0,56.0
1162,64.0,192,188,0.0,44.0
1163,59.0,192,188,0.0,31.0
1164,67.0,0,380,0.0,73.0
1165,64.0,0,124,0.0,51.0
1166,67.0,0,380,0.0,73.0
1167,59.0,192,188,0.0,41.0
1168,60.0,0,188,0.0,49.0
1169,55.0,192,188,0.0,54.0
1170,48.0,192,380,0.0,66.0
1171,67.0,0,124,0.0,66.0
1172,64.0,192,188,0.0,66.0
1173,55.0,192,188,0.0,48.0
1174,64.0,192,124,0.0,61.0
1175,60.0,0,188,0.0,64.0
1176,55.0,192,188,0.0,53.0
1177,60.0,192,188,0.0,60.0
1178,48.0,0,380,0.0,51.0
1179,55.0,192,188,0.0,52.0
1180,64.0,192,188,0.0,64.0
1181,55.0,192,188,0.0,46.0
1182,67.0,0,380,0.0,42.0
1183,60.0,192,188,0.0,63.0
1184,64.0,0,380,0.0,52.0
1185,55.0,192,188,0.0,54.0
1186,60.0,192,188,0.0,71.0
1187,48.0,0,380,0.0,68.0
1188,55.0,192,188,0.0,62.0
1189,64.0,0,188,0.0,68.0
1190,67.0,192,380,0.0,63.0
1191,55.0,192,188,0.0,51.0
1192,60.0,192,188,0.0,61.0
1193,55.0,192,188,0.0,56.0
1194,64.0,0,380,0.0,57.0
1195,59.0,0,188,0.0,58.0
1196,43.0,192,380,0.0,66.0
1197,55.0,192,188,0.0,54.0
1198,62.0,0,188,0.0,69.0
1199,65.0,192,380,0.0,63.0
1200,55.0,192,188,0.0,50.0
1201,59.0,0,188,0.0,63.0
1202,55.0,192,188,0.0,53.0
1203,62.0,192,380,0.0,52.0
1204,59.0,0,188,0.0,62.0
1205,43.0,192,380,0.0,53.0
1206,55.0,192,188,0.0,55.0
1207,62.0,0,188,0.0,64.0
1208,65.0,192,380,0.0,60.0
1209,55.0,192,188,0.0,59.0
1210,59.0,192,188,0.0,63.0
1211,62.0,0,380,0.0,53.0
1212,55.0,192,188,0.0,54.0
1213,59.0,192,188,0.0,64.0
1214,43.0,0,380,0.0,59.0
1215,55.0,192,188,0.0,62.0
1216,62.0,0,188,0.0,69.0
1217,65.0,192,380,0.0,56.0
1218,55.0,192,188,0.0,63.0
1219,59.0,192,188,0.0,64.0
1220,55.0,192,188,0.0,52.0
1221,62.0,0,380,0.0,60.0
1222,59.0,0,188,0.0,63.0
1223,55.0,192,188,0.0,46.0
1224,43.0,192,380,0.0,58.0
1225,62.0,192,188,0.0,72.0
1226,65.0,0,380,0.0,59.0
1227,55.0,192,188,0.0,63.0
1228,59.0,0,188,0.0,62.0
1229,62.0,192,380,0.0,51.0
1230,55.0,192,188,0.0,61.0
1231,60.0,192,188,0.0,67.0
1232,55.0,192,188,0.0,58.0
1233,48.0,0,380,0.0,71.0
1234,60.0,192,188,0.0,70.0
1235,55.0,192,188,0.0,61.0
1236,64.0,0,380,0.0,53.0
1237,60.0,0,188,0.0,72.0
1238,64.0,192,380,0.0,59.0
1239,55.0,192,188,0.0,65.0
1240,60.0,192,188,0.0,89.0
1241,55.0,192,188,0.0,82.0
1242,54.0,192,188,0.0,85.0
1243,55.0,192,188,0.0,78.0
1244,59.0,192,188,0.0,85.0
1245,60.0,192,188,0.0,87.0
1246,36.0,0,1148,0.0,82.0
1247,48.0,0,1148,0.0,85.0
1248,43.0,0,1148,0.0,79.0
1249,62.0,0,188,0.0,88.0
1250,55.0,192,188,0.0,83.0
1251,54.0,192,188,0.0,81.0
1252,55.0,192,188,0.0,80.0
1253,60.0,192,188,0.0,90.0
1254,35.0,192,1148,0.0,80.0
1255,43.0,0,1148,0.0,70.0
1256,47.0,0,1148,0.0,74.0
1257,62.0,192,188,0.0,87.0
1258,64.0,0,188,0.0,86.0
1259,60.0,192,188,0.0,78.0
1260,59.0,192,188,0.0,78.0
1261,43.0,192,764,0.0,70.0
1262,48.0,0,764,0.0,72.0
1263,36.0,0,764,0.0,62.0
1264,60.0,192,188,0.0,84.0
1265,45.0,192,188,0.0,64.0
1266,65.0,0,188,0.0,82.0
1267,67.0,192,188,0.0,83.0
1268,40.0,0,188,0.0,59.0
1269,41.0,192,124,0.0,68.0
1270,69.0,0,188,0.0,84.0
1271,67.0,192,188,0.0,85.0
1272,41.0,0,124,0.0,77.0
1273,65.0,192,188,0.0,77.0
1274,64.0,192,188,0.0,81.0
1275,42.0,192,124,0.0,67.0
1276,62.0,0,188,0.0,73.0
1277,60.0,192,188,0.0,82.0
1278,43.0,192,380,0.0,71.0
1279,59.0,0,380,0.0,68.0
1280,77.0,0,188,0.0,53.0
1281,62.0,768,188,0.0,34.0
1282,79.0,0,188,0.0,54.0
1283,64.0,192,188,0.0,54.0
1284,65.0,192,124,0.0,55.0
1285,81.0,0,188,0.0,40.0
1286,79.0,192,188,0.0,57.0
1287,65.0,192,124,0.0,58.0
1288,77.0,0,188,0.0,55.0
1289,76.0,192,188,0.0,58.0
1290,66.0,0,124,0.0,56.0
1291,74.0,192,188,0.0,53.0
1292,72.0,192,188,0.0,40.0
1293,71.0,192,380,0.0,58.0
1294,67.0,0,380,0.0,68.0
1295,53.0,0,188,0.0,48.0
1296,65.0,768,188,0.0,44.0
1297,67.0,0,188,0.0,56.0
1298,55.0,192,188,0.0,39.0
1299,56.0,192,188,0.0,46.0
1300,68.0,0,188,0.0,55.0
1301,67.0,192,188,0.0,57.0
1302,55.0,0,188,0.0,56.0
1303,53.0,192,188,0.0,41.0
1304,65.0,0,188,0.0,53.0
1305,51.0,0,188,0.0,54.0
1306,63.0,192,188,0.0,64.0
1307,62.0,0,188,0.0,66.0
1308,50.0,192,188,0.0,47.0
1309,67.0,192,188,0.0,79.0
1310,55.0,0,188,0.0,67.0
1311,60.0,192,188,0.0,76.0
1312,48.0,0,380,0.0,89.0
1313,55.0,192,188,0.0,70.0
1314,67.0,0,124,0.0,109.0
1315,63.0,192,188,0.0,87.0
1316,55.0,192,188,0.0,71.0
1317,63.0,192,124,0.0,82.0
1318,60.0,0,188,0.0,83.0
1319,55.0,192,188,0.0,78.0
1320,60.0,0,188,0.0,80.0
1321,48.0,192,380,0.0,66.0
1322,55.0,192,188,0.0,73.0
1323,67.0,192,124,0.0,100.0
1324,63.0,0,188,0.0,87.0
1325,55.0,192,188,0.0,72.0
1326,63.0,192,124,0.0,77.0
1327,60.0,0,188,0.0,81.0
1328,55.0,192,188,0.0,66.0
1329,60.0,192,188,0.0,84.0
1330,48.0,0,380,0.0,82.0
1331,55.0,192,188,0.0,69.0
1332,63.0,192,188,0.0,76.0
1333,55.0,192,188,0.0,65.0
1334,67.0,0,380,0.0,88.0
1335,60.0,192,188,0.0,81.0
1336,63.0,0,380,0.0,78.0
1337,55.0,192,188,0.0,64.0
1338,59.0,0,188,0.0,75.0
1339,55.0,192,188,0.0,70.0
1340,43.0,192,380,0.0,62.0
1341,62.0,192,188,0.0,80.0
1342,55.0,192,188,0.0,66.0
1343,65.0,0,380,0.0,75.0
1344,59.0,192,188,0.0,74.0
1345,55.0,192,188,0.0,71.0
1346,62.0,0,380,0.0,76.0
1347,59.0,0,188,0.0,79.0
1348,43.0,192,380,0.0,77.0
1349,55.0,192,188,0.0,73.0
1350,62.0,192,188,0.0,81.0
1351,55.0,192,188,0.0,67.0
1352,65.0,0,380,0.0,76.0
1353,59.0,192,188,0.0,74.0
1354,62.0,0,380,0.0,67.0
1355,55.0,192,188,0.0,66.0
1356,59.0,0,188,0.0,80.0
1357,43.0,192,380,0.0,81.0
1358,55.0,192,188,0.0,62.0
1359,62.0,192,188,0.0,74.0
1360,65.0,0,380,0.0,85.0
1361,55.0,192,188,0.0,69.0
1362,59.0,0,188,0.0,70.0
1363,55.0,192,188,0.0,68.0
1364,62.0,192,380,0.0,78.0
1365,59.0,192,188,0.0,82.0
1366,55.0,192,188,0.0,76.0
1367,43.0,0,380,0.0,67.0
1368,62.0,0,188,0.0,88.0
1369,55.0,192,188,0.0,71.0
1370,65.0,192,380,0.0,96.0
1371,59.0,0,188,0.0,75.0
1372,55.0,192,188,0.0,83.0
1373,62.0,192,380,0.0,64.0
1374,60.0,0,188,0.0,52.0
1375,48.0,192,380,0.0,69.0
1376,55.0,192,188,0.0,37.0
1377,60.0,0,188,0.0,55.0
1378,63.0,192,380,0.0,65.0
1379,55.0,192,188,0.0,51.0
1380,62.0,0,188,0.0,55.0
1381,65.0,192,380,0.0,63.0
1382,58.0,192,188,0.0,61.0
1383,63.0,192,188,0.0,62.0
1384,51.0,0,380,0.0,67.0
1385,58.0,192,188,0.0,53.0
1386,70.0,0,124,0.0,64.0
1387,67.0,192,188,0.0,71.0
1388,58.0,192,188,0.0,47.0
1389,67.0,0,124,0.0,69.0
1390,63.0,192,188,0.0,61.0
1391,58.0,192,188,0.0,29.0
1392,63.0,192,188,0.0,64.0
1393,58.0,192,188,0.0,38.0
1394,51.0,0,380,0.0,56.0
1395,70.0,192,124,0.0,58.0
1396,67.0,0,188,0.0,68.0
1397,58.0,192,188,0.0,61.0
1398,67.0,0,124,0.0,58.0
1399,63.0,192,188,0.0,62.0
1400,58.0,192,188,0.0,48.0
1401,63.0,192,188,0.0,61.0
1402,58.0,192,188,0.0,57.0
1403,51.0,0,380,0.0,55.0
1404,67.0,192,188,0.0,67.0
1405,70.0,0,380,0.0,49.0
1406,58.0,192,188,0.0,49.0
1407,63.0,0,188,0.0,65.0
1408,67.0,192,380,0.0,53.0
1409,58.0,192,188,0.0,48.0
1410,62.0,192,188,0.0,51.0
1411,58.0,192,188,0.0,56.0
1412,46.0,0,380,0.0,62.0
1413,65.0,192,188,0.0,60.0
1414,58.0,192,188,0.0,53.0
1415,68.0,0,380,0.0,62.0
1416,62.0,0,188,0.0,60.0
1417,58.0,192,188,0.0,52.0
1418,65.0,192,380,0.0,58.0
1419,62.0,0,188,0.0,64.0
1420,58.0,192,188,0.0,51.0
1421,46.0,192,380,0.0,57.0
1422,65.0,192,188,0.0,68.0
1423,68.0,0,380,0.0,54.0
1424,58.0,192,188,0.0,46.0
1425,62.0,192,188,0.0,66.0
1426,65.0,0,380,0.0,60.0
1427,58.0,192,188,0.0,48.0
1428,62.0,192,188,0.0,54.0
1429,46.0,0,380,0.0,61.0
1430,58.0,192,188,0.0,45.0
1431,65.0,192,188,0.0,68.0
1432,58.0,192,188,0.0,46.0
1433,68.0,0,380,0.0,54.0
1434,62.0,0,188,0.0,55.0
1435,58.0,192,188,0.0,32.0
1436,65.0,192,380,0.0,66.0
1437,62.0,192,188,0.0,58.0
1438,58.0,192,188,0.0,38.0
1439,46.0,0,380,0.0,60.0
1440,65.0,192,188,0.0,60.0
1441,68.0,0,380,0.0,61.0
1442,58.0,192,188,0.0,42.0
1443,62.0,0,188,0.0,60.0
1444,65.0,192,380,0.0,55.0
1445,58.0,192,188,0.0,43.0
1446,63.0,192,188,0.0,61.0
1447,51.0,0,380,0.0,56.0
1448,58.0,192,188,0.0,55.0
1449,63.0,0,188,0.0,61.0
1450,58.0,192,188,0.0,55.0
1451,67.0,192,380,0.0,58.0
1452,63.0,0,188,0.0,56.0
1453,58.0,192,188,0.0,61.0
1454,67.0,192,380,0.0,68.0
1455,63.0,0,188,0.0,90.0
1456,58.0,192,188,0.0,77.0
1457,57.0,192,188,0.0,84.0
1458,58.0,192,188,0.0,81.0
1459,62.0,192,188,0.0,80.0
1460,63.0,192,188,0.0,85.0
1461,46.0,0,1148,0.0,83.0
1462,51.0,192,1148,0.0,76.0
1463,39.0,0,1148,0.0,83.0
1464,65.0,192,188,0.0,86.0
1465,58.0,192,188,0.0,80.0
1466,57.0,192,188,0.0,81.0
1467,58.0,192,188,0.0,64.0
1468,63.0,192,188,0.0,85.0
1469,65.0,192,188,0.0,90.0
1470,46.0,0,1148,0.0,76.0
1471,50.0,0,1148,0.0,86.0
1472,38.0,0,1148,0.0,83.0
1473,67.0,192,188,0.0,88.0
1474,63.0,192,188,0.0,80.0
1475,62.0,192,188,0.0,68.0
1476,39.0,0,764,0.0,85.0
1477,46.0,0,764,0.0,75.0
1478,63.0,192,188,0.0,69.0
1479,51.0,0,764,0.0,85.0
1480,68.0,192,188,0.0,77.0
1481,48.0,0,188,0.0,76.0
1482,70.0,192,188,0.0,72.0
1483,43.0,0,188,0.0,71.0
1484,44.0,0,124,0.0,77.0
1485,72.0,192,188,0.0,81.0
1486,70.0,192,188,0.0,76.0
1487,44.0,0,124,0.0,80.0
1488,68.0,192,188,0.0,81.0
1489,67.0,192,188,0.0,59.0
1490,45.0,192,124,0.0,88.0
1491,65.0,0,188,0.0,74.0
1492,63.0,192,188,0.0,71.0
1493,46.0,0,380,0.0,46.0
1494,62.0,192,380,0.0,68.0
1495,72.0,768,188,0.0,46.0
1496,80.0,0,188,0.0,68.0
1497,70.0,192,188,0.0,61.0
1498,82.0,0,188,0.0,59.0
1499,68.0,0,124,0.0,54.0
1500,84.0,192,188,0.0,68.0
1501,82.0,192,188,0.0,61.0
1502,68.0,0,124,0.0,62.0
1503,80.0,192,188,0.0,64.0
1504,79.0,192,188,0.0,59.0
1505,69.0,192,124,0.0,59.0
1506,77.0,0,188,0.0,65.0
1507,75.0,192,188,0.0,56.0
1508,70.0,192,380,0.0,55.0
1509,74.0,0,380,0.0,65.0
1510,60.0,768,188,0.0,84.0
1511,48.0,0,188,0.0,86.0
1512,62.0,0,188,0.0,88.0
1513,50.0,192,188,0.0,68.0
1514,63.0,192,188,0.0,85.0
1515,51.0,0,188,0.0,79.0
1516,62.0,192,188,0.0,86.0
1517,50.0,0,188,0.0,74.0
1518,48.0,192,188,0.0,78.0
1519,60.0,0,188,0.0,85.0
1520,46.0,0,188,0.0,77.0
1521,58.0,192,188,0.0,74.0
1522,57.0,0,188,0.0,84.0
1523,45.0,192,188,0.0,66.0
1524,43.0,192,188,0.0,66.0
1525,55.0,0,188,0.0,86.0
1526,42.0,192,380,0.0,74.0
1527,54.0,0,380,0.0,82.0
1528,72.0,768,188,0.0,58.0
1529,84.0,0,188,0.0,68.0
1530,86.0,192,188,0.0,61.0
1531,74.0,0,188,0.0,58.0
1532,87.0,192,188,0.0,57.0
1533,75.0,0,188,0.0,53.0
1534,74.0,0,188,0.0,56.0
1535,86.0,192,188,0.0,60.0
1536,72.0,0,188,0.0,62.0
1537,84.0,192,188,0.0,63.0
1538,70.0,192,188,0.0,55.0
1539,82.0,0,188,0.0,60.0
1540,69.0,192,188,0.0,49.0
1541,81.0,0,188,0.0,60.0
1542,67.0,192,188,0.0,53.0
1543,79.0,0,188,0.0,65.0
1544,78.0,0,188,0.0,73.0
1545,66.0,192,188,0.0,42.0
1546,75.0,192,188,0.0,63.0
1547,63.0,0,188,0.0,54.0
1548,74.0,192,188,0.0,62.0
1549,62.0,0,188,0.0,52.0
1550,72.0,192,188,0.0,56.0
1551,60.0,0,188,0.0,53.0
1552,58.0,192,188,0.0,57.0
1553,70.0,0,188,0.0,58.0
1554,69.0,0,188,0.0,59.0
1555,57.0,192,188,0.0,38.0
1556,55.0,192,124,0.0,60.0
1557,67.0,0,188,0.0,64.0
1558,66.0,192,188,0.0,46.0
1559,51.0,192,124,0.0,64.0
1560,67.0,0,188,0.0,63.0
1561,69.0,192,188,0.0,62.0
1562,49.0,0,124,0.0,62.0
1563,70.0,192,188,0.0,60.0
1564,67.0,192,188,0.0,68.0
1565,65.0,192,380,0.0,55.0
1566,50.0,0,380,0.0,52.0
1567,69.0,384,124,0.0,68.0
1568,66.0,0,188,0.0,62.0
1569,57.0,192,188,0.0,59.0
1570,66.0,192,124,0.0,70.0
1571,62.0,0,188,0.0,63.0
1572,57.0,192,188,0.0,61.0
1573,62.0,0,188,0.0,67.0
1574,50.0,192,380,0.0,62.0
1575,57.0,192,188,0.0,58.0
1576,69.0,0,124,0.0,54.0
1577,66.0,192,188,0.0,69.0
1578,57.0,192,188,0.0,49.0
1579,66.0,0,124,0.0,54.0
1580,62.0,192,188,0.0,59.0
1581,57.0,192,188,0.0,47.0
1582,62.0,192,188,0.0,52.0
1583,50.0,0,380,0.0,63.0
1584,57.0,192,188,0.0,42.0
1585,69.0,192,124,0.0,48.0
1586,66.0,0,188,0.0,61.0
1587,57.0,192,188,0.0,43.0
1588,66.0,0,124,0.0,45.0
1589,62.0,192,188,0.0,54.0
1590,57.0,192,188,0.0,55.0
1591,61.0,0,188,0.0,63.0
1592,45.0,192,380,0.0,44.0
1593,57.0,192,188,0.0,40.0
1594,66.0,192,188,0.0,56.0
1595,67.0,0,380,0.0,55.0
1596,57.0,192,188,0.0,55.0
1597,61.0,192,188,0.0,58.0
1598,57.0,192,188,0.0,42.0
1599,64.0,0,380,0.0,55.0
1600,61.0,0,188,0.0,62.0
1601,57.0,192,188,0.0,37.0
1602,45.0,192,380,0.0,64.0
1603,66.0,192,188,0.0,57.0
1604,67.0,0,380,0.0,64.0
1605,57.0,192,188,0.0,52.0
1606,61.0,192,188,0.0,63.0
1607,57.0,192,188,0.0,44.0
1608,64.0,0,380,0.0,57.0
1609,61.0,192,188,0.0,68.0
1610,45.0,0,380,0.0,58.0
1611,57.0,192,188,0.0,52.0
1612,66.0,192,188,0.0,57.0
1613,67.0,0,380,0.0,54.0
1614,57.0,192,188,0.0,48.0
1615,61.0,192,188,0.0,50.0
1616,64.0,0,380,0.0,52.0
1617,57.0,192,188,0.0,41.0
1618,61.0,0,188,0.0,65.0
1619,57.0,192,188,0.0,48.0
1620,45.0,192,380,0.0,56.0
1621,66.0,192,188,0.0,60.0
1622,67.0,0,380,0.0,61.0
1623,57.0,192,188,0.0,54.0
1624,61.0,192,188,0.0,58.0
1625,57.0,192,188,0.0,52.0
1626,64.0,0,380,0.0,53.0
1627,62.0,0,188,0.0,66.0
1628,50.0,192,380,0.0,57.0
1629,57.0,192,188,0.0,61.0
1630,69.0,192,188,0.0,51.0
1631,66.0,0,380,0.0,43.0
1632,62.0,192,188,0.0,27.0
1633,69.0,192,188,0.0,53.0
1634,62.0,0,380,0.0,48.0
1635,66.0,192,188,0.0,49.0
1636,54.0,192,124,0.0,51.0
1637,69.0,0,188,0.0,52.0
1638,74.0,0,188,0.0,64.0
1639,62.0,192,188,0.0,47.0
1640,50.0,0,124,0.0,55.0
1641,74.0,0,188,0.0,64.0
1642,69.0,192,188,0.0,55.0
1643,62.0,192,188,0.0,47.0
1644,42.0,0,124,0.0,48.0
1645,69.0,192,188,0.0,55.0
1646,74.0,0,188,0.0,57.0
1647,62.0,192,188,0.0,58.0
1648,38.0,0,124,0.0,45.0
1649,69.0,192,188,0.0,50.0
1650,74.0,0,188,0.0,71.0
1651,62.0,192,188,0.0,50.0
1652,54.0,192,124,0.0,38.0
1653,74.0,0,188,0.0,71.0
1654,69.0,0,188,0.0,59.0
1655,62.0,192,188,0.0,53.0
1656,50.0,192,124,0.0,45.0
1657,74.0,0,188,0.0,67.0
1658,69.0,0,188,0.0,58.0
1659,62.0,192,188,0.0,59.0
1660,42.0,0,124,0.0,44.0
1661,72.0,0,188,0.0,63.0
1662,69.0,192,188,0.0,64.0
1663,62.0,192,188,0.0,62.0
1664,38.0,0,124,0.0,60.0
1665,72.0,192,188,0.0,62.0
1666,69.0,0,188,0.0,61.0
1667,62.0,192,188,0.0,62.0
1668,54.0,192,124,0.0,75.0
1669,69.0,0,188,0.0,66.0
1670,72.0,0,188,0.0,63.0
1671,62.0,192,188,0.0,67.0
1672,50.0,0,124,0.0,66.0
1673,72.0,0,188,0.0,67.0
1674,69.0,192,188,0.0,72.0
1675,62.0,192,188,0.0,74.0
1676,42.0,192,124,0.0,71.0
1677,72.0,0,188,0.0,76.0
1678,69.0,0,188,0.0,75.0
1679,62.0,192,188,0.0,79.0
1680,38.0,0,124,0.0,72.0
1681,69.0,0,188,0.0,80.0
1682,72.0,192,188,0.0,81.0
1683,62.0,192,188,0.0,82.0
1684,67.0,192,124,0.0,88.0
1685,79.0,0,124,0.0,88.0
1686,43.0,0,380,0.0,88.0
1687,83.0,0,124,0.0,102.0
1688,71.0,0,124,0.0,92.0
1689,59.0,384,188,0.0,62.0
1690,55.0,0,188,0.0,74.0
1691,62.0,192,188,0.0,88.0
1692,79.0,0,124,0.0,97.0
1693,67.0,192,124,0.0,97.0
1694,59.0,0,188,0.0,80.0
1695,55.0,0,188,0.0,82.0
1696,62.0,192,188,0.0,86.0
1697,59.0,0,188,0.0,74.0
1698,55.0,0,188,0.0,81.0
1699,62.0,192,188,0.0,75.0
1700,55.0,192,188,0.0,77.0
1701,59.0,0,188,0.0,70.0
1702,86.0,0,764,0.0,96.0
1703,74.0,192,764,0.0,94.0
1704,62.0,192,188,0.0,60.0
1705,84.0,192,188,0.0,88.0
1706,55.0,0,188,0.0,78.0
1707,59.0,0,188,0.0,75.0
1708,83.0,192,188,0.0,86.0
1709,62.0,0,188,0.0,79.0
1710,55.0,192,188,0.0,80.0
1711,59.0,0,188,0.0,76.0
1712,81.0,0,188,0.0,82.0
1713,62.0,192,188,0.0,76.0
1714,79.0,0,188,0.0,82.0
1715,55.0,0,188,0.0,81.0
1716,59.0,0,188,0.0,77.0
1717,78.0,192,188,0.0,82.0
1718,79.0,192,188,0.0,86.0
1719,62.0,0,188,0.0,75.0
1720,59.0,0,188,0.0,78.0
1721,55.0,192,188,0.0,77.0
1722,83.0,0,188,0.0,86.0
1723,62.0,192,188,0.0,74.0
1724,79.0,0,188,0.0,88.0
1725,60.0,0,188,0.0,77.0
1726,55.0,0,188,0.0,77.0
1727,64.0,192,188,0.0,72.0
1728,78.0,192,380,0.0,77.0
1729,55.0,0,188,0.0,75.0
1730,60.0,0,188,0.0,74.0
1731,64.0,192,188,0.0,68.0
1732,76.0,192,380,0.0,88.0
1733,74.0,0,188,0.0,87.0
1734,55.0,0,188,0.0,80.0
1735,60.0,192,188,0.0,81.0
1736,72.0,192,188,0.0,72.0
1737,64.0,0,188,0.0,63.0
1738,71.0,0,188,0.0,82.0
1739,55.0,192,188,0.0,84.0
1740,60.0,0,188,0.0,80.0
1741,64.0,192,188,0.0,72.0
1742,69.0,0,188,0.0,78.0
1743,55.0,192,188,0.0,82.0
1744,60.0,0,188,0.0,78.0
1745,68.0,0,188,0.0,84.0
1746,69.0,0,188,0.0,82.0
1747,64.0,192,188,0.0,68.0
1748,55.0,0,188,0.0,80.0
1749,60.0,192,188,0.0,78.0
1750,72.0,0,188,0.0,79.0
1751,64.0,192,188,0.0,66.0
1752,69.0,0,188,0.0,87.0
1753,57.0,0,188,0.0,74.0
1754,55.0,192,188,0.0,70.0
1755,60.0,0,188,0.0,70.0
1756,62.0,192,188,0.0,35.0
1757,55.0,0,188,0.0,81.0
1758,60.0,192,188,0.0,85.0
1759,57.0,0,188,0.0,78.0
1760,70.0,48,44,0.0,77.0
1761,69.0,48,44,0.0,74.0
1762,68.0,48,44,0.0,74.0
1763,62.0,192,188,0.0,76.0
1764,66.0,0,764,0.0,81.0
1765,57.0,0,188,0.0,72.0
1766,60.0,0,188,0.0,75.0
1767,55.0,0,188,0.0,77.0
1768,69.0,48,380,0.0,74.0
1769,62.0,192,188,0.0,78.0
1770,72.0,0,124,0.0,73.0
1771,55.0,0,188,0.0,78.0
1772,60.0,192,188,0.0,73.0
1773,57.0,0,188,0.0,68.0
1774,62.0,192,188,0.0,79.0
1775,69.0,0,124,0.0,78.0
1776,60.0,0,188,0.0,74.0
1777,55.0,192,188,0.0,72.0
1778,57.0,0,188,0.0,68.0
1779,62.0,192,188,0.0,80.0
1780,66.0,0,124,0.0,84.0
1781,60.0,0,188,0.0,75.0
1782,57.0,0,188,0.0,74.0
1783,55.0,192,188,0.0,67.0
1784,62.0,192,188,0.0,68.0
1785,67.0,0,188,0.0,94.0
1786,62.0,192,188,0.0,90.0
1787,61.0,192,188,0.0,92.0
1788,62.0,192,188,0.0,84.0
1789,66.0,192,188,0.0,89.0
1790,59.0,192,1148,0.0,76.0
1791,55.0,0,1148,0.0,83.0
1792,67.0,192,188,0.0,97.0
1793,69.0,0,188,0.0,87.0
1794,62.0,192,188,0.0,83.0
1795,61.0,192,188,0.0,88.0
1796,62.0,192,188,0.0,84.0
1797,67.0,192,188,0.0,92.0
1798,54.0,192,1148,0.0,85.0
1799,69.0,192,188,0.0,80.0
1800,57.0,0,1148,0.0,82.0
1801,71.0,192,188,0.0,82.0
1802,67.0,192,188,0.0,79.0
1803,66.0,192,188,0.0,84.0
1804,67.0,192,188,0.0,86.0
1805,69.0,192,188,0.0,86.0
1806,55.0,0,1148,0.0,93.0
1807,59.0,0,1148,0.0,76.0
1808,71.0,192,188,0.0,84.0
1809,72.0,0,188,0.0,81.0
1810,67.0,192,188,0.0,88.0
1811,66.0,192,188,0.0,82.0
1812,67.0,192,188,0.0,86.0
1813,71.0,192,188,0.0,82.0
1814,57.0,0,1148,0.0,86.0
1815,60.0,192,1148,0.0,80.0
1816,72.0,192,188,0.0,80.0
1817,47.0,192,188,0.0,66.0
1818,74.0,0,380,0.0,70.0
1819,50.0,192,188,0.0,59.0
1820,55.0,192,188,0.0,56.0
1821,62.0,192,188,0.0,43.0
1822,59.0,0,188,0.0,29.0
1823,67.0,192,188,0.0,65.0
1824,71.0,192,188,0.0,55.0
1825,74.0,192,188,0.0,42.0
1826,67.0,192,188,0.0,56.0
1827,71.0,192,188,0.0,64.0
1828,74.0,192,188,0.0,75.0
1829,79.0,192,188,0.0,66.0
1830,71.0,192,188,0.0,63.0
1831,74.0,192,188,0.0,62.0
1832,79.0,192,188,0.0,65.0
1833,83.0,192,188,0.0,77.0
1834,74.0,192,188,0.0,63.0
1835,79.0,192,188,0.0,70.0
1836,83.0,192,188,0.0,68.0
1837,86.0,192,188,0.0,74.0
1838,84.0,192,188,0.0,74.0
1839,83.0,192,188,0.0,68.0
1840,81.0,192,188,0.0,55.0
1841,79.0,192,188,0.0,68.0
1842,77.0,192,188,0.0,70.0
1843,48.0,192,188,0.0,55.0
1844,52.0,192,188,0.0,59.0
1845,76.0,0,380,0.0,66.0
1846,55.0,192,188,0.0,59.0
1847,60.0,192,188,0.0,53.0
1848,64.0,0,188,0.0,59.0
1849,67.0,192,188,0.0,70.0
1850,72.0,192,188,0.0,62.0
1851,76.0,192,188,0.0,79.0
1852,64.0,192,188,0.0,41.0
1853,67.0,192,188,0.0,65.0
1854,72.0,192,188,0.0,64.0
1855,76.0,192,188,0.0,73.0
1856,67.0,192,188,0.0,65.0
1857,72.0,192,188,0.0,60.0
1858,76.0,192,188,0.0,71.0
1859,79.0,192,188,0.0,69.0
1860,72.0,192,188,0.0,63.0
1861,76.0,192,188,0.0,75.0
1862,79.0,192,188,0.0,70.0
1863,84.0,192,188,0.0,70.0
1864,76.0,192,188,0.0,68.0
1865,79.0,192,188,0.0,65.0
1866,84.0,192,188,0.0,66.0
1867,88.0,192,188,0.0,68.0
1868,86.0,192,188,0.0,74.0
1869,45.0,192,188,0.0,70.0
1870,85.0,0,380,0.0,69.0
1871,49.0,192,188,0.0,64.0
1872,52.0,192,188,0.0,64.0
1873,61.0,192,188,0.0,75.0
1874,55.0,0,188,0.0,71.0
1875,64.0,192,188,0.0,69.0
1876,67.0,192,188,0.0,78.0
1877,73.0,192,188,0.0,79.0
1878,64.0,192,188,0.0,62.0
1879,67.0,192,188,0.0,73.0
1880,73.0,192,188,0.0,75.0
1881,76.0,192,188,0.0,72.0
1882,67.0,192,188,0.0,70.0
1883,73.0,192,188,0.0,71.0
1884,76.0,192,188,0.0,77.0
1885,79.0,192,188,0.0,75.0
1886,73.0,192,188,0.0,62.0
1887,76.0,192,188,0.0,74.0
1888,79.0,192,188,0.0,78.0
1889,85.0,192,188,0.0,78.0
1890,88.0,192,188,0.0,72.0
1891,81.0,0,188,0.0,62.0
1892,83.0,192,188,0.0,58.0
1893,64.0,192,380,0.0,68.0
1894,61.0,0,380,0.0,68.0
1895,81.0,0,188,0.0,63.0
1896,64.0,0,380,0.0,62.0
1897,83.0,192,188,0.0,66.0
1898,67.0,192,380,0.0,52.0
1899,66.0,0,188,0.0,64.0
1900,62.0,0,380,0.0,60.0
1901,67.0,192,188,0.0,53.0
1902,69.0,192,188,0.0,60.0
1903,71.0,192,188,0.0,63.0
1904,73.0,192,188,0.0,65.0
1905,74.0,192,188,0.0,77.0
1906,78.0,192,1148,0.0,62.0
1907,81.0,0,1148,0.0,63.0
1908,73.0,0,188,0.0,69.0
1909,71.0,192,188,0.0,54.0
1910,69.0,192,188,0.0,59.0
1911,67.0,192,188,0.0,70.0
1912,66.0,192,188,0.0,64.0
1913,79.0,0,1148,0.0,74.0
1914,64.0,192,188,0.0,59.0
1915,81.0,192,1148,0.0,69.0
1916,62.0,0,188,0.0,66.0
1917,60.0,192,188,0.0,76.0
1918,59.0,192,188,0.0,83.0
1919,57.0,192,188,0.0,85.0
1920,55.0,192,188,0.0,85.0
1921,81.0,0,1148,0.0,88.0
1922,54.0,192,188,0.0,85.0
1923,84.0,192,1148,0.0,100.0
1924,55.0,0,188,0.0,60.0
1925,57.0,192,188,0.0,51.0
1926,79.0,192,380,0.0,60.0
1927,83.0,0,380,0.0,59.0
1928,59.0,0,188,0.0,52.0
1929,83.0,0,380,0.0,62.0
1930,79.0,192,380,0.0,51.0
1931,61.0,192,188,0.0,61.0
1932,62.0,0,188,0.0,60.0
1933,83.0,192,380,0.0,56.0
1934,64.0,192,188,0.0,61.0
1935,79.0,0,380,0.0,51.0
1936,66.0,0,188,0.0,69.0
1937,67.0,192,188,0.0,60.0
1938,62.0,0,380,0.0,60.0
1939,69.0,192,188,0.0,55.0
1940,71.0,192,188,0.0,59.0
1941,73.0,192,188,0.0,70.0
1942,81.0,0,1148,0.0,46.0
1943,78.0,192,1148,0.0,56.0
1944,74.0,192,188,0.0,69.0
1945,73.0,192,188,0.0,56.0
1946,71.0,192,188,0.0,62.0
1947,69.0,192,188,0.0,59.0
1948,67.0,192,188,0.0,72.0
1949,66.0,192,188,0.0,67.0
1950,79.0,0,1148,0.0,66.0
1951,81.0,0,1148,0.0,61.0
1952,64.0,192,188,0.0,78.0
1953,62.0,0,188,0.0,88.0
1954,60.0,192,188,0.0,80.0
1955,59.0,192,188,0.0,70.0
1956,57.0,192,188,0.0,78.0
1957,55.0,192,188,0.0,82.0
1958,81.0,192,1148,0.0,81.0
1959,54.0,192,188,0.0,75.0
1960,84.0,0,1148,0.0,96.0
1961,55.0,0,188,0.0,63.0
1962,83.0,192,380,0.0,58.0
1963,79.0,0,380,0.0,54.0
1964,57.0,192,188,0.0,59.0
1965,59.0,0,188,0.0,64.0
1966,61.0,192,188,0.0,51.0
1967,83.0,0,380,0.0,62.0
1968,79.0,192,380,0.0,60.0
1969,62.0,0,188,0.0,52.0
1970,83.0,192,380,0.0,66.0
1971,79.0,0,380,0.0,59.0
1972,64.0,192,188,0.0,68.0
1973,78.0,192,188,0.0,61.0
1974,81.0,0,188,0.0,60.0
1975,79.0,192,188,0.0,59.0
1976,81.0,192,188,0.0,59.0
1977,83.0,192,188,0.0,66.0
1978,85.0,192,188,0.0,67.0
1979,86.0,192,188,0.0,64.0
1980,66.0,0,1148,0.0,47.0
1981,69.0,0,1148,0.0,60.0
1982,85.0,0,188,0.0,62.0
1983,83.0,192,188,0.0,54.0
1984,81.0,192,188,0.0,48.0
1985,79.0,192,188,0.0,54.0
1986,78.0,192,188,0.0,57.0
1987,62.0,0,2300,0.0,62.0
1988,67.0,0,1148,0.0,66.0
1989,64.0,192,1148,0.0,62.0
1990,76.0,192,188,0.0,66.0
1991,79.0,192,188,0.0,55.0
1992,81.0,192,188,0.0,60.0
1993,83.0,192,188,0.0,63.0
1994,85.0,192,188,0.0,69.0
1995,86.0,192,188,0.0,70.0
1996,88.0,192,188,0.0,70.0
1997,67.0,0,1148,0.0,69.0
1998,73.0,0,1148,0.0,65.0
1999,86.0,192,188,0.0,74.0
2000,84.0,192,188,0.0,80.0
2001,83.0,192,188,0.0,75.0
2002,81.0,192,188,0.0,66.0
2003,79.0,192,188,0.0,59.0
2004,62.0,0,2300,0.0,68.0
2005,66.0,0,1148,0.0,58.0
2006,69.0,0,1148,0.0,55.0
2007,78.0,192,188,0.0,54.0
2008,81.0,0,188,0.0,60.0
2009,84.0,192,188,0.0,72.0
2010,90.0,192,188,0.0,65.0
2011,84.0,192,188,0.0,78.0
2012,93.0,192,188,0.0,92.0
2013,90.0,192,188,0.0,83.0
2014,72.0,192,1148,0.0,60.0
2015,66.0,0,1148,0.0,59.0
2016,62.0,0,1148,0.0,53.0
2017,69.0,0,1148,0.0,60.0
2018,93.0,192,188,0.0,86.0
2019,90.0,192,188,0.0,84.0
2020,93.0,192,188,0.0,99.0
2021,90.0,192,188,0.0,88.0
2022,93.0,192,188,0.0,97.0
2023,63.0,0,1148,0.0,87.0
2024,72.0,0,1148,0.0,84.0
2025,69.0,0,1148,0.0,84.0
2026,66.0,0,1148,0.0,83.0
2027,90.0,192,188,0.0,84.0
2028,93.0,0,188,0.0,92.0
2029,90.0,192,188,0.0,84.0
2030,86.0,192,188,0.0,85.0
2031,72.0,0,764,0.0,82.0
2032,66.0,0,764,0.0,80.0
2033,62.0,0,764,0.0,88.0
2034,69.0,192,764,0.0,82.0
2035,88.0,192,188,0.0,88.0
2036,90.0,0,188,0.0,85.0
2037,60.0,0,380,0.0,76.0
2038,69.0,0,380,0.0,72.0
2039,66.0,192,380,0.0,55.0
2040,86.0,192,188,0.0,83.0
2041,91.0,0,188,0.0,85.0
2042,86.0,192,188,0.0,79.0
2043,91.0,192,188,0.0,77.0
2044,67.0,0,764,0.0,73.0
2045,62.0,0,764,0.0,68.0
2046,59.0,192,764,0.0,56.0
2047,86.0,192,188,0.0,69.0
2048,83.0,0,188,0.0,63.0
2049,79.0,192,188,0.0,62.0
2050,62.0,0,380,0.0,66.0
2051,67.0,0,380,0.0,70.0
2052,55.0,192,380,0.0,66.0
2053,81.0,0,188,0.0,62.0
2054,84.0,192,188,0.0,73.0
2055,90.0,192,188,0.0,74.0
2056,84.0,192,188,0.0,81.0
2057,93.0,192,188,0.0,86.0
2058,90.0,192,188,0.0,85.0
2059,72.0,0,1148,0.0,58.0
2060,66.0,192,1148,0.0,43.0
2061,62.0,0,1148,0.0,39.0
2062,69.0,0,1148,0.0,51.0
2063,93.0,0,188,0.0,89.0
2064,90.0,192,188,0.0,93.0
2065,93.0,192,188,0.0,103.0
2066,90.0,192,188,0.0,91.0
2067,93.0,192,188,0.0,99.0
2068,69.0,192,1148,0.0,75.0
2069,66.0,0,1148,0.0,77.0
2070,63.0,0,1148,0.0,86.0
2071,90.0,192,188,0.0,89.0
2072,72.0,0,1148,0.0,80.0
2073,93.0,0,188,0.0,99.0
2074,90.0,192,188,0.0,85.0
2075,92.0,0,188,0.0,44.0
2076,86.0,192,188,0.0,89.0
2077,69.0,0,764,0.0,85.0
2078,88.0,192,188,0.0,93.0
2079,66.0,0,764,0.0,87.0
2080,72.0,0,764,0.0,89.0
2081,62.0,192,764,0.0,96.0
2082,90.0,192,188,0.0,88.0
2083,66.0,0,380,0.0,63.0
2084,86.0,192,188,0.0,85.0
2085,60.0,0,380,0.0,72.0
2086,69.0,0,380,0.0,66.0
2087,91.0,0,188,0.0,87.0
2088,86.0,192,188,0.0,80.0
2089,91.0,192,188,0.0,72.0
2090,67.0,0,764,0.0,64.0
2091,86.0,192,188,0.0,61.0
2092,59.0,0,764,0.0,55.0
2093,62.0,192,764,0.0,63.0
2094,83.0,0,188,0.0,48.0
2095,79.0,192,188,0.0,49.0
2096,55.0,0,380,0.0,58.0
2097,62.0,192,380,0.0,67.0
2098,67.0,0,380,0.0,62.0
2099,88.0,0,188,0.0,63.0
2100,64.0,0,380,0.0,58.0
2101,84.0,192,188,0.0,71.0
2102,67.0,0,380,0.0,58.0
2103,60.0,192,380,0.0,54.0
2104,88.0,192,188,0.0,62.0
2105,84.0,192,188,0.0,62.0
2106,79.0,192,188,0.0,68.0
2107,76.0,192,188,0.0,64.0
2108,64.0,0,380,0.0,51.0
2109,69.0,0,380,0.0,53.0
2110,60.0,0,380,0.0,51.0
2111,71.0,0,380,0.0,58.0
2112,62.0,0,380,0.0,42.0
2113,67.0,0,380,0.0,64.0
2114,74.0,192,764,0.0,55.0
2115,81.0,0,72,0.0,55.0
2116,83.0,72,72,0.0,58.0
2117,81.0,72,72,0.0,55.0
2118,83.0,68,72,0.0,58.0
2119,79.0,76,44,0.0,55.0
2120,66.0,0,380,0.0,49.0
2121,72.0,768,380,0.0,49.0
2122,62.0,0,380,0.0,34.0
2123,81.0,48,44,0.0,56.0
2124,79.0,0,124,0.0,93.0
2125,59.0,0,188,0.0,70.0
2126,55.0,48,188,0.0,82.0
2127,62.0,192,188,0.0,79.0
2128,74.0,0,124,0.0,90.0
2129,86.0,0,124,0.0,90.0
2130,55.0,0,188,0.0,79.0
2131,59.0,192,188,0.0,73.0
2132,62.0,192,188,0.0,82.0
2133,67.0,0,124,0.0,86.0
2134,79.0,192,124,0.0,81.0
2135,55.0,0,188,0.0,82.0
2136,59.0,0,188,0.0,73.0
2137,62.0,192,188,0.0,79.0
2138,55.0,0,188,0.0,81.0
2139,60.0,192,188,0.0,80.0
2140,57.0,0,188,0.0,77.0
2141,62.0,192,188,0.0,78.0
2142,84.0,0,124,0.0,90.0
2143,72.0,0,124,0.0,82.0
2144,60.0,0,188,0.0,78.0
2145,55.0,0,188,0.0,77.0
2146,57.0,192,188,0.0,70.0
2147,62.0,192,188,0.0,71.0
2148,78.0,0,124,0.0,89.0
2149,66.0,192,124,0.0,89.0
2150,60.0,0,188,0.0,74.0
2151,55.0,0,188,0.0,66.0
2152,57.0,0,188,0.0,68.0
2153,62.0,192,188,0.0,77.0
2154,50.0,576,124,0.0,66.0
2155,74.0,0,124,0.0,64.0
2156,62.0,0,124,0.0,46.0
2157,47.0,0,124,0.0,62.0
2158,71.0,384,124,0.0,59.0
2159,59.0,0,124,0.0,55.0
2160,72.0,0,124,0.0,64.0
2161,60.0,0,124,0.0,58.0
2162,48.0,768,124,0.0,62.0
2163,45.0,384,124,0.0,63.0
2164,69.0,0,124,0.0,68.0
2165,57.0,0,124,0.0,62.0
2166,59.0,768,124,0.0,84.0
2167,83.0,0,124,0.0,94.0
2168,47.0,0,124,0.0,83.0
2169,71.0,0,124,0.0,81.0
2170,56.0,384,124,0.0,88.0
2171,44.0,0,124,0.0,88.0
2172,80.0,0,124,0.0,95.0
2173,68.0,0,124,0.0,95.0
2174,57.0,768,124,0.0,93.0
2175,81.0,0,124,0.0,97.0
2176,69.0,0,124,0.0,90.0
2177,45.0,0,124,0.0,94.0
2178,78.0,0,124,0.0,90.0
2179,66.0,0,124,0.0,95.0
2180,42.0,0,124,0.0,89.0
2181,54.0,384,124,0.0,85.0
2182,76.0,384,124,0.0,87.0
2183,64.0,0,124,0.0,80.0
2184,52.0,0,188,0.0,78.0
2185,56.0,0,188,0.0,83.0
2186,59.0,192,188,0.0,70.0
2187,68.0,0,124,0.0,87.0
2188,80.0,0,124,0.0,95.0
2189,56.0,0,188,0.0,81.0
2190,52.0,192,188,0.0,76.0
2191,59.0,192,188,0.0,77.0
2192,76.0,0,124,0.0,92.0
2193,64.0,0,124,0.0,83.0
2194,56.0,0,188,0.0,76.0
2195,52.0,192,188,0.0,82.0
2196,59.0,192,188,0.0,64.0
2197,56.0,192,188,0.0,71.0
2198,52.0,0,188,0.0,74.0
2199,59.0,192,188,0.0,63.0
2200,56.0,192,188,0.0,65.0
2201,52.0,0,188,0.0,64.0
2202,59.0,192,188,0.0,65.0
2203,71.0,0,764,0.0,93.0
2204,83.0,0,764,0.0,100.0
2205,56.0,0,188,0.0,75.0
2206,52.0,192,188,0.0,64.0
2207,81.0,0,188,0.0,62.0
2208,59.0,0,188,0.0,64.0
2209,80.0,192,188,0.0,53.0
2210,52.0,0,188,0.0,59.0
2211,56.0,0,188,0.0,60.0
2212,78.0,192,188,0.0,62.0
2213,76.0,192,188,0.0,52.0
2214,59.0,0,188,0.0,56.0
2215,52.0,0,188,0.0,42.0
2216,56.0,0,188,0.0,51.0
2217,75.0,192,188,0.0,58.0
2218,76.0,192,188,0.0,55.0
2219,59.0,0,188,0.0,62.0
2220,80.0,0,188,0.0,69.0
2221,56.0,0,188,0.0,50.0
2222,52.0,192,188,0.0,51.0
2223,59.0,0,188,0.0,51.0
2224,76.0,192,188,0.0,76.0
2225,57.0,192,188,0.0,64.0
2226,52.0,0,188,0.0,53.0
2227,75.0,0,380,0.0,73.0
2228,61.0,192,188,0.0,57.0
2229,57.0,0,188,0.0,60.0
2230,52.0,0,188,0.0,60.0
2231,73.0,192,380,0.0,62.0
2232,61.0,192,188,0.0,55.0
2233,52.0,0,188,0.0,62.0
2234,71.0,192,188,0.0,41.0
2235,57.0,0,188,0.0,61.0
2236,61.0,0,188,0.0,62.0
2237,69.0,192,188,0.0,55.0
2238,52.0,0,188,0.0,60.0
2239,57.0,0,188,0.0,54.0
2240,68.0,192,188,0.0,58.0
2241,61.0,192,188,0.0,51.0
2242,66.0,0,188,0.0,57.0
2243,65.0,0,188,0.0,53.0
2244,57.0,0,188,0.0,64.0
2245,52.0,192,188,0.0,54.0
2246,61.0,192,188,0.0,50.0
2247,66.0,0,188,0.0,57.0
2248,52.0,0,188,0.0,49.0
2249,69.0,0,188,0.0,64.0
2250,57.0,192,188,0.0,51.0
2251,61.0,192,188,0.0,58.0
2252,66.0,0,188,0.0,63.0
2253,57.0,0,188,0.0,58.0
2254,52.0,0,188,0.0,58.0
2255,54.0,0,188,0.0,58.0
2256,59.0,192,188,0.0,39.0
2257,52.0,0,188,0.0,58.0
2258,54.0,0,188,0.0,58.0
2259,57.0,192,188,0.0,63.0
2260,59.0,192,188,0.0,35.0
2261,63.0,192,764,0.0,56.0
2262,66.0,0,124,0.0,64.0
2263,57.0,192,188,0.0,46.0
2264,52.0,0,188,0.0,55.0
2265,54.0,0,188,0.0,44.0
2266,59.0,192,188,0.0,52.0
2267,69.0,0,124,0.0,70.0
2268,52.0,0,188,0.0,66.0
2269,57.0,0,188,0.0,51.0
2270,54.0,192,188,0.0,58.0
2271,59.0,192,188,0.0,48.0
2272,66.0,0,124,0.0,65.0
2273,57.0,0,188,0.0,63.0
2274,52.0,192,188,0.0,60.0
2275,54.0,0,188,0.0,64.0
2276,59.0,192,188,0.0,54.0
2277,63.0,0,124,0.0,64.0
2278,54.0,0,188,0.0,56.0
2279,57.0,0,188,0.0,56.0
2280,52.0,192,188,0.0,52.0
2281,59.0,192,188,0.0,52.0
2282,64.0,192,188,0.0,61.0
2283,59.0,192,188,0.0,51.0
2284,52.0,0,380,0.0,44.0
2285,71.0,192,124,0.0,96.0
2286,68.0,0,188,0.0,51.0
2287,59.0,192,188,0.0,49.0
2288,68.0,0,124,0.0,57.0
2289,64.0,192,188,0.0,59.0
2290,59.0,192,188,0.0,53.0
2291,64.0,192,188,0.0,61.0
2292,59.0,192,188,0.0,45.0
2293,52.0,0,380,0.0,64.0
2294,71.0,192,124,0.0,92.0
2295,68.0,0,188,0.0,59.0
2296,59.0,192,188,0.0,46.0
2297,68.0,0,124,0.0,67.0
2298,64.0,192,188,0.0,70.0
2299,59.0,192,188,0.0,42.0
2300,64.0,0,188,0.0,66.0
2301,59.0,192,188,0.0,57.0
2302,52.0,192,380,0.0,56.0
2303,71.0,0,124,0.0,78.0
2304,68.0,192,188,0.0,65.0
2305,59.0,192,188,0.0,44.0
2306,68.0,0,124,0.0,45.0
2307,64.0,192,188,0.0,69.0
2308,59.0,192,188,0.0,44.0
2309,63.0,0,188,0.0,71.0
2310,59.0,192,188,0.0,50.0
2311,47.0,192,380,0.0,61.0
2312,69.0,0,124,0.0,82.0
2313,66.0,192,188,0.0,69.0
2314,59.0,192,188,0.0,47.0
2315,66.0,0,124,0.0,53.0
2316,63.0,192,188,0.0,56.0
2317,59.0,192,188,0.0,43.0
2318,63.0,0,188,0.0,58.0
2319,59.0,192,188,0.0,38.0
2320,47.0,192,380,0.0,68.0
2321,66.0,0,188,0.0,75.0
2322,59.0,192,188,0.0,49.0
2323,69.0,192,380,0.0,84.0
2324,63.0,0,188,0.0,62.0
2325,66.0,192,380,0.0,83.0
2326,59.0,192,188,0.0,49.0
2327,63.0,192,188,0.0,56.0
2328,47.0,0,380,0.0,73.0
2329,59.0,192,188,0.0,55.0
2330,66.0,0,188,0.0,67.0
2331,69.0,192,380,0.0,83.0
2332,59.0,192,188,0.0,38.0
2333,63.0,0,188,0.0,56.0
2334,59.0,192,188,0.0,34.0
2335,66.0,192,380,0.0,58.0
2336,63.0,192,188,0.0,61.0
2337,59.0,192,188,0.0,53.0
2338,47.0,0,380,0.0,62.0
2339,66.0,0,188,0.0,70.0
2340,69.0,192,380,0.0,84.0
2341,59.0,192,188,0.0,46.0
2342,63.0,192,188,0.0,60.0
2343,66.0,0,380,0.0,56.0
2344,59.0,192,188,0.0,38.0
2345,64.0,192,188,0.0,54.0
2346,52.0,0,380,0.0,56.0
2347,59.0,192,188,0.0,30.0
2348,64.0,192,188,0.0,44.0
2349,67.0,0,380,0.0,73.0
2350,59.0,192,188,0.0,31.0
2351,64.0,0,124,0.0,51.0
2352,67.0,0,380,0.0,73.0
2353,59.0,192,188,0.0,41.0
2354,60.0,0,188,0.0,49.0
2355,48.0,192,380,0.0,66.0
2356,55.0,192,188,0.0,54.0
2357,67.0,0,124,0.0,66.0
2358,64.0,192,188,0.0,66.0
2359,55.0,192,188,0.0,48.0
2360,64.0,0,124,0.0,61.0
2361,60.0,192,188,0.0,64.0
2362,55.0,192,188,0.0,53.0
2363,60.0,192,188,0.0,60.0
2364,48.0,0,380,0.0,51.0
2365,55.0,192,188,0.0,52.0
2366,64.0,192,188,0.0,64.0
2367,67.0,0,380,0.0,42.0
2368,55.0,192,188,0.0,46.0
2369,60.0,0,188,0.0,63.0
2370,64.0,192,380,0.0,52.0
2371,55.0,192,188,0.0,54.0
2372,60.0,0,188,0.0,71.0
2373,48.0,192,380,0.0,68.0
2374,55.0,192,188,0.0,62.0
2375,64.0,192,188,0.0,68.0
2376,55.0,192,188,0.0,51.0
2377,67.0,0,380,0.0,63.0
2378,60.0,0,188,0.0,61.0
2379,64.0,192,380,0.0,57.0
2380,55.0,192,188,0.0,56.0
2381,59.0,192,188,0.0,58.0
2382,55.0,192,188,0.0,54.0
2383,43.0,0,380,0.0,66.0
2384,62.0,192,188,0.0,69.0
2385,55.0,192,188,0.0,50.0
2386,65.0,0,380,0.0,63.0
2387,59.0,0,188,0.0,63.0
2388,62.0,192,380,0.0,52.0
2389,55.0,192,188,0.0,53.0
2390,59.0,0,188,0.0,62.0
2391,55.0,192,188,0.0,55.0
2392,43.0,192,380,0.0,53.0
2393,62.0,192,188,0.0,64.0
2394,65.0,0,380,0.0,60.0
2395,55.0,192,188,0.0,59.0
2396,59.0,192,188,0.0,63.0
2397,62.0,0,380,0.0,53.0
2398,55.0,192,188,0.0,54.0
2399,59.0,0,188,0.0,64.0
2400,55.0,192,188,0.0,62.0
2401,43.0,192,380,0.0,59.0
2402,62.0,192,188,0.0,69.0
2403,65.0,0,380,0.0,56.0
2404,55.0,192,188,0.0,63.0
2405,59.0,0,188,0.0,64.0
2406,55.0,192,188,0.0,52.0
2407,62.0,192,380,0.0,60.0
2408,59.0,192,188,0.0,63.0
2409,55.0,192,188,0.0,46.0
2410,43.0,0,380,0.0,58.0
2411,62.0,0,188,0.0,72.0
2412,55.0,192,188,0.0,63.0
2413,65.0,192,380,0.0,59.0
2414,59.0,0,188,0.0,62.0
2415,62.0,192,380,0.0,51.0
2416,55.0,192,188,0.0,61.0
2417,60.0,0,188,0.0,67.0
2418,55.0,192,188,0.0,58.0
2419,48.0,192,380,0.0,71.0
2420,60.0,0,188,0.0,70.0
2421,64.0,192,380,0.0,53.0
2422,55.0,192,188,0.0,61.0
2423,60.0,0,188,0.0,72.0
2424,64.0,192,380,0.0,59.0
2425,55.0,192,188,0.0,65.0
2426,60.0,192,188,0.0,89.0
2427,55.0,192,188,0.0,82.0
2428,54.0,192,188,0.0,85.0
2429,55.0,192,188,0.0,78.0
2430,59.0,192,188,0.0,85.0
2431,48.0,0,1148,0.0,85.0
2432,36.0,0,1148,0.0,82.0
2433,43.0,0,1148,0.0,79.0
2434,60.0,192,188,0.0,87.0
2435,62.0,0,188,0.0,88.0
2436,55.0,192,188,0.0,83.0
2437,54.0,192,188,0.0,81.0
2438,55.0,192,188,0.0,80.0
2439,60.0,192,188,0.0,90.0
2440,43.0,0,1148,0.0,70.0
2441,47.0,192,1148,0.0,74.0
2442,62.0,192,188,0.0,87.0
2443,35.0,0,1148,0.0,80.0
2444,64.0,0,188,0.0,86.0
2445,60.0,192,188,0.0,78.0
2446,59.0,192,188,0.0,78.0
2447,43.0,0,764,0.0,70.0
2448,48.0,192,764,0.0,72.0
2449,36.0,0,764,0.0,62.0
2450,60.0,192,188,0.0,84.0
2451,45.0,192,188,0.0,64.0
2452,65.0,0,188,0.0,82.0
2453,67.0,0,188,0.0,83.0
2454,40.0,192,188,0.0,59.0
2455,41.0,192,124,0.0,68.0
2456,69.0,0,188,0.0,84.0
2457,67.0,192,188,0.0,85.0
2458,41.0,0,124,0.0,77.0
2459,65.0,192,188,0.0,77.0
2460,64.0,192,188,0.0,81.0
2461,42.0,192,124,0.0,67.0
2462,62.0,0,188,0.0,73.0
2463,60.0,192,188,0.0,82.0
2464,43.0,192,380,0.0,71.0
2465,59.0,0,380,0.0,68.0
2466,77.0,0,188,0.0,53.0
2467,62.0,768,188,0.0,34.0
2468,79.0,0,188,0.0,54.0
2469,64.0,192,188,0.0,54.0
2470,65.0,192,124,0.0,55.0
2471,81.0,0,188,0.0,40.0
2472,79.0,192,188,0.0,57.0
2473,65.0,0,124,0.0,58.0
2474,77.0,192,188,0.0,55.0
2475,76.0,192,188,0.0,58.0
2476,66.0,192,124,0.0,56.0
2477,74.0,0,188,0.0,53.0
2478,72.0,192,188,0.0,40.0
2479,67.0,0,380,0.0,68.0
2480,71.0,192,380,0.0,58.0
2481,65.0,768,188,0.0,44.0
2482,53.0,0,188,0.0,48.0
2483,55.0,192,188,0.0,39.0
2484,67.0,0,188,0.0,56.0
2485,56.0,0,188,0.0,46.0
2486,68.0,192,188,0.0,55.0
2487,55.0,0,188,0.0,56.0
2488,67.0,192,188,0.0,57.0
2489,65.0,192,188,0.0,53.0
2490,53.0,0,188,0.0,41.0
2491,51.0,0,188,0.0,54.0
2492,63.0,192,188,0.0,64.0
2493,50.0,192,188,0.0,47.0
2494,62.0,0,188,0.0,66.0
2495,55.0,192,188,0.0,67.0
2496,67.0,0,188,0.0,79.0
2497,60.0,0,188,0.0,76.0
2498,48.0,192,380,0.0,89.0
2499,55.0,192,188,0.0,70.0
2500,67.0,192,124,0.0,109.0
2501,63.0,0,188,0.0,87.0
2502,55.0,192,188,0.0,71.0
2503,63.0,0,124,0.0,82.0
2504,60.0,192,188,0.0,83.0
2505,55.0,192,188,0.0,78.0
2506,60.0,0,188,0.0,80.0
2507,55.0,192,188,0.0,73.0
2508,48.0,192,380,0.0,66.0
2509,67.0,0,124,0.0,100.0
2510,63.0,192,188,0.0,87.0
2511,55.0,192,188,0.0,72.0
2512,63.0,192,124,0.0,77.0
2513,60.0,0,188,0.0,81.0
2514,55.0,192,188,0.0,66.0
2515,60.0,0,188,0.0,84.0
2516,55.0,192,188,0.0,69.0
2517,48.0,192,380,0.0,82.0
2518,63.0,192,188,0.0,76.0
2519,67.0,0,380,0.0,88.0
2520,55.0,192,188,0.0,65.0
2521,60.0,0,188,0.0,81.0
2522,55.0,192,188,0.0,64.0
2523,63.0,192,380,0.0,78.0
2524,59.0,0,188,0.0,75.0
2525,43.0,192,380,0.0,62.0
2526,55.0,192,188,0.0,70.0
2527,62.0,0,188,0.0,80.0
2528,55.0,192,188,0.0,66.0
2529,65.0,192,380,0.0,75.0
2530,59.0,192,188,0.0,74.0
2531,55.0,192,188,0.0,71.0
2532,62.0,0,380,0.0,76.0
2533,59.0,0,188,0.0,79.0
2534,43.0,192,380,0.0,77.0
2535,55.0,192,188,0.0,73.0
2536,62.0,192,188,0.0,81.0
2537,65.0,0,380,0.0,76.0
2538,55.0,192,188,0.0,67.0
2539,59.0,192,188,0.0,74.0
2540,55.0,192,188,0.0,66.0
2541,62.0,0,380,0.0,67.0
2542,59.0,192,188,0.0,80.0
2543,55.0,192,188,0.0,62.0
2544,43.0,0,380,0.0,81.0
2545,62.0,0,188,0.0,74.0
2546,55.0,192,188,0.0,69.0
2547,65.0,192,380,0.0,85.0
2548,59.0,0,188,0.0,70.0
2549,55.0,192,188,0.0,68.0
2550,62.0,192,380,0.0,78.0
2551,59.0,192,188,0.0,82.0
2552,43.0,0,380,0.0,67.0
2553,55.0,192,188,0.0,76.0
2554,62.0,0,188,0.0,88.0
2555,55.0,192,188,0.0,71.0
2556,65.0,192,380,0.0,96.0
2557,59.0,192,188,0.0,75.0
2558,62.0,0,380,0.0,64.0
2559,55.0,192,188,0.0,83.0
2560,60.0,0,188,0.0,52.0
2561,55.0,192,188,0.0,37.0
2562,48.0,192,380,0.0,69.0
2563,60.0,0,188,0.0,55.0
2564,55.0,192,188,0.0,51.0
2565,63.0,192,380,0.0,65.0
2566,62.0,192,188,0.0,55.0
2567,65.0,0,380,0.0,63.0
2568,58.0,192,188,0.0,61.0
2569,63.0,192,188,0.0,62.0
2570,51.0,0,380,0.0,67.0
2571,58.0,192,188,0.0,53.0
2572,70.0,192,124,0.0,64.0
2573,67.0,0,188,0.0,71.0
2574,58.0,192,188,0.0,47.0
2575,67.0,0,124,0.0,69.0
2576,63.0,192,188,0.0,61.0
2577,58.0,192,188,0.0,29.0
2578,63.0,192,188,0.0,64.0
2579,58.0,192,188,0.0,38.0
2580,51.0,0,380,0.0,56.0
2581,70.0,0,124,0.0,58.0
2582,67.0,192,188,0.0,68.0
2583,58.0,192,188,0.0,61.0
2584,67.0,0,124,0.0,58.0
2585,63.0,192,188,0.0,62.0
2586,58.0,192,188,0.0,48.0
2587,63.0,0,188,0.0,61.0
2588,58.0,192,188,0.0,57.0
2589,51.0,192,380,0.0,55.0
2590,67.0,192,188,0.0,67.0
2591,70.0,0,380,0.0,49.0
2592,58.0,192,188,0.0,49.0
2593,63.0,192,188,0.0,65.0
2594,67.0,0,380,0.0,53.0
2595,58.0,192,188,0.0,48.0
2596,62.0,0,188,0.0,51.0
2597,58.0,192,188,0.0,56.0
2598,46.0,192,380,0.0,62.0
2599,65.0,192,188,0.0,60.0
2600,58.0,192,188,0.0,53.0
2601,68.0,0,380,0.0,62.0
2602,62.0,0,188,0.0,60.0
2603,65.0,192,380,0.0,58.0
2604,58.0,192,188,0.0,52.0
2605,62.0,0,188,0.0,64.0
2606,58.0,192,188,0.0,51.0
2607,46.0,192,380,0.0,57.0
2608,65.0,192,188,0.0,68.0
2609,68.0,0,380,0.0,54.0
2610,58.0,192,188,0.0,46.0
2611,62.0,192,188,0.0,66.0
2612,65.0,0,380,0.0,60.0
2613,58.0,192,188,0.0,48.0
2614,62.0,0,188,0.0,54.0
2615,58.0,192,188,0.0,45.0
2616,46.0,192,380,0.0,61.0
2617,65.0,0,188,0.0,68.0
2618,68.0,192,380,0.0,54.0
2619,58.0,192,188,0.0,46.0
2620,62.0,192,188,0.0,55.0
2621,65.0,0,380,0.0,66.0
2622,58.0,192,188,0.0,32.0
2623,62.0,0,188,0.0,58.0
2624,46.0,192,380,0.0,60.0
2625,58.0,192,188,0.0,38.0
2626,65.0,192,188,0.0,60.0
2627,68.0,0,380,0.0,61.0
2628,58.0,192,188,0.0,42.0
2629,62.0,0,188,0.0,60.0
2630,65.0,192,380,0.0,55.0
2631,58.0,192,188,0.0,43.0
2632,63.0,192,188,0.0,61.0
2633,51.0,0,380,0.0,56.0
2634,58.0,192,188,0.0,55.0
2635,63.0,0,188,0.0,61.0
2636,58.0,192,188,0.0,55.0
2637,67.0,192,380,0.0,58.0
2638,63.0,192,188,0.0,56.0
2639,67.0,0,380,0.0,68.0
2640,58.0,192,188,0.0,61.0
2641,63.0,192,188,0.0,90.0
2642,58.0,192,188,0.0,77.0
2643,57.0,192,188,0.0,84.0
2644,58.0,192,188,0.0,81.0
2645,62.0,192,188,0.0,80.0
2646,39.0,0,1148,0.0,83.0
2647,51.0,0,1148,0.0,76.0
2648,46.0,0,1148,0.0,83.0
2649,63.0,192,188,0.0,85.0
2650,65.0,0,188,0.0,86.0
2651,58.0,192,188,0.0,80.0
2652,57.0,192,188,0.0,81.0
2653,58.0,192,188,0.0,64.0
2654,63.0,192,188,0.0,85.0
2655,46.0,0,1148,0.0,76.0
2656,50.0,192,1148,0.0,86.0
2657,38.0,0,1148,0.0,83.0
2658,65.0,192,188,0.0,90.0
2659,67.0,0,188,0.0,88.0
2660,63.0,192,188,0.0,80.0
2661,62.0,192,188,0.0,68.0
2662,39.0,192,764,0.0,85.0
2663,46.0,0,764,0.0,75.0
2664,51.0,0,764,0.0,85.0
2665,63.0,192,188,0.0,69.0
2666,68.0,192,188,0.0,77.0
2667,48.0,0,188,0.0,76.0
2668,70.0,192,188,0.0,72.0
2669,43.0,0,188,0.0,71.0
2670,44.0,0,124,0.0,77.0
2671,72.0,192,188,0.0,81.0
2672,70.0,192,188,0.0,76.0
2673,44.0,0,124,0.0,80.0
2674,68.0,192,188,0.0,81.0
2675,67.0,192,188,0.0,59.0
2676,45.0,0,124,0.0,88.0
2677,65.0,192,188,0.0,74.0
2678,63.0,192,188,0.0,71.0
2679,46.0,192,380,0.0,46.0
2680,62.0,0,380,0.0,68.0
2681,80.0,0,188,0.0,68.0
2682,72.0,768,188,0.0,46.0
2683,70.0,192,188,0.0,61.0
2684,82.0,0,188,0.0,59.0
2685,68.0,192,124,0.0,54.0
2686,84.0,0,188,0.0,68.0
2687,82.0,192,188,0.0,61.0
2688,68.0,0,124,0.0,62.0
2689,80.0,192,188,0.0,64.0
2690,79.0,192,188,0.0,59.0
2691,69.0,0,124,0.0,59.0
2692,77.0,192,188,0.0,65.0
2693,75.0,192,188,0.0,56.0
2694,70.0,0,380,0.0,55.0
2695,74.0,192,380,0.0,68.0
2696,48.0,0,188,0.0,86.0
2697,60.0,768,188,0.0,84.0
2698,62.0,192,188,0.0,88.0
2699,50.0,0,188,0.0,68.0
2700,63.0,0,188,0.0,85.0
2701,51.0,192,188,0.0,79.0
2702,62.0,192,188,0.0,86.0
2703,50.0,0,188,0.0,74.0
2704,48.0,0,188,0.0,78.0
2705,60.0,192,188,0.0,85.0
2706,58.0,192,188,0.0,74.0
2707,46.0,0,188,0.0,77.0
2708,57.0,0,188,0.0,84.0
2709,45.0,192,188,0.0,66.0
2710,55.0,192,188,0.0,86.0
2711,43.0,0,188,0.0,66.0
2712,42.0,0,380,0.0,74.0
2713,54.0,192,380,0.0,82.0
2714,84.0,0,188,0.0,68.0
2715,72.0,768,188,0.0,58.0
2716,86.0,0,188,0.0,61.0
2717,74.0,192,188,0.0,58.0
2718,87.0,192,188,0.0,57.0
2719,75.0,0,188,0.0,53.0
2720,86.0,0,188,0.0,60.0
2721,74.0,192,188,0.0,56.0
2722,72.0,192,188,0.0,62.0
2723,84.0,0,188,0.0,63.0
2724,82.0,0,188,0.0,60.0
2725,70.0,192,188,0.0,55.0
2726,69.0,0,188,0.0,49.0
2727,81.0,192,188,0.0,60.0
2728,79.0,0,188,0.0,65.0
2729,67.0,192,188,0.0,53.0
2730,66.0,0,188,0.0,42.0
2731,78.0,192,188,0.0,73.0
2732,75.0,192,188,0.0,63.0
2733,63.0,0,188,0.0,54.0
2734,74.0,192,188,0.0,62.0
2735,62.0,0,188,0.0,52.0
2736,60.0,0,188,0.0,53.0
2737,72.0,192,188,0.0,56.0
2738,70.0,192,188,0.0,58.0
2739,58.0,0,188,0.0,57.0
2740,69.0,0,188,0.0,59.0
2741,57.0,192,188,0.0,38.0
2742,55.0,192,124,0.0,60.0
2743,67.0,0,188,0.0,64.0
2744,66.0,192,188,0.0,46.0
2745,51.0,192,124,0.0,64.0
2746,67.0,0,188,0.0,63.0
2747,69.0,192,188,0.0,62.0
2748,49.0,0,124,0.0,62.0
2749,70.0,192,188,0.0,60.0
2750,67.0,192,188,0.0,68.0
2751,50.0,0,380,0.0,52.0
2752,65.0,192,380,0.0,55.0
2753,69.0,0,124,0.0,68.0
2754,66.0,384,188,0.0,62.0
2755,57.0,192,188,0.0,59.0
2756,66.0,0,124,0.0,70.0
2757,62.0,192,188,0.0,63.0
2758,57.0,192,188,0.0,61.0
2759,62.0,0,188,0.0,67.0
2760,50.0,192,380,0.0,62.0
2761,57.0,192,188,0.0,58.0
2762,69.0,192,124,0.0,54.0
2763,66.0,0,188,0.0,69.0
2764,57.0,192,188,0.0,49.0
2765,66.0,0,124,0.0,54.0
2766,62.0,192,188,0.0,59.0
2767,57.0,192,188,0.0,47.0
2768,62.0,0,188,0.0,52.0
2769,50.0,192,380,0.0,63.0
2770,57.0,192,188,0.0,42.0
2771,69.0,0,124,0.0,48.0
2772,66.0,192,188,0.0,61.0
2773,57.0,192,188,0.0,43.0
2774,66.0,0,124,0.0,45.0
2775,62.0,192,188,0.0,54.0
2776,57.0,192,188,0.0,55.0
2777,61.0,0,188,0.0,63.0
2778,45.0,192,380,0.0,44.0
2779,57.0,192,188,0.0,40.0
2780,66.0,0,188,0.0,56.0
2781,57.0,192,188,0.0,55.0
2782,67.0,192,380,0.0,55.0
2783,61.0,192,188,0.0,58.0
2784,64.0,0,380,0.0,55.0
2785,57.0,192,188,0.0,42.0
2786,61.0,0,188,0.0,62.0
2787,45.0,192,380,0.0,64.0
2788,57.0,192,188,0.0,37.0
2789,66.0,192,188,0.0,57.0
2790,67.0,0,380,0.0,64.0
2791,57.0,192,188,0.0,52.0
2792,61.0,192,188,0.0,63.0
2793,57.0,192,188,0.0,44.0
2794,64.0,0,380,0.0,57.0
2795,61.0,192,188,0.0,68.0
2796,57.0,192,188,0.0,52.0
2797,45.0,0,380,0.0,58.0
2798,66.0,192,188,0.0,57.0
2799,67.0,0,380,0.0,54.0
2800,57.0,192,188,0.0,48.0
2801,61.0,192,188,0.0,50.0
2802,64.0,0,380,0.0,52.0
2803,57.0,192,188,0.0,41.0
2804,61.0,0,188,0.0,65.0
2805,45.0,192,380,0.0,56.0
2806,57.0,192,188,0.0,48.0
2807,66.0,192,188,0.0,60.0
2808,67.0,0,380,0.0,61.0
2809,57.0,192,188,0.0,54.0
2810,61.0,192,188,0.0,58.0
2811,64.0,0,380,0.0,53.0
2812,57.0,192,188,0.0,52.0
2813,62.0,0,188,0.0,66.0
2814,50.0,192,380,0.0,57.0
2815,57.0,192,188,0.0,61.0
2816,69.0,192,188,0.0,51.0
2817,66.0,0,380,0.0,43.0
2818,62.0,192,188,0.0,27.0
2819,69.0,0,188,0.0,53.0
2820,62.0,192,380,0.0,48.0
2821,66.0,192,188,0.0,49.0
2822,54.0,0,124,0.0,51.0
2823,74.0,0,188,0.0,64.0
2824,69.0,192,188,0.0,52.0
2825,62.0,192,188,0.0,47.0
2826,50.0,0,124,0.0,55.0
2827,74.0,192,188,0.0,64.0
2828,69.0,0,188,0.0,55.0
2829,62.0,192,188,0.0,47.0
2830,42.0,0,124,0.0,48.0
2831,69.0,192,188,0.0,55.0
2832,74.0,0,188,0.0,57.0
2833,62.0,192,188,0.0,58.0
2834,38.0,0,124,0.0,45.0
2835,69.0,192,188,0.0,50.0
2836,74.0,0,188,0.0,71.0
2837,62.0,192,188,0.0,50.0
2838,54.0,192,124,0.0,38.0
2839,69.0,0,188,0.0,59.0
2840,74.0,0,188,0.0,71.0
2841,62.0,192,188,0.0,53.0
2842,50.0,0,124,0.0,45.0
2843,69.0,0,188,0.0,58.0
2844,74.0,192,188,0.0,67.0
2845,62.0,192,188,0.0,59.0
2846,42.0,192,124,0.0,44.0
2847,69.0,0,188,0.0,64.0
2848,72.0,0,188,0.0,63.0
2849,62.0,192,188,0.0,62.0
2850,38.0,0,124,0.0,60.0
2851,69.0,192,188,0.0,61.0
2852,72.0,0,188,0.0,62.0
2853,62.0,192,188,0.0,62.0
2854,54.0,0,124,0.0,75.0
2855,72.0,192,188,0.0,63.0
2856,69.0,0,188,0.0,66.0
2857,62.0,192,188,0.0,67.0
2858,50.0,192,124,0.0,66.0
2859,69.0,0,188,0.0,72.0
2860,72.0,0,188,0.0,67.0
2861,62.0,192,188,0.0,74.0
2862,42.0,0,124,0.0,71.0
2863,69.0,192,188,0.0,75.0
2864,72.0,0,188,0.0,76.0
2865,62.0,192,188,0.0,79.0
2866,38.0,192,124,0.0,72.0
2867,72.0,0,188,0.0,81.0
2868,69.0,0,188,0.0,80.0
2869,62.0,192,188,0.0,82.0
2870,79.0,0,124,0.0,88.0
2871,67.0,0,124,0.0,88.0
2872,43.0,192,380,0.0,88.0
2873,71.0,384,124,0.0,92.0
2874,83.0,0,124,0.0,102.0
2875,59.0,0,188,0.0,62.0
2876,55.0,0,188,0.0,74.0
2877,62.0,192,188,0.0,88.0
2878,79.0,192,124,0.0,97.0
2879,67.0,0,124,0.0,97.0
2880,59.0,0,188,0.0,80.0
2881,55.0,0,188,0.0,82.0
2882,62.0,192,188,0.0,86.0
2883,59.0,192,188,0.0,74.0
2884,55.0,0,188,0.0,81.0
2885,62.0,192,188,0.0,75.0
2886,55.0,192,188,0.0,77.0
2887,59.0,0,188,0.0,70.0
2888,74.0,0,764,0.0,94.0
2889,62.0,192,188,0.0,60.0
2890,86.0,0,764,0.0,96.0
2891,59.0,0,188,0.0,75.0
2892,84.0,192,188,0.0,88.0
2893,55.0,0,188,0.0,78.0
2894,62.0,192,188,0.0,79.0
2895,83.0,0,188,0.0,86.0
2896,59.0,0,188,0.0,76.0
2897,55.0,0,188,0.0,80.0
2898,81.0,192,188,0.0,82.0
2899,79.0,192,188,0.0,82.0
2900,62.0,0,188,0.0,76.0
2901,78.0,0,188,0.0,82.0
2902,59.0,192,188,0.0,77.0
2903,55.0,0,188,0.0,81.0
2904,62.0,192,188,0.0,75.0
2905,79.0,0,188,0.0,86.0
2906,83.0,0,188,0.0,86.0
2907,55.0,0,188,0.0,77.0
2908,59.0,192,188,0.0,78.0
2909,79.0,0,188,0.0,88.0
2910,62.0,192,188,0.0,74.0
2911,55.0,192,188,0.0,77.0
2912,60.0,0,188,0.0,77.0
2913,78.0,0,380,0.0,77.0
2914,64.0,192,188,0.0,72.0
2915,60.0,192,188,0.0,74.0
2916,55.0,0,188,0.0,75.0
2917,64.0,192,188,0.0,68.0
2918,76.0,0,380,0.0,88.0
2919,60.0,0,188,0.0,81.0
2920,55.0,192,188,0.0,80.0
2921,74.0,0,188,0.0,87.0
2922,64.0,192,188,0.0,63.0
2923,72.0,0,188,0.0,72.0
2924,60.0,192,188,0.0,80.0
2925,71.0,0,188,0.0,82.0
2926,55.0,0,188,0.0,84.0
2927,64.0,0,188,0.0,72.0
2928,69.0,192,188,0.0,78.0
2929,55.0,0,188,0.0,82.0
2930,60.0,192,188,0.0,78.0
2931,68.0,0,188,0.0,84.0
2932,64.0,192,188,0.0,68.0
2933,69.0,0,188,0.0,82.0
2934,55.0,0,188,0.0,80.0
2935,60.0,0,188,0.0,78.0
2936,72.0,192,188,0.0,79.0
2937,64.0,192,188,0.0,66.0
2938,69.0,0,188,0.0,87.0
2939,55.0,192,188,0.0,70.0
2940,57.0,0,188,0.0,74.0
2941,60.0,0,188,0.0,70.0
2942,62.0,192,188,0.0,35.0
2943,55.0,192,188,0.0,81.0
2944,60.0,0,188,0.0,85.0
2945,57.0,0,188,0.0,78.0
2946,70.0,48,44,0.0,74.0
2947,69.0,48,44,0.0,76.0
2948,66.0,0,764,0.0,81.0
2949,62.0,192,188,0.0,75.0
2950,68.0,48,44,0.0,73.0
2951,55.0,0,188,0.0,77.0
2952,60.0,0,188,0.0,75.0
2953,57.0,0,188,0.0,72.0
2954,69.0,48,380,0.0,74.0
2955,62.0,192,188,0.0,78.0
2956,72.0,0,124,0.0,73.0
2957,55.0,0,188,0.0,78.0
2958,60.0,192,188,0.0,73.0
2959,57.0,0,188,0.0,68.0
2960,62.0,192,188,0.0,79.0
2961,69.0,192,124,0.0,78.0
2962,60.0,0,188,0.0,74.0
2963,55.0,0,188,0.0,72.0
2964,57.0,0,188,0.0,68.0
2965,62.0,192,188,0.0,80.0
2966,66.0,0,124,0.0,84.0
2967,60.0,192,188,0.0,75.0
2968,57.0,0,188,0.0,74.0
2969,55.0,0,188,0.0,67.0
2970,62.0,192,188,0.0,68.0
2971,67.0,0,188,0.0,94.0
2972,62.0,192,188,0.0,90.0
2973,61.0,192,188,0.0,92.0
2974,62.0,192,188,0.0,84.0
2975,66.0,192,188,0.0,89.0
2976,67.0,192,188,0.0,97.0
2977,55.0,0,1148,0.0,83.0
2978,59.0,192,1148,0.0,76.0
2979,69.0,0,188,0.0,87.0
2980,62.0,192,188,0.0,83.0
2981,61.0,192,188,0.0,88.0
2982,62.0,192,188,0.0,84.0
2983,67.0,192,188,0.0,92.0
2984,69.0,192,188,0.0,80.0
2985,54.0,192,1148,0.0,85.0
2986,57.0,0,1148,0.0,82.0
2987,71.0,192,188,0.0,82.0
2988,67.0,192,188,0.0,79.0
2989,66.0,192,188,0.0,84.0
2990,67.0,192,188,0.0,86.0
2991,69.0,192,188,0.0,86.0
2992,59.0,0,1148,0.0,76.0
2993,55.0,0,1148,0.0,93.0
2994,71.0,192,188,0.0,84.0
2995,72.0,0,188,0.0,81.0
2996,67.0,192,188,0.0,88.0
2997,66.0,192,188,0.0,82.0
2998,67.0,192,188,0.0,86.0
2999,71.0,192,188,0.0,82.0
3000,60.0,192,1148,0.0,80.0
3001,57.0,0,1148,0.0,86.0
3002,72.0,192,188,0.0,80.0
3003,47.0,192,188,0.0,66.0
3004,50.0,192,188,0.0,59.0
3005,74.0,0,380,0.0,70.0
3006,55.0,192,188,0.0,56.0
3007,59.0,0,188,0.0,29.0
3008,62.0,192,188,0.0,43.0
3009,67.0,192,188,0.0,65.0
3010,71.0,192,188,0.0,55.0
3011,74.0,192,188,0.0,42.0
3012,67.0,192,188,0.0,56.0
3013,71.0,192,188,0.0,64.0
3014,74.0,192,188,0.0,75.0
3015,79.0,192,188,0.0,66.0
3016,71.0,192,188,0.0,63.0
3017,74.0,192,188,0.0,62.0
3018,79.0,192,188,0.0,65.0
3019,83.0,192,188,0.0,77.0
3020,74.0,192,188,0.0,63.0
3021,79.0,192,188,0.0,70.0
3022,83.0,192,188,0.0,68.0
3023,86.0,192,188,0.0,74.0
3024,84.0,192,188,0.0,74.0
3025,83.0,192,188,0.0,68.0
3026,81.0,192,188,0.0,55.0
3027,79.0,192,188,0.0,68.0
3028,77.0,192,188,0.0,70.0
3029,48.0,0,188,0.0,55.0
3030,52.0,192,188,0.0,59.0
3031,76.0,192,380,0.0,66.0
3032,55.0,192,188,0.0,59.0
3033,60.0,192,188,0.0,53.0
3034,64.0,0,188,0.0,59.0
3035,67.0,192,188,0.0,70.0
3036,72.0,192,188,0.0,62.0
3037,76.0,192,188,0.0,79.0
3038,64.0,192,188,0.0,41.0
3039,67.0,192,188,0.0,65.0
3040,72.0,192,188,0.0,64.0
3041,76.0,192,188,0.0,73.0
3042,67.0,192,188,0.0,65.0
3043,72.0,192,188,0.0,60.0
3044,76.0,192,188,0.0,71.0
3045,79.0,192,188,0.0,69.0
3046,72.0,192,188,0.0,63.0
3047,76.0,192,188,0.0,75.0
3048,79.0,192,188,0.0,70.0
3049,84.0,192,188,0.0,70.0
3050,76.0,192,188,0.0,68.0
3051,79.0,192,188,0.0,65.0
3052,84.0,192,188,0.0,66.0
3053,88.0,192,188,0.0,68.0
3054,86.0,192,188,0.0,74.0
3055,45.0,0,188,0.0,70.0
3056,49.0,192,188,0.0,64.0
3057,85.0,192,380,0.0,69.0
3058,52.0,192,188,0.0,64.0
3059,61.0,192,188,0.0,75.0
3060,55.0,0,188,0.0,71.0
3061,64.0,192,188,0.0,69.0
3062,67.0,192,188,0.0,78.0
3063,73.0,192,188,0.0,79.0
3064,64.0,192,188,0.0,62.0
3065,67.0,192,188,0.0,73.0
3066,73.0,192,188,0.0,75.0
3067,76.0,192,188,0.0,72.0
3068,67.0,192,188,0.0,70.0
3069,73.0,192,188,0.0,71.0
3070,76.0,192,188,0.0,77.0
3071,79.0,192,188,0.0,75.0
3072,73.0,192,188,0.0,62.0
3073,76.0,192,188,0.0,74.0
3074,79.0,192,188,0.0,78.0
3075,85.0,192,188,0.0,78.0
3076,88.0,192,188,0.0,72.0
3077,81.0,192,188,0.0,62.0
3078,61.0,0,380,0.0,68.0
3079,64.0,0,380,0.0,68.0
3080,83.0,192,188,0.0,58.0
3081,81.0,192,188,0.0,63.0
3082,64.0,0,380,0.0,62.0
3083,67.0,0,380,0.0,52.0
3084,83.0,192,188,0.0,66.0
3085,66.0,0,188,0.0,64.0
3086,67.0,192,188,0.0,53.0
3087,62.0,192,380,0.0,60.0
3088,69.0,192,188,0.0,60.0
3089,71.0,192,188,0.0,63.0
3090,73.0,192,188,0.0,65.0
3091,81.0,0,1148,0.0,63.0
3092,78.0,0,1148,0.0,62.0
3093,74.0,192,188,0.0,77.0
3094,73.0,192,188,0.0,69.0
3095,71.0,192,188,0.0,54.0
3096,69.0,192,188,0.0,59.0
3097,67.0,192,188,0.0,70.0
3098,66.0,192,188,0.0,64.0
3099,81.0,0,1148,0.0,69.0
3100,79.0,0,1148,0.0,74.0
3101,64.0,192,188,0.0,59.0
3102,62.0,192,188,0.0,66.0
3103,60.0,192,188,0.0,76.0
3104,59.0,192,188,0.0,83.0
3105,57.0,192,188,0.0,85.0
3106,55.0,192,188,0.0,85.0
3107,54.0,192,188,0.0,85.0
3108,84.0,0,1148,0.0,100.0
3109,81.0,0,1148,0.0,88.0
3110,55.0,192,188,0.0,60.0
3111,83.0,0,380,0.0,59.0
3112,79.0,0,380,0.0,60.0
3113,57.0,192,188,0.0,51.0
3114,59.0,0,188,0.0,52.0
3115,61.0,192,188,0.0,61.0
3116,83.0,0,380,0.0,62.0
3117,79.0,192,380,0.0,51.0
3118,62.0,192,188,0.0,60.0
3119,79.0,0,380,0.0,51.0
3120,83.0,0,380,0.0,56.0
3121,64.0,192,188,0.0,61.0
3122,66.0,0,188,0.0,69.0
3123,62.0,192,380,0.0,60.0
3124,67.0,192,188,0.0,60.0
3125,69.0,192,188,0.0,55.0
3126,71.0,192,188,0.0,59.0
3127,73.0,192,188,0.0,70.0
3128,81.0,0,1148,0.0,46.0
3129,78.0,0,1148,0.0,56.0
3130,74.0,192,188,0.0,69.0
3131,73.0,192,188,0.0,56.0
3132,71.0,192,188,0.0,62.0
3133,69.0,192,188,0.0,59.0
3134,67.0,192,188,0.0,72.0
3135,66.0,192,188,0.0,67.0
3136,79.0,0,1148,0.0,66.0
3137,81.0,0,1148,0.0,61.0
3138,64.0,192,188,0.0,78.0
3139,62.0,192,188,0.0,88.0
3140,60.0,192,188,0.0,80.0
3141,59.0,192,188,0.0,70.0
3142,57.0,192,188,0.0,78.0
3143,55.0,192,188,0.0,82.0
3144,84.0,0,1148,0.0,96.0
3145,81.0,0,1148,0.0,81.0
3146,54.0,192,188,0.0,75.0
3147,55.0,192,188,0.0,63.0
3148,83.0,0,380,0.0,58.0
3149,79.0,0,380,0.0,54.0
3150,57.0,192,188,0.0,59.0
3151,59.0,192,188,0.0,64.0
3152,83.0,0,380,0.0,62.0
3153,79.0,0,380,0.0,60.0
3154,61.0,192,188,0.0,51.0
3155,62.0,0,188,0.0,52.0
3156,79.0,192,380,0.0,59.0
3157,64.0,192,188,0.0,68.0
3158,83.0,0,380,0.0,66.0
3159,78.0,0,188,0.0,61.0
3160,81.0,0,188,0.0,60.0
3161,79.0,192,188,0.0,59.0
3162,81.0,192,188,0.0,59.0
3163,83.0,192,188,0.0,66.0
3164,85.0,192,188,0.0,67.0
3165,86.0,192,188,0.0,64.0
3166,69.0,0,1148,0.0,60.0
3167,66.0,0,1148,0.0,47.0
3168,85.0,0,188,0.0,62.0
3169,83.0,192,188,0.0,54.0
3170,81.0,192,188,0.0,48.0
3171,79.0,192,188,0.0,54.0
3172,78.0,192,188,0.0,57.0
3173,62.0,192,2300,0.0,62.0
3174,67.0,0,1148,0.0,66.0
3175,64.0,192,1148,0.0,62.0
3176,76.0,192,188,0.0,66.0
3177,79.0,0,188,0.0,55.0
3178,81.0,192,188,0.0,60.0
3179,83.0,192,188,0.0,63.0
3180,85.0,192,188,0.0,69.0
3181,86.0,192,188,0.0,70.0
3182,73.0,0,1148,0.0,65.0
3183,67.0,0,1148,0.0,69.0
3184,88.0,192,188,0.0,70.0
3185,86.0,0,188,0.0,74.0
3186,84.0,192,188,0.0,80.0
3187,83.0,192,188,0.0,75.0
3188,81.0,192,188,0.0,66.0
3189,79.0,192,188,0.0,59.0
3190,78.0,192,188,0.0,54.0
3191,66.0,0,1148,0.0,58.0
3192,62.0,192,2300,0.0,68.0
3193,69.0,192,1148,0.0,55.0
3194,81.0,0,188,0.0,60.0
3195,84.0,192,188,0.0,72.0
3196,90.0,192,188,0.0,65.0
3197,84.0,192,188,0.0,78.0
3198,93.0,192,188,0.0,92.0
3199,90.0,192,188,0.0,83.0
3200,72.0,192,1148,0.0,60.0
3201,62.0,0,1148,0.0,53.0
3202,69.0,0,1148,0.0,60.0
3203,66.0,0,1148,0.0,59.0
3204,93.0,0,188,0.0,86.0
3205,90.0,192,188,0.0,84.0
3206,93.0,192,188,0.0,99.0
3207,90.0,192,188,0.0,88.0
3208,93.0,192,188,0.0,97.0
3209,63.0,0,1148,0.0,87.0
3210,69.0,0,1148,0.0,84.0
3211,72.0,0,1148,0.0,84.0
3212,66.0,192,1148,0.0,83.0
3213,90.0,192,188,0.0,84.0
3214,93.0,0,188,0.0,92.0
3215,90.0,192,188,0.0,84.0
3216,86.0,192,188,0.0,85.0
3217,62.0,0,764,0.0,88.0
3218,88.0,192,188,0.0,88.0
3219,72.0,192,764,0.0,82.0
3220,66.0,0,764,0.0,80.0
3221,69.0,0,764,0.0,82.0
3222,90.0,0,188,0.0,85.0
3223,60.0,0,380,0.0,76.0
3224,69.0,0,380,0.0,72.0
3225,66.0,192,380,0.0,55.0
3226,86.0,192,188,0.0,83.0
3227,91.0,0,188,0.0,85.0
3228,86.0,192,188,0.0,79.0
3229,91.0,192,188,0.0,77.0
3230,86.0,192,188,0.0,69.0
3231,59.0,192,764,0.0,56.0
3232,62.0,0,764,0.0,68.0
3233,67.0,0,764,0.0,73.0
3234,83.0,192,188,0.0,63.0
3235,79.0,192,188,0.0,62.0
3236,55.0,0,380,0.0,66.0
3237,67.0,0,380,0.0,70.0
3238,62.0,0,380,0.0,66.0
3239,81.0,192,188,0.0,62.0
3240,84.0,192,188,0.0,73.0
3241,90.0,192,188,0.0,74.0
3242,84.0,192,188,0.0,81.0
3243,93.0,192,188,0.0,86.0
3244,62.0,0,1148,0.0,39.0
3245,66.0,0,1148,0.0,43.0
3246,69.0,0,1148,0.0,51.0
3247,90.0,192,188,0.0,85.0
3248,72.0,0,1148,0.0,58.0
3249,93.0,192,188,0.0,89.0
3250,90.0,192,188,0.0,93.0
3251,93.0,192,188,0.0,103.0
3252,90.0,192,188,0.0,91.0
3253,93.0,192,188,0.0,99.0
3254,69.0,0,1148,0.0,75.0
3255,90.0,192,188,0.0,89.0
3256,66.0,0,1148,0.0,77.0
3257,72.0,0,1148,0.0,80.0
3258,63.0,0,1148,0.0,86.0
3259,93.0,0,188,0.0,99.0
3260,90.0,192,188,0.0,85.0
3261,92.0,0,188,0.0,44.0
3262,86.0,192,188,0.0,89.0
3263,72.0,0,764,0.0,89.0
3264,62.0,0,764,0.0,96.0
3265,69.0,192,764,0.0,85.0
3266,88.0,192,188,0.0,93.0
3267,66.0,0,764,0.0,87.0
3268,90.0,192,188,0.0,88.0
3269,86.0,192,188,0.0,85.0
3270,60.0,0,380,0.0,72.0
3271,69.0,0,380,0.0,66.0
3272,66.0,0,380,0.0,63.0
3273,91.0,192,188,0.0,87.0
3274,86.0,192,188,0.0,80.0
3275,91.0,192,188,0.0,72.0
3276,86.0,192,188,0.0,61.0
3277,62.0,0,764,0.0,63.0
3278,67.0,0,764,0.0,64.0
3279,59.0,0,764,0.0,55.0
3280,83.0,192,188,0.0,48.0
3281,55.0,0,380,0.0,58.0
3282,79.0,192,188,0.0,49.0
3283,67.0,0,380,0.0,62.0
3284,62.0,0,380,0.0,67.0
3285,88.0,192,188,0.0,63.0
3286,64.0,0,380,0.0,58.0
3287,60.0,0,380,0.0,54.0
3288,67.0,0,380,0.0,58.0
3289,84.0,192,188,0.0,71.0
3290,88.0,192,188,0.0,62.0
3291,84.0,192,188,0.0,62.0
3292,79.0,192,188,0.0,68.0
3293,69.0,0,380,0.0,53.0
3294,76.0,192,188,0.0,64.0
3295,60.0,0,380,0.0,51.0
3296,64.0,0,380,0.0,51.0
3297,67.0,0,380,0.0,64.0
3298,71.0,192,380,0.0,58.0
3299,62.0,0,380,0.0,42.0
3300,74.0,0,764,0.0,55.0
3301,81.0,0,72,0.0,55.0
3302,83.0,72,72,0.0,58.0
3303,81.0,72,72,0.0,55.0
3304,83.0,68,72,0.0,58.0
3305,79.0,76,44,0.0,55.0
3306,81.0,48,44,0.0,56.0
3307,66.0,768,380,0.0,49.0
3308,72.0,0,380,0.0,49.0
3309,62.0,0,380,0.0,34.0
3310,79.0,48,124,0.0,93.0
3311,55.0,0,188,0.0,82.0
3312,59.0,0,188,0.0,70.0
3313,62.0,192,188,0.0,79.0
3314,74.0,0,124,0.0,90.0
3315,86.0,0,124,0.0,90.0
3316,55.0,0,188,0.0,79.0
3317,59.0,192,188,0.0,73.0
3318,62.0,192,188,0.0,82.0
3319,67.0,0,124,0.0,86.0
3320,79.0,0,124,0.0,81.0
3321,59.0,192,188,0.0,73.0
3322,55.0,0,188,0.0,82.0
3323,62.0,192,188,0.0,79.0
3324,60.0,0,188,0.0,80.0
3325,55.0,192,188,0.0,81.0
3326,57.0,0,188,0.0,77.0
3327,62.0,192,188,0.0,78.0
3328,72.0,0,124,0.0,82.0
3329,84.0,0,124,0.0,90.0
3330,55.0,0,188,0.0,77.0
3331,60.0,192,188,0.0,78.0
3332,57.0,0,188,0.0,70.0
3333,62.0,192,188,0.0,71.0
3334,66.0,0,124,0.0,89.0
3335,78.0,192,124,0.0,89.0
3336,60.0,0,188,0.0,74.0
3337,57.0,0,188,0.0,68.0
3338,55.0,0,188,0.0,66.0
3339,62.0,192,188,0.0,77.0
3340,50.0,192,188,0.0,53.0
3341,47.0,192,188,0.0,60.0
3342,74.0,0,124,0.0,58.0
3343,62.0,0,124,0.0,57.0
3344,50.0,192,188,0.0,45.0
3345,47.0,192,188,0.0,55.0
3346,55.0,0,124,0.0,55.0
3347,67.0,0,124,0.0,62.0
3348,50.0,192,188,0.0,53.0
3349,47.0,192,188,0.0,41.0
3350,50.0,192,188,0.0,51.0
3351,45.0,192,188,0.0,64.0
3352,72.0,0,124,0.0,60.0
3353,60.0,192,124,0.0,57.0
3354,50.0,0,188,0.0,34.0
3355,45.0,192,188,0.0,45.0
3356,54.0,0,124,0.0,56.0
3357,66.0,0,124,0.0,67.0
3358,50.0,192,188,0.0,55.0
3359,38.0,192,188,0.0,28.0
3360,55.0,0,188,0.0,64.0
3361,59.0,192,188,0.0,65.0
3362,62.0,192,188,0.0,68.0
3363,74.0,192,124,0.0,90.0
3364,86.0,0,124,0.0,89.0
3365,55.0,0,188,0.0,74.0
3366,59.0,0,188,0.0,63.0
3367,62.0,192,188,0.0,74.0
3368,67.0,0,124,0.0,88.0
3369,79.0,0,124,0.0,88.0
3370,59.0,0,188,0.0,66.0
3371,55.0,192,188,0.0,70.0
3372,62.0,192,188,0.0,65.0
3373,55.0,0,188,0.0,70.0
3374,60.0,0,188,0.0,67.0
3375,57.0,192,188,0.0,68.0
3376,62.0,192,188,0.0,64.0
3377,72.0,0,124,0.0,86.0
3378,84.0,0,124,0.0,90.0
3379,60.0,0,188,0.0,72.0
3380,57.0,192,188,0.0,63.0
3381,55.0,0,188,0.0,68.0
3382,62.0,192,188,0.0,68.0
3383,78.0,192,124,0.0,85.0
3384,66.0,0,124,0.0,83.0
3385,57.0,0,188,0.0,69.0
3386,60.0,0,188,0.0,62.0
3387,55.0,0,188,0.0,66.0
3388,62.0,192,188,0.0,68.0
3389,47.0,192,188,0.0,52.0
3390,50.0,192,188,0.0,39.0
3391,74.0,0,124,0.0,64.0
3392,62.0,0,124,0.0,45.0
3393,47.0,192,188,0.0,28.0
3394,50.0,192,188,0.0,33.0
3395,55.0,0,124,0.0,55.0
3396,67.0,0,124,0.0,45.0
3397,47.0,192,188,0.0,56.0
3398,50.0,192,188,0.0,58.0
3399,45.0,192,188,0.0,55.0
3400,50.0,192,188,0.0,52.0
3401,60.0,0,124,0.0,53.0
3402,72.0,0,124,0.0,63.0
3403,45.0,192,188,0.0,65.0
3404,50.0,192,188,0.0,55.0
3405,54.0,0,124,0.0,46.0
3406,66.0,0,124,0.0,55.0
3407,38.0,192,188,0.0,53.0
3408,50.0,192,188,0.0,55.0
3409,43.0,0,124,0.0,90.0
3410,71.0,0,188,0.0,83.0
3411,67.0,192,188,0.0,87.0
3412,62.0,192,188,0.0,77.0
3413,47.0,0,124,0.0,96.0
3414,67.0,0,188,0.0,88.0
3415,71.0,192,188,0.0,87.0
3416,62.0,192,188,0.0,81.0
3417,43.0,192,124,0.0,94.0
3418,71.0,0,188,0.0,88.0
3419,67.0,0,188,0.0,87.0
3420,62.0,192,188,0.0,81.0
3421,67.0,192,188,0.0,87.0
3422,71.0,0,188,0.0,79.0
3423,62.0,192,188,0.0,74.0
3424,71.0,192,188,0.0,74.0
3425,67.0,0,188,0.0,81.0
3426,50.0,0,764,0.0,92.0
3427,62.0,192,188,0.0,66.0
3428,71.0,192,188,0.0,74.0
3429,48.0,0,188,0.0,68.0
3430,67.0,0,188,0.0,81.0
3431,47.0,192,188,0.0,70.0
3432,62.0,0,188,0.0,74.0
3433,71.0,192,188,0.0,81.0
3434,67.0,0,188,0.0,84.0
3435,45.0,0,188,0.0,74.0
3436,62.0,0,188,0.0,72.0
3437,43.0,192,188,0.0,67.0
3438,71.0,192,188,0.0,79.0
3439,67.0,0,188,0.0,82.0
3440,42.0,0,188,0.0,69.0
3441,43.0,192,188,0.0,72.0
3442,62.0,0,188,0.0,63.0
3443,71.0,0,188,0.0,80.0
3444,67.0,0,188,0.0,85.0
3445,47.0,192,188,0.0,70.0
3446,43.0,0,188,0.0,74.0
3447,62.0,192,188,0.0,76.0
3448,67.0,0,188,0.0,87.0
3449,72.0,0,188,0.0,80.0
3450,42.0,192,380,0.0,73.0
3451,60.0,192,188,0.0,63.0
3452,40.0,192,124,0.0,76.0
3453,67.0,0,188,0.0,87.0
3454,72.0,0,188,0.0,77.0
3455,60.0,192,188,0.0,72.0
3456,40.0,0,124,0.0,74.0
3457,72.0,192,188,0.0,74.0
3458,67.0,0,188,0.0,82.0
3459,60.0,192,188,0.0,72.0
3460,69.0,192,124,0.0,78.0
3461,48.0,0,188,0.0,80.0
3462,52.0,0,188,0.0,78.0
3463,57.0,192,188,0.0,76.0
3464,72.0,0,124,0.0,83.0
3465,48.0,0,188,0.0,85.0
3466,52.0,192,188,0.0,83.0
3467,57.0,192,188,0.0,79.0
3468,69.0,192,124,0.0,87.0
3469,52.0,0,188,0.0,82.0
3470,48.0,0,188,0.0,76.0
3471,57.0,192,188,0.0,84.0
3472,52.0,192,188,0.0,78.0
3473,48.0,0,188,0.0,85.0
3474,57.0,192,188,0.0,74.0
3475,48.0,192,188,0.0,78.0
3476,52.0,0,188,0.0,82.0
3477,57.0,192,188,0.0,70.0
3478,76.0,0,764,0.0,105.0
3479,52.0,0,188,0.0,83.0
3480,48.0,192,188,0.0,79.0
3481,74.0,0,188,0.0,79.0
3482,57.0,192,188,0.0,70.0
3483,72.0,0,188,0.0,73.0
3484,50.0,192,188,0.0,71.0
3485,57.0,0,188,0.0,75.0
3486,71.0,0,188,0.0,75.0
3487,69.0,0,188,0.0,74.0
3488,60.0,192,188,0.0,68.0
3489,72.0,0,188,0.0,80.0
3490,50.0,192,188,0.0,73.0
3491,57.0,0,188,0.0,82.0
3492,60.0,0,188,0.0,84.0
3493,69.0,192,188,0.0,74.0
3494,57.0,0,188,0.0,74.0
3495,50.0,192,188,0.0,72.0
3496,66.0,0,188,0.0,73.0
3497,60.0,192,188,0.0,79.0
3498,69.0,0,188,0.0,72.0
3499,59.0,0,188,0.0,70.0
3500,55.0,0,188,0.0,78.0
3501,69.0,192,380,0.0,73.0
3502,62.0,192,188,0.0,70.0
3503,67.0,0,124,0.0,73.0
3504,55.0,0,188,0.0,81.0
3505,59.0,192,188,0.0,78.0
3506,62.0,192,188,0.0,80.0
3507,67.0,0,124,0.0,78.0
3508,55.0,192,188,0.0,81.0
3509,59.0,0,188,0.0,77.0
3510,54.0,144,44,0.0,64.0
3511,62.0,192,188,0.0,74.0
3512,55.0,0,124,0.0,77.0
3513,71.0,48,188,0.0,82.0
3514,74.0,0,188,0.0,85.0
3515,67.0,192,188,0.0,83.0
3516,57.0,144,44,0.0,64.0
3517,59.0,0,124,0.0,77.0
3518,74.0,48,188,0.0,89.0
3519,71.0,0,188,0.0,85.0
3520,67.0,192,188,0.0,86.0
3521,54.0,144,44,0.0,69.0
3522,55.0,48,124,0.0,79.0
3523,74.0,0,188,0.0,87.0
3524,71.0,0,188,0.0,85.0
3525,61.0,144,44,0.0,70.0
3526,67.0,192,188,0.0,87.0
3527,74.0,48,188,0.0,82.0
3528,71.0,0,188,0.0,82.0
3529,67.0,192,188,0.0,81.0
3530,74.0,0,188,0.0,82.0
3531,71.0,192,188,0.0,84.0
3532,67.0,192,188,0.0,87.0
3533,62.0,0,764,0.0,85.0
3534,71.0,0,188,0.0,83.0
3535,74.0,0,188,0.0,84.0
3536,60.0,192,188,0.0,68.0
3537,67.0,0,188,0.0,86.0
3538,59.0,192,188,0.0,71.0
3539,57.0,192,188,0.0,74.0
3540,71.0,0,188,0.0,79.0
3541,74.0,0,188,0.0,77.0
3542,67.0,0,188,0.0,79.0
3543,55.0,192,188,0.0,68.0
3544,54.0,0,188,0.0,69.0
3545,71.0,0,188,0.0,75.0
3546,74.0,192,188,0.0,75.0
3547,55.0,0,188,0.0,70.0
3548,67.0,192,188,0.0,82.0
3549,59.0,192,188,0.0,68.0
3550,71.0,0,188,0.0,74.0
3551,74.0,0,188,0.0,78.0
3552,55.0,0,188,0.0,85.0
3553,67.0,192,188,0.0,77.0
3554,79.0,0,188,0.0,75.0
3555,72.0,0,188,0.0,73.0
3556,54.0,192,380,0.0,74.0
3557,67.0,192,188,0.0,72.0
3558,52.0,192,124,0.0,82.0
3559,79.0,0,188,0.0,78.0
3560,72.0,0,188,0.0,74.0
3561,67.0,192,188,0.0,62.0
3562,52.0,0,124,0.0,82.0
3563,79.0,192,188,0.0,74.0
3564,72.0,0,188,0.0,72.0
3565,80.0,144,44,0.0,78.0
3566,67.0,192,188,0.0,79.0
3567,81.0,48,124,0.0,93.0
3568,48.0,0,188,0.0,90.0
3569,52.0,0,188,0.0,88.0
3570,57.0,192,188,0.0,92.0
3571,83.0,144,44,0.0,74.0
3572,84.0,0,124,0.0,102.0
3573,48.0,48,188,0.0,88.0
3574,52.0,0,188,0.0,85.0
3575,57.0,192,188,0.0,85.0
3576,80.0,144,44,0.0,73.0
3577,81.0,48,124,0.0,94.0
3578,52.0,0,188,0.0,86.0
3579,48.0,0,188,0.0,84.0
3580,87.0,144,44,0.0,70.0
3581,57.0,192,188,0.0,81.0
3582,52.0,48,188,0.0,83.0
3583,48.0,0,188,0.0,84.0
3584,57.0,192,188,0.0,86.0
3585,52.0,0,188,0.0,83.0
3586,48.0,192,188,0.0,82.0
3587,57.0,192,188,0.0,80.0
3588,88.0,0,764,0.0,100.0
3589,48.0,0,188,0.0,84.0
3590,86.0,192,188,0.0,76.0
3591,52.0,0,188,0.0,85.0
3592,57.0,192,188,0.0,82.0
3593,84.0,0,188,0.0,89.0
3594,57.0,0,188,0.0,84.0
3595,50.0,0,188,0.0,82.0
3596,83.0,192,188,0.0,82.0
3597,60.0,192,188,0.0,85.0
3598,81.0,0,188,0.0,72.0
3599,50.0,192,188,0.0,83.0
3600,57.0,0,188,0.0,80.0
3601,84.0,0,188,0.0,86.0
3602,60.0,192,188,0.0,83.0
3603,81.0,0,188,0.0,74.0
3604,57.0,192,188,0.0,82.0
3605,50.0,0,188,0.0,82.0
3606,78.0,0,188,0.0,81.0
3607,60.0,192,188,0.0,87.0
3608,81.0,0,188,0.0,70.0
3609,79.0,192,188,0.0,61.0
3610,74.0,192,188,0.0,60.0
3611,43.0,0,380,0.0,55.0
3612,83.0,0,188,0.0,63.0
3613,59.0,0,380,0.0,48.0
3614,62.0,192,380,0.0,45.0
3615,79.0,192,188,0.0,59.0
3616,74.0,192,188,0.0,63.0
3617,71.0,192,188,0.0,61.0
3618,59.0,0,380,0.0,47.0
3619,55.0,0,380,0.0,41.0
3620,79.0,192,188,0.0,66.0
3621,43.0,0,380,0.0,46.0
3622,74.0,192,188,0.0,57.0
3623,83.0,0,188,0.0,64.0
3624,62.0,0,380,0.0,48.0
3625,79.0,192,188,0.0,59.0
3626,59.0,192,380,0.0,46.0
3627,74.0,192,188,0.0,65.0
3628,71.0,192,188,0.0,54.0
3629,55.0,0,380,0.0,31.0
3630,59.0,0,380,0.0,48.0
3631,79.0,192,188,0.0,63.0
3632,43.0,0,380,0.0,44.0
3633,74.0,192,188,0.0,58.0
3634,83.0,0,188,0.0,70.0
3635,79.0,192,188,0.0,62.0
3636,59.0,192,380,0.0,53.0
3637,62.0,0,380,0.0,21.0
3638,74.0,192,188,0.0,57.0
3639,71.0,192,188,0.0,55.0
3640,55.0,0,380,0.0,45.0
3641,59.0,0,380,0.0,48.0
3642,78.0,192,188,0.0,58.0
3643,50.0,0,380,0.0,62.0
3644,74.0,192,188,0.0,64.0
3645,81.0,0,188,0.0,62.0
3646,60.0,0,380,0.0,38.0
3647,78.0,192,188,0.0,59.0
3648,57.0,192,380,0.0,49.0
3649,74.0,192,188,0.0,66.0
3650,57.0,0,380,0.0,52.0
3651,54.0,0,380,0.0,39.0
3652,72.0,192,188,0.0,61.0
3653,74.0,192,188,0.0,70.0
3654,71.0,192,188,0.0,58.0
3655,43.0,0,380,0.0,44.0
3656,79.0,192,188,0.0,65.0
3657,62.0,0,380,0.0,25.0
3658,59.0,0,380,0.0,55.0
3659,74.0,192,188,0.0,58.0
3660,71.0,192,188,0.0,53.0
3661,59.0,0,380,0.0,42.0
3662,55.0,0,380,0.0,43.0
3663,67.0,192,188,0.0,55.0
3664,74.0,192,188,0.0,66.0
3665,43.0,0,380,0.0,34.0
3666,71.0,192,188,0.0,42.0
3667,79.0,192,188,0.0,59.0
3668,74.0,192,188,0.0,63.0
3669,59.0,0,380,0.0,42.0
3670,62.0,0,380,0.0,48.0
3671,71.0,0,188,0.0,44.0
3672,55.0,192,380,0.0,43.0
3673,59.0,0,380,0.0,43.0
3674,67.0,192,188,0.0,61.0
3675,74.0,192,188,0.0,62.0
3676,43.0,0,380,0.0,37.0
3677,71.0,192,188,0.0,48.0
3678,79.0,0,188,0.0,60.0
3679,62.0,192,380,0.0,50.0
3680,59.0,0,380,0.0,51.0
3681,74.0,192,188,0.0,59.0
3682,71.0,0,188,0.0,48.0
3683,55.0,192,380,0.0,48.0
3684,59.0,0,380,0.0,43.0
3685,67.0,192,188,0.0,51.0
3686,72.0,192,188,0.0,56.0
3687,50.0,0,380,0.0,44.0
3688,69.0,192,188,0.0,61.0
3689,74.0,192,188,0.0,60.0
3690,60.0,0,380,0.0,52.0
3691,57.0,0,380,0.0,45.0
3692,72.0,192,188,0.0,48.0
3693,69.0,0,188,0.0,47.0
3694,57.0,0,380,0.0,52.0
3695,50.0,192,380,0.0,46.0
3696,66.0,192,188,0.0,51.0
3697,31.0,0,188,0.0,48.0
3698,67.0,192,380,0.0,69.0
3699,35.0,192,188,0.0,47.0
3700,38.0,192,188,0.0,52.0
3701,55.0,192,188,0.0,57.0
3702,43.0,0,188,0.0,44.0
3703,47.0,192,188,0.0,38.0
3704,59.0,0,188,0.0,53.0
3705,50.0,192,188,0.0,32.0
3706,62.0,0,188,0.0,54.0
3707,67.0,192,188,0.0,52.0
3708,71.0,192,188,0.0,39.0
3709,43.0,0,380,0.0,55.0
3710,74.0,192,188,0.0,44.0
3711,79.0,192,188,0.0,48.0
3712,83.0,192,188,0.0,62.0
3713,86.0,192,188,0.0,60.0
3714,91.0,192,380,0.0,77.0
3715,43.0,5760,188,0.0,48.0
3716,50.0,192,188,0.0,55.0
3717,67.0,0,572,0.0,68.0
3718,58.0,0,572,0.0,33.0
3719,50.0,192,188,0.0,55.0
3720,43.0,0,188,0.0,52.0
3721,70.0,192,380,0.0,50.0
3722,67.0,0,380,0.0,57.0
3723,50.0,192,188,0.0,42.0
3724,50.0,0,188,0.0,46.0
3725,69.0,0,188,0.0,46.0
3726,72.0,192,188,0.0,59.0
3727,43.0,0,188,0.0,58.0
3728,50.0,192,188,0.0,64.0
3729,70.0,192,380,0.0,61.0
3730,74.0,0,380,0.0,74.0
3731,70.0,192,188,0.0,73.0
3732,50.0,0,188,0.0,69.0
3733,74.0,0,188,0.0,84.0
3734,43.0,0,188,0.0,66.0
3735,70.0,192,380,0.0,84.0
3736,74.0,0,380,0.0,92.0
3737,50.0,192,188,0.0,69.0
3738,50.0,192,188,0.0,64.0
3739,67.0,0,188,0.0,71.0
3740,70.0,0,188,0.0,69.0
3741,43.0,192,188,0.0,52.0
3742,58.0,0,380,0.0,62.0
3743,67.0,0,380,0.0,82.0
3744,50.0,192,188,0.0,51.0
3745,50.0,0,188,0.0,47.0
3746,67.0,192,188,0.0,58.0
3747,70.0,0,188,0.0,53.0
3748,38.0,192,188,0.0,29.0
3749,50.0,192,188,0.0,42.0
3750,69.0,0,572,0.0,68.0
3751,50.0,192,188,0.0,42.0
3752,66.0,0,572,0.0,53.0
3753,43.0,192,188,0.0,47.0
3754,50.0,192,188,0.0,31.0
3755,50.0,192,188,0.0,43.0
3756,58.0,0,572,0.0,35.0
3757,67.0,0,572,0.0,61.0
3758,43.0,0,188,0.0,56.0
3759,70.0,192,380,0.0,59.0
3760,67.0,0,380,0.0,66.0
3761,50.0,192,188,0.0,52.0
3762,50.0,0,188,0.0,65.0
3763,72.0,192,188,0.0,70.0
3764,69.0,0,188,0.0,59.0
3765,43.0,0,188,0.0,66.0
3766,70.0,0,380,0.0,65.0
3767,50.0,192,188,0.0,74.0
3768,74.0,192,380,0.0,77.0
3769,74.0,0,188,0.0,83.0
3770,70.0,192,188,0.0,73.0
3771,50.0,0,188,0.0,70.0
3772,41.0,0,188,0.0,66.0
3773,53.0,192,188,0.0,74.0
3774,70.0,0,380,0.0,82.0
3775,74.0,192,380,0.0,90.0
3776,62.0,192,188,0.0,74.0
3777,53.0,0,188,0.0,74.0
3778,70.0,0,188,0.0,77.0
3779,63.0,0,188,0.0,60.0
3780,72.0,192,188,0.0,76.0
3781,41.0,0,188,0.0,70.0
3782,75.0,0,188,0.0,69.0
3783,67.0,192,188,0.0,64.0
3784,53.0,0,188,0.0,66.0
3785,53.0,192,188,0.0,51.0
3786,69.0,0,188,0.0,56.0
3787,60.0,0,188,0.0,55.0
3788,46.0,0,188,0.0,42.0
3789,53.0,192,188,0.0,48.0
3790,53.0,192,188,0.0,45.0
3791,62.0,0,572,0.0,57.0
3792,70.0,192,572,0.0,60.0
3793,46.0,0,188,0.0,40.0
3794,74.0,192,380,0.0,56.0
3795,53.0,192,188,0.0,37.0
3796,70.0,0,380,0.0,46.0
3797,70.0,0,188,0.0,63.0
3798,62.0,0,188,0.0,58.0
3799,53.0,192,188,0.0,36.0
3800,41.0,0,188,0.0,59.0
3801,53.0,192,188,0.0,55.0
3802,72.0,192,380,0.0,63.0
3803,69.0,0,380,0.0,55.0
3804,74.0,192,188,0.0,79.0
3805,71.0,0,188,0.0,64.0
3806,53.0,0,188,0.0,65.0
3807,36.0,192,188,0.0,74.0
3808,48.0,192,188,0.0,80.0
3809,72.0,0,380,0.0,70.0
3810,75.0,0,380,0.0,74.0
3811,48.0,0,188,0.0,75.0
3812,72.0,192,188,0.0,70.0
3813,75.0,0,188,0.0,82.0
3814,36.0,0,188,0.0,62.0
3815,75.0,0,380,0.0,85.0
3816,48.0,192,188,0.0,64.0
3817,72.0,192,380,0.0,77.0
3818,48.0,0,188,0.0,70.0
3819,72.0,192,188,0.0,70.0
3820,69.0,0,188,0.0,62.0
3821,38.0,192,188,0.0,65.0
3822,66.0,0,188,0.0,55.0
3823,69.0,0,188,0.0,68.0
3824,72.0,192,188,0.0,65.0
3825,69.0,0,188,0.0,61.0
3826,50.0,0,188,0.0,60.0
3827,66.0,0,188,0.0,54.0
3828,69.0,0,188,0.0,59.0
3829,38.0,192,188,0.0,48.0
3830,67.0,0,188,0.0,44.0
3831,70.0,192,188,0.0,44.0
3832,43.0,0,188,0.0,52.0
3833,55.0,192,188,0.0,39.0
3834,43.0,0,188,0.0,48.0
3835,67.0,0,188,0.0,55.0
3836,70.0,0,188,0.0,51.0
3837,72.0,0,188,0.0,54.0
3838,41.0,192,188,0.0,46.0
3839,69.0,0,188,0.0,44.0
3840,53.0,0,188,0.0,26.0
3841,46.0,0,188,0.0,35.0
3842,53.0,192,188,0.0,40.0
3843,74.0,192,380,0.0,60.0
3844,70.0,0,380,0.0,38.0
3845,53.0,192,188,0.0,54.0
3846,70.0,0,188,0.0,45.0
3847,62.0,0,188,0.0,51.0
3848,41.0,0,188,0.0,57.0
3849,69.0,192,380,0.0,52.0
3850,72.0,0,380,0.0,62.0
3851,53.0,192,188,0.0,48.0
3852,71.0,0,188,0.0,65.0
3853,74.0,192,188,0.0,80.0
3854,53.0,0,188,0.0,64.0
3855,36.0,0,188,0.0,65.0
3856,72.0,192,380,0.0,58.0
3857,75.0,0,380,0.0,74.0
3858,48.0,192,188,0.0,74.0
3859,75.0,0,188,0.0,83.0
3860,48.0,0,188,0.0,79.0
3861,72.0,192,188,0.0,74.0
3862,36.0,0,188,0.0,44.0
3863,48.0,192,188,0.0,63.0
3864,72.0,0,380,0.0,76.0
3865,75.0,192,380,0.0,65.0
3866,69.0,192,188,0.0,45.0
3867,48.0,0,188,0.0,59.0
3868,72.0,0,188,0.0,42.0
3869,38.0,0,188,0.0,36.0
3870,66.0,0,188,0.0,55.0
3871,69.0,192,188,0.0,53.0
3872,50.0,0,188,0.0,44.0
3873,72.0,192,188,0.0,47.0
3874,69.0,0,188,0.0,60.0
3875,69.0,0,188,0.0,40.0
3876,66.0,0,188,0.0,46.0
3877,50.0,192,188,0.0,48.0
3878,43.0,0,188,0.0,33.0
3879,55.0,192,188,0.0,52.0
3880,58.0,0,572,0.0,40.0
3881,55.0,192,188,0.0,44.0
3882,67.0,192,572,0.0,44.0
3883,55.0,192,572,0.0,49.0
3884,55.0,0,572,0.0,42.0
3885,58.0,576,572,0.0,44.0
3886,53.0,576,572,0.0,43.0
3887,62.0,0,572,0.0,55.0
3888,58.0,0,572,0.0,46.0
3889,46.0,0,572,0.0,42.0
3890,56.0,0,572,0.0,23.0
3891,51.0,0,92,0.0,34.0
3892,55.0,96,92,0.0,29.0
3893,58.0,0,188,0.0,43.0
3894,63.0,576,188,0.0,49.0
3895,58.0,96,92,0.0,42.0
3896,55.0,96,92,0.0,39.0
3897,51.0,96,92,0.0,40.0
3898,46.0,96,92,0.0,32.0
3899,51.0,96,92,0.0,34.0
3900,55.0,96,92,0.0,43.0
3901,58.0,0,92,0.0,33.0
3902,55.0,96,92,0.0,10.0
3903,67.0,96,188,0.0,62.0
3904,51.0,96,92,0.0,26.0
3905,46.0,96,92,0.0,32.0
3906,67.0,0,188,0.0,56.0
3907,51.0,0,92,0.0,40.0
3908,55.0,96,92,0.0,36.0
3909,67.0,96,188,0.0,56.0
3910,58.0,96,92,0.0,38.0
3911,70.0,0,188,0.0,50.0
3912,55.0,96,92,0.0,46.0
3913,51.0,0,92,0.0,37.0
3914,70.0,72,20,0.0,39.0
3915,46.0,96,92,0.0,42.0
3916,51.0,0,92,0.0,34.0
3917,75.0,24,188,0.0,46.0
3918,55.0,96,92,0.0,36.0
3919,58.0,96,92,0.0,31.0
3920,55.0,96,92,0.0,32.0
3921,74.0,0,188,0.0,59.0
3922,51.0,0,92,0.0,33.0
3923,46.0,96,92,0.0,32.0
3924,72.0,96,188,0.0,58.0
3925,51.0,96,92,0.0,30.0
3926,70.0,0,188,0.0,56.0
3927,55.0,96,92,0.0,50.0
3928,58.0,96,92,0.0,30.0
3929,68.0,0,188,0.0,55.0
3930,55.0,96,92,0.0,34.0
3931,51.0,0,92,0.0,43.0
3932,46.0,96,92,0.0,39.0
3933,67.0,96,188,0.0,60.0
3934,53.0,96,92,0.0,28.0
3935,56.0,96,92,0.0,39.0
3936,58.0,96,92,0.0,32.0
3937,70.0,0,380,0.0,42.0
3938,56.0,96,92,0.0,34.0
3939,53.0,96,92,0.0,33.0
3940,65.0,72,20,0.0,53.0
3941,68.0,0,188,0.0,39.0
3942,46.0,96,92,0.0,31.0
3943,50.0,24,92,0.0,6.0
3944,77.0,0,188,0.0,77.0
3945,53.0,96,92,0.0,35.0
3946,58.0,0,92,0.0,37.0
3947,75.0,96,188,0.0,67.0
3948,53.0,96,92,0.0,44.0
3949,50.0,0,92,0.0,50.0
3950,74.0,96,188,0.0,61.0
3951,46.0,96,92,0.0,33.0
3952,50.0,96,92,0.0,44.0
3953,72.0,0,188,0.0,66.0
3954,53.0,96,92,0.0,28.0
3955,58.0,96,92,0.0,37.0
3956,70.0,0,188,0.0,53.0
3957,53.0,96,92,0.0,51.0
3958,50.0,0,92,0.0,43.0
3959,68.0,96,188,0.0,56.0
3960,46.0,96,92,0.0,38.0
3961,51.0,0,92,0.0,33.0
3962,55.0,96,92,0.0,37.0
3963,58.0,96,92,0.0,29.0
3964,66.0,96,380,0.0,54.0
3965,55.0,96,92,0.0,15.0
3966,51.0,0,92,0.0,27.0
3967,67.0,96,188,0.0,46.0
3968,46.0,96,92,0.0,22.0
3969,44.0,0,92,0.0,35.0
3970,46.0,96,92,0.0,33.0
3971,50.0,96,92,0.0,42.0
3972,65.0,96,380,0.0,53.0
3973,53.0,96,92,0.0,36.0
3974,68.0,96,92,0.0,42.0
3975,50.0,0,92,0.0,40.0
3976,46.0,0,92,0.0,35.0
3977,67.0,96,92,0.0,60.0
3978,44.0,0,92,0.0,37.0
3979,65.0,96,92,0.0,55.0
3980,67.0,0,92,0.0,68.0
3981,46.0,96,92,0.0,27.0
3982,68.0,96,92,0.0,60.0
3983,50.0,0,92,0.0,34.0
3984,70.0,96,92,0.0,53.0
3985,53.0,0,92,0.0,42.0
3986,72.0,0,92,0.0,68.0
3987,50.0,96,92,0.0,35.0
3988,70.0,0,92,0.0,63.0
3989,46.0,96,92,0.0,27.0
3990,70.0,96,20,0.0,38.0
3991,72.0,24,20,0.0,43.0
3992,70.0,24,20,0.0,38.0
3993,43.0,0,92,0.0,12.0
3994,72.0,24,20,0.0,42.0
3995,70.0,0,20,0.0,42.0
3996,72.0,24,20,0.0,49.0
3997,69.0,24,20,0.0,35.0
3998,70.0,24,20,0.0,44.0
3999,46.0,24,92,0.0,22.0
4000,51.0,0,92,0.0,30.0
4001,55.0,96,92,0.0,44.0
4002,75.0,24,188,0.0,77.0
4003,58.0,96,92,0.0,27.0
4004,55.0,96,92,0.0,42.0
4005,67.0,0,188,0.0,62.0
4006,56.0,96,92,0.0,38.0
4007,58.0,96,92,0.0,53.0
4008,62.0,96,92,0.0,40.0
4009,77.0,0,380,0.0,48.0
4010,65.0,96,92,0.0,41.0
4011,62.0,96,92,0.0,34.0
4012,80.0,0,92,0.0,55.0
4013,58.0,0,92,0.0,30.0
4014,79.0,96,92,0.0,53.0
4015,77.0,96,92,0.0,59.0
4016,56.0,0,92,0.0,38.0
4017,58.0,96,92,0.0,26.0
4018,79.0,0,92,0.0,58.0
4019,80.0,0,92,0.0,62.0
4020,62.0,96,92,0.0,26.0
4021,82.0,0,92,0.0,60.0
4022,65.0,96,92,0.0,30.0
4023,84.0,96,92,0.0,63.0
4024,62.0,0,92,0.0,36.0
4025,82.0,96,92,0.0,65.0
4026,58.0,0,92,0.0,30.0
4027,82.0,0,20,0.0,61.0
4028,84.0,24,20,0.0,53.0
4029,82.0,24,20,0.0,53.0
4030,84.0,24,20,0.0,58.0
4031,55.0,96,92,0.0,45.0
4032,82.0,0,20,0.0,60.0
4033,84.0,24,20,0.0,66.0
4034,81.0,24,20,0.0,49.0
4035,58.0,24,92,0.0,32.0
4036,82.0,24,20,0.0,54.0
4037,63.0,0,92,0.0,34.0
4038,87.0,24,188,0.0,56.0
4039,67.0,96,92,0.0,38.0
4040,63.0,96,92,0.0,37.0
4041,79.0,0,188,0.0,53.0
4042,58.0,96,92,0.0,33.0
4043,56.0,96,92,0.0,35.0
4044,60.0,96,92,0.0,44.0
4045,77.0,0,188,0.0,43.0
4046,65.0,0,92,0.0,40.0
4047,80.0,96,188,0.0,62.0
4048,68.0,96,92,0.0,37.0
4049,65.0,96,92,0.0,43.0
4050,84.0,0,188,0.0,66.0
4051,60.0,96,92,0.0,47.0
4052,58.0,96,92,0.0,46.0
4053,74.0,0,188,0.0,57.0
4054,62.0,96,92,0.0,52.0
4055,65.0,96,92,0.0,51.0
4056,68.0,96,92,0.0,57.0
4057,77.0,0,188,0.0,72.0
4058,65.0,0,92,0.0,54.0
4059,82.0,96,188,0.0,68.0
4060,62.0,96,92,0.0,60.0
4061,60.0,96,92,0.0,53.0
4062,59.0,96,92,0.0,53.0
4063,60.0,96,92,0.0,59.0
4064,80.0,0,380,0.0,65.0
4065,62.0,96,92,0.0,55.0
4066,63.0,96,92,0.0,53.0
4067,79.0,0,188,0.0,63.0
4068,60.0,96,92,0.0,48.0
4069,44.0,96,92,0.0,35.0
4070,65.0,0,188,0.0,51.0
4071,48.0,96,92,0.0,54.0
4072,53.0,0,92,0.0,46.0
4073,56.0,96,92,0.0,40.0
4074,68.0,96,188,0.0,44.0
4075,60.0,0,92,0.0,24.0
4076,56.0,96,92,0.0,36.0
4077,72.0,96,188,0.0,52.0
4078,46.0,96,92,0.0,32.0
4079,51.0,96,92,0.0,32.0
4080,63.0,0,188,0.0,49.0
4081,55.0,96,92,0.0,29.0
4082,67.0,0,188,0.0,55.0
4083,58.0,96,92,0.0,31.0
4084,55.0,0,92,0.0,37.0
4085,51.0,96,92,0.0,37.0
4086,70.0,96,188,0.0,54.0
4087,46.0,96,92,0.0,34.0
4088,56.0,0,188,0.0,51.0
4089,50.0,96,92,0.0,42.0
4090,53.0,0,92,0.0,36.0
4091,56.0,96,92,0.0,44.0
4092,58.0,96,188,0.0,57.0
4093,53.0,0,92,0.0,41.0
4094,56.0,96,92,0.0,42.0
4095,62.0,96,188,0.0,46.0
4096,43.0,96,92,0.0,44.0
4097,46.0,96,92,0.0,46.0
4098,51.0,96,92,0.0,47.0
4099,46.0,96,92,0.0,46.0
4100,43.0,96,92,0.0,40.0
4101,58.0,0,572,0.0,43.0
4102,63.0,0,572,0.0,35.0
4103,55.0,0,572,0.0,34.0
4104,39.0,96,92,0.0,42.0
4105,44.0,96,92,0.0,42.0
4106,48.0,96,92,0.0,52.0
4107,51.0,0,92,0.0,62.0
4108,72.0,0,188,0.0,57.0
4109,48.0,96,92,0.0,52.0
4110,75.0,96,188,0.0,51.0
4111,63.0,0,188,0.0,37.0
4112,44.0,0,92,0.0,44.0
4113,39.0,96,92,0.0,43.0
4114,72.0,96,188,0.0,68.0
4115,75.0,0,188,0.0,61.0
4116,63.0,0,188,0.0,54.0
4117,44.0,0,92,0.0,53.0
4118,48.0,96,92,0.0,57.0
4119,51.0,96,92,0.0,62.0
4120,48.0,96,92,0.0,62.0
4121,72.0,96,380,0.0,79.0
4122,75.0,0,380,0.0,72.0
4123,44.0,0,92,0.0,53.0
4124,39.0,96,92,0.0,42.0
4125,72.0,0,188,0.0,52.0
4126,69.0,96,188,0.0,55.0
4127,63.0,0,572,0.0,57.0
4128,43.0,96,92,0.0,49.0
4129,46.0,96,92,0.0,54.0
4130,51.0,96,92,0.0,57.0
4131,46.0,96,92,0.0,47.0
4132,43.0,96,92,0.0,54.0
4133,39.0,96,92,0.0,51.0
4134,63.0,0,572,0.0,54.0
4135,70.0,0,572,0.0,37.0
4136,43.0,0,92,0.0,51.0
4137,46.0,96,92,0.0,34.0
4138,51.0,96,92,0.0,35.0
4139,67.0,96,380,0.0,53.0
4140,46.0,96,92,0.0,38.0
4141,43.0,96,92,0.0,33.0
4142,70.0,0,188,0.0,40.0
4143,58.0,0,572,0.0,49.0
4144,63.0,0,572,0.0,50.0
4145,39.0,96,92,0.0,43.0
4146,41.0,0,92,0.0,31.0
4147,44.0,96,92,0.0,40.0
4148,70.0,96,188,0.0,44.0
4149,50.0,96,92,0.0,41.0
4150,68.0,0,188,0.0,44.0
4151,44.0,96,92,0.0,38.0
4152,67.0,96,64,0.0,54.0
4153,41.0,0,92,0.0,45.0
4154,70.0,64,64,0.0,45.0
4155,39.0,32,92,0.0,26.0
4156,62.0,0,572,0.0,48.0
4157,68.0,32,64,0.0,43.0
4158,43.0,0,92,0.0,44.0
4159,46.0,96,92,0.0,47.0
4160,51.0,96,92,0.0,50.0
4161,46.0,96,92,0.0,42.0
4162,43.0,96,92,0.0,44.0
4163,58.0,0,572,0.0,40.0
4164,39.0,96,92,0.0,37.0
4165,67.0,0,572,0.0,49.0
4166,63.0,64,572,0.0,61.0
4167,63.0,0,64,0.0,53.0
4168,44.0,96,92,0.0,42.0
4169,65.0,64,64,0.0,62.0
4170,48.0,32,92,0.0,52.0
4171,63.0,32,64,0.0,64.0
4172,62.0,64,44,0.0,61.0
4173,63.0,48,44,0.0,62.0
4174,51.0,0,92,0.0,55.0
4175,65.0,48,44,0.0,72.0
4176,67.0,48,44,0.0,82.0
4177,48.0,0,92,0.0,45.0
4178,68.0,48,38,0.0,64.0
4179,70.0,36,38,0.0,60.0
4180,44.0,0,92,0.0,42.0
4181,72.0,38,38,0.0,68.0
4182,74.0,16,38,0.0,74.0
4183,75.0,38,38,0.0,77.0
4184,39.0,22,92,0.0,39.0
4185,44.0,0,92,0.0,39.0
4186,77.0,42,92,0.0,72.0
4187,75.0,96,92,0.0,76.0
4188,48.0,0,92,0.0,54.0
4189,51.0,0,92,0.0,52.0
4190,74.0,96,92,0.0,82.0
4191,72.0,96,92,0.0,74.0
4192,48.0,0,92,0.0,52.0
4193,75.0,96,92,0.0,81.0
4194,44.0,0,92,0.0,53.0
4195,72.0,96,92,0.0,66.0
4196,39.0,0,92,0.0,57.0
4197,43.0,96,92,0.0,31.0
4198,46.0,96,92,0.0,31.0
4199,51.0,96,92,0.0,34.0
4200,46.0,96,92,0.0,31.0
4201,43.0,96,92,0.0,29.0
4202,70.0,0,572,0.0,40.0
4203,39.0,96,92,0.0,43.0
4204,43.0,0,92,0.0,33.0
4205,46.0,96,92,0.0,32.0
4206,51.0,96,92,0.0,46.0
4207,67.0,96,380,0.0,47.0
4208,58.0,0,380,0.0,53.0
4209,46.0,96,92,0.0,25.0
4210,43.0,0,92,0.0,32.0
4211,70.0,96,188,0.0,44.0
4212,61.0,0,188,0.0,54.0
4213,39.0,96,92,0.0,29.0
4214,43.0,0,92,0.0,31.0
4215,46.0,96,92,0.0,26.0
4216,51.0,96,92,0.0,31.0
4217,67.0,0,284,0.0,56.0
4218,60.0,96,380,0.0,53.0
4219,70.0,0,92,0.0,43.0
4220,39.0,96,92,0.0,32.0
4221,51.0,0,92,0.0,26.0
4222,69.0,0,92,0.0,46.0
4223,39.0,0,92,0.0,32.0
4224,67.0,96,92,0.0,47.0
4225,60.0,96,188,0.0,42.0
4226,38.0,0,188,0.0,39.0
4227,50.0,192,188,0.0,42.0
4228,50.0,192,188,0.0,39.0
4229,63.0,96,572,0.0,40.0
4230,66.0,0,572,0.0,48.0
4231,50.0,0,188,0.0,39.0
4232,62.0,192,188,0.0,38.0
4233,69.0,0,380,0.0,41.0
4234,66.0,192,380,0.0,58.0
4235,67.0,192,188,0.0,58.0
4236,62.0,0,188,0.0,34.0
4237,70.0,0,188,0.0,57.0
4238,69.0,0,92,0.0,72.0
4239,72.0,192,92,0.0,74.0
4240,75.0,96,92,0.0,81.0
4241,74.0,96,92,0.0,59.0
4242,72.0,96,92,0.0,54.0
4243,70.0,0,92,0.0,44.0
4244,50.0,96,188,0.0,44.0
4245,69.0,96,92,0.0,44.0
4246,43.0,96,188,0.0,48.0
4247,50.0,192,188,0.0,55.0
4248,50.0,192,188,0.0,55.0
4249,67.0,0,572,0.0,68.0
4250,58.0,0,572,0.0,33.0
4251,43.0,0,188,0.0,52.0
4252,67.0,0,380,0.0,57.0
4253,50.0,192,188,0.0,42.0
4254,70.0,192,380,0.0,50.0
4255,72.0,0,188,0.0,59.0
4256,69.0,0,188,0.0,46.0
4257,50.0,192,188,0.0,46.0
4258,43.0,0,188,0.0,58.0
4259,74.0,192,380,0.0,74.0
4260,70.0,0,380,0.0,61.0
4261,50.0,192,188,0.0,64.0
4262,70.0,192,188,0.0,73.0
4263,50.0,0,188,0.0,69.0
4264,74.0,0,188,0.0,84.0
4265,43.0,192,188,0.0,66.0
4266,70.0,0,380,0.0,84.0
4267,74.0,0,380,0.0,92.0
4268,50.0,192,188,0.0,69.0
4269,50.0,0,188,0.0,64.0
4270,70.0,0,188,0.0,69.0
4271,67.0,192,188,0.0,71.0
4272,43.0,0,188,0.0,52.0
4273,58.0,192,380,0.0,62.0
4274,67.0,0,380,0.0,82.0
4275,50.0,192,188,0.0,51.0
4276,70.0,0,188,0.0,53.0
4277,67.0,192,188,0.0,58.0
4278,50.0,0,188,0.0,47.0
4279,38.0,0,188,0.0,29.0
4280,50.0,192,188,0.0,42.0
4281,50.0,192,188,0.0,42.0
4282,69.0,192,572,0.0,68.0
4283,66.0,0,572,0.0,53.0
4284,43.0,0,188,0.0,47.0
4285,50.0,192,188,0.0,31.0
4286,67.0,192,572,0.0,61.0
4287,58.0,0,572,0.0,35.0
4288,50.0,192,188,0.0,43.0
4289,43.0,0,188,0.0,56.0
4290,67.0,192,380,0.0,66.0
4291,70.0,0,380,0.0,59.0
4292,50.0,192,188,0.0,52.0
4293,69.0,0,188,0.0,59.0
4294,50.0,0,188,0.0,65.0
4295,72.0,192,188,0.0,70.0
4296,43.0,192,188,0.0,66.0
4297,74.0,0,380,0.0,77.0
4298,70.0,0,380,0.0,65.0
4299,50.0,192,188,0.0,74.0
4300,50.0,0,188,0.0,70.0
4301,70.0,192,188,0.0,73.0
4302,74.0,0,188,0.0,83.0
4303,41.0,192,188,0.0,66.0
4304,70.0,0,380,0.0,82.0
4305,53.0,192,188,0.0,74.0
4306,74.0,0,380,0.0,90.0
4307,53.0,0,188,0.0,74.0
4308,70.0,192,188,0.0,77.0
4309,62.0,0,188,0.0,74.0
4310,72.0,0,188,0.0,76.0
4311,41.0,0,188,0.0,70.0
4312,63.0,192,188,0.0,60.0
4313,67.0,0,188,0.0,64.0
4314,53.0,0,188,0.0,66.0
4315,75.0,192,188,0.0,69.0
4316,60.0,0,188,0.0,55.0
4317,53.0,0,188,0.0,51.0
4318,69.0,192,188,0.0,56.0
4319,46.0,0,188,0.0,42.0
4320,53.0,192,188,0.0,48.0
4321,53.0,192,188,0.0,45.0
4322,62.0,192,572,0.0,57.0
4323,70.0,0,572,0.0,60.0
4324,46.0,0,188,0.0,40.0
4325,70.0,0,380,0.0,46.0
4326,53.0,192,188,0.0,37.0
4327,74.0,192,380,0.0,56.0
4328,70.0,192,188,0.0,63.0
4329,62.0,0,188,0.0,58.0
4330,53.0,0,188,0.0,36.0
4331,41.0,192,188,0.0,59.0
4332,53.0,192,188,0.0,55.0
4333,72.0,0,380,0.0,63.0
4334,69.0,0,380,0.0,55.0
4335,74.0,192,188,0.0,79.0
4336,71.0,0,188,0.0,64.0
4337,53.0,0,188,0.0,65.0
4338,36.0,0,188,0.0,74.0
4339,72.0,192,380,0.0,70.0
4340,75.0,0,380,0.0,74.0
4341,48.0,192,188,0.0,80.0
4342,48.0,0,188,0.0,75.0
4343,75.0,192,188,0.0,82.0
4344,72.0,0,188,0.0,70.0
4345,36.0,0,188,0.0,62.0
4346,48.0,192,188,0.0,64.0
4347,75.0,0,380,0.0,85.0
4348,72.0,192,380,0.0,77.0
4349,48.0,0,188,0.0,70.0
4350,72.0,192,188,0.0,70.0
4351,69.0,0,188,0.0,62.0
4352,66.0,0,188,0.0,55.0
4353,69.0,0,188,0.0,68.0
4354,38.0,192,188,0.0,65.0
4355,69.0,0,188,0.0,61.0
4356,72.0,192,188,0.0,65.0
4357,50.0,0,188,0.0,60.0
4358,66.0,0,188,0.0,54.0
4359,69.0,0,188,0.0,59.0
4360,38.0,192,188,0.0,48.0
4361,70.0,192,188,0.0,44.0
4362,67.0,0,188,0.0,44.0
4363,43.0,0,188,0.0,52.0
4364,67.0,0,188,0.0,55.0
4365,70.0,192,188,0.0,51.0
4366,55.0,0,188,0.0,39.0
4367,43.0,0,188,0.0,48.0
4368,72.0,0,188,0.0,54.0
4369,69.0,192,188,0.0,44.0
4370,41.0,0,188,0.0,46.0
4371,53.0,0,188,0.0,26.0
4372,46.0,192,188,0.0,35.0
4373,53.0,192,188,0.0,40.0
4374,70.0,0,380,0.0,38.0
4375,74.0,0,380,0.0,60.0
4376,70.0,0,188,0.0,45.0
4377,62.0,192,188,0.0,51.0
4378,53.0,0,188,0.0,54.0
4379,41.0,0,188,0.0,57.0
4380,69.0,0,380,0.0,52.0
4381,53.0,192,188,0.0,48.0
4382,72.0,192,380,0.0,62.0
4383,53.0,0,188,0.0,64.0
4384,74.0,192,188,0.0,80.0
4385,71.0,0,188,0.0,65.0
4386,36.0,0,188,0.0,65.0
4387,48.0,192,188,0.0,74.0
4388,72.0,0,380,0.0,58.0
4389,75.0,192,380,0.0,74.0
4390,75.0,0,188,0.0,83.0
4391,48.0,0,188,0.0,79.0
4392,72.0,192,188,0.0,74.0
4393,36.0,192,188,0.0,79.0
4394,75.0,0,380,0.0,85.0
4395,72.0,0,380,0.0,77.0
4396,48.0,192,188,0.0,79.0
4397,69.0,192,188,0.0,66.0
4398,72.0,0,188,0.0,74.0
4399,48.0,0,188,0.0,72.0
4400,66.0,192,188,0.0,64.0
4401,38.0,0,188,0.0,46.0
4402,69.0,0,188,0.0,77.0
4403,72.0,192,188,0.0,66.0
4404,50.0,0,188,0.0,54.0
4405,69.0,0,188,0.0,59.0
4406,69.0,0,188,0.0,64.0
4407,66.0,0,188,0.0,49.0
4408,50.0,192,188,0.0,47.0
4409,43.0,192,92,0.0,46.0
4410,46.0,96,92,0.0,39.0
4411,50.0,96,92,0.0,52.0
4412,43.0,96,92,0.0,51.0
4413,46.0,96,92,0.0,44.0
4414,50.0,96,92,0.0,53.0
4415,67.0,0,572,0.0,58.0
4416,58.0,0,572,0.0,30.0
4417,55.0,96,92,0.0,63.0
4418,58.0,96,92,0.0,58.0
4419,62.0,96,92,0.0,66.0
4420,58.0,96,92,0.0,60.0
4421,55.0,96,92,0.0,55.0
4422,50.0,96,92,0.0,43.0
4423,67.0,0,572,0.0,69.0
4424,79.0,0,572,0.0,69.0
4425,55.0,96,92,0.0,62.0
4426,58.0,96,92,0.0,57.0
4427,62.0,96,92,0.0,70.0
4428,58.0,96,92,0.0,67.0
4429,82.0,0,380,0.0,73.0
4430,70.0,0,380,0.0,65.0
4431,55.0,0,92,0.0,67.0
4432,72.0,96,188,0.0,63.0
4433,50.0,96,92,0.0,70.0
4434,84.0,0,188,0.0,76.0
4435,55.0,96,92,0.0,83.0
4436,58.0,96,92,0.0,77.0
4437,62.0,96,92,0.0,73.0
4438,74.0,0,380,0.0,79.0
4439,86.0,0,380,0.0,84.0
4440,58.0,96,92,0.0,69.0
4441,55.0,96,92,0.0,81.0
4442,50.0,96,92,0.0,74.0
4443,74.0,0,188,0.0,82.0
4444,86.0,0,188,0.0,82.0
4445,55.0,0,92,0.0,78.0
4446,58.0,96,92,0.0,73.0
4447,62.0,96,92,0.0,70.0
4448,74.0,96,380,0.0,82.0
4449,86.0,0,380,0.0,86.0
4450,58.0,96,92,0.0,70.0
4451,55.0,96,92,0.0,66.0
4452,70.0,0,188,0.0,77.0
4453,82.0,0,188,0.0,86.0
4454,50.0,96,92,0.0,80.0
4455,55.0,0,92,0.0,79.0
4456,58.0,96,92,0.0,78.0
4457,62.0,96,92,0.0,79.0
4458,67.0,96,380,0.0,99.0
4459,79.0,0,380,0.0,94.0
4460,58.0,96,92,0.0,74.0
4461,55.0,96,92,0.0,87.0
4462,70.0,0,188,0.0,78.0
4463,50.0,96,92,0.0,81.0
4464,82.0,0,188,0.0,84.0
4465,54.0,0,92,0.0,81.0
4466,57.0,96,92,0.0,84.0
4467,62.0,96,92,0.0,74.0
4468,57.0,96,92,0.0,80.0
4469,54.0,96,92,0.0,84.0
4470,81.0,0,572,0.0,88.0
4471,69.0,96,572,0.0,86.0
4472,50.0,96,92,0.0,83.0
4473,54.0,96,92,0.0,76.0
4474,57.0,96,92,0.0,81.0
4475,62.0,96,92,0.0,77.0
4476,84.0,0,380,0.0,92.0
4477,72.0,0,380,0.0,88.0
4478,57.0,96,92,0.0,75.0
4479,54.0,0,92,0.0,77.0
4480,69.0,96,188,0.0,79.0
4481,50.0,96,92,0.0,75.0
4482,81.0,0,188,0.0,67.0
4483,54.0,96,92,0.0,85.0
4484,57.0,96,92,0.0,82.0
4485,62.0,96,92,0.0,74.0
4486,66.0,0,380,0.0,99.0
4487,78.0,0,380,0.0,93.0
4488,57.0,96,92,0.0,74.0
4489,54.0,0,92,0.0,77.0
4490,69.0,0,188,0.0,99.0
4491,81.0,96,188,0.0,99.0
4492,50.0,96,92,0.0,79.0
4493,51.0,96,92,0.0,74.0
4494,55.0,96,92,0.0,56.0
4495,58.0,96,92,0.0,65.0
4496,55.0,96,92,0.0,62.0
4497,51.0,96,92,0.0,61.0
4498,79.0,0,572,0.0,83.0
4499,50.0,96,92,0.0,54.0
4500,67.0,0,572,0.0,84.0
4501,48.0,0,124,0.0,56.0
4502,72.0,0,124,0.0,63.0
4503,63.0,96,124,0.0,50.0
4504,57.0,0,124,0.0,40.0
4505,48.0,384,60,0.0,55.0
4506,60.0,0,60,0.0,42.0
4507,69.0,0,60,0.0,61.0
4508,63.0,0,60,0.0,49.0
4509,60.0,0,124,0.0,62.0
4510,66.0,0,124,0.0,52.0
4511,50.0,768,124,0.0,66.0
4512,57.0,0,124,0.0,55.0
4513,60.0,384,60,0.0,55.0
4514,50.0,0,60,0.0,59.0
4515,69.0,0,60,0.0,39.0
4516,66.0,0,60,0.0,44.0
4517,50.0,0,380,0.0,54.0
4518,57.0,192,380,0.0,36.0
4519,66.0,0,380,0.0,55.0
4520,60.0,0,380,0.0,39.0
4521,62.0,0,380,0.0,49.0
4522,62.0,0,380,0.0,37.0
4523,67.0,0,380,0.0,64.0
4524,58.0,0,380,0.0,38.0
4525,43.0,0,380,0.0,48.0
4526,55.0,576,380,0.0,46.0
4527,71.0,0,188,0.0,39.0
4528,72.0,192,92,0.0,38.0
4529,59.0,4608,380,0.0,29.0
4530,55.0,0,380,0.0,51.0
4531,71.0,96,92,0.0,44.0
4532,74.0,0,188,0.0,48.0
4533,76.0,192,92,0.0,43.0
4534,57.0,0,380,0.0,39.0
4535,74.0,96,92,0.0,55.0
4536,54.0,96,380,0.0,44.0
4537,67.0,96,188,0.0,55.0
4538,69.0,192,92,0.0,63.0
4539,52.0,0,380,0.0,46.0
4540,55.0,0,380,0.0,34.0
4541,67.0,96,92,0.0,51.0
4542,71.0,96,380,0.0,58.0
4543,54.0,0,380,0.0,34.0
4544,50.0,0,380,0.0,43.0
4545,64.0,384,188,0.0,59.0
4546,66.0,192,92,0.0,38.0
4547,48.0,0,380,0.0,59.0
4548,52.0,0,380,0.0,30.0
4549,64.0,96,92,0.0,37.0
4550,67.0,0,188,0.0,53.0
4551,69.0,192,92,0.0,48.0
4552,67.0,96,92,0.0,48.0
4553,50.0,96,380,0.0,42.0
4554,47.0,0,380,0.0,50.0
4555,69.0,96,188,0.0,45.0
4556,71.0,192,92,0.0,32.0
4557,50.0,0,380,0.0,49.0
4558,69.0,96,92,0.0,41.0
4559,54.0,0,380,0.0,35.0
4560,55.0,0,380,0.0,42.0
4561,71.0,96,380,0.0,35.0
4562,43.0,0,380,0.0,41.0
4563,71.0,0,188,0.0,45.0
4564,72.0,192,92,0.0,44.0
4565,59.0,384,380,0.0,41.0
4566,71.0,96,92,0.0,45.0
4567,55.0,0,380,0.0,54.0
4568,74.0,0,188,0.0,45.0
4569,76.0,192,92,0.0,56.0
4570,54.0,0,380,0.0,44.0
4571,74.0,96,92,0.0,53.0
4572,57.0,96,380,0.0,41.0
4573,79.0,0,188,0.0,53.0
4574,81.0,192,92,0.0,51.0
4575,61.0,96,380,0.0,43.0
4576,52.0,0,380,0.0,49.0
4577,79.0,96,92,0.0,42.0
4578,62.0,96,380,0.0,36.0
4579,50.0,0,380,0.0,49.0
4580,78.0,0,380,0.0,54.0
4581,76.0,0,188,0.0,58.0
4582,78.0,192,92,0.0,39.0
4583,59.0,384,380,0.0,24.0
4584,55.0,0,380,0.0,57.0
4585,76.0,96,92,0.0,61.0
4586,73.0,0,44,0.0,40.0
4587,74.0,48,44,0.0,35.0
4588,73.0,48,44,0.0,47.0
4589,74.0,48,44,0.0,33.0
4590,71.0,48,92,0.0,24.0
4591,57.0,96,380,0.0,41.0
4592,64.0,0,380,0.0,32.0
4593,73.0,96,92,0.0,19.0
4594,74.0,0,188,0.0,42.0
4595,50.0,0,188,0.0,41.0
4596,62.0,96,188,0.0,41.0
4597,71.0,0,188,0.0,39.0
4598,72.0,192,92,0.0,38.0
4599,59.0,768,380,0.0,29.0
4600,55.0,0,380,0.0,51.0
4601,71.0,96,92,0.0,44.0
4602,74.0,0,188,0.0,48.0
4603,76.0,192,92,0.0,43.0
4604,54.0,0,380,0.0,44.0
4605,57.0,96,380,0.0,39.0
4606,74.0,96,92,0.0,55.0
4607,67.0,96,188,0.0,55.0
4608,69.0,192,92,0.0,63.0
4609,67.0,96,92,0.0,51.0
4610,55.0,0,380,0.0,34.0
4611,52.0,0,380,0.0,46.0
4612,50.0,0,380,0.0,43.0
4613,71.0,0,380,0.0,58.0
4614,54.0,96,380,0.0,34.0
4615,64.0,0,188,0.0,59.0
4616,66.0,192,92,0.0,38.0
4617,52.0,384,380,0.0,30.0
4618,64.0,96,92,0.0,37.0
4619,48.0,0,380,0.0,59.0
4620,67.0,96,188,0.0,53.0
4621,69.0,192,92,0.0,48.0
4622,47.0,0,380,0.0,50.0
4623,67.0,96,92,0.0,48.0
4624,50.0,0,380,0.0,42.0
4625,69.0,0,188,0.0,45.0
4626,71.0,192,92,0.0,32.0
4627,54.0,0,380,0.0,35.0
4628,50.0,96,380,0.0,49.0
4629,69.0,96,92,0.0,41.0
4630,43.0,96,380,0.0,41.0
4631,55.0,0,380,0.0,42.0
4632,71.0,0,380,0.0,35.0
4633,71.0,0,188,0.0,45.0
4634,72.0,192,92,0.0,44.0
4635,71.0,96,92,0.0,45.0
4636,55.0,0,380,0.0,54.0
4637,59.0,384,380,0.0,41.0
4638,74.0,0,188,0.0,45.0
4639,76.0,192,92,0.0,56.0
4640,54.0,0,380,0.0,44.0
4641,57.0,96,380,0.0,41.0
4642,74.0,96,92,0.0,53.0
4643,79.0,96,188,0.0,53.0
4644,81.0,192,92,0.0,51.0
4645,61.0,0,380,0.0,43.0
4646,79.0,96,92,0.0,42.0
4647,52.0,0,380,0.0,49.0
4648,62.0,96,380,0.0,36.0
4649,50.0,0,380,0.0,49.0
4650,78.0,0,380,0.0,54.0
4651,76.0,0,188,0.0,58.0
4652,78.0,192,92,0.0,39.0
4653,76.0,96,92,0.0,61.0
4654,59.0,0,380,0.0,24.0
4655,55.0,384,380,0.0,57.0
4656,73.0,96,44,0.0,40.0
4657,74.0,48,44,0.0,35.0
4658,73.0,48,44,0.0,47.0
4659,74.0,48,44,0.0,33.0
4660,71.0,48,92,0.0,24.0
4661,57.0,0,380,0.0,41.0
4662,64.0,0,380,0.0,32.0
4663,73.0,96,92,0.0,19.0
4664,50.0,0,188,0.0,41.0
4665,62.0,0,188,0.0,41.0
4666,74.0,96,188,0.0,42.0
4667,74.0,768,188,0.0,85.0
4668,50.0,0,188,0.0,74.0
4669,76.0,0,92,0.0,84.0
4670,52.0,192,92,0.0,66.0
4671,50.0,96,92,0.0,79.0
4672,74.0,0,92,0.0,85.0
4673,71.0,96,60,0.0,71.0
4674,47.0,0,60,0.0,69.0
4675,49.0,0,60,0.0,72.0
4676,73.0,192,60,0.0,84.0
4677,74.0,0,380,0.0,87.0
4678,50.0,192,380,0.0,77.0
4679,42.0,336,44,0.0,58.0
4680,66.0,0,44,0.0,73.0
4681,38.0,384,380,0.0,80.0
4682,62.0,0,380,0.0,75.0
4683,40.0,48,60,0.0,64.0
4684,64.0,0,60,0.0,84.0
4685,38.0,192,60,0.0,79.0
4686,62.0,0,60,0.0,90.0
4687,40.0,0,60,0.0,73.0
4688,64.0,192,60,0.0,92.0
4689,66.0,192,60,0.0,92.0
4690,42.0,0,60,0.0,65.0
4691,43.0,0,380,0.0,83.0
4692,67.0,192,380,0.0,97.0
4693,55.0,384,380,0.0,86.0
4694,31.0,0,380,0.0,85.0
4695,74.0,0,188,0.0,61.0
4696,76.0,192,92,0.0,66.0
4697,50.0,384,380,0.0,55.0
4698,74.0,96,92,0.0,65.0
4699,71.0,0,188,0.0,64.0
4700,67.0,96,380,0.0,65.0
4701,52.0,0,380,0.0,38.0
4702,45.0,0,380,0.0,62.0
4703,73.0,192,188,0.0,69.0
4704,50.0,192,380,0.0,60.0
4705,66.0,0,380,0.0,42.0
4706,74.0,0,380,0.0,66.0
4707,71.0,0,380,0.0,49.0
4708,65.0,0,380,0.0,33.0
4709,43.0,0,380,0.0,51.0
4710,50.0,384,380,0.0,49.0
4711,74.0,0,188,0.0,63.0
4712,64.0,384,380,0.0,37.0
4713,72.0,192,188,0.0,56.0
4714,48.0,0,380,0.0,42.0
4715,36.0,0,380,0.0,53.0
4716,69.0,0,60,0.0,53.0
4717,66.0,192,60,0.0,39.0
4718,38.0,0,380,0.0,52.0
4719,50.0,0,380,0.0,40.0
4720,60.0,192,380,0.0,43.0
4721,59.0,0,188,0.0,35.0
4722,43.0,192,188,0.0,45.0
4723,67.0,0,188,0.0,56.0
4724,55.0,192,188,0.0,56.0
4725,54.0,192,188,0.0,46.0
4726,52.0,192,188,0.0,44.0
4727,50.0,192,188,0.0,74.0
4728,74.0,0,188,0.0,85.0
4729,52.0,192,92,0.0,66.0
4730,76.0,0,92,0.0,84.0
4731,74.0,0,92,0.0,85.0
4732,50.0,96,92,0.0,79.0
4733,71.0,0,60,0.0,71.0
4734,47.0,96,60,0.0,69.0
4735,73.0,192,60,0.0,84.0
4736,49.0,0,60,0.0,72.0
4737,50.0,192,380,0.0,77.0
4738,74.0,0,380,0.0,87.0
4739,62.0,384,380,0.0,75.0
4740,66.0,0,44,0.0,73.0
4741,42.0,336,44,0.0,58.0
4742,38.0,0,380,0.0,80.0
4743,40.0,0,60,0.0,64.0
4744,64.0,48,60,0.0,84.0
4745,62.0,192,60,0.0,90.0
4746,38.0,0,60,0.0,79.0
4747,64.0,0,60,0.0,92.0
4748,40.0,192,60,0.0,73.0
4749,42.0,192,60,0.0,65.0
4750,66.0,0,60,0.0,92.0
4751,43.0,192,380,0.0,83.0
4752,67.0,0,380,0.0,97.0
4753,31.0,0,380,0.0,85.0
4754,55.0,384,380,0.0,86.0
4755,74.0,0,188,0.0,61.0
4756,76.0,192,92,0.0,66.0
4757,50.0,384,380,0.0,55.0
4758,74.0,96,92,0.0,65.0
4759,71.0,0,188,0.0,64.0
4760,67.0,0,380,0.0,65.0
4761,73.0,192,188,0.0,69.0
4762,45.0,0,380,0.0,62.0
4763,52.0,96,380,0.0,38.0
4764,50.0,0,380,0.0,60.0
4765,74.0,0,380,0.0,66.0
4766,66.0,192,380,0.0,42.0
4767,71.0,0,380,0.0,49.0
4768,65.0,0,380,0.0,33.0
4769,43.0,384,380,0.0,51.0
4770,50.0,0,380,0.0,49.0
4771,74.0,0,188,0.0,63.0
4772,72.0,192,188,0.0,56.0
4773,36.0,0,380,0.0,53.0
4774,48.0,384,380,0.0,42.0
4775,64.0,0,380,0.0,37.0
4776,69.0,0,60,0.0,53.0
4777,66.0,192,60,0.0,39.0
4778,60.0,0,380,0.0,43.0
4779,38.0,0,380,0.0,52.0
4780,50.0,192,380,0.0,40.0
4781,43.0,0,188,0.0,42.0
4782,59.0,192,188,0.0,36.0
4783,67.0,0,188,0.0,56.0
4784,55.0,384,188,0.0,103.0
4785,57.0,192,92,0.0,92.0
4786,55.0,96,92,0.0,97.0
4787,55.0,0,92,0.0,67.0
4788,52.0,0,92,0.0,71.0
4789,59.0,96,92,0.0,68.0
4790,52.0,0,92,0.0,70.0
4791,55.0,96,92,0.0,78.0
4792,60.0,0,92,0.0,87.0
4793,59.0,0,92,0.0,82.0
4794,52.0,0,92,0.0,70.0
4795,55.0,0,92,0.0,80.0
4796,71.0,96,188,0.0,88.0
4797,59.0,96,92,0.0,72.0
4798,72.0,0,92,0.0,84.0
4799,55.0,96,92,0.0,76.0
4800,52.0,0,92,0.0,68.0
4801,71.0,0,92,0.0,81.0
4802,59.0,96,92,0.0,66.0
4803,54.0,0,92,0.0,65.0
4804,57.0,0,92,0.0,74.0
4805,52.0,0,92,0.0,75.0
4806,59.0,96,92,0.0,74.0
4807,64.0,96,188,0.0,90.0
4808,57.0,96,92,0.0,71.0
4809,52.0,0,92,0.0,72.0
4810,54.0,0,92,0.0,69.0
4811,66.0,0,92,0.0,83.0
4812,59.0,96,92,0.0,74.0
4813,64.0,0,92,0.0,81.0
4814,52.0,0,92,0.0,72.0
4815,57.0,96,92,0.0,74.0
4816,54.0,0,92,0.0,67.0
4817,59.0,96,92,0.0,74.0
4818,57.0,0,92,0.0,75.0
4819,54.0,0,92,0.0,73.0
4820,52.0,96,92,0.0,76.0
4821,59.0,96,92,0.0,70.0
4822,79.0,0,380,0.0,99.0
4823,55.0,0,92,0.0,81.0
4824,52.0,96,92,0.0,70.0
4825,78.0,0,188,0.0,87.0
4826,59.0,96,92,0.0,76.0
4827,52.0,0,92,0.0,73.0
4828,55.0,96,92,0.0,82.0
4829,81.0,0,188,0.0,78.0
4830,59.0,96,92,0.0,84.0
4831,52.0,96,92,0.0,76.0
4832,55.0,0,92,0.0,86.0
4833,78.0,0,188,0.0,88.0
4834,59.0,96,92,0.0,74.0
4835,52.0,96,92,0.0,73.0
4836,55.0,0,92,0.0,80.0
4837,59.0,96,92,0.0,79.0
4838,75.0,0,188,0.0,85.0
4839,60.0,96,92,0.0,68.0
4840,72.0,0,92,0.0,82.0
4841,71.0,96,92,0.0,79.0
4842,59.0,0,92,0.0,64.0
4843,57.0,96,92,0.0,66.0
4844,69.0,0,92,0.0,79.0
4845,76.0,0,380,0.0,99.0
4846,55.0,96,92,0.0,64.0
4847,67.0,0,92,0.0,67.0
4848,66.0,0,92,0.0,77.0
4849,54.0,0,92,0.0,58.0
4850,55.0,96,92,0.0,71.0
4851,67.0,0,92,0.0,81.0
4852,71.0,96,188,0.0,88.0
4853,66.0,96,92,0.0,63.0
4854,54.0,0,92,0.0,58.0
4855,64.0,96,92,0.0,58.0
4856,52.0,0,92,0.0,62.0
4857,71.0,0,188,0.0,82.0
4858,63.0,96,92,0.0,60.0
4859,51.0,0,92,0.0,55.0
4860,64.0,0,92,0.0,64.0
4861,52.0,96,92,0.0,73.0
4862,66.0,96,92,0.0,82.0
4863,54.0,0,92,0.0,73.0
4864,50.0,0,92,0.0,77.0
4865,62.0,96,92,0.0,78.0
4866,47.0,0,60,0.0,77.0
4867,59.0,96,60,0.0,79.0
4868,59.0,0,60,0.0,78.0
4869,66.0,192,60,0.0,81.0
4870,47.0,0,60,0.0,79.0
4871,62.0,0,60,0.0,87.0
4872,59.0,0,60,0.0,67.0
4873,64.0,0,60,0.0,75.0
4874,67.0,0,60,0.0,78.0
4875,47.0,192,60,0.0,76.0
4876,47.0,192,60,0.0,73.0
4877,67.0,0,60,0.0,80.0
4878,59.0,0,60,0.0,80.0
4879,64.0,0,60,0.0,77.0
4880,64.0,0,60,0.0,82.0
4881,59.0,192,60,0.0,68.0
4882,67.0,0,60,0.0,82.0
4883,47.0,0,60,0.0,74.0
4884,64.0,0,60,0.0,68.0
4885,67.0,0,60,0.0,76.0
4886,47.0,0,60,0.0,74.0
4887,59.0,192,60,0.0,61.0
4888,59.0,0,188,0.0,57.0
4889,47.0,0,188,0.0,62.0
4890,63.0,192,188,0.0,65.0
4891,66.0,0,188,0.0,56.0
4892,59.0,384,188,0.0,92.0
4893,60.0,192,92,0.0,81.0
4894,59.0,96,92,0.0,78.0
4895,71.0,96,188,0.0,79.0
4896,72.0,192,92,0.0,74.0
4897,71.0,96,92,0.0,78.0
4898,83.0,96,380,0.0,97.0
4899,57.0,768,188,0.0,88.0
4900,59.0,192,92,0.0,67.0
4901,57.0,96,92,0.0,77.0
4902,72.0,96,188,0.0,82.0
4903,74.0,192,92,0.0,82.0
4904,72.0,96,92,0.0,74.0
4905,84.0,96,380,0.0,99.0
4906,54.0,768,188,0.0,86.0
4907,55.0,192,92,0.0,88.0
4908,54.0,96,92,0.0,88.0
4909,72.0,96,188,0.0,84.0
4910,74.0,192,92,0.0,74.0
4911,72.0,96,92,0.0,67.0
4912,81.0,96,188,0.0,67.0
4913,83.0,192,92,0.0,69.0
4914,81.0,96,92,0.0,66.0
4915,72.0,96,188,0.0,57.0
4916,74.0,192,92,0.0,56.0
4917,72.0,96,92,0.0,49.0
4918,81.0,96,188,0.0,62.0
4919,83.0,192,92,0.0,46.0
4920,81.0,96,92,0.0,51.0
4921,72.0,96,188,0.0,48.0
4922,74.0,192,92,0.0,56.0
4923,72.0,96,92,0.0,49.0
4924,78.0,96,188,0.0,55.0
4925,79.0,192,92,0.0,57.0
4926,78.0,96,92,0.0,53.0
4927,72.0,96,188,0.0,53.0
4928,74.0,192,92,0.0,44.0
4929,72.0,96,92,0.0,36.0
4930,74.0,96,188,0.0,62.0
4931,76.0,192,92,0.0,58.0
4932,74.0,96,92,0.0,52.0
4933,73.0,96,188,0.0,53.0
4934,74.0,192,92,0.0,63.0
4935,73.0,96,92,0.0,55.0
4936,74.0,96,188,0.0,93.0
4937,76.0,192,92,0.0,85.0
4938,74.0,96,92,0.0,79.0
4939,72.0,96,188,0.0,85.0
4940,74.0,192,92,0.0,77.0
4941,72.0,96,92,0.0,70.0
4942,74.0,96,188,0.0,60.0
4943,76.0,192,92,0.0,62.0
4944,74.0,96,92,0.0,62.0
4945,55.0,0,124,0.0,52.0
4946,71.0,96,188,0.0,43.0
4947,59.0,128,124,0.0,42.0
4948,72.0,64,92,0.0,45.0
4949,71.0,32,92,0.0,49.0
4950,62.0,64,124,0.0,38.0
4951,54.0,0,124,0.0,48.0
4952,74.0,96,188,0.0,55.0
4953,57.0,128,124,0.0,41.0
4954,76.0,64,92,0.0,61.0
4955,62.0,64,124,0.0,41.0
4956,74.0,32,92,0.0,62.0
4957,52.0,0,124,0.0,44.0
4958,67.0,96,188,0.0,71.0
4959,55.0,128,124,0.0,46.0
4960,69.0,64,92,0.0,54.0
4961,59.0,64,124,0.0,43.0
4962,67.0,32,92,0.0,62.0
4963,50.0,96,124,0.0,58.0
4964,54.0,128,124,0.0,57.0
4965,71.0,0,380,0.0,62.0
4966,59.0,128,124,0.0,51.0
4967,48.0,128,124,0.0,59.0
4968,64.0,0,188,0.0,65.0
4969,52.0,128,124,0.0,47.0
4970,66.0,64,92,0.0,53.0
4971,64.0,32,92,0.0,45.0
4972,55.0,64,124,0.0,65.0
4973,47.0,96,124,0.0,49.0
4974,67.0,0,188,0.0,63.0
4975,50.0,128,124,0.0,58.0
4976,69.0,64,92,0.0,58.0
4977,67.0,32,92,0.0,62.0
4978,55.0,64,124,0.0,62.0
4979,45.0,0,124,0.0,68.0
4980,69.0,96,188,0.0,58.0
4981,50.0,128,124,0.0,44.0
4982,71.0,64,92,0.0,51.0
4983,54.0,64,124,0.0,40.0
4984,69.0,32,92,0.0,54.0
4985,43.0,96,124,0.0,50.0
4986,50.0,128,124,0.0,55.0
4987,55.0,128,124,0.0,44.0
4988,71.0,0,380,0.0,51.0
4989,55.0,128,124,0.0,46.0
4990,71.0,0,188,0.0,60.0
4991,59.0,128,124,0.0,52.0
4992,72.0,64,92,0.0,47.0
4993,71.0,32,92,0.0,55.0
4994,62.0,64,124,0.0,55.0
4995,54.0,0,124,0.0,56.0
4996,74.0,96,188,0.0,67.0
4997,57.0,128,124,0.0,42.0
4998,76.0,64,92,0.0,58.0
4999,74.0,32,92,0.0,54.0
5000,62.0,64,124,0.0,46.0
5001,52.0,96,124,0.0,52.0
5002,79.0,0,188,0.0,74.0
5003,57.0,128,124,0.0,40.0
5004,81.0,64,92,0.0,62.0
5005,61.0,64,124,0.0,61.0
5006,79.0,32,92,0.0,62.0
5007,50.0,96,124,0.0,63.0
5008,57.0,128,124,0.0,54.0
5009,78.0,0,380,0.0,71.0
5010,62.0,128,124,0.0,59.0
5011,55.0,128,124,0.0,68.0
5012,76.0,0,188,0.0,74.0
5013,59.0,128,124,0.0,55.0
5014,78.0,64,92,0.0,61.0
5015,64.0,64,124,0.0,54.0
5016,76.0,32,92,0.0,64.0
5017,73.0,96,44,0.0,68.0
5018,74.0,48,44,0.0,69.0
5019,57.0,0,124,0.0,54.0
5020,73.0,48,44,0.0,60.0
5021,74.0,16,44,0.0,62.0
5022,64.0,32,124,0.0,50.0
5023,71.0,48,92,0.0,55.0
5024,67.0,64,124,0.0,53.0
5025,73.0,32,92,0.0,52.0
5026,62.0,0,124,0.0,60.0
5027,74.0,96,188,0.0,56.0
5028,69.0,128,124,0.0,59.0
5029,66.0,128,124,0.0,50.0
5030,62.0,128,124,0.0,52.0
5031,57.0,128,124,0.0,52.0
5032,54.0,128,124,0.0,65.0
5033,50.0,128,188,0.0,74.0
5034,74.0,0,188,0.0,85.0
5035,76.0,192,92,0.0,84.0
5036,52.0,0,92,0.0,66.0
5037,50.0,0,92,0.0,79.0
5038,74.0,96,92,0.0,85.0
5039,47.0,96,60,0.0,69.0
5040,71.0,0,60,0.0,71.0
5041,49.0,192,60,0.0,72.0
5042,73.0,0,60,0.0,84.0
5043,74.0,192,380,0.0,87.0
5044,50.0,0,380,0.0,77.0
5045,62.0,0,380,0.0,75.0
5046,38.0,384,380,0.0,80.0
5047,42.0,336,44,0.0,58.0
5048,66.0,0,44,0.0,73.0
5049,64.0,48,60,0.0,84.0
5050,40.0,0,60,0.0,64.0
5051,38.0,0,60,0.0,79.0
5052,62.0,192,60,0.0,90.0
5053,40.0,192,60,0.0,73.0
5054,64.0,0,60,0.0,92.0
5055,42.0,0,60,0.0,65.0
5056,66.0,192,60,0.0,92.0
5057,67.0,0,380,0.0,97.0
5058,43.0,192,380,0.0,83.0
5059,55.0,384,380,0.0,86.0
5060,31.0,0,380,0.0,85.0
5061,50.0,0,124,0.0,44.0
5062,74.0,384,188,0.0,51.0
5063,54.0,128,124,0.0,47.0
5064,76.0,64,92,0.0,56.0
5065,74.0,32,92,0.0,49.0
5066,57.0,64,124,0.0,44.0
5067,71.0,96,60,0.0,51.0
5068,52.0,0,124,0.0,48.0
5069,55.0,128,124,0.0,58.0
5070,73.0,64,60,0.0,56.0
5071,57.0,64,124,0.0,51.0
5072,50.0,128,124,0.0,53.0
5073,54.0,128,124,0.0,50.0
5074,74.0,0,380,0.0,63.0
5075,57.0,128,124,0.0,46.0
5076,43.0,0,124,0.0,41.0
5077,53.0,128,124,0.0,49.0
5078,55.0,128,124,0.0,43.0
5079,71.0,128,380,0.0,52.0
5080,48.0,0,124,0.0,40.0
5081,74.0,128,188,0.0,46.0
5082,52.0,128,124,0.0,34.0
5083,72.0,64,188,0.0,43.0
5084,55.0,64,124,0.0,45.0
5085,69.0,128,60,0.0,61.0
5086,50.0,0,124,0.0,49.0
5087,54.0,128,124,0.0,38.0
5088,66.0,64,60,0.0,55.0
5089,57.0,64,124,0.0,44.0
5090,43.0,0,124,0.0,47.0
5091,50.0,128,124,0.0,43.0
5092,67.0,128,380,0.0,68.0
5093,55.0,128,124,0.0,45.0
5094,55.0,224,92,0.0,90.0
5095,43.0,0,92,0.0,82.0
5096,57.0,96,92,0.0,88.0
5097,45.0,0,92,0.0,90.0
5098,47.0,96,92,0.0,84.0
5099,59.0,0,92,0.0,87.0
5100,48.0,96,92,0.0,74.0
5101,60.0,0,92,0.0,82.0
5102,55.0,96,92,0.0,84.0
5103,43.0,0,92,0.0,62.0
5104,45.0,96,92,0.0,59.0
5105,57.0,0,92,0.0,75.0
5106,47.0,0,92,0.0,54.0
5107,59.0,96,92,0.0,67.0
5108,48.0,96,92,0.0,70.0
5109,60.0,0,92,0.0,79.0
5110,50.0,96,92,0.0,77.0
5111,62.0,0,92,0.0,84.0
5112,64.0,0,92,0.0,85.0
5113,52.0,96,92,0.0,69.0
5114,65.0,96,92,0.0,82.0
5115,53.0,0,92,0.0,73.0
5116,67.0,0,60,0.0,89.0
5117,52.0,0,188,0.0,65.0
5118,55.0,0,188,0.0,60.0
5119,48.0,96,188,0.0,63.0
5120,64.0,192,60,0.0,68.0
5121,55.0,0,188,0.0,71.0
5122,52.0,0,188,0.0,68.0
5123,48.0,0,188,0.0,68.0
5124,72.0,0,60,0.0,80.0
5125,55.0,192,188,0.0,67.0
5126,48.0,0,188,0.0,69.0
5127,52.0,0,188,0.0,63.0
5128,67.0,0,60,0.0,83.0
5129,52.0,0,188,0.0,58.0
5130,48.0,0,188,0.0,70.0
5131,55.0,192,188,0.0,68.0
5132,76.0,0,60,0.0,82.0
5133,55.0,0,188,0.0,68.0
5134,52.0,0,188,0.0,68.0
5135,48.0,192,188,0.0,61.0
5136,60.0,0,188,0.0,64.0
5137,72.0,0,60,0.0,66.0
5138,48.0,0,188,0.0,64.0
5139,60.0,192,188,0.0,59.0
5140,52.0,0,188,0.0,73.0
5141,55.0,0,188,0.0,74.0
5142,79.0,0,60,0.0,83.0
5143,52.0,0,188,0.0,68.0
5144,60.0,0,188,0.0,57.0
5145,48.0,192,188,0.0,58.0
5146,55.0,0,188,0.0,68.0
5147,76.0,0,60,0.0,85.0
5148,52.0,192,188,0.0,66.0
5149,48.0,0,188,0.0,64.0
5150,55.0,0,188,0.0,67.0
5151,60.0,0,188,0.0,59.0
5152,81.0,0,476,0.0,71.0
5153,69.0,0,476,0.0,63.0
5154,57.0,0,476,0.0,64.0
5155,53.0,192,476,0.0,61.0
5156,60.0,0,476,0.0,48.0
5157,60.0,480,92,0.0,70.0
5158,48.0,0,92,0.0,74.0
5159,62.0,96,92,0.0,76.0
5160,50.0,0,92,0.0,59.0
5161,64.0,96,92,0.0,83.0
5162,52.0,0,92,0.0,62.0
5163,53.0,96,92,0.0,58.0
5164,65.0,0,92,0.0,75.0
5165,48.0,96,92,0.0,74.0
5166,60.0,0,92,0.0,68.0
5167,62.0,96,92,0.0,79.0
5168,50.0,0,92,0.0,64.0
5169,64.0,96,92,0.0,75.0
5170,52.0,0,92,0.0,64.0
5171,53.0,96,92,0.0,63.0
5172,65.0,0,92,0.0,75.0
5173,55.0,96,92,0.0,68.0
5174,67.0,0,92,0.0,74.0
5175,57.0,0,92,0.0,58.0
5176,69.0,96,92,0.0,81.0
5177,70.0,96,92,0.0,73.0
5178,58.0,0,92,0.0,62.0
5179,72.0,0,60,0.0,83.0
5180,53.0,0,188,0.0,74.0
5181,60.0,96,188,0.0,71.0
5182,57.0,0,188,0.0,74.0
5183,69.0,192,60,0.0,81.0
5184,60.0,0,188,0.0,81.0
5185,65.0,0,188,0.0,82.0
5186,57.0,0,188,0.0,81.0
5187,53.0,0,188,0.0,74.0
5188,77.0,192,60,0.0,84.0
5189,53.0,0,188,0.0,70.0
5190,57.0,0,188,0.0,78.0
5191,60.0,0,188,0.0,72.0
5192,65.0,0,188,0.0,72.0
5193,72.0,0,60,0.0,81.0
5194,65.0,0,188,0.0,70.0
5195,57.0,192,188,0.0,77.0
5196,60.0,0,188,0.0,74.0
5197,53.0,0,188,0.0,72.0
5198,81.0,0,60,0.0,74.0
5199,57.0,192,188,0.0,76.0
5200,60.0,0,188,0.0,74.0
5201,65.0,0,188,0.0,68.0
5202,53.0,0,188,0.0,68.0
5203,77.0,0,60,0.0,79.0
5204,65.0,0,188,0.0,70.0
5205,57.0,0,188,0.0,77.0
5206,53.0,0,188,0.0,74.0
5207,60.0,192,188,0.0,74.0
5208,89.0,0,60,0.0,83.0
5209,62.0,0,188,0.0,79.0
5210,59.0,192,188,0.0,80.0
5211,55.0,0,188,0.0,75.0
5212,83.0,192,60,0.0,87.0
5213,59.0,0,188,0.0,80.0
5214,62.0,0,188,0.0,74.0
5215,55.0,0,188,0.0,79.0
5216,84.0,0,476,0.0,85.0
5217,72.0,0,476,0.0,78.0
5218,48.0,0,476,0.0,84.0
5219,60.0,192,476,0.0,79.0
5220,55.0,480,92,0.0,82.0
5221,43.0,0,92,0.0,62.0
5222,57.0,96,92,0.0,79.0
5223,45.0,0,92,0.0,70.0
5224,59.0,0,92,0.0,78.0
5225,47.0,96,92,0.0,67.0
5226,48.0,96,92,0.0,71.0
5227,60.0,0,92,0.0,77.0
5228,55.0,0,92,0.0,85.0
5229,43.0,96,92,0.0,74.0
5230,57.0,96,92,0.0,82.0
5231,45.0,0,92,0.0,63.0
5232,59.0,96,92,0.0,77.0
5233,47.0,0,92,0.0,71.0
5234,48.0,0,92,0.0,75.0
5235,60.0,96,92,0.0,79.0
5236,62.0,96,92,0.0,75.0
5237,50.0,0,92,0.0,67.0
5238,52.0,96,92,0.0,70.0
5239,64.0,0,92,0.0,78.0
5240,65.0,96,92,0.0,83.0
5241,53.0,0,92,0.0,69.0
5242,67.0,0,92,0.0,93.0
5243,64.0,96,92,0.0,79.0
5244,52.0,0,188,0.0,82.0
5245,48.0,0,188,0.0,82.0
5246,55.0,96,188,0.0,85.0
5247,60.0,96,92,0.0,87.0
5248,67.0,96,92,0.0,96.0
5249,52.0,0,188,0.0,78.0
5250,55.0,0,188,0.0,82.0
5251,48.0,0,188,0.0,84.0
5252,72.0,96,92,0.0,86.0
5253,67.0,96,92,0.0,89.0
5254,55.0,0,188,0.0,85.0
5255,52.0,0,188,0.0,68.0
5256,48.0,0,188,0.0,81.0
5257,64.0,0,92,0.0,84.0
5258,48.0,0,188,0.0,80.0
5259,55.0,0,188,0.0,82.0
5260,52.0,96,188,0.0,74.0
5261,72.0,96,92,0.0,87.0
5262,76.0,0,92,0.0,80.0
5263,48.0,0,188,0.0,80.0
5264,60.0,0,188,0.0,81.0
5265,55.0,0,188,0.0,83.0
5266,52.0,96,188,0.0,82.0
5267,72.0,96,92,0.0,84.0
5268,67.0,0,92,0.0,82.0
5269,48.0,0,188,0.0,64.0
5270,52.0,96,188,0.0,74.0
5271,55.0,0,188,0.0,70.0
5272,60.0,0,188,0.0,70.0
5273,76.0,96,92,0.0,78.0
5274,79.0,0,92,0.0,90.0
5275,60.0,96,188,0.0,79.0
5276,52.0,0,188,0.0,82.0
5277,76.0,96,92,0.0,88.0
5278,48.0,0,188,0.0,76.0
5279,55.0,0,188,0.0,75.0
5280,72.0,0,92,0.0,82.0
5281,55.0,0,188,0.0,74.0
5282,60.0,96,188,0.0,77.0
5283,48.0,0,188,0.0,74.0
5284,52.0,0,188,0.0,78.0
5285,79.0,96,92,0.0,94.0
5286,53.0,0,476,0.0,81.0
5287,72.0,0,476,0.0,87.0
5288,69.0,96,476,0.0,88.0
5289,57.0,0,476,0.0,75.0
5290,60.0,0,476,0.0,82.0
5291,77.0,0,476,0.0,92.0
5292,81.0,0,476,0.0,78.0
5293,60.0,480,92,0.0,75.0
5294,48.0,0,92,0.0,73.0
5295,50.0,96,92,0.0,68.0
5296,62.0,0,92,0.0,79.0
5297,52.0,96,92,0.0,73.0
5298,64.0,0,92,0.0,78.0
5299,53.0,0,92,0.0,64.0
5300,65.0,96,92,0.0,77.0
5301,48.0,0,92,0.0,71.0
5302,60.0,96,92,0.0,69.0
5303,62.0,96,92,0.0,77.0
5304,50.0,0,92,0.0,69.0
5305,52.0,96,92,0.0,70.0
5306,64.0,0,92,0.0,81.0
5307,65.0,96,92,0.0,77.0
5308,53.0,0,92,0.0,70.0
5309,67.0,96,92,0.0,83.0
5310,55.0,0,92,0.0,76.0
5311,69.0,96,92,0.0,78.0
5312,57.0,0,92,0.0,68.0
5313,70.0,96,92,0.0,77.0
5314,58.0,0,92,0.0,73.0
5315,72.0,0,92,0.0,82.0
5316,57.0,0,188,0.0,86.0
5317,60.0,96,188,0.0,80.0
5318,53.0,0,188,0.0,82.0
5319,69.0,96,92,0.0,84.0
5320,65.0,96,92,0.0,88.0
5321,72.0,96,92,0.0,86.0
5322,57.0,0,188,0.0,84.0
5323,53.0,0,188,0.0,87.0
5324,60.0,0,188,0.0,88.0
5325,77.0,0,92,0.0,96.0
5326,60.0,0,188,0.0,77.0
5327,53.0,0,188,0.0,84.0
5328,57.0,96,188,0.0,78.0
5329,72.0,96,92,0.0,90.0
5330,69.0,0,92,0.0,87.0
5331,57.0,0,188,0.0,83.0
5332,60.0,0,188,0.0,79.0
5333,53.0,96,188,0.0,77.0
5334,77.0,96,92,0.0,92.0
5335,81.0,0,92,0.0,76.0
5336,57.0,0,188,0.0,78.0
5337,65.0,0,188,0.0,81.0
5338,60.0,96,188,0.0,73.0
5339,53.0,0,188,0.0,77.0
5340,77.0,96,92,0.0,89.0
5341,72.0,96,92,0.0,76.0
5342,53.0,0,188,0.0,56.0
5343,65.0,0,188,0.0,70.0
5344,81.0,96,92,0.0,92.0
5345,60.0,0,188,0.0,70.0
5346,57.0,0,188,0.0,72.0
5347,77.0,96,92,0.0,90.0
5348,55.0,0,188,0.0,72.0
5349,62.0,0,188,0.0,62.0
5350,59.0,0,188,0.0,60.0
5351,89.0,96,92,0.0,92.0
5352,86.0,96,92,0.0,89.0
5353,62.0,0,188,0.0,83.0
5354,59.0,0,188,0.0,74.0
5355,55.0,0,188,0.0,82.0
5356,83.0,96,92,0.0,86.0
5357,60.0,0,188,0.0,86.0
5358,48.0,0,188,0.0,87.0
5359,84.0,96,188,0.0,99.0
5360,60.0,0,124,0.0,43.0
5361,76.0,768,188,0.0,63.0
5362,64.0,128,124,0.0,42.0
5363,77.0,64,92,0.0,56.0
5364,67.0,64,124,0.0,56.0
5365,76.0,32,92,0.0,63.0
5366,59.0,0,124,0.0,60.0
5367,79.0,96,188,0.0,56.0
5368,62.0,128,124,0.0,51.0
5369,81.0,64,92,0.0,43.0
5370,67.0,64,124,0.0,44.0
5371,79.0,32,92,0.0,55.0
5372,60.0,0,124,0.0,42.0
5373,76.0,96,188,0.0,56.0
5374,64.0,128,124,0.0,30.0
5375,77.0,64,92,0.0,52.0
5376,76.0,32,92,0.0,52.0
5377,67.0,64,124,0.0,44.0
5378,59.0,0,124,0.0,42.0
5379,79.0,96,188,0.0,62.0
5380,62.0,128,124,0.0,43.0
5381,81.0,64,92,0.0,39.0
5382,67.0,64,124,0.0,47.0
5383,79.0,32,92,0.0,56.0
5384,57.0,0,124,0.0,45.0
5385,72.0,96,188,0.0,39.0
5386,60.0,128,124,0.0,47.0
5387,74.0,64,92,0.0,52.0
5388,72.0,32,92,0.0,48.0
5389,64.0,64,124,0.0,32.0
5390,56.0,96,124,0.0,47.0
5391,76.0,0,188,0.0,48.0
5392,59.0,128,124,0.0,34.0
5393,77.0,64,92,0.0,52.0
5394,64.0,64,124,0.0,42.0
5395,76.0,32,92,0.0,49.0
5396,57.0,96,124,0.0,54.0
5397,72.0,0,188,0.0,44.0
5398,60.0,128,124,0.0,42.0
5399,74.0,64,92,0.0,56.0
5400,72.0,32,92,0.0,53.0
5401,64.0,64,124,0.0,42.0
5402,56.0,96,124,0.0,46.0
5403,76.0,0,188,0.0,67.0
5404,59.0,128,124,0.0,29.0
5405,77.0,64,92,0.0,54.0
5406,64.0,64,124,0.0,34.0
5407,76.0,32,92,0.0,63.0
5408,57.0,0,124,0.0,42.0
5409,72.0,96,188,0.0,44.0
5410,60.0,128,124,0.0,42.0
5411,74.0,64,92,0.0,53.0
5412,64.0,64,124,0.0,33.0
5413,72.0,32,92,0.0,54.0
5414,54.0,0,124,0.0,40.0
5415,74.0,96,188,0.0,54.0
5416,57.0,128,124,0.0,26.0
5417,76.0,64,92,0.0,56.0
5418,62.0,64,124,0.0,40.0
5419,74.0,32,92,0.0,61.0
5420,55.0,96,92,0.0,54.0
5421,59.0,96,92,0.0,52.0
5422,71.0,0,188,0.0,46.0
5423,62.0,96,92,0.0,46.0
5424,72.0,0,92,0.0,56.0
5425,59.0,96,92,0.0,48.0
5426,71.0,0,92,0.0,37.0
5427,54.0,96,92,0.0,61.0
5428,74.0,0,188,0.0,67.0
5429,57.0,96,92,0.0,54.0
5430,62.0,96,92,0.0,55.0
5431,76.0,0,92,0.0,70.0
5432,74.0,0,92,0.0,71.0
5433,57.0,96,92,0.0,66.0
5434,52.0,96,92,0.0,60.0
5435,67.0,0,188,0.0,66.0
5436,55.0,96,92,0.0,55.0
5437,69.0,96,92,0.0,61.0
5438,59.0,0,92,0.0,55.0
5439,67.0,96,92,0.0,63.0
5440,55.0,0,92,0.0,66.0
5441,50.0,96,92,0.0,49.0
5442,54.0,96,92,0.0,50.0
5443,59.0,96,92,0.0,44.0
5444,71.0,0,380,0.0,55.0
5445,54.0,96,92,0.0,39.0
5446,48.0,96,92,0.0,58.0
5447,64.0,0,188,0.0,60.0
5448,52.0,96,92,0.0,42.0
5449,55.0,96,92,0.0,48.0
5450,66.0,0,92,0.0,62.0
5451,52.0,0,92,0.0,37.0
5452,64.0,96,92,0.0,66.0
5453,47.0,0,92,0.0,39.0
5454,50.0,96,92,0.0,30.0
5455,67.0,96,188,0.0,68.0
5456,55.0,96,92,0.0,49.0
5457,69.0,0,92,0.0,58.0
5458,67.0,96,92,0.0,62.0
5459,50.0,0,92,0.0,45.0
5460,45.0,96,92,0.0,61.0
5461,50.0,96,92,0.0,46.0
5462,69.0,0,188,0.0,63.0
5463,54.0,0,92,0.0,53.0
5464,71.0,96,92,0.0,65.0
5465,50.0,96,92,0.0,59.0
5466,69.0,0,92,0.0,62.0
5467,43.0,0,92,0.0,42.0
5468,50.0,96,92,0.0,43.0
5469,55.0,96,92,0.0,50.0
5470,71.0,96,380,0.0,62.0
5471,50.0,96,92,0.0,45.0
5472,55.0,0,92,0.0,54.0
5473,71.0,96,188,0.0,60.0
5474,62.0,96,92,0.0,52.0
5475,59.0,0,92,0.0,55.0
5476,72.0,96,92,0.0,56.0
5477,62.0,0,92,0.0,56.0
5478,71.0,96,92,0.0,63.0
5479,54.0,96,92,0.0,61.0
5480,62.0,96,92,0.0,49.0
5481,74.0,0,188,0.0,79.0
5482,76.0,96,92,0.0,74.0
5483,57.0,0,92,0.0,41.0
5484,74.0,96,92,0.0,66.0
5485,62.0,0,92,0.0,43.0
5486,52.0,0,92,0.0,45.0
5487,79.0,96,188,0.0,76.0
5488,61.0,96,92,0.0,48.0
5489,81.0,0,92,0.0,57.0
5490,57.0,96,92,0.0,38.0
5491,61.0,0,92,0.0,50.0
5492,79.0,96,92,0.0,66.0
5493,50.0,96,92,0.0,49.0
5494,62.0,96,92,0.0,46.0
5495,57.0,96,92,0.0,49.0
5496,62.0,96,92,0.0,54.0
5497,78.0,0,380,0.0,67.0
5498,55.0,96,92,0.0,68.0
5499,76.0,0,188,0.0,62.0
5500,64.0,96,92,0.0,54.0
5501,59.0,96,92,0.0,51.0
5502,78.0,0,92,0.0,65.0
5503,74.0,48,44,0.0,54.0
5504,64.0,0,92,0.0,54.0
5505,76.0,96,92,0.0,70.0
5506,57.0,0,92,0.0,41.0
5507,67.0,96,92,0.0,56.0
5508,73.0,48,188,0.0,60.0
5509,64.0,0,92,0.0,50.0
5510,71.0,96,92,0.0,62.0
5511,67.0,96,92,0.0,56.0
5512,73.0,0,92,0.0,64.0
5513,50.0,96,92,0.0,50.0
5514,54.0,96,92,0.0,50.0
5515,74.0,0,188,0.0,63.0
5516,57.0,96,92,0.0,53.0
5517,62.0,96,92,0.0,60.0
5518,61.0,96,92,0.0,31.0
5519,62.0,96,92,0.0,51.0
5520,60.0,96,92,0.0,48.0
5521,57.0,96,92,0.0,51.0
5522,55.0,96,92,0.0,46.0
5523,62.0,96,92,0.0,40.0
5524,71.0,32,124,0.0,63.0
5525,59.0,64,92,0.0,42.0
5526,62.0,32,92,0.0,53.0
5527,83.0,64,124,0.0,71.0
5528,54.0,96,92,0.0,56.0
5529,62.0,96,92,0.0,62.0
5530,74.0,32,124,0.0,71.0
5531,57.0,64,92,0.0,56.0
5532,62.0,32,92,0.0,45.0
5533,86.0,64,124,0.0,64.0
5534,52.0,96,92,0.0,44.0
5535,59.0,96,92,0.0,44.0
5536,67.0,32,124,0.0,70.0
5537,55.0,64,92,0.0,52.0
5538,79.0,64,124,0.0,64.0
5539,59.0,32,92,0.0,41.0
5540,50.0,96,92,0.0,49.0
5541,59.0,96,92,0.0,47.0
5542,71.0,32,124,0.0,58.0
5543,55.0,64,92,0.0,45.0
5544,59.0,32,92,0.0,44.0
5545,83.0,64,124,0.0,71.0
5546,48.0,96,92,0.0,57.0
5547,55.0,96,92,0.0,48.0
5548,64.0,32,124,0.0,65.0
5549,52.0,64,92,0.0,48.0
5550,76.0,64,124,0.0,66.0
5551,55.0,32,92,0.0,44.0
5552,47.0,96,92,0.0,57.0
5553,55.0,96,92,0.0,57.0
5554,67.0,32,124,0.0,70.0
5555,50.0,64,92,0.0,58.0
5556,79.0,64,124,0.0,67.0
5557,55.0,32,92,0.0,41.0
5558,45.0,96,92,0.0,58.0
5559,54.0,96,92,0.0,42.0
5560,69.0,32,124,0.0,63.0
5561,50.0,64,92,0.0,53.0
5562,54.0,32,92,0.0,55.0
5563,81.0,64,124,0.0,64.0
5564,43.0,96,92,0.0,54.0
5565,55.0,96,92,0.0,60.0
5566,71.0,32,124,0.0,64.0
5567,50.0,64,92,0.0,56.0
5568,55.0,32,92,0.0,61.0
5569,83.0,64,124,0.0,70.0
5570,55.0,96,92,0.0,51.0
5571,62.0,96,92,0.0,36.0
5572,71.0,32,124,0.0,64.0
5573,59.0,64,92,0.0,56.0
5574,83.0,64,124,0.0,68.0
5575,62.0,32,92,0.0,43.0
5576,54.0,96,92,0.0,46.0
5577,62.0,96,92,0.0,51.0
5578,74.0,32,124,0.0,70.0
5579,57.0,64,92,0.0,47.0
5580,86.0,64,124,0.0,67.0
5581,62.0,32,92,0.0,45.0
5582,52.0,96,92,0.0,55.0
5583,61.0,96,92,0.0,47.0
5584,79.0,32,124,0.0,64.0
5585,57.0,64,92,0.0,45.0
5586,91.0,64,124,0.0,67.0
5587,61.0,32,92,0.0,43.0
5588,50.0,96,92,0.0,56.0
5589,62.0,96,92,0.0,44.0
5590,78.0,32,124,0.0,67.0
5591,57.0,64,92,0.0,57.0
5592,90.0,64,124,0.0,71.0
5593,62.0,32,92,0.0,54.0
5594,55.0,96,92,0.0,53.0
5595,64.0,96,92,0.0,44.0
5596,76.0,32,124,0.0,66.0
5597,59.0,64,92,0.0,53.0
5598,64.0,32,92,0.0,48.0
5599,88.0,64,124,0.0,66.0
5600,57.0,96,92,0.0,54.0
5601,69.0,96,92,0.0,25.0
5602,73.0,32,124,0.0,58.0
5603,66.0,64,92,0.0,44.0
5604,69.0,32,92,0.0,40.0
5605,85.0,64,124,0.0,71.0
5606,50.0,96,92,0.0,55.0
5607,54.0,96,92,0.0,54.0
5608,74.0,32,124,0.0,63.0
5609,57.0,64,92,0.0,53.0
5610,86.0,64,124,0.0,65.0
5611,62.0,32,92,0.0,54.0
5612,61.0,96,92,0.0,61.0
5613,62.0,96,92,0.0,53.0
5614,57.0,96,92,0.0,47.0
5615,54.0,96,92,0.0,45.0
5616,74.0,0,188,0.0,99.0
5617,50.0,96,188,0.0,88.0
5618,52.0,192,92,0.0,85.0
5619,76.0,0,92,0.0,100.0
5620,74.0,96,92,0.0,99.0
5621,50.0,0,92,0.0,86.0
5622,71.0,0,60,0.0,79.0
5623,47.0,96,60,0.0,79.0
5624,73.0,0,60,0.0,90.0
5625,49.0,192,60,0.0,81.0
5626,74.0,192,380,0.0,90.0
5627,50.0,0,380,0.0,96.0
5628,62.0,384,380,0.0,84.0
5629,38.0,0,380,0.0,83.0
5630,42.0,0,44,0.0,77.0
5631,66.0,336,44,0.0,88.0
5632,64.0,0,60,0.0,92.0
5633,40.0,48,60,0.0,77.0
5634,38.0,192,60,0.0,81.0
5635,62.0,0,60,0.0,90.0
5636,40.0,0,60,0.0,73.0
5637,64.0,192,60,0.0,89.0
5638,42.0,192,60,0.0,75.0
5639,66.0,0,60,0.0,88.0
5640,67.0,192,380,0.0,99.0
5641,43.0,0,380,0.0,86.0
5642,55.0,384,380,0.0,94.0
5643,31.0,0,380,0.0,84.0
5644,50.0,384,92,0.0,67.0
5645,57.0,96,92,0.0,55.0
5646,74.0,32,124,0.0,59.0
5647,54.0,64,92,0.0,60.0
5648,86.0,64,124,0.0,68.0
5649,57.0,32,92,0.0,37.0
5650,52.0,96,92,0.0,47.0
5651,57.0,96,92,0.0,48.0
5652,73.0,32,124,0.0,60.0
5653,55.0,64,92,0.0,71.0
5654,85.0,64,124,0.0,70.0
5655,57.0,32,92,0.0,52.0
5656,50.0,96,92,0.0,55.0
5657,57.0,96,92,0.0,36.0
5658,74.0,32,124,0.0,68.0
5659,54.0,64,92,0.0,54.0
5660,57.0,32,92,0.0,61.0
5661,86.0,64,124,0.0,74.0
5662,45.0,96,92,0.0,58.0
5663,57.0,96,92,0.0,62.0
5664,71.0,32,124,0.0,63.0
5665,55.0,64,92,0.0,61.0
5666,83.0,64,124,0.0,70.0
5667,57.0,32,92,0.0,59.0
5668,48.0,96,92,0.0,62.0
5669,57.0,96,92,0.0,43.0
5670,72.0,32,124,0.0,59.0
5671,52.0,64,92,0.0,55.0
5672,84.0,64,124,0.0,70.0
5673,57.0,32,92,0.0,46.0
5674,50.0,96,92,0.0,56.0
5675,60.0,96,92,0.0,57.0
5676,66.0,32,124,0.0,65.0
5677,57.0,64,92,0.0,53.0
5678,60.0,32,92,0.0,52.0
5679,78.0,64,124,0.0,67.0
5680,59.0,0,92,0.0,45.0
5681,55.0,96,92,0.0,55.0
5682,62.0,96,92,0.0,42.0
5683,60.0,96,92,0.0,55.0
5684,79.0,0,380,0.0,70.0
5685,67.0,0,380,0.0,58.0
5686,59.0,96,92,0.0,58.0
5687,57.0,96,92,0.0,52.0
5688,55.0,96,92,0.0,60.0
5689,54.0,96,92,0.0,53.0
5690,52.0,96,92,0.0,62.0
5691,50.0,96,188,0.0,90.0
5692,74.0,0,188,0.0,96.0
5693,76.0,0,92,0.0,99.0
5694,52.0,192,92,0.0,85.0
5695,50.0,96,92,0.0,87.0
5696,74.0,0,92,0.0,97.0
5697,71.0,96,60,0.0,84.0
5698,47.0,0,60,0.0,87.0
5699,73.0,192,60,0.0,97.0
5700,49.0,0,60,0.0,89.0
5701,74.0,192,380,0.0,96.0
5702,50.0,0,380,0.0,94.0
5703,38.0,384,380,0.0,82.0
5704,62.0,0,380,0.0,83.0
5705,74.0,384,92,0.0,41.0
5706,86.0,0,188,0.0,55.0
5707,78.0,96,92,0.0,53.0
5708,88.0,0,92,0.0,54.0
5709,74.0,96,92,0.0,46.0
5710,78.0,96,92,0.0,38.0
5711,86.0,0,92,0.0,60.0
5712,83.0,0,60,0.0,63.0
5713,76.0,96,92,0.0,53.0
5714,79.0,96,92,0.0,43.0
5715,85.0,96,60,0.0,65.0
5716,76.0,0,92,0.0,62.0
5717,79.0,96,92,0.0,55.0
5718,78.0,96,188,0.0,39.0
5719,86.0,0,188,0.0,65.0
5720,74.0,0,188,0.0,63.0
5721,66.0,0,44,0.0,71.0
5722,42.0,720,44,0.0,62.0
5723,40.0,48,60,0.0,80.0
5724,64.0,0,60,0.0,93.0
5725,38.0,192,60,0.0,85.0
5726,62.0,0,60,0.0,87.0
5727,40.0,192,60,0.0,80.0
5728,64.0,0,60,0.0,90.0
5729,42.0,0,60,0.0,65.0
5730,66.0,192,60,0.0,87.0
5731,43.0,192,380,0.0,85.0
5732,67.0,0,380,0.0,93.0
5733,90.0,336,44,0.0,54.0
5734,31.0,0,380,0.0,83.0
5735,55.0,384,380,0.0,84.0
5736,88.0,0,60,0.0,59.0
5737,72.0,48,92,0.0,33.0
5738,76.0,96,92,0.0,55.0
5739,86.0,96,60,0.0,64.0
5740,71.0,0,92,0.0,36.0
5741,74.0,96,92,0.0,54.0
5742,88.0,0,60,0.0,64.0
5743,72.0,96,92,0.0,54.0
5744,76.0,96,92,0.0,52.0
5745,90.0,96,60,0.0,56.0
5746,69.0,0,92,0.0,43.0
5747,72.0,96,92,0.0,44.0
5748,71.0,0,188,0.0,56.0
5749,91.0,96,188,0.0,72.0
5750,74.0,0,188,0.0,44.0
5751,78.0,720,44,0.0,62.0
5752,76.0,48,60,0.0,53.0
5753,60.0,0,92,0.0,57.0
5754,64.0,96,92,0.0,55.0
5755,74.0,0,60,0.0,51.0
5756,59.0,96,92,0.0,49.0
5757,62.0,96,92,0.0,37.0
5758,76.0,0,60,0.0,51.0
5759,60.0,96,92,0.0,56.0
5760,64.0,96,92,0.0,53.0
5761,78.0,0,60,0.0,54.0
5762,57.0,96,92,0.0,62.0
5763,60.0,96,92,0.0,48.0
5764,59.0,0,92,0.0,42.0
5765,79.0,96,188,0.0,59.0
5766,62.0,96,92,0.0,58.0
5767,59.0,96,92,0.0,51.0
5768,62.0,96,92,0.0,60.0
5769,55.0,0,92,0.0,59.0
5770,65.0,96,92,0.0,45.0
5771,74.0,96,188,0.0,60.0
5772,55.0,0,92,0.0,43.0
5773,76.0,96,92,0.0,59.0
5774,65.0,96,92,0.0,50.0
5775,74.0,0,92,0.0,56.0
5776,60.0,96,92,0.0,54.0
5777,72.0,0,188,0.0,53.0
5778,64.0,96,92,0.0,48.0
5779,74.0,0,92,0.0,57.0
5780,60.0,96,92,0.0,45.0
5781,64.0,0,92,0.0,53.0
5782,72.0,96,92,0.0,58.0
5783,62.0,0,92,0.0,46.0
5784,66.0,96,92,0.0,44.0
5785,69.0,96,188,0.0,58.0
5786,62.0,96,92,0.0,45.0
5787,71.0,0,92,0.0,40.0
5788,69.0,96,92,0.0,51.0
5789,66.0,0,92,0.0,47.0
5790,55.0,0,92,0.0,61.0
5791,71.0,96,188,0.0,59.0
5792,67.0,96,92,0.0,33.0
5793,55.0,96,92,0.0,39.0
5794,72.0,0,92,0.0,59.0
5795,67.0,0,92,0.0,41.0
5796,71.0,96,92,0.0,55.0
5797,59.0,96,92,0.0,41.0
5798,74.0,0,188,0.0,68.0
5799,65.0,96,92,0.0,28.0
5800,59.0,96,92,0.0,51.0
5801,76.0,0,92,0.0,67.0
5802,74.0,0,92,0.0,62.0
5803,65.0,96,92,0.0,56.0
5804,60.0,96,92,0.0,53.0
5805,72.0,0,188,0.0,51.0
5806,64.0,96,92,0.0,38.0
5807,60.0,96,92,0.0,48.0
5808,74.0,0,92,0.0,44.0
5809,72.0,0,92,0.0,44.0
5810,64.0,96,92,0.0,38.0
5811,62.0,0,92,0.0,53.0
5812,69.0,96,188,0.0,54.0
5813,66.0,96,92,0.0,53.0
5814,62.0,96,92,0.0,57.0
5815,71.0,0,92,0.0,50.0
5816,66.0,96,92,0.0,51.0
5817,69.0,0,92,0.0,44.0
5818,55.0,0,92,0.0,54.0
5819,67.0,96,92,0.0,62.0
5820,71.0,96,188,0.0,43.0
5821,55.0,96,92,0.0,46.0
5822,67.0,96,92,0.0,60.0
5823,59.0,96,92,0.0,47.0
5824,65.0,96,92,0.0,46.0
5825,74.0,32,124,0.0,60.0
5826,59.0,64,92,0.0,51.0
5827,86.0,64,124,0.0,60.0
5828,65.0,32,92,0.0,38.0
5829,60.0,96,92,0.0,42.0
5830,64.0,96,92,0.0,40.0
5831,72.0,32,124,0.0,52.0
5832,60.0,64,92,0.0,48.0
5833,84.0,64,124,0.0,66.0
5834,64.0,32,92,0.0,42.0
5835,62.0,96,92,0.0,60.0
5836,66.0,96,92,0.0,54.0
5837,69.0,32,124,0.0,51.0
5838,62.0,64,92,0.0,51.0
5839,81.0,64,124,0.0,59.0
5840,66.0,32,92,0.0,48.0
5841,55.0,96,92,0.0,54.0
5842,67.0,96,92,0.0,56.0
5843,71.0,32,124,0.0,45.0
5844,55.0,64,92,0.0,47.0
5845,83.0,64,124,0.0,58.0
5846,67.0,32,92,0.0,51.0
5847,59.0,96,92,0.0,39.0
5848,65.0,96,92,0.0,36.0
5849,74.0,32,124,0.0,48.0
5850,59.0,64,92,0.0,36.0
5851,86.0,64,124,0.0,58.0
5852,65.0,32,92,0.0,42.0
5853,60.0,96,92,0.0,42.0
5854,64.0,96,92,0.0,36.0
5855,72.0,32,124,0.0,41.0
5856,60.0,64,92,0.0,47.0
5857,84.0,64,124,0.0,63.0
5858,64.0,32,92,0.0,40.0
5859,62.0,96,92,0.0,43.0
5860,66.0,96,92,0.0,49.0
5861,69.0,32,124,0.0,49.0
5862,62.0,64,92,0.0,47.0
5863,66.0,32,92,0.0,38.0
5864,81.0,64,124,0.0,49.0
5865,55.0,0,92,0.0,51.0
5866,71.0,96,188,0.0,49.0
5867,59.0,96,92,0.0,40.0
5868,62.0,0,92,0.0,47.0
5869,72.0,96,92,0.0,52.0
5870,67.0,96,92,0.0,35.0
5871,71.0,0,92,0.0,62.0
5872,55.0,0,92,0.0,43.0
5873,74.0,96,188,0.0,67.0
5874,59.0,96,92,0.0,43.0
5875,62.0,96,92,0.0,62.0
5876,76.0,0,92,0.0,65.0
5877,67.0,96,92,0.0,69.0
5878,74.0,0,92,0.0,59.0
5879,55.0,96,92,0.0,64.0
5880,59.0,96,92,0.0,55.0
5881,71.0,0,188,0.0,62.0
5882,62.0,0,92,0.0,68.0
5883,72.0,96,92,0.0,53.0
5884,67.0,96,92,0.0,67.0
5885,71.0,0,92,0.0,59.0
5886,55.0,0,92,0.0,72.0
5887,79.0,96,188,0.0,82.0
5888,59.0,96,92,0.0,81.0
5889,81.0,0,92,0.0,73.0
5890,62.0,96,92,0.0,75.0
5891,67.0,0,92,0.0,79.0
5892,79.0,96,92,0.0,86.0
5893,55.0,96,92,0.0,82.0
5894,59.0,96,92,0.0,79.0
5895,74.0,0,188,0.0,103.0
5896,62.0,0,92,0.0,80.0
5897,76.0,96,92,0.0,93.0
5898,67.0,96,92,0.0,84.0
5899,74.0,0,92,0.0,94.0
5900,55.0,0,92,0.0,88.0
5901,59.0,96,92,0.0,85.0
5902,83.0,96,188,0.0,100.0
5903,62.0,0,92,0.0,94.0
5904,84.0,96,92,0.0,100.0
5905,83.0,96,92,0.0,112.0
5906,67.0,0,92,0.0,96.0
5907,55.0,96,92,0.0,93.0
5908,79.0,0,188,0.0,109.0
5909,59.0,96,92,0.0,87.0
5910,62.0,96,92,0.0,88.0
5911,67.0,96,92,0.0,85.0
5912,47.0,96,92,0.0,45.0
5913,50.0,96,92,0.0,48.0
5914,74.0,0,188,0.0,50.0
5915,79.0,0,188,0.0,43.0
5916,67.0,0,188,0.0,38.0
5917,71.0,0,188,0.0,34.0
5918,55.0,96,92,0.0,16.0
5919,59.0,96,92,0.0,38.0
5920,43.0,96,188,0.0,42.0
5921,83.0,0,188,0.0,54.0
5922,79.0,0,188,0.0,51.0
5923,71.0,0,188,0.0,44.0
