,note,step,duration,channel,velocity
0,56.0,288,288,2.0,45.0
1,53.0,288,0,3.0,45.0
2,53.0,288,0,3.0,60.0
3,56.0,0,288,2.0,45.0
4,61.0,0,0,1.0,60.0
5,65.0,0,256,1.0,60.0
6,56.0,0,256,2.0,60.0
7,49.0,0,256,4.0,60.0
8,37.0,0,256,4.0,60.0
9,61.0,0,96,1.0,45.0
10,60.0,96,96,1.0,45.0
11,53.0,0,288,3.0,45.0
12,58.0,96,96,1.0,45.0
13,37.0,0,288,4.0,45.0
14,56.0,96,96,1.0,45.0
15,58.0,96,96,1.0,45.0
16,44.0,0,528,4.0,45.0
17,39.0,0,256,4.0,45.0
18,60.0,96,94,1.0,45.0
19,54.0,0,288,3.0,45.0
20,56.0,288,576,2.0,45.0
21,61.0,0,96,1.0,45.0
22,63.0,96,96,1.0,45.0
23,65.0,96,94,1.0,45.0
24,53.0,0,288,3.0,45.0
25,37.0,96,288,4.0,45.0
26,44.0,0,528,4.0,45.0
27,56.0,0,528,2.0,45.0
28,63.0,0,256,1.0,45.0
29,54.0,96,256,3.0,45.0
30,36.0,0,256,4.0,45.0
31,61.0,288,96,1.0,45.0
32,60.0,96,96,1.0,45.0
33,53.0,0,288,3.0,45.0
34,58.0,96,96,1.0,45.0
35,37.0,0,288,4.0,45.0
36,56.0,0,96,1.0,45.0
37,58.0,96,96,1.0,45.0
38,44.0,0,528,4.0,45.0
39,39.0,96,256,4.0,45.0
40,54.0,0,256,3.0,45.0
41,60.0,96,94,1.0,45.0
42,56.0,0,0,2.0,45.0
43,61.0,0,96,1.0,45.0
44,53.0,0,192,3.0,45.0
45,63.0,96,96,1.0,45.0
46,37.0,96,256,4.0,45.0
47,44.0,0,256,4.0,45.0
48,65.0,0,94,1.0,45.0
49,49.0,96,96,3.0,45.0
50,65.0,0,96,1.0,45.0
51,56.0,0,96,2.0,45.0
52,44.0,0,192,4.0,45.0
53,48.0,96,192,3.0,45.0
54,60.0,0,96,2.0,45.0
55,63.0,96,160,1.0,45.0
56,42.0,96,94,4.0,45.0
57,58.0,0,94,2.0,45.0
58,65.0,0,160,1.0,45.0
59,51.0,0,288,3.0,45.0
60,41.0,0,256,4.0,45.0
61,65.0,192,94,1.0,65.0
62,48.0,0,96,3.0,65.0
63,57.0,96,288,2.0,45.0
64,65.0,0,96,1.0,45.0
65,61.0,96,96,1.0,45.0
66,49.0,96,256,3.0,45.0
67,46.0,0,256,4.0,45.0
68,58.0,0,256,2.0,45.0
69,58.0,96,94,1.0,45.0
70,70.0,0,160,1.0,45.0
71,50.0,96,192,3.0,45.0
72,65.0,0,192,2.0,45.0
73,38.0,0,256,4.0,45.0
74,70.0,192,94,1.0,65.0
75,53.0,0,96,3.0,65.0
76,58.0,0,0,2.0,45.0
77,70.0,0,96,1.0,45.0
78,66.0,96,96,1.0,45.0
79,54.0,0,256,3.0,45.0
80,39.0,96,256,4.0,45.0
81,63.0,96,94,1.0,45.0
82,68.0,96,160,1.0,45.0
83,54.0,0,192,3.0,45.0
84,63.0,0,192,2.0,45.0
85,68.0,0,94,1.0,55.0
86,36.0,0,288,4.0,45.0
87,63.0,0,96,2.0,55.0
88,56.0,96,0,2.0,60.0
89,51.0,192,96,3.0,55.0
90,68.0,0,96,1.0,60.0
91,37.0,0,192,4.0,60.0
92,65.0,96,96,1.0,65.0
93,53.0,0,256,3.0,60.0
94,41.0,96,94,4.0,70.0
95,61.0,0,94,1.0,70.0
96,56.0,0,96,1.0,45.0
97,65.0,96,96,1.0,45.0
98,53.0,96,192,3.0,45.0
99,61.0,0,192,2.0,45.0
100,44.0,0,256,4.0,45.0
101,63.0,96,94,1.0,45.0
102,60.0,0,94,2.0,45.0
103,54.0,0,96,3.0,45.0
104,49.0,0,96,4.0,45.0
105,41.0,96,96,4.0,55.0
106,61.0,96,256,1.0,45.0
107,53.0,0,256,3.0,45.0
108,56.0,96,0,2.0,75.0
109,42.0,96,96,4.0,65.0
110,44.0,0,96,4.0,75.0
111,53.0,96,96,4.0,65.0
112,53.0,0,192,3.0,75.0
113,61.0,0,192,1.0,75.0
114,51.0,96,94,4.0,55.0
115,60.0,0,94,1.0,55.0
116,54.0,0,96,3.0,55.0
117,61.0,0,96,1.0,45.0
118,56.0,0,96,2.0,45.0
119,65.0,0,96,1.0,55.0
120,49.0,96,192,4.0,45.0
121,53.0,0,192,3.0,45.0
122,61.0,96,160,2.0,55.0
123,46.0,0,94,4.0,65.0
124,49.0,96,94,3.0,65.0
125,66.0,0,96,1.0,65.0
126,68.0,96,96,1.0,75.0
127,65.0,0,96,2.0,75.0
128,77.0,96,96,1.0,65.0
129,68.0,0,96,2.0,65.0
130,49.0,0,192,3.0,75.0
131,44.0,0,256,4.0,75.0
132,66.0,0,94,2.0,55.0
133,75.0,96,94,1.0,55.0
134,48.0,0,94,3.0,55.0
135,49.0,0,94,4.0,45.0
136,65.0,96,96,2.0,45.0
137,53.0,0,96,3.0,45.0
138,73.0,0,96,1.0,45.0
139,49.0,0,94,4.0,44.0
140,61.0,96,94,2.0,44.0
141,54.0,0,96,3.0,44.0
142,70.0,0,96,1.0,44.0
143,51.0,0,94,3.0,43.0
144,61.0,0,94,2.0,43.0
145,49.0,96,94,4.0,43.0
146,66.0,0,94,1.0,43.0
147,49.0,0,96,4.0,42.0
148,65.0,96,96,1.0,42.0
149,61.0,0,192,2.0,42.0
150,68.0,0,96,1.0,41.0
151,65.0,0,160,3.0,41.0
152,61.0,96,160,4.0,41.0
153,68.0,0,94,2.0,40.0
154,73.0,96,94,1.0,40.0
155,73.0,0,192,1.0,39.0
156,66.0,0,256,3.0,39.0
157,68.0,96,256,2.0,39.0
158,72.0,192,94,1.0,37.0
159,63.0,0,288,4.0,39.0
160,73.0,0,96,1.0,36.0
161,75.0,96,96,1.0,35.0
162,68.0,0,256,2.0,36.0
163,77.0,96,94,1.0,34.0
164,61.0,96,288,4.0,36.0
165,65.0,0,288,3.0,36.0
166,63.0,0,96,3.0,33.0
167,77.0,0,192,1.0,33.0
168,65.0,96,96,3.0,32.0
169,68.0,96,256,2.0,33.0
170,66.0,96,94,3.0,31.0
171,75.0,0,94,1.0,31.0
172,60.0,0,382,4.0,33.0
173,66.0,0,192,3.0,30.0
174,75.0,0,192,1.0,30.0
175,69.0,96,192,2.0,30.0
176,60.0,96,96,4.0,31.0
177,65.0,96,94,3.0,32.0
178,73.0,0,94,1.0,32.0
179,68.0,0,94,2.0,32.0
180,61.0,0,94,4.0,32.0
181,65.0,0,192,3.0,33.0
182,61.0,0,192,4.0,33.0
183,73.0,96,192,1.0,33.0
184,68.0,0,256,2.0,33.0
185,72.0,0,94,1.0,35.0
186,63.0,0,94,4.0,35.0
187,66.0,192,94,3.0,35.0
188,66.0,0,192,3.0,36.0
189,63.0,0,192,4.0,36.0
190,72.0,96,192,1.0,36.0
191,68.0,0,256,2.0,36.0
192,73.0,0,94,1.0,38.0
193,61.0,0,94,4.0,38.0
194,65.0,192,94,3.0,38.0
195,65.0,0,192,3.0,39.0
196,74.0,0,192,1.0,39.0
197,59.0,0,192,4.0,39.0
198,68.0,96,256,2.0,39.0
199,63.0,0,94,3.0,41.0
200,60.0,0,94,4.0,41.0
201,75.0,192,94,1.0,41.0
202,61.0,0,96,3.0,58.0
203,67.0,96,96,2.0,58.0
204,73.0,96,96,2.0,43.0
205,58.0,0,192,4.0,58.0
206,67.0,0,96,3.0,43.0
207,76.0,0,192,1.0,58.0
208,69.0,0,94,3.0,44.0
209,57.0,0,94,4.0,44.0
210,72.0,96,94,2.0,44.0
211,77.0,0,94,1.0,44.0
212,72.0,0,192,2.0,45.0
213,77.0,96,192,1.0,45.0
214,69.0,0,96,3.0,45.0
215,53.0,96,96,4.0,45.0
216,74.0,0,94,1.0,45.0
217,70.0,96,94,2.0,45.0
218,65.0,0,94,3.0,45.0
219,58.0,0,94,4.0,45.0
220,75.0,96,192,2.0,63.0
221,81.0,0,192,1.0,63.0
222,63.0,0,192,3.0,63.0
223,59.0,0,192,4.0,63.0
224,58.0,0,94,4.0,45.0
225,74.0,0,94,2.0,45.0
226,65.0,0,94,3.0,45.0
227,82.0,192,94,1.0,45.0
228,65.0,0,96,3.0,45.0
229,82.0,96,192,1.0,45.0
230,77.0,0,96,2.0,45.0
231,62.0,96,96,4.0,45.0
232,63.0,0,94,4.0,45.0
233,78.0,0,94,1.0,45.0
234,70.0,0,94,2.0,45.0
235,66.0,96,94,3.0,45.0
236,61.0,96,192,4.0,63.0
237,64.0,0,192,3.0,63.0
238,70.0,0,192,2.0,63.0
239,79.0,0,192,1.0,63.0
240,60.0,192,94,4.0,45.0
241,68.0,0,94,2.0,45.0
242,63.0,0,94,3.0,45.0
243,80.0,0,94,1.0,45.0
244,60.0,0,192,4.0,45.0
245,75.0,0,192,3.0,45.0
246,78.0,96,192,2.0,45.0
247,61.0,0,94,4.0,45.0
248,77.0,0,94,2.0,45.0
249,73.0,192,94,3.0,45.0
250,80.0,0,288,1.0,45.0
251,68.0,96,96,4.0,55.0
252,77.0,0,96,2.0,55.0
253,73.0,0,96,3.0,55.0
254,66.0,96,94,4.0,65.0
255,72.0,0,94,3.0,65.0
256,75.0,0,94,2.0,65.0
257,80.0,0,0,1.0,75.0
258,66.0,96,96,4.0,75.0
259,72.0,0,96,3.0,75.0
260,75.0,0,96,2.0,75.0
261,68.0,0,160,3.0,65.0
262,65.0,96,160,4.0,65.0
263,73.0,0,160,2.0,65.0
264,85.0,96,94,1.0,55.0
265,61.0,0,96,2.0,55.0
266,77.0,96,96,1.0,55.0
267,68.0,0,96,4.0,55.0
268,66.0,0,94,4.0,65.0
269,60.0,0,94,2.0,65.0
270,75.0,96,94,1.0,65.0
271,56.0,0,0,3.0,75.0
272,60.0,96,96,2.0,75.0
273,66.0,0,96,4.0,75.0
274,75.0,0,96,1.0,75.0
275,56.0,96,96,2.0,65.0
276,73.0,0,160,1.0,65.0
277,65.0,0,160,4.0,65.0
278,68.0,96,94,2.0,55.0
279,61.0,0,94,3.0,55.0
280,41.0,96,96,4.0,55.0
281,49.0,0,96,3.0,55.0
282,39.0,0,94,4.0,65.0
283,54.0,96,94,3.0,65.0
284,68.0,96,288,1.0,45.0
285,56.0,96,0,2.0,75.0
286,54.0,0,96,3.0,75.0
287,39.0,0,96,4.0,75.0
288,68.0,0,192,1.0,75.0
289,53.0,0,96,3.0,60.0
290,37.0,96,160,4.0,60.0
291,61.0,0,94,2.0,45.0
292,52.0,0,94,3.0,45.0
293,73.0,96,94,1.0,45.0
294,61.0,0,160,1.0,30.0
295,56.0,96,160,2.0,30.0
296,52.0,0,160,3.0,30.0
297,37.0,0,160,4.0,30.0
298,61.0,0,46,1.0,30.0
299,52.0,240,46,3.0,30.0
300,37.0,0,46,4.0,30.0
301,56.0,0,46,2.0,30.0
302,60.0,48,160,1.0,30.0
303,54.0,0,160,3.0,30.0
304,39.0,0,160,4.0,30.0
305,56.0,0,160,2.0,30.0
306,54.0,240,46,3.0,30.0
307,39.0,0,46,4.0,30.0
308,56.0,0,46,2.0,30.0
309,60.0,0,46,1.0,30.0
310,37.0,0,160,4.0,30.0
311,52.0,0,160,3.0,30.0
312,61.0,48,160,1.0,30.0
313,56.0,0,160,2.0,30.0
314,61.0,0,46,1.0,30.0
315,44.0,240,46,4.0,30.0
316,56.0,0,46,2.0,30.0
317,52.0,0,46,3.0,30.0
318,63.0,48,94,1.0,30.0
319,51.0,0,94,3.0,30.0
320,44.0,0,94,4.0,30.0
321,60.0,0,94,2.0,30.0
322,44.0,0,34,4.0,30.0
323,69.0,144,34,1.0,30.0
324,60.0,0,34,2.0,30.0
325,51.0,0,34,3.0,30.0
326,44.0,48,34,4.0,40.0
327,60.0,0,34,2.0,40.0
328,51.0,0,34,3.0,40.0
329,68.0,0,34,1.0,40.0
330,59.0,0,32,2.0,50.0
331,56.0,0,32,3.0,50.0
332,44.0,0,32,4.0,50.0
333,63.0,48,32,1.0,50.0
334,56.0,0,160,3.0,30.0
335,40.0,48,160,4.0,30.0
336,59.0,0,160,2.0,30.0
337,64.0,0,160,1.0,30.0
338,64.0,0,46,1.0,30.0
339,52.0,240,46,4.0,30.0
340,56.0,0,46,2.0,30.0
341,59.0,0,46,3.0,30.0
342,63.0,0,160,1.0,30.0
343,54.0,48,160,4.0,30.0
344,59.0,0,160,3.0,30.0
345,57.0,0,160,2.0,30.0
346,57.0,240,46,2.0,30.0
347,54.0,0,46,4.0,30.0
348,63.0,0,46,1.0,30.0
349,59.0,0,46,3.0,30.0
350,56.0,48,160,2.0,30.0
351,52.0,0,160,4.0,30.0
352,59.0,0,160,3.0,30.0
353,68.0,0,160,1.0,30.0
354,68.0,0,46,1.0,30.0
355,64.0,0,46,2.0,30.0
356,56.0,0,46,3.0,30.0
357,52.0,240,46,4.0,30.0
358,47.0,48,94,4.0,30.0
359,71.0,0,94,1.0,30.0
360,54.0,0,94,3.0,30.0
361,63.0,0,94,2.0,30.0
362,63.0,0,34,2.0,30.0
363,54.0,0,34,3.0,30.0
364,71.0,144,34,1.0,30.0
365,45.0,0,34,4.0,30.0
366,64.0,0,34,2.0,40.0
367,71.0,0,34,1.0,40.0
368,52.0,48,34,3.0,40.0
369,44.0,0,34,4.0,40.0
370,42.0,0,32,4.0,50.0
371,71.0,0,32,1.0,50.0
372,63.0,0,32,2.0,50.0
373,57.0,48,32,3.0,50.0
374,62.0,0,160,2.0,30.0
375,41.0,48,160,4.0,30.0
376,56.0,0,160,3.0,30.0
377,71.0,0,160,1.0,30.0
378,68.0,0,46,3.0,55.0
379,71.0,0,46,2.0,55.0
380,41.0,0,46,4.0,55.0
381,74.0,240,46,1.0,55.0
382,68.0,0,160,3.0,60.0
383,71.0,48,160,2.0,60.0
384,73.0,0,160,1.0,60.0
385,41.0,0,160,4.0,60.0
386,73.0,240,46,1.0,35.0
387,71.0,0,46,2.0,35.0
388,41.0,0,46,4.0,35.0
389,68.0,0,46,3.0,35.0
390,64.0,0,160,2.0,30.0
391,55.0,48,160,3.0,30.0
392,67.0,0,160,3.0,30.0
393,46.0,0,160,4.0,30.0
394,73.0,0,160,1.0,30.0
395,79.0,240,46,1.0,55.0
396,61.0,0,46,3.0,55.0
397,46.0,0,46,4.0,55.0
398,76.0,0,46,2.0,55.0
399,61.0,48,160,3.0,60.0
400,79.0,0,160,1.0,60.0
401,76.0,0,160,2.0,60.0
402,46.0,0,160,4.0,60.0
403,61.0,0,46,3.0,35.0
404,46.0,0,46,4.0,35.0
405,78.0,0,46,1.0,35.0
406,64.0,240,46,2.0,35.0
407,78.0,0,160,1.0,30.0
408,63.0,48,160,2.0,30.0
409,48.0,0,160,4.0,30.0
410,57.0,0,160,3.0,30.0
411,72.0,0,46,3.0,50.0
412,87.0,0,46,1.0,50.0
413,45.0,240,46,4.0,50.0
414,78.0,0,46,2.0,50.0
415,87.0,48,160,1.0,37.0
416,45.0,0,160,4.0,37.0
417,72.0,0,160,3.0,37.0
418,78.0,0,160,2.0,37.0
419,58.0,0,46,3.0,45.0
420,43.0,0,46,4.0,45.0
421,73.0,240,46,2.0,45.0
422,88.0,0,46,1.0,45.0
423,64.0,0,46,2.0,45.0
424,56.0,48,160,3.0,45.0
425,64.0,0,160,2.0,45.0
426,73.0,0,160,2.0,45.0
427,44.0,0,160,4.0,45.0
428,88.0,0,160,1.0,45.0
429,84.0,0,46,1.0,75.0
430,56.0,0,46,3.0,75.0
431,66.0,240,46,2.0,75.0
432,51.0,0,46,4.0,75.0
433,85.0,0,94,1.0,68.0
434,49.0,48,94,4.0,68.0
435,56.0,0,94,3.0,68.0
436,64.0,0,94,2.0,68.0
437,42.0,144,34,4.0,45.0
438,61.0,0,34,2.0,45.0
439,57.0,0,34,3.0,45.0
440,85.0,0,34,1.0,45.0
441,42.0,0,34,4.0,55.0
442,65.0,48,34,2.0,55.0
443,83.0,0,34,1.0,55.0
444,56.0,0,34,3.0,55.0
445,81.0,48,32,1.0,65.0
446,57.0,0,32,3.0,65.0
447,66.0,0,32,2.0,65.0
448,42.0,0,32,4.0,65.0
449,61.0,0,160,3.0,45.0
450,64.0,0,160,2.0,45.0
451,44.0,0,160,4.0,45.0
452,80.0,48,160,1.0,45.0
453,68.0,0,46,1.0,75.0
454,60.0,0,46,2.0,75.0
455,54.0,0,46,3.0,75.0
456,51.0,240,46,4.0,75.0
457,61.0,0,94,2.0,68.0
458,49.0,0,94,4.0,68.0
459,52.0,0,94,3.0,68.0
460,68.0,48,94,1.0,68.0
461,64.0,0,94,2.0,68.0
462,61.0,144,34,1.0,45.0
463,49.0,0,34,4.0,45.0
464,53.0,0,34,3.0,45.0
465,47.0,0,34,4.0,55.0
466,65.0,48,34,1.0,55.0
467,61.0,0,34,2.0,55.0
468,53.0,0,34,3.0,55.0
469,45.0,0,32,4.0,65.0
470,54.0,48,32,3.0,65.0
471,66.0,0,32,1.0,65.0
472,61.0,0,32,2.0,65.0
473,68.0,0,160,1.0,45.0
474,52.0,0,160,3.0,45.0
475,61.0,0,160,2.0,45.0
476,44.0,48,160,4.0,45.0
477,51.0,240,46,3.0,30.0
478,68.0,0,46,1.0,30.0
479,60.0,0,46,2.0,30.0
480,44.0,0,46,4.0,30.0
481,53.0,144,96,3.0,30.0
482,61.0,0,96,2.0,30.0
483,58.0,0,48,3.0,37.0
484,66.0,0,48,2.0,37.0
485,63.0,0,46,2.0,41.0
486,54.0,48,46,3.0,41.0
487,68.0,0,192,1.0,30.0
488,37.0,0,96,4.0,37.0
489,49.0,96,96,4.0,37.0
490,68.0,48,94,1.0,45.0
491,61.0,0,96,2.0,45.0
492,37.0,0,96,4.0,45.0
493,49.0,0,96,4.0,45.0
494,53.0,0,96,3.0,45.0
495,48.0,0,96,4.0,45.0
496,51.0,96,96,3.0,45.0
497,77.0,0,192,1.0,45.0
498,49.0,0,96,3.0,45.0
499,56.0,0,192,2.0,45.0
500,46.0,96,96,4.0,45.0
501,44.0,96,96,4.0,45.0
502,78.0,0,96,1.0,45.0
503,48.0,0,96,3.0,45.0
504,49.0,96,96,3.0,45.0
505,46.0,0,96,4.0,45.0
506,77.0,0,96,1.0,45.0
507,56.0,0,240,2.0,45.0
508,75.0,0,94,1.0,45.0
509,48.0,0,94,4.0,45.0
510,66.0,48,46,2.0,45.0
511,51.0,96,96,3.0,45.0
512,49.0,0,96,4.0,45.0
513,65.0,0,96,2.0,45.0
514,73.0,48,96,1.0,45.0
515,53.0,0,96,3.0,45.0
516,51.0,96,96,4.0,45.0
517,54.0,0,96,3.0,45.0
518,72.0,0,96,1.0,45.0
519,60.0,0,96,2.0,45.0
520,61.0,0,94,2.0,45.0
521,56.0,0,94,3.0,45.0
522,53.0,0,94,4.0,45.0
523,70.0,96,96,1.0,45.0
524,61.0,0,96,2.0,45.0
525,56.0,0,96,3.0,45.0
526,53.0,96,96,4.0,45.0
527,68.0,0,96,1.0,45.0
528,60.0,96,96,2.0,45.0
529,70.0,0,96,1.0,45.0
530,54.0,0,160,3.0,45.0
531,51.0,0,160,4.0,45.0
532,72.0,0,94,1.0,45.0
533,56.0,0,0,2.0,45.0
534,73.0,0,96,1.0,45.0
535,49.0,0,96,4.0,45.0
536,53.0,96,96,3.0,45.0
537,51.0,0,96,3.0,45.0
538,75.0,96,96,1.0,45.0
539,48.0,0,96,4.0,45.0
540,56.0,0,144,2.0,45.0
541,65.0,48,46,2.0,45.0
542,77.0,0,94,1.0,45.0
543,46.0,0,96,4.0,45.0
544,49.0,96,96,3.0,45.0
545,44.0,0,96,4.0,45.0
546,77.0,48,96,1.0,45.0
547,48.0,0,96,3.0,45.0
548,66.0,0,160,2.0,45.0
549,46.0,0,96,4.0,45.0
550,56.0,0,144,3.0,45.0
551,75.0,96,160,1.0,45.0
552,48.0,0,94,4.0,45.0
553,54.0,48,46,3.0,45.0
554,68.0,96,96,2.0,45.0
555,53.0,0,96,3.0,45.0
556,73.0,48,96,1.0,45.0
557,49.0,0,96,4.0,45.0
558,68.0,0,144,2.0,45.0
559,54.0,0,96,3.0,45.0
560,72.0,96,96,1.0,45.0
561,51.0,0,96,4.0,45.0
562,60.0,48,48,2.0,45.0
563,53.0,48,94,4.0,45.0
564,56.0,0,94,3.0,45.0
565,61.0,0,94,2.0,45.0
566,70.0,0,96,1.0,45.0
567,68.0,0,96,1.0,45.0
568,61.0,96,96,2.0,45.0
569,53.0,0,96,4.0,45.0
570,70.0,96,96,1.0,45.0
571,51.0,0,144,4.0,45.0
572,56.0,0,240,3.0,45.0
573,55.0,48,46,3.0,45.0
574,52.0,0,46,4.0,45.0
575,72.0,96,94,1.0,45.0
576,60.0,0,192,2.0,45.0
577,56.0,0,96,3.0,45.0
578,72.0,0,96,1.0,45.0
579,60.0,0,96,2.0,45.0
580,53.0,48,160,4.0,45.0
581,60.0,96,144,3.0,45.0
582,68.0,0,144,1.0,45.0
583,65.0,0,144,2.0,45.0
584,53.0,96,94,4.0,45.0
585,69.0,0,46,1.0,45.0
586,60.0,0,96,2.0,45.0
587,57.0,48,96,3.0,45.0
588,53.0,0,96,4.0,45.0
589,61.0,0,96,2.0,45.0
590,58.0,48,96,3.0,45.0
591,77.0,48,160,1.0,45.0
592,60.0,0,46,3.0,45.0
593,63.0,48,46,2.0,45.0
594,49.0,48,96,4.0,45.0
595,60.0,48,48,3.0,45.0
596,63.0,0,48,2.0,45.0
597,77.0,0,94,1.0,45.0
598,65.0,0,46,2.0,45.0
599,46.0,0,94,4.0,45.0
600,61.0,48,46,3.0,45.0
601,65.0,0,96,2.0,45.0
602,77.0,48,96,1.0,45.0
603,61.0,0,96,3.0,45.0
604,58.0,0,160,4.0,45.0
605,74.0,0,96,1.0,45.0
606,70.0,96,144,2.0,45.0
607,70.0,0,94,1.0,45.0
608,58.0,96,94,4.0,45.0
609,65.0,48,96,2.0,45.0
610,62.0,0,240,3.0,45.0
611,58.0,0,96,4.0,45.0
612,66.0,0,96,2.0,45.0
613,63.0,48,96,3.0,45.0
614,82.0,48,160,1.0,45.0
615,68.0,48,46,2.0,45.0
616,65.0,0,46,3.0,45.0
617,54.0,48,96,4.0,45.0
618,65.0,0,48,3.0,45.0
619,68.0,48,48,2.0,45.0
620,66.0,48,46,3.0,45.0
621,51.0,0,94,4.0,45.0
622,82.0,0,94,1.0,45.0
623,70.0,0,46,2.0,45.0
624,70.0,0,48,2.0,45.0
625,66.0,48,48,3.0,45.0
626,82.0,0,96,1.0,45.0
627,56.0,0,160,4.0,45.0
628,78.0,48,96,1.0,45.0
629,54.0,0,190,3.0,45.0
630,63.0,48,190,2.0,45.0
631,56.0,0,94,4.0,45.0
632,75.0,96,94,1.0,45.0
633,54.0,0,96,3.0,45.0
634,60.0,48,96,2.0,45.0
635,56.0,48,96,4.0,45.0
636,53.0,0,96,3.0,45.0
637,61.0,48,96,2.0,45.0
638,80.0,0,160,1.0,45.0
639,54.0,0,46,3.0,45.0
640,63.0,48,46,2.0,45.0
641,53.0,48,96,4.0,45.0
642,63.0,0,48,2.0,45.0
643,54.0,48,48,3.0,45.0
644,49.0,0,94,4.0,45.0
645,65.0,0,46,2.0,45.0
646,56.0,48,46,3.0,45.0
647,80.0,0,94,1.0,45.0
648,61.0,0,96,3.0,45.0
649,44.0,0,96,4.0,45.0
650,65.0,0,144,2.0,45.0
651,73.0,48,48,2.0,45.0
652,53.0,0,96,4.0,45.0
653,80.0,48,192,1.0,45.0
654,56.0,96,144,3.0,45.0
655,54.0,48,46,3.0,45.0
656,72.0,48,94,2.0,45.0
657,51.0,0,96,4.0,45.0
658,84.0,0,96,1.0,45.0
659,73.0,0,48,2.0,45.0
660,53.0,0,48,3.0,45.0
661,49.0,48,96,4.0,45.0
662,68.0,48,96,2.0,45.0
663,65.0,0,96,3.0,45.0
664,85.0,0,160,1.0,45.0
665,77.0,48,46,2.0,45.0
666,56.0,0,46,3.0,45.0
667,41.0,48,96,4.0,45.0
668,75.0,0,94,2.0,45.0
669,54.0,0,94,3.0,45.0
670,42.0,48,94,4.0,45.0
671,80.0,0,96,1.0,45.0
672,73.0,0,48,2.0,45.0
673,53.0,96,48,3.0,45.0
674,80.0,0,96,1.0,45.0
675,65.0,48,96,2.0,50.0
676,49.0,0,96,3.0,50.0
677,73.0,48,46,2.0,60.0
678,53.0,0,46,3.0,60.0
679,89.0,48,96,1.0,55.0
680,54.0,0,94,3.0,65.0
681,72.0,48,94,2.0,65.0
682,44.0,0,288,4.0,45.0
683,87.0,0,96,1.0,65.0
684,73.0,0,48,2.0,75.0
685,44.0,0,96,4.0,75.0
686,61.0,48,96,2.0,70.0
687,53.0,96,144,3.0,75.0
688,85.0,0,160,1.0,75.0
689,65.0,48,46,2.0,60.0
690,61.0,0,46,3.0,60.0
691,41.0,48,96,4.0,65.0
692,63.0,0,96,2.0,55.0
693,42.0,0,96,4.0,55.0
694,60.0,96,0,3.0,45.0
695,80.0,0,0,1.0,45.0
696,63.0,0,48,2.0,45.0
697,44.0,0,96,4.0,45.0
698,61.0,48,96,2.0,50.0
699,53.0,0,96,3.0,50.0
700,68.0,0,46,2.0,60.0
701,53.0,48,96,4.0,55.0
702,51.0,0,94,4.0,65.0
703,84.0,0,96,1.0,65.0
704,56.0,48,190,3.0,60.0
705,66.0,48,144,2.0,65.0
706,49.0,96,94,4.0,75.0
707,85.0,0,96,1.0,75.0
708,65.0,48,96,2.0,70.0
709,56.0,0,96,3.0,70.0
710,58.0,48,46,3.0,60.0
711,66.0,0,46,2.0,60.0
712,49.0,0,94,4.0,65.0
713,82.0,48,96,1.0,65.0
714,58.0,0,48,3.0,55.0
715,66.0,0,48,2.0,55.0
716,60.0,0,46,3.0,50.0
717,63.0,48,46,2.0,50.0
718,78.0,0,94,1.0,55.0
719,49.0,48,94,4.0,55.0
720,61.0,48,46,2.0,45.0
721,77.0,0,46,1.0,45.0
722,75.0,0,48,1.0,45.0
723,53.0,48,48,3.0,45.0
724,73.0,0,46,1.0,45.0
725,56.0,48,48,2.0,45.0
726,70.0,24,22,1.0,45.0
727,61.0,48,48,2.0,45.0
728,64.0,24,48,2.0,45.0
729,53.0,0,160,3.0,45.0
730,65.0,48,46,2.0,45.0
731,68.0,0,94,1.0,45.0
732,49.0,0,288,4.0,45.0
733,73.0,0,48,1.0,45.0
734,54.0,48,0,3.0,45.0
735,72.0,0,46,1.0,45.0
736,56.0,0,48,2.0,45.0
737,82.0,24,22,1.0,45.0
738,60.0,48,48,2.0,45.0
739,65.0,0,48,2.0,45.0
740,80.0,24,94,1.0,45.0
741,66.0,48,46,2.0,45.0
742,51.0,48,288,4.0,45.0
743,53.0,0,0,3.0,45.0
744,87.0,48,48,1.0,45.0
745,85.0,48,46,1.0,45.0
746,56.0,0,48,2.0,45.0
747,82.0,24,22,1.0,45.0
748,61.0,48,48,2.0,45.0
749,64.0,24,48,2.0,45.0
750,65.0,48,46,2.0,45.0
751,80.0,0,94,1.0,45.0
752,49.0,48,288,4.0,45.0
753,77.0,0,48,1.0,45.0
754,54.0,0,0,3.0,45.0
755,75.0,0,46,1.0,45.0
756,56.0,48,48,2.0,45.0
757,82.0,24,22,1.0,45.0
758,63.0,48,48,2.0,45.0
759,65.0,24,48,2.0,45.0
760,48.0,48,256,4.0,45.0
761,66.0,48,46,2.0,45.0
762,80.0,0,94,1.0,45.0
763,75.0,0,48,1.0,45.0
764,53.0,48,48,3.0,45.0
765,73.0,48,46,1.0,45.0
766,56.0,0,48,2.0,45.0
767,73.0,0,24,1.0,45.0
768,70.0,24,22,1.0,45.0
769,61.0,48,48,2.0,45.0
770,65.0,24,46,2.0,45.0
771,53.0,0,160,3.0,45.0
772,68.0,0,94,1.0,45.0
773,65.0,48,46,2.0,45.0
774,49.0,48,288,4.0,45.0
775,73.0,48,48,1.0,45.0
776,54.0,0,48,3.0,45.0
777,72.0,0,46,1.0,45.0
778,56.0,0,48,2.0,45.0
779,72.0,0,24,1.0,45.0
780,82.0,24,22,1.0,45.0
781,60.0,48,48,2.0,45.0
782,65.0,24,48,2.0,45.0
783,51.0,48,256,4.0,45.0
784,54.0,48,160,3.0,45.0
785,66.0,48,46,2.0,45.0
786,80.0,0,94,1.0,45.0
787,87.0,48,48,1.0,45.0
788,53.0,0,48,3.0,45.0
789,85.0,0,46,1.0,45.0
790,56.0,48,48,2.0,45.0
791,85.0,0,24,1.0,45.0
792,82.0,24,22,1.0,45.0
793,61.0,48,48,2.0,45.0
794,64.0,24,48,2.0,45.0
795,53.0,0,160,3.0,45.0
796,80.0,0,94,1.0,45.0
797,65.0,48,46,2.0,45.0
798,49.0,48,288,4.0,45.0
799,77.0,0,48,1.0,45.0
800,75.0,0,46,1.0,45.0
801,56.0,48,48,2.0,45.0
802,75.0,0,24,1.0,45.0
803,82.0,24,22,1.0,45.0
804,60.0,48,48,2.0,45.0
805,80.0,24,46,1.0,45.0
806,48.0,48,240,4.0,45.0
807,63.0,0,48,2.0,45.0
808,51.0,48,192,3.0,45.0
809,75.0,48,24,1.0,45.0
810,46.0,0,46,4.0,45.0
811,78.0,24,22,1.0,45.0
812,49.0,0,46,3.0,45.0
813,66.0,0,46,2.0,45.0
814,77.0,0,46,1.0,45.0
815,45.0,24,48,4.0,45.0
816,57.0,48,0,4.0,45.0
817,85.0,0,48,1.0,45.0
818,60.0,0,0,3.0,45.0
819,84.0,0,46,1.0,45.0
820,63.0,0,48,2.0,45.0
821,84.0,0,24,1.0,45.0
822,78.0,24,22,1.0,45.0
823,65.0,48,48,2.0,45.0
824,69.0,0,48,2.0,45.0
825,72.0,48,46,2.0,45.0
826,77.0,24,94,1.0,45.0
827,44.0,48,48,4.0,45.0
828,58.0,0,48,3.0,45.0
829,78.0,48,48,1.0,45.0
830,56.0,0,0,4.0,45.0
831,77.0,0,46,1.0,45.0
832,62.0,0,48,2.0,45.0
833,77.0,48,24,1.0,45.0
834,83.0,24,22,1.0,45.0
835,65.0,0,48,2.0,45.0
836,68.0,24,48,2.0,45.0
837,58.0,48,160,3.0,45.0
838,70.0,48,46,2.0,45.0
839,82.0,0,94,1.0,45.0
840,43.0,48,48,4.0,45.0
841,58.0,0,48,3.0,45.0
842,55.0,0,48,4.0,45.0
843,83.0,48,48,1.0,45.0
844,82.0,0,46,1.0,45.0
845,61.0,0,48,2.0,45.0
846,82.0,0,24,1.0,45.0
847,76.0,24,22,1.0,45.0
848,63.0,48,48,2.0,45.0
849,67.0,0,48,2.0,45.0
850,58.0,48,160,3.0,45.0
851,55.0,0,160,4.0,45.0
852,70.0,48,46,2.0,46.0
853,75.0,24,94,1.0,45.0
854,42.0,48,48,4.0,45.0
855,54.0,0,48,4.0,46.0
856,77.0,0,48,1.0,49.0
857,56.0,0,0,3.0,47.0
858,75.0,0,46,1.0,50.0
859,60.0,48,48,2.0,50.0
860,75.0,48,24,1.0,51.0
861,82.0,24,22,1.0,51.0
862,63.0,0,48,2.0,51.0
863,66.0,24,48,2.0,52.0
864,54.0,0,160,4.0,47.0
865,80.0,0,94,1.0,51.0
866,68.0,48,46,2.0,53.0
867,42.0,48,48,4.0,54.0
868,54.0,0,48,4.0,55.0
869,56.0,0,48,3.0,55.0
870,82.0,48,48,1.0,57.0
871,80.0,0,46,1.0,59.0
872,60.0,48,48,2.0,59.0
873,80.0,48,24,1.0,61.0
874,77.0,24,22,1.0,62.0
875,63.0,0,48,2.0,61.0
876,66.0,24,48,2.0,63.0
877,54.0,0,160,4.0,56.0
878,56.0,0,160,3.0,56.0
879,75.0,0,94,1.0,63.0
880,68.0,48,46,2.0,65.0
881,41.0,48,48,4.0,63.0
882,82.0,48,48,1.0,69.0
883,53.0,0,48,4.0,65.0
884,56.0,0,0,3.0,67.0
885,80.0,48,46,1.0,71.0
886,61.0,0,48,2.0,71.0
887,80.0,0,24,1.0,73.0
888,87.0,24,22,1.0,74.0
889,65.0,48,48,2.0,73.0
890,68.0,0,48,2.0,75.0
891,53.0,0,160,4.0,67.0
892,85.0,24,94,1.0,75.0
893,73.0,48,46,2.0,68.0
894,56.0,48,0,3.0,45.0
895,53.0,0,48,4.0,45.0
896,82.0,48,48,1.0,45.0
897,80.0,0,46,1.0,45.0
898,61.0,0,48,2.0,45.0
899,44.0,48,160,4.0,45.0
900,80.0,0,24,1.0,45.0
901,53.0,0,94,4.0,45.0
902,85.0,24,22,1.0,45.0
903,65.0,48,48,2.0,45.0
904,63.0,0,48,2.0,45.0
905,54.0,24,94,4.0,45.0
906,68.0,48,46,2.0,45.0
907,44.0,0,94,4.0,45.0
908,84.0,0,94,1.0,45.0
909,41.0,48,48,4.0,45.0
910,56.0,0,48,3.0,45.0
911,53.0,0,48,4.0,45.0
912,82.0,48,48,1.0,45.0
913,80.0,48,46,1.0,45.0
914,61.0,0,48,2.0,45.0
915,80.0,48,24,1.0,45.0
916,87.0,24,22,1.0,45.0
917,65.0,0,48,2.0,45.0
918,68.0,24,48,2.0,45.0
919,53.0,0,160,4.0,45.0
920,56.0,0,160,3.0,45.0
921,85.0,0,94,1.0,45.0
922,73.0,48,46,2.0,45.0
923,41.0,48,48,4.0,45.0
924,56.0,0,48,3.0,45.0
925,82.0,0,48,1.0,45.0
926,53.0,0,0,4.0,49.0
927,80.0,0,46,1.0,47.0
928,62.0,48,48,2.0,45.0
929,80.0,48,24,1.0,49.0
930,87.0,24,22,1.0,50.0
931,65.0,0,48,2.0,47.0
932,68.0,24,48,2.0,49.0
933,56.0,0,160,3.0,47.0
934,71.0,48,46,2.0,51.0
935,86.0,0,96,1.0,51.0
936,86.0,48,48,1.0,79.0
937,58.0,48,48,3.0,82.0
938,54.0,0,48,4.0,61.0
939,87.0,0,48,1.0,60.0
940,89.0,0,48,1.0,63.0
941,63.0,0,48,2.0,81.0
942,54.0,0,96,4.0,63.0
943,42.0,48,0,4.0,69.0
944,66.0,48,48,2.0,60.0
945,90.0,0,48,1.0,66.0
946,70.0,0,46,2.0,63.0
947,54.0,0,48,4.0,69.0
948,92.0,0,48,1.0,69.0
949,58.0,48,160,3.0,61.0
950,70.0,0,46,2.0,66.0
951,43.0,0,46,4.0,72.0
952,55.0,48,46,4.0,72.0
953,94.0,0,46,1.0,72.0
954,94.0,0,46,1.0,63.0
955,53.0,0,48,4.0,45.0
956,58.0,48,48,1.0,45.0
957,56.0,48,46,1.0,45.0
958,68.0,0,48,2.0,45.0
959,65.0,0,96,3.0,45.0
960,44.0,48,160,4.0,45.0
961,53.0,0,94,4.0,45.0
962,61.0,24,22,1.0,45.0
963,73.0,0,48,2.0,45.0
964,77.0,0,48,2.0,45.0
965,56.0,48,142,3.0,45.0
966,60.0,0,94,1.0,45.0
967,75.0,48,46,2.0,45.0
968,54.0,24,94,4.0,45.0
969,44.0,0,94,4.0,45.0
970,49.0,48,48,4.0,44.0
971,63.0,0,48,1.0,45.0
972,61.0,0,46,1.0,44.0
973,68.0,0,48,2.0,45.0
974,37.0,48,160,4.0,45.0
975,61.0,48,24,1.0,43.0
976,63.0,24,22,1.0,43.0
977,49.0,48,94,4.0,43.0
978,65.0,0,144,3.0,45.0
979,70.0,0,48,3.0,42.0
980,42.0,24,48,4.0,41.0
981,61.0,0,94,1.0,43.0
982,39.0,48,46,4.0,40.0
983,66.0,0,46,3.0,41.0
984,73.0,0,142,2.0,44.0
985,49.0,48,48,4.0,38.0
986,75.0,0,48,1.0,40.0
987,73.0,0,46,1.0,39.0
988,56.0,0,48,2.0,39.0
989,37.0,48,160,4.0,39.0
990,73.0,48,24,1.0,38.0
991,49.0,48,94,4.0,37.0
992,75.0,24,22,1.0,37.0
993,53.0,0,144,3.0,39.0
994,42.0,0,48,4.0,34.0
995,58.0,0,48,3.0,35.0
996,73.0,24,94,1.0,36.0
997,54.0,0,46,3.0,34.0
998,39.0,48,46,4.0,32.0
999,61.0,0,142,2.0,38.0
1000,87.0,0,48,1.0,30.0
1001,49.0,48,0,4.0,30.0
1002,85.0,0,46,1.0,30.0
1003,56.0,0,48,2.0,30.0
1004,37.0,48,160,4.0,30.0
1005,85.0,0,24,1.0,30.0
1006,87.0,24,22,1.0,30.0
1007,53.0,0,144,3.0,30.0
1008,58.0,0,48,3.0,30.0
1009,42.0,24,48,4.0,30.0
1010,61.0,48,142,2.0,30.0
1011,54.0,0,46,3.0,30.0
1012,39.0,48,46,4.0,30.0
1013,85.0,48,0,1.0,30.0
1014,49.0,0,48,4.0,30.0
1015,56.0,48,48,2.0,30.0
1016,37.0,0,160,4.0,30.0
1017,85.0,0,24,1.0,30.0
1018,87.0,24,22,1.0,30.0
1019,61.0,48,48,2.0,30.0
1020,53.0,0,0,3.0,30.0
1021,85.0,24,46,1.0,30.0
1022,65.0,0,48,2.0,30.0
1023,80.0,0,24,1.0,30.0
1024,82.0,24,22,1.0,30.0
1025,68.0,48,46,2.0,30.0
1026,49.0,0,0,4.0,30.0
1027,53.0,0,0,3.0,30.0
1028,80.0,0,46,1.0,30.0
1029,77.0,48,24,1.0,30.0
1030,78.0,24,22,1.0,30.0
1031,37.0,24,448,4.0,30.0
1032,73.0,0,448,2.0,30.0
1033,65.0,0,448,2.0,30.0
1034,77.0,24,352,1.0,30.0
1035,70.0,384,720,1.0,60.0
