,note,step,duration,channel,velocity
0,60.0,96,528,2.0,0.0
1,53.0,96,528,3.0,0.0
2,41.0,288,48,4.0,0.0
3,69.0,176,544,1.0,0.0
4,60.0,96,528,2.0,0.0
5,45.0,96,48,4.0,0.0
6,46.0,112,48,4.0,0.0
7,52.0,208,528,3.0,0.0
8,67.0,176,544,1.0,0.0
9,48.0,96,48,4.0,0.0
10,60.0,192,528,2.0,0.0
11,53.0,16,528,3.0,0.0
12,50.0,0,160,4.0,0.0
13,65.0,0,544,1.0,0.0
14,60.0,192,528,2.0,0.0
15,48.0,192,160,4.0,0.0
16,46.0,176,160,4.0,0.0
17,52.0,16,528,3.0,0.0
18,67.0,176,544,1.0,0.0
19,43.0,192,160,4.0,0.0
20,60.0,192,528,2.0,0.0
21,41.0,0,160,4.0,0.0
22,53.0,16,528,3.0,0.0
23,69.0,0,544,1.0,0.0
24,60.0,192,528,2.0,0.0
25,45.0,192,160,4.0,0.0
26,46.0,176,160,4.0,0.0
27,52.0,16,528,3.0,0.0
28,67.0,0,432,1.0,0.0
29,48.0,0,160,4.0,0.0
30,60.0,80,160,2.0,0.0
31,50.0,192,48,4.0,0.0
32,57.0,0,48,2.0,0.0
33,53.0,0,48,3.0,0.0
34,38.0,192,48,4.0,0.0
35,65.0,0,48,1.0,0.0
36,57.0,0,48,2.0,0.0
37,53.0,0,48,3.0,0.0
38,64.0,0,48,2.0,0.0
39,36.0,0,48,4.0,0.0
40,67.0,0,48,1.0,0.0
41,52.0,192,48,3.0,0.0
42,53.0,0,48,3.0,0.0
43,57.0,192,48,2.0,0.0
44,41.0,0,48,4.0,0.0
45,65.0,0,48,1.0,0.0
46,77.0,0,48,2.0,0.0
47,69.0,0,48,3.0,0.0
48,62.0,192,48,4.0,0.0
49,76.0,192,48,3.0,0.0
50,60.0,0,48,4.0,0.0
51,79.0,0,48,2.0,0.0
52,84.0,208,528,1.0,0.0
53,77.0,0,48,2.0,0.0
54,65.0,80,160,4.0,0.0
55,69.0,112,48,3.0,0.0
56,81.0,0,544,2.0,0.0
57,53.0,96,48,3.0,0.0
58,65.0,176,352,3.0,0.0
59,84.0,16,528,1.0,0.0
60,57.0,192,160,4.0,0.0
61,58.0,0,160,4.0,0.0
62,79.0,0,544,2.0,0.0
63,64.0,192,160,3.0,0.0
64,60.0,32,160,4.0,0.0
65,84.0,16,528,1.0,0.0
66,70.0,160,192,3.0,0.0
67,62.0,0,160,4.0,0.0
68,69.0,176,160,3.0,0.0
69,57.0,192,160,3.0,0.0
70,77.0,176,544,2.0,0.0
71,69.0,0,160,3.0,0.0
72,84.0,16,528,1.0,0.0
73,60.0,192,160,4.0,0.0
74,58.0,0,160,4.0,0.0
75,62.0,0,160,3.0,0.0
76,70.0,192,160,3.0,0.0
77,79.0,0,544,2.0,0.0
78,84.0,16,528,1.0,0.0
79,55.0,0,160,4.0,0.0
80,64.0,192,160,3.0,0.0
81,53.0,0,160,4.0,0.0
82,69.0,176,160,3.0,0.0
83,81.0,0,544,2.0,0.0
84,60.0,192,160,3.0,0.0
85,84.0,16,528,1.0,0.0
86,65.0,176,352,3.0,0.0
87,57.0,192,160,4.0,0.0
88,58.0,0,160,4.0,0.0
89,79.0,112,432,2.0,0.0
90,52.0,192,160,3.0,0.0
91,60.0,80,160,4.0,0.0
92,84.0,0,240,1.0,0.0
93,64.0,0,160,3.0,0.0
94,62.0,0,160,4.0,0.0
95,57.0,80,160,3.0,0.0
96,77.0,0,48,2.0,0.0
97,50.0,80,160,4.0,0.0
98,86.0,112,48,1.0,0.0
99,69.0,0,160,3.0,0.0
100,88.0,0,48,1.0,0.0
101,48.0,0,160,4.0,0.0
102,60.0,80,160,3.0,0.0
103,79.0,112,48,2.0,0.0
104,53.0,368,160,4.0,0.0
105,77.0,0,48,2.0,0.0
106,89.0,112,48,1.0,0.0
107,63.0,0,336,1.0,0.0
108,39.0,0,336,4.0,0.0
109,51.0,576,336,3.0,0.0
110,39.0,0,336,4.0,0.0
111,51.0,384,336,3.0,0.0
112,39.0,0,336,4.0,0.0
113,51.0,208,336,3.0,0.0
114,39.0,0,160,4.0,0.0
115,51.0,560,160,3.0,0.0
116,51.0,384,336,3.0,0.0
117,63.0,0,336,1.0,0.0
118,39.0,0,336,4.0,0.0
119,63.0,0,336,1.0,0.0
120,39.0,0,336,4.0,0.0
121,51.0,208,336,3.0,0.0
122,39.0,560,160,4.0,0.0
123,51.0,0,160,3.0,0.0
124,63.0,0,160,1.0,0.0
125,63.0,0,336,1.0,0.0
126,51.0,0,336,3.0,0.0
127,39.0,576,336,4.0,0.0
128,51.0,0,336,3.0,0.0
129,39.0,576,336,4.0,0.0
130,63.0,0,336,1.0,0.0
131,64.0,0,336,1.0,0.0
132,40.0,0,336,4.0,0.0
133,52.0,576,336,3.0,0.0
134,52.0,0,336,3.0,0.0
135,64.0,208,336,1.0,0.0
136,36.0,240,720,4.0,0.0
137,53.0,176,160,3.0,0.0
138,69.0,0,544,1.0,0.0
139,48.0,176,544,3.0,0.0
140,65.0,192,576,2.0,0.0
141,36.0,48,528,4.0,0.0
142,57.0,160,192,3.0,0.0
143,59.0,0,160,3.0,0.0
144,48.0,176,544,3.0,0.0
145,67.0,0,544,1.0,0.0
146,60.0,160,192,3.0,0.0
147,64.0,0,192,2.0,0.0
148,36.0,48,528,4.0,0.0
149,62.0,0,160,3.0,0.0
150,57.0,192,384,2.0,0.0
151,65.0,0,544,1.0,0.0
152,48.0,0,544,3.0,0.0
153,56.0,0,192,2.0,0.0
154,36.0,48,528,4.0,0.0
155,60.0,160,192,3.0,0.0
156,62.0,0,384,2.0,0.0
157,59.0,176,160,3.0,0.0
158,48.0,192,192,3.0,0.0
159,67.0,176,544,1.0,0.0
160,49.0,160,192,3.0,0.0
161,58.0,0,192,3.0,0.0
162,64.0,0,352,2.0,0.0
163,36.0,48,528,4.0,0.0
164,57.0,0,160,3.0,0.0
165,48.0,0,160,3.0,0.0
166,57.0,192,192,2.0,0.0
167,69.0,0,544,1.0,0.0
168,48.0,0,544,3.0,0.0
169,36.0,48,528,4.0,0.0
170,65.0,176,352,2.0,0.0
171,57.0,160,192,3.0,0.0
172,59.0,0,160,3.0,0.0
173,67.0,112,432,1.0,0.0
174,48.0,80,544,3.0,0.0
175,65.0,160,192,2.0,0.0
176,60.0,48,192,3.0,0.0
177,64.0,32,160,2.0,0.0
178,36.0,16,528,4.0,0.0
179,59.0,0,160,3.0,0.0
180,56.0,0,336,2.0,0.0
181,65.0,96,48,1.0,0.0
182,62.0,80,160,2.0,0.0
183,48.0,0,544,3.0,0.0
184,64.0,0,160,2.0,0.0
185,55.0,32,160,2.0,0.0
186,36.0,0,352,4.0,0.0
187,67.0,112,48,1.0,0.0
188,58.0,160,192,3.0,0.0
189,57.0,80,160,2.0,0.0
190,65.0,0,160,1.0,0.0
191,41.0,0,48,4.0,0.0
192,53.0,384,48,3.0,0.0
193,43.0,0,352,4.0,0.0
194,55.0,272,352,3.0,0.0
195,77.0,0,48,1.0,0.0
196,65.0,112,48,2.0,0.0
197,57.0,384,544,3.0,0.0
198,45.0,0,544,4.0,0.0
199,69.0,0,48,2.0,0.0
200,81.0,192,48,1.0,0.0
201,70.0,112,48,2.0,0.0
202,82.0,0,48,1.0,0.0
203,43.0,0,544,4.0,0.0
204,55.0,0,544,3.0,0.0
205,72.0,0,160,2.0,0.0
206,84.0,192,160,1.0,0.0
207,86.0,0,160,1.0,0.0
208,74.0,384,160,2.0,0.0
209,41.0,384,544,4.0,0.0
210,53.0,0,544,3.0,0.0
211,84.0,192,160,1.0,0.0
212,72.0,0,160,2.0,0.0
213,70.0,0,160,2.0,0.0
214,82.0,0,160,1.0,0.0
215,55.0,0,544,3.0,0.0
216,43.0,384,544,4.0,0.0
217,79.0,192,160,1.0,0.0
218,67.0,0,160,2.0,0.0
219,65.0,0,160,2.0,0.0
220,77.0,0,160,1.0,0.0
221,57.0,0,544,3.0,0.0
222,45.0,384,544,4.0,0.0
223,69.0,0,160,2.0,0.0
224,81.0,192,160,1.0,0.0
225,82.0,0,160,1.0,0.0
226,70.0,0,160,2.0,0.0
227,43.0,0,544,4.0,0.0
228,55.0,80,544,3.0,0.0
229,84.0,192,160,1.0,0.0
230,72.0,0,160,2.0,0.0
231,86.0,0,160,1.0,0.0
232,74.0,0,160,2.0,0.0
233,53.0,192,48,3.0,0.0
234,41.0,0,48,4.0,0.0
235,43.0,112,48,4.0,0.0
236,84.0,0,160,1.0,0.0
237,55.0,0,48,3.0,0.0
238,64.0,0,160,2.0,0.0
239,72.0,80,160,2.0,0.0
240,84.0,0,48,1.0,0.0
241,41.0,0,48,4.0,0.0
242,53.0,192,48,3.0,0.0
243,69.0,0,48,2.0,0.0
244,72.0,0,48,2.0,0.0
245,84.0,0,48,1.0,0.0
246,57.0,192,48,3.0,0.0
247,72.0,0,48,2.0,0.0
248,69.0,0,48,2.0,0.0
249,87.0,0,48,1.0,0.0
250,53.0,192,48,3.0,0.0
251,65.0,192,48,2.0,0.0
252,86.0,0,48,1.0,0.0
253,58.0,0,48,3.0,0.0
254,41.0,192,48,4.0,0.0
255,43.0,192,48,4.0,0.0
256,41.0,192,48,4.0,0.0
257,74.0,0,48,2.0,0.0
258,65.0,192,48,2.0,0.0
259,88.0,0,48,1.0,0.0
260,58.0,0,48,3.0,0.0
261,89.0,0,48,1.0,0.0
262,65.0,0,48,2.0,0.0
263,58.0,192,48,3.0,0.0
264,74.0,0,48,2.0,0.0
265,65.0,80,160,3.0,0.0
266,69.0,0,160,2.0,0.0
267,84.0,112,48,1.0,0.0
268,77.0,80,160,2.0,0.0
269,65.0,0,160,3.0,0.0
270,41.0,112,48,4.0,0.0
271,67.0,0,160,3.0,0.0
272,79.0,80,160,2.0,0.0
273,39.0,112,48,4.0,0.0
274,66.0,0,160,3.0,0.0
275,38.0,112,48,4.0,0.0
276,78.0,80,160,2.0,0.0
277,67.0,0,160,3.0,0.0
278,40.0,112,48,4.0,0.0
279,82.0,0,160,2.0,0.0
280,86.0,80,160,1.0,0.0
281,69.0,0,160,3.0,0.0
282,42.0,112,48,4.0,0.0
283,84.0,0,160,1.0,0.0
284,81.0,80,160,2.0,0.0
285,84.0,112,48,1.0,0.0
286,62.0,0,160,3.0,0.0
287,43.0,80,160,4.0,0.0
288,81.0,0,48,2.0,0.0
289,64.0,0,160,3.0,0.0
290,79.0,0,48,2.0,0.0
291,43.0,80,160,4.0,0.0
292,82.0,112,48,1.0,0.0
293,45.0,192,160,4.0,0.0
294,60.0,0,160,3.0,0.0
295,77.0,112,48,2.0,0.0
296,81.0,0,48,1.0,0.0
297,62.0,0,192,3.0,0.0
298,81.0,160,192,1.0,0.0
299,77.0,0,192,2.0,0.0
300,46.0,32,160,4.0,0.0
301,46.0,0,160,4.0,0.0
302,55.0,0,160,3.0,0.0
303,82.0,0,160,1.0,0.0
304,74.0,80,160,2.0,0.0
305,79.0,112,48,1.0,0.0
306,48.0,80,160,4.0,0.0
307,76.0,0,48,2.0,0.0
308,70.0,0,48,2.0,0.0
309,60.0,0,48,3.0,0.0
310,60.0,80,160,3.0,0.0
311,41.0,0,160,4.0,0.0
312,69.0,112,48,2.0,0.0
313,81.0,0,48,1.0,0.0
314,77.0,0,48,1.0,0.0
315,65.0,192,48,2.0,0.0
316,67.0,304,48,2.0,0.0
317,79.0,0,48,1.0,0.0
318,77.0,80,160,1.0,0.0
319,65.0,0,160,2.0,0.0
320,57.0,0,48,3.0,0.0
321,60.0,192,48,4.0,0.0
322,63.0,0,48,4.0,0.0
323,60.0,304,48,3.0,0.0
324,58.0,192,160,3.0,0.0
325,62.0,0,160,4.0,0.0
326,77.0,192,160,1.0,0.0
327,65.0,0,160,2.0,0.0
328,67.0,0,160,2.0,0.0
329,79.0,192,160,1.0,0.0
330,65.0,192,160,2.0,0.0
331,77.0,0,160,1.0,0.0
332,58.0,0,160,3.0,0.0
333,64.0,192,160,4.0,0.0
334,58.0,192,160,3.0,0.0
335,65.0,0,160,4.0,0.0
336,60.0,192,160,4.0,0.0
337,57.0,0,160,3.0,0.0
338,65.0,192,160,2.0,0.0
339,77.0,0,160,1.0,0.0
340,67.0,192,160,2.0,0.0
341,79.0,0,160,1.0,0.0
342,77.0,0,160,1.0,0.0
343,65.0,192,160,2.0,0.0
344,66.0,0,160,2.0,0.0
345,78.0,192,160,1.0,0.0
346,60.0,0,160,3.0,0.0
347,63.0,0,160,4.0,0.0
348,58.0,80,160,3.0,0.0
349,62.0,0,160,4.0,0.0
350,67.0,0,160,2.0,0.0
351,79.0,0,160,1.0,0.0
352,58.0,0,48,3.0,0.0
353,79.0,0,160,1.0,0.0
354,62.0,112,48,4.0,0.0
355,67.0,80,160,2.0,0.0
356,57.0,0,48,3.0,0.0
357,79.0,0,160,1.0,0.0
358,60.0,112,48,4.0,0.0
359,67.0,80,160,2.0,0.0
360,58.0,0,48,4.0,0.0
361,84.0,0,160,1.0,0.0
362,55.0,112,48,3.0,0.0
363,72.0,192,160,2.0,0.0
364,72.0,0,160,2.0,0.0
365,57.0,160,192,4.0,0.0
366,84.0,32,160,1.0,0.0
367,53.0,0,192,3.0,0.0
368,84.0,0,160,1.0,0.0
369,55.0,80,160,3.0,0.0
370,72.0,0,160,2.0,0.0
371,58.0,0,160,4.0,0.0
372,72.0,0,160,2.0,0.0
373,55.0,0,48,4.0,0.0
374,52.0,112,48,3.0,0.0
375,84.0,80,160,1.0,0.0
376,53.0,0,48,3.0,0.0
377,84.0,0,48,1.0,0.0
378,72.0,0,48,2.0,0.0
379,57.0,192,48,4.0,0.0
380,64.0,0,48,3.0,0.0
381,55.0,0,48,4.0,0.0
382,82.0,192,48,1.0,0.0
383,60.0,0,48,2.0,0.0
384,72.0,0,48,2.0,0.0
385,81.0,0,48,1.0,0.0
386,65.0,336,48,3.0,0.0
387,57.0,0,48,4.0,0.0
388,72.0,0,192,2.0,0.0
389,81.0,160,192,1.0,0.0
390,58.0,0,192,4.0,0.0
391,62.0,0,192,3.0,0.0
392,50.0,0,160,3.0,0.0
393,74.0,0,160,2.0,0.0
394,67.0,80,160,2.0,0.0
395,46.0,0,160,4.0,0.0
396,82.0,0,160,1.0,0.0
397,48.0,0,48,4.0,0.0
398,79.0,0,48,1.0,0.0
399,52.0,0,48,3.0,0.0
400,64.0,192,48,2.0,0.0
401,70.0,0,192,2.0,0.0
402,52.0,48,192,3.0,0.0
403,48.0,144,48,4.0,0.0
404,79.0,0,192,1.0,0.0
405,69.0,0,160,2.0,0.0
406,53.0,0,160,3.0,0.0
407,81.0,80,160,1.0,0.0
408,36.0,112,48,4.0,0.0
409,57.0,0,48,3.0,0.0
410,69.0,0,48,2.0,0.0
411,65.0,0,48,2.0,0.0
412,36.0,0,48,4.0,0.0
413,77.0,304,48,1.0,0.0
414,36.0,32,160,4.0,0.0
415,58.0,160,192,3.0,0.0
416,67.0,0,192,2.0,0.0
417,76.0,0,192,1.0,0.0
418,65.0,80,160,2.0,0.0
419,77.0,0,160,1.0,0.0
420,36.0,0,160,4.0,0.0
421,57.0,0,160,3.0,0.0
422,55.0,0,48,3.0,0.0
423,79.0,112,48,1.0,0.0
424,64.0,0,48,2.0,0.0
425,36.0,80,160,4.0,0.0
426,55.0,0,192,3.0,0.0
427,70.0,144,48,2.0,0.0
428,36.0,48,192,4.0,0.0
429,76.0,0,192,1.0,0.0
430,77.0,0,160,1.0,0.0
431,53.0,80,160,3.0,0.0
432,38.0,0,160,4.0,0.0
433,58.0,112,48,2.0,0.0
434,40.0,0,48,4.0,0.0
435,70.0,0,48,2.0,0.0
436,79.0,0,48,1.0,0.0
437,52.0,192,48,3.0,0.0
438,69.0,0,48,2.0,0.0
439,57.0,0,48,3.0,0.0
440,41.0,112,48,4.0,0.0
441,72.0,80,160,1.0,0.0
442,72.0,80,160,1.0,0.0
443,67.0,0,48,2.0,0.0
444,58.0,0,48,3.0,0.0
445,43.0,112,48,4.0,0.0
446,72.0,192,160,1.0,0.0
447,45.0,0,48,4.0,0.0
448,65.0,0,48,2.0,0.0
449,60.0,112,48,3.0,0.0
450,55.0,160,192,3.0,0.0
451,36.0,0,192,4.0,0.0
452,58.0,32,160,2.0,0.0
453,76.0,0,192,1.0,0.0
454,38.0,0,160,4.0,0.0
455,70.0,0,160,2.0,0.0
456,53.0,80,160,3.0,0.0
457,77.0,0,160,1.0,0.0
458,70.0,80,160,2.0,0.0
459,40.0,112,48,4.0,0.0
460,79.0,0,48,1.0,0.0
461,52.0,0,48,3.0,0.0
462,72.0,80,160,1.0,0.0
463,69.0,0,48,2.0,0.0
464,57.0,112,48,3.0,0.0
465,41.0,0,48,4.0,0.0
466,72.0,80,160,1.0,0.0
467,67.0,112,48,2.0,0.0
468,43.0,0,48,4.0,0.0
469,58.0,0,48,3.0,0.0
470,60.0,112,48,3.0,0.0
471,72.0,192,160,1.0,0.0
472,45.0,0,48,4.0,0.0
473,65.0,0,48,2.0,0.0
474,55.0,160,192,3.0,0.0
475,36.0,0,192,4.0,0.0
476,58.0,32,160,2.0,0.0
477,76.0,0,192,1.0,0.0
478,70.0,80,160,2.0,0.0
479,38.0,0,160,4.0,0.0
480,77.0,0,160,1.0,0.0
481,53.0,0,160,3.0,0.0
482,79.0,112,48,1.0,0.0
483,52.0,0,48,3.0,0.0
484,70.0,80,160,2.0,0.0
485,40.0,0,48,4.0,0.0
486,72.0,80,160,1.0,0.0
487,41.0,0,48,4.0,0.0
488,69.0,112,48,2.0,0.0
489,57.0,0,48,3.0,0.0
490,43.0,0,48,4.0,0.0
491,58.0,0,48,3.0,0.0
492,67.0,112,48,2.0,0.0
493,72.0,80,160,1.0,0.0
494,65.0,0,48,2.0,0.0
495,45.0,0,48,4.0,0.0
496,72.0,192,160,1.0,0.0
497,60.0,112,48,3.0,0.0
498,55.0,0,192,3.0,0.0
499,36.0,0,192,4.0,0.0
500,58.0,32,160,2.0,0.0
501,76.0,160,192,1.0,0.0
502,77.0,80,160,1.0,0.0
503,70.0,0,160,2.0,0.0
504,53.0,0,160,3.0,0.0
505,38.0,0,160,4.0,0.0
506,70.0,192,160,2.0,0.0
507,79.0,112,48,1.0,0.0
508,52.0,0,48,3.0,0.0
509,40.0,0,48,4.0,0.0
510,41.0,0,160,4.0,0.0
511,72.0,0,160,1.0,0.0
512,53.0,368,160,3.0,0.0
513,69.0,0,160,2.0,0.0
514,63.0,0,336,1.0,0.0
515,39.0,576,336,4.0,0.0
516,51.0,0,336,3.0,0.0
517,39.0,0,336,4.0,0.0
518,51.0,384,336,3.0,0.0
519,39.0,208,336,4.0,0.0
520,51.0,0,336,3.0,0.0
521,51.0,0,160,3.0,0.0
522,39.0,560,160,4.0,0.0
523,51.0,384,336,3.0,0.0
524,63.0,0,336,1.0,0.0
525,39.0,0,336,4.0,0.0
526,63.0,0,336,1.0,0.0
527,39.0,0,336,4.0,0.0
528,51.0,208,336,3.0,0.0
529,63.0,0,160,1.0,0.0
530,51.0,560,160,3.0,0.0
531,39.0,0,160,4.0,0.0
532,63.0,576,336,1.0,0.0
533,51.0,0,336,3.0,0.0
534,39.0,0,336,4.0,0.0
535,63.0,576,336,1.0,0.0
536,51.0,0,336,3.0,0.0
537,39.0,0,336,4.0,0.0
538,52.0,0,336,3.0,0.0
539,64.0,0,336,1.0,0.0
540,40.0,576,336,4.0,0.0
541,36.0,240,720,4.0,0.0
542,52.0,0,336,3.0,0.0
543,64.0,208,336,1.0,0.0
544,53.0,176,160,3.0,0.0
545,48.0,0,544,3.0,0.0
546,69.0,176,544,1.0,0.0
547,57.0,160,192,3.0,0.0
548,65.0,192,576,2.0,0.0
549,36.0,48,528,4.0,0.0
550,59.0,0,160,3.0,0.0
551,48.0,0,544,3.0,0.0
552,67.0,0,544,1.0,0.0
553,64.0,160,192,2.0,0.0
554,60.0,0,192,3.0,0.0
555,36.0,48,528,4.0,0.0
556,62.0,176,160,3.0,0.0
557,57.0,192,384,2.0,0.0
558,65.0,0,544,1.0,0.0
559,48.0,176,544,3.0,0.0
560,56.0,0,192,2.0,0.0
561,60.0,160,192,3.0,0.0
562,36.0,48,528,4.0,0.0
563,59.0,0,160,3.0,0.0
564,62.0,192,384,2.0,0.0
565,48.0,0,192,3.0,0.0
566,67.0,0,544,1.0,0.0
567,49.0,160,192,3.0,0.0
568,58.0,0,192,3.0,0.0
569,64.0,176,352,2.0,0.0
570,36.0,48,528,4.0,0.0
571,57.0,0,160,3.0,0.0
572,48.0,0,160,3.0,0.0
573,57.0,192,192,2.0,0.0
574,48.0,176,544,3.0,0.0
575,69.0,0,544,1.0,0.0
576,65.0,0,352,2.0,0.0
577,57.0,160,192,3.0,0.0
578,36.0,48,528,4.0,0.0
579,59.0,0,160,3.0,0.0
580,48.0,80,544,3.0,0.0
581,65.0,160,192,2.0,0.0
582,67.0,112,432,1.0,0.0
583,36.0,0,528,4.0,0.0
584,60.0,48,192,3.0,0.0
585,64.0,32,160,2.0,0.0
586,56.0,16,336,2.0,0.0
587,59.0,0,160,3.0,0.0
588,48.0,80,544,3.0,0.0
589,65.0,96,48,1.0,0.0
590,62.0,80,160,2.0,0.0
591,36.0,0,352,4.0,0.0
592,58.0,160,192,3.0,0.0
593,64.0,32,160,2.0,0.0
594,55.0,0,160,2.0,0.0
595,67.0,112,48,1.0,0.0
596,65.0,0,160,1.0,0.0
597,57.0,0,160,2.0,0.0
598,53.0,384,48,3.0,0.0
599,41.0,0,48,4.0,0.0
600,55.0,272,352,3.0,0.0
601,43.0,0,352,4.0,0.0
602,77.0,0,48,1.0,0.0
603,65.0,112,48,2.0,0.0
604,57.0,0,544,3.0,0.0
605,45.0,384,544,4.0,0.0
606,81.0,0,48,1.0,0.0
607,69.0,192,48,2.0,0.0
608,70.0,0,48,2.0,0.0
609,82.0,112,48,1.0,0.0
610,55.0,384,544,3.0,0.0
611,43.0,0,544,4.0,0.0
612,84.0,0,160,1.0,0.0
613,72.0,192,160,2.0,0.0
614,86.0,0,160,1.0,0.0
615,74.0,0,160,2.0,0.0
616,53.0,0,544,3.0,0.0
617,41.0,0,544,4.0,0.0
618,84.0,0,160,1.0,0.0
619,72.0,192,160,2.0,0.0
620,70.0,384,160,2.0,0.0
621,82.0,0,160,1.0,0.0
622,43.0,0,544,4.0,0.0
623,55.0,0,544,3.0,0.0
624,67.0,192,160,2.0,0.0
625,79.0,0,160,1.0,0.0
626,65.0,384,160,2.0,0.0
627,77.0,0,160,1.0,0.0
628,57.0,0,544,3.0,0.0
629,45.0,0,544,4.0,0.0
630,69.0,0,160,2.0,0.0
631,81.0,192,160,1.0,0.0
632,82.0,0,160,1.0,0.0
633,70.0,384,160,2.0,0.0
634,55.0,80,544,3.0,0.0
635,43.0,0,544,4.0,0.0
636,84.0,0,160,1.0,0.0
637,72.0,192,160,2.0,0.0
638,74.0,0,160,2.0,0.0
639,86.0,0,160,1.0,0.0
640,53.0,0,48,3.0,0.0
641,41.0,192,48,4.0,0.0
642,84.0,80,160,1.0,0.0
643,64.0,0,160,2.0,0.0
644,55.0,0,48,3.0,0.0
645,43.0,112,48,4.0,0.0
646,72.0,0,160,2.0,0.0
647,53.0,192,48,3.0,0.0
648,84.0,0,48,1.0,0.0
649,72.0,0,48,2.0,0.0
650,69.0,0,48,2.0,0.0
651,41.0,0,48,4.0,0.0
652,84.0,0,48,1.0,0.0
653,57.0,0,48,3.0,0.0
654,72.0,192,48,2.0,0.0
655,87.0,192,48,1.0,0.0
656,53.0,0,48,3.0,0.0
657,69.0,0,48,2.0,0.0
658,65.0,0,48,2.0,0.0
659,58.0,0,48,3.0,0.0
660,86.0,192,48,1.0,0.0
661,41.0,192,48,4.0,0.0
662,43.0,192,48,4.0,0.0
663,41.0,192,48,4.0,0.0
664,88.0,192,48,1.0,0.0
665,74.0,0,48,2.0,0.0
666,65.0,0,48,2.0,0.0
667,58.0,0,48,3.0,0.0
668,65.0,0,48,2.0,0.0
669,58.0,0,48,3.0,0.0
670,89.0,192,48,1.0,0.0
671,74.0,0,48,2.0,0.0
672,65.0,80,160,3.0,0.0
673,84.0,112,48,1.0,0.0
674,69.0,0,160,2.0,0.0
675,41.0,112,48,4.0,0.0
676,65.0,80,160,3.0,0.0
677,77.0,0,160,2.0,0.0
678,67.0,0,160,3.0,0.0
679,79.0,80,160,2.0,0.0
680,39.0,112,48,4.0,0.0
681,66.0,80,160,3.0,0.0
682,78.0,0,160,2.0,0.0
683,38.0,112,48,4.0,0.0
684,40.0,112,48,4.0,0.0
685,67.0,80,160,3.0,0.0
686,82.0,0,160,2.0,0.0
687,86.0,0,160,1.0,0.0
688,81.0,0,160,2.0,0.0
689,69.0,0,160,3.0,0.0
690,42.0,112,48,4.0,0.0
691,84.0,80,160,1.0,0.0
692,43.0,80,160,4.0,0.0
693,81.0,112,48,2.0,0.0
694,84.0,0,48,1.0,0.0
695,62.0,0,160,3.0,0.0
696,43.0,0,160,4.0,0.0
697,64.0,80,160,3.0,0.0
698,82.0,0,48,1.0,0.0
699,79.0,112,48,2.0,0.0
700,45.0,192,160,4.0,0.0
701,60.0,0,160,3.0,0.0
702,77.0,112,48,2.0,0.0
703,81.0,0,48,1.0,0.0
704,77.0,0,192,2.0,0.0
705,81.0,0,192,1.0,0.0
706,62.0,160,192,3.0,0.0
707,46.0,32,160,4.0,0.0
708,46.0,80,160,4.0,0.0
709,82.0,0,160,1.0,0.0
710,74.0,0,160,2.0,0.0
711,55.0,0,160,3.0,0.0
712,48.0,80,160,4.0,0.0
713,60.0,0,48,3.0,0.0
714,70.0,0,48,2.0,0.0
715,76.0,0,48,2.0,0.0
716,79.0,112,48,1.0,0.0
717,69.0,0,48,2.0,0.0
718,60.0,80,160,3.0,0.0
719,41.0,0,160,4.0,0.0
720,81.0,112,48,1.0,0.0
721,77.0,192,48,1.0,0.0
722,65.0,0,48,2.0,0.0
723,67.0,0,48,2.0,0.0
724,79.0,304,48,1.0,0.0
725,77.0,80,160,1.0,0.0
726,65.0,0,160,2.0,0.0
727,60.0,0,48,4.0,0.0
728,57.0,192,48,3.0,0.0
729,63.0,0,48,4.0,0.0
730,60.0,304,48,3.0,0.0
731,62.0,192,160,4.0,0.0
732,58.0,0,160,3.0,0.0
733,65.0,192,160,2.0,0.0
734,77.0,0,160,1.0,0.0
735,67.0,192,160,2.0,0.0
736,79.0,0,160,1.0,0.0
737,77.0,0,160,1.0,0.0
738,65.0,192,160,2.0,0.0
739,64.0,192,160,4.0,0.0
740,58.0,0,160,3.0,0.0
741,65.0,0,160,4.0,0.0
742,58.0,192,160,3.0,0.0
743,60.0,0,160,4.0,0.0
744,57.0,192,160,3.0,0.0
745,65.0,192,160,2.0,0.0
746,77.0,0,160,1.0,0.0
747,79.0,0,160,1.0,0.0
748,67.0,192,160,2.0,0.0
749,77.0,0,160,1.0,0.0
750,65.0,192,160,2.0,0.0
751,66.0,0,160,2.0,0.0
752,63.0,192,160,4.0,0.0
753,78.0,0,160,1.0,0.0
754,60.0,0,160,3.0,0.0
755,62.0,0,160,4.0,0.0
756,67.0,0,160,2.0,0.0
757,58.0,0,160,3.0,0.0
758,79.0,80,160,1.0,0.0
759,58.0,112,48,3.0,0.0
760,62.0,0,48,4.0,0.0
761,79.0,80,160,1.0,0.0
762,67.0,0,160,2.0,0.0
763,57.0,112,48,3.0,0.0
764,79.0,0,160,1.0,0.0
765,60.0,0,48,4.0,0.0
766,67.0,80,160,2.0,0.0
767,55.0,0,48,3.0,0.0
768,72.0,192,160,2.0,0.0
769,84.0,0,160,1.0,0.0
770,58.0,112,48,4.0,0.0
771,57.0,0,192,4.0,0.0
772,84.0,0,160,1.0,0.0
773,53.0,160,192,3.0,0.0
774,72.0,32,160,2.0,0.0
775,58.0,0,160,4.0,0.0
776,72.0,0,160,2.0,0.0
777,84.0,80,160,1.0,0.0
778,55.0,0,160,3.0,0.0
779,55.0,112,48,4.0,0.0
780,52.0,0,48,3.0,0.0
781,72.0,80,160,2.0,0.0
782,84.0,0,160,1.0,0.0
783,84.0,192,48,1.0,0.0
784,72.0,0,48,2.0,0.0
785,53.0,0,48,3.0,0.0
786,57.0,0,48,4.0,0.0
787,55.0,0,48,4.0,0.0
788,64.0,0,48,3.0,0.0
789,60.0,0,48,2.0,0.0
790,82.0,192,48,1.0,0.0
791,65.0,0,48,3.0,0.0
792,57.0,0,48,4.0,0.0
793,72.0,336,48,2.0,0.0
794,81.0,0,48,1.0,0.0
795,81.0,160,192,1.0,0.0
796,72.0,0,192,2.0,0.0
797,62.0,0,192,3.0,0.0
798,58.0,0,192,4.0,0.0
799,74.0,0,160,2.0,0.0
800,67.0,0,160,2.0,0.0
801,50.0,0,160,3.0,0.0
802,46.0,0,160,4.0,0.0
803,82.0,80,160,1.0,0.0
804,52.0,192,48,3.0,0.0
805,48.0,0,48,4.0,0.0
806,64.0,0,48,2.0,0.0
807,79.0,0,48,1.0,0.0
808,48.0,144,48,4.0,0.0
809,79.0,48,192,1.0,0.0
810,70.0,0,192,2.0,0.0
811,52.0,0,192,3.0,0.0
812,53.0,0,160,3.0,0.0
813,69.0,0,160,2.0,0.0
814,36.0,112,48,4.0,0.0
815,81.0,80,160,1.0,0.0
816,77.0,0,48,1.0,0.0
817,65.0,0,48,2.0,0.0
818,69.0,0,48,2.0,0.0
819,36.0,304,48,4.0,0.0
820,57.0,0,48,3.0,0.0
821,76.0,0,192,1.0,0.0
822,67.0,0,192,2.0,0.0
823,36.0,32,160,4.0,0.0
824,58.0,160,192,3.0,0.0
825,65.0,0,160,2.0,0.0
826,77.0,80,160,1.0,0.0
827,57.0,0,160,3.0,0.0
828,36.0,0,160,4.0,0.0
829,55.0,0,48,3.0,0.0
830,36.0,80,160,4.0,0.0
831,79.0,0,48,1.0,0.0
832,64.0,112,48,2.0,0.0
833,36.0,0,192,4.0,0.0
834,70.0,144,48,2.0,0.0
835,55.0,0,192,3.0,0.0
836,76.0,48,192,1.0,0.0
837,53.0,80,160,3.0,0.0
838,38.0,0,160,4.0,0.0
839,77.0,0,160,1.0,0.0
840,58.0,112,48,2.0,0.0
841,40.0,0,48,4.0,0.0
842,52.0,0,48,3.0,0.0
843,79.0,192,48,1.0,0.0
844,70.0,0,48,2.0,0.0
845,41.0,0,48,4.0,0.0
846,72.0,80,160,1.0,0.0
847,69.0,112,48,2.0,0.0
848,57.0,0,48,3.0,0.0
849,67.0,112,48,2.0,0.0
850,43.0,0,48,4.0,0.0
851,58.0,0,48,3.0,0.0
852,72.0,80,160,1.0,0.0
853,72.0,192,160,1.0,0.0
854,60.0,0,48,3.0,0.0
855,65.0,112,48,2.0,0.0
856,45.0,0,48,4.0,0.0
857,76.0,0,192,1.0,0.0
858,36.0,160,192,4.0,0.0
859,55.0,0,192,3.0,0.0
860,58.0,32,160,2.0,0.0
861,70.0,0,160,2.0,0.0
862,77.0,80,160,1.0,0.0
863,38.0,0,160,4.0,0.0
864,53.0,0,160,3.0,0.0
865,70.0,80,160,2.0,0.0
866,40.0,0,48,4.0,0.0
867,52.0,0,48,3.0,0.0
868,79.0,112,48,1.0,0.0
869,72.0,80,160,1.0,0.0
870,41.0,0,48,4.0,0.0
871,57.0,0,48,3.0,0.0
872,69.0,112,48,2.0,0.0
873,58.0,0,48,3.0,0.0
874,43.0,0,48,4.0,0.0
875,72.0,80,160,1.0,0.0
876,67.0,112,48,2.0,0.0
877,60.0,0,48,3.0,0.0
878,65.0,0,48,2.0,0.0
879,45.0,112,48,4.0,0.0
880,72.0,192,160,1.0,0.0
881,58.0,32,160,2.0,0.0
882,36.0,160,192,4.0,0.0
883,76.0,0,192,1.0,0.0
884,55.0,0,192,3.0,0.0
885,77.0,0,160,1.0,0.0
886,53.0,80,160,3.0,0.0
887,38.0,0,160,4.0,0.0
888,70.0,0,160,2.0,0.0
889,79.0,112,48,1.0,0.0
890,52.0,0,48,3.0,0.0
891,40.0,0,48,4.0,0.0
892,70.0,80,160,2.0,0.0
893,41.0,112,48,4.0,0.0
894,69.0,0,48,2.0,0.0
895,57.0,0,48,3.0,0.0
896,72.0,80,160,1.0,0.0
897,43.0,0,48,4.0,0.0
898,58.0,0,48,3.0,0.0
899,72.0,80,160,1.0,0.0
900,67.0,112,48,2.0,0.0
901,65.0,112,48,2.0,0.0
902,45.0,0,48,4.0,0.0
903,60.0,0,48,3.0,0.0
904,72.0,192,160,1.0,0.0
905,55.0,160,192,3.0,0.0
906,76.0,0,192,1.0,0.0
907,36.0,0,192,4.0,0.0
908,58.0,32,160,2.0,0.0
909,53.0,0,160,3.0,0.0
910,70.0,0,160,2.0,0.0
911,77.0,0,160,1.0,0.0
912,38.0,80,160,4.0,0.0
913,79.0,112,48,1.0,0.0
914,52.0,0,48,3.0,0.0
915,40.0,0,48,4.0,0.0
916,70.0,192,160,2.0,0.0
917,41.0,0,160,4.0,0.0
918,53.0,0,160,3.0,0.0
919,69.0,0,160,2.0,0.0
920,72.0,128,160,1.0,0.0
921,65.0,96,96,1.0,0.0
922,64.0,96,96,1.0,0.0
923,65.0,94,96,1.0,0.0
924,67.0,162,94,1.0,0.0
925,41.0,128,160,4.0,0.0
926,53.0,0,160,3.0,0.0
927,69.0,0,160,1.0,0.0
928,60.0,0,160,2.0,0.0
929,65.0,0,160,2.0,0.0
930,72.0,32,160,1.0,0.0
931,41.0,0,96,4.0,0.0
932,53.0,64,96,3.0,0.0
933,69.0,0,160,2.0,0.0
934,52.0,0,96,3.0,0.0
935,40.0,96,96,4.0,0.0
936,72.0,0,160,1.0,0.0
937,53.0,64,96,3.0,0.0
938,41.0,0,96,4.0,0.0
939,69.0,0,160,2.0,0.0
940,65.0,30,160,2.0,0.0
941,43.0,0,94,4.0,0.0
942,55.0,50,94,3.0,0.0
943,72.0,80,160,1.0,0.0
944,45.0,0,48,4.0,0.0
945,69.0,0,160,2.0,0.0
946,65.0,0,160,2.0,0.0
947,57.0,112,48,3.0,0.0
948,72.0,80,160,1.0,0.0
949,58.0,0,48,3.0,0.0
950,69.0,0,160,2.0,0.0
951,65.0,0,160,2.0,0.0
952,46.0,112,48,4.0,0.0
953,69.0,0,160,2.0,0.0
954,65.0,0,160,2.0,0.0
955,60.0,0,48,3.0,0.0
956,72.0,80,160,1.0,0.0
957,48.0,112,48,4.0,0.0
958,62.0,0,48,3.0,0.0
959,50.0,112,48,4.0,0.0
960,65.0,0,160,2.0,0.0
961,69.0,80,160,2.0,0.0
962,72.0,0,160,1.0,0.0
963,72.0,80,160,1.0,0.0
964,52.0,112,48,4.0,0.0
965,69.0,0,160,2.0,0.0
966,64.0,0,48,3.0,0.0
967,65.0,0,160,2.0,0.0
968,72.0,0,160,1.0,0.0
969,53.0,112,48,4.0,0.0
970,69.0,0,160,2.0,0.0
971,65.0,80,160,2.0,0.0
972,67.0,0,48,3.0,0.0
973,55.0,112,48,4.0,0.0
974,69.0,0,160,2.0,0.0
975,65.0,0,160,2.0,0.0
976,72.0,80,160,1.0,0.0
977,57.0,112,48,4.0,0.0
978,72.0,0,160,1.0,0.0
979,65.0,80,160,2.0,0.0
980,69.0,0,160,2.0,0.0
981,72.0,0,160,1.0,0.0
982,58.0,0,48,4.0,0.0
983,70.0,112,48,3.0,0.0
984,69.0,0,160,2.0,0.0
985,65.0,192,160,2.0,0.0
986,69.0,0,160,2.0,0.0
987,72.0,80,160,3.0,0.0
988,65.0,0,160,2.0,0.0
989,60.0,0,160,4.0,0.0
990,69.0,0,160,3.0,0.0
991,74.0,112,48,1.0,0.0
992,60.0,0,160,4.0,0.0
993,65.0,80,160,2.0,0.0
994,69.0,0,160,3.0,0.0
995,60.0,80,160,4.0,0.0
996,76.0,112,48,1.0,0.0
997,65.0,0,160,2.0,0.0
998,77.0,112,48,1.0,0.0
999,60.0,0,160,4.0,0.0
1000,65.0,80,160,2.0,0.0
1001,69.0,0,160,3.0,0.0
1002,60.0,0,160,4.0,0.0
1003,65.0,0,160,2.0,0.0
1004,69.0,80,160,3.0,0.0
1005,79.0,112,48,1.0,0.0
1006,81.0,112,48,1.0,0.0
1007,65.0,0,160,2.0,0.0
1008,69.0,80,160,3.0,0.0
1009,60.0,0,160,4.0,0.0
1010,82.0,112,48,1.0,0.0
1011,67.0,0,160,3.0,0.0
1012,64.0,80,160,2.0,0.0
1013,60.0,0,160,4.0,0.0
1014,60.0,0,160,4.0,0.0
1015,67.0,0,160,3.0,0.0
1016,64.0,80,160,2.0,0.0
1017,55.0,112,48,1.0,0.0
1018,60.0,0,160,4.0,0.0
1019,64.0,80,160,2.0,0.0
1020,67.0,0,160,3.0,0.0
1021,81.0,112,48,1.0,0.0
1022,67.0,0,160,3.0,0.0
1023,82.0,112,48,1.0,0.0
1024,64.0,80,160,2.0,0.0
1025,60.0,0,160,4.0,0.0
1026,64.0,0,160,2.0,0.0
1027,67.0,0,160,3.0,0.0
1028,70.0,112,48,1.0,0.0
1029,60.0,80,160,4.0,0.0
1030,84.0,112,48,1.0,0.0
1031,67.0,0,160,3.0,0.0
1032,64.0,0,160,2.0,0.0
1033,60.0,80,160,4.0,0.0
1034,65.0,128,160,2.0,0.0
1035,81.0,112,48,1.0,0.0
1036,72.0,0,160,3.0,0.0
1037,69.0,0,160,2.0,0.0
1038,53.0,0,160,4.0,0.0
1039,65.0,64,96,1.0,0.0
1040,77.0,0,160,2.0,0.0
1041,72.0,0,160,3.0,0.0
1042,69.0,32,160,2.0,0.0
1043,60.0,0,160,4.0,0.0
1044,64.0,96,96,1.0,0.0
1045,69.0,0,160,2.0,0.0
1046,77.0,0,160,2.0,0.0
1047,72.0,0,160,3.0,0.0
1048,60.0,30,160,4.0,0.0
1049,65.0,64,96,1.0,0.0
1050,67.0,162,94,1.0,0.0
1051,77.0,0,160,2.0,0.0
1052,69.0,0,160,2.0,0.0
1053,72.0,0,160,3.0,0.0
1054,60.0,80,160,4.0,0.0
1055,77.0,0,160,2.0,0.0
1056,69.0,192,160,2.0,0.0
1057,72.0,0,160,3.0,0.0
1058,70.0,112,48,1.0,0.0
1059,60.0,0,160,4.0,0.0
1060,72.0,0,160,3.0,0.0
1061,77.0,0,160,2.0,0.0
1062,60.0,80,160,4.0,0.0
1063,69.0,0,160,2.0,0.0
1064,60.0,0,160,4.0,0.0
1065,69.0,80,160,2.0,0.0
1066,72.0,0,160,3.0,0.0
1067,77.0,0,160,2.0,0.0
1068,74.0,112,48,1.0,0.0
1069,69.0,0,160,2.0,0.0
1070,77.0,0,160,2.0,0.0
1071,60.0,0,160,4.0,0.0
1072,76.0,112,48,1.0,0.0
1073,72.0,192,160,3.0,0.0
1074,72.0,0,160,3.0,0.0
1075,60.0,80,160,4.0,0.0
1076,77.0,0,160,2.0,0.0
1077,69.0,0,160,2.0,0.0
1078,79.0,112,48,1.0,0.0
1079,69.0,0,160,2.0,0.0
1080,72.0,80,160,3.0,0.0
1081,60.0,0,160,4.0,0.0
1082,77.0,0,160,2.0,0.0
1083,77.0,80,160,2.0,0.0
1084,69.0,0,160,2.0,0.0
1085,81.0,112,48,1.0,0.0
1086,72.0,0,160,3.0,0.0
1087,60.0,0,160,4.0,0.0
1088,72.0,0,160,3.0,0.0
1089,82.0,112,48,1.0,0.0
1090,69.0,0,160,2.0,0.0
1091,77.0,192,160,2.0,0.0
1092,60.0,0,160,4.0,0.0
1093,60.0,192,160,4.0,0.0
1094,84.0,0,160,1.0,0.0
1095,76.0,0,160,2.0,0.0
1096,72.0,0,160,3.0,0.0
1097,67.0,0,160,2.0,0.0
1098,67.0,0,160,2.0,0.0
1099,76.0,0,160,2.0,0.0
1100,86.0,0,160,1.0,0.0
1101,72.0,192,160,3.0,0.0
1102,60.0,0,160,4.0,0.0
1103,76.0,0,160,2.0,0.0
1104,88.0,0,160,1.0,0.0
1105,60.0,192,160,4.0,0.0
1106,67.0,0,160,2.0,0.0
1107,72.0,0,160,3.0,0.0
1108,89.0,0,160,1.0,0.0
1109,72.0,0,160,3.0,0.0
1110,60.0,192,160,4.0,0.0
1111,76.0,0,160,2.0,0.0
1112,67.0,0,160,2.0,0.0
1113,60.0,0,160,4.0,0.0
1114,91.0,0,160,1.0,0.0
1115,72.0,0,160,3.0,0.0
1116,67.0,192,160,2.0,0.0
1117,76.0,0,160,2.0,0.0
1118,72.0,0,160,3.0,0.0
1119,67.0,0,160,2.0,0.0
1120,76.0,0,160,2.0,0.0
1121,60.0,0,160,4.0,0.0
1122,93.0,192,160,1.0,0.0
1123,72.0,192,160,3.0,0.0
1124,76.0,0,160,2.0,0.0
1125,67.0,0,160,2.0,0.0
1126,60.0,0,160,4.0,0.0
1127,94.0,0,160,1.0,0.0
1128,60.0,192,160,4.0,0.0
1129,67.0,0,160,2.0,0.0
1130,76.0,0,160,2.0,0.0
1131,72.0,0,160,3.0,0.0
1132,60.0,0,160,4.0,0.0
1133,76.0,0,160,2.0,0.0
1134,67.0,0,160,2.0,0.0
1135,72.0,0,160,3.0,0.0
1136,81.0,192,160,1.0,0.0
1137,82.0,0,160,1.0,0.0
1138,72.0,0,160,3.0,0.0
1139,60.0,0,160,4.0,0.0
1140,67.0,192,160,2.0,0.0
1141,76.0,0,160,2.0,0.0
1142,60.0,0,160,4.0,0.0
1143,72.0,0,160,3.0,0.0
1144,67.0,192,160,2.0,0.0
1145,76.0,0,160,2.0,0.0
1146,67.0,0,160,2.0,0.0
1147,76.0,0,160,2.0,0.0
1148,72.0,192,160,3.0,0.0
1149,84.0,0,160,1.0,0.0
1150,60.0,0,160,4.0,0.0
1151,69.0,0,160,2.0,0.0
1152,77.0,128,160,2.0,0.0
1153,72.0,0,160,3.0,0.0
1154,81.0,0,160,1.0,0.0
1155,60.0,0,160,4.0,0.0
1156,38.0,0,96,4.0,0.0
1157,50.0,96,96,3.0,0.0
1158,36.0,96,96,4.0,0.0
1159,48.0,0,96,3.0,0.0
1160,50.0,0,96,3.0,0.0
1161,38.0,94,96,4.0,0.0
1162,40.0,162,94,4.0,0.0
1163,52.0,0,94,3.0,0.0
1164,53.0,128,160,3.0,0.0
1165,41.0,0,160,4.0,0.0
1166,64.0,0,96,2.0,0.0
1167,76.0,96,96,1.0,0.0
1168,74.0,0,96,1.0,0.0
1169,62.0,96,96,2.0,0.0
1170,76.0,0,96,1.0,0.0
1171,64.0,94,96,2.0,0.0
1172,77.0,0,94,1.0,0.0
1173,65.0,162,94,2.0,0.0
1174,79.0,0,160,1.0,0.0
1175,67.0,128,160,2.0,0.0
1176,53.0,0,96,3.0,0.0
1177,41.0,96,96,4.0,0.0
1178,40.0,96,96,4.0,0.0
1179,52.0,0,96,3.0,0.0
1180,41.0,0,96,4.0,0.0
1181,53.0,94,96,3.0,0.0
1182,55.0,0,94,3.0,0.0
1183,43.0,162,94,4.0,0.0
1184,57.0,128,160,3.0,0.0
1185,45.0,0,160,4.0,0.0
1186,67.0,96,96,2.0,0.0
1187,79.0,0,96,1.0,0.0
1188,77.0,0,96,1.0,0.0
1189,65.0,96,96,2.0,0.0
1190,79.0,0,96,1.0,0.0
1191,67.0,94,96,2.0,0.0
1192,81.0,162,94,1.0,0.0
1193,69.0,0,94,2.0,0.0
1194,70.0,0,160,2.0,0.0
1195,82.0,128,160,1.0,0.0
1196,45.0,96,96,4.0,0.0
1197,57.0,0,96,3.0,0.0
1198,43.0,0,96,4.0,0.0
1199,55.0,96,96,3.0,0.0
1200,45.0,0,96,4.0,0.0
1201,57.0,94,96,3.0,0.0
1202,58.0,0,94,3.0,0.0
1203,46.0,162,94,4.0,0.0
1204,60.0,0,160,3.0,0.0
1205,48.0,128,160,4.0,0.0
1206,79.0,0,96,1.0,0.0
1207,67.0,96,96,2.0,0.0
1208,77.0,96,96,1.0,0.0
1209,65.0,0,96,2.0,0.0
1210,67.0,0,96,2.0,0.0
1211,79.0,94,96,1.0,0.0
1212,69.0,162,94,2.0,0.0
1213,81.0,0,94,1.0,0.0
1214,65.0,0,160,3.0,0.0
1215,62.0,384,160,4.0,0.0
1216,82.0,0,160,1.0,0.0
1217,70.0,0,160,2.0,0.0
1218,77.0,0,160,2.0,0.0
1219,72.0,416,160,3.0,0.0
1220,62.0,0,160,4.0,0.0
1221,81.0,0,160,1.0,0.0
1222,76.0,16,528,2.0,0.0
1223,64.0,0,528,4.0,0.0
1224,72.0,0,384,3.0,0.0
1225,81.0,144,384,1.0,0.0
1226,80.0,80,160,1.0,0.0
1227,71.0,0,160,3.0,0.0
1228,69.0,0,48,3.0,0.0
1229,41.0,46,1104,4.0,0.0
1230,81.0,128,160,1.0,0.0
1231,65.0,112,48,2.0,0.0
1232,81.0,0,96,2.0,0.0
1233,69.0,96,96,3.0,0.0
1234,80.0,96,96,2.0,0.0
1235,68.0,0,96,3.0,0.0
1236,81.0,94,96,2.0,0.0
1237,69.0,0,96,3.0,0.0
1238,71.0,0,94,3.0,0.0
1239,83.0,162,94,2.0,0.0
1240,72.0,0,160,3.0,0.0
1241,84.0,128,160,2.0,0.0
1242,79.0,0,96,1.0,0.0
1243,67.0,96,96,2.0,0.0
1244,65.0,96,96,2.0,0.0
1245,77.0,0,96,1.0,0.0
1246,79.0,0,96,1.0,0.0
1247,67.0,48,96,2.0,0.0
1248,81.0,0,94,1.0,0.0
1249,69.0,162,94,2.0,0.0
1250,82.0,0,160,1.0,0.0
1251,70.0,0,160,2.0,0.0
1252,65.0,0,160,3.0,0.0
1253,38.0,384,160,4.0,0.0
1254,65.0,0,160,3.0,0.0
1255,62.0,0,160,4.0,0.0
1256,81.0,416,160,1.0,0.0
1257,77.0,0,160,2.0,0.0
1258,81.0,0,384,1.0,0.0
1259,72.0,144,384,3.0,0.0
1260,76.0,16,528,2.0,0.0
1261,64.0,0,528,4.0,0.0
1262,80.0,192,160,1.0,0.0
1263,71.0,0,160,3.0,0.0
1264,81.0,0,160,1.0,0.0
1265,72.0,0,160,3.0,0.0
1266,76.0,0,160,2.0,0.0
1267,60.0,384,160,4.0,0.0
1268,76.0,416,160,2.0,0.0
1269,60.0,0,160,4.0,0.0
1270,72.0,0,160,3.0,0.0
1271,79.0,0,160,1.0,0.0
1272,79.0,0,384,1.0,0.0
1273,74.0,16,528,2.0,0.0
1274,71.0,144,384,3.0,0.0
1275,62.0,0,528,4.0,0.0
1276,69.0,192,160,3.0,0.0
1277,78.0,0,160,1.0,0.0
1278,74.0,0,160,2.0,0.0
1279,55.0,0,160,4.0,0.0
1280,79.0,192,160,1.0,0.0
1281,67.0,0,160,3.0,0.0
1282,71.0,0,160,1.0,0.0
1283,62.0,0,160,4.0,0.0
1284,83.0,0,160,2.0,0.0
1285,71.0,0,160,3.0,0.0
1286,67.0,0,160,3.0,0.0
1287,74.0,32,160,2.0,0.0
1288,66.0,160,96,1.0,0.0
1289,67.0,0,160,3.0,0.0
1290,74.0,0,160,2.0,0.0
1291,83.0,30,160,2.0,0.0
1292,62.0,0,160,4.0,0.0
1293,71.0,0,160,3.0,0.0
1294,69.0,162,94,1.0,0.0
1295,83.0,0,160,2.0,0.0
1296,74.0,0,160,2.0,0.0
1297,62.0,80,160,4.0,0.0
1298,67.0,0,160,3.0,0.0
1299,71.0,0,160,3.0,0.0
1300,62.0,192,160,4.0,0.0
1301,83.0,0,160,2.0,0.0
1302,74.0,0,160,2.0,0.0
1303,67.0,0,160,3.0,0.0
1304,71.0,0,160,3.0,0.0
1305,72.0,112,48,1.0,0.0
1306,62.0,0,160,4.0,0.0
1307,71.0,0,160,3.0,0.0
1308,67.0,0,160,3.0,0.0
1309,74.0,80,160,2.0,0.0
1310,83.0,0,160,2.0,0.0
1311,76.0,112,48,1.0,0.0
1312,67.0,0,160,3.0,0.0
1313,71.0,0,160,3.0,0.0
1314,83.0,0,160,2.0,0.0
1315,74.0,80,160,2.0,0.0
1316,62.0,0,160,4.0,0.0
1317,74.0,0,160,2.0,0.0
1318,67.0,0,160,3.0,0.0
1319,71.0,0,160,3.0,0.0
1320,78.0,112,48,1.0,0.0
1321,83.0,80,160,2.0,0.0
1322,62.0,0,160,4.0,0.0
1323,79.0,112,48,1.0,0.0
1324,67.0,0,160,3.0,0.0
1325,71.0,0,160,3.0,0.0
1326,62.0,80,160,4.0,0.0
1327,74.0,0,160,2.0,0.0
1328,83.0,0,160,2.0,0.0
1329,66.0,0,160,3.0,0.0
1330,69.0,80,160,3.0,0.0
1331,62.0,0,160,4.0,0.0
1332,84.0,0,160,2.0,0.0
1333,74.0,0,160,2.0,0.0
1334,81.0,112,48,1.0,0.0
1335,62.0,192,160,4.0,0.0
1336,69.0,0,160,3.0,0.0
1337,74.0,0,160,2.0,0.0
1338,83.0,112,48,1.0,0.0
1339,66.0,0,160,3.0,0.0
1340,84.0,0,160,2.0,0.0
1341,84.0,0,160,2.0,0.0
1342,62.0,0,160,4.0,0.0
1343,74.0,0,160,2.0,0.0
1344,69.0,192,160,3.0,0.0
1345,66.0,0,160,3.0,0.0
1346,86.0,0,160,1.0,0.0
1347,66.0,0,160,3.0,0.0
1348,69.0,0,160,3.0,0.0
1349,62.0,0,160,4.0,0.0
1350,74.0,192,160,2.0,0.0
1351,84.0,0,160,2.0,0.0
1352,66.0,0,160,3.0,0.0
1353,69.0,0,160,3.0,0.0
1354,74.0,0,160,2.0,0.0
1355,84.0,0,160,2.0,0.0
1356,88.0,192,160,1.0,0.0
1357,62.0,0,160,4.0,0.0
1358,74.0,0,160,2.0,0.0
1359,84.0,0,160,2.0,0.0
1360,66.0,0,160,3.0,0.0
1361,62.0,0,160,4.0,0.0
1362,69.0,0,160,3.0,0.0
1363,90.0,192,160,1.0,0.0
1364,74.0,0,160,2.0,0.0
1365,84.0,0,160,2.0,0.0
1366,66.0,192,160,3.0,0.0
1367,69.0,0,160,3.0,0.0
1368,91.0,0,160,1.0,0.0
1369,62.0,0,160,4.0,0.0
1370,66.0,0,160,3.0,0.0
1371,93.0,0,160,1.0,0.0
1372,84.0,0,160,2.0,0.0
1373,74.0,0,160,2.0,0.0
1374,62.0,192,160,4.0,0.0
1375,69.0,0,160,3.0,0.0
1376,95.0,0,160,1.0,0.0
1377,69.0,0,160,3.0,0.0
1378,66.0,0,160,3.0,0.0
1379,84.0,0,160,2.0,0.0
1380,74.0,0,160,2.0,0.0
1381,62.0,192,160,4.0,0.0
1382,96.0,0,160,1.0,0.0
1383,66.0,0,160,3.0,0.0
1384,69.0,0,160,3.0,0.0
1385,62.0,192,160,4.0,0.0
1386,74.0,0,160,2.0,0.0
1387,84.0,0,160,2.0,0.0
1388,62.0,192,160,4.0,0.0
1389,84.0,0,160,2.0,0.0
1390,74.0,0,160,2.0,0.0
1391,69.0,0,160,3.0,0.0
1392,66.0,0,160,3.0,0.0
1393,74.0,192,160,2.0,0.0
1394,84.0,0,160,2.0,0.0
1395,71.0,0,160,1.0,0.0
1396,62.0,0,160,4.0,0.0
1397,66.0,0,160,3.0,0.0
1398,69.0,0,160,3.0,0.0
1399,84.0,0,160,2.0,0.0
1400,74.0,0,160,2.0,0.0
1401,72.0,0,160,1.0,0.0
1402,62.0,192,160,4.0,0.0
1403,69.0,0,160,3.0,0.0
1404,66.0,0,160,3.0,0.0
1405,69.0,0,160,3.0,0.0
1406,62.0,0,160,4.0,0.0
1407,74.0,0,160,2.0,0.0
1408,84.0,0,160,2.0,0.0
1409,66.0,192,160,3.0,0.0
1410,74.0,0,160,2.0,0.0
1411,62.0,0,160,4.0,0.0
1412,66.0,0,160,3.0,0.0
1413,84.0,0,160,2.0,0.0
1414,69.0,192,160,3.0,0.0
1415,67.0,0,160,3.0,0.0
1416,83.0,0,160,2.0,0.0
1417,74.0,0,160,2.0,0.0
1418,55.0,192,160,4.0,0.0
1419,71.0,0,160,3.0,0.0
1420,74.0,0,160,2.0,0.0
1421,83.0,0,160,2.0,0.0
1422,67.0,32,160,3.0,0.0
1423,62.0,0,160,4.0,0.0
1424,71.0,0,160,3.0,0.0
1425,66.0,160,96,1.0,0.0
1426,83.0,30,160,2.0,0.0
1427,62.0,0,160,4.0,0.0
1428,71.0,0,160,3.0,0.0
1429,67.0,0,160,3.0,0.0
1430,74.0,0,160,2.0,0.0
1431,69.0,162,94,1.0,0.0
1432,62.0,0,160,4.0,0.0
1433,74.0,80,160,2.0,0.0
1434,83.0,0,160,2.0,0.0
1435,67.0,0,160,3.0,0.0
1436,71.0,0,160,3.0,0.0
1437,67.0,0,160,3.0,0.0
1438,74.0,192,160,2.0,0.0
1439,62.0,0,160,4.0,0.0
1440,83.0,0,160,2.0,0.0
1441,72.0,112,48,1.0,0.0
1442,71.0,0,160,3.0,0.0
1443,67.0,0,160,3.0,0.0
1444,62.0,0,160,4.0,0.0
1445,83.0,0,160,2.0,0.0
1446,74.0,0,160,2.0,0.0
1447,71.0,192,160,3.0,0.0
1448,62.0,0,160,4.0,0.0
1449,83.0,0,160,2.0,0.0
1450,74.0,0,160,2.0,0.0
1451,76.0,0,160,1.0,0.0
1452,67.0,192,160,3.0,0.0
1453,71.0,0,160,3.0,0.0
1454,78.0,0,160,1.0,0.0
1455,71.0,192,160,3.0,0.0
1456,83.0,0,160,2.0,0.0
1457,67.0,0,160,3.0,0.0
1458,74.0,0,160,2.0,0.0
1459,62.0,0,160,4.0,0.0
1460,79.0,0,160,1.0,0.0
1461,83.0,192,160,2.0,0.0
1462,74.0,0,160,2.0,0.0
1463,71.0,0,160,3.0,0.0
1464,67.0,0,160,3.0,0.0
1465,62.0,0,160,4.0,0.0
1466,81.0,0,160,1.0,0.0
1467,83.0,0,160,2.0,0.0
1468,74.0,0,160,2.0,0.0
1469,62.0,192,160,4.0,0.0
1470,71.0,0,160,3.0,0.0
1471,67.0,0,160,3.0,0.0
1472,74.0,0,160,2.0,0.0
1473,83.0,0,160,2.0,0.0
1474,67.0,0,160,4.0,0.0
1475,71.0,192,160,3.0,0.0
1476,84.0,0,160,1.0,0.0
1477,74.0,0,160,2.0,0.0
1478,83.0,0,160,2.0,0.0
1479,67.0,192,160,4.0,0.0
1480,71.0,0,160,3.0,0.0
1481,74.0,192,160,2.0,0.0
1482,83.0,0,160,2.0,0.0
1483,86.0,0,160,1.0,0.0
1484,71.0,0,160,3.0,0.0
1485,67.0,0,160,4.0,0.0
1486,83.0,0,160,2.0,0.0
1487,74.0,0,160,2.0,0.0
1488,67.0,0,160,4.0,0.0
1489,71.0,0,160,3.0,0.0
1490,88.0,192,160,1.0,0.0
1491,71.0,192,160,3.0,0.0
1492,90.0,0,160,1.0,0.0
1493,67.0,0,160,4.0,0.0
1494,74.0,0,160,2.0,0.0
1495,83.0,0,160,2.0,0.0
1496,91.0,0,160,1.0,0.0
1497,65.0,0,160,4.0,0.0
1498,83.0,0,160,2.0,0.0
1499,74.0,0,160,2.0,0.0
1500,67.0,0,160,3.0,0.0
1501,71.0,192,160,3.0,0.0
1502,93.0,0,160,1.0,0.0
1503,65.0,0,160,4.0,0.0
1504,83.0,0,160,2.0,0.0
1505,74.0,0,160,2.0,0.0
1506,71.0,192,160,3.0,0.0
1507,67.0,0,160,3.0,0.0
1508,74.0,0,160,2.0,0.0
1509,65.0,0,160,4.0,0.0
1510,67.0,0,160,3.0,0.0
1511,71.0,0,160,3.0,0.0
1512,83.0,0,160,2.0,0.0
1513,95.0,192,160,1.0,0.0
1514,64.0,0,160,4.0,0.0
1515,83.0,0,160,2.0,0.0
1516,71.0,0,160,3.0,0.0
1517,96.0,0,160,1.0,0.0
1518,68.0,0,160,3.0,0.0
1519,74.0,192,160,2.0,0.0
1520,71.0,0,160,3.0,0.0
1521,64.0,192,160,4.0,0.0
1522,68.0,0,160,3.0,0.0
1523,76.0,0,160,2.0,0.0
1524,83.0,0,160,2.0,0.0
1525,76.0,0,160,2.0,0.0
1526,64.0,0,160,4.0,0.0
1527,75.0,0,160,1.0,0.0
1528,68.0,0,160,3.0,0.0
1529,71.0,192,160,3.0,0.0
1530,83.0,0,160,2.0,0.0
1531,71.0,0,160,3.0,0.0
1532,68.0,0,160,3.0,0.0
1533,64.0,0,160,4.0,0.0
1534,83.0,0,160,2.0,0.0
1535,76.0,192,160,2.0,0.0
1536,64.0,0,160,4.0,0.0
1537,71.0,0,160,3.0,0.0
1538,68.0,0,160,3.0,0.0
1539,83.0,192,160,2.0,0.0
1540,76.0,0,160,2.0,0.0
1541,64.0,192,160,4.0,0.0
1542,76.0,0,160,2.0,0.0
1543,83.0,0,160,2.0,0.0
1544,74.0,0,160,1.0,0.0
1545,71.0,0,160,3.0,0.0
1546,68.0,0,160,3.0,0.0
1547,76.0,192,160,2.0,0.0
1548,84.0,0,160,2.0,0.0
1549,72.0,0,160,3.0,0.0
1550,69.0,0,160,3.0,0.0
1551,64.0,0,160,4.0,0.0
1552,64.0,0,160,4.0,0.0
1553,84.0,0,160,2.0,0.0
1554,76.0,0,160,2.0,0.0
1555,69.0,0,160,3.0,0.0
1556,72.0,192,160,3.0,0.0
1557,71.0,0,160,1.0,0.0
1558,72.0,0,160,3.0,0.0
1559,84.0,0,160,2.0,0.0
1560,64.0,192,160,4.0,0.0
1561,76.0,0,160,2.0,0.0
1562,69.0,0,160,3.0,0.0
1563,72.0,0,160,3.0,0.0
1564,69.0,0,160,3.0,0.0
1565,64.0,0,160,4.0,0.0
1566,76.0,192,160,2.0,0.0
1567,84.0,0,160,2.0,0.0
1568,84.0,192,160,2.0,0.0
1569,64.0,0,160,4.0,0.0
1570,69.0,0,160,3.0,0.0
1571,76.0,0,160,2.0,0.0
1572,64.0,0,160,4.0,0.0
1573,83.0,0,160,2.0,0.0
1574,76.0,0,160,2.0,0.0
1575,71.0,0,160,1.0,0.0
1576,68.0,192,160,3.0,0.0
1577,83.0,0,160,2.0,0.0
1578,76.0,0,160,2.0,0.0
1579,64.0,192,160,4.0,0.0
1580,71.0,0,160,1.0,0.0
1581,68.0,0,160,3.0,0.0
1582,83.0,0,160,2.0,0.0
1583,64.0,0,160,4.0,0.0
1584,71.0,192,160,3.0,0.0
1585,76.0,0,160,2.0,0.0
1586,68.0,0,160,3.0,0.0
1587,71.0,0,160,3.0,0.0
1588,83.0,192,160,2.0,0.0
1589,72.0,0,160,1.0,0.0
1590,76.0,0,160,2.0,0.0
1591,64.0,0,160,4.0,0.0
1592,68.0,0,160,3.0,0.0
1593,76.0,0,160,2.0,0.0
1594,83.0,0,160,2.0,0.0
1595,71.0,0,160,3.0,0.0
1596,72.0,0,160,1.0,0.0
1597,64.0,192,160,4.0,0.0
1598,68.0,0,160,3.0,0.0
1599,71.0,0,160,3.0,0.0
1600,68.0,192,160,3.0,0.0
1601,76.0,0,160,2.0,0.0
1602,83.0,0,160,2.0,0.0
1603,64.0,0,160,4.0,0.0
1604,68.0,192,160,3.0,0.0
1605,64.0,0,160,4.0,0.0
1606,76.0,0,160,2.0,0.0
1607,83.0,0,160,2.0,0.0
1608,71.0,0,160,3.0,0.0
1609,76.0,0,160,2.0,0.0
1610,68.0,192,160,3.0,0.0
1611,71.0,0,160,3.0,0.0
1612,64.0,0,160,4.0,0.0
1613,83.0,0,160,2.0,0.0
1614,64.0,0,160,4.0,0.0
1615,68.0,0,160,3.0,0.0
1616,71.0,0,160,3.0,0.0
1617,76.0,192,160,2.0,0.0
1618,83.0,0,160,2.0,0.0
1619,76.0,0,160,2.0,0.0
1620,83.0,0,160,2.0,0.0
1621,64.0,0,160,4.0,0.0
1622,68.0,0,160,3.0,0.0
1623,71.0,0,160,3.0,0.0
1624,72.0,192,160,1.0,0.0
1625,64.0,192,160,4.0,0.0
1626,72.0,0,160,1.0,0.0
1627,68.0,0,160,3.0,0.0
1628,71.0,0,160,3.0,0.0
1629,83.0,0,160,2.0,0.0
1630,76.0,0,160,2.0,0.0
1631,64.0,192,160,4.0,0.0
1632,76.0,0,160,2.0,0.0
1633,83.0,0,160,2.0,0.0
1634,71.0,0,160,3.0,0.0
1635,68.0,0,160,3.0,0.0
1636,76.0,0,160,2.0,0.0
1637,83.0,0,160,2.0,0.0
1638,71.0,192,160,3.0,0.0
1639,68.0,0,160,3.0,0.0
1640,64.0,0,160,4.0,0.0
1641,64.0,0,160,4.0,0.0
1642,83.0,0,160,2.0,0.0
1643,76.0,0,160,2.0,0.0
1644,71.0,0,160,3.0,0.0
1645,68.0,128,160,3.0,0.0
1646,56.0,64,96,3.0,0.0
1647,83.0,32,160,1.0,0.0
1648,80.0,0,160,2.0,0.0
1649,76.0,0,160,2.0,0.0
1650,52.0,0,96,4.0,0.0
1651,54.0,0,96,3.0,0.0
1652,51.0,96,96,4.0,0.0
1653,83.0,0,160,1.0,0.0
1654,56.0,0,96,3.0,0.0
1655,52.0,64,96,4.0,0.0
1656,76.0,0,160,2.0,0.0
1657,80.0,30,160,2.0,0.0
1658,57.0,0,94,3.0,0.0
1659,54.0,50,94,4.0,0.0
1660,80.0,128,160,2.0,0.0
1661,59.0,112,48,3.0,0.0
1662,83.0,0,160,1.0,0.0
1663,56.0,0,48,4.0,0.0
1664,76.0,0,160,2.0,0.0
1665,80.0,0,160,2.0,0.0
1666,83.0,32,160,1.0,0.0
1667,76.0,0,160,2.0,0.0
1668,61.0,64,96,3.0,0.0
1669,59.0,96,96,3.0,0.0
1670,80.0,30,160,2.0,0.0
1671,76.0,0,160,2.0,0.0
1672,83.0,0,160,1.0,0.0
1673,61.0,64,96,3.0,0.0
1674,62.0,50,94,3.0,0.0
1675,64.0,112,48,3.0,0.0
1676,76.0,0,160,2.0,0.0
1677,83.0,128,160,1.0,0.0
1678,80.0,0,160,2.0,0.0
1679,80.0,0,160,2.0,0.0
1680,68.0,64,96,3.0,0.0
1681,83.0,0,160,1.0,0.0
1682,64.0,0,160,4.0,0.0
1683,76.0,32,160,2.0,0.0
1684,66.0,96,96,3.0,0.0
1685,76.0,0,160,2.0,0.0
1686,68.0,64,96,3.0,0.0
1687,80.0,30,160,2.0,0.0
1688,64.0,0,160,4.0,0.0
1689,83.0,0,160,1.0,0.0
1690,69.0,50,94,3.0,0.0
1691,64.0,0,160,4.0,0.0
1692,71.0,112,48,3.0,0.0
1693,76.0,128,160,2.0,0.0
1694,83.0,0,160,1.0,0.0
1695,80.0,0,160,2.0,0.0
1696,88.0,32,160,1.0,0.0
1697,64.0,0,160,4.0,0.0
1698,66.0,0,96,2.0,0.0
1699,69.0,64,96,3.0,0.0
1700,64.0,0,96,2.0,0.0
1701,68.0,96,96,3.0,0.0
1702,64.0,30,160,4.0,0.0
1703,86.0,0,160,1.0,0.0
1704,66.0,64,96,2.0,0.0
1705,69.0,0,96,3.0,0.0
1706,71.0,0,94,3.0,0.0
1707,68.0,50,94,2.0,0.0
1708,57.0,0,160,4.0,0.0
1709,69.0,128,160,2.0,0.0
1710,64.0,0,160,3.0,0.0
1711,73.0,0,160,3.0,0.0
1712,85.0,112,48,1.0,0.0
1713,64.0,0,160,4.0,0.0
1714,69.0,0,160,3.0,0.0
1715,73.0,32,160,3.0,0.0
1716,85.0,0,160,2.0,0.0
1717,57.0,64,96,1.0,0.0
1718,56.0,96,96,1.0,0.0
1719,73.0,0,160,3.0,0.0
1720,85.0,30,160,2.0,0.0
1721,57.0,64,96,1.0,0.0
1722,64.0,0,160,4.0,0.0
1723,69.0,0,160,3.0,0.0
1724,59.0,50,94,1.0,0.0
1725,64.0,0,160,4.0,0.0
1726,61.0,112,48,1.0,0.0
1727,76.0,0,160,2.0,0.0
1728,73.0,0,160,3.0,0.0
1729,69.0,0,160,3.0,0.0
1730,85.0,80,160,2.0,0.0
1731,69.0,0,160,3.0,0.0
1732,73.0,0,160,3.0,0.0
1733,64.0,192,160,4.0,0.0
1734,62.0,112,48,1.0,0.0
1735,85.0,0,160,2.0,0.0
1736,76.0,0,160,2.0,0.0
1737,76.0,80,160,2.0,0.0
1738,85.0,0,160,2.0,0.0
1739,69.0,0,160,3.0,0.0
1740,64.0,0,160,4.0,0.0
1741,73.0,0,160,3.0,0.0
1742,69.0,80,160,3.0,0.0
1743,66.0,112,48,1.0,0.0
1744,73.0,0,160,3.0,0.0
1745,64.0,0,160,4.0,0.0
1746,76.0,0,160,2.0,0.0
1747,85.0,0,160,2.0,0.0
1748,76.0,0,160,2.0,0.0
1749,68.0,112,48,1.0,0.0
1750,73.0,192,160,3.0,0.0
1751,69.0,0,160,3.0,0.0
1752,85.0,0,160,2.0,0.0
1753,64.0,0,160,4.0,0.0
1754,85.0,0,160,2.0,0.0
1755,69.0,0,160,3.0,0.0
1756,76.0,0,160,2.0,0.0
1757,73.0,0,160,3.0,0.0
1758,64.0,192,160,4.0,0.0
1759,68.0,0,160,3.0,0.0
1760,71.0,0,160,3.0,0.0
1761,86.0,192,160,2.0,0.0
1762,64.0,0,160,4.0,0.0
1763,76.0,0,160,2.0,0.0
1764,76.0,0,160,2.0,0.0
1765,86.0,0,160,2.0,0.0
1766,64.0,192,160,4.0,0.0
1767,71.0,0,160,3.0,0.0
1768,68.0,0,160,3.0,0.0
1769,73.0,0,160,1.0,0.0
1770,68.0,192,160,3.0,0.0
1771,71.0,0,160,3.0,0.0
1772,86.0,0,160,2.0,0.0
1773,76.0,0,160,2.0,0.0
1774,74.0,0,160,1.0,0.0
1775,64.0,0,160,4.0,0.0
1776,76.0,0,160,2.0,0.0
1777,71.0,0,160,3.0,0.0
1778,68.0,192,160,3.0,0.0
1779,64.0,0,160,4.0,0.0
1780,86.0,0,160,2.0,0.0
1781,78.0,0,160,1.0,0.0
1782,76.0,0,160,2.0,0.0
1783,86.0,0,160,2.0,0.0
1784,68.0,0,160,3.0,0.0
1785,71.0,0,160,3.0,0.0
1786,64.0,192,160,4.0,0.0
1787,76.0,0,160,2.0,0.0
1788,68.0,0,160,3.0,0.0
1789,80.0,0,160,1.0,0.0
1790,86.0,192,160,2.0,0.0
1791,64.0,0,160,4.0,0.0
1792,71.0,0,160,3.0,0.0
1793,68.0,0,160,3.0,0.0
1794,64.0,0,160,4.0,0.0
1795,81.0,0,160,1.0,0.0
1796,86.0,192,160,2.0,0.0
1797,76.0,0,160,2.0,0.0
1798,71.0,0,160,3.0,0.0
1799,64.0,0,160,4.0,0.0
1800,76.0,192,160,2.0,0.0
1801,71.0,0,160,3.0,0.0
1802,68.0,0,160,3.0,0.0
1803,83.0,0,160,1.0,0.0
1804,86.0,0,160,2.0,0.0
1805,76.0,0,160,2.0,0.0
1806,86.0,0,160,2.0,0.0
1807,64.0,0,160,4.0,0.0
1808,68.0,0,160,3.0,0.0
1809,71.0,0,160,3.0,0.0
1810,85.0,192,160,1.0,0.0
1811,86.0,0,160,1.0,0.0
1812,68.0,0,160,3.0,0.0
1813,64.0,0,160,4.0,0.0
1814,83.0,0,160,2.0,0.0
1815,76.0,0,160,2.0,0.0
1816,71.0,128,160,3.0,0.0
1817,68.0,0,96,3.0,0.0
1818,64.0,32,160,4.0,0.0
1819,71.0,64,96,2.0,0.0
1820,76.0,0,160,1.0,0.0
1821,66.0,96,96,3.0,0.0
1822,69.0,0,96,2.0,0.0
1823,68.0,0,96,3.0,0.0
1824,85.0,0,160,1.0,0.0
1825,71.0,64,96,2.0,0.0
1826,64.0,30,160,4.0,0.0
1827,69.0,0,94,3.0,0.0
1828,73.0,50,94,2.0,0.0
1829,71.0,0,48,3.0,0.0
1830,86.0,0,160,1.0,0.0
1831,74.0,112,48,2.0,0.0
1832,64.0,128,160,4.0,0.0
1833,71.0,64,96,2.0,0.0
1834,64.0,32,160,4.0,0.0
1835,68.0,0,96,3.0,0.0
1836,76.0,0,160,1.0,0.0
1837,69.0,96,96,2.0,0.0
1838,66.0,0,96,3.0,0.0
1839,88.0,0,160,1.0,0.0
1840,68.0,64,96,3.0,0.0
1841,71.0,0,96,2.0,0.0
1842,64.0,30,160,4.0,0.0
1843,73.0,0,94,2.0,0.0
1844,69.0,50,94,3.0,0.0
1845,73.0,0,48,2.0,0.0
1846,57.0,128,160,4.0,0.0
1847,85.0,0,160,1.0,0.0
1848,69.0,112,48,3.0,0.0
1849,45.0,64,96,4.0,0.0
1850,88.0,0,160,1.0,0.0
1851,73.0,0,160,2.0,0.0
1852,81.0,32,160,2.0,0.0
1853,76.0,0,160,1.0,0.0
1854,44.0,96,96,4.0,0.0
1855,45.0,64,96,4.0,0.0
1856,81.0,0,160,2.0,0.0
1857,73.0,0,160,2.0,0.0
1858,76.0,30,160,1.0,0.0
1859,88.0,0,160,1.0,0.0
1860,47.0,50,94,4.0,0.0
1861,88.0,128,160,1.0,0.0
1862,76.0,0,160,1.0,0.0
1863,49.0,112,48,4.0,0.0
1864,81.0,0,160,2.0,0.0
1865,73.0,0,160,2.0,0.0
1866,81.0,32,160,2.0,0.0
1867,73.0,0,160,2.0,0.0
1868,88.0,0,160,1.0,0.0
1869,50.0,64,96,3.0,0.0
1870,76.0,0,160,1.0,0.0
1871,49.0,96,96,3.0,0.0
1872,88.0,0,160,1.0,0.0
1873,76.0,0,160,1.0,0.0
1874,81.0,0,160,2.0,0.0
1875,73.0,30,160,2.0,0.0
1876,50.0,64,96,3.0,0.0
1877,52.0,50,94,3.0,0.0
1878,88.0,0,160,1.0,0.0
1879,76.0,0,160,1.0,0.0
1880,54.0,112,48,3.0,0.0
1881,81.0,128,160,2.0,0.0
1882,73.0,0,160,2.0,0.0
1883,56.0,0,96,3.0,0.0
1884,76.0,32,160,1.0,0.0
1885,88.0,0,160,1.0,0.0
1886,68.0,64,96,2.0,0.0
1887,66.0,96,96,2.0,0.0
1888,54.0,0,96,3.0,0.0
1889,68.0,0,96,2.0,0.0
1890,56.0,64,96,3.0,0.0
1891,76.0,0,160,1.0,0.0
1892,88.0,30,160,1.0,0.0
1893,57.0,50,94,3.0,0.0
1894,69.0,0,94,2.0,0.0
1895,76.0,80,160,1.0,0.0
1896,59.0,0,48,3.0,0.0
1897,56.0,0,48,3.0,0.0
1898,71.0,112,48,2.0,0.0
1899,64.0,0,160,4.0,0.0
1900,88.0,0,160,1.0,0.0
1901,76.0,80,160,1.0,0.0
1902,88.0,0,160,1.0,0.0
1903,64.0,0,160,4.0,0.0
1904,73.0,0,48,2.0,0.0
1905,57.0,112,48,3.0,0.0
1906,59.0,0,48,3.0,0.0
1907,76.0,80,160,1.0,0.0
1908,64.0,0,160,4.0,0.0
1909,88.0,0,160,1.0,0.0
1910,74.0,112,48,2.0,0.0
1911,76.0,0,160,1.0,0.0
1912,88.0,80,160,1.0,0.0
1913,71.0,0,48,2.0,0.0
1914,68.0,112,48,3.0,0.0
1915,64.0,0,160,4.0,0.0
1916,69.0,112,48,2.0,0.0
1917,64.0,80,160,4.0,0.0
1918,73.0,0,48,3.0,0.0
1919,78.0,0,160,1.0,0.0
1920,80.0,0,160,1.0,0.0
1921,71.0,0,48,3.0,0.0
1922,74.0,112,48,2.0,0.0
1923,64.0,192,160,4.0,0.0
1924,66.0,0,160,3.0,0.0
1925,64.0,0,160,4.0,0.0
1926,81.0,192,160,1.0,0.0
1927,74.0,0,160,2.0,0.0
1928,74.0,0,160,2.0,0.0
1929,83.0,0,160,1.0,0.0
1930,68.0,192,160,3.0,0.0
1931,64.0,0,160,4.0,0.0
1932,64.0,0,160,4.0,0.0
1933,85.0,0,160,1.0,0.0
1934,69.0,0,160,3.0,0.0
1935,74.0,192,160,2.0,0.0
1936,74.0,0,160,2.0,0.0
1937,86.0,0,160,1.0,0.0
1938,64.0,192,160,4.0,0.0
1939,71.0,0,160,3.0,0.0
1940,68.0,0,160,3.0,0.0
1941,71.0,0,160,3.0,0.0
1942,68.0,0,160,3.0,0.0
1943,74.0,0,160,2.0,0.0
1944,76.0,0,160,1.0,0.0
1945,83.0,0,160,2.0,0.0
1946,64.0,192,160,4.0,0.0
1947,74.0,0,160,2.0,0.0
1948,64.0,0,160,4.0,0.0
1949,71.0,0,160,3.0,0.0
1950,83.0,0,160,2.0,0.0
1951,85.0,192,160,1.0,0.0
1952,68.0,0,160,3.0,0.0
1953,86.0,0,160,1.0,0.0
1954,64.0,0,160,4.0,0.0
1955,68.0,0,160,3.0,0.0
1956,71.0,192,160,3.0,0.0
1957,74.0,0,160,2.0,0.0
1958,83.0,0,160,2.0,0.0
1959,74.0,0,160,2.0,0.0
1960,64.0,0,160,4.0,0.0
1961,71.0,0,160,3.0,0.0
1962,68.0,0,160,3.0,0.0
1963,76.0,192,160,1.0,0.0
1964,83.0,0,160,2.0,0.0
1965,74.0,0,160,2.0,0.0
1966,64.0,0,160,4.0,0.0
1967,83.0,80,160,2.0,0.0
1968,88.0,0,160,1.0,0.0
1969,68.0,0,160,3.0,0.0
1970,71.0,0,160,3.0,0.0
1971,74.0,0,160,2.0,0.0
1972,68.0,0,160,3.0,0.0
1973,71.0,0,160,3.0,0.0
1974,64.0,0,160,4.0,0.0
1975,83.0,128,160,2.0,0.0
1976,86.0,112,48,1.0,0.0
1977,76.0,0,160,3.0,0.0
1978,68.0,0,160,3.0,0.0
1979,83.0,32,160,2.0,0.0
1980,74.0,0,160,2.0,0.0
1981,44.0,64,96,4.0,0.0
1982,86.0,0,96,1.0,0.0
1983,88.0,0,96,1.0,0.0
1984,42.0,96,96,4.0,0.0
1985,86.0,0,96,1.0,0.0
1986,74.0,0,160,2.0,0.0
1987,68.0,0,160,3.0,0.0
1988,83.0,30,160,2.0,0.0
1989,76.0,0,160,3.0,0.0
1990,44.0,64,96,4.0,0.0
1991,85.0,50,94,1.0,0.0
1992,45.0,0,94,4.0,0.0
1993,47.0,0,48,4.0,0.0
1994,68.0,128,160,3.0,0.0
1995,74.0,0,48,2.0,0.0
1996,76.0,0,160,3.0,0.0
1997,83.0,112,48,1.0,0.0
1998,59.0,0,96,2.0,0.0
1999,56.0,64,96,3.0,0.0
2000,64.0,32,160,4.0,0.0
2001,71.0,0,96,1.0,0.0
2002,57.0,96,96,2.0,0.0
2003,54.0,0,96,3.0,0.0
2004,73.0,0,96,1.0,0.0
2005,59.0,0,96,2.0,0.0
2006,56.0,64,96,3.0,0.0
2007,71.0,0,96,1.0,0.0
2008,64.0,30,160,4.0,0.0
2009,69.0,50,94,1.0,0.0
2010,61.0,0,94,2.0,0.0
2011,57.0,0,94,3.0,0.0
2012,62.0,0,48,2.0,0.0
2013,64.0,128,160,4.0,0.0
2014,68.0,0,48,1.0,0.0
2015,59.0,112,48,3.0,0.0
2016,68.0,0,96,2.0,0.0
2017,62.0,64,96,3.0,0.0
2018,64.0,32,160,4.0,0.0
2019,71.0,0,96,1.0,0.0
2020,66.0,96,96,2.0,0.0
2021,69.0,0,96,1.0,0.0
2022,64.0,0,96,3.0,0.0
2023,71.0,0,96,1.0,0.0
2024,68.0,0,96,2.0,0.0
2025,62.0,64,96,3.0,0.0
2026,64.0,30,160,4.0,0.0
2027,73.0,0,94,1.0,0.0
2028,61.0,0,94,3.0,0.0
2029,69.0,50,94,2.0,0.0
2030,68.0,0,48,2.0,0.0
2031,74.0,112,48,1.0,0.0
2032,59.0,0,48,3.0,0.0
2033,64.0,128,160,4.0,0.0
2034,66.0,0,96,2.0,0.0
2035,42.0,96,96,4.0,0.0
2036,54.0,0,96,3.0,0.0
2037,86.0,0,96,1.0,0.0
2038,85.0,0,96,1.0,0.0
2039,40.0,0,96,4.0,0.0
2040,64.0,96,96,2.0,0.0
2041,52.0,0,96,3.0,0.0
2042,54.0,0,96,3.0,0.0
2043,86.0,94,96,1.0,0.0
2044,42.0,0,96,4.0,0.0
2045,66.0,0,96,2.0,0.0
2046,83.0,50,94,1.0,0.0
2047,44.0,0,94,4.0,0.0
2048,56.0,0,94,3.0,0.0
2049,68.0,0,94,2.0,0.0
2050,57.0,0,48,3.0,0.0
2051,69.0,0,48,2.0,0.0
2052,45.0,0,48,4.0,0.0
2053,81.0,192,48,1.0,0.0
2054,66.0,0,96,2.0,0.0
2055,42.0,96,96,4.0,0.0
2056,69.0,48,48,1.0,0.0
2057,54.0,0,96,3.0,0.0
2058,64.0,48,96,2.0,0.0
2059,52.0,0,96,3.0,0.0
2060,40.0,0,96,4.0,0.0
2061,66.0,94,96,2.0,0.0
2062,54.0,0,96,3.0,0.0
2063,42.0,0,96,4.0,0.0
2064,85.0,48,48,1.0,0.0
2065,56.0,0,94,3.0,0.0
2066,68.0,0,94,2.0,0.0
2067,44.0,50,94,4.0,0.0
2068,69.0,128,160,1.0,0.0
2069,45.0,112,48,4.0,0.0
2070,57.0,0,48,3.0,0.0
2071,42.0,0,96,4.0,0.0
2072,88.0,32,160,1.0,0.0
2073,54.0,64,96,3.0,0.0
2074,66.0,0,96,2.0,0.0
2075,40.0,0,96,4.0,0.0
2076,64.0,0,96,2.0,0.0
2077,52.0,96,96,3.0,0.0
2078,54.0,64,96,3.0,0.0
2079,42.0,0,96,4.0,0.0
2080,66.0,0,96,2.0,0.0
2081,69.0,30,160,1.0,0.0
2082,44.0,162,94,4.0,0.0
2083,56.0,0,94,3.0,0.0
2084,68.0,0,94,2.0,0.0
2085,88.0,0,160,1.0,0.0
2086,69.0,128,160,2.0,0.0
2087,45.0,0,160,4.0,0.0
2088,57.0,0,160,3.0,0.0
2089,42.0,0,96,4.0,0.0
2090,66.0,64,96,2.0,0.0
2091,54.0,0,96,3.0,0.0
2092,69.0,32,160,1.0,0.0
2093,52.0,0,96,3.0,0.0
2094,40.0,0,96,4.0,0.0
2095,64.0,96,96,2.0,0.0
2096,42.0,0,96,4.0,0.0
2097,54.0,64,96,3.0,0.0
2098,66.0,0,96,2.0,0.0
2099,93.0,30,160,1.0,0.0
2100,56.0,0,94,3.0,0.0
2101,44.0,162,94,4.0,0.0
2102,68.0,0,94,2.0,0.0
2103,69.0,0,160,2.0,0.0
2104,57.0,0,160,3.0,0.0
2105,88.0,0,736,1.0,0.0
2106,45.0,128,160,4.0,0.0
2107,42.0,0,96,4.0,0.0
2108,66.0,0,96,2.0,0.0
2109,54.0,96,96,3.0,0.0
2110,64.0,96,96,2.0,0.0
2111,40.0,0,96,4.0,0.0
2112,52.0,0,96,3.0,0.0
2113,42.0,0,96,4.0,0.0
2114,66.0,0,96,2.0,0.0
2115,54.0,94,96,3.0,0.0
2116,44.0,0,94,4.0,0.0
2117,68.0,0,94,2.0,0.0
2118,56.0,162,94,3.0,0.0
2119,45.0,0,160,4.0,0.0
2120,69.0,0,160,2.0,0.0
2121,57.0,80,160,3.0,0.0
2122,42.0,96,96,4.0,0.0
2123,54.0,0,96,3.0,0.0
2124,69.0,48,48,1.0,0.0
2125,66.0,0,96,2.0,0.0
2126,64.0,0,96,2.0,0.0
2127,40.0,0,96,4.0,0.0
2128,52.0,48,96,3.0,0.0
2129,66.0,0,96,2.0,0.0
2130,42.0,0,96,4.0,0.0
2131,54.0,94,96,3.0,0.0
2132,86.0,48,48,1.0,0.0
2133,56.0,0,94,3.0,0.0
2134,68.0,50,94,2.0,0.0
2135,44.0,0,94,4.0,0.0
2136,69.0,0,160,2.0,0.0
2137,85.0,112,48,1.0,0.0
2138,45.0,0,160,4.0,0.0
2139,57.0,80,160,3.0,0.0
2140,66.0,0,96,2.0,0.0
2141,54.0,96,96,3.0,0.0
2142,69.0,48,48,1.0,0.0
2143,42.0,0,96,4.0,0.0
2144,52.0,0,96,3.0,0.0
2145,40.0,48,96,4.0,0.0
2146,64.0,0,96,2.0,0.0
2147,66.0,0,96,2.0,0.0
2148,54.0,0,96,3.0,0.0
2149,86.0,48,48,1.0,0.0
2150,42.0,94,96,4.0,0.0
2151,56.0,162,94,3.0,0.0
2152,68.0,0,94,2.0,0.0
2153,44.0,0,94,4.0,0.0
2154,57.0,128,160,3.0,0.0
2155,45.0,0,160,4.0,0.0
2156,69.0,0,160,2.0,0.0
2157,85.0,0,160,1.0,0.0
2158,42.0,64,96,4.0,0.0
2159,54.0,0,96,3.0,0.0
2160,66.0,0,96,2.0,0.0
2161,69.0,32,160,1.0,0.0
2162,52.0,0,96,3.0,0.0
2163,40.0,96,96,4.0,0.0
2164,64.0,0,96,2.0,0.0
2165,54.0,0,96,3.0,0.0
2166,66.0,0,96,2.0,0.0
2167,86.0,30,160,1.0,0.0
2168,42.0,64,96,4.0,0.0
2169,68.0,0,94,2.0,0.0
2170,56.0,0,94,3.0,0.0
2171,44.0,162,94,4.0,0.0
2172,69.0,0,160,2.0,0.0
2173,57.0,0,160,3.0,0.0
2174,85.0,128,160,1.0,0.0
2175,45.0,0,160,4.0,0.0
2176,54.0,0,96,3.0,0.0
2177,69.0,32,160,1.0,0.0
2178,66.0,0,96,2.0,0.0
2179,42.0,64,96,4.0,0.0
2180,40.0,0,96,4.0,0.0
2181,64.0,96,96,2.0,0.0
2182,52.0,0,96,3.0,0.0
2183,42.0,64,96,4.0,0.0
2184,83.0,30,160,1.0,0.0
2185,54.0,0,96,3.0,0.0
2186,66.0,0,96,2.0,0.0
2187,56.0,162,94,3.0,0.0
2188,68.0,0,94,2.0,0.0
2189,44.0,0,94,4.0,0.0
2190,45.0,0,160,4.0,0.0
2191,81.0,0,160,1.0,0.0
2192,69.0,0,160,2.0,0.0
2193,57.0,128,160,3.0,0.0
2194,66.0,64,96,2.0,0.0
2195,69.0,32,160,1.0,0.0
2196,42.0,0,96,4.0,0.0
2197,54.0,0,96,3.0,0.0
2198,52.0,0,96,3.0,0.0
2199,40.0,0,96,4.0,0.0
2200,64.0,96,96,2.0,0.0
2201,66.0,64,96,2.0,0.0
2202,54.0,0,96,3.0,0.0
2203,42.0,0,96,4.0,0.0
2204,85.0,30,160,1.0,0.0
2205,44.0,162,94,4.0,0.0
2206,68.0,0,94,2.0,0.0
2207,56.0,0,94,3.0,0.0
2208,69.0,0,160,1.0,0.0
2209,45.0,0,160,4.0,0.0
2210,57.0,128,160,3.0,0.0
2211,88.0,32,160,1.0,0.0
2212,42.0,0,96,4.0,0.0
2213,66.0,64,96,2.0,0.0
2214,54.0,0,96,3.0,0.0
2215,52.0,0,96,3.0,0.0
2216,64.0,96,96,2.0,0.0
2217,40.0,0,96,4.0,0.0
2218,54.0,0,96,3.0,0.0
2219,42.0,64,96,4.0,0.0
2220,69.0,30,160,1.0,0.0
2221,66.0,0,96,2.0,0.0
2222,44.0,0,94,4.0,0.0
2223,56.0,0,94,3.0,0.0
2224,68.0,162,94,2.0,0.0
2225,69.0,128,160,2.0,0.0
2226,45.0,0,160,4.0,0.0
2227,88.0,0,160,1.0,0.0
2228,57.0,0,160,3.0,0.0
2229,42.0,0,96,4.0,0.0
2230,69.0,32,160,1.0,0.0
2231,54.0,0,96,3.0,0.0
2232,66.0,64,96,2.0,0.0
2233,40.0,0,96,4.0,0.0
2234,52.0,0,96,3.0,0.0
2235,64.0,96,96,2.0,0.0
2236,66.0,0,96,2.0,0.0
2237,42.0,0,96,4.0,0.0
2238,93.0,30,160,1.0,0.0
2239,54.0,64,96,3.0,0.0
2240,44.0,162,94,4.0,0.0
2241,56.0,0,94,3.0,0.0
2242,68.0,0,94,2.0,0.0
2243,69.0,0,160,2.0,0.0
2244,45.0,128,160,4.0,0.0
2245,57.0,0,160,3.0,0.0
2246,88.0,0,736,1.0,0.0
2247,54.0,0,96,3.0,0.0
2248,66.0,96,96,2.0,0.0
2249,42.0,0,96,4.0,0.0
2250,52.0,0,96,3.0,0.0
2251,64.0,96,96,2.0,0.0
2252,40.0,0,96,4.0,0.0
2253,66.0,0,96,2.0,0.0
2254,42.0,94,96,4.0,0.0
2255,54.0,0,96,3.0,0.0
2256,56.0,162,94,3.0,0.0
2257,44.0,0,94,4.0,0.0
2258,68.0,0,94,2.0,0.0
2259,57.0,80,160,3.0,0.0
2260,45.0,0,160,4.0,0.0
2261,69.0,0,160,2.0,0.0
2262,42.0,0,96,4.0,0.0
2263,54.0,96,96,3.0,0.0
2264,69.0,48,48,1.0,0.0
2265,66.0,0,96,2.0,0.0
2266,52.0,48,96,3.0,0.0
2267,64.0,0,96,2.0,0.0
2268,40.0,0,96,4.0,0.0
2269,66.0,94,96,2.0,0.0
2270,54.0,0,96,3.0,0.0
2271,42.0,0,96,4.0,0.0
2272,86.0,48,48,1.0,0.0
2273,68.0,0,94,2.0,0.0
2274,44.0,50,94,4.0,0.0
2275,56.0,0,94,3.0,0.0
2276,45.0,80,160,4.0,0.0
2277,85.0,112,48,1.0,0.0
2278,57.0,0,160,3.0,0.0
2279,69.0,0,160,2.0,0.0
2280,42.0,96,96,4.0,0.0
2281,54.0,0,96,3.0,0.0
2282,66.0,0,96,2.0,0.0
2283,69.0,48,48,1.0,0.0
2284,64.0,0,96,2.0,0.0
2285,52.0,0,96,3.0,0.0
2286,40.0,48,96,4.0,0.0
2287,66.0,0,96,2.0,0.0
2288,54.0,94,96,3.0,0.0
2289,42.0,0,96,4.0,0.0
2290,86.0,48,48,1.0,0.0
2291,44.0,0,94,4.0,0.0
2292,68.0,0,94,2.0,0.0
2293,56.0,162,94,3.0,0.0
2294,45.0,128,160,4.0,0.0
2295,69.0,0,160,2.0,0.0
2296,85.0,0,160,1.0,0.0
2297,57.0,0,160,3.0,0.0
2298,66.0,64,96,2.0,0.0
2299,69.0,32,160,1.0,0.0
2300,42.0,0,96,4.0,0.0
2301,54.0,0,96,3.0,0.0
2302,52.0,0,96,3.0,0.0
2303,40.0,0,96,4.0,0.0
2304,64.0,96,96,2.0,0.0
2305,54.0,64,96,3.0,0.0
2306,66.0,0,96,2.0,0.0
2307,86.0,30,160,1.0,0.0
2308,42.0,0,96,4.0,0.0
2309,68.0,0,94,2.0,0.0
2310,44.0,0,94,4.0,0.0
2311,56.0,162,94,3.0,0.0
2312,69.0,0,160,2.0,0.0
2313,57.0,0,160,3.0,0.0
2314,45.0,0,160,4.0,0.0
2315,85.0,128,160,1.0,0.0
2316,42.0,0,96,4.0,0.0
2317,66.0,0,96,2.0,0.0
2318,54.0,64,96,3.0,0.0
2319,69.0,32,160,1.0,0.0
2320,52.0,0,96,3.0,0.0
2321,64.0,0,96,2.0,0.0
2322,40.0,96,96,4.0,0.0
2323,54.0,0,96,3.0,0.0
2324,66.0,64,96,2.0,0.0
2325,86.0,30,160,1.0,0.0
2326,42.0,0,96,4.0,0.0
2327,56.0,0,94,3.0,0.0
2328,44.0,162,94,4.0,0.0
2329,68.0,0,94,2.0,0.0
2330,45.0,0,160,4.0,0.0
2331,86.0,0,160,1.0,0.0
2332,69.0,0,160,2.0,0.0
2333,57.0,128,160,3.0,0.0
2334,54.0,0,96,3.0,0.0
2335,71.0,0,192,1.0,0.0
2336,42.0,96,96,4.0,0.0
2337,66.0,0,96,2.0,0.0
2338,64.0,0,96,2.0,0.0
2339,40.0,96,96,4.0,0.0
2340,52.0,0,96,3.0,0.0
2341,85.0,30,160,1.0,0.0
2342,66.0,0,96,2.0,0.0
2343,54.0,64,96,3.0,0.0
2344,42.0,0,96,4.0,0.0
2345,44.0,26,94,4.0,0.0
2346,56.0,0,94,3.0,0.0
2347,68.0,0,94,2.0,0.0
2348,45.0,0,160,4.0,0.0
2349,57.0,0,160,3.0,0.0
2350,85.0,56,24,1.0,0.0
2351,69.0,80,160,2.0,0.0
2352,86.0,80,56,1.0,0.0
2353,71.0,48,48,1.0,0.0
2354,54.0,0,96,3.0,0.0
2355,42.0,0,96,4.0,0.0
2356,66.0,96,96,2.0,0.0
2357,64.0,0,96,2.0,0.0
2358,52.0,48,96,3.0,0.0
2359,40.0,0,96,4.0,0.0
2360,54.0,0,96,3.0,0.0
2361,88.0,48,48,1.0,0.0
2362,66.0,94,96,2.0,0.0
2363,42.0,0,96,4.0,0.0
2364,56.0,162,94,3.0,0.0
2365,44.0,0,94,4.0,0.0
2366,68.0,0,94,2.0,0.0
2367,57.0,0,160,3.0,0.0
2368,45.0,128,160,4.0,0.0
2369,85.0,0,160,1.0,0.0
2370,69.0,0,160,2.0,0.0
2371,69.0,32,160,1.0,0.0
2372,42.0,0,96,4.0,0.0
2373,54.0,64,96,3.0,0.0
2374,66.0,0,96,2.0,0.0
2375,64.0,96,96,2.0,0.0
2376,40.0,0,96,4.0,0.0
2377,52.0,0,96,3.0,0.0
2378,54.0,0,96,3.0,0.0
2379,66.0,0,96,2.0,0.0
2380,86.0,30,160,1.0,0.0
2381,42.0,64,96,4.0,0.0
2382,56.0,162,94,3.0,0.0
2383,44.0,0,94,4.0,0.0
2384,68.0,0,94,2.0,0.0
2385,45.0,0,160,4.0,0.0
2386,85.0,0,160,1.0,0.0
2387,69.0,0,160,2.0,0.0
2388,57.0,128,160,3.0,0.0
2389,88.0,32,160,1.0,0.0
2390,42.0,64,96,4.0,0.0
2391,66.0,0,96,2.0,0.0
2392,54.0,0,96,3.0,0.0
2393,64.0,96,96,2.0,0.0
2394,40.0,0,96,4.0,0.0
2395,52.0,0,96,3.0,0.0
2396,54.0,64,96,3.0,0.0
2397,93.0,30,160,1.0,0.0
2398,66.0,0,96,2.0,0.0
2399,42.0,0,96,4.0,0.0
2400,44.0,0,94,4.0,0.0
2401,56.0,162,94,3.0,0.0
2402,68.0,0,94,2.0,0.0
2403,69.0,0,160,2.0,0.0
2404,45.0,0,160,4.0,0.0
2405,57.0,128,160,3.0,0.0
2406,86.0,0,160,1.0,0.0
2407,42.0,96,96,4.0,0.0
2408,71.0,96,192,1.0,0.0
2409,66.0,0,96,2.0,0.0
2410,54.0,0,96,3.0,0.0
2411,52.0,0,96,3.0,0.0
2412,64.0,0,96,2.0,0.0
2413,40.0,0,96,4.0,0.0
2414,85.0,30,160,1.0,0.0
2415,42.0,0,96,4.0,0.0
2416,66.0,64,96,2.0,0.0
2417,54.0,0,96,3.0,0.0
2418,44.0,0,94,4.0,0.0
2419,68.0,26,94,2.0,0.0
2420,56.0,0,94,3.0,0.0
2421,85.0,56,24,1.0,0.0
2422,45.0,0,160,4.0,0.0
2423,69.0,0,160,2.0,0.0
2424,57.0,80,160,3.0,0.0
2425,86.0,80,56,1.0,0.0
2426,71.0,48,48,1.0,0.0
2427,42.0,0,96,4.0,0.0
2428,54.0,96,96,3.0,0.0
2429,66.0,0,96,2.0,0.0
2430,52.0,0,96,3.0,0.0
2431,40.0,0,96,4.0,0.0
2432,64.0,48,96,2.0,0.0
2433,54.0,0,96,3.0,0.0
2434,66.0,0,96,2.0,0.0
2435,88.0,48,48,1.0,0.0
2436,42.0,94,96,4.0,0.0
2437,68.0,162,94,2.0,0.0
2438,56.0,0,94,3.0,0.0
2439,44.0,0,94,4.0,0.0
2440,85.0,0,160,1.0,0.0
2441,69.0,0,160,2.0,0.0
2442,57.0,128,160,3.0,0.0
2443,45.0,0,160,4.0,0.0
2444,69.0,32,160,1.0,0.0
2445,42.0,64,96,4.0,0.0
2446,54.0,0,96,3.0,0.0
2447,66.0,0,96,2.0,0.0
2448,64.0,0,96,2.0,0.0
2449,40.0,0,96,4.0,0.0
2450,52.0,96,96,3.0,0.0
2451,88.0,30,160,1.0,0.0
2452,54.0,64,96,3.0,0.0
2453,66.0,0,96,2.0,0.0
2454,42.0,0,96,4.0,0.0
2455,68.0,26,94,2.0,0.0
2456,56.0,0,94,3.0,0.0
2457,44.0,0,94,4.0,0.0
2458,88.0,136,24,1.0,0.0
2459,45.0,32,160,4.0,0.0
2460,57.0,0,160,3.0,0.0
2461,69.0,0,160,2.0,0.0
2462,93.0,96,168,1.0,0.0
2463,66.0,0,96,2.0,0.0
2464,69.0,0,288,1.0,0.0
2465,54.0,96,96,3.0,0.0
2466,42.0,0,96,4.0,0.0
2467,40.0,0,96,4.0,0.0
2468,52.0,96,96,3.0,0.0
2469,64.0,0,96,2.0,0.0
2470,42.0,0,96,4.0,0.0
2471,54.0,0,96,3.0,0.0
2472,66.0,94,96,2.0,0.0
2473,88.0,0,94,1.0,0.0
2474,44.0,0,94,4.0,0.0
2475,56.0,0,94,3.0,0.0
2476,68.0,50,94,2.0,0.0
2477,69.0,0,160,2.0,0.0
2478,86.0,112,48,1.0,0.0
2479,45.0,0,160,4.0,0.0
2480,57.0,128,160,3.0,0.0
2481,66.0,96,96,2.0,0.0
2482,71.0,96,192,1.0,0.0
2483,54.0,0,96,3.0,0.0
2484,42.0,0,96,4.0,0.0
2485,40.0,0,96,4.0,0.0
2486,64.0,0,96,2.0,0.0
2487,52.0,0,96,3.0,0.0
2488,42.0,0,96,4.0,0.0
2489,54.0,64,96,3.0,0.0
2490,66.0,0,96,2.0,0.0
2491,85.0,30,160,1.0,0.0
2492,44.0,0,94,4.0,0.0
2493,56.0,26,94,3.0,0.0
2494,68.0,0,94,2.0,0.0
2495,85.0,56,24,1.0,0.0
2496,45.0,0,160,4.0,0.0
2497,69.0,0,160,2.0,0.0
2498,57.0,80,160,3.0,0.0
2499,86.0,80,56,1.0,0.0
2500,42.0,0,96,4.0,0.0
2501,66.0,0,96,2.0,0.0
2502,54.0,96,96,3.0,0.0
2503,71.0,48,48,1.0,0.0
2504,64.0,0,96,2.0,0.0
2505,52.0,48,96,3.0,0.0
2506,40.0,0,96,4.0,0.0
2507,54.0,0,96,3.0,0.0
2508,66.0,94,96,2.0,0.0
2509,88.0,48,48,1.0,0.0
2510,42.0,0,96,4.0,0.0
2511,56.0,0,94,3.0,0.0
2512,44.0,0,94,4.0,0.0
2513,68.0,162,94,2.0,0.0
2514,57.0,0,160,3.0,0.0
2515,69.0,0,160,2.0,0.0
2516,85.0,128,160,1.0,0.0
2517,45.0,0,160,4.0,0.0
2518,66.0,64,96,2.0,0.0
2519,42.0,0,96,4.0,0.0
2520,69.0,32,160,1.0,0.0
2521,54.0,0,96,3.0,0.0
2522,52.0,0,96,3.0,0.0
2523,64.0,96,96,2.0,0.0
2524,40.0,0,96,4.0,0.0
2525,42.0,0,96,4.0,0.0
2526,66.0,0,96,2.0,0.0
2527,54.0,64,96,3.0,0.0
2528,86.0,30,160,1.0,0.0
2529,56.0,0,94,3.0,0.0
2530,44.0,0,94,4.0,0.0
2531,68.0,162,94,2.0,0.0
2532,45.0,0,160,4.0,0.0
2533,85.0,128,160,1.0,0.0
2534,69.0,0,160,2.0,0.0
2535,57.0,0,160,3.0,0.0
2536,42.0,0,96,4.0,0.0
2537,54.0,64,96,3.0,0.0
2538,88.0,32,160,1.0,0.0
2539,66.0,0,96,2.0,0.0
2540,64.0,96,96,2.0,0.0
2541,40.0,0,96,4.0,0.0
2542,52.0,0,96,3.0,0.0
2543,42.0,64,96,4.0,0.0
2544,66.0,0,96,2.0,0.0
2545,54.0,0,96,3.0,0.0
2546,93.0,30,160,1.0,0.0
2547,44.0,162,94,4.0,0.0
2548,68.0,0,94,2.0,0.0
2549,56.0,0,94,3.0,0.0
2550,86.0,0,160,1.0,0.0
2551,57.0,0,160,3.0,0.0
2552,45.0,128,160,4.0,0.0
2553,69.0,0,160,2.0,0.0
2554,66.0,0,96,2.0,0.0
2555,42.0,96,96,4.0,0.0
2556,54.0,0,96,3.0,0.0
2557,71.0,0,192,1.0,0.0
2558,52.0,0,96,3.0,0.0
2559,64.0,0,96,2.0,0.0
2560,40.0,96,96,4.0,0.0
2561,85.0,30,160,1.0,0.0
2562,66.0,0,96,2.0,0.0
2563,54.0,0,96,3.0,0.0
2564,42.0,64,96,4.0,0.0
2565,56.0,0,94,3.0,0.0
2566,68.0,26,94,2.0,0.0
2567,44.0,0,94,4.0,0.0
2568,57.0,80,160,3.0,0.0
2569,45.0,0,160,4.0,0.0
2570,85.0,56,24,1.0,0.0
2571,69.0,0,160,2.0,0.0
2572,86.0,80,56,1.0,0.0
2573,42.0,0,96,4.0,0.0
2574,54.0,0,96,3.0,0.0
2575,66.0,96,96,2.0,0.0
2576,71.0,48,48,1.0,0.0
2577,64.0,48,96,2.0,0.0
2578,52.0,0,96,3.0,0.0
2579,40.0,0,96,4.0,0.0
2580,42.0,0,96,4.0,0.0
2581,54.0,0,96,3.0,0.0
2582,66.0,94,96,2.0,0.0
2583,88.0,48,48,1.0,0.0
2584,68.0,0,94,2.0,0.0
2585,44.0,162,94,4.0,0.0
2586,56.0,0,94,3.0,0.0
2587,57.0,0,160,3.0,0.0
2588,69.0,0,160,2.0,0.0
2589,85.0,128,160,1.0,0.0
2590,45.0,0,160,4.0,0.0
2591,54.0,64,96,3.0,0.0
2592,66.0,0,96,2.0,0.0
2593,42.0,0,96,4.0,0.0
2594,69.0,32,160,1.0,0.0
2595,40.0,0,96,4.0,0.0
2596,64.0,0,96,2.0,0.0
2597,52.0,96,96,3.0,0.0
2598,88.0,30,160,1.0,0.0
2599,54.0,0,96,3.0,0.0
2600,42.0,64,96,4.0,0.0
2601,66.0,0,96,2.0,0.0
2602,68.0,0,94,2.0,0.0
2603,56.0,26,94,3.0,0.0
2604,44.0,0,94,4.0,0.0
2605,88.0,136,24,1.0,0.0
2606,45.0,32,160,4.0,0.0
2607,57.0,0,160,3.0,0.0
2608,69.0,0,160,2.0,0.0
2609,93.0,96,168,1.0,0.0
2610,66.0,96,96,2.0,0.0
2611,69.0,0,288,1.0,0.0
2612,54.0,0,96,3.0,0.0
2613,42.0,0,96,4.0,0.0
2614,64.0,96,96,2.0,0.0
2615,40.0,0,96,4.0,0.0
2616,52.0,0,96,3.0,0.0
2617,42.0,94,96,4.0,0.0
2618,66.0,0,96,2.0,0.0
2619,54.0,0,96,3.0,0.0
2620,68.0,50,94,2.0,0.0
2621,88.0,0,94,1.0,0.0
2622,44.0,0,94,4.0,0.0
2623,56.0,0,94,3.0,0.0
2624,57.0,0,160,3.0,0.0
2625,45.0,80,160,4.0,0.0
2626,86.0,112,48,1.0,0.0
2627,69.0,0,160,2.0,0.0
2628,71.0,48,48,1.0,0.0
2629,54.0,96,96,3.0,0.0
2630,42.0,0,96,4.0,0.0
2631,66.0,0,96,2.0,0.0
2632,64.0,0,96,2.0,0.0
2633,52.0,0,96,3.0,0.0
2634,40.0,48,96,4.0,0.0
2635,88.0,48,48,1.0,0.0
2636,54.0,0,96,3.0,0.0
2637,66.0,94,96,2.0,0.0
2638,42.0,0,96,4.0,0.0
2639,44.0,0,94,4.0,0.0
2640,56.0,0,94,3.0,0.0
2641,68.0,162,94,2.0,0.0
2642,69.0,0,160,2.0,0.0
2643,57.0,128,160,3.0,0.0
2644,85.0,0,160,1.0,0.0
2645,45.0,0,160,4.0,0.0
2646,54.0,0,96,3.0,0.0
2647,69.0,32,160,1.0,0.0
2648,42.0,64,96,4.0,0.0
2649,66.0,0,96,2.0,0.0
2650,52.0,96,96,3.0,0.0
2651,64.0,0,96,2.0,0.0
2652,40.0,0,96,4.0,0.0
2653,66.0,64,96,2.0,0.0
2654,88.0,30,160,1.0,0.0
2655,42.0,0,96,4.0,0.0
2656,54.0,0,96,3.0,0.0
2657,44.0,0,94,4.0,0.0
2658,56.0,0,94,3.0,0.0
2659,68.0,162,94,2.0,0.0
2660,86.0,0,160,1.0,0.0
2661,69.0,0,160,2.0,0.0
2662,45.0,128,160,4.0,0.0
2663,57.0,0,160,3.0,0.0
2664,66.0,64,96,2.0,0.0
2665,42.0,0,96,4.0,0.0
2666,54.0,0,96,3.0,0.0
2667,71.0,32,160,1.0,0.0
2668,52.0,96,96,3.0,0.0
2669,40.0,0,96,4.0,0.0
2670,64.0,0,96,2.0,0.0
2671,66.0,64,96,2.0,0.0
2672,42.0,0,96,4.0,0.0
2673,88.0,30,160,1.0,0.0
2674,54.0,0,96,3.0,0.0
2675,56.0,0,94,3.0,0.0
2676,68.0,26,94,2.0,0.0
2677,44.0,0,94,4.0,0.0
2678,69.0,0,160,2.0,0.0
2679,57.0,32,160,3.0,0.0
2680,45.0,0,160,4.0,0.0
2681,88.0,136,24,1.0,0.0
2682,93.0,96,168,1.0,0.0
2683,66.0,0,96,2.0,0.0
2684,54.0,96,96,3.0,0.0
2685,42.0,0,96,4.0,0.0
2686,69.0,0,288,1.0,0.0
2687,64.0,96,96,2.0,0.0
2688,40.0,0,96,4.0,0.0
2689,52.0,0,96,3.0,0.0
2690,54.0,94,96,3.0,0.0
2691,42.0,0,96,4.0,0.0
2692,66.0,0,96,2.0,0.0
2693,44.0,0,94,4.0,0.0
2694,88.0,0,94,1.0,0.0
2695,68.0,50,94,2.0,0.0
2696,56.0,0,94,3.0,0.0
2697,69.0,80,160,2.0,0.0
2698,45.0,0,160,4.0,0.0
2699,86.0,112,48,1.0,0.0
2700,57.0,0,160,3.0,0.0
2701,42.0,0,96,4.0,0.0
2702,66.0,96,96,2.0,0.0
2703,71.0,48,48,1.0,0.0
2704,54.0,0,96,3.0,0.0
2705,64.0,0,96,2.0,0.0
2706,40.0,48,96,4.0,0.0
2707,52.0,0,96,3.0,0.0
2708,66.0,0,96,2.0,0.0
2709,42.0,94,96,4.0,0.0
2710,88.0,48,48,1.0,0.0
2711,54.0,0,96,3.0,0.0
2712,44.0,162,94,4.0,0.0
2713,68.0,0,94,2.0,0.0
2714,56.0,0,94,3.0,0.0
2715,69.0,128,160,2.0,0.0
2716,85.0,0,160,1.0,0.0
2717,57.0,0,160,3.0,0.0
2718,45.0,0,160,4.0,0.0
2719,69.0,32,160,1.0,0.0
2720,42.0,0,96,4.0,0.0
2721,54.0,64,96,3.0,0.0
2722,66.0,0,96,2.0,0.0
2723,40.0,96,96,4.0,0.0
2724,52.0,0,96,3.0,0.0
2725,64.0,0,96,2.0,0.0
2726,54.0,0,96,3.0,0.0
2727,66.0,64,96,2.0,0.0
2728,88.0,30,160,1.0,0.0
2729,42.0,0,96,4.0,0.0
2730,68.0,0,94,2.0,0.0
2731,44.0,0,94,4.0,0.0
2732,56.0,162,94,3.0,0.0
2733,57.0,0,160,3.0,0.0
2734,45.0,0,160,4.0,0.0
2735,69.0,0,160,2.0,0.0
2736,85.0,128,160,1.0,0.0
2737,66.0,0,96,2.0,0.0
2738,69.0,32,160,1.0,0.0
2739,54.0,64,96,3.0,0.0
2740,42.0,0,96,4.0,0.0
2741,52.0,96,96,3.0,0.0
2742,40.0,0,96,4.0,0.0
2743,64.0,0,96,2.0,0.0
2744,88.0,30,160,1.0,0.0
2745,66.0,0,96,2.0,0.0
2746,42.0,0,96,4.0,0.0
2747,54.0,64,96,3.0,0.0
2748,44.0,26,94,4.0,0.0
2749,68.0,0,94,2.0,0.0
2750,56.0,0,94,3.0,0.0
2751,45.0,32,160,4.0,0.0
2752,69.0,0,160,2.0,0.0
2753,57.0,0,160,3.0,0.0
2754,88.0,136,24,1.0,0.0
2755,93.0,96,168,1.0,0.0
2756,69.0,46,336,1.0,0.0
2757,66.0,0,96,2.0,0.0
2758,54.0,0,96,3.0,0.0
2759,42.0,96,96,4.0,0.0
2760,40.0,0,96,4.0,0.0
2761,64.0,0,96,2.0,0.0
2762,52.0,96,96,3.0,0.0
2763,66.0,0,96,2.0,0.0
2764,42.0,0,96,4.0,0.0
2765,54.0,48,96,3.0,0.0
2766,44.0,0,94,4.0,0.0
2767,56.0,0,94,3.0,0.0
2768,68.0,162,94,2.0,0.0
2769,45.0,0,160,4.0,0.0
2770,73.0,0,160,1.0,0.0
2771,57.0,0,160,3.0,0.0
2772,69.0,128,160,2.0,0.0
2773,42.0,0,96,4.0,0.0
2774,54.0,0,96,3.0,0.0
2775,57.0,32,160,1.0,0.0
2776,66.0,64,96,2.0,0.0
2777,52.0,0,96,3.0,0.0
2778,64.0,96,96,2.0,0.0
2779,40.0,0,96,4.0,0.0
2780,42.0,64,96,4.0,0.0
2781,76.0,30,160,1.0,0.0
2782,66.0,0,96,2.0,0.0
2783,54.0,0,96,3.0,0.0
2784,68.0,0,94,2.0,0.0
2785,56.0,0,94,3.0,0.0
2786,44.0,26,94,4.0,0.0
2787,57.0,0,160,3.0,0.0
2788,76.0,72,24,1.0,0.0
2789,45.0,128,160,4.0,0.0
2790,69.0,0,160,2.0,0.0
2791,81.0,64,72,1.0,0.0
2792,69.0,0,432,1.0,0.0
2793,57.0,46,336,1.0,0.0
2794,54.0,96,96,3.0,0.0
2795,66.0,0,96,2.0,0.0
2796,42.0,0,96,4.0,0.0
2797,64.0,96,96,2.0,0.0
2798,40.0,0,96,4.0,0.0
2799,52.0,0,96,3.0,0.0
2800,54.0,0,96,3.0,0.0
2801,66.0,0,96,2.0,0.0
2802,42.0,48,96,4.0,0.0
2803,68.0,162,94,2.0,0.0
2804,44.0,0,94,4.0,0.0
2805,56.0,0,94,3.0,0.0
2806,57.0,0,160,3.0,0.0
2807,85.0,128,160,1.0,0.0
2808,69.0,0,160,2.0,0.0
2809,45.0,0,160,4.0,0.0
2810,66.0,0,96,2.0,0.0
2811,69.0,32,160,1.0,0.0
2812,54.0,64,96,3.0,0.0
2813,42.0,0,96,4.0,0.0
2814,52.0,96,96,3.0,0.0
2815,64.0,0,96,2.0,0.0
2816,40.0,0,96,4.0,0.0
2817,54.0,64,96,3.0,0.0
2818,42.0,0,96,4.0,0.0
2819,88.0,30,160,1.0,0.0
2820,66.0,0,96,2.0,0.0
2821,44.0,0,94,4.0,0.0
2822,56.0,26,94,3.0,0.0
2823,68.0,0,94,2.0,0.0
2824,88.0,136,24,1.0,0.0
2825,57.0,0,160,3.0,0.0
2826,45.0,32,160,4.0,0.0
2827,69.0,0,160,2.0,0.0
2828,93.0,96,168,1.0,0.0
2829,69.0,46,336,1.0,0.0
2830,42.0,0,96,4.0,0.0
2831,66.0,96,96,2.0,0.0
2832,54.0,0,96,3.0,0.0
2833,40.0,96,96,4.0,0.0
2834,52.0,0,96,3.0,0.0
2835,64.0,0,96,2.0,0.0
2836,54.0,48,96,3.0,0.0
2837,66.0,0,96,2.0,0.0
2838,42.0,0,96,4.0,0.0
2839,44.0,0,94,4.0,0.0
2840,56.0,26,94,3.0,0.0
2841,68.0,0,94,2.0,0.0
2842,57.0,32,160,3.0,0.0
2843,64.0,136,24,1.0,0.0
2844,45.0,0,160,4.0,0.0
2845,69.0,96,168,1.0,0.0
2846,42.0,96,96,4.0,0.0
2847,54.0,0,96,3.0,0.0
2848,66.0,0,96,2.0,0.0
2849,57.0,46,336,1.0,0.0
2850,40.0,96,96,4.0,0.0
2851,52.0,0,96,3.0,0.0
2852,64.0,0,96,2.0,0.0
2853,66.0,0,96,2.0,0.0
2854,54.0,0,96,3.0,0.0
2855,42.0,48,96,4.0,0.0
2856,44.0,26,94,4.0,0.0
2857,56.0,0,94,3.0,0.0
2858,68.0,0,94,2.0,0.0
2859,64.0,136,24,1.0,0.0
2860,57.0,32,160,3.0,0.0
2861,45.0,0,160,4.0,0.0
2862,69.0,96,168,1.0,0.0
2863,42.0,96,96,4.0,0.0
2864,66.0,0,96,2.0,0.0
2865,57.0,0,544,1.0,0.0
2866,54.0,0,96,3.0,0.0
2867,64.0,0,96,2.0,0.0
2868,40.0,96,96,4.0,0.0
2869,52.0,0,96,3.0,0.0
2870,54.0,94,96,3.0,0.0
2871,66.0,0,96,2.0,0.0
2872,42.0,0,96,4.0,0.0
2873,56.0,0,94,3.0,0.0
2874,68.0,0,94,2.0,0.0
2875,44.0,162,94,4.0,0.0
2876,45.0,128,160,4.0,0.0
2877,69.0,0,160,2.0,0.0
2878,57.0,0,160,3.0,0.0
2879,66.0,0,96,1.0,0.0
2880,54.0,96,96,3.0,0.0
2881,42.0,0,96,4.0,0.0
2882,64.0,0,96,1.0,0.0
2883,52.0,0,96,3.0,0.0
2884,40.0,96,96,4.0,0.0
2885,66.0,0,96,1.0,0.0
2886,42.0,0,96,4.0,0.0
2887,54.0,96,96,3.0,0.0
2888,44.0,0,96,4.0,0.0
2889,68.0,0,96,1.0,0.0
2890,56.0,48,96,3.0,0.0
2891,57.0,0,48,3.0,0.0
2892,45.0,0,48,4.0,0.0
2893,69.0,240,48,1.0,0.0
2894,42.0,0,96,4.0,0.0
2895,66.0,96,96,1.0,0.0
2896,54.0,0,96,3.0,0.0
2897,40.0,96,96,4.0,0.0
2898,52.0,0,96,3.0,0.0
2899,64.0,0,96,1.0,0.0
2900,54.0,0,96,3.0,0.0
2901,66.0,96,96,1.0,0.0
2902,42.0,0,96,4.0,0.0
2903,55.0,0,96,3.0,0.0
2904,43.0,48,96,4.0,0.0
2905,67.0,0,96,1.0,0.0
2906,57.0,0,48,3.0,0.0
2907,69.0,0,48,1.0,0.0
2908,45.0,240,48,4.0,0.0
2909,54.0,0,96,3.0,0.0
2910,66.0,0,96,1.0,0.0
2911,42.0,96,96,4.0,0.0
2912,52.0,96,96,3.0,0.0
2913,40.0,0,96,4.0,0.0
2914,64.0,0,96,1.0,0.0
2915,41.0,0,96,4.0,0.0
2916,65.0,96,96,1.0,0.0
2917,53.0,0,96,3.0,0.0
2918,67.0,0,96,1.0,0.0
2919,43.0,48,96,4.0,0.0
2920,55.0,0,96,3.0,0.0
2921,57.0,0,48,3.0,0.0
2922,69.0,0,48,1.0,0.0
2923,45.0,240,48,4.0,0.0
2924,41.0,0,96,4.0,0.0
2925,65.0,0,96,1.0,0.0
2926,53.0,96,96,3.0,0.0
2927,40.0,96,96,4.0,0.0
2928,52.0,0,96,3.0,0.0
2929,64.0,0,96,1.0,0.0
2930,41.0,0,96,4.0,0.0
2931,53.0,0,96,3.0,0.0
2932,65.0,288,96,1.0,0.0
2933,43.0,576,288,4.0,0.0
2934,55.0,0,288,3.0,0.0
2935,67.0,0,288,1.0,0.0
2936,57.0,0,576,3.0,0.0
2937,45.0,0,576,4.0,0.0
2938,69.0,576,576,1.0,0.0
2939,55.0,0,576,3.0,0.0
2940,43.0,576,576,4.0,0.0
2941,67.0,0,576,1.0,0.0
2942,65.0,0,576,1.0,0.0
2943,53.0,0,576,3.0,0.0
2944,41.0,544,576,4.0,0.0
2945,67.0,576,576,1.0,0.0
2946,55.0,32,544,3.0,0.0
2947,43.0,0,576,4.0,0.0
2948,55.0,0,576,4.0,0.0
2949,67.0,0,576,2.0,0.0
2950,79.0,576,576,1.0,0.0
2951,91.0,544,576,1.0,0.0
2952,79.0,0,576,2.0,0.0
2953,67.0,0,576,4.0,0.0
2954,55.0,336,576,4.0,0.0
2955,79.0,0,576,1.0,0.0
2956,67.0,32,544,2.0,0.0
2957,55.0,96,336,3.0,0.0
2958,43.0,0,336,4.0,0.0
2959,67.0,176,544,1.0,0.0
2960,60.0,96,528,2.0,0.0
2961,41.0,112,48,4.0,0.0
2962,53.0,96,528,3.0,0.0
2963,69.0,176,544,1.0,0.0
2964,45.0,96,48,4.0,0.0
2965,60.0,96,528,2.0,0.0
2966,52.0,208,528,3.0,0.0
2967,46.0,112,48,4.0,0.0
2968,67.0,0,544,1.0,0.0
2969,60.0,192,528,2.0,0.0
2970,48.0,96,48,4.0,0.0
2971,53.0,16,528,3.0,0.0
2972,50.0,176,160,4.0,0.0
2973,65.0,176,544,1.0,0.0
2974,60.0,192,528,2.0,0.0
2975,48.0,192,160,4.0,0.0
2976,52.0,16,528,3.0,0.0
2977,46.0,0,160,4.0,0.0
2978,67.0,0,544,1.0,0.0
2979,60.0,192,528,2.0,0.0
2980,43.0,192,160,4.0,0.0
2981,41.0,176,160,4.0,0.0
2982,53.0,16,528,3.0,0.0
2983,69.0,0,544,1.0,0.0
2984,45.0,192,160,4.0,0.0
2985,60.0,192,528,2.0,0.0
2986,52.0,16,528,3.0,0.0
2987,46.0,176,160,4.0,0.0
2988,67.0,0,432,1.0,0.0
2989,60.0,0,160,2.0,0.0
2990,48.0,80,160,4.0,0.0
2991,57.0,192,48,2.0,0.0
2992,50.0,0,48,4.0,0.0
2993,53.0,0,48,3.0,0.0
2994,38.0,0,48,4.0,0.0
2995,65.0,0,48,1.0,0.0
2996,57.0,0,48,2.0,0.0
2997,53.0,192,48,3.0,0.0
2998,52.0,0,48,3.0,0.0
2999,36.0,192,48,4.0,0.0
3000,64.0,0,48,2.0,0.0
3001,67.0,0,48,1.0,0.0
3002,41.0,0,48,4.0,0.0
3003,65.0,0,48,1.0,0.0
3004,57.0,192,48,2.0,0.0
3005,53.0,0,48,3.0,0.0
3006,77.0,0,48,2.0,0.0
3007,69.0,0,48,3.0,0.0
3008,62.0,192,48,4.0,0.0
3009,76.0,0,48,3.0,0.0
3010,84.0,208,528,1.0,0.0
3011,60.0,0,48,4.0,0.0
3012,79.0,192,48,2.0,0.0
3013,65.0,80,160,4.0,0.0
3014,69.0,0,48,3.0,0.0
3015,77.0,112,48,2.0,0.0
3016,53.0,96,48,3.0,0.0
3017,81.0,176,544,2.0,0.0
3018,84.0,16,528,1.0,0.0
3019,57.0,192,160,4.0,0.0
3020,65.0,0,352,3.0,0.0
3021,58.0,0,160,4.0,0.0
3022,79.0,0,544,2.0,0.0
3023,64.0,192,160,3.0,0.0
3024,84.0,16,528,1.0,0.0
3025,60.0,32,160,4.0,0.0
3026,70.0,160,192,3.0,0.0
3027,69.0,176,160,3.0,0.0
3028,62.0,0,160,4.0,0.0
3029,57.0,192,160,3.0,0.0
3030,77.0,176,544,2.0,0.0
3031,84.0,16,528,1.0,0.0
3032,60.0,0,160,4.0,0.0
3033,69.0,192,160,3.0,0.0
3034,58.0,0,160,4.0,0.0
3035,62.0,0,160,3.0,0.0
3036,79.0,0,544,2.0,0.0
3037,70.0,192,160,3.0,0.0
3038,84.0,16,528,1.0,0.0
3039,55.0,0,160,4.0,0.0
3040,64.0,192,160,3.0,0.0
3041,53.0,176,160,4.0,0.0
3042,69.0,0,160,3.0,0.0
3043,60.0,192,160,3.0,0.0
3044,81.0,0,544,2.0,0.0
3045,57.0,192,160,4.0,0.0
3046,65.0,176,352,3.0,0.0
3047,84.0,16,528,1.0,0.0
3048,58.0,0,160,4.0,0.0
3049,79.0,0,432,2.0,0.0
3050,52.0,192,160,3.0,0.0
3051,60.0,0,160,4.0,0.0
3052,84.0,112,240,1.0,0.0
3053,64.0,80,160,3.0,0.0
3054,57.0,0,160,3.0,0.0
3055,62.0,80,160,4.0,0.0
3056,77.0,0,48,2.0,0.0
3057,50.0,0,160,4.0,0.0
3058,69.0,80,160,3.0,0.0
3059,86.0,112,48,1.0,0.0
3060,88.0,0,48,1.0,0.0
3061,79.0,112,48,2.0,0.0
3062,60.0,0,160,3.0,0.0
3063,48.0,80,160,4.0,0.0
3064,89.0,0,48,1.0,0.0
3065,53.0,368,160,4.0,0.0
3066,77.0,112,48,2.0,0.0
3067,39.0,0,336,4.0,0.0
3068,51.0,0,336,3.0,0.0
3069,63.0,576,336,1.0,0.0
3070,39.0,0,336,4.0,0.0
3071,51.0,384,336,3.0,0.0
3072,39.0,208,336,4.0,0.0
3073,51.0,0,336,3.0,0.0
3074,39.0,560,160,4.0,0.0
3075,51.0,0,160,3.0,0.0
3076,51.0,0,336,3.0,0.0
3077,63.0,0,336,1.0,0.0
3078,39.0,384,336,4.0,0.0
3079,63.0,0,336,1.0,0.0
3080,51.0,208,336,3.0,0.0
3081,39.0,0,336,4.0,0.0
3082,63.0,0,160,1.0,0.0
3083,39.0,0,160,4.0,0.0
3084,51.0,560,160,3.0,0.0
3085,51.0,576,336,3.0,0.0
3086,39.0,0,336,4.0,0.0
3087,63.0,0,336,1.0,0.0
3088,51.0,0,336,3.0,0.0
3089,63.0,576,336,1.0,0.0
3090,39.0,0,336,4.0,0.0
3091,52.0,0,336,3.0,0.0
3092,40.0,576,336,4.0,0.0
3093,64.0,0,336,1.0,0.0
3094,52.0,208,336,3.0,0.0
3095,64.0,0,336,1.0,0.0
3096,36.0,240,720,4.0,0.0
3097,53.0,176,160,3.0,0.0
3098,48.0,0,544,3.0,0.0
3099,69.0,176,544,1.0,0.0
3100,36.0,48,528,4.0,0.0
3101,65.0,192,576,2.0,0.0
3102,57.0,160,192,3.0,0.0
3103,59.0,0,160,3.0,0.0
3104,67.0,176,544,1.0,0.0
3105,48.0,0,544,3.0,0.0
3106,36.0,48,528,4.0,0.0
3107,60.0,160,192,3.0,0.0
3108,64.0,0,192,2.0,0.0
3109,62.0,0,160,3.0,0.0
3110,57.0,192,384,2.0,0.0
3111,65.0,0,544,1.0,0.0
3112,48.0,176,544,3.0,0.0
3113,60.0,160,192,3.0,0.0
3114,56.0,0,192,2.0,0.0
3115,36.0,48,528,4.0,0.0
3116,62.0,0,384,2.0,0.0
3117,59.0,0,160,3.0,0.0
3118,67.0,0,544,1.0,0.0
3119,48.0,192,192,3.0,0.0
3120,64.0,0,352,2.0,0.0
3121,49.0,160,192,3.0,0.0
3122,58.0,0,192,3.0,0.0
3123,36.0,48,528,4.0,0.0
3124,57.0,0,160,3.0,0.0
3125,48.0,176,160,3.0,0.0
3126,57.0,192,192,2.0,0.0
3127,69.0,176,544,1.0,0.0
3128,48.0,0,544,3.0,0.0
3129,36.0,48,528,4.0,0.0
3130,57.0,160,192,3.0,0.0
3131,65.0,0,352,2.0,0.0
3132,59.0,0,160,3.0,0.0
3133,65.0,160,192,2.0,0.0
3134,67.0,112,432,1.0,0.0
3135,48.0,80,544,3.0,0.0
3136,64.0,32,160,2.0,0.0
3137,60.0,48,192,3.0,0.0
3138,36.0,0,528,4.0,0.0
3139,56.0,16,336,2.0,0.0
3140,59.0,0,160,3.0,0.0
3141,62.0,80,160,2.0,0.0
3142,65.0,96,48,1.0,0.0
3143,48.0,0,544,3.0,0.0
3144,36.0,0,352,4.0,0.0
3145,67.0,112,48,1.0,0.0
3146,55.0,32,160,2.0,0.0
3147,64.0,0,160,2.0,0.0
3148,58.0,160,192,3.0,0.0
3149,57.0,80,160,2.0,0.0
3150,65.0,0,160,1.0,0.0
3151,41.0,384,48,4.0,0.0
3152,53.0,0,48,3.0,0.0
3153,43.0,272,352,4.0,0.0
3154,55.0,0,352,3.0,0.0
3155,65.0,112,48,2.0,0.0
3156,77.0,0,48,1.0,0.0
3157,57.0,0,544,3.0,0.0
3158,45.0,384,544,4.0,0.0
3159,81.0,0,48,1.0,0.0
3160,69.0,192,48,2.0,0.0
3161,82.0,0,48,1.0,0.0
3162,70.0,112,48,2.0,0.0
3163,55.0,0,544,3.0,0.0
3164,43.0,0,544,4.0,0.0
3165,72.0,192,160,2.0,0.0
3166,84.0,0,160,1.0,0.0
3167,86.0,0,160,1.0,0.0
3168,74.0,384,160,2.0,0.0
3169,41.0,0,544,4.0,0.0
3170,53.0,384,544,3.0,0.0
3171,84.0,0,160,1.0,0.0
3172,72.0,192,160,2.0,0.0
3173,70.0,0,160,2.0,0.0
3174,82.0,0,160,1.0,0.0
3175,43.0,0,544,4.0,0.0
3176,55.0,0,544,3.0,0.0
3177,67.0,192,160,2.0,0.0
3178,79.0,0,160,1.0,0.0
3179,77.0,0,160,1.0,0.0
3180,65.0,384,160,2.0,0.0
3181,45.0,0,544,4.0,0.0
3182,57.0,0,544,3.0,0.0
3183,81.0,192,160,1.0,0.0
3184,69.0,0,160,2.0,0.0
3185,82.0,0,160,1.0,0.0
3186,70.0,384,160,2.0,0.0
3187,43.0,80,544,4.0,0.0
3188,55.0,0,544,3.0,0.0
3189,84.0,0,160,1.0,0.0
3190,72.0,192,160,2.0,0.0
3191,86.0,0,160,1.0,0.0
3192,74.0,0,160,2.0,0.0
3193,53.0,192,48,3.0,0.0
3194,41.0,0,48,4.0,0.0
3195,43.0,112,48,4.0,0.0
3196,84.0,0,160,1.0,0.0
3197,72.0,80,160,2.0,0.0
3198,55.0,0,48,3.0,0.0
3199,64.0,0,160,2.0,0.0
3200,84.0,192,48,1.0,0.0
3201,72.0,0,48,2.0,0.0
3202,69.0,0,48,2.0,0.0
3203,53.0,0,48,3.0,0.0
3204,41.0,0,48,4.0,0.0
3205,72.0,0,48,2.0,0.0
3206,57.0,192,48,3.0,0.0
3207,84.0,0,48,1.0,0.0
3208,69.0,0,48,2.0,0.0
3209,53.0,0,48,3.0,0.0
3210,87.0,192,48,1.0,0.0
3211,65.0,0,48,2.0,0.0
3212,58.0,0,48,3.0,0.0
3213,86.0,192,48,1.0,0.0
3214,41.0,192,48,4.0,0.0
3215,43.0,192,48,4.0,0.0
3216,41.0,192,48,4.0,0.0
3217,74.0,0,48,2.0,0.0
3218,65.0,192,48,2.0,0.0
3219,88.0,0,48,1.0,0.0
3220,58.0,0,48,3.0,0.0
3221,89.0,192,48,1.0,0.0
3222,74.0,0,48,2.0,0.0
3223,65.0,0,48,2.0,0.0
3224,58.0,0,48,3.0,0.0
3225,84.0,112,48,1.0,0.0
3226,69.0,80,160,2.0,0.0
3227,65.0,0,160,3.0,0.0
3228,77.0,80,160,2.0,0.0
3229,65.0,0,160,3.0,0.0
3230,41.0,112,48,4.0,0.0
3231,67.0,80,160,3.0,0.0
3232,39.0,112,48,4.0,0.0
3233,79.0,0,160,2.0,0.0
3234,78.0,80,160,2.0,0.0
3235,66.0,0,160,3.0,0.0
3236,38.0,112,48,4.0,0.0
3237,67.0,0,160,3.0,0.0
3238,40.0,112,48,4.0,0.0
3239,82.0,0,160,2.0,0.0
3240,86.0,80,160,1.0,0.0
3241,42.0,112,48,4.0,0.0
3242,81.0,80,160,2.0,0.0
3243,69.0,0,160,3.0,0.0
3244,84.0,0,160,1.0,0.0
3245,84.0,0,48,1.0,0.0
3246,81.0,112,48,2.0,0.0
3247,62.0,80,160,3.0,0.0
3248,43.0,0,160,4.0,0.0
3249,43.0,0,160,4.0,0.0
3250,82.0,0,48,1.0,0.0
3251,64.0,80,160,3.0,0.0
3252,79.0,112,48,2.0,0.0
3253,77.0,0,48,2.0,0.0
3254,45.0,0,160,4.0,0.0
3255,60.0,192,160,3.0,0.0
3256,81.0,112,48,1.0,0.0
3257,62.0,0,192,3.0,0.0
3258,77.0,0,192,2.0,0.0
3259,81.0,160,192,1.0,0.0
3260,46.0,32,160,4.0,0.0
3261,55.0,80,160,3.0,0.0
3262,74.0,0,160,2.0,0.0
3263,46.0,0,160,4.0,0.0
3264,82.0,0,160,1.0,0.0
3265,70.0,0,48,2.0,0.0
3266,48.0,80,160,4.0,0.0
3267,76.0,112,48,2.0,0.0
3268,60.0,0,48,3.0,0.0
3269,79.0,0,48,1.0,0.0
3270,60.0,0,160,3.0,0.0
3271,81.0,0,48,1.0,0.0
3272,69.0,112,48,2.0,0.0
3273,41.0,80,160,4.0,0.0
3274,77.0,192,48,1.0,0.0
3275,65.0,0,48,2.0,0.0
3276,67.0,0,48,2.0,0.0
3277,79.0,304,48,1.0,0.0
3278,65.0,0,160,2.0,0.0
3279,77.0,80,160,1.0,0.0
3280,60.0,192,48,4.0,0.0
3281,57.0,0,48,3.0,0.0
3282,63.0,304,48,4.0,0.0
3283,60.0,0,48,3.0,0.0
3284,58.0,0,160,3.0,0.0
3285,62.0,192,160,4.0,0.0
3286,77.0,192,160,1.0,0.0
3287,65.0,0,160,2.0,0.0
3288,67.0,192,160,2.0,0.0
3289,79.0,0,160,1.0,0.0
3290,65.0,192,160,2.0,0.0
3291,77.0,0,160,1.0,0.0
3292,58.0,192,160,3.0,0.0
3293,64.0,0,160,4.0,0.0
3294,58.0,192,160,3.0,0.0
3295,65.0,0,160,4.0,0.0
3296,57.0,192,160,3.0,0.0
3297,60.0,0,160,4.0,0.0
3298,77.0,0,160,1.0,0.0
3299,65.0,192,160,2.0,0.0
3300,67.0,0,160,2.0,0.0
3301,79.0,192,160,1.0,0.0
3302,65.0,0,160,2.0,0.0
3303,77.0,192,160,1.0,0.0
3304,63.0,0,160,4.0,0.0
3305,60.0,0,160,3.0,0.0
3306,78.0,0,160,1.0,0.0
3307,66.0,192,160,2.0,0.0
3308,62.0,80,160,4.0,0.0
3309,58.0,0,160,3.0,0.0
3310,79.0,0,160,1.0,0.0
3311,67.0,0,160,2.0,0.0
3312,79.0,80,160,1.0,0.0
3313,62.0,0,48,4.0,0.0
3314,67.0,0,160,2.0,0.0
3315,58.0,112,48,3.0,0.0
3316,60.0,0,48,4.0,0.0
3317,67.0,0,160,2.0,0.0
3318,79.0,80,160,1.0,0.0
3319,57.0,112,48,3.0,0.0
3320,58.0,112,48,4.0,0.0
3321,84.0,192,160,1.0,0.0
3322,72.0,0,160,2.0,0.0
3323,55.0,0,48,3.0,0.0
3324,57.0,0,192,4.0,0.0
3325,53.0,160,192,3.0,0.0
3326,84.0,0,160,1.0,0.0
3327,72.0,32,160,2.0,0.0
3328,55.0,0,160,3.0,0.0
3329,58.0,80,160,4.0,0.0
3330,84.0,0,160,1.0,0.0
3331,72.0,0,160,2.0,0.0
3332,55.0,0,48,4.0,0.0
3333,84.0,0,160,1.0,0.0
3334,52.0,112,48,3.0,0.0
3335,72.0,80,160,2.0,0.0
3336,72.0,0,48,2.0,0.0
3337,57.0,192,48,4.0,0.0
3338,53.0,0,48,3.0,0.0
3339,84.0,0,48,1.0,0.0
3340,60.0,0,48,2.0,0.0
3341,82.0,192,48,1.0,0.0
3342,64.0,0,48,3.0,0.0
3343,55.0,0,48,4.0,0.0
3344,81.0,0,48,1.0,0.0
3345,72.0,0,48,2.0,0.0
3346,57.0,336,48,4.0,0.0
3347,65.0,0,48,3.0,0.0
3348,58.0,0,192,4.0,0.0
3349,81.0,160,192,1.0,0.0
3350,72.0,0,192,2.0,0.0
3351,62.0,0,192,3.0,0.0
3352,46.0,0,160,4.0,0.0
3353,67.0,0,160,2.0,0.0
3354,74.0,0,160,2.0,0.0
3355,50.0,80,160,3.0,0.0
3356,82.0,0,160,1.0,0.0
3357,48.0,192,48,4.0,0.0
3358,64.0,0,48,2.0,0.0
3359,52.0,0,48,3.0,0.0
3360,79.0,0,48,1.0,0.0
3361,52.0,0,192,3.0,0.0
3362,48.0,144,48,4.0,0.0
3363,79.0,48,192,1.0,0.0
3364,70.0,0,192,2.0,0.0
3365,36.0,112,48,4.0,0.0
3366,53.0,0,160,3.0,0.0
3367,69.0,0,160,2.0,0.0
3368,81.0,80,160,1.0,0.0
3369,36.0,304,48,4.0,0.0
3370,57.0,0,48,3.0,0.0
3371,65.0,0,48,2.0,0.0
3372,69.0,0,48,2.0,0.0
3373,77.0,0,48,1.0,0.0
3374,76.0,0,192,1.0,0.0
3375,67.0,160,192,2.0,0.0
3376,58.0,0,192,3.0,0.0
3377,36.0,32,160,4.0,0.0
3378,77.0,0,160,1.0,0.0
3379,36.0,0,160,4.0,0.0
3380,65.0,0,160,2.0,0.0
3381,57.0,80,160,3.0,0.0
3382,36.0,80,160,4.0,0.0
3383,79.0,0,48,1.0,0.0
3384,55.0,0,48,3.0,0.0
3385,64.0,112,48,2.0,0.0
3386,76.0,0,192,1.0,0.0
3387,55.0,48,192,3.0,0.0
3388,36.0,0,192,4.0,0.0
3389,70.0,144,48,2.0,0.0
3390,53.0,0,160,3.0,0.0
3391,58.0,112,48,2.0,0.0
3392,77.0,80,160,1.0,0.0
3393,38.0,0,160,4.0,0.0
3394,52.0,0,48,3.0,0.0
3395,40.0,192,48,4.0,0.0
3396,79.0,0,48,1.0,0.0
3397,70.0,0,48,2.0,0.0
3398,72.0,80,160,1.0,0.0
3399,69.0,0,48,2.0,0.0
3400,57.0,0,48,3.0,0.0
3401,41.0,112,48,4.0,0.0
3402,58.0,112,48,3.0,0.0
3403,43.0,0,48,4.0,0.0
3404,72.0,80,160,1.0,0.0
3405,67.0,0,48,2.0,0.0
3406,65.0,0,48,2.0,0.0
3407,60.0,0,48,3.0,0.0
3408,45.0,112,48,4.0,0.0
3409,72.0,192,160,1.0,0.0
3410,55.0,160,192,3.0,0.0
3411,58.0,32,160,2.0,0.0
3412,76.0,0,192,1.0,0.0
3413,36.0,0,192,4.0,0.0
3414,77.0,0,160,1.0,0.0
3415,70.0,0,160,2.0,0.0
3416,53.0,0,160,3.0,0.0
3417,38.0,80,160,4.0,0.0
3418,52.0,112,48,3.0,0.0
3419,79.0,0,48,1.0,0.0
3420,70.0,80,160,2.0,0.0
3421,40.0,0,48,4.0,0.0
3422,72.0,80,160,1.0,0.0
3423,57.0,112,48,3.0,0.0
3424,69.0,0,48,2.0,0.0
3425,41.0,0,48,4.0,0.0
3426,67.0,0,48,2.0,0.0
3427,43.0,112,48,4.0,0.0
3428,72.0,80,160,1.0,0.0
3429,58.0,0,48,3.0,0.0
3430,72.0,192,160,1.0,0.0
3431,45.0,112,48,4.0,0.0
3432,60.0,0,48,3.0,0.0
3433,65.0,0,48,2.0,0.0
3434,76.0,0,192,1.0,0.0
3435,55.0,160,192,3.0,0.0
3436,58.0,32,160,2.0,0.0
3437,36.0,0,192,4.0,0.0
3438,53.0,0,160,3.0,0.0
3439,77.0,80,160,1.0,0.0
3440,38.0,0,160,4.0,0.0
3441,70.0,0,160,2.0,0.0
3442,52.0,0,48,3.0,0.0
3443,70.0,80,160,2.0,0.0
3444,79.0,0,48,1.0,0.0
3445,40.0,112,48,4.0,0.0
3446,69.0,0,48,2.0,0.0
3447,57.0,0,48,3.0,0.0
3448,72.0,80,160,1.0,0.0
3449,41.0,112,48,4.0,0.0
3450,72.0,80,160,1.0,0.0
3451,67.0,0,48,2.0,0.0
3452,58.0,112,48,3.0,0.0
3453,43.0,0,48,4.0,0.0
3454,72.0,192,160,1.0,0.0
3455,60.0,0,48,3.0,0.0
3456,45.0,0,48,4.0,0.0
3457,65.0,112,48,2.0,0.0
3458,55.0,0,192,3.0,0.0
3459,76.0,160,192,1.0,0.0
3460,58.0,32,160,2.0,0.0
3461,36.0,0,192,4.0,0.0
3462,70.0,0,160,2.0,0.0
3463,53.0,0,160,3.0,0.0
3464,38.0,0,160,4.0,0.0
3465,77.0,80,160,1.0,0.0
3466,40.0,0,48,4.0,0.0
3467,52.0,0,48,3.0,0.0
3468,79.0,112,48,1.0,0.0
3469,70.0,192,160,2.0,0.0
3470,72.0,0,160,1.0,0.0
3471,53.0,0,160,3.0,0.0
3472,69.0,0,160,2.0,0.0
3473,41.0,368,160,4.0,0.0
3474,63.0,0,336,1.0,0.0
3475,39.0,0,336,4.0,0.0
3476,51.0,576,336,3.0,0.0
3477,51.0,0,336,3.0,0.0
3478,39.0,384,336,4.0,0.0
3479,51.0,0,336,3.0,0.0
3480,39.0,208,336,4.0,0.0
3481,39.0,0,160,4.0,0.0
3482,51.0,560,160,3.0,0.0
3483,51.0,384,336,3.0,0.0
3484,39.0,0,336,4.0,0.0
3485,63.0,0,336,1.0,0.0
3486,63.0,208,336,1.0,0.0
3487,51.0,0,336,3.0,0.0
3488,39.0,0,336,4.0,0.0
3489,63.0,0,160,1.0,0.0
3490,39.0,0,160,4.0,0.0
3491,51.0,560,160,3.0,0.0
3492,63.0,0,336,1.0,0.0
3493,51.0,0,336,3.0,0.0
3494,39.0,576,336,4.0,0.0
3495,63.0,0,336,1.0,0.0
3496,51.0,0,336,3.0,0.0
3497,39.0,576,336,4.0,0.0
3498,52.0,0,336,3.0,0.0
3499,40.0,576,336,4.0,0.0
3500,64.0,0,336,1.0,0.0
3501,52.0,0,336,3.0,0.0
3502,36.0,240,720,4.0,0.0
3503,64.0,208,336,1.0,0.0
3504,53.0,176,160,3.0,0.0
3505,69.0,176,544,1.0,0.0
3506,48.0,0,544,3.0,0.0
3507,36.0,48,528,4.0,0.0
3508,65.0,192,576,2.0,0.0
3509,57.0,160,192,3.0,0.0
3510,59.0,0,160,3.0,0.0
3511,48.0,0,544,3.0,0.0
3512,67.0,0,544,1.0,0.0
3513,60.0,160,192,3.0,0.0
3514,64.0,0,192,2.0,0.0
3515,36.0,48,528,4.0,0.0
3516,62.0,176,160,3.0,0.0
3517,57.0,192,384,2.0,0.0
3518,65.0,176,544,1.0,0.0
3519,48.0,0,544,3.0,0.0
3520,60.0,0,192,3.0,0.0
3521,56.0,160,192,2.0,0.0
3522,36.0,48,528,4.0,0.0
3523,62.0,192,384,2.0,0.0
3524,59.0,0,160,3.0,0.0
3525,48.0,0,192,3.0,0.0
3526,67.0,0,544,1.0,0.0
3527,58.0,160,192,3.0,0.0
3528,49.0,0,192,3.0,0.0
3529,36.0,48,528,4.0,0.0
3530,64.0,0,352,2.0,0.0
3531,57.0,0,160,3.0,0.0
3532,48.0,176,160,3.0,0.0
3533,48.0,0,544,3.0,0.0
3534,57.0,192,192,2.0,0.0
3535,69.0,176,544,1.0,0.0
3536,65.0,0,352,2.0,0.0
3537,57.0,160,192,3.0,0.0
3538,36.0,48,528,4.0,0.0
3539,59.0,0,160,3.0,0.0
3540,48.0,80,544,3.0,0.0
3541,65.0,160,192,2.0,0.0
3542,67.0,112,432,1.0,0.0
3543,60.0,48,192,3.0,0.0
3544,36.0,0,528,4.0,0.0
3545,64.0,32,160,2.0,0.0
3546,59.0,0,160,3.0,0.0
3547,56.0,16,336,2.0,0.0
3548,65.0,96,48,1.0,0.0
3549,62.0,80,160,2.0,0.0
3550,48.0,0,544,3.0,0.0
3551,36.0,80,352,4.0,0.0
3552,67.0,112,48,1.0,0.0
3553,55.0,32,160,2.0,0.0
3554,58.0,160,192,3.0,0.0
3555,64.0,0,160,2.0,0.0
3556,57.0,0,160,2.0,0.0
3557,65.0,0,160,1.0,0.0
3558,53.0,384,48,3.0,0.0
3559,41.0,0,48,4.0,0.0
3560,55.0,272,352,3.0,0.0
3561,43.0,0,352,4.0,0.0
3562,77.0,0,48,1.0,0.0
3563,65.0,112,48,2.0,0.0
3564,57.0,384,544,3.0,0.0
3565,45.0,0,544,4.0,0.0
3566,81.0,192,48,1.0,0.0
3567,69.0,0,48,2.0,0.0
3568,82.0,0,48,1.0,0.0
3569,70.0,112,48,2.0,0.0
3570,55.0,384,544,3.0,0.0
3571,43.0,0,544,4.0,0.0
3572,84.0,0,160,1.0,0.0
3573,72.0,192,160,2.0,0.0
3574,74.0,0,160,2.0,0.0
3575,86.0,0,160,1.0,0.0
3576,41.0,384,544,4.0,0.0
3577,53.0,0,544,3.0,0.0
3578,72.0,0,160,2.0,0.0
3579,84.0,192,160,1.0,0.0
3580,70.0,0,160,2.0,0.0
3581,82.0,0,160,1.0,0.0
3582,43.0,0,544,4.0,0.0
3583,55.0,0,544,3.0,0.0
3584,79.0,192,160,1.0,0.0
3585,67.0,0,160,2.0,0.0
3586,65.0,0,160,2.0,0.0
3587,77.0,384,160,1.0,0.0
3588,57.0,0,544,3.0,0.0
3589,45.0,0,544,4.0,0.0
3590,81.0,0,160,1.0,0.0
3591,69.0,192,160,2.0,0.0
3592,70.0,384,160,2.0,0.0
3593,82.0,0,160,1.0,0.0
3594,55.0,0,544,3.0,0.0
3595,43.0,0,544,4.0,0.0
3596,72.0,192,160,2.0,0.0
3597,84.0,0,160,1.0,0.0
3598,86.0,0,160,1.0,0.0
3599,74.0,80,160,2.0,0.0
3600,53.0,0,48,3.0,0.0
3601,41.0,192,48,4.0,0.0
3602,55.0,112,48,3.0,0.0
3603,84.0,80,160,1.0,0.0
3604,64.0,0,160,2.0,0.0
3605,72.0,0,160,2.0,0.0
3606,43.0,0,48,4.0,0.0
3607,72.0,0,48,2.0,0.0
3608,53.0,0,48,3.0,0.0
3609,84.0,192,48,1.0,0.0
3610,69.0,0,48,2.0,0.0
3611,41.0,0,48,4.0,0.0
3612,84.0,0,48,1.0,0.0
3613,57.0,0,48,3.0,0.0
3614,72.0,192,48,2.0,0.0
3615,53.0,0,48,3.0,0.0
3616,87.0,192,48,1.0,0.0
3617,69.0,0,48,2.0,0.0
3618,58.0,0,48,3.0,0.0
3619,65.0,0,48,2.0,0.0
3620,86.0,192,48,1.0,0.0
3621,41.0,192,48,4.0,0.0
3622,43.0,192,48,4.0,0.0
3623,41.0,192,48,4.0,0.0
3624,65.0,0,48,2.0,0.0
3625,74.0,0,48,2.0,0.0
3626,88.0,0,48,1.0,0.0
3627,58.0,192,48,3.0,0.0
3628,58.0,192,48,3.0,0.0
3629,65.0,0,48,2.0,0.0
3630,74.0,0,48,2.0,0.0
3631,89.0,0,48,1.0,0.0
3632,69.0,80,160,2.0,0.0
3633,84.0,112,48,1.0,0.0
3634,65.0,0,160,3.0,0.0
3635,41.0,112,48,4.0,0.0
3636,65.0,80,160,3.0,0.0
3637,77.0,0,160,2.0,0.0
3638,39.0,112,48,4.0,0.0
3639,79.0,80,160,2.0,0.0
3640,67.0,0,160,3.0,0.0
3641,78.0,0,160,2.0,0.0
3642,38.0,112,48,4.0,0.0
3643,66.0,80,160,3.0,0.0
3644,67.0,0,160,3.0,0.0
3645,40.0,112,48,4.0,0.0
3646,86.0,0,160,1.0,0.0
3647,82.0,80,160,2.0,0.0
3648,84.0,0,160,1.0,0.0
3649,69.0,0,160,3.0,0.0
3650,42.0,112,48,4.0,0.0
3651,81.0,80,160,2.0,0.0
3652,43.0,80,160,4.0,0.0
3653,81.0,0,48,2.0,0.0
3654,84.0,112,48,1.0,0.0
3655,62.0,0,160,3.0,0.0
3656,82.0,0,48,1.0,0.0
3657,43.0,80,160,4.0,0.0
3658,79.0,112,48,2.0,0.0
3659,64.0,0,160,3.0,0.0
3660,60.0,0,160,3.0,0.0
3661,77.0,112,48,2.0,0.0
3662,45.0,192,160,4.0,0.0
3663,81.0,0,48,1.0,0.0
3664,62.0,0,192,3.0,0.0
3665,81.0,0,192,1.0,0.0
3666,46.0,32,160,4.0,0.0
3667,77.0,160,192,2.0,0.0
3668,82.0,0,160,1.0,0.0
3669,46.0,0,160,4.0,0.0
3670,74.0,0,160,2.0,0.0
3671,55.0,80,160,3.0,0.0
3672,70.0,0,48,2.0,0.0
3673,76.0,0,48,2.0,0.0
3674,79.0,0,48,1.0,0.0
3675,48.0,80,160,4.0,0.0
3676,60.0,112,48,3.0,0.0
3677,81.0,0,48,1.0,0.0
3678,60.0,0,160,3.0,0.0
3679,41.0,80,160,4.0,0.0
3680,69.0,112,48,2.0,0.0
3681,65.0,192,48,2.0,0.0
3682,77.0,0,48,1.0,0.0
3683,67.0,304,48,2.0,0.0
3684,79.0,0,48,1.0,0.0
3685,65.0,0,160,2.0,0.0
3686,77.0,80,160,1.0,0.0
3687,57.0,192,48,3.0,0.0
3688,60.0,0,48,4.0,0.0
3689,60.0,0,48,3.0,0.0
3690,63.0,304,48,4.0,0.0
3691,58.0,192,160,3.0,0.0
3692,62.0,0,160,4.0,0.0
3693,77.0,192,160,1.0,0.0
3694,65.0,0,160,2.0,0.0
3695,79.0,0,160,1.0,0.0
3696,67.0,192,160,2.0,0.0
3697,77.0,192,160,1.0,0.0
3698,65.0,0,160,2.0,0.0
3699,58.0,0,160,3.0,0.0
3700,64.0,192,160,4.0,0.0
3701,65.0,0,160,4.0,0.0
3702,58.0,192,160,3.0,0.0
3703,60.0,0,160,4.0,0.0
3704,57.0,192,160,3.0,0.0
3705,77.0,0,160,1.0,0.0
3706,65.0,192,160,2.0,0.0
3707,79.0,0,160,1.0,0.0
3708,67.0,192,160,2.0,0.0
3709,77.0,0,160,1.0,0.0
3710,65.0,192,160,2.0,0.0
3711,66.0,0,160,2.0,0.0
3712,60.0,192,160,3.0,0.0
3713,63.0,0,160,4.0,0.0
3714,78.0,0,160,1.0,0.0
3715,67.0,0,160,2.0,0.0
3716,79.0,80,160,1.0,0.0
3717,58.0,0,160,3.0,0.0
3718,62.0,0,160,4.0,0.0
3719,67.0,80,160,2.0,0.0
3720,62.0,0,48,4.0,0.0
3721,58.0,112,48,3.0,0.0
3722,79.0,0,160,1.0,0.0
3723,79.0,80,160,1.0,0.0
3724,67.0,0,160,2.0,0.0
3725,60.0,112,48,4.0,0.0
3726,57.0,0,48,3.0,0.0
3727,55.0,112,48,3.0,0.0
3728,84.0,192,160,1.0,0.0
3729,72.0,0,160,2.0,0.0
3730,58.0,0,48,4.0,0.0
3731,53.0,160,192,3.0,0.0
3732,84.0,0,160,1.0,0.0
3733,72.0,32,160,2.0,0.0
3734,57.0,0,192,4.0,0.0
3735,58.0,0,160,4.0,0.0
3736,84.0,0,160,1.0,0.0
3737,55.0,0,160,3.0,0.0
3738,72.0,80,160,2.0,0.0
3739,55.0,0,48,4.0,0.0
3740,52.0,112,48,3.0,0.0
3741,84.0,0,160,1.0,0.0
3742,72.0,80,160,2.0,0.0
3743,72.0,192,48,2.0,0.0
3744,53.0,0,48,3.0,0.0
3745,57.0,0,48,4.0,0.0
3746,84.0,0,48,1.0,0.0
3747,82.0,0,48,1.0,0.0
3748,64.0,0,48,3.0,0.0
3749,60.0,0,48,2.0,0.0
3750,55.0,192,48,4.0,0.0
3751,65.0,0,48,3.0,0.0
3752,72.0,0,48,2.0,0.0
3753,57.0,0,48,4.0,0.0
3754,81.0,336,48,1.0,0.0
3755,72.0,0,192,2.0,0.0
3756,62.0,0,192,3.0,0.0
3757,58.0,160,192,4.0,0.0
3758,81.0,0,192,1.0,0.0
3759,46.0,0,160,4.0,0.0
3760,50.0,0,160,3.0,0.0
3761,82.0,80,160,1.0,0.0
3762,67.0,0,160,2.0,0.0
3763,74.0,0,160,2.0,0.0
3764,48.0,0,48,4.0,0.0
3765,64.0,0,48,2.0,0.0
3766,79.0,192,48,1.0,0.0
3767,52.0,0,48,3.0,0.0
3768,70.0,48,192,2.0,0.0
3769,79.0,0,192,1.0,0.0
3770,52.0,0,192,3.0,0.0
3771,48.0,144,48,4.0,0.0
3772,81.0,0,160,1.0,0.0
3773,36.0,112,48,4.0,0.0
3774,53.0,80,160,3.0,0.0
3775,69.0,0,160,2.0,0.0
3776,65.0,0,48,2.0,0.0
3777,69.0,0,48,2.0,0.0
3778,57.0,304,48,3.0,0.0
3779,36.0,0,48,4.0,0.0
3780,77.0,0,48,1.0,0.0
3781,58.0,0,192,3.0,0.0
3782,76.0,0,192,1.0,0.0
3783,67.0,160,192,2.0,0.0
3784,36.0,32,160,4.0,0.0
3785,57.0,0,160,3.0,0.0
3786,36.0,0,160,4.0,0.0
3787,77.0,0,160,1.0,0.0
3788,65.0,80,160,2.0,0.0
3789,55.0,0,48,3.0,0.0
3790,79.0,0,48,1.0,0.0
3791,64.0,112,48,2.0,0.0
3792,36.0,80,160,4.0,0.0
3793,55.0,0,192,3.0,0.0
3794,76.0,0,192,1.0,0.0
3795,36.0,48,192,4.0,0.0
3796,70.0,144,48,2.0,0.0
3797,53.0,80,160,3.0,0.0
3798,77.0,0,160,1.0,0.0
3799,38.0,0,160,4.0,0.0
3800,58.0,112,48,2.0,0.0
3801,40.0,192,48,4.0,0.0
3802,52.0,0,48,3.0,0.0
3803,79.0,0,48,1.0,0.0
3804,70.0,0,48,2.0,0.0
3805,72.0,80,160,1.0,0.0
3806,57.0,0,48,3.0,0.0
3807,41.0,0,48,4.0,0.0
3808,69.0,112,48,2.0,0.0
3809,43.0,0,48,4.0,0.0
3810,72.0,80,160,1.0,0.0
3811,67.0,0,48,2.0,0.0
3812,58.0,112,48,3.0,0.0
3813,65.0,0,48,2.0,0.0
3814,45.0,0,48,4.0,0.0
3815,72.0,192,160,1.0,0.0
3816,60.0,112,48,3.0,0.0
3817,36.0,0,192,4.0,0.0
3818,55.0,0,192,3.0,0.0
3819,76.0,160,192,1.0,0.0
3820,58.0,32,160,2.0,0.0
3821,53.0,0,160,3.0,0.0
3822,70.0,80,160,2.0,0.0
3823,38.0,0,160,4.0,0.0
3824,77.0,0,160,1.0,0.0
3825,40.0,0,48,4.0,0.0
3826,52.0,0,48,3.0,0.0
3827,79.0,112,48,1.0,0.0
3828,70.0,80,160,2.0,0.0
3829,69.0,0,48,2.0,0.0
3830,41.0,0,48,4.0,0.0
3831,72.0,80,160,1.0,0.0
3832,57.0,112,48,3.0,0.0
3833,43.0,0,48,4.0,0.0
3834,72.0,80,160,1.0,0.0
3835,58.0,0,48,3.0,0.0
3836,67.0,112,48,2.0,0.0
3837,60.0,0,48,3.0,0.0
3838,72.0,192,160,1.0,0.0
3839,65.0,112,48,2.0,0.0
3840,45.0,0,48,4.0,0.0
3841,58.0,32,160,2.0,0.0
3842,76.0,160,192,1.0,0.0
3843,55.0,0,192,3.0,0.0
3844,36.0,0,192,4.0,0.0
3845,77.0,0,160,1.0,0.0
3846,70.0,80,160,2.0,0.0
3847,53.0,0,160,3.0,0.0
3848,38.0,0,160,4.0,0.0
3849,40.0,0,48,4.0,0.0
3850,70.0,80,160,2.0,0.0
3851,79.0,0,48,1.0,0.0
3852,52.0,112,48,3.0,0.0
3853,41.0,0,48,4.0,0.0
3854,69.0,0,48,2.0,0.0
3855,72.0,80,160,1.0,0.0
3856,57.0,112,48,3.0,0.0
3857,72.0,80,160,1.0,0.0
3858,67.0,0,48,2.0,0.0
3859,58.0,112,48,3.0,0.0
3860,43.0,0,48,4.0,0.0
3861,72.0,192,160,1.0,0.0
3862,45.0,0,48,4.0,0.0
3863,60.0,112,48,3.0,0.0
3864,65.0,0,48,2.0,0.0
3865,76.0,160,192,1.0,0.0
3866,55.0,0,192,3.0,0.0
3867,36.0,0,192,4.0,0.0
3868,58.0,32,160,2.0,0.0
3869,38.0,0,160,4.0,0.0
3870,53.0,80,160,3.0,0.0
3871,77.0,0,160,1.0,0.0
3872,70.0,0,160,2.0,0.0
3873,40.0,0,48,4.0,0.0
3874,70.0,192,160,2.0,0.0
3875,79.0,0,48,1.0,0.0
3876,52.0,112,48,3.0,0.0
3877,53.0,0,160,3.0,0.0
3878,72.0,0,160,1.0,0.0
3879,69.0,0,160,2.0,0.0
3880,41.0,368,160,4.0,0.0
3881,48.0,0,336,3.0,0.0
3882,60.0,576,336,3.0,0.0
3883,57.0,0,336,2.0,0.0
3884,45.0,0,336,4.0,0.0
3885,41.0,0,336,4.0,0.0
3886,41.0,0,336,4.0,0.0
3887,45.0,0,336,4.0,0.0
3888,48.0,384,336,3.0,0.0
3889,60.0,0,336,3.0,0.0
3890,57.0,0,336,2.0,0.0
3891,57.0,0,336,2.0,0.0
3892,41.0,0,336,4.0,0.0
3893,45.0,0,336,4.0,0.0
3894,48.0,0,336,3.0,0.0
3895,60.0,208,336,3.0,0.0
3896,45.0,560,160,4.0,0.0
3897,57.0,0,160,2.0,0.0
3898,41.0,0,160,4.0,0.0
3899,48.0,0,160,3.0,0.0
3900,60.0,0,160,3.0,0.0
3901,81.0,0,336,2.0,0.0
3902,72.0,0,336,2.0,0.0
3903,65.0,0,336,4.0,0.0
3904,69.0,384,336,3.0,0.0
3905,84.0,0,336,1.0,0.0
3906,81.0,0,336,2.0,0.0
3907,84.0,0,336,1.0,0.0
3908,69.0,208,336,3.0,0.0
3909,65.0,0,336,4.0,0.0
3910,72.0,0,336,2.0,0.0
3911,81.0,0,160,2.0,0.0
3912,72.0,560,160,2.0,0.0
3913,84.0,0,160,1.0,0.0
3914,65.0,0,160,4.0,0.0
3915,69.0,0,160,3.0,0.0
3916,65.0,0,336,4.0,0.0
3917,81.0,0,336,2.0,0.0
3918,72.0,0,336,2.0,0.0
3919,69.0,208,336,3.0,0.0
3920,84.0,0,336,1.0,0.0
3921,84.0,944,160,1.0,0.0
3922,72.0,0,160,2.0,0.0
3923,81.0,0,160,2.0,0.0
3924,69.0,0,160,3.0,0.0
3925,65.0,0,160,4.0,0.0
3926,70.0,0,720,1.0,0.0
