,note,step,duration,channel,velocity
0,62.0,2,345,10.0,0.0
1,74.0,1,360,0.0,0.0
2,62.0,14,345,11.0,0.0
3,62.0,1,360,4.0,0.0
4,74.0,0,360,1.0,0.0
5,62.0,0,360,2.0,0.0
6,74.0,3,360,6.0,0.0
7,62.0,0,360,6.0,0.0
8,74.0,0,360,2.0,0.0
9,62.0,3,60,12.0,0.0
10,50.0,45,360,5.0,0.0
11,50.0,1,60,3.0,0.0
12,50.0,2,60,13.0,0.0
13,50.0,55,120,15.0,0.0
14,38.0,59,60,14.0,0.0
15,64.0,3,60,12.0,0.0
16,52.0,1,60,3.0,0.0
17,52.0,2,60,13.0,0.0
18,40.0,114,60,14.0,0.0
19,66.0,3,60,12.0,0.0
20,54.0,1,60,3.0,0.0
21,54.0,2,60,13.0,0.0
22,42.0,33,60,14.0,0.0
23,78.0,120,51,10.0,0.0
24,79.0,120,51,10.0,0.0
25,81.0,135,51,10.0,0.0
26,55.0,2,345,10.0,0.0
27,64.0,0,345,10.0,0.0
28,74.0,1,360,0.0,0.0
29,76.0,0,360,0.0,0.0
30,62.0,14,345,11.0,0.0
31,59.0,0,345,11.0,0.0
32,62.0,0,360,4.0,0.0
33,76.0,1,360,1.0,0.0
34,74.0,0,360,1.0,0.0
35,64.0,0,360,2.0,0.0
36,76.0,0,360,2.0,0.0
37,62.0,0,360,6.0,0.0
38,74.0,3,360,6.0,0.0
39,50.0,45,360,5.0,0.0
40,55.0,3,60,12.0,0.0
41,55.0,1,60,3.0,0.0
42,55.0,2,60,13.0,0.0
43,50.0,55,120,15.0,0.0
44,43.0,59,60,14.0,0.0
45,57.0,3,60,12.0,0.0
46,57.0,1,60,3.0,0.0
47,57.0,2,60,13.0,0.0
48,45.0,114,60,14.0,0.0
49,59.0,3,60,12.0,0.0
50,59.0,1,60,3.0,0.0
51,59.0,2,60,13.0,0.0
52,47.0,33,60,14.0,0.0
53,79.0,120,51,10.0,0.0
54,81.0,120,51,10.0,0.0
55,83.0,131,51,10.0,0.0
56,64.0,4,60,4.0,0.0
57,57.0,116,60,5.0,0.0
58,66.0,4,60,4.0,0.0
59,62.0,116,60,5.0,0.0
60,67.0,4,60,4.0,0.0
61,64.0,105,60,5.0,0.0
62,76.0,2,51,10.0,0.0
63,69.0,118,51,11.0,0.0
64,78.0,2,51,10.0,0.0
65,74.0,118,51,11.0,0.0
66,79.0,2,51,10.0,0.0
67,76.0,129,51,11.0,0.0
68,74.0,0,60,1.0,0.0
69,78.0,0,60,1.0,0.0
70,66.0,4,60,4.0,0.0
71,62.0,116,60,5.0,0.0
72,69.0,0,60,1.0,0.0
73,76.0,0,60,1.0,0.0
74,64.0,4,60,4.0,0.0
75,57.0,116,60,5.0,0.0
76,74.0,0,60,1.0,0.0
77,62.0,4,60,4.0,0.0
78,66.0,0,60,1.0,0.0
79,54.0,114,60,5.0,0.0
80,86.0,1,60,10.0,0.0
81,78.0,1,60,0.0,0.0
82,86.0,0,60,0.0,0.0
83,69.0,0,60,11.0,0.0
84,78.0,1,60,11.0,0.0
85,66.0,0,60,2.0,0.0
86,74.0,3,60,6.0,0.0
87,74.0,0,60,2.0,0.0
88,62.0,0,60,6.0,0.0
89,62.0,3,60,12.0,0.0
90,62.0,0,60,3.0,0.0
91,50.0,1,60,3.0,0.0
92,50.0,1,60,13.0,0.0
93,50.0,1,60,15.0,0.0
94,38.0,108,60,14.0,0.0
95,85.0,1,60,10.0,0.0
96,79.0,1,60,0.0,0.0
97,85.0,0,60,0.0,0.0
98,79.0,0,60,11.0,0.0
99,69.0,1,60,11.0,0.0
100,69.0,0,60,6.0,0.0
101,67.0,0,60,2.0,0.0
102,76.0,3,60,2.0,0.0
103,57.0,0,60,6.0,0.0
104,57.0,3,60,12.0,0.0
105,45.0,0,60,3.0,0.0
106,57.0,1,60,3.0,0.0
107,45.0,1,60,13.0,0.0
108,45.0,1,60,15.0,0.0
109,33.0,108,60,14.0,0.0
110,86.0,1,60,10.0,0.0
111,86.0,0,60,0.0,0.0
112,78.0,1,60,0.0,0.0
113,78.0,1,60,11.0,0.0
114,69.0,0,60,11.0,0.0
115,74.0,0,60,6.0,0.0
116,66.0,0,60,2.0,0.0
117,74.0,3,60,2.0,0.0
118,62.0,0,60,6.0,0.0
119,62.0,3,60,12.0,0.0
120,50.0,1,60,3.0,0.0
121,62.0,0,60,3.0,0.0
122,50.0,1,60,13.0,0.0
123,50.0,1,60,15.0,0.0
124,38.0,114,60,14.0,0.0
125,62.0,2,345,10.0,0.0
126,74.0,1,360,0.0,0.0
127,62.0,14,345,11.0,0.0
128,62.0,0,360,4.0,0.0
129,74.0,1,360,1.0,0.0
130,62.0,0,360,6.0,0.0
131,62.0,3,360,2.0,0.0
132,74.0,0,360,6.0,0.0
133,74.0,0,360,2.0,0.0
134,62.0,3,60,12.0,0.0
135,50.0,45,360,5.0,0.0
136,50.0,1,60,3.0,0.0
137,50.0,2,60,13.0,0.0
138,50.0,55,120,15.0,0.0
139,38.0,59,60,14.0,0.0
140,64.0,3,60,12.0,0.0
141,52.0,1,60,3.0,0.0
142,52.0,2,60,13.0,0.0
143,40.0,114,60,14.0,0.0
144,66.0,3,60,12.0,0.0
145,54.0,1,60,3.0,0.0
146,54.0,2,60,13.0,0.0
147,42.0,33,60,14.0,0.0
148,78.0,120,51,10.0,0.0
149,79.0,120,51,10.0,0.0
150,81.0,135,51,10.0,0.0
151,64.0,2,345,10.0,0.0
152,74.0,0,360,0.0,0.0
153,76.0,1,360,0.0,0.0
154,76.0,0,360,1.0,0.0
155,62.0,14,345,11.0,0.0
156,74.0,0,360,1.0,0.0
157,62.0,1,360,4.0,0.0
158,74.0,0,360,2.0,0.0
159,74.0,0,360,6.0,0.0
160,62.0,0,360,6.0,0.0
161,64.0,3,360,2.0,0.0
162,50.0,45,360,5.0,0.0
163,56.0,3,60,12.0,0.0
164,56.0,1,60,3.0,0.0
165,56.0,2,60,13.0,0.0
166,50.0,55,120,15.0,0.0
167,44.0,59,60,14.0,0.0
168,57.0,3,60,12.0,0.0
169,57.0,1,60,3.0,0.0
170,57.0,2,60,13.0,0.0
171,45.0,114,60,14.0,0.0
172,59.0,3,60,12.0,0.0
173,59.0,1,60,3.0,0.0
174,59.0,2,60,13.0,0.0
175,47.0,33,60,14.0,0.0
176,83.0,120,51,10.0,0.0
177,85.0,120,51,10.0,0.0
178,86.0,122,51,10.0,0.0
179,73.0,0,60,1.0,0.0
180,69.0,111,60,1.0,0.0
181,61.0,4,51,11.0,0.0
182,57.0,5,51,12.0,0.0
183,71.0,111,60,1.0,0.0
184,74.0,0,60,1.0,0.0
185,62.0,4,51,11.0,0.0
186,59.0,5,51,12.0,0.0
187,76.0,109,60,1.0,0.0
188,73.0,0,60,1.0,0.0
189,64.0,4,51,11.0,0.0
190,61.0,5,51,12.0,0.0
191,83.0,2,51,10.0,0.0
192,76.0,118,51,11.0,0.0
193,85.0,2,51,10.0,0.0
194,81.0,118,51,11.0,0.0
195,86.0,2,51,10.0,0.0
196,83.0,128,51,11.0,0.0
197,85.0,1,60,0.0,0.0
198,81.0,0,60,1.0,0.0
199,64.0,0,60,4.0,0.0
200,73.0,7,60,1.0,0.0
201,57.0,112,60,3.0,0.0
202,83.0,1,60,0.0,0.0
203,80.0,7,60,1.0,0.0
204,71.0,0,60,1.0,0.0
205,64.0,0,60,4.0,0.0
206,52.0,112,60,3.0,0.0
207,81.0,1,60,0.0,0.0
208,81.0,0,60,1.0,0.0
209,73.0,0,60,1.0,0.0
210,64.0,7,60,4.0,0.0
211,57.0,111,60,3.0,0.0
212,81.0,1,60,10.0,0.0
213,88.0,0,60,0.0,0.0
214,85.0,1,60,0.0,0.0
215,64.0,0,60,4.0,0.0
216,64.0,0,60,11.0,0.0
217,73.0,1,60,11.0,0.0
218,76.0,0,60,6.0,0.0
219,73.0,0,60,2.0,0.0
220,69.0,3,60,2.0,0.0
221,64.0,3,60,5.0,0.0
222,57.0,0,60,3.0,0.0
223,45.0,1,60,3.0,0.0
224,57.0,1,60,13.0,0.0
225,45.0,1,60,15.0,0.0
226,45.0,108,60,14.0,0.0
227,80.0,1,60,10.0,0.0
228,88.0,1,60,0.0,0.0
229,83.0,0,60,0.0,0.0
230,74.0,0,60,11.0,0.0
231,64.0,1,60,11.0,0.0
232,64.0,0,60,4.0,0.0
233,71.0,0,60,2.0,0.0
234,68.0,3,60,2.0,0.0
235,76.0,0,60,6.0,0.0
236,64.0,3,60,5.0,0.0
237,52.0,1,60,3.0,0.0
238,40.0,0,60,3.0,0.0
239,52.0,1,60,13.0,0.0
240,45.0,1,60,15.0,0.0
241,40.0,108,60,14.0,0.0
242,81.0,1,60,10.0,0.0
243,88.0,0,60,0.0,0.0
244,85.0,1,60,0.0,0.0
245,64.0,1,60,4.0,0.0
246,73.0,0,60,11.0,0.0
247,64.0,0,60,11.0,0.0
248,73.0,3,60,2.0,0.0
249,69.0,0,60,2.0,0.0
250,76.0,0,60,6.0,0.0
251,64.0,3,60,5.0,0.0
252,57.0,0,60,3.0,0.0
253,45.0,1,60,3.0,0.0
254,57.0,1,60,13.0,0.0
255,45.0,1,60,15.0,0.0
256,45.0,114,60,14.0,0.0
257,62.0,2,345,10.0,0.0
258,74.0,1,360,0.0,0.0
259,62.0,14,345,11.0,0.0
260,74.0,0,360,1.0,0.0
261,62.0,1,360,4.0,0.0
262,74.0,3,360,2.0,0.0
263,62.0,0,360,6.0,0.0
264,74.0,0,360,6.0,0.0
265,62.0,0,360,2.0,0.0
266,50.0,45,360,5.0,0.0
267,62.0,3,60,12.0,0.0
268,50.0,1,60,3.0,0.0
269,50.0,2,60,13.0,0.0
270,50.0,55,120,15.0,0.0
271,38.0,59,60,14.0,0.0
272,64.0,3,60,12.0,0.0
273,52.0,1,60,3.0,0.0
274,52.0,2,60,13.0,0.0
275,40.0,114,60,14.0,0.0
276,66.0,3,60,12.0,0.0
277,54.0,1,60,3.0,0.0
278,54.0,2,60,13.0,0.0
279,42.0,33,60,14.0,0.0
280,78.0,120,51,10.0,0.0
281,79.0,120,51,10.0,0.0
282,81.0,135,51,10.0,0.0
283,55.0,2,345,10.0,0.0
284,64.0,0,345,10.0,0.0
285,74.0,1,360,0.0,0.0
286,76.0,0,360,0.0,0.0
287,74.0,0,360,1.0,0.0
288,76.0,0,360,1.0,0.0
289,62.0,14,345,11.0,0.0
290,59.0,0,345,11.0,0.0
291,62.0,1,360,4.0,0.0
292,62.0,0,360,6.0,0.0
293,64.0,3,360,2.0,0.0
294,74.0,0,360,6.0,0.0
295,76.0,0,360,2.0,0.0
296,50.0,45,360,5.0,0.0
297,55.0,3,60,12.0,0.0
298,55.0,1,60,3.0,0.0
299,55.0,2,60,13.0,0.0
300,50.0,55,120,15.0,0.0
301,43.0,59,60,14.0,0.0
302,57.0,3,60,12.0,0.0
303,57.0,1,60,3.0,0.0
304,57.0,2,60,13.0,0.0
305,45.0,114,60,14.0,0.0
306,59.0,3,60,12.0,0.0
307,59.0,1,60,3.0,0.0
308,59.0,2,60,13.0,0.0
309,47.0,33,60,14.0,0.0
310,79.0,120,51,10.0,0.0
311,81.0,120,51,10.0,0.0
312,83.0,131,51,10.0,0.0
313,64.0,4,60,4.0,0.0
314,57.0,116,60,5.0,0.0
315,66.0,4,60,4.0,0.0
316,62.0,116,60,5.0,0.0
317,67.0,4,60,4.0,0.0
318,64.0,105,60,5.0,0.0
319,76.0,2,51,10.0,0.0
320,69.0,118,51,11.0,0.0
321,78.0,2,51,10.0,0.0
322,74.0,118,51,11.0,0.0
323,79.0,2,51,10.0,0.0
324,76.0,129,51,11.0,0.0
325,74.0,4,60,1.0,0.0
326,66.0,0,60,4.0,0.0
327,78.0,0,60,1.0,0.0
328,62.0,116,60,5.0,0.0
329,69.0,4,60,1.0,0.0
330,76.0,0,60,1.0,0.0
331,64.0,0,60,4.0,0.0
332,57.0,116,60,5.0,0.0
333,66.0,0,60,1.0,0.0
334,74.0,0,60,1.0,0.0
335,62.0,4,60,4.0,0.0
336,54.0,114,60,5.0,0.0
337,86.0,1,60,10.0,0.0
338,86.0,1,60,0.0,0.0
339,78.0,0,60,0.0,0.0
340,78.0,0,60,11.0,0.0
341,69.0,1,60,11.0,0.0
342,74.0,0,60,6.0,0.0
343,62.0,0,60,6.0,0.0
344,66.0,0,60,2.0,0.0
345,74.0,3,60,2.0,0.0
346,62.0,3,60,12.0,0.0
347,50.0,0,60,3.0,0.0
348,62.0,1,60,3.0,0.0
349,50.0,1,60,13.0,0.0
350,50.0,1,60,15.0,0.0
351,38.0,108,60,14.0,0.0
352,85.0,1,60,10.0,0.0
353,85.0,1,60,0.0,0.0
354,79.0,0,60,0.0,0.0
355,69.0,0,60,11.0,0.0
356,79.0,1,60,11.0,0.0
357,76.0,0,60,2.0,0.0
358,67.0,0,60,2.0,0.0
359,57.0,3,60,6.0,0.0
360,69.0,0,60,6.0,0.0
361,57.0,3,60,12.0,0.0
362,45.0,0,60,3.0,0.0
363,57.0,1,60,3.0,0.0
364,45.0,1,60,13.0,0.0
365,45.0,1,60,15.0,0.0
366,33.0,108,60,14.0,0.0
367,86.0,1,60,10.0,0.0
368,86.0,1,60,0.0,0.0
369,78.0,0,60,0.0,0.0
370,69.0,0,60,11.0,0.0
371,78.0,1,60,11.0,0.0
372,66.0,0,60,2.0,0.0
373,74.0,0,60,2.0,0.0
374,74.0,3,60,6.0,0.0
375,62.0,0,60,6.0,0.0
376,62.0,3,60,12.0,0.0
377,50.0,0,60,3.0,0.0
378,62.0,1,60,3.0,0.0
379,50.0,1,60,13.0,0.0
380,50.0,1,60,15.0,0.0
381,38.0,114,60,14.0,0.0
382,62.0,2,345,10.0,0.0
383,74.0,1,360,0.0,0.0
384,62.0,1,360,4.0,0.0
385,62.0,14,345,11.0,0.0
386,74.0,0,360,1.0,0.0
387,62.0,0,360,2.0,0.0
388,62.0,0,360,6.0,0.0
389,74.0,3,360,6.0,0.0
390,74.0,0,360,2.0,0.0
391,62.0,3,60,12.0,0.0
392,50.0,45,360,5.0,0.0
393,50.0,1,60,3.0,0.0
394,50.0,2,60,13.0,0.0
395,50.0,55,120,15.0,0.0
396,38.0,59,60,14.0,0.0
397,64.0,3,60,12.0,0.0
398,52.0,1,60,3.0,0.0
399,52.0,2,60,13.0,0.0
400,40.0,114,60,14.0,0.0
401,66.0,3,60,12.0,0.0
402,54.0,1,60,3.0,0.0
403,54.0,2,60,13.0,0.0
404,42.0,33,60,14.0,0.0
405,78.0,120,51,10.0,0.0
406,79.0,120,51,10.0,0.0
407,81.0,135,51,10.0,0.0
408,64.0,2,345,10.0,0.0
409,74.0,1,360,0.0,0.0
410,76.0,0,360,0.0,0.0
411,76.0,0,360,1.0,0.0
412,62.0,1,360,4.0,0.0
413,62.0,14,345,11.0,0.0
414,74.0,0,360,1.0,0.0
415,62.0,0,360,6.0,0.0
416,64.0,3,360,2.0,0.0
417,74.0,0,360,2.0,0.0
418,74.0,0,360,6.0,0.0
419,56.0,3,60,12.0,0.0
420,50.0,45,360,5.0,0.0
421,56.0,1,60,3.0,0.0
422,56.0,2,60,13.0,0.0
423,50.0,55,120,15.0,0.0
424,44.0,59,60,14.0,0.0
425,57.0,3,60,12.0,0.0
426,57.0,1,60,3.0,0.0
427,57.0,2,60,13.0,0.0
428,45.0,114,60,14.0,0.0
429,59.0,3,60,12.0,0.0
430,59.0,1,60,3.0,0.0
431,59.0,2,60,13.0,0.0
432,47.0,33,60,14.0,0.0
433,83.0,120,51,10.0,0.0
434,85.0,120,51,10.0,0.0
435,86.0,122,51,10.0,0.0
436,69.0,0,60,1.0,0.0
437,73.0,111,60,1.0,0.0
438,61.0,4,51,11.0,0.0
439,57.0,5,51,12.0,0.0
440,71.0,111,60,1.0,0.0
441,74.0,0,60,1.0,0.0
442,62.0,4,51,11.0,0.0
443,59.0,5,51,12.0,0.0
444,73.0,109,60,1.0,0.0
445,64.0,4,51,11.0,0.0
446,76.0,0,60,1.0,0.0
447,61.0,5,51,12.0,0.0
448,83.0,2,51,10.0,0.0
449,76.0,118,51,11.0,0.0
450,85.0,2,51,10.0,0.0
451,81.0,118,51,11.0,0.0
452,86.0,2,51,10.0,0.0
453,83.0,128,51,11.0,0.0
454,85.0,1,60,0.0,0.0
455,64.0,0,60,4.0,0.0
456,73.0,0,60,1.0,0.0
457,81.0,7,60,1.0,0.0
458,57.0,112,60,3.0,0.0
459,83.0,1,60,0.0,0.0
460,71.0,0,60,1.0,0.0
461,64.0,7,60,4.0,0.0
462,80.0,0,60,1.0,0.0
463,52.0,112,60,3.0,0.0
464,81.0,1,60,0.0,0.0
465,64.0,0,60,4.0,0.0
466,81.0,0,60,1.0,0.0
467,73.0,7,60,1.0,0.0
468,57.0,111,60,3.0,0.0
469,81.0,1,60,10.0,0.0
470,88.0,1,60,0.0,0.0
471,85.0,0,60,0.0,0.0
472,73.0,0,60,11.0,0.0
473,64.0,1,60,11.0,0.0
474,64.0,0,60,4.0,0.0
475,69.0,3,60,2.0,0.0
476,73.0,0,60,2.0,0.0
477,76.0,0,60,6.0,0.0
478,64.0,3,60,5.0,0.0
479,45.0,0,60,3.0,0.0
480,57.0,1,60,3.0,0.0
481,57.0,1,60,13.0,0.0
482,45.0,1,60,15.0,0.0
483,45.0,108,60,14.0,0.0
484,80.0,1,60,10.0,0.0
485,88.0,1,60,0.0,0.0
486,83.0,0,60,0.0,0.0
487,64.0,1,60,11.0,0.0
488,74.0,0,60,11.0,0.0
489,64.0,0,60,4.0,0.0
490,68.0,3,60,2.0,0.0
491,76.0,0,60,6.0,0.0
492,71.0,0,60,2.0,0.0
493,64.0,3,60,5.0,0.0
494,52.0,1,60,3.0,0.0
495,40.0,0,60,3.0,0.0
496,52.0,1,60,13.0,0.0
497,45.0,1,60,15.0,0.0
498,40.0,108,60,14.0,0.0
499,81.0,1,60,10.0,0.0
500,85.0,0,60,0.0,0.0
501,88.0,1,60,0.0,0.0
502,73.0,1,60,11.0,0.0
503,64.0,0,60,4.0,0.0
504,64.0,0,60,11.0,0.0
505,73.0,0,60,2.0,0.0
506,69.0,0,60,2.0,0.0
507,76.0,3,60,6.0,0.0
508,64.0,3,60,5.0,0.0
509,57.0,0,60,3.0,0.0
510,45.0,1,60,3.0,0.0
511,57.0,1,60,13.0,0.0
512,45.0,1,60,15.0,0.0
513,45.0,110,60,14.0,0.0
514,69.0,71,340,10.0,0.0
515,61.0,4,60,11.0,0.0
516,57.0,4,60,12.0,0.0
517,57.0,2,60,13.0,0.0
518,45.0,110,60,14.0,0.0
519,62.0,4,60,11.0,0.0
520,59.0,4,60,12.0,0.0
521,59.0,2,60,13.0,0.0
522,47.0,110,60,14.0,0.0
523,64.0,4,60,11.0,0.0
524,61.0,4,60,12.0,0.0
525,61.0,2,60,13.0,0.0
526,49.0,28,60,14.0,0.0
527,77.0,71,51,10.0,0.0
528,65.0,4,120,11.0,0.0
529,62.0,4,120,12.0,0.0
530,62.0,2,120,13.0,0.0
531,50.0,39,120,14.0,0.0
532,76.0,120,51,10.0,0.0
533,77.0,131,51,10.0,0.0
534,65.0,71,340,10.0,0.0
535,57.0,4,60,11.0,0.0
536,53.0,4,60,12.0,0.0
537,53.0,2,60,13.0,0.0
538,41.0,110,60,14.0,0.0
539,58.0,4,60,11.0,0.0
540,55.0,4,60,12.0,0.0
541,55.0,2,60,13.0,0.0
542,43.0,110,60,14.0,0.0
543,60.0,4,60,11.0,0.0
544,57.0,4,60,12.0,0.0
545,57.0,2,60,13.0,0.0
546,45.0,28,60,14.0,0.0
547,74.0,71,51,10.0,0.0
548,62.0,4,120,11.0,0.0
549,58.0,4,120,12.0,0.0
550,58.0,2,120,13.0,0.0
551,46.0,39,120,14.0,0.0
552,73.0,120,51,10.0,0.0
553,74.0,129,51,10.0,0.0
554,58.0,2,60,10.0,0.0
555,58.0,4,60,11.0,0.0
556,62.0,0,60,11.0,0.0
557,53.0,4,60,12.0,0.0
558,46.0,2,60,13.0,0.0
559,34.0,508,60,14.0,0.0
560,77.0,80,460,10.0,0.0
561,58.0,0,580,11.0,0.0
562,62.0,18,580,11.0,0.0
563,53.0,4,700,12.0,0.0
564,46.0,2,700,13.0,0.0
565,34.0,8,700,14.0,0.0
566,74.0,42,60,10.0,0.0
567,70.0,60,60,10.0,0.0
568,69.0,42,60,10.0,0.0
569,63.0,0,100,11.0,0.0
570,60.0,4,100,11.0,0.0
571,72.0,60,60,10.0,0.0
572,75.0,42,60,10.0,0.0
573,60.0,0,100,11.0,0.0
574,63.0,4,100,11.0,0.0
575,53.0,4,100,12.0,0.0
576,46.0,2,100,13.0,0.0
577,34.0,8,100,14.0,0.0
578,74.0,60,60,10.0,0.0
579,72.0,40,60,10.0,0.0
580,60.0,0,100,11.0,0.0
581,63.0,4,100,11.0,0.0
582,53.0,4,100,12.0,0.0
583,46.0,2,100,13.0,0.0
584,34.0,68,100,14.0,0.0
585,70.0,2,40,10.0,0.0
586,69.0,42,60,10.0,0.0
587,60.0,4,100,11.0,0.0
588,63.0,0,100,11.0,0.0
589,53.0,4,100,12.0,0.0
590,46.0,2,100,13.0,0.0
591,34.0,8,100,14.0,0.0
592,67.0,60,60,10.0,0.0
593,65.0,42,60,10.0,0.0
594,63.0,0,100,11.0,0.0
595,60.0,4,100,11.0,0.0
596,53.0,4,100,12.0,0.0
597,46.0,2,100,13.0,0.0
598,34.0,8,100,14.0,0.0
599,63.0,60,60,10.0,0.0
600,62.0,40,60,10.0,0.0
601,81.0,8,120,0.0,0.0
602,60.0,0,100,11.0,0.0
603,63.0,4,100,11.0,0.0
604,53.0,4,100,12.0,0.0
605,57.0,51,120,3.0,0.0
606,46.0,2,100,13.0,0.0
607,34.0,9,100,14.0,0.0
608,60.0,2,40,10.0,0.0
609,58.0,1,60,10.0,0.0
610,82.0,1,60,0.0,0.0
611,58.0,0,60,11.0,0.0
612,74.0,0,60,1.0,0.0
613,70.0,4,60,1.0,0.0
614,62.0,0,60,11.0,0.0
615,53.0,3,60,12.0,0.0
616,58.0,1,60,3.0,0.0
617,46.0,2,60,13.0,0.0
618,34.0,508,60,14.0,0.0
619,77.0,11,460,10.0,0.0
620,89.0,8,470,0.0,0.0
621,58.0,0,580,11.0,0.0
622,62.0,9,580,11.0,0.0
623,70.0,0,590,1.0,0.0
624,74.0,7,590,1.0,0.0
625,53.0,4,700,12.0,0.0
626,65.0,61,470,3.0,0.0
627,46.0,2,700,13.0,0.0
628,34.0,8,700,14.0,0.0
629,74.0,1,60,10.0,0.0
630,86.0,8,60,0.0,0.0
631,62.0,31,60,3.0,0.0
632,70.0,2,40,10.0,0.0
633,82.0,1,50,0.0,0.0
634,58.0,61,50,3.0,0.0
635,69.0,1,60,10.0,0.0
636,81.0,41,60,0.0,0.0
637,75.0,0,710,1.0,0.0
638,72.0,7,710,1.0,0.0
639,63.0,0,100,11.0,0.0
640,60.0,4,100,11.0,0.0
641,57.0,51,120,3.0,0.0
642,72.0,1,60,10.0,0.0
643,84.0,8,60,0.0,0.0
644,75.0,1,60,10.0,0.0
645,87.0,41,60,0.0,0.0
646,63.0,0,100,11.0,0.0
647,60.0,4,100,11.0,0.0
648,53.0,4,100,12.0,0.0
649,46.0,2,100,13.0,0.0
650,34.0,8,100,14.0,0.0
651,74.0,1,60,10.0,0.0
652,86.0,59,60,0.0,0.0
653,72.0,1,60,10.0,0.0
654,84.0,41,60,0.0,0.0
655,60.0,0,100,11.0,0.0
656,63.0,4,100,11.0,0.0
657,53.0,4,100,12.0,0.0
658,46.0,2,100,13.0,0.0
659,34.0,8,100,14.0,0.0
660,70.0,1,60,10.0,0.0
661,82.0,59,60,0.0,0.0
662,69.0,1,60,10.0,0.0
663,81.0,41,60,0.0,0.0
664,63.0,4,100,11.0,0.0
665,60.0,0,100,11.0,0.0
666,53.0,4,100,12.0,0.0
667,46.0,2,100,13.0,0.0
668,34.0,8,100,14.0,0.0
669,67.0,1,60,10.0,0.0
670,79.0,59,60,0.0,0.0
671,65.0,1,60,10.0,0.0
672,77.0,41,60,0.0,0.0
673,60.0,4,100,11.0,0.0
674,63.0,0,100,11.0,0.0
675,53.0,4,100,12.0,0.0
676,53.0,1,110,3.0,0.0
677,46.0,2,100,13.0,0.0
678,34.0,7,100,14.0,0.0
679,63.0,1,60,10.0,0.0
680,75.0,59,60,0.0,0.0
681,62.0,1,60,10.0,0.0
682,74.0,39,60,0.0,0.0
683,63.0,0,100,11.0,0.0
684,60.0,4,100,11.0,0.0
685,53.0,4,100,12.0,0.0
686,53.0,61,110,3.0,0.0
687,46.0,1,100,13.0,0.0
688,34.0,0,100,14.0,0.0
689,60.0,2,40,10.0,0.0
690,72.0,1,50,0.0,0.0
691,58.0,2,60,10.0,0.0
692,70.0,1,120,0.0,0.0
693,62.0,0,60,11.0,0.0
694,58.0,4,60,11.0,0.0
695,70.0,7,120,1.0,0.0
696,74.0,0,120,1.0,0.0
697,53.0,55,60,12.0,0.0
698,58.0,1,120,3.0,0.0
699,46.0,2,120,13.0,0.0
700,34.0,48,120,14.0,0.0
701,74.0,60,60,10.0,0.0
702,62.0,4,120,11.0,0.0
703,58.0,54,120,12.0,0.0
704,73.0,2,60,10.0,0.0
705,74.0,40,60,10.0,0.0
706,65.0,4,120,11.0,0.0
707,62.0,54,120,12.0,0.0
708,76.0,22,40,10.0,0.0
709,77.0,69,60,10.0,0.0
710,57.0,1,120,3.0,0.0
711,45.0,2,120,13.0,0.0
712,33.0,48,120,14.0,0.0
713,74.0,60,60,10.0,0.0
714,62.0,4,120,11.0,0.0
715,57.0,54,120,12.0,0.0
716,73.0,2,60,10.0,0.0
717,74.0,40,60,10.0,0.0
718,65.0,4,120,11.0,0.0
719,62.0,54,120,12.0,0.0
720,76.0,22,40,10.0,0.0
721,77.0,69,60,10.0,0.0
722,56.0,1,120,3.0,0.0
723,44.0,2,120,13.0,0.0
724,32.0,48,120,14.0,0.0
725,74.0,60,60,10.0,0.0
726,62.0,4,120,11.0,0.0
727,59.0,54,120,12.0,0.0
728,73.0,2,60,10.0,0.0
729,74.0,40,60,10.0,0.0
730,62.0,54,120,12.0,0.0
731,76.0,22,40,10.0,0.0
732,77.0,2,60,10.0,0.0
733,65.0,4,0,11.0,0.0
734,56.0,0,60,12.0,0.0
735,59.0,63,60,12.0,0.0
736,56.0,1,120,3.0,0.0
737,56.0,2,120,13.0,0.0
738,44.0,48,120,14.0,0.0
739,79.0,2,60,10.0,0.0
740,65.0,4,60,11.0,0.0
741,56.0,54,60,12.0,0.0
742,59.0,0,60,12.0,0.0
743,77.0,60,60,10.0,0.0
744,76.0,2,60,10.0,0.0
745,65.0,4,60,11.0,0.0
746,59.0,34,60,12.0,0.0
747,56.0,0,60,12.0,0.0
748,74.0,80,40,10.0,0.0
749,73.0,10,60,10.0,0.0
750,64.0,4,120,11.0,0.0
751,57.0,3,120,12.0,0.0
752,61.0,0,120,12.0,0.0
753,57.0,51,120,3.0,0.0
754,57.0,52,60,13.0,0.0
755,33.0,48,1560,14.0,0.0
756,74.0,60,60,10.0,0.0
757,73.0,60,60,10.0,0.0
758,71.0,40,60,10.0,0.0
759,49.0,4,120,12.0,0.0
760,49.0,50,120,13.0,0.0
761,69.0,26,40,10.0,0.0
762,77.0,66,60,10.0,0.0
763,50.0,4,120,12.0,0.0
764,50.0,50,120,13.0,0.0
765,79.0,60,60,10.0,0.0
766,53.0,4,120,12.0,0.0
767,53.0,50,120,13.0,0.0
768,77.0,6,60,10.0,0.0
769,76.0,40,60,10.0,0.0
770,56.0,4,100,12.0,0.0
771,56.0,70,100,13.0,0.0
772,74.0,6,40,10.0,0.0
773,73.0,6,60,10.0,0.0
774,57.0,4,60,12.0,0.0
775,57.0,110,60,13.0,0.0
776,74.0,60,60,10.0,0.0
777,73.0,60,60,10.0,0.0
778,71.0,40,60,10.0,0.0
779,61.0,4,120,11.0,0.0
780,49.0,4,120,12.0,0.0
781,49.0,50,120,13.0,0.0
782,69.0,22,40,10.0,0.0
783,77.0,62,60,10.0,0.0
784,62.0,4,120,11.0,0.0
785,50.0,4,120,12.0,0.0
786,50.0,50,120,13.0,0.0
787,79.0,60,60,10.0,0.0
788,65.0,4,120,11.0,0.0
789,53.0,4,120,12.0,0.0
790,53.0,50,120,13.0,0.0
791,77.0,2,60,10.0,0.0
792,76.0,40,60,10.0,0.0
793,68.0,4,100,11.0,0.0
794,56.0,4,100,12.0,0.0
795,56.0,70,100,13.0,0.0
796,74.0,2,40,10.0,0.0
797,73.0,2,60,10.0,0.0
798,69.0,4,60,11.0,0.0
799,57.0,4,60,12.0,0.0
800,57.0,62,60,13.0,0.0
801,76.0,60,60,10.0,0.0
802,57.0,58,120,11.0,0.0
803,74.0,2,60,10.0,0.0
804,73.0,40,60,10.0,0.0
805,58.0,58,120,11.0,0.0
806,71.0,22,40,10.0,0.0
807,69.0,40,60,10.0,0.0
808,59.0,28,120,11.0,0.0
809,68.0,22,40,10.0,0.0
810,69.0,60,30,10.0,0.0
811,60.0,28,120,11.0,0.0
812,67.0,32,30,10.0,0.0
813,66.0,60,30,10.0,0.0
814,61.0,84,100,11.0,0.0
815,64.0,12,30,10.0,0.0
816,62.0,2,340,10.0,0.0
817,74.0,1,350,0.0,0.0
818,74.0,1,350,1.0,0.0
819,62.0,9,340,11.0,0.0
820,62.0,1,360,4.0,0.0
821,74.0,0,350,2.0,0.0
822,62.0,0,360,6.0,0.0
823,74.0,3,360,6.0,0.0
824,62.0,9,350,2.0,0.0
825,50.0,45,360,5.0,0.0
826,62.0,3,60,12.0,0.0
827,50.0,1,60,3.0,0.0
828,50.0,2,60,13.0,0.0
829,50.0,55,120,15.0,0.0
830,38.0,59,60,14.0,0.0
831,64.0,3,60,12.0,0.0
832,52.0,1,60,3.0,0.0
833,52.0,2,60,13.0,0.0
834,40.0,114,60,14.0,0.0
835,66.0,3,60,12.0,0.0
836,54.0,1,60,3.0,0.0
837,54.0,2,60,13.0,0.0
838,42.0,28,60,14.0,0.0
839,78.0,120,51,10.0,0.0
840,79.0,120,51,10.0,0.0
841,81.0,135,51,10.0,0.0
842,64.0,2,340,10.0,0.0
843,55.0,0,340,10.0,0.0
844,76.0,1,350,0.0,0.0
845,74.0,0,350,0.0,0.0
846,76.0,1,350,1.0,0.0
847,74.0,0,350,1.0,0.0
848,59.0,0,340,11.0,0.0
849,62.0,1,360,4.0,0.0
850,62.0,9,340,11.0,0.0
851,64.0,0,350,2.0,0.0
852,62.0,3,360,6.0,0.0
853,74.0,0,360,6.0,0.0
854,74.0,9,350,2.0,0.0
855,67.0,3,60,12.0,0.0
856,50.0,45,360,5.0,0.0
857,55.0,1,60,3.0,0.0
858,55.0,2,60,13.0,0.0
859,50.0,55,120,15.0,0.0
860,43.0,59,60,14.0,0.0
861,69.0,3,60,12.0,0.0
862,57.0,1,60,3.0,0.0
863,57.0,2,60,13.0,0.0
864,45.0,114,60,14.0,0.0
865,71.0,3,60,12.0,0.0
866,59.0,1,60,3.0,0.0
867,59.0,2,60,13.0,0.0
868,47.0,28,60,14.0,0.0
869,79.0,120,51,10.0,0.0
870,81.0,120,51,10.0,0.0
871,83.0,131,51,10.0,0.0
872,64.0,4,60,4.0,0.0
873,57.0,116,60,5.0,0.0
874,66.0,4,60,4.0,0.0
875,62.0,116,60,5.0,0.0
876,67.0,4,60,4.0,0.0
877,64.0,105,60,5.0,0.0
878,76.0,2,51,10.0,0.0
879,69.0,118,51,11.0,0.0
880,78.0,2,51,10.0,0.0
881,74.0,118,51,11.0,0.0
882,79.0,2,51,10.0,0.0
883,76.0,129,51,11.0,0.0
884,74.0,0,60,1.0,0.0
885,78.0,4,60,1.0,0.0
886,66.0,0,60,4.0,0.0
887,62.0,116,60,5.0,0.0
888,76.0,0,60,1.0,0.0
889,69.0,0,60,1.0,0.0
890,64.0,4,60,4.0,0.0
891,57.0,116,60,5.0,0.0
892,74.0,4,60,1.0,0.0
893,62.0,0,60,4.0,0.0
894,66.0,0,60,1.0,0.0
895,54.0,114,60,5.0,0.0
896,86.0,1,60,10.0,0.0
897,86.0,1,60,0.0,0.0
898,78.0,0,60,0.0,0.0
899,74.0,0,60,1.0,0.0
900,78.0,1,60,1.0,0.0
901,69.0,0,60,11.0,0.0
902,78.0,0,60,11.0,0.0
903,66.0,0,60,2.0,0.0
904,74.0,0,60,2.0,0.0
905,74.0,0,60,6.0,0.0
906,62.0,3,60,6.0,0.0
907,62.0,3,60,12.0,0.0
908,50.0,0,60,3.0,0.0
909,62.0,1,60,3.0,0.0
910,50.0,1,60,13.0,0.0
911,50.0,1,60,15.0,0.0
912,38.0,108,60,14.0,0.0
913,85.0,1,60,10.0,0.0
914,85.0,0,60,0.0,0.0
915,76.0,1,60,0.0,0.0
916,76.0,0,60,1.0,0.0
917,79.0,1,60,11.0,0.0
918,69.0,0,60,11.0,0.0
919,79.0,0,60,1.0,0.0
920,57.0,0,60,6.0,0.0
921,69.0,0,60,6.0,0.0
922,67.0,0,60,2.0,0.0
923,76.0,3,60,2.0,0.0
924,57.0,3,60,12.0,0.0
925,45.0,1,60,3.0,0.0
926,57.0,0,60,3.0,0.0
927,45.0,1,60,13.0,0.0
928,45.0,1,60,15.0,0.0
929,33.0,108,60,14.0,0.0
930,86.0,1,60,10.0,0.0
931,86.0,0,60,0.0,0.0
932,78.0,1,60,0.0,0.0
933,69.0,0,60,11.0,0.0
934,74.0,0,60,1.0,0.0
935,78.0,1,60,1.0,0.0
936,78.0,0,60,11.0,0.0
937,62.0,0,60,6.0,0.0
938,66.0,3,60,2.0,0.0
939,74.0,0,60,2.0,0.0
940,74.0,0,60,6.0,0.0
941,62.0,3,60,12.0,0.0
942,50.0,1,60,3.0,0.0
943,62.0,0,60,3.0,0.0
944,50.0,1,60,13.0,0.0
945,50.0,1,60,15.0,0.0
946,38.0,114,60,14.0,0.0
947,62.0,2,340,10.0,0.0
948,74.0,1,350,0.0,0.0
949,62.0,9,340,11.0,0.0
950,74.0,1,350,1.0,0.0
951,62.0,1,360,4.0,0.0
952,62.0,9,350,2.0,0.0
953,74.0,0,350,2.0,0.0
954,74.0,0,360,6.0,0.0
955,62.0,3,360,6.0,0.0
956,62.0,3,60,12.0,0.0
957,50.0,45,360,5.0,0.0
958,50.0,1,60,3.0,0.0
959,50.0,2,60,13.0,0.0
960,50.0,55,120,15.0,0.0
961,38.0,59,60,14.0,0.0
962,64.0,3,60,12.0,0.0
963,52.0,1,60,3.0,0.0
964,52.0,2,60,13.0,0.0
965,40.0,114,60,14.0,0.0
966,66.0,3,60,12.0,0.0
967,54.0,1,60,3.0,0.0
968,54.0,2,60,13.0,0.0
969,42.0,28,60,14.0,0.0
970,78.0,120,51,10.0,0.0
971,79.0,120,51,10.0,0.0
972,81.0,135,51,10.0,0.0
973,55.0,0,340,10.0,0.0
974,64.0,2,340,10.0,0.0
975,74.0,0,350,0.0,0.0
976,76.0,1,350,0.0,0.0
977,59.0,9,340,11.0,0.0
978,62.0,0,340,11.0,0.0
979,74.0,0,350,1.0,0.0
980,62.0,1,360,4.0,0.0
981,76.0,1,350,1.0,0.0
982,64.0,0,350,2.0,0.0
983,74.0,0,360,6.0,0.0
984,62.0,3,360,6.0,0.0
985,74.0,9,350,2.0,0.0
986,50.0,45,360,5.0,0.0
987,55.0,3,60,12.0,0.0
988,55.0,1,60,3.0,0.0
989,55.0,2,60,13.0,0.0
990,50.0,55,120,15.0,0.0
991,43.0,59,60,14.0,0.0
992,57.0,3,60,12.0,0.0
993,57.0,1,60,3.0,0.0
994,57.0,2,60,13.0,0.0
995,45.0,114,60,14.0,0.0
996,59.0,3,60,12.0,0.0
997,59.0,1,60,3.0,0.0
998,59.0,2,60,13.0,0.0
999,47.0,28,60,14.0,0.0
1000,79.0,120,51,10.0,0.0
1001,81.0,120,51,10.0,0.0
1002,83.0,120,51,10.0,0.0
1003,67.0,120,51,10.0,0.0
1004,69.0,120,51,10.0,0.0
1005,71.0,122,51,10.0,0.0
1006,64.0,120,51,11.0,0.0
1007,66.0,120,51,11.0,0.0
1008,67.0,118,51,11.0,0.0
1009,67.0,120,51,10.0,0.0
1010,69.0,120,51,10.0,0.0
1011,70.0,122,51,10.0,0.0
1012,64.0,120,51,11.0,0.0
1013,66.0,120,51,11.0,0.0
1014,67.0,118,51,11.0,0.0
1015,67.0,120,51,10.0,0.0
1016,69.0,120,51,10.0,0.0
1017,70.0,120,51,10.0,0.0
1018,67.0,2,51,10.0,0.0
1019,64.0,118,51,11.0,0.0
1020,69.0,2,51,10.0,0.0
1021,65.0,118,51,11.0,0.0
1022,70.0,2,51,10.0,0.0
1023,67.0,118,51,11.0,0.0
1024,67.0,2,51,10.0,0.0
1025,64.0,118,51,11.0,0.0
1026,69.0,2,51,10.0,0.0
1027,65.0,118,51,11.0,0.0
1028,70.0,2,51,10.0,0.0
1029,67.0,118,51,11.0,0.0
1030,67.0,2,51,10.0,0.0
1031,64.0,118,51,11.0,0.0
1032,69.0,2,51,10.0,0.0
1033,65.0,118,51,11.0,0.0
1034,70.0,2,51,10.0,0.0
1035,67.0,118,51,11.0,0.0
1036,67.0,2,51,10.0,0.0
1037,72.0,7,345,1.0,0.0
1038,64.0,73,51,11.0,0.0
1039,60.0,4,120,12.0,0.0
1040,60.0,68,345,3.0,0.0
1041,60.0,2,120,13.0,0.0
1042,48.0,39,120,14.0,0.0
1043,69.0,2,51,10.0,0.0
1044,65.0,118,51,11.0,0.0
1045,70.0,2,51,10.0,0.0
1046,67.0,54,51,11.0,0.0
1047,69.0,2,120,10.0,0.0
1048,77.0,7,60,1.0,0.0
1049,65.0,4,120,11.0,0.0
1050,53.0,4,120,12.0,0.0
1051,65.0,51,60,3.0,0.0
1052,53.0,2,120,13.0,0.0
1053,41.0,50,120,14.0,0.0
1054,76.0,7,60,1.0,0.0
1055,64.0,113,60,3.0,0.0
1056,77.0,7,60,1.0,0.0
1057,65.0,102,60,3.0,0.0
1058,64.0,2,51,10.0,0.0
1059,61.0,73,51,11.0,0.0
1060,69.0,7,345,1.0,0.0
1061,57.0,4,120,12.0,0.0
1062,57.0,68,345,3.0,0.0
1063,57.0,2,120,13.0,0.0
1064,45.0,39,120,14.0,0.0
1065,65.0,2,51,10.0,0.0
1066,62.0,118,51,11.0,0.0
1067,67.0,2,51,10.0,0.0
1068,64.0,54,51,11.0,0.0
1069,65.0,2,120,10.0,0.0
1070,62.0,4,120,11.0,0.0
1071,74.0,7,60,1.0,0.0
1072,50.0,4,120,12.0,0.0
1073,62.0,51,60,3.0,0.0
1074,50.0,2,120,13.0,0.0
1075,38.0,50,120,14.0,0.0
1076,73.0,7,60,1.0,0.0
1077,61.0,113,60,3.0,0.0
1078,74.0,7,60,1.0,0.0
1079,62.0,173,60,3.0,0.0
1080,62.0,4,120,11.0,0.0
1081,62.0,4,720,4.0,0.0
1082,74.0,2,705,2.0,0.0
1083,62.0,0,705,2.0,0.0
1084,50.0,100,720,5.0,0.0
1085,50.0,3,120,12.0,0.0
1086,46.0,0,705,3.0,0.0
1087,50.0,1,120,3.0,0.0
1088,50.0,112,120,13.0,0.0
1089,34.0,2,700,14.0,0.0
1090,64.0,4,120,11.0,0.0
1091,52.0,3,120,12.0,0.0
1092,52.0,1,120,3.0,0.0
1093,52.0,112,120,13.0,0.0
1094,65.0,4,120,11.0,0.0
1095,53.0,3,120,12.0,0.0
1096,53.0,1,120,3.0,0.0
1097,53.0,112,120,13.0,0.0
1098,66.0,4,120,11.0,0.0
1099,54.0,3,120,12.0,0.0
1100,54.0,1,120,3.0,0.0
1101,54.0,112,120,13.0,0.0
1102,67.0,4,120,11.0,0.0
1103,55.0,3,120,12.0,0.0
1104,55.0,1,120,3.0,0.0
1105,55.0,92,120,13.0,0.0
1106,68.0,4,100,11.0,0.0
1107,56.0,2,100,12.0,0.0
1108,56.0,8,105,3.0,0.0
1109,56.0,2,100,13.0,0.0
1110,81.0,2,120,10.0,0.0
1111,69.0,2,340,10.0,0.0
1112,69.0,9,120,11.0,0.0
1113,57.0,0,350,4.0,0.0
1114,57.0,1,350,6.0,0.0
1115,61.0,2,345,2.0,0.0
1116,69.0,0,350,6.0,0.0
1117,73.0,0,345,2.0,0.0
1118,45.0,64,350,5.0,0.0
1119,57.0,4,100,12.0,0.0
1120,57.0,6,105,3.0,0.0
1121,45.0,0,105,3.0,0.0
1122,57.0,2,100,13.0,0.0
1123,45.0,95,120,15.0,0.0
1124,33.0,2,100,14.0,0.0
1125,80.0,2,120,10.0,0.0
1126,68.0,98,120,11.0,0.0
1127,69.0,4,100,12.0,0.0
1128,57.0,6,105,3.0,0.0
1129,57.0,2,100,13.0,0.0
1130,45.0,2,100,14.0,0.0
1131,79.0,0,100,10.0,0.0
1132,67.0,4,100,11.0,0.0
1133,69.0,2,100,12.0,0.0
1134,57.0,2,105,3.0,0.0
1135,57.0,2,100,13.0,0.0
1136,45.0,1,100,14.0,0.0
1137,78.0,2,60,10.0,0.0
1138,62.0,1,120,4.0,0.0
1139,66.0,60,60,11.0,0.0
1140,74.0,0,120,6.0,0.0
1141,74.0,0,120,2.0,0.0
1142,62.0,3,120,2.0,0.0
1143,62.0,0,120,6.0,0.0
1144,50.0,3,120,5.0,0.0
1145,62.0,0,120,12.0,0.0
1146,50.0,1,120,3.0,0.0
1147,50.0,1,120,13.0,0.0
1148,50.0,1,120,15.0,0.0
1149,38.0,48,120,14.0,0.0
1150,76.0,2,60,10.0,0.0
1151,64.0,118,60,11.0,0.0
1152,74.0,2,60,10.0,0.0
1153,62.0,120,60,11.0,0.0
1154,72.0,7,340,10.0,0.0
1155,72.0,7,345,1.0,0.0
1156,67.0,4,60,11.0,0.0
1157,64.0,64,60,12.0,0.0
1158,60.0,66,345,3.0,0.0
1159,60.0,2,120,13.0,0.0
1160,48.0,50,120,14.0,0.0
1161,69.0,4,60,11.0,0.0
1162,65.0,116,60,12.0,0.0
1163,70.0,4,60,11.0,0.0
1164,67.0,34,60,12.0,0.0
1165,77.0,2,60,10.0,0.0
1166,77.0,7,60,1.0,0.0
1167,69.0,4,120,11.0,0.0
1168,65.0,4,120,12.0,0.0
1169,65.0,53,60,3.0,0.0
1170,53.0,2,120,13.0,0.0
1171,41.0,48,120,14.0,0.0
1172,76.0,2,60,10.0,0.0
1173,76.0,7,60,1.0,0.0
1174,64.0,111,60,3.0,0.0
1175,77.0,2,60,10.0,0.0
1176,77.0,7,60,1.0,0.0
1177,65.0,113,60,3.0,0.0
1178,69.0,6,340,10.0,0.0
1179,81.0,1,345,0.0,0.0
1180,69.0,7,345,1.0,0.0
1181,64.0,4,60,11.0,0.0
1182,61.0,64,60,12.0,0.0
1183,57.0,66,345,3.0,0.0
1184,57.0,2,120,13.0,0.0
1185,45.0,50,120,14.0,0.0
1186,65.0,4,60,11.0,0.0
1187,62.0,116,60,12.0,0.0
1188,67.0,4,60,11.0,0.0
1189,64.0,34,60,12.0,0.0
1190,74.0,1,60,10.0,0.0
1191,86.0,1,60,0.0,0.0
1192,74.0,7,60,1.0,0.0
1193,65.0,4,120,11.0,0.0
1194,62.0,4,120,12.0,0.0
1195,62.0,53,60,3.0,0.0
1196,50.0,2,120,13.0,0.0
1197,38.0,48,120,14.0,0.0
1198,73.0,1,60,10.0,0.0
1199,85.0,1,60,0.0,0.0
1200,73.0,7,60,1.0,0.0
1201,61.0,111,60,3.0,0.0
1202,74.0,1,60,10.0,0.0
1203,86.0,1,60,0.0,0.0
1204,74.0,7,60,1.0,0.0
1205,62.0,173,60,3.0,0.0
1206,62.0,4,720,4.0,0.0
1207,62.0,4,120,11.0,0.0
1208,62.0,0,705,2.0,0.0
1209,74.0,2,705,2.0,0.0
1210,50.0,100,720,5.0,0.0
1211,50.0,3,120,12.0,0.0
1212,46.0,0,705,3.0,0.0
1213,50.0,1,120,3.0,0.0
1214,50.0,112,120,13.0,0.0
1215,34.0,2,700,14.0,0.0
1216,64.0,4,120,11.0,0.0
1217,52.0,3,120,12.0,0.0
1218,52.0,1,120,3.0,0.0
1219,52.0,112,120,13.0,0.0
1220,65.0,4,120,11.0,0.0
1221,53.0,3,120,12.0,0.0
1222,53.0,1,120,3.0,0.0
1223,53.0,112,120,13.0,0.0
1224,66.0,4,120,11.0,0.0
1225,54.0,3,120,12.0,0.0
1226,54.0,1,120,3.0,0.0
1227,54.0,112,120,13.0,0.0
1228,67.0,4,120,11.0,0.0
1229,55.0,3,120,12.0,0.0
1230,55.0,1,120,3.0,0.0
1231,55.0,92,120,13.0,0.0
1232,68.0,4,100,11.0,0.0
1233,56.0,2,100,12.0,0.0
1234,56.0,8,105,3.0,0.0
1235,56.0,2,100,13.0,0.0
1236,69.0,2,340,10.0,0.0
1237,81.0,2,120,10.0,0.0
1238,69.0,9,120,11.0,0.0
1239,57.0,0,350,4.0,0.0
1240,57.0,1,350,6.0,0.0
1241,69.0,0,350,6.0,0.0
1242,61.0,0,345,2.0,0.0
1243,73.0,2,345,2.0,0.0
1244,57.0,4,100,12.0,0.0
1245,45.0,64,350,5.0,0.0
1246,57.0,6,105,3.0,0.0
1247,45.0,0,105,3.0,0.0
1248,57.0,2,100,13.0,0.0
1249,45.0,95,120,15.0,0.0
1250,33.0,2,100,14.0,0.0
1251,80.0,2,120,10.0,0.0
1252,68.0,98,120,11.0,0.0
1253,69.0,4,100,12.0,0.0
1254,57.0,6,105,3.0,0.0
1255,57.0,2,100,13.0,0.0
1256,45.0,2,100,14.0,0.0
1257,79.0,0,100,10.0,0.0
1258,67.0,4,100,11.0,0.0
1259,69.0,2,100,12.0,0.0
1260,57.0,2,105,3.0,0.0
1261,57.0,2,100,13.0,0.0
1262,45.0,1,100,14.0,0.0
1263,78.0,2,60,10.0,0.0
1264,66.0,60,60,11.0,0.0
1265,62.0,1,120,4.0,0.0
1266,74.0,3,120,6.0,0.0
1267,74.0,0,120,2.0,0.0
1268,62.0,0,120,6.0,0.0
1269,62.0,0,120,2.0,0.0
1270,62.0,0,120,12.0,0.0
1271,50.0,3,120,5.0,0.0
1272,62.0,1,120,3.0,0.0
1273,62.0,1,120,13.0,0.0
1274,50.0,1,120,15.0,0.0
1275,50.0,48,120,14.0,0.0
1276,76.0,2,60,10.0,0.0
1277,64.0,118,60,11.0,0.0
1278,74.0,2,60,10.0,0.0
1279,62.0,180,60,11.0,0.0
1280,62.0,4,720,4.0,0.0
1281,62.0,4,120,11.0,0.0
1282,62.0,0,705,2.0,0.0
1283,74.0,2,705,2.0,0.0
1284,50.0,100,720,5.0,0.0
1285,50.0,3,120,12.0,0.0
1286,46.0,8,705,3.0,0.0
1287,50.0,1,120,3.0,0.0
1288,50.0,112,120,13.0,0.0
1289,34.0,2,700,14.0,0.0
1290,64.0,4,120,11.0,0.0
1291,52.0,3,120,12.0,0.0
1292,52.0,1,120,3.0,0.0
1293,52.0,112,120,13.0,0.0
1294,65.0,4,120,11.0,0.0
1295,53.0,3,120,12.0,0.0
1296,53.0,1,120,3.0,0.0
1297,53.0,112,120,13.0,0.0
1298,66.0,4,120,11.0,0.0
1299,54.0,3,120,12.0,0.0
1300,54.0,1,120,3.0,0.0
1301,54.0,112,120,13.0,0.0
1302,67.0,4,120,11.0,0.0
1303,55.0,3,120,12.0,0.0
1304,55.0,1,120,3.0,0.0
1305,55.0,92,120,13.0,0.0
1306,68.0,4,100,11.0,0.0
1307,56.0,2,100,12.0,0.0
1308,56.0,0,105,3.0,0.0
1309,56.0,2,100,13.0,0.0
1310,81.0,2,120,10.0,0.0
1311,69.0,2,340,10.0,0.0
1312,69.0,9,120,11.0,0.0
1313,57.0,1,350,4.0,0.0
1314,69.0,1,350,6.0,0.0
1315,57.0,0,350,6.0,0.0
1316,61.0,2,345,2.0,0.0
1317,73.0,0,345,2.0,0.0
1318,57.0,4,100,12.0,0.0
1319,45.0,64,350,5.0,0.0
1320,45.0,6,105,3.0,0.0
1321,57.0,0,105,3.0,0.0
1322,57.0,2,100,13.0,0.0
1323,45.0,95,120,15.0,0.0
1324,33.0,2,100,14.0,0.0
1325,80.0,2,120,10.0,0.0
1326,68.0,98,120,11.0,0.0
1327,69.0,4,100,12.0,0.0
1328,57.0,6,105,3.0,0.0
1329,57.0,2,100,13.0,0.0
1330,45.0,2,100,14.0,0.0
1331,79.0,0,100,10.0,0.0
1332,67.0,4,100,11.0,0.0
1333,69.0,2,100,12.0,0.0
1334,57.0,2,105,3.0,0.0
1335,57.0,2,100,13.0,0.0
1336,45.0,0,100,14.0,0.0
1337,78.0,2,60,10.0,0.0
1338,66.0,50,60,11.0,0.0
1339,62.0,4,110,4.0,0.0
1340,74.0,0,120,6.0,0.0
1341,62.0,0,120,6.0,0.0
1342,74.0,0,120,2.0,0.0
1343,62.0,3,120,2.0,0.0
1344,74.0,3,120,12.0,0.0
1345,50.0,7,110,5.0,0.0
1346,62.0,1,120,3.0,0.0
1347,62.0,1,120,13.0,0.0
1348,50.0,1,120,15.0,0.0
1349,50.0,48,120,14.0,0.0
1350,74.0,2,60,10.0,0.0
1351,62.0,50,60,11.0,0.0
1352,66.0,4,110,4.0,0.0
1353,54.0,64,110,5.0,0.0
1354,78.0,2,60,10.0,0.0
1355,66.0,50,60,11.0,0.0
1356,62.0,4,110,4.0,0.0
1357,50.0,110,110,5.0,0.0
1358,81.0,2,120,10.0,0.0
1359,69.0,2,340,10.0,0.0
1360,85.0,0,345,0.0,0.0
1361,69.0,9,120,11.0,0.0
1362,57.0,1,350,4.0,0.0
1363,57.0,1,350,6.0,0.0
1364,73.0,2,345,2.0,0.0
1365,69.0,0,350,6.0,0.0
1366,57.0,4,100,12.0,0.0
1367,45.0,64,350,5.0,0.0
1368,61.0,0,345,3.0,0.0
1369,45.0,6,105,3.0,0.0
1370,45.0,2,100,13.0,0.0
1371,45.0,95,120,15.0,0.0
1372,33.0,2,100,14.0,0.0
1373,80.0,2,120,10.0,0.0
1374,68.0,98,120,11.0,0.0
1375,69.0,4,100,12.0,0.0
1376,57.0,6,105,3.0,0.0
1377,57.0,2,100,13.0,0.0
1378,45.0,2,100,14.0,0.0
1379,79.0,0,100,10.0,0.0
1380,67.0,4,100,11.0,0.0
1381,69.0,2,100,12.0,0.0
1382,57.0,2,105,3.0,0.0
1383,57.0,2,100,13.0,0.0
1384,45.0,0,100,14.0,0.0
1385,78.0,2,60,10.0,0.0
1386,86.0,2,120,0.0,0.0
1387,62.0,4,110,4.0,0.0
1388,66.0,50,60,11.0,0.0
1389,74.0,0,120,2.0,0.0
1390,62.0,3,120,6.0,0.0
1391,74.0,0,120,6.0,0.0
1392,50.0,5,110,5.0,0.0
1393,74.0,3,120,12.0,0.0
1394,62.0,0,120,3.0,0.0
1395,50.0,1,120,3.0,0.0
1396,62.0,1,120,13.0,0.0
1397,50.0,1,120,15.0,0.0
1398,50.0,48,120,14.0,0.0
1399,74.0,2,60,10.0,0.0
1400,66.0,4,110,4.0,0.0
1401,62.0,50,60,11.0,0.0
1402,54.0,64,110,5.0,0.0
1403,78.0,2,60,10.0,0.0
1404,66.0,50,60,11.0,0.0
1405,62.0,4,110,4.0,0.0
1406,50.0,69,110,5.0,0.0
1407,81.0,1,480,10.0,0.0
1408,69.0,0,700,10.0,0.0
1409,81.0,0,480,0.0,0.0
1410,85.0,1,480,0.0,0.0
1411,69.0,0,480,1.0,0.0
1412,57.0,4,470,4.0,0.0
1413,81.0,0,480,1.0,0.0
1414,61.0,3,120,11.0,0.0
1415,69.0,1,710,6.0,0.0
1416,57.0,0,710,6.0,0.0
1417,73.0,0,480,2.0,0.0
1418,69.0,2,480,2.0,0.0
1419,45.0,4,470,5.0,0.0
1420,57.0,4,120,12.0,0.0
1421,61.0,0,480,3.0,0.0
1422,57.0,1,480,3.0,0.0
1423,45.0,2,120,13.0,0.0
1424,45.0,57,54,15.0,0.0
1425,33.0,53,120,14.0,0.0
1426,45.0,1,54,15.0,0.0
1427,64.0,3,120,11.0,0.0
1428,61.0,4,120,12.0,0.0
1429,45.0,57,54,15.0,0.0
1430,45.0,1,54,15.0,0.0
1431,69.0,3,120,11.0,0.0
1432,64.0,4,120,12.0,0.0
1433,57.0,2,0,13.0,0.0
1434,45.0,57,54,15.0,0.0
1435,45.0,53,0,14.0,0.0
1436,45.0,1,54,15.0,0.0
1437,73.0,1,120,11.0,0.0
1438,69.0,3,120,12.0,0.0
1439,45.0,47,54,15.0,0.0
1440,45.0,53,120,14.0,0.0
1441,45.0,1,54,15.0,0.0
1442,80.0,1,120,10.0,0.0
1443,86.0,1,120,0.0,0.0
1444,83.0,0,120,0.0,0.0
1445,80.0,0,120,1.0,0.0
1446,68.0,1,120,1.0,0.0
1447,74.0,0,120,11.0,0.0
1448,64.0,4,110,4.0,0.0
1449,71.0,2,120,2.0,0.0
1450,74.0,0,120,2.0,0.0
1451,71.0,3,120,12.0,0.0
1452,57.0,4,110,5.0,0.0
1453,59.0,1,120,3.0,0.0
1454,62.0,0,120,3.0,0.0
1455,57.0,2,0,13.0,0.0
1456,45.0,47,54,15.0,0.0
1457,45.0,53,120,14.0,0.0
1458,45.0,1,54,15.0,0.0
1459,79.0,2,100,10.0,0.0
1460,85.0,0,105,0.0,0.0
1461,88.0,0,105,0.0,0.0
1462,76.0,4,100,11.0,0.0
1463,79.0,0,105,1.0,0.0
1464,64.0,0,110,4.0,0.0
1465,67.0,1,105,1.0,0.0
1466,76.0,0,105,2.0,0.0
1467,73.0,2,105,2.0,0.0
1468,57.0,9,110,5.0,0.0
1469,73.0,1,100,12.0,0.0
1470,64.0,0,105,3.0,0.0
1471,61.0,2,105,3.0,0.0
1472,57.0,2,0,13.0,0.0
1473,45.0,35,54,15.0,0.0
1474,45.0,1,100,14.0,0.0
1475,45.0,115,54,15.0,0.0
1476,78.0,1,120,10.0,0.0
1477,90.0,1,120,0.0,0.0
1478,78.0,0,120,0.0,0.0
1479,78.0,0,120,1.0,0.0
1480,78.0,0,120,11.0,0.0
1481,62.0,1,120,4.0,0.0
1482,66.0,0,120,1.0,0.0
1483,62.0,3,120,6.0,0.0
1484,74.0,0,120,2.0,0.0
1485,78.0,0,120,2.0,0.0
1486,74.0,0,120,6.0,0.0
1487,54.0,3,120,5.0,0.0
1488,74.0,0,120,12.0,0.0
1489,66.0,1,120,3.0,0.0
1490,62.0,0,120,3.0,0.0
1491,62.0,1,120,13.0,0.0
1492,50.0,1,120,15.0,0.0
1493,50.0,168,120,14.0,0.0
1494,69.0,1,60,10.0,0.0
1495,85.0,0,60,10.0,0.0
1496,85.0,1,60,0.0,0.0
1497,76.0,0,60,1.0,0.0
1498,73.0,0,60,1.0,0.0
1499,79.0,1,60,11.0,0.0
1500,69.0,0,60,11.0,0.0
1501,64.0,0,60,4.0,0.0
1502,69.0,2,60,6.0,0.0
1503,76.0,0,60,2.0,0.0
1504,73.0,0,60,2.0,0.0
1505,57.0,0,60,6.0,0.0
1506,57.0,3,60,5.0,0.0
1507,69.0,0,60,12.0,0.0
1508,57.0,1,60,3.0,0.0
1509,57.0,2,60,13.0,0.0
1510,45.0,1,54,15.0,0.0
1511,45.0,108,60,14.0,0.0
1512,69.0,0,60,10.0,0.0
1513,86.0,0,60,10.0,0.0
1514,62.0,1,60,10.0,0.0
1515,86.0,1,60,0.0,0.0
1516,62.0,1,60,11.0,0.0
1517,69.0,0,60,11.0,0.0
1518,62.0,0,60,4.0,0.0
1519,78.0,0,60,11.0,0.0
1520,78.0,0,60,1.0,0.0
1521,74.0,0,60,1.0,0.0
1522,62.0,2,60,6.0,0.0
1523,74.0,0,60,6.0,0.0
1524,74.0,0,60,2.0,0.0
1525,54.0,0,60,5.0,0.0
1526,62.0,3,60,12.0,0.0
1527,50.0,0,60,3.0,0.0
1528,62.0,1,60,3.0,0.0
1529,50.0,2,60,13.0,0.0
1530,50.0,1,54,15.0,0.0
1531,38.0,350,60,14.0,0.0
1532,69.0,71,340,10.0,0.0
1533,61.0,4,60,11.0,0.0
1534,57.0,4,60,12.0,0.0
1535,57.0,2,60,13.0,0.0
1536,45.0,110,60,14.0,0.0
1537,62.0,4,60,11.0,0.0
1538,59.0,4,60,12.0,0.0
1539,59.0,2,60,13.0,0.0
1540,47.0,110,60,14.0,0.0
1541,64.0,4,60,11.0,0.0
1542,61.0,4,60,12.0,0.0
1543,61.0,2,60,13.0,0.0
1544,49.0,28,60,14.0,0.0
1545,77.0,71,51,10.0,0.0
1546,65.0,4,120,11.0,0.0
1547,62.0,4,120,12.0,0.0
1548,62.0,2,120,13.0,0.0
1549,50.0,39,120,14.0,0.0
1550,76.0,120,51,10.0,0.0
1551,77.0,131,51,10.0,0.0
1552,65.0,71,340,10.0,0.0
1553,57.0,4,60,11.0,0.0
1554,53.0,4,60,12.0,0.0
1555,53.0,2,60,13.0,0.0
1556,41.0,110,60,14.0,0.0
1557,58.0,4,60,11.0,0.0
1558,55.0,4,60,12.0,0.0
1559,55.0,2,60,13.0,0.0
1560,43.0,110,60,14.0,0.0
1561,60.0,4,60,11.0,0.0
1562,57.0,4,60,12.0,0.0
1563,57.0,2,60,13.0,0.0
1564,45.0,28,60,14.0,0.0
1565,74.0,71,51,10.0,0.0
1566,62.0,4,120,11.0,0.0
1567,58.0,4,120,12.0,0.0
1568,58.0,2,120,13.0,0.0
1569,46.0,39,120,14.0,0.0
1570,73.0,120,51,10.0,0.0
1571,74.0,129,51,10.0,0.0
1572,58.0,2,60,10.0,0.0
1573,62.0,0,60,11.0,0.0
1574,58.0,4,60,11.0,0.0
1575,53.0,4,60,12.0,0.0
1576,46.0,2,60,13.0,0.0
1577,34.0,508,60,14.0,0.0
1578,77.0,80,460,10.0,0.0
1579,62.0,0,580,11.0,0.0
1580,58.0,18,580,11.0,0.0
1581,53.0,4,700,12.0,0.0
1582,46.0,2,700,13.0,0.0
1583,34.0,8,700,14.0,0.0
1584,74.0,42,60,10.0,0.0
1585,70.0,60,60,10.0,0.0
1586,69.0,42,60,10.0,0.0
1587,63.0,0,100,11.0,0.0
1588,60.0,4,100,11.0,0.0
1589,72.0,60,60,10.0,0.0
1590,75.0,42,60,10.0,0.0
1591,60.0,0,100,11.0,0.0
1592,63.0,4,100,11.0,0.0
1593,53.0,4,100,12.0,0.0
1594,46.0,2,100,13.0,0.0
1595,34.0,8,100,14.0,0.0
1596,74.0,60,60,10.0,0.0
1597,72.0,40,60,10.0,0.0
1598,63.0,4,100,11.0,0.0
1599,60.0,0,100,11.0,0.0
1600,53.0,4,100,12.0,0.0
1601,46.0,2,100,13.0,0.0
1602,34.0,68,100,14.0,0.0
1603,70.0,2,40,10.0,0.0
1604,69.0,42,60,10.0,0.0
1605,63.0,0,100,11.0,0.0
1606,60.0,4,100,11.0,0.0
1607,53.0,4,100,12.0,0.0
1608,46.0,2,100,13.0,0.0
1609,34.0,8,100,14.0,0.0
1610,67.0,60,60,10.0,0.0
1611,65.0,42,60,10.0,0.0
1612,60.0,4,100,11.0,0.0
1613,63.0,0,100,11.0,0.0
1614,53.0,4,100,12.0,0.0
1615,46.0,2,100,13.0,0.0
1616,34.0,8,100,14.0,0.0
1617,63.0,60,60,10.0,0.0
1618,62.0,40,60,10.0,0.0
1619,81.0,8,120,0.0,0.0
1620,60.0,4,100,11.0,0.0
1621,63.0,0,100,11.0,0.0
1622,53.0,4,100,12.0,0.0
1623,57.0,51,120,3.0,0.0
1624,46.0,2,100,13.0,0.0
1625,34.0,9,100,14.0,0.0
1626,60.0,2,40,10.0,0.0
1627,58.0,1,60,10.0,0.0
1628,82.0,1,60,0.0,0.0
1629,74.0,0,60,1.0,0.0
1630,58.0,0,60,11.0,0.0
1631,62.0,0,60,11.0,0.0
1632,70.0,4,60,1.0,0.0
1633,53.0,3,60,12.0,0.0
1634,58.0,1,60,3.0,0.0
1635,46.0,2,60,13.0,0.0
1636,34.0,508,60,14.0,0.0
1637,77.0,11,460,10.0,0.0
1638,89.0,8,470,0.0,0.0
1639,74.0,7,590,1.0,0.0
1640,70.0,0,590,1.0,0.0
1641,58.0,0,580,11.0,0.0
1642,62.0,9,580,11.0,0.0
1643,53.0,4,700,12.0,0.0
1644,65.0,61,470,3.0,0.0
1645,46.0,2,700,13.0,0.0
1646,34.0,8,700,14.0,0.0
1647,74.0,1,60,10.0,0.0
1648,86.0,8,60,0.0,0.0
1649,62.0,31,60,3.0,0.0
1650,70.0,2,40,10.0,0.0
1651,82.0,1,50,0.0,0.0
1652,58.0,61,50,3.0,0.0
1653,69.0,1,60,10.0,0.0
1654,81.0,41,60,0.0,0.0
1655,60.0,0,100,11.0,0.0
1656,63.0,4,100,11.0,0.0
1657,75.0,7,710,1.0,0.0
1658,72.0,0,710,1.0,0.0
1659,57.0,51,120,3.0,0.0
1660,72.0,1,60,10.0,0.0
1661,84.0,8,60,0.0,0.0
1662,75.0,1,60,10.0,0.0
1663,87.0,41,60,0.0,0.0
1664,63.0,4,100,11.0,0.0
1665,60.0,0,100,11.0,0.0
1666,53.0,4,100,12.0,0.0
1667,46.0,2,100,13.0,0.0
1668,34.0,8,100,14.0,0.0
1669,74.0,1,60,10.0,0.0
1670,86.0,59,60,0.0,0.0
1671,72.0,1,60,10.0,0.0
1672,84.0,41,60,0.0,0.0
1673,60.0,0,100,11.0,0.0
1674,63.0,4,100,11.0,0.0
1675,53.0,4,100,12.0,0.0
1676,46.0,2,100,13.0,0.0
1677,34.0,8,100,14.0,0.0
1678,70.0,1,60,10.0,0.0
1679,82.0,59,60,0.0,0.0
1680,69.0,1,60,10.0,0.0
1681,81.0,41,60,0.0,0.0
1682,60.0,4,100,11.0,0.0
1683,63.0,0,100,11.0,0.0
1684,53.0,4,100,12.0,0.0
1685,46.0,2,100,13.0,0.0
1686,34.0,8,100,14.0,0.0
1687,67.0,1,60,10.0,0.0
1688,79.0,59,60,0.0,0.0
1689,65.0,1,60,10.0,0.0
1690,77.0,41,60,0.0,0.0
1691,60.0,4,100,11.0,0.0
1692,63.0,0,100,11.0,0.0
1693,53.0,4,100,12.0,0.0
1694,53.0,1,110,3.0,0.0
1695,46.0,2,100,13.0,0.0
1696,34.0,7,100,14.0,0.0
1697,63.0,1,60,10.0,0.0
1698,75.0,59,60,0.0,0.0
1699,62.0,1,60,10.0,0.0
1700,74.0,39,60,0.0,0.0
1701,63.0,4,100,11.0,0.0
1702,60.0,0,100,11.0,0.0
1703,53.0,4,100,12.0,0.0
1704,53.0,61,110,3.0,0.0
1705,46.0,1,100,13.0,0.0
1706,34.0,0,100,14.0,0.0
1707,60.0,2,40,10.0,0.0
1708,72.0,1,50,0.0,0.0
1709,58.0,2,60,10.0,0.0
1710,70.0,1,120,0.0,0.0
1711,62.0,4,60,11.0,0.0
1712,74.0,0,120,1.0,0.0
1713,70.0,7,120,1.0,0.0
1714,58.0,0,60,11.0,0.0
1715,53.0,55,60,12.0,0.0
1716,58.0,1,120,3.0,0.0
1717,46.0,2,120,13.0,0.0
1718,34.0,48,120,14.0,0.0
1719,74.0,60,60,10.0,0.0
1720,62.0,4,120,11.0,0.0
1721,58.0,54,120,12.0,0.0
1722,73.0,2,60,10.0,0.0
1723,74.0,40,60,10.0,0.0
1724,65.0,4,120,11.0,0.0
1725,62.0,54,120,12.0,0.0
1726,76.0,22,40,10.0,0.0
1727,77.0,69,60,10.0,0.0
1728,57.0,1,120,3.0,0.0
1729,45.0,2,120,13.0,0.0
1730,33.0,48,120,14.0,0.0
1731,74.0,60,60,10.0,0.0
1732,62.0,4,120,11.0,0.0
1733,57.0,54,120,12.0,0.0
1734,73.0,2,60,10.0,0.0
1735,74.0,40,60,10.0,0.0
1736,65.0,4,120,11.0,0.0
1737,62.0,54,120,12.0,0.0
1738,76.0,22,40,10.0,0.0
1739,77.0,69,60,10.0,0.0
1740,56.0,1,120,3.0,0.0
1741,44.0,2,120,13.0,0.0
1742,32.0,48,120,14.0,0.0
1743,74.0,60,60,10.0,0.0
1744,62.0,4,120,11.0,0.0
1745,59.0,54,120,12.0,0.0
1746,73.0,2,60,10.0,0.0
1747,74.0,40,60,10.0,0.0
1748,65.0,4,120,11.0,0.0
1749,62.0,54,120,12.0,0.0
1750,76.0,22,40,10.0,0.0
1751,77.0,2,60,10.0,0.0
1752,65.0,4,60,11.0,0.0
1753,56.0,63,60,12.0,0.0
1754,59.0,0,60,12.0,0.0
1755,56.0,1,120,3.0,0.0
1756,56.0,2,120,13.0,0.0
1757,44.0,48,120,14.0,0.0
1758,79.0,2,60,10.0,0.0
1759,65.0,4,60,11.0,0.0
1760,56.0,0,60,12.0,0.0
1761,59.0,54,60,12.0,0.0
1762,77.0,60,60,10.0,0.0
1763,76.0,2,60,10.0,0.0
1764,65.0,4,60,11.0,0.0
1765,56.0,0,60,12.0,0.0
1766,59.0,34,60,12.0,0.0
1767,74.0,80,40,10.0,0.0
1768,73.0,10,60,10.0,0.0
1769,64.0,4,120,11.0,0.0
1770,61.0,0,120,12.0,0.0
1771,57.0,3,120,12.0,0.0
1772,57.0,51,120,3.0,0.0
1773,57.0,52,60,13.0,0.0
1774,33.0,48,1560,14.0,0.0
1775,74.0,60,60,10.0,0.0
1776,73.0,60,60,10.0,0.0
1777,71.0,40,60,10.0,0.0
1778,49.0,4,120,12.0,0.0
1779,49.0,50,120,13.0,0.0
1780,69.0,26,40,10.0,0.0
1781,77.0,66,60,10.0,0.0
1782,50.0,4,120,12.0,0.0
1783,50.0,50,120,13.0,0.0
1784,79.0,60,60,10.0,0.0
1785,53.0,4,120,12.0,0.0
1786,53.0,50,120,13.0,0.0
1787,77.0,6,60,10.0,0.0
1788,76.0,40,60,10.0,0.0
1789,56.0,4,100,12.0,0.0
1790,56.0,70,100,13.0,0.0
1791,74.0,6,40,10.0,0.0
1792,73.0,6,60,10.0,0.0
1793,57.0,4,60,12.0,0.0
1794,57.0,110,60,13.0,0.0
1795,74.0,60,60,10.0,0.0
1796,73.0,60,60,10.0,0.0
1797,71.0,40,60,10.0,0.0
1798,61.0,4,120,11.0,0.0
1799,49.0,4,120,12.0,0.0
1800,49.0,50,120,13.0,0.0
1801,69.0,22,40,10.0,0.0
1802,77.0,62,60,10.0,0.0
1803,62.0,4,120,11.0,0.0
1804,50.0,4,120,12.0,0.0
1805,50.0,50,120,13.0,0.0
1806,79.0,60,60,10.0,0.0
1807,65.0,4,120,11.0,0.0
1808,53.0,4,120,12.0,0.0
1809,53.0,50,120,13.0,0.0
1810,77.0,2,60,10.0,0.0
1811,76.0,40,60,10.0,0.0
1812,68.0,4,100,11.0,0.0
1813,56.0,4,100,12.0,0.0
1814,56.0,70,100,13.0,0.0
1815,74.0,2,40,10.0,0.0
1816,73.0,2,60,10.0,0.0
1817,69.0,4,60,11.0,0.0
1818,57.0,4,60,12.0,0.0
1819,57.0,62,60,13.0,0.0
1820,76.0,60,60,10.0,0.0
1821,57.0,58,120,11.0,0.0
1822,74.0,2,60,10.0,0.0
1823,73.0,40,60,10.0,0.0
1824,58.0,58,120,11.0,0.0
1825,71.0,22,40,10.0,0.0
1826,69.0,40,60,10.0,0.0
1827,59.0,28,120,11.0,0.0
1828,68.0,22,40,10.0,0.0
1829,69.0,60,30,10.0,0.0
1830,60.0,28,120,11.0,0.0
1831,67.0,32,30,10.0,0.0
1832,66.0,60,30,10.0,0.0
1833,61.0,84,100,11.0,0.0
1834,64.0,12,30,10.0,0.0
1835,62.0,2,340,10.0,0.0
1836,74.0,1,350,0.0,0.0
1837,74.0,1,350,1.0,0.0
1838,62.0,9,340,11.0,0.0
1839,62.0,1,360,4.0,0.0
1840,74.0,0,360,6.0,0.0
1841,62.0,3,360,6.0,0.0
1842,74.0,9,350,2.0,0.0
1843,62.0,0,350,2.0,0.0
1844,62.0,3,60,12.0,0.0
1845,50.0,45,360,5.0,0.0
1846,50.0,1,60,3.0,0.0
1847,50.0,2,60,13.0,0.0
1848,50.0,55,120,15.0,0.0
1849,38.0,59,60,14.0,0.0
1850,64.0,3,60,12.0,0.0
1851,52.0,1,60,3.0,0.0
1852,52.0,2,60,13.0,0.0
1853,40.0,114,60,14.0,0.0
1854,66.0,3,60,12.0,0.0
1855,54.0,1,60,3.0,0.0
1856,54.0,2,60,13.0,0.0
1857,42.0,28,60,14.0,0.0
1858,78.0,120,51,10.0,0.0
1859,79.0,120,51,10.0,0.0
1860,81.0,135,51,10.0,0.0
1861,55.0,2,340,10.0,0.0
1862,64.0,0,340,10.0,0.0
1863,76.0,1,350,0.0,0.0
1864,74.0,0,350,0.0,0.0
1865,76.0,0,350,1.0,0.0
1866,74.0,1,350,1.0,0.0
1867,59.0,9,340,11.0,0.0
1868,62.0,0,340,11.0,0.0
1869,62.0,1,360,4.0,0.0
1870,74.0,9,350,2.0,0.0
1871,64.0,0,350,2.0,0.0
1872,74.0,0,360,6.0,0.0
1873,62.0,3,360,6.0,0.0
1874,50.0,45,360,5.0,0.0
1875,67.0,3,60,12.0,0.0
1876,55.0,1,60,3.0,0.0
1877,55.0,2,60,13.0,0.0
1878,50.0,55,120,15.0,0.0
1879,43.0,59,60,14.0,0.0
1880,69.0,3,60,12.0,0.0
1881,57.0,1,60,3.0,0.0
1882,57.0,2,60,13.0,0.0
1883,45.0,114,60,14.0,0.0
1884,71.0,3,60,12.0,0.0
1885,59.0,1,60,3.0,0.0
1886,59.0,2,60,13.0,0.0
1887,47.0,28,60,14.0,0.0
1888,79.0,120,51,10.0,0.0
1889,81.0,120,51,10.0,0.0
1890,83.0,131,51,10.0,0.0
1891,64.0,4,60,4.0,0.0
1892,57.0,116,60,5.0,0.0
1893,66.0,4,60,4.0,0.0
1894,62.0,116,60,5.0,0.0
1895,67.0,4,60,4.0,0.0
1896,64.0,105,60,5.0,0.0
1897,76.0,2,51,10.0,0.0
1898,69.0,118,51,11.0,0.0
1899,78.0,2,51,10.0,0.0
1900,74.0,118,51,11.0,0.0
1901,79.0,2,51,10.0,0.0
1902,76.0,129,51,11.0,0.0
1903,66.0,0,60,4.0,0.0
1904,74.0,0,60,1.0,0.0
1905,78.0,4,60,1.0,0.0
1906,62.0,116,60,5.0,0.0
1907,69.0,0,60,1.0,0.0
1908,64.0,0,60,4.0,0.0
1909,76.0,4,60,1.0,0.0
1910,57.0,116,60,5.0,0.0
1911,74.0,0,60,1.0,0.0
1912,66.0,4,60,1.0,0.0
1913,62.0,0,60,4.0,0.0
1914,54.0,114,60,5.0,0.0
1915,86.0,1,60,10.0,0.0
1916,86.0,1,60,0.0,0.0
1917,78.0,0,60,0.0,0.0
1918,78.0,0,60,11.0,0.0
1919,74.0,0,60,1.0,0.0
1920,69.0,1,60,11.0,0.0
1921,78.0,0,60,1.0,0.0
1922,74.0,0,60,6.0,0.0
1923,62.0,0,60,6.0,0.0
1924,74.0,3,60,2.0,0.0
1925,66.0,0,60,2.0,0.0
1926,62.0,3,60,12.0,0.0
1927,50.0,1,60,3.0,0.0
1928,62.0,0,60,3.0,0.0
1929,50.0,1,60,13.0,0.0
1930,50.0,1,60,15.0,0.0
1931,38.0,108,60,14.0,0.0
1932,85.0,1,60,10.0,0.0
1933,76.0,1,60,0.0,0.0
1934,85.0,0,60,0.0,0.0
1935,76.0,0,60,1.0,0.0
1936,79.0,0,60,1.0,0.0
1937,69.0,0,60,11.0,0.0
1938,79.0,1,60,11.0,0.0
1939,76.0,0,60,2.0,0.0
1940,67.0,3,60,2.0,0.0
1941,69.0,0,60,6.0,0.0
1942,57.0,0,60,6.0,0.0
1943,57.0,3,60,12.0,0.0
1944,45.0,0,60,3.0,0.0
1945,57.0,1,60,3.0,0.0
1946,45.0,1,60,13.0,0.0
1947,45.0,1,60,15.0,0.0
1948,33.0,108,60,14.0,0.0
1949,86.0,1,60,10.0,0.0
1950,86.0,1,60,0.0,0.0
1951,78.0,0,60,0.0,0.0
1952,78.0,0,60,1.0,0.0
1953,74.0,0,60,1.0,0.0
1954,69.0,0,60,11.0,0.0
1955,78.0,1,60,11.0,0.0
1956,74.0,3,60,6.0,0.0
1957,74.0,0,60,2.0,0.0
1958,66.0,0,60,2.0,0.0
1959,62.0,0,60,6.0,0.0
1960,62.0,3,60,12.0,0.0
1961,62.0,1,60,3.0,0.0
1962,50.0,0,60,3.0,0.0
1963,50.0,1,60,13.0,0.0
1964,50.0,1,60,15.0,0.0
1965,38.0,114,60,14.0,0.0
1966,62.0,2,340,10.0,0.0
1967,74.0,1,350,0.0,0.0
1968,62.0,1,360,4.0,0.0
1969,74.0,1,350,1.0,0.0
1970,62.0,9,340,11.0,0.0
1971,62.0,3,360,6.0,0.0
1972,62.0,0,350,2.0,0.0
1973,74.0,9,350,2.0,0.0
1974,74.0,0,360,6.0,0.0
1975,62.0,3,60,12.0,0.0
1976,50.0,45,360,5.0,0.0
1977,50.0,1,60,3.0,0.0
1978,50.0,2,60,13.0,0.0
1979,50.0,55,120,15.0,0.0
1980,38.0,59,60,14.0,0.0
1981,64.0,3,60,12.0,0.0
1982,52.0,1,60,3.0,0.0
1983,52.0,2,60,13.0,0.0
1984,40.0,114,60,14.0,0.0
1985,66.0,3,60,12.0,0.0
1986,54.0,1,60,3.0,0.0
1987,54.0,2,60,13.0,0.0
1988,42.0,28,60,14.0,0.0
1989,78.0,120,51,10.0,0.0
1990,79.0,120,51,10.0,0.0
1991,81.0,135,51,10.0,0.0
1992,64.0,0,340,10.0,0.0
1993,55.0,2,340,10.0,0.0
1994,74.0,1,350,0.0,0.0
1995,76.0,0,350,0.0,0.0
1996,76.0,1,350,1.0,0.0
1997,59.0,0,340,11.0,0.0
1998,74.0,0,350,1.0,0.0
1999,62.0,1,360,4.0,0.0
2000,62.0,9,340,11.0,0.0
2001,64.0,0,350,2.0,0.0
2002,62.0,3,360,6.0,0.0
2003,74.0,0,360,6.0,0.0
2004,74.0,9,350,2.0,0.0
2005,50.0,45,360,5.0,0.0
2006,55.0,3,60,12.0,0.0
2007,55.0,1,60,3.0,0.0
2008,55.0,2,60,13.0,0.0
2009,50.0,55,120,15.0,0.0
2010,43.0,59,60,14.0,0.0
2011,57.0,3,60,12.0,0.0
2012,57.0,1,60,3.0,0.0
2013,57.0,2,60,13.0,0.0
2014,45.0,114,60,14.0,0.0
2015,59.0,3,60,12.0,0.0
2016,59.0,1,60,3.0,0.0
2017,59.0,2,60,13.0,0.0
2018,47.0,28,60,14.0,0.0
2019,79.0,120,51,10.0,0.0
2020,81.0,120,51,10.0,0.0
2021,83.0,120,51,10.0,0.0
2022,67.0,120,51,10.0,0.0
2023,69.0,120,51,10.0,0.0
2024,71.0,122,51,10.0,0.0
2025,64.0,120,51,11.0,0.0
2026,66.0,120,51,11.0,0.0
2027,67.0,118,51,11.0,0.0
2028,67.0,120,51,10.0,0.0
2029,69.0,120,51,10.0,0.0
2030,70.0,122,51,10.0,0.0
2031,64.0,120,51,11.0,0.0
2032,66.0,120,51,11.0,0.0
2033,67.0,118,51,11.0,0.0
2034,67.0,120,51,10.0,0.0
2035,69.0,120,51,10.0,0.0
2036,70.0,120,51,10.0,0.0
2037,67.0,2,51,10.0,0.0
2038,64.0,118,51,11.0,0.0
2039,69.0,2,51,10.0,0.0
2040,65.0,118,51,11.0,0.0
2041,70.0,2,51,10.0,0.0
2042,67.0,118,51,11.0,0.0
2043,67.0,2,51,10.0,0.0
2044,64.0,118,51,11.0,0.0
2045,69.0,2,51,10.0,0.0
2046,65.0,118,51,11.0,0.0
2047,70.0,2,51,10.0,0.0
2048,67.0,118,51,11.0,0.0
2049,67.0,2,51,10.0,0.0
2050,64.0,118,51,11.0,0.0
2051,69.0,2,51,10.0,0.0
2052,65.0,118,51,11.0,0.0
2053,70.0,2,51,10.0,0.0
2054,67.0,118,51,11.0,0.0
2055,67.0,2,51,10.0,0.0
2056,72.0,7,345,1.0,0.0
2057,64.0,73,51,11.0,0.0
2058,60.0,4,120,12.0,0.0
2059,60.0,68,345,3.0,0.0
2060,60.0,2,120,13.0,0.0
2061,48.0,39,120,14.0,0.0
2062,69.0,2,51,10.0,0.0
2063,65.0,118,51,11.0,0.0
2064,70.0,2,51,10.0,0.0
2065,67.0,54,51,11.0,0.0
2066,69.0,2,120,10.0,0.0
2067,65.0,4,120,11.0,0.0
2068,77.0,7,60,1.0,0.0
2069,53.0,4,120,12.0,0.0
2070,65.0,51,60,3.0,0.0
2071,53.0,2,120,13.0,0.0
2072,41.0,50,120,14.0,0.0
2073,76.0,7,60,1.0,0.0
2074,64.0,113,60,3.0,0.0
2075,77.0,7,60,1.0,0.0
2076,65.0,102,60,3.0,0.0
2077,64.0,2,51,10.0,0.0
2078,61.0,73,51,11.0,0.0
2079,69.0,7,345,1.0,0.0
2080,57.0,4,120,12.0,0.0
2081,57.0,68,345,3.0,0.0
2082,57.0,2,120,13.0,0.0
2083,45.0,39,120,14.0,0.0
2084,65.0,2,51,10.0,0.0
2085,62.0,118,51,11.0,0.0
2086,67.0,2,51,10.0,0.0
2087,64.0,54,51,11.0,0.0
2088,65.0,2,120,10.0,0.0
2089,62.0,4,120,11.0,0.0
2090,74.0,7,60,1.0,0.0
2091,50.0,4,120,12.0,0.0
2092,62.0,51,60,3.0,0.0
2093,50.0,2,120,13.0,0.0
2094,38.0,50,120,14.0,0.0
2095,73.0,7,60,1.0,0.0
2096,61.0,113,60,3.0,0.0
2097,74.0,7,60,1.0,0.0
2098,62.0,173,60,3.0,0.0
2099,62.0,4,720,4.0,0.0
2100,62.0,4,120,11.0,0.0
2101,62.0,2,705,2.0,0.0
2102,74.0,0,705,2.0,0.0
2103,50.0,100,720,5.0,0.0
2104,50.0,3,120,12.0,0.0
2105,50.0,1,120,3.0,0.0
2106,46.0,8,705,3.0,0.0
2107,50.0,112,120,13.0,0.0
2108,34.0,2,700,14.0,0.0
2109,64.0,4,120,11.0,0.0
2110,52.0,3,120,12.0,0.0
2111,52.0,1,120,3.0,0.0
2112,52.0,112,120,13.0,0.0
2113,65.0,4,120,11.0,0.0
2114,53.0,3,120,12.0,0.0
2115,53.0,1,120,3.0,0.0
2116,53.0,112,120,13.0,0.0
2117,66.0,4,120,11.0,0.0
2118,54.0,3,120,12.0,0.0
2119,54.0,1,120,3.0,0.0
2120,54.0,112,120,13.0,0.0
2121,67.0,4,120,11.0,0.0
2122,55.0,3,120,12.0,0.0
2123,55.0,1,120,3.0,0.0
2124,55.0,92,120,13.0,0.0
2125,68.0,4,100,11.0,0.0
2126,56.0,2,100,12.0,0.0
2127,56.0,0,105,3.0,0.0
2128,56.0,2,100,13.0,0.0
2129,81.0,2,120,10.0,0.0
2130,69.0,0,340,10.0,0.0
2131,57.0,1,350,4.0,0.0
2132,69.0,9,120,11.0,0.0
2133,61.0,2,345,2.0,0.0
2134,69.0,0,350,6.0,0.0
2135,73.0,0,345,2.0,0.0
2136,57.0,1,350,6.0,0.0
2137,45.0,64,350,5.0,0.0
2138,57.0,4,100,12.0,0.0
2139,57.0,6,105,3.0,0.0
2140,45.0,0,105,3.0,0.0
2141,57.0,2,100,13.0,0.0
2142,45.0,95,120,15.0,0.0
2143,33.0,2,100,14.0,0.0
2144,80.0,2,120,10.0,0.0
2145,68.0,98,120,11.0,0.0
2146,69.0,4,100,12.0,0.0
2147,57.0,6,105,3.0,0.0
2148,57.0,2,100,13.0,0.0
2149,45.0,2,100,14.0,0.0
2150,79.0,2,100,10.0,0.0
2151,67.0,4,100,11.0,0.0
2152,69.0,2,100,12.0,0.0
2153,57.0,2,105,3.0,0.0
2154,57.0,2,100,13.0,0.0
2155,45.0,0,100,14.0,0.0
2156,78.0,2,60,10.0,0.0
2157,62.0,1,120,4.0,0.0
2158,66.0,60,60,11.0,0.0
2159,62.0,0,120,6.0,0.0
2160,74.0,0,120,6.0,0.0
2161,62.0,3,120,2.0,0.0
2162,74.0,0,120,2.0,0.0
2163,50.0,3,120,5.0,0.0
2164,62.0,0,120,12.0,0.0
2165,50.0,1,120,3.0,0.0
2166,50.0,1,120,13.0,0.0
2167,50.0,1,120,15.0,0.0
2168,38.0,48,120,14.0,0.0
2169,76.0,2,60,10.0,0.0
2170,64.0,118,60,11.0,0.0
2171,74.0,2,60,10.0,0.0
2172,62.0,120,60,11.0,0.0
2173,72.0,7,340,10.0,0.0
2174,72.0,7,345,1.0,0.0
2175,67.0,4,60,11.0,0.0
2176,64.0,64,60,12.0,0.0
2177,60.0,66,345,3.0,0.0
2178,60.0,2,120,13.0,0.0
2179,48.0,50,120,14.0,0.0
2180,69.0,4,60,11.0,0.0
2181,65.0,116,60,12.0,0.0
2182,70.0,4,60,11.0,0.0
2183,67.0,34,60,12.0,0.0
2184,77.0,2,60,10.0,0.0
2185,77.0,7,60,1.0,0.0
2186,69.0,4,120,11.0,0.0
2187,65.0,4,120,12.0,0.0
2188,65.0,53,60,3.0,0.0
2189,53.0,2,120,13.0,0.0
2190,41.0,48,120,14.0,0.0
2191,76.0,2,60,10.0,0.0
2192,76.0,7,60,1.0,0.0
2193,64.0,111,60,3.0,0.0
2194,77.0,2,60,10.0,0.0
2195,77.0,7,60,1.0,0.0
2196,65.0,113,60,3.0,0.0
2197,69.0,6,340,10.0,0.0
2198,81.0,1,345,0.0,0.0
2199,69.0,7,345,1.0,0.0
2200,64.0,4,60,11.0,0.0
2201,61.0,64,60,12.0,0.0
2202,57.0,66,345,3.0,0.0
2203,57.0,2,120,13.0,0.0
2204,45.0,50,120,14.0,0.0
2205,65.0,4,60,11.0,0.0
2206,62.0,116,60,12.0,0.0
2207,67.0,4,60,11.0,0.0
2208,64.0,34,60,12.0,0.0
2209,74.0,1,60,10.0,0.0
2210,86.0,1,60,0.0,0.0
2211,65.0,4,120,11.0,0.0
2212,74.0,7,60,1.0,0.0
2213,62.0,4,120,12.0,0.0
2214,62.0,53,60,3.0,0.0
2215,50.0,2,120,13.0,0.0
2216,38.0,48,120,14.0,0.0
2217,73.0,1,60,10.0,0.0
2218,85.0,1,60,0.0,0.0
2219,73.0,7,60,1.0,0.0
2220,61.0,111,60,3.0,0.0
2221,74.0,1,60,10.0,0.0
2222,86.0,1,60,0.0,0.0
2223,74.0,7,60,1.0,0.0
2224,62.0,173,60,3.0,0.0
2225,62.0,4,720,4.0,0.0
2226,62.0,4,120,11.0,0.0
2227,74.0,2,705,2.0,0.0
2228,62.0,0,705,2.0,0.0
2229,50.0,100,720,5.0,0.0
2230,50.0,3,120,12.0,0.0
2231,46.0,8,705,3.0,0.0
2232,50.0,1,120,3.0,0.0
2233,50.0,112,120,13.0,0.0
2234,34.0,2,700,14.0,0.0
2235,64.0,4,120,11.0,0.0
2236,52.0,3,120,12.0,0.0
2237,52.0,1,120,3.0,0.0
2238,52.0,112,120,13.0,0.0
2239,65.0,4,120,11.0,0.0
2240,53.0,3,120,12.0,0.0
2241,53.0,1,120,3.0,0.0
2242,53.0,112,120,13.0,0.0
2243,66.0,4,120,11.0,0.0
2244,54.0,3,120,12.0,0.0
2245,54.0,1,120,3.0,0.0
2246,54.0,112,120,13.0,0.0
2247,67.0,4,120,11.0,0.0
2248,55.0,3,120,12.0,0.0
2249,55.0,1,120,3.0,0.0
2250,55.0,92,120,13.0,0.0
2251,68.0,4,100,11.0,0.0
2252,56.0,2,100,12.0,0.0
2253,56.0,0,105,3.0,0.0
2254,56.0,2,100,13.0,0.0
2255,81.0,2,120,10.0,0.0
2256,69.0,0,340,10.0,0.0
2257,69.0,9,120,11.0,0.0
2258,57.0,0,350,4.0,0.0
2259,73.0,2,345,2.0,0.0
2260,69.0,0,350,6.0,0.0
2261,57.0,1,350,6.0,0.0
2262,61.0,0,345,2.0,0.0
2263,57.0,4,100,12.0,0.0
2264,45.0,64,350,5.0,0.0
2265,57.0,0,105,3.0,0.0
2266,45.0,6,105,3.0,0.0
2267,57.0,2,100,13.0,0.0
2268,45.0,95,120,15.0,0.0
2269,33.0,2,100,14.0,0.0
2270,80.0,2,120,10.0,0.0
2271,68.0,98,120,11.0,0.0
2272,69.0,4,100,12.0,0.0
2273,57.0,6,105,3.0,0.0
2274,57.0,2,100,13.0,0.0
2275,45.0,2,100,14.0,0.0
2276,79.0,2,100,10.0,0.0
2277,67.0,4,100,11.0,0.0
2278,69.0,2,100,12.0,0.0
2279,57.0,2,105,3.0,0.0
2280,57.0,2,100,13.0,0.0
2281,45.0,1,100,14.0,0.0
2282,78.0,2,60,10.0,0.0
2283,62.0,1,120,4.0,0.0
2284,66.0,60,60,11.0,0.0
2285,62.0,0,120,6.0,0.0
2286,74.0,3,120,6.0,0.0
2287,74.0,0,120,2.0,0.0
2288,62.0,0,120,2.0,0.0
2289,62.0,3,120,12.0,0.0
2290,50.0,0,120,5.0,0.0
2291,62.0,1,120,3.0,0.0
2292,62.0,1,120,13.0,0.0
2293,50.0,1,120,15.0,0.0
2294,50.0,48,120,14.0,0.0
2295,76.0,2,60,10.0,0.0
2296,64.0,118,60,11.0,0.0
2297,74.0,2,60,10.0,0.0
2298,62.0,180,60,11.0,0.0
2299,62.0,4,120,11.0,0.0
2300,62.0,4,720,4.0,0.0
2301,74.0,2,705,2.0,0.0
2302,62.0,0,705,2.0,0.0
2303,50.0,3,120,12.0,0.0
2304,50.0,100,720,5.0,0.0
2305,46.0,0,705,3.0,0.0
2306,50.0,1,120,3.0,0.0
2307,50.0,112,120,13.0,0.0
2308,34.0,2,700,14.0,0.0
2309,64.0,4,120,11.0,0.0
2310,52.0,3,120,12.0,0.0
2311,52.0,1,120,3.0,0.0
2312,52.0,112,120,13.0,0.0
2313,65.0,4,120,11.0,0.0
2314,53.0,3,120,12.0,0.0
2315,53.0,1,120,3.0,0.0
2316,53.0,112,120,13.0,0.0
2317,66.0,4,120,11.0,0.0
2318,54.0,3,120,12.0,0.0
2319,54.0,1,120,3.0,0.0
2320,54.0,112,120,13.0,0.0
2321,67.0,4,120,11.0,0.0
2322,55.0,3,120,12.0,0.0
2323,55.0,1,120,3.0,0.0
2324,55.0,92,120,13.0,0.0
2325,68.0,4,100,11.0,0.0
2326,56.0,2,100,12.0,0.0
2327,56.0,8,105,3.0,0.0
2328,56.0,2,100,13.0,0.0
2329,69.0,2,340,10.0,0.0
2330,81.0,2,120,10.0,0.0
2331,57.0,1,350,4.0,0.0
2332,69.0,9,120,11.0,0.0
2333,61.0,0,345,2.0,0.0
2334,69.0,0,350,6.0,0.0
2335,57.0,1,350,6.0,0.0
2336,73.0,2,345,2.0,0.0
2337,57.0,4,100,12.0,0.0
2338,45.0,64,350,5.0,0.0
2339,57.0,0,105,3.0,0.0
2340,45.0,6,105,3.0,0.0
2341,57.0,2,100,13.0,0.0
2342,45.0,95,120,15.0,0.0
2343,33.0,2,100,14.0,0.0
2344,80.0,2,120,10.0,0.0
2345,68.0,98,120,11.0,0.0
2346,69.0,4,100,12.0,0.0
2347,57.0,6,105,3.0,0.0
2348,57.0,2,100,13.0,0.0
2349,45.0,2,100,14.0,0.0
2350,79.0,0,100,10.0,0.0
2351,67.0,4,100,11.0,0.0
2352,69.0,2,100,12.0,0.0
2353,57.0,2,105,3.0,0.0
2354,57.0,2,100,13.0,0.0
2355,45.0,0,100,14.0,0.0
2356,78.0,2,60,10.0,0.0
2357,66.0,50,60,11.0,0.0
2358,62.0,4,110,4.0,0.0
2359,62.0,3,120,6.0,0.0
2360,74.0,0,120,2.0,0.0
2361,62.0,0,120,2.0,0.0
2362,74.0,0,120,6.0,0.0
2363,74.0,3,120,12.0,0.0
2364,50.0,7,110,5.0,0.0
2365,62.0,1,120,3.0,0.0
2366,62.0,1,120,13.0,0.0
2367,50.0,1,120,15.0,0.0
2368,50.0,48,120,14.0,0.0
2369,74.0,2,60,10.0,0.0
2370,62.0,50,60,11.0,0.0
2371,66.0,4,110,4.0,0.0
2372,54.0,64,110,5.0,0.0
2373,78.0,2,60,10.0,0.0
2374,62.0,4,110,4.0,0.0
2375,66.0,50,60,11.0,0.0
2376,50.0,110,110,5.0,0.0
2377,81.0,2,120,10.0,0.0
2378,69.0,2,340,10.0,0.0
2379,85.0,0,345,0.0,0.0
2380,57.0,1,350,4.0,0.0
2381,69.0,9,120,11.0,0.0
2382,73.0,2,345,2.0,0.0
2383,69.0,0,350,6.0,0.0
2384,57.0,1,350,6.0,0.0
2385,57.0,4,100,12.0,0.0
2386,45.0,64,350,5.0,0.0
2387,61.0,0,345,3.0,0.0
2388,45.0,6,105,3.0,0.0
2389,45.0,2,100,13.0,0.0
2390,45.0,95,120,15.0,0.0
2391,33.0,2,100,14.0,0.0
2392,80.0,2,120,10.0,0.0
2393,68.0,98,120,11.0,0.0
2394,69.0,4,100,12.0,0.0
2395,57.0,6,105,3.0,0.0
2396,57.0,2,100,13.0,0.0
2397,45.0,2,100,14.0,0.0
2398,79.0,0,100,10.0,0.0
2399,67.0,4,100,11.0,0.0
2400,69.0,2,100,12.0,0.0
2401,57.0,2,105,3.0,0.0
2402,57.0,2,100,13.0,0.0
2403,45.0,0,100,14.0,0.0
2404,78.0,2,60,10.0,0.0
2405,86.0,2,120,0.0,0.0
2406,66.0,50,60,11.0,0.0
2407,62.0,4,110,4.0,0.0
2408,74.0,0,120,2.0,0.0
2409,74.0,0,120,6.0,0.0
2410,62.0,3,120,6.0,0.0
2411,50.0,5,110,5.0,0.0
2412,74.0,3,120,12.0,0.0
2413,50.0,0,120,3.0,0.0
2414,62.0,1,120,3.0,0.0
2415,62.0,1,120,13.0,0.0
2416,50.0,1,120,15.0,0.0
2417,50.0,48,120,14.0,0.0
2418,74.0,2,60,10.0,0.0
2419,62.0,50,60,11.0,0.0
2420,66.0,4,110,4.0,0.0
2421,54.0,64,110,5.0,0.0
2422,78.0,2,60,10.0,0.0
2423,66.0,50,60,11.0,0.0
2424,62.0,4,110,4.0,0.0
2425,50.0,69,110,5.0,0.0
2426,69.0,2,700,10.0,0.0
2427,81.0,1,480,10.0,0.0
2428,81.0,1,480,0.0,0.0
2429,85.0,0,480,0.0,0.0
2430,81.0,0,480,1.0,0.0
2431,69.0,0,480,1.0,0.0
2432,61.0,3,120,11.0,0.0
2433,57.0,4,470,4.0,0.0
2434,69.0,0,480,2.0,0.0
2435,57.0,0,710,6.0,0.0
2436,73.0,2,480,2.0,0.0
2437,69.0,1,710,6.0,0.0
2438,57.0,4,120,12.0,0.0
2439,45.0,4,470,5.0,0.0
2440,57.0,0,480,3.0,0.0
2441,61.0,1,480,3.0,0.0
2442,45.0,2,120,13.0,0.0
2443,45.0,57,54,15.0,0.0
2444,33.0,53,120,14.0,0.0
2445,45.0,1,54,15.0,0.0
2446,64.0,3,120,11.0,0.0
2447,61.0,4,120,12.0,0.0
2448,45.0,57,54,15.0,0.0
2449,45.0,53,120,14.0,0.0
2450,45.0,1,54,15.0,0.0
2451,69.0,3,120,11.0,0.0
2452,64.0,4,120,12.0,0.0
2453,57.0,2,0,13.0,0.0
2454,45.0,57,54,15.0,0.0
2455,45.0,1,54,15.0,0.0
2456,73.0,1,120,11.0,0.0
2457,69.0,3,120,12.0,0.0
2458,57.0,2,0,13.0,0.0
2459,45.0,47,54,15.0,0.0
2460,45.0,53,0,14.0,0.0
2461,45.0,1,54,15.0,0.0
2462,80.0,1,120,10.0,0.0
2463,86.0,1,120,0.0,0.0
2464,83.0,0,120,0.0,0.0
2465,64.0,4,110,4.0,0.0
2466,68.0,1,120,1.0,0.0
2467,80.0,0,120,1.0,0.0
2468,74.0,0,120,11.0,0.0
2469,71.0,2,120,2.0,0.0
2470,74.0,0,120,2.0,0.0
2471,71.0,3,120,12.0,0.0
2472,57.0,4,110,5.0,0.0
2473,59.0,0,120,3.0,0.0
2474,62.0,1,120,3.0,0.0
2475,45.0,47,54,15.0,0.0
2476,45.0,1,54,15.0,0.0
2477,79.0,0,100,10.0,0.0
2478,85.0,0,105,0.0,0.0
2479,88.0,1,105,0.0,0.0
2480,79.0,0,105,1.0,0.0
2481,67.0,1,105,1.0,0.0
2482,64.0,1,110,4.0,0.0
2483,76.0,4,100,11.0,0.0
2484,73.0,0,105,2.0,0.0
2485,76.0,2,105,2.0,0.0
2486,73.0,0,100,12.0,0.0
2487,57.0,9,110,5.0,0.0
2488,64.0,2,105,3.0,0.0
2489,61.0,0,105,3.0,0.0
2490,57.0,2,0,13.0,0.0
2491,45.0,35,54,15.0,0.0
2492,45.0,53,0,14.0,0.0
2493,45.0,115,54,15.0,0.0
2494,78.0,1,120,10.0,0.0
2495,90.0,0,120,0.0,0.0
2496,78.0,1,120,0.0,0.0
2497,66.0,0,120,1.0,0.0
2498,78.0,1,120,1.0,0.0
2499,62.0,0,120,4.0,0.0
2500,78.0,0,120,11.0,0.0
2501,62.0,0,120,6.0,0.0
2502,78.0,3,120,2.0,0.0
2503,74.0,0,120,2.0,0.0
2504,74.0,0,120,6.0,0.0
2505,74.0,3,120,12.0,0.0
2506,54.0,0,120,5.0,0.0
2507,66.0,1,120,3.0,0.0
2508,62.0,0,120,3.0,0.0
2509,62.0,1,120,13.0,0.0
2510,50.0,1,120,15.0,0.0
2511,50.0,168,120,14.0,0.0
2512,69.0,1,60,10.0,0.0
2513,85.0,0,60,10.0,0.0
2514,85.0,1,60,0.0,0.0
2515,73.0,1,60,1.0,0.0
2516,79.0,0,60,11.0,0.0
2517,69.0,0,60,11.0,0.0
2518,64.0,0,60,4.0,0.0
2519,76.0,0,60,1.0,0.0
2520,57.0,0,60,6.0,0.0
2521,69.0,2,60,6.0,0.0
2522,73.0,0,60,2.0,0.0
2523,76.0,0,60,2.0,0.0
2524,57.0,0,60,5.0,0.0
2525,69.0,3,60,12.0,0.0
2526,57.0,1,60,3.0,0.0
2527,57.0,2,60,13.0,0.0
2528,45.0,1,54,15.0,0.0
2529,45.0,108,60,14.0,0.0
2530,86.0,0,60,10.0,0.0
2531,69.0,1,60,10.0,0.0
2532,62.0,0,60,10.0,0.0
2533,86.0,1,60,0.0,0.0
2534,78.0,1,60,1.0,0.0
2535,62.0,0,60,4.0,0.0
2536,78.0,0,60,11.0,0.0
2537,62.0,0,60,11.0,0.0
2538,74.0,0,60,1.0,0.0
2539,69.0,0,60,11.0,0.0
2540,74.0,0,60,6.0,0.0
2541,62.0,2,60,6.0,0.0
2542,74.0,0,60,2.0,0.0
2543,62.0,0,60,12.0,0.0
2544,54.0,3,60,5.0,0.0
2545,62.0,0,60,3.0,0.0
2546,50.0,1,60,3.0,0.0
2547,50.0,2,60,13.0,0.0
2548,50.0,1,54,15.0,0.0
2549,38.0,229,60,14.0,0.0
2550,74.0,40,60,0.0,0.0
2551,76.0,380,40,0.0,0.0
2552,74.0,8,840,0.0,0.0
2553,78.0,360,360,0.0,0.0
2554,62.0,0,840,3.0,0.0
2555,79.0,8,360,0.0,0.0
2556,59.0,112,360,3.0,0.0
2557,81.0,0,120,0.0,0.0
2558,54.0,92,120,3.0,0.0
2559,79.0,0,100,0.0,0.0
2560,69.0,8,100,0.0,0.0
2561,52.0,72,100,3.0,0.0
2562,61.0,0,100,3.0,0.0
2563,69.0,0,60,0.0,0.0
2564,78.0,8,60,0.0,0.0
2565,50.0,172,60,3.0,0.0
2566,62.0,0,60,3.0,0.0
2567,69.0,0,120,0.0,0.0
2568,76.0,8,120,0.0,0.0
2569,61.0,212,120,3.0,0.0
2570,57.0,0,120,3.0,0.0
2571,78.0,8,100,0.0,0.0
2572,63.0,372,100,3.0,0.0
2573,54.0,0,100,3.0,0.0
2574,71.0,8,360,0.0,0.0
2575,79.0,0,360,0.0,0.0
2576,64.0,332,360,3.0,0.0
2577,52.0,0,360,3.0,0.0
2578,81.0,1,340,0.0,0.0
2579,73.0,0,340,0.0,0.0
2580,64.0,4,340,4.0,0.0
2581,57.0,3,340,5.0,0.0
2582,45.0,132,340,3.0,0.0
2583,61.0,0,340,3.0,0.0
2584,74.0,0,120,0.0,0.0
2585,78.0,1,120,0.0,0.0
2586,66.0,4,120,4.0,0.0
2587,62.0,3,120,5.0,0.0
2588,62.0,0,120,3.0,0.0
2589,50.0,92,120,3.0,0.0
2590,79.0,0,100,0.0,0.0
2591,76.0,1,100,0.0,0.0
2592,67.0,4,100,4.0,0.0
2593,64.0,3,100,5.0,0.0
2594,43.0,0,100,3.0,0.0
2595,59.0,72,100,3.0,0.0
2596,73.0,0,60,0.0,0.0
2597,76.0,1,60,0.0,0.0
2598,64.0,4,60,4.0,0.0
2599,57.0,3,60,5.0,0.0
2600,55.0,172,60,3.0,0.0
2601,45.0,0,60,3.0,0.0
2602,74.0,1,120,0.0,0.0
2603,62.0,4,120,4.0,0.0
2604,54.0,3,120,5.0,0.0
2605,50.0,172,120,3.0,0.0
2606,54.0,0,120,3.0,0.0
2607,74.0,40,60,0.0,0.0
2608,76.0,380,40,0.0,0.0
2609,74.0,8,840,0.0,0.0
2610,78.0,360,360,0.0,0.0
2611,62.0,92,840,3.0,0.0
2612,79.0,8,360,0.0,0.0
2613,59.0,112,360,3.0,0.0
2614,81.0,0,120,0.0,0.0
2615,54.0,0,120,3.0,0.0
2616,69.0,0,100,0.0,0.0
2617,79.0,8,100,0.0,0.0
2618,61.0,72,100,3.0,0.0
2619,52.0,0,100,3.0,0.0
2620,69.0,8,60,0.0,0.0
2621,78.0,0,60,0.0,0.0
2622,50.0,172,60,3.0,0.0
2623,62.0,0,60,3.0,0.0
2624,69.0,0,120,0.0,0.0
2625,76.0,8,120,0.0,0.0
2626,57.0,212,120,3.0,0.0
2627,61.0,0,120,3.0,0.0
2628,78.0,8,100,0.0,0.0
2629,54.0,372,100,3.0,0.0
2630,63.0,0,100,3.0,0.0
2631,79.0,8,360,0.0,0.0
2632,71.0,0,360,0.0,0.0
2633,52.0,332,360,3.0,0.0
2634,64.0,0,360,3.0,0.0
2635,73.0,0,340,0.0,0.0
2636,81.0,1,340,0.0,0.0
2637,64.0,4,340,4.0,0.0
2638,57.0,3,340,5.0,0.0
2639,45.0,132,340,3.0,0.0
2640,61.0,0,340,3.0,0.0
2641,78.0,0,120,0.0,0.0
2642,74.0,1,120,0.0,0.0
2643,66.0,4,120,4.0,0.0
2644,62.0,3,120,5.0,0.0
2645,62.0,0,120,3.0,0.0
2646,50.0,92,120,3.0,0.0
2647,79.0,0,100,0.0,0.0
2648,76.0,1,100,0.0,0.0
2649,67.0,4,100,4.0,0.0
2650,64.0,3,100,5.0,0.0
2651,43.0,72,100,3.0,0.0
2652,59.0,0,100,3.0,0.0
2653,76.0,0,60,0.0,0.0
2654,73.0,1,60,0.0,0.0
2655,64.0,4,60,4.0,0.0
2656,57.0,3,60,5.0,0.0
2657,55.0,172,60,3.0,0.0
2658,45.0,0,60,3.0,0.0
2659,74.0,1,120,0.0,0.0
2660,62.0,4,120,4.0,0.0
2661,54.0,3,120,5.0,0.0
2662,54.0,381,120,3.0,0.0
2663,50.0,0,120,3.0,0.0
2664,66.0,2,150,10.0,0.0
2665,66.0,4,150,11.0,0.0
2666,54.0,4,150,12.0,0.0
2667,54.0,2,150,13.0,0.0
2668,42.0,348,150,14.0,0.0
2669,66.0,2,150,10.0,0.0
2670,66.0,4,150,11.0,0.0
2671,54.0,4,150,12.0,0.0
2672,54.0,2,150,13.0,0.0
2673,42.0,258,150,14.0,0.0
2674,66.0,2,60,10.0,0.0
2675,66.0,4,60,11.0,0.0
2676,54.0,4,60,12.0,0.0
2677,54.0,2,60,13.0,0.0
2678,42.0,28,60,14.0,0.0
2679,65.0,2,40,10.0,0.0
2680,65.0,4,40,11.0,0.0
2681,53.0,4,40,12.0,0.0
2682,53.0,2,40,13.0,0.0
2683,41.0,68,40,14.0,0.0
2684,66.0,2,60,10.0,0.0
2685,66.0,4,60,11.0,0.0
2686,54.0,4,60,12.0,0.0
2687,54.0,2,60,13.0,0.0
2688,42.0,28,60,14.0,0.0
2689,65.0,2,40,10.0,0.0
2690,65.0,4,40,11.0,0.0
2691,53.0,4,40,12.0,0.0
2692,53.0,2,40,13.0,0.0
2693,41.0,68,40,14.0,0.0
2694,66.0,2,60,10.0,0.0
2695,66.0,4,60,11.0,0.0
2696,54.0,4,60,12.0,0.0
2697,54.0,2,60,13.0,0.0
2698,42.0,28,60,14.0,0.0
2699,65.0,2,40,10.0,0.0
2700,65.0,4,40,11.0,0.0
2701,53.0,4,40,12.0,0.0
2702,53.0,2,40,13.0,0.0
2703,41.0,68,40,14.0,0.0
2704,66.0,2,60,10.0,0.0
2705,66.0,4,60,11.0,0.0
2706,54.0,4,60,12.0,0.0
2707,54.0,2,60,13.0,0.0
2708,42.0,28,60,14.0,0.0
2709,65.0,2,40,10.0,0.0
2710,65.0,4,40,11.0,0.0
2711,53.0,4,40,12.0,0.0
2712,53.0,2,40,13.0,0.0
2713,41.0,68,40,14.0,0.0
2714,66.0,2,60,10.0,0.0
2715,66.0,4,60,11.0,0.0
2716,54.0,4,60,12.0,0.0
2717,54.0,2,60,13.0,0.0
2718,42.0,28,60,14.0,0.0
2719,65.0,2,40,10.0,0.0
2720,65.0,4,40,11.0,0.0
2721,53.0,4,40,12.0,0.0
2722,53.0,2,40,13.0,0.0
2723,41.0,68,40,14.0,0.0
2724,66.0,2,60,10.0,0.0
2725,66.0,4,60,11.0,0.0
2726,54.0,4,60,12.0,0.0
2727,54.0,2,60,13.0,0.0
2728,42.0,28,60,14.0,0.0
2729,65.0,2,40,10.0,0.0
2730,65.0,4,40,11.0,0.0
2731,53.0,4,40,12.0,0.0
2732,53.0,2,40,13.0,0.0
2733,41.0,53,40,14.0,0.0
2734,66.0,2,45,10.0,0.0
2735,66.0,19,45,11.0,0.0
2736,54.0,4,60,12.0,0.0
2737,54.0,2,60,13.0,0.0
2738,42.0,33,60,14.0,0.0
2739,66.0,2,45,10.0,0.0
2740,66.0,58,45,11.0,0.0
2741,70.0,2,45,10.0,0.0
2742,70.0,19,45,11.0,0.0
2743,58.0,4,60,12.0,0.0
2744,46.0,2,60,13.0,0.0
2745,34.0,33,60,14.0,0.0
2746,70.0,2,45,10.0,0.0
2747,70.0,58,45,11.0,0.0
2748,73.0,2,45,10.0,0.0
2749,73.0,19,45,11.0,0.0
2750,61.0,4,60,12.0,0.0
2751,49.0,2,60,13.0,0.0
2752,37.0,33,60,14.0,0.0
2753,73.0,2,45,10.0,0.0
2754,73.0,58,45,11.0,0.0
2755,78.0,2,45,10.0,0.0
2756,78.0,19,45,11.0,0.0
2757,66.0,4,60,12.0,0.0
2758,54.0,2,60,13.0,0.0
2759,42.0,33,60,14.0,0.0
2760,78.0,2,45,10.0,0.0
2761,78.0,58,45,11.0,0.0
2762,73.0,2,45,10.0,0.0
2763,73.0,19,45,11.0,0.0
2764,61.0,4,60,12.0,0.0
2765,49.0,2,60,13.0,0.0
2766,37.0,33,60,14.0,0.0
2767,73.0,2,45,10.0,0.0
2768,73.0,58,45,11.0,0.0
2769,70.0,2,45,10.0,0.0
2770,70.0,19,45,11.0,0.0
2771,58.0,4,60,12.0,0.0
2772,46.0,2,60,13.0,0.0
2773,34.0,33,60,14.0,0.0
2774,70.0,2,45,10.0,0.0
2775,70.0,58,45,11.0,0.0
2776,66.0,2,45,10.0,0.0
2777,66.0,19,45,11.0,0.0
2778,54.0,4,60,12.0,0.0
2779,42.0,2,60,13.0,0.0
2780,30.0,33,60,14.0,0.0
2781,66.0,2,45,10.0,0.0
2782,66.0,58,45,11.0,0.0
2783,70.0,2,45,10.0,0.0
2784,70.0,19,45,11.0,0.0
2785,58.0,4,60,12.0,0.0
2786,46.0,2,60,13.0,0.0
2787,34.0,33,60,14.0,0.0
2788,70.0,2,45,10.0,0.0
2789,70.0,58,45,11.0,0.0
2790,73.0,2,45,10.0,0.0
2791,73.0,19,45,11.0,0.0
2792,61.0,4,60,12.0,0.0
2793,49.0,2,60,13.0,0.0
2794,37.0,33,60,14.0,0.0
2795,73.0,2,45,10.0,0.0
2796,73.0,58,45,11.0,0.0
2797,78.0,2,45,10.0,0.0
2798,78.0,19,45,11.0,0.0
2799,66.0,4,60,12.0,0.0
2800,54.0,2,60,13.0,0.0
2801,42.0,33,60,14.0,0.0
2802,78.0,2,45,10.0,0.0
2803,78.0,58,45,11.0,0.0
2804,73.0,2,45,10.0,0.0
2805,73.0,19,45,11.0,0.0
2806,61.0,4,60,12.0,0.0
2807,49.0,2,60,13.0,0.0
2808,37.0,33,60,14.0,0.0
2809,73.0,2,45,10.0,0.0
2810,73.0,58,45,11.0,0.0
2811,70.0,2,45,10.0,0.0
2812,70.0,19,45,11.0,0.0
2813,58.0,4,60,12.0,0.0
2814,46.0,2,60,13.0,0.0
2815,34.0,33,60,14.0,0.0
2816,70.0,2,45,10.0,0.0
2817,70.0,58,45,11.0,0.0
2818,66.0,2,45,10.0,0.0
2819,66.0,4,45,11.0,0.0
2820,54.0,4,45,12.0,0.0
2821,42.0,2,45,13.0,0.0
2822,30.0,48,45,14.0,0.0
2823,66.0,2,45,10.0,0.0
2824,66.0,4,45,11.0,0.0
2825,54.0,4,45,12.0,0.0
2826,42.0,2,45,13.0,0.0
2827,30.0,48,45,14.0,0.0
2828,66.0,2,45,10.0,0.0
2829,66.0,4,45,11.0,0.0
2830,54.0,4,45,12.0,0.0
2831,42.0,2,45,13.0,0.0
2832,30.0,48,45,14.0,0.0
2833,66.0,2,45,10.0,0.0
2834,66.0,4,45,11.0,0.0
2835,54.0,4,45,12.0,0.0
2836,42.0,2,45,13.0,0.0
2837,30.0,48,45,14.0,0.0
2838,66.0,2,45,10.0,0.0
2839,66.0,4,45,11.0,0.0
2840,54.0,4,45,12.0,0.0
2841,42.0,2,45,13.0,0.0
2842,30.0,48,45,14.0,0.0
2843,66.0,2,45,10.0,0.0
2844,66.0,4,45,11.0,0.0
2845,54.0,4,45,12.0,0.0
2846,42.0,2,45,13.0,0.0
2847,30.0,48,45,14.0,0.0
2848,66.0,2,45,10.0,0.0
2849,66.0,4,45,11.0,0.0
2850,54.0,4,45,12.0,0.0
2851,54.0,2,45,13.0,0.0
2852,42.0,48,45,14.0,0.0
2853,66.0,2,45,10.0,0.0
2854,66.0,4,45,11.0,0.0
2855,54.0,4,45,12.0,0.0
2856,54.0,2,45,13.0,0.0
2857,42.0,48,45,14.0,0.0
2858,66.0,2,45,10.0,0.0
2859,66.0,4,45,11.0,0.0
2860,54.0,4,45,12.0,0.0
2861,54.0,2,45,13.0,0.0
2862,42.0,48,45,14.0,0.0
2863,66.0,2,45,10.0,0.0
2864,66.0,4,45,11.0,0.0
2865,54.0,4,45,12.0,0.0
2866,54.0,2,45,13.0,0.0
2867,42.0,48,45,14.0,0.0
2868,66.0,2,45,10.0,0.0
2869,66.0,4,45,11.0,0.0
2870,54.0,4,45,12.0,0.0
2871,54.0,2,45,13.0,0.0
2872,42.0,48,45,14.0,0.0
2873,66.0,2,45,10.0,0.0
2874,66.0,4,45,11.0,0.0
2875,54.0,4,45,12.0,0.0
2876,54.0,2,45,13.0,0.0
2877,42.0,48,45,14.0,0.0
2878,66.0,2,45,10.0,0.0
2879,66.0,4,45,11.0,0.0
2880,54.0,4,45,12.0,0.0
2881,42.0,2,45,13.0,0.0
2882,30.0,48,45,14.0,0.0
2883,66.0,2,45,10.0,0.0
2884,66.0,4,45,11.0,0.0
2885,54.0,4,45,12.0,0.0
2886,42.0,2,45,13.0,0.0
2887,30.0,48,45,14.0,0.0
2888,66.0,2,45,10.0,0.0
2889,66.0,4,45,11.0,0.0
2890,54.0,4,45,12.0,0.0
2891,42.0,2,45,13.0,0.0
2892,30.0,48,45,14.0,0.0
2893,66.0,2,45,10.0,0.0
2894,66.0,4,45,11.0,0.0
2895,54.0,4,45,12.0,0.0
2896,42.0,2,45,13.0,0.0
2897,30.0,48,45,14.0,0.0
2898,66.0,2,45,10.0,0.0
2899,66.0,4,45,11.0,0.0
2900,54.0,4,45,12.0,0.0
2901,42.0,2,45,13.0,0.0
2902,30.0,48,45,14.0,0.0
2903,66.0,2,45,10.0,0.0
2904,66.0,4,45,11.0,0.0
2905,54.0,4,45,12.0,0.0
2906,42.0,2,45,13.0,0.0
2907,30.0,48,45,14.0,0.0
2908,66.0,2,45,10.0,0.0
2909,66.0,4,45,11.0,0.0
2910,54.0,4,45,12.0,0.0
2911,42.0,2,45,13.0,0.0
2912,30.0,48,45,14.0,0.0
2913,66.0,2,45,10.0,0.0
2914,66.0,4,45,11.0,0.0
2915,54.0,4,45,12.0,0.0
2916,42.0,2,45,13.0,0.0
2917,30.0,48,45,14.0,0.0
2918,66.0,2,45,10.0,0.0
2919,66.0,4,45,11.0,0.0
2920,54.0,4,45,12.0,0.0
2921,42.0,2,45,13.0,0.0
2922,30.0,48,45,14.0,0.0
2923,66.0,2,45,10.0,0.0
2924,66.0,4,45,11.0,0.0
2925,54.0,4,45,12.0,0.0
2926,42.0,2,45,13.0,0.0
2927,30.0,48,45,14.0,0.0
2928,66.0,2,45,10.0,0.0
2929,66.0,4,45,11.0,0.0
2930,54.0,4,45,12.0,0.0
2931,42.0,2,45,13.0,0.0
2932,30.0,48,45,14.0,0.0
2933,66.0,2,45,10.0,0.0
2934,66.0,4,45,11.0,0.0
2935,54.0,4,45,12.0,0.0
2936,42.0,2,45,13.0,0.0
2937,30.0,693,45,14.0,0.0
2938,66.0,2,690,10.0,0.0
2939,66.0,4,690,11.0,0.0
2940,54.0,4,690,12.0,0.0
2941,42.0,2,690,13.0,0.0
2942,30.0,48,690,14.0,0.0
2943,81.0,1,720,0.0,0.0
2944,69.0,0,720,1.0,0.0
2945,81.0,0,720,1.0,0.0
2946,69.0,0,720,4.0,0.0
2947,69.0,0,720,6.0,0.0
2948,69.0,0,720,2.0,0.0
2949,81.0,0,720,2.0,0.0
2950,57.0,3,720,6.0,0.0
2951,45.0,34,24,15.0,0.0
2952,57.0,0,720,5.0,0.0
2953,45.0,0,720,3.0,0.0
2954,57.0,1,720,3.0,0.0
2955,45.0,31,24,15.0,0.0
2956,45.0,31,24,15.0,0.0
2957,45.0,30,24,15.0,0.0
2958,45.0,30,24,15.0,0.0
2959,45.0,25,24,15.0,0.0
2960,45.0,36,24,15.0,0.0
2961,45.0,27,24,15.0,0.0
2962,45.0,29,24,15.0,0.0
2963,45.0,27,24,15.0,0.0
2964,45.0,36,24,15.0,0.0
2965,45.0,32,24,15.0,0.0
2966,45.0,30,24,15.0,0.0
2967,45.0,27,24,15.0,0.0
2968,45.0,28,24,15.0,0.0
2969,45.0,36,24,15.0,0.0
2970,45.0,28,24,15.0,0.0
2971,45.0,33,24,15.0,0.0
2972,45.0,30,24,15.0,0.0
2973,45.0,25,24,15.0,0.0
2974,57.0,1,120,10.0,0.0
2975,57.0,1,120,11.0,0.0
2976,57.0,3,120,12.0,0.0
2977,45.0,2,120,13.0,0.0
2978,45.0,26,24,15.0,0.0
2979,33.0,57,120,14.0,0.0
2980,45.0,34,24,15.0,0.0
2981,45.0,25,24,15.0,0.0
2982,45.0,0,24,15.0,0.0
2983,62.0,1,120,10.0,0.0
2984,78.0,1,120,0.0,0.0
2985,78.0,67,360,1.0,0.0
2986,74.0,67,480,1.0,0.0
2987,66.0,0,120,4.0,0.0
2988,62.0,1,120,11.0,0.0
2989,62.0,0,120,6.0,0.0
2990,66.0,0,120,6.0,0.0
2991,78.0,3,120,2.0,0.0
2992,66.0,0,120,2.0,0.0
2993,62.0,4,120,5.0,0.0
2994,62.0,0,120,12.0,0.0
2995,47.0,51,60,3.0,0.0
2996,50.0,1,120,13.0,0.0
2997,50.0,1,120,15.0,0.0
2998,38.0,57,120,14.0,0.0
2999,62.0,120,60,3.0,0.0
3000,61.0,53,60,3.0,0.0
3001,79.0,0,360,1.0,0.0
3002,59.0,53,60,3.0,0.0
3003,73.0,67,120,1.0,0.0
3004,57.0,53,60,3.0,0.0
3005,71.0,67,120,1.0,0.0
3006,55.0,53,60,3.0,0.0
3007,69.0,0,120,1.0,0.0
3008,81.0,4,120,1.0,0.0
3009,54.0,53,60,3.0,0.0
3010,73.0,0,120,1.0,0.0
3011,69.0,0,0,4.0,0.0
3012,79.0,0,120,1.0,0.0
3013,57.0,63,0,5.0,0.0
3014,52.0,53,60,3.0,0.0
3015,78.0,7,60,1.0,0.0
3016,74.0,0,60,1.0,0.0
3017,69.0,4,120,4.0,0.0
3018,57.0,56,0,5.0,0.0
3019,50.0,53,60,3.0,0.0
3020,73.0,4,120,1.0,0.0
3021,76.0,0,120,1.0,0.0
3022,69.0,0,120,4.0,0.0
3023,57.0,3,120,5.0,0.0
3024,57.0,173,120,3.0,0.0
3025,78.0,1,60,1.0,0.0
3026,75.0,0,60,1.0,0.0
3027,69.0,6,60,2.0,0.0
3028,54.0,120,60,3.0,0.0
3029,76.0,67,480,1.0,0.0
3030,79.0,1,360,1.0,0.0
3031,71.0,66,360,2.0,0.0
3032,52.0,120,60,3.0,0.0
3033,64.0,120,60,3.0,0.0
3034,62.0,53,60,3.0,0.0
3035,81.0,1,360,1.0,0.0
3036,64.0,0,360,4.0,0.0
3037,69.0,66,240,2.0,0.0
3038,57.0,116,360,5.0,0.0
3039,61.0,53,60,3.0,0.0
3040,74.0,1,120,1.0,0.0
3041,59.0,53,60,3.0,0.0
3042,73.0,0,120,1.0,0.0
3043,67.0,3,120,2.0,0.0
3044,57.0,53,60,3.0,0.0
3045,66.0,1,120,4.0,0.0
3046,78.0,0,120,1.0,0.0
3047,74.0,0,120,1.0,0.0
3048,66.0,3,120,2.0,0.0
3049,62.0,3,120,5.0,0.0
3050,62.0,113,120,3.0,0.0
3051,67.0,0,120,4.0,0.0
3052,79.0,1,120,1.0,0.0
3053,76.0,0,120,1.0,0.0
3054,71.0,3,120,2.0,0.0
3055,64.0,3,120,5.0,0.0
3056,55.0,53,120,3.0,0.0
3057,73.0,0,60,1.0,0.0
3058,64.0,0,60,4.0,0.0
3059,76.0,1,60,1.0,0.0
3060,67.0,3,60,2.0,0.0
3061,57.0,3,60,5.0,0.0
3062,57.0,173,60,3.0,0.0
3063,62.0,1,120,4.0,0.0
3064,74.0,0,120,1.0,0.0
3065,66.0,3,120,2.0,0.0
3066,54.0,3,120,5.0,0.0
3067,50.0,171,120,3.0,0.0
3068,62.0,60,60,10.0,0.0
3069,64.0,126,60,10.0,0.0
3070,66.0,2,360,10.0,0.0
3071,62.0,4,480,11.0,0.0
3072,66.0,4,360,4.0,0.0
3073,50.0,0,720,5.0,0.0
3074,50.0,4,120,12.0,0.0
3075,50.0,2,120,13.0,0.0
3076,38.0,114,120,14.0,0.0
3077,62.0,4,120,12.0,0.0
3078,62.0,2,120,13.0,0.0
3079,50.0,108,120,14.0,0.0
3080,61.0,4,120,12.0,0.0
3081,61.0,2,120,13.0,0.0
3082,49.0,110,120,14.0,0.0
3083,67.0,2,360,10.0,0.0
3084,67.0,4,360,4.0,0.0
3085,59.0,4,120,12.0,0.0
3086,59.0,2,120,13.0,0.0
3087,47.0,110,120,14.0,0.0
3088,61.0,4,120,11.0,0.0
3089,57.0,4,120,12.0,0.0
3090,57.0,2,120,13.0,0.0
3091,45.0,108,120,14.0,0.0
3092,59.0,0,120,11.0,0.0
3093,55.0,4,120,12.0,0.0
3094,55.0,2,120,13.0,0.0
3095,43.0,108,120,14.0,0.0
3096,69.0,2,120,10.0,0.0
3097,57.0,0,120,11.0,0.0
3098,69.0,4,120,4.0,0.0
3099,54.0,4,120,12.0,0.0
3100,50.0,0,120,5.0,0.0
3101,54.0,2,120,13.0,0.0
3102,42.0,108,120,14.0,0.0
3103,67.0,2,120,10.0,0.0
3104,59.0,4,120,11.0,0.0
3105,67.0,0,120,4.0,0.0
3106,52.0,0,120,12.0,0.0
3107,49.0,4,120,5.0,0.0
3108,52.0,2,120,13.0,0.0
3109,40.0,48,120,14.0,0.0
3110,66.0,2,60,10.0,0.0
3111,62.0,4,60,11.0,0.0
3112,66.0,0,60,4.0,0.0
3113,50.0,60,60,5.0,0.0
3114,50.0,4,120,12.0,0.0
3115,50.0,2,120,13.0,0.0
3116,38.0,108,120,14.0,0.0
3117,64.0,2,120,10.0,0.0
3118,64.0,0,120,4.0,0.0
3119,61.0,4,120,11.0,0.0
3120,45.0,0,120,5.0,0.0
3121,57.0,4,120,12.0,0.0
3122,57.0,2,120,13.0,0.0
3123,45.0,228,120,14.0,0.0
3124,66.0,2,120,10.0,0.0
3125,66.0,4,120,4.0,0.0
3126,63.0,0,120,11.0,0.0
3127,54.0,3,120,12.0,0.0
3128,57.0,1,120,3.0,0.0
3129,54.0,2,120,13.0,0.0
3130,42.0,114,120,14.0,0.0
3131,67.0,2,360,10.0,0.0
3132,67.0,4,360,4.0,0.0
3133,64.0,4,480,11.0,0.0
3134,52.0,4,120,12.0,0.0
3135,59.0,1,360,3.0,0.0
3136,52.0,2,120,13.0,0.0
3137,40.0,114,120,14.0,0.0
3138,64.0,4,120,12.0,0.0
3139,64.0,2,120,13.0,0.0
3140,52.0,108,120,14.0,0.0
3141,62.0,3,120,12.0,0.0
3142,62.0,2,120,13.0,0.0
3143,50.0,110,120,14.0,0.0
3144,69.0,2,360,10.0,0.0
3145,69.0,0,360,4.0,0.0
3146,61.0,4,120,12.0,0.0
3147,57.0,3,360,5.0,0.0
3148,57.0,1,360,3.0,0.0
3149,61.0,2,120,13.0,0.0
3150,49.0,110,120,14.0,0.0
3151,62.0,4,120,11.0,0.0
3152,59.0,4,120,12.0,0.0
3153,59.0,2,120,13.0,0.0
3154,47.0,108,120,14.0,0.0
3155,61.0,4,120,11.0,0.0
3156,57.0,0,120,12.0,0.0
3157,57.0,2,120,13.0,0.0
3158,45.0,108,120,14.0,0.0
3159,66.0,2,120,10.0,0.0
3160,66.0,0,120,4.0,0.0
3161,62.0,4,120,11.0,0.0
3162,62.0,3,120,12.0,0.0
3163,62.0,0,120,5.0,0.0
3164,57.0,1,120,3.0,0.0
3165,62.0,2,120,13.0,0.0
3166,50.0,108,120,14.0,0.0
3167,67.0,2,120,10.0,0.0
3168,67.0,4,120,4.0,0.0
3169,64.0,0,120,11.0,0.0
3170,55.0,3,120,12.0,0.0
3171,64.0,0,120,5.0,0.0
3172,59.0,1,120,3.0,0.0
3173,55.0,2,120,13.0,0.0
3174,43.0,48,120,14.0,0.0
3175,64.0,2,60,10.0,0.0
3176,76.0,0,60,1.0,0.0
3177,73.0,0,60,1.0,0.0
3178,64.0,0,60,4.0,0.0
3179,61.0,4,60,11.0,0.0
3180,57.0,4,120,12.0,0.0
3181,57.0,3,60,5.0,0.0
3182,55.0,57,60,3.0,0.0
3183,57.0,2,120,13.0,0.0
3184,45.0,108,120,14.0,0.0
3185,62.0,2,120,10.0,0.0
3186,74.0,4,120,1.0,0.0
3187,62.0,0,120,4.0,0.0
3188,62.0,0,120,11.0,0.0
3189,78.0,0,120,1.0,0.0
3190,50.0,3,120,12.0,0.0
3191,54.0,0,120,5.0,0.0
3192,54.0,1,120,3.0,0.0
3193,50.0,2,120,13.0,0.0
3194,38.0,110,120,14.0,0.0
3195,79.0,58,120,1.0,0.0
3196,76.0,0,120,1.0,0.0
3197,64.0,2,60,10.0,0.0
3198,61.0,0,60,11.0,0.0
3199,64.0,0,60,4.0,0.0
3200,73.0,0,60,1.0,0.0
3201,76.0,4,60,1.0,0.0
3202,57.0,3,60,5.0,0.0
3203,57.0,4,120,12.0,0.0
3204,55.0,57,60,3.0,0.0
3205,57.0,2,120,13.0,0.0
3206,45.0,108,120,14.0,0.0
3207,66.0,2,120,10.0,0.0
3208,66.0,0,120,4.0,0.0
3209,62.0,0,120,11.0,0.0
3210,74.0,4,120,1.0,0.0
3211,62.0,0,120,12.0,0.0
3212,62.0,3,120,5.0,0.0
3213,57.0,1,120,3.0,0.0
3214,62.0,2,120,13.0,0.0
3215,50.0,108,120,14.0,0.0
3216,67.0,2,120,10.0,0.0
3217,67.0,4,120,4.0,0.0
3218,64.0,0,120,11.0,0.0
3219,64.0,0,120,5.0,0.0
3220,55.0,3,120,12.0,0.0
3221,59.0,1,120,3.0,0.0
3222,55.0,2,120,13.0,0.0
3223,43.0,48,120,14.0,0.0
3224,64.0,2,60,10.0,0.0
3225,61.0,0,60,11.0,0.0
3226,73.0,0,60,1.0,0.0
3227,76.0,0,60,1.0,0.0
3228,64.0,4,60,4.0,0.0
3229,57.0,4,120,12.0,0.0
3230,57.0,3,60,5.0,0.0
3231,55.0,57,60,3.0,0.0
3232,57.0,2,120,13.0,0.0
3233,45.0,108,120,14.0,0.0
3234,62.0,2,120,10.0,0.0
3235,62.0,0,120,11.0,0.0
3236,62.0,0,120,4.0,0.0
3237,74.0,0,120,1.0,0.0
3238,78.0,4,120,1.0,0.0
3239,50.0,0,120,12.0,0.0
3240,54.0,3,120,5.0,0.0
3241,54.0,1,120,3.0,0.0
3242,50.0,2,120,13.0,0.0
3243,38.0,110,120,14.0,0.0
3244,79.0,0,120,1.0,0.0
3245,64.0,2,60,10.0,0.0
3246,73.0,4,60,1.0,0.0
3247,76.0,58,0,1.0,0.0
3248,64.0,0,60,4.0,0.0
3249,61.0,0,60,11.0,0.0
3250,57.0,4,120,12.0,0.0
3251,57.0,60,60,5.0,0.0
3252,57.0,2,120,13.0,0.0
3253,45.0,48,120,14.0,0.0
3254,66.0,2,60,10.0,0.0
3255,66.0,0,120,4.0,0.0
3256,62.0,60,60,11.0,0.0
3257,74.0,0,120,1.0,0.0
3258,78.0,4,120,1.0,0.0
3259,62.0,4,120,12.0,0.0
3260,62.0,0,120,5.0,0.0
3261,62.0,2,120,13.0,0.0
3262,50.0,110,120,14.0,0.0
3263,76.0,4,120,1.0,0.0
3264,79.0,0,120,1.0,0.0
3265,67.0,0,120,4.0,0.0
3266,64.0,54,120,5.0,0.0
3267,64.0,2,60,10.0,0.0
3268,61.0,0,60,11.0,0.0
3269,64.0,0,60,4.0,0.0
3270,73.0,0,60,1.0,0.0
3271,76.0,4,60,1.0,0.0
3272,57.0,4,120,12.0,0.0
3273,57.0,60,60,5.0,0.0
3274,57.0,2,120,13.0,0.0
3275,45.0,48,120,14.0,0.0
3276,66.0,2,60,10.0,0.0
3277,66.0,0,120,4.0,0.0
3278,74.0,0,120,1.0,0.0
3279,78.0,4,120,1.0,0.0
3280,62.0,60,60,11.0,0.0
3281,62.0,4,120,5.0,0.0
3282,62.0,0,120,12.0,0.0
3283,62.0,2,120,13.0,0.0
3284,50.0,110,120,14.0,0.0
3285,67.0,0,120,4.0,0.0
3286,79.0,0,120,1.0,0.0
3287,64.0,54,120,5.0,0.0
3288,73.0,1,60,10.0,0.0
3289,85.0,0,60,0.0,0.0
3290,88.0,1,60,0.0,0.0
3291,64.0,0,60,4.0,0.0
3292,76.0,4,0,1.0,0.0
3293,64.0,0,60,11.0,0.0
3294,73.0,0,60,1.0,0.0
3295,64.0,0,60,2.0,0.0
3296,73.0,3,60,2.0,0.0
3297,57.0,3,60,5.0,0.0
3298,57.0,4,120,12.0,0.0
3299,45.0,57,60,3.0,0.0
3300,57.0,0,60,3.0,0.0
3301,57.0,2,120,13.0,0.0
3302,45.0,108,120,14.0,0.0
3303,74.0,1,120,10.0,0.0
3304,90.0,1,120,0.0,0.0
3305,86.0,0,120,0.0,0.0
3306,78.0,0,120,1.0,0.0
3307,74.0,0,120,1.0,0.0
3308,66.0,0,120,4.0,0.0
3309,66.0,1,120,11.0,0.0
3310,66.0,3,120,2.0,0.0
3311,74.0,0,120,2.0,0.0
3312,62.0,0,120,5.0,0.0
3313,62.0,3,120,12.0,0.0
3314,57.0,1,120,3.0,0.0
3315,50.0,0,120,3.0,0.0
3316,62.0,2,120,13.0,0.0
3317,50.0,108,120,14.0,0.0
3318,76.0,1,120,10.0,0.0
3319,88.0,1,120,0.0,0.0
3320,91.0,0,120,0.0,0.0
3321,67.0,0,120,4.0,0.0
3322,67.0,1,120,11.0,0.0
3323,79.0,0,120,1.0,0.0
3324,67.0,3,120,2.0,0.0
3325,76.0,0,120,2.0,0.0
3326,55.0,0,120,12.0,0.0
3327,64.0,3,120,5.0,0.0
3328,43.0,1,120,3.0,0.0
3329,59.0,0,120,3.0,0.0
3330,55.0,2,120,13.0,0.0
3331,43.0,48,120,14.0,0.0
3332,73.0,1,60,10.0,0.0
3333,85.0,1,60,0.0,0.0
3334,88.0,0,60,0.0,0.0
3335,76.0,0,0,1.0,0.0
3336,73.0,0,60,1.0,0.0
3337,64.0,1,60,4.0,0.0
3338,64.0,0,60,11.0,0.0
3339,73.0,3,60,2.0,0.0
3340,64.0,0,60,2.0,0.0
3341,57.0,4,120,12.0,0.0
3342,57.0,3,60,5.0,0.0
3343,61.0,0,60,3.0,0.0
3344,45.0,57,60,3.0,0.0
3345,57.0,2,120,13.0,0.0
3346,45.0,108,120,14.0,0.0
3347,74.0,1,120,10.0,0.0
3348,86.0,1,120,0.0,0.0
3349,62.0,0,120,4.0,0.0
3350,66.0,0,120,11.0,0.0
3351,74.0,1,120,1.0,0.0
3352,66.0,0,120,2.0,0.0
3353,74.0,3,120,2.0,0.0
3354,54.0,3,120,5.0,0.0
3355,50.0,0,120,12.0,0.0
3356,62.0,1,120,3.0,0.0
3357,50.0,0,120,3.0,0.0
3358,50.0,2,120,13.0,0.0
3359,38.0,378,120,14.0,0.0
3360,66.0,2,150,10.0,0.0
3361,66.0,4,150,11.0,0.0
3362,54.0,4,150,12.0,0.0
3363,54.0,2,150,13.0,0.0
3364,42.0,348,150,14.0,0.0
3365,66.0,2,150,10.0,0.0
3366,66.0,4,150,11.0,0.0
3367,54.0,4,150,12.0,0.0
3368,54.0,2,150,13.0,0.0
3369,42.0,258,150,14.0,0.0
3370,66.0,2,60,10.0,0.0
3371,66.0,4,60,11.0,0.0
3372,54.0,4,60,12.0,0.0
3373,54.0,2,60,13.0,0.0
3374,42.0,28,60,14.0,0.0
3375,65.0,2,40,10.0,0.0
3376,65.0,4,40,11.0,0.0
3377,53.0,4,40,12.0,0.0
3378,53.0,2,40,13.0,0.0
3379,41.0,68,40,14.0,0.0
3380,66.0,2,60,10.0,0.0
3381,66.0,4,60,11.0,0.0
3382,54.0,4,60,12.0,0.0
3383,54.0,2,60,13.0,0.0
3384,42.0,28,60,14.0,0.0
3385,65.0,2,40,10.0,0.0
3386,65.0,4,40,11.0,0.0
3387,53.0,4,40,12.0,0.0
3388,53.0,2,40,13.0,0.0
3389,41.0,68,40,14.0,0.0
3390,66.0,2,60,10.0,0.0
3391,66.0,4,60,11.0,0.0
3392,54.0,4,60,12.0,0.0
3393,54.0,2,60,13.0,0.0
3394,42.0,28,60,14.0,0.0
3395,65.0,2,40,10.0,0.0
3396,65.0,4,40,11.0,0.0
3397,53.0,4,40,12.0,0.0
3398,53.0,2,40,13.0,0.0
3399,41.0,68,40,14.0,0.0
3400,66.0,2,60,10.0,0.0
3401,66.0,4,60,11.0,0.0
3402,54.0,4,60,12.0,0.0
3403,54.0,2,60,13.0,0.0
3404,42.0,28,60,14.0,0.0
3405,65.0,2,40,10.0,0.0
3406,65.0,4,40,11.0,0.0
3407,53.0,4,40,12.0,0.0
3408,53.0,2,40,13.0,0.0
3409,41.0,68,40,14.0,0.0
3410,66.0,2,60,10.0,0.0
3411,66.0,4,60,11.0,0.0
3412,54.0,4,60,12.0,0.0
3413,54.0,2,60,13.0,0.0
3414,42.0,28,60,14.0,0.0
3415,65.0,2,40,10.0,0.0
3416,65.0,4,40,11.0,0.0
3417,53.0,4,40,12.0,0.0
3418,53.0,2,40,13.0,0.0
3419,41.0,68,40,14.0,0.0
3420,66.0,2,60,10.0,0.0
3421,66.0,4,60,11.0,0.0
3422,54.0,4,60,12.0,0.0
3423,54.0,2,60,13.0,0.0
3424,42.0,28,60,14.0,0.0
3425,65.0,2,40,10.0,0.0
3426,65.0,4,40,11.0,0.0
3427,53.0,4,40,12.0,0.0
3428,53.0,2,40,13.0,0.0
3429,41.0,53,40,14.0,0.0
3430,66.0,2,45,10.0,0.0
3431,66.0,19,45,11.0,0.0
3432,54.0,4,60,12.0,0.0
3433,54.0,2,60,13.0,0.0
3434,42.0,33,60,14.0,0.0
3435,66.0,2,45,10.0,0.0
3436,66.0,58,45,11.0,0.0
3437,70.0,2,45,10.0,0.0
3438,70.0,19,45,11.0,0.0
3439,58.0,4,60,12.0,0.0
3440,46.0,2,60,13.0,0.0
3441,34.0,33,60,14.0,0.0
3442,70.0,2,45,10.0,0.0
3443,70.0,58,45,11.0,0.0
3444,73.0,2,45,10.0,0.0
3445,73.0,19,45,11.0,0.0
3446,61.0,4,60,12.0,0.0
3447,49.0,2,60,13.0,0.0
3448,37.0,33,60,14.0,0.0
3449,73.0,2,45,10.0,0.0
3450,73.0,58,45,11.0,0.0
3451,78.0,2,45,10.0,0.0
3452,78.0,19,45,11.0,0.0
3453,66.0,4,60,12.0,0.0
3454,54.0,2,60,13.0,0.0
3455,42.0,33,60,14.0,0.0
3456,78.0,2,45,10.0,0.0
3457,78.0,58,45,11.0,0.0
3458,73.0,2,45,10.0,0.0
3459,73.0,19,45,11.0,0.0
3460,61.0,4,60,12.0,0.0
3461,49.0,2,60,13.0,0.0
3462,37.0,33,60,14.0,0.0
3463,73.0,2,45,10.0,0.0
3464,73.0,58,45,11.0,0.0
3465,70.0,2,45,10.0,0.0
3466,70.0,19,45,11.0,0.0
3467,58.0,4,60,12.0,0.0
3468,46.0,2,60,13.0,0.0
3469,34.0,33,60,14.0,0.0
3470,70.0,2,45,10.0,0.0
3471,70.0,58,45,11.0,0.0
3472,66.0,2,45,10.0,0.0
3473,66.0,19,45,11.0,0.0
3474,54.0,4,60,12.0,0.0
3475,42.0,2,60,13.0,0.0
3476,30.0,33,60,14.0,0.0
3477,66.0,2,45,10.0,0.0
3478,66.0,58,45,11.0,0.0
3479,70.0,2,45,10.0,0.0
3480,70.0,19,45,11.0,0.0
3481,58.0,4,60,12.0,0.0
3482,46.0,2,60,13.0,0.0
3483,34.0,33,60,14.0,0.0
3484,70.0,2,45,10.0,0.0
3485,70.0,58,45,11.0,0.0
3486,73.0,2,45,10.0,0.0
3487,73.0,19,45,11.0,0.0
3488,61.0,4,60,12.0,0.0
3489,49.0,2,60,13.0,0.0
3490,37.0,33,60,14.0,0.0
3491,73.0,2,45,10.0,0.0
3492,73.0,58,45,11.0,0.0
3493,78.0,2,45,10.0,0.0
3494,78.0,19,45,11.0,0.0
3495,66.0,4,60,12.0,0.0
3496,54.0,2,60,13.0,0.0
3497,42.0,33,60,14.0,0.0
3498,78.0,2,45,10.0,0.0
3499,78.0,58,45,11.0,0.0
3500,73.0,2,45,10.0,0.0
3501,73.0,19,45,11.0,0.0
3502,61.0,4,60,12.0,0.0
3503,49.0,2,60,13.0,0.0
3504,37.0,33,60,14.0,0.0
3505,73.0,2,45,10.0,0.0
3506,73.0,58,45,11.0,0.0
3507,70.0,2,45,10.0,0.0
3508,70.0,19,45,11.0,0.0
3509,58.0,4,60,12.0,0.0
3510,46.0,2,60,13.0,0.0
3511,34.0,33,60,14.0,0.0
3512,70.0,2,45,10.0,0.0
3513,70.0,58,45,11.0,0.0
3514,66.0,2,45,10.0,0.0
3515,66.0,4,45,11.0,0.0
3516,54.0,4,45,12.0,0.0
3517,42.0,2,45,13.0,0.0
3518,30.0,48,45,14.0,0.0
3519,66.0,2,45,10.0,0.0
3520,66.0,4,45,11.0,0.0
3521,54.0,4,45,12.0,0.0
3522,42.0,2,45,13.0,0.0
3523,30.0,48,45,14.0,0.0
3524,66.0,2,45,10.0,0.0
3525,66.0,4,45,11.0,0.0
3526,54.0,4,45,12.0,0.0
3527,42.0,2,45,13.0,0.0
3528,30.0,48,45,14.0,0.0
3529,66.0,2,45,10.0,0.0
3530,66.0,4,45,11.0,0.0
3531,54.0,4,45,12.0,0.0
3532,42.0,2,45,13.0,0.0
3533,30.0,48,45,14.0,0.0
3534,66.0,2,45,10.0,0.0
3535,66.0,4,45,11.0,0.0
3536,54.0,4,45,12.0,0.0
3537,42.0,2,45,13.0,0.0
3538,30.0,48,45,14.0,0.0
3539,66.0,2,45,10.0,0.0
3540,66.0,4,45,11.0,0.0
3541,54.0,4,45,12.0,0.0
3542,42.0,2,45,13.0,0.0
3543,30.0,48,45,14.0,0.0
3544,66.0,2,45,10.0,0.0
3545,66.0,4,45,11.0,0.0
3546,54.0,4,45,12.0,0.0
3547,54.0,2,45,13.0,0.0
3548,42.0,48,45,14.0,0.0
3549,66.0,2,45,10.0,0.0
3550,66.0,4,45,11.0,0.0
3551,54.0,4,45,12.0,0.0
3552,54.0,2,45,13.0,0.0
3553,42.0,48,45,14.0,0.0
3554,66.0,2,45,10.0,0.0
3555,66.0,4,45,11.0,0.0
3556,54.0,4,45,12.0,0.0
3557,54.0,2,45,13.0,0.0
3558,42.0,48,45,14.0,0.0
3559,66.0,2,45,10.0,0.0
3560,66.0,4,45,11.0,0.0
3561,54.0,4,45,12.0,0.0
3562,54.0,2,45,13.0,0.0
3563,42.0,48,45,14.0,0.0
3564,66.0,2,45,10.0,0.0
3565,66.0,4,45,11.0,0.0
3566,54.0,4,45,12.0,0.0
3567,54.0,2,45,13.0,0.0
3568,42.0,48,45,14.0,0.0
3569,66.0,2,45,10.0,0.0
3570,66.0,4,45,11.0,0.0
3571,54.0,4,45,12.0,0.0
3572,54.0,2,45,13.0,0.0
3573,42.0,48,45,14.0,0.0
3574,66.0,2,45,10.0,0.0
3575,66.0,4,45,11.0,0.0
3576,54.0,4,45,12.0,0.0
3577,42.0,2,45,13.0,0.0
3578,30.0,48,45,14.0,0.0
3579,66.0,2,45,10.0,0.0
3580,66.0,4,45,11.0,0.0
3581,54.0,4,45,12.0,0.0
3582,42.0,2,45,13.0,0.0
3583,30.0,48,45,14.0,0.0
3584,66.0,2,45,10.0,0.0
3585,66.0,4,45,11.0,0.0
3586,54.0,4,45,12.0,0.0
3587,42.0,2,45,13.0,0.0
3588,30.0,48,45,14.0,0.0
3589,66.0,2,45,10.0,0.0
3590,66.0,4,45,11.0,0.0
3591,54.0,4,45,12.0,0.0
3592,42.0,2,45,13.0,0.0
3593,30.0,48,45,14.0,0.0
3594,66.0,2,45,10.0,0.0
3595,66.0,4,45,11.0,0.0
3596,54.0,4,45,12.0,0.0
3597,42.0,2,45,13.0,0.0
3598,30.0,48,45,14.0,0.0
3599,66.0,2,45,10.0,0.0
3600,66.0,4,45,11.0,0.0
3601,54.0,4,45,12.0,0.0
3602,42.0,2,45,13.0,0.0
3603,30.0,48,45,14.0,0.0
3604,66.0,2,45,10.0,0.0
3605,66.0,4,45,11.0,0.0
3606,54.0,4,45,12.0,0.0
3607,42.0,2,45,13.0,0.0
3608,30.0,48,45,14.0,0.0
3609,66.0,2,45,10.0,0.0
3610,66.0,4,45,11.0,0.0
3611,54.0,4,45,12.0,0.0
3612,42.0,2,45,13.0,0.0
3613,30.0,48,45,14.0,0.0
3614,66.0,2,45,10.0,0.0
3615,66.0,4,45,11.0,0.0
3616,54.0,4,45,12.0,0.0
3617,42.0,2,45,13.0,0.0
3618,30.0,48,45,14.0,0.0
3619,66.0,2,45,10.0,0.0
3620,66.0,4,45,11.0,0.0
3621,54.0,4,45,12.0,0.0
3622,42.0,2,45,13.0,0.0
3623,30.0,48,45,14.0,0.0
3624,66.0,2,45,10.0,0.0
3625,66.0,4,45,11.0,0.0
3626,54.0,4,45,12.0,0.0
3627,42.0,2,45,13.0,0.0
3628,30.0,48,45,14.0,0.0
3629,66.0,2,45,10.0,0.0
3630,66.0,4,45,11.0,0.0
3631,54.0,4,45,12.0,0.0
3632,42.0,2,45,13.0,0.0
3633,30.0,693,45,14.0,0.0
3634,66.0,2,690,10.0,0.0
3635,66.0,4,690,11.0,0.0
3636,54.0,4,690,12.0,0.0
3637,42.0,2,690,13.0,0.0
3638,30.0,53,690,14.0,0.0
3639,81.0,1,720,0.0,0.0
3640,69.0,0,720,4.0,0.0
3641,69.0,0,720,1.0,0.0
3642,81.0,0,720,1.0,0.0
3643,69.0,3,720,2.0,0.0
3644,81.0,0,720,2.0,0.0
3645,57.0,0,720,6.0,0.0
3646,69.0,0,720,6.0,0.0
3647,57.0,1,720,5.0,0.0
3648,57.0,1,720,3.0,0.0
3649,45.0,0,720,3.0,0.0
3650,45.0,34,24,15.0,0.0
3651,45.0,31,24,15.0,0.0
3652,45.0,31,24,15.0,0.0
3653,45.0,30,24,15.0,0.0
3654,45.0,30,24,15.0,0.0
3655,45.0,25,24,15.0,0.0
3656,45.0,36,24,15.0,0.0
3657,45.0,27,24,15.0,0.0
3658,45.0,29,24,15.0,0.0
3659,45.0,27,24,15.0,0.0
3660,45.0,36,24,15.0,0.0
3661,45.0,32,24,15.0,0.0
3662,45.0,30,24,15.0,0.0
3663,45.0,27,24,15.0,0.0
3664,45.0,28,24,15.0,0.0
3665,45.0,36,24,15.0,0.0
3666,45.0,28,24,15.0,0.0
3667,45.0,33,24,15.0,0.0
3668,45.0,30,24,15.0,0.0
3669,45.0,25,24,15.0,0.0
3670,57.0,1,120,10.0,0.0
3671,57.0,1,120,11.0,0.0
3672,57.0,0,120,12.0,0.0
3673,45.0,2,120,13.0,0.0
3674,33.0,57,120,14.0,0.0
3675,45.0,26,24,15.0,0.0
3676,45.0,34,24,15.0,0.0
3677,45.0,20,24,15.0,0.0
3678,45.0,2,24,15.0,0.0
3679,62.0,1,120,10.0,0.0
3680,78.0,1,120,0.0,0.0
3681,66.0,1,120,4.0,0.0
3682,78.0,67,360,1.0,0.0
3683,74.0,67,480,1.0,0.0
3684,62.0,0,120,11.0,0.0
3685,66.0,3,120,2.0,0.0
3686,78.0,0,120,2.0,0.0
3687,62.0,0,120,6.0,0.0
3688,66.0,0,120,6.0,0.0
3689,62.0,0,120,12.0,0.0
3690,62.0,4,120,5.0,0.0
3691,47.0,51,60,3.0,0.0
3692,50.0,1,120,13.0,0.0
3693,50.0,1,120,15.0,0.0
3694,38.0,57,120,14.0,0.0
3695,62.0,120,60,3.0,0.0
3696,61.0,53,60,3.0,0.0
3697,79.0,67,360,1.0,0.0
3698,59.0,53,60,3.0,0.0
3699,73.0,67,120,1.0,0.0
3700,57.0,53,60,3.0,0.0
3701,71.0,0,120,1.0,0.0
3702,55.0,53,60,3.0,0.0
3703,69.0,0,120,1.0,0.0
3704,81.0,4,120,1.0,0.0
3705,69.0,0,120,4.0,0.0
3706,57.0,63,120,5.0,0.0
3707,54.0,53,60,3.0,0.0
3708,73.0,0,120,1.0,0.0
3709,79.0,4,120,1.0,0.0
3710,52.0,53,60,3.0,0.0
3711,69.0,0,0,4.0,0.0
3712,74.0,7,60,1.0,0.0
3713,78.0,0,60,1.0,0.0
3714,57.0,56,0,5.0,0.0
3715,50.0,53,60,3.0,0.0
3716,73.0,0,120,1.0,0.0
3717,76.0,4,120,1.0,0.0
3718,69.0,4,0,4.0,0.0
3719,57.0,116,0,5.0,0.0
3720,57.0,173,120,3.0,0.0
3721,78.0,1,60,1.0,0.0
3722,75.0,0,60,1.0,0.0
3723,69.0,6,60,2.0,0.0
3724,54.0,120,60,3.0,0.0
3725,76.0,67,480,1.0,0.0
3726,79.0,1,360,1.0,0.0
3727,71.0,66,360,2.0,0.0
3728,52.0,120,60,3.0,0.0
3729,64.0,120,60,3.0,0.0
3730,62.0,53,60,3.0,0.0
3731,64.0,1,360,4.0,0.0
3732,81.0,0,360,1.0,0.0
3733,69.0,66,240,2.0,0.0
3734,57.0,116,360,5.0,0.0
3735,61.0,53,60,3.0,0.0
3736,74.0,1,120,1.0,0.0
3737,59.0,53,60,3.0,0.0
3738,73.0,0,120,1.0,0.0
3739,67.0,3,120,2.0,0.0
3740,57.0,53,60,3.0,0.0
3741,78.0,0,120,1.0,0.0
3742,74.0,1,120,1.0,0.0
3743,66.0,0,120,4.0,0.0
3744,66.0,3,120,2.0,0.0
3745,62.0,3,120,5.0,0.0
3746,62.0,113,120,3.0,0.0
3747,79.0,0,120,1.0,0.0
3748,67.0,1,120,4.0,0.0
3749,71.0,3,120,2.0,0.0
3750,64.0,3,120,5.0,0.0
3751,55.0,53,120,3.0,0.0
3752,73.0,0,60,1.0,0.0
3753,76.0,0,0,1.0,0.0
3754,64.0,1,60,4.0,0.0
3755,67.0,3,60,2.0,0.0
3756,57.0,3,60,5.0,0.0
3757,57.0,173,60,3.0,0.0
3758,74.0,1,120,1.0,0.0
3759,62.0,0,120,4.0,0.0
3760,66.0,3,120,2.0,0.0
3761,54.0,3,120,5.0,0.0
3762,50.0,171,120,3.0,0.0
3763,62.0,60,60,10.0,0.0
3764,64.0,126,60,10.0,0.0
3765,66.0,2,360,10.0,0.0
3766,62.0,4,480,11.0,0.0
3767,66.0,4,360,4.0,0.0
3768,50.0,4,120,12.0,0.0
3769,50.0,2,120,13.0,0.0
3770,38.0,114,120,14.0,0.0
3771,62.0,4,120,12.0,0.0
3772,62.0,2,120,13.0,0.0
3773,50.0,108,120,14.0,0.0
3774,61.0,4,120,12.0,0.0
3775,61.0,2,120,13.0,0.0
3776,49.0,110,120,14.0,0.0
3777,67.0,2,360,10.0,0.0
3778,67.0,0,360,4.0,0.0
3779,59.0,4,120,12.0,0.0
3780,59.0,2,120,13.0,0.0
3781,47.0,110,120,14.0,0.0
3782,61.0,4,120,11.0,0.0
3783,57.0,4,120,12.0,0.0
3784,57.0,2,120,13.0,0.0
3785,45.0,108,120,14.0,0.0
3786,59.0,4,120,11.0,0.0
3787,55.0,0,120,12.0,0.0
3788,55.0,2,120,13.0,0.0
3789,43.0,108,120,14.0,0.0
3790,69.0,2,120,10.0,0.0
3791,57.0,0,120,11.0,0.0
3792,69.0,4,120,4.0,0.0
3793,54.0,0,120,12.0,0.0
3794,50.0,4,0,5.0,0.0
3795,54.0,2,120,13.0,0.0
3796,42.0,108,120,14.0,0.0
3797,67.0,2,120,10.0,0.0
3798,59.0,0,120,11.0,0.0
3799,67.0,4,120,4.0,0.0
3800,52.0,4,120,12.0,0.0
3801,49.0,0,120,5.0,0.0
3802,52.0,2,120,13.0,0.0
3803,40.0,48,120,14.0,0.0
3804,66.0,2,60,10.0,0.0
3805,62.0,4,60,11.0,0.0
3806,66.0,0,60,4.0,0.0
3807,50.0,60,60,5.0,0.0
3808,50.0,4,120,12.0,0.0
3809,50.0,2,120,13.0,0.0
3810,38.0,108,120,14.0,0.0
3811,64.0,2,120,10.0,0.0
3812,64.0,4,120,4.0,0.0
3813,61.0,0,120,11.0,0.0
3814,45.0,0,120,5.0,0.0
3815,57.0,4,120,12.0,0.0
3816,57.0,2,120,13.0,0.0
3817,45.0,228,120,14.0,0.0
3818,66.0,2,120,10.0,0.0
3819,66.0,4,120,4.0,0.0
3820,63.0,0,120,11.0,0.0
3821,54.0,3,120,12.0,0.0
3822,57.0,1,120,3.0,0.0
3823,54.0,2,120,13.0,0.0
3824,42.0,114,120,14.0,0.0
3825,67.0,2,360,10.0,0.0
3826,64.0,4,480,11.0,0.0
3827,67.0,4,360,4.0,0.0
3828,52.0,4,120,12.0,0.0
3829,59.0,1,360,3.0,0.0
3830,52.0,2,120,13.0,0.0
3831,40.0,114,120,14.0,0.0
3832,64.0,4,120,12.0,0.0
3833,64.0,2,120,13.0,0.0
3834,52.0,108,120,14.0,0.0
3835,62.0,3,120,12.0,0.0
3836,62.0,2,120,13.0,0.0
3837,50.0,110,120,14.0,0.0
3838,69.0,2,360,10.0,0.0
3839,69.0,4,360,4.0,0.0
3840,57.0,3,360,5.0,0.0
3841,61.0,4,120,12.0,0.0
3842,61.0,2,120,13.0,0.0
3843,49.0,110,120,14.0,0.0
3844,62.0,4,120,11.0,0.0
3845,59.0,4,120,12.0,0.0
3846,59.0,2,120,13.0,0.0
3847,47.0,108,120,14.0,0.0
3848,61.0,0,120,11.0,0.0
3849,57.0,0,120,12.0,0.0
3850,57.0,2,120,13.0,0.0
3851,45.0,108,120,14.0,0.0
3852,66.0,2,120,10.0,0.0
3853,62.0,4,120,11.0,0.0
3854,66.0,0,120,4.0,0.0
3855,62.0,0,120,12.0,0.0
3856,62.0,3,120,5.0,0.0
3857,57.0,1,0,3.0,0.0
3858,62.0,2,120,13.0,0.0
3859,50.0,108,120,14.0,0.0
3860,67.0,2,120,10.0,0.0
3861,67.0,4,120,4.0,0.0
3862,64.0,0,120,11.0,0.0
3863,64.0,0,120,5.0,0.0
3864,55.0,3,120,12.0,0.0
3865,59.0,1,120,3.0,0.0
3866,55.0,2,120,13.0,0.0
3867,43.0,48,120,14.0,0.0
3868,64.0,2,60,10.0,0.0
3869,76.0,0,60,1.0,0.0
3870,73.0,4,60,1.0,0.0
3871,61.0,0,60,11.0,0.0
3872,64.0,0,60,4.0,0.0
3873,57.0,3,60,5.0,0.0
3874,57.0,4,120,12.0,0.0
3875,55.0,57,60,3.0,0.0
3876,57.0,2,120,13.0,0.0
3877,45.0,108,120,14.0,0.0
3878,62.0,2,120,10.0,0.0
3879,74.0,0,120,1.0,0.0
3880,62.0,4,120,11.0,0.0
3881,62.0,0,120,4.0,0.0
3882,78.0,0,120,1.0,0.0
3883,54.0,3,120,5.0,0.0
3884,50.0,0,120,12.0,0.0
3885,54.0,1,120,3.0,0.0
3886,50.0,2,120,13.0,0.0
3887,38.0,110,120,14.0,0.0
3888,79.0,0,120,1.0,0.0
3889,76.0,58,120,1.0,0.0
3890,64.0,2,60,10.0,0.0
3891,64.0,0,60,4.0,0.0
3892,73.0,0,60,1.0,0.0
3893,76.0,4,60,1.0,0.0
3894,61.0,0,60,11.0,0.0
3895,57.0,3,60,5.0,0.0
3896,57.0,4,120,12.0,0.0
3897,55.0,57,60,3.0,0.0
3898,57.0,2,120,13.0,0.0
3899,45.0,108,120,14.0,0.0
3900,66.0,2,120,10.0,0.0
3901,62.0,4,120,11.0,0.0
3902,66.0,0,120,4.0,0.0
3903,74.0,0,120,1.0,0.0
3904,62.0,3,120,5.0,0.0
3905,62.0,0,120,12.0,0.0
3906,57.0,1,120,3.0,0.0
3907,62.0,2,120,13.0,0.0
3908,50.0,108,120,14.0,0.0
3909,67.0,2,120,10.0,0.0
3910,67.0,0,120,4.0,0.0
3911,64.0,4,120,11.0,0.0
3912,55.0,0,120,12.0,0.0
3913,64.0,3,120,5.0,0.0
3914,59.0,1,120,3.0,0.0
3915,55.0,2,120,13.0,0.0
3916,43.0,48,120,14.0,0.0
3917,64.0,2,60,10.0,0.0
3918,76.0,4,60,1.0,0.0
3919,64.0,0,60,4.0,0.0
3920,73.0,0,60,1.0,0.0
3921,61.0,0,60,11.0,0.0
3922,57.0,3,60,5.0,0.0
3923,57.0,4,120,12.0,0.0
3924,55.0,57,60,3.0,0.0
3925,57.0,2,120,13.0,0.0
3926,45.0,108,120,14.0,0.0
3927,62.0,2,120,10.0,0.0
3928,62.0,0,120,4.0,0.0
3929,74.0,0,120,1.0,0.0
3930,62.0,4,120,11.0,0.0
3931,78.0,0,120,1.0,0.0
3932,54.0,0,120,5.0,0.0
3933,50.0,3,120,12.0,0.0
3934,54.0,1,120,3.0,0.0
3935,50.0,2,120,13.0,0.0
3936,38.0,110,120,14.0,0.0
3937,79.0,58,120,1.0,0.0
3938,76.0,0,120,1.0,0.0
3939,64.0,2,60,10.0,0.0
3940,73.0,4,60,1.0,0.0
3941,64.0,0,60,4.0,0.0
3942,61.0,0,60,11.0,0.0
3943,76.0,0,60,1.0,0.0
3944,57.0,4,120,12.0,0.0
3945,57.0,60,60,5.0,0.0
3946,57.0,2,120,13.0,0.0
3947,45.0,48,120,14.0,0.0
3948,66.0,2,60,10.0,0.0
3949,62.0,60,60,11.0,0.0
3950,66.0,4,120,4.0,0.0
3951,74.0,0,120,1.0,0.0
3952,78.0,0,120,1.0,0.0
3953,62.0,0,120,5.0,0.0
3954,62.0,4,120,12.0,0.0
3955,62.0,2,120,13.0,0.0
3956,50.0,110,120,14.0,0.0
3957,67.0,0,120,4.0,0.0
3958,79.0,0,120,1.0,0.0
3959,64.0,54,120,5.0,0.0
3960,64.0,2,60,10.0,0.0
3961,76.0,4,0,1.0,0.0
3962,61.0,4,60,11.0,0.0
3963,73.0,0,60,1.0,0.0
3964,64.0,0,60,4.0,0.0
3965,57.0,4,120,12.0,0.0
3966,57.0,60,60,5.0,0.0
3967,57.0,2,120,13.0,0.0
3968,45.0,48,120,14.0,0.0
3969,66.0,2,60,10.0,0.0
3970,78.0,0,120,1.0,0.0
3971,74.0,0,120,1.0,0.0
3972,66.0,4,120,4.0,0.0
3973,62.0,60,60,11.0,0.0
3974,62.0,4,120,5.0,0.0
3975,62.0,0,120,12.0,0.0
3976,62.0,2,120,13.0,0.0
3977,50.0,110,120,14.0,0.0
3978,79.0,4,120,1.0,0.0
3979,67.0,0,120,4.0,0.0
3980,76.0,0,120,1.0,0.0
3981,64.0,54,120,5.0,0.0
3982,73.0,1,60,10.0,0.0
3983,85.0,1,60,0.0,0.0
3984,88.0,0,60,0.0,0.0
3985,73.0,1,60,1.0,0.0
3986,64.0,0,60,4.0,0.0
3987,64.0,0,60,11.0,0.0
3988,76.0,0,60,1.0,0.0
3989,64.0,0,60,2.0,0.0
3990,73.0,3,60,2.0,0.0
3991,57.0,3,60,5.0,0.0
3992,57.0,4,120,12.0,0.0
3993,45.0,57,60,3.0,0.0
3994,57.0,0,60,3.0,0.0
3995,57.0,2,120,13.0,0.0
3996,45.0,108,120,14.0,0.0
3997,74.0,1,120,10.0,0.0
3998,86.0,0,120,0.0,0.0
3999,90.0,1,120,0.0,0.0
4000,78.0,0,120,1.0,0.0
4001,74.0,0,120,1.0,0.0
4002,66.0,0,120,4.0,0.0
4003,66.0,1,120,11.0,0.0
4004,74.0,0,120,2.0,0.0
4005,66.0,3,120,2.0,0.0
4006,62.0,0,120,12.0,0.0
4007,62.0,3,120,5.0,0.0
4008,57.0,0,120,3.0,0.0
4009,50.0,1,120,3.0,0.0
4010,62.0,2,120,13.0,0.0
4011,50.0,108,120,14.0,0.0
4012,76.0,1,120,10.0,0.0
4013,91.0,1,120,0.0,0.0
4014,79.0,0,120,1.0,0.0
4015,67.0,1,120,4.0,0.0
4016,67.0,0,120,11.0,0.0
4017,76.0,3,120,2.0,0.0
4018,67.0,0,120,2.0,0.0
4019,64.0,3,120,5.0,0.0
4020,55.0,0,120,12.0,0.0
4021,43.0,0,120,3.0,0.0
4022,59.0,1,120,3.0,0.0
4023,55.0,2,120,13.0,0.0
4024,43.0,48,120,14.0,0.0
4025,73.0,1,60,10.0,0.0
4026,88.0,0,0,0.0,0.0
4027,85.0,1,60,0.0,0.0
4028,76.0,0,0,1.0,0.0
4029,73.0,0,60,1.0,0.0
4030,64.0,0,60,4.0,0.0
4031,64.0,1,60,11.0,0.0
4032,73.0,3,60,2.0,0.0
4033,64.0,0,60,2.0,0.0
4034,57.0,4,120,12.0,0.0
4035,57.0,3,60,5.0,0.0
4036,45.0,0,60,3.0,0.0
4037,61.0,57,60,3.0,0.0
4038,57.0,2,120,13.0,0.0
4039,45.0,108,120,14.0,0.0
4040,74.0,1,120,10.0,0.0
4041,86.0,1,120,0.0,0.0
4042,66.0,1,120,11.0,0.0
4043,62.0,0,120,4.0,0.0
4044,74.0,0,120,1.0,0.0
4045,66.0,0,120,2.0,0.0
4046,74.0,3,120,2.0,0.0
4047,50.0,0,120,12.0,0.0
4048,54.0,3,120,5.0,0.0
4049,50.0,0,120,3.0,0.0
4050,62.0,1,120,3.0,0.0
4051,50.0,2,120,13.0,0.0
4052,38.0,294,120,14.0,0.0
4053,62.0,2,345,10.0,0.0
4054,74.0,1,360,0.0,0.0
4055,74.0,1,360,1.0,0.0
4056,62.0,0,360,4.0,0.0
4057,62.0,14,345,11.0,0.0
4058,62.0,0,360,2.0,0.0
4059,62.0,0,360,6.0,0.0
4060,74.0,0,360,6.0,0.0
4061,74.0,3,360,2.0,0.0
4062,62.0,3,60,12.0,0.0
4063,50.0,45,360,5.0,0.0
4064,50.0,1,60,3.0,0.0
4065,50.0,2,60,13.0,0.0
4066,50.0,55,120,15.0,0.0
4067,38.0,59,60,14.0,0.0
4068,64.0,3,60,12.0,0.0
4069,52.0,1,60,3.0,0.0
4070,52.0,2,60,13.0,0.0
4071,40.0,114,60,14.0,0.0
4072,66.0,3,60,12.0,0.0
4073,54.0,1,60,3.0,0.0
4074,54.0,2,60,13.0,0.0
4075,42.0,33,60,14.0,0.0
4076,78.0,120,51,10.0,0.0
4077,79.0,120,51,10.0,0.0
4078,81.0,135,51,10.0,0.0
4079,55.0,0,345,10.0,0.0
4080,64.0,2,345,10.0,0.0
4081,76.0,1,360,0.0,0.0
4082,74.0,0,360,0.0,0.0
4083,76.0,0,360,1.0,0.0
4084,62.0,0,345,11.0,0.0
4085,62.0,1,360,4.0,0.0
4086,74.0,0,360,1.0,0.0
4087,59.0,14,345,11.0,0.0
4088,64.0,3,360,2.0,0.0
4089,62.0,0,360,6.0,0.0
4090,74.0,0,360,6.0,0.0
4091,76.0,0,360,2.0,0.0
4092,55.0,3,60,12.0,0.0
4093,50.0,45,360,5.0,0.0
4094,55.0,1,60,3.0,0.0
4095,55.0,2,60,13.0,0.0
4096,50.0,55,120,15.0,0.0
4097,43.0,59,60,14.0,0.0
4098,57.0,3,60,12.0,0.0
4099,57.0,1,60,3.0,0.0
4100,57.0,2,60,13.0,0.0
4101,45.0,114,60,14.0,0.0
4102,59.0,3,60,12.0,0.0
4103,59.0,1,60,3.0,0.0
4104,59.0,2,60,13.0,0.0
4105,47.0,33,60,14.0,0.0
4106,79.0,120,51,10.0,0.0
4107,81.0,120,51,10.0,0.0
4108,83.0,131,51,10.0,0.0
4109,64.0,4,60,4.0,0.0
4110,57.0,116,60,5.0,0.0
4111,66.0,4,60,4.0,0.0
4112,62.0,116,60,5.0,0.0
4113,67.0,4,60,4.0,0.0
4114,64.0,105,60,5.0,0.0
4115,76.0,2,51,10.0,0.0
4116,69.0,118,51,11.0,0.0
4117,78.0,2,51,10.0,0.0
4118,74.0,118,51,11.0,0.0
4119,79.0,2,51,10.0,0.0
4120,76.0,129,51,11.0,0.0
4121,74.0,0,60,1.0,0.0
4122,78.0,4,60,1.0,0.0
4123,66.0,0,60,4.0,0.0
4124,62.0,116,60,5.0,0.0
4125,64.0,4,60,4.0,0.0
4126,69.0,0,60,1.0,0.0
4127,76.0,0,60,1.0,0.0
4128,57.0,116,60,5.0,0.0
4129,74.0,0,60,1.0,0.0
4130,66.0,4,60,1.0,0.0
4131,62.0,0,60,4.0,0.0
4132,54.0,114,60,5.0,0.0
4133,86.0,1,60,10.0,0.0
4134,78.0,1,60,0.0,0.0
4135,86.0,0,60,0.0,0.0
4136,69.0,1,60,11.0,0.0
4137,78.0,0,60,11.0,0.0
4138,74.0,0,60,2.0,0.0
4139,66.0,3,60,2.0,0.0
4140,74.0,0,60,6.0,0.0
4141,62.0,0,60,6.0,0.0
4142,62.0,3,60,12.0,0.0
4143,62.0,1,60,3.0,0.0
4144,50.0,0,60,3.0,0.0
4145,50.0,1,60,13.0,0.0
4146,50.0,1,60,15.0,0.0
4147,38.0,108,60,14.0,0.0
4148,85.0,1,60,10.0,0.0
4149,79.0,0,60,0.0,0.0
4150,85.0,1,60,0.0,0.0
4151,79.0,0,60,11.0,0.0
4152,69.0,1,60,11.0,0.0
4153,57.0,0,60,6.0,0.0
4154,67.0,0,60,2.0,0.0
4155,76.0,0,60,2.0,0.0
4156,69.0,3,60,6.0,0.0
4157,57.0,3,60,12.0,0.0
4158,45.0,0,60,3.0,0.0
4159,57.0,1,60,3.0,0.0
4160,45.0,1,60,13.0,0.0
4161,45.0,1,60,15.0,0.0
4162,33.0,108,60,14.0,0.0
4163,86.0,1,60,10.0,0.0
4164,86.0,0,60,0.0,0.0
4165,78.0,1,60,0.0,0.0
4166,78.0,0,60,11.0,0.0
4167,69.0,1,60,11.0,0.0
4168,74.0,3,60,6.0,0.0
4169,62.0,0,60,6.0,0.0
4170,74.0,0,60,2.0,0.0
4171,66.0,0,60,2.0,0.0
4172,62.0,3,60,12.0,0.0
4173,62.0,0,60,3.0,0.0
4174,50.0,1,60,3.0,0.0
4175,50.0,1,60,13.0,0.0
4176,50.0,1,60,15.0,0.0
4177,38.0,114,60,14.0,0.0
4178,62.0,2,345,10.0,0.0
4179,74.0,1,360,0.0,0.0
4180,74.0,1,360,1.0,0.0
4181,62.0,14,345,11.0,0.0
4182,62.0,0,360,4.0,0.0
4183,74.0,3,360,6.0,0.0
4184,62.0,0,360,2.0,0.0
4185,74.0,0,360,2.0,0.0
4186,62.0,0,360,6.0,0.0
4187,62.0,3,60,12.0,0.0
4188,50.0,45,360,5.0,0.0
4189,50.0,1,60,3.0,0.0
4190,50.0,2,60,13.0,0.0
4191,50.0,55,120,15.0,0.0
4192,38.0,59,60,14.0,0.0
4193,64.0,3,60,12.0,0.0
4194,52.0,1,60,3.0,0.0
4195,52.0,2,60,13.0,0.0
4196,40.0,114,60,14.0,0.0
4197,66.0,3,60,12.0,0.0
4198,54.0,1,60,3.0,0.0
4199,54.0,2,60,13.0,0.0
4200,42.0,33,60,14.0,0.0
4201,78.0,120,51,10.0,0.0
4202,79.0,120,51,10.0,0.0
4203,81.0,135,51,10.0,0.0
4204,64.0,2,345,10.0,0.0
4205,76.0,1,360,0.0,0.0
4206,74.0,0,360,0.0,0.0
4207,62.0,1,360,4.0,0.0
4208,76.0,0,360,1.0,0.0
4209,62.0,14,345,11.0,0.0
4210,74.0,0,360,1.0,0.0
4211,64.0,0,360,2.0,0.0
4212,74.0,0,360,2.0,0.0
4213,74.0,3,360,6.0,0.0
4214,62.0,0,360,6.0,0.0
4215,50.0,45,360,5.0,0.0
4216,56.0,3,60,12.0,0.0
4217,56.0,1,60,3.0,0.0
4218,56.0,2,60,13.0,0.0
4219,50.0,55,120,15.0,0.0
4220,44.0,59,60,14.0,0.0
4221,57.0,3,60,12.0,0.0
4222,57.0,1,60,3.0,0.0
4223,57.0,2,60,13.0,0.0
4224,45.0,114,60,14.0,0.0
4225,59.0,3,60,12.0,0.0
4226,59.0,1,60,3.0,0.0
4227,59.0,2,60,13.0,0.0
4228,47.0,33,60,14.0,0.0
4229,83.0,120,51,10.0,0.0
4230,85.0,120,51,10.0,0.0
4231,86.0,122,51,10.0,0.0
4232,69.0,0,60,1.0,0.0
4233,61.0,4,51,11.0,0.0
4234,73.0,111,60,1.0,0.0
4235,57.0,5,51,12.0,0.0
4236,71.0,0,60,1.0,0.0
4237,74.0,111,60,1.0,0.0
4238,62.0,4,51,11.0,0.0
4239,59.0,5,51,12.0,0.0
4240,64.0,4,51,11.0,0.0
4241,73.0,109,60,1.0,0.0
4242,76.0,0,60,1.0,0.0
4243,61.0,5,51,12.0,0.0
4244,83.0,2,51,10.0,0.0
4245,76.0,118,51,11.0,0.0
4246,85.0,2,51,10.0,0.0
4247,81.0,118,51,11.0,0.0
4248,86.0,2,51,10.0,0.0
4249,83.0,128,51,11.0,0.0
4250,85.0,1,60,0.0,0.0
4251,81.0,0,60,1.0,0.0
4252,64.0,7,60,4.0,0.0
4253,73.0,0,60,1.0,0.0
4254,57.0,112,60,3.0,0.0
4255,83.0,1,60,0.0,0.0
4256,80.0,0,60,1.0,0.0
4257,71.0,0,60,1.0,0.0
4258,64.0,7,60,4.0,0.0
4259,52.0,112,60,3.0,0.0
4260,81.0,1,60,0.0,0.0
4261,81.0,0,60,1.0,0.0
4262,64.0,0,60,4.0,0.0
4263,73.0,7,60,1.0,0.0
4264,57.0,111,60,3.0,0.0
4265,81.0,1,60,10.0,0.0
4266,85.0,0,60,0.0,0.0
4267,88.0,1,60,0.0,0.0
4268,64.0,0,60,11.0,0.0
4269,73.0,0,60,11.0,0.0
4270,64.0,1,60,4.0,0.0
4271,69.0,3,60,2.0,0.0
4272,73.0,0,60,2.0,0.0
4273,76.0,0,60,6.0,0.0
4274,64.0,3,60,5.0,0.0
4275,45.0,1,60,3.0,0.0
4276,57.0,0,60,3.0,0.0
4277,57.0,1,60,13.0,0.0
4278,45.0,1,60,15.0,0.0
4279,45.0,108,60,14.0,0.0
4280,80.0,1,60,10.0,0.0
4281,88.0,1,60,0.0,0.0
4282,83.0,0,60,0.0,0.0
4283,64.0,0,60,4.0,0.0
4284,74.0,0,60,11.0,0.0
4285,64.0,1,60,11.0,0.0
4286,71.0,0,60,2.0,0.0
4287,68.0,3,60,2.0,0.0
4288,76.0,0,60,6.0,0.0
4289,64.0,3,60,5.0,0.0
4290,52.0,1,60,3.0,0.0
4291,40.0,0,60,3.0,0.0
4292,52.0,1,60,13.0,0.0
4293,45.0,1,60,15.0,0.0
4294,40.0,108,60,14.0,0.0
4295,81.0,1,60,10.0,0.0
4296,88.0,0,60,0.0,0.0
4297,85.0,1,60,0.0,0.0
4298,64.0,0,60,11.0,0.0
4299,73.0,1,60,11.0,0.0
4300,64.0,0,60,4.0,0.0
4301,76.0,0,60,6.0,0.0
4302,69.0,0,60,2.0,0.0
4303,73.0,3,60,2.0,0.0
4304,64.0,3,60,5.0,0.0
4305,57.0,1,60,3.0,0.0
4306,45.0,0,60,3.0,0.0
4307,57.0,1,60,13.0,0.0
4308,45.0,1,60,15.0,0.0
4309,45.0,114,60,14.0,0.0
4310,62.0,2,345,10.0,0.0
4311,74.0,1,360,0.0,0.0
4312,62.0,1,360,4.0,0.0
4313,74.0,0,360,1.0,0.0
4314,62.0,14,345,11.0,0.0
4315,62.0,0,360,2.0,0.0
4316,62.0,0,360,6.0,0.0
4317,74.0,3,360,2.0,0.0
4318,74.0,0,360,6.0,0.0
4319,62.0,3,60,12.0,0.0
4320,50.0,45,360,5.0,0.0
4321,50.0,1,60,3.0,0.0
4322,50.0,2,60,13.0,0.0
4323,50.0,55,120,15.0,0.0
4324,38.0,59,60,14.0,0.0
4325,64.0,3,60,12.0,0.0
4326,52.0,1,60,3.0,0.0
4327,52.0,2,60,13.0,0.0
4328,40.0,114,60,14.0,0.0
4329,66.0,3,60,12.0,0.0
4330,54.0,1,60,3.0,0.0
4331,54.0,2,60,13.0,0.0
4332,42.0,33,60,14.0,0.0
4333,78.0,120,51,10.0,0.0
4334,79.0,120,51,10.0,0.0
4335,81.0,135,51,10.0,0.0
4336,64.0,0,345,10.0,0.0
4337,55.0,2,345,10.0,0.0
4338,76.0,0,360,0.0,0.0
4339,74.0,1,360,0.0,0.0
4340,74.0,1,360,1.0,0.0
4341,59.0,0,345,11.0,0.0
4342,62.0,14,345,11.0,0.0
4343,76.0,0,360,1.0,0.0
4344,62.0,0,360,4.0,0.0
4345,74.0,0,360,6.0,0.0
4346,76.0,3,360,2.0,0.0
4347,62.0,0,360,6.0,0.0
4348,64.0,0,360,2.0,0.0
4349,50.0,45,360,5.0,0.0
4350,55.0,3,60,12.0,0.0
4351,55.0,1,60,3.0,0.0
4352,55.0,2,60,13.0,0.0
4353,50.0,55,120,15.0,0.0
4354,43.0,59,60,14.0,0.0
4355,57.0,3,60,12.0,0.0
4356,57.0,1,60,3.0,0.0
4357,57.0,2,60,13.0,0.0
4358,45.0,114,60,14.0,0.0
4359,59.0,3,60,12.0,0.0
4360,59.0,1,60,3.0,0.0
4361,59.0,2,60,13.0,0.0
4362,47.0,33,60,14.0,0.0
4363,79.0,120,51,10.0,0.0
4364,81.0,120,51,10.0,0.0
4365,83.0,131,51,10.0,0.0
4366,64.0,4,60,4.0,0.0
4367,57.0,116,60,5.0,0.0
4368,66.0,4,60,4.0,0.0
4369,62.0,116,60,5.0,0.0
4370,67.0,4,60,4.0,0.0
4371,64.0,105,60,5.0,0.0
4372,76.0,2,51,10.0,0.0
4373,69.0,118,51,11.0,0.0
4374,78.0,2,51,10.0,0.0
4375,74.0,118,51,11.0,0.0
4376,79.0,2,51,10.0,0.0
4377,76.0,129,51,11.0,0.0
4378,66.0,4,60,4.0,0.0
4379,74.0,0,60,1.0,0.0
4380,78.0,0,60,1.0,0.0
4381,62.0,116,60,5.0,0.0
4382,69.0,0,60,1.0,0.0
4383,76.0,0,60,1.0,0.0
4384,64.0,4,60,4.0,0.0
4385,57.0,116,60,5.0,0.0
4386,66.0,0,60,1.0,0.0
4387,62.0,4,60,4.0,0.0
4388,74.0,0,60,1.0,0.0
4389,54.0,114,60,5.0,0.0
4390,86.0,1,60,10.0,0.0
4391,78.0,0,60,0.0,0.0
4392,86.0,1,60,0.0,0.0
4393,69.0,0,60,11.0,0.0
4394,78.0,1,60,11.0,0.0
4395,62.0,0,60,6.0,0.0
4396,66.0,0,60,2.0,0.0
4397,74.0,0,60,2.0,0.0
4398,74.0,3,60,6.0,0.0
4399,62.0,3,60,12.0,0.0
4400,62.0,0,60,3.0,0.0
4401,50.0,1,60,3.0,0.0
4402,50.0,1,60,13.0,0.0
4403,50.0,1,60,15.0,0.0
4404,38.0,108,60,14.0,0.0
4405,85.0,1,60,10.0,0.0
4406,85.0,1,60,0.0,0.0
4407,79.0,0,60,0.0,0.0
4408,79.0,0,60,11.0,0.0
4409,69.0,1,60,11.0,0.0
4410,69.0,0,60,6.0,0.0
4411,67.0,0,60,2.0,0.0
4412,76.0,3,60,2.0,0.0
4413,57.0,0,60,6.0,0.0
4414,57.0,3,60,12.0,0.0
4415,45.0,0,60,3.0,0.0
4416,57.0,1,60,3.0,0.0
4417,45.0,1,60,13.0,0.0
4418,45.0,1,60,15.0,0.0
4419,33.0,108,60,14.0,0.0
4420,86.0,1,60,10.0,0.0
4421,86.0,1,60,0.0,0.0
4422,78.0,0,60,0.0,0.0
4423,69.0,0,60,11.0,0.0
4424,78.0,1,60,11.0,0.0
4425,66.0,0,60,2.0,0.0
4426,74.0,0,60,2.0,0.0
4427,74.0,3,60,6.0,0.0
4428,62.0,0,60,6.0,0.0
4429,62.0,3,60,12.0,0.0
4430,50.0,0,60,3.0,0.0
4431,62.0,1,60,3.0,0.0
4432,50.0,1,60,13.0,0.0
4433,50.0,1,60,15.0,0.0
4434,38.0,114,60,14.0,0.0
4435,62.0,2,345,10.0,0.0
4436,74.0,1,360,0.0,0.0
4437,74.0,1,360,1.0,0.0
4438,62.0,0,360,4.0,0.0
4439,62.0,14,345,11.0,0.0
4440,62.0,0,360,6.0,0.0
4441,74.0,3,360,6.0,0.0
4442,62.0,0,360,2.0,0.0
4443,74.0,0,360,2.0,0.0
4444,50.0,45,360,5.0,0.0
4445,62.0,3,60,12.0,0.0
4446,50.0,1,60,3.0,0.0
4447,50.0,2,60,13.0,0.0
4448,50.0,55,120,15.0,0.0
4449,38.0,59,60,14.0,0.0
4450,64.0,3,60,12.0,0.0
4451,52.0,1,60,3.0,0.0
4452,52.0,2,60,13.0,0.0
4453,40.0,114,60,14.0,0.0
4454,66.0,3,60,12.0,0.0
4455,54.0,1,60,3.0,0.0
4456,54.0,2,60,13.0,0.0
4457,42.0,33,60,14.0,0.0
4458,78.0,120,51,10.0,0.0
4459,79.0,120,51,10.0,0.0
4460,81.0,135,51,10.0,0.0
4461,64.0,2,345,10.0,0.0
4462,76.0,1,360,0.0,0.0
4463,74.0,0,360,0.0,0.0
4464,62.0,14,345,11.0,0.0
4465,62.0,1,360,4.0,0.0
4466,74.0,0,360,1.0,0.0
4467,76.0,0,360,1.0,0.0
4468,74.0,0,360,6.0,0.0
4469,62.0,3,360,6.0,0.0
4470,64.0,0,360,2.0,0.0
4471,74.0,0,360,2.0,0.0
4472,50.0,45,360,5.0,0.0
4473,56.0,3,60,12.0,0.0
4474,56.0,1,60,3.0,0.0
4475,56.0,2,60,13.0,0.0
4476,50.0,55,120,15.0,0.0
4477,44.0,59,60,14.0,0.0
4478,57.0,3,60,12.0,0.0
4479,57.0,1,60,3.0,0.0
4480,57.0,2,60,13.0,0.0
4481,45.0,114,60,14.0,0.0
4482,59.0,3,60,12.0,0.0
4483,59.0,1,60,3.0,0.0
4484,59.0,2,60,13.0,0.0
4485,47.0,33,60,14.0,0.0
4486,83.0,120,51,10.0,0.0
4487,85.0,120,51,10.0,0.0
4488,86.0,122,51,10.0,0.0
4489,69.0,111,60,1.0,0.0
4490,73.0,0,60,1.0,0.0
4491,61.0,4,51,11.0,0.0
4492,57.0,5,51,12.0,0.0
4493,74.0,111,60,1.0,0.0
4494,71.0,0,60,1.0,0.0
4495,62.0,4,51,11.0,0.0
4496,59.0,5,51,12.0,0.0
4497,73.0,109,60,1.0,0.0
4498,76.0,0,60,1.0,0.0
4499,64.0,4,51,11.0,0.0
4500,61.0,5,51,12.0,0.0
4501,83.0,2,51,10.0,0.0
4502,76.0,118,51,11.0,0.0
4503,85.0,2,51,10.0,0.0
4504,81.0,118,51,11.0,0.0
4505,86.0,2,51,10.0,0.0
4506,83.0,128,51,11.0,0.0
4507,85.0,1,60,0.0,0.0
4508,81.0,0,60,1.0,0.0
4509,73.0,0,60,1.0,0.0
4510,64.0,7,60,4.0,0.0
4511,57.0,112,60,3.0,0.0
4512,83.0,1,60,0.0,0.0
4513,64.0,0,60,4.0,0.0
4514,71.0,7,60,1.0,0.0
4515,80.0,0,60,1.0,0.0
4516,52.0,112,60,3.0,0.0
4517,81.0,1,60,0.0,0.0
4518,73.0,0,60,1.0,0.0
4519,81.0,0,60,1.0,0.0
4520,64.0,7,60,4.0,0.0
4521,57.0,111,60,3.0,0.0
4522,81.0,1,60,10.0,0.0
4523,88.0,0,60,0.0,0.0
4524,85.0,1,60,0.0,0.0
4525,73.0,0,60,11.0,0.0
4526,64.0,0,60,11.0,0.0
4527,64.0,1,60,4.0,0.0
4528,76.0,3,60,6.0,0.0
4529,73.0,0,60,2.0,0.0
4530,69.0,0,60,2.0,0.0
4531,64.0,3,60,5.0,0.0
4532,45.0,0,60,3.0,0.0
4533,57.0,1,60,3.0,0.0
4534,57.0,1,60,13.0,0.0
4535,45.0,1,60,15.0,0.0
4536,45.0,108,60,14.0,0.0
4537,80.0,1,60,10.0,0.0
4538,88.0,0,60,0.0,0.0
4539,83.0,1,60,0.0,0.0
4540,64.0,0,60,11.0,0.0
4541,64.0,1,60,4.0,0.0
4542,74.0,0,60,11.0,0.0
4543,71.0,3,60,2.0,0.0
4544,68.0,0,60,2.0,0.0
4545,76.0,0,60,6.0,0.0
4546,64.0,3,60,5.0,0.0
4547,40.0,0,60,3.0,0.0
4548,52.0,1,60,3.0,0.0
4549,52.0,1,60,13.0,0.0
4550,45.0,1,60,15.0,0.0
4551,40.0,108,60,14.0,0.0
4552,81.0,1,60,10.0,0.0
4553,85.0,0,60,0.0,0.0
4554,88.0,1,60,0.0,0.0
4555,64.0,0,60,4.0,0.0
4556,73.0,1,60,11.0,0.0
4557,64.0,0,60,11.0,0.0
4558,69.0,3,60,2.0,0.0
4559,76.0,0,60,6.0,0.0
4560,73.0,0,60,2.0,0.0
4561,64.0,3,60,5.0,0.0
4562,45.0,1,60,3.0,0.0
4563,57.0,0,60,3.0,0.0
4564,57.0,1,60,13.0,0.0
4565,45.0,1,60,15.0,0.0
4566,45.0,110,60,14.0,0.0
4567,69.0,71,340,10.0,0.0
4568,61.0,4,60,11.0,0.0
4569,57.0,4,60,12.0,0.0
4570,57.0,2,60,13.0,0.0
4571,45.0,110,60,14.0,0.0
4572,62.0,4,60,11.0,0.0
4573,59.0,4,60,12.0,0.0
4574,59.0,2,60,13.0,0.0
4575,47.0,110,60,14.0,0.0
4576,64.0,4,60,11.0,0.0
4577,61.0,4,60,12.0,0.0
4578,61.0,2,60,13.0,0.0
4579,49.0,28,60,14.0,0.0
4580,77.0,71,51,10.0,0.0
4581,65.0,4,120,11.0,0.0
4582,62.0,4,120,12.0,0.0
4583,62.0,2,120,13.0,0.0
4584,50.0,39,120,14.0,0.0
4585,76.0,120,51,10.0,0.0
4586,77.0,131,51,10.0,0.0
4587,65.0,71,340,10.0,0.0
4588,57.0,4,60,11.0,0.0
4589,53.0,4,60,12.0,0.0
4590,53.0,2,60,13.0,0.0
4591,41.0,110,60,14.0,0.0
4592,58.0,4,60,11.0,0.0
4593,55.0,4,60,12.0,0.0
4594,55.0,2,60,13.0,0.0
4595,43.0,110,60,14.0,0.0
4596,60.0,4,60,11.0,0.0
4597,57.0,4,60,12.0,0.0
4598,57.0,2,60,13.0,0.0
4599,45.0,28,60,14.0,0.0
4600,74.0,71,51,10.0,0.0
4601,62.0,4,120,11.0,0.0
4602,58.0,4,120,12.0,0.0
4603,58.0,2,120,13.0,0.0
4604,46.0,39,120,14.0,0.0
4605,73.0,120,51,10.0,0.0
4606,74.0,129,51,10.0,0.0
4607,58.0,2,60,10.0,0.0
4608,62.0,4,60,11.0,0.0
4609,58.0,0,60,11.0,0.0
4610,53.0,4,60,12.0,0.0
4611,46.0,2,60,13.0,0.0
4612,34.0,508,60,14.0,0.0
4613,77.0,80,460,10.0,0.0
4614,62.0,18,580,11.0,0.0
4615,58.0,0,580,11.0,0.0
4616,53.0,4,700,12.0,0.0
4617,46.0,2,700,13.0,0.0
4618,34.0,8,700,14.0,0.0
4619,74.0,42,60,10.0,0.0
4620,70.0,60,60,10.0,0.0
4621,69.0,42,60,10.0,0.0
4622,60.0,4,100,11.0,0.0
4623,63.0,0,100,11.0,0.0
4624,72.0,60,60,10.0,0.0
4625,75.0,42,60,10.0,0.0
4626,63.0,4,100,11.0,0.0
4627,60.0,0,100,11.0,0.0
4628,53.0,4,100,12.0,0.0
4629,46.0,2,100,13.0,0.0
4630,34.0,8,100,14.0,0.0
4631,74.0,60,60,10.0,0.0
4632,72.0,40,60,10.0,0.0
4633,60.0,4,100,11.0,0.0
4634,63.0,0,100,11.0,0.0
4635,53.0,4,100,12.0,0.0
4636,46.0,2,100,13.0,0.0
4637,34.0,68,100,14.0,0.0
4638,70.0,2,40,10.0,0.0
4639,69.0,42,60,10.0,0.0
4640,60.0,0,100,11.0,0.0
4641,63.0,4,100,11.0,0.0
4642,53.0,4,100,12.0,0.0
4643,46.0,2,100,13.0,0.0
4644,34.0,8,100,14.0,0.0
4645,67.0,60,60,10.0,0.0
4646,65.0,42,60,10.0,0.0
4647,60.0,4,100,11.0,0.0
4648,63.0,0,100,11.0,0.0
4649,53.0,4,100,12.0,0.0
4650,46.0,2,100,13.0,0.0
4651,34.0,8,100,14.0,0.0
4652,63.0,60,60,10.0,0.0
4653,62.0,40,60,10.0,0.0
4654,81.0,8,120,0.0,0.0
4655,60.0,4,100,11.0,0.0
4656,63.0,0,100,11.0,0.0
4657,53.0,4,100,12.0,0.0
4658,57.0,51,120,3.0,0.0
4659,46.0,2,100,13.0,0.0
4660,34.0,9,100,14.0,0.0
4661,60.0,2,40,10.0,0.0
4662,58.0,1,60,10.0,0.0
4663,82.0,1,60,0.0,0.0
4664,70.0,0,60,1.0,0.0
4665,62.0,0,60,11.0,0.0
4666,58.0,0,60,11.0,0.0
4667,74.0,4,60,1.0,0.0
4668,53.0,3,60,12.0,0.0
4669,58.0,1,60,3.0,0.0
4670,46.0,2,60,13.0,0.0
4671,34.0,508,60,14.0,0.0
4672,77.0,11,460,10.0,0.0
4673,89.0,8,470,0.0,0.0
4674,74.0,0,590,1.0,0.0
4675,70.0,7,590,1.0,0.0
4676,62.0,0,580,11.0,0.0
4677,58.0,9,580,11.0,0.0
4678,53.0,4,700,12.0,0.0
4679,65.0,61,470,3.0,0.0
4680,46.0,2,700,13.0,0.0
4681,34.0,8,700,14.0,0.0
4682,74.0,1,60,10.0,0.0
4683,86.0,8,60,0.0,0.0
4684,62.0,31,60,3.0,0.0
4685,70.0,2,40,10.0,0.0
4686,82.0,1,50,0.0,0.0
4687,58.0,61,50,3.0,0.0
4688,69.0,1,60,10.0,0.0
4689,81.0,41,60,0.0,0.0
4690,75.0,0,710,1.0,0.0
4691,72.0,0,710,1.0,0.0
4692,60.0,4,100,11.0,0.0
4693,63.0,0,100,11.0,0.0
4694,57.0,51,120,3.0,0.0
4695,72.0,1,60,10.0,0.0
4696,84.0,8,60,0.0,0.0
4697,75.0,1,60,10.0,0.0
4698,87.0,41,60,0.0,0.0
4699,63.0,0,100,11.0,0.0
4700,60.0,4,100,11.0,0.0
4701,53.0,4,100,12.0,0.0
4702,46.0,2,100,13.0,0.0
4703,34.0,8,100,14.0,0.0
4704,74.0,1,60,10.0,0.0
4705,86.0,59,60,0.0,0.0
4706,72.0,1,60,10.0,0.0
4707,84.0,41,60,0.0,0.0
4708,63.0,0,100,11.0,0.0
4709,60.0,4,100,11.0,0.0
4710,53.0,4,100,12.0,0.0
4711,46.0,2,100,13.0,0.0
4712,34.0,8,100,14.0,0.0
4713,70.0,1,60,10.0,0.0
4714,82.0,59,60,0.0,0.0
4715,69.0,1,60,10.0,0.0
4716,81.0,41,60,0.0,0.0
4717,60.0,0,100,11.0,0.0
4718,63.0,4,100,11.0,0.0
4719,53.0,4,100,12.0,0.0
4720,46.0,2,100,13.0,0.0
4721,34.0,8,100,14.0,0.0
4722,67.0,1,60,10.0,0.0
4723,79.0,59,60,0.0,0.0
4724,65.0,1,60,10.0,0.0
4725,77.0,41,60,0.0,0.0
4726,63.0,4,100,11.0,0.0
4727,60.0,0,100,11.0,0.0
4728,53.0,4,100,12.0,0.0
4729,53.0,1,110,3.0,0.0
4730,46.0,2,100,13.0,0.0
4731,34.0,7,100,14.0,0.0
4732,63.0,1,60,10.0,0.0
4733,75.0,59,60,0.0,0.0
4734,62.0,1,60,10.0,0.0
4735,74.0,39,60,0.0,0.0
4736,63.0,4,100,11.0,0.0
4737,60.0,0,100,11.0,0.0
4738,53.0,4,100,12.0,0.0
4739,53.0,61,110,3.0,0.0
4740,46.0,1,100,13.0,0.0
4741,34.0,7,100,14.0,0.0
4742,60.0,2,40,10.0,0.0
4743,72.0,1,50,0.0,0.0
4744,58.0,2,60,10.0,0.0
4745,70.0,1,120,0.0,0.0
4746,70.0,0,120,1.0,0.0
4747,58.0,4,60,11.0,0.0
4748,74.0,7,120,1.0,0.0
4749,62.0,0,60,11.0,0.0
4750,53.0,55,60,12.0,0.0
4751,58.0,1,120,3.0,0.0
4752,46.0,2,120,13.0,0.0
4753,34.0,48,120,14.0,0.0
4754,74.0,60,60,10.0,0.0
4755,62.0,4,120,11.0,0.0
4756,58.0,54,120,12.0,0.0
4757,73.0,2,60,10.0,0.0
4758,74.0,40,60,10.0,0.0
4759,65.0,4,120,11.0,0.0
4760,62.0,54,120,12.0,0.0
4761,76.0,22,40,10.0,0.0
4762,77.0,69,60,10.0,0.0
4763,57.0,1,120,3.0,0.0
4764,45.0,2,120,13.0,0.0
4765,33.0,48,120,14.0,0.0
4766,74.0,60,60,10.0,0.0
4767,62.0,4,120,11.0,0.0
4768,57.0,54,120,12.0,0.0
4769,73.0,2,60,10.0,0.0
4770,74.0,40,60,10.0,0.0
4771,65.0,4,120,11.0,0.0
4772,62.0,54,120,12.0,0.0
4773,76.0,22,40,10.0,0.0
4774,77.0,69,60,10.0,0.0
4775,56.0,1,120,3.0,0.0
4776,44.0,2,120,13.0,0.0
4777,32.0,48,120,14.0,0.0
4778,74.0,60,60,10.0,0.0
4779,62.0,4,120,11.0,0.0
4780,59.0,54,120,12.0,0.0
4781,73.0,2,60,10.0,0.0
4782,74.0,40,60,10.0,0.0
4783,62.0,54,120,12.0,0.0
4784,76.0,22,40,10.0,0.0
4785,77.0,2,60,10.0,0.0
4786,65.0,4,0,11.0,0.0
4787,59.0,0,60,12.0,0.0
4788,56.0,63,60,12.0,0.0
4789,56.0,1,120,3.0,0.0
4790,56.0,2,120,13.0,0.0
4791,44.0,48,120,14.0,0.0
4792,79.0,2,60,10.0,0.0
4793,65.0,4,60,11.0,0.0
4794,59.0,54,60,12.0,0.0
4795,56.0,0,60,12.0,0.0
4796,77.0,60,60,10.0,0.0
4797,76.0,2,60,10.0,0.0
4798,65.0,4,60,11.0,0.0
4799,56.0,0,60,12.0,0.0
4800,59.0,34,60,12.0,0.0
4801,74.0,80,40,10.0,0.0
4802,73.0,10,60,10.0,0.0
4803,64.0,4,120,11.0,0.0
4804,57.0,0,120,12.0,0.0
4805,61.0,3,120,12.0,0.0
4806,57.0,51,120,3.0,0.0
4807,57.0,52,60,13.0,0.0
4808,33.0,48,1560,14.0,0.0
4809,74.0,60,60,10.0,0.0
4810,73.0,60,60,10.0,0.0
4811,71.0,40,60,10.0,0.0
4812,49.0,4,120,12.0,0.0
4813,49.0,50,120,13.0,0.0
4814,69.0,26,40,10.0,0.0
4815,77.0,66,60,10.0,0.0
4816,50.0,4,120,12.0,0.0
4817,50.0,50,120,13.0,0.0
4818,79.0,60,60,10.0,0.0
4819,53.0,4,120,12.0,0.0
4820,53.0,50,120,13.0,0.0
4821,77.0,6,60,10.0,0.0
4822,76.0,40,60,10.0,0.0
4823,56.0,4,100,12.0,0.0
4824,56.0,70,100,13.0,0.0
4825,74.0,6,40,10.0,0.0
4826,73.0,6,60,10.0,0.0
4827,57.0,4,60,12.0,0.0
4828,57.0,110,60,13.0,0.0
4829,74.0,60,60,10.0,0.0
4830,73.0,60,60,10.0,0.0
4831,71.0,40,60,10.0,0.0
4832,61.0,4,120,11.0,0.0
4833,49.0,4,120,12.0,0.0
4834,49.0,50,120,13.0,0.0
4835,69.0,22,40,10.0,0.0
4836,77.0,62,60,10.0,0.0
4837,62.0,4,120,11.0,0.0
4838,50.0,4,120,12.0,0.0
4839,50.0,50,120,13.0,0.0
4840,79.0,60,60,10.0,0.0
4841,65.0,4,120,11.0,0.0
4842,53.0,4,120,12.0,0.0
4843,53.0,50,120,13.0,0.0
4844,77.0,2,60,10.0,0.0
4845,76.0,40,60,10.0,0.0
4846,68.0,4,100,11.0,0.0
4847,56.0,4,100,12.0,0.0
4848,56.0,70,100,13.0,0.0
4849,74.0,2,40,10.0,0.0
4850,73.0,2,60,10.0,0.0
4851,69.0,4,60,11.0,0.0
4852,57.0,4,60,12.0,0.0
4853,57.0,62,60,13.0,0.0
4854,76.0,60,60,10.0,0.0
4855,57.0,58,120,11.0,0.0
4856,74.0,2,60,10.0,0.0
4857,73.0,40,60,10.0,0.0
4858,58.0,58,120,11.0,0.0
4859,71.0,22,40,10.0,0.0
4860,69.0,40,60,10.0,0.0
4861,59.0,28,120,11.0,0.0
4862,68.0,22,40,10.0,0.0
4863,69.0,60,30,10.0,0.0
4864,60.0,28,120,11.0,0.0
4865,67.0,32,30,10.0,0.0
4866,66.0,60,30,10.0,0.0
4867,61.0,84,100,11.0,0.0
4868,64.0,12,30,10.0,0.0
4869,62.0,2,340,10.0,0.0
4870,74.0,1,350,0.0,0.0
4871,62.0,9,340,11.0,0.0
4872,62.0,1,360,4.0,0.0
4873,74.0,1,350,1.0,0.0
4874,74.0,9,350,2.0,0.0
4875,74.0,3,360,6.0,0.0
4876,62.0,0,350,2.0,0.0
4877,62.0,0,360,6.0,0.0
4878,50.0,45,360,5.0,0.0
4879,62.0,3,60,12.0,0.0
4880,50.0,1,60,3.0,0.0
4881,50.0,2,60,13.0,0.0
4882,50.0,55,120,15.0,0.0
4883,38.0,59,60,14.0,0.0
4884,64.0,3,60,12.0,0.0
4885,52.0,1,60,3.0,0.0
4886,52.0,2,60,13.0,0.0
4887,40.0,114,60,14.0,0.0
4888,66.0,3,60,12.0,0.0
4889,54.0,1,60,3.0,0.0
4890,54.0,2,60,13.0,0.0
4891,42.0,28,60,14.0,0.0
4892,78.0,120,51,10.0,0.0
4893,79.0,120,51,10.0,0.0
4894,81.0,135,51,10.0,0.0
4895,55.0,0,340,10.0,0.0
4896,64.0,2,340,10.0,0.0
4897,74.0,0,350,0.0,0.0
4898,76.0,1,350,0.0,0.0
4899,76.0,0,350,1.0,0.0
4900,59.0,0,340,11.0,0.0
4901,62.0,1,360,4.0,0.0
4902,74.0,1,350,1.0,0.0
4903,62.0,9,340,11.0,0.0
4904,62.0,3,360,6.0,0.0
4905,74.0,9,350,2.0,0.0
4906,64.0,0,350,2.0,0.0
4907,74.0,0,360,6.0,0.0
4908,50.0,45,360,5.0,0.0
4909,67.0,3,60,12.0,0.0
4910,55.0,1,60,3.0,0.0
4911,55.0,2,60,13.0,0.0
4912,50.0,55,120,15.0,0.0
4913,43.0,59,60,14.0,0.0
4914,69.0,3,60,12.0,0.0
4915,57.0,1,60,3.0,0.0
4916,57.0,2,60,13.0,0.0
4917,45.0,114,60,14.0,0.0
4918,71.0,3,60,12.0,0.0
4919,59.0,1,60,3.0,0.0
4920,59.0,2,60,13.0,0.0
4921,47.0,28,60,14.0,0.0
4922,79.0,120,51,10.0,0.0
4923,81.0,120,51,10.0,0.0
4924,83.0,131,51,10.0,0.0
4925,64.0,4,60,4.0,0.0
4926,57.0,116,60,5.0,0.0
4927,66.0,4,60,4.0,0.0
4928,62.0,116,60,5.0,0.0
4929,67.0,4,60,4.0,0.0
4930,64.0,105,60,5.0,0.0
4931,76.0,2,51,10.0,0.0
4932,69.0,118,51,11.0,0.0
4933,78.0,2,51,10.0,0.0
4934,74.0,118,51,11.0,0.0
4935,79.0,2,51,10.0,0.0
4936,76.0,129,51,11.0,0.0
4937,78.0,0,60,1.0,0.0
4938,66.0,0,60,4.0,0.0
4939,74.0,4,60,1.0,0.0
4940,62.0,116,60,5.0,0.0
4941,76.0,0,60,1.0,0.0
4942,64.0,0,60,4.0,0.0
4943,69.0,4,60,1.0,0.0
4944,57.0,116,60,5.0,0.0
4945,74.0,0,60,1.0,0.0
4946,62.0,4,60,4.0,0.0
4947,66.0,0,60,1.0,0.0
4948,54.0,114,60,5.0,0.0
4949,86.0,1,60,10.0,0.0
4950,86.0,1,60,0.0,0.0
4951,78.0,0,60,0.0,0.0
4952,74.0,0,60,1.0,0.0
4953,78.0,0,60,1.0,0.0
4954,78.0,1,60,11.0,0.0
4955,69.0,0,60,11.0,0.0
4956,74.0,0,60,6.0,0.0
4957,62.0,3,60,6.0,0.0
4958,74.0,0,60,2.0,0.0
4959,66.0,0,60,2.0,0.0
4960,62.0,3,60,12.0,0.0
4961,50.0,1,60,3.0,0.0
4962,62.0,0,60,3.0,0.0
4963,50.0,1,60,13.0,0.0
4964,50.0,1,60,15.0,0.0
4965,38.0,108,60,14.0,0.0
4966,85.0,1,60,10.0,0.0
4967,76.0,1,60,0.0,0.0
4968,85.0,0,60,0.0,0.0
4969,76.0,0,60,1.0,0.0
4970,79.0,0,60,11.0,0.0
4971,79.0,0,60,1.0,0.0
4972,69.0,1,60,11.0,0.0
4973,67.0,0,60,2.0,0.0
4974,76.0,0,60,2.0,0.0
4975,69.0,0,60,6.0,0.0
4976,57.0,3,60,6.0,0.0
4977,57.0,3,60,12.0,0.0
4978,57.0,0,60,3.0,0.0
4979,45.0,1,60,3.0,0.0
4980,45.0,1,60,13.0,0.0
4981,45.0,1,60,15.0,0.0
4982,33.0,108,60,14.0,0.0
4983,86.0,1,60,10.0,0.0
4984,78.0,1,60,0.0,0.0
4985,86.0,0,60,0.0,0.0
4986,74.0,0,60,1.0,0.0
4987,69.0,0,60,11.0,0.0
4988,78.0,0,60,11.0,0.0
4989,78.0,1,60,1.0,0.0
4990,62.0,0,60,6.0,0.0
4991,74.0,0,60,6.0,0.0
4992,66.0,0,60,2.0,0.0
4993,74.0,3,60,2.0,0.0
4994,62.0,3,60,12.0,0.0
4995,62.0,1,60,3.0,0.0
4996,50.0,0,60,3.0,0.0
4997,50.0,1,60,13.0,0.0
4998,50.0,1,60,15.0,0.0
4999,38.0,114,60,14.0,0.0
5000,62.0,2,340,10.0,0.0
5001,74.0,1,350,0.0,0.0
5002,74.0,1,350,1.0,0.0
5003,62.0,9,340,11.0,0.0
5004,62.0,1,360,4.0,0.0
5005,74.0,9,350,2.0,0.0
5006,62.0,0,350,2.0,0.0
5007,74.0,3,360,6.0,0.0
5008,62.0,0,360,6.0,0.0
5009,50.0,45,360,5.0,0.0
5010,62.0,3,60,12.0,0.0
5011,50.0,1,60,3.0,0.0
5012,50.0,2,60,13.0,0.0
5013,50.0,55,120,15.0,0.0
5014,38.0,59,60,14.0,0.0
5015,64.0,3,60,12.0,0.0
5016,52.0,1,60,3.0,0.0
5017,52.0,2,60,13.0,0.0
5018,40.0,114,60,14.0,0.0
5019,66.0,3,60,12.0,0.0
5020,54.0,1,60,3.0,0.0
5021,54.0,2,60,13.0,0.0
5022,42.0,28,60,14.0,0.0
5023,78.0,120,51,10.0,0.0
5024,79.0,120,51,10.0,0.0
5025,81.0,135,51,10.0,0.0
5026,55.0,0,340,10.0,0.0
5027,64.0,2,340,10.0,0.0
5028,74.0,1,350,0.0,0.0
5029,76.0,0,350,0.0,0.0
5030,76.0,0,350,1.0,0.0
5031,62.0,1,360,4.0,0.0
5032,74.0,1,350,1.0,0.0
5033,59.0,0,340,11.0,0.0
5034,62.0,9,340,11.0,0.0
5035,62.0,3,360,6.0,0.0
5036,74.0,0,360,6.0,0.0
5037,64.0,0,350,2.0,0.0
5038,74.0,9,350,2.0,0.0
5039,50.0,45,360,5.0,0.0
5040,55.0,3,60,12.0,0.0
5041,55.0,1,60,3.0,0.0
5042,55.0,2,60,13.0,0.0
5043,50.0,55,120,15.0,0.0
5044,43.0,59,60,14.0,0.0
5045,57.0,3,60,12.0,0.0
5046,57.0,1,60,3.0,0.0
5047,57.0,2,60,13.0,0.0
5048,45.0,114,60,14.0,0.0
5049,59.0,3,60,12.0,0.0
5050,59.0,1,60,3.0,0.0
5051,59.0,2,60,13.0,0.0
5052,47.0,28,60,14.0,0.0
5053,79.0,120,51,10.0,0.0
5054,81.0,120,51,10.0,0.0
5055,83.0,120,51,10.0,0.0
5056,67.0,120,51,10.0,0.0
5057,69.0,120,51,10.0,0.0
5058,71.0,122,51,10.0,0.0
5059,64.0,120,51,11.0,0.0
5060,66.0,120,51,11.0,0.0
5061,67.0,118,51,11.0,0.0
5062,67.0,120,51,10.0,0.0
5063,69.0,120,51,10.0,0.0
5064,70.0,122,51,10.0,0.0
5065,64.0,120,51,11.0,0.0
5066,66.0,120,51,11.0,0.0
5067,67.0,118,51,11.0,0.0
5068,67.0,120,51,10.0,0.0
5069,69.0,120,51,10.0,0.0
5070,70.0,120,51,10.0,0.0
5071,67.0,2,51,10.0,0.0
5072,64.0,118,51,11.0,0.0
5073,69.0,2,51,10.0,0.0
5074,65.0,118,51,11.0,0.0
5075,70.0,2,51,10.0,0.0
5076,67.0,118,51,11.0,0.0
5077,67.0,2,51,10.0,0.0
5078,64.0,118,51,11.0,0.0
5079,69.0,2,51,10.0,0.0
5080,65.0,118,51,11.0,0.0
5081,70.0,2,51,10.0,0.0
5082,67.0,118,51,11.0,0.0
5083,67.0,2,51,10.0,0.0
5084,64.0,118,51,11.0,0.0
5085,69.0,2,51,10.0,0.0
5086,65.0,118,51,11.0,0.0
5087,70.0,2,51,10.0,0.0
5088,67.0,118,51,11.0,0.0
5089,67.0,2,51,10.0,0.0
5090,64.0,73,51,11.0,0.0
5091,72.0,7,345,1.0,0.0
5092,60.0,4,120,12.0,0.0
5093,60.0,68,345,3.0,0.0
5094,60.0,2,120,13.0,0.0
5095,48.0,39,120,14.0,0.0
5096,69.0,2,51,10.0,0.0
5097,65.0,118,51,11.0,0.0
5098,70.0,2,51,10.0,0.0
5099,67.0,54,51,11.0,0.0
5100,69.0,2,120,10.0,0.0
5101,77.0,7,60,1.0,0.0
5102,65.0,4,120,11.0,0.0
5103,53.0,4,120,12.0,0.0
5104,65.0,51,60,3.0,0.0
5105,53.0,2,120,13.0,0.0
5106,41.0,50,120,14.0,0.0
5107,76.0,7,60,1.0,0.0
5108,64.0,113,60,3.0,0.0
5109,77.0,7,60,1.0,0.0
5110,65.0,102,60,3.0,0.0
5111,64.0,2,51,10.0,0.0
5112,61.0,73,51,11.0,0.0
5113,69.0,7,345,1.0,0.0
5114,57.0,4,120,12.0,0.0
5115,57.0,68,345,3.0,0.0
5116,57.0,2,120,13.0,0.0
5117,45.0,39,120,14.0,0.0
5118,65.0,2,51,10.0,0.0
5119,62.0,118,51,11.0,0.0
5120,67.0,2,51,10.0,0.0
5121,64.0,54,51,11.0,0.0
5122,65.0,2,120,10.0,0.0
5123,74.0,7,60,1.0,0.0
5124,62.0,4,120,11.0,0.0
5125,50.0,4,120,12.0,0.0
5126,62.0,51,60,3.0,0.0
5127,50.0,2,120,13.0,0.0
5128,38.0,50,120,14.0,0.0
5129,73.0,7,60,1.0,0.0
5130,61.0,113,60,3.0,0.0
5131,74.0,7,60,1.0,0.0
5132,62.0,173,60,3.0,0.0
5133,62.0,4,720,4.0,0.0
5134,62.0,4,120,11.0,0.0
5135,62.0,0,705,2.0,0.0
5136,74.0,2,705,2.0,0.0
5137,50.0,100,720,5.0,0.0
5138,50.0,3,120,12.0,0.0
5139,46.0,0,705,3.0,0.0
5140,50.0,1,120,3.0,0.0
5141,50.0,112,120,13.0,0.0
5142,34.0,2,700,14.0,0.0
5143,64.0,4,120,11.0,0.0
5144,52.0,3,120,12.0,0.0
5145,52.0,1,120,3.0,0.0
5146,52.0,112,120,13.0,0.0
5147,65.0,4,120,11.0,0.0
5148,53.0,3,120,12.0,0.0
5149,53.0,1,120,3.0,0.0
5150,53.0,112,120,13.0,0.0
5151,66.0,4,120,11.0,0.0
5152,54.0,3,120,12.0,0.0
5153,54.0,1,120,3.0,0.0
5154,54.0,112,120,13.0,0.0
5155,67.0,4,120,11.0,0.0
5156,55.0,3,120,12.0,0.0
5157,55.0,1,120,3.0,0.0
5158,55.0,92,120,13.0,0.0
5159,68.0,4,100,11.0,0.0
5160,56.0,2,100,12.0,0.0
5161,56.0,8,105,3.0,0.0
5162,56.0,2,100,13.0,0.0
5163,81.0,2,120,10.0,0.0
5164,69.0,2,340,10.0,0.0
5165,69.0,9,120,11.0,0.0
5166,57.0,1,350,4.0,0.0
5167,57.0,1,350,6.0,0.0
5168,73.0,2,345,2.0,0.0
5169,61.0,0,345,2.0,0.0
5170,69.0,0,350,6.0,0.0
5171,45.0,64,350,5.0,0.0
5172,57.0,4,100,12.0,0.0
5173,57.0,6,105,3.0,0.0
5174,45.0,0,105,3.0,0.0
5175,57.0,2,100,13.0,0.0
5176,45.0,95,120,15.0,0.0
5177,33.0,2,100,14.0,0.0
5178,80.0,2,120,10.0,0.0
5179,68.0,98,120,11.0,0.0
5180,69.0,4,100,12.0,0.0
5181,57.0,6,105,3.0,0.0
5182,57.0,2,100,13.0,0.0
5183,45.0,2,100,14.0,0.0
5184,79.0,0,100,10.0,0.0
5185,67.0,4,100,11.0,0.0
5186,69.0,2,100,12.0,0.0
5187,57.0,2,105,3.0,0.0
5188,57.0,2,100,13.0,0.0
5189,45.0,0,100,14.0,0.0
5190,78.0,2,60,10.0,0.0
5191,66.0,60,60,11.0,0.0
5192,62.0,1,120,4.0,0.0
5193,62.0,0,120,6.0,0.0
5194,74.0,0,120,6.0,0.0
5195,74.0,0,120,2.0,0.0
5196,62.0,3,120,2.0,0.0
5197,50.0,0,120,5.0,0.0
5198,62.0,3,120,12.0,0.0
5199,50.0,1,120,3.0,0.0
5200,50.0,1,120,13.0,0.0
5201,50.0,1,120,15.0,0.0
5202,38.0,48,120,14.0,0.0
5203,76.0,2,60,10.0,0.0
5204,64.0,118,60,11.0,0.0
5205,74.0,2,60,10.0,0.0
5206,62.0,120,60,11.0,0.0
5207,72.0,7,340,10.0,0.0
5208,72.0,7,345,1.0,0.0
5209,67.0,4,60,11.0,0.0
5210,64.0,64,60,12.0,0.0
5211,60.0,66,345,3.0,0.0
5212,60.0,2,120,13.0,0.0
5213,48.0,50,120,14.0,0.0
5214,69.0,4,60,11.0,0.0
5215,65.0,116,60,12.0,0.0
5216,70.0,4,60,11.0,0.0
5217,67.0,34,60,12.0,0.0
5218,77.0,2,60,10.0,0.0
5219,69.0,4,120,11.0,0.0
5220,77.0,7,60,1.0,0.0
5221,65.0,4,120,12.0,0.0
5222,65.0,53,60,3.0,0.0
5223,53.0,2,120,13.0,0.0
5224,41.0,48,120,14.0,0.0
5225,76.0,2,60,10.0,0.0
5226,76.0,7,60,1.0,0.0
5227,64.0,111,60,3.0,0.0
5228,77.0,2,60,10.0,0.0
5229,77.0,7,60,1.0,0.0
5230,65.0,113,60,3.0,0.0
5231,69.0,6,340,10.0,0.0
5232,81.0,1,345,0.0,0.0
5233,64.0,4,60,11.0,0.0
5234,69.0,7,345,1.0,0.0
5235,61.0,64,60,12.0,0.0
5236,57.0,66,345,3.0,0.0
5237,57.0,2,120,13.0,0.0
5238,45.0,50,120,14.0,0.0
5239,65.0,4,60,11.0,0.0
5240,62.0,116,60,12.0,0.0
5241,67.0,4,60,11.0,0.0
5242,64.0,34,60,12.0,0.0
5243,74.0,1,60,10.0,0.0
5244,86.0,1,60,0.0,0.0
5245,65.0,4,120,11.0,0.0
5246,74.0,7,60,1.0,0.0
5247,62.0,4,120,12.0,0.0
5248,62.0,53,60,3.0,0.0
5249,50.0,2,120,13.0,0.0
5250,38.0,48,120,14.0,0.0
5251,73.0,1,60,10.0,0.0
5252,85.0,1,60,0.0,0.0
5253,73.0,7,60,1.0,0.0
5254,61.0,111,60,3.0,0.0
5255,74.0,1,60,10.0,0.0
5256,86.0,1,60,0.0,0.0
5257,74.0,7,60,1.0,0.0
5258,62.0,173,60,3.0,0.0
5259,62.0,4,120,11.0,0.0
5260,62.0,4,720,4.0,0.0
5261,74.0,0,705,2.0,0.0
5262,62.0,2,705,2.0,0.0
5263,50.0,3,120,12.0,0.0
5264,50.0,100,720,5.0,0.0
5265,46.0,8,705,3.0,0.0
5266,50.0,1,120,3.0,0.0
5267,50.0,112,120,13.0,0.0
5268,34.0,2,700,14.0,0.0
5269,64.0,4,120,11.0,0.0
5270,52.0,3,120,12.0,0.0
5271,52.0,1,120,3.0,0.0
5272,52.0,112,120,13.0,0.0
5273,65.0,4,120,11.0,0.0
5274,53.0,3,120,12.0,0.0
5275,53.0,1,120,3.0,0.0
5276,53.0,112,120,13.0,0.0
5277,66.0,4,120,11.0,0.0
5278,54.0,3,120,12.0,0.0
5279,54.0,1,120,3.0,0.0
5280,54.0,112,120,13.0,0.0
5281,67.0,4,120,11.0,0.0
5282,55.0,3,120,12.0,0.0
5283,55.0,1,120,3.0,0.0
5284,55.0,92,120,13.0,0.0
5285,68.0,4,100,11.0,0.0
5286,56.0,2,100,12.0,0.0
5287,56.0,0,105,3.0,0.0
5288,56.0,2,100,13.0,0.0
5289,69.0,2,340,10.0,0.0
5290,81.0,2,120,10.0,0.0
5291,57.0,1,350,4.0,0.0
5292,69.0,9,120,11.0,0.0
5293,57.0,1,350,6.0,0.0
5294,69.0,0,350,6.0,0.0
5295,73.0,2,345,2.0,0.0
5296,61.0,0,345,2.0,0.0
5297,45.0,64,350,5.0,0.0
5298,57.0,4,100,12.0,0.0
5299,45.0,6,105,3.0,0.0
5300,57.0,0,105,3.0,0.0
5301,57.0,2,100,13.0,0.0
5302,45.0,95,120,15.0,0.0
5303,33.0,2,100,14.0,0.0
5304,80.0,2,120,10.0,0.0
5305,68.0,98,120,11.0,0.0
5306,69.0,4,100,12.0,0.0
5307,57.0,6,105,3.0,0.0
5308,57.0,2,100,13.0,0.0
5309,45.0,2,100,14.0,0.0
5310,79.0,0,100,10.0,0.0
5311,67.0,4,100,11.0,0.0
5312,69.0,2,100,12.0,0.0
5313,57.0,2,105,3.0,0.0
5314,57.0,2,100,13.0,0.0
5315,45.0,0,100,14.0,0.0
5316,78.0,2,60,10.0,0.0
5317,66.0,60,60,11.0,0.0
5318,62.0,1,120,4.0,0.0
5319,74.0,3,120,2.0,0.0
5320,62.0,0,120,6.0,0.0
5321,74.0,0,120,6.0,0.0
5322,62.0,0,120,2.0,0.0
5323,62.0,3,120,12.0,0.0
5324,50.0,0,120,5.0,0.0
5325,62.0,1,120,3.0,0.0
5326,62.0,1,120,13.0,0.0
5327,50.0,1,120,15.0,0.0
5328,50.0,48,120,14.0,0.0
5329,76.0,2,60,10.0,0.0
5330,64.0,118,60,11.0,0.0
5331,74.0,2,60,10.0,0.0
5332,62.0,180,60,11.0,0.0
5333,62.0,4,120,11.0,0.0
5334,62.0,4,720,4.0,0.0
5335,62.0,2,705,2.0,0.0
5336,74.0,0,705,2.0,0.0
5337,50.0,3,120,12.0,0.0
5338,50.0,100,720,5.0,0.0
5339,50.0,1,120,3.0,0.0
5340,46.0,0,705,3.0,0.0
5341,50.0,112,120,13.0,0.0
5342,34.0,2,700,14.0,0.0
5343,64.0,4,120,11.0,0.0
5344,52.0,3,120,12.0,0.0
5345,52.0,1,120,3.0,0.0
5346,52.0,112,120,13.0,0.0
5347,65.0,4,120,11.0,0.0
5348,53.0,3,120,12.0,0.0
5349,53.0,1,120,3.0,0.0
5350,53.0,112,120,13.0,0.0
5351,66.0,4,120,11.0,0.0
5352,54.0,3,120,12.0,0.0
5353,54.0,1,120,3.0,0.0
5354,54.0,112,120,13.0,0.0
5355,67.0,4,120,11.0,0.0
5356,55.0,3,120,12.0,0.0
5357,55.0,1,120,3.0,0.0
5358,55.0,92,120,13.0,0.0
5359,68.0,4,100,11.0,0.0
5360,56.0,2,100,12.0,0.0
5361,56.0,8,105,3.0,0.0
5362,56.0,2,100,13.0,0.0
5363,69.0,2,340,10.0,0.0
5364,81.0,2,120,10.0,0.0
5365,57.0,0,350,4.0,0.0
5366,69.0,9,120,11.0,0.0
5367,69.0,1,350,6.0,0.0
5368,73.0,2,345,2.0,0.0
5369,61.0,0,345,2.0,0.0
5370,57.0,0,350,6.0,0.0
5371,57.0,4,100,12.0,0.0
5372,45.0,64,350,5.0,0.0
5373,57.0,0,105,3.0,0.0
5374,45.0,6,105,3.0,0.0
5375,57.0,2,100,13.0,0.0
5376,45.0,95,120,15.0,0.0
5377,33.0,2,100,14.0,0.0
5378,80.0,2,120,10.0,0.0
5379,68.0,98,120,11.0,0.0
5380,69.0,4,100,12.0,0.0
5381,57.0,6,105,3.0,0.0
5382,57.0,2,100,13.0,0.0
5383,45.0,2,100,14.0,0.0
5384,79.0,0,100,10.0,0.0
5385,67.0,4,100,11.0,0.0
5386,69.0,2,100,12.0,0.0
5387,57.0,2,105,3.0,0.0
5388,57.0,2,100,13.0,0.0
5389,45.0,1,100,14.0,0.0
5390,78.0,2,60,10.0,0.0
5391,62.0,4,110,4.0,0.0
5392,66.0,50,60,11.0,0.0
5393,74.0,0,120,2.0,0.0
5394,62.0,0,120,6.0,0.0
5395,74.0,0,120,6.0,0.0
5396,62.0,3,120,2.0,0.0
5397,50.0,7,110,5.0,0.0
5398,74.0,3,120,12.0,0.0
5399,62.0,1,120,3.0,0.0
5400,62.0,1,120,13.0,0.0
5401,50.0,1,120,15.0,0.0
5402,50.0,48,120,14.0,0.0
5403,74.0,2,60,10.0,0.0
5404,66.0,4,110,4.0,0.0
5405,62.0,50,60,11.0,0.0
5406,54.0,64,110,5.0,0.0
5407,78.0,2,60,10.0,0.0
5408,62.0,4,110,4.0,0.0
5409,66.0,50,60,11.0,0.0
5410,50.0,110,110,5.0,0.0
5411,69.0,2,340,10.0,0.0
5412,81.0,2,120,10.0,0.0
5413,85.0,2,345,0.0,0.0
5414,57.0,1,350,4.0,0.0
5415,69.0,9,120,11.0,0.0
5416,69.0,0,350,6.0,0.0
5417,73.0,2,345,2.0,0.0
5418,57.0,1,350,6.0,0.0
5419,57.0,4,100,12.0,0.0
5420,45.0,64,350,5.0,0.0
5421,45.0,6,105,3.0,0.0
5422,61.0,0,345,3.0,0.0
5423,45.0,2,100,13.0,0.0
5424,45.0,95,120,15.0,0.0
5425,33.0,2,100,14.0,0.0
5426,80.0,2,120,10.0,0.0
5427,68.0,98,120,11.0,0.0
5428,69.0,4,100,12.0,0.0
5429,57.0,6,105,3.0,0.0
5430,57.0,2,100,13.0,0.0
5431,45.0,2,100,14.0,0.0
5432,79.0,0,100,10.0,0.0
5433,67.0,4,100,11.0,0.0
5434,69.0,0,100,12.0,0.0
5435,57.0,2,105,3.0,0.0
5436,57.0,2,100,13.0,0.0
5437,45.0,0,100,14.0,0.0
5438,78.0,2,60,10.0,0.0
5439,86.0,2,120,0.0,0.0
5440,62.0,4,110,4.0,0.0
5441,66.0,50,60,11.0,0.0
5442,62.0,0,120,6.0,0.0
5443,74.0,0,120,2.0,0.0
5444,74.0,3,120,6.0,0.0
5445,50.0,5,110,5.0,0.0
5446,74.0,3,120,12.0,0.0
5447,62.0,1,120,3.0,0.0
5448,50.0,0,120,3.0,0.0
5449,62.0,1,120,13.0,0.0
5450,50.0,1,120,15.0,0.0
5451,50.0,48,120,14.0,0.0
5452,74.0,2,60,10.0,0.0
5453,66.0,4,110,4.0,0.0
5454,62.0,50,60,11.0,0.0
5455,54.0,64,110,5.0,0.0
5456,78.0,2,60,10.0,0.0
5457,66.0,50,60,11.0,0.0
5458,62.0,4,110,4.0,0.0
5459,50.0,69,110,5.0,0.0
5460,69.0,0,700,10.0,0.0
5461,81.0,1,480,10.0,0.0
5462,81.0,1,480,0.0,0.0
5463,85.0,0,480,0.0,0.0
5464,81.0,0,480,1.0,0.0
5465,69.0,1,480,1.0,0.0
5466,61.0,3,120,11.0,0.0
5467,57.0,4,470,4.0,0.0
5468,69.0,1,710,6.0,0.0
5469,69.0,0,480,2.0,0.0
5470,73.0,2,480,2.0,0.0
5471,57.0,0,710,6.0,0.0
5472,57.0,4,120,12.0,0.0
5473,45.0,4,470,5.0,0.0
5474,61.0,0,480,3.0,0.0
5475,57.0,1,480,3.0,0.0
5476,45.0,2,120,13.0,0.0
5477,45.0,57,54,15.0,0.0
5478,33.0,53,120,14.0,0.0
5479,45.0,1,54,15.0,0.0
5480,64.0,3,120,11.0,0.0
5481,61.0,4,120,12.0,0.0
5482,45.0,57,54,15.0,0.0
5483,45.0,1,54,15.0,0.0
5484,69.0,3,120,11.0,0.0
5485,64.0,4,120,12.0,0.0
5486,57.0,2,0,13.0,0.0
5487,45.0,57,54,15.0,0.0
5488,45.0,53,0,14.0,0.0
5489,45.0,1,54,15.0,0.0
5490,73.0,0,120,11.0,0.0
5491,69.0,3,120,12.0,0.0
5492,57.0,2,0,13.0,0.0
5493,45.0,47,54,15.0,0.0
5494,45.0,53,0,14.0,0.0
5495,45.0,1,54,15.0,0.0
5496,80.0,1,120,10.0,0.0
5497,83.0,1,120,0.0,0.0
5498,86.0,0,120,0.0,0.0
5499,74.0,1,120,11.0,0.0
5500,68.0,0,120,1.0,0.0
5501,80.0,0,120,1.0,0.0
5502,64.0,4,110,4.0,0.0
5503,71.0,0,120,2.0,0.0
5504,74.0,2,120,2.0,0.0
5505,71.0,3,120,12.0,0.0
5506,57.0,4,110,5.0,0.0
5507,62.0,0,120,3.0,0.0
5508,59.0,1,120,3.0,0.0
5509,45.0,47,54,15.0,0.0
5510,45.0,1,54,15.0,0.0
5511,79.0,2,100,10.0,0.0
5512,85.0,0,105,0.0,0.0
5513,88.0,1,105,0.0,0.0
5514,64.0,0,110,4.0,0.0
5515,79.0,1,105,1.0,0.0
5516,76.0,4,100,11.0,0.0
5517,67.0,0,105,1.0,0.0
5518,73.0,2,105,2.0,0.0
5519,76.0,0,105,2.0,0.0
5520,73.0,0,100,12.0,0.0
5521,57.0,9,110,5.0,0.0
5522,61.0,2,105,3.0,0.0
5523,64.0,0,105,3.0,0.0
5524,57.0,2,0,13.0,0.0
5525,45.0,35,54,15.0,0.0
5526,45.0,53,0,14.0,0.0
5527,45.0,115,54,15.0,0.0
5528,78.0,1,120,10.0,0.0
5529,78.0,1,120,0.0,0.0
5530,90.0,0,120,0.0,0.0
5531,66.0,0,120,1.0,0.0
5532,78.0,0,120,11.0,0.0
5533,62.0,1,120,4.0,0.0
5534,78.0,0,120,1.0,0.0
5535,74.0,0,120,6.0,0.0
5536,62.0,0,120,6.0,0.0
5537,78.0,3,120,2.0,0.0
5538,74.0,0,120,2.0,0.0
5539,74.0,0,120,12.0,0.0
5540,54.0,3,120,5.0,0.0
5541,66.0,0,120,3.0,0.0
5542,62.0,1,120,3.0,0.0
5543,62.0,1,120,13.0,0.0
5544,50.0,1,120,15.0,0.0
5545,50.0,168,120,14.0,0.0
5546,69.0,0,60,10.0,0.0
5547,85.0,1,60,10.0,0.0
5548,85.0,1,60,0.0,0.0
5549,69.0,0,60,11.0,0.0
5550,64.0,0,60,4.0,0.0
5551,76.0,0,60,1.0,0.0
5552,73.0,0,60,1.0,0.0
5553,79.0,1,60,11.0,0.0
5554,57.0,0,60,6.0,0.0
5555,69.0,0,60,6.0,0.0
5556,76.0,0,60,2.0,0.0
5557,73.0,2,60,2.0,0.0
5558,57.0,3,60,5.0,0.0
5559,69.0,0,60,12.0,0.0
5560,57.0,1,60,3.0,0.0
5561,57.0,2,60,13.0,0.0
5562,45.0,1,54,15.0,0.0
5563,45.0,108,60,14.0,0.0
5564,69.0,0,60,10.0,0.0
5565,62.0,0,60,10.0,0.0
5566,86.0,1,60,10.0,0.0
5567,86.0,1,60,0.0,0.0
5568,62.0,0,60,11.0,0.0
5569,78.0,0,60,1.0,0.0
5570,74.0,0,60,1.0,0.0
5571,78.0,0,60,11.0,0.0
5572,62.0,0,60,4.0,0.0
5573,69.0,1,60,11.0,0.0
5574,74.0,0,60,6.0,0.0
5575,62.0,2,60,6.0,0.0
5576,74.0,0,60,2.0,0.0
5577,54.0,3,60,5.0,0.0
5578,62.0,0,60,12.0,0.0
5579,50.0,1,60,3.0,0.0
5580,62.0,0,60,3.0,0.0
5581,50.0,2,60,13.0,0.0
5582,50.0,1,54,15.0,0.0
5583,38.0,300,60,14.0,0.0
