,note,step,duration,channel,velocity
0,71.0,2,102,1.0,0.0
1,71.0,0,102,2.0,0.0
2,67.0,8,102,2.0,0.0
3,43.0,36,60,13.0,0.0
4,62.0,14,102,3.0,0.0
5,55.0,0,102,3.0,0.0
6,50.0,60,60,13.0,0.0
7,71.0,30,74,1.0,0.0
8,71.0,8,102,2.0,0.0
9,67.0,0,102,2.0,0.0
10,55.0,8,60,13.0,0.0
11,55.0,0,102,3.0,0.0
12,62.0,3,102,3.0,0.0
13,62.0,60,60,13.0,0.0
14,71.0,11,30,1.0,0.0
15,72.0,2,102,1.0,0.0
16,64.0,0,102,2.0,0.0
17,67.0,8,102,2.0,0.0
18,64.0,36,60,13.0,0.0
19,60.0,14,102,3.0,0.0
20,55.0,0,102,3.0,0.0
21,60.0,60,60,13.0,0.0
22,71.0,2,102,1.0,0.0
23,71.0,0,102,2.0,0.0
24,67.0,8,102,2.0,0.0
25,43.0,36,60,13.0,0.0
26,62.0,14,102,3.0,0.0
27,55.0,0,102,3.0,0.0
28,50.0,60,60,13.0,0.0
29,71.0,30,74,1.0,0.0
30,67.0,8,102,2.0,0.0
31,71.0,0,102,2.0,0.0
32,55.0,8,60,13.0,0.0
33,55.0,3,102,3.0,0.0
34,62.0,0,102,3.0,0.0
35,62.0,60,60,13.0,0.0
36,71.0,11,30,1.0,0.0
37,76.0,2,102,1.0,0.0
38,66.0,8,102,2.0,0.0
39,69.0,0,102,2.0,0.0
40,60.0,36,60,13.0,0.0
41,55.0,14,102,3.0,0.0
42,60.0,0,102,3.0,0.0
43,57.0,60,60,13.0,0.0
44,71.0,2,110,1.0,0.0
45,71.0,0,102,2.0,0.0
46,67.0,6,102,2.0,0.0
47,43.0,38,60,13.0,0.0
48,62.0,14,102,3.0,0.0
49,55.0,0,102,3.0,0.0
50,50.0,54,60,13.0,0.0
51,71.0,6,60,1.0,0.0
52,67.0,6,102,2.0,0.0
53,71.0,0,102,2.0,0.0
54,55.0,38,60,13.0,0.0
55,55.0,14,102,3.0,0.0
56,62.0,0,102,3.0,0.0
57,74.0,2,50,1.0,0.0
58,59.0,54,60,13.0,0.0
59,72.0,6,60,1.0,0.0
60,62.0,6,102,2.0,0.0
61,66.0,0,102,2.0,0.0
62,57.0,4,60,13.0,0.0
63,55.0,8,102,3.0,0.0
64,62.0,34,60,3.0,0.0
65,69.0,2,50,1.0,0.0
66,50.0,60,60,13.0,0.0
67,60.0,6,50,3.0,0.0
68,71.0,2,102,1.0,0.0
69,62.0,0,102,2.0,0.0
70,67.0,8,102,2.0,0.0
71,43.0,36,60,13.0,0.0
72,55.0,0,102,3.0,0.0
73,59.0,14,102,3.0,0.0
74,50.0,60,60,13.0,0.0
75,71.0,2,120,1.0,0.0
76,62.0,4,120,2.0,0.0
77,67.0,24,160,2.0,0.0
78,55.0,46,60,13.0,0.0
79,59.0,0,102,3.0,0.0
80,55.0,8,102,3.0,0.0
81,62.0,24,60,13.0,0.0
82,72.0,2,30,1.0,0.0
83,64.0,10,30,2.0,0.0
84,67.0,4,60,13.0,0.0
85,55.0,0,102,3.0,0.0
86,71.0,2,30,1.0,0.0
87,66.0,38,30,2.0,0.0
88,62.0,0,30,2.0,0.0
89,69.0,2,30,1.0,0.0
90,60.0,0,30,2.0,0.0
91,64.0,70,30,2.0,0.0
92,67.0,10,102,1.0,0.0
93,62.0,40,60,2.0,0.0
94,59.0,0,60,2.0,0.0
95,55.0,14,102,3.0,0.0
96,43.0,60,60,13.0,0.0
97,64.0,2,102,1.0,0.0
98,62.0,0,102,2.0,0.0
99,55.0,8,102,2.0,0.0
100,48.0,36,60,13.0,0.0
101,55.0,14,102,3.0,0.0
102,47.0,60,60,13.0,0.0
103,66.0,2,102,1.0,0.0
104,60.0,8,102,2.0,0.0
105,45.0,36,60,13.0,0.0
106,55.0,14,102,3.0,0.0
107,50.0,60,60,13.0,0.0
108,62.0,2,102,1.0,0.0
109,57.0,8,102,2.0,0.0
110,60.0,0,102,2.0,0.0
111,43.0,36,60,13.0,0.0
112,55.0,14,102,3.0,0.0
113,50.0,60,60,13.0,0.0
114,67.0,2,102,1.0,0.0
115,55.0,8,102,2.0,0.0
116,59.0,0,102,2.0,0.0
117,55.0,36,60,13.0,0.0
118,55.0,14,102,3.0,0.0
119,62.0,24,60,13.0,0.0
120,72.0,2,30,1.0,0.0
121,67.0,0,30,2.0,0.0
122,64.0,34,30,2.0,0.0
123,67.0,4,60,13.0,0.0
124,55.0,0,102,3.0,0.0
125,71.0,2,30,1.0,0.0
126,66.0,38,30,2.0,0.0
127,62.0,0,30,2.0,0.0
128,69.0,2,30,1.0,0.0
129,64.0,0,30,2.0,0.0
130,60.0,110,30,2.0,0.0
131,67.0,2,102,1.0,0.0
132,62.0,8,102,2.0,0.0
133,59.0,0,102,2.0,0.0
134,55.0,14,102,3.0,0.0
135,43.0,60,60,13.0,0.0
136,64.0,2,102,1.0,0.0
137,59.0,8,102,2.0,0.0
138,62.0,0,102,2.0,0.0
139,55.0,36,60,13.0,0.0
140,55.0,14,102,3.0,0.0
141,52.0,60,60,13.0,0.0
142,66.0,2,102,1.0,0.0
143,61.0,8,102,2.0,0.0
144,57.0,0,102,2.0,0.0
145,45.0,36,60,13.0,0.0
146,57.0,14,102,3.0,0.0
147,57.0,104,60,13.0,0.0
148,64.0,2,110,1.0,0.0
149,55.0,0,110,2.0,0.0
150,61.0,8,110,2.0,0.0
151,57.0,0,110,3.0,0.0
152,50.0,6,110,3.0,0.0
153,38.0,60,60,13.0,0.0
154,62.0,0,240,1.0,0.0
155,54.0,8,230,2.0,0.0
156,57.0,0,230,2.0,0.0
157,45.0,60,60,13.0,0.0
158,50.0,0,230,3.0,0.0
159,57.0,6,230,3.0,0.0
160,50.0,60,60,13.0,0.0
161,54.0,46,60,13.0,0.0
162,57.0,60,60,13.0,0.0
163,67.0,10,110,1.0,0.0
164,76.0,0,110,1.0,0.0
165,50.0,44,60,13.0,0.0
166,50.0,6,110,3.0,0.0
167,57.0,0,110,3.0,0.0
168,57.0,60,60,13.0,0.0
169,74.0,10,230,1.0,0.0
170,66.0,0,230,1.0,0.0
171,62.0,60,60,13.0,0.0
172,50.0,6,230,3.0,0.0
173,57.0,0,230,3.0,0.0
174,57.0,60,60,13.0,0.0
175,50.0,44,60,13.0,0.0
176,57.0,104,60,13.0,0.0
177,64.0,2,110,1.0,0.0
178,55.0,8,110,2.0,0.0
179,60.0,0,110,2.0,0.0
180,50.0,6,110,3.0,0.0
181,57.0,0,110,3.0,0.0
182,38.0,60,60,13.0,0.0
183,62.0,6,240,1.0,0.0
184,54.0,8,230,2.0,0.0
185,57.0,0,230,2.0,0.0
186,45.0,60,60,13.0,0.0
187,60.0,0,230,3.0,0.0
188,50.0,0,230,3.0,0.0
189,50.0,60,60,13.0,0.0
190,54.0,46,60,13.0,0.0
191,57.0,60,60,13.0,0.0
192,76.0,0,110,1.0,0.0
193,67.0,10,110,1.0,0.0
194,43.0,44,60,13.0,0.0
195,55.0,0,110,3.0,0.0
196,59.0,6,110,3.0,0.0
197,50.0,60,60,13.0,0.0
198,74.0,6,180,1.0,0.0
199,65.0,0,180,1.0,0.0
200,59.0,60,60,13.0,0.0
201,55.0,6,230,3.0,0.0
202,59.0,0,230,3.0,0.0
203,55.0,54,60,13.0,0.0
204,43.0,44,60,13.0,0.0
205,67.0,10,50,1.0,0.0
206,76.0,0,50,1.0,0.0
207,55.0,54,60,13.0,0.0
208,65.0,0,60,1.0,0.0
209,74.0,6,60,1.0,0.0
210,36.0,54,60,13.0,0.0
211,55.0,50,120,3.0,0.0
212,48.0,0,120,3.0,0.0
213,64.0,6,60,1.0,0.0
214,72.0,0,60,1.0,0.0
215,48.0,4,60,13.0,0.0
216,66.0,6,120,4.0,0.0
217,62.0,0,60,1.0,0.0
218,71.0,6,60,1.0,0.0
219,38.0,54,60,13.0,0.0
220,60.0,50,120,3.0,0.0
221,50.0,0,120,3.0,0.0
222,69.0,0,60,1.0,0.0
223,60.0,0,60,1.0,0.0
224,50.0,4,60,13.0,0.0
225,62.0,6,60,1.0,0.0
226,67.0,0,230,4.0,0.0
227,71.0,0,60,1.0,0.0
228,43.0,44,60,13.0,0.0
229,59.0,6,110,3.0,0.0
230,55.0,0,110,3.0,0.0
231,67.0,0,50,1.0,0.0
232,59.0,10,50,1.0,0.0
233,50.0,60,60,13.0,0.0
234,67.0,16,110,1.0,0.0
235,76.0,0,110,1.0,0.0
236,47.0,44,60,13.0,0.0
237,47.0,6,230,3.0,0.0
238,55.0,0,230,3.0,0.0
239,50.0,60,60,13.0,0.0
240,74.0,6,180,1.0,0.0
241,65.0,0,180,1.0,0.0
242,67.0,0,120,4.0,0.0
243,55.0,54,60,13.0,0.0
244,50.0,54,60,13.0,0.0
245,68.0,0,110,4.0,0.0
246,46.0,44,60,13.0,0.0
247,46.0,0,110,3.0,0.0
248,56.0,6,110,3.0,0.0
249,64.0,0,50,1.0,0.0
250,76.0,10,50,1.0,0.0
251,56.0,54,60,13.0,0.0
252,69.0,10,230,4.0,0.0
253,62.0,0,60,1.0,0.0
254,77.0,6,60,1.0,0.0
255,45.0,54,60,13.0,0.0
256,45.0,6,230,3.0,0.0
257,57.0,6,470,3.0,0.0
258,76.0,0,60,1.0,0.0
259,67.0,6,60,1.0,0.0
260,57.0,54,60,13.0,0.0
261,65.0,0,60,1.0,0.0
262,74.0,50,60,1.0,0.0
263,64.0,0,50,1.0,0.0
264,73.0,0,50,1.0,0.0
265,57.0,104,60,13.0,0.0
266,77.0,3,230,0.0,0.0
267,86.0,0,230,0.0,0.0
268,69.0,2,230,4.0,0.0
269,74.0,16,110,1.0,0.0
270,62.0,0,110,1.0,0.0
271,65.0,0,230,2.0,0.0
272,74.0,8,230,2.0,0.0
273,50.0,0,230,3.0,0.0
274,50.0,60,60,13.0,0.0
275,43.0,41,60,13.0,0.0
276,50.0,60,60,13.0,0.0
277,86.0,5,180,0.0,0.0
278,77.0,0,180,0.0,0.0
279,71.0,2,230,4.0,0.0
280,74.0,4,180,2.0,0.0
281,65.0,0,180,2.0,0.0
282,55.0,60,60,13.0,0.0
283,43.0,6,230,3.0,0.0
284,55.0,0,230,3.0,0.0
285,50.0,51,60,13.0,0.0
286,43.0,41,60,13.0,0.0
287,79.0,0,50,0.0,0.0
288,88.0,3,50,0.0,0.0
289,67.0,8,50,2.0,0.0
290,76.0,0,50,2.0,0.0
291,55.0,51,60,13.0,0.0
292,77.0,0,60,0.0,0.0
293,86.0,5,60,0.0,0.0
294,67.0,7,110,4.0,0.0
295,74.0,0,60,2.0,0.0
296,65.0,4,60,2.0,0.0
297,36.0,44,60,13.0,0.0
298,48.0,47,120,3.0,0.0
299,55.0,0,120,3.0,0.0
300,84.0,5,60,0.0,0.0
301,76.0,0,60,0.0,0.0
302,64.0,0,60,2.0,0.0
303,72.0,4,60,2.0,0.0
304,48.0,4,60,13.0,0.0
305,74.0,5,60,0.0,0.0
306,83.0,0,60,0.0,0.0
307,66.0,2,120,4.0,0.0
308,78.0,0,120,1.0,0.0
309,62.0,0,60,2.0,0.0
310,71.0,4,60,2.0,0.0
311,38.0,51,60,13.0,0.0
312,50.0,47,120,3.0,0.0
313,60.0,0,120,3.0,0.0
314,81.0,0,60,0.0,0.0
315,72.0,3,60,0.0,0.0
316,69.0,4,60,2.0,0.0
317,60.0,0,60,2.0,0.0
318,50.0,4,60,13.0,0.0
319,83.0,0,60,0.0,0.0
320,74.0,5,60,0.0,0.0
321,79.0,16,170,1.0,0.0
322,67.0,2,230,4.0,0.0
323,71.0,4,60,2.0,0.0
324,62.0,0,60,2.0,0.0
325,43.0,41,60,13.0,0.0
326,59.0,0,110,3.0,0.0
327,55.0,6,110,3.0,0.0
328,71.0,0,50,0.0,0.0
329,79.0,5,50,0.0,0.0
330,67.0,8,50,2.0,0.0
331,59.0,0,50,2.0,0.0
332,50.0,44,60,13.0,0.0
333,67.0,14,110,2.0,0.0
334,76.0,0,110,2.0,0.0
335,47.0,44,60,13.0,0.0
336,47.0,0,350,3.0,0.0
337,55.0,6,350,3.0,0.0
338,79.0,16,110,1.0,0.0
339,50.0,44,60,13.0,0.0
340,67.0,2,230,4.0,0.0
341,74.0,0,180,2.0,0.0
342,65.0,4,180,2.0,0.0
343,55.0,60,60,13.0,0.0
344,79.0,12,110,1.0,0.0
345,50.0,44,60,13.0,0.0
346,47.0,44,60,13.0,0.0
347,79.0,0,50,1.0,0.0
348,76.0,8,50,2.0,0.0
349,64.0,0,50,2.0,0.0
350,50.0,44,60,13.0,0.0
351,68.0,2,110,4.0,0.0
352,80.0,12,50,1.0,0.0
353,62.0,4,60,2.0,0.0
354,77.0,0,60,2.0,0.0
355,46.0,44,60,13.0,0.0
356,46.0,0,350,3.0,0.0
357,56.0,6,350,3.0,0.0
358,80.0,16,110,1.0,0.0
359,64.0,0,50,2.0,0.0
360,76.0,14,50,2.0,0.0
361,50.0,44,60,13.0,0.0
362,68.0,2,230,4.0,0.0
363,74.0,4,180,2.0,0.0
364,65.0,0,180,2.0,0.0
365,58.0,60,60,13.0,0.0
366,80.0,12,110,1.0,0.0
367,50.0,44,60,13.0,0.0
368,46.0,44,60,13.0,0.0
369,80.0,0,50,1.0,0.0
370,64.0,8,50,2.0,0.0
371,76.0,0,50,2.0,0.0
372,50.0,44,60,13.0,0.0
373,69.0,2,110,4.0,0.0
374,81.0,12,50,1.0,0.0
375,77.0,4,60,2.0,0.0
376,62.0,0,60,2.0,0.0
377,45.0,44,60,13.0,0.0
378,57.0,0,230,3.0,0.0
379,45.0,6,230,3.0,0.0
380,81.0,54,110,1.0,0.0
381,76.0,14,50,2.0,0.0
382,64.0,0,50,2.0,0.0
383,50.0,44,60,13.0,0.0
384,69.0,12,350,4.0,0.0
385,65.0,16,102,2.0,0.0
386,74.0,0,102,2.0,0.0
387,81.0,40,100,1.0,0.0
388,73.0,0,102,2.0,0.0
389,64.0,16,102,2.0,0.0
390,57.0,34,0,13.0,0.0
391,45.0,0,110,3.0,0.0
392,57.0,0,110,3.0,0.0
393,82.0,24,40,1.0,0.0
394,81.0,6,40,1.0,0.0
395,77.0,6,60,1.0,0.0
396,62.0,0,120,2.0,0.0
397,74.0,4,120,2.0,0.0
398,50.0,44,60,13.0,0.0
399,50.0,0,120,3.0,0.0
400,57.0,50,120,3.0,0.0
401,76.0,0,50,1.0,0.0
402,57.0,4,60,13.0,0.0
403,74.0,16,110,1.0,0.0
404,65.0,50,60,4.0,0.0
405,64.0,0,50,4.0,0.0
406,62.0,60,50,4.0,0.0
407,74.0,0,110,1.0,0.0
408,62.0,44,0,13.0,0.0
409,62.0,52,110,4.0,0.0
410,72.0,16,50,1.0,0.0
411,74.0,2,102,1.0,0.0
412,71.0,0,102,1.0,0.0
413,76.0,22,102,2.0,0.0
414,62.0,44,0,13.0,0.0
415,62.0,26,110,4.0,0.0
416,69.0,20,102,1.0,0.0
417,72.0,0,102,1.0,0.0
418,76.0,26,74,2.0,0.0
419,62.0,44,0,13.0,0.0
420,62.0,52,110,4.0,0.0
421,76.0,4,35,2.0,0.0
422,68.0,0,102,1.0,0.0
423,71.0,2,102,1.0,0.0
424,77.0,22,102,2.0,0.0
425,62.0,52,110,4.0,0.0
426,72.0,2,102,1.0,0.0
427,69.0,0,102,1.0,0.0
428,74.0,22,102,2.0,0.0
429,62.0,44,0,13.0,0.0
430,62.0,26,110,4.0,0.0
431,67.0,20,102,1.0,0.0
432,71.0,0,102,1.0,0.0
433,74.0,26,74,2.0,0.0
434,62.0,30,110,4.0,0.0
435,74.0,4,35,2.0,0.0
436,69.0,0,85,1.0,0.0
437,66.0,2,85,1.0,0.0
438,76.0,9,85,2.0,0.0
439,62.0,44,0,13.0,0.0
440,62.0,5,20,4.0,0.0
441,71.0,2,102,1.0,0.0
442,71.0,8,102,2.0,0.0
443,67.0,0,102,2.0,0.0
444,43.0,36,60,13.0,0.0
445,55.0,14,102,3.0,0.0
446,62.0,0,102,3.0,0.0
447,62.0,16,110,4.0,0.0
448,50.0,44,60,13.0,0.0
449,71.0,30,74,1.0,0.0
450,71.0,0,102,2.0,0.0
451,67.0,8,102,2.0,0.0
452,55.0,8,60,13.0,0.0
453,62.0,0,102,3.0,0.0
454,55.0,3,102,3.0,0.0
455,62.0,16,110,4.0,0.0
456,62.0,44,60,13.0,0.0
457,71.0,11,30,1.0,0.0
458,72.0,2,102,1.0,0.0
459,67.0,0,102,2.0,0.0
460,64.0,8,102,2.0,0.0
461,64.0,36,60,13.0,0.0
462,55.0,0,102,3.0,0.0
463,60.0,14,102,3.0,0.0
464,62.0,16,110,4.0,0.0
465,60.0,44,60,13.0,0.0
466,71.0,2,102,1.0,0.0
467,71.0,8,102,2.0,0.0
468,67.0,0,102,2.0,0.0
469,43.0,36,60,13.0,0.0
470,55.0,0,102,3.0,0.0
471,62.0,14,102,3.0,0.0
472,62.0,16,110,4.0,0.0
473,50.0,44,60,13.0,0.0
474,71.0,30,74,1.0,0.0
475,71.0,8,102,2.0,0.0
476,67.0,0,102,2.0,0.0
477,55.0,8,60,13.0,0.0
478,55.0,0,102,3.0,0.0
479,62.0,3,102,3.0,0.0
480,62.0,16,110,4.0,0.0
481,62.0,44,60,13.0,0.0
482,71.0,11,30,1.0,0.0
483,76.0,2,102,1.0,0.0
484,66.0,8,102,2.0,0.0
485,69.0,0,102,2.0,0.0
486,60.0,36,60,13.0,0.0
487,55.0,0,102,3.0,0.0
488,60.0,14,102,3.0,0.0
489,62.0,16,110,4.0,0.0
490,57.0,44,60,13.0,0.0
491,71.0,0,110,1.0,0.0
492,67.0,10,110,1.0,0.0
493,67.0,0,120,2.0,0.0
494,71.0,4,120,2.0,0.0
495,43.0,44,60,13.0,0.0
496,62.0,0,110,3.0,0.0
497,55.0,2,110,3.0,0.0
498,62.0,10,110,4.0,0.0
499,50.0,44,60,13.0,0.0
500,71.0,6,60,1.0,0.0
501,67.0,0,110,1.0,0.0
502,55.0,44,60,13.0,0.0
503,55.0,0,230,3.0,0.0
504,62.0,6,230,3.0,0.0
505,74.0,16,50,1.0,0.0
506,62.0,10,110,4.0,0.0
507,59.0,44,60,13.0,0.0
508,72.0,6,60,1.0,0.0
509,66.0,0,110,1.0,0.0
510,57.0,44,60,13.0,0.0
511,69.0,10,50,1.0,0.0
512,62.0,10,110,4.0,0.0
513,50.0,44,60,13.0,0.0
514,67.0,16,110,1.0,0.0
515,70.0,6,60,1.0,0.0
516,55.0,44,60,13.0,0.0
517,62.0,6,230,3.0,0.0
518,55.0,0,230,3.0,0.0
519,74.0,0,50,1.0,0.0
520,62.0,10,110,4.0,0.0
521,58.0,44,60,13.0,0.0
522,72.0,6,60,1.0,0.0
523,66.0,10,110,1.0,0.0
524,57.0,44,60,13.0,0.0
525,62.0,16,110,4.0,0.0
526,69.0,0,60,1.0,0.0
527,50.0,44,60,13.0,0.0
528,82.0,0,230,0.0,0.0
529,79.0,3,230,0.0,0.0
530,70.0,0,120,1.0,0.0
531,67.0,6,120,1.0,0.0
532,67.0,0,230,2.0,0.0
533,70.0,8,230,2.0,0.0
534,55.0,54,60,13.0,0.0
535,55.0,6,230,3.0,0.0
536,62.0,0,230,3.0,0.0
537,62.0,2,170,4.0,0.0
538,50.0,60,60,13.0,0.0
539,43.0,41,60,13.0,0.0
540,50.0,51,60,13.0,0.0
541,79.0,0,110,0.0,0.0
542,83.0,5,60,0.0,0.0
543,62.0,2,350,4.0,0.0
544,67.0,14,110,2.0,0.0
545,71.0,4,60,2.0,0.0
546,55.0,41,60,13.0,0.0
547,55.0,0,230,3.0,0.0
548,62.0,6,230,3.0,0.0
549,86.0,5,50,0.0,0.0
550,74.0,0,50,2.0,0.0
551,59.0,51,60,13.0,0.0
552,84.0,5,60,0.0,0.0
553,78.0,0,110,0.0,0.0
554,72.0,4,60,2.0,0.0
555,66.0,8,110,2.0,0.0
556,57.0,41,60,13.0,0.0
557,81.0,5,50,0.0,0.0
558,69.0,0,50,2.0,0.0
559,50.0,51,60,13.0,0.0
560,82.0,5,60,0.0,0.0
561,79.0,3,110,0.0,0.0
562,70.0,4,60,2.0,0.0
563,67.0,0,110,2.0,0.0
564,55.0,41,60,13.0,0.0
565,62.0,0,230,3.0,0.0
566,55.0,6,230,3.0,0.0
567,86.0,0,50,0.0,0.0
568,74.0,14,50,2.0,0.0
569,58.0,51,60,13.0,0.0
570,84.0,5,60,0.0,0.0
571,78.0,5,110,0.0,0.0
572,62.0,16,230,4.0,0.0
573,72.0,4,60,2.0,0.0
574,66.0,0,110,2.0,0.0
575,57.0,41,60,13.0,0.0
576,81.0,0,50,0.0,0.0
577,69.0,8,50,2.0,0.0
578,50.0,60,60,13.0,0.0
579,79.0,3,240,0.0,0.0
580,67.0,4,240,2.0,0.0
581,55.0,44,60,13.0,0.0
582,55.0,0,470,3.0,0.0
583,43.0,60,60,13.0,0.0
584,39.0,51,60,13.0,0.0
585,51.0,6,350,3.0,0.0
586,46.0,60,60,13.0,0.0
587,67.0,2,35,1.0,0.0
588,70.0,16,350,1.0,0.0
589,67.0,0,350,1.0,0.0
590,51.0,60,60,13.0,0.0
591,55.0,60,60,13.0,0.0
592,58.0,54,60,13.0,0.0
593,63.0,60,60,13.0,0.0
594,43.0,44,60,13.0,0.0
595,55.0,6,350,3.0,0.0
596,58.0,0,350,3.0,0.0
597,50.0,60,60,13.0,0.0
598,67.0,2,360,1.0,0.0
599,55.0,60,60,13.0,0.0
600,58.0,60,60,13.0,0.0
601,62.0,54,60,13.0,0.0
602,58.0,60,60,13.0,0.0
603,38.0,51,60,13.0,0.0
604,50.0,0,350,3.0,0.0
605,62.0,6,350,3.0,0.0
606,43.0,60,60,13.0,0.0
607,79.0,3,0,0.0,0.0
608,83.0,5,350,0.0,0.0
609,71.0,0,350,2.0,0.0
610,67.0,4,0,2.0,0.0
611,50.0,60,60,13.0,0.0
612,55.0,60,60,13.0,0.0
613,59.0,54,60,13.0,0.0
614,62.0,60,60,13.0,0.0
615,43.0,41,60,13.0,0.0
616,59.0,0,320,3.0,0.0
617,55.0,26,320,3.0,0.0
618,50.0,60,60,13.0,0.0
619,79.0,0,200,0.0,0.0
620,71.0,5,200,0.0,0.0
621,67.0,8,200,2.0,0.0
622,59.0,0,200,2.0,0.0
623,55.0,60,60,13.0,0.0
624,59.0,60,60,13.0,0.0
625,67.0,11,60,13.0,0.0
626,62.0,30,50,13.0,0.0
627,71.0,2,30,10.0,0.0
628,67.0,5,30,11.0,0.0
629,62.0,3,30,12.0,0.0
630,55.0,50,30,13.0,0.0
631,71.0,2,30,10.0,0.0
632,67.0,5,30,11.0,0.0
633,62.0,53,30,12.0,0.0
634,71.0,2,30,10.0,0.0
635,67.0,5,30,11.0,0.0
636,62.0,53,30,12.0,0.0
637,72.0,2,30,10.0,0.0
638,60.0,5,30,11.0,0.0
639,67.0,3,30,12.0,0.0
640,52.0,50,30,13.0,0.0
641,71.0,2,30,10.0,0.0
642,67.0,5,30,11.0,0.0
643,62.0,3,30,12.0,0.0
644,55.0,50,30,13.0,0.0
645,71.0,2,30,10.0,0.0
646,67.0,5,30,11.0,0.0
647,62.0,53,30,12.0,0.0
648,71.0,2,30,10.0,0.0
649,67.0,5,30,11.0,0.0
650,62.0,53,30,12.0,0.0
651,76.0,2,30,10.0,0.0
652,66.0,5,30,11.0,0.0
653,69.0,3,30,12.0,0.0
654,48.0,50,30,13.0,0.0
655,71.0,2,30,10.0,0.0
656,67.0,5,30,11.0,0.0
657,62.0,3,30,12.0,0.0
658,55.0,50,30,13.0,0.0
659,71.0,2,30,10.0,0.0
660,67.0,5,30,11.0,0.0
661,62.0,53,30,12.0,0.0
662,71.0,2,30,10.0,0.0
663,67.0,5,30,11.0,0.0
664,62.0,53,30,12.0,0.0
665,74.0,2,30,10.0,0.0
666,67.0,5,30,11.0,0.0
667,62.0,3,30,12.0,0.0
668,47.0,50,30,13.0,0.0
669,72.0,2,30,10.0,0.0
670,66.0,5,30,11.0,0.0
671,62.0,3,30,12.0,0.0
672,50.0,50,30,13.0,0.0
673,69.0,2,30,10.0,0.0
674,66.0,5,30,11.0,0.0
675,62.0,3,30,12.0,0.0
676,50.0,50,30,13.0,0.0
677,71.0,2,30,10.0,0.0
678,67.0,5,30,11.0,0.0
679,62.0,3,30,12.0,0.0
680,55.0,50,30,13.0,0.0
681,71.0,2,30,10.0,0.0
682,66.0,5,30,11.0,0.0
683,62.0,3,30,12.0,0.0
684,55.0,50,30,13.0,0.0
685,72.0,2,30,10.0,0.0
686,64.0,5,30,11.0,0.0
687,67.0,3,30,12.0,0.0
688,43.0,50,30,13.0,0.0
689,71.0,2,30,10.0,0.0
690,62.0,5,30,11.0,0.0
691,66.0,3,30,12.0,0.0
692,55.0,50,30,13.0,0.0
693,69.0,2,30,10.0,0.0
694,60.0,5,30,11.0,0.0
695,64.0,3,30,12.0,0.0
696,55.0,50,30,13.0,0.0
697,64.0,2,30,10.0,0.0
698,59.0,5,30,11.0,0.0
699,62.0,3,30,12.0,0.0
700,55.0,50,30,13.0,0.0
701,66.0,2,30,10.0,0.0
702,57.0,5,30,11.0,0.0
703,60.0,3,30,12.0,0.0
704,55.0,50,30,13.0,0.0
705,62.0,2,30,10.0,0.0
706,60.0,5,30,11.0,0.0
707,57.0,3,30,12.0,0.0
708,55.0,50,30,13.0,0.0
709,67.0,2,30,10.0,0.0
710,59.0,5,30,11.0,0.0
711,62.0,3,30,12.0,0.0
712,55.0,50,30,13.0,0.0
713,72.0,2,30,10.0,0.0
714,67.0,5,30,11.0,0.0
715,64.0,3,30,12.0,0.0
716,43.0,50,30,13.0,0.0
717,71.0,2,30,10.0,0.0
718,66.0,5,30,11.0,0.0
719,62.0,3,30,12.0,0.0
720,55.0,50,30,13.0,0.0
721,69.0,2,30,10.0,0.0
722,64.0,5,30,11.0,0.0
723,60.0,3,30,12.0,0.0
724,55.0,50,30,13.0,0.0
725,67.0,2,30,10.0,0.0
726,62.0,5,30,11.0,0.0
727,59.0,3,30,12.0,0.0
728,55.0,50,30,13.0,0.0
729,64.0,2,30,10.0,0.0
730,62.0,5,30,11.0,0.0
731,59.0,3,30,12.0,0.0
732,55.0,50,30,13.0,0.0
733,66.0,2,30,10.0,0.0
734,61.0,5,30,11.0,0.0
735,57.0,3,30,12.0,0.0
736,45.0,50,30,13.0,0.0
737,64.0,2,30,10.0,0.0
738,61.0,5,30,11.0,0.0
739,57.0,3,30,12.0,0.0
740,45.0,50,30,13.0,0.0
741,66.0,2,30,10.0,0.0
742,62.0,5,30,11.0,0.0
743,57.0,3,30,12.0,0.0
744,38.0,50,30,13.0,0.0
745,62.0,1,30,10.0,0.0
746,74.0,1,30,0.0,0.0
747,57.0,4,30,11.0,0.0
748,66.0,1,30,2.0,0.0
749,74.0,0,30,2.0,0.0
750,54.0,3,30,12.0,0.0
751,50.0,4,30,13.0,0.0
752,50.0,47,30,3.0,0.0
753,78.0,5,30,0.0,0.0
754,73.0,8,30,2.0,0.0
755,69.0,0,30,2.0,0.0
756,57.0,47,30,3.0,0.0
757,76.0,5,30,0.0,0.0
758,73.0,0,30,2.0,0.0
759,69.0,8,30,2.0,0.0
760,57.0,47,30,3.0,0.0
761,78.0,5,30,0.0,0.0
762,69.0,0,30,2.0,0.0
763,66.0,8,30,2.0,0.0
764,50.0,46,30,3.0,0.0
765,62.0,1,30,10.0,0.0
766,74.0,1,30,0.0,0.0
767,62.0,4,30,11.0,0.0
768,66.0,0,30,2.0,0.0
769,69.0,1,30,2.0,0.0
770,54.0,3,30,12.0,0.0
771,50.0,4,30,13.0,0.0
772,62.0,46,30,3.0,0.0
773,66.0,2,30,10.0,0.0
774,61.0,5,30,11.0,0.0
775,57.0,3,30,12.0,0.0
776,45.0,50,30,13.0,0.0
777,64.0,2,30,10.0,0.0
778,61.0,5,30,11.0,0.0
779,57.0,3,30,12.0,0.0
780,45.0,50,30,13.0,0.0
781,67.0,2,30,10.0,0.0
782,59.0,5,30,11.0,0.0
783,55.0,3,30,12.0,0.0
784,40.0,50,30,13.0,0.0
785,64.0,1,30,10.0,0.0
786,76.0,1,30,0.0,0.0
787,59.0,4,30,11.0,0.0
788,67.0,1,30,2.0,0.0
789,71.0,0,30,2.0,0.0
790,55.0,3,30,12.0,0.0
791,52.0,4,30,13.0,0.0
792,52.0,47,30,3.0,0.0
793,78.0,5,30,0.0,0.0
794,73.0,8,30,2.0,0.0
795,69.0,0,30,2.0,0.0
796,57.0,47,30,3.0,0.0
797,76.0,5,30,0.0,0.0
798,73.0,8,30,2.0,0.0
799,69.0,0,30,2.0,0.0
800,57.0,47,30,3.0,0.0
801,78.0,5,30,0.0,0.0
802,69.0,8,30,2.0,0.0
803,66.0,0,30,2.0,0.0
804,50.0,46,30,3.0,0.0
805,62.0,1,30,10.0,0.0
806,74.0,1,30,0.0,0.0
807,62.0,4,30,11.0,0.0
808,66.0,1,30,2.0,0.0
809,69.0,0,30,2.0,0.0
810,54.0,3,30,12.0,0.0
811,50.0,4,30,13.0,0.0
812,62.0,46,30,3.0,0.0
813,67.0,2,30,10.0,0.0
814,62.0,5,30,11.0,0.0
815,59.0,3,30,12.0,0.0
816,47.0,50,30,13.0,0.0
817,66.0,2,30,10.0,0.0
818,62.0,5,30,11.0,0.0
819,59.0,3,30,12.0,0.0
820,47.0,50,30,13.0,0.0
821,69.0,2,30,10.0,0.0
822,61.0,5,30,11.0,0.0
823,57.0,3,30,12.0,0.0
824,42.0,50,30,13.0,0.0
825,66.0,1,30,10.0,0.0
826,78.0,1,30,0.0,0.0
827,61.0,4,30,11.0,0.0
828,66.0,1,30,2.0,0.0
829,57.0,3,30,12.0,0.0
830,54.0,4,30,13.0,0.0
831,54.0,47,30,3.0,0.0
832,81.0,5,30,0.0,0.0
833,69.0,8,30,2.0,0.0
834,57.0,47,30,3.0,0.0
835,78.0,5,30,0.0,0.0
836,66.0,8,30,2.0,0.0
837,54.0,47,30,3.0,0.0
838,83.0,5,30,0.0,0.0
839,71.0,8,30,2.0,0.0
840,59.0,46,30,3.0,0.0
841,68.0,2,30,10.0,0.0
842,68.0,5,30,11.0,0.0
843,56.0,3,30,12.0,0.0
844,44.0,50,30,13.0,0.0
845,71.0,2,30,10.0,0.0
846,71.0,5,30,11.0,0.0
847,59.0,3,30,12.0,0.0
848,47.0,50,30,13.0,0.0
849,68.0,2,30,10.0,0.0
850,68.0,5,30,11.0,0.0
851,56.0,3,30,12.0,0.0
852,44.0,50,30,13.0,0.0
853,72.0,2,30,10.0,0.0
854,72.0,5,30,11.0,0.0
855,60.0,3,30,12.0,0.0
856,48.0,51,30,13.0,0.0
857,81.0,5,30,0.0,0.0
858,69.0,8,30,2.0,0.0
859,57.0,47,30,3.0,0.0
860,84.0,5,30,0.0,0.0
861,72.0,8,30,2.0,0.0
862,60.0,47,30,3.0,0.0
863,81.0,5,30,0.0,0.0
864,69.0,8,30,2.0,0.0
865,57.0,47,30,3.0,0.0
866,85.0,5,30,0.0,0.0
867,73.0,8,30,2.0,0.0
868,61.0,46,30,3.0,0.0
869,70.0,2,30,10.0,0.0
870,70.0,5,30,11.0,0.0
871,58.0,3,30,12.0,0.0
872,46.0,50,30,13.0,0.0
873,73.0,2,30,10.0,0.0
874,73.0,5,30,11.0,0.0
875,61.0,3,30,12.0,0.0
876,49.0,50,30,13.0,0.0
877,70.0,2,30,10.0,0.0
878,70.0,5,30,11.0,0.0
879,58.0,3,30,12.0,0.0
880,46.0,50,30,13.0,0.0
881,74.0,2,30,10.0,0.0
882,74.0,5,30,11.0,0.0
883,62.0,3,30,12.0,0.0
884,50.0,51,30,13.0,0.0
885,83.0,5,30,0.0,0.0
886,71.0,8,30,2.0,0.0
887,59.0,47,30,3.0,0.0
888,86.0,5,30,0.0,0.0
889,74.0,8,30,2.0,0.0
890,62.0,46,30,3.0,0.0
891,71.0,2,30,10.0,0.0
892,71.0,5,30,11.0,0.0
893,59.0,3,30,12.0,0.0
894,59.0,50,30,13.0,0.0
895,75.0,2,30,10.0,0.0
896,75.0,5,30,11.0,0.0
897,67.0,0,100,5.0,0.0
898,55.0,45,100,5.0,0.0
899,63.0,3,30,12.0,0.0
900,63.0,51,30,13.0,0.0
901,83.0,5,30,0.0,0.0
902,83.0,8,30,2.0,0.0
903,71.0,0,30,2.0,0.0
904,59.0,2,30,3.0,0.0
905,86.0,5,30,0.0,0.0
906,74.0,0,30,2.0,0.0
907,86.0,8,30,2.0,0.0
908,62.0,46,30,3.0,0.0
909,83.0,2,30,10.0,0.0
910,71.0,5,30,11.0,0.0
911,59.0,3,30,12.0,0.0
912,59.0,50,30,13.0,0.0
913,87.0,2,30,10.0,0.0
914,75.0,5,30,11.0,0.0
915,55.0,0,100,5.0,0.0
916,67.0,74,100,5.0,0.0
917,63.0,3,30,12.0,0.0
918,63.0,50,30,13.0,0.0
919,83.0,2,30,10.0,0.0
920,71.0,5,30,11.0,0.0
921,59.0,3,30,12.0,0.0
922,43.0,6,30,13.0,0.0
923,88.0,2,60,10.0,0.0
924,88.0,0,100,0.0,0.0
925,84.0,3,100,0.0,0.0
926,76.0,5,60,11.0,0.0
927,76.0,0,100,1.0,0.0
928,72.0,1,100,1.0,0.0
929,72.0,1,100,2.0,0.0
930,48.0,0,100,5.0,0.0
931,60.0,0,100,5.0,0.0
932,72.0,34,60,12.0,0.0
933,60.0,0,60,12.0,0.0
934,43.0,2,100,13.0,0.0
935,36.0,0,100,13.0,0.0
936,48.0,0,100,3.0,0.0
937,55.0,1,100,3.0,0.0
938,36.0,105,100,14.0,0.0
939,88.0,1,15,10.0,0.0
940,76.0,3,15,11.0,0.0
941,60.0,2,15,12.0,0.0
942,72.0,0,15,12.0,0.0
943,86.0,1,100,10.0,0.0
944,81.0,1,100,0.0,0.0
945,86.0,0,100,0.0,0.0
946,74.0,2,100,11.0,0.0
947,67.0,2,100,1.0,0.0
948,74.0,0,100,1.0,0.0
949,48.0,0,100,5.0,0.0
950,60.0,0,100,5.0,0.0
951,72.0,1,100,2.0,0.0
952,69.0,0,100,2.0,0.0
953,60.0,0,100,12.0,0.0
954,69.0,3,100,12.0,0.0
955,41.0,4,100,13.0,0.0
956,53.0,1,100,3.0,0.0
957,48.0,0,100,3.0,0.0
958,36.0,65,100,14.0,0.0
959,88.0,2,60,10.0,0.0
960,88.0,0,100,0.0,0.0
961,84.0,3,100,0.0,0.0
962,76.0,5,60,11.0,0.0
963,76.0,1,100,1.0,0.0
964,72.0,0,100,1.0,0.0
965,72.0,0,100,2.0,0.0
966,48.0,1,100,5.0,0.0
967,60.0,0,100,5.0,0.0
968,72.0,34,60,12.0,0.0
969,60.0,0,60,12.0,0.0
970,36.0,2,100,13.0,0.0
971,43.0,0,100,13.0,0.0
972,48.0,1,100,3.0,0.0
973,55.0,0,100,3.0,0.0
974,36.0,105,100,14.0,0.0
975,88.0,1,15,10.0,0.0
976,76.0,3,15,11.0,0.0
977,72.0,0,15,12.0,0.0
978,60.0,2,15,12.0,0.0
979,84.0,1,100,10.0,0.0
980,84.0,1,100,0.0,0.0
981,72.0,2,100,11.0,0.0
982,72.0,0,100,1.0,0.0
983,77.0,2,100,1.0,0.0
984,65.0,1,100,2.0,0.0
985,72.0,0,100,2.0,0.0
986,60.0,0,100,5.0,0.0
987,48.0,0,100,5.0,0.0
988,65.0,0,100,12.0,0.0
989,60.0,3,100,12.0,0.0
990,45.0,4,100,13.0,0.0
991,36.0,0,100,13.0,0.0
992,57.0,0,100,3.0,0.0
993,48.0,1,100,3.0,0.0
994,36.0,65,100,14.0,0.0
995,88.0,2,60,10.0,0.0
996,84.0,0,100,0.0,0.0
997,88.0,3,100,0.0,0.0
998,76.0,5,60,11.0,0.0
999,72.0,1,100,1.0,0.0
1000,76.0,0,100,1.0,0.0
1001,60.0,1,100,5.0,0.0
1002,48.0,0,100,5.0,0.0
1003,72.0,0,100,2.0,0.0
1004,60.0,0,60,12.0,0.0
1005,72.0,34,60,12.0,0.0
1006,43.0,0,100,13.0,0.0
1007,36.0,2,100,13.0,0.0
1008,48.0,1,100,3.0,0.0
1009,55.0,0,100,3.0,0.0
1010,36.0,105,100,14.0,0.0
1011,88.0,1,15,10.0,0.0
1012,76.0,3,15,11.0,0.0
1013,60.0,0,15,12.0,0.0
1014,72.0,2,15,12.0,0.0
1015,86.0,1,100,10.0,0.0
1016,81.0,1,100,0.0,0.0
1017,86.0,0,100,0.0,0.0
1018,74.0,2,100,11.0,0.0
1019,67.0,2,100,1.0,0.0
1020,74.0,0,100,1.0,0.0
1021,69.0,1,100,2.0,0.0
1022,72.0,0,100,2.0,0.0
1023,48.0,0,100,5.0,0.0
1024,60.0,0,100,5.0,0.0
1025,60.0,0,100,12.0,0.0
1026,69.0,3,100,12.0,0.0
1027,41.0,4,100,13.0,0.0
1028,53.0,0,100,3.0,0.0
1029,48.0,1,100,3.0,0.0
1030,36.0,65,100,14.0,0.0
1031,88.0,2,60,10.0,0.0
1032,88.0,3,100,0.0,0.0
1033,84.0,0,100,0.0,0.0
1034,76.0,5,60,11.0,0.0
1035,76.0,0,100,1.0,0.0
1036,72.0,1,100,1.0,0.0
1037,72.0,0,100,2.0,0.0
1038,48.0,0,100,5.0,0.0
1039,60.0,1,100,5.0,0.0
1040,60.0,0,60,12.0,0.0
1041,72.0,34,60,12.0,0.0
1042,43.0,0,100,13.0,0.0
1043,36.0,2,100,13.0,0.0
1044,48.0,0,100,3.0,0.0
1045,55.0,1,100,3.0,0.0
1046,36.0,105,100,14.0,0.0
1047,88.0,1,15,10.0,0.0
1048,76.0,3,15,11.0,0.0
1049,60.0,2,15,12.0,0.0
1050,72.0,0,15,12.0,0.0
1051,84.0,1,100,10.0,0.0
1052,84.0,1,100,0.0,0.0
1053,72.0,2,100,11.0,0.0
1054,72.0,2,100,1.0,0.0
1055,77.0,0,100,1.0,0.0
1056,65.0,1,100,2.0,0.0
1057,48.0,0,100,5.0,0.0
1058,60.0,0,100,5.0,0.0
1059,72.0,0,100,2.0,0.0
1060,60.0,3,100,12.0,0.0
1061,65.0,0,100,12.0,0.0
1062,36.0,0,100,13.0,0.0
1063,45.0,4,100,13.0,0.0
1064,48.0,1,100,3.0,0.0
1065,57.0,0,100,3.0,0.0
1066,36.0,35,100,14.0,0.0
1067,79.0,1,30,10.0,0.0
1068,79.0,1,30,0.0,0.0
1069,76.0,0,30,0.0,0.0
1070,67.0,2,30,11.0,0.0
1071,64.0,2,30,1.0,0.0
1072,67.0,0,30,1.0,0.0
1073,67.0,1,30,2.0,0.0
1074,64.0,0,30,2.0,0.0
1075,64.0,3,30,12.0,0.0
1076,46.0,0,30,13.0,0.0
1077,36.0,4,30,13.0,0.0
1078,58.0,46,30,3.0,0.0
1079,48.0,21,100,3.0,0.0
1080,36.0,15,120,14.0,0.0
1081,81.0,1,30,10.0,0.0
1082,77.0,1,30,0.0,0.0
1083,81.0,0,30,0.0,0.0
1084,69.0,2,30,11.0,0.0
1085,65.0,0,30,1.0,0.0
1086,69.0,2,30,1.0,0.0
1087,65.0,0,30,2.0,0.0
1088,69.0,1,30,2.0,0.0
1089,65.0,3,30,12.0,0.0
1090,45.0,4,30,13.0,0.0
1091,57.0,10,30,3.0,0.0
1092,82.0,1,30,10.0,0.0
1093,82.0,0,30,0.0,0.0
1094,79.0,1,30,0.0,0.0
1095,70.0,2,30,11.0,0.0
1096,70.0,0,30,1.0,0.0
1097,67.0,2,30,1.0,0.0
1098,67.0,0,30,2.0,0.0
1099,70.0,1,30,2.0,0.0
1100,67.0,3,30,12.0,0.0
1101,43.0,4,30,13.0,0.0
1102,55.0,46,30,3.0,0.0
1103,48.0,21,100,3.0,0.0
1104,36.0,15,120,14.0,0.0
1105,83.0,1,30,10.0,0.0
1106,80.0,0,30,0.0,0.0
1107,83.0,1,30,0.0,0.0
1108,71.0,2,30,11.0,0.0
1109,71.0,0,30,1.0,0.0
1110,68.0,2,30,1.0,0.0
1111,71.0,1,30,2.0,0.0
1112,68.0,0,30,2.0,0.0
1113,68.0,3,30,12.0,0.0
1114,41.0,4,30,13.0,0.0
1115,53.0,10,30,3.0,0.0
1116,84.0,1,30,10.0,0.0
1117,84.0,0,30,0.0,0.0
1118,79.0,1,30,0.0,0.0
1119,72.0,2,30,11.0,0.0
1120,67.0,2,30,1.0,0.0
1121,72.0,0,30,1.0,0.0
1122,67.0,0,30,2.0,0.0
1123,72.0,1,30,2.0,0.0
1124,67.0,3,30,12.0,0.0
1125,40.0,4,30,13.0,0.0
1126,52.0,46,30,3.0,0.0
1127,48.0,21,100,3.0,0.0
1128,36.0,15,120,14.0,0.0
1129,89.0,1,30,10.0,0.0
1130,83.0,1,30,0.0,0.0
1131,89.0,0,30,0.0,0.0
1132,77.0,2,30,11.0,0.0
1133,71.0,2,30,1.0,0.0
1134,77.0,0,30,1.0,0.0
1135,71.0,0,30,2.0,0.0
1136,77.0,1,30,2.0,0.0
1137,71.0,3,30,12.0,0.0
1138,38.0,4,30,13.0,0.0
1139,50.0,10,30,3.0,0.0
1140,88.0,1,30,10.0,0.0
1141,84.0,0,30,0.0,0.0
1142,88.0,1,30,0.0,0.0
1143,76.0,2,30,11.0,0.0
1144,76.0,2,30,1.0,0.0
1145,72.0,0,30,1.0,0.0
1146,72.0,1,30,2.0,0.0
1147,76.0,0,30,2.0,0.0
1148,72.0,3,30,12.0,0.0
1149,36.0,50,30,13.0,0.0
1150,48.0,21,100,3.0,0.0
1151,36.0,45,120,14.0,0.0
1152,86.0,1,30,10.0,0.0
1153,83.0,1,30,0.0,0.0
1154,86.0,0,30,0.0,0.0
1155,74.0,2,30,11.0,0.0
1156,71.0,0,30,1.0,0.0
1157,74.0,2,30,1.0,0.0
1158,74.0,1,30,2.0,0.0
1159,71.0,0,30,2.0,0.0
1160,71.0,3,30,12.0,0.0
1161,43.0,4,30,13.0,0.0
1162,55.0,10,30,3.0,0.0
1163,88.0,2,60,10.0,0.0
1164,88.0,0,100,0.0,0.0
1165,84.0,3,100,0.0,0.0
1166,76.0,5,60,11.0,0.0
1167,76.0,0,100,1.0,0.0
1168,72.0,1,100,1.0,0.0
1169,48.0,0,100,5.0,0.0
1170,60.0,0,100,5.0,0.0
1171,72.0,1,100,2.0,0.0
1172,60.0,0,60,12.0,0.0
1173,72.0,34,60,12.0,0.0
1174,36.0,5,120,13.0,0.0
1175,43.0,0,120,13.0,0.0
1176,48.0,0,100,3.0,0.0
1177,55.0,16,100,3.0,0.0
1178,36.0,85,120,14.0,0.0
1179,88.0,1,15,10.0,0.0
1180,76.0,5,15,11.0,0.0
1181,60.0,2,15,12.0,0.0
1182,72.0,0,15,12.0,0.0
1183,86.0,1,100,10.0,0.0
1184,86.0,0,100,0.0,0.0
1185,81.0,1,100,0.0,0.0
1186,74.0,2,100,11.0,0.0
1187,67.0,0,100,1.0,0.0
1188,74.0,2,100,1.0,0.0
1189,48.0,1,100,5.0,0.0
1190,72.0,0,100,2.0,0.0
1191,69.0,0,100,2.0,0.0
1192,60.0,0,100,5.0,0.0
1193,69.0,0,100,12.0,0.0
1194,60.0,7,100,12.0,0.0
1195,41.0,5,120,13.0,0.0
1196,53.0,0,100,3.0,0.0
1197,48.0,16,100,3.0,0.0
1198,36.0,45,120,14.0,0.0
1199,88.0,2,60,10.0,0.0
1200,88.0,0,100,0.0,0.0
1201,84.0,3,100,0.0,0.0
1202,76.0,5,60,11.0,0.0
1203,76.0,0,100,1.0,0.0
1204,72.0,1,100,1.0,0.0
1205,72.0,0,100,2.0,0.0
1206,48.0,0,100,5.0,0.0
1207,60.0,1,100,5.0,0.0
1208,60.0,34,60,12.0,0.0
1209,72.0,0,60,12.0,0.0
1210,43.0,0,120,13.0,0.0
1211,48.0,0,100,3.0,0.0
1212,55.0,16,100,3.0,0.0
1213,88.0,1,15,10.0,0.0
1214,76.0,5,15,11.0,0.0
1215,72.0,2,15,12.0,0.0
1216,60.0,0,15,12.0,0.0
1217,84.0,1,100,10.0,0.0
1218,84.0,1,100,0.0,0.0
1219,72.0,2,100,11.0,0.0
1220,72.0,2,100,1.0,0.0
1221,77.0,0,100,1.0,0.0
1222,48.0,0,100,5.0,0.0
1223,65.0,0,100,2.0,0.0
1224,72.0,0,100,2.0,0.0
1225,60.0,1,100,5.0,0.0
1226,65.0,7,100,12.0,0.0
1227,60.0,0,100,12.0,0.0
1228,36.0,5,0,13.0,0.0
1229,45.0,0,120,13.0,0.0
1230,57.0,16,100,3.0,0.0
1231,48.0,0,100,3.0,0.0
1232,36.0,85,0,14.0,0.0
1233,88.0,2,60,10.0,0.0
1234,84.0,3,100,0.0,0.0
1235,88.0,0,100,0.0,0.0
1236,76.0,5,60,11.0,0.0
1237,72.0,0,100,1.0,0.0
1238,76.0,1,100,1.0,0.0
1239,48.0,0,100,5.0,0.0
1240,60.0,1,100,5.0,0.0
1241,72.0,0,100,2.0,0.0
1242,72.0,0,60,12.0,0.0
1243,60.0,34,60,12.0,0.0
1244,43.0,0,120,13.0,0.0
1245,36.0,5,120,13.0,0.0
1246,55.0,0,100,3.0,0.0
1247,48.0,16,100,3.0,0.0
1248,36.0,45,0,14.0,0.0
1249,88.0,1,15,10.0,0.0
1250,76.0,5,15,11.0,0.0
1251,72.0,2,15,12.0,0.0
1252,60.0,0,15,12.0,0.0
1253,86.0,1,100,10.0,0.0
1254,86.0,1,100,0.0,0.0
1255,81.0,0,100,0.0,0.0
1256,74.0,2,100,11.0,0.0
1257,74.0,2,100,1.0,0.0
1258,67.0,0,100,1.0,0.0
1259,60.0,0,100,5.0,0.0
1260,48.0,1,100,5.0,0.0
1261,69.0,0,100,2.0,0.0
1262,72.0,0,100,2.0,0.0
1263,60.0,0,100,12.0,0.0
1264,69.0,7,100,12.0,0.0
1265,41.0,5,120,13.0,0.0
1266,48.0,0,100,3.0,0.0
1267,53.0,16,100,3.0,0.0
1268,36.0,45,120,14.0,0.0
1269,88.0,2,60,10.0,0.0
1270,84.0,0,100,0.0,0.0
1271,88.0,3,100,0.0,0.0
1272,76.0,5,60,11.0,0.0
1273,76.0,1,100,1.0,0.0
1274,72.0,0,100,1.0,0.0
1275,60.0,0,100,5.0,0.0
1276,48.0,0,100,5.0,0.0
1277,72.0,1,100,2.0,0.0
1278,60.0,0,60,12.0,0.0
1279,72.0,34,60,12.0,0.0
1280,36.0,0,120,13.0,0.0
1281,43.0,5,120,13.0,0.0
1282,48.0,0,100,3.0,0.0
1283,55.0,16,100,3.0,0.0
1284,36.0,85,120,14.0,0.0
1285,88.0,1,15,10.0,0.0
1286,76.0,5,15,11.0,0.0
1287,72.0,2,15,12.0,0.0
1288,60.0,0,15,12.0,0.0
1289,84.0,1,100,10.0,0.0
1290,84.0,1,100,0.0,0.0
1291,72.0,2,100,11.0,0.0
1292,77.0,2,100,1.0,0.0
1293,72.0,0,100,1.0,0.0
1294,48.0,0,100,5.0,0.0
1295,72.0,1,100,2.0,0.0
1296,65.0,0,100,2.0,0.0
1297,60.0,0,100,5.0,0.0
1298,60.0,0,100,12.0,0.0
1299,65.0,7,100,12.0,0.0
1300,45.0,5,120,13.0,0.0
1301,36.0,0,120,13.0,0.0
1302,57.0,0,100,3.0,0.0
1303,48.0,16,100,3.0,0.0
1304,36.0,15,120,14.0,0.0
1305,81.0,1,30,10.0,0.0
1306,76.0,0,30,0.0,0.0
1307,81.0,1,30,0.0,0.0
1308,69.0,2,30,11.0,0.0
1309,69.0,2,30,1.0,0.0
1310,64.0,0,30,1.0,0.0
1311,64.0,0,30,2.0,0.0
1312,69.0,1,30,2.0,0.0
1313,64.0,3,30,12.0,0.0
1314,60.0,4,30,13.0,0.0
1315,60.0,1,30,3.0,0.0
1316,48.0,45,30,14.0,0.0
1317,83.0,1,30,10.0,0.0
1318,76.0,0,30,0.0,0.0
1319,83.0,1,30,0.0,0.0
1320,71.0,2,30,11.0,0.0
1321,64.0,0,30,1.0,0.0
1322,71.0,2,30,1.0,0.0
1323,71.0,1,30,2.0,0.0
1324,64.0,0,30,2.0,0.0
1325,64.0,3,30,12.0,0.0
1326,59.0,4,30,13.0,0.0
1327,59.0,1,30,3.0,0.0
1328,47.0,45,30,14.0,0.0
1329,84.0,1,30,10.0,0.0
1330,76.0,0,30,0.0,0.0
1331,84.0,1,30,0.0,0.0
1332,72.0,2,30,11.0,0.0
1333,72.0,2,30,1.0,0.0
1334,64.0,0,30,1.0,0.0
1335,72.0,1,30,2.0,0.0
1336,64.0,0,30,2.0,0.0
1337,64.0,3,30,12.0,0.0
1338,57.0,4,30,13.0,0.0
1339,57.0,1,30,3.0,0.0
1340,45.0,45,30,14.0,0.0
1341,86.0,1,30,10.0,0.0
1342,78.0,1,30,0.0,0.0
1343,86.0,0,30,0.0,0.0
1344,74.0,2,30,11.0,0.0
1345,74.0,2,30,1.0,0.0
1346,66.0,0,30,1.0,0.0
1347,66.0,1,30,2.0,0.0
1348,74.0,0,30,2.0,0.0
1349,66.0,3,30,12.0,0.0
1350,48.0,4,30,13.0,0.0
1351,48.0,1,30,3.0,0.0
1352,36.0,45,30,14.0,0.0
1353,88.0,1,30,10.0,0.0
1354,88.0,1,30,0.0,0.0
1355,79.0,0,30,0.0,0.0
1356,76.0,2,30,11.0,0.0
1357,67.0,0,30,1.0,0.0
1358,76.0,2,30,1.0,0.0
1359,67.0,1,30,2.0,0.0
1360,76.0,0,30,2.0,0.0
1361,67.0,3,30,12.0,0.0
1362,47.0,4,30,13.0,0.0
1363,47.0,1,30,3.0,0.0
1364,35.0,45,30,14.0,0.0
1365,90.0,1,30,10.0,0.0
1366,84.0,1,30,0.0,0.0
1367,90.0,0,30,0.0,0.0
1368,78.0,2,30,11.0,0.0
1369,78.0,0,30,1.0,0.0
1370,72.0,2,30,1.0,0.0
1371,78.0,1,30,2.0,0.0
1372,72.0,0,30,2.0,0.0
1373,72.0,3,30,12.0,0.0
1374,45.0,4,30,13.0,0.0
1375,45.0,1,30,3.0,0.0
1376,33.0,45,30,14.0,0.0
1377,91.0,1,30,10.0,0.0
1378,83.0,1,30,0.0,0.0
1379,91.0,0,30,0.0,0.0
1380,79.0,2,30,11.0,0.0
1381,71.0,0,30,1.0,0.0
1382,79.0,2,30,1.0,0.0
1383,79.0,0,30,2.0,0.0
1384,71.0,1,30,2.0,0.0
1385,71.0,3,30,12.0,0.0
1386,43.0,4,30,13.0,0.0
1387,43.0,1,30,3.0,0.0
1388,31.0,45,30,14.0,0.0
1389,79.0,1,30,10.0,0.0
1390,79.0,1,30,0.0,0.0
1391,67.0,2,30,11.0,0.0
1392,67.0,2,30,1.0,0.0
1393,67.0,1,30,2.0,0.0
1394,55.0,3,30,12.0,0.0
1395,55.0,4,30,13.0,0.0
1396,55.0,1,30,3.0,0.0
1397,43.0,45,30,14.0,0.0
1398,70.0,2,30,10.0,0.0
1399,61.0,5,30,11.0,0.0
1400,52.0,3,30,12.0,0.0
1401,43.0,50,30,13.0,0.0
1402,69.0,2,30,10.0,0.0
1403,61.0,5,30,11.0,0.0
1404,52.0,3,30,12.0,0.0
1405,45.0,50,30,13.0,0.0
1406,67.0,2,30,10.0,0.0
1407,61.0,5,30,11.0,0.0
1408,52.0,3,30,12.0,0.0
1409,46.0,50,30,13.0,0.0
1410,65.0,2,30,10.0,0.0
1411,61.0,5,30,11.0,0.0
1412,52.0,3,30,12.0,0.0
1413,45.0,50,30,13.0,0.0
1414,64.0,2,30,10.0,0.0
1415,58.0,5,30,11.0,0.0
1416,49.0,3,30,12.0,0.0
1417,43.0,50,30,13.0,0.0
1418,62.0,2,30,10.0,0.0
1419,58.0,5,30,11.0,0.0
1420,52.0,3,30,12.0,0.0
1421,45.0,50,30,13.0,0.0
1422,61.0,2,30,10.0,0.0
1423,55.0,5,30,11.0,0.0
1424,52.0,3,30,12.0,0.0
1425,46.0,50,30,13.0,0.0
1426,64.0,2,30,10.0,0.0
1427,55.0,5,30,11.0,0.0
1428,49.0,3,30,12.0,0.0
1429,45.0,50,30,13.0,0.0
1430,70.0,2,30,10.0,0.0
1431,61.0,5,30,11.0,0.0
1432,52.0,3,30,12.0,0.0
1433,43.0,50,30,13.0,0.0
1434,69.0,2,30,10.0,0.0
1435,61.0,5,30,11.0,0.0
1436,52.0,3,30,12.0,0.0
1437,45.0,50,30,13.0,0.0
1438,67.0,2,30,10.0,0.0
1439,61.0,5,30,11.0,0.0
1440,52.0,3,30,12.0,0.0
1441,46.0,50,30,13.0,0.0
1442,65.0,2,30,10.0,0.0
1443,61.0,5,30,11.0,0.0
1444,52.0,3,30,12.0,0.0
1445,45.0,50,30,13.0,0.0
1446,64.0,2,30,10.0,0.0
1447,58.0,5,30,11.0,0.0
1448,49.0,3,30,12.0,0.0
1449,43.0,50,30,13.0,0.0
1450,62.0,2,30,10.0,0.0
1451,58.0,5,30,11.0,0.0
1452,52.0,3,30,12.0,0.0
1453,45.0,50,30,13.0,0.0
1454,61.0,2,30,10.0,0.0
1455,55.0,5,30,11.0,0.0
1456,52.0,3,30,12.0,0.0
1457,46.0,50,30,13.0,0.0
1458,64.0,2,30,10.0,0.0
1459,58.0,5,30,11.0,0.0
1460,49.0,3,30,12.0,0.0
1461,43.0,50,30,13.0,0.0
1462,72.0,2,30,10.0,0.0
1463,63.0,5,30,11.0,0.0
1464,54.0,3,30,12.0,0.0
1465,45.0,50,30,13.0,0.0
1466,71.0,2,30,10.0,0.0
1467,63.0,5,30,11.0,0.0
1468,54.0,3,30,12.0,0.0
1469,47.0,50,30,13.0,0.0
1470,69.0,2,30,10.0,0.0
1471,63.0,5,30,11.0,0.0
1472,54.0,3,30,12.0,0.0
1473,48.0,50,30,13.0,0.0
1474,67.0,2,30,10.0,0.0
1475,63.0,5,30,11.0,0.0
1476,54.0,3,30,12.0,0.0
1477,47.0,50,30,13.0,0.0
1478,66.0,2,30,10.0,0.0
1479,60.0,5,30,11.0,0.0
1480,51.0,3,30,12.0,0.0
1481,45.0,50,30,13.0,0.0
1482,64.0,2,30,10.0,0.0
1483,60.0,5,30,11.0,0.0
1484,54.0,3,30,12.0,0.0
1485,47.0,50,30,13.0,0.0
1486,63.0,2,30,10.0,0.0
1487,57.0,5,30,11.0,0.0
1488,54.0,3,30,12.0,0.0
1489,48.0,50,30,13.0,0.0
1490,66.0,2,30,10.0,0.0
1491,57.0,5,30,11.0,0.0
1492,51.0,3,30,12.0,0.0
1493,47.0,50,30,13.0,0.0
1494,72.0,2,30,10.0,0.0
1495,63.0,5,30,11.0,0.0
1496,54.0,3,30,12.0,0.0
1497,45.0,50,30,13.0,0.0
1498,71.0,2,30,10.0,0.0
1499,63.0,5,30,11.0,0.0
1500,54.0,3,30,12.0,0.0
1501,47.0,50,30,13.0,0.0
1502,69.0,2,30,10.0,0.0
1503,63.0,5,30,11.0,0.0
1504,54.0,3,30,12.0,0.0
1505,48.0,50,30,13.0,0.0
1506,67.0,2,30,10.0,0.0
1507,63.0,5,30,11.0,0.0
1508,54.0,3,30,12.0,0.0
1509,47.0,50,30,13.0,0.0
1510,66.0,2,30,10.0,0.0
1511,60.0,5,30,11.0,0.0
1512,51.0,3,30,12.0,0.0
1513,45.0,50,30,13.0,0.0
1514,64.0,2,30,10.0,0.0
1515,60.0,5,30,11.0,0.0
1516,54.0,3,30,12.0,0.0
1517,47.0,50,30,13.0,0.0
1518,63.0,2,30,10.0,0.0
1519,57.0,5,30,11.0,0.0
1520,54.0,3,30,12.0,0.0
1521,48.0,50,30,13.0,0.0
1522,66.0,2,30,10.0,0.0
1523,60.0,5,30,11.0,0.0
1524,51.0,3,30,12.0,0.0
1525,45.0,52,30,13.0,0.0
1526,76.0,32,60,10.0,0.0
1527,72.0,28,30,11.0,0.0
1528,60.0,1,100,5.0,0.0
1529,48.0,3,100,12.0,0.0
1530,43.0,0,100,13.0,0.0
1531,36.0,42,100,13.0,0.0
1532,71.0,13,30,11.0,0.0
1533,76.0,1,15,10.0,0.0
1534,74.0,6,100,10.0,0.0
1535,69.0,60,30,11.0,0.0
1536,60.0,1,100,5.0,0.0
1537,48.0,3,100,12.0,0.0
1538,41.0,25,100,13.0,0.0
1539,36.0,17,120,14.0,0.0
1540,68.0,8,30,11.0,0.0
1541,76.0,32,60,10.0,0.0
1542,67.0,28,30,11.0,0.0
1543,60.0,1,100,5.0,0.0
1544,48.0,3,100,12.0,0.0
1545,36.0,42,100,13.0,0.0
1546,43.0,0,100,13.0,0.0
1547,64.0,13,30,11.0,0.0
1548,76.0,1,15,10.0,0.0
1549,72.0,6,100,10.0,0.0
1550,65.0,60,30,11.0,0.0
1551,60.0,1,100,5.0,0.0
1552,48.0,3,100,12.0,0.0
1553,45.0,25,100,13.0,0.0
1554,36.0,17,120,14.0,0.0
1555,66.0,8,30,11.0,0.0
1556,64.0,37,60,10.0,0.0
1557,67.0,5,30,11.0,0.0
1558,48.0,0,100,5.0,0.0
1559,60.0,4,100,5.0,0.0
1560,60.0,23,30,12.0,0.0
1561,43.0,47,100,13.0,0.0
1562,36.0,0,100,13.0,0.0
1563,59.0,8,30,12.0,0.0
1564,64.0,1,15,10.0,0.0
1565,62.0,6,100,10.0,0.0
1566,48.0,4,100,5.0,0.0
1567,60.0,0,100,5.0,0.0
1568,57.0,60,30,12.0,0.0
1569,41.0,25,100,13.0,0.0
1570,36.0,22,120,14.0,0.0
1571,56.0,3,30,12.0,0.0
1572,64.0,37,60,10.0,0.0
1573,60.0,0,100,5.0,0.0
1574,48.0,4,100,5.0,0.0
1575,55.0,23,30,12.0,0.0
1576,36.0,0,100,13.0,0.0
1577,43.0,47,100,13.0,0.0
1578,52.0,8,30,12.0,0.0
1579,64.0,1,15,10.0,0.0
1580,60.0,6,100,10.0,0.0
1581,48.0,0,100,5.0,0.0
1582,60.0,4,100,5.0,0.0
1583,53.0,60,30,12.0,0.0
1584,45.0,25,100,13.0,0.0
1585,36.0,22,120,14.0,0.0
1586,54.0,3,30,12.0,0.0
1587,64.0,37,60,10.0,0.0
1588,55.0,23,30,12.0,0.0
1589,36.0,0,100,13.0,0.0
1590,43.0,47,100,13.0,0.0
1591,52.0,8,30,12.0,0.0
1592,64.0,5,15,10.0,0.0
1593,60.0,10,100,10.0,0.0
1594,60.0,0,60,5.0,0.0
1595,48.0,31,60,5.0,0.0
1596,53.0,29,30,12.0,0.0
1597,45.0,25,100,13.0,0.0
1598,36.0,22,120,14.0,0.0
1599,54.0,3,30,12.0,0.0
1600,55.0,60,30,12.0,0.0
1601,46.0,47,100,13.0,0.0
1602,36.0,0,100,13.0,0.0
1603,52.0,13,30,12.0,0.0
1604,60.0,6,60,10.0,0.0
1605,60.0,0,60,5.0,0.0
1606,48.0,31,60,5.0,0.0
1607,53.0,23,30,12.0,0.0
1608,45.0,25,100,13.0,0.0
1609,36.0,52,120,14.0,0.0
1610,54.0,13,30,12.0,0.0
1611,55.0,3,60,12.0,0.0
1612,46.0,110,60,13.0,0.0
1613,60.0,7,60,10.0,0.0
1614,54.0,3,60,12.0,0.0
1615,45.0,65,60,13.0,0.0
1616,36.0,52,120,14.0,0.0
1617,55.0,3,60,12.0,0.0
1618,46.0,117,60,13.0,0.0
1619,52.0,83,60,12.0,0.0
1620,71.0,2,30,10.0,0.0
1621,63.0,5,30,11.0,0.0
1622,54.0,3,30,12.0,0.0
1623,47.0,60,30,13.0,0.0
1624,47.0,60,30,13.0,0.0
1625,47.0,50,30,13.0,0.0
1626,69.0,2,30,10.0,0.0
1627,64.0,5,30,11.0,0.0
1628,52.0,3,30,12.0,0.0
1629,48.0,50,30,13.0,0.0
1630,71.0,2,30,10.0,0.0
1631,63.0,5,30,11.0,0.0
1632,54.0,3,30,12.0,0.0
1633,47.0,60,30,13.0,0.0
1634,47.0,60,30,13.0,0.0
1635,47.0,50,30,13.0,0.0
1636,64.0,2,30,10.0,0.0
1637,59.0,5,30,11.0,0.0
1638,55.0,3,30,12.0,0.0
1639,52.0,50,30,13.0,0.0
1640,71.0,2,30,10.0,0.0
1641,63.0,5,30,11.0,0.0
1642,54.0,3,30,12.0,0.0
1643,47.0,60,30,13.0,0.0
1644,47.0,60,30,13.0,0.0
1645,47.0,50,30,13.0,0.0
1646,68.0,2,30,10.0,0.0
1647,64.0,5,30,11.0,0.0
1648,59.0,3,30,12.0,0.0
1649,50.0,50,30,13.0,0.0
1650,69.0,2,30,10.0,0.0
1651,64.0,5,30,11.0,0.0
1652,57.0,3,30,12.0,0.0
1653,48.0,50,30,13.0,0.0
1654,72.0,2,30,10.0,0.0
1655,64.0,5,30,11.0,0.0
1656,57.0,3,30,12.0,0.0
1657,45.0,50,30,13.0,0.0
1658,71.0,2,30,10.0,0.0
1659,63.0,5,30,11.0,0.0
1660,54.0,3,30,12.0,0.0
1661,47.0,50,30,13.0,0.0
1662,63.0,2,30,10.0,0.0
1663,59.0,5,30,11.0,0.0
1664,54.0,3,30,12.0,0.0
1665,47.0,50,30,13.0,0.0
1666,64.0,1,30,10.0,0.0
1667,83.0,1,30,0.0,0.0
1668,79.0,0,30,0.0,0.0
1669,59.0,4,30,11.0,0.0
1670,67.0,0,30,2.0,0.0
1671,71.0,1,30,2.0,0.0
1672,55.0,3,30,12.0,0.0
1673,40.0,4,30,13.0,0.0
1674,64.0,47,30,3.0,0.0
1675,83.0,5,30,0.0,0.0
1676,71.0,55,30,2.0,0.0
1677,83.0,5,30,0.0,0.0
1678,71.0,55,30,2.0,0.0
1679,84.0,5,30,0.0,0.0
1680,81.0,0,30,0.0,0.0
1681,72.0,8,30,2.0,0.0
1682,66.0,0,30,2.0,0.0
1683,63.0,47,30,3.0,0.0
1684,79.0,5,30,0.0,0.0
1685,83.0,0,30,0.0,0.0
1686,67.0,8,30,2.0,0.0
1687,71.0,0,30,2.0,0.0
1688,64.0,47,30,3.0,0.0
1689,83.0,5,30,0.0,0.0
1690,71.0,55,30,2.0,0.0
1691,83.0,5,30,0.0,0.0
1692,71.0,55,30,2.0,0.0
1693,84.0,5,30,0.0,0.0
1694,88.0,0,30,0.0,0.0
1695,69.0,8,30,2.0,0.0
1696,76.0,0,30,2.0,0.0
1697,57.0,47,30,3.0,0.0
1698,79.0,0,30,0.0,0.0
1699,83.0,5,30,0.0,0.0
1700,67.0,8,30,2.0,0.0
1701,71.0,0,30,2.0,0.0
1702,64.0,47,30,3.0,0.0
1703,83.0,5,30,0.0,0.0
1704,71.0,55,30,2.0,0.0
1705,83.0,5,30,0.0,0.0
1706,71.0,55,30,2.0,0.0
1707,83.0,5,30,0.0,0.0
1708,86.0,0,30,0.0,0.0
1709,74.0,0,30,2.0,0.0
1710,64.0,8,30,2.0,0.0
1711,56.0,47,30,3.0,0.0
1712,81.0,5,30,0.0,0.0
1713,84.0,0,30,0.0,0.0
1714,72.0,8,30,2.0,0.0
1715,64.0,0,30,2.0,0.0
1716,57.0,47,30,3.0,0.0
1717,81.0,5,30,0.0,0.0
1718,76.0,8,30,2.0,0.0
1719,64.0,0,30,2.0,0.0
1720,60.0,47,30,3.0,0.0
1721,83.0,5,30,0.0,0.0
1722,75.0,0,30,2.0,0.0
1723,66.0,8,30,2.0,0.0
1724,59.0,47,30,3.0,0.0
1725,80.0,5,30,0.0,0.0
1726,83.0,0,30,0.0,0.0
1727,68.0,8,30,2.0,0.0
1728,76.0,0,30,2.0,0.0
1729,64.0,46,30,3.0,0.0
1730,84.0,1,30,10.0,0.0
1731,76.0,0,30,0.0,0.0
1732,84.0,5,30,0.0,0.0
1733,69.0,8,30,2.0,0.0
1734,72.0,0,30,2.0,0.0
1735,57.0,46,30,3.0,0.0
1736,83.0,60,30,10.0,0.0
1737,81.0,7,30,10.0,0.0
1738,72.0,53,30,12.0,0.0
1739,76.0,7,30,10.0,0.0
1740,71.0,55,30,12.0,0.0
1741,72.0,5,30,11.0,0.0
1742,69.0,55,30,12.0,0.0
1743,71.0,5,30,11.0,0.0
1744,64.0,55,30,12.0,0.0
1745,69.0,5,30,11.0,0.0
1746,60.0,55,30,12.0,0.0
1747,64.0,5,30,11.0,0.0
1748,59.0,55,30,12.0,0.0
1749,66.0,5,30,11.0,0.0
1750,57.0,3,30,12.0,0.0
1751,48.0,52,30,13.0,0.0
1752,62.0,60,30,11.0,0.0
1753,67.0,5,30,11.0,0.0
1754,55.0,3,30,12.0,0.0
1755,47.0,50,30,13.0,0.0
1756,74.0,2,30,10.0,0.0
1757,71.0,58,30,11.0,0.0
1758,78.0,2,30,10.0,0.0
1759,72.0,5,30,11.0,0.0
1760,62.0,3,30,12.0,0.0
1761,45.0,50,30,13.0,0.0
1762,74.0,60,30,10.0,0.0
1763,79.0,2,30,10.0,0.0
1764,71.0,5,30,11.0,0.0
1765,55.0,3,30,12.0,0.0
1766,43.0,50,30,13.0,0.0
1767,67.0,1,30,10.0,0.0
1768,84.0,5,30,0.0,0.0
1769,76.0,0,30,2.0,0.0
1770,79.0,8,30,2.0,0.0
1771,43.0,47,30,3.0,0.0
1772,83.0,5,30,0.0,0.0
1773,74.0,8,30,2.0,0.0
1774,78.0,0,30,2.0,0.0
1775,55.0,47,30,3.0,0.0
1776,81.0,5,30,0.0,0.0
1777,76.0,8,30,2.0,0.0
1778,72.0,0,30,2.0,0.0
1779,55.0,47,30,3.0,0.0
1780,79.0,5,30,0.0,0.0
1781,71.0,8,30,2.0,0.0
1782,74.0,0,30,2.0,0.0
1783,55.0,47,30,3.0,0.0
1784,76.0,5,30,0.0,0.0
1785,74.0,0,30,2.0,0.0
1786,71.0,8,30,2.0,0.0
1787,55.0,47,30,3.0,0.0
1788,78.0,5,30,0.0,0.0
1789,69.0,0,30,2.0,0.0
1790,73.0,8,30,2.0,0.0
1791,57.0,47,30,3.0,0.0
1792,76.0,5,30,0.0,0.0
1793,69.0,8,30,2.0,0.0
1794,73.0,0,30,2.0,0.0
1795,57.0,47,30,3.0,0.0
1796,78.0,5,30,0.0,0.0
1797,69.0,0,30,2.0,0.0
1798,66.0,8,30,2.0,0.0
1799,50.0,46,30,3.0,0.0
1800,62.0,1,30,10.0,0.0
1801,74.0,1,30,0.0,0.0
1802,62.0,4,30,11.0,0.0
1803,69.0,1,30,2.0,0.0
1804,66.0,0,30,2.0,0.0
1805,54.0,3,30,12.0,0.0
1806,50.0,4,30,13.0,0.0
1807,62.0,46,30,3.0,0.0
1808,66.0,2,30,10.0,0.0
1809,61.0,5,30,11.0,0.0
1810,57.0,3,30,12.0,0.0
1811,45.0,50,30,13.0,0.0
1812,64.0,2,30,10.0,0.0
1813,61.0,5,30,11.0,0.0
1814,57.0,3,30,12.0,0.0
1815,45.0,50,30,13.0,0.0
1816,66.0,2,30,10.0,0.0
1817,57.0,5,30,11.0,0.0
1818,54.0,3,30,12.0,0.0
1819,38.0,50,30,13.0,0.0
1820,62.0,1,30,10.0,0.0
1821,74.0,1,30,0.0,0.0
1822,57.0,4,30,11.0,0.0
1823,74.0,1,30,2.0,0.0
1824,66.0,0,30,2.0,0.0
1825,54.0,3,30,12.0,0.0
1826,50.0,51,30,13.0,0.0
1827,78.0,5,30,0.0,0.0
1828,73.0,8,30,2.0,0.0
1829,69.0,0,30,2.0,0.0
1830,57.0,47,30,3.0,0.0
1831,76.0,5,30,0.0,0.0
1832,73.0,0,30,2.0,0.0
1833,69.0,8,30,2.0,0.0
1834,57.0,47,30,3.0,0.0
1835,79.0,5,30,0.0,0.0
1836,71.0,8,30,2.0,0.0
1837,67.0,0,30,2.0,0.0
1838,52.0,46,30,3.0,0.0
1839,64.0,1,30,10.0,0.0
1840,76.0,1,30,0.0,0.0
1841,59.0,4,30,11.0,0.0
1842,67.0,0,30,2.0,0.0
1843,71.0,1,30,2.0,0.0
1844,55.0,3,30,12.0,0.0
1845,52.0,4,30,13.0,0.0
1846,64.0,46,30,3.0,0.0
1847,66.0,2,30,10.0,0.0
1848,61.0,5,30,11.0,0.0
1849,57.0,3,30,12.0,0.0
1850,45.0,50,30,13.0,0.0
1851,64.0,2,30,10.0,0.0
1852,61.0,5,30,11.0,0.0
1853,57.0,3,30,12.0,0.0
1854,45.0,50,30,13.0,0.0
1855,66.0,2,30,10.0,0.0
1856,57.0,5,30,11.0,0.0
1857,54.0,3,30,12.0,0.0
1858,38.0,50,30,13.0,0.0
1859,62.0,1,30,10.0,0.0
1860,74.0,1,30,0.0,0.0
1861,57.0,4,30,11.0,0.0
1862,66.0,0,30,2.0,0.0
1863,74.0,1,30,2.0,0.0
1864,54.0,3,30,12.0,0.0
1865,50.0,51,30,13.0,0.0
1866,79.0,5,30,0.0,0.0
1867,71.0,8,30,2.0,0.0
1868,74.0,0,30,2.0,0.0
1869,59.0,47,30,3.0,0.0
1870,76.0,5,30,0.0,0.0
1871,74.0,8,30,2.0,0.0
1872,71.0,0,30,2.0,0.0
1873,59.0,47,30,3.0,0.0
1874,81.0,5,30,0.0,0.0
1875,69.0,0,30,2.0,0.0
1876,73.0,8,30,2.0,0.0
1877,54.0,46,30,3.0,0.0
1878,66.0,1,30,10.0,0.0
1879,78.0,1,30,0.0,0.0
1880,66.0,4,30,11.0,0.0
1881,73.0,1,30,2.0,0.0
1882,69.0,0,30,2.0,0.0
1883,54.0,3,30,12.0,0.0
1884,42.0,4,30,13.0,0.0
1885,66.0,46,30,3.0,0.0
1886,69.0,2,30,10.0,0.0
1887,69.0,5,30,11.0,0.0
1888,57.0,3,30,12.0,0.0
1889,45.0,50,30,13.0,0.0
1890,66.0,2,30,10.0,0.0
1891,66.0,5,30,11.0,0.0
1892,54.0,3,30,12.0,0.0
1893,42.0,50,30,13.0,0.0
1894,71.0,2,30,10.0,0.0
1895,71.0,5,30,11.0,0.0
1896,59.0,3,30,12.0,0.0
1897,47.0,51,30,13.0,0.0
1898,80.0,5,30,0.0,0.0
1899,68.0,8,30,2.0,0.0
1900,56.0,47,30,3.0,0.0
1901,83.0,5,30,0.0,0.0
1902,71.0,8,30,2.0,0.0
1903,59.0,47,30,3.0,0.0
1904,80.0,5,30,0.0,0.0
1905,68.0,8,30,2.0,0.0
1906,56.0,47,30,3.0,0.0
1907,84.0,5,30,0.0,0.0
1908,72.0,8,30,2.0,0.0
1909,60.0,46,30,3.0,0.0
1910,69.0,2,30,10.0,0.0
1911,69.0,5,30,11.0,0.0
1912,57.0,3,30,12.0,0.0
1913,45.0,50,30,13.0,0.0
1914,72.0,2,30,10.0,0.0
1915,72.0,5,30,11.0,0.0
1916,60.0,3,30,12.0,0.0
1917,48.0,50,30,13.0,0.0
1918,69.0,2,30,10.0,0.0
1919,69.0,5,30,11.0,0.0
1920,57.0,3,30,12.0,0.0
1921,45.0,50,30,13.0,0.0
1922,73.0,2,30,10.0,0.0
1923,73.0,5,30,11.0,0.0
1924,61.0,3,30,12.0,0.0
1925,49.0,51,30,13.0,0.0
1926,82.0,5,30,0.0,0.0
1927,70.0,8,30,2.0,0.0
1928,58.0,47,30,3.0,0.0
1929,85.0,5,30,0.0,0.0
1930,73.0,8,30,2.0,0.0
1931,61.0,47,30,3.0,0.0
1932,82.0,5,30,0.0,0.0
1933,70.0,8,30,2.0,0.0
1934,58.0,47,30,3.0,0.0
1935,86.0,5,30,0.0,0.0
1936,74.0,8,30,2.0,0.0
1937,62.0,46,30,3.0,0.0
1938,83.0,60,30,10.0,0.0
1939,86.0,60,30,10.0,0.0
1940,71.0,2,153,1.0,0.0
1941,62.0,0,153,1.0,0.0
1942,59.0,0,153,5.0,0.0
1943,62.0,8,153,5.0,0.0
1944,43.0,20,120,13.0,0.0
1945,59.0,45,153,3.0,0.0
1946,55.0,0,153,3.0,0.0
1947,83.0,40,30,10.0,0.0
1948,86.0,7,30,10.0,0.0
1949,50.0,22,120,13.0,0.0
1950,71.0,38,30,11.0,0.0
1951,74.0,60,30,11.0,0.0
1952,62.0,2,153,1.0,0.0
1953,71.0,0,153,1.0,0.0
1954,59.0,8,153,5.0,0.0
1955,62.0,0,153,5.0,0.0
1956,55.0,22,120,13.0,0.0
1957,59.0,0,153,3.0,0.0
1958,55.0,50,153,3.0,0.0
1959,71.0,38,30,11.0,0.0
1960,74.0,5,30,11.0,0.0
1961,59.0,27,120,13.0,0.0
1962,59.0,33,30,12.0,0.0
1963,62.0,60,30,12.0,0.0
1964,59.0,60,30,12.0,0.0
1965,62.0,53,30,12.0,0.0
1966,43.0,20,120,13.0,0.0
1967,83.0,40,30,10.0,0.0
1968,86.0,60,30,10.0,0.0
1969,62.0,0,153,1.0,0.0
1970,71.0,2,153,1.0,0.0
1971,59.0,0,153,5.0,0.0
1972,62.0,8,153,5.0,0.0
1973,41.0,20,120,13.0,0.0
1974,57.0,45,153,3.0,0.0
1975,53.0,0,153,3.0,0.0
1976,83.0,40,30,10.0,0.0
1977,86.0,7,30,10.0,0.0
1978,50.0,22,120,13.0,0.0
1979,71.0,38,30,11.0,0.0
1980,74.0,60,30,11.0,0.0
1981,71.0,2,153,1.0,0.0
1982,62.0,0,153,1.0,0.0
1983,59.0,0,153,5.0,0.0
1984,62.0,8,153,5.0,0.0
1985,53.0,22,120,13.0,0.0
1986,57.0,50,153,3.0,0.0
1987,53.0,0,153,3.0,0.0
1988,71.0,38,30,11.0,0.0
1989,74.0,5,30,11.0,0.0
1990,57.0,27,120,13.0,0.0
1991,59.0,33,30,12.0,0.0
1992,62.0,60,30,12.0,0.0
1993,59.0,60,30,12.0,0.0
1994,62.0,53,30,12.0,0.0
1995,41.0,60,120,13.0,0.0
1996,59.0,40,30,10.0,0.0
1997,62.0,0,102,1.0,0.0
1998,71.0,24,102,1.0,0.0
1999,40.0,36,60,13.0,0.0
2000,56.0,56,120,3.0,0.0
2001,52.0,0,120,3.0,0.0
2002,47.0,4,60,13.0,0.0
2003,62.0,13,102,1.0,0.0
2004,71.0,28,74,1.0,0.0
2005,56.0,8,60,13.0,0.0
2006,52.0,56,120,3.0,0.0
2007,56.0,0,120,3.0,0.0
2008,57.0,4,60,13.0,0.0
2009,71.0,11,30,1.0,0.0
2010,60.0,18,102,1.0,0.0
2011,72.0,0,102,1.0,0.0
2012,59.0,36,60,13.0,0.0
2013,45.0,0,110,3.0,0.0
2014,57.0,6,110,3.0,0.0
2015,45.0,60,60,13.0,0.0
2016,65.0,0,102,1.0,0.0
2017,71.0,24,102,1.0,0.0
2018,38.0,36,60,13.0,0.0
2019,56.0,56,120,3.0,0.0
2020,44.0,4,60,13.0,0.0
2021,65.0,13,102,1.0,0.0
2022,71.0,28,74,1.0,0.0
2023,50.0,8,60,13.0,0.0
2024,50.0,0,0,3.0,0.0
2025,56.0,50,120,3.0,0.0
2026,56.0,4,60,13.0,0.0
2027,71.0,11,30,1.0,0.0
2028,76.0,8,102,1.0,0.0
2029,64.0,6,60,1.0,0.0
2030,48.0,36,60,13.0,0.0
2031,48.0,0,110,3.0,0.0
2032,57.0,6,110,3.0,0.0
2033,69.0,10,50,1.0,0.0
2034,36.0,60,60,13.0,0.0
2035,67.0,8,102,1.0,0.0
2036,71.0,16,110,1.0,0.0
2037,38.0,36,60,13.0,0.0
2038,55.0,50,120,3.0,0.0
2039,50.0,0,120,3.0,0.0
2040,50.0,4,60,13.0,0.0
2041,71.0,6,60,1.0,0.0
2042,67.0,8,102,1.0,0.0
2043,55.0,36,60,13.0,0.0
2044,55.0,50,120,3.0,0.0
2045,74.0,16,50,1.0,0.0
2046,59.0,4,60,13.0,0.0
2047,66.0,8,102,1.0,0.0
2048,72.0,6,60,1.0,0.0
2049,57.0,36,60,13.0,0.0
2050,50.0,0,0,3.0,0.0
2051,57.0,6,110,3.0,0.0
2052,69.0,10,50,1.0,0.0
2053,50.0,60,60,13.0,0.0
2054,71.0,0,110,1.0,0.0
2055,67.0,10,110,1.0,0.0
2056,55.0,44,60,13.0,0.0
2057,62.0,6,60,4.0,0.0
2058,50.0,4,60,13.0,0.0
2059,67.0,50,60,4.0,0.0
2060,71.0,7,110,1.0,0.0
2061,43.0,4,120,13.0,0.0
2062,55.0,50,0,3.0,0.0
2063,74.0,3,60,0.0,0.0
2064,66.0,6,60,4.0,0.0
2065,79.0,3,60,0.0,0.0
2066,72.0,10,110,1.0,0.0
2067,64.0,47,60,4.0,0.0
2068,55.0,47,0,3.0,0.0
2069,78.0,3,50,0.0,0.0
2070,81.0,0,50,0.0,0.0
2071,63.0,0,50,4.0,0.0
2072,83.0,0,102,0.0,0.0
2073,79.0,16,102,0.0,0.0
2074,62.0,5,115,4.0,0.0
2075,71.0,39,60,1.0,0.0
2076,55.0,50,120,3.0,0.0
2077,74.0,10,60,1.0,0.0
2078,79.0,13,102,0.0,0.0
2079,83.0,28,74,0.0,0.0
2080,55.0,5,115,4.0,0.0
2081,79.0,11,60,1.0,0.0
2082,62.0,50,120,3.0,0.0
2083,78.0,10,60,1.0,0.0
2084,83.0,3,30,0.0,0.0
2085,84.0,11,102,0.0,0.0
2086,79.0,0,102,0.0,0.0
2087,76.0,39,60,1.0,0.0
2088,55.0,5,115,4.0,0.0
2089,60.0,60,110,3.0,0.0
2090,75.0,5,50,1.0,0.0
2091,79.0,0,102,0.0,0.0
2092,83.0,16,102,0.0,0.0
2093,74.0,39,60,1.0,0.0
2094,62.0,5,115,4.0,0.0
2095,71.0,10,60,1.0,0.0
2096,83.0,28,74,0.0,0.0
2097,79.0,13,102,0.0,0.0
2098,62.0,0,60,4.0,0.0
2099,74.0,11,60,1.0,0.0
2100,55.0,50,0,3.0,0.0
2101,64.0,5,55,4.0,0.0
2102,73.0,10,60,1.0,0.0
2103,83.0,3,30,0.0,0.0
2104,81.0,11,102,0.0,0.0
2105,88.0,0,102,0.0,0.0
2106,72.0,39,60,1.0,0.0
2107,66.0,5,115,4.0,0.0
2108,55.0,60,110,3.0,0.0
2109,69.0,5,50,1.0,0.0
2110,79.0,0,110,0.0,0.0
2111,83.0,3,110,0.0,0.0
2112,67.0,0,110,1.0,0.0
2113,67.0,0,60,4.0,0.0
2114,71.0,47,60,1.0,0.0
2115,64.0,15,55,4.0,0.0
2116,72.0,5,50,1.0,0.0
2117,83.0,3,60,0.0,0.0
2118,79.0,0,110,0.0,0.0
2119,62.0,15,115,4.0,0.0
2120,74.0,0,60,1.0,0.0
2121,67.0,47,60,1.0,0.0
2122,55.0,47,0,3.0,0.0
2123,86.0,3,50,0.0,0.0
2124,71.0,5,50,1.0,0.0
2125,84.0,0,60,0.0,0.0
2126,78.0,3,60,0.0,0.0
2127,69.0,47,60,1.0,0.0
2128,74.0,0,110,1.0,0.0
2129,62.0,5,115,4.0,0.0
2130,55.0,101,110,3.0,0.0
2131,81.0,3,50,0.0,0.0
2132,66.0,5,50,1.0,0.0
2133,71.0,2,105,10.0,0.0
2134,74.0,3,120,0.0,0.0
2135,83.0,0,120,0.0,0.0
2136,59.0,5,105,11.0,0.0
2137,62.0,0,120,4.0,0.0
2138,74.0,10,120,1.0,0.0
2139,67.0,0,120,1.0,0.0
2140,59.0,9,105,12.0,0.0
2141,55.0,106,120,3.0,0.0
2142,71.0,2,120,10.0,0.0
2143,59.0,5,120,11.0,0.0
2144,59.0,3,120,12.0,0.0
2145,47.0,20,120,13.0,0.0
2146,72.0,2,30,10.0,0.0
2147,60.0,5,30,11.0,0.0
2148,60.0,3,30,12.0,0.0
2149,48.0,30,30,13.0,0.0
2150,71.0,2,30,10.0,0.0
2151,59.0,5,30,11.0,0.0
2152,59.0,3,30,12.0,0.0
2153,47.0,30,30,13.0,0.0
2154,69.0,2,30,10.0,0.0
2155,57.0,5,30,11.0,0.0
2156,57.0,3,30,12.0,0.0
2157,45.0,105,30,13.0,0.0
2158,71.0,2,105,10.0,0.0
2159,59.0,5,105,11.0,0.0
2160,59.0,3,105,12.0,0.0
2161,47.0,125,105,13.0,0.0
2162,71.0,2,120,10.0,0.0
2163,59.0,5,120,11.0,0.0
2164,59.0,3,120,12.0,0.0
2165,47.0,20,120,13.0,0.0
2166,72.0,2,30,10.0,0.0
2167,60.0,5,30,11.0,0.0
2168,60.0,3,30,12.0,0.0
2169,48.0,30,30,13.0,0.0
2170,71.0,2,30,10.0,0.0
2171,59.0,5,30,11.0,0.0
2172,59.0,3,30,12.0,0.0
2173,47.0,30,30,13.0,0.0
2174,69.0,2,30,10.0,0.0
2175,57.0,5,30,11.0,0.0
2176,57.0,3,30,12.0,0.0
2177,45.0,105,30,13.0,0.0
2178,71.0,2,105,10.0,0.0
2179,59.0,5,105,11.0,0.0
2180,59.0,3,105,12.0,0.0
2181,47.0,110,105,13.0,0.0
2182,71.0,17,105,10.0,0.0
2183,59.0,5,120,11.0,0.0
2184,59.0,3,120,12.0,0.0
2185,47.0,20,120,13.0,0.0
2186,60.0,2,30,10.0,0.0
2187,88.0,0,90,0.0,0.0
2188,81.0,3,90,0.0,0.0
2189,60.0,5,30,11.0,0.0
2190,69.0,16,90,1.0,0.0
2191,64.0,0,90,4.0,0.0
2192,76.0,0,90,1.0,0.0
2193,60.0,3,30,12.0,0.0
2194,48.0,5,30,13.0,0.0
2195,36.0,25,30,14.0,0.0
2196,59.0,2,30,10.0,0.0
2197,59.0,5,30,11.0,0.0
2198,59.0,3,30,12.0,0.0
2199,47.0,5,30,13.0,0.0
2200,35.0,6,30,14.0,0.0
2201,57.0,1,30,10.0,0.0
2202,57.0,2,30,11.0,0.0
2203,57.0,2,30,12.0,0.0
2204,45.0,5,30,13.0,0.0
2205,84.0,1,20,0.0,0.0
2206,90.0,0,20,0.0,0.0
2207,66.0,1,25,4.0,0.0
2208,78.0,3,20,1.0,0.0
2209,72.0,0,20,1.0,0.0
2210,33.0,100,30,14.0,0.0
2211,59.0,2,105,10.0,0.0
2212,83.0,1,110,0.0,0.0
2213,75.0,0,110,0.0,0.0
2214,59.0,2,105,11.0,0.0
2215,59.0,2,105,4.0,0.0
2216,71.0,0,110,1.0,0.0
2217,63.0,1,110,1.0,0.0
2218,59.0,2,105,12.0,0.0
2219,47.0,5,105,13.0,0.0
2220,35.0,109,105,14.0,0.0
2221,59.0,2,120,10.0,0.0
2222,83.0,3,110,0.0,0.0
2223,75.0,0,110,0.0,0.0
2224,59.0,5,120,11.0,0.0
2225,71.0,6,110,1.0,0.0
2226,63.0,0,110,1.0,0.0
2227,59.0,2,105,4.0,0.0
2228,59.0,3,120,12.0,0.0
2229,47.0,5,120,13.0,0.0
2230,35.0,15,120,14.0,0.0
2231,60.0,2,30,10.0,0.0
2232,88.0,3,90,0.0,0.0
2233,81.0,0,90,0.0,0.0
2234,60.0,5,30,11.0,0.0
2235,76.0,0,90,1.0,0.0
2236,69.0,16,90,1.0,0.0
2237,64.0,0,90,4.0,0.0
2238,60.0,3,30,12.0,0.0
2239,48.0,5,30,13.0,0.0
2240,36.0,25,30,14.0,0.0
2241,59.0,2,30,10.0,0.0
2242,59.0,5,30,11.0,0.0
2243,59.0,3,30,12.0,0.0
2244,47.0,5,30,13.0,0.0
2245,35.0,6,30,14.0,0.0
2246,57.0,1,30,10.0,0.0
2247,57.0,2,30,11.0,0.0
2248,57.0,2,30,12.0,0.0
2249,45.0,5,30,13.0,0.0
2250,84.0,0,20,0.0,0.0
2251,90.0,1,20,0.0,0.0
2252,72.0,3,20,1.0,0.0
2253,78.0,0,20,1.0,0.0
2254,66.0,1,25,4.0,0.0
2255,33.0,100,30,14.0,0.0
2256,59.0,2,105,10.0,0.0
2257,75.0,0,110,0.0,0.0
2258,83.0,1,110,0.0,0.0
2259,59.0,2,105,11.0,0.0
2260,71.0,0,110,1.0,0.0
2261,63.0,1,110,1.0,0.0
2262,59.0,2,105,4.0,0.0
2263,59.0,2,105,12.0,0.0
2264,47.0,5,105,13.0,0.0
2265,35.0,109,105,14.0,0.0
2266,59.0,2,120,10.0,0.0
2267,75.0,3,110,0.0,0.0
2268,83.0,0,110,0.0,0.0
2269,59.0,5,120,11.0,0.0
2270,71.0,6,110,1.0,0.0
2271,63.0,0,110,1.0,0.0
2272,59.0,2,105,4.0,0.0
2273,59.0,3,120,12.0,0.0
2274,47.0,5,120,13.0,0.0
2275,35.0,15,120,14.0,0.0
2276,60.0,2,30,10.0,0.0
2277,76.0,3,90,0.0,0.0
2278,81.0,0,90,0.0,0.0
2279,60.0,5,30,11.0,0.0
2280,69.0,2,90,1.0,0.0
2281,64.0,8,90,2.0,0.0
2282,60.0,3,30,12.0,0.0
2283,48.0,5,30,13.0,0.0
2284,57.0,6,90,3.0,0.0
2285,36.0,25,30,14.0,0.0
2286,59.0,2,30,10.0,0.0
2287,59.0,5,30,11.0,0.0
2288,59.0,3,30,12.0,0.0
2289,47.0,5,30,13.0,0.0
2290,35.0,6,30,14.0,0.0
2291,57.0,1,30,10.0,0.0
2292,57.0,2,30,11.0,0.0
2293,57.0,3,30,12.0,0.0
2294,45.0,4,30,13.0,0.0
2295,78.0,0,20,0.0,0.0
2296,84.0,1,20,0.0,0.0
2297,72.0,2,20,1.0,0.0
2298,33.0,86,30,14.0,0.0
2299,66.0,1,20,2.0,0.0
2300,60.0,1,20,3.0,0.0
2301,59.0,2,105,10.0,0.0
2302,83.0,0,90,0.0,0.0
2303,79.0,3,90,0.0,0.0
2304,59.0,4,105,11.0,0.0
2305,71.0,2,90,1.0,0.0
2306,67.0,9,90,2.0,0.0
2307,59.0,2,105,12.0,0.0
2308,47.0,1,105,13.0,0.0
2309,59.0,87,110,3.0,0.0
2310,35.0,4,105,14.0,0.0
2311,78.0,1,20,0.0,0.0
2312,81.0,0,20,0.0,0.0
2313,69.0,1,20,1.0,0.0
2314,66.0,4,20,2.0,0.0
2315,59.0,2,120,10.0,0.0
2316,76.0,3,90,0.0,0.0
2317,79.0,0,90,0.0,0.0
2318,59.0,2,120,11.0,0.0
2319,67.0,2,90,1.0,0.0
2320,64.0,15,90,2.0,0.0
2321,59.0,3,120,12.0,0.0
2322,47.0,5,120,13.0,0.0
2323,59.0,3,110,3.0,0.0
2324,35.0,15,120,14.0,0.0
2325,77.0,3,20,0.0,0.0
2326,80.0,0,20,0.0,0.0
2327,68.0,0,20,1.0,0.0
2328,65.0,2,20,1.0,0.0
2329,62.0,4,20,2.0,0.0
2330,60.0,2,30,10.0,0.0
2331,76.0,3,90,0.0,0.0
2332,60.0,5,30,11.0,0.0
2333,64.0,0,90,1.0,0.0
2334,60.0,8,90,2.0,0.0
2335,60.0,3,30,12.0,0.0
2336,48.0,5,30,13.0,0.0
2337,57.0,6,90,3.0,0.0
2338,36.0,25,30,14.0,0.0
2339,59.0,2,30,10.0,0.0
2340,59.0,5,30,11.0,0.0
2341,59.0,3,30,12.0,0.0
2342,47.0,5,30,13.0,0.0
2343,35.0,6,30,14.0,0.0
2344,57.0,1,30,10.0,0.0
2345,57.0,2,30,11.0,0.0
2346,57.0,3,30,12.0,0.0
2347,45.0,4,30,13.0,0.0
2348,81.0,0,0,0.0,0.0
2349,84.0,0,20,0.0,0.0
2350,69.0,2,0,1.0,0.0
2351,72.0,2,20,1.0,0.0
2352,33.0,86,30,14.0,0.0
2353,62.0,1,20,2.0,0.0
2354,60.0,1,20,3.0,0.0
2355,59.0,2,105,10.0,0.0
2356,79.0,1,110,0.0,0.0
2357,88.0,3,90,0.0,0.0
2358,59.0,4,105,11.0,0.0
2359,67.0,1,110,1.0,0.0
2360,76.0,11,90,1.0,0.0
2361,64.0,4,110,2.0,0.0
2362,59.0,2,105,12.0,0.0
2363,47.0,1,105,13.0,0.0
2364,59.0,87,110,3.0,0.0
2365,35.0,4,105,14.0,0.0
2366,83.0,0,20,0.0,0.0
2367,71.0,0,20,1.0,0.0
2368,59.0,2,105,10.0,0.0
2369,75.0,0,110,0.0,0.0
2370,81.0,3,90,0.0,0.0
2371,59.0,4,105,11.0,0.0
2372,63.0,2,110,1.0,0.0
2373,69.0,2,90,1.0,0.0
2374,59.0,9,90,2.0,0.0
2375,59.0,2,105,12.0,0.0
2376,47.0,5,120,13.0,0.0
2377,47.0,6,110,3.0,0.0
2378,35.0,25,120,14.0,0.0
2379,78.0,1,20,0.0,0.0
2380,66.0,0,20,1.0,0.0
2381,57.0,8,20,2.0,0.0
2382,64.0,6,90,10.0,0.0
2383,76.0,3,110,0.0,0.0
2384,60.0,3,105,11.0,0.0
2385,64.0,2,110,1.0,0.0
2386,64.0,1,90,5.0,0.0
2387,55.0,0,110,2.0,0.0
2388,55.0,10,90,12.0,0.0
2389,48.0,4,30,13.0,0.0
2390,48.0,1,30,3.0,0.0
2391,36.0,35,30,14.0,0.0
2392,47.0,4,30,13.0,0.0
2393,47.0,1,30,3.0,0.0
2394,35.0,5,30,14.0,0.0
2395,65.0,1,20,10.0,0.0
2396,45.0,4,30,13.0,0.0
2397,45.0,1,30,3.0,0.0
2398,33.0,100,30,14.0,0.0
2399,60.0,0,20,2.0,0.0
2400,65.0,1,20,5.0,0.0
2401,53.0,3,20,12.0,0.0
2402,55.0,2,105,10.0,0.0
2403,55.0,4,105,11.0,0.0
2404,53.0,0,110,2.0,0.0
2405,55.0,1,105,5.0,0.0
2406,50.0,4,110,2.0,0.0
2407,53.0,3,105,12.0,0.0
2408,50.0,0,105,12.0,0.0
2409,47.0,1,105,13.0,0.0
2410,47.0,101,110,3.0,0.0
2411,35.0,4,105,14.0,0.0
2412,55.0,2,105,10.0,0.0
2413,55.0,4,105,11.0,0.0
2414,55.0,1,105,5.0,0.0
2415,50.0,8,110,2.0,0.0
2416,53.0,0,110,2.0,0.0
2417,53.0,0,105,12.0,0.0
2418,50.0,4,105,12.0,0.0
2419,47.0,5,120,13.0,0.0
2420,47.0,6,110,3.0,0.0
2421,35.0,25,120,14.0,0.0
2422,64.0,6,70,10.0,0.0
2423,60.0,3,105,11.0,0.0
2424,64.0,4,70,5.0,0.0
2425,55.0,0,110,2.0,0.0
2426,55.0,10,90,12.0,0.0
2427,48.0,4,30,13.0,0.0
2428,48.0,1,30,3.0,0.0
2429,36.0,25,30,14.0,0.0
2430,47.0,4,30,13.0,0.0
2431,47.0,1,30,3.0,0.0
2432,35.0,0,30,14.0,0.0
2433,67.0,6,15,10.0,0.0
2434,67.0,6,15,5.0,0.0
2435,65.0,6,20,10.0,0.0
2436,45.0,4,30,13.0,0.0
2437,45.0,1,30,3.0,0.0
2438,33.0,100,30,14.0,0.0
2439,60.0,0,20,2.0,0.0
2440,65.0,1,20,5.0,0.0
2441,53.0,3,20,12.0,0.0
2442,55.0,2,105,10.0,0.0
2443,55.0,4,105,11.0,0.0
2444,53.0,4,110,2.0,0.0
2445,50.0,0,110,2.0,0.0
2446,55.0,1,105,5.0,0.0
2447,53.0,0,105,12.0,0.0
2448,50.0,3,105,12.0,0.0
2449,47.0,1,105,13.0,0.0
2450,47.0,101,110,3.0,0.0
2451,35.0,4,105,14.0,0.0
2452,55.0,2,105,10.0,0.0
2453,55.0,4,105,11.0,0.0
2454,53.0,8,110,2.0,0.0
2455,50.0,0,110,2.0,0.0
2456,55.0,1,105,5.0,0.0
2457,53.0,0,105,12.0,0.0
2458,50.0,4,105,12.0,0.0
2459,47.0,5,120,13.0,0.0
2460,47.0,6,110,3.0,0.0
2461,35.0,25,120,14.0,0.0
2462,64.0,2,90,10.0,0.0
2463,55.0,4,90,11.0,0.0
2464,52.0,0,90,2.0,0.0
2465,64.0,0,90,5.0,0.0
2466,55.0,1,90,2.0,0.0
2467,52.0,13,90,12.0,0.0
2468,48.0,4,30,13.0,0.0
2469,48.0,1,30,3.0,0.0
2470,36.0,35,30,14.0,0.0
2471,47.0,4,30,13.0,0.0
2472,47.0,1,30,3.0,0.0
2473,35.0,5,30,14.0,0.0
2474,63.0,2,20,10.0,0.0
2475,45.0,4,30,13.0,0.0
2476,60.0,4,20,11.0,0.0
2477,45.0,1,30,3.0,0.0
2478,33.0,100,30,14.0,0.0
2479,54.0,0,20,2.0,0.0
2480,60.0,1,20,2.0,0.0
2481,63.0,0,20,5.0,0.0
2482,54.0,3,20,12.0,0.0
2483,62.0,2,105,10.0,0.0
2484,55.0,4,105,11.0,0.0
2485,55.0,4,110,2.0,0.0
2486,59.0,0,110,2.0,0.0
2487,62.0,1,105,5.0,0.0
2488,55.0,3,105,12.0,0.0
2489,47.0,1,105,13.0,0.0
2490,47.0,101,110,3.0,0.0
2491,35.0,4,105,14.0,0.0
2492,55.0,2,105,10.0,0.0
2493,55.0,4,105,11.0,0.0
2494,55.0,1,105,5.0,0.0
2495,55.0,8,110,2.0,0.0
2496,50.0,4,105,12.0,0.0
2497,47.0,5,120,13.0,0.0
2498,47.0,6,110,3.0,0.0
2499,35.0,25,120,14.0,0.0
2500,62.0,2,90,10.0,0.0
2501,55.0,4,90,11.0,0.0
2502,62.0,1,90,5.0,0.0
2503,52.0,7,90,12.0,0.0
2504,48.0,5,30,13.0,0.0
2505,52.0,6,90,3.0,0.0
2506,36.0,35,30,14.0,0.0
2507,47.0,5,30,13.0,0.0
2508,35.0,5,30,14.0,0.0
2509,60.0,2,20,10.0,0.0
2510,45.0,4,30,13.0,0.0
2511,60.0,4,20,11.0,0.0
2512,33.0,84,30,14.0,0.0
2513,60.0,1,20,5.0,0.0
2514,54.0,3,20,12.0,0.0
2515,54.0,1,20,3.0,0.0
2516,59.0,2,89,10.0,0.0
2517,59.0,4,89,11.0,0.0
2518,59.0,1,89,5.0,0.0
2519,54.0,19,89,12.0,0.0
2520,52.0,0,89,12.0,0.0
2521,47.0,1,105,13.0,0.0
2522,54.0,4,102,3.0,0.0
2523,52.0,0,102,3.0,0.0
2524,35.0,89,105,14.0,0.0
2525,59.0,2,89,10.0,0.0
2526,59.0,4,89,11.0,0.0
2527,59.0,1,89,5.0,0.0
2528,54.0,20,89,12.0,0.0
2529,51.0,0,89,12.0,0.0
2530,47.0,5,120,13.0,0.0
2531,54.0,14,102,3.0,0.0
2532,51.0,0,102,3.0,0.0
2533,35.0,25,120,14.0,0.0
2534,74.0,2,90,1.0,0.0
2535,64.0,1,110,2.0,0.0
2536,69.0,0,90,2.0,0.0
2537,62.0,1,90,5.0,0.0
2538,52.0,7,90,12.0,0.0
2539,48.0,5,30,13.0,0.0
2540,57.0,10,90,3.0,0.0
2541,52.0,0,102,3.0,0.0
2542,36.0,35,30,14.0,0.0
2543,47.0,5,30,13.0,0.0
2544,35.0,9,30,14.0,0.0
2545,45.0,4,30,13.0,0.0
2546,72.0,2,20,1.0,0.0
2547,33.0,90,30,14.0,0.0
2548,60.0,0,20,5.0,0.0
2549,66.0,0,20,2.0,0.0
2550,54.0,3,20,12.0,0.0
2551,55.0,1,20,3.0,0.0
2552,71.0,2,102,1.0,0.0
2553,59.0,11,89,5.0,0.0
2554,66.0,1,102,2.0,0.0
2555,64.0,0,102,2.0,0.0
2556,52.0,0,102,12.0,0.0
2557,54.0,3,102,12.0,0.0
2558,47.0,4,102,13.0,0.0
2559,52.0,1,102,3.0,0.0
2560,54.0,0,102,3.0,0.0
2561,35.0,98,102,14.0,0.0
2562,71.0,2,102,1.0,0.0
2563,66.0,1,102,2.0,0.0
2564,63.0,0,102,2.0,0.0
2565,59.0,11,89,5.0,0.0
2566,54.0,0,102,12.0,0.0
2567,51.0,3,102,12.0,0.0
2568,47.0,4,102,13.0,0.0
2569,54.0,0,102,3.0,0.0
2570,51.0,1,102,3.0,0.0
2571,35.0,98,102,14.0,0.0
2572,71.0,1,102,1.0,0.0
2573,64.0,1,102,2.0,0.0
2574,59.0,11,89,5.0,0.0
2575,68.0,0,102,2.0,0.0
2576,56.0,3,102,12.0,0.0
2577,52.0,0,102,12.0,0.0
2578,40.0,1,97,13.0,0.0
2579,52.0,0,102,3.0,0.0
2580,56.0,34,102,3.0,0.0
2581,28.0,4,97,14.0,0.0
2582,86.0,2,30,10.0,0.0
2583,74.0,5,30,11.0,0.0
2584,74.0,3,30,12.0,0.0
2585,62.0,50,30,13.0,0.0
2586,84.0,2,30,10.0,0.0
2587,72.0,5,30,11.0,0.0
2588,72.0,3,30,12.0,0.0
2589,60.0,50,30,13.0,0.0
2590,83.0,2,30,10.0,0.0
2591,71.0,5,30,11.0,0.0
2592,71.0,3,30,12.0,0.0
2593,59.0,50,30,13.0,0.0
2594,84.0,2,30,10.0,0.0
2595,72.0,5,30,11.0,0.0
2596,72.0,3,30,12.0,0.0
2597,60.0,50,30,13.0,0.0
2598,83.0,2,30,10.0,0.0
2599,71.0,5,30,11.0,0.0
2600,71.0,3,30,12.0,0.0
2601,59.0,50,30,13.0,0.0
2602,81.0,2,30,10.0,0.0
2603,69.0,5,30,11.0,0.0
2604,69.0,3,30,12.0,0.0
2605,57.0,50,30,13.0,0.0
2606,83.0,2,30,10.0,0.0
2607,71.0,5,30,11.0,0.0
2608,71.0,3,30,12.0,0.0
2609,59.0,50,30,13.0,0.0
2610,81.0,2,30,10.0,0.0
2611,69.0,5,30,11.0,0.0
2612,69.0,3,30,12.0,0.0
2613,57.0,50,30,13.0,0.0
2614,79.0,2,30,10.0,0.0
2615,67.0,5,30,11.0,0.0
2616,67.0,3,30,12.0,0.0
2617,55.0,50,30,13.0,0.0
2618,81.0,2,30,10.0,0.0
2619,69.0,5,30,11.0,0.0
2620,69.0,3,30,12.0,0.0
2621,57.0,50,30,13.0,0.0
2622,79.0,2,30,10.0,0.0
2623,67.0,5,30,11.0,0.0
2624,67.0,3,30,12.0,0.0
2625,55.0,50,30,13.0,0.0
2626,77.0,2,30,10.0,0.0
2627,65.0,5,30,11.0,0.0
2628,65.0,3,30,12.0,0.0
2629,53.0,50,30,13.0,0.0
2630,76.0,2,30,10.0,0.0
2631,64.0,5,30,11.0,0.0
2632,64.0,3,30,12.0,0.0
2633,52.0,125,30,13.0,0.0
2634,74.0,2,105,10.0,0.0
2635,62.0,5,105,11.0,0.0
2636,62.0,3,105,12.0,0.0
2637,50.0,35,105,13.0,0.0
2638,76.0,2,30,10.0,0.0
2639,64.0,5,30,11.0,0.0
2640,64.0,3,30,12.0,0.0
2641,52.0,125,30,13.0,0.0
2642,77.0,2,105,10.0,0.0
2643,65.0,5,105,11.0,0.0
2644,65.0,3,105,12.0,0.0
2645,53.0,36,105,13.0,0.0
2646,69.0,5,30,0.0,0.0
2647,73.0,0,30,0.0,0.0
2648,73.0,8,30,2.0,0.0
2649,64.0,0,30,2.0,0.0
2650,52.0,127,30,3.0,0.0
2651,45.0,0,30,3.0,0.0
2652,69.0,0,110,0.0,0.0
2653,71.0,5,110,0.0,0.0
2654,65.0,8,110,2.0,0.0
2655,71.0,0,110,2.0,0.0
2656,50.0,0,110,3.0,0.0
2657,45.0,27,110,3.0,0.0
2658,69.0,0,30,0.0,0.0
2659,73.0,5,30,0.0,0.0
2660,64.0,0,30,2.0,0.0
2661,73.0,8,30,2.0,0.0
2662,52.0,127,30,3.0,0.0
2663,45.0,0,30,3.0,0.0
2664,69.0,5,110,0.0,0.0
2665,62.0,0,110,2.0,0.0
2666,69.0,8,110,2.0,0.0
2667,53.0,27,110,3.0,0.0
2668,45.0,0,110,3.0,0.0
2669,69.0,0,30,0.0,0.0
2670,73.0,5,30,0.0,0.0
2671,64.0,0,30,2.0,0.0
2672,73.0,8,30,2.0,0.0
2673,45.0,127,30,3.0,0.0
2674,52.0,0,30,3.0,0.0
2675,71.0,0,110,0.0,0.0
2676,69.0,5,110,0.0,0.0
2677,65.0,8,110,2.0,0.0
2678,71.0,0,110,2.0,0.0
2679,45.0,27,110,3.0,0.0
2680,50.0,0,110,3.0,0.0
2681,69.0,0,30,0.0,0.0
2682,73.0,5,30,0.0,0.0
2683,73.0,0,30,2.0,0.0
2684,64.0,8,30,2.0,0.0
2685,45.0,127,30,3.0,0.0
2686,52.0,0,30,3.0,0.0
2687,69.0,5,110,0.0,0.0
2688,69.0,8,110,2.0,0.0
2689,62.0,0,110,2.0,0.0
2690,53.0,32,110,3.0,0.0
2691,45.0,0,110,3.0,0.0
2692,64.0,0,30,2.0,0.0
2693,61.0,8,30,2.0,0.0
2694,45.0,52,30,3.0,0.0
2695,52.0,0,30,3.0,0.0
2696,66.0,8,30,2.0,0.0
2697,62.0,0,30,2.0,0.0
2698,45.0,0,30,3.0,0.0
2699,50.0,52,30,3.0,0.0
2700,67.0,0,30,2.0,0.0
2701,64.0,8,30,2.0,0.0
2702,49.0,0,30,3.0,0.0
2703,45.0,52,30,3.0,0.0
2704,68.0,0,30,2.0,0.0
2705,65.0,8,30,2.0,0.0
2706,50.0,0,30,3.0,0.0
2707,45.0,52,30,3.0,0.0
2708,64.0,0,30,2.0,0.0
2709,69.0,8,30,2.0,0.0
2710,49.0,52,30,3.0,0.0
2711,45.0,0,30,3.0,0.0
2712,68.0,0,30,2.0,0.0
2713,74.0,8,30,2.0,0.0
2714,47.0,47,30,3.0,0.0
2715,45.0,0,30,3.0,0.0
2716,73.0,0,30,0.0,0.0
2717,69.0,5,30,0.0,0.0
2718,64.0,8,30,2.0,0.0
2719,73.0,0,30,2.0,0.0
2720,52.0,127,30,3.0,0.0
2721,45.0,0,30,3.0,0.0
2722,69.0,0,110,0.0,0.0
2723,71.0,5,110,0.0,0.0
2724,71.0,8,110,2.0,0.0
2725,65.0,0,110,2.0,0.0
2726,45.0,27,110,3.0,0.0
2727,50.0,0,110,3.0,0.0
2728,69.0,5,30,0.0,0.0
2729,73.0,0,30,0.0,0.0
2730,73.0,0,30,2.0,0.0
2731,64.0,8,30,2.0,0.0
2732,45.0,127,30,3.0,0.0
2733,52.0,0,30,3.0,0.0
2734,69.0,5,110,0.0,0.0
2735,62.0,8,110,2.0,0.0
2736,69.0,0,110,2.0,0.0
2737,45.0,27,110,3.0,0.0
2738,53.0,0,110,3.0,0.0
2739,73.0,0,30,0.0,0.0
2740,69.0,5,30,0.0,0.0
2741,73.0,0,30,2.0,0.0
2742,64.0,8,30,2.0,0.0
2743,52.0,127,30,3.0,0.0
2744,45.0,0,30,3.0,0.0
2745,71.0,0,110,0.0,0.0
2746,69.0,5,110,0.0,0.0
2747,65.0,0,110,2.0,0.0
2748,71.0,8,110,2.0,0.0
2749,45.0,27,110,3.0,0.0
2750,50.0,0,110,3.0,0.0
2751,69.0,5,30,0.0,0.0
2752,73.0,0,30,0.0,0.0
2753,64.0,0,30,2.0,0.0
2754,73.0,8,30,2.0,0.0
2755,52.0,0,30,3.0,0.0
2756,45.0,127,30,3.0,0.0
2757,69.0,5,110,0.0,0.0
2758,61.0,8,110,2.0,0.0
2759,69.0,0,110,2.0,0.0
2760,57.0,0,110,3.0,0.0
2761,45.0,27,110,3.0,0.0
2762,78.0,5,30,0.0,0.0
2763,66.0,8,30,2.0,0.0
2764,54.0,47,30,3.0,0.0
2765,80.0,5,30,0.0,0.0
2766,68.0,8,30,2.0,0.0
2767,56.0,47,30,3.0,0.0
2768,81.0,5,30,0.0,0.0
2769,69.0,8,30,2.0,0.0
2770,57.0,47,30,3.0,0.0
2771,83.0,5,30,0.0,0.0
2772,71.0,8,30,2.0,0.0
2773,59.0,47,30,3.0,0.0
2774,85.0,5,30,0.0,0.0
2775,73.0,8,30,2.0,0.0
2776,61.0,47,30,3.0,0.0
2777,87.0,5,30,0.0,0.0
2778,75.0,8,30,2.0,0.0
2779,63.0,46,30,3.0,0.0
2780,88.0,1,30,10.0,0.0
2781,88.0,1,30,0.0,0.0
2782,76.0,4,30,11.0,0.0
2783,72.0,0,30,5.0,0.0
2784,76.0,1,30,2.0,0.0
2785,60.0,0,30,5.0,0.0
2786,72.0,0,30,12.0,0.0
2787,60.0,3,30,12.0,0.0
2788,36.0,0,30,13.0,0.0
2789,43.0,4,30,13.0,0.0
2790,64.0,1,30,3.0,0.0
2791,36.0,115,30,14.0,0.0
2792,86.0,2,100,10.0,0.0
2793,74.0,5,100,11.0,0.0
2794,60.0,0,100,12.0,0.0
2795,69.0,3,100,12.0,0.0
2796,41.0,5,100,13.0,0.0
2797,36.0,35,100,14.0,0.0
2798,88.0,2,30,10.0,0.0
2799,76.0,4,30,11.0,0.0
2800,72.0,0,30,5.0,0.0
2801,60.0,1,30,5.0,0.0
2802,72.0,0,30,12.0,0.0
2803,60.0,3,30,12.0,0.0
2804,43.0,0,30,13.0,0.0
2805,36.0,5,30,13.0,0.0
2806,36.0,115,30,14.0,0.0
2807,84.0,2,100,10.0,0.0
2808,72.0,5,100,11.0,0.0
2809,60.0,0,100,12.0,0.0
2810,65.0,3,100,12.0,0.0
2811,36.0,0,100,13.0,0.0
2812,45.0,5,100,13.0,0.0
2813,36.0,35,100,14.0,0.0
2814,88.0,2,30,10.0,0.0
2815,76.0,4,30,11.0,0.0
2816,72.0,0,30,5.0,0.0
2817,60.0,1,30,5.0,0.0
2818,72.0,0,30,12.0,0.0
2819,60.0,3,30,12.0,0.0
2820,36.0,5,30,13.0,0.0
2821,43.0,0,30,13.0,0.0
2822,36.0,115,30,14.0,0.0
2823,86.0,2,100,10.0,0.0
2824,74.0,5,100,11.0,0.0
2825,60.0,0,100,12.0,0.0
2826,69.0,3,100,12.0,0.0
2827,41.0,5,100,13.0,0.0
2828,36.0,35,100,14.0,0.0
2829,88.0,2,30,10.0,0.0
2830,76.0,4,30,11.0,0.0
2831,72.0,1,30,5.0,0.0
2832,60.0,0,30,5.0,0.0
2833,60.0,3,30,12.0,0.0
2834,72.0,0,30,12.0,0.0
2835,36.0,0,30,13.0,0.0
2836,43.0,5,30,13.0,0.0
2837,36.0,115,30,14.0,0.0
2838,84.0,2,100,10.0,0.0
2839,72.0,5,100,11.0,0.0
2840,65.0,3,100,12.0,0.0
2841,60.0,0,100,12.0,0.0
2842,36.0,5,100,13.0,0.0
2843,45.0,0,100,13.0,0.0
2844,36.0,35,100,14.0,0.0
2845,79.0,1,30,10.0,0.0
2846,76.0,0,30,0.0,0.0
2847,79.0,1,30,0.0,0.0
2848,67.0,2,30,11.0,0.0
2849,64.0,2,30,1.0,0.0
2850,67.0,0,30,1.0,0.0
2851,48.0,1,30,5.0,0.0
2852,60.0,0,30,5.0,0.0
2853,64.0,3,30,12.0,0.0
2854,36.0,0,30,13.0,0.0
2855,46.0,4,30,13.0,0.0
2856,46.0,0,30,3.0,0.0
2857,58.0,1,30,3.0,0.0
2858,36.0,45,30,14.0,0.0
2859,81.0,1,30,10.0,0.0
2860,81.0,0,30,0.0,0.0
2861,77.0,1,30,0.0,0.0
2862,69.0,2,30,11.0,0.0
2863,65.0,2,30,1.0,0.0
2864,69.0,0,30,1.0,0.0
2865,48.0,0,30,5.0,0.0
2866,60.0,1,30,5.0,0.0
2867,65.0,3,30,12.0,0.0
2868,45.0,4,30,13.0,0.0
2869,45.0,1,30,3.0,0.0
2870,57.0,0,30,3.0,0.0
2871,36.0,45,30,14.0,0.0
2872,82.0,1,30,10.0,0.0
2873,82.0,0,30,0.0,0.0
2874,79.0,1,30,0.0,0.0
2875,70.0,2,30,11.0,0.0
2876,70.0,2,30,1.0,0.0
2877,67.0,0,30,1.0,0.0
2878,60.0,1,30,5.0,0.0
2879,48.0,0,30,5.0,0.0
2880,67.0,3,30,12.0,0.0
2881,43.0,4,30,13.0,0.0
2882,43.0,0,30,3.0,0.0
2883,55.0,1,30,3.0,0.0
2884,36.0,45,30,14.0,0.0
2885,83.0,1,30,10.0,0.0
2886,80.0,0,30,0.0,0.0
2887,83.0,1,30,0.0,0.0
2888,71.0,2,30,11.0,0.0
2889,68.0,2,30,1.0,0.0
2890,71.0,0,30,1.0,0.0
2891,48.0,0,30,5.0,0.0
2892,60.0,1,30,5.0,0.0
2893,68.0,3,30,12.0,0.0
2894,41.0,4,30,13.0,0.0
2895,53.0,1,30,3.0,0.0
2896,41.0,0,30,3.0,0.0
2897,36.0,45,30,14.0,0.0
2898,84.0,1,30,10.0,0.0
2899,84.0,0,30,0.0,0.0
2900,79.0,1,30,0.0,0.0
2901,72.0,2,30,11.0,0.0
2902,67.0,0,30,1.0,0.0
2903,72.0,2,30,1.0,0.0
2904,60.0,0,30,5.0,0.0
2905,48.0,1,30,5.0,0.0
2906,67.0,3,30,12.0,0.0
2907,40.0,4,30,13.0,0.0
2908,40.0,0,30,3.0,0.0
2909,52.0,1,30,3.0,0.0
2910,36.0,45,30,14.0,0.0
2911,89.0,1,30,10.0,0.0
2912,83.0,1,30,0.0,0.0
2913,89.0,0,30,0.0,0.0
2914,77.0,2,30,11.0,0.0
2915,77.0,0,30,1.0,0.0
2916,71.0,2,30,1.0,0.0
2917,48.0,0,30,5.0,0.0
2918,60.0,1,30,5.0,0.0
2919,71.0,3,30,12.0,0.0
2920,38.0,4,30,13.0,0.0
2921,50.0,1,30,3.0,0.0
2922,38.0,0,30,3.0,0.0
2923,36.0,45,30,14.0,0.0
2924,88.0,1,30,10.0,0.0
2925,84.0,1,30,0.0,0.0
2926,88.0,0,30,0.0,0.0
2927,76.0,2,30,11.0,0.0
2928,72.0,2,30,1.0,0.0
2929,76.0,0,30,1.0,0.0
2930,60.0,0,30,5.0,0.0
2931,72.0,1,30,5.0,0.0
2932,60.0,3,30,12.0,0.0
2933,72.0,0,30,12.0,0.0
2934,36.0,0,30,13.0,0.0
2935,43.0,4,30,13.0,0.0
2936,36.0,0,30,3.0,0.0
2937,48.0,1,30,3.0,0.0
2938,36.0,115,30,14.0,0.0
2939,86.0,2,100,10.0,0.0
2940,74.0,5,100,11.0,0.0
2941,69.0,3,100,12.0,0.0
2942,60.0,0,100,12.0,0.0
2943,41.0,5,100,13.0,0.0
2944,36.0,35,100,14.0,0.0
2945,88.0,2,30,10.0,0.0
2946,76.0,4,30,11.0,0.0
2947,60.0,0,30,5.0,0.0
2948,72.0,1,30,5.0,0.0
2949,60.0,0,30,12.0,0.0
2950,72.0,3,30,12.0,0.0
2951,36.0,0,30,13.0,0.0
2952,43.0,5,30,13.0,0.0
2953,36.0,115,30,14.0,0.0
2954,84.0,2,100,10.0,0.0
2955,72.0,5,100,11.0,0.0
2956,60.0,3,100,12.0,0.0
2957,65.0,0,100,12.0,0.0
2958,45.0,5,100,13.0,0.0
2959,36.0,0,100,13.0,0.0
2960,36.0,35,100,14.0,0.0
2961,88.0,2,30,10.0,0.0
2962,76.0,4,30,11.0,0.0
2963,72.0,0,30,5.0,0.0
2964,60.0,1,30,5.0,0.0
2965,72.0,3,30,12.0,0.0
2966,60.0,0,30,12.0,0.0
2967,43.0,0,30,13.0,0.0
2968,36.0,5,30,13.0,0.0
2969,36.0,115,30,14.0,0.0
2970,86.0,2,100,10.0,0.0
2971,74.0,5,100,11.0,0.0
2972,69.0,3,100,12.0,0.0
2973,60.0,0,100,12.0,0.0
2974,41.0,5,100,13.0,0.0
2975,36.0,35,100,14.0,0.0
2976,88.0,2,30,10.0,0.0
2977,76.0,4,30,11.0,0.0
2978,60.0,0,30,5.0,0.0
2979,72.0,1,30,5.0,0.0
2980,60.0,0,30,12.0,0.0
2981,72.0,3,30,12.0,0.0
2982,36.0,0,30,13.0,0.0
2983,43.0,5,30,13.0,0.0
2984,36.0,115,30,14.0,0.0
2985,84.0,2,100,10.0,0.0
2986,72.0,5,100,11.0,0.0
2987,76.0,0,100,11.0,0.0
2988,64.0,0,100,12.0,0.0
2989,60.0,3,100,12.0,0.0
2990,36.0,5,100,13.0,0.0
2991,45.0,0,100,13.0,0.0
2992,36.0,35,100,14.0,0.0
2993,81.0,1,30,10.0,0.0
2994,81.0,1,30,0.0,0.0
2995,81.0,2,30,11.0,0.0
2996,69.0,2,30,1.0,0.0
2997,57.0,1,30,5.0,0.0
2998,69.0,3,30,12.0,0.0
2999,57.0,5,30,13.0,0.0
3000,45.0,45,30,14.0,0.0
3001,83.0,1,30,10.0,0.0
3002,83.0,1,30,0.0,0.0
3003,83.0,2,30,11.0,0.0
3004,71.0,2,30,1.0,0.0
3005,59.0,1,30,5.0,0.0
3006,71.0,3,30,12.0,0.0
3007,59.0,5,30,13.0,0.0
3008,47.0,45,30,14.0,0.0
3009,84.0,1,30,10.0,0.0
3010,84.0,1,30,0.0,0.0
3011,84.0,2,30,11.0,0.0
3012,72.0,2,30,1.0,0.0
3013,60.0,1,30,5.0,0.0
3014,72.0,3,30,12.0,0.0
3015,60.0,5,30,13.0,0.0
3016,48.0,45,30,14.0,0.0
3017,86.0,1,30,10.0,0.0
3018,86.0,1,30,0.0,0.0
3019,86.0,2,30,11.0,0.0
3020,74.0,2,30,1.0,0.0
3021,62.0,1,30,5.0,0.0
3022,74.0,3,30,12.0,0.0
3023,62.0,5,30,13.0,0.0
3024,50.0,45,30,14.0,0.0
3025,88.0,1,30,10.0,0.0
3026,84.0,0,30,0.0,0.0
3027,88.0,1,30,0.0,0.0
3028,84.0,2,30,11.0,0.0
3029,72.0,2,30,1.0,0.0
3030,76.0,0,30,1.0,0.0
3031,62.0,1,30,5.0,0.0
3032,76.0,3,30,12.0,0.0
3033,57.0,5,30,13.0,0.0
3034,45.0,45,30,14.0,0.0
3035,90.0,1,30,10.0,0.0
3036,81.0,0,30,0.0,0.0
3037,90.0,1,30,0.0,0.0
3038,81.0,2,30,11.0,0.0
3039,78.0,0,30,1.0,0.0
3040,69.0,2,30,1.0,0.0
3041,62.0,1,30,5.0,0.0
3042,78.0,3,30,12.0,0.0
3043,50.0,5,30,13.0,0.0
3044,38.0,45,30,14.0,0.0
3045,91.0,1,30,10.0,0.0
3046,79.0,0,30,0.0,0.0
3047,91.0,1,30,0.0,0.0
3048,79.0,2,30,11.0,0.0
3049,67.0,2,30,1.0,0.0
3050,79.0,0,30,1.0,0.0
3051,70.0,0,30,2.0,0.0
3052,43.0,1,30,5.0,0.0
3053,55.0,0,30,5.0,0.0
3054,61.0,0,30,2.0,0.0
3055,79.0,3,30,12.0,0.0
3056,55.0,4,30,13.0,0.0
3057,52.0,1,30,3.0,0.0
3058,43.0,0,30,3.0,0.0
3059,43.0,51,30,14.0,0.0
3060,67.0,8,30,2.0,0.0
3061,61.0,0,30,2.0,0.0
3062,52.0,52,30,3.0,0.0
3063,45.0,0,30,3.0,0.0
3064,64.0,8,30,2.0,0.0
3065,61.0,0,30,2.0,0.0
3066,52.0,52,30,3.0,0.0
3067,46.0,0,30,3.0,0.0
3068,58.0,0,30,2.0,0.0
3069,62.0,8,30,2.0,0.0
3070,52.0,0,30,3.0,0.0
3071,43.0,52,30,3.0,0.0
3072,61.0,8,30,2.0,0.0
3073,58.0,0,30,2.0,0.0
3074,45.0,0,30,3.0,0.0
3075,52.0,52,30,3.0,0.0
3076,64.0,0,30,2.0,0.0
3077,55.0,8,30,2.0,0.0
3078,46.0,52,30,3.0,0.0
3079,49.0,0,30,3.0,0.0
3080,70.0,0,30,2.0,0.0
3081,61.0,8,30,2.0,0.0
3082,43.0,0,30,3.0,0.0
3083,52.0,52,30,3.0,0.0
3084,61.0,8,30,2.0,0.0
3085,67.0,0,30,2.0,0.0
3086,45.0,52,30,3.0,0.0
3087,52.0,0,30,3.0,0.0
3088,61.0,8,30,2.0,0.0
3089,64.0,0,30,2.0,0.0
3090,46.0,0,30,3.0,0.0
3091,52.0,52,30,3.0,0.0
3092,58.0,0,30,2.0,0.0
3093,62.0,8,30,2.0,0.0
3094,52.0,52,30,3.0,0.0
3095,43.0,0,30,3.0,0.0
3096,58.0,8,30,2.0,0.0
3097,61.0,0,30,2.0,0.0
3098,52.0,0,30,3.0,0.0
3099,45.0,52,30,3.0,0.0
3100,64.0,8,30,2.0,0.0
3101,55.0,0,30,2.0,0.0
3102,46.0,52,30,3.0,0.0
3103,49.0,0,30,3.0,0.0
3104,72.0,8,30,2.0,0.0
3105,63.0,0,30,2.0,0.0
3106,54.0,52,30,3.0,0.0
3107,45.0,0,30,3.0,0.0
3108,63.0,8,30,2.0,0.0
3109,69.0,0,30,2.0,0.0
3110,54.0,52,30,3.0,0.0
3111,47.0,0,30,3.0,0.0
3112,66.0,0,30,2.0,0.0
3113,63.0,8,30,2.0,0.0
3114,48.0,0,30,3.0,0.0
3115,54.0,52,30,3.0,0.0
3116,60.0,8,30,2.0,0.0
3117,64.0,0,30,2.0,0.0
3118,45.0,0,30,3.0,0.0
3119,54.0,52,30,3.0,0.0
3120,60.0,0,30,2.0,0.0
3121,63.0,8,30,2.0,0.0
3122,54.0,52,30,3.0,0.0
3123,47.0,0,30,3.0,0.0
3124,57.0,0,30,2.0,0.0
3125,66.0,8,30,2.0,0.0
3126,48.0,0,30,3.0,0.0
3127,51.0,52,30,3.0,0.0
3128,63.0,0,30,2.0,0.0
3129,72.0,8,30,2.0,0.0
3130,45.0,0,30,3.0,0.0
3131,54.0,52,30,3.0,0.0
3132,63.0,0,30,2.0,0.0
3133,69.0,8,30,2.0,0.0
3134,54.0,52,30,3.0,0.0
3135,47.0,0,30,3.0,0.0
3136,66.0,8,30,2.0,0.0
3137,63.0,0,30,2.0,0.0
3138,54.0,0,30,3.0,0.0
3139,48.0,52,30,3.0,0.0
3140,64.0,0,30,2.0,0.0
3141,60.0,8,30,2.0,0.0
3142,54.0,0,30,3.0,0.0
3143,45.0,52,30,3.0,0.0
3144,60.0,8,30,2.0,0.0
3145,63.0,0,30,2.0,0.0
3146,54.0,0,30,3.0,0.0
3147,47.0,52,30,3.0,0.0
3148,57.0,0,30,2.0,0.0
3149,66.0,8,30,2.0,0.0
3150,48.0,0,30,3.0,0.0
3151,51.0,46,30,3.0,0.0
3152,76.0,2,30,10.0,0.0
3153,72.0,4,30,11.0,0.0
3154,67.0,4,30,2.0,0.0
3155,60.0,0,30,2.0,0.0
3156,48.0,28,100,12.0,0.0
3157,36.0,0,30,13.0,0.0
3158,43.0,4,30,13.0,0.0
3159,48.0,0,30,3.0,0.0
3160,52.0,48,30,3.0,0.0
3161,36.0,17,120,14.0,0.0
3162,74.0,10,100,10.0,0.0
3163,69.0,15,30,11.0,0.0
3164,41.0,40,100,13.0,0.0
3165,68.0,8,30,11.0,0.0
3166,76.0,2,30,10.0,0.0
3167,67.0,8,30,11.0,0.0
3168,48.0,28,100,12.0,0.0
3169,36.0,52,30,13.0,0.0
3170,43.0,0,30,13.0,0.0
3171,36.0,17,120,14.0,0.0
3172,72.0,10,100,10.0,0.0
3173,65.0,15,30,11.0,0.0
3174,45.0,40,100,13.0,0.0
3175,66.0,8,30,11.0,0.0
3176,64.0,2,30,10.0,0.0
3177,67.0,5,30,11.0,0.0
3178,60.0,3,30,12.0,0.0
3179,43.0,57,30,13.0,0.0
3180,36.0,0,30,13.0,0.0
3181,36.0,22,120,14.0,0.0
3182,62.0,10,100,10.0,0.0
3183,57.0,38,30,12.0,0.0
3184,41.0,40,100,13.0,0.0
3185,56.0,3,30,12.0,0.0
3186,64.0,7,30,10.0,0.0
3187,55.0,3,30,12.0,0.0
3188,36.0,57,30,13.0,0.0
3189,43.0,0,30,13.0,0.0
3190,36.0,22,120,14.0,0.0
3191,60.0,10,100,10.0,0.0
3192,53.0,38,30,12.0,0.0
3193,45.0,47,100,13.0,0.0
3194,54.0,3,30,12.0,0.0
3195,55.0,3,30,12.0,0.0
3196,46.0,57,30,13.0,0.0
3197,36.0,22,120,14.0,0.0
3198,60.0,10,100,10.0,0.0
3199,53.0,38,30,12.0,0.0
3200,45.0,47,100,13.0,0.0
3201,54.0,3,30,12.0,0.0
3202,55.0,3,30,12.0,0.0
3203,46.0,57,30,13.0,0.0
3204,36.0,22,120,14.0,0.0
3205,60.0,10,100,10.0,0.0
3206,53.0,38,30,12.0,0.0
3207,45.0,40,100,13.0,0.0
3208,54.0,3,30,12.0,0.0
3209,60.0,10,30,10.0,0.0
3210,55.0,68,60,12.0,0.0
3211,46.0,27,30,13.0,0.0
3212,36.0,112,120,14.0,0.0
3213,52.0,143,60,12.0,0.0
3214,71.0,2,30,10.0,0.0
3215,63.0,5,30,11.0,0.0
3216,54.0,3,30,12.0,0.0
3217,47.0,60,30,13.0,0.0
3218,47.0,50,30,13.0,0.0
3219,69.0,2,30,10.0,0.0
3220,64.0,5,30,11.0,0.0
3221,52.0,3,30,12.0,0.0
3222,48.0,50,30,13.0,0.0
3223,71.0,2,30,10.0,0.0
3224,63.0,5,30,11.0,0.0
3225,54.0,3,30,12.0,0.0
3226,47.0,60,30,13.0,0.0
3227,47.0,50,30,13.0,0.0
3228,64.0,2,30,10.0,0.0
3229,59.0,5,30,11.0,0.0
3230,55.0,3,30,12.0,0.0
3231,52.0,50,30,13.0,0.0
3232,71.0,2,30,10.0,0.0
3233,63.0,5,30,11.0,0.0
3234,54.0,3,30,12.0,0.0
3235,47.0,60,30,13.0,0.0
3236,47.0,50,30,13.0,0.0
3237,68.0,2,30,10.0,0.0
3238,64.0,5,30,11.0,0.0
3239,59.0,3,30,12.0,0.0
3240,50.0,50,30,13.0,0.0
3241,69.0,2,30,10.0,0.0
3242,64.0,5,30,11.0,0.0
3243,57.0,3,30,12.0,0.0
3244,48.0,50,30,13.0,0.0
3245,72.0,2,30,10.0,0.0
3246,64.0,5,30,11.0,0.0
3247,57.0,3,30,12.0,0.0
3248,45.0,50,30,13.0,0.0
3249,71.0,2,30,10.0,0.0
3250,63.0,5,30,11.0,0.0
3251,54.0,3,30,12.0,0.0
3252,47.0,50,30,13.0,0.0
3253,64.0,1,30,10.0,0.0
3254,83.0,0,30,0.0,0.0
3255,79.0,1,30,0.0,0.0
3256,64.0,4,30,11.0,0.0
3257,71.0,0,30,2.0,0.0
3258,67.0,1,30,2.0,0.0
3259,55.0,3,30,12.0,0.0
3260,40.0,4,30,13.0,0.0
3261,64.0,47,30,3.0,0.0
3262,83.0,5,30,0.0,0.0
3263,71.0,55,30,2.0,0.0
3264,84.0,5,30,0.0,0.0
3265,81.0,0,30,0.0,0.0
3266,72.0,0,30,2.0,0.0
3267,66.0,8,30,2.0,0.0
3268,63.0,47,30,3.0,0.0
3269,79.0,0,30,0.0,0.0
3270,83.0,5,30,0.0,0.0
3271,67.0,8,30,2.0,0.0
3272,71.0,0,30,2.0,0.0
3273,64.0,47,30,3.0,0.0
3274,83.0,5,30,0.0,0.0
3275,71.0,55,30,2.0,0.0
3276,84.0,5,30,0.0,0.0
3277,88.0,0,30,0.0,0.0
3278,69.0,8,30,2.0,0.0
3279,76.0,0,30,2.0,0.0
3280,57.0,47,30,3.0,0.0
3281,79.0,0,30,0.0,0.0
3282,83.0,5,30,0.0,0.0
3283,71.0,8,30,2.0,0.0
3284,67.0,0,30,2.0,0.0
3285,64.0,47,30,3.0,0.0
3286,83.0,5,30,0.0,0.0
3287,71.0,55,30,2.0,0.0
3288,86.0,0,30,0.0,0.0
3289,83.0,5,30,0.0,0.0
3290,74.0,0,30,2.0,0.0
3291,64.0,8,30,2.0,0.0
3292,56.0,47,30,3.0,0.0
3293,84.0,5,30,0.0,0.0
3294,81.0,0,30,0.0,0.0
3295,72.0,0,30,2.0,0.0
3296,64.0,8,30,2.0,0.0
3297,57.0,47,30,3.0,0.0
3298,81.0,5,30,0.0,0.0
3299,76.0,8,30,2.0,0.0
3300,69.0,0,30,2.0,0.0
3301,60.0,47,30,3.0,0.0
3302,83.0,5,30,0.0,0.0
3303,76.0,0,30,2.0,0.0
3304,68.0,8,30,2.0,0.0
3305,64.0,46,30,3.0,0.0
3306,84.0,1,30,10.0,0.0
3307,84.0,5,30,0.0,0.0
3308,76.0,8,30,2.0,0.0
3309,69.0,0,30,2.0,0.0
3310,45.0,5,120,13.0,0.0
3311,57.0,46,30,3.0,0.0
3312,33.0,15,120,14.0,0.0
3313,83.0,40,30,10.0,0.0
3314,81.0,7,30,10.0,0.0
3315,72.0,53,30,12.0,0.0
3316,76.0,7,30,10.0,0.0
3317,71.0,55,30,12.0,0.0
3318,72.0,5,30,11.0,0.0
3319,69.0,55,30,12.0,0.0
3320,71.0,5,30,11.0,0.0
3321,64.0,55,30,12.0,0.0
3322,69.0,8,30,11.0,0.0
3323,60.0,52,30,13.0,0.0
3324,64.0,8,30,11.0,0.0
3325,59.0,57,30,13.0,0.0
3326,60.0,3,30,12.0,0.0
3327,57.0,57,30,13.0,0.0
3328,59.0,3,30,12.0,0.0
3329,52.0,57,30,13.0,0.0
3330,57.0,60,30,12.0,0.0
3331,52.0,53,30,12.0,0.0
3332,84.0,1,30,10.0,0.0
3333,84.0,5,30,0.0,0.0
3334,76.0,8,30,2.0,0.0
3335,69.0,0,30,2.0,0.0
3336,45.0,5,120,13.0,0.0
3337,57.0,46,30,3.0,0.0
3338,42.0,0,30,3.0,0.0
3339,30.0,15,120,14.0,0.0
3340,83.0,40,30,10.0,0.0
3341,81.0,7,30,10.0,0.0
3342,72.0,53,30,12.0,0.0
3343,76.0,7,30,10.0,0.0
3344,71.0,55,30,12.0,0.0
3345,72.0,5,30,11.0,0.0
3346,69.0,55,30,12.0,0.0
3347,71.0,5,30,11.0,0.0
3348,64.0,55,30,12.0,0.0
3349,69.0,8,30,11.0,0.0
3350,60.0,52,30,13.0,0.0
3351,64.0,8,30,11.0,0.0
3352,59.0,57,30,13.0,0.0
3353,60.0,3,30,12.0,0.0
3354,57.0,57,30,13.0,0.0
3355,59.0,3,30,12.0,0.0
3356,52.0,57,30,13.0,0.0
3357,57.0,60,30,12.0,0.0
3358,52.0,53,30,12.0,0.0
3359,81.0,60,30,10.0,0.0
3360,83.0,5,102,0.0,0.0
3361,71.0,8,102,2.0,0.0
3362,47.0,5,120,13.0,0.0
3363,59.0,14,102,3.0,0.0
3364,35.0,15,120,14.0,0.0
3365,78.0,13,30,10.0,0.0
3366,76.0,2,30,10.0,0.0
3367,69.0,58,30,11.0,0.0
3368,75.0,2,30,10.0,0.0
3369,83.0,5,102,0.0,0.0
3370,66.0,60,30,11.0,0.0
3371,71.0,8,102,2.0,0.0
3372,59.0,36,102,3.0,0.0
3373,64.0,11,30,11.0,0.0
3374,63.0,5,30,11.0,0.0
3375,57.0,60,30,12.0,0.0
3376,54.0,60,30,12.0,0.0
3377,52.0,60,30,12.0,0.0
3378,51.0,53,30,12.0,0.0
3379,79.0,7,30,10.0,0.0
3380,83.0,5,102,0.0,0.0
3381,71.0,8,102,2.0,0.0
3382,52.0,53,30,12.0,0.0
3383,49.0,5,120,13.0,0.0
3384,59.0,14,102,3.0,0.0
3385,37.0,15,120,14.0,0.0
3386,76.0,13,30,10.0,0.0
3387,75.0,2,30,10.0,0.0
3388,67.0,58,30,11.0,0.0
3389,73.0,2,30,10.0,0.0
3390,83.0,5,102,0.0,0.0
3391,64.0,60,30,11.0,0.0
3392,71.0,8,102,2.0,0.0
3393,59.0,36,102,3.0,0.0
3394,63.0,11,30,11.0,0.0
3395,61.0,5,30,11.0,0.0
3396,55.0,60,30,12.0,0.0
3397,52.0,60,30,12.0,0.0
3398,51.0,60,30,12.0,0.0
3399,49.0,53,30,12.0,0.0
3400,78.0,7,30,10.0,0.0
3401,83.0,5,110,0.0,0.0
3402,71.0,8,110,2.0,0.0
3403,54.0,53,30,12.0,0.0
3404,51.0,5,120,13.0,0.0
3405,59.0,6,110,3.0,0.0
3406,39.0,15,120,14.0,0.0
3407,75.0,21,30,10.0,0.0
3408,73.0,2,30,10.0,0.0
3409,83.0,5,230,0.0,0.0
3410,66.0,58,30,11.0,0.0
3411,71.0,8,230,2.0,0.0
3412,59.0,6,230,3.0,0.0
3413,71.0,2,30,10.0,0.0
3414,63.0,60,30,11.0,0.0
3415,61.0,5,30,11.0,0.0
3416,66.0,55,30,12.0,0.0
3417,50.0,5,120,13.0,0.0
3418,38.0,15,120,14.0,0.0
3419,59.0,5,30,11.0,0.0
3420,62.0,14,30,12.0,0.0
3421,78.0,7,30,10.0,0.0
3422,83.0,5,230,0.0,0.0
3423,71.0,8,230,2.0,0.0
3424,61.0,53,30,12.0,0.0
3425,59.0,6,230,3.0,0.0
3426,74.0,7,30,10.0,0.0
3427,59.0,53,30,12.0,0.0
3428,73.0,2,30,10.0,0.0
3429,66.0,58,30,11.0,0.0
3430,44.0,5,120,13.0,0.0
3431,32.0,17,120,14.0,0.0
3432,71.0,2,30,10.0,0.0
3433,62.0,19,30,11.0,0.0
3434,83.0,5,230,0.0,0.0
3435,61.0,60,30,11.0,0.0
3436,71.0,8,230,2.0,0.0
3437,59.0,11,230,3.0,0.0
3438,59.0,139,30,11.0,0.0
3439,59.0,2,360,10.0,0.0
3440,56.0,5,360,11.0,0.0
3441,53.0,104,360,12.0,0.0
3442,49.0,1,700,13.0,0.0
3443,37.0,106,120,14.0,0.0
3444,80.0,5,120,0.0,0.0
3445,83.0,0,120,0.0,0.0
3446,68.0,8,120,2.0,0.0
3447,56.0,106,120,3.0,0.0
3448,87.0,0,230,0.0,0.0
3449,83.0,5,230,0.0,0.0
3450,71.0,0,0,2.0,0.0
3451,75.0,0,230,2.0,0.0
3452,59.0,0,0,3.0,0.0
3453,63.0,116,230,3.0,0.0
3454,65.0,1,240,10.0,0.0
3455,59.0,4,240,11.0,0.0
3456,56.0,7,240,12.0,0.0
3457,82.0,1,120,0.0,0.0
3458,85.0,0,120,0.0,0.0
3459,73.0,1,120,2.0,0.0
3460,70.0,0,120,2.0,0.0
3461,58.0,0,120,3.0,0.0
3462,61.0,91,120,3.0,0.0
3463,68.0,1,105,10.0,0.0
3464,83.0,1,105,0.0,0.0
3465,80.0,0,105,0.0,0.0
3466,65.0,3,105,11.0,0.0
3467,71.0,1,105,2.0,0.0
3468,68.0,0,105,2.0,0.0
3469,59.0,7,105,12.0,0.0
3470,56.0,71,105,3.0,0.0
3471,59.0,0,105,3.0,0.0
3472,70.0,10,102,10.0,0.0
3473,66.0,5,110,11.0,0.0
3474,61.0,13,110,12.0,0.0
3475,42.0,32,60,13.0,0.0
3476,49.0,60,60,13.0,0.0
3477,70.0,38,74,10.0,0.0
3478,66.0,3,110,11.0,0.0
3479,61.0,13,110,12.0,0.0
3480,54.0,4,60,13.0,0.0
3481,61.0,57,60,13.0,0.0
3482,70.0,2,30,10.0,0.0
3483,71.0,10,102,10.0,0.0
3484,66.0,5,110,11.0,0.0
3485,59.0,3,60,12.0,0.0
3486,63.0,32,60,13.0,0.0
3487,63.0,13,50,12.0,0.0
3488,59.0,60,60,13.0,0.0
3489,70.0,10,102,10.0,0.0
3490,66.0,5,110,11.0,0.0
3491,61.0,13,110,12.0,0.0
3492,42.0,32,60,13.0,0.0
3493,49.0,60,60,13.0,0.0
3494,70.0,38,74,10.0,0.0
3495,66.0,3,110,11.0,0.0
3496,61.0,13,110,12.0,0.0
3497,54.0,4,60,13.0,0.0
3498,61.0,52,60,13.0,0.0
3499,70.0,2,30,10.0,0.0
3500,75.0,10,102,10.0,0.0
3501,68.0,8,60,11.0,0.0
3502,65.0,13,110,12.0,0.0
3503,59.0,32,60,13.0,0.0
3504,71.0,5,50,11.0,0.0
3505,56.0,60,60,13.0,0.0
3506,70.0,2,110,10.0,0.0
3507,66.0,3,105,11.0,0.0
3508,61.0,18,105,12.0,0.0
3509,42.0,37,60,13.0,0.0
3510,49.0,50,60,13.0,0.0
3511,70.0,10,60,10.0,0.0
3512,66.0,3,105,11.0,0.0
3513,61.0,18,105,12.0,0.0
3514,54.0,37,60,13.0,0.0
3515,73.0,2,50,10.0,0.0
3516,58.0,50,60,13.0,0.0
3517,71.0,10,60,10.0,0.0
3518,65.0,3,105,11.0,0.0
3519,61.0,18,105,12.0,0.0
3520,56.0,37,60,13.0,0.0
3521,68.0,2,50,10.0,0.0
3522,49.0,60,60,13.0,0.0
3523,70.0,5,102,10.0,0.0
3524,66.0,5,105,11.0,0.0
3525,61.0,18,105,12.0,0.0
3526,42.0,32,60,13.0,0.0
3527,49.0,60,60,13.0,0.0
3528,70.0,7,120,10.0,0.0
3529,66.0,5,150,11.0,0.0
3530,61.0,3,120,12.0,0.0
3531,54.0,50,60,13.0,0.0
3532,61.0,20,60,13.0,0.0
3533,71.0,2,30,10.0,0.0
3534,63.0,33,30,12.0,0.0
3535,66.0,2,60,13.0,0.0
3536,70.0,0,30,10.0,0.0
3537,64.0,5,30,11.0,0.0
3538,61.0,33,30,12.0,0.0
3539,68.0,2,30,10.0,0.0
3540,63.0,5,30,11.0,0.0
3541,59.0,105,30,12.0,0.0
3542,66.0,2,102,10.0,0.0
3543,61.0,5,102,11.0,0.0
3544,58.0,21,102,12.0,0.0
3545,42.0,92,60,13.0,0.0
3546,64.0,2,102,10.0,0.0
3547,59.0,5,102,11.0,0.0
3548,56.0,21,102,12.0,0.0
3549,42.0,92,60,13.0,0.0
3550,61.0,2,102,10.0,0.0
3551,58.0,5,102,11.0,0.0
3552,52.0,21,102,12.0,0.0
3553,42.0,60,60,13.0,0.0
3554,66.0,2,102,10.0,0.0
3555,59.0,5,102,11.0,0.0
3556,51.0,21,102,12.0,0.0
3557,47.0,5,60,13.0,0.0
3558,35.0,27,60,14.0,0.0
3559,42.0,5,60,13.0,0.0
3560,42.0,55,60,14.0,0.0
3561,63.0,2,102,10.0,0.0
3562,59.0,5,102,11.0,0.0
3563,54.0,21,102,12.0,0.0
3564,47.0,5,60,13.0,0.0
3565,47.0,27,60,14.0,0.0
3566,71.0,2,30,10.0,0.0
3567,66.0,5,30,11.0,0.0
3568,63.0,33,30,12.0,0.0
3569,54.0,20,0,13.0,0.0
3570,70.0,0,30,10.0,0.0
3571,64.0,5,30,11.0,0.0
3572,61.0,33,30,12.0,0.0
3573,68.0,2,30,10.0,0.0
3574,63.0,5,30,11.0,0.0
3575,59.0,105,30,12.0,0.0
3576,66.0,2,102,10.0,0.0
3577,61.0,5,102,11.0,0.0
3578,58.0,21,102,12.0,0.0
3579,42.0,92,60,13.0,0.0
3580,64.0,2,102,10.0,0.0
3581,59.0,5,102,11.0,0.0
3582,56.0,21,102,12.0,0.0
3583,42.0,92,60,13.0,0.0
3584,61.0,2,102,10.0,0.0
3585,58.0,5,102,11.0,0.0
3586,52.0,21,102,12.0,0.0
3587,42.0,100,60,13.0,0.0
3588,58.0,2,110,10.0,0.0
3589,55.0,5,110,11.0,0.0
3590,52.0,13,110,12.0,0.0
3591,47.0,5,60,13.0,0.0
3592,35.0,55,60,14.0,0.0
3593,59.0,2,220,10.0,0.0
3594,59.0,5,220,11.0,0.0
3595,51.0,23,220,12.0,0.0
3596,54.0,0,220,12.0,0.0
3597,54.0,5,60,13.0,0.0
3598,42.0,55,60,14.0,0.0
3599,47.0,5,60,13.0,0.0
3600,47.0,55,60,14.0,0.0
3601,51.0,30,60,13.0,0.0
3602,54.0,60,60,13.0,0.0
3603,76.0,2,110,1.0,0.0
3604,73.0,0,110,2.0,0.0
3605,70.0,14,110,2.0,0.0
3606,47.0,44,60,13.0,0.0
3607,54.0,60,60,13.0,0.0
3608,75.0,2,220,1.0,0.0
3609,71.0,24,220,2.0,0.0
3610,75.0,0,220,2.0,0.0
3611,59.0,60,60,13.0,0.0
3612,54.0,60,60,13.0,0.0
3613,47.0,34,60,13.0,0.0
3614,54.0,100,60,13.0,0.0
3615,58.0,2,110,10.0,0.0
3616,55.0,5,110,11.0,0.0
3617,52.0,13,110,12.0,0.0
3618,47.0,5,60,13.0,0.0
3619,35.0,55,60,14.0,0.0
3620,59.0,2,220,10.0,0.0
3621,59.0,5,220,11.0,0.0
3622,51.0,0,220,12.0,0.0
3623,54.0,23,220,12.0,0.0
3624,54.0,5,60,13.0,0.0
3625,42.0,55,60,14.0,0.0
3626,47.0,5,60,13.0,0.0
3627,47.0,55,60,14.0,0.0
3628,51.0,30,60,13.0,0.0
3629,54.0,60,60,13.0,0.0
3630,76.0,2,110,1.0,0.0
3631,70.0,14,110,2.0,0.0
3632,73.0,0,110,2.0,0.0
3633,47.0,44,60,13.0,0.0
3634,54.0,60,60,13.0,0.0
3635,75.0,2,220,1.0,0.0
3636,71.0,0,220,2.0,0.0
3637,75.0,24,220,2.0,0.0
3638,59.0,60,60,13.0,0.0
3639,54.0,60,60,13.0,0.0
3640,47.0,34,60,13.0,0.0
3641,54.0,60,60,13.0,0.0
3642,79.0,2,120,10.0,0.0
3643,76.0,5,120,11.0,0.0
3644,73.0,3,120,12.0,0.0
3645,70.0,0,120,12.0,0.0
3646,47.0,50,60,13.0,0.0
3647,54.0,60,60,13.0,0.0
3648,78.0,2,120,10.0,0.0
3649,75.0,5,120,11.0,0.0
3650,75.0,3,120,12.0,0.0
3651,71.0,0,120,12.0,0.0
3652,59.0,50,60,13.0,0.0
3653,54.0,60,60,13.0,0.0
3654,79.0,2,120,10.0,0.0
3655,76.0,5,120,11.0,0.0
3656,73.0,3,120,12.0,0.0
3657,70.0,0,120,12.0,0.0
3658,47.0,50,60,13.0,0.0
3659,54.0,60,60,13.0,0.0
3660,78.0,2,110,10.0,0.0
3661,75.0,15,110,11.0,0.0
3662,75.0,0,120,12.0,0.0
3663,71.0,3,120,12.0,0.0
3664,59.0,40,60,13.0,0.0
3665,54.0,60,60,13.0,0.0
3666,76.0,2,120,10.0,0.0
3667,67.0,5,120,11.0,0.0
3668,70.0,3,120,12.0,0.0
3669,73.0,0,120,12.0,0.0
3670,47.0,50,60,13.0,0.0
3671,54.0,60,60,13.0,0.0
3672,75.0,2,120,10.0,0.0
3673,66.0,5,120,11.0,0.0
3674,71.0,3,120,12.0,0.0
3675,75.0,0,120,12.0,0.0
3676,59.0,50,60,13.0,0.0
3677,54.0,60,60,13.0,0.0
3678,76.0,2,120,10.0,0.0
3679,67.0,8,120,11.0,0.0
3680,43.0,50,60,13.0,0.0
3681,55.0,6,350,3.0,0.0
3682,59.0,0,350,3.0,0.0
3683,43.0,55,120,14.0,0.0
3684,50.0,5,60,13.0,0.0
3685,74.0,2,180,10.0,0.0
3686,65.0,8,180,11.0,0.0
3687,59.0,60,60,13.0,0.0
3688,55.0,50,60,13.0,0.0
3689,43.0,40,60,13.0,0.0
3690,43.0,45,120,14.0,0.0
3691,76.0,2,50,10.0,0.0
3692,67.0,12,50,11.0,0.0
3693,55.0,5,60,13.0,0.0
3694,74.0,2,60,10.0,0.0
3695,65.0,8,60,11.0,0.0
3696,36.0,50,60,13.0,0.0
3697,55.0,1,120,3.0,0.0
3698,48.0,0,120,3.0,0.0
3699,36.0,45,120,14.0,0.0
3700,72.0,2,60,10.0,0.0
3701,64.0,8,60,11.0,0.0
3702,48.0,4,60,13.0,0.0
3703,71.0,2,60,10.0,0.0
3704,62.0,8,60,11.0,0.0
3705,66.0,3,120,4.0,0.0
3706,66.0,3,120,12.0,0.0
3707,38.0,50,60,13.0,0.0
3708,50.0,0,120,3.0,0.0
3709,60.0,1,120,3.0,0.0
3710,38.0,45,120,14.0,0.0
3711,69.0,2,60,10.0,0.0
3712,60.0,2,60,11.0,0.0
3713,50.0,4,60,13.0,0.0
3714,71.0,2,60,10.0,0.0
3715,62.0,8,60,11.0,0.0
3716,67.0,3,230,4.0,0.0
3717,67.0,13,230,12.0,0.0
3718,43.0,40,60,13.0,0.0
3719,59.0,0,110,3.0,0.0
3720,55.0,6,110,3.0,0.0
3721,43.0,55,120,14.0,0.0
3722,67.0,2,50,10.0,0.0
3723,59.0,12,50,11.0,0.0
3724,50.0,5,60,13.0,0.0
3725,76.0,2,110,10.0,0.0
3726,67.0,2,110,11.0,0.0
3727,47.0,40,60,13.0,0.0
3728,47.0,46,240,3.0,0.0
3729,55.0,0,240,3.0,0.0
3730,35.0,55,120,14.0,0.0
3731,50.0,5,60,13.0,0.0
3732,74.0,2,180,10.0,0.0
3733,65.0,8,180,11.0,0.0
3734,67.0,3,120,4.0,0.0
3735,67.0,3,120,12.0,0.0
3736,55.0,54,60,13.0,0.0
3737,50.0,4,60,13.0,0.0
3738,68.0,3,110,4.0,0.0
3739,68.0,7,110,12.0,0.0
3740,46.0,40,60,13.0,0.0
3741,46.0,6,110,3.0,0.0
3742,56.0,0,110,3.0,0.0
3743,34.0,45,120,14.0,0.0
3744,76.0,2,50,10.0,0.0
3745,64.0,2,50,11.0,0.0
3746,56.0,5,60,13.0,0.0
3747,77.0,2,60,10.0,0.0
3748,62.0,8,60,11.0,0.0
3749,69.0,3,230,4.0,0.0
3750,69.0,7,230,12.0,0.0
3751,45.0,50,60,13.0,0.0
3752,57.0,6,230,3.0,0.0
3753,45.0,0,230,3.0,0.0
3754,33.0,45,120,14.0,0.0
3755,76.0,2,60,10.0,0.0
3756,67.0,8,60,11.0,0.0
3757,57.0,5,60,13.0,0.0
3758,74.0,2,60,10.0,0.0
3759,65.0,48,60,11.0,0.0
3760,73.0,2,50,10.0,0.0
3761,64.0,2,50,11.0,0.0
3762,57.0,110,60,13.0,0.0
3763,74.0,2,120,10.0,0.0
3764,86.0,3,230,0.0,0.0
3765,77.0,0,230,0.0,0.0
3766,62.0,8,120,11.0,0.0
3767,69.0,2,230,4.0,0.0
3768,65.0,0,230,2.0,0.0
3769,74.0,1,230,2.0,0.0
3770,69.0,7,230,12.0,0.0
3771,57.0,0,230,3.0,0.0
3772,50.0,6,230,3.0,0.0
3773,38.0,55,120,14.0,0.0
3774,50.0,5,60,13.0,0.0
3775,43.0,41,60,13.0,0.0
3776,31.0,55,120,14.0,0.0
3777,50.0,5,60,13.0,0.0
3778,77.0,5,180,0.0,0.0
3779,86.0,0,180,0.0,0.0
3780,71.0,2,230,4.0,0.0
3781,74.0,4,180,2.0,0.0
3782,65.0,0,180,2.0,0.0
3783,71.0,7,230,12.0,0.0
3784,55.0,60,60,13.0,0.0
3785,43.0,6,230,3.0,0.0
3786,55.0,0,230,3.0,0.0
3787,50.0,51,60,13.0,0.0
3788,43.0,41,60,13.0,0.0
3789,43.0,46,120,14.0,0.0
3790,88.0,0,50,0.0,0.0
3791,79.0,3,50,0.0,0.0
3792,76.0,1,50,2.0,0.0
3793,67.0,0,50,2.0,0.0
3794,50.0,5,60,13.0,0.0
3795,86.0,5,60,0.0,0.0
3796,77.0,0,60,0.0,0.0
3797,67.0,3,110,4.0,0.0
3798,65.0,0,60,2.0,0.0
3799,74.0,4,60,2.0,0.0
3800,67.0,4,110,12.0,0.0
3801,36.0,44,60,13.0,0.0
3802,55.0,0,120,3.0,0.0
3803,48.0,1,120,3.0,0.0
3804,36.0,46,120,14.0,0.0
3805,76.0,0,60,0.0,0.0
3806,84.0,5,60,0.0,0.0
3807,64.0,0,60,2.0,0.0
3808,72.0,4,60,2.0,0.0
3809,48.0,4,60,13.0,0.0
3810,78.0,1,120,10.0,0.0
3811,74.0,0,60,0.0,0.0
3812,83.0,5,60,0.0,0.0
3813,66.0,2,120,4.0,0.0
3814,62.0,0,60,2.0,0.0
3815,71.0,4,60,2.0,0.0
3816,66.0,3,120,12.0,0.0
3817,38.0,50,60,13.0,0.0
3818,60.0,1,120,3.0,0.0
3819,50.0,0,120,3.0,0.0
3820,38.0,46,120,14.0,0.0
3821,81.0,0,60,0.0,0.0
3822,72.0,3,60,0.0,0.0
3823,69.0,1,60,2.0,0.0
3824,60.0,0,60,2.0,0.0
3825,50.0,4,60,13.0,0.0
3826,79.0,20,170,10.0,0.0
3827,74.0,0,60,0.0,0.0
3828,83.0,5,60,0.0,0.0
3829,67.0,2,230,4.0,0.0
3830,71.0,4,60,2.0,0.0
3831,62.0,0,60,2.0,0.0
3832,67.0,2,230,12.0,0.0
3833,43.0,41,60,13.0,0.0
3834,55.0,0,110,3.0,0.0
3835,59.0,6,110,3.0,0.0
3836,43.0,35,120,14.0,0.0
3837,71.0,0,50,0.0,0.0
3838,79.0,5,50,0.0,0.0
3839,67.0,0,50,2.0,0.0
3840,59.0,8,50,2.0,0.0
3841,50.0,5,60,13.0,0.0
3842,79.0,0,115,0.0,0.0
3843,88.0,1,115,0.0,0.0
3844,67.0,11,115,1.0,0.0
3845,76.0,0,115,1.0,0.0
3846,47.0,44,60,13.0,0.0
3847,47.0,3,350,3.0,0.0
3848,55.0,0,350,3.0,0.0
3849,35.0,35,120,14.0,0.0
3850,79.0,20,110,10.0,0.0
3851,50.0,5,60,13.0,0.0
3852,86.0,3,180,0.0,0.0
3853,77.0,0,180,0.0,0.0
3854,67.0,0,240,4.0,0.0
3855,65.0,6,180,1.0,0.0
3856,74.0,0,180,1.0,0.0
3857,67.0,3,240,12.0,0.0
3858,55.0,60,60,13.0,0.0
3859,79.0,11,110,10.0,0.0
3860,50.0,40,60,13.0,0.0
3861,47.0,46,60,13.0,0.0
3862,35.0,35,120,14.0,0.0
3863,79.0,4,60,10.0,0.0
3864,76.0,3,55,0.0,0.0
3865,88.0,0,55,0.0,0.0
3866,76.0,1,55,1.0,0.0
3867,64.0,0,55,1.0,0.0
3868,50.0,5,60,13.0,0.0
3869,80.0,11,50,10.0,0.0
3870,74.0,3,60,0.0,0.0
3871,89.0,0,60,0.0,0.0
3872,77.0,6,60,1.0,0.0
3873,62.0,0,60,1.0,0.0
3874,68.0,2,110,4.0,0.0
3875,68.0,2,110,12.0,0.0
3876,46.0,44,60,13.0,0.0
3877,50.0,3,350,3.0,0.0
3878,46.0,0,350,3.0,0.0
3879,34.0,35,120,14.0,0.0
3880,80.0,20,110,10.0,0.0
3881,76.0,0,55,0.0,0.0
3882,88.0,1,55,0.0,0.0
3883,76.0,11,55,1.0,0.0
3884,64.0,0,55,1.0,0.0
3885,50.0,5,60,13.0,0.0
3886,77.0,0,180,0.0,0.0
3887,86.0,3,180,0.0,0.0
3888,68.0,0,240,4.0,0.0
3889,65.0,6,180,1.0,0.0
3890,74.0,0,180,1.0,0.0
3891,68.0,3,240,12.0,0.0
3892,58.0,60,60,13.0,0.0
3893,80.0,11,110,10.0,0.0
3894,50.0,40,60,13.0,0.0
3895,46.0,46,60,13.0,0.0
3896,34.0,35,120,14.0,0.0
3897,80.0,4,60,10.0,0.0
3898,88.0,0,55,0.0,0.0
3899,76.0,3,55,0.0,0.0
3900,64.0,0,55,1.0,0.0
3901,76.0,1,55,1.0,0.0
3902,50.0,5,60,13.0,0.0
3903,81.0,11,50,10.0,0.0
3904,74.0,3,60,0.0,0.0
3905,89.0,0,60,0.0,0.0
3906,69.0,2,110,4.0,0.0
3907,77.0,0,60,1.0,0.0
3908,62.0,6,60,1.0,0.0
3909,69.0,2,110,12.0,0.0
3910,45.0,44,60,13.0,0.0
3911,57.0,0,230,3.0,0.0
3912,45.0,6,230,3.0,0.0
3913,33.0,35,120,14.0,0.0
3914,81.0,53,110,10.0,0.0
3915,76.0,0,55,0.0,0.0
3916,88.0,1,55,0.0,0.0
3917,64.0,11,55,1.0,0.0
3918,76.0,0,55,1.0,0.0
3919,48.0,5,60,13.0,0.0
3920,86.0,0,102,0.0,0.0
3921,77.0,3,102,0.0,0.0
3922,65.0,0,102,1.0,0.0
3923,69.0,3,350,4.0,0.0
3924,74.0,18,102,1.0,0.0
3925,69.0,4,350,12.0,0.0
3926,81.0,40,100,10.0,0.0
3927,85.0,0,102,0.0,0.0
3928,76.0,3,102,0.0,0.0
3929,64.0,4,102,1.0,0.0
3930,73.0,0,102,1.0,0.0
3931,57.0,30,0,13.0,0.0
3932,45.0,6,110,3.0,0.0
3933,57.0,0,110,3.0,0.0
3934,45.0,45,120,14.0,0.0
3935,82.0,23,40,10.0,0.0
3936,81.0,14,30,10.0,0.0
3937,77.0,10,60,10.0,0.0
3938,74.0,0,120,0.0,0.0
3939,86.0,3,120,0.0,0.0
3940,74.0,0,120,1.0,0.0
3941,62.0,0,120,1.0,0.0
3942,50.0,40,60,13.0,0.0
3943,50.0,6,110,3.0,0.0
3944,57.0,0,110,3.0,0.0
3945,38.0,49,120,14.0,0.0
3946,76.0,4,50,10.0,0.0
3947,57.0,5,60,13.0,0.0
3948,74.0,4,110,10.0,0.0
3949,65.0,3,60,4.0,0.0
3950,65.0,43,60,12.0,0.0
3951,62.0,47,120,13.0,0.0
3952,64.0,3,50,4.0,0.0
3953,64.0,13,50,12.0,0.0
3954,74.0,2,110,10.0,0.0
3955,74.0,48,60,11.0,0.0
3956,62.0,2,810,4.0,0.0
3957,62.0,5,50,12.0,0.0
3958,62.0,47,120,13.0,0.0
3959,72.0,18,50,11.0,0.0
3960,62.0,45,110,12.0,0.0
3961,74.0,2,102,10.0,0.0
3962,71.0,2,102,11.0,0.0
3963,76.0,24,102,1.0,0.0
3964,62.0,21,110,12.0,0.0
3965,72.0,2,102,10.0,0.0
3966,69.0,10,102,11.0,0.0
3967,76.0,24,74,1.0,0.0
3968,62.0,47,0,13.0,0.0
3969,62.0,45,110,12.0,0.0
3970,76.0,16,30,1.0,0.0
3971,71.0,2,102,10.0,0.0
3972,68.0,2,102,11.0,0.0
3973,77.0,24,102,1.0,0.0
3974,62.0,47,0,13.0,0.0
3975,62.0,45,110,12.0,0.0
3976,72.0,2,102,10.0,0.0
3977,69.0,2,102,11.0,0.0
3978,74.0,24,102,1.0,0.0
3979,62.0,47,0,13.0,0.0
3980,62.0,21,110,12.0,0.0
3981,71.0,2,102,10.0,0.0
3982,67.0,10,102,11.0,0.0
3983,74.0,24,74,1.0,0.0
3984,62.0,32,110,12.0,0.0
3985,74.0,16,30,1.0,0.0
3986,69.0,2,92,10.0,0.0
3987,66.0,0,92,11.0,0.0
3988,76.0,24,92,1.0,0.0
3989,62.0,47,0,13.0,0.0
3990,62.0,3,22,12.0,0.0
3991,71.0,2,102,1.0,0.0
3992,67.0,8,102,2.0,0.0
3993,71.0,0,102,2.0,0.0
3994,43.0,36,60,13.0,0.0
3995,55.0,14,102,3.0,0.0
3996,62.0,0,102,3.0,0.0
3997,62.0,11,115,4.0,0.0
3998,50.0,49,60,13.0,0.0
3999,71.0,30,74,1.0,0.0
4000,71.0,8,102,2.0,0.0
4001,67.0,0,102,2.0,0.0
4002,55.0,8,60,13.0,0.0
4003,62.0,0,102,3.0,0.0
4004,55.0,9,102,3.0,0.0
4005,62.0,11,115,4.0,0.0
4006,62.0,49,60,13.0,0.0
4007,71.0,5,36,1.0,0.0
4008,72.0,6,102,1.0,0.0
4009,64.0,0,98,2.0,0.0
4010,67.0,2,98,2.0,0.0
4011,64.0,34,60,13.0,0.0
4012,60.0,0,98,3.0,0.0
4013,55.0,18,98,3.0,0.0
4014,62.0,11,115,4.0,0.0
4015,60.0,49,60,13.0,0.0
4016,71.0,2,102,1.0,0.0
4017,67.0,8,102,2.0,0.0
4018,71.0,0,102,2.0,0.0
4019,43.0,36,60,13.0,0.0
4020,55.0,14,102,3.0,0.0
4021,62.0,0,102,3.0,0.0
4022,62.0,11,115,4.0,0.0
4023,50.0,49,60,13.0,0.0
4024,71.0,30,74,1.0,0.0
4025,71.0,0,102,2.0,0.0
4026,67.0,8,102,2.0,0.0
4027,55.0,8,60,13.0,0.0
4028,55.0,9,102,3.0,0.0
4029,62.0,0,102,3.0,0.0
4030,62.0,11,115,4.0,0.0
4031,62.0,49,60,13.0,0.0
4032,71.0,5,36,1.0,0.0
4033,76.0,6,102,1.0,0.0
4034,66.0,2,98,2.0,0.0
4035,69.0,0,98,2.0,0.0
4036,60.0,34,60,13.0,0.0
4037,60.0,0,98,3.0,0.0
4038,55.0,18,98,3.0,0.0
4039,62.0,11,115,4.0,0.0
4040,57.0,49,60,13.0,0.0
4041,71.0,0,115,1.0,0.0
4042,67.0,7,115,1.0,0.0
4043,67.0,3,120,2.0,0.0
4044,71.0,0,120,2.0,0.0
4045,43.0,49,60,13.0,0.0
4046,55.0,0,115,3.0,0.0
4047,62.0,1,115,3.0,0.0
4048,62.0,5,115,4.0,0.0
4049,50.0,49,60,13.0,0.0
4050,71.0,6,60,1.0,0.0
4051,67.0,11,115,1.0,0.0
4052,55.0,49,60,13.0,0.0
4053,55.0,0,235,3.0,0.0
4054,62.0,1,235,3.0,0.0
4055,62.0,5,115,4.0,0.0
4056,74.0,0,55,1.0,0.0
4057,59.0,49,60,13.0,0.0
4058,72.0,6,60,1.0,0.0
4059,66.0,10,115,1.0,0.0
4060,57.0,49,60,13.0,0.0
4061,69.0,0,55,1.0,0.0
4062,62.0,5,115,4.0,0.0
4063,50.0,49,60,13.0,0.0
4064,67.0,11,115,1.0,0.0
4065,70.0,6,60,1.0,0.0
4066,55.0,49,60,13.0,0.0
4067,62.0,1,235,3.0,0.0
4068,55.0,0,235,3.0,0.0
4069,62.0,5,115,4.0,0.0
4070,74.0,0,55,1.0,0.0
4071,58.0,49,60,13.0,0.0
4072,72.0,6,60,1.0,0.0
4073,66.0,0,115,1.0,0.0
4074,57.0,49,60,13.0,0.0
4075,62.0,11,115,4.0,0.0
4076,69.0,10,55,1.0,0.0
4077,50.0,49,60,13.0,0.0
4078,79.0,3,235,0.0,0.0
4079,82.0,0,235,0.0,0.0
4080,70.0,0,115,1.0,0.0
4081,67.0,11,115,1.0,0.0
4082,70.0,8,235,2.0,0.0
4083,67.0,0,235,2.0,0.0
4084,55.0,49,60,13.0,0.0
4085,55.0,1,235,3.0,0.0
4086,62.0,0,235,3.0,0.0
4087,62.0,2,175,4.0,0.0
4088,50.0,60,60,13.0,0.0
4089,43.0,46,60,13.0,0.0
4090,50.0,51,60,13.0,0.0
4091,79.0,5,115,0.0,0.0
4092,83.0,5,60,0.0,0.0
4093,62.0,2,235,4.0,0.0
4094,71.0,4,60,2.0,0.0
4095,67.0,0,115,2.0,0.0
4096,55.0,46,60,13.0,0.0
4097,55.0,1,235,3.0,0.0
4098,62.0,0,235,3.0,0.0
4099,86.0,0,55,0.0,0.0
4100,74.0,9,55,2.0,0.0
4101,59.0,51,60,13.0,0.0
4102,84.0,5,60,0.0,0.0
4103,78.0,3,115,0.0,0.0
4104,72.0,4,60,2.0,0.0
4105,66.0,8,115,2.0,0.0
4106,57.0,46,60,13.0,0.0
4107,81.0,0,55,0.0,0.0
4108,69.0,0,55,2.0,0.0
4109,50.0,51,60,13.0,0.0
4110,82.0,5,60,0.0,0.0
4111,79.0,0,115,0.0,0.0
4112,62.0,2,235,4.0,0.0
4113,67.0,0,115,2.0,0.0
4114,70.0,4,60,2.0,0.0
4115,55.0,46,60,13.0,0.0
4116,62.0,0,235,3.0,0.0
4117,55.0,1,235,3.0,0.0
4118,86.0,5,55,0.0,0.0
4119,74.0,9,55,2.0,0.0
4120,58.0,51,60,13.0,0.0
4121,78.0,3,115,0.0,0.0
4122,84.0,5,60,0.0,0.0
4123,66.0,0,115,2.0,0.0
4124,72.0,4,60,2.0,0.0
4125,57.0,46,60,13.0,0.0
4126,81.0,0,55,0.0,0.0
4127,69.0,8,55,2.0,0.0
4128,50.0,60,60,13.0,0.0
4129,62.0,11,235,4.0,0.0
4130,55.0,51,60,13.0,0.0
4131,55.0,56,120,3.0,0.0
4132,43.0,4,60,13.0,0.0
4133,79.0,5,0,0.0,0.0
4134,67.0,4,0,2.0,0.0
4135,39.0,49,60,13.0,0.0
4136,55.0,0,360,3.0,0.0
4137,39.0,55,120,14.0,0.0
4138,46.0,5,60,13.0,0.0
4139,91.0,2,120,10.0,0.0
4140,82.0,3,240,0.0,0.0
4141,79.0,5,120,11.0,0.0
4142,70.0,2,240,1.0,0.0
4143,70.0,4,240,2.0,0.0
4144,67.0,3,120,12.0,0.0
4145,51.0,50,60,13.0,0.0
4146,58.0,56,240,3.0,0.0
4147,55.0,60,60,13.0,0.0
4148,82.0,2,110,10.0,0.0
4149,70.0,5,110,11.0,0.0
4150,58.0,4,110,12.0,0.0
4151,58.0,40,60,13.0,0.0
4152,63.0,4,60,13.0,0.0
4153,81.0,2,240,10.0,0.0
4154,81.0,5,360,0.0,0.0
4155,79.0,0,360,0.0,0.0
4156,69.0,5,240,11.0,0.0
4157,69.0,0,360,2.0,0.0
4158,67.0,0,0,2.0,0.0
4159,57.0,3,240,12.0,0.0
4160,36.0,60,60,13.0,0.0
4161,55.0,0,360,3.0,0.0
4162,36.0,55,120,14.0,0.0
4163,45.0,5,60,13.0,0.0
4164,48.0,50,60,13.0,0.0
4165,51.0,60,60,13.0,0.0
4166,87.0,2,240,10.0,0.0
4167,75.0,5,240,11.0,0.0
4168,63.0,3,240,12.0,0.0
4169,57.0,51,60,13.0,0.0
4170,60.0,4,60,13.0,0.0
4171,78.0,0,360,0.0,0.0
4172,81.0,5,360,0.0,0.0
4173,69.0,4,360,2.0,0.0
4174,66.0,0,360,2.0,0.0
4175,38.0,50,60,13.0,0.0
4176,57.0,56,0,3.0,0.0
4177,54.0,56,360,3.0,0.0
4178,38.0,55,120,14.0,0.0
4179,45.0,5,60,13.0,0.0
4180,86.0,2,120,10.0,0.0
4181,74.0,5,120,11.0,0.0
4182,62.0,3,120,12.0,0.0
4183,50.0,50,60,13.0,0.0
4184,54.0,60,60,13.0,0.0
4185,78.0,2,110,10.0,0.0
4186,66.0,5,110,11.0,0.0
4187,54.0,4,110,12.0,0.0
4188,57.0,40,60,13.0,0.0
4189,60.0,4,60,13.0,0.0
4190,79.0,1,120,10.0,0.0
4191,79.0,1,120,0.0,0.0
4192,67.0,4,120,11.0,0.0
4193,67.0,1,120,2.0,0.0
4194,55.0,3,120,12.0,0.0
4195,58.0,50,60,13.0,0.0
4196,55.0,1,120,3.0,0.0
4197,43.0,55,120,14.0,0.0
4198,55.0,4,60,13.0,0.0
4199,70.0,6,120,1.0,0.0
4200,50.0,54,60,13.0,0.0
4201,46.0,60,60,13.0,0.0
4202,82.0,9,120,0.0,0.0
4203,61.0,2,240,1.0,0.0
4204,55.0,51,60,13.0,0.0
4205,61.0,56,240,3.0,0.0
4206,39.0,55,120,14.0,0.0
4207,51.0,5,60,13.0,0.0
4208,91.0,3,240,0.0,0.0
4209,79.0,4,120,2.0,0.0
4210,46.0,54,60,13.0,0.0
4211,43.0,4,60,13.0,0.0
4212,62.0,2,120,1.0,0.0
4213,70.0,4,120,2.0,0.0
4214,55.0,51,60,13.0,0.0
4215,62.0,1,120,3.0,0.0
4216,38.0,55,120,14.0,0.0
4217,50.0,4,60,13.0,0.0
4218,90.0,14,240,0.0,0.0
4219,63.0,1,120,1.0,0.0
4220,71.0,8,120,2.0,0.0
4221,47.0,54,60,13.0,0.0
4222,63.0,107,120,3.0,0.0
4223,43.0,1,55,13.0,0.0
4224,64.0,2,240,1.0,0.0
4225,72.0,8,240,2.0,0.0
4226,38.0,1,710,13.0,0.0
4227,64.0,110,240,3.0,0.0
4228,38.0,106,120,14.0,0.0
4229,88.0,3,120,0.0,0.0
4230,87.0,13,240,0.0,0.0
4231,65.0,10,120,1.0,0.0
4232,81.0,114,360,2.0,0.0
4233,65.0,107,120,3.0,0.0
4234,66.0,2,240,1.0,0.0
4235,66.0,107,120,3.0,0.0
4236,86.0,3,120,0.0,0.0
4237,85.0,120,120,0.0,0.0
4238,69.0,2,240,1.0,0.0
4239,78.0,115,240,2.0,0.0
4240,84.0,3,120,0.0,0.0
4241,50.0,106,350,13.0,0.0
4242,81.0,115,120,0.0,0.0
4243,72.0,1,235,1.0,0.0
4244,78.0,3,115,0.0,0.0
4245,79.0,0,120,0.0,0.0
4246,71.0,15,102,1.0,0.0
4247,62.0,8,115,2.0,0.0
4248,67.0,0,115,2.0,0.0
4249,55.0,1,115,3.0,0.0
4250,43.0,55,120,14.0,0.0
4251,62.0,5,60,13.0,0.0
4252,71.0,43,74,1.0,0.0
4253,62.0,0,115,2.0,0.0
4254,67.0,3,115,2.0,0.0
4255,67.0,8,60,13.0,0.0
4256,55.0,1,115,3.0,0.0
4257,66.0,60,60,13.0,0.0
4258,71.0,5,35,1.0,0.0
4259,72.0,20,102,1.0,0.0
4260,60.0,0,120,2.0,0.0
4261,67.0,4,120,2.0,0.0
4262,64.0,36,60,13.0,0.0
4263,55.0,1,235,3.0,0.0
4264,63.0,60,60,13.0,0.0
4265,63.0,0,115,2.0,0.0
4266,66.0,6,115,2.0,0.0
4267,60.0,51,60,13.0,0.0
4268,43.0,52,120,14.0,0.0
4269,57.0,2,60,12.0,0.0
4270,57.0,5,60,13.0,0.0
4271,71.0,43,74,1.0,0.0
4272,67.0,0,115,2.0,0.0
4273,62.0,3,115,2.0,0.0
4274,62.0,11,60,12.0,0.0
4275,55.0,58,115,3.0,0.0
4276,61.0,2,60,12.0,0.0
4277,71.0,3,35,1.0,0.0
4278,76.0,20,102,1.0,0.0
4279,69.0,0,120,2.0,0.0
4280,66.0,1,120,2.0,0.0
4281,60.0,39,60,12.0,0.0
4282,55.0,1,235,3.0,0.0
4283,57.0,60,60,12.0,0.0
4284,72.0,6,115,2.0,0.0
4285,69.0,0,115,2.0,0.0
4286,54.0,54,60,12.0,0.0
4287,43.0,55,120,14.0,0.0
4288,50.0,2,60,12.0,0.0
4289,50.0,5,60,13.0,0.0
4290,71.0,43,74,1.0,0.0
4291,67.0,3,115,2.0,0.0
4292,71.0,0,115,2.0,0.0
4293,55.0,8,60,13.0,0.0
4294,55.0,1,115,3.0,0.0
4295,54.0,60,60,13.0,0.0
4296,71.0,5,35,1.0,0.0
4297,79.0,0,420,0.0,0.0
4298,83.0,3,420,0.0,0.0
4299,71.0,2,420,4.0,0.0
4300,83.0,0,300,1.0,0.0
4301,79.0,2,300,1.0,0.0
4302,52.0,0,420,5.0,0.0
4303,67.0,4,420,5.0,0.0
4304,71.0,64,300,2.0,0.0
4305,67.0,0,300,2.0,0.0
4306,52.0,60,60,13.0,0.0
4307,52.0,0,420,3.0,0.0
4308,61.0,121,420,3.0,0.0
4309,50.0,120,60,13.0,0.0
4310,49.0,5,120,13.0,0.0
4311,40.0,49,120,14.0,0.0
4312,43.0,51,120,13.0,0.0
4313,71.0,2,195,10.0,0.0
4314,67.0,5,195,11.0,0.0
4315,52.0,158,195,12.0,0.0
4316,61.0,0,195,12.0,0.0
4317,40.0,4,60,13.0,0.0
4318,71.0,2,120,10.0,0.0
4319,67.0,3,120,11.0,0.0
4320,62.0,0,120,12.0,0.0
4321,38.0,2,115,13.0,0.0
4322,72.0,60,60,10.0,0.0
4323,69.0,0,120,11.0,0.0
4324,50.0,53,0,12.0,0.0
4325,60.0,0,120,12.0,0.0
4326,50.0,2,115,13.0,0.0
4327,66.0,2,60,10.0,0.0
4328,67.0,2,100,10.0,0.0
4329,62.0,3,0,11.0,0.0
4330,50.0,3,100,12.0,0.0
4331,59.0,0,100,12.0,0.0
4332,43.0,350,100,13.0,0.0
4333,67.0,1,340,10.0,0.0
4334,62.0,2,340,11.0,0.0
4335,59.0,0,340,12.0,0.0
4336,50.0,3,340,12.0,0.0
4337,43.0,4,340,13.0,0.0
4338,83.0,1,100,0.0,0.0
4339,74.0,0,100,0.0,0.0
4340,74.0,2,100,1.0,0.0
4341,62.0,0,100,4.0,0.0
4342,71.0,0,100,1.0,0.0
4343,79.0,0,100,2.0,0.0
4344,71.0,0,100,2.0,0.0
4345,55.0,1,100,5.0,0.0
4346,67.0,0,100,5.0,0.0
4347,55.0,1,100,3.0,0.0
4348,62.0,0,100,3.0,0.0
4349,31.0,225,100,14.0,0.0
4350,67.0,2,220,10.0,0.0
4351,74.0,0,360,0.0,0.0
4352,83.0,1,360,0.0,0.0
4353,62.0,5,220,11.0,0.0
4354,71.0,2,360,1.0,0.0
4355,62.0,0,360,4.0,0.0
4356,74.0,0,360,1.0,0.0
4357,71.0,0,360,2.0,0.0
4358,79.0,0,360,2.0,0.0
4359,67.0,0,360,5.0,0.0
4360,55.0,1,360,5.0,0.0
4361,59.0,3,220,12.0,0.0
4362,50.0,0,220,12.0,0.0
4363,43.0,5,220,13.0,0.0
4364,62.0,1,360,3.0,0.0
4365,55.0,0,360,3.0,0.0
4366,31.0,125,220,14.0,0.0
4367,67.0,1,120,10.0,0.0
4368,62.0,2,120,11.0,0.0
4369,50.0,0,120,12.0,0.0
4370,59.0,3,120,12.0,0.0
4371,43.0,4,120,13.0,0.0
4372,31.0,240,120,14.0,0.0
