,note,step,duration,channel,velocity
0,60.0,0,120,10.0,80.0
1,60.0,2,120,11.0,96.0
2,60.0,3,120,12.0,80.0
3,48.0,4,120,13.0,80.0
4,36.0,0,120,14.0,80.0
5,48.0,3,120,3.0,76.0
6,60.0,0,120,3.0,76.0
7,59.0,108,60,10.0,85.0
8,59.0,2,60,11.0,102.0
9,59.0,3,60,12.0,85.0
10,47.0,4,60,13.0,85.0
11,47.0,3,60,3.0,81.0
12,59.0,0,60,3.0,81.0
13,35.0,0,60,14.0,85.0
14,60.0,48,60,10.0,87.0
15,60.0,2,60,11.0,104.0
16,60.0,3,60,12.0,87.0
17,48.0,4,60,13.0,87.0
18,36.0,0,60,14.0,87.0
19,48.0,0,60,3.0,83.0
20,60.0,3,60,3.0,83.0
21,61.0,48,120,10.0,90.0
22,61.0,2,120,11.0,108.0
23,61.0,3,120,12.0,90.0
24,49.0,4,120,13.0,90.0
25,37.0,3,120,14.0,90.0
26,49.0,0,120,3.0,86.0
27,61.0,0,120,3.0,86.0
28,60.0,108,60,10.0,95.0
29,60.0,2,60,11.0,114.0
30,60.0,3,60,12.0,95.0
31,48.0,4,60,13.0,95.0
32,60.0,0,60,3.0,91.0
33,48.0,0,60,3.0,91.0
34,36.0,3,60,14.0,95.0
35,61.0,48,50,10.0,97.0
36,61.0,2,50,11.0,116.0
37,61.0,3,50,12.0,97.0
38,49.0,4,50,13.0,97.0
39,61.0,0,50,3.0,93.0
40,49.0,3,50,3.0,93.0
41,37.0,0,50,14.0,97.0
42,65.0,48,60,10.0,110.0
43,65.0,2,60,11.0,127.0
44,65.0,3,60,12.0,110.0
45,53.0,4,60,13.0,110.0
46,41.0,3,60,14.0,110.0
47,65.0,0,60,3.0,106.0
48,53.0,0,60,3.0,106.0
49,68.0,48,60,10.0,105.0
50,68.0,2,60,11.0,126.0
51,68.0,3,60,12.0,105.0
52,56.0,4,60,13.0,105.0
53,56.0,3,60,3.0,101.0
54,68.0,0,60,3.0,101.0
55,44.0,0,60,14.0,105.0
56,67.0,48,60,10.0,100.0
57,67.0,2,60,11.0,120.0
58,67.0,3,60,12.0,100.0
59,55.0,4,60,13.0,100.0
60,43.0,0,60,14.0,100.0
61,67.0,3,60,3.0,96.0
62,55.0,0,60,3.0,96.0
63,65.0,48,60,10.0,95.0
64,65.0,2,60,11.0,114.0
65,65.0,3,60,12.0,95.0
66,53.0,4,60,13.0,95.0
67,65.0,3,60,3.0,91.0
68,41.0,0,60,14.0,95.0
69,53.0,0,60,3.0,91.0
70,67.0,48,60,10.0,105.0
71,67.0,2,60,11.0,126.0
72,67.0,3,60,12.0,105.0
73,55.0,4,60,13.0,105.0
74,43.0,0,60,14.0,105.0
75,55.0,3,60,3.0,101.0
76,67.0,0,60,3.0,101.0
77,65.0,48,60,10.0,98.0
78,65.0,2,60,11.0,118.0
79,65.0,3,60,12.0,98.0
80,53.0,4,60,13.0,98.0
81,53.0,0,60,3.0,94.0
82,65.0,0,60,3.0,94.0
83,41.0,3,60,14.0,98.0
84,63.0,48,60,10.0,93.0
85,63.0,2,60,11.0,110.0
86,63.0,3,60,12.0,93.0
87,51.0,4,60,13.0,93.0
88,51.0,3,60,3.0,89.0
89,63.0,0,60,3.0,89.0
90,39.0,0,60,14.0,93.0
91,61.0,48,50,10.0,86.0
92,61.0,2,50,11.0,103.0
93,61.0,3,50,12.0,86.0
94,49.0,4,50,13.0,86.0
95,61.0,3,50,3.0,82.0
96,37.0,0,50,14.0,86.0
97,49.0,0,50,3.0,82.0
98,60.0,48,120,10.0,100.0
99,60.0,2,120,11.0,120.0
100,60.0,3,120,12.0,100.0
101,48.0,4,120,13.0,100.0
102,60.0,0,120,3.0,96.0
103,48.0,3,120,3.0,96.0
104,36.0,0,120,14.0,100.0
105,59.0,108,60,10.0,100.0
106,59.0,2,60,11.0,120.0
107,59.0,3,60,12.0,100.0
108,47.0,4,60,13.0,100.0
109,47.0,3,60,3.0,96.0
110,35.0,0,60,14.0,100.0
111,59.0,0,60,3.0,96.0
112,60.0,48,60,10.0,100.0
113,60.0,2,60,11.0,120.0
114,60.0,3,60,12.0,100.0
115,48.0,4,60,13.0,100.0
116,60.0,0,60,3.0,96.0
117,48.0,3,60,3.0,96.0
118,36.0,0,60,14.0,100.0
119,61.0,48,120,10.0,100.0
120,61.0,2,120,11.0,120.0
121,61.0,3,120,12.0,100.0
122,49.0,4,120,13.0,100.0
123,49.0,3,120,3.0,96.0
124,61.0,0,120,3.0,96.0
125,37.0,0,120,14.0,100.0
126,60.0,108,60,10.0,100.0
127,60.0,2,60,11.0,120.0
128,60.0,3,60,12.0,100.0
129,48.0,4,60,13.0,100.0
130,36.0,3,60,14.0,100.0
131,60.0,0,60,3.0,96.0
132,48.0,0,60,3.0,96.0
133,61.0,48,50,10.0,95.0
134,61.0,2,50,11.0,114.0
135,61.0,3,50,12.0,95.0
136,49.0,4,50,13.0,95.0
137,61.0,0,50,3.0,91.0
138,37.0,3,50,14.0,95.0
139,49.0,0,50,3.0,91.0
140,58.0,3,60,12.0,94.0
141,46.0,4,60,13.0,94.0
142,46.0,0,60,3.0,90.0
143,58.0,0,60,3.0,90.0
144,34.0,3,60,14.0,94.0
145,58.0,48,120,10.0,72.0
146,58.0,2,120,11.0,86.0
147,56.0,53,60,12.0,93.0
148,44.0,4,60,13.0,93.0
149,44.0,3,60,3.0,89.0
150,56.0,0,60,3.0,89.0
151,32.0,0,60,14.0,93.0
152,55.0,53,60,12.0,91.0
153,43.0,4,60,13.0,91.0
154,31.0,3,60,14.0,91.0
155,43.0,0,60,3.0,87.0
156,55.0,0,60,3.0,87.0
157,53.0,53,60,12.0,90.0
158,41.0,4,60,13.0,90.0
159,41.0,0,60,3.0,86.0
160,29.0,0,60,14.0,90.0
161,53.0,3,60,3.0,86.0
162,60.0,48,120,10.0,68.0
163,60.0,2,120,11.0,81.0
164,60.0,3,180,12.0,89.0
165,48.0,4,180,13.0,89.0
166,36.0,0,180,14.0,89.0
167,48.0,3,180,3.0,85.0
168,60.0,0,180,3.0,85.0
169,65.0,168,60,10.0,100.0
170,65.0,2,60,11.0,100.0
171,53.0,3,60,12.0,100.0
172,49.0,4,60,13.0,100.0
173,65.0,0,60,3.0,96.0
174,37.0,0,60,14.0,100.0
175,53.0,3,60,3.0,96.0
176,64.0,48,180,10.0,100.0
177,64.0,2,180,11.0,100.0
178,52.0,3,180,12.0,100.0
179,48.0,4,180,13.0,100.0
180,64.0,0,180,3.0,96.0
181,52.0,3,180,3.0,96.0
182,36.0,0,180,14.0,100.0
183,46.0,4,60,13.0,100.0
184,34.0,3,60,14.0,100.0
185,60.0,168,240,10.0,100.0
186,60.0,2,240,11.0,100.0
187,48.0,3,240,12.0,100.0
188,44.0,57,180,13.0,100.0
189,60.0,0,240,3.0,96.0
190,48.0,0,240,3.0,96.0
191,32.0,3,180,14.0,100.0
192,65.0,168,60,10.0,100.0
193,65.0,2,60,11.0,100.0
194,53.0,3,60,12.0,100.0
195,49.0,4,60,13.0,100.0
196,37.0,0,60,14.0,100.0
197,53.0,3,60,3.0,96.0
198,65.0,0,60,3.0,96.0
199,68.0,48,180,10.0,100.0
200,68.0,2,180,11.0,100.0
201,56.0,3,180,12.0,100.0
202,48.0,4,180,13.0,100.0
203,36.0,3,180,14.0,100.0
204,68.0,0,180,3.0,96.0
205,56.0,0,180,3.0,96.0
206,64.0,168,60,10.0,100.0
207,64.0,2,60,11.0,100.0
208,52.0,3,60,12.0,100.0
209,49.0,4,60,13.0,100.0
210,52.0,0,60,3.0,96.0
211,64.0,3,60,3.0,96.0
212,37.0,0,60,14.0,100.0
213,68.0,48,180,10.0,100.0
214,68.0,2,180,11.0,100.0
215,56.0,3,180,12.0,100.0
216,48.0,4,180,13.0,100.0
217,56.0,0,180,3.0,96.0
218,36.0,3,180,14.0,100.0
219,68.0,0,180,3.0,96.0
220,65.0,168,60,10.0,100.0
221,65.0,2,60,11.0,100.0
222,53.0,3,60,12.0,100.0
223,49.0,4,60,13.0,100.0
224,37.0,0,60,14.0,100.0
225,65.0,0,60,3.0,96.0
226,53.0,3,60,3.0,96.0
227,64.0,48,180,10.0,100.0
228,64.0,2,180,11.0,100.0
229,52.0,3,180,12.0,100.0
230,48.0,4,180,13.0,100.0
231,64.0,0,180,3.0,96.0
232,52.0,0,180,3.0,96.0
233,36.0,3,180,14.0,100.0
234,49.0,3,60,12.0,100.0
235,46.0,4,60,13.0,100.0
236,34.0,0,60,14.0,100.0
237,60.0,168,240,10.0,100.0
238,60.0,2,240,11.0,100.0
239,44.0,4,180,13.0,100.0
240,32.0,3,180,14.0,100.0
241,60.0,0,240,3.0,96.0
242,48.0,3,240,3.0,96.0
243,62.0,168,60,10.0,100.0
244,56.0,2,60,11.0,100.0
245,41.0,7,60,13.0,100.0
246,62.0,0,60,3.0,96.0
247,56.0,0,60,3.0,96.0
248,29.0,3,60,14.0,100.0
249,36.0,7,30,13.0,127.0
250,48.0,53,300,12.0,100.0
251,40.0,27,30,13.0,127.0
252,43.0,30,30,13.0,126.0
253,47.0,30,30,13.0,125.0
254,36.0,0,120,14.0,98.0
255,52.0,26,30,12.0,124.0
256,55.0,26,30,12.0,121.0
257,48.0,4,60,13.0,124.0
258,59.0,30,30,12.0,120.0
259,55.0,2,240,11.0,98.0
260,60.0,30,30,12.0,119.0
261,55.0,0,240,3.0,94.0
262,48.0,7,30,13.0,118.0
263,52.0,27,30,13.0,117.0
264,55.0,30,30,13.0,127.0
265,64.0,48,360,10.0,98.0
266,59.0,30,30,13.0,127.0
267,36.0,3,120,14.0,52.0
268,64.0,3,360,3.0,94.0
269,64.0,5,30,12.0,127.0
270,67.0,23,30,12.0,127.0
271,60.0,4,60,13.0,127.0
272,71.0,30,30,12.0,127.0
273,58.0,27,240,11.0,90.0
274,72.0,30,30,12.0,127.0
275,58.0,0,240,3.0,86.0
276,36.0,3,30,13.0,127.0
277,41.0,27,30,13.0,127.0
278,44.0,30,30,13.0,127.0
279,60.0,21,240,10.0,100.0
280,72.0,0,120,0.0,73.0
281,68.0,26,120,0.0,73.0
282,56.0,1,120,11.0,100.0
283,68.0,4,120,2.0,73.0
284,72.0,0,120,2.0,73.0
285,47.0,30,30,13.0,127.0
286,60.0,3,240,3.0,96.0
287,56.0,0,120,3.0,76.0
288,36.0,3,120,14.0,69.0
289,53.0,4,30,12.0,127.0
290,71.0,0,60,0.0,83.0
291,67.0,22,60,0.0,83.0
292,56.0,23,30,12.0,127.0
293,71.0,1,60,2.0,83.0
294,67.0,0,60,2.0,83.0
295,48.0,3,60,13.0,127.0
296,55.0,0,60,3.0,86.0
297,59.0,3,60,3.0,86.0
298,59.0,4,30,12.0,127.0
299,68.0,26,60,0.0,88.0
300,72.0,0,60,0.0,88.0
301,60.0,23,30,12.0,127.0
302,72.0,1,60,2.0,88.0
303,68.0,0,60,2.0,88.0
304,60.0,6,60,3.0,91.0
305,56.0,0,60,3.0,91.0
306,37.0,3,30,13.0,127.0
307,41.0,27,30,13.0,127.0
308,44.0,30,30,13.0,127.0
309,48.0,30,30,13.0,127.0
310,37.0,3,120,14.0,69.0
311,53.0,26,30,12.0,127.0
312,56.0,26,30,12.0,127.0
313,49.0,4,60,13.0,127.0
314,60.0,30,30,12.0,127.0
315,61.0,30,30,12.0,127.0
316,49.0,34,30,13.0,127.0
317,53.0,27,30,13.0,127.0
318,56.0,30,30,13.0,127.0
319,65.0,0,360,0.0,93.0
320,73.0,26,360,0.0,93.0
321,73.0,0,360,2.0,93.0
322,65.0,5,360,2.0,93.0
323,60.0,30,30,13.0,127.0
324,37.0,3,120,14.0,69.0
325,61.0,0,360,3.0,96.0
326,53.0,0,360,3.0,96.0
327,65.0,4,30,12.0,127.0
328,72.0,0,60,0.0,93.0
329,64.0,22,60,0.0,93.0
330,68.0,23,30,12.0,127.0
331,72.0,1,60,2.0,93.0
332,64.0,0,60,2.0,93.0
333,61.0,3,60,13.0,127.0
334,60.0,0,60,3.0,96.0
335,52.0,3,60,3.0,96.0
336,72.0,4,30,12.0,127.0
337,65.0,0,60,0.0,93.0
338,73.0,26,60,0.0,93.0
339,73.0,23,30,12.0,127.0
340,73.0,0,0,2.0,93.0
341,65.0,0,60,2.0,93.0
342,61.0,0,60,3.0,96.0
343,53.0,6,60,3.0,96.0
344,46.0,3,30,13.0,127.0
345,73.0,26,60,0.0,93.0
346,77.0,22,0,0.0,93.0
347,77.0,5,60,2.0,93.0
348,49.0,27,30,13.0,127.0
349,61.0,3,60,3.0,96.0
350,65.0,3,0,3.0,96.0
351,53.0,3,30,13.0,127.0
352,80.0,0,60,0.0,93.0
353,80.0,5,60,2.0,93.0
354,77.0,0,60,2.0,93.0
355,57.0,27,30,13.0,127.0
356,34.0,0,120,14.0,69.0
357,68.0,0,60,3.0,96.0
358,61.0,4,30,12.0,127.0
359,79.0,22,60,0.0,93.0
360,75.0,0,60,0.0,93.0
361,70.0,23,30,12.0,127.0
362,75.0,0,60,2.0,93.0
363,79.0,1,60,2.0,93.0
364,58.0,3,60,13.0,127.0
365,67.0,0,60,3.0,96.0
366,63.0,3,60,3.0,96.0
367,72.0,4,30,12.0,127.0
368,73.0,0,60,0.0,93.0
369,77.0,26,60,0.0,93.0
370,73.0,23,30,12.0,127.0
371,73.0,0,60,2.0,93.0
372,77.0,1,60,2.0,93.0
373,61.0,6,60,3.0,96.0
374,65.0,0,60,3.0,96.0
375,39.0,3,30,13.0,127.0
376,75.0,0,60,0.0,93.0
377,79.0,26,60,0.0,93.0
378,75.0,0,60,2.0,93.0
379,79.0,5,60,2.0,93.0
380,43.0,27,30,13.0,127.0
381,67.0,3,60,3.0,96.0
382,63.0,0,60,3.0,96.0
383,46.0,3,30,13.0,127.0
384,73.0,0,60,0.0,93.0
385,77.0,22,60,0.0,93.0
386,73.0,5,60,2.0,93.0
387,77.0,0,60,2.0,93.0
388,50.0,27,30,13.0,127.0
389,61.0,3,60,3.0,96.0
390,65.0,0,60,3.0,96.0
391,39.0,0,120,14.0,69.0
392,61.0,4,30,12.0,127.0
393,72.0,22,60,0.0,93.0
394,75.0,0,60,0.0,93.0
395,67.0,23,30,12.0,127.0
396,75.0,0,60,2.0,93.0
397,72.0,1,60,2.0,93.0
398,51.0,3,60,13.0,127.0
399,60.0,0,60,3.0,96.0
400,63.0,3,60,3.0,96.0
401,69.0,4,30,12.0,127.0
402,70.0,26,60,0.0,93.0
403,73.0,0,60,0.0,93.0
404,70.0,23,30,12.0,127.0
405,70.0,1,60,2.0,93.0
406,73.0,0,60,2.0,93.0
407,61.0,0,60,3.0,96.0
408,58.0,6,60,3.0,96.0
409,44.0,3,30,13.0,127.0
410,48.0,27,30,13.0,127.0
411,51.0,30,30,13.0,127.0
412,72.0,26,120,0.0,93.0
413,68.0,0,120,0.0,93.0
414,72.0,0,120,2.0,93.0
415,68.0,5,120,2.0,93.0
416,55.0,30,30,13.0,127.0
417,60.0,3,120,3.0,96.0
418,32.0,0,120,14.0,69.0
419,56.0,0,120,3.0,96.0
420,60.0,4,30,12.0,127.0
421,71.0,22,60,0.0,93.0
422,67.0,0,60,0.0,93.0
423,63.0,23,30,12.0,127.0
424,67.0,1,60,2.0,93.0
425,71.0,0,60,2.0,93.0
426,56.0,3,60,13.0,127.0
427,55.0,3,60,3.0,96.0
428,59.0,0,60,3.0,96.0
429,67.0,4,30,12.0,127.0
430,72.0,26,60,0.0,93.0
431,68.0,0,60,0.0,93.0
432,68.0,23,30,12.0,127.0
433,72.0,0,60,2.0,93.0
434,68.0,1,60,2.0,93.0
435,60.0,0,60,3.0,96.0
436,56.0,6,60,3.0,96.0
437,42.0,3,30,13.0,127.0
438,46.0,27,30,13.0,127.0
439,49.0,30,30,13.0,127.0
440,53.0,30,30,13.0,127.0
441,30.0,0,120,14.0,69.0
442,58.0,26,30,12.0,127.0
443,66.0,26,30,12.0,127.0
444,54.0,4,60,13.0,127.0
445,69.0,30,30,12.0,127.0
446,70.0,30,30,12.0,127.0
447,49.0,34,30,13.0,127.0
448,54.0,27,30,13.0,127.0
449,58.0,30,30,13.0,127.0
450,73.0,26,360,0.0,93.0
451,70.0,0,360,0.0,93.0
452,73.0,0,360,2.0,93.0
453,70.0,5,360,2.0,93.0
454,60.0,30,30,13.0,127.0
455,61.0,0,360,3.0,96.0
456,30.0,3,120,14.0,69.0
457,58.0,3,360,3.0,96.0
458,61.0,4,30,12.0,127.0
459,69.0,22,60,0.0,93.0
460,72.0,0,60,0.0,93.0
461,70.0,23,30,12.0,127.0
462,69.0,1,60,2.0,93.0
463,72.0,0,60,2.0,93.0
464,61.0,3,60,13.0,127.0
465,60.0,0,60,3.0,96.0
466,57.0,3,60,3.0,96.0
467,72.0,4,30,12.0,127.0
468,70.0,0,60,0.0,93.0
469,73.0,26,60,0.0,93.0
470,73.0,23,30,12.0,127.0
471,70.0,0,60,2.0,93.0
472,73.0,1,60,2.0,93.0
473,61.0,6,60,3.0,96.0
474,58.0,0,60,3.0,96.0
475,46.0,3,30,13.0,127.0
476,70.0,0,60,0.0,90.0
477,67.0,26,60,0.0,90.0
478,67.0,0,60,2.0,90.0
479,70.0,5,60,2.0,90.0
480,49.0,27,30,13.0,127.0
481,58.0,0,60,3.0,93.0
482,55.0,3,60,3.0,93.0
483,55.0,3,30,13.0,127.0
484,65.0,22,60,0.0,87.0
485,68.0,0,60,0.0,87.0
486,65.0,0,60,2.0,87.0
487,68.0,5,60,2.0,87.0
488,57.0,27,30,13.0,127.0
489,53.0,3,60,3.0,90.0
490,34.0,0,120,14.0,69.0
491,56.0,0,60,3.0,90.0
492,61.0,4,30,12.0,127.0
493,67.0,0,60,0.0,84.0
494,63.0,22,60,0.0,84.0
495,67.0,23,30,12.0,127.0
496,63.0,0,60,2.0,84.0
497,67.0,1,60,2.0,84.0
498,58.0,3,60,13.0,127.0
499,51.0,0,60,3.0,87.0
500,55.0,3,60,3.0,87.0
501,69.0,4,30,12.0,127.0
502,65.0,26,60,0.0,80.0
503,61.0,0,60,0.0,80.0
504,70.0,23,30,12.0,127.0
505,61.0,1,60,2.0,80.0
506,65.0,0,60,2.0,80.0
507,53.0,0,60,3.0,83.0
508,49.0,6,60,3.0,83.0
509,36.0,3,30,13.0,127.0
510,40.0,27,30,13.0,127.0
511,43.0,30,30,13.0,127.0
512,47.0,30,30,13.0,127.0
513,36.0,0,120,14.0,69.0
514,52.0,26,30,12.0,115.0
515,64.0,26,180,0.0,80.0
516,72.0,0,180,0.0,80.0
517,55.0,26,30,12.0,115.0
518,64.0,0,180,2.0,80.0
519,72.0,5,180,2.0,80.0
520,48.0,4,60,13.0,100.0
521,52.0,3,180,3.0,83.0
522,60.0,0,180,3.0,83.0
523,56.0,3,30,12.0,115.0
524,61.0,25,60,10.0,80.0
525,56.0,2,60,11.0,80.0
526,61.0,23,30,12.0,115.0
527,73.0,1,60,2.0,93.0
528,53.0,3,60,13.0,80.0
529,53.0,0,60,3.0,96.0
530,41.0,3,60,14.0,80.0
531,60.0,25,180,10.0,79.0
532,55.0,3,180,12.0,79.0
533,72.0,1,180,2.0,92.0
534,52.0,3,180,13.0,79.0
535,52.0,0,180,3.0,95.0
536,40.0,3,180,14.0,79.0
537,58.0,168,60,10.0,76.0
538,55.0,2,240,11.0,79.0
539,52.0,5,60,12.0,76.0
540,70.0,1,60,2.0,88.0
541,56.0,48,180,10.0,69.0
542,56.0,2,0,11.0,72.0
543,53.0,3,180,12.0,69.0
544,68.0,1,180,2.0,87.0
545,48.0,3,240,13.0,76.0
546,48.0,0,240,3.0,91.0
547,36.0,3,240,14.0,76.0
548,61.0,174,60,10.0,72.0
549,53.0,3,60,12.0,72.0
550,73.0,1,60,2.0,83.0
551,53.0,3,60,13.0,72.0
552,53.0,0,60,3.0,86.0
553,41.0,3,60,14.0,72.0
554,41.0,0,60,3.0,86.0
555,60.0,48,180,10.0,71.0
556,56.0,2,0,11.0,68.0
557,51.0,5,180,12.0,71.0
558,72.0,1,180,2.0,82.0
559,56.0,3,180,13.0,71.0
560,44.0,3,180,3.0,85.0
561,44.0,0,180,14.0,71.0
562,56.0,0,180,3.0,85.0
563,61.0,168,60,10.0,68.0
564,49.0,3,60,12.0,68.0
565,73.0,1,60,2.0,78.0
566,52.0,3,60,13.0,68.0
567,40.0,0,60,3.0,81.0
568,40.0,3,60,14.0,68.0
569,52.0,0,60,3.0,81.0
570,60.0,48,180,10.0,67.0
571,51.0,5,180,12.0,67.0
572,72.0,1,180,2.0,77.0
573,56.0,3,180,13.0,67.0
574,44.0,0,180,14.0,67.0
575,44.0,3,180,3.0,80.0
576,56.0,0,180,3.0,80.0
577,73.0,168,60,10.0,69.0
578,61.0,2,60,11.0,69.0
579,56.0,3,60,12.0,69.0
580,53.0,4,60,13.0,69.0
581,41.0,3,60,14.0,69.0
582,72.0,48,180,10.0,80.0
583,60.0,2,180,11.0,80.0
584,55.0,3,180,12.0,80.0
585,52.0,4,180,13.0,80.0
586,40.0,3,180,14.0,80.0
587,70.0,168,60,10.0,80.0
588,58.0,2,60,11.0,80.0
589,52.0,3,60,12.0,80.0
590,68.0,48,180,10.0,80.0
591,56.0,2,180,11.0,80.0
592,53.0,3,180,12.0,80.0
593,48.0,4,240,13.0,80.0
594,36.0,3,240,14.0,80.0
595,65.0,48,60,10.0,80.0
596,60.0,2,60,11.0,80.0
597,48.0,3,60,12.0,80.0
598,60.0,121,120,2.0,93.0
599,44.0,4,60,13.0,80.0
600,53.0,0,120,3.0,96.0
601,60.0,6,120,3.0,96.0
602,32.0,3,60,14.0,80.0
603,43.0,3,30,13.0,100.0
604,47.0,27,30,13.0,86.0
605,50.0,30,30,13.0,73.0
606,54.0,30,30,13.0,60.0
607,31.0,3,120,14.0,80.0
608,59.0,26,30,12.0,100.0
609,62.0,26,30,12.0,100.0
610,55.0,4,60,13.0,49.0
611,66.0,30,30,12.0,100.0
612,67.0,30,30,12.0,100.0
613,43.0,34,30,13.0,52.0
614,48.0,27,30,13.0,48.0
615,52.0,30,30,13.0,45.0
616,67.0,48,360,10.0,80.0
617,55.0,2,360,11.0,80.0
618,62.0,4,360,2.0,93.0
619,59.0,0,360,2.0,93.0
620,54.0,30,30,13.0,41.0
621,50.0,0,360,3.0,96.0
622,31.0,3,120,14.0,65.0
623,59.0,0,360,3.0,96.0
624,60.0,3,30,12.0,51.0
625,64.0,23,30,12.0,41.0
626,55.0,3,60,13.0,38.0
627,66.0,30,30,12.0,32.0
628,67.0,30,20,12.0,23.0
629,60.0,21,120,10.0,100.0
630,60.0,2,120,11.0,100.0
631,60.0,1,120,2.0,93.0
632,64.0,0,120,2.0,93.0
633,60.0,0,120,3.0,96.0
634,52.0,3,120,3.0,96.0
635,48.0,30,120,12.0,39.0
636,36.0,4,120,13.0,54.0
637,36.0,3,120,14.0,54.0
638,51.0,232,225,7.0,100.0
639,63.0,0,225,7.0,100.0
640,51.0,3,225,8.0,115.0
641,68.0,233,225,10.0,100.0
642,63.0,2,225,11.0,100.0
643,51.0,0,225,4.0,94.0
644,63.0,2,225,4.0,94.0
645,56.0,1,225,12.0,100.0
646,63.0,1,225,2.0,93.0
647,51.0,3,225,13.0,100.0
648,44.0,0,225,13.0,100.0
649,44.0,0,225,3.0,96.0
650,51.0,0,225,3.0,96.0
651,32.0,3,225,14.0,100.0
652,63.0,0,480,7.0,100.0
653,51.0,237,480,7.0,100.0
654,51.0,3,480,8.0,115.0
655,68.0,228,225,10.0,100.0
656,63.0,2,225,11.0,100.0
657,51.0,2,225,4.0,94.0
658,63.0,0,225,4.0,94.0
659,56.0,1,225,12.0,100.0
660,63.0,1,225,2.0,93.0
661,44.0,0,225,13.0,100.0
662,51.0,3,225,13.0,100.0
663,32.0,0,225,14.0,100.0
664,51.0,0,225,3.0,96.0
665,44.0,3,225,3.0,96.0
666,68.0,228,62,10.0,112.0
667,60.0,0,62,11.0,112.0
668,63.0,2,62,11.0,112.0
669,56.0,3,62,12.0,112.0
670,60.0,1,62,2.0,105.0
671,63.0,0,62,2.0,105.0
672,44.0,0,62,13.0,112.0
673,51.0,3,62,13.0,112.0
674,48.0,0,62,3.0,108.0
675,51.0,0,62,3.0,108.0
676,32.0,3,62,14.0,112.0
677,68.0,68,62,10.0,106.0
678,61.0,0,62,11.0,106.0
679,58.0,2,62,11.0,106.0
680,56.0,3,62,12.0,106.0
681,61.0,1,62,2.0,99.0
682,58.0,0,62,2.0,99.0
683,49.0,3,62,13.0,106.0
684,44.0,0,62,13.0,106.0
685,46.0,0,62,3.0,102.0
686,49.0,0,62,3.0,102.0
687,32.0,3,62,14.0,106.0
688,32.0,0,192,3.0,96.0
689,68.0,68,62,10.0,100.0
690,63.0,0,62,11.0,100.0
691,60.0,2,62,11.0,100.0
692,56.0,3,62,12.0,100.0
693,60.0,1,62,2.0,93.0
694,63.0,0,62,2.0,93.0
695,44.0,0,62,13.0,100.0
696,51.0,3,62,13.0,100.0
697,48.0,3,62,3.0,96.0
698,51.0,0,62,3.0,96.0
699,32.0,0,62,14.0,100.0
700,32.0,0,192,3.0,96.0
701,68.0,68,225,10.0,100.0
702,61.0,2,225,11.0,100.0
703,64.0,0,225,11.0,100.0
704,56.0,3,225,12.0,100.0
705,61.0,0,225,2.0,93.0
706,64.0,1,225,2.0,93.0
707,44.0,3,225,13.0,100.0
708,52.0,0,225,13.0,100.0
709,49.0,0,225,3.0,96.0
710,32.0,0,225,14.0,100.0
711,52.0,3,225,3.0,96.0
712,68.0,228,94,10.0,112.0
713,66.0,2,94,11.0,112.0
714,63.0,0,94,11.0,112.0
715,56.0,3,94,12.0,112.0
716,63.0,1,94,2.0,105.0
717,66.0,0,94,2.0,105.0
718,44.0,3,94,13.0,112.0
719,54.0,0,94,13.0,112.0
720,32.0,0,94,14.0,112.0
721,54.0,0,94,3.0,108.0
722,51.0,0,94,3.0,108.0
723,32.0,3,192,3.0,96.0
724,68.0,108,94,10.0,106.0
725,61.0,0,94,11.0,106.0
726,64.0,2,94,11.0,106.0
727,56.0,3,94,12.0,106.0
728,64.0,1,94,2.0,99.0
729,61.0,0,94,2.0,99.0
730,44.0,3,94,13.0,106.0
731,52.0,0,94,13.0,106.0
732,49.0,3,94,3.0,102.0
733,32.0,0,94,14.0,106.0
734,52.0,0,94,3.0,102.0
735,68.0,108,225,10.0,100.0
736,63.0,2,225,11.0,100.0
737,56.0,3,225,12.0,100.0
738,63.0,1,225,2.0,93.0
739,44.0,3,225,13.0,100.0
740,51.0,0,225,13.0,100.0
741,51.0,0,225,3.0,96.0
742,48.0,0,225,3.0,96.0
743,32.0,3,225,14.0,100.0
744,32.0,0,240,3.0,96.0
745,51.0,0,225,7.0,115.0
746,63.0,232,225,7.0,115.0
747,51.0,3,225,8.0,127.0
748,24.0,0,192,3.0,96.0
749,67.0,233,225,10.0,100.0
750,58.0,2,225,11.0,100.0
751,63.0,0,225,11.0,100.0
752,63.0,2,225,4.0,94.0
753,51.0,0,225,4.0,94.0
754,55.0,1,225,12.0,100.0
755,63.0,1,225,2.0,93.0
756,36.0,3,225,13.0,100.0
757,51.0,0,225,13.0,100.0
758,36.0,0,225,14.0,100.0
759,51.0,3,225,3.0,96.0
760,39.0,0,225,3.0,96.0
761,63.0,237,480,7.0,115.0
762,51.0,0,480,7.0,115.0
763,51.0,3,480,8.0,127.0
764,27.0,0,192,3.0,96.0
765,67.0,228,225,10.0,100.0
766,60.0,0,225,11.0,100.0
767,63.0,2,225,11.0,100.0
768,51.0,0,225,4.0,94.0
769,63.0,2,225,4.0,94.0
770,55.0,1,225,12.0,100.0
771,63.0,0,225,2.0,93.0
772,60.0,1,225,2.0,93.0
773,39.0,0,225,13.0,100.0
774,48.0,3,225,13.0,100.0
775,51.0,0,225,3.0,96.0
776,48.0,3,225,3.0,96.0
777,39.0,0,225,14.0,100.0
778,67.0,228,62,10.0,112.0
779,62.0,2,62,11.0,112.0
780,59.0,0,62,11.0,112.0
781,55.0,3,62,12.0,112.0
782,62.0,1,62,2.0,105.0
783,59.0,0,62,2.0,105.0
784,43.0,0,62,13.0,112.0
785,50.0,3,62,13.0,112.0
786,31.0,0,62,14.0,112.0
787,47.0,0,62,3.0,108.0
788,50.0,0,62,3.0,108.0
789,67.0,68,62,10.0,106.0
790,57.0,0,62,11.0,106.0
791,60.0,2,62,11.0,106.0
792,55.0,3,62,12.0,106.0
793,60.0,1,62,2.0,99.0
794,57.0,0,62,2.0,99.0
795,48.0,0,62,13.0,106.0
796,43.0,3,62,13.0,106.0
797,48.0,0,62,3.0,102.0
798,45.0,0,62,3.0,102.0
799,31.0,3,62,14.0,106.0
800,31.0,3,192,3.0,96.0
801,67.0,68,62,10.0,100.0
802,59.0,0,62,11.0,100.0
803,62.0,2,62,11.0,100.0
804,55.0,3,62,12.0,100.0
805,62.0,1,62,2.0,93.0
806,59.0,0,62,2.0,93.0
807,43.0,0,62,13.0,100.0
808,50.0,3,62,13.0,100.0
809,50.0,0,62,3.0,96.0
810,31.0,0,62,14.0,100.0
811,47.0,3,62,3.0,96.0
812,67.0,68,225,10.0,100.0
813,60.0,0,225,11.0,100.0
814,63.0,2,225,11.0,100.0
815,55.0,3,225,12.0,100.0
816,63.0,1,225,2.0,93.0
817,60.0,0,225,2.0,93.0
818,43.0,0,225,13.0,100.0
819,51.0,3,225,13.0,100.0
820,31.0,0,225,3.0,96.0
821,31.0,0,225,14.0,100.0
822,48.0,0,225,3.0,96.0
823,51.0,3,225,3.0,96.0
824,68.0,228,62,10.0,112.0
825,68.0,1,62,0.0,105.0
826,63.0,0,62,11.0,112.0
827,60.0,1,62,11.0,112.0
828,56.0,3,62,12.0,112.0
829,60.0,0,62,2.0,105.0
830,63.0,1,62,2.0,105.0
831,51.0,0,62,13.0,112.0
832,44.0,3,62,13.0,112.0
833,32.0,0,62,14.0,112.0
834,51.0,0,62,3.0,108.0
835,48.0,0,62,3.0,108.0
836,68.0,68,62,10.0,106.0
837,68.0,1,62,0.0,99.0
838,61.0,1,62,11.0,106.0
839,58.0,0,62,11.0,106.0
840,56.0,3,62,12.0,106.0
841,61.0,0,62,2.0,99.0
842,58.0,1,62,2.0,99.0
843,44.0,3,62,13.0,106.0
844,49.0,0,62,13.0,106.0
845,46.0,0,62,3.0,102.0
846,49.0,3,62,3.0,102.0
847,32.0,0,62,14.0,106.0
848,68.0,68,62,10.0,100.0
849,68.0,1,62,0.0,93.0
850,60.0,1,62,11.0,100.0
851,63.0,0,62,11.0,100.0
852,56.0,3,62,12.0,100.0
853,63.0,0,62,2.0,93.0
854,60.0,1,62,2.0,93.0
855,51.0,3,62,13.0,100.0
856,44.0,0,62,13.0,100.0
857,48.0,0,62,3.0,96.0
858,32.0,0,62,14.0,100.0
859,51.0,3,62,3.0,96.0
860,32.0,3,225,3.0,96.0
861,68.0,68,62,10.0,100.0
862,68.0,1,62,0.0,93.0
863,65.0,0,62,11.0,100.0
864,61.0,1,62,11.0,100.0
865,56.0,3,62,12.0,100.0
866,61.0,0,62,2.0,93.0
867,65.0,1,62,2.0,93.0
868,53.0,3,62,13.0,100.0
869,37.0,0,62,13.0,100.0
870,49.0,0,62,3.0,96.0
871,53.0,3,62,3.0,96.0
872,37.0,0,62,14.0,100.0
873,66.0,68,62,10.0,100.0
874,66.0,1,62,0.0,93.0
875,61.0,1,62,11.0,100.0
876,63.0,0,62,11.0,100.0
877,54.0,3,62,12.0,100.0
878,61.0,0,62,2.0,93.0
879,63.0,1,62,2.0,93.0
880,37.0,3,62,13.0,100.0
881,51.0,0,62,13.0,100.0
882,51.0,0,62,3.0,96.0
883,37.0,3,62,14.0,100.0
884,49.0,0,62,3.0,96.0
885,68.0,68,62,10.0,100.0
886,68.0,1,62,0.0,93.0
887,61.0,1,62,11.0,100.0
888,65.0,0,62,11.0,100.0
889,56.0,3,62,12.0,100.0
890,65.0,0,62,2.0,93.0
891,61.0,1,62,2.0,93.0
892,53.0,0,62,13.0,100.0
893,37.0,3,62,13.0,100.0
894,37.0,3,62,14.0,100.0
895,49.0,0,62,3.0,96.0
896,53.0,0,62,3.0,96.0
897,25.0,0,225,3.0,96.0
898,70.0,68,89,10.0,112.0
899,70.0,1,89,0.0,105.0
900,66.0,1,89,11.0,112.0
901,61.0,0,89,11.0,112.0
902,58.0,3,89,12.0,112.0
903,61.0,0,89,2.0,105.0
904,66.0,1,89,2.0,105.0
905,54.0,0,89,13.0,112.0
906,42.0,3,89,13.0,112.0
907,49.0,3,89,3.0,108.0
908,54.0,0,89,3.0,108.0
909,30.0,0,89,14.0,112.0
910,30.0,0,89,3.0,108.0
911,68.0,108,89,10.0,106.0
912,68.0,1,89,0.0,99.0
913,65.0,0,89,11.0,106.0
914,61.0,1,89,11.0,106.0
915,56.0,3,89,12.0,106.0
916,61.0,0,89,2.0,99.0
917,65.0,1,89,2.0,99.0
918,53.0,0,89,13.0,106.0
919,42.0,3,89,13.0,106.0
920,30.0,3,89,14.0,106.0
921,49.0,0,89,3.0,102.0
922,30.0,0,89,3.0,108.0
923,53.0,0,89,3.0,102.0
924,66.0,108,225,10.0,100.0
925,66.0,1,225,0.0,93.0
926,63.0,1,225,11.0,100.0
927,60.0,0,225,11.0,100.0
928,54.0,3,225,12.0,100.0
929,63.0,1,225,2.0,93.0
930,60.0,0,225,2.0,93.0
931,51.0,0,225,13.0,100.0
932,44.0,3,225,13.0,100.0
933,32.0,0,225,3.0,96.0
934,32.0,0,225,14.0,100.0
935,48.0,3,225,3.0,96.0
936,51.0,0,225,3.0,96.0
937,65.0,228,89,10.0,100.0
938,65.0,1,89,0.0,93.0
939,56.0,0,89,11.0,100.0
940,61.0,1,89,11.0,100.0
941,53.0,3,89,12.0,100.0
942,61.0,1,89,2.0,93.0
943,56.0,0,89,2.0,93.0
944,37.0,3,89,13.0,100.0
945,49.0,0,89,13.0,100.0
946,49.0,0,89,3.0,96.0
947,37.0,3,89,14.0,100.0
948,44.0,0,89,3.0,96.0
949,68.0,108,89,10.0,100.0
950,68.0,1,89,0.0,93.0
951,56.0,0,89,11.0,100.0
952,65.0,1,89,11.0,100.0
953,56.0,3,89,12.0,100.0
954,65.0,1,89,2.0,93.0
955,56.0,0,89,2.0,93.0
956,53.0,3,89,13.0,100.0
957,37.0,0,89,13.0,100.0
958,53.0,3,89,3.0,96.0
959,44.0,0,89,3.0,96.0
960,37.0,0,89,14.0,100.0
961,25.0,0,225,3.0,96.0
962,68.0,108,225,10.0,100.0
963,68.0,1,225,0.0,93.0
964,61.0,0,225,11.0,100.0
965,65.0,1,225,11.0,100.0
966,56.0,3,225,12.0,100.0
967,65.0,1,225,2.0,93.0
968,61.0,0,225,2.0,93.0
969,53.0,0,225,13.0,100.0
970,44.0,3,225,13.0,100.0
971,53.0,0,225,3.0,96.0
972,32.0,0,225,3.0,96.0
973,32.0,3,225,14.0,100.0
974,49.0,0,225,3.0,96.0
975,63.0,228,225,10.0,100.0
976,63.0,1,225,0.0,93.0
977,60.0,1,225,11.0,100.0
978,63.0,0,225,11.0,100.0
979,51.0,0,225,7.0,95.0
980,63.0,2,225,7.0,95.0
981,51.0,1,225,12.0,100.0
982,60.0,1,225,2.0,93.0
983,63.0,0,225,2.0,93.0
984,51.0,1,225,8.0,105.0
985,51.0,2,225,13.0,100.0
986,44.0,0,225,13.0,100.0
987,32.0,0,225,3.0,96.0
988,51.0,0,225,3.0,96.0
989,32.0,0,225,14.0,100.0
990,48.0,3,225,3.0,96.0
991,63.0,232,435,7.0,127.0
992,51.0,0,435,7.0,127.0
993,51.0,3,435,8.0,127.0
994,55.0,413,30,10.0,100.0
995,64.0,0,30,10.0,100.0
996,58.0,2,30,11.0,100.0
997,72.0,0,30,6.0,103.0
998,60.0,1,30,6.0,103.0
999,55.0,1,30,7.0,127.0
1000,64.0,0,30,7.0,127.0
1001,48.0,1,30,12.0,100.0
1002,55.0,0,30,12.0,100.0
1003,48.0,2,30,8.0,127.0
1004,48.0,2,30,13.0,100.0
1005,48.0,2,30,15.0,100.0
1006,67.0,0,30,11.0,100.0
1007,58.0,1,30,11.0,100.0
1008,60.0,49,60,10.0,100.0
1009,72.0,1,60,0.0,93.0
1010,60.0,0,60,6.0,127.0
1011,72.0,1,60,6.0,127.0
1012,60.0,1,60,7.0,127.0
1013,48.0,0,60,4.0,121.0
1014,60.0,0,60,1.0,92.0
1015,48.0,1,60,12.0,100.0
1016,67.0,0,60,2.0,93.0
1017,67.0,1,60,5.0,121.0
1018,60.0,0,60,5.0,121.0
1019,58.0,0,60,2.0,93.0
1020,48.0,1,60,8.0,127.0
1021,36.0,2,60,13.0,100.0
1022,48.0,2,60,15.0,100.0
1023,24.0,1,60,3.0,96.0
1024,36.0,0,60,14.0,100.0
1025,67.0,0,30,11.0,100.0
1026,58.0,30,30,11.0,100.0
1027,48.0,0,60,3.0,96.0
1028,36.0,0,60,3.0,96.0
1029,67.0,0,30,11.0,100.0
1030,58.0,40,30,11.0,100.0
1031,58.0,40,30,11.0,100.0
1032,67.0,0,30,11.0,100.0
1033,67.0,0,30,11.0,100.0
1034,58.0,36,30,11.0,100.0
1035,60.0,18,30,10.0,100.0
1036,72.0,0,30,10.0,100.0
1037,60.0,3,30,4.0,121.0
1038,48.0,1,30,12.0,100.0
1039,36.0,4,30,13.0,100.0
1040,58.0,10,30,11.0,100.0
1041,67.0,0,30,11.0,100.0
1042,72.0,1,60,0.0,93.0
1043,60.0,0,60,1.0,92.0
1044,24.0,0,60,3.0,96.0
1045,48.0,0,60,3.0,96.0
1046,36.0,3,60,3.0,96.0
1047,70.0,1,30,11.0,100.0
1048,67.0,0,30,11.0,100.0
1049,85.0,0,60,10.0,100.0
1050,73.0,38,60,10.0,100.0
1051,85.0,1,60,0.0,93.0
1052,79.0,1,60,6.0,127.0
1053,61.0,1,60,4.0,121.0
1054,73.0,0,60,1.0,92.0
1055,61.0,1,60,12.0,100.0
1056,61.0,4,60,13.0,100.0
1057,37.0,0,60,3.0,96.0
1058,67.0,30,30,11.0,100.0
1059,49.0,0,60,14.0,100.0
1060,49.0,0,60,3.0,96.0
1061,61.0,3,60,3.0,96.0
1062,70.0,0,30,11.0,100.0
1063,67.0,4,225,5.0,121.0
1064,67.0,0,225,2.0,120.0
1065,70.0,0,225,2.0,120.0
1066,70.0,0,225,5.0,121.0
1067,70.0,0,30,11.0,100.0
1068,67.0,40,30,11.0,100.0
1069,70.0,40,30,11.0,100.0
1070,67.0,0,30,11.0,100.0
1071,67.0,4,60,2.0,93.0
1072,67.0,0,60,5.0,98.0
1073,70.0,0,60,2.0,93.0
1074,70.0,0,60,5.0,98.0
1075,70.0,0,30,11.0,100.0
1076,67.0,36,30,11.0,100.0
1077,85.0,18,30,10.0,100.0
1078,73.0,0,30,10.0,100.0
1079,61.0,0,30,4.0,121.0
1080,61.0,1,30,12.0,100.0
1081,61.0,4,30,13.0,100.0
1082,67.0,10,30,11.0,100.0
1083,70.0,0,30,11.0,100.0
1084,85.0,1,60,0.0,93.0
1085,73.0,3,60,1.0,92.0
1086,49.0,0,60,3.0,96.0
1087,37.0,0,60,3.0,96.0
1088,61.0,3,60,3.0,96.0
1089,70.0,0,30,11.0,100.0
1090,73.0,1,30,11.0,100.0
1091,92.0,0,60,10.0,100.0
1092,80.0,38,60,10.0,100.0
1093,92.0,1,60,0.0,93.0
1094,80.0,1,60,6.0,127.0
1095,80.0,0,60,1.0,92.0
1096,68.0,1,60,4.0,121.0
1097,68.0,1,60,12.0,100.0
1098,73.0,0,60,2.0,93.0
1099,73.0,1,60,5.0,98.0
1100,70.0,0,60,2.0,93.0
1101,70.0,0,60,5.0,98.0
1102,68.0,3,60,13.0,101.0
1103,56.0,0,60,3.0,96.0
1104,73.0,30,30,11.0,100.0
1105,56.0,3,60,14.0,100.0
1106,44.0,0,60,3.0,96.0
1107,68.0,0,60,3.0,96.0
1108,70.0,0,30,11.0,100.0
1109,73.0,0,30,11.0,100.0
1110,70.0,40,30,11.0,100.0
1111,70.0,40,30,11.0,100.0
1112,73.0,0,30,11.0,100.0
1113,70.0,0,30,11.0,100.0
1114,73.0,36,30,11.0,100.0
1115,92.0,0,30,10.0,100.0
1116,80.0,18,30,10.0,100.0
1117,68.0,3,30,4.0,121.0
1118,68.0,1,30,12.0,100.0
1119,68.0,4,30,13.0,100.0
1120,70.0,10,30,11.0,100.0
1121,73.0,0,30,11.0,100.0
1122,92.0,1,60,0.0,93.0
1123,80.0,0,60,1.0,92.0
1124,56.0,3,60,3.0,96.0
1125,68.0,0,60,3.0,96.0
1126,73.0,1,30,11.0,100.0
1127,82.0,0,30,11.0,100.0
1128,91.0,0,60,10.0,100.0
1129,79.0,38,60,10.0,100.0
1130,91.0,1,60,0.0,93.0
1131,79.0,1,60,6.0,127.0
1132,67.0,1,60,4.0,121.0
1133,79.0,0,60,1.0,92.0
1134,67.0,1,60,12.0,100.0
1135,67.0,4,60,13.0,100.0
1136,55.0,3,60,14.0,100.0
1137,55.0,0,60,3.0,96.0
1138,67.0,0,60,3.0,96.0
1139,73.0,30,30,11.0,100.0
1140,82.0,0,30,11.0,100.0
1141,70.0,0,225,5.0,121.0
1142,82.0,4,225,2.0,120.0
1143,73.0,0,225,2.0,120.0
1144,73.0,0,225,5.0,121.0
1145,73.0,40,30,11.0,100.0
1146,82.0,0,30,11.0,100.0
1147,73.0,1,30,11.0,100.0
1148,82.0,0,30,11.0,100.0
1149,91.0,39,60,0.0,93.0
1150,79.0,2,60,1.0,92.0
1151,73.0,2,60,2.0,93.0
1152,82.0,0,60,2.0,93.0
1153,70.0,0,60,5.0,98.0
1154,73.0,0,60,5.0,98.0
1155,73.0,30,30,11.0,100.0
1156,67.0,6,60,3.0,96.0
1157,82.0,0,30,11.0,100.0
1158,55.0,0,60,3.0,96.0
1159,79.0,0,30,10.0,100.0
1160,91.0,18,30,10.0,100.0
1161,67.0,4,30,4.0,121.0
1162,67.0,1,30,12.0,100.0
1163,67.0,4,30,13.0,100.0
1164,82.0,13,30,11.0,100.0
1165,73.0,0,30,11.0,100.0
1166,60.0,43,120,12.0,77.0
1167,48.0,4,120,13.0,77.0
1168,48.0,0,120,3.0,76.0
1169,60.0,3,120,3.0,76.0
1170,36.0,0,120,14.0,104.0
1171,59.0,113,60,12.0,110.0
1172,47.0,4,60,13.0,110.0
1173,35.0,0,60,14.0,110.0
1174,60.0,0,60,3.0,106.0
1175,48.0,3,0,3.0,101.0
1176,60.0,53,60,12.0,105.0
1177,48.0,4,60,13.0,105.0
1178,36.0,0,60,14.0,105.0
1179,60.0,0,60,3.0,101.0
1180,61.0,53,120,12.0,100.0
1181,49.0,4,120,13.0,100.0
1182,49.0,0,120,3.0,96.0
1183,61.0,3,120,3.0,96.0
1184,37.0,0,120,14.0,100.0
1185,60.0,113,60,12.0,100.0
1186,48.0,4,60,13.0,100.0
1187,36.0,0,60,14.0,100.0
1188,48.0,0,60,3.0,96.0
1189,60.0,3,60,3.0,96.0
1190,61.0,53,50,12.0,100.0
1191,49.0,4,50,13.0,100.0
1192,37.0,0,50,14.0,100.0
1193,61.0,0,50,3.0,96.0
1194,49.0,3,50,3.0,96.0
1195,58.0,53,60,12.0,100.0
1196,46.0,4,60,13.0,100.0
1197,34.0,0,60,14.0,100.0
1198,46.0,3,60,3.0,96.0
1199,58.0,0,60,3.0,96.0
1200,56.0,53,60,12.0,100.0
1201,44.0,4,60,13.0,100.0
1202,32.0,3,60,14.0,100.0
1203,44.0,0,60,3.0,96.0
1204,56.0,0,60,3.0,96.0
1205,55.0,53,60,12.0,100.0
1206,43.0,4,60,13.0,100.0
1207,31.0,0,60,14.0,100.0
1208,43.0,3,60,3.0,96.0
1209,55.0,0,60,3.0,96.0
1210,53.0,53,50,12.0,100.0
1211,41.0,4,50,13.0,100.0
1212,41.0,0,50,3.0,96.0
1213,53.0,0,50,3.0,96.0
1214,29.0,3,50,14.0,100.0
1215,60.0,53,170,12.0,100.0
1216,48.0,4,170,13.0,100.0
1217,48.0,0,170,3.0,96.0
1218,60.0,3,170,3.0,96.0
1219,36.0,0,170,14.0,100.0
1220,73.0,168,60,10.0,80.0
1221,85.0,1,60,0.0,93.0
1222,73.0,1,60,11.0,80.0
1223,85.0,2,60,1.0,92.0
1224,73.0,0,60,1.0,92.0
1225,61.0,1,60,12.0,100.0
1226,85.0,0,60,2.0,93.0
1227,73.0,1,60,2.0,93.0
1228,49.0,3,60,13.0,100.0
1229,37.0,3,60,14.0,100.0
1230,70.0,48,60,10.0,100.0
1231,82.0,1,60,0.0,93.0
1232,70.0,1,60,11.0,100.0
1233,82.0,2,60,1.0,92.0
1234,58.0,1,60,12.0,100.0
1235,82.0,1,60,2.0,93.0
1236,70.0,0,60,2.0,93.0
1237,46.0,3,60,13.0,100.0
1238,34.0,3,60,14.0,100.0
1239,68.0,48,60,10.0,100.0
1240,80.0,1,60,0.0,93.0
1241,68.0,1,60,11.0,100.0
1242,80.0,2,60,1.0,92.0
1243,56.0,1,60,12.0,100.0
1244,68.0,1,60,2.0,93.0
1245,80.0,0,60,2.0,93.0
1246,44.0,3,60,13.0,100.0
1247,32.0,3,60,14.0,100.0
1248,67.0,48,60,10.0,100.0
1249,79.0,1,60,0.0,93.0
1250,67.0,1,60,11.0,100.0
1251,79.0,2,60,1.0,92.0
1252,55.0,1,60,12.0,100.0
1253,67.0,0,60,2.0,93.0
1254,79.0,1,60,2.0,93.0
1255,43.0,3,60,13.0,100.0
1256,31.0,3,60,14.0,100.0
1257,65.0,48,50,10.0,100.0
1258,65.0,1,50,11.0,100.0
1259,53.0,1,50,12.0,100.0
1260,41.0,3,50,13.0,100.0
1261,77.0,1,60,0.0,93.0
1262,29.0,3,50,14.0,100.0
1263,77.0,2,60,1.0,92.0
1264,65.0,1,60,2.0,93.0
1265,77.0,0,60,2.0,93.0
1266,48.0,3,30,15.0,32.0
1267,75.0,1,60,0.0,93.0
1268,75.0,2,60,1.0,92.0
1269,63.0,0,60,2.0,93.0
1270,75.0,1,60,2.0,93.0
1271,48.0,27,30,15.0,33.0
1272,48.0,29,1,15.0,36.0
1273,73.0,22,60,0.0,93.0
1274,73.0,3,60,1.0,92.0
1275,61.0,2,60,2.0,95.0
1276,73.0,0,60,2.0,95.0
1277,48.0,26,4,15.0,43.0
1278,72.0,21,60,0.0,93.0
1279,72.0,3,60,1.0,92.0
1280,72.0,2,60,2.0,97.0
1281,60.0,0,60,2.0,97.0
1282,48.0,28,2,15.0,44.0
1283,70.0,27,55,2.0,100.0
1284,58.0,0,55,3.0,103.0
1285,48.0,3,1,15.0,48.0
1286,48.0,27,0,15.0,49.0
1287,68.0,26,60,2.0,102.0
1288,56.0,3,60,3.0,105.0
1289,48.0,26,4,15.0,56.0
1290,67.0,27,60,2.0,105.0
1291,55.0,6,60,3.0,108.0
1292,48.0,3,30,15.0,58.0
1293,65.0,27,60,2.0,107.0
1294,48.0,29,30,15.0,62.0
1295,53.0,3,60,3.0,110.0
1296,48.0,27,3,15.0,68.0
1297,63.0,25,60,2.0,110.0
1298,51.0,0,60,3.0,113.0
1299,48.0,27,2,15.0,78.0
1300,61.0,27,60,2.0,112.0
1301,49.0,1,60,3.0,115.0
1302,48.0,29,1,15.0,81.0
1303,60.0,27,60,2.0,115.0
1304,48.0,0,60,3.0,118.0
1305,48.0,30,0,15.0,80.0
1306,72.0,48,660,10.0,100.0
1307,72.0,1,660,11.0,100.0
1308,60.0,1,660,12.0,100.0
1309,58.0,25,60,2.0,117.0
1310,60.0,1,0,5.0,94.0
1311,48.0,0,0,5.0,94.0
1312,48.0,0,660,13.0,100.0
1313,36.0,3,660,14.0,100.0
1314,46.0,6,60,3.0,120.0
1315,48.0,2,2,15.0,87.0
1316,64.0,17,30,10.0,100.0
1317,64.0,2,30,11.0,100.0
1318,52.0,3,30,12.0,100.0
1319,46.0,3,30,13.0,100.0
1320,34.0,1,30,14.0,100.0
1321,60.0,0,55,2.0,120.0
1322,48.0,0,55,3.0,123.0
1323,48.0,29,30,15.0,100.0
1324,65.0,19,60,10.0,100.0
1325,77.0,1,60,0.0,93.0
1326,65.0,1,60,11.0,100.0
1327,65.0,2,60,1.0,92.0
1328,60.0,1,60,12.0,100.0
1329,53.0,0,60,5.0,94.0
1330,41.0,0,60,5.0,94.0
1331,41.0,2,120,15.0,120.0
1332,65.0,168,30,10.0,100.0
1333,77.0,1,30,0.0,93.0
1334,65.0,1,30,11.0,100.0
1335,65.0,2,30,1.0,92.0
1336,60.0,1,30,12.0,100.0
1337,53.0,1,30,5.0,94.0
1338,72.0,1,225,2.0,93.0
1339,77.0,0,225,2.0,93.0
1340,45.0,3,225,13.0,100.0
1341,33.0,0,225,3.0,96.0
1342,33.0,0,225,14.0,100.0
1343,53.0,0,225,3.0,96.0
1344,45.0,1,225,3.0,96.0
1345,78.0,54,60,10.0,100.0
1346,78.0,1,60,0.0,93.0
1347,66.0,1,60,11.0,100.0
1348,78.0,2,60,1.0,92.0
1349,61.0,1,60,12.0,100.0
1350,66.0,0,60,5.0,94.0
1351,78.0,168,30,10.0,100.0
1352,78.0,1,30,0.0,93.0
1353,66.0,1,30,11.0,100.0
1354,78.0,2,30,1.0,92.0
1355,61.0,1,30,12.0,100.0
1356,66.0,1,30,5.0,94.0
1357,70.0,1,225,2.0,93.0
1358,73.0,0,225,2.0,93.0
1359,46.0,3,225,13.0,100.0
1360,34.0,0,225,14.0,100.0
1361,46.0,0,225,3.0,96.0
1362,34.0,3,225,3.0,96.0
1363,58.0,0,225,3.0,96.0
1364,85.0,54,60,10.0,100.0
1365,85.0,1,60,0.0,93.0
1366,73.0,1,60,11.0,100.0
1367,85.0,2,60,1.0,92.0
1368,73.0,0,60,1.0,92.0
1369,66.0,1,60,12.0,100.0
1370,85.0,168,30,10.0,100.0
1371,85.0,1,30,0.0,93.0
1372,73.0,1,30,11.0,100.0
1373,73.0,0,30,1.0,92.0
1374,85.0,2,30,1.0,92.0
1375,66.0,1,30,12.0,100.0
1376,84.0,55,60,10.0,100.0
1377,84.0,1,60,0.0,93.0
1378,72.0,1,60,11.0,100.0
1379,84.0,0,60,1.0,92.0
1380,72.0,2,60,1.0,92.0
1381,66.0,1,60,12.0,100.0
1382,78.0,0,345,2.0,93.0
1383,66.0,1,345,2.0,93.0
1384,51.0,3,345,13.0,100.0
1385,51.0,3,345,3.0,96.0
1386,39.0,0,345,3.0,96.0
1387,39.0,0,345,14.0,100.0
1388,27.0,0,345,3.0,96.0
1389,66.0,0,360,5.0,94.0
1390,72.0,48,30,10.0,100.0
1391,72.0,1,30,0.0,93.0
1392,60.0,1,30,11.0,100.0
1393,60.0,0,30,1.0,92.0
1394,72.0,2,30,1.0,92.0
1395,63.0,1,30,12.0,100.0
1396,63.0,1,30,5.0,94.0
1397,75.0,0,105,2.0,93.0
1398,66.0,121,105,2.0,93.0
1399,56.0,3,105,13.0,100.0
1400,44.0,3,105,14.0,100.0
1401,44.0,0,105,3.0,96.0
1402,56.0,0,105,3.0,96.0
1403,32.0,0,105,3.0,96.0
1404,73.0,54,60,10.0,100.0
1405,73.0,1,60,0.0,93.0
1406,61.0,1,60,11.0,100.0
1407,73.0,2,60,1.0,92.0
1408,68.0,1,60,12.0,100.0
1409,68.0,0,60,5.0,94.0
1410,73.0,168,30,10.0,100.0
1411,73.0,1,30,0.0,93.0
1412,61.0,1,30,11.0,100.0
1413,73.0,2,30,1.0,92.0
1414,68.0,1,30,12.0,100.0
1415,68.0,1,30,5.0,94.0
1416,68.0,0,225,2.0,93.0
1417,73.0,1,225,2.0,93.0
1418,53.0,3,225,13.0,100.0
1419,53.0,0,225,3.0,96.0
1420,41.0,0,225,3.0,96.0
1421,41.0,0,225,14.0,100.0
1422,84.0,54,60,10.0,100.0
1423,84.0,1,60,0.0,93.0
1424,72.0,1,60,11.0,100.0
1425,84.0,2,60,1.0,92.0
1426,65.0,1,60,12.0,100.0
1427,84.0,168,30,10.0,100.0
1428,84.0,1,30,0.0,93.0
1429,72.0,1,30,11.0,100.0
1430,84.0,2,30,1.0,92.0
1431,65.0,1,30,12.0,100.0
1432,82.0,55,60,10.0,100.0
1433,82.0,1,60,0.0,93.0
1434,70.0,1,60,11.0,100.0
1435,82.0,2,60,1.0,92.0
1436,65.0,1,60,12.0,100.0
1437,65.0,0,345,2.0,93.0
1438,77.0,0,345,2.0,93.0
1439,49.0,3,345,13.0,100.0
1440,49.0,0,345,3.0,96.0
1441,37.0,0,345,3.0,96.0
1442,37.0,0,345,14.0,100.0
1443,65.0,1,360,5.0,94.0
1444,70.0,48,30,10.0,100.0
1445,70.0,1,30,0.0,93.0
1446,58.0,1,30,11.0,100.0
1447,70.0,2,30,1.0,92.0
1448,61.0,1,30,12.0,100.0
1449,70.0,0,105,2.0,93.0
1450,73.0,121,105,2.0,93.0
1451,55.0,3,105,13.0,100.0
1452,43.0,0,105,3.0,96.0
1453,55.0,0,105,3.0,96.0
1454,43.0,0,105,14.0,100.0
1455,72.0,55,60,10.0,100.0
1456,72.0,1,60,0.0,93.0
1457,60.0,1,60,11.0,100.0
1458,72.0,2,60,1.0,92.0
1459,67.0,1,60,12.0,100.0
1460,60.0,1,60,5.0,94.0
1461,67.0,0,60,5.0,94.0
1462,72.0,168,30,10.0,100.0
1463,72.0,1,30,0.0,93.0
1464,60.0,1,30,11.0,100.0
1465,72.0,2,30,1.0,92.0
1466,67.0,1,30,12.0,100.0
1467,60.0,1,30,5.0,94.0
1468,67.0,0,30,5.0,94.0
1469,72.0,0,225,2.0,93.0
1470,67.0,0,225,2.0,93.0
1471,52.0,3,225,13.0,100.0
1472,52.0,0,225,3.0,96.0
1473,40.0,0,225,3.0,96.0
1474,40.0,3,225,14.0,100.0
1475,82.0,54,60,10.0,100.0
1476,82.0,1,60,0.0,93.0
1477,79.0,0,60,0.0,93.0
1478,70.0,1,60,11.0,100.0
1479,82.0,0,60,1.0,92.0
1480,79.0,0,60,1.0,92.0
1481,64.0,1,60,12.0,100.0
1482,67.0,0,60,12.0,100.0
1483,70.0,0,60,5.0,94.0
1484,70.0,0,60,2.0,93.0
1485,76.0,0,60,2.0,93.0
1486,67.0,1,60,5.0,94.0
1487,48.0,3,105,13.0,100.0
1488,48.0,0,110,4.0,94.0
1489,36.0,2,110,4.0,94.0
1490,36.0,0,105,3.0,96.0
1491,48.0,0,105,3.0,96.0
1492,36.0,0,105,14.0,100.0
1493,79.0,48,30,10.0,100.0
1494,76.0,0,30,0.0,93.0
1495,79.0,1,30,0.0,93.0
1496,67.0,1,30,11.0,100.0
1497,79.0,2,30,1.0,92.0
1498,76.0,0,30,1.0,92.0
1499,64.0,1,30,12.0,100.0
1500,60.0,1,30,5.0,94.0
1501,75.0,0,30,2.0,93.0
1502,67.0,0,30,5.0,94.0
1503,67.0,0,30,2.0,93.0
1504,80.0,54,60,10.0,100.0
1505,77.0,0,60,0.0,93.0
1506,80.0,1,60,0.0,93.0
1507,68.0,1,60,11.0,100.0
1508,80.0,2,60,1.0,92.0
1509,77.0,0,60,1.0,92.0
1510,65.0,1,60,12.0,100.0
1511,68.0,0,60,2.0,93.0
1512,77.0,0,60,2.0,93.0
1513,65.0,0,60,5.0,94.0
1514,68.0,1,60,5.0,94.0
1515,72.0,0,230,6.0,120.0
1516,60.0,111,230,6.0,120.0
1517,60.0,0,230,4.0,94.0
1518,48.0,1,230,4.0,94.0
1519,60.0,5,225,13.0,100.0
1520,48.0,0,225,3.0,96.0
1521,48.0,0,225,14.0,100.0
1522,60.0,0,225,3.0,96.0
1523,77.0,48,30,10.0,100.0
1524,77.0,1,30,0.0,93.0
1525,68.0,0,30,0.0,93.0
1526,65.0,1,30,11.0,100.0
1527,77.0,2,30,1.0,92.0
1528,68.0,0,30,1.0,92.0
1529,68.0,1,30,12.0,100.0
1530,65.0,0,30,5.0,94.0
1531,68.0,0,30,5.0,94.0
1532,77.0,1,30,2.0,93.0
1533,68.0,0,30,2.0,93.0
1534,60.0,1,110,4.0,94.0
1535,60.0,5,105,13.0,100.0
1536,48.0,0,110,4.0,94.0
1537,60.0,0,105,3.0,96.0
1538,48.0,0,105,3.0,96.0
1539,48.0,3,105,14.0,100.0
1540,60.0,0,120,6.0,120.0
1541,72.0,117,120,6.0,120.0
1542,82.0,54,60,10.0,100.0
1543,82.0,0,60,0.0,93.0
1544,79.0,1,60,0.0,93.0
1545,70.0,1,60,11.0,100.0
1546,79.0,0,60,1.0,92.0
1547,82.0,0,60,1.0,92.0
1548,67.0,0,60,12.0,100.0
1549,64.0,1,60,12.0,100.0
1550,70.0,0,60,5.0,94.0
1551,67.0,1,60,5.0,94.0
1552,76.0,0,60,2.0,93.0
1553,70.0,0,60,2.0,93.0
1554,36.0,2,110,4.0,94.0
1555,48.0,0,110,4.0,94.0
1556,48.0,3,105,13.0,100.0
1557,36.0,0,105,3.0,96.0
1558,36.0,0,105,14.0,100.0
1559,48.0,3,105,3.0,96.0
1560,79.0,48,30,10.0,100.0
1561,76.0,0,30,0.0,93.0
1562,79.0,1,30,0.0,93.0
1563,67.0,1,30,11.0,100.0
1564,76.0,2,30,1.0,92.0
1565,79.0,0,30,1.0,92.0
1566,64.0,1,30,12.0,100.0
1567,67.0,0,30,2.0,93.0
1568,76.0,0,30,2.0,93.0
1569,67.0,0,30,5.0,94.0
1570,60.0,1,30,5.0,94.0
1571,80.0,54,60,10.0,100.0
1572,77.0,0,60,0.0,93.0
1573,80.0,1,60,0.0,93.0
1574,68.0,1,60,11.0,100.0
1575,77.0,2,60,1.0,92.0
1576,80.0,0,60,1.0,92.0
1577,65.0,1,60,12.0,100.0
1578,77.0,0,60,2.0,93.0
1579,68.0,1,60,2.0,93.0
1580,65.0,0,60,5.0,94.0
1581,68.0,0,60,5.0,94.0
1582,72.0,0,230,6.0,104.0
1583,60.0,111,230,6.0,104.0
1584,60.0,0,230,4.0,94.0
1585,60.0,5,225,13.0,100.0
1586,48.0,1,230,4.0,94.0
1587,48.0,0,225,3.0,96.0
1588,48.0,0,225,14.0,100.0
1589,60.0,0,225,3.0,96.0
1590,77.0,48,30,10.0,100.0
1591,68.0,1,30,0.0,93.0
1592,77.0,0,30,0.0,93.0
1593,65.0,1,30,11.0,100.0
1594,77.0,0,30,1.0,92.0
1595,68.0,2,30,1.0,92.0
1596,68.0,1,30,12.0,100.0
1597,77.0,0,30,2.0,93.0
1598,68.0,0,30,2.0,93.0
1599,68.0,1,30,5.0,94.0
1600,65.0,0,30,5.0,94.0
1601,60.0,1,110,4.0,94.0
1602,60.0,5,105,13.0,100.0
1603,48.0,0,110,4.0,94.0
1604,48.0,0,105,3.0,96.0
1605,48.0,3,105,14.0,100.0
1606,60.0,0,105,3.0,96.0
1607,60.0,117,120,6.0,104.0
1608,72.0,0,120,6.0,104.0
1609,89.0,54,60,10.0,100.0
1610,89.0,0,60,0.0,93.0
1611,86.0,1,60,0.0,93.0
1612,77.0,1,60,11.0,100.0
1613,74.0,2,60,1.0,92.0
1614,65.0,0,60,4.0,94.0
1615,62.0,0,60,4.0,94.0
1616,77.0,0,60,1.0,92.0
1617,74.0,1,60,12.0,100.0
1618,68.0,0,60,12.0,100.0
1619,74.0,0,60,2.0,93.0
1620,68.0,0,60,2.0,93.0
1621,53.0,3,105,13.0,100.0
1622,65.0,0,110,5.0,94.0
1623,53.0,1,110,5.0,94.0
1624,41.0,0,105,3.0,96.0
1625,53.0,0,105,3.0,96.0
1626,41.0,0,105,14.0,100.0
1627,86.0,48,30,10.0,100.0
1628,86.0,1,30,0.0,93.0
1629,83.0,0,30,0.0,93.0
1630,74.0,1,30,11.0,100.0
1631,65.0,2,30,4.0,94.0
1632,62.0,0,30,4.0,94.0
1633,74.0,0,30,1.0,92.0
1634,71.0,0,30,1.0,92.0
1635,71.0,1,30,12.0,100.0
1636,68.0,1,30,2.0,93.0
1637,71.0,0,30,2.0,93.0
1638,87.0,54,60,10.0,100.0
1639,87.0,0,60,0.0,93.0
1640,84.0,1,60,0.0,93.0
1641,75.0,1,60,11.0,100.0
1642,60.0,0,60,4.0,94.0
1643,72.0,0,60,1.0,92.0
1644,63.0,2,60,4.0,94.0
1645,75.0,0,60,1.0,92.0
1646,69.0,1,60,12.0,100.0
1647,72.0,0,60,12.0,100.0
1648,72.0,0,60,2.0,93.0
1649,69.0,1,60,2.0,93.0
1650,77.0,111,230,6.0,104.0
1651,65.0,0,230,6.0,104.0
1652,65.0,3,225,13.0,100.0
1653,53.0,0,230,5.0,94.0
1654,65.0,3,230,5.0,94.0
1655,53.0,0,225,14.0,100.0
1656,53.0,0,225,3.0,96.0
1657,65.0,0,225,3.0,96.0
1658,84.0,48,30,10.0,100.0
1659,81.0,1,30,0.0,93.0
1660,84.0,0,30,0.0,93.0
1661,72.0,1,30,11.0,100.0
1662,60.0,0,30,4.0,94.0
1663,69.0,0,30,1.0,92.0
1664,72.0,0,30,1.0,92.0
1665,63.0,2,30,4.0,94.0
1666,69.0,1,30,12.0,100.0
1667,72.0,1,30,2.0,93.0
1668,69.0,0,30,2.0,93.0
1669,65.0,3,105,13.0,100.0
1670,65.0,0,110,5.0,94.0
1671,53.0,3,110,5.0,94.0
1672,53.0,0,105,3.0,96.0
1673,65.0,0,105,3.0,96.0
1674,53.0,0,105,14.0,100.0
1675,77.0,117,120,6.0,104.0
1676,65.0,0,120,6.0,104.0
1677,89.0,54,60,10.0,100.0
1678,89.0,1,60,0.0,93.0
1679,86.0,0,60,0.0,93.0
1680,77.0,1,60,11.0,100.0
1681,74.0,0,60,1.0,92.0
1682,77.0,0,60,1.0,92.0
1683,62.0,0,60,4.0,94.0
1684,65.0,2,60,4.0,94.0
1685,74.0,0,60,12.0,100.0
1686,68.0,1,60,12.0,100.0
1687,68.0,1,60,2.0,93.0
1688,74.0,0,60,2.0,93.0
1689,53.0,3,105,13.0,100.0
1690,53.0,0,110,5.0,94.0
1691,65.0,0,110,5.0,94.0
1692,41.0,0,105,14.0,100.0
1693,41.0,0,105,3.0,96.0
1694,53.0,3,105,3.0,96.0
1695,86.0,48,30,10.0,100.0
1696,83.0,1,30,0.0,93.0
1697,86.0,0,30,0.0,93.0
1698,74.0,1,30,11.0,100.0
1699,71.0,2,30,1.0,92.0
1700,65.0,0,30,4.0,94.0
1701,62.0,0,30,4.0,94.0
1702,74.0,0,30,1.0,92.0
1703,71.0,1,30,12.0,100.0
1704,68.0,0,30,2.0,93.0
1705,71.0,1,30,2.0,93.0
1706,87.0,54,60,10.0,100.0
1707,87.0,0,60,0.0,93.0
1708,84.0,1,60,0.0,93.0
1709,75.0,1,60,11.0,100.0
1710,75.0,0,60,1.0,92.0
1711,72.0,2,60,1.0,92.0
1712,63.0,0,60,4.0,94.0
1713,60.0,0,60,4.0,94.0
1714,72.0,0,60,12.0,100.0
1715,69.0,1,60,12.0,100.0
1716,72.0,0,60,2.0,93.0
1717,69.0,1,60,2.0,93.0
1718,65.0,111,230,6.0,104.0
1719,77.0,0,230,6.0,104.0
1720,65.0,3,225,13.0,100.0
1721,65.0,3,230,5.0,94.0
1722,53.0,0,230,5.0,94.0
1723,53.0,0,225,3.0,96.0
1724,65.0,3,225,3.0,96.0
1725,53.0,0,225,14.0,100.0
1726,84.0,48,30,10.0,100.0
1727,81.0,1,30,0.0,93.0
1728,84.0,0,30,0.0,93.0
1729,72.0,1,30,11.0,100.0
1730,72.0,0,30,1.0,92.0
1731,63.0,0,30,4.0,94.0
1732,60.0,0,30,4.0,94.0
1733,69.0,2,30,1.0,92.0
1734,69.0,1,30,12.0,100.0
1735,72.0,1,30,2.0,93.0
1736,69.0,0,30,2.0,93.0
1737,77.0,117,120,6.0,104.0
1738,65.0,0,120,6.0,104.0
1739,87.0,54,60,10.0,100.0
1740,87.0,0,60,0.0,93.0
1741,84.0,1,60,0.0,93.0
1742,75.0,1,60,11.0,100.0
1743,75.0,0,60,1.0,92.0
1744,72.0,0,60,1.0,92.0
1745,72.0,1,60,12.0,100.0
1746,72.0,0,60,2.0,93.0
1747,75.0,1,60,2.0,93.0
1748,65.0,3,225,13.0,100.0
1749,63.0,2,110,4.0,94.0
1750,60.0,0,110,4.0,94.0
1751,53.0,3,230,5.0,94.0
1752,65.0,0,230,5.0,94.0
1753,53.0,0,225,3.0,96.0
1754,65.0,0,225,3.0,96.0
1755,53.0,0,225,14.0,100.0
1756,84.0,48,30,10.0,100.0
1757,75.0,1,30,0.0,93.0
1758,84.0,0,30,0.0,93.0
1759,72.0,1,30,11.0,100.0
1760,63.0,0,30,1.0,92.0
1761,72.0,2,30,1.0,92.0
1762,63.0,1,30,12.0,100.0
1763,63.0,1,30,2.0,93.0
1764,72.0,0,30,2.0,93.0
1765,87.0,54,60,10.0,100.0
1766,84.0,0,60,0.0,93.0
1767,87.0,1,60,0.0,93.0
1768,75.0,1,60,11.0,100.0
1769,72.0,2,60,1.0,92.0
1770,75.0,0,60,1.0,92.0
1771,72.0,1,60,12.0,100.0
1772,72.0,1,60,2.0,93.0
1773,75.0,0,60,2.0,93.0
1774,75.0,117,230,6.0,104.0
1775,72.0,0,230,6.0,104.0
1776,63.0,0,230,4.0,94.0
1777,48.0,1,230,4.0,94.0
1778,66.0,3,225,13.0,100.0
1779,66.0,0,230,5.0,94.0
1780,60.0,2,230,5.0,94.0
1781,66.0,0,225,3.0,96.0
1782,54.0,0,225,3.0,96.0
1783,54.0,3,225,14.0,100.0
1784,84.0,48,30,10.0,100.0
1785,84.0,0,30,0.0,93.0
1786,75.0,1,30,0.0,93.0
1787,72.0,1,30,11.0,100.0
1788,63.0,0,30,1.0,92.0
1789,72.0,2,30,1.0,92.0
1790,63.0,1,30,12.0,100.0
1791,72.0,1,30,2.0,93.0
1792,63.0,0,30,2.0,93.0
1793,87.0,54,60,10.0,100.0
1794,87.0,0,60,0.0,93.0
1795,84.0,1,60,0.0,93.0
1796,75.0,1,60,11.0,100.0
1797,72.0,0,60,1.0,92.0
1798,75.0,2,60,1.0,92.0
1799,72.0,1,60,12.0,100.0
1800,72.0,1,60,2.0,93.0
1801,75.0,0,60,2.0,93.0
1802,72.0,117,230,6.0,104.0
1803,75.0,0,230,6.0,104.0
1804,67.0,3,225,13.0,100.0
1805,63.0,1,230,4.0,94.0
1806,48.0,0,230,4.0,94.0
1807,60.0,0,230,5.0,94.0
1808,67.0,2,230,5.0,94.0
1809,55.0,0,225,3.0,96.0
1810,67.0,3,225,3.0,96.0
1811,55.0,0,225,14.0,100.0
1812,84.0,48,30,10.0,100.0
1813,75.0,0,30,0.0,93.0
1814,84.0,1,30,0.0,93.0
1815,72.0,1,30,11.0,100.0
1816,72.0,2,30,1.0,92.0
1817,63.0,0,30,1.0,92.0
1818,63.0,1,30,12.0,100.0
1819,63.0,0,30,2.0,93.0
1820,72.0,1,30,2.0,93.0
1821,87.0,54,60,10.0,100.0
1822,84.0,0,60,0.0,93.0
1823,87.0,1,60,0.0,93.0
1824,75.0,1,60,11.0,100.0
1825,72.0,0,60,1.0,92.0
1826,75.0,2,60,1.0,92.0
1827,72.0,1,60,12.0,100.0
1828,72.0,0,60,2.0,93.0
1829,75.0,1,60,2.0,93.0
1830,75.0,0,230,6.0,104.0
1831,72.0,117,230,6.0,104.0
1832,68.0,3,225,13.0,100.0
1833,63.0,1,230,4.0,94.0
1834,48.0,0,230,4.0,94.0
1835,68.0,0,230,5.0,94.0
1836,60.0,2,230,5.0,94.0
1837,56.0,0,225,3.0,96.0
1838,56.0,0,225,14.0,100.0
1839,68.0,0,225,3.0,96.0
1840,60.0,117,60,6.0,104.0
1841,72.0,0,60,6.0,104.0
1842,63.0,1,60,4.0,94.0
1843,48.0,0,60,4.0,94.0
1844,69.0,2,60,5.0,94.0
1845,60.0,0,60,5.0,94.0
1846,84.0,48,30,10.0,100.0
1847,84.0,1,30,0.0,93.0
1848,75.0,0,30,0.0,93.0
1849,72.0,1,30,11.0,100.0
1850,63.0,0,30,1.0,92.0
1851,72.0,2,30,1.0,92.0
1852,63.0,1,30,12.0,100.0
1853,72.0,0,30,2.0,93.0
1854,63.0,1,30,2.0,93.0
1855,69.0,3,105,13.0,100.0
1856,69.0,0,105,3.0,96.0
1857,57.0,0,105,3.0,96.0
1858,57.0,0,105,14.0,100.0
1859,55.0,54,60,10.0,100.0
1860,55.0,1,60,11.0,100.0
1861,79.0,1,60,6.0,104.0
1862,55.0,1,60,12.0,100.0
1863,67.0,1,60,5.0,94.0
1864,43.0,3,60,13.0,100.0
1865,43.0,0,60,14.0,100.0
1866,43.0,0,60,3.0,96.0
1867,87.0,0,120,0.0,93.0
1868,91.0,1,120,0.0,93.0
1869,79.0,0,120,1.0,92.0
1870,63.0,1,120,4.0,94.0
1871,75.0,0,120,1.0,92.0
1872,67.0,0,120,4.0,94.0
1873,75.0,0,120,2.0,93.0
1874,79.0,0,120,2.0,93.0
1875,67.0,3,120,3.0,96.0
1876,63.0,0,120,3.0,96.0
1877,89.0,0,120,0.0,93.0
1878,86.0,109,120,0.0,93.0
1879,74.0,0,120,1.0,92.0
1880,77.0,0,120,1.0,92.0
1881,65.0,3,120,4.0,94.0
1882,62.0,0,120,4.0,94.0
1883,77.0,2,120,2.0,93.0
1884,74.0,0,120,2.0,93.0
1885,65.0,0,120,3.0,96.0
1886,62.0,6,120,3.0,96.0
1887,79.0,108,60,10.0,87.0
1888,79.0,1,60,11.0,87.0
1889,79.0,1,60,6.0,104.0
1890,91.0,0,60,10.0,87.0
1891,67.0,1,60,12.0,87.0
1892,67.0,3,60,13.0,100.0
1893,55.0,0,60,14.0,100.0
1894,55.0,3,60,3.0,96.0
1895,87.0,1,120,0.0,93.0
1896,84.0,0,120,0.0,93.0
1897,63.0,0,120,4.0,94.0
1898,72.0,1,120,1.0,92.0
1899,60.0,0,120,4.0,94.0
1900,75.0,0,120,1.0,92.0
1901,75.0,0,120,2.0,93.0
1902,72.0,1,120,2.0,93.0
1903,60.0,0,120,3.0,96.0
1904,63.0,0,120,3.0,96.0
1905,86.0,109,120,0.0,93.0
1906,89.0,0,120,0.0,93.0
1907,62.0,0,120,4.0,94.0
1908,77.0,3,120,1.0,92.0
1909,65.0,0,120,4.0,94.0
1910,74.0,0,120,1.0,92.0
1911,74.0,2,120,2.0,93.0
1912,77.0,0,120,2.0,93.0
1913,65.0,0,120,3.0,96.0
1914,62.0,6,120,3.0,96.0
1915,79.0,108,60,10.0,87.0
1916,79.0,1,60,11.0,87.0
1917,79.0,1,60,6.0,104.0
1918,91.0,0,60,10.0,87.0
1919,67.0,1,60,12.0,87.0
1920,67.0,3,60,13.0,100.0
1921,55.0,0,60,14.0,100.0
1922,55.0,0,60,3.0,96.0
1923,84.0,1,120,0.0,93.0
1924,87.0,0,120,0.0,93.0
1925,60.0,1,120,4.0,94.0
1926,72.0,0,120,1.0,92.0
1927,75.0,0,120,1.0,92.0
1928,63.0,0,120,4.0,94.0
1929,75.0,1,120,2.0,93.0
1930,72.0,0,120,2.0,93.0
1931,63.0,3,120,3.0,96.0
1932,60.0,0,120,3.0,96.0
1933,58.0,3,110,4.0,94.0
1934,62.0,0,110,4.0,94.0
1935,86.0,0,120,0.0,93.0
1936,82.0,109,120,0.0,93.0
1937,70.0,0,120,1.0,92.0
1938,74.0,0,120,1.0,92.0
1939,70.0,0,120,2.0,93.0
1940,74.0,2,120,2.0,93.0
1941,62.0,0,120,3.0,96.0
1942,58.0,6,120,3.0,96.0
1943,55.0,108,60,10.0,100.0
1944,55.0,1,60,11.0,100.0
1945,55.0,1,60,12.0,100.0
1946,43.0,3,60,13.0,100.0
1947,31.0,3,60,3.0,96.0
1948,31.0,0,60,14.0,100.0
1949,80.0,0,0,0.0,93.0
1950,84.0,0,120,0.0,93.0
1951,68.0,3,0,1.0,92.0
1952,72.0,2,120,1.0,92.0
1953,68.0,2,0,2.0,93.0
1954,72.0,0,120,2.0,93.0
1955,60.0,0,120,3.0,96.0
1956,56.0,6,0,3.0,96.0
1957,72.0,109,110,0.0,93.0
1958,48.0,0,230,4.0,94.0
1959,60.0,0,110,1.0,92.0
1960,60.0,0,230,4.0,94.0
1961,60.0,0,110,2.0,93.0
1962,68.0,0,230,5.0,94.0
1963,48.0,0,110,3.0,96.0
1964,71.0,0,60,0.0,93.0
1965,79.0,1,60,0.0,93.0
1966,55.0,0,60,4.0,94.0
1967,43.0,0,60,4.0,94.0
1968,59.0,2,60,1.0,92.0
1969,67.0,0,60,1.0,92.0
1970,67.0,0,60,2.0,93.0
1971,67.0,1,60,5.0,94.0
1972,59.0,0,60,2.0,93.0
1973,55.0,0,60,3.0,96.0
1974,43.0,0,60,3.0,96.0
1975,31.0,3,60,3.0,96.0
1976,31.0,0,60,14.0,100.0
1977,79.0,108,120,10.0,100.0
1978,75.0,1,120,11.0,100.0
1979,63.0,1,120,12.0,100.0
1980,67.0,3,120,13.0,100.0
1981,77.0,108,120,10.0,100.0
1982,74.0,2,120,11.0,100.0
1983,62.0,3,120,12.0,100.0
1984,65.0,4,120,13.0,100.0
1985,91.0,1,60,0.0,93.0
1986,79.0,1,60,6.0,104.0
1987,79.0,0,60,1.0,92.0
1988,67.0,1,60,4.0,94.0
1989,55.0,0,60,4.0,94.0
1990,79.0,1,60,2.0,93.0
1991,43.0,0,60,14.0,100.0
1992,67.0,0,60,3.0,96.0
1993,43.0,3,60,3.0,96.0
1994,55.0,0,60,3.0,96.0
1995,75.0,111,120,10.0,100.0
1996,72.0,1,120,11.0,100.0
1997,60.0,1,120,12.0,100.0
1998,63.0,3,120,13.0,100.0
1999,77.0,108,120,10.0,100.0
2000,74.0,2,120,11.0,100.0
2001,62.0,3,120,12.0,100.0
2002,65.0,4,120,13.0,100.0
2003,91.0,1,60,0.0,93.0
2004,79.0,1,60,6.0,104.0
2005,67.0,0,60,4.0,94.0
2006,55.0,1,60,4.0,94.0
2007,79.0,0,60,1.0,92.0
2008,79.0,1,60,2.0,93.0
2009,55.0,3,60,3.0,96.0
2010,43.0,0,60,14.0,100.0
2011,67.0,0,60,3.0,96.0
2012,43.0,0,60,3.0,96.0
2013,75.0,111,120,10.0,100.0
2014,72.0,1,120,11.0,100.0
2015,60.0,1,120,12.0,100.0
2016,63.0,3,120,13.0,100.0
2017,74.0,108,120,10.0,100.0
2018,70.0,2,120,11.0,100.0
2019,58.0,3,120,12.0,100.0
2020,62.0,4,120,13.0,100.0
2021,79.0,1,60,0.0,93.0
2022,67.0,0,60,1.0,92.0
2023,67.0,1,60,2.0,93.0
2024,31.0,0,60,3.0,96.0
2025,43.0,0,60,3.0,96.0
2026,55.0,0,60,3.0,96.0
2027,31.0,3,60,14.0,100.0
2028,72.0,111,120,10.0,100.0
2029,68.0,1,120,11.0,100.0
2030,56.0,1,120,12.0,100.0
2031,60.0,3,120,13.0,100.0
2032,68.0,108,105,10.0,100.0
2033,60.0,2,105,11.0,100.0
2034,48.0,3,105,12.0,100.0
2035,56.0,4,105,13.0,100.0
2036,48.0,2,230,4.0,94.0
2037,60.0,0,230,4.0,94.0
2038,68.0,0,230,5.0,94.0
2039,55.0,1,60,12.0,100.0
2040,67.0,1,60,5.0,94.0
2041,43.0,3,60,13.0,100.0
2042,31.0,0,60,14.0,100.0
2043,31.0,0,60,3.0,96.0
2044,67.0,111,120,10.0,100.0
2045,87.0,0,120,0.0,93.0
2046,91.0,1,120,0.0,93.0
2047,59.0,1,120,11.0,100.0
2048,63.0,0,120,4.0,94.0
2049,67.0,0,120,4.0,94.0
2050,79.0,0,120,1.0,92.0
2051,75.0,2,120,1.0,92.0
2052,75.0,0,120,2.0,93.0
2053,79.0,0,120,2.0,93.0
2054,55.0,3,120,3.0,96.0
2055,51.0,0,120,3.0,96.0
2056,89.0,109,120,0.0,93.0
2057,86.0,0,120,0.0,93.0
2058,65.0,0,120,4.0,94.0
2059,62.0,3,120,4.0,94.0
2060,74.0,0,120,1.0,92.0
2061,77.0,0,120,1.0,92.0
2062,77.0,2,120,2.0,93.0
2063,74.0,0,120,2.0,93.0
2064,53.0,6,120,3.0,96.0
2065,50.0,0,120,3.0,96.0
2066,67.0,1,60,12.0,100.0
2067,55.0,3,60,13.0,100.0
2068,43.0,0,60,14.0,100.0
2069,43.0,3,60,3.0,96.0
2070,87.0,109,120,0.0,93.0
2071,84.0,0,120,0.0,93.0
2072,72.0,0,120,1.0,92.0
2073,63.0,0,120,4.0,94.0
2074,60.0,3,120,4.0,94.0
2075,75.0,0,120,1.0,92.0
2076,72.0,1,120,2.0,93.0
2077,75.0,0,120,2.0,93.0
2078,51.0,0,120,3.0,96.0
2079,48.0,0,120,3.0,96.0
2080,86.0,0,110,0.0,93.0
2081,89.0,109,110,0.0,93.0
2082,65.0,0,110,4.0,94.0
2083,62.0,0,110,4.0,94.0
2084,77.0,3,110,1.0,92.0
2085,74.0,0,110,1.0,92.0
2086,74.0,2,110,2.0,93.0
2087,77.0,0,110,2.0,93.0
2088,53.0,6,110,3.0,96.0
2089,50.0,0,110,3.0,96.0
2090,83.0,1,60,0.0,80.0
2091,91.0,0,60,0.0,80.0
2092,67.0,2,60,4.0,81.0
2093,79.0,0,60,1.0,79.0
2094,59.0,0,60,4.0,81.0
2095,71.0,0,60,1.0,79.0
2096,67.0,1,60,12.0,100.0
2097,71.0,1,60,2.0,80.0
2098,79.0,0,60,2.0,80.0
2099,55.0,3,60,13.0,100.0
2100,43.0,0,60,3.0,83.0
2101,47.0,3,60,3.0,83.0
2102,55.0,0,60,3.0,83.0
2103,43.0,0,60,14.0,100.0
2104,67.0,108,120,10.0,100.0
2105,63.0,1,120,11.0,100.0
2106,65.0,108,120,10.0,100.0
2107,62.0,2,120,11.0,100.0
2108,55.0,2,60,4.0,94.0
2109,55.0,1,60,12.0,100.0
2110,43.0,4,60,13.0,100.0
2111,31.0,0,60,3.0,96.0
2112,55.0,3,60,3.0,96.0
2113,43.0,0,60,3.0,96.0
2114,31.0,0,60,14.0,100.0
2115,63.0,118,120,10.0,100.0
2116,60.0,2,120,11.0,100.0
2117,65.0,108,105,10.0,100.0
2118,62.0,2,105,11.0,100.0
2119,67.0,118,60,10.0,100.0
2120,55.0,2,60,4.0,94.0
2121,55.0,0,60,3.0,96.0
2122,43.0,0,60,3.0,96.0
2123,55.0,4,80,13.0,100.0
2124,59.0,2,120,11.0,85.0
2125,55.0,5,0,12.0,100.0
2126,43.0,3,120,14.0,65.0
2127,67.0,108,20,10.0,100.0
2128,67.0,28,20,10.0,100.0
2129,55.0,1,20,12.0,100.0
2130,41.0,0,60,3.0,96.0
2131,53.0,0,60,3.0,96.0
2132,67.0,31,20,10.0,100.0
2133,55.0,5,20,12.0,100.0
2134,55.0,4,80,4.0,86.0
2135,55.0,4,80,13.0,100.0
2136,41.0,7,120,14.0,65.0
2137,67.0,35,60,10.0,100.0
2138,55.0,1,60,12.0,100.0
2139,52.0,0,60,3.0,96.0
2140,40.0,0,60,3.0,96.0
2141,60.0,4,80,4.0,86.0
2142,60.0,4,80,13.0,100.0
2143,40.0,3,120,14.0,65.0
2144,69.0,31,20,10.0,100.0
2145,57.0,5,20,12.0,100.0
2146,64.0,72,80,4.0,86.0
2147,64.0,5,80,13.0,100.0
2148,69.0,28,20,10.0,100.0
2149,57.0,1,20,12.0,100.0
2150,41.0,0,60,3.0,96.0
2151,53.0,0,60,3.0,96.0
2152,69.0,31,20,10.0,100.0
2153,57.0,5,20,12.0,100.0
2154,62.0,4,65,4.0,86.0
2155,62.0,4,65,13.0,100.0
2156,41.0,7,120,14.0,65.0
2157,62.0,35,60,10.0,100.0
2158,59.0,1,60,12.0,100.0
2159,43.0,0,60,3.0,96.0
2160,55.0,0,60,3.0,96.0
2161,55.0,4,80,4.0,86.0
2162,55.0,4,80,13.0,100.0
2163,43.0,3,120,14.0,65.0
2164,67.0,108,20,10.0,100.0
2165,55.0,5,20,12.0,100.0
2166,67.0,28,20,10.0,100.0
2167,55.0,1,20,12.0,100.0
2168,41.0,0,60,3.0,96.0
2169,53.0,7,60,3.0,96.0
2170,67.0,31,20,10.0,100.0
2171,55.0,5,20,12.0,100.0
2172,55.0,4,80,4.0,86.0
2173,55.0,4,80,13.0,100.0
2174,41.0,0,120,14.0,65.0
2175,67.0,35,60,10.0,100.0
2176,55.0,1,60,12.0,100.0
2177,40.0,0,60,3.0,96.0
2178,52.0,0,60,3.0,96.0
2179,60.0,4,80,4.0,86.0
2180,60.0,4,80,13.0,100.0
2181,40.0,3,120,14.0,65.0
2182,67.0,31,20,10.0,100.0
2183,55.0,5,20,12.0,100.0
2184,67.0,72,80,4.0,86.0
2185,67.0,5,80,13.0,100.0
2186,67.0,28,20,10.0,100.0
2187,55.0,1,20,12.0,100.0
2188,48.0,0,60,3.0,96.0
2189,67.0,31,20,10.0,100.0
2190,55.0,5,20,12.0,100.0
2191,64.0,4,65,4.0,86.0
2192,64.0,4,65,13.0,100.0
2193,36.0,7,120,14.0,65.0
2194,67.0,35,60,10.0,100.0
2195,55.0,1,60,12.0,100.0
2196,47.0,0,60,3.0,96.0
2197,62.0,4,80,4.0,86.0
2198,62.0,4,80,13.0,100.0
2199,35.0,3,120,14.0,65.0
2200,67.0,31,20,10.0,100.0
2201,55.0,5,20,12.0,100.0
2202,60.0,72,80,4.0,86.0
2203,60.0,5,80,13.0,100.0
2204,67.0,28,20,10.0,100.0
2205,55.0,1,20,12.0,100.0
2206,52.0,0,60,3.0,96.0
2207,67.0,31,20,10.0,100.0
2208,55.0,5,20,12.0,100.0
2209,59.0,4,65,4.0,86.0
2210,59.0,4,65,13.0,100.0
2211,40.0,7,120,14.0,65.0
2212,55.0,0,0,3.0,96.0
2213,66.0,35,60,10.0,100.0
2214,57.0,1,60,12.0,100.0
2215,50.0,0,60,3.0,96.0
2216,38.0,3,120,14.0,65.0
2217,69.0,28,20,10.0,100.0
2218,54.0,5,20,12.0,100.0
2219,54.0,80,80,3.0,96.0
2220,69.0,28,20,10.0,100.0
2221,54.0,5,20,12.0,100.0
2222,48.0,0,60,3.0,96.0
2223,69.0,28,20,10.0,100.0
2224,54.0,5,20,12.0,100.0
2225,36.0,7,120,14.0,65.0
2226,57.0,7,80,3.0,96.0
2227,62.0,35,60,10.0,100.0
2228,55.0,5,60,12.0,100.0
2229,47.0,0,60,3.0,96.0
2230,62.0,4,320,4.0,86.0
2231,62.0,4,320,13.0,100.0
2232,50.0,0,120,3.0,96.0
2233,35.0,7,120,14.0,65.0
2234,67.0,31,20,10.0,100.0
2235,55.0,5,20,12.0,100.0
2236,60.0,72,80,4.0,86.0
2237,60.0,5,80,13.0,100.0
2238,67.0,28,20,10.0,100.0
2239,55.0,1,20,12.0,100.0
2240,52.0,0,60,3.0,96.0
2241,67.0,31,20,10.0,100.0
2242,55.0,5,20,12.0,100.0
2243,59.0,4,80,4.0,86.0
2244,59.0,4,80,13.0,100.0
2245,40.0,0,120,14.0,65.0
2246,67.0,35,60,10.0,100.0
2247,57.0,1,60,12.0,100.0
2248,48.0,0,60,3.0,96.0
2249,60.0,4,80,4.0,86.0
2250,60.0,4,80,13.0,100.0
2251,55.0,7,240,3.0,96.0
2252,36.0,3,120,14.0,65.0
2253,66.0,31,20,10.0,100.0
2254,57.0,5,20,12.0,100.0
2255,59.0,72,80,4.0,86.0
2256,59.0,5,80,13.0,100.0
2257,66.0,28,20,10.0,100.0
2258,57.0,1,20,12.0,100.0
2259,50.0,7,60,3.0,96.0
2260,66.0,31,20,10.0,100.0
2261,57.0,5,20,12.0,100.0
2262,57.0,4,65,4.0,86.0
2263,57.0,4,65,13.0,90.0
2264,38.0,0,120,14.0,65.0
2265,54.0,0,120,3.0,96.0
2266,67.0,1,60,11.0,100.0
2267,59.0,1,60,12.0,100.0
2268,43.0,0,60,3.0,96.0
2269,67.0,35,80,10.0,115.0
2270,79.0,1,80,0.0,108.0
2271,67.0,0,80,1.0,107.0
2272,55.0,3,80,3.0,111.0
2273,55.0,4,85,13.0,67.0
2274,55.0,2,120,4.0,86.0
2275,43.0,0,120,14.0,65.0
2276,67.0,110,20,11.0,100.0
2277,55.0,3,20,12.0,100.0
2278,67.0,1,20,11.0,100.0
2279,55.0,1,20,12.0,100.0
2280,41.0,0,60,3.0,96.0
2281,67.0,30,20,11.0,100.0
2282,55.0,3,20,12.0,100.0
2283,67.0,28,80,10.0,100.0
2284,79.0,1,80,0.0,93.0
2285,55.0,0,80,4.0,94.0
2286,67.0,2,80,1.0,92.0
2287,53.0,4,120,13.0,65.0
2288,55.0,7,80,3.0,96.0
2289,41.0,3,120,14.0,65.0
2290,67.0,1,60,11.0,100.0
2291,55.0,1,60,12.0,100.0
2292,40.0,0,60,3.0,96.0
2293,72.0,35,80,10.0,100.0
2294,84.0,1,80,0.0,93.0
2295,72.0,2,80,1.0,92.0
2296,60.0,0,80,4.0,94.0
2297,60.0,3,80,3.0,96.0
2298,52.0,4,120,13.0,65.0
2299,40.0,0,120,14.0,65.0
2300,69.0,30,20,11.0,100.0
2301,57.0,3,20,12.0,100.0
2302,76.0,68,80,10.0,100.0
2303,88.0,1,80,0.0,93.0
2304,64.0,0,80,4.0,94.0
2305,76.0,3,80,1.0,92.0
2306,64.0,8,80,3.0,96.0
2307,69.0,1,20,11.0,100.0
2308,57.0,1,20,12.0,100.0
2309,41.0,0,60,3.0,96.0
2310,69.0,30,20,11.0,100.0
2311,74.0,28,65,10.0,100.0
2312,57.0,3,20,12.0,100.0
2313,86.0,1,65,0.0,93.0
2314,74.0,0,65,1.0,92.0
2315,62.0,2,65,4.0,94.0
2316,62.0,7,65,3.0,96.0
2317,53.0,4,120,13.0,65.0
2318,41.0,3,120,14.0,65.0
2319,62.0,1,60,11.0,100.0
2320,59.0,1,60,12.0,100.0
2321,43.0,0,60,3.0,96.0
2322,67.0,35,80,10.0,100.0
2323,79.0,1,80,0.0,93.0
2324,55.0,0,80,4.0,94.0
2325,67.0,2,80,1.0,92.0
2326,55.0,3,80,3.0,96.0
2327,55.0,4,120,13.0,65.0
2328,43.0,0,120,14.0,65.0
2329,67.0,110,20,11.0,100.0
2330,55.0,3,20,12.0,100.0
2331,67.0,1,20,11.0,100.0
2332,55.0,1,20,12.0,100.0
2333,67.0,30,20,11.0,100.0
2334,55.0,3,20,12.0,100.0
2335,67.0,28,80,10.0,100.0
2336,79.0,1,80,0.0,93.0
2337,67.0,0,80,1.0,92.0
2338,55.0,2,80,4.0,94.0
2339,53.0,4,120,13.0,65.0
2340,55.0,7,80,3.0,96.0
2341,41.0,3,120,14.0,65.0
2342,67.0,1,60,11.0,100.0
2343,55.0,1,60,12.0,100.0
2344,72.0,35,80,10.0,100.0
2345,84.0,1,80,0.0,93.0
2346,72.0,0,80,1.0,92.0
2347,60.0,2,80,4.0,94.0
2348,60.0,0,80,3.0,96.0
2349,52.0,4,120,13.0,65.0
2350,40.0,3,120,14.0,65.0
2351,67.0,1,20,11.0,100.0
2352,55.0,1,20,12.0,100.0
2353,79.0,68,80,10.0,100.0
2354,91.0,1,80,0.0,93.0
2355,67.0,0,80,4.0,94.0
2356,79.0,3,80,1.0,92.0
2357,67.0,8,80,3.0,96.0
2358,67.0,1,20,11.0,100.0
2359,55.0,1,20,12.0,100.0
2360,67.0,30,20,11.0,100.0
2361,76.0,28,65,10.0,100.0
2362,55.0,3,20,12.0,100.0
2363,88.0,1,65,0.0,93.0
2364,76.0,2,65,1.0,92.0
2365,64.0,0,65,4.0,94.0
2366,64.0,7,65,3.0,96.0
2367,60.0,0,120,4.0,94.0
2368,48.0,4,120,13.0,65.0
2369,36.0,3,120,14.0,65.0
2370,67.0,1,60,11.0,100.0
2371,55.0,1,60,12.0,100.0
2372,74.0,35,80,10.0,100.0
2373,86.0,1,80,0.0,93.0
2374,74.0,0,80,1.0,92.0
2375,62.0,3,80,3.0,96.0
2376,79.0,29,230,0.0,83.0
2377,67.0,2,230,1.0,82.0
2378,55.0,0,230,3.0,86.0
2379,62.0,2,120,4.0,86.0
2380,55.0,0,120,4.0,86.0
2381,47.0,4,120,13.0,65.0
2382,35.0,0,120,14.0,65.0
2383,67.0,1,20,11.0,100.0
2384,55.0,1,20,12.0,100.0
2385,72.0,68,80,10.0,100.0
2386,84.0,1,80,0.0,93.0
2387,72.0,3,80,1.0,92.0
2388,60.0,8,80,3.0,96.0
2389,67.0,1,20,11.0,100.0
2390,55.0,1,20,12.0,100.0
2391,67.0,30,20,11.0,100.0
2392,71.0,28,65,10.0,100.0
2393,55.0,3,20,12.0,100.0
2394,83.0,1,65,0.0,93.0
2395,71.0,2,65,1.0,92.0
2396,59.0,7,65,3.0,96.0
2397,52.0,4,120,13.0,65.0
2398,40.0,3,120,14.0,65.0
2399,66.0,1,60,11.0,100.0
2400,57.0,1,60,12.0,100.0
2401,79.0,29,200,0.0,83.0
2402,67.0,2,200,1.0,82.0
2403,55.0,0,200,3.0,86.0
2404,50.0,4,120,13.0,65.0
2405,38.0,3,120,14.0,65.0
2406,69.0,30,20,11.0,100.0
2407,54.0,3,20,12.0,100.0
2408,78.0,69,80,0.0,83.0
2409,66.0,3,80,1.0,82.0
2410,54.0,8,80,3.0,86.0
2411,69.0,1,20,11.0,100.0
2412,54.0,1,20,12.0,100.0
2413,69.0,30,20,11.0,100.0
2414,54.0,3,20,12.0,100.0
2415,81.0,29,70,0.0,83.0
2416,69.0,2,70,1.0,82.0
2417,57.0,7,70,3.0,86.0
2418,48.0,4,120,13.0,65.0
2419,36.0,3,120,14.0,65.0
2420,62.0,1,60,11.0,100.0
2421,55.0,1,60,12.0,100.0
2422,74.0,35,320,10.0,100.0
2423,86.0,1,320,0.0,93.0
2424,74.0,2,320,1.0,92.0
2425,62.0,0,320,3.0,96.0
2426,74.0,36,110,0.0,83.0
2427,62.0,2,110,1.0,82.0
2428,50.0,0,110,3.0,86.0
2429,47.0,4,120,13.0,65.0
2430,35.0,3,120,14.0,65.0
2431,67.0,1,20,11.0,100.0
2432,55.0,1,20,12.0,100.0
2433,72.0,68,80,10.0,100.0
2434,84.0,1,80,0.0,93.0
2435,72.0,3,80,1.0,92.0
2436,60.0,8,80,3.0,96.0
2437,67.0,1,20,11.0,100.0
2438,55.0,1,20,12.0,100.0
2439,67.0,30,20,11.0,100.0
2440,55.0,3,20,12.0,100.0
2441,71.0,28,80,10.0,100.0
2442,83.0,1,80,0.0,93.0
2443,71.0,2,80,1.0,92.0
2444,52.0,4,120,13.0,65.0
2445,59.0,7,80,3.0,96.0
2446,40.0,3,120,14.0,65.0
2447,67.0,1,60,11.0,100.0
2448,64.0,1,60,12.0,100.0
2449,72.0,35,80,10.0,100.0
2450,84.0,1,80,0.0,93.0
2451,72.0,2,80,1.0,92.0
2452,60.0,3,80,3.0,96.0
2453,79.0,29,240,0.0,83.0
2454,67.0,2,240,1.0,82.0
2455,45.0,4,120,13.0,65.0
2456,33.0,0,120,14.0,65.0
2457,55.0,0,240,3.0,86.0
2458,66.0,1,20,11.0,100.0
2459,60.0,1,20,12.0,100.0
2460,71.0,68,80,10.0,100.0
2461,83.0,1,80,0.0,93.0
2462,71.0,3,80,1.0,92.0
2463,59.0,8,80,3.0,96.0
2464,66.0,1,20,11.0,100.0
2465,60.0,1,20,12.0,100.0
2466,66.0,30,20,11.0,100.0
2467,60.0,3,20,12.0,100.0
2468,69.0,28,65,10.0,100.0
2469,81.0,1,65,0.0,93.0
2470,69.0,2,65,1.0,92.0
2471,57.0,7,65,3.0,96.0
2472,50.0,4,120,13.0,65.0
2473,38.0,3,120,14.0,65.0
2474,66.0,1,60,11.0,100.0
2475,59.0,1,60,12.0,100.0
2476,71.0,35,80,10.0,100.0
2477,83.0,1,80,0.0,93.0
2478,71.0,2,80,1.0,92.0
2479,59.0,3,80,3.0,96.0
2480,78.0,29,230,0.0,83.0
2481,66.0,2,230,1.0,82.0
2482,54.0,0,230,3.0,86.0
2483,43.0,4,120,13.0,65.0
2484,31.0,0,120,14.0,65.0
2485,64.0,1,20,11.0,100.0
2486,52.0,1,20,12.0,100.0
2487,69.0,68,80,10.0,100.0
2488,81.0,1,80,0.0,93.0
2489,69.0,3,80,1.0,92.0
2490,57.0,8,80,3.0,96.0
2491,64.0,1,20,11.0,100.0
2492,52.0,1,20,12.0,100.0
2493,64.0,30,20,11.0,100.0
2494,52.0,3,20,12.0,100.0
2495,67.0,28,65,10.0,100.0
2496,79.0,1,65,0.0,93.0
2497,67.0,2,65,1.0,92.0
2498,55.0,7,65,3.0,96.0
2499,48.0,4,120,13.0,65.0
2500,36.0,0,120,14.0,65.0
2501,63.0,1,60,11.0,100.0
2502,54.0,1,60,12.0,100.0
2503,76.0,29,200,0.0,83.0
2504,64.0,2,200,1.0,82.0
2505,52.0,3,200,3.0,86.0
2506,47.0,4,120,13.0,65.0
2507,35.0,3,120,14.0,65.0
2508,66.0,30,20,11.0,100.0
2509,51.0,3,20,12.0,100.0
2510,75.0,69,80,0.0,83.0
2511,63.0,3,80,1.0,82.0
2512,51.0,8,80,3.0,86.0
2513,66.0,1,20,11.0,100.0
2514,51.0,1,20,12.0,100.0
2515,66.0,30,20,11.0,100.0
2516,51.0,3,20,12.0,100.0
2517,78.0,29,70,0.0,83.0
2518,66.0,2,70,1.0,82.0
2519,54.0,7,70,3.0,86.0
2520,45.0,4,120,13.0,65.0
2521,33.0,3,120,14.0,65.0
2522,59.0,1,60,11.0,100.0
2523,52.0,1,60,12.0,100.0
2524,71.0,35,320,10.0,100.0
2525,83.0,1,320,0.0,93.0
2526,71.0,2,320,1.0,92.0
2527,59.0,0,320,3.0,96.0
2528,71.0,36,110,0.0,83.0
2529,59.0,2,110,1.0,82.0
2530,47.0,0,110,3.0,86.0
2531,43.0,4,120,13.0,65.0
2532,31.0,3,120,14.0,65.0
2533,64.0,1,20,11.0,100.0
2534,52.0,1,20,12.0,100.0
2535,69.0,68,80,10.0,100.0
2536,81.0,1,80,0.0,93.0
2537,69.0,3,80,1.0,92.0
2538,57.0,8,80,3.0,96.0
2539,64.0,1,20,11.0,100.0
2540,52.0,1,20,12.0,100.0
2541,64.0,30,20,11.0,100.0
2542,52.0,3,20,12.0,100.0
2543,67.0,28,80,10.0,100.0
2544,79.0,1,80,0.0,93.0
2545,67.0,2,80,1.0,92.0
2546,48.0,4,120,13.0,65.0
2547,55.0,7,80,3.0,96.0
2548,36.0,3,120,14.0,65.0
2549,64.0,1,60,11.0,100.0
2550,60.0,1,60,12.0,100.0
2551,69.0,35,80,10.0,100.0
2552,81.0,1,80,0.0,93.0
2553,69.0,2,80,1.0,92.0
2554,57.0,3,80,3.0,96.0
2555,76.0,29,240,0.0,83.0
2556,64.0,2,240,1.0,82.0
2557,42.0,4,120,13.0,65.0
2558,30.0,0,120,14.0,65.0
2559,52.0,0,240,3.0,86.0
2560,63.0,1,20,11.0,100.0
2561,59.0,1,20,12.0,100.0
2562,67.0,68,80,10.0,100.0
2563,79.0,1,80,0.0,93.0
2564,67.0,3,80,1.0,92.0
2565,55.0,8,80,3.0,96.0
2566,63.0,2,20,11.0,100.0
2567,59.0,3,20,12.0,100.0
2568,63.0,30,20,11.0,100.0
2569,66.0,28,65,10.0,100.0
2570,59.0,3,20,12.0,100.0
2571,75.0,29,110,0.0,83.0
2572,63.0,2,110,1.0,82.0
2573,54.0,7,65,3.0,96.0
2574,51.0,0,110,3.0,86.0
2575,47.0,4,120,13.0,65.0
2576,35.0,3,120,14.0,65.0
2577,64.0,35,20,10.0,87.0
2578,40.0,4,20,13.0,87.0
2579,64.0,28,20,10.0,87.0
2580,64.0,1,60,11.0,87.0
2581,40.0,9,20,13.0,87.0
2582,76.0,1,80,0.0,93.0
2583,64.0,2,80,1.0,92.0
2584,64.0,31,20,10.0,87.0
2585,40.0,9,20,13.0,87.0
2586,52.0,1,120,12.0,87.0
2587,28.0,0,120,14.0,56.0
2588,52.0,3,120,3.0,83.0
2589,64.0,2,20,11.0,87.0
2590,64.0,31,60,10.0,87.0
2591,64.0,1,20,11.0,87.0
2592,40.0,3,60,13.0,87.0
2593,64.0,38,20,11.0,87.0
2594,76.0,29,80,0.0,113.0
2595,64.0,2,80,1.0,112.0
2596,50.0,3,120,12.0,87.0
2597,50.0,3,120,3.0,83.0
2598,64.0,38,20,10.0,87.0
2599,40.0,4,20,13.0,87.0
2600,64.0,28,20,10.0,87.0
2601,64.0,1,60,11.0,87.0
2602,40.0,9,20,13.0,87.0
2603,81.0,1,80,0.0,113.0
2604,69.0,2,80,1.0,112.0
2605,64.0,31,20,10.0,87.0
2606,40.0,5,20,13.0,87.0
2607,48.0,1,120,12.0,87.0
2608,64.0,0,240,5.0,81.0
2609,76.0,0,240,2.0,80.0
2610,64.0,1,240,2.0,80.0
2611,48.0,3,120,3.0,83.0
2612,28.0,0,120,14.0,56.0
2613,64.0,2,20,11.0,87.0
2614,84.0,1,80,0.0,113.0
2615,72.0,3,80,1.0,112.0
2616,64.0,31,60,10.0,87.0
2617,64.0,1,20,11.0,87.0
2618,40.0,3,60,13.0,87.0
2619,64.0,38,20,11.0,87.0
2620,50.0,3,105,12.0,87.0
2621,83.0,29,70,0.0,113.0
2622,71.0,2,70,1.0,112.0
2623,77.0,0,110,2.0,80.0
2624,65.0,1,110,2.0,80.0
2625,50.0,3,110,3.0,83.0
2626,65.0,0,120,5.0,81.0
2627,64.0,38,20,10.0,87.0
2628,40.0,3,20,13.0,87.0
2629,64.0,28,20,10.0,87.0
2630,64.0,1,60,11.0,87.0
2631,40.0,9,20,13.0,87.0
2632,76.0,1,80,0.0,113.0
2633,64.0,2,80,1.0,112.0
2634,64.0,31,20,10.0,87.0
2635,40.0,9,20,13.0,87.0
2636,68.0,0,110,2.0,80.0
2637,71.0,1,110,2.0,80.0
2638,52.0,1,120,12.0,87.0
2639,28.0,0,120,14.0,56.0
2640,52.0,3,120,3.0,83.0
2641,64.0,2,20,11.0,87.0
2642,64.0,31,60,10.0,87.0
2643,64.0,1,20,11.0,87.0
2644,40.0,3,60,13.0,87.0
2645,64.0,38,20,11.0,87.0
2646,76.0,29,80,0.0,113.0
2647,64.0,2,80,1.0,112.0
2648,50.0,3,120,12.0,87.0
2649,50.0,3,120,3.0,83.0
2650,64.0,38,20,10.0,87.0
2651,40.0,4,20,13.0,87.0
2652,64.0,28,20,10.0,87.0
2653,64.0,1,60,11.0,87.0
2654,40.0,9,20,13.0,87.0
2655,81.0,1,80,0.0,113.0
2656,69.0,2,80,1.0,112.0
2657,64.0,31,20,10.0,87.0
2658,40.0,5,20,13.0,87.0
2659,48.0,1,120,12.0,87.0
2660,64.0,0,240,5.0,81.0
2661,64.0,0,240,2.0,80.0
2662,76.0,1,240,2.0,80.0
2663,48.0,3,120,3.0,83.0
2664,28.0,0,120,14.0,56.0
2665,64.0,2,20,11.0,87.0
2666,84.0,1,80,0.0,113.0
2667,72.0,3,80,1.0,112.0
2668,64.0,31,60,10.0,87.0
2669,64.0,1,20,11.0,87.0
2670,40.0,3,60,13.0,87.0
2671,64.0,38,20,11.0,87.0
2672,50.0,3,105,12.0,87.0
2673,83.0,29,70,0.0,113.0
2674,71.0,2,70,1.0,112.0
2675,77.0,0,110,2.0,80.0
2676,65.0,0,110,2.0,80.0
2677,50.0,3,110,3.0,83.0
2678,65.0,1,120,5.0,81.0
2679,64.0,38,20,10.0,100.0
2680,52.0,1,20,12.0,100.0
2681,56.0,0,20,12.0,100.0
2682,52.0,2,20,13.0,100.0
2683,64.0,28,20,10.0,100.0
2684,64.0,1,60,11.0,100.0
2685,52.0,5,20,12.0,100.0
2686,56.0,0,20,12.0,100.0
2687,52.0,4,20,13.0,100.0
2688,64.0,31,20,10.0,100.0
2689,52.0,0,20,12.0,100.0
2690,56.0,5,20,12.0,100.0
2691,52.0,4,20,13.0,100.0
2692,40.0,0,120,14.0,70.0
2693,68.0,2,20,11.0,100.0
2694,56.0,0,20,12.0,100.0
2695,52.0,3,20,12.0,100.0
2696,68.0,31,60,10.0,100.0
2697,68.0,33,20,11.0,100.0
2698,56.0,3,20,12.0,100.0
2699,52.0,0,20,12.0,100.0
2700,52.0,4,60,13.0,100.0
2701,68.0,37,20,11.0,100.0
2702,52.0,3,20,12.0,100.0
2703,56.0,0,20,12.0,100.0
2704,75.0,1,240,0.0,93.0
2705,63.0,2,240,1.0,92.0
2706,56.0,0,240,7.0,107.0
2707,64.0,0,240,7.0,107.0
2708,52.0,1,240,8.0,107.0
2709,40.0,3,240,3.0,96.0
2710,52.0,0,240,3.0,96.0
2711,71.0,35,20,10.0,100.0
2712,59.0,1,20,12.0,100.0
2713,56.0,0,20,12.0,100.0
2714,50.0,2,20,13.0,100.0
2715,71.0,28,20,10.0,100.0
2716,71.0,1,60,11.0,100.0
2717,56.0,0,20,12.0,100.0
2718,59.0,5,20,12.0,100.0
2719,50.0,4,20,13.0,100.0
2720,71.0,31,20,10.0,100.0
2721,59.0,0,20,12.0,100.0
2722,56.0,5,20,12.0,100.0
2723,50.0,4,20,13.0,100.0
2724,38.0,0,120,14.0,77.0
2725,76.0,2,20,11.0,100.0
2726,56.0,3,20,12.0,100.0
2727,59.0,0,20,12.0,100.0
2728,76.0,31,60,10.0,100.0
2729,76.0,33,20,11.0,100.0
2730,56.0,3,20,12.0,100.0
2731,59.0,0,20,12.0,100.0
2732,50.0,4,60,13.0,100.0
2733,76.0,37,20,11.0,100.0
2734,59.0,0,20,12.0,100.0
2735,56.0,3,20,12.0,100.0
2736,80.0,1,240,0.0,93.0
2737,68.0,0,240,1.0,92.0
2738,59.0,0,240,7.0,107.0
2739,68.0,2,240,7.0,107.0
2740,68.0,1,480,2.0,93.0
2741,71.0,0,480,2.0,93.0
2742,50.0,1,240,8.0,107.0
2743,38.0,0,240,3.0,96.0
2744,50.0,3,240,3.0,96.0
2745,81.0,35,20,10.0,100.0
2746,64.0,1,20,12.0,100.0
2747,57.0,0,20,12.0,100.0
2748,48.0,2,20,13.0,100.0
2749,81.0,28,20,10.0,100.0
2750,81.0,1,60,11.0,100.0
2751,57.0,0,20,12.0,100.0
2752,64.0,5,20,12.0,100.0
2753,48.0,4,20,13.0,100.0
2754,81.0,31,20,10.0,100.0
2755,57.0,0,20,12.0,100.0
2756,64.0,5,20,12.0,100.0
2757,48.0,4,20,13.0,100.0
2758,36.0,0,120,14.0,84.0
2759,84.0,2,20,11.0,100.0
2760,57.0,0,20,12.0,100.0
2761,64.0,3,20,12.0,100.0
2762,84.0,31,60,10.0,100.0
2763,84.0,33,20,11.0,100.0
2764,64.0,3,20,12.0,100.0
2765,57.0,0,20,12.0,100.0
2766,48.0,4,60,13.0,100.0
2767,84.0,37,20,11.0,100.0
2768,57.0,0,20,12.0,100.0
2769,64.0,3,20,12.0,100.0
2770,81.0,1,240,0.0,93.0
2771,88.0,0,480,0.0,93.0
2772,64.0,0,240,7.0,107.0
2773,69.0,0,240,7.0,107.0
2774,76.0,0,480,1.0,92.0
2775,69.0,2,240,1.0,92.0
2776,69.0,1,240,2.0,93.0
2777,76.0,0,240,2.0,93.0
2778,64.0,1,480,5.0,94.0
2779,48.0,1,240,8.0,107.0
2780,48.0,0,240,3.0,96.0
2781,36.0,3,240,3.0,96.0
2782,83.0,35,20,10.0,100.0
2783,66.0,0,20,12.0,100.0
2784,60.0,1,20,12.0,100.0
2785,50.0,2,20,13.0,100.0
2786,83.0,28,20,10.0,100.0
2787,83.0,1,60,11.0,100.0
2788,60.0,5,20,12.0,100.0
2789,66.0,0,20,12.0,100.0
2790,50.0,4,20,13.0,100.0
2791,83.0,31,20,10.0,100.0
2792,66.0,0,20,12.0,100.0
2793,60.0,5,20,12.0,100.0
2794,50.0,4,20,13.0,100.0
2795,66.0,0,120,7.0,86.0
2796,60.0,2,120,7.0,86.0
2797,50.0,1,120,8.0,86.0
2798,38.0,0,120,14.0,77.0
2799,81.0,2,20,11.0,100.0
2800,66.0,3,20,12.0,100.0
2801,60.0,0,20,12.0,100.0
2802,81.0,31,60,10.0,100.0
2803,81.0,33,20,11.0,100.0
2804,66.0,3,20,12.0,100.0
2805,60.0,0,20,12.0,100.0
2806,50.0,4,60,13.0,100.0
2807,81.0,37,20,11.0,100.0
2808,60.0,3,20,12.0,100.0
2809,66.0,0,20,12.0,100.0
2810,78.0,0,230,0.0,93.0
2811,84.0,1,230,0.0,93.0
2812,66.0,0,230,1.0,92.0
2813,72.0,0,230,1.0,92.0
2814,72.0,1,230,2.0,93.0
2815,78.0,0,230,2.0,93.0
2816,66.0,0,240,5.0,94.0
2817,38.0,0,240,3.0,96.0
2818,50.0,3,240,3.0,96.0
2819,79.0,35,20,10.0,87.0
2820,43.0,3,20,13.0,87.0
2821,79.0,28,20,10.0,87.0
2822,67.0,1,60,11.0,87.0
2823,43.0,9,20,13.0,87.0
2824,79.0,1,80,0.0,113.0
2825,67.0,2,80,1.0,112.0
2826,79.0,31,20,10.0,87.0
2827,43.0,9,20,13.0,87.0
2828,55.0,1,120,12.0,87.0
2829,74.0,1,120,2.0,80.0
2830,71.0,0,120,2.0,80.0
2831,55.0,0,120,3.0,83.0
2832,31.0,3,120,14.0,56.0
2833,67.0,2,20,11.0,87.0
2834,79.0,31,60,10.0,87.0
2835,67.0,1,20,11.0,87.0
2836,43.0,3,60,13.0,87.0
2837,67.0,38,20,11.0,87.0
2838,79.0,29,80,0.0,113.0
2839,67.0,2,80,1.0,112.0
2840,53.0,3,120,12.0,87.0
2841,53.0,3,120,3.0,83.0
2842,79.0,38,20,10.0,87.0
2843,43.0,4,20,13.0,87.0
2844,79.0,28,20,10.0,87.0
2845,67.0,1,60,11.0,87.0
2846,43.0,9,20,13.0,87.0
2847,84.0,1,80,0.0,113.0
2848,72.0,2,80,1.0,112.0
2849,79.0,31,20,10.0,87.0
2850,43.0,5,20,13.0,87.0
2851,52.0,1,120,12.0,87.0
2852,67.0,0,240,2.0,80.0
2853,67.0,0,240,5.0,81.0
2854,79.0,1,240,2.0,80.0
2855,52.0,3,120,3.0,83.0
2856,31.0,0,120,14.0,56.0
2857,67.0,2,20,11.0,87.0
2858,88.0,1,80,0.0,113.0
2859,76.0,3,80,1.0,112.0
2860,79.0,31,60,10.0,87.0
2861,67.0,1,20,11.0,87.0
2862,43.0,3,60,13.0,87.0
2863,67.0,38,20,11.0,87.0
2864,54.0,3,105,12.0,87.0
2865,86.0,29,70,0.0,113.0
2866,74.0,2,70,1.0,112.0
2867,69.0,0,110,2.0,80.0
2868,81.0,1,110,2.0,80.0
2869,69.0,0,120,5.0,81.0
2870,54.0,3,120,3.0,83.0
2871,79.0,38,20,10.0,87.0
2872,43.0,3,20,13.0,87.0
2873,79.0,28,20,10.0,87.0
2874,67.0,1,60,11.0,87.0
2875,43.0,9,20,13.0,87.0
2876,79.0,1,80,0.0,113.0
2877,67.0,2,80,1.0,112.0
2878,79.0,31,20,10.0,87.0
2879,43.0,9,20,13.0,87.0
2880,74.0,0,110,2.0,80.0
2881,71.0,1,110,2.0,80.0
2882,55.0,1,120,12.0,87.0
2883,31.0,0,120,14.0,56.0
2884,55.0,3,120,3.0,83.0
2885,67.0,2,20,11.0,87.0
2886,79.0,31,60,10.0,87.0
2887,67.0,1,20,11.0,87.0
2888,43.0,3,60,13.0,87.0
2889,67.0,38,20,11.0,87.0
2890,79.0,29,80,0.0,113.0
2891,67.0,2,80,1.0,112.0
2892,53.0,3,120,12.0,87.0
2893,53.0,3,120,3.0,83.0
2894,79.0,38,20,10.0,87.0
2895,43.0,4,20,13.0,87.0
2896,79.0,28,20,10.0,87.0
2897,67.0,1,60,11.0,87.0
2898,43.0,9,20,13.0,87.0
2899,84.0,1,80,0.0,113.0
2900,72.0,2,80,1.0,112.0
2901,79.0,31,20,10.0,87.0
2902,43.0,5,20,13.0,87.0
2903,52.0,1,120,12.0,87.0
2904,67.0,0,240,2.0,80.0
2905,67.0,1,240,5.0,81.0
2906,79.0,0,240,2.0,80.0
2907,31.0,3,120,14.0,56.0
2908,52.0,0,120,3.0,83.0
2909,67.0,2,20,11.0,87.0
2910,88.0,1,80,0.0,113.0
2911,76.0,3,80,1.0,112.0
2912,79.0,31,60,10.0,87.0
2913,67.0,1,20,11.0,87.0
2914,43.0,3,60,13.0,87.0
2915,67.0,38,20,11.0,87.0
2916,54.0,3,105,12.0,87.0
2917,86.0,29,70,0.0,113.0
2918,74.0,2,70,1.0,112.0
2919,69.0,0,110,2.0,80.0
2920,81.0,1,110,2.0,80.0
2921,69.0,0,120,5.0,81.0
2922,54.0,3,120,3.0,83.0
2923,67.0,38,20,10.0,100.0
2924,55.0,0,20,12.0,100.0
2925,59.0,1,20,12.0,100.0
2926,55.0,2,20,13.0,100.0
2927,67.0,28,20,10.0,100.0
2928,67.0,1,60,11.0,100.0
2929,55.0,0,20,12.0,100.0
2930,59.0,5,20,12.0,100.0
2931,55.0,4,20,13.0,100.0
2932,67.0,31,20,10.0,100.0
2933,59.0,5,20,12.0,100.0
2934,55.0,0,20,12.0,100.0
2935,55.0,4,20,13.0,100.0
2936,43.0,0,120,14.0,70.0
2937,71.0,2,20,11.0,100.0
2938,59.0,3,20,12.0,100.0
2939,55.0,0,20,12.0,100.0
2940,71.0,31,60,10.0,100.0
2941,71.0,33,20,11.0,100.0
2942,59.0,0,20,12.0,100.0
2943,55.0,3,20,12.0,100.0
2944,55.0,4,60,13.0,100.0
2945,71.0,37,20,11.0,100.0
2946,59.0,3,20,12.0,100.0
2947,55.0,0,20,12.0,100.0
2948,79.0,1,240,0.0,93.0
2949,67.0,0,240,1.0,92.0
2950,59.0,2,240,7.0,107.0
2951,67.0,0,240,7.0,107.0
2952,55.0,1,240,8.0,107.0
2953,55.0,0,240,3.0,96.0
2954,43.0,3,240,3.0,96.0
2955,74.0,35,20,10.0,100.0
2956,62.0,0,20,12.0,100.0
2957,59.0,1,20,12.0,100.0
2958,53.0,2,20,13.0,100.0
2959,74.0,28,20,10.0,100.0
2960,74.0,1,60,11.0,100.0
2961,62.0,5,20,12.0,100.0
2962,59.0,0,20,12.0,100.0
2963,53.0,4,20,13.0,100.0
2964,74.0,31,20,10.0,100.0
2965,62.0,0,20,12.0,100.0
2966,59.0,5,20,12.0,100.0
2967,53.0,4,20,13.0,100.0
2968,41.0,3,120,14.0,77.0
2969,79.0,2,20,11.0,100.0
2970,62.0,0,20,12.0,100.0
2971,59.0,3,20,12.0,100.0
2972,79.0,31,60,10.0,100.0
2973,79.0,33,20,11.0,100.0
2974,59.0,0,20,12.0,100.0
2975,62.0,3,20,12.0,100.0
2976,53.0,4,60,13.0,100.0
2977,79.0,37,20,11.0,100.0
2978,62.0,3,20,12.0,100.0
2979,59.0,0,20,12.0,100.0
2980,83.0,1,240,0.0,93.0
2981,71.0,2,240,1.0,92.0
2982,62.0,0,240,7.0,107.0
2983,71.0,0,240,7.0,107.0
2984,74.0,1,480,2.0,93.0
2985,71.0,0,480,2.0,93.0
2986,53.0,1,240,8.0,107.0
2987,53.0,0,240,3.0,96.0
2988,41.0,0,240,3.0,96.0
2989,84.0,35,20,10.0,100.0
2990,60.0,0,20,12.0,100.0
2991,67.0,1,20,12.0,100.0
2992,51.0,2,20,13.0,100.0
2993,84.0,28,20,10.0,100.0
2994,84.0,1,60,11.0,100.0
2995,67.0,0,20,12.0,100.0
2996,60.0,5,20,12.0,100.0
2997,51.0,4,20,13.0,100.0
2998,84.0,31,20,10.0,100.0
2999,67.0,5,20,12.0,100.0
3000,60.0,0,20,12.0,100.0
3001,51.0,4,20,13.0,100.0
3002,39.0,0,120,14.0,84.0
3003,87.0,2,20,11.0,100.0
3004,67.0,3,20,12.0,100.0
3005,60.0,0,20,12.0,100.0
3006,87.0,31,60,10.0,100.0
3007,87.0,33,20,11.0,100.0
3008,67.0,3,20,12.0,100.0
3009,60.0,0,20,12.0,100.0
3010,51.0,4,60,13.0,100.0
3011,87.0,37,20,11.0,100.0
3012,67.0,3,20,12.0,100.0
3013,60.0,0,20,12.0,100.0
3014,91.0,0,480,0.0,93.0
3015,84.0,1,240,0.0,93.0
3016,72.0,0,240,7.0,107.0
3017,67.0,0,240,7.0,107.0
3018,72.0,2,240,1.0,92.0
3019,79.0,0,480,1.0,92.0
3020,72.0,1,240,2.0,93.0
3021,67.0,1,480,5.0,94.0
3022,79.0,0,240,2.0,93.0
3023,51.0,1,240,8.0,107.0
3024,51.0,3,240,3.0,96.0
3025,39.0,0,240,3.0,96.0
3026,86.0,35,20,10.0,100.0
3027,69.0,1,20,12.0,100.0
3028,63.0,0,20,12.0,100.0
3029,53.0,2,20,13.0,100.0
3030,86.0,28,20,10.0,100.0
3031,86.0,1,60,11.0,100.0
3032,63.0,5,20,12.0,100.0
3033,69.0,0,20,12.0,100.0
3034,53.0,4,20,13.0,100.0
3035,86.0,31,20,10.0,100.0
3036,63.0,5,20,12.0,100.0
3037,69.0,0,20,12.0,100.0
3038,53.0,4,20,13.0,100.0
3039,63.0,2,120,7.0,86.0
3040,69.0,0,120,7.0,86.0
3041,53.0,1,120,8.0,86.0
3042,41.0,0,120,14.0,77.0
3043,84.0,2,20,11.0,100.0
3044,69.0,0,20,12.0,100.0
3045,63.0,3,20,12.0,100.0
3046,84.0,31,60,10.0,100.0
3047,84.0,33,20,11.0,100.0
3048,69.0,3,20,12.0,100.0
3049,63.0,0,20,12.0,100.0
3050,53.0,4,60,13.0,100.0
3051,84.0,37,20,11.0,100.0
3052,63.0,0,20,12.0,100.0
3053,69.0,3,20,12.0,100.0
3054,87.0,1,230,0.0,93.0
3055,81.0,0,230,0.0,93.0
3056,69.0,0,230,1.0,92.0
3057,75.0,0,230,1.0,92.0
3058,81.0,0,230,2.0,93.0
3059,75.0,0,230,2.0,93.0
3060,69.0,1,240,5.0,94.0
3061,53.0,3,240,3.0,96.0
3062,41.0,0,240,3.0,96.0
3063,82.0,1,60,0.0,93.0
3064,70.0,2,60,1.0,92.0
3065,77.0,1,60,2.0,93.0
3066,70.0,0,60,2.0,93.0
3067,65.0,0,60,5.0,94.0
3068,38.0,0,60,3.0,96.0
3069,50.0,0,60,3.0,96.0
3070,82.0,35,120,10.0,90.0
3071,82.0,1,120,11.0,90.0
3072,65.0,1,120,12.0,100.0
3073,50.0,3,120,13.0,100.0
3074,38.0,3,120,14.0,65.0
3075,72.0,1,20,11.0,100.0
3076,80.0,0,20,11.0,100.0
3077,63.0,0,20,12.0,100.0
3078,60.0,1,20,12.0,100.0
3079,48.0,2,20,13.0,100.0
3080,48.0,2,30,15.0,78.0
3081,72.0,0,20,11.0,100.0
3082,80.0,1,20,11.0,100.0
3083,60.0,3,20,12.0,100.0
3084,63.0,0,20,12.0,100.0
3085,48.0,4,20,13.0,100.0
3086,48.0,22,0,15.0,78.0
3087,48.0,12,0,15.0,78.0
3088,72.0,11,20,11.0,100.0
3089,80.0,0,20,11.0,100.0
3090,60.0,3,20,12.0,100.0
3091,63.0,0,20,12.0,100.0
3092,48.0,4,20,13.0,100.0
3093,48.0,0,120,3.0,96.0
3094,36.0,0,120,14.0,100.0
3095,36.0,0,120,3.0,96.0
3096,72.0,0,20,11.0,100.0
3097,80.0,21,20,11.0,100.0
3098,60.0,3,20,12.0,100.0
3099,63.0,0,20,12.0,100.0
3100,51.0,4,20,13.0,100.0
3101,48.0,29,0,15.0,78.0
3102,72.0,1,20,11.0,100.0
3103,80.0,0,20,11.0,100.0
3104,63.0,0,20,12.0,100.0
3105,60.0,3,20,12.0,100.0
3106,51.0,4,20,13.0,100.0
3107,48.0,12,0,15.0,78.0
3108,72.0,11,20,11.0,100.0
3109,80.0,0,20,11.0,100.0
3110,63.0,3,20,12.0,100.0
3111,60.0,0,20,12.0,100.0
3112,51.0,4,20,13.0,100.0
3113,48.0,2,0,15.0,100.0
3114,39.0,0,120,3.0,96.0
3115,39.0,0,120,14.0,100.0
3116,51.0,1,120,3.0,96.0
3117,80.0,21,20,11.0,100.0
3118,72.0,0,20,11.0,100.0
3119,60.0,0,20,12.0,100.0
3120,63.0,3,20,12.0,100.0
3121,56.0,4,20,13.0,100.0
3122,72.0,30,20,11.0,100.0
3123,80.0,0,20,11.0,100.0
3124,60.0,3,20,12.0,100.0
3125,63.0,0,20,12.0,100.0
3126,56.0,4,20,13.0,100.0
3127,72.0,33,20,11.0,100.0
3128,80.0,0,20,11.0,100.0
3129,63.0,0,20,12.0,100.0
3130,60.0,3,20,12.0,100.0
3131,56.0,4,20,13.0,100.0
3132,72.0,1,350,6.0,120.0
3133,60.0,0,350,6.0,120.0
3134,48.0,1,350,4.0,94.0
3135,60.0,0,350,4.0,94.0
3136,63.0,1,350,5.0,94.0
3137,68.0,0,350,5.0,94.0
3138,80.0,228,360,10.0,100.0
3139,80.0,1,360,0.0,93.0
3140,80.0,0,360,1.0,92.0
3141,63.0,0,360,7.0,117.0
3142,68.0,0,360,1.0,92.0
3143,68.0,0,360,7.0,117.0
3144,72.0,0,360,2.0,93.0
3145,75.0,0,360,2.0,93.0
3146,60.0,1,360,8.0,117.0
3147,44.0,0,120,14.0,100.0
3148,56.0,1,120,3.0,96.0
3149,44.0,0,120,3.0,96.0
3150,72.0,1,20,11.0,100.0
3151,63.0,1,20,12.0,100.0
3152,60.0,0,20,12.0,100.0
3153,60.0,3,20,13.0,100.0
3154,72.0,30,20,11.0,100.0
3155,60.0,3,20,12.0,100.0
3156,63.0,0,20,12.0,100.0
3157,60.0,4,20,13.0,100.0
3158,72.0,33,20,11.0,100.0
3159,63.0,3,20,12.0,100.0
3160,60.0,0,20,12.0,100.0
3161,60.0,4,20,13.0,100.0
3162,84.0,31,120,10.0,100.0
3163,84.0,1,120,0.0,93.0
3164,72.0,0,120,1.0,92.0
3165,84.0,1,120,1.0,92.0
3166,48.0,0,120,3.0,96.0
3167,60.0,3,120,3.0,96.0
3168,48.0,0,120,14.0,100.0
3169,70.0,1,20,11.0,100.0
3170,63.0,0,20,12.0,100.0
3171,60.0,1,20,12.0,100.0
3172,58.0,4,20,13.0,100.0
3173,70.0,30,20,11.0,100.0
3174,63.0,3,20,12.0,100.0
3175,60.0,0,20,12.0,100.0
3176,58.0,4,20,13.0,100.0
3177,70.0,33,20,11.0,100.0
3178,63.0,0,20,12.0,100.0
3179,60.0,3,20,12.0,100.0
3180,58.0,4,20,13.0,100.0
3181,60.0,1,230,6.0,120.0
3182,72.0,0,230,6.0,120.0
3183,60.0,0,230,4.0,94.0
3184,48.0,0,230,4.0,94.0
3185,63.0,0,230,5.0,94.0
3186,68.0,1,230,5.0,94.0
3187,82.0,31,120,10.0,100.0
3188,82.0,1,120,0.0,93.0
3189,70.0,0,120,1.0,92.0
3190,82.0,2,120,1.0,92.0
3191,72.0,0,240,2.0,93.0
3192,68.0,0,240,2.0,93.0
3193,46.0,0,120,14.0,100.0
3194,46.0,0,120,3.0,96.0
3195,58.0,3,120,3.0,96.0
3196,68.0,1,20,11.0,100.0
3197,63.0,0,20,12.0,100.0
3198,60.0,1,20,12.0,100.0
3199,56.0,3,20,13.0,100.0
3200,68.0,30,20,11.0,100.0
3201,63.0,0,20,12.0,100.0
3202,60.0,3,20,12.0,100.0
3203,56.0,4,20,13.0,100.0
3204,68.0,33,20,11.0,100.0
3205,80.0,31,105,10.0,100.0
3206,60.0,0,20,12.0,100.0
3207,63.0,3,20,12.0,100.0
3208,80.0,1,105,0.0,93.0
3209,68.0,0,105,1.0,92.0
3210,80.0,1,105,1.0,92.0
3211,56.0,4,20,13.0,100.0
3212,68.0,0,110,5.0,94.0
3213,63.0,0,110,5.0,94.0
3214,44.0,0,105,3.0,96.0
3215,56.0,0,105,3.0,96.0
3216,44.0,3,105,14.0,100.0
3217,79.0,1,20,11.0,100.0
3218,68.0,1,20,12.0,100.0
3219,72.0,0,20,12.0,100.0
3220,55.0,3,20,13.0,100.0
3221,79.0,30,20,11.0,100.0
3222,68.0,0,20,12.0,100.0
3223,72.0,3,20,12.0,100.0
3224,55.0,4,20,13.0,100.0
3225,79.0,33,20,11.0,100.0
3226,72.0,3,20,12.0,100.0
3227,68.0,0,20,12.0,100.0
3228,55.0,4,20,13.0,100.0
3229,60.0,1,230,6.0,120.0
3230,72.0,0,230,6.0,120.0
3231,60.0,0,230,4.0,94.0
3232,48.0,0,230,4.0,94.0
3233,68.0,0,110,5.0,94.0
3234,72.0,1,110,5.0,94.0
3235,91.0,31,120,10.0,100.0
3236,91.0,1,120,0.0,93.0
3237,79.0,2,120,1.0,92.0
3238,68.0,0,0,2.0,93.0
3239,72.0,1,0,2.0,93.0
3240,43.0,0,120,3.0,96.0
3241,43.0,0,120,14.0,100.0
3242,55.0,3,120,3.0,96.0
3243,77.0,1,20,11.0,100.0
3244,72.0,0,20,12.0,100.0
3245,68.0,1,20,12.0,100.0
3246,53.0,3,20,13.0,100.0
3247,77.0,30,20,11.0,100.0
3248,72.0,0,20,12.0,100.0
3249,68.0,3,20,12.0,100.0
3250,53.0,4,20,13.0,100.0
3251,77.0,33,20,11.0,100.0
3252,72.0,0,20,12.0,100.0
3253,68.0,3,20,12.0,100.0
3254,53.0,4,20,13.0,100.0
3255,89.0,31,120,10.0,100.0
3256,89.0,1,120,0.0,93.0
3257,77.0,1,120,1.0,92.0
3258,53.0,0,120,3.0,96.0
3259,41.0,3,120,14.0,100.0
3260,41.0,0,120,3.0,96.0
3261,75.0,1,20,11.0,100.0
3262,72.0,1,20,12.0,100.0
3263,68.0,0,20,12.0,100.0
3264,51.0,4,20,13.0,100.0
3265,75.0,30,20,11.0,100.0
3266,72.0,0,20,12.0,100.0
3267,68.0,3,20,12.0,100.0
3268,51.0,4,20,13.0,100.0
3269,75.0,33,20,11.0,100.0
3270,68.0,0,20,12.0,100.0
3271,72.0,3,20,12.0,100.0
3272,51.0,4,20,13.0,100.0
3273,72.0,1,230,6.0,120.0
3274,60.0,0,230,6.0,120.0
3275,60.0,0,230,4.0,94.0
3276,48.0,0,230,4.0,94.0
3277,72.0,0,230,5.0,94.0
3278,68.0,0,230,5.0,94.0
3279,87.0,31,120,10.0,100.0
3280,87.0,1,120,0.0,93.0
3281,75.0,2,120,1.0,92.0
3282,39.0,0,120,3.0,96.0
3283,51.0,3,120,3.0,96.0
3284,39.0,0,120,14.0,100.0
3285,74.0,1,20,11.0,100.0
3286,68.0,0,20,12.0,100.0
3287,72.0,1,20,12.0,100.0
3288,50.0,3,20,13.0,100.0
3289,74.0,30,20,11.0,100.0
3290,77.0,1,60,6.0,120.0
3291,65.0,0,60,6.0,120.0
3292,62.0,1,60,4.0,94.0
3293,72.0,3,20,12.0,100.0
3294,68.0,0,20,12.0,100.0
3295,68.0,0,60,5.0,94.0
3296,65.0,0,60,5.0,94.0
3297,72.0,1,60,2.0,93.0
3298,68.0,0,60,2.0,93.0
3299,50.0,4,20,13.0,100.0
3300,74.0,33,20,11.0,100.0
3301,72.0,3,20,12.0,100.0
3302,86.0,31,105,10.0,100.0
3303,68.0,0,20,12.0,100.0
3304,86.0,1,105,0.0,93.0
3305,74.0,0,105,1.0,92.0
3306,50.0,4,20,13.0,100.0
3307,38.0,0,105,3.0,96.0
3308,38.0,0,105,14.0,100.0
3309,50.0,0,105,3.0,96.0
3310,84.0,31,120,10.0,100.0
3311,84.0,1,120,0.0,93.0
3312,72.0,1,120,11.0,100.0
3313,84.0,0,120,1.0,92.0
3314,83.0,108,120,10.0,90.0
3315,83.0,1,120,0.0,83.0
3316,71.0,1,120,11.0,90.0
3317,77.0,0,240,6.0,120.0
3318,65.0,1,240,6.0,120.0
3319,74.0,1,240,1.0,92.0
3320,83.0,2,120,1.0,82.0
3321,62.0,0,240,4.0,94.0
3322,68.0,1,240,12.0,100.0
3323,65.0,0,240,12.0,100.0
3324,77.0,0,240,2.0,93.0
3325,68.0,0,240,2.0,93.0
3326,68.0,1,240,5.0,94.0
3327,65.0,0,240,5.0,94.0
3328,62.0,3,240,13.0,115.0
3329,50.0,0,240,3.0,111.0
3330,50.0,0,240,14.0,115.0
3331,62.0,3,240,3.0,111.0
3332,68.0,1,20,12.0,100.0
3333,53.0,3,20,13.0,100.0
3334,86.0,236,60,10.0,100.0
3335,86.0,1,60,0.0,93.0
3336,74.0,1,60,11.0,100.0
3337,77.0,1,60,6.0,120.0
3338,65.0,0,60,6.0,120.0
3339,62.0,0,60,4.0,94.0
3340,68.0,1,60,1.0,92.0
3341,74.0,0,60,1.0,92.0
3342,68.0,33,20,12.0,100.0
3343,65.0,1,60,5.0,94.0
3344,53.0,0,60,5.0,94.0
3345,74.0,0,60,2.0,93.0
3346,68.0,0,60,2.0,93.0
3347,53.0,4,20,13.0,100.0
3348,53.0,0,60,3.0,96.0
3349,41.0,0,60,3.0,96.0
3350,41.0,3,60,14.0,100.0
3351,68.0,36,20,12.0,100.0
3352,53.0,4,20,13.0,100.0
3353,84.0,31,120,10.0,100.0
3354,84.0,1,120,0.0,93.0
3355,72.0,1,120,11.0,100.0
3356,84.0,0,120,1.0,92.0
3357,83.0,108,120,10.0,90.0
3358,83.0,1,120,0.0,83.0
3359,71.0,1,120,11.0,90.0
3360,80.0,0,240,6.0,120.0
3361,65.0,1,240,6.0,120.0
3362,83.0,2,120,1.0,82.0
3363,74.0,1,240,1.0,92.0
3364,62.0,0,240,4.0,94.0
3365,56.0,0,240,12.0,100.0
3366,62.0,1,240,12.0,100.0
3367,53.0,0,240,5.0,94.0
3368,74.0,1,240,2.0,93.0
3369,80.0,0,240,2.0,93.0
3370,68.0,0,240,5.0,94.0
3371,65.0,3,240,13.0,115.0
3372,62.0,0,240,3.0,111.0
3373,50.0,0,240,3.0,111.0
3374,50.0,3,240,14.0,115.0
3375,79.0,1,60,6.0,120.0
3376,43.0,1,60,4.0,94.0
3377,55.0,0,60,4.0,94.0
3378,67.0,1,60,5.0,94.0
3379,55.0,1,105,12.0,100.0
3380,55.0,3,105,13.0,100.0
3381,43.0,0,105,3.0,96.0
3382,55.0,0,105,3.0,96.0
3383,43.0,3,105,14.0,100.0
3384,79.0,236,120,10.0,100.0
3385,79.0,1,120,0.0,93.0
3386,67.0,1,120,11.0,100.0
3387,63.0,1,45,12.0,100.0
3388,87.0,108,60,10.0,100.0
3389,87.0,1,60,0.0,93.0
3390,75.0,1,60,11.0,100.0
3391,60.0,53,45,12.0,100.0
3392,36.0,3,105,13.0,100.0
3393,51.0,4,45,13.0,100.0
3394,55.0,3,105,12.0,100.0
3395,72.0,0,230,6.0,120.0
3396,60.0,1,230,6.0,120.0
3397,48.0,1,230,4.0,94.0
3398,48.0,60,45,13.0,100.0
3399,60.0,0,230,4.0,94.0
3400,75.0,0,230,1.0,92.0
3401,79.0,0,230,1.0,92.0
3402,63.0,0,230,5.0,94.0
3403,67.0,0,230,5.0,94.0
3404,79.0,0,230,2.0,93.0
3405,75.0,1,230,2.0,93.0
3406,36.0,0,225,3.0,96.0
3407,48.0,0,225,3.0,96.0
3408,36.0,0,225,14.0,100.0
3409,67.0,1,45,12.0,100.0
3410,87.0,55,225,10.0,115.0
3411,87.0,1,225,0.0,108.0
3412,75.0,1,225,11.0,115.0
3413,63.0,53,45,12.0,100.0
3414,43.0,3,105,13.0,100.0
3415,86.0,55,30,10.0,100.0
3416,86.0,1,30,0.0,93.0
3417,74.0,1,30,11.0,100.0
3418,55.0,4,45,13.0,100.0
3419,84.0,51,30,10.0,100.0
3420,84.0,1,30,0.0,93.0
3421,72.0,1,30,11.0,100.0
3422,60.0,3,105,12.0,100.0
3423,72.0,54,230,6.0,120.0
3424,60.0,0,230,6.0,120.0
3425,51.0,7,45,13.0,100.0
3426,51.0,0,230,4.0,94.0
3427,72.0,0,230,1.0,92.0
3428,79.0,1,230,1.0,92.0
3429,63.0,0,230,4.0,94.0
3430,79.0,0,230,2.0,93.0
3431,67.0,0,230,5.0,94.0
3432,60.0,1,230,5.0,94.0
3433,72.0,0,230,2.0,93.0
3434,39.0,0,225,3.0,96.0
3435,51.0,0,225,3.0,96.0
3436,39.0,0,225,14.0,100.0
3437,68.0,1,45,12.0,100.0
3438,87.0,51,60,10.0,100.0
3439,87.0,1,60,0.0,93.0
3440,75.0,1,60,11.0,100.0
3441,65.0,53,45,12.0,100.0
3442,48.0,3,105,13.0,100.0
3443,56.0,4,45,13.0,100.0
3444,60.0,3,105,12.0,100.0
3445,60.0,1,230,6.0,120.0
3446,72.0,0,230,6.0,120.0
3447,53.0,60,45,13.0,100.0
3448,60.0,0,230,4.0,94.0
3449,72.0,1,230,1.0,92.0
3450,80.0,0,230,1.0,92.0
3451,72.0,1,230,2.0,93.0
3452,68.0,0,230,5.0,94.0
3453,53.0,0,230,5.0,94.0
3454,80.0,0,230,2.0,93.0
3455,41.0,0,225,3.0,96.0
3456,41.0,0,225,14.0,100.0
3457,53.0,0,225,3.0,96.0
3458,72.0,1,45,12.0,100.0
3459,87.0,55,225,10.0,115.0
3460,87.0,1,225,0.0,108.0
3461,75.0,1,225,11.0,115.0
3462,68.0,53,45,12.0,100.0
3463,48.0,3,105,13.0,100.0
3464,86.0,55,30,10.0,100.0
3465,86.0,1,30,0.0,93.0
3466,74.0,1,30,11.0,100.0
3467,60.0,4,45,13.0,100.0
3468,84.0,51,30,10.0,100.0
3469,84.0,1,30,0.0,93.0
3470,72.0,1,30,11.0,100.0
3471,65.0,3,105,12.0,100.0
3472,77.0,0,230,6.0,120.0
3473,65.0,54,230,6.0,120.0
3474,56.0,7,45,13.0,100.0
3475,77.0,1,230,1.0,92.0
3476,60.0,0,230,4.0,94.0
3477,72.0,0,230,1.0,92.0
3478,65.0,0,230,5.0,94.0
3479,56.0,0,230,5.0,94.0
3480,72.0,1,230,2.0,93.0
3481,77.0,0,230,2.0,93.0
3482,44.0,0,225,3.0,96.0
3483,44.0,0,225,14.0,100.0
3484,56.0,0,225,3.0,96.0
3485,70.0,1,45,12.0,100.0
3486,87.0,51,60,10.0,100.0
3487,75.0,1,60,11.0,100.0
3488,75.0,1,60,6.0,120.0
3489,58.0,0,60,4.0,94.0
3490,55.0,0,60,4.0,94.0
3491,63.0,0,60,5.0,94.0
3492,67.0,53,45,12.0,100.0
3493,51.0,3,105,13.0,100.0
3494,58.0,4,45,13.0,100.0
3495,63.0,3,105,12.0,100.0
3496,87.0,1,230,0.0,93.0
3497,82.0,0,230,0.0,93.0
3498,75.0,0,230,1.0,92.0
3499,55.0,60,45,13.0,100.0
3500,70.0,1,230,1.0,92.0
3501,75.0,1,230,2.0,93.0
3502,70.0,0,230,2.0,93.0
3503,43.0,0,225,3.0,96.0
3504,43.0,0,225,14.0,100.0
3505,55.0,0,225,3.0,96.0
3506,75.0,1,45,12.0,100.0
3507,82.0,55,225,10.0,115.0
3508,70.0,2,225,11.0,115.0
3509,70.0,53,45,12.0,100.0
3510,51.0,3,105,13.0,100.0
3511,80.0,55,30,10.0,100.0
3512,68.0,2,30,11.0,100.0
3513,63.0,4,45,13.0,100.0
3514,79.0,51,30,10.0,100.0
3515,67.0,2,30,11.0,100.0
3516,67.0,3,105,12.0,100.0
3517,87.0,0,230,0.0,93.0
3518,91.0,52,230,0.0,93.0
3519,79.0,2,230,6.0,103.0
3520,60.0,7,45,13.0,100.0
3521,79.0,0,230,1.0,92.0
3522,75.0,0,230,1.0,92.0
3523,67.0,0,230,4.0,94.0
3524,63.0,1,230,4.0,94.0
3525,67.0,0,230,2.0,93.0
3526,75.0,1,230,2.0,93.0
3527,48.0,3,225,14.0,100.0
3528,60.0,0,225,3.0,96.0
3529,48.0,0,225,3.0,96.0
3530,74.0,1,45,12.0,100.0
3531,70.0,53,45,12.0,100.0
3532,58.0,3,105,13.0,100.0
3533,79.0,51,165,10.0,100.0
3534,67.0,1,165,11.0,100.0
3535,62.0,4,45,13.0,100.0
3536,77.0,51,45,10.0,100.0
3537,65.0,2,45,11.0,100.0
3538,67.0,60,105,12.0,100.0
3539,91.0,0,230,0.0,93.0
3540,86.0,1,230,0.0,93.0
3541,79.0,1,230,6.0,97.0
3542,62.0,0,230,4.0,94.0
3543,67.0,1,230,4.0,94.0
3544,58.0,7,45,13.0,100.0
3545,74.0,0,230,1.0,92.0
3546,79.0,0,230,1.0,92.0
3547,67.0,1,230,2.0,93.0
3548,74.0,0,230,2.0,93.0
3549,46.0,0,225,14.0,100.0
3550,46.0,0,225,3.0,96.0
3551,58.0,3,225,3.0,96.0
3552,74.0,51,45,10.0,100.0
3553,62.0,1,45,11.0,100.0
3554,72.0,1,45,12.0,100.0
3555,75.0,48,45,10.0,100.0
3556,63.0,2,45,11.0,100.0
3557,67.0,3,45,12.0,100.0
3558,56.0,3,105,13.0,100.0
3559,79.0,55,45,10.0,100.0
3560,67.0,2,45,11.0,100.0
3561,60.0,4,45,13.0,100.0
3562,84.0,51,45,10.0,100.0
3563,72.0,2,45,11.0,100.0
3564,63.0,3,105,12.0,100.0
3565,84.0,0,230,0.0,93.0
3566,91.0,1,230,0.0,93.0
3567,79.0,1,230,6.0,90.0
3568,60.0,1,230,4.0,94.0
3569,67.0,0,230,4.0,94.0
3570,72.0,0,230,1.0,92.0
3571,56.0,7,45,13.0,100.0
3572,79.0,0,230,1.0,92.0
3573,67.0,1,230,2.0,93.0
3574,72.0,0,230,2.0,93.0
3575,60.0,0,225,3.0,96.0
3576,44.0,3,225,3.0,96.0
3577,44.0,0,225,14.0,100.0
3578,56.0,0,225,3.0,96.0
3579,55.0,1,50,4.0,94.0
3580,67.0,0,50,4.0,94.0
3581,55.0,52,50,4.0,94.0
3582,67.0,2,50,5.0,94.0
3583,43.0,0,105,14.0,100.0
3584,43.0,0,105,3.0,96.0
3585,79.0,1,120,6.0,83.0
3586,74.0,0,120,1.0,92.0
3587,79.0,0,120,1.0,92.0
3588,83.0,51,140,10.0,100.0
3589,71.0,1,140,11.0,100.0
3590,67.0,1,140,12.0,100.0
3591,55.0,3,140,13.0,100.0
3592,83.0,1,155,0.0,93.0
3593,79.0,0,155,0.0,93.0
3594,67.0,1,155,2.0,93.0
3595,71.0,0,155,2.0,93.0
3596,79.0,54,45,10.0,100.0
3597,83.0,1,45,0.0,93.0
3598,79.0,0,45,0.0,93.0
3599,71.0,1,45,11.0,100.0
3600,67.0,3,45,12.0,100.0
3601,71.0,1,45,2.0,93.0
3602,67.0,0,45,2.0,93.0
3603,55.0,3,45,13.0,100.0
3604,59.0,3,225,3.0,96.0
3605,55.0,0,225,3.0,96.0
3606,55.0,58,170,4.0,94.0
3607,67.0,2,170,5.0,94.0
3608,55.0,52,50,4.0,94.0
3609,67.0,2,50,5.0,94.0
3610,79.0,51,155,10.0,100.0
3611,80.0,0,155,0.0,93.0
3612,84.0,1,155,0.0,93.0
3613,72.0,1,155,11.0,100.0
3614,68.0,3,155,12.0,100.0
3615,68.0,0,155,2.0,93.0
3616,72.0,1,155,2.0,93.0
3617,55.0,3,155,13.0,100.0
3618,79.0,54,45,10.0,100.0
3619,80.0,0,45,0.0,93.0
3620,84.0,1,45,0.0,93.0
3621,72.0,1,45,11.0,100.0
3622,68.0,3,45,12.0,100.0
3623,68.0,0,45,2.0,93.0
3624,72.0,1,45,2.0,93.0
3625,55.0,3,45,13.0,100.0
3626,60.0,3,225,3.0,96.0
3627,56.0,0,225,3.0,96.0
3628,55.0,58,170,4.0,94.0
3629,67.0,2,170,5.0,94.0
3630,55.0,52,50,4.0,94.0
3631,67.0,2,50,5.0,94.0
3632,79.0,51,155,10.0,100.0
3633,81.0,0,155,0.0,93.0
3634,85.0,1,155,0.0,93.0
3635,73.0,1,155,11.0,100.0
3636,69.0,3,155,12.0,100.0
3637,73.0,1,155,2.0,93.0
3638,69.0,0,155,2.0,93.0
3639,55.0,3,155,13.0,100.0
3640,79.0,54,45,10.0,100.0
3641,85.0,1,45,0.0,93.0
3642,81.0,0,45,0.0,93.0
3643,73.0,1,45,11.0,100.0
3644,69.0,3,45,12.0,100.0
3645,69.0,0,45,2.0,93.0
3646,73.0,1,45,2.0,93.0
3647,55.0,3,45,13.0,100.0
3648,57.0,0,225,3.0,96.0
3649,61.0,3,225,3.0,96.0
3650,55.0,58,170,4.0,94.0
3651,67.0,2,170,5.0,94.0
3652,55.0,52,50,4.0,94.0
3653,67.0,2,50,5.0,94.0
3654,79.0,51,155,10.0,100.0
3655,86.0,0,155,0.0,93.0
3656,82.0,1,155,0.0,93.0
3657,74.0,1,155,11.0,100.0
3658,70.0,3,155,12.0,100.0
3659,70.0,0,155,2.0,93.0
3660,74.0,1,155,2.0,93.0
3661,55.0,3,155,13.0,100.0
3662,55.0,58,50,4.0,94.0
3663,67.0,2,50,5.0,94.0
3664,79.0,54,45,10.0,100.0
3665,86.0,1,45,0.0,93.0
3666,82.0,0,45,0.0,93.0
3667,74.0,1,45,11.0,100.0
3668,70.0,1,45,12.0,100.0
3669,70.0,0,45,2.0,93.0
3670,74.0,0,45,2.0,93.0
3671,55.0,2,50,4.0,94.0
3672,55.0,3,45,13.0,100.0
3673,67.0,1,50,5.0,94.0
3674,62.0,3,225,3.0,96.0
3675,58.0,0,225,3.0,96.0
3676,41.0,29,0,15.0,97.0
3677,41.0,30,30,15.0,97.0
3678,41.0,30,30,15.0,97.0
3679,41.0,30,30,15.0,97.0
3680,41.0,30,0,15.0,97.0
3681,41.0,30,0,15.0,97.0
3682,79.0,1,230,6.0,120.0
3683,43.0,2,225,13.0,100.0
3684,55.0,0,230,4.0,94.0
3685,43.0,0,230,4.0,94.0
3686,65.0,0,230,5.0,94.0
3687,67.0,0,230,5.0,94.0
3688,31.0,1,225,3.0,96.0
3689,43.0,0,225,3.0,96.0
3690,55.0,0,225,3.0,96.0
3691,31.0,0,225,14.0,100.0
3692,82.0,51,285,10.0,100.0
3693,77.0,1,285,11.0,100.0
3694,73.0,1,285,12.0,100.0
3695,80.0,48,45,10.0,100.0
3696,76.0,2,45,11.0,100.0
3697,72.0,3,45,12.0,100.0
3698,61.0,0,350,7.0,117.0
3699,70.0,0,350,7.0,117.0
3700,55.0,1,350,8.0,117.0
3701,89.0,1,360,0.0,93.0
3702,85.0,0,360,0.0,93.0
3703,82.0,0,360,1.0,92.0
3704,73.0,1,360,1.0,92.0
3705,73.0,1,360,2.0,93.0
3706,77.0,0,360,2.0,93.0
3707,48.0,2,120,15.0,115.0
3708,80.0,55,45,10.0,100.0
3709,76.0,1,45,11.0,100.0
3710,72.0,1,45,12.0,100.0
3711,60.0,0,170,6.0,120.0
3712,72.0,22,170,6.0,120.0
3713,48.0,3,165,13.0,100.0
3714,36.0,1,165,14.0,100.0
3715,60.0,0,165,3.0,96.0
3716,36.0,0,165,3.0,96.0
3717,48.0,0,165,3.0,96.0
3718,79.0,53,45,10.0,100.0
3719,76.0,2,45,11.0,100.0
3720,70.0,2,45,12.0,100.0
3721,60.0,0,50,6.0,120.0
3722,72.0,1,50,6.0,120.0
3723,60.0,0,230,4.0,94.0
3724,48.0,1,230,4.0,94.0
3725,64.0,0,110,7.0,117.0
3726,60.0,2,110,7.0,117.0
3727,48.0,4,45,13.0,100.0
3728,72.0,0,230,5.0,94.0
3729,60.0,2,230,5.0,94.0
3730,60.0,0,45,3.0,96.0
3731,36.0,0,45,3.0,96.0
3732,48.0,1,110,8.0,117.0
3733,48.0,0,45,3.0,96.0
3734,36.0,3,45,14.0,100.0
3735,88.0,1,120,0.0,93.0
3736,84.0,0,120,0.0,93.0
3737,76.0,0,120,1.0,92.0
3738,72.0,0,0,1.0,92.0
3739,76.0,1,120,2.0,93.0
3740,72.0,0,120,2.0,93.0
3741,80.0,48,45,10.0,100.0
3742,77.0,1,45,11.0,100.0
3743,72.0,1,45,12.0,100.0
3744,84.0,0,60,0.0,93.0
3745,92.0,1,60,0.0,93.0
3746,80.0,0,60,1.0,92.0
3747,72.0,0,60,2.0,93.0
3748,80.0,1,60,2.0,93.0
3749,79.0,48,45,10.0,100.0
3750,76.0,2,45,11.0,100.0
3751,70.0,3,45,12.0,100.0
3752,79.0,55,45,10.0,100.0
3753,76.0,2,45,11.0,100.0
3754,70.0,3,45,12.0,100.0
3755,72.0,1,170,6.0,120.0
3756,60.0,0,170,6.0,120.0
3757,41.0,3,165,13.0,100.0
3758,29.0,3,165,14.0,100.0
3759,41.0,0,165,3.0,96.0
3760,29.0,0,165,3.0,96.0
3761,53.0,0,165,3.0,96.0
3762,77.0,55,45,10.0,100.0
3763,72.0,2,45,11.0,100.0
3764,68.0,2,45,12.0,100.0
3765,60.0,1,50,6.0,120.0
3766,72.0,0,50,6.0,120.0
3767,48.0,1,230,4.0,94.0
3768,60.0,0,230,4.0,94.0
3769,44.0,4,45,13.0,100.0
3770,65.0,0,230,5.0,94.0
3771,53.0,0,230,5.0,94.0
3772,44.0,0,45,3.0,96.0
3773,56.0,0,45,3.0,96.0
3774,32.0,0,45,3.0,96.0
3775,32.0,3,45,14.0,100.0
3776,74.0,48,45,10.0,100.0
3777,72.0,1,45,11.0,100.0
3778,65.0,1,45,12.0,100.0
3779,91.0,1,60,0.0,93.0
3780,87.0,0,60,0.0,93.0
3781,75.0,0,60,1.0,92.0
3782,79.0,0,60,1.0,92.0
3783,79.0,0,60,2.0,93.0
3784,75.0,1,60,2.0,93.0
3785,75.0,48,45,10.0,100.0
3786,72.0,2,45,11.0,100.0
3787,67.0,3,45,12.0,100.0
3788,79.0,55,45,10.0,100.0
3789,75.0,2,45,11.0,100.0
3790,72.0,3,45,12.0,100.0
3791,60.0,1,170,6.0,120.0
3792,72.0,0,170,6.0,120.0
3793,48.0,3,165,13.0,100.0
3794,36.0,0,165,14.0,100.0
3795,48.0,0,165,3.0,96.0
3796,60.0,0,165,3.0,96.0
3797,36.0,3,165,3.0,96.0
3798,84.0,55,45,10.0,100.0
3799,79.0,2,45,11.0,100.0
3800,67.0,2,45,12.0,100.0
3801,72.0,1,50,6.0,120.0
3802,60.0,0,50,6.0,120.0
3803,48.0,0,230,4.0,94.0
3804,51.0,4,45,13.0,100.0
3805,51.0,1,230,4.0,94.0
3806,63.0,0,230,5.0,94.0
3807,60.0,0,230,5.0,94.0
3808,51.0,0,45,3.0,96.0
3809,39.0,0,45,14.0,100.0
3810,39.0,3,45,3.0,96.0
3811,55.0,0,50,4.0,94.0
3812,43.0,52,50,4.0,94.0
3813,67.0,2,50,5.0,94.0
3814,83.0,48,140,10.0,100.0
3815,74.0,1,140,11.0,100.0
3816,67.0,1,140,12.0,100.0
3817,55.0,3,140,13.0,100.0
3818,43.0,0,140,14.0,100.0
3819,43.0,0,155,3.0,96.0
3820,79.0,54,45,10.0,100.0
3821,83.0,1,225,0.0,93.0
3822,79.0,0,225,0.0,93.0
3823,71.0,2,45,11.0,100.0
3824,71.0,1,225,1.0,92.0
3825,79.0,0,225,1.0,92.0
3826,67.0,3,45,12.0,100.0
3827,59.0,0,225,2.0,93.0
3828,67.0,1,225,2.0,93.0
3829,79.0,1,230,6.0,103.0
3830,55.0,4,45,13.0,100.0
3831,43.0,0,45,3.0,96.0
3832,55.0,3,225,3.0,96.0
3833,47.0,0,225,3.0,96.0
3834,43.0,3,45,14.0,100.0
3835,43.0,58,170,4.0,94.0
3836,55.0,0,170,4.0,94.0
3837,67.0,2,170,5.0,94.0
3838,55.0,0,50,4.0,94.0
3839,43.0,52,50,4.0,94.0
3840,67.0,2,50,5.0,94.0
3841,80.0,48,155,10.0,100.0
3842,72.0,1,155,11.0,100.0
3843,68.0,1,155,12.0,100.0
3844,55.0,3,155,13.0,100.0
3845,43.0,0,155,14.0,100.0
3846,43.0,0,155,3.0,96.0
3847,80.0,54,45,10.0,100.0
3848,84.0,0,225,0.0,93.0
3849,80.0,1,225,0.0,93.0
3850,72.0,2,45,11.0,100.0
3851,80.0,0,225,1.0,92.0
3852,72.0,2,225,1.0,92.0
3853,68.0,3,45,12.0,100.0
3854,68.0,1,225,2.0,93.0
3855,60.0,0,225,2.0,93.0
3856,55.0,4,45,13.0,100.0
3857,48.0,3,225,3.0,96.0
3858,56.0,0,225,3.0,96.0
3859,43.0,3,45,3.0,96.0
3860,43.0,0,45,14.0,100.0
3861,43.0,58,170,4.0,94.0
3862,55.0,0,170,4.0,94.0
3863,67.0,2,170,5.0,94.0
3864,43.0,0,50,4.0,94.0
3865,55.0,52,50,4.0,94.0
3866,67.0,2,50,5.0,94.0
3867,81.0,48,155,10.0,100.0
3868,73.0,1,155,11.0,100.0
3869,69.0,1,155,12.0,100.0
3870,55.0,3,155,13.0,100.0
3871,43.0,3,155,14.0,100.0
3872,43.0,0,155,3.0,96.0
3873,81.0,54,45,10.0,100.0
3874,85.0,1,225,0.0,93.0
3875,81.0,0,225,0.0,93.0
3876,73.0,2,45,11.0,100.0
3877,81.0,0,225,1.0,92.0
3878,73.0,2,225,1.0,92.0
3879,69.0,3,45,12.0,100.0
3880,61.0,0,225,2.0,93.0
3881,69.0,1,225,2.0,93.0
3882,55.0,4,45,13.0,100.0
3883,57.0,0,225,3.0,96.0
3884,49.0,0,225,3.0,96.0
3885,43.0,0,45,3.0,96.0
3886,43.0,3,45,14.0,100.0
3887,43.0,0,170,4.0,94.0
3888,55.0,58,170,4.0,94.0
3889,67.0,2,170,5.0,94.0
3890,43.0,0,50,4.0,94.0
3891,55.0,52,50,4.0,94.0
3892,67.0,2,50,5.0,94.0
3893,82.0,48,155,10.0,100.0
3894,74.0,1,155,11.0,100.0
3895,70.0,1,155,12.0,100.0
3896,55.0,3,155,13.0,100.0
3897,43.0,0,155,3.0,96.0
3898,43.0,0,155,14.0,100.0
3899,82.0,54,45,10.0,100.0
3900,86.0,1,225,0.0,93.0
3901,82.0,0,225,0.0,93.0
3902,74.0,2,45,11.0,100.0
3903,74.0,0,225,1.0,92.0
3904,82.0,2,225,1.0,92.0
3905,70.0,3,45,12.0,100.0
3906,62.0,1,225,2.0,93.0
3907,70.0,0,225,2.0,93.0
3908,55.0,4,45,13.0,100.0
3909,55.0,58,110,4.0,94.0
3910,43.0,0,110,4.0,94.0
3911,67.0,2,110,5.0,94.0
3912,50.0,3,225,3.0,96.0
3913,58.0,0,225,3.0,96.0
3914,43.0,3,45,14.0,100.0
3915,43.0,0,45,3.0,96.0
3916,75.0,0,30,11.0,100.0
3917,71.0,1,30,11.0,100.0
3918,63.0,1,30,12.0,100.0
3919,71.0,0,30,12.0,100.0
3920,71.0,0,30,11.0,100.0
3921,75.0,30,30,11.0,100.0
3922,71.0,3,30,12.0,100.0
3923,63.0,0,30,12.0,100.0
3924,63.0,19,30,4.0,114.0
3925,63.0,2,30,5.0,114.0
3926,71.0,0,30,11.0,100.0
3927,75.0,16,30,11.0,100.0
3928,63.0,3,30,12.0,100.0
3929,71.0,0,30,12.0,100.0
3930,71.0,0,30,11.0,100.0
3931,75.0,37,30,11.0,100.0
3932,63.0,2,30,4.0,114.0
3933,71.0,0,30,12.0,100.0
3934,63.0,1,30,12.0,100.0
3935,63.0,1,30,5.0,114.0
3936,87.0,1,155,0.0,93.0
3937,83.0,0,155,0.0,93.0
3938,83.0,0,155,1.0,92.0
3939,75.0,0,155,1.0,92.0
3940,71.0,1,155,2.0,93.0
3941,63.0,0,155,2.0,93.0
3942,51.0,0,155,3.0,96.0
3943,59.0,0,155,3.0,96.0
3944,75.0,0,30,11.0,100.0
3945,71.0,36,30,11.0,100.0
3946,71.0,0,30,12.0,100.0
3947,63.0,3,30,12.0,100.0
3948,63.0,3,30,4.0,114.0
3949,63.0,2,30,5.0,114.0
3950,83.0,48,225,10.0,115.0
3951,87.0,0,45,0.0,93.0
3952,83.0,16,45,0.0,93.0
3953,75.0,0,45,1.0,92.0
3954,83.0,0,45,1.0,92.0
3955,71.0,0,45,2.0,93.0
3956,63.0,0,45,2.0,93.0
3957,75.0,10,30,11.0,100.0
3958,71.0,0,30,11.0,100.0
3959,75.0,1,230,6.0,120.0
3960,54.0,2,225,13.0,115.0
3961,71.0,0,230,7.0,117.0
3962,63.0,1,230,7.0,117.0
3963,63.0,0,30,12.0,100.0
3964,71.0,3,30,12.0,100.0
3965,42.0,0,225,14.0,115.0
3966,51.0,6,45,3.0,96.0
3967,59.0,0,45,3.0,96.0
3968,54.0,1,230,8.0,117.0
3969,42.0,3,225,3.0,111.0
3970,81.0,0,30,11.0,100.0
3971,72.0,1,30,11.0,100.0
3972,63.0,0,30,12.0,100.0
3973,69.0,1,30,12.0,100.0
3974,81.0,0,30,11.0,100.0
3975,72.0,30,30,11.0,100.0
3976,69.0,0,30,12.0,100.0
3977,63.0,3,30,12.0,100.0
3978,72.0,0,30,11.0,100.0
3979,81.0,37,30,11.0,100.0
3980,63.0,0,30,12.0,100.0
3981,69.0,3,30,12.0,100.0
3982,81.0,37,30,11.0,100.0
3983,72.0,0,30,11.0,100.0
3984,69.0,0,30,12.0,100.0
3985,63.0,3,30,12.0,100.0
3986,84.0,0,155,0.0,93.0
3987,87.0,1,155,0.0,93.0
3988,75.0,0,155,1.0,92.0
3989,84.0,0,155,1.0,92.0
3990,69.0,1,155,2.0,93.0
3991,72.0,0,155,2.0,93.0
3992,57.0,0,155,3.0,96.0
3993,60.0,0,155,3.0,96.0
3994,81.0,37,30,11.0,100.0
3995,72.0,0,30,11.0,100.0
3996,69.0,3,30,12.0,100.0
3997,63.0,0,30,12.0,100.0
3998,84.0,35,225,10.0,115.0
3999,84.0,0,45,0.0,93.0
4000,87.0,16,45,0.0,93.0
4001,75.0,0,45,1.0,92.0
4002,84.0,3,45,1.0,92.0
4003,72.0,2,45,2.0,93.0
4004,69.0,0,45,2.0,93.0
4005,81.0,10,30,11.0,100.0
4006,72.0,0,30,11.0,100.0
4007,75.0,1,230,6.0,120.0
4008,53.0,2,225,13.0,115.0
4009,63.0,0,230,7.0,117.0
4010,72.0,1,230,7.0,117.0
4011,63.0,0,30,12.0,100.0
4012,69.0,3,30,12.0,100.0
4013,41.0,3,225,3.0,111.0
4014,53.0,1,230,8.0,117.0
4015,57.0,0,45,3.0,96.0
4016,41.0,0,225,14.0,115.0
4017,60.0,6,45,3.0,96.0
4018,65.0,0,240,4.0,94.0
4019,53.0,0,240,5.0,94.0
4020,65.0,0,240,5.0,94.0
4021,77.0,0,30,11.0,100.0
4022,73.0,1,30,11.0,100.0
4023,73.0,0,30,12.0,100.0
4024,65.0,1,30,12.0,100.0
4025,77.0,30,30,11.0,100.0
4026,73.0,0,30,11.0,100.0
4027,73.0,3,30,12.0,100.0
4028,65.0,0,30,12.0,100.0
4029,65.0,19,30,4.0,114.0
4030,53.0,0,30,5.0,114.0
4031,65.0,2,30,5.0,114.0
4032,73.0,16,30,11.0,100.0
4033,77.0,0,30,11.0,100.0
4034,65.0,0,30,12.0,100.0
4035,73.0,3,30,12.0,100.0
4036,77.0,37,30,11.0,100.0
4037,73.0,0,30,11.0,100.0
4038,65.0,2,30,4.0,114.0
4039,73.0,0,30,12.0,100.0
4040,65.0,1,30,12.0,100.0
4041,65.0,1,30,5.0,114.0
4042,53.0,0,30,5.0,114.0
4043,85.0,0,155,0.0,93.0
4044,89.0,1,155,0.0,93.0
4045,85.0,0,155,1.0,92.0
4046,77.0,0,155,1.0,92.0
4047,65.0,1,155,2.0,93.0
4048,73.0,0,155,2.0,93.0
4049,61.0,0,155,3.0,96.0
4050,53.0,3,155,3.0,96.0
4051,77.0,0,30,11.0,100.0
4052,73.0,36,30,11.0,100.0
4053,73.0,3,30,12.0,100.0
4054,65.0,0,30,12.0,100.0
4055,65.0,0,30,4.0,114.0
4056,65.0,2,30,5.0,114.0
4057,53.0,0,30,5.0,114.0
4058,85.0,35,225,10.0,115.0
4059,89.0,16,45,0.0,93.0
4060,85.0,0,45,0.0,93.0
4061,85.0,3,45,1.0,92.0
4062,77.0,0,45,1.0,92.0
4063,73.0,0,45,2.0,93.0
4064,65.0,0,45,2.0,93.0
4065,77.0,0,30,11.0,100.0
4066,73.0,10,30,11.0,100.0
4067,77.0,1,230,6.0,120.0
4068,65.0,1,230,7.0,117.0
4069,61.0,0,230,7.0,117.0
4070,58.0,2,225,13.0,115.0
4071,65.0,3,30,12.0,100.0
4072,73.0,0,30,12.0,100.0
4073,46.0,0,225,3.0,111.0
4074,58.0,1,230,8.0,117.0
4075,61.0,0,45,3.0,96.0
4076,46.0,0,225,14.0,115.0
4077,53.0,6,45,3.0,96.0
4078,74.0,0,30,11.0,100.0
4079,83.0,1,30,11.0,100.0
4080,74.0,0,30,12.0,100.0
4081,65.0,1,30,12.0,100.0
4082,74.0,30,30,11.0,100.0
4083,83.0,0,30,11.0,100.0
4084,65.0,3,30,12.0,100.0
4085,74.0,0,30,12.0,100.0
4086,74.0,0,30,11.0,100.0
4087,83.0,37,30,11.0,100.0
4088,65.0,0,30,12.0,100.0
4089,74.0,3,30,12.0,100.0
4090,74.0,0,30,11.0,100.0
4091,83.0,37,30,11.0,100.0
4092,65.0,3,30,12.0,100.0
4093,74.0,0,30,12.0,100.0
4094,86.0,1,155,0.0,93.0
4095,89.0,0,155,0.0,93.0
4096,77.0,0,155,1.0,92.0
4097,86.0,0,155,1.0,92.0
4098,71.0,1,155,2.0,93.0
4099,74.0,0,155,2.0,93.0
4100,59.0,3,155,3.0,96.0
4101,62.0,0,155,3.0,96.0
4102,74.0,0,30,11.0,100.0
4103,83.0,37,30,11.0,100.0
4104,65.0,3,30,12.0,100.0
4105,74.0,0,30,12.0,100.0
4106,86.0,35,225,10.0,115.0
4107,86.0,0,45,0.0,93.0
4108,89.0,16,45,0.0,93.0
4109,77.0,3,45,1.0,92.0
4110,86.0,0,45,1.0,92.0
4111,74.0,2,45,2.0,93.0
4112,71.0,0,45,2.0,93.0
4113,74.0,10,30,11.0,100.0
4114,83.0,0,30,11.0,100.0
4115,79.0,0,230,6.0,120.0
4116,77.0,1,230,6.0,120.0
4117,55.0,2,225,13.0,115.0
4118,55.0,0,230,4.0,94.0
4119,59.0,0,230,7.0,117.0
4120,67.0,1,230,7.0,117.0
4121,43.0,0,230,4.0,94.0
4122,65.0,0,30,12.0,100.0
4123,74.0,3,30,12.0,100.0
4124,65.0,0,230,5.0,94.0
4125,67.0,0,230,5.0,94.0
4126,59.0,6,45,3.0,96.0
4127,43.0,0,225,3.0,111.0
4128,43.0,0,225,14.0,115.0
4129,62.0,0,45,3.0,96.0
4130,55.0,1,230,8.0,117.0
4131,63.0,1,45,12.0,100.0
4132,87.0,35,60,10.0,100.0
4133,84.0,0,60,0.0,93.0
4134,87.0,1,60,0.0,93.0
4135,79.0,1,60,11.0,100.0
4136,75.0,0,60,11.0,100.0
4137,63.0,0,60,7.0,117.0
4138,60.0,0,60,7.0,117.0
4139,48.0,1,60,8.0,117.0
4140,60.0,53,45,12.0,100.0
4141,60.0,2,105,13.0,100.0
4142,72.0,1,170,6.0,120.0
4143,60.0,0,170,6.0,120.0
4144,51.0,4,45,13.0,100.0
4145,48.0,0,165,3.0,96.0
4146,48.0,0,165,14.0,100.0
4147,60.0,3,165,3.0,96.0
4148,55.0,3,105,12.0,100.0
4149,79.0,1,230,1.0,107.0
4150,48.0,6,45,13.0,100.0
4151,75.0,0,230,1.0,107.0
4152,48.0,0,230,4.0,94.0
4153,60.0,0,230,4.0,94.0
4154,63.0,0,230,5.0,94.0
4155,67.0,1,230,5.0,94.0
4156,67.0,0,230,2.0,108.0
4157,75.0,0,230,2.0,108.0
4158,60.0,0,45,3.0,96.0
4159,48.0,0,45,14.0,100.0
4160,48.0,0,45,3.0,96.0
4161,72.0,0,60,6.0,120.0
4162,60.0,54,60,6.0,120.0
4163,67.0,1,45,12.0,100.0
4164,87.0,55,225,10.0,115.0
4165,87.0,1,225,0.0,108.0
4166,75.0,1,225,11.0,115.0
4167,63.0,53,45,12.0,100.0
4168,43.0,3,105,13.0,100.0
4169,86.0,55,30,10.0,100.0
4170,86.0,1,30,0.0,93.0
4171,74.0,1,30,11.0,100.0
4172,60.0,51,170,6.0,120.0
4173,72.0,0,170,6.0,120.0
4174,55.0,4,45,13.0,100.0
4175,51.0,3,165,3.0,96.0
4176,39.0,0,165,14.0,100.0
4177,39.0,0,165,3.0,96.0
4178,84.0,51,30,10.0,100.0
4179,84.0,1,30,0.0,93.0
4180,72.0,1,30,11.0,100.0
4181,60.0,3,105,12.0,100.0
4182,51.0,6,45,13.0,100.0
4183,72.0,1,230,1.0,107.0
4184,51.0,0,230,4.0,94.0
4185,63.0,0,230,4.0,94.0
4186,79.0,0,230,1.0,107.0
4187,60.0,0,230,5.0,94.0
4188,67.0,0,230,5.0,94.0
4189,67.0,1,230,2.0,108.0
4190,72.0,0,230,2.0,108.0
4191,39.0,0,45,14.0,100.0
4192,51.0,0,45,3.0,96.0
4193,39.0,0,45,3.0,96.0
4194,72.0,1,0,6.0,120.0
4195,60.0,1,60,6.0,120.0
4196,69.0,1,45,12.0,100.0
4197,87.0,48,60,10.0,100.0
4198,87.0,1,60,0.0,93.0
4199,75.0,1,60,11.0,100.0
4200,63.0,53,45,12.0,100.0
4201,48.0,3,105,13.0,100.0
4202,75.0,0,170,6.0,120.0
4203,57.0,4,45,13.0,100.0
4204,42.0,0,165,14.0,100.0
4205,54.0,0,165,3.0,96.0
4206,42.0,0,165,3.0,96.0
4207,60.0,3,105,12.0,100.0
4208,72.0,0,230,1.0,107.0
4209,51.0,6,45,13.0,100.0
4210,60.0,0,230,4.0,94.0
4211,63.0,0,230,4.0,94.0
4212,81.0,1,230,1.0,107.0
4213,72.0,1,230,2.0,108.0
4214,57.0,0,230,5.0,94.0
4215,69.0,0,230,2.0,108.0
4216,69.0,0,230,5.0,94.0
4217,42.0,0,45,3.0,96.0
4218,42.0,3,45,14.0,100.0
4219,54.0,0,45,3.0,96.0
4220,75.0,0,0,6.0,120.0
4221,72.0,51,0,6.0,120.0
4222,72.0,1,45,12.0,100.0
4223,87.0,55,225,10.0,115.0
4224,87.0,1,225,0.0,108.0
4225,75.0,1,225,11.0,115.0
4226,69.0,53,45,12.0,100.0
4227,48.0,3,105,13.0,100.0
4228,86.0,55,30,10.0,100.0
4229,86.0,1,30,0.0,93.0
4230,74.0,1,30,11.0,100.0
4231,60.0,4,45,13.0,100.0
4232,33.0,0,165,3.0,96.0
4233,33.0,0,165,14.0,100.0
4234,45.0,3,165,3.0,96.0
4235,84.0,51,30,10.0,100.0
4236,84.0,1,30,0.0,93.0
4237,72.0,1,30,11.0,100.0
4238,63.0,3,105,12.0,100.0
4239,72.0,0,230,1.0,107.0
4240,63.0,0,230,4.0,94.0
4241,60.0,0,230,4.0,94.0
4242,78.0,1,230,1.0,107.0
4243,57.0,6,45,13.0,100.0
4244,60.0,0,230,5.0,94.0
4245,57.0,0,230,5.0,94.0
4246,72.0,0,230,2.0,108.0
4247,78.0,1,230,2.0,108.0
4248,45.0,0,45,3.0,96.0
4249,33.0,0,45,3.0,96.0
4250,33.0,3,45,14.0,100.0
4251,72.0,0,60,6.0,120.0
4252,75.0,1,60,6.0,120.0
4253,96.0,48,60,10.0,100.0
4254,87.0,1,60,0.0,93.0
4255,84.0,0,60,0.0,93.0
4256,84.0,1,60,11.0,100.0
4257,75.0,0,60,11.0,100.0
4258,79.0,1,60,6.0,120.0
4259,79.0,0,60,1.0,107.0
4260,75.0,0,60,1.0,107.0
4261,63.0,1,60,4.0,94.0
4262,51.0,0,60,4.0,94.0
4263,75.0,1,60,12.0,100.0
4264,72.0,0,60,2.0,108.0
4265,79.0,0,60,2.0,108.0
4266,67.0,1,60,5.0,94.0
4267,60.0,0,60,5.0,94.0
4268,43.0,3,60,13.0,100.0
4269,31.0,0,60,3.0,96.0
4270,43.0,0,60,3.0,96.0
4271,31.0,3,60,14.0,100.0
4272,67.0,0,95,5.0,94.0
4273,63.0,0,95,5.0,94.0
4274,55.0,3,95,13.0,125.0
4275,43.0,0,95,3.0,121.0
4276,43.0,3,95,14.0,125.0
4277,55.0,0,95,3.0,121.0
4278,60.0,114,95,5.0,94.0
4279,56.0,3,95,13.0,125.0
4280,91.0,108,225,10.0,115.0
4281,91.0,1,225,0.0,108.0
4282,87.0,0,225,0.0,108.0
4283,44.0,0,95,3.0,121.0
4284,56.0,3,95,3.0,121.0
4285,79.0,1,225,11.0,115.0
4286,44.0,0,95,14.0,125.0
4287,75.0,2,225,1.0,107.0
4288,79.0,0,225,1.0,107.0
4289,75.0,1,225,12.0,115.0
4290,79.0,0,225,2.0,108.0
4291,75.0,1,225,2.0,108.0
4292,89.0,108,30,10.0,100.0
4293,89.0,1,30,0.0,93.0
4294,86.0,0,30,0.0,93.0
4295,77.0,1,30,11.0,100.0
4296,74.0,2,30,1.0,92.0
4297,77.0,0,30,1.0,92.0
4298,74.0,1,30,12.0,100.0
4299,74.0,0,30,2.0,93.0
4300,77.0,1,30,2.0,93.0
4301,87.0,48,30,10.0,100.0
4302,87.0,1,30,0.0,93.0
4303,84.0,0,30,0.0,93.0
4304,75.0,1,30,11.0,100.0
4305,72.0,2,30,1.0,92.0
4306,75.0,0,30,1.0,92.0
4307,72.0,1,30,12.0,100.0
4308,75.0,1,30,2.0,93.0
4309,72.0,0,30,2.0,93.0
4310,57.0,3,95,13.0,125.0
4311,45.0,3,95,14.0,125.0
4312,45.0,0,95,3.0,121.0
4313,57.0,0,95,3.0,121.0
4314,87.0,54,30,10.0,100.0
4315,84.0,0,30,0.0,93.0
4316,87.0,1,30,0.0,93.0
4317,75.0,1,30,11.0,100.0
4318,72.0,0,30,1.0,92.0
4319,75.0,2,30,1.0,92.0
4320,72.0,1,30,12.0,100.0
4321,72.0,1,30,2.0,93.0
4322,75.0,0,30,2.0,93.0
4323,86.0,48,30,10.0,100.0
4324,82.0,0,30,0.0,93.0
4325,86.0,1,30,0.0,93.0
4326,74.0,1,30,11.0,100.0
4327,74.0,2,30,1.0,92.0
4328,70.0,0,30,1.0,92.0
4329,70.0,1,30,12.0,100.0
4330,70.0,1,30,2.0,93.0
4331,74.0,0,30,2.0,93.0
4332,65.0,0,215,5.0,94.0
4333,53.0,0,215,5.0,94.0
4334,58.0,3,95,13.0,125.0
4335,46.0,0,95,14.0,125.0
4336,46.0,0,95,3.0,121.0
4337,58.0,0,95,3.0,121.0
4338,91.0,54,85,10.0,115.0
4339,83.0,0,85,0.0,108.0
4340,91.0,1,85,0.0,108.0
4341,79.0,1,85,11.0,115.0
4342,79.0,2,85,1.0,107.0
4343,71.0,0,85,1.0,107.0
4344,71.0,1,85,12.0,115.0
4345,71.0,0,85,2.0,108.0
4346,79.0,1,85,2.0,108.0
4347,63.0,0,95,5.0,94.0
4348,67.0,0,95,5.0,94.0
4349,51.0,3,95,13.0,125.0
4350,51.0,3,95,3.0,121.0
4351,39.0,0,95,14.0,125.0
4352,39.0,0,95,3.0,121.0
4353,89.0,108,85,10.0,115.0
4354,84.0,1,85,0.0,108.0
4355,89.0,0,85,0.0,108.0
4356,77.0,1,85,11.0,115.0
4357,77.0,2,85,1.0,107.0
4358,72.0,0,85,1.0,107.0
4359,72.0,1,85,12.0,115.0
4360,72.0,1,85,2.0,108.0
4361,77.0,0,85,2.0,108.0
4362,65.0,0,95,5.0,94.0
4363,60.0,0,95,5.0,94.0
4364,56.0,3,95,13.0,125.0
4365,44.0,0,95,3.0,121.0
4366,56.0,0,95,3.0,121.0
4367,44.0,3,95,14.0,125.0
4368,87.0,108,85,10.0,115.0
4369,84.0,0,85,0.0,108.0
4370,87.0,1,85,0.0,108.0
4371,75.0,1,85,11.0,115.0
4372,72.0,0,85,1.0,107.0
4373,75.0,1,85,1.0,107.0
4374,69.0,1,85,12.0,115.0
4375,75.0,1,85,2.0,108.0
4376,72.0,0,85,2.0,108.0
4377,48.0,0,95,4.0,94.0
4378,60.0,0,95,4.0,94.0
4379,63.0,0,95,5.0,94.0
4380,56.0,0,95,5.0,94.0
4381,54.0,3,95,13.0,125.0
4382,54.0,0,95,3.0,121.0
4383,42.0,0,95,3.0,121.0
4384,42.0,0,95,14.0,125.0
4385,72.0,1,120,6.0,120.0
4386,41.0,2,30,15.0,118.0
4387,41.0,30,0,15.0,97.0
4388,41.0,30,0,15.0,97.0
4389,41.0,30,0,15.0,97.0
4390,87.0,108,165,10.0,100.0
4391,75.0,1,165,11.0,100.0
4392,41.0,30,30,15.0,97.0
4393,41.0,30,0,15.0,97.0
4394,86.0,19,45,10.0,100.0
4395,74.0,2,45,11.0,100.0
4396,71.0,0,225,12.0,100.0
4397,65.0,1,225,12.0,100.0
4398,55.0,0,230,4.0,94.0
4399,55.0,2,225,13.0,100.0
4400,65.0,0,230,4.0,94.0
4401,59.0,0,230,5.0,94.0
4402,65.0,0,230,5.0,94.0
4403,43.0,0,225,14.0,100.0
4404,43.0,0,225,3.0,96.0
4405,55.0,0,225,3.0,96.0
4406,89.0,0,240,0.0,108.0
4407,83.0,1,240,0.0,108.0
4408,65.0,1,240,6.0,127.0
4409,77.0,0,240,6.0,127.0
4410,71.0,0,240,1.0,107.0
4411,77.0,0,240,1.0,107.0
4412,65.0,1,240,7.0,127.0
4413,59.0,0,240,7.0,127.0
4414,71.0,1,240,2.0,108.0
4415,77.0,0,240,2.0,108.0
4416,43.0,1,240,8.0,127.0
4417,83.0,19,30,10.0,100.0
4418,71.0,1,30,11.0,100.0
4419,71.0,1,30,12.0,100.0
4420,84.0,48,30,10.0,100.0
4421,72.0,2,30,11.0,100.0
4422,72.0,3,30,12.0,100.0
4423,87.0,1,120,0.0,108.0
4424,84.0,0,120,0.0,108.0
4425,72.0,1,120,6.0,120.0
4426,75.0,0,120,6.0,120.0
4427,48.0,0,120,4.0,94.0
4428,60.0,0,120,7.0,117.0
4429,63.0,0,120,7.0,117.0
4430,63.0,1,120,4.0,94.0
4431,72.0,0,120,1.0,107.0
4432,75.0,0,120,1.0,107.0
4433,72.0,0,120,2.0,108.0
4434,75.0,1,120,2.0,108.0
4435,63.0,0,120,5.0,94.0
4436,60.0,0,120,5.0,94.0
4437,48.0,1,120,8.0,117.0
4438,48.0,2,120,15.0,115.0
4439,87.0,55,30,10.0,100.0
4440,75.0,2,30,11.0,100.0
4441,75.0,3,30,12.0,100.0
4442,60.0,2,165,13.0,115.0
4443,48.0,0,165,3.0,111.0
4444,60.0,0,165,3.0,111.0
4445,48.0,1,165,14.0,115.0
4446,92.0,55,30,10.0,115.0
4447,80.0,2,30,11.0,115.0
4448,63.0,0,30,4.0,94.0
4449,48.0,2,30,4.0,94.0
4450,72.0,1,30,12.0,115.0
4451,68.0,1,30,5.0,94.0
4452,56.0,0,30,5.0,94.0
4453,56.0,3,30,13.0,115.0
4454,44.0,0,30,3.0,111.0
4455,44.0,0,30,14.0,115.0
4456,56.0,0,30,3.0,111.0
4457,79.0,48,30,10.0,100.0
4458,67.0,2,30,11.0,100.0
4459,67.0,3,30,12.0,100.0
4460,80.0,55,30,10.0,100.0
4461,68.0,2,30,11.0,100.0
4462,68.0,3,30,12.0,100.0
4463,84.0,55,30,10.0,100.0
4464,72.0,2,30,11.0,100.0
4465,72.0,3,30,12.0,100.0
4466,89.0,55,30,10.0,115.0
4467,77.0,2,30,11.0,115.0
4468,68.0,1,30,12.0,115.0
4469,53.0,3,30,13.0,115.0
4470,41.0,0,30,3.0,111.0
4471,53.0,0,30,3.0,111.0
4472,41.0,0,30,14.0,115.0
4473,48.0,0,45,4.0,94.0
4474,60.0,2,45,4.0,94.0
4475,56.0,0,45,5.0,94.0
4476,65.0,1,45,5.0,94.0
4477,76.0,48,30,10.0,100.0
4478,64.0,2,30,11.0,100.0
4479,64.0,3,30,12.0,100.0
4480,77.0,55,30,10.0,100.0
4481,65.0,2,30,11.0,100.0
4482,65.0,3,30,12.0,100.0
4483,80.0,55,30,10.0,100.0
4484,68.0,2,30,11.0,100.0
4485,68.0,3,30,12.0,100.0
4486,85.0,55,30,10.0,115.0
4487,73.0,2,30,11.0,115.0
4488,65.0,1,30,12.0,115.0
4489,49.0,3,30,13.0,115.0
4490,37.0,0,30,3.0,111.0
4491,49.0,3,30,3.0,111.0
4492,37.0,0,30,14.0,115.0
4493,65.0,2,45,4.0,94.0
4494,53.0,0,45,5.0,94.0
4495,56.0,1,45,5.0,94.0
4496,77.0,48,30,10.0,100.0
4497,65.0,2,30,11.0,100.0
4498,65.0,3,30,12.0,100.0
4499,84.0,55,30,10.0,100.0
4500,62.0,0,30,11.0,100.0
4501,72.0,2,30,11.0,100.0
4502,72.0,0,30,12.0,100.0
4503,62.0,1,30,12.0,100.0
4504,56.0,3,30,13.0,100.0
4505,44.0,0,30,3.0,96.0
4506,44.0,0,30,14.0,100.0
4507,56.0,3,30,3.0,96.0
4508,65.0,2,45,4.0,94.0
4509,62.0,0,45,4.0,94.0
4510,53.0,0,45,5.0,94.0
4511,56.0,1,45,5.0,94.0
4512,77.0,48,30,10.0,100.0
4513,65.0,2,30,11.0,100.0
4514,65.0,3,30,12.0,100.0
4515,83.0,55,30,10.0,100.0
4516,62.0,2,30,11.0,100.0
4517,71.0,0,30,11.0,100.0
4518,71.0,0,30,12.0,100.0
4519,62.0,1,30,12.0,100.0
4520,53.0,3,30,13.0,100.0
4521,41.0,0,30,3.0,96.0
4522,41.0,0,30,14.0,100.0
4523,53.0,3,30,3.0,96.0
4524,62.0,0,45,4.0,94.0
4525,65.0,2,45,4.0,94.0
4526,56.0,1,45,5.0,94.0
4527,53.0,0,45,5.0,94.0
4528,83.0,48,30,10.0,100.0
4529,71.0,2,30,11.0,100.0
4530,71.0,1,30,12.0,100.0
4531,84.0,48,30,10.0,100.0
4532,72.0,2,30,11.0,100.0
4533,72.0,3,30,12.0,100.0
4534,87.0,55,30,10.0,100.0
4535,75.0,2,30,11.0,100.0
4536,75.0,3,30,12.0,100.0
4537,55.0,2,155,4.0,81.0
4538,63.0,0,155,4.0,81.0
4539,48.0,1,155,5.0,81.0
4540,60.0,0,155,5.0,81.0
4541,60.0,3,180,13.0,100.0
4542,48.0,0,180,3.0,96.0
4543,48.0,3,180,14.0,100.0
4544,60.0,0,180,3.0,96.0
4545,92.0,55,30,10.0,115.0
4546,80.0,2,30,11.0,115.0
4547,72.0,1,30,12.0,115.0
4548,56.0,3,30,13.0,100.0
4549,44.0,0,30,3.0,96.0
4550,44.0,3,30,14.0,100.0
4551,56.0,0,30,3.0,96.0
4552,63.0,2,45,4.0,81.0
4553,48.0,0,45,4.0,81.0
4554,68.0,0,45,5.0,81.0
4555,56.0,1,45,5.0,81.0
4556,79.0,48,30,10.0,100.0
4557,67.0,2,30,11.0,100.0
4558,67.0,3,30,12.0,100.0
4559,80.0,55,30,10.0,100.0
4560,68.0,2,30,11.0,100.0
4561,68.0,3,30,12.0,100.0
4562,84.0,55,30,10.0,100.0
4563,72.0,2,30,11.0,100.0
4564,72.0,3,30,12.0,100.0
4565,89.0,55,30,10.0,115.0
4566,77.0,2,30,11.0,115.0
4567,68.0,1,30,12.0,115.0
4568,53.0,3,30,13.0,115.0
4569,41.0,0,30,3.0,111.0
4570,53.0,0,30,3.0,111.0
4571,41.0,0,30,14.0,115.0
4572,48.0,0,45,4.0,94.0
4573,60.0,2,45,4.0,94.0
4574,56.0,1,45,5.0,94.0
4575,65.0,0,45,5.0,94.0
4576,76.0,48,30,10.0,100.0
4577,64.0,2,30,11.0,100.0
4578,64.0,3,30,12.0,100.0
4579,77.0,55,30,10.0,100.0
4580,65.0,2,30,11.0,100.0
4581,65.0,3,30,12.0,100.0
4582,80.0,55,30,10.0,100.0
4583,68.0,2,30,11.0,100.0
4584,68.0,3,30,12.0,100.0
4585,85.0,55,30,10.0,115.0
4586,73.0,2,30,11.0,115.0
4587,65.0,1,30,12.0,115.0
4588,49.0,3,30,13.0,115.0
4589,49.0,0,30,3.0,111.0
4590,37.0,0,30,14.0,115.0
4591,37.0,0,30,3.0,111.0
4592,61.0,2,45,4.0,94.0
4593,53.0,1,45,5.0,94.0
4594,65.0,0,45,5.0,94.0
4595,77.0,48,30,10.0,100.0
4596,65.0,2,30,11.0,100.0
4597,65.0,3,30,12.0,100.0
4598,82.0,55,30,10.0,115.0
4599,70.0,2,30,11.0,115.0
4600,61.0,3,30,12.0,115.0
4601,58.0,4,30,13.0,100.0
4602,46.0,0,30,3.0,96.0
4603,46.0,0,30,14.0,100.0
4604,58.0,3,30,3.0,96.0
4605,73.0,48,30,10.0,100.0
4606,61.0,2,30,11.0,100.0
4607,61.0,3,30,12.0,100.0
4608,78.0,55,30,10.0,115.0
4609,66.0,2,30,11.0,115.0
4610,58.0,3,30,12.0,115.0
4611,54.0,4,30,13.0,100.0
4612,42.0,0,30,3.0,96.0
4613,42.0,0,30,14.0,100.0
4614,54.0,0,30,3.0,96.0
4615,70.0,48,30,10.0,100.0
4616,58.0,2,30,11.0,100.0
4617,58.0,3,30,12.0,100.0
4618,75.0,55,30,10.0,115.0
4619,63.0,2,30,11.0,115.0
4620,54.0,3,30,12.0,115.0
4621,51.0,4,30,13.0,100.0
4622,39.0,0,30,14.0,100.0
4623,51.0,3,30,3.0,96.0
4624,39.0,0,30,3.0,96.0
4625,66.0,48,30,10.0,100.0
4626,66.0,2,30,11.0,100.0
4627,54.0,3,30,12.0,100.0
4628,71.0,55,30,10.0,115.0
4629,59.0,0,30,11.0,115.0
4630,62.0,2,30,11.0,115.0
4631,50.0,3,30,12.0,115.0
4632,47.0,4,30,13.0,100.0
4633,35.0,0,30,3.0,96.0
4634,47.0,3,30,3.0,96.0
4635,35.0,0,30,14.0,100.0
4636,70.0,48,95,10.0,87.0
4637,58.0,1,95,11.0,87.0
4638,66.0,0,95,11.0,87.0
4639,49.0,1,95,12.0,87.0
4640,78.0,1,100,0.0,93.0
4641,42.0,3,95,13.0,87.0
4642,78.0,2,100,1.0,92.0
4643,66.0,1,100,2.0,93.0
4644,30.0,0,95,14.0,87.0
4645,30.0,3,95,3.0,96.0
4646,54.0,0,100,3.0,96.0
4647,77.0,109,60,0.0,93.0
4648,77.0,3,60,1.0,92.0
4649,65.0,2,60,2.0,93.0
4650,53.0,6,60,3.0,96.0
4651,78.0,49,50,0.0,93.0
4652,78.0,3,50,1.0,92.0
4653,66.0,2,50,2.0,93.0
4654,54.0,6,50,3.0,96.0
4655,79.0,49,100,0.0,93.0
4656,79.0,3,100,1.0,92.0
4657,67.0,2,100,2.0,93.0
4658,55.0,6,100,3.0,96.0
4659,78.0,1,40,0.0,93.0
4660,78.0,2,40,1.0,92.0
4661,66.0,1,40,2.0,93.0
4662,54.0,0,40,3.0,96.0
4663,66.0,0,60,10.0,100.0
4664,78.0,108,60,10.0,100.0
4665,66.0,1,60,11.0,100.0
4666,54.0,1,60,12.0,100.0
4667,54.0,3,60,13.0,100.0
4668,42.0,0,60,3.0,96.0
4669,42.0,3,60,14.0,100.0
4670,80.0,29,40,0.0,93.0
4671,80.0,3,40,1.0,92.0
4672,68.0,2,40,2.0,93.0
4673,56.0,6,40,3.0,96.0
4674,82.0,29,40,0.0,93.0
4675,82.0,3,40,1.0,92.0
4676,70.0,2,40,2.0,93.0
4677,58.0,6,40,3.0,96.0
4678,83.0,1,30,0.0,93.0
4679,83.0,2,30,1.0,92.0
4680,71.0,1,30,2.0,93.0
4681,59.0,3,30,3.0,96.0
4682,78.0,29,40,0.0,93.0
4683,78.0,3,40,1.0,92.0
4684,66.0,2,40,2.0,93.0
4685,54.0,6,40,3.0,96.0
4686,80.0,29,40,0.0,93.0
4687,80.0,3,40,1.0,92.0
4688,68.0,2,40,2.0,93.0
4689,56.0,6,40,3.0,96.0
4690,82.0,29,40,0.0,93.0
4691,82.0,3,40,1.0,92.0
4692,70.0,2,40,2.0,93.0
4693,58.0,6,40,3.0,96.0
4694,83.0,29,40,0.0,93.0
4695,83.0,3,40,1.0,92.0
4696,71.0,2,40,2.0,93.0
4697,83.0,28,210,10.0,115.0
4698,71.0,0,210,10.0,115.0
4699,71.0,0,210,11.0,115.0
4700,62.0,1,210,11.0,115.0
4701,59.0,6,40,3.0,96.0
4702,62.0,1,210,12.0,115.0
4703,54.0,0,210,12.0,115.0
4704,50.0,3,210,13.0,115.0
4705,38.0,0,210,14.0,115.0
4706,38.0,0,210,3.0,111.0
4707,85.0,29,40,0.0,93.0
4708,85.0,3,40,1.0,92.0
4709,73.0,2,40,2.0,93.0
4710,61.0,6,40,3.0,96.0
4711,86.0,1,30,0.0,93.0
4712,86.0,0,30,1.0,92.0
4713,74.0,1,30,2.0,93.0
4714,62.0,0,30,3.0,96.0
4715,83.0,29,40,0.0,93.0
4716,71.0,3,40,1.0,92.0
4717,71.0,2,40,2.0,93.0
4718,59.0,6,40,3.0,96.0
4719,85.0,29,40,0.0,93.0
4720,73.0,3,40,1.0,92.0
4721,73.0,2,40,2.0,93.0
4722,61.0,6,40,3.0,96.0
4723,86.0,29,40,0.0,93.0
4724,74.0,3,40,1.0,92.0
4725,74.0,2,40,2.0,93.0
4726,62.0,6,40,3.0,96.0
4727,88.0,29,40,0.0,93.0
4728,76.0,3,40,1.0,92.0
4729,76.0,2,40,2.0,93.0
4730,74.0,0,210,10.0,115.0
4731,86.0,28,210,10.0,115.0
4732,71.0,0,210,11.0,115.0
4733,64.0,6,40,3.0,96.0
4734,62.0,1,210,11.0,115.0
4735,54.0,1,210,12.0,115.0
4736,62.0,0,210,12.0,115.0
4737,47.0,3,210,13.0,115.0
4738,35.0,0,210,14.0,115.0
4739,35.0,3,210,3.0,111.0
4740,90.0,29,30,0.0,93.0
4741,78.0,3,30,1.0,92.0
4742,78.0,2,30,2.0,93.0
4743,66.0,6,30,3.0,96.0
4744,62.0,2,240,4.0,94.0
4745,79.0,0,30,10.0,100.0
4746,91.0,28,30,10.0,100.0
4747,71.0,1,30,11.0,100.0
4748,79.0,1,30,6.0,127.0
4749,55.0,0,30,12.0,100.0
4750,62.0,1,30,12.0,100.0
4751,62.0,0,45,4.0,94.0
4752,55.0,1,45,4.0,94.0
4753,67.0,1,45,5.0,94.0
4754,91.0,1,60,0.0,93.0
4755,79.0,0,60,1.0,92.0
4756,79.0,0,60,2.0,93.0
4757,67.0,0,60,3.0,96.0
4758,89.0,48,30,10.0,100.0
4759,77.0,0,30,10.0,100.0
4760,74.0,2,30,11.0,100.0
4761,79.0,1,30,6.0,127.0
4762,55.0,0,30,12.0,100.0
4763,62.0,1,30,12.0,100.0
4764,43.0,3,90,13.0,115.0
4765,31.0,0,90,3.0,111.0
4766,31.0,3,90,14.0,115.0
4767,55.0,1,45,4.0,94.0
4768,62.0,0,45,4.0,94.0
4769,65.0,1,45,5.0,94.0
4770,47.0,63,90,13.0,115.0
4771,35.0,0,90,14.0,115.0
4772,47.0,3,90,3.0,111.0
4773,35.0,0,90,3.0,111.0
4774,75.0,0,30,10.0,100.0
4775,87.0,108,30,10.0,100.0
4776,67.0,1,30,11.0,100.0
4777,60.0,0,30,6.0,127.0
4778,72.0,1,30,6.0,127.0
4779,55.0,0,30,12.0,100.0
4780,63.0,1,30,12.0,100.0
4781,55.0,1,45,4.0,94.0
4782,48.0,0,45,4.0,94.0
4783,63.0,0,45,5.0,94.0
4784,87.0,1,60,0.0,93.0
4785,79.0,0,60,0.0,93.0
4786,75.0,0,60,1.0,92.0
4787,67.0,0,60,1.0,92.0
4788,67.0,1,60,2.0,93.0
4789,75.0,0,60,2.0,93.0
4790,84.0,48,30,10.0,100.0
4791,72.0,0,30,10.0,100.0
4792,63.0,2,30,11.0,100.0
4793,60.0,0,30,6.0,127.0
4794,72.0,1,30,6.0,127.0
4795,63.0,1,30,12.0,100.0
4796,55.0,0,30,12.0,100.0
4797,48.0,3,90,13.0,115.0
4798,36.0,3,90,3.0,111.0
4799,36.0,0,90,14.0,115.0
4800,48.0,0,90,3.0,111.0
4801,48.0,0,45,4.0,94.0
4802,55.0,1,45,4.0,94.0
4803,60.0,1,45,5.0,94.0
4804,51.0,63,90,13.0,115.0
4805,39.0,0,90,3.0,111.0
4806,39.0,3,90,14.0,115.0
4807,51.0,0,90,3.0,111.0
4808,80.0,108,30,10.0,100.0
4809,92.0,0,30,10.0,100.0
4810,72.0,1,30,11.0,100.0
4811,77.0,1,30,6.0,127.0
4812,65.0,0,30,6.0,127.0
4813,60.0,0,30,12.0,100.0
4814,63.0,1,30,12.0,100.0
4815,48.0,1,45,4.0,94.0
4816,63.0,0,45,4.0,94.0
4817,68.0,0,45,5.0,94.0
4818,84.0,0,60,0.0,93.0
4819,92.0,1,60,0.0,93.0
4820,80.0,0,60,1.0,92.0
4821,72.0,0,60,1.0,92.0
4822,72.0,0,60,2.0,93.0
4823,80.0,1,60,2.0,93.0
4824,91.0,48,30,10.0,100.0
4825,79.0,0,30,10.0,100.0
4826,75.0,2,30,11.0,100.0
4827,65.0,0,30,6.0,127.0
4828,77.0,1,30,6.0,127.0
4829,63.0,1,30,12.0,100.0
4830,60.0,0,30,12.0,100.0
4831,53.0,3,90,13.0,115.0
4832,53.0,0,90,3.0,111.0
4833,41.0,0,90,3.0,111.0
4834,41.0,3,90,14.0,115.0
4835,63.0,1,45,4.0,94.0
4836,48.0,0,45,4.0,94.0
4837,67.0,1,45,5.0,94.0
4838,56.0,63,90,13.0,115.0
4839,44.0,0,90,14.0,115.0
4840,44.0,0,90,3.0,111.0
4841,56.0,0,90,3.0,111.0
4842,77.0,0,30,10.0,100.0
4843,89.0,108,30,10.0,100.0
4844,74.0,1,30,11.0,100.0
4845,77.0,1,30,6.0,127.0
4846,65.0,0,30,6.0,127.0
4847,53.0,0,30,12.0,100.0
4848,62.0,1,30,12.0,100.0
4849,58.0,0,45,4.0,94.0
4850,62.0,1,45,4.0,94.0
4851,65.0,1,45,5.0,94.0
4852,89.0,0,60,0.0,93.0
4853,86.0,1,60,0.0,93.0
4854,74.0,0,60,1.0,92.0
4855,77.0,0,60,1.0,92.0
4856,74.0,0,60,2.0,93.0
4857,77.0,0,60,2.0,93.0
4858,86.0,48,30,10.0,100.0
4859,74.0,0,30,10.0,100.0
4860,65.0,2,30,11.0,100.0
4861,65.0,1,30,6.0,127.0
4862,77.0,0,30,6.0,127.0
4863,62.0,1,30,12.0,100.0
4864,53.0,0,30,12.0,100.0
4865,58.0,3,90,13.0,115.0
4866,46.0,0,90,3.0,111.0
4867,46.0,0,90,14.0,115.0
4868,58.0,0,90,3.0,111.0
4869,62.0,0,45,4.0,94.0
4870,58.0,1,45,4.0,94.0
4871,62.0,1,45,5.0,94.0
4872,62.0,63,90,13.0,115.0
4873,50.0,0,90,3.0,111.0
4874,62.0,0,90,3.0,111.0
4875,50.0,0,90,14.0,115.0
4876,94.0,0,30,10.0,100.0
4877,82.0,108,30,10.0,100.0
4878,70.0,0,30,11.0,100.0
4879,74.0,1,30,11.0,100.0
4880,79.0,1,30,6.0,127.0
4881,62.0,1,30,12.0,100.0
4882,70.0,0,30,12.0,100.0
4883,43.0,0,45,4.0,94.0
4884,55.0,0,45,4.0,94.0
4885,62.0,1,45,5.0,94.0
4886,70.0,0,45,5.0,94.0
4887,86.0,1,60,0.0,93.0
4888,94.0,0,60,0.0,93.0
4889,82.0,1,60,1.0,92.0
4890,74.0,0,60,1.0,92.0
4891,74.0,0,60,2.0,93.0
4892,70.0,0,60,2.0,93.0
4893,79.0,48,30,10.0,100.0
4894,91.0,0,30,10.0,100.0
4895,70.0,0,30,11.0,100.0
4896,74.0,2,30,11.0,100.0
4897,79.0,1,30,6.0,127.0
4898,62.0,0,30,12.0,100.0
4899,70.0,1,30,12.0,100.0
4900,67.0,3,90,13.0,115.0
4901,67.0,0,90,3.0,111.0
4902,55.0,0,90,3.0,111.0
4903,55.0,0,90,14.0,115.0
4904,43.0,1,45,4.0,94.0
4905,55.0,0,45,4.0,94.0
4906,67.0,0,45,5.0,94.0
4907,62.0,1,45,5.0,94.0
4908,65.0,63,90,13.0,115.0
4909,53.0,0,90,14.0,115.0
4910,65.0,0,90,3.0,111.0
4911,53.0,0,90,3.0,111.0
4912,84.0,0,30,10.0,100.0
4913,96.0,108,30,10.0,100.0
4914,72.0,1,30,11.0,100.0
4915,79.0,0,30,11.0,100.0
4916,60.0,1,30,6.0,127.0
4917,72.0,0,30,6.0,127.0
4918,67.0,1,30,12.0,100.0
4919,60.0,0,30,12.0,100.0
4920,48.0,0,45,4.0,94.0
4921,60.0,0,45,4.0,94.0
4922,72.0,1,45,5.0,94.0
4923,64.0,0,45,5.0,94.0
4924,84.0,1,60,0.0,93.0
4925,91.0,0,60,0.0,93.0
4926,84.0,1,60,1.0,92.0
4927,79.0,0,60,1.0,92.0
4928,79.0,0,60,2.0,93.0
4929,72.0,0,60,2.0,93.0
4930,92.0,0,30,10.0,100.0
4931,80.0,48,30,10.0,100.0
4932,80.0,0,30,11.0,100.0
4933,72.0,2,30,11.0,100.0
4934,72.0,0,30,6.0,127.0
4935,60.0,1,30,6.0,127.0
4936,60.0,1,30,12.0,100.0
4937,68.0,0,30,12.0,100.0
4938,64.0,3,90,13.0,115.0
4939,52.0,0,90,3.0,111.0
4940,52.0,0,90,14.0,115.0
4941,64.0,0,90,3.0,111.0
4942,48.0,1,45,4.0,94.0
4943,60.0,0,45,4.0,94.0
4944,68.0,0,45,5.0,94.0
4945,64.0,1,45,5.0,94.0
4946,60.0,63,90,13.0,115.0
4947,48.0,0,90,3.0,111.0
4948,60.0,3,90,3.0,111.0
4949,48.0,0,90,14.0,115.0
4950,77.0,108,30,10.0,100.0
4951,89.0,0,30,10.0,100.0
4952,68.0,1,30,11.0,100.0
4953,65.0,0,30,11.0,100.0
4954,77.0,1,30,6.0,127.0
4955,62.0,0,30,12.0,100.0
4956,65.0,1,30,12.0,100.0
4957,62.0,0,45,4.0,94.0
4958,65.0,0,45,4.0,94.0
4959,65.0,0,45,5.0,94.0
4960,89.0,0,60,0.0,93.0
4961,92.0,1,60,0.0,93.0
4962,80.0,0,60,1.0,92.0
4963,77.0,1,60,1.0,92.0
4964,77.0,0,60,2.0,93.0
4965,68.0,1,60,2.0,93.0
4966,74.0,0,30,10.0,100.0
4967,86.0,48,30,10.0,100.0
4968,68.0,2,30,11.0,100.0
4969,65.0,0,30,11.0,100.0
4970,77.0,1,30,6.0,127.0
4971,62.0,1,30,12.0,100.0
4972,65.0,0,30,12.0,100.0
4973,62.0,3,90,13.0,115.0
4974,50.0,0,90,14.0,115.0
4975,50.0,0,90,3.0,111.0
4976,62.0,0,90,3.0,111.0
4977,65.0,1,45,4.0,94.0
4978,62.0,0,45,4.0,94.0
4979,62.0,1,45,5.0,94.0
4980,60.0,63,90,13.0,115.0
4981,60.0,0,90,3.0,111.0
4982,48.0,0,90,3.0,111.0
4983,48.0,0,90,14.0,115.0
4984,79.0,108,30,10.0,100.0
4985,91.0,0,30,10.0,100.0
4986,74.0,0,30,11.0,100.0
4987,67.0,1,30,11.0,100.0
4988,79.0,1,30,6.0,127.0
4989,62.0,1,30,12.0,100.0
4990,67.0,0,30,12.0,100.0
4991,62.0,0,45,4.0,94.0
4992,55.0,0,45,4.0,94.0
4993,67.0,0,45,5.0,94.0
4994,91.0,0,60,0.0,93.0
4995,86.0,1,60,0.0,93.0
4996,79.0,1,60,1.0,92.0
4997,74.0,0,60,1.0,92.0
4998,74.0,1,60,2.0,93.0
4999,79.0,0,60,2.0,93.0
5000,75.0,0,30,10.0,100.0
5001,87.0,48,30,10.0,100.0
5002,75.0,0,30,11.0,100.0
5003,67.0,2,30,11.0,100.0
5004,79.0,1,30,6.0,127.0
5005,63.0,1,30,12.0,100.0
5006,67.0,0,30,12.0,100.0
5007,59.0,3,90,13.0,115.0
5008,59.0,0,90,3.0,111.0
5009,47.0,3,90,14.0,115.0
5010,47.0,0,90,3.0,111.0
5011,55.0,0,45,4.0,94.0
5012,63.0,1,45,4.0,94.0
5013,63.0,1,45,5.0,94.0
5014,55.0,63,90,13.0,115.0
5015,43.0,3,90,14.0,115.0
5016,43.0,0,90,3.0,111.0
5017,55.0,0,90,3.0,111.0
5018,60.0,1,30,11.0,100.0
5019,63.0,0,30,11.0,100.0
5020,60.0,0,30,6.0,104.0
5021,72.0,1,30,6.0,104.0
5022,56.0,3,30,13.0,100.0
5023,44.0,0,30,3.0,96.0
5024,56.0,0,30,3.0,96.0
5025,44.0,0,30,14.0,100.0
5026,63.0,1,45,4.0,94.0
5027,60.0,0,45,4.0,94.0
5028,60.0,1,45,5.0,94.0
5029,56.0,0,45,5.0,94.0
5030,84.0,1,60,0.0,93.0
5031,72.0,0,60,1.0,92.0
5032,72.0,0,60,2.0,93.0
5033,60.0,50,30,11.0,100.0
5034,63.0,0,30,11.0,100.0
5035,60.0,0,30,6.0,102.0
5036,72.0,1,30,6.0,102.0
5037,55.0,3,30,13.0,100.0
5038,43.0,0,30,14.0,100.0
5039,55.0,3,30,3.0,96.0
5040,43.0,0,30,3.0,96.0
5041,60.0,1,45,4.0,93.0
5042,63.0,0,45,4.0,93.0
5043,56.0,2,45,5.0,93.0
5044,60.0,0,45,5.0,93.0
5045,72.0,108,120,10.0,100.0
5046,60.0,1,120,12.0,100.0
5047,71.0,48,60,10.0,100.0
5048,59.0,5,60,12.0,100.0
5049,72.0,55,60,10.0,100.0
5050,60.0,5,60,12.0,100.0
5051,68.0,0,30,11.0,100.0
5052,65.0,2,30,11.0,100.0
5053,65.0,1,30,6.0,95.0
5054,77.0,0,30,6.0,95.0
5055,53.0,3,30,13.0,100.0
5056,41.0,0,30,3.0,96.0
5057,53.0,0,30,3.0,96.0
5058,41.0,3,30,14.0,100.0
5059,61.0,0,45,4.0,89.0
5060,65.0,1,45,4.0,89.0
5061,56.0,0,45,5.0,89.0
5062,53.0,1,45,5.0,89.0
5063,73.0,55,60,10.0,100.0
5064,61.0,1,60,12.0,100.0
5065,65.0,50,30,11.0,100.0
5066,68.0,0,30,11.0,100.0
5067,65.0,0,30,6.0,93.0
5068,77.0,1,30,6.0,93.0
5069,49.0,3,30,13.0,100.0
5070,37.0,0,30,3.0,96.0
5071,49.0,3,30,3.0,96.0
5072,37.0,0,30,14.0,100.0
5073,61.0,0,45,4.0,88.0
5074,65.0,1,45,4.0,88.0
5075,53.0,0,45,5.0,88.0
5076,56.0,2,45,5.0,88.0
5077,83.0,108,45,10.0,100.0
5078,71.0,5,45,12.0,100.0
5079,76.0,2,30,11.0,100.0
5080,67.0,0,30,11.0,100.0
5081,72.0,0,30,6.0,85.0
5082,60.0,1,30,6.0,85.0
5083,48.0,3,30,13.0,100.0
5084,36.0,3,30,14.0,100.0
5085,36.0,0,30,3.0,96.0
5086,48.0,0,30,3.0,96.0
5087,60.0,1,45,4.0,84.0
5088,64.0,0,45,4.0,84.0
5089,48.0,0,45,5.0,84.0
5090,60.0,1,45,5.0,84.0
5091,67.0,0,30,11.0,100.0
5092,76.0,50,30,11.0,100.0
5093,60.0,0,30,6.0,83.0
5094,72.0,1,30,6.0,83.0
5095,46.0,3,30,13.0,100.0
5096,34.0,0,30,3.0,96.0
5097,34.0,0,30,14.0,100.0
5098,46.0,0,30,3.0,96.0
5099,60.0,0,45,4.0,83.0
5100,64.0,1,45,4.0,83.0
5101,60.0,2,45,5.0,83.0
5102,48.0,0,45,5.0,83.0
5103,84.0,55,120,10.0,100.0
5104,72.0,1,120,12.0,100.0
5105,83.0,48,60,10.0,100.0
5106,71.0,5,60,12.0,100.0
5107,84.0,55,60,10.0,100.0
5108,72.0,5,60,12.0,100.0
5109,68.0,0,30,11.0,100.0
5110,77.0,2,30,11.0,100.0
5111,77.0,0,30,6.0,76.0
5112,65.0,1,30,6.0,76.0
5113,44.0,3,30,13.0,100.0
5114,32.0,0,30,3.0,96.0
5115,44.0,0,30,3.0,96.0
5116,32.0,0,30,14.0,100.0
5117,61.0,1,45,4.0,79.0
5118,65.0,0,45,4.0,79.0
5119,53.0,1,45,5.0,79.0
5120,56.0,0,45,5.0,79.0
5121,85.0,55,60,10.0,100.0
5122,73.0,1,60,12.0,100.0
5123,68.0,50,30,11.0,100.0
5124,77.0,0,30,11.0,100.0
5125,65.0,1,30,6.0,75.0
5126,77.0,0,30,6.0,75.0
5127,41.0,3,30,13.0,100.0
5128,29.0,0,30,3.0,96.0
5129,29.0,0,30,14.0,100.0
5130,41.0,0,30,3.0,96.0
5131,61.0,0,45,4.0,78.0
5132,65.0,1,45,4.0,78.0
5133,56.0,2,45,5.0,78.0
5134,53.0,0,45,5.0,78.0
5135,59.0,108,30,10.0,100.0
5136,59.0,2,30,11.0,100.0
5137,53.0,3,30,12.0,100.0
5138,48.0,0,45,5.0,74.0
5139,60.0,1,45,5.0,74.0
5140,60.0,55,60,10.0,100.0
5141,60.0,2,60,11.0,100.0
5142,60.0,0,60,6.0,68.0
5143,72.0,1,60,6.0,68.0
5144,51.0,1,60,12.0,100.0
5145,44.0,3,60,13.0,100.0
5146,32.0,3,60,3.0,96.0
5147,32.0,0,60,14.0,100.0
5148,60.0,1,120,4.0,94.0
5149,48.0,0,120,3.0,96.0
5150,60.0,0,120,3.0,96.0
5151,59.0,112,60,4.0,94.0
5152,47.0,0,60,3.0,96.0
5153,59.0,8,60,3.0,96.0
5154,60.0,52,60,4.0,94.0
5155,48.0,8,60,3.0,96.0
5156,60.0,0,60,3.0,96.0
5157,29.0,0,60,3.0,96.0
5158,56.0,48,120,10.0,80.0
5159,56.0,3,120,11.0,80.0
5160,53.0,3,120,12.0,79.0
5161,41.0,4,120,13.0,79.0
5162,29.0,3,120,14.0,81.0
5163,28.0,3,60,3.0,96.0
5164,55.0,223,120,10.0,74.0
5165,55.0,2,120,11.0,73.0
5166,43.0,0,120,13.0,71.0
5167,52.0,7,120,12.0,71.0
5168,40.0,2,120,13.0,74.0
5169,28.0,1,120,14.0,72.0
5170,29.0,2,60,3.0,96.0
5171,56.0,107,120,10.0,63.0
5172,56.0,2,120,11.0,63.0
5173,53.0,2,120,12.0,63.0
5174,44.0,5,120,13.0,65.0
5175,41.0,0,120,13.0,63.0
5176,29.0,1,120,14.0,63.0
5177,71.0,112,120,1.0,79.0
5178,68.0,0,120,1.0,79.0
5179,59.0,2,120,2.0,80.0
5180,56.0,0,120,2.0,80.0
5181,70.0,0,60,1.0,76.0
5182,67.0,118,60,1.0,76.0
5183,58.0,2,60,2.0,77.0
5184,55.0,0,60,2.0,77.0
5185,68.0,58,45,1.0,74.0
5186,71.0,0,45,1.0,74.0
5187,59.0,0,45,2.0,75.0
5188,56.0,2,45,2.0,75.0
5189,83.0,0,120,0.0,73.0
5190,80.0,55,120,0.0,73.0
5191,68.0,0,120,2.0,73.0
5192,71.0,5,120,2.0,73.0
5193,79.0,115,60,0.0,71.0
5194,82.0,0,60,0.0,71.0
5195,67.0,0,60,2.0,71.0
5196,70.0,5,60,2.0,71.0
5197,80.0,55,45,0.0,69.0
5198,83.0,0,45,0.0,69.0
5199,71.0,5,45,2.0,69.0
5200,68.0,0,45,2.0,69.0
5201,68.0,58,120,1.0,66.0
5202,71.0,0,120,1.0,66.0
5203,56.0,2,120,2.0,67.0
5204,59.0,0,120,2.0,67.0
5205,70.0,118,60,1.0,63.0
5206,67.0,0,60,1.0,63.0
5207,55.0,0,60,2.0,64.0
5208,58.0,2,60,2.0,64.0
5209,68.0,0,45,1.0,55.0
5210,71.0,58,45,1.0,55.0
5211,56.0,2,45,2.0,56.0
5212,59.0,0,45,2.0,56.0
5213,56.0,53,120,10.0,58.0
5214,56.0,1,120,11.0,57.0
5215,61.0,1,1320,4.0,94.0
5216,53.0,6,120,12.0,56.0
5217,41.0,1,120,13.0,57.0
5218,44.0,2,120,13.0,56.0
5219,41.0,5,120,14.0,56.0
5220,49.0,0,1440,3.0,96.0
5221,61.0,1,1440,3.0,96.0
5222,55.0,228,120,10.0,51.0
5223,55.0,1,120,11.0,52.0
5224,52.0,0,120,12.0,52.0
5225,43.0,4,120,13.0,52.0
5226,40.0,3,120,13.0,51.0
5227,40.0,0,120,14.0,51.0
5228,56.0,106,120,10.0,48.0
5229,56.0,4,120,11.0,46.0
5230,53.0,2,120,12.0,46.0
5231,44.0,3,120,13.0,48.0
5232,41.0,3,120,13.0,46.0
5233,41.0,2,120,14.0,45.0
5234,59.0,0,240,3.0,96.0
5235,47.0,2,240,3.0,96.0
5236,60.0,109,120,10.0,42.0
5237,84.0,0,120,0.0,73.0
5238,60.0,3,120,11.0,42.0
5239,48.0,1,120,12.0,42.0
5240,72.0,1,120,2.0,73.0
5241,36.0,3,120,13.0,40.0
5242,48.0,2,120,13.0,42.0
5243,60.0,1,120,3.0,76.0
5244,36.0,2,120,14.0,43.0
5245,83.0,107,60,0.0,78.0
5246,71.0,5,60,2.0,78.0
5247,59.0,6,60,3.0,81.0
5248,84.0,49,60,0.0,80.0
5249,72.0,5,60,2.0,80.0
5250,60.0,6,60,3.0,83.0
5251,61.0,47,120,10.0,40.0
5252,85.0,2,120,0.0,87.0
5253,61.0,3,120,11.0,43.0
5254,73.0,2,120,2.0,87.0
5255,49.0,1,120,12.0,42.0
5256,49.0,0,120,13.0,43.0
5257,61.0,5,120,3.0,90.0
5258,37.0,0,120,14.0,41.0
5259,84.0,109,60,0.0,88.0
5260,72.0,5,60,2.0,88.0
5261,60.0,6,60,3.0,91.0
5262,85.0,49,50,0.0,90.0
5263,73.0,5,50,2.0,90.0
5264,61.0,6,50,3.0,93.0
5265,89.0,3,60,0.0,108.0
5266,77.0,1,60,2.0,108.0
5267,65.0,1,60,3.0,111.0
5268,65.0,46,120,10.0,41.0
5269,92.0,49,60,0.0,98.0
5270,65.0,1,120,11.0,40.0
5271,53.0,3,120,12.0,40.0
5272,80.0,5,60,2.0,98.0
5273,53.0,5,120,13.0,42.0
5274,41.0,0,120,14.0,41.0
5275,68.0,6,60,3.0,101.0
5276,91.0,49,60,0.0,93.0
5277,79.0,5,60,2.0,93.0
5278,67.0,6,60,3.0,96.0
5279,89.0,49,60,0.0,88.0
5280,77.0,5,60,2.0,88.0
5281,65.0,6,60,3.0,91.0
5282,91.0,3,60,0.0,103.0
5283,79.0,4,60,2.0,103.0
5284,67.0,5,60,3.0,106.0
5285,67.0,46,120,10.0,40.0
5286,89.0,47,60,0.0,91.0
5287,67.0,1,120,11.0,40.0
5288,55.0,0,120,12.0,41.0
5289,77.0,5,60,2.0,91.0
5290,55.0,1,120,13.0,40.0
5291,65.0,6,60,3.0,94.0
5292,43.0,2,120,14.0,41.0
5293,87.0,49,60,0.0,86.0
5294,75.0,5,60,2.0,86.0
5295,63.0,6,60,3.0,89.0
5296,85.0,49,50,0.0,79.0
5297,73.0,5,50,2.0,79.0
5298,61.0,6,50,3.0,82.0
5299,84.0,49,120,0.0,98.0
5300,60.0,1,120,10.0,41.0
5301,60.0,2,120,11.0,40.0
5302,48.0,1,120,12.0,43.0
5303,72.0,1,120,2.0,98.0
5304,48.0,5,120,13.0,41.0
5305,36.0,1,120,14.0,41.0
5306,60.0,0,120,3.0,101.0
5307,83.0,109,60,0.0,93.0
5308,71.0,5,60,2.0,93.0
5309,59.0,6,60,3.0,96.0
5310,84.0,49,60,0.0,93.0
5311,72.0,5,60,2.0,93.0
5312,60.0,6,60,3.0,96.0
5313,61.0,46,120,10.0,40.0
5314,85.0,3,120,0.0,98.0
5315,61.0,2,120,11.0,43.0
5316,49.0,3,120,12.0,40.0
5317,73.0,0,120,2.0,98.0
5318,49.0,1,120,13.0,42.0
5319,61.0,5,120,3.0,101.0
5320,37.0,2,120,14.0,41.0
5321,84.0,107,60,0.0,93.0
5322,72.0,5,60,2.0,93.0
5323,60.0,6,60,3.0,96.0
5324,85.0,49,50,0.0,93.0
5325,73.0,5,50,2.0,93.0
5326,61.0,6,50,3.0,96.0
5327,82.0,3,60,0.0,98.0
5328,70.0,1,60,2.0,98.0
5329,58.0,2,60,3.0,101.0
5330,58.0,46,120,10.0,41.0
5331,80.0,48,60,0.0,93.0
5332,58.0,3,120,11.0,43.0
5333,58.0,1,120,12.0,41.0
5334,68.0,5,60,2.0,93.0
5335,46.0,4,120,13.0,41.0
5336,56.0,6,60,3.0,96.0
5337,34.0,1,120,14.0,42.0
5338,79.0,49,60,0.0,93.0
5339,67.0,5,60,2.0,93.0
5340,55.0,6,60,3.0,96.0
5341,77.0,49,60,0.0,93.0
5342,65.0,5,60,2.0,93.0
5343,53.0,6,60,3.0,96.0
5344,60.0,48,120,10.0,36.0
5345,60.0,2,120,11.0,35.0
5346,60.0,3,120,12.0,36.0
5347,48.0,2,120,13.0,36.0
5348,36.0,2,120,14.0,37.0
5349,84.0,1,165,0.0,79.0
5350,72.0,0,165,2.0,79.0
5351,60.0,2,165,3.0,82.0
5352,85.0,169,60,0.0,93.0
5353,61.0,4,60,12.0,100.0
5354,73.0,1,60,2.0,93.0
5355,49.0,3,60,13.0,100.0
5356,37.0,3,60,14.0,100.0
5357,82.0,49,60,0.0,93.0
5358,58.0,4,60,12.0,100.0
5359,70.0,1,60,2.0,93.0
5360,46.0,3,60,13.0,100.0
5361,34.0,3,60,14.0,100.0
5362,80.0,49,60,0.0,93.0
5363,56.0,4,60,12.0,100.0
5364,68.0,1,60,2.0,93.0
5365,44.0,3,60,13.0,100.0
5366,32.0,3,60,14.0,100.0
5367,79.0,49,60,0.0,93.0
5368,55.0,4,60,12.0,100.0
5369,67.0,1,60,2.0,93.0
5370,43.0,3,60,13.0,100.0
5371,31.0,3,60,14.0,100.0
5372,77.0,49,60,0.0,80.0
5373,77.0,3,60,1.0,79.0
5374,53.0,1,60,12.0,100.0
5375,65.0,1,60,2.0,80.0
5376,41.0,3,60,13.0,100.0
5377,29.0,3,60,14.0,100.0
5378,65.0,0,60,3.0,83.0
5379,75.0,52,60,1.0,92.0
5380,63.0,0,60,3.0,96.0
5381,73.0,52,60,1.0,92.0
5382,61.0,8,60,3.0,96.0
5383,72.0,52,60,1.0,92.0
5384,60.0,8,60,3.0,96.0
5385,70.0,52,60,1.0,79.0
5386,70.0,2,60,2.0,80.0
5387,58.0,6,60,3.0,96.0
5388,68.0,54,60,2.0,93.0
5389,56.0,6,60,3.0,96.0
5390,67.0,54,60,2.0,93.0
5391,55.0,6,60,3.0,96.0
5392,65.0,54,60,2.0,93.0
5393,53.0,6,60,3.0,96.0
5394,60.0,1,480,12.0,100.0
5395,63.0,54,60,2.0,93.0
5396,48.0,4,480,13.0,100.0
5397,36.0,3,480,14.0,100.0
5398,51.0,6,60,3.0,96.0
5399,61.0,1,60,2.0,93.0
5400,49.0,3,60,3.0,96.0
5401,60.0,54,60,2.0,93.0
5402,48.0,6,60,3.0,96.0
5403,58.0,54,60,2.0,93.0
5404,46.0,6,60,3.0,96.0
5405,59.0,54,45,2.0,93.0
5406,47.0,6,45,3.0,96.0
5407,65.0,48,240,10.0,100.0
5408,65.0,2,240,11.0,100.0
5409,53.0,3,240,12.0,100.0
5410,49.0,3,240,13.0,100.0
5411,37.0,0,240,14.0,100.0
5412,64.0,48,240,10.0,100.0
5413,64.0,2,240,11.0,100.0
5414,48.0,3,240,13.0,100.0
5415,36.0,0,240,14.0,100.0
5416,52.0,3,480,12.0,100.0
5417,46.0,7,240,13.0,100.0
5418,34.0,3,240,14.0,100.0
5419,60.0,228,470,10.0,100.0
5420,60.0,2,470,11.0,100.0
5421,53.0,233,230,12.0,100.0
5422,44.0,4,230,13.0,100.0
5423,32.0,3,230,14.0,100.0
5424,60.0,1,720,2.0,93.0
5425,48.0,3,720,3.0,96.0
5426,65.0,228,240,10.0,100.0
5427,89.0,1,240,0.0,93.0
5428,85.0,0,240,0.0,93.0
5429,61.0,1,240,11.0,100.0
5430,73.0,0,240,2.0,93.0
5431,77.0,1,240,2.0,93.0
5432,49.0,3,240,13.0,100.0
5433,37.0,0,240,14.0,100.0
5434,87.0,1,225,0.0,93.0
5435,92.0,0,225,0.0,93.0
5436,51.0,0,465,4.0,94.0
5437,63.0,2,465,4.0,94.0
5438,75.0,0,225,2.0,93.0
5439,80.0,4,225,2.0,93.0
5440,44.0,0,465,3.0,96.0
5441,56.0,3,465,3.0,96.0
5442,68.0,228,240,10.0,100.0
5443,63.0,1,240,11.0,100.0
5444,56.0,1,480,12.0,100.0
5445,48.0,3,240,13.0,100.0
5446,36.0,3,240,14.0,100.0
5447,73.0,232,240,1.0,92.0
5448,76.0,0,240,1.0,92.0
5449,64.0,0,240,2.0,93.0
5450,61.0,2,240,2.0,93.0
5451,49.0,0,240,3.0,96.0
5452,51.0,0,480,4.0,94.0
5453,80.0,0,240,1.0,92.0
5454,63.0,0,480,4.0,94.0
5455,75.0,232,240,1.0,92.0
5456,63.0,0,240,2.0,93.0
5457,68.0,2,240,2.0,93.0
5458,48.0,6,240,3.0,96.0
5459,56.0,6,480,3.0,96.0
5460,65.0,228,240,10.0,100.0
5461,56.0,2,240,11.0,100.0
5462,51.0,0,240,4.0,94.0
5463,48.0,2,240,4.0,94.0
5464,53.0,1,240,12.0,100.0
5465,49.0,4,240,13.0,100.0
5466,37.0,3,240,14.0,100.0
5467,64.0,228,240,10.0,100.0
5468,48.0,4,240,13.0,100.0
5469,36.0,3,240,14.0,100.0
5470,43.0,0,0,4.0,81.0
5471,55.0,232,0,4.0,81.0
5472,52.0,1,480,12.0,100.0
5473,46.0,9,240,13.0,100.0
5474,34.0,3,240,14.0,100.0
5475,60.0,228,480,10.0,100.0
5476,60.0,2,720,11.0,100.0
5477,44.0,4,240,13.0,100.0
5478,32.0,3,240,14.0,100.0
5479,62.0,228,230,10.0,100.0
5480,56.0,2,230,11.0,100.0
5481,53.0,1,470,12.0,100.0
5482,41.0,7,230,13.0,100.0
5483,29.0,3,230,14.0,100.0
5484,63.0,228,30,10.0,85.0
5485,60.0,1,30,11.0,85.0
5486,54.0,1,30,12.0,85.0
5487,48.0,3,30,13.0,85.0
5488,36.0,0,30,14.0,85.0
5489,84.0,0,60,0.0,93.0
5490,72.0,1,60,0.0,93.0
5491,72.0,1,60,2.0,93.0
5492,60.0,0,60,2.0,93.0
5493,64.0,48,30,10.0,85.0
5494,60.0,2,30,11.0,85.0
5495,55.0,3,30,12.0,85.0
5496,48.0,4,30,13.0,85.0
5497,36.0,3,30,14.0,85.0
5498,72.0,2,120,1.0,72.0
5499,60.0,3,120,3.0,76.0
5500,71.0,52,60,1.0,77.0
5501,59.0,8,60,3.0,81.0
5502,72.0,52,60,1.0,79.0
5503,60.0,8,60,3.0,83.0
5504,64.0,48,30,10.0,85.0
5505,61.0,1,30,11.0,85.0
5506,55.0,1,30,12.0,85.0
5507,53.0,3,30,13.0,85.0
5508,41.0,3,30,14.0,85.0
5509,85.0,1,60,0.0,93.0
5510,73.0,0,60,0.0,93.0
5511,73.0,0,60,2.0,93.0
5512,61.0,1,60,2.0,93.0
5513,65.0,48,30,10.0,85.0
5514,61.0,2,30,11.0,85.0
5515,56.0,3,30,12.0,85.0
5516,53.0,4,30,13.0,85.0
5517,41.0,3,30,14.0,85.0
5518,73.0,2,120,1.0,82.0
5519,61.0,0,120,3.0,86.0
5520,72.0,52,60,1.0,87.0
5521,60.0,8,60,3.0,91.0
5522,73.0,52,50,1.0,89.0
5523,61.0,8,50,3.0,93.0
5524,71.0,48,30,10.0,85.0
5525,65.0,1,30,11.0,85.0
5526,59.0,1,30,12.0,85.0
5527,44.0,3,30,13.0,85.0
5528,32.0,3,30,14.0,85.0
5529,89.0,0,60,0.0,93.0
5530,77.0,1,60,0.0,93.0
5531,77.0,2,60,1.0,102.0
5532,65.0,0,60,2.0,93.0
5533,77.0,1,60,2.0,93.0
5534,65.0,0,60,3.0,106.0
5535,72.0,48,30,10.0,85.0
5536,65.0,2,30,11.0,85.0
5537,60.0,1,30,12.0,85.0
5538,44.0,4,30,13.0,85.0
5539,32.0,3,30,14.0,85.0
5540,80.0,2,60,1.0,97.0
5541,68.0,0,60,3.0,101.0
5542,79.0,52,60,1.0,92.0
5543,67.0,8,60,3.0,96.0
5544,77.0,52,60,1.0,87.0
5545,65.0,8,60,3.0,91.0
5546,72.0,48,30,10.0,85.0
5547,65.0,1,30,11.0,85.0
5548,60.0,1,30,12.0,85.0
5549,46.0,3,30,13.0,85.0
5550,34.0,0,30,14.0,85.0
5551,79.0,1,60,0.0,93.0
5552,91.0,0,60,0.0,93.0
5553,79.0,2,60,1.0,97.0
5554,67.0,1,60,2.0,93.0
5555,79.0,0,60,2.0,93.0
5556,67.0,3,60,3.0,101.0
5557,73.0,48,30,10.0,85.0
5558,65.0,2,30,11.0,85.0
5559,61.0,1,30,12.0,85.0
5560,46.0,4,30,13.0,85.0
5561,34.0,0,30,14.0,85.0
5562,77.0,2,60,1.0,90.0
5563,65.0,3,60,3.0,94.0
5564,75.0,52,60,1.0,85.0
5565,63.0,8,60,3.0,89.0
5566,73.0,52,50,1.0,78.0
5567,61.0,8,50,3.0,82.0
5568,66.0,48,30,10.0,85.0
5569,63.0,1,30,11.0,85.0
5570,60.0,1,30,12.0,85.0
5571,48.0,3,30,13.0,85.0
5572,36.0,3,30,14.0,85.0
5573,84.0,1,60,0.0,93.0
5574,72.0,0,60,0.0,93.0
5575,60.0,0,60,2.0,93.0
5576,72.0,1,60,2.0,93.0
5577,67.0,48,30,10.0,85.0
5578,64.0,2,30,11.0,85.0
5579,60.0,3,30,12.0,85.0
5580,48.0,4,30,13.0,85.0
5581,36.0,3,30,14.0,85.0
5582,72.0,2,120,1.0,92.0
5583,60.0,0,120,3.0,96.0
5584,71.0,52,60,1.0,92.0
5585,59.0,8,60,3.0,96.0
5586,72.0,52,60,1.0,92.0
5587,60.0,8,60,3.0,96.0
5588,64.0,48,30,10.0,85.0
5589,55.0,1,30,11.0,85.0
5590,61.0,1,30,12.0,85.0
5591,53.0,3,30,13.0,85.0
5592,41.0,0,30,14.0,85.0
5593,73.0,0,60,0.0,93.0
5594,85.0,1,60,0.0,93.0
5595,61.0,0,60,2.0,93.0
5596,73.0,1,60,2.0,93.0
5597,65.0,48,30,10.0,85.0
5598,56.0,2,30,11.0,85.0
5599,61.0,3,30,12.0,85.0
5600,53.0,4,30,13.0,85.0
5601,41.0,3,30,14.0,85.0
5602,73.0,2,120,1.0,92.0
5603,61.0,3,120,3.0,96.0
5604,72.0,52,60,1.0,92.0
5605,60.0,8,60,3.0,96.0
5606,73.0,52,50,1.0,92.0
5607,61.0,8,50,3.0,96.0
5608,64.0,48,30,10.0,85.0
5609,58.0,1,30,11.0,85.0
5610,52.0,1,30,12.0,85.0
5611,49.0,3,30,13.0,85.0
5612,37.0,0,30,14.0,85.0
5613,70.0,0,60,0.0,93.0
5614,82.0,1,60,0.0,93.0
5615,70.0,2,60,1.0,92.0
5616,70.0,0,60,2.0,93.0
5617,58.0,1,60,2.0,93.0
5618,58.0,3,60,3.0,96.0
5619,65.0,48,30,10.0,85.0
5620,58.0,2,30,11.0,85.0
5621,53.0,1,30,12.0,85.0
5622,49.0,4,30,13.0,85.0
5623,37.0,0,30,14.0,85.0
5624,68.0,2,60,1.0,92.0
5625,56.0,3,60,3.0,96.0
5626,67.0,52,60,1.0,92.0
5627,55.0,8,60,3.0,96.0
5628,65.0,52,60,1.0,92.0
5629,53.0,8,60,3.0,96.0
5630,63.0,48,30,10.0,85.0
5631,60.0,1,30,11.0,85.0
5632,54.0,1,30,12.0,85.0
5633,48.0,3,30,13.0,85.0
5634,36.0,3,30,14.0,85.0
5635,84.0,0,60,0.0,93.0
5636,72.0,1,60,0.0,93.0
5637,72.0,0,60,2.0,93.0
5638,60.0,1,60,2.0,93.0
5639,64.0,48,30,10.0,85.0
5640,60.0,2,30,11.0,85.0
5641,55.0,3,30,12.0,85.0
5642,48.0,4,30,13.0,85.0
5643,36.0,3,30,14.0,85.0
5644,72.0,2,165,1.0,92.0
5645,60.0,0,165,3.0,96.0
5646,73.0,112,60,1.0,92.0
5647,61.0,8,60,3.0,96.0
5648,64.0,48,30,10.0,85.0
5649,58.0,2,30,11.0,85.0
5650,52.0,1,30,12.0,85.0
5651,49.0,4,30,13.0,85.0
5652,37.0,3,30,14.0,85.0
5653,70.0,2,60,1.0,92.0
5654,58.0,0,60,3.0,96.0
5655,65.0,48,30,10.0,85.0
5656,58.0,2,30,11.0,85.0
5657,53.0,1,30,12.0,85.0
5658,49.0,4,30,13.0,85.0
5659,37.0,3,30,14.0,85.0
5660,68.0,2,60,1.0,92.0
5661,56.0,0,60,3.0,96.0
5662,67.0,52,60,1.0,92.0
5663,55.0,8,60,3.0,96.0
5664,65.0,52,45,1.0,92.0
5665,53.0,8,45,3.0,96.0
5666,59.0,48,30,10.0,85.0
5667,59.0,2,30,11.0,85.0
5668,53.0,1,30,12.0,85.0
5669,44.0,4,30,13.0,85.0
5670,32.0,3,30,14.0,85.0
5671,60.0,48,30,10.0,85.0
5672,60.0,2,30,11.0,85.0
5673,53.0,3,30,12.0,85.0
5674,44.0,4,30,13.0,85.0
5675,32.0,3,30,14.0,85.0
5676,77.0,2,165,1.0,92.0
5677,65.0,0,165,3.0,96.0
5678,72.0,112,60,1.0,92.0
5679,60.0,8,60,3.0,96.0
5680,64.0,50,30,11.0,85.0
5681,58.0,1,30,12.0,85.0
5682,49.0,4,30,13.0,85.0
5683,37.0,0,30,14.0,85.0
5684,70.0,2,60,1.0,92.0
5685,58.0,3,60,3.0,96.0
5686,65.0,50,30,11.0,85.0
5687,58.0,1,30,12.0,85.0
5688,49.0,4,30,13.0,85.0
5689,37.0,3,30,14.0,85.0
5690,68.0,2,60,1.0,92.0
5691,56.0,0,60,3.0,96.0
5692,67.0,52,60,1.0,92.0
5693,55.0,8,60,3.0,96.0
5694,65.0,52,60,1.0,92.0
5695,72.0,2,60,2.0,93.0
5696,53.0,6,60,3.0,96.0
5697,64.0,50,30,11.0,85.0
5698,58.0,3,30,12.0,85.0
5699,50.0,3,30,13.0,85.0
5700,38.0,3,30,14.0,85.0
5701,70.0,1,60,2.0,93.0
5702,65.0,50,30,11.0,85.0
5703,58.0,3,30,12.0,85.0
5704,50.0,3,30,13.0,85.0
5705,38.0,3,30,14.0,85.0
5706,68.0,1,60,2.0,93.0
5707,67.0,54,60,2.0,93.0
5708,80.0,54,60,10.0,75.0
5709,65.0,6,60,2.0,93.0
5710,65.0,6,60,3.0,96.0
5711,51.0,4,30,13.0,100.0
5712,39.0,3,30,14.0,100.0
5713,79.0,48,60,10.0,87.0
5714,63.0,0,60,3.0,96.0
5715,51.0,9,30,13.0,100.0
5716,39.0,3,30,14.0,100.0
5717,77.0,48,60,10.0,100.0
5718,61.0,2,120,11.0,100.0
5719,58.0,3,120,12.0,100.0
5720,61.0,0,60,3.0,96.0
5721,75.0,48,60,10.0,100.0
5722,60.0,12,60,3.0,96.0
5723,73.0,48,60,10.0,100.0
5724,58.0,12,60,3.0,96.0
5725,72.0,48,60,10.0,100.0
5726,56.0,12,60,3.0,96.0
5727,70.0,48,60,10.0,90.0
5728,55.0,12,60,3.0,96.0
5729,68.0,48,60,10.0,80.0
5730,53.0,12,60,3.0,96.0
5731,67.0,48,60,10.0,69.0
5732,72.0,4,60,1.0,92.0
5733,51.0,8,60,3.0,96.0
5734,58.0,50,30,11.0,100.0
5735,52.0,1,30,12.0,100.0
5736,49.0,4,30,13.0,100.0
5737,37.0,3,30,14.0,100.0
5738,70.0,2,60,1.0,92.0
5739,58.0,50,30,11.0,100.0
5740,53.0,1,30,12.0,100.0
5741,49.0,4,30,13.0,100.0
5742,37.0,3,30,14.0,100.0
5743,68.0,2,60,1.0,92.0
5744,67.0,52,60,1.0,92.0
5745,65.0,60,60,1.0,92.0
5746,72.0,2,60,2.0,93.0
5747,60.0,6,60,3.0,96.0
5748,58.0,50,30,11.0,100.0
5749,52.0,3,30,12.0,100.0
5750,50.0,3,30,13.0,100.0
5751,38.0,0,30,14.0,100.0
5752,70.0,1,60,2.0,93.0
5753,58.0,3,60,3.0,96.0
5754,58.0,50,30,11.0,100.0
5755,53.0,3,30,12.0,100.0
5756,50.0,3,30,13.0,100.0
5757,38.0,0,30,14.0,100.0
5758,68.0,1,60,2.0,93.0
5759,56.0,3,60,3.0,96.0
5760,67.0,54,60,2.0,93.0
5761,55.0,6,60,3.0,96.0
5762,85.0,48,60,10.0,87.0
5763,73.0,2,60,11.0,87.0
5764,65.0,4,60,2.0,93.0
5765,53.0,6,60,3.0,96.0
5766,82.0,48,60,10.0,100.0
5767,70.0,2,60,11.0,100.0
5768,80.0,48,60,10.0,100.0
5769,68.0,2,60,11.0,100.0
5770,51.0,0,120,12.0,100.0
5771,61.0,3,120,12.0,100.0
5772,51.0,4,120,13.0,100.0
5773,39.0,3,120,14.0,100.0
5774,79.0,58,60,10.0,100.0
5775,67.0,2,60,11.0,100.0
5776,77.0,58,60,10.0,100.0
5777,68.0,2,60,11.0,100.0
5778,75.0,58,60,10.0,100.0
5779,67.0,2,60,11.0,100.0
5780,73.0,58,60,10.0,100.0
5781,65.0,2,60,11.0,100.0
5782,72.0,58,60,10.0,100.0
5783,63.0,2,60,11.0,100.0
5784,70.0,58,60,10.0,100.0
5785,65.0,2,60,11.0,100.0
5786,65.0,3,60,12.0,100.0
5787,61.0,4,60,13.0,100.0
5788,68.0,51,60,10.0,100.0
5789,63.0,2,60,11.0,100.0
5790,63.0,3,60,12.0,100.0
5791,60.0,4,60,13.0,100.0
5792,67.0,51,60,10.0,100.0
5793,61.0,5,60,12.0,100.0
5794,58.0,4,60,13.0,100.0
5795,65.0,51,60,10.0,100.0
5796,60.0,5,60,12.0,100.0
5797,56.0,4,60,13.0,100.0
5798,63.0,51,60,10.0,100.0
5799,58.0,5,60,12.0,100.0
5800,55.0,4,60,13.0,100.0
5801,61.0,51,60,10.0,100.0
5802,56.0,5,60,12.0,100.0
5803,53.0,3,60,13.0,100.0
5804,60.0,48,60,10.0,95.0
5805,55.0,5,60,12.0,95.0
5806,51.0,4,60,13.0,100.0
5807,58.0,51,60,10.0,90.0
5808,49.0,4,60,13.0,100.0
5809,59.0,51,60,10.0,85.0
5810,53.0,5,120,12.0,90.0
5811,61.0,0,240,2.0,93.0
5812,73.0,1,240,2.0,93.0
5813,44.0,9,60,13.0,100.0
5814,41.0,3,240,14.0,100.0
5815,56.0,0,240,3.0,96.0
5816,53.0,0,240,3.0,96.0
5817,60.0,51,120,10.0,80.0
5818,55.0,5,120,12.0,80.0
5819,60.0,1,240,2.0,93.0
5820,72.0,0,240,2.0,93.0
5821,43.0,3,240,13.0,100.0
5822,40.0,3,240,14.0,100.0
5823,70.0,0,240,2.0,93.0
5824,58.0,234,240,2.0,93.0
5825,55.0,0,480,3.0,96.0
5826,52.0,0,480,3.0,96.0
5827,56.0,234,240,2.0,85.0
5828,68.0,0,240,2.0,85.0
5829,36.0,3,480,13.0,100.0
5830,53.0,0,240,3.0,88.0
5831,48.0,6,240,3.0,88.0
5832,36.0,3,480,14.0,100.0
5833,73.0,228,240,10.0,100.0
5834,61.0,2,240,11.0,100.0
5835,41.0,4,240,13.0,100.0
5836,41.0,3,240,14.0,100.0
5837,72.0,228,240,10.0,100.0
5838,63.0,2,240,11.0,100.0
5839,56.0,3,480,12.0,100.0
5840,44.0,7,240,13.0,100.0
5841,44.0,3,240,14.0,100.0
5842,61.0,228,240,10.0,100.0
5843,49.0,3,240,12.0,100.0
5844,40.0,4,240,13.0,100.0
5845,40.0,3,240,14.0,100.0
5846,60.0,228,240,10.0,92.0
5847,56.0,2,480,11.0,100.0
5848,51.0,5,240,12.0,92.0
5849,44.0,4,240,13.0,92.0
5850,44.0,3,240,14.0,92.0
5851,70.0,229,240,0.0,93.0
5852,79.0,0,240,0.0,93.0
5853,85.0,3,240,1.0,92.0
5854,63.0,228,15,10.0,125.0
5855,51.0,1,15,12.0,125.0
5856,63.0,25,15,10.0,96.0
5857,51.0,5,15,12.0,96.0
5858,63.0,25,15,10.0,106.0
5859,51.0,5,15,12.0,106.0
5860,63.0,25,15,10.0,86.0
5861,51.0,5,15,12.0,86.0
5862,62.0,25,15,10.0,95.0
5863,50.0,5,15,12.0,95.0
5864,62.0,25,15,10.0,76.0
5865,50.0,5,15,12.0,76.0
5866,63.0,25,15,10.0,84.0
5867,51.0,5,15,12.0,84.0
5868,63.0,25,15,10.0,66.0
5869,51.0,5,15,12.0,66.0
5870,71.0,1,240,0.0,93.0
5871,80.0,0,240,0.0,93.0
5872,83.0,3,240,1.0,92.0
5873,73.0,26,240,0.0,93.0
5874,79.0,0,240,0.0,93.0
5875,82.0,3,240,1.0,92.0
5876,64.0,236,15,10.0,125.0
5877,52.0,1,15,12.0,125.0
5878,64.0,25,15,10.0,96.0
5879,52.0,5,15,12.0,96.0
5880,64.0,25,15,10.0,106.0
5881,52.0,5,15,12.0,106.0
5882,64.0,25,15,10.0,86.0
5883,52.0,5,15,12.0,86.0
5884,63.0,25,15,10.0,95.0
5885,51.0,5,15,12.0,95.0
5886,63.0,25,15,10.0,76.0
5887,51.0,5,15,12.0,76.0
5888,64.0,25,15,10.0,84.0
5889,52.0,5,15,12.0,84.0
5890,64.0,25,15,10.0,66.0
5891,52.0,5,15,12.0,66.0
5892,71.0,1,240,0.0,93.0
5893,80.0,0,240,0.0,93.0
5894,80.0,3,240,1.0,92.0
5895,78.0,0,240,0.0,93.0
5896,70.0,26,240,0.0,93.0
5897,75.0,3,240,1.0,92.0
5898,68.0,236,15,10.0,125.0
5899,56.0,1,15,12.0,125.0
5900,68.0,24,15,10.0,96.0
5901,56.0,5,15,12.0,96.0
5902,71.0,25,15,10.0,106.0
5903,59.0,5,15,12.0,106.0
5904,71.0,25,15,10.0,86.0
5905,59.0,5,15,12.0,86.0
5906,70.0,25,15,10.0,95.0
5907,58.0,5,15,12.0,95.0
5908,70.0,25,15,10.0,76.0
5909,58.0,5,15,12.0,76.0
5910,68.0,25,15,10.0,84.0
5911,56.0,5,15,12.0,84.0
5912,68.0,25,15,10.0,66.0
5913,56.0,5,15,12.0,66.0
5914,76.0,1,240,0.0,93.0
5915,68.0,0,240,0.0,93.0
5916,75.0,26,240,0.0,93.0
5917,66.0,0,240,0.0,93.0
5918,71.0,3,480,1.0,92.0
5919,68.0,1,480,2.0,93.0
5920,70.0,239,15,10.0,125.0
5921,58.0,1,15,12.0,125.0
5922,70.0,24,15,10.0,96.0
5923,58.0,5,15,12.0,96.0
5924,68.0,25,15,10.0,106.0
5925,56.0,5,15,12.0,106.0
5926,68.0,25,15,10.0,86.0
5927,56.0,5,15,12.0,86.0
5928,66.0,25,15,10.0,95.0
5929,54.0,5,15,12.0,95.0
5930,66.0,25,15,10.0,76.0
5931,54.0,5,15,12.0,76.0
5932,64.0,25,15,10.0,84.0
5933,52.0,5,15,12.0,84.0
5934,64.0,25,15,10.0,66.0
5935,52.0,5,15,12.0,66.0
5936,74.0,1,240,0.0,93.0
5937,64.0,0,240,0.0,93.0
5938,68.0,3,240,1.0,92.0
5939,70.0,1,240,2.0,93.0
5940,73.0,31,240,2.0,93.0
5941,39.0,5,2160,13.0,100.0
5942,39.0,3,2160,14.0,100.0
5943,67.0,0,240,3.0,96.0
5944,58.0,6,240,3.0,96.0
5945,51.0,233,15,12.0,125.0
5946,39.0,3,15,13.0,125.0
5947,39.0,0,30,14.0,125.0
5948,51.0,23,15,12.0,97.0
5949,39.0,4,15,13.0,97.0
5950,51.0,26,15,12.0,109.0
5951,39.0,4,15,13.0,109.0
5952,39.0,3,30,14.0,117.0
5953,51.0,23,15,12.0,90.0
5954,39.0,4,15,13.0,90.0
5955,50.0,26,15,12.0,100.0
5956,38.0,4,15,13.0,100.0
5957,38.0,3,30,14.0,108.0
5958,50.0,23,15,12.0,82.0
5959,38.0,4,15,13.0,82.0
5960,51.0,26,15,12.0,92.0
5961,39.0,4,15,13.0,92.0
5962,39.0,3,30,14.0,100.0
5963,51.0,23,15,12.0,74.0
5964,39.0,4,15,13.0,74.0
5965,71.0,1,240,2.0,93.0
5966,59.0,3,240,3.0,96.0
5967,68.0,0,240,3.0,96.0
5968,70.0,27,240,2.0,93.0
5969,61.0,6,240,3.0,96.0
5970,67.0,0,240,3.0,96.0
5971,52.0,233,15,12.0,125.0
5972,40.0,3,15,13.0,125.0
5973,40.0,0,30,14.0,125.0
5974,52.0,23,15,12.0,97.0
5975,40.0,4,15,13.0,97.0
5976,52.0,26,15,12.0,109.0
5977,40.0,4,15,13.0,109.0
5978,40.0,3,30,14.0,117.0
5979,52.0,23,15,12.0,90.0
5980,40.0,4,15,13.0,90.0
5981,51.0,26,15,12.0,100.0
5982,39.0,4,15,13.0,100.0
5983,39.0,3,30,14.0,108.0
5984,51.0,23,15,12.0,82.0
5985,39.0,4,15,13.0,82.0
5986,52.0,26,15,12.0,92.0
5987,40.0,4,15,13.0,92.0
5988,40.0,3,30,14.0,100.0
5989,52.0,23,15,12.0,74.0
5990,40.0,4,15,13.0,74.0
5991,68.0,1,240,2.0,93.0
5992,59.0,3,240,3.0,96.0
5993,68.0,0,240,3.0,96.0
5994,66.0,0,240,3.0,96.0
5995,58.0,33,240,3.0,96.0
5996,49.0,5,15,13.0,100.0
5997,37.0,0,30,14.0,100.0
5998,49.0,27,15,13.0,100.0
5999,47.0,30,15,13.0,100.0
6000,35.0,3,30,14.0,100.0
6001,47.0,27,15,13.0,100.0
6002,46.0,30,15,13.0,100.0
6003,34.0,3,30,14.0,100.0
6004,46.0,27,15,13.0,100.0
6005,44.0,30,15,13.0,100.0
6006,32.0,3,30,14.0,100.0
6007,44.0,27,15,13.0,100.0
6008,64.0,3,240,3.0,96.0
6009,52.0,232,480,4.0,94.0
6010,62.0,33,240,3.0,96.0
6011,56.0,0,480,3.0,96.0
6012,39.0,5,15,13.0,100.0
6013,39.0,3,30,14.0,100.0
6014,39.0,27,15,13.0,100.0
6015,39.0,30,15,13.0,100.0
6016,39.0,3,30,14.0,100.0
6017,39.0,27,15,13.0,100.0
6018,38.0,30,15,13.0,100.0
6019,38.0,3,30,14.0,100.0
6020,38.0,27,15,13.0,100.0
6021,39.0,30,15,13.0,100.0
6022,39.0,3,30,14.0,100.0
6023,39.0,27,15,13.0,100.0
6024,51.0,232,240,4.0,74.0
6025,55.0,0,240,3.0,96.0
6026,63.0,0,240,3.0,96.0
6027,85.0,21,225,10.0,100.0
6028,73.0,2,225,11.0,100.0
6029,87.0,1,30,0.0,93.0
6030,75.0,1,30,6.0,98.0
6031,75.0,1,30,1.0,92.0
6032,75.0,2,30,2.0,93.0
6033,87.0,55,30,0.0,93.0
6034,75.0,2,30,6.0,98.0
6035,75.0,1,30,1.0,92.0
6036,75.0,2,30,2.0,93.0
6037,86.0,55,30,0.0,93.0
6038,74.0,3,30,1.0,92.0
6039,74.0,2,30,2.0,93.0
6040,87.0,55,30,0.0,93.0
6041,75.0,3,30,1.0,92.0
6042,75.0,2,30,2.0,93.0
6043,83.0,238,225,10.0,100.0
6044,71.0,1,225,11.0,100.0
6045,82.0,54,225,10.0,100.0
6046,70.0,2,225,11.0,100.0
6047,66.0,3,225,12.0,100.0
6048,66.0,7,225,3.0,96.0
6049,41.0,4,30,13.0,100.0
6050,29.0,3,30,14.0,100.0
6051,41.0,57,30,13.0,100.0
6052,29.0,3,30,14.0,100.0
6053,40.0,57,30,13.0,100.0
6054,28.0,3,30,14.0,100.0
6055,41.0,57,30,13.0,100.0
6056,29.0,3,30,14.0,100.0
6057,81.0,228,225,10.0,100.0
6058,69.0,2,225,11.0,100.0
6059,65.0,3,225,12.0,100.0
6060,65.0,0,225,3.0,96.0
6061,65.0,1,30,5.0,94.0
6062,65.0,54,30,5.0,94.0
6063,65.0,60,30,5.0,94.0
6064,65.0,60,30,5.0,94.0
6065,72.0,50,225,11.0,100.0
6066,63.0,3,225,12.0,100.0
6067,63.0,3,225,13.0,100.0
6068,63.0,3,225,3.0,96.0
6069,89.0,55,30,0.0,93.0
6070,77.0,1,30,6.0,98.0
6071,77.0,1,30,1.0,92.0
6072,77.0,1,30,2.0,93.0
6073,89.0,49,30,0.0,93.0
6074,77.0,2,30,6.0,98.0
6075,77.0,1,30,1.0,92.0
6076,77.0,2,30,2.0,93.0
6077,88.0,55,30,0.0,93.0
6078,76.0,3,30,1.0,92.0
6079,76.0,2,30,2.0,93.0
6080,89.0,55,30,0.0,93.0
6081,77.0,3,30,1.0,92.0
6082,77.0,2,30,2.0,93.0
6083,70.0,1,225,11.0,100.0
6084,61.0,1,225,12.0,100.0
6085,61.0,3,225,13.0,100.0
6086,61.0,3,225,3.0,96.0
6087,80.0,54,225,10.0,100.0
6088,68.0,2,225,11.0,100.0
6089,60.0,3,225,12.0,100.0
6090,60.0,4,225,13.0,100.0
6091,60.0,3,225,3.0,96.0
6092,43.0,4,30,13.0,100.0
6093,31.0,3,30,14.0,100.0
6094,43.0,57,30,13.0,100.0
6095,31.0,3,30,14.0,100.0
6096,42.0,57,30,13.0,100.0
6097,30.0,3,30,14.0,100.0
6098,43.0,57,30,13.0,100.0
6099,31.0,3,30,14.0,100.0
6100,79.0,228,225,10.0,100.0
6101,67.0,2,225,11.0,100.0
6102,59.0,3,225,12.0,100.0
6103,59.0,0,225,3.0,96.0
6104,67.0,1,30,5.0,94.0
6105,67.0,54,30,5.0,94.0
6106,66.0,60,30,5.0,94.0
6107,67.0,60,30,5.0,94.0
6108,74.0,50,225,11.0,100.0
6109,65.0,3,225,12.0,100.0
6110,53.0,3,225,13.0,100.0
6111,65.0,0,225,3.0,96.0
6112,53.0,3,225,3.0,96.0
6113,91.0,55,30,0.0,93.0
6114,79.0,1,30,6.0,98.0
6115,79.0,1,30,1.0,92.0
6116,79.0,1,30,2.0,93.0
6117,91.0,49,30,0.0,93.0
6118,79.0,2,30,6.0,98.0
6119,79.0,1,30,1.0,92.0
6120,79.0,2,30,2.0,93.0
6121,90.0,55,30,0.0,93.0
6122,78.0,3,30,1.0,92.0
6123,78.0,2,30,2.0,93.0
6124,91.0,55,30,0.0,93.0
6125,79.0,3,30,1.0,92.0
6126,79.0,2,30,2.0,93.0
6127,72.0,1,225,11.0,100.0
6128,63.0,1,225,12.0,100.0
6129,51.0,3,225,13.0,100.0
6130,63.0,3,225,3.0,96.0
6131,51.0,0,225,3.0,96.0
6132,82.0,54,225,10.0,100.0
6133,70.0,2,225,11.0,100.0
6134,62.0,3,225,12.0,100.0
6135,50.0,4,225,13.0,100.0
6136,62.0,3,225,3.0,96.0
6137,50.0,0,225,3.0,96.0
6138,69.0,1,30,5.0,94.0
6139,69.0,54,30,5.0,94.0
6140,68.0,60,30,5.0,94.0
6141,69.0,60,30,5.0,94.0
6142,81.0,228,225,10.0,100.0
6143,79.0,2,225,11.0,100.0
6144,69.0,0,225,11.0,100.0
6145,61.0,3,225,12.0,100.0
6146,49.0,3,225,13.0,100.0
6147,49.0,0,225,3.0,96.0
6148,61.0,3,225,3.0,96.0
6149,93.0,1,30,0.0,93.0
6150,69.0,1,30,6.0,103.0
6151,81.0,0,30,6.0,103.0
6152,81.0,1,30,1.0,92.0
6153,69.0,1,30,12.0,122.0
6154,81.0,1,30,2.0,93.0
6155,57.0,0,30,3.0,118.0
6156,93.0,49,30,0.0,93.0
6157,69.0,2,30,6.0,103.0
6158,81.0,0,30,6.0,103.0
6159,81.0,1,30,1.0,92.0
6160,69.0,1,30,12.0,111.0
6161,81.0,1,30,2.0,93.0
6162,57.0,6,30,3.0,107.0
6163,92.0,49,30,0.0,93.0
6164,80.0,3,30,1.0,92.0
6165,68.0,1,30,12.0,100.0
6166,80.0,1,30,2.0,93.0
6167,56.0,6,30,3.0,96.0
6168,93.0,49,30,0.0,93.0
6169,81.0,3,30,1.0,92.0
6170,69.0,1,30,12.0,100.0
6171,81.0,1,30,2.0,93.0
6172,57.0,6,30,3.0,96.0
6173,89.0,54,225,10.0,100.0
6174,69.0,1,225,11.0,100.0
6175,77.0,0,225,11.0,100.0
6176,50.0,3,225,13.0,100.0
6177,38.0,3,225,14.0,100.0
6178,69.0,4,30,5.0,94.0
6179,69.0,54,30,5.0,94.0
6180,81.0,55,30,0.0,93.0
6181,93.0,0,30,0.0,93.0
6182,81.0,2,30,6.0,103.0
6183,69.0,0,30,6.0,103.0
6184,69.0,3,30,2.0,93.0
6185,81.0,0,30,2.0,93.0
6186,68.0,0,30,5.0,94.0
6187,93.0,0,30,0.0,93.0
6188,81.0,55,30,0.0,93.0
6189,81.0,2,30,6.0,103.0
6190,69.0,0,30,6.0,103.0
6191,69.0,0,30,2.0,93.0
6192,69.0,0,30,5.0,94.0
6193,81.0,3,30,2.0,93.0
6194,88.0,48,225,10.0,100.0
6195,76.0,0,225,11.0,100.0
6196,69.0,2,225,11.0,100.0
6197,48.0,3,225,13.0,100.0
6198,36.0,3,225,14.0,100.0
6199,93.0,1,30,0.0,93.0
6200,90.0,0,30,0.0,93.0
6201,83.0,1,30,1.0,92.0
6202,71.0,0,30,1.0,92.0
6203,71.0,1,30,12.0,122.0
6204,81.0,0,30,2.0,93.0
6205,78.0,1,30,2.0,93.0
6206,59.0,3,30,3.0,118.0
6207,69.0,1,60,6.0,103.0
6208,81.0,0,60,6.0,103.0
6209,90.0,49,30,0.0,93.0
6210,93.0,0,30,0.0,93.0
6211,71.0,3,30,1.0,92.0
6212,83.0,0,30,1.0,92.0
6213,71.0,1,30,12.0,111.0
6214,78.0,1,30,2.0,93.0
6215,81.0,0,30,2.0,93.0
6216,59.0,6,30,3.0,107.0
6217,93.0,0,30,0.0,93.0
6218,90.0,49,30,0.0,93.0
6219,70.0,0,30,1.0,92.0
6220,82.0,3,30,1.0,92.0
6221,70.0,1,30,12.0,100.0
6222,81.0,1,30,2.0,93.0
6223,78.0,0,30,2.0,93.0
6224,58.0,6,30,3.0,96.0
6225,90.0,0,30,0.0,93.0
6226,93.0,49,30,0.0,93.0
6227,83.0,3,30,1.0,92.0
6228,71.0,0,30,1.0,92.0
6229,71.0,1,30,12.0,100.0
6230,78.0,1,30,2.0,93.0
6231,81.0,0,30,2.0,93.0
6232,59.0,6,30,3.0,96.0
6233,87.0,54,225,10.0,100.0
6234,69.0,1,225,11.0,100.0
6235,78.0,0,225,11.0,100.0
6236,47.0,3,225,13.0,100.0
6237,35.0,0,225,14.0,100.0
6238,88.0,288,60,10.0,100.0
6239,76.0,1,60,11.0,100.0
6240,76.0,1,210,6.0,103.0
6241,64.0,2,210,5.0,94.0
6242,88.0,1,225,0.0,93.0
6243,76.0,1,225,1.0,92.0
6244,76.0,0,225,2.0,93.0
6245,64.0,6,225,3.0,96.0
6246,88.0,228,60,10.0,100.0
6247,76.0,1,60,11.0,100.0
6248,64.0,113,25,12.0,100.0
6249,64.0,4,25,13.0,100.0
6250,62.0,36,25,12.0,100.0
6251,62.0,4,25,13.0,100.0
6252,76.0,1,210,6.0,103.0
6253,64.0,0,210,5.0,94.0
6254,88.0,1,225,0.0,93.0
6255,76.0,1,225,1.0,92.0
6256,60.0,36,25,12.0,100.0
6257,76.0,2,225,2.0,93.0
6258,60.0,4,25,13.0,100.0
6259,64.0,6,225,3.0,96.0
6260,59.0,1,25,12.0,100.0
6261,59.0,2,25,13.0,100.0
6262,60.0,33,25,12.0,100.0
6263,60.0,4,25,13.0,100.0
6264,62.0,36,25,12.0,100.0
6265,62.0,4,25,13.0,100.0
6266,71.0,31,25,10.0,100.0
6267,71.0,2,25,11.0,100.0
6268,72.0,31,25,10.0,100.0
6269,64.0,3,60,12.0,100.0
6270,72.0,2,25,11.0,100.0
6271,64.0,4,60,13.0,100.0
6272,64.0,0,210,4.0,109.0
6273,52.0,0,210,4.0,109.0
6274,52.0,35,210,7.0,120.0
6275,40.0,2,210,8.0,120.0
6276,74.0,38,25,10.0,100.0
6277,74.0,2,25,11.0,100.0
6278,28.0,0,225,3.0,96.0
6279,40.0,0,225,14.0,100.0
6280,40.0,3,225,3.0,96.0
6281,76.0,38,25,10.0,100.0
6282,76.0,2,25,11.0,100.0
6283,74.0,28,25,10.0,100.0
6284,74.0,2,25,11.0,100.0
6285,72.0,38,25,10.0,100.0
6286,72.0,2,25,11.0,100.0
6287,59.0,3,25,12.0,100.0
6288,59.0,4,25,13.0,100.0
6289,71.0,38,60,10.0,100.0
6290,71.0,2,60,11.0,100.0
6291,60.0,36,25,12.0,100.0
6292,60.0,4,25,13.0,100.0
6293,64.0,0,210,4.0,109.0
6294,52.0,0,210,4.0,109.0
6295,52.0,2,210,7.0,120.0
6296,40.0,3,210,8.0,120.0
6297,62.0,36,25,12.0,100.0
6298,62.0,4,25,13.0,100.0
6299,28.0,0,225,3.0,96.0
6300,40.0,0,225,14.0,100.0
6301,40.0,5,225,3.0,96.0
6302,64.0,1,25,12.0,100.0
6303,64.0,3,25,13.0,100.0
6304,88.0,32,40,0.0,93.0
6305,76.0,2,40,6.0,127.0
6306,83.0,1,40,1.0,92.0
6307,80.0,0,40,1.0,92.0
6308,71.0,1,40,2.0,93.0
6309,68.0,0,40,2.0,93.0
6310,64.0,0,40,5.0,109.0
6311,56.0,3,40,3.0,96.0
6312,59.0,0,40,3.0,96.0
6313,62.0,33,25,12.0,100.0
6314,62.0,4,25,13.0,100.0
6315,60.0,1,25,12.0,100.0
6316,60.0,3,25,13.0,100.0
6317,88.0,32,40,0.0,93.0
6318,76.0,2,40,6.0,127.0
6319,81.0,0,40,1.0,92.0
6320,78.0,1,40,1.0,92.0
6321,69.0,0,40,2.0,93.0
6322,64.0,1,40,5.0,109.0
6323,66.0,0,40,2.0,93.0
6324,54.0,0,40,3.0,96.0
6325,57.0,3,40,3.0,96.0
6326,59.0,33,25,12.0,100.0
6327,59.0,4,25,13.0,100.0
6328,57.0,1,25,12.0,100.0
6329,57.0,3,25,13.0,100.0
6330,88.0,32,40,0.0,93.0
6331,76.0,2,40,6.0,127.0
6332,83.0,1,40,1.0,92.0
6333,80.0,0,40,1.0,92.0
6334,64.0,1,40,5.0,109.0
6335,71.0,0,40,2.0,93.0
6336,68.0,0,40,2.0,93.0
6337,59.0,3,40,3.0,96.0
6338,56.0,0,40,3.0,96.0
6339,56.0,33,25,12.0,100.0
6340,56.0,4,25,13.0,100.0
6341,54.0,1,25,12.0,100.0
6342,54.0,3,25,13.0,100.0
6343,52.0,33,25,12.0,100.0
6344,52.0,4,25,13.0,100.0
6345,51.0,36,25,12.0,100.0
6346,51.0,4,25,13.0,100.0
6347,72.0,31,25,10.0,100.0
6348,72.0,2,25,11.0,100.0
6349,52.0,3,25,12.0,100.0
6350,52.0,4,25,13.0,100.0
6351,74.0,31,25,10.0,100.0
6352,74.0,2,25,11.0,100.0
6353,48.0,3,25,12.0,100.0
6354,48.0,4,25,13.0,100.0
6355,76.0,2,210,6.0,127.0
6356,64.0,1,210,5.0,109.0
6357,75.0,31,25,10.0,100.0
6358,88.0,32,225,0.0,93.0
6359,75.0,2,25,11.0,100.0
6360,84.0,1,225,1.0,92.0
6361,81.0,0,225,1.0,92.0
6362,57.0,3,25,12.0,100.0
6363,72.0,0,225,2.0,93.0
6364,69.0,0,225,2.0,93.0
6365,45.0,4,25,13.0,100.0
6366,57.0,0,225,3.0,96.0
6367,60.0,3,225,3.0,96.0
6368,76.0,31,25,10.0,100.0
6369,76.0,2,25,11.0,100.0
6370,52.0,0,40,4.0,109.0
6371,64.0,2,40,4.0,109.0
6372,56.0,0,40,7.0,120.0
6373,59.0,0,40,7.0,120.0
6374,52.0,2,40,8.0,120.0
6375,40.0,3,40,3.0,96.0
6376,28.0,0,40,14.0,100.0
6377,28.0,0,40,3.0,96.0
6378,47.0,0,40,3.0,96.0
6379,74.0,28,25,10.0,100.0
6380,52.0,1,60,12.0,100.0
6381,74.0,2,25,11.0,100.0
6382,40.0,2,60,13.0,100.0
6383,72.0,38,25,10.0,100.0
6384,72.0,2,25,11.0,100.0
6385,57.0,0,40,7.0,120.0
6386,54.0,2,40,7.0,120.0
6387,52.0,0,40,4.0,109.0
6388,64.0,0,40,4.0,109.0
6389,52.0,3,40,8.0,120.0
6390,40.0,0,40,3.0,96.0
6391,28.0,5,40,3.0,96.0
6392,45.0,0,40,3.0,96.0
6393,28.0,0,40,14.0,100.0
6394,71.0,28,25,10.0,100.0
6395,71.0,2,25,11.0,100.0
6396,69.0,38,25,10.0,100.0
6397,69.0,2,25,11.0,100.0
6398,56.0,0,40,7.0,120.0
6399,59.0,0,40,7.0,120.0
6400,64.0,0,40,4.0,109.0
6401,52.0,2,40,4.0,109.0
6402,52.0,3,40,8.0,120.0
6403,47.0,0,40,3.0,96.0
6404,28.0,0,40,3.0,96.0
6405,40.0,5,40,3.0,96.0
6406,28.0,0,40,14.0,100.0
6407,68.0,28,25,10.0,100.0
6408,68.0,2,25,11.0,100.0
6409,66.0,38,25,10.0,100.0
6410,66.0,2,25,11.0,100.0
6411,64.0,28,25,10.0,100.0
6412,64.0,2,25,11.0,100.0
6413,63.0,38,25,10.0,100.0
6414,63.0,2,25,11.0,100.0
6415,64.0,38,25,10.0,100.0
6416,64.0,2,25,11.0,100.0
6417,57.0,3,25,12.0,100.0
6418,57.0,4,25,13.0,100.0
6419,60.0,31,25,10.0,100.0
6420,60.0,2,25,11.0,100.0
6421,60.0,3,25,12.0,100.0
6422,60.0,4,25,13.0,100.0
6423,52.0,2,210,4.0,109.0
6424,60.0,0,210,7.0,120.0
6425,57.0,0,210,7.0,120.0
6426,64.0,0,210,4.0,109.0
6427,45.0,3,210,8.0,120.0
6428,57.0,31,25,10.0,100.0
6429,57.0,2,25,11.0,100.0
6430,64.0,3,25,12.0,100.0
6431,64.0,4,25,13.0,100.0
6432,45.0,0,225,3.0,96.0
6433,48.0,0,225,3.0,96.0
6434,33.0,5,240,3.0,96.0
6435,33.0,0,240,14.0,100.0
6436,69.0,1,25,12.0,100.0
6437,69.0,3,25,13.0,100.0
6438,69.0,31,60,10.0,100.0
6439,85.0,0,60,0.0,93.0
6440,69.0,1,60,11.0,100.0
6441,77.0,1,60,1.0,92.0
6442,85.0,0,60,1.0,92.0
6443,74.0,0,60,2.0,93.0
6444,86.0,0,60,2.0,93.0
6445,68.0,33,25,12.0,100.0
6446,65.0,3,60,3.0,96.0
6447,68.0,4,25,13.0,100.0
6448,69.0,36,25,12.0,100.0
6449,69.0,4,25,13.0,100.0
6450,65.0,1,25,12.0,100.0
6451,65.0,3,25,13.0,100.0
6452,84.0,32,60,0.0,93.0
6453,81.0,0,60,1.0,92.0
6454,84.0,3,60,1.0,92.0
6455,84.0,0,60,2.0,93.0
6456,69.0,1,60,5.0,109.0
6457,72.0,0,60,2.0,93.0
6458,64.0,33,25,12.0,100.0
6459,69.0,3,60,3.0,96.0
6460,64.0,4,25,13.0,100.0
6461,77.0,1,210,6.0,127.0
6462,62.0,0,210,4.0,109.0
6463,65.0,1,210,5.0,109.0
6464,89.0,1,225,0.0,93.0
6465,62.0,36,25,12.0,100.0
6466,62.0,4,25,13.0,100.0
6467,62.0,0,225,3.0,96.0
6468,64.0,1,25,12.0,100.0
6469,64.0,3,25,13.0,100.0
6470,63.0,33,25,12.0,100.0
6471,63.0,4,25,13.0,100.0
6472,64.0,36,25,12.0,100.0
6473,64.0,4,25,13.0,100.0
6474,68.0,31,25,10.0,100.0
6475,68.0,2,25,11.0,100.0
6476,59.0,3,25,12.0,100.0
6477,59.0,4,25,13.0,100.0
6478,71.0,31,25,10.0,100.0
6479,71.0,2,25,11.0,100.0
6480,56.0,3,25,12.0,100.0
6481,56.0,4,25,13.0,100.0
6482,76.0,2,210,6.0,127.0
6483,64.0,1,210,4.0,109.0
6484,64.0,0,210,5.0,109.0
6485,68.0,0,210,5.0,109.0
6486,76.0,31,25,10.0,100.0
6487,83.0,0,225,0.0,93.0
6488,88.0,32,225,0.0,93.0
6489,76.0,2,25,11.0,100.0
6490,83.0,0,225,1.0,92.0
6491,79.0,0,225,1.0,92.0
6492,52.0,3,25,12.0,100.0
6493,83.0,1,225,2.0,93.0
6494,71.0,0,225,2.0,93.0
6495,52.0,4,25,13.0,100.0
6496,64.0,3,225,3.0,96.0
6497,68.0,0,225,3.0,96.0
6498,81.0,31,25,10.0,100.0
6499,81.0,2,25,11.0,100.0
6500,62.0,2,60,7.0,120.0
6501,65.0,0,60,7.0,120.0
6502,80.0,28,25,10.0,100.0
6503,80.0,2,25,11.0,100.0
6504,50.0,5,60,3.0,96.0
6505,53.0,0,60,3.0,96.0
6506,81.0,38,25,10.0,100.0
6507,81.0,2,25,11.0,100.0
6508,76.0,38,25,10.0,100.0
6509,76.0,2,25,11.0,100.0
6510,64.0,0,60,7.0,120.0
6511,60.0,2,60,7.0,120.0
6512,72.0,28,25,10.0,100.0
6513,72.0,2,25,11.0,100.0
6514,52.0,8,60,3.0,96.0
6515,48.0,0,60,3.0,96.0
6516,53.0,3,210,8.0,120.0
6517,69.0,38,25,10.0,100.0
6518,69.0,2,25,11.0,100.0
6519,29.0,0,225,3.0,96.0
6520,29.0,0,225,14.0,100.0
6521,79.0,38,25,10.0,100.0
6522,79.0,2,25,11.0,100.0
6523,59.0,1,25,12.0,100.0
6524,78.0,28,25,10.0,100.0
6525,78.0,2,25,11.0,100.0
6526,62.0,3,25,12.0,100.0
6527,79.0,35,25,10.0,100.0
6528,79.0,2,25,11.0,100.0
6529,67.0,3,25,12.0,100.0
6530,74.0,35,25,10.0,100.0
6531,74.0,2,25,11.0,100.0
6532,71.0,3,25,12.0,100.0
6533,55.0,4,25,13.0,100.0
6534,73.0,31,25,10.0,100.0
6535,73.0,2,25,11.0,100.0
6536,70.0,3,25,12.0,100.0
6537,59.0,4,25,13.0,100.0
6538,62.0,2,210,7.0,120.0
6539,59.0,0,210,7.0,120.0
6540,55.0,2,210,8.0,120.0
6541,74.0,31,25,10.0,100.0
6542,74.0,2,25,11.0,100.0
6543,71.0,3,25,12.0,100.0
6544,62.0,4,25,13.0,100.0
6545,47.0,0,225,3.0,96.0
6546,31.0,0,225,3.0,96.0
6547,50.0,0,225,3.0,96.0
6548,31.0,5,225,14.0,100.0
6549,71.0,31,25,10.0,100.0
6550,71.0,1,25,11.0,100.0
6551,62.0,1,25,12.0,100.0
6552,67.0,3,25,13.0,100.0
6553,70.0,28,25,10.0,100.0
6554,70.0,2,25,11.0,100.0
6555,61.0,3,25,12.0,100.0
6556,66.0,4,25,13.0,100.0
6557,71.0,31,25,10.0,100.0
6558,71.0,2,25,11.0,100.0
6559,62.0,3,25,12.0,100.0
6560,67.0,4,25,13.0,100.0
6561,67.0,2,25,11.0,100.0
6562,62.0,3,25,12.0,100.0
6563,59.0,4,25,13.0,100.0
6564,67.0,31,60,10.0,100.0
6565,69.0,33,25,11.0,100.0
6566,63.0,3,25,12.0,100.0
6567,60.0,4,25,13.0,100.0
6568,79.0,1,210,6.0,127.0
6569,67.0,1,210,5.0,109.0
6570,91.0,1,225,0.0,93.0
6571,71.0,33,25,11.0,100.0
6572,79.0,1,225,1.0,92.0
6573,65.0,3,25,12.0,100.0
6574,79.0,0,225,2.0,93.0
6575,62.0,4,25,13.0,100.0
6576,67.0,3,225,3.0,96.0
6577,72.0,1,25,11.0,100.0
6578,67.0,1,25,12.0,100.0
6579,63.0,3,25,13.0,100.0
6580,70.0,30,25,11.0,100.0
6581,65.0,3,25,12.0,100.0
6582,62.0,4,25,13.0,100.0
6583,68.0,33,25,11.0,100.0
6584,63.0,3,25,12.0,100.0
6585,60.0,4,25,13.0,100.0
6586,74.0,31,25,10.0,100.0
6587,67.0,2,60,11.0,100.0
6588,62.0,3,60,12.0,100.0
6589,75.0,31,25,10.0,100.0
6590,59.0,4,60,13.0,100.0
6591,79.0,1,210,6.0,127.0
6592,67.0,1,210,5.0,109.0
6593,77.0,40,25,10.0,100.0
6594,91.0,32,225,0.0,93.0
6595,79.0,1,225,1.0,92.0
6596,79.0,0,225,2.0,93.0
6597,67.0,3,225,3.0,96.0
6598,79.0,40,25,10.0,100.0
6599,77.0,28,25,10.0,100.0
6600,75.0,40,25,10.0,100.0
6601,67.0,2,25,11.0,100.0
6602,59.0,3,25,12.0,100.0
6603,62.0,4,25,13.0,100.0
6604,74.0,40,60,10.0,100.0
6605,65.0,33,25,11.0,100.0
6606,57.0,3,25,12.0,100.0
6607,60.0,4,25,13.0,100.0
6608,43.0,0,210,4.0,109.0
6609,67.0,4,210,7.0,120.0
6610,55.0,0,210,7.0,120.0
6611,55.0,0,210,4.0,109.0
6612,43.0,3,210,8.0,120.0
6613,63.0,33,25,11.0,100.0
6614,55.0,3,25,12.0,100.0
6615,58.0,4,25,13.0,100.0
6616,31.0,5,225,3.0,96.0
6617,31.0,0,225,14.0,100.0
6618,43.0,0,225,3.0,96.0
6619,62.0,33,25,11.0,100.0
6620,54.0,1,25,12.0,100.0
6621,57.0,2,25,13.0,100.0
6622,63.0,30,25,11.0,100.0
6623,55.0,3,25,12.0,100.0
6624,58.0,4,25,13.0,100.0
6625,66.0,33,25,11.0,100.0
6626,57.0,3,25,12.0,100.0
6627,60.0,4,25,13.0,100.0
6628,62.0,4,25,13.0,100.0
6629,67.0,33,60,11.0,100.0
6630,59.0,3,60,12.0,100.0
6631,64.0,40,25,13.0,100.0
6632,67.0,0,210,7.0,120.0
6633,55.0,2,210,7.0,120.0
6634,43.0,0,210,4.0,109.0
6635,55.0,0,210,4.0,109.0
6636,43.0,2,210,8.0,120.0
6637,66.0,40,25,13.0,100.0
6638,31.0,0,225,14.0,100.0
6639,43.0,3,225,3.0,96.0
6640,31.0,0,225,3.0,96.0
6641,67.0,1,25,12.0,100.0
6642,67.0,3,25,13.0,100.0
6643,83.0,32,40,0.0,93.0
6644,91.0,0,40,0.0,93.0
6645,79.0,2,40,6.0,127.0
6646,59.0,1,40,4.0,109.0
6647,62.0,0,40,4.0,109.0
6648,74.0,0,40,1.0,92.0
6649,83.0,0,40,1.0,92.0
6650,67.0,1,40,5.0,109.0
6651,73.0,0,40,2.0,93.0
6652,70.0,0,40,2.0,93.0
6653,62.0,0,40,3.0,96.0
6654,59.0,3,40,3.0,96.0
6655,65.0,33,25,12.0,100.0
6656,65.0,4,25,13.0,100.0
6657,63.0,1,25,12.0,100.0
6658,63.0,3,25,13.0,100.0
6659,81.0,0,40,0.0,93.0
6660,91.0,32,40,0.0,93.0
6661,79.0,2,40,6.0,127.0
6662,72.0,0,40,6.0,127.0
6663,57.0,0,40,4.0,109.0
6664,60.0,0,40,4.0,109.0
6665,72.0,0,40,1.0,92.0
6666,81.0,1,40,1.0,92.0
6667,67.0,0,40,5.0,109.0
6668,71.0,1,40,2.0,93.0
6669,68.0,0,40,2.0,93.0
6670,60.0,3,40,3.0,96.0
6671,57.0,0,40,3.0,96.0
6672,62.0,33,25,12.0,100.0
6673,62.0,4,25,13.0,100.0
6674,60.0,1,25,12.0,100.0
6675,60.0,3,25,13.0,100.0
6676,83.0,0,40,0.0,93.0
6677,91.0,32,40,0.0,93.0
6678,79.0,2,40,6.0,127.0
6679,62.0,1,40,4.0,109.0
6680,59.0,0,40,4.0,109.0
6681,74.0,0,40,1.0,92.0
6682,83.0,0,40,1.0,92.0
6683,70.0,1,40,2.0,93.0
6684,67.0,0,40,5.0,109.0
6685,73.0,0,40,2.0,93.0
6686,62.0,3,40,3.0,96.0
6687,59.0,0,40,3.0,96.0
6688,59.0,33,25,12.0,100.0
6689,59.0,4,25,13.0,100.0
6690,57.0,1,25,12.0,100.0
6691,57.0,3,25,13.0,100.0
6692,55.0,33,25,12.0,100.0
6693,55.0,4,25,13.0,100.0
6694,54.0,36,25,12.0,100.0
6695,54.0,4,25,13.0,100.0
6696,75.0,31,25,10.0,100.0
6697,63.0,2,25,11.0,100.0
6698,55.0,3,25,12.0,100.0
6699,55.0,4,25,13.0,100.0
6700,74.0,31,25,10.0,100.0
6701,62.0,2,25,11.0,100.0
6702,51.0,3,25,12.0,100.0
6703,51.0,4,25,13.0,100.0
6704,79.0,2,210,6.0,127.0
6705,75.0,0,210,6.0,127.0
6706,60.0,0,210,4.0,109.0
6707,63.0,0,210,4.0,109.0
6708,67.0,0,210,5.0,109.0
6709,60.0,0,210,5.0,109.0
6710,72.0,31,25,10.0,100.0
6711,91.0,32,225,0.0,93.0
6712,84.0,0,225,0.0,93.0
6713,60.0,2,25,11.0,100.0
6714,75.0,0,225,1.0,92.0
6715,84.0,1,225,1.0,92.0
6716,48.0,3,25,12.0,100.0
6717,71.0,1,225,2.0,93.0
6718,74.0,0,225,2.0,93.0
6719,48.0,4,25,13.0,100.0
6720,63.0,0,225,3.0,96.0
6721,60.0,3,225,3.0,96.0
6722,71.0,31,25,10.0,100.0
6723,59.0,2,25,11.0,100.0
6724,59.0,0,40,7.0,120.0
6725,62.0,0,40,4.0,109.0
6726,55.0,2,40,4.0,109.0
6727,62.0,0,40,7.0,120.0
6728,31.0,3,40,3.0,96.0
6729,47.0,0,40,3.0,96.0
6730,31.0,0,40,14.0,100.0
6731,50.0,0,40,3.0,96.0
6732,72.0,28,25,10.0,100.0
6733,55.0,1,60,12.0,100.0
6734,60.0,2,25,11.0,100.0
6735,43.0,2,60,13.0,100.0
6736,74.0,38,25,10.0,100.0
6737,62.0,2,25,11.0,100.0
6738,57.0,0,40,7.0,120.0
6739,60.0,0,40,4.0,109.0
6740,60.0,2,40,7.0,120.0
6741,55.0,0,40,4.0,109.0
6742,48.0,8,40,3.0,96.0
6743,31.0,0,40,14.0,100.0
6744,45.0,0,40,3.0,96.0
6745,31.0,0,40,3.0,96.0
6746,75.0,28,25,10.0,100.0
6747,63.0,2,25,11.0,100.0
6748,77.0,38,25,10.0,100.0
6749,65.0,2,25,11.0,100.0
6750,62.0,2,40,4.0,109.0
6751,62.0,0,40,7.0,120.0
6752,55.0,0,40,4.0,109.0
6753,59.0,0,40,7.0,120.0
6754,47.0,0,40,3.0,96.0
6755,50.0,0,40,3.0,96.0
6756,31.0,8,40,14.0,100.0
6757,31.0,0,40,3.0,96.0
6758,55.0,2,210,8.0,120.0
6759,79.0,28,25,10.0,100.0
6760,67.0,2,25,11.0,100.0
6761,80.0,38,25,10.0,100.0
6762,68.0,1,25,11.0,100.0
6763,78.0,28,25,10.0,100.0
6764,66.0,2,25,11.0,100.0
6765,76.0,38,25,10.0,100.0
6766,64.0,2,25,11.0,100.0
6767,68.0,3,25,12.0,100.0
6768,56.0,4,25,13.0,100.0
6769,75.0,38,60,10.0,100.0
6770,63.0,2,60,11.0,100.0
6771,66.0,36,25,12.0,100.0
6772,54.0,4,25,13.0,100.0
6773,68.0,0,210,6.0,127.0
6774,80.0,1,210,6.0,127.0
6775,48.0,0,210,4.0,109.0
6776,63.0,0,210,4.0,109.0
6777,63.0,1,210,7.0,120.0
6778,60.0,0,210,7.0,120.0
6779,68.0,0,210,5.0,109.0
6780,48.0,1,210,8.0,120.0
6781,92.0,1,225,0.0,93.0
6782,80.0,0,225,1.0,92.0
6783,68.0,0,225,1.0,92.0
6784,64.0,36,25,12.0,100.0
6785,80.0,0,225,2.0,93.0
6786,68.0,2,225,2.0,93.0
6787,52.0,4,25,13.0,100.0
6788,51.0,0,225,3.0,96.0
6789,48.0,0,225,3.0,96.0
6790,36.0,0,225,3.0,96.0
6791,36.0,5,225,14.0,100.0
6792,63.0,1,25,12.0,100.0
6793,51.0,2,25,13.0,100.0
6794,64.0,33,25,12.0,100.0
6795,52.0,4,25,13.0,100.0
6796,66.0,36,25,12.0,100.0
6797,54.0,4,25,13.0,100.0
6798,80.0,31,25,10.0,100.0
6799,68.0,2,25,11.0,100.0
6800,78.0,31,25,10.0,100.0
6801,68.0,3,60,12.0,100.0
6802,66.0,2,25,11.0,100.0
6803,56.0,4,60,13.0,100.0
6804,80.0,2,210,6.0,127.0
6805,68.0,0,210,6.0,127.0
6806,56.0,0,210,7.0,120.0
6807,68.0,1,210,7.0,120.0
6808,68.0,0,210,5.0,109.0
6809,44.0,1,210,8.0,120.0
6810,76.0,38,25,10.0,100.0
6811,92.0,32,225,0.0,93.0
6812,64.0,2,25,11.0,100.0
6813,68.0,0,225,1.0,92.0
6814,80.0,0,225,1.0,92.0
6815,80.0,1,225,2.0,93.0
6816,68.0,0,225,2.0,93.0
6817,32.0,3,225,14.0,100.0
6818,44.0,0,225,3.0,96.0
6819,32.0,0,225,3.0,96.0
6820,75.0,38,25,10.0,100.0
6821,63.0,2,25,11.0,100.0
6822,76.0,28,25,10.0,100.0
6823,64.0,2,25,11.0,100.0
6824,78.0,38,25,10.0,100.0
6825,66.0,2,25,11.0,100.0
6826,63.0,3,25,12.0,100.0
6827,51.0,4,25,13.0,100.0
6828,80.0,38,60,10.0,100.0
6829,68.0,2,60,11.0,100.0
6830,64.0,36,25,12.0,100.0
6831,52.0,4,25,13.0,100.0
6832,68.0,0,210,7.0,120.0
6833,56.0,2,210,7.0,120.0
6834,44.0,3,210,8.0,120.0
6835,66.0,36,25,12.0,100.0
6836,54.0,4,25,13.0,100.0
6837,32.0,0,225,3.0,96.0
6838,44.0,0,225,3.0,96.0
6839,32.0,5,225,14.0,100.0
6840,68.0,1,25,12.0,100.0
6841,56.0,3,25,13.0,100.0
6842,92.0,32,40,0.0,93.0
6843,84.0,0,40,0.0,93.0
6844,80.0,0,40,6.0,127.0
6845,68.0,2,40,6.0,127.0
6846,75.0,1,40,1.0,92.0
6847,63.0,0,40,4.0,109.0
6848,60.0,0,40,4.0,109.0
6849,84.0,0,40,1.0,92.0
6850,72.0,0,40,2.0,93.0
6851,68.0,0,40,5.0,109.0
6852,75.0,1,40,2.0,93.0
6853,63.0,0,40,3.0,96.0
6854,60.0,3,40,3.0,96.0
6855,66.0,33,25,12.0,100.0
6856,54.0,4,25,13.0,100.0
6857,64.0,1,25,12.0,100.0
6858,52.0,3,25,13.0,100.0
6859,82.0,32,40,0.0,93.0
6860,92.0,0,40,0.0,93.0
6861,80.0,0,40,6.0,127.0
6862,68.0,2,40,6.0,127.0
6863,82.0,0,40,1.0,92.0
6864,58.0,0,40,4.0,109.0
6865,73.0,0,40,1.0,92.0
6866,61.0,1,40,4.0,109.0
6867,70.0,1,40,2.0,93.0
6868,73.0,0,40,2.0,93.0
6869,68.0,0,40,5.0,109.0
6870,61.0,0,40,3.0,96.0
6871,58.0,3,40,3.0,96.0
6872,63.0,33,25,12.0,100.0
6873,51.0,4,25,13.0,100.0
6874,61.0,1,25,12.0,100.0
6875,49.0,3,25,13.0,100.0
6876,92.0,32,40,0.0,93.0
6877,84.0,0,40,0.0,93.0
6878,80.0,0,40,6.0,127.0
6879,68.0,2,40,6.0,127.0
6880,84.0,0,40,1.0,92.0
6881,75.0,0,40,1.0,92.0
6882,60.0,0,40,4.0,109.0
6883,63.0,1,40,4.0,109.0
6884,68.0,1,40,5.0,109.0
6885,75.0,0,40,2.0,93.0
6886,72.0,0,40,2.0,93.0
6887,63.0,0,40,3.0,96.0
6888,60.0,3,40,3.0,96.0
6889,60.0,33,25,12.0,100.0
6890,48.0,4,25,13.0,100.0
6891,58.0,1,25,12.0,100.0
6892,46.0,3,25,13.0,100.0
6893,56.0,33,25,12.0,100.0
6894,44.0,4,25,13.0,100.0
6895,55.0,36,25,12.0,100.0
6896,43.0,4,25,13.0,100.0
6897,64.0,31,25,10.0,100.0
6898,64.0,2,25,11.0,100.0
6899,56.0,3,25,12.0,100.0
6900,44.0,4,25,13.0,100.0
6901,68.0,31,25,10.0,100.0
6902,68.0,2,25,11.0,100.0
6903,52.0,3,25,12.0,100.0
6904,40.0,4,25,13.0,100.0
6905,68.0,2,210,6.0,127.0
6906,80.0,0,210,6.0,127.0
6907,61.0,1,210,4.0,109.0
6908,64.0,0,210,4.0,109.0
6909,68.0,0,210,5.0,109.0
6910,73.0,31,25,10.0,100.0
6911,85.0,32,225,0.0,93.0
6912,92.0,0,225,0.0,93.0
6913,73.0,2,25,11.0,100.0
6914,85.0,0,225,1.0,92.0
6915,76.0,0,225,1.0,92.0
6916,49.0,3,25,12.0,100.0
6917,73.0,1,225,2.0,93.0
6918,76.0,0,225,2.0,93.0
6919,37.0,4,25,13.0,100.0
6920,64.0,0,225,3.0,96.0
6921,61.0,3,225,3.0,96.0
6922,81.0,31,25,10.0,100.0
6923,78.0,2,25,11.0,100.0
6924,57.0,2,60,7.0,120.0
6925,66.0,0,60,7.0,120.0
6926,80.0,28,25,10.0,100.0
6927,76.0,2,25,11.0,100.0
6928,54.0,0,60,3.0,96.0
6929,57.0,0,60,3.0,96.0
6930,78.0,38,25,10.0,100.0
6931,75.0,2,25,11.0,100.0
6932,76.0,38,25,10.0,100.0
6933,73.0,2,25,11.0,100.0
6934,64.0,2,60,7.0,120.0
6935,61.0,0,60,7.0,120.0
6936,75.0,28,25,10.0,100.0
6937,71.0,2,25,11.0,100.0
6938,61.0,8,60,3.0,96.0
6939,52.0,0,60,3.0,96.0
6940,69.0,2,210,5.0,109.0
6941,54.0,1,210,8.0,120.0
6942,73.0,38,25,10.0,100.0
6943,69.0,2,25,11.0,100.0
6944,42.0,2,225,13.0,100.0
6945,30.0,3,225,3.0,96.0
6946,30.0,0,225,14.0,100.0
6947,80.0,38,25,10.0,100.0
6948,68.0,2,25,11.0,100.0
6949,75.0,28,25,10.0,100.0
6950,75.0,2,25,11.0,100.0
6951,72.0,38,25,10.0,100.0
6952,72.0,2,25,11.0,100.0
6953,60.0,3,25,12.0,100.0
6954,68.0,38,60,10.0,100.0
6955,68.0,2,60,11.0,100.0
6956,63.0,40,25,12.0,100.0
6957,63.0,0,210,7.0,120.0
6958,60.0,2,210,7.0,120.0
6959,68.0,2,210,5.0,109.0
6960,56.0,1,210,8.0,120.0
6961,68.0,40,25,12.0,100.0
6962,44.0,2,225,13.0,100.0
6963,60.0,0,225,3.0,96.0
6964,32.0,0,225,14.0,100.0
6965,51.0,3,225,3.0,96.0
6966,32.0,0,225,3.0,96.0
6967,69.0,35,25,10.0,100.0
6968,57.0,1,25,11.0,100.0
6969,73.0,1,25,12.0,100.0
6970,54.0,3,25,13.0,100.0
6971,93.0,1,60,0.0,93.0
6972,90.0,0,60,0.0,93.0
6973,81.0,0,60,6.0,127.0
6974,69.0,1,60,6.0,127.0
6975,66.0,0,60,4.0,109.0
6976,54.0,1,60,4.0,109.0
6977,81.0,0,60,1.0,92.0
6978,78.0,0,60,1.0,92.0
6979,68.0,28,25,10.0,100.0
6980,81.0,0,60,2.0,93.0
6981,69.0,1,60,5.0,109.0
6982,73.0,0,60,2.0,93.0
6983,59.0,2,25,11.0,100.0
6984,71.0,3,25,12.0,100.0
6985,57.0,3,60,3.0,96.0
6986,54.0,0,60,3.0,96.0
6987,56.0,4,25,13.0,100.0
6988,66.0,31,25,10.0,100.0
6989,61.0,2,25,11.0,100.0
6990,69.0,3,25,12.0,100.0
6991,57.0,4,25,13.0,100.0
6992,64.0,31,25,10.0,100.0
6993,61.0,1,25,11.0,100.0
6994,68.0,1,25,12.0,100.0
6995,57.0,3,25,13.0,100.0
6996,88.0,0,60,0.0,93.0
6997,92.0,1,60,0.0,93.0
6998,76.0,0,60,1.0,92.0
6999,80.0,0,60,1.0,92.0
7000,64.0,2,60,4.0,109.0
7001,57.0,0,60,4.0,109.0
7002,63.0,28,25,10.0,100.0
7003,73.0,0,60,2.0,93.0
7004,80.0,0,60,2.0,93.0
7005,68.0,1,60,5.0,109.0
7006,63.0,2,25,11.0,100.0
7007,66.0,3,25,12.0,100.0
7008,61.0,0,60,3.0,96.0
7009,57.0,3,60,3.0,96.0
7010,59.0,4,25,13.0,100.0
7011,61.0,31,25,10.0,100.0
7012,64.0,2,25,11.0,100.0
7013,64.0,3,25,12.0,100.0
7014,61.0,4,25,13.0,100.0
7015,71.0,1,25,12.0,100.0
7016,66.0,31,60,10.0,100.0
7017,63.0,1,60,11.0,100.0
7018,47.0,3,60,13.0,100.0
7019,66.0,33,25,12.0,100.0
7020,63.0,40,25,12.0,100.0
7021,71.0,35,25,10.0,100.0
7022,66.0,2,25,11.0,100.0
7023,63.0,3,25,12.0,100.0
7024,73.0,31,25,10.0,100.0
7025,67.0,2,25,11.0,100.0
7026,59.0,4,60,13.0,100.0
7027,64.0,3,25,12.0,100.0
7028,75.0,1,210,6.0,127.0
7029,59.0,0,210,4.0,109.0
7030,63.0,0,210,4.0,109.0
7031,66.0,0,210,5.0,109.0
7032,75.0,35,25,10.0,100.0
7033,87.0,0,225,0.0,93.0
7034,90.0,1,225,0.0,93.0
7035,69.0,2,25,11.0,100.0
7036,78.0,1,225,1.0,92.0
7037,75.0,0,225,1.0,92.0
7038,66.0,3,25,12.0,100.0
7039,78.0,0,225,2.0,93.0
7040,75.0,1,225,2.0,93.0
7041,59.0,0,225,3.0,96.0
7042,63.0,3,225,3.0,96.0
7043,76.0,35,25,10.0,100.0
7044,71.0,1,25,11.0,100.0
7045,67.0,1,25,12.0,100.0
7046,74.0,28,25,10.0,100.0
7047,69.0,2,25,11.0,100.0
7048,66.0,3,25,12.0,100.0
7049,72.0,35,25,10.0,100.0
7050,67.0,2,25,11.0,100.0
7051,64.0,3,25,12.0,100.0
7052,66.0,2,25,11.0,100.0
7053,62.0,3,25,12.0,100.0
7054,59.0,4,25,13.0,100.0
7055,71.0,35,60,10.0,100.0
7056,60.0,33,25,11.0,100.0
7057,66.0,3,25,12.0,100.0
7058,57.0,4,25,13.0,100.0
7059,59.0,0,210,4.0,109.0
7060,95.0,0,225,0.0,93.0
7061,83.0,1,225,0.0,93.0
7062,59.0,33,25,11.0,100.0
7063,83.0,0,225,1.0,92.0
7064,71.0,2,225,1.0,92.0
7065,64.0,3,25,12.0,100.0
7066,83.0,0,225,2.0,93.0
7067,71.0,1,225,2.0,93.0
7068,55.0,4,25,13.0,100.0
7069,59.0,6,225,3.0,96.0
7070,57.0,1,25,11.0,100.0
7071,63.0,1,25,12.0,100.0
7072,54.0,2,25,13.0,100.0
7073,59.0,30,25,11.0,100.0
7074,64.0,3,25,12.0,100.0
7075,55.0,4,25,13.0,100.0
7076,60.0,33,25,11.0,100.0
7077,66.0,3,25,12.0,100.0
7078,57.0,4,25,13.0,100.0
7079,79.0,31,25,10.0,100.0
7080,64.0,2,60,11.0,100.0
7081,81.0,31,25,10.0,100.0
7082,67.0,3,60,12.0,100.0
7083,59.0,4,60,13.0,100.0
7084,59.0,0,210,4.0,109.0
7085,59.0,0,210,7.0,120.0
7086,47.0,1,210,8.0,120.0
7087,82.0,40,25,10.0,100.0
7088,95.0,0,225,0.0,93.0
7089,83.0,32,225,0.0,93.0
7090,83.0,2,225,1.0,92.0
7091,71.0,0,225,1.0,92.0
7092,71.0,0,225,2.0,93.0
7093,83.0,1,225,2.0,93.0
7094,59.0,0,225,3.0,96.0
7095,35.0,3,225,14.0,100.0
7096,35.0,0,225,3.0,96.0
7097,83.0,40,25,10.0,100.0
7098,71.0,2,25,11.0,100.0
7099,63.0,1,25,12.0,100.0
7100,66.0,0,25,12.0,100.0
7101,66.0,2,40,7.0,120.0
7102,63.0,0,40,7.0,120.0
7103,82.0,28,25,10.0,100.0
7104,75.0,2,25,11.0,100.0
7105,63.0,3,25,12.0,100.0
7106,66.0,0,25,12.0,100.0
7107,83.0,35,25,10.0,100.0
7108,78.0,2,25,11.0,100.0
7109,64.0,0,25,12.0,100.0
7110,61.0,1,25,12.0,100.0
7111,64.0,2,40,7.0,120.0
7112,61.0,0,40,7.0,120.0
7113,78.0,35,25,10.0,100.0
7114,83.0,2,25,11.0,100.0
7115,64.0,0,25,12.0,100.0
7116,61.0,3,25,12.0,100.0
7117,47.0,4,40,13.0,100.0
7118,75.0,31,25,10.0,100.0
7119,82.0,2,25,11.0,100.0
7120,63.0,0,25,12.0,100.0
7121,66.0,1,25,12.0,100.0
7122,66.0,2,40,7.0,120.0
7123,63.0,0,40,7.0,120.0
7124,47.0,4,40,13.0,100.0
7125,47.0,2,210,8.0,120.0
7126,71.0,31,25,10.0,100.0
7127,83.0,2,25,11.0,100.0
7128,66.0,0,25,12.0,100.0
7129,63.0,3,25,12.0,100.0
7130,47.0,0,225,3.0,96.0
7131,35.0,0,225,3.0,96.0
7132,35.0,5,225,14.0,100.0
7133,47.0,4,40,13.0,100.0
7134,83.0,31,25,10.0,100.0
7135,79.0,1,25,11.0,100.0
7136,67.0,1,25,12.0,100.0
7137,64.0,0,25,12.0,100.0
7138,52.0,2,25,13.0,100.0
7139,91.0,0,40,0.0,93.0
7140,88.0,1,40,0.0,93.0
7141,79.0,0,40,1.0,92.0
7142,76.0,1,40,1.0,92.0
7143,79.0,1,40,2.0,93.0
7144,76.0,0,40,2.0,93.0
7145,64.0,0,40,3.0,96.0
7146,67.0,0,40,3.0,96.0
7147,79.0,1,60,6.0,127.0
7148,82.0,28,25,10.0,100.0
7149,76.0,2,25,11.0,100.0
7150,64.0,0,25,12.0,100.0
7151,67.0,3,25,12.0,100.0
7152,55.0,4,25,13.0,100.0
7153,83.0,31,25,10.0,100.0
7154,71.0,1,25,11.0,100.0
7155,66.0,0,25,12.0,100.0
7156,63.0,1,25,12.0,100.0
7157,59.0,3,25,13.0,100.0
7158,90.0,0,40,0.0,93.0
7159,87.0,1,40,0.0,93.0
7160,78.0,0,40,1.0,92.0
7161,75.0,2,40,1.0,92.0
7162,78.0,1,40,2.0,93.0
7163,75.0,0,40,2.0,93.0
7164,63.0,0,40,3.0,96.0
7165,66.0,3,40,3.0,96.0
7166,79.0,28,25,10.0,100.0
7167,83.0,2,25,11.0,100.0
7168,47.0,4,20,13.0,100.0
7169,63.0,3,25,12.0,100.0
7170,66.0,0,25,12.0,100.0
7171,76.0,4,25,10.0,100.0
7172,82.0,1,25,11.0,100.0
7173,47.0,3,20,13.0,100.0
7174,67.0,0,25,12.0,100.0
7175,64.0,1,25,12.0,100.0
7176,91.0,22,40,0.0,93.0
7177,79.0,3,40,1.0,92.0
7178,79.0,2,40,2.0,93.0
7179,88.0,1,40,0.0,93.0
7180,67.0,0,40,3.0,96.0
7181,76.0,2,40,1.0,92.0
7182,76.0,1,40,2.0,93.0
7183,64.0,3,40,3.0,96.0
7184,67.0,0,210,7.0,120.0
7185,64.0,0,210,7.0,120.0
7186,47.0,1,210,8.0,120.0
7187,71.0,28,25,10.0,100.0
7188,83.0,2,25,11.0,100.0
7189,47.0,4,20,13.0,100.0
7190,67.0,0,25,12.0,100.0
7191,64.0,3,25,12.0,100.0
7192,35.0,0,225,3.0,96.0
7193,35.0,3,225,14.0,100.0
7194,83.0,31,25,10.0,100.0
7195,81.0,1,25,11.0,100.0
7196,63.0,0,25,12.0,100.0
7197,66.0,1,25,12.0,100.0
7198,51.0,2,25,13.0,100.0
7199,63.0,0,40,7.0,120.0
7200,66.0,1,40,7.0,120.0
7201,82.0,28,25,10.0,100.0
7202,78.0,2,25,11.0,100.0
7203,66.0,3,25,12.0,100.0
7204,63.0,0,25,12.0,100.0
7205,54.0,4,25,13.0,100.0
7206,83.0,31,25,10.0,100.0
7207,71.0,2,25,11.0,100.0
7208,61.0,0,25,12.0,100.0
7209,64.0,1,25,12.0,100.0
7210,59.0,4,25,13.0,100.0
7211,64.0,0,40,7.0,120.0
7212,61.0,2,40,7.0,120.0
7213,78.0,31,25,10.0,100.0
7214,83.0,2,25,11.0,100.0
7215,47.0,4,20,13.0,100.0
7216,61.0,0,25,12.0,100.0
7217,64.0,3,25,12.0,100.0
7218,75.0,31,25,10.0,100.0
7219,82.0,2,25,11.0,100.0
7220,47.0,4,20,13.0,100.0
7221,66.0,1,25,12.0,100.0
7222,63.0,0,25,12.0,100.0
7223,63.0,0,40,7.0,120.0
7224,66.0,2,40,7.0,120.0
7225,81.0,1,210,6.0,127.0
7226,47.0,1,210,8.0,120.0
7227,71.0,31,25,10.0,100.0
7228,93.0,1,225,0.0,93.0
7229,90.0,0,225,0.0,93.0
7230,83.0,2,25,11.0,100.0
7231,81.0,0,225,1.0,92.0
7232,47.0,4,20,13.0,100.0
7233,78.0,0,225,1.0,92.0
7234,63.0,3,25,12.0,100.0
7235,66.0,0,25,12.0,100.0
7236,78.0,1,225,2.0,93.0
7237,81.0,0,225,2.0,93.0
7238,66.0,0,225,3.0,96.0
7239,69.0,0,225,3.0,96.0
7240,35.0,0,225,3.0,96.0
7241,35.0,3,225,14.0,100.0
7242,82.0,31,25,10.0,100.0
7243,79.0,1,25,11.0,100.0
7244,67.0,1,25,12.0,100.0
7245,64.0,0,25,12.0,100.0
7246,52.0,2,25,13.0,100.0
7247,91.0,1,40,0.0,93.0
7248,88.0,0,40,0.0,93.0
7249,79.0,1,40,1.0,92.0
7250,76.0,0,40,1.0,92.0
7251,79.0,1,40,2.0,93.0
7252,76.0,0,40,2.0,93.0
7253,64.0,0,40,3.0,96.0
7254,67.0,0,40,3.0,96.0
7255,79.0,1,60,6.0,127.0
7256,81.0,28,25,10.0,100.0
7257,76.0,2,25,11.0,100.0
7258,64.0,3,25,12.0,100.0
7259,67.0,0,25,12.0,100.0
7260,55.0,4,25,13.0,100.0
7261,82.0,31,25,10.0,100.0
7262,71.0,1,25,11.0,100.0
7263,66.0,0,25,12.0,100.0
7264,63.0,1,25,12.0,100.0
7265,59.0,3,25,13.0,100.0
7266,90.0,1,40,0.0,93.0
7267,87.0,0,40,0.0,93.0
7268,78.0,2,40,1.0,92.0
7269,75.0,0,40,1.0,92.0
7270,75.0,1,40,2.0,93.0
7271,78.0,0,40,2.0,93.0
7272,63.0,3,40,3.0,96.0
7273,66.0,0,40,3.0,96.0
7274,79.0,28,25,10.0,100.0
7275,83.0,2,25,11.0,100.0
7276,47.0,4,20,13.0,100.0
7277,63.0,0,25,12.0,100.0
7278,66.0,3,25,12.0,100.0
7279,76.0,4,25,10.0,100.0
7280,82.0,1,25,11.0,100.0
7281,47.0,3,20,13.0,100.0
7282,64.0,0,25,12.0,100.0
7283,67.0,1,25,12.0,100.0
7284,91.0,22,40,0.0,93.0
7285,79.0,3,40,1.0,92.0
7286,79.0,2,40,2.0,93.0
7287,88.0,1,40,0.0,93.0
7288,67.0,0,40,3.0,96.0
7289,76.0,2,40,1.0,92.0
7290,76.0,1,40,2.0,93.0
7291,64.0,3,40,3.0,96.0
7292,64.0,0,210,7.0,120.0
7293,67.0,0,210,7.0,120.0
7294,47.0,1,210,8.0,120.0
7295,71.0,28,25,10.0,100.0
7296,83.0,2,25,11.0,100.0
7297,47.0,4,20,13.0,100.0
7298,67.0,3,25,12.0,100.0
7299,64.0,0,25,12.0,100.0
7300,35.0,3,225,14.0,100.0
7301,35.0,0,225,3.0,96.0
7302,82.0,31,25,10.0,100.0
7303,81.0,1,25,11.0,100.0
7304,66.0,0,25,12.0,100.0
7305,63.0,1,25,12.0,100.0
7306,51.0,2,25,13.0,100.0
7307,66.0,0,40,7.0,120.0
7308,63.0,0,40,7.0,120.0
7309,35.0,0,40,3.0,96.0
7310,35.0,0,40,14.0,100.0
7311,81.0,28,25,10.0,100.0
7312,78.0,2,25,11.0,100.0
7313,63.0,0,25,12.0,100.0
7314,66.0,3,25,12.0,100.0
7315,54.0,4,25,13.0,100.0
7316,82.0,31,25,10.0,100.0
7317,71.0,2,25,11.0,100.0
7318,64.0,1,25,12.0,100.0
7319,61.0,0,25,12.0,100.0
7320,59.0,4,25,13.0,100.0
7321,64.0,0,40,7.0,120.0
7322,61.0,2,40,7.0,120.0
7323,35.0,3,40,14.0,100.0
7324,35.0,0,40,3.0,96.0
7325,78.0,28,25,10.0,100.0
7326,83.0,2,25,11.0,100.0
7327,47.0,4,20,13.0,100.0
7328,61.0,0,25,12.0,100.0
7329,64.0,3,25,12.0,100.0
7330,75.0,31,25,10.0,100.0
7331,82.0,2,25,11.0,100.0
7332,47.0,4,20,13.0,100.0
7333,66.0,0,25,12.0,100.0
7334,63.0,1,25,12.0,100.0
7335,66.0,2,40,7.0,120.0
7336,63.0,0,40,7.0,120.0
7337,35.0,0,40,14.0,100.0
7338,35.0,3,40,3.0,96.0
7339,81.0,1,210,6.0,127.0
7340,47.0,1,210,8.0,120.0
7341,71.0,28,25,10.0,100.0
7342,93.0,1,225,0.0,93.0
7343,90.0,0,225,0.0,93.0
7344,83.0,2,25,11.0,100.0
7345,78.0,0,225,1.0,92.0
7346,47.0,4,20,13.0,100.0
7347,81.0,1,225,1.0,92.0
7348,63.0,3,25,12.0,100.0
7349,66.0,0,25,12.0,100.0
7350,78.0,0,225,2.0,93.0
7351,81.0,1,225,2.0,93.0
7352,66.0,3,225,3.0,96.0
7353,69.0,0,225,3.0,96.0
7354,83.0,31,25,10.0,100.0
7355,79.0,1,25,11.0,100.0
7356,67.0,1,25,12.0,100.0
7357,64.0,0,25,12.0,100.0
7358,52.0,2,25,13.0,100.0
7359,88.0,1,40,0.0,93.0
7360,91.0,0,40,0.0,93.0
7361,79.0,0,40,1.0,92.0
7362,76.0,0,40,1.0,92.0
7363,79.0,1,40,2.0,93.0
7364,76.0,0,40,2.0,93.0
7365,67.0,0,40,3.0,96.0
7366,40.0,3,40,3.0,96.0
7367,40.0,0,40,14.0,100.0
7368,64.0,0,40,3.0,96.0
7369,79.0,1,60,6.0,127.0
7370,67.0,1,60,7.0,120.0
7371,64.0,0,60,7.0,120.0
7372,82.0,28,25,10.0,100.0
7373,52.0,1,60,8.0,120.0
7374,76.0,2,25,11.0,100.0
7375,67.0,0,25,12.0,100.0
7376,64.0,3,25,12.0,100.0
7377,55.0,4,25,13.0,100.0
7378,83.0,31,25,10.0,100.0
7379,71.0,1,25,11.0,100.0
7380,63.0,1,25,12.0,100.0
7381,66.0,0,25,12.0,100.0
7382,59.0,3,25,13.0,100.0
7383,90.0,1,40,0.0,93.0
7384,87.0,0,40,0.0,93.0
7385,78.0,0,40,1.0,92.0
7386,75.0,2,40,1.0,92.0
7387,78.0,1,40,2.0,93.0
7388,75.0,0,40,2.0,93.0
7389,63.0,0,40,3.0,96.0
7390,40.0,3,40,3.0,96.0
7391,40.0,0,40,14.0,100.0
7392,66.0,0,40,3.0,96.0
7393,79.0,28,25,10.0,100.0
7394,83.0,2,25,11.0,100.0
7395,66.0,0,25,12.0,100.0
7396,63.0,3,25,12.0,100.0
7397,52.0,4,25,13.0,100.0
7398,76.0,31,25,10.0,100.0
7399,82.0,1,25,11.0,100.0
7400,67.0,1,25,12.0,100.0
7401,64.0,0,25,12.0,100.0
7402,55.0,3,25,13.0,100.0
7403,88.0,1,40,0.0,93.0
7404,91.0,0,40,0.0,93.0
7405,76.0,2,40,1.0,92.0
7406,79.0,0,40,1.0,92.0
7407,79.0,0,40,2.0,93.0
7408,76.0,1,40,2.0,93.0
7409,67.0,0,40,3.0,96.0
7410,40.0,3,40,3.0,96.0
7411,40.0,0,40,14.0,100.0
7412,64.0,0,40,3.0,96.0
7413,71.0,28,25,10.0,100.0
7414,83.0,2,25,11.0,100.0
7415,67.0,0,25,12.0,100.0
7416,64.0,3,25,12.0,100.0
7417,59.0,4,25,13.0,100.0
7418,84.0,31,25,10.0,115.0
7419,79.0,1,25,11.0,115.0
7420,67.0,0,25,12.0,115.0
7421,64.0,1,25,12.0,115.0
7422,48.0,2,25,13.0,115.0
7423,88.0,1,40,0.0,93.0
7424,91.0,0,40,0.0,93.0
7425,79.0,0,40,6.0,127.0
7426,72.0,1,40,6.0,127.0
7427,84.0,0,40,1.0,92.0
7428,79.0,0,40,1.0,92.0
7429,64.0,0,40,4.0,109.0
7430,67.0,0,40,4.0,109.0
7431,76.0,0,40,2.0,93.0
7432,79.0,1,40,2.0,93.0
7433,48.0,2,40,15.0,100.0
7434,64.0,0,40,3.0,96.0
7435,67.0,0,40,3.0,96.0
7436,36.0,1,40,3.0,111.0
7437,36.0,0,40,14.0,115.0
7438,67.0,0,60,7.0,120.0
7439,64.0,1,60,7.0,120.0
7440,83.0,28,25,10.0,115.0
7441,48.0,1,60,8.0,120.0
7442,76.0,2,25,11.0,115.0
7443,64.0,3,25,12.0,115.0
7444,67.0,0,25,12.0,115.0
7445,55.0,4,25,13.0,115.0
7446,72.0,0,80,5.0,109.0
7447,60.0,0,80,5.0,109.0
7448,84.0,31,25,10.0,115.0
7449,71.0,1,25,11.0,115.0
7450,62.0,1,25,12.0,115.0
7451,65.0,0,25,12.0,115.0
7452,60.0,3,25,13.0,115.0
7453,89.0,1,40,0.0,93.0
7454,86.0,0,40,0.0,93.0
7455,72.0,0,40,6.0,127.0
7456,77.0,1,40,6.0,127.0
7457,84.0,0,40,1.0,92.0
7458,77.0,0,40,1.0,92.0
7459,65.0,0,40,4.0,109.0
7460,62.0,1,40,4.0,109.0
7461,77.0,0,40,2.0,93.0
7462,74.0,1,40,2.0,93.0
7463,48.0,2,40,15.0,100.0
7464,65.0,0,40,3.0,96.0
7465,62.0,1,40,3.0,96.0
7466,36.0,0,40,3.0,111.0
7467,36.0,0,40,14.0,115.0
7468,79.0,28,25,10.0,115.0
7469,84.0,2,25,11.0,115.0
7470,65.0,3,25,12.0,115.0
7471,62.0,0,25,12.0,115.0
7472,48.0,4,25,13.0,115.0
7473,76.0,31,25,10.0,115.0
7474,83.0,1,25,11.0,115.0
7475,67.0,1,25,12.0,115.0
7476,64.0,0,25,12.0,115.0
7477,55.0,3,25,13.0,115.0
7478,88.0,1,40,0.0,93.0
7479,91.0,0,40,0.0,93.0
7480,79.0,0,40,6.0,127.0
7481,72.0,1,40,6.0,127.0
7482,79.0,0,40,1.0,92.0
7483,84.0,0,40,1.0,92.0
7484,64.0,1,40,4.0,109.0
7485,67.0,0,40,4.0,109.0
7486,72.0,0,40,5.0,109.0
7487,79.0,0,40,2.0,93.0
7488,60.0,0,40,5.0,109.0
7489,76.0,1,40,2.0,93.0
7490,48.0,2,40,15.0,100.0
7491,36.0,0,40,14.0,115.0
7492,64.0,0,40,3.0,96.0
7493,67.0,1,40,3.0,96.0
7494,36.0,0,40,3.0,111.0
7495,72.0,28,25,10.0,115.0
7496,84.0,2,25,11.0,115.0
7497,67.0,0,25,12.0,115.0
7498,64.0,3,25,12.0,115.0
7499,60.0,4,25,13.0,115.0
7500,84.0,31,25,10.0,115.0
7501,81.0,1,25,11.0,115.0
7502,69.0,1,25,12.0,115.0
7503,65.0,0,25,12.0,115.0
7504,53.0,2,25,13.0,115.0
7505,93.0,0,40,0.0,93.0
7506,96.0,1,40,0.0,93.0
7507,72.0,1,40,6.0,127.0
7508,81.0,0,40,6.0,127.0
7509,84.0,0,40,1.0,92.0
7510,81.0,0,40,1.0,92.0
7511,81.0,0,40,2.0,93.0
7512,72.0,1,40,2.0,93.0
7513,72.0,0,40,5.0,109.0
7514,69.0,0,40,5.0,109.0
7515,41.0,2,40,15.0,100.0
7516,69.0,0,40,3.0,96.0
7517,60.0,1,40,3.0,96.0
7518,69.0,0,60,7.0,120.0
7519,60.0,0,60,7.0,120.0
7520,81.0,28,25,10.0,115.0
7521,53.0,1,60,8.0,120.0
7522,77.0,2,25,11.0,115.0
7523,65.0,3,25,12.0,115.0
7524,69.0,0,25,12.0,115.0
7525,57.0,4,25,13.0,115.0
7526,79.0,31,25,10.0,115.0
7527,72.0,1,25,11.0,115.0
7528,70.0,0,25,12.0,115.0
7529,67.0,1,25,12.0,115.0
7530,60.0,3,25,13.0,115.0
7531,91.0,1,40,0.0,93.0
7532,94.0,0,40,0.0,93.0
7533,79.0,0,40,6.0,127.0
7534,72.0,1,40,6.0,127.0
7535,79.0,0,40,1.0,92.0
7536,82.0,1,40,1.0,92.0
7537,67.0,0,40,5.0,109.0
7538,70.0,0,40,5.0,109.0
7539,70.0,0,40,2.0,93.0
7540,79.0,1,40,2.0,93.0
7541,41.0,2,40,15.0,100.0
7542,67.0,1,40,3.0,96.0
7543,58.0,0,40,3.0,96.0
7544,84.0,28,25,10.0,115.0
7545,79.0,2,25,11.0,115.0
7546,67.0,3,25,12.0,115.0
7547,70.0,0,25,12.0,115.0
7548,53.0,4,25,13.0,115.0
7549,81.0,31,25,10.0,115.0
7550,77.0,1,25,11.0,115.0
7551,69.0,1,25,12.0,115.0
7552,72.0,0,25,12.0,115.0
7553,57.0,3,25,13.0,115.0
7554,96.0,0,40,0.0,93.0
7555,93.0,1,40,0.0,93.0
7556,81.0,1,40,6.0,127.0
7557,72.0,0,40,6.0,127.0
7558,84.0,0,40,1.0,92.0
7559,81.0,1,40,1.0,92.0
7560,81.0,1,40,2.0,93.0
7561,69.0,0,40,5.0,109.0
7562,72.0,0,40,2.0,93.0
7563,72.0,0,40,5.0,109.0
7564,41.0,2,40,15.0,100.0
7565,60.0,0,40,3.0,96.0
7566,69.0,1,40,3.0,96.0
7567,60.0,0,210,4.0,109.0
7568,65.0,1,210,4.0,109.0
7569,72.0,28,25,10.0,115.0
7570,72.0,2,25,11.0,115.0
7571,69.0,3,25,12.0,115.0
7572,72.0,0,25,12.0,115.0
7573,60.0,4,25,13.0,115.0
7574,41.0,0,225,3.0,111.0
7575,41.0,0,225,14.0,115.0
7576,82.0,1,25,11.0,115.0
7577,77.0,1,36,6.0,127.0
7578,65.0,0,36,6.0,127.0
7579,70.0,0,36,7.0,120.0
7580,86.0,31,40,10.0,115.0
7581,58.0,0,36,4.0,109.0
7582,62.0,0,36,7.0,120.0
7583,70.0,0,36,5.0,109.0
7584,74.0,1,36,5.0,109.0
7585,86.0,0,42,0.0,108.0
7586,46.0,1,36,8.0,120.0
7587,94.0,1,42,0.0,108.0
7588,82.0,0,42,1.0,107.0
7589,86.0,1,42,1.0,107.0
7590,41.0,2,36,15.0,100.0
7591,70.0,0,42,12.0,115.0
7592,74.0,1,42,12.0,115.0
7593,74.0,0,42,2.0,108.0
7594,82.0,0,42,2.0,108.0
7595,46.0,2,42,13.0,115.0
7596,34.0,0,42,3.0,111.0
7597,70.0,0,42,3.0,111.0
7598,34.0,1,42,14.0,115.0
7599,62.0,0,42,3.0,111.0
7600,82.0,28,25,10.0,115.0
7601,74.0,2,25,11.0,115.0
7602,74.0,38,25,10.0,115.0
7603,82.0,2,25,11.0,115.0
7604,84.0,38,25,10.0,115.0
7605,81.0,1,25,11.0,115.0
7606,65.0,1,36,6.0,127.0
7607,77.0,0,36,6.0,127.0
7608,60.0,0,36,7.0,120.0
7609,69.0,0,36,7.0,120.0
7610,58.0,1,36,4.0,109.0
7611,72.0,0,36,5.0,109.0
7612,69.0,0,36,5.0,109.0
7613,84.0,1,42,0.0,108.0
7614,93.0,0,42,0.0,108.0
7615,46.0,1,36,8.0,120.0
7616,81.0,0,42,1.0,107.0
7617,84.0,0,42,1.0,107.0
7618,41.0,2,36,15.0,100.0
7619,72.0,1,42,12.0,115.0
7620,69.0,0,42,12.0,115.0
7621,81.0,1,42,2.0,108.0
7622,72.0,0,42,2.0,108.0
7623,46.0,2,42,13.0,115.0
7624,34.0,0,42,3.0,111.0
7625,34.0,1,42,14.0,115.0
7626,60.0,0,42,3.0,111.0
7627,69.0,0,42,3.0,111.0
7628,81.0,28,25,10.0,115.0
7629,72.0,2,25,11.0,115.0
7630,72.0,38,25,10.0,115.0
7631,81.0,2,25,11.0,115.0
7632,82.0,38,25,10.0,115.0
7633,79.0,1,25,11.0,115.0
7634,67.0,0,25,12.0,115.0
7635,70.0,1,25,12.0,115.0
7636,48.0,2,25,13.0,115.0
7637,48.0,2,30,15.0,87.0
7638,79.0,28,25,10.0,115.0
7639,76.0,1,25,11.0,115.0
7640,70.0,3,25,12.0,115.0
7641,67.0,0,25,12.0,115.0
7642,48.0,1,30,15.0,87.0
7643,55.0,4,25,13.0,115.0
7644,48.0,22,30,15.0,87.0
7645,72.0,9,25,10.0,115.0
7646,72.0,2,25,11.0,115.0
7647,70.0,0,25,12.0,115.0
7648,67.0,3,25,12.0,115.0
7649,60.0,4,25,13.0,115.0
7650,48.0,12,30,15.0,87.0
7651,79.0,19,25,10.0,115.0
7652,76.0,2,25,11.0,115.0
7653,70.0,3,25,12.0,115.0
7654,67.0,0,25,12.0,115.0
7655,48.0,4,25,13.0,115.0
7656,48.0,1,0,15.0,87.0
7657,76.0,29,25,10.0,115.0
7658,72.0,1,25,11.0,115.0
7659,67.0,0,25,12.0,115.0
7660,70.0,3,25,12.0,115.0
7661,55.0,4,25,13.0,115.0
7662,72.0,1,210,6.0,127.0
7663,79.0,0,210,6.0,127.0
7664,70.0,0,210,7.0,120.0
7665,48.0,0,210,4.0,109.0
7666,60.0,1,210,4.0,109.0
7667,67.0,0,210,7.0,120.0
7668,70.0,0,210,5.0,109.0
7669,67.0,1,210,5.0,109.0
7670,48.0,1,210,8.0,120.0
7671,48.0,12,0,15.0,87.0
7672,72.0,9,25,10.0,115.0
7673,91.0,1,225,0.0,108.0
7674,94.0,0,225,0.0,108.0
7675,70.0,2,25,11.0,115.0
7676,82.0,0,225,1.0,107.0
7677,79.0,0,225,1.0,107.0
7678,67.0,0,25,12.0,115.0
7679,70.0,3,25,12.0,115.0
7680,70.0,0,225,2.0,108.0
7681,79.0,0,225,2.0,108.0
7682,60.0,4,25,13.0,115.0
7683,67.0,1,225,3.0,111.0
7684,58.0,0,225,3.0,111.0
7685,36.0,0,225,14.0,115.0
7686,36.0,0,225,3.0,111.0
7687,81.0,19,25,10.0,115.0
7688,77.0,1,25,11.0,115.0
7689,77.0,0,36,6.0,127.0
7690,81.0,1,36,6.0,127.0
7691,60.0,0,36,4.0,109.0
7692,48.0,1,36,4.0,109.0
7693,65.0,0,36,7.0,120.0
7694,69.0,0,36,7.0,120.0
7695,69.0,0,36,5.0,109.0
7696,65.0,1,36,5.0,109.0
7697,93.0,1,42,0.0,108.0
7698,41.0,1,36,8.0,120.0
7699,89.0,0,42,0.0,108.0
7700,81.0,0,42,1.0,107.0
7701,77.0,0,42,1.0,107.0
7702,69.0,0,42,12.0,115.0
7703,65.0,1,42,12.0,115.0
7704,41.0,2,36,15.0,100.0
7705,77.0,0,42,2.0,108.0
7706,69.0,0,42,2.0,108.0
7707,41.0,2,42,13.0,115.0
7708,29.0,0,42,14.0,115.0
7709,57.0,0,42,3.0,111.0
7710,29.0,0,42,3.0,111.0
7711,65.0,1,42,3.0,111.0
7712,77.0,28,25,10.0,115.0
7713,72.0,2,25,11.0,115.0
7714,72.0,38,25,10.0,115.0
7715,69.0,2,25,11.0,115.0
7716,84.0,38,25,10.0,115.0
7717,81.0,1,25,11.0,115.0
7718,77.0,1,36,6.0,127.0
7719,69.0,0,36,6.0,127.0
7720,65.0,0,36,4.0,109.0
7721,69.0,1,36,7.0,120.0
7722,65.0,0,36,7.0,120.0
7723,60.0,0,36,4.0,109.0
7724,69.0,0,36,5.0,109.0
7725,72.0,1,36,5.0,109.0
7726,84.0,0,42,0.0,108.0
7727,41.0,1,36,8.0,120.0
7728,93.0,1,42,0.0,108.0
7729,81.0,0,42,1.0,107.0
7730,84.0,0,42,1.0,107.0
7731,41.0,2,36,15.0,100.0
7732,69.0,1,42,12.0,115.0
7733,72.0,0,42,12.0,115.0
7734,81.0,0,42,2.0,108.0
7735,72.0,0,42,2.0,108.0
7736,41.0,2,42,13.0,115.0
7737,29.0,1,42,14.0,115.0
7738,29.0,0,42,3.0,111.0
7739,60.0,0,42,3.0,111.0
7740,69.0,0,42,3.0,111.0
7741,81.0,28,25,10.0,115.0
7742,77.0,2,25,11.0,115.0
7743,77.0,38,25,10.0,115.0
7744,72.0,2,25,11.0,115.0
7745,81.0,1,25,11.0,115.0
7746,72.0,0,25,12.0,115.0
7747,69.0,1,25,12.0,115.0
7748,89.0,38,40,10.0,115.0
7749,48.0,2,30,15.0,87.0
7750,80.0,1,25,11.0,115.0
7751,69.0,3,25,12.0,115.0
7752,72.0,0,25,12.0,115.0
7753,48.0,26,0,15.0,87.0
7754,88.0,28,40,10.0,115.0
7755,48.0,16,0,15.0,87.0
7756,81.0,2,25,11.0,115.0
7757,72.0,3,25,12.0,115.0
7758,69.0,0,25,12.0,115.0
7759,89.0,9,40,10.0,115.0
7760,81.0,19,25,10.0,115.0
7761,77.0,2,25,11.0,115.0
7762,72.0,0,25,12.0,115.0
7763,69.0,3,25,12.0,115.0
7764,48.0,6,30,15.0,87.0
7765,80.0,29,25,10.0,115.0
7766,76.0,1,25,11.0,115.0
7767,72.0,0,25,12.0,115.0
7768,69.0,3,25,12.0,115.0
7769,48.0,1,30,15.0,87.0
7770,48.0,16,0,15.0,87.0
7771,81.0,9,25,10.0,115.0
7772,77.0,2,25,11.0,115.0
7773,69.0,3,25,12.0,115.0
7774,72.0,0,25,12.0,115.0
7775,77.0,19,25,10.0,115.0
7776,69.0,2,25,11.0,115.0
7777,72.0,3,25,12.0,115.0
7778,69.0,0,25,12.0,115.0
7779,48.0,1,0,15.0,87.0
7780,76.0,29,25,10.0,115.0
7781,68.0,1,25,11.0,115.0
7782,72.0,0,25,12.0,115.0
7783,69.0,3,25,12.0,115.0
7784,48.0,26,0,15.0,87.0
7785,48.0,16,0,15.0,87.0
7786,77.0,9,25,10.0,115.0
7787,69.0,2,25,11.0,115.0
7788,69.0,3,25,12.0,115.0
7789,72.0,0,25,12.0,115.0
7790,69.0,19,25,10.0,115.0
7791,65.0,2,25,11.0,115.0
7792,69.0,3,25,12.0,115.0
7793,72.0,0,25,12.0,115.0
7794,48.0,1,0,15.0,87.0
7795,68.0,29,25,10.0,115.0
7796,64.0,1,25,11.0,115.0
7797,69.0,0,25,12.0,115.0
7798,72.0,3,25,12.0,115.0
7799,48.0,26,0,15.0,87.0
7800,69.0,9,25,10.0,115.0
7801,65.0,2,25,11.0,115.0
7802,72.0,0,25,12.0,115.0
7803,69.0,3,25,12.0,115.0
7804,48.0,2,465,13.0,115.0
7805,36.0,1,465,14.0,115.0
7806,36.0,0,465,3.0,111.0
7807,93.0,0,480,0.0,108.0
7808,69.0,0,480,7.0,120.0
7809,81.0,1,480,1.0,107.0
7810,81.0,0,480,2.0,108.0
7811,69.0,1,480,5.0,109.0
7812,48.0,16,30,15.0,87.0
7813,69.0,0,480,3.0,111.0
7814,77.0,19,25,10.0,115.0
7815,68.0,1,25,11.0,115.0
7816,72.0,1,25,12.0,115.0
7817,68.0,0,25,12.0,115.0
7818,48.0,1,0,15.0,87.0
7819,76.0,28,25,10.0,115.0
7820,67.0,1,25,11.0,115.0
7821,68.0,0,25,12.0,115.0
7822,72.0,3,25,12.0,115.0
7823,48.0,26,0,15.0,87.0
7824,77.0,9,25,10.0,115.0
7825,68.0,2,25,11.0,115.0
7826,68.0,3,25,12.0,115.0
7827,72.0,0,25,12.0,115.0
7828,48.0,6,0,15.0,87.0
7829,68.0,19,25,10.0,115.0
7830,65.0,2,25,11.0,115.0
7831,72.0,0,25,12.0,115.0
7832,68.0,3,25,12.0,115.0
7833,67.0,29,25,10.0,115.0
7834,64.0,1,25,11.0,115.0
7835,68.0,3,25,12.0,115.0
7836,72.0,0,25,12.0,115.0
7837,48.0,1,30,15.0,87.0
7838,48.0,16,0,15.0,87.0
7839,68.0,9,25,10.0,115.0
7840,65.0,2,25,11.0,115.0
7841,68.0,3,25,12.0,115.0
7842,72.0,0,25,12.0,115.0
7843,48.0,6,0,15.0,87.0
7844,65.0,19,25,10.0,115.0
7845,56.0,2,25,11.0,115.0
7846,72.0,0,25,12.0,115.0
7847,68.0,3,25,12.0,115.0
7848,48.0,1,0,15.0,87.0
7849,64.0,29,25,10.0,115.0
7850,55.0,1,25,11.0,115.0
7851,68.0,3,25,12.0,115.0
7852,72.0,0,25,12.0,115.0
7853,48.0,16,0,15.0,87.0
7854,65.0,9,25,10.0,115.0
7855,56.0,2,25,11.0,115.0
7856,68.0,3,25,12.0,115.0
7857,72.0,0,25,12.0,115.0
7858,48.0,6,0,15.0,87.0
7859,56.0,19,25,10.0,115.0
7860,60.0,2,25,11.0,115.0
7861,72.0,0,25,12.0,115.0
7862,68.0,3,25,12.0,115.0
7863,48.0,1,0,15.0,87.0
7864,55.0,29,25,10.0,115.0
7865,59.0,1,25,11.0,115.0
7866,68.0,0,25,12.0,115.0
7867,72.0,3,25,12.0,115.0
7868,48.0,26,30,15.0,87.0
7869,56.0,9,25,10.0,115.0
7870,60.0,2,25,11.0,115.0
7871,72.0,0,25,12.0,115.0
7872,68.0,3,25,12.0,115.0
7873,48.0,3,465,13.0,115.0
7874,36.0,0,465,14.0,115.0
7875,36.0,1,465,3.0,111.0
7876,92.0,1,480,0.0,108.0
7877,96.0,1,960,0.0,108.0
7878,72.0,1,0,6.0,127.0
7879,65.0,0,960,7.0,120.0
7880,84.0,0,960,1.0,107.0
7881,80.0,0,480,1.0,107.0
7882,68.0,2,480,7.0,120.0
7883,65.0,0,960,4.0,109.0
7884,60.0,0,0,4.0,109.0
7885,84.0,0,960,2.0,108.0
7886,80.0,1,480,2.0,108.0
7887,68.0,0,480,5.0,109.0
7888,72.0,0,960,5.0,109.0
7889,48.0,1,0,8.0,120.0
7890,48.0,16,30,15.0,87.0
7891,68.0,0,480,3.0,111.0
7892,60.0,0,960,3.0,111.0
7893,72.0,19,60,10.0,125.0
7894,91.0,0,60,0.0,118.0
7895,88.0,1,60,0.0,118.0
7896,60.0,1,60,11.0,125.0
7897,60.0,0,60,6.0,127.0
7898,64.0,1,60,7.0,120.0
7899,64.0,0,60,4.0,109.0
7900,79.0,0,60,1.0,117.0
7901,67.0,0,60,7.0,120.0
7902,76.0,0,60,1.0,117.0
7903,60.0,0,60,12.0,125.0
7904,67.0,1,60,12.0,125.0
7905,67.0,0,60,5.0,109.0
7906,79.0,0,60,2.0,118.0
7907,76.0,1,60,2.0,118.0
7908,36.0,2,60,13.0,125.0
7909,48.0,2,60,15.0,100.0
7910,36.0,0,60,3.0,121.0
7911,36.0,1,60,14.0,125.0
7912,48.0,0,60,3.0,121.0
7913,72.0,54,30,10.0,100.0
7914,60.0,2,30,11.0,100.0
7915,60.0,2,30,4.0,94.0
7916,48.0,1,30,12.0,100.0
7917,36.0,4,30,13.0,100.0
7918,36.0,3,30,3.0,96.0
7919,48.0,0,30,3.0,96.0
7920,49.0,0,30,14.0,100.0
7921,49.0,0,45,3.0,96.0
7922,61.0,0,45,3.0,96.0
7923,85.0,48,60,10.0,100.0
7924,73.0,2,60,11.0,100.0
7925,61.0,2,60,4.0,94.0
7926,61.0,1,60,12.0,100.0
7927,49.0,4,60,13.0,100.0
7928,84.0,109,220,0.0,98.0
7929,84.0,3,220,1.0,97.0
7930,72.0,0,220,1.0,97.0
7931,72.0,2,220,2.0,98.0
7932,84.0,0,220,2.0,98.0
7933,60.0,0,225,5.0,94.0
7934,72.0,0,225,5.0,94.0
7935,85.0,54,30,10.0,100.0
7936,73.0,2,30,11.0,100.0
7937,61.0,2,30,4.0,94.0
7938,61.0,1,30,12.0,100.0
7939,61.0,4,30,13.0,100.0
7940,49.0,3,30,3.0,96.0
7941,61.0,0,30,3.0,96.0
7942,56.0,0,30,14.0,100.0
7943,68.0,0,45,3.0,96.0
7944,56.0,0,45,3.0,96.0
7945,92.0,48,60,10.0,100.0
7946,80.0,0,60,10.0,100.0
7947,80.0,2,60,11.0,100.0
7948,68.0,0,60,4.0,94.0
7949,61.0,2,60,4.0,94.0
7950,68.0,1,60,12.0,100.0
7951,68.0,4,60,13.0,100.0
7952,82.0,109,220,0.0,98.0
7953,82.0,3,220,1.0,97.0
7954,70.0,0,220,1.0,97.0
7955,70.0,0,220,2.0,98.0
7956,82.0,0,220,2.0,98.0
7957,70.0,2,225,5.0,94.0
7958,80.0,54,30,10.0,100.0
7959,92.0,0,30,10.0,100.0
7960,80.0,2,30,11.0,100.0
7961,68.0,0,30,4.0,94.0
7962,61.0,2,30,4.0,94.0
7963,68.0,1,30,12.0,100.0
7964,68.0,4,30,13.0,100.0
7965,68.0,0,30,3.0,96.0
7966,56.0,3,30,3.0,96.0
7967,55.0,3,30,14.0,100.0
7968,55.0,0,45,3.0,96.0
7969,67.0,0,45,3.0,96.0
7970,79.0,48,60,10.0,100.0
7971,91.0,0,60,10.0,100.0
7972,79.0,2,60,11.0,100.0
7973,67.0,0,60,4.0,94.0
7974,58.0,2,60,4.0,94.0
7975,67.0,1,60,12.0,100.0
7976,67.0,4,60,13.0,100.0
7977,82.0,109,220,0.0,98.0
7978,89.0,0,220,0.0,98.0
7979,85.0,0,220,1.0,97.0
7980,77.0,3,220,1.0,97.0
7981,77.0,0,220,2.0,98.0
7982,82.0,0,220,2.0,98.0
7983,65.0,0,225,5.0,94.0
7984,70.0,2,225,5.0,94.0
7985,79.0,54,30,10.0,100.0
7986,91.0,0,30,10.0,100.0
7987,79.0,2,30,11.0,100.0
7988,58.0,0,30,4.0,94.0
7989,67.0,2,30,4.0,94.0
7990,67.0,1,30,12.0,100.0
7991,67.0,4,30,13.0,100.0
7992,82.0,0,100,0.0,98.0
7993,88.0,109,100,0.0,98.0
7994,67.0,0,30,3.0,96.0
7995,55.0,3,30,3.0,96.0
7996,82.0,3,100,1.0,97.0
7997,76.0,0,100,1.0,97.0
7998,82.0,0,100,2.0,98.0
7999,76.0,0,100,2.0,98.0
8000,70.0,2,105,5.0,94.0
8001,64.0,0,105,5.0,94.0
8002,48.0,57,45,13.0,115.0
8003,36.0,0,45,3.0,111.0
8004,48.0,3,45,3.0,111.0
8005,36.0,0,45,14.0,115.0
8006,84.0,48,60,10.0,100.0
8007,76.0,1,60,11.0,100.0
8008,72.0,1,60,12.0,100.0
8009,83.0,48,60,10.0,100.0
8010,75.0,2,60,11.0,100.0
8011,71.0,3,60,12.0,100.0
8012,76.0,0,165,0.0,93.0
8013,84.0,1,165,0.0,93.0
8014,72.0,0,165,1.0,92.0
8015,76.0,0,165,1.0,92.0
8016,64.0,0,165,2.0,93.0
8017,72.0,0,165,2.0,93.0
8018,60.0,3,165,13.0,100.0
8019,48.0,0,165,3.0,96.0
8020,48.0,0,165,14.0,100.0
8021,60.0,0,165,3.0,96.0
8022,84.0,55,60,10.0,100.0
8023,76.0,2,60,11.0,100.0
8024,60.0,0,180,4.0,94.0
8025,64.0,2,180,4.0,94.0
8026,72.0,3,60,12.0,100.0
8027,60.0,0,180,5.0,94.0
8028,48.0,1,180,5.0,94.0
8029,48.0,64,45,13.0,115.0
8030,36.0,0,45,3.0,111.0
8031,36.0,3,45,14.0,115.0
8032,48.0,0,45,3.0,111.0
8033,85.0,48,60,10.0,100.0
8034,77.0,1,60,11.0,100.0
8035,73.0,1,60,12.0,100.0
8036,84.0,48,60,10.0,100.0
8037,76.0,2,60,11.0,100.0
8038,72.0,3,60,12.0,100.0
8039,77.0,0,165,0.0,93.0
8040,85.0,1,165,0.0,93.0
8041,77.0,0,165,1.0,92.0
8042,73.0,0,165,1.0,92.0
8043,65.0,1,165,2.0,93.0
8044,73.0,0,165,2.0,93.0
8045,60.0,3,165,13.0,100.0
8046,48.0,0,165,3.0,96.0
8047,60.0,0,165,3.0,96.0
8048,48.0,3,165,14.0,100.0
8049,85.0,55,60,10.0,100.0
8050,77.0,2,60,11.0,100.0
8051,65.0,2,180,4.0,94.0
8052,61.0,0,180,4.0,94.0
8053,73.0,3,60,12.0,100.0
8054,48.0,0,180,5.0,94.0
8055,60.0,0,180,5.0,94.0
8056,46.0,64,45,13.0,115.0
8057,34.0,0,45,3.0,111.0
8058,46.0,0,45,3.0,111.0
8059,34.0,3,45,14.0,115.0
8060,92.0,48,60,10.0,100.0
8061,89.0,1,60,11.0,100.0
8062,80.0,1,60,12.0,100.0
8063,91.0,48,60,10.0,100.0
8064,87.0,2,60,11.0,100.0
8065,79.0,3,60,12.0,100.0
8066,89.0,0,165,0.0,93.0
8067,85.0,1,165,0.0,93.0
8068,80.0,0,165,1.0,92.0
8069,77.0,2,165,1.0,92.0
8070,80.0,0,165,2.0,93.0
8071,73.0,0,165,2.0,93.0
8072,58.0,3,165,13.0,100.0
8073,58.0,3,165,3.0,96.0
8074,46.0,0,165,3.0,96.0
8075,46.0,0,165,14.0,100.0
8076,89.0,55,60,10.0,100.0
8077,85.0,2,60,11.0,100.0
8078,61.0,0,180,4.0,94.0
8079,58.0,0,180,4.0,94.0
8080,77.0,3,60,12.0,100.0
8081,65.0,1,180,5.0,94.0
8082,68.0,0,180,5.0,94.0
8083,46.0,64,45,13.0,115.0
8084,34.0,0,45,3.0,111.0
8085,34.0,0,45,14.0,115.0
8086,46.0,0,45,3.0,111.0
8087,91.0,48,60,10.0,100.0
8088,87.0,1,60,11.0,100.0
8089,79.0,1,60,12.0,100.0
8090,89.0,48,60,10.0,100.0
8091,85.0,2,60,11.0,100.0
8092,77.0,3,60,12.0,100.0
8093,91.0,0,165,0.0,93.0
8094,85.0,1,165,0.0,93.0
8095,79.0,0,165,1.0,92.0
8096,73.0,2,165,1.0,92.0
8097,73.0,0,165,2.0,93.0
8098,79.0,1,165,2.0,93.0
8099,58.0,3,165,13.0,100.0
8100,46.0,0,165,14.0,100.0
8101,46.0,0,165,3.0,96.0
8102,58.0,3,165,3.0,96.0
8103,85.0,55,60,10.0,100.0
8104,77.0,2,60,11.0,100.0
8105,61.0,0,180,4.0,94.0
8106,58.0,0,180,4.0,94.0
8107,73.0,3,60,12.0,100.0
8108,67.0,0,180,5.0,94.0
8109,65.0,0,180,5.0,94.0
8110,44.0,64,45,13.0,115.0
8111,32.0,0,45,3.0,111.0
8112,32.0,0,45,14.0,115.0
8113,44.0,3,45,3.0,111.0
8114,84.0,48,60,10.0,100.0
8115,76.0,1,60,11.0,100.0
8116,72.0,1,60,12.0,100.0
8117,83.0,48,60,10.0,100.0
8118,75.0,2,60,11.0,100.0
8119,71.0,3,60,12.0,100.0
8120,76.0,1,165,0.0,93.0
8121,84.0,0,165,0.0,93.0
8122,72.0,0,165,1.0,92.0
8123,76.0,0,165,1.0,92.0
8124,72.0,0,165,2.0,93.0
8125,64.0,0,165,2.0,93.0
8126,56.0,3,165,13.0,100.0
8127,44.0,0,165,14.0,100.0
8128,44.0,3,165,3.0,96.0
8129,56.0,0,165,3.0,96.0
8130,84.0,55,60,10.0,100.0
8131,76.0,2,60,11.0,100.0
8132,60.0,0,180,4.0,94.0
8133,64.0,2,180,4.0,94.0
8134,72.0,3,60,12.0,100.0
8135,56.0,1,180,5.0,94.0
8136,67.0,0,180,5.0,94.0
8137,44.0,64,45,13.0,115.0
8138,32.0,3,45,3.0,111.0
8139,44.0,0,45,3.0,111.0
8140,32.0,0,45,14.0,115.0
8141,85.0,48,60,10.0,100.0
8142,77.0,1,60,11.0,100.0
8143,73.0,1,60,12.0,100.0
8144,84.0,48,60,10.0,100.0
8145,76.0,2,60,11.0,100.0
8146,72.0,3,60,12.0,100.0
8147,77.0,0,165,0.0,93.0
8148,85.0,1,165,0.0,93.0
8149,77.0,0,165,1.0,92.0
8150,73.0,0,165,1.0,92.0
8151,65.0,1,165,2.0,93.0
8152,73.0,0,165,2.0,93.0
8153,56.0,3,165,13.0,100.0
8154,44.0,0,165,3.0,96.0
8155,44.0,0,165,14.0,100.0
8156,56.0,3,165,3.0,96.0
8157,85.0,55,60,10.0,100.0
8158,77.0,2,60,11.0,100.0
8159,65.0,2,180,4.0,94.0
8160,61.0,0,180,4.0,94.0
8161,73.0,3,60,12.0,100.0
8162,56.0,0,180,5.0,94.0
8163,65.0,0,180,5.0,94.0
8164,43.0,64,45,13.0,115.0
8165,31.0,0,45,3.0,111.0
8166,43.0,3,45,3.0,111.0
8167,31.0,0,45,14.0,115.0
8168,82.0,48,60,10.0,100.0
8169,70.0,1,60,12.0,100.0
8170,73.0,1,110,11.0,100.0
8171,77.0,0,110,11.0,100.0
8172,80.0,48,60,10.0,100.0
8173,68.0,5,60,12.0,100.0
8174,82.0,1,165,0.0,93.0
8175,77.0,0,165,0.0,93.0
8176,77.0,2,165,1.0,92.0
8177,70.0,0,165,1.0,92.0
8178,73.0,0,165,2.0,93.0
8179,70.0,1,165,2.0,93.0
8180,73.0,2,50,11.0,100.0
8181,77.0,0,50,11.0,100.0
8182,55.0,3,165,13.0,100.0
8183,55.0,0,165,3.0,96.0
8184,43.0,0,165,14.0,100.0
8185,43.0,3,165,3.0,96.0
8186,79.0,55,60,10.0,100.0
8187,61.0,0,180,4.0,94.0
8188,43.0,0,180,4.0,94.0
8189,67.0,3,60,12.0,100.0
8190,65.0,0,180,5.0,94.0
8191,72.0,0,180,5.0,94.0
8192,48.0,64,45,13.0,115.0
8193,36.0,0,45,14.0,115.0
8194,36.0,0,45,3.0,111.0
8195,48.0,0,45,3.0,111.0
8196,84.0,48,60,10.0,100.0
8197,72.0,1,60,12.0,100.0
8198,82.0,48,40,10.0,100.0
8199,70.0,5,40,12.0,100.0
8200,67.0,0,110,11.0,100.0
8201,76.0,1,110,11.0,100.0
8202,76.0,0,165,0.0,93.0
8203,84.0,1,165,0.0,93.0
8204,72.0,0,165,1.0,92.0
8205,76.0,0,165,1.0,92.0
8206,67.0,0,165,2.0,93.0
8207,72.0,0,165,2.0,93.0
8208,67.0,2,50,11.0,100.0
8209,76.0,0,50,11.0,100.0
8210,60.0,3,165,13.0,100.0
8211,48.0,3,165,14.0,100.0
8212,48.0,0,165,3.0,96.0
8213,60.0,0,165,3.0,96.0
8214,79.0,55,60,10.0,100.0
8215,60.0,0,180,4.0,94.0
8216,48.0,2,180,4.0,94.0
8217,67.0,3,60,12.0,100.0
8218,67.0,1,180,5.0,94.0
8219,64.0,0,180,5.0,94.0
8220,76.0,55,40,10.0,100.0
8221,64.0,5,40,12.0,100.0
8222,72.0,55,60,10.0,100.0
8223,72.0,2,60,11.0,100.0
8224,60.0,3,60,12.0,100.0
8225,60.0,4,60,13.0,100.0
8226,70.0,51,40,10.0,100.0
8227,70.0,2,40,11.0,100.0
8228,58.0,3,40,12.0,100.0
8229,58.0,4,40,13.0,100.0
8230,67.0,51,60,10.0,100.0
8231,67.0,2,60,11.0,100.0
8232,55.0,3,60,12.0,100.0
8233,55.0,4,60,13.0,100.0
8234,64.0,51,40,10.0,100.0
8235,64.0,2,40,11.0,100.0
8236,64.0,3,40,12.0,100.0
8237,52.0,4,40,13.0,100.0
8238,60.0,51,60,10.0,100.0
8239,60.0,2,60,11.0,100.0
8240,60.0,3,60,12.0,100.0
8241,48.0,4,60,13.0,100.0
8242,58.0,51,40,10.0,100.0
8243,58.0,2,40,11.0,100.0
8244,58.0,3,40,12.0,100.0
8245,46.0,4,40,13.0,100.0
8246,37.0,3,30,3.0,96.0
8247,37.0,0,30,14.0,100.0
8248,65.0,51,60,10.0,100.0
8249,65.0,2,60,11.0,100.0
8250,49.0,1,60,12.0,100.0
8251,37.0,4,60,13.0,100.0
8252,36.0,3,30,3.0,96.0
8253,36.0,0,30,14.0,100.0
8254,48.0,3,45,12.0,100.0
8255,55.0,0,105,12.0,100.0
8256,36.0,4,45,13.0,100.0
8257,43.0,0,105,13.0,100.0
8258,49.0,53,30,12.0,100.0
8259,49.0,4,30,13.0,100.0
8260,37.0,0,30,3.0,96.0
8261,37.0,3,30,14.0,100.0
8262,48.0,53,30,12.0,100.0
8263,48.0,4,30,13.0,100.0
8264,36.0,0,30,3.0,96.0
8265,36.0,3,30,14.0,100.0
8266,64.0,48,165,10.0,100.0
8267,55.0,0,225,10.0,100.0
8268,55.0,0,225,11.0,100.0
8269,64.0,2,165,11.0,100.0
8270,55.0,2,225,4.0,94.0
8271,43.0,0,225,4.0,94.0
8272,58.0,1,30,12.0,100.0
8273,46.0,3,30,13.0,100.0
8274,34.0,0,30,3.0,96.0
8275,34.0,0,30,14.0,100.0
8276,67.0,1,45,5.0,94.0
8277,79.0,1,60,0.0,108.0
8278,79.0,0,60,1.0,107.0
8279,79.0,0,60,2.0,108.0
8280,55.0,3,60,3.0,111.0
8281,56.0,1,30,12.0,100.0
8282,44.0,3,30,13.0,100.0
8283,32.0,3,30,14.0,100.0
8284,32.0,0,30,3.0,96.0
8285,58.0,53,30,12.0,100.0
8286,46.0,4,30,13.0,100.0
8287,34.0,3,30,3.0,96.0
8288,34.0,0,30,14.0,100.0
8289,56.0,53,30,12.0,100.0
8290,44.0,4,30,13.0,100.0
8291,32.0,3,30,14.0,100.0
8292,32.0,0,30,3.0,96.0
8293,60.0,48,225,10.0,100.0
8294,77.0,49,165,0.0,108.0
8295,60.0,1,225,11.0,100.0
8296,77.0,3,165,1.0,107.0
8297,60.0,2,225,4.0,94.0
8298,48.0,0,225,4.0,94.0
8299,77.0,0,165,2.0,108.0
8300,65.0,1,165,5.0,94.0
8301,53.0,0,165,3.0,111.0
8302,53.0,1,30,12.0,100.0
8303,53.0,3,30,13.0,100.0
8304,41.0,0,30,14.0,100.0
8305,41.0,0,30,3.0,96.0
8306,80.0,48,60,10.0,100.0
8307,68.0,1,60,11.0,100.0
8308,52.0,3,30,12.0,100.0
8309,52.0,4,30,13.0,100.0
8310,40.0,3,30,3.0,96.0
8311,40.0,0,30,14.0,100.0
8312,53.0,53,30,12.0,100.0
8313,53.0,4,30,13.0,100.0
8314,41.0,0,30,3.0,96.0
8315,41.0,3,30,14.0,100.0
8316,52.0,53,30,12.0,100.0
8317,52.0,4,30,13.0,100.0
8318,40.0,3,30,14.0,100.0
8319,40.0,0,30,3.0,96.0
8320,79.0,48,165,10.0,100.0
8321,72.0,1,225,0.0,108.0
8322,67.0,2,165,11.0,100.0
8323,72.0,0,225,1.0,107.0
8324,48.0,2,225,4.0,94.0
8325,60.0,0,225,4.0,94.0
8326,72.0,1,225,2.0,108.0
8327,60.0,0,225,5.0,94.0
8328,48.0,3,225,3.0,111.0
8329,61.0,1,30,12.0,100.0
8330,49.0,3,30,13.0,100.0
8331,37.0,0,30,3.0,96.0
8332,37.0,3,30,14.0,100.0
8333,70.0,0,45,5.0,94.0
8334,94.0,1,60,0.0,108.0
8335,82.0,2,60,1.0,107.0
8336,82.0,1,60,2.0,108.0
8337,58.0,0,60,3.0,111.0
8338,60.0,1,30,12.0,100.0
8339,48.0,3,30,13.0,100.0
8340,36.0,3,30,14.0,100.0
8341,36.0,0,30,3.0,96.0
8342,61.0,53,30,12.0,100.0
8343,49.0,4,30,13.0,100.0
8344,37.0,3,30,14.0,100.0
8345,37.0,0,30,3.0,96.0
8346,60.0,53,30,12.0,100.0
8347,48.0,4,30,13.0,100.0
8348,36.0,0,30,14.0,100.0
8349,36.0,3,30,3.0,96.0
8350,72.0,48,225,10.0,100.0
8351,92.0,49,165,0.0,108.0
8352,60.0,1,225,11.0,100.0
8353,80.0,3,165,1.0,107.0
8354,60.0,0,225,4.0,94.0
8355,80.0,0,165,2.0,108.0
8356,68.0,1,165,5.0,94.0
8357,56.0,0,165,3.0,111.0
8358,56.0,3,30,13.0,100.0
8359,44.0,0,30,14.0,100.0
8360,44.0,0,30,3.0,96.0
8361,89.0,1,45,0.0,108.0
8362,84.0,0,45,0.0,108.0
8363,72.0,0,45,1.0,107.0
8364,60.0,0,45,4.0,94.0
8365,77.0,2,45,1.0,107.0
8366,77.0,0,45,2.0,108.0
8367,72.0,1,45,2.0,108.0
8368,56.0,3,45,3.0,111.0
8369,84.0,48,60,10.0,100.0
8370,72.0,1,60,12.0,100.0
8371,86.0,48,165,10.0,100.0
8372,77.0,1,225,11.0,100.0
8373,71.0,1,165,12.0,100.0
8374,55.0,3,165,13.0,100.0
8375,43.0,3,165,3.0,96.0
8376,43.0,0,165,14.0,100.0
8377,86.0,1,225,0.0,108.0
8378,83.0,0,225,0.0,108.0
8379,62.0,0,225,4.0,94.0
8380,55.0,0,225,4.0,94.0
8381,77.0,0,225,1.0,107.0
8382,74.0,3,225,1.0,107.0
8383,71.0,0,225,2.0,108.0
8384,65.0,0,285,5.0,94.0
8385,77.0,1,225,2.0,108.0
8386,55.0,4,45,13.0,100.0
8387,43.0,3,45,14.0,100.0
8388,55.0,0,225,3.0,111.0
8389,43.0,0,45,3.0,96.0
8390,86.0,168,60,10.0,100.0
8391,77.0,2,60,11.0,100.0
8392,71.0,3,60,12.0,100.0
8393,87.0,48,165,10.0,100.0
8394,75.0,1,165,11.0,100.0
8395,70.0,1,165,12.0,100.0
8396,54.0,3,165,13.0,100.0
8397,42.0,3,165,14.0,100.0
8398,42.0,0,165,3.0,96.0
8399,87.0,168,30,10.0,100.0
8400,75.0,2,30,11.0,100.0
8401,70.0,3,30,12.0,100.0
8402,82.0,1,225,0.0,108.0
8403,87.0,0,225,0.0,108.0
8404,63.0,0,225,4.0,94.0
8405,75.0,0,225,1.0,107.0
8406,70.0,2,225,1.0,107.0
8407,58.0,0,225,4.0,94.0
8408,75.0,0,225,2.0,108.0
8409,70.0,0,225,2.0,108.0
8410,63.0,1,225,5.0,94.0
8411,54.0,4,45,13.0,100.0
8412,42.0,3,45,14.0,100.0
8413,42.0,0,45,3.0,96.0
8414,54.0,0,225,3.0,111.0
8415,87.0,48,60,10.0,100.0
8416,81.0,0,60,0.0,108.0
8417,87.0,1,60,0.0,108.0
8418,72.0,1,60,11.0,100.0
8419,69.0,0,60,1.0,107.0
8420,75.0,2,60,1.0,107.0
8421,60.0,0,60,4.0,94.0
8422,63.0,0,60,4.0,94.0
8423,69.0,1,60,12.0,100.0
8424,75.0,0,60,2.0,108.0
8425,41.0,1,60,5.0,94.0
8426,53.0,0,60,5.0,94.0
8427,69.0,0,60,2.0,108.0
8428,41.0,3,105,13.0,100.0
8429,29.0,0,105,14.0,100.0
8430,29.0,3,105,3.0,96.0
8431,41.0,0,105,3.0,96.0
8432,84.0,48,30,10.0,100.0
8433,81.0,0,30,0.0,108.0
8434,84.0,1,30,0.0,108.0
8435,75.0,1,30,11.0,100.0
8436,72.0,0,30,1.0,107.0
8437,69.0,0,30,1.0,107.0
8438,60.0,2,30,4.0,94.0
8439,63.0,0,30,4.0,94.0
8440,69.0,1,30,12.0,100.0
8441,69.0,0,30,2.0,108.0
8442,72.0,1,30,2.0,108.0
8443,85.0,54,60,10.0,100.0
8444,85.0,1,60,0.0,108.0
8445,82.0,0,60,0.0,108.0
8446,73.0,1,60,11.0,100.0
8447,70.0,0,60,1.0,107.0
8448,58.0,0,60,4.0,94.0
8449,73.0,2,60,1.0,107.0
8450,61.0,0,60,4.0,94.0
8451,70.0,1,60,12.0,100.0
8452,70.0,0,60,2.0,108.0
8453,73.0,1,60,2.0,108.0
8454,53.0,0,225,5.0,94.0
8455,65.0,114,225,5.0,94.0
8456,53.0,3,225,13.0,100.0
8457,41.0,0,225,3.0,96.0
8458,53.0,0,225,3.0,96.0
8459,41.0,3,225,14.0,100.0
8460,82.0,48,30,10.0,100.0
8461,82.0,1,30,0.0,108.0
8462,85.0,0,30,0.0,108.0
8463,73.0,1,30,11.0,100.0
8464,70.0,0,30,1.0,107.0
8465,73.0,0,30,1.0,107.0
8466,58.0,2,30,4.0,94.0
8467,61.0,0,30,4.0,94.0
8468,70.0,1,30,12.0,100.0
8469,70.0,1,30,2.0,108.0
8470,73.0,0,30,2.0,108.0
8471,53.0,0,105,5.0,94.0
8472,65.0,120,105,5.0,94.0
8473,53.0,3,105,13.0,100.0
8474,41.0,0,105,14.0,100.0
8475,41.0,0,105,3.0,96.0
8476,53.0,3,105,3.0,96.0
8477,87.0,54,60,10.0,100.0
8478,87.0,0,60,0.0,108.0
8479,81.0,1,60,0.0,108.0
8480,72.0,1,60,11.0,100.0
8481,69.0,0,60,1.0,107.0
8482,75.0,0,60,1.0,107.0
8483,60.0,0,60,4.0,94.0
8484,63.0,2,60,4.0,94.0
8485,69.0,1,60,12.0,100.0
8486,69.0,1,60,2.0,108.0
8487,41.0,0,60,5.0,94.0
8488,75.0,0,60,2.0,108.0
8489,53.0,0,60,5.0,94.0
8490,41.0,3,105,13.0,100.0
8491,41.0,3,105,3.0,96.0
8492,29.0,0,105,3.0,96.0
8493,29.0,0,105,14.0,100.0
8494,84.0,48,30,10.0,100.0
8495,84.0,1,30,0.0,108.0
8496,81.0,0,30,0.0,108.0
8497,75.0,1,30,11.0,100.0
8498,69.0,0,30,1.0,107.0
8499,60.0,0,30,4.0,94.0
8500,72.0,2,30,1.0,107.0
8501,63.0,0,30,4.0,94.0
8502,69.0,1,30,12.0,100.0
8503,72.0,0,30,2.0,108.0
8504,69.0,1,30,2.0,108.0
8505,85.0,54,60,10.0,100.0
8506,85.0,0,60,0.0,108.0
8507,82.0,1,60,0.0,108.0
8508,73.0,1,60,11.0,100.0
8509,70.0,0,60,1.0,107.0
8510,61.0,0,60,4.0,94.0
8511,58.0,2,60,4.0,94.0
8512,73.0,0,60,1.0,107.0
8513,70.0,1,60,12.0,100.0
8514,70.0,0,60,2.0,108.0
8515,73.0,1,60,2.0,108.0
8516,53.0,114,225,5.0,94.0
8517,65.0,0,225,5.0,94.0
8518,53.0,3,225,13.0,100.0
8519,41.0,3,225,14.0,100.0
8520,53.0,0,225,3.0,96.0
8521,41.0,0,225,3.0,96.0
8522,82.0,48,30,10.0,100.0
8523,82.0,1,30,0.0,108.0
8524,85.0,0,30,0.0,108.0
8525,73.0,1,30,11.0,100.0
8526,58.0,0,30,4.0,94.0
8527,61.0,0,30,4.0,94.0
8528,73.0,2,30,1.0,107.0
8529,70.0,0,30,1.0,107.0
8530,70.0,1,30,12.0,100.0
8531,70.0,0,30,2.0,108.0
8532,73.0,1,30,2.0,108.0
8533,53.0,0,105,5.0,94.0
8534,65.0,120,105,5.0,94.0
8535,53.0,3,105,13.0,100.0
8536,53.0,3,105,3.0,96.0
8537,41.0,0,105,3.0,96.0
8538,41.0,0,105,14.0,100.0
8539,94.0,0,60,10.0,100.0
8540,82.0,54,60,10.0,100.0
8541,82.0,0,60,0.0,108.0
8542,91.0,1,60,0.0,108.0
8543,79.0,1,60,11.0,100.0
8544,58.0,2,60,4.0,94.0
8545,82.0,0,60,1.0,107.0
8546,79.0,0,60,1.0,107.0
8547,73.0,1,60,12.0,100.0
8548,70.0,0,60,5.0,94.0
8549,67.0,0,60,5.0,94.0
8550,76.0,1,60,2.0,108.0
8551,73.0,0,60,2.0,108.0
8552,46.0,3,105,13.0,100.0
8553,34.0,0,105,3.0,96.0
8554,46.0,0,105,3.0,96.0
8555,34.0,0,105,14.0,100.0
8556,91.0,48,30,10.0,100.0
8557,79.0,0,30,10.0,100.0
8558,79.0,1,30,0.0,108.0
8559,88.0,0,30,0.0,108.0
8560,76.0,1,30,11.0,100.0
8561,76.0,0,30,1.0,107.0
8562,79.0,2,30,1.0,107.0
8563,73.0,1,30,12.0,100.0
8564,64.0,0,30,5.0,94.0
8565,67.0,1,30,5.0,94.0
8566,76.0,0,30,2.0,108.0
8567,73.0,0,30,2.0,108.0
8568,92.0,54,60,10.0,100.0
8569,80.0,0,60,10.0,100.0
8570,80.0,1,60,0.0,108.0
8571,89.0,0,60,0.0,108.0
8572,77.0,1,60,11.0,100.0
8573,80.0,0,60,1.0,107.0
8574,77.0,2,60,1.0,107.0
8575,74.0,1,60,12.0,100.0
8576,68.0,0,60,5.0,94.0
8577,74.0,0,60,2.0,108.0
8578,65.0,1,60,5.0,94.0
8579,77.0,0,60,2.0,108.0
8580,58.0,112,225,4.0,94.0
8581,58.0,5,225,13.0,100.0
8582,46.0,0,225,3.0,96.0
8583,58.0,0,225,3.0,96.0
8584,46.0,0,225,14.0,100.0
8585,89.0,0,30,10.0,100.0
8586,77.0,48,30,10.0,100.0
8587,89.0,0,30,0.0,108.0
8588,80.0,1,30,0.0,108.0
8589,68.0,1,30,11.0,100.0
8590,77.0,2,30,1.0,107.0
8591,68.0,0,30,1.0,107.0
8592,74.0,1,30,12.0,100.0
8593,77.0,0,30,2.0,108.0
8594,65.0,1,30,5.0,94.0
8595,56.0,0,30,5.0,94.0
8596,74.0,0,30,2.0,108.0
8597,58.0,118,105,4.0,94.0
8598,58.0,5,105,13.0,100.0
8599,58.0,0,105,3.0,96.0
8600,46.0,0,105,3.0,96.0
8601,46.0,0,105,14.0,100.0
8602,94.0,0,60,10.0,100.0
8603,82.0,54,60,10.0,100.0
8604,91.0,1,60,0.0,108.0
8605,82.0,0,60,0.0,108.0
8606,79.0,1,60,11.0,100.0
8607,58.0,0,60,4.0,94.0
8608,82.0,0,60,1.0,107.0
8609,79.0,2,60,1.0,107.0
8610,73.0,1,60,12.0,100.0
8611,76.0,1,60,2.0,108.0
8612,67.0,0,60,5.0,94.0
8613,73.0,0,60,2.0,108.0
8614,70.0,0,60,5.0,94.0
8615,46.0,3,105,13.0,100.0
8616,34.0,0,105,3.0,96.0
8617,34.0,0,105,14.0,100.0
8618,46.0,0,105,3.0,96.0
8619,91.0,0,30,10.0,100.0
8620,79.0,48,30,10.0,100.0
8621,88.0,1,30,0.0,108.0
8622,79.0,0,30,0.0,108.0
8623,76.0,1,30,11.0,100.0
8624,79.0,2,30,1.0,107.0
8625,76.0,0,30,1.0,107.0
8626,73.0,1,30,12.0,100.0
8627,67.0,0,30,5.0,94.0
8628,76.0,0,30,2.0,108.0
8629,73.0,0,30,2.0,108.0
8630,64.0,1,30,5.0,94.0
8631,92.0,0,60,10.0,100.0
8632,80.0,54,60,10.0,100.0
8633,80.0,0,60,0.0,108.0
8634,89.0,1,60,0.0,108.0
8635,77.0,1,60,11.0,100.0
8636,77.0,2,60,1.0,107.0
8637,80.0,0,60,1.0,107.0
8638,74.0,1,60,12.0,100.0
8639,77.0,0,60,2.0,108.0
8640,74.0,0,60,2.0,108.0
8641,68.0,1,60,5.0,94.0
8642,65.0,0,60,5.0,94.0
8643,58.0,112,225,4.0,94.0
8644,58.0,5,225,13.0,100.0
8645,46.0,0,225,3.0,96.0
8646,46.0,0,225,14.0,100.0
8647,58.0,0,225,3.0,96.0
8648,89.0,48,30,10.0,100.0
8649,77.0,0,30,10.0,100.0
8650,89.0,0,30,0.0,108.0
8651,80.0,1,30,0.0,108.0
8652,68.0,1,30,11.0,100.0
8653,68.0,2,30,1.0,107.0
8654,77.0,0,30,1.0,107.0
8655,74.0,1,30,12.0,100.0
8656,74.0,0,30,2.0,108.0
8657,65.0,0,30,5.0,94.0
8658,77.0,1,30,2.0,108.0
8659,56.0,0,30,5.0,94.0
8660,58.0,118,105,4.0,94.0
8661,92.0,0,60,10.0,100.0
8662,80.0,54,60,10.0,100.0
8663,89.0,1,60,0.0,108.0
8664,92.0,0,60,0.0,108.0
8665,77.0,1,60,11.0,100.0
8666,77.0,2,60,1.0,107.0
8667,80.0,0,60,1.0,107.0
8668,68.0,1,60,12.0,100.0
8669,77.0,0,60,12.0,100.0
8670,65.0,0,60,5.0,94.0
8671,68.0,1,60,5.0,94.0
8672,77.0,0,60,2.0,108.0
8673,80.0,0,60,2.0,108.0
8674,58.0,5,225,13.0,100.0
8675,46.0,0,225,3.0,96.0
8676,58.0,0,225,3.0,96.0
8677,46.0,0,225,14.0,100.0
8678,89.0,48,30,10.0,100.0
8679,77.0,0,30,10.0,100.0
8680,80.0,1,30,0.0,108.0
8681,89.0,0,30,0.0,108.0
8682,68.0,1,30,11.0,100.0
8683,77.0,2,30,1.0,107.0
8684,68.0,0,30,1.0,107.0
8685,68.0,1,30,12.0,100.0
8686,77.0,0,30,12.0,100.0
8687,77.0,0,30,2.0,108.0
8688,56.0,1,30,5.0,94.0
8689,65.0,0,30,5.0,94.0
8690,68.0,0,30,2.0,108.0
8691,80.0,0,60,10.0,100.0
8692,92.0,54,60,10.0,100.0
8693,89.0,0,60,0.0,108.0
8694,92.0,1,60,0.0,108.0
8695,77.0,1,60,11.0,100.0
8696,77.0,0,60,1.0,107.0
8697,80.0,2,60,1.0,107.0
8698,77.0,0,60,12.0,100.0
8699,68.0,1,60,12.0,100.0
8700,65.0,0,60,5.0,94.0
8701,68.0,1,60,5.0,94.0
8702,77.0,0,60,2.0,108.0
8703,80.0,0,60,2.0,108.0
8704,77.0,0,225,6.0,103.0
8705,65.0,117,225,6.0,103.0
8706,59.0,1,225,4.0,94.0
8707,59.0,5,225,13.0,100.0
8708,47.0,0,225,3.0,96.0
8709,59.0,0,225,3.0,96.0
8710,47.0,0,225,14.0,100.0
8711,77.0,48,30,10.0,100.0
8712,89.0,0,30,10.0,100.0
8713,89.0,1,30,0.0,108.0
8714,80.0,0,30,0.0,108.0
8715,68.0,1,30,11.0,100.0
8716,77.0,0,30,1.0,107.0
8717,68.0,2,30,1.0,107.0
8718,77.0,0,30,12.0,100.0
8719,68.0,1,30,12.0,100.0
8720,68.0,0,30,2.0,108.0
8721,56.0,0,30,5.0,94.0
8722,65.0,1,30,5.0,94.0
8723,77.0,0,30,2.0,108.0
8724,92.0,54,60,10.0,100.0
8725,80.0,0,60,10.0,100.0
8726,89.0,1,60,0.0,108.0
8727,92.0,0,60,0.0,108.0
8728,77.0,1,60,11.0,100.0
8729,80.0,2,60,1.0,107.0
8730,77.0,0,60,1.0,107.0
8731,68.0,1,60,12.0,100.0
8732,77.0,0,60,12.0,100.0
8733,77.0,0,60,2.0,108.0
8734,80.0,1,60,2.0,108.0
8735,68.0,0,60,5.0,94.0
8736,65.0,0,60,5.0,94.0
8737,77.0,117,225,6.0,103.0
8738,65.0,0,225,6.0,103.0
8739,60.0,1,225,4.0,94.0
8740,60.0,5,225,13.0,100.0
8741,48.0,0,225,3.0,96.0
8742,48.0,0,225,14.0,100.0
8743,60.0,0,225,3.0,96.0
8744,89.0,48,30,10.0,100.0
8745,77.0,0,30,10.0,100.0
8746,80.0,1,30,0.0,108.0
8747,89.0,0,30,0.0,108.0
8748,68.0,1,30,11.0,100.0
8749,77.0,2,30,1.0,107.0
8750,68.0,0,30,1.0,107.0
8751,77.0,0,30,12.0,100.0
8752,68.0,1,30,12.0,100.0
8753,68.0,1,30,2.0,108.0
8754,77.0,0,30,2.0,108.0
8755,56.0,0,30,5.0,94.0
8756,65.0,0,30,5.0,94.0
8757,92.0,0,60,10.0,100.0
8758,80.0,54,60,10.0,100.0
8759,92.0,1,60,0.0,108.0
8760,89.0,0,60,0.0,108.0
8761,77.0,1,60,11.0,100.0
8762,77.0,2,60,1.0,107.0
8763,80.0,0,60,1.0,107.0
8764,77.0,1,60,12.0,100.0
8765,68.0,0,60,12.0,100.0
8766,68.0,0,60,5.0,94.0
8767,65.0,1,60,5.0,94.0
8768,77.0,0,60,2.0,108.0
8769,80.0,0,60,2.0,108.0
8770,65.0,0,225,6.0,103.0
8771,77.0,117,225,6.0,103.0
8772,61.0,1,225,4.0,94.0
8773,61.0,5,225,13.0,100.0
8774,49.0,0,225,3.0,96.0
8775,49.0,3,225,14.0,100.0
8776,61.0,0,225,3.0,96.0
8777,89.0,0,30,10.0,100.0
8778,77.0,48,30,10.0,100.0
8779,80.0,0,30,0.0,108.0
8780,89.0,1,30,0.0,108.0
8781,68.0,1,30,11.0,100.0
8782,77.0,0,30,1.0,107.0
8783,68.0,2,30,1.0,107.0
8784,68.0,0,30,12.0,100.0
8785,77.0,1,30,12.0,100.0
8786,77.0,0,30,2.0,108.0
8787,68.0,0,30,2.0,108.0
8788,65.0,1,30,5.0,94.0
8789,56.0,0,30,5.0,94.0
8790,77.0,117,105,6.0,103.0
8791,65.0,0,105,6.0,103.0
8792,62.0,1,105,4.0,94.0
8793,62.0,5,105,13.0,100.0
8794,62.0,3,105,3.0,96.0
8795,50.0,0,105,3.0,96.0
8796,50.0,0,105,14.0,100.0
8797,84.0,1,30,11.0,100.0
8798,80.0,0,30,11.0,100.0
8799,68.0,1,30,12.0,100.0
8800,72.0,0,30,12.0,100.0
8801,84.0,1,60,0.0,108.0
8802,60.0,0,60,6.0,103.0
8803,72.0,1,60,6.0,103.0
8804,72.0,0,60,1.0,107.0
8805,48.0,1,60,4.0,94.0
8806,72.0,1,60,2.0,108.0
8807,60.0,0,60,2.0,108.0
8808,60.0,0,60,5.0,94.0
8809,48.0,3,60,13.0,100.0
8810,48.0,0,60,3.0,96.0
8811,80.0,30,30,11.0,100.0
8812,84.0,0,30,11.0,100.0
8813,36.0,0,60,14.0,100.0
8814,36.0,0,60,3.0,96.0
8815,68.0,0,30,12.0,100.0
8816,72.0,3,30,12.0,100.0
8817,80.0,0,30,11.0,100.0
8818,84.0,37,30,11.0,100.0
8819,68.0,0,30,12.0,100.0
8820,72.0,3,30,12.0,100.0
8821,96.0,0,120,10.0,100.0
8822,84.0,54,120,10.0,100.0
8823,79.0,2,30,11.0,100.0
8824,82.0,0,30,11.0,100.0
8825,70.0,0,30,12.0,100.0
8826,67.0,3,30,12.0,100.0
8827,79.0,37,30,11.0,100.0
8828,82.0,0,30,11.0,100.0
8829,67.0,0,30,12.0,100.0
8830,70.0,3,30,12.0,100.0
8831,79.0,0,30,11.0,100.0
8832,82.0,37,30,11.0,100.0
8833,67.0,0,30,12.0,100.0
8834,70.0,3,30,12.0,100.0
8835,82.0,35,120,10.0,100.0
8836,94.0,0,120,10.0,100.0
8837,77.0,0,30,11.0,100.0
8838,80.0,1,30,11.0,100.0
8839,68.0,1,30,12.0,100.0
8840,65.0,0,30,12.0,100.0
8841,96.0,0,60,0.0,108.0
8842,84.0,1,60,0.0,108.0
8843,68.0,1,60,6.0,103.0
8844,77.0,0,60,6.0,103.0
8845,84.0,0,60,1.0,107.0
8846,60.0,0,60,4.0,94.0
8847,72.0,1,60,1.0,107.0
8848,84.0,0,60,2.0,108.0
8849,72.0,1,60,2.0,108.0
8850,72.0,0,60,5.0,94.0
8851,60.0,0,60,5.0,94.0
8852,60.0,3,60,13.0,100.0
8853,60.0,3,60,3.0,96.0
8854,77.0,30,30,11.0,100.0
8855,80.0,0,30,11.0,100.0
8856,48.0,0,60,3.0,96.0
8857,48.0,0,60,14.0,100.0
8858,65.0,0,30,12.0,100.0
8859,68.0,3,30,12.0,100.0
8860,80.0,37,30,11.0,100.0
8861,77.0,0,30,11.0,100.0
8862,65.0,3,30,12.0,100.0
8863,68.0,0,30,12.0,100.0
8864,80.0,0,120,10.0,100.0
8865,92.0,35,120,10.0,100.0
8866,82.0,2,30,11.0,100.0
8867,79.0,0,30,11.0,100.0
8868,70.0,3,30,12.0,100.0
8869,67.0,0,30,12.0,100.0
8870,79.0,37,30,11.0,100.0
8871,82.0,0,30,11.0,100.0
8872,70.0,0,30,12.0,100.0
8873,67.0,3,30,12.0,100.0
8874,94.0,35,105,10.0,100.0
8875,82.0,0,105,10.0,100.0
8876,79.0,0,30,11.0,100.0
8877,82.0,37,30,11.0,100.0
8878,67.0,0,30,12.0,100.0
8879,70.0,3,30,12.0,100.0
8880,80.0,0,30,11.0,100.0
8881,77.0,1,30,11.0,100.0
8882,65.0,1,30,12.0,100.0
8883,68.0,0,30,12.0,100.0
8884,84.0,0,60,0.0,108.0
8885,96.0,1,60,0.0,108.0
8886,77.0,0,60,6.0,103.0
8887,68.0,1,60,6.0,103.0
8888,72.0,0,60,1.0,107.0
8889,84.0,0,60,1.0,107.0
8890,60.0,1,60,4.0,94.0
8891,84.0,0,60,2.0,108.0
8892,72.0,1,60,2.0,108.0
8893,60.0,0,60,5.0,94.0
8894,72.0,0,60,5.0,94.0
8895,60.0,3,60,13.0,100.0
8896,48.0,0,60,3.0,96.0
8897,60.0,0,60,3.0,96.0
8898,77.0,0,30,11.0,100.0
8899,48.0,3,60,14.0,100.0
8900,80.0,30,30,11.0,100.0
8901,65.0,3,30,12.0,100.0
8902,68.0,0,30,12.0,100.0
8903,80.0,37,30,11.0,100.0
8904,77.0,0,30,11.0,100.0
8905,65.0,0,30,12.0,100.0
8906,68.0,3,30,12.0,100.0
8907,92.0,35,120,10.0,100.0
8908,80.0,0,120,10.0,100.0
8909,79.0,0,30,11.0,100.0
8910,75.0,2,30,11.0,100.0
8911,67.0,3,30,12.0,100.0
8912,63.0,0,30,12.0,100.0
8913,75.0,37,30,11.0,100.0
8914,79.0,0,30,11.0,100.0
8915,63.0,0,30,12.0,100.0
8916,67.0,3,30,12.0,100.0
8917,79.0,0,30,11.0,100.0
8918,75.0,37,30,11.0,100.0
8919,67.0,3,30,12.0,100.0
8920,63.0,0,30,12.0,100.0
8921,91.0,35,120,10.0,100.0
8922,79.0,0,120,10.0,100.0
8923,77.0,0,30,11.0,100.0
8924,73.0,1,30,11.0,100.0
8925,61.0,0,30,12.0,100.0
8926,65.0,1,30,12.0,100.0
8927,84.0,1,60,0.0,108.0
8928,60.0,1,60,6.0,103.0
8929,72.0,0,60,6.0,103.0
8930,72.0,1,60,1.0,107.0
8931,48.0,0,60,4.0,94.0
8932,60.0,1,60,5.0,94.0
8933,60.0,0,60,2.0,108.0
8934,72.0,0,60,2.0,108.0
8935,48.0,3,60,13.0,100.0
8936,36.0,0,60,3.0,96.0
8937,77.0,0,30,11.0,100.0
8938,36.0,0,60,14.0,100.0
8939,73.0,30,30,11.0,100.0
8940,48.0,0,60,3.0,96.0
8941,65.0,3,30,12.0,100.0
8942,61.0,0,30,12.0,100.0
8943,73.0,37,30,11.0,100.0
8944,77.0,0,30,11.0,100.0
8945,61.0,3,30,12.0,100.0
8946,65.0,0,30,12.0,100.0
8947,77.0,0,120,10.0,100.0
8948,89.0,35,120,10.0,100.0
8949,73.0,0,30,11.0,100.0
8950,65.0,2,30,11.0,100.0
8951,73.0,3,30,12.0,100.0
8952,65.0,0,30,12.0,100.0
8953,65.0,0,30,11.0,100.0
8954,73.0,37,30,11.0,100.0
8955,65.0,0,30,12.0,100.0
8956,73.0,3,30,12.0,100.0
8957,85.0,35,105,10.0,100.0
8958,73.0,0,105,10.0,100.0
8959,73.0,0,30,11.0,100.0
8960,65.0,37,30,11.0,100.0
8961,65.0,3,30,12.0,100.0
8962,73.0,0,30,12.0,100.0
8963,84.0,35,60,10.0,100.0
8964,72.0,0,60,10.0,100.0
8965,72.0,0,60,11.0,100.0
8966,64.0,1,60,11.0,100.0
8967,72.0,0,60,6.0,103.0
8968,60.0,1,60,6.0,103.0
8969,48.0,0,60,4.0,94.0
8970,72.0,0,60,12.0,100.0
8971,64.0,1,60,12.0,100.0
8972,48.0,3,60,13.0,100.0
8973,36.0,3,60,3.0,96.0
8974,36.0,0,60,14.0,100.0
8975,84.0,0,120,0.0,93.0
8976,92.0,1,120,0.0,93.0
8977,84.0,0,120,1.0,92.0
8978,80.0,1,120,1.0,92.0
8979,68.0,0,120,5.0,94.0
8980,72.0,0,120,5.0,94.0
8981,80.0,0,120,2.0,93.0
8982,84.0,1,120,2.0,93.0
8983,60.0,0,120,3.0,96.0
8984,68.0,0,120,3.0,96.0
8985,82.0,0,120,0.0,93.0
8986,91.0,109,120,0.0,93.0
8987,79.0,0,120,1.0,92.0
8988,82.0,3,120,1.0,92.0
8989,79.0,0,120,2.0,93.0
8990,82.0,0,120,2.0,93.0
8991,67.0,0,120,5.0,94.0
8992,70.0,2,120,5.0,94.0
8993,58.0,6,120,3.0,96.0
8994,67.0,0,120,3.0,96.0
8995,84.0,0,60,10.0,100.0
8996,96.0,108,60,10.0,100.0
8997,84.0,1,60,11.0,100.0
8998,77.0,1,60,6.0,103.0
8999,68.0,0,60,6.0,103.0
9000,60.0,0,60,4.0,94.0
9001,72.0,1,60,12.0,100.0
9002,60.0,3,60,13.0,100.0
9003,48.0,0,60,3.0,96.0
9004,48.0,3,60,14.0,100.0
9005,80.0,1,120,0.0,93.0
9006,89.0,0,120,0.0,93.0
9007,80.0,0,120,1.0,92.0
9008,77.0,1,120,1.0,92.0
9009,68.0,0,120,5.0,94.0
9010,65.0,0,120,5.0,94.0
9011,80.0,0,120,2.0,93.0
9012,77.0,1,120,2.0,93.0
9013,65.0,0,120,3.0,96.0
9014,56.0,0,120,3.0,96.0
9015,82.0,109,120,0.0,93.0
9016,91.0,0,120,0.0,93.0
9017,79.0,3,120,1.0,92.0
9018,82.0,0,120,1.0,92.0
9019,79.0,0,120,2.0,93.0
9020,82.0,2,120,2.0,93.0
9021,67.0,0,120,5.0,94.0
9022,70.0,0,120,5.0,94.0
9023,67.0,0,120,3.0,96.0
9024,58.0,6,120,3.0,96.0
9025,96.0,0,60,10.0,100.0
9026,84.0,108,60,10.0,100.0
9027,84.0,1,60,11.0,100.0
9028,77.0,0,60,6.0,103.0
9029,68.0,1,60,6.0,103.0
9030,60.0,0,60,4.0,94.0
9031,72.0,1,60,12.0,100.0
9032,60.0,3,60,13.0,100.0
9033,48.0,3,60,14.0,100.0
9034,48.0,0,60,3.0,96.0
9035,92.0,1,120,0.0,93.0
9036,89.0,0,120,0.0,93.0
9037,80.0,0,120,1.0,92.0
9038,77.0,1,120,1.0,92.0
9039,65.0,0,120,5.0,94.0
9040,68.0,0,120,5.0,94.0
9041,80.0,1,120,2.0,93.0
9042,77.0,0,120,2.0,93.0
9043,68.0,0,120,3.0,96.0
9044,65.0,0,120,3.0,96.0
9045,91.0,109,120,0.0,93.0
9046,87.0,0,120,0.0,93.0
9047,79.0,3,120,1.0,92.0
9048,75.0,0,120,1.0,92.0
9049,63.0,0,120,5.0,94.0
9050,79.0,2,120,2.0,93.0
9051,75.0,0,120,2.0,93.0
9052,67.0,0,120,5.0,94.0
9053,63.0,6,120,3.0,96.0
9054,67.0,0,120,3.0,96.0
9055,60.0,0,60,10.0,100.0
9056,72.0,108,60,10.0,100.0
9057,60.0,1,60,11.0,100.0
9058,60.0,1,60,6.0,103.0
9059,72.0,0,60,6.0,103.0
9060,60.0,1,60,12.0,100.0
9061,48.0,3,60,13.0,100.0
9062,36.0,3,60,14.0,100.0
9063,36.0,0,60,3.0,96.0
9064,65.0,1,110,5.0,94.0
9065,85.0,1,120,0.0,93.0
9066,89.0,0,120,0.0,93.0
9067,77.0,0,120,1.0,92.0
9068,73.0,0,0,1.0,92.0
9069,77.0,0,120,2.0,93.0
9070,73.0,0,120,2.0,93.0
9071,61.0,0,120,3.0,96.0
9072,65.0,0,120,3.0,96.0
9073,61.0,1,225,4.0,94.0
9074,65.0,0,225,4.0,94.0
9075,77.0,109,110,0.0,93.0
9076,85.0,0,110,0.0,93.0
9077,65.0,3,110,1.0,92.0
9078,73.0,0,110,2.0,93.0
9079,53.0,0,110,5.0,94.0
9080,65.0,2,110,2.0,93.0
9081,61.0,6,110,3.0,96.0
9082,53.0,0,110,3.0,96.0
9083,72.0,1,60,6.0,103.0
9084,60.0,0,60,6.0,103.0
9085,60.0,1,60,4.0,94.0
9086,64.0,0,60,4.0,94.0
9087,36.0,3,60,13.0,100.0
9088,36.0,0,60,14.0,100.0
9089,72.0,108,120,10.0,100.0
9090,76.0,1,120,0.0,80.0
9091,84.0,0,120,0.0,80.0
9092,68.0,1,120,11.0,100.0
9093,72.0,0,120,1.0,79.0
9094,64.0,0,120,1.0,79.0
9095,56.0,0,120,12.0,100.0
9096,60.0,1,120,12.0,100.0
9097,72.0,0,120,2.0,80.0
9098,60.0,1,120,5.0,94.0
9099,64.0,0,120,2.0,80.0
9100,60.0,3,120,3.0,83.0
9101,52.0,0,120,3.0,83.0
9102,70.0,108,120,10.0,100.0
9103,67.0,2,120,11.0,100.0
9104,58.0,0,120,12.0,100.0
9105,55.0,3,120,12.0,100.0
9106,60.0,1,60,6.0,103.0
9107,72.0,0,60,6.0,103.0
9108,60.0,1,60,4.0,94.0
9109,48.0,4,60,13.0,100.0
9110,48.0,3,60,14.0,100.0
9111,68.0,115,120,10.0,100.0
9112,65.0,2,120,11.0,100.0
9113,56.0,0,120,12.0,100.0
9114,53.0,1,120,12.0,100.0
9115,70.0,108,105,10.0,100.0
9116,67.0,2,105,11.0,100.0
9117,55.0,0,105,12.0,100.0
9118,58.0,3,105,12.0,100.0
9119,60.0,2,60,4.0,94.0
9120,48.0,3,60,13.0,100.0
9121,48.0,3,60,14.0,100.0
9122,72.0,115,120,10.0,100.0
9123,84.0,1,120,0.0,93.0
9124,80.0,0,120,0.0,93.0
9125,64.0,1,120,11.0,100.0
9126,68.0,0,120,1.0,92.0
9127,72.0,0,120,1.0,92.0
9128,52.0,0,120,12.0,100.0
9129,60.0,1,120,12.0,100.0
9130,68.0,1,120,2.0,93.0
9131,72.0,0,120,2.0,93.0
9132,56.0,0,120,3.0,96.0
9133,60.0,0,120,3.0,96.0
9134,82.0,0,120,0.0,93.0
9135,79.0,109,120,0.0,93.0
9136,67.0,3,120,1.0,92.0
9137,70.0,0,120,1.0,92.0
9138,67.0,0,120,2.0,93.0
9139,70.0,2,120,2.0,93.0
9140,55.0,0,120,3.0,96.0
9141,58.0,6,120,3.0,96.0
9142,48.0,3,60,4.0,94.0
9143,36.0,3,60,13.0,100.0
9144,36.0,3,60,14.0,100.0
9145,77.0,109,120,0.0,93.0
9146,80.0,0,120,0.0,93.0
9147,68.0,0,120,1.0,92.0
9148,65.0,0,120,1.0,92.0
9149,68.0,0,120,2.0,93.0
9150,65.0,2,120,2.0,93.0
9151,56.0,0,120,3.0,96.0
9152,53.0,0,120,3.0,96.0
9153,82.0,0,110,0.0,93.0
9154,79.0,109,110,0.0,93.0
9155,70.0,0,110,1.0,92.0
9156,67.0,3,110,1.0,92.0
9157,67.0,0,110,2.0,93.0
9158,70.0,2,110,2.0,93.0
9159,55.0,6,110,3.0,96.0
9160,58.0,0,110,3.0,96.0
9161,72.0,108,60,10.0,80.0
9162,84.0,0,60,0.0,93.0
9163,76.0,1,60,0.0,93.0
9164,72.0,0,60,1.0,92.0
9165,64.0,3,60,1.0,92.0
9166,64.0,1,60,2.0,93.0
9167,72.0,0,60,2.0,93.0
9168,48.0,3,60,3.0,96.0
9169,60.0,0,80,4.0,81.0
9170,60.0,0,80,5.0,81.0
9171,60.0,3,80,13.0,100.0
9172,60.0,1,120,12.0,100.0
9173,36.0,0,120,14.0,65.0
9174,72.0,108,20,10.0,100.0
9175,60.0,5,20,12.0,100.0
9176,72.0,28,20,10.0,100.0
9177,60.0,1,20,12.0,100.0
9178,46.0,7,60,3.0,96.0
9179,72.0,31,20,10.0,100.0
9180,60.0,5,20,12.0,100.0
9181,60.0,4,80,4.0,81.0
9182,60.0,1,80,5.0,81.0
9183,60.0,3,80,13.0,100.0
9184,34.0,0,120,14.0,65.0
9185,72.0,35,60,10.0,100.0
9186,60.0,1,60,12.0,100.0
9187,45.0,0,60,3.0,96.0
9188,65.0,4,80,4.0,81.0
9189,65.0,1,80,5.0,81.0
9190,65.0,3,80,13.0,100.0
9191,33.0,3,120,14.0,65.0
9192,74.0,31,20,10.0,100.0
9193,62.0,5,20,12.0,100.0
9194,69.0,72,80,4.0,81.0
9195,69.0,2,80,5.0,81.0
9196,69.0,3,80,13.0,100.0
9197,74.0,28,20,10.0,100.0
9198,62.0,1,20,12.0,100.0
9199,46.0,7,60,3.0,96.0
9200,74.0,31,20,10.0,100.0
9201,62.0,5,20,12.0,100.0
9202,67.0,4,65,4.0,81.0
9203,67.0,1,65,5.0,81.0
9204,67.0,3,65,13.0,100.0
9205,34.0,0,120,14.0,65.0
9206,67.0,35,60,10.0,100.0
9207,64.0,1,60,12.0,100.0
9208,48.0,3,60,3.0,96.0
9209,60.0,4,80,4.0,81.0
9210,60.0,1,80,5.0,81.0
9211,60.0,3,80,13.0,100.0
9212,36.0,0,120,14.0,65.0
9213,72.0,108,20,10.0,100.0
9214,60.0,5,20,12.0,100.0
9215,72.0,28,20,10.0,100.0
9216,60.0,1,20,12.0,100.0
9217,46.0,7,60,3.0,96.0
9218,72.0,31,20,10.0,100.0
9219,60.0,5,20,12.0,100.0
9220,60.0,4,80,4.0,81.0
9221,60.0,1,80,5.0,81.0
9222,60.0,3,80,13.0,100.0
9223,34.0,0,120,14.0,65.0
9224,72.0,35,60,10.0,100.0
9225,60.0,1,60,12.0,100.0
9226,45.0,3,60,3.0,96.0
9227,65.0,4,80,4.0,81.0
9228,65.0,1,80,5.0,81.0
9229,65.0,3,80,13.0,100.0
9230,33.0,0,120,14.0,65.0
9231,72.0,31,20,10.0,100.0
9232,60.0,5,20,12.0,100.0
9233,72.0,72,80,4.0,81.0
9234,72.0,2,80,5.0,81.0
9235,72.0,3,80,13.0,100.0
9236,72.0,28,20,10.0,100.0
9237,60.0,1,20,12.0,100.0
9238,41.0,0,60,3.0,96.0
9239,53.0,7,60,3.0,96.0
9240,72.0,31,20,10.0,100.0
9241,60.0,5,20,12.0,100.0
9242,69.0,4,65,4.0,81.0
9243,69.0,1,65,5.0,81.0
9244,69.0,3,65,13.0,100.0
9245,29.0,0,120,14.0,65.0
9246,72.0,35,60,10.0,100.0
9247,60.0,1,60,12.0,100.0
9248,52.0,0,60,3.0,96.0
9249,40.0,0,60,3.0,96.0
9250,67.0,4,80,4.0,81.0
9251,67.0,1,80,5.0,81.0
9252,67.0,3,80,13.0,100.0
9253,28.0,3,120,14.0,65.0
9254,72.0,31,20,10.0,100.0
9255,60.0,1,20,12.0,100.0
9256,65.0,72,80,4.0,81.0
9257,65.0,2,80,5.0,81.0
9258,65.0,3,80,13.0,100.0
9259,72.0,28,20,10.0,100.0
9260,60.0,1,20,12.0,100.0
9261,45.0,0,60,3.0,96.0
9262,72.0,31,20,10.0,100.0
9263,60.0,5,20,12.0,100.0
9264,64.0,4,65,4.0,81.0
9265,64.0,1,65,5.0,81.0
9266,64.0,3,65,13.0,100.0
9267,33.0,7,120,14.0,65.0
9268,71.0,35,60,10.0,100.0
9269,62.0,1,60,12.0,100.0
9270,43.0,3,60,3.0,96.0
9271,60.0,4,200,4.0,72.0
9272,60.0,0,200,3.0,86.0
9273,31.0,0,120,14.0,65.0
9274,74.0,28,20,10.0,100.0
9275,59.0,5,20,12.0,100.0
9276,59.0,72,80,4.0,72.0
9277,59.0,8,80,3.0,86.0
9278,74.0,28,20,10.0,100.0
9279,59.0,1,20,12.0,100.0
9280,41.0,0,60,3.0,96.0
9281,74.0,28,20,10.0,100.0
9282,59.0,5,20,12.0,100.0
9283,62.0,7,70,3.0,86.0
9284,62.0,4,80,4.0,72.0
9285,29.0,7,120,14.0,65.0
9286,67.0,35,60,10.0,100.0
9287,60.0,1,60,12.0,100.0
9288,40.0,0,60,3.0,96.0
9289,67.0,4,320,4.0,81.0
9290,67.0,1,320,5.0,81.0
9291,67.0,3,320,13.0,100.0
9292,55.0,0,110,3.0,86.0
9293,55.0,4,120,4.0,72.0
9294,28.0,7,120,14.0,65.0
9295,72.0,31,20,10.0,100.0
9296,60.0,1,20,12.0,100.0
9297,65.0,72,80,4.0,81.0
9298,65.0,2,80,5.0,81.0
9299,65.0,3,80,13.0,100.0
9300,72.0,28,20,10.0,100.0
9301,60.0,1,20,12.0,100.0
9302,45.0,7,60,3.0,96.0
9303,72.0,31,20,10.0,100.0
9304,60.0,5,20,12.0,100.0
9305,64.0,4,80,4.0,81.0
9306,64.0,1,80,5.0,81.0
9307,64.0,3,80,13.0,100.0
9308,33.0,0,120,14.0,65.0
9309,72.0,35,60,10.0,100.0
9310,62.0,1,60,12.0,100.0
9311,41.0,3,60,3.0,96.0
9312,65.0,4,80,4.0,81.0
9313,65.0,1,80,5.0,81.0
9314,65.0,3,80,13.0,100.0
9315,60.0,4,240,4.0,72.0
9316,60.0,0,240,3.0,86.0
9317,29.0,0,120,14.0,65.0
9318,71.0,31,20,10.0,100.0
9319,62.0,1,20,12.0,100.0
9320,64.0,72,80,4.0,81.0
9321,64.0,2,80,5.0,81.0
9322,64.0,3,80,13.0,100.0
9323,71.0,28,20,10.0,100.0
9324,62.0,1,20,12.0,100.0
9325,43.0,0,60,3.0,96.0
9326,71.0,31,20,10.0,100.0
9327,62.0,5,20,12.0,100.0
9328,62.0,4,65,4.0,72.0
9329,62.0,1,65,5.0,72.0
9330,62.0,3,65,13.0,90.0
9331,59.0,7,110,3.0,86.0
9332,59.0,4,120,4.0,72.0
9333,31.0,0,120,14.0,65.0
9334,72.0,2,60,11.0,100.0
9335,64.0,1,60,12.0,100.0
9336,48.0,3,60,3.0,96.0
9337,72.0,35,80,10.0,115.0
9338,72.0,2,80,1.0,107.0
9339,60.0,0,85,4.0,52.0
9340,60.0,1,85,5.0,52.0
9341,60.0,3,85,13.0,67.0
9342,60.0,0,120,3.0,86.0
9343,36.0,0,120,14.0,65.0
9344,72.0,110,20,11.0,100.0
9345,60.0,3,20,12.0,100.0
9346,72.0,2,20,11.0,100.0
9347,60.0,1,20,12.0,100.0
9348,72.0,36,20,11.0,100.0
9349,60.0,3,20,12.0,100.0
9350,72.0,28,80,10.0,100.0
9351,60.0,0,80,4.0,81.0
9352,72.0,2,80,1.0,92.0
9353,60.0,1,80,5.0,81.0
9354,46.0,4,120,13.0,65.0
9355,34.0,3,120,14.0,65.0
9356,72.0,2,60,11.0,100.0
9357,60.0,1,60,12.0,100.0
9358,77.0,35,80,10.0,100.0
9359,65.0,0,80,4.0,81.0
9360,77.0,2,80,1.0,92.0
9361,65.0,1,80,5.0,81.0
9362,45.0,3,120,13.0,65.0
9363,33.0,3,120,14.0,65.0
9364,74.0,36,20,11.0,100.0
9365,62.0,3,20,12.0,100.0
9366,81.0,68,80,10.0,100.0
9367,69.0,4,80,4.0,81.0
9368,81.0,0,80,1.0,92.0
9369,69.0,2,80,5.0,81.0
9370,74.0,2,20,11.0,100.0
9371,62.0,1,20,12.0,100.0
9372,74.0,36,20,11.0,100.0
9373,79.0,28,65,10.0,100.0
9374,62.0,3,20,12.0,100.0
9375,79.0,0,65,1.0,92.0
9376,67.0,2,65,4.0,81.0
9377,67.0,1,65,5.0,81.0
9378,46.0,4,120,13.0,65.0
9379,34.0,3,120,14.0,65.0
9380,67.0,2,60,11.0,100.0
9381,64.0,1,60,12.0,100.0
9382,72.0,35,80,10.0,100.0
9383,72.0,0,80,1.0,92.0
9384,60.0,2,80,4.0,81.0
9385,60.0,1,80,5.0,81.0
9386,48.0,3,120,13.0,65.0
9387,36.0,3,120,14.0,65.0
9388,72.0,110,20,11.0,100.0
9389,60.0,3,20,12.0,100.0
9390,72.0,2,20,11.0,100.0
9391,60.0,1,20,12.0,100.0
9392,72.0,36,20,11.0,100.0
9393,60.0,3,20,12.0,100.0
9394,72.0,28,80,10.0,100.0
9395,72.0,0,80,1.0,92.0
9396,60.0,2,80,4.0,81.0
9397,60.0,1,80,5.0,81.0
9398,46.0,4,120,13.0,65.0
9399,34.0,3,120,14.0,65.0
9400,72.0,2,60,11.0,100.0
9401,60.0,1,60,12.0,100.0
9402,77.0,35,80,10.0,100.0
9403,77.0,2,80,1.0,92.0
9404,65.0,0,80,4.0,81.0
9405,65.0,1,80,5.0,81.0
9406,45.0,3,120,13.0,65.0
9407,33.0,3,120,14.0,65.0
9408,72.0,36,20,11.0,100.0
9409,60.0,1,20,12.0,100.0
9410,84.0,68,80,10.0,100.0
9411,72.0,4,80,4.0,81.0
9412,84.0,0,80,1.0,92.0
9413,72.0,2,80,5.0,81.0
9414,72.0,2,20,11.0,100.0
9415,60.0,1,20,12.0,100.0
9416,72.0,36,20,11.0,100.0
9417,60.0,3,20,12.0,100.0
9418,81.0,28,65,10.0,100.0
9419,69.0,2,65,4.0,81.0
9420,81.0,0,65,1.0,92.0
9421,69.0,1,65,5.0,81.0
9422,65.0,0,120,4.0,81.0
9423,65.0,1,120,5.0,81.0
9424,53.0,3,120,13.0,65.0
9425,65.0,0,120,3.0,96.0
9426,41.0,0,120,14.0,65.0
9427,72.0,2,60,11.0,100.0
9428,60.0,1,60,12.0,100.0
9429,79.0,35,80,10.0,100.0
9430,79.0,0,80,1.0,92.0
9431,67.0,0,80,3.0,96.0
9432,60.0,2,120,4.0,69.0
9433,67.0,0,120,4.0,69.0
9434,72.0,2,240,1.0,82.0
9435,67.0,1,120,5.0,69.0
9436,60.0,0,120,5.0,69.0
9437,52.0,3,120,13.0,65.0
9438,60.0,3,240,3.0,86.0
9439,40.0,3,120,14.0,65.0
9440,72.0,30,20,11.0,100.0
9441,60.0,1,20,12.0,100.0
9442,77.0,68,80,10.0,100.0
9443,77.0,4,80,1.0,92.0
9444,65.0,8,80,3.0,96.0
9445,72.0,2,20,11.0,100.0
9446,60.0,1,20,12.0,100.0
9447,72.0,30,20,11.0,100.0
9448,60.0,3,20,12.0,100.0
9449,76.0,28,65,10.0,100.0
9450,76.0,2,65,1.0,92.0
9451,64.0,7,65,3.0,96.0
9452,57.0,4,120,13.0,65.0
9453,45.0,0,120,14.0,65.0
9454,71.0,2,60,11.0,100.0
9455,62.0,1,60,12.0,100.0
9456,72.0,2,200,1.0,82.0
9457,60.0,3,200,3.0,86.0
9458,55.0,4,120,13.0,65.0
9459,43.0,3,120,14.0,65.0
9460,74.0,30,20,11.0,100.0
9461,59.0,3,20,12.0,100.0
9462,71.0,72,80,1.0,82.0
9463,59.0,8,80,3.0,86.0
9464,74.0,30,20,11.0,100.0
9465,59.0,1,20,12.0,100.0
9466,74.0,30,20,11.0,100.0
9467,59.0,3,20,12.0,100.0
9468,74.0,2,70,1.0,82.0
9469,62.0,7,70,3.0,86.0
9470,53.0,4,120,13.0,65.0
9471,41.0,3,120,14.0,65.0
9472,67.0,37,60,11.0,100.0
9473,60.0,1,60,12.0,100.0
9474,79.0,35,320,10.0,100.0
9475,79.0,2,320,1.0,92.0
9476,67.0,0,320,3.0,96.0
9477,67.0,2,110,1.0,82.0
9478,55.0,0,110,3.0,86.0
9479,52.0,4,120,13.0,65.0
9480,40.0,3,120,14.0,65.0
9481,72.0,30,20,11.0,100.0
9482,60.0,1,20,12.0,100.0
9483,77.0,68,80,10.0,100.0
9484,77.0,4,80,1.0,92.0
9485,65.0,8,80,3.0,96.0
9486,72.0,2,20,11.0,100.0
9487,60.0,1,20,12.0,100.0
9488,72.0,30,20,11.0,100.0
9489,60.0,3,20,12.0,100.0
9490,76.0,28,80,10.0,100.0
9491,76.0,2,80,1.0,92.0
9492,57.0,4,120,13.0,65.0
9493,45.0,3,120,14.0,65.0
9494,64.0,7,80,3.0,96.0
9495,72.0,2,60,11.0,100.0
9496,69.0,1,60,12.0,100.0
9497,77.0,35,80,10.0,100.0
9498,77.0,2,80,1.0,92.0
9499,65.0,0,80,3.0,96.0
9500,72.0,2,240,1.0,82.0
9501,50.0,4,120,13.0,65.0
9502,60.0,0,240,3.0,86.0
9503,38.0,3,120,14.0,65.0
9504,71.0,30,20,11.0,100.0
9505,65.0,1,20,12.0,100.0
9506,76.0,68,80,10.0,100.0
9507,76.0,4,80,1.0,92.0
9508,64.0,8,80,3.0,96.0
9509,71.0,2,20,11.0,100.0
9510,65.0,1,20,12.0,100.0
9511,71.0,30,20,11.0,100.0
9512,74.0,28,65,10.0,100.0
9513,65.0,3,20,12.0,100.0
9514,74.0,2,65,1.0,92.0
9515,62.0,7,65,3.0,96.0
9516,55.0,4,120,13.0,65.0
9517,43.0,3,120,14.0,65.0
9518,71.0,2,60,11.0,100.0
9519,64.0,1,60,12.0,100.0
9520,76.0,35,80,10.0,100.0
9521,76.0,2,80,1.0,92.0
9522,64.0,0,80,3.0,96.0
9523,71.0,2,240,1.0,82.0
9524,48.0,4,120,13.0,65.0
9525,36.0,3,120,14.0,65.0
9526,59.0,0,240,3.0,86.0
9527,69.0,30,20,11.0,100.0
9528,57.0,1,20,12.0,100.0
9529,74.0,68,80,10.0,100.0
9530,74.0,4,80,1.0,92.0
9531,62.0,8,80,3.0,96.0
9532,69.0,2,20,11.0,100.0
9533,57.0,1,20,12.0,100.0
9534,69.0,30,20,11.0,100.0
9535,72.0,28,65,10.0,100.0
9536,57.0,3,20,12.0,100.0
9537,72.0,2,65,1.0,92.0
9538,60.0,7,65,3.0,96.0
9539,53.0,4,120,13.0,65.0
9540,41.0,3,120,14.0,65.0
9541,68.0,2,60,11.0,100.0
9542,59.0,1,60,12.0,100.0
9543,69.0,2,200,1.0,82.0
9544,57.0,0,200,3.0,86.0
9545,52.0,4,120,13.0,65.0
9546,40.0,0,120,14.0,65.0
9547,71.0,30,20,11.0,100.0
9548,56.0,3,20,12.0,100.0
9549,68.0,72,80,1.0,82.0
9550,56.0,8,80,3.0,86.0
9551,71.0,30,20,11.0,100.0
9552,56.0,1,20,12.0,100.0
9553,71.0,30,20,11.0,100.0
9554,56.0,3,20,12.0,100.0
9555,71.0,2,70,1.0,82.0
9556,59.0,7,70,3.0,86.0
9557,50.0,4,120,13.0,65.0
9558,38.0,3,120,14.0,65.0
9559,64.0,37,60,11.0,100.0
9560,57.0,1,60,12.0,100.0
9561,76.0,35,320,10.0,100.0
9562,76.0,2,320,1.0,92.0
9563,64.0,3,320,3.0,96.0
9564,64.0,2,110,1.0,82.0
9565,52.0,3,110,3.0,86.0
9566,48.0,4,120,13.0,65.0
9567,36.0,0,120,14.0,65.0
9568,69.0,30,20,11.0,100.0
9569,57.0,1,20,12.0,100.0
9570,74.0,68,80,10.0,100.0
9571,74.0,4,80,1.0,92.0
9572,62.0,8,80,3.0,96.0
9573,69.0,2,20,11.0,100.0
9574,57.0,1,20,12.0,100.0
9575,69.0,30,20,11.0,100.0
9576,57.0,3,20,12.0,100.0
9577,72.0,28,80,10.0,100.0
9578,72.0,2,80,1.0,92.0
9579,53.0,4,120,13.0,65.0
9580,60.0,7,80,3.0,96.0
9581,41.0,0,120,14.0,65.0
9582,69.0,2,60,11.0,100.0
9583,65.0,1,60,12.0,100.0
9584,74.0,35,80,10.0,100.0
9585,74.0,2,80,1.0,92.0
9586,62.0,3,80,3.0,96.0
9587,69.0,2,240,1.0,82.0
9588,47.0,4,120,13.0,65.0
9589,57.0,3,240,3.0,86.0
9590,35.0,0,120,14.0,65.0
9591,68.0,30,20,11.0,100.0
9592,64.0,1,20,12.0,100.0
9593,72.0,68,80,10.0,100.0
9594,72.0,4,80,1.0,92.0
9595,60.0,8,80,3.0,96.0
9596,68.0,2,20,11.0,100.0
9597,64.0,1,20,12.0,100.0
9598,68.0,30,20,11.0,100.0
9599,71.0,28,65,10.0,100.0
9600,64.0,3,20,12.0,100.0
9601,71.0,2,65,1.0,92.0
9602,59.0,7,65,3.0,96.0
9603,68.0,2,120,1.0,82.0
9604,52.0,4,120,13.0,65.0
9605,56.0,3,120,3.0,86.0
9606,40.0,0,120,14.0,65.0
9607,69.0,35,20,10.0,87.0
9608,45.0,3,20,13.0,87.0
9609,69.0,28,20,10.0,87.0
9610,57.0,2,60,11.0,87.0
9611,45.0,9,20,13.0,87.0
9612,69.0,2,80,1.0,92.0
9613,69.0,1,80,2.0,93.0
9614,69.0,31,20,10.0,87.0
9615,45.0,9,20,13.0,87.0
9616,57.0,1,120,12.0,87.0
9617,33.0,3,120,14.0,56.0
9618,57.0,0,120,3.0,83.0
9619,57.0,1,20,11.0,87.0
9620,69.0,31,60,10.0,87.0
9621,57.0,30,20,11.0,87.0
9622,45.0,4,60,13.0,87.0
9623,57.0,36,20,11.0,87.0
9624,69.0,2,80,1.0,92.0
9625,55.0,1,120,12.0,87.0
9626,69.0,2,80,2.0,93.0
9627,55.0,3,120,3.0,83.0
9628,69.0,38,20,10.0,87.0
9629,45.0,3,20,13.0,87.0
9630,69.0,28,20,10.0,87.0
9631,57.0,2,60,11.0,87.0
9632,45.0,9,20,13.0,87.0
9633,74.0,2,80,1.0,92.0
9634,74.0,1,80,2.0,93.0
9635,69.0,31,20,10.0,87.0
9636,45.0,3,20,13.0,87.0
9637,81.0,1,240,0.0,68.0
9638,57.0,2,240,4.0,69.0
9639,53.0,1,120,12.0,87.0
9640,53.0,3,120,3.0,83.0
9641,33.0,0,120,14.0,56.0
9642,57.0,1,20,11.0,87.0
9643,77.0,4,80,1.0,92.0
9644,77.0,2,80,2.0,93.0
9645,69.0,31,60,10.0,87.0
9646,57.0,30,20,11.0,87.0
9647,45.0,4,60,13.0,87.0
9648,57.0,36,20,11.0,87.0
9649,55.0,1,105,12.0,87.0
9650,76.0,2,70,1.0,92.0
9651,76.0,2,70,2.0,93.0
9652,55.0,3,105,3.0,83.0
9653,82.0,1,120,0.0,68.0
9654,58.0,2,120,4.0,69.0
9655,69.0,38,20,10.0,87.0
9656,45.0,3,20,13.0,87.0
9657,69.0,28,20,10.0,87.0
9658,57.0,2,60,11.0,87.0
9659,45.0,9,20,13.0,87.0
9660,69.0,2,80,1.0,92.0
9661,69.0,1,80,2.0,93.0
9662,69.0,31,20,10.0,87.0
9663,45.0,9,20,13.0,87.0
9664,57.0,1,120,12.0,87.0
9665,57.0,0,120,3.0,83.0
9666,33.0,3,120,14.0,56.0
9667,57.0,1,20,11.0,87.0
9668,69.0,31,60,10.0,87.0
9669,57.0,30,20,11.0,87.0
9670,45.0,4,60,13.0,87.0
9671,57.0,36,20,11.0,87.0
9672,69.0,2,80,1.0,92.0
9673,55.0,1,120,12.0,87.0
9674,69.0,2,80,2.0,93.0
9675,55.0,3,120,3.0,83.0
9676,69.0,38,20,10.0,87.0
9677,45.0,3,20,13.0,87.0
9678,69.0,28,20,10.0,87.0
9679,57.0,2,60,11.0,87.0
9680,45.0,9,20,13.0,87.0
9681,74.0,2,80,1.0,92.0
9682,74.0,1,80,2.0,93.0
9683,69.0,31,20,10.0,87.0
9684,45.0,3,20,13.0,87.0
9685,81.0,1,240,0.0,68.0
9686,57.0,2,240,4.0,69.0
9687,53.0,1,120,12.0,87.0
9688,33.0,3,120,14.0,56.0
9689,53.0,0,120,3.0,83.0
9690,57.0,1,20,11.0,87.0
9691,77.0,4,80,1.0,92.0
9692,77.0,2,80,2.0,93.0
9693,69.0,31,60,10.0,87.0
9694,57.0,30,20,11.0,87.0
9695,45.0,4,60,13.0,87.0
9696,57.0,36,20,11.0,87.0
9697,55.0,1,105,12.0,87.0
9698,76.0,2,70,1.0,92.0
9699,76.0,2,70,2.0,93.0
9700,55.0,3,105,3.0,83.0
9701,82.0,1,120,0.0,68.0
9702,58.0,2,120,4.0,69.0
9703,69.0,38,20,10.0,100.0
9704,57.0,2,20,11.0,100.0
9705,61.0,0,20,12.0,100.0
9706,57.0,1,20,12.0,100.0
9707,69.0,28,20,10.0,100.0
9708,57.0,2,20,11.0,100.0
9709,57.0,3,20,12.0,100.0
9710,61.0,0,20,12.0,100.0
9711,69.0,35,20,10.0,100.0
9712,57.0,2,20,11.0,100.0
9713,57.0,3,20,12.0,100.0
9714,61.0,0,20,12.0,100.0
9715,45.0,3,120,14.0,70.0
9716,73.0,35,20,10.0,100.0
9717,61.0,2,20,11.0,100.0
9718,57.0,0,20,12.0,100.0
9719,61.0,3,20,12.0,100.0
9720,73.0,35,20,10.0,100.0
9721,61.0,2,20,11.0,100.0
9722,61.0,0,20,12.0,100.0
9723,57.0,3,20,12.0,100.0
9724,73.0,35,20,10.0,100.0
9725,61.0,2,20,11.0,100.0
9726,57.0,3,20,12.0,100.0
9727,61.0,0,20,12.0,100.0
9728,61.0,0,240,7.0,100.0
9729,57.0,2,240,7.0,100.0
9730,69.0,0,240,1.0,92.0
9731,69.0,1,240,2.0,93.0
9732,45.0,1,240,8.0,100.0
9733,45.0,2,240,13.0,100.0
9734,57.0,0,240,3.0,96.0
9735,45.0,0,240,3.0,96.0
9736,76.0,35,20,10.0,100.0
9737,64.0,1,20,11.0,100.0
9738,64.0,0,20,12.0,100.0
9739,61.0,1,20,12.0,100.0
9740,76.0,28,20,10.0,100.0
9741,64.0,2,20,11.0,100.0
9742,64.0,0,20,12.0,100.0
9743,61.0,3,20,12.0,100.0
9744,76.0,35,20,10.0,100.0
9745,64.0,2,20,11.0,100.0
9746,64.0,0,20,12.0,100.0
9747,61.0,3,20,12.0,100.0
9748,43.0,0,120,14.0,77.0
9749,81.0,35,20,10.0,100.0
9750,69.0,2,20,11.0,100.0
9751,64.0,3,20,12.0,100.0
9752,61.0,0,20,12.0,100.0
9753,81.0,35,20,10.0,100.0
9754,69.0,2,20,11.0,100.0
9755,64.0,0,20,12.0,100.0
9756,61.0,3,20,12.0,100.0
9757,81.0,35,20,10.0,100.0
9758,69.0,2,20,11.0,100.0
9759,64.0,3,20,12.0,100.0
9760,61.0,0,20,12.0,100.0
9761,64.0,0,240,7.0,100.0
9762,73.0,0,240,1.0,92.0
9763,61.0,0,240,7.0,100.0
9764,73.0,0,240,2.0,93.0
9765,76.0,1,240,2.0,93.0
9766,43.0,1,240,8.0,100.0
9767,43.0,2,240,13.0,100.0
9768,55.0,0,240,3.0,96.0
9769,43.0,3,240,3.0,96.0
9770,86.0,35,20,10.0,100.0
9771,74.0,2,20,11.0,100.0
9772,62.0,0,20,12.0,100.0
9773,69.0,1,20,12.0,100.0
9774,86.0,28,20,10.0,100.0
9775,74.0,2,20,11.0,100.0
9776,62.0,0,20,12.0,100.0
9777,69.0,3,20,12.0,100.0
9778,86.0,35,20,10.0,100.0
9779,74.0,2,20,11.0,100.0
9780,69.0,0,20,12.0,100.0
9781,62.0,3,20,12.0,100.0
9782,41.0,0,120,14.0,84.0
9783,89.0,35,20,10.0,100.0
9784,77.0,2,20,11.0,100.0
9785,62.0,0,20,12.0,100.0
9786,69.0,3,20,12.0,100.0
9787,89.0,35,20,10.0,100.0
9788,77.0,2,20,11.0,100.0
9789,62.0,0,20,12.0,100.0
9790,69.0,3,20,12.0,100.0
9791,89.0,35,20,10.0,100.0
9792,77.0,2,20,11.0,100.0
9793,62.0,3,20,12.0,100.0
9794,69.0,0,20,12.0,100.0
9795,81.0,1,480,0.0,93.0
9796,69.0,2,240,7.0,100.0
9797,62.0,0,240,7.0,100.0
9798,74.0,0,240,1.0,92.0
9799,81.0,0,480,1.0,92.0
9800,57.0,2,480,4.0,94.0
9801,77.0,1,240,2.0,93.0
9802,69.0,0,240,2.0,93.0
9803,41.0,1,240,8.0,100.0
9804,41.0,2,240,13.0,100.0
9805,41.0,3,240,3.0,96.0
9806,53.0,0,240,3.0,96.0
9807,88.0,35,20,10.0,100.0
9808,76.0,1,20,11.0,100.0
9809,71.0,1,20,12.0,100.0
9810,65.0,0,20,12.0,100.0
9811,88.0,28,20,10.0,100.0
9812,76.0,2,20,11.0,100.0
9813,71.0,0,20,12.0,100.0
9814,65.0,3,20,12.0,100.0
9815,88.0,35,20,10.0,100.0
9816,76.0,2,20,11.0,100.0
9817,71.0,0,20,12.0,100.0
9818,65.0,3,20,12.0,100.0
9819,76.0,1,120,2.0,93.0
9820,43.0,3,120,14.0,77.0
9821,86.0,35,20,10.0,100.0
9822,74.0,2,20,11.0,100.0
9823,71.0,0,20,12.0,100.0
9824,65.0,3,20,12.0,100.0
9825,86.0,34,20,10.0,100.0
9826,74.0,2,20,11.0,100.0
9827,71.0,0,20,12.0,100.0
9828,65.0,3,20,12.0,100.0
9829,86.0,35,20,10.0,100.0
9830,74.0,2,20,11.0,100.0
9831,65.0,3,20,12.0,100.0
9832,71.0,0,20,12.0,100.0
9833,83.0,1,240,0.0,93.0
9834,59.0,2,240,7.0,100.0
9835,59.0,0,240,4.0,94.0
9836,77.0,0,240,1.0,92.0
9837,65.0,0,240,7.0,100.0
9838,71.0,0,240,1.0,92.0
9839,71.0,0,240,2.0,93.0
9840,74.0,1,120,2.0,93.0
9841,43.0,1,240,8.0,100.0
9842,43.0,2,240,13.0,100.0
9843,43.0,0,240,3.0,96.0
9844,55.0,0,240,3.0,96.0
9845,72.0,35,20,10.0,87.0
9846,48.0,3,20,13.0,87.0
9847,72.0,28,20,10.0,87.0
9848,60.0,2,60,11.0,87.0
9849,48.0,9,20,13.0,87.0
9850,72.0,2,80,1.0,92.0
9851,72.0,1,80,2.0,93.0
9852,72.0,31,20,10.0,87.0
9853,48.0,9,20,13.0,87.0
9854,60.0,1,120,12.0,87.0
9855,60.0,0,120,3.0,83.0
9856,36.0,3,120,14.0,56.0
9857,60.0,1,20,11.0,87.0
9858,72.0,31,60,10.0,87.0
9859,60.0,30,20,11.0,87.0
9860,48.0,4,60,13.0,87.0
9861,60.0,36,20,11.0,87.0
9862,72.0,2,80,1.0,92.0
9863,58.0,1,120,12.0,87.0
9864,72.0,2,80,2.0,93.0
9865,58.0,3,120,3.0,83.0
9866,72.0,38,20,10.0,87.0
9867,48.0,3,20,13.0,87.0
9868,72.0,28,20,10.0,87.0
9869,60.0,2,60,11.0,87.0
9870,48.0,9,20,13.0,87.0
9871,77.0,2,80,1.0,92.0
9872,77.0,1,80,2.0,93.0
9873,72.0,31,20,10.0,87.0
9874,48.0,3,20,13.0,87.0
9875,84.0,1,240,0.0,68.0
9876,60.0,2,240,4.0,69.0
9877,57.0,1,120,12.0,87.0
9878,36.0,3,120,14.0,56.0
9879,57.0,0,120,3.0,83.0
9880,60.0,1,20,11.0,87.0
9881,81.0,4,80,1.0,92.0
9882,81.0,2,80,2.0,93.0
9883,72.0,31,60,10.0,87.0
9884,60.0,30,20,11.0,87.0
9885,48.0,4,60,13.0,87.0
9886,60.0,36,20,11.0,87.0
9887,59.0,1,105,12.0,87.0
9888,79.0,2,70,1.0,92.0
9889,79.0,2,70,2.0,93.0
9890,59.0,3,105,3.0,83.0
9891,86.0,1,120,0.0,68.0
9892,62.0,2,120,4.0,69.0
9893,72.0,38,20,10.0,87.0
9894,48.0,3,20,13.0,87.0
9895,72.0,28,20,10.0,87.0
9896,60.0,2,60,11.0,87.0
9897,48.0,9,20,13.0,87.0
9898,72.0,2,80,1.0,92.0
9899,72.0,1,80,2.0,93.0
9900,72.0,31,20,10.0,87.0
9901,48.0,9,20,13.0,87.0
9902,60.0,1,120,12.0,87.0
9903,36.0,0,120,14.0,56.0
9904,60.0,3,120,3.0,83.0
9905,60.0,1,20,11.0,87.0
9906,72.0,31,60,10.0,87.0
9907,60.0,30,20,11.0,87.0
9908,48.0,4,60,13.0,87.0
9909,60.0,36,20,11.0,87.0
9910,72.0,2,80,1.0,92.0
9911,58.0,1,120,12.0,87.0
9912,72.0,2,80,2.0,93.0
9913,58.0,3,120,3.0,83.0
9914,72.0,38,20,10.0,87.0
9915,48.0,3,20,13.0,87.0
9916,72.0,28,20,10.0,87.0
9917,60.0,2,60,11.0,87.0
9918,48.0,9,20,13.0,87.0
9919,77.0,2,80,1.0,92.0
9920,77.0,1,80,2.0,93.0
9921,72.0,31,20,10.0,87.0
9922,48.0,3,20,13.0,87.0
9923,84.0,1,240,0.0,68.0
9924,60.0,2,240,4.0,69.0
9925,57.0,1,120,12.0,87.0
9926,57.0,0,120,3.0,83.0
9927,36.0,3,120,14.0,56.0
9928,60.0,1,20,11.0,87.0
9929,81.0,4,80,1.0,92.0
9930,81.0,2,80,2.0,93.0
9931,72.0,31,60,10.0,87.0
9932,60.0,30,20,11.0,87.0
9933,48.0,4,60,13.0,87.0
9934,60.0,36,20,11.0,87.0
9935,59.0,1,105,12.0,87.0
9936,79.0,2,70,1.0,92.0
9937,79.0,2,70,2.0,93.0
9938,59.0,3,105,3.0,83.0
9939,86.0,1,120,0.0,68.0
9940,62.0,2,120,4.0,69.0
9941,72.0,38,20,10.0,100.0
9942,60.0,2,20,11.0,100.0
9943,64.0,1,20,12.0,100.0
9944,60.0,0,20,12.0,100.0
9945,72.0,28,20,10.0,100.0
9946,60.0,2,20,11.0,100.0
9947,60.0,0,20,12.0,100.0
9948,64.0,3,20,12.0,100.0
9949,72.0,35,20,10.0,100.0
9950,60.0,2,20,11.0,100.0
9951,60.0,3,20,12.0,100.0
9952,64.0,0,20,12.0,100.0
9953,48.0,3,120,14.0,70.0
9954,76.0,35,20,10.0,100.0
9955,64.0,2,20,11.0,100.0
9956,64.0,0,20,12.0,100.0
9957,60.0,3,20,12.0,100.0
9958,76.0,35,20,10.0,100.0
9959,64.0,2,20,11.0,100.0
9960,64.0,0,20,12.0,100.0
9961,60.0,3,20,12.0,100.0
9962,76.0,35,20,10.0,100.0
9963,64.0,2,20,11.0,100.0
9964,60.0,3,20,12.0,100.0
9965,64.0,0,20,12.0,100.0
9966,52.0,0,240,7.0,100.0
9967,60.0,0,240,7.0,100.0
9968,72.0,2,240,1.0,92.0
9969,72.0,1,240,2.0,93.0
9970,48.0,1,240,8.0,100.0
9971,60.0,2,240,13.0,100.0
9972,60.0,0,240,3.0,96.0
9973,48.0,0,240,3.0,96.0
9974,79.0,35,20,10.0,100.0
9975,67.0,1,20,11.0,100.0
9976,64.0,0,20,12.0,100.0
9977,67.0,1,20,12.0,100.0
9978,79.0,28,20,10.0,100.0
9979,67.0,2,20,11.0,100.0
9980,64.0,3,20,12.0,100.0
9981,67.0,0,20,12.0,100.0
9982,79.0,35,20,10.0,100.0
9983,67.0,2,20,11.0,100.0
9984,64.0,0,20,12.0,100.0
9985,67.0,3,20,12.0,100.0
9986,46.0,0,120,14.0,77.0
9987,84.0,35,20,10.0,100.0
9988,72.0,2,20,11.0,100.0
9989,67.0,0,20,12.0,100.0
9990,64.0,3,20,12.0,100.0
9991,84.0,35,20,10.0,100.0
9992,72.0,2,20,11.0,100.0
9993,67.0,3,20,12.0,100.0
9994,64.0,0,20,12.0,100.0
9995,84.0,35,20,10.0,100.0
9996,72.0,2,20,11.0,100.0
9997,64.0,3,20,12.0,100.0
9998,67.0,0,20,12.0,100.0
9999,76.0,0,240,1.0,92.0
10000,55.0,0,240,7.0,100.0
10001,64.0,0,240,7.0,100.0
10002,67.0,0,240,2.0,93.0
10003,76.0,1,240,2.0,93.0
10004,46.0,1,240,8.0,100.0
10005,58.0,2,240,13.0,100.0
10006,58.0,0,240,3.0,96.0
10007,46.0,3,240,3.0,96.0
10008,89.0,35,20,10.0,100.0
10009,77.0,2,20,11.0,100.0
10010,65.0,1,20,12.0,100.0
10011,72.0,0,20,12.0,100.0
10012,89.0,28,20,10.0,100.0
10013,77.0,2,20,11.0,100.0
10014,72.0,0,20,12.0,100.0
10015,65.0,3,20,12.0,100.0
10016,89.0,35,20,10.0,100.0
10017,77.0,2,20,11.0,100.0
10018,72.0,3,20,12.0,100.0
10019,65.0,0,20,12.0,100.0
10020,44.0,0,120,14.0,84.0
10021,92.0,35,20,10.0,100.0
10022,80.0,2,20,11.0,100.0
10023,65.0,0,20,12.0,100.0
10024,72.0,3,20,12.0,100.0
10025,92.0,35,20,10.0,100.0
10026,80.0,2,20,11.0,100.0
10027,65.0,3,20,12.0,100.0
10028,72.0,0,20,12.0,100.0
10029,92.0,35,20,10.0,100.0
10030,80.0,2,20,11.0,100.0
10031,72.0,3,20,12.0,100.0
10032,65.0,0,20,12.0,100.0
10033,84.0,1,480,0.0,93.0
10034,60.0,2,480,4.0,94.0
10035,65.0,0,240,7.0,100.0
10036,84.0,0,480,1.0,92.0
10037,60.0,2,240,7.0,100.0
10038,77.0,0,240,1.0,92.0
10039,77.0,1,240,2.0,93.0
10040,72.0,0,240,2.0,93.0
10041,44.0,1,240,8.0,100.0
10042,56.0,2,240,13.0,100.0
10043,44.0,0,240,3.0,96.0
10044,56.0,3,240,3.0,96.0
10045,91.0,35,20,10.0,100.0
10046,79.0,1,20,11.0,100.0
10047,68.0,1,20,12.0,100.0
10048,74.0,0,20,12.0,100.0
10049,91.0,28,20,10.0,100.0
10050,79.0,2,20,11.0,100.0
10051,68.0,3,20,12.0,100.0
10052,74.0,0,20,12.0,100.0
10053,91.0,35,20,10.0,100.0
10054,79.0,2,20,11.0,100.0
10055,74.0,0,20,12.0,100.0
10056,68.0,3,20,12.0,100.0
10057,62.0,0,120,7.0,100.0
10058,58.0,0,120,7.0,100.0
10059,79.0,1,120,2.0,93.0
10060,46.0,1,120,8.0,100.0
10061,46.0,0,120,14.0,77.0
10062,89.0,35,20,10.0,100.0
10063,77.0,2,20,11.0,100.0
10064,68.0,0,20,12.0,100.0
10065,74.0,3,20,12.0,100.0
10066,89.0,34,20,10.0,100.0
10067,77.0,2,20,11.0,100.0
10068,74.0,3,20,12.0,100.0
10069,68.0,0,20,12.0,100.0
10070,89.0,35,20,10.0,100.0
10071,77.0,2,20,11.0,100.0
10072,74.0,3,20,12.0,100.0
10073,68.0,0,20,12.0,100.0
10074,86.0,1,240,0.0,93.0
10075,74.0,0,240,1.0,92.0
10076,80.0,2,240,1.0,92.0
10077,62.0,0,240,4.0,94.0
10078,77.0,1,120,2.0,93.0
10079,74.0,0,240,2.0,93.0
10080,58.0,2,240,13.0,100.0
10081,46.0,3,240,3.0,96.0
10082,58.0,0,240,3.0,96.0
10083,75.0,35,60,10.0,100.0
10084,87.0,1,60,0.0,93.0
10085,75.0,1,60,11.0,100.0
10086,75.0,0,60,1.0,92.0
10087,58.0,2,60,4.0,94.0
10088,70.0,1,60,12.0,100.0
10089,75.0,0,60,2.0,93.0
10090,70.0,1,60,2.0,93.0
10091,55.0,3,60,13.0,100.0
10092,55.0,0,60,3.0,96.0
10093,43.0,3,60,3.0,96.0
10094,43.0,0,120,14.0,65.0
10095,77.0,1,20,11.0,100.0
10096,73.0,0,20,11.0,100.0
10097,68.0,0,20,12.0,100.0
10098,65.0,1,20,12.0,100.0
10099,41.0,2,20,13.0,100.0
10100,41.0,29,0,15.0,94.0
10101,77.0,1,20,11.0,100.0
10102,73.0,0,20,11.0,100.0
10103,68.0,3,20,12.0,100.0
10104,65.0,0,20,12.0,100.0
10105,41.0,4,20,13.0,100.0
10106,41.0,22,0,15.0,94.0
10107,41.0,12,0,15.0,94.0
10108,73.0,11,20,11.0,100.0
10109,77.0,0,20,11.0,100.0
10110,68.0,3,20,12.0,100.0
10111,65.0,0,20,12.0,100.0
10112,41.0,4,20,13.0,100.0
10113,53.0,0,120,3.0,96.0
10114,41.0,0,120,3.0,96.0
10115,29.0,0,120,3.0,96.0
10116,29.0,1,120,14.0,100.0
10117,77.0,0,20,11.0,100.0
10118,73.0,21,20,11.0,100.0
10119,65.0,3,20,12.0,100.0
10120,68.0,0,20,12.0,100.0
10121,44.0,4,20,13.0,100.0
10122,41.0,29,0,15.0,94.0
10123,73.0,0,20,11.0,100.0
10124,77.0,1,20,11.0,100.0
10125,68.0,3,20,12.0,100.0
10126,65.0,0,20,12.0,100.0
10127,44.0,4,20,13.0,100.0
10128,41.0,22,0,15.0,94.0
10129,77.0,11,20,11.0,100.0
10130,73.0,0,20,11.0,100.0
10131,65.0,3,20,12.0,100.0
10132,68.0,0,20,12.0,100.0
10133,44.0,4,20,13.0,100.0
10134,41.0,2,0,15.0,115.0
10135,32.0,0,120,3.0,96.0
10136,32.0,0,120,14.0,100.0
10137,56.0,1,120,3.0,96.0
10138,44.0,0,120,3.0,96.0
10139,77.0,0,20,11.0,100.0
10140,73.0,21,20,11.0,100.0
10141,68.0,3,20,12.0,100.0
10142,65.0,0,20,12.0,100.0
10143,49.0,4,20,13.0,100.0
10144,73.0,0,20,11.0,100.0
10145,77.0,30,20,11.0,100.0
10146,65.0,0,20,12.0,100.0
10147,68.0,3,20,12.0,100.0
10148,49.0,4,20,13.0,100.0
10149,73.0,33,20,11.0,100.0
10150,77.0,0,20,11.0,100.0
10151,65.0,3,20,12.0,100.0
10152,68.0,0,20,12.0,100.0
10153,65.0,1,345,6.0,103.0
10154,77.0,0,345,6.0,103.0
10155,68.0,0,345,7.0,100.0
10156,61.0,1,345,7.0,100.0
10157,65.0,0,345,4.0,94.0
10158,61.0,0,345,4.0,94.0
10159,49.0,4,20,13.0,100.0
10160,77.0,0,345,2.0,93.0
10161,68.0,0,345,2.0,93.0
10162,68.0,1,345,5.0,94.0
10163,53.0,0,345,5.0,94.0
10164,53.0,1,345,8.0,100.0
10165,85.0,228,360,10.0,100.0
10166,85.0,1,360,0.0,93.0
10167,73.0,0,360,1.0,92.0
10168,49.0,0,120,3.0,96.0
10169,37.0,0,120,3.0,96.0
10170,61.0,0,120,3.0,96.0
10171,37.0,1,120,14.0,100.0
10172,77.0,1,20,11.0,100.0
10173,65.0,1,20,12.0,100.0
10174,68.0,0,20,12.0,100.0
10175,53.0,3,20,13.0,100.0
10176,77.0,30,20,11.0,100.0
10177,68.0,3,20,12.0,100.0
10178,65.0,0,20,12.0,100.0
10179,53.0,4,20,13.0,100.0
10180,77.0,33,20,11.0,100.0
10181,65.0,3,20,12.0,100.0
10182,68.0,0,20,12.0,100.0
10183,53.0,4,20,13.0,100.0
10184,89.0,31,120,10.0,100.0
10185,89.0,1,120,0.0,93.0
10186,77.0,1,120,1.0,92.0
10187,41.0,3,120,3.0,96.0
10188,41.0,0,120,14.0,100.0
10189,65.0,0,120,3.0,96.0
10190,53.0,0,120,3.0,96.0
10191,75.0,1,20,11.0,100.0
10192,65.0,1,20,12.0,100.0
10193,68.0,0,20,12.0,100.0
10194,51.0,4,20,13.0,100.0
10195,75.0,30,20,11.0,100.0
10196,68.0,3,20,12.0,100.0
10197,65.0,0,20,12.0,100.0
10198,51.0,4,20,13.0,100.0
10199,75.0,33,20,11.0,100.0
10200,65.0,3,20,12.0,100.0
10201,68.0,0,20,12.0,100.0
10202,77.0,1,225,6.0,103.0
10203,65.0,0,225,6.0,103.0
10204,51.0,4,20,13.0,100.0
10205,61.0,0,225,4.0,94.0
10206,65.0,0,225,4.0,94.0
10207,65.0,0,225,2.0,93.0
10208,53.0,0,225,5.0,94.0
10209,68.0,0,225,5.0,94.0
10210,73.0,1,225,2.0,93.0
10211,87.0,31,120,10.0,100.0
10212,87.0,1,120,0.0,93.0
10213,75.0,2,120,1.0,92.0
10214,39.0,0,120,3.0,96.0
10215,39.0,0,120,14.0,100.0
10216,51.0,0,120,3.0,96.0
10217,63.0,3,120,3.0,96.0
10218,73.0,1,20,11.0,100.0
10219,65.0,1,20,12.0,100.0
10220,68.0,0,20,12.0,100.0
10221,49.0,3,20,13.0,100.0
10222,73.0,30,20,11.0,100.0
10223,65.0,3,20,12.0,100.0
10224,68.0,0,20,12.0,100.0
10225,49.0,4,20,13.0,100.0
10226,73.0,33,20,11.0,100.0
10227,85.0,31,105,10.0,100.0
10228,65.0,0,20,12.0,100.0
10229,68.0,3,20,12.0,100.0
10230,85.0,1,105,0.0,93.0
10231,73.0,0,105,1.0,92.0
10232,49.0,4,20,13.0,100.0
10233,37.0,0,105,3.0,96.0
10234,37.0,3,105,14.0,100.0
10235,61.0,0,105,3.0,96.0
10236,49.0,0,105,3.0,96.0
10237,84.0,1,20,11.0,100.0
10238,65.0,0,20,12.0,100.0
10239,73.0,1,20,12.0,100.0
10240,60.0,4,20,13.0,100.0
10241,84.0,30,20,11.0,100.0
10242,65.0,0,20,12.0,100.0
10243,73.0,3,20,12.0,100.0
10244,60.0,4,20,13.0,100.0
10245,84.0,33,20,11.0,100.0
10246,65.0,0,20,12.0,100.0
10247,73.0,3,20,12.0,100.0
10248,65.0,1,225,6.0,103.0
10249,77.0,0,225,6.0,103.0
10250,60.0,4,20,13.0,100.0
10251,65.0,0,225,4.0,94.0
10252,61.0,1,225,4.0,94.0
10253,53.0,0,225,5.0,94.0
10254,65.0,1,225,2.0,93.0
10255,73.0,0,225,2.0,93.0
10256,68.0,0,225,5.0,94.0
10257,96.0,31,120,10.0,100.0
10258,96.0,0,120,0.0,93.0
10259,84.0,1,120,0.0,93.0
10260,72.0,2,120,1.0,92.0
10261,60.0,0,120,3.0,96.0
10262,48.0,0,120,3.0,96.0
10263,48.0,3,120,14.0,100.0
10264,82.0,1,20,11.0,100.0
10265,73.0,1,20,12.0,100.0
10266,65.0,0,20,12.0,100.0
10267,58.0,3,20,13.0,100.0
10268,82.0,30,20,11.0,100.0
10269,65.0,3,20,12.0,100.0
10270,73.0,0,20,12.0,100.0
10271,58.0,4,20,13.0,100.0
10272,82.0,33,20,11.0,100.0
10273,73.0,3,20,12.0,100.0
10274,65.0,0,20,12.0,100.0
10275,58.0,4,20,13.0,100.0
10276,94.0,31,120,10.0,100.0
10277,94.0,1,120,0.0,93.0
10278,82.0,0,120,0.0,93.0
10279,70.0,1,120,1.0,92.0
10280,46.0,0,120,3.0,96.0
10281,46.0,0,120,14.0,100.0
10282,58.0,0,120,3.0,96.0
10283,80.0,1,20,11.0,100.0
10284,73.0,0,20,12.0,100.0
10285,65.0,1,20,12.0,100.0
10286,56.0,4,20,13.0,100.0
10287,80.0,30,20,11.0,100.0
10288,73.0,0,20,12.0,100.0
10289,65.0,3,20,12.0,100.0
10290,56.0,4,20,13.0,100.0
10291,80.0,33,20,11.0,100.0
10292,73.0,3,20,12.0,100.0
10293,65.0,0,20,12.0,100.0
10294,77.0,1,225,6.0,103.0
10295,65.0,0,225,6.0,103.0
10296,61.0,0,225,4.0,94.0
10297,55.0,0,225,4.0,94.0
10298,56.0,4,20,13.0,100.0
10299,65.0,0,225,5.0,94.0
10300,67.0,0,225,5.0,94.0
10301,65.0,1,225,2.0,93.0
10302,73.0,0,225,2.0,93.0
10303,92.0,31,120,10.0,100.0
10304,80.0,1,120,0.0,93.0
10305,92.0,0,120,0.0,93.0
10306,68.0,2,120,1.0,92.0
10307,56.0,0,120,3.0,96.0
10308,44.0,0,120,3.0,96.0
10309,44.0,3,120,14.0,100.0
10310,79.0,1,20,11.0,100.0
10311,73.0,1,20,12.0,100.0
10312,65.0,0,20,12.0,100.0
10313,55.0,3,20,13.0,100.0
10314,79.0,30,20,11.0,100.0
10315,77.0,1,60,6.0,103.0
10316,65.0,0,60,6.0,103.0
10317,55.0,0,60,4.0,94.0
10318,61.0,0,60,4.0,94.0
10319,73.0,3,20,12.0,100.0
10320,65.0,0,20,12.0,100.0
10321,65.0,0,60,5.0,94.0
10322,67.0,1,60,5.0,94.0
10323,55.0,4,20,13.0,100.0
10324,79.0,33,20,11.0,100.0
10325,91.0,31,105,10.0,100.0
10326,65.0,3,20,12.0,100.0
10327,73.0,0,20,12.0,100.0
10328,91.0,1,105,0.0,93.0
10329,79.0,0,105,0.0,93.0
10330,67.0,1,105,1.0,92.0
10331,55.0,4,20,13.0,100.0
10332,65.0,0,105,2.0,93.0
10333,73.0,0,105,2.0,93.0
10334,43.0,0,105,3.0,96.0
10335,43.0,0,105,14.0,100.0
10336,55.0,3,105,3.0,96.0
10337,89.0,31,120,10.0,100.0
10338,89.0,0,120,0.0,93.0
10339,77.0,1,120,11.0,100.0
10340,77.0,0,120,1.0,92.0
10341,73.0,0,225,2.0,93.0
10342,70.0,0,225,2.0,93.0
10343,88.0,108,120,10.0,90.0
10344,88.0,1,120,0.0,83.0
10345,82.0,1,240,0.0,93.0
10346,76.0,1,120,11.0,90.0
10347,76.0,2,120,1.0,82.0
10348,70.0,0,240,1.0,92.0
10349,55.0,2,240,4.0,94.0
10350,61.0,0,240,4.0,94.0
10351,73.0,1,240,12.0,100.0
10352,70.0,0,240,12.0,100.0
10353,70.0,0,240,5.0,94.0
10354,67.0,1,240,5.0,94.0
10355,67.0,3,240,13.0,115.0
10356,55.0,0,240,3.0,111.0
10357,67.0,0,240,3.0,111.0
10358,55.0,3,240,14.0,115.0
10359,61.0,1,20,12.0,100.0
10360,79.0,0,60,10.0,100.0
10361,91.0,236,60,10.0,100.0
10362,91.0,0,60,0.0,93.0
10363,85.0,1,60,0.0,93.0
10364,73.0,1,60,11.0,100.0
10365,79.0,0,60,1.0,92.0
10366,73.0,0,60,1.0,92.0
10367,61.0,2,60,4.0,94.0
10368,58.0,0,60,4.0,94.0
10369,61.0,33,20,12.0,100.0
10370,67.0,0,60,5.0,94.0
10371,46.0,3,60,13.0,100.0
10372,34.0,3,60,14.0,100.0
10373,34.0,0,60,3.0,96.0
10374,46.0,0,60,3.0,96.0
10375,61.0,40,20,12.0,100.0
10376,67.0,0,105,2.0,93.0
10377,73.0,1,105,2.0,93.0
10378,77.0,0,120,10.0,100.0
10379,89.0,35,120,10.0,100.0
10380,89.0,0,120,0.0,93.0
10381,65.0,1,120,11.0,100.0
10382,77.0,2,120,1.0,92.0
10383,67.0,1,225,2.0,93.0
10384,73.0,0,225,2.0,93.0
10385,88.0,0,120,10.0,90.0
10386,76.0,108,120,10.0,90.0
10387,88.0,1,120,0.0,83.0
10388,85.0,1,240,0.0,93.0
10389,73.0,0,240,11.0,100.0
10390,64.0,1,120,11.0,90.0
10391,61.0,0,240,4.0,94.0
10392,58.0,0,240,4.0,94.0
10393,76.0,2,120,1.0,82.0
10394,73.0,0,240,1.0,92.0
10395,61.0,1,240,12.0,100.0
10396,67.0,0,240,12.0,100.0
10397,67.0,0,240,5.0,94.0
10398,58.0,3,240,13.0,115.0
10399,46.0,0,240,3.0,111.0
10400,46.0,0,240,14.0,115.0
10401,58.0,3,240,3.0,111.0
10402,48.0,3,53,13.0,100.0
10403,72.0,1,60,6.0,103.0
10404,60.0,1,60,4.0,94.0
10405,36.0,3,53,3.0,96.0
10406,48.0,0,53,3.0,96.0
10407,36.0,0,53,14.0,100.0
10408,60.0,1,96,5.0,94.0
10409,60.0,1,105,11.0,100.0
10410,72.0,236,120,10.0,100.0
10411,84.0,0,120,10.0,100.0
10412,84.0,1,120,0.0,93.0
10413,60.0,1,120,12.0,100.0
10414,68.0,1,45,11.0,100.0
10415,92.0,0,60,10.0,100.0
10416,80.0,108,60,10.0,100.0
10417,80.0,0,60,0.0,93.0
10418,92.0,1,60,0.0,93.0
10419,77.0,1,60,6.0,103.0
10420,65.0,0,60,6.0,103.0
10421,68.0,1,60,12.0,100.0
10422,68.0,0,96,5.0,94.0
10423,65.0,50,45,11.0,100.0
10424,41.0,3,105,13.0,100.0
10425,56.0,3,45,13.0,100.0
10426,60.0,1,105,11.0,100.0
10427,68.0,0,225,1.0,92.0
10428,72.0,1,225,1.0,92.0
10429,53.0,1,225,5.0,94.0
10430,72.0,0,225,2.0,93.0
10431,68.0,0,225,2.0,93.0
10432,53.0,60,45,13.0,100.0
10433,53.0,0,225,3.0,96.0
10434,41.0,0,225,3.0,96.0
10435,29.0,3,225,3.0,96.0
10436,29.0,0,225,14.0,100.0
10437,60.0,0,0,4.0,94.0
10438,72.0,53,45,11.0,100.0
10439,92.0,0,225,10.0,115.0
10440,80.0,58,225,10.0,115.0
10441,92.0,1,225,0.0,108.0
10442,80.0,0,225,0.0,108.0
10443,68.0,50,45,11.0,100.0
10444,68.0,3,225,12.0,115.0
10445,68.0,1,225,5.0,94.0
10446,48.0,3,105,13.0,100.0
10447,79.0,58,30,10.0,100.0
10448,91.0,0,30,10.0,100.0
10449,91.0,1,30,0.0,93.0
10450,79.0,0,30,0.0,93.0
10451,67.0,3,30,12.0,100.0
10452,67.0,1,30,5.0,94.0
10453,60.0,3,45,13.0,100.0
10454,77.0,51,30,10.0,100.0
10455,89.0,0,30,10.0,100.0
10456,77.0,0,30,0.0,93.0
10457,89.0,1,30,0.0,93.0
10458,65.0,4,30,12.0,100.0
10459,65.0,1,30,5.0,94.0
10460,65.0,1,105,11.0,100.0
10461,77.0,2,225,1.0,92.0
10462,72.0,0,225,1.0,92.0
10463,65.0,0,225,2.0,93.0
10464,56.0,2,225,5.0,94.0
10465,72.0,0,225,2.0,93.0
10466,56.0,3,45,13.0,100.0
10467,56.0,0,225,3.0,96.0
10468,32.0,0,225,3.0,96.0
10469,44.0,0,225,3.0,96.0
10470,32.0,3,225,14.0,100.0
10471,73.0,1,45,11.0,100.0
10472,80.0,51,60,10.0,100.0
10473,92.0,0,60,10.0,100.0
10474,80.0,0,60,0.0,93.0
10475,92.0,1,60,0.0,93.0
10476,68.0,1,60,12.0,100.0
10477,70.0,50,45,11.0,100.0
10478,53.0,3,105,13.0,100.0
10479,61.0,3,45,13.0,100.0
10480,65.0,1,105,11.0,100.0
10481,73.0,0,225,1.0,92.0
10482,77.0,0,225,1.0,92.0
10483,73.0,1,225,2.0,93.0
10484,65.0,0,225,2.0,93.0
10485,58.0,60,45,13.0,100.0
10486,58.0,0,225,3.0,96.0
10487,34.0,0,225,3.0,96.0
10488,34.0,3,225,14.0,100.0
10489,46.0,0,225,3.0,96.0
10490,58.0,2,240,4.0,94.0
10491,61.0,0,240,4.0,94.0
10492,65.0,0,240,5.0,94.0
10493,77.0,53,45,11.0,100.0
10494,92.0,58,225,10.0,115.0
10495,80.0,0,225,10.0,115.0
10496,92.0,0,225,0.0,108.0
10497,80.0,1,225,0.0,108.0
10498,73.0,50,45,11.0,100.0
10499,68.0,3,225,12.0,115.0
10500,53.0,3,105,13.0,100.0
10501,68.0,1,240,5.0,94.0
10502,79.0,0,30,10.0,100.0
10503,91.0,58,30,10.0,100.0
10504,91.0,0,30,0.0,93.0
10505,79.0,1,30,0.0,93.0
10506,67.0,3,30,12.0,100.0
10507,67.0,1,30,5.0,94.0
10508,65.0,3,45,13.0,100.0
10509,89.0,0,30,10.0,100.0
10510,77.0,51,30,10.0,100.0
10511,89.0,0,30,0.0,93.0
10512,77.0,1,30,0.0,93.0
10513,65.0,4,30,12.0,100.0
10514,65.0,1,30,5.0,94.0
10515,70.0,1,105,11.0,100.0
10516,70.0,0,225,1.0,92.0
10517,77.0,0,225,1.0,92.0
10518,70.0,2,225,2.0,93.0
10519,65.0,0,225,2.0,93.0
10520,61.0,3,45,13.0,100.0
10521,49.0,0,225,3.0,96.0
10522,37.0,3,225,3.0,96.0
10523,61.0,0,225,3.0,96.0
10524,37.0,0,225,14.0,100.0
10525,58.0,0,240,4.0,94.0
10526,61.0,2,240,4.0,94.0
10527,53.0,0,240,5.0,94.0
10528,75.0,1,45,11.0,100.0
10529,92.0,51,60,10.0,100.0
10530,80.0,0,60,10.0,100.0
10531,92.0,0,60,0.0,93.0
10532,80.0,1,60,0.0,93.0
10533,60.0,0,60,4.0,94.0
10534,63.0,0,60,4.0,94.0
10535,68.0,1,60,12.0,100.0
10536,68.0,0,60,5.0,94.0
10537,63.0,0,60,5.0,94.0
10538,72.0,50,45,11.0,100.0
10539,56.0,3,105,13.0,100.0
10540,63.0,4,45,13.0,100.0
10541,68.0,1,105,11.0,100.0
10542,80.0,0,225,1.0,92.0
10543,75.0,2,225,1.0,92.0
10544,68.0,0,225,2.0,93.0
10545,75.0,1,225,2.0,93.0
10546,60.0,60,45,13.0,100.0
10547,36.0,0,225,3.0,96.0
10548,36.0,0,225,14.0,100.0
10549,60.0,0,225,3.0,96.0
10550,48.0,3,225,3.0,96.0
10551,68.0,53,45,11.0,100.0
10552,75.0,58,225,10.0,115.0
10553,87.0,0,225,10.0,115.0
10554,87.0,1,225,0.0,108.0
10555,63.0,50,45,11.0,100.0
10556,63.0,3,225,12.0,115.0
10557,56.0,3,105,13.0,100.0
10558,73.0,0,30,10.0,100.0
10559,85.0,58,30,10.0,100.0
10560,85.0,1,30,0.0,93.0
10561,61.0,3,30,12.0,100.0
10562,56.0,4,45,13.0,100.0
10563,72.0,0,30,10.0,100.0
10564,84.0,51,30,10.0,100.0
10565,84.0,1,30,0.0,93.0
10566,60.0,4,30,12.0,100.0
10567,60.0,1,105,11.0,100.0
10568,72.0,0,225,6.0,103.0
10569,60.0,1,225,6.0,103.0
10570,72.0,0,225,1.0,92.0
10571,80.0,0,225,1.0,92.0
10572,60.0,0,225,4.0,94.0
10573,48.0,1,225,4.0,94.0
10574,68.0,0,225,5.0,94.0
10575,68.0,2,225,2.0,93.0
10576,72.0,0,225,2.0,93.0
10577,53.0,4,45,13.0,100.0
10578,53.0,0,225,3.0,96.0
10579,41.0,3,225,3.0,96.0
10580,41.0,0,225,14.0,100.0
10581,67.0,1,45,11.0,100.0
10582,63.0,50,45,11.0,100.0
10583,51.0,3,105,13.0,100.0
10584,84.0,0,165,10.0,100.0
10585,72.0,51,165,10.0,100.0
10586,84.0,1,165,0.0,93.0
10587,60.0,1,165,12.0,100.0
10588,55.0,7,45,13.0,100.0
10589,82.0,51,45,10.0,100.0
10590,70.0,0,45,10.0,100.0
10591,82.0,1,45,0.0,93.0
10592,60.0,60,105,11.0,100.0
10593,60.0,0,225,6.0,103.0
10594,72.0,1,225,6.0,103.0
10595,60.0,0,225,4.0,94.0
10596,72.0,0,225,1.0,92.0
10597,79.0,1,225,1.0,92.0
10598,48.0,0,225,4.0,94.0
10599,58.0,4,45,12.0,100.0
10600,67.0,1,225,5.0,94.0
10601,67.0,0,225,2.0,93.0
10602,72.0,0,225,2.0,93.0
10603,51.0,4,45,13.0,100.0
10604,39.0,3,225,14.0,100.0
10605,39.0,0,225,3.0,96.0
10606,51.0,0,225,3.0,96.0
10607,67.0,51,45,10.0,100.0
10608,79.0,0,45,10.0,100.0
10609,79.0,1,45,0.0,93.0
10610,65.0,1,45,11.0,100.0
10611,55.0,1,45,12.0,100.0
10612,68.0,48,45,10.0,100.0
10613,80.0,0,45,10.0,100.0
10614,80.0,1,45,0.0,93.0
10615,60.0,1,45,11.0,100.0
10616,56.0,3,45,12.0,100.0
10617,49.0,3,105,13.0,100.0
10618,72.0,55,45,10.0,100.0
10619,84.0,0,45,10.0,100.0
10620,84.0,1,45,0.0,93.0
10621,60.0,3,45,12.0,100.0
10622,53.0,4,45,13.0,100.0
10623,89.0,0,45,10.0,100.0
10624,77.0,51,45,10.0,100.0
10625,89.0,1,45,0.0,93.0
10626,56.0,1,105,11.0,100.0
10627,72.0,1,225,6.0,103.0
10628,60.0,0,225,6.0,103.0
10629,48.0,0,225,4.0,94.0
10630,72.0,0,225,1.0,92.0
10631,77.0,1,225,1.0,92.0
10632,60.0,0,225,4.0,94.0
10633,65.0,4,45,12.0,100.0
10634,65.0,1,225,2.0,93.0
10635,72.0,0,225,2.0,93.0
10636,65.0,0,225,5.0,94.0
10637,49.0,4,45,13.0,100.0
10638,37.0,0,225,14.0,100.0
10639,49.0,0,225,3.0,96.0
10640,37.0,3,225,3.0,96.0
10641,60.0,0,45,5.0,94.0
10642,60.0,52,45,4.0,94.0
10643,48.0,0,45,4.0,94.0
10644,60.0,2,45,5.0,94.0
10645,36.0,3,105,14.0,100.0
10646,36.0,0,105,3.0,96.0
10647,76.0,2,120,1.0,92.0
10648,72.0,0,120,1.0,92.0
10649,88.0,51,140,10.0,100.0
10650,76.0,0,140,10.0,100.0
10651,88.0,1,140,0.0,93.0
10652,60.0,1,140,11.0,100.0
10653,64.0,1,140,12.0,100.0
10654,72.0,1,140,2.0,93.0
10655,64.0,0,140,2.0,93.0
10656,48.0,3,140,13.0,100.0
10657,48.0,0,140,3.0,96.0
10658,72.0,0,45,10.0,100.0
10659,84.0,54,45,10.0,100.0
10660,84.0,1,45,0.0,93.0
10661,64.0,1,45,11.0,100.0
10662,60.0,3,45,12.0,100.0
10663,64.0,1,45,2.0,93.0
10664,72.0,0,45,2.0,93.0
10665,48.0,3,45,13.0,100.0
10666,52.0,3,45,3.0,96.0
10667,60.0,0,45,3.0,96.0
10668,60.0,0,165,4.0,94.0
10669,48.0,58,165,4.0,94.0
10670,60.0,2,165,5.0,94.0
10671,48.0,0,45,4.0,94.0
10672,60.0,52,45,4.0,94.0
10673,60.0,2,45,5.0,94.0
10674,72.0,48,155,10.0,100.0
10675,84.0,0,155,10.0,100.0
10676,84.0,1,155,0.0,93.0
10677,65.0,1,155,11.0,100.0
10678,61.0,3,155,12.0,100.0
10679,73.0,1,155,2.0,93.0
10680,65.0,0,155,2.0,93.0
10681,48.0,3,155,13.0,100.0
10682,53.0,0,155,3.0,96.0
10683,61.0,3,155,3.0,96.0
10684,72.0,0,45,10.0,100.0
10685,84.0,54,45,10.0,100.0
10686,84.0,1,45,0.0,93.0
10687,65.0,1,45,11.0,100.0
10688,61.0,3,45,12.0,100.0
10689,65.0,0,45,2.0,93.0
10690,73.0,1,45,2.0,93.0
10691,48.0,3,45,13.0,100.0
10692,61.0,3,45,3.0,96.0
10693,53.0,0,45,3.0,96.0
10694,48.0,58,165,4.0,94.0
10695,60.0,0,165,4.0,94.0
10696,60.0,2,165,5.0,94.0
10697,60.0,52,45,4.0,94.0
10698,48.0,0,45,4.0,94.0
10699,60.0,2,45,5.0,94.0
10700,84.0,48,155,10.0,100.0
10701,72.0,0,155,10.0,100.0
10702,84.0,1,155,0.0,93.0
10703,66.0,1,155,11.0,100.0
10704,62.0,3,155,12.0,100.0
10705,66.0,0,155,2.0,93.0
10706,74.0,1,155,2.0,93.0
10707,48.0,3,155,13.0,100.0
10708,54.0,3,155,3.0,96.0
10709,62.0,0,155,3.0,96.0
10710,84.0,0,45,10.0,100.0
10711,72.0,54,45,10.0,100.0
10712,84.0,1,45,0.0,93.0
10713,66.0,1,45,11.0,100.0
10714,62.0,3,45,12.0,100.0
10715,66.0,1,45,2.0,93.0
10716,74.0,0,45,2.0,93.0
10717,48.0,3,45,13.0,100.0
10718,62.0,3,45,3.0,96.0
10719,54.0,0,45,3.0,96.0
10720,48.0,0,165,4.0,94.0
10721,60.0,58,165,4.0,94.0
10722,60.0,2,165,5.0,94.0
10723,48.0,0,30,4.0,94.0
10724,60.0,52,30,4.0,94.0
10725,60.0,2,30,5.0,94.0
10726,60.0,58,30,4.0,94.0
10727,48.0,0,30,4.0,94.0
10728,72.0,0,155,10.0,100.0
10729,84.0,48,155,10.0,100.0
10730,60.0,2,30,5.0,94.0
10731,84.0,1,155,0.0,93.0
10732,67.0,1,155,11.0,100.0
10733,63.0,3,155,12.0,100.0
10734,75.0,0,155,2.0,93.0
10735,67.0,1,155,2.0,93.0
10736,48.0,3,155,13.0,100.0
10737,55.0,0,155,3.0,96.0
10738,63.0,3,155,3.0,96.0
10739,48.0,0,30,4.0,94.0
10740,60.0,2,30,4.0,94.0
10741,60.0,1,30,5.0,94.0
10742,72.0,0,45,10.0,100.0
10743,84.0,54,45,10.0,100.0
10744,84.0,1,45,0.0,93.0
10745,67.0,1,45,11.0,100.0
10746,63.0,1,45,12.0,100.0
10747,67.0,0,45,2.0,93.0
10748,75.0,0,45,2.0,93.0
10749,48.0,3,45,13.0,100.0
10750,63.0,0,45,3.0,96.0
10751,55.0,3,45,3.0,96.0
10752,48.0,2,30,15.0,118.0
10753,48.0,29,30,15.0,94.0
10754,48.0,30,0,15.0,94.0
10755,48.0,30,0,15.0,94.0
10756,48.0,30,0,15.0,94.0
10757,48.0,30,0,15.0,94.0
10758,48.0,0,225,4.0,104.0
10759,36.0,0,225,4.0,104.0
10760,60.0,1,225,5.0,104.0
10761,63.0,0,225,5.0,104.0
10762,36.0,2,225,13.0,110.0
10763,36.0,0,225,3.0,117.0
10764,36.0,0,225,14.0,110.0
10765,48.0,1,225,3.0,106.0
10766,48.0,30,30,15.0,94.0
10767,87.0,48,285,10.0,110.0
10768,75.0,0,285,10.0,110.0
10769,70.0,1,285,11.0,110.0
10770,66.0,1,285,12.0,110.0
10771,87.0,1,340,0.0,103.0
10772,78.0,0,340,0.0,103.0
10773,78.0,0,340,1.0,102.0
10774,82.0,0,340,1.0,102.0
10775,85.0,0,45,10.0,100.0
10776,73.0,48,45,10.0,100.0
10777,66.0,0,340,2.0,103.0
10778,75.0,0,340,2.0,103.0
10779,69.0,2,45,11.0,100.0
10780,70.0,0,345,7.0,110.0
10781,66.0,1,345,7.0,110.0
10782,65.0,3,45,12.0,100.0
10783,60.0,1,345,8.0,110.0
10784,72.0,1,360,6.0,113.0
10785,60.0,0,360,6.0,113.0
10786,41.0,2,120,15.0,115.0
10787,85.0,55,45,10.0,100.0
10788,73.0,0,45,10.0,100.0
10789,69.0,1,45,11.0,100.0
10790,65.0,1,45,12.0,100.0
10791,41.0,3,165,13.0,100.0
10792,41.0,0,165,3.0,96.0
10793,41.0,0,165,14.0,100.0
10794,53.0,0,165,3.0,96.0
10795,81.0,0,60,0.0,93.0
10796,84.0,1,60,0.0,93.0
10797,53.0,0,60,6.0,85.0
10798,65.0,1,60,6.0,85.0
10799,60.0,0,60,7.0,100.0
10800,69.0,1,60,7.0,100.0
10801,81.0,0,60,1.0,92.0
10802,72.0,0,60,1.0,92.0
10803,72.0,1,60,2.0,93.0
10804,69.0,0,60,2.0,93.0
10805,53.0,1,60,8.0,100.0
10806,84.0,53,45,10.0,100.0
10807,72.0,0,45,10.0,100.0
10808,69.0,2,45,11.0,100.0
10809,60.0,0,225,4.0,94.0
10810,63.0,23,225,4.0,94.0
10811,63.0,3,45,12.0,100.0
10812,53.0,2,225,5.0,94.0
10813,65.0,0,225,5.0,94.0
10814,41.0,4,45,13.0,100.0
10815,41.0,0,45,14.0,100.0
10816,41.0,0,45,3.0,96.0
10817,53.0,0,45,3.0,96.0
10818,73.0,48,45,10.0,100.0
10819,85.0,0,45,10.0,100.0
10820,70.0,1,45,11.0,100.0
10821,65.0,1,45,12.0,100.0
10822,82.0,0,60,0.0,93.0
10823,85.0,1,60,0.0,93.0
10824,82.0,0,60,1.0,92.0
10825,73.0,2,60,1.0,92.0
10826,61.0,0,60,4.0,94.0
10827,58.0,0,60,4.0,94.0
10828,73.0,1,60,2.0,93.0
10829,70.0,0,60,2.0,93.0
10830,72.0,0,45,10.0,100.0
10831,84.0,48,45,10.0,100.0
10832,69.0,2,45,11.0,100.0
10833,63.0,3,45,12.0,100.0
10834,84.0,55,45,10.0,100.0
10835,72.0,0,45,10.0,100.0
10836,69.0,2,45,11.0,100.0
10837,63.0,3,45,12.0,100.0
10838,46.0,3,165,13.0,100.0
10839,34.0,0,165,3.0,96.0
10840,46.0,0,165,3.0,96.0
10841,34.0,0,165,14.0,100.0
10842,70.0,0,45,10.0,100.0
10843,82.0,55,45,10.0,100.0
10844,65.0,2,45,11.0,100.0
10845,61.0,3,45,12.0,100.0
10846,53.0,0,225,5.0,94.0
10847,65.0,0,225,5.0,94.0
10848,49.0,4,45,13.0,100.0
10849,37.0,0,45,14.0,100.0
10850,37.0,0,45,3.0,96.0
10851,49.0,0,45,3.0,96.0
10852,67.0,48,45,10.0,100.0
10853,79.0,0,45,10.0,100.0
10854,65.0,1,45,11.0,100.0
10855,58.0,1,45,12.0,100.0
10856,80.0,0,60,0.0,93.0
10857,89.0,1,60,0.0,93.0
10858,72.0,0,60,1.0,92.0
10859,80.0,2,60,1.0,92.0
10860,77.0,0,60,2.0,93.0
10861,68.0,0,60,2.0,93.0
10862,80.0,48,45,10.0,100.0
10863,68.0,0,45,10.0,100.0
10864,65.0,2,45,11.0,100.0
10865,60.0,3,45,12.0,100.0
10866,84.0,55,45,10.0,100.0
10867,72.0,0,45,10.0,100.0
10868,68.0,2,45,11.0,100.0
10869,65.0,3,45,12.0,100.0
10870,53.0,3,165,13.0,100.0
10871,41.0,0,165,3.0,96.0
10872,53.0,0,165,3.0,96.0
10873,41.0,3,165,14.0,100.0
10874,77.0,0,45,10.0,100.0
10875,89.0,55,45,10.0,100.0
10876,72.0,2,45,11.0,100.0
10877,60.0,3,45,12.0,100.0
10878,56.0,0,225,5.0,94.0
10879,65.0,1,225,5.0,94.0
10880,56.0,4,45,13.0,100.0
10881,44.0,0,45,3.0,96.0
10882,53.0,0,45,3.0,96.0
10883,56.0,3,45,3.0,96.0
10884,44.0,0,45,14.0,100.0
10885,60.0,0,45,5.0,94.0
10886,67.0,1,45,5.0,94.0
10887,48.0,52,45,4.0,94.0
10888,60.0,0,45,4.0,94.0
10889,60.0,2,45,5.0,94.0
10890,76.0,0,140,10.0,100.0
10891,88.0,48,140,10.0,100.0
10892,67.0,1,140,11.0,100.0
10893,76.0,0,140,11.0,100.0
10894,60.0,1,140,12.0,100.0
10895,48.0,3,140,13.0,100.0
10896,36.0,0,140,14.0,100.0
10897,36.0,3,140,3.0,96.0
10898,72.0,54,45,10.0,100.0
10899,84.0,0,45,10.0,100.0
10900,84.0,1,225,0.0,93.0
10901,76.0,0,225,0.0,93.0
10902,64.0,2,45,11.0,100.0
10903,76.0,2,225,1.0,92.0
10904,67.0,0,225,1.0,92.0
10905,55.0,3,45,12.0,100.0
10906,64.0,0,225,2.0,93.0
10907,72.0,0,225,2.0,93.0
10908,60.0,4,45,13.0,100.0
10909,48.0,0,45,3.0,96.0
10910,52.0,0,225,3.0,96.0
10911,48.0,3,45,14.0,100.0
10912,55.0,0,225,3.0,96.0
10913,48.0,58,165,4.0,94.0
10914,60.0,0,165,4.0,94.0
10915,60.0,2,165,5.0,94.0
10916,60.0,52,45,4.0,94.0
10917,48.0,0,45,4.0,94.0
10918,60.0,2,45,5.0,94.0
10919,85.0,0,155,10.0,100.0
10920,73.0,48,155,10.0,100.0
10921,65.0,1,155,11.0,100.0
10922,56.0,1,155,12.0,100.0
10923,60.0,3,155,13.0,100.0
10924,48.0,0,155,3.0,96.0
10925,48.0,0,155,14.0,100.0
10926,85.0,54,45,10.0,100.0
10927,73.0,0,45,10.0,100.0
10928,85.0,1,225,0.0,93.0
10929,77.0,0,225,0.0,93.0
10930,65.0,2,45,11.0,100.0
10931,77.0,0,225,1.0,92.0
10932,68.0,2,225,1.0,92.0
10933,56.0,3,45,12.0,100.0
10934,65.0,0,225,2.0,93.0
10935,73.0,1,225,2.0,93.0
10936,60.0,4,45,13.0,100.0
10937,56.0,0,225,3.0,96.0
10938,48.0,3,45,14.0,100.0
10939,48.0,0,45,3.0,96.0
10940,53.0,3,225,3.0,96.0
10941,60.0,0,165,4.0,94.0
10942,48.0,58,165,4.0,94.0
10943,60.0,2,165,5.0,94.0
10944,48.0,52,45,4.0,94.0
10945,60.0,0,45,4.0,94.0
10946,60.0,2,45,5.0,94.0
10947,86.0,0,155,10.0,100.0
10948,74.0,48,155,10.0,100.0
10949,66.0,1,155,11.0,100.0
10950,57.0,1,155,12.0,100.0
10951,60.0,3,155,13.0,100.0
10952,48.0,0,155,3.0,96.0
10953,48.0,3,155,14.0,100.0
10954,86.0,0,45,10.0,100.0
10955,74.0,54,45,10.0,100.0
10956,78.0,0,225,0.0,93.0
10957,86.0,1,225,0.0,93.0
10958,66.0,2,45,11.0,100.0
10959,69.0,2,225,1.0,92.0
10960,78.0,0,225,1.0,92.0
10961,57.0,3,45,12.0,100.0
10962,66.0,1,225,2.0,93.0
10963,74.0,0,225,2.0,93.0
10964,60.0,4,45,13.0,100.0
10965,48.0,3,45,3.0,96.0
10966,48.0,0,45,14.0,100.0
10967,54.0,0,225,3.0,96.0
10968,57.0,0,225,3.0,96.0
10969,60.0,58,165,4.0,94.0
10970,48.0,0,165,4.0,94.0
10971,60.0,2,165,5.0,94.0
10972,60.0,0,45,4.0,94.0
10973,48.0,52,45,4.0,94.0
10974,60.0,2,45,5.0,94.0
10975,75.0,0,155,10.0,100.0
10976,87.0,48,155,10.0,100.0
10977,67.0,1,155,11.0,100.0
10978,58.0,1,155,12.0,100.0
10979,60.0,3,155,13.0,100.0
10980,48.0,0,155,3.0,96.0
10981,48.0,0,155,14.0,100.0
10982,75.0,0,45,10.0,100.0
10983,87.0,54,45,10.0,100.0
10984,87.0,1,225,0.0,93.0
10985,79.0,0,225,0.0,93.0
10986,67.0,2,45,11.0,100.0
10987,79.0,0,225,1.0,92.0
10988,70.0,2,225,1.0,92.0
10989,60.0,58,105,4.0,94.0
10990,48.0,0,105,4.0,94.0
10991,58.0,3,45,12.0,100.0
10992,75.0,0,225,2.0,93.0
10993,60.0,2,105,5.0,94.0
10994,67.0,1,225,2.0,93.0
10995,60.0,4,45,13.0,100.0
10996,58.0,3,225,3.0,96.0
10997,55.0,0,225,3.0,96.0
10998,48.0,3,45,3.0,96.0
10999,48.0,0,45,14.0,100.0
11000,76.0,1,30,11.0,100.0
11001,68.0,0,30,11.0,100.0
11002,59.0,1,30,12.0,100.0
11003,68.0,0,30,12.0,100.0
11004,68.0,30,30,11.0,100.0
11005,76.0,0,30,11.0,100.0
11006,59.0,3,30,12.0,100.0
11007,68.0,0,30,12.0,100.0
11008,64.0,19,30,4.0,94.0
11009,56.0,2,30,5.0,94.0
11010,68.0,0,30,5.0,94.0
11011,68.0,0,30,11.0,100.0
11012,76.0,16,30,11.0,100.0
11013,68.0,3,30,12.0,100.0
11014,59.0,0,30,12.0,100.0
11015,68.0,37,30,11.0,100.0
11016,76.0,0,30,11.0,100.0
11017,64.0,2,30,4.0,94.0
11018,59.0,1,30,12.0,100.0
11019,68.0,0,30,12.0,100.0
11020,56.0,0,30,5.0,94.0
11021,68.0,1,30,5.0,94.0
11022,88.0,0,165,0.0,93.0
11023,80.0,1,165,0.0,93.0
11024,68.0,0,165,1.0,92.0
11025,76.0,0,165,1.0,92.0
11026,68.0,1,165,2.0,93.0
11027,76.0,0,165,2.0,93.0
11028,59.0,0,165,3.0,96.0
11029,56.0,0,165,3.0,96.0
11030,76.0,0,30,11.0,100.0
11031,68.0,36,30,11.0,100.0
11032,59.0,3,30,12.0,100.0
11033,68.0,0,30,12.0,100.0
11034,64.0,0,30,4.0,94.0
11035,56.0,0,30,5.0,94.0
11036,68.0,0,30,5.0,94.0
11037,88.0,48,225,10.0,115.0
11038,76.0,0,225,10.0,115.0
11039,80.0,0,45,0.0,93.0
11040,88.0,16,45,0.0,93.0
11041,56.0,0,225,7.0,100.0
11042,76.0,0,45,1.0,92.0
11043,64.0,2,225,7.0,100.0
11044,68.0,3,45,1.0,92.0
11045,76.0,0,45,2.0,93.0
11046,68.0,2,45,2.0,93.0
11047,47.0,1,225,8.0,100.0
11048,68.0,10,30,11.0,100.0
11049,76.0,0,30,11.0,100.0
11050,59.0,2,225,13.0,115.0
11051,59.0,3,30,12.0,100.0
11052,68.0,0,30,12.0,100.0
11053,56.0,0,45,3.0,96.0
11054,47.0,3,225,14.0,115.0
11055,47.0,0,225,3.0,111.0
11056,59.0,6,45,3.0,96.0
11057,77.0,1,30,11.0,100.0
11058,68.0,0,30,11.0,100.0
11059,62.0,1,30,12.0,100.0
11060,65.0,0,30,12.0,100.0
11061,68.0,30,30,11.0,100.0
11062,77.0,0,30,11.0,100.0
11063,62.0,3,30,12.0,100.0
11064,65.0,0,30,12.0,100.0
11065,77.0,0,30,11.0,100.0
11066,68.0,37,30,11.0,100.0
11067,65.0,3,30,12.0,100.0
11068,62.0,0,30,12.0,100.0
11069,68.0,37,30,11.0,100.0
11070,77.0,0,30,11.0,100.0
11071,65.0,0,30,12.0,100.0
11072,62.0,3,30,12.0,100.0
11073,89.0,0,165,0.0,93.0
11074,86.0,1,165,0.0,93.0
11075,77.0,0,165,1.0,92.0
11076,74.0,2,165,1.0,92.0
11077,68.0,0,165,2.0,93.0
11078,77.0,1,165,2.0,93.0
11079,53.0,0,165,3.0,96.0
11080,62.0,3,165,3.0,96.0
11081,68.0,37,30,11.0,100.0
11082,77.0,0,30,11.0,100.0
11083,62.0,3,30,12.0,100.0
11084,65.0,0,30,12.0,100.0
11085,77.0,0,225,10.0,115.0
11086,89.0,35,225,10.0,115.0
11087,86.0,0,45,0.0,93.0
11088,89.0,16,45,0.0,93.0
11089,56.0,0,225,7.0,100.0
11090,65.0,0,225,7.0,100.0
11091,74.0,0,45,1.0,92.0
11092,77.0,3,45,1.0,92.0
11093,77.0,2,45,2.0,93.0
11094,68.0,0,45,2.0,93.0
11095,68.0,0,30,11.0,100.0
11096,46.0,1,225,8.0,100.0
11097,77.0,10,30,11.0,100.0
11098,58.0,2,225,13.0,115.0
11099,65.0,0,30,12.0,100.0
11100,62.0,3,30,12.0,100.0
11101,46.0,0,225,3.0,111.0
11102,62.0,6,45,3.0,96.0
11103,53.0,0,45,3.0,96.0
11104,46.0,0,225,14.0,115.0
11105,62.0,0,240,4.0,94.0
11106,65.0,0,240,4.0,94.0
11107,68.0,0,240,5.0,94.0
11108,56.0,0,240,5.0,94.0
11109,78.0,0,30,11.0,100.0
11110,70.0,1,30,11.0,100.0
11111,63.0,0,30,12.0,100.0
11112,66.0,1,30,12.0,100.0
11113,70.0,0,30,11.0,100.0
11114,78.0,30,30,11.0,100.0
11115,63.0,0,30,12.0,100.0
11116,66.0,3,30,12.0,100.0
11117,63.0,19,30,4.0,94.0
11118,66.0,0,30,4.0,94.0
11119,63.0,2,30,5.0,94.0
11120,78.0,16,30,11.0,100.0
11121,70.0,0,30,11.0,100.0
11122,63.0,3,30,12.0,100.0
11123,66.0,0,30,12.0,100.0
11124,70.0,0,30,11.0,100.0
11125,78.0,37,30,11.0,100.0
11126,66.0,2,30,4.0,94.0
11127,63.0,0,30,4.0,94.0
11128,63.0,1,30,12.0,100.0
11129,66.0,0,30,12.0,100.0
11130,63.0,1,30,5.0,94.0
11131,90.0,1,165,0.0,93.0
11132,87.0,0,165,0.0,93.0
11133,75.0,0,165,1.0,92.0
11134,78.0,0,165,1.0,92.0
11135,78.0,1,165,2.0,93.0
11136,70.0,0,165,2.0,93.0
11137,58.0,0,165,3.0,96.0
11138,54.0,0,165,3.0,96.0
11139,70.0,36,30,11.0,100.0
11140,78.0,0,30,11.0,100.0
11141,63.0,0,30,12.0,100.0
11142,66.0,3,30,12.0,100.0
11143,66.0,0,30,4.0,94.0
11144,63.0,0,30,4.0,94.0
11145,63.0,0,30,5.0,94.0
11146,78.0,0,225,10.0,115.0
11147,90.0,35,225,10.0,115.0
11148,90.0,0,45,0.0,93.0
11149,87.0,16,45,0.0,93.0
11150,66.0,2,225,7.0,100.0
11151,58.0,0,225,7.0,100.0
11152,78.0,0,45,1.0,92.0
11153,75.0,3,45,1.0,92.0
11154,78.0,2,45,2.0,93.0
11155,70.0,0,45,2.0,93.0
11156,70.0,10,30,11.0,100.0
11157,78.0,0,30,11.0,100.0
11158,51.0,1,225,8.0,100.0
11159,63.0,2,225,13.0,115.0
11160,63.0,3,30,12.0,100.0
11161,66.0,0,30,12.0,100.0
11162,58.0,0,45,3.0,96.0
11163,54.0,6,45,3.0,96.0
11164,51.0,0,225,14.0,115.0
11165,51.0,3,225,3.0,111.0
11166,79.0,1,30,11.0,100.0
11167,70.0,0,30,11.0,100.0
11168,67.0,0,30,12.0,100.0
11169,64.0,1,30,12.0,100.0
11170,79.0,0,30,11.0,100.0
11171,70.0,30,30,11.0,100.0
11172,64.0,3,30,12.0,100.0
11173,67.0,0,30,12.0,100.0
11174,79.0,37,30,11.0,100.0
11175,70.0,0,30,11.0,100.0
11176,67.0,3,30,12.0,100.0
11177,64.0,0,30,12.0,100.0
11178,79.0,37,30,11.0,100.0
11179,70.0,0,30,11.0,100.0
11180,64.0,0,30,12.0,100.0
11181,67.0,3,30,12.0,100.0
11182,88.0,0,165,0.0,93.0
11183,91.0,1,165,0.0,93.0
11184,72.0,0,165,6.0,103.0
11185,60.0,1,165,6.0,103.0
11186,76.0,0,165,1.0,92.0
11187,79.0,1,165,1.0,92.0
11188,79.0,0,165,2.0,93.0
11189,70.0,0,165,2.0,93.0
11190,55.0,0,165,3.0,96.0
11191,64.0,3,165,3.0,96.0
11192,70.0,0,30,11.0,100.0
11193,79.0,37,30,11.0,100.0
11194,64.0,3,30,12.0,100.0
11195,67.0,0,30,12.0,100.0
11196,79.0,35,225,10.0,115.0
11197,91.0,0,225,10.0,115.0
11198,91.0,0,45,0.0,93.0
11199,88.0,16,45,0.0,93.0
11200,60.0,0,45,6.0,103.0
11201,72.0,2,45,6.0,103.0
11202,67.0,0,225,7.0,100.0
11203,79.0,1,45,1.0,92.0
11204,58.0,0,225,7.0,100.0
11205,76.0,0,45,1.0,92.0
11206,79.0,0,45,2.0,93.0
11207,70.0,2,45,2.0,93.0
11208,70.0,10,30,11.0,100.0
11209,79.0,0,30,11.0,100.0
11210,48.0,1,225,8.0,100.0
11211,60.0,2,225,13.0,115.0
11212,64.0,3,30,12.0,100.0
11213,67.0,0,30,12.0,100.0
11214,55.0,0,45,3.0,96.0
11215,48.0,0,225,14.0,115.0
11216,48.0,0,225,3.0,111.0
11217,64.0,6,45,3.0,96.0
11218,67.0,0,240,4.0,94.0
11219,64.0,0,240,4.0,94.0
11220,60.0,1,240,5.0,94.0
11221,68.0,1,23,11.0,100.0
11222,80.0,0,23,11.0,100.0
11223,92.0,0,60,10.0,100.0
11224,80.0,35,60,10.0,100.0
11225,92.0,0,60,0.0,93.0
11226,84.0,1,60,0.0,93.0
11227,60.0,0,60,7.0,100.0
11228,56.0,1,60,7.0,100.0
11229,60.0,0,60,12.0,100.0
11230,68.0,1,60,12.0,100.0
11231,68.0,0,60,5.0,94.0
11232,53.0,1,60,8.0,100.0
11233,65.0,50,45,11.0,100.0
11234,65.0,1,105,6.0,103.0
11235,77.0,0,105,6.0,103.0
11236,65.0,2,105,13.0,100.0
11237,60.0,0,165,4.0,94.0
11238,65.0,0,165,4.0,94.0
11239,53.0,1,165,5.0,94.0
11240,56.0,3,45,13.0,100.0
11241,53.0,0,165,3.0,96.0
11242,53.0,0,165,14.0,100.0
11243,60.0,1,105,11.0,100.0
11244,72.0,0,225,1.0,92.0
11245,65.0,55,45,4.0,94.0
11246,60.0,0,45,4.0,94.0
11247,80.0,0,225,1.0,92.0
11248,68.0,0,225,2.0,93.0
11249,53.0,2,45,5.0,94.0
11250,72.0,0,225,2.0,93.0
11251,53.0,3,45,13.0,100.0
11252,56.0,0,225,3.0,96.0
11253,53.0,3,45,3.0,96.0
11254,53.0,0,45,14.0,100.0
11255,60.0,3,225,3.0,96.0
11256,72.0,50,45,11.0,100.0
11257,80.0,58,225,10.0,115.0
11258,92.0,0,225,10.0,115.0
11259,92.0,1,225,0.0,108.0
11260,68.0,50,45,11.0,100.0
11261,68.0,3,225,12.0,115.0
11262,68.0,1,225,5.0,109.0
11263,48.0,3,105,13.0,100.0
11264,79.0,0,30,10.0,100.0
11265,91.0,58,30,10.0,100.0
11266,91.0,1,30,0.0,93.0
11267,67.0,3,30,12.0,100.0
11268,67.0,1,30,5.0,94.0
11269,72.0,1,165,6.0,103.0
11270,65.0,0,165,6.0,103.0
11271,60.0,1,165,4.0,94.0
11272,56.0,0,165,5.0,94.0
11273,60.0,3,45,13.0,100.0
11274,44.0,0,165,14.0,100.0
11275,44.0,0,165,3.0,96.0
11276,56.0,3,165,3.0,96.0
11277,89.0,51,30,10.0,100.0
11278,77.0,0,30,10.0,100.0
11279,89.0,1,30,0.0,93.0
11280,65.0,1,30,12.0,100.0
11281,65.0,0,30,5.0,94.0
11282,65.0,1,105,11.0,100.0
11283,65.0,2,45,6.0,103.0
11284,72.0,0,45,6.0,103.0
11285,79.0,0,225,1.0,92.0
11286,60.0,1,45,4.0,94.0
11287,72.0,0,225,1.0,92.0
11288,56.0,1,45,5.0,94.0
11289,65.0,0,225,2.0,93.0
11290,72.0,2,225,2.0,93.0
11291,56.0,3,45,13.0,100.0
11292,44.0,3,45,14.0,100.0
11293,56.0,0,45,3.0,96.0
11294,44.0,0,45,3.0,96.0
11295,74.0,1,45,11.0,100.0
11296,92.0,48,60,10.0,100.0
11297,80.0,0,60,10.0,100.0
11298,92.0,1,60,0.0,93.0
11299,68.0,1,60,12.0,100.0
11300,68.0,1,60,5.0,94.0
11301,68.0,50,45,11.0,100.0
11302,53.0,3,105,13.0,100.0
11303,77.0,1,165,6.0,103.0
11304,65.0,0,165,6.0,103.0
11305,65.0,0,165,4.0,94.0
11306,62.0,1,165,4.0,94.0
11307,53.0,0,165,5.0,94.0
11308,62.0,3,45,13.0,100.0
11309,47.0,0,165,3.0,96.0
11310,47.0,0,165,14.0,100.0
11311,59.0,3,165,3.0,96.0
11312,65.0,1,105,11.0,100.0
11313,65.0,0,45,6.0,103.0
11314,77.0,54,45,6.0,103.0
11315,74.0,0,225,1.0,92.0
11316,77.0,0,225,1.0,92.0
11317,65.0,1,45,4.0,94.0
11318,62.0,0,45,4.0,94.0
11319,53.0,2,45,5.0,94.0
11320,65.0,0,225,2.0,93.0
11321,74.0,0,225,2.0,93.0
11322,56.0,3,45,13.0,100.0
11323,47.0,0,45,3.0,96.0
11324,47.0,0,45,14.0,100.0
11325,59.0,0,45,3.0,96.0
11326,77.0,50,45,11.0,100.0
11327,92.0,58,225,10.0,115.0
11328,80.0,0,225,10.0,115.0
11329,92.0,1,225,0.0,108.0
11330,74.0,50,45,11.0,100.0
11331,68.0,3,225,12.0,115.0
11332,68.0,1,225,5.0,109.0
11333,91.0,0,30,10.0,100.0
11334,79.0,58,30,10.0,100.0
11335,91.0,1,30,0.0,93.0
11336,67.0,3,30,12.0,100.0
11337,67.0,1,30,5.0,94.0
11338,68.0,1,165,6.0,103.0
11339,65.0,0,165,6.0,103.0
11340,59.0,0,165,4.0,94.0
11341,65.0,1,165,4.0,94.0
11342,56.0,0,165,5.0,94.0
11343,53.0,3,165,13.0,100.0
11344,38.0,0,165,3.0,96.0
11345,50.0,0,165,3.0,96.0
11346,38.0,0,165,14.0,100.0
11347,89.0,0,30,10.0,100.0
11348,77.0,54,30,10.0,100.0
11349,89.0,1,30,0.0,93.0
11350,65.0,1,30,12.0,100.0
11351,65.0,1,30,5.0,94.0
11352,68.0,1,105,11.0,100.0
11353,68.0,0,45,6.0,103.0
11354,65.0,2,45,6.0,103.0
11355,59.0,0,45,4.0,94.0
11356,65.0,1,45,4.0,94.0
11357,71.0,0,225,1.0,92.0
11358,77.0,0,225,1.0,92.0
11359,65.0,2,225,2.0,93.0
11360,56.0,0,45,5.0,94.0
11361,71.0,0,225,2.0,93.0
11362,50.0,3,45,13.0,100.0
11363,50.0,0,45,3.0,96.0
11364,38.0,0,45,14.0,100.0
11365,38.0,0,45,3.0,96.0
11366,84.0,0,60,10.0,100.0
11367,96.0,48,60,10.0,100.0
11368,91.0,1,60,0.0,93.0
11369,77.0,1,60,11.0,100.0
11370,68.0,0,60,11.0,100.0
11371,77.0,1,60,6.0,103.0
11372,68.0,0,60,6.0,103.0
11373,80.0,0,60,1.0,92.0
11374,72.0,1,60,1.0,92.0
11375,60.0,0,60,4.0,94.0
11376,77.0,1,60,12.0,100.0
11377,65.0,0,60,2.0,93.0
11378,65.0,1,60,5.0,94.0
11379,68.0,0,60,5.0,94.0
11380,72.0,0,60,2.0,93.0
11381,48.0,3,60,13.0,100.0
11382,36.0,0,60,3.0,96.0
11383,36.0,0,60,14.0,100.0
11384,48.0,0,60,3.0,96.0
11385,60.0,1,95,12.0,125.0
11386,60.0,2,100,4.0,94.0
11387,60.0,3,95,13.0,125.0
11388,60.0,0,95,3.0,121.0
11389,48.0,0,95,3.0,121.0
11390,48.0,0,95,14.0,125.0
11391,65.0,1,95,12.0,125.0
11392,61.0,4,95,13.0,125.0
11393,65.0,112,100,4.0,94.0
11394,84.0,108,225,10.0,115.0
11395,84.0,1,225,0.0,108.0
11396,80.0,0,225,0.0,108.0
11397,80.0,1,225,11.0,115.0
11398,49.0,0,95,14.0,125.0
11399,49.0,0,95,3.0,121.0
11400,61.0,0,95,3.0,121.0
11401,80.0,0,225,1.0,92.0
11402,84.0,0,225,1.0,92.0
11403,72.0,0,225,2.0,93.0
11404,80.0,1,225,2.0,93.0
11405,82.0,108,30,10.0,100.0
11406,79.0,0,30,0.0,93.0
11407,82.0,1,30,0.0,93.0
11408,79.0,1,30,11.0,100.0
11409,82.0,0,30,1.0,92.0
11410,79.0,2,30,1.0,92.0
11411,70.0,0,30,2.0,93.0
11412,79.0,1,30,2.0,93.0
11413,80.0,48,30,10.0,100.0
11414,80.0,0,30,0.0,93.0
11415,77.0,1,30,0.0,93.0
11416,77.0,1,30,11.0,100.0
11417,77.0,2,30,1.0,92.0
11418,80.0,0,30,1.0,92.0
11419,77.0,0,30,2.0,93.0
11420,68.0,2,30,2.0,93.0
11421,58.0,1,95,12.0,125.0
11422,62.0,3,95,13.0,125.0
11423,50.0,0,95,3.0,121.0
11424,62.0,0,95,3.0,121.0
11425,50.0,0,95,14.0,125.0
11426,80.0,54,30,10.0,100.0
11427,77.0,0,30,0.0,93.0
11428,80.0,1,30,0.0,93.0
11429,77.0,1,30,11.0,100.0
11430,80.0,2,30,1.0,92.0
11431,77.0,0,30,1.0,92.0
11432,77.0,1,30,2.0,93.0
11433,68.0,0,30,2.0,93.0
11434,79.0,48,30,10.0,100.0
11435,79.0,1,30,0.0,93.0
11436,75.0,0,30,0.0,93.0
11437,75.0,1,30,11.0,100.0
11438,79.0,0,30,1.0,92.0
11439,75.0,2,30,1.0,92.0
11440,72.0,2,30,2.0,93.0
11441,75.0,0,30,2.0,93.0
11442,70.0,1,95,12.0,125.0
11443,63.0,3,95,13.0,125.0
11444,58.0,0,220,4.0,94.0
11445,51.0,0,95,3.0,121.0
11446,63.0,0,95,3.0,121.0
11447,51.0,0,95,14.0,125.0
11448,84.0,54,85,10.0,115.0
11449,84.0,1,85,0.0,108.0
11450,76.0,0,85,0.0,108.0
11451,76.0,1,85,11.0,115.0
11452,84.0,0,85,1.0,107.0
11453,76.0,0,85,1.0,107.0
11454,72.0,0,85,2.0,108.0
11455,76.0,0,85,2.0,108.0
11456,72.0,1,95,12.0,125.0
11457,64.0,2,100,4.0,94.0
11458,56.0,3,95,13.0,125.0
11459,72.0,1,100,5.0,94.0
11460,56.0,0,100,5.0,94.0
11461,44.0,0,95,3.0,121.0
11462,44.0,0,95,14.0,125.0
11463,56.0,3,95,3.0,121.0
11464,82.0,108,85,10.0,115.0
11465,82.0,0,85,0.0,108.0
11466,77.0,1,85,0.0,108.0
11467,77.0,1,85,11.0,115.0
11468,82.0,0,85,1.0,107.0
11469,77.0,2,85,1.0,107.0
11470,70.0,0,85,2.0,108.0
11471,77.0,1,85,2.0,108.0
11472,70.0,1,95,12.0,125.0
11473,65.0,0,100,4.0,94.0
11474,61.0,3,95,13.0,125.0
11475,65.0,0,100,5.0,94.0
11476,70.0,0,100,5.0,94.0
11477,49.0,0,95,14.0,125.0
11478,61.0,3,95,3.0,121.0
11479,49.0,0,95,3.0,121.0
11480,80.0,108,85,10.0,115.0
11481,80.0,0,85,0.0,108.0
11482,86.0,1,85,0.0,108.0
11483,74.0,1,85,11.0,115.0
11484,80.0,2,85,1.0,107.0
11485,74.0,0,85,1.0,107.0
11486,68.0,0,85,2.0,108.0
11487,73.0,0,85,2.0,108.0
11488,65.0,1,95,12.0,125.0
11489,62.0,0,100,4.0,94.0
11490,59.0,3,95,13.0,125.0
11491,68.0,1,100,5.0,94.0
11492,53.0,0,100,5.0,94.0
11493,47.0,3,95,14.0,125.0
11494,47.0,0,95,3.0,121.0
11495,59.0,0,95,3.0,121.0
11496,48.0,2,30,15.0,115.0
11497,48.0,30,0,15.0,97.0
11498,48.0,30,0,15.0,93.0
11499,48.0,30,0,15.0,90.0
11500,48.0,30,0,15.0,90.0
11501,80.0,108,165,10.0,100.0
11502,76.0,1,165,11.0,100.0
11503,70.0,1,180,12.0,125.0
11504,48.0,6,0,15.0,90.0
11505,79.0,19,45,10.0,100.0
11506,88.0,1,225,0.0,93.0
11507,82.0,0,225,0.0,93.0
11508,67.0,2,45,11.0,100.0
11509,82.0,0,225,1.0,92.0
11510,76.0,0,225,1.0,92.0
11511,64.0,3,45,12.0,100.0
11512,76.0,0,225,2.0,93.0
11513,70.0,0,225,2.0,93.0
11514,60.0,2,225,13.0,100.0
11515,60.0,1,225,3.0,96.0
11516,48.0,0,225,3.0,96.0
11517,48.0,0,225,14.0,100.0
11518,60.0,1,240,6.0,103.0
11519,72.0,0,240,6.0,103.0
11520,70.0,0,240,7.0,100.0
11521,64.0,0,240,7.0,100.0
11522,64.0,0,240,4.0,94.0
11523,60.0,1,0,4.0,94.0
11524,70.0,1,240,5.0,94.0
11525,48.0,0,240,5.0,94.0
11526,48.0,1,240,8.0,100.0
11527,48.0,30,30,15.0,90.0
11528,76.0,19,30,10.0,100.0
11529,76.0,1,30,11.0,100.0
11530,64.0,1,30,12.0,100.0
11531,77.0,48,30,10.0,100.0
11532,77.0,2,30,11.0,100.0
11533,65.0,3,30,12.0,100.0
11534,80.0,1,120,0.0,93.0
11535,84.0,0,120,0.0,93.0
11536,53.0,0,120,6.0,103.0
11537,65.0,1,120,6.0,103.0
11538,72.0,0,120,1.0,92.0
11539,65.0,0,120,7.0,100.0
11540,68.0,0,120,7.0,100.0
11541,80.0,0,120,1.0,92.0
11542,68.0,0,120,5.0,94.0
11543,72.0,1,120,2.0,93.0
11544,53.0,0,120,5.0,94.0
11545,68.0,0,120,2.0,93.0
11546,53.0,1,120,8.0,100.0
11547,41.0,2,120,15.0,110.0
11548,80.0,55,30,10.0,100.0
11549,80.0,2,30,11.0,100.0
11550,68.0,3,30,12.0,100.0
11551,65.0,2,165,13.0,115.0
11552,65.0,0,165,3.0,111.0
11553,53.0,0,165,3.0,111.0
11554,53.0,1,165,14.0,115.0
11555,85.0,55,30,10.0,115.0
11556,77.0,2,30,11.0,115.0
11557,61.0,2,30,4.0,94.0
11558,73.0,1,30,12.0,115.0
11559,53.0,1,30,5.0,94.0
11560,65.0,0,30,5.0,94.0
11561,61.0,3,30,13.0,115.0
11562,49.0,0,30,14.0,115.0
11563,61.0,3,30,3.0,111.0
11564,49.0,0,30,3.0,111.0
11565,72.0,48,30,10.0,100.0
11566,72.0,2,30,11.0,100.0
11567,60.0,3,30,12.0,100.0
11568,73.0,55,30,10.0,100.0
11569,73.0,2,30,11.0,100.0
11570,61.0,3,30,12.0,100.0
11571,77.0,55,30,10.0,100.0
11572,77.0,2,30,11.0,100.0
11573,65.0,3,30,12.0,100.0
11574,82.0,55,30,10.0,115.0
11575,73.0,2,30,11.0,115.0
11576,58.0,0,30,4.0,94.0
11577,61.0,2,30,4.0,94.0
11578,70.0,1,30,12.0,115.0
11579,65.0,1,30,5.0,94.0
11580,58.0,3,30,13.0,115.0
11581,46.0,0,30,14.0,115.0
11582,46.0,0,30,3.0,111.0
11583,58.0,0,30,3.0,111.0
11584,69.0,48,30,10.0,100.0
11585,69.0,2,30,11.0,100.0
11586,57.0,3,30,12.0,100.0
11587,70.0,55,30,10.0,100.0
11588,70.0,2,30,11.0,100.0
11589,58.0,3,30,12.0,100.0
11590,73.0,55,30,10.0,100.0
11591,73.0,2,30,11.0,100.0
11592,61.0,3,30,12.0,100.0
11593,78.0,55,30,10.0,115.0
11594,70.0,2,30,11.0,115.0
11595,58.0,2,30,4.0,94.0
11596,66.0,1,30,12.0,115.0
11597,66.0,1,30,5.0,94.0
11598,54.0,3,30,13.0,115.0
11599,42.0,3,30,14.0,115.0
11600,42.0,0,30,3.0,111.0
11601,54.0,0,30,3.0,111.0
11602,70.0,48,30,10.0,100.0
11603,70.0,2,30,11.0,100.0
11604,58.0,3,30,12.0,100.0
11605,77.0,55,30,10.0,100.0
11606,67.0,2,30,11.0,100.0
11607,61.0,2,30,4.0,94.0
11608,58.0,0,30,4.0,94.0
11609,55.0,0,30,12.0,100.0
11610,65.0,1,30,12.0,100.0
11611,65.0,1,30,5.0,94.0
11612,67.0,0,30,5.0,94.0
11613,49.0,3,30,13.0,100.0
11614,37.0,0,30,3.0,96.0
11615,49.0,3,30,3.0,96.0
11616,37.0,0,30,14.0,100.0
11617,70.0,48,30,10.0,100.0
11618,70.0,2,30,11.0,100.0
11619,58.0,3,30,12.0,100.0
11620,76.0,55,30,10.0,100.0
11621,67.0,2,30,11.0,100.0
11622,58.0,2,30,4.0,94.0
11623,61.0,0,30,4.0,94.0
11624,55.0,1,30,12.0,100.0
11625,64.0,0,30,12.0,100.0
11626,65.0,1,30,5.0,94.0
11627,67.0,0,30,5.0,94.0
11628,46.0,3,30,13.0,100.0
11629,34.0,0,30,3.0,96.0
11630,34.0,3,30,14.0,100.0
11631,46.0,0,30,3.0,96.0
11632,76.0,48,30,10.0,100.0
11633,76.0,2,30,11.0,100.0
11634,64.0,1,30,12.0,100.0
11635,77.0,48,30,10.0,100.0
11636,77.0,2,30,11.0,100.0
11637,65.0,3,30,12.0,100.0
11638,80.0,55,30,10.0,100.0
11639,80.0,2,30,11.0,100.0
11640,68.0,3,30,12.0,100.0
11641,60.0,2,180,4.0,81.0
11642,60.0,1,180,5.0,81.0
11643,68.0,0,180,5.0,81.0
11644,53.0,3,180,13.0,100.0
11645,41.0,0,180,3.0,96.0
11646,53.0,0,180,3.0,96.0
11647,41.0,0,180,14.0,100.0
11648,85.0,55,30,10.0,115.0
11649,77.0,2,30,11.0,115.0
11650,61.0,2,30,4.0,81.0
11651,73.0,1,30,12.0,115.0
11652,65.0,0,30,5.0,81.0
11653,53.0,1,30,5.0,81.0
11654,49.0,3,30,13.0,100.0
11655,37.0,0,30,3.0,96.0
11656,37.0,0,30,14.0,100.0
11657,49.0,0,30,3.0,96.0
11658,72.0,48,30,10.0,100.0
11659,72.0,2,30,11.0,100.0
11660,60.0,3,30,12.0,100.0
11661,73.0,55,30,10.0,100.0
11662,73.0,2,30,11.0,100.0
11663,61.0,3,30,12.0,100.0
11664,77.0,55,30,10.0,100.0
11665,77.0,2,30,11.0,100.0
11666,65.0,3,30,12.0,100.0
11667,82.0,55,30,10.0,115.0
11668,73.0,2,30,11.0,115.0
11669,61.0,0,30,4.0,94.0
11670,58.0,2,30,4.0,94.0
11671,70.0,1,30,12.0,115.0
11672,65.0,1,30,5.0,94.0
11673,58.0,3,30,13.0,115.0
11674,46.0,0,30,3.0,111.0
11675,46.0,0,30,14.0,115.0
11676,58.0,0,30,3.0,111.0
11677,69.0,48,30,10.0,100.0
11678,69.0,2,30,11.0,100.0
11679,57.0,3,30,12.0,100.0
11680,70.0,55,30,10.0,100.0
11681,70.0,2,30,11.0,100.0
11682,58.0,3,30,12.0,100.0
11683,73.0,55,30,10.0,100.0
11684,73.0,2,30,11.0,100.0
11685,61.0,3,30,12.0,100.0
11686,78.0,55,30,10.0,115.0
11687,70.0,2,30,11.0,115.0
11688,58.0,2,30,4.0,94.0
11689,66.0,1,30,12.0,115.0
11690,66.0,1,30,5.0,94.0
11691,54.0,3,30,13.0,115.0
11692,42.0,0,30,3.0,111.0
11693,54.0,0,30,3.0,111.0
11694,42.0,0,30,14.0,115.0
11695,70.0,48,30,10.0,100.0
11696,70.0,2,30,11.0,100.0
11697,58.0,3,30,12.0,100.0
11698,75.0,55,30,10.0,115.0
11699,66.0,2,30,11.0,115.0
11700,63.0,3,30,12.0,115.0
11701,51.0,4,30,13.0,100.0
11702,39.0,0,30,3.0,96.0
11703,39.0,0,30,14.0,100.0
11704,51.0,0,30,3.0,96.0
11705,66.0,48,30,10.0,100.0
11706,66.0,2,30,11.0,100.0
11707,54.0,3,30,12.0,100.0
11708,71.0,55,30,10.0,115.0
11709,63.0,2,30,11.0,115.0
11710,59.0,3,30,12.0,115.0
11711,47.0,4,30,13.0,100.0
11712,47.0,0,30,3.0,96.0
11713,35.0,0,30,3.0,96.0
11714,35.0,3,30,14.0,100.0
11715,63.0,48,30,10.0,100.0
11716,63.0,2,30,11.0,100.0
11717,51.0,3,30,12.0,100.0
11718,68.0,55,30,10.0,115.0
11719,59.0,2,30,11.0,115.0
11720,56.0,3,30,12.0,115.0
11721,44.0,4,30,13.0,100.0
11722,32.0,0,30,3.0,96.0
11723,32.0,3,30,14.0,100.0
11724,44.0,0,30,3.0,96.0
11725,59.0,48,30,10.0,100.0
11726,59.0,2,30,11.0,100.0
11727,59.0,3,30,12.0,100.0
11728,64.0,55,30,10.0,115.0
11729,55.0,2,30,11.0,115.0
11730,55.0,3,30,12.0,115.0
11731,40.0,4,30,13.0,100.0
11732,28.0,3,30,3.0,96.0
11733,40.0,0,30,3.0,96.0
11734,52.0,0,30,3.0,96.0
11735,28.0,0,30,14.0,100.0
11736,63.0,48,95,10.0,87.0
11737,59.0,1,95,11.0,87.0
11738,54.0,1,95,12.0,87.0
11739,47.0,3,95,13.0,87.0
11740,35.0,3,95,14.0,87.0
11741,35.0,0,95,3.0,83.0
11742,83.0,1,120,0.0,93.0
11743,71.0,0,120,1.0,92.0
11744,59.0,2,120,4.0,94.0
11745,71.0,1,120,2.0,93.0
11746,59.0,0,120,3.0,96.0
11747,82.0,109,60,0.0,93.0
11748,58.0,3,60,4.0,94.0
11749,70.0,0,60,1.0,92.0
11750,70.0,2,60,2.0,93.0
11751,58.0,6,60,3.0,96.0
11752,59.0,3,45,4.0,94.0
11753,83.0,49,50,0.0,93.0
11754,71.0,0,50,1.0,92.0
11755,71.0,2,50,2.0,93.0
11756,59.0,6,50,3.0,96.0
11757,60.0,3,100,4.0,94.0
11758,84.0,49,110,0.0,93.0
11759,72.0,0,110,1.0,92.0
11760,72.0,2,110,2.0,93.0
11761,60.0,6,110,3.0,96.0
11762,83.0,1,40,0.0,93.0
11763,71.0,2,40,1.0,92.0
11764,71.0,0,40,2.0,93.0
11765,59.0,1,40,2.0,93.0
11766,59.0,0,40,3.0,96.0
11767,71.0,108,60,10.0,100.0
11768,59.0,1,60,11.0,100.0
11769,59.0,1,60,12.0,100.0
11770,47.0,3,60,13.0,100.0
11771,35.0,3,60,14.0,100.0
11772,35.0,0,60,3.0,96.0
11773,85.0,29,40,0.0,93.0
11774,73.0,3,40,1.0,92.0
11775,73.0,2,40,2.0,93.0
11776,61.0,0,40,2.0,93.0
11777,61.0,6,40,3.0,96.0
11778,59.0,0,100,4.0,94.0
11779,87.0,29,40,0.0,93.0
11780,75.0,3,40,1.0,92.0
11781,63.0,2,40,2.0,93.0
11782,75.0,0,40,2.0,93.0
11783,63.0,6,40,3.0,96.0
11784,88.0,1,30,0.0,93.0
11785,76.0,2,30,1.0,92.0
11786,76.0,0,30,2.0,93.0
11787,64.0,1,30,2.0,93.0
11788,64.0,3,30,3.0,96.0
11789,83.0,29,40,0.0,93.0
11790,71.0,3,40,1.0,92.0
11791,71.0,2,40,2.0,93.0
11792,59.0,0,40,2.0,93.0
11793,59.0,6,40,3.0,96.0
11794,85.0,29,40,0.0,93.0
11795,73.0,3,40,1.0,92.0
11796,61.0,0,40,2.0,93.0
11797,73.0,2,40,2.0,93.0
11798,61.0,6,40,3.0,96.0
11799,87.0,29,40,0.0,93.0
11800,75.0,3,40,1.0,92.0
11801,75.0,2,40,2.0,93.0
11802,63.0,0,40,2.0,93.0
11803,63.0,6,40,3.0,96.0
11804,88.0,29,40,0.0,93.0
11805,76.0,3,40,1.0,92.0
11806,76.0,2,40,2.0,93.0
11807,64.0,0,40,2.0,93.0
11808,76.0,0,210,10.0,115.0
11809,67.0,28,210,10.0,115.0
11810,64.0,0,210,11.0,115.0
11811,55.0,1,210,11.0,115.0
11812,64.0,6,40,3.0,96.0
11813,59.0,0,210,12.0,115.0
11814,67.0,1,210,12.0,115.0
11815,52.0,3,210,13.0,115.0
11816,40.0,0,210,14.0,115.0
11817,40.0,0,210,3.0,111.0
11818,64.0,0,220,4.0,94.0
11819,55.0,0,220,4.0,94.0
11820,90.0,29,40,0.0,93.0
11821,78.0,3,40,1.0,92.0
11822,66.0,0,40,2.0,93.0
11823,78.0,2,40,2.0,93.0
11824,66.0,6,40,3.0,96.0
11825,91.0,1,30,0.0,93.0
11826,79.0,1,30,1.0,92.0
11827,79.0,0,30,2.0,93.0
11828,67.0,1,30,2.0,93.0
11829,67.0,3,30,3.0,96.0
11830,76.0,29,40,0.0,93.0
11831,76.0,3,40,1.0,92.0
11832,64.0,2,40,2.0,93.0
11833,76.0,0,40,2.0,93.0
11834,52.0,6,40,3.0,96.0
11835,78.0,29,40,0.0,93.0
11836,78.0,3,40,1.0,92.0
11837,66.0,2,40,2.0,93.0
11838,78.0,0,40,2.0,93.0
11839,54.0,6,40,3.0,96.0
11840,79.0,29,40,0.0,93.0
11841,79.0,3,40,1.0,92.0
11842,79.0,0,40,2.0,93.0
11843,67.0,2,40,2.0,93.0
11844,55.0,6,40,3.0,96.0
11845,81.0,29,40,0.0,93.0
11846,81.0,3,40,1.0,92.0
11847,81.0,2,40,2.0,93.0
11848,69.0,0,40,2.0,93.0
11849,79.0,0,210,10.0,115.0
11850,76.0,28,210,10.0,115.0
11851,57.0,6,40,3.0,96.0
11852,71.0,1,210,11.0,115.0
11853,67.0,0,210,11.0,115.0
11854,67.0,1,210,12.0,115.0
11855,64.0,0,210,12.0,115.0
11856,55.0,3,210,13.0,115.0
11857,43.0,0,210,14.0,115.0
11858,43.0,0,210,3.0,111.0
11859,79.0,1,220,6.0,103.0
11860,67.0,0,220,4.0,94.0
11861,64.0,0,220,4.0,94.0
11862,83.0,29,30,0.0,93.0
11863,83.0,3,30,1.0,92.0
11864,71.0,0,30,2.0,93.0
11865,83.0,2,30,2.0,93.0
11866,59.0,6,30,3.0,96.0
11867,84.0,28,30,10.0,100.0
11868,76.0,0,30,11.0,100.0
11869,70.0,1,30,11.0,100.0
11870,60.0,1,30,6.0,103.0
11871,72.0,0,30,6.0,103.0
11872,64.0,0,30,4.0,94.0
11873,67.0,0,30,4.0,94.0
11874,70.0,1,30,12.0,100.0
11875,67.0,0,30,12.0,100.0
11876,60.0,0,30,5.0,94.0
11877,48.0,0,30,5.0,94.0
11878,84.0,1,53,0.0,93.0
11879,84.0,1,53,1.0,92.0
11880,84.0,1,53,2.0,93.0
11881,72.0,0,53,2.0,93.0
11882,82.0,48,30,10.0,100.0
11883,76.0,2,30,11.0,100.0
11884,70.0,0,30,11.0,100.0
11885,72.0,1,30,6.0,103.0
11886,60.0,0,30,6.0,103.0
11887,67.0,1,30,4.0,94.0
11888,64.0,0,30,4.0,94.0
11889,67.0,0,30,12.0,100.0
11890,70.0,1,30,12.0,100.0
11891,60.0,0,30,5.0,94.0
11892,48.0,1,30,5.0,94.0
11893,60.0,3,105,13.0,100.0
11894,60.0,0,105,3.0,96.0
11895,48.0,3,105,14.0,100.0
11896,48.0,0,105,3.0,96.0
11897,59.0,63,45,13.0,100.0
11898,47.0,0,45,3.0,96.0
11899,59.0,3,45,3.0,96.0
11900,47.0,0,45,14.0,100.0
11901,60.0,57,45,13.0,100.0
11902,48.0,0,45,14.0,100.0
11903,48.0,0,45,3.0,96.0
11904,60.0,3,45,3.0,96.0
11905,80.0,48,30,10.0,100.0
11906,77.0,1,30,11.0,100.0
11907,68.0,0,30,11.0,100.0
11908,77.0,1,30,6.0,103.0
11909,68.0,0,30,4.0,94.0
11910,65.0,1,30,4.0,94.0
11911,65.0,0,30,12.0,100.0
11912,68.0,1,30,12.0,100.0
11913,53.0,0,30,5.0,94.0
11914,65.0,0,30,5.0,94.0
11915,80.0,0,53,0.0,93.0
11916,89.0,1,53,0.0,93.0
11917,80.0,0,53,1.0,92.0
11918,77.0,0,53,1.0,92.0
11919,77.0,1,53,2.0,93.0
11920,80.0,0,53,2.0,93.0
11921,77.0,48,30,10.0,100.0
11922,77.0,0,30,11.0,100.0
11923,68.0,2,30,11.0,100.0
11924,77.0,1,30,6.0,103.0
11925,68.0,1,30,4.0,94.0
11926,65.0,0,30,4.0,94.0
11927,68.0,0,30,12.0,100.0
11928,65.0,1,30,12.0,100.0
11929,53.0,0,30,5.0,94.0
11930,65.0,1,30,5.0,94.0
11931,61.0,3,105,13.0,100.0
11932,49.0,0,105,14.0,100.0
11933,61.0,0,105,3.0,96.0
11934,49.0,3,105,3.0,96.0
11935,60.0,63,45,13.0,100.0
11936,48.0,3,45,3.0,96.0
11937,48.0,0,45,14.0,100.0
11938,60.0,0,45,3.0,96.0
11939,61.0,57,45,13.0,100.0
11940,61.0,0,45,3.0,96.0
11941,49.0,3,45,3.0,96.0
11942,49.0,0,45,14.0,100.0
11943,85.0,48,30,10.0,100.0
11944,77.0,0,30,11.0,100.0
11945,73.0,1,30,11.0,100.0
11946,77.0,0,30,6.0,103.0
11947,65.0,1,30,6.0,103.0
11948,61.0,1,30,4.0,94.0
11949,65.0,1,30,12.0,100.0
11950,68.0,0,30,12.0,100.0
11951,68.0,0,30,5.0,94.0
11952,65.0,0,30,5.0,94.0
11953,65.0,3,45,13.0,100.0
11954,85.0,0,53,0.0,93.0
11955,80.0,1,53,0.0,93.0
11956,65.0,0,45,3.0,96.0
11957,53.0,0,45,14.0,100.0
11958,53.0,3,45,3.0,96.0
11959,73.0,0,53,1.0,92.0
11960,85.0,0,53,1.0,92.0
11961,80.0,0,53,2.0,93.0
11962,73.0,1,53,2.0,93.0
11963,84.0,48,30,10.0,100.0
11964,73.0,2,30,11.0,100.0
11965,77.0,0,30,11.0,100.0
11966,77.0,1,30,6.0,103.0
11967,65.0,0,30,6.0,103.0
11968,61.0,1,30,4.0,94.0
11969,65.0,1,30,12.0,100.0
11970,68.0,0,30,12.0,100.0
11971,68.0,1,30,5.0,94.0
11972,65.0,0,30,5.0,94.0
11973,68.0,3,45,13.0,100.0
11974,56.0,0,45,14.0,100.0
11975,56.0,3,45,3.0,96.0
11976,68.0,0,45,3.0,96.0
11977,67.0,57,45,13.0,100.0
11978,55.0,0,45,14.0,100.0
11979,55.0,0,45,3.0,96.0
11980,67.0,3,45,3.0,96.0
11981,65.0,57,45,13.0,100.0
11982,53.0,0,45,14.0,100.0
11983,53.0,0,45,3.0,96.0
11984,65.0,3,45,3.0,96.0
11985,82.0,48,30,10.0,100.0
11986,73.0,0,30,11.0,100.0
11987,70.0,1,30,11.0,100.0
11988,79.0,1,30,6.0,103.0
11989,58.0,1,30,4.0,94.0
11990,67.0,1,30,12.0,100.0
11991,70.0,0,30,12.0,100.0
11992,70.0,0,30,5.0,94.0
11993,67.0,0,30,5.0,94.0
11994,85.0,0,53,0.0,93.0
11995,82.0,1,53,0.0,93.0
11996,67.0,3,45,13.0,100.0
11997,73.0,0,53,1.0,92.0
11998,82.0,0,53,1.0,92.0
11999,55.0,0,45,14.0,100.0
12000,55.0,3,45,3.0,96.0
12001,67.0,0,45,3.0,96.0
12002,73.0,1,53,2.0,93.0
12003,82.0,0,53,2.0,93.0
12004,79.0,48,30,10.0,100.0
12005,70.0,2,30,11.0,100.0
12006,73.0,0,30,11.0,100.0
12007,79.0,1,30,6.0,103.0
12008,58.0,1,30,4.0,94.0
12009,70.0,1,30,12.0,100.0
12010,67.0,0,30,12.0,100.0
12011,70.0,0,30,5.0,94.0
12012,67.0,1,30,5.0,94.0
12013,65.0,3,45,13.0,100.0
12014,53.0,0,45,14.0,100.0
12015,53.0,3,45,3.0,96.0
12016,65.0,0,45,3.0,96.0
12017,63.0,57,45,13.0,100.0
12018,51.0,3,45,14.0,100.0
12019,51.0,0,45,3.0,96.0
12020,63.0,0,45,3.0,96.0
12021,61.0,57,45,13.0,100.0
12022,49.0,0,45,14.0,100.0
12023,61.0,3,45,3.0,96.0
12024,49.0,0,45,3.0,96.0
12025,87.0,48,30,10.0,100.0
12026,75.0,0,30,11.0,100.0
12027,81.0,1,30,11.0,100.0
12028,75.0,1,30,6.0,103.0
12029,60.0,0,30,4.0,94.0
12030,60.0,1,30,12.0,100.0
12031,69.0,0,30,12.0,100.0
12032,69.0,0,30,5.0,94.0
12033,63.0,0,30,5.0,94.0
12034,87.0,1,53,0.0,93.0
12035,81.0,0,53,0.0,93.0
12036,81.0,0,53,1.0,92.0
12037,75.0,1,53,1.0,92.0
12038,75.0,1,53,2.0,93.0
12039,69.0,0,53,2.0,93.0
12040,84.0,48,30,10.0,100.0
12041,75.0,0,30,11.0,100.0
12042,81.0,2,30,11.0,100.0
12043,75.0,1,30,6.0,103.0
12044,60.0,1,30,4.0,94.0
12045,69.0,0,30,12.0,100.0
12046,60.0,1,30,12.0,100.0
12047,63.0,0,30,5.0,94.0
12048,69.0,1,30,5.0,94.0
12049,60.0,3,105,13.0,100.0
12050,48.0,0,105,14.0,100.0
12051,48.0,3,105,3.0,96.0
12052,60.0,0,105,3.0,96.0
12053,59.0,63,45,13.0,100.0
12054,47.0,3,45,14.0,100.0
12055,59.0,0,45,3.0,96.0
12056,47.0,0,45,3.0,96.0
12057,60.0,57,45,13.0,100.0
12058,48.0,3,45,14.0,100.0
12059,60.0,0,45,3.0,96.0
12060,48.0,0,45,3.0,96.0
12061,89.0,48,30,10.0,100.0
12062,81.0,0,27,1.0,92.0
12063,81.0,0,30,11.0,100.0
12064,77.0,1,30,11.0,100.0
12065,77.0,0,27,2.0,93.0
12066,77.0,1,30,6.0,103.0
12067,65.0,0,30,6.0,103.0
12068,69.0,0,27,2.0,93.0
12069,61.0,1,30,4.0,94.0
12070,61.0,1,30,12.0,100.0
12071,69.0,0,30,12.0,100.0
12072,65.0,1,30,5.0,94.0
12073,69.0,0,30,5.0,94.0
12074,81.0,1,53,0.0,93.0
12075,89.0,0,53,0.0,93.0
12076,77.0,0,53,1.0,92.0
12077,85.0,48,30,10.0,100.0
12078,82.0,1,27,1.0,92.0
12079,82.0,1,30,11.0,100.0
12080,65.0,1,30,6.0,103.0
12081,77.0,0,30,6.0,103.0
12082,70.0,0,27,2.0,93.0
12083,73.0,1,27,2.0,93.0
12084,61.0,0,30,4.0,94.0
12085,70.0,1,30,12.0,100.0
12086,61.0,0,30,12.0,100.0
12087,70.0,0,30,5.0,94.0
12088,65.0,0,30,5.0,94.0
12089,82.0,0,53,0.0,93.0
12090,61.0,3,105,13.0,100.0
12091,85.0,1,53,0.0,93.0
12092,61.0,0,105,3.0,96.0
12093,49.0,3,105,14.0,100.0
12094,49.0,0,105,3.0,96.0
12095,60.0,63,45,13.0,100.0
12096,48.0,0,45,3.0,96.0
12097,48.0,3,45,14.0,100.0
12098,60.0,0,45,3.0,96.0
12099,61.0,57,45,13.0,100.0
12100,49.0,0,45,3.0,96.0
12101,61.0,0,45,3.0,96.0
12102,49.0,3,45,14.0,100.0
12103,82.0,48,30,10.0,100.0
12104,73.0,1,30,11.0,100.0
12105,79.0,0,30,11.0,100.0
12106,77.0,1,30,6.0,103.0
12107,79.0,0,30,6.0,103.0
12108,61.0,1,30,4.0,94.0
12109,58.0,0,30,4.0,94.0
12110,67.0,0,30,12.0,100.0
12111,58.0,1,30,12.0,100.0
12112,65.0,0,30,5.0,94.0
12113,67.0,1,30,5.0,94.0
12114,85.0,1,53,0.0,93.0
12115,79.0,0,53,0.0,93.0
12116,73.0,0,53,1.0,92.0
12117,79.0,0,53,1.0,92.0
12118,67.0,0,53,2.0,93.0
12119,73.0,0,53,2.0,93.0
12120,79.0,48,30,10.0,100.0
12121,73.0,0,30,11.0,100.0
12122,79.0,2,30,11.0,100.0
12123,77.0,1,30,6.0,103.0
12124,79.0,0,30,6.0,103.0
12125,61.0,1,30,4.0,94.0
12126,58.0,0,30,4.0,94.0
12127,58.0,0,30,12.0,100.0
12128,67.0,1,30,12.0,100.0
12129,67.0,1,30,5.0,94.0
12130,65.0,0,30,5.0,94.0
12131,58.0,3,105,13.0,100.0
12132,58.0,0,105,3.0,96.0
12133,46.0,0,105,14.0,100.0
12134,46.0,3,105,3.0,96.0
12135,57.0,63,45,13.0,100.0
12136,45.0,0,45,3.0,96.0
12137,45.0,3,45,14.0,100.0
12138,57.0,0,45,3.0,96.0
12139,58.0,57,45,13.0,100.0
12140,46.0,0,45,14.0,100.0
12141,46.0,3,45,3.0,96.0
12142,58.0,0,45,3.0,96.0
12143,84.0,48,30,10.0,100.0
12144,79.0,1,27,1.0,92.0
12145,72.0,1,30,11.0,100.0
12146,76.0,0,30,11.0,100.0
12147,72.0,1,27,2.0,93.0
12148,72.0,0,30,6.0,103.0
12149,67.0,0,27,2.0,93.0
12150,60.0,1,30,6.0,103.0
12151,60.0,0,30,4.0,94.0
12152,64.0,0,30,4.0,94.0
12153,67.0,1,30,12.0,100.0
12154,60.0,0,30,12.0,100.0
12155,67.0,0,30,5.0,94.0
12156,60.0,0,30,5.0,94.0
12157,79.0,1,53,0.0,93.0
12158,84.0,0,53,0.0,93.0
12159,76.0,0,53,1.0,92.0
12160,80.0,48,30,10.0,100.0
12161,80.0,0,27,1.0,92.0
12162,72.0,0,30,11.0,100.0
12163,76.0,1,30,11.0,100.0
12164,68.0,1,27,2.0,93.0
12165,60.0,1,30,6.0,103.0
12166,72.0,0,30,6.0,103.0
12167,60.0,1,30,4.0,94.0
12168,64.0,0,30,4.0,94.0
12169,68.0,1,30,12.0,100.0
12170,60.0,0,30,5.0,94.0
12171,68.0,0,30,5.0,94.0
12172,60.0,3,105,13.0,100.0
12173,80.0,1,53,0.0,93.0
12174,48.0,3,105,3.0,96.0
12175,48.0,0,105,14.0,100.0
12176,60.0,0,105,3.0,96.0
12177,59.0,63,45,13.0,100.0
12178,47.0,0,45,3.0,96.0
12179,59.0,0,45,3.0,96.0
12180,47.0,3,45,14.0,100.0
12181,60.0,57,45,13.0,100.0
12182,60.0,0,45,3.0,96.0
12183,48.0,0,45,14.0,100.0
12184,48.0,3,45,3.0,96.0
12185,68.0,1,30,11.0,100.0
12186,77.0,0,30,6.0,103.0
12187,65.0,1,30,6.0,103.0
12188,60.0,1,30,4.0,94.0
12189,65.0,0,30,4.0,94.0
12190,60.0,1,30,12.0,100.0
12191,53.0,0,30,5.0,94.0
12192,68.0,0,30,5.0,94.0
12193,53.0,3,30,13.0,100.0
12194,53.0,0,30,3.0,96.0
12195,41.0,0,30,3.0,96.0
12196,41.0,3,30,14.0,100.0
12197,77.0,1,60,0.0,93.0
12198,77.0,0,60,1.0,92.0
12199,65.0,1,60,2.0,93.0
12200,69.0,50,30,11.0,100.0
12201,65.0,0,30,6.0,103.0
12202,77.0,1,30,6.0,103.0
12203,60.0,1,30,4.0,94.0
12204,65.0,0,30,4.0,94.0
12205,65.0,1,30,12.0,100.0
12206,53.0,0,30,5.0,94.0
12207,69.0,1,30,5.0,94.0
12208,51.0,3,30,13.0,100.0
12209,51.0,3,30,3.0,96.0
12210,39.0,0,30,3.0,96.0
12211,39.0,0,30,14.0,100.0
12212,77.0,48,120,10.0,100.0
12213,76.0,48,60,10.0,100.0
12214,77.0,60,60,10.0,100.0
12215,69.0,2,30,11.0,100.0
12216,61.0,2,30,4.0,90.0
12217,61.0,1,30,12.0,100.0
12218,69.0,1,30,5.0,90.0
12219,49.0,3,30,13.0,100.0
12220,37.0,0,30,3.0,96.0
12221,49.0,3,30,3.0,96.0
12222,37.0,0,30,14.0,100.0
12223,78.0,60,60,10.0,100.0
12224,70.0,50,30,11.0,100.0
12225,61.0,2,30,4.0,90.0
12226,66.0,1,30,12.0,100.0
12227,70.0,1,30,5.0,90.0
12228,46.0,3,30,13.0,100.0
12229,34.0,3,30,3.0,96.0
12230,46.0,0,30,3.0,96.0
12231,34.0,0,30,14.0,100.0
12232,76.0,108,30,10.0,100.0
12233,68.0,2,30,11.0,100.0
12234,77.0,0,30,6.0,97.0
12235,65.0,1,30,6.0,97.0
12236,61.0,1,30,4.0,88.0
12237,61.0,1,30,12.0,100.0
12238,68.0,1,30,5.0,88.0
12239,49.0,3,30,13.0,100.0
12240,49.0,3,30,3.0,96.0
12241,37.0,0,30,3.0,96.0
12242,37.0,0,30,14.0,100.0
12243,61.0,50,30,11.0,100.0
12244,65.0,1,30,6.0,96.0
12245,77.0,0,30,6.0,96.0
12246,61.0,1,30,4.0,87.0
12247,56.0,1,30,12.0,100.0
12248,68.0,1,30,5.0,87.0
12249,47.0,3,30,13.0,100.0
12250,35.0,3,30,3.0,96.0
12251,35.0,0,30,14.0,100.0
12252,47.0,0,30,3.0,96.0
12253,77.0,60,120,10.0,100.0
12254,76.0,48,60,10.0,100.0
12255,77.0,60,60,10.0,100.0
12256,61.0,2,30,11.0,100.0
12257,61.0,2,30,4.0,85.0
12258,58.0,1,30,12.0,100.0
12259,66.0,1,30,5.0,85.0
12260,46.0,3,30,13.0,100.0
12261,34.0,3,30,14.0,100.0
12262,34.0,0,30,3.0,96.0
12263,46.0,0,30,3.0,96.0
12264,78.0,60,60,10.0,100.0
12265,66.0,50,30,11.0,100.0
12266,61.0,2,30,4.0,84.0
12267,61.0,1,30,12.0,100.0
12268,66.0,1,30,5.0,84.0
12269,42.0,3,30,13.0,100.0
12270,30.0,3,30,3.0,96.0
12271,30.0,0,30,14.0,100.0
12272,42.0,0,30,3.0,96.0
12273,64.0,108,30,10.0,100.0
12274,58.0,2,30,11.0,100.0
12275,58.0,3,30,12.0,100.0
12276,65.0,55,60,10.0,100.0
12277,57.0,2,60,11.0,100.0
12278,77.0,0,60,6.0,90.0
12279,65.0,1,60,6.0,90.0
12280,60.0,1,60,4.0,81.0
12281,57.0,1,60,12.0,100.0
12282,41.0,3,60,13.0,100.0
12283,29.0,0,60,14.0,100.0
12284,29.0,3,60,3.0,96.0
12285,65.0,1,120,5.0,81.0
12286,53.0,0,120,3.0,96.0
12287,65.0,0,120,3.0,96.0
12288,64.0,114,60,5.0,94.0
12289,64.0,0,60,3.0,96.0
12290,52.0,6,60,3.0,96.0
12291,65.0,54,50,5.0,94.0
12292,53.0,0,60,3.0,96.0
12293,65.0,6,60,3.0,96.0
12294,61.0,48,120,10.0,80.0
12295,61.0,3,120,11.0,80.0
12296,58.0,1,120,12.0,79.0
12297,46.0,4,120,13.0,79.0
12298,34.0,3,120,14.0,81.0
12299,60.0,223,120,10.0,81.0
12300,60.0,2,120,11.0,80.0
12301,57.0,7,120,12.0,78.0
12302,45.0,2,120,13.0,81.0
12303,33.0,4,120,14.0,79.0
12304,61.0,107,120,10.0,79.0
12305,61.0,2,120,11.0,79.0
12306,58.0,2,120,12.0,78.0
12307,34.0,6,120,14.0,79.0
12308,46.0,0,120,13.0,79.0
12309,76.0,0,120,1.0,79.0
12310,73.0,114,120,1.0,79.0
12311,64.0,0,120,2.0,80.0
12312,61.0,2,120,2.0,80.0
12313,75.0,118,60,1.0,76.0
12314,72.0,0,60,1.0,76.0
12315,60.0,2,60,2.0,77.0
12316,63.0,0,60,2.0,77.0
12317,76.0,0,45,1.0,74.0
12318,73.0,58,45,1.0,74.0
12319,61.0,2,45,2.0,75.0
12320,64.0,0,45,2.0,75.0
12321,88.0,55,120,0.0,73.0
12322,85.0,0,120,0.0,73.0
12323,76.0,0,120,2.0,73.0
12324,73.0,5,120,2.0,73.0
12325,84.0,115,60,0.0,71.0
12326,87.0,0,60,0.0,71.0
12327,72.0,5,60,2.0,71.0
12328,75.0,0,60,2.0,71.0
12329,88.0,0,45,0.0,69.0
12330,85.0,55,45,0.0,69.0
12331,73.0,0,45,2.0,69.0
12332,76.0,5,45,2.0,69.0
12333,76.0,58,120,1.0,66.0
12334,73.0,0,120,1.0,66.0
12335,61.0,0,120,2.0,67.0
12336,64.0,2,120,2.0,67.0
12337,75.0,118,60,1.0,63.0
12338,72.0,0,60,1.0,63.0
12339,63.0,0,60,2.0,64.0
12340,60.0,2,60,2.0,64.0
12341,76.0,0,45,1.0,55.0
12342,73.0,58,45,1.0,55.0
12343,64.0,0,45,2.0,56.0
12344,61.0,2,45,2.0,56.0
12345,61.0,54,120,10.0,56.0
12346,58.0,2,120,11.0,56.0
12347,66.0,3,1320,5.0,94.0
12348,49.0,5,120,13.0,56.0
12349,46.0,0,120,13.0,56.0
12350,34.0,3,120,14.0,56.0
12351,60.0,228,120,10.0,57.0
12352,57.0,2,120,11.0,57.0
12353,45.0,0,120,13.0,57.0
12354,48.0,7,120,13.0,57.0
12355,33.0,3,120,14.0,57.0
12356,61.0,108,120,10.0,54.0
12357,58.0,2,120,11.0,54.0
12358,46.0,7,120,13.0,54.0
12359,49.0,0,120,13.0,54.0
12360,34.0,3,120,14.0,54.0
12361,59.0,108,120,10.0,51.0
12362,55.0,2,120,11.0,51.0
12363,43.0,0,120,13.0,51.0
12364,47.0,7,120,13.0,51.0
12365,31.0,3,120,14.0,51.0
12366,64.0,2,720,4.0,94.0
12367,63.0,232,120,4.0,94.0
12368,64.0,120,120,4.0,94.0
12369,66.0,1,2160,3.0,96.0
12370,58.0,116,120,10.0,39.0
12371,58.0,2,120,11.0,39.0
12372,46.0,5,120,13.0,39.0
12373,42.0,0,120,13.0,39.0
12374,30.0,0,120,14.0,39.0
12375,54.0,0,2280,3.0,96.0
12376,66.0,3,240,3.0,96.0
12377,65.0,240,120,3.0,96.0
12378,62.0,2,480,4.0,94.0
12379,66.0,120,120,3.0,96.0
12380,61.0,112,120,4.0,94.0
12381,64.0,7,480,3.0,96.0
12382,66.0,1,560,12.0,110.0
12383,50.0,0,120,13.0,39.0
12384,47.0,477,120,13.0,39.0
12385,62.0,0,120,3.0,96.0
12386,47.0,3,120,14.0,39.0
12387,65.0,73,80,12.0,110.0
12388,66.0,80,80,12.0,110.0
12389,67.0,80,80,12.0,110.0
12390,46.0,0,120,13.0,39.0
12391,50.0,4,120,13.0,39.0
12392,46.0,3,120,14.0,39.0
12393,62.0,0,120,3.0,96.0
12394,66.0,73,80,12.0,110.0
12395,67.0,33,80,12.0,110.0
12396,50.0,44,120,13.0,39.0
12397,47.0,0,120,13.0,39.0
12398,47.0,3,120,14.0,39.0
12399,71.0,1,80,12.0,110.0
12400,40.0,4,120,13.0,39.0
12401,55.0,0,120,13.0,39.0
12402,40.0,3,120,14.0,39.0
12403,74.0,73,80,12.0,110.0
12404,73.0,80,80,12.0,110.0
12405,71.0,80,80,12.0,110.0
12406,55.0,0,360,4.0,94.0
12407,67.0,79,360,4.0,94.0
12408,55.0,4,120,13.0,39.0
12409,39.0,0,120,13.0,39.0
12410,39.0,3,120,14.0,39.0
12411,69.0,73,80,12.0,110.0
12412,67.0,33,80,12.0,110.0
12413,40.0,44,120,13.0,39.0
12414,40.0,3,120,14.0,39.0
12415,66.0,80,80,12.0,110.0
12416,47.0,4,120,13.0,39.0
12417,50.0,0,120,13.0,39.0
12418,47.0,3,120,14.0,39.0
12419,62.0,0,120,3.0,96.0
12420,65.0,73,80,12.0,110.0
12421,66.0,80,80,12.0,110.0
12422,67.0,80,80,12.0,110.0
12423,46.0,4,120,13.0,39.0
12424,50.0,0,0,13.0,39.0
12425,62.0,0,120,3.0,96.0
12426,46.0,3,120,14.0,39.0
12427,66.0,73,80,12.0,110.0
12428,59.0,75,0,10.0,39.0
12429,67.0,33,80,12.0,110.0
12430,47.0,0,0,13.0,39.0
12431,47.0,3,120,14.0,39.0
12432,64.0,5,80,12.0,110.0
12433,43.0,4,120,13.0,39.0
12434,43.0,3,120,14.0,39.0
12435,62.0,73,80,12.0,110.0
12436,61.0,80,80,12.0,110.0
12437,58.0,75,120,10.0,39.0
12438,46.0,3,120,13.0,39.0
12439,43.0,0,120,13.0,39.0
12440,42.0,3,120,14.0,39.0
12441,61.0,108,120,10.0,39.0
12442,49.0,9,120,13.0,39.0
12443,46.0,0,120,13.0,39.0
12444,46.0,3,120,14.0,39.0
12445,78.0,1,320,2.0,93.0
12446,66.0,0,320,3.0,96.0
12447,62.0,108,120,10.0,39.0
12448,66.0,5,360,12.0,110.0
12449,50.0,9,120,13.0,39.0
12450,47.0,0,120,13.0,39.0
12451,47.0,3,120,14.0,39.0
12452,77.0,74,80,2.0,93.0
12453,65.0,6,80,3.0,96.0
12454,78.0,74,80,2.0,93.0
12455,66.0,6,80,3.0,96.0
12456,79.0,6,80,2.0,93.0
12457,67.0,3,80,3.0,96.0
12458,55.0,68,120,10.0,39.0
12459,47.0,0,120,13.0,39.0
12460,50.0,0,0,13.0,39.0
12461,46.0,0,120,14.0,39.0
12462,78.0,74,80,2.0,93.0
12463,66.0,6,80,3.0,96.0
12464,58.0,28,120,10.0,39.0
12465,55.0,0,0,13.0,39.0
12466,79.0,37,160,2.0,93.0
12467,67.0,6,160,3.0,96.0
12468,62.0,68,120,10.0,39.0
12469,58.0,9,120,13.0,39.0
12470,77.0,77,80,2.0,93.0
12471,65.0,6,80,3.0,96.0
12472,76.0,37,70,2.0,93.0
12473,67.0,28,120,10.0,39.0
12474,64.0,6,70,3.0,96.0
12475,62.0,9,120,13.0,39.0
12476,58.0,0,120,13.0,39.0
12477,61.0,68,120,10.0,39.0
12478,57.0,2,120,11.0,39.0
12479,49.0,9,0,13.0,39.0
12480,45.0,0,120,13.0,39.0
12481,33.0,0,120,14.0,39.0
12482,64.0,108,120,10.0,39.0
12483,81.0,2,0,1.0,92.0
12484,52.0,0,120,13.0,39.0
12485,37.0,3,120,14.0,39.0
12486,69.0,2,320,5.0,94.0
12487,65.0,108,120,10.0,39.0
12488,57.0,2,120,11.0,39.0
12489,81.0,0,360,2.0,93.0
12490,50.0,0,120,13.0,39.0
12491,53.0,5,120,13.0,39.0
12492,38.0,3,120,14.0,39.0
12493,69.0,3,360,3.0,96.0
12494,80.0,72,80,1.0,92.0
12495,68.0,2,80,5.0,94.0
12496,81.0,78,80,1.0,92.0
12497,69.0,2,80,5.0,94.0
12498,58.0,74,120,10.0,39.0
12499,58.0,2,120,11.0,39.0
12500,53.0,1,120,12.0,39.0
12501,49.0,3,120,13.0,39.0
12502,37.0,3,120,14.0,39.0
12503,61.0,108,120,10.0,39.0
12504,58.0,2,120,11.0,39.0
12505,53.0,3,120,12.0,40.0
12506,82.0,2,320,1.0,92.0
12507,70.0,1,320,5.0,94.0
12508,65.0,115,120,10.0,39.0
12509,61.0,2,120,11.0,39.0
12510,58.0,3,120,12.0,40.0
12511,80.0,79,80,1.0,92.0
12512,68.0,2,80,5.0,94.0
12513,70.0,34,120,10.0,39.0
12514,61.0,0,120,10.0,39.0
12515,79.0,44,80,1.0,92.0
12516,67.0,2,80,5.0,94.0
12517,48.0,19,0,15.0,32.0
12518,36.0,3,30,13.0,100.0
12519,48.0,12,0,15.0,32.0
12520,40.0,8,30,13.0,95.0
12521,48.0,2,0,15.0,33.0
12522,43.0,18,30,13.0,90.0
12523,48.0,12,0,15.0,34.0
12524,67.0,74,120,10.0,39.0
12525,60.0,1,120,11.0,39.0
12526,64.0,0,120,11.0,39.0
12527,47.0,8,30,13.0,85.0
12528,48.0,2,0,15.0,34.0
12529,36.0,0,120,14.0,39.0
12530,48.0,20,0,15.0,34.0
12531,52.0,14,30,12.0,100.0
12532,48.0,16,0,15.0,35.0
12533,55.0,4,30,12.0,94.0
12534,48.0,4,60,13.0,80.0
12535,48.0,20,0,15.0,36.0
12536,59.0,14,30,12.0,87.0
12537,60.0,4,30,12.0,80.0
12538,48.0,16,20,15.0,36.0
12539,48.0,20,0,15.0,37.0
12540,48.0,18,30,13.0,100.0
12541,52.0,8,30,13.0,95.0
12542,48.0,12,20,15.0,37.0
12543,48.0,2,20,15.0,38.0
12544,55.0,18,30,13.0,90.0
12545,48.0,20,20,15.0,38.0
12546,84.0,1,360,1.0,92.0
12547,59.0,8,30,13.0,85.0
12548,48.0,2,0,15.0,39.0
12549,48.0,20,0,15.0,40.0
12550,64.0,14,30,12.0,100.0
12551,67.0,4,30,12.0,94.0
12552,60.0,4,60,13.0,80.0
12553,48.0,16,20,15.0,40.0
12554,48.0,6,20,15.0,39.0
12555,71.0,14,30,12.0,87.0
12556,48.0,20,20,15.0,38.0
12557,64.0,3,0,4.0,94.0
12558,60.0,0,480,4.0,94.0
12559,72.0,4,30,12.0,80.0
12560,72.0,2,480,5.0,94.0
12561,48.0,2,0,15.0,36.0
12562,36.0,3,30,13.0,100.0
12563,48.0,12,0,15.0,35.0
12564,40.0,8,30,13.0,95.0
12565,48.0,2,0,15.0,34.0
12566,48.0,20,0,15.0,33.0
12567,43.0,18,30,13.0,90.0
12568,48.0,12,0,15.0,32.0
12569,47.0,8,30,13.0,85.0
12570,36.0,0,120,14.0,39.0
12571,64.0,9,30,10.0,80.0
12572,48.0,1,0,15.0,31.0
12573,58.0,2,30,11.0,100.0
12574,55.0,3,30,12.0,100.0
12575,67.0,19,30,10.0,75.0
12576,64.0,1,30,11.0,94.0
12577,58.0,3,30,12.0,94.0
12578,48.0,4,60,13.0,80.0
12579,48.0,6,0,15.0,29.0
12580,71.0,9,30,10.0,69.0
12581,67.0,2,30,11.0,87.0
12582,64.0,3,30,12.0,87.0
12583,48.0,16,0,15.0,28.0
12584,72.0,19,30,10.0,64.0
12585,82.0,10,240,0.0,93.0
12586,64.0,1,30,11.0,80.0
12587,67.0,0,240,4.0,94.0
12588,58.0,3,30,12.0,80.0
12589,70.0,2,240,2.0,93.0
12590,70.0,0,240,5.0,94.0
12591,58.0,1,240,3.0,96.0
12592,48.0,3,30,13.0,100.0
12593,53.0,27,30,13.0,95.0
12594,56.0,30,30,13.0,90.0
12595,80.0,10,120,0.0,93.0
12596,84.0,1,840,0.0,93.0
12597,60.0,1,840,6.0,103.0
12598,72.0,0,840,6.0,103.0
12599,65.0,3,120,4.0,94.0
12600,48.0,0,840,5.0,94.0
12601,68.0,0,120,5.0,94.0
12602,72.0,0,840,2.0,93.0
12603,68.0,2,120,2.0,93.0
12604,59.0,30,30,13.0,85.0
12605,48.0,2,120,15.0,30.0
12606,60.0,1,840,3.0,96.0
12607,56.0,1,120,3.0,96.0
12608,65.0,21,30,10.0,80.0
12609,60.0,1,30,11.0,100.0
12610,56.0,3,30,12.0,100.0
12611,68.0,18,30,10.0,75.0
12612,83.0,0,60,0.0,93.0
12613,79.0,1,60,0.0,93.0
12614,65.0,2,30,11.0,94.0
12615,60.0,3,30,12.0,94.0
12616,71.0,0,60,2.0,93.0
12617,67.0,1,60,2.0,93.0
12618,60.0,3,60,13.0,80.0
12619,55.0,0,60,3.0,96.0
12620,59.0,3,60,3.0,96.0
12621,71.0,25,30,10.0,69.0
12622,67.0,1,30,11.0,87.0
12623,65.0,3,30,12.0,87.0
12624,80.0,0,50,0.0,93.0
12625,84.0,1,50,0.0,93.0
12626,68.0,0,50,2.0,93.0
12627,72.0,1,50,2.0,93.0
12628,72.0,18,30,10.0,64.0
12629,60.0,6,50,3.0,96.0
12630,56.0,0,50,3.0,96.0
12631,68.0,2,30,11.0,80.0
12632,60.0,3,30,12.0,80.0
12633,37.0,3,30,13.0,100.0
12634,41.0,27,30,13.0,95.0
12635,44.0,30,30,13.0,90.0
12636,48.0,30,30,13.0,85.0
12637,37.0,0,120,14.0,39.0
12638,65.0,21,30,10.0,80.0
12639,61.0,2,30,11.0,100.0
12640,53.0,3,30,12.0,100.0
12641,68.0,21,30,10.0,75.0
12642,65.0,2,30,11.0,94.0
12643,61.0,3,30,12.0,94.0
12644,49.0,4,60,13.0,80.0
12645,72.0,25,30,10.0,69.0
12646,67.0,2,30,11.0,87.0
12647,64.0,3,30,12.0,87.0
12648,73.0,25,30,10.0,64.0
12649,68.0,2,30,11.0,80.0
12650,65.0,3,30,12.0,80.0
12651,49.0,34,30,13.0,100.0
12652,53.0,30,30,13.0,95.0
12653,56.0,30,30,13.0,90.0
12654,77.0,26,350,0.0,93.0
12655,85.0,0,350,0.0,93.0
12656,65.0,5,350,2.0,93.0
12657,73.0,0,350,2.0,93.0
12658,53.0,3,350,3.0,96.0
12659,61.0,0,350,3.0,96.0
12660,60.0,30,30,13.0,85.0
12661,65.0,21,30,10.0,80.0
12662,61.0,1,30,11.0,100.0
12663,56.0,3,30,12.0,100.0
12664,68.0,18,30,10.0,75.0
12665,84.0,0,60,0.0,93.0
12666,76.0,1,60,0.0,93.0
12667,65.0,2,30,11.0,94.0
12668,61.0,3,30,12.0,94.0
12669,72.0,1,60,2.0,93.0
12670,64.0,0,60,2.0,93.0
12671,61.0,3,60,13.0,80.0
12672,52.0,0,60,3.0,96.0
12673,60.0,3,60,3.0,96.0
12674,72.0,25,30,10.0,69.0
12675,67.0,1,30,11.0,87.0
12676,64.0,3,30,12.0,87.0
12677,73.0,18,30,10.0,64.0
12678,77.0,1,60,0.0,93.0
12679,85.0,26,0,0.0,93.0
12680,68.0,2,30,11.0,80.0
12681,65.0,3,30,12.0,80.0
12682,65.0,0,60,2.0,93.0
12683,73.0,1,60,2.0,93.0
12684,61.0,6,60,3.0,96.0
12685,53.0,0,60,3.0,96.0
12686,46.0,3,30,13.0,100.0
12687,89.0,22,0,0.0,93.0
12688,73.0,0,60,2.0,93.0
12689,77.0,0,0,2.0,93.0
12690,49.0,27,30,13.0,95.0
12691,65.0,3,60,3.0,96.0
12692,61.0,0,60,3.0,96.0
12693,53.0,3,30,13.0,90.0
12694,92.0,0,60,0.0,93.0
12695,80.0,5,60,2.0,93.0
12696,57.0,27,30,13.0,85.0
12697,68.0,0,60,3.0,96.0
12698,34.0,0,120,14.0,39.0
12699,65.0,3,60,3.0,96.0
12700,65.0,21,30,10.0,80.0
12701,61.0,1,30,11.0,100.0
12702,56.0,3,30,12.0,100.0
12703,68.0,18,30,10.0,75.0
12704,91.0,1,60,0.0,93.0
12705,87.0,0,60,0.0,93.0
12706,65.0,2,30,11.0,94.0
12707,61.0,3,30,12.0,94.0
12708,75.0,1,60,2.0,93.0
12709,79.0,0,60,2.0,93.0
12710,58.0,3,60,13.0,80.0
12711,67.0,0,60,3.0,96.0
12712,63.0,3,60,3.0,96.0
12713,72.0,25,30,10.0,69.0
12714,67.0,1,30,11.0,87.0
12715,64.0,3,30,12.0,87.0
12716,85.0,0,50,0.0,93.0
12717,89.0,1,50,0.0,93.0
12718,77.0,1,50,2.0,93.0
12719,73.0,0,50,2.0,93.0
12720,73.0,18,30,10.0,64.0
12721,68.0,2,30,11.0,80.0
12722,65.0,0,50,3.0,96.0
12723,61.0,6,50,3.0,96.0
12724,65.0,3,30,12.0,80.0
12725,39.0,3,30,13.0,100.0
12726,91.0,26,60,0.0,93.0
12727,87.0,0,60,0.0,93.0
12728,79.0,5,60,2.0,93.0
12729,75.0,0,60,2.0,93.0
12730,43.0,27,30,13.0,95.0
12731,63.0,0,60,3.0,96.0
12732,67.0,3,60,3.0,96.0
12733,46.0,3,30,13.0,90.0
12734,89.0,0,60,0.0,93.0
12735,85.0,22,60,0.0,93.0
12736,77.0,5,60,2.0,93.0
12737,73.0,0,60,2.0,93.0
12738,50.0,27,30,13.0,85.0
12739,65.0,0,60,3.0,96.0
12740,39.0,0,120,14.0,39.0
12741,61.0,3,60,3.0,96.0
12742,61.0,21,30,10.0,80.0
12743,58.0,1,30,11.0,100.0
12744,55.0,3,30,12.0,100.0
12745,67.0,18,30,10.0,75.0
12746,84.0,1,60,0.0,93.0
12747,87.0,0,60,0.0,93.0
12748,61.0,2,30,11.0,94.0
12749,58.0,3,30,12.0,94.0
12750,75.0,0,60,2.0,93.0
12751,72.0,1,60,2.0,93.0
12752,51.0,3,60,13.0,80.0
12753,63.0,0,60,3.0,96.0
12754,60.0,3,60,3.0,96.0
12755,69.0,25,30,10.0,69.0
12756,66.0,1,30,11.0,87.0
12757,60.0,3,30,12.0,87.0
12758,82.0,1,50,0.0,93.0
12759,85.0,0,50,0.0,93.0
12760,73.0,0,50,2.0,93.0
12761,70.0,1,50,2.0,93.0
12762,70.0,18,30,10.0,64.0
12763,58.0,6,50,3.0,96.0
12764,61.0,0,50,3.0,96.0
12765,67.0,2,30,11.0,80.0
12766,61.0,3,30,12.0,80.0
12767,44.0,3,30,13.0,100.0
12768,48.0,27,30,13.0,95.0
12769,51.0,30,30,13.0,90.0
12770,80.0,26,120,0.0,93.0
12771,84.0,0,120,0.0,93.0
12772,68.0,0,120,2.0,93.0
12773,72.0,5,120,2.0,93.0
12774,55.0,30,30,13.0,85.0
12775,32.0,3,120,14.0,39.0
12776,60.0,0,120,3.0,96.0
12777,56.0,0,120,3.0,96.0
12778,60.0,21,30,10.0,80.0
12779,56.0,1,30,11.0,100.0
12780,51.0,3,30,12.0,100.0
12781,63.0,18,30,10.0,75.0
12782,79.0,0,60,0.0,93.0
12783,83.0,1,60,0.0,93.0
12784,60.0,2,30,11.0,94.0
12785,56.0,3,30,12.0,94.0
12786,67.0,1,60,2.0,93.0
12787,71.0,0,60,2.0,93.0
12788,56.0,3,60,13.0,80.0
12789,59.0,3,60,3.0,96.0
12790,55.0,0,60,3.0,96.0
12791,67.0,25,30,10.0,69.0
12792,62.0,1,30,11.0,87.0
12793,59.0,3,30,12.0,87.0
12794,80.0,1,50,0.0,93.0
12795,84.0,0,50,0.0,93.0
12796,72.0,1,50,2.0,93.0
12797,68.0,0,50,2.0,93.0
12798,68.0,18,30,10.0,64.0
12799,56.0,6,50,3.0,96.0
12800,63.0,2,30,11.0,80.0
12801,60.0,0,50,3.0,96.0
12802,60.0,3,30,12.0,80.0
12803,43.0,3,30,13.0,100.0
12804,46.0,27,30,13.0,95.0
12805,49.0,30,30,13.0,90.0
12806,53.0,30,30,13.0,85.0
12807,30.0,0,120,14.0,39.0
12808,61.0,21,30,10.0,80.0
12809,58.0,2,30,11.0,100.0
12810,54.0,3,30,12.0,100.0
12811,66.0,21,30,10.0,75.0
12812,61.0,2,30,11.0,94.0
12813,58.0,3,30,12.0,94.0
12814,54.0,4,60,13.0,80.0
12815,69.0,25,30,10.0,69.0
12816,65.0,2,30,11.0,87.0
12817,60.0,3,30,12.0,87.0
12818,70.0,25,30,10.0,64.0
12819,66.0,2,30,11.0,80.0
12820,61.0,3,30,12.0,80.0
12821,43.0,34,30,13.0,100.0
12822,46.0,30,30,13.0,95.0
12823,49.0,30,30,13.0,90.0
12824,82.0,0,360,0.0,93.0
12825,85.0,26,360,0.0,93.0
12826,73.0,0,360,2.0,93.0
12827,70.0,5,360,2.0,93.0
12828,53.0,30,30,13.0,85.0
12829,58.0,0,360,3.0,96.0
12830,61.0,3,360,3.0,96.0
12831,66.0,21,30,10.0,80.0
12832,61.0,1,30,11.0,100.0
12833,58.0,3,30,12.0,100.0
12834,70.0,18,30,10.0,75.0
12835,81.0,1,60,0.0,93.0
12836,84.0,0,60,0.0,93.0
12837,66.0,2,30,11.0,94.0
12838,61.0,3,30,12.0,94.0
12839,72.0,0,60,2.0,93.0
12840,69.0,1,60,2.0,93.0
12841,54.0,3,60,13.0,80.0
12842,60.0,3,60,3.0,96.0
12843,57.0,0,60,3.0,96.0
12844,72.0,25,30,10.0,69.0
12845,69.0,1,30,11.0,87.0
12846,66.0,3,30,12.0,87.0
12847,82.0,0,50,0.0,93.0
12848,85.0,1,50,0.0,93.0
12849,73.0,1,50,2.0,93.0
12850,70.0,0,50,2.0,93.0
12851,73.0,18,30,10.0,64.0
12852,58.0,0,50,3.0,96.0
12853,61.0,6,50,3.0,96.0
12854,70.0,2,30,11.0,80.0
12855,61.0,3,30,12.0,80.0
12856,46.0,3,30,13.0,100.0
12857,82.0,0,60,0.0,93.0
12858,79.0,26,60,0.0,93.0
12859,70.0,0,60,2.0,93.0
12860,67.0,5,60,2.0,93.0
12861,49.0,27,30,13.0,100.0
12862,58.0,0,60,3.0,96.0
12863,55.0,0,60,3.0,96.0
12864,55.0,3,30,13.0,100.0
12865,77.0,0,60,0.0,93.0
12866,80.0,22,60,0.0,93.0
12867,68.0,5,60,2.0,93.0
12868,65.0,0,60,2.0,93.0
12869,56.0,27,30,13.0,100.0
12870,34.0,3,120,14.0,39.0
12871,56.0,0,60,3.0,96.0
12872,53.0,3,60,3.0,96.0
12873,61.0,21,30,10.0,100.0
12874,61.0,1,30,11.0,100.0
12875,55.0,3,30,12.0,100.0
12876,67.0,18,30,10.0,100.0
12877,79.0,0,60,0.0,93.0
12878,75.0,1,60,0.0,93.0
12879,67.0,2,30,11.0,100.0
12880,58.0,3,30,12.0,100.0
12881,63.0,0,60,2.0,93.0
12882,67.0,1,60,2.0,93.0
12883,58.0,3,60,13.0,100.0
12884,51.0,0,60,3.0,96.0
12885,55.0,3,60,3.0,96.0
12886,69.0,25,30,10.0,100.0
12887,69.0,1,30,11.0,100.0
12888,60.0,3,30,12.0,100.0
12889,77.0,0,50,0.0,93.0
12890,73.0,1,50,0.0,93.0
12891,65.0,1,50,2.0,93.0
12892,61.0,0,50,2.0,93.0
12893,70.0,18,30,10.0,100.0
12894,70.0,2,30,11.0,100.0
12895,53.0,6,50,3.0,96.0
12896,49.0,0,50,3.0,96.0
12897,61.0,3,30,12.0,100.0
12898,60.0,25,30,10.0,100.0
12899,55.0,1,30,11.0,100.0
12900,52.0,1,30,12.0,100.0
12901,64.0,18,30,10.0,100.0
12902,60.0,2,30,11.0,100.0
12903,55.0,3,30,12.0,100.0
12904,66.0,25,30,10.0,100.0
12905,62.0,2,30,11.0,100.0
12906,60.0,3,30,12.0,100.0
12907,67.0,25,30,10.0,100.0
12908,64.0,2,30,11.0,100.0
12909,55.0,3,30,12.0,100.0
12910,48.0,3,120,13.0,39.0
12911,36.0,3,120,14.0,39.0
12912,66.0,25,30,10.0,100.0
12913,62.0,2,30,11.0,100.0
12914,60.0,3,30,12.0,100.0
12915,67.0,25,30,10.0,100.0
12916,64.0,2,30,11.0,100.0
12917,55.0,3,30,12.0,100.0
12918,66.0,25,30,10.0,100.0
12919,62.0,2,30,11.0,100.0
12920,60.0,3,30,12.0,100.0
12921,67.0,25,30,10.0,100.0
12922,64.0,2,30,11.0,100.0
12923,55.0,3,30,12.0,100.0
12924,64.0,25,30,10.0,100.0
12925,60.0,2,30,11.0,100.0
12926,55.0,3,30,12.0,100.0
12927,67.0,25,30,10.0,100.0
12928,64.0,2,30,11.0,100.0
12929,60.0,3,30,12.0,100.0
12930,71.0,25,30,10.0,100.0
12931,67.0,2,30,11.0,100.0
12932,64.0,3,30,12.0,100.0
12933,72.0,25,30,10.0,100.0
12934,84.0,1,360,0.0,93.0
12935,76.0,0,360,0.0,93.0
12936,64.0,2,30,11.0,100.0
12937,60.0,3,30,12.0,100.0
12938,64.0,0,360,2.0,93.0
12939,72.0,1,360,2.0,93.0
12940,60.0,0,360,3.0,96.0
12941,52.0,0,360,3.0,96.0
12942,71.0,25,30,10.0,100.0
12943,67.0,2,30,11.0,100.0
12944,64.0,3,30,12.0,100.0
12945,72.0,25,30,10.0,100.0
12946,64.0,2,30,11.0,100.0
12947,60.0,3,30,12.0,100.0
12948,71.0,25,30,10.0,100.0
12949,67.0,2,30,11.0,100.0
12950,64.0,3,30,12.0,100.0
12951,72.0,1,470,1.0,92.0
12952,72.0,25,30,10.0,100.0
12953,64.0,2,30,11.0,100.0
12954,64.0,0,480,4.0,94.0
12955,60.0,0,480,4.0,94.0
12956,60.0,3,30,12.0,100.0
12957,67.0,0,480,5.0,94.0
12958,64.0,25,30,10.0,100.0
12959,60.0,2,30,11.0,100.0
12960,55.0,1,30,12.0,100.0
12961,67.0,18,30,10.0,100.0
12962,64.0,2,30,11.0,100.0
12963,60.0,3,30,12.0,100.0
12964,71.0,25,30,10.0,100.0
12965,70.0,2,30,11.0,100.0
12966,67.0,3,30,12.0,100.0
12967,71.0,0,110,1.0,92.0
12968,72.0,25,30,10.0,100.0
12969,67.0,2,30,11.0,100.0
12970,64.0,3,30,12.0,100.0
12971,48.0,3,120,13.0,39.0
12972,36.0,3,120,14.0,39.0
12973,71.0,25,30,10.0,100.0
12974,70.0,2,30,11.0,100.0
12975,67.0,1,30,12.0,100.0
12976,72.0,25,30,10.0,100.0
12977,67.0,2,30,11.0,100.0
12978,64.0,3,30,12.0,100.0
12979,71.0,25,30,10.0,100.0
12980,70.0,2,30,11.0,100.0
12981,67.0,3,30,12.0,100.0
12982,72.0,2,110,1.0,92.0
12983,72.0,25,30,10.0,100.0
12984,67.0,2,30,11.0,100.0
12985,60.0,0,720,6.0,103.0
12986,72.0,1,720,6.0,103.0
12987,64.0,2,240,4.0,94.0
12988,67.0,0,240,4.0,94.0
12989,64.0,3,30,12.0,100.0
12990,70.0,1,240,5.0,94.0
12991,48.0,0,720,5.0,94.0
12992,63.0,25,30,10.0,100.0
12993,69.0,2,30,11.0,100.0
12994,65.0,1,30,12.0,100.0
12995,69.0,18,30,10.0,100.0
12996,63.0,2,30,11.0,100.0
12997,53.0,3,30,12.0,100.0
12998,72.0,25,30,10.0,100.0
12999,68.0,2,30,11.0,100.0
13000,63.0,3,30,12.0,100.0
13001,73.0,25,30,10.0,100.0
13002,69.0,2,30,11.0,100.0
13003,53.0,3,30,12.0,100.0
13004,41.0,3,120,13.0,64.0
13005,29.0,3,120,14.0,64.0
13006,72.0,25,30,10.0,100.0
13007,68.0,2,30,11.0,100.0
13008,63.0,3,30,12.0,100.0
13009,73.0,25,30,10.0,100.0
13010,69.0,2,30,11.0,100.0
13011,53.0,3,30,12.0,100.0
13012,72.0,25,30,10.0,100.0
13013,68.0,2,30,11.0,100.0
13014,63.0,3,30,12.0,100.0
13015,73.0,1,230,1.0,92.0
13016,73.0,25,30,10.0,100.0
13017,69.0,2,0,11.0,100.0
13018,65.0,0,240,4.0,94.0
13019,53.0,3,30,12.0,100.0
13020,41.0,0,240,5.0,94.0
13021,63.0,25,30,10.0,100.0
13022,65.0,1,30,12.0,100.0
13023,69.0,18,30,10.0,100.0
13024,64.0,2,30,11.0,100.0
13025,53.0,3,30,12.0,100.0
13026,72.0,25,30,10.0,100.0
13027,68.0,2,30,11.0,100.0
13028,65.0,3,30,12.0,100.0
13029,72.0,0,110,1.0,92.0
13030,73.0,25,30,10.0,100.0
13031,69.0,2,30,11.0,100.0
13032,53.0,3,30,12.0,100.0
13033,53.0,3,120,13.0,72.0
13034,41.0,3,120,14.0,72.0
13035,72.0,25,30,10.0,100.0
13036,68.0,2,30,11.0,100.0
13037,63.0,1,30,12.0,100.0
13038,73.0,25,30,10.0,100.0
13039,69.0,2,30,11.0,100.0
13040,53.0,3,30,12.0,100.0
13041,72.0,25,30,10.0,100.0
13042,68.0,2,30,11.0,100.0
13043,63.0,3,30,12.0,100.0
13044,73.0,2,110,1.0,92.0
13045,73.0,25,30,10.0,100.0
13046,69.0,2,30,11.0,100.0
13047,63.0,2,240,4.0,94.0
13048,53.0,3,30,12.0,100.0
13049,69.0,1,480,5.0,94.0
13050,65.0,25,30,10.0,100.0
13051,62.0,1,30,12.0,100.0
13052,74.0,18,30,10.0,100.0
13053,62.0,1,60,11.0,100.0
13054,58.0,5,30,12.0,100.0
13055,76.0,25,30,10.0,100.0
13056,65.0,2,30,11.0,100.0
13057,62.0,3,30,12.0,100.0
13058,77.0,25,30,10.0,100.0
13059,69.0,2,30,11.0,100.0
13060,53.0,1,600,6.0,103.0
13061,65.0,0,600,6.0,103.0
13062,58.0,3,30,12.0,100.0
13063,53.0,1,360,5.0,94.0
13064,46.0,3,120,13.0,74.0
13065,34.0,3,120,14.0,74.0
13066,76.0,25,30,10.0,100.0
13067,65.0,1,30,11.0,100.0
13068,62.0,1,30,12.0,100.0
13069,77.0,25,30,10.0,90.0
13070,69.0,2,30,11.0,90.0
13071,58.0,3,30,12.0,90.0
13072,76.0,25,30,10.0,80.0
13073,65.0,2,30,11.0,80.0
13074,62.0,3,30,12.0,80.0
13075,89.0,1,230,0.0,93.0
13076,77.0,0,230,1.0,92.0
13077,77.0,25,30,10.0,60.0
13078,93.0,1,120,0.0,93.0
13079,69.0,2,30,11.0,60.0
13080,81.0,2,120,1.0,92.0
13081,58.0,3,30,12.0,60.0
13082,91.0,26,120,0.0,93.0
13083,79.0,0,120,1.0,92.0
13084,69.0,116,30,10.0,60.0
13085,65.0,1,30,11.0,60.0
13086,62.0,1,30,12.0,52.0
13087,77.0,25,30,10.0,63.0
13088,69.0,2,30,11.0,63.0
13089,58.0,3,30,12.0,73.0
13090,69.0,25,30,10.0,87.0
13091,65.0,2,30,11.0,87.0
13092,62.0,3,30,12.0,75.0
13093,88.0,0,230,0.0,93.0
13094,89.0,1,110,0.0,93.0
13095,76.0,3,230,1.0,92.0
13096,77.0,2,110,1.0,92.0
13097,77.0,25,30,10.0,75.0
13098,69.0,2,30,11.0,75.0
13099,58.0,0,480,4.0,94.0
13100,58.0,3,30,12.0,87.0
13101,67.0,25,30,10.0,87.0
13102,65.0,1,30,11.0,87.0
13103,62.0,1,30,12.0,75.0
13104,74.0,18,30,10.0,75.0
13105,67.0,2,30,11.0,75.0
13106,55.0,3,30,12.0,87.0
13107,67.0,25,30,10.0,73.0
13108,65.0,2,30,11.0,73.0
13109,62.0,3,30,12.0,63.0
13110,74.0,25,30,10.0,45.0
13111,91.0,1,120,0.0,93.0
13112,67.0,2,30,11.0,45.0
13113,79.0,0,120,1.0,92.0
13114,55.0,3,30,12.0,52.0
13115,47.0,4,120,13.0,66.0
13116,35.0,3,120,14.0,66.0
13117,86.0,0,240,0.0,93.0
13118,89.0,26,120,0.0,93.0
13119,74.0,2,240,1.0,92.0
13120,77.0,3,120,1.0,92.0
13121,88.0,0,120,0.0,93.0
13122,76.0,0,120,1.0,92.0
13123,65.0,114,30,10.0,75.0
13124,62.0,1,30,11.0,75.0
13125,55.0,1,30,12.0,75.0
13126,67.0,25,30,10.0,75.0
13127,65.0,2,30,11.0,75.0
13128,50.0,3,30,12.0,75.0
13129,65.0,25,30,10.0,75.0
13130,62.0,2,30,11.0,75.0
13131,55.0,3,30,12.0,75.0
13132,86.0,1,110,0.0,93.0
13133,79.0,117,230,0.0,93.0
13134,74.0,2,110,1.0,92.0
13135,67.0,3,230,1.0,92.0
13136,67.0,25,30,10.0,75.0
13137,65.0,2,30,11.0,75.0
13138,57.0,0,480,4.0,94.0
13139,62.0,2,960,4.0,94.0
13140,50.0,3,30,12.0,75.0
13141,67.0,2,240,5.0,94.0
13142,65.0,1,960,5.0,94.0
13143,60.0,25,30,10.0,87.0
13144,57.0,1,30,11.0,87.0
13145,53.0,1,30,12.0,87.0
13146,65.0,18,30,10.0,87.0
13147,60.0,2,30,11.0,87.0
13148,57.0,3,30,12.0,87.0
13149,68.0,25,30,10.0,87.0
13150,64.0,2,30,11.0,87.0
13151,60.0,3,30,12.0,87.0
13152,69.0,25,30,10.0,87.0
13153,81.0,1,120,0.0,93.0
13154,84.0,0,120,0.0,93.0
13155,65.0,2,30,11.0,87.0
13156,60.0,2,120,4.0,94.0
13157,72.0,0,120,1.0,92.0
13158,69.0,0,120,1.0,92.0
13159,53.0,3,30,12.0,87.0
13160,48.0,3,120,13.0,100.0
13161,36.0,3,120,14.0,100.0
13162,68.0,25,30,10.0,87.0
13163,64.0,2,30,11.0,87.0
13164,60.0,3,30,12.0,87.0
13165,69.0,18,30,10.0,87.0
13166,65.0,2,30,11.0,87.0
13167,53.0,3,30,12.0,87.0
13168,47.0,4,60,13.0,100.0
13169,35.0,3,60,14.0,100.0
13170,68.0,25,30,10.0,87.0
13171,64.0,2,30,11.0,87.0
13172,60.0,3,30,12.0,87.0
13173,48.0,4,45,13.0,100.0
13174,36.0,3,45,14.0,100.0
13175,69.0,18,30,10.0,52.0
13176,65.0,2,30,11.0,52.0
13177,53.0,3,30,12.0,52.0
13178,77.0,2,120,2.0,93.0
13179,76.0,114,60,2.0,93.0
13180,77.0,60,50,2.0,93.0
13181,49.0,3,230,13.0,100.0
13182,37.0,3,230,14.0,100.0
13183,69.0,54,30,10.0,75.0
13184,65.0,2,30,11.0,75.0
13185,74.0,18,30,10.0,75.0
13186,69.0,2,30,11.0,75.0
13187,57.0,3,60,12.0,75.0
13188,76.0,28,30,10.0,75.0
13189,73.0,2,30,11.0,75.0
13190,65.0,3,30,12.0,65.0
13191,77.0,25,30,10.0,65.0
13192,74.0,2,30,11.0,65.0
13193,69.0,29,360,1.0,92.0
13194,57.0,3,30,12.0,75.0
13195,69.0,1,120,2.0,93.0
13196,50.0,3,120,13.0,100.0
13197,38.0,3,120,14.0,100.0
13198,76.0,25,30,10.0,75.0
13199,73.0,2,30,11.0,75.0
13200,65.0,3,30,12.0,65.0
13201,77.0,18,30,10.0,65.0
13202,74.0,2,30,11.0,65.0
13203,57.0,3,30,12.0,75.0
13204,49.0,4,60,13.0,100.0
13205,37.0,3,60,14.0,100.0
13206,76.0,25,30,10.0,75.0
13207,73.0,2,30,11.0,75.0
13208,65.0,3,30,12.0,65.0
13209,50.0,4,45,13.0,100.0
13210,38.0,3,45,14.0,100.0
13211,77.0,18,30,10.0,39.0
13212,74.0,2,30,11.0,39.0
13213,57.0,3,30,12.0,45.0
13214,65.0,0,720,5.0,94.0
13215,69.0,1,720,5.0,94.0
13216,89.0,26,120,0.0,93.0
13217,65.0,3,120,3.0,96.0
13218,88.0,109,60,0.0,93.0
13219,64.0,11,60,3.0,96.0
13220,89.0,49,50,0.0,93.0
13221,69.0,3,230,1.0,92.0
13222,65.0,11,50,3.0,96.0
13223,57.0,2,240,5.0,94.0
13224,65.0,1,0,5.0,94.0
13225,51.0,3,240,13.0,100.0
13226,39.0,0,240,14.0,100.0
13227,70.0,48,30,10.0,71.0
13228,65.0,1,30,11.0,71.0
13229,65.0,18,30,10.0,84.0
13230,58.0,2,30,11.0,84.0
13231,70.0,28,30,10.0,74.0
13232,65.0,2,30,11.0,74.0
13233,65.0,28,30,10.0,88.0
13234,82.0,1,120,0.0,93.0
13235,58.0,2,30,11.0,88.0
13236,53.0,1,120,12.0,100.0
13237,58.0,3,120,3.0,96.0
13238,70.0,28,30,10.0,79.0
13239,65.0,2,30,11.0,79.0
13240,65.0,24,30,10.0,93.0
13241,58.0,2,30,11.0,93.0
13242,52.0,3,60,12.0,100.0
13243,64.0,1,60,5.0,94.0
13244,70.0,28,30,10.0,82.0
13245,65.0,2,30,11.0,82.0
13246,65.0,24,30,10.0,97.0
13247,58.0,2,30,11.0,97.0
13248,53.0,3,60,12.0,100.0
13249,65.0,1,60,5.0,94.0
13250,50.0,3,240,13.0,100.0
13251,38.0,0,240,14.0,100.0
13252,66.0,28,30,10.0,87.0
13253,61.0,2,30,11.0,87.0
13254,61.0,18,30,10.0,100.0
13255,58.0,2,30,11.0,100.0
13256,66.0,28,30,10.0,87.0
13257,61.0,2,30,11.0,87.0
13258,61.0,28,30,10.0,100.0
13259,58.0,2,30,11.0,100.0
13260,54.0,1,120,12.0,100.0
13261,66.0,1,120,5.0,94.0
13262,66.0,28,30,10.0,87.0
13263,61.0,2,30,11.0,87.0
13264,61.0,24,30,10.0,100.0
13265,58.0,2,30,11.0,100.0
13266,53.0,3,60,12.0,100.0
13267,65.0,1,60,5.0,94.0
13268,66.0,28,30,10.0,87.0
13269,61.0,2,30,11.0,87.0
13270,61.0,24,22,10.0,100.0
13271,58.0,2,22,11.0,100.0
13272,49.0,3,225,13.0,100.0
13273,37.0,3,225,14.0,100.0
13274,73.0,2,240,1.0,92.0
13275,54.0,3,60,12.0,100.0
13276,66.0,1,60,5.0,94.0
13277,64.0,28,30,10.0,87.0
13278,58.0,2,30,11.0,87.0
13279,58.0,18,30,10.0,100.0
13280,55.0,2,30,11.0,100.0
13281,64.0,28,30,10.0,87.0
13282,58.0,2,30,11.0,87.0
13283,58.0,28,30,10.0,100.0
13284,55.0,2,30,11.0,100.0
13285,55.0,1,120,12.0,100.0
13286,67.0,1,120,5.0,94.0
13287,64.0,28,30,10.0,87.0
13288,58.0,2,30,11.0,87.0
13289,58.0,24,30,10.0,100.0
13290,55.0,2,30,11.0,100.0
13291,54.0,3,60,12.0,100.0
13292,66.0,1,60,5.0,94.0
13293,64.0,28,30,10.0,87.0
13294,58.0,2,30,11.0,87.0
13295,58.0,24,30,10.0,100.0
13296,55.0,2,30,11.0,100.0
13297,82.0,0,240,1.0,92.0
13298,55.0,3,60,12.0,100.0
13299,67.0,1,60,5.0,94.0
13300,36.0,3,240,14.0,100.0
13301,67.0,28,30,10.0,87.0
13302,58.0,2,30,11.0,87.0
13303,58.0,24,30,10.0,100.0
13304,55.0,2,30,11.0,100.0
13305,67.0,28,30,10.0,87.0
13306,58.0,2,30,11.0,87.0
13307,58.0,28,30,10.0,100.0
13308,55.0,2,30,11.0,100.0
13309,60.0,1,120,12.0,100.0
13310,72.0,1,120,5.0,94.0
13311,67.0,28,30,10.0,87.0
13312,58.0,2,30,11.0,87.0
13313,58.0,24,30,10.0,100.0
13314,55.0,2,30,11.0,100.0
13315,59.0,3,60,12.0,100.0
13316,71.0,1,60,5.0,94.0
13317,67.0,28,30,10.0,87.0
13318,58.0,2,30,11.0,87.0
13319,58.0,24,22,10.0,100.0
13320,55.0,2,22,11.0,100.0
13321,70.0,2,960,1.0,92.0
13322,64.0,2,480,4.0,94.0
13323,58.0,0,480,4.0,94.0
13324,76.0,2,240,1.0,92.0
13325,60.0,3,60,12.0,100.0
13326,72.0,1,60,5.0,94.0
13327,57.0,28,30,10.0,87.0
13328,57.0,2,30,11.0,87.0
13329,53.0,1,30,12.0,87.0
13330,65.0,25,30,10.0,87.0
13331,60.0,2,30,11.0,87.0
13332,57.0,3,30,12.0,87.0
13333,68.0,25,30,10.0,73.0
13334,64.0,2,30,11.0,73.0
13335,59.0,3,30,12.0,73.0
13336,69.0,25,30,10.0,52.0
13337,65.0,2,30,11.0,52.0
13338,69.0,0,120,1.0,92.0
13339,57.0,0,120,4.0,94.0
13340,77.0,2,120,1.0,92.0
13341,65.0,0,120,4.0,94.0
13342,60.0,3,30,12.0,52.0
13343,48.0,3,600,13.0,100.0
13344,47.0,34,60,13.0,100.0
13345,48.0,60,50,13.0,100.0
13346,65.0,51,30,10.0,69.0
13347,57.0,1,30,11.0,69.0
13348,69.0,18,30,10.0,69.0
13349,65.0,2,30,11.0,69.0
13350,76.0,28,30,10.0,69.0
13351,68.0,2,30,11.0,69.0
13352,77.0,28,30,10.0,60.0
13353,89.0,1,120,0.0,93.0
13354,69.0,2,30,11.0,60.0
13355,65.0,3,120,3.0,96.0
13356,88.0,29,60,0.0,93.0
13357,64.0,11,60,3.0,96.0
13358,89.0,49,50,0.0,93.0
13359,49.0,5,230,13.0,100.0
13360,65.0,11,50,3.0,96.0
13361,57.0,2,240,4.0,94.0
13362,57.0,48,30,10.0,69.0
13363,57.0,1,30,11.0,69.0
13364,53.0,3,30,12.0,87.0
13365,65.0,18,30,10.0,69.0
13366,62.0,2,30,11.0,69.0
13367,57.0,3,30,12.0,87.0
13368,68.0,25,30,10.0,69.0
13369,64.0,2,30,11.0,69.0
13370,62.0,3,30,12.0,87.0
13371,69.0,25,30,10.0,60.0
13372,81.0,1,120,0.0,93.0
13373,65.0,2,30,11.0,60.0
13374,57.0,3,30,12.0,75.0
13375,50.0,4,120,13.0,100.0
13376,57.0,3,120,3.0,96.0
13377,49.0,34,60,13.0,100.0
13378,50.0,60,50,13.0,100.0
13379,65.0,51,30,10.0,69.0
13380,57.0,2,30,11.0,69.0
13381,60.0,1,30,12.0,87.0
13382,69.0,21,30,10.0,69.0
13383,65.0,2,30,11.0,69.0
13384,53.0,3,30,12.0,87.0
13385,76.0,25,30,10.0,69.0
13386,68.0,2,30,11.0,69.0
13387,60.0,3,30,12.0,87.0
13388,77.0,25,30,10.0,60.0
13389,69.0,2,30,11.0,60.0
13390,53.0,3,30,12.0,75.0
13391,77.0,1,120,2.0,93.0
13392,76.0,31,60,2.0,93.0
13393,77.0,60,50,2.0,93.0
13394,57.0,2,240,4.0,94.0
13395,51.0,3,240,13.0,100.0
13396,53.0,1,30,12.0,75.0
13397,58.0,26,30,12.0,56.0
13398,53.0,30,30,12.0,75.0
13399,58.0,30,30,12.0,56.0
13400,70.0,1,120,2.0,93.0
13401,53.0,30,30,12.0,75.0
13402,58.0,30,30,12.0,56.0
13403,53.0,30,30,12.0,75.0
13404,53.0,0,240,7.0,100.0
13405,58.0,30,30,12.0,56.0
13406,50.0,1,240,8.0,100.0
13407,50.0,2,240,13.0,100.0
13408,55.0,1,30,12.0,75.0
13409,58.0,26,30,12.0,56.0
13410,55.0,30,30,12.0,75.0
13411,58.0,30,30,12.0,56.0
13412,55.0,30,30,12.0,75.0
13413,58.0,30,30,12.0,56.0
13414,55.0,30,30,12.0,75.0
13415,58.0,30,22,12.0,56.0
13416,49.0,2,230,13.0,100.0
13417,54.0,29,240,7.0,100.0
13418,61.0,0,240,4.0,94.0
13419,49.0,2,240,8.0,100.0
13420,55.0,25,30,10.0,87.0
13421,55.0,2,30,11.0,87.0
13422,52.0,1,30,12.0,87.0
13423,58.0,21,30,10.0,87.0
13424,58.0,2,30,11.0,87.0
13425,55.0,3,30,12.0,87.0
13426,63.0,25,30,10.0,87.0
13427,57.0,2,30,11.0,87.0
13428,54.0,3,30,12.0,87.0
13429,64.0,25,30,10.0,87.0
13430,58.0,2,30,11.0,87.0
13431,55.0,3,30,12.0,87.0
13432,63.0,25,30,10.0,87.0
13433,57.0,2,30,11.0,87.0
13434,54.0,3,30,12.0,87.0
13435,64.0,25,30,10.0,87.0
13436,58.0,2,30,11.0,87.0
13437,55.0,3,30,12.0,87.0
13438,63.0,25,30,10.0,87.0
13439,57.0,2,30,11.0,87.0
13440,54.0,3,30,12.0,87.0
13441,64.0,25,17,10.0,87.0
13442,58.0,2,17,11.0,87.0
13443,55.0,3,17,12.0,87.0
13444,70.0,0,240,4.0,94.0
13445,58.0,25,30,10.0,87.0
13446,55.0,2,30,11.0,87.0
13447,52.0,1,30,12.0,87.0
13448,64.0,25,30,10.0,87.0
13449,58.0,2,30,11.0,87.0
13450,55.0,3,30,12.0,87.0
13451,66.0,25,30,10.0,87.0
13452,63.0,2,30,11.0,87.0
13453,57.0,3,30,12.0,87.0
13454,67.0,25,30,10.0,87.0
13455,64.0,2,30,11.0,87.0
13456,58.0,3,30,12.0,87.0
13457,66.0,25,30,10.0,87.0
13458,63.0,2,30,11.0,87.0
13459,57.0,3,30,12.0,87.0
13460,67.0,25,30,10.0,87.0
13461,64.0,2,30,11.0,87.0
13462,58.0,3,30,12.0,87.0
13463,66.0,25,30,10.0,87.0
13464,63.0,2,30,11.0,87.0
13465,57.0,3,30,12.0,87.0
13466,67.0,25,17,10.0,87.0
13467,64.0,2,17,11.0,87.0
13468,58.0,3,17,12.0,87.0
13469,64.0,2,240,4.0,94.0
13470,58.0,58,960,4.0,94.0
13471,64.0,25,30,10.0,87.0
13472,58.0,2,30,11.0,87.0
13473,55.0,3,30,12.0,87.0
13474,67.0,25,30,10.0,87.0
13475,64.0,2,30,11.0,87.0
13476,58.0,3,30,12.0,87.0
13477,69.0,25,30,10.0,86.0
13478,66.0,2,30,11.0,86.0
13479,64.0,3,30,12.0,86.0
13480,70.0,25,30,10.0,85.0
13481,67.0,2,30,11.0,85.0
13482,58.0,3,30,12.0,85.0
13483,69.0,25,30,10.0,84.0
13484,66.0,2,30,11.0,84.0
13485,64.0,3,30,12.0,84.0
13486,70.0,25,30,10.0,83.0
13487,67.0,2,30,11.0,83.0
13488,58.0,3,30,12.0,83.0
13489,69.0,25,30,10.0,82.0
13490,66.0,2,30,11.0,82.0
13491,64.0,3,30,12.0,82.0
13492,70.0,25,17,10.0,82.0
13493,67.0,2,17,11.0,82.0
13494,58.0,3,17,12.0,82.0
13495,67.0,25,30,10.0,81.0
13496,64.0,2,30,11.0,81.0
13497,58.0,3,30,12.0,81.0
13498,70.0,25,30,10.0,80.0
13499,67.0,2,30,11.0,80.0
13500,64.0,3,30,12.0,80.0
13501,75.0,25,30,10.0,80.0
13502,69.0,2,30,11.0,80.0
13503,66.0,3,30,12.0,80.0
13504,76.0,25,30,10.0,79.0
13505,70.0,2,30,11.0,79.0
13506,67.0,3,30,12.0,79.0
13507,75.0,25,30,10.0,78.0
13508,69.0,2,30,11.0,78.0
13509,66.0,3,30,12.0,78.0
13510,76.0,25,30,10.0,78.0
13511,70.0,2,30,11.0,78.0
13512,67.0,3,30,12.0,78.0
13513,75.0,25,30,10.0,77.0
13514,69.0,2,30,11.0,77.0
13515,66.0,3,30,12.0,77.0
13516,76.0,25,17,10.0,76.0
13517,70.0,2,17,11.0,76.0
13518,67.0,3,17,12.0,76.0
13519,70.0,25,30,10.0,75.0
13520,67.0,2,30,11.0,75.0
13521,64.0,3,30,12.0,75.0
13522,76.0,25,30,10.0,74.0
13523,70.0,2,30,11.0,74.0
13524,67.0,3,30,12.0,74.0
13525,78.0,25,30,10.0,73.0
13526,75.0,2,30,11.0,73.0
13527,69.0,3,30,12.0,73.0
13528,79.0,25,30,10.0,73.0
13529,76.0,2,30,11.0,73.0
13530,58.0,0,1560,7.0,100.0
13531,55.0,2,1080,7.0,100.0
13532,70.0,3,30,12.0,73.0
13533,48.0,2,1080,8.0,100.0
13534,48.0,2,1080,13.0,100.0
13535,78.0,25,30,10.0,73.0
13536,75.0,2,30,11.0,73.0
13537,69.0,3,30,12.0,73.0
13538,79.0,25,30,10.0,72.0
13539,76.0,2,30,11.0,72.0
13540,70.0,3,30,12.0,72.0
13541,78.0,25,30,10.0,71.0
13542,75.0,2,30,11.0,71.0
13543,69.0,3,30,12.0,71.0
13544,79.0,25,17,10.0,70.0
13545,76.0,2,17,11.0,70.0
13546,70.0,3,17,12.0,70.0
13547,69.0,25,60,10.0,60.0
13548,65.0,2,60,11.0,60.0
13549,69.0,1,60,12.0,60.0
13550,69.0,1,230,6.0,88.0
13551,72.0,0,230,6.0,88.0
13552,69.0,0,230,1.0,92.0
13553,53.0,0,230,7.0,100.0
13554,57.0,1,230,7.0,100.0
13555,65.0,0,230,5.0,94.0
13556,57.0,1,230,5.0,94.0
13557,50.0,1,230,8.0,100.0
13558,38.0,5,230,3.0,96.0
13559,53.0,0,230,3.0,96.0
13560,50.0,0,230,3.0,96.0
13561,60.0,228,30,10.0,104.0
13562,57.0,2,30,11.0,104.0
13563,53.0,3,30,12.0,104.0
13564,65.0,18,30,10.0,98.0
13565,60.0,2,30,11.0,98.0
13566,57.0,3,30,12.0,98.0
13567,68.0,25,30,10.0,93.0
13568,64.0,2,30,11.0,93.0
13569,59.0,3,30,12.0,93.0
13570,69.0,25,30,10.0,87.0
13571,65.0,2,30,11.0,87.0
13572,60.0,3,30,12.0,87.0
13573,68.0,25,30,10.0,82.0
13574,64.0,2,30,11.0,82.0
13575,59.0,3,30,12.0,82.0
13576,69.0,25,30,10.0,81.0
13577,65.0,2,30,11.0,81.0
13578,60.0,3,30,12.0,81.0
13579,68.0,25,30,10.0,80.0
13580,64.0,2,30,11.0,80.0
13581,59.0,3,30,12.0,80.0
13582,69.0,25,20,10.0,79.0
13583,65.0,2,20,11.0,79.0
13584,60.0,3,20,12.0,79.0
13585,41.0,4,230,13.0,100.0
13586,48.0,0,230,13.0,100.0
13587,29.0,3,230,14.0,100.0
13588,72.0,0,480,6.0,88.0
13589,69.0,231,480,6.0,88.0
13590,53.0,0,480,7.0,100.0
13591,57.0,0,480,7.0,100.0
13592,69.0,1,480,1.0,92.0
13593,65.0,0,480,5.0,94.0
13594,57.0,2,480,5.0,94.0
13595,48.0,1,480,8.0,100.0
13596,53.0,5,480,3.0,96.0
13597,48.0,0,480,3.0,96.0
13598,36.0,0,480,3.0,96.0
13599,60.0,25,30,10.0,93.0
13600,57.0,2,30,11.0,93.0
13601,53.0,3,30,12.0,93.0
13602,65.0,18,30,10.0,87.0
13603,60.0,2,30,11.0,87.0
13604,57.0,3,30,12.0,87.0
13605,68.0,25,30,10.0,82.0
13606,64.0,2,30,11.0,82.0
13607,59.0,3,30,12.0,82.0
13608,69.0,25,30,10.0,78.0
13609,65.0,2,30,11.0,78.0
13610,60.0,3,30,12.0,78.0
13611,68.0,25,30,10.0,73.0
13612,64.0,2,30,11.0,73.0
13613,59.0,3,30,12.0,73.0
13614,69.0,25,30,10.0,72.0
13615,65.0,2,30,11.0,72.0
13616,60.0,3,30,12.0,72.0
13617,68.0,25,30,10.0,71.0
13618,64.0,2,30,11.0,71.0
13619,59.0,3,30,12.0,71.0
13620,41.0,0,230,13.0,100.0
13621,48.0,4,230,13.0,100.0
13622,69.0,25,30,10.0,60.0
13623,65.0,2,30,11.0,60.0
13624,29.0,3,230,14.0,100.0
13625,60.0,3,30,12.0,60.0
13626,72.0,28,230,6.0,88.0
13627,69.0,0,230,6.0,88.0
13628,60.0,0,230,7.0,100.0
13629,57.0,0,230,7.0,100.0
13630,60.0,2,230,5.0,94.0
13631,69.0,0,230,5.0,94.0
13632,53.0,1,230,8.0,100.0
13633,72.0,0,0,1.0,92.0
13634,69.0,0,0,1.0,92.0
13635,41.0,0,240,3.0,96.0
13636,53.0,0,240,3.0,96.0
13637,57.0,0,0,3.0,96.0
13638,64.0,228,30,10.0,104.0
13639,60.0,2,30,11.0,104.0
13640,57.0,3,30,12.0,104.0
13641,69.0,18,30,10.0,98.0
13642,64.0,2,30,11.0,98.0
13643,60.0,3,30,12.0,98.0
13644,71.0,25,30,10.0,93.0
13645,68.0,2,30,11.0,93.0
13646,64.0,3,30,12.0,93.0
13647,72.0,25,30,10.0,87.0
13648,69.0,2,30,11.0,87.0
13649,60.0,3,30,12.0,87.0
13650,71.0,25,30,10.0,82.0
13651,68.0,2,30,11.0,82.0
13652,64.0,3,30,12.0,82.0
13653,72.0,25,30,10.0,81.0
13654,69.0,2,30,11.0,81.0
13655,60.0,3,30,12.0,81.0
13656,71.0,25,30,10.0,80.0
13657,68.0,2,30,11.0,80.0
13658,64.0,3,30,12.0,80.0
13659,72.0,25,20,10.0,79.0
13660,69.0,2,20,11.0,79.0
13661,60.0,3,20,12.0,79.0
13662,45.0,0,230,13.0,100.0
13663,52.0,4,230,13.0,100.0
13664,33.0,3,230,14.0,100.0
13665,69.0,231,480,6.0,88.0
13666,72.0,0,480,6.0,88.0
13667,60.0,1,480,7.0,100.0
13668,57.0,0,480,7.0,100.0
13669,60.0,2,480,5.0,94.0
13670,69.0,0,480,5.0,94.0
13671,52.0,1,480,8.0,100.0
13672,40.0,5,480,3.0,96.0
13673,52.0,0,480,3.0,96.0
13674,64.0,25,30,10.0,93.0
13675,60.0,2,30,11.0,93.0
13676,57.0,3,30,12.0,93.0
13677,69.0,18,30,10.0,87.0
13678,64.0,2,30,11.0,87.0
13679,60.0,3,30,12.0,87.0
13680,71.0,25,30,10.0,82.0
13681,68.0,2,30,11.0,82.0
13682,64.0,3,30,12.0,82.0
13683,72.0,25,30,10.0,78.0
13684,69.0,2,30,11.0,78.0
13685,60.0,3,30,12.0,78.0
13686,71.0,25,30,10.0,73.0
13687,68.0,2,30,11.0,73.0
13688,64.0,3,30,12.0,73.0
13689,72.0,25,30,10.0,72.0
13690,69.0,2,30,11.0,72.0
13691,60.0,3,30,12.0,72.0
13692,71.0,25,30,10.0,71.0
13693,68.0,2,30,11.0,71.0
13694,64.0,3,30,12.0,71.0
13695,45.0,4,230,13.0,100.0
13696,52.0,0,230,13.0,100.0
13697,72.0,25,30,10.0,60.0
13698,33.0,3,230,14.0,100.0
13699,69.0,2,30,11.0,60.0
13700,60.0,3,30,12.0,60.0
13701,72.0,28,230,6.0,103.0
13702,60.0,0,230,6.0,103.0
13703,64.0,0,230,7.0,100.0
13704,60.0,1,230,7.0,100.0
13705,60.0,2,230,5.0,94.0
13706,48.0,0,230,5.0,94.0
13707,57.0,1,230,8.0,100.0
13708,72.0,0,0,1.0,92.0
13709,64.0,1,0,4.0,94.0
13710,76.0,0,0,1.0,92.0
13711,60.0,0,0,4.0,94.0
13712,60.0,0,240,3.0,96.0
13713,57.0,5,240,3.0,96.0
13714,58.0,0,240,7.0,100.0
13715,55.0,1,240,8.0,100.0
13716,55.0,5,240,3.0,96.0
13717,58.0,0,240,3.0,96.0
13718,60.0,228,30,10.0,100.0
13719,57.0,2,30,11.0,100.0
13720,53.0,1,30,12.0,100.0
13721,65.0,18,30,10.0,100.0
13722,60.0,2,30,11.0,100.0
13723,77.0,2,60,1.0,92.0
13724,74.0,0,60,1.0,92.0
13725,65.0,0,60,4.0,94.0
13726,62.0,0,60,4.0,94.0
13727,57.0,3,30,12.0,100.0
13728,69.0,25,30,10.0,100.0
13729,65.0,2,30,11.0,100.0
13730,60.0,3,30,12.0,100.0
13731,72.0,6,20,10.0,100.0
13732,69.0,2,20,11.0,100.0
13733,65.0,3,20,12.0,100.0
13734,72.0,0,60,1.0,92.0
13735,76.0,0,60,1.0,92.0
13736,60.0,0,60,4.0,94.0
13737,64.0,19,60,4.0,94.0
13738,65.0,25,30,10.0,100.0
13739,60.0,2,30,11.0,100.0
13740,57.0,3,30,12.0,100.0
13741,69.0,25,30,10.0,100.0
13742,65.0,2,30,11.0,100.0
13743,60.0,3,30,12.0,100.0
13744,72.0,16,30,10.0,100.0
13745,69.0,2,30,11.0,100.0
13746,65.0,3,30,12.0,100.0
13747,74.0,0,60,1.0,92.0
13748,77.0,0,60,1.0,92.0
13749,65.0,9,60,4.0,94.0
13750,62.0,0,60,4.0,94.0
13751,77.0,25,20,10.0,100.0
13752,72.0,2,20,11.0,100.0
13753,69.0,3,20,12.0,100.0
13754,36.0,0,230,13.0,100.0
13755,48.0,0,230,13.0,100.0
13756,53.0,2,230,13.0,100.0
13757,57.0,0,230,13.0,100.0
13758,36.0,0,230,14.0,100.0
13759,57.0,0,240,7.0,100.0
13760,53.0,2,240,8.0,100.0
13761,53.0,0,240,3.0,96.0
13762,57.0,3,240,3.0,96.0
13763,36.0,0,0,3.0,96.0
13764,70.0,25,30,10.0,100.0
13765,67.0,2,30,11.0,100.0
13766,64.0,1,30,12.0,100.0
13767,76.0,18,30,10.0,100.0
13768,70.0,2,30,11.0,100.0
13769,67.0,3,30,12.0,100.0
13770,78.0,25,30,10.0,100.0
13771,75.0,2,30,11.0,100.0
13772,69.0,3,30,12.0,100.0
13773,79.0,25,30,10.0,100.0
13774,76.0,2,30,11.0,100.0
13775,70.0,3,30,12.0,100.0
13776,78.0,25,30,10.0,100.0
13777,75.0,2,30,11.0,100.0
13778,69.0,3,30,12.0,100.0
13779,79.0,25,30,10.0,100.0
13780,76.0,2,30,11.0,100.0
13781,70.0,3,30,12.0,100.0
13782,78.0,25,30,10.0,100.0
13783,75.0,2,30,11.0,100.0
13784,69.0,3,30,12.0,100.0
13785,79.0,25,20,10.0,100.0
13786,76.0,2,20,11.0,100.0
13787,72.0,231,710,6.0,103.0
13788,60.0,0,710,6.0,103.0
13789,70.0,3,20,12.0,100.0
13790,60.0,0,710,5.0,94.0
13791,48.0,2,710,5.0,94.0
13792,36.0,0,230,13.0,100.0
13793,55.0,2,230,13.0,100.0
13794,52.0,0,230,13.0,100.0
13795,48.0,0,230,13.0,100.0
13796,36.0,3,230,14.0,100.0
13797,79.0,2,240,1.0,92.0
13798,60.0,0,0,7.0,100.0
13799,55.0,0,240,7.0,100.0
13800,64.0,0,240,4.0,94.0
13801,67.0,0,240,4.0,94.0
13802,76.0,0,240,1.0,92.0
13803,52.0,2,240,8.0,100.0
13804,52.0,0,240,3.0,96.0
13805,55.0,0,240,3.0,96.0
13806,65.0,25,30,10.0,100.0
13807,60.0,2,30,11.0,100.0
13808,57.0,1,30,12.0,100.0
13809,69.0,18,30,10.0,100.0
13810,65.0,2,30,11.0,100.0
13811,77.0,0,60,1.0,92.0
13812,65.0,0,60,4.0,94.0
13813,69.0,1,60,4.0,94.0
13814,81.0,0,60,1.0,92.0
13815,60.0,3,30,12.0,100.0
13816,72.0,25,30,10.0,100.0
13817,69.0,2,30,11.0,100.0
13818,65.0,3,30,12.0,100.0
13819,77.0,6,20,10.0,100.0
13820,72.0,2,20,11.0,100.0
13821,69.0,3,20,12.0,100.0
13822,67.0,0,60,4.0,94.0
13823,76.0,19,60,1.0,92.0
13824,79.0,0,60,1.0,92.0
13825,64.0,0,60,4.0,94.0
13826,69.0,25,30,10.0,100.0
13827,65.0,2,30,11.0,100.0
13828,60.0,3,30,12.0,100.0
13829,72.0,25,30,10.0,100.0
13830,69.0,2,30,11.0,100.0
13831,65.0,3,30,12.0,100.0
13832,77.0,16,30,10.0,100.0
13833,72.0,2,30,11.0,100.0
13834,69.0,3,30,12.0,100.0
13835,81.0,9,60,1.0,92.0
13836,69.0,0,60,4.0,94.0
13837,65.0,0,60,4.0,94.0
13838,77.0,0,60,1.0,92.0
13839,81.0,25,20,10.0,100.0
13840,77.0,2,20,11.0,100.0
13841,72.0,0,230,6.0,103.0
13842,60.0,1,230,6.0,103.0
13843,53.0,0,230,7.0,100.0
13844,72.0,3,20,12.0,100.0
13845,48.0,0,230,5.0,94.0
13846,60.0,1,230,5.0,94.0
13847,50.0,1,230,8.0,100.0
13848,36.0,0,230,13.0,100.0
13849,48.0,0,230,13.0,100.0
13850,50.0,0,230,13.0,100.0
13851,53.0,2,230,13.0,100.0
13852,36.0,0,230,14.0,100.0
13853,36.0,3,0,3.0,96.0
13854,50.0,3,240,3.0,96.0
13855,53.0,0,240,3.0,96.0
13856,76.0,25,30,10.0,100.0
13857,70.0,2,30,11.0,100.0
13858,67.0,1,30,12.0,100.0
13859,79.0,18,30,10.0,100.0
13860,76.0,2,30,11.0,100.0
13861,70.0,3,30,12.0,100.0
13862,81.0,25,30,10.0,100.0
13863,78.0,2,30,11.0,100.0
13864,76.0,3,30,12.0,100.0
13865,82.0,25,30,10.0,100.0
13866,79.0,2,30,11.0,100.0
13867,72.0,3,30,12.0,100.0
13868,81.0,25,30,10.0,100.0
13869,78.0,2,30,11.0,100.0
13870,76.0,3,30,12.0,100.0
13871,82.0,25,30,10.0,100.0
13872,79.0,2,30,11.0,100.0
13873,72.0,3,30,12.0,100.0
13874,81.0,25,30,10.0,100.0
13875,78.0,2,30,11.0,100.0
13876,76.0,3,30,12.0,100.0
13877,82.0,25,20,10.0,100.0
13878,79.0,2,20,11.0,100.0
13879,52.0,0,230,7.0,100.0
13880,72.0,3,20,12.0,100.0
13881,82.0,1,240,1.0,92.0
13882,79.0,0,240,1.0,92.0
13883,70.0,0,240,4.0,94.0
13884,67.0,0,240,4.0,94.0
13885,52.0,2,240,13.0,100.0
13886,52.0,0,240,3.0,96.0
13887,70.0,25,30,10.0,100.0
13888,67.0,2,30,11.0,100.0
13889,64.0,1,30,12.0,100.0
13890,76.0,18,30,10.0,98.0
13891,70.0,2,30,11.0,98.0
13892,67.0,3,30,12.0,98.0
13893,78.0,25,30,10.0,96.0
13894,75.0,2,30,11.0,96.0
13895,69.0,3,30,12.0,96.0
13896,72.0,1,350,6.0,103.0
13897,60.0,0,350,6.0,103.0
13898,53.0,0,110,7.0,100.0
13899,60.0,0,350,7.0,100.0
13900,48.0,0,350,5.0,94.0
13901,60.0,1,350,5.0,94.0
13902,48.0,1,350,8.0,100.0
13903,48.0,0,350,13.0,100.0
13904,36.0,0,350,13.0,100.0
13905,79.0,25,30,10.0,94.0
13906,76.0,2,30,11.0,94.0
13907,36.0,0,350,14.0,100.0
13908,64.0,0,120,4.0,94.0
13909,76.0,0,120,1.0,92.0
13910,60.0,0,120,4.0,94.0
13911,72.0,2,120,1.0,92.0
13912,70.0,3,30,12.0,94.0
13913,55.0,4,120,13.0,100.0
13914,48.0,0,360,3.0,96.0
13915,55.0,3,120,3.0,96.0
13916,78.0,25,30,10.0,90.0
13917,75.0,2,30,11.0,90.0
13918,69.0,3,30,12.0,90.0
13919,79.0,25,30,10.0,88.0
13920,76.0,2,30,11.0,88.0
13921,70.0,3,30,12.0,88.0
13922,78.0,25,30,10.0,86.0
13923,75.0,2,30,11.0,86.0
13924,69.0,3,30,12.0,86.0
13925,79.0,25,20,10.0,84.0
13926,76.0,2,20,11.0,84.0
13927,70.0,3,20,12.0,84.0
13928,67.0,25,30,10.0,81.0
13929,64.0,2,30,11.0,81.0
13930,58.0,3,30,12.0,81.0
13931,70.0,25,30,10.0,79.0
13932,67.0,2,30,11.0,79.0
13933,64.0,3,30,12.0,79.0
13934,75.0,25,30,10.0,77.0
13935,69.0,2,30,11.0,77.0
13936,66.0,3,30,12.0,77.0
13937,76.0,25,30,10.0,75.0
13938,70.0,2,30,11.0,75.0
13939,67.0,3,30,12.0,75.0
13940,75.0,25,30,10.0,72.0
13941,69.0,2,30,11.0,72.0
13942,66.0,3,30,12.0,72.0
13943,76.0,25,30,10.0,70.0
13944,70.0,2,30,11.0,70.0
13945,67.0,3,30,12.0,70.0
13946,75.0,25,30,10.0,68.0
13947,69.0,2,30,11.0,68.0
13948,66.0,3,30,12.0,68.0
13949,76.0,25,20,10.0,67.0
13950,70.0,2,20,11.0,67.0
13951,67.0,3,20,12.0,67.0
13952,69.0,25,60,10.0,55.0
13953,69.0,2,60,11.0,55.0
13954,60.0,1,60,12.0,55.0
13955,69.0,1,230,6.0,103.0
13956,60.0,0,230,7.0,100.0
13957,57.0,0,230,7.0,100.0
13958,69.0,1,230,1.0,92.0
13959,60.0,0,230,5.0,94.0
13960,69.0,1,230,5.0,94.0
13961,53.0,1,230,8.0,100.0
13962,60.0,0,230,3.0,96.0
13963,53.0,5,230,3.0,96.0
13964,57.0,228,30,10.0,104.0
13965,57.0,2,30,11.0,104.0
13966,54.0,3,30,12.0,104.0
13967,66.0,18,30,10.0,98.0
13968,64.0,2,30,11.0,98.0
13969,57.0,3,30,12.0,98.0
13970,68.0,25,30,10.0,93.0
13971,66.0,2,30,11.0,93.0
13972,62.0,3,30,12.0,93.0
13973,69.0,25,30,10.0,87.0
13974,68.0,2,30,11.0,87.0
13975,57.0,3,30,12.0,87.0
13976,68.0,25,30,10.0,82.0
13977,66.0,2,30,11.0,82.0
13978,62.0,3,30,12.0,82.0
13979,69.0,25,30,10.0,81.0
13980,68.0,2,30,11.0,81.0
13981,57.0,3,30,12.0,81.0
13982,68.0,25,30,10.0,80.0
13983,66.0,2,30,11.0,80.0
13984,62.0,3,30,12.0,80.0
13985,69.0,25,20,10.0,79.0
13986,68.0,2,20,11.0,79.0
13987,57.0,3,20,12.0,79.0
13988,38.0,4,230,13.0,100.0
13989,45.0,0,230,13.0,100.0
13990,38.0,0,230,3.0,96.0
13991,38.0,3,230,14.0,100.0
13992,69.0,231,480,6.0,103.0
13993,62.0,0,480,7.0,100.0
13994,57.0,0,480,7.0,100.0
13995,69.0,1,480,1.0,92.0
13996,69.0,2,480,5.0,94.0
13997,62.0,0,480,5.0,94.0
13998,54.0,1,480,8.0,100.0
13999,54.0,0,480,3.0,96.0
14000,57.0,5,480,3.0,96.0
14001,57.0,25,30,10.0,93.0
14002,57.0,2,30,11.0,93.0
14003,54.0,3,30,12.0,93.0
14004,66.0,18,30,10.0,87.0
14005,62.0,2,30,11.0,87.0
14006,57.0,3,30,12.0,87.0
14007,68.0,25,30,10.0,82.0
14008,65.0,2,30,11.0,82.0
14009,62.0,3,30,12.0,82.0
14010,69.0,25,30,10.0,78.0
14011,66.0,2,30,11.0,78.0
14012,57.0,3,30,12.0,78.0
14013,68.0,25,30,10.0,73.0
14014,65.0,2,30,11.0,73.0
14015,62.0,3,30,12.0,73.0
14016,69.0,25,30,10.0,72.0
14017,66.0,2,30,11.0,72.0
14018,57.0,3,30,12.0,72.0
14019,68.0,25,30,10.0,71.0
14020,65.0,2,30,11.0,71.0
14021,62.0,3,30,12.0,71.0
14022,38.0,0,230,13.0,100.0
14023,45.0,4,230,13.0,100.0
14024,69.0,25,30,10.0,60.0
14025,66.0,2,30,11.0,60.0
14026,38.0,0,230,14.0,100.0
14027,38.0,3,230,3.0,96.0
14028,57.0,3,30,12.0,60.0
14029,62.0,0,230,7.0,100.0
14030,57.0,29,230,7.0,100.0
14031,69.0,0,230,1.0,92.0
14032,74.0,0,230,1.0,92.0
14033,62.0,0,230,5.0,94.0
14034,62.0,2,230,2.0,93.0
14035,50.0,1,230,8.0,100.0
14036,66.0,5,230,3.0,96.0
14037,50.0,0,230,3.0,96.0
14038,65.0,228,30,10.0,104.0
14039,62.0,2,30,11.0,104.0
14040,58.0,3,30,12.0,104.0
14041,70.0,18,30,10.0,98.0
14042,65.0,2,30,11.0,98.0
14043,62.0,3,30,12.0,98.0
14044,73.0,25,30,10.0,93.0
14045,69.0,2,30,11.0,93.0
14046,65.0,3,30,12.0,93.0
14047,74.0,25,30,10.0,87.0
14048,70.0,2,30,11.0,87.0
14049,62.0,3,30,12.0,87.0
14050,73.0,25,30,10.0,82.0
14051,69.0,2,30,11.0,82.0
14052,65.0,3,30,12.0,82.0
14053,74.0,25,30,10.0,81.0
14054,70.0,2,30,11.0,81.0
14055,62.0,3,30,12.0,81.0
14056,73.0,25,30,10.0,80.0
14057,69.0,2,30,11.0,80.0
14058,65.0,3,30,12.0,80.0
14059,74.0,25,20,10.0,79.0
14060,70.0,2,20,11.0,79.0
14061,62.0,3,20,12.0,79.0
14062,46.0,0,230,13.0,100.0
14063,50.0,4,230,13.0,100.0
14064,34.0,0,230,14.0,100.0
14065,34.0,3,230,3.0,96.0
14066,65.0,231,480,6.0,103.0
14067,65.0,0,480,7.0,100.0
14068,70.0,0,480,1.0,92.0
14069,74.0,0,480,1.0,92.0
14070,58.0,1,480,7.0,100.0
14071,62.0,0,480,5.0,94.0
14072,65.0,2,480,5.0,94.0
14073,65.0,0,480,2.0,93.0
14074,50.0,1,480,8.0,100.0
14075,62.0,0,480,3.0,96.0
14076,50.0,5,480,3.0,96.0
14077,65.0,25,30,10.0,93.0
14078,62.0,2,30,11.0,93.0
14079,58.0,3,30,12.0,93.0
14080,70.0,18,30,10.0,87.0
14081,65.0,2,30,11.0,87.0
14082,62.0,3,30,12.0,87.0
14083,73.0,25,30,10.0,82.0
14084,69.0,2,30,11.0,82.0
14085,65.0,3,30,12.0,82.0
14086,74.0,25,30,10.0,78.0
14087,70.0,2,30,11.0,78.0
14088,62.0,3,30,12.0,78.0
14089,73.0,25,30,10.0,73.0
14090,69.0,2,30,11.0,73.0
14091,65.0,3,30,12.0,73.0
14092,74.0,25,30,10.0,72.0
14093,70.0,2,30,11.0,72.0
14094,62.0,3,30,12.0,72.0
14095,73.0,25,30,10.0,71.0
14096,69.0,2,30,11.0,71.0
14097,65.0,3,30,12.0,71.0
14098,50.0,0,230,13.0,100.0
14099,46.0,4,230,13.0,100.0
14100,74.0,25,30,10.0,52.0
14101,34.0,3,230,3.0,96.0
14102,70.0,2,30,11.0,52.0
14103,34.0,0,230,14.0,100.0
14104,62.0,3,30,12.0,52.0
14105,91.0,0,235,0.0,93.0
14106,86.0,26,235,0.0,93.0
14107,79.0,0,235,1.0,92.0
14108,67.0,0,235,4.0,94.0
14109,62.0,3,235,4.0,94.0
14110,74.0,0,235,1.0,92.0
14111,58.0,0,235,7.0,100.0
14112,67.0,0,235,7.0,100.0
14113,67.0,0,235,5.0,94.0
14114,79.0,2,235,2.0,93.0
14115,74.0,0,235,2.0,93.0
14116,70.0,0,235,5.0,94.0
14117,46.0,1,235,8.0,100.0
14118,55.0,0,230,3.0,96.0
14119,58.0,5,230,3.0,96.0
14120,87.0,229,240,0.0,93.0
14121,91.0,0,240,0.0,93.0
14122,75.0,3,240,1.0,92.0
14123,67.0,0,240,4.0,94.0
14124,63.0,0,240,4.0,94.0
14125,79.0,0,240,1.0,92.0
14126,79.0,2,240,2.0,93.0
14127,75.0,0,240,2.0,93.0
14128,67.0,228,30,10.0,82.0
14129,61.0,1,30,11.0,71.0
14130,58.0,1,30,12.0,71.0
14131,70.0,18,30,10.0,84.0
14132,85.0,0,60,0.0,93.0
14133,89.0,1,60,0.0,93.0
14134,58.0,2,30,11.0,84.0
14135,77.0,0,60,1.0,92.0
14136,61.0,0,60,4.0,94.0
14137,65.0,0,60,4.0,94.0
14138,73.0,2,60,1.0,92.0
14139,55.0,3,30,12.0,84.0
14140,77.0,1,60,2.0,93.0
14141,73.0,0,60,2.0,93.0
14142,73.0,25,30,10.0,87.0
14143,61.0,2,30,11.0,75.0
14144,58.0,3,30,12.0,75.0
14145,79.0,4,20,10.0,89.0
14146,58.0,2,30,11.0,89.0
14147,55.0,3,30,12.0,89.0
14148,87.0,16,60,0.0,93.0
14149,91.0,0,60,0.0,93.0
14150,79.0,0,60,1.0,92.0
14151,63.0,0,60,4.0,94.0
14152,67.0,0,60,4.0,94.0
14153,75.0,3,60,1.0,92.0
14154,79.0,0,60,2.0,93.0
14155,75.0,2,60,2.0,93.0
14156,67.0,25,30,10.0,92.0
14157,61.0,2,30,11.0,80.0
14158,58.0,3,30,12.0,80.0
14159,70.0,25,30,10.0,94.0
14160,58.0,2,30,11.0,94.0
14161,55.0,3,30,12.0,94.0
14162,73.0,14,30,10.0,97.0
14163,61.0,2,30,11.0,84.0
14164,58.0,3,30,12.0,84.0
14165,85.0,6,60,0.0,93.0
14166,89.0,0,60,0.0,93.0
14167,61.0,0,60,4.0,94.0
14168,65.0,3,60,4.0,94.0
14169,73.0,0,60,1.0,92.0
14170,77.0,0,60,1.0,92.0
14171,77.0,2,60,2.0,93.0
14172,73.0,0,60,2.0,93.0
14173,77.0,25,20,10.0,100.0
14174,58.0,2,20,11.0,100.0
14175,55.0,3,20,12.0,100.0
14176,43.0,3,230,13.0,100.0
14177,31.0,3,230,3.0,96.0
14178,31.0,0,230,14.0,100.0
14179,67.0,25,30,10.0,100.0
14180,60.0,1,30,11.0,87.0
14181,58.0,1,30,12.0,87.0
14182,70.0,18,30,10.0,100.0
14183,58.0,2,30,11.0,100.0
14184,55.0,3,30,12.0,100.0
14185,72.0,25,30,10.0,100.0
14186,60.0,2,30,11.0,87.0
14187,58.0,3,30,12.0,87.0
14188,76.0,25,30,10.0,87.0
14189,58.0,2,30,11.0,100.0
14190,55.0,3,30,12.0,100.0
14191,72.0,25,30,10.0,100.0
14192,60.0,2,30,11.0,87.0
14193,58.0,3,30,12.0,87.0
14194,76.0,25,30,10.0,87.0
14195,58.0,2,30,11.0,100.0
14196,55.0,3,30,12.0,100.0
14197,72.0,25,30,10.0,100.0
14198,60.0,2,30,11.0,87.0
14199,58.0,3,30,12.0,87.0
14200,76.0,25,20,10.0,87.0
14201,58.0,2,20,11.0,100.0
14202,55.0,3,20,12.0,100.0
14203,48.0,3,230,13.0,100.0
14204,88.0,1,240,0.0,93.0
14205,84.0,0,240,0.0,93.0
14206,36.0,0,230,14.0,100.0
14207,36.0,3,230,3.0,96.0
14208,64.0,2,240,4.0,94.0
14209,72.0,0,240,1.0,92.0
14210,76.0,0,240,1.0,92.0
14211,58.0,0,720,7.0,100.0
14212,67.0,0,720,7.0,100.0
14213,60.0,0,240,4.0,94.0
14214,76.0,0,240,2.0,93.0
14215,72.0,1,240,2.0,93.0
14216,70.0,0,720,5.0,94.0
14217,67.0,0,720,5.0,94.0
14218,46.0,1,720,8.0,100.0
14219,58.0,5,720,3.0,96.0
14220,55.0,0,0,3.0,96.0
14221,65.0,25,30,10.0,100.0
14222,62.0,1,30,11.0,87.0
14223,58.0,1,30,12.0,87.0
14224,67.0,18,30,10.0,100.0
14225,86.0,0,60,0.0,93.0
14226,83.0,1,60,0.0,93.0
14227,58.0,2,30,11.0,100.0
14228,62.0,2,60,4.0,94.0
14229,65.0,0,60,4.0,94.0
14230,71.0,0,60,1.0,92.0
14231,74.0,0,60,1.0,92.0
14232,55.0,3,30,12.0,100.0
14233,71.0,1,60,2.0,93.0
14234,74.0,0,60,2.0,93.0
14235,70.0,25,30,10.0,100.0
14236,62.0,2,30,11.0,87.0
14237,58.0,3,30,12.0,87.0
14238,74.0,4,20,10.0,100.0
14239,58.0,2,30,11.0,100.0
14240,55.0,3,30,12.0,100.0
14241,88.0,16,60,0.0,93.0
14242,84.0,0,60,0.0,93.0
14243,72.0,3,60,1.0,92.0
14244,76.0,0,60,1.0,92.0
14245,60.0,0,60,4.0,94.0
14246,64.0,0,60,4.0,94.0
14247,76.0,0,60,2.0,93.0
14248,72.0,2,60,2.0,93.0
14249,65.0,25,30,10.0,100.0
14250,62.0,2,30,11.0,87.0
14251,58.0,3,30,12.0,87.0
14252,67.0,25,30,10.0,100.0
14253,58.0,2,30,11.0,100.0
14254,55.0,3,30,12.0,100.0
14255,70.0,14,30,10.0,100.0
14256,62.0,2,30,11.0,87.0
14257,58.0,3,30,12.0,87.0
14258,86.0,0,60,0.0,93.0
14259,83.0,6,60,0.0,93.0
14260,65.0,0,60,4.0,94.0
14261,62.0,0,60,4.0,94.0
14262,71.0,3,60,1.0,92.0
14263,74.0,0,60,1.0,92.0
14264,74.0,2,60,2.0,93.0
14265,71.0,0,60,2.0,93.0
14266,74.0,25,20,10.0,100.0
14267,58.0,2,20,11.0,100.0
14268,55.0,3,20,12.0,100.0
14269,55.0,2,230,13.0,100.0
14270,58.0,0,230,3.0,96.0
14271,43.0,0,230,3.0,96.0
14272,43.0,3,230,14.0,100.0
14273,67.0,0,240,5.0,94.0
14274,70.0,0,240,5.0,94.0
14275,43.0,1,240,8.0,100.0
14276,63.0,25,30,10.0,100.0
14277,66.0,18,30,10.0,100.0
14278,60.0,1,60,11.0,100.0
14279,57.0,1,60,12.0,100.0
14280,69.0,30,30,10.0,99.0
14281,72.0,25,30,10.0,86.0
14282,63.0,2,60,11.0,100.0
14283,48.0,3,60,12.0,100.0
14284,69.0,30,30,10.0,98.0
14285,72.0,30,30,10.0,84.0
14286,69.0,30,30,10.0,97.0
14287,72.0,30,20,10.0,83.0
14288,60.0,2,230,13.0,100.0
14289,90.0,1,240,0.0,93.0
14290,87.0,0,240,0.0,93.0
14291,36.0,0,230,3.0,96.0
14292,60.0,3,230,3.0,96.0
14293,57.0,0,230,3.0,96.0
14294,48.0,0,230,14.0,100.0
14295,63.0,0,240,4.0,94.0
14296,75.0,0,240,1.0,92.0
14297,78.0,2,240,1.0,92.0
14298,66.0,0,240,4.0,94.0
14299,78.0,0,240,2.0,93.0
14300,75.0,0,240,2.0,93.0
14301,69.0,1,240,5.0,94.0
14302,64.0,30,30,10.0,95.0
14303,67.0,18,30,10.0,95.0
14304,60.0,1,60,11.0,100.0
14305,58.0,1,60,12.0,100.0
14306,69.0,30,30,10.0,94.0
14307,70.0,25,30,10.0,80.0
14308,88.0,1,120,0.0,80.0
14309,91.0,0,120,0.0,80.0
14310,64.0,2,60,11.0,100.0
14311,67.0,0,120,4.0,94.0
14312,64.0,0,120,4.0,94.0
14313,79.0,2,120,1.0,79.0
14314,76.0,0,120,1.0,79.0
14315,48.0,3,60,12.0,100.0
14316,76.0,1,120,2.0,80.0
14317,79.0,0,120,2.0,80.0
14318,60.0,0,360,5.0,94.0
14319,67.0,0,120,5.0,94.0
14320,48.0,1,360,8.0,100.0
14321,58.0,0,120,3.0,83.0
14322,55.0,6,120,3.0,83.0
14323,69.0,30,30,10.0,93.0
14324,70.0,30,30,10.0,80.0
14325,69.0,30,30,10.0,91.0
14326,70.0,30,20,10.0,79.0
14327,58.0,30,30,10.0,90.0
14328,64.0,30,30,10.0,90.0
14329,66.0,30,30,10.0,89.0
14330,67.0,30,30,10.0,76.0
14331,66.0,30,30,10.0,88.0
14332,67.0,30,30,10.0,75.0
14333,66.0,30,30,10.0,86.0
14334,67.0,30,20,10.0,74.0
14335,55.0,30,30,10.0,85.0
14336,58.0,18,30,10.0,84.0
14337,55.0,2,60,11.0,100.0
14338,58.0,1,60,12.0,100.0
14339,63.0,30,30,10.0,84.0
14340,64.0,25,30,10.0,72.0
14341,58.0,2,60,11.0,100.0
14342,48.0,3,60,12.0,100.0
14343,63.0,30,30,10.0,82.0
14344,64.0,30,30,10.0,71.0
14345,63.0,30,30,10.0,81.0
14346,64.0,30,20,10.0,69.0
14347,55.0,0,230,4.0,86.0
14348,48.0,0,230,4.0,86.0
14349,64.0,0,230,7.0,92.0
14350,58.0,2,230,7.0,92.0
14351,58.0,0,230,2.0,85.0
14352,64.0,1,230,2.0,85.0
14353,48.0,1,230,8.0,92.0
14354,48.0,2,230,13.0,100.0
14355,36.0,3,230,14.0,100.0
14356,48.0,0,230,3.0,88.0
14357,57.0,30,30,10.0,100.0
14358,53.0,1,30,12.0,100.0
14359,60.0,18,30,10.0,100.0
14360,57.0,1,60,11.0,100.0
14361,57.0,5,30,12.0,100.0
14362,64.0,25,30,10.0,100.0
14363,59.0,2,30,11.0,100.0
14364,56.0,3,30,12.0,100.0
14365,65.0,25,30,10.0,87.0
14366,60.0,2,30,11.0,87.0
14367,48.0,0,120,4.0,94.0
14368,57.0,0,120,4.0,94.0
14369,57.0,3,30,12.0,87.0
14370,57.0,0,120,2.0,93.0
14371,65.0,0,120,2.0,93.0
14372,48.0,2,120,13.0,100.0
14373,48.0,0,120,3.0,96.0
14374,64.0,25,30,10.0,100.0
14375,59.0,2,30,11.0,100.0
14376,56.0,3,30,12.0,100.0
14377,65.0,18,30,10.0,87.0
14378,60.0,2,30,11.0,87.0
14379,57.0,3,30,12.0,87.0
14380,47.0,4,60,13.0,100.0
14381,47.0,3,60,3.0,96.0
14382,64.0,25,30,10.0,100.0
14383,59.0,2,30,11.0,100.0
14384,56.0,3,30,12.0,100.0
14385,65.0,18,20,10.0,87.0
14386,60.0,2,20,11.0,87.0
14387,57.0,3,20,12.0,87.0
14388,48.0,4,50,13.0,100.0
14389,48.0,3,50,3.0,96.0
14390,65.0,2,240,7.0,100.0
14391,57.0,0,240,7.0,100.0
14392,56.0,25,30,10.0,100.0
14393,53.0,1,30,12.0,100.0
14394,61.0,18,30,10.0,100.0
14395,56.0,2,60,11.0,100.0
14396,56.0,5,30,12.0,87.0
14397,64.0,25,30,10.0,100.0
14398,60.0,2,30,11.0,100.0
14399,55.0,3,30,12.0,100.0
14400,65.0,25,30,10.0,87.0
14401,61.0,2,30,11.0,87.0
14402,56.0,3,30,12.0,87.0
14403,64.0,25,30,10.0,100.0
14404,60.0,2,30,11.0,100.0
14405,55.0,3,30,12.0,100.0
14406,65.0,25,30,10.0,87.0
14407,61.0,2,30,11.0,87.0
14408,56.0,3,30,12.0,87.0
14409,64.0,25,30,10.0,100.0
14410,60.0,2,30,11.0,100.0
14411,55.0,3,30,12.0,100.0
14412,65.0,25,20,10.0,87.0
14413,61.0,2,20,11.0,87.0
14414,56.0,3,20,12.0,87.0
14415,77.0,1,480,0.0,93.0
14416,65.0,0,480,1.0,92.0
14417,53.0,1,480,5.0,94.0
14418,61.0,25,30,10.0,100.0
14419,56.0,1,30,11.0,100.0
14420,53.0,1,30,12.0,100.0
14421,65.0,24,30,10.0,100.0
14422,61.0,2,30,11.0,100.0
14423,56.0,3,30,12.0,100.0
14424,67.0,25,30,10.0,100.0
14425,64.0,2,30,11.0,100.0
14426,61.0,3,30,12.0,87.0
14427,49.0,4,350,13.0,100.0
14428,68.0,25,30,10.0,87.0
14429,65.0,2,30,11.0,87.0
14430,49.0,3,350,3.0,96.0
14431,56.0,3,30,12.0,100.0
14432,67.0,25,30,10.0,100.0
14433,64.0,2,30,11.0,100.0
14434,61.0,3,30,12.0,87.0
14435,68.0,18,30,10.0,87.0
14436,65.0,2,30,11.0,87.0
14437,56.0,3,30,12.0,100.0
14438,48.0,4,60,13.0,100.0
14439,48.0,3,60,3.0,96.0
14440,67.0,25,30,10.0,100.0
14441,64.0,2,30,11.0,100.0
14442,61.0,3,30,12.0,87.0
14443,68.0,18,20,10.0,87.0
14444,65.0,2,20,11.0,87.0
14445,56.0,3,20,12.0,100.0
14446,49.0,4,50,13.0,100.0
14447,49.0,3,50,3.0,96.0
14448,61.0,2,480,7.0,100.0
14449,59.0,25,30,10.0,100.0
14450,56.0,2,30,11.0,100.0
14451,53.0,1,30,12.0,100.0
14452,65.0,18,30,10.0,100.0
14453,62.0,2,30,11.0,100.0
14454,59.0,3,30,12.0,100.0
14455,67.0,25,30,10.0,100.0
14456,64.0,2,30,11.0,100.0
14457,62.0,3,30,12.0,87.0
14458,68.0,25,30,10.0,87.0
14459,65.0,2,30,11.0,87.0
14460,59.0,3,30,12.0,100.0
14461,67.0,25,30,10.0,100.0
14462,64.0,2,30,11.0,100.0
14463,62.0,3,30,12.0,87.0
14464,68.0,25,30,10.0,87.0
14465,65.0,2,30,11.0,87.0
14466,59.0,3,30,12.0,100.0
14467,67.0,25,30,10.0,100.0
14468,64.0,2,30,11.0,100.0
14469,62.0,3,30,12.0,87.0
14470,68.0,25,20,10.0,87.0
14471,65.0,2,20,11.0,87.0
14472,59.0,3,20,12.0,100.0
14473,50.0,4,230,13.0,100.0
14474,80.0,1,480,0.0,93.0
14475,50.0,3,230,3.0,96.0
14476,29.0,3,950,14.0,100.0
14477,68.0,2,480,1.0,92.0
14478,59.0,2,240,7.0,100.0
14479,56.0,0,720,7.0,100.0
14480,56.0,1,480,5.0,94.0
14481,69.0,25,30,10.0,100.0
14482,65.0,1,30,11.0,100.0
14483,60.0,1,30,12.0,100.0
14484,72.0,18,30,10.0,100.0
14485,69.0,2,30,11.0,100.0
14486,65.0,3,30,12.0,100.0
14487,76.0,25,30,10.0,100.0
14488,71.0,2,30,11.0,100.0
14489,68.0,3,30,12.0,100.0
14490,77.0,25,30,10.0,87.0
14491,72.0,2,30,11.0,87.0
14492,57.0,0,120,7.0,100.0
14493,60.0,0,120,7.0,100.0
14494,69.0,3,30,12.0,87.0
14495,41.0,1,1080,8.0,100.0
14496,48.0,3,120,13.0,100.0
14497,48.0,3,120,3.0,96.0
14498,76.0,25,30,10.0,100.0
14499,71.0,2,30,11.0,100.0
14500,68.0,3,30,12.0,100.0
14501,77.0,18,30,10.0,87.0
14502,72.0,2,30,11.0,87.0
14503,69.0,3,30,12.0,87.0
14504,47.0,4,60,13.0,100.0
14505,47.0,3,60,3.0,96.0
14506,76.0,25,30,10.0,100.0
14507,71.0,2,30,11.0,100.0
14508,68.0,3,30,12.0,100.0
14509,77.0,18,20,10.0,87.0
14510,72.0,2,20,11.0,87.0
14511,69.0,3,20,12.0,87.0
14512,48.0,4,50,13.0,100.0
14513,48.0,3,50,3.0,96.0
14514,69.0,0,240,1.0,92.0
14515,65.0,1,240,4.0,94.0
14516,77.0,0,240,1.0,92.0
14517,68.0,25,30,10.0,100.0
14518,65.0,2,30,11.0,100.0
14519,61.0,1,30,12.0,100.0
14520,73.0,18,30,10.0,100.0
14521,68.0,2,30,11.0,100.0
14522,65.0,3,30,12.0,100.0
14523,76.0,25,30,10.0,100.0
14524,72.0,2,30,11.0,100.0
14525,67.0,3,30,12.0,100.0
14526,77.0,25,30,10.0,87.0
14527,73.0,2,30,11.0,87.0
14528,68.0,3,30,12.0,87.0
14529,76.0,25,30,10.0,100.0
14530,72.0,2,30,11.0,100.0
14531,67.0,3,30,12.0,100.0
14532,77.0,25,30,10.0,87.0
14533,73.0,2,30,11.0,87.0
14534,68.0,3,30,12.0,87.0
14535,76.0,25,30,10.0,100.0
14536,72.0,2,30,11.0,100.0
14537,67.0,3,30,12.0,100.0
14538,77.0,25,20,10.0,87.0
14539,73.0,2,20,11.0,87.0
14540,68.0,3,20,12.0,87.0
14541,77.0,1,480,0.0,93.0
14542,65.0,0,480,5.0,94.0
14543,77.0,0,480,2.0,93.0
14544,73.0,25,30,10.0,100.0
14545,68.0,1,30,11.0,100.0
14546,65.0,3,30,12.0,100.0
14547,77.0,24,30,10.0,100.0
14548,73.0,2,30,11.0,100.0
14549,68.0,3,30,12.0,100.0
14550,79.0,25,30,10.0,100.0
14551,76.0,2,30,11.0,100.0
14552,73.0,3,30,12.0,87.0
14553,49.0,4,350,13.0,100.0
14554,80.0,25,30,10.0,87.0
14555,49.0,3,350,3.0,96.0
14556,77.0,2,30,11.0,87.0
14557,68.0,3,30,12.0,100.0
14558,79.0,25,30,10.0,100.0
14559,76.0,2,30,11.0,100.0
14560,73.0,3,30,12.0,87.0
14561,80.0,18,30,10.0,87.0
14562,77.0,2,30,11.0,87.0
14563,68.0,3,30,12.0,100.0
14564,48.0,4,60,13.0,100.0
14565,48.0,3,60,3.0,96.0
14566,79.0,25,30,10.0,100.0
14567,76.0,2,30,11.0,100.0
14568,73.0,3,30,12.0,87.0
14569,80.0,18,20,10.0,87.0
14570,77.0,2,20,11.0,87.0
14571,68.0,3,20,12.0,100.0
14572,49.0,4,50,13.0,100.0
14573,49.0,3,50,3.0,96.0
14574,73.0,2,480,1.0,92.0
14575,61.0,0,480,4.0,94.0
14576,71.0,25,30,10.0,100.0
14577,68.0,2,30,11.0,100.0
14578,65.0,1,30,12.0,100.0
14579,77.0,18,30,10.0,100.0
14580,74.0,2,30,11.0,100.0
14581,71.0,3,30,12.0,100.0
14582,79.0,25,30,10.0,100.0
14583,76.0,2,30,11.0,100.0
14584,74.0,3,30,12.0,87.0
14585,80.0,25,30,10.0,87.0
14586,77.0,2,30,11.0,87.0
14587,71.0,3,30,12.0,100.0
14588,79.0,25,30,10.0,100.0
14589,76.0,2,30,11.0,100.0
14590,74.0,3,30,12.0,87.0
14591,80.0,25,30,10.0,87.0
14592,77.0,2,30,11.0,87.0
14593,71.0,3,30,12.0,100.0
14594,79.0,25,30,10.0,100.0
14595,76.0,2,30,11.0,100.0
14596,74.0,3,30,12.0,87.0
14597,80.0,25,20,10.0,87.0
14598,77.0,2,20,11.0,87.0
14599,71.0,3,20,12.0,100.0
14600,50.0,4,230,13.0,100.0
14601,80.0,1,480,0.0,93.0
14602,50.0,3,230,3.0,96.0
14603,29.0,0,950,14.0,100.0
14604,65.0,0,960,6.0,103.0
14605,77.0,1,960,6.0,103.0
14606,68.0,0,720,1.0,92.0
14607,71.0,2,240,1.0,92.0
14608,59.0,0,240,4.0,94.0
14609,65.0,1,960,2.0,93.0
14610,80.0,0,480,2.0,93.0
14611,68.0,1,480,5.0,94.0
14612,89.0,25,30,10.0,90.0
14613,69.0,1,30,11.0,100.0
14614,72.0,1,30,12.0,90.0
14615,81.0,18,30,10.0,100.0
14616,77.0,2,30,11.0,90.0
14617,65.0,3,30,12.0,100.0
14618,89.0,25,30,10.0,90.0
14619,69.0,2,30,11.0,100.0
14620,72.0,3,30,12.0,90.0
14621,81.0,25,30,10.0,100.0
14622,77.0,2,30,11.0,90.0
14623,65.0,3,30,12.0,100.0
14624,48.0,3,120,13.0,87.0
14625,29.0,3,120,14.0,87.0
14626,89.0,25,30,10.0,90.0
14627,69.0,2,30,11.0,100.0
14628,72.0,3,30,12.0,90.0
14629,81.0,25,30,10.0,100.0
14630,77.0,2,30,11.0,90.0
14631,65.0,3,30,12.0,100.0
14632,89.0,25,30,10.0,90.0
14633,69.0,2,30,11.0,100.0
14634,72.0,3,30,12.0,90.0
14635,81.0,25,30,10.0,100.0
14636,77.0,2,30,11.0,90.0
14637,65.0,3,30,12.0,100.0
14638,84.0,25,30,10.0,90.0
14639,69.0,2,30,11.0,100.0
14640,72.0,3,30,12.0,90.0
14641,81.0,25,30,10.0,100.0
14642,72.0,2,30,11.0,90.0
14643,65.0,3,30,12.0,100.0
14644,84.0,25,30,10.0,90.0
14645,69.0,2,30,11.0,100.0
14646,72.0,3,30,12.0,90.0
14647,81.0,25,30,10.0,100.0
14648,72.0,2,30,11.0,90.0
14649,65.0,3,30,12.0,100.0
14650,84.0,25,30,10.0,90.0
14651,69.0,2,30,11.0,100.0
14652,72.0,3,30,12.0,90.0
14653,81.0,25,30,10.0,100.0
14654,72.0,2,30,11.0,90.0
14655,65.0,3,30,12.0,100.0
14656,84.0,25,30,10.0,90.0
14657,69.0,2,30,11.0,100.0
14658,72.0,3,30,12.0,90.0
14659,81.0,25,30,10.0,100.0
14660,72.0,2,30,11.0,90.0
14661,65.0,3,30,12.0,100.0
14662,84.0,25,30,10.0,90.0
14663,69.0,2,30,11.0,100.0
14664,72.0,3,30,12.0,90.0
14665,81.0,25,30,10.0,100.0
14666,72.0,2,30,11.0,90.0
14667,65.0,3,30,12.0,100.0
14668,84.0,25,30,10.0,90.0
14669,69.0,2,30,11.0,100.0
14670,72.0,3,30,12.0,90.0
14671,81.0,25,20,10.0,100.0
14672,72.0,2,20,11.0,90.0
14673,65.0,3,20,12.0,100.0
14674,81.0,25,30,10.0,90.0
14675,69.0,2,30,11.0,100.0
14676,72.0,3,30,12.0,90.0
14677,77.0,25,30,10.0,100.0
14678,72.0,2,30,11.0,90.0
14679,65.0,3,30,12.0,100.0
14680,81.0,25,30,10.0,90.0
14681,65.0,2,30,11.0,100.0
14682,72.0,3,30,12.0,90.0
14683,77.0,25,30,10.0,100.0
14684,69.0,2,30,11.0,90.0
14685,65.0,3,30,12.0,100.0
14686,81.0,25,30,10.0,90.0
14687,65.0,2,30,11.0,100.0
14688,72.0,3,30,12.0,90.0
14689,77.0,25,30,10.0,100.0
14690,69.0,2,30,11.0,90.0
14691,65.0,3,30,12.0,100.0
14692,81.0,25,30,10.0,90.0
14693,65.0,2,30,11.0,100.0
14694,72.0,3,30,12.0,90.0
14695,77.0,25,30,10.0,100.0
14696,69.0,2,30,11.0,90.0
14697,65.0,3,30,12.0,100.0
14698,79.0,25,30,10.0,90.0
14699,60.0,3,30,12.0,100.0
14700,72.0,25,30,10.0,100.0
14701,67.0,2,60,11.0,87.0
14702,67.0,5,30,12.0,90.0
14703,79.0,25,30,10.0,90.0
14704,60.0,5,30,12.0,100.0
14705,89.0,1,945,0.0,73.0
14706,81.0,0,945,0.0,73.0
14707,77.0,0,945,6.0,83.0
14708,69.0,1,945,6.0,83.0
14709,69.0,0,945,1.0,72.0
14710,48.0,0,945,4.0,74.0
14711,72.0,0,945,1.0,72.0
14712,60.0,1,945,4.0,74.0
14713,72.0,25,20,10.0,100.0
14714,53.0,1,945,5.0,74.0
14715,81.0,0,945,2.0,73.0
14716,69.0,0,945,5.0,74.0
14717,77.0,0,945,2.0,73.0
14718,48.0,0,945,3.0,76.0
14719,41.0,0,945,3.0,76.0
14720,67.0,5,30,12.0,90.0
14721,77.0,25,30,10.0,90.0
14722,57.0,3,30,13.0,100.0
14723,69.0,18,30,10.0,100.0
14724,65.0,1,60,12.0,87.0
14725,65.0,9,30,13.0,90.0
14726,77.0,21,30,10.0,90.0
14727,57.0,9,30,13.0,100.0
14728,69.0,21,30,10.0,100.0
14729,65.0,9,30,13.0,90.0
14730,77.0,21,30,10.0,90.0
14731,57.0,9,30,13.0,100.0
14732,69.0,21,30,10.0,100.0
14733,65.0,9,30,13.0,90.0
14734,77.0,21,30,10.0,90.0
14735,57.0,9,30,13.0,100.0
14736,69.0,21,30,10.0,100.0
14737,65.0,9,30,13.0,90.0
14738,72.0,21,30,10.0,90.0
14739,57.0,9,30,13.0,100.0
14740,69.0,21,30,10.0,100.0
14741,60.0,9,30,13.0,90.0
14742,72.0,21,30,10.0,90.0
14743,57.0,9,30,13.0,100.0
14744,69.0,21,30,10.0,100.0
14745,60.0,9,30,13.0,90.0
14746,72.0,21,30,10.0,90.0
14747,57.0,9,30,13.0,100.0
14748,69.0,21,30,10.0,100.0
14749,60.0,9,30,13.0,90.0
14750,72.0,21,30,10.0,90.0
14751,57.0,9,30,13.0,100.0
14752,69.0,21,30,10.0,100.0
14753,60.0,9,30,13.0,90.0
14754,72.0,21,30,10.0,90.0
14755,57.0,9,30,13.0,100.0
14756,69.0,21,30,10.0,100.0
14757,60.0,9,30,13.0,90.0
14758,72.0,21,30,10.0,90.0
14759,57.0,9,30,13.0,100.0
14760,69.0,21,20,10.0,100.0
14761,60.0,9,20,13.0,90.0
14762,69.0,21,30,10.0,90.0
14763,53.0,9,30,13.0,100.0
14764,65.0,21,30,10.0,100.0
14765,57.0,9,30,13.0,90.0
14766,69.0,21,30,10.0,90.0
14767,53.0,9,30,13.0,100.0
14768,65.0,21,30,10.0,100.0
14769,57.0,9,30,13.0,90.0
14770,69.0,21,30,10.0,90.0
14771,53.0,9,30,13.0,100.0
14772,65.0,21,30,10.0,100.0
14773,57.0,9,30,13.0,90.0
14774,69.0,21,30,10.0,90.0
14775,53.0,9,30,13.0,100.0
14776,65.0,21,30,10.0,100.0
14777,57.0,9,30,13.0,90.0
14778,67.0,21,30,10.0,90.0
14779,48.0,9,30,13.0,100.0
14780,60.0,21,30,10.0,100.0
14781,55.0,9,30,13.0,90.0
14782,67.0,21,30,10.0,90.0
14783,48.0,9,30,13.0,100.0
14784,89.0,1,945,0.0,67.0
14785,81.0,0,945,0.0,67.0
14786,72.0,2,945,6.0,77.0
14787,69.0,0,945,6.0,77.0
14788,48.0,0,945,4.0,68.0
14789,77.0,0,945,1.0,66.0
14790,69.0,0,945,1.0,66.0
14791,60.0,1,945,4.0,68.0
14792,60.0,21,20,10.0,100.0
14793,69.0,0,945,5.0,68.0
14794,53.0,0,945,5.0,68.0
14795,72.0,1,945,2.0,67.0
14796,69.0,0,945,2.0,67.0
14797,48.0,0,945,3.0,70.0
14798,41.0,3,945,3.0,70.0
14799,55.0,9,30,13.0,90.0
14800,65.0,1,30,12.0,90.0
14801,45.0,3,30,13.0,80.0
14802,65.0,21,60,10.0,87.0
14803,57.0,23,30,12.0,100.0
14804,53.0,4,30,13.0,72.0
14805,65.0,26,30,12.0,90.0
14806,45.0,4,30,13.0,80.0
14807,57.0,26,30,12.0,100.0
14808,53.0,4,30,13.0,72.0
14809,65.0,26,30,12.0,90.0
14810,45.0,4,30,13.0,80.0
14811,57.0,26,30,12.0,100.0
14812,53.0,4,30,13.0,72.0
14813,65.0,26,30,12.0,90.0
14814,45.0,4,30,13.0,80.0
14815,57.0,26,30,12.0,100.0
14816,53.0,4,30,13.0,72.0
14817,60.0,26,30,12.0,90.0
14818,43.0,4,30,13.0,80.0
14819,55.0,26,30,12.0,100.0
14820,48.0,4,30,13.0,72.0
14821,60.0,26,30,12.0,90.0
14822,43.0,4,30,13.0,80.0
14823,55.0,26,30,12.0,100.0
14824,48.0,4,30,13.0,72.0
14825,60.0,26,30,12.0,90.0
14826,43.0,4,30,13.0,80.0
14827,55.0,26,30,12.0,100.0
14828,48.0,4,30,13.0,72.0
14829,60.0,26,30,12.0,90.0
14830,43.0,4,30,13.0,80.0
14831,89.0,0,465,0.0,61.0
14832,81.0,1,465,0.0,61.0
14833,65.0,2,465,6.0,71.0
14834,69.0,0,465,6.0,71.0
14835,48.0,1,465,4.0,62.0
14836,60.0,0,465,4.0,62.0
14837,69.0,0,465,1.0,60.0
14838,77.0,0,465,1.0,60.0
14839,65.0,0,465,5.0,62.0
14840,69.0,1,465,5.0,62.0
14841,69.0,0,465,2.0,61.0
14842,72.0,0,465,2.0,61.0
14843,55.0,26,20,12.0,100.0
14844,60.0,0,465,3.0,64.0
14845,53.0,3,465,3.0,64.0
14846,48.0,4,20,13.0,72.0
14847,57.0,1,30,12.0,90.0
14848,41.0,3,30,13.0,80.0
14849,53.0,23,30,12.0,100.0
14850,45.0,4,30,13.0,72.0
14851,57.0,26,30,12.0,90.0
14852,41.0,4,30,13.0,80.0
14853,53.0,26,30,12.0,100.0
14854,45.0,4,30,13.0,72.0
14855,57.0,26,30,12.0,90.0
14856,41.0,4,30,13.0,80.0
14857,53.0,26,30,12.0,100.0
14858,45.0,4,30,13.0,72.0
14859,57.0,26,30,12.0,90.0
14860,41.0,4,30,13.0,80.0
14861,53.0,26,30,12.0,100.0
14862,45.0,4,30,13.0,72.0
14863,55.0,26,30,12.0,90.0
14864,36.0,4,30,13.0,80.0
14865,48.0,26,30,12.0,100.0
14866,43.0,4,30,13.0,72.0
14867,55.0,26,30,12.0,90.0
14868,36.0,4,30,13.0,80.0
14869,48.0,26,30,12.0,100.0
14870,43.0,4,30,13.0,72.0
14871,55.0,26,30,12.0,90.0
14872,36.0,4,30,13.0,80.0
14873,48.0,26,30,12.0,100.0
14874,43.0,4,30,13.0,72.0
14875,55.0,26,30,12.0,90.0
14876,36.0,4,30,13.0,80.0
14877,81.0,22,465,0.0,58.0
14878,89.0,0,465,0.0,58.0
14879,69.0,2,465,6.0,68.0
14880,65.0,0,465,6.0,68.0
14881,48.0,0,465,4.0,59.0
14882,60.0,0,465,4.0,59.0
14883,69.0,1,465,1.0,57.0
14884,77.0,0,465,1.0,57.0
14885,65.0,0,465,5.0,59.0
14886,69.0,0,465,5.0,59.0
14887,72.0,1,465,2.0,58.0
14888,69.0,0,465,2.0,58.0
14889,48.0,26,20,12.0,100.0
14890,60.0,0,465,3.0,61.0
14891,53.0,3,465,3.0,61.0
14892,43.0,4,20,13.0,72.0
14893,41.0,29,1,15.0,28.0
14894,41.0,32,30,15.0,28.0
14895,53.0,1,120,12.0,87.0
14896,41.0,3,120,13.0,69.0
14897,41.0,30,0,15.0,29.0
14898,41.0,29,1,15.0,28.0
14899,41.0,29,1,15.0,28.0
14900,41.0,28,2,15.0,28.0
14901,41.0,28,2,15.0,29.0
14902,41.0,31,30,15.0,28.0
14903,41.0,31,30,15.0,29.0
14904,41.0,28,2,15.0,28.0
14905,41.0,1,1,15.0,29.0
14906,41.0,30,0,15.0,28.0
14907,72.0,0,120,10.0,28.0
14908,69.0,17,120,10.0,28.0
14909,60.0,1,120,10.0,28.0
14910,65.0,0,120,11.0,28.0
14911,69.0,0,120,11.0,28.0
14912,57.0,1,120,11.0,28.0
14913,53.0,4,120,12.0,28.0
14914,41.0,5,120,13.0,28.0
14915,41.0,30,30,15.0,29.0
14916,41.0,28,2,15.0,28.0
14917,41.0,31,30,15.0,29.0
14918,41.0,31,30,15.0,29.0
14919,41.0,27,3,15.0,29.0
14920,41.0,31,30,15.0,28.0
14921,41.0,28,2,15.0,29.0
14922,41.0,30,30,15.0,29.0
14923,81.0,0,935,0.0,55.0
14924,89.0,22,935,0.0,55.0
14925,65.0,2,935,6.0,65.0
14926,69.0,0,935,6.0,65.0
14927,77.0,1,935,1.0,54.0
14928,48.0,0,935,4.0,56.0
14929,69.0,0,935,1.0,54.0
14930,60.0,0,935,4.0,56.0
14931,72.0,0,935,2.0,55.0
14932,69.0,0,935,2.0,55.0
14933,65.0,1,935,5.0,56.0
14934,69.0,0,935,5.0,56.0
14935,41.0,22,8,15.0,28.0
14936,60.0,0,935,3.0,58.0
14937,53.0,3,935,3.0,58.0
14938,69.0,25,120,10.0,28.0
14939,60.0,1,120,10.0,28.0
14940,69.0,0,120,11.0,28.0
14941,65.0,0,120,11.0,28.0
14942,65.0,1,120,10.0,28.0
14943,77.0,0,120,10.0,28.0
14944,57.0,0,120,11.0,28.0
14945,69.0,0,120,12.0,28.0
14946,60.0,0,120,12.0,28.0
14947,53.0,1,120,12.0,28.0
14948,65.0,0,120,12.0,28.0
14949,41.0,2,120,13.0,28.0
14950,57.0,0,120,13.0,28.0
14951,48.0,1,120,13.0,28.0
14952,29.0,0,120,14.0,28.0
14953,41.0,1,120,15.0,29.0
14954,89.0,0,480,0.0,73.0
14955,81.0,0,480,0.0,73.0
14956,77.0,2,480,6.0,67.0
14957,69.0,0,480,6.0,67.0
14958,77.0,0,480,1.0,72.0
14959,69.0,0,480,1.0,72.0
14960,57.0,0,480,7.0,80.0
14961,48.0,0,480,7.0,80.0
14962,48.0,1,480,4.0,74.0
14963,60.0,0,480,4.0,74.0
14964,72.0,0,480,2.0,73.0
14965,69.0,0,480,5.0,74.0
14966,53.0,1,480,5.0,74.0
14967,69.0,0,480,2.0,73.0
14968,41.0,1,480,8.0,80.0
14969,41.0,0,480,3.0,76.0
14970,48.0,2,480,3.0,76.0
14971,29.0,0,480,3.0,76.0
