,note,step,duration,channel,velocity
0,72.0,0,120,2.0,68.0
1,64.0,0,120,2.0,62.0
2,55.0,6,120,3.0,71.0
3,74.0,0,60,2.0,75.0
4,59.0,6,60,3.0,77.0
5,71.0,54,60,2.0,81.0
6,65.0,114,120,2.0,68.0
7,62.0,6,60,3.0,82.0
8,64.0,0,115,2.0,78.0
9,72.0,54,120,2.0,89.0
10,55.0,6,115,3.0,89.0
11,48.0,0,355,3.0,71.0
12,67.0,114,115,2.0,68.0
13,64.0,0,120,2.0,62.0
14,60.0,0,120,3.0,70.0
15,48.0,6,120,3.0,70.0
16,69.0,114,120,2.0,97.0
17,65.0,0,120,2.0,85.0
18,53.0,0,120,3.0,96.0
19,60.0,6,120,3.0,96.0
20,64.0,0,120,2.0,85.0
21,67.0,114,120,2.0,97.0
22,48.0,0,120,3.0,96.0
23,60.0,6,120,3.0,96.0
24,65.0,0,120,2.0,95.0
25,69.0,114,120,2.0,108.0
26,53.0,0,120,3.0,106.0
27,60.0,6,120,3.0,106.0
28,67.0,0,60,2.0,80.0
29,65.0,54,55,2.0,80.0
30,62.0,2,115,2.0,70.0
31,55.0,112,120,4.0,94.0
32,55.0,0,120,5.0,94.0
33,55.0,0,115,3.0,81.0
34,59.0,6,115,3.0,81.0
35,64.0,2,85,2.0,97.0
36,64.0,84,30,2.0,97.0
37,48.0,6,120,3.0,96.0
38,67.0,5,85,2.0,97.0
39,67.0,25,120,0.0,85.0
40,64.0,0,120,0.0,85.0
41,60.0,58,240,4.0,94.0
42,52.0,0,240,5.0,94.0
43,60.0,0,240,2.0,85.0
44,67.0,84,30,2.0,97.0
45,55.0,0,240,3.0,96.0
46,40.0,6,120,3.0,96.0
47,43.0,0,120,3.0,96.0
48,65.0,0,240,0.0,85.0
49,71.0,25,240,0.0,85.0
50,62.0,3,240,4.0,94.0
51,74.0,0,240,2.0,97.0
52,59.0,2,240,2.0,85.0
53,55.0,0,240,5.0,94.0
54,53.0,6,240,3.0,96.0
55,55.0,120,120,3.0,96.0
56,64.0,109,120,0.0,64.0
57,72.0,0,120,0.0,64.0
58,64.0,3,120,4.0,70.0
59,52.0,1,120,12.0,96.0
60,60.0,0,120,5.0,70.0
61,72.0,1,120,2.0,70.0
62,60.0,0,120,2.0,64.0
63,52.0,0,120,13.0,95.0
64,48.0,3,120,13.0,95.0
65,48.0,3,120,3.0,72.0
66,52.0,0,120,3.0,72.0
67,55.0,113,120,12.0,96.0
68,55.0,4,120,13.0,95.0
69,40.0,0,120,13.0,95.0
70,53.0,0,240,12.0,96.0
71,62.0,116,240,12.0,96.0
72,59.0,4,240,13.0,95.0
73,43.0,0,240,13.0,95.0
74,31.0,123,120,14.0,93.0
75,60.0,113,120,12.0,89.0
76,52.0,0,120,12.0,89.0
77,72.0,1,120,2.0,97.0
78,64.0,0,120,2.0,85.0
79,60.0,3,120,13.0,88.0
80,48.0,0,120,13.0,88.0
81,36.0,3,120,14.0,86.0
82,55.0,0,120,3.0,96.0
83,74.0,114,60,2.0,97.0
84,59.0,6,60,3.0,96.0
85,71.0,54,60,2.0,97.0
86,65.0,0,120,2.0,85.0
87,62.0,6,60,3.0,96.0
88,72.0,54,120,2.0,97.0
89,55.0,6,115,3.0,96.0
90,64.0,0,180,2.0,85.0
91,60.0,6,60,3.0,96.0
92,67.0,54,55,2.0,70.0
93,48.0,6,0,3.0,96.0
94,59.0,6,60,3.0,96.0
95,76.0,0,60,2.0,97.0
96,72.0,54,60,2.0,97.0
97,66.0,54,120,2.0,85.0
98,57.0,0,120,3.0,96.0
99,59.0,6,60,3.0,96.0
100,74.0,0,120,2.0,97.0
101,65.0,60,120,2.0,85.0
102,55.0,60,60,3.0,96.0
103,67.0,54,115,2.0,97.0
104,60.0,6,115,3.0,96.0
105,69.0,114,60,2.0,97.0
106,64.0,0,235,2.0,85.0
107,67.0,54,60,2.0,97.0
108,52.0,6,120,3.0,96.0
109,66.0,0,85,2.0,97.0
110,66.0,84,30,2.0,97.0
111,48.0,0,240,3.0,96.0
112,57.0,6,120,3.0,96.0
113,67.0,0,85,2.0,97.0
114,62.0,60,235,2.0,85.0
115,62.0,3,120,4.0,86.0
116,55.0,2,120,5.0,86.0
117,67.0,84,30,2.0,97.0
118,47.0,0,120,3.0,96.0
119,64.0,25,120,0.0,85.0
120,67.0,25,240,0.0,85.0
121,64.0,0,120,2.0,85.0
122,52.0,0,120,5.0,86.0
123,55.0,6,240,3.0,96.0
124,45.0,6,120,3.0,96.0
125,57.0,5,115,2.0,75.0
126,69.0,0,120,0.0,75.0
127,72.0,2,235,2.0,97.0
128,60.0,3,240,4.0,86.0
129,57.0,0,120,5.0,76.0
130,50.0,6,120,3.0,86.0
131,66.0,109,240,0.0,75.0
132,59.0,112,120,4.0,69.0
133,54.0,1,120,12.0,75.0
134,71.0,0,120,2.0,74.0
135,54.0,0,120,5.0,69.0
136,59.0,1,120,2.0,67.0
137,39.0,3,120,13.0,74.0
138,54.0,0,240,3.0,86.0
139,51.0,3,120,3.0,76.0
140,47.0,0,240,13.0,74.0
141,40.0,4,120,13.0,95.0
142,55.0,113,240,12.0,96.0
143,52.0,0,120,13.0,95.0
144,54.0,116,120,12.0,96.0
145,60.0,116,240,12.0,89.0
146,50.0,4,120,13.0,95.0
147,45.0,4,240,13.0,95.0
148,38.0,3,120,14.0,93.0
149,50.0,113,120,12.0,89.0
150,59.0,0,120,12.0,89.0
151,74.0,1,120,2.0,97.0
152,43.0,3,120,13.0,88.0
153,59.0,0,120,3.0,96.0
154,43.0,0,120,14.0,86.0
155,76.0,114,60,2.0,97.0
156,60.0,6,60,3.0,96.0
157,72.0,54,60,2.0,97.0
158,57.0,6,60,3.0,96.0
159,67.0,0,355,2.0,85.0
160,74.0,54,120,2.0,97.0
161,59.0,6,115,3.0,96.0
162,67.0,2,115,2.0,72.0
163,62.0,112,120,4.0,81.0
164,55.0,3,475,3.0,96.0
165,59.0,6,120,3.0,83.0
166,79.0,2,60,2.0,97.0
167,64.0,112,120,4.0,94.0
168,70.0,0,120,2.0,85.0
169,76.0,54,60,2.0,97.0
170,61.0,6,120,3.0,96.0
171,55.0,0,235,5.0,94.0
172,62.0,58,120,4.0,94.0
173,69.0,0,120,2.0,85.0
174,77.0,2,120,2.0,97.0
175,62.0,6,120,3.0,96.0
176,65.0,112,120,4.0,84.0
177,74.0,0,120,2.0,85.0
178,68.0,0,120,2.0,75.0
179,60.0,6,120,3.0,86.0
180,67.0,112,60,4.0,94.0
181,65.0,52,55,4.0,94.0
182,67.0,2,115,2.0,97.0
183,55.0,2,235,5.0,94.0
184,59.0,6,115,3.0,96.0
185,55.0,0,475,3.0,96.0
186,72.0,2,85,2.0,97.0
187,72.0,84,30,2.0,97.0
188,57.0,0,115,3.0,96.0
189,60.0,6,115,3.0,96.0
190,59.0,6,60,3.0,96.0
191,56.0,60,0,3.0,96.0
192,64.0,60,235,4.0,94.0
193,76.0,30,115,2.0,97.0
194,71.0,0,120,2.0,85.0
195,52.0,0,55,3.0,96.0
196,72.0,0,85,2.0,82.0
197,72.0,84,25,2.0,97.0
198,69.0,2,120,2.0,72.0
199,57.0,0,115,3.0,83.0
200,60.0,6,115,3.0,83.0
201,59.0,0,60,3.0,96.0
202,55.0,6,60,3.0,96.0
203,64.0,52,235,4.0,94.0
204,71.0,30,115,2.0,85.0
205,76.0,0,115,2.0,97.0
206,52.0,60,55,3.0,96.0
207,55.0,0,55,3.0,96.0
208,69.0,0,85,2.0,97.0
209,69.0,30,25,2.0,104.0
210,60.0,52,120,4.0,94.0
211,65.0,54,60,2.0,85.0
212,53.0,0,120,3.0,96.0
213,57.0,6,120,3.0,96.0
214,72.0,0,85,2.0,97.0
215,72.0,84,25,2.0,104.0
216,72.0,25,120,0.0,85.0
217,64.0,0,120,0.0,85.0
218,67.0,3,120,4.0,94.0
219,60.0,2,120,2.0,85.0
220,60.0,2,240,5.0,94.0
221,52.0,0,120,3.0,96.0
222,55.0,6,120,3.0,96.0
223,69.0,25,120,0.0,85.0
224,65.0,0,120,0.0,85.0
225,57.0,0,120,2.0,85.0
226,53.0,0,120,3.0,96.0
227,65.0,3,235,4.0,94.0
228,62.0,0,235,5.0,94.0
229,68.0,109,120,0.0,85.0
230,71.0,0,120,0.0,85.0
231,77.0,2,235,2.0,97.0
232,59.0,5,120,2.0,85.0
233,50.0,6,235,3.0,96.0
234,56.0,6,120,3.0,96.0
235,69.0,109,120,0.0,66.0
236,72.0,0,120,0.0,66.0
237,64.0,3,120,4.0,72.0
238,60.0,0,120,2.0,66.0
239,60.0,1,120,5.0,72.0
240,76.0,0,120,2.0,72.0
241,45.0,0,120,13.0,88.0
242,45.0,0,120,3.0,74.0
243,57.0,3,120,3.0,74.0
244,57.0,1,240,12.0,89.0
245,60.0,116,0,12.0,89.0
246,48.0,3,240,13.0,88.0
247,43.0,4,120,13.0,88.0
248,41.0,4,120,13.0,88.0
249,40.0,5,120,13.0,88.0
250,81.0,115,240,1.0,119.0
251,65.0,0,360,12.0,89.0
252,77.0,115,120,1.0,116.0
253,62.0,1,120,12.0,89.0
254,38.0,120,240,13.0,88.0
255,57.0,0,480,13.0,88.0
256,74.0,119,120,1.0,113.0
257,65.0,0,120,12.0,83.0
258,55.0,4,120,13.0,88.0
259,71.0,115,120,1.0,109.0
260,59.0,1,240,12.0,89.0
261,62.0,1,120,12.0,74.0
262,43.0,0,240,13.0,88.0
263,53.0,4,120,13.0,73.0
264,31.0,3,120,14.0,86.0
265,55.0,0,120,12.0,83.0
266,64.0,113,120,12.0,83.0
267,64.0,0,120,2.0,85.0
268,72.0,1,120,2.0,97.0
269,36.0,3,120,13.0,82.0
270,52.0,0,120,13.0,82.0
271,55.0,3,120,3.0,96.0
272,36.0,0,120,14.0,80.0
273,74.0,114,60,2.0,97.0
274,69.0,54,60,2.0,97.0
275,65.0,0,120,2.0,85.0
276,57.0,6,120,3.0,96.0
277,72.0,0,120,2.0,97.0
278,55.0,6,120,3.0,96.0
279,67.0,114,115,2.0,76.0
280,64.0,60,235,2.0,85.0
281,48.0,0,475,3.0,96.0
282,60.0,6,115,3.0,78.0
283,76.0,114,60,2.0,97.0
284,72.0,54,60,2.0,97.0
285,64.0,0,120,2.0,85.0
286,55.0,0,120,3.0,96.0
287,74.0,0,60,2.0,97.0
288,57.0,6,60,3.0,96.0
289,65.0,60,120,2.0,85.0
290,69.0,54,60,2.0,97.0
291,62.0,6,60,3.0,96.0
292,64.0,54,115,2.0,85.0
293,72.0,0,120,2.0,97.0
294,55.0,6,115,3.0,96.0
295,48.0,6,355,3.0,96.0
296,67.0,114,115,2.0,97.0
297,64.0,0,120,2.0,85.0
298,52.0,6,115,3.0,96.0
299,60.0,0,120,3.0,96.0
300,67.0,0,120,2.0,108.0
301,62.0,114,120,2.0,95.0
302,59.0,0,120,3.0,106.0
303,55.0,6,120,3.0,106.0
304,64.0,0,120,2.0,85.0
305,67.0,0,0,2.0,108.0
306,60.0,6,120,3.0,96.0
307,52.0,0,120,3.0,96.0
308,62.0,114,115,2.0,95.0
309,55.0,0,115,3.0,106.0
310,59.0,6,115,3.0,106.0
311,69.0,0,120,2.0,97.0
312,65.0,114,120,2.0,85.0
313,60.0,0,120,3.0,96.0
314,53.0,6,120,3.0,96.0
315,70.0,114,120,2.0,97.0
316,65.0,0,120,2.0,85.0
317,50.0,6,120,3.0,96.0
318,58.0,0,120,3.0,96.0
319,65.0,114,120,2.0,85.0
320,69.0,0,120,2.0,97.0
321,60.0,0,120,3.0,96.0
322,53.0,6,120,3.0,96.0
323,65.0,0,115,2.0,95.0
324,70.0,114,115,2.0,108.0
325,50.0,0,115,3.0,106.0
326,58.0,6,115,3.0,106.0
327,69.0,0,60,2.0,97.0
328,60.0,6,60,3.0,96.0
329,67.0,54,55,2.0,97.0
330,64.0,2,115,2.0,85.0
331,58.0,6,55,3.0,96.0
332,48.0,0,120,3.0,96.0
333,65.0,0,85,2.0,97.0
334,60.0,112,235,4.0,94.0
335,65.0,84,25,2.0,104.0
336,53.0,0,120,3.0,96.0
337,69.0,2,85,2.0,97.0
338,69.0,84,25,2.0,104.0
339,60.0,54,240,5.0,94.0
340,60.0,0,240,2.0,85.0
341,57.0,6,235,3.0,96.0
342,52.0,6,120,3.0,96.0
343,65.0,0,235,0.0,85.0
344,69.0,25,235,0.0,85.0
345,65.0,3,235,4.0,94.0
346,50.0,0,120,3.0,96.0
347,45.0,8,120,3.0,96.0
348,65.0,109,240,0.0,85.0
349,69.0,0,240,0.0,85.0
350,65.0,3,240,4.0,94.0
351,65.0,0,360,2.0,85.0
352,62.0,30,360,5.0,94.0
353,74.0,0,360,2.0,97.0
354,38.0,3,120,3.0,96.0
355,57.0,6,360,3.0,96.0
356,57.0,113,120,12.0,114.0
357,48.0,4,120,13.0,113.0
358,53.0,113,360,12.0,114.0
359,50.0,4,360,13.0,113.0
360,47.0,3,0,13.0,113.0
361,67.0,0,60,2.0,82.0
362,65.0,54,55,2.0,88.0
363,62.0,115,120,4.0,81.0
364,55.0,1,120,12.0,114.0
365,62.0,116,240,12.0,114.0
366,55.0,0,120,5.0,81.0
367,62.0,1,120,2.0,72.0
368,43.0,0,120,13.0,113.0
369,47.0,3,120,3.0,83.0
370,64.0,0,85,2.0,93.0
371,64.0,58,115,4.0,91.0
372,64.0,84,25,2.0,104.0
373,60.0,0,115,5.0,91.0
374,60.0,2,120,2.0,82.0
375,55.0,0,240,3.0,83.0
376,48.0,6,120,3.0,93.0
377,67.0,0,85,2.0,97.0
378,67.0,84,25,2.0,104.0
379,55.0,6,120,3.0,96.0
380,47.0,0,120,3.0,96.0
381,60.0,28,235,4.0,94.0
382,52.0,0,235,5.0,94.0
383,64.0,2,235,2.0,85.0
384,45.0,0,120,3.0,96.0
385,60.0,6,120,3.0,96.0
386,69.0,109,120,0.0,85.0
387,69.0,0,120,2.0,85.0
388,42.0,6,120,3.0,96.0
389,57.0,0,120,3.0,96.0
390,72.0,0,240,0.0,85.0
391,64.0,3,240,4.0,94.0
392,64.0,5,120,2.0,85.0
393,60.0,2,240,5.0,94.0
394,76.0,30,360,2.0,97.0
395,60.0,6,120,3.0,96.0
396,43.0,0,120,3.0,96.0
397,74.0,2,60,2.0,97.0
398,71.0,109,120,0.0,85.0
399,62.0,3,120,4.0,94.0
400,67.0,54,60,2.0,97.0
401,65.0,0,120,2.0,85.0
402,55.0,0,120,5.0,94.0
403,59.0,0,120,3.0,96.0
404,55.0,3,0,3.0,73.0
405,67.0,109,360,0.0,85.0
406,72.0,55,120,0.0,64.0
407,60.0,3,120,4.0,71.0
408,52.0,1,120,12.0,99.0
409,52.0,0,120,5.0,71.0
410,72.0,1,120,2.0,70.0
411,64.0,0,120,2.0,64.0
412,48.0,0,120,13.0,98.0
413,48.0,0,120,3.0,73.0
414,48.0,0,240,12.0,99.0
415,55.0,113,120,12.0,114.0
416,47.0,4,120,13.0,113.0
417,52.0,3,360,13.0,98.0
418,45.0,4,120,13.0,113.0
419,42.0,120,115,13.0,113.0
420,57.0,0,120,13.0,113.0
421,64.0,0,355,12.0,114.0
422,60.0,116,355,12.0,114.0
423,55.0,120,120,13.0,113.0
424,67.0,22,30,1.0,99.0
425,59.0,0,60,12.0,114.0
426,62.0,116,60,12.0,114.0
427,53.0,4,60,13.0,113.0
428,69.0,30,30,1.0,99.0
429,71.0,25,22,1.0,99.0
430,55.0,0,55,12.0,114.0
431,53.0,1,55,12.0,114.0
432,43.0,0,240,13.0,113.0
433,55.0,4,60,13.0,113.0
434,43.0,3,120,14.0,111.0
435,76.0,22,30,1.0,99.0
436,72.0,30,30,1.0,99.0
437,76.0,30,22,1.0,99.0
438,72.0,0,112,2.0,85.0
439,64.0,1,112,2.0,85.0
440,60.0,1,115,12.0,99.0
441,52.0,0,115,12.0,99.0
442,36.0,0,115,13.0,98.0
443,43.0,3,115,13.0,98.0
444,64.0,30,120,4.0,94.0
445,48.0,0,112,3.0,96.0
446,55.0,0,112,3.0,96.0
447,60.0,0,120,5.0,94.0
448,36.0,3,120,14.0,96.0
449,74.0,0,30,1.0,99.0
450,36.0,3,55,13.0,98.0
451,43.0,0,55,13.0,98.0
452,71.0,22,30,1.0,99.0
453,53.0,1,60,12.0,99.0
454,62.0,0,60,12.0,99.0
455,65.0,0,60,2.0,85.0
456,74.0,0,60,2.0,85.0
457,55.0,3,60,3.0,96.0
458,48.0,0,60,3.0,96.0
459,74.0,30,30,1.0,99.0
460,71.0,22,22,1.0,99.0
461,79.0,0,112,1.0,87.0
462,62.0,0,52,2.0,85.0
463,71.0,1,52,2.0,85.0
464,59.0,1,55,12.0,99.0
465,50.0,0,55,12.0,99.0
466,65.0,30,120,4.0,94.0
467,55.0,0,52,3.0,96.0
468,43.0,0,55,13.0,98.0
469,48.0,3,52,3.0,96.0
470,36.0,3,55,13.0,98.0
471,62.0,1,120,5.0,94.0
472,76.0,0,30,1.0,99.0
473,72.0,22,30,1.0,99.0
474,76.0,30,30,1.0,99.0
475,64.0,0,112,4.0,94.0
476,72.0,30,22,1.0,99.0
477,67.0,30,112,1.0,87.0
478,60.0,1,112,5.0,94.0
479,72.0,0,112,2.0,85.0
480,64.0,0,112,2.0,85.0
481,52.0,0,115,12.0,99.0
482,60.0,1,115,12.0,99.0
483,36.0,0,115,13.0,98.0
484,48.0,3,112,3.0,96.0
485,55.0,0,112,3.0,96.0
486,43.0,3,115,13.0,98.0
487,60.0,28,30,11.0,100.0
488,55.0,1,30,12.0,99.0
489,52.0,3,30,13.0,98.0
490,55.0,20,30,11.0,100.0
491,52.0,3,30,12.0,99.0
492,48.0,4,30,13.0,98.0
493,60.0,23,30,11.0,100.0
494,55.0,3,30,12.0,99.0
495,52.0,4,30,13.0,98.0
496,67.0,2,112,1.0,87.0
497,55.0,23,30,11.0,100.0
498,60.0,2,0,4.0,94.0
499,52.0,3,30,12.0,99.0
500,67.0,1,120,2.0,85.0
501,48.0,0,0,5.0,94.0
502,64.0,0,120,2.0,85.0
503,48.0,4,30,13.0,98.0
504,36.0,3,120,14.0,51.0
505,52.0,0,120,3.0,96.0
506,55.0,0,120,3.0,96.0
507,60.0,23,30,11.0,100.0
508,57.0,1,30,12.0,99.0
509,53.0,3,30,13.0,98.0
510,57.0,20,30,11.0,100.0
511,53.0,3,30,12.0,99.0
512,48.0,4,30,13.0,98.0
513,60.0,23,30,11.0,100.0
514,57.0,3,30,12.0,99.0
515,53.0,4,30,13.0,98.0
516,57.0,23,30,11.0,100.0
517,60.0,2,0,4.0,94.0
518,53.0,3,30,12.0,99.0
519,69.0,1,120,2.0,85.0
520,65.0,0,120,2.0,85.0
521,48.0,4,30,13.0,98.0
522,57.0,0,120,3.0,96.0
523,41.0,3,120,14.0,58.0
524,53.0,0,120,3.0,96.0
525,60.0,23,30,11.0,100.0
526,55.0,1,30,12.0,99.0
527,52.0,3,30,13.0,98.0
528,55.0,20,30,11.0,100.0
529,52.0,3,30,12.0,99.0
530,48.0,4,30,13.0,98.0
531,60.0,23,30,11.0,100.0
532,55.0,3,30,12.0,99.0
533,52.0,4,30,13.0,98.0
534,55.0,23,30,11.0,100.0
535,52.0,3,30,12.0,99.0
536,64.0,1,120,2.0,85.0
537,67.0,0,120,2.0,85.0
538,48.0,0,120,5.0,94.0
539,48.0,4,30,13.0,98.0
540,52.0,0,120,3.0,96.0
541,55.0,3,120,3.0,96.0
542,36.0,0,120,14.0,64.0
543,60.0,23,30,11.0,100.0
544,57.0,1,30,12.0,99.0
545,53.0,3,30,13.0,98.0
546,57.0,20,30,11.0,100.0
547,53.0,3,30,12.0,99.0
548,48.0,4,30,13.0,98.0
549,60.0,23,30,11.0,100.0
550,57.0,3,30,12.0,99.0
551,53.0,4,30,13.0,98.0
552,60.0,2,112,4.0,94.0
553,57.0,23,25,11.0,100.0
554,65.0,1,112,2.0,85.0
555,69.0,0,112,2.0,85.0
556,48.0,0,112,5.0,94.0
557,53.0,3,25,12.0,99.0
558,57.0,3,112,3.0,96.0
559,53.0,0,112,3.0,96.0
560,48.0,4,25,13.0,98.0
561,41.0,0,120,14.0,70.0
562,59.0,23,30,11.0,100.0
563,62.0,1,30,12.0,99.0
564,53.0,3,30,13.0,98.0
565,79.0,19,30,0.0,100.0
566,62.0,1,30,11.0,100.0
567,67.0,2,30,1.0,99.0
568,59.0,1,30,12.0,99.0
569,50.0,4,30,13.0,98.0
570,81.0,22,30,0.0,100.0
571,59.0,1,30,11.0,100.0
572,69.0,2,30,1.0,99.0
573,62.0,1,30,12.0,99.0
574,53.0,4,30,13.0,98.0
575,83.0,22,22,0.0,100.0
576,55.0,2,112,4.0,94.0
577,71.0,2,22,1.0,99.0
578,43.0,1,112,5.0,94.0
579,62.0,1,30,11.0,100.0
580,59.0,1,30,12.0,99.0
581,67.0,0,0,2.0,85.0
582,65.0,0,120,2.0,85.0
583,50.0,4,30,13.0,98.0
584,43.0,0,120,14.0,77.0
585,59.0,3,120,3.0,96.0
586,53.0,0,120,3.0,96.0
587,88.0,19,30,0.0,100.0
588,76.0,3,30,1.0,99.0
589,84.0,27,30,0.0,100.0
590,72.0,3,30,1.0,99.0
591,88.0,27,22,0.0,100.0
592,72.0,21,115,10.0,100.0
593,76.0,3,22,1.0,99.0
594,55.0,2,112,4.0,94.0
595,64.0,1,115,11.0,100.0
596,48.0,1,112,5.0,94.0
597,55.0,1,115,12.0,99.0
598,48.0,0,115,12.0,99.0
599,43.0,0,115,13.0,98.0
600,36.0,3,115,13.0,98.0
601,64.0,0,120,2.0,85.0
602,36.0,3,0,14.0,86.0
603,60.0,0,120,3.0,96.0
604,52.0,0,120,3.0,96.0
605,86.0,0,30,0.0,100.0
606,74.0,0,30,1.0,99.0
607,55.0,2,52,4.0,94.0
608,48.0,0,52,5.0,94.0
609,48.0,0,55,12.0,99.0
610,74.0,26,60,10.0,100.0
611,55.0,1,55,12.0,99.0
612,83.0,19,30,0.0,100.0
613,65.0,1,60,11.0,100.0
614,43.0,3,55,13.0,98.0
615,36.0,0,55,13.0,98.0
616,71.0,3,30,1.0,99.0
617,53.0,0,60,3.0,96.0
618,62.0,0,60,3.0,96.0
619,86.0,1,30,0.0,100.0
620,74.0,2,30,1.0,99.0
621,83.0,19,22,0.0,100.0
622,91.0,1,112,0.0,88.0
623,71.0,26,55,10.0,100.0
624,79.0,0,112,1.0,87.0
625,71.0,3,22,1.0,99.0
626,55.0,0,52,4.0,94.0
627,62.0,1,55,11.0,100.0
628,48.0,1,52,5.0,94.0
629,55.0,1,55,12.0,99.0
630,48.0,0,55,12.0,99.0
631,36.0,3,55,13.0,98.0
632,43.0,0,55,13.0,98.0
633,65.0,1,120,2.0,85.0
634,59.0,0,60,3.0,96.0
635,50.0,3,60,3.0,96.0
636,36.0,0,60,14.0,86.0
637,88.0,1,30,0.0,100.0
638,76.0,0,30,1.0,99.0
639,84.0,19,30,0.0,100.0
640,72.0,3,30,1.0,99.0
641,88.0,27,30,0.0,100.0
642,76.0,3,30,1.0,99.0
643,79.0,0,112,0.0,88.0
644,84.0,27,22,0.0,100.0
645,72.0,26,115,10.0,100.0
646,72.0,3,22,1.0,99.0
647,67.0,0,112,1.0,87.0
648,55.0,2,112,4.0,94.0
649,64.0,1,115,11.0,100.0
650,64.0,0,112,2.0,85.0
651,48.0,1,112,5.0,94.0
652,48.0,0,115,12.0,99.0
653,55.0,1,115,12.0,99.0
654,60.0,0,112,3.0,96.0
655,36.0,0,115,13.0,98.0
656,52.0,3,112,3.0,96.0
657,43.0,3,115,13.0,98.0
658,67.0,1,0,2.0,85.0
659,36.0,0,120,14.0,86.0
660,67.0,26,30,10.0,100.0
661,59.0,1,30,11.0,100.0
662,52.0,1,30,12.0,99.0
663,64.0,18,30,10.0,100.0
664,67.0,2,30,11.0,100.0
665,59.0,3,30,12.0,99.0
666,67.0,25,30,10.0,100.0
667,59.0,2,30,11.0,100.0
668,52.0,3,30,12.0,99.0
669,64.0,25,30,10.0,100.0
670,79.0,1,120,0.0,88.0
671,76.0,0,120,0.0,88.0
672,67.0,2,30,11.0,100.0
673,64.0,2,0,4.0,86.0
674,67.0,0,120,1.0,87.0
675,59.0,3,30,12.0,99.0
676,71.0,0,120,2.0,85.0
677,52.0,0,0,5.0,86.0
678,52.0,3,120,13.0,79.0
679,59.0,3,120,3.0,96.0
680,40.0,0,120,14.0,77.0
681,55.0,0,120,3.0,96.0
682,69.0,25,30,10.0,100.0
683,60.0,1,30,11.0,100.0
684,52.0,1,30,12.0,99.0
685,64.0,18,30,10.0,100.0
686,69.0,2,30,11.0,100.0
687,60.0,3,30,12.0,99.0
688,69.0,25,30,10.0,100.0
689,60.0,2,30,11.0,100.0
690,52.0,3,30,12.0,99.0
691,64.0,25,30,10.0,100.0
692,81.0,1,120,0.0,90.0
693,72.0,0,120,0.0,90.0
694,69.0,2,30,11.0,100.0
695,64.0,2,0,4.0,86.0
696,60.0,3,30,12.0,99.0
697,52.0,1,0,5.0,86.0
698,69.0,0,120,2.0,77.0
699,72.0,1,120,2.0,77.0
700,45.0,3,120,13.0,79.0
701,33.0,0,120,14.0,77.0
702,60.0,3,120,3.0,88.0
703,57.0,0,120,3.0,88.0
704,67.0,25,30,10.0,100.0
705,59.0,1,30,11.0,100.0
706,52.0,1,30,12.0,99.0
707,64.0,18,30,10.0,100.0
708,67.0,2,30,11.0,100.0
709,59.0,3,30,12.0,99.0
710,67.0,25,30,10.0,100.0
711,59.0,2,30,11.0,100.0
712,52.0,3,30,12.0,99.0
713,64.0,25,30,10.0,100.0
714,76.0,1,120,0.0,90.0
715,79.0,0,120,0.0,90.0
716,67.0,2,30,11.0,100.0
717,59.0,3,30,12.0,99.0
718,52.0,1,0,5.0,86.0
719,71.0,0,120,2.0,77.0
720,67.0,0,120,2.0,77.0
721,52.0,3,120,13.0,79.0
722,40.0,3,120,14.0,77.0
723,59.0,0,120,3.0,88.0
724,55.0,0,120,3.0,88.0
725,69.0,25,30,10.0,100.0
726,60.0,1,30,11.0,100.0
727,52.0,1,30,12.0,99.0
728,64.0,18,30,10.0,100.0
729,69.0,2,30,11.0,100.0
730,60.0,3,30,12.0,99.0
731,69.0,25,30,10.0,100.0
732,60.0,2,30,11.0,100.0
733,52.0,3,30,12.0,99.0
734,81.0,0,112,0.0,90.0
735,72.0,1,112,0.0,90.0
736,64.0,25,25,10.0,100.0
737,64.0,2,112,4.0,86.0
738,69.0,2,25,11.0,100.0
739,72.0,0,112,2.0,77.0
740,69.0,0,112,2.0,77.0
741,60.0,3,25,12.0,99.0
742,60.0,0,112,3.0,88.0
743,57.0,0,112,3.0,88.0
744,45.0,3,120,13.0,79.0
745,33.0,3,120,14.0,77.0
746,60.0,1,30,12.0,99.0
747,86.0,18,30,10.0,100.0
748,74.0,2,30,11.0,100.0
749,62.0,3,30,12.0,99.0
750,88.0,25,30,10.0,100.0
751,76.0,2,30,11.0,100.0
752,60.0,3,30,12.0,99.0
753,84.0,26,112,0.0,90.0
754,90.0,0,112,0.0,90.0
755,90.0,25,25,10.0,100.0
756,62.0,0,112,4.0,86.0
757,78.0,0,112,1.0,89.0
758,72.0,3,112,1.0,89.0
759,78.0,2,25,11.0,100.0
760,60.0,0,112,5.0,86.0
761,72.0,1,112,2.0,77.0
762,78.0,0,112,2.0,77.0
763,62.0,3,25,12.0,99.0
764,60.0,0,112,3.0,88.0
765,66.0,3,112,3.0,88.0
766,50.0,3,120,13.0,113.0
767,38.0,0,120,14.0,111.0
768,43.0,3,30,13.0,98.0
769,31.0,3,30,14.0,96.0
770,47.0,27,30,13.0,98.0
771,35.0,3,30,14.0,96.0
772,43.0,27,30,13.0,98.0
773,31.0,3,30,14.0,96.0
774,91.0,1,112,0.0,90.0
775,83.0,0,112,0.0,90.0
776,91.0,25,115,10.0,100.0
777,62.0,0,112,4.0,86.0
778,71.0,0,112,1.0,89.0
779,79.0,2,112,1.0,89.0
780,79.0,1,115,11.0,100.0
781,71.0,0,112,2.0,77.0
782,74.0,1,112,2.0,77.0
783,55.0,0,112,5.0,86.0
784,62.0,1,115,12.0,99.0
785,59.0,0,115,12.0,99.0
786,59.0,0,112,3.0,88.0
787,67.0,0,112,3.0,88.0
788,47.0,27,25,13.0,98.0
789,35.0,3,25,14.0,96.0
790,93.0,18,30,10.0,110.0
791,81.0,1,30,11.0,110.0
792,90.0,18,30,10.0,100.0
793,78.0,2,30,11.0,100.0
794,81.0,2,60,1.0,89.0
795,72.0,0,60,1.0,89.0
796,69.0,0,60,3.0,88.0
797,60.0,0,60,3.0,88.0
798,93.0,28,30,10.0,100.0
799,81.0,2,30,11.0,100.0
800,90.0,0,112,0.0,90.0
801,84.0,1,112,0.0,90.0
802,90.0,18,25,10.0,100.0
803,69.0,0,52,1.0,89.0
804,78.0,2,52,1.0,89.0
805,62.0,0,112,4.0,86.0
806,78.0,2,25,11.0,100.0
807,78.0,1,112,2.0,77.0
808,60.0,0,112,5.0,86.0
809,72.0,0,112,2.0,77.0
810,60.0,0,115,12.0,99.0
811,66.0,1,115,12.0,99.0
812,57.0,0,52,3.0,88.0
813,66.0,8,52,3.0,88.0
814,50.0,3,115,13.0,98.0
815,38.0,3,115,14.0,96.0
816,55.0,3,30,13.0,98.0
817,43.0,0,30,14.0,96.0
818,59.0,27,30,13.0,98.0
819,47.0,3,30,14.0,96.0
820,55.0,27,30,13.0,98.0
821,43.0,3,30,14.0,96.0
822,91.0,1,112,0.0,90.0
823,83.0,0,112,0.0,90.0
824,86.0,28,115,10.0,100.0
825,79.0,2,112,1.0,89.0
826,71.0,0,112,1.0,89.0
827,62.0,0,112,4.0,86.0
828,74.0,1,115,11.0,100.0
829,55.0,1,112,5.0,86.0
830,74.0,0,112,2.0,77.0
831,71.0,0,112,2.0,77.0
832,59.0,0,115,12.0,99.0
833,62.0,1,115,12.0,99.0
834,59.0,0,112,3.0,88.0
835,67.0,3,112,3.0,88.0
836,59.0,27,25,13.0,98.0
837,47.0,3,25,14.0,96.0
838,81.0,18,30,10.0,110.0
839,69.0,1,30,11.0,110.0
840,78.0,18,30,10.0,100.0
841,66.0,2,30,11.0,100.0
842,72.0,0,60,1.0,89.0
843,81.0,2,60,1.0,89.0
844,69.0,3,60,3.0,88.0
845,60.0,0,60,3.0,88.0
846,81.0,28,30,10.0,100.0
847,69.0,2,30,11.0,100.0
848,90.0,1,112,0.0,90.0
849,84.0,0,112,0.0,90.0
850,78.0,18,25,10.0,100.0
851,62.0,0,112,4.0,86.0
852,69.0,2,52,1.0,89.0
853,78.0,0,52,1.0,89.0
854,66.0,2,25,11.0,100.0
855,78.0,0,112,2.0,77.0
856,72.0,0,112,2.0,77.0
857,60.0,1,112,5.0,86.0
858,60.0,0,115,12.0,99.0
859,66.0,1,115,12.0,99.0
860,62.0,3,115,13.0,98.0
861,57.0,0,52,3.0,88.0
862,66.0,8,52,3.0,88.0
863,50.0,0,115,14.0,96.0
864,43.0,3,30,13.0,98.0
865,31.0,0,30,14.0,96.0
866,47.0,27,30,13.0,98.0
867,35.0,3,30,14.0,96.0
868,43.0,27,30,13.0,98.0
869,31.0,3,30,14.0,96.0
870,83.0,1,112,0.0,90.0
871,86.0,0,112,0.0,90.0
872,74.0,28,115,10.0,100.0
873,71.0,2,112,1.0,89.0
874,62.0,0,112,4.0,86.0
875,79.0,0,112,1.0,89.0
876,62.0,1,115,11.0,100.0
877,71.0,1,112,2.0,77.0
878,55.0,0,112,5.0,86.0
879,74.0,0,112,2.0,77.0
880,59.0,1,115,12.0,99.0
881,62.0,0,115,12.0,99.0
882,47.0,27,25,13.0,98.0
883,67.0,3,112,3.0,88.0
884,59.0,0,112,3.0,88.0
885,35.0,3,25,14.0,96.0
886,69.0,18,30,10.0,100.0
887,69.0,1,30,11.0,100.0
888,65.0,18,30,10.0,100.0
889,65.0,2,30,11.0,100.0
890,65.0,1,60,2.0,77.0
891,69.0,0,60,2.0,77.0
892,57.0,0,60,3.0,88.0
893,65.0,0,60,3.0,88.0
894,69.0,28,30,10.0,100.0
895,69.0,2,30,11.0,100.0
896,62.0,4,52,2.0,77.0
897,65.0,0,52,2.0,77.0
898,65.0,18,30,10.0,100.0
899,65.0,2,30,11.0,100.0
900,62.0,6,52,3.0,88.0
901,50.0,0,52,3.0,88.0
902,62.0,28,30,10.0,100.0
903,62.0,2,30,11.0,100.0
904,57.0,18,30,10.0,100.0
905,57.0,2,30,11.0,100.0
906,57.0,4,60,2.0,77.0
907,62.0,0,60,2.0,77.0
908,53.0,6,0,3.0,88.0
909,57.0,0,60,3.0,88.0
910,62.0,28,30,10.0,100.0
911,62.0,2,30,11.0,100.0
912,57.0,18,25,10.0,100.0
913,57.0,2,25,11.0,100.0
914,53.0,4,52,2.0,77.0
915,57.0,0,52,2.0,77.0
916,57.0,1,235,12.0,99.0
917,65.0,0,235,12.0,99.0
918,81.0,1,240,0.0,90.0
919,89.0,0,240,0.0,90.0
920,65.0,0,240,4.0,86.0
921,81.0,0,240,1.0,89.0
922,50.0,3,235,13.0,98.0
923,50.0,0,52,3.0,88.0
924,77.0,2,240,1.0,89.0
925,62.0,0,240,5.0,86.0
926,38.0,3,235,14.0,96.0
927,56.0,2,30,11.0,100.0
928,50.0,3,30,12.0,99.0
929,59.0,20,30,11.0,100.0
930,56.0,3,30,12.0,99.0
931,40.0,3,60,13.0,98.0
932,28.0,3,60,14.0,96.0
933,40.0,0,60,3.0,88.0
934,56.0,27,30,11.0,100.0
935,50.0,3,30,12.0,99.0
936,59.0,28,120,10.0,90.0
937,59.0,27,30,11.0,100.0
938,56.0,3,30,12.0,99.0
939,59.0,1,120,2.0,77.0
940,56.0,0,120,2.0,77.0
941,50.0,0,120,3.0,88.0
942,57.0,2,30,11.0,100.0
943,48.0,3,30,12.0,99.0
944,60.0,20,30,11.0,100.0
945,57.0,3,30,12.0,99.0
946,45.0,3,60,13.0,98.0
947,33.0,3,60,14.0,96.0
948,45.0,0,60,3.0,88.0
949,57.0,27,30,11.0,100.0
950,48.0,3,30,12.0,99.0
951,60.0,25,120,10.0,90.0
952,60.0,27,30,11.0,100.0
953,57.0,3,30,12.0,99.0
954,57.0,0,120,2.0,77.0
955,60.0,1,120,2.0,77.0
956,48.0,0,120,3.0,88.0
957,56.0,2,30,11.0,100.0
958,50.0,3,30,12.0,99.0
959,59.0,20,30,11.0,100.0
960,56.0,3,30,12.0,99.0
961,40.0,3,60,13.0,98.0
962,28.0,0,60,14.0,96.0
963,40.0,3,60,3.0,88.0
964,56.0,27,30,11.0,100.0
965,50.0,3,30,12.0,99.0
966,59.0,25,120,10.0,90.0
967,59.0,27,30,11.0,100.0
968,56.0,3,30,12.0,99.0
969,56.0,1,120,2.0,77.0
970,59.0,0,120,2.0,77.0
971,50.0,0,120,3.0,88.0
972,57.0,2,30,11.0,100.0
973,48.0,3,30,12.0,99.0
974,60.0,20,30,11.0,100.0
975,57.0,3,30,12.0,99.0
976,45.0,3,60,13.0,98.0
977,45.0,3,60,3.0,88.0
978,33.0,0,60,14.0,96.0
979,57.0,27,30,11.0,100.0
980,48.0,3,30,12.0,99.0
981,60.0,25,115,10.0,90.0
982,60.0,27,25,11.0,100.0
983,57.0,3,25,12.0,99.0
984,60.0,0,120,2.0,77.0
985,57.0,1,120,2.0,77.0
986,48.0,0,120,3.0,88.0
987,93.0,25,30,10.0,110.0
988,81.0,1,30,11.0,110.0
989,90.0,18,30,10.0,100.0
990,78.0,2,30,11.0,100.0
991,72.0,0,60,1.0,89.0
992,81.0,0,60,1.0,89.0
993,60.0,3,60,3.0,88.0
994,69.0,0,60,3.0,88.0
995,93.0,28,30,10.0,100.0
996,81.0,2,30,11.0,100.0
997,90.0,1,112,0.0,90.0
998,84.0,0,112,0.0,90.0
999,90.0,18,25,10.0,100.0
1000,62.0,2,112,4.0,86.0
1001,78.0,2,52,1.0,89.0
1002,69.0,0,52,1.0,89.0
1003,78.0,2,25,11.0,100.0
1004,72.0,1,112,2.0,77.0
1005,78.0,0,112,2.0,77.0
1006,60.0,0,112,5.0,86.0
1007,60.0,0,115,12.0,99.0
1008,66.0,1,115,12.0,99.0
1009,50.0,3,115,13.0,98.0
1010,66.0,8,52,3.0,88.0
1011,57.0,0,52,3.0,88.0
1012,38.0,0,115,14.0,96.0
1013,55.0,3,30,13.0,98.0
1014,43.0,0,30,14.0,96.0
1015,59.0,27,30,13.0,98.0
1016,47.0,3,30,14.0,96.0
1017,55.0,27,30,13.0,98.0
1018,43.0,3,30,14.0,96.0
1019,83.0,1,112,0.0,90.0
1020,91.0,0,112,0.0,90.0
1021,86.0,28,115,10.0,100.0
1022,62.0,0,112,4.0,86.0
1023,71.0,2,112,1.0,89.0
1024,79.0,0,112,1.0,89.0
1025,74.0,1,115,11.0,100.0
1026,55.0,0,112,5.0,86.0
1027,71.0,0,112,2.0,77.0
1028,74.0,1,112,2.0,77.0
1029,59.0,1,115,12.0,99.0
1030,62.0,0,115,12.0,99.0
1031,59.0,27,25,13.0,98.0
1032,59.0,3,112,3.0,88.0
1033,67.0,0,112,3.0,88.0
1034,47.0,3,25,14.0,96.0
1035,81.0,18,30,10.0,110.0
1036,69.0,1,30,11.0,110.0
1037,78.0,18,30,10.0,100.0
1038,66.0,2,30,11.0,100.0
1039,81.0,0,60,1.0,89.0
1040,72.0,2,60,1.0,89.0
1041,69.0,3,60,3.0,88.0
1042,60.0,0,60,3.0,88.0
1043,81.0,28,30,10.0,100.0
1044,69.0,2,30,11.0,100.0
1045,84.0,0,112,0.0,90.0
1046,90.0,1,112,0.0,90.0
1047,78.0,18,25,10.0,100.0
1048,62.0,0,112,4.0,86.0
1049,78.0,2,52,1.0,89.0
1050,69.0,0,52,1.0,89.0
1051,66.0,2,25,11.0,100.0
1052,72.0,1,112,2.0,77.0
1053,78.0,0,112,2.0,77.0
1054,60.0,0,112,5.0,86.0
1055,60.0,0,115,12.0,99.0
1056,66.0,1,115,12.0,99.0
1057,62.0,3,115,13.0,98.0
1058,66.0,8,52,3.0,88.0
1059,57.0,0,52,3.0,88.0
1060,50.0,0,115,14.0,96.0
1061,43.0,3,30,13.0,98.0
1062,31.0,0,30,14.0,96.0
1063,47.0,27,30,13.0,98.0
1064,35.0,3,30,14.0,96.0
1065,43.0,27,30,13.0,98.0
1066,31.0,3,30,14.0,96.0
1067,83.0,1,112,0.0,90.0
1068,91.0,0,112,0.0,90.0
1069,74.0,28,115,10.0,100.0
1070,71.0,2,112,1.0,89.0
1071,62.0,0,112,4.0,86.0
1072,79.0,0,112,1.0,89.0
1073,62.0,1,115,11.0,100.0
1074,71.0,0,112,2.0,77.0
1075,55.0,1,112,5.0,86.0
1076,74.0,0,112,2.0,77.0
1077,59.0,1,115,12.0,99.0
1078,62.0,0,115,12.0,99.0
1079,47.0,27,25,13.0,98.0
1080,67.0,3,112,3.0,88.0
1081,59.0,0,112,3.0,88.0
1082,35.0,3,25,14.0,96.0
1083,81.0,18,30,10.0,100.0
1084,69.0,1,30,11.0,100.0
1085,77.0,18,30,10.0,100.0
1086,65.0,2,30,11.0,100.0
1087,81.0,0,60,1.0,76.0
1088,77.0,0,60,1.0,76.0
1089,81.0,28,30,10.0,100.0
1090,69.0,2,30,11.0,100.0
1091,74.0,2,52,1.0,76.0
1092,77.0,0,52,1.0,76.0
1093,77.0,26,30,10.0,100.0
1094,65.0,2,30,11.0,100.0
1095,74.0,28,30,10.0,100.0
1096,62.0,2,30,11.0,100.0
1097,69.0,26,30,10.0,100.0
1098,57.0,2,30,11.0,100.0
1099,69.0,0,60,1.0,76.0
1100,74.0,2,60,1.0,76.0
1101,74.0,28,30,10.0,100.0
1102,62.0,2,30,11.0,100.0
1103,77.0,1,232,0.0,77.0
1104,81.0,0,232,0.0,77.0
1105,69.0,26,25,10.0,100.0
1106,65.0,2,232,4.0,86.0
1107,69.0,0,52,1.0,76.0
1108,65.0,2,52,1.0,76.0
1109,57.0,2,25,11.0,100.0
1110,57.0,0,232,5.0,86.0
1111,69.0,1,232,2.0,77.0
1112,77.0,0,232,2.0,77.0
1113,57.0,0,235,12.0,99.0
1114,65.0,1,235,12.0,99.0
1115,50.0,3,235,13.0,98.0
1116,65.0,0,232,3.0,88.0
1117,57.0,0,232,3.0,88.0
1118,38.0,3,235,14.0,96.0
1119,69.0,28,30,10.0,100.0
1120,69.0,1,30,11.0,100.0
1121,64.0,18,30,10.0,100.0
1122,64.0,2,30,11.0,100.0
1123,81.0,0,60,2.0,77.0
1124,76.0,0,0,2.0,77.0
1125,69.0,3,60,3.0,88.0
1126,64.0,6,0,3.0,88.0
1127,69.0,28,30,10.0,100.0
1128,69.0,2,30,11.0,100.0
1129,72.0,4,52,2.0,77.0
1130,64.0,18,30,10.0,100.0
1131,64.0,2,30,11.0,100.0
1132,60.0,0,52,3.0,88.0
1133,60.0,28,30,10.0,100.0
1134,60.0,2,30,11.0,100.0
1135,57.0,18,30,10.0,100.0
1136,57.0,2,30,11.0,100.0
1137,72.0,0,60,2.0,77.0
1138,69.0,4,60,2.0,77.0
1139,60.0,6,60,3.0,88.0
1140,57.0,0,60,3.0,88.0
1141,60.0,28,30,10.0,100.0
1142,60.0,2,30,11.0,100.0
1143,76.0,1,232,0.0,77.0
1144,81.0,0,232,0.0,77.0
1145,57.0,18,25,10.0,100.0
1146,64.0,0,232,1.0,76.0
1147,64.0,2,232,4.0,86.0
1148,69.0,0,232,1.0,76.0
1149,57.0,2,25,11.0,100.0
1150,64.0,4,52,2.0,77.0
1151,69.0,0,52,2.0,77.0
1152,57.0,0,232,5.0,86.0
1153,64.0,1,235,12.0,99.0
1154,57.0,0,235,12.0,99.0
1155,57.0,0,52,3.0,88.0
1156,52.0,6,52,3.0,88.0
1157,48.0,3,235,13.0,98.0
1158,36.0,0,235,14.0,96.0
1159,57.0,28,60,10.0,92.0
1160,81.0,0,60,0.0,68.0
1161,75.0,1,60,0.0,68.0
1162,57.0,1,60,11.0,92.0
1163,69.0,0,60,1.0,67.0
1164,63.0,0,60,1.0,67.0
1165,63.0,2,60,4.0,76.0
1166,54.0,1,60,12.0,91.0
1167,51.0,0,60,12.0,91.0
1168,69.0,1,60,2.0,68.0
1169,57.0,0,60,5.0,76.0
1170,66.0,0,60,2.0,68.0
1171,57.0,0,60,3.0,78.0
1172,54.0,3,60,3.0,78.0
1173,47.0,3,120,13.0,113.0
1174,35.0,0,120,14.0,111.0
1175,48.0,117,120,13.0,110.0
1176,36.0,3,120,14.0,108.0
1177,57.0,110,60,11.0,76.0
1178,54.0,3,60,12.0,75.0
1179,51.0,0,60,12.0,75.0
1180,47.0,4,120,13.0,106.0
1181,35.0,3,120,14.0,104.0
1182,48.0,117,120,13.0,102.0
1183,36.0,3,120,14.0,100.0
1184,57.0,2,60,11.0,76.0
1185,54.0,3,60,12.0,75.0
1186,51.0,0,60,12.0,75.0
1187,66.0,108,120,10.0,115.0
1188,47.0,4,120,13.0,83.0
1189,35.0,0,120,14.0,81.0
1190,54.0,3,120,3.0,96.0
1191,67.0,108,120,10.0,115.0
1192,55.0,12,120,3.0,96.0
1193,62.0,2,60,11.0,76.0
1194,55.0,3,60,12.0,75.0
1195,50.0,0,60,12.0,75.0
1196,46.0,4,60,13.0,98.0
1197,34.0,3,60,14.0,96.0
1198,66.0,108,120,10.0,115.0
1199,54.0,0,120,3.0,96.0
1200,67.0,108,120,10.0,115.0
1201,55.0,12,120,3.0,96.0
1202,64.0,110,60,11.0,76.0
1203,55.0,0,60,12.0,75.0
1204,49.0,3,60,12.0,75.0
1205,45.0,4,120,13.0,98.0
1206,33.0,3,120,14.0,96.0
1207,46.0,117,120,13.0,98.0
1208,34.0,3,120,14.0,96.0
1209,64.0,110,60,11.0,71.0
1210,55.0,0,60,12.0,70.0
1211,61.0,3,60,12.0,70.0
1212,45.0,4,120,13.0,98.0
1213,33.0,3,120,14.0,96.0
1214,46.0,117,115,13.0,98.0
1215,34.0,3,115,14.0,96.0
1216,64.0,2,60,11.0,71.0
1217,61.0,3,60,12.0,70.0
1218,55.0,0,60,12.0,70.0
1219,45.0,4,60,13.0,83.0
1220,33.0,0,60,14.0,81.0
1221,64.0,108,120,10.0,115.0
1222,52.0,3,120,3.0,96.0
1223,65.0,108,120,10.0,115.0
1224,53.0,12,120,3.0,96.0
1225,59.0,2,60,11.0,76.0
1226,62.0,3,60,12.0,75.0
1227,53.0,0,60,12.0,75.0
1228,44.0,4,60,13.0,98.0
1229,32.0,0,60,14.0,96.0
1230,64.0,108,120,10.0,115.0
1231,52.0,3,120,3.0,96.0
1232,65.0,108,115,10.0,115.0
1233,53.0,12,120,3.0,96.0
1234,62.0,108,60,10.0,68.0
1235,59.0,2,60,11.0,68.0
1236,53.0,3,60,12.0,67.0
1237,43.0,4,120,13.0,98.0
1238,31.0,3,120,14.0,96.0
1239,62.0,108,60,10.0,67.0
1240,59.0,2,60,11.0,67.0
1241,53.0,3,60,12.0,66.0
1242,44.0,117,355,13.0,97.0
1243,32.0,3,355,14.0,95.0
1244,60.0,235,60,10.0,66.0
1245,57.0,2,60,11.0,66.0
1246,54.0,3,60,12.0,65.0
1247,39.0,4,120,13.0,91.0
1248,39.0,3,120,14.0,89.0
1249,60.0,108,60,10.0,66.0
1250,57.0,2,60,11.0,66.0
1251,52.0,3,60,12.0,65.0
1252,40.0,117,355,13.0,89.0
1253,40.0,3,355,14.0,87.0
1254,59.0,235,60,10.0,65.0
1255,57.0,2,60,11.0,65.0
1256,52.0,3,60,12.0,64.0
1257,59.0,228,60,10.0,68.0
1258,56.0,2,60,11.0,68.0
1259,50.0,3,60,12.0,67.0
1260,61.0,235,60,10.0,60.0
1261,57.0,2,60,11.0,60.0
1262,49.0,3,60,12.0,59.0
1263,40.0,4,600,13.0,83.0
1264,40.0,3,600,14.0,81.0
1265,57.0,108,60,10.0,60.0
1266,57.0,2,60,11.0,60.0
1267,49.0,3,60,12.0,59.0
1268,45.0,124,240,13.0,74.0
1269,33.0,3,240,14.0,72.0
1270,57.0,235,60,10.0,59.0
1271,55.0,2,60,11.0,59.0
1272,49.0,3,60,12.0,58.0
1273,69.0,1,112,2.0,95.0
1274,57.0,6,112,3.0,106.0
1275,60.0,0,110,10.0,76.0
1276,69.0,108,110,10.0,76.0
1277,57.0,2,110,11.0,76.0
1278,66.0,0,110,11.0,76.0
1279,54.0,0,110,12.0,75.0
1280,50.0,3,110,12.0,75.0
1281,38.0,4,110,13.0,74.0
1282,48.0,0,110,13.0,74.0
1283,38.0,3,110,14.0,72.0
1284,69.0,114,352,2.0,95.0
1285,57.0,6,352,3.0,106.0
1286,71.0,114,32,2.0,95.0
1287,59.0,6,32,3.0,106.0
1288,69.0,34,32,2.0,95.0
1289,57.0,6,32,3.0,106.0
1290,60.0,108,230,10.0,76.0
1291,69.0,0,230,10.0,76.0
1292,57.0,0,230,11.0,76.0
1293,66.0,2,230,11.0,76.0
1294,54.0,3,230,12.0,75.0
1295,50.0,0,230,12.0,75.0
1296,71.0,34,32,2.0,95.0
1297,48.0,4,230,13.0,74.0
1298,38.0,0,230,13.0,74.0
1299,38.0,3,230,14.0,72.0
1300,59.0,6,32,3.0,106.0
1301,72.0,34,112,2.0,95.0
1302,60.0,6,112,3.0,106.0
1303,74.0,1,48,2.0,95.0
1304,62.0,3,48,3.0,106.0
1305,60.0,108,110,10.0,76.0
1306,69.0,0,110,10.0,76.0
1307,67.0,2,110,11.0,76.0
1308,57.0,0,110,11.0,76.0
1309,72.0,54,48,2.0,95.0
1310,55.0,3,110,12.0,75.0
1311,48.0,0,110,12.0,75.0
1312,48.0,0,110,13.0,74.0
1313,39.0,3,110,13.0,74.0
1314,60.0,6,48,3.0,106.0
1315,39.0,0,110,14.0,72.0
1316,71.0,1,120,2.0,95.0
1317,59.0,3,120,3.0,106.0
1318,69.0,48,230,10.0,76.0
1319,60.0,0,230,10.0,76.0
1320,67.0,0,230,11.0,76.0
1321,57.0,2,230,11.0,76.0
1322,48.0,3,230,12.0,75.0
1323,55.0,0,230,12.0,75.0
1324,69.0,114,112,2.0,78.0
1325,39.0,3,230,13.0,74.0
1326,48.0,0,230,13.0,74.0
1327,39.0,0,230,14.0,72.0
1328,57.0,6,112,3.0,89.0
1329,69.0,0,110,10.0,76.0
1330,60.0,108,110,10.0,76.0
1331,57.0,2,110,11.0,76.0
1332,66.0,0,110,11.0,76.0
1333,50.0,0,110,12.0,75.0
1334,54.0,3,110,12.0,75.0
1335,48.0,0,110,13.0,74.0
1336,38.0,4,110,13.0,74.0
1337,38.0,3,110,14.0,72.0
1338,69.0,114,360,2.0,78.0
1339,57.0,6,360,3.0,89.0
1340,68.0,114,32,2.0,95.0
1341,56.0,6,32,3.0,106.0
1342,66.0,34,32,2.0,95.0
1343,54.0,6,32,3.0,106.0
1344,60.0,0,230,10.0,76.0
1345,69.0,108,230,10.0,76.0
1346,66.0,0,230,11.0,76.0
1347,57.0,2,230,11.0,76.0
1348,50.0,3,230,12.0,75.0
1349,54.0,0,230,12.0,75.0
1350,68.0,34,32,2.0,95.0
1351,38.0,4,230,13.0,74.0
1352,48.0,0,230,13.0,74.0
1353,38.0,3,230,14.0,72.0
1354,56.0,6,32,3.0,106.0
1355,69.0,34,112,2.0,95.0
1356,57.0,6,112,3.0,106.0
1357,68.0,1,32,2.0,95.0
1358,56.0,3,32,3.0,106.0
1359,66.0,34,32,2.0,95.0
1360,54.0,6,32,3.0,106.0
1361,65.0,108,110,10.0,76.0
1362,56.0,2,110,11.0,76.0
1363,59.0,3,110,12.0,75.0
1364,53.0,0,110,12.0,75.0
1365,68.0,34,32,2.0,95.0
1366,50.0,3,110,13.0,74.0
1367,38.0,0,110,13.0,74.0
1368,38.0,0,110,14.0,72.0
1369,56.0,6,32,3.0,106.0
1370,69.0,1,32,2.0,95.0
1371,57.0,3,32,3.0,106.0
1372,68.0,34,32,2.0,95.0
1373,56.0,6,32,3.0,106.0
1374,64.0,28,110,10.0,76.0
1375,57.0,2,110,11.0,76.0
1376,52.0,0,110,12.0,75.0
1377,60.0,3,110,12.0,75.0
1378,69.0,34,32,2.0,95.0
1379,48.0,0,110,13.0,74.0
1380,36.0,3,110,13.0,74.0
1381,36.0,0,110,14.0,72.0
1382,57.0,6,32,3.0,106.0
1383,72.0,1,48,2.0,95.0
1384,60.0,3,48,3.0,106.0
1385,63.0,28,110,10.0,76.0
1386,60.0,2,110,11.0,76.0
1387,69.0,54,48,2.0,95.0
1388,55.0,0,110,12.0,75.0
1389,51.0,3,110,12.0,75.0
1390,45.0,3,110,13.0,74.0
1391,57.0,6,48,3.0,106.0
1392,33.0,0,110,14.0,72.0
1393,62.0,108,120,10.0,76.0
1394,59.0,2,120,11.0,76.0
1395,55.0,3,120,12.0,75.0
1396,50.0,0,120,13.0,74.0
1397,38.0,4,230,13.0,74.0
1398,61.0,108,120,10.0,76.0
1399,38.0,3,230,14.0,72.0
1400,58.0,2,120,11.0,76.0
1401,52.0,3,120,12.0,75.0
1402,67.0,54,360,2.0,95.0
1403,43.0,4,120,13.0,74.0
1404,55.0,6,360,3.0,106.0
1405,62.0,111,110,10.0,76.0
1406,57.0,2,110,11.0,76.0
1407,54.0,1,110,12.0,75.0
1408,74.0,2,112,1.0,84.0
1409,62.0,0,112,4.0,94.0
1410,38.0,0,110,13.0,74.0
1411,50.0,3,110,13.0,74.0
1412,38.0,0,110,14.0,72.0
1413,66.0,1,120,2.0,78.0
1414,54.0,3,120,3.0,89.0
1415,62.0,116,110,10.0,76.0
1416,59.0,1,110,11.0,76.0
1417,53.0,3,110,12.0,75.0
1418,43.0,4,110,13.0,74.0
1419,71.0,0,120,0.0,85.0
1420,65.0,1,120,0.0,85.0
1421,43.0,3,110,14.0,72.0
1422,62.0,112,352,4.0,94.0
1423,74.0,0,352,1.0,84.0
1424,64.0,112,32,4.0,94.0
1425,76.0,0,32,1.0,84.0
1426,74.0,40,32,1.0,84.0
1427,62.0,0,32,4.0,94.0
1428,62.0,108,230,10.0,76.0
1429,59.0,1,230,11.0,76.0
1430,53.0,3,230,12.0,75.0
1431,64.0,0,32,4.0,94.0
1432,76.0,40,32,1.0,84.0
1433,43.0,4,230,13.0,74.0
1434,71.0,0,240,0.0,85.0
1435,65.0,1,240,0.0,85.0
1436,43.0,3,230,14.0,72.0
1437,77.0,0,112,1.0,84.0
1438,65.0,40,112,4.0,94.0
1439,79.0,0,48,1.0,84.0
1440,67.0,2,48,4.0,94.0
1441,62.0,116,110,10.0,76.0
1442,77.0,52,48,1.0,84.0
1443,65.0,0,48,4.0,94.0
1444,60.0,1,110,11.0,76.0
1445,53.0,1,110,12.0,75.0
1446,44.0,4,110,13.0,74.0
1447,72.0,1,120,0.0,85.0
1448,65.0,0,120,0.0,85.0
1449,44.0,3,110,14.0,72.0
1450,64.0,0,120,4.0,94.0
1451,76.0,2,120,1.0,84.0
1452,62.0,56,230,10.0,76.0
1453,60.0,1,230,11.0,76.0
1454,53.0,1,230,12.0,75.0
1455,62.0,112,112,4.0,94.0
1456,74.0,0,112,1.0,84.0
1457,44.0,4,230,13.0,74.0
1458,72.0,0,240,0.0,85.0
1459,65.0,1,240,0.0,85.0
1460,44.0,3,230,14.0,72.0
1461,62.0,108,110,10.0,74.0
1462,59.0,1,110,11.0,74.0
1463,53.0,3,110,12.0,73.0
1464,43.0,4,110,13.0,72.0
1465,65.0,1,0,0.0,85.0
1466,71.0,0,0,0.0,85.0
1467,43.0,3,110,14.0,70.0
1468,74.0,0,240,1.0,84.0
1469,62.0,120,240,4.0,94.0
1470,74.0,2,352,2.0,85.0
1471,62.0,6,352,3.0,96.0
1472,73.0,114,32,2.0,77.0
1473,61.0,6,32,3.0,88.0
1474,71.0,34,32,2.0,85.0
1475,59.0,6,32,3.0,96.0
1476,62.0,108,230,10.0,73.0
1477,59.0,1,230,11.0,73.0
1478,53.0,3,230,12.0,72.0
1479,73.0,34,32,2.0,85.0
1480,43.0,4,230,13.0,71.0
1481,43.0,3,230,14.0,69.0
1482,61.0,6,32,3.0,96.0
1483,74.0,34,112,2.0,85.0
1484,62.0,6,112,3.0,96.0
1485,73.0,1,32,2.0,77.0
1486,61.0,0,32,3.0,88.0
1487,71.0,34,32,2.0,85.0
1488,59.0,6,32,3.0,96.0
1489,62.0,108,110,10.0,70.0
1490,59.0,1,110,11.0,70.0
1491,54.0,3,110,12.0,69.0
1492,73.0,34,32,2.0,85.0
1493,42.0,3,110,13.0,68.0
1494,71.0,1,120,0.0,85.0
1495,66.0,0,120,0.0,85.0
1496,42.0,0,110,14.0,66.0
1497,61.0,6,32,3.0,96.0
1498,50.0,3,120,3.0,96.0
1499,74.0,34,112,2.0,85.0
1500,62.0,6,112,3.0,96.0
1501,73.0,1,48,2.0,77.0
1502,61.0,0,48,3.0,88.0
1503,61.0,108,110,10.0,68.0
1504,58.0,1,110,11.0,68.0
1505,74.0,54,48,2.0,85.0
1506,54.0,3,110,12.0,67.0
1507,42.0,3,110,13.0,66.0
1508,62.0,6,48,3.0,96.0
1509,66.0,1,120,0.0,85.0
1510,70.0,0,120,0.0,85.0
1511,42.0,3,110,14.0,64.0
1512,52.0,0,120,3.0,96.0
1513,64.0,0,120,0.0,80.0
1514,47.0,8,120,13.0,94.0
1515,55.0,0,120,3.0,91.0
1516,35.0,3,120,14.0,92.0
1517,70.0,109,240,0.0,80.0
1518,67.0,109,120,0.0,84.0
1519,73.0,54,360,2.0,85.0
1520,52.0,11,120,3.0,89.0
1521,61.0,6,360,3.0,96.0
1522,71.0,108,60,10.0,83.0
1523,62.0,3,60,12.0,82.0
1524,69.0,48,60,10.0,95.0
1525,71.0,0,120,0.0,68.0
1526,66.0,1,120,0.0,68.0
1527,66.0,1,120,11.0,83.0
1528,60.0,5,60,12.0,94.0
1529,71.0,1,120,2.0,60.0
1530,50.0,3,120,13.0,91.0
1531,59.0,3,120,3.0,69.0
1532,38.0,0,120,14.0,96.0
1533,50.0,0,120,3.0,69.0
1534,74.0,55,60,10.0,99.0
1535,59.0,3,60,12.0,98.0
1536,72.0,51,60,10.0,101.0
1537,66.0,2,120,11.0,99.0
1538,57.0,5,60,12.0,100.0
1539,50.0,4,0,13.0,102.0
1540,71.0,55,60,10.0,104.0
1541,62.0,3,60,12.0,103.0
1542,60.0,5,52,12.0,105.0
1543,69.0,51,60,10.0,106.0
1544,66.0,2,120,11.0,104.0
1545,59.0,3,60,12.0,109.0
1546,74.0,55,112,10.0,110.0
1547,67.0,2,112,11.0,110.0
1548,58.0,56,60,12.0,109.0
1549,50.0,4,120,13.0,108.0
1550,67.0,55,60,10.0,110.0
1551,59.0,3,60,12.0,109.0
1552,57.0,5,52,12.0,109.0
1553,66.0,51,60,10.0,110.0
1554,50.0,4,112,13.0,108.0
1555,62.0,2,0,11.0,110.0
1556,71.0,55,60,10.0,110.0
1557,55.0,3,60,12.0,109.0
1558,69.0,51,60,10.0,110.0
1559,62.0,2,0,11.0,110.0
1560,54.0,5,60,12.0,109.0
1561,50.0,4,0,13.0,108.0
1562,67.0,55,60,10.0,110.0
1563,59.0,3,60,12.0,109.0
1564,66.0,51,52,10.0,110.0
1565,57.0,5,52,12.0,109.0
1566,64.0,55,17,10.0,126.0
1567,66.0,7,24,10.0,126.0
1568,55.0,3,60,12.0,109.0
1569,64.0,24,50,10.0,110.0
1570,62.0,25,22,10.0,110.0
1571,57.0,25,52,12.0,109.0
1572,61.0,2,120,11.0,110.0
1573,45.0,4,120,13.0,108.0
1574,83.0,0,60,0.0,64.0
1575,71.0,0,60,2.0,64.0
1576,62.0,3,60,3.0,73.0
1577,62.0,1,112,11.0,92.0
1578,62.0,30,120,10.0,92.0
1579,78.0,49,0,0.0,75.0
1580,81.0,49,60,0.0,72.0
1581,62.0,2,120,4.0,71.0
1582,54.0,1,120,12.0,91.0
1583,62.0,0,0,5.0,84.0
1584,66.0,2,0,2.0,75.0
1585,69.0,5,60,2.0,72.0
1586,38.0,3,120,13.0,90.0
1587,50.0,0,120,3.0,73.0
1588,60.0,6,60,3.0,83.0
1589,86.0,0,60,0.0,75.0
1590,74.0,0,60,2.0,75.0
1591,59.0,6,60,3.0,86.0
1592,84.0,49,60,0.0,77.0
1593,62.0,3,0,4.0,89.0
1594,72.0,5,60,2.0,77.0
1595,62.0,2,0,5.0,89.0
1596,57.0,6,60,3.0,88.0
1597,50.0,0,120,3.0,86.0
1598,83.0,49,60,0.0,80.0
1599,71.0,0,60,2.0,80.0
1600,62.0,6,60,3.0,91.0
1601,78.0,0,120,0.0,80.0
1602,81.0,49,60,0.0,82.0
1603,69.0,5,60,2.0,82.0
1604,66.0,0,120,2.0,80.0
1605,60.0,6,60,3.0,93.0
1606,50.0,0,120,3.0,91.0
1607,59.0,6,52,3.0,96.0
1608,86.0,0,112,0.0,85.0
1609,79.0,49,112,0.0,85.0
1610,67.0,0,112,2.0,85.0
1611,74.0,0,112,2.0,85.0
1612,62.0,3,120,4.0,94.0
1613,50.0,0,112,3.0,96.0
1614,62.0,2,120,5.0,94.0
1615,58.0,60,60,3.0,96.0
1616,79.0,49,60,0.0,85.0
1617,67.0,0,60,2.0,85.0
1618,59.0,6,60,3.0,96.0
1619,74.0,0,112,0.0,85.0
1620,62.0,5,112,2.0,85.0
1621,78.0,49,60,0.0,85.0
1622,66.0,5,60,2.0,85.0
1623,50.0,6,0,3.0,96.0
1624,57.0,6,60,3.0,96.0
1625,83.0,49,60,0.0,85.0
1626,71.0,0,60,2.0,85.0
1627,55.0,0,60,3.0,96.0
1628,74.0,0,112,0.0,85.0
1629,62.0,5,112,2.0,85.0
1630,81.0,49,60,0.0,85.0
1631,69.0,5,60,2.0,85.0
1632,54.0,6,60,3.0,96.0
1633,50.0,6,0,3.0,96.0
1634,79.0,49,60,0.0,85.0
1635,67.0,0,60,2.0,85.0
1636,59.0,0,60,3.0,96.0
1637,78.0,49,52,0.0,85.0
1638,74.0,0,112,0.0,85.0
1639,62.0,5,112,2.0,85.0
1640,66.0,5,52,2.0,85.0
1641,57.0,6,52,3.0,96.0
1642,76.0,49,16,0.0,100.0
1643,64.0,0,16,2.0,100.0
1644,78.0,4,24,0.0,100.0
1645,66.0,5,24,2.0,100.0
1646,55.0,6,60,3.0,96.0
1647,76.0,20,50,0.0,85.0
1648,64.0,5,50,2.0,85.0
1649,74.0,19,14,0.0,85.0
1650,62.0,5,14,2.0,85.0
1651,73.0,0,112,0.0,85.0
1652,61.0,5,112,2.0,85.0
1653,57.0,26,52,3.0,96.0
1654,45.0,0,112,3.0,96.0
1655,69.0,24,60,10.0,100.0
1656,54.0,3,60,12.0,99.0
1657,71.0,48,60,10.0,100.0
1658,74.0,1,120,0.0,85.0
1659,62.0,2,0,11.0,100.0
1660,55.0,5,60,12.0,99.0
1661,62.0,1,120,2.0,85.0
1662,50.0,4,0,13.0,98.0
1663,50.0,3,120,3.0,96.0
1664,54.0,0,120,3.0,96.0
1665,66.0,55,60,10.0,100.0
1666,57.0,3,60,12.0,99.0
1667,67.0,51,52,10.0,100.0
1668,59.0,5,52,12.0,99.0
1669,50.0,4,0,13.0,98.0
1670,69.0,55,60,10.0,100.0
1671,54.0,3,60,12.0,99.0
1672,71.0,51,52,10.0,100.0
1673,55.0,5,52,12.0,99.0
1674,62.0,2,120,11.0,100.0
1675,57.0,3,40,12.0,99.0
1676,59.0,36,40,12.0,99.0
1677,66.0,55,120,10.0,100.0
1678,62.0,2,120,11.0,100.0
1679,50.0,4,120,13.0,98.0
1680,84.0,0,60,0.0,85.0
1681,72.0,0,60,1.0,84.0
1682,60.0,40,100,12.0,99.0
1683,52.0,6,60,3.0,96.0
1684,72.0,0,112,2.0,85.0
1685,88.0,49,60,0.0,85.0
1686,79.0,36,120,0.0,85.0
1687,67.0,3,120,4.0,94.0
1688,60.0,0,112,3.0,96.0
1689,76.0,3,60,1.0,84.0
1690,55.0,0,0,5.0,94.0
1691,48.0,8,60,3.0,96.0
1692,83.0,49,60,0.0,85.0
1693,71.0,3,60,1.0,84.0
1694,74.0,2,60,2.0,85.0
1695,62.0,6,60,3.0,96.0
1696,53.0,0,60,3.0,96.0
1697,84.0,49,52,0.0,85.0
1698,72.0,3,52,1.0,84.0
1699,72.0,2,52,2.0,85.0
1700,79.0,49,0,0.0,81.0
1701,67.0,0,120,4.0,94.0
1702,52.0,6,52,3.0,96.0
1703,60.0,0,52,3.0,96.0
1704,55.0,2,0,5.0,90.0
1705,86.0,0,60,0.0,81.0
1706,74.0,3,60,1.0,80.0
1707,50.0,6,52,3.0,92.0
1708,71.0,0,60,2.0,81.0
1709,59.0,0,60,3.0,92.0
1710,88.0,49,52,0.0,76.0
1711,76.0,3,52,1.0,75.0
1712,72.0,2,52,2.0,76.0
1713,48.0,0,52,3.0,87.0
1714,60.0,6,52,3.0,87.0
1715,67.0,3,0,4.0,81.0
1716,74.0,2,40,2.0,72.0
1717,62.0,0,40,3.0,83.0
1718,53.0,6,40,3.0,83.0
1719,76.0,34,40,2.0,70.0
1720,52.0,6,40,3.0,80.0
1721,64.0,0,40,3.0,80.0
1722,79.0,0,180,0.0,72.0
1723,83.0,49,180,0.0,72.0
1724,71.0,0,180,1.0,71.0
1725,55.0,0,180,5.0,81.0
1726,77.0,34,100,2.0,67.0
1727,65.0,6,100,3.0,76.0
1728,50.0,0,100,3.0,76.0
1729,91.0,28,112,10.0,79.0
1730,79.0,2,112,11.0,77.0
1731,67.0,3,112,12.0,76.0
1732,91.0,115,232,10.0,89.0
1733,79.0,2,232,11.0,85.0
1734,75.0,121,110,2.0,85.0
1735,67.0,3,232,12.0,84.0
1736,63.0,6,110,3.0,96.0
1737,58.0,113,112,12.0,76.0
1738,55.0,0,112,13.0,75.0
1739,48.0,4,112,13.0,75.0
1740,36.0,0,112,13.0,75.0
1741,36.0,3,112,14.0,73.0
1742,75.0,114,360,2.0,97.0
1743,63.0,6,360,3.0,108.0
1744,79.0,0,110,1.0,84.0
1745,76.0,2,110,2.0,97.0
1746,67.0,112,112,4.0,84.0
1747,58.0,113,232,12.0,84.0
1748,48.0,0,232,13.0,83.0
1749,55.0,0,232,13.0,83.0
1750,36.0,4,232,13.0,83.0
1751,64.0,6,110,3.0,108.0
1752,36.0,3,232,14.0,81.0
1753,87.0,117,110,0.0,85.0
1754,79.0,112,230,1.0,96.0
1755,75.0,5,110,2.0,85.0
1756,67.0,0,232,4.0,94.0
1757,63.0,6,110,3.0,96.0
1758,45.0,0,112,13.0,75.0
1759,61.0,117,112,13.0,75.0
1760,55.0,0,112,13.0,75.0
1761,33.0,3,112,14.0,73.0
1762,87.0,109,350,0.0,97.0
1763,75.0,5,350,2.0,97.0
1764,63.0,6,350,3.0,108.0
1765,88.0,108,112,10.0,79.0
1766,76.0,2,112,11.0,77.0
1767,64.0,3,112,12.0,76.0
1768,61.0,0,232,13.0,83.0
1769,45.0,0,232,13.0,83.0
1770,55.0,117,232,13.0,83.0
1771,33.0,3,232,14.0,81.0
1772,88.0,115,232,10.0,89.0
1773,76.0,2,232,11.0,85.0
1774,68.0,121,110,2.0,85.0
1775,64.0,3,232,12.0,84.0
1776,56.0,6,110,3.0,96.0
1777,60.0,0,112,12.0,76.0
1778,50.0,113,112,12.0,76.0
1779,48.0,0,112,13.0,75.0
1780,38.0,0,112,13.0,75.0
1781,54.0,4,112,13.0,75.0
1782,38.0,3,112,14.0,73.0
1783,68.0,114,360,2.0,97.0
1784,56.0,6,360,3.0,108.0
1785,69.0,112,110,1.0,84.0
1786,69.0,2,110,2.0,85.0
1787,50.0,113,232,12.0,84.0
1788,60.0,0,232,12.0,84.0
1789,57.0,0,115,4.0,84.0
1790,38.0,4,232,13.0,83.0
1791,48.0,0,232,13.0,83.0
1792,54.0,0,232,13.0,83.0
1793,57.0,6,110,3.0,96.0
1794,38.0,3,232,14.0,81.0
1795,87.0,117,110,0.0,85.0
1796,69.0,112,230,1.0,96.0
1797,75.0,5,110,2.0,85.0
1798,57.0,0,235,4.0,94.0
1799,63.0,6,110,3.0,96.0
1800,87.0,109,230,0.0,97.0
1801,75.0,5,230,2.0,97.0
1802,63.0,6,230,3.0,108.0
1803,48.0,0,232,13.0,83.0
1804,54.0,0,232,13.0,83.0
1805,38.0,117,232,13.0,83.0
1806,38.0,3,232,14.0,81.0
1807,86.0,108,160,10.0,100.0
1808,74.0,2,160,11.0,100.0
1809,62.0,3,160,12.0,99.0
1810,88.0,28,40,10.0,100.0
1811,76.0,2,40,11.0,100.0
1812,64.0,3,40,12.0,99.0
1813,62.0,3,32,12.0,99.0
1814,54.0,0,112,13.0,83.0
1815,38.0,124,112,13.0,83.0
1816,48.0,0,112,13.0,83.0
1817,38.0,3,112,14.0,81.0
1818,86.0,35,80,10.0,100.0
1819,74.0,2,80,11.0,100.0
1820,85.0,28,40,10.0,100.0
1821,73.0,2,40,11.0,100.0
1822,55.0,40,112,12.0,86.0
1823,55.0,0,112,13.0,85.0
1824,47.0,4,112,13.0,85.0
1825,55.0,3,112,3.0,83.0
1826,47.0,0,112,3.0,83.0
1827,31.0,0,120,14.0,96.0
1828,86.0,38,80,10.0,100.0
1829,74.0,2,80,11.0,100.0
1830,57.0,43,60,12.0,92.0
1831,48.0,0,60,13.0,91.0
1832,57.0,4,60,13.0,91.0
1833,57.0,0,60,3.0,89.0
1834,48.0,0,60,3.0,89.0
1835,88.0,28,40,10.0,100.0
1836,76.0,2,40,11.0,100.0
1837,54.0,23,52,12.0,95.0
1838,45.0,0,52,13.0,94.0
1839,54.0,4,52,13.0,94.0
1840,45.0,3,52,3.0,92.0
1841,54.0,0,52,3.0,92.0
1842,31.0,0,0,14.0,96.0
1843,86.0,8,80,10.0,100.0
1844,74.0,2,80,11.0,100.0
1845,55.0,43,60,12.0,99.0
1846,55.0,4,60,13.0,98.0
1847,47.0,0,60,13.0,98.0
1848,47.0,3,60,3.0,96.0
1849,55.0,0,60,3.0,96.0
1850,85.0,28,40,10.0,100.0
1851,73.0,2,40,11.0,100.0
1852,50.0,23,60,12.0,99.0
1853,59.0,4,60,13.0,98.0
1854,59.0,3,60,3.0,96.0
1855,50.0,0,60,3.0,96.0
1856,86.0,8,80,10.0,100.0
1857,74.0,2,80,11.0,100.0
1858,57.0,43,60,12.0,99.0
1859,60.0,4,60,13.0,98.0
1860,57.0,0,0,3.0,96.0
1861,60.0,0,60,3.0,96.0
1862,88.0,28,40,10.0,100.0
1863,76.0,2,40,11.0,100.0
1864,54.0,23,52,12.0,99.0
1865,57.0,4,52,13.0,98.0
1866,54.0,3,52,3.0,96.0
1867,43.0,0,0,14.0,96.0
1868,86.0,8,80,10.0,100.0
1869,74.0,2,80,11.0,100.0
1870,55.0,43,60,12.0,99.0
1871,59.0,4,60,13.0,98.0
1872,55.0,0,60,3.0,96.0
1873,59.0,3,60,3.0,96.0
1874,85.0,28,40,10.0,100.0
1875,73.0,2,40,11.0,100.0
1876,59.0,23,60,12.0,99.0
1877,62.0,4,60,13.0,98.0
1878,43.0,3,0,14.0,96.0
1879,62.0,0,60,3.0,96.0
1880,59.0,3,60,3.0,96.0
1881,86.0,8,80,10.0,100.0
1882,74.0,2,80,11.0,100.0
1883,60.0,43,60,12.0,99.0
1884,69.0,4,60,13.0,98.0
1885,60.0,0,60,3.0,96.0
1886,69.0,0,60,3.0,96.0
1887,88.0,28,40,10.0,100.0
1888,76.0,2,40,11.0,100.0
1889,57.0,23,52,12.0,99.0
1890,57.0,0,52,3.0,96.0
1891,66.0,4,60,13.0,98.0
1892,66.0,3,60,3.0,96.0
1893,86.0,8,80,10.0,100.0
1894,74.0,2,80,11.0,100.0
1895,67.0,4,60,13.0,98.0
1896,67.0,3,60,3.0,96.0
1897,85.0,28,40,10.0,100.0
1898,73.0,2,40,11.0,100.0
1899,59.0,43,112,12.0,99.0
1900,62.0,27,52,13.0,98.0
1901,59.0,0,112,3.0,96.0
1902,62.0,3,52,3.0,96.0
1903,43.0,0,112,14.0,96.0
1904,86.0,8,80,10.0,100.0
1905,74.0,2,80,11.0,100.0
1906,58.0,1,60,12.0,99.0
1907,61.0,3,60,13.0,98.0
1908,61.0,0,60,3.0,96.0
1909,58.0,3,60,3.0,96.0
1910,85.0,28,40,10.0,100.0
1911,73.0,2,40,11.0,100.0
1912,59.0,23,52,12.0,99.0
1913,59.0,0,52,3.0,96.0
1914,62.0,4,60,13.0,98.0
1915,31.0,0,120,14.0,96.0
1916,62.0,3,60,3.0,96.0
1917,86.0,8,80,10.0,100.0
1918,74.0,2,80,11.0,100.0
1919,59.0,43,60,12.0,99.0
1920,63.0,4,60,13.0,98.0
1921,63.0,3,60,3.0,96.0
1922,59.0,0,60,3.0,96.0
1923,87.0,28,40,10.0,100.0
1924,75.0,2,40,11.0,100.0
1925,60.0,23,52,12.0,99.0
1926,55.0,42,235,4.0,94.0
1927,64.0,4,52,13.0,98.0
1928,43.0,1,235,5.0,94.0
1929,36.0,0,112,14.0,96.0
1930,64.0,3,52,3.0,96.0
1931,60.0,0,52,3.0,96.0
1932,88.0,8,80,10.0,100.0
1933,76.0,2,80,11.0,100.0
1934,58.0,1,60,12.0,99.0
1935,61.0,3,60,13.0,98.0
1936,61.0,0,60,3.0,96.0
1937,58.0,0,60,3.0,96.0
1938,85.0,28,40,10.0,100.0
1939,73.0,2,40,11.0,100.0
1940,59.0,23,52,12.0,99.0
1941,59.0,0,52,3.0,96.0
1942,62.0,4,60,13.0,98.0
1943,62.0,3,60,3.0,96.0
1944,31.0,3,120,14.0,96.0
1945,86.0,8,80,10.0,100.0
1946,74.0,2,80,11.0,100.0
1947,59.0,43,60,12.0,99.0
1948,63.0,4,60,13.0,98.0
1949,59.0,0,60,3.0,96.0
1950,63.0,3,60,3.0,96.0
1951,87.0,28,40,10.0,100.0
1952,75.0,2,40,11.0,100.0
1953,60.0,23,52,12.0,99.0
1954,55.0,42,235,4.0,94.0
1955,43.0,1,235,5.0,94.0
1956,64.0,4,52,13.0,98.0
1957,36.0,0,112,14.0,96.0
1958,64.0,3,52,3.0,96.0
1959,60.0,0,52,3.0,96.0
1960,88.0,8,80,10.0,100.0
1961,76.0,2,80,11.0,100.0
1962,59.0,1,60,12.0,99.0
1963,62.0,3,60,13.0,98.0
1964,62.0,0,60,3.0,96.0
1965,59.0,3,60,3.0,96.0
1966,86.0,28,40,10.0,100.0
1967,74.0,2,40,11.0,100.0
1968,57.0,23,52,12.0,99.0
1969,60.0,4,52,13.0,98.0
1970,54.0,42,120,4.0,94.0
1971,38.0,0,112,14.0,96.0
1972,57.0,0,52,3.0,96.0
1973,60.0,3,52,3.0,96.0
1974,42.0,1,120,5.0,94.0
1975,84.0,8,80,10.0,100.0
1976,72.0,2,80,11.0,100.0
1977,54.0,1,60,12.0,99.0
1978,58.0,3,60,13.0,98.0
1979,58.0,0,60,3.0,96.0
1980,54.0,0,60,3.0,96.0
1981,82.0,28,40,10.0,100.0
1982,70.0,2,40,11.0,100.0
1983,55.0,23,52,12.0,99.0
1984,55.0,42,115,4.0,94.0
1985,43.0,1,115,5.0,94.0
1986,55.0,0,52,3.0,96.0
1987,43.0,3,112,14.0,96.0
1988,59.0,4,60,13.0,98.0
1989,59.0,3,60,3.0,96.0
1990,83.0,8,80,10.0,100.0
1991,71.0,2,80,11.0,100.0
1992,58.0,1,60,12.0,99.0
1993,61.0,3,60,13.0,98.0
1994,61.0,0,60,3.0,96.0
1995,58.0,0,60,3.0,96.0
1996,85.0,28,40,10.0,100.0
1997,73.0,2,40,11.0,100.0
1998,59.0,23,52,12.0,99.0
1999,62.0,4,52,13.0,98.0
2000,62.0,0,52,3.0,96.0
2001,59.0,3,52,3.0,96.0
2002,55.0,42,120,4.0,94.0
2003,35.0,3,112,14.0,96.0
2004,55.0,1,120,5.0,94.0
2005,86.0,8,80,10.0,100.0
2006,74.0,2,80,11.0,100.0
2007,69.0,3,60,13.0,98.0
2008,69.0,0,60,3.0,96.0
2009,93.0,28,40,10.0,100.0
2010,81.0,2,40,11.0,100.0
2011,38.0,3,112,14.0,96.0
2012,64.0,27,60,13.0,98.0
2013,64.0,3,60,3.0,96.0
2014,88.0,8,80,10.0,100.0
2015,76.0,2,80,11.0,100.0
2016,67.0,47,60,13.0,98.0
2017,67.0,0,60,3.0,96.0
2018,91.0,28,40,10.0,100.0
2019,79.0,2,40,11.0,100.0
2020,60.0,1,232,12.0,99.0
2021,62.0,42,235,4.0,94.0
2022,57.0,1,235,5.0,94.0
2023,66.0,27,52,13.0,98.0
2024,60.0,0,232,3.0,96.0
2025,38.0,3,112,14.0,96.0
2026,66.0,3,52,3.0,96.0
2027,90.0,8,80,10.0,100.0
2028,78.0,2,80,11.0,100.0
2029,59.0,1,60,12.0,99.0
2030,67.0,3,60,13.0,98.0
2031,67.0,0,60,3.0,96.0
2032,59.0,0,60,3.0,96.0
2033,91.0,28,40,10.0,100.0
2034,79.0,2,40,11.0,100.0
2035,59.0,42,115,4.0,94.0
2036,55.0,1,115,5.0,94.0
2037,58.0,23,60,12.0,99.0
2038,61.0,4,60,13.0,98.0
2039,31.0,0,0,14.0,96.0
2040,61.0,0,60,3.0,96.0
2041,58.0,3,60,3.0,96.0
2042,85.0,8,80,10.0,100.0
2043,73.0,2,80,11.0,100.0
2044,59.0,1,60,12.0,99.0
2045,62.0,3,60,13.0,98.0
2046,59.0,0,60,3.0,96.0
2047,62.0,3,60,3.0,96.0
2048,86.0,28,40,10.0,100.0
2049,74.0,2,40,11.0,100.0
2050,54.0,23,52,12.0,99.0
2051,54.0,3,52,3.0,96.0
2052,58.0,4,60,13.0,98.0
2053,58.0,0,60,3.0,96.0
2054,82.0,8,80,10.0,100.0
2055,70.0,2,80,11.0,100.0
2056,59.0,4,60,13.0,98.0
2057,83.0,28,40,10.0,100.0
2058,71.0,2,40,11.0,100.0
2059,55.0,43,112,12.0,99.0
2060,59.0,42,235,4.0,94.0
2061,55.0,27,52,13.0,98.0
2062,55.0,1,235,5.0,94.0
2063,31.0,0,112,14.0,96.0
2064,55.0,0,120,3.0,96.0
2065,59.0,3,120,3.0,96.0
2066,79.0,11,80,10.0,100.0
2067,67.0,2,80,11.0,100.0
2068,49.0,1,60,12.0,99.0
2069,49.0,3,60,13.0,98.0
2070,73.0,28,40,10.0,100.0
2071,61.0,2,40,11.0,100.0
2072,50.0,23,60,12.0,99.0
2073,59.0,1,120,2.0,85.0
2074,50.0,4,60,13.0,98.0
2075,43.0,0,120,14.0,96.0
2076,47.0,0,120,3.0,96.0
2077,43.0,3,120,3.0,96.0
2078,74.0,11,80,10.0,100.0
2079,62.0,2,80,11.0,100.0
2080,51.0,43,60,12.0,99.0
2081,51.0,3,60,13.0,98.0
2082,75.0,28,40,10.0,100.0
2083,63.0,2,40,11.0,100.0
2084,50.0,23,52,12.0,99.0
2085,58.0,1,112,2.0,85.0
2086,55.0,42,235,4.0,94.0
2087,43.0,0,235,5.0,94.0
2088,50.0,4,52,13.0,98.0
2089,39.0,3,112,14.0,96.0
2090,46.0,0,112,3.0,96.0
2091,39.0,0,112,3.0,96.0
2092,74.0,11,80,10.0,100.0
2093,62.0,2,80,11.0,100.0
2094,49.0,1,60,12.0,99.0
2095,49.0,3,60,13.0,98.0
2096,73.0,28,40,10.0,100.0
2097,61.0,2,40,11.0,100.0
2098,50.0,23,60,12.0,99.0
2099,59.0,0,120,2.0,85.0
2100,50.0,4,60,13.0,98.0
2101,47.0,0,120,3.0,96.0
2102,43.0,0,120,14.0,96.0
2103,43.0,3,120,3.0,96.0
2104,74.0,11,80,10.0,100.0
2105,62.0,2,80,11.0,100.0
2106,51.0,43,60,12.0,99.0
2107,51.0,3,60,13.0,98.0
2108,75.0,28,40,10.0,100.0
2109,63.0,2,40,11.0,100.0
2110,55.0,23,52,12.0,99.0
2111,58.0,1,112,2.0,85.0
2112,55.0,42,235,4.0,94.0
2113,55.0,4,52,13.0,98.0
2114,43.0,1,235,5.0,94.0
2115,46.0,0,112,3.0,96.0
2116,39.0,0,112,14.0,96.0
2117,39.0,3,120,3.0,96.0
2118,79.0,11,80,10.0,100.0
2119,67.0,2,80,11.0,100.0
2120,51.0,1,60,12.0,99.0
2121,45.0,3,60,13.0,98.0
2122,69.0,28,40,10.0,100.0
2123,57.0,2,40,11.0,100.0
2124,55.0,23,52,12.0,99.0
2125,58.0,42,115,4.0,94.0
2126,46.0,4,52,13.0,98.0
2127,58.0,0,120,2.0,85.0
2128,63.0,0,120,2.0,85.0
2129,43.0,0,0,3.0,96.0
2130,51.0,0,120,3.0,96.0
2131,43.0,3,120,14.0,96.0
2132,70.0,28,0,10.0,100.0
2133,58.0,2,80,11.0,100.0
2134,55.0,1,60,12.0,99.0
2135,46.0,3,60,13.0,98.0
2136,58.0,2,40,11.0,100.0
2137,50.0,23,52,12.0,99.0
2138,59.0,42,115,4.0,94.0
2139,55.0,1,235,5.0,94.0
2140,62.0,1,120,2.0,85.0
2141,59.0,0,120,2.0,85.0
2142,47.0,4,60,13.0,98.0
2143,38.0,0,120,14.0,96.0
2144,50.0,3,120,3.0,96.0
2145,71.0,11,80,10.0,100.0
2146,59.0,2,80,11.0,100.0
2147,55.0,1,60,12.0,99.0
2148,49.0,3,60,13.0,98.0
2149,73.0,28,40,10.0,100.0
2150,61.0,2,40,11.0,100.0
2151,59.0,23,52,12.0,99.0
2152,62.0,0,112,2.0,85.0
2153,67.0,1,112,2.0,85.0
2154,50.0,4,52,13.0,98.0
2155,55.0,3,112,3.0,96.0
2156,47.0,0,112,3.0,96.0
2157,35.0,0,112,14.0,96.0
2158,59.0,42,120,4.0,94.0
2159,55.0,0,120,5.0,94.0
2160,74.0,11,80,10.0,100.0
2161,62.0,2,80,11.0,100.0
2162,57.0,3,60,13.0,98.0
2163,81.0,28,40,10.0,100.0
2164,69.0,2,40,11.0,100.0
2165,52.0,27,60,13.0,98.0
2166,76.0,11,80,10.0,100.0
2167,64.0,2,80,11.0,100.0
2168,60.0,1,180,12.0,99.0
2169,55.0,47,60,13.0,98.0
2170,79.0,31,40,10.0,100.0
2171,67.0,2,40,11.0,100.0
2172,57.0,23,52,12.0,99.0
2173,60.0,42,235,4.0,94.0
2174,54.0,4,52,13.0,98.0
2175,48.0,1,235,5.0,94.0
2176,57.0,3,232,3.0,96.0
2177,50.0,0,232,3.0,96.0
2178,38.0,0,232,14.0,96.0
2179,69.0,0,240,2.0,85.0
2180,60.0,0,0,2.0,72.0
2181,78.0,11,80,10.0,100.0
2182,66.0,2,80,11.0,100.0
2183,57.0,3,60,13.0,98.0
2184,69.0,28,40,10.0,87.0
2185,69.0,2,40,11.0,87.0
2186,57.0,1,120,2.0,72.0
2187,52.0,27,60,13.0,98.0
2188,64.0,11,80,10.0,87.0
2189,64.0,2,80,11.0,87.0
2190,60.0,1,180,12.0,99.0
2191,55.0,47,60,13.0,98.0
2192,67.0,31,40,10.0,87.0
2193,67.0,2,40,11.0,87.0
2194,57.0,23,52,12.0,99.0
2195,66.0,11,40,10.0,87.0
2196,54.0,4,52,13.0,98.0
2197,38.0,0,232,14.0,96.0
2198,57.0,0,232,3.0,96.0
2199,60.0,42,240,4.0,81.0
2200,50.0,3,232,3.0,96.0
2201,48.0,0,240,5.0,81.0
2202,66.0,2,80,11.0,87.0
2203,57.0,4,60,13.0,98.0
2204,69.0,30,40,11.0,87.0
2205,52.0,27,60,13.0,98.0
2206,64.0,13,80,11.0,87.0
2207,55.0,47,60,13.0,98.0
2208,67.0,33,40,11.0,87.0
2209,57.0,43,232,12.0,99.0
2210,54.0,27,52,13.0,98.0
2211,66.0,13,40,11.0,87.0
2212,57.0,0,232,3.0,96.0
2213,48.0,3,232,3.0,96.0
2214,36.0,0,232,14.0,96.0
2215,66.0,3,40,12.0,99.0
2216,54.0,4,40,13.0,98.0
2217,65.0,33,40,12.0,99.0
2218,53.0,4,40,13.0,98.0
2219,71.0,38,120,10.0,100.0
2220,63.0,2,120,11.0,100.0
2221,54.0,0,120,3.0,83.0
2222,47.0,0,120,3.0,83.0
2223,35.0,3,120,14.0,96.0
2224,66.0,36,80,12.0,99.0
2225,54.0,4,80,13.0,98.0
2226,73.0,31,60,10.0,100.0
2227,64.0,2,60,11.0,100.0
2228,67.0,43,40,12.0,99.0
2229,55.0,4,40,13.0,98.0
2230,70.0,11,52,10.0,100.0
2231,61.0,2,52,11.0,100.0
2232,66.0,23,80,12.0,99.0
2233,54.0,4,80,13.0,98.0
2234,71.0,31,60,10.0,100.0
2235,63.0,2,60,11.0,100.0
2236,65.0,43,40,12.0,99.0
2237,53.0,4,40,13.0,98.0
2238,75.0,11,60,10.0,100.0
2239,66.0,2,60,11.0,100.0
2240,66.0,23,80,12.0,99.0
2241,54.0,4,80,13.0,98.0
2242,76.0,31,60,10.0,100.0
2243,73.0,2,60,11.0,100.0
2244,67.0,43,40,12.0,99.0
2245,55.0,4,40,13.0,98.0
2246,73.0,11,52,10.0,100.0
2247,70.0,2,52,11.0,100.0
2248,66.0,23,80,12.0,99.0
2249,54.0,4,80,13.0,98.0
2250,75.0,31,60,10.0,100.0
2251,71.0,2,60,11.0,100.0
2252,65.0,43,40,12.0,99.0
2253,53.0,4,40,13.0,98.0
2254,78.0,11,60,10.0,100.0
2255,75.0,2,60,11.0,100.0
2256,66.0,43,0,12.0,99.0
2257,54.0,4,0,13.0,98.0
2258,85.0,31,60,10.0,100.0
2259,76.0,2,60,11.0,100.0
2260,82.0,11,52,10.0,100.0
2261,64.0,23,32,12.0,99.0
2262,52.0,4,32,13.0,98.0
2263,73.0,2,60,11.0,100.0
2264,63.0,3,40,12.0,99.0
2265,51.0,4,40,13.0,98.0
2266,66.0,2,60,11.0,100.0
2267,66.0,36,40,12.0,99.0
2268,54.0,4,40,13.0,98.0
2269,83.0,31,112,10.0,100.0
2270,75.0,13,52,11.0,100.0
2271,71.0,23,80,12.0,99.0
2272,59.0,4,80,13.0,98.0
2273,72.0,33,40,12.0,99.0
2274,60.0,4,40,13.0,98.0
2275,78.0,31,120,10.0,100.0
2276,75.0,2,120,11.0,100.0
2277,63.0,0,120,3.0,96.0
2278,66.0,10,120,3.0,96.0
2279,71.0,36,80,12.0,99.0
2280,59.0,4,80,13.0,98.0
2281,70.0,33,40,12.0,99.0
2282,58.0,4,40,13.0,98.0
2283,79.0,31,120,10.0,100.0
2284,76.0,2,120,11.0,100.0
2285,64.0,0,120,3.0,96.0
2286,67.0,10,120,3.0,96.0
2287,71.0,36,80,12.0,99.0
2288,59.0,4,80,13.0,98.0
2289,72.0,33,40,12.0,99.0
2290,60.0,4,40,13.0,98.0
2291,78.0,31,120,10.0,100.0
2292,75.0,2,120,11.0,100.0
2293,66.0,10,120,3.0,96.0
2294,63.0,0,120,3.0,96.0
2295,71.0,36,80,12.0,99.0
2296,59.0,4,80,13.0,98.0
2297,70.0,33,40,12.0,99.0
2298,58.0,4,40,13.0,98.0
2299,79.0,31,112,10.0,100.0
2300,76.0,2,112,11.0,100.0
2301,71.0,36,40,12.0,99.0
2302,64.0,0,115,3.0,96.0
2303,67.0,10,115,3.0,96.0
2304,59.0,4,40,13.0,98.0
2305,79.0,31,40,10.0,100.0
2306,67.0,1,40,11.0,100.0
2307,81.0,28,40,10.0,100.0
2308,69.0,2,40,11.0,100.0
2309,55.0,1,110,12.0,99.0
2310,43.0,3,110,13.0,98.0
2311,86.0,0,120,0.0,85.0
2312,83.0,1,120,0.0,85.0
2313,74.0,2,120,1.0,84.0
2314,71.0,0,120,1.0,84.0
2315,62.0,0,120,4.0,94.0
2316,71.0,1,120,2.0,85.0
2317,55.0,0,120,5.0,94.0
2318,74.0,0,120,2.0,85.0
2319,62.0,3,120,3.0,96.0
2320,59.0,0,120,3.0,96.0
2321,79.0,38,80,10.0,100.0
2322,67.0,2,80,11.0,100.0
2323,78.0,28,40,10.0,100.0
2324,66.0,2,40,11.0,100.0
2325,60.0,1,110,12.0,99.0
2326,48.0,3,110,13.0,98.0
2327,88.0,0,120,0.0,85.0
2328,84.0,39,120,0.0,85.0
2329,64.0,0,120,4.0,94.0
2330,76.0,0,120,1.0,84.0
2331,72.0,3,120,1.0,84.0
2332,72.0,0,120,2.0,85.0
2333,76.0,0,120,2.0,85.0
2334,60.0,1,120,5.0,94.0
2335,64.0,3,120,3.0,96.0
2336,60.0,0,120,3.0,96.0
2337,79.0,38,80,10.0,100.0
2338,67.0,2,80,11.0,100.0
2339,81.0,28,40,10.0,100.0
2340,69.0,2,40,11.0,100.0
2341,55.0,1,110,12.0,99.0
2342,43.0,3,110,13.0,98.0
2343,86.0,39,120,0.0,85.0
2344,83.0,0,120,0.0,85.0
2345,71.0,3,120,1.0,84.0
2346,74.0,0,120,1.0,84.0
2347,62.0,0,120,4.0,94.0
2348,55.0,0,120,5.0,94.0
2349,74.0,1,120,2.0,85.0
2350,71.0,0,120,2.0,85.0
2351,59.0,3,120,3.0,96.0
2352,62.0,0,120,3.0,96.0
2353,79.0,38,80,10.0,100.0
2354,67.0,2,80,11.0,100.0
2355,78.0,28,40,10.0,100.0
2356,66.0,2,40,11.0,100.0
2357,79.0,38,32,10.0,100.0
2358,67.0,2,32,11.0,100.0
2359,60.0,1,110,12.0,99.0
2360,64.0,0,112,4.0,94.0
2361,88.0,0,115,0.0,85.0
2362,84.0,39,115,0.0,85.0
2363,60.0,0,112,5.0,94.0
2364,48.0,3,110,13.0,98.0
2365,72.0,0,115,1.0,84.0
2366,76.0,3,115,1.0,84.0
2367,72.0,1,115,2.0,85.0
2368,64.0,0,115,3.0,96.0
2369,60.0,3,115,3.0,96.0
2370,65.0,1,40,12.0,99.0
2371,53.0,3,40,13.0,98.0
2372,67.0,36,40,12.0,99.0
2373,55.0,4,40,13.0,98.0
2374,81.0,38,120,10.0,100.0
2375,72.0,2,120,11.0,100.0
2376,65.0,2,120,4.0,94.0
2377,81.0,0,120,1.0,84.0
2378,72.0,0,120,1.0,84.0
2379,60.0,0,120,5.0,94.0
2380,76.0,1,120,2.0,85.0
2381,65.0,36,80,12.0,99.0
2382,53.0,4,80,13.0,98.0
2383,64.0,39,40,12.0,99.0
2384,52.0,4,40,13.0,98.0
2385,82.0,31,120,10.0,100.0
2386,74.0,2,120,11.0,100.0
2387,74.0,0,120,1.0,84.0
2388,82.0,0,120,1.0,84.0
2389,65.0,0,0,4.0,94.0
2390,62.0,2,120,5.0,94.0
2391,65.0,36,80,12.0,99.0
2392,53.0,4,80,13.0,98.0
2393,67.0,39,40,12.0,99.0
2394,55.0,4,40,13.0,98.0
2395,81.0,31,120,10.0,100.0
2396,72.0,2,120,11.0,100.0
2397,72.0,0,120,1.0,84.0
2398,81.0,2,120,1.0,84.0
2399,65.0,0,0,4.0,94.0
2400,60.0,2,120,5.0,94.0
2401,65.0,36,80,12.0,99.0
2402,53.0,4,80,13.0,98.0
2403,64.0,39,40,12.0,99.0
2404,52.0,4,40,13.0,98.0
2405,82.0,31,112,10.0,100.0
2406,74.0,2,112,11.0,100.0
2407,65.0,36,32,12.0,99.0
2408,62.0,2,112,5.0,94.0
2409,82.0,0,115,1.0,84.0
2410,74.0,2,115,1.0,84.0
2411,53.0,4,32,13.0,98.0
2412,89.0,31,40,10.0,100.0
2413,77.0,1,40,11.0,100.0
2414,91.0,28,40,10.0,100.0
2415,79.0,2,40,11.0,100.0
2416,69.0,0,105,12.0,99.0
2417,72.0,1,105,12.0,99.0
2418,53.0,3,105,13.0,98.0
2419,65.0,2,112,4.0,94.0
2420,41.0,0,105,14.0,96.0
2421,60.0,0,112,5.0,94.0
2422,84.0,0,120,0.0,85.0
2423,81.0,1,120,0.0,85.0
2424,77.0,0,120,1.0,84.0
2425,84.0,0,120,1.0,84.0
2426,69.0,1,120,2.0,85.0
2427,72.0,0,120,2.0,85.0
2428,60.0,3,120,3.0,96.0
2429,57.0,0,120,3.0,96.0
2430,89.0,38,80,10.0,100.0
2431,77.0,2,80,11.0,100.0
2432,88.0,28,40,10.0,100.0
2433,76.0,2,40,11.0,100.0
2434,68.0,0,105,12.0,99.0
2435,73.0,1,105,12.0,99.0
2436,49.0,3,105,13.0,98.0
2437,65.0,0,112,4.0,94.0
2438,37.0,0,105,14.0,96.0
2439,61.0,1,112,5.0,94.0
2440,85.0,39,120,0.0,85.0
2441,80.0,0,120,0.0,85.0
2442,85.0,3,120,1.0,84.0
2443,80.0,0,120,1.0,84.0
2444,73.0,0,120,2.0,85.0
2445,68.0,0,120,2.0,85.0
2446,56.0,3,120,3.0,96.0
2447,61.0,0,120,3.0,96.0
2448,89.0,38,80,10.0,100.0
2449,77.0,2,80,11.0,100.0
2450,91.0,28,40,10.0,100.0
2451,79.0,2,40,11.0,100.0
2452,69.0,0,105,12.0,99.0
2453,72.0,1,105,12.0,99.0
2454,53.0,3,105,13.0,98.0
2455,65.0,0,112,4.0,94.0
2456,41.0,0,105,14.0,96.0
2457,60.0,0,112,5.0,94.0
2458,81.0,39,120,0.0,85.0
2459,84.0,0,120,0.0,85.0
2460,81.0,0,120,1.0,84.0
2461,84.0,3,120,1.0,84.0
2462,72.0,0,120,2.0,85.0
2463,69.0,1,120,2.0,85.0
2464,57.0,0,120,3.0,96.0
2465,60.0,3,120,3.0,96.0
2466,89.0,38,80,10.0,100.0
2467,77.0,2,80,11.0,100.0
2468,88.0,28,40,10.0,100.0
2469,76.0,2,40,11.0,100.0
2470,73.0,0,105,12.0,99.0
2471,68.0,1,105,12.0,99.0
2472,49.0,3,105,13.0,98.0
2473,65.0,3,112,4.0,94.0
2474,80.0,0,115,0.0,85.0
2475,85.0,39,115,0.0,85.0
2476,37.0,3,105,14.0,96.0
2477,61.0,0,112,5.0,94.0
2478,80.0,0,115,1.0,84.0
2479,85.0,0,115,1.0,84.0
2480,73.0,1,115,2.0,85.0
2481,68.0,0,115,2.0,85.0
2482,56.0,0,115,3.0,96.0
2483,61.0,0,115,3.0,96.0
2484,89.0,38,80,10.0,100.0
2485,77.0,2,80,11.0,100.0
2486,80.0,39,60,0.0,85.0
2487,80.0,3,60,1.0,84.0
2488,92.0,28,32,10.0,100.0
2489,80.0,2,32,11.0,100.0
2490,68.0,1,105,12.0,99.0
2491,71.0,0,105,12.0,99.0
2492,89.0,16,32,10.0,100.0
2493,77.0,2,32,11.0,100.0
2494,41.0,3,105,13.0,98.0
2495,77.0,19,55,0.0,85.0
2496,68.0,0,112,4.0,94.0
2497,83.0,0,115,0.0,85.0
2498,29.0,0,105,14.0,96.0
2499,65.0,0,112,5.0,94.0
2500,83.0,0,115,1.0,84.0
2501,77.0,3,55,1.0,84.0
2502,69.0,1,115,2.0,85.0
2503,71.0,0,115,2.0,85.0
2504,41.0,0,115,3.0,96.0
2505,53.0,3,115,3.0,96.0
2506,84.0,1,30,11.0,100.0
2507,72.0,1,30,12.0,99.0
2508,88.0,20,30,11.0,100.0
2509,76.0,3,30,12.0,99.0
2510,84.0,27,30,11.0,100.0
2511,72.0,3,30,12.0,99.0
2512,84.0,1,112,0.0,85.0
2513,76.0,0,112,0.0,85.0
2514,88.0,27,22,11.0,100.0
2515,67.0,2,112,4.0,94.0
2516,76.0,0,112,1.0,84.0
2517,84.0,0,112,1.0,84.0
2518,76.0,3,22,12.0,99.0
2519,72.0,0,112,2.0,85.0
2520,64.0,1,112,5.0,94.0
2521,67.0,0,112,2.0,85.0
2522,96.0,38,120,10.0,100.0
2523,48.0,3,112,13.0,98.0
2524,36.0,0,112,3.0,96.0
2525,36.0,3,112,14.0,96.0
2526,48.0,0,112,3.0,96.0
2527,85.0,25,30,10.0,110.0
2528,82.0,18,30,10.0,100.0
2529,77.0,1,60,0.0,85.0
2530,85.0,0,60,0.0,85.0
2531,77.0,0,60,1.0,84.0
2532,85.0,2,60,1.0,84.0
2533,77.0,0,60,2.0,85.0
2534,73.0,0,0,2.0,85.0
2535,85.0,30,30,10.0,100.0
2536,82.0,24,22,10.0,100.0
2537,73.0,0,52,0.0,85.0
2538,82.0,1,52,0.0,85.0
2539,91.0,1,112,11.0,100.0
2540,73.0,0,52,1.0,84.0
2541,82.0,3,52,1.0,84.0
2542,70.0,0,112,4.0,94.0
2543,79.0,1,112,12.0,99.0
2544,70.0,2,52,2.0,85.0
2545,65.0,1,112,5.0,94.0
2546,58.0,0,112,3.0,96.0
2547,88.0,1,30,11.0,100.0
2548,76.0,1,30,12.0,99.0
2549,84.0,20,30,11.0,100.0
2550,72.0,3,30,12.0,99.0
2551,88.0,27,30,11.0,100.0
2552,76.0,3,30,12.0,99.0
2553,79.0,30,112,10.0,100.0
2554,76.0,1,112,0.0,85.0
2555,79.0,0,112,0.0,85.0
2556,84.0,27,22,11.0,100.0
2557,76.0,0,112,1.0,84.0
2558,79.0,0,112,1.0,84.0
2559,67.0,2,112,4.0,94.0
2560,72.0,3,22,12.0,99.0
2561,64.0,0,112,5.0,94.0
2562,72.0,1,112,2.0,85.0
2563,76.0,0,112,2.0,85.0
2564,60.0,3,232,13.0,98.0
2565,48.0,0,232,3.0,96.0
2566,60.0,6,112,3.0,96.0
2567,48.0,3,232,14.0,96.0
2568,77.0,25,30,10.0,110.0
2569,74.0,18,30,10.0,100.0
2570,77.0,30,30,10.0,100.0
2571,74.0,30,22,10.0,100.0
2572,83.0,1,112,0.0,85.0
2573,74.0,0,112,0.0,85.0
2574,80.0,1,112,11.0,100.0
2575,74.0,2,112,1.0,84.0
2576,83.0,0,112,1.0,84.0
2577,68.0,0,112,4.0,94.0
2578,68.0,1,112,12.0,99.0
2579,65.0,0,112,5.0,94.0
2580,74.0,1,112,2.0,85.0
2581,71.0,0,112,2.0,85.0
2582,60.0,3,112,13.0,98.0
2583,48.0,0,112,14.0,96.0
2584,48.0,3,112,3.0,96.0
2585,53.0,0,112,3.0,96.0
2586,48.0,3,30,13.0,98.0
2587,36.0,0,30,14.0,96.0
2588,36.0,0,30,3.0,96.0
2589,48.0,3,30,3.0,96.0
2590,52.0,27,30,13.0,98.0
2591,52.0,0,30,3.0,96.0
2592,40.0,0,30,3.0,96.0
2593,40.0,3,30,14.0,96.0
2594,48.0,27,30,13.0,98.0
2595,36.0,3,30,3.0,96.0
2596,48.0,0,30,3.0,96.0
2597,36.0,0,30,14.0,96.0
2598,64.0,0,105,12.0,99.0
2599,72.0,1,105,12.0,99.0
2600,76.0,30,112,10.0,100.0
2601,84.0,1,112,0.0,85.0
2602,76.0,0,112,0.0,85.0
2603,84.0,1,112,11.0,100.0
2604,84.0,0,112,1.0,84.0
2605,76.0,2,112,1.0,84.0
2606,67.0,0,112,4.0,94.0
2607,64.0,0,112,5.0,94.0
2608,72.0,1,112,2.0,85.0
2609,76.0,0,112,2.0,85.0
2610,52.0,27,22,13.0,98.0
2611,52.0,0,22,3.0,96.0
2612,40.0,0,22,3.0,96.0
2613,40.0,3,22,14.0,96.0
2614,85.0,18,30,10.0,110.0
2615,77.0,1,30,11.0,100.0
2616,82.0,18,30,10.0,100.0
2617,85.0,1,60,0.0,85.0
2618,77.0,0,60,0.0,85.0
2619,73.0,2,30,11.0,100.0
2620,85.0,0,60,1.0,84.0
2621,77.0,2,60,1.0,84.0
2622,77.0,1,60,2.0,85.0
2623,73.0,0,0,2.0,85.0
2624,85.0,28,30,10.0,100.0
2625,77.0,1,30,11.0,100.0
2626,65.0,1,105,12.0,99.0
2627,73.0,0,105,12.0,99.0
2628,82.0,24,22,10.0,100.0
2629,73.0,0,52,0.0,85.0
2630,82.0,1,52,0.0,85.0
2631,73.0,2,22,11.0,100.0
2632,73.0,2,52,1.0,84.0
2633,70.0,0,112,4.0,94.0
2634,82.0,0,52,1.0,84.0
2635,70.0,2,52,2.0,85.0
2636,65.0,0,112,5.0,94.0
2637,55.0,3,112,13.0,98.0
2638,43.0,3,112,3.0,96.0
2639,55.0,0,112,3.0,96.0
2640,43.0,0,112,14.0,96.0
2641,76.0,1,30,11.0,100.0
2642,60.0,3,30,13.0,98.0
2643,48.0,3,30,14.0,96.0
2644,60.0,0,30,3.0,96.0
2645,48.0,0,30,3.0,96.0
2646,72.0,20,30,11.0,100.0
2647,64.0,7,30,13.0,98.0
2648,52.0,3,30,3.0,96.0
2649,64.0,0,30,3.0,96.0
2650,52.0,0,30,14.0,96.0
2651,76.0,20,30,11.0,100.0
2652,60.0,7,30,13.0,98.0
2653,48.0,0,30,3.0,96.0
2654,48.0,3,30,14.0,96.0
2655,60.0,0,30,3.0,96.0
2656,64.0,0,105,12.0,99.0
2657,72.0,1,105,12.0,99.0
2658,79.0,28,112,10.0,100.0
2659,76.0,0,112,0.0,85.0
2660,79.0,1,112,0.0,85.0
2661,72.0,20,22,11.0,100.0
2662,67.0,2,112,4.0,94.0
2663,76.0,0,112,1.0,84.0
2664,79.0,0,112,1.0,84.0
2665,76.0,1,112,2.0,85.0
2666,67.0,0,112,2.0,85.0
2667,64.0,0,112,5.0,94.0
2668,64.0,7,22,13.0,98.0
2669,52.0,0,22,14.0,96.0
2670,52.0,0,22,3.0,96.0
2671,64.0,3,22,3.0,96.0
2672,80.0,18,30,10.0,100.0
2673,77.0,18,30,10.0,100.0
2674,80.0,30,30,10.0,100.0
2675,77.0,30,30,10.0,100.0
2676,74.0,30,30,10.0,100.0
2677,71.0,30,30,10.0,100.0
2678,74.0,30,30,10.0,100.0
2679,71.0,0,222,11.0,100.0
2680,62.0,1,222,11.0,100.0
2681,65.0,0,222,12.0,99.0
2682,68.0,1,222,12.0,99.0
2683,68.0,0,225,4.0,94.0
2684,65.0,3,222,13.0,98.0
2685,62.0,1,225,5.0,94.0
2686,71.0,30,22,10.0,100.0
2687,83.0,0,232,0.0,85.0
2688,80.0,1,232,0.0,85.0
2689,53.0,0,222,14.0,96.0
2690,80.0,2,232,1.0,84.0
2691,71.0,0,232,1.0,84.0
2692,68.0,0,232,2.0,85.0
2693,74.0,0,232,2.0,85.0
2694,53.0,0,232,3.0,96.0
2695,65.0,3,232,3.0,96.0
2696,80.0,30,30,10.0,100.0
2697,77.0,18,30,10.0,100.0
2698,80.0,30,30,10.0,100.0
2699,77.0,30,30,10.0,100.0
2700,74.0,30,30,10.0,100.0
2701,71.0,30,30,10.0,100.0
2702,74.0,30,30,10.0,100.0
2703,62.0,0,222,11.0,100.0
2704,71.0,1,222,11.0,100.0
2705,68.0,1,222,12.0,99.0
2706,65.0,0,222,12.0,99.0
2707,68.0,0,225,4.0,94.0
2708,62.0,0,225,5.0,94.0
2709,65.0,3,222,13.0,98.0
2710,71.0,30,22,10.0,100.0
2711,83.0,0,232,0.0,85.0
2712,80.0,1,232,0.0,85.0
2713,53.0,3,222,14.0,96.0
2714,80.0,0,232,1.0,84.0
2715,71.0,2,232,1.0,84.0
2716,74.0,1,232,2.0,85.0
2717,68.0,0,232,2.0,85.0
2718,65.0,0,232,3.0,96.0
2719,53.0,0,232,3.0,96.0
2720,68.0,30,30,10.0,100.0
2721,65.0,18,30,10.0,100.0
2722,80.0,1,60,0.0,85.0
2723,83.0,0,60,0.0,85.0
2724,62.0,1,60,11.0,100.0
2725,71.0,0,60,11.0,100.0
2726,74.0,0,60,1.0,84.0
2727,83.0,0,60,1.0,84.0
2728,68.0,2,60,4.0,94.0
2729,65.0,1,60,12.0,99.0
2730,68.0,0,60,12.0,99.0
2731,74.0,1,60,2.0,85.0
2732,68.0,0,60,2.0,85.0
2733,62.0,0,60,5.0,94.0
2734,53.0,3,60,13.0,98.0
2735,41.0,0,60,14.0,96.0
2736,41.0,3,60,3.0,96.0
2737,53.0,0,60,3.0,96.0
2738,68.0,30,30,10.0,100.0
2739,65.0,30,22,10.0,100.0
2740,84.0,30,15,10.0,100.0
2741,64.0,0,15,11.0,100.0
2742,72.0,1,15,11.0,100.0
2743,36.0,3,30,13.0,98.0
2744,84.0,18,15,10.0,100.0
2745,72.0,2,15,11.0,100.0
2746,79.0,1,60,0.0,85.0
2747,84.0,0,60,0.0,85.0
2748,76.0,0,60,1.0,84.0
2749,84.0,0,60,1.0,84.0
2750,67.0,2,60,4.0,94.0
2751,64.0,0,60,12.0,99.0
2752,67.0,1,60,12.0,99.0
2753,64.0,0,60,5.0,94.0
2754,67.0,1,60,2.0,85.0
2755,76.0,0,60,2.0,85.0
2756,36.0,0,60,14.0,96.0
2757,48.0,0,60,3.0,96.0
2758,36.0,3,60,3.0,96.0
2759,86.0,28,15,10.0,100.0
2760,74.0,2,15,11.0,100.0
2761,48.0,7,30,13.0,98.0
2762,83.0,21,15,10.0,100.0
2763,71.0,2,15,11.0,100.0
2764,84.0,28,30,10.0,100.0
2765,72.0,1,30,11.0,100.0
2766,69.0,0,30,12.0,99.0
2767,63.0,1,30,12.0,99.0
2768,60.0,0,30,12.0,99.0
2769,42.0,2,30,13.0,83.0
2770,81.0,1,60,0.0,85.0
2771,84.0,0,60,0.0,85.0
2772,75.0,2,60,1.0,84.0
2773,84.0,0,60,1.0,84.0
2774,69.0,1,60,2.0,85.0
2775,75.0,0,60,2.0,85.0
2776,45.0,27,30,13.0,110.0
2777,42.0,3,60,3.0,96.0
2778,42.0,30,30,13.0,110.0
2779,45.0,30,30,13.0,110.0
2780,48.0,26,30,12.0,96.0
2781,51.0,26,30,12.0,111.0
2782,48.0,4,60,13.0,110.0
2783,48.0,30,30,12.0,111.0
2784,51.0,30,30,12.0,111.0
2785,57.0,27,30,11.0,97.0
2786,60.0,23,30,11.0,112.0
2787,57.0,3,60,12.0,111.0
2788,57.0,30,30,11.0,112.0
2789,60.0,30,30,11.0,112.0
2790,63.0,28,30,10.0,97.0
2791,69.0,28,30,10.0,112.0
2792,63.0,2,60,11.0,112.0
2793,63.0,30,30,10.0,112.0
2794,63.0,0,470,7.0,100.0
2795,57.0,0,470,7.0,100.0
2796,54.0,1,470,8.0,100.0
2797,69.0,30,30,10.0,112.0
2798,72.0,1,240,2.0,100.0
2799,36.0,3,240,13.0,110.0
2800,41.0,2,30,13.0,95.0
2801,72.0,30,60,10.0,86.0
2802,74.0,2,60,2.0,100.0
2803,45.0,30,30,13.0,110.0
2804,41.0,3,30,13.0,110.0
2805,71.0,27,60,2.0,100.0
2806,45.0,30,30,13.0,110.0
2807,48.0,26,30,12.0,96.0
2808,51.0,26,30,12.0,111.0
2809,48.0,3,60,13.0,110.0
2810,48.0,30,30,12.0,111.0
2811,51.0,30,30,12.0,111.0
2812,57.0,1,30,11.0,97.0
2813,60.0,23,30,11.0,112.0
2814,57.0,3,60,12.0,111.0
2815,57.0,30,30,11.0,112.0
2816,60.0,30,30,11.0,112.0
2817,72.0,1,240,2.0,100.0
2818,63.0,28,30,10.0,97.0
2819,69.0,28,30,10.0,112.0
2820,63.0,2,60,11.0,112.0
2821,63.0,30,30,10.0,112.0
2822,57.0,4,470,7.0,100.0
2823,63.0,0,470,7.0,100.0
2824,53.0,1,470,8.0,100.0
2825,69.0,30,30,10.0,112.0
2826,84.0,26,240,0.0,100.0
2827,36.0,4,240,13.0,110.0
2828,40.0,2,30,13.0,95.0
2829,72.0,30,60,10.0,86.0
2830,86.0,1,60,0.0,100.0
2831,45.0,30,30,13.0,110.0
2832,40.0,8,30,13.0,110.0
2833,83.0,22,60,0.0,100.0
2834,45.0,30,30,13.0,110.0
2835,48.0,4,30,12.0,96.0
2836,52.0,26,30,12.0,111.0
2837,48.0,4,60,13.0,110.0
2838,48.0,30,30,12.0,111.0
2839,52.0,30,30,12.0,111.0
2840,57.0,27,30,11.0,97.0
2841,60.0,20,30,11.0,112.0
2842,57.0,3,60,12.0,111.0
2843,57.0,30,30,11.0,112.0
2844,84.0,22,240,0.0,100.0
2845,60.0,30,30,11.0,112.0
2846,64.0,28,30,10.0,97.0
2847,69.0,28,30,10.0,112.0
2848,64.0,2,60,11.0,112.0
2849,64.0,30,30,10.0,112.0
2850,64.0,3,470,7.0,100.0
2851,57.0,0,470,7.0,100.0
2852,52.0,3,470,8.0,100.0
2853,69.0,30,30,10.0,112.0
2854,36.0,4,240,13.0,110.0
2855,60.0,3,240,3.0,111.0
2856,39.0,2,30,13.0,95.0
2857,72.0,30,60,10.0,86.0
2858,45.0,27,30,13.0,110.0
2859,62.0,3,60,3.0,111.0
2860,39.0,30,30,13.0,110.0
2861,45.0,27,30,13.0,110.0
2862,59.0,3,60,3.0,111.0
2863,48.0,26,30,12.0,96.0
2864,53.0,23,30,12.0,111.0
2865,48.0,4,60,13.0,110.0
2866,48.0,30,30,12.0,111.0
2867,53.0,30,30,12.0,111.0
2868,57.0,27,30,11.0,97.0
2869,60.0,23,30,11.0,112.0
2870,57.0,3,60,12.0,111.0
2871,57.0,30,30,11.0,112.0
2872,60.0,30,30,11.0,112.0
2873,65.0,28,30,10.0,97.0
2874,69.0,28,30,10.0,112.0
2875,65.0,2,60,11.0,112.0
2876,65.0,30,30,10.0,112.0
2877,65.0,4,470,7.0,100.0
2878,57.0,0,470,7.0,100.0
2879,51.0,3,470,8.0,100.0
2880,69.0,30,30,10.0,112.0
2881,60.0,3,352,3.0,96.0
2882,36.0,4,240,13.0,110.0
2883,38.0,2,30,13.0,95.0
2884,72.0,30,60,10.0,86.0
2885,45.0,27,30,13.0,110.0
2886,38.0,30,30,13.0,110.0
2887,45.0,30,30,13.0,110.0
2888,62.0,3,120,3.0,96.0
2889,48.0,26,30,12.0,96.0
2890,54.0,23,30,12.0,111.0
2891,48.0,4,60,13.0,110.0
2892,48.0,30,30,12.0,111.0
2893,54.0,30,30,12.0,111.0
2894,59.0,3,120,3.0,81.0
2895,57.0,1,30,11.0,97.0
2896,60.0,20,30,11.0,112.0
2897,57.0,1,60,12.0,111.0
2898,57.0,30,30,11.0,112.0
2899,84.0,26,120,0.0,70.0
2900,60.0,30,30,11.0,112.0
2901,72.0,2,120,1.0,69.0
2902,60.0,7,120,3.0,81.0
2903,66.0,28,30,10.0,97.0
2904,69.0,18,30,10.0,112.0
2905,66.0,1,60,11.0,112.0
2906,66.0,30,30,10.0,112.0
2907,57.0,4,470,7.0,100.0
2908,66.0,0,470,7.0,100.0
2909,50.0,3,470,8.0,100.0
2910,69.0,30,30,10.0,112.0
2911,86.0,1,120,0.0,70.0
2912,74.0,2,120,1.0,69.0
2913,48.0,0,2400,4.0,94.0
2914,36.0,0,2400,5.0,94.0
2915,62.0,8,120,3.0,81.0
2916,55.0,1,30,11.0,97.0
2917,40.0,2,30,13.0,95.0
2918,60.0,20,30,11.0,112.0
2919,43.0,7,30,13.0,110.0
2920,55.0,23,30,11.0,112.0
2921,40.0,7,30,13.0,110.0
2922,83.0,31,120,0.0,70.0
2923,60.0,23,30,11.0,112.0
2924,71.0,0,120,1.0,69.0
2925,43.0,7,30,13.0,110.0
2926,59.0,3,120,3.0,81.0
2927,67.0,21,30,10.0,97.0
2928,52.0,1,30,12.0,96.0
2929,72.0,18,30,10.0,112.0
2930,64.0,1,60,11.0,112.0
2931,55.0,5,30,12.0,111.0
2932,48.0,4,60,13.0,110.0
2933,67.0,25,30,10.0,112.0
2934,52.0,5,30,12.0,111.0
2935,84.0,1,112,0.0,70.0
2936,67.0,0,230,7.0,100.0
2937,67.0,0,230,4.0,79.0
2938,55.0,2,230,7.0,100.0
2939,72.0,2,112,1.0,69.0
2940,60.0,2,230,5.0,79.0
2941,52.0,1,230,8.0,100.0
2942,72.0,25,30,10.0,112.0
2943,36.0,0,2630,14.0,96.0
2944,60.0,3,112,3.0,81.0
2945,55.0,5,30,12.0,111.0
2946,64.0,1,30,11.0,112.0
2947,48.0,2,30,13.0,110.0
2948,67.0,20,30,11.0,112.0
2949,52.0,7,30,13.0,110.0
2950,64.0,23,30,11.0,112.0
2951,48.0,7,30,13.0,110.0
2952,79.0,26,120,0.0,70.0
2953,76.0,0,120,0.0,70.0
2954,67.0,23,30,11.0,112.0
2955,55.0,2,120,7.0,100.0
2956,67.0,0,120,1.0,69.0
2957,64.0,0,120,7.0,100.0
2958,72.0,0,0,4.0,79.0
2959,60.0,1,0,5.0,79.0
2960,48.0,1,120,8.0,100.0
2961,52.0,7,30,13.0,110.0
2962,55.0,0,120,3.0,81.0
2963,52.0,0,120,3.0,81.0
2964,36.0,3,120,14.0,51.0
2965,72.0,21,30,10.0,97.0
2966,57.0,1,30,12.0,96.0
2967,77.0,18,30,10.0,112.0
2968,69.0,1,60,11.0,112.0
2969,60.0,5,30,12.0,111.0
2970,53.0,2,60,13.0,110.0
2971,72.0,25,30,10.0,112.0
2972,57.0,5,30,12.0,111.0
2973,77.0,25,30,10.0,112.0
2974,81.0,1,120,0.0,70.0
2975,72.0,0,120,0.0,70.0
2976,57.0,2,120,7.0,100.0
2977,65.0,0,120,7.0,100.0
2978,69.0,0,120,1.0,69.0
2979,60.0,5,30,12.0,111.0
2980,60.0,1,0,5.0,79.0
2981,53.0,1,120,8.0,100.0
2982,53.0,0,120,3.0,81.0
2983,57.0,3,120,3.0,81.0
2984,29.0,0,120,14.0,51.0
2985,67.0,1,30,11.0,97.0
2986,48.0,2,30,13.0,95.0
2987,76.0,25,60,10.0,112.0
2988,71.0,20,30,11.0,112.0
2989,64.0,1,60,12.0,111.0
2990,52.0,7,30,13.0,110.0
2991,67.0,23,30,11.0,112.0
2992,48.0,7,30,13.0,110.0
2993,76.0,1,120,0.0,70.0
2994,79.0,0,120,0.0,70.0
2995,71.0,23,30,11.0,112.0
2996,72.0,0,120,4.0,79.0
2997,67.0,0,120,1.0,69.0
2998,55.0,2,120,7.0,100.0
2999,64.0,0,120,7.0,100.0
3000,60.0,1,0,5.0,79.0
3001,48.0,1,120,8.0,100.0
3002,52.0,7,30,13.0,110.0
3003,52.0,3,120,3.0,81.0
3004,55.0,0,120,3.0,81.0
3005,36.0,0,120,14.0,51.0
3006,72.0,21,30,10.0,97.0
3007,57.0,1,30,12.0,96.0
3008,77.0,18,30,10.0,112.0
3009,69.0,1,60,11.0,112.0
3010,60.0,5,30,12.0,111.0
3011,53.0,2,60,13.0,110.0
3012,72.0,25,30,10.0,112.0
3013,57.0,5,30,12.0,111.0
3014,81.0,0,112,0.0,70.0
3015,69.0,2,112,1.0,69.0
3016,77.0,25,30,10.0,112.0
3017,72.0,1,120,0.0,70.0
3018,57.0,0,112,3.0,81.0
3019,53.0,0,112,3.0,81.0
3020,57.0,0,120,7.0,100.0
3021,65.0,0,120,7.0,100.0
3022,72.0,0,120,4.0,79.0
3023,60.0,5,30,12.0,111.0
3024,53.0,1,120,8.0,100.0
3025,29.0,3,120,14.0,51.0
3026,71.0,1,30,11.0,97.0
3027,55.0,2,30,13.0,95.0
3028,74.0,25,60,10.0,112.0
3029,79.0,1,60,0.0,70.0
3030,74.0,20,30,11.0,112.0
3031,67.0,2,60,1.0,69.0
3032,55.0,1,60,12.0,111.0
3033,59.0,7,30,13.0,110.0
3034,71.0,1,30,11.0,112.0
3035,55.0,5,30,13.0,110.0
3036,77.0,22,52,0.0,70.0
3037,71.0,0,112,0.0,70.0
3038,65.0,2,52,1.0,69.0
3039,74.0,20,30,11.0,112.0
3040,67.0,0,120,4.0,79.0
3041,59.0,0,120,7.0,100.0
3042,53.0,3,52,3.0,81.0
3043,62.0,0,120,7.0,100.0
3044,55.0,0,112,3.0,81.0
3045,62.0,0,120,2.0,70.0
3046,55.0,0,120,5.0,79.0
3047,59.0,1,120,2.0,70.0
3048,55.0,1,120,8.0,100.0
3049,59.0,7,30,13.0,110.0
3050,31.0,3,120,14.0,51.0
3051,76.0,21,30,10.0,97.0
3052,60.0,1,30,12.0,96.0
3053,72.0,18,30,10.0,112.0
3054,72.0,0,60,0.0,70.0
3055,67.0,1,60,11.0,112.0
3056,55.0,5,30,12.0,111.0
3057,60.0,2,60,13.0,110.0
3058,76.0,1,22,0.0,70.0
3059,64.0,2,82,1.0,69.0
3060,76.0,25,30,10.0,112.0
3061,52.0,0,82,3.0,81.0
3062,60.0,4,30,12.0,111.0
3063,76.0,1,22,0.0,75.0
3064,64.0,3,22,1.0,74.0
3065,72.0,25,30,10.0,112.0
3066,48.0,0,112,3.0,81.0
3067,60.0,0,120,7.0,100.0
3068,52.0,7,22,3.0,86.0
3069,64.0,0,120,7.0,100.0
3070,55.0,1,30,12.0,111.0
3071,48.0,1,120,8.0,100.0
3072,36.0,3,120,14.0,51.0
3073,67.0,1,30,11.0,97.0
3074,48.0,4,30,13.0,95.0
3075,67.0,18,60,10.0,112.0
3076,72.0,20,30,11.0,112.0
3077,52.0,1,60,12.0,111.0
3078,52.0,7,30,13.0,110.0
3079,79.0,1,82,0.0,70.0
3080,67.0,1,30,11.0,112.0
3081,55.0,3,82,3.0,81.0
3082,48.0,7,30,13.0,110.0
3083,72.0,22,52,0.0,70.0
3084,79.0,22,22,0.0,75.0
3085,67.0,2,22,1.0,74.0
3086,72.0,1,30,11.0,112.0
3087,52.0,0,112,3.0,81.0
3088,55.0,3,22,3.0,86.0
3089,64.0,0,240,2.0,70.0
3090,60.0,1,240,2.0,70.0
3091,52.0,5,30,13.0,110.0
3092,28.0,0,120,14.0,51.0
3093,74.0,18,30,10.0,97.0
3094,59.0,1,30,12.0,96.0
3095,71.0,18,30,10.0,112.0
3096,74.0,1,60,11.0,112.0
3097,55.0,5,30,12.0,111.0
3098,55.0,3,60,13.0,110.0
3099,74.0,25,30,10.0,112.0
3100,59.0,5,30,12.0,111.0
3101,71.0,25,30,10.0,112.0
3102,55.0,5,30,12.0,111.0
3103,31.0,0,120,14.0,51.0
3104,67.0,2,30,11.0,97.0
3105,53.0,3,30,13.0,95.0
3106,67.0,25,60,10.0,112.0
3107,71.0,20,30,11.0,112.0
3108,62.0,1,60,12.0,111.0
3109,50.0,7,30,13.0,110.0
3110,67.0,23,30,11.0,112.0
3111,53.0,7,30,13.0,110.0
3112,77.0,0,232,0.0,70.0
3113,86.0,1,232,0.0,70.0
3114,71.0,0,232,1.0,69.0
3115,74.0,2,232,1.0,69.0
3116,59.0,0,232,2.0,70.0
3117,65.0,1,232,2.0,70.0
3118,71.0,23,30,11.0,112.0
3119,55.0,2,120,4.0,79.0
3120,53.0,0,232,3.0,81.0
3121,62.0,3,232,3.0,81.0
3122,43.0,1,120,5.0,79.0
3123,50.0,7,30,13.0,110.0
3124,43.0,3,120,14.0,51.0
3125,64.0,21,30,10.0,97.0
3126,60.0,1,30,12.0,96.0
3127,60.0,18,30,10.0,112.0
3128,72.0,1,60,11.0,112.0
3129,55.0,5,30,12.0,111.0
3130,64.0,1,60,2.0,85.0
3131,48.0,3,60,13.0,110.0
3132,64.0,25,30,10.0,112.0
3133,60.0,5,30,12.0,111.0
3134,60.0,0,112,2.0,70.0
3135,60.0,24,30,10.0,112.0
3136,84.0,1,120,0.0,70.0
3137,76.0,0,120,0.0,70.0
3138,60.0,0,112,3.0,81.0
3139,52.0,0,112,3.0,81.0
3140,52.0,0,120,4.0,79.0
3141,72.0,2,120,1.0,69.0
3142,55.0,5,30,12.0,111.0
3143,48.0,0,120,5.0,79.0
3144,65.0,1,60,2.0,85.0
3145,36.0,3,120,14.0,51.0
3146,55.0,2,30,11.0,97.0
3147,48.0,3,30,13.0,95.0
3148,55.0,25,60,10.0,112.0
3149,60.0,20,30,11.0,112.0
3150,52.0,1,60,12.0,111.0
3151,66.0,0,60,2.0,85.0
3152,52.0,7,30,13.0,110.0
3153,55.0,23,30,11.0,112.0
3154,48.0,3,30,13.0,110.0
3155,60.0,23,30,11.0,112.0
3156,55.0,2,120,4.0,79.0
3157,67.0,4,60,2.0,85.0
3158,52.0,0,120,5.0,79.0
3159,60.0,1,120,2.0,70.0
3160,52.0,7,30,13.0,110.0
3161,40.0,0,120,3.0,81.0
3162,48.0,3,120,3.0,81.0
3163,62.0,21,30,10.0,97.0
3164,59.0,1,30,12.0,96.0
3165,59.0,18,30,10.0,112.0
3166,62.0,2,60,11.0,112.0
3167,55.0,5,30,12.0,111.0
3168,76.0,0,60,2.0,85.0
3169,43.0,3,60,13.0,110.0
3170,62.0,25,30,10.0,112.0
3171,59.0,5,30,12.0,111.0
3172,59.0,24,30,10.0,112.0
3173,55.0,5,30,12.0,111.0
3174,74.0,1,60,2.0,85.0
3175,67.0,2,30,11.0,97.0
3176,53.0,3,30,13.0,95.0
3177,55.0,25,60,10.0,112.0
3178,71.0,20,30,11.0,112.0
3179,62.0,3,60,12.0,111.0
3180,67.0,1,60,2.0,85.0
3181,50.0,7,30,13.0,110.0
3182,67.0,23,30,11.0,112.0
3183,53.0,3,30,13.0,110.0
3184,62.0,2,230,4.0,79.0
3185,55.0,1,230,5.0,79.0
3186,74.0,4,52,2.0,85.0
3187,59.0,0,232,2.0,70.0
3188,71.0,23,30,11.0,112.0
3189,43.0,3,232,3.0,81.0
3190,53.0,0,232,3.0,81.0
3191,50.0,7,30,13.0,110.0
3192,31.0,3,120,14.0,51.0
3193,72.0,21,30,10.0,97.0
3194,64.0,1,30,12.0,96.0
3195,76.0,18,30,10.0,112.0
3196,72.0,1,60,11.0,112.0
3197,60.0,5,30,12.0,111.0
3198,48.0,3,60,13.0,110.0
3199,72.0,25,30,10.0,112.0
3200,64.0,5,30,12.0,111.0
3201,76.0,25,30,10.0,112.0
3202,76.0,1,120,0.0,70.0
3203,84.0,0,120,0.0,70.0
3204,64.0,0,120,1.0,69.0
3205,72.0,0,120,1.0,69.0
3206,60.0,2,120,4.0,79.0
3207,60.0,5,30,12.0,111.0
3208,67.0,0,120,2.0,70.0
3209,55.0,0,120,2.0,70.0
3210,52.0,1,120,5.0,79.0
3211,52.0,3,120,3.0,81.0
3212,60.0,0,120,3.0,81.0
3213,36.0,3,0,14.0,51.0
3214,74.0,1,30,11.0,97.0
3215,59.0,3,30,13.0,95.0
3216,79.0,25,60,10.0,112.0
3217,86.0,0,60,0.0,70.0
3218,71.0,20,30,11.0,112.0
3219,74.0,2,60,1.0,69.0
3220,65.0,1,60,12.0,111.0
3221,59.0,0,60,2.0,70.0
3222,71.0,1,60,2.0,70.0
3223,62.0,7,30,13.0,110.0
3224,62.0,0,60,3.0,81.0
3225,74.0,1,30,11.0,112.0
3226,59.0,3,30,13.0,110.0
3227,62.0,0,47,2.0,70.0
3228,74.0,2,47,2.0,70.0
3229,77.0,1,120,0.0,70.0
3230,83.0,22,60,0.0,70.0
3231,71.0,20,30,11.0,112.0
3232,71.0,2,60,1.0,69.0
3233,65.0,0,120,1.0,69.0
3234,62.0,7,30,13.0,110.0
3235,53.0,0,120,3.0,81.0
3236,59.0,3,60,3.0,81.0
3237,76.0,21,30,10.0,97.0
3238,67.0,1,30,12.0,96.0
3239,72.0,18,30,10.0,112.0
3240,67.0,1,60,11.0,112.0
3241,64.0,5,30,12.0,111.0
3242,60.0,3,60,13.0,110.0
3243,76.0,25,30,10.0,112.0
3244,67.0,5,30,12.0,111.0
3245,72.0,25,30,10.0,112.0
3246,84.0,1,120,0.0,70.0
3247,67.0,0,115,2.0,70.0
3248,55.0,1,115,2.0,70.0
3249,72.0,0,120,1.0,69.0
3250,64.0,5,30,12.0,111.0
3251,60.0,0,120,3.0,81.0
3252,64.0,1,30,11.0,97.0
3253,60.0,3,30,13.0,95.0
3254,67.0,25,60,10.0,112.0
3255,76.0,0,180,0.0,70.0
3256,60.0,20,30,11.0,112.0
3257,64.0,2,180,1.0,69.0
3258,67.0,1,60,12.0,111.0
3259,60.0,1,60,2.0,70.0
3260,72.0,0,60,2.0,70.0
3261,55.0,7,30,13.0,110.0
3262,52.0,3,180,3.0,81.0
3263,64.0,1,30,11.0,112.0
3264,60.0,3,30,13.0,110.0
3265,79.0,22,55,0.0,70.0
3266,67.0,2,55,1.0,69.0
3267,60.0,20,30,11.0,112.0
3268,59.0,0,60,2.0,70.0
3269,71.0,2,60,2.0,70.0
3270,55.0,3,55,3.0,81.0
3271,55.0,7,30,13.0,110.0
3272,36.0,3,120,14.0,51.0
3273,76.0,21,30,10.0,97.0
3274,66.0,1,30,12.0,96.0
3275,72.0,18,30,10.0,112.0
3276,88.0,0,60,0.0,70.0
3277,57.0,1,60,11.0,112.0
3278,76.0,2,60,1.0,69.0
3279,69.0,5,30,12.0,111.0
3280,48.0,3,60,13.0,110.0
3281,64.0,3,60,3.0,81.0
3282,76.0,25,30,10.0,112.0
3283,66.0,1,30,12.0,111.0
3284,72.0,18,30,10.0,112.0
3285,78.0,1,120,0.0,70.0
3286,84.0,1,60,0.0,70.0
3287,66.0,0,120,1.0,69.0
3288,72.0,3,60,1.0,69.0
3289,69.0,5,30,12.0,111.0
3290,69.0,0,120,2.0,70.0
3291,57.0,1,120,2.0,70.0
3292,54.0,0,120,3.0,81.0
3293,60.0,7,60,3.0,81.0
3294,36.0,0,120,14.0,51.0
3295,74.0,1,30,11.0,97.0
3296,59.0,3,30,13.0,95.0
3297,74.0,25,60,10.0,112.0
3298,71.0,20,30,11.0,112.0
3299,65.0,1,60,12.0,111.0
3300,59.0,0,60,2.0,70.0
3301,71.0,1,60,2.0,70.0
3302,62.0,7,30,13.0,110.0
3303,74.0,23,30,11.0,112.0
3304,59.0,3,30,13.0,110.0
3305,86.0,1,120,0.0,70.0
3306,77.0,0,120,0.0,70.0
3307,71.0,23,30,11.0,112.0
3308,65.0,0,120,1.0,69.0
3309,74.0,2,120,1.0,69.0
3310,55.0,4,60,2.0,70.0
3311,67.0,0,60,2.0,70.0
3312,62.0,7,30,13.0,110.0
3313,53.0,3,120,3.0,81.0
3314,62.0,0,120,3.0,81.0
3315,36.0,0,120,14.0,51.0
3316,67.0,21,30,10.0,97.0
3317,64.0,1,30,12.0,96.0
3318,64.0,18,30,10.0,112.0
3319,67.0,1,60,11.0,112.0
3320,60.0,5,30,12.0,111.0
3321,60.0,3,60,13.0,110.0
3322,67.0,25,30,10.0,112.0
3323,64.0,5,30,12.0,111.0
3324,76.0,0,115,0.0,70.0
3325,79.0,1,115,0.0,70.0
3326,67.0,0,115,1.0,69.0
3327,64.0,2,115,1.0,69.0
3328,64.0,25,30,10.0,112.0
3329,60.0,5,30,12.0,111.0
3330,72.0,0,120,2.0,70.0
3331,60.0,1,120,2.0,70.0
3332,55.0,3,115,3.0,81.0
3333,52.0,0,115,3.0,81.0
3334,64.0,1,30,11.0,97.0
3335,60.0,4,30,13.0,95.0
3336,69.0,25,60,10.0,112.0
3337,81.0,1,60,0.0,70.0
3338,60.0,20,30,11.0,112.0
3339,69.0,2,60,1.0,69.0
3340,57.0,1,60,12.0,111.0
3341,57.0,7,30,13.0,110.0
3342,57.0,0,60,3.0,81.0
3343,64.0,1,30,11.0,112.0
3344,60.0,5,30,13.0,110.0
3345,79.0,22,47,0.0,70.0
3346,67.0,2,47,1.0,69.0
3347,55.0,3,47,3.0,81.0
3348,76.0,0,120,0.0,70.0
3349,60.0,20,30,11.0,112.0
3350,64.0,0,120,1.0,69.0
3351,57.0,7,30,13.0,110.0
3352,36.0,3,120,14.0,51.0
3353,66.0,21,30,10.0,97.0
3354,57.0,1,30,12.0,96.0
3355,62.0,18,30,10.0,112.0
3356,62.0,1,60,11.0,112.0
3357,54.0,5,30,12.0,111.0
3358,50.0,4,60,13.0,110.0
3359,78.0,1,85,0.0,70.0
3360,66.0,2,85,1.0,69.0
3361,66.0,25,30,10.0,112.0
3362,57.0,5,30,12.0,111.0
3363,78.0,1,25,0.0,70.0
3364,74.0,0,115,0.0,70.0
3365,62.0,0,115,1.0,69.0
3366,66.0,3,25,1.0,69.0
3367,62.0,25,30,10.0,112.0
3368,54.0,1,30,12.0,111.0
3369,54.0,0,120,3.0,81.0
3370,48.0,0,240,3.0,81.0
3371,36.0,3,120,14.0,51.0
3372,67.0,1,30,11.0,97.0
3373,59.0,4,30,13.0,95.0
3374,67.0,25,60,10.0,112.0
3375,62.0,20,30,11.0,112.0
3376,50.0,1,60,12.0,111.0
3377,55.0,7,30,13.0,110.0
3378,79.0,1,85,0.0,70.0
3379,67.0,2,85,1.0,69.0
3380,67.0,23,30,11.0,112.0
3381,59.0,7,30,13.0,110.0
3382,79.0,22,25,0.0,75.0
3383,67.0,2,25,1.0,74.0
3384,74.0,0,120,0.0,70.0
3385,62.0,1,30,11.0,112.0
3386,62.0,0,120,1.0,69.0
3387,55.0,5,30,13.0,110.0
3388,55.0,3,120,3.0,81.0
3389,47.0,0,120,3.0,81.0
3390,35.0,0,120,14.0,51.0
3391,72.0,21,30,10.0,97.0
3392,57.0,1,30,12.0,96.0
3393,64.0,18,30,10.0,112.0
3394,64.0,1,60,11.0,112.0
3395,60.0,5,30,12.0,111.0
3396,52.0,4,60,13.0,110.0
3397,72.0,25,30,10.0,112.0
3398,57.0,5,30,12.0,111.0
3399,64.0,25,30,10.0,112.0
3400,76.0,1,120,0.0,70.0
3401,64.0,0,120,1.0,69.0
3402,60.0,5,30,12.0,111.0
3403,33.0,0,120,14.0,51.0
3404,45.0,3,120,3.0,81.0
3405,52.0,0,120,3.0,81.0
3406,72.0,1,30,11.0,97.0
3407,57.0,4,30,13.0,95.0
3408,66.0,25,60,10.0,112.0
3409,69.0,20,30,11.0,112.0
3410,57.0,1,60,12.0,111.0
3411,54.0,7,30,13.0,110.0
3412,72.0,23,30,11.0,112.0
3413,57.0,7,30,13.0,110.0
3414,84.0,0,235,0.0,70.0
3415,72.0,2,235,1.0,69.0
3416,69.0,23,30,11.0,112.0
3417,38.0,0,115,3.0,81.0
3418,54.0,7,30,13.0,110.0
3419,38.0,3,120,14.0,51.0
3420,66.0,21,30,10.0,97.0
3421,51.0,1,30,12.0,96.0
3422,59.0,18,30,10.0,112.0
3423,66.0,1,60,11.0,112.0
3424,59.0,5,30,12.0,111.0
3425,66.0,1,60,2.0,85.0
3426,59.0,3,60,13.0,110.0
3427,66.0,25,30,10.0,112.0
3428,51.0,5,30,12.0,111.0
3429,59.0,24,30,10.0,112.0
3430,83.0,1,120,0.0,70.0
3431,78.0,1,240,0.0,70.0
3432,71.0,2,120,1.0,69.0
3433,66.0,2,240,1.0,69.0
3434,54.0,0,120,4.0,79.0
3435,59.0,5,30,12.0,111.0
3436,54.0,0,120,5.0,79.0
3437,69.0,1,60,2.0,85.0
3438,39.0,0,120,3.0,81.0
3439,39.0,0,120,14.0,51.0
3440,67.0,2,30,11.0,97.0
3441,52.0,3,30,13.0,95.0
3442,67.0,25,60,10.0,112.0
3443,59.0,20,30,11.0,112.0
3444,52.0,1,60,12.0,111.0
3445,67.0,0,60,2.0,85.0
3446,55.0,7,30,13.0,110.0
3447,67.0,23,30,11.0,112.0
3448,52.0,3,30,13.0,110.0
3449,59.0,23,30,11.0,112.0
3450,55.0,2,120,4.0,79.0
3451,71.0,4,60,2.0,85.0
3452,55.0,7,30,13.0,110.0
3453,47.0,3,240,3.0,81.0
3454,40.0,3,120,3.0,81.0
3455,67.0,21,30,10.0,97.0
3456,48.0,1,30,12.0,96.0
3457,64.0,18,30,10.0,112.0
3458,64.0,2,60,11.0,112.0
3459,57.0,5,30,12.0,111.0
3460,72.0,1,60,2.0,85.0
3461,45.0,3,60,13.0,110.0
3462,67.0,25,30,10.0,112.0
3463,48.0,5,30,12.0,111.0
3464,64.0,24,30,10.0,112.0
3465,57.0,5,30,12.0,111.0
3466,76.0,1,60,2.0,85.0
3467,55.0,1,240,5.0,79.0
3468,52.0,0,120,3.0,81.0
3469,69.0,2,30,11.0,97.0
3470,50.0,3,30,13.0,95.0
3471,66.0,25,60,10.0,112.0
3472,66.0,20,30,11.0,112.0
3473,50.0,3,60,12.0,111.0
3474,74.0,0,60,2.0,85.0
3475,57.0,7,30,13.0,110.0
3476,69.0,23,30,11.0,112.0
3477,50.0,3,30,13.0,110.0
3478,60.0,2,235,4.0,79.0
3479,54.0,1,115,5.0,94.0
3480,69.0,4,55,2.0,85.0
3481,66.0,23,30,11.0,112.0
3482,45.0,3,235,3.0,81.0
3483,50.0,0,115,3.0,96.0
3484,57.0,7,30,13.0,110.0
3485,38.0,3,120,14.0,51.0
3486,74.0,21,30,10.0,97.0
3487,59.0,1,30,12.0,96.0
3488,71.0,18,30,10.0,112.0
3489,67.0,1,60,11.0,112.0
3490,62.0,5,30,12.0,111.0
3491,55.0,3,60,13.0,110.0
3492,74.0,25,30,10.0,112.0
3493,59.0,5,30,12.0,111.0
3494,71.0,25,30,10.0,112.0
3495,86.0,1,120,0.0,70.0
3496,83.0,0,120,0.0,70.0
3497,59.0,2,120,4.0,79.0
3498,71.0,0,120,1.0,69.0
3499,74.0,0,120,1.0,69.0
3500,62.0,5,30,12.0,111.0
3501,55.0,1,120,5.0,79.0
3502,71.0,0,120,2.0,85.0
3503,59.0,3,120,3.0,81.0
3504,31.0,0,120,14.0,51.0
3505,62.0,0,120,3.0,81.0
3506,76.0,1,30,11.0,97.0
3507,60.0,4,30,13.0,95.0
3508,67.0,25,60,10.0,112.0
3509,88.0,0,60,0.0,70.0
3510,84.0,1,60,0.0,70.0
3511,72.0,20,30,11.0,112.0
3512,72.0,2,0,1.0,69.0
3513,76.0,0,60,1.0,69.0
3514,55.0,1,60,12.0,111.0
3515,64.0,7,30,13.0,110.0
3516,64.0,3,60,3.0,81.0
3517,60.0,3,0,3.0,81.0
3518,76.0,1,30,11.0,112.0
3519,60.0,5,30,13.0,110.0
3520,84.0,0,60,0.0,70.0
3521,81.0,22,60,0.0,70.0
3522,72.0,20,30,11.0,112.0
3523,69.0,0,60,1.0,69.0
3524,64.0,7,30,13.0,110.0
3525,57.0,0,60,3.0,81.0
3526,31.0,0,120,14.0,51.0
3527,74.0,21,30,10.0,97.0
3528,59.0,1,30,12.0,96.0
3529,71.0,18,30,10.0,112.0
3530,67.0,1,60,11.0,112.0
3531,62.0,5,30,12.0,111.0
3532,55.0,4,60,13.0,110.0
3533,74.0,25,30,10.0,112.0
3534,59.0,5,30,12.0,111.0
3535,71.0,25,30,10.0,112.0
3536,86.0,0,120,0.0,70.0
3537,83.0,1,120,0.0,70.0
3538,74.0,2,120,1.0,69.0
3539,71.0,0,120,1.0,69.0
3540,62.0,5,30,12.0,111.0
3541,62.0,0,120,3.0,81.0
3542,59.0,3,120,3.0,81.0
3543,67.0,1,30,11.0,97.0
3544,59.0,3,30,13.0,95.0
3545,67.0,25,60,10.0,112.0
3546,71.0,20,30,11.0,112.0
3547,55.0,1,60,12.0,111.0
3548,62.0,7,30,13.0,110.0
3549,67.0,23,30,11.0,112.0
3550,59.0,7,30,13.0,110.0
3551,79.0,1,112,0.0,59.0
3552,67.0,2,112,1.0,58.0
3553,71.0,23,30,11.0,112.0
3554,55.0,3,112,3.0,69.0
3555,62.0,0,120,4.0,79.0
3556,59.0,0,120,5.0,79.0
3557,71.0,1,120,2.0,59.0
3558,74.0,0,120,2.0,59.0
3559,62.0,7,30,13.0,110.0
3560,43.0,0,120,14.0,51.0
3561,73.0,21,30,10.0,97.0
3562,64.0,1,30,12.0,96.0
3563,70.0,18,30,10.0,112.0
3564,91.0,1,60,0.0,70.0
3565,67.0,1,60,11.0,112.0
3566,79.0,2,60,1.0,69.0
3567,67.0,5,30,12.0,111.0
3568,55.0,3,60,13.0,110.0
3569,67.0,3,60,3.0,81.0
3570,73.0,25,30,10.0,112.0
3571,64.0,1,30,12.0,111.0
3572,70.0,18,30,10.0,112.0
3573,82.0,0,120,0.0,70.0
3574,88.0,1,60,0.0,70.0
3575,76.0,3,60,1.0,69.0
3576,70.0,0,120,1.0,69.0
3577,64.0,0,120,4.0,79.0
3578,67.0,5,30,12.0,111.0
3579,61.0,0,120,5.0,79.0
3580,73.0,0,120,2.0,70.0
3581,76.0,1,120,2.0,70.0
3582,58.0,0,120,3.0,81.0
3583,64.0,7,60,3.0,81.0
3584,43.0,0,0,14.0,51.0
3585,74.0,1,30,11.0,97.0
3586,62.0,3,30,13.0,95.0
3587,69.0,25,60,10.0,112.0
3588,69.0,20,30,11.0,112.0
3589,55.0,1,60,12.0,111.0
3590,65.0,7,30,13.0,110.0
3591,74.0,23,30,11.0,112.0
3592,62.0,7,30,13.0,110.0
3593,89.0,0,120,0.0,70.0
3594,81.0,1,120,0.0,70.0
3595,69.0,23,30,11.0,112.0
3596,69.0,0,120,1.0,69.0
3597,77.0,0,120,1.0,69.0
3598,62.0,2,120,4.0,79.0
3599,74.0,1,120,2.0,70.0
3600,62.0,0,120,5.0,79.0
3601,65.0,7,30,13.0,110.0
3602,65.0,0,120,3.0,81.0
3603,57.0,3,120,3.0,81.0
3604,68.0,21,30,10.0,97.0
3605,60.0,1,30,12.0,96.0
3606,65.0,18,30,10.0,112.0
3607,65.0,1,60,11.0,112.0
3608,62.0,5,30,12.0,111.0
3609,55.0,3,60,13.0,110.0
3610,68.0,25,30,10.0,112.0
3611,60.0,5,30,12.0,111.0
3612,65.0,25,30,10.0,112.0
3613,86.0,1,120,0.0,70.0
3614,80.0,0,120,0.0,70.0
3615,68.0,0,120,1.0,69.0
3616,65.0,0,120,4.0,79.0
3617,74.0,2,120,1.0,69.0
3618,62.0,5,30,12.0,111.0
3619,60.0,0,120,5.0,79.0
3620,72.0,0,120,2.0,70.0
3621,77.0,1,120,2.0,70.0
3622,56.0,3,120,3.0,81.0
3623,62.0,0,120,3.0,81.0
3624,67.0,1,30,11.0,97.0
3625,59.0,3,30,13.0,95.0
3626,62.0,25,60,10.0,112.0
3627,71.0,20,30,11.0,112.0
3628,67.0,0,60,4.0,79.0
3629,55.0,1,60,12.0,111.0
3630,79.0,0,60,2.0,70.0
3631,62.0,7,30,13.0,110.0
3632,67.0,23,30,11.0,112.0
3633,59.0,3,30,13.0,110.0
3634,79.0,1,112,0.0,70.0
3635,67.0,2,112,1.0,69.0
3636,77.0,2,52,2.0,70.0
3637,71.0,1,112,2.0,70.0
3638,65.0,2,55,4.0,79.0
3639,59.0,0,115,5.0,79.0
3640,71.0,23,30,11.0,112.0
3641,55.0,3,112,3.0,81.0
3642,62.0,7,30,13.0,110.0
3643,72.0,21,30,10.0,97.0
3644,57.0,1,30,12.0,96.0
3645,69.0,18,30,10.0,112.0
3646,72.0,1,60,11.0,112.0
3647,60.0,5,30,12.0,111.0
3648,57.0,3,60,13.0,110.0
3649,84.0,1,82,0.0,70.0
3650,72.0,2,82,1.0,69.0
3651,72.0,25,30,10.0,112.0
3652,57.0,5,30,12.0,111.0
3653,84.0,1,22,0.0,82.0
3654,72.0,3,22,1.0,81.0
3655,72.0,0,112,2.0,70.0
3656,69.0,25,30,10.0,112.0
3657,57.0,0,112,3.0,81.0
3658,60.0,3,112,3.0,81.0
3659,60.0,1,30,12.0,111.0
3660,60.0,1,120,5.0,79.0
3661,45.0,0,120,14.0,51.0
3662,71.0,1,30,11.0,97.0
3663,56.0,3,30,13.0,95.0
3664,64.0,25,60,10.0,112.0
3665,68.0,20,30,11.0,112.0
3666,64.0,1,60,12.0,111.0
3667,71.0,1,60,2.0,70.0
3668,52.0,7,30,13.0,110.0
3669,56.0,0,60,3.0,81.0
3670,59.0,3,60,3.0,81.0
3671,71.0,23,30,11.0,112.0
3672,56.0,3,30,13.0,110.0
3673,88.0,1,112,0.0,82.0
3674,76.0,2,112,1.0,81.0
3675,76.0,0,232,2.0,70.0
3676,68.0,4,52,2.0,70.0
3677,64.0,0,235,4.0,79.0
3678,59.0,0,115,5.0,79.0
3679,68.0,20,30,11.0,112.0
3680,56.0,3,52,3.0,81.0
3681,52.0,0,52,3.0,81.0
3682,52.0,7,30,13.0,110.0
3683,44.0,0,120,14.0,51.0
3684,72.0,21,30,10.0,97.0
3685,57.0,1,30,12.0,96.0
3686,69.0,18,30,10.0,112.0
3687,64.0,1,60,11.0,112.0
3688,60.0,5,30,12.0,111.0
3689,57.0,3,60,13.0,110.0
3690,84.0,1,82,0.0,70.0
3691,72.0,2,82,1.0,69.0
3692,72.0,25,30,10.0,112.0
3693,57.0,5,30,12.0,111.0
3694,84.0,1,22,0.0,82.0
3695,72.0,3,22,1.0,81.0
3696,72.0,1,112,2.0,70.0
3697,69.0,25,30,10.0,112.0
3698,60.0,3,112,3.0,81.0
3699,57.0,0,112,3.0,81.0
3700,60.0,1,30,12.0,111.0
3701,60.0,0,120,5.0,79.0
3702,45.0,0,120,14.0,51.0
3703,71.0,1,30,11.0,97.0
3704,55.0,3,30,13.0,95.0
3705,64.0,25,60,10.0,112.0
3706,67.0,20,30,11.0,112.0
3707,64.0,1,60,12.0,111.0
3708,71.0,0,60,2.0,70.0
3709,52.0,7,30,13.0,110.0
3710,55.0,3,60,3.0,81.0
3711,59.0,0,60,3.0,81.0
3712,71.0,23,30,11.0,112.0
3713,55.0,3,30,13.0,110.0
3714,88.0,0,112,0.0,82.0
3715,76.0,0,112,1.0,81.0
3716,76.0,0,232,2.0,70.0
3717,67.0,4,52,2.0,70.0
3718,64.0,0,235,4.0,79.0
3719,59.0,1,115,5.0,79.0
3720,76.0,1,120,0.0,70.0
3721,67.0,20,30,11.0,112.0
3722,64.0,2,120,1.0,69.0
3723,55.0,0,52,3.0,81.0
3724,52.0,3,52,3.0,81.0
3725,52.0,7,30,13.0,110.0
3726,43.0,0,120,14.0,51.0
3727,69.0,21,30,10.0,97.0
3728,60.0,1,30,12.0,96.0
3729,65.0,18,30,10.0,112.0
3730,69.0,1,60,11.0,112.0
3731,57.0,5,30,12.0,111.0
3732,53.0,3,60,13.0,110.0
3733,81.0,0,82,0.0,70.0
3734,69.0,0,82,1.0,69.0
3735,69.0,25,30,10.0,112.0
3736,60.0,5,30,12.0,111.0
3737,81.0,1,22,0.0,70.0
3738,69.0,3,22,1.0,69.0
3739,65.0,25,30,10.0,112.0
3740,77.0,1,120,0.0,70.0
3741,65.0,2,120,1.0,69.0
3742,57.0,1,30,12.0,111.0
3743,69.0,1,120,2.0,70.0
3744,41.0,3,120,14.0,51.0
3745,57.0,0,120,3.0,81.0
3746,53.0,0,120,3.0,81.0
3747,72.0,1,30,11.0,97.0
3748,52.0,3,30,13.0,95.0
3749,67.0,25,60,10.0,112.0
3750,67.0,20,30,11.0,112.0
3751,60.0,1,60,12.0,111.0
3752,48.0,7,30,13.0,110.0
3753,84.0,0,82,0.0,70.0
3754,72.0,0,82,1.0,69.0
3755,72.0,23,30,11.0,112.0
3756,52.0,7,30,13.0,110.0
3757,84.0,22,22,0.0,70.0
3758,72.0,2,22,1.0,69.0
3759,79.0,1,120,0.0,70.0
3760,67.0,1,30,11.0,112.0
3761,67.0,2,120,1.0,69.0
3762,67.0,1,120,2.0,70.0
3763,48.0,5,30,13.0,110.0
3764,40.0,3,120,14.0,51.0
3765,55.0,0,120,3.0,81.0
3766,52.0,0,120,3.0,81.0
3767,69.0,21,30,10.0,97.0
3768,65.0,1,30,12.0,96.0
3769,65.0,18,30,10.0,112.0
3770,69.0,1,60,11.0,112.0
3771,57.0,5,30,12.0,111.0
3772,50.0,3,60,13.0,110.0
3773,69.0,25,30,10.0,112.0
3774,65.0,5,30,12.0,111.0
3775,65.0,25,30,10.0,112.0
3776,81.0,0,120,0.0,70.0
3777,69.0,0,120,1.0,69.0
3778,57.0,5,30,12.0,111.0
3779,65.0,1,120,2.0,70.0
3780,69.0,0,120,2.0,70.0
3781,53.0,0,120,3.0,81.0
3782,57.0,0,120,3.0,81.0
3783,38.0,0,0,14.0,51.0
3784,71.0,1,30,11.0,97.0
3785,38.0,3,30,13.0,95.0
3786,68.0,25,60,10.0,112.0
3787,65.0,20,30,11.0,112.0
3788,59.0,1,60,12.0,111.0
3789,44.0,7,30,13.0,110.0
3790,71.0,23,30,11.0,112.0
3791,38.0,7,30,13.0,110.0
3792,89.0,1,232,0.0,70.0
3793,83.0,1,112,0.0,70.0
3794,77.0,2,232,1.0,69.0
3795,71.0,2,112,1.0,69.0
3796,71.0,0,112,2.0,70.0
3797,68.0,1,112,2.0,70.0
3798,65.0,23,30,11.0,112.0
3799,56.0,3,112,3.0,81.0
3800,50.0,0,112,3.0,81.0
3801,44.0,7,30,13.0,110.0
3802,57.0,21,30,10.0,97.0
3803,52.0,1,30,12.0,96.0
3804,60.0,18,30,10.0,112.0
3805,64.0,1,60,11.0,112.0
3806,57.0,5,30,12.0,111.0
3807,45.0,3,60,13.0,110.0
3808,57.0,25,30,10.0,112.0
3809,52.0,5,30,12.0,111.0
3810,60.0,25,30,10.0,112.0
3811,84.0,0,120,0.0,59.0
3812,88.0,1,120,0.0,59.0
3813,76.0,2,120,1.0,58.0
3814,72.0,0,120,1.0,58.0
3815,57.0,0,120,4.0,79.0
3816,57.0,5,30,12.0,111.0
3817,69.0,0,120,2.0,59.0
3818,72.0,0,120,2.0,59.0
3819,45.0,0,120,3.0,81.0
3820,45.0,3,120,14.0,51.0
3821,43.0,5,30,13.0,95.0
3822,45.0,27,30,13.0,110.0
3823,43.0,30,30,13.0,110.0
3824,60.0,29,115,4.0,79.0
3825,57.0,0,232,3.0,81.0
3826,48.0,1,240,5.0,79.0
3827,45.0,30,30,13.0,110.0
3828,43.0,3,120,3.0,81.0
3829,60.0,21,30,10.0,97.0
3830,57.0,2,30,11.0,97.0
3831,53.0,1,30,12.0,96.0
3832,65.0,18,30,10.0,112.0
3833,60.0,2,30,11.0,112.0
3834,57.0,3,30,12.0,111.0
3835,41.0,3,60,13.0,110.0
3836,60.0,25,30,10.0,112.0
3837,57.0,2,30,11.0,112.0
3838,53.0,3,30,12.0,111.0
3839,65.0,25,30,10.0,112.0
3840,60.0,2,30,11.0,112.0
3841,57.0,3,30,12.0,111.0
3842,41.0,0,120,3.0,81.0
3843,40.0,3,30,13.0,95.0
3844,41.0,27,30,13.0,110.0
3845,40.0,30,30,13.0,110.0
3846,40.0,3,112,3.0,81.0
3847,41.0,30,30,13.0,110.0
3848,65.0,21,30,10.0,97.0
3849,60.0,2,30,11.0,97.0
3850,50.0,3,30,12.0,96.0
3851,69.0,18,30,10.0,112.0
3852,65.0,2,30,11.0,112.0
3853,60.0,3,30,12.0,111.0
3854,81.0,31,180,2.0,120.0
3855,38.0,4,60,13.0,110.0
3856,65.0,25,30,10.0,112.0
3857,60.0,2,30,11.0,112.0
3858,50.0,3,30,12.0,111.0
3859,69.0,24,30,10.0,111.0
3860,65.0,2,30,11.0,111.0
3861,60.0,3,30,12.0,110.0
3862,77.0,1,60,2.0,98.0
3863,65.0,2,420,4.0,79.0
3864,74.0,31,60,2.0,96.0
3865,69.0,2,52,2.0,94.0
3866,62.0,58,55,4.0,79.0
3867,60.0,1,475,5.0,79.0
3868,38.0,3,232,3.0,81.0
3869,57.0,3,472,3.0,81.0
3870,65.0,54,30,10.0,81.0
3871,62.0,2,30,11.0,81.0
3872,55.0,1,30,12.0,80.0
3873,67.0,18,30,10.0,94.0
3874,65.0,2,30,11.0,94.0
3875,62.0,3,30,12.0,93.0
3876,43.0,3,60,13.0,110.0
3877,65.0,25,30,10.0,94.0
3878,62.0,2,30,11.0,94.0
3879,55.0,3,30,12.0,93.0
3880,67.0,25,30,10.0,93.0
3881,65.0,2,30,11.0,93.0
3882,65.0,2,120,4.0,79.0
3883,62.0,3,30,12.0,92.0
3884,62.0,0,120,5.0,79.0
3885,72.0,1,120,2.0,85.0
3886,55.0,0,120,3.0,81.0
3887,71.0,0,112,2.0,85.0
3888,62.0,29,115,4.0,79.0
3889,55.0,2,115,5.0,79.0
3890,43.0,3,232,3.0,81.0
3891,53.0,6,112,3.0,81.0
3892,31.0,0,120,14.0,51.0
3893,84.0,109,120,0.0,70.0
3894,72.0,3,120,1.0,69.0
3895,64.0,0,120,2.0,70.0
3896,67.0,2,120,2.0,70.0
3897,36.0,6,0,14.0,50.0
3898,52.0,6,120,3.0,81.0
3899,55.0,0,120,3.0,81.0
3900,65.0,108,30,10.0,72.0
3901,57.0,1,30,12.0,71.0
3902,69.0,18,30,10.0,83.0
3903,86.0,1,60,0.0,70.0
3904,74.0,3,60,1.0,69.0
3905,53.0,5,30,12.0,82.0
3906,65.0,25,30,10.0,83.0
3907,57.0,1,30,12.0,82.0
3908,69.0,25,30,10.0,83.0
3909,81.0,1,60,0.0,70.0
3910,69.0,3,60,1.0,69.0
3911,53.0,5,30,12.0,82.0
3912,65.0,0,120,2.0,70.0
3913,69.0,1,120,2.0,70.0
3914,57.0,0,120,3.0,81.0
3915,53.0,0,120,3.0,81.0
3916,84.0,26,120,0.0,70.0
3917,72.0,3,120,1.0,69.0
3918,67.0,0,120,2.0,70.0
3919,55.0,6,120,3.0,81.0
3920,64.0,108,30,10.0,70.0
3921,55.0,1,30,12.0,69.0
3922,67.0,18,30,10.0,80.0
3923,52.0,5,30,12.0,79.0
3924,64.0,25,30,10.0,80.0
3925,55.0,5,30,12.0,79.0
3926,79.0,1,112,0.0,70.0
3927,67.0,3,112,1.0,69.0
3928,64.0,2,232,2.0,70.0
3929,72.0,1,112,2.0,70.0
3930,48.0,0,475,4.0,79.0
3931,67.0,25,30,10.0,80.0
3932,36.0,0,475,5.0,68.0
3933,60.0,0,112,3.0,81.0
3934,52.0,0,232,3.0,81.0
3935,52.0,5,30,12.0,79.0
3936,36.0,6,120,14.0,49.0
3937,88.0,26,60,0.0,70.0
3938,76.0,3,60,1.0,69.0
3939,84.0,49,60,0.0,70.0
3940,72.0,3,60,1.0,69.0
3941,67.0,0,120,2.0,70.0
3942,64.0,2,120,2.0,70.0
3943,52.0,0,120,3.0,81.0
3944,36.0,0,120,14.0,48.0
3945,55.0,6,120,3.0,81.0
3946,65.0,56,30,10.0,68.0
3947,57.0,1,30,12.0,67.0
3948,69.0,18,30,10.0,78.0
3949,86.0,1,60,0.0,70.0
3950,74.0,3,60,1.0,69.0
3951,53.0,5,30,12.0,77.0
3952,69.0,0,60,2.0,70.0
3953,57.0,0,60,3.0,81.0
3954,65.0,25,30,10.0,78.0
3955,57.0,1,30,12.0,77.0
3956,81.0,1,52,0.0,70.0
3957,69.0,3,52,1.0,69.0
3958,69.0,18,30,10.0,77.0
3959,53.0,5,30,12.0,76.0
3960,74.0,1,60,2.0,70.0
3961,65.0,1,120,2.0,70.0
3962,36.0,0,120,14.0,47.0
3963,53.0,6,120,3.0,81.0
3964,62.0,6,60,3.0,81.0
3965,84.0,26,112,0.0,70.0
3966,72.0,3,112,1.0,69.0
3967,67.0,0,112,2.0,70.0
3968,64.0,2,112,2.0,70.0
3969,48.0,0,355,4.0,79.0
3970,36.0,0,355,5.0,68.0
3971,55.0,0,112,3.0,81.0
3972,52.0,6,112,3.0,81.0
3973,67.0,108,40,10.0,89.0
3974,52.0,1,40,12.0,88.0
3975,64.0,28,40,10.0,101.0
3976,60.0,5,40,12.0,100.0
3977,67.0,35,40,10.0,103.0
3978,79.0,1,120,0.0,70.0
3979,67.0,3,120,1.0,69.0
3980,64.0,0,120,4.0,79.0
3981,52.0,5,40,12.0,102.0
3982,60.0,0,120,2.0,70.0
3983,52.0,0,120,5.0,79.0
3984,64.0,1,120,2.0,70.0
3985,60.0,0,120,3.0,81.0
3986,52.0,6,120,3.0,81.0
3987,67.0,1,40,11.0,92.0
3988,59.0,3,40,13.0,90.0
3989,62.0,35,60,10.0,104.0
3990,55.0,1,60,12.0,103.0
3991,62.0,30,40,11.0,105.0
3992,55.0,7,40,13.0,103.0
3993,79.0,1,120,0.0,70.0
3994,67.0,33,40,11.0,106.0
3995,67.0,2,0,1.0,69.0
3996,62.0,0,120,4.0,79.0
3997,55.0,0,120,5.0,79.0
3998,62.0,0,120,2.0,70.0
3999,59.0,1,120,2.0,70.0
4000,59.0,7,40,13.0,104.0
4001,59.0,3,120,3.0,81.0
4002,55.0,0,120,3.0,81.0
4003,67.0,31,40,10.0,95.0
4004,52.0,1,40,12.0,94.0
4005,64.0,1,60,11.0,107.0
4006,60.0,3,60,13.0,105.0
4007,64.0,28,40,10.0,108.0
4008,60.0,5,40,12.0,107.0
4009,67.0,35,40,10.0,109.0
4010,79.0,1,0,0.0,70.0
4011,64.0,0,120,4.0,79.0
4012,52.0,5,40,12.0,108.0
4013,52.0,1,120,5.0,79.0
4014,64.0,0,120,2.0,70.0
4015,60.0,0,120,2.0,70.0
4016,60.0,0,120,3.0,81.0
4017,52.0,3,120,3.0,81.0
4018,67.0,1,40,11.0,99.0
4019,59.0,3,40,13.0,97.0
4020,62.0,35,60,10.0,112.0
4021,55.0,1,60,12.0,111.0
4022,62.0,30,40,11.0,112.0
4023,55.0,7,40,13.0,110.0
4024,67.0,2,112,1.0,69.0
4025,62.0,0,115,4.0,79.0
4026,55.0,1,115,5.0,79.0
4027,67.0,33,40,11.0,112.0
4028,55.0,0,112,3.0,81.0
4029,59.0,3,112,3.0,81.0
4030,59.0,0,120,2.0,70.0
4031,62.0,0,120,2.0,70.0
4032,59.0,7,40,13.0,110.0
4033,69.0,31,40,10.0,94.0
4034,53.0,1,40,12.0,98.0
4035,69.0,1,60,11.0,107.0
4036,60.0,4,60,13.0,110.0
4037,65.0,28,40,10.0,107.0
4038,60.0,5,40,12.0,111.0
4039,69.0,35,40,10.0,106.0
4040,81.0,0,120,0.0,70.0
4041,77.0,1,120,0.0,70.0
4042,69.0,0,120,1.0,69.0
4043,65.0,2,120,4.0,79.0
4044,53.0,5,40,12.0,111.0
4045,60.0,3,120,3.0,81.0
4046,53.0,0,120,3.0,81.0
4047,70.0,1,40,11.0,92.0
4048,50.0,4,40,13.0,97.0
4049,70.0,35,60,10.0,105.0
4050,58.0,1,60,12.0,111.0
4051,65.0,30,40,11.0,105.0
4052,58.0,7,40,13.0,110.0
4053,77.0,0,0,0.0,70.0
4054,82.0,1,120,0.0,70.0
4055,70.0,33,40,11.0,104.0
4056,70.0,0,120,1.0,69.0
4057,65.0,2,120,4.0,79.0
4058,50.0,7,40,13.0,110.0
4059,58.0,3,120,3.0,81.0
4060,50.0,0,120,3.0,81.0
4061,69.0,31,40,10.0,91.0
4062,53.0,1,40,12.0,98.0
4063,69.0,1,60,11.0,104.0
4064,53.0,4,60,13.0,111.0
4065,65.0,28,40,10.0,104.0
4066,60.0,5,40,12.0,112.0
4067,69.0,35,40,10.0,103.0
4068,81.0,1,120,0.0,70.0
4069,69.0,2,120,1.0,69.0
4070,65.0,0,120,4.0,79.0
4071,53.0,5,40,12.0,112.0
4072,53.0,3,120,3.0,81.0
4073,60.0,0,120,3.0,81.0
4074,70.0,1,40,11.0,90.0
4075,50.0,4,40,13.0,98.0
4076,70.0,35,60,10.0,103.0
4077,58.0,1,60,12.0,113.0
4078,65.0,30,40,11.0,103.0
4079,58.0,7,40,13.0,112.0
4080,82.0,1,112,0.0,71.0
4081,77.0,0,112,0.0,71.0
4082,70.0,2,112,1.0,70.0
4083,65.0,0,115,4.0,80.0
4084,70.0,33,40,11.0,102.0
4085,50.0,0,112,3.0,82.0
4086,58.0,3,112,3.0,82.0
4087,50.0,7,40,13.0,112.0
4088,81.0,32,60,0.0,72.0
4089,64.0,1,60,11.0,101.0
4090,60.0,3,52,3.0,83.0
4091,69.0,2,60,1.0,71.0
4092,48.0,3,60,13.0,113.0
4093,79.0,49,52,0.0,72.0
4094,76.0,0,112,0.0,72.0
4095,67.0,3,52,1.0,71.0
4096,64.0,0,120,4.0,69.0
4097,58.0,8,52,3.0,83.0
4098,48.0,0,112,3.0,83.0
4099,64.0,0,120,2.0,62.0
4100,36.0,0,120,14.0,42.0
4101,65.0,3,82,1.0,72.0
4102,77.0,79,22,0.0,81.0
4103,65.0,3,22,1.0,80.0
4104,60.0,0,120,4.0,63.0
4105,53.0,3,120,13.0,44.0
4106,53.0,3,120,3.0,84.0
4107,41.0,0,120,14.0,42.0
4108,69.0,26,40,10.0,81.0
4109,65.0,1,40,12.0,80.0
4110,65.0,28,40,10.0,91.0
4111,81.0,1,82,0.0,85.0
4112,57.0,5,40,12.0,90.0
4113,69.0,3,82,1.0,84.0
4114,81.0,6,22,0.0,99.0
4115,69.0,3,22,1.0,98.0
4116,69.0,35,40,10.0,90.0
4117,57.0,0,232,3.0,84.0
4118,65.0,5,40,12.0,89.0
4119,60.0,2,360,2.0,62.0
4120,52.0,4,120,13.0,44.0
4121,52.0,3,120,3.0,85.0
4122,40.0,0,120,14.0,42.0
4123,50.0,3,120,13.0,44.0
4124,50.0,3,120,3.0,86.0
4125,38.0,0,120,14.0,42.0
4126,74.0,108,40,10.0,68.0
4127,62.0,5,40,12.0,67.0
4128,69.0,28,40,10.0,77.0
4129,65.0,5,40,12.0,76.0
4130,86.0,27,232,0.0,103.0
4131,74.0,3,232,1.0,102.0
4132,74.0,35,40,10.0,75.0
4133,45.0,3,112,3.0,88.0
4134,62.0,5,40,12.0,74.0
4135,45.0,4,120,13.0,44.0
4136,33.0,0,120,14.0,42.0
4137,53.0,39,120,4.0,70.0
4138,53.0,2,120,5.0,70.0
4139,53.0,2,360,2.0,74.0
4140,38.0,3,120,13.0,45.0
4141,38.0,3,120,3.0,89.0
4142,38.0,0,120,14.0,43.0
4143,57.0,0,360,3.0,86.0
4144,57.0,1,40,12.0,109.0
4145,53.0,3,40,13.0,108.0
4146,53.0,33,40,12.0,125.0
4147,50.0,4,40,13.0,124.0
4148,57.0,112,120,4.0,71.0
4149,57.0,36,40,12.0,126.0
4150,57.0,0,120,2.0,79.0
4151,53.0,4,40,13.0,125.0
4152,48.0,3,120,3.0,90.0
4153,65.0,2,840,2.0,73.0
4154,57.0,1,240,5.0,71.0
4155,50.0,0,240,3.0,90.0
4156,47.0,6,120,3.0,92.0
4157,62.0,1,40,12.0,113.0
4158,47.0,3,40,13.0,112.0
4159,79.0,109,60,0.0,96.0
4160,67.0,0,60,1.0,95.0
4161,55.0,33,40,12.0,126.0
4162,50.0,4,40,13.0,125.0
4163,47.0,4,10,13.0,125.0
4164,77.0,12,52,0.0,96.0
4165,74.0,0,112,0.0,96.0
4166,62.0,3,112,1.0,95.0
4167,65.0,3,52,1.0,95.0
4168,62.0,0,112,2.0,81.0
4169,43.0,0,112,3.0,94.0
4170,62.0,35,240,4.0,71.0
4171,55.0,3,112,3.0,94.0
4172,62.0,21,40,12.0,126.0
4173,55.0,1,120,5.0,72.0
4174,35.0,0,120,14.0,44.0
4175,76.0,0,82,0.0,98.0
4176,64.0,0,82,1.0,97.0
4177,76.0,79,22,0.0,99.0
4178,64.0,3,22,1.0,98.0
4179,72.0,32,120,0.0,98.0
4180,60.0,3,120,1.0,97.0
4181,48.0,3,120,13.0,47.0
4182,36.0,0,120,14.0,45.0
4183,52.0,0,0,3.0,97.0
4184,48.0,0,120,3.0,96.0
4185,64.0,1,40,11.0,117.0
4186,60.0,1,40,12.0,116.0
4187,60.0,30,40,11.0,127.0
4188,79.0,27,82,0.0,99.0
4189,52.0,3,40,12.0,126.0
4190,67.0,0,82,1.0,98.0
4191,79.0,6,22,0.0,101.0
4192,67.0,3,22,1.0,100.0
4193,76.0,0,120,0.0,99.0
4194,64.0,37,40,11.0,127.0
4195,64.0,2,120,1.0,98.0
4196,60.0,3,40,12.0,126.0
4197,47.0,4,120,13.0,47.0
4198,35.0,0,120,14.0,45.0
4199,55.0,3,120,3.0,97.0
4200,64.0,0,360,2.0,83.0
4201,45.0,5,120,13.0,47.0
4202,33.0,0,120,14.0,45.0
4203,60.0,3,120,3.0,98.0
4204,72.0,110,40,11.0,121.0
4205,64.0,3,40,12.0,120.0
4206,64.0,30,40,11.0,127.0
4207,60.0,3,40,12.0,126.0
4208,72.0,37,40,11.0,127.0
4209,64.0,3,40,12.0,126.0
4210,69.0,1,120,2.0,88.0
4211,42.0,3,120,13.0,48.0
4212,30.0,0,120,14.0,46.0
4213,64.0,0,240,3.0,98.0
4214,57.0,3,120,3.0,100.0
4215,88.0,0,360,0.0,101.0
4216,84.0,27,360,0.0,101.0
4217,76.0,0,360,1.0,100.0
4218,72.0,3,360,1.0,100.0
4219,60.0,2,600,2.0,83.0
4220,67.0,41,120,2.0,89.0
4221,43.0,3,120,13.0,48.0
4222,64.0,0,120,3.0,102.0
4223,31.0,3,120,14.0,46.0
4224,67.0,1,40,11.0,125.0
4225,59.0,1,40,12.0,124.0
4226,86.0,109,60,0.0,106.0
4227,74.0,0,60,1.0,105.0
4228,62.0,30,40,11.0,127.0
4229,65.0,3,40,12.0,126.0
4230,83.0,0,112,0.0,106.0
4231,79.0,16,52,0.0,107.0
4232,67.0,3,52,1.0,106.0
4233,71.0,2,112,1.0,105.0
4234,67.0,18,40,11.0,127.0
4235,55.0,0,232,3.0,102.0
4236,62.0,3,112,3.0,103.0
4237,59.0,3,40,12.0,126.0
4238,59.0,0,120,2.0,90.0
4239,65.0,1,120,2.0,90.0
4240,55.0,3,120,13.0,49.0
4241,43.0,0,120,14.0,47.0
4242,84.0,36,120,0.0,92.0
4243,72.0,3,120,1.0,91.0
4244,52.0,0,120,4.0,103.0
4245,48.0,0,120,5.0,103.0
4246,64.0,2,120,2.0,79.0
4247,60.0,0,120,2.0,79.0
4248,48.0,3,120,13.0,49.0
4249,36.0,0,120,14.0,47.0
4250,64.0,110,60,11.0,127.0
4251,60.0,1,60,12.0,126.0
4252,60.0,50,60,11.0,127.0
4253,55.0,2,120,4.0,105.0
4254,52.0,3,60,12.0,126.0
4255,52.0,1,120,5.0,105.0
4256,47.0,6,120,3.0,107.0
4257,48.0,3,360,3.0,105.0
4258,45.0,6,120,3.0,110.0
4259,64.0,110,60,11.0,124.0
4260,60.0,3,60,12.0,123.0
4261,60.0,50,60,11.0,122.0
4262,52.0,3,60,12.0,121.0
4263,57.0,0,120,3.0,110.0
4264,42.0,7,120,3.0,110.0
4265,64.0,59,360,4.0,108.0
4266,55.0,0,120,3.0,113.0
4267,62.0,110,60,11.0,116.0
4268,62.0,2,60,4.0,112.0
4269,59.0,1,60,12.0,115.0
4270,55.0,50,60,11.0,114.0
4271,43.0,67,232,3.0,113.0
4272,55.0,2,60,4.0,113.0
4273,53.0,7,112,3.0,114.0
4274,53.0,1,60,12.0,113.0
4275,60.0,0,0,5.0,62.0
4276,52.0,1,40,12.0,70.0
4277,55.0,33,40,12.0,70.0
4278,60.0,2,120,4.0,62.0
4279,60.0,40,40,12.0,71.0
4280,55.0,40,40,12.0,73.0
4281,48.0,3,180,13.0,74.0
4282,36.0,3,180,14.0,72.0
4283,60.0,40,40,12.0,74.0
4284,64.0,13,32,12.0,75.0
4285,50.0,24,52,13.0,81.0
4286,38.0,3,52,14.0,79.0
4287,67.0,1,240,2.0,76.0
4288,55.0,0,240,3.0,89.0
4289,56.0,40,40,12.0,76.0
4290,60.0,33,40,12.0,77.0
4291,84.0,55,355,10.0,82.0
4292,72.0,2,355,11.0,82.0
4293,64.0,40,40,12.0,80.0
4294,76.0,0,360,2.0,76.0
4295,64.0,0,360,3.0,89.0
4296,56.0,3,40,12.0,82.0
4297,83.0,35,60,10.0,89.0
4298,71.0,2,60,11.0,89.0
4299,59.0,33,40,12.0,85.0
4300,76.0,15,55,10.0,93.0
4301,64.0,2,55,11.0,93.0
4302,62.0,23,32,12.0,87.0
4303,52.0,3,232,13.0,85.0
4304,68.0,1,235,2.0,72.0
4305,74.0,1,115,2.0,78.0
4306,40.0,0,232,14.0,83.0
4307,62.0,6,115,3.0,89.0
4308,56.0,3,235,3.0,83.0
4309,57.0,1,40,12.0,81.0
4310,48.0,33,40,12.0,75.0
4311,60.0,0,40,12.0,75.0
4312,53.0,0,40,12.0,76.0
4313,65.0,40,40,12.0,76.0
4314,49.0,0,40,12.0,76.0
4315,61.0,40,40,12.0,76.0
4316,53.0,3,180,13.0,90.0
4317,41.0,0,180,14.0,88.0
4318,53.0,40,40,12.0,76.0
4319,65.0,0,40,12.0,76.0
4320,57.0,0,32,12.0,76.0
4321,69.0,13,32,12.0,76.0
4322,55.0,24,52,13.0,93.0
4323,43.0,3,52,14.0,91.0
4324,72.0,1,240,2.0,77.0
4325,60.0,0,240,3.0,88.0
4326,49.0,40,40,12.0,77.0
4327,61.0,0,40,12.0,77.0
4328,53.0,0,40,12.0,77.0
4329,65.0,33,40,12.0,77.0
4330,81.0,35,355,10.0,105.0
4331,69.0,1,355,11.0,105.0
4332,89.0,1,360,0.0,77.0
4333,77.0,2,360,1.0,76.0
4334,65.0,0,360,4.0,86.0
4335,69.0,40,40,12.0,78.0
4336,57.0,0,40,12.0,78.0
4337,61.0,0,40,12.0,79.0
4338,49.0,1,40,12.0,79.0
4339,79.0,35,60,10.0,89.0
4340,67.0,1,60,11.0,89.0
4341,64.0,40,40,12.0,79.0
4342,52.0,0,40,12.0,79.0
4343,73.0,15,55,10.0,90.0
4344,88.0,1,115,0.0,83.0
4345,67.0,23,32,12.0,80.0
4346,55.0,0,32,12.0,80.0
4347,61.0,2,55,11.0,90.0
4348,64.0,2,115,4.0,92.0
4349,76.0,0,115,1.0,82.0
4350,69.0,0,475,2.0,77.0
4351,57.0,3,232,13.0,94.0
4352,73.0,1,235,2.0,81.0
4353,45.0,3,232,14.0,92.0
4354,61.0,0,235,3.0,92.0
4355,57.0,3,475,3.0,88.0
4356,50.0,1,40,12.0,81.0
4357,62.0,0,40,12.0,81.0
4358,53.0,33,40,12.0,81.0
4359,65.0,0,40,12.0,81.0
4360,86.0,1,120,0.0,85.0
4361,62.0,2,120,4.0,94.0
4362,74.0,0,120,1.0,84.0
4363,58.0,40,40,12.0,81.0
4364,70.0,0,40,12.0,81.0
4365,50.0,40,40,12.0,81.0
4366,62.0,0,40,12.0,81.0
4367,74.0,0,180,2.0,85.0
4368,70.0,1,180,2.0,85.0
4369,62.0,0,180,3.0,96.0
4370,58.0,0,180,3.0,96.0
4371,53.0,40,40,12.0,81.0
4372,65.0,0,40,12.0,81.0
4373,69.0,13,32,12.0,81.0
4374,57.0,0,32,12.0,81.0
4375,69.0,21,55,2.0,85.0
4376,50.0,3,232,13.0,98.0
4377,72.0,0,55,2.0,85.0
4378,38.0,3,232,14.0,96.0
4379,60.0,0,55,3.0,96.0
4380,57.0,6,55,3.0,96.0
4381,50.0,40,40,12.0,81.0
4382,62.0,0,40,12.0,81.0
4383,77.0,35,295,10.0,92.0
4384,65.0,1,295,11.0,92.0
4385,64.0,0,40,12.0,81.0
4386,52.0,33,40,12.0,81.0
4387,75.0,15,60,10.0,88.0
4388,63.0,2,60,11.0,88.0
4389,68.0,23,40,12.0,81.0
4390,56.0,0,40,12.0,81.0
4391,62.0,0,40,12.0,81.0
4392,50.0,3,40,12.0,81.0
4393,76.0,35,55,10.0,95.0
4394,64.0,2,55,11.0,95.0
4395,52.0,40,40,12.0,81.0
4396,64.0,0,40,12.0,81.0
4397,68.0,23,32,12.0,81.0
4398,56.0,0,32,12.0,81.0
4399,83.0,15,60,10.0,102.0
4400,71.0,1,235,2.0,85.0
4401,68.0,0,235,2.0,85.0
4402,52.0,3,232,13.0,98.0
4403,71.0,2,60,11.0,102.0
4404,40.0,0,232,14.0,96.0
4405,59.0,3,235,3.0,96.0
4406,56.0,0,235,3.0,96.0
4407,60.0,1,40,12.0,81.0
4408,48.0,0,40,12.0,81.0
4409,53.0,33,40,12.0,81.0
4410,65.0,0,40,12.0,81.0
4411,86.0,35,115,10.0,112.0
4412,74.0,1,115,11.0,112.0
4413,57.0,40,40,12.0,81.0
4414,69.0,0,40,12.0,81.0
4415,48.0,0,40,12.0,81.0
4416,60.0,3,40,12.0,81.0
4417,81.0,1,180,0.0,85.0
4418,65.0,0,180,4.0,94.0
4419,81.0,0,180,1.0,84.0
4420,77.0,2,180,1.0,84.0
4421,77.0,1,180,2.0,85.0
4422,69.0,0,180,2.0,85.0
4423,53.0,0,180,3.0,96.0
4424,57.0,0,180,3.0,96.0
4425,51.0,40,40,12.0,81.0
4426,63.0,0,40,12.0,81.0
4427,79.0,16,55,0.0,85.0
4428,67.0,0,32,12.0,81.0
4429,55.0,13,32,12.0,81.0
4430,63.0,3,55,4.0,94.0
4431,79.0,0,55,1.0,84.0
4432,75.0,0,55,1.0,84.0
4433,45.0,3,232,13.0,98.0
4434,75.0,2,55,2.0,85.0
4435,67.0,0,55,2.0,85.0
4436,33.0,3,232,14.0,96.0
4437,55.0,6,55,3.0,96.0
4438,51.0,0,55,3.0,96.0
4439,60.0,1,40,12.0,81.0
4440,48.0,0,40,12.0,81.0
4441,84.0,35,180,10.0,94.0
4442,72.0,2,180,11.0,94.0
4443,50.0,33,40,12.0,81.0
4444,62.0,0,40,12.0,81.0
4445,80.0,15,60,10.0,90.0
4446,68.0,2,60,11.0,90.0
4447,54.0,0,40,12.0,81.0
4448,66.0,23,40,12.0,81.0
4449,48.0,3,40,12.0,81.0
4450,60.0,0,40,12.0,81.0
4451,81.0,35,58,10.0,99.0
4452,69.0,2,58,11.0,99.0
4453,50.0,40,40,12.0,81.0
4454,62.0,0,40,12.0,81.0
4455,78.0,36,235,0.0,85.0
4456,54.0,23,32,12.0,81.0
4457,66.0,0,32,12.0,81.0
4458,62.0,0,235,4.0,94.0
4459,78.0,3,235,1.0,84.0
4460,74.0,0,235,1.0,84.0
4461,84.0,15,60,10.0,109.0
4462,66.0,0,235,2.0,85.0
4463,74.0,1,235,2.0,85.0
4464,50.0,3,232,13.0,98.0
4465,72.0,2,60,11.0,109.0
4466,38.0,0,232,14.0,96.0
4467,54.0,3,235,3.0,96.0
4468,50.0,0,235,3.0,96.0
4469,60.0,1,40,12.0,81.0
4470,48.0,0,40,12.0,81.0
4471,93.0,35,60,10.0,127.0
4472,81.0,1,60,11.0,120.0
4473,64.0,33,40,12.0,81.0
4474,52.0,0,40,12.0,81.0
4475,91.0,15,55,10.0,96.0
4476,79.0,2,55,11.0,96.0
4477,55.0,0,40,12.0,81.0
4478,67.0,23,40,12.0,81.0
4479,48.0,0,40,12.0,81.0
4480,60.0,3,40,12.0,81.0
4481,91.0,35,60,10.0,105.0
4482,84.0,1,0,0.0,85.0
4483,88.0,1,180,0.0,85.0
4484,79.0,2,60,11.0,105.0
4485,76.0,0,180,1.0,84.0
4486,84.0,2,180,1.0,84.0
4487,64.0,0,180,4.0,94.0
4488,76.0,0,180,2.0,85.0
4489,60.0,1,180,5.0,94.0
4490,72.0,0,180,2.0,85.0
4491,40.0,3,180,13.0,98.0
4492,28.0,0,180,14.0,96.0
4493,60.0,3,180,3.0,96.0
4494,52.0,0,40,12.0,81.0
4495,64.0,40,40,12.0,81.0
4496,93.0,15,55,10.0,96.0
4497,76.0,0,55,0.0,85.0
4498,60.0,13,32,12.0,81.0
4499,72.0,0,32,12.0,81.0
4500,81.0,1,55,11.0,96.0
4501,60.0,0,55,4.0,94.0
4502,76.0,0,55,1.0,84.0
4503,72.0,2,55,1.0,84.0
4504,42.0,3,52,13.0,98.0
4505,52.0,2,55,5.0,94.0
4506,64.0,0,55,2.0,85.0
4507,72.0,0,55,2.0,85.0
4508,30.0,3,52,14.0,96.0
4509,52.0,0,55,3.0,96.0
4510,42.0,0,55,3.0,96.0
4511,59.0,1,40,12.0,89.0
4512,50.0,2,40,13.0,88.0
4513,93.0,35,60,10.0,115.0
4514,81.0,1,60,11.0,105.0
4515,62.0,33,40,12.0,89.0
4516,53.0,4,40,13.0,88.0
4517,86.0,11,55,10.0,96.0
4518,74.0,2,55,11.0,96.0
4519,65.0,23,40,12.0,89.0
4520,59.0,4,40,13.0,88.0
4521,62.0,3,40,12.0,89.0
4522,53.0,4,40,13.0,88.0
4523,86.0,31,60,10.0,105.0
4524,74.0,2,60,11.0,105.0
4525,65.0,36,40,12.0,89.0
4526,59.0,4,40,13.0,88.0
4527,92.0,11,55,10.0,96.0
4528,83.0,1,235,0.0,85.0
4529,89.0,0,235,0.0,85.0
4530,71.0,23,32,12.0,89.0
4531,80.0,2,55,11.0,96.0
4532,77.0,0,235,1.0,84.0
4533,71.0,0,235,1.0,84.0
4534,53.0,0,235,7.0,100.0
4535,59.0,2,235,7.0,100.0
4536,65.0,0,235,4.0,94.0
4537,59.0,0,235,5.0,94.0
4538,62.0,4,32,13.0,88.0
4539,43.0,0,232,13.0,78.0
4540,65.0,1,235,2.0,85.0
4541,74.0,0,235,2.0,85.0
4542,43.0,1,235,8.0,100.0
4543,31.0,0,232,14.0,96.0
4544,43.0,0,235,3.0,96.0
4545,50.0,3,235,3.0,96.0
4546,53.0,1,40,12.0,89.0
4547,47.0,0,40,13.0,88.0
4548,92.0,31,60,10.0,115.0
4549,80.0,1,60,11.0,105.0
4550,59.0,33,40,12.0,89.0
4551,50.0,4,40,13.0,88.0
4552,90.0,11,55,10.0,96.0
4553,78.0,2,55,11.0,96.0
4554,62.0,23,40,12.0,89.0
4555,53.0,4,40,13.0,88.0
4556,59.0,3,40,12.0,89.0
4557,50.0,4,40,13.0,88.0
4558,90.0,31,60,10.0,105.0
4559,78.0,2,60,11.0,105.0
4560,62.0,36,40,12.0,89.0
4561,53.0,4,40,13.0,88.0
4562,91.0,11,55,10.0,96.0
4563,79.0,2,55,11.0,96.0
4564,65.0,23,32,12.0,89.0
4565,83.0,1,240,0.0,85.0
4566,43.0,2,232,13.0,98.0
4567,59.0,4,32,13.0,88.0
4568,89.0,0,240,0.0,85.0
4569,65.0,0,240,4.0,94.0
4570,77.0,0,240,1.0,84.0
4571,59.0,2,240,7.0,100.0
4572,31.0,0,232,14.0,96.0
4573,71.0,0,240,1.0,84.0
4574,53.0,0,240,7.0,100.0
4575,65.0,0,240,2.0,85.0
4576,62.0,0,240,2.0,85.0
4577,59.0,1,240,5.0,94.0
4578,43.0,1,240,8.0,100.0
4579,50.0,0,240,3.0,96.0
4580,43.0,3,240,3.0,96.0
4581,52.0,1,40,12.0,89.0
4582,52.0,1,40,2.0,85.0
4583,46.0,0,40,13.0,98.0
4584,46.0,0,40,3.0,96.0
4585,91.0,31,60,10.0,115.0
4586,79.0,1,60,11.0,105.0
4587,55.0,33,40,12.0,89.0
4588,55.0,1,40,2.0,85.0
4589,52.0,3,40,13.0,88.0
4590,52.0,3,40,3.0,96.0
4591,82.0,8,55,10.0,94.0
4592,70.0,2,55,11.0,94.0
4593,58.0,23,40,12.0,89.0
4594,58.0,1,40,2.0,85.0
4595,55.0,3,40,13.0,88.0
4596,55.0,3,40,3.0,96.0
4597,55.0,3,40,12.0,89.0
4598,55.0,1,40,2.0,85.0
4599,52.0,3,40,13.0,88.0
4600,52.0,3,40,3.0,96.0
4601,82.0,28,60,10.0,103.0
4602,70.0,2,60,11.0,103.0
4603,58.0,33,40,12.0,89.0
4604,58.0,1,40,2.0,85.0
4605,55.0,3,40,13.0,88.0
4606,55.0,3,40,3.0,96.0
4607,88.0,8,55,10.0,91.0
4608,88.0,1,235,0.0,85.0
4609,79.0,0,235,0.0,85.0
4610,76.0,2,55,11.0,91.0
4611,64.0,23,32,12.0,89.0
4612,60.0,0,235,7.0,100.0
4613,52.0,0,235,7.0,100.0
4614,64.0,0,235,4.0,94.0
4615,76.0,0,235,1.0,84.0
4616,72.0,2,235,1.0,84.0
4617,36.0,2,232,13.0,98.0
4618,58.0,3,32,13.0,88.0
4619,64.0,1,35,2.0,85.0
4620,60.0,0,235,5.0,94.0
4621,48.0,1,235,8.0,100.0
4622,36.0,0,232,14.0,96.0
4623,58.0,3,35,3.0,96.0
4624,52.0,1,40,12.0,89.0
4625,52.0,0,40,2.0,85.0
4626,43.0,2,40,13.0,88.0
4627,43.0,0,40,3.0,96.0
4628,88.0,28,60,10.0,99.0
4629,76.0,1,60,11.0,99.0
4630,55.0,33,40,12.0,89.0
4631,55.0,1,40,2.0,85.0
4632,46.0,3,40,13.0,88.0
4633,46.0,3,40,3.0,96.0
4634,79.0,8,55,10.0,90.0
4635,67.0,2,55,11.0,90.0
4636,58.0,23,40,12.0,89.0
4637,58.0,1,40,2.0,85.0
4638,52.0,3,40,13.0,88.0
4639,36.0,3,360,3.0,96.0
4640,52.0,3,40,3.0,96.0
4641,55.0,3,40,12.0,89.0
4642,55.0,1,40,2.0,85.0
4643,46.0,3,40,13.0,88.0
4644,46.0,3,40,3.0,96.0
4645,79.0,28,60,10.0,96.0
4646,67.0,2,60,11.0,96.0
4647,58.0,33,40,12.0,89.0
4648,58.0,1,40,2.0,85.0
4649,52.0,3,40,13.0,88.0
4650,52.0,3,40,3.0,96.0
4651,86.0,8,55,10.0,86.0
4652,74.0,2,55,11.0,86.0
4653,64.0,1,35,2.0,85.0
4654,76.0,0,240,1.0,84.0
4655,72.0,0,240,1.0,84.0
4656,64.0,23,40,12.0,89.0
4657,55.0,3,35,3.0,96.0
4658,55.0,3,40,13.0,88.0
4659,55.0,2,40,2.0,85.0
4660,46.0,6,40,3.0,96.0
4661,86.0,28,60,10.0,94.0
4662,74.0,2,60,11.0,94.0
4663,58.0,34,40,2.0,85.0
4664,52.0,6,40,3.0,96.0
4665,76.0,8,55,10.0,84.0
4666,76.0,2,55,11.0,84.0
4667,58.0,2,360,7.0,100.0
4668,55.0,0,360,7.0,100.0
4669,64.0,24,40,2.0,85.0
4670,48.0,1,360,8.0,100.0
4671,55.0,6,40,3.0,96.0
4672,58.0,4,40,2.0,85.0
4673,52.0,6,40,3.0,96.0
4674,76.0,28,60,10.0,86.0
4675,76.0,2,60,11.0,86.0
4676,64.0,34,40,2.0,85.0
4677,55.0,6,40,3.0,96.0
4678,85.0,8,55,10.0,74.0
4679,85.0,2,55,11.0,74.0
4680,67.0,24,35,2.0,85.0
4681,58.0,6,35,3.0,96.0
4682,58.0,4,40,2.0,85.0
4683,52.0,6,40,3.0,96.0
4684,64.0,34,40,2.0,85.0
4685,55.0,6,40,3.0,96.0
4686,85.0,28,120,10.0,72.0
4687,36.0,0,592,13.0,78.0
4688,76.0,1,600,0.0,85.0
4689,79.0,0,600,0.0,85.0
4690,36.0,3,592,14.0,76.0
4691,60.0,0,600,4.0,94.0
4692,67.0,0,360,1.0,84.0
4693,64.0,2,360,1.0,84.0
4694,67.0,34,40,2.0,85.0
4695,58.0,1,600,5.0,94.0
4696,58.0,6,40,3.0,96.0
4697,64.0,34,40,2.0,85.0
4698,55.0,6,40,3.0,96.0
4699,67.0,34,40,2.0,75.0
4700,58.0,6,40,3.0,86.0
4701,70.0,34,35,2.0,56.0
4702,64.0,6,35,3.0,65.0
4703,85.0,2,360,11.0,80.0
4704,96.0,148,110,10.0,76.0
4705,84.0,2,110,11.0,74.0
4706,72.0,3,110,12.0,73.0
4707,68.0,121,120,2.0,75.0
4708,56.0,6,0,3.0,96.0
4709,96.0,115,350,10.0,84.0
4710,84.0,2,350,11.0,80.0
4711,72.0,3,350,12.0,79.0
4712,51.0,117,110,13.0,72.0
4713,41.0,0,110,13.0,72.0
4714,48.0,0,110,13.0,72.0
4715,29.0,3,110,14.0,70.0
4716,68.0,114,360,2.0,85.0
4717,48.0,0,230,13.0,78.0
4718,41.0,117,230,13.0,78.0
4719,51.0,0,230,13.0,78.0
4720,29.0,3,230,14.0,76.0
4721,72.0,112,120,1.0,74.0
4722,60.0,2,120,5.0,84.0
4723,69.0,0,120,2.0,85.0
4724,57.0,6,120,3.0,96.0
4725,92.0,117,0,0.0,85.0
4726,80.0,3,120,1.0,74.0
4727,72.0,112,240,1.0,84.0
4728,68.0,3,0,4.0,94.0
4729,60.0,2,240,5.0,94.0
4730,54.0,0,110,13.0,72.0
4731,38.0,125,110,13.0,72.0
4732,48.0,0,110,13.0,72.0
4733,38.0,3,110,14.0,70.0
4734,80.0,0,360,1.0,84.0
4735,93.0,108,110,10.0,98.0
4736,81.0,2,110,11.0,74.0
4737,69.0,3,110,12.0,73.0
4738,48.0,0,230,13.0,78.0
4739,54.0,0,230,13.0,78.0
4740,38.0,117,230,13.0,78.0
4741,38.0,3,230,14.0,76.0
4742,93.0,115,230,10.0,110.0
4743,81.0,2,230,11.0,80.0
4744,69.0,3,230,12.0,79.0
4745,73.0,121,120,2.0,75.0
4746,61.0,6,0,3.0,96.0
4747,53.0,117,110,13.0,72.0
4748,43.0,0,110,13.0,72.0
4749,47.0,0,110,13.0,72.0
4750,31.0,3,110,14.0,70.0
4751,73.0,114,360,2.0,85.0
4752,47.0,0,230,13.0,78.0
4753,43.0,117,230,13.0,78.0
4754,53.0,0,230,13.0,78.0
4755,31.0,3,230,14.0,76.0
4756,74.0,112,0,1.0,84.0
4757,62.0,2,0,5.0,94.0
4758,74.0,2,120,2.0,85.0
4759,62.0,6,120,3.0,96.0
4760,92.0,117,0,0.0,85.0
4761,80.0,3,120,1.0,74.0
4762,68.0,3,0,4.0,94.0
4763,53.0,0,240,7.0,100.0
4764,59.0,120,240,7.0,100.0
4765,80.0,0,360,1.0,84.0
4766,43.0,3,0,8.0,100.0
4767,91.0,113,160,10.0,69.0
4768,79.0,2,160,11.0,69.0
4769,67.0,3,160,12.0,68.0
4770,90.0,28,40,10.0,73.0
4771,78.0,2,40,11.0,73.0
4772,66.0,3,40,12.0,72.0
4773,91.0,35,35,10.0,80.0
4774,79.0,2,35,11.0,80.0
4775,67.0,3,35,12.0,79.0
4776,53.0,0,120,7.0,100.0
4777,59.0,119,120,7.0,100.0
4778,36.0,3,0,14.0,45.0
4779,84.0,35,120,10.0,69.0
4780,72.0,2,120,11.0,69.0
4781,52.0,2,120,7.0,100.0
4782,60.0,0,120,7.0,100.0
4783,60.0,1,120,12.0,68.0
4784,72.0,1,120,2.0,70.0
4785,48.0,1,120,8.0,100.0
4786,55.0,0,120,3.0,81.0
4787,64.0,0,120,3.0,81.0
4788,74.0,114,60,2.0,70.0
4789,71.0,54,60,2.0,70.0
4790,65.0,0,120,3.0,81.0
4791,48.0,6,0,14.0,39.0
4792,56.0,6,120,3.0,81.0
4793,64.0,0,120,3.0,81.0
4794,55.0,0,120,3.0,81.0
4795,36.0,0,120,14.0,45.0
4796,58.0,120,120,3.0,81.0
4797,67.0,0,120,3.0,81.0
4798,72.0,60,360,2.0,70.0
4799,57.0,120,120,3.0,81.0
4800,66.0,0,120,3.0,81.0
4801,36.0,0,120,14.0,45.0
4802,74.0,114,60,2.0,70.0
4803,71.0,54,60,2.0,70.0
4804,56.0,0,120,3.0,81.0
4805,65.0,6,120,3.0,81.0
4806,48.0,0,120,14.0,39.0
4807,72.0,60,120,2.0,70.0
4808,48.0,6,120,14.0,39.0
4809,55.0,0,120,3.0,81.0
4810,64.0,0,120,3.0,81.0
4811,54.0,0,115,3.0,81.0
4812,63.0,0,115,3.0,81.0
4813,36.0,0,0,14.0,45.0
4814,67.0,114,240,2.0,70.0
4815,62.0,120,120,3.0,81.0
4816,53.0,0,120,3.0,81.0
4817,69.0,114,60,2.0,70.0
4818,66.0,54,60,2.0,70.0
4819,51.0,0,120,3.0,81.0
4820,60.0,0,120,3.0,81.0
4821,48.0,0,0,14.0,39.0
4822,50.0,0,120,3.0,81.0
4823,59.0,6,120,3.0,81.0
4824,53.0,0,120,3.0,81.0
4825,62.0,120,120,3.0,81.0
4826,36.0,0,120,14.0,45.0
4827,67.0,60,360,2.0,70.0
4828,36.0,0,120,14.0,45.0
4829,52.0,120,120,3.0,81.0
4830,61.0,0,120,3.0,81.0
4831,69.0,114,60,2.0,70.0
4832,66.0,54,60,2.0,70.0
4833,51.0,6,120,3.0,81.0
4834,60.0,0,120,3.0,81.0
4835,48.0,0,120,14.0,39.0
4836,48.0,0,120,14.0,38.0
4837,59.0,6,120,3.0,81.0
4838,50.0,0,120,3.0,81.0
4839,67.0,60,180,2.0,70.0
4840,58.0,0,115,3.0,81.0
4841,49.0,0,115,3.0,81.0
4842,36.0,120,120,14.0,45.0
4843,57.0,0,120,3.0,81.0
4844,36.0,66,120,14.0,44.0
4845,48.0,0,120,3.0,81.0
4846,60.0,54,240,2.0,70.0
4847,47.0,0,120,3.0,81.0
4848,48.0,120,120,14.0,37.0
4849,56.0,0,120,3.0,81.0
4850,60.0,54,180,2.0,70.0
4851,36.0,0,120,14.0,44.0
4852,48.0,6,120,14.0,36.0
4853,55.0,0,240,3.0,81.0
4854,46.0,66,240,3.0,81.0
4855,60.0,114,240,2.0,70.0
4856,36.0,0,120,14.0,42.0
4857,48.0,6,120,14.0,34.0
4858,54.0,120,240,3.0,81.0
4859,45.0,0,240,3.0,81.0
4860,62.0,114,240,2.0,70.0
4861,36.0,120,120,14.0,39.0
4862,59.0,114,115,2.0,70.0
4863,44.0,0,235,3.0,81.0
4864,53.0,0,235,3.0,81.0
4865,36.0,2,2880,13.0,78.0
4866,48.0,6,120,14.0,32.0
4867,52.0,0,120,3.0,81.0
4868,43.0,6,120,3.0,81.0
4869,55.0,0,115,7.0,105.0
4870,52.0,0,115,7.0,105.0
4871,60.0,112,115,4.0,94.0
4872,48.0,2,115,5.0,94.0
4873,48.0,1,115,8.0,105.0
4874,36.0,2,120,13.0,78.0
4875,36.0,3,120,14.0,76.0
4876,53.0,0,115,7.0,105.0
4877,60.0,112,115,4.0,94.0
4878,57.0,0,115,7.0,105.0
4879,48.0,2,115,5.0,94.0
4880,41.0,1,115,8.0,105.0
4881,41.0,2,120,13.0,78.0
4882,41.0,3,120,14.0,76.0
4883,52.0,0,115,7.0,105.0
4884,55.0,0,115,7.0,105.0
4885,60.0,112,115,4.0,94.0
4886,60.0,108,480,10.0,64.0
4887,48.0,2,115,5.0,94.0
4888,60.0,2,480,11.0,64.0
4889,48.0,1,115,8.0,105.0
4890,36.0,2,120,13.0,78.0
4891,36.0,3,120,14.0,76.0
4892,60.0,4,600,2.0,70.0
4893,57.0,114,60,2.0,98.0
4894,53.0,60,60,2.0,98.0
4895,57.0,60,60,2.0,98.0
4896,60.0,60,60,2.0,98.0
4897,65.0,60,60,2.0,98.0
4898,57.0,0,475,7.0,105.0
4899,60.0,112,475,4.0,94.0
4900,53.0,0,475,7.0,105.0
4901,48.0,2,475,5.0,94.0
4902,41.0,1,475,8.0,105.0
4903,69.0,60,60,2.0,92.0
4904,41.0,2,480,13.0,78.0
4905,29.0,3,480,14.0,76.0
4906,72.0,2,115,2.0,85.0
4907,67.0,0,115,4.0,94.0
4908,52.0,0,115,7.0,115.0
4909,55.0,118,115,7.0,115.0
4910,64.0,2,115,2.0,85.0
4911,67.0,0,115,2.0,85.0
4912,60.0,0,115,5.0,94.0
4913,48.0,1,115,8.0,115.0
4914,48.0,0,115,3.0,96.0
4915,52.0,5,115,3.0,96.0
4916,68.0,0,115,4.0,94.0
4917,51.0,0,115,7.0,115.0
4918,60.0,112,115,7.0,115.0
4919,60.0,2,115,5.0,94.0
4920,68.0,0,115,2.0,85.0
4921,63.0,0,115,2.0,85.0
4922,44.0,1,115,8.0,115.0
4923,51.0,5,115,3.0,96.0
4924,44.0,0,115,3.0,96.0
4925,52.0,112,115,7.0,115.0
4926,55.0,0,115,7.0,115.0
4927,67.0,0,115,4.0,94.0
4928,72.0,54,480,10.0,50.0
4929,64.0,0,115,2.0,85.0
4930,67.0,2,115,2.0,85.0
4931,60.0,0,115,5.0,94.0
4932,72.0,2,480,11.0,50.0
4933,48.0,1,115,8.0,115.0
4934,52.0,0,115,3.0,96.0
4935,48.0,5,115,3.0,96.0
4936,72.0,2,600,1.0,83.0
4937,68.0,112,60,1.0,117.0
4938,63.0,60,60,1.0,114.0
4939,68.0,2,60,1.0,110.0
4940,72.0,60,60,1.0,107.0
4941,75.0,60,60,1.0,104.0
4942,80.0,60,55,1.0,101.0
4943,51.0,112,480,7.0,115.0
4944,68.0,0,480,4.0,94.0
4945,63.0,2,480,2.0,85.0
4946,60.0,0,480,5.0,94.0
4947,44.0,1,480,8.0,115.0
4948,44.0,0,480,3.0,96.0
4949,51.0,5,480,3.0,96.0
4950,84.0,56,360,10.0,58.0
4951,84.0,1,360,0.0,85.0
4952,72.0,1,360,11.0,58.0
4953,84.0,0,120,1.0,84.0
4954,80.0,109,60,0.0,85.0
4955,80.0,3,60,1.0,84.0
4956,77.0,57,60,0.0,85.0
4957,77.0,3,60,1.0,84.0
4958,80.0,57,60,0.0,85.0
4959,80.0,3,60,1.0,84.0
4960,84.0,57,60,0.0,85.0
4961,72.0,3,60,1.0,84.0
4962,89.0,57,60,0.0,85.0
4963,77.0,3,60,1.0,84.0
4964,92.0,57,52,0.0,85.0
4965,80.0,3,52,1.0,84.0
4966,56.0,60,480,7.0,115.0
4967,60.0,0,960,7.0,115.0
4968,60.0,0,480,4.0,94.0
4969,48.0,2,0,5.0,94.0
4970,65.0,2,480,2.0,85.0
4971,68.0,0,960,2.0,85.0
4972,41.0,1,480,8.0,115.0
4973,41.0,5,480,3.0,96.0
4974,53.0,0,480,3.0,96.0
4975,64.0,0,120,7.0,100.0
4976,55.0,2,120,7.0,100.0
4977,60.0,0,120,4.0,94.0
4978,64.0,0,120,2.0,85.0
4979,67.0,0,120,2.0,85.0
4980,48.0,1,120,8.0,100.0
4981,48.0,5,120,3.0,96.0
4982,36.0,0,120,3.0,96.0
4983,64.0,0,120,4.0,94.0
4984,55.0,232,120,7.0,100.0
4985,52.0,0,120,7.0,100.0
4986,55.0,0,120,12.0,79.0
4987,52.0,1,120,12.0,79.0
4988,64.0,0,120,2.0,85.0
4989,60.0,0,120,2.0,85.0
4990,55.0,1,120,5.0,94.0
4991,48.0,1,120,8.0,100.0
4992,36.0,2,120,13.0,78.0
4993,48.0,0,120,3.0,96.0
4994,36.0,3,120,3.0,96.0
4995,36.0,0,120,14.0,76.0
4996,96.0,0,960,10.0,80.0
4997,84.0,56,960,10.0,71.0
4998,88.0,0,960,0.0,67.0
4999,91.0,1,960,0.0,85.0
5000,84.0,1,960,11.0,71.0
5001,72.0,0,960,11.0,71.0
5002,64.0,232,480,4.0,94.0
5003,55.0,0,480,7.0,115.0
5004,52.0,0,480,7.0,115.0
5005,76.0,0,960,1.0,84.0
5006,79.0,0,960,1.0,84.0
5007,52.0,1,480,12.0,79.0
5008,55.0,0,480,12.0,79.0
5009,55.0,1,480,5.0,94.0
5010,60.0,0,480,2.0,85.0
5011,64.0,0,480,2.0,85.0
5012,48.0,1,480,8.0,115.0
5013,36.0,2,480,13.0,78.0
5014,48.0,3,480,3.0,96.0
5015,36.0,0,480,14.0,76.0
5016,36.0,0,480,3.0,96.0
