,note,step,duration,channel,velocity
0,77.0,2,695,0.0,0.0
1,65.0,1,695,6.0,0.0
2,53.0,0,695,6.0,0.0
3,77.0,0,695,1.0,0.0
4,69.0,2,695,1.0,0.0
5,60.0,0,695,4.0,0.0
6,65.0,0,695,2.0,0.0
7,72.0,0,695,2.0,0.0
8,65.0,6,695,5.0,0.0
9,57.0,0,695,5.0,0.0
10,53.0,714,695,3.0,0.0
11,80.0,2,700,0.0,0.0
12,77.0,0,700,0.0,0.0
13,77.0,0,700,6.0,0.0
14,65.0,1,700,6.0,0.0
15,62.0,0,700,4.0,0.0
16,59.0,0,700,4.0,0.0
17,71.0,2,700,1.0,0.0
18,80.0,0,700,1.0,0.0
19,65.0,0,700,2.0,0.0
20,74.0,0,700,2.0,0.0
21,53.0,6,700,5.0,0.0
22,68.0,0,700,5.0,0.0
23,50.0,0,700,3.0,0.0
24,41.0,48,700,3.0,0.0
25,89.0,2,240,10.0,0.0
26,89.0,0,60,0.0,0.0
27,81.0,2,60,0.0,0.0
28,77.0,3,240,11.0,0.0
29,81.0,0,60,6.0,0.0
30,72.0,1,60,6.0,0.0
31,81.0,1,60,1.0,0.0
32,72.0,0,60,1.0,0.0
33,60.0,0,60,4.0,0.0
34,65.0,0,60,4.0,0.0
35,60.0,0,480,7.0,0.0
36,57.0,6,480,7.0,0.0
37,57.0,0,50,12.0,0.0
38,53.0,6,50,12.0,0.0
39,65.0,0,60,5.0,0.0
40,72.0,6,60,2.0,0.0
41,69.0,0,60,5.0,0.0
42,69.0,0,60,2.0,0.0
43,41.0,2,710,8.0,0.0
44,48.0,0,110,13.0,0.0
45,41.0,26,110,13.0,0.0
46,48.0,22,60,3.0,0.0
47,29.0,37,710,3.0,0.0
48,41.0,0,60,3.0,0.0
49,29.0,0,710,14.0,0.0
50,41.0,15,1,15.0,0.0
51,57.0,0,110,12.0,0.0
52,53.0,19,110,12.0,0.0
53,41.0,24,2,15.0,0.0
54,48.0,1,110,13.0,0.0
55,41.0,0,110,13.0,0.0
56,41.0,22,4,15.0,0.0
57,53.0,0,110,12.0,0.0
58,57.0,4,110,12.0,0.0
59,41.0,25,1,15.0,0.0
60,41.0,20,0,15.0,0.0
61,84.0,2,120,10.0,0.0
62,72.0,3,120,11.0,0.0
63,48.0,1,110,13.0,0.0
64,41.0,0,110,13.0,0.0
65,41.0,22,0,15.0,0.0
66,41.0,24,2,15.0,0.0
67,57.0,0,110,12.0,0.0
68,53.0,64,110,12.0,0.0
69,41.0,7,3,15.0,0.0
70,41.0,5,110,13.0,0.0
71,48.0,0,110,13.0,0.0
72,41.0,45,120,15.0,0.0
73,53.0,64,110,12.0,0.0
74,57.0,0,110,12.0,0.0
75,81.0,2,170,10.0,0.0
76,69.0,3,170,11.0,0.0
77,41.0,0,110,13.0,0.0
78,48.0,51,110,13.0,0.0
79,57.0,0,110,12.0,0.0
80,53.0,55,110,12.0,0.0
81,41.0,3,110,13.0,0.0
82,48.0,0,110,13.0,0.0
83,79.0,2,50,10.0,0.0
84,67.0,3,50,11.0,0.0
85,53.0,2,50,12.0,0.0
86,57.0,0,50,12.0,0.0
87,77.0,2,240,10.0,0.0
88,65.0,3,240,11.0,0.0
89,53.0,6,480,7.0,0.0
90,60.0,0,480,7.0,0.0
91,60.0,12,50,12.0,0.0
92,53.0,0,50,12.0,0.0
93,44.0,2,710,8.0,0.0
94,53.0,23,110,13.0,0.0
95,44.0,0,110,13.0,0.0
96,32.0,0,710,3.0,0.0
97,32.0,39,710,14.0,0.0
98,41.0,16,26,15.0,0.0
99,41.0,23,3,15.0,0.0
100,60.0,18,110,12.0,0.0
101,41.0,1,2,15.0,0.0
102,44.0,1,110,13.0,0.0
103,53.0,0,110,13.0,0.0
104,41.0,4,4,15.0,0.0
105,60.0,3,110,12.0,0.0
106,53.0,0,110,12.0,0.0
107,41.0,16,4,15.0,0.0
108,72.0,2,120,10.0,0.0
109,60.0,4,120,11.0,0.0
110,44.0,0,110,13.0,0.0
111,53.0,1,110,13.0,0.0
112,41.0,23,0,15.0,0.0
113,60.0,0,110,12.0,0.0
114,53.0,64,110,12.0,0.0
115,41.0,25,1,15.0,0.0
116,41.0,8,0,15.0,0.0
117,44.0,5,110,13.0,0.0
118,53.0,0,110,13.0,0.0
119,41.0,45,120,15.0,0.0
120,53.0,31,110,12.0,0.0
121,60.0,0,110,12.0,0.0
122,92.0,2,86,10.0,0.0
123,80.0,31,86,11.0,0.0
124,53.0,56,110,13.0,0.0
125,44.0,0,110,13.0,0.0
126,60.0,0,110,12.0,0.0
127,53.0,31,110,12.0,0.0
128,91.0,2,86,10.0,0.0
129,79.0,27,86,11.0,0.0
130,44.0,3,110,13.0,0.0
131,53.0,0,110,13.0,0.0
132,53.0,2,50,12.0,0.0
133,60.0,0,50,12.0,0.0
134,89.0,2,240,10.0,0.0
135,77.0,6,240,11.0,0.0
136,54.0,0,830,7.0,0.0
137,61.0,3,830,7.0,0.0
138,53.0,10,50,12.0,0.0
139,61.0,0,50,12.0,0.0
140,53.0,2,830,8.0,0.0
141,56.0,0,110,13.0,0.0
142,53.0,25,110,13.0,0.0
143,41.0,0,710,14.0,0.0
144,41.0,4,710,3.0,0.0
145,41.0,14,2,15.0,0.0
146,41.0,25,1,15.0,0.0
147,53.0,0,110,12.0,0.0
148,61.0,18,110,12.0,0.0
149,41.0,1,0,15.0,0.0
150,53.0,1,110,13.0,0.0
151,56.0,0,110,13.0,0.0
152,41.0,23,3,15.0,0.0
153,41.0,8,0,15.0,0.0
154,61.0,0,110,12.0,0.0
155,53.0,4,110,12.0,0.0
156,41.0,20,26,15.0,0.0
157,85.0,2,120,10.0,0.0
158,73.0,14,120,11.0,0.0
159,41.0,26,0,15.0,0.0
160,56.0,1,110,13.0,0.0
161,53.0,0,110,13.0,0.0
162,41.0,21,1,15.0,0.0
163,41.0,25,1,15.0,0.0
164,61.0,13,110,12.0,0.0
165,53.0,0,110,12.0,0.0
166,41.0,24,2,15.0,0.0
167,56.0,0,110,13.0,0.0
168,53.0,1,110,13.0,0.0
169,41.0,23,3,15.0,0.0
170,41.0,23,3,15.0,0.0
171,53.0,20,110,12.0,0.0
172,61.0,0,110,12.0,0.0
173,41.0,24,2,15.0,0.0
174,80.0,2,170,10.0,0.0
175,68.0,3,170,11.0,0.0
176,56.0,7,110,13.0,0.0
177,53.0,0,110,13.0,0.0
178,41.0,3,3,15.0,0.0
179,53.0,0,110,12.0,0.0
180,61.0,6,110,12.0,0.0
181,41.0,18,1,15.0,0.0
182,41.0,25,1,15.0,0.0
183,53.0,0,110,13.0,0.0
184,56.0,3,110,13.0,0.0
185,79.0,2,50,10.0,0.0
186,41.0,26,0,15.0,0.0
187,67.0,3,50,11.0,0.0
188,53.0,0,50,12.0,0.0
189,61.0,4,50,12.0,0.0
190,41.0,22,4,15.0,0.0
191,41.0,49,15,15.0,0.0
192,77.0,2,240,10.0,0.0
193,65.0,53,240,11.0,0.0
194,68.0,0,50,12.0,0.0
195,59.0,59,50,12.0,0.0
196,41.0,0,110,13.0,0.0
197,50.0,11,110,13.0,0.0
198,41.0,45,120,15.0,0.0
199,41.0,53,710,3.0,0.0
200,41.0,0,710,14.0,0.0
201,59.0,0,110,12.0,0.0
202,68.0,64,110,12.0,0.0
203,41.0,1,110,13.0,0.0
204,50.0,0,110,13.0,0.0
205,59.0,0,110,12.0,0.0
206,68.0,64,110,12.0,0.0
207,71.0,2,120,10.0,0.0
208,59.0,53,120,11.0,0.0
209,50.0,0,110,13.0,0.0
210,41.0,1,110,13.0,0.0
211,68.0,0,110,12.0,0.0
212,59.0,64,110,12.0,0.0
213,50.0,56,110,13.0,0.0
214,41.0,0,110,13.0,0.0
215,68.0,31,110,12.0,0.0
216,59.0,0,110,12.0,0.0
217,88.0,2,86,10.0,0.0
218,76.0,31,86,11.0,0.0
219,50.0,56,110,13.0,0.0
220,41.0,0,110,13.0,0.0
221,59.0,31,110,12.0,0.0
222,68.0,0,110,12.0,0.0
223,86.0,2,86,10.0,0.0
224,74.0,27,86,11.0,0.0
225,41.0,3,110,13.0,0.0
226,50.0,0,110,13.0,0.0
227,59.0,4,50,12.0,0.0
228,68.0,0,50,12.0,0.0
229,84.0,2,170,10.0,0.0
230,72.0,3,170,11.0,0.0
231,48.0,0,360,4.0,0.0
232,60.0,2,360,4.0,0.0
233,55.0,64,50,12.0,0.0
234,60.0,0,50,12.0,0.0
235,60.0,6,360,2.0,0.0
236,40.0,51,110,13.0,0.0
237,43.0,0,110,13.0,0.0
238,48.0,43,360,3.0,0.0
239,28.0,2,350,14.0,0.0
240,28.0,0,360,3.0,0.0
241,60.0,55,110,12.0,0.0
242,55.0,0,110,12.0,0.0
243,40.0,0,110,13.0,0.0
244,43.0,51,110,13.0,0.0
245,71.0,2,50,10.0,0.0
246,59.0,7,50,11.0,0.0
247,60.0,0,110,12.0,0.0
248,55.0,55,110,12.0,0.0
249,72.0,2,50,10.0,0.0
250,60.0,3,50,11.0,0.0
251,40.0,0,110,13.0,0.0
252,43.0,3,110,13.0,0.0
253,76.0,2,50,10.0,0.0
254,64.0,3,50,11.0,0.0
255,55.0,4,50,12.0,0.0
256,60.0,0,50,12.0,0.0
257,81.0,2,600,10.0,0.0
258,69.0,53,600,11.0,0.0
259,51.0,0,360,4.0,0.0
260,63.0,2,360,4.0,0.0
261,63.0,0,50,12.0,0.0
262,60.0,64,50,12.0,0.0
263,63.0,6,360,2.0,0.0
264,42.0,0,110,13.0,0.0
265,48.0,56,110,13.0,0.0
266,51.0,43,360,3.0,0.0
267,30.0,2,710,14.0,0.0
268,30.0,0,720,3.0,0.0
269,63.0,0,110,12.0,0.0
270,60.0,64,110,12.0,0.0
271,42.0,56,110,13.0,0.0
272,48.0,0,110,13.0,0.0
273,60.0,60,110,12.0,0.0
274,63.0,0,110,12.0,0.0
275,42.0,5,110,13.0,0.0
276,48.0,0,110,13.0,0.0
277,60.0,4,50,12.0,0.0
278,63.0,0,50,12.0,0.0
279,60.0,2,360,4.0,0.0
280,72.0,0,360,4.0,0.0
281,72.0,64,50,12.0,0.0
282,63.0,0,50,12.0,0.0
283,72.0,6,360,2.0,0.0
284,42.0,56,110,13.0,0.0
285,48.0,0,110,13.0,0.0
286,60.0,43,360,3.0,0.0
287,72.0,0,110,12.0,0.0
288,63.0,64,110,12.0,0.0
289,42.0,1,110,13.0,0.0
290,48.0,0,110,13.0,0.0
291,72.0,5,110,12.0,0.0
292,63.0,0,110,12.0,0.0
293,82.0,2,60,10.0,0.0
294,70.0,48,60,11.0,0.0
295,42.0,0,110,13.0,0.0
296,48.0,3,110,13.0,0.0
297,84.0,2,50,10.0,0.0
298,72.0,3,50,11.0,0.0
299,72.0,4,50,12.0,0.0
300,63.0,0,50,12.0,0.0
301,82.0,2,100,10.0,0.0
302,70.0,17,100,11.0,0.0
303,52.0,2,240,4.0,0.0
304,64.0,0,240,4.0,0.0
305,60.0,0,50,12.0,0.0
306,64.0,45,50,12.0,0.0
307,64.0,6,240,2.0,0.0
308,48.0,0,110,13.0,0.0
309,43.0,56,110,13.0,0.0
310,31.0,10,350,14.0,0.0
311,31.0,43,360,3.0,0.0
312,52.0,43,240,3.0,0.0
313,60.0,0,110,12.0,0.0
314,64.0,31,110,12.0,0.0
315,88.0,2,86,10.0,0.0
316,76.0,31,86,11.0,0.0
317,48.0,0,110,13.0,0.0
318,43.0,5,110,13.0,0.0
319,64.0,0,110,12.0,0.0
320,60.0,31,110,12.0,0.0
321,86.0,2,86,10.0,0.0
322,74.0,27,86,11.0,0.0
323,43.0,3,110,13.0,0.0
324,48.0,0,110,13.0,0.0
325,64.0,4,50,12.0,0.0
326,60.0,0,50,12.0,0.0
327,84.0,2,170,10.0,0.0
328,77.0,1,360,0.0,0.0
329,72.0,3,170,11.0,0.0
330,65.0,3,1320,6.0,0.0
331,65.0,2,360,1.0,0.0
332,60.0,0,50,12.0,0.0
333,65.0,64,50,12.0,0.0
334,53.0,6,360,5.0,0.0
335,53.0,0,110,13.0,0.0
336,45.0,51,110,13.0,0.0
337,33.0,2,350,14.0,0.0
338,53.0,43,1080,3.0,0.0
339,33.0,43,360,3.0,0.0
340,65.0,0,110,12.0,0.0
341,60.0,55,110,12.0,0.0
342,45.0,0,110,13.0,0.0
343,53.0,51,110,13.0,0.0
344,76.0,2,50,10.0,0.0
345,64.0,7,50,11.0,0.0
346,65.0,0,110,12.0,0.0
347,60.0,55,110,12.0,0.0
348,77.0,2,50,10.0,0.0
349,65.0,3,50,11.0,0.0
350,45.0,2,110,13.0,0.0
351,53.0,0,110,13.0,0.0
352,81.0,2,50,10.0,0.0
353,69.0,3,50,11.0,0.0
354,65.0,0,50,12.0,0.0
355,60.0,4,50,12.0,0.0
356,86.0,2,600,10.0,0.0
357,80.0,2,360,0.0,0.0
358,74.0,4,600,11.0,0.0
359,68.0,1,360,6.0,0.0
360,68.0,8,360,1.0,0.0
361,68.0,0,50,12.0,0.0
362,65.0,64,50,12.0,0.0
363,68.0,0,600,2.0,0.0
364,65.0,0,0,5.0,0.0
365,68.0,3,590,5.0,0.0
366,47.0,56,110,13.0,0.0
367,53.0,0,110,13.0,0.0
368,56.0,43,360,3.0,0.0
369,35.0,43,600,3.0,0.0
370,35.0,0,590,14.0,0.0
371,68.0,64,110,12.0,0.0
372,65.0,0,110,12.0,0.0
373,53.0,56,110,13.0,0.0
374,47.0,0,110,13.0,0.0
375,65.0,0,110,12.0,0.0
376,68.0,60,110,12.0,0.0
377,53.0,2,110,13.0,0.0
378,47.0,0,110,13.0,0.0
379,65.0,0,50,12.0,0.0
380,68.0,4,50,12.0,0.0
381,86.0,2,360,0.0,0.0
382,77.0,1,360,6.0,0.0
383,74.0,2,360,1.0,0.0
384,68.0,64,50,12.0,0.0
385,77.0,0,50,12.0,0.0
386,53.0,56,110,13.0,0.0
387,47.0,0,110,13.0,0.0
388,65.0,0,360,3.0,0.0
389,77.0,60,110,12.0,0.0
390,68.0,0,110,12.0,0.0
391,47.0,1,110,13.0,0.0
392,53.0,0,110,13.0,0.0
393,77.0,5,110,12.0,0.0
394,68.0,1,50,12.0,0.0
395,88.0,2,60,10.0,0.0
396,76.0,48,60,11.0,0.0
397,69.0,0,50,12.0,0.0
398,65.0,6,0,2.0,0.0
399,69.0,0,230,2.0,0.0
400,69.0,6,120,5.0,0.0
401,48.0,0,110,13.0,0.0
402,53.0,2,110,13.0,0.0
403,36.0,0,230,14.0,0.0
404,36.0,3,230,3.0,0.0
405,89.0,2,50,10.0,0.0
406,77.0,7,50,11.0,0.0
407,69.0,55,110,12.0,0.0
408,77.0,0,110,12.0,0.0
409,84.0,2,110,10.0,0.0
410,81.0,3,230,0.0,0.0
411,72.0,4,110,11.0,0.0
412,69.0,0,240,6.0,0.0
413,69.0,5,230,1.0,0.0
414,72.0,0,240,5.0,0.0
415,57.0,49,240,5.0,0.0
416,48.0,0,110,13.0,0.0
417,53.0,3,110,13.0,0.0
418,53.0,0,110,3.0,0.0
419,57.0,0,110,3.0,0.0
420,69.0,50,60,12.0,0.0
421,77.0,0,60,12.0,0.0
422,93.0,2,60,10.0,0.0
423,81.0,4,60,11.0,0.0
424,63.0,0,50,12.0,0.0
425,72.0,5,50,12.0,0.0
426,75.0,6,60,2.0,0.0
427,72.0,0,60,2.0,0.0
428,57.0,4,110,13.0,0.0
429,53.0,0,110,13.0,0.0
430,41.0,228,240,3.0,0.0
431,41.0,10,230,14.0,0.0
432,60.0,39,60,3.0,0.0
433,63.0,0,60,3.0,0.0
434,63.0,0,110,12.0,0.0
435,72.0,5,110,12.0,0.0
436,91.0,2,60,10.0,0.0
437,79.0,4,60,11.0,0.0
438,69.0,6,60,2.0,0.0
439,63.0,0,60,2.0,0.0
440,53.0,0,110,13.0,0.0
441,57.0,3,110,13.0,0.0
442,57.0,43,60,3.0,0.0
443,51.0,0,60,3.0,0.0
444,72.0,4,50,12.0,0.0
445,63.0,0,50,12.0,0.0
446,89.0,2,240,10.0,0.0
447,77.0,58,240,11.0,0.0
448,58.0,1,350,4.0,0.0
449,58.0,1,350,12.0,0.0
450,50.0,0,350,12.0,0.0
451,62.0,0,350,2.0,0.0
452,65.0,0,350,5.0,0.0
453,70.0,3,350,2.0,0.0
454,46.0,3,350,13.0,0.0
455,34.0,0,350,14.0,0.0
456,22.0,0,350,3.0,0.0
457,58.0,118,350,3.0,0.0
458,46.0,0,350,3.0,0.0
459,86.0,2,60,10.0,0.0
460,74.0,48,60,11.0,0.0
461,82.0,2,50,10.0,0.0
462,70.0,122,50,11.0,0.0
463,82.0,2,240,10.0,0.0
464,70.0,58,240,11.0,0.0
465,61.0,1,350,4.0,0.0
466,61.0,1,350,12.0,0.0
467,70.0,0,350,2.0,0.0
468,66.0,3,350,5.0,0.0
469,73.0,0,350,2.0,0.0
470,58.0,3,350,13.0,0.0
471,46.0,0,350,14.0,0.0
472,61.0,0,350,3.0,0.0
473,58.0,0,350,3.0,0.0
474,34.0,118,350,3.0,0.0
475,78.0,2,60,10.0,0.0
476,66.0,48,60,11.0,0.0
477,73.0,2,50,10.0,0.0
478,61.0,122,50,11.0,0.0
479,73.0,2,240,10.0,0.0
480,61.0,58,240,11.0,0.0
481,70.0,0,350,4.0,0.0
482,61.0,1,350,4.0,0.0
483,70.0,1,350,12.0,0.0
484,61.0,0,350,12.0,0.0
485,82.0,0,350,2.0,0.0
486,67.0,3,350,5.0,0.0
487,73.0,0,350,2.0,0.0
488,58.0,3,350,13.0,0.0
489,46.0,0,350,3.0,0.0
490,46.0,0,350,14.0,0.0
491,61.0,0,350,3.0,0.0
492,67.0,118,350,3.0,0.0
493,70.0,2,60,10.0,0.0
494,58.0,48,60,11.0,0.0
495,67.0,2,50,10.0,0.0
496,55.0,122,50,11.0,0.0
497,67.0,2,240,10.0,0.0
498,67.0,58,240,11.0,0.0
499,72.0,1,230,6.0,0.0
500,60.0,0,230,6.0,0.0
501,64.0,1,230,4.0,0.0
502,55.0,0,230,4.0,0.0
503,60.0,0,230,12.0,0.0
504,52.0,1,230,12.0,0.0
505,48.0,0,230,5.0,0.0
506,60.0,3,230,5.0,0.0
507,72.0,0,230,2.0,0.0
508,76.0,0,230,2.0,0.0
509,46.0,3,230,13.0,0.0
510,34.0,0,230,14.0,0.0
511,53.0,0,230,3.0,0.0
512,57.0,0,230,3.0,0.0
513,34.0,73,230,3.0,0.0
514,64.0,2,60,10.0,0.0
515,64.0,48,60,11.0,0.0
516,60.0,2,50,10.0,0.0
517,60.0,1,50,11.0,0.0
518,72.0,2,75,10.0,0.0
519,72.0,3,75,11.0,0.0
520,65.0,1,120,6.0,0.0
521,77.0,0,120,6.0,0.0
522,48.0,117,120,4.0,0.0
523,60.0,0,120,4.0,0.0
524,53.0,0,75,12.0,0.0
525,60.0,0,75,12.0,0.0
526,65.0,43,75,12.0,0.0
527,45.0,3,240,13.0,0.0
528,33.0,0,240,14.0,0.0
529,33.0,57,240,3.0,0.0
530,84.0,0,120,0.0,0.0
531,89.0,3,120,0.0,0.0
532,72.0,2,120,1.0,0.0
533,77.0,0,120,1.0,0.0
534,57.0,0,120,5.0,0.0
535,72.0,0,120,2.0,0.0
536,77.0,3,120,2.0,0.0
537,65.0,0,120,5.0,0.0
538,57.0,0,120,3.0,0.0
539,65.0,0,120,3.0,0.0
540,77.0,3,110,0.0,0.0
541,81.0,0,110,0.0,0.0
542,69.0,0,110,1.0,0.0
543,65.0,2,110,1.0,0.0
544,53.0,0,110,5.0,0.0
545,65.0,0,110,2.0,0.0
546,69.0,0,110,2.0,0.0
547,57.0,3,110,5.0,0.0
548,46.0,3,60,13.0,0.0
549,34.0,39,60,3.0,0.0
550,53.0,0,110,3.0,0.0
551,57.0,0,110,3.0,0.0
552,34.0,0,60,14.0,0.0
553,48.0,3,50,13.0,0.0
554,36.0,0,50,3.0,0.0
555,36.0,127,50,14.0,0.0
556,69.0,1,240,10.0,0.0
557,84.0,0,360,0.0,0.0
558,81.0,1,240,0.0,0.0
559,69.0,2,240,11.0,0.0
560,72.0,1,350,6.0,0.0
561,60.0,0,350,6.0,0.0
562,60.0,0,240,4.0,0.0
563,72.0,0,360,1.0,0.0
564,69.0,0,240,1.0,0.0
565,57.0,1,240,4.0,0.0
566,60.0,1,240,12.0,0.0
567,72.0,6,360,2.0,0.0
568,48.0,0,360,5.0,0.0
569,60.0,0,360,5.0,0.0
570,69.0,6,240,2.0,0.0
571,50.0,3,120,13.0,0.0
572,60.0,111,360,3.0,0.0
573,36.0,48,240,3.0,0.0
574,38.0,108,120,14.0,0.0
575,57.0,0,240,3.0,0.0
576,67.0,2,60,10.0,0.0
577,76.0,3,120,0.0,0.0
578,67.0,3,60,11.0,0.0
579,64.0,2,120,1.0,0.0
580,55.0,1,110,4.0,0.0
581,58.0,0,110,4.0,0.0
582,58.0,45,60,12.0,0.0
583,64.0,0,120,2.0,0.0
584,58.0,0,120,3.0,0.0
585,65.0,2,50,10.0,0.0
586,65.0,1,50,11.0,0.0
587,57.0,6,50,12.0,0.0
588,65.0,2,240,10.0,0.0
589,65.0,2,240,11.0,0.0
590,60.0,0,120,6.0,0.0
591,72.0,1,120,6.0,0.0
592,48.0,116,120,4.0,0.0
593,57.0,0,120,4.0,0.0
594,57.0,1,240,12.0,0.0
595,45.0,3,240,13.0,0.0
596,45.0,57,240,14.0,0.0
597,72.0,1,120,1.0,0.0
598,77.0,0,120,1.0,0.0
599,57.0,0,120,5.0,0.0
600,77.0,3,120,2.0,0.0
601,72.0,0,120,2.0,0.0
602,65.0,0,120,5.0,0.0
603,65.0,0,120,3.0,0.0
604,69.0,2,110,1.0,0.0
605,65.0,0,110,1.0,0.0
606,53.0,0,110,5.0,0.0
607,69.0,0,110,2.0,0.0
608,57.0,0,110,5.0,0.0
609,65.0,3,110,2.0,0.0
610,46.0,3,60,13.0,0.0
611,53.0,0,110,3.0,0.0
612,57.0,0,0,3.0,0.0
613,46.0,42,60,14.0,0.0
614,48.0,3,50,13.0,0.0
615,48.0,127,50,14.0,0.0
616,60.0,2,240,10.0,0.0
617,60.0,2,240,11.0,0.0
618,69.0,0,240,1.0,0.0
619,72.0,0,350,1.0,0.0
620,60.0,0,240,4.0,0.0
621,57.0,1,240,4.0,0.0
622,57.0,1,240,12.0,0.0
623,69.0,6,240,2.0,0.0
624,72.0,6,350,2.0,0.0
625,48.0,0,360,5.0,0.0
626,60.0,49,360,5.0,0.0
627,50.0,3,120,13.0,0.0
628,60.0,48,240,3.0,0.0
629,57.0,0,240,3.0,0.0
630,50.0,108,120,14.0,0.0
631,58.0,2,60,10.0,0.0
632,58.0,3,60,11.0,0.0
633,58.0,0,110,4.0,0.0
634,64.0,1,110,1.0,0.0
635,55.0,0,110,4.0,0.0
636,55.0,45,60,12.0,0.0
637,64.0,0,110,2.0,0.0
638,52.0,0,110,3.0,0.0
639,48.0,4,110,3.0,0.0
640,57.0,2,50,10.0,0.0
641,57.0,2,50,11.0,0.0
642,53.0,1,50,12.0,0.0
643,57.0,1,240,10.0,0.0
644,77.0,3,120,0.0,0.0
645,57.0,4,240,11.0,0.0
646,48.0,0,120,4.0,0.0
647,57.0,2,120,4.0,0.0
648,53.0,66,50,12.0,0.0
649,65.0,0,120,2.0,0.0
650,77.0,3,120,2.0,0.0
651,41.0,3,120,13.0,0.0
652,41.0,0,120,3.0,0.0
653,29.0,0,120,14.0,0.0
654,53.0,65,110,12.0,0.0
655,89.0,0,0,0.0,0.0
656,77.0,0,120,2.0,0.0
657,53.0,43,0,3.0,0.0
658,29.0,0,120,14.0,0.0
659,53.0,66,110,12.0,0.0
660,77.0,1,0,0.0,0.0
661,89.0,0,0,0.0,0.0
662,65.0,6,0,2.0,0.0
663,41.0,0,0,3.0,0.0
664,29.0,0,120,14.0,0.0
665,53.0,0,120,3.0,0.0
666,53.0,65,470,12.0,0.0
667,69.0,9,117,10.0,0.0
668,77.0,5,350,0.0,0.0
669,89.0,5,0,0.0,0.0
670,65.0,65,50,11.0,0.0
671,77.0,6,0,2.0,0.0
672,65.0,6,350,2.0,0.0
673,65.0,0,120,5.0,0.0
674,57.0,43,120,13.0,0.0
675,41.0,40,0,3.0,0.0
676,53.0,4,350,3.0,0.0
677,29.0,43,360,14.0,0.0
678,65.0,65,110,11.0,0.0
679,69.0,9,117,10.0,0.0
680,53.0,3,0,5.0,0.0
681,65.0,58,110,11.0,0.0
682,69.0,1,110,10.0,0.0
683,65.0,3,0,5.0,0.0
684,53.0,0,0,5.0,0.0
685,57.0,43,0,13.0,0.0
686,65.0,65,470,11.0,0.0
687,69.0,1,120,10.0,0.0
688,77.0,5,120,0.0,0.0
689,53.0,3,0,5.0,0.0
690,65.0,5,350,5.0,0.0
691,77.0,0,120,2.0,0.0
692,65.0,3,120,2.0,0.0
693,57.0,3,0,13.0,0.0
694,31.0,0,120,14.0,0.0
695,53.0,66,110,12.0,0.0
696,70.0,6,230,10.0,0.0
697,89.0,0,0,0.0,0.0
698,77.0,0,120,0.0,0.0
699,65.0,0,120,2.0,0.0
700,58.0,3,240,13.0,0.0
701,55.0,0,0,3.0,0.0
702,43.0,43,0,3.0,0.0
703,53.0,55,110,12.0,0.0
704,89.0,5,0,0.0,0.0
705,77.0,6,0,2.0,0.0
706,65.0,0,120,2.0,0.0
707,55.0,43,0,3.0,0.0
708,43.0,0,120,3.0,0.0
709,31.0,0,0,14.0,0.0
710,53.0,56,470,12.0,0.0
711,72.0,9,117,10.0,0.0
712,89.0,5,0,0.0,0.0
713,77.0,0,0,0.0,0.0
714,53.0,0,120,5.0,0.0
715,65.0,3,120,5.0,0.0
716,65.0,6,350,2.0,0.0
717,77.0,3,0,2.0,0.0
718,60.0,43,120,13.0,0.0
719,57.0,0,350,3.0,0.0
720,45.0,4,350,3.0,0.0
721,33.0,40,360,14.0,0.0
722,65.0,65,110,11.0,0.0
723,72.0,9,117,10.0,0.0
724,53.0,0,120,5.0,0.0
725,65.0,58,110,11.0,0.0
726,72.0,1,110,10.0,0.0
727,65.0,3,0,5.0,0.0
728,60.0,43,0,13.0,0.0
729,65.0,3,110,11.0,0.0
730,72.0,2,120,10.0,0.0
731,77.0,0,110,0.0,0.0
732,89.0,5,110,0.0,0.0
733,65.0,0,0,5.0,0.0
734,77.0,4,110,2.0,0.0
735,53.0,3,0,5.0,0.0
736,60.0,3,0,13.0,0.0
737,46.0,0,110,3.0,0.0
738,58.0,7,110,3.0,0.0
739,65.0,3,110,11.0,0.0
740,53.0,56,110,12.0,0.0
741,74.0,9,180,10.0,0.0
742,89.0,0,110,0.0,0.0
743,77.0,5,110,0.0,0.0
744,77.0,6,110,2.0,0.0
745,62.0,41,180,13.0,0.0
746,34.0,40,0,14.0,0.0
747,58.0,0,110,3.0,0.0
748,46.0,10,110,3.0,0.0
749,70.0,3,110,11.0,0.0
750,58.0,5,110,12.0,0.0
751,89.0,5,110,0.0,0.0
752,77.0,0,110,0.0,0.0
753,77.0,0,110,2.0,0.0
754,35.0,40,120,14.0,0.0
755,59.0,7,110,3.0,0.0
756,47.0,0,110,3.0,0.0
757,75.0,1,50,10.0,0.0
758,69.0,3,110,11.0,0.0
759,57.0,65,110,12.0,0.0
760,75.0,1,120,10.0,0.0
761,77.0,0,120,0.0,0.0
762,89.0,1,120,0.0,0.0
763,65.0,0,120,5.0,0.0
764,77.0,3,120,2.0,0.0
765,63.0,3,0,13.0,0.0
766,48.0,0,110,3.0,0.0
767,36.0,40,120,14.0,0.0
768,60.0,4,110,3.0,0.0
769,67.0,3,110,11.0,0.0
770,55.0,67,110,12.0,0.0
771,76.0,9,180,10.0,0.0
772,88.0,5,230,0.0,0.0
773,76.0,0,230,0.0,0.0
774,64.0,6,230,5.0,0.0
775,76.0,0,230,2.0,0.0
776,64.0,41,180,13.0,0.0
777,48.0,10,110,3.0,0.0
778,60.0,0,110,3.0,0.0
779,36.0,40,120,14.0,0.0
780,72.0,3,110,11.0,0.0
781,60.0,5,110,12.0,0.0
782,37.0,40,120,14.0,0.0
783,61.0,7,110,3.0,0.0
784,49.0,0,110,3.0,0.0
785,81.0,1,50,10.0,0.0
786,70.0,3,110,11.0,0.0
787,58.0,5,110,12.0,0.0
788,57.0,3,60,13.0,0.0
789,79.0,60,60,10.0,0.0
790,79.0,1,120,0.0,0.0
791,91.0,0,120,0.0,0.0
792,67.0,0,120,5.0,0.0
793,79.0,3,120,2.0,0.0
794,50.0,3,120,13.0,0.0
795,62.0,4,110,3.0,0.0
796,50.0,0,110,3.0,0.0
797,77.0,1,60,10.0,0.0
798,69.0,3,110,11.0,0.0
799,57.0,5,110,12.0,0.0
800,76.0,60,60,10.0,0.0
801,77.0,0,230,0.0,0.0
802,89.0,5,230,0.0,0.0
803,77.0,6,230,2.0,0.0
804,65.0,3,240,5.0,0.0
805,50.0,3,120,13.0,0.0
806,38.0,40,0,14.0,0.0
807,50.0,0,110,3.0,0.0
808,62.0,7,110,3.0,0.0
809,77.0,2,60,10.0,0.0
810,69.0,3,110,11.0,0.0
811,57.0,5,110,12.0,0.0
812,81.0,50,60,10.0,0.0
813,50.0,3,120,13.0,0.0
814,38.0,40,0,14.0,0.0
815,62.0,4,110,3.0,0.0
816,50.0,0,110,3.0,0.0
817,86.0,1,50,10.0,0.0
818,69.0,3,110,11.0,0.0
819,58.0,5,110,12.0,0.0
820,89.0,4,60,10.0,0.0
821,86.0,1,350,0.0,0.0
822,89.0,0,350,0.0,0.0
823,77.0,0,60,1.0,0.0
824,74.0,2,60,1.0,0.0
825,62.0,0,360,4.0,0.0
826,55.0,5,360,4.0,0.0
827,77.0,54,60,2.0,0.0
828,65.0,0,350,5.0,0.0
829,74.0,0,60,2.0,0.0
830,31.0,40,120,14.0,0.0
831,43.0,0,110,3.0,0.0
832,55.0,7,110,3.0,0.0
833,86.0,2,60,10.0,0.0
834,71.0,3,110,11.0,0.0
835,59.0,5,110,12.0,0.0
836,83.0,60,60,10.0,0.0
837,83.0,0,230,1.0,0.0
838,71.0,1,230,1.0,0.0
839,77.0,6,230,2.0,0.0
840,74.0,0,230,2.0,0.0
841,43.0,3,0,13.0,0.0
842,43.0,7,110,3.0,0.0
843,55.0,0,110,3.0,0.0
844,77.0,2,60,10.0,0.0
845,74.0,3,110,11.0,0.0
846,62.0,5,110,12.0,0.0
847,74.0,50,60,10.0,0.0
848,43.0,3,120,13.0,0.0
849,31.0,40,0,14.0,0.0
850,43.0,1,110,3.0,0.0
851,55.0,0,110,3.0,0.0
852,71.0,1,50,10.0,0.0
853,77.0,2,50,11.0,0.0
854,65.0,1,50,12.0,0.0
855,72.0,1,60,10.0,0.0
856,84.0,2,60,0.0,0.0
857,89.0,0,60,0.0,0.0
858,69.0,3,50,11.0,0.0
859,65.0,0,50,11.0,0.0
860,77.0,0,0,6.0,0.0
861,65.0,1,0,6.0,0.0
862,60.0,0,60,4.0,0.0
863,84.0,2,60,1.0,0.0
864,60.0,0,710,7.0,0.0
865,65.0,3,710,7.0,0.0
866,72.0,0,60,1.0,0.0
867,48.0,0,60,4.0,0.0
868,60.0,0,50,12.0,0.0
869,72.0,5,50,12.0,0.0
870,65.0,0,60,5.0,0.0
871,72.0,0,60,2.0,0.0
872,57.0,106,60,5.0,0.0
873,77.0,0,60,2.0,0.0
874,45.0,5,710,8.0,0.0
875,45.0,3,720,13.0,0.0
876,33.0,40,720,14.0,0.0
877,57.0,0,710,3.0,0.0
878,45.0,0,710,3.0,0.0
879,33.0,0,710,3.0,0.0
880,65.0,3,110,11.0,0.0
881,69.0,0,110,11.0,0.0
882,72.0,0,110,12.0,0.0
883,60.0,117,110,12.0,0.0
884,69.0,3,110,11.0,0.0
885,65.0,0,110,11.0,0.0
886,60.0,105,110,12.0,0.0
887,72.0,0,110,12.0,0.0
888,65.0,0,110,11.0,0.0
889,69.0,3,110,11.0,0.0
890,72.0,25,110,12.0,0.0
891,60.0,0,110,12.0,0.0
892,57.0,12,40,10.0,0.0
893,60.0,40,40,10.0,0.0
894,69.0,0,110,11.0,0.0
895,65.0,3,110,11.0,0.0
896,72.0,0,110,12.0,0.0
897,60.0,25,110,12.0,0.0
898,65.0,40,40,10.0,0.0
899,69.0,12,40,10.0,0.0
900,72.0,40,40,10.0,0.0
901,69.0,0,110,11.0,0.0
902,65.0,3,110,11.0,0.0
903,60.0,5,110,12.0,0.0
904,72.0,0,110,12.0,0.0
905,77.0,52,40,10.0,0.0
906,81.0,54,60,10.0,0.0
907,69.0,7,60,11.0,0.0
908,65.0,0,110,11.0,0.0
909,72.0,0,110,12.0,0.0
910,60.0,5,110,12.0,0.0
911,79.0,112,60,10.0,0.0
912,67.0,3,50,11.0,0.0
913,65.0,1,360,7.0,0.0
914,55.0,0,710,7.0,0.0
915,48.0,5,710,8.0,0.0
916,48.0,3,720,13.0,0.0
917,60.0,7,710,3.0,0.0
918,36.0,0,710,3.0,0.0
919,48.0,0,710,3.0,0.0
920,36.0,23,720,14.0,0.0
921,67.0,0,110,11.0,0.0
922,65.0,3,110,11.0,0.0
923,60.0,117,110,12.0,0.0
924,72.0,0,110,12.0,0.0
925,67.0,3,110,11.0,0.0
926,65.0,0,110,11.0,0.0
927,60.0,0,110,12.0,0.0
928,72.0,67,110,12.0,0.0
929,67.0,18,120,11.0,0.0
930,65.0,2,60,11.0,0.0
931,72.0,35,60,12.0,0.0
932,60.0,7,110,12.0,0.0
933,60.0,12,40,10.0,0.0
934,64.0,3,50,11.0,0.0
935,64.0,1,350,7.0,0.0
936,70.0,0,50,12.0,0.0
937,64.0,40,40,10.0,0.0
938,64.0,0,110,11.0,0.0
939,67.0,3,110,11.0,0.0
940,60.0,0,110,12.0,0.0
941,70.0,25,110,12.0,0.0
942,67.0,40,40,10.0,0.0
943,72.0,12,40,10.0,0.0
944,76.0,40,40,10.0,0.0
945,64.0,3,110,11.0,0.0
946,67.0,0,110,11.0,0.0
947,70.0,5,110,12.0,0.0
948,60.0,0,110,12.0,0.0
949,79.0,52,40,10.0,0.0
950,84.0,54,60,10.0,0.0
951,67.0,0,60,11.0,0.0
952,64.0,0,60,11.0,0.0
953,60.0,29,90,12.0,0.0
954,70.0,2,50,12.0,0.0
955,77.0,1,710,10.0,0.0
956,77.0,2,710,0.0,0.0
957,72.0,10,120,11.0,0.0
958,65.0,0,120,11.0,0.0
959,77.0,1,710,6.0,0.0
960,65.0,0,710,6.0,0.0
961,77.0,0,710,1.0,0.0
962,65.0,3,60,7.0,0.0
963,65.0,0,710,4.0,0.0
964,60.0,2,710,4.0,0.0
965,60.0,0,60,7.0,0.0
966,69.0,0,30,12.0,0.0
967,72.0,0,710,2.0,0.0
968,57.0,0,710,5.0,0.0
969,65.0,6,710,5.0,0.0
970,57.0,2,60,8.0,0.0
971,57.0,3,60,13.0,0.0
972,45.0,43,120,3.0,0.0
973,57.0,0,710,3.0,0.0
974,45.0,50,60,14.0,0.0
975,60.0,3,710,3.0,0.0
976,65.0,120,110,12.0,0.0
977,60.0,0,110,12.0,0.0
978,65.0,0,110,12.0,0.0
979,60.0,114,110,12.0,0.0
980,60.0,34,110,12.0,0.0
981,65.0,0,110,12.0,0.0
982,45.0,6,40,13.0,0.0
983,48.0,40,40,13.0,0.0
984,65.0,0,110,12.0,0.0
985,60.0,14,110,12.0,0.0
986,53.0,33,40,13.0,0.0
987,57.0,13,40,11.0,0.0
988,57.0,13,60,13.0,0.0
989,60.0,40,40,11.0,0.0
990,65.0,0,110,12.0,0.0
991,60.0,27,110,12.0,0.0
992,65.0,40,40,11.0,0.0
993,69.0,13,40,11.0,0.0
994,72.0,28,40,11.0,0.0
995,65.0,0,60,12.0,0.0
996,60.0,50,60,12.0,0.0
997,77.0,0,40,11.0,0.0
998,63.0,55,120,10.0,0.0
999,80.0,0,710,10.0,0.0
1000,72.0,1,710,10.0,0.0
1001,80.0,1,710,0.0,0.0
1002,80.0,7,60,11.0,0.0
1003,75.0,0,710,6.0,0.0
1004,72.0,1,710,6.0,0.0
1005,78.0,0,710,1.0,0.0
1006,80.0,0,710,1.0,0.0
1007,63.0,1,710,4.0,0.0
1008,68.0,0,710,4.0,0.0
1009,63.0,7,50,12.0,0.0
1010,66.0,0,50,12.0,0.0
1011,66.0,0,710,5.0,0.0
1012,72.0,0,710,2.0,0.0
1013,75.0,6,710,2.0,0.0
1014,54.0,0,710,5.0,0.0
1015,56.0,3,60,13.0,0.0
1016,60.0,0,710,3.0,0.0
1017,56.0,58,710,3.0,0.0
1018,44.0,48,60,14.0,0.0
1019,66.0,120,110,12.0,0.0
1020,63.0,0,110,12.0,0.0
1021,66.0,0,110,12.0,0.0
1022,63.0,114,110,12.0,0.0
1023,66.0,34,110,12.0,0.0
1024,63.0,0,110,12.0,0.0
1025,44.0,6,40,13.0,0.0
1026,48.0,40,40,13.0,0.0
1027,66.0,14,110,12.0,0.0
1028,63.0,0,110,12.0,0.0
1029,51.0,33,40,13.0,0.0
1030,56.0,13,40,11.0,0.0
1031,56.0,13,60,13.0,0.0
1032,60.0,40,40,11.0,0.0
1033,63.0,0,110,12.0,0.0
1034,66.0,27,110,12.0,0.0
1035,63.0,40,40,11.0,0.0
1036,68.0,13,40,11.0,0.0
1037,72.0,28,40,11.0,0.0
1038,63.0,0,50,12.0,0.0
1039,66.0,1,50,12.0,0.0
1040,80.0,1,30,11.0,0.0
1041,89.0,1,60,10.0,0.0
1042,80.0,0,60,0.0,0.0
1043,89.0,1,60,0.0,0.0
1044,68.0,0,60,11.0,0.0
1045,77.0,1,60,11.0,0.0
1046,77.0,0,60,6.0,0.0
1047,68.0,1,60,6.0,0.0
1048,65.0,0,60,4.0,0.0
1049,61.0,0,60,4.0,0.0
1050,80.0,1,60,1.0,0.0
1051,77.0,0,60,1.0,0.0
1052,61.0,0,60,12.0,0.0
1053,65.0,1,60,12.0,0.0
1054,65.0,0,60,5.0,0.0
1055,56.0,3,60,5.0,0.0
1056,77.0,0,60,2.0,0.0
1057,73.0,0,60,2.0,0.0
1058,49.0,3,60,13.0,0.0
1059,49.0,0,60,3.0,0.0
1060,37.0,0,60,14.0,0.0
1061,61.0,160,60,3.0,0.0
1062,73.0,120,117,10.0,0.0
1063,61.0,5,110,11.0,0.0
1064,73.0,115,117,10.0,0.0
1065,61.0,9,230,11.0,0.0
1066,73.0,2,470,10.0,0.0
1067,49.0,4,117,12.0,0.0
1068,65.0,6,120,2.0,0.0
1069,49.0,3,360,13.0,0.0
1070,37.0,98,360,14.0,0.0
1071,77.0,1,0,0.0,0.0
1072,61.0,9,110,11.0,0.0
1073,49.0,4,117,12.0,0.0
1074,65.0,6,120,2.0,0.0
1075,53.0,100,0,3.0,0.0
1076,77.0,5,110,0.0,0.0
1077,61.0,9,230,11.0,0.0
1078,49.0,5,112,12.0,0.0
1079,65.0,1,110,2.0,0.0
1080,53.0,99,0,3.0,0.0
1081,77.0,5,120,0.0,0.0
1082,49.0,6,470,12.0,0.0
1083,65.0,6,120,2.0,0.0
1084,51.0,3,360,13.0,0.0
1085,53.0,100,120,3.0,0.0
1086,39.0,100,360,14.0,0.0
1087,73.0,114,117,10.0,0.0
1088,78.0,5,230,0.0,0.0
1089,61.0,5,110,11.0,0.0
1090,66.0,1,230,2.0,0.0
1091,54.0,7,230,3.0,0.0
1092,73.0,5,117,10.0,0.0
1093,61.0,3,230,11.0,0.0
1094,73.0,11,470,10.0,0.0
1095,80.0,5,120,0.0,0.0
1096,53.0,3,360,13.0,0.0
1097,41.0,98,360,14.0,0.0
1098,61.0,3,110,11.0,0.0
1099,49.0,6,110,12.0,0.0
1100,68.0,6,0,2.0,0.0
1101,56.0,100,0,3.0,0.0
1102,80.0,5,0,0.0,0.0
1103,61.0,3,240,11.0,0.0
1104,49.0,1,110,12.0,0.0
1105,68.0,6,110,2.0,0.0
1106,56.0,99,0,3.0,0.0
1107,80.0,1,120,0.0,0.0
1108,49.0,1,120,12.0,0.0
1109,68.0,6,120,2.0,0.0
1110,54.0,3,240,13.0,0.0
1111,56.0,98,120,3.0,0.0
1112,42.0,49,240,14.0,0.0
1113,73.0,12,110,10.0,0.0
1114,82.0,5,180,0.0,0.0
1115,66.0,3,120,11.0,0.0
1116,54.0,4,120,12.0,0.0
1117,70.0,6,180,2.0,0.0
1118,58.0,38,180,3.0,0.0
1119,73.0,1,110,10.0,0.0
1120,65.0,0,120,11.0,0.0
1121,53.0,4,120,12.0,0.0
1122,55.0,3,120,13.0,0.0
1123,43.0,108,120,14.0,0.0
1124,83.0,5,50,0.0,0.0
1125,71.0,6,50,2.0,0.0
1126,59.0,3,50,3.0,0.0
1127,73.0,1,120,10.0,0.0
1128,83.0,1,120,0.0,0.0
1129,63.0,3,120,11.0,0.0
1130,51.0,1,120,12.0,0.0
1131,71.0,6,120,2.0,0.0
1132,56.0,3,240,13.0,0.0
1133,44.0,49,240,14.0,0.0
1134,59.0,98,120,3.0,0.0
1135,72.0,12,110,10.0,0.0
1136,84.0,5,180,0.0,0.0
1137,68.0,3,120,11.0,0.0
1138,56.0,4,120,12.0,0.0
1139,72.0,6,180,2.0,0.0
1140,60.0,38,180,3.0,0.0
1141,72.0,1,110,10.0,0.0
1142,66.0,3,110,11.0,0.0
1143,54.0,1,110,12.0,0.0
1144,57.0,3,120,13.0,0.0
1145,45.0,54,120,14.0,0.0
1146,77.0,1,50,0.0,0.0
1147,77.0,6,50,2.0,0.0
1148,65.0,7,50,3.0,0.0
1149,72.0,2,120,10.0,0.0
1150,77.0,5,300,0.0,0.0
1151,66.0,3,120,11.0,0.0
1152,63.0,1,120,12.0,0.0
1153,75.0,54,60,2.0,0.0
1154,58.0,3,120,13.0,0.0
1155,65.0,39,300,3.0,0.0
1156,46.0,54,120,14.0,0.0
1157,73.0,3,60,2.0,0.0
1158,70.0,2,120,10.0,0.0
1159,65.0,3,120,11.0,0.0
1160,61.0,1,120,12.0,0.0
1161,72.0,54,60,2.0,0.0
1162,73.0,55,60,2.0,0.0
1163,77.0,6,60,2.0,0.0
1164,78.0,5,50,0.0,0.0
1165,82.0,6,50,2.0,0.0
1166,66.0,64,50,3.0,0.0
1167,70.0,2,120,10.0,0.0
1168,79.0,5,300,0.0,0.0
1169,67.0,3,120,11.0,0.0
1170,61.0,1,120,12.0,0.0
1171,85.0,54,60,2.0,0.0
1172,51.0,3,120,13.0,0.0
1173,67.0,39,300,3.0,0.0
1174,39.0,54,120,14.0,0.0
1175,82.0,3,60,2.0,0.0
1176,67.0,2,120,10.0,0.0
1177,61.0,3,120,11.0,0.0
1178,58.0,1,120,12.0,0.0
1179,79.0,54,60,2.0,0.0
1180,73.0,55,60,2.0,0.0
1181,70.0,6,60,2.0,0.0
1182,82.0,5,50,0.0,0.0
1183,67.0,6,50,2.0,0.0
1184,61.0,58,50,3.0,0.0
1185,68.0,2,60,10.0,0.0
1186,80.0,5,710,0.0,0.0
1187,73.0,0,710,0.0,0.0
1188,61.0,3,60,11.0,0.0
1189,56.0,64,60,12.0,0.0
1190,65.0,6,720,5.0,0.0
1191,53.0,0,720,5.0,0.0
1192,61.0,10,710,2.0,0.0
1193,68.0,0,710,2.0,0.0
1194,53.0,3,120,13.0,0.0
1195,61.0,57,240,3.0,0.0
1196,41.0,117,120,14.0,0.0
1197,53.0,48,720,3.0,0.0
1198,41.0,3,60,13.0,0.0
1199,44.0,56,60,13.0,0.0
1200,53.0,4,60,12.0,0.0
1201,49.0,56,60,13.0,0.0
1202,56.0,55,60,12.0,0.0
1203,53.0,51,120,13.0,0.0
1204,65.0,5,60,10.0,0.0
1205,61.0,4,60,12.0,0.0
1206,68.0,5,60,10.0,0.0
1207,65.0,55,60,12.0,0.0
1208,73.0,5,60,10.0,0.0
1209,68.0,55,60,12.0,0.0
1210,77.0,5,60,10.0,0.0
1211,73.0,46,60,12.0,0.0
1212,75.0,2,60,10.0,0.0
1213,75.0,5,720,0.0,0.0
1214,80.0,0,720,0.0,0.0
1215,66.0,0,60,11.0,0.0
1216,56.0,3,60,11.0,0.0
1217,72.0,67,60,12.0,0.0
1218,63.0,5,710,5.0,0.0
1219,72.0,0,720,2.0,0.0
1220,66.0,6,720,2.0,0.0
1221,56.0,0,710,5.0,0.0
1222,44.0,117,120,14.0,0.0
1223,56.0,48,720,3.0,0.0
1224,44.0,60,60,13.0,0.0
1225,51.0,56,60,13.0,0.0
1226,56.0,4,60,12.0,0.0
1227,54.0,56,60,13.0,0.0
1228,63.0,55,60,12.0,0.0
1229,56.0,51,120,13.0,0.0
1230,68.0,5,60,10.0,0.0
1231,66.0,4,60,12.0,0.0
1232,72.0,5,60,10.0,0.0
1233,68.0,55,60,12.0,0.0
1234,75.0,60,60,10.0,0.0
1235,80.0,5,60,10.0,0.0
1236,66.0,51,60,12.0,0.0
1237,73.0,2,60,10.0,0.0
1238,72.0,3,720,0.0,0.0
1239,68.0,3,60,11.0,0.0
1240,73.0,2,720,1.0,0.0
1241,53.0,55,60,12.0,0.0
1242,65.0,0,720,2.0,0.0
1243,68.0,54,720,2.0,0.0
1244,68.0,5,1430,5.0,0.0
1245,65.0,3,120,5.0,0.0
1246,53.0,3,120,13.0,0.0
1247,65.0,0,120,3.0,0.0
1248,41.0,48,120,14.0,0.0
1249,68.0,2,60,10.0,0.0
1250,61.0,3,60,11.0,0.0
1251,56.0,1,60,12.0,0.0
1252,73.0,2,60,10.0,0.0
1253,68.0,3,60,11.0,0.0
1254,53.0,55,60,12.0,0.0
1255,68.0,2,60,10.0,0.0
1256,61.0,3,60,11.0,0.0
1257,56.0,7,60,12.0,0.0
1258,41.0,48,60,3.0,0.0
1259,73.0,2,60,10.0,0.0
1260,68.0,3,60,11.0,0.0
1261,53.0,7,60,12.0,0.0
1262,44.0,48,60,3.0,0.0
1263,68.0,2,60,10.0,0.0
1264,61.0,3,60,11.0,0.0
1265,56.0,7,60,12.0,0.0
1266,49.0,48,60,3.0,0.0
1267,73.0,2,60,10.0,0.0
1268,68.0,3,60,11.0,0.0
1269,53.0,7,60,12.0,0.0
1270,53.0,48,60,3.0,0.0
1271,68.0,2,60,10.0,0.0
1272,61.0,3,60,11.0,0.0
1273,56.0,7,60,12.0,0.0
1274,56.0,48,60,3.0,0.0
1275,73.0,2,60,10.0,0.0
1276,68.0,3,60,11.0,0.0
1277,53.0,7,60,12.0,0.0
1278,61.0,48,60,3.0,0.0
1279,68.0,2,60,10.0,0.0
1280,61.0,3,60,11.0,0.0
1281,56.0,7,60,12.0,0.0
1282,65.0,48,60,3.0,0.0
1283,73.0,2,60,10.0,0.0
1284,68.0,3,60,11.0,0.0
1285,53.0,45,60,12.0,0.0
1286,68.0,48,300,3.0,0.0
1287,68.0,2,50,10.0,0.0
1288,61.0,3,50,11.0,0.0
1289,56.0,6,50,12.0,0.0
1290,71.0,2,60,10.0,0.0
1291,68.0,3,60,11.0,0.0
1292,64.0,1,710,4.0,0.0
1293,74.0,0,720,1.0,0.0
1294,76.0,2,720,1.0,0.0
1295,52.0,55,60,12.0,0.0
1296,74.0,6,720,2.0,0.0
1297,71.0,0,720,2.0,0.0
1298,52.0,3,120,13.0,0.0
1299,45.0,108,720,3.0,0.0
1300,40.0,48,120,14.0,0.0
1301,68.0,2,60,10.0,0.0
1302,62.0,3,60,11.0,0.0
1303,56.0,4,60,12.0,0.0
1304,71.0,2,60,10.0,0.0
1305,68.0,3,60,11.0,0.0
1306,52.0,7,60,12.0,0.0
1307,68.0,1,60,10.0,0.0
1308,64.0,1,60,0.0,0.0
1309,62.0,3,60,11.0,0.0
1310,56.0,55,60,12.0,0.0
1311,71.0,1,60,10.0,0.0
1312,68.0,1,60,0.0,0.0
1313,68.0,3,60,11.0,0.0
1314,52.0,55,60,12.0,0.0
1315,68.0,1,60,10.0,0.0
1316,71.0,1,60,0.0,0.0
1317,62.0,3,60,11.0,0.0
1318,56.0,55,60,12.0,0.0
1319,71.0,1,60,10.0,0.0
1320,74.0,1,60,0.0,0.0
1321,68.0,3,60,11.0,0.0
1322,52.0,55,60,12.0,0.0
1323,68.0,1,60,10.0,0.0
1324,76.0,1,60,0.0,0.0
1325,62.0,3,60,11.0,0.0
1326,56.0,55,60,12.0,0.0
1327,71.0,1,60,10.0,0.0
1328,80.0,1,60,0.0,0.0
1329,68.0,3,60,11.0,0.0
1330,52.0,55,60,12.0,0.0
1331,68.0,1,60,10.0,0.0
1332,83.0,1,60,0.0,0.0
1333,62.0,3,60,11.0,0.0
1334,56.0,55,60,12.0,0.0
1335,71.0,2,60,10.0,0.0
1336,88.0,0,300,0.0,0.0
1337,68.0,3,60,11.0,0.0
1338,52.0,45,60,12.0,0.0
1339,68.0,2,50,10.0,0.0
1340,62.0,2,50,11.0,0.0
1341,56.0,1,50,12.0,0.0
1342,85.0,3,180,0.0,0.0
1343,69.0,0,120,11.0,0.0
1344,64.0,2,120,4.0,0.0
1345,73.0,0,180,1.0,0.0
1346,85.0,2,180,1.0,0.0
1347,73.0,6,180,2.0,0.0
1348,69.0,55,120,5.0,0.0
1349,69.0,0,180,2.0,0.0
1350,45.0,111,240,13.0,0.0
1351,45.0,53,180,3.0,0.0
1352,73.0,2,0,10.0,0.0
1353,61.0,2,0,11.0,0.0
1354,69.0,0,240,11.0,0.0
1355,57.0,4,0,12.0,0.0
1356,61.0,123,0,11.0,0.0
1357,53.0,4,240,12.0,0.0
1358,45.0,111,0,13.0,0.0
1359,73.0,2,0,10.0,0.0
1360,61.0,0,0,11.0,0.0
1361,69.0,120,0,11.0,0.0
1362,62.0,0,600,10.0,0.0
1363,65.0,0,360,11.0,0.0
1364,50.0,1,600,12.0,0.0
1365,45.0,52,600,13.0,0.0
1366,65.0,6,60,2.0,0.0
1367,53.0,54,60,3.0,0.0
1368,69.0,6,60,2.0,0.0
1369,57.0,48,60,3.0,0.0
1370,74.0,1,60,0.0,0.0
1371,74.0,6,60,2.0,0.0
1372,62.0,49,60,3.0,0.0
1373,71.0,1,240,10.0,0.0
1374,77.0,5,60,0.0,0.0
1375,68.0,3,240,11.0,0.0
1376,77.0,55,60,2.0,0.0
1377,65.0,49,120,3.0,0.0
1378,80.0,5,60,0.0,0.0
1379,68.0,6,60,2.0,0.0
1380,83.0,5,60,0.0,0.0
1381,71.0,54,60,2.0,0.0
1382,86.0,1,60,0.0,0.0
1383,74.0,3,60,2.0,0.0
1384,89.0,0,60,0.0,0.0
1385,86.0,3,60,0.0,0.0
1386,80.0,2,60,1.0,0.0
1387,71.0,0,60,1.0,0.0
1388,77.0,6,60,2.0,0.0
1389,74.0,0,60,2.0,0.0
1390,62.0,109,60,3.0,0.0
1391,57.0,0,60,3.0,0.0
1392,85.0,0,60,0.0,0.0
1393,88.0,3,60,0.0,0.0
1394,81.0,2,60,1.0,0.0
1395,73.0,0,60,1.0,0.0
1396,73.0,0,60,2.0,0.0
1397,76.0,6,60,2.0,0.0
1398,45.0,111,240,13.0,0.0
1399,69.0,177,60,3.0,0.0
1400,57.0,0,60,3.0,0.0
1401,61.0,2,240,10.0,0.0
1402,57.0,3,240,11.0,0.0
1403,57.0,124,240,12.0,0.0
1404,57.0,115,240,12.0,0.0
1405,45.0,111,0,13.0,0.0
1406,41.0,0,240,13.0,0.0
1407,61.0,2,0,10.0,0.0
1408,57.0,3,0,11.0,0.0
1409,57.0,4,120,12.0,0.0
1410,61.0,1,720,10.0,0.0
1411,57.0,3,0,11.0,0.0
1412,53.0,4,960,12.0,0.0
1413,45.0,357,0,13.0,0.0
1414,38.0,3,960,13.0,0.0
1415,53.0,6,120,2.0,0.0
1416,41.0,114,120,3.0,0.0
1417,57.0,6,120,2.0,0.0
1418,45.0,114,120,3.0,0.0
1419,62.0,6,120,2.0,0.0
1420,50.0,108,120,3.0,0.0
1421,65.0,1,120,0.0,0.0
1422,65.0,6,120,2.0,0.0
1423,53.0,109,120,3.0,0.0
1424,59.0,1,240,10.0,0.0
1425,68.0,11,120,0.0,0.0
1426,56.0,3,240,11.0,0.0
1427,56.0,108,120,3.0,0.0
1428,71.0,1,120,0.0,0.0
1429,59.0,109,120,3.0,0.0
1430,74.0,11,120,0.0,0.0
1431,62.0,109,120,3.0,0.0
1432,77.0,11,120,0.0,0.0
1433,65.0,357,120,3.0,0.0
1434,52.0,3,120,13.0,0.0
1435,45.0,0,120,13.0,0.0
1436,33.0,114,120,14.0,0.0
1437,64.0,116,240,12.0,0.0
1438,57.0,0,240,12.0,0.0
1439,64.0,6,120,2.0,0.0
1440,61.0,104,120,3.0,0.0
1441,76.0,8,240,0.0,0.0
1442,66.0,6,110,2.0,0.0
1443,62.0,3,110,3.0,0.0
1444,68.0,6,240,2.0,0.0
1445,52.0,117,120,13.0,0.0
1446,45.0,0,120,13.0,0.0
1447,59.0,104,240,3.0,0.0
1448,64.0,116,240,12.0,0.0
1449,57.0,0,240,12.0,0.0
1450,76.0,8,240,0.0,0.0
1451,69.0,6,110,2.0,0.0
1452,61.0,3,110,3.0,0.0
1453,73.0,60,180,2.0,0.0
1454,45.0,0,120,13.0,0.0
1455,52.0,57,120,13.0,0.0
1456,62.0,7,470,3.0,0.0
1457,64.0,111,240,12.0,0.0
1458,57.0,0,240,12.0,0.0
1459,71.0,60,60,2.0,0.0
1460,76.0,1,240,0.0,0.0
1461,66.0,50,60,2.0,0.0
1462,68.0,9,50,2.0,0.0
1463,66.0,5,110,2.0,0.0
1464,52.0,0,120,13.0,0.0
1465,45.0,3,120,13.0,0.0
1466,33.0,114,120,14.0,0.0
1467,64.0,0,240,12.0,0.0
1468,57.0,116,240,12.0,0.0
1469,64.0,6,120,2.0,0.0
1470,61.0,104,120,3.0,0.0
1471,76.0,8,240,0.0,0.0
1472,66.0,6,110,2.0,0.0
1473,62.0,3,110,3.0,0.0
1474,68.0,6,240,2.0,0.0
1475,45.0,117,120,13.0,0.0
1476,52.0,0,120,13.0,0.0
1477,59.0,104,240,3.0,0.0
1478,64.0,0,240,12.0,0.0
1479,57.0,61,240,12.0,0.0
1480,76.0,5,240,0.0,0.0
1481,69.0,6,110,2.0,0.0
1482,61.0,3,110,3.0,0.0
1483,73.0,55,60,2.0,0.0
1484,45.0,0,120,13.0,0.0
1485,52.0,57,120,13.0,0.0
1486,62.0,54,240,3.0,0.0
1487,71.0,3,60,2.0,0.0
1488,57.0,0,240,12.0,0.0
1489,64.0,116,240,12.0,0.0
1490,66.0,60,60,2.0,0.0
1491,68.0,6,60,2.0,0.0
1492,76.0,8,240,0.0,0.0
1493,69.0,50,60,2.0,0.0
1494,61.0,3,110,3.0,0.0
1495,64.0,6,50,2.0,0.0
1496,66.0,6,240,2.0,0.0
1497,52.0,0,120,13.0,0.0
1498,45.0,3,120,13.0,0.0
1499,33.0,114,120,14.0,0.0
1500,62.0,104,240,3.0,0.0
1501,57.0,116,240,12.0,0.0
1502,64.0,0,240,12.0,0.0
1503,76.0,5,240,0.0,0.0
1504,64.0,6,110,2.0,0.0
1505,61.0,3,110,3.0,0.0
1506,66.0,3,120,2.0,0.0
1507,45.0,3,120,13.0,0.0
1508,52.0,0,120,13.0,0.0
1509,62.0,114,120,3.0,0.0
1510,57.0,0,240,12.0,0.0
1511,64.0,116,240,12.0,0.0
1512,68.0,6,120,2.0,0.0
1513,59.0,104,120,3.0,0.0
1514,76.0,8,240,0.0,0.0
1515,69.0,6,110,2.0,0.0
1516,61.0,3,110,3.0,0.0
1517,73.0,60,180,2.0,0.0
1518,52.0,57,120,13.0,0.0
1519,45.0,0,120,13.0,0.0
1520,62.0,3,350,3.0,0.0
1521,64.0,61,240,12.0,0.0
1522,57.0,0,240,12.0,0.0
1523,71.0,60,60,2.0,0.0
1524,76.0,5,240,0.0,0.0
1525,66.0,50,60,2.0,0.0
1526,68.0,6,50,2.0,0.0
1527,66.0,55,60,2.0,0.0
1528,52.0,0,120,13.0,0.0
1529,45.0,3,120,13.0,0.0
1530,60.0,0,120,3.0,0.0
1531,33.0,54,120,14.0,0.0
1532,64.0,3,60,2.0,0.0
1533,57.0,1,240,12.0,0.0
1534,64.0,0,240,12.0,0.0
1535,69.0,60,60,2.0,0.0
1536,61.0,54,120,3.0,0.0
1537,64.0,6,60,2.0,0.0
1538,76.0,1,240,0.0,0.0
1539,66.0,59,60,2.0,0.0
1540,60.0,54,120,3.0,0.0
1541,64.0,6,60,2.0,0.0
1542,69.0,50,60,2.0,0.0
1543,52.0,117,120,13.0,0.0
1544,45.0,0,120,13.0,0.0
1545,61.0,7,110,3.0,0.0
1546,64.0,5,50,2.0,0.0
1547,64.0,1,240,12.0,0.0
1548,57.0,0,240,12.0,0.0
1549,73.0,6,120,2.0,0.0
1550,64.0,110,120,3.0,0.0
1551,76.0,5,240,0.0,0.0
1552,72.0,115,120,2.0,0.0
1553,63.0,3,110,3.0,0.0
1554,71.0,3,120,2.0,0.0
1555,45.0,117,120,13.0,0.0
1556,52.0,0,120,13.0,0.0
1557,62.0,110,240,3.0,0.0
1558,64.0,0,240,12.0,0.0
1559,57.0,1,240,12.0,0.0
1560,66.0,6,120,2.0,0.0
1561,76.0,1,240,0.0,0.0
1562,68.0,110,120,2.0,0.0
1563,59.0,3,110,3.0,0.0
1564,69.0,5,110,2.0,0.0
1565,45.0,3,120,13.0,0.0
1566,52.0,0,120,13.0,0.0
1567,61.0,7,110,3.0,0.0
1568,33.0,112,120,14.0,0.0
1569,57.0,4,240,11.0,0.0
1570,64.0,0,240,11.0,0.0
1571,76.0,1,120,1.0,0.0
1572,64.0,1,120,12.0,0.0
1573,76.0,6,120,2.0,0.0
1574,64.0,102,120,3.0,0.0
1575,76.0,6,240,10.0,0.0
1576,78.0,1,110,1.0,0.0
1577,66.0,7,110,12.0,0.0
1578,75.0,6,120,2.0,0.0
1579,63.0,108,120,3.0,0.0
1580,80.0,1,240,1.0,0.0
1581,68.0,1,240,12.0,0.0
1582,71.0,3,120,2.0,0.0
1583,45.0,0,120,13.0,0.0
1584,52.0,3,120,13.0,0.0
1585,59.0,112,120,3.0,0.0
1586,64.0,0,240,11.0,0.0
1587,57.0,4,240,11.0,0.0
1588,76.0,6,120,2.0,0.0
1589,64.0,102,120,3.0,0.0
1590,76.0,6,240,10.0,0.0
1591,81.0,1,110,1.0,0.0
1592,69.0,7,110,12.0,0.0
1593,73.0,6,120,2.0,0.0
1594,61.0,108,120,3.0,0.0
1595,85.0,1,180,1.0,0.0
1596,73.0,59,180,12.0,0.0
1597,69.0,3,120,2.0,0.0
1598,52.0,0,120,13.0,0.0
1599,45.0,3,120,13.0,0.0
1600,57.0,52,120,3.0,0.0
1601,64.0,0,240,11.0,0.0
1602,57.0,4,240,11.0,0.0
1603,74.0,6,180,2.0,0.0
1604,62.0,42,180,3.0,0.0
1605,83.0,1,60,1.0,0.0
1606,71.0,59,60,12.0,0.0
1607,76.0,2,240,10.0,0.0
1608,78.0,1,60,1.0,0.0
1609,66.0,1,60,12.0,0.0
1610,80.0,1,50,1.0,0.0
1611,68.0,7,50,12.0,0.0
1612,71.0,6,60,2.0,0.0
1613,59.0,54,60,3.0,0.0
1614,78.0,1,110,1.0,0.0
1615,66.0,1,110,12.0,0.0
1616,68.0,6,60,2.0,0.0
1617,52.0,0,120,13.0,0.0
1618,45.0,3,120,13.0,0.0
1619,56.0,42,60,3.0,0.0
1620,33.0,112,120,14.0,0.0
1621,64.0,4,50,2.0,0.0
1622,52.0,7,50,3.0,0.0
1623,64.0,0,240,11.0,0.0
1624,57.0,4,240,11.0,0.0
1625,76.0,1,120,1.0,0.0
1626,64.0,1,120,12.0,0.0
1627,76.0,6,120,2.0,0.0
1628,64.0,102,120,3.0,0.0
1629,76.0,6,240,10.0,0.0
1630,78.0,1,110,1.0,0.0
1631,66.0,7,110,12.0,0.0
1632,75.0,6,120,2.0,0.0
1633,63.0,54,120,3.0,0.0
1634,80.0,1,240,1.0,0.0
1635,68.0,1,240,12.0,0.0
1636,74.0,6,60,2.0,0.0
1637,52.0,3,120,13.0,0.0
1638,45.0,0,120,13.0,0.0
1639,62.0,48,60,3.0,0.0
1640,71.0,3,60,2.0,0.0
1641,59.0,112,60,3.0,0.0
1642,57.0,4,240,11.0,0.0
1643,64.0,0,240,11.0,0.0
1644,76.0,6,120,2.0,0.0
1645,64.0,54,120,3.0,0.0
1646,76.0,4,240,10.0,0.0
1647,81.0,1,110,1.0,0.0
1648,69.0,7,110,12.0,0.0
1649,73.0,6,60,2.0,0.0
1650,61.0,42,60,3.0,0.0
1651,69.0,6,60,2.0,0.0
1652,57.0,52,60,3.0,0.0
1653,85.0,1,60,1.0,0.0
1654,73.0,55,60,12.0,0.0
1655,74.0,6,240,2.0,0.0
1656,45.0,0,120,13.0,0.0
1657,52.0,55,120,13.0,0.0
1658,62.0,52,240,3.0,0.0
1659,83.0,1,60,1.0,0.0
1660,71.0,4,60,12.0,0.0
1661,57.0,0,240,11.0,0.0
1662,64.0,0,240,11.0,0.0
1663,78.0,1,60,1.0,0.0
1664,66.0,59,60,12.0,0.0
1665,80.0,1,60,1.0,0.0
1666,68.0,1,60,12.0,0.0
1667,76.0,1,240,10.0,0.0
1668,81.0,1,60,1.0,0.0
1669,69.0,49,60,12.0,0.0
1670,73.0,6,110,2.0,0.0
1671,61.0,59,110,3.0,0.0
1672,76.0,1,50,1.0,0.0
1673,64.0,1,50,12.0,0.0
1674,88.0,5,60,0.0,0.0
1675,78.0,1,240,1.0,0.0
1676,66.0,1,240,12.0,0.0
1677,76.0,54,60,2.0,0.0
1678,52.0,3,120,13.0,0.0
1679,45.0,0,120,13.0,0.0
1680,62.0,49,240,3.0,0.0
1681,33.0,49,120,14.0,0.0
1682,86.0,5,60,0.0,0.0
1683,74.0,3,60,2.0,0.0
1684,81.0,5,60,0.0,0.0
1685,64.0,64,240,11.0,0.0
1686,57.0,0,240,11.0,0.0
1687,69.0,55,60,2.0,0.0
1688,83.0,3,60,0.0,0.0
1689,71.0,6,60,2.0,0.0
1690,76.0,1,240,10.0,0.0
1691,85.0,5,60,0.0,0.0
1692,76.0,1,110,1.0,0.0
1693,64.0,1,110,12.0,0.0
1694,73.0,45,60,2.0,0.0
1695,61.0,0,110,3.0,0.0
1696,76.0,3,50,0.0,0.0
1697,69.0,6,50,2.0,0.0
1698,78.0,4,120,0.0,0.0
1699,66.0,1,120,12.0,0.0
1700,76.0,54,60,2.0,0.0
1701,45.0,0,120,13.0,0.0
1702,52.0,3,120,13.0,0.0
1703,59.0,54,120,3.0,0.0
1704,75.0,3,60,2.0,0.0
1705,80.0,4,120,0.0,0.0
1706,64.0,0,240,11.0,0.0
1707,57.0,0,240,11.0,0.0
1708,68.0,1,120,12.0,0.0
1709,71.0,55,60,2.0,0.0
1710,64.0,54,120,3.0,0.0
1711,76.0,6,60,2.0,0.0
1712,76.0,6,240,10.0,0.0
1713,81.0,4,110,0.0,0.0
1714,69.0,1,110,12.0,0.0
1715,73.0,45,60,2.0,0.0
1716,61.0,118,110,3.0,0.0
1717,69.0,6,50,2.0,0.0
1718,85.0,4,180,0.0,0.0
1719,73.0,56,180,12.0,0.0
1720,66.0,3,120,2.0,0.0
1721,45.0,0,120,13.0,0.0
1722,52.0,3,120,13.0,0.0
1723,54.0,49,120,3.0,0.0
1724,57.0,0,240,11.0,0.0
1725,64.0,59,240,11.0,0.0
1726,74.0,45,180,2.0,0.0
1727,62.0,0,230,3.0,0.0
1728,83.0,4,60,0.0,0.0
1729,71.0,56,60,12.0,0.0
1730,76.0,1,240,10.0,0.0
1731,78.0,4,60,0.0,0.0
1732,66.0,1,60,12.0,0.0
1733,80.0,4,50,0.0,0.0
1734,68.0,1,50,12.0,0.0
1735,73.0,6,50,2.0,0.0
1736,78.0,4,60,0.0,0.0
1737,66.0,55,60,12.0,0.0
1738,72.0,3,120,2.0,0.0
1739,52.0,3,120,13.0,0.0
1740,45.0,0,120,13.0,0.0
1741,63.0,49,120,3.0,0.0
1742,33.0,0,120,14.0,0.0
1743,76.0,4,60,0.0,0.0
1744,64.0,1,60,12.0,0.0
1745,81.0,4,60,0.0,0.0
1746,64.0,0,240,11.0,0.0
1747,57.0,3,240,11.0,0.0
1748,69.0,56,60,12.0,0.0
1749,73.0,6,120,2.0,0.0
1750,64.0,49,120,3.0,0.0
1751,76.0,4,60,0.0,0.0
1752,64.0,1,60,12.0,0.0
1753,76.0,9,240,10.0,0.0
1754,78.0,4,60,0.0,0.0
1755,66.0,56,60,12.0,0.0
1756,72.0,6,120,2.0,0.0
1757,63.0,49,120,3.0,0.0
1758,76.0,1,60,0.0,0.0
1759,64.0,1,60,12.0,0.0
1760,81.0,4,60,0.0,0.0
1761,69.0,46,60,12.0,0.0
1762,73.0,4,110,2.0,0.0
1763,52.0,0,120,13.0,0.0
1764,45.0,112,120,13.0,0.0
1765,64.0,109,240,3.0,0.0
1766,76.0,4,50,0.0,0.0
1767,64.0,1,50,12.0,0.0
1768,85.0,4,120,0.0,0.0
1769,64.0,3,240,11.0,0.0
1770,57.0,0,240,11.0,0.0
1771,73.0,1,120,12.0,0.0
1772,76.0,6,120,2.0,0.0
1773,76.0,9,240,10.0,0.0
1774,84.0,1,120,0.0,0.0
1775,72.0,1,120,12.0,0.0
1776,78.0,25,120,2.0,0.0
1777,63.0,0,110,3.0,0.0
1778,85.0,4,30,0.0,0.0
1779,73.0,26,30,12.0,0.0
1780,66.0,6,60,2.0,0.0
1781,45.0,52,120,13.0,0.0
1782,52.0,0,120,13.0,0.0
1783,62.0,48,60,3.0,0.0
1784,83.0,4,30,0.0,0.0
1785,71.0,1,30,12.0,0.0
1786,78.0,4,60,0.0,0.0
1787,64.0,0,240,11.0,0.0
1788,57.0,59,240,11.0,0.0
1789,66.0,1,60,12.0,0.0
1790,74.0,6,60,2.0,0.0
1791,59.0,109,60,3.0,0.0
1792,76.0,15,230,10.0,0.0
1793,80.0,4,60,0.0,0.0
1794,68.0,1,60,12.0,0.0
1795,74.0,6,60,2.0,0.0
1796,62.0,50,60,3.0,0.0
1797,81.0,5,60,0.0,0.0
1798,69.0,4,120,12.0,0.0
1799,73.0,6,60,2.0,0.0
1800,45.0,52,120,13.0,0.0
1801,52.0,0,120,13.0,0.0
1802,61.0,38,60,3.0,0.0
1803,73.0,2,120,10.0,0.0
1804,77.0,0,60,0.0,0.0
1805,73.0,3,60,0.0,0.0
1806,61.0,7,120,11.0,0.0
1807,85.0,8,60,1.0,0.0
1808,77.0,0,60,1.0,0.0
1809,44.0,0,120,13.0,0.0
1810,37.0,3,120,13.0,0.0
1811,37.0,49,120,14.0,0.0
1812,61.0,0,60,3.0,0.0
1813,65.0,48,60,3.0,0.0
1814,75.0,3,60,0.0,0.0
1815,78.0,0,60,0.0,0.0
1816,75.0,0,60,1.0,0.0
1817,84.0,8,60,1.0,0.0
1818,56.0,0,120,13.0,0.0
1819,49.0,111,120,13.0,0.0
1820,66.0,57,60,3.0,0.0
1821,63.0,0,60,3.0,0.0
1822,68.0,2,120,10.0,0.0
1823,73.0,0,830,0.0,0.0
1824,77.0,9,830,0.0,0.0
1825,61.0,7,120,11.0,0.0
1826,77.0,5,240,1.0,0.0
1827,85.0,60,180,1.0,0.0
1828,37.0,0,120,13.0,0.0
1829,44.0,3,120,13.0,0.0
1830,37.0,52,120,14.0,0.0
1831,65.0,2,830,3.0,0.0
1832,61.0,0,830,3.0,0.0
1833,49.0,55,120,13.0,0.0
1834,56.0,0,120,13.0,0.0
1835,80.0,0,60,1.0,0.0
1836,68.0,2,120,10.0,0.0
1837,61.0,2,120,11.0,0.0
1838,77.0,56,60,1.0,0.0
1839,78.0,60,60,1.0,0.0
1840,80.0,60,60,1.0,0.0
1841,49.0,0,120,13.0,0.0
1842,56.0,55,120,13.0,0.0
1843,77.0,5,60,1.0,0.0
1844,68.0,2,120,10.0,0.0
1845,61.0,2,120,11.0,0.0
1846,73.0,56,60,1.0,0.0
1847,75.0,60,60,1.0,0.0
1848,77.0,60,60,1.0,0.0
1849,49.0,0,120,13.0,0.0
1850,56.0,55,120,13.0,0.0
1851,73.0,5,60,1.0,0.0
1852,68.0,2,120,10.0,0.0
1853,61.0,0,120,11.0,0.0
1854,68.0,47,60,1.0,0.0
1855,70.0,57,60,1.0,0.0
1856,71.0,2,120,10.0,0.0
1857,71.0,5,60,0.0,0.0
1858,78.0,0,60,0.0,0.0
1859,59.0,7,120,11.0,0.0
1860,71.0,6,60,2.0,0.0
1861,83.0,0,60,2.0,0.0
1862,42.0,0,120,13.0,0.0
1863,39.0,3,120,13.0,0.0
1864,66.0,48,60,3.0,0.0
1865,63.0,0,60,3.0,0.0
1866,39.0,49,120,14.0,0.0
1867,73.0,0,60,0.0,0.0
1868,78.0,5,60,0.0,0.0
1869,82.0,6,60,2.0,0.0
1870,73.0,0,60,2.0,0.0
1871,51.0,0,120,13.0,0.0
1872,54.0,111,120,13.0,0.0
1873,61.0,0,60,3.0,0.0
1874,66.0,57,60,3.0,0.0
1875,66.0,2,120,10.0,0.0
1876,71.0,0,830,0.0,0.0
1877,78.0,9,830,0.0,0.0
1878,59.0,7,120,11.0,0.0
1879,83.0,60,180,2.0,0.0
1880,71.0,3,240,2.0,0.0
1881,39.0,3,120,13.0,0.0
1882,42.0,0,120,13.0,0.0
1883,63.0,0,830,3.0,0.0
1884,66.0,0,830,3.0,0.0
1885,39.0,54,120,14.0,0.0
1886,51.0,0,120,13.0,0.0
1887,54.0,57,120,13.0,0.0
1888,78.0,0,60,2.0,0.0
1889,66.0,2,120,10.0,0.0
1890,59.0,4,120,11.0,0.0
1891,75.0,54,60,2.0,0.0
1892,76.0,60,60,2.0,0.0
1893,78.0,60,60,2.0,0.0
1894,51.0,57,120,13.0,0.0
1895,54.0,0,120,13.0,0.0
1896,75.0,3,60,2.0,0.0
1897,66.0,2,120,10.0,0.0
1898,59.0,4,120,11.0,0.0
1899,71.0,54,60,2.0,0.0
1900,73.0,60,60,2.0,0.0
1901,75.0,60,60,2.0,0.0
1902,54.0,57,120,13.0,0.0
1903,51.0,0,120,13.0,0.0
1904,71.0,3,60,2.0,0.0
1905,66.0,2,120,10.0,0.0
1906,59.0,3,120,11.0,0.0
1907,51.0,1,120,12.0,0.0
1908,66.0,45,60,2.0,0.0
1909,68.0,55,60,2.0,0.0
1910,69.0,2,120,10.0,0.0
1911,69.0,0,60,0.0,0.0
1912,73.0,3,60,0.0,0.0
1913,61.0,3,120,11.0,0.0
1914,81.0,0,60,1.0,0.0
1915,69.0,56,60,1.0,0.0
1916,52.0,4,120,12.0,0.0
1917,45.0,0,120,13.0,0.0
1918,40.0,3,120,13.0,0.0
1919,40.0,49,120,14.0,0.0
1920,62.0,2,120,10.0,0.0
1921,74.0,0,60,0.0,0.0
1922,71.0,3,60,0.0,0.0
1923,59.0,3,120,11.0,0.0
1924,62.0,56,60,1.0,0.0
1925,80.0,0,60,1.0,0.0
1926,53.0,4,120,12.0,0.0
1927,53.0,0,120,13.0,0.0
1928,57.0,57,120,13.0,0.0
1929,61.0,2,120,10.0,0.0
1930,61.0,3,120,11.0,0.0
1931,52.0,4,120,12.0,0.0
1932,69.0,0,60,2.0,0.0
1933,61.0,6,60,2.0,0.0
1934,40.0,0,120,13.0,0.0
1935,45.0,3,120,13.0,0.0
1936,61.0,0,60,3.0,0.0
1937,57.0,48,60,3.0,0.0
1938,40.0,54,120,14.0,0.0
1939,62.0,2,120,10.0,0.0
1940,59.0,3,120,11.0,0.0
1941,53.0,4,120,12.0,0.0
1942,62.0,6,60,2.0,0.0
1943,68.0,0,60,2.0,0.0
1944,53.0,52,120,13.0,0.0
1945,57.0,0,120,13.0,0.0
1946,59.0,0,60,3.0,0.0
1947,53.0,48,60,3.0,0.0
1948,69.0,2,120,10.0,0.0
1949,69.0,0,60,0.0,0.0
1950,73.0,3,60,0.0,0.0
1951,61.0,3,120,11.0,0.0
1952,69.0,56,60,1.0,0.0
1953,81.0,0,60,1.0,0.0
1954,52.0,4,120,12.0,0.0
1955,45.0,52,120,13.0,0.0
1956,40.0,0,120,13.0,0.0
1957,62.0,2,120,10.0,0.0
1958,71.0,0,60,0.0,0.0
1959,74.0,3,60,0.0,0.0
1960,59.0,3,120,11.0,0.0
1961,62.0,56,60,1.0,0.0
1962,80.0,0,60,1.0,0.0
1963,53.0,4,120,12.0,0.0
1964,57.0,52,120,13.0,0.0
1965,53.0,0,120,13.0,0.0
1966,61.0,2,120,10.0,0.0
1967,93.0,5,60,0.0,0.0
1968,69.0,0,60,0.0,0.0
1969,57.0,3,120,11.0,0.0
1970,52.0,4,120,12.0,0.0
1971,81.0,0,60,2.0,0.0
1972,73.0,6,60,2.0,0.0
1973,40.0,52,120,13.0,0.0
1974,45.0,0,120,13.0,0.0
1975,52.0,0,60,3.0,0.0
1976,61.0,48,60,3.0,0.0
1977,81.0,0,60,0.0,0.0
1978,87.0,5,60,0.0,0.0
1979,54.0,4,120,12.0,0.0
1980,69.0,0,60,2.0,0.0
1981,72.0,6,60,2.0,0.0
1982,54.0,231,120,13.0,0.0
1983,57.0,0,120,13.0,0.0
1984,66.0,53,60,3.0,0.0
1985,54.0,0,60,3.0,0.0
1986,76.0,2,120,10.0,0.0
1987,56.0,7,120,11.0,0.0
1988,40.0,101,120,13.0,0.0
1989,75.0,2,110,10.0,0.0
1990,57.0,7,110,11.0,0.0
1991,42.0,241,110,13.0,0.0
1992,74.0,2,240,10.0,0.0
1993,59.0,3,240,11.0,0.0
1994,44.0,101,240,13.0,0.0
1995,65.0,4,120,12.0,0.0
1996,73.0,2,110,10.0,0.0
1997,61.0,3,110,11.0,0.0
1998,64.0,4,110,12.0,0.0
1999,45.0,123,110,13.0,0.0
2000,70.0,52,180,10.0,0.0
2001,61.0,3,120,11.0,0.0
2002,67.0,55,120,12.0,0.0
2003,38.0,101,360,13.0,0.0
2004,62.0,3,110,11.0,0.0
2005,66.0,5,110,12.0,0.0
2006,71.0,60,60,10.0,0.0
2007,78.0,50,60,10.0,0.0
2008,68.0,3,230,11.0,0.0
2009,59.0,4,230,12.0,0.0
2010,80.0,19,50,10.0,0.0
2011,78.0,2,110,10.0,0.0
2012,50.0,121,110,13.0,0.0
2013,76.0,2,120,10.0,0.0
2014,69.0,3,120,11.0,0.0
2015,52.0,4,120,12.0,0.0
2016,49.0,101,120,13.0,0.0
2017,75.0,2,110,10.0,0.0
2018,57.0,3,110,11.0,0.0
2019,54.0,4,110,12.0,0.0
2020,48.0,126,110,13.0,0.0
2021,74.0,2,240,10.0,0.0
2022,65.0,3,240,11.0,0.0
2023,56.0,4,120,12.0,0.0
2024,47.0,111,120,13.0,0.0
2025,59.0,4,120,12.0,0.0
2026,44.0,101,120,13.0,0.0
2027,73.0,2,110,10.0,0.0
2028,64.0,3,110,11.0,0.0
2029,52.0,4,110,12.0,0.0
2030,45.0,123,110,13.0,0.0
2031,70.0,60,180,10.0,0.0
2032,67.0,3,120,11.0,0.0
2033,61.0,55,120,12.0,0.0
2034,38.0,361,350,13.0,0.0
2035,66.0,3,120,11.0,0.0
2036,62.0,55,120,12.0,0.0
2037,71.0,2,60,10.0,0.0
2038,66.0,52,60,10.0,0.0
2039,62.0,2,110,11.0,0.0
2040,59.0,4,110,12.0,0.0
2041,68.0,1,54,10.0,0.0
2042,69.0,2,360,10.0,0.0
2043,64.0,7,360,11.0,0.0
2044,69.0,1,1200,1.0,0.0
2045,57.0,4,720,12.0,0.0
2046,57.0,3,1200,5.0,0.0
2047,37.0,3,360,13.0,0.0
2048,64.0,348,360,3.0,0.0
2049,49.0,0,360,3.0,0.0
2050,65.0,4,360,10.0,0.0
2051,57.0,2,840,11.0,0.0
2052,72.0,1,360,1.0,0.0
2053,36.0,3,360,13.0,0.0
2054,48.0,0,360,3.0,0.0
2055,65.0,120,360,3.0,0.0
2056,63.0,2,480,10.0,0.0
2057,81.0,116,360,1.0,0.0
2058,54.0,1,480,12.0,0.0
2059,47.0,3,480,13.0,0.0
2060,66.0,169,480,3.0,0.0
2061,35.0,232,120,14.0,0.0
2062,47.0,0,480,3.0,0.0
2063,75.0,0,120,1.0,0.0
2064,93.0,60,60,0.0,0.0
2065,57.0,3,120,11.0,0.0
2066,52.0,5,120,12.0,0.0
2067,57.0,3,350,5.0,0.0
2068,37.0,3,120,13.0,0.0
2069,49.0,49,120,3.0,0.0
2070,88.0,0,60,0.0,0.0
2071,57.0,0,1,10.0,0.0
2072,85.0,59,60,0.0,0.0
2073,57.0,3,120,11.0,0.0
2074,49.0,3,120,12.0,0.0
2075,40.0,3,120,13.0,0.0
2076,52.0,49,120,3.0,0.0
2077,81.0,2,60,0.0,0.0
2078,76.0,55,60,0.0,0.0
2079,45.0,2,110,13.0,0.0
2080,57.0,64,110,3.0,0.0
2081,73.0,1,60,0.0,0.0
2082,60.0,2,120,10.0,0.0
2083,69.0,0,120,0.0,0.0
2084,53.0,2,120,12.0,0.0
2085,60.0,3,350,5.0,0.0
2086,81.0,55,60,2.0,0.0
2087,36.0,3,120,13.0,0.0
2088,48.0,54,120,3.0,0.0
2089,77.0,3,60,2.0,0.0
2090,57.0,1,1,11.0,0.0
2091,60.0,0,120,10.0,0.0
2092,72.0,56,60,2.0,0.0
2093,48.0,0,120,12.0,0.0
2094,41.0,3,120,13.0,0.0
2095,53.0,54,120,3.0,0.0
2096,69.0,3,60,2.0,0.0
2097,65.0,50,60,2.0,0.0
2098,45.0,3,110,13.0,0.0
2099,57.0,4,110,3.0,0.0
2100,60.0,66,60,2.0,0.0
2101,54.0,0,120,12.0,0.0
2102,75.0,2,120,1.0,0.0
2103,57.0,6,120,2.0,0.0
2104,69.0,3,480,5.0,0.0
2105,47.0,57,480,13.0,0.0
2106,47.0,0,360,3.0,0.0
2107,69.0,47,60,3.0,0.0
2108,66.0,2,60,3.0,0.0
2109,69.0,5,0,10.0,0.0
2110,63.0,0,2,11.0,0.0
2111,78.0,3,120,1.0,0.0
2112,54.0,4,120,12.0,0.0
2113,35.0,58,3,14.0,0.0
2114,63.0,47,60,3.0,0.0
2115,59.0,60,60,3.0,0.0
2116,83.0,2,360,1.0,0.0
2117,57.0,60,60,3.0,0.0
2118,54.0,54,60,3.0,0.0
2119,66.0,0,120,10.0,0.0
2120,63.0,1,120,11.0,0.0
2121,57.0,1,120,12.0,0.0
2122,69.0,56,60,2.0,0.0
2123,51.0,2,110,3.0,0.0
2124,66.0,0,60,2.0,0.0
2125,68.0,4,120,10.0,0.0
2126,62.0,1,120,11.0,0.0
2127,68.0,53,60,2.0,0.0
2128,68.0,0,120,5.0,0.0
2129,59.0,2,120,12.0,0.0
2130,40.0,2,120,13.0,0.0
2131,40.0,1,120,14.0,0.0
2132,52.0,54,120,3.0,0.0
2133,62.0,1,60,2.0,0.0
2134,76.0,12,110,1.0,0.0
2135,59.0,48,60,2.0,0.0
2136,56.0,66,60,2.0,0.0
2137,69.0,2,120,10.0,0.0
2138,64.0,0,120,11.0,0.0
2139,73.0,1,120,0.0,0.0
2140,61.0,2,120,11.0,0.0
2141,85.0,0,350,1.0,0.0
2142,73.0,1,120,1.0,0.0
2143,52.0,1,120,12.0,0.0
2144,57.0,2,120,2.0,0.0
2145,45.0,4,120,13.0,0.0
2146,69.0,47,60,3.0,0.0
2147,64.0,60,60,3.0,0.0
2148,69.0,2,120,10.0,0.0
2149,64.0,0,120,11.0,0.0
2150,76.0,2,120,0.0,0.0
2151,61.0,1,120,11.0,0.0
2152,76.0,1,120,1.0,0.0
2153,57.0,3,120,12.0,0.0
2154,45.0,4,120,13.0,0.0
2155,61.0,47,60,3.0,0.0
2156,33.0,58,120,14.0,0.0
2157,57.0,2,60,3.0,0.0
2158,81.0,3,110,0.0,0.0
2159,81.0,18,110,1.0,0.0
2160,52.0,39,60,3.0,0.0
2161,49.0,60,60,3.0,0.0
2162,72.0,1,120,0.0,0.0
2163,60.0,0,120,11.0,0.0
2164,65.0,1,120,11.0,0.0
2165,84.0,18,350,1.0,0.0
2166,72.0,8,120,1.0,0.0
2167,45.0,0,110,3.0,0.0
2168,69.0,49,60,3.0,0.0
2169,65.0,60,60,3.0,0.0
2170,72.0,1,1,10.0,0.0
2171,60.0,3,120,11.0,0.0
2172,77.0,0,120,0.0,0.0
2173,65.0,0,120,11.0,0.0
2174,77.0,7,120,1.0,0.0
2175,45.0,0,120,14.0,0.0
2176,57.0,1,120,13.0,0.0
2177,60.0,49,60,3.0,0.0
2178,57.0,60,60,3.0,0.0
2179,81.0,3,110,0.0,0.0
2180,81.0,0,110,1.0,0.0
2181,54.0,39,60,3.0,0.0
2182,48.0,54,60,3.0,0.0
2183,81.0,2,120,10.0,0.0
2184,81.0,0,350,0.0,0.0
2185,71.0,3,350,0.0,0.0
2186,83.0,0,350,1.0,0.0
2187,81.0,0,350,1.0,0.0
2188,66.0,1,120,11.0,0.0
2189,51.0,1,120,12.0,0.0
2190,81.0,53,60,2.0,0.0
2191,39.0,57,120,13.0,0.0
2192,47.0,2,110,3.0,0.0
2193,78.0,3,60,2.0,0.0
2194,59.0,1,0,11.0,0.0
2195,81.0,1,120,10.0,0.0
2196,75.0,3,120,11.0,0.0
2197,54.0,1,120,12.0,0.0
2198,75.0,55,60,2.0,0.0
2199,42.0,57,120,13.0,0.0
2200,71.0,3,60,2.0,0.0
2201,59.0,1,105,12.0,0.0
2202,69.0,44,60,2.0,0.0
2203,47.0,12,105,13.0,0.0
2204,66.0,60,60,2.0,0.0
2205,80.0,3,120,10.0,0.0
2206,71.0,3,350,0.0,0.0
2207,74.0,0,350,0.0,0.0
2208,71.0,2,120,11.0,0.0
2209,71.0,8,350,1.0,0.0
2210,74.0,5,110,1.0,0.0
2211,62.0,2,120,11.0,0.0
2212,52.0,1,345,12.0,0.0
2213,71.0,48,60,2.0,0.0
2214,40.0,0,345,13.0,0.0
2215,62.0,54,120,3.0,0.0
2216,68.0,0,60,2.0,0.0
2217,80.0,4,120,10.0,0.0
2218,64.0,1,120,11.0,0.0
2219,74.0,0,120,11.0,0.0
2220,80.0,2,120,1.0,0.0
2221,62.0,53,60,2.0,0.0
2222,56.0,54,120,3.0,0.0
2223,59.0,6,60,2.0,0.0
2224,83.0,2,120,1.0,0.0
2225,56.0,44,60,2.0,0.0
2226,59.0,2,110,3.0,0.0
2227,52.0,60,60,2.0,0.0
2228,79.0,2,120,10.0,0.0
2229,79.0,3,350,0.0,0.0
2230,69.0,0,350,0.0,0.0
2231,67.0,1,120,11.0,0.0
2232,76.0,2,120,11.0,0.0
2233,81.0,0,350,1.0,0.0
2234,79.0,0,350,1.0,0.0
2235,49.0,1,120,12.0,0.0
2236,79.0,54,60,2.0,0.0
2237,57.0,3,120,2.0,0.0
2238,37.0,57,120,13.0,0.0
2239,57.0,4,350,3.0,0.0
2240,76.0,0,60,2.0,0.0
2241,79.0,2,120,10.0,0.0
2242,73.0,1,120,11.0,0.0
2243,69.0,2,120,11.0,0.0
2244,52.0,1,120,12.0,0.0
2245,73.0,54,60,2.0,0.0
2246,40.0,57,120,13.0,0.0
2247,69.0,3,60,2.0,0.0
2248,57.0,1,105,12.0,0.0
2249,67.0,44,60,2.0,0.0
2250,45.0,8,105,13.0,0.0
2251,64.0,60,60,2.0,0.0
2252,72.0,0,350,0.0,0.0
2253,74.0,3,350,0.0,0.0
2254,60.0,0,120,11.0,0.0
2255,69.0,3,120,11.0,0.0
2256,69.0,0,350,1.0,0.0
2257,50.0,1,345,12.0,0.0
2258,69.0,56,60,2.0,0.0
2259,38.0,8,345,13.0,0.0
2260,60.0,54,120,3.0,0.0
2261,66.0,0,60,2.0,0.0
2262,78.0,1,1,10.0,0.0
2263,72.0,0,120,11.0,0.0
2264,62.0,1,120,11.0,0.0
2265,78.0,2,120,1.0,0.0
2266,60.0,55,60,2.0,0.0
2267,54.0,54,120,3.0,0.0
2268,57.0,6,60,2.0,0.0
2269,81.0,0,110,1.0,0.0
2270,54.0,44,60,2.0,0.0
2271,57.0,4,110,3.0,0.0
2272,50.0,55,60,2.0,0.0
2273,65.0,0,120,11.0,0.0
2274,89.0,5,60,0.0,0.0
2275,74.0,3,120,11.0,0.0
2276,79.0,0,350,1.0,0.0
2277,77.0,2,240,1.0,0.0
2278,65.0,5,230,4.0,0.0
2279,67.0,2,350,4.0,0.0
2280,67.0,1,345,12.0,0.0
2281,55.0,0,120,2.0,0.0
2282,77.0,55,60,2.0,0.0
2283,47.0,3,120,13.0,0.0
2284,55.0,2,350,3.0,0.0
2285,35.0,49,120,14.0,0.0
2286,86.0,1,60,0.0,0.0
2287,74.0,3,60,2.0,0.0
2288,77.0,1,3,10.0,0.0
2289,67.0,3,120,11.0,0.0
2290,83.0,5,60,0.0,0.0
2291,71.0,0,120,11.0,0.0
2292,71.0,48,60,2.0,0.0
2293,50.0,3,120,13.0,0.0
2294,38.0,49,120,14.0,0.0
2295,77.0,0,60,0.0,0.0
2296,65.0,3,60,2.0,0.0
2297,74.0,5,60,0.0,0.0
2298,62.0,0,110,4.0,0.0
2299,74.0,57,120,1.0,0.0
2300,62.0,44,60,2.0,0.0
2301,55.0,0,105,13.0,0.0
2302,43.0,5,105,14.0,0.0
2303,71.0,3,50,0.0,0.0
2304,59.0,1,50,2.0,0.0
2305,89.0,5,60,0.0,0.0
2306,65.0,5,230,4.0,0.0
2307,67.0,0,350,4.0,0.0
2308,65.0,0,120,11.0,0.0
2309,77.0,2,240,1.0,0.0
2310,79.0,2,350,1.0,0.0
2311,74.0,2,120,11.0,0.0
2312,67.0,1,345,12.0,0.0
2313,77.0,54,60,2.0,0.0
2314,47.0,3,120,13.0,0.0
2315,55.0,2,350,3.0,0.0
2316,35.0,49,120,14.0,0.0
2317,86.0,3,60,0.0,0.0
2318,74.0,3,60,2.0,0.0
2319,77.0,1,1,10.0,0.0
2320,83.0,5,60,0.0,0.0
2321,71.0,1,120,11.0,0.0
2322,67.0,0,120,11.0,0.0
2323,71.0,48,60,2.0,0.0
2324,50.0,3,120,13.0,0.0
2325,38.0,49,120,14.0,0.0
2326,77.0,2,60,0.0,0.0
2327,65.0,3,60,2.0,0.0
2328,74.0,5,60,0.0,0.0
2329,62.0,0,110,4.0,0.0
2330,62.0,44,60,2.0,0.0
2331,55.0,0,105,13.0,0.0
2332,43.0,5,105,14.0,0.0
2333,71.0,3,50,0.0,0.0
2334,59.0,1,50,2.0,0.0
2335,80.0,2,225,10.0,0.0
2336,89.0,5,60,0.0,0.0
2337,74.0,0,225,11.0,0.0
2338,65.0,3,225,11.0,0.0
2339,62.0,3,230,4.0,0.0
2340,74.0,57,0,1.0,0.0
2341,65.0,0,230,4.0,0.0
2342,77.0,0,230,1.0,0.0
2343,68.0,4,225,12.0,0.0
2344,77.0,6,60,2.0,0.0
2345,47.0,3,120,13.0,0.0
2346,65.0,49,60,3.0,0.0
2347,35.0,49,120,14.0,0.0
2348,86.0,5,60,0.0,0.0
2349,74.0,3,60,2.0,0.0
2350,62.0,0,60,3.0,0.0
2351,83.0,5,60,0.0,0.0
2352,71.0,6,60,2.0,0.0
2353,50.0,0,105,13.0,0.0
2354,59.0,33,60,3.0,0.0
2355,38.0,4,105,14.0,0.0
2356,77.0,5,60,0.0,0.0
2357,65.0,6,60,2.0,0.0
2358,53.0,39,60,3.0,0.0
2359,81.0,2,225,10.0,0.0
2360,89.0,1,60,0.0,0.0
2361,74.0,5,50,0.0,0.0
2362,65.0,0,225,11.0,0.0
2363,74.0,3,225,11.0,0.0
2364,77.0,0,230,1.0,0.0
2365,74.0,0,230,1.0,0.0
2366,65.0,0,230,4.0,0.0
2367,62.0,0,230,4.0,0.0
2368,69.0,4,225,12.0,0.0
2369,62.0,5,50,2.0,0.0
2370,77.0,6,60,2.0,0.0
2371,45.0,3,120,13.0,0.0
2372,65.0,49,60,3.0,0.0
2373,50.0,4,50,3.0,0.0
2374,33.0,49,120,14.0,0.0
2375,86.0,5,60,0.0,0.0
2376,74.0,3,60,2.0,0.0
2377,62.0,0,60,3.0,0.0
2378,81.0,5,60,0.0,0.0
2379,69.0,6,60,2.0,0.0
2380,50.0,3,105,13.0,0.0
2381,57.0,33,60,3.0,0.0
2382,38.0,4,105,14.0,0.0
2383,77.0,5,60,0.0,0.0
2384,65.0,6,60,2.0,0.0
2385,53.0,39,60,3.0,0.0
2386,83.0,2,225,10.0,0.0
2387,89.0,1,60,0.0,0.0
2388,74.0,5,50,0.0,0.0
2389,65.0,0,225,11.0,0.0
2390,74.0,3,225,11.0,0.0
2391,77.0,0,230,1.0,0.0
2392,74.0,0,230,1.0,0.0
2393,62.0,0,230,4.0,0.0
2394,65.0,3,230,4.0,0.0
2395,71.0,4,225,12.0,0.0
2396,77.0,6,60,2.0,0.0
2397,62.0,5,50,2.0,0.0
2398,44.0,3,120,13.0,0.0
2399,32.0,49,120,14.0,0.0
2400,50.0,4,50,3.0,0.0
2401,65.0,49,60,3.0,0.0
2402,86.0,5,60,0.0,0.0
2403,74.0,3,60,2.0,0.0
2404,62.0,0,60,3.0,0.0
2405,80.0,5,60,0.0,0.0
2406,68.0,6,60,2.0,0.0
2407,50.0,0,105,13.0,0.0
2408,56.0,33,60,3.0,0.0
2409,38.0,4,105,14.0,0.0
2410,77.0,5,60,0.0,0.0
2411,65.0,6,60,2.0,0.0
2412,53.0,39,60,3.0,0.0
2413,80.0,2,225,10.0,0.0
2414,74.0,5,50,0.0,0.0
2415,89.0,1,60,0.0,0.0
2416,65.0,3,225,11.0,0.0
2417,74.0,0,225,11.0,0.0
2418,62.0,0,230,4.0,0.0
2419,77.0,0,230,1.0,0.0
2420,74.0,0,230,1.0,0.0
2421,65.0,0,230,4.0,0.0
2422,68.0,4,225,12.0,0.0
2423,77.0,6,60,2.0,0.0
2424,62.0,5,50,2.0,0.0
2425,47.0,3,120,13.0,0.0
2426,50.0,4,50,3.0,0.0
2427,65.0,49,60,3.0,0.0
2428,35.0,0,120,14.0,0.0
2429,86.0,5,60,0.0,0.0
2430,74.0,3,60,2.0,0.0
2431,62.0,49,60,3.0,0.0
2432,83.0,5,60,0.0,0.0
2433,68.0,6,60,2.0,0.0
2434,50.0,3,105,13.0,0.0
2435,59.0,33,60,3.0,0.0
2436,38.0,4,105,14.0,0.0
2437,77.0,5,60,0.0,0.0
2438,65.0,6,60,2.0,0.0
2439,53.0,39,60,3.0,0.0
2440,80.0,2,225,10.0,0.0
2441,74.0,5,50,0.0,0.0
2442,89.0,1,60,0.0,0.0
2443,74.0,0,225,11.0,0.0
2444,65.0,3,225,11.0,0.0
2445,74.0,3,230,1.0,0.0
2446,77.0,0,230,1.0,0.0
2447,65.0,0,230,4.0,0.0
2448,62.0,0,230,4.0,0.0
2449,68.0,4,225,12.0,0.0
2450,62.0,5,50,2.0,0.0
2451,77.0,6,60,2.0,0.0
2452,46.0,3,120,13.0,0.0
2453,50.0,4,50,3.0,0.0
2454,65.0,49,60,3.0,0.0
2455,34.0,0,120,14.0,0.0
2456,86.0,5,60,0.0,0.0
2457,74.0,3,60,2.0,0.0
2458,62.0,49,60,3.0,0.0
2459,80.0,5,60,0.0,0.0
2460,68.0,6,60,2.0,0.0
2461,50.0,0,105,13.0,0.0
2462,38.0,4,105,14.0,0.0
2463,58.0,33,60,3.0,0.0
2464,77.0,5,60,0.0,0.0
2465,65.0,6,60,2.0,0.0
2466,53.0,49,60,3.0,0.0
2467,81.0,2,225,10.0,0.0
2468,74.0,5,60,0.0,0.0
2469,89.0,0,60,0.0,0.0
2470,74.0,3,225,11.0,0.0
2471,65.0,0,225,11.0,0.0
2472,62.0,0,230,4.0,0.0
2473,65.0,0,230,4.0,0.0
2474,74.0,3,230,1.0,0.0
2475,77.0,0,230,1.0,0.0
2476,69.0,4,225,12.0,0.0
2477,77.0,0,60,2.0,0.0
2478,62.0,6,60,2.0,0.0
2479,45.0,3,120,13.0,0.0
2480,65.0,49,60,3.0,0.0
2481,50.0,0,60,3.0,0.0
2482,33.0,0,120,14.0,0.0
2483,86.0,5,60,0.0,0.0
2484,74.0,3,60,2.0,0.0
2485,62.0,49,60,3.0,0.0
2486,81.0,5,60,0.0,0.0
2487,69.0,6,60,2.0,0.0
2488,50.0,0,105,13.0,0.0
2489,57.0,33,60,3.0,0.0
2490,38.0,4,105,14.0,0.0
2491,77.0,5,60,0.0,0.0
2492,65.0,6,60,2.0,0.0
2493,53.0,39,60,3.0,0.0
2494,86.0,1,60,10.0,0.0
2495,89.0,1,60,0.0,0.0
2496,74.0,5,50,0.0,0.0
2497,83.0,2,60,11.0,0.0
2498,74.0,0,60,11.0,0.0
2499,65.0,0,60,4.0,0.0
2500,74.0,0,60,1.0,0.0
2501,62.0,1,60,4.0,0.0
2502,83.0,0,60,1.0,0.0
2503,74.0,0,60,12.0,0.0
2504,65.0,1,60,12.0,0.0
2505,77.0,3,60,2.0,0.0
2506,62.0,4,50,2.0,0.0
2507,44.0,3,60,13.0,0.0
2508,32.0,49,60,14.0,0.0
2509,65.0,0,60,3.0,0.0
2510,50.0,0,50,3.0,0.0
2511,86.0,5,60,0.0,0.0
2512,74.0,6,60,2.0,0.0
2513,62.0,18,60,3.0,0.0
2514,89.0,31,30,10.0,0.0
2515,74.0,0,60,0.0,0.0
2516,83.0,1,60,0.0,0.0
2517,83.0,0,60,11.0,0.0
2518,74.0,2,60,11.0,0.0
2519,83.0,0,60,1.0,0.0
2520,74.0,0,60,1.0,0.0
2521,65.0,1,60,4.0,0.0
2522,62.0,0,60,4.0,0.0
2523,74.0,1,60,12.0,0.0
2524,65.0,0,60,12.0,0.0
2525,68.0,0,60,2.0,0.0
2526,56.0,3,60,2.0,0.0
2527,56.0,3,60,13.0,0.0
2528,56.0,0,60,3.0,0.0
2529,44.0,18,60,14.0,0.0
2530,44.0,0,60,3.0,0.0
2531,86.0,62,30,10.0,0.0
2532,77.0,60,30,11.0,0.0
2533,74.0,58,30,11.0,0.0
2534,65.0,60,30,10.0,0.0
2535,62.0,65,30,10.0,0.0
2536,53.0,60,30,12.0,0.0
2537,50.0,55,30,12.0,0.0
2538,65.0,60,30,10.0,0.0
2539,62.0,62,30,10.0,0.0
2540,77.0,60,30,11.0,0.0
2541,74.0,58,30,11.0,0.0
2542,88.0,31,30,10.0,0.0
2543,76.0,0,60,0.0,0.0
2544,74.0,3,60,0.0,0.0
2545,64.0,0,60,4.0,0.0
2546,62.0,1,60,4.0,0.0
2547,71.0,0,60,1.0,0.0
2548,74.0,0,60,1.0,0.0
2549,59.0,0,60,12.0,0.0
2550,64.0,4,60,12.0,0.0
2551,56.0,3,60,13.0,0.0
2552,52.0,0,60,3.0,0.0
2553,44.0,0,60,3.0,0.0
2554,44.0,18,60,14.0,0.0
2555,86.0,62,30,10.0,0.0
2556,76.0,60,30,11.0,0.0
2557,74.0,58,30,11.0,0.0
2558,64.0,60,30,10.0,0.0
2559,62.0,65,30,10.0,0.0
2560,52.0,60,30,12.0,0.0
2561,50.0,55,30,12.0,0.0
2562,64.0,60,30,10.0,0.0
2563,62.0,91,30,10.0,0.0
2564,88.0,1,60,0.0,0.0
2565,76.0,10,60,11.0,0.0
2566,69.0,0,240,2.0,0.0
2567,57.0,3,240,5.0,0.0
2568,36.0,3,120,13.0,0.0
2569,64.0,49,60,3.0,0.0
2570,36.0,49,120,14.0,0.0
2571,86.0,1,60,0.0,0.0
2572,74.0,7,60,11.0,0.0
2573,62.0,0,60,3.0,0.0
2574,84.0,1,60,0.0,0.0
2575,72.0,10,60,11.0,0.0
2576,40.0,3,120,13.0,0.0
2577,60.0,49,60,3.0,0.0
2578,40.0,0,120,14.0,0.0
2579,83.0,1,60,0.0,0.0
2580,71.0,4,60,11.0,0.0
2581,59.0,49,60,3.0,0.0
2582,84.0,1,60,0.0,0.0
2583,72.0,10,60,11.0,0.0
2584,60.0,54,120,5.0,0.0
2585,72.0,3,110,2.0,0.0
2586,45.0,3,110,13.0,0.0
2587,60.0,39,60,3.0,0.0
2588,45.0,0,110,14.0,0.0
2589,83.0,5,50,0.0,0.0
2590,71.0,4,60,11.0,0.0
2591,59.0,0,50,3.0,0.0
2592,69.0,1,60,10.0,0.0
2593,81.0,11,60,0.0,0.0
2594,65.0,4,120,12.0,0.0
2595,69.0,3,240,5.0,0.0
2596,81.0,0,240,2.0,0.0
2597,53.0,3,120,13.0,0.0
2598,57.0,48,60,3.0,0.0
2599,72.0,1,60,10.0,0.0
2600,84.0,4,60,0.0,0.0
2601,60.0,48,60,3.0,0.0
2602,77.0,1,60,10.0,0.0
2603,89.0,11,60,0.0,0.0
2604,60.0,1,120,12.0,0.0
2605,48.0,3,120,13.0,0.0
2606,65.0,48,60,3.0,0.0
2607,81.0,1,60,10.0,0.0
2608,93.0,4,60,0.0,0.0
2609,69.0,48,60,3.0,0.0
2610,79.0,1,60,10.0,0.0
2611,91.0,11,60,0.0,0.0
2612,57.0,1,110,12.0,0.0
2613,72.0,3,110,2.0,0.0
2614,60.0,55,120,5.0,0.0
2615,45.0,1,110,13.0,0.0
2616,67.0,39,60,3.0,0.0
2617,77.0,2,60,10.0,0.0
2618,89.0,4,50,0.0,0.0
2619,65.0,4,50,3.0,0.0
2620,88.0,1,60,0.0,0.0
2621,76.0,10,60,11.0,0.0
2622,69.0,3,240,2.0,0.0
2623,57.0,0,240,5.0,0.0
2624,36.0,3,120,13.0,0.0
2625,64.0,49,60,3.0,0.0
2626,36.0,0,120,14.0,0.0
2627,86.0,1,60,0.0,0.0
2628,74.0,7,60,11.0,0.0
2629,62.0,49,60,3.0,0.0
2630,84.0,1,60,0.0,0.0
2631,72.0,10,60,11.0,0.0
2632,40.0,3,120,13.0,0.0
2633,40.0,49,120,14.0,0.0
2634,60.0,49,60,3.0,0.0
2635,83.0,1,60,0.0,0.0
2636,71.0,4,60,11.0,0.0
2637,59.0,0,60,3.0,0.0
2638,84.0,1,60,0.0,0.0
2639,72.0,10,60,11.0,0.0
2640,60.0,54,120,5.0,0.0
2641,72.0,3,110,2.0,0.0
2642,45.0,3,110,13.0,0.0
2643,45.0,4,110,14.0,0.0
2644,60.0,39,60,3.0,0.0
2645,83.0,5,50,0.0,0.0
2646,71.0,0,60,11.0,0.0
2647,59.0,0,50,3.0,0.0
2648,69.0,1,60,10.0,0.0
2649,81.0,11,60,0.0,0.0
2650,66.0,4,120,12.0,0.0
2651,69.0,0,240,5.0,0.0
2652,81.0,3,240,2.0,0.0
2653,54.0,3,120,13.0,0.0
2654,57.0,48,60,3.0,0.0
2655,72.0,1,60,10.0,0.0
2656,84.0,4,60,0.0,0.0
2657,60.0,48,60,3.0,0.0
2658,78.0,1,60,10.0,0.0
2659,90.0,11,60,0.0,0.0
2660,60.0,1,120,12.0,0.0
2661,48.0,3,120,13.0,0.0
2662,66.0,48,60,3.0,0.0
2663,81.0,1,60,10.0,0.0
2664,93.0,4,60,0.0,0.0
2665,69.0,48,60,3.0,0.0
2666,79.0,1,60,10.0,0.0
2667,91.0,11,60,0.0,0.0
2668,57.0,1,110,12.0,0.0
2669,60.0,55,120,5.0,0.0
2670,72.0,3,110,2.0,0.0
2671,45.0,1,110,13.0,0.0
2672,67.0,39,60,3.0,0.0
2673,78.0,2,60,10.0,0.0
2674,90.0,4,50,0.0,0.0
2675,66.0,4,50,3.0,0.0
2676,95.0,1,60,0.0,0.0
2677,83.0,10,60,11.0,0.0
2678,55.0,4,120,12.0,0.0
2679,64.0,3,240,5.0,0.0
2680,76.0,0,240,2.0,0.0
2681,43.0,3,120,13.0,0.0
2682,59.0,0,60,3.0,0.0
2683,31.0,49,60,14.0,0.0
2684,91.0,1,60,0.0,0.0
2685,79.0,3,60,11.0,0.0
2686,67.0,49,60,3.0,0.0
2687,88.0,1,60,0.0,0.0
2688,76.0,10,60,11.0,0.0
2689,59.0,1,120,12.0,0.0
2690,47.0,3,120,13.0,0.0
2691,43.0,49,60,14.0,0.0
2692,64.0,0,60,3.0,0.0
2693,83.0,1,60,0.0,0.0
2694,71.0,3,60,11.0,0.0
2695,59.0,49,60,3.0,0.0
2696,79.0,1,60,0.0,0.0
2697,67.0,10,60,11.0,0.0
2698,64.0,1,110,12.0,0.0
2699,79.0,3,110,2.0,0.0
2700,67.0,54,120,5.0,0.0
2701,52.0,3,110,13.0,0.0
2702,55.0,39,60,3.0,0.0
2703,76.0,4,50,0.0,0.0
2704,64.0,0,60,11.0,0.0
2705,52.0,4,50,3.0,0.0
2706,72.0,1,60,10.0,0.0
2707,84.0,11,60,0.0,0.0
2708,57.0,4,120,12.0,0.0
2709,66.0,0,240,5.0,0.0
2710,78.0,3,240,2.0,0.0
2711,45.0,3,120,13.0,0.0
2712,33.0,0,60,14.0,0.0
2713,60.0,48,60,3.0,0.0
2714,69.0,1,60,10.0,0.0
2715,81.0,4,60,0.0,0.0
2716,57.0,48,60,3.0,0.0
2717,66.0,1,60,10.0,0.0
2718,78.0,11,60,0.0,0.0
2719,60.0,1,120,12.0,0.0
2720,48.0,3,120,13.0,0.0
2721,54.0,0,60,3.0,0.0
2722,45.0,48,60,14.0,0.0
2723,60.0,1,60,10.0,0.0
2724,72.0,4,60,0.0,0.0
2725,48.0,48,60,3.0,0.0
2726,57.0,1,60,10.0,0.0
2727,69.0,11,60,0.0,0.0
2728,66.0,1,110,12.0,0.0
2729,69.0,34,120,5.0,0.0
2730,81.0,3,110,2.0,0.0
2731,54.0,3,110,13.0,0.0
2732,45.0,38,60,3.0,0.0
2733,66.0,1,50,10.0,0.0
2734,66.0,4,50,0.0,0.0
2735,54.0,4,50,3.0,0.0
2736,67.0,2,40,10.0,0.0
2737,79.0,4,60,0.0,0.0
2738,88.0,0,60,0.0,0.0
2739,55.0,19,40,11.0,0.0
2740,64.0,1,60,12.0,0.0
2741,55.0,0,60,12.0,0.0
2742,76.0,0,60,2.0,0.0
2743,64.0,3,60,5.0,0.0
2744,67.0,0,60,5.0,0.0
2745,67.0,0,60,2.0,0.0
2746,47.0,3,60,13.0,0.0
2747,55.0,0,60,3.0,0.0
2748,52.0,8,60,3.0,0.0
2749,35.0,0,60,14.0,0.0
2750,69.0,2,40,10.0,0.0
2751,57.0,28,40,11.0,0.0
2752,70.0,2,30,10.0,0.0
2753,58.0,48,30,11.0,0.0
2754,71.0,2,40,10.0,0.0
2755,78.0,0,590,0.0,0.0
2756,87.0,1,590,0.0,0.0
2757,59.0,38,40,11.0,0.0
2758,75.0,0,590,1.0,0.0
2759,83.0,0,590,1.0,0.0
2760,63.0,1,590,4.0,0.0
2761,59.0,0,590,12.0,0.0
2762,69.0,1,590,12.0,0.0
2763,75.0,0,590,2.0,0.0
2764,66.0,0,590,2.0,0.0
2765,69.0,0,590,5.0,0.0
2766,66.0,3,590,5.0,0.0
2767,59.0,3,590,13.0,0.0
2768,47.0,0,590,14.0,0.0
2769,57.0,0,590,3.0,0.0
2770,47.0,58,590,3.0,0.0
2771,73.0,2,40,10.0,0.0
2772,61.0,38,40,11.0,0.0
2773,75.0,2,40,10.0,0.0
2774,63.0,38,40,11.0,0.0
2775,76.0,2,40,10.0,0.0
2776,64.0,38,40,11.0,0.0
2777,77.0,2,40,10.0,0.0
2778,65.0,38,40,11.0,0.0
2779,78.0,2,40,10.0,0.0
2780,66.0,38,40,11.0,0.0
2781,79.0,2,40,10.0,0.0
2782,67.0,38,40,11.0,0.0
2783,80.0,2,40,10.0,0.0
2784,68.0,38,40,11.0,0.0
2785,81.0,2,40,10.0,0.0
2786,69.0,38,40,11.0,0.0
2787,82.0,2,40,10.0,0.0
2788,70.0,38,40,11.0,0.0
2789,83.0,2,40,10.0,0.0
2790,71.0,38,40,11.0,0.0
2791,84.0,2,40,10.0,0.0
2792,72.0,38,40,11.0,0.0
2793,85.0,2,40,10.0,0.0
2794,73.0,38,40,11.0,0.0
2795,86.0,2,40,10.0,0.0
2796,74.0,28,40,11.0,0.0
2797,87.0,1,30,10.0,0.0
2798,75.0,2,30,11.0,0.0
2799,88.0,1,60,10.0,0.0
2800,88.0,1,60,0.0,0.0
2801,76.0,2,60,11.0,0.0
2802,76.0,0,60,1.0,0.0
2803,64.0,1,60,4.0,0.0
2804,69.0,1,60,12.0,0.0
2805,60.0,0,60,12.0,0.0
2806,76.0,3,60,2.0,0.0
2807,36.0,3,60,13.0,0.0
2808,36.0,49,60,14.0,0.0
2809,64.0,0,60,3.0,0.0
2810,86.0,3,60,0.0,0.0
2811,74.0,2,60,1.0,0.0
2812,74.0,6,60,2.0,0.0
2813,62.0,49,60,3.0,0.0
2814,80.0,2,240,10.0,0.0
2815,84.0,3,60,0.0,0.0
2816,68.0,0,240,11.0,0.0
2817,60.0,0,60,4.0,0.0
2818,72.0,2,60,1.0,0.0
2819,72.0,4,350,12.0,0.0
2820,60.0,0,350,12.0,0.0
2821,72.0,6,60,2.0,0.0
2822,64.0,3,240,13.0,0.0
2823,52.0,49,240,14.0,0.0
2824,60.0,49,60,3.0,0.0
2825,83.0,3,60,0.0,0.0
2826,71.0,2,60,1.0,0.0
2827,71.0,6,60,2.0,0.0
2828,59.0,49,60,3.0,0.0
2829,84.0,3,60,0.0,0.0
2830,72.0,2,60,1.0,0.0
2831,72.0,6,60,2.0,0.0
2832,60.0,39,60,3.0,0.0
2833,83.0,3,50,0.0,0.0
2834,71.0,2,50,1.0,0.0
2835,71.0,4,50,2.0,0.0
2836,59.0,7,50,3.0,0.0
2837,81.0,2,110,10.0,0.0
2838,81.0,3,60,0.0,0.0
2839,69.0,3,110,11.0,0.0
2840,69.0,2,60,1.0,0.0
2841,57.0,6,60,5.0,0.0
2842,69.0,0,60,2.0,0.0
2843,65.0,2,110,13.0,0.0
2844,53.0,2,110,14.0,0.0
2845,57.0,38,60,3.0,0.0
2846,84.0,1,60,0.0,0.0
2847,72.0,2,60,1.0,0.0
2848,72.0,6,60,2.0,0.0
2849,60.0,48,60,3.0,0.0
2850,84.0,1,60,10.0,0.0
2851,89.0,1,60,0.0,0.0
2852,72.0,2,60,11.0,0.0
2853,77.0,1,60,1.0,0.0
2854,60.0,0,60,12.0,0.0
2855,69.0,1,60,12.0,0.0
2856,65.0,0,60,5.0,0.0
2857,77.0,3,60,2.0,0.0
2858,60.0,3,60,13.0,0.0
2859,65.0,0,60,3.0,0.0
2860,48.0,49,60,14.0,0.0
2861,93.0,3,60,0.0,0.0
2862,81.0,2,60,1.0,0.0
2863,81.0,6,60,2.0,0.0
2864,69.0,48,60,3.0,0.0
2865,89.0,1,60,10.0,0.0
2866,91.0,1,60,0.0,0.0
2867,77.0,2,60,11.0,0.0
2868,79.0,1,60,1.0,0.0
2869,69.0,0,60,12.0,0.0
2870,60.0,1,60,12.0,0.0
2871,79.0,3,60,2.0,0.0
2872,57.0,3,60,13.0,0.0
2873,45.0,0,60,14.0,0.0
2874,67.0,39,60,3.0,0.0
2875,89.0,3,50,0.0,0.0
2876,77.0,2,50,1.0,0.0
2877,77.0,6,50,2.0,0.0
2878,65.0,58,50,3.0,0.0
2879,93.0,1,60,10.0,0.0
2880,88.0,1,60,0.0,0.0
2881,81.0,2,60,11.0,0.0
2882,76.0,1,60,1.0,0.0
2883,64.0,0,60,4.0,0.0
2884,60.0,0,60,12.0,0.0
2885,69.0,1,60,12.0,0.0
2886,76.0,3,60,2.0,0.0
2887,48.0,3,60,13.0,0.0
2888,64.0,0,60,3.0,0.0
2889,36.0,49,60,14.0,0.0
2890,86.0,3,60,0.0,0.0
2891,74.0,2,60,1.0,0.0
2892,74.0,6,60,2.0,0.0
2893,62.0,49,60,3.0,0.0
2894,80.0,2,240,10.0,0.0
2895,84.0,3,60,0.0,0.0
2896,68.0,7,240,11.0,0.0
2897,72.0,0,60,1.0,0.0
2898,60.0,2,60,4.0,0.0
2899,72.0,4,350,12.0,0.0
2900,60.0,0,350,12.0,0.0
2901,72.0,6,60,2.0,0.0
2902,64.0,3,240,13.0,0.0
2903,52.0,49,240,14.0,0.0
2904,60.0,49,60,3.0,0.0
2905,83.0,3,60,0.0,0.0
2906,71.0,2,60,1.0,0.0
2907,71.0,6,60,2.0,0.0
2908,59.0,49,60,3.0,0.0
2909,84.0,3,60,0.0,0.0
2910,72.0,2,60,1.0,0.0
2911,72.0,6,60,2.0,0.0
2912,60.0,39,60,3.0,0.0
2913,83.0,3,50,0.0,0.0
2914,71.0,2,50,1.0,0.0
2915,71.0,4,50,2.0,0.0
2916,59.0,0,50,3.0,0.0
2917,81.0,2,110,10.0,0.0
2918,81.0,3,60,0.0,0.0
2919,69.0,3,110,11.0,0.0
2920,69.0,2,60,1.0,0.0
2921,69.0,6,60,2.0,0.0
2922,57.0,0,60,5.0,0.0
2923,65.0,2,110,13.0,0.0
2924,57.0,38,60,3.0,0.0
2925,53.0,2,110,14.0,0.0
2926,84.0,1,60,0.0,0.0
2927,72.0,2,60,1.0,0.0
2928,72.0,6,60,2.0,0.0
2929,60.0,48,60,3.0,0.0
2930,84.0,1,60,10.0,0.0
2931,89.0,1,60,0.0,0.0
2932,72.0,2,60,11.0,0.0
2933,77.0,1,60,1.0,0.0
2934,65.0,0,60,12.0,0.0
2935,69.0,1,60,12.0,0.0
2936,65.0,0,60,5.0,0.0
2937,77.0,3,60,2.0,0.0
2938,60.0,3,60,13.0,0.0
2939,65.0,0,60,3.0,0.0
2940,48.0,49,60,14.0,0.0
2941,93.0,3,60,0.0,0.0
2942,81.0,2,60,1.0,0.0
2943,81.0,6,60,2.0,0.0
2944,69.0,48,60,3.0,0.0
2945,89.0,1,60,10.0,0.0
2946,96.0,1,60,0.0,0.0
2947,77.0,2,60,11.0,0.0
2948,84.0,1,60,1.0,0.0
2949,69.0,1,60,12.0,0.0
2950,65.0,0,60,12.0,0.0
2951,84.0,3,60,2.0,0.0
2952,57.0,3,60,13.0,0.0
2953,72.0,0,60,3.0,0.0
2954,45.0,39,60,14.0,0.0
2955,95.0,3,50,0.0,0.0
2956,83.0,2,50,1.0,0.0
2957,83.0,6,50,2.0,0.0
2958,71.0,59,50,3.0,0.0
2959,93.0,2,345,10.0,0.0
2960,93.0,3,60,0.0,0.0
2961,81.0,0,345,11.0,0.0
2962,69.0,4,345,11.0,0.0
2963,81.0,1,60,1.0,0.0
2964,64.0,0,60,4.0,0.0
2965,60.0,0,60,4.0,0.0
2966,60.0,1,60,12.0,0.0
2967,69.0,0,60,5.0,0.0
2968,57.0,0,60,5.0,0.0
2969,81.0,3,60,2.0,0.0
2970,48.0,3,60,13.0,0.0
2971,36.0,5,345,14.0,0.0
2972,69.0,49,60,3.0,0.0
2973,88.0,3,60,0.0,0.0
2974,76.0,2,60,1.0,0.0
2975,76.0,6,60,2.0,0.0
2976,64.0,49,60,3.0,0.0
2977,84.0,3,60,0.0,0.0
2978,72.0,1,60,1.0,0.0
2979,64.0,1,60,12.0,0.0
2980,72.0,3,60,2.0,0.0
2981,52.0,3,60,13.0,0.0
2982,60.0,49,60,3.0,0.0
2983,81.0,3,60,0.0,0.0
2984,69.0,2,60,1.0,0.0
2985,69.0,6,60,2.0,0.0
2986,57.0,49,60,3.0,0.0
2987,76.0,3,60,0.0,0.0
2988,76.0,1,60,1.0,0.0
2989,69.0,1,60,12.0,0.0
2990,64.0,3,60,2.0,0.0
2991,57.0,3,60,13.0,0.0
2992,52.0,33,60,3.0,0.0
2993,72.0,3,50,0.0,0.0
2994,72.0,2,50,1.0,0.0
2995,60.0,1,50,2.0,0.0
2996,48.0,59,50,3.0,0.0
2997,81.0,2,345,10.0,0.0
2998,93.0,3,60,0.0,0.0
2999,69.0,0,345,11.0,0.0
3000,65.0,4,345,11.0,0.0
3001,65.0,0,60,4.0,0.0
3002,81.0,0,60,1.0,0.0
3003,62.0,1,60,4.0,0.0
3004,62.0,1,60,12.0,0.0
3005,81.0,0,60,2.0,0.0
3006,69.0,0,60,5.0,0.0
3007,57.0,3,60,5.0,0.0
3008,50.0,3,60,13.0,0.0
3009,69.0,49,60,3.0,0.0
3010,38.0,5,345,14.0,0.0
3011,89.0,3,60,0.0,0.0
3012,77.0,2,60,1.0,0.0
3013,77.0,6,60,2.0,0.0
3014,65.0,49,60,3.0,0.0
3015,86.0,3,60,0.0,0.0
3016,74.0,1,60,1.0,0.0
3017,65.0,1,60,12.0,0.0
3018,74.0,3,60,2.0,0.0
3019,53.0,3,60,13.0,0.0
3020,62.0,49,60,3.0,0.0
3021,81.0,3,60,0.0,0.0
3022,69.0,2,60,1.0,0.0
3023,69.0,6,60,2.0,0.0
3024,57.0,49,60,3.0,0.0
3025,77.0,3,60,0.0,0.0
3026,77.0,1,60,1.0,0.0
3027,71.0,1,60,12.0,0.0
3028,65.0,3,60,2.0,0.0
3029,59.0,3,60,13.0,0.0
3030,53.0,33,60,3.0,0.0
3031,74.0,3,50,0.0,0.0
3032,74.0,2,50,1.0,0.0
3033,62.0,1,50,2.0,0.0
3034,50.0,39,50,3.0,0.0
3035,69.0,2,60,10.0,0.0
3036,72.0,3,40,0.0,0.0
3037,66.0,0,60,11.0,0.0
3038,63.0,2,60,11.0,0.0
3039,60.0,0,60,4.0,0.0
3040,63.0,1,60,4.0,0.0
3041,72.0,2,40,1.0,0.0
3042,60.0,1,60,12.0,0.0
3043,66.0,0,60,12.0,0.0
3044,60.0,6,40,2.0,0.0
3045,69.0,0,60,5.0,0.0
3046,57.0,3,60,5.0,0.0
3047,45.0,3,60,13.0,0.0
3048,33.0,9,60,14.0,0.0
3049,48.0,8,40,3.0,0.0
3050,74.0,3,40,0.0,0.0
3051,74.0,2,40,1.0,0.0
3052,62.0,6,40,2.0,0.0
3053,50.0,19,40,3.0,0.0
3054,75.0,3,30,0.0,0.0
3055,75.0,2,30,1.0,0.0
3056,63.0,6,30,2.0,0.0
3057,51.0,39,30,3.0,0.0
3058,74.0,2,585,10.0,0.0
3059,76.0,3,40,0.0,0.0
3060,71.0,0,585,11.0,0.0
3061,62.0,3,585,11.0,0.0
3062,52.0,2,60,4.0,0.0
3063,64.0,0,60,4.0,0.0
3064,76.0,2,40,1.0,0.0
3065,59.0,1,585,12.0,0.0
3066,68.0,0,585,12.0,0.0
3067,62.0,15,60,5.0,0.0
3068,68.0,0,60,5.0,0.0
3069,64.0,6,40,2.0,0.0
3070,52.0,0,585,13.0,0.0
3071,40.0,5,585,14.0,0.0
3072,52.0,12,40,3.0,0.0
3073,78.0,3,40,0.0,0.0
3074,78.0,2,40,1.0,0.0
3075,66.0,6,40,2.0,0.0
3076,54.0,29,40,3.0,0.0
3077,80.0,3,40,0.0,0.0
3078,80.0,2,40,1.0,0.0
3079,68.0,6,40,2.0,0.0
3080,56.0,29,40,3.0,0.0
3081,81.0,3,40,0.0,0.0
3082,81.0,2,40,1.0,0.0
3083,69.0,6,40,2.0,0.0
3084,57.0,29,40,3.0,0.0
3085,82.0,3,40,0.0,0.0
3086,82.0,2,40,1.0,0.0
3087,70.0,6,40,2.0,0.0
3088,58.0,29,40,3.0,0.0
3089,83.0,3,40,0.0,0.0
3090,83.0,2,40,1.0,0.0
3091,71.0,6,40,2.0,0.0
3092,59.0,29,40,3.0,0.0
3093,84.0,3,40,0.0,0.0
3094,84.0,2,40,1.0,0.0
3095,72.0,6,40,2.0,0.0
3096,60.0,29,40,3.0,0.0
3097,85.0,3,40,0.0,0.0
3098,85.0,2,40,1.0,0.0
3099,73.0,6,40,2.0,0.0
3100,61.0,29,40,3.0,0.0
3101,86.0,3,40,0.0,0.0
3102,86.0,2,40,1.0,0.0
3103,74.0,6,40,2.0,0.0
3104,62.0,29,40,3.0,0.0
3105,87.0,3,40,0.0,0.0
3106,75.0,2,40,1.0,0.0
3107,75.0,6,40,2.0,0.0
3108,63.0,29,40,3.0,0.0
3109,88.0,3,40,0.0,0.0
3110,76.0,2,40,1.0,0.0
3111,76.0,6,40,2.0,0.0
3112,64.0,29,40,3.0,0.0
3113,89.0,3,40,0.0,0.0
3114,77.0,2,40,1.0,0.0
3115,77.0,6,40,2.0,0.0
3116,65.0,29,40,3.0,0.0
3117,90.0,3,40,0.0,0.0
3118,78.0,2,40,1.0,0.0
3119,78.0,6,40,2.0,0.0
3120,66.0,29,40,3.0,0.0
3121,91.0,3,40,0.0,0.0
3122,79.0,2,40,1.0,0.0
3123,79.0,6,40,2.0,0.0
3124,67.0,13,40,3.0,0.0
3125,92.0,3,30,0.0,0.0
3126,80.0,2,30,1.0,0.0
3127,80.0,1,30,2.0,0.0
3128,68.0,38,30,3.0,0.0
3129,72.0,2,40,10.0,0.0
3130,93.0,3,60,0.0,0.0
3131,60.0,3,40,11.0,0.0
3132,48.0,0,60,4.0,0.0
3133,60.0,0,60,4.0,0.0
3134,81.0,0,60,1.0,0.0
3135,54.0,0,60,7.0,0.0
3136,63.0,2,60,7.0,0.0
3137,48.0,16,40,12.0,0.0
3138,57.0,0,60,5.0,0.0
3139,81.0,0,60,2.0,0.0
3140,66.0,1,60,5.0,0.0
3141,45.0,5,60,8.0,0.0
3142,45.0,1,105,13.0,0.0
3143,69.0,8,60,3.0,0.0
3144,33.0,43,105,14.0,0.0
3145,74.0,2,40,10.0,0.0
3146,62.0,3,40,11.0,0.0
3147,50.0,25,40,12.0,0.0
3148,75.0,2,30,10.0,0.0
3149,63.0,2,30,11.0,0.0
3150,51.0,2,30,12.0,0.0
3151,76.0,2,40,10.0,0.0
3152,88.0,0,585,0.0,0.0
3153,80.0,3,585,0.0,0.0
3154,64.0,3,40,11.0,0.0
3155,64.0,0,60,7.0,0.0
3156,52.0,3,60,7.0,0.0
3157,76.0,0,585,1.0,0.0
3158,68.0,1,585,1.0,0.0
3159,52.0,0,585,4.0,0.0
3160,64.0,0,585,4.0,0.0
3161,52.0,19,40,12.0,0.0
3162,71.0,1,585,2.0,0.0
3163,74.0,0,585,2.0,0.0
3164,62.0,0,585,5.0,0.0
3165,68.0,0,585,5.0,0.0
3166,52.0,13,60,8.0,0.0
3167,52.0,1,585,13.0,0.0
3168,40.0,38,585,14.0,0.0
3169,52.0,0,585,3.0,0.0
3170,78.0,2,40,10.0,0.0
3171,66.0,3,40,11.0,0.0
3172,54.0,35,40,12.0,0.0
3173,80.0,2,40,10.0,0.0
3174,68.0,3,40,11.0,0.0
3175,56.0,35,40,12.0,0.0
3176,81.0,2,40,10.0,0.0
3177,69.0,3,40,11.0,0.0
3178,57.0,35,40,12.0,0.0
3179,82.0,2,40,10.0,0.0
3180,70.0,3,40,11.0,0.0
3181,58.0,35,40,12.0,0.0
3182,83.0,2,40,10.0,0.0
3183,71.0,3,40,11.0,0.0
3184,59.0,35,40,12.0,0.0
3185,84.0,2,40,10.0,0.0
3186,72.0,3,40,11.0,0.0
3187,60.0,35,40,12.0,0.0
3188,85.0,2,40,10.0,0.0
3189,73.0,3,40,11.0,0.0
3190,61.0,35,40,12.0,0.0
3191,86.0,2,40,10.0,0.0
3192,74.0,3,40,11.0,0.0
3193,62.0,35,40,12.0,0.0
3194,87.0,2,40,10.0,0.0
3195,75.0,3,40,11.0,0.0
3196,63.0,35,40,12.0,0.0
3197,88.0,2,40,10.0,0.0
3198,76.0,3,40,11.0,0.0
3199,64.0,35,40,12.0,0.0
3200,89.0,2,40,10.0,0.0
3201,77.0,3,40,11.0,0.0
3202,65.0,35,40,12.0,0.0
3203,90.0,2,40,10.0,0.0
3204,78.0,3,40,11.0,0.0
3205,66.0,35,40,12.0,0.0
3206,91.0,2,40,10.0,0.0
3207,79.0,3,40,11.0,0.0
3208,67.0,21,40,12.0,0.0
3209,92.0,1,30,10.0,0.0
3210,80.0,2,30,11.0,0.0
3211,68.0,2,30,12.0,0.0
3212,93.0,1,225,10.0,0.0
3213,93.0,0,225,0.0,0.0
3214,84.0,1,225,0.0,0.0
3215,81.0,1,225,11.0,0.0
3216,60.0,0,225,6.0,0.0
3217,72.0,1,225,6.0,0.0
3218,48.0,0,225,4.0,0.0
3219,64.0,2,225,4.0,0.0
3220,72.0,0,225,1.0,0.0
3221,81.0,0,225,1.0,0.0
3222,60.0,60,30,12.0,0.0
3223,72.0,0,30,12.0,0.0
3224,72.0,0,225,2.0,0.0
3225,69.0,6,225,2.0,0.0
3226,57.0,0,225,5.0,0.0
3227,69.0,0,225,5.0,0.0
3228,45.0,3,210,13.0,0.0
3229,45.0,38,225,3.0,0.0
3230,33.0,3,210,14.0,0.0
3231,72.0,0,30,12.0,0.0
3232,60.0,60,30,12.0,0.0
3233,69.0,60,30,12.0,0.0
3234,60.0,0,30,12.0,0.0
3235,69.0,0,30,12.0,0.0
3236,60.0,4,30,12.0,0.0
3237,88.0,1,60,10.0,0.0
3238,84.0,1,60,0.0,0.0
3239,93.0,0,60,0.0,0.0
3240,76.0,1,60,11.0,0.0
3241,72.0,0,60,6.0,0.0
3242,60.0,1,60,6.0,0.0
3243,64.0,0,60,4.0,0.0
3244,81.0,2,60,1.0,0.0
3245,72.0,0,60,1.0,0.0
3246,48.0,0,60,4.0,0.0
3247,60.0,0,30,12.0,0.0
3248,69.0,25,30,12.0,0.0
3249,57.0,0,60,5.0,0.0
3250,69.0,0,60,5.0,0.0
3251,69.0,0,60,2.0,0.0
3252,72.0,3,60,2.0,0.0
3253,48.0,3,60,13.0,0.0
3254,36.0,23,60,14.0,0.0
3255,48.0,0,60,3.0,0.0
3256,69.0,0,30,12.0,0.0
3257,60.0,60,30,12.0,0.0
3258,84.0,1,225,10.0,0.0
3259,93.0,1,225,0.0,0.0
3260,84.0,0,225,0.0,0.0
3261,72.0,1,225,11.0,0.0
3262,60.0,1,225,6.0,0.0
3263,72.0,0,225,6.0,0.0
3264,48.0,0,225,4.0,0.0
3265,81.0,2,225,1.0,0.0
3266,72.0,0,225,1.0,0.0
3267,64.0,0,225,4.0,0.0
3268,60.0,0,30,12.0,0.0
3269,69.0,60,30,12.0,0.0
3270,69.0,0,225,5.0,0.0
3271,57.0,0,225,5.0,0.0
3272,72.0,0,225,2.0,0.0
3273,69.0,3,225,2.0,0.0
3274,52.0,3,225,13.0,0.0
3275,40.0,38,225,14.0,0.0
3276,52.0,0,225,3.0,0.0
3277,69.0,60,30,12.0,0.0
3278,60.0,0,30,12.0,0.0
3279,60.0,60,30,12.0,0.0
3280,69.0,0,30,12.0,0.0
3281,69.0,10,30,12.0,0.0
3282,60.0,0,30,12.0,0.0
3283,81.0,1,60,10.0,0.0
3284,84.0,0,60,0.0,0.0
3285,93.0,1,60,0.0,0.0
3286,69.0,1,60,11.0,0.0
3287,72.0,0,60,6.0,0.0
3288,60.0,1,60,6.0,0.0
3289,64.0,2,60,4.0,0.0
3290,72.0,0,60,1.0,0.0
3291,81.0,0,60,1.0,0.0
3292,48.0,0,60,4.0,0.0
3293,69.0,25,30,12.0,0.0
3294,60.0,0,30,12.0,0.0
3295,69.0,3,60,2.0,0.0
3296,72.0,0,60,2.0,0.0
3297,69.0,0,60,5.0,0.0
3298,57.0,0,60,5.0,0.0
3299,57.0,3,60,13.0,0.0
3300,45.0,0,60,14.0,0.0
3301,57.0,23,60,3.0,0.0
3302,69.0,0,30,12.0,0.0
3303,60.0,60,30,12.0,0.0
3304,96.0,1,225,10.0,0.0
3305,84.0,0,225,0.0,0.0
3306,93.0,1,225,0.0,0.0
3307,84.0,1,225,11.0,0.0
3308,72.0,1,225,6.0,0.0
3309,60.0,0,225,6.0,0.0
3310,60.0,2,225,4.0,0.0
3311,72.0,0,225,1.0,0.0
3312,64.0,0,225,4.0,0.0
3313,81.0,0,225,1.0,0.0
3314,64.0,60,30,12.0,0.0
3315,72.0,0,30,12.0,0.0
3316,72.0,0,225,2.0,0.0
3317,69.0,3,225,2.0,0.0
3318,69.0,0,225,5.0,0.0
3319,57.0,0,225,5.0,0.0
3320,45.0,3,225,13.0,0.0
3321,45.0,38,225,3.0,0.0
3322,33.0,0,225,14.0,0.0
3323,72.0,60,30,12.0,0.0
3324,64.0,0,30,12.0,0.0
3325,64.0,0,30,12.0,0.0
3326,72.0,60,30,12.0,0.0
3327,72.0,0,30,12.0,0.0
3328,64.0,10,30,12.0,0.0
3329,93.0,1,60,10.0,0.0
3330,84.0,1,60,0.0,0.0
3331,93.0,0,60,0.0,0.0
3332,81.0,1,60,11.0,0.0
3333,60.0,1,60,6.0,0.0
3334,72.0,0,60,6.0,0.0
3335,81.0,0,60,1.0,0.0
3336,64.0,2,60,4.0,0.0
3337,72.0,0,60,1.0,0.0
3338,60.0,0,60,4.0,0.0
3339,60.0,0,30,12.0,0.0
3340,69.0,25,30,12.0,0.0
3341,57.0,0,60,5.0,0.0
3342,72.0,3,60,2.0,0.0
3343,69.0,0,60,2.0,0.0
3344,69.0,0,60,5.0,0.0
3345,48.0,3,60,13.0,0.0
3346,48.0,23,60,3.0,0.0
3347,36.0,0,60,14.0,0.0
3348,60.0,60,30,12.0,0.0
3349,69.0,0,30,12.0,0.0
3350,88.0,1,60,10.0,0.0
3351,93.0,0,60,0.0,0.0
3352,84.0,1,60,0.0,0.0
3353,76.0,1,60,11.0,0.0
3354,72.0,0,60,6.0,0.0
3355,60.0,1,60,6.0,0.0
3356,72.0,0,60,1.0,0.0
3357,60.0,0,60,4.0,0.0
3358,64.0,2,60,4.0,0.0
3359,81.0,0,60,1.0,0.0
3360,69.0,25,30,12.0,0.0
3361,60.0,0,30,12.0,0.0
3362,69.0,0,60,5.0,0.0
3363,57.0,0,60,5.0,0.0
3364,69.0,0,60,2.0,0.0
3365,72.0,3,60,2.0,0.0
3366,52.0,3,60,13.0,0.0
3367,40.0,23,60,14.0,0.0
3368,52.0,0,60,3.0,0.0
3369,69.0,0,30,12.0,0.0
3370,60.0,60,30,12.0,0.0
3371,84.0,1,60,10.0,0.0
3372,84.0,1,60,0.0,0.0
3373,93.0,0,60,0.0,0.0
3374,72.0,1,60,11.0,0.0
3375,72.0,1,60,6.0,0.0
3376,60.0,0,60,6.0,0.0
3377,72.0,0,60,1.0,0.0
3378,60.0,0,60,4.0,0.0
3379,64.0,0,60,4.0,0.0
3380,81.0,2,60,1.0,0.0
3381,69.0,25,30,12.0,0.0
3382,60.0,0,30,12.0,0.0
3383,72.0,3,60,2.0,0.0
3384,57.0,0,60,5.0,0.0
3385,69.0,0,60,5.0,0.0
3386,69.0,0,60,2.0,0.0
3387,57.0,3,60,13.0,0.0
3388,57.0,23,60,3.0,0.0
3389,45.0,0,60,14.0,0.0
3390,60.0,0,30,12.0,0.0
3391,69.0,60,30,12.0,0.0
3392,81.0,1,60,10.0,0.0
3393,84.0,1,60,0.0,0.0
3394,93.0,0,60,0.0,0.0
3395,69.0,1,60,11.0,0.0
3396,72.0,1,60,6.0,0.0
3397,60.0,0,60,6.0,0.0
3398,72.0,0,60,1.0,0.0
3399,64.0,0,60,4.0,0.0
3400,60.0,2,60,4.0,0.0
3401,81.0,0,60,1.0,0.0
3402,60.0,0,30,12.0,0.0
3403,69.0,25,30,12.0,0.0
3404,57.0,0,60,5.0,0.0
3405,69.0,0,60,5.0,0.0
3406,69.0,0,60,2.0,0.0
3407,72.0,3,60,2.0,0.0
3408,60.0,3,60,13.0,0.0
3409,48.0,23,60,14.0,0.0
3410,60.0,0,60,3.0,0.0
3411,69.0,60,30,12.0,0.0
3412,60.0,0,30,12.0,0.0
3413,76.0,1,60,10.0,0.0
3414,93.0,1,60,0.0,0.0
3415,84.0,0,60,0.0,0.0
3416,64.0,1,60,11.0,0.0
3417,60.0,1,60,6.0,0.0
3418,72.0,0,60,6.0,0.0
3419,64.0,2,60,4.0,0.0
3420,81.0,0,60,1.0,0.0
3421,72.0,0,60,1.0,0.0
3422,60.0,0,60,4.0,0.0
3423,60.0,25,30,12.0,0.0
3424,69.0,0,30,12.0,0.0
3425,72.0,0,60,2.0,0.0
3426,69.0,0,60,2.0,0.0
3427,57.0,0,60,5.0,0.0
3428,69.0,3,60,5.0,0.0
3429,64.0,3,60,13.0,0.0
3430,64.0,0,60,3.0,0.0
3431,52.0,23,60,14.0,0.0
3432,60.0,86,30,12.0,0.0
3433,69.0,0,30,12.0,0.0
3434,57.0,2,360,10.0,0.0
3435,81.0,3,60,0.0,0.0
3436,57.0,3,360,11.0,0.0
3437,69.0,1,120,6.0,0.0
3438,57.0,2,120,4.0,0.0
3439,69.0,2,60,1.0,0.0
3440,57.0,4,360,12.0,0.0
3441,57.0,6,60,2.0,0.0
3442,57.0,234,120,5.0,0.0
3443,69.0,0,60,2.0,0.0
3444,45.0,231,360,13.0,0.0
3445,33.0,51,60,14.0,0.0
3446,45.0,0,60,3.0,0.0
3447,60.0,2,240,10.0,0.0
3448,60.0,3,240,11.0,0.0
3449,48.0,4,240,12.0,0.0
3450,48.0,807,240,13.0,0.0
3451,77.0,2,695,0.0,0.0
3452,53.0,0,695,6.0,0.0
3453,65.0,1,695,6.0,0.0
3454,69.0,2,695,1.0,0.0
3455,77.0,0,695,1.0,0.0
3456,60.0,0,695,4.0,0.0
3457,72.0,0,695,2.0,0.0
3458,65.0,6,695,2.0,0.0
3459,57.0,0,695,5.0,0.0
3460,65.0,0,695,5.0,0.0
3461,53.0,714,695,3.0,0.0
3462,77.0,0,700,0.0,0.0
3463,80.0,2,700,0.0,0.0
3464,65.0,1,700,6.0,0.0
3465,77.0,0,700,6.0,0.0
3466,59.0,0,700,4.0,0.0
3467,62.0,0,700,4.0,0.0
3468,80.0,0,700,1.0,0.0
3469,71.0,2,700,1.0,0.0
3470,68.0,0,700,5.0,0.0
3471,65.0,6,700,2.0,0.0
3472,74.0,0,700,2.0,0.0
3473,53.0,0,700,5.0,0.0
3474,41.0,48,700,3.0,0.0
3475,50.0,0,700,3.0,0.0
3476,89.0,2,240,10.0,0.0
3477,89.0,2,60,0.0,0.0
3478,81.0,0,60,0.0,0.0
3479,77.0,3,240,11.0,0.0
3480,81.0,0,60,6.0,0.0
3481,72.0,1,60,6.0,0.0
3482,65.0,0,60,4.0,0.0
3483,60.0,0,60,4.0,0.0
3484,72.0,0,60,1.0,0.0
3485,81.0,1,60,1.0,0.0
3486,60.0,6,480,7.0,0.0
3487,57.0,0,480,7.0,0.0
3488,53.0,0,50,12.0,0.0
3489,57.0,6,50,12.0,0.0
3490,65.0,0,60,5.0,0.0
3491,69.0,6,60,2.0,0.0
3492,72.0,0,60,2.0,0.0
3493,69.0,0,60,5.0,0.0
3494,41.0,2,710,8.0,0.0
3495,48.0,26,110,13.0,0.0
3496,41.0,0,110,13.0,0.0
3497,29.0,37,710,3.0,0.0
3498,48.0,22,60,3.0,0.0
3499,41.0,0,60,3.0,0.0
3500,29.0,0,710,14.0,0.0
3501,41.0,15,1,15.0,0.0
3502,57.0,19,110,12.0,0.0
3503,53.0,0,110,12.0,0.0
3504,41.0,24,2,15.0,0.0
3505,41.0,0,110,13.0,0.0
3506,48.0,1,110,13.0,0.0
3507,41.0,22,4,15.0,0.0
3508,57.0,4,110,12.0,0.0
3509,53.0,0,110,12.0,0.0
3510,41.0,25,1,15.0,0.0
3511,41.0,28,26,15.0,0.0
3512,84.0,2,120,10.0,0.0
3513,72.0,3,120,11.0,0.0
3514,48.0,0,110,13.0,0.0
3515,41.0,1,110,13.0,0.0
3516,41.0,22,0,15.0,0.0
3517,41.0,24,2,15.0,0.0
3518,53.0,0,110,12.0,0.0
3519,57.0,64,110,12.0,0.0
3520,41.0,7,3,15.0,0.0
3521,48.0,5,110,13.0,0.0
3522,41.0,0,110,13.0,0.0
3523,41.0,45,120,15.0,0.0
3524,57.0,0,110,12.0,0.0
3525,53.0,64,110,12.0,0.0
3526,81.0,2,170,10.0,0.0
3527,69.0,3,170,11.0,0.0
3528,41.0,0,110,13.0,0.0
3529,48.0,51,110,13.0,0.0
3530,53.0,55,110,12.0,0.0
3531,57.0,0,110,12.0,0.0
3532,41.0,3,110,13.0,0.0
3533,48.0,0,110,13.0,0.0
3534,79.0,2,50,10.0,0.0
3535,67.0,3,50,11.0,0.0
3536,53.0,2,50,12.0,0.0
3537,57.0,0,50,12.0,0.0
3538,77.0,2,240,10.0,0.0
3539,65.0,3,240,11.0,0.0
3540,60.0,6,480,7.0,0.0
3541,53.0,0,480,7.0,0.0
3542,60.0,12,50,12.0,0.0
3543,53.0,0,50,12.0,0.0
3544,44.0,2,710,8.0,0.0
3545,44.0,23,110,13.0,0.0
3546,53.0,0,110,13.0,0.0
3547,32.0,0,710,14.0,0.0
3548,32.0,39,710,3.0,0.0
3549,41.0,16,26,15.0,0.0
3550,41.0,23,3,15.0,0.0
3551,60.0,18,110,12.0,0.0
3552,41.0,1,2,15.0,0.0
3553,53.0,1,110,13.0,0.0
3554,44.0,0,110,13.0,0.0
3555,41.0,4,4,15.0,0.0
3556,53.0,3,110,12.0,0.0
3557,60.0,0,110,12.0,0.0
3558,41.0,16,4,15.0,0.0
3559,72.0,2,120,10.0,0.0
3560,60.0,5,120,11.0,0.0
3561,41.0,23,26,15.0,0.0
3562,53.0,0,110,13.0,0.0
3563,44.0,1,110,13.0,0.0
3564,41.0,28,26,15.0,0.0
3565,53.0,64,110,12.0,0.0
3566,60.0,0,110,12.0,0.0
3567,41.0,25,1,15.0,0.0
3568,41.0,8,0,15.0,0.0
3569,44.0,0,110,13.0,0.0
3570,53.0,5,110,13.0,0.0
3571,41.0,45,120,15.0,0.0
3572,60.0,31,110,12.0,0.0
3573,53.0,0,110,12.0,0.0
3574,92.0,2,86,10.0,0.0
3575,80.0,31,86,11.0,0.0
3576,44.0,56,110,13.0,0.0
3577,53.0,0,110,13.0,0.0
3578,53.0,31,110,12.0,0.0
3579,60.0,0,110,12.0,0.0
3580,91.0,2,86,10.0,0.0
3581,79.0,27,86,11.0,0.0
3582,53.0,0,110,13.0,0.0
3583,44.0,3,110,13.0,0.0
3584,60.0,0,50,12.0,0.0
3585,53.0,2,50,12.0,0.0
3586,89.0,2,240,10.0,0.0
3587,77.0,6,240,11.0,0.0
3588,54.0,0,830,7.0,0.0
3589,61.0,3,830,7.0,0.0
3590,53.0,10,50,12.0,0.0
3591,61.0,0,50,12.0,0.0
3592,53.0,2,830,8.0,0.0
3593,53.0,0,110,13.0,0.0
3594,56.0,25,110,13.0,0.0
3595,41.0,0,710,3.0,0.0
3596,41.0,5,710,14.0,0.0
3597,41.0,14,2,15.0,0.0
3598,41.0,25,1,15.0,0.0
3599,61.0,0,110,12.0,0.0
3600,53.0,18,110,12.0,0.0
3601,41.0,1,0,15.0,0.0
3602,56.0,0,110,13.0,0.0
3603,53.0,1,110,13.0,0.0
3604,41.0,23,3,15.0,0.0
3605,41.0,8,0,15.0,0.0
3606,61.0,0,110,12.0,0.0
3607,53.0,4,110,12.0,0.0
3608,41.0,20,26,15.0,0.0
3609,85.0,2,120,10.0,0.0
3610,73.0,14,120,11.0,0.0
3611,41.0,26,0,15.0,0.0
3612,53.0,0,110,13.0,0.0
3613,56.0,1,110,13.0,0.0
3614,41.0,21,1,15.0,0.0
3615,41.0,25,1,15.0,0.0
3616,61.0,0,110,12.0,0.0
3617,53.0,13,110,12.0,0.0
3618,41.0,24,2,15.0,0.0
3619,56.0,0,110,13.0,0.0
3620,53.0,1,110,13.0,0.0
3621,41.0,23,3,15.0,0.0
3622,53.0,20,110,12.0,0.0
3623,41.0,23,3,15.0,0.0
3624,61.0,0,110,12.0,0.0
3625,41.0,24,2,15.0,0.0
3626,80.0,2,170,10.0,0.0
3627,68.0,3,170,11.0,0.0
3628,53.0,0,110,13.0,0.0
3629,56.0,7,110,13.0,0.0
3630,41.0,3,3,15.0,0.0
3631,61.0,0,110,12.0,0.0
3632,53.0,6,110,12.0,0.0
3633,41.0,26,0,15.0,0.0
3634,41.0,18,1,15.0,0.0
3635,41.0,25,1,15.0,0.0
3636,53.0,0,110,13.0,0.0
3637,56.0,3,110,13.0,0.0
3638,79.0,2,50,10.0,0.0
3639,41.0,26,0,15.0,0.0
3640,67.0,3,50,11.0,0.0
3641,61.0,4,50,12.0,0.0
3642,53.0,0,50,12.0,0.0
3643,41.0,22,4,15.0,0.0
3644,41.0,48,16,15.0,0.0
3645,77.0,2,240,10.0,0.0
3646,65.0,53,240,11.0,0.0
3647,59.0,0,50,12.0,0.0
3648,68.0,59,50,12.0,0.0
3649,50.0,11,110,13.0,0.0
3650,41.0,0,110,13.0,0.0
3651,41.0,45,120,15.0,0.0
3652,41.0,0,710,3.0,0.0
3653,41.0,53,710,14.0,0.0
3654,59.0,0,110,12.0,0.0
3655,68.0,64,110,12.0,0.0
3656,41.0,0,110,13.0,0.0
3657,50.0,1,110,13.0,0.0
3658,68.0,64,110,12.0,0.0
3659,59.0,0,110,12.0,0.0
3660,71.0,2,120,10.0,0.0
3661,59.0,53,120,11.0,0.0
3662,41.0,0,110,13.0,0.0
3663,50.0,1,110,13.0,0.0
3664,68.0,64,110,12.0,0.0
3665,59.0,0,110,12.0,0.0
3666,41.0,56,110,13.0,0.0
3667,50.0,0,110,13.0,0.0
3668,59.0,0,110,12.0,0.0
3669,68.0,31,110,12.0,0.0
3670,88.0,2,86,10.0,0.0
3671,76.0,31,86,11.0,0.0
3672,41.0,56,110,13.0,0.0
3673,50.0,0,110,13.0,0.0
3674,68.0,31,110,12.0,0.0
3675,59.0,0,110,12.0,0.0
3676,86.0,2,86,10.0,0.0
3677,74.0,27,86,11.0,0.0
3678,41.0,3,110,13.0,0.0
3679,50.0,0,110,13.0,0.0
3680,68.0,4,50,12.0,0.0
3681,59.0,0,50,12.0,0.0
3682,84.0,2,170,10.0,0.0
3683,72.0,3,170,11.0,0.0
3684,60.0,0,360,4.0,0.0
3685,48.0,2,360,4.0,0.0
3686,60.0,0,50,12.0,0.0
3687,55.0,64,50,12.0,0.0
3688,60.0,6,360,2.0,0.0
3689,43.0,0,110,13.0,0.0
3690,40.0,51,110,13.0,0.0
3691,48.0,43,360,3.0,0.0
3692,28.0,2,350,14.0,0.0
3693,28.0,0,360,3.0,0.0
3694,55.0,55,110,12.0,0.0
3695,60.0,0,110,12.0,0.0
3696,40.0,0,110,13.0,0.0
3697,43.0,51,110,13.0,0.0
3698,71.0,2,50,10.0,0.0
3699,59.0,7,50,11.0,0.0
3700,55.0,0,110,12.0,0.0
3701,60.0,55,110,12.0,0.0
3702,72.0,2,50,10.0,0.0
3703,60.0,3,50,11.0,0.0
3704,43.0,3,110,13.0,0.0
3705,40.0,0,110,13.0,0.0
3706,76.0,2,50,10.0,0.0
3707,64.0,3,50,11.0,0.0
3708,55.0,4,50,12.0,0.0
3709,60.0,0,50,12.0,0.0
3710,81.0,2,600,10.0,0.0
3711,69.0,53,600,11.0,0.0
3712,51.0,2,360,4.0,0.0
3713,63.0,0,360,4.0,0.0
3714,63.0,64,50,12.0,0.0
3715,60.0,0,50,12.0,0.0
3716,63.0,6,360,2.0,0.0
3717,48.0,56,110,13.0,0.0
3718,42.0,0,110,13.0,0.0
3719,30.0,0,720,3.0,0.0
3720,30.0,2,710,14.0,0.0
3721,51.0,43,360,3.0,0.0
3722,60.0,0,110,12.0,0.0
3723,63.0,64,110,12.0,0.0
3724,48.0,0,110,13.0,0.0
3725,42.0,56,110,13.0,0.0
3726,63.0,60,110,12.0,0.0
3727,60.0,0,110,12.0,0.0
3728,42.0,5,110,13.0,0.0
3729,48.0,0,110,13.0,0.0
3730,63.0,4,50,12.0,0.0
3731,60.0,0,50,12.0,0.0
3732,72.0,0,360,4.0,0.0
3733,60.0,2,360,4.0,0.0
3734,72.0,0,50,12.0,0.0
3735,63.0,64,50,12.0,0.0
3736,72.0,6,360,2.0,0.0
3737,42.0,0,110,13.0,0.0
3738,48.0,56,110,13.0,0.0
3739,60.0,43,360,3.0,0.0
3740,72.0,64,110,12.0,0.0
3741,63.0,0,110,12.0,0.0
3742,48.0,0,110,13.0,0.0
3743,42.0,1,110,13.0,0.0
3744,72.0,5,110,12.0,0.0
3745,63.0,0,110,12.0,0.0
3746,82.0,2,60,10.0,0.0
3747,70.0,48,60,11.0,0.0
3748,42.0,3,110,13.0,0.0
3749,48.0,0,110,13.0,0.0
3750,84.0,2,50,10.0,0.0
3751,72.0,3,50,11.0,0.0
3752,72.0,4,50,12.0,0.0
3753,63.0,0,50,12.0,0.0
3754,82.0,2,100,10.0,0.0
3755,70.0,17,100,11.0,0.0
3756,52.0,0,240,4.0,0.0
3757,64.0,2,240,4.0,0.0
3758,64.0,0,50,12.0,0.0
3759,60.0,45,50,12.0,0.0
3760,64.0,6,240,2.0,0.0
3761,43.0,56,110,13.0,0.0
3762,48.0,0,110,13.0,0.0
3763,31.0,43,360,3.0,0.0
3764,52.0,43,240,3.0,0.0
3765,31.0,10,350,14.0,0.0
3766,60.0,31,110,12.0,0.0
3767,64.0,0,110,12.0,0.0
3768,88.0,2,86,10.0,0.0
3769,76.0,31,86,11.0,0.0
3770,43.0,0,110,13.0,0.0
3771,48.0,5,110,13.0,0.0
3772,64.0,31,110,12.0,0.0
3773,60.0,0,110,12.0,0.0
3774,86.0,2,86,10.0,0.0
3775,74.0,27,86,11.0,0.0
3776,48.0,0,110,13.0,0.0
3777,43.0,3,110,13.0,0.0
3778,64.0,4,50,12.0,0.0
3779,60.0,0,50,12.0,0.0
3780,84.0,2,170,10.0,0.0
3781,77.0,1,360,0.0,0.0
3782,72.0,3,170,11.0,0.0
3783,65.0,3,1320,6.0,0.0
3784,65.0,2,360,1.0,0.0
3785,60.0,64,50,12.0,0.0
3786,65.0,0,50,12.0,0.0
3787,65.0,6,360,5.0,0.0
3788,53.0,0,360,5.0,0.0
3789,45.0,51,110,13.0,0.0
3790,53.0,0,110,13.0,0.0
3791,53.0,43,1080,3.0,0.0
3792,33.0,43,360,3.0,0.0
3793,33.0,2,350,14.0,0.0
3794,65.0,55,110,12.0,0.0
3795,60.0,0,110,12.0,0.0
3796,45.0,0,110,13.0,0.0
3797,53.0,51,110,13.0,0.0
3798,76.0,2,50,10.0,0.0
3799,64.0,7,50,11.0,0.0
3800,65.0,0,110,12.0,0.0
3801,60.0,55,110,12.0,0.0
3802,77.0,2,50,10.0,0.0
3803,65.0,3,50,11.0,0.0
3804,45.0,0,110,13.0,0.0
3805,53.0,2,110,13.0,0.0
3806,81.0,2,50,10.0,0.0
3807,69.0,3,50,11.0,0.0
3808,60.0,0,50,12.0,0.0
3809,65.0,4,50,12.0,0.0
3810,86.0,2,600,10.0,0.0
3811,80.0,2,360,0.0,0.0
3812,74.0,0,600,11.0,0.0
3813,68.0,1,360,6.0,0.0
3814,68.0,8,360,1.0,0.0
3815,68.0,0,50,12.0,0.0
3816,65.0,64,50,12.0,0.0
3817,68.0,6,600,2.0,0.0
3818,68.0,3,590,5.0,0.0
3819,65.0,0,600,2.0,0.0
3820,65.0,6,720,5.0,0.0
3821,53.0,0,110,13.0,0.0
3822,47.0,56,110,13.0,0.0
3823,35.0,4,590,14.0,0.0
3824,56.0,43,360,3.0,0.0
3825,35.0,43,600,3.0,0.0
3826,65.0,0,110,12.0,0.0
3827,68.0,64,110,12.0,0.0
3828,53.0,0,110,13.0,0.0
3829,47.0,56,110,13.0,0.0
3830,65.0,60,110,12.0,0.0
3831,68.0,0,110,12.0,0.0
3832,53.0,2,110,13.0,0.0
3833,47.0,0,110,13.0,0.0
3834,68.0,4,50,12.0,0.0
3835,65.0,0,50,12.0,0.0
3836,86.0,2,360,0.0,0.0
3837,77.0,1,360,6.0,0.0
3838,74.0,2,360,1.0,0.0
3839,68.0,64,50,12.0,0.0
3840,77.0,0,50,12.0,0.0
3841,47.0,56,110,13.0,0.0
3842,53.0,0,110,13.0,0.0
3843,65.0,0,360,3.0,0.0
3844,77.0,60,110,12.0,0.0
3845,68.0,0,110,12.0,0.0
3846,53.0,0,110,13.0,0.0
3847,47.0,1,110,13.0,0.0
3848,77.0,5,110,12.0,0.0
3849,68.0,1,50,12.0,0.0
3850,88.0,2,60,10.0,0.0
3851,76.0,48,60,11.0,0.0
3852,69.0,0,50,12.0,0.0
3853,65.0,3,230,2.0,0.0
3854,69.0,0,230,2.0,0.0
3855,69.0,0,120,5.0,0.0
3856,53.0,0,110,13.0,0.0
3857,48.0,2,110,13.0,0.0
3858,36.0,0,230,3.0,0.0
3859,36.0,0,230,14.0,0.0
3860,89.0,2,50,10.0,0.0
3861,77.0,7,50,11.0,0.0
3862,69.0,0,110,12.0,0.0
3863,77.0,55,110,12.0,0.0
3864,84.0,2,110,10.0,0.0
3865,81.0,3,230,0.0,0.0
3866,72.0,4,110,11.0,0.0
3867,69.0,0,240,6.0,0.0
3868,69.0,5,230,1.0,0.0
3869,57.0,49,240,5.0,0.0
3870,72.0,0,240,5.0,0.0
3871,53.0,0,110,13.0,0.0
3872,48.0,3,110,13.0,0.0
3873,53.0,3,110,3.0,0.0
3874,57.0,0,110,3.0,0.0
3875,69.0,0,60,12.0,0.0
3876,77.0,50,60,12.0,0.0
3877,93.0,2,60,10.0,0.0
3878,81.0,4,60,11.0,0.0
3879,72.0,0,50,12.0,0.0
3880,63.0,5,50,12.0,0.0
3881,75.0,6,60,2.0,0.0
3882,72.0,0,60,2.0,0.0
3883,53.0,0,110,13.0,0.0
3884,57.0,4,110,13.0,0.0
3885,41.0,228,240,3.0,0.0
3886,41.0,10,230,14.0,0.0
3887,63.0,39,60,3.0,0.0
3888,60.0,0,60,3.0,0.0
3889,63.0,0,110,12.0,0.0
3890,72.0,5,110,12.0,0.0
3891,91.0,2,60,10.0,0.0
3892,79.0,4,60,11.0,0.0
3893,69.0,0,60,2.0,0.0
3894,63.0,6,60,2.0,0.0
3895,57.0,0,110,13.0,0.0
3896,53.0,3,110,13.0,0.0
3897,57.0,0,60,3.0,0.0
3898,51.0,43,60,3.0,0.0
3899,72.0,0,50,12.0,0.0
3900,63.0,4,50,12.0,0.0
3901,89.0,2,240,10.0,0.0
3902,77.0,58,240,11.0,0.0
3903,58.0,1,350,4.0,0.0
3904,58.0,1,350,12.0,0.0
3905,50.0,0,350,12.0,0.0
3906,62.0,3,350,2.0,0.0
3907,65.0,0,350,5.0,0.0
3908,70.0,0,350,2.0,0.0
3909,46.0,3,350,13.0,0.0
3910,22.0,0,350,3.0,0.0
3911,46.0,118,350,3.0,0.0
3912,58.0,0,350,3.0,0.0
3913,34.0,0,350,14.0,0.0
3914,86.0,2,60,10.0,0.0
3915,74.0,48,60,11.0,0.0
3916,82.0,2,50,10.0,0.0
3917,70.0,122,50,11.0,0.0
3918,82.0,2,240,10.0,0.0
3919,70.0,58,240,11.0,0.0
3920,61.0,1,350,4.0,0.0
3921,61.0,1,350,12.0,0.0
3922,73.0,0,350,2.0,0.0
3923,66.0,0,350,5.0,0.0
3924,70.0,3,350,2.0,0.0
3925,58.0,3,350,13.0,0.0
3926,34.0,0,350,3.0,0.0
3927,58.0,0,350,3.0,0.0
3928,61.0,118,350,3.0,0.0
3929,46.0,0,350,14.0,0.0
3930,78.0,2,60,10.0,0.0
3931,66.0,48,60,11.0,0.0
3932,73.0,2,50,10.0,0.0
3933,61.0,122,50,11.0,0.0
3934,73.0,2,240,10.0,0.0
3935,61.0,58,240,11.0,0.0
3936,61.0,0,350,4.0,0.0
3937,70.0,1,350,4.0,0.0
3938,61.0,1,350,12.0,0.0
3939,70.0,0,350,12.0,0.0
3940,67.0,0,350,5.0,0.0
3941,82.0,3,350,2.0,0.0
3942,73.0,0,350,2.0,0.0
3943,58.0,3,350,13.0,0.0
3944,67.0,0,350,3.0,0.0
3945,46.0,0,350,14.0,0.0
3946,46.0,0,350,3.0,0.0
3947,61.0,118,350,3.0,0.0
3948,70.0,2,60,10.0,0.0
3949,58.0,48,60,11.0,0.0
3950,67.0,2,50,10.0,0.0
3951,55.0,122,50,11.0,0.0
3952,67.0,2,240,10.0,0.0
3953,67.0,58,240,11.0,0.0
3954,72.0,0,230,6.0,0.0
3955,60.0,1,230,6.0,0.0
3956,55.0,1,230,4.0,0.0
3957,64.0,0,230,4.0,0.0
3958,52.0,0,230,12.0,0.0
3959,60.0,1,230,12.0,0.0
3960,60.0,0,230,5.0,0.0
3961,76.0,0,230,2.0,0.0
3962,48.0,3,230,5.0,0.0
3963,72.0,0,230,2.0,0.0
3964,46.0,3,230,13.0,0.0
3965,34.0,0,230,3.0,0.0
3966,34.0,0,230,14.0,0.0
3967,53.0,73,230,3.0,0.0
3968,57.0,0,230,3.0,0.0
3969,64.0,2,60,10.0,0.0
3970,64.0,48,60,11.0,0.0
3971,60.0,2,50,10.0,0.0
3972,60.0,1,50,11.0,0.0
3973,72.0,2,75,10.0,0.0
3974,72.0,3,75,11.0,0.0
3975,65.0,1,120,6.0,0.0
3976,77.0,0,120,6.0,0.0
3977,48.0,0,120,4.0,0.0
3978,60.0,117,120,4.0,0.0
3979,65.0,43,75,12.0,0.0
3980,53.0,0,75,12.0,0.0
3981,60.0,0,75,12.0,0.0
3982,45.0,3,240,13.0,0.0
3983,33.0,0,240,3.0,0.0
3984,33.0,0,240,14.0,0.0
3985,84.0,0,120,0.0,0.0
3986,89.0,3,120,0.0,0.0
3987,77.0,0,120,1.0,0.0
3988,72.0,2,120,1.0,0.0
3989,72.0,3,120,2.0,0.0
3990,77.0,0,120,2.0,0.0
3991,65.0,0,120,5.0,0.0
3992,57.0,0,120,5.0,0.0
3993,65.0,0,120,3.0,0.0
3994,57.0,57,120,3.0,0.0
3995,81.0,0,110,0.0,0.0
3996,77.0,3,110,0.0,0.0
3997,69.0,2,110,1.0,0.0
3998,65.0,0,110,1.0,0.0
3999,53.0,0,110,5.0,0.0
4000,57.0,0,110,5.0,0.0
4001,69.0,3,110,2.0,0.0
4002,65.0,0,110,2.0,0.0
4003,46.0,3,60,13.0,0.0
4004,34.0,39,60,3.0,0.0
4005,57.0,0,110,3.0,0.0
4006,53.0,0,110,3.0,0.0
4007,34.0,0,60,14.0,0.0
4008,48.0,3,50,13.0,0.0
4009,36.0,0,50,14.0,0.0
4010,36.0,127,50,3.0,0.0
4011,69.0,1,240,10.0,0.0
4012,84.0,3,360,0.0,0.0
4013,81.0,1,240,0.0,0.0
4014,69.0,2,240,11.0,0.0
4015,72.0,1,350,6.0,0.0
4016,60.0,0,350,6.0,0.0
4017,69.0,0,240,1.0,0.0
4018,72.0,0,360,1.0,0.0
4019,60.0,0,240,4.0,0.0
4020,57.0,1,240,4.0,0.0
4021,60.0,1,240,12.0,0.0
4022,60.0,0,360,5.0,0.0
4023,72.0,6,360,2.0,0.0
4024,69.0,6,240,2.0,0.0
4025,48.0,0,360,5.0,0.0
4026,50.0,3,120,13.0,0.0
4027,57.0,48,240,3.0,0.0
4028,36.0,0,240,3.0,0.0
4029,60.0,0,360,3.0,0.0
4030,38.0,108,120,14.0,0.0
4031,67.0,2,60,10.0,0.0
4032,76.0,0,120,0.0,0.0
4033,67.0,3,60,11.0,0.0
4034,55.0,1,110,4.0,0.0
4035,64.0,2,120,1.0,0.0
4036,58.0,0,110,4.0,0.0
4037,58.0,45,60,12.0,0.0
4038,64.0,0,120,2.0,0.0
4039,58.0,111,120,3.0,0.0
4040,65.0,2,50,10.0,0.0
4041,65.0,1,50,11.0,0.0
4042,57.0,6,50,12.0,0.0
4043,65.0,2,240,10.0,0.0
4044,65.0,2,240,11.0,0.0
4045,72.0,1,120,6.0,0.0
4046,60.0,0,120,6.0,0.0
4047,57.0,116,120,4.0,0.0
4048,48.0,0,120,4.0,0.0
4049,57.0,1,240,12.0,0.0
4050,45.0,3,240,13.0,0.0
4051,45.0,0,240,14.0,0.0
4052,72.0,1,120,1.0,0.0
4053,77.0,0,120,1.0,0.0
4054,77.0,0,120,2.0,0.0
4055,72.0,0,120,2.0,0.0
4056,57.0,0,120,5.0,0.0
4057,65.0,3,120,5.0,0.0
4058,57.0,0,120,3.0,0.0
4059,65.0,57,120,3.0,0.0
4060,65.0,0,110,1.0,0.0
4061,69.0,2,110,1.0,0.0
4062,57.0,0,110,5.0,0.0
4063,53.0,0,110,5.0,0.0
4064,65.0,0,110,2.0,0.0
4065,69.0,3,110,2.0,0.0
4066,46.0,3,60,13.0,0.0
4067,46.0,42,60,14.0,0.0
4068,53.0,127,110,3.0,0.0
4069,57.0,0,110,3.0,0.0
4070,48.0,3,50,13.0,0.0
4071,48.0,0,50,14.0,0.0
4072,60.0,2,240,10.0,0.0
4073,60.0,2,240,11.0,0.0
4074,60.0,1,240,4.0,0.0
4075,57.0,0,240,4.0,0.0
4076,72.0,0,350,1.0,0.0
4077,69.0,0,240,1.0,0.0
4078,57.0,1,240,12.0,0.0
4079,72.0,6,350,2.0,0.0
4080,48.0,49,360,5.0,0.0
4081,69.0,6,240,2.0,0.0
4082,60.0,0,360,5.0,0.0
4083,50.0,3,120,13.0,0.0
4084,60.0,48,240,3.0,0.0
4085,57.0,0,240,3.0,0.0
4086,50.0,108,120,14.0,0.0
4087,58.0,2,60,10.0,0.0
4088,58.0,3,60,11.0,0.0
4089,64.0,1,110,1.0,0.0
4090,55.0,0,110,4.0,0.0
4091,58.0,0,110,4.0,0.0
4092,55.0,45,60,12.0,0.0
4093,64.0,0,110,2.0,0.0
4094,52.0,0,110,3.0,0.0
4095,48.0,4,110,3.0,0.0
4096,57.0,2,50,10.0,0.0
4097,57.0,2,50,11.0,0.0
4098,53.0,1,50,12.0,0.0
4099,57.0,1,240,10.0,0.0
4100,89.0,0,120,0.0,0.0
4101,77.0,3,120,0.0,0.0
4102,57.0,4,240,11.0,0.0
4103,57.0,0,120,4.0,0.0
4104,48.0,2,120,4.0,0.0
4105,53.0,66,50,12.0,0.0
4106,41.0,3,120,13.0,0.0
4107,53.0,0,120,3.0,0.0
4108,53.0,65,110,12.0,0.0
4109,89.0,0,120,0.0,0.0
4110,77.0,1,120,0.0,0.0
4111,77.0,0,0,2.0,0.0
4112,65.0,3,0,2.0,0.0
4113,41.0,0,0,3.0,0.0
4114,53.0,0,120,3.0,0.0
4115,29.0,43,0,14.0,0.0
4116,53.0,66,110,12.0,0.0
4117,77.0,0,0,2.0,0.0
4118,65.0,6,0,2.0,0.0
4119,29.0,0,0,14.0,0.0
4120,53.0,65,470,12.0,0.0
4121,69.0,9,117,10.0,0.0
4122,77.0,0,0,0.0,0.0
4123,89.0,5,0,0.0,0.0
4124,65.0,65,50,11.0,0.0
4125,53.0,3,120,5.0,0.0
4126,65.0,0,0,2.0,0.0
4127,65.0,0,120,5.0,0.0
4128,77.0,6,0,2.0,0.0
4129,57.0,43,120,13.0,0.0
4130,53.0,0,0,3.0,0.0
4131,29.0,0,0,14.0,0.0
4132,41.0,40,0,3.0,0.0
4133,65.0,65,110,11.0,0.0
4134,69.0,9,117,10.0,0.0
4135,57.0,43,120,13.0,0.0
4136,65.0,58,110,11.0,0.0
4137,69.0,1,110,10.0,0.0
4138,53.0,3,0,5.0,0.0
4139,65.0,0,0,5.0,0.0
4140,57.0,3,120,13.0,0.0
4141,65.0,65,470,11.0,0.0
4142,69.0,1,120,10.0,0.0
4143,77.0,5,120,0.0,0.0
4144,89.0,0,120,0.0,0.0
4145,65.0,3,120,2.0,0.0
4146,77.0,0,120,2.0,0.0
4147,65.0,0,0,5.0,0.0
4148,53.0,3,0,5.0,0.0
4149,57.0,3,120,13.0,0.0
4150,55.0,0,120,3.0,0.0
4151,53.0,66,110,12.0,0.0
4152,70.0,6,230,10.0,0.0
4153,58.0,3,240,13.0,0.0
4154,31.0,0,0,14.0,0.0
4155,43.0,43,0,3.0,0.0
4156,53.0,55,110,12.0,0.0
4157,77.0,5,0,0.0,0.0
4158,89.0,0,0,0.0,0.0
4159,77.0,6,0,2.0,0.0
4160,65.0,0,0,2.0,0.0
4161,55.0,0,0,3.0,0.0
4162,31.0,40,120,14.0,0.0
4163,43.0,0,120,3.0,0.0
4164,53.0,56,470,12.0,0.0
4165,72.0,9,117,10.0,0.0
4166,89.0,5,0,0.0,0.0
4167,77.0,0,0,0.0,0.0
4168,77.0,3,0,2.0,0.0
4169,65.0,0,350,2.0,0.0
4170,60.0,43,120,13.0,0.0
4171,45.0,4,350,3.0,0.0
4172,57.0,0,350,3.0,0.0
4173,33.0,40,360,14.0,0.0
4174,65.0,65,110,11.0,0.0
4175,72.0,9,117,10.0,0.0
4176,53.0,3,0,5.0,0.0
4177,65.0,0,0,5.0,0.0
4178,60.0,43,120,13.0,0.0
4179,65.0,58,110,11.0,0.0
4180,72.0,1,110,10.0,0.0
4181,53.0,0,120,5.0,0.0
4182,65.0,3,110,11.0,0.0
4183,72.0,2,120,10.0,0.0
4184,77.0,0,110,0.0,0.0
4185,89.0,5,110,0.0,0.0
4186,77.0,4,110,2.0,0.0
4187,65.0,3,0,5.0,0.0
4188,53.0,0,350,5.0,0.0
4189,60.0,3,0,13.0,0.0
4190,46.0,7,110,3.0,0.0
4191,34.0,40,120,14.0,0.0
4192,58.0,0,110,3.0,0.0
4193,65.0,3,110,11.0,0.0
4194,53.0,56,110,12.0,0.0
4195,74.0,9,180,10.0,0.0
4196,89.0,5,110,0.0,0.0
4197,77.0,0,110,0.0,0.0
4198,77.0,6,110,2.0,0.0
4199,62.0,41,180,13.0,0.0
4200,34.0,40,120,14.0,0.0
4201,46.0,10,110,3.0,0.0
4202,58.0,0,110,3.0,0.0
4203,70.0,3,110,11.0,0.0
4204,58.0,5,110,12.0,0.0
4205,89.0,5,110,0.0,0.0
4206,77.0,0,110,0.0,0.0
4207,77.0,6,110,2.0,0.0
4208,47.0,7,110,3.0,0.0
4209,59.0,0,110,3.0,0.0
4210,35.0,40,120,14.0,0.0
4211,75.0,1,50,10.0,0.0
4212,69.0,3,110,11.0,0.0
4213,57.0,65,110,12.0,0.0
4214,75.0,1,120,10.0,0.0
4215,89.0,1,120,0.0,0.0
4216,77.0,0,120,0.0,0.0
4217,65.0,0,120,5.0,0.0
4218,77.0,3,120,2.0,0.0
4219,63.0,3,0,13.0,0.0
4220,60.0,4,110,3.0,0.0
4221,36.0,40,120,14.0,0.0
4222,48.0,0,110,3.0,0.0
4223,67.0,3,110,11.0,0.0
4224,55.0,67,110,12.0,0.0
4225,76.0,9,180,10.0,0.0
4226,76.0,5,230,0.0,0.0
4227,88.0,0,230,0.0,0.0
4228,76.0,6,230,2.0,0.0
4229,64.0,0,230,5.0,0.0
4230,64.0,41,180,13.0,0.0
4231,36.0,40,120,14.0,0.0
4232,60.0,0,110,3.0,0.0
4233,48.0,10,110,3.0,0.0
4234,72.0,3,110,11.0,0.0
4235,60.0,5,110,12.0,0.0
4236,37.0,40,120,14.0,0.0
4237,49.0,7,110,3.0,0.0
4238,61.0,0,110,3.0,0.0
4239,81.0,1,50,10.0,0.0
4240,70.0,3,110,11.0,0.0
4241,58.0,5,110,12.0,0.0
4242,57.0,3,60,13.0,0.0
4243,79.0,60,60,10.0,0.0
4244,91.0,1,120,0.0,0.0
4245,79.0,0,120,0.0,0.0
4246,79.0,0,120,2.0,0.0
4247,67.0,3,120,5.0,0.0
4248,50.0,4,110,3.0,0.0
4249,62.0,0,110,3.0,0.0
4250,38.0,40,120,14.0,0.0
4251,77.0,1,60,10.0,0.0
4252,69.0,3,110,11.0,0.0
4253,57.0,5,110,12.0,0.0
4254,76.0,60,60,10.0,0.0
4255,77.0,5,230,0.0,0.0
4256,89.0,0,230,0.0,0.0
4257,65.0,3,240,5.0,0.0
4258,77.0,6,230,2.0,0.0
4259,50.0,3,0,13.0,0.0
4260,50.0,0,110,3.0,0.0
4261,62.0,7,110,3.0,0.0
4262,77.0,2,60,10.0,0.0
4263,69.0,3,110,11.0,0.0
4264,57.0,5,110,12.0,0.0
4265,81.0,50,60,10.0,0.0
4266,50.0,3,0,13.0,0.0
4267,62.0,4,110,3.0,0.0
4268,50.0,0,110,3.0,0.0
4269,38.0,40,0,14.0,0.0
4270,86.0,1,50,10.0,0.0
4271,69.0,3,110,11.0,0.0
4272,58.0,5,110,12.0,0.0
4273,89.0,4,60,10.0,0.0
4274,89.0,0,350,0.0,0.0
4275,86.0,1,350,0.0,0.0
4276,77.0,0,60,1.0,0.0
4277,74.0,2,60,1.0,0.0
4278,62.0,5,360,4.0,0.0
4279,55.0,0,360,4.0,0.0
4280,74.0,0,60,2.0,0.0
4281,77.0,54,60,2.0,0.0
4282,65.0,0,350,5.0,0.0
4283,43.0,0,110,3.0,0.0
4284,55.0,7,110,3.0,0.0
4285,86.0,2,60,10.0,0.0
4286,71.0,3,110,11.0,0.0
4287,59.0,5,110,12.0,0.0
4288,83.0,60,60,10.0,0.0
4289,83.0,0,230,1.0,0.0
4290,71.0,1,230,1.0,0.0
4291,74.0,0,230,2.0,0.0
4292,77.0,6,230,2.0,0.0
4293,43.0,3,0,13.0,0.0
4294,55.0,7,110,3.0,0.0
4295,43.0,0,110,3.0,0.0
4296,31.0,40,0,14.0,0.0
4297,77.0,2,60,10.0,0.0
4298,74.0,3,110,11.0,0.0
4299,62.0,5,110,12.0,0.0
4300,74.0,50,60,10.0,0.0
4301,43.0,3,120,13.0,0.0
4302,31.0,40,0,14.0,0.0
4303,55.0,0,110,3.0,0.0
4304,43.0,1,110,3.0,0.0
4305,71.0,1,50,10.0,0.0
4306,77.0,2,50,11.0,0.0
4307,65.0,1,50,12.0,0.0
4308,72.0,1,60,10.0,0.0
4309,84.0,2,60,0.0,0.0
4310,89.0,0,60,0.0,0.0
4311,65.0,3,50,11.0,0.0
4312,69.0,0,50,11.0,0.0
4313,77.0,0,0,6.0,0.0
4314,65.0,1,0,6.0,0.0
4315,60.0,0,710,7.0,0.0
4316,65.0,3,710,7.0,0.0
4317,48.0,0,60,4.0,0.0
4318,84.0,0,60,1.0,0.0
4319,72.0,0,60,1.0,0.0
4320,60.0,2,60,4.0,0.0
4321,72.0,0,50,12.0,0.0
4322,60.0,5,50,12.0,0.0
4323,57.0,0,60,5.0,0.0
4324,77.0,0,60,2.0,0.0
4325,72.0,106,60,2.0,0.0
4326,65.0,0,60,5.0,0.0
4327,45.0,5,710,8.0,0.0
4328,45.0,3,720,13.0,0.0
4329,33.0,0,710,3.0,0.0
4330,45.0,0,710,3.0,0.0
4331,57.0,7,710,3.0,0.0
4332,33.0,40,720,14.0,0.0
4333,69.0,0,110,11.0,0.0
4334,65.0,3,110,11.0,0.0
4335,60.0,117,110,12.0,0.0
4336,72.0,0,110,12.0,0.0
4337,65.0,0,110,11.0,0.0
4338,69.0,3,110,11.0,0.0
4339,60.0,0,110,12.0,0.0
4340,72.0,105,110,12.0,0.0
4341,69.0,0,110,11.0,0.0
4342,65.0,3,110,11.0,0.0
4343,72.0,25,110,12.0,0.0
4344,60.0,0,110,12.0,0.0
4345,57.0,12,40,10.0,0.0
4346,60.0,40,40,10.0,0.0
4347,69.0,3,110,11.0,0.0
4348,65.0,0,110,11.0,0.0
4349,72.0,0,110,12.0,0.0
4350,60.0,25,110,12.0,0.0
4351,65.0,40,40,10.0,0.0
4352,69.0,12,40,10.0,0.0
4353,72.0,40,40,10.0,0.0
4354,69.0,0,110,11.0,0.0
4355,65.0,3,110,11.0,0.0
4356,72.0,0,110,12.0,0.0
4357,60.0,5,110,12.0,0.0
4358,77.0,52,40,10.0,0.0
4359,81.0,54,60,10.0,0.0
4360,65.0,0,110,11.0,0.0
4361,69.0,0,60,11.0,0.0
4362,60.0,0,110,12.0,0.0
4363,72.0,5,110,12.0,0.0
4364,79.0,112,60,10.0,0.0
4365,67.0,3,50,11.0,0.0
4366,55.0,1,710,7.0,0.0
4367,65.0,1,360,7.0,0.0
4368,48.0,5,710,8.0,0.0
4369,48.0,3,720,13.0,0.0
4370,60.0,0,710,3.0,0.0
4371,36.0,23,720,14.0,0.0
4372,48.0,7,710,3.0,0.0
4373,36.0,0,710,3.0,0.0
4374,67.0,0,110,11.0,0.0
4375,65.0,3,110,11.0,0.0
4376,72.0,117,110,12.0,0.0
4377,60.0,0,110,12.0,0.0
4378,65.0,3,110,11.0,0.0
4379,67.0,0,110,11.0,0.0
4380,60.0,67,110,12.0,0.0
4381,72.0,0,110,12.0,0.0
4382,67.0,18,120,11.0,0.0
4383,65.0,2,60,11.0,0.0
4384,60.0,7,110,12.0,0.0
4385,72.0,35,60,12.0,0.0
4386,60.0,12,40,10.0,0.0
4387,64.0,3,50,11.0,0.0
4388,64.0,0,350,7.0,0.0
4389,70.0,0,50,12.0,0.0
4390,64.0,40,40,10.0,0.0
4391,64.0,3,110,11.0,0.0
4392,67.0,0,110,11.0,0.0
4393,60.0,25,110,12.0,0.0
4394,70.0,0,110,12.0,0.0
4395,67.0,40,40,10.0,0.0
4396,72.0,12,40,10.0,0.0
4397,76.0,40,40,10.0,0.0
4398,67.0,0,110,11.0,0.0
4399,64.0,3,110,11.0,0.0
4400,60.0,5,110,12.0,0.0
4401,70.0,0,110,12.0,0.0
4402,79.0,52,40,10.0,0.0
4403,84.0,54,60,10.0,0.0
4404,67.0,0,60,11.0,0.0
4405,64.0,0,60,11.0,0.0
4406,60.0,29,90,12.0,0.0
4407,70.0,2,50,12.0,0.0
4408,77.0,1,710,10.0,0.0
4409,77.0,2,710,0.0,0.0
4410,65.0,0,120,11.0,0.0
4411,72.0,10,120,11.0,0.0
4412,65.0,0,710,6.0,0.0
4413,77.0,1,710,6.0,0.0
4414,60.0,3,60,7.0,0.0
4415,65.0,0,60,7.0,0.0
4416,60.0,0,710,4.0,0.0
4417,77.0,0,710,1.0,0.0
4418,65.0,2,710,4.0,0.0
4419,69.0,0,30,12.0,0.0
4420,57.0,0,710,5.0,0.0
4421,65.0,0,710,5.0,0.0
4422,72.0,6,710,2.0,0.0
4423,57.0,2,60,8.0,0.0
4424,57.0,3,60,13.0,0.0
4425,45.0,50,60,14.0,0.0
4426,57.0,0,710,3.0,0.0
4427,45.0,43,120,3.0,0.0
4428,60.0,3,710,3.0,0.0
4429,60.0,0,110,12.0,0.0
4430,65.0,120,110,12.0,0.0
4431,65.0,114,110,12.0,0.0
4432,60.0,0,110,12.0,0.0
4433,65.0,34,110,12.0,0.0
4434,60.0,0,110,12.0,0.0
4435,45.0,6,40,13.0,0.0
4436,48.0,40,40,13.0,0.0
4437,60.0,0,110,12.0,0.0
4438,65.0,14,110,12.0,0.0
4439,53.0,33,40,13.0,0.0
4440,57.0,13,40,11.0,0.0
4441,57.0,13,60,13.0,0.0
4442,60.0,40,40,11.0,0.0
4443,60.0,27,110,12.0,0.0
4444,65.0,0,110,12.0,0.0
4445,65.0,40,40,11.0,0.0
4446,69.0,13,40,11.0,0.0
4447,72.0,28,40,11.0,0.0
4448,60.0,50,60,12.0,0.0
4449,65.0,0,60,12.0,0.0
4450,77.0,0,40,11.0,0.0
4451,80.0,0,710,10.0,0.0
4452,63.0,55,120,10.0,0.0
4453,72.0,1,710,10.0,0.0
4454,80.0,1,710,0.0,0.0
4455,80.0,7,60,11.0,0.0
4456,72.0,1,710,6.0,0.0
4457,75.0,0,710,6.0,0.0
4458,63.0,0,710,4.0,0.0
4459,78.0,0,710,1.0,0.0
4460,80.0,1,710,1.0,0.0
4461,68.0,0,710,4.0,0.0
4462,63.0,7,50,12.0,0.0
4463,66.0,0,50,12.0,0.0
4464,66.0,0,710,5.0,0.0
4465,54.0,0,710,5.0,0.0
4466,72.0,0,710,2.0,0.0
4467,75.0,6,710,2.0,0.0
4468,56.0,3,60,13.0,0.0
4469,44.0,48,60,14.0,0.0
4470,60.0,0,710,3.0,0.0
4471,56.0,58,710,3.0,0.0
4472,66.0,0,110,12.0,0.0
4473,63.0,120,110,12.0,0.0
4474,66.0,114,110,12.0,0.0
4475,63.0,0,110,12.0,0.0
4476,66.0,34,110,12.0,0.0
4477,63.0,0,110,12.0,0.0
4478,44.0,6,40,13.0,0.0
4479,48.0,40,40,13.0,0.0
4480,63.0,14,110,12.0,0.0
4481,66.0,0,110,12.0,0.0
4482,51.0,33,40,13.0,0.0
4483,56.0,13,40,11.0,0.0
4484,56.0,13,60,13.0,0.0
4485,60.0,40,40,11.0,0.0
4486,63.0,27,110,12.0,0.0
4487,66.0,0,110,12.0,0.0
4488,63.0,40,40,11.0,0.0
4489,68.0,13,40,11.0,0.0
4490,72.0,28,40,11.0,0.0
4491,63.0,0,50,12.0,0.0
4492,66.0,1,50,12.0,0.0
4493,80.0,1,30,11.0,0.0
4494,89.0,1,60,10.0,0.0
4495,89.0,0,60,0.0,0.0
4496,80.0,1,60,0.0,0.0
4497,68.0,1,60,11.0,0.0
4498,77.0,0,60,11.0,0.0
4499,68.0,0,60,6.0,0.0
4500,77.0,1,60,6.0,0.0
4501,65.0,0,60,4.0,0.0
4502,80.0,0,60,1.0,0.0
4503,61.0,1,60,4.0,0.0
4504,77.0,0,60,1.0,0.0
4505,61.0,0,60,12.0,0.0
4506,65.0,1,60,12.0,0.0
4507,77.0,3,60,2.0,0.0
4508,73.0,0,60,2.0,0.0
4509,56.0,0,60,5.0,0.0
4510,65.0,0,60,5.0,0.0
4511,49.0,3,60,13.0,0.0
4512,37.0,0,60,14.0,0.0
4513,49.0,160,60,3.0,0.0
4514,61.0,0,60,3.0,0.0
4515,73.0,120,117,10.0,0.0
4516,61.0,5,110,11.0,0.0
4517,73.0,115,117,10.0,0.0
4518,61.0,9,230,11.0,0.0
4519,73.0,2,470,10.0,0.0
4520,77.0,1,120,0.0,0.0
4521,49.0,4,117,12.0,0.0
4522,49.0,3,360,13.0,0.0
4523,53.0,100,120,3.0,0.0
4524,37.0,98,360,14.0,0.0
4525,61.0,9,110,11.0,0.0
4526,49.0,4,117,12.0,0.0
4527,65.0,6,0,2.0,0.0
4528,53.0,99,120,3.0,0.0
4529,77.0,1,0,0.0,0.0
4530,61.0,9,230,11.0,0.0
4531,49.0,5,112,12.0,0.0
4532,65.0,1,110,2.0,0.0
4533,53.0,7,110,3.0,0.0
4534,77.0,5,120,0.0,0.0
4535,49.0,6,470,12.0,0.0
4536,65.0,6,120,2.0,0.0
4537,51.0,3,360,13.0,0.0
4538,39.0,100,360,14.0,0.0
4539,53.0,100,120,3.0,0.0
4540,73.0,114,117,10.0,0.0
4541,78.0,5,230,0.0,0.0
4542,61.0,5,110,11.0,0.0
4543,66.0,1,230,2.0,0.0
4544,54.0,7,230,3.0,0.0
4545,73.0,5,117,10.0,0.0
4546,61.0,3,230,11.0,0.0
4547,73.0,11,470,10.0,0.0
4548,80.0,5,120,0.0,0.0
4549,53.0,3,360,13.0,0.0
4550,41.0,98,360,14.0,0.0
4551,80.0,5,120,0.0,0.0
4552,61.0,3,110,11.0,0.0
4553,49.0,6,110,12.0,0.0
4554,68.0,6,0,2.0,0.0
4555,56.0,100,0,3.0,0.0
4556,80.0,4,110,0.0,0.0
4557,61.0,3,240,11.0,0.0
4558,49.0,1,110,12.0,0.0
4559,68.0,6,110,2.0,0.0
4560,56.0,7,110,3.0,0.0
4561,80.0,1,120,0.0,0.0
4562,49.0,1,120,12.0,0.0
4563,68.0,6,120,2.0,0.0
4564,54.0,3,240,13.0,0.0
4565,56.0,98,120,3.0,0.0
4566,42.0,49,240,14.0,0.0
4567,73.0,12,110,10.0,0.0
4568,82.0,5,180,0.0,0.0
4569,66.0,3,120,11.0,0.0
4570,54.0,4,120,12.0,0.0
4571,70.0,6,180,2.0,0.0
4572,58.0,38,180,3.0,0.0
4573,73.0,1,110,10.0,0.0
4574,65.0,0,120,11.0,0.0
4575,53.0,4,120,12.0,0.0
4576,55.0,3,120,13.0,0.0
4577,43.0,108,120,14.0,0.0
4578,83.0,5,50,0.0,0.0
4579,71.0,6,50,2.0,0.0
4580,59.0,3,50,3.0,0.0
4581,73.0,1,120,10.0,0.0
4582,83.0,1,120,0.0,0.0
4583,63.0,3,120,11.0,0.0
4584,51.0,1,120,12.0,0.0
4585,71.0,6,120,2.0,0.0
4586,56.0,3,240,13.0,0.0
4587,59.0,98,120,3.0,0.0
4588,44.0,49,240,14.0,0.0
4589,72.0,12,110,10.0,0.0
4590,84.0,5,180,0.0,0.0
4591,68.0,3,120,11.0,0.0
4592,56.0,4,120,12.0,0.0
4593,72.0,6,180,2.0,0.0
4594,60.0,38,180,3.0,0.0
4595,72.0,1,110,10.0,0.0
4596,66.0,3,110,11.0,0.0
4597,54.0,1,110,12.0,0.0
4598,57.0,3,120,13.0,0.0
4599,45.0,54,120,14.0,0.0
4600,77.0,1,50,0.0,0.0
4601,77.0,6,50,2.0,0.0
4602,65.0,7,50,3.0,0.0
4603,72.0,2,120,10.0,0.0
4604,77.0,5,300,0.0,0.0
4605,66.0,3,120,11.0,0.0
4606,63.0,1,120,12.0,0.0
4607,75.0,54,60,2.0,0.0
4608,58.0,3,120,13.0,0.0
4609,46.0,54,120,14.0,0.0
4610,65.0,39,300,3.0,0.0
4611,73.0,3,60,2.0,0.0
4612,70.0,2,120,10.0,0.0
4613,65.0,3,120,11.0,0.0
4614,61.0,1,120,12.0,0.0
4615,72.0,54,60,2.0,0.0
4616,73.0,55,60,2.0,0.0
4617,77.0,6,60,2.0,0.0
4618,78.0,5,50,0.0,0.0
4619,82.0,6,50,2.0,0.0
4620,66.0,64,50,3.0,0.0
4621,70.0,2,120,10.0,0.0
4622,79.0,5,300,0.0,0.0
4623,67.0,3,120,11.0,0.0
4624,61.0,1,120,12.0,0.0
4625,85.0,54,60,2.0,0.0
4626,51.0,3,120,13.0,0.0
4627,39.0,54,120,14.0,0.0
4628,67.0,39,300,3.0,0.0
4629,82.0,3,60,2.0,0.0
4630,67.0,2,120,10.0,0.0
4631,61.0,3,120,11.0,0.0
4632,58.0,1,120,12.0,0.0
4633,79.0,54,60,2.0,0.0
4634,73.0,55,60,2.0,0.0
4635,70.0,6,60,2.0,0.0
4636,82.0,5,50,0.0,0.0
4637,67.0,6,50,2.0,0.0
4638,61.0,58,50,3.0,0.0
4639,68.0,2,60,10.0,0.0
4640,73.0,0,710,0.0,0.0
4641,80.0,5,710,0.0,0.0
4642,61.0,3,60,11.0,0.0
4643,56.0,64,60,12.0,0.0
4644,68.0,0,710,2.0,0.0
4645,61.0,10,710,2.0,0.0
4646,65.0,6,720,5.0,0.0
4647,53.0,0,720,5.0,0.0
4648,53.0,3,120,13.0,0.0
4649,41.0,117,120,14.0,0.0
4650,61.0,57,240,3.0,0.0
4651,53.0,48,720,3.0,0.0
4652,41.0,3,60,13.0,0.0
4653,44.0,56,60,13.0,0.0
4654,53.0,4,60,12.0,0.0
4655,49.0,56,60,13.0,0.0
4656,56.0,55,60,12.0,0.0
4657,53.0,51,120,13.0,0.0
4658,65.0,5,60,10.0,0.0
4659,61.0,4,60,12.0,0.0
4660,68.0,5,60,10.0,0.0
4661,65.0,55,60,12.0,0.0
4662,73.0,5,60,10.0,0.0
4663,68.0,55,60,12.0,0.0
4664,77.0,5,60,10.0,0.0
4665,73.0,46,60,12.0,0.0
4666,75.0,2,60,10.0,0.0
4667,80.0,5,720,0.0,0.0
4668,75.0,0,720,0.0,0.0
4669,56.0,3,60,11.0,0.0
4670,66.0,0,60,11.0,0.0
4671,72.0,67,60,12.0,0.0
4672,56.0,0,710,5.0,0.0
4673,66.0,0,720,2.0,0.0
4674,72.0,6,720,2.0,0.0
4675,63.0,5,710,5.0,0.0
4676,56.0,48,720,3.0,0.0
4677,44.0,117,120,14.0,0.0
4678,44.0,60,60,13.0,0.0
4679,51.0,56,60,13.0,0.0
4680,56.0,4,60,12.0,0.0
4681,54.0,56,60,13.0,0.0
4682,63.0,55,60,12.0,0.0
4683,56.0,51,120,13.0,0.0
4684,68.0,5,60,10.0,0.0
4685,66.0,4,60,12.0,0.0
4686,72.0,5,60,10.0,0.0
4687,68.0,55,60,12.0,0.0
4688,75.0,60,60,10.0,0.0
4689,80.0,5,60,10.0,0.0
4690,66.0,51,60,12.0,0.0
4691,73.0,2,60,10.0,0.0
4692,72.0,3,720,0.0,0.0
4693,68.0,3,60,11.0,0.0
4694,73.0,2,720,1.0,0.0
4695,53.0,55,60,12.0,0.0
4696,68.0,5,1430,5.0,0.0
4697,65.0,3,120,5.0,0.0
4698,65.0,0,720,2.0,0.0
4699,68.0,54,720,2.0,0.0
4700,53.0,3,120,13.0,0.0
4701,65.0,48,120,3.0,0.0
4702,41.0,0,120,14.0,0.0
4703,68.0,2,60,10.0,0.0
4704,61.0,3,60,11.0,0.0
4705,56.0,1,60,12.0,0.0
4706,73.0,2,60,10.0,0.0
4707,68.0,3,60,11.0,0.0
4708,53.0,55,60,12.0,0.0
4709,68.0,2,60,10.0,0.0
4710,61.0,3,60,11.0,0.0
4711,56.0,7,60,12.0,0.0
4712,41.0,48,60,3.0,0.0
4713,73.0,2,60,10.0,0.0
4714,68.0,3,60,11.0,0.0
4715,53.0,7,60,12.0,0.0
4716,44.0,48,60,3.0,0.0
4717,68.0,2,60,10.0,0.0
4718,61.0,3,60,11.0,0.0
4719,56.0,7,60,12.0,0.0
4720,49.0,48,60,3.0,0.0
4721,73.0,2,60,10.0,0.0
4722,68.0,3,60,11.0,0.0
4723,53.0,7,60,12.0,0.0
4724,53.0,48,60,3.0,0.0
4725,68.0,2,60,10.0,0.0
4726,61.0,3,60,11.0,0.0
4727,56.0,7,60,12.0,0.0
4728,56.0,48,60,3.0,0.0
4729,73.0,2,60,10.0,0.0
4730,68.0,3,60,11.0,0.0
4731,53.0,7,60,12.0,0.0
4732,61.0,48,60,3.0,0.0
4733,68.0,2,60,10.0,0.0
4734,61.0,3,60,11.0,0.0
4735,56.0,7,60,12.0,0.0
4736,65.0,48,60,3.0,0.0
4737,73.0,2,60,10.0,0.0
4738,68.0,3,60,11.0,0.0
4739,53.0,45,60,12.0,0.0
4740,68.0,48,300,3.0,0.0
4741,68.0,2,50,10.0,0.0
4742,61.0,3,50,11.0,0.0
4743,56.0,6,50,12.0,0.0
4744,71.0,2,60,10.0,0.0
4745,68.0,3,60,11.0,0.0
4746,74.0,2,720,1.0,0.0
4747,64.0,1,710,4.0,0.0
4748,76.0,0,720,1.0,0.0
4749,52.0,55,60,12.0,0.0
4750,74.0,6,720,2.0,0.0
4751,71.0,0,720,2.0,0.0
4752,52.0,3,120,13.0,0.0
4753,40.0,48,120,14.0,0.0
4754,45.0,108,720,3.0,0.0
4755,68.0,2,60,10.0,0.0
4756,62.0,3,60,11.0,0.0
4757,56.0,4,60,12.0,0.0
4758,71.0,2,60,10.0,0.0
4759,68.0,3,60,11.0,0.0
4760,52.0,7,60,12.0,0.0
4761,68.0,1,60,10.0,0.0
4762,64.0,1,60,0.0,0.0
4763,62.0,3,60,11.0,0.0
4764,56.0,55,60,12.0,0.0
4765,71.0,1,60,10.0,0.0
4766,68.0,1,60,0.0,0.0
4767,68.0,3,60,11.0,0.0
4768,52.0,55,60,12.0,0.0
4769,68.0,1,60,10.0,0.0
4770,71.0,1,60,0.0,0.0
4771,62.0,3,60,11.0,0.0
4772,56.0,55,60,12.0,0.0
4773,71.0,1,60,10.0,0.0
4774,74.0,1,60,0.0,0.0
4775,68.0,3,60,11.0,0.0
4776,52.0,55,60,12.0,0.0
4777,68.0,1,60,10.0,0.0
4778,76.0,1,60,0.0,0.0
4779,62.0,3,60,11.0,0.0
4780,56.0,55,60,12.0,0.0
4781,71.0,1,60,10.0,0.0
4782,80.0,1,60,0.0,0.0
4783,68.0,3,60,11.0,0.0
4784,52.0,55,60,12.0,0.0
4785,68.0,1,60,10.0,0.0
4786,83.0,1,60,0.0,0.0
4787,62.0,3,60,11.0,0.0
4788,56.0,55,60,12.0,0.0
4789,71.0,2,60,10.0,0.0
4790,88.0,0,300,0.0,0.0
4791,68.0,3,60,11.0,0.0
4792,52.0,45,60,12.0,0.0
4793,68.0,2,50,10.0,0.0
4794,62.0,2,50,11.0,0.0
4795,56.0,1,50,12.0,0.0
4796,73.0,2,120,10.0,0.0
4797,85.0,3,180,0.0,0.0
4798,69.0,0,120,11.0,0.0
4799,61.0,2,120,11.0,0.0
4800,85.0,0,180,1.0,0.0
4801,64.0,2,120,4.0,0.0
4802,73.0,2,180,1.0,0.0
4803,57.0,4,240,12.0,0.0
4804,69.0,55,120,5.0,0.0
4805,73.0,0,180,2.0,0.0
4806,69.0,6,180,2.0,0.0
4807,45.0,111,240,13.0,0.0
4808,45.0,53,180,3.0,0.0
4809,73.0,2,240,10.0,0.0
4810,61.0,123,240,11.0,0.0
4811,69.0,0,240,11.0,0.0
4812,57.0,4,240,12.0,0.0
4813,45.0,111,240,13.0,0.0
4814,73.0,2,240,10.0,0.0
4815,69.0,0,240,11.0,0.0
4816,53.0,4,240,12.0,0.0
4817,73.0,1,480,10.0,0.0
4818,61.0,120,0,11.0,0.0
4819,69.0,0,480,11.0,0.0
4820,62.0,1,600,10.0,0.0
4821,65.0,4,360,11.0,0.0
4822,50.0,1,600,12.0,0.0
4823,45.0,237,0,13.0,0.0
4824,65.0,6,60,2.0,0.0
4825,53.0,54,60,3.0,0.0
4826,69.0,6,60,2.0,0.0
4827,57.0,48,60,3.0,0.0
4828,74.0,1,60,0.0,0.0
4829,74.0,6,60,2.0,0.0
4830,62.0,49,60,3.0,0.0
4831,71.0,0,240,10.0,0.0
4832,77.0,5,60,0.0,0.0
4833,68.0,3,240,11.0,0.0
4834,77.0,55,60,2.0,0.0
4835,65.0,49,120,3.0,0.0
4836,80.0,5,60,0.0,0.0
4837,68.0,6,60,2.0,0.0
4838,83.0,5,60,0.0,0.0
4839,71.0,54,60,2.0,0.0
4840,74.0,3,60,2.0,0.0
4841,86.0,1,0,0.0,0.0
4842,89.0,0,60,0.0,0.0
4843,71.0,2,60,1.0,0.0
4844,80.0,0,60,1.0,0.0
4845,77.0,6,60,2.0,0.0
4846,74.0,0,60,2.0,0.0
4847,57.0,109,60,3.0,0.0
4848,62.0,0,60,3.0,0.0
4849,88.0,0,60,0.0,0.0
4850,85.0,3,60,0.0,0.0
4851,81.0,0,60,1.0,0.0
4852,73.0,2,60,1.0,0.0
4853,73.0,0,60,2.0,0.0
4854,76.0,6,60,2.0,0.0
4855,69.0,177,60,3.0,0.0
4856,57.0,0,60,3.0,0.0
4857,61.0,2,240,10.0,0.0
4858,57.0,3,240,11.0,0.0
4859,57.0,124,240,12.0,0.0
4860,45.0,111,0,13.0,0.0
4861,61.0,2,240,10.0,0.0
4862,57.0,115,240,12.0,0.0
4863,45.0,111,0,13.0,0.0
4864,41.0,357,240,13.0,0.0
4865,61.0,2,120,10.0,0.0
4866,57.0,3,0,11.0,0.0
4867,57.0,4,120,12.0,0.0
4868,61.0,1,720,10.0,0.0
4869,57.0,4,720,11.0,0.0
4870,53.0,4,960,12.0,0.0
4871,45.0,0,960,13.0,0.0
4872,38.0,3,960,13.0,0.0
4873,53.0,6,120,2.0,0.0
4874,41.0,114,120,3.0,0.0
4875,57.0,6,120,2.0,0.0
4876,45.0,114,120,3.0,0.0
4877,62.0,6,120,2.0,0.0
4878,50.0,108,120,3.0,0.0
4879,65.0,1,120,0.0,0.0
4880,65.0,6,120,2.0,0.0
4881,53.0,109,120,3.0,0.0
4882,59.0,1,240,10.0,0.0
4883,68.0,11,120,0.0,0.0
4884,56.0,3,240,11.0,0.0
4885,56.0,108,120,3.0,0.0
4886,71.0,1,120,0.0,0.0
4887,59.0,109,120,3.0,0.0
4888,74.0,11,120,0.0,0.0
4889,62.0,109,120,3.0,0.0
4890,77.0,11,120,0.0,0.0
4891,65.0,357,120,3.0,0.0
4892,45.0,0,120,13.0,0.0
4893,52.0,3,120,13.0,0.0
4894,33.0,114,120,14.0,0.0
4895,57.0,116,240,12.0,0.0
4896,64.0,0,240,12.0,0.0
4897,64.0,6,120,2.0,0.0
4898,61.0,104,120,3.0,0.0
4899,76.0,8,240,0.0,0.0
4900,66.0,6,110,2.0,0.0
4901,62.0,3,110,3.0,0.0
4902,68.0,6,240,2.0,0.0
4903,45.0,117,120,13.0,0.0
4904,52.0,0,120,13.0,0.0
4905,59.0,104,240,3.0,0.0
4906,64.0,0,240,12.0,0.0
4907,57.0,116,240,12.0,0.0
4908,76.0,8,240,0.0,0.0
4909,69.0,6,110,2.0,0.0
4910,61.0,3,110,3.0,0.0
4911,73.0,60,180,2.0,0.0
4912,45.0,0,120,13.0,0.0
4913,52.0,57,120,13.0,0.0
4914,62.0,7,470,3.0,0.0
4915,64.0,111,240,12.0,0.0
4916,57.0,0,240,12.0,0.0
4917,71.0,60,60,2.0,0.0
4918,76.0,1,240,0.0,0.0
4919,66.0,50,60,2.0,0.0
4920,68.0,9,50,2.0,0.0
4921,66.0,5,110,2.0,0.0
4922,45.0,0,120,13.0,0.0
4923,52.0,3,120,13.0,0.0
4924,33.0,114,120,14.0,0.0
4925,64.0,0,240,12.0,0.0
4926,57.0,116,240,12.0,0.0
4927,64.0,6,120,2.0,0.0
4928,61.0,104,120,3.0,0.0
4929,76.0,8,240,0.0,0.0
4930,66.0,6,110,2.0,0.0
4931,62.0,3,110,3.0,0.0
4932,68.0,6,240,2.0,0.0
4933,52.0,117,120,13.0,0.0
4934,45.0,0,120,13.0,0.0
4935,59.0,104,240,3.0,0.0
4936,64.0,0,240,12.0,0.0
4937,57.0,61,240,12.0,0.0
4938,76.0,5,240,0.0,0.0
4939,69.0,6,110,2.0,0.0
4940,61.0,3,110,3.0,0.0
4941,73.0,55,60,2.0,0.0
4942,52.0,57,120,13.0,0.0
4943,45.0,0,120,13.0,0.0
4944,62.0,54,240,3.0,0.0
4945,71.0,3,60,2.0,0.0
4946,64.0,0,240,12.0,0.0
4947,57.0,116,240,12.0,0.0
4948,66.0,60,60,2.0,0.0
4949,68.0,6,60,2.0,0.0
4950,76.0,8,240,0.0,0.0
4951,69.0,50,60,2.0,0.0
4952,61.0,3,110,3.0,0.0
4953,64.0,6,50,2.0,0.0
4954,66.0,6,240,2.0,0.0
4955,45.0,3,120,13.0,0.0
4956,52.0,0,120,13.0,0.0
4957,33.0,114,120,14.0,0.0
4958,62.0,104,240,3.0,0.0
4959,64.0,0,240,12.0,0.0
4960,57.0,116,240,12.0,0.0
4961,76.0,5,240,0.0,0.0
4962,64.0,6,110,2.0,0.0
4963,61.0,3,110,3.0,0.0
4964,66.0,3,120,2.0,0.0
4965,52.0,0,120,13.0,0.0
4966,45.0,3,120,13.0,0.0
4967,62.0,114,120,3.0,0.0
4968,64.0,116,240,12.0,0.0
4969,57.0,0,240,12.0,0.0
4970,68.0,6,120,2.0,0.0
4971,59.0,104,120,3.0,0.0
4972,76.0,8,240,0.0,0.0
4973,69.0,6,110,2.0,0.0
4974,61.0,3,110,3.0,0.0
4975,73.0,60,180,2.0,0.0
4976,45.0,57,120,13.0,0.0
4977,52.0,0,120,13.0,0.0
4978,62.0,3,350,3.0,0.0
4979,57.0,61,240,12.0,0.0
4980,64.0,0,240,12.0,0.0
4981,71.0,60,60,2.0,0.0
4982,76.0,5,240,0.0,0.0
4983,66.0,50,60,2.0,0.0
4984,68.0,6,50,2.0,0.0
4985,66.0,55,60,2.0,0.0
4986,45.0,3,120,13.0,0.0
4987,52.0,0,120,13.0,0.0
4988,60.0,54,120,3.0,0.0
4989,33.0,0,120,14.0,0.0
4990,64.0,3,60,2.0,0.0
4991,64.0,1,240,12.0,0.0
4992,57.0,0,240,12.0,0.0
4993,69.0,60,60,2.0,0.0
4994,61.0,54,120,3.0,0.0
4995,64.0,6,60,2.0,0.0
4996,76.0,1,240,0.0,0.0
4997,66.0,59,60,2.0,0.0
4998,60.0,54,120,3.0,0.0
4999,64.0,6,60,2.0,0.0
5000,69.0,50,60,2.0,0.0
5001,45.0,117,120,13.0,0.0
5002,52.0,0,120,13.0,0.0
5003,61.0,7,110,3.0,0.0
5004,64.0,5,50,2.0,0.0
5005,57.0,1,240,12.0,0.0
5006,64.0,0,240,12.0,0.0
5007,73.0,6,120,2.0,0.0
5008,64.0,110,120,3.0,0.0
5009,76.0,5,240,0.0,0.0
5010,72.0,115,120,2.0,0.0
5011,63.0,3,110,3.0,0.0
5012,71.0,3,120,2.0,0.0
5013,45.0,0,120,13.0,0.0
5014,52.0,117,120,13.0,0.0
5015,62.0,110,240,3.0,0.0
5016,64.0,0,240,12.0,0.0
5017,57.0,1,240,12.0,0.0
5018,66.0,6,120,2.0,0.0
5019,76.0,1,240,0.0,0.0
5020,68.0,110,120,2.0,0.0
5021,59.0,3,110,3.0,0.0
5022,69.0,5,110,2.0,0.0
5023,45.0,3,120,13.0,0.0
5024,52.0,0,120,13.0,0.0
5025,61.0,7,110,3.0,0.0
5026,33.0,112,120,14.0,0.0
5027,57.0,0,240,11.0,0.0
5028,64.0,4,240,11.0,0.0
5029,76.0,1,120,1.0,0.0
5030,64.0,1,120,12.0,0.0
5031,76.0,6,120,2.0,0.0
5032,64.0,102,120,3.0,0.0
5033,76.0,6,240,10.0,0.0
5034,78.0,1,110,1.0,0.0
5035,66.0,7,110,12.0,0.0
5036,75.0,6,120,2.0,0.0
5037,63.0,108,120,3.0,0.0
5038,80.0,1,240,1.0,0.0
5039,68.0,1,240,12.0,0.0
5040,71.0,3,120,2.0,0.0
5041,52.0,3,120,13.0,0.0
5042,45.0,0,120,13.0,0.0
5043,59.0,112,120,3.0,0.0
5044,57.0,0,240,11.0,0.0
5045,64.0,4,240,11.0,0.0
5046,76.0,6,120,2.0,0.0
5047,64.0,102,120,3.0,0.0
5048,76.0,6,240,10.0,0.0
5049,81.0,1,110,1.0,0.0
5050,69.0,7,110,12.0,0.0
5051,73.0,6,120,2.0,0.0
5052,61.0,108,120,3.0,0.0
5053,85.0,1,180,1.0,0.0
5054,73.0,59,180,12.0,0.0
5055,69.0,3,120,2.0,0.0
5056,45.0,0,120,13.0,0.0
5057,52.0,3,120,13.0,0.0
5058,57.0,52,120,3.0,0.0
5059,57.0,4,240,11.0,0.0
5060,64.0,0,240,11.0,0.0
5061,74.0,6,180,2.0,0.0
5062,62.0,42,180,3.0,0.0
5063,83.0,1,60,1.0,0.0
5064,71.0,59,60,12.0,0.0
5065,76.0,2,240,10.0,0.0
5066,78.0,1,60,1.0,0.0
5067,66.0,1,60,12.0,0.0
5068,80.0,1,50,1.0,0.0
5069,68.0,7,50,12.0,0.0
5070,71.0,6,60,2.0,0.0
5071,59.0,54,60,3.0,0.0
5072,78.0,1,110,1.0,0.0
5073,66.0,1,110,12.0,0.0
5074,68.0,6,60,2.0,0.0
5075,52.0,3,120,13.0,0.0
5076,45.0,0,120,13.0,0.0
5077,33.0,112,120,14.0,0.0
5078,56.0,42,60,3.0,0.0
5079,64.0,4,50,2.0,0.0
5080,52.0,7,50,3.0,0.0
5081,64.0,4,240,11.0,0.0
5082,57.0,0,240,11.0,0.0
5083,76.0,1,120,1.0,0.0
5084,64.0,1,120,12.0,0.0
5085,76.0,6,120,2.0,0.0
5086,64.0,102,120,3.0,0.0
5087,76.0,6,240,10.0,0.0
5088,78.0,1,110,1.0,0.0
5089,66.0,7,110,12.0,0.0
5090,75.0,6,120,2.0,0.0
5091,63.0,54,120,3.0,0.0
5092,80.0,1,240,1.0,0.0
5093,68.0,1,240,12.0,0.0
5094,74.0,6,60,2.0,0.0
5095,52.0,3,120,13.0,0.0
5096,45.0,0,120,13.0,0.0
5097,62.0,48,60,3.0,0.0
5098,71.0,3,60,2.0,0.0
5099,59.0,112,60,3.0,0.0
5100,57.0,0,240,11.0,0.0
5101,64.0,4,240,11.0,0.0
5102,76.0,6,120,2.0,0.0
5103,64.0,54,120,3.0,0.0
5104,76.0,4,240,10.0,0.0
5105,81.0,1,110,1.0,0.0
5106,69.0,7,110,12.0,0.0
5107,73.0,6,60,2.0,0.0
5108,61.0,42,60,3.0,0.0
5109,69.0,6,60,2.0,0.0
5110,57.0,52,60,3.0,0.0
5111,85.0,1,60,1.0,0.0
5112,73.0,55,60,12.0,0.0
5113,74.0,6,240,2.0,0.0
5114,52.0,55,120,13.0,0.0
5115,45.0,0,120,13.0,0.0
5116,62.0,52,240,3.0,0.0
5117,83.0,1,60,1.0,0.0
5118,71.0,4,60,12.0,0.0
5119,57.0,0,240,11.0,0.0
5120,64.0,0,240,11.0,0.0
5121,78.0,1,60,1.0,0.0
5122,66.0,59,60,12.0,0.0
5123,80.0,1,60,1.0,0.0
5124,68.0,1,60,12.0,0.0
5125,76.0,1,240,10.0,0.0
5126,81.0,1,60,1.0,0.0
5127,69.0,49,60,12.0,0.0
5128,73.0,6,110,2.0,0.0
5129,61.0,59,110,3.0,0.0
5130,76.0,1,50,1.0,0.0
5131,64.0,1,50,12.0,0.0
5132,88.0,5,60,0.0,0.0
5133,78.0,1,240,1.0,0.0
5134,66.0,1,240,12.0,0.0
5135,76.0,54,60,2.0,0.0
5136,52.0,0,120,13.0,0.0
5137,45.0,3,120,13.0,0.0
5138,62.0,49,240,3.0,0.0
5139,33.0,49,120,14.0,0.0
5140,86.0,5,60,0.0,0.0
5141,74.0,3,60,2.0,0.0
5142,81.0,5,60,0.0,0.0
5143,57.0,64,240,11.0,0.0
5144,64.0,0,240,11.0,0.0
5145,69.0,55,60,2.0,0.0
5146,83.0,3,60,0.0,0.0
5147,71.0,6,60,2.0,0.0
5148,76.0,1,240,10.0,0.0
5149,85.0,5,60,0.0,0.0
5150,76.0,1,110,1.0,0.0
5151,64.0,1,110,12.0,0.0
5152,73.0,45,60,2.0,0.0
5153,61.0,0,110,3.0,0.0
5154,76.0,3,50,0.0,0.0
5155,69.0,6,50,2.0,0.0
5156,78.0,4,120,0.0,0.0
5157,66.0,1,120,12.0,0.0
5158,76.0,54,60,2.0,0.0
5159,52.0,3,120,13.0,0.0
5160,45.0,0,120,13.0,0.0
5161,59.0,54,120,3.0,0.0
5162,75.0,3,60,2.0,0.0
5163,80.0,4,120,0.0,0.0
5164,57.0,118,240,11.0,0.0
5165,64.0,0,240,11.0,0.0
5166,68.0,1,120,12.0,0.0
5167,71.0,55,60,2.0,0.0
5168,64.0,54,120,3.0,0.0
5169,76.0,6,60,2.0,0.0
5170,76.0,6,240,10.0,0.0
5171,81.0,4,110,0.0,0.0
5172,69.0,1,110,12.0,0.0
5173,73.0,45,60,2.0,0.0
5174,61.0,0,110,3.0,0.0
5175,69.0,6,50,2.0,0.0
5176,85.0,4,180,0.0,0.0
5177,73.0,56,180,12.0,0.0
5178,66.0,3,120,2.0,0.0
5179,45.0,3,120,13.0,0.0
5180,52.0,0,120,13.0,0.0
5181,54.0,49,120,3.0,0.0
5182,57.0,59,240,11.0,0.0
5183,64.0,0,240,11.0,0.0
5184,74.0,45,180,2.0,0.0
5185,62.0,0,230,3.0,0.0
5186,83.0,4,60,0.0,0.0
5187,71.0,56,60,12.0,0.0
5188,76.0,1,240,10.0,0.0
5189,78.0,4,60,0.0,0.0
5190,66.0,1,60,12.0,0.0
5191,80.0,4,50,0.0,0.0
5192,68.0,1,50,12.0,0.0
5193,73.0,6,50,2.0,0.0
5194,78.0,4,60,0.0,0.0
5195,66.0,55,60,12.0,0.0
5196,72.0,3,120,2.0,0.0
5197,45.0,3,120,13.0,0.0
5198,52.0,0,120,13.0,0.0
5199,33.0,49,120,14.0,0.0
5200,63.0,0,120,3.0,0.0
5201,76.0,4,60,0.0,0.0
5202,64.0,1,60,12.0,0.0
5203,81.0,4,60,0.0,0.0
5204,64.0,0,240,11.0,0.0
5205,57.0,3,240,11.0,0.0
5206,69.0,56,60,12.0,0.0
5207,73.0,6,120,2.0,0.0
5208,64.0,49,120,3.0,0.0
5209,76.0,4,60,0.0,0.0
5210,64.0,1,60,12.0,0.0
5211,76.0,9,240,10.0,0.0
5212,78.0,4,60,0.0,0.0
5213,66.0,56,60,12.0,0.0
5214,72.0,6,120,2.0,0.0
5215,63.0,49,120,3.0,0.0
5216,76.0,1,60,0.0,0.0
5217,64.0,1,60,12.0,0.0
5218,81.0,4,60,0.0,0.0
5219,69.0,46,60,12.0,0.0
5220,73.0,4,110,2.0,0.0
5221,52.0,112,120,13.0,0.0
5222,45.0,0,120,13.0,0.0
5223,64.0,109,240,3.0,0.0
5224,76.0,4,50,0.0,0.0
5225,64.0,1,50,12.0,0.0
5226,85.0,4,120,0.0,0.0
5227,57.0,3,240,11.0,0.0
5228,64.0,0,240,11.0,0.0
5229,73.0,1,120,12.0,0.0
5230,76.0,6,120,2.0,0.0
5231,76.0,9,240,10.0,0.0
5232,84.0,1,120,0.0,0.0
5233,72.0,1,120,12.0,0.0
5234,78.0,25,120,2.0,0.0
5235,63.0,0,110,3.0,0.0
5236,85.0,4,30,0.0,0.0
5237,73.0,26,30,12.0,0.0
5238,66.0,6,60,2.0,0.0
5239,52.0,52,120,13.0,0.0
5240,45.0,0,120,13.0,0.0
5241,62.0,48,60,3.0,0.0
5242,83.0,4,30,0.0,0.0
5243,71.0,1,30,12.0,0.0
5244,78.0,4,60,0.0,0.0
5245,64.0,59,240,11.0,0.0
5246,57.0,0,240,11.0,0.0
5247,66.0,1,60,12.0,0.0
5248,74.0,6,60,2.0,0.0
5249,59.0,109,60,3.0,0.0
5250,76.0,15,230,10.0,0.0
5251,80.0,4,60,0.0,0.0
5252,68.0,1,60,12.0,0.0
5253,74.0,6,60,2.0,0.0
5254,62.0,50,60,3.0,0.0
5255,81.0,5,60,0.0,0.0
5256,69.0,4,120,12.0,0.0
5257,73.0,6,60,2.0,0.0
5258,45.0,0,120,13.0,0.0
5259,52.0,52,120,13.0,0.0
5260,61.0,38,60,3.0,0.0
5261,73.0,2,120,10.0,0.0
5262,73.0,0,60,0.0,0.0
5263,77.0,3,60,0.0,0.0
5264,61.0,7,120,11.0,0.0
5265,85.0,8,60,1.0,0.0
5266,77.0,0,60,1.0,0.0
5267,44.0,3,120,13.0,0.0
5268,37.0,0,120,13.0,0.0
5269,37.0,49,120,14.0,0.0
5270,65.0,48,60,3.0,0.0
5271,61.0,0,60,3.0,0.0
5272,75.0,3,60,0.0,0.0
5273,78.0,0,60,0.0,0.0
5274,75.0,0,60,1.0,0.0
5275,84.0,8,60,1.0,0.0
5276,49.0,0,120,13.0,0.0
5277,56.0,111,120,13.0,0.0
5278,63.0,57,60,3.0,0.0
5279,66.0,0,60,3.0,0.0
5280,68.0,2,120,10.0,0.0
5281,77.0,9,830,0.0,0.0
5282,73.0,0,830,0.0,0.0
5283,61.0,7,120,11.0,0.0
5284,85.0,60,180,1.0,0.0
5285,44.0,3,120,13.0,0.0
5286,37.0,0,120,13.0,0.0
5287,61.0,2,830,3.0,0.0
5288,37.0,52,120,14.0,0.0
5289,65.0,0,830,3.0,0.0
5290,49.0,55,120,13.0,0.0
5291,56.0,0,120,13.0,0.0
5292,80.0,0,60,1.0,0.0
5293,68.0,2,120,10.0,0.0
5294,61.0,2,120,11.0,0.0
5295,77.0,5,0,1.0,0.0
5296,78.0,60,60,1.0,0.0
5297,80.0,60,60,1.0,0.0
5298,56.0,55,120,13.0,0.0
5299,49.0,0,120,13.0,0.0
5300,77.0,5,60,1.0,0.0
5301,68.0,2,120,10.0,0.0
5302,61.0,2,120,11.0,0.0
5303,73.0,56,60,1.0,0.0
5304,75.0,60,60,1.0,0.0
5305,77.0,60,60,1.0,0.0
5306,49.0,0,120,13.0,0.0
5307,56.0,55,120,13.0,0.0
5308,73.0,5,60,1.0,0.0
5309,68.0,2,120,10.0,0.0
5310,61.0,0,120,11.0,0.0
5311,68.0,47,60,1.0,0.0
5312,70.0,57,60,1.0,0.0
5313,71.0,2,120,10.0,0.0
5314,78.0,0,60,0.0,0.0
5315,71.0,5,60,0.0,0.0
5316,59.0,7,120,11.0,0.0
5317,83.0,6,60,2.0,0.0
5318,71.0,0,60,2.0,0.0
5319,39.0,3,120,13.0,0.0
5320,42.0,0,120,13.0,0.0
5321,66.0,48,60,3.0,0.0
5322,63.0,0,60,3.0,0.0
5323,39.0,49,120,14.0,0.0
5324,73.0,5,60,0.0,0.0
5325,78.0,0,60,0.0,0.0
5326,82.0,6,60,2.0,0.0
5327,73.0,0,60,2.0,0.0
5328,54.0,111,120,13.0,0.0
5329,51.0,0,120,13.0,0.0
5330,66.0,0,60,3.0,0.0
5331,61.0,57,60,3.0,0.0
5332,66.0,2,120,10.0,0.0
5333,78.0,9,830,0.0,0.0
5334,71.0,0,830,0.0,0.0
5335,59.0,7,120,11.0,0.0
5336,83.0,60,180,2.0,0.0
5337,71.0,3,240,2.0,0.0
5338,42.0,3,120,13.0,0.0
5339,39.0,0,120,13.0,0.0
5340,63.0,3,830,3.0,0.0
5341,66.0,0,830,3.0,0.0
5342,39.0,54,120,14.0,0.0
5343,51.0,0,120,13.0,0.0
5344,54.0,57,120,13.0,0.0
5345,78.0,0,60,2.0,0.0
5346,66.0,2,120,10.0,0.0
5347,59.0,4,120,11.0,0.0
5348,75.0,54,60,2.0,0.0
5349,76.0,60,60,2.0,0.0
5350,78.0,60,60,2.0,0.0
5351,51.0,57,120,13.0,0.0
5352,54.0,0,120,13.0,0.0
5353,75.0,3,60,2.0,0.0
5354,66.0,2,120,10.0,0.0
5355,59.0,4,120,11.0,0.0
5356,71.0,54,60,2.0,0.0
5357,73.0,60,60,2.0,0.0
5358,75.0,60,60,2.0,0.0
5359,54.0,57,120,13.0,0.0
5360,51.0,0,120,13.0,0.0
5361,71.0,3,60,2.0,0.0
5362,66.0,2,120,10.0,0.0
5363,59.0,0,120,11.0,0.0
5364,51.0,1,120,12.0,0.0
5365,66.0,45,60,2.0,0.0
5366,68.0,55,60,2.0,0.0
5367,69.0,2,120,10.0,0.0
5368,73.0,3,60,0.0,0.0
5369,69.0,0,60,0.0,0.0
5370,61.0,3,120,11.0,0.0
5371,81.0,56,60,1.0,0.0
5372,69.0,0,60,1.0,0.0
5373,52.0,4,120,12.0,0.0
5374,45.0,0,120,13.0,0.0
5375,40.0,3,120,13.0,0.0
5376,40.0,49,120,14.0,0.0
5377,62.0,2,120,10.0,0.0
5378,71.0,0,60,0.0,0.0
5379,74.0,3,60,0.0,0.0
5380,59.0,3,120,11.0,0.0
5381,80.0,0,60,1.0,0.0
5382,62.0,56,60,1.0,0.0
5383,53.0,4,120,12.0,0.0
5384,57.0,0,120,13.0,0.0
5385,53.0,57,120,13.0,0.0
5386,61.0,2,120,10.0,0.0
5387,61.0,3,120,11.0,0.0
5388,52.0,4,120,12.0,0.0
5389,61.0,6,60,2.0,0.0
5390,69.0,0,60,2.0,0.0
5391,40.0,0,120,13.0,0.0
5392,45.0,3,120,13.0,0.0
5393,57.0,48,60,3.0,0.0
5394,61.0,0,60,3.0,0.0
5395,40.0,54,120,14.0,0.0
5396,62.0,2,120,10.0,0.0
5397,59.0,3,120,11.0,0.0
5398,53.0,4,120,12.0,0.0
5399,68.0,6,60,2.0,0.0
5400,62.0,0,60,2.0,0.0
5401,53.0,0,120,13.0,0.0
5402,57.0,52,120,13.0,0.0
5403,53.0,48,60,3.0,0.0
5404,59.0,0,60,3.0,0.0
5405,69.0,2,120,10.0,0.0
5406,69.0,3,60,0.0,0.0
5407,73.0,0,60,0.0,0.0
5408,61.0,3,120,11.0,0.0
5409,69.0,0,60,1.0,0.0
5410,81.0,56,60,1.0,0.0
5411,52.0,4,120,12.0,0.0
5412,45.0,52,120,13.0,0.0
5413,40.0,0,120,13.0,0.0
5414,62.0,2,120,10.0,0.0
5415,74.0,0,60,0.0,0.0
5416,71.0,3,60,0.0,0.0
5417,59.0,3,120,11.0,0.0
5418,80.0,56,60,1.0,0.0
5419,62.0,0,60,1.0,0.0
5420,53.0,4,120,12.0,0.0
5421,57.0,0,120,13.0,0.0
5422,53.0,52,120,13.0,0.0
5423,61.0,2,120,10.0,0.0
5424,69.0,5,60,0.0,0.0
5425,93.0,0,60,0.0,0.0
5426,57.0,3,120,11.0,0.0
5427,52.0,4,120,12.0,0.0
5428,73.0,0,60,2.0,0.0
5429,81.0,6,60,2.0,0.0
5430,45.0,0,120,13.0,0.0
5431,40.0,52,120,13.0,0.0
5432,52.0,48,60,3.0,0.0
5433,61.0,0,60,3.0,0.0
5434,81.0,0,60,0.0,0.0
5435,87.0,5,60,0.0,0.0
5436,54.0,4,120,12.0,0.0
5437,69.0,0,60,2.0,0.0
5438,72.0,6,60,2.0,0.0
5439,54.0,231,120,13.0,0.0
5440,57.0,0,120,13.0,0.0
5441,66.0,53,60,3.0,0.0
5442,54.0,0,60,3.0,0.0
5443,76.0,2,120,10.0,0.0
5444,56.0,7,120,11.0,0.0
5445,40.0,101,120,13.0,0.0
5446,75.0,2,110,10.0,0.0
5447,57.0,7,110,11.0,0.0
5448,42.0,241,110,13.0,0.0
5449,74.0,2,240,10.0,0.0
5450,59.0,3,240,11.0,0.0
5451,44.0,101,240,13.0,0.0
5452,65.0,4,120,12.0,0.0
5453,73.0,2,110,10.0,0.0
5454,61.0,3,110,11.0,0.0
5455,64.0,4,110,12.0,0.0
5456,45.0,123,110,13.0,0.0
5457,70.0,52,180,10.0,0.0
5458,61.0,3,120,11.0,0.0
5459,67.0,55,120,12.0,0.0
5460,38.0,101,360,13.0,0.0
5461,62.0,3,110,11.0,0.0
5462,66.0,5,110,12.0,0.0
5463,71.0,60,60,10.0,0.0
5464,78.0,50,60,10.0,0.0
5465,68.0,3,230,11.0,0.0
5466,59.0,4,230,12.0,0.0
5467,80.0,19,50,10.0,0.0
5468,78.0,2,110,10.0,0.0
5469,50.0,121,110,13.0,0.0
5470,76.0,2,120,10.0,0.0
5471,69.0,3,120,11.0,0.0
5472,52.0,4,120,12.0,0.0
5473,49.0,101,120,13.0,0.0
5474,75.0,2,110,10.0,0.0
5475,57.0,3,110,11.0,0.0
5476,54.0,4,110,12.0,0.0
5477,48.0,126,110,13.0,0.0
5478,74.0,2,240,10.0,0.0
5479,65.0,3,240,11.0,0.0
5480,56.0,4,120,12.0,0.0
5481,47.0,111,120,13.0,0.0
5482,59.0,4,120,12.0,0.0
5483,44.0,101,120,13.0,0.0
5484,73.0,2,110,10.0,0.0
5485,64.0,3,110,11.0,0.0
5486,52.0,4,110,12.0,0.0
5487,45.0,123,110,13.0,0.0
5488,70.0,60,180,10.0,0.0
5489,67.0,3,120,11.0,0.0
5490,61.0,55,120,12.0,0.0
5491,38.0,361,350,13.0,0.0
5492,66.0,3,120,11.0,0.0
5493,62.0,55,120,12.0,0.0
5494,71.0,2,60,10.0,0.0
5495,66.0,52,60,10.0,0.0
5496,62.0,2,110,11.0,0.0
5497,59.0,4,110,12.0,0.0
5498,68.0,1,54,10.0,0.0
5499,69.0,2,360,10.0,0.0
5500,64.0,7,360,11.0,0.0
5501,69.0,1,1200,1.0,0.0
5502,57.0,4,720,12.0,0.0
5503,57.0,3,1200,5.0,0.0
5504,37.0,3,360,13.0,0.0
5505,64.0,0,360,3.0,0.0
5506,49.0,348,360,3.0,0.0
5507,65.0,4,360,10.0,0.0
5508,57.0,2,840,11.0,0.0
5509,72.0,1,360,1.0,0.0
5510,36.0,3,360,13.0,0.0
5511,65.0,120,360,3.0,0.0
5512,48.0,0,360,3.0,0.0
5513,63.0,2,480,10.0,0.0
5514,81.0,116,360,1.0,0.0
5515,54.0,1,480,12.0,0.0
5516,47.0,3,480,13.0,0.0
5517,47.0,169,480,3.0,0.0
5518,66.0,0,480,3.0,0.0
5519,35.0,232,120,14.0,0.0
5520,75.0,0,120,1.0,0.0
5521,93.0,58,60,0.0,0.0
5522,57.0,3,120,11.0,0.0
5523,52.0,4,120,12.0,0.0
5524,57.0,3,350,5.0,0.0
5525,37.0,3,120,13.0,0.0
5526,49.0,49,120,3.0,0.0
5527,88.0,1,60,0.0,0.0
5528,57.0,2,0,10.0,0.0
5529,85.0,58,60,0.0,0.0
5530,57.0,1,120,11.0,0.0
5531,49.0,5,120,12.0,0.0
5532,40.0,3,120,13.0,0.0
5533,52.0,49,120,3.0,0.0
5534,81.0,2,60,0.0,0.0
5535,76.0,55,60,0.0,0.0
5536,45.0,2,110,13.0,0.0
5537,57.0,64,110,3.0,0.0
5538,73.0,1,60,0.0,0.0
5539,69.0,3,120,0.0,0.0
5540,53.0,1,120,12.0,0.0
5541,60.0,3,350,5.0,0.0
5542,81.0,54,60,2.0,0.0
5543,36.0,3,120,13.0,0.0
5544,48.0,54,120,3.0,0.0
5545,77.0,3,60,2.0,0.0
5546,60.0,1,1,10.0,0.0
5547,57.0,1,2,11.0,0.0
5548,48.0,1,120,12.0,0.0
5549,72.0,53,60,2.0,0.0
5550,41.0,3,120,13.0,0.0
5551,53.0,54,120,3.0,0.0
5552,69.0,3,60,2.0,0.0
5553,65.0,50,60,2.0,0.0
5554,45.0,3,110,13.0,0.0
5555,57.0,4,110,3.0,0.0
5556,60.0,66,60,2.0,0.0
5557,69.0,2,120,10.0,0.0
5558,63.0,3,120,11.0,0.0
5559,75.0,2,120,1.0,0.0
5560,69.0,1,480,5.0,0.0
5561,57.0,0,120,2.0,0.0
5562,47.0,57,480,13.0,0.0
5563,35.0,1,120,14.0,0.0
5564,47.0,54,360,3.0,0.0
5565,69.0,47,60,3.0,0.0
5566,66.0,60,60,3.0,0.0
5567,69.0,4,120,10.0,0.0
5568,63.0,1,120,11.0,0.0
5569,78.0,1,120,1.0,0.0
5570,54.0,5,1,12.0,0.0
5571,63.0,47,60,3.0,0.0
5572,35.0,58,120,14.0,0.0
5573,59.0,2,60,3.0,0.0
5574,83.0,2,360,1.0,0.0
5575,57.0,60,60,3.0,0.0
5576,54.0,0,60,3.0,0.0
5577,66.0,1,120,10.0,0.0
5578,63.0,3,120,11.0,0.0
5579,69.0,56,60,2.0,0.0
5580,57.0,2,120,12.0,0.0
5581,51.0,0,110,3.0,0.0
5582,66.0,0,60,2.0,0.0
5583,68.0,2,120,10.0,0.0
5584,62.0,3,120,11.0,0.0
5585,68.0,3,120,5.0,0.0
5586,59.0,0,120,12.0,0.0
5587,68.0,53,60,2.0,0.0
5588,40.0,3,120,13.0,0.0
5589,40.0,54,120,14.0,0.0
5590,52.0,0,120,3.0,0.0
5591,62.0,0,60,2.0,0.0
5592,76.0,12,110,1.0,0.0
5593,59.0,48,60,2.0,0.0
5594,56.0,66,60,2.0,0.0
5595,73.0,0,120,0.0,0.0
5596,69.0,1,120,10.0,0.0
5597,61.0,2,120,11.0,0.0
5598,85.0,18,350,1.0,0.0
5599,73.0,2,120,1.0,0.0
5600,52.0,0,120,12.0,0.0
5601,57.0,3,120,2.0,0.0
5602,69.0,49,60,3.0,0.0
5603,64.0,60,60,3.0,0.0
5604,76.0,1,120,0.0,0.0
5605,69.0,0,120,10.0,0.0
5606,64.0,0,2,11.0,0.0
5607,61.0,1,120,11.0,0.0
5608,76.0,3,120,1.0,0.0
5609,57.0,1,120,12.0,0.0
5610,45.0,3,1,13.0,0.0
5611,61.0,49,60,3.0,0.0
5612,33.0,59,120,14.0,0.0
5613,57.0,1,60,3.0,0.0
5614,81.0,3,110,0.0,0.0
5615,81.0,0,110,1.0,0.0
5616,52.0,39,60,3.0,0.0
5617,49.0,60,60,3.0,0.0
5618,72.0,1,120,0.0,0.0
5619,84.0,18,350,1.0,0.0
5620,72.0,8,120,1.0,0.0
5621,45.0,2,110,3.0,0.0
5622,69.0,49,60,3.0,0.0
5623,65.0,60,60,3.0,0.0
5624,72.0,0,3,10.0,0.0
5625,77.0,1,120,0.0,0.0
5626,60.0,0,0,11.0,0.0
5627,65.0,0,1,11.0,0.0
5628,77.0,5,120,1.0,0.0
5629,57.0,3,120,13.0,0.0
5630,60.0,47,60,3.0,0.0
5631,45.0,58,120,14.0,0.0
5632,57.0,2,60,3.0,0.0
5633,81.0,3,110,0.0,0.0
5634,81.0,0,110,1.0,0.0
5635,54.0,39,60,3.0,0.0
5636,48.0,54,60,3.0,0.0
5637,81.0,1,120,10.0,0.0
5638,81.0,3,350,0.0,0.0
5639,71.0,0,350,0.0,0.0
5640,66.0,0,120,11.0,0.0
5641,81.0,12,350,1.0,0.0
5642,83.0,0,350,1.0,0.0
5643,51.0,1,120,12.0,0.0
5644,81.0,55,60,2.0,0.0
5645,39.0,57,120,13.0,0.0
5646,47.0,1,110,3.0,0.0
5647,78.0,3,60,2.0,0.0
5648,75.0,1,120,11.0,0.0
5649,81.0,0,120,10.0,0.0
5650,59.0,2,0,11.0,0.0
5651,54.0,1,120,12.0,0.0
5652,75.0,56,60,2.0,0.0
5653,42.0,57,120,13.0,0.0
5654,71.0,3,60,2.0,0.0
5655,59.0,1,105,12.0,0.0
5656,69.0,44,60,2.0,0.0
5657,47.0,0,105,13.0,0.0
5658,66.0,60,60,2.0,0.0
5659,71.0,0,120,11.0,0.0
5660,62.0,5,120,11.0,0.0
5661,71.0,3,350,0.0,0.0
5662,74.0,0,350,0.0,0.0
5663,74.0,7,110,1.0,0.0
5664,71.0,0,350,1.0,0.0
5665,52.0,1,345,12.0,0.0
5666,71.0,48,60,2.0,0.0
5667,40.0,8,345,13.0,0.0
5668,62.0,54,120,3.0,0.0
5669,68.0,0,60,2.0,0.0
5670,80.0,0,1,10.0,0.0
5671,74.0,1,120,11.0,0.0
5672,64.0,0,120,11.0,0.0
5673,80.0,2,120,1.0,0.0
5674,62.0,54,60,2.0,0.0
5675,56.0,54,120,3.0,0.0
5676,59.0,6,60,2.0,0.0
5677,83.0,2,120,1.0,0.0
5678,56.0,44,60,2.0,0.0
5679,59.0,2,110,3.0,0.0
5680,52.0,60,60,2.0,0.0
5681,79.0,1,120,10.0,0.0
5682,79.0,3,350,0.0,0.0
5683,67.0,4,120,11.0,0.0
5684,69.0,0,350,0.0,0.0
5685,76.0,0,120,11.0,0.0
5686,81.0,0,350,1.0,0.0
5687,79.0,0,350,1.0,0.0
5688,49.0,1,120,12.0,0.0
5689,57.0,0,120,2.0,0.0
5690,79.0,54,60,2.0,0.0
5691,37.0,57,120,13.0,0.0
5692,57.0,4,350,3.0,0.0
5693,76.0,3,60,2.0,0.0
5694,73.0,1,120,11.0,0.0
5695,79.0,0,120,10.0,0.0
5696,69.0,3,120,11.0,0.0
5697,52.0,1,120,12.0,0.0
5698,73.0,55,60,2.0,0.0
5699,40.0,57,120,13.0,0.0
5700,69.0,3,60,2.0,0.0
5701,57.0,1,105,12.0,0.0
5702,67.0,44,60,2.0,0.0
5703,45.0,8,105,13.0,0.0
5704,64.0,60,60,2.0,0.0
5705,78.0,2,120,10.0,0.0
5706,74.0,0,350,0.0,0.0
5707,60.0,2,120,11.0,0.0
5708,72.0,3,350,0.0,0.0
5709,69.0,3,120,11.0,0.0
5710,69.0,8,350,1.0,0.0
5711,50.0,1,345,12.0,0.0
5712,69.0,53,60,2.0,0.0
5713,38.0,0,345,13.0,0.0
5714,60.0,54,120,3.0,0.0
5715,66.0,0,60,2.0,0.0
5716,78.0,2,120,10.0,0.0
5717,62.0,1,120,11.0,0.0
5718,72.0,0,120,11.0,0.0
5719,78.0,2,120,1.0,0.0
5720,60.0,55,60,2.0,0.0
5721,54.0,54,120,3.0,0.0
5722,57.0,6,60,2.0,0.0
5723,81.0,0,110,1.0,0.0
5724,54.0,44,60,2.0,0.0
5725,57.0,4,110,3.0,0.0
5726,50.0,55,60,2.0,0.0
5727,77.0,2,120,10.0,0.0
5728,65.0,0,120,11.0,0.0
5729,89.0,5,60,0.0,0.0
5730,74.0,0,120,11.0,0.0
5731,77.0,2,240,1.0,0.0
5732,79.0,0,350,1.0,0.0
5733,67.0,0,350,4.0,0.0
5734,65.0,7,230,4.0,0.0
5735,67.0,1,345,12.0,0.0
5736,77.0,53,60,2.0,0.0
5737,55.0,0,120,2.0,0.0
5738,47.0,3,120,13.0,0.0
5739,55.0,2,350,3.0,0.0
5740,35.0,49,120,14.0,0.0
5741,86.0,5,60,0.0,0.0
5742,74.0,3,60,2.0,0.0
5743,77.0,0,120,10.0,0.0
5744,83.0,5,60,0.0,0.0
5745,71.0,1,120,11.0,0.0
5746,67.0,1,120,11.0,0.0
5747,71.0,48,60,2.0,0.0
5748,50.0,3,120,13.0,0.0
5749,38.0,49,120,14.0,0.0
5750,77.0,1,60,0.0,0.0
5751,65.0,3,60,2.0,0.0
5752,74.0,5,60,0.0,0.0
5753,74.0,57,120,1.0,0.0
5754,62.0,2,110,4.0,0.0
5755,62.0,44,60,2.0,0.0
5756,55.0,0,105,13.0,0.0
5757,43.0,5,105,14.0,0.0
5758,71.0,3,50,0.0,0.0
5759,59.0,1,50,2.0,0.0
5760,89.0,5,60,0.0,0.0
5761,65.0,1,120,11.0,0.0
5762,74.0,3,120,11.0,0.0
5763,77.0,2,240,1.0,0.0
5764,79.0,0,350,1.0,0.0
5765,65.0,6,230,4.0,0.0
5766,67.0,0,350,4.0,0.0
5767,67.0,1,345,12.0,0.0
5768,77.0,55,60,2.0,0.0
5769,47.0,3,120,13.0,0.0
5770,55.0,2,350,3.0,0.0
5771,35.0,49,120,14.0,0.0
5772,86.0,0,60,0.0,0.0
5773,74.0,3,60,2.0,0.0
5774,77.0,1,1,10.0,0.0
5775,83.0,5,60,0.0,0.0
5776,71.0,0,120,11.0,0.0
5777,67.0,3,120,11.0,0.0
5778,71.0,48,60,2.0,0.0
5779,50.0,3,120,13.0,0.0
5780,38.0,49,120,14.0,0.0
5781,77.0,0,60,0.0,0.0
5782,65.0,3,60,2.0,0.0
5783,74.0,5,60,0.0,0.0
5784,62.0,2,110,4.0,0.0
5785,62.0,44,60,2.0,0.0
5786,55.0,0,105,13.0,0.0
5787,43.0,5,105,14.0,0.0
5788,71.0,3,50,0.0,0.0
5789,59.0,1,50,2.0,0.0
5790,80.0,2,225,10.0,0.0
5791,89.0,5,60,0.0,0.0
5792,65.0,3,225,11.0,0.0
5793,74.0,0,225,11.0,0.0
5794,62.0,3,230,4.0,0.0
5795,77.0,0,230,1.0,0.0
5796,74.0,57,0,1.0,0.0
5797,65.0,0,230,4.0,0.0
5798,68.0,4,225,12.0,0.0
5799,77.0,6,60,2.0,0.0
5800,47.0,3,120,13.0,0.0
5801,35.0,49,120,14.0,0.0
5802,65.0,49,60,3.0,0.0
5803,86.0,5,60,0.0,0.0
5804,74.0,3,60,2.0,0.0
5805,62.0,0,60,3.0,0.0
5806,83.0,5,60,0.0,0.0
5807,71.0,6,60,2.0,0.0
5808,50.0,0,105,13.0,0.0
5809,59.0,33,60,3.0,0.0
5810,38.0,4,105,14.0,0.0
5811,77.0,5,60,0.0,0.0
5812,65.0,6,60,2.0,0.0
5813,53.0,39,60,3.0,0.0
5814,81.0,2,225,10.0,0.0
5815,74.0,5,50,0.0,0.0
5816,89.0,1,60,0.0,0.0
5817,65.0,3,225,11.0,0.0
5818,74.0,0,225,11.0,0.0
5819,77.0,0,230,1.0,0.0
5820,62.0,0,230,4.0,0.0
5821,65.0,0,230,4.0,0.0
5822,74.0,0,230,1.0,0.0
5823,69.0,4,225,12.0,0.0
5824,77.0,6,60,2.0,0.0
5825,62.0,5,50,2.0,0.0
5826,45.0,3,120,13.0,0.0
5827,65.0,49,60,3.0,0.0
5828,50.0,4,50,3.0,0.0
5829,33.0,0,120,14.0,0.0
5830,86.0,5,60,0.0,0.0
5831,74.0,3,60,2.0,0.0
5832,62.0,49,60,3.0,0.0
5833,81.0,5,60,0.0,0.0
5834,69.0,6,60,2.0,0.0
5835,50.0,3,105,13.0,0.0
5836,57.0,33,60,3.0,0.0
5837,38.0,4,105,14.0,0.0
5838,77.0,5,60,0.0,0.0
5839,65.0,6,60,2.0,0.0
5840,53.0,39,60,3.0,0.0
5841,83.0,2,225,10.0,0.0
5842,89.0,1,60,0.0,0.0
5843,74.0,5,50,0.0,0.0
5844,65.0,0,225,11.0,0.0
5845,74.0,3,225,11.0,0.0
5846,74.0,0,230,1.0,0.0
5847,77.0,3,230,1.0,0.0
5848,62.0,0,230,4.0,0.0
5849,65.0,0,230,4.0,0.0
5850,71.0,4,225,12.0,0.0
5851,77.0,6,60,2.0,0.0
5852,62.0,5,50,2.0,0.0
5853,44.0,3,120,13.0,0.0
5854,32.0,0,120,14.0,0.0
5855,50.0,4,50,3.0,0.0
5856,65.0,49,60,3.0,0.0
5857,86.0,5,60,0.0,0.0
5858,74.0,3,60,2.0,0.0
5859,62.0,49,60,3.0,0.0
5860,80.0,5,60,0.0,0.0
5861,68.0,6,60,2.0,0.0
5862,50.0,0,105,13.0,0.0
5863,56.0,33,60,3.0,0.0
5864,38.0,4,105,14.0,0.0
5865,77.0,5,60,0.0,0.0
5866,65.0,6,60,2.0,0.0
5867,53.0,39,60,3.0,0.0
5868,80.0,2,225,10.0,0.0
5869,89.0,1,60,0.0,0.0
5870,74.0,5,50,0.0,0.0
5871,65.0,3,225,11.0,0.0
5872,74.0,0,225,11.0,0.0
5873,62.0,3,230,4.0,0.0
5874,77.0,0,230,1.0,0.0
5875,65.0,0,230,4.0,0.0
5876,74.0,0,230,1.0,0.0
5877,68.0,4,225,12.0,0.0
5878,77.0,6,60,2.0,0.0
5879,62.0,5,50,2.0,0.0
5880,47.0,3,120,13.0,0.0
5881,50.0,4,50,3.0,0.0
5882,35.0,49,120,14.0,0.0
5883,65.0,49,60,3.0,0.0
5884,86.0,5,60,0.0,0.0
5885,74.0,3,60,2.0,0.0
5886,62.0,0,60,3.0,0.0
5887,83.0,5,60,0.0,0.0
5888,68.0,6,60,2.0,0.0
5889,50.0,0,105,13.0,0.0
5890,59.0,33,60,3.0,0.0
5891,38.0,4,105,14.0,0.0
5892,77.0,5,60,0.0,0.0
5893,65.0,6,60,2.0,0.0
5894,53.0,39,60,3.0,0.0
5895,80.0,2,225,10.0,0.0
5896,74.0,5,50,0.0,0.0
5897,89.0,1,60,0.0,0.0
5898,74.0,3,225,11.0,0.0
5899,65.0,0,225,11.0,0.0
5900,77.0,3,230,1.0,0.0
5901,74.0,0,230,1.0,0.0
5902,65.0,0,230,4.0,0.0
5903,62.0,0,230,4.0,0.0
5904,68.0,4,225,12.0,0.0
5905,62.0,5,50,2.0,0.0
5906,77.0,6,60,2.0,0.0
5907,46.0,3,120,13.0,0.0
5908,65.0,49,60,3.0,0.0
5909,50.0,4,50,3.0,0.0
5910,34.0,0,120,14.0,0.0
5911,86.0,5,60,0.0,0.0
5912,74.0,3,60,2.0,0.0
5913,62.0,49,60,3.0,0.0
5914,80.0,5,60,0.0,0.0
5915,68.0,6,60,2.0,0.0
5916,50.0,0,105,13.0,0.0
5917,38.0,4,105,14.0,0.0
5918,58.0,33,60,3.0,0.0
5919,77.0,5,60,0.0,0.0
5920,65.0,6,60,2.0,0.0
5921,53.0,49,60,3.0,0.0
5922,81.0,2,225,10.0,0.0
5923,74.0,0,60,0.0,0.0
5924,89.0,5,60,0.0,0.0
5925,65.0,0,225,11.0,0.0
5926,74.0,3,225,11.0,0.0
5927,62.0,0,230,4.0,0.0
5928,77.0,0,230,1.0,0.0
5929,65.0,0,230,4.0,0.0
5930,74.0,0,230,1.0,0.0
5931,69.0,4,225,12.0,0.0
5932,62.0,0,60,2.0,0.0
5933,77.0,6,60,2.0,0.0
5934,45.0,3,120,13.0,0.0
5935,33.0,49,120,14.0,0.0
5936,50.0,49,60,3.0,0.0
5937,65.0,0,60,3.0,0.0
5938,86.0,5,60,0.0,0.0
5939,74.0,3,60,2.0,0.0
5940,62.0,0,60,3.0,0.0
5941,81.0,5,60,0.0,0.0
5942,69.0,6,60,2.0,0.0
5943,50.0,3,105,13.0,0.0
5944,57.0,33,60,3.0,0.0
5945,38.0,4,105,14.0,0.0
5946,77.0,5,60,0.0,0.0
5947,65.0,6,60,2.0,0.0
5948,53.0,39,60,3.0,0.0
5949,86.0,1,60,10.0,0.0
5950,74.0,5,50,0.0,0.0
5951,89.0,1,60,0.0,0.0
5952,74.0,2,60,11.0,0.0
5953,83.0,0,60,11.0,0.0
5954,74.0,0,60,1.0,0.0
5955,62.0,1,60,4.0,0.0
5956,65.0,0,60,4.0,0.0
5957,83.0,0,60,1.0,0.0
5958,74.0,0,60,12.0,0.0
5959,65.0,1,60,12.0,0.0
5960,62.0,4,50,2.0,0.0
5961,77.0,3,60,2.0,0.0
5962,44.0,3,60,13.0,0.0
5963,65.0,0,60,3.0,0.0
5964,50.0,0,50,3.0,0.0
5965,32.0,49,60,14.0,0.0
5966,86.0,5,60,0.0,0.0
5967,74.0,6,60,2.0,0.0
5968,62.0,18,60,3.0,0.0
5969,89.0,31,30,10.0,0.0
5970,83.0,1,60,0.0,0.0
5971,74.0,0,60,0.0,0.0
5972,83.0,0,60,11.0,0.0
5973,74.0,2,60,11.0,0.0
5974,65.0,0,60,4.0,0.0
5975,74.0,0,60,1.0,0.0
5976,83.0,0,60,1.0,0.0
5977,62.0,1,60,4.0,0.0
5978,65.0,1,60,12.0,0.0
5979,74.0,0,60,12.0,0.0
5980,68.0,3,60,2.0,0.0
5981,56.0,0,60,2.0,0.0
5982,56.0,3,60,13.0,0.0
5983,44.0,0,60,3.0,0.0
5984,56.0,18,60,3.0,0.0
5985,44.0,0,60,14.0,0.0
5986,86.0,62,30,10.0,0.0
5987,77.0,60,30,11.0,0.0
5988,74.0,58,30,11.0,0.0
5989,65.0,60,30,10.0,0.0
5990,62.0,65,30,10.0,0.0
5991,53.0,60,30,12.0,0.0
5992,50.0,55,30,12.0,0.0
5993,65.0,60,30,10.0,0.0
5994,62.0,62,30,10.0,0.0
5995,77.0,60,30,11.0,0.0
5996,74.0,58,30,11.0,0.0
5997,88.0,31,30,10.0,0.0
5998,74.0,3,60,0.0,0.0
5999,76.0,0,60,0.0,0.0
6000,74.0,1,60,1.0,0.0
6001,71.0,0,60,1.0,0.0
6002,64.0,0,60,4.0,0.0
6003,62.0,0,60,4.0,0.0
6004,64.0,4,60,12.0,0.0
6005,59.0,0,60,12.0,0.0
6006,56.0,3,60,13.0,0.0
6007,44.0,18,60,14.0,0.0
6008,52.0,0,60,3.0,0.0
6009,44.0,0,60,3.0,0.0
6010,86.0,62,30,10.0,0.0
6011,76.0,60,30,11.0,0.0
6012,74.0,58,30,11.0,0.0
6013,64.0,60,30,10.0,0.0
6014,62.0,65,30,10.0,0.0
6015,52.0,60,30,12.0,0.0
6016,50.0,55,30,12.0,0.0
6017,64.0,60,30,10.0,0.0
6018,62.0,91,30,10.0,0.0
6019,88.0,1,60,0.0,0.0
6020,76.0,10,60,11.0,0.0
6021,57.0,0,240,5.0,0.0
6022,69.0,3,240,2.0,0.0
6023,36.0,3,120,13.0,0.0
6024,36.0,0,120,14.0,0.0
6025,64.0,49,60,3.0,0.0
6026,86.0,1,60,0.0,0.0
6027,74.0,7,60,11.0,0.0
6028,62.0,49,60,3.0,0.0
6029,84.0,1,60,0.0,0.0
6030,72.0,10,60,11.0,0.0
6031,40.0,3,120,13.0,0.0
6032,40.0,49,120,14.0,0.0
6033,60.0,49,60,3.0,0.0
6034,83.0,1,60,0.0,0.0
6035,71.0,4,60,11.0,0.0
6036,59.0,0,60,3.0,0.0
6037,84.0,1,60,0.0,0.0
6038,72.0,10,60,11.0,0.0
6039,60.0,54,120,5.0,0.0
6040,72.0,3,110,2.0,0.0
6041,45.0,3,110,13.0,0.0
6042,60.0,39,60,3.0,0.0
6043,45.0,4,110,14.0,0.0
6044,83.0,5,50,0.0,0.0
6045,71.0,0,60,11.0,0.0
6046,59.0,0,50,3.0,0.0
6047,69.0,1,60,10.0,0.0
6048,81.0,11,60,0.0,0.0
6049,65.0,4,120,12.0,0.0
6050,69.0,0,240,5.0,0.0
6051,81.0,3,240,2.0,0.0
6052,53.0,3,120,13.0,0.0
6053,57.0,48,60,3.0,0.0
6054,72.0,1,60,10.0,0.0
6055,84.0,4,60,0.0,0.0
6056,60.0,48,60,3.0,0.0
6057,77.0,1,60,10.0,0.0
6058,89.0,11,60,0.0,0.0
6059,60.0,1,120,12.0,0.0
6060,48.0,3,120,13.0,0.0
6061,65.0,48,60,3.0,0.0
6062,81.0,1,60,10.0,0.0
6063,93.0,4,60,0.0,0.0
6064,69.0,48,60,3.0,0.0
6065,79.0,1,60,10.0,0.0
6066,91.0,11,60,0.0,0.0
6067,57.0,1,110,12.0,0.0
6068,60.0,55,120,5.0,0.0
6069,72.0,3,110,2.0,0.0
6070,45.0,1,110,13.0,0.0
6071,67.0,39,60,3.0,0.0
6072,77.0,2,60,10.0,0.0
6073,89.0,4,50,0.0,0.0
6074,65.0,4,50,3.0,0.0
6075,88.0,1,60,0.0,0.0
6076,76.0,10,60,11.0,0.0
6077,69.0,3,240,2.0,0.0
6078,57.0,0,240,5.0,0.0
6079,36.0,3,120,13.0,0.0
6080,64.0,49,60,3.0,0.0
6081,36.0,0,120,14.0,0.0
6082,86.0,1,60,0.0,0.0
6083,74.0,7,60,11.0,0.0
6084,62.0,49,60,3.0,0.0
6085,84.0,1,60,0.0,0.0
6086,72.0,10,60,11.0,0.0
6087,40.0,3,120,13.0,0.0
6088,40.0,0,120,14.0,0.0
6089,60.0,49,60,3.0,0.0
6090,83.0,1,60,0.0,0.0
6091,71.0,4,60,11.0,0.0
6092,59.0,49,60,3.0,0.0
6093,84.0,1,60,0.0,0.0
6094,72.0,10,60,11.0,0.0
6095,72.0,3,110,2.0,0.0
6096,60.0,54,120,5.0,0.0
6097,45.0,3,110,13.0,0.0
6098,45.0,0,110,14.0,0.0
6099,60.0,39,60,3.0,0.0
6100,83.0,5,50,0.0,0.0
6101,71.0,0,60,11.0,0.0
6102,59.0,4,50,3.0,0.0
6103,69.0,1,60,10.0,0.0
6104,81.0,11,60,0.0,0.0
6105,66.0,4,120,12.0,0.0
6106,81.0,0,240,2.0,0.0
6107,69.0,3,240,5.0,0.0
6108,54.0,3,120,13.0,0.0
6109,57.0,48,60,3.0,0.0
6110,72.0,1,60,10.0,0.0
6111,84.0,4,60,0.0,0.0
6112,60.0,48,60,3.0,0.0
6113,78.0,1,60,10.0,0.0
6114,90.0,11,60,0.0,0.0
6115,60.0,1,120,12.0,0.0
6116,48.0,3,120,13.0,0.0
6117,66.0,48,60,3.0,0.0
6118,81.0,1,60,10.0,0.0
6119,93.0,4,60,0.0,0.0
6120,69.0,48,60,3.0,0.0
6121,79.0,1,60,10.0,0.0
6122,91.0,11,60,0.0,0.0
6123,57.0,1,110,12.0,0.0
6124,72.0,3,110,2.0,0.0
6125,60.0,55,120,5.0,0.0
6126,45.0,1,110,13.0,0.0
6127,67.0,39,60,3.0,0.0
6128,78.0,2,60,10.0,0.0
6129,90.0,4,50,0.0,0.0
6130,66.0,4,50,3.0,0.0
6131,95.0,1,60,0.0,0.0
6132,83.0,10,60,11.0,0.0
6133,55.0,4,120,12.0,0.0
6134,76.0,3,240,2.0,0.0
6135,64.0,0,240,5.0,0.0
6136,43.0,3,120,13.0,0.0
6137,31.0,49,60,14.0,0.0
6138,59.0,0,60,3.0,0.0
6139,91.0,1,60,0.0,0.0
6140,79.0,3,60,11.0,0.0
6141,67.0,49,60,3.0,0.0
6142,88.0,1,60,0.0,0.0
6143,76.0,10,60,11.0,0.0
6144,59.0,1,120,12.0,0.0
6145,47.0,3,120,13.0,0.0
6146,64.0,49,60,3.0,0.0
6147,43.0,0,60,14.0,0.0
6148,83.0,1,60,0.0,0.0
6149,71.0,3,60,11.0,0.0
6150,59.0,49,60,3.0,0.0
6151,79.0,1,60,0.0,0.0
6152,67.0,10,60,11.0,0.0
6153,64.0,1,110,12.0,0.0
6154,67.0,54,120,5.0,0.0
6155,79.0,3,110,2.0,0.0
6156,52.0,3,110,13.0,0.0
6157,55.0,39,60,3.0,0.0
6158,76.0,4,50,0.0,0.0
6159,64.0,4,60,11.0,0.0
6160,52.0,0,50,3.0,0.0
6161,72.0,1,60,10.0,0.0
6162,84.0,11,60,0.0,0.0
6163,57.0,4,120,12.0,0.0
6164,66.0,3,240,5.0,0.0
6165,78.0,0,240,2.0,0.0
6166,45.0,3,120,13.0,0.0
6167,60.0,48,60,3.0,0.0
6168,33.0,0,60,14.0,0.0
6169,69.0,1,60,10.0,0.0
6170,81.0,4,60,0.0,0.0
6171,57.0,48,60,3.0,0.0
6172,66.0,1,60,10.0,0.0
6173,78.0,11,60,0.0,0.0
6174,60.0,1,120,12.0,0.0
6175,48.0,3,120,13.0,0.0
6176,54.0,48,60,3.0,0.0
6177,45.0,0,60,14.0,0.0
6178,60.0,1,60,10.0,0.0
6179,72.0,4,60,0.0,0.0
6180,48.0,48,60,3.0,0.0
6181,57.0,1,60,10.0,0.0
6182,69.0,11,60,0.0,0.0
6183,66.0,1,110,12.0,0.0
6184,81.0,3,110,2.0,0.0
6185,69.0,34,120,5.0,0.0
6186,54.0,3,110,13.0,0.0
6187,45.0,38,60,3.0,0.0
6188,66.0,1,50,10.0,0.0
6189,66.0,4,50,0.0,0.0
6190,54.0,4,50,3.0,0.0
6191,67.0,2,40,10.0,0.0
6192,88.0,4,60,0.0,0.0
6193,79.0,0,60,0.0,0.0
6194,55.0,19,40,11.0,0.0
6195,64.0,0,60,12.0,0.0
6196,55.0,1,60,12.0,0.0
6197,67.0,0,60,2.0,0.0
6198,76.0,0,60,2.0,0.0
6199,64.0,3,60,5.0,0.0
6200,67.0,0,60,5.0,0.0
6201,47.0,3,60,13.0,0.0
6202,55.0,0,60,3.0,0.0
6203,52.0,0,60,3.0,0.0
6204,35.0,8,60,14.0,0.0
6205,69.0,2,40,10.0,0.0
6206,57.0,28,40,11.0,0.0
6207,70.0,2,30,10.0,0.0
6208,58.0,48,30,11.0,0.0
6209,71.0,2,40,10.0,0.0
6210,78.0,1,590,0.0,0.0
6211,87.0,0,590,0.0,0.0
6212,59.0,38,40,11.0,0.0
6213,75.0,1,590,1.0,0.0
6214,63.0,0,590,4.0,0.0
6215,83.0,0,590,1.0,0.0
6216,69.0,1,590,12.0,0.0
6217,59.0,0,590,12.0,0.0
6218,66.0,0,590,5.0,0.0
6219,69.0,0,590,5.0,0.0
6220,75.0,3,590,2.0,0.0
6221,66.0,0,590,2.0,0.0
6222,59.0,3,590,13.0,0.0
6223,57.0,0,590,3.0,0.0
6224,47.0,0,590,14.0,0.0
6225,47.0,58,590,3.0,0.0
6226,73.0,2,40,10.0,0.0
6227,61.0,38,40,11.0,0.0
6228,75.0,2,40,10.0,0.0
6229,63.0,38,40,11.0,0.0
6230,76.0,2,40,10.0,0.0
6231,64.0,38,40,11.0,0.0
6232,77.0,2,40,10.0,0.0
6233,65.0,38,40,11.0,0.0
6234,78.0,2,40,10.0,0.0
6235,66.0,38,40,11.0,0.0
6236,79.0,2,40,10.0,0.0
6237,67.0,38,40,11.0,0.0
6238,80.0,2,40,10.0,0.0
6239,68.0,38,40,11.0,0.0
6240,81.0,2,40,10.0,0.0
6241,69.0,38,40,11.0,0.0
6242,82.0,2,40,10.0,0.0
6243,70.0,38,40,11.0,0.0
6244,83.0,2,40,10.0,0.0
6245,71.0,38,40,11.0,0.0
6246,84.0,2,40,10.0,0.0
6247,72.0,38,40,11.0,0.0
6248,85.0,2,40,10.0,0.0
6249,73.0,38,40,11.0,0.0
6250,86.0,2,40,10.0,0.0
6251,74.0,28,40,11.0,0.0
6252,87.0,1,30,10.0,0.0
6253,75.0,2,30,11.0,0.0
6254,88.0,1,60,10.0,0.0
6255,88.0,1,60,0.0,0.0
6256,76.0,2,60,11.0,0.0
6257,76.0,0,60,1.0,0.0
6258,64.0,1,60,4.0,0.0
6259,60.0,0,60,12.0,0.0
6260,69.0,1,60,12.0,0.0
6261,76.0,3,60,2.0,0.0
6262,36.0,3,60,13.0,0.0
6263,36.0,49,60,14.0,0.0
6264,64.0,0,60,3.0,0.0
6265,86.0,3,60,0.0,0.0
6266,74.0,2,60,1.0,0.0
6267,74.0,6,60,2.0,0.0
6268,62.0,49,60,3.0,0.0
6269,80.0,2,240,10.0,0.0
6270,84.0,3,60,0.0,0.0
6271,68.0,0,240,11.0,0.0
6272,60.0,2,60,4.0,0.0
6273,72.0,0,60,1.0,0.0
6274,72.0,0,350,12.0,0.0
6275,60.0,4,350,12.0,0.0
6276,72.0,6,60,2.0,0.0
6277,64.0,3,240,13.0,0.0
6278,52.0,49,240,14.0,0.0
6279,60.0,49,60,3.0,0.0
6280,83.0,3,60,0.0,0.0
6281,71.0,2,60,1.0,0.0
6282,71.0,6,60,2.0,0.0
6283,59.0,49,60,3.0,0.0
6284,84.0,3,60,0.0,0.0
6285,72.0,2,60,1.0,0.0
6286,72.0,6,60,2.0,0.0
6287,60.0,39,60,3.0,0.0
6288,83.0,3,50,0.0,0.0
6289,71.0,2,50,1.0,0.0
6290,71.0,4,50,2.0,0.0
6291,59.0,7,50,3.0,0.0
6292,81.0,2,110,10.0,0.0
6293,81.0,3,60,0.0,0.0
6294,69.0,3,110,11.0,0.0
6295,69.0,2,60,1.0,0.0
6296,57.0,0,60,5.0,0.0
6297,69.0,6,60,2.0,0.0
6298,65.0,2,110,13.0,0.0
6299,53.0,2,110,14.0,0.0
6300,57.0,38,60,3.0,0.0
6301,84.0,1,60,0.0,0.0
6302,72.0,2,60,1.0,0.0
6303,72.0,6,60,2.0,0.0
6304,60.0,48,60,3.0,0.0
6305,84.0,1,60,10.0,0.0
6306,89.0,1,60,0.0,0.0
6307,72.0,2,60,11.0,0.0
6308,77.0,1,60,1.0,0.0
6309,60.0,1,60,12.0,0.0
6310,69.0,0,60,12.0,0.0
6311,65.0,0,60,5.0,0.0
6312,77.0,3,60,2.0,0.0
6313,60.0,3,60,13.0,0.0
6314,48.0,0,60,14.0,0.0
6315,65.0,49,60,3.0,0.0
6316,93.0,3,60,0.0,0.0
6317,81.0,2,60,1.0,0.0
6318,81.0,6,60,2.0,0.0
6319,69.0,48,60,3.0,0.0
6320,89.0,1,60,10.0,0.0
6321,91.0,1,60,0.0,0.0
6322,77.0,2,60,11.0,0.0
6323,79.0,1,60,1.0,0.0
6324,60.0,1,60,12.0,0.0
6325,69.0,0,60,12.0,0.0
6326,79.0,3,60,2.0,0.0
6327,57.0,3,60,13.0,0.0
6328,67.0,0,60,3.0,0.0
6329,45.0,39,60,14.0,0.0
6330,89.0,3,50,0.0,0.0
6331,77.0,2,50,1.0,0.0
6332,77.0,6,50,2.0,0.0
6333,65.0,58,50,3.0,0.0
6334,93.0,1,60,10.0,0.0
6335,88.0,1,60,0.0,0.0
6336,81.0,2,60,11.0,0.0
6337,76.0,1,60,1.0,0.0
6338,64.0,0,60,4.0,0.0
6339,69.0,1,60,12.0,0.0
6340,60.0,0,60,12.0,0.0
6341,76.0,3,60,2.0,0.0
6342,48.0,3,60,13.0,0.0
6343,36.0,49,60,14.0,0.0
6344,64.0,0,60,3.0,0.0
6345,86.0,3,60,0.0,0.0
6346,74.0,2,60,1.0,0.0
6347,74.0,6,60,2.0,0.0
6348,62.0,49,60,3.0,0.0
6349,80.0,2,240,10.0,0.0
6350,84.0,3,60,0.0,0.0
6351,68.0,0,240,11.0,0.0
6352,60.0,2,60,4.0,0.0
6353,72.0,0,60,1.0,0.0
6354,60.0,0,350,12.0,0.0
6355,72.0,4,350,12.0,0.0
6356,72.0,6,60,2.0,0.0
6357,64.0,3,240,13.0,0.0
6358,52.0,49,240,14.0,0.0
6359,60.0,49,60,3.0,0.0
6360,83.0,3,60,0.0,0.0
6361,71.0,2,60,1.0,0.0
6362,71.0,6,60,2.0,0.0
6363,59.0,49,60,3.0,0.0
6364,84.0,3,60,0.0,0.0
6365,72.0,2,60,1.0,0.0
6366,72.0,6,60,2.0,0.0
6367,60.0,39,60,3.0,0.0
6368,83.0,3,50,0.0,0.0
6369,71.0,2,50,1.0,0.0
6370,71.0,4,50,2.0,0.0
6371,59.0,7,50,3.0,0.0
6372,81.0,2,110,10.0,0.0
6373,81.0,3,60,0.0,0.0
6374,69.0,3,110,11.0,0.0
6375,69.0,2,60,1.0,0.0
6376,69.0,0,60,2.0,0.0
6377,57.0,6,60,5.0,0.0
6378,65.0,2,110,13.0,0.0
6379,53.0,2,110,14.0,0.0
6380,57.0,38,60,3.0,0.0
6381,84.0,1,60,0.0,0.0
6382,72.0,2,60,1.0,0.0
6383,72.0,6,60,2.0,0.0
6384,60.0,48,60,3.0,0.0
6385,84.0,1,60,10.0,0.0
6386,89.0,1,60,0.0,0.0
6387,72.0,2,60,11.0,0.0
6388,77.0,1,60,1.0,0.0
6389,69.0,1,60,12.0,0.0
6390,65.0,0,60,12.0,0.0
6391,65.0,0,60,5.0,0.0
6392,77.0,3,60,2.0,0.0
6393,60.0,3,60,13.0,0.0
6394,65.0,0,60,3.0,0.0
6395,48.0,49,60,14.0,0.0
6396,93.0,3,60,0.0,0.0
6397,81.0,2,60,1.0,0.0
6398,81.0,6,60,2.0,0.0
6399,69.0,48,60,3.0,0.0
6400,89.0,1,60,10.0,0.0
6401,96.0,1,60,0.0,0.0
6402,77.0,2,60,11.0,0.0
6403,84.0,1,60,1.0,0.0
6404,69.0,0,60,12.0,0.0
6405,65.0,1,60,12.0,0.0
6406,84.0,3,60,2.0,0.0
6407,57.0,3,60,13.0,0.0
6408,72.0,0,60,3.0,0.0
6409,45.0,39,60,14.0,0.0
6410,95.0,3,50,0.0,0.0
6411,83.0,2,50,1.0,0.0
6412,83.0,6,50,2.0,0.0
6413,71.0,59,50,3.0,0.0
6414,93.0,2,345,10.0,0.0
6415,93.0,3,60,0.0,0.0
6416,69.0,0,345,11.0,0.0
6417,81.0,4,345,11.0,0.0
6418,64.0,0,60,4.0,0.0
6419,60.0,0,60,4.0,0.0
6420,81.0,1,60,1.0,0.0
6421,60.0,1,60,12.0,0.0
6422,81.0,0,60,2.0,0.0
6423,69.0,0,60,5.0,0.0
6424,57.0,3,60,5.0,0.0
6425,48.0,3,60,13.0,0.0
6426,69.0,49,60,3.0,0.0
6427,36.0,5,345,14.0,0.0
6428,88.0,3,60,0.0,0.0
6429,76.0,2,60,1.0,0.0
6430,76.0,6,60,2.0,0.0
6431,64.0,49,60,3.0,0.0
6432,84.0,3,60,0.0,0.0
6433,72.0,1,60,1.0,0.0
6434,64.0,1,60,12.0,0.0
6435,72.0,3,60,2.0,0.0
6436,52.0,3,60,13.0,0.0
6437,60.0,49,60,3.0,0.0
6438,81.0,3,60,0.0,0.0
6439,69.0,2,60,1.0,0.0
6440,69.0,6,60,2.0,0.0
6441,57.0,49,60,3.0,0.0
6442,76.0,3,60,0.0,0.0
6443,76.0,1,60,1.0,0.0
6444,69.0,1,60,12.0,0.0
6445,64.0,3,60,2.0,0.0
6446,57.0,3,60,13.0,0.0
6447,52.0,33,60,3.0,0.0
6448,72.0,3,50,0.0,0.0
6449,72.0,2,50,1.0,0.0
6450,60.0,1,50,2.0,0.0
6451,48.0,59,50,3.0,0.0
6452,81.0,2,345,10.0,0.0
6453,93.0,3,60,0.0,0.0
6454,65.0,0,345,11.0,0.0
6455,69.0,4,345,11.0,0.0
6456,62.0,0,60,4.0,0.0
6457,81.0,1,60,1.0,0.0
6458,65.0,0,60,4.0,0.0
6459,62.0,1,60,12.0,0.0
6460,69.0,0,60,5.0,0.0
6461,57.0,0,60,5.0,0.0
6462,81.0,3,60,2.0,0.0
6463,50.0,3,60,13.0,0.0
6464,69.0,49,60,3.0,0.0
6465,38.0,5,345,14.0,0.0
6466,89.0,3,60,0.0,0.0
6467,77.0,2,60,1.0,0.0
6468,77.0,6,60,2.0,0.0
6469,65.0,49,60,3.0,0.0
6470,86.0,3,60,0.0,0.0
6471,74.0,1,60,1.0,0.0
6472,65.0,1,60,12.0,0.0
6473,74.0,3,60,2.0,0.0
6474,53.0,3,60,13.0,0.0
6475,62.0,49,60,3.0,0.0
6476,81.0,3,60,0.0,0.0
6477,69.0,2,60,1.0,0.0
6478,69.0,6,60,2.0,0.0
6479,57.0,49,60,3.0,0.0
6480,77.0,3,60,0.0,0.0
6481,77.0,1,60,1.0,0.0
6482,71.0,1,60,12.0,0.0
6483,65.0,3,60,2.0,0.0
6484,59.0,3,60,13.0,0.0
6485,53.0,33,60,3.0,0.0
6486,74.0,3,50,0.0,0.0
6487,74.0,2,50,1.0,0.0
6488,62.0,1,50,2.0,0.0
6489,50.0,39,50,3.0,0.0
6490,69.0,2,60,10.0,0.0
6491,72.0,3,40,0.0,0.0
6492,63.0,2,60,11.0,0.0
6493,66.0,0,60,11.0,0.0
6494,72.0,2,40,1.0,0.0
6495,60.0,0,60,4.0,0.0
6496,63.0,1,60,4.0,0.0
6497,60.0,1,60,12.0,0.0
6498,66.0,0,60,12.0,0.0
6499,57.0,0,60,5.0,0.0
6500,69.0,3,60,5.0,0.0
6501,60.0,6,40,2.0,0.0
6502,45.0,3,60,13.0,0.0
6503,48.0,8,40,3.0,0.0
6504,33.0,9,60,14.0,0.0
6505,74.0,3,40,0.0,0.0
6506,74.0,2,40,1.0,0.0
6507,62.0,6,40,2.0,0.0
6508,50.0,19,40,3.0,0.0
6509,75.0,3,30,0.0,0.0
6510,75.0,2,30,1.0,0.0
6511,63.0,6,30,2.0,0.0
6512,51.0,39,30,3.0,0.0
6513,74.0,2,585,10.0,0.0
6514,76.0,3,40,0.0,0.0
6515,62.0,3,585,11.0,0.0
6516,71.0,0,585,11.0,0.0
6517,64.0,2,60,4.0,0.0
6518,76.0,2,40,1.0,0.0
6519,52.0,0,60,4.0,0.0
6520,68.0,1,585,12.0,0.0
6521,59.0,0,585,12.0,0.0
6522,64.0,6,40,2.0,0.0
6523,68.0,0,60,5.0,0.0
6524,62.0,15,60,5.0,0.0
6525,52.0,2,585,13.0,0.0
6526,52.0,12,40,3.0,0.0
6527,40.0,5,585,14.0,0.0
6528,78.0,3,40,0.0,0.0
6529,78.0,2,40,1.0,0.0
6530,66.0,6,40,2.0,0.0
6531,54.0,29,40,3.0,0.0
6532,80.0,3,40,0.0,0.0
6533,80.0,2,40,1.0,0.0
6534,68.0,6,40,2.0,0.0
6535,56.0,29,40,3.0,0.0
6536,81.0,3,40,0.0,0.0
6537,81.0,2,40,1.0,0.0
6538,69.0,6,40,2.0,0.0
6539,57.0,29,40,3.0,0.0
6540,82.0,3,40,0.0,0.0
6541,82.0,2,40,1.0,0.0
6542,70.0,6,40,2.0,0.0
6543,58.0,29,40,3.0,0.0
6544,83.0,3,40,0.0,0.0
6545,83.0,2,40,1.0,0.0
6546,71.0,6,40,2.0,0.0
6547,59.0,29,40,3.0,0.0
6548,84.0,3,40,0.0,0.0
6549,84.0,2,40,1.0,0.0
6550,72.0,6,40,2.0,0.0
6551,60.0,29,40,3.0,0.0
6552,85.0,3,40,0.0,0.0
6553,85.0,2,40,1.0,0.0
6554,73.0,6,40,2.0,0.0
6555,61.0,29,40,3.0,0.0
6556,86.0,3,40,0.0,0.0
6557,86.0,2,40,1.0,0.0
6558,74.0,6,40,2.0,0.0
6559,62.0,29,40,3.0,0.0
6560,87.0,3,40,0.0,0.0
6561,75.0,2,40,1.0,0.0
6562,75.0,6,40,2.0,0.0
6563,63.0,29,40,3.0,0.0
6564,88.0,3,40,0.0,0.0
6565,76.0,2,40,1.0,0.0
6566,76.0,6,40,2.0,0.0
6567,64.0,29,40,3.0,0.0
6568,89.0,3,40,0.0,0.0
6569,77.0,2,40,1.0,0.0
6570,77.0,6,40,2.0,0.0
6571,65.0,29,40,3.0,0.0
6572,90.0,3,40,0.0,0.0
6573,78.0,2,40,1.0,0.0
6574,78.0,6,40,2.0,0.0
6575,66.0,29,40,3.0,0.0
6576,91.0,3,40,0.0,0.0
6577,79.0,2,40,1.0,0.0
6578,79.0,6,40,2.0,0.0
6579,67.0,13,40,3.0,0.0
6580,92.0,3,30,0.0,0.0
6581,80.0,0,30,1.0,0.0
6582,80.0,1,30,2.0,0.0
6583,68.0,38,30,3.0,0.0
6584,72.0,2,40,10.0,0.0
6585,93.0,3,60,0.0,0.0
6586,60.0,3,40,11.0,0.0
6587,48.0,0,60,4.0,0.0
6588,60.0,0,60,4.0,0.0
6589,81.0,0,60,1.0,0.0
6590,63.0,0,60,7.0,0.0
6591,54.0,2,60,7.0,0.0
6592,48.0,16,40,12.0,0.0
6593,66.0,0,60,5.0,0.0
6594,81.0,0,60,2.0,0.0
6595,57.0,1,60,5.0,0.0
6596,45.0,5,60,8.0,0.0
6597,45.0,1,105,13.0,0.0
6598,69.0,8,60,3.0,0.0
6599,33.0,43,105,14.0,0.0
6600,74.0,2,40,10.0,0.0
6601,62.0,3,40,11.0,0.0
6602,50.0,25,40,12.0,0.0
6603,75.0,2,30,10.0,0.0
6604,63.0,2,30,11.0,0.0
6605,51.0,2,30,12.0,0.0
6606,76.0,2,40,10.0,0.0
6607,88.0,3,585,0.0,0.0
6608,80.0,0,585,0.0,0.0
6609,64.0,3,40,11.0,0.0
6610,76.0,1,585,1.0,0.0
6611,68.0,0,585,1.0,0.0
6612,64.0,0,585,4.0,0.0
6613,52.0,0,585,4.0,0.0
6614,64.0,3,60,7.0,0.0
6615,52.0,0,60,7.0,0.0
6616,52.0,19,40,12.0,0.0
6617,62.0,0,585,5.0,0.0
6618,68.0,0,585,5.0,0.0
6619,71.0,1,585,2.0,0.0
6620,74.0,0,585,2.0,0.0
6621,52.0,13,60,8.0,0.0
6622,52.0,1,585,13.0,0.0
6623,52.0,38,585,3.0,0.0
6624,40.0,0,585,14.0,0.0
6625,78.0,2,40,10.0,0.0
6626,66.0,3,40,11.0,0.0
6627,54.0,35,40,12.0,0.0
6628,80.0,2,40,10.0,0.0
6629,68.0,3,40,11.0,0.0
6630,56.0,35,40,12.0,0.0
6631,81.0,2,40,10.0,0.0
6632,69.0,3,40,11.0,0.0
6633,57.0,35,40,12.0,0.0
6634,82.0,2,40,10.0,0.0
6635,70.0,3,40,11.0,0.0
6636,58.0,35,40,12.0,0.0
6637,83.0,2,40,10.0,0.0
6638,71.0,3,40,11.0,0.0
6639,59.0,35,40,12.0,0.0
6640,84.0,2,40,10.0,0.0
6641,72.0,3,40,11.0,0.0
6642,60.0,35,40,12.0,0.0
6643,85.0,2,40,10.0,0.0
6644,73.0,3,40,11.0,0.0
6645,61.0,35,40,12.0,0.0
6646,86.0,2,40,10.0,0.0
6647,74.0,3,40,11.0,0.0
6648,62.0,35,40,12.0,0.0
6649,87.0,2,40,10.0,0.0
6650,75.0,3,40,11.0,0.0
6651,63.0,35,40,12.0,0.0
6652,88.0,2,40,10.0,0.0
6653,76.0,3,40,11.0,0.0
6654,64.0,35,40,12.0,0.0
6655,89.0,2,40,10.0,0.0
6656,77.0,3,40,11.0,0.0
6657,65.0,35,40,12.0,0.0
6658,90.0,2,40,10.0,0.0
6659,78.0,3,40,11.0,0.0
6660,66.0,35,40,12.0,0.0
6661,91.0,2,40,10.0,0.0
6662,79.0,3,40,11.0,0.0
6663,67.0,21,40,12.0,0.0
6664,92.0,1,30,10.0,0.0
6665,80.0,2,30,11.0,0.0
6666,68.0,2,30,12.0,0.0
6667,93.0,1,225,10.0,0.0
6668,84.0,1,225,0.0,0.0
6669,93.0,0,225,0.0,0.0
6670,81.0,1,225,11.0,0.0
6671,60.0,1,225,6.0,0.0
6672,72.0,0,225,6.0,0.0
6673,72.0,2,225,1.0,0.0
6674,48.0,0,225,4.0,0.0
6675,81.0,0,225,1.0,0.0
6676,64.0,0,225,4.0,0.0
6677,72.0,0,30,12.0,0.0
6678,60.0,60,30,12.0,0.0
6679,69.0,0,225,2.0,0.0
6680,72.0,0,225,2.0,0.0
6681,69.0,6,225,5.0,0.0
6682,57.0,0,225,5.0,0.0
6683,45.0,3,210,13.0,0.0
6684,33.0,3,210,14.0,0.0
6685,45.0,38,225,3.0,0.0
6686,60.0,60,30,12.0,0.0
6687,72.0,0,30,12.0,0.0
6688,69.0,60,30,12.0,0.0
6689,60.0,0,30,12.0,0.0
6690,69.0,0,30,12.0,0.0
6691,60.0,4,30,12.0,0.0
6692,88.0,1,60,10.0,0.0
6693,93.0,1,60,0.0,0.0
6694,84.0,0,60,0.0,0.0
6695,76.0,1,60,11.0,0.0
6696,72.0,0,60,6.0,0.0
6697,60.0,1,60,6.0,0.0
6698,72.0,0,60,1.0,0.0
6699,81.0,2,60,1.0,0.0
6700,48.0,0,60,4.0,0.0
6701,64.0,0,60,4.0,0.0
6702,60.0,0,30,12.0,0.0
6703,69.0,25,30,12.0,0.0
6704,69.0,0,60,2.0,0.0
6705,57.0,3,60,5.0,0.0
6706,69.0,0,60,5.0,0.0
6707,72.0,0,60,2.0,0.0
6708,48.0,3,60,13.0,0.0
6709,36.0,0,60,14.0,0.0
6710,48.0,23,60,3.0,0.0
6711,60.0,0,30,12.0,0.0
6712,69.0,60,30,12.0,0.0
6713,84.0,1,225,10.0,0.0
6714,84.0,0,225,0.0,0.0
6715,93.0,1,225,0.0,0.0
6716,72.0,1,225,11.0,0.0
6717,72.0,1,225,6.0,0.0
6718,60.0,0,225,6.0,0.0
6719,48.0,0,225,4.0,0.0
6720,72.0,0,225,1.0,0.0
6721,81.0,0,225,1.0,0.0
6722,64.0,2,225,4.0,0.0
6723,60.0,60,30,12.0,0.0
6724,69.0,0,30,12.0,0.0
6725,72.0,0,225,2.0,0.0
6726,69.0,3,225,2.0,0.0
6727,69.0,0,225,5.0,0.0
6728,57.0,0,225,5.0,0.0
6729,52.0,3,225,13.0,0.0
6730,40.0,0,225,14.0,0.0
6731,52.0,38,225,3.0,0.0
6732,69.0,0,30,12.0,0.0
6733,60.0,60,30,12.0,0.0
6734,69.0,0,30,12.0,0.0
6735,60.0,60,30,12.0,0.0
6736,60.0,0,30,12.0,0.0
6737,69.0,10,30,12.0,0.0
6738,81.0,1,60,10.0,0.0
6739,93.0,0,60,0.0,0.0
6740,84.0,1,60,0.0,0.0
6741,69.0,1,60,11.0,0.0
6742,72.0,0,60,6.0,0.0
6743,60.0,1,60,6.0,0.0
6744,81.0,0,60,1.0,0.0
6745,72.0,0,60,1.0,0.0
6746,48.0,2,60,4.0,0.0
6747,64.0,0,60,4.0,0.0
6748,60.0,25,30,12.0,0.0
6749,69.0,0,30,12.0,0.0
6750,69.0,0,60,2.0,0.0
6751,72.0,0,60,2.0,0.0
6752,57.0,3,60,5.0,0.0
6753,69.0,0,60,5.0,0.0
6754,57.0,3,60,13.0,0.0
6755,57.0,0,60,3.0,0.0
6756,45.0,23,60,14.0,0.0
6757,69.0,60,30,12.0,0.0
6758,60.0,0,30,12.0,0.0
6759,96.0,1,225,10.0,0.0
6760,93.0,0,225,0.0,0.0
6761,84.0,1,225,0.0,0.0
6762,84.0,1,225,11.0,0.0
6763,60.0,0,225,6.0,0.0
6764,72.0,1,225,6.0,0.0
6765,60.0,0,225,4.0,0.0
6766,64.0,0,225,4.0,0.0
6767,72.0,0,225,1.0,0.0
6768,81.0,2,225,1.0,0.0
6769,64.0,0,30,12.0,0.0
6770,72.0,60,30,12.0,0.0
6771,69.0,0,225,5.0,0.0
6772,57.0,0,225,5.0,0.0
6773,72.0,0,225,2.0,0.0
6774,69.0,3,225,2.0,0.0
6775,45.0,3,225,13.0,0.0
6776,45.0,38,225,3.0,0.0
6777,33.0,0,225,14.0,0.0
6778,72.0,60,30,12.0,0.0
6779,64.0,0,30,12.0,0.0
6780,64.0,60,30,12.0,0.0
6781,72.0,0,30,12.0,0.0
6782,72.0,10,30,12.0,0.0
6783,64.0,0,30,12.0,0.0
6784,93.0,1,60,10.0,0.0
6785,81.0,1,60,0.0,0.0
6786,81.0,1,60,11.0,0.0
6787,69.0,1,60,6.0,0.0
6788,69.0,0,60,1.0,0.0
6789,64.0,2,60,4.0,0.0
6790,60.0,0,60,4.0,0.0
6791,69.0,25,30,12.0,0.0
6792,60.0,0,30,12.0,0.0
6793,57.0,0,60,5.0,0.0
6794,69.0,0,60,5.0,0.0
6795,69.0,0,60,2.0,0.0
6796,72.0,3,60,2.0,0.0
6797,48.0,3,60,13.0,0.0
6798,48.0,23,60,3.0,0.0
6799,36.0,0,60,14.0,0.0
6800,60.0,60,30,12.0,0.0
6801,69.0,0,30,12.0,0.0
6802,76.0,1,60,10.0,0.0
6803,81.0,1,60,0.0,0.0
6804,76.0,1,60,11.0,0.0
6805,69.0,1,60,6.0,0.0
6806,64.0,2,60,4.0,0.0
6807,60.0,0,60,4.0,0.0
6808,69.0,0,60,1.0,0.0
6809,69.0,0,30,12.0,0.0
6810,60.0,25,30,12.0,0.0
6811,57.0,0,60,5.0,0.0
6812,72.0,0,60,2.0,0.0
6813,69.0,0,60,2.0,0.0
6814,69.0,3,60,5.0,0.0
6815,52.0,3,60,13.0,0.0
6816,40.0,23,60,14.0,0.0
6817,52.0,0,60,3.0,0.0
6818,60.0,0,30,12.0,0.0
6819,69.0,60,30,12.0,0.0
6820,72.0,1,60,10.0,0.0
6821,81.0,1,60,0.0,0.0
6822,72.0,1,60,11.0,0.0
6823,69.0,1,60,6.0,0.0
6824,69.0,2,60,1.0,0.0
6825,60.0,0,60,4.0,0.0
6826,64.0,0,60,4.0,0.0
6827,64.0,25,30,12.0,0.0
6828,60.0,0,30,12.0,0.0
6829,69.0,0,60,5.0,0.0
6830,69.0,0,60,2.0,0.0
6831,72.0,3,60,2.0,0.0
6832,57.0,0,60,5.0,0.0
6833,57.0,3,60,13.0,0.0
6834,45.0,23,60,14.0,0.0
6835,57.0,0,60,3.0,0.0
6836,64.0,0,30,12.0,0.0
6837,60.0,60,30,12.0,0.0
6838,69.0,1,60,10.0,0.0
6839,81.0,1,60,0.0,0.0
6840,69.0,1,60,11.0,0.0
6841,69.0,1,60,6.0,0.0
6842,60.0,0,60,4.0,0.0
6843,69.0,2,60,1.0,0.0
6844,64.0,0,60,4.0,0.0
6845,60.0,0,30,12.0,0.0
6846,64.0,25,30,12.0,0.0
6847,69.0,0,60,5.0,0.0
6848,72.0,0,60,2.0,0.0
6849,69.0,0,60,2.0,0.0
6850,57.0,3,60,5.0,0.0
6851,60.0,3,60,13.0,0.0
6852,48.0,23,60,14.0,0.0
6853,60.0,0,60,3.0,0.0
6854,64.0,0,30,12.0,0.0
6855,60.0,60,30,12.0,0.0
6856,81.0,1,225,10.0,0.0
6857,93.0,0,225,0.0,0.0
6858,86.0,1,225,0.0,0.0
6859,81.0,0,225,11.0,0.0
6860,69.0,1,225,11.0,0.0
6861,69.0,1,225,6.0,0.0
6862,81.0,0,225,1.0,0.0
6863,74.0,2,225,1.0,0.0
6864,62.0,0,225,4.0,0.0
6865,69.0,60,30,12.0,0.0
6866,62.0,0,30,12.0,0.0
6867,57.0,3,225,5.0,0.0
6868,69.0,0,225,5.0,0.0
6869,69.0,0,225,2.0,0.0
6870,74.0,0,225,2.0,0.0
6871,54.0,3,225,13.0,0.0
6872,54.0,0,225,3.0,0.0
6873,42.0,0,225,14.0,0.0
6874,42.0,38,225,3.0,0.0
6875,62.0,0,30,12.0,0.0
6876,69.0,60,30,12.0,0.0
6877,62.0,0,30,12.0,0.0
6878,69.0,60,30,12.0,0.0
6879,62.0,0,30,12.0,0.0
6880,69.0,10,30,12.0,0.0
6881,78.0,1,60,10.0,0.0
6882,90.0,1,60,0.0,0.0
6883,86.0,0,60,0.0,0.0
6884,66.0,1,60,11.0,0.0
6885,69.0,1,60,6.0,0.0
6886,62.0,2,60,4.0,0.0
6887,74.0,0,60,1.0,0.0
6888,78.0,0,60,1.0,0.0
6889,69.0,0,30,12.0,0.0
6890,62.0,25,30,12.0,0.0
6891,57.0,0,60,5.0,0.0
6892,74.0,3,60,2.0,0.0
6893,66.0,0,60,2.0,0.0
6894,69.0,0,60,5.0,0.0
6895,57.0,3,60,13.0,0.0
6896,45.0,23,60,14.0,0.0
6897,57.0,0,60,3.0,0.0
6898,45.0,0,60,3.0,0.0
6899,62.0,60,30,12.0,0.0
6900,69.0,0,30,12.0,0.0
6901,74.0,1,225,10.0,0.0
6902,86.0,0,225,0.0,0.0
6903,90.0,1,225,0.0,0.0
6904,62.0,1,225,11.0,0.0
6905,69.0,1,225,6.0,0.0
6906,78.0,2,225,1.0,0.0
6907,74.0,0,225,1.0,0.0
6908,62.0,0,225,4.0,0.0
6909,66.0,0,30,12.0,0.0
6910,69.0,60,30,12.0,0.0
6911,69.0,0,225,2.0,0.0
6912,78.0,0,225,2.0,0.0
6913,57.0,0,225,5.0,0.0
6914,69.0,3,225,5.0,0.0
6915,62.0,3,225,13.0,0.0
6916,50.0,0,225,14.0,0.0
6917,50.0,38,225,3.0,0.0
6918,62.0,0,225,3.0,0.0
6919,69.0,0,30,12.0,0.0
6920,66.0,60,30,12.0,0.0
6921,69.0,0,30,12.0,0.0
6922,66.0,60,30,12.0,0.0
6923,66.0,0,30,12.0,0.0
6924,69.0,10,30,12.0,0.0
6925,69.0,1,60,10.0,0.0
6926,93.0,1,60,0.0,0.0
6927,86.0,0,60,0.0,0.0
6928,57.0,1,60,11.0,0.0
6929,69.0,1,60,6.0,0.0
6930,74.0,0,60,1.0,0.0
6931,81.0,2,60,1.0,0.0
6932,62.0,0,60,4.0,0.0
6933,62.0,0,30,12.0,0.0
6934,69.0,25,30,12.0,0.0
6935,69.0,0,60,2.0,0.0
6936,69.0,0,60,5.0,0.0
6937,57.0,3,60,5.0,0.0
6938,74.0,0,60,2.0,0.0
6939,66.0,3,60,13.0,0.0
6940,54.0,0,60,14.0,0.0
6941,66.0,0,60,3.0,0.0
6942,54.0,23,60,3.0,0.0
6943,62.0,60,30,12.0,0.0
6944,69.0,0,30,12.0,0.0
6945,84.0,1,225,10.0,0.0
6946,93.0,0,225,0.0,0.0
6947,84.0,1,225,0.0,0.0
6948,72.0,1,225,11.0,0.0
6949,69.0,0,225,6.0,0.0
6950,72.0,1,225,6.0,0.0
6951,62.0,0,225,4.0,0.0
6952,72.0,2,225,1.0,0.0
6953,60.0,0,225,4.0,0.0
6954,81.0,0,225,1.0,0.0
6955,66.0,0,30,12.0,0.0
6956,69.0,60,30,12.0,0.0
6957,69.0,0,225,2.0,0.0
6958,78.0,3,225,2.0,0.0
6959,69.0,0,225,5.0,0.0
6960,57.0,0,225,5.0,0.0
6961,50.0,3,225,13.0,0.0
6962,38.0,38,225,3.0,0.0
6963,50.0,0,225,3.0,0.0
6964,38.0,0,225,14.0,0.0
6965,69.0,60,30,12.0,0.0
6966,66.0,0,30,12.0,0.0
6967,66.0,60,30,12.0,0.0
6968,69.0,0,30,12.0,0.0
6969,69.0,0,30,12.0,0.0
6970,66.0,10,30,12.0,0.0
6971,81.0,1,60,10.0,0.0
6972,84.0,0,60,0.0,0.0
6973,93.0,1,60,0.0,0.0
6974,69.0,1,60,11.0,0.0
6975,69.0,0,60,6.0,0.0
6976,72.0,1,60,6.0,0.0
6977,60.0,0,60,4.0,0.0
6978,62.0,2,60,4.0,0.0
6979,81.0,0,60,1.0,0.0
6980,72.0,0,60,1.0,0.0
6981,69.0,25,30,12.0,0.0
6982,62.0,0,30,12.0,0.0
6983,72.0,0,60,2.0,0.0
6984,69.0,0,60,5.0,0.0
6985,57.0,3,60,5.0,0.0
6986,81.0,0,60,2.0,0.0
6987,54.0,3,60,13.0,0.0
6988,42.0,23,60,3.0,0.0
6989,54.0,0,60,3.0,0.0
6990,42.0,0,60,14.0,0.0
6991,69.0,0,30,12.0,0.0
6992,62.0,60,30,12.0,0.0
6993,78.0,1,60,10.0,0.0
6994,90.0,0,60,0.0,0.0
6995,84.0,1,60,0.0,0.0
6996,66.0,1,60,11.0,0.0
6997,72.0,1,60,6.0,0.0
6998,69.0,0,60,6.0,0.0
6999,78.0,0,60,1.0,0.0
7000,60.0,2,60,4.0,0.0
7001,72.0,0,60,1.0,0.0
7002,62.0,0,60,4.0,0.0
7003,66.0,0,30,12.0,0.0
7004,69.0,25,30,12.0,0.0
7005,57.0,0,60,5.0,0.0
7006,69.0,0,60,5.0,0.0
7007,72.0,3,60,2.0,0.0
7008,78.0,0,60,2.0,0.0
7009,57.0,3,60,13.0,0.0
7010,57.0,23,60,3.0,0.0
7011,45.0,0,60,14.0,0.0
7012,45.0,0,60,3.0,0.0
7013,69.0,0,30,12.0,0.0
7014,66.0,60,30,12.0,0.0
7015,72.0,1,60,10.0,0.0
7016,84.0,1,60,0.0,0.0
7017,60.0,1,60,11.0,0.0
7018,69.0,1,60,6.0,0.0
7019,72.0,0,60,6.0,0.0
7020,72.0,2,60,1.0,0.0
7021,78.0,0,60,1.0,0.0
7022,60.0,0,60,4.0,0.0
7023,62.0,0,60,4.0,0.0
7024,69.0,0,30,12.0,0.0
7025,66.0,25,30,12.0,0.0
7026,57.0,0,60,5.0,0.0
7027,72.0,3,60,2.0,0.0
7028,69.0,0,60,2.0,0.0
7029,69.0,0,60,5.0,0.0
7030,62.0,3,60,13.0,0.0
7031,50.0,23,60,14.0,0.0
7032,62.0,0,60,3.0,0.0
7033,50.0,0,60,3.0,0.0
7034,66.0,60,30,12.0,0.0
7035,69.0,0,30,12.0,0.0
7036,69.0,1,60,10.0,0.0
7037,81.0,1,60,0.0,0.0
7038,57.0,1,60,11.0,0.0
7039,69.0,0,60,6.0,0.0
7040,72.0,1,60,6.0,0.0
7041,69.0,2,60,1.0,0.0
7042,62.0,0,60,4.0,0.0
7043,72.0,0,60,1.0,0.0
7044,60.0,0,60,4.0,0.0
7045,69.0,0,30,12.0,0.0
7046,62.0,25,30,12.0,0.0
7047,69.0,0,60,2.0,0.0
7048,69.0,0,60,5.0,0.0
7049,57.0,3,60,5.0,0.0
7050,72.0,0,60,2.0,0.0
7051,66.0,3,60,13.0,0.0
7052,54.0,23,60,14.0,0.0
7053,66.0,0,60,3.0,0.0
7054,54.0,0,60,3.0,0.0
7055,62.0,60,30,12.0,0.0
7056,69.0,0,30,12.0,0.0
7057,84.0,1,225,10.0,0.0
7058,91.0,0,225,0.0,0.0
7059,84.0,1,225,0.0,0.0
7060,72.0,1,225,11.0,0.0
7061,60.0,1,225,6.0,0.0
7062,72.0,0,225,6.0,0.0
7063,63.0,0,225,4.0,0.0
7064,72.0,2,225,1.0,0.0
7065,84.0,0,225,1.0,0.0
7066,51.0,0,225,4.0,0.0
7067,67.0,0,30,12.0,0.0
7068,72.0,60,30,12.0,0.0
7069,60.0,0,225,5.0,0.0
7070,67.0,3,225,5.0,0.0
7071,79.0,0,225,2.0,0.0
7072,67.0,0,225,2.0,0.0
7073,51.0,3,225,13.0,0.0
7074,39.0,38,225,14.0,0.0
7075,39.0,0,225,3.0,0.0
7076,51.0,0,225,3.0,0.0
7077,67.0,0,30,12.0,0.0
7078,72.0,60,30,12.0,0.0
7079,67.0,60,30,12.0,0.0
7080,72.0,0,30,12.0,0.0
7081,67.0,0,30,12.0,0.0
7082,72.0,10,30,12.0,0.0
7083,79.0,1,60,10.0,0.0
7084,87.0,1,60,0.0,0.0
7085,79.0,0,60,0.0,0.0
7086,67.0,1,60,11.0,0.0
7087,72.0,0,60,6.0,0.0
7088,60.0,1,60,6.0,0.0
7089,63.0,2,60,4.0,0.0
7090,51.0,0,60,4.0,0.0
7091,79.0,0,60,1.0,0.0
7092,72.0,0,60,1.0,0.0
7093,63.0,0,30,12.0,0.0
7094,72.0,25,30,12.0,0.0
7095,60.0,3,60,5.0,0.0
7096,67.0,0,60,5.0,0.0
7097,75.0,0,60,2.0,0.0
7098,72.0,0,60,2.0,0.0
7099,55.0,3,60,13.0,0.0
7100,43.0,23,60,14.0,0.0
7101,55.0,0,60,3.0,0.0
7102,43.0,0,60,3.0,0.0
7103,72.0,60,30,12.0,0.0
7104,63.0,0,30,12.0,0.0
7105,75.0,1,225,10.0,0.0
7106,84.0,1,225,0.0,0.0
7107,63.0,1,225,11.0,0.0
7108,60.0,1,225,6.0,0.0
7109,72.0,0,225,6.0,0.0
7110,72.0,0,225,1.0,0.0
7111,51.0,2,225,4.0,0.0
7112,63.0,0,225,4.0,0.0
7113,75.0,0,225,1.0,0.0
7114,72.0,0,30,12.0,0.0
7115,67.0,60,30,12.0,0.0
7116,67.0,0,225,5.0,0.0
7117,60.0,0,225,5.0,0.0
7118,79.0,0,225,2.0,0.0
7119,67.0,3,225,2.0,0.0
7120,60.0,3,225,13.0,0.0
7121,60.0,0,225,3.0,0.0
7122,48.0,38,225,3.0,0.0
7123,48.0,0,225,14.0,0.0
7124,72.0,0,30,12.0,0.0
7125,67.0,60,30,12.0,0.0
7126,67.0,60,30,12.0,0.0
7127,72.0,0,30,12.0,0.0
7128,67.0,10,30,12.0,0.0
7129,72.0,0,30,12.0,0.0
7130,72.0,1,60,10.0,0.0
7131,84.0,1,60,0.0,0.0
7132,60.0,1,60,11.0,0.0
7133,72.0,0,60,6.0,0.0
7134,60.0,1,60,6.0,0.0
7135,51.0,0,60,4.0,0.0
7136,63.0,0,60,4.0,0.0
7137,79.0,0,60,1.0,0.0
7138,72.0,2,60,1.0,0.0
7139,63.0,0,30,12.0,0.0
7140,72.0,25,30,12.0,0.0
7141,67.0,0,60,5.0,0.0
7142,60.0,3,60,5.0,0.0
7143,72.0,0,60,2.0,0.0
7144,67.0,0,60,2.0,0.0
7145,63.0,3,60,13.0,0.0
7146,51.0,23,60,3.0,0.0
7147,63.0,0,60,3.0,0.0
7148,51.0,0,60,14.0,0.0
7149,63.0,0,30,12.0,0.0
7150,72.0,60,30,12.0,0.0
7151,87.0,1,225,10.0,0.0
7152,87.0,1,225,0.0,0.0
7153,75.0,1,225,11.0,0.0
7154,75.0,0,225,6.0,0.0
7155,60.0,1,225,6.0,0.0
7156,48.0,0,225,4.0,0.0
7157,63.0,2,225,4.0,0.0
7158,80.0,0,225,1.0,0.0
7159,75.0,0,225,1.0,0.0
7160,66.0,0,30,12.0,0.0
7161,56.0,60,30,12.0,0.0
7162,78.0,3,225,2.0,0.0
7163,66.0,0,225,5.0,0.0
7164,56.0,0,225,5.0,0.0
7165,68.0,0,225,2.0,0.0
7166,48.0,3,225,13.0,0.0
7167,36.0,0,225,3.0,0.0
7168,48.0,38,225,3.0,0.0
7169,36.0,0,225,14.0,0.0
7170,56.0,60,30,12.0,0.0
7171,66.0,0,30,12.0,0.0
7172,56.0,60,30,12.0,0.0
7173,66.0,0,30,12.0,0.0
7174,66.0,0,30,12.0,0.0
7175,56.0,10,30,12.0,0.0
7176,84.0,1,60,10.0,0.0
7177,84.0,1,60,0.0,0.0
7178,72.0,1,60,11.0,0.0
7179,75.0,0,60,6.0,0.0
7180,72.0,1,60,6.0,0.0
7181,48.0,0,60,4.0,0.0
7182,63.0,0,60,4.0,0.0
7183,72.0,0,60,1.0,0.0
7184,84.0,2,60,1.0,0.0
7185,56.0,25,30,12.0,0.0
7186,66.0,0,30,12.0,0.0
7187,66.0,0,60,5.0,0.0
7188,56.0,0,60,5.0,0.0
7189,78.0,0,60,2.0,0.0
7190,68.0,3,60,2.0,0.0
7191,51.0,3,60,13.0,0.0
7192,39.0,23,60,3.0,0.0
7193,39.0,0,60,14.0,0.0
7194,51.0,0,60,3.0,0.0
7195,66.0,0,30,12.0,0.0
7196,56.0,60,30,12.0,0.0
7197,80.0,1,60,10.0,0.0
7198,80.0,1,60,0.0,0.0
7199,68.0,1,60,11.0,0.0
7200,72.0,1,60,6.0,0.0
7201,75.0,0,60,6.0,0.0
7202,80.0,2,60,1.0,0.0
7203,72.0,0,60,1.0,0.0
7204,63.0,0,60,4.0,0.0
7205,48.0,0,60,4.0,0.0
7206,63.0,25,30,12.0,0.0
7207,72.0,0,30,12.0,0.0
7208,75.0,0,60,2.0,0.0
7209,68.0,0,60,2.0,0.0
7210,56.0,3,60,5.0,0.0
7211,66.0,0,60,5.0,0.0
7212,54.0,3,60,13.0,0.0
7213,42.0,0,60,14.0,0.0
7214,42.0,23,60,3.0,0.0
7215,54.0,0,60,3.0,0.0
7216,63.0,0,30,12.0,0.0
7217,72.0,60,30,12.0,0.0
7218,78.0,1,60,10.0,0.0
7219,78.0,1,60,0.0,0.0
7220,66.0,1,60,11.0,0.0
7221,75.0,1,60,6.0,0.0
7222,72.0,0,60,6.0,0.0
7223,63.0,0,60,4.0,0.0
7224,48.0,0,60,4.0,0.0
7225,78.0,2,60,1.0,0.0
7226,72.0,0,60,1.0,0.0
7227,72.0,25,30,12.0,0.0
7228,63.0,0,30,12.0,0.0
7229,66.0,0,60,5.0,0.0
7230,56.0,3,60,5.0,0.0
7231,68.0,0,60,2.0,0.0
7232,78.0,0,60,2.0,0.0
7233,56.0,3,60,13.0,0.0
7234,44.0,0,60,14.0,0.0
7235,44.0,0,60,3.0,0.0
7236,56.0,23,60,3.0,0.0
7237,72.0,60,30,12.0,0.0
7238,63.0,0,30,12.0,0.0
7239,75.0,1,60,10.0,0.0
7240,75.0,1,60,0.0,0.0
7241,63.0,1,60,11.0,0.0
7242,72.0,0,60,6.0,0.0
7243,75.0,1,60,6.0,0.0
7244,75.0,2,60,1.0,0.0
7245,63.0,0,60,4.0,0.0
7246,48.0,0,60,4.0,0.0
7247,78.0,0,60,1.0,0.0
7248,66.0,0,30,12.0,0.0
7249,56.0,25,30,12.0,0.0
7250,56.0,3,60,5.0,0.0
7251,68.0,0,60,2.0,0.0
7252,78.0,0,60,2.0,0.0
7253,66.0,0,60,5.0,0.0
7254,60.0,3,60,13.0,0.0
7255,48.0,0,60,14.0,0.0
7256,60.0,0,60,3.0,0.0
7257,48.0,23,60,3.0,0.0
7258,66.0,60,30,12.0,0.0
7259,56.0,0,30,12.0,0.0
7260,90.0,1,225,10.0,0.0
7261,87.0,1,225,0.0,0.0
7262,90.0,0,225,0.0,0.0
7263,78.0,1,225,11.0,0.0
7264,72.0,1,225,6.0,0.0
7265,75.0,0,225,6.0,0.0
7266,63.0,2,225,4.0,0.0
7267,48.0,0,225,4.0,0.0
7268,78.0,0,225,1.0,0.0
7269,84.0,0,225,1.0,0.0
7270,63.0,60,30,12.0,0.0
7271,72.0,0,30,12.0,0.0
7272,72.0,0,225,2.0,0.0
7273,66.0,3,225,5.0,0.0
7274,56.0,0,225,5.0,0.0
7275,78.0,0,225,2.0,0.0
7276,44.0,3,225,13.0,0.0
7277,32.0,0,225,14.0,0.0
7278,44.0,38,225,3.0,0.0
7279,63.0,0,30,12.0,0.0
7280,72.0,60,30,12.0,0.0
7281,72.0,60,30,12.0,0.0
7282,63.0,0,30,12.0,0.0
7283,72.0,0,30,12.0,0.0
7284,63.0,10,30,12.0,0.0
7285,87.0,1,60,10.0,0.0
7286,87.0,1,60,0.0,0.0
7287,75.0,1,60,11.0,0.0
7288,75.0,1,60,6.0,0.0
7289,72.0,0,60,6.0,0.0
7290,48.0,2,60,4.0,0.0
7291,63.0,0,60,4.0,0.0
7292,75.0,0,60,1.0,0.0
7293,87.0,0,60,1.0,0.0
7294,56.0,0,30,12.0,0.0
7295,66.0,25,30,12.0,0.0
7296,56.0,0,60,5.0,0.0
7297,66.0,3,60,5.0,0.0
7298,75.0,0,60,2.0,0.0
7299,78.0,0,60,2.0,0.0
7300,48.0,3,60,13.0,0.0
7301,36.0,23,60,14.0,0.0
7302,48.0,0,60,3.0,0.0
7303,66.0,0,30,12.0,0.0
7304,56.0,60,30,12.0,0.0
7305,84.0,1,60,10.0,0.0
7306,84.0,1,60,0.0,0.0
7307,72.0,1,60,11.0,0.0
7308,72.0,1,60,6.0,0.0
7309,75.0,0,60,6.0,0.0
7310,78.0,2,60,1.0,0.0
7311,48.0,0,60,4.0,0.0
7312,63.0,0,60,4.0,0.0
7313,84.0,0,60,1.0,0.0
7314,56.0,0,30,12.0,0.0
7315,66.0,25,30,12.0,0.0
7316,78.0,0,60,2.0,0.0
7317,72.0,0,60,2.0,0.0
7318,56.0,3,60,5.0,0.0
7319,66.0,0,60,5.0,0.0
7320,51.0,3,60,13.0,0.0
7321,51.0,23,60,3.0,0.0
7322,39.0,0,60,14.0,0.0
7323,56.0,60,30,12.0,0.0
7324,66.0,0,30,12.0,0.0
7325,80.0,1,60,10.0,0.0
7326,80.0,1,60,0.0,0.0
7327,68.0,2,60,11.0,0.0
7328,72.0,0,60,1.0,0.0
7329,80.0,0,60,1.0,0.0
7330,63.0,2,60,4.0,0.0
7331,48.0,0,60,4.0,0.0
7332,72.0,0,30,12.0,0.0
7333,63.0,25,30,12.0,0.0
7334,68.0,0,60,2.0,0.0
7335,56.0,0,60,5.0,0.0
7336,66.0,3,60,5.0,0.0
7337,78.0,0,60,2.0,0.0
7338,56.0,3,60,13.0,0.0
7339,44.0,0,60,14.0,0.0
7340,56.0,23,60,3.0,0.0
7341,72.0,60,30,12.0,0.0
7342,63.0,0,30,12.0,0.0
7343,78.0,1,60,10.0,0.0
7344,78.0,1,60,0.0,0.0
7345,66.0,2,60,11.0,0.0
7346,63.0,0,60,4.0,0.0
7347,48.0,2,60,4.0,0.0
7348,75.0,0,60,1.0,0.0
7349,78.0,0,60,1.0,0.0
7350,66.0,0,30,12.0,0.0
7351,56.0,25,30,12.0,0.0
7352,75.0,0,60,2.0,0.0
7353,66.0,0,60,5.0,0.0
7354,66.0,0,60,2.0,0.0
7355,56.0,3,60,5.0,0.0
7356,60.0,3,60,13.0,0.0
7357,48.0,23,60,14.0,0.0
7358,60.0,0,60,3.0,0.0
7359,66.0,60,30,12.0,0.0
7360,56.0,0,30,12.0,0.0
7361,75.0,1,60,10.0,0.0
7362,78.0,1,60,0.0,0.0
7363,75.0,0,60,0.0,0.0
7364,63.0,2,60,11.0,0.0
7365,66.0,0,60,1.0,0.0
7366,75.0,0,60,1.0,0.0
7367,63.0,2,60,4.0,0.0
7368,60.0,0,60,4.0,0.0
7369,72.0,0,30,12.0,0.0
7370,63.0,25,30,12.0,0.0
7371,63.0,3,60,2.0,0.0
7372,72.0,0,60,2.0,0.0
7373,68.0,0,60,5.0,0.0
7374,56.0,0,60,5.0,0.0
7375,44.0,3,60,13.0,0.0
7376,32.0,23,60,14.0,0.0
7377,44.0,0,60,3.0,0.0
7378,72.0,0,30,12.0,0.0
7379,63.0,55,30,12.0,0.0
7380,73.0,2,30,10.0,0.0
7381,73.0,3,60,0.0,0.0
7382,76.0,0,60,0.0,0.0
7383,61.0,29,30,11.0,0.0
7384,61.0,0,60,4.0,0.0
7385,64.0,0,60,4.0,0.0
7386,64.0,0,60,1.0,0.0
7387,73.0,1,60,1.0,0.0
7388,73.0,1,60,12.0,0.0
7389,64.0,0,60,12.0,0.0
7390,68.0,0,60,5.0,0.0
7391,56.0,0,60,5.0,0.0
7392,73.0,3,60,2.0,0.0
7393,64.0,0,60,2.0,0.0
7394,37.0,3,60,13.0,0.0
7395,37.0,98,60,14.0,0.0
7396,37.0,0,60,3.0,0.0
7397,49.0,0,60,3.0,0.0
7398,61.0,0,110,10.0,0.0
7399,64.0,2,110,10.0,0.0
7400,56.0,73,110,11.0,0.0
7401,56.0,4,120,12.0,0.0
7402,44.0,3,120,13.0,0.0
7403,44.0,38,120,3.0,0.0
7404,61.0,2,110,10.0,0.0
7405,64.0,0,110,10.0,0.0
7406,56.0,58,110,11.0,0.0
7407,58.0,2,105,12.0,0.0
7408,46.0,3,105,13.0,0.0
7409,46.0,75,105,3.0,0.0
7410,55.0,0,50,10.0,0.0
7411,63.0,0,50,10.0,0.0
7412,55.0,2,50,11.0,0.0
7413,60.0,4,240,12.0,0.0
7414,48.0,3,240,13.0,0.0
7415,37.0,98,60,14.0,0.0
7416,48.0,38,240,3.0,0.0
7417,63.0,0,110,10.0,0.0
7418,66.0,2,110,10.0,0.0
7419,57.0,73,110,11.0,0.0
7420,63.0,2,110,10.0,0.0
7421,66.0,0,110,10.0,0.0
7422,57.0,58,110,11.0,0.0
7423,61.0,0,105,12.0,0.0
7424,49.0,3,105,13.0,0.0
7425,49.0,75,105,3.0,0.0
7426,64.0,0,50,10.0,0.0
7427,56.0,2,50,10.0,0.0
7428,56.0,2,50,11.0,0.0
7429,64.0,4,240,12.0,0.0
7430,52.0,3,240,13.0,0.0
7431,52.0,38,240,3.0,0.0
7432,37.0,98,60,14.0,0.0
7433,64.0,0,110,10.0,0.0
7434,68.0,2,110,10.0,0.0
7435,59.0,73,110,11.0,0.0
7436,68.0,2,110,10.0,0.0
7437,64.0,0,110,10.0,0.0
7438,59.0,58,110,11.0,0.0
7439,63.0,2,105,12.0,0.0
7440,51.0,3,105,13.0,0.0
7441,51.0,75,105,3.0,0.0
7442,58.0,0,50,10.0,0.0
7443,67.0,0,50,10.0,0.0
7444,58.0,2,50,11.0,0.0
7445,69.0,4,180,12.0,0.0
7446,57.0,3,180,13.0,0.0
7447,37.0,98,60,14.0,0.0
7448,57.0,38,180,3.0,0.0
7449,73.0,0,110,10.0,0.0
7450,63.0,2,110,10.0,0.0
7451,66.0,13,110,11.0,0.0
7452,49.0,0,60,14.0,0.0
7453,63.0,0,110,10.0,0.0
7454,72.0,2,110,10.0,0.0
7455,66.0,2,110,11.0,0.0
7456,68.0,4,45,12.0,0.0
7457,56.0,3,45,13.0,0.0
7458,56.0,53,45,3.0,0.0
7459,63.0,0,45,12.0,0.0
7460,51.0,3,45,13.0,0.0
7461,37.0,38,60,14.0,0.0
7462,51.0,15,45,3.0,0.0
7463,66.0,0,50,10.0,0.0
7464,60.0,2,50,11.0,0.0
7465,64.0,2,45,12.0,0.0
7466,52.0,3,45,13.0,0.0
7467,52.0,75,45,3.0,0.0
7468,63.0,4,105,12.0,0.0
7469,51.0,3,105,13.0,0.0
7470,51.0,53,105,3.0,0.0
7471,37.0,38,60,14.0,0.0
7472,65.0,0,110,10.0,0.0
7473,73.0,2,110,10.0,0.0
7474,56.0,73,110,11.0,0.0
7475,61.0,4,120,12.0,0.0
7476,49.0,3,120,13.0,0.0
7477,49.0,38,120,3.0,0.0
7478,65.0,2,110,10.0,0.0
7479,73.0,0,110,10.0,0.0
7480,68.0,58,110,11.0,0.0
7481,63.0,0,105,12.0,0.0
7482,51.0,3,105,13.0,0.0
7483,51.0,75,105,3.0,0.0
7484,72.0,0,50,10.0,0.0
7485,63.0,2,50,10.0,0.0
7486,66.0,2,50,11.0,0.0
7487,65.0,4,240,12.0,0.0
7488,53.0,3,240,13.0,0.0
7489,53.0,38,240,3.0,0.0
7490,37.0,98,60,14.0,0.0
7491,71.0,0,110,10.0,0.0
7492,74.0,2,110,10.0,0.0
7493,56.0,73,110,11.0,0.0
7494,71.0,2,110,10.0,0.0
7495,74.0,0,110,10.0,0.0
7496,68.0,58,110,11.0,0.0
7497,66.0,0,105,12.0,0.0
7498,54.0,3,105,13.0,0.0
7499,54.0,75,105,3.0,0.0
7500,73.0,0,50,10.0,0.0
7501,69.0,2,50,10.0,0.0
7502,69.0,2,50,11.0,0.0
7503,71.0,4,240,12.0,0.0
7504,59.0,3,240,13.0,0.0
7505,59.0,38,240,3.0,0.0
7506,37.0,98,60,14.0,0.0
7507,77.0,2,110,10.0,0.0
7508,68.0,0,110,10.0,0.0
7509,62.0,73,110,11.0,0.0
7510,68.0,2,110,10.0,0.0
7511,77.0,0,110,10.0,0.0
7512,74.0,58,110,11.0,0.0
7513,69.0,0,105,12.0,0.0
7514,57.0,3,105,13.0,0.0
7515,57.0,75,105,3.0,0.0
7516,69.0,0,50,10.0,0.0
7517,78.0,2,50,10.0,0.0
7518,73.0,2,50,11.0,0.0
7519,76.0,4,180,12.0,0.0
7520,64.0,3,180,13.0,0.0
7521,64.0,38,180,3.0,0.0
7522,37.0,98,60,14.0,0.0
7523,70.0,2,110,10.0,0.0
7524,79.0,0,110,10.0,0.0
7525,73.0,13,110,11.0,0.0
7526,49.0,0,60,14.0,0.0
7527,79.0,2,110,10.0,0.0
7528,72.0,0,110,10.0,0.0
7529,72.0,2,110,11.0,0.0
7530,75.0,4,45,12.0,0.0
7531,63.0,3,45,13.0,0.0
7532,63.0,53,45,3.0,0.0
7533,70.0,0,45,12.0,0.0
7534,58.0,3,45,13.0,0.0
7535,37.0,38,60,14.0,0.0
7536,58.0,15,45,3.0,0.0
7537,75.0,2,50,10.0,0.0
7538,66.0,2,50,11.0,0.0
7539,72.0,0,45,12.0,0.0
7540,60.0,3,45,13.0,0.0
7541,60.0,48,45,3.0,0.0
7542,68.0,2,60,10.0,0.0
7543,64.0,10,60,11.0,0.0
7544,73.0,4,40,12.0,0.0
7545,61.0,11,40,13.0,0.0
7546,61.0,33,60,3.0,0.0
7547,37.0,0,60,14.0,0.0
7548,68.0,4,40,12.0,0.0
7549,56.0,56,40,13.0,0.0
7550,75.0,2,60,10.0,0.0
7551,66.0,10,60,11.0,0.0
7552,69.0,4,40,12.0,0.0
7553,57.0,11,40,13.0,0.0
7554,49.0,0,60,14.0,0.0
7555,49.0,33,60,3.0,0.0
7556,61.0,0,60,3.0,0.0
7557,68.0,4,40,12.0,0.0
7558,56.0,56,40,13.0,0.0
7559,68.0,2,60,10.0,0.0
7560,64.0,10,60,11.0,0.0
7561,73.0,4,40,12.0,0.0
7562,61.0,11,40,13.0,0.0
7563,49.0,33,60,3.0,0.0
7564,37.0,0,60,14.0,0.0
7565,37.0,0,60,3.0,0.0
7566,68.0,4,40,12.0,0.0
7567,56.0,56,40,13.0,0.0
7568,75.0,2,60,10.0,0.0
7569,66.0,10,60,11.0,0.0
7570,69.0,4,40,12.0,0.0
7571,57.0,11,40,13.0,0.0
7572,49.0,0,60,3.0,0.0
7573,61.0,0,60,3.0,0.0
7574,49.0,33,60,14.0,0.0
7575,68.0,4,40,12.0,0.0
7576,56.0,56,40,13.0,0.0
7577,68.0,2,60,10.0,0.0
7578,64.0,10,60,11.0,0.0
7579,73.0,4,40,12.0,0.0
7580,61.0,11,40,13.0,0.0
7581,49.0,0,60,3.0,0.0
7582,37.0,0,60,14.0,0.0
7583,37.0,33,60,3.0,0.0
7584,68.0,4,40,12.0,0.0
7585,56.0,56,40,13.0,0.0
7586,73.0,2,60,10.0,0.0
7587,61.0,10,60,11.0,0.0
7588,69.0,4,40,12.0,0.0
7589,57.0,11,40,13.0,0.0
7590,40.0,0,60,14.0,0.0
7591,52.0,0,60,3.0,0.0
7592,40.0,33,60,3.0,0.0
7593,68.0,4,40,12.0,0.0
7594,56.0,56,40,13.0,0.0
7595,66.0,2,60,10.0,0.0
7596,63.0,10,60,11.0,0.0
7597,71.0,4,40,12.0,0.0
7598,59.0,11,40,13.0,0.0
7599,35.0,33,60,14.0,0.0
7600,35.0,0,60,3.0,0.0
7601,47.0,0,60,3.0,0.0
7602,66.0,4,40,12.0,0.0
7603,54.0,56,40,13.0,0.0
7604,71.0,2,60,10.0,0.0
7605,59.0,10,60,11.0,0.0
7606,68.0,4,40,12.0,0.0
7607,56.0,11,40,13.0,0.0
7608,39.0,33,60,3.0,0.0
7609,51.0,0,60,3.0,0.0
7610,39.0,0,60,14.0,0.0
7611,66.0,4,40,12.0,0.0
7612,54.0,56,40,13.0,0.0
7613,64.0,2,60,10.0,0.0
7614,61.0,10,60,11.0,0.0
7615,69.0,4,40,12.0,0.0
7616,57.0,11,40,13.0,0.0
7617,33.0,0,60,14.0,0.0
7618,45.0,33,60,3.0,0.0
7619,64.0,4,40,12.0,0.0
7620,52.0,56,40,13.0,0.0
7621,69.0,2,60,10.0,0.0
7622,57.0,10,60,11.0,0.0
7623,66.0,4,40,12.0,0.0
7624,54.0,11,40,13.0,0.0
7625,37.0,0,60,14.0,0.0
7626,37.0,0,60,3.0,0.0
7627,49.0,33,60,3.0,0.0
7628,64.0,4,40,12.0,0.0
7629,52.0,56,40,13.0,0.0
7630,68.0,2,60,10.0,0.0
7631,61.0,10,60,11.0,0.0
7632,68.0,4,40,12.0,0.0
7633,56.0,11,40,13.0,0.0
7634,40.0,0,60,3.0,0.0
7635,52.0,0,60,3.0,0.0
7636,40.0,33,60,14.0,0.0
7637,64.0,4,40,12.0,0.0
7638,52.0,56,40,13.0,0.0
7639,68.0,2,60,10.0,0.0
7640,60.0,10,60,11.0,0.0
7641,68.0,4,40,12.0,0.0
7642,56.0,11,40,13.0,0.0
7643,44.0,33,60,14.0,0.0
7644,44.0,0,60,3.0,0.0
7645,56.0,0,60,3.0,0.0
7646,63.0,4,40,12.0,0.0
7647,51.0,53,40,13.0,0.0
7648,56.0,12,60,10.0,0.0
7649,61.0,3,50,11.0,0.0
7650,64.0,5,50,12.0,0.0
7651,52.0,3,40,13.0,0.0
7652,37.0,0,60,3.0,0.0
7653,37.0,7,30,14.0,0.0
7654,49.0,30,60,3.0,0.0
7655,76.0,3,110,11.0,0.0
7656,73.0,65,110,12.0,0.0
7657,49.0,63,40,13.0,0.0
7658,37.0,7,30,14.0,0.0
7659,68.0,1,120,10.0,0.0
7660,80.0,3,120,0.0,0.0
7661,68.0,2,120,1.0,0.0
7662,56.0,3,120,2.0,0.0
7663,68.0,0,120,2.0,0.0
7664,56.0,43,120,13.0,0.0
7665,76.0,3,110,11.0,0.0
7666,73.0,50,110,12.0,0.0
7667,70.0,1,105,10.0,0.0
7668,79.0,3,105,0.0,0.0
7669,82.0,0,105,0.0,0.0
7670,70.0,2,105,1.0,0.0
7671,67.0,0,105,1.0,0.0
7672,67.0,0,105,2.0,0.0
7673,58.0,1,105,2.0,0.0
7674,55.0,33,120,13.0,0.0
7675,75.0,3,50,11.0,0.0
7676,70.0,14,50,12.0,0.0
7677,72.0,1,240,10.0,0.0
7678,51.0,43,120,13.0,0.0
7679,49.0,0,60,3.0,0.0
7680,49.0,30,30,14.0,0.0
7681,61.0,30,60,3.0,0.0
7682,78.0,3,110,11.0,0.0
7683,69.0,65,110,12.0,0.0
7684,49.0,27,30,14.0,0.0
7685,78.0,3,120,0.0,0.0
7686,84.0,0,120,0.0,0.0
7687,72.0,2,120,1.0,0.0
7688,66.0,0,120,1.0,0.0
7689,60.0,3,120,2.0,0.0
7690,66.0,0,120,2.0,0.0
7691,54.0,43,120,13.0,0.0
7692,75.0,3,110,11.0,0.0
7693,69.0,50,110,12.0,0.0
7694,73.0,1,105,10.0,0.0
7695,85.0,0,105,0.0,0.0
7696,76.0,3,105,0.0,0.0
7697,64.0,2,105,1.0,0.0
7698,73.0,0,105,1.0,0.0
7699,64.0,0,105,2.0,0.0
7700,61.0,1,105,2.0,0.0
7701,52.0,1,105,13.0,0.0
7702,76.0,2,50,11.0,0.0
7703,68.0,47,50,12.0,0.0
7704,76.0,1,240,10.0,0.0
7705,49.0,43,120,13.0,0.0
7706,37.0,0,60,3.0,0.0
7707,49.0,30,60,3.0,0.0
7708,37.0,30,30,14.0,0.0
7709,71.0,3,110,11.0,0.0
7710,68.0,65,110,12.0,0.0
7711,37.0,27,30,14.0,0.0
7712,88.0,0,120,0.0,0.0
7713,80.0,3,120,0.0,0.0
7714,68.0,2,120,1.0,0.0
7715,76.0,0,120,1.0,0.0
7716,71.0,0,120,2.0,0.0
7717,68.0,3,120,2.0,0.0
7718,56.0,43,120,13.0,0.0
7719,71.0,3,110,11.0,0.0
7720,64.0,50,110,12.0,0.0
7721,75.0,1,105,10.0,0.0
7722,87.0,3,105,0.0,0.0
7723,79.0,0,105,0.0,0.0
7724,75.0,0,105,1.0,0.0
7725,67.0,2,105,1.0,0.0
7726,70.0,1,105,2.0,0.0
7727,67.0,0,105,2.0,0.0
7728,55.0,33,120,13.0,0.0
7729,70.0,3,50,11.0,0.0
7730,61.0,14,50,12.0,0.0
7731,81.0,45,180,10.0,0.0
7732,85.0,3,120,0.0,0.0
7733,93.0,0,120,0.0,0.0
7734,81.0,2,120,1.0,0.0
7735,73.0,0,120,1.0,0.0
7736,66.0,0,120,2.0,0.0
7737,73.0,3,120,2.0,0.0
7738,61.0,43,120,13.0,0.0
7739,49.0,30,60,3.0,0.0
7740,61.0,0,60,3.0,0.0
7741,49.0,30,30,14.0,0.0
7742,75.0,3,110,11.0,0.0
7743,66.0,5,110,12.0,0.0
7744,49.0,19,30,14.0,0.0
7745,87.0,3,105,0.0,0.0
7746,84.0,0,105,0.0,0.0
7747,72.0,17,105,1.0,0.0
7748,75.0,0,105,1.0,0.0
7749,72.0,0,120,2.0,0.0
7750,63.0,3,120,2.0,0.0
7751,60.0,36,120,13.0,0.0
7752,80.0,1,45,10.0,0.0
7753,75.0,3,110,11.0,0.0
7754,63.0,50,110,12.0,0.0
7755,75.0,7,45,10.0,0.0
7756,66.0,1,105,2.0,0.0
7757,75.0,0,105,2.0,0.0
7758,54.0,1,105,13.0,0.0
7759,76.0,6,45,10.0,0.0
7760,68.0,2,50,11.0,0.0
7761,60.0,47,50,12.0,0.0
7762,75.0,7,105,10.0,0.0
7763,37.0,30,30,14.0,0.0
7764,37.0,30,60,3.0,0.0
7765,49.0,0,60,3.0,0.0
7766,68.0,3,50,11.0,0.0
7767,65.0,57,50,12.0,0.0
7768,37.0,3,30,14.0,0.0
7769,73.0,1,120,10.0,0.0
7770,85.0,3,120,0.0,0.0
7771,73.0,3,50,11.0,0.0
7772,73.0,2,120,1.0,0.0
7773,61.0,65,50,12.0,0.0
7774,65.0,3,120,2.0,0.0
7775,61.0,0,120,2.0,0.0
7776,53.0,43,120,13.0,0.0
7777,73.0,3,110,11.0,0.0
7778,68.0,50,110,12.0,0.0
7779,75.0,1,105,10.0,0.0
7780,87.0,0,105,0.0,0.0
7781,84.0,3,105,0.0,0.0
7782,75.0,0,105,1.0,0.0
7783,72.0,2,105,1.0,0.0
7784,63.0,1,105,2.0,0.0
7785,66.0,0,105,2.0,0.0
7786,54.0,33,120,13.0,0.0
7787,72.0,3,50,11.0,0.0
7788,69.0,14,50,12.0,0.0
7789,77.0,1,240,10.0,0.0
7790,56.0,43,120,13.0,0.0
7791,49.0,30,30,14.0,0.0
7792,49.0,0,60,3.0,0.0
7793,61.0,30,60,3.0,0.0
7794,74.0,3,110,11.0,0.0
7795,71.0,65,110,12.0,0.0
7796,49.0,27,30,14.0,0.0
7797,83.0,0,120,0.0,0.0
7798,89.0,3,120,0.0,0.0
7799,77.0,2,120,1.0,0.0
7800,71.0,0,120,1.0,0.0
7801,65.0,0,120,2.0,0.0
7802,71.0,3,120,2.0,0.0
7803,59.0,43,120,13.0,0.0
7804,74.0,3,110,11.0,0.0
7805,68.0,50,110,12.0,0.0
7806,78.0,1,105,10.0,0.0
7807,81.0,0,105,0.0,0.0
7808,90.0,3,105,0.0,0.0
7809,69.0,0,105,1.0,0.0
7810,78.0,2,105,1.0,0.0
7811,66.0,1,105,2.0,0.0
7812,69.0,0,105,2.0,0.0
7813,57.0,1,105,13.0,0.0
7814,73.0,2,50,11.0,0.0
7815,69.0,47,50,12.0,0.0
7816,83.0,1,240,10.0,0.0
7817,56.0,43,120,13.0,0.0
7818,49.0,30,60,3.0,0.0
7819,37.0,0,60,3.0,0.0
7820,37.0,30,30,14.0,0.0
7821,77.0,3,110,11.0,0.0
7822,71.0,65,110,12.0,0.0
7823,37.0,27,30,14.0,0.0
7824,89.0,3,120,0.0,0.0
7825,83.0,0,120,0.0,0.0
7826,83.0,0,120,1.0,0.0
7827,77.0,2,120,1.0,0.0
7828,74.0,3,120,2.0,0.0
7829,68.0,0,120,2.0,0.0
7830,62.0,43,120,13.0,0.0
7831,77.0,3,110,11.0,0.0
7832,68.0,50,110,12.0,0.0
7833,81.0,1,105,10.0,0.0
7834,81.0,0,105,0.0,0.0
7835,90.0,3,105,0.0,0.0
7836,81.0,2,105,1.0,0.0
7837,78.0,0,105,1.0,0.0
7838,73.0,0,105,2.0,0.0
7839,69.0,1,105,2.0,0.0
7840,61.0,1,105,13.0,0.0
7841,78.0,2,50,11.0,0.0
7842,69.0,47,50,12.0,0.0
7843,88.0,45,180,10.0,0.0
7844,85.0,0,120,0.0,0.0
7845,88.0,3,120,0.0,0.0
7846,76.0,2,120,1.0,0.0
7847,85.0,0,120,1.0,0.0
7848,79.0,3,120,2.0,0.0
7849,70.0,0,120,2.0,0.0
7850,67.0,43,120,13.0,0.0
7851,61.0,30,60,3.0,0.0
7852,49.0,0,60,3.0,0.0
7853,49.0,30,30,14.0,0.0
7854,73.0,3,110,11.0,0.0
7855,70.0,5,110,12.0,0.0
7856,49.0,19,30,14.0,0.0
7857,80.0,0,105,0.0,0.0
7858,84.0,3,105,0.0,0.0
7859,80.0,0,105,1.0,0.0
7860,72.0,2,105,1.0,0.0
7861,80.0,18,105,2.0,0.0
7862,72.0,0,105,2.0,0.0
7863,68.0,36,120,13.0,0.0
7864,87.0,1,45,10.0,0.0
7865,72.0,3,110,11.0,0.0
7866,68.0,50,110,12.0,0.0
7867,82.0,7,45,10.0,0.0
7868,66.0,1,105,13.0,0.0
7869,84.0,7,45,10.0,0.0
7870,75.0,2,50,11.0,0.0
7871,63.0,37,50,12.0,0.0
7872,85.0,32,40,10.0,0.0
7873,68.0,3,30,11.0,0.0
7874,64.0,5,30,12.0,0.0
7875,64.0,23,120,13.0,0.0
7876,37.0,0,60,14.0,0.0
7877,37.0,28,60,3.0,0.0
7878,49.0,0,60,3.0,0.0
7879,80.0,29,40,10.0,0.0
7880,81.0,32,40,10.0,0.0
7881,72.0,0,30,11.0,0.0
7882,63.0,3,30,11.0,0.0
7883,68.0,0,30,12.0,0.0
7884,63.0,5,30,12.0,0.0
7885,66.0,23,120,13.0,0.0
7886,49.0,0,60,14.0,0.0
7887,49.0,28,60,3.0,0.0
7888,61.0,0,60,3.0,0.0
7889,80.0,29,40,10.0,0.0
7890,85.0,32,40,10.0,0.0
7891,64.0,3,30,11.0,0.0
7892,73.0,0,30,11.0,0.0
7893,68.0,0,30,12.0,0.0
7894,64.0,5,30,12.0,0.0
7895,64.0,38,105,13.0,0.0
7896,37.0,28,60,3.0,0.0
7897,49.0,0,60,3.0,0.0
7898,37.0,0,60,14.0,0.0
7899,80.0,14,40,10.0,0.0
7900,81.0,32,40,10.0,0.0
7901,63.0,0,30,11.0,0.0
7902,72.0,3,30,11.0,0.0
7903,63.0,0,30,12.0,0.0
7904,68.0,5,30,12.0,0.0
7905,66.0,23,120,13.0,0.0
7906,49.0,0,60,14.0,0.0
7907,61.0,0,60,3.0,0.0
7908,49.0,28,60,3.0,0.0
7909,80.0,29,40,10.0,0.0
7910,85.0,32,40,10.0,0.0
7911,64.0,0,30,11.0,0.0
7912,73.0,3,30,11.0,0.0
7913,68.0,5,30,12.0,0.0
7914,64.0,0,30,12.0,0.0
7915,64.0,38,105,13.0,0.0
7916,37.0,0,60,14.0,0.0
7917,37.0,28,60,3.0,0.0
7918,49.0,0,60,3.0,0.0
7919,80.0,14,40,10.0,0.0
7920,72.0,9,40,10.0,0.0
7921,63.0,3,30,11.0,0.0
7922,72.0,0,30,11.0,0.0
7923,69.0,5,30,12.0,0.0
7924,57.0,23,40,13.0,0.0
7925,42.0,0,60,3.0,0.0
7926,42.0,23,60,14.0,0.0
7927,54.0,0,60,3.0,0.0
7928,75.0,9,40,10.0,0.0
7929,68.0,5,30,12.0,0.0
7930,56.0,43,40,13.0,0.0
7931,68.0,9,40,10.0,0.0
7932,73.0,3,30,11.0,0.0
7933,64.0,0,30,11.0,0.0
7934,73.0,5,30,12.0,0.0
7935,61.0,23,40,13.0,0.0
7936,52.0,0,60,3.0,0.0
7937,40.0,0,60,3.0,0.0
7938,40.0,23,60,14.0,0.0
7939,73.0,9,40,10.0,0.0
7940,68.0,5,30,12.0,0.0
7941,56.0,43,40,13.0,0.0
7942,72.0,9,40,10.0,0.0
7943,72.0,3,30,11.0,0.0
7944,63.0,0,30,11.0,0.0
7945,69.0,5,30,12.0,0.0
7946,57.0,23,40,13.0,0.0
7947,42.0,23,60,3.0,0.0
7948,42.0,0,60,14.0,0.0
7949,54.0,0,60,3.0,0.0
7950,75.0,9,40,10.0,0.0
7951,68.0,5,30,12.0,0.0
7952,56.0,43,40,13.0,0.0
7953,68.0,9,40,10.0,0.0
7954,73.0,3,30,11.0,0.0
7955,64.0,0,30,11.0,0.0
7956,73.0,5,30,12.0,0.0
7957,61.0,23,40,13.0,0.0
7958,52.0,23,60,3.0,0.0
7959,40.0,0,60,3.0,0.0
7960,40.0,0,60,14.0,0.0
7961,73.0,9,40,10.0,0.0
7962,68.0,5,30,12.0,0.0
7963,56.0,43,40,13.0,0.0
7964,83.0,29,40,10.0,0.0
7965,73.0,3,30,11.0,0.0
7966,64.0,0,30,11.0,0.0
7967,61.0,0,30,12.0,0.0
7968,64.0,5,30,12.0,0.0
7969,55.0,3,60,13.0,0.0
7970,43.0,28,60,14.0,0.0
7971,81.0,52,40,10.0,0.0
7972,86.0,29,40,10.0,0.0
7973,74.0,0,30,11.0,0.0
7974,62.0,3,30,11.0,0.0
7975,62.0,0,30,12.0,0.0
7976,57.0,5,30,12.0,0.0
7977,54.0,3,60,13.0,0.0
7978,42.0,28,60,14.0,0.0
7979,81.0,52,40,10.0,0.0
7980,83.0,29,40,10.0,0.0
7981,64.0,3,30,11.0,0.0
7982,73.0,0,30,11.0,0.0
7983,61.0,0,30,12.0,0.0
7984,64.0,5,30,12.0,0.0
7985,55.0,3,60,13.0,0.0
7986,43.0,28,60,14.0,0.0
7987,81.0,52,40,10.0,0.0
7988,86.0,29,40,10.0,0.0
7989,74.0,3,30,11.0,0.0
7990,62.0,0,30,11.0,0.0
7991,57.0,5,30,12.0,0.0
7992,62.0,0,30,12.0,0.0
7993,54.0,3,60,13.0,0.0
7994,42.0,28,60,14.0,0.0
7995,81.0,52,40,10.0,0.0
7996,84.0,29,40,10.0,0.0
7997,75.0,0,30,11.0,0.0
7998,66.0,3,30,11.0,0.0
7999,63.0,0,30,12.0,0.0
8000,66.0,5,30,12.0,0.0
8001,57.0,3,60,13.0,0.0
8002,45.0,28,60,14.0,0.0
8003,83.0,52,40,10.0,0.0
8004,88.0,29,40,10.0,0.0
8005,71.0,3,30,11.0,0.0
8006,76.0,0,30,11.0,0.0
8007,59.0,5,30,12.0,0.0
8008,64.0,0,30,12.0,0.0
8009,56.0,3,60,13.0,0.0
8010,44.0,28,60,14.0,0.0
8011,83.0,52,40,10.0,0.0
8012,88.0,29,40,10.0,0.0
8013,70.0,0,30,11.0,0.0
8014,76.0,3,30,11.0,0.0
8015,64.0,0,30,12.0,0.0
8016,58.0,5,30,12.0,0.0
8017,55.0,3,60,13.0,0.0
8018,43.0,28,60,14.0,0.0
8019,82.0,52,40,10.0,0.0
8020,88.0,21,40,10.0,0.0
8021,81.0,0,60,0.0,0.0
8022,88.0,3,60,0.0,0.0
8023,76.0,0,30,11.0,0.0
8024,69.0,3,30,11.0,0.0
8025,69.0,0,60,1.0,0.0
8026,76.0,2,60,1.0,0.0
8027,57.0,0,30,12.0,0.0
8028,64.0,5,30,12.0,0.0
8029,69.0,0,60,2.0,0.0
8030,76.0,3,60,2.0,0.0
8031,54.0,3,60,13.0,0.0
8032,54.0,0,60,3.0,0.0
8033,64.0,28,60,3.0,0.0
8034,42.0,0,60,14.0,0.0
8035,81.0,52,40,10.0,0.0
8036,87.0,21,40,10.0,0.0
8037,81.0,0,60,0.0,0.0
8038,87.0,3,60,0.0,0.0
8039,75.0,3,30,11.0,0.0
8040,69.0,2,60,1.0,0.0
8041,75.0,0,60,1.0,0.0
8042,63.0,5,30,12.0,0.0
8043,57.0,0,30,12.0,0.0
8044,69.0,0,60,2.0,0.0
8045,75.0,3,60,2.0,0.0
8046,53.0,3,60,13.0,0.0
8047,53.0,28,60,3.0,0.0
8048,63.0,0,60,3.0,0.0
8049,41.0,0,60,14.0,0.0
8050,81.0,50,40,10.0,0.0
8051,88.0,31,30,10.0,0.0
8052,80.0,0,60,0.0,0.0
8053,88.0,1,60,0.0,0.0
8054,76.0,0,60,11.0,0.0
8055,68.0,2,60,11.0,0.0
8056,68.0,0,60,1.0,0.0
8057,76.0,1,60,1.0,0.0
8058,64.0,1,60,12.0,0.0
8059,56.0,0,60,12.0,0.0
8060,76.0,0,60,2.0,0.0
8061,68.0,3,60,2.0,0.0
8062,52.0,3,60,13.0,0.0
8063,64.0,18,60,3.0,0.0
8064,52.0,0,60,3.0,0.0
8065,40.0,0,60,14.0,0.0
8066,76.0,91,30,10.0,0.0
8067,85.0,0,60,0.0,0.0
8068,93.0,3,60,0.0,0.0
8069,81.0,0,60,1.0,0.0
8070,73.0,0,60,1.0,0.0
8071,64.0,1,60,4.0,0.0
8072,64.0,1,60,12.0,0.0
8073,57.0,0,60,12.0,0.0
8074,57.0,0,60,5.0,0.0
8075,81.0,0,60,2.0,0.0
8076,69.0,3,60,5.0,0.0
8077,73.0,0,60,2.0,0.0
8078,52.0,0,60,13.0,0.0
8079,45.0,3,60,13.0,0.0
8080,33.0,0,60,14.0,0.0
8081,69.0,109,60,3.0,0.0
8082,61.0,0,60,3.0,0.0
8083,92.0,0,60,0.0,0.0
8084,86.0,3,60,0.0,0.0
8085,80.0,0,60,1.0,0.0
8086,71.0,0,60,1.0,0.0
8087,62.0,1,60,4.0,0.0
8088,64.0,1,60,12.0,0.0
8089,57.0,0,60,12.0,0.0
8090,80.0,0,60,2.0,0.0
8091,74.0,0,60,2.0,0.0
8092,68.0,3,60,5.0,0.0
8093,59.0,0,60,5.0,0.0
8094,57.0,3,60,13.0,0.0
8095,62.0,0,60,3.0,0.0
8096,68.0,0,60,3.0,0.0
8097,45.0,228,60,14.0,0.0
8098,93.0,1,180,0.0,0.0
8099,85.0,0,240,0.0,0.0
8100,81.0,1,180,1.0,0.0
8101,64.0,0,240,4.0,0.0
8102,57.0,0,240,4.0,0.0
8103,81.0,3,180,2.0,0.0
8104,69.0,0,240,5.0,0.0
8105,57.0,0,240,5.0,0.0
8106,69.0,49,180,3.0,0.0
8107,73.0,1,60,10.0,0.0
8108,64.0,2,60,11.0,0.0
8109,57.0,1,60,12.0,0.0
8110,45.0,3,60,13.0,0.0
8111,33.0,0,60,14.0,0.0
8112,88.0,3,60,0.0,0.0
8113,76.0,2,60,1.0,0.0
8114,76.0,6,60,2.0,0.0
8115,64.0,48,60,3.0,0.0
8116,74.0,1,60,10.0,0.0
8117,85.0,1,60,0.0,0.0
8118,64.0,2,60,11.0,0.0
8119,73.0,0,0,1.0,0.0
8120,58.0,1,60,12.0,0.0
8121,73.0,0,0,2.0,0.0
8122,46.0,3,60,13.0,0.0
8123,34.0,0,60,14.0,0.0
8124,61.0,0,0,3.0,0.0
8125,86.0,3,45,0.0,0.0
8126,74.0,2,45,1.0,0.0
8127,74.0,6,45,2.0,0.0
8128,62.0,64,45,3.0,0.0
8129,73.0,1,240,10.0,0.0
8130,88.0,5,60,0.0,0.0
8131,64.0,3,240,11.0,0.0
8132,76.0,2,120,1.0,0.0
8133,57.0,1,180,12.0,0.0
8134,76.0,6,60,2.0,0.0
8135,45.0,3,180,13.0,0.0
8136,64.0,49,60,3.0,0.0
8137,33.0,49,240,14.0,0.0
8138,85.0,3,60,0.0,0.0
8139,73.0,6,60,2.0,0.0
8140,61.0,49,60,3.0,0.0
8141,82.0,4,60,0.0,0.0
8142,70.0,3,60,2.0,0.0
8143,58.0,48,60,3.0,0.0
8144,81.0,1,60,0.0,0.0
8145,61.0,1,60,12.0,0.0
8146,69.0,3,60,2.0,0.0
8147,49.0,3,60,13.0,0.0
8148,57.0,0,60,3.0,0.0
8149,79.0,4,60,0.0,0.0
8150,64.0,1,60,12.0,0.0
8151,67.0,3,60,2.0,0.0
8152,52.0,3,60,13.0,0.0
8153,55.0,38,60,3.0,0.0
8154,82.0,5,60,0.0,0.0
8155,62.0,4,45,12.0,0.0
8156,70.0,6,60,2.0,0.0
8157,50.0,7,45,13.0,0.0
8158,58.0,49,60,3.0,0.0
8159,81.0,4,60,0.0,0.0
8160,61.0,1,60,12.0,0.0
8161,69.0,3,60,2.0,0.0
8162,49.0,3,60,13.0,0.0
8163,57.0,49,60,3.0,0.0
8164,79.0,4,60,0.0,0.0
8165,64.0,1,60,12.0,0.0
8166,67.0,3,60,2.0,0.0
8167,52.0,3,60,13.0,0.0
8168,55.0,49,60,3.0,0.0
8169,82.0,4,60,0.0,0.0
8170,67.0,1,60,12.0,0.0
8171,70.0,3,60,2.0,0.0
8172,55.0,3,60,13.0,0.0
8173,58.0,49,60,3.0,0.0
8174,81.0,4,60,0.0,0.0
8175,65.0,1,60,12.0,0.0
8176,69.0,3,60,2.0,0.0
8177,53.0,3,60,13.0,0.0
8178,57.0,49,60,3.0,0.0
8179,79.0,4,60,0.0,0.0
8180,64.0,1,60,12.0,0.0
8181,67.0,3,60,2.0,0.0
8182,52.0,3,60,13.0,0.0
8183,55.0,34,60,3.0,0.0
8184,82.0,4,45,0.0,0.0
8185,67.0,1,45,12.0,0.0
8186,70.0,3,45,2.0,0.0
8187,55.0,3,45,13.0,0.0
8188,58.0,64,45,3.0,0.0
8189,81.0,5,60,0.0,0.0
8190,70.0,1,105,12.0,0.0
8191,69.0,6,60,2.0,0.0
8192,58.0,3,105,13.0,0.0
8193,57.0,34,60,3.0,0.0
8194,79.0,4,45,0.0,0.0
8195,67.0,3,45,2.0,0.0
8196,55.0,64,45,3.0,0.0
8197,78.0,0,60,0.0,0.0
8198,74.0,3,60,0.0,0.0
8199,62.0,0,60,4.0,0.0
8200,78.0,0,60,1.0,0.0
8201,86.0,1,60,1.0,0.0
8202,69.0,1,60,12.0,0.0
8203,62.0,3,60,5.0,0.0
8204,69.0,0,60,5.0,0.0
8205,66.0,0,60,2.0,0.0
8206,74.0,0,60,2.0,0.0
8207,45.0,3,60,13.0,0.0
8208,38.0,0,60,13.0,0.0
8209,38.0,0,60,14.0,0.0
8210,62.0,0,60,3.0,0.0
8211,54.0,109,60,3.0,0.0
8212,73.0,0,60,0.0,0.0
8213,76.0,3,60,0.0,0.0
8214,64.0,0,60,4.0,0.0
8215,85.0,0,60,1.0,0.0
8216,76.0,1,60,1.0,0.0
8217,57.0,1,60,12.0,0.0
8218,73.0,0,60,2.0,0.0
8219,57.0,3,60,5.0,0.0
8220,64.0,0,60,2.0,0.0
8221,57.0,3,60,13.0,0.0
8222,50.0,0,60,13.0,0.0
8223,52.0,0,60,3.0,0.0
8224,50.0,228,60,14.0,0.0
8225,61.0,0,60,3.0,0.0
8226,74.0,0,240,0.0,0.0
8227,78.0,3,240,0.0,0.0
8228,62.0,0,240,4.0,0.0
8229,86.0,1,180,1.0,0.0
8230,74.0,3,180,2.0,0.0
8231,69.0,6,240,5.0,0.0
8232,57.0,0,240,5.0,0.0
8233,62.0,49,180,3.0,0.0
8234,66.0,2,60,10.0,0.0
8235,57.0,2,60,11.0,0.0
8236,50.0,1,60,12.0,0.0
8237,38.0,3,60,13.0,0.0
8238,38.0,0,60,14.0,0.0
8239,81.0,0,60,1.0,0.0
8240,69.0,0,60,2.0,0.0
8241,57.0,48,60,3.0,0.0
8242,67.0,2,60,10.0,0.0
8243,57.0,2,60,11.0,0.0
8244,78.0,2,0,1.0,0.0
8245,51.0,1,60,12.0,0.0
8246,66.0,0,0,2.0,0.0
8247,39.0,3,60,13.0,0.0
8248,54.0,0,0,3.0,0.0
8249,39.0,0,60,14.0,0.0
8250,79.0,2,45,1.0,0.0
8251,67.0,6,45,2.0,0.0
8252,55.0,67,45,3.0,0.0
8253,66.0,2,240,10.0,0.0
8254,57.0,2,240,11.0,0.0
8255,81.0,2,60,1.0,0.0
8256,50.0,1,180,12.0,0.0
8257,69.0,6,60,2.0,0.0
8258,38.0,3,180,13.0,0.0
8259,38.0,52,120,14.0,0.0
8260,57.0,52,60,3.0,0.0
8261,78.0,2,60,1.0,0.0
8262,66.0,6,60,2.0,0.0
8263,54.0,0,60,3.0,0.0
8264,75.0,1,60,1.0,0.0
8265,63.0,3,60,2.0,0.0
8266,63.0,48,60,3.0,0.0
8267,74.0,1,60,1.0,0.0
8268,54.0,4,60,12.0,0.0
8269,42.0,3,60,13.0,0.0
8270,62.0,52,60,3.0,0.0
8271,72.0,1,60,1.0,0.0
8272,57.0,4,60,12.0,0.0
8273,45.0,3,60,13.0,0.0
8274,60.0,52,60,3.0,0.0
8275,75.0,1,60,1.0,0.0
8276,55.0,4,60,12.0,0.0
8277,43.0,3,60,13.0,0.0
8278,63.0,52,60,3.0,0.0
8279,74.0,1,60,1.0,0.0
8280,54.0,4,60,12.0,0.0
8281,42.0,3,60,13.0,0.0
8282,62.0,52,60,3.0,0.0
8283,72.0,1,60,1.0,0.0
8284,57.0,4,60,12.0,0.0
8285,45.0,3,60,13.0,0.0
8286,60.0,52,60,3.0,0.0
8287,75.0,1,60,1.0,0.0
8288,60.0,4,60,12.0,0.0
8289,48.0,3,60,13.0,0.0
8290,63.0,52,60,3.0,0.0
8291,74.0,1,60,1.0,0.0
8292,58.0,4,60,12.0,0.0
8293,46.0,3,60,13.0,0.0
8294,62.0,52,60,3.0,0.0
8295,72.0,1,60,1.0,0.0
8296,57.0,4,60,12.0,0.0
8297,45.0,3,60,13.0,0.0
8298,60.0,37,60,3.0,0.0
8299,75.0,8,45,1.0,0.0
8300,60.0,4,60,12.0,0.0
8301,48.0,55,60,13.0,0.0
8302,63.0,8,45,3.0,0.0
8303,74.0,8,60,1.0,0.0
8304,63.0,4,105,12.0,0.0
8305,51.0,3,105,13.0,0.0
8306,62.0,37,60,3.0,0.0
8307,72.0,1,45,1.0,0.0
8308,60.0,64,45,3.0,0.0
8309,83.0,0,60,0.0,0.0
8310,91.0,3,60,0.0,0.0
8311,67.0,0,60,1.0,0.0
8312,71.0,0,60,1.0,0.0
8313,55.0,1,60,4.0,0.0
8314,62.0,0,60,4.0,0.0
8315,62.0,1,60,12.0,0.0
8316,79.0,0,60,2.0,0.0
8317,71.0,3,60,2.0,0.0
8318,43.0,0,60,13.0,0.0
8319,50.0,3,60,13.0,0.0
8320,31.0,109,60,14.0,0.0
8321,59.0,0,60,3.0,0.0
8322,55.0,0,60,3.0,0.0
8323,90.0,0,60,0.0,0.0
8324,84.0,3,60,0.0,0.0
8325,66.0,0,60,1.0,0.0
8326,69.0,1,60,1.0,0.0
8327,50.0,1,60,12.0,0.0
8328,78.0,3,60,2.0,0.0
8329,72.0,0,60,2.0,0.0
8330,55.0,3,60,13.0,0.0
8331,60.0,0,60,3.0,0.0
8332,43.0,228,60,14.0,0.0
8333,57.0,0,60,3.0,0.0
8334,91.0,1,180,0.0,0.0
8335,67.0,0,240,1.0,0.0
8336,62.0,0,240,4.0,0.0
8337,55.0,0,240,4.0,0.0
8338,71.0,2,240,1.0,0.0
8339,79.0,3,180,2.0,0.0
8340,55.0,0,240,3.0,0.0
8341,59.0,48,240,3.0,0.0
8342,71.0,1,60,10.0,0.0
8343,62.0,3,60,11.0,0.0
8344,55.0,1,60,12.0,0.0
8345,43.0,52,60,13.0,0.0
8346,86.0,0,60,0.0,0.0
8347,74.0,6,60,2.0,0.0
8348,72.0,1,60,10.0,0.0
8349,83.0,3,0,0.0,0.0
8350,62.0,3,60,11.0,0.0
8351,56.0,1,60,12.0,0.0
8352,71.0,0,0,2.0,0.0
8353,44.0,52,60,13.0,0.0
8354,84.0,5,60,0.0,0.0
8355,72.0,55,60,2.0,0.0
8356,71.0,2,240,10.0,0.0
8357,86.0,5,60,0.0,0.0
8358,62.0,3,240,11.0,0.0
8359,55.0,1,180,12.0,0.0
8360,74.0,55,60,2.0,0.0
8361,43.0,3,180,13.0,0.0
8362,83.0,5,60,0.0,0.0
8363,79.0,3,60,0.0,0.0
8364,55.0,1,60,4.0,0.0
8365,71.0,0,60,1.0,0.0
8366,62.0,0,60,4.0,0.0
8367,79.0,0,60,1.0,0.0
8368,71.0,55,0,2.0,0.0
8369,67.0,3,60,2.0,0.0
8370,31.0,52,120,14.0,0.0
8371,59.0,0,60,3.0,0.0
8372,55.0,48,60,3.0,0.0
8373,59.0,4,60,12.0,0.0
8374,47.0,3,60,13.0,0.0
8375,72.0,1,60,1.0,0.0
8376,78.0,0,60,1.0,0.0
8377,62.0,1,60,12.0,0.0
8378,69.0,0,60,2.0,0.0
8379,72.0,3,60,2.0,0.0
8380,50.0,3,60,13.0,0.0
8381,60.0,0,60,3.0,0.0
8382,57.0,53,60,3.0,0.0
8383,43.0,53,120,14.0,0.0
8384,60.0,4,60,12.0,0.0
8385,48.0,3,60,13.0,0.0
8386,71.0,0,240,1.0,0.0
8387,55.0,2,240,4.0,0.0
8388,62.0,0,240,4.0,0.0
8389,79.0,1,180,1.0,0.0
8390,59.0,4,60,12.0,0.0
8391,71.0,6,240,2.0,0.0
8392,67.0,0,240,2.0,0.0
8393,47.0,41,60,13.0,0.0
8394,55.0,0,240,3.0,0.0
8395,59.0,37,240,3.0,0.0
8396,62.0,4,45,12.0,0.0
8397,50.0,66,45,13.0,0.0
8398,71.0,2,60,10.0,0.0
8399,62.0,2,60,11.0,0.0
8400,55.0,4,60,12.0,0.0
8401,55.0,40,60,13.0,0.0
8402,74.0,15,45,1.0,0.0
8403,72.0,2,60,10.0,0.0
8404,62.0,3,60,11.0,0.0
8405,71.0,11,45,1.0,0.0
8406,56.0,4,60,12.0,0.0
8407,56.0,40,60,13.0,0.0
8408,72.0,60,45,1.0,0.0
8409,71.0,2,60,10.0,0.0
8410,62.0,47,60,11.0,0.0
8411,74.0,11,45,1.0,0.0
8412,55.0,4,180,12.0,0.0
8413,71.0,57,45,1.0,0.0
8414,71.0,0,45,0.0,0.0
8415,79.0,3,45,0.0,0.0
8416,67.0,2,45,1.0,0.0
8417,67.0,14,45,2.0,0.0
8418,59.0,0,45,2.0,0.0
8419,43.0,3,60,13.0,0.0
8420,31.0,0,60,14.0,0.0
8421,55.0,53,60,3.0,0.0
8422,59.0,41,60,12.0,0.0
8423,78.0,0,45,0.0,0.0
8424,69.0,5,45,0.0,0.0
8425,62.0,4,60,12.0,0.0
8426,60.0,14,45,2.0,0.0
8427,66.0,0,45,2.0,0.0
8428,55.0,3,60,13.0,0.0
8429,57.0,53,60,3.0,0.0
8430,43.0,0,60,14.0,0.0
8431,60.0,60,60,12.0,0.0
8432,59.0,60,60,12.0,0.0
8433,62.0,41,60,12.0,0.0
8434,55.0,2,60,10.0,0.0
8435,79.0,5,45,0.0,0.0
8436,59.0,7,60,11.0,0.0
8437,67.0,41,120,12.0,0.0
8438,67.0,9,45,2.0,0.0
8439,43.0,3,60,13.0,0.0
8440,47.0,0,60,3.0,0.0
8441,55.0,34,60,3.0,0.0
8442,31.0,0,60,14.0,0.0
8443,83.0,5,45,0.0,0.0
8444,71.0,14,45,2.0,0.0
8445,56.0,2,60,10.0,0.0
8446,86.0,5,45,0.0,0.0
8447,60.0,7,60,11.0,0.0
8448,74.0,9,45,2.0,0.0
8449,42.0,3,60,13.0,0.0
8450,30.0,0,60,14.0,0.0
8451,56.0,34,60,3.0,0.0
8452,48.0,0,60,3.0,0.0
8453,84.0,5,45,0.0,0.0
8454,72.0,55,45,2.0,0.0
8455,83.0,5,45,0.0,0.0
8456,71.0,55,45,2.0,0.0
8457,79.0,5,45,0.0,0.0
8458,67.0,58,45,2.0,0.0
8459,67.0,2,60,10.0,0.0
8460,55.0,0,60,10.0,0.0
8461,59.0,3,60,11.0,0.0
8462,67.0,2,45,1.0,0.0
8463,55.0,4,60,12.0,0.0
8464,59.0,0,45,2.0,0.0
8465,62.0,9,45,2.0,0.0
8466,43.0,3,60,13.0,0.0
8467,31.0,53,60,14.0,0.0
8468,59.0,44,60,12.0,0.0
8469,66.0,0,60,10.0,0.0
8470,57.0,2,60,10.0,0.0
8471,60.0,3,60,11.0,0.0
8472,66.0,2,45,1.0,0.0
8473,62.0,4,60,12.0,0.0
8474,60.0,9,45,2.0,0.0
8475,55.0,3,60,13.0,0.0
8476,43.0,53,60,14.0,0.0
8477,60.0,60,60,12.0,0.0
8478,59.0,60,60,12.0,0.0
8479,62.0,55,60,12.0,0.0
8480,55.0,2,60,10.0,0.0
8481,59.0,4,60,11.0,0.0
8482,67.0,3,60,2.0,0.0
8483,43.0,3,60,13.0,0.0
8484,47.0,0,60,3.0,0.0
8485,55.0,0,60,3.0,0.0
8486,31.0,54,60,14.0,0.0
8487,71.0,54,60,2.0,0.0
8488,56.0,2,60,10.0,0.0
8489,60.0,4,60,11.0,0.0
8490,74.0,3,60,2.0,0.0
8491,42.0,3,60,13.0,0.0
8492,48.0,0,60,3.0,0.0
8493,30.0,54,60,14.0,0.0
8494,56.0,0,60,3.0,0.0
8495,72.0,60,60,2.0,0.0
8496,71.0,60,60,2.0,0.0
8497,67.0,54,60,2.0,0.0
8498,67.0,2,60,10.0,0.0
8499,59.0,3,60,11.0,0.0
8500,55.0,4,60,12.0,0.0
8501,43.0,3,60,13.0,0.0
8502,55.0,60,60,3.0,0.0
8503,31.0,0,60,14.0,0.0
8504,59.0,48,60,3.0,0.0
8505,66.0,2,60,10.0,0.0
8506,60.0,3,60,11.0,0.0
8507,48.0,4,60,12.0,0.0
8508,44.0,3,60,13.0,0.0
8509,62.0,60,60,3.0,0.0
8510,32.0,0,60,14.0,0.0
8511,60.0,168,60,3.0,0.0
8512,65.0,2,60,10.0,0.0
8513,60.0,3,60,11.0,0.0
8514,53.0,4,60,12.0,0.0
8515,45.0,3,60,13.0,0.0
8516,33.0,108,60,14.0,0.0
8517,64.0,2,60,10.0,0.0
8518,61.0,3,60,11.0,0.0
8519,55.0,4,60,12.0,0.0
8520,46.0,3,60,13.0,0.0
8521,34.0,228,60,14.0,0.0
8522,63.0,2,60,10.0,0.0
8523,59.0,3,60,11.0,0.0
8524,54.0,4,60,12.0,0.0
8525,47.0,3,60,13.0,0.0
8526,35.0,0,60,14.0,0.0
8527,63.0,228,60,3.0,0.0
8528,62.0,2,60,10.0,0.0
8529,57.0,3,60,11.0,0.0
8530,54.0,4,60,12.0,0.0
8531,48.0,3,60,13.0,0.0
8532,36.0,228,60,14.0,0.0
8533,62.0,0,60,3.0,0.0
8534,61.0,2,60,10.0,0.0
8535,57.0,3,60,11.0,0.0
8536,54.0,4,60,12.0,0.0
8537,49.0,3,60,13.0,0.0
8538,61.0,0,60,3.0,0.0
8539,37.0,408,60,14.0,0.0
8540,60.0,2,360,10.0,0.0
8541,57.0,7,360,11.0,0.0
8542,54.0,2,700,12.0,0.0
8543,50.0,3,360,13.0,0.0
8544,38.0,137,700,14.0,0.0
8545,60.0,328,360,3.0,0.0
8546,50.0,0,360,3.0,0.0
8547,57.0,2,340,10.0,0.0
8548,60.0,3,340,11.0,0.0
8549,38.0,3,340,13.0,0.0
8550,57.0,0,335,3.0,0.0
8551,48.0,2,335,3.0,0.0
8552,55.0,3,720,4.0,0.0
8553,39.0,43,120,13.0,0.0
8554,46.0,0,1560,3.0,0.0
8555,55.0,0,1440,3.0,0.0
8556,39.0,5,715,14.0,0.0
8557,27.0,40,720,3.0,0.0
8558,67.0,2,112,10.0,0.0
8559,58.0,3,112,11.0,0.0
8560,55.0,72,112,12.0,0.0
8561,39.0,43,120,13.0,0.0
8562,67.0,2,112,10.0,0.0
8563,58.0,3,112,11.0,0.0
8564,55.0,72,112,12.0,0.0
8565,67.0,2,112,10.0,0.0
8566,58.0,3,112,11.0,0.0
8567,55.0,72,112,12.0,0.0
8568,39.0,43,0,13.0,0.0
8569,67.0,2,112,10.0,0.0
8570,58.0,3,112,11.0,0.0
8571,55.0,72,112,12.0,0.0
8572,39.0,43,0,13.0,0.0
8573,67.0,2,112,10.0,0.0
8574,58.0,3,112,11.0,0.0
8575,55.0,67,112,12.0,0.0
8576,39.0,0,115,13.0,0.0
8577,67.0,2,112,10.0,0.0
8578,58.0,3,112,11.0,0.0
8579,55.0,72,112,12.0,0.0
8580,58.0,3,720,4.0,0.0
8581,37.0,5,715,14.0,0.0
8582,25.0,40,720,3.0,0.0
8583,65.0,2,112,10.0,0.0
8584,58.0,3,112,11.0,0.0
8585,53.0,72,112,12.0,0.0
8586,37.0,43,0,13.0,0.0
8587,65.0,2,112,10.0,0.0
8588,58.0,3,112,11.0,0.0
8589,53.0,72,112,12.0,0.0
8590,37.0,43,0,13.0,0.0
8591,65.0,2,112,10.0,0.0
8592,58.0,3,112,11.0,0.0
8593,53.0,72,112,12.0,0.0
8594,65.0,2,112,10.0,0.0
8595,58.0,3,112,11.0,0.0
8596,53.0,72,112,12.0,0.0
8597,37.0,43,0,13.0,0.0
8598,65.0,2,112,10.0,0.0
8599,58.0,3,112,11.0,0.0
8600,53.0,60,112,12.0,0.0
8601,37.0,43,0,13.0,0.0
8602,65.0,2,112,10.0,0.0
8603,58.0,75,112,11.0,0.0
8604,53.0,7,52,12.0,0.0
8605,67.0,5,600,4.0,0.0
8606,36.0,40,360,14.0,0.0
8607,24.0,0,120,3.0,0.0
8608,52.0,40,120,3.0,0.0
8609,64.0,2,112,10.0,0.0
8610,58.0,3,112,11.0,0.0
8611,55.0,72,112,12.0,0.0
8612,36.0,3,0,13.0,0.0
8613,64.0,2,112,10.0,0.0
8614,58.0,3,112,11.0,0.0
8615,55.0,72,112,12.0,0.0
8616,36.0,3,120,13.0,0.0
8617,64.0,2,112,10.0,0.0
8618,58.0,3,112,11.0,0.0
8619,55.0,72,112,12.0,0.0
8620,41.0,43,120,13.0,0.0
8621,29.0,45,355,14.0,0.0
8622,60.0,2,112,10.0,0.0
8623,56.0,3,112,11.0,0.0
8624,56.0,67,112,12.0,0.0
8625,41.0,43,120,13.0,0.0
8626,60.0,2,112,10.0,0.0
8627,56.0,3,112,11.0,0.0
8628,56.0,67,112,12.0,0.0
8629,65.0,0,120,4.0,0.0
8630,41.0,3,115,13.0,0.0
8631,60.0,2,112,10.0,0.0
8632,56.0,3,112,11.0,0.0
8633,56.0,72,112,12.0,0.0
8634,63.0,5,360,4.0,0.0
8635,34.0,45,715,14.0,0.0
8636,58.0,2,112,10.0,0.0
8637,55.0,3,112,11.0,0.0
8638,55.0,72,112,12.0,0.0
8639,46.0,43,0,13.0,0.0
8640,58.0,2,112,10.0,0.0
8641,55.0,3,112,11.0,0.0
8642,55.0,67,112,12.0,0.0
8643,46.0,43,120,13.0,0.0
8644,58.0,2,112,10.0,0.0
8645,58.0,3,112,11.0,0.0
8646,55.0,72,112,12.0,0.0
8647,62.0,3,360,4.0,0.0
8648,58.0,2,112,10.0,0.0
8649,58.0,3,112,11.0,0.0
8650,53.0,72,112,12.0,0.0
8651,46.0,43,0,13.0,0.0
8652,58.0,2,112,10.0,0.0
8653,58.0,3,112,11.0,0.0
8654,53.0,60,112,12.0,0.0
8655,46.0,43,0,13.0,0.0
8656,58.0,2,112,10.0,0.0
8657,58.0,3,112,11.0,0.0
8658,53.0,7,52,12.0,0.0
8659,70.0,0,720,1.0,0.0
8660,58.0,0,720,4.0,0.0
8661,55.0,72,52,12.0,0.0
8662,39.0,43,120,13.0,0.0
8663,39.0,40,360,14.0,0.0
8664,27.0,0,360,3.0,0.0
8665,58.0,2,112,10.0,0.0
8666,55.0,3,112,11.0,0.0
8667,55.0,72,112,12.0,0.0
8668,58.0,2,112,10.0,0.0
8669,55.0,3,112,11.0,0.0
8670,55.0,60,112,12.0,0.0
8671,39.0,43,0,13.0,0.0
8672,58.0,2,112,10.0,0.0
8673,58.0,3,112,11.0,0.0
8674,55.0,12,52,12.0,0.0
8675,54.0,72,52,12.0,0.0
8676,42.0,43,120,13.0,0.0
8677,30.0,40,360,3.0,0.0
8678,30.0,5,355,14.0,0.0
8679,63.0,2,112,10.0,0.0
8680,58.0,3,112,11.0,0.0
8681,54.0,72,112,12.0,0.0
8682,63.0,2,112,10.0,0.0
8683,58.0,3,112,11.0,0.0
8684,54.0,63,112,12.0,0.0
8685,42.0,43,0,13.0,0.0
8686,63.0,4,60,10.0,0.0
8687,58.0,3,112,11.0,0.0
8688,54.0,2,60,12.0,0.0
8689,61.0,2,52,10.0,0.0
8690,73.0,0,720,1.0,0.0
8691,61.0,0,720,4.0,0.0
8692,53.0,72,52,12.0,0.0
8693,46.0,43,120,13.0,0.0
8694,34.0,0,360,3.0,0.0
8695,34.0,40,360,14.0,0.0
8696,61.0,2,112,10.0,0.0
8697,58.0,3,112,11.0,0.0
8698,53.0,72,112,12.0,0.0
8699,46.0,43,120,13.0,0.0
8700,61.0,2,112,10.0,0.0
8701,58.0,3,112,11.0,0.0
8702,53.0,57,112,12.0,0.0
8703,46.0,3,120,13.0,0.0
8704,61.0,2,112,10.0,0.0
8705,58.0,15,52,11.0,0.0
8706,53.0,72,112,12.0,0.0
8707,56.0,3,52,11.0,0.0
8708,37.0,43,120,13.0,0.0
8709,37.0,40,360,3.0,0.0
8710,37.0,5,355,14.0,0.0
8711,71.0,2,112,10.0,0.0
8712,56.0,3,112,11.0,0.0
8713,65.0,72,112,12.0,0.0
8714,37.0,43,120,13.0,0.0
8715,71.0,2,112,10.0,0.0
8716,56.0,3,112,11.0,0.0
8717,65.0,63,112,12.0,0.0
8718,37.0,1,115,13.0,0.0
8719,71.0,2,60,10.0,0.0
8720,56.0,2,60,11.0,0.0
8721,65.0,2,60,12.0,0.0
8722,70.0,2,52,10.0,0.0
8723,61.0,3,52,11.0,0.0
8724,70.0,5,600,4.0,0.0
8725,82.0,0,600,1.0,0.0
8726,66.0,72,52,12.0,0.0
8727,30.0,40,360,14.0,0.0
8728,30.0,40,120,3.0,0.0
8729,70.0,2,112,10.0,0.0
8730,61.0,3,112,11.0,0.0
8731,66.0,72,112,12.0,0.0
8732,42.0,3,0,13.0,0.0
8733,70.0,2,112,10.0,0.0
8734,61.0,3,112,11.0,0.0
8735,66.0,72,112,12.0,0.0
8736,42.0,3,120,13.0,0.0
8737,70.0,2,112,10.0,0.0
8738,61.0,3,112,11.0,0.0
8739,65.0,72,112,12.0,0.0
8740,35.0,122,355,14.0,0.0
8741,67.0,2,112,10.0,0.0
8742,61.0,3,112,11.0,0.0
8743,64.0,67,112,12.0,0.0
8744,47.0,43,0,13.0,0.0
8745,67.0,2,112,10.0,0.0
8746,61.0,3,112,11.0,0.0
8747,64.0,55,112,12.0,0.0
8748,68.0,0,120,4.0,0.0
8749,80.0,3,120,1.0,0.0
8750,47.0,43,0,13.0,0.0
8751,68.0,2,52,10.0,0.0
8752,59.0,3,52,11.0,0.0
8753,63.0,7,52,12.0,0.0
8754,66.0,0,360,4.0,0.0
8755,61.0,0,720,4.0,0.0
8756,78.0,5,360,1.0,0.0
8757,49.0,43,120,13.0,0.0
8758,37.0,45,715,14.0,0.0
8759,61.0,2,112,10.0,0.0
8760,58.0,3,112,11.0,0.0
8761,61.0,72,112,12.0,0.0
8762,61.0,2,112,10.0,0.0
8763,58.0,3,112,11.0,0.0
8764,61.0,67,112,12.0,0.0
8765,49.0,43,0,13.0,0.0
8766,61.0,2,112,10.0,0.0
8767,58.0,3,112,11.0,0.0
8768,61.0,72,112,12.0,0.0
8769,77.0,5,240,1.0,0.0
8770,65.0,0,240,4.0,0.0
8771,49.0,43,0,13.0,0.0
8772,61.0,2,112,10.0,0.0
8773,56.0,3,112,11.0,0.0
8774,61.0,67,112,12.0,0.0
8775,49.0,43,0,13.0,0.0
8776,61.0,2,112,10.0,0.0
8777,56.0,3,112,11.0,0.0
8778,61.0,57,112,12.0,0.0
8779,49.0,3,115,13.0,0.0
8780,61.0,77,112,10.0,0.0
8781,56.0,3,52,11.0,0.0
8782,61.0,7,52,12.0,0.0
8783,70.0,0,600,4.0,0.0
8784,66.0,5,240,4.0,0.0
8785,30.0,2,355,14.0,0.0
8786,61.0,2,112,10.0,0.0
8787,58.0,3,112,11.0,0.0
8788,49.0,67,112,12.0,0.0
8789,42.0,43,0,13.0,0.0
8790,61.0,2,112,10.0,0.0
8791,58.0,3,112,11.0,0.0
8792,49.0,70,112,12.0,0.0
8793,65.0,5,240,4.0,0.0
8794,42.0,43,120,13.0,0.0
8795,61.0,2,112,10.0,0.0
8796,58.0,3,112,11.0,0.0
8797,49.0,67,112,12.0,0.0
8798,43.0,43,120,13.0,0.0
8799,31.0,40,240,14.0,0.0
8800,61.0,2,112,10.0,0.0
8801,58.0,3,112,11.0,0.0
8802,49.0,67,112,12.0,0.0
8803,64.0,5,120,4.0,0.0
8804,43.0,3,120,13.0,0.0
8805,61.0,2,112,10.0,0.0
8806,58.0,3,112,11.0,0.0
8807,49.0,55,112,12.0,0.0
8808,65.0,0,360,4.0,0.0
8809,68.0,3,120,4.0,0.0
8810,44.0,0,115,13.0,0.0
8811,32.0,237,115,14.0,0.0
8812,60.0,2,52,10.0,0.0
8813,60.0,3,52,11.0,0.0
8814,48.0,7,52,12.0,0.0
8815,67.0,0,720,4.0,0.0
8816,46.0,108,235,13.0,0.0
8817,34.0,237,715,14.0,0.0
8818,58.0,2,232,10.0,0.0
8819,55.0,3,232,11.0,0.0
8820,55.0,127,232,12.0,0.0
8821,62.0,108,240,4.0,0.0
8822,46.0,0,235,13.0,0.0
8823,58.0,2,232,10.0,0.0
8824,55.0,3,232,11.0,0.0
8825,55.0,115,232,12.0,0.0
8826,63.0,0,240,4.0,0.0
8827,46.0,3,235,13.0,0.0
8828,58.0,2,112,10.0,0.0
8829,55.0,3,112,11.0,0.0
8830,55.0,7,112,12.0,0.0
8831,63.0,0,240,4.0,0.0
8832,65.0,0,720,4.0,0.0
8833,46.0,108,235,13.0,0.0
8834,34.0,117,715,14.0,0.0
8835,58.0,2,232,10.0,0.0
8836,58.0,3,232,11.0,0.0
8837,58.0,127,232,12.0,0.0
8838,60.0,0,240,4.0,0.0
8839,46.0,108,235,13.0,0.0
8840,58.0,2,232,10.0,0.0
8841,56.0,3,232,11.0,0.0
8842,56.0,115,232,12.0,0.0
8843,62.0,3,240,4.0,0.0
8844,46.0,0,235,13.0,0.0
8845,58.0,2,112,10.0,0.0
8846,56.0,3,112,11.0,0.0
8847,56.0,7,112,12.0,0.0
8848,58.0,2,240,10.0,0.0
8849,55.0,3,240,11.0,0.0
8850,63.0,116,120,4.0,0.0
8851,55.0,4,240,12.0,0.0
8852,51.0,3,240,13.0,0.0
8853,39.0,0,240,14.0,0.0
8854,51.0,0,240,3.0,0.0
8855,63.0,117,240,3.0,0.0
8856,46.0,3,120,13.0,0.0
8857,46.0,0,120,3.0,0.0
8858,58.0,0,120,3.0,0.0
8859,34.0,297,120,14.0,0.0
8860,43.0,3,180,13.0,0.0
8861,43.0,0,180,3.0,0.0
8862,55.0,0,180,3.0,0.0
8863,43.0,52,180,14.0,0.0
8864,41.0,3,55,13.0,0.0
8865,41.0,237,55,14.0,0.0
8866,53.0,0,55,3.0,0.0
8867,41.0,0,55,3.0,0.0
8868,75.0,2,240,1.0,0.0
8869,75.0,0,240,2.0,0.0
8870,63.0,3,240,2.0,0.0
8871,39.0,3,240,13.0,0.0
8872,39.0,0,240,3.0,0.0
8873,51.0,0,240,3.0,0.0
8874,39.0,112,240,14.0,0.0
8875,70.0,2,120,1.0,0.0
8876,70.0,0,120,2.0,0.0
8877,58.0,3,120,2.0,0.0
8878,46.0,3,120,13.0,0.0
8879,34.0,0,120,14.0,0.0
8880,46.0,292,120,3.0,0.0
8881,34.0,0,120,3.0,0.0
8882,66.0,2,180,1.0,0.0
8883,66.0,3,180,2.0,0.0
8884,54.0,0,180,2.0,0.0
8885,42.0,3,180,13.0,0.0
8886,42.0,47,180,3.0,0.0
8887,42.0,0,180,14.0,0.0
8888,30.0,0,180,3.0,0.0
8889,65.0,2,55,1.0,0.0
8890,53.0,0,55,2.0,0.0
8891,65.0,3,55,2.0,0.0
8892,41.0,3,55,13.0,0.0
8893,41.0,0,55,3.0,0.0
8894,29.0,0,55,3.0,0.0
8895,41.0,233,55,14.0,0.0
8896,87.0,1,240,10.0,0.0
8897,87.0,1,240,0.0,0.0
8898,75.0,2,240,11.0,0.0
8899,63.0,1,240,1.0,0.0
8900,63.0,1,240,12.0,0.0
8901,63.0,3,240,2.0,0.0
8902,51.0,0,240,2.0,0.0
8903,39.0,3,240,13.0,0.0
8904,27.0,108,240,3.0,0.0
8905,39.0,0,240,14.0,0.0
8906,39.0,0,240,3.0,0.0
8907,83.0,1,120,10.0,0.0
8908,83.0,1,120,0.0,0.0
8909,71.0,3,120,11.0,0.0
8910,59.0,1,120,12.0,0.0
8911,59.0,3,120,2.0,0.0
8912,47.0,3,120,13.0,0.0
8913,23.0,0,120,3.0,0.0
8914,35.0,0,120,14.0,0.0
8915,47.0,288,120,3.0,0.0
8916,35.0,0,120,3.0,0.0
8917,78.0,1,180,10.0,0.0
8918,90.0,0,180,0.0,0.0
8919,78.0,1,180,0.0,0.0
8920,66.0,3,180,11.0,0.0
8921,66.0,1,180,12.0,0.0
8922,78.0,3,180,2.0,0.0
8923,66.0,0,180,2.0,0.0
8924,54.0,3,180,13.0,0.0
8925,66.0,43,180,3.0,0.0
8926,54.0,0,180,3.0,0.0
8927,42.0,0,180,14.0,0.0
8928,77.0,1,55,10.0,0.0
8929,77.0,0,55,0.0,0.0
8930,89.0,1,55,0.0,0.0
8931,65.0,3,55,11.0,0.0
8932,65.0,1,55,12.0,0.0
8933,65.0,0,55,2.0,0.0
8934,77.0,3,55,2.0,0.0
8935,53.0,3,55,13.0,0.0
8936,65.0,233,55,3.0,0.0
8937,41.0,0,55,14.0,0.0
8938,53.0,0,55,3.0,0.0
8939,75.0,1,240,10.0,0.0
8940,87.0,1,240,0.0,0.0
8941,75.0,0,240,0.0,0.0
8942,63.0,3,240,11.0,0.0
8943,63.0,1,240,12.0,0.0
8944,75.0,0,240,2.0,0.0
8945,63.0,3,240,2.0,0.0
8946,51.0,3,240,13.0,0.0
8947,63.0,0,240,3.0,0.0
8948,39.0,108,240,14.0,0.0
8949,51.0,0,240,3.0,0.0
8950,71.0,1,120,10.0,0.0
8951,71.0,0,120,0.0,0.0
8952,83.0,1,120,0.0,0.0
8953,59.0,3,120,11.0,0.0
8954,59.0,1,120,12.0,0.0
8955,59.0,0,120,2.0,0.0
8956,71.0,3,120,2.0,0.0
8957,47.0,3,120,13.0,0.0
8958,59.0,288,120,3.0,0.0
8959,47.0,0,120,3.0,0.0
8960,35.0,0,120,14.0,0.0
8961,66.0,1,180,10.0,0.0
8962,78.0,1,180,0.0,0.0
8963,66.0,3,180,11.0,0.0
8964,54.0,1,180,12.0,0.0
8965,78.0,3,180,2.0,0.0
8966,66.0,0,180,2.0,0.0
8967,42.0,3,180,13.0,0.0
8968,66.0,0,180,3.0,0.0
8969,30.0,43,180,14.0,0.0
8970,42.0,0,180,3.0,0.0
8971,65.0,1,55,10.0,0.0
8972,77.0,1,55,0.0,0.0
8973,65.0,3,55,11.0,0.0
8974,53.0,1,55,12.0,0.0
8975,65.0,0,55,2.0,0.0
8976,77.0,3,55,2.0,0.0
8977,41.0,3,55,13.0,0.0
8978,65.0,0,55,3.0,0.0
8979,41.0,0,55,3.0,0.0
8980,29.0,113,55,14.0,0.0
8981,63.0,2,120,10.0,0.0
8982,75.0,5,180,0.0,0.0
8983,63.0,3,120,11.0,0.0
8984,63.0,1,480,7.0,0.0
8985,75.0,0,180,2.0,0.0
8986,63.0,6,180,2.0,0.0
8987,51.0,2,715,8.0,0.0
8988,39.0,3,715,13.0,0.0
8989,39.0,0,715,14.0,0.0
8990,39.0,0,715,3.0,0.0
8991,63.0,48,180,3.0,0.0
8992,63.0,3,120,11.0,0.0
8993,51.0,56,0,12.0,0.0
8994,73.0,1,60,0.0,0.0
8995,61.0,6,60,2.0,0.0
8996,73.0,0,60,2.0,0.0
8997,61.0,108,60,3.0,0.0
8998,63.0,1,0,10.0,0.0
8999,71.0,5,180,0.0,0.0
9000,59.0,0,240,7.0,0.0
9001,51.0,56,120,12.0,0.0
9002,59.0,0,180,2.0,0.0
9003,71.0,6,180,2.0,0.0
9004,59.0,48,180,3.0,0.0
9005,63.0,1,120,10.0,0.0
9006,59.0,3,0,11.0,0.0
9007,51.0,1,120,12.0,0.0
9008,70.0,1,60,0.0,0.0
9009,70.0,0,60,2.0,0.0
9010,58.0,6,60,2.0,0.0
9011,58.0,108,60,3.0,0.0
9012,68.0,5,180,0.0,0.0
9013,59.0,1,235,7.0,0.0
9014,56.0,0,235,7.0,0.0
9015,68.0,6,180,2.0,0.0
9016,56.0,0,180,2.0,0.0
9017,56.0,43,180,3.0,0.0
9018,63.0,2,0,10.0,0.0
9019,56.0,3,0,11.0,0.0
9020,59.0,56,0,12.0,0.0
9021,66.0,1,55,0.0,0.0
9022,66.0,1,55,2.0,0.0
9023,54.0,0,55,2.0,0.0
9024,54.0,113,55,3.0,0.0
9025,63.0,2,120,10.0,0.0
9026,65.0,1,715,0.0,0.0
9027,65.0,0,715,2.0,0.0
9028,53.0,3,715,2.0,0.0
9029,51.0,19,840,8.0,0.0
9030,51.0,3,180,13.0,0.0
9031,39.0,48,180,14.0,0.0
9032,39.0,0,180,3.0,0.0
9033,53.0,0,715,3.0,0.0
9034,63.0,2,120,10.0,0.0
9035,56.0,3,0,11.0,0.0
9036,59.0,64,0,12.0,0.0
9037,49.0,3,60,13.0,0.0
9038,37.0,0,60,14.0,0.0
9039,37.0,108,60,3.0,0.0
9040,63.0,2,120,10.0,0.0
9041,56.0,3,0,11.0,0.0
9042,53.0,64,120,12.0,0.0
9043,47.0,3,180,13.0,0.0
9044,35.0,48,180,3.0,0.0
9045,35.0,0,180,14.0,0.0
9046,63.0,2,120,10.0,0.0
9047,56.0,3,120,11.0,0.0
9048,53.0,4,120,12.0,0.0
9049,46.0,3,60,13.0,0.0
9050,34.0,0,60,3.0,0.0
9051,34.0,108,60,14.0,0.0
9052,63.0,2,120,10.0,0.0
9053,44.0,3,180,13.0,0.0
9054,32.0,0,180,14.0,0.0
9055,32.0,43,180,3.0,0.0
9056,63.0,1,115,10.0,0.0
9057,59.0,3,0,11.0,0.0
9058,53.0,64,0,12.0,0.0
9059,42.0,3,55,13.0,0.0
9060,30.0,24,55,14.0,0.0
9061,30.0,0,55,3.0,0.0
9062,75.0,5,180,0.0,0.0
9063,53.0,1,120,12.0,0.0
9064,75.0,2,180,2.0,0.0
9065,63.0,0,180,2.0,0.0
9066,41.0,3,715,13.0,0.0
9067,29.0,0,715,14.0,0.0
9068,63.0,16,180,3.0,0.0
9069,29.0,5,715,3.0,0.0
9070,41.0,20,0,15.0,0.0
9071,41.0,19,1,15.0,0.0
9072,41.0,19,1,15.0,0.0
9073,41.0,19,1,15.0,0.0
9074,41.0,12,2,15.0,0.0
9075,60.0,2,0,10.0,0.0
9076,57.0,3,0,11.0,0.0
9077,41.0,1,0,15.0,0.0
9078,41.0,14,20,15.0,0.0
9079,41.0,4,20,15.0,0.0
9080,73.0,1,60,0.0,0.0
9081,73.0,6,60,2.0,0.0
9082,61.0,0,60,2.0,0.0
9083,61.0,7,60,3.0,0.0
9084,41.0,17,3,15.0,0.0
9085,41.0,15,3,15.0,0.0
9086,41.0,0,3,15.0,0.0
9087,72.0,5,180,0.0,0.0
9088,57.0,3,0,11.0,0.0
9089,53.0,1,0,12.0,0.0
9090,72.0,1,180,2.0,0.0
9091,60.0,0,180,2.0,0.0
9092,60.0,12,180,3.0,0.0
9093,41.0,19,1,15.0,0.0
9094,41.0,19,1,15.0,0.0
9095,41.0,19,1,15.0,0.0
9096,41.0,20,0,15.0,0.0
9097,41.0,19,1,15.0,0.0
9098,41.0,5,1,15.0,0.0
9099,63.0,2,0,10.0,0.0
9100,57.0,3,0,11.0,0.0
9101,53.0,9,0,12.0,0.0
9102,41.0,18,2,15.0,0.0
9103,41.0,18,2,15.0,0.0
9104,41.0,11,3,15.0,0.0
9105,70.0,1,60,0.0,0.0
9106,41.0,5,3,15.0,0.0
9107,70.0,6,60,2.0,0.0
9108,58.0,0,60,2.0,0.0
9109,58.0,1,60,3.0,0.0
9110,41.0,17,3,15.0,0.0
9111,41.0,16,4,15.0,0.0
9112,41.0,3,4,15.0,0.0
9113,68.0,0,180,0.0,0.0
9114,60.0,3,120,11.0,0.0
9115,53.0,16,120,12.0,0.0
9116,56.0,0,180,2.0,0.0
9117,68.0,6,180,2.0,0.0
9118,56.0,8,180,3.0,0.0
9119,41.0,22,20,15.0,0.0
9120,41.0,21,20,15.0,0.0
9121,41.0,22,20,15.0,0.0
9122,41.0,22,20,15.0,0.0
9123,41.0,0,20,15.0,0.0
9124,63.0,2,0,10.0,0.0
9125,58.0,3,115,11.0,0.0
9126,53.0,1,115,12.0,0.0
9127,41.0,20,0,15.0,0.0
9128,41.0,20,0,15.0,0.0
9129,41.0,5,1,15.0,0.0
9130,66.0,1,55,0.0,0.0
9131,66.0,0,55,2.0,0.0
9132,54.0,3,55,2.0,0.0
9133,54.0,0,55,3.0,0.0
9134,41.0,18,2,15.0,0.0
9135,41.0,17,3,15.0,0.0
9136,41.0,1,3,15.0,0.0
9137,65.0,1,715,0.0,0.0
9138,57.0,3,120,11.0,0.0
9139,53.0,0,715,2.0,0.0
9140,65.0,1,715,2.0,0.0
9141,51.0,3,180,13.0,0.0
9142,41.0,18,2,15.0,0.0
9143,39.0,0,180,3.0,0.0
9144,39.0,14,180,14.0,0.0
9145,53.0,2,710,3.0,0.0
9146,41.0,19,1,15.0,0.0
9147,41.0,19,1,15.0,0.0
9148,41.0,19,1,15.0,0.0
9149,41.0,19,1,15.0,0.0
9150,41.0,14,1,15.0,0.0
9151,60.0,2,0,10.0,0.0
9152,57.0,0,120,11.0,0.0
9153,41.0,0,1,15.0,0.0
9154,53.0,19,0,12.0,0.0
9155,41.0,21,20,15.0,0.0
9156,41.0,3,20,15.0,0.0
9157,49.0,3,60,13.0,0.0
9158,37.0,8,60,3.0,0.0
9159,37.0,0,60,14.0,0.0
9160,41.0,18,2,15.0,0.0
9161,41.0,16,2,15.0,0.0
9162,63.0,2,120,10.0,0.0
9163,41.0,3,2,15.0,0.0
9164,57.0,3,120,11.0,0.0
9165,53.0,9,120,12.0,0.0
9166,48.0,3,180,13.0,0.0
9167,36.0,0,180,14.0,0.0
9168,36.0,11,180,3.0,0.0
9169,41.0,19,1,15.0,0.0
9170,41.0,19,1,15.0,0.0
9171,41.0,19,1,15.0,0.0
9172,41.0,19,1,15.0,0.0
9173,41.0,19,1,15.0,0.0
9174,41.0,5,1,15.0,0.0
9175,63.0,2,120,10.0,0.0
9176,57.0,3,120,11.0,0.0
9177,53.0,4,120,12.0,0.0
9178,41.0,18,2,15.0,0.0
9179,41.0,17,3,15.0,0.0
9180,41.0,17,3,15.0,0.0
9181,41.0,3,3,15.0,0.0
9182,46.0,2,60,13.0,0.0
9183,34.0,17,60,14.0,0.0
9184,34.0,0,60,3.0,0.0
9185,41.0,16,4,15.0,0.0
9186,41.0,16,4,15.0,0.0
9187,41.0,5,4,15.0,0.0
9188,44.0,3,180,13.0,0.0
9189,41.0,1,2,15.0,0.0
9190,32.0,0,180,14.0,0.0
9191,32.0,10,180,3.0,0.0
9192,41.0,18,2,15.0,0.0
9193,41.0,19,1,15.0,0.0
9194,41.0,19,1,15.0,0.0
9195,41.0,18,2,15.0,0.0
9196,41.0,17,1,15.0,0.0
9197,64.0,2,0,10.0,0.0
9198,41.0,3,1,15.0,0.0
9199,58.0,0,0,11.0,0.0
9200,53.0,16,0,12.0,0.0
9201,41.0,15,5,15.0,0.0
9202,41.0,16,4,15.0,0.0
9203,41.0,15,5,15.0,0.0
9204,41.0,2,5,15.0,0.0
9205,42.0,3,55,13.0,0.0
9206,30.0,0,55,14.0,0.0
9207,30.0,53,55,3.0,0.0
9208,41.0,13,7,15.0,0.0
9209,41.0,13,7,15.0,0.0
9210,41.0,7,1,15.0,0.0
9211,60.0,2,60,10.0,0.0
9212,77.0,2,715,0.0,0.0
9213,57.0,3,60,11.0,0.0
9214,77.0,0,715,6.0,0.0
9215,65.0,1,715,6.0,0.0
9216,77.0,2,715,1.0,0.0
9217,53.0,4,60,12.0,0.0
9218,60.0,0,715,5.0,0.0
9219,69.0,6,715,2.0,0.0
9220,72.0,0,715,2.0,0.0
9221,69.0,0,715,5.0,0.0
9222,41.0,2,60,13.0,0.0
9223,41.0,1,60,15.0,0.0
9224,29.0,633,60,14.0,0.0
9225,53.0,0,715,3.0,0.0
9226,29.0,0,60,3.0,0.0
9227,60.0,53,715,3.0,0.0
9228,65.0,2,345,10.0,0.0
9229,60.0,3,345,11.0,0.0
9230,57.0,4,345,12.0,0.0
9231,53.0,2,345,13.0,0.0
9232,68.0,0,60,10.0,0.0
9233,80.0,0,60,10.0,0.0
9234,72.0,2,60,10.0,0.0
9235,80.0,0,715,0.0,0.0
9236,78.0,1,715,0.0,0.0
9237,78.0,3,60,11.0,0.0
9238,68.0,0,60,11.0,0.0
9239,72.0,1,715,6.0,0.0
9240,75.0,0,715,6.0,0.0
9241,78.0,0,715,1.0,0.0
9242,80.0,2,715,1.0,0.0
9243,56.0,0,60,12.0,0.0
9244,63.0,0,60,12.0,0.0
9245,72.0,4,60,12.0,0.0
9246,68.0,6,715,5.0,0.0
9247,72.0,0,715,2.0,0.0
9248,68.0,0,715,2.0,0.0
9249,60.0,0,715,5.0,0.0
9250,51.0,0,60,13.0,0.0
9251,60.0,636,60,13.0,0.0
9252,60.0,53,715,3.0,0.0
9253,44.0,0,715,3.0,0.0
9254,56.0,2,345,10.0,0.0
9255,56.0,3,345,11.0,0.0
9256,56.0,4,345,12.0,0.0
9257,44.0,2,345,13.0,0.0
9258,44.0,1,345,14.0,0.0
9259,61.0,0,60,10.0,0.0
9260,68.0,1,60,10.0,0.0
9261,77.0,0,60,10.0,0.0
9262,89.0,1,60,0.0,0.0
9263,80.0,0,60,0.0,0.0
9264,73.0,0,60,11.0,0.0
9265,65.0,1,60,11.0,0.0
9266,77.0,0,60,6.0,0.0
9267,65.0,1,60,6.0,0.0
9268,65.0,0,720,7.0,0.0
9269,61.0,3,360,7.0,0.0
9270,65.0,5,715,4.0,0.0
9271,61.0,0,715,4.0,0.0
9272,77.0,1,60,1.0,0.0
9273,89.0,0,60,1.0,0.0
9274,68.0,0,60,12.0,0.0
9275,53.0,1,60,12.0,0.0
9276,61.0,0,60,12.0,0.0
9277,73.0,0,60,2.0,0.0
9278,68.0,0,60,2.0,0.0
9279,68.0,3,60,5.0,0.0
9280,65.0,0,60,5.0,0.0
9281,37.0,3,60,13.0,0.0
9282,56.0,0,715,3.0,0.0
9283,37.0,292,60,14.0,0.0
9284,49.0,352,355,3.0,0.0
9285,56.0,3,360,7.0,0.0
9286,49.0,354,360,8.0,0.0
9287,37.0,0,355,3.0,0.0
9288,65.0,1,720,6.0,0.0
9289,59.0,3,720,7.0,0.0
9290,68.0,2,715,4.0,0.0
9291,68.0,0,720,7.0,0.0
9292,62.0,0,715,4.0,0.0
9293,41.0,0,355,5.0,0.0
9294,53.0,6,355,5.0,0.0
9295,41.0,0,360,8.0,0.0
9296,50.0,0,715,3.0,0.0
9297,29.0,352,355,3.0,0.0
9298,53.0,0,355,5.0,0.0
9299,65.0,2,355,5.0,0.0
9300,53.0,33,360,8.0,0.0
9301,41.0,0,355,3.0,0.0
9302,89.0,2,240,10.0,0.0
9303,81.0,0,480,0.0,0.0
9304,89.0,3,480,0.0,0.0
9305,77.0,3,240,11.0,0.0
9306,77.0,1,60,6.0,0.0
9307,65.0,0,60,6.0,0.0
9308,60.0,0,480,7.0,0.0
9309,69.0,0,480,7.0,0.0
9310,69.0,2,480,1.0,0.0
9311,65.0,1,60,4.0,0.0
9312,81.0,0,480,1.0,0.0
9313,53.0,8,50,12.0,0.0
9314,57.0,0,50,12.0,0.0
9315,77.0,4,480,2.0,0.0
9316,69.0,0,480,2.0,0.0
9317,65.0,28,60,5.0,0.0
9318,41.0,2,710,8.0,0.0
9319,41.0,0,110,13.0,0.0
9320,48.0,26,110,13.0,0.0
9321,29.0,37,710,14.0,0.0
9322,41.0,43,480,3.0,0.0
9323,48.0,0,480,3.0,0.0
9324,29.0,0,710,3.0,0.0
9325,41.0,15,1,15.0,0.0
9326,53.0,0,110,12.0,0.0
9327,57.0,19,110,12.0,0.0
9328,41.0,24,2,15.0,0.0
9329,41.0,1,110,13.0,0.0
9330,48.0,0,110,13.0,0.0
9331,41.0,22,4,15.0,0.0
9332,57.0,0,110,12.0,0.0
9333,53.0,4,110,12.0,0.0
9334,41.0,25,1,15.0,0.0
9335,41.0,28,26,15.0,0.0
9336,84.0,2,120,10.0,0.0
9337,72.0,3,120,11.0,0.0
9338,41.0,0,110,13.0,0.0
9339,48.0,1,110,13.0,0.0
9340,41.0,22,0,15.0,0.0
9341,41.0,24,2,15.0,0.0
9342,57.0,64,110,12.0,0.0
9343,53.0,0,110,12.0,0.0
9344,41.0,7,3,15.0,0.0
9345,48.0,2,110,13.0,0.0
9346,41.0,0,110,13.0,0.0
9347,41.0,2,120,15.0,0.0
9348,53.0,0,110,12.0,0.0
9349,57.0,64,110,12.0,0.0
9350,81.0,2,170,10.0,0.0
9351,69.0,3,170,11.0,0.0
9352,41.0,51,110,13.0,0.0
9353,48.0,0,110,13.0,0.0
9354,57.0,55,110,12.0,0.0
9355,53.0,0,110,12.0,0.0
9356,41.0,0,110,13.0,0.0
9357,48.0,3,110,13.0,0.0
9358,79.0,2,50,10.0,0.0
9359,67.0,3,50,11.0,0.0
9360,57.0,2,50,12.0,0.0
9361,53.0,0,50,12.0,0.0
9362,77.0,2,240,10.0,0.0
9363,84.0,0,480,0.0,0.0
9364,89.0,3,480,0.0,0.0
9365,65.0,3,240,11.0,0.0
9366,60.0,0,480,7.0,0.0
9367,77.0,0,480,1.0,0.0
9368,72.0,2,480,1.0,0.0
9369,53.0,0,480,7.0,0.0
9370,53.0,0,50,12.0,0.0
9371,60.0,12,50,12.0,0.0
9372,72.0,0,480,2.0,0.0
9373,65.0,4,480,2.0,0.0
9374,44.0,2,710,8.0,0.0
9375,53.0,0,110,13.0,0.0
9376,44.0,23,110,13.0,0.0
9377,32.0,0,710,14.0,0.0
9378,32.0,39,710,3.0,0.0
9379,44.0,43,480,3.0,0.0
9380,53.0,0,480,3.0,0.0
9381,41.0,16,26,15.0,0.0
9382,41.0,23,3,15.0,0.0
9383,60.0,18,110,12.0,0.0
9384,41.0,1,2,15.0,0.0
9385,44.0,0,110,13.0,0.0
9386,53.0,1,110,13.0,0.0
9387,41.0,4,4,15.0,0.0
9388,53.0,0,110,12.0,0.0
9389,60.0,3,110,12.0,0.0
9390,41.0,16,4,15.0,0.0
9391,72.0,2,120,10.0,0.0
9392,60.0,5,120,11.0,0.0
9393,53.0,0,110,13.0,0.0
9394,44.0,1,110,13.0,0.0
9395,41.0,23,0,15.0,0.0
9396,53.0,0,110,12.0,0.0
9397,60.0,64,110,12.0,0.0
9398,41.0,25,1,15.0,0.0
9399,41.0,8,0,15.0,0.0
9400,44.0,0,110,13.0,0.0
9401,53.0,2,110,13.0,0.0
9402,41.0,2,120,15.0,0.0
9403,60.0,0,110,12.0,0.0
9404,53.0,31,110,12.0,0.0
9405,92.0,2,86,10.0,0.0
9406,80.0,31,86,11.0,0.0
9407,44.0,0,110,13.0,0.0
9408,53.0,56,110,13.0,0.0
9409,53.0,31,110,12.0,0.0
9410,60.0,0,110,12.0,0.0
9411,91.0,2,86,10.0,0.0
9412,79.0,27,86,11.0,0.0
9413,53.0,3,110,13.0,0.0
9414,44.0,0,110,13.0,0.0
9415,53.0,0,50,12.0,0.0
9416,60.0,2,50,12.0,0.0
9417,89.0,2,240,10.0,0.0
9418,85.0,0,963,0.0,0.0
9419,89.0,3,963,0.0,0.0
9420,77.0,6,240,11.0,0.0
9421,54.0,0,830,7.0,0.0
9422,73.0,0,963,1.0,0.0
9423,77.0,2,963,1.0,0.0
9424,61.0,3,830,7.0,0.0
9425,53.0,10,50,12.0,0.0
9426,61.0,0,50,12.0,0.0
9427,73.0,0,963,2.0,0.0
9428,68.0,6,963,2.0,0.0
9429,53.0,2,830,8.0,0.0
9430,53.0,0,110,13.0,0.0
9431,56.0,25,110,13.0,0.0
9432,41.0,5,710,14.0,0.0
9433,53.0,0,963,3.0,0.0
9434,41.0,40,963,3.0,0.0
9435,56.0,0,963,3.0,0.0
9436,41.0,14,2,15.0,0.0
9437,41.0,25,1,15.0,0.0
9438,53.0,0,110,12.0,0.0
9439,61.0,18,110,12.0,0.0
9440,41.0,1,26,15.0,0.0
9441,53.0,0,110,13.0,0.0
9442,56.0,1,110,13.0,0.0
9443,41.0,23,3,15.0,0.0
9444,41.0,26,26,15.0,0.0
9445,61.0,4,110,12.0,0.0
9446,53.0,0,110,12.0,0.0
9447,41.0,20,26,15.0,0.0
9448,41.0,26,26,15.0,0.0
9449,85.0,2,120,10.0,0.0
9450,73.0,14,120,11.0,0.0
9451,56.0,1,110,13.0,0.0
9452,53.0,0,110,13.0,0.0
9453,41.0,21,1,15.0,0.0
9454,41.0,25,1,15.0,0.0
9455,53.0,13,110,12.0,0.0
9456,61.0,0,110,12.0,0.0
9457,41.0,24,2,15.0,0.0
9458,56.0,1,110,13.0,0.0
9459,53.0,0,110,13.0,0.0
9460,41.0,23,3,15.0,0.0
9461,53.0,20,110,12.0,0.0
9462,61.0,0,110,12.0,0.0
9463,41.0,23,3,15.0,0.0
9464,41.0,24,2,15.0,0.0
9465,80.0,2,170,10.0,0.0
9466,68.0,3,170,11.0,0.0
9467,53.0,7,110,13.0,0.0
9468,56.0,0,110,13.0,0.0
9469,41.0,3,3,15.0,0.0
9470,61.0,0,110,12.0,0.0
9471,53.0,6,110,12.0,0.0
9472,41.0,26,0,15.0,0.0
9473,41.0,18,1,15.0,0.0
9474,41.0,25,1,15.0,0.0
9475,53.0,3,110,13.0,0.0
9476,56.0,0,110,13.0,0.0
9477,41.0,26,26,15.0,0.0
9478,79.0,2,50,10.0,0.0
9479,67.0,3,50,11.0,0.0
9480,61.0,0,50,12.0,0.0
9481,53.0,4,50,12.0,0.0
9482,41.0,22,4,15.0,0.0
9483,41.0,48,16,15.0,0.0
9484,77.0,2,240,10.0,0.0
9485,65.0,2,240,11.0,0.0
9486,68.0,0,50,12.0,0.0
9487,59.0,59,50,12.0,0.0
9488,41.0,0,110,13.0,0.0
9489,50.0,11,110,13.0,0.0
9490,41.0,45,120,15.0,0.0
9491,41.0,53,710,14.0,0.0
9492,59.0,0,110,12.0,0.0
9493,68.0,64,110,12.0,0.0
9494,41.0,1,110,13.0,0.0
9495,50.0,0,110,13.0,0.0
9496,59.0,0,110,12.0,0.0
9497,68.0,64,110,12.0,0.0
9498,71.0,2,120,10.0,0.0
9499,59.0,53,120,11.0,0.0
9500,41.0,0,110,13.0,0.0
9501,50.0,1,110,13.0,0.0
9502,59.0,64,110,12.0,0.0
9503,68.0,0,110,12.0,0.0
9504,41.0,56,110,13.0,0.0
9505,50.0,0,110,13.0,0.0
9506,59.0,0,110,12.0,0.0
9507,68.0,31,110,12.0,0.0
9508,88.0,2,86,10.0,0.0
9509,76.0,31,86,11.0,0.0
9510,41.0,0,110,13.0,0.0
9511,50.0,56,110,13.0,0.0
9512,68.0,0,110,12.0,0.0
9513,59.0,31,110,12.0,0.0
9514,86.0,2,86,10.0,0.0
9515,74.0,27,86,11.0,0.0
9516,50.0,3,110,13.0,0.0
9517,41.0,0,110,13.0,0.0
9518,68.0,0,50,12.0,0.0
9519,59.0,4,50,12.0,0.0
9520,84.0,2,170,10.0,0.0
9521,72.0,3,170,11.0,0.0
9522,60.0,2,360,4.0,0.0
9523,48.0,0,360,4.0,0.0
9524,60.0,64,50,12.0,0.0
9525,55.0,0,50,12.0,0.0
9526,60.0,6,360,2.0,0.0
9527,43.0,0,110,13.0,0.0
9528,40.0,51,110,13.0,0.0
9529,48.0,0,360,3.0,0.0
9530,28.0,2,350,14.0,0.0
9531,28.0,43,360,3.0,0.0
9532,60.0,55,110,12.0,0.0
9533,55.0,0,110,12.0,0.0
9534,40.0,0,110,13.0,0.0
9535,43.0,51,110,13.0,0.0
9536,71.0,2,50,10.0,0.0
9537,59.0,7,50,11.0,0.0
9538,55.0,0,110,12.0,0.0
9539,60.0,55,110,12.0,0.0
9540,72.0,2,50,10.0,0.0
9541,60.0,3,50,11.0,0.0
9542,40.0,0,110,13.0,0.0
9543,43.0,3,110,13.0,0.0
9544,76.0,2,50,10.0,0.0
9545,64.0,3,50,11.0,0.0
9546,60.0,4,50,12.0,0.0
9547,55.0,0,50,12.0,0.0
9548,81.0,2,600,10.0,0.0
9549,69.0,53,600,11.0,0.0
9550,63.0,0,360,4.0,0.0
9551,51.0,2,360,4.0,0.0
9552,60.0,64,50,12.0,0.0
9553,63.0,0,50,12.0,0.0
9554,63.0,6,360,2.0,0.0
9555,42.0,0,110,13.0,0.0
9556,48.0,56,110,13.0,0.0
9557,30.0,2,710,14.0,0.0
9558,30.0,43,720,3.0,0.0
9559,51.0,43,360,3.0,0.0
9560,60.0,0,110,12.0,0.0
9561,63.0,64,110,12.0,0.0
9562,48.0,56,110,13.0,0.0
9563,42.0,0,110,13.0,0.0
9564,63.0,0,110,12.0,0.0
9565,60.0,60,110,12.0,0.0
9566,48.0,5,110,13.0,0.0
9567,42.0,0,110,13.0,0.0
9568,63.0,0,50,12.0,0.0
9569,60.0,4,50,12.0,0.0
9570,72.0,0,360,4.0,0.0
9571,60.0,2,360,4.0,0.0
9572,63.0,0,50,12.0,0.0
9573,72.0,64,50,12.0,0.0
9574,72.0,6,360,2.0,0.0
9575,48.0,0,110,13.0,0.0
9576,42.0,56,110,13.0,0.0
9577,60.0,0,360,3.0,0.0
9578,63.0,0,110,12.0,0.0
9579,72.0,64,110,12.0,0.0
9580,42.0,0,110,13.0,0.0
9581,48.0,1,110,13.0,0.0
9582,63.0,5,110,12.0,0.0
9583,72.0,0,110,12.0,0.0
9584,82.0,2,60,10.0,0.0
9585,70.0,48,60,11.0,0.0
9586,42.0,3,110,13.0,0.0
9587,48.0,0,110,13.0,0.0
9588,84.0,2,50,10.0,0.0
9589,72.0,3,50,11.0,0.0
9590,63.0,4,50,12.0,0.0
9591,72.0,0,50,12.0,0.0
9592,82.0,2,100,10.0,0.0
9593,70.0,17,100,11.0,0.0
9594,64.0,2,240,4.0,0.0
9595,52.0,0,240,4.0,0.0
9596,64.0,0,50,12.0,0.0
9597,60.0,45,50,12.0,0.0
9598,64.0,6,240,2.0,0.0
9599,43.0,0,110,13.0,0.0
9600,48.0,56,110,13.0,0.0
9601,31.0,43,360,3.0,0.0
9602,31.0,10,350,14.0,0.0
9603,52.0,43,240,3.0,0.0
9604,64.0,31,110,12.0,0.0
9605,60.0,0,110,12.0,0.0
9606,88.0,2,86,10.0,0.0
9607,76.0,31,86,11.0,0.0
9608,43.0,0,110,13.0,0.0
9609,48.0,5,110,13.0,0.0
9610,60.0,31,110,12.0,0.0
9611,64.0,0,110,12.0,0.0
9612,86.0,2,86,10.0,0.0
9613,74.0,27,86,11.0,0.0
9614,43.0,3,110,13.0,0.0
9615,48.0,0,110,13.0,0.0
9616,64.0,0,50,12.0,0.0
9617,60.0,4,50,12.0,0.0
9618,84.0,2,170,10.0,0.0
9619,77.0,1,360,0.0,0.0
9620,72.0,3,170,11.0,0.0
9621,65.0,3,1320,6.0,0.0
9622,65.0,2,360,1.0,0.0
9623,60.0,0,50,12.0,0.0
9624,65.0,64,50,12.0,0.0
9625,53.0,6,360,5.0,0.0
9626,65.0,0,360,5.0,0.0
9627,53.0,0,110,13.0,0.0
9628,45.0,51,110,13.0,0.0
9629,53.0,43,1080,3.0,0.0
9630,33.0,2,350,14.0,0.0
9631,33.0,43,360,3.0,0.0
9632,60.0,0,110,12.0,0.0
9633,65.0,55,110,12.0,0.0
9634,45.0,0,110,13.0,0.0
9635,53.0,51,110,13.0,0.0
9636,76.0,2,50,10.0,0.0
9637,64.0,7,50,11.0,0.0
9638,60.0,55,110,12.0,0.0
9639,65.0,0,110,12.0,0.0
9640,77.0,2,50,10.0,0.0
9641,65.0,3,50,11.0,0.0
9642,45.0,2,110,13.0,0.0
9643,53.0,0,110,13.0,0.0
9644,81.0,2,50,10.0,0.0
9645,69.0,3,50,11.0,0.0
9646,60.0,4,50,12.0,0.0
9647,65.0,0,50,12.0,0.0
9648,86.0,2,600,10.0,0.0
9649,80.0,2,360,0.0,0.0
9650,74.0,4,600,11.0,0.0
9651,68.0,1,360,6.0,0.0
9652,68.0,8,360,1.0,0.0
9653,68.0,64,50,12.0,0.0
9654,65.0,0,50,12.0,0.0
9655,68.0,3,590,5.0,0.0
9656,65.0,6,600,2.0,0.0
9657,65.0,6,720,5.0,0.0
9658,68.0,0,600,2.0,0.0
9659,47.0,0,110,13.0,0.0
9660,53.0,56,110,13.0,0.0
9661,35.0,43,600,3.0,0.0
9662,56.0,43,360,3.0,0.0
9663,35.0,0,590,14.0,0.0
9664,65.0,0,110,12.0,0.0
9665,68.0,64,110,12.0,0.0
9666,53.0,56,110,13.0,0.0
9667,47.0,0,110,13.0,0.0
9668,65.0,0,110,12.0,0.0
9669,68.0,60,110,12.0,0.0
9670,53.0,0,110,13.0,0.0
9671,47.0,2,110,13.0,0.0
9672,65.0,4,50,12.0,0.0
9673,68.0,0,50,12.0,0.0
9674,86.0,2,360,0.0,0.0
9675,77.0,1,360,6.0,0.0
9676,74.0,2,360,1.0,0.0
9677,77.0,0,50,12.0,0.0
9678,68.0,64,50,12.0,0.0
9679,53.0,0,110,13.0,0.0
9680,47.0,56,110,13.0,0.0
9681,65.0,0,360,3.0,0.0
9682,77.0,0,110,12.0,0.0
9683,68.0,60,110,12.0,0.0
9684,53.0,1,110,13.0,0.0
9685,47.0,0,110,13.0,0.0
9686,68.0,1,50,12.0,0.0
9687,77.0,0,110,12.0,0.0
9688,88.0,2,60,10.0,0.0
9689,76.0,48,60,11.0,0.0
9690,69.0,5,50,12.0,0.0
9691,69.0,3,230,2.0,0.0
9692,65.0,0,230,2.0,0.0
9693,69.0,0,120,5.0,0.0
9694,53.0,2,110,13.0,0.0
9695,48.0,0,110,13.0,0.0
9696,36.0,0,230,14.0,0.0
9697,36.0,3,230,3.0,0.0
9698,89.0,2,50,10.0,0.0
9699,77.0,7,50,11.0,0.0
9700,69.0,55,110,12.0,0.0
9701,77.0,0,110,12.0,0.0
9702,84.0,2,110,10.0,0.0
9703,81.0,3,230,0.0,0.0
9704,72.0,4,110,11.0,0.0
9705,69.0,0,240,6.0,0.0
9706,69.0,5,230,1.0,0.0
9707,72.0,0,240,5.0,0.0
9708,57.0,49,240,5.0,0.0
9709,48.0,0,110,13.0,0.0
9710,53.0,3,110,13.0,0.0
9711,53.0,0,110,3.0,0.0
9712,57.0,0,110,3.0,0.0
9713,69.0,50,60,12.0,0.0
9714,77.0,0,60,12.0,0.0
9715,93.0,2,60,10.0,0.0
9716,81.0,4,60,11.0,0.0
9717,63.0,5,50,12.0,0.0
9718,72.0,0,50,12.0,0.0
9719,72.0,6,60,2.0,0.0
9720,75.0,0,60,2.0,0.0
9721,57.0,0,110,13.0,0.0
9722,53.0,4,110,13.0,0.0
9723,63.0,39,60,3.0,0.0
9724,41.0,228,240,3.0,0.0
9725,41.0,10,230,14.0,0.0
9726,60.0,0,60,3.0,0.0
9727,63.0,0,110,12.0,0.0
9728,72.0,5,110,12.0,0.0
9729,91.0,2,60,10.0,0.0
9730,79.0,4,60,11.0,0.0
9731,63.0,0,60,2.0,0.0
9732,69.0,6,60,2.0,0.0
9733,57.0,0,110,13.0,0.0
9734,53.0,3,110,13.0,0.0
9735,57.0,0,60,3.0,0.0
9736,51.0,43,60,3.0,0.0
9737,72.0,4,50,12.0,0.0
9738,63.0,0,50,12.0,0.0
9739,89.0,2,240,10.0,0.0
9740,77.0,58,240,11.0,0.0
9741,58.0,1,350,4.0,0.0
9742,58.0,0,350,12.0,0.0
9743,50.0,1,350,12.0,0.0
9744,62.0,0,350,2.0,0.0
9745,70.0,3,350,2.0,0.0
9746,65.0,0,350,5.0,0.0
9747,46.0,3,350,13.0,0.0
9748,22.0,118,350,3.0,0.0
9749,46.0,0,350,3.0,0.0
9750,58.0,0,350,3.0,0.0
9751,34.0,0,350,14.0,0.0
9752,86.0,2,60,10.0,0.0
9753,74.0,48,60,11.0,0.0
9754,82.0,2,50,10.0,0.0
9755,70.0,122,50,11.0,0.0
9756,82.0,2,240,10.0,0.0
9757,70.0,58,240,11.0,0.0
9758,61.0,1,350,4.0,0.0
9759,61.0,1,350,12.0,0.0
9760,73.0,3,350,2.0,0.0
9761,70.0,0,350,2.0,0.0
9762,66.0,0,350,5.0,0.0
9763,58.0,3,350,13.0,0.0
9764,46.0,0,350,14.0,0.0
9765,61.0,0,350,3.0,0.0
9766,34.0,0,350,3.0,0.0
9767,58.0,118,350,3.0,0.0
9768,78.0,2,60,10.0,0.0
9769,66.0,48,60,11.0,0.0
9770,73.0,2,50,10.0,0.0
9771,61.0,122,50,11.0,0.0
9772,73.0,2,240,10.0,0.0
9773,61.0,58,240,11.0,0.0
9774,70.0,1,350,4.0,0.0
9775,61.0,0,350,4.0,0.0
9776,61.0,1,350,12.0,0.0
9777,70.0,0,350,12.0,0.0
9778,73.0,3,350,2.0,0.0
9779,82.0,0,350,2.0,0.0
9780,67.0,0,350,5.0,0.0
9781,58.0,3,350,13.0,0.0
9782,61.0,0,350,3.0,0.0
9783,67.0,118,350,3.0,0.0
9784,46.0,0,350,3.0,0.0
9785,46.0,0,350,14.0,0.0
9786,70.0,2,60,10.0,0.0
9787,58.0,48,60,11.0,0.0
9788,67.0,2,50,10.0,0.0
9789,55.0,122,50,11.0,0.0
9790,67.0,2,240,10.0,0.0
9791,67.0,58,240,11.0,0.0
9792,60.0,0,230,6.0,0.0
9793,72.0,1,230,6.0,0.0
9794,55.0,1,230,4.0,0.0
9795,64.0,0,230,4.0,0.0
9796,60.0,0,230,12.0,0.0
9797,52.0,1,230,12.0,0.0
9798,76.0,3,230,2.0,0.0
9799,72.0,0,230,2.0,0.0
9800,60.0,0,230,5.0,0.0
9801,48.0,0,230,5.0,0.0
9802,46.0,3,230,13.0,0.0
9803,53.0,0,230,3.0,0.0
9804,57.0,0,230,3.0,0.0
9805,34.0,73,230,3.0,0.0
9806,34.0,0,230,14.0,0.0
9807,64.0,2,60,10.0,0.0
9808,64.0,48,60,11.0,0.0
9809,60.0,2,50,10.0,0.0
9810,60.0,1,50,11.0,0.0
9811,72.0,2,75,10.0,0.0
9812,72.0,3,75,11.0,0.0
9813,77.0,1,120,6.0,0.0
9814,65.0,0,120,6.0,0.0
9815,48.0,117,120,4.0,0.0
9816,60.0,0,120,4.0,0.0
9817,53.0,0,75,12.0,0.0
9818,65.0,0,75,12.0,0.0
9819,60.0,43,75,12.0,0.0
9820,45.0,3,240,13.0,0.0
9821,33.0,0,240,14.0,0.0
9822,33.0,57,240,3.0,0.0
9823,84.0,0,120,0.0,0.0
9824,89.0,3,120,0.0,0.0
9825,72.0,2,120,1.0,0.0
9826,77.0,0,120,1.0,0.0
9827,65.0,0,120,5.0,0.0
9828,57.0,3,120,5.0,0.0
9829,77.0,0,120,2.0,0.0
9830,72.0,0,120,2.0,0.0
9831,65.0,0,120,3.0,0.0
9832,57.0,0,120,3.0,0.0
9833,77.0,3,110,0.0,0.0
9834,81.0,0,110,0.0,0.0
9835,65.0,0,110,1.0,0.0
9836,69.0,2,110,1.0,0.0
9837,53.0,3,110,5.0,0.0
9838,65.0,0,110,2.0,0.0
9839,57.0,0,110,5.0,0.0
9840,69.0,0,110,2.0,0.0
9841,46.0,3,60,13.0,0.0
9842,57.0,0,110,3.0,0.0
9843,34.0,0,60,3.0,0.0
9844,53.0,0,110,3.0,0.0
9845,34.0,39,60,14.0,0.0
9846,48.0,3,50,13.0,0.0
9847,36.0,0,50,3.0,0.0
9848,36.0,127,50,14.0,0.0
9849,69.0,1,240,10.0,0.0
9850,84.0,0,360,0.0,0.0
9851,81.0,1,240,0.0,0.0
9852,69.0,2,240,11.0,0.0
9853,60.0,0,350,6.0,0.0
9854,72.0,1,350,6.0,0.0
9855,72.0,2,360,1.0,0.0
9856,69.0,1,240,1.0,0.0
9857,57.0,0,240,4.0,0.0
9858,60.0,0,240,4.0,0.0
9859,60.0,1,240,12.0,0.0
9860,48.0,0,360,5.0,0.0
9861,60.0,0,360,5.0,0.0
9862,69.0,6,240,2.0,0.0
9863,72.0,6,360,2.0,0.0
9864,50.0,3,120,13.0,0.0
9865,60.0,111,360,3.0,0.0
9866,57.0,0,240,3.0,0.0
9867,38.0,108,120,14.0,0.0
9868,36.0,48,240,3.0,0.0
9869,67.0,2,60,10.0,0.0
9870,76.0,3,120,0.0,0.0
9871,67.0,3,60,11.0,0.0
9872,58.0,0,110,4.0,0.0
9873,55.0,1,110,4.0,0.0
9874,64.0,0,120,1.0,0.0
9875,58.0,45,60,12.0,0.0
9876,64.0,0,120,2.0,0.0
9877,58.0,0,120,3.0,0.0
9878,65.0,2,50,10.0,0.0
9879,65.0,1,50,11.0,0.0
9880,57.0,6,50,12.0,0.0
9881,65.0,2,240,10.0,0.0
9882,65.0,2,240,11.0,0.0
9883,72.0,0,120,6.0,0.0
9884,60.0,1,120,6.0,0.0
9885,48.0,116,120,4.0,0.0
9886,57.0,0,120,4.0,0.0
9887,57.0,1,240,12.0,0.0
9888,45.0,3,240,13.0,0.0
9889,45.0,0,240,14.0,0.0
9890,72.0,1,120,1.0,0.0
9891,77.0,0,120,1.0,0.0
9892,65.0,3,120,5.0,0.0
9893,57.0,0,120,3.0,0.0
9894,65.0,57,120,3.0,0.0
9895,65.0,0,110,1.0,0.0
9896,69.0,2,110,1.0,0.0
9897,57.0,0,0,5.0,0.0
9898,53.0,3,110,5.0,0.0
9899,46.0,3,60,13.0,0.0
9900,53.0,0,110,3.0,0.0
9901,46.0,42,60,14.0,0.0
9902,57.0,0,110,3.0,0.0
9903,48.0,3,50,13.0,0.0
9904,48.0,127,50,14.0,0.0
9905,60.0,2,240,10.0,0.0
9906,60.0,2,240,11.0,0.0
9907,69.0,1,240,1.0,0.0
9908,72.0,1,350,1.0,0.0
9909,57.0,0,240,4.0,0.0
9910,60.0,0,240,4.0,0.0
9911,57.0,7,240,12.0,0.0
9912,60.0,0,360,5.0,0.0
9913,48.0,6,360,5.0,0.0
9914,50.0,3,120,13.0,0.0
9915,50.0,108,120,14.0,0.0
9916,57.0,48,240,3.0,0.0
9917,60.0,43,360,3.0,0.0
9918,58.0,2,60,10.0,0.0
9919,58.0,3,60,11.0,0.0
9920,58.0,0,110,4.0,0.0
9921,55.0,0,110,4.0,0.0
9922,64.0,0,110,1.0,0.0
9923,55.0,45,60,12.0,0.0
9924,58.0,4,110,3.0,0.0
9925,57.0,2,50,10.0,0.0
9926,57.0,2,50,11.0,0.0
9927,53.0,7,50,12.0,0.0
9928,57.0,1,240,10.0,0.0
9929,57.0,4,240,11.0,0.0
9930,48.0,0,120,4.0,0.0
9931,57.0,2,120,4.0,0.0
9932,53.0,66,50,12.0,0.0
9933,77.0,3,120,2.0,0.0
9934,53.0,0,120,5.0,0.0
9935,65.0,0,120,5.0,0.0
9936,41.0,3,120,13.0,0.0
9937,65.0,0,120,3.0,0.0
9938,53.0,65,110,12.0,0.0
9939,89.0,3,0,0.0,0.0
9940,53.0,0,120,5.0,0.0
9941,77.0,3,120,2.0,0.0
9942,41.0,3,120,13.0,0.0
9943,29.0,43,0,14.0,0.0
9944,65.0,0,120,3.0,0.0
9945,53.0,64,110,12.0,0.0
9946,89.0,1,120,0.0,0.0
9947,65.0,0,0,5.0,0.0
9948,53.0,0,120,5.0,0.0
9949,41.0,2,110,13.0,0.0
9950,65.0,40,120,3.0,0.0
9951,29.0,43,0,14.0,0.0
9952,53.0,65,470,12.0,0.0
9953,69.0,55,117,10.0,0.0
9954,89.0,5,350,0.0,0.0
9955,65.0,65,50,11.0,0.0
9956,77.0,0,0,2.0,0.0
9957,65.0,0,350,5.0,0.0
9958,53.0,3,350,5.0,0.0
9959,41.0,3,350,13.0,0.0
9960,65.0,53,350,3.0,0.0
9961,29.0,0,350,14.0,0.0
9962,65.0,65,110,11.0,0.0
9963,69.0,55,117,10.0,0.0
9964,65.0,58,110,11.0,0.0
9965,69.0,1,110,10.0,0.0
9966,65.0,65,470,11.0,0.0
9967,69.0,1,120,10.0,0.0
9968,53.0,0,120,5.0,0.0
9969,43.0,3,120,13.0,0.0
9970,31.0,43,120,14.0,0.0
9971,53.0,66,110,12.0,0.0
9972,70.0,9,230,10.0,0.0
9973,89.0,5,0,0.0,0.0
9974,65.0,0,0,5.0,0.0
9975,53.0,0,120,5.0,0.0
9976,77.0,3,0,2.0,0.0
9977,65.0,0,0,3.0,0.0
9978,53.0,55,110,12.0,0.0
9979,89.0,5,0,0.0,0.0
9980,65.0,0,120,5.0,0.0
9981,77.0,3,0,2.0,0.0
9982,43.0,3,0,13.0,0.0
9983,31.0,43,0,14.0,0.0
9984,65.0,40,120,3.0,0.0
9985,53.0,65,470,12.0,0.0
9986,72.0,55,117,10.0,0.0
9987,89.0,5,350,0.0,0.0
9988,77.0,0,350,2.0,0.0
9989,65.0,3,350,5.0,0.0
9990,53.0,6,0,5.0,0.0
9991,45.0,3,350,13.0,0.0
9992,65.0,50,350,3.0,0.0
9993,33.0,0,350,14.0,0.0
9994,65.0,65,110,11.0,0.0
9995,72.0,55,117,10.0,0.0
9996,65.0,58,110,11.0,0.0
9997,72.0,1,110,10.0,0.0
9998,65.0,3,110,11.0,0.0
9999,72.0,6,120,10.0,0.0
10000,69.0,3,120,2.0,0.0
10001,78.0,0,120,2.0,0.0
10002,46.0,3,120,13.0,0.0
10003,57.0,0,120,3.0,0.0
10004,66.0,0,120,3.0,0.0
10005,63.0,3,110,11.0,0.0
10006,51.0,65,110,12.0,0.0
10007,73.0,6,120,10.0,0.0
10008,70.0,0,120,2.0,0.0
10009,77.0,3,120,2.0,0.0
10010,34.0,40,0,14.0,0.0
10011,65.0,40,120,3.0,0.0
10012,58.0,0,120,3.0,0.0
10013,61.0,3,110,11.0,0.0
10014,49.0,64,110,12.0,0.0
10015,72.0,2,120,10.0,0.0
10016,69.0,0,120,2.0,0.0
10017,78.0,6,120,2.0,0.0
10018,46.0,3,0,13.0,0.0
10019,34.0,4,110,14.0,0.0
10020,57.0,40,120,3.0,0.0
10021,66.0,0,120,3.0,0.0
10022,63.0,3,110,11.0,0.0
10023,51.0,65,110,12.0,0.0
10024,73.0,6,120,10.0,0.0
10025,77.0,6,120,2.0,0.0
10026,70.0,0,120,2.0,0.0
10027,46.0,3,350,13.0,0.0
10028,58.0,0,120,3.0,0.0
10029,65.0,40,120,3.0,0.0
10030,34.0,0,350,14.0,0.0
10031,61.0,3,110,11.0,0.0
10032,49.0,65,110,12.0,0.0
10033,77.0,6,120,10.0,0.0
10034,69.0,6,120,2.0,0.0
10035,75.0,0,120,2.0,0.0
10036,63.0,40,120,3.0,0.0
10037,57.0,0,120,3.0,0.0
10038,60.0,3,110,11.0,0.0
10039,53.0,55,110,12.0,0.0
10040,82.0,6,110,10.0,0.0
10041,73.0,3,110,2.0,0.0
10042,70.0,0,110,2.0,0.0
10043,58.0,50,110,3.0,0.0
10044,61.0,0,110,3.0,0.0
10045,58.0,3,110,11.0,0.0
10046,61.0,74,110,12.0,0.0
10047,80.0,60,180,10.0,0.0
10048,73.0,0,360,2.0,0.0
10049,70.0,6,360,2.0,0.0
10050,51.0,3,120,13.0,0.0
10051,61.0,40,360,3.0,0.0
10052,51.0,0,360,3.0,0.0
10053,70.0,3,110,11.0,0.0
10054,61.0,5,110,12.0,0.0
10055,51.0,3,120,13.0,0.0
10056,39.0,40,0,14.0,0.0
10057,78.0,9,60,10.0,0.0
10058,70.0,3,110,11.0,0.0
10059,61.0,5,110,12.0,0.0
10060,82.0,50,60,10.0,0.0
10061,51.0,3,110,13.0,0.0
10062,39.0,4,110,14.0,0.0
10063,87.0,9,50,10.0,0.0
10064,70.0,3,110,11.0,0.0
10065,61.0,71,110,12.0,0.0
10066,90.0,60,180,10.0,0.0
10067,68.0,0,120,2.0,0.0
10068,72.0,6,120,2.0,0.0
10069,44.0,3,350,13.0,0.0
10070,32.0,18,320,14.0,0.0
10071,56.0,40,120,3.0,0.0
10072,60.0,0,120,3.0,0.0
10073,68.0,3,110,11.0,0.0
10074,60.0,5,110,12.0,0.0
10075,87.0,52,60,10.0,0.0
10076,68.0,3,110,11.0,0.0
10077,60.0,5,110,12.0,0.0
10078,85.0,32,60,10.0,0.0
10079,84.0,9,50,10.0,0.0
10080,63.0,107,60,12.0,0.0
10081,85.0,2,120,10.0,0.0
10082,66.0,3,0,11.0,0.0
10083,58.0,2,720,4.0,0.0
10084,61.0,4,110,12.0,0.0
10085,73.0,0,720,2.0,0.0
10086,66.0,6,720,2.0,0.0
10087,46.0,1,110,13.0,0.0
10088,46.0,43,720,3.0,0.0
10089,58.0,0,720,3.0,0.0
10090,34.0,127,110,14.0,0.0
10091,46.0,60,60,13.0,0.0
10092,49.0,53,60,13.0,0.0
10093,58.0,7,60,11.0,0.0
10094,54.0,53,60,13.0,0.0
10095,61.0,3,60,11.0,0.0
10096,58.0,54,60,12.0,0.0
10097,58.0,1,110,13.0,0.0
10098,70.0,2,60,10.0,0.0
10099,66.0,3,60,11.0,0.0
10100,61.0,55,60,12.0,0.0
10101,73.0,2,60,10.0,0.0
10102,70.0,3,60,11.0,0.0
10103,66.0,47,60,12.0,0.0
10104,78.0,55,60,10.0,0.0
10105,73.0,3,50,11.0,0.0
10106,70.0,5,50,12.0,0.0
10107,82.0,2,55,10.0,0.0
10108,78.0,3,55,11.0,0.0
10109,61.0,64,55,12.0,0.0
10110,80.0,2,55,10.0,0.0
10111,73.0,3,55,11.0,0.0
10112,61.0,2,720,4.0,0.0
10113,71.0,62,55,12.0,0.0
10114,65.0,0,720,2.0,0.0
10115,71.0,6,720,2.0,0.0
10116,37.0,127,110,14.0,0.0
10117,49.0,0,720,3.0,0.0
10118,56.0,50,720,3.0,0.0
10119,49.0,60,60,13.0,0.0
10120,53.0,53,60,13.0,0.0
10121,61.0,7,60,11.0,0.0
10122,56.0,53,60,13.0,0.0
10123,65.0,3,60,11.0,0.0
10124,61.0,54,60,12.0,0.0
10125,61.0,1,110,13.0,0.0
10126,73.0,2,60,10.0,0.0
10127,68.0,3,60,11.0,0.0
10128,65.0,55,60,12.0,0.0
10129,77.0,2,60,10.0,0.0
10130,73.0,3,60,11.0,0.0
10131,68.0,47,60,12.0,0.0
10132,80.0,55,60,10.0,0.0
10133,77.0,3,50,11.0,0.0
10134,73.0,5,50,12.0,0.0
10135,85.0,2,55,10.0,0.0
10136,77.0,3,55,11.0,0.0
10137,71.0,64,55,12.0,0.0
10138,78.0,1,720,10.0,0.0
10139,78.0,3,720,0.0,0.0
10140,73.0,3,60,11.0,0.0
10141,78.0,2,720,1.0,0.0
10142,58.0,57,60,12.0,0.0
10143,66.0,0,720,2.0,0.0
10144,73.0,0,720,2.0,0.0
10145,66.0,3,720,5.0,0.0
10146,58.0,53,720,13.0,0.0
10147,46.0,3,110,14.0,0.0
10148,58.0,50,120,3.0,0.0
10149,66.0,0,60,11.0,0.0
10150,61.0,7,60,12.0,0.0
10151,73.0,3,60,11.0,0.0
10152,58.0,57,60,12.0,0.0
10153,46.0,50,120,3.0,0.0
10154,66.0,3,60,11.0,0.0
10155,61.0,7,60,12.0,0.0
10156,73.0,3,60,11.0,0.0
10157,58.0,57,60,12.0,0.0
10158,49.0,50,120,3.0,0.0
10159,66.0,3,60,11.0,0.0
10160,61.0,7,60,12.0,0.0
10161,73.0,3,60,11.0,0.0
10162,58.0,57,60,12.0,0.0
10163,54.0,50,120,3.0,0.0
10164,66.0,3,60,11.0,0.0
10165,61.0,7,60,12.0,0.0
10166,73.0,3,60,11.0,0.0
10167,58.0,57,60,12.0,0.0
10168,58.0,50,120,3.0,0.0
10169,66.0,3,60,11.0,0.0
10170,61.0,7,60,12.0,0.0
10171,73.0,3,60,11.0,0.0
10172,58.0,47,60,12.0,0.0
10173,61.0,50,240,3.0,0.0
10174,66.0,3,50,11.0,0.0
10175,61.0,5,50,12.0,0.0
10176,81.0,1,720,10.0,0.0
10177,79.0,3,720,0.0,0.0
10178,73.0,3,60,11.0,0.0
10179,67.0,0,720,4.0,0.0
10180,64.0,2,720,4.0,0.0
10181,81.0,0,720,1.0,0.0
10182,73.0,0,720,1.0,0.0
10183,57.0,57,60,12.0,0.0
10184,67.0,0,720,2.0,0.0
10185,69.0,0,720,5.0,0.0
10186,57.0,3,720,5.0,0.0
10187,57.0,3,720,13.0,0.0
10188,45.0,0,110,14.0,0.0
10189,45.0,108,720,3.0,0.0
10190,64.0,3,60,11.0,0.0
10191,67.0,7,60,12.0,0.0
10192,76.0,1,120,0.0,0.0
10193,73.0,3,60,11.0,0.0
10194,57.0,56,60,12.0,0.0
10195,64.0,56,120,2.0,0.0
10196,64.0,3,60,11.0,0.0
10197,67.0,1,60,12.0,0.0
10198,81.0,1,120,0.0,0.0
10199,73.0,3,60,11.0,0.0
10200,57.0,56,60,12.0,0.0
10201,69.0,56,120,2.0,0.0
10202,64.0,3,60,11.0,0.0
10203,67.0,1,60,12.0,0.0
10204,85.0,1,120,0.0,0.0
10205,73.0,3,60,11.0,0.0
10206,57.0,56,60,12.0,0.0
10207,73.0,56,120,2.0,0.0
10208,64.0,3,60,11.0,0.0
10209,67.0,1,60,12.0,0.0
10210,88.0,1,120,0.0,0.0
10211,73.0,3,60,11.0,0.0
10212,57.0,56,60,12.0,0.0
10213,76.0,56,120,2.0,0.0
10214,64.0,3,60,11.0,0.0
10215,67.0,1,60,12.0,0.0
10216,93.0,1,240,0.0,0.0
10217,73.0,3,60,11.0,0.0
10218,57.0,47,60,12.0,0.0
10219,81.0,3,240,2.0,0.0
10220,64.0,3,50,11.0,0.0
10221,67.0,5,50,12.0,0.0
10222,90.0,1,120,10.0,0.0
10223,78.0,0,120,0.0,0.0
10224,69.0,2,120,11.0,0.0
10225,66.0,1,120,4.0,0.0
10226,62.0,0,120,4.0,0.0
10227,66.0,1,120,12.0,0.0
10228,66.0,6,237,2.0,0.0
10229,50.0,114,120,13.0,0.0
10230,62.0,112,237,3.0,0.0
10231,50.0,0,237,3.0,0.0
10232,38.0,0,110,14.0,0.0
10233,74.0,122,237,1.0,0.0
10234,78.0,0,237,1.0,0.0
10235,66.0,6,237,2.0,0.0
10236,69.0,0,237,2.0,0.0
10237,50.0,0,237,3.0,0.0
10238,62.0,112,237,3.0,0.0
10239,74.0,116,237,1.0,0.0
10240,78.0,0,237,1.0,0.0
10241,70.0,6,237,2.0,0.0
10242,66.0,0,237,2.0,0.0
10243,58.0,231,237,3.0,0.0
10244,50.0,0,237,3.0,0.0
10245,78.0,6,113,1.0,0.0
10246,74.0,0,113,1.0,0.0
10247,74.0,45,371,1.0,0.0
10248,78.0,0,371,1.0,0.0
10249,66.0,6,606,2.0,0.0
10250,70.0,0,606,2.0,0.0
10251,50.0,42,606,3.0,0.0
10252,55.0,0,606,3.0,0.0
10253,58.0,60,60,10.0,0.0
10254,62.0,2,60,10.0,0.0
10255,58.0,3,60,11.0,0.0
10256,55.0,4,60,12.0,0.0
10257,50.0,51,60,13.0,0.0
10258,67.0,15,60,10.0,0.0
10259,70.0,2,60,10.0,0.0
10260,64.0,3,60,11.0,0.0
10261,76.0,1,247,1.0,0.0
10262,73.0,0,247,1.0,0.0
10263,61.0,4,60,12.0,0.0
10264,55.0,51,60,13.0,0.0
10265,73.0,60,60,10.0,0.0
10266,76.0,60,60,10.0,0.0
10267,79.0,11,60,10.0,0.0
10268,82.0,2,60,10.0,0.0
10269,73.0,3,60,11.0,0.0
10270,67.0,4,60,12.0,0.0
10271,62.0,111,60,13.0,0.0
10272,81.0,2,60,10.0,0.0
10273,74.0,173,60,11.0,0.0
10274,66.0,4,230,12.0,0.0
10275,50.0,111,230,13.0,0.0
10276,66.0,2,230,10.0,0.0
10277,62.0,123,230,11.0,0.0
10278,54.0,4,230,12.0,0.0
10279,57.0,0,230,12.0,0.0
10280,50.0,111,230,13.0,0.0
10281,66.0,2,230,10.0,0.0
10282,62.0,118,230,11.0,0.0
10283,58.0,0,230,12.0,0.0
10284,54.0,4,230,12.0,0.0
10285,46.0,373,230,13.0,0.0
10286,50.0,0,230,13.0,0.0
10287,66.0,2,110,10.0,0.0
10288,62.0,3,110,11.0,0.0
10289,66.0,2,720,10.0,0.0
10290,62.0,10,720,11.0,0.0
10291,55.0,0,840,12.0,0.0
10292,58.0,4,840,12.0,0.0
10293,50.0,0,840,13.0,0.0
10294,43.0,3,840,13.0,0.0
10295,46.0,120,120,3.0,0.0
10296,50.0,120,120,3.0,0.0
10297,55.0,108,120,3.0,0.0
10298,58.0,108,120,3.0,0.0
10299,64.0,2,120,10.0,0.0
10300,61.0,3,120,11.0,0.0
10301,61.0,120,120,3.0,0.0
10302,64.0,120,120,3.0,0.0
10303,67.0,120,120,3.0,0.0
10304,70.0,357,120,3.0,0.0
10305,45.0,0,120,13.0,0.0
10306,38.0,3,120,13.0,0.0
10307,38.0,114,120,14.0,0.0
10308,50.0,0,240,12.0,0.0
10309,57.0,1,240,12.0,0.0
10310,62.0,0,240,5.0,0.0
10311,66.0,6,120,2.0,0.0
10312,69.0,0,120,2.0,0.0
10313,69.0,115,240,5.0,0.0
10314,57.0,0,120,3.0,0.0
10315,54.0,104,120,3.0,0.0
10316,81.0,8,240,0.0,0.0
10317,67.0,0,110,2.0,0.0
10318,71.0,6,110,2.0,0.0
10319,59.0,0,110,3.0,0.0
10320,55.0,3,110,3.0,0.0
10321,64.0,6,240,2.0,0.0
10322,73.0,0,240,2.0,0.0
10323,45.0,117,120,13.0,0.0
10324,38.0,0,120,13.0,0.0
10325,61.0,104,240,3.0,0.0
10326,52.0,0,240,3.0,0.0
10327,50.0,1,240,12.0,0.0
10328,57.0,0,240,12.0,0.0
10329,69.0,0,240,5.0,0.0
10330,62.0,115,240,5.0,0.0
10331,81.0,8,240,0.0,0.0
10332,74.0,0,110,2.0,0.0
10333,66.0,6,110,2.0,0.0
10334,54.0,3,110,3.0,0.0
10335,62.0,0,110,3.0,0.0
10336,78.0,6,180,2.0,0.0
10337,67.0,5,470,2.0,0.0
10338,38.0,57,120,13.0,0.0
10339,45.0,0,120,13.0,0.0
10340,66.0,54,180,3.0,0.0
10341,55.0,7,470,3.0,0.0
10342,57.0,0,240,12.0,0.0
10343,50.0,1,240,12.0,0.0
10344,69.0,0,240,5.0,0.0
10345,62.0,110,240,5.0,0.0
10346,76.0,6,60,2.0,0.0
10347,64.0,54,60,3.0,0.0
10348,81.0,1,240,0.0,0.0
10349,71.0,6,60,2.0,0.0
10350,59.0,44,60,3.0,0.0
10351,73.0,6,50,2.0,0.0
10352,61.0,3,50,3.0,0.0
10353,71.0,0,110,2.0,0.0
10354,38.0,0,120,13.0,0.0
10355,45.0,3,120,13.0,0.0
10356,59.0,0,110,3.0,0.0
10357,38.0,114,120,14.0,0.0
10358,50.0,1,240,12.0,0.0
10359,57.0,0,240,12.0,0.0
10360,69.0,0,120,2.0,0.0
10361,69.0,115,240,5.0,0.0
10362,62.0,0,240,5.0,0.0
10363,66.0,6,120,2.0,0.0
10364,57.0,0,120,3.0,0.0
10365,54.0,104,120,3.0,0.0
10366,81.0,8,240,0.0,0.0
10367,67.0,6,110,2.0,0.0
10368,71.0,0,110,2.0,0.0
10369,59.0,3,110,3.0,0.0
10370,55.0,0,110,3.0,0.0
10371,73.0,6,240,2.0,0.0
10372,64.0,0,240,2.0,0.0
10373,38.0,0,120,13.0,0.0
10374,45.0,117,120,13.0,0.0
10375,61.0,0,240,3.0,0.0
10376,52.0,104,240,3.0,0.0
10377,57.0,0,240,12.0,0.0
10378,50.0,1,240,12.0,0.0
10379,62.0,60,240,5.0,0.0
10380,69.0,0,240,5.0,0.0
10381,81.0,5,240,0.0,0.0
10382,66.0,0,110,2.0,0.0
10383,74.0,6,110,2.0,0.0
10384,62.0,3,110,3.0,0.0
10385,54.0,0,110,3.0,0.0
10386,67.0,6,240,2.0,0.0
10387,78.0,6,60,2.0,0.0
10388,45.0,3,120,13.0,0.0
10389,38.0,0,120,13.0,0.0
10390,66.0,49,60,3.0,0.0
10391,55.0,0,240,3.0,0.0
10392,76.0,3,60,2.0,0.0
10393,64.0,54,60,3.0,0.0
10394,50.0,1,240,12.0,0.0
10395,57.0,0,240,12.0,0.0
10396,71.0,6,60,2.0,0.0
10397,62.0,0,240,5.0,0.0
10398,69.0,58,240,5.0,0.0
10399,59.0,54,60,3.0,0.0
10400,73.0,0,60,2.0,0.0
10401,61.0,54,60,3.0,0.0
10402,81.0,4,240,10.0,0.0
10403,81.0,1,120,0.0,0.0
10404,78.0,56,180,1.0,0.0
10405,74.0,6,60,2.0,0.0
10406,66.0,5,110,2.0,0.0
10407,54.0,3,110,3.0,0.0
10408,62.0,44,60,3.0,0.0
10409,69.0,0,50,2.0,0.0
10410,57.0,0,50,3.0,0.0
10411,83.0,3,240,0.0,0.0
10412,67.0,0,240,2.0,0.0
10413,71.0,6,240,2.0,0.0
10414,38.0,0,120,13.0,0.0
10415,45.0,3,120,13.0,0.0
10416,38.0,52,120,14.0,0.0
10417,55.0,0,240,3.0,0.0
10418,59.0,52,240,3.0,0.0
10419,76.0,5,60,1.0,0.0
10420,71.0,57,60,1.0,0.0
10421,57.0,0,240,12.0,0.0
10422,50.0,1,240,12.0,0.0
10423,69.0,0,240,5.0,0.0
10424,62.0,114,240,5.0,0.0
10425,73.0,2,60,1.0,0.0
10426,81.0,1,240,10.0,0.0
10427,81.0,5,110,0.0,0.0
10428,69.0,4,240,11.0,0.0
10429,74.0,47,60,1.0,0.0
10430,69.0,0,110,2.0,0.0
10431,66.0,6,110,2.0,0.0
10432,57.0,0,110,3.0,0.0
10433,54.0,2,110,3.0,0.0
10434,69.0,1,60,1.0,0.0
10435,83.0,1,120,0.0,0.0
10436,71.0,3,120,2.0,0.0
10437,67.0,0,120,2.0,0.0
10438,38.0,3,120,13.0,0.0
10439,45.0,0,120,13.0,0.0
10440,59.0,109,120,3.0,0.0
10441,55.0,0,120,3.0,0.0
10442,85.0,5,120,0.0,0.0
10443,50.0,1,240,12.0,0.0
10444,57.0,0,240,12.0,0.0
10445,62.0,114,240,5.0,0.0
10446,69.0,0,240,5.0,0.0
10447,73.0,0,120,2.0,0.0
10448,64.0,6,120,2.0,0.0
10449,52.0,0,120,3.0,0.0
10450,61.0,99,120,3.0,0.0
10451,81.0,2,240,10.0,0.0
10452,86.0,5,110,0.0,0.0
10453,69.0,7,240,11.0,0.0
10454,74.0,6,110,2.0,0.0
10455,66.0,0,110,2.0,0.0
10456,54.0,0,110,3.0,0.0
10457,62.0,3,110,3.0,0.0
10458,90.0,5,180,0.0,0.0
10459,67.0,0,350,2.0,0.0
10460,78.0,6,180,2.0,0.0
10461,45.0,52,120,13.0,0.0
10462,38.0,0,120,13.0,0.0
10463,55.0,0,350,3.0,0.0
10464,66.0,49,180,3.0,0.0
10465,57.0,1,240,12.0,0.0
10466,50.0,0,240,12.0,0.0
10467,69.0,0,240,5.0,0.0
10468,62.0,55,240,5.0,0.0
10469,88.0,5,60,0.0,0.0
10470,76.0,6,60,2.0,0.0
10471,64.0,49,60,3.0,0.0
10472,81.0,1,240,10.0,0.0
10473,83.0,5,60,0.0,0.0
10474,76.0,1,120,0.0,0.0
10475,69.0,4,240,11.0,0.0
10476,71.0,6,60,2.0,0.0
10477,59.0,39,60,3.0,0.0
10478,85.0,5,50,0.0,0.0
10479,73.0,5,50,2.0,0.0
10480,61.0,3,50,3.0,0.0
10481,83.0,5,60,0.0,0.0
10482,77.0,0,120,0.0,0.0
10483,74.0,1,720,1.0,0.0
10484,68.0,3,120,2.0,0.0
10485,71.0,54,60,2.0,0.0
10486,45.0,0,120,13.0,0.0
10487,38.0,3,120,13.0,0.0
10488,38.0,0,120,14.0,0.0
10489,56.0,0,120,3.0,0.0
10490,65.0,49,120,3.0,0.0
10491,81.0,1,60,0.0,0.0
10492,86.0,5,60,0.0,0.0
10493,78.0,5,120,0.0,0.0
10494,57.0,1,240,12.0,0.0
10495,50.0,0,240,12.0,0.0
10496,69.0,0,0,2.0,0.0
10497,74.0,55,60,2.0,0.0
10498,62.0,0,240,5.0,0.0
10499,69.0,0,240,5.0,0.0
10500,57.0,49,120,3.0,0.0
10501,66.0,0,120,3.0,0.0
10502,81.0,0,60,0.0,0.0
10503,69.0,0,60,2.0,0.0
10504,81.0,2,240,10.0,0.0
10505,77.0,0,120,0.0,0.0
10506,83.0,5,60,0.0,0.0
10507,69.0,0,240,11.0,0.0
10508,71.0,55,60,2.0,0.0
10509,68.0,0,120,2.0,0.0
10510,65.0,49,120,3.0,0.0
10511,56.0,0,120,3.0,0.0
10512,81.0,4,60,0.0,0.0
10513,78.0,0,110,0.0,0.0
10514,86.0,5,60,0.0,0.0
10515,69.0,6,0,2.0,0.0
10516,74.0,45,60,2.0,0.0
10517,38.0,0,120,13.0,0.0
10518,45.0,112,120,13.0,0.0
10519,66.0,0,110,3.0,0.0
10520,57.0,7,110,3.0,0.0
10521,81.0,5,50,0.0,0.0
10522,69.0,0,50,2.0,0.0
10523,90.0,0,120,0.0,0.0
10524,81.0,5,120,0.0,0.0
10525,50.0,1,240,12.0,0.0
10526,57.0,0,240,12.0,0.0
10527,69.0,115,120,2.0,0.0
10528,69.0,0,240,5.0,0.0
10529,62.0,6,240,5.0,0.0
10530,78.0,0,120,2.0,0.0
10531,62.0,0,300,3.0,0.0
10532,81.0,2,240,10.0,0.0
10533,89.0,0,120,0.0,0.0
10534,80.0,3,120,0.0,0.0
10535,69.0,2,240,11.0,0.0
10536,67.0,0,120,2.0,0.0
10537,77.0,0,120,2.0,0.0
10538,59.0,19,120,3.0,0.0
10539,81.0,0,30,0.0,0.0
10540,90.0,5,30,0.0,0.0
10541,69.0,5,120,1.0,0.0
10542,78.0,25,30,2.0,0.0
10543,69.0,0,30,2.0,0.0
10544,38.0,52,120,13.0,0.0
10545,45.0,0,120,13.0,0.0
10546,57.0,48,60,3.0,0.0
10547,79.0,0,30,0.0,0.0
10548,88.0,5,30,0.0,0.0
10549,67.0,6,30,2.0,0.0
10550,76.0,0,30,2.0,0.0
10551,83.0,5,60,0.0,0.0
10552,79.0,0,60,0.0,0.0
10553,50.0,1,240,12.0,0.0
10554,57.0,0,240,12.0,0.0
10555,71.0,6,60,2.0,0.0
10556,67.0,0,60,2.0,0.0
10557,62.0,0,240,5.0,0.0
10558,69.0,55,240,5.0,0.0
10559,57.0,109,60,3.0,0.0
10560,64.0,0,60,3.0,0.0
10561,81.0,2,230,10.0,0.0
10562,85.0,5,60,0.0,0.0
10563,79.0,0,60,0.0,0.0
10564,69.0,17,230,11.0,0.0
10565,64.0,6,60,2.0,0.0
10566,73.0,0,60,2.0,0.0
10567,57.0,53,60,3.0,0.0
10568,78.0,5,60,0.0,0.0
10569,86.0,0,60,0.0,0.0
10570,66.0,6,60,2.0,0.0
10571,74.0,0,60,2.0,0.0
10572,50.0,52,120,13.0,0.0
10573,50.0,38,60,3.0,0.0
10574,62.0,0,60,3.0,0.0
10575,73.0,2,120,10.0,0.0
10576,90.0,3,60,0.0,0.0
10577,82.0,0,60,0.0,0.0
10578,66.0,7,120,11.0,0.0
10579,66.0,0,60,1.0,0.0
10580,70.0,2,60,1.0,0.0
10581,70.0,0,60,2.0,0.0
10582,78.0,6,60,2.0,0.0
10583,45.0,52,120,13.0,0.0
10584,38.0,0,120,13.0,0.0
10585,66.0,48,60,3.0,0.0
10586,54.0,0,60,3.0,0.0
10587,83.0,0,60,0.0,0.0
10588,89.0,3,60,0.0,0.0
10589,68.0,0,60,1.0,0.0
10590,71.0,2,60,1.0,0.0
10591,77.0,0,60,2.0,0.0
10592,71.0,6,60,2.0,0.0
10593,61.0,0,120,13.0,0.0
10594,54.0,111,120,13.0,0.0
10595,65.0,0,60,3.0,0.0
10596,61.0,57,60,3.0,0.0
10597,73.0,2,120,10.0,0.0
10598,82.0,3,240,0.0,0.0
10599,90.0,0,240,0.0,0.0
10600,66.0,7,120,11.0,0.0
10601,66.0,1,240,1.0,0.0
10602,70.0,0,240,1.0,0.0
10603,78.0,55,180,2.0,0.0
10604,70.0,4,830,2.0,0.0
10605,45.0,57,120,13.0,0.0
10606,38.0,0,120,13.0,0.0
10607,54.0,0,830,3.0,0.0
10608,66.0,0,830,3.0,0.0
10609,61.0,1,120,12.0,0.0
10610,54.0,0,120,12.0,0.0
10611,54.0,57,120,13.0,0.0
10612,85.0,3,60,2.0,0.0
10613,73.0,2,120,10.0,0.0
10614,66.0,4,120,11.0,0.0
10615,82.0,54,60,2.0,0.0
10616,83.0,60,60,2.0,0.0
10617,54.0,0,120,12.0,0.0
10618,61.0,1,120,12.0,0.0
10619,85.0,59,60,2.0,0.0
10620,54.0,57,120,13.0,0.0
10621,82.0,3,60,2.0,0.0
10622,73.0,2,120,10.0,0.0
10623,66.0,4,120,11.0,0.0
10624,78.0,54,60,2.0,0.0
10625,80.0,60,60,2.0,0.0
10626,54.0,1,120,12.0,0.0
10627,61.0,0,120,12.0,0.0
10628,82.0,59,60,2.0,0.0
10629,54.0,57,120,13.0,0.0
10630,78.0,3,60,2.0,0.0
10631,73.0,2,120,10.0,0.0
10632,66.0,59,120,11.0,0.0
10633,73.0,50,60,2.0,0.0
10634,75.0,0,50,2.0,0.0
10635,71.0,2,120,10.0,0.0
10636,80.0,3,60,0.0,0.0
10637,88.0,0,60,0.0,0.0
10638,59.0,7,120,11.0,0.0
10639,76.0,0,60,1.0,0.0
10640,68.0,2,60,1.0,0.0
10641,64.0,6,60,2.0,0.0
10642,71.0,0,60,2.0,0.0
10643,44.0,52,120,13.0,0.0
10644,47.0,0,120,13.0,0.0
10645,64.0,48,60,3.0,0.0
10646,56.0,0,60,3.0,0.0
10647,87.0,0,60,0.0,0.0
10648,81.0,3,60,0.0,0.0
10649,75.0,0,60,1.0,0.0
10650,69.0,2,60,1.0,0.0
10651,71.0,0,60,2.0,0.0
10652,66.0,6,60,2.0,0.0
10653,59.0,0,120,13.0,0.0
10654,56.0,111,120,13.0,0.0
10655,63.0,0,60,3.0,0.0
10656,59.0,57,60,3.0,0.0
10657,71.0,2,120,10.0,0.0
10658,88.0,3,240,0.0,0.0
10659,80.0,0,240,0.0,0.0
10660,64.0,7,120,11.0,0.0
10661,68.0,0,240,1.0,0.0
10662,76.0,57,180,1.0,0.0
10663,64.0,4,830,2.0,0.0
10664,71.0,0,830,2.0,0.0
10665,44.0,55,120,13.0,0.0
10666,47.0,0,120,13.0,0.0
10667,56.0,2,830,3.0,0.0
10668,64.0,0,830,3.0,0.0
10669,59.0,4,120,12.0,0.0
10670,56.0,0,120,12.0,0.0
10671,56.0,55,120,13.0,0.0
10672,83.0,1,60,1.0,0.0
10673,71.0,2,120,10.0,0.0
10674,64.0,2,120,11.0,0.0
10675,80.0,56,60,1.0,0.0
10676,81.0,60,60,1.0,0.0
10677,83.0,60,60,1.0,0.0
10678,56.0,4,120,12.0,0.0
10679,59.0,0,120,12.0,0.0
10680,56.0,55,120,13.0,0.0
10681,80.0,1,60,1.0,0.0
10682,71.0,2,120,10.0,0.0
10683,64.0,2,120,11.0,0.0
10684,76.0,56,60,1.0,0.0
10685,78.0,60,60,1.0,0.0
10686,80.0,60,60,1.0,0.0
10687,59.0,0,120,12.0,0.0
10688,56.0,4,120,12.0,0.0
10689,56.0,55,120,13.0,0.0
10690,76.0,1,60,1.0,0.0
10691,71.0,2,120,10.0,0.0
10692,64.0,0,120,11.0,0.0
10693,71.0,52,60,1.0,0.0
10694,73.0,57,60,1.0,0.0
10695,74.0,2,120,10.0,0.0
10696,86.0,0,60,0.0,0.0
10697,78.0,5,60,0.0,0.0
10698,62.0,3,120,11.0,0.0
10699,57.0,4,120,12.0,0.0
10700,74.0,6,60,2.0,0.0
10701,45.0,0,120,13.0,0.0
10702,50.0,52,120,13.0,0.0
10703,57.0,48,60,3.0,0.0
10704,85.0,5,60,0.0,0.0
10705,79.0,0,60,0.0,0.0
10706,58.0,3,120,11.0,0.0
10707,58.0,4,120,12.0,0.0
10708,73.0,6,60,2.0,0.0
10709,58.0,0,120,13.0,0.0
10710,62.0,55,120,13.0,0.0
10711,58.0,50,60,3.0,0.0
10712,74.0,2,120,10.0,0.0
10713,62.0,3,120,11.0,0.0
10714,66.0,0,60,1.0,0.0
10715,74.0,8,60,1.0,0.0
10716,57.0,4,120,12.0,0.0
10717,45.0,0,120,13.0,0.0
10718,50.0,55,120,13.0,0.0
10719,57.0,48,60,3.0,0.0
10720,59.0,3,120,11.0,0.0
10721,65.0,8,60,1.0,0.0
10722,68.0,0,60,1.0,0.0
10723,59.0,4,120,12.0,0.0
10724,62.0,52,120,13.0,0.0
10725,59.0,50,60,3.0,0.0
10726,77.0,2,120,10.0,0.0
10727,89.0,0,60,0.0,0.0
10728,81.0,5,60,0.0,0.0
10729,65.0,3,120,11.0,0.0
10730,60.0,4,120,12.0,0.0
10731,77.0,6,60,2.0,0.0
10732,53.0,0,120,13.0,0.0
10733,48.0,52,120,13.0,0.0
10734,60.0,48,60,3.0,0.0
10735,88.0,5,60,0.0,0.0
10736,82.0,0,60,0.0,0.0
10737,61.0,3,120,11.0,0.0
10738,61.0,4,120,12.0,0.0
10739,76.0,6,60,2.0,0.0
10740,65.0,55,120,13.0,0.0
10741,61.0,50,60,3.0,0.0
10742,77.0,2,120,10.0,0.0
10743,65.0,3,120,11.0,0.0
10744,69.0,0,60,1.0,0.0
10745,77.0,2,60,1.0,0.0
10746,60.0,4,120,12.0,0.0
10747,69.0,6,60,2.0,0.0
10748,53.0,0,120,13.0,0.0
10749,48.0,55,120,13.0,0.0
10750,60.0,48,60,3.0,0.0
10751,62.0,3,120,11.0,0.0
10752,68.0,2,60,1.0,0.0
10753,71.0,0,60,1.0,0.0
10754,62.0,4,120,12.0,0.0
10755,71.0,6,60,2.0,0.0
10756,65.0,231,120,13.0,0.0
10757,62.0,50,60,3.0,0.0
10758,72.0,2,120,10.0,0.0
10759,64.0,7,120,11.0,0.0
10760,48.0,101,120,13.0,0.0
10761,71.0,2,110,10.0,0.0
10762,65.0,7,110,11.0,0.0
10763,50.0,241,110,13.0,0.0
10764,70.0,2,240,10.0,0.0
10765,67.0,3,240,11.0,0.0
10766,52.0,101,240,13.0,0.0
10767,61.0,4,120,12.0,0.0
10768,69.0,2,110,10.0,0.0
10769,65.0,3,110,11.0,0.0
10770,60.0,4,110,12.0,0.0
10771,53.0,123,110,13.0,0.0
10772,66.0,52,180,10.0,0.0
10773,63.0,3,120,11.0,0.0
10774,57.0,55,120,12.0,0.0
10775,46.0,111,480,13.0,0.0
10776,62.0,3,110,11.0,0.0
10777,58.0,5,110,12.0,0.0
10778,67.0,60,60,10.0,0.0
10779,74.0,50,60,10.0,0.0
10780,64.0,3,230,11.0,0.0
10781,55.0,14,230,12.0,0.0
10782,76.0,120,50,10.0,0.0
10783,74.0,2,110,10.0,0.0
10784,72.0,2,120,10.0,0.0
10785,65.0,3,120,11.0,0.0
10786,48.0,4,120,12.0,0.0
10787,45.0,101,120,13.0,0.0
10788,71.0,2,110,10.0,0.0
10789,62.0,3,110,11.0,0.0
10790,53.0,4,110,12.0,0.0
10791,44.0,123,110,13.0,0.0
10792,70.0,2,240,10.0,0.0
10793,64.0,7,120,11.0,0.0
10794,61.0,4,240,12.0,0.0
10795,43.0,111,120,13.0,0.0
10796,67.0,3,120,11.0,0.0
10797,40.0,101,120,13.0,0.0
10798,69.0,2,110,10.0,0.0
10799,65.0,3,110,11.0,0.0
10800,60.0,4,110,12.0,0.0
10801,41.0,123,110,13.0,0.0
10802,66.0,60,180,10.0,0.0
10803,63.0,3,120,11.0,0.0
10804,57.0,55,120,12.0,0.0
10805,46.0,363,350,13.0,0.0
10806,62.0,3,120,11.0,0.0
10807,58.0,55,120,12.0,0.0
10808,67.0,2,60,10.0,0.0
10809,62.0,52,60,10.0,0.0
10810,58.0,2,110,11.0,0.0
10811,55.0,4,110,12.0,0.0
10812,64.0,1,54,10.0,0.0
10813,65.0,2,720,10.0,0.0
10814,60.0,2,360,11.0,0.0
10815,65.0,5,360,1.0,0.0
10816,60.0,0,360,4.0,0.0
10817,53.0,4,1200,12.0,0.0
10818,45.0,3,360,13.0,0.0
10819,53.0,0,1200,3.0,0.0
10820,45.0,348,360,3.0,0.0
10821,61.0,2,360,11.0,0.0
10822,61.0,0,360,4.0,0.0
10823,68.0,5,360,1.0,0.0
10824,44.0,3,360,13.0,0.0
10825,44.0,352,360,3.0,0.0
10826,59.0,2,480,10.0,0.0
10827,62.0,2,480,11.0,0.0
10828,62.0,1,480,4.0,0.0
10829,77.0,116,360,1.0,0.0
10830,43.0,3,480,13.0,0.0
10831,43.0,169,480,3.0,0.0
10832,71.0,0,120,1.0,0.0
10833,89.0,60,60,0.0,0.0
10834,53.0,3,120,12.0,0.0
10835,53.0,60,360,5.0,0.0
10836,45.0,52,120,13.0,0.0
10837,84.0,0,60,0.0,0.0
10838,65.0,2,2,10.0,0.0
10839,81.0,58,60,0.0,0.0
10840,60.0,3,0,11.0,0.0
10841,53.0,2,120,12.0,0.0
10842,48.0,52,120,13.0,0.0
10843,77.0,2,60,0.0,0.0
10844,72.0,58,60,0.0,0.0
10845,53.0,2,110,13.0,0.0
10846,69.0,5,60,0.0,0.0
10847,65.0,2,120,0.0,0.0
10848,77.0,55,60,2.0,0.0
10849,56.0,0,120,12.0,0.0
10850,56.0,0,360,5.0,0.0
10851,44.0,57,120,13.0,0.0
10852,73.0,3,60,2.0,0.0
10853,65.0,0,0,10.0,0.0
10854,61.0,3,0,11.0,0.0
10855,68.0,55,60,2.0,0.0
10856,56.0,2,120,12.0,0.0
10857,49.0,57,120,13.0,0.0
10858,65.0,1,60,2.0,0.0
10859,61.0,53,60,2.0,0.0
10860,53.0,7,110,13.0,0.0
10861,56.0,66,60,2.0,0.0
10862,59.0,1,120,11.0,0.0
10863,71.0,2,120,1.0,0.0
10864,65.0,3,480,5.0,0.0
10865,53.0,0,120,2.0,0.0
10866,43.0,3,480,13.0,0.0
10867,65.0,49,60,3.0,0.0
10868,62.0,60,60,3.0,0.0
10869,62.0,2,1,10.0,0.0
10870,59.0,3,120,11.0,0.0
10871,74.0,2,120,1.0,0.0
10872,65.0,6,0,12.0,0.0
10873,59.0,49,60,3.0,0.0
10874,55.0,60,60,3.0,0.0
10875,79.0,1,360,1.0,0.0
10876,53.0,60,60,3.0,0.0
10877,50.0,60,60,3.0,0.0
10878,59.0,0,120,11.0,0.0
10879,62.0,3,120,10.0,0.0
10880,65.0,1,120,12.0,0.0
10881,57.0,0,120,3.0,0.0
10882,65.0,50,60,3.0,0.0
10883,62.0,60,60,3.0,0.0
10884,67.0,2,120,10.0,0.0
10885,58.0,3,120,11.0,0.0
10886,64.0,1,120,12.0,0.0
10887,64.0,3,120,5.0,0.0
10888,36.0,3,120,13.0,0.0
10889,67.0,47,60,3.0,0.0
10890,64.0,60,60,3.0,0.0
10891,72.0,23,105,1.0,0.0
10892,58.0,37,60,3.0,0.0
10893,55.0,54,60,3.0,0.0
10894,65.0,1,120,10.0,0.0
10895,81.0,0,120,0.0,0.0
10896,57.0,3,120,11.0,0.0
10897,60.0,2,120,12.0,0.0
10898,69.0,0,120,1.0,0.0
10899,81.0,0,345,1.0,0.0
10900,77.0,54,60,2.0,0.0
10901,41.0,63,360,13.0,0.0
10902,53.0,54,120,3.0,0.0
10903,72.0,6,60,2.0,0.0
10904,65.0,1,120,10.0,0.0
10905,84.0,3,120,0.0,0.0
10906,72.0,2,120,1.0,0.0
10907,57.0,0,120,11.0,0.0
10908,69.0,6,60,2.0,0.0
10909,60.0,59,120,12.0,0.0
10910,41.0,48,60,14.0,0.0
10911,65.0,1,60,2.0,0.0
10912,89.0,3,105,0.0,0.0
10913,77.0,17,105,1.0,0.0
10914,60.0,40,60,2.0,0.0
10915,57.0,3,60,2.0,0.0
10916,68.0,2,120,10.0,0.0
10917,80.0,3,120,0.0,0.0
10918,68.0,0,120,1.0,0.0
10919,80.0,0,345,1.0,0.0
10920,61.0,2,120,12.0,0.0
10921,53.0,6,120,2.0,0.0
10922,53.0,3,360,13.0,0.0
10923,65.0,47,60,3.0,0.0
10924,61.0,60,60,3.0,0.0
10925,56.0,0,3,11.0,0.0
10926,85.0,1,120,0.0,0.0
10927,68.0,2,120,10.0,0.0
10928,73.0,0,120,1.0,0.0
10929,61.0,8,120,12.0,0.0
10930,41.0,0,60,14.0,0.0
10931,56.0,49,60,3.0,0.0
10932,53.0,60,60,3.0,0.0
10933,89.0,3,105,0.0,0.0
10934,77.0,20,105,1.0,0.0
10935,49.0,34,60,3.0,0.0
10936,44.0,54,60,3.0,0.0
10937,91.0,3,345,0.0,0.0
10938,89.0,0,345,0.0,0.0
10939,55.0,4,120,11.0,0.0
10940,79.0,0,345,1.0,0.0
10941,77.0,5,345,1.0,0.0
10942,77.0,55,60,2.0,0.0
10943,47.0,3,120,13.0,0.0
10944,43.0,54,120,3.0,0.0
10945,35.0,0,120,14.0,0.0
10946,74.0,0,60,2.0,0.0
10947,77.0,1,1,10.0,0.0
10948,67.0,3,120,11.0,0.0
10949,62.0,3,0,12.0,0.0
10950,71.0,54,60,2.0,0.0
10951,50.0,3,120,13.0,0.0
10952,38.0,54,120,14.0,0.0
10953,67.0,0,60,2.0,0.0
10954,65.0,40,60,2.0,0.0
10955,55.0,3,105,13.0,0.0
10956,43.0,9,105,14.0,0.0
10957,62.0,66,60,2.0,0.0
10958,76.0,2,120,10.0,0.0
10959,82.0,1,120,0.0,0.0
10960,67.0,2,120,11.0,0.0
10961,70.0,1,120,1.0,0.0
10962,64.0,1,120,12.0,0.0
10963,60.0,6,120,2.0,0.0
10964,48.0,3,345,13.0,0.0
10965,36.0,15,345,14.0,0.0
10966,64.0,47,60,3.0,0.0
10967,60.0,60,60,3.0,0.0
10968,88.0,1,120,0.0,0.0
10969,76.0,1,120,10.0,0.0
10970,70.0,1,120,11.0,0.0
10971,76.0,1,120,1.0,0.0
10972,55.0,7,120,12.0,0.0
10973,58.0,49,60,3.0,0.0
10974,55.0,60,60,3.0,0.0
10975,91.0,3,105,0.0,0.0
10976,79.0,5,105,1.0,0.0
10977,52.0,34,60,3.0,0.0
10978,48.0,54,60,3.0,0.0
10979,79.0,5,120,10.0,0.0
10980,93.0,0,345,0.0,0.0
10981,91.0,3,345,0.0,0.0
10982,57.0,2,120,11.0,0.0
10983,79.0,5,345,1.0,0.0
10984,81.0,0,345,1.0,0.0
10985,64.0,0,120,12.0,0.0
10986,79.0,53,60,2.0,0.0
10987,49.0,3,120,13.0,0.0
10988,37.0,54,120,14.0,0.0
10989,49.0,0,120,3.0,0.0
10990,76.0,3,60,2.0,0.0
10991,79.0,2,120,10.0,0.0
10992,69.0,3,120,11.0,0.0
10993,61.0,3,120,12.0,0.0
10994,73.0,55,60,2.0,0.0
10995,52.0,3,120,13.0,0.0
10996,40.0,54,120,14.0,0.0
10997,69.0,0,60,2.0,0.0
10998,67.0,40,60,2.0,0.0
10999,57.0,3,105,13.0,0.0
11000,45.0,9,105,14.0,0.0
11001,64.0,66,60,2.0,0.0
11002,78.0,2,120,10.0,0.0
11003,84.0,2,120,0.0,0.0
11004,69.0,1,120,11.0,0.0
11005,72.0,2,120,1.0,0.0
11006,62.0,1,120,2.0,0.0
11007,62.0,5,120,12.0,0.0
11008,50.0,3,345,13.0,0.0
11009,66.0,47,60,3.0,0.0
11010,38.0,0,345,14.0,0.0
11011,62.0,60,60,3.0,0.0
11012,72.0,0,120,11.0,0.0
11013,90.0,1,120,0.0,0.0
11014,78.0,2,120,10.0,0.0
11015,78.0,3,120,1.0,0.0
11016,57.0,5,120,12.0,0.0
11017,60.0,49,60,3.0,0.0
11018,57.0,60,60,3.0,0.0
11019,93.0,3,105,0.0,0.0
11020,81.0,5,105,1.0,0.0
11021,54.0,34,60,3.0,0.0
11022,50.0,69,45,3.0,0.0
11023,79.0,0,120,11.0,0.0
11024,91.0,3,345,0.0,0.0
11025,82.0,0,345,0.0,0.0
11026,70.0,1,120,11.0,0.0
11027,79.0,2,345,1.0,0.0
11028,58.0,1,120,12.0,0.0
11029,82.0,0,345,1.0,0.0
11030,67.0,1,120,12.0,0.0
11031,79.0,55,60,2.0,0.0
11032,38.0,3,120,13.0,0.0
11033,38.0,0,120,3.0,0.0
11034,50.0,54,120,3.0,0.0
11035,74.0,3,60,2.0,0.0
11036,82.0,2,1,10.0,0.0
11037,70.0,0,120,11.0,0.0
11038,79.0,3,120,11.0,0.0
11039,70.0,54,60,2.0,0.0
11040,58.0,0,120,12.0,0.0
11041,67.0,2,120,12.0,0.0
11042,43.0,3,120,13.0,0.0
11043,43.0,54,120,3.0,0.0
11044,67.0,1,60,2.0,0.0
11045,62.0,40,60,2.0,0.0
11046,46.0,18,105,13.0,0.0
11047,46.0,54,120,3.0,0.0
11048,58.0,3,45,2.0,0.0
11049,82.0,0,345,0.0,0.0
11050,91.0,3,345,0.0,0.0
11051,67.0,3,120,11.0,0.0
11052,79.0,0,345,1.0,0.0
11053,82.0,2,345,1.0,0.0
11054,50.0,1,120,12.0,0.0
11055,79.0,6,60,2.0,0.0
11056,38.0,3,120,13.0,0.0
11057,67.0,49,60,3.0,0.0
11058,38.0,54,120,3.0,0.0
11059,74.0,3,60,2.0,0.0
11060,62.0,0,60,3.0,0.0
11061,70.0,1,1,10.0,0.0
11062,67.0,2,120,11.0,0.0
11063,55.0,1,120,12.0,0.0
11064,70.0,6,60,2.0,0.0
11065,43.0,3,120,13.0,0.0
11066,58.0,48,60,3.0,0.0
11067,43.0,0,120,3.0,0.0
11068,67.0,3,60,2.0,0.0
11069,55.0,54,60,3.0,0.0
11070,58.0,7,120,12.0,0.0
11071,62.0,6,60,2.0,0.0
11072,46.0,3,105,13.0,0.0
11073,50.0,34,60,3.0,0.0
11074,58.0,3,45,2.0,0.0
11075,46.0,8,45,3.0,0.0
11076,63.0,2,60,10.0,0.0
11077,82.0,3,225,0.0,0.0
11078,91.0,0,225,0.0,0.0
11079,63.0,3,60,11.0,0.0
11080,79.0,1,350,6.0,0.0
11081,82.0,11,225,1.0,0.0
11082,70.0,0,240,4.0,0.0
11083,79.0,0,225,1.0,0.0
11084,51.0,4,60,12.0,0.0
11085,79.0,3,240,2.0,0.0
11086,39.0,3,60,13.0,0.0
11087,51.0,48,60,3.0,0.0
11088,67.0,2,60,10.0,0.0
11089,67.0,3,60,11.0,0.0
11090,55.0,4,60,12.0,0.0
11091,43.0,3,60,13.0,0.0
11092,55.0,48,60,3.0,0.0
11093,70.0,2,60,10.0,0.0
11094,70.0,3,60,11.0,0.0
11095,58.0,4,60,12.0,0.0
11096,46.0,3,60,13.0,0.0
11097,58.0,34,60,3.0,0.0
11098,62.0,2,60,10.0,0.0
11099,62.0,2,60,11.0,0.0
11100,50.0,1,60,12.0,0.0
11101,38.0,3,60,13.0,0.0
11102,50.0,48,60,3.0,0.0
11103,67.0,2,60,10.0,0.0
11104,79.0,3,105,0.0,0.0
11105,82.0,0,105,0.0,0.0
11106,67.0,3,60,11.0,0.0
11107,58.0,1,110,4.0,0.0
11108,67.0,1,0,4.0,0.0
11109,70.0,1,105,1.0,0.0
11110,79.0,0,105,1.0,0.0
11111,55.0,4,60,12.0,0.0
11112,67.0,0,105,2.0,0.0
11113,70.0,0,0,2.0,0.0
11114,43.0,3,60,13.0,0.0
11115,55.0,34,60,3.0,0.0
11116,70.0,1,50,10.0,0.0
11117,70.0,1,50,11.0,0.0
11118,58.0,2,50,12.0,0.0
11119,46.0,61,50,13.0,0.0
11120,58.0,2,45,3.0,0.0
11121,61.0,2,60,10.0,0.0
11122,91.0,1,240,0.0,0.0
11123,82.0,0,240,0.0,0.0
11124,61.0,3,60,11.0,0.0
11125,79.0,1,350,6.0,0.0
11126,82.0,1,240,1.0,0.0
11127,70.0,0,240,4.0,0.0
11128,79.0,0,240,1.0,0.0
11129,49.0,4,60,12.0,0.0
11130,70.0,3,240,2.0,0.0
11131,79.0,0,240,2.0,0.0
11132,37.0,3,60,13.0,0.0
11133,49.0,48,60,3.0,0.0
11134,67.0,2,60,10.0,0.0
11135,67.0,3,60,11.0,0.0
11136,55.0,4,60,12.0,0.0
11137,43.0,3,60,13.0,0.0
11138,55.0,48,60,3.0,0.0
11139,70.0,2,60,10.0,0.0
11140,70.0,3,60,11.0,0.0
11141,58.0,4,60,12.0,0.0
11142,46.0,3,60,13.0,0.0
11143,58.0,48,60,3.0,0.0
11144,62.0,1,60,10.0,0.0
11145,62.0,2,60,11.0,0.0
11146,50.0,1,60,12.0,0.0
11147,38.0,3,60,13.0,0.0
11148,50.0,48,60,3.0,0.0
11149,67.0,2,60,10.0,0.0
11150,79.0,3,105,0.0,0.0
11151,82.0,0,105,0.0,0.0
11152,67.0,3,60,11.0,0.0
11153,58.0,1,110,4.0,0.0
11154,67.0,0,0,4.0,0.0
11155,70.0,0,105,1.0,0.0
11156,79.0,1,105,1.0,0.0
11157,55.0,4,60,12.0,0.0
11158,70.0,0,105,2.0,0.0
11159,67.0,1,105,2.0,0.0
11160,43.0,3,60,13.0,0.0
11161,55.0,34,60,3.0,0.0
11162,70.0,1,50,10.0,0.0
11163,70.0,1,50,11.0,0.0
11164,58.0,2,50,12.0,0.0
11165,46.0,61,50,13.0,0.0
11166,58.0,2,45,3.0,0.0
11167,63.0,2,60,10.0,0.0
11168,91.0,0,240,0.0,0.0
11169,63.0,3,60,11.0,0.0
11170,79.0,1,350,6.0,0.0
11171,82.0,1,240,1.0,0.0
11172,70.0,0,240,4.0,0.0
11173,67.0,0,240,4.0,0.0
11174,51.0,4,60,12.0,0.0
11175,79.0,0,240,2.0,0.0
11176,39.0,3,60,13.0,0.0
11177,51.0,48,60,3.0,0.0
11178,67.0,2,60,10.0,0.0
11179,67.0,3,60,11.0,0.0
11180,55.0,4,60,12.0,0.0
11181,43.0,3,60,13.0,0.0
11182,55.0,48,60,3.0,0.0
11183,70.0,2,60,10.0,0.0
11184,70.0,3,60,11.0,0.0
11185,58.0,4,60,12.0,0.0
11186,46.0,3,60,13.0,0.0
11187,58.0,48,60,3.0,0.0
11188,62.0,1,60,10.0,0.0
11189,62.0,2,60,11.0,0.0
11190,50.0,1,60,12.0,0.0
11191,38.0,3,60,13.0,0.0
11192,50.0,48,60,3.0,0.0
11193,67.0,2,60,10.0,0.0
11194,82.0,1,0,0.0,0.0
11195,79.0,0,105,0.0,0.0
11196,67.0,3,60,11.0,0.0
11197,70.0,0,105,1.0,0.0
11198,67.0,0,110,4.0,0.0
11199,58.0,1,110,4.0,0.0
11200,79.0,0,0,1.0,0.0
11201,55.0,4,60,12.0,0.0
11202,67.0,1,105,2.0,0.0
11203,70.0,3,0,2.0,0.0
11204,43.0,3,60,13.0,0.0
11205,55.0,34,60,3.0,0.0
11206,70.0,1,50,10.0,0.0
11207,70.0,1,50,11.0,0.0
11208,58.0,2,50,12.0,0.0
11209,46.0,61,50,13.0,0.0
11210,58.0,2,45,3.0,0.0
11211,61.0,2,60,10.0,0.0
11212,91.0,1,240,0.0,0.0
11213,61.0,3,60,11.0,0.0
11214,79.0,1,350,6.0,0.0
11215,82.0,1,240,1.0,0.0
11216,70.0,0,240,4.0,0.0
11217,79.0,0,240,1.0,0.0
11218,49.0,4,60,12.0,0.0
11219,79.0,3,240,2.0,0.0
11220,37.0,3,60,13.0,0.0
11221,49.0,48,60,3.0,0.0
11222,67.0,2,60,10.0,0.0
11223,67.0,3,60,11.0,0.0
11224,55.0,4,60,12.0,0.0
11225,43.0,3,60,13.0,0.0
11226,55.0,38,60,3.0,0.0
11227,70.0,2,50,10.0,0.0
11228,70.0,3,50,11.0,0.0
11229,58.0,2,50,12.0,0.0
11230,46.0,61,50,13.0,0.0
11231,58.0,2,45,3.0,0.0
11232,62.0,1,60,10.0,0.0
11233,62.0,2,60,11.0,0.0
11234,50.0,1,60,12.0,0.0
11235,38.0,3,60,13.0,0.0
11236,38.0,48,60,3.0,0.0
11237,67.0,2,60,10.0,0.0
11238,79.0,3,105,0.0,0.0
11239,82.0,0,0,0.0,0.0
11240,67.0,3,60,11.0,0.0
11241,67.0,0,0,4.0,0.0
11242,58.0,0,110,4.0,0.0
11243,79.0,0,105,1.0,0.0
11244,70.0,2,105,1.0,0.0
11245,55.0,4,60,12.0,0.0
11246,70.0,0,0,2.0,0.0
11247,67.0,0,105,2.0,0.0
11248,43.0,3,60,13.0,0.0
11249,43.0,34,60,3.0,0.0
11250,70.0,2,60,10.0,0.0
11251,70.0,3,60,11.0,0.0
11252,58.0,4,60,12.0,0.0
11253,46.0,3,60,13.0,0.0
11254,46.0,48,60,3.0,0.0
11255,74.0,1,60,10.0,0.0
11256,91.0,1,60,0.0,0.0
11257,82.0,0,60,0.0,0.0
11258,74.0,1,60,11.0,0.0
11259,79.0,1,60,6.0,0.0
11260,67.0,0,60,4.0,0.0
11261,70.0,0,60,4.0,0.0
11262,79.0,0,60,1.0,0.0
11263,82.0,1,60,1.0,0.0
11264,62.0,1,60,12.0,0.0
11265,82.0,0,60,2.0,0.0
11266,79.0,3,60,2.0,0.0
11267,50.0,3,60,13.0,0.0
11268,50.0,38,60,3.0,0.0
11269,79.0,2,50,10.0,0.0
11270,79.0,3,50,11.0,0.0
11271,67.0,2,50,12.0,0.0
11272,55.0,31,50,13.0,0.0
11273,55.0,2,45,3.0,0.0
11274,82.0,31,30,10.0,0.0
11275,82.0,1,60,0.0,0.0
11276,91.0,0,60,0.0,0.0
11277,82.0,1,60,11.0,0.0
11278,79.0,1,60,6.0,0.0
11279,82.0,0,60,6.0,0.0
11280,58.0,0,60,4.0,0.0
11281,67.0,0,60,4.0,0.0
11282,79.0,0,60,1.0,0.0
11283,70.0,1,60,1.0,0.0
11284,58.0,0,60,12.0,0.0
11285,67.0,1,60,12.0,0.0
11286,79.0,0,60,2.0,0.0
11287,70.0,3,60,2.0,0.0
11288,50.0,3,60,13.0,0.0
11289,50.0,18,60,3.0,0.0
11290,38.0,0,60,14.0,0.0
11291,79.0,62,30,10.0,0.0
11292,70.0,60,30,11.0,0.0
11293,67.0,63,30,11.0,0.0
11294,58.0,60,30,12.0,0.0
11295,55.0,57,30,12.0,0.0
11296,70.0,60,30,11.0,0.0
11297,67.0,58,30,11.0,0.0
11298,82.0,60,30,10.0,0.0
11299,79.0,62,30,10.0,0.0
11300,70.0,60,30,11.0,0.0
11301,67.0,58,30,11.0,0.0
11302,81.0,31,30,10.0,0.0
11303,88.0,0,60,0.0,0.0
11304,81.0,2,60,0.0,0.0
11305,69.0,1,60,6.0,0.0
11306,76.0,0,60,1.0,0.0
11307,69.0,0,60,1.0,0.0
11308,57.0,0,60,4.0,0.0
11309,64.0,1,60,4.0,0.0
11310,57.0,1,60,12.0,0.0
11311,52.0,0,60,12.0,0.0
11312,69.0,3,60,2.0,0.0
11313,79.0,0,60,2.0,0.0
11314,49.0,3,60,13.0,0.0
11315,49.0,0,60,3.0,0.0
11316,57.0,18,60,3.0,0.0
11317,37.0,0,60,14.0,0.0
11318,79.0,62,30,10.0,0.0
11319,69.0,60,30,11.0,0.0
11320,67.0,63,30,11.0,0.0
11321,57.0,60,30,12.0,0.0
11322,55.0,57,30,12.0,0.0
11323,69.0,60,30,11.0,0.0
11324,67.0,58,30,11.0,0.0
11325,81.0,60,30,10.0,0.0
11326,79.0,92,30,10.0,0.0
11327,81.0,10,60,11.0,0.0
11328,62.0,5,240,4.0,0.0
11329,41.0,3,120,13.0,0.0
11330,57.0,50,60,3.0,0.0
11331,29.0,0,120,14.0,0.0
11332,79.0,7,60,11.0,0.0
11333,55.0,50,60,3.0,0.0
11334,77.0,10,60,11.0,0.0
11335,45.0,3,120,13.0,0.0
11336,33.0,0,120,14.0,0.0
11337,53.0,50,60,3.0,0.0
11338,76.0,2,60,11.0,0.0
11339,52.0,50,60,3.0,0.0
11340,77.0,10,60,11.0,0.0
11341,65.0,56,120,4.0,0.0
11342,50.0,3,110,13.0,0.0
11343,38.0,2,110,14.0,0.0
11344,53.0,47,60,3.0,0.0
11345,76.0,0,60,11.0,0.0
11346,52.0,0,50,3.0,0.0
11347,74.0,12,60,10.0,0.0
11348,70.0,4,120,12.0,0.0
11349,74.0,3,240,2.0,0.0
11350,58.0,3,120,13.0,0.0
11351,50.0,48,60,3.0,0.0
11352,77.0,5,60,10.0,0.0
11353,53.0,48,60,3.0,0.0
11354,82.0,12,60,10.0,0.0
11355,65.0,1,120,12.0,0.0
11356,53.0,3,120,13.0,0.0
11357,58.0,48,60,3.0,0.0
11358,86.0,5,60,10.0,0.0
11359,62.0,48,60,3.0,0.0
11360,84.0,12,60,10.0,0.0
11361,62.0,1,110,12.0,0.0
11362,65.0,3,110,2.0,0.0
11363,50.0,1,110,13.0,0.0
11364,60.0,43,60,3.0,0.0
11365,82.0,2,60,10.0,0.0
11366,58.0,60,50,3.0,0.0
11367,81.0,10,60,11.0,0.0
11368,62.0,5,240,4.0,0.0
11369,41.0,3,120,13.0,0.0
11370,29.0,0,120,14.0,0.0
11371,57.0,50,60,3.0,0.0
11372,79.0,7,60,11.0,0.0
11373,55.0,50,60,3.0,0.0
11374,77.0,10,60,11.0,0.0
11375,45.0,3,120,13.0,0.0
11376,33.0,0,120,14.0,0.0
11377,53.0,50,60,3.0,0.0
11378,76.0,2,60,11.0,0.0
11379,52.0,50,60,3.0,0.0
11380,77.0,10,60,11.0,0.0
11381,65.0,56,120,4.0,0.0
11382,50.0,3,110,13.0,0.0
11383,38.0,0,110,14.0,0.0
11384,53.0,47,60,3.0,0.0
11385,76.0,0,60,11.0,0.0
11386,52.0,2,50,3.0,0.0
11387,74.0,12,60,10.0,0.0
11388,71.0,4,120,12.0,0.0
11389,74.0,4,230,2.0,0.0
11390,59.0,3,120,13.0,0.0
11391,50.0,48,60,3.0,0.0
11392,77.0,5,60,10.0,0.0
11393,53.0,48,60,3.0,0.0
11394,83.0,12,60,10.0,0.0
11395,65.0,4,120,12.0,0.0
11396,53.0,3,120,13.0,0.0
11397,59.0,44,60,3.0,0.0
11398,86.0,5,60,10.0,0.0
11399,62.0,48,60,3.0,0.0
11400,84.0,12,60,10.0,0.0
11401,62.0,1,110,12.0,0.0
11402,65.0,3,110,2.0,0.0
11403,50.0,1,110,13.0,0.0
11404,60.0,43,60,3.0,0.0
11405,83.0,2,60,10.0,0.0
11406,59.0,60,50,3.0,0.0
11407,88.0,10,60,11.0,0.0
11408,57.0,1,240,4.0,0.0
11409,81.0,3,240,2.0,0.0
11410,48.0,3,120,13.0,0.0
11411,64.0,50,60,3.0,0.0
11412,36.0,50,120,14.0,0.0
11413,84.0,7,60,11.0,0.0
11414,60.0,0,60,3.0,0.0
11415,81.0,10,60,11.0,0.0
11416,60.0,1,120,12.0,0.0
11417,52.0,3,120,13.0,0.0
11418,40.0,0,120,14.0,0.0
11419,57.0,50,60,3.0,0.0
11420,76.0,2,60,11.0,0.0
11421,52.0,50,60,3.0,0.0
11422,72.0,10,60,11.0,0.0
11423,64.0,56,120,4.0,0.0
11424,64.0,1,110,12.0,0.0
11425,72.0,3,110,2.0,0.0
11426,57.0,3,110,13.0,0.0
11427,45.0,0,110,14.0,0.0
11428,48.0,43,60,3.0,0.0
11429,69.0,2,60,11.0,0.0
11430,45.0,0,50,3.0,0.0
11431,77.0,12,60,10.0,0.0
11432,65.0,1,240,4.0,0.0
11433,69.0,4,120,12.0,0.0
11434,71.0,3,240,2.0,0.0
11435,50.0,3,120,13.0,0.0
11436,38.0,48,120,14.0,0.0
11437,65.0,48,60,3.0,0.0
11438,74.0,5,60,10.0,0.0
11439,62.0,0,60,3.0,0.0
11440,71.0,12,60,10.0,0.0
11441,62.0,1,120,12.0,0.0
11442,53.0,3,120,13.0,0.0
11443,59.0,48,60,3.0,0.0
11444,41.0,0,120,14.0,0.0
11445,65.0,4,60,10.0,0.0
11446,53.0,48,60,3.0,0.0
11447,62.0,12,60,10.0,0.0
11448,62.0,36,120,4.0,0.0
11449,65.0,1,110,12.0,0.0
11450,74.0,3,110,2.0,0.0
11451,59.0,3,110,13.0,0.0
11452,50.0,38,60,3.0,0.0
11453,47.0,0,110,14.0,0.0
11454,59.0,5,50,10.0,0.0
11455,47.0,2,50,3.0,0.0
11456,72.0,2,40,10.0,0.0
11457,84.0,0,60,0.0,0.0
11458,81.0,3,60,0.0,0.0
11459,60.0,19,40,11.0,0.0
11460,69.0,0,60,1.0,0.0
11461,81.0,0,60,1.0,0.0
11462,52.0,0,60,4.0,0.0
11463,64.0,1,60,4.0,0.0
11464,60.0,1,60,12.0,0.0
11465,69.0,0,60,12.0,0.0
11466,72.0,3,60,2.0,0.0
11467,69.0,0,60,2.0,0.0
11468,52.0,3,60,13.0,0.0
11469,40.0,0,60,3.0,0.0
11470,52.0,0,60,3.0,0.0
11471,40.0,8,60,14.0,0.0
11472,74.0,2,40,10.0,0.0
11473,62.0,28,40,11.0,0.0
11474,75.0,2,30,10.0,0.0
11475,63.0,48,30,11.0,0.0
11476,76.0,2,40,10.0,0.0
11477,80.0,1,590,0.0,0.0
11478,88.0,0,590,0.0,0.0
11479,64.0,38,40,11.0,0.0
11480,64.0,0,590,4.0,0.0
11481,80.0,0,590,1.0,0.0
11482,62.0,0,590,4.0,0.0
11483,74.0,1,590,1.0,0.0
11484,59.0,1,590,12.0,0.0
11485,68.0,0,590,12.0,0.0
11486,76.0,0,590,2.0,0.0
11487,68.0,3,590,2.0,0.0
11488,52.0,0,590,13.0,0.0
11489,62.0,3,590,13.0,0.0
11490,52.0,0,590,3.0,0.0
11491,62.0,0,590,3.0,0.0
11492,52.0,58,590,14.0,0.0
11493,78.0,2,40,10.0,0.0
11494,66.0,38,40,11.0,0.0
11495,80.0,2,40,10.0,0.0
11496,68.0,38,40,11.0,0.0
11497,81.0,2,40,10.0,0.0
11498,69.0,38,40,11.0,0.0
11499,82.0,2,40,10.0,0.0
11500,70.0,38,40,11.0,0.0
11501,83.0,2,40,10.0,0.0
11502,71.0,38,40,11.0,0.0
11503,84.0,2,40,10.0,0.0
11504,72.0,38,40,11.0,0.0
11505,85.0,2,40,10.0,0.0
11506,73.0,38,40,11.0,0.0
11507,86.0,2,40,10.0,0.0
11508,74.0,38,40,11.0,0.0
11509,87.0,2,40,10.0,0.0
11510,75.0,38,40,11.0,0.0
11511,88.0,2,40,10.0,0.0
11512,76.0,38,40,11.0,0.0
11513,89.0,2,40,10.0,0.0
11514,77.0,38,40,11.0,0.0
11515,90.0,2,40,10.0,0.0
11516,78.0,38,40,11.0,0.0
11517,91.0,2,40,10.0,0.0
11518,79.0,28,40,11.0,0.0
11519,92.0,1,30,10.0,0.0
11520,80.0,2,30,11.0,0.0
11521,93.0,1,60,10.0,0.0
11522,93.0,1,60,0.0,0.0
11523,81.0,1,60,11.0,0.0
11524,69.0,0,60,6.0,0.0
11525,81.0,1,60,6.0,0.0
11526,81.0,1,60,1.0,0.0
11527,62.0,0,60,12.0,0.0
11528,69.0,0,60,12.0,0.0
11529,57.0,1,60,12.0,0.0
11530,69.0,3,60,2.0,0.0
11531,81.0,0,60,2.0,0.0
11532,69.0,0,60,5.0,0.0
11533,53.0,0,60,5.0,0.0
11534,41.0,3,60,13.0,0.0
11535,29.0,0,60,14.0,0.0
11536,57.0,49,60,3.0,0.0
11537,91.0,3,60,0.0,0.0
11538,79.0,2,60,1.0,0.0
11539,79.0,0,60,2.0,0.0
11540,67.0,6,60,2.0,0.0
11541,55.0,49,60,3.0,0.0
11542,73.0,2,240,10.0,0.0
11543,89.0,2,60,0.0,0.0
11544,65.0,3,350,11.0,0.0
11545,77.0,0,350,11.0,0.0
11546,65.0,1,60,6.0,0.0
11547,77.0,0,60,6.0,0.0
11548,77.0,2,60,1.0,0.0
11549,61.0,4,240,12.0,0.0
11550,57.0,0,60,5.0,0.0
11551,65.0,0,60,5.0,0.0
11552,77.0,6,60,2.0,0.0
11553,65.0,0,60,2.0,0.0
11554,57.0,3,240,13.0,0.0
11555,53.0,49,60,3.0,0.0
11556,45.0,49,240,14.0,0.0
11557,88.0,3,60,0.0,0.0
11558,76.0,2,60,1.0,0.0
11559,76.0,0,60,2.0,0.0
11560,64.0,6,60,2.0,0.0
11561,52.0,49,60,3.0,0.0
11562,89.0,3,60,0.0,0.0
11563,77.0,2,60,1.0,0.0
11564,65.0,0,60,2.0,0.0
11565,77.0,6,60,2.0,0.0
11566,53.0,39,60,3.0,0.0
11567,88.0,3,50,0.0,0.0
11568,76.0,2,50,1.0,0.0
11569,64.0,0,50,2.0,0.0
11570,76.0,4,50,2.0,0.0
11571,52.0,3,50,3.0,0.0
11572,74.0,2,110,10.0,0.0
11573,86.0,3,60,0.0,0.0
11574,74.0,2,60,1.0,0.0
11575,62.0,4,110,12.0,0.0
11576,62.0,6,60,5.0,0.0
11577,74.0,0,60,2.0,0.0
11578,62.0,0,60,2.0,0.0
11579,58.0,2,110,13.0,0.0
11580,50.0,38,60,3.0,0.0
11581,46.0,2,110,14.0,0.0
11582,89.0,1,60,0.0,0.0
11583,77.0,2,60,1.0,0.0
11584,77.0,0,60,2.0,0.0
11585,65.0,6,60,2.0,0.0
11586,53.0,48,60,3.0,0.0
11587,77.0,1,60,10.0,0.0
11588,82.0,1,60,0.0,0.0
11589,74.0,0,60,11.0,0.0
11590,70.0,2,60,11.0,0.0
11591,82.0,1,60,1.0,0.0
11592,65.0,1,60,12.0,0.0
11593,70.0,3,60,5.0,0.0
11594,62.0,0,60,5.0,0.0
11595,70.0,0,60,2.0,0.0
11596,82.0,0,60,2.0,0.0
11597,53.0,3,60,13.0,0.0
11598,41.0,49,60,14.0,0.0
11599,58.0,0,60,3.0,0.0
11600,86.0,3,60,0.0,0.0
11601,86.0,2,60,1.0,0.0
11602,86.0,0,60,2.0,0.0
11603,74.0,6,60,2.0,0.0
11604,62.0,48,60,3.0,0.0
11605,82.0,1,60,10.0,0.0
11606,84.0,1,60,0.0,0.0
11607,70.0,0,60,11.0,0.0
11608,74.0,2,60,11.0,0.0
11609,84.0,1,60,1.0,0.0
11610,70.0,1,60,12.0,0.0
11611,84.0,3,60,2.0,0.0
11612,72.0,0,60,2.0,0.0
11613,50.0,3,60,13.0,0.0
11614,38.0,39,60,14.0,0.0
11615,60.0,0,60,3.0,0.0
11616,82.0,3,50,0.0,0.0
11617,82.0,2,50,1.0,0.0
11618,82.0,0,50,2.0,0.0
11619,70.0,6,50,2.0,0.0
11620,58.0,58,50,3.0,0.0
11621,86.0,1,60,10.0,0.0
11622,93.0,1,60,0.0,0.0
11623,77.0,1,60,11.0,0.0
11624,69.0,0,60,11.0,0.0
11625,69.0,1,60,6.0,0.0
11626,81.0,0,60,6.0,0.0
11627,81.0,1,60,1.0,0.0
11628,74.0,1,60,12.0,0.0
11629,81.0,0,60,2.0,0.0
11630,53.0,0,60,5.0,0.0
11631,69.0,3,60,5.0,0.0
11632,69.0,0,60,2.0,0.0
11633,41.0,3,60,13.0,0.0
11634,29.0,49,60,14.0,0.0
11635,57.0,0,60,3.0,0.0
11636,91.0,3,60,0.0,0.0
11637,79.0,2,60,1.0,0.0
11638,67.0,0,60,2.0,0.0
11639,79.0,6,60,2.0,0.0
11640,55.0,49,60,3.0,0.0
11641,73.0,2,240,10.0,0.0
11642,89.0,2,60,0.0,0.0
11643,65.0,0,350,11.0,0.0
11644,77.0,3,350,11.0,0.0
11645,65.0,1,60,6.0,0.0
11646,77.0,0,60,6.0,0.0
11647,77.0,2,60,1.0,0.0
11648,61.0,4,240,12.0,0.0
11649,65.0,0,60,5.0,0.0
11650,77.0,0,60,2.0,0.0
11651,57.0,0,60,5.0,0.0
11652,65.0,6,60,2.0,0.0
11653,57.0,3,240,13.0,0.0
11654,53.0,49,60,3.0,0.0
11655,45.0,49,240,14.0,0.0
11656,88.0,3,60,0.0,0.0
11657,76.0,2,60,1.0,0.0
11658,76.0,6,60,2.0,0.0
11659,64.0,0,60,2.0,0.0
11660,52.0,49,60,3.0,0.0
11661,89.0,3,60,0.0,0.0
11662,77.0,2,60,1.0,0.0
11663,65.0,0,60,2.0,0.0
11664,77.0,6,60,2.0,0.0
11665,53.0,39,60,3.0,0.0
11666,88.0,3,50,0.0,0.0
11667,76.0,2,50,1.0,0.0
11668,64.0,4,50,2.0,0.0
11669,76.0,0,50,2.0,0.0
11670,52.0,3,50,3.0,0.0
11671,74.0,2,110,10.0,0.0
11672,86.0,3,60,0.0,0.0
11673,74.0,2,60,1.0,0.0
11674,62.0,4,110,12.0,0.0
11675,62.0,6,60,5.0,0.0
11676,62.0,0,60,2.0,0.0
11677,74.0,0,60,2.0,0.0
11678,58.0,2,110,13.0,0.0
11679,46.0,2,110,14.0,0.0
11680,50.0,38,60,3.0,0.0
11681,89.0,1,60,0.0,0.0
11682,77.0,2,60,1.0,0.0
11683,77.0,0,60,2.0,0.0
11684,65.0,6,60,2.0,0.0
11685,53.0,48,60,3.0,0.0
11686,77.0,1,60,10.0,0.0
11687,82.0,1,60,0.0,0.0
11688,74.0,2,60,11.0,0.0
11689,70.0,0,60,11.0,0.0
11690,82.0,1,60,1.0,0.0
11691,65.0,1,60,12.0,0.0
11692,82.0,0,60,2.0,0.0
11693,70.0,0,60,2.0,0.0
11694,70.0,3,60,5.0,0.0
11695,62.0,0,60,5.0,0.0
11696,53.0,3,60,13.0,0.0
11697,41.0,49,60,14.0,0.0
11698,58.0,0,60,3.0,0.0
11699,86.0,3,60,0.0,0.0
11700,86.0,0,60,1.0,0.0
11701,74.0,2,60,1.0,0.0
11702,74.0,0,60,2.0,0.0
11703,86.0,6,60,2.0,0.0
11704,62.0,48,60,3.0,0.0
11705,82.0,1,60,10.0,0.0
11706,89.0,1,60,0.0,0.0
11707,74.0,0,60,11.0,0.0
11708,70.0,2,60,11.0,0.0
11709,89.0,0,60,1.0,0.0
11710,77.0,1,60,1.0,0.0
11711,70.0,1,60,12.0,0.0
11712,77.0,3,60,2.0,0.0
11713,89.0,0,60,2.0,0.0
11714,50.0,3,60,13.0,0.0
11715,38.0,39,60,14.0,0.0
11716,65.0,0,60,3.0,0.0
11717,88.0,3,50,0.0,0.0
11718,88.0,2,50,1.0,0.0
11719,76.0,0,50,1.0,0.0
11720,88.0,0,50,2.0,0.0
11721,76.0,6,50,2.0,0.0
11722,64.0,59,50,3.0,0.0
11723,86.0,2,345,10.0,0.0
11724,86.0,3,60,0.0,0.0
11725,77.0,4,345,11.0,0.0
11726,69.0,0,345,11.0,0.0
11727,86.0,0,60,1.0,0.0
11728,74.0,1,60,1.0,0.0
11729,53.0,1,60,12.0,0.0
11730,69.0,0,350,5.0,0.0
11731,74.0,3,60,2.0,0.0
11732,86.0,0,60,2.0,0.0
11733,53.0,0,350,5.0,0.0
11734,41.0,3,60,13.0,0.0
11735,29.0,5,345,14.0,0.0
11736,62.0,49,60,3.0,0.0
11737,93.0,3,60,0.0,0.0
11738,81.0,2,60,1.0,0.0
11739,69.0,6,60,2.0,0.0
11740,81.0,0,60,2.0,0.0
11741,57.0,49,60,3.0,0.0
11742,89.0,3,60,0.0,0.0
11743,77.0,1,60,1.0,0.0
11744,57.0,1,60,12.0,0.0
11745,77.0,0,60,2.0,0.0
11746,65.0,3,60,2.0,0.0
11747,45.0,3,60,13.0,0.0
11748,53.0,49,60,3.0,0.0
11749,86.0,3,60,0.0,0.0
11750,74.0,2,60,1.0,0.0
11751,74.0,6,60,2.0,0.0
11752,62.0,0,60,2.0,0.0
11753,50.0,49,60,3.0,0.0
11754,81.0,3,60,0.0,0.0
11755,69.0,1,60,1.0,0.0
11756,62.0,1,60,12.0,0.0
11757,69.0,0,60,2.0,0.0
11758,57.0,3,60,2.0,0.0
11759,50.0,3,60,13.0,0.0
11760,57.0,33,60,3.0,0.0
11761,77.0,3,50,0.0,0.0
11762,65.0,2,50,1.0,0.0
11763,65.0,0,50,2.0,0.0
11764,53.0,1,50,2.0,0.0
11765,53.0,59,50,3.0,0.0
11766,74.0,2,345,10.0,0.0
11767,86.0,3,60,0.0,0.0
11768,70.0,0,345,11.0,0.0
11769,67.0,4,345,11.0,0.0
11770,86.0,1,60,1.0,0.0
11771,74.0,0,60,1.0,0.0
11772,55.0,1,60,12.0,0.0
11773,70.0,1,350,5.0,0.0
11774,86.0,3,60,2.0,0.0
11775,62.0,0,350,5.0,0.0
11776,74.0,0,60,2.0,0.0
11777,43.0,3,60,13.0,0.0
11778,31.0,5,345,14.0,0.0
11779,62.0,49,60,3.0,0.0
11780,94.0,3,60,0.0,0.0
11781,82.0,2,60,1.0,0.0
11782,70.0,6,60,2.0,0.0
11783,82.0,0,60,2.0,0.0
11784,58.0,49,60,3.0,0.0
11785,91.0,3,60,0.0,0.0
11786,79.0,1,60,1.0,0.0
11787,58.0,1,60,12.0,0.0
11788,67.0,0,60,2.0,0.0
11789,79.0,3,60,2.0,0.0
11790,46.0,3,60,13.0,0.0
11791,55.0,49,60,3.0,0.0
11792,86.0,3,60,0.0,0.0
11793,74.0,2,60,1.0,0.0
11794,74.0,0,60,2.0,0.0
11795,62.0,6,60,2.0,0.0
11796,50.0,49,60,3.0,0.0
11797,82.0,3,60,0.0,0.0
11798,70.0,1,60,1.0,0.0
11799,64.0,1,60,12.0,0.0
11800,58.0,3,60,2.0,0.0
11801,70.0,0,60,2.0,0.0
11802,52.0,3,60,13.0,0.0
11803,58.0,33,60,3.0,0.0
11804,79.0,3,50,0.0,0.0
11805,67.0,2,50,1.0,0.0
11806,67.0,0,50,2.0,0.0
11807,55.0,0,50,2.0,0.0
11808,55.0,39,50,3.0,0.0
11809,62.0,2,60,10.0,0.0
11810,77.0,3,40,0.0,0.0
11811,59.0,3,60,11.0,0.0
11812,65.0,2,40,1.0,0.0
11813,56.0,4,60,12.0,0.0
11814,65.0,0,60,12.0,0.0
11815,62.0,0,110,5.0,0.0
11816,65.0,0,110,5.0,0.0
11817,53.0,6,40,2.0,0.0
11818,65.0,0,40,2.0,0.0
11819,38.0,3,60,13.0,0.0
11820,53.0,8,40,3.0,0.0
11821,38.0,9,60,14.0,0.0
11822,79.0,3,40,0.0,0.0
11823,67.0,2,40,1.0,0.0
11824,67.0,6,40,2.0,0.0
11825,55.0,0,40,2.0,0.0
11826,55.0,19,40,3.0,0.0
11827,80.0,3,30,0.0,0.0
11828,68.0,2,30,1.0,0.0
11829,56.0,0,30,2.0,0.0
11830,68.0,6,30,2.0,0.0
11831,56.0,39,30,3.0,0.0
11832,67.0,2,585,10.0,0.0
11833,81.0,3,40,0.0,0.0
11834,61.0,3,585,11.0,0.0
11835,69.0,2,40,1.0,0.0
11836,64.0,1,585,12.0,0.0
11837,57.0,0,585,12.0,0.0
11838,57.0,0,585,5.0,0.0
11839,69.0,0,585,5.0,0.0
11840,57.0,6,40,2.0,0.0
11841,69.0,0,40,2.0,0.0
11842,45.0,2,585,13.0,0.0
11843,33.0,5,585,14.0,0.0
11844,57.0,29,40,3.0,0.0
11845,83.0,3,40,0.0,0.0
11846,71.0,2,40,1.0,0.0
11847,71.0,6,40,2.0,0.0
11848,59.0,0,40,2.0,0.0
11849,59.0,29,40,3.0,0.0
11850,85.0,3,40,0.0,0.0
11851,73.0,2,40,1.0,0.0
11852,73.0,0,40,2.0,0.0
11853,61.0,6,40,2.0,0.0
11854,61.0,29,40,3.0,0.0
11855,86.0,3,40,0.0,0.0
11856,74.0,2,40,1.0,0.0
11857,62.0,6,40,2.0,0.0
11858,74.0,0,40,2.0,0.0
11859,62.0,29,40,3.0,0.0
11860,87.0,3,40,0.0,0.0
11861,75.0,2,40,1.0,0.0
11862,75.0,0,40,2.0,0.0
11863,63.0,6,40,2.0,0.0
11864,63.0,29,40,3.0,0.0
11865,88.0,3,40,0.0,0.0
11866,76.0,2,40,1.0,0.0
11867,76.0,6,40,2.0,0.0
11868,64.0,0,40,2.0,0.0
11869,64.0,29,40,3.0,0.0
11870,89.0,3,40,0.0,0.0
11871,77.0,2,40,1.0,0.0
11872,77.0,6,40,2.0,0.0
11873,65.0,0,40,2.0,0.0
11874,65.0,29,40,3.0,0.0
11875,90.0,3,40,0.0,0.0
11876,78.0,2,40,1.0,0.0
11877,78.0,6,40,2.0,0.0
11878,66.0,0,40,2.0,0.0
11879,66.0,29,40,3.0,0.0
11880,91.0,3,40,0.0,0.0
11881,79.0,2,40,1.0,0.0
11882,67.0,6,40,2.0,0.0
11883,79.0,0,40,2.0,0.0
11884,67.0,29,40,3.0,0.0
11885,92.0,3,40,0.0,0.0
11886,80.0,2,40,1.0,0.0
11887,80.0,0,40,2.0,0.0
11888,68.0,6,40,2.0,0.0
11889,56.0,29,40,3.0,0.0
11890,93.0,3,40,0.0,0.0
11891,81.0,2,40,1.0,0.0
11892,81.0,6,40,2.0,0.0
11893,69.0,0,40,2.0,0.0
11894,57.0,29,40,3.0,0.0
11895,94.0,3,40,0.0,0.0
11896,82.0,2,40,1.0,0.0
11897,82.0,6,40,2.0,0.0
11898,70.0,0,40,2.0,0.0
11899,58.0,29,40,3.0,0.0
11900,83.0,3,40,0.0,0.0
11901,83.0,2,40,1.0,0.0
11902,83.0,6,40,2.0,0.0
11903,71.0,0,40,2.0,0.0
11904,59.0,29,40,3.0,0.0
11905,84.0,3,40,0.0,0.0
11906,84.0,2,40,1.0,0.0
11907,84.0,6,40,2.0,0.0
11908,72.0,0,40,2.0,0.0
11909,60.0,13,40,3.0,0.0
11910,85.0,3,30,0.0,0.0
11911,85.0,0,30,1.0,0.0
11912,85.0,0,30,2.0,0.0
11913,73.0,1,30,2.0,0.0
11914,61.0,38,30,3.0,0.0
11915,65.0,2,40,10.0,0.0
11916,86.0,2,60,0.0,0.0
11917,65.0,3,40,11.0,0.0
11918,77.0,1,60,6.0,0.0
11919,59.0,0,60,7.0,0.0
11920,68.0,0,60,7.0,0.0
11921,86.0,2,60,1.0,0.0
11922,65.0,0,60,4.0,0.0
11923,62.0,0,60,4.0,0.0
11924,53.0,16,40,12.0,0.0
11925,65.0,0,60,5.0,0.0
11926,62.0,0,60,5.0,0.0
11927,74.0,1,60,2.0,0.0
11928,86.0,0,60,2.0,0.0
11929,50.0,5,60,8.0,0.0
11930,50.0,1,105,13.0,0.0
11931,38.0,43,105,14.0,0.0
11932,62.0,8,60,3.0,0.0
11933,67.0,2,40,10.0,0.0
11934,67.0,3,40,11.0,0.0
11935,55.0,25,40,12.0,0.0
11936,68.0,2,30,10.0,0.0
11937,68.0,2,30,11.0,0.0
11938,56.0,2,30,12.0,0.0
11939,69.0,2,40,10.0,0.0
11940,93.0,0,480,0.0,0.0
11941,85.0,1,480,0.0,0.0
11942,69.0,3,40,11.0,0.0
11943,69.0,1,585,6.0,0.0
11944,81.0,0,585,6.0,0.0
11945,69.0,0,60,7.0,0.0
11946,57.0,3,60,7.0,0.0
11947,67.0,0,585,4.0,0.0
11948,73.0,0,480,1.0,0.0
11949,64.0,1,585,4.0,0.0
11950,81.0,1,480,1.0,0.0
11951,57.0,19,40,12.0,0.0
11952,69.0,0,585,5.0,0.0
11953,57.0,0,585,5.0,0.0
11954,73.0,0,585,2.0,0.0
11955,81.0,34,480,2.0,0.0
11956,45.0,13,60,8.0,0.0
11957,57.0,0,585,13.0,0.0
11958,57.0,0,585,3.0,0.0
11959,45.0,222,585,14.0,0.0
11960,45.0,0,585,3.0,0.0
11961,71.0,2,40,10.0,0.0
11962,71.0,3,40,11.0,0.0
11963,59.0,35,40,12.0,0.0
11964,73.0,2,40,10.0,0.0
11965,73.0,3,40,11.0,0.0
11966,61.0,35,40,12.0,0.0
11967,74.0,2,40,10.0,0.0
11968,74.0,3,40,11.0,0.0
11969,62.0,35,40,12.0,0.0
11970,75.0,2,40,10.0,0.0
11971,75.0,3,40,11.0,0.0
11972,63.0,35,40,12.0,0.0
11973,76.0,2,40,10.0,0.0
11974,76.0,3,40,11.0,0.0
11975,64.0,35,40,12.0,0.0
11976,77.0,2,40,10.0,0.0
11977,77.0,3,40,11.0,0.0
11978,65.0,35,40,12.0,0.0
11979,78.0,2,40,10.0,0.0
11980,78.0,3,40,11.0,0.0
11981,66.0,35,40,12.0,0.0
11982,79.0,2,40,10.0,0.0
11983,79.0,3,40,11.0,0.0
11984,67.0,35,40,12.0,0.0
11985,80.0,2,40,10.0,0.0
11986,80.0,3,40,11.0,0.0
11987,68.0,35,40,12.0,0.0
11988,81.0,2,40,10.0,0.0
11989,81.0,3,40,11.0,0.0
11990,69.0,35,40,12.0,0.0
11991,82.0,1,40,10.0,0.0
11992,82.0,2,40,11.0,0.0
11993,70.0,1,40,12.0,0.0
11994,83.0,2,40,10.0,0.0
11995,85.0,0,110,0.0,0.0
11996,79.0,1,110,0.0,0.0
11997,83.0,3,40,11.0,0.0
11998,85.0,0,110,1.0,0.0
11999,79.0,1,110,1.0,0.0
12000,71.0,35,40,12.0,0.0
12001,79.0,1,110,2.0,0.0
12002,84.0,2,40,10.0,0.0
12003,84.0,3,40,11.0,0.0
12004,72.0,23,40,12.0,0.0
12005,85.0,1,30,10.0,0.0
12006,85.0,2,30,11.0,0.0
12007,73.0,1,30,12.0,0.0
12008,86.0,1,225,10.0,0.0
12009,77.0,0,225,0.0,0.0
12010,86.0,1,225,0.0,0.0
12011,86.0,1,225,11.0,0.0
12012,65.0,1,225,6.0,0.0
12013,69.0,0,225,6.0,0.0
12014,62.0,1,225,4.0,0.0
12015,65.0,0,225,4.0,0.0
12016,77.0,0,225,1.0,0.0
12017,86.0,0,225,1.0,0.0
12018,65.0,0,225,12.0,0.0
12019,69.0,1,225,12.0,0.0
12020,57.0,0,225,5.0,0.0
12021,74.0,6,225,2.0,0.0
12022,77.0,0,225,2.0,0.0
12023,69.0,0,225,5.0,0.0
12024,50.0,3,210,13.0,0.0
12025,50.0,0,225,3.0,0.0
12026,38.0,63,225,3.0,0.0
12027,38.0,3,210,14.0,0.0
12028,81.0,1,60,10.0,0.0
12029,77.0,1,60,0.0,0.0
12030,86.0,0,60,0.0,0.0
12031,69.0,1,60,11.0,0.0
12032,65.0,0,60,6.0,0.0
12033,69.0,1,60,6.0,0.0
12034,65.0,0,60,4.0,0.0
12035,62.0,1,60,4.0,0.0
12036,77.0,0,60,1.0,0.0
12037,86.0,0,60,1.0,0.0
12038,62.0,0,60,12.0,0.0
12039,65.0,1,60,12.0,0.0
12040,77.0,0,60,2.0,0.0
12041,74.0,3,60,2.0,0.0
12042,57.0,0,60,5.0,0.0
12043,69.0,0,60,5.0,0.0
12044,53.0,3,60,13.0,0.0
12045,41.0,273,60,3.0,0.0
12046,53.0,0,60,3.0,0.0
12047,41.0,0,60,14.0,0.0
12048,77.0,1,225,10.0,0.0
12049,86.0,0,225,0.0,0.0
12050,77.0,1,225,0.0,0.0
12051,65.0,1,225,11.0,0.0
12052,69.0,0,225,6.0,0.0
12053,65.0,1,225,6.0,0.0
12054,62.0,0,225,4.0,0.0
12055,86.0,1,225,1.0,0.0
12056,77.0,0,225,1.0,0.0
12057,65.0,0,225,4.0,0.0
12058,62.0,0,225,12.0,0.0
12059,65.0,1,225,12.0,0.0
12060,69.0,0,225,5.0,0.0
12061,74.0,3,225,2.0,0.0
12062,77.0,0,225,2.0,0.0
12063,57.0,0,225,5.0,0.0
12064,57.0,3,225,13.0,0.0
12065,45.0,63,225,3.0,0.0
12066,57.0,0,225,3.0,0.0
12067,45.0,0,225,14.0,0.0
12068,74.0,1,60,10.0,0.0
12069,77.0,0,60,0.0,0.0
12070,86.0,1,60,0.0,0.0
12071,62.0,1,60,11.0,0.0
12072,65.0,1,60,6.0,0.0
12073,69.0,0,60,6.0,0.0
12074,77.0,1,60,1.0,0.0
12075,65.0,0,60,4.0,0.0
12076,62.0,0,60,4.0,0.0
12077,86.0,0,60,1.0,0.0
12078,62.0,0,60,12.0,0.0
12079,65.0,1,60,12.0,0.0
12080,69.0,3,60,5.0,0.0
12081,74.0,0,60,2.0,0.0
12082,77.0,0,60,2.0,0.0
12083,57.0,0,60,5.0,0.0
12084,62.0,3,60,13.0,0.0
12085,50.0,0,60,3.0,0.0
12086,50.0,0,60,14.0,0.0
12087,62.0,273,60,3.0,0.0
12088,89.0,1,225,10.0,0.0
12089,86.0,0,225,0.0,0.0
12090,77.0,1,225,0.0,0.0
12091,77.0,1,225,11.0,0.0
12092,69.0,1,225,6.0,0.0
12093,65.0,0,225,6.0,0.0
12094,62.0,0,225,4.0,0.0
12095,65.0,0,225,4.0,0.0
12096,77.0,1,225,1.0,0.0
12097,86.0,0,225,1.0,0.0
12098,69.0,0,225,12.0,0.0
12099,65.0,1,225,12.0,0.0
12100,77.0,0,225,2.0,0.0
12101,74.0,3,225,2.0,0.0
12102,57.0,0,225,5.0,0.0
12103,69.0,0,225,5.0,0.0
12104,38.0,3,225,13.0,0.0
12105,38.0,0,225,3.0,0.0
12106,26.0,63,225,14.0,0.0
12107,50.0,0,225,3.0,0.0
12108,86.0,1,60,10.0,0.0
12109,86.0,0,60,0.0,0.0
12110,77.0,1,60,0.0,0.0
12111,74.0,1,60,11.0,0.0
12112,69.0,1,60,6.0,0.0
12113,65.0,0,60,6.0,0.0
12114,65.0,1,60,4.0,0.0
12115,62.0,0,60,4.0,0.0
12116,86.0,0,60,1.0,0.0
12117,77.0,0,60,1.0,0.0
12118,62.0,0,60,12.0,0.0
12119,65.0,1,60,12.0,0.0
12120,77.0,0,60,2.0,0.0
12121,74.0,0,60,2.0,0.0
12122,69.0,0,60,5.0,0.0
12123,57.0,3,60,5.0,0.0
12124,41.0,3,60,13.0,0.0
12125,29.0,0,60,14.0,0.0
12126,53.0,108,60,3.0,0.0
12127,41.0,0,60,3.0,0.0
12128,81.0,1,60,10.0,0.0
12129,77.0,1,60,0.0,0.0
12130,86.0,0,60,0.0,0.0
12131,69.0,1,60,11.0,0.0
12132,65.0,0,60,6.0,0.0
12133,69.0,1,60,6.0,0.0
12134,77.0,0,60,1.0,0.0
12135,86.0,0,60,1.0,0.0
12136,65.0,1,60,4.0,0.0
12137,62.0,0,60,4.0,0.0
12138,65.0,0,60,12.0,0.0
12139,62.0,1,60,12.0,0.0
12140,69.0,0,60,5.0,0.0
12141,74.0,0,60,2.0,0.0
12142,77.0,0,60,2.0,0.0
12143,57.0,3,60,5.0,0.0
12144,45.0,3,60,13.0,0.0
12145,45.0,0,60,3.0,0.0
12146,57.0,108,60,3.0,0.0
12147,33.0,0,60,14.0,0.0
12148,77.0,1,60,10.0,0.0
12149,77.0,1,60,0.0,0.0
12150,86.0,0,60,0.0,0.0
12151,65.0,1,60,11.0,0.0
12152,69.0,0,60,6.0,0.0
12153,65.0,1,60,6.0,0.0
12154,77.0,0,60,1.0,0.0
12155,65.0,1,60,4.0,0.0
12156,62.0,0,60,4.0,0.0
12157,86.0,0,60,1.0,0.0
12158,62.0,1,60,12.0,0.0
12159,65.0,0,60,12.0,0.0
12160,77.0,0,60,2.0,0.0
12161,74.0,3,60,2.0,0.0
12162,57.0,0,60,5.0,0.0
12163,69.0,0,60,5.0,0.0
12164,50.0,3,60,13.0,0.0
12165,62.0,108,60,3.0,0.0
12166,50.0,0,60,3.0,0.0
12167,38.0,0,60,14.0,0.0
12168,74.0,1,60,10.0,0.0
12169,86.0,1,60,0.0,0.0
12170,77.0,0,60,0.0,0.0
12171,62.0,1,60,11.0,0.0
12172,65.0,1,60,6.0,0.0
12173,69.0,0,60,6.0,0.0
12174,77.0,0,60,1.0,0.0
12175,65.0,0,60,4.0,0.0
12176,62.0,1,60,4.0,0.0
12177,86.0,0,60,1.0,0.0
12178,62.0,1,60,12.0,0.0
12179,65.0,0,60,12.0,0.0
12180,77.0,0,60,2.0,0.0
12181,57.0,0,60,5.0,0.0
12182,69.0,3,60,5.0,0.0
12183,74.0,0,60,2.0,0.0
12184,53.0,3,60,13.0,0.0
12185,53.0,0,60,3.0,0.0
12186,41.0,108,60,14.0,0.0
12187,69.0,1,60,10.0,0.0
12188,86.0,0,60,0.0,0.0
12189,77.0,1,60,0.0,0.0
12190,57.0,1,60,11.0,0.0
12191,69.0,0,60,6.0,0.0
12192,65.0,1,60,6.0,0.0
12193,77.0,1,60,1.0,0.0
12194,86.0,0,60,1.0,0.0
12195,62.0,0,60,4.0,0.0
12196,65.0,0,60,4.0,0.0
12197,65.0,1,60,12.0,0.0
12198,62.0,0,60,12.0,0.0
12199,57.0,0,60,5.0,0.0
12200,69.0,0,60,5.0,0.0
12201,77.0,0,60,2.0,0.0
12202,74.0,3,60,2.0,0.0
12203,57.0,3,60,13.0,0.0
12204,45.0,108,60,14.0,0.0
12205,57.0,0,60,3.0,0.0
12206,77.0,0,60,10.0,0.0
12207,62.0,0,60,10.0,0.0
12208,86.0,1,60,10.0,0.0
12209,77.0,0,60,0.0,0.0
12210,86.0,1,60,0.0,0.0
12211,77.0,0,60,11.0,0.0
12212,62.0,1,60,11.0,0.0
12213,69.0,0,60,11.0,0.0
12214,69.0,1,60,6.0,0.0
12215,77.0,0,60,6.0,0.0
12216,62.0,8,360,4.0,0.0
12217,77.0,1,60,1.0,0.0
12218,86.0,0,60,1.0,0.0
12219,65.0,1,60,12.0,0.0
12220,62.0,0,60,12.0,0.0
12221,74.0,0,60,2.0,0.0
12222,77.0,0,60,2.0,0.0
12223,65.0,3,60,5.0,0.0
12224,62.0,0,60,5.0,0.0
12225,50.0,3,60,13.0,0.0
12226,50.0,48,360,3.0,0.0
12227,38.0,292,60,14.0,0.0
12228,62.0,2,60,10.0,0.0
12229,62.0,3,60,11.0,0.0
12230,65.0,2,720,4.0,0.0
12231,57.0,0,60,12.0,0.0
12232,53.0,4,60,12.0,0.0
12233,53.0,0,720,5.0,0.0
12234,65.0,6,720,5.0,0.0
12235,62.0,3,60,13.0,0.0
12236,53.0,48,720,3.0,0.0
12237,50.0,348,60,14.0,0.0
12238,77.0,0,60,10.0,0.0
12239,86.0,1,60,10.0,0.0
12240,62.0,0,60,10.0,0.0
12241,80.0,0,60,0.0,0.0
12242,86.0,1,60,0.0,0.0
12243,68.0,1,60,11.0,0.0
12244,77.0,0,60,11.0,0.0
12245,77.0,0,60,6.0,0.0
12246,65.0,1,60,6.0,0.0
12247,68.0,1,60,1.0,0.0
12248,74.0,0,60,1.0,0.0
12249,62.0,0,60,12.0,0.0
12250,56.0,1,60,12.0,0.0
12251,77.0,0,60,2.0,0.0
12252,68.0,3,60,2.0,0.0
12253,47.0,3,60,13.0,0.0
12254,35.0,292,60,14.0,0.0
12255,62.0,2,60,10.0,0.0
12256,62.0,3,60,11.0,0.0
12257,68.0,2,345,4.0,0.0
12258,65.0,4,60,12.0,0.0
12259,56.0,0,60,12.0,0.0
12260,68.0,21,345,5.0,0.0
12261,56.0,0,345,5.0,0.0
12262,59.0,3,60,13.0,0.0
12263,56.0,18,360,3.0,0.0
12264,47.0,277,60,14.0,0.0
12265,89.0,2,240,10.0,0.0
12266,81.0,0,705,0.0,0.0
12267,89.0,1,705,0.0,0.0
12268,77.0,8,240,11.0,0.0
12269,69.0,0,480,6.0,0.0
12270,77.0,1,480,6.0,0.0
12271,69.0,0,705,1.0,0.0
12272,65.0,0,480,7.0,0.0
12273,57.0,7,480,7.0,0.0
12274,48.0,0,705,4.0,0.0
12275,60.0,0,705,4.0,0.0
12276,77.0,2,705,1.0,0.0
12277,53.0,0,60,12.0,0.0
12278,57.0,4,60,12.0,0.0
12279,69.0,1,705,2.0,0.0
12280,72.0,0,705,2.0,0.0
12281,65.0,0,705,5.0,0.0
12282,69.0,0,705,5.0,0.0
12283,48.0,5,705,8.0,0.0
12284,36.0,3,60,13.0,0.0
12285,48.0,0,60,13.0,0.0
12286,36.0,0,705,14.0,0.0
12287,24.0,8,705,3.0,0.0
12288,36.0,0,705,3.0,0.0
12289,48.0,0,705,3.0,0.0
12290,48.0,20,0,15.0,0.0
12291,36.0,0,120,13.0,0.0
12292,48.0,19,1,15.0,0.0
12293,48.0,17,3,15.0,0.0
12294,48.0,19,1,15.0,0.0
12295,48.0,14,1,15.0,0.0
12296,53.0,0,0,12.0,0.0
12297,57.0,4,0,12.0,0.0
12298,48.0,1,0,13.0,0.0
12299,48.0,20,0,15.0,0.0
12300,48.0,7,3,15.0,0.0
12301,84.0,2,120,10.0,0.0
12302,72.0,5,120,11.0,0.0
12303,48.0,22,20,15.0,0.0
12304,48.0,13,20,15.0,0.0
12305,53.0,4,0,12.0,0.0
12306,36.0,3,0,13.0,0.0
12307,48.0,18,2,15.0,0.0
12308,48.0,9,20,15.0,0.0
12309,48.0,58,16,15.0,0.0
12310,48.0,54,120,15.0,0.0
12311,57.0,4,0,12.0,0.0
12312,48.0,0,0,13.0,0.0
12313,81.0,2,165,10.0,0.0
12314,69.0,18,165,11.0,0.0
12315,53.0,0,0,12.0,0.0
12316,36.0,0,0,13.0,0.0
12317,48.0,96,0,13.0,0.0
12318,79.0,1,45,10.0,0.0
12319,67.0,2,45,11.0,0.0
12320,53.0,0,0,12.0,0.0
12321,57.0,4,0,12.0,0.0
12322,36.0,0,60,13.0,0.0
12323,48.0,36,0,13.0,0.0
12324,77.0,2,240,10.0,0.0
12325,81.0,3,705,0.0,0.0
12326,89.0,0,705,0.0,0.0
12327,65.0,11,240,11.0,0.0
12328,72.0,1,480,6.0,0.0
12329,69.0,0,480,6.0,0.0
12330,65.0,7,480,7.0,0.0
12331,51.0,0,705,4.0,0.0
12332,63.0,0,705,4.0,0.0
12333,57.0,0,480,7.0,0.0
12334,69.0,2,705,1.0,0.0
12335,77.0,0,705,1.0,0.0
12336,57.0,0,60,12.0,0.0
12337,69.0,0,705,2.0,0.0
12338,72.0,0,705,2.0,0.0
12339,69.0,0,705,5.0,0.0
12340,65.0,1,705,5.0,0.0
12341,51.0,5,705,8.0,0.0
12342,48.0,24,0,13.0,0.0
12343,27.0,0,705,3.0,0.0
12344,51.0,0,705,3.0,0.0
12345,39.0,8,705,14.0,0.0
12346,39.0,0,705,3.0,0.0
12347,48.0,19,1,15.0,0.0
12348,60.0,4,0,12.0,0.0
12349,51.0,0,0,13.0,0.0
12350,48.0,0,120,13.0,0.0
12351,48.0,20,0,15.0,0.0
12352,48.0,19,1,15.0,0.0
12353,48.0,19,1,15.0,0.0
12354,48.0,20,0,15.0,0.0
12355,57.0,0,0,12.0,0.0
12356,60.0,4,0,12.0,0.0
12357,51.0,4,0,13.0,0.0
12358,48.0,19,1,15.0,0.0
12359,48.0,19,1,15.0,0.0
12360,72.0,2,120,10.0,0.0
12361,60.0,6,120,11.0,0.0
12362,48.0,18,2,15.0,0.0
12363,48.0,13,2,15.0,0.0
12364,60.0,4,0,12.0,0.0
12365,48.0,0,0,13.0,0.0
12366,51.0,1,0,13.0,0.0
12367,48.0,21,20,15.0,0.0
12368,48.0,8,20,15.0,0.0
12369,48.0,57,16,15.0,0.0
12370,48.0,54,120,15.0,0.0
12371,57.0,4,0,12.0,0.0
12372,60.0,0,0,12.0,0.0
12373,93.0,2,85,10.0,0.0
12374,81.0,98,85,11.0,0.0
12375,57.0,4,0,12.0,0.0
12376,48.0,0,0,13.0,0.0
12377,51.0,16,0,13.0,0.0
12378,91.0,2,85,10.0,0.0
12379,79.0,19,85,11.0,0.0
12380,60.0,4,0,12.0,0.0
12381,57.0,4,60,12.0,0.0
12382,51.0,0,0,13.0,0.0
12383,48.0,16,0,13.0,0.0
12384,90.0,2,240,10.0,0.0
12385,81.0,1,705,0.0,0.0
12386,90.0,0,705,0.0,0.0
12387,78.0,11,240,11.0,0.0
12388,69.0,8,480,6.0,0.0
12389,75.0,0,480,6.0,0.0
12390,69.0,3,345,7.0,0.0
12391,69.0,0,705,1.0,0.0
12392,63.0,0,705,4.0,0.0
12393,63.0,2,705,7.0,0.0
12394,60.0,0,705,4.0,0.0
12395,78.0,0,705,1.0,0.0
12396,69.0,0,60,12.0,0.0
12397,66.0,4,60,12.0,0.0
12398,78.0,1,705,2.0,0.0
12399,69.0,0,705,5.0,0.0
12400,75.0,0,705,2.0,0.0
12401,66.0,0,705,5.0,0.0
12402,60.0,5,705,8.0,0.0
12403,60.0,4,60,13.0,0.0
12404,51.0,0,60,13.0,0.0
12405,48.0,0,705,3.0,0.0
12406,48.0,0,705,14.0,0.0
12407,60.0,0,705,3.0,0.0
12408,36.0,8,705,3.0,0.0
12409,48.0,19,1,15.0,0.0
12410,48.0,20,20,15.0,0.0
12411,69.0,0,120,12.0,0.0
12412,51.0,0,120,13.0,0.0
12413,48.0,19,1,15.0,0.0
12414,48.0,19,1,15.0,0.0
12415,48.0,20,20,15.0,0.0
12416,48.0,12,20,15.0,0.0
12417,66.0,4,0,12.0,0.0
12418,69.0,4,120,12.0,0.0
12419,60.0,4,0,13.0,0.0
12420,51.0,1,120,13.0,0.0
12421,48.0,19,1,15.0,0.0
12422,48.0,19,1,15.0,0.0
12423,87.0,2,120,10.0,0.0
12424,75.0,6,120,11.0,0.0
12425,48.0,18,2,15.0,0.0
12426,48.0,13,2,15.0,0.0
12427,66.0,4,120,12.0,0.0
12428,69.0,0,120,12.0,0.0
12429,48.0,18,20,15.0,0.0
12430,48.0,8,20,15.0,0.0
12431,48.0,57,16,15.0,0.0
12432,66.0,0,345,7.0,0.0
12433,48.0,54,120,15.0,0.0
12434,69.0,0,120,12.0,0.0
12435,66.0,4,120,12.0,0.0
12436,60.0,0,0,13.0,0.0
12437,51.0,54,0,13.0,0.0
12438,86.0,2,165,10.0,0.0
12439,74.0,18,165,11.0,0.0
12440,69.0,0,120,12.0,0.0
12441,51.0,96,0,13.0,0.0
12442,60.0,0,0,13.0,0.0
12443,84.0,1,45,10.0,0.0
12444,72.0,2,45,11.0,0.0
12445,66.0,4,0,12.0,0.0
12446,69.0,0,60,12.0,0.0
12447,60.0,0,0,13.0,0.0
12448,51.0,0,60,13.0,0.0
12449,82.0,2,240,10.0,0.0
12450,91.0,3,345,0.0,0.0
12451,82.0,0,345,0.0,0.0
12452,70.0,8,240,11.0,0.0
12453,36.0,0,345,4.0,0.0
12454,70.0,0,345,1.0,0.0
12455,79.0,0,345,1.0,0.0
12456,48.0,0,345,4.0,0.0
12457,67.0,0,345,7.0,0.0
12458,62.0,2,345,7.0,0.0
12459,70.0,0,345,5.0,0.0
12460,67.0,0,345,5.0,0.0
12461,74.0,0,345,2.0,0.0
12462,79.0,1,345,2.0,0.0
12463,58.0,0,345,8.0,0.0
12464,55.0,0,60,13.0,0.0
12465,48.0,2,60,13.0,0.0
12466,48.0,21,20,15.0,0.0
12467,36.0,0,345,3.0,0.0
12468,36.0,0,345,14.0,0.0
12469,48.0,0,345,3.0,0.0
12470,24.0,3,345,3.0,0.0
12471,48.0,13,1,15.0,0.0
12472,70.0,4,0,12.0,0.0
12473,62.0,0,0,12.0,0.0
12474,48.0,0,120,13.0,0.0
12475,48.0,20,20,15.0,0.0
12476,48.0,20,0,15.0,0.0
12477,48.0,18,2,15.0,0.0
12478,48.0,21,20,15.0,0.0
12479,70.0,0,120,12.0,0.0
12480,55.0,2,0,13.0,0.0
12481,48.0,21,20,15.0,0.0
12482,48.0,7,3,15.0,0.0
12483,74.0,2,120,10.0,0.0
12484,62.0,3,120,11.0,0.0
12485,48.0,21,20,15.0,0.0
12486,48.0,13,2,15.0,0.0
12487,62.0,4,0,12.0,0.0
12488,70.0,4,60,12.0,0.0
12489,48.0,1,0,13.0,0.0
12490,55.0,0,0,13.0,0.0
12491,48.0,16,20,15.0,0.0
12492,48.0,5,1,15.0,0.0
12493,83.0,3,240,0.0,0.0
12494,92.0,3,345,0.0,0.0
12495,80.0,0,345,1.0,0.0
12496,36.0,0,345,4.0,0.0
12497,48.0,0,345,4.0,0.0
12498,71.0,9,240,1.0,0.0
12499,62.0,0,345,7.0,0.0
12500,68.0,0,345,7.0,0.0
12501,74.0,0,345,2.0,0.0
12502,68.0,0,345,5.0,0.0
12503,62.0,0,345,5.0,0.0
12504,80.0,1,345,2.0,0.0
12505,59.0,5,345,8.0,0.0
12506,56.0,0,60,13.0,0.0
12507,24.0,0,345,3.0,0.0
12508,48.0,0,345,3.0,0.0
12509,36.0,8,345,14.0,0.0
12510,36.0,0,345,3.0,0.0
12511,48.0,17,3,15.0,0.0
12512,62.0,4,0,12.0,0.0
12513,71.0,0,0,12.0,0.0
12514,48.0,17,3,15.0,0.0
12515,48.0,17,3,15.0,0.0
12516,79.0,2,60,10.0,0.0
12517,67.0,3,60,11.0,0.0
12518,48.0,19,1,15.0,0.0
12519,71.0,4,0,12.0,0.0
12520,48.0,3,0,13.0,0.0
12521,56.0,0,0,13.0,0.0
12522,48.0,20,0,15.0,0.0
12523,48.0,18,2,15.0,0.0
12524,77.0,2,60,10.0,0.0
12525,89.0,0,105,0.0,0.0
12526,65.0,1,60,11.0,0.0
12527,65.0,0,60,6.0,0.0
12528,77.0,2,60,6.0,0.0
12529,77.0,2,105,1.0,0.0
12530,48.0,19,1,15.0,0.0
12531,48.0,19,1,15.0,0.0
12532,62.0,4,0,12.0,0.0
12533,71.0,0,0,12.0,0.0
12534,56.0,0,0,13.0,0.0
12535,48.0,4,0,13.0,0.0
12536,48.0,19,1,15.0,0.0
12537,48.0,14,1,15.0,0.0
12538,48.0,1,16,15.0,0.0
12539,76.0,1,60,10.0,0.0
12540,88.0,0,60,0.0,0.0
12541,91.0,1,60,0.0,0.0
12542,64.0,1,60,11.0,0.0
12543,72.0,0,60,11.0,0.0
12544,55.0,0,60,11.0,0.0
12545,60.0,0,60,6.0,0.0
12546,72.0,1,60,6.0,0.0
12547,79.0,0,60,1.0,0.0
12548,76.0,0,60,1.0,0.0
12549,64.0,0,60,7.0,0.0
12550,67.0,1,60,7.0,0.0
12551,36.0,0,60,4.0,0.0
12552,48.0,0,60,4.0,0.0
12553,64.0,1,60,12.0,0.0
12554,72.0,0,60,12.0,0.0
12555,76.0,1,60,2.0,0.0
12556,79.0,0,60,2.0,0.0
12557,64.0,0,60,5.0,0.0
12558,67.0,0,60,5.0,0.0
12559,60.0,2,60,8.0,0.0
12560,55.0,0,60,13.0,0.0
12561,48.0,0,0,13.0,0.0
12562,48.0,85,120,15.0,0.0
12563,36.0,0,60,3.0,0.0
12564,24.0,59,60,3.0,0.0
12565,36.0,0,60,14.0,0.0
12566,48.0,0,60,3.0,0.0
12567,71.0,2,36,10.0,0.0
12568,71.0,3,36,11.0,0.0
12569,59.0,4,36,12.0,0.0
12570,59.0,51,36,13.0,0.0
12571,72.0,2,36,10.0,0.0
12572,72.0,3,36,11.0,0.0
12573,60.0,4,36,12.0,0.0
12574,60.0,51,36,13.0,0.0
12575,76.0,2,36,10.0,0.0
12576,76.0,3,36,11.0,0.0
12577,64.0,4,36,12.0,0.0
12578,64.0,87,36,13.0,0.0
12579,79.0,2,72,10.0,0.0
12580,79.0,3,585,0.0,0.0
12581,79.0,3,72,11.0,0.0
12582,67.0,2,590,4.0,0.0
12583,79.0,2,585,1.0,0.0
12584,67.0,0,585,1.0,0.0
12585,67.0,4,72,12.0,0.0
12586,67.0,40,590,5.0,0.0
12587,79.0,3,585,2.0,0.0
12588,67.0,135,72,13.0,0.0
12589,59.0,2,36,10.0,0.0
12590,59.0,3,36,11.0,0.0
12591,47.0,4,36,12.0,0.0
12592,47.0,51,36,13.0,0.0
12593,60.0,2,36,10.0,0.0
12594,60.0,3,36,11.0,0.0
12595,48.0,4,36,12.0,0.0
12596,48.0,51,36,13.0,0.0
12597,64.0,2,36,10.0,0.0
12598,64.0,3,36,11.0,0.0
12599,52.0,4,36,12.0,0.0
12600,52.0,87,36,13.0,0.0
12601,67.0,2,72,10.0,0.0
12602,67.0,3,72,11.0,0.0
12603,55.0,4,72,12.0,0.0
12604,56.0,1,470,5.0,0.0
12605,68.0,3,465,2.0,0.0
12606,55.0,135,72,13.0,0.0
12607,56.0,39,465,3.0,0.0
12608,60.0,2,36,10.0,0.0
12609,60.0,3,36,11.0,0.0
12610,48.0,4,36,12.0,0.0
12611,36.0,1,36,13.0,0.0
12612,61.0,2,36,10.0,0.0
12613,77.0,3,120,0.0,0.0
12614,61.0,3,36,11.0,0.0
12615,65.0,2,230,4.0,0.0
12616,77.0,0,120,1.0,0.0
12617,65.0,2,120,1.0,0.0
12618,49.0,4,36,12.0,0.0
12619,77.0,30,120,2.0,0.0
12620,65.0,0,120,5.0,0.0
12621,37.0,51,36,13.0,0.0
12622,65.0,2,36,10.0,0.0
12623,65.0,3,36,11.0,0.0
12624,53.0,4,36,12.0,0.0
12625,41.0,16,36,13.0,0.0
12626,68.0,2,36,10.0,0.0
12627,83.0,3,60,0.0,0.0
12628,68.0,3,36,11.0,0.0
12629,71.0,0,60,1.0,0.0
12630,83.0,2,60,1.0,0.0
12631,56.0,4,36,12.0,0.0
12632,71.0,0,110,5.0,0.0
12633,83.0,30,60,2.0,0.0
12634,44.0,16,36,13.0,0.0
12635,61.0,2,36,10.0,0.0
12636,61.0,3,36,11.0,0.0
12637,49.0,4,36,12.0,0.0
12638,37.0,6,36,13.0,0.0
12639,62.0,2,36,10.0,0.0
12640,82.0,3,60,0.0,0.0
12641,62.0,3,36,11.0,0.0
12642,65.0,0,60,4.0,0.0
12643,82.0,2,60,1.0,0.0
12644,70.0,0,60,1.0,0.0
12645,50.0,4,36,12.0,0.0
12646,53.0,0,60,5.0,0.0
12647,70.0,0,60,5.0,0.0
12648,65.0,0,60,2.0,0.0
12649,82.0,6,60,2.0,0.0
12650,38.0,16,36,13.0,0.0
12651,53.0,24,60,3.0,0.0
12652,65.0,2,36,10.0,0.0
12653,65.0,3,36,11.0,0.0
12654,53.0,4,36,12.0,0.0
12655,41.0,51,36,13.0,0.0
12656,70.0,2,36,10.0,0.0
12657,80.0,3,240,0.0,0.0
12658,70.0,3,36,11.0,0.0
12659,58.0,0,240,4.0,0.0
12660,68.0,2,240,1.0,0.0
12661,80.0,0,240,1.0,0.0
12662,68.0,0,240,4.0,0.0
12663,58.0,4,36,12.0,0.0
12664,68.0,30,240,5.0,0.0
12665,80.0,0,240,2.0,0.0
12666,70.0,6,225,2.0,0.0
12667,46.0,51,36,13.0,0.0
12668,58.0,4,225,3.0,0.0
12669,62.0,2,36,10.0,0.0
12670,62.0,3,36,11.0,0.0
12671,50.0,4,36,12.0,0.0
12672,38.0,51,36,13.0,0.0
12673,63.0,2,36,10.0,0.0
12674,63.0,3,36,11.0,0.0
12675,51.0,4,36,12.0,0.0
12676,39.0,51,36,13.0,0.0
12677,67.0,2,36,10.0,0.0
12678,67.0,3,36,11.0,0.0
12679,55.0,4,36,12.0,0.0
12680,43.0,6,36,13.0,0.0
12681,70.0,2,36,10.0,0.0
12682,79.0,3,120,0.0,0.0
12683,70.0,3,36,11.0,0.0
12684,67.0,2,120,1.0,0.0
12685,67.0,2,60,4.0,0.0
12686,51.0,0,60,4.0,0.0
12687,79.0,0,120,1.0,0.0
12688,58.0,4,36,12.0,0.0
12689,79.0,30,120,2.0,0.0
12690,63.0,6,60,2.0,0.0
12691,67.0,0,60,5.0,0.0
12692,46.0,19,36,13.0,0.0
12693,51.0,24,60,3.0,0.0
12694,62.0,2,36,10.0,0.0
12695,62.0,3,36,11.0,0.0
12696,50.0,4,36,12.0,0.0
12697,50.0,16,36,13.0,0.0
12698,63.0,2,36,10.0,0.0
12699,63.0,3,36,11.0,0.0
12700,51.0,4,36,12.0,0.0
12701,51.0,51,36,13.0,0.0
12702,67.0,2,36,10.0,0.0
12703,67.0,3,36,11.0,0.0
12704,55.0,4,36,12.0,0.0
12705,55.0,87,36,13.0,0.0
12706,70.0,2,72,10.0,0.0
12707,70.0,3,72,11.0,0.0
12708,58.0,78,350,4.0,0.0
12709,58.0,4,72,12.0,0.0
12710,70.0,5,585,2.0,0.0
12711,70.0,1,590,5.0,0.0
12712,58.0,135,72,13.0,0.0
12713,58.0,39,585,3.0,0.0
12714,74.0,2,36,10.0,0.0
12715,62.0,3,36,11.0,0.0
12716,62.0,55,36,12.0,0.0
12717,75.0,2,36,10.0,0.0
12718,63.0,3,36,11.0,0.0
12719,63.0,55,36,12.0,0.0
12720,79.0,2,36,10.0,0.0
12721,67.0,3,36,11.0,0.0
12722,67.0,13,36,12.0,0.0
12723,83.0,2,72,10.0,0.0
12724,83.0,3,465,0.0,0.0
12725,71.0,3,72,11.0,0.0
12726,71.0,0,465,1.0,0.0
12727,59.0,12,350,4.0,0.0
12728,83.0,7,465,1.0,0.0
12729,71.0,139,72,12.0,0.0
12730,63.0,2,36,10.0,0.0
12731,63.0,3,36,11.0,0.0
12732,51.0,4,36,12.0,0.0
12733,39.0,6,36,13.0,0.0
12734,64.0,2,36,10.0,0.0
12735,64.0,3,36,11.0,0.0
12736,52.0,4,36,12.0,0.0
12737,68.0,6,120,2.0,0.0
12738,68.0,40,230,5.0,0.0
12739,40.0,51,36,13.0,0.0
12740,56.0,24,120,3.0,0.0
12741,68.0,2,36,10.0,0.0
12742,68.0,3,36,11.0,0.0
12743,56.0,4,36,12.0,0.0
12744,44.0,9,36,13.0,0.0
12745,71.0,2,36,10.0,0.0
12746,71.0,3,36,11.0,0.0
12747,62.0,2,60,4.0,0.0
12748,59.0,4,36,12.0,0.0
12749,74.0,6,60,2.0,0.0
12750,47.0,19,36,13.0,0.0
12751,62.0,24,60,3.0,0.0
12752,64.0,2,36,10.0,0.0
12753,64.0,3,36,11.0,0.0
12754,52.0,4,36,12.0,0.0
12755,40.0,1,36,13.0,0.0
12756,65.0,2,36,10.0,0.0
12757,80.0,3,60,0.0,0.0
12758,65.0,3,36,11.0,0.0
12759,61.0,2,60,4.0,0.0
12760,80.0,0,60,1.0,0.0
12761,68.0,0,60,1.0,0.0
12762,53.0,4,36,12.0,0.0
12763,68.0,0,60,5.0,0.0
12764,73.0,6,60,2.0,0.0
12765,41.0,16,36,13.0,0.0
12766,61.0,24,60,3.0,0.0
12767,68.0,2,36,10.0,0.0
12768,68.0,3,36,11.0,0.0
12769,56.0,4,36,12.0,0.0
12770,44.0,51,36,13.0,0.0
12771,73.0,2,36,10.0,0.0
12772,85.0,3,225,0.0,0.0
12773,73.0,3,36,11.0,0.0
12774,73.0,0,225,1.0,0.0
12775,85.0,7,225,1.0,0.0
12776,59.0,2,240,4.0,0.0
12777,61.0,4,36,12.0,0.0
12778,71.0,6,240,2.0,0.0
12779,73.0,0,230,5.0,0.0
12780,68.0,8,230,5.0,0.0
12781,49.0,51,36,13.0,0.0
12782,59.0,24,240,3.0,0.0
12783,65.0,2,36,10.0,0.0
12784,65.0,3,36,11.0,0.0
12785,53.0,4,36,12.0,0.0
12786,41.0,51,36,13.0,0.0
12787,66.0,2,36,10.0,0.0
12788,66.0,3,36,11.0,0.0
12789,54.0,4,36,12.0,0.0
12790,42.0,51,36,13.0,0.0
12791,70.0,2,36,10.0,0.0
12792,70.0,3,36,11.0,0.0
12793,58.0,4,36,12.0,0.0
12794,46.0,1,36,13.0,0.0
12795,73.0,2,36,10.0,0.0
12796,78.0,3,60,0.0,0.0
12797,73.0,3,36,11.0,0.0
12798,78.0,0,60,1.0,0.0
12799,66.0,0,60,1.0,0.0
12800,58.0,2,60,4.0,0.0
12801,61.0,4,36,12.0,0.0
12802,66.0,30,60,5.0,0.0
12803,70.0,6,120,2.0,0.0
12804,49.0,16,36,13.0,0.0
12805,58.0,24,120,3.0,0.0
12806,65.0,2,36,10.0,0.0
12807,65.0,3,36,11.0,0.0
12808,53.0,4,36,12.0,0.0
12809,53.0,21,36,13.0,0.0
12810,66.0,2,36,10.0,0.0
12811,66.0,3,36,11.0,0.0
12812,54.0,4,36,12.0,0.0
12813,54.0,51,36,13.0,0.0
12814,70.0,2,36,10.0,0.0
12815,70.0,3,36,11.0,0.0
12816,58.0,4,36,12.0,0.0
12817,58.0,51,36,13.0,0.0
12818,73.0,2,36,10.0,0.0
12819,85.0,3,465,0.0,0.0
12820,73.0,3,36,11.0,0.0
12821,73.0,2,465,1.0,0.0
12822,61.0,4,36,12.0,0.0
12823,73.0,1,465,2.0,0.0
12824,61.0,51,36,13.0,0.0
12825,61.0,41,465,3.0,0.0
12826,65.0,2,36,10.0,0.0
12827,65.0,3,36,11.0,0.0
12828,53.0,4,36,12.0,0.0
12829,53.0,51,36,13.0,0.0
12830,66.0,2,36,10.0,0.0
12831,66.0,3,36,11.0,0.0
12832,54.0,4,36,12.0,0.0
12833,54.0,51,36,13.0,0.0
12834,70.0,2,36,10.0,0.0
12835,70.0,3,36,11.0,0.0
12836,58.0,4,36,12.0,0.0
12837,58.0,51,36,13.0,0.0
12838,74.0,2,36,10.0,0.0
12839,74.0,3,36,11.0,0.0
12840,62.0,2,230,4.0,0.0
12841,62.0,4,36,12.0,0.0
12842,62.0,1,230,5.0,0.0
12843,62.0,51,36,13.0,0.0
12844,62.0,2,36,10.0,0.0
12845,62.0,3,36,11.0,0.0
12846,54.0,4,36,12.0,0.0
12847,42.0,7,36,13.0,0.0
12848,30.0,49,40,14.0,0.0
12849,55.0,2,72,10.0,0.0
12850,55.0,27,72,11.0,0.0
12851,55.0,4,36,12.0,0.0
12852,43.0,27,36,13.0,0.0
12853,31.0,2,100,14.0,0.0
12854,54.0,4,36,12.0,0.0
12855,47.0,1,36,13.0,0.0
12856,83.0,3,120,0.0,0.0
12857,55.0,3,36,11.0,0.0
12858,71.0,2,120,1.0,0.0
12859,62.0,2,230,4.0,0.0
12860,59.0,0,230,4.0,0.0
12861,55.0,4,36,12.0,0.0
12862,71.0,6,120,2.0,0.0
12863,65.0,1,230,5.0,0.0
12864,62.0,0,230,5.0,0.0
12865,50.0,51,36,13.0,0.0
12866,59.0,24,120,3.0,0.0
12867,66.0,2,36,10.0,0.0
12868,59.0,3,36,11.0,0.0
12869,59.0,4,36,12.0,0.0
12870,55.0,16,36,13.0,0.0
12871,67.0,2,36,10.0,0.0
12872,89.0,3,105,0.0,0.0
12873,62.0,7,36,11.0,0.0
12874,77.0,2,105,1.0,0.0
12875,62.0,19,72,12.0,0.0
12876,77.0,1,105,2.0,0.0
12877,59.0,32,36,13.0,0.0
12878,65.0,41,105,3.0,0.0
12879,71.0,2,36,10.0,0.0
12880,65.0,7,36,11.0,0.0
12881,43.0,1,36,13.0,0.0
12882,31.0,2,40,14.0,0.0
12883,74.0,26,72,10.0,0.0
12884,86.0,3,120,0.0,0.0
12885,64.0,7,36,11.0,0.0
12886,62.0,2,230,4.0,0.0
12887,59.0,0,230,4.0,0.0
12888,74.0,2,120,1.0,0.0
12889,74.0,6,120,2.0,0.0
12890,65.0,0,230,5.0,0.0
12891,62.0,1,230,5.0,0.0
12892,44.0,27,36,13.0,0.0
12893,62.0,26,120,3.0,0.0
12894,32.0,9,100,14.0,0.0
12895,64.0,3,36,11.0,0.0
12896,55.0,4,36,12.0,0.0
12897,47.0,7,36,13.0,0.0
12898,83.0,3,105,0.0,0.0
12899,56.0,3,36,11.0,0.0
12900,83.0,2,105,1.0,0.0
12901,56.0,4,36,12.0,0.0
12902,83.0,3,105,2.0,0.0
12903,52.0,51,36,13.0,0.0
12904,59.0,39,105,3.0,0.0
12905,67.0,2,36,10.0,0.0
12906,59.0,3,36,11.0,0.0
12907,59.0,4,36,12.0,0.0
12908,56.0,1,36,13.0,0.0
12909,68.0,2,36,10.0,0.0
12910,86.0,3,225,0.0,0.0
12911,62.0,7,36,11.0,0.0
12912,52.0,2,230,4.0,0.0
12913,74.0,2,225,1.0,0.0
12914,64.0,0,230,4.0,0.0
12915,62.0,19,72,12.0,0.0
12916,64.0,1,230,5.0,0.0
12917,62.0,0,230,5.0,0.0
12918,74.0,1,225,2.0,0.0
12919,59.0,32,36,13.0,0.0
12920,62.0,41,225,3.0,0.0
12921,71.0,2,36,10.0,0.0
12922,64.0,7,36,11.0,0.0
12923,44.0,7,36,13.0,0.0
12924,32.0,46,40,14.0,0.0
12925,74.0,26,72,10.0,0.0
12926,64.0,7,36,11.0,0.0
12927,45.0,27,36,13.0,0.0
12928,33.0,2,100,14.0,0.0
12929,64.0,3,36,11.0,0.0
12930,56.0,4,36,12.0,0.0
12931,49.0,1,36,13.0,0.0
12932,85.0,3,120,0.0,0.0
12933,57.0,3,36,11.0,0.0
12934,64.0,2,230,4.0,0.0
12935,73.0,2,120,1.0,0.0
12936,61.0,0,230,4.0,0.0
12937,57.0,4,36,12.0,0.0
12938,57.0,1,230,5.0,0.0
12939,73.0,6,120,2.0,0.0
12940,67.0,0,230,5.0,0.0
12941,52.0,51,36,13.0,0.0
12942,61.0,24,120,3.0,0.0
12943,68.0,2,36,10.0,0.0
12944,61.0,3,36,11.0,0.0
12945,61.0,4,36,12.0,0.0
12946,57.0,16,36,13.0,0.0
12947,69.0,2,36,10.0,0.0
12948,91.0,3,105,0.0,0.0
12949,64.0,7,36,11.0,0.0
12950,79.0,2,105,1.0,0.0
12951,64.0,19,72,12.0,0.0
12952,79.0,1,105,2.0,0.0
12953,61.0,32,36,13.0,0.0
12954,67.0,41,105,3.0,0.0
12955,73.0,2,36,10.0,0.0
12956,67.0,7,36,11.0,0.0
12957,45.0,1,36,13.0,0.0
12958,33.0,2,40,14.0,0.0
12959,76.0,26,72,10.0,0.0
12960,88.0,3,120,0.0,0.0
12961,67.0,7,36,11.0,0.0
12962,76.0,2,120,1.0,0.0
12963,61.0,2,230,4.0,0.0
12964,64.0,0,230,4.0,0.0
12965,76.0,6,120,2.0,0.0
12966,67.0,0,230,5.0,0.0
12967,64.0,1,230,5.0,0.0
12968,46.0,27,36,13.0,0.0
12969,34.0,9,100,14.0,0.0
12970,64.0,26,120,3.0,0.0
12971,67.0,3,36,11.0,0.0
12972,57.0,4,36,12.0,0.0
12973,52.0,7,36,13.0,0.0
12974,85.0,3,105,0.0,0.0
12975,58.0,3,36,11.0,0.0
12976,85.0,2,105,1.0,0.0
12977,58.0,4,36,12.0,0.0
12978,85.0,3,105,2.0,0.0
12979,55.0,51,36,13.0,0.0
12980,61.0,39,105,3.0,0.0
12981,72.0,2,36,10.0,0.0
12982,64.0,3,36,11.0,0.0
12983,64.0,4,36,12.0,0.0
12984,58.0,1,36,13.0,0.0
12985,73.0,2,36,10.0,0.0
12986,85.0,3,120,0.0,0.0
12987,67.0,7,36,11.0,0.0
12988,73.0,2,120,1.0,0.0
12989,64.0,0,110,4.0,0.0
12990,67.0,2,110,4.0,0.0
12991,67.0,19,72,12.0,0.0
12992,73.0,6,120,2.0,0.0
12993,67.0,5,110,5.0,0.0
12994,64.0,0,110,5.0,0.0
12995,64.0,32,36,13.0,0.0
12996,61.0,24,120,3.0,0.0
12997,76.0,2,36,10.0,0.0
12998,73.0,7,36,11.0,0.0
12999,46.0,7,36,13.0,0.0
13000,34.0,2,40,14.0,0.0
13001,79.0,2,36,10.0,0.0
13002,91.0,3,105,0.0,0.0
13003,76.0,7,36,11.0,0.0
13004,79.0,2,105,1.0,0.0
13005,64.0,2,230,4.0,0.0
13006,67.0,0,230,4.0,0.0
13007,79.0,1,105,2.0,0.0
13008,67.0,0,230,5.0,0.0
13009,57.0,5,230,5.0,0.0
13010,45.0,51,36,13.0,0.0
13011,33.0,5,100,14.0,0.0
13012,67.0,39,105,3.0,0.0
13013,75.0,2,36,10.0,0.0
13014,67.0,3,36,11.0,0.0
13015,64.0,4,36,12.0,0.0
13016,49.0,1,36,13.0,0.0
13017,76.0,2,36,10.0,0.0
13018,88.0,3,120,0.0,0.0
13019,73.0,3,36,11.0,0.0
13020,76.0,2,120,1.0,0.0
13021,67.0,4,36,12.0,0.0
13022,76.0,6,120,2.0,0.0
13023,52.0,51,36,13.0,0.0
13024,64.0,48,120,3.0,0.0
13025,79.0,2,36,10.0,0.0
13026,76.0,3,36,11.0,0.0
13027,73.0,4,36,12.0,0.0
13028,57.0,9,36,13.0,0.0
13029,85.0,1,60,10.0,0.0
13030,85.0,1,60,0.0,0.0
13031,79.0,2,60,11.0,0.0
13032,67.0,0,60,4.0,0.0
13033,64.0,0,60,4.0,0.0
13034,85.0,1,60,1.0,0.0
13035,76.0,1,60,12.0,0.0
13036,85.0,0,60,2.0,0.0
13037,64.0,0,60,5.0,0.0
13038,57.0,3,60,5.0,0.0
13039,52.0,0,60,13.0,0.0
13040,45.0,0,60,13.0,0.0
13041,57.0,3,60,13.0,0.0
13042,45.0,228,60,14.0,0.0
13043,61.0,0,60,3.0,0.0
13044,86.0,2,60,10.0,0.0
13045,82.0,3,60,11.0,0.0
13046,74.0,4,60,12.0,0.0
13047,43.0,3,60,13.0,0.0
13048,31.0,108,60,14.0,0.0
13049,84.0,2,60,10.0,0.0
13050,81.0,3,60,11.0,0.0
13051,72.0,4,60,12.0,0.0
13052,46.0,3,60,13.0,0.0
13053,34.0,81,60,14.0,0.0
13054,82.0,1,240,10.0,0.0
13055,94.0,0,240,0.0,0.0
13056,82.0,1,240,0.0,0.0
13057,79.0,2,240,11.0,0.0
13058,72.0,1,360,6.0,0.0
13059,60.0,0,360,6.0,0.0
13060,36.0,0,360,4.0,0.0
13061,48.0,0,360,4.0,0.0
13062,70.0,2,240,1.0,0.0
13063,82.0,0,240,1.0,0.0
13064,70.0,3,165,12.0,0.0
13065,67.0,3,360,5.0,0.0
13066,82.0,6,240,2.0,0.0
13067,70.0,0,240,2.0,0.0
13068,70.0,0,360,5.0,0.0
13069,48.0,19,45,13.0,0.0
13070,36.0,3,345,3.0,0.0
13071,36.0,0,345,14.0,0.0
13072,58.0,1,240,3.0,0.0
13073,48.0,19,1,15.0,0.0
13074,54.0,17,45,13.0,0.0
13075,48.0,20,0,15.0,0.0
13076,48.0,19,1,15.0,0.0
13077,48.0,2,1,15.0,0.0
13078,55.0,19,45,13.0,0.0
13079,48.0,17,0,15.0,0.0
13080,66.0,1,45,12.0,0.0
13081,58.0,6,45,13.0,0.0
13082,48.0,19,1,15.0,0.0
13083,48.0,18,1,15.0,0.0
13084,79.0,1,60,10.0,0.0
13085,91.0,3,60,0.0,0.0
13086,79.0,2,60,1.0,0.0
13087,67.0,2,45,12.0,0.0
13088,67.0,0,60,2.0,0.0
13089,79.0,4,60,2.0,0.0
13090,64.0,3,105,13.0,0.0
13091,48.0,18,2,15.0,0.0
13092,67.0,0,60,3.0,0.0
13093,55.0,19,60,3.0,0.0
13094,48.0,8,2,15.0,0.0
13095,76.0,1,60,10.0,0.0
13096,88.0,2,60,0.0,0.0
13097,78.0,3,45,11.0,0.0
13098,76.0,2,60,1.0,0.0
13099,70.0,2,45,12.0,0.0
13100,76.0,0,60,2.0,0.0
13101,64.0,0,60,2.0,0.0
13102,48.0,16,20,15.0,0.0
13103,52.0,0,60,3.0,0.0
13104,64.0,35,60,3.0,0.0
13105,48.0,2,20,15.0,0.0
13106,48.0,3,16,15.0,0.0
13107,79.0,3,45,11.0,0.0
13108,76.0,57,45,12.0,0.0
13109,48.0,49,120,15.0,0.0
13110,82.0,24,45,11.0,0.0
13111,93.0,2,60,10.0,0.0
13112,81.0,3,60,11.0,0.0
13113,75.0,4,60,12.0,0.0
13114,60.0,3,60,13.0,0.0
13115,48.0,108,60,14.0,0.0
13116,48.0,0,60,3.0,0.0
13117,91.0,2,60,10.0,0.0
13118,79.0,3,60,11.0,0.0
13119,63.0,4,60,12.0,0.0
13120,45.0,3,60,13.0,0.0
13121,33.0,81,60,14.0,0.0
13122,33.0,0,60,3.0,0.0
13123,89.0,1,240,10.0,0.0
13124,89.0,1,240,0.0,0.0
13125,77.0,2,240,11.0,0.0
13126,77.0,0,360,6.0,0.0
13127,65.0,1,360,6.0,0.0
13128,58.0,0,360,7.0,0.0
13129,77.0,2,240,1.0,0.0
13130,65.0,0,360,7.0,0.0
13131,70.0,3,165,12.0,0.0
13132,65.0,0,240,2.0,0.0
13133,77.0,6,240,2.0,0.0
13134,50.0,2,360,8.0,0.0
13135,50.0,19,45,13.0,0.0
13136,38.0,3,345,14.0,0.0
13137,65.0,1,240,3.0,0.0
13138,53.0,0,240,3.0,0.0
13139,38.0,0,345,3.0,0.0
13140,41.0,19,1,15.0,0.0
13141,41.0,20,20,15.0,0.0
13142,52.0,17,45,13.0,0.0
13143,41.0,19,1,15.0,0.0
13144,41.0,2,1,15.0,0.0
13145,53.0,19,45,13.0,0.0
13146,41.0,17,20,15.0,0.0
13147,41.0,1,0,15.0,0.0
13148,64.0,1,45,12.0,0.0
13149,58.0,6,45,13.0,0.0
13150,41.0,19,1,15.0,0.0
13151,41.0,18,1,15.0,0.0
13152,86.0,1,60,10.0,0.0
13153,86.0,3,60,0.0,0.0
13154,74.0,2,60,1.0,0.0
13155,65.0,2,45,12.0,0.0
13156,74.0,0,60,2.0,0.0
13157,62.0,4,60,2.0,0.0
13158,62.0,0,120,13.0,0.0
13159,41.0,18,2,15.0,0.0
13160,62.0,19,60,3.0,0.0
13161,41.0,8,2,15.0,0.0
13162,82.0,1,60,10.0,0.0
13163,82.0,2,60,0.0,0.0
13164,76.0,3,45,11.0,0.0
13165,70.0,2,60,1.0,0.0
13166,70.0,2,45,12.0,0.0
13167,58.0,0,60,2.0,0.0
13168,70.0,1,60,2.0,0.0
13169,41.0,16,20,15.0,0.0
13170,58.0,35,60,3.0,0.0
13171,41.0,5,20,15.0,0.0
13172,41.0,3,16,15.0,0.0
13173,77.0,3,45,11.0,0.0
13174,74.0,57,45,12.0,0.0
13175,41.0,49,120,15.0,0.0
13176,82.0,24,45,11.0,0.0
13177,86.0,2,60,10.0,0.0
13178,82.0,3,60,11.0,0.0
13179,74.0,4,60,12.0,0.0
13180,43.0,3,60,13.0,0.0
13181,31.0,108,60,14.0,0.0
13182,31.0,0,60,3.0,0.0
13183,84.0,2,60,10.0,0.0
13184,81.0,3,60,11.0,0.0
13185,72.0,4,60,12.0,0.0
13186,46.0,3,60,13.0,0.0
13187,34.0,81,60,14.0,0.0
13188,34.0,0,60,3.0,0.0
13189,82.0,1,240,10.0,0.0
13190,82.0,1,240,0.0,0.0
13191,94.0,0,240,0.0,0.0
13192,79.0,2,240,11.0,0.0
13193,72.0,1,360,6.0,0.0
13194,60.0,0,360,6.0,0.0
13195,70.0,0,240,1.0,0.0
13196,48.0,2,360,4.0,0.0
13197,36.0,0,360,4.0,0.0
13198,82.0,2,240,1.0,0.0
13199,70.0,3,165,12.0,0.0
13200,64.0,0,360,5.0,0.0
13201,70.0,3,360,5.0,0.0
13202,70.0,0,240,2.0,0.0
13203,82.0,6,240,2.0,0.0
13204,48.0,19,45,13.0,0.0
13205,36.0,0,345,14.0,0.0
13206,58.0,1,240,3.0,0.0
13207,36.0,3,345,3.0,0.0
13208,48.0,19,1,15.0,0.0
13209,48.0,20,20,15.0,0.0
13210,54.0,17,45,13.0,0.0
13211,48.0,19,1,15.0,0.0
13212,48.0,2,1,15.0,0.0
13213,55.0,19,45,13.0,0.0
13214,48.0,17,20,15.0,0.0
13215,48.0,1,20,15.0,0.0
13216,66.0,1,45,12.0,0.0
13217,58.0,6,45,13.0,0.0
13218,48.0,19,1,15.0,0.0
13219,48.0,18,1,15.0,0.0
13220,79.0,1,60,10.0,0.0
13221,88.0,3,60,0.0,0.0
13222,76.0,2,60,1.0,0.0
13223,67.0,2,45,12.0,0.0
13224,76.0,0,60,2.0,0.0
13225,64.0,4,60,2.0,0.0
13226,64.0,3,120,13.0,0.0
13227,48.0,18,2,15.0,0.0
13228,52.0,19,60,3.0,0.0
13229,64.0,0,60,3.0,0.0
13230,48.0,8,2,15.0,0.0
13231,76.0,1,60,10.0,0.0
13232,84.0,2,60,0.0,0.0
13233,78.0,3,45,11.0,0.0
13234,72.0,0,60,1.0,0.0
13235,70.0,2,45,12.0,0.0
13236,72.0,0,60,2.0,0.0
13237,60.0,0,60,2.0,0.0
13238,48.0,16,20,15.0,0.0
13239,48.0,0,60,3.0,0.0
13240,60.0,35,60,3.0,0.0
13241,48.0,5,20,15.0,0.0
13242,48.0,0,16,15.0,0.0
13243,79.0,3,45,11.0,0.0
13244,76.0,57,45,12.0,0.0
13245,48.0,49,120,15.0,0.0
13246,82.0,24,45,11.0,0.0
13247,93.0,2,60,10.0,0.0
13248,81.0,3,60,11.0,0.0
13249,75.0,4,60,12.0,0.0
13250,60.0,3,60,13.0,0.0
13251,48.0,108,60,14.0,0.0
13252,48.0,0,60,3.0,0.0
13253,91.0,2,60,10.0,0.0
13254,79.0,3,60,11.0,0.0
13255,63.0,4,60,12.0,0.0
13256,45.0,3,60,13.0,0.0
13257,33.0,0,60,3.0,0.0
13258,33.0,81,60,14.0,0.0
13259,89.0,1,240,10.0,0.0
13260,89.0,1,240,0.0,0.0
13261,77.0,1,240,11.0,0.0
13262,65.0,1,240,6.0,0.0
13263,77.0,0,240,6.0,0.0
13264,58.0,0,240,7.0,0.0
13265,65.0,0,240,7.0,0.0
13266,77.0,2,240,1.0,0.0
13267,70.0,2,45,12.0,0.0
13268,77.0,0,240,2.0,0.0
13269,65.0,1,240,2.0,0.0
13270,50.0,5,240,8.0,0.0
13271,50.0,19,45,13.0,0.0
13272,53.0,0,240,3.0,0.0
13273,65.0,0,240,3.0,0.0
13274,38.0,0,240,14.0,0.0
13275,38.0,1,240,3.0,0.0
13276,41.0,17,1,15.0,0.0
13277,41.0,20,20,15.0,0.0
13278,61.0,2,45,12.0,0.0
13279,49.0,17,45,13.0,0.0
13280,41.0,17,1,15.0,0.0
13281,41.0,2,1,15.0,0.0
13282,62.0,3,45,12.0,0.0
13283,50.0,19,45,13.0,0.0
13284,41.0,17,0,15.0,0.0
13285,41.0,1,0,15.0,0.0
13286,65.0,1,45,12.0,0.0
13287,53.0,6,45,13.0,0.0
13288,41.0,19,1,15.0,0.0
13289,41.0,18,1,15.0,0.0
13290,41.0,47,20,15.0,0.0
13291,86.0,1,60,10.0,0.0
13292,86.0,1,60,0.0,0.0
13293,74.0,2,60,11.0,0.0
13294,74.0,2,60,1.0,0.0
13295,70.0,4,120,12.0,0.0
13296,74.0,6,60,2.0,0.0
13297,62.0,0,60,2.0,0.0
13298,58.0,24,120,13.0,0.0
13299,62.0,33,60,3.0,0.0
13300,82.0,2,45,10.0,0.0
13301,82.0,3,50,0.0,0.0
13302,70.0,4,45,11.0,0.0
13303,70.0,2,50,1.0,0.0
13304,58.0,0,50,2.0,0.0
13305,70.0,6,50,2.0,0.0
13306,58.0,3,50,3.0,0.0
13307,89.0,1,240,10.0,0.0
13308,89.0,1,240,0.0,0.0
13309,77.0,1,240,11.0,0.0
13310,65.0,1,240,6.0,0.0
13311,77.0,0,240,6.0,0.0
13312,77.0,0,240,1.0,0.0
13313,65.0,0,240,7.0,0.0
13314,58.0,2,240,7.0,0.0
13315,77.0,1,240,2.0,0.0
13316,65.0,0,240,2.0,0.0
13317,49.0,5,240,8.0,0.0
13318,39.0,0,240,14.0,0.0
13319,65.0,0,240,3.0,0.0
13320,39.0,1,240,3.0,0.0
13321,53.0,0,240,3.0,0.0
13322,41.0,19,1,15.0,0.0
13323,41.0,20,20,15.0,0.0
13324,72.0,2,45,12.0,0.0
13325,60.0,17,45,13.0,0.0
13326,41.0,17,1,15.0,0.0
13327,41.0,2,1,15.0,0.0
13328,73.0,3,45,12.0,0.0
13329,61.0,19,45,13.0,0.0
13330,41.0,17,20,15.0,0.0
13331,41.0,1,0,15.0,0.0
13332,77.0,1,45,12.0,0.0
13333,65.0,6,45,13.0,0.0
13334,41.0,19,1,15.0,0.0
13335,41.0,18,1,15.0,0.0
13336,41.0,47,20,15.0,0.0
13337,85.0,1,60,10.0,0.0
13338,85.0,1,60,0.0,0.0
13339,73.0,2,60,11.0,0.0
13340,73.0,2,60,1.0,0.0
13341,82.0,4,225,12.0,0.0
13342,61.0,6,60,2.0,0.0
13343,73.0,0,60,2.0,0.0
13344,70.0,71,225,13.0,0.0
13345,61.0,33,60,3.0,0.0
13346,82.0,2,45,10.0,0.0
13347,82.0,3,50,0.0,0.0
13348,70.0,4,45,11.0,0.0
13349,70.0,2,50,1.0,0.0
13350,70.0,0,50,2.0,0.0
13351,58.0,6,50,2.0,0.0
13352,58.0,61,50,3.0,0.0
13353,94.0,2,240,10.0,0.0
13354,94.0,0,350,0.0,0.0
13355,88.0,3,350,0.0,0.0
13356,82.0,58,240,11.0,0.0
13357,72.0,1,60,6.0,0.0
13358,79.0,0,60,6.0,0.0
13359,82.0,2,350,1.0,0.0
13360,64.0,0,60,7.0,0.0
13361,60.0,0,350,4.0,0.0
13362,48.0,0,350,4.0,0.0
13363,76.0,0,350,1.0,0.0
13364,55.0,3,60,7.0,0.0
13365,64.0,0,350,5.0,0.0
13366,67.0,0,350,5.0,0.0
13367,79.0,1,350,2.0,0.0
13368,76.0,0,350,2.0,0.0
13369,48.0,4,60,8.0,0.0
13370,48.0,39,60,15.0,0.0
13371,48.0,5,345,3.0,0.0
13372,55.0,63,350,3.0,0.0
13373,48.0,0,345,14.0,0.0
13374,64.0,0,350,3.0,0.0
13375,79.0,4,60,12.0,0.0
13376,67.0,41,60,13.0,0.0
13377,76.0,4,45,12.0,0.0
13378,64.0,6,45,13.0,0.0
13379,91.0,2,60,10.0,0.0
13380,79.0,43,60,11.0,0.0
13381,76.0,1,105,12.0,0.0
13382,64.0,0,105,13.0,0.0
13383,88.0,2,45,10.0,0.0
13384,76.0,3,45,11.0,0.0
13385,88.0,2,240,10.0,0.0
13386,93.0,3,350,0.0,0.0
13387,88.0,0,350,0.0,0.0
13388,76.0,58,240,11.0,0.0
13389,81.0,0,350,1.0,0.0
13390,48.0,2,350,4.0,0.0
13391,76.0,0,350,1.0,0.0
13392,36.0,0,350,4.0,0.0
13393,72.0,4,60,12.0,0.0
13394,81.0,1,350,2.0,0.0
13395,64.0,0,350,5.0,0.0
13396,69.0,0,350,5.0,0.0
13397,76.0,0,350,2.0,0.0
13398,60.0,41,60,13.0,0.0
13399,64.0,63,350,3.0,0.0
13400,36.0,5,345,3.0,0.0
13401,36.0,0,345,14.0,0.0
13402,57.0,0,350,3.0,0.0
13403,69.0,4,45,12.0,0.0
13404,57.0,126,45,13.0,0.0
13405,69.0,1,225,12.0,0.0
13406,57.0,0,225,13.0,0.0
13407,84.0,2,60,10.0,0.0
13408,72.0,43,60,11.0,0.0
13409,81.0,2,45,10.0,0.0
13410,69.0,3,45,11.0,0.0
13411,81.0,2,240,10.0,0.0
13412,90.0,0,350,0.0,0.0
13413,93.0,3,350,0.0,0.0
13414,69.0,58,240,11.0,0.0
13415,81.0,0,350,1.0,0.0
13416,78.0,0,350,1.0,0.0
13417,58.0,2,350,4.0,0.0
13418,66.0,4,60,12.0,0.0
13419,78.0,0,350,2.0,0.0
13420,66.0,0,350,5.0,0.0
13421,62.0,0,350,5.0,0.0
13422,74.0,1,350,2.0,0.0
13423,54.0,41,60,13.0,0.0
13424,46.0,5,345,3.0,0.0
13425,66.0,0,350,3.0,0.0
13426,57.0,63,350,3.0,0.0
13427,46.0,0,345,14.0,0.0
13428,62.0,4,45,12.0,0.0
13429,50.0,126,45,13.0,0.0
13430,62.0,1,225,12.0,0.0
13431,50.0,0,225,13.0,0.0
13432,78.0,2,60,10.0,0.0
13433,66.0,43,60,11.0,0.0
13434,74.0,2,45,10.0,0.0
13435,62.0,3,45,11.0,0.0
13436,74.0,2,240,10.0,0.0
13437,91.0,0,350,0.0,0.0
13438,86.0,3,350,0.0,0.0
13439,62.0,58,240,11.0,0.0
13440,58.0,0,350,4.0,0.0
13441,74.0,0,350,1.0,0.0
13442,79.0,2,350,1.0,0.0
13443,58.0,4,60,12.0,0.0
13444,67.0,0,350,5.0,0.0
13445,62.0,0,350,5.0,0.0
13446,74.0,0,350,2.0,0.0
13447,79.0,1,350,2.0,0.0
13448,46.0,41,60,13.0,0.0
13449,55.0,0,350,3.0,0.0
13450,34.0,0,345,14.0,0.0
13451,34.0,5,345,3.0,0.0
13452,67.0,20,350,3.0,0.0
13453,55.0,4,45,12.0,0.0
13454,43.0,126,45,13.0,0.0
13455,55.0,1,225,12.0,0.0
13456,43.0,0,225,13.0,0.0
13457,70.0,2,60,10.0,0.0
13458,58.0,43,60,11.0,0.0
13459,67.0,2,45,10.0,0.0
13460,55.0,3,45,11.0,0.0
13461,79.0,1,960,10.0,0.0
13462,85.0,0,830,0.0,0.0
13463,91.0,3,830,0.0,0.0
13464,61.0,3,20,11.0,0.0
13465,64.0,0,720,7.0,0.0
13466,79.0,0,830,1.0,0.0
13467,73.0,2,830,1.0,0.0
13468,58.0,7,840,4.0,0.0
13469,61.0,3,720,4.0,0.0
13470,55.0,0,20,12.0,0.0
13471,52.0,5,20,12.0,0.0
13472,76.0,0,830,2.0,0.0
13473,73.0,6,830,2.0,0.0
13474,70.0,0,50,5.0,0.0
13475,67.0,16,50,5.0,0.0
13476,58.0,6,720,8.0,0.0
13477,58.0,3,705,13.0,0.0
13478,46.0,20,20,15.0,0.0
13479,52.0,0,830,3.0,0.0
13480,46.0,0,705,3.0,0.0
13481,46.0,7,705,14.0,0.0
13482,61.0,2,830,3.0,0.0
13483,46.0,2,20,15.0,0.0
13484,61.0,3,20,11.0,0.0
13485,52.0,1,20,12.0,0.0
13486,55.0,0,20,12.0,0.0
13487,61.0,3,20,11.0,0.0
13488,55.0,6,20,12.0,0.0
13489,52.0,0,20,12.0,0.0
13490,70.0,0,110,5.0,0.0
13491,67.0,14,110,5.0,0.0
13492,46.0,10,1,15.0,0.0
13493,61.0,1,20,11.0,0.0
13494,55.0,15,20,12.0,0.0
13495,52.0,0,20,12.0,0.0
13496,46.0,2,3,15.0,0.0
13497,61.0,3,20,11.0,0.0
13498,55.0,0,20,12.0,0.0
13499,52.0,7,20,12.0,0.0
13500,46.0,19,1,15.0,0.0
13501,61.0,3,20,11.0,0.0
13502,55.0,1,20,12.0,0.0
13503,52.0,0,20,12.0,0.0
13504,46.0,1,1,15.0,0.0
13505,61.0,3,20,11.0,0.0
13506,55.0,0,20,12.0,0.0
13507,52.0,5,20,12.0,0.0
13508,67.0,0,110,5.0,0.0
13509,70.0,16,110,5.0,0.0
13510,46.0,22,20,15.0,0.0
13511,61.0,1,20,11.0,0.0
13512,55.0,15,20,12.0,0.0
13513,52.0,0,20,12.0,0.0
13514,46.0,2,3,15.0,0.0
13515,61.0,3,20,11.0,0.0
13516,55.0,0,20,12.0,0.0
13517,52.0,5,20,12.0,0.0
13518,46.0,12,0,15.0,0.0
13519,46.0,3,20,15.0,0.0
13520,61.0,0,20,11.0,0.0
13521,52.0,0,20,12.0,0.0
13522,55.0,1,20,12.0,0.0
13523,61.0,3,20,11.0,0.0
13524,55.0,0,20,12.0,0.0
13525,52.0,5,20,12.0,0.0
13526,70.0,0,110,5.0,0.0
13527,67.0,17,110,5.0,0.0
13528,46.0,10,2,15.0,0.0
13529,61.0,3,20,11.0,0.0
13530,55.0,15,20,12.0,0.0
13531,52.0,0,20,12.0,0.0
13532,46.0,1,1,15.0,0.0
13533,61.0,1,30,11.0,0.0
13534,52.0,0,30,12.0,0.0
13535,55.0,17,30,12.0,0.0
13536,46.0,2,1,15.0,0.0
13537,64.0,1,30,11.0,0.0
13538,52.0,0,30,12.0,0.0
13539,55.0,17,30,12.0,0.0
13540,70.0,0,110,5.0,0.0
13541,67.0,17,110,5.0,0.0
13542,46.0,19,0,15.0,0.0
13543,46.0,2,1,15.0,0.0
13544,46.0,19,1,15.0,0.0
13545,67.0,1,30,11.0,0.0
13546,52.0,18,30,12.0,0.0
13547,55.0,0,30,12.0,0.0
13548,46.0,2,0,15.0,0.0
13549,73.0,0,30,11.0,0.0
13550,55.0,16,30,12.0,0.0
13551,52.0,0,30,12.0,0.0
13552,67.0,0,110,5.0,0.0
13553,70.0,14,110,5.0,0.0
13554,46.0,19,1,15.0,0.0
13555,46.0,3,1,15.0,0.0
13556,76.0,3,30,11.0,0.0
13557,55.0,17,30,12.0,0.0
13558,52.0,0,30,12.0,0.0
13559,46.0,18,2,15.0,0.0
13560,46.0,4,2,15.0,0.0
13561,79.0,3,30,11.0,0.0
13562,52.0,0,30,12.0,0.0
13563,55.0,17,30,12.0,0.0
13564,67.0,1,120,5.0,0.0
13565,70.0,0,120,5.0,0.0
13566,46.0,1,20,15.0,0.0
13567,46.0,2,20,15.0,0.0
13568,85.0,17,45,11.0,0.0
13569,64.0,0,240,4.0,0.0
13570,61.0,0,0,7.0,0.0
13571,52.0,0,60,7.0,0.0
13572,52.0,1,240,12.0,0.0
13573,46.0,44,60,8.0,0.0
13574,46.0,2,345,13.0,0.0
13575,46.0,34,2,15.0,0.0
13576,34.0,5,345,3.0,0.0
13577,34.0,0,345,14.0,0.0
13578,67.0,73,105,11.0,0.0
13579,73.0,0,105,11.0,0.0
13580,85.0,0,120,0.0,0.0
13581,91.0,3,120,0.0,0.0
13582,79.0,0,120,1.0,0.0
13583,85.0,1,120,1.0,0.0
13584,76.0,0,120,2.0,0.0
13585,64.0,0,120,3.0,0.0
13586,67.0,13,105,11.0,0.0
13587,61.0,0,105,11.0,0.0
13588,77.0,4,60,10.0,0.0
13589,85.0,3,110,0.0,0.0
13590,79.0,0,110,0.0,0.0
13591,79.0,0,110,1.0,0.0
13592,65.0,1,60,4.0,0.0
13593,73.0,0,110,1.0,0.0
13594,53.0,40,60,12.0,0.0
13595,73.0,6,0,2.0,0.0
13596,64.0,0,110,2.0,0.0
13597,52.0,45,110,3.0,0.0
13598,61.0,35,0,3.0,0.0
13599,76.0,5,45,10.0,0.0
13600,73.0,120,105,11.0,0.0
13601,67.0,0,105,11.0,0.0
13602,67.0,0,50,4.0,0.0
13603,55.0,1,45,12.0,0.0
13604,77.0,1,240,10.0,0.0
13605,89.0,0,240,0.0,0.0
13606,84.0,3,240,0.0,0.0
13607,84.0,0,240,1.0,0.0
13608,60.0,1,240,4.0,0.0
13609,48.0,1,240,12.0,0.0
13610,72.0,0,240,2.0,0.0
13611,77.0,6,240,2.0,0.0
13612,45.0,0,345,13.0,0.0
13613,33.0,5,345,14.0,0.0
13614,33.0,0,345,3.0,0.0
13615,60.0,0,240,3.0,0.0
13616,65.0,35,240,3.0,0.0
13617,60.0,0,105,11.0,0.0
13618,65.0,73,105,11.0,0.0
13619,72.0,58,105,11.0,0.0
13620,65.0,0,105,11.0,0.0
13621,72.0,2,105,10.0,0.0
13622,77.0,0,110,0.0,0.0
13623,84.0,3,110,0.0,0.0
13624,77.0,0,0,1.0,0.0
13625,72.0,0,110,1.0,0.0
13626,65.0,0,110,4.0,0.0
13627,53.0,1,105,12.0,0.0
13628,65.0,1,110,2.0,0.0
13629,72.0,0,110,2.0,0.0
13630,60.0,0,110,3.0,0.0
13631,53.0,54,110,3.0,0.0
13632,65.0,0,45,11.0,0.0
13633,60.0,3,45,11.0,0.0
13634,72.0,2,345,10.0,0.0
13635,64.0,7,240,11.0,0.0
13636,48.0,4,345,12.0,0.0
13637,48.0,120,50,5.0,0.0
13638,60.0,0,50,5.0,0.0
13639,72.0,1,350,2.0,0.0
13640,67.0,0,350,2.0,0.0
13641,55.0,47,240,13.0,0.0
13642,52.0,0,350,3.0,0.0
13643,46.0,54,350,3.0,0.0
13644,34.0,5,345,14.0,0.0
13645,60.0,66,110,5.0,0.0
13646,48.0,0,110,5.0,0.0
13647,60.0,0,110,5.0,0.0
13648,48.0,6,110,5.0,0.0
13649,65.0,7,60,11.0,0.0
13650,53.0,36,60,13.0,0.0
13651,67.0,3,45,11.0,0.0
13652,48.0,120,110,5.0,0.0
13653,60.0,0,110,5.0,0.0
13654,52.0,2,45,13.0,0.0
13655,72.0,2,345,10.0,0.0
13656,60.0,7,240,11.0,0.0
13657,48.0,4,345,12.0,0.0
13658,60.0,0,350,2.0,0.0
13659,72.0,1,350,2.0,0.0
13660,53.0,47,240,13.0,0.0
13661,33.0,5,345,14.0,0.0
13662,45.0,0,350,3.0,0.0
13663,53.0,45,350,3.0,0.0
13664,48.0,0,110,5.0,0.0
13665,60.0,66,110,5.0,0.0
13666,60.0,0,110,5.0,0.0
13667,48.0,49,110,5.0,0.0
13668,65.0,3,105,11.0,0.0
13669,48.0,2,105,13.0,0.0
13670,60.0,0,50,5.0,0.0
13671,48.0,0,50,5.0,0.0
13672,79.0,1,240,10.0,0.0
13673,67.0,0,45,11.0,0.0
13674,73.0,120,45,11.0,0.0
13675,64.0,0,240,4.0,0.0
13676,52.0,10,225,12.0,0.0
13677,46.0,2,345,13.0,0.0
13678,34.0,5,345,14.0,0.0
13679,67.0,63,105,11.0,0.0
13680,73.0,0,105,11.0,0.0
13681,91.0,3,120,0.0,0.0
13682,85.0,0,120,1.0,0.0
13683,73.0,6,120,2.0,0.0
13684,76.0,0,120,2.0,0.0
13685,64.0,35,120,3.0,0.0
13686,61.0,0,120,3.0,0.0
13687,61.0,13,105,11.0,0.0
13688,67.0,0,105,11.0,0.0
13689,77.0,4,60,10.0,0.0
13690,85.0,0,0,0.0,0.0
13691,79.0,3,110,0.0,0.0
13692,73.0,0,110,1.0,0.0
13693,79.0,2,0,1.0,0.0
13694,65.0,1,60,4.0,0.0
13695,53.0,40,60,12.0,0.0
13696,64.0,0,110,2.0,0.0
13697,73.0,1,110,2.0,0.0
13698,52.0,45,110,3.0,0.0
13699,61.0,0,110,3.0,0.0
13700,76.0,5,45,10.0,0.0
13701,73.0,120,105,11.0,0.0
13702,67.0,0,105,11.0,0.0
13703,67.0,0,50,4.0,0.0
13704,55.0,1,45,12.0,0.0
13705,77.0,1,240,10.0,0.0
13706,89.0,0,240,0.0,0.0
13707,84.0,0,240,1.0,0.0
13708,60.0,0,240,4.0,0.0
13709,48.0,1,240,12.0,0.0
13710,77.0,0,240,2.0,0.0
13711,45.0,1,350,13.0,0.0
13712,33.0,1,350,14.0,0.0
13713,65.0,0,240,3.0,0.0
13714,60.0,35,240,3.0,0.0
13715,60.0,73,105,11.0,0.0
13716,65.0,0,105,11.0,0.0
13717,72.0,65,105,11.0,0.0
13718,65.0,0,105,11.0,0.0
13719,72.0,3,115,10.0,0.0
13720,84.0,3,0,0.0,0.0
13721,77.0,1,117,0.0,0.0
13722,65.0,1,117,4.0,0.0
13723,77.0,1,0,1.0,0.0
13724,72.0,0,117,1.0,0.0
13725,53.0,1,115,12.0,0.0
13726,65.0,6,117,2.0,0.0
13727,72.0,6,0,2.0,0.0
13728,53.0,0,117,3.0,0.0
13729,60.0,47,117,3.0,0.0
13730,65.0,3,50,11.0,0.0
13731,60.0,0,50,11.0,0.0
13732,72.0,4,352,10.0,0.0
13733,64.0,7,240,11.0,0.0
13734,72.0,0,350,2.0,0.0
13735,67.0,0,350,2.0,0.0
13736,60.0,0,50,5.0,0.0
13737,48.0,120,50,5.0,0.0
13738,55.0,47,240,13.0,0.0
13739,34.0,44,360,14.0,0.0
13740,46.0,1,350,3.0,0.0
13741,52.0,0,350,3.0,0.0
13742,60.0,66,110,5.0,0.0
13743,48.0,0,110,5.0,0.0
13744,48.0,0,110,5.0,0.0
13745,60.0,6,110,5.0,0.0
13746,65.0,7,60,11.0,0.0
13747,53.0,43,60,13.0,0.0
13748,67.0,6,54,11.0,0.0
13749,48.0,0,110,5.0,0.0
13750,60.0,120,110,5.0,0.0
13751,52.0,2,54,13.0,0.0
13752,72.0,2,352,10.0,0.0
13753,60.0,7,240,11.0,0.0
13754,48.0,7,0,12.0,0.0
13755,60.0,1,350,2.0,0.0
13756,72.0,0,350,2.0,0.0
13757,53.0,47,240,13.0,0.0
13758,33.0,5,345,14.0,0.0
13759,53.0,0,350,3.0,0.0
13760,45.0,54,350,3.0,0.0
13761,48.0,0,110,5.0,0.0
13762,60.0,66,110,5.0,0.0
13763,60.0,0,110,5.0,0.0
13764,48.0,51,110,5.0,0.0
13765,65.0,3,105,11.0,0.0
13766,48.0,2,105,13.0,0.0
13767,48.0,0,110,5.0,0.0
13768,60.0,120,110,5.0,0.0
13769,72.0,4,352,10.0,0.0
13770,64.0,7,240,11.0,0.0
13771,48.0,2,345,12.0,0.0
13772,67.0,0,350,2.0,0.0
13773,72.0,0,350,2.0,0.0
13774,55.0,47,240,13.0,0.0
13775,46.0,1,350,3.0,0.0
13776,34.0,5,345,14.0,0.0
13777,52.0,0,350,3.0,0.0
13778,60.0,66,110,5.0,0.0
13779,48.0,0,110,5.0,0.0
13780,60.0,0,110,5.0,0.0
13781,48.0,6,110,5.0,0.0
13782,65.0,7,60,11.0,0.0
13783,53.0,41,60,13.0,0.0
13784,67.0,1,54,11.0,0.0
13785,48.0,0,110,5.0,0.0
13786,60.0,120,110,5.0,0.0
13787,52.0,53,54,13.0,0.0
13788,72.0,2,240,10.0,0.0
13789,60.0,7,240,11.0,0.0
13790,48.0,4,345,12.0,0.0
13791,72.0,0,350,2.0,0.0
13792,60.0,1,350,2.0,0.0
13793,53.0,47,240,13.0,0.0
13794,45.0,0,350,3.0,0.0
13795,33.0,5,345,14.0,0.0
13796,53.0,114,350,3.0,0.0
13797,60.0,0,110,5.0,0.0
13798,48.0,64,110,5.0,0.0
13799,48.0,4,110,5.0,0.0
13800,60.0,0,110,5.0,0.0
13801,70.0,47,60,10.0,0.0
13802,65.0,3,105,11.0,0.0
13803,48.0,2,105,13.0,0.0
13804,69.0,0,54,10.0,0.0
13805,53.0,120,170,5.0,0.0
13806,69.0,5,345,10.0,0.0
13807,60.0,7,240,11.0,0.0
13808,53.0,6,345,12.0,0.0
13809,60.0,1,350,2.0,0.0
13810,69.0,0,350,2.0,0.0
13811,51.0,53,240,13.0,0.0
13812,29.0,5,345,14.0,0.0
13813,51.0,1,350,3.0,0.0
13814,41.0,0,350,3.0,0.0
13815,53.0,6,110,5.0,0.0
13816,62.0,7,60,11.0,0.0
13817,53.0,120,230,5.0,0.0
13818,50.0,36,60,13.0,0.0
13819,63.0,0,54,11.0,0.0
13820,48.0,113,54,13.0,0.0
13821,70.0,2,240,10.0,0.0
13822,58.0,7,240,11.0,0.0
13823,53.0,4,345,12.0,0.0
13824,70.0,0,350,2.0,0.0
13825,58.0,1,350,2.0,0.0
13826,50.0,51,240,13.0,0.0
13827,50.0,0,350,3.0,0.0
13828,41.0,114,350,3.0,0.0
13829,29.0,5,345,14.0,0.0
13830,53.0,4,110,5.0,0.0
13831,69.0,47,60,10.0,0.0
13832,62.0,3,105,11.0,0.0
13833,53.0,120,230,5.0,0.0
13834,46.0,0,105,13.0,0.0
13835,67.0,2,54,10.0,0.0
13836,67.0,5,345,10.0,0.0
13837,58.0,7,240,11.0,0.0
13838,53.0,6,345,12.0,0.0
13839,58.0,0,350,2.0,0.0
13840,67.0,1,350,2.0,0.0
13841,49.0,53,240,13.0,0.0
13842,29.0,5,345,14.0,0.0
13843,41.0,1,350,3.0,0.0
13844,49.0,0,350,3.0,0.0
13845,53.0,6,110,5.0,0.0
13846,60.0,7,60,11.0,0.0
13847,53.0,4,350,5.0,0.0
13848,48.0,36,60,13.0,0.0
13849,62.0,0,54,11.0,0.0
13850,46.0,233,54,13.0,0.0
13851,69.0,2,240,10.0,0.0
13852,57.0,7,240,11.0,0.0
13853,53.0,4,345,12.0,0.0
13854,69.0,0,350,2.0,0.0
13855,57.0,1,350,2.0,0.0
13856,48.0,51,240,13.0,0.0
13857,29.0,5,345,14.0,0.0
13858,48.0,350,350,3.0,0.0
13859,41.0,0,350,3.0,0.0
13860,67.0,47,60,10.0,0.0
13861,60.0,3,105,11.0,0.0
13862,53.0,0,110,5.0,0.0
13863,45.0,1,105,13.0,0.0
13864,65.0,1,55,10.0,0.0
13865,65.0,250,352,10.0,0.0
13866,65.0,10,352,10.0,0.0
13867,57.0,7,240,11.0,0.0
13868,48.0,103,240,13.0,0.0
13869,29.0,340,360,14.0,0.0
13870,60.0,7,120,11.0,0.0
13871,45.0,3,120,13.0,0.0
13872,65.0,733,352,10.0,0.0
13873,65.0,2,1080,10.0,0.0
13874,57.0,3,1080,11.0,0.0
13875,59.0,4,360,12.0,0.0
13876,38.0,3,360,13.0,0.0
13877,59.0,0,360,3.0,0.0
13878,50.0,233,360,3.0,0.0
13879,38.0,0,360,14.0,0.0
13880,60.0,4,240,12.0,0.0
13881,36.0,3,240,13.0,0.0
13882,36.0,0,240,14.0,0.0
13883,60.0,0,240,3.0,0.0
13884,48.0,108,240,3.0,0.0
13885,62.0,4,120,12.0,0.0
13886,47.0,3,120,13.0,0.0
13887,35.0,712,120,14.0,0.0
13888,47.0,0,120,3.0,0.0
13889,62.0,0,120,3.0,0.0
13890,77.0,2,360,1.0,0.0
13891,69.0,238,360,5.0,0.0
13892,59.0,0,600,3.0,0.0
13893,62.0,112,600,3.0,0.0
13894,79.0,2,240,1.0,0.0
13895,67.0,6,240,5.0,0.0
13896,81.0,2,120,1.0,0.0
13897,65.0,1070,120,5.0,0.0
13898,60.0,2,720,10.0,0.0
13899,57.0,3,720,11.0,0.0
13900,36.0,1,1310,13.0,0.0
13901,48.0,591,360,12.0,0.0
13902,48.0,4,350,5.0,0.0
13903,58.0,2,600,10.0,0.0
13904,55.0,3,600,11.0,0.0
13905,52.0,111,600,12.0,0.0
13906,52.0,3,590,5.0,0.0
13907,57.0,2,120,10.0,0.0
13908,57.0,3,120,11.0,0.0
13909,53.0,4,120,12.0,0.0
13910,53.0,4,110,5.0,0.0
13911,41.0,3,120,13.0,0.0
13912,29.0,117,120,14.0,0.0
13913,60.0,1,1440,4.0,0.0
13914,57.0,0,1440,4.0,0.0
13915,53.0,1,1440,5.0,0.0
13916,65.0,0,1440,5.0,0.0
13917,45.0,3,120,13.0,0.0
13918,33.0,102,120,14.0,0.0
13919,48.0,3,105,13.0,0.0
13920,36.0,132,105,14.0,0.0
13921,53.0,3,120,13.0,0.0
13922,41.0,117,120,14.0,0.0
13923,57.0,3,120,13.0,0.0
13924,45.0,102,120,14.0,0.0
13925,60.0,3,105,13.0,0.0
13926,48.0,123,105,14.0,0.0
13927,57.0,2,120,10.0,0.0
13928,57.0,3,120,11.0,0.0
13929,57.0,4,120,12.0,0.0
13930,45.0,3,120,13.0,0.0
13931,33.0,108,120,14.0,0.0
13932,60.0,2,120,10.0,0.0
13933,60.0,3,120,11.0,0.0
13934,60.0,1,720,6.0,0.0
13935,72.0,0,720,6.0,0.0
13936,57.0,0,720,7.0,0.0
13937,65.0,0,720,7.0,0.0
13938,60.0,4,120,12.0,0.0
13939,69.0,6,705,2.0,0.0
13940,77.0,0,705,2.0,0.0
13941,41.0,2,720,8.0,0.0
13942,48.0,3,120,13.0,0.0
13943,36.0,93,120,14.0,0.0
13944,60.0,0,705,3.0,0.0
13945,53.0,6,705,3.0,0.0
13946,65.0,2,105,10.0,0.0
13947,65.0,3,105,11.0,0.0
13948,65.0,4,105,12.0,0.0
13949,53.0,3,105,13.0,0.0
13950,41.0,123,105,14.0,0.0
13951,69.0,2,120,10.0,0.0
13952,69.0,3,120,11.0,0.0
13953,69.0,4,120,12.0,0.0
13954,57.0,3,120,13.0,0.0
13955,45.0,108,120,14.0,0.0
13956,72.0,2,120,10.0,0.0
13957,72.0,3,120,11.0,0.0
13958,72.0,4,120,12.0,0.0
13959,60.0,3,120,13.0,0.0
13960,48.0,93,120,14.0,0.0
13961,77.0,2,105,10.0,0.0
13962,77.0,3,105,11.0,0.0
13963,77.0,4,105,12.0,0.0
13964,65.0,3,105,13.0,0.0
13965,53.0,114,105,14.0,0.0
13966,53.0,1,120,12.0,0.0
13967,41.0,3,120,13.0,0.0
13968,29.0,19,120,14.0,0.0
13969,77.0,0,715,0.0,0.0
13970,80.0,3,715,0.0,0.0
13971,77.0,1,1440,6.0,0.0
13972,65.0,0,1440,6.0,0.0
13973,59.0,0,1440,4.0,0.0
13974,74.0,1,715,1.0,0.0
13975,62.0,0,720,7.0,0.0
13976,59.0,1,720,7.0,0.0
13977,62.0,0,1440,4.0,0.0
13978,71.0,0,715,1.0,0.0
13979,59.0,4,120,12.0,0.0
13980,53.0,0,1440,5.0,0.0
13981,68.0,1,1440,5.0,0.0
13982,71.0,1,715,2.0,0.0
13983,80.0,0,715,2.0,0.0
13984,53.0,0,720,8.0,0.0
13985,47.0,3,120,13.0,0.0
13986,41.0,21,20,15.0,0.0
13987,35.0,20,120,14.0,0.0
13988,50.0,0,715,3.0,0.0
13989,41.0,2,715,3.0,0.0
13990,41.0,19,1,15.0,0.0
13991,41.0,20,20,15.0,0.0
13992,41.0,13,20,15.0,0.0
13993,62.0,3,105,12.0,0.0
13994,50.0,3,105,13.0,0.0
13995,41.0,0,0,15.0,0.0
13996,38.0,13,105,14.0,0.0
13997,41.0,18,2,15.0,0.0
13998,41.0,21,20,15.0,0.0
13999,41.0,18,20,15.0,0.0
14000,41.0,1,3,15.0,0.0
14001,65.0,4,120,12.0,0.0
14002,53.0,2,120,13.0,0.0
14003,41.0,21,20,15.0,0.0
14004,41.0,21,120,14.0,0.0
14005,41.0,18,2,15.0,0.0
14006,41.0,22,20,15.0,0.0
14007,41.0,13,1,15.0,0.0
14008,71.0,4,120,12.0,0.0
14009,59.0,1,120,13.0,0.0
14010,47.0,20,120,14.0,0.0
14011,41.0,17,3,15.0,0.0
14012,41.0,17,3,15.0,0.0
14013,41.0,12,3,15.0,0.0
14014,74.0,0,105,12.0,0.0
14015,62.0,3,105,13.0,0.0
14016,50.0,16,105,14.0,0.0
14017,41.0,19,1,15.0,0.0
14018,41.0,20,0,15.0,0.0
14019,41.0,18,2,15.0,0.0
14020,62.0,1,120,10.0,0.0
14021,62.0,2,120,11.0,0.0
14022,50.0,2,120,12.0,0.0
14023,50.0,3,120,13.0,0.0
14024,38.0,1,120,14.0,0.0
14025,41.0,19,1,15.0,0.0
14026,41.0,19,1,15.0,0.0
14027,41.0,19,1,15.0,0.0
14028,41.0,19,1,15.0,0.0
14029,65.0,2,120,10.0,0.0
14030,80.0,3,715,0.0,0.0
14031,89.0,0,715,0.0,0.0
14032,65.0,3,120,11.0,0.0
14033,56.0,2,720,7.0,0.0
14034,80.0,2,715,1.0,0.0
14035,71.0,0,715,1.0,0.0
14036,59.0,0,720,7.0,0.0
14037,53.0,4,120,12.0,0.0
14038,71.0,2,715,2.0,0.0
14039,74.0,0,715,2.0,0.0
14040,41.0,0,720,8.0,0.0
14041,53.0,3,120,13.0,0.0
14042,41.0,18,2,15.0,0.0
14043,62.0,0,715,3.0,0.0
14044,53.0,1,715,3.0,0.0
14045,41.0,18,120,14.0,0.0
14046,41.0,19,1,15.0,0.0
14047,41.0,18,2,15.0,0.0
14048,41.0,7,1,15.0,0.0
14049,71.0,2,105,10.0,0.0
14050,71.0,3,105,11.0,0.0
14051,59.0,2,105,12.0,0.0
14052,59.0,3,105,13.0,0.0
14053,41.0,0,2,15.0,0.0
14054,47.0,16,105,14.0,0.0
14055,41.0,20,20,15.0,0.0
14056,41.0,21,20,15.0,0.0
14057,41.0,12,1,15.0,0.0
14058,74.0,2,120,10.0,0.0
14059,74.0,3,120,11.0,0.0
14060,62.0,4,120,12.0,0.0
14061,50.0,3,120,13.0,0.0
14062,41.0,17,3,15.0,0.0
14063,38.0,19,120,14.0,0.0
14064,41.0,20,0,15.0,0.0
14065,41.0,19,1,15.0,0.0
14066,41.0,7,1,15.0,0.0
14067,77.0,2,120,10.0,0.0
14068,77.0,3,120,11.0,0.0
14069,65.0,4,120,12.0,0.0
14070,53.0,1,120,13.0,0.0
14071,41.0,0,1,15.0,0.0
14072,41.0,21,120,14.0,0.0
14073,41.0,19,1,15.0,0.0
14074,41.0,17,3,15.0,0.0
14075,41.0,8,2,15.0,0.0
14076,83.0,2,105,10.0,0.0
14077,83.0,3,105,11.0,0.0
14078,71.0,1,105,12.0,0.0
14079,59.0,3,105,13.0,0.0
14080,47.0,15,105,14.0,0.0
14081,41.0,19,1,15.0,0.0
14082,41.0,19,1,15.0,0.0
14083,41.0,13,1,15.0,0.0
14084,41.0,20,20,15.0,0.0
14085,86.0,2,60,10.0,0.0
14086,74.0,3,60,11.0,0.0
14087,59.0,4,60,12.0,0.0
14088,68.0,0,60,12.0,0.0
14089,53.0,3,60,13.0,0.0
14090,41.0,20,20,15.0,0.0
14091,41.0,0,60,14.0,0.0
14092,41.0,8,0,15.0,0.0
14093,41.0,18,2,15.0,0.0
14094,41.0,6,20,15.0,0.0
14095,41.0,55,16,15.0,0.0
14096,89.0,2,240,10.0,0.0
14097,89.0,0,715,0.0,0.0
14098,81.0,5,715,0.0,0.0
14099,69.0,0,240,11.0,0.0
14100,77.0,118,240,11.0,0.0
14101,72.0,0,60,6.0,0.0
14102,81.0,1,60,6.0,0.0
14103,57.0,0,60,7.0,0.0
14104,60.0,0,60,7.0,0.0
14105,72.0,0,60,1.0,0.0
14106,81.0,1,60,1.0,0.0
14107,69.0,1,60,12.0,0.0
14108,60.0,0,60,12.0,0.0
14109,72.0,0,715,2.0,0.0
14110,81.0,3,715,2.0,0.0
14111,41.0,1,720,5.0,0.0
14112,69.0,1,60,5.0,0.0
14113,53.0,2,60,8.0,0.0
14114,41.0,2,60,13.0,0.0
14115,41.0,1,60,15.0,0.0
14116,41.0,233,715,3.0,0.0
14117,57.0,0,715,3.0,0.0
14118,29.0,168,60,14.0,0.0
14119,84.0,2,120,10.0,0.0
14120,72.0,288,120,11.0,0.0
14121,81.0,2,170,10.0,0.0
14122,69.0,58,170,11.0,0.0
14123,79.0,2,50,10.0,0.0
14124,67.0,4,50,11.0,0.0
14125,77.0,2,240,10.0,0.0
14126,81.0,0,715,0.0,0.0
14127,89.0,0,715,0.0,0.0
14128,65.0,3,240,11.0,0.0
14129,69.0,1,710,6.0,0.0
14130,77.0,0,710,6.0,0.0
14131,48.0,0,0,4.0,0.0
14132,60.0,2,0,4.0,0.0
14133,69.0,0,715,1.0,0.0
14134,77.0,2,715,1.0,0.0
14135,65.0,115,240,12.0,0.0
14136,69.0,6,715,2.0,0.0
14137,72.0,0,715,2.0,0.0
14138,53.0,3,710,5.0,0.0
14139,41.0,0,710,5.0,0.0
14140,41.0,122,715,3.0,0.0
14141,57.0,0,715,3.0,0.0
14142,72.0,2,120,10.0,0.0
14143,60.0,3,120,11.0,0.0
14144,60.0,285,120,12.0,0.0
14145,69.0,2,170,10.0,0.0
14146,69.0,3,170,11.0,0.0
14147,57.0,55,170,12.0,0.0
14148,67.0,2,50,10.0,0.0
14149,67.0,1,50,11.0,0.0
14150,55.0,1,50,12.0,0.0
14151,65.0,2,240,10.0,0.0
14152,89.0,0,715,0.0,0.0
14153,81.0,0,715,0.0,0.0
14154,65.0,3,240,11.0,0.0
14155,77.0,1,710,6.0,0.0
14156,69.0,0,710,6.0,0.0
14157,60.0,2,710,4.0,0.0
14158,48.0,0,710,4.0,0.0
14159,77.0,0,715,1.0,0.0
14160,69.0,2,715,1.0,0.0
14161,53.0,115,240,12.0,0.0
14162,53.0,0,710,5.0,0.0
14163,72.0,6,715,2.0,0.0
14164,69.0,0,715,2.0,0.0
14165,41.0,3,710,5.0,0.0
14166,53.0,4,120,13.0,0.0
14167,57.0,112,715,3.0,0.0
14168,41.0,0,715,3.0,0.0
14169,41.0,107,120,14.0,0.0
14170,60.0,2,120,10.0,0.0
14171,60.0,3,120,11.0,0.0
14172,48.0,124,120,12.0,0.0
14173,48.0,2,120,13.0,0.0
14174,36.0,222,120,14.0,0.0
14175,57.0,2,120,10.0,0.0
14176,57.0,6,120,11.0,0.0
14177,89.0,0,685,0.0,0.0
14178,81.0,2,685,0.0,0.0
14179,69.0,1,685,6.0,0.0
14180,77.0,0,685,6.0,0.0
14181,77.0,0,685,1.0,0.0
14182,48.0,2,685,4.0,0.0
14183,69.0,0,685,1.0,0.0
14184,60.0,0,685,4.0,0.0
14185,72.0,6,685,2.0,0.0
14186,41.0,0,685,5.0,0.0
14187,53.0,0,685,5.0,0.0
14188,69.0,0,685,2.0,0.0
14189,57.0,3,120,12.0,0.0
14190,45.0,1,120,13.0,0.0
14191,33.0,350,120,14.0,0.0
14192,57.0,39,685,3.0,0.0
14193,41.0,0,685,3.0,0.0
14194,55.0,0,120,10.0,0.0
14195,55.0,5,120,11.0,0.0
14196,55.0,4,120,12.0,0.0
14197,43.0,4,120,13.0,0.0
14198,31.0,192,120,14.0,0.0
14199,77.0,0,720,10.0,0.0
14200,69.0,1,720,10.0,0.0
14201,89.0,1,720,0.0,0.0
14202,81.0,0,720,0.0,0.0
14203,69.0,0,720,11.0,0.0
14204,60.0,1,720,11.0,0.0
14205,69.0,1,720,6.0,0.0
14206,60.0,0,720,6.0,0.0
14207,48.0,0,720,7.0,0.0
14208,57.0,0,720,7.0,0.0
14209,69.0,1,720,1.0,0.0
14210,60.0,0,720,4.0,0.0
14211,48.0,0,720,4.0,0.0
14212,77.0,0,720,1.0,0.0
14213,57.0,1,720,12.0,0.0
14214,48.0,0,720,12.0,0.0
14215,53.0,0,720,5.0,0.0
14216,41.0,1,720,5.0,0.0
14217,72.0,0,720,2.0,0.0
14218,69.0,0,720,2.0,0.0
14219,41.0,2,720,8.0,0.0
14220,41.0,7,8,15.0,0.0
14221,41.0,3,720,13.0,0.0
14222,29.0,720,720,14.0,0.0
14223,29.0,0,720,3.0,0.0
14224,41.0,0,720,3.0,0.0
14225,57.0,0,720,3.0,0.0
14226,41.0,0,2,15.0,0.0
14227,41.0,5,2,15.0,0.0
14228,41.0,7,0,15.0,0.0
14229,41.0,6,1,15.0,0.0
14230,41.0,7,7,15.0,0.0
14231,41.0,8,7,15.0,0.0
14232,41.0,7,0,15.0,0.0
14233,41.0,8,7,15.0,0.0
14234,41.0,7,7,15.0,0.0
14235,41.0,8,7,15.0,0.0
14236,41.0,8,7,15.0,0.0
14237,41.0,6,1,15.0,0.0
14238,41.0,7,0,15.0,0.0
14239,41.0,7,7,15.0,0.0
14240,41.0,8,7,15.0,0.0
14241,41.0,7,7,15.0,0.0
14242,41.0,8,7,15.0,0.0
14243,41.0,6,1,15.0,0.0
14244,41.0,7,0,15.0,0.0
14245,41.0,6,1,15.0,0.0
14246,41.0,8,7,15.0,0.0
14247,41.0,8,7,15.0,0.0
14248,41.0,6,1,15.0,0.0
14249,41.0,7,0,15.0,0.0
14250,41.0,7,0,15.0,0.0
14251,41.0,6,1,15.0,0.0
14252,41.0,8,7,15.0,0.0
14253,41.0,8,7,15.0,0.0
14254,41.0,6,1,15.0,0.0
14255,41.0,6,1,15.0,0.0
14256,41.0,8,7,15.0,0.0
14257,41.0,8,7,15.0,0.0
14258,41.0,6,1,15.0,0.0
14259,41.0,8,7,15.0,0.0
14260,41.0,8,7,15.0,0.0
14261,41.0,7,7,15.0,0.0
14262,41.0,7,7,15.0,0.0
14263,41.0,7,0,15.0,0.0
14264,41.0,7,0,15.0,0.0
14265,41.0,7,0,15.0,0.0
14266,41.0,8,7,15.0,0.0
14267,41.0,6,1,15.0,0.0
14268,41.0,8,7,15.0,0.0
14269,41.0,7,7,15.0,0.0
14270,41.0,7,7,15.0,0.0
14271,41.0,8,7,15.0,0.0
14272,41.0,8,7,15.0,0.0
14273,41.0,8,7,15.0,0.0
14274,41.0,6,1,15.0,0.0
14275,41.0,6,1,15.0,0.0
14276,41.0,7,0,15.0,0.0
14277,41.0,8,7,15.0,0.0
14278,41.0,8,7,15.0,0.0
14279,41.0,7,7,15.0,0.0
14280,41.0,7,7,15.0,0.0
14281,41.0,7,0,15.0,0.0
14282,41.0,7,7,15.0,0.0
14283,41.0,9,7,15.0,0.0
14284,41.0,7,0,15.0,0.0
14285,41.0,8,7,15.0,0.0
14286,41.0,7,0,15.0,0.0
14287,41.0,8,7,15.0,0.0
14288,41.0,6,1,15.0,0.0
14289,41.0,7,0,15.0,0.0
14290,41.0,6,1,15.0,0.0
14291,41.0,4,3,15.0,0.0
