,note,step,duration,channel,velocity
0,44.0,0,240,1.0,65.0
1,63.0,0,360,0.0,78.0
2,72.0,0,360,0.0,78.0
3,51.0,240,240,1.0,65.0
4,68.0,120,120,0.0,78.0
5,56.0,0,240,1.0,65.0
6,60.0,0,240,1.0,65.0
7,60.0,120,0,0.0,78.0
8,68.0,0,120,0.0,78.0
9,63.0,0,0,0.0,78.0
10,72.0,120,0,0.0,78.0
11,48.0,0,240,1.0,65.0
12,51.0,0,240,1.0,65.0
13,56.0,0,240,1.0,65.0
14,32.0,0,240,1.0,65.0
15,60.0,0,0,0.0,78.0
16,60.0,0,240,1.0,65.0
17,56.0,0,0,1.0,65.0
18,68.0,120,0,0.0,78.0
19,51.0,0,0,1.0,65.0
20,72.0,0,120,0.0,78.0
21,63.0,120,120,0.0,78.0
22,48.0,0,240,1.0,65.0
23,73.0,0,180,0.0,78.0
24,75.0,180,30,0.0,78.0
25,44.0,120,240,1.0,65.0
26,73.0,30,30,0.0,78.0
27,65.0,0,240,0.0,78.0
28,68.0,0,0,0.0,78.0
29,63.0,0,240,0.0,78.0
30,68.0,240,0,0.0,78.0
31,61.0,30,240,1.0,65.0
32,53.0,0,240,1.0,65.0
33,49.0,0,240,1.0,65.0
34,72.0,0,240,0.0,78.0
35,61.0,0,240,0.0,78.0
36,53.0,0,240,1.0,65.0
37,56.0,0,240,1.0,65.0
38,70.0,0,240,0.0,78.0
39,32.0,0,240,1.0,65.0
40,63.0,240,360,0.0,78.0
41,68.0,0,360,0.0,78.0
42,72.0,0,360,0.0,78.0
43,60.0,240,240,1.0,65.0
44,51.0,0,0,1.0,65.0
45,56.0,0,0,1.0,65.0
46,68.0,120,0,0.0,78.0
47,48.0,0,240,1.0,65.0
48,75.0,120,120,0.0,78.0
49,72.0,0,0,0.0,78.0
50,41.0,120,240,1.0,65.0
51,68.0,120,0,0.0,78.0
52,72.0,0,0,0.0,78.0
53,77.0,0,360,0.0,78.0
54,68.0,120,0,0.0,78.0
55,65.0,240,240,1.0,65.0
56,60.0,0,240,1.0,65.0
57,56.0,0,240,1.0,65.0
58,53.0,0,240,1.0,65.0
59,72.0,0,120,0.0,78.0
60,75.0,120,120,0.0,78.0
61,51.0,0,240,1.0,65.0
62,44.0,0,240,1.0,65.0
63,41.0,0,240,1.0,65.0
64,77.0,120,360,0.0,78.0
65,72.0,0,360,0.0,78.0
66,68.0,0,360,0.0,78.0
67,65.0,0,240,1.0,65.0
68,53.0,240,240,1.0,65.0
69,72.0,0,120,0.0,78.0
70,68.0,120,120,0.0,78.0
71,60.0,0,240,1.0,65.0
72,56.0,0,240,1.0,65.0
73,68.0,0,120,0.0,78.0
74,72.0,0,120,0.0,78.0
75,75.0,120,120,0.0,78.0
76,44.0,0,240,1.0,65.0
77,51.0,120,240,1.0,65.0
78,79.0,0,120,0.0,78.0
79,72.0,120,0,0.0,78.0
80,77.0,120,120,0.0,78.0
81,39.0,0,240,1.0,65.0
82,67.0,0,0,0.0,78.0
83,60.0,0,240,1.0,65.0
84,55.0,0,240,1.0,65.0
85,51.0,0,240,1.0,65.0
86,75.0,0,240,0.0,78.0
87,59.0,0,240,1.0,65.0
88,43.0,240,240,1.0,65.0
89,65.0,0,240,0.0,78.0
90,74.0,0,240,0.0,78.0
91,53.0,0,240,1.0,65.0
92,71.0,0,240,0.0,78.0
93,36.0,240,240,1.0,65.0
94,67.0,120,0,0.0,78.0
95,75.0,0,360,0.0,78.0
96,72.0,0,360,0.0,78.0
97,60.0,240,240,1.0,65.0
98,51.0,120,0,1.0,65.0
99,55.0,0,240,1.0,65.0
100,63.0,0,120,0.0,78.0
101,63.0,0,120,0.0,78.0
102,67.0,0,120,0.0,78.0
103,48.0,0,240,1.0,65.0
104,72.0,120,120,0.0,78.0
105,44.0,120,240,1.0,65.0
106,63.0,0,360,0.0,78.0
107,72.0,0,360,0.0,78.0
108,60.0,120,120,0.0,78.0
109,56.0,240,240,1.0,65.0
110,51.0,0,240,1.0,65.0
111,68.0,0,0,0.0,78.0
112,60.0,0,240,1.0,65.0
113,60.0,120,120,0.0,78.0
114,72.0,0,120,0.0,78.0
115,63.0,120,120,0.0,78.0
116,48.0,0,240,1.0,65.0
117,51.0,0,240,1.0,65.0
118,56.0,0,240,1.0,65.0
119,32.0,120,240,1.0,65.0
120,63.0,0,360,0.0,78.0
121,72.0,0,360,0.0,78.0
122,60.0,0,0,0.0,78.0
123,68.0,120,0,0.0,78.0
124,60.0,0,240,1.0,65.0
125,56.0,0,240,1.0,65.0
126,51.0,0,0,1.0,65.0
127,48.0,0,240,1.0,65.0
128,56.0,0,240,1.0,65.0
129,72.0,0,120,0.0,78.0
130,63.0,120,120,0.0,78.0
131,73.0,0,180,0.0,78.0
132,75.0,180,30,0.0,78.0
133,68.0,30,0,0.0,78.0
134,73.0,30,30,0.0,78.0
135,44.0,0,240,1.0,65.0
136,65.0,120,240,0.0,78.0
137,63.0,0,240,0.0,78.0
138,72.0,0,240,0.0,78.0
139,68.0,0,0,0.0,78.0
140,53.0,240,0,1.0,65.0
141,61.0,0,240,1.0,65.0
142,49.0,0,240,1.0,65.0
143,56.0,0,240,1.0,65.0
144,61.0,0,240,0.0,78.0
145,68.0,240,0,0.0,78.0
146,70.0,0,240,0.0,78.0
147,32.0,0,240,1.0,65.0
148,72.0,0,360,0.0,78.0
149,63.0,0,360,0.0,78.0
150,60.0,0,240,1.0,65.0
151,51.0,0,0,1.0,65.0
152,68.0,0,0,0.0,78.0
153,56.0,120,0,1.0,65.0
154,48.0,0,240,1.0,65.0
155,75.0,120,120,0.0,78.0
156,72.0,120,0,0.0,78.0
157,41.0,0,240,1.0,65.0
158,77.0,0,360,0.0,78.0
159,68.0,0,360,0.0,78.0
160,53.0,0,240,1.0,65.0
161,56.0,0,240,1.0,65.0
162,65.0,240,240,1.0,65.0
163,60.0,0,240,1.0,65.0
164,68.0,0,0,0.0,78.0
165,72.0,0,0,0.0,78.0
166,51.0,0,240,1.0,65.0
167,75.0,120,120,0.0,78.0
168,44.0,120,240,1.0,65.0
169,41.0,0,240,1.0,65.0
170,68.0,0,360,0.0,78.0
171,72.0,120,0,0.0,78.0
172,77.0,0,360,0.0,78.0
173,53.0,0,240,1.0,65.0
174,56.0,0,240,1.0,65.0
175,60.0,0,240,1.0,65.0
176,68.0,0,0,0.0,78.0
177,65.0,240,240,1.0,65.0
178,72.0,0,120,0.0,78.0
179,75.0,120,120,0.0,78.0
180,44.0,120,240,1.0,65.0
181,51.0,0,240,1.0,65.0
182,79.0,0,120,0.0,78.0
183,77.0,120,120,0.0,78.0
184,72.0,0,240,0.0,78.0
185,67.0,120,240,0.0,78.0
186,39.0,0,240,1.0,65.0
187,75.0,0,240,0.0,78.0
188,67.0,120,240,0.0,78.0
189,72.0,0,240,0.0,78.0
190,51.0,0,240,1.0,65.0
191,55.0,0,240,1.0,65.0
192,60.0,0,240,1.0,65.0
193,71.0,240,240,0.0,78.0
194,65.0,0,240,0.0,78.0
195,74.0,0,240,0.0,78.0
196,43.0,0,240,1.0,65.0
197,59.0,0,240,1.0,65.0
198,53.0,0,240,1.0,65.0
199,36.0,0,240,1.0,65.0
200,67.0,0,360,0.0,78.0
201,75.0,0,360,0.0,78.0
202,72.0,0,0,0.0,78.0
203,63.0,120,0,0.0,78.0
204,67.0,0,120,0.0,78.0
205,60.0,240,240,1.0,65.0
206,55.0,0,240,1.0,65.0
207,51.0,0,0,1.0,65.0
208,72.0,0,120,0.0,78.0
209,67.0,0,120,0.0,78.0
210,75.0,120,120,0.0,78.0
211,55.0,0,240,1.0,65.0
212,48.0,0,240,1.0,65.0
213,39.0,0,240,1.0,65.0
214,75.0,0,360,0.0,78.0
215,70.0,120,360,0.0,78.0
216,63.0,0,360,0.0,78.0
217,67.0,0,0,0.0,78.0
218,73.0,0,360,0.0,78.0
219,51.0,0,0,1.0,65.0
220,55.0,120,0,1.0,65.0
221,61.0,0,240,1.0,65.0
222,70.0,0,120,0.0,78.0
223,63.0,0,0,0.0,78.0
224,70.0,0,120,0.0,78.0
225,67.0,0,120,0.0,78.0
226,73.0,0,120,0.0,78.0
227,75.0,120,120,0.0,78.0
228,44.0,120,240,1.0,65.0
229,63.0,0,360,0.0,78.0
230,68.0,0,360,0.0,78.0
231,72.0,0,360,0.0,78.0
232,75.0,0,360,0.0,78.0
233,72.0,0,120,0.0,78.0
234,68.0,120,120,0.0,78.0
235,60.0,0,240,1.0,65.0
236,51.0,0,0,1.0,65.0
237,56.0,0,0,1.0,65.0
238,72.0,0,120,0.0,78.0
239,68.0,120,120,0.0,78.0
240,75.0,120,120,0.0,78.0
241,32.0,0,240,1.0,65.0
242,78.0,0,360,0.0,78.0
243,72.0,0,360,0.0,78.0
244,80.0,0,360,0.0,78.0
245,68.0,0,0,0.0,78.0
246,75.0,120,0,0.0,78.0
247,56.0,240,240,1.0,65.0
248,66.0,0,240,1.0,65.0
249,60.0,0,240,1.0,65.0
250,75.0,0,0,0.0,78.0
251,68.0,0,0,0.0,78.0
252,72.0,0,0,0.0,78.0
253,60.0,120,240,1.0,65.0
254,56.0,0,240,1.0,65.0
255,80.0,120,120,0.0,78.0
256,78.0,0,120,0.0,78.0
257,37.0,120,240,1.0,65.0
258,80.0,0,360,0.0,78.0
259,68.0,120,0,0.0,78.0
260,73.0,0,360,0.0,78.0
261,77.0,0,360,0.0,78.0
262,73.0,0,0,0.0,78.0
263,56.0,0,0,1.0,65.0
264,61.0,0,0,1.0,65.0
265,65.0,0,240,1.0,65.0
266,77.0,120,0,0.0,78.0
267,68.0,0,120,0.0,78.0
268,80.0,120,120,0.0,78.0
269,46.0,0,240,1.0,65.0
270,34.0,0,240,1.0,65.0
271,68.0,120,360,0.0,78.0
272,77.0,0,360,0.0,78.0
273,74.0,120,0,0.0,78.0
274,82.0,0,360,0.0,78.0
275,70.0,0,0,0.0,78.0
276,77.0,0,0,0.0,78.0
277,62.0,0,240,1.0,65.0
278,58.0,0,240,1.0,65.0
279,56.0,0,240,1.0,65.0
280,65.0,240,240,1.0,65.0
281,70.0,120,120,0.0,78.0
282,74.0,0,120,0.0,78.0
283,53.0,0,240,1.0,65.0
284,62.0,0,240,1.0,65.0
285,80.0,120,120,0.0,78.0
286,58.0,0,240,1.0,65.0
287,80.0,0,120,0.0,78.0
288,39.0,120,240,1.0,65.0
289,70.0,0,240,0.0,78.0
290,73.0,0,240,0.0,78.0
291,79.0,120,120,0.0,78.0
292,51.0,0,240,1.0,65.0
293,58.0,240,0,1.0,65.0
294,61.0,0,240,1.0,65.0
295,77.0,120,240,0.0,78.0
296,73.0,0,240,0.0,78.0
297,68.0,0,240,0.0,78.0
298,51.0,0,240,1.0,65.0
299,63.0,0,240,1.0,65.0
300,73.0,0,240,0.0,78.0
301,75.0,0,240,0.0,78.0
302,67.0,0,240,0.0,78.0
303,44.0,0,240,1.0,65.0
304,72.0,240,360,0.0,78.0
305,63.0,0,360,0.0,78.0
306,68.0,0,120,0.0,78.0
307,51.0,120,0,1.0,65.0
308,56.0,0,0,1.0,65.0
309,60.0,0,240,1.0,65.0
310,60.0,0,0,0.0,78.0
311,68.0,0,120,0.0,78.0
312,48.0,0,240,1.0,65.0
313,72.0,0,120,0.0,78.0
314,63.0,120,120,0.0,78.0
315,32.0,120,240,1.0,65.0
316,63.0,0,360,0.0,78.0
317,72.0,0,360,0.0,78.0
318,56.0,0,240,1.0,65.0
319,60.0,0,0,0.0,78.0
320,60.0,240,240,1.0,65.0
321,51.0,120,0,1.0,65.0
322,68.0,0,0,0.0,78.0
323,72.0,0,120,0.0,78.0
324,63.0,120,120,0.0,78.0
325,56.0,0,240,1.0,65.0
326,48.0,0,240,1.0,65.0
327,73.0,0,180,0.0,78.0
328,75.0,180,30,0.0,44.0
329,68.0,120,240,0.0,78.0
330,73.0,30,30,0.0,105.0
331,65.0,0,240,0.0,78.0
332,44.0,0,240,1.0,65.0
333,61.0,0,240,1.0,65.0
334,53.0,0,240,1.0,65.0
335,72.0,0,240,0.0,78.0
336,68.0,0,240,0.0,78.0
337,63.0,30,240,0.0,78.0
338,49.0,0,240,1.0,65.0
339,56.0,240,240,1.0,65.0
340,53.0,0,240,1.0,65.0
341,61.0,0,240,0.0,78.0
342,68.0,0,0,0.0,78.0
343,70.0,0,240,0.0,78.0
344,32.0,240,240,1.0,65.0
345,63.0,0,360,0.0,78.0
346,68.0,120,0,0.0,78.0
347,72.0,0,360,0.0,78.0
348,56.0,240,240,1.0,65.0
349,51.0,0,240,1.0,65.0
350,60.0,0,240,1.0,65.0
351,68.0,0,120,0.0,78.0
352,75.0,0,120,0.0,78.0
353,72.0,120,120,0.0,78.0
354,56.0,0,240,1.0,65.0
355,48.0,120,240,1.0,65.0
356,51.0,0,240,1.0,65.0
357,41.0,0,240,1.0,65.0
358,68.0,120,360,0.0,78.0
359,77.0,0,360,0.0,78.0
360,72.0,0,360,0.0,78.0
361,65.0,240,240,1.0,65.0
362,60.0,0,240,1.0,65.0
363,56.0,0,240,1.0,65.0
364,53.0,0,240,1.0,65.0
365,72.0,0,120,0.0,78.0
366,68.0,120,0,0.0,78.0
367,72.0,0,120,0.0,78.0
368,75.0,120,120,0.0,78.0
369,44.0,0,240,1.0,65.0
370,51.0,0,240,1.0,65.0
371,41.0,0,240,1.0,65.0
372,68.0,120,360,0.0,78.0
373,72.0,0,360,0.0,78.0
374,77.0,0,360,0.0,78.0
375,60.0,0,240,1.0,65.0
376,72.0,0,120,0.0,78.0
377,68.0,120,120,0.0,78.0
378,56.0,0,240,1.0,65.0
379,65.0,240,240,1.0,65.0
380,53.0,0,240,1.0,65.0
381,68.0,120,120,0.0,78.0
382,72.0,0,120,0.0,78.0
383,44.0,0,240,1.0,65.0
384,75.0,120,120,0.0,78.0
385,51.0,0,240,1.0,65.0
386,80.0,0,120,0.0,78.0
387,75.0,120,120,0.0,78.0
388,68.0,0,240,0.0,78.0
389,36.0,120,240,1.0,65.0
390,39.0,0,240,1.0,65.0
391,67.0,120,240,0.0,78.0
392,73.0,0,240,0.0,78.0
393,55.0,0,240,1.0,65.0
394,51.0,240,240,1.0,65.0
395,63.0,0,240,0.0,78.0
396,70.0,0,240,0.0,78.0
397,61.0,0,240,0.0,78.0
398,68.0,0,240,0.0,78.0
399,63.0,0,240,0.0,78.0
400,60.0,240,240,0.0,78.0
401,44.0,0,240,1.0,65.0
402,51.0,120,0,1.0,65.0
403,56.0,240,240,1.0,65.0
404,63.0,0,0,0.0,78.0
405,68.0,0,0,0.0,78.0
406,72.0,0,120,0.0,78.0
407,72.0,0,120,0.0,78.0
408,75.0,120,120,0.0,78.0
409,60.0,0,240,1.0,65.0
410,56.0,0,240,1.0,65.0
411,39.0,0,240,1.0,65.0
412,75.0,0,360,0.0,78.0
413,73.0,0,360,0.0,78.0
414,67.0,0,0,0.0,78.0
415,63.0,0,0,0.0,78.0
416,70.0,120,0,0.0,78.0
417,51.0,240,240,1.0,65.0
418,55.0,0,0,1.0,65.0
419,61.0,0,240,1.0,65.0
420,70.0,0,120,0.0,78.0
421,63.0,120,120,0.0,78.0
422,67.0,0,120,0.0,78.0
423,73.0,0,120,0.0,78.0
424,51.0,0,240,1.0,65.0
425,75.0,0,0,0.0,78.0
426,44.0,0,240,1.0,65.0
427,68.0,0,360,0.0,78.0
428,72.0,120,0,0.0,78.0
429,63.0,120,360,0.0,78.0
430,68.0,0,120,0.0,78.0
431,51.0,0,0,1.0,65.0
432,60.0,0,240,1.0,65.0
433,56.0,120,0,1.0,65.0
434,68.0,0,120,0.0,78.0
435,72.0,0,120,0.0,78.0
436,75.0,120,120,0.0,78.0
437,32.0,0,240,1.0,65.0
438,68.0,120,0,0.0,78.0
439,72.0,0,0,0.0,78.0
440,80.0,120,360,0.0,78.0
441,78.0,0,360,0.0,78.0
442,75.0,0,0,0.0,78.0
443,56.0,240,240,1.0,65.0
444,60.0,120,0,1.0,65.0
445,66.0,0,240,1.0,65.0
446,75.0,0,120,0.0,78.0
447,72.0,0,120,0.0,78.0
448,68.0,0,120,0.0,78.0
449,56.0,0,240,1.0,65.0
450,78.0,120,120,0.0,78.0
451,80.0,0,0,0.0,78.0
452,37.0,120,240,1.0,65.0
453,68.0,0,360,0.0,78.0
454,73.0,0,360,0.0,78.0
455,77.0,120,0,0.0,78.0
456,68.0,0,120,0.0,78.0
457,56.0,0,0,1.0,65.0
458,61.0,120,0,1.0,65.0
459,65.0,240,240,1.0,65.0
460,77.0,0,0,0.0,78.0
461,73.0,0,0,0.0,78.0
462,68.0,0,120,0.0,78.0
463,80.0,120,120,0.0,78.0
464,34.0,0,240,1.0,65.0
465,46.0,0,240,1.0,65.0
466,77.0,120,0,0.0,78.0
467,70.0,0,0,0.0,78.0
468,68.0,120,360,0.0,78.0
469,74.0,0,0,0.0,78.0
470,82.0,0,360,0.0,78.0
471,58.0,240,240,1.0,65.0
472,56.0,0,240,1.0,65.0
473,62.0,0,240,1.0,65.0
474,70.0,0,0,0.0,78.0
475,77.0,0,0,0.0,78.0
476,65.0,0,240,1.0,65.0
477,74.0,0,120,0.0,78.0
478,58.0,120,240,1.0,65.0
479,62.0,0,240,1.0,65.0
480,53.0,0,240,1.0,65.0
481,80.0,0,0,0.0,78.0
482,70.0,0,240,0.0,78.0
483,73.0,0,240,0.0,78.0
484,39.0,120,240,1.0,65.0
485,79.0,120,120,0.0,78.0
486,73.0,0,240,0.0,78.0
487,68.0,120,240,0.0,78.0
488,61.0,0,240,1.0,65.0
489,58.0,0,240,1.0,65.0
490,51.0,0,240,1.0,65.0
491,77.0,0,240,0.0,78.0
492,58.0,0,240,1.0,65.0
493,63.0,0,240,1.0,65.0
494,67.0,0,240,0.0,78.0
495,73.0,0,240,0.0,78.0
496,75.0,0,0,0.0,78.0
497,51.0,0,240,1.0,65.0
498,84.0,0,240,0.0,78.0
499,32.0,240,240,1.0,65.0
500,68.0,79,80,0.0,78.0
501,60.0,0,80,0.0,78.0
502,63.0,0,80,0.0,78.0
503,72.0,80,80,0.0,78.0
504,51.0,240,240,1.0,65.0
505,60.0,0,240,1.0,65.0
506,56.0,0,240,1.0,65.0
507,72.0,0,79,0.0,78.0
508,80.0,0,79,0.0,78.0
509,75.0,0,80,0.0,78.0
510,84.0,79,80,0.0,78.0
511,72.0,0,80,0.0,78.0
512,80.0,80,80,0.0,78.0
513,51.0,0,240,1.0,65.0
514,48.0,81,240,1.0,65.0
515,56.0,0,240,1.0,65.0
516,75.0,0,240,0.0,78.0
517,84.0,0,240,0.0,78.0
518,32.0,81,240,1.0,65.0
519,60.0,79,80,0.0,78.0
520,68.0,0,80,0.0,78.0
521,63.0,80,80,0.0,78.0
522,72.0,0,80,0.0,78.0
523,56.0,0,240,1.0,65.0
524,51.0,81,0,1.0,65.0
525,60.0,240,240,1.0,65.0
526,80.0,0,79,0.0,78.0
527,72.0,0,79,0.0,78.0
528,75.0,0,80,0.0,78.0
529,84.0,79,80,0.0,78.0
530,72.0,80,80,0.0,78.0
531,80.0,0,80,0.0,78.0
532,56.0,0,240,1.0,65.0
533,48.0,0,240,1.0,65.0
534,85.0,0,180,0.0,78.0
535,87.0,180,30,0.0,78.0
536,37.0,0,240,1.0,65.0
537,85.0,30,30,0.0,78.0
538,80.0,81,240,0.0,78.0
539,77.0,0,240,0.0,78.0
540,84.0,0,240,0.0,78.0
541,75.0,0,240,0.0,78.0
542,49.0,0,240,1.0,65.0
543,80.0,0,0,0.0,78.0
544,56.0,0,0,1.0,65.0
545,53.0,0,240,1.0,65.0
546,73.0,240,240,0.0,78.0
547,80.0,0,0,0.0,78.0
548,82.0,0,240,0.0,78.0
549,32.0,240,240,1.0,65.0
550,75.0,0,240,0.0,78.0
551,84.0,0,240,0.0,78.0
552,68.0,79,80,0.0,78.0
553,60.0,0,80,0.0,78.0
554,72.0,80,80,0.0,78.0
555,63.0,0,80,0.0,78.0
556,56.0,0,240,1.0,65.0
557,51.0,240,240,1.0,65.0
558,60.0,0,240,1.0,65.0
559,72.0,81,79,0.0,78.0
560,80.0,0,79,0.0,78.0
561,84.0,79,80,0.0,78.0
562,75.0,0,80,0.0,78.0
563,56.0,0,240,1.0,65.0
564,51.0,0,240,1.0,65.0
565,48.0,0,240,1.0,65.0
566,89.0,81,240,0.0,78.0
567,84.0,0,321,0.0,78.0
568,80.0,0,240,0.0,78.0
569,41.0,0,240,1.0,65.0
570,77.0,80,321,0.0,78.0
571,68.0,79,80,0.0,78.0
572,60.0,0,80,0.0,78.0
573,72.0,80,80,0.0,78.0
574,63.0,0,80,0.0,78.0
575,53.0,0,240,1.0,65.0
576,56.0,0,240,1.0,65.0
577,60.0,240,240,1.0,65.0
578,80.0,0,79,0.0,78.0
579,72.0,0,79,0.0,78.0
580,84.0,0,80,0.0,78.0
581,75.0,79,80,0.0,78.0
582,56.0,0,240,1.0,65.0
583,51.0,81,240,1.0,65.0
584,44.0,0,240,1.0,65.0
585,84.0,0,321,0.0,78.0
586,41.0,81,240,1.0,65.0
587,89.0,0,240,0.0,78.0
588,77.0,80,321,0.0,78.0
589,80.0,0,240,0.0,78.0
590,60.0,0,80,0.0,78.0
591,68.0,79,80,0.0,78.0
592,63.0,80,80,0.0,78.0
593,72.0,0,80,0.0,78.0
594,56.0,0,240,1.0,65.0
595,53.0,0,240,1.0,65.0
596,60.0,240,240,1.0,65.0
597,80.0,0,79,0.0,78.0
598,72.0,81,79,0.0,78.0
599,84.0,0,0,0.0,78.0
600,75.0,79,80,0.0,78.0
601,56.0,0,240,1.0,65.0
602,51.0,0,240,1.0,65.0
603,44.0,0,240,1.0,65.0
604,92.0,81,120,0.0,78.0
605,36.0,0,240,1.0,65.0
606,80.0,80,321,0.0,78.0
607,87.0,120,120,0.0,78.0
608,39.0,0,240,1.0,65.0
609,85.0,120,240,0.0,78.0
610,79.0,0,240,0.0,78.0
611,73.0,0,240,0.0,78.0
612,55.0,0,240,1.0,65.0
613,61.0,240,240,1.0,65.0
614,51.0,0,240,1.0,65.0
615,82.0,0,240,0.0,78.0
616,73.0,0,240,0.0,78.0
617,70.0,0,240,0.0,78.0
618,72.0,0,240,0.0,78.0
619,32.0,240,240,1.0,65.0
620,80.0,0,240,0.0,78.0
621,68.0,0,240,0.0,78.0
622,51.0,0,240,1.0,65.0
623,56.0,240,240,1.0,65.0
624,60.0,0,240,1.0,65.0
