,note,step,duration,channel,velocity
0,48.0,10,2004,0.0,92.0
1,36.0,2,2174,0.0,85.0
2,60.0,0,3552,0.0,102.0
3,51.0,26,520,0.0,24.0
4,39.0,6,528,0.0,26.0
5,63.0,3480,1018,0.0,38.0
6,42.0,840,598,0.0,35.0
7,54.0,0,612,0.0,27.0
8,66.0,2,866,0.0,52.0
9,55.0,38,446,0.0,38.0
10,43.0,0,544,0.0,42.0
11,67.0,738,854,0.0,68.0
12,56.0,8,432,0.0,35.0
13,44.0,24,570,0.0,33.0
14,68.0,702,1030,0.0,68.0
15,36.0,6,476,0.0,26.0
16,48.0,44,524,0.0,29.0
17,60.0,826,954,0.0,44.0
18,35.0,12,622,0.0,14.0
19,47.0,41,666,0.0,17.0
20,59.0,907,781,0.0,34.0
21,66.0,14,720,0.0,40.0
22,72.0,10,739,0.0,59.0
23,75.0,1464,762,0.0,65.0
24,71.0,12,242,0.0,31.0
25,67.0,8,270,0.0,37.0
26,74.0,736,294,0.0,46.0
27,68.0,36,340,0.0,31.0
28,72.0,14,452,0.0,29.0
29,78.0,724,698,0.0,43.0
30,71.0,20,660,0.0,14.0
31,79.0,938,682,0.0,14.0
32,67.0,34,652,0.0,12.0
33,46.0,8,1502,0.0,106.0
34,34.0,2,2130,0.0,105.0
35,58.0,3132,3222,0.0,112.0
36,37.0,18,462,0.0,39.0
37,49.0,22,492,0.0,40.0
38,61.0,3070,812,0.0,65.0
39,64.0,706,389,0.0,75.0
40,65.0,368,210,0.0,77.0
41,64.0,172,112,0.0,73.0
42,62.0,102,138,0.0,78.0
43,40.0,18,976,0.0,45.0
44,52.0,0,990,0.0,46.0
45,64.0,126,418,0.0,69.0
46,53.0,24,216,0.0,26.0
47,41.0,2,242,0.0,51.0
48,65.0,356,536,0.0,63.0
49,43.0,22,492,0.0,34.0
50,67.0,400,1026,0.0,64.0
51,46.0,4,460,0.0,28.0
52,34.0,38,576,0.0,33.0
53,58.0,780,1040,0.0,52.0
54,45.0,878,758,0.0,32.0
55,57.0,14,812,0.0,33.0
56,33.0,0,946,0.0,42.0
57,64.0,22,724,0.0,48.0
58,73.0,1634,778,0.0,44.0
59,70.0,14,798,0.0,42.0
60,69.0,12,322,0.0,27.0
61,65.0,30,322,0.0,8.0
62,72.0,750,384,0.0,49.0
63,73.0,804,434,0.0,41.0
64,70.0,14,424,0.0,35.0
65,76.0,0,558,0.0,51.0
66,72.0,2,548,0.0,28.0
67,77.0,918,570,0.0,31.0
68,69.0,22,656,0.0,13.0
69,32.0,2,1734,0.0,83.0
70,44.0,6,3135,0.0,85.0
71,56.0,3264,3250,0.0,103.0
72,48.0,8,413,0.0,29.0
73,36.0,14,676,0.0,30.0
74,60.0,3130,786,0.0,55.0
75,37.0,0,474,0.0,43.0
76,49.0,18,506,0.0,50.0
77,61.0,684,934,0.0,68.0
78,53.0,6,421,0.0,44.0
79,41.0,10,424,0.0,32.0
80,65.0,698,764,0.0,80.0
81,44.0,32,714,0.0,24.0
82,68.0,630,846,0.0,65.0
83,56.0,8,838,0.0,38.0
84,61.0,664,874,0.0,50.0
85,54.0,398,292,0.0,28.0
86,44.0,12,768,0.0,21.0
87,51.0,360,122,0.0,18.0
88,54.0,320,226,0.0,32.0
89,44.0,326,370,0.0,34.0
90,54.0,312,174,0.0,32.0
91,60.0,858,2170,0.0,45.0
92,51.0,54,238,0.0,21.0
93,54.0,224,214,0.0,37.0
94,62.0,312,810,0.0,63.0
95,54.0,262,322,0.0,42.0
96,63.0,356,778,0.0,70.0
97,44.0,30,930,0.0,29.0
98,54.0,276,196,0.0,48.0
99,51.0,36,596,0.0,35.0
100,66.0,340,824,0.0,83.0
101,54.0,280,300,0.0,41.0
102,70.0,332,802,0.0,88.0
103,44.0,38,1014,0.0,38.0
104,51.0,22,542,0.0,37.0
105,54.0,316,282,0.0,43.0
106,60.0,310,862,0.0,78.0
107,53.0,322,218,0.0,37.0
108,44.0,36,660,0.0,36.0
109,49.0,278,236,0.0,37.0
110,53.0,318,132,0.0,28.0
111,44.0,284,308,0.0,29.0
112,53.0,298,274,0.0,33.0
113,61.0,400,2018,0.0,58.0
114,49.0,16,388,0.0,25.0
115,53.0,294,160,0.0,36.0
116,64.0,334,650,0.0,61.0
117,53.0,294,286,0.0,41.0
118,65.0,296,654,0.0,79.0
119,44.0,12,936,0.0,33.0
120,53.0,342,150,0.0,32.0
121,49.0,28,602,0.0,41.0
122,68.0,280,730,0.0,78.0
123,53.0,324,258,0.0,44.0
124,73.0,272,642,0.0,64.0
125,44.0,0,848,0.0,33.0
126,49.0,24,296,0.0,39.0
127,61.0,268,410,0.0,74.0
128,53.0,336,120,0.0,37.0
129,54.0,364,284,0.0,46.0
130,45.0,10,810,0.0,72.0
131,51.0,304,204,0.0,47.0
132,54.0,284,224,0.0,47.0
133,60.0,370,1336,0.0,80.0
134,54.0,288,276,0.0,36.0
135,45.0,352,640,0.0,33.0
136,51.0,44,214,0.0,21.0
137,54.0,262,254,0.0,36.0
138,75.0,344,818,0.0,59.0
139,54.0,270,244,0.0,44.0
140,45.0,36,604,0.0,38.0
141,72.0,320,714,0.0,75.0
142,51.0,20,258,0.0,37.0
143,54.0,280,272,0.0,46.0
144,69.0,298,692,0.0,78.0
145,54.0,294,222,0.0,52.0
146,66.0,276,658,0.0,79.0
147,45.0,20,728,0.0,57.0
148,51.0,34,250,0.0,48.0
149,63.0,264,308,0.0,80.0
150,54.0,280,172,0.0,42.0
151,54.0,332,310,0.0,62.0
152,51.0,298,232,0.0,56.0
153,46.0,16,910,0.0,96.0
154,54.0,296,256,0.0,50.0
155,58.0,338,1252,0.0,103.0
156,54.0,305,300,0.0,52.0
157,46.0,313,629,0.0,65.0
158,51.0,8,276,0.0,42.0
159,54.0,314,258,0.0,35.0
160,78.0,344,768,0.0,76.0
161,54.0,290,302,0.0,34.0
162,75.0,340,782,0.0,68.0
163,46.0,12,788,0.0,42.0
164,51.0,26,280,0.0,31.0
165,54.0,282,236,0.0,37.0
166,70.0,310,706,0.0,65.0
167,54.0,260,274,0.0,35.0
168,66.0,296,670,0.0,49.0
169,51.0,24,276,0.0,22.0
170,46.0,36,1036,0.0,39.0
171,54.0,300,148,0.0,29.0
172,63.0,324,772,0.0,34.0
173,63.0,340,98,0.0,41.0
174,66.0,0,104,0.0,33.0
175,59.0,440,652,0.0,26.0
176,66.0,4,66,0.0,42.0
177,63.0,292,76,0.0,36.0
178,63.0,276,74,0.0,42.0
179,66.0,4,92,0.0,32.0
180,63.0,292,92,0.0,34.0
181,66.0,18,96,0.0,31.0
182,63.0,284,80,0.0,48.0
183,66.0,3,135,0.0,36.0
184,47.0,2,1874,0.0,37.0
185,63.0,12,92,0.0,39.0
186,66.0,275,160,0.0,31.0
187,63.0,16,88,0.0,48.0
188,66.0,275,154,0.0,38.0
189,51.0,3,661,0.0,62.0
190,63.0,2,92,0.0,34.0
191,66.0,8,130,0.0,46.0
192,63.0,6,92,0.0,38.0
193,66.0,292,152,0.0,55.0
194,63.0,2,84,0.0,42.0
195,54.0,294,690,0.0,74.0
196,66.0,274,132,0.0,30.0
197,63.0,288,76,0.0,47.0
198,66.0,14,74,0.0,50.0
199,58.0,10,568,0.0,81.0
200,63.0,16,98,0.0,18.0
201,66.0,264,138,0.0,36.0
202,63.0,14,80,0.0,29.0
203,66.0,266,132,0.0,28.0
204,63.0,294,90,0.0,26.0
205,66.0,8,84,0.0,38.0
206,59.0,8,694,0.0,53.0
207,47.0,32,334,0.0,49.0
208,63.0,280,82,0.0,31.0
209,66.0,0,114,0.0,40.0
210,64.0,6,126,0.0,71.0
211,66.0,3,179,0.0,65.0
212,64.0,316,166,0.0,68.0
213,66.0,2,186,0.0,68.0
214,64.0,14,140,0.0,51.0
215,66.0,268,180,0.0,65.0
216,64.0,18,134,0.0,55.0
217,66.0,260,178,0.0,51.0
218,46.0,302,1122,0.0,103.0
219,64.0,26,120,0.0,51.0
220,66.0,268,172,0.0,37.0
221,34.0,5,1442,0.0,104.0
222,64.0,24,78,0.0,38.0
223,66.0,278,138,0.0,22.0
224,64.0,14,72,0.0,23.0
225,66.0,312,120,0.0,45.0
226,64.0,3,98,0.0,49.0
227,66.0,278,132,0.0,59.0
228,64.0,2,82,0.0,48.0
229,66.0,12,132,0.0,50.0
230,49.0,6,846,0.0,58.0
231,64.0,10,90,0.0,54.0
232,66.0,270,138,0.0,55.0
233,64.0,10,62,0.0,44.0
234,54.0,283,682,0.0,86.0
235,66.0,10,130,0.0,46.0
236,64.0,18,76,0.0,47.0
237,66.0,254,138,0.0,48.0
238,58.0,272,644,0.0,92.0
239,64.0,12,73,0.0,39.0
240,66.0,270,142,0.0,32.0
241,64.0,22,66,0.0,35.0
242,66.0,296,130,0.0,43.0
243,61.0,6,476,0.0,59.0
244,64.0,3,67,0.0,34.0
245,66.0,14,75,0.0,52.0
246,46.0,274,338,0.0,76.0
247,64.0,5,58,0.0,54.0
248,66.0,288,137,0.0,53.0
249,64.0,0,168,0.0,92.0
250,61.0,0,180,0.0,85.0
251,67.0,7,194,0.0,94.0
252,64.0,6,168,0.0,59.0
253,61.0,10,184,0.0,60.0
254,67.0,288,204,0.0,58.0
255,64.0,0,136,0.0,61.0
256,61.0,270,138,0.0,55.0
257,67.0,3,157,0.0,72.0
258,45.0,298,948,0.0,102.0
259,64.0,4,112,0.0,38.0
260,61.0,283,134,0.0,47.0
261,67.0,10,134,0.0,41.0
262,64.0,6,76,0.0,49.0
263,67.0,8,98,0.0,63.0
264,61.0,314,110,0.0,46.0
265,33.0,3,1397,0.0,95.0
266,67.0,20,64,0.0,47.0
267,64.0,0,94,0.0,46.0
268,61.0,310,100,0.0,36.0
269,61.0,280,72,0.0,42.0
270,64.0,6,68,0.0,47.0
271,67.0,6,65,0.0,44.0
272,61.0,12,62,0.0,44.0
273,64.0,10,54,0.0,47.0
274,67.0,266,98,0.0,51.0
275,49.0,4,650,0.0,56.0
276,67.0,2,100,0.0,59.0
277,64.0,2,120,0.0,51.0
278,61.0,0,144,0.0,55.0
279,61.0,258,120,0.0,48.0
280,64.0,10,122,0.0,50.0
281,67.0,16,116,0.0,74.0
282,52.0,264,612,0.0,83.0
283,64.0,6,64,0.0,60.0
284,67.0,8,59,0.0,52.0
285,61.0,278,106,0.0,52.0
286,67.0,9,58,0.0,58.0
287,61.0,270,72,0.0,55.0
288,64.0,3,69,0.0,50.0
289,56.0,10,548,0.0,73.0
290,64.0,8,72,0.0,37.0
291,67.0,4,68,0.0,39.0
292,61.0,12,88,0.0,47.0
293,61.0,284,66,0.0,46.0
294,67.0,3,69,0.0,39.0
295,64.0,9,62,0.0,33.0
296,57.0,286,606,0.0,58.0
297,64.0,12,88,0.0,30.0
298,67.0,12,90,0.0,39.0
299,61.0,284,126,0.0,44.0
300,45.0,2,222,0.0,66.0
301,64.0,12,60,0.0,38.0
302,61.0,286,106,0.0,47.0
303,67.0,26,84,0.0,38.0
304,60.0,2,154,0.0,88.0
305,65.0,4,160,0.0,89.0
306,60.0,328,160,0.0,64.0
307,65.0,6,182,0.0,62.0
308,65.0,264,140,0.0,68.0
309,60.0,12,134,0.0,45.0
310,65.0,20,86,0.0,68.0
311,60.0,282,134,0.0,47.0
312,44.0,338,1068,0.0,84.0
313,32.0,2,1196,0.0,91.0
314,60.0,8,64,0.0,53.0
315,65.0,276,78,0.0,58.0
316,60.0,278,88,0.0,44.0
317,65.0,16,82,0.0,43.0
318,60.0,310,94,0.0,50.0
319,65.0,12,100,0.0,52.0
320,65.0,16,72,0.0,64.0
321,60.0,256,94,0.0,45.0
322,48.0,24,630,0.0,73.0
323,60.0,4,74,0.0,47.0
324,65.0,8,74,0.0,53.0
325,60.0,284,72,0.0,54.0
326,65.0,4,88,0.0,50.0
327,53.0,300,586,0.0,78.0
328,65.0,20,66,0.0,66.0
329,60.0,256,120,0.0,47.0
330,60.0,272,72,0.0,52.0
331,65.0,10,74,0.0,55.0
332,55.0,8,566,0.0,80.0
333,60.0,294,86,0.0,47.0
334,65.0,12,86,0.0,43.0
335,60.0,16,76,0.0,43.0
336,65.0,282,104,0.0,55.0
337,65.0,14,76,0.0,44.0
338,60.0,2,100,0.0,54.0
339,56.0,4,697,0.0,56.0
340,44.0,290,260,0.0,52.0
341,65.0,16,84,0.0,44.0
342,60.0,294,128,0.0,50.0
343,62.0,0,212,0.0,87.0
344,59.0,4,208,0.0,81.0
345,65.0,348,215,0.0,97.0
346,62.0,4,206,0.0,51.0
347,59.0,0,218,0.0,50.0
348,65.0,326,226,0.0,53.0
349,59.0,10,138,0.0,66.0
350,65.0,0,140,0.0,84.0
351,62.0,286,154,0.0,65.0
352,43.0,2,796,0.0,96.0
353,59.0,266,136,0.0,39.0
354,62.0,0,138,0.0,43.0
355,65.0,18,134,0.0,63.0
356,31.0,2,1192,0.0,101.0
357,59.0,310,82,0.0,34.0
358,65.0,12,70,0.0,42.0
359,62.0,2,71,0.0,34.0
360,59.0,300,74,0.0,23.0
361,65.0,8,69,0.0,44.0
362,62.0,4,74,0.0,37.0
363,59.0,3,71,0.0,36.0
364,65.0,300,90,0.0,51.0
365,62.0,3,91,0.0,51.0
366,59.0,6,98,0.0,40.0
367,65.0,0,108,0.0,53.0
368,62.0,267,112,0.0,54.0
369,65.0,16,78,0.0,29.0
370,62.0,4,102,0.0,37.0
371,59.0,298,108,0.0,37.0
372,47.0,7,890,0.0,47.0
373,59.0,10,74,0.0,39.0
374,62.0,274,88,0.0,40.0
375,65.0,2,78,0.0,29.0
376,50.0,4,608,0.0,77.0
377,59.0,8,78,0.0,23.0
378,65.0,294,94,0.0,42.0
379,62.0,12,75,0.0,30.0
380,59.0,2,70,0.0,23.0
381,65.0,16,75,0.0,34.0
382,62.0,270,106,0.0,42.0
383,54.0,2,544,0.0,53.0
384,59.0,280,72,0.0,29.0
385,62.0,8,76,0.0,31.0
386,65.0,12,74,0.0,28.0
387,65.0,6,68,0.0,47.0
388,59.0,2,72,0.0,25.0
389,62.0,270,88,0.0,35.0
390,65.0,15,74,0.0,46.0
391,62.0,3,111,0.0,41.0
392,59.0,292,134,0.0,26.0
393,55.0,2,788,0.0,60.0
394,43.0,4,288,0.0,74.0
395,65.0,320,90,0.0,54.0
396,62.0,9,82,0.0,41.0
397,59.0,3,101,0.0,46.0
398,58.0,396,175,0.0,62.0
399,63.0,10,188,0.0,52.0
400,58.0,336,154,0.0,64.0
401,63.0,12,154,0.0,55.0
402,58.0,10,156,0.0,47.0
403,63.0,258,178,0.0,41.0
404,58.0,2,112,0.0,46.0
405,63.0,272,140,0.0,35.0
406,30.0,4,1200,0.0,66.0
407,42.0,2,1240,0.0,71.0
408,58.0,315,83,0.0,33.0
409,63.0,24,63,0.0,38.0
410,63.0,279,82,0.0,35.0
411,58.0,14,74,0.0,39.0
412,63.0,13,80,0.0,38.0
413,58.0,265,99,0.0,42.0
414,58.0,5,77,0.0,45.0
415,63.0,278,86,0.0,42.0
416,58.0,275,98,0.0,49.0
417,63.0,2,96,0.0,35.0
418,46.0,0,728,0.0,72.0
419,58.0,294,102,0.0,55.0
420,63.0,2,116,0.0,42.0
421,51.0,6,630,0.0,70.0
422,58.0,280,92,0.0,45.0
423,63.0,16,82,0.0,32.0
424,58.0,8,82,0.0,45.0
425,63.0,264,112,0.0,46.0
426,53.0,10,600,0.0,59.0
427,58.0,296,126,0.0,39.0
428,63.0,2,126,0.0,39.0
429,58.0,304,94,0.0,44.0
430,63.0,14,80,0.0,31.0
431,58.0,8,100,0.0,27.0
432,63.0,336,126,0.0,37.0
433,54.0,16,836,0.0,50.0
434,42.0,3,245,0.0,43.0
435,58.0,291,78,0.0,40.0
436,63.0,24,64,0.0,36.0
437,63.0,438,398,0.0,53.0
438,61.0,356,164,0.0,59.0
439,61.0,260,144,0.0,53.0
440,52.0,6,954,0.0,43.0
441,61.0,263,123,0.0,41.0
442,58.0,2,1234,0.0,47.0
443,61.0,307,370,0.0,50.0
444,59.0,290,156,0.0,49.0
445,59.0,254,144,0.0,45.0
446,54.0,8,1970,0.0,11.0
447,51.0,38,808,0.0,38.0
448,42.0,6,2050,0.0,37.0
449,59.0,300,78,0.0,44.0
450,66.0,4,346,0.0,61.0
451,64.0,324,136,0.0,75.0
452,64.0,258,128,0.0,47.0
453,64.0,298,70,0.0,46.0
454,58.0,314,1028,0.0,73.0
455,49.0,0,1178,0.0,31.0
456,64.0,20,284,0.0,46.0
457,59.0,294,412,0.0,30.0
458,63.0,290,162,0.0,48.0
459,42.0,0,1822,0.0,26.0
460,54.0,12,1846,0.0,22.0
461,47.0,6,664,0.0,39.0
462,63.0,272,124,0.0,41.0
463,63.0,288,78,0.0,44.0
464,63.0,330,340,0.0,45.0
465,61.0,325,75,0.0,51.0
466,58.0,12,656,0.0,42.0
467,61.0,257,94,0.0,52.0
468,52.0,6,812,0.0,60.0
469,61.0,282,64,0.0,44.0
470,61.0,316,318,0.0,40.0
471,59.0,298,92,0.0,42.0
472,54.0,0,1786,0.0,20.0
473,42.0,0,1856,0.0,27.0
474,50.0,34,652,0.0,42.0
475,59.0,314,60,0.0,20.0
476,59.0,274,60,0.0,42.0
477,66.0,2,262,0.0,44.0
478,64.0,302,114,0.0,64.0
479,64.0,296,48,0.0,50.0
480,58.0,0,688,0.0,67.0
481,64.0,268,72,0.0,56.0
482,49.0,4,1182,0.0,36.0
483,64.0,312,296,0.0,49.0
484,62.0,234,144,0.0,46.0
485,62.0,272,112,0.0,29.0
486,42.0,4,1976,0.0,25.0
487,54.0,340,2050,0.0,20.0
488,59.0,14,878,0.0,34.0
489,62.0,310,100,0.0,46.0
490,47.0,46,978,0.0,29.0
491,62.0,372,236,0.0,50.0
492,62.0,311,140,0.0,31.0
493,59.0,20,620,0.0,40.0
494,62.0,312,82,0.0,28.0
495,55.0,3,959,0.0,25.0
496,62.0,282,88,0.0,38.0
497,43.0,16,1004,0.0,29.0
498,62.0,296,156,0.0,46.0
499,62.0,258,124,0.0,51.0
500,62.0,256,112,0.0,38.0
501,62.0,294,68,0.0,48.0
502,60.0,6,94,0.0,45.0
503,62.0,288,128,0.0,45.0
504,60.0,8,76,0.0,51.0
505,62.0,262,106,0.0,33.0
506,60.0,8,68,0.0,43.0
507,62.0,266,88,0.0,39.0
508,60.0,4,68,0.0,44.0
509,62.0,270,84,0.0,41.0
510,60.0,6,68,0.0,44.0
511,62.0,276,84,0.0,41.0
512,60.0,4,70,0.0,39.0
513,62.0,0,77,0.0,42.0
514,38.0,262,130,0.0,65.0
515,40.0,122,150,0.0,81.0
516,62.0,12,84,0.0,36.0
517,60.0,20,64,0.0,36.0
518,42.0,104,164,0.0,78.0
519,43.0,112,110,0.0,81.0
520,60.0,6,68,0.0,31.0
521,62.0,100,98,0.0,42.0
522,45.0,24,122,0.0,78.0
523,42.0,114,148,0.0,68.0
524,59.0,0,126,0.0,37.0
525,62.0,154,144,0.0,41.0
526,59.0,302,92,0.0,32.0
527,62.0,16,76,0.0,42.0
528,43.0,10,662,0.0,71.0
529,59.0,0,71,0.0,50.0
530,62.0,273,74,0.0,52.0
531,59.0,261,118,0.0,48.0
532,62.0,0,142,0.0,49.0
533,60.0,8,164,0.0,65.0
534,62.0,272,182,0.0,42.0
535,62.0,2,100,0.0,52.0
536,60.0,266,122,0.0,60.0
537,38.0,8,130,0.0,69.0
538,40.0,134,128,0.0,74.0
539,62.0,16,58,0.0,57.0
540,60.0,22,90,0.0,55.0
541,42.0,96,168,0.0,67.0
542,43.0,116,112,0.0,78.0
543,62.0,108,100,0.0,58.0
544,60.0,2,108,0.0,80.0
545,45.0,4,138,0.0,85.0
546,42.0,122,118,0.0,79.0
547,43.0,6,152,0.0,84.0
548,59.0,8,168,0.0,70.0
549,62.0,144,188,0.0,71.0
550,60.0,2,108,0.0,57.0
551,38.0,312,144,0.0,70.0
552,62.0,0,146,0.0,43.0
553,40.0,132,160,0.0,79.0
554,60.0,8,82,0.0,79.0
555,62.0,108,122,0.0,64.0
556,42.0,12,142,0.0,62.0
557,43.0,120,108,0.0,83.0
558,60.0,120,104,0.0,83.0
559,62.0,4,110,0.0,78.0
560,45.0,0,140,0.0,90.0
561,42.0,116,92,0.0,87.0
562,59.0,152,204,0.0,81.0
563,43.0,14,192,0.0,99.0
564,62.0,2,212,0.0,93.0
565,60.0,8,130,0.0,75.0
566,62.0,300,150,0.0,57.0
567,38.0,2,200,0.0,82.0
568,40.0,130,194,0.0,89.0
569,62.0,108,120,0.0,64.0
570,60.0,14,114,0.0,70.0
571,42.0,6,154,0.0,73.0
572,43.0,124,120,0.0,89.0
573,60.0,114,112,0.0,72.0
574,62.0,2,122,0.0,70.0
575,45.0,8,127,0.0,91.0
576,42.0,130,144,0.0,80.0
577,59.0,160,240,0.0,65.0
578,62.0,10,308,0.0,57.0
579,43.0,10,450,0.0,65.0
580,55.0,318,152,0.0,68.0
581,57.0,138,150,0.0,73.0
582,59.0,114,192,0.0,70.0
583,60.0,134,136,0.0,77.0
584,62.0,120,152,0.0,71.0
585,60.0,112,158,0.0,59.0
586,59.0,182,124,0.0,50.0
587,67.0,296,156,0.0,62.0
588,69.0,128,144,0.0,62.0
589,71.0,110,176,0.0,67.0
590,72.0,142,136,0.0,85.0
591,74.0,118,152,0.0,85.0
592,72.0,124,168,0.0,69.0
593,71.0,174,120,0.0,67.0
594,79.0,277,161,0.0,94.0
595,81.0,135,162,0.0,89.0
596,83.0,110,180,0.0,86.0
597,84.0,124,158,0.0,99.0
598,86.0,128,184,0.0,100.0
599,84.0,132,164,0.0,92.0
600,83.0,162,176,0.0,85.0
601,81.0,300,208,0.0,90.0
602,79.0,344,256,0.0,89.0
603,78.0,322,266,0.0,84.0
604,71.0,316,130,0.0,60.0
605,70.0,122,169,0.0,76.0
606,71.0,166,154,0.0,76.0
607,73.0,130,140,0.0,84.0
608,74.0,128,136,0.0,92.0
609,73.0,146,168,0.0,84.0
610,74.0,168,358,0.0,85.0
611,59.0,22,136,0.0,51.0
612,58.0,114,144,0.0,79.0
613,73.0,326,302,0.0,72.0
614,59.0,146,124,0.0,67.0
615,71.0,14,224,0.0,66.0
616,61.0,114,128,0.0,78.0
617,62.0,23,132,0.0,70.0
618,70.0,113,269,0.0,75.0
619,61.0,164,152,0.0,64.0
620,62.0,148,280,0.0,48.0
621,71.0,26,266,0.0,47.0
622,61.0,2,74,0.0,46.0
623,77.0,438,2834,0.0,94.0
624,69.0,324,278,0.0,47.0
625,55.0,10,3206,0.0,61.0
626,67.0,16,216,0.0,44.0
627,59.0,326,284,0.0,40.0
628,57.0,26,258,0.0,38.0
629,66.0,296,294,0.0,48.0
630,71.0,2,1030,0.0,54.0
631,55.0,10,480,0.0,45.0
632,59.0,326,322,0.0,30.0
633,74.0,8,344,0.0,66.0
634,73.0,3,405,0.0,48.0
635,58.0,314,428,0.0,49.0
636,65.0,322,1316,0.0,48.0
637,59.0,30,392,0.0,18.0
638,71.0,395,504,0.0,40.0
639,61.0,38,864,0.0,24.0
640,66.0,2,942,0.0,24.0
641,70.0,504,948,0.0,38.0
642,54.0,12,906,0.0,21.0
643,35.0,2,448,0.0,76.0
644,47.0,8,514,0.0,73.0
645,71.0,0,1172,0.0,86.0
646,74.0,2,1282,0.0,98.0
647,50.0,0,500,0.0,58.0
648,66.0,1718,1438,0.0,90.0
649,38.0,834,606,0.0,67.0
650,78.0,0,1542,0.0,103.0
651,76.0,610,150,0.0,56.0
652,74.0,153,157,0.0,56.0
653,70.0,135,790,0.0,57.0
654,42.0,14,766,0.0,29.0
655,73.0,12,806,0.0,61.0
656,54.0,10,830,0.0,29.0
657,59.0,0,694,0.0,38.0
658,74.0,1694,738,0.0,80.0
659,62.0,20,196,0.0,46.0
660,71.0,686,242,0.0,57.0
661,59.0,3,785,0.0,47.0
662,53.0,23,1706,0.0,47.0
663,74.0,190,852,0.0,71.0
664,71.0,849,274,0.0,34.0
665,62.0,6,270,0.0,29.0
666,68.0,5,2075,0.0,47.0
667,54.0,38,804,0.0,39.0
668,61.0,3,801,0.0,38.0
669,66.0,14,850,0.0,32.0
670,70.0,224,906,0.0,50.0
671,66.0,1637,260,0.0,58.0
672,66.0,794,310,0.0,81.0
673,71.0,930,680,0.0,62.0
674,59.0,12,210,0.0,55.0
675,50.0,6,320,0.0,45.0
676,38.0,0,408,0.0,44.0
677,54.0,1480,452,0.0,51.0
678,59.0,344,170,0.0,50.0
679,62.0,358,236,0.0,57.0
680,47.0,8,260,0.0,30.0
681,35.0,8,255,0.0,36.0
682,59.0,2,478,0.0,46.0
683,62.0,338,204,0.0,50.0
684,54.0,8,504,0.0,37.0
685,58.0,376,556,0.0,57.0
686,42.0,14,574,0.0,41.0
687,66.0,6,604,0.0,51.0
688,61.0,6,614,0.0,45.0
689,59.0,10,158,0.0,49.0
690,50.0,6,244,0.0,36.0
691,38.0,10,346,0.0,36.0
692,54.0,1402,396,0.0,48.0
693,59.0,334,104,0.0,62.0
694,62.0,336,222,0.0,64.0
695,35.0,0,230,0.0,33.0
696,47.0,16,302,0.0,31.0
697,59.0,4,360,0.0,39.0
698,62.0,332,150,0.0,41.0
699,61.0,2,430,0.0,28.0
700,54.0,18,444,0.0,23.0
701,58.0,10,478,0.0,42.0
702,66.0,354,598,0.0,41.0
703,42.0,6,652,0.0,28.0
704,59.0,0,162,0.0,21.0
705,50.0,10,198,0.0,23.0
706,54.0,1314,264,0.0,30.0
707,38.0,38,290,0.0,25.0
708,59.0,376,52,0.0,43.0
709,62.0,332,188,0.0,42.0
710,35.0,12,204,0.0,23.0
711,47.0,0,236,0.0,15.0
712,59.0,22,330,0.0,28.0
713,62.0,368,88,0.0,33.0
714,58.0,474,540,0.0,37.0
715,54.0,0,527,0.0,16.0
716,66.0,0,574,0.0,27.0
717,61.0,23,554,0.0,21.0
718,42.0,5,554,0.0,18.0
719,54.0,6,268,0.0,17.0
720,58.0,0,278,0.0,30.0
721,61.0,6,286,0.0,25.0
722,42.0,4,316,0.0,19.0
723,66.0,1340,358,0.0,25.0
724,54.0,3,235,0.0,18.0
725,42.0,1404,252,0.0,17.0
726,58.0,0,264,0.0,32.0
727,61.0,3,272,0.0,23.0
728,66.0,0,375,0.0,23.0
729,66.0,942,382,0.0,42.0
730,66.0,672,564,0.0,52.0
731,66.0,806,506,0.0,36.0
732,50.0,44,446,0.0,24.0
733,57.0,484,288,0.0,21.0
734,54.0,330,234,0.0,22.0
735,66.0,1120,1096,0.0,51.0
736,57.0,360,166,0.0,25.0
737,66.0,342,402,0.0,76.0
738,57.0,322,214,0.0,34.0
739,50.0,38,602,0.0,24.0
740,54.0,12,204,0.0,34.0
741,66.0,306,286,0.0,90.0
742,57.0,310,111,0.0,44.0
743,64.0,410,432,0.0,80.0
744,69.0,387,194,0.0,75.0
745,67.0,164,48,0.0,84.0
746,61.0,0,220,0.0,39.0
747,52.0,26,318,0.0,44.0
748,61.0,312,262,0.0,37.0
749,55.0,16,1688,0.0,28.0
750,52.0,326,394,0.0,42.0
751,61.0,296,234,0.0,40.0
752,67.0,134,1358,0.0,71.0
753,62.0,310,66,0.0,41.0
754,66.0,288,406,0.0,52.0
755,54.0,16,408,0.0,41.0
756,50.0,3,2373,0.0,18.0
757,55.0,312,252,0.0,46.0
758,52.0,334,140,0.0,45.0
759,64.0,406,950,0.0,67.0
760,43.0,40,932,0.0,25.0
761,67.0,138,196,0.0,66.0
762,71.0,208,142,0.0,60.0
763,55.0,26,202,0.0,39.0
764,67.0,106,162,0.0,62.0
765,64.0,128,178,0.0,70.0
766,54.0,16,350,0.0,19.0
767,57.0,286,206,0.0,42.0
768,62.0,10,678,0.0,71.0
769,45.0,136,734,0.0,64.0
770,47.0,310,142,0.0,7.0
771,55.0,30,264,0.0,36.0
772,52.0,316,46,0.0,51.0
773,61.0,10,836,0.0,70.0
774,45.0,28,320,0.0,34.0
775,54.0,12,454,0.0,32.0
776,62.0,418,626,0.0,56.0
777,64.0,608,64,0.0,40.0
778,66.0,98,144,0.0,51.0
779,64.0,4,572,0.0,59.0
780,52.0,178,584,0.0,31.0
781,49.0,2,582,0.0,29.0
782,45.0,8,714,0.0,27.0
783,69.0,928,150,0.0,79.0
784,71.0,242,104,0.0,83.0
785,73.0,206,150,0.0,83.0
786,74.0,214,132,0.0,89.0
787,76.0,246,190,0.0,92.0
788,69.0,360,240,0.0,41.0
789,62.0,324,672,0.0,34.0
790,78.0,24,748,0.0,79.0
791,66.0,312,244,0.0,33.0
792,69.0,340,146,0.0,30.0
793,78.0,286,438,0.0,64.0
794,62.0,16,532,0.0,23.0
795,69.0,356,194,0.0,37.0
796,66.0,8,186,0.0,36.0
797,78.0,290,228,0.0,88.0
798,69.0,322,102,0.0,47.0
799,76.0,288,341,0.0,89.0
800,81.0,248,184,0.0,88.0
801,73.0,28,166,0.0,43.0
802,79.0,128,42,0.0,90.0
803,67.0,36,544,0.0,25.0
804,64.0,6,240,0.0,41.0
805,73.0,250,324,0.0,39.0
806,64.0,314,390,0.0,51.0
807,73.0,308,202,0.0,53.0
808,79.0,166,1285,0.0,79.0
809,74.0,278,40,0.0,67.0
810,62.0,32,2152,0.0,41.0
811,66.0,36,340,0.0,47.0
812,78.0,296,454,0.0,76.0
813,67.0,292,286,0.0,57.0
814,71.0,354,778,0.0,71.0
815,55.0,10,790,0.0,38.0
816,76.0,122,98,0.0,73.0
817,64.0,362,276,0.0,43.0
818,79.0,116,120,0.0,69.0
819,83.0,118,114,0.0,62.0
820,67.0,16,190,0.0,36.0
821,79.0,68,138,0.0,84.0
822,76.0,118,110,0.0,82.0
823,66.0,44,386,0.0,39.0
824,69.0,280,204,0.0,46.0
825,74.0,42,644,0.0,83.0
826,67.0,42,316,0.0,36.0
827,78.0,16,400,0.0,60.0
828,69.0,10,358,0.0,38.0
829,73.0,322,758,0.0,43.0
830,76.0,306,408,0.0,60.0
831,57.0,32,1570,0.0,34.0
832,74.0,404,662,0.0,44.0
833,66.0,12,666,0.0,34.0
834,62.0,10,696,0.0,25.0
835,71.0,1084,110,0.0,31.0
836,74.0,68,306,0.0,64.0
837,69.0,254,72,0.0,52.0
838,73.0,42,170,0.0,75.0
839,67.0,252,60,0.0,56.0
840,71.0,48,240,0.0,46.0
841,66.0,218,148,0.0,47.0
842,69.0,38,316,0.0,57.0
843,64.0,312,66,0.0,35.0
844,67.0,36,386,0.0,45.0
845,57.0,352,224,0.0,29.0
846,50.0,32,618,0.0,35.0
847,66.0,386,670,0.0,48.0
848,54.0,276,132,0.0,29.0
849,57.0,326,144,0.0,32.0
850,66.0,300,360,0.0,73.0
851,57.0,322,148,0.0,26.0
852,50.0,48,584,0.0,39.0
853,54.0,30,158,0.0,35.0
854,66.0,294,194,0.0,81.0
855,57.0,274,86,0.0,41.0
856,64.0,318,342,0.0,76.0
857,69.0,308,216,0.0,81.0
858,61.0,14,205,0.0,37.0
859,67.0,162,56,0.0,82.0
860,52.0,38,256,0.0,40.0
861,61.0,272,222,0.0,35.0
862,52.0,314,254,0.0,36.0
863,55.0,12,1542,0.0,26.0
864,61.0,328,130,0.0,33.0
865,67.0,136,1350,0.0,82.0
866,50.0,12,2236,0.0,42.0
867,54.0,22,316,0.0,33.0
868,66.0,336,376,0.0,52.0
869,62.0,296,61,0.0,34.0
870,55.0,306,188,0.0,40.0
871,43.0,66,700,0.0,39.0
872,64.0,318,906,0.0,64.0
873,52.0,348,250,0.0,41.0
874,67.0,136,144,0.0,49.0
875,71.0,164,132,0.0,59.0
876,55.0,50,210,0.0,39.0
877,67.0,76,188,0.0,41.0
878,64.0,102,160,0.0,68.0
879,54.0,124,368,0.0,31.0
880,57.0,278,158,0.0,46.0
881,62.0,24,756,0.0,72.0
882,55.0,22,376,0.0,34.0
883,45.0,28,1040,0.0,40.0
884,52.0,336,178,0.0,45.0
885,61.0,334,806,0.0,63.0
886,45.0,2,456,0.0,26.0
887,54.0,406,546,0.0,26.0
888,62.0,2,628,0.0,46.0
889,64.0,618,162,0.0,35.0
890,66.0,128,82,0.0,35.0
891,52.0,74,478,0.0,26.0
892,49.0,12,532,0.0,15.0
893,64.0,144,642,0.0,32.0
894,45.0,10,666,0.0,31.0
895,69.0,1064,90,0.0,47.0
896,71.0,254,106,0.0,64.0
897,73.0,218,122,0.0,74.0
898,74.0,214,128,0.0,86.0
899,76.0,222,152,0.0,85.0
900,62.0,16,558,0.0,38.0
901,69.0,384,206,0.0,38.0
902,78.0,280,762,0.0,75.0
903,66.0,328,128,0.0,39.0
904,69.0,318,186,0.0,44.0
905,62.0,38,126,0.0,30.0
906,78.0,280,318,0.0,68.0
907,69.0,332,98,0.0,34.0
908,66.0,12,218,0.0,40.0
909,78.0,268,262,0.0,83.0
910,69.0,308,76,0.0,56.0
911,76.0,292,352,0.0,94.0
912,81.0,228,210,0.0,94.0
913,73.0,14,222,0.0,45.0
914,79.0,144,104,0.0,97.0
915,64.0,184,336,0.0,36.0
916,73.0,346,248,0.0,41.0
917,67.0,64,1534,0.0,21.0
918,64.0,324,294,0.0,44.0
919,73.0,292,142,0.0,39.0
920,79.0,8,1356,0.0,73.0
921,66.0,20,350,0.0,37.0
922,78.0,314,376,0.0,54.0
923,74.0,304,52,0.0,40.0
924,62.0,20,2314,0.0,31.0
925,67.0,332,212,0.0,45.0
926,55.0,14,758,0.0,35.0
927,71.0,374,810,0.0,47.0
928,76.0,110,70,0.0,57.0
929,64.0,354,202,0.0,33.0
930,79.0,116,80,0.0,57.0
931,83.0,116,70,0.0,51.0
932,67.0,22,154,0.0,34.0
933,79.0,100,60,0.0,63.0
934,76.0,94,100,0.0,51.0
935,66.0,12,350,0.0,21.0
936,69.0,314,148,0.0,36.0
937,74.0,38,630,0.0,72.0
938,78.0,286,402,0.0,50.0
939,67.0,40,354,0.0,28.0
940,57.0,88,1248,0.0,22.0
941,69.0,35,251,0.0,34.0
942,73.0,30,798,0.0,35.0
943,76.0,300,486,0.0,50.0
944,66.0,16,556,0.0,18.0
945,74.0,493,672,0.0,34.0
946,62.0,24,635,0.0,22.0
947,69.0,1282,348,0.0,40.0
948,68.0,328,390,0.0,50.0
949,69.0,316,360,0.0,78.0
950,71.0,298,304,0.0,65.0
951,69.0,286,184,0.0,81.0
952,69.0,7,164,0.0,47.0
953,61.0,4,168,0.0,52.0
954,76.0,330,190,0.0,73.0
955,79.0,3,215,0.0,84.0
956,69.0,6,152,0.0,43.0
957,76.0,4,220,0.0,70.0
958,61.0,2,234,0.0,52.0
959,79.0,346,254,0.0,60.0
960,69.0,624,140,0.0,79.0
961,69.0,3,147,0.0,61.0
962,74.0,4,144,0.0,77.0
963,62.0,7,154,0.0,55.0
964,78.0,320,202,0.0,82.0
965,69.0,6,136,0.0,48.0
966,74.0,0,208,0.0,48.0
967,62.0,14,206,0.0,41.0
968,78.0,346,260,0.0,60.0
969,69.0,618,96,0.0,31.0
970,57.0,18,84,0.0,32.0
971,73.0,340,144,0.0,46.0
972,69.0,2,140,0.0,28.0
973,76.0,2,182,0.0,46.0
974,69.0,16,168,0.0,38.0
975,76.0,12,242,0.0,37.0
976,73.0,362,260,0.0,36.0
977,57.0,20,224,0.0,17.0
978,69.0,830,311,0.0,40.0
979,68.0,306,414,0.0,60.0
980,69.0,310,348,0.0,64.0
981,71.0,328,312,0.0,35.0
982,69.0,312,336,0.0,42.0
983,57.0,5,191,0.0,31.0
984,49.0,358,200,0.0,33.0
985,67.0,0,221,0.0,41.0
986,64.0,19,202,0.0,41.0
987,64.0,2,182,0.0,26.0
988,49.0,14,198,0.0,41.0
989,57.0,6,196,0.0,41.0
990,67.0,352,258,0.0,31.0
991,69.0,646,326,0.0,47.0
992,50.0,10,120,0.0,41.0
993,57.0,12,150,0.0,42.0
994,62.0,14,160,0.0,41.0
995,66.0,316,204,0.0,50.0
996,57.0,10,152,0.0,30.0
997,62.0,340,182,0.0,41.0
998,50.0,8,176,0.0,34.0
999,66.0,12,230,0.0,50.0
1000,69.0,706,248,0.0,42.0
1001,45.0,10,126,0.0,36.0
1002,57.0,8,149,0.0,29.0
1003,61.0,372,188,0.0,35.0
1004,64.0,10,176,0.0,53.0
1005,57.0,418,178,0.0,34.0
1006,61.0,8,170,0.0,35.0
1007,64.0,0,184,0.0,42.0
1008,45.0,2,210,0.0,33.0
1009,68.0,626,234,0.0,52.0
1010,71.0,212,164,0.0,57.0
1011,69.0,168,152,0.0,73.0
1012,73.0,140,176,0.0,84.0
1013,71.0,152,187,0.0,78.0
1014,74.0,146,160,0.0,92.0
1015,73.0,128,194,0.0,90.0
1016,76.0,164,146,0.0,91.0
1017,74.0,136,174,0.0,88.0
1018,78.0,148,170,0.0,77.0
1019,76.0,150,206,0.0,88.0
1020,79.0,204,324,0.0,71.0
1021,69.0,218,312,0.0,33.0
1022,62.0,56,792,0.0,32.0
1023,66.0,314,184,0.0,31.0
1024,78.0,196,818,0.0,60.0
1025,69.0,358,108,0.0,17.0
1026,78.0,316,334,0.0,55.0
1027,62.0,46,406,0.0,22.0
1028,69.0,316,216,0.0,29.0
1029,66.0,28,94,0.0,32.0
1030,78.0,288,228,0.0,85.0
1031,69.0,292,100,0.0,47.0
1032,76.0,300,326,0.0,92.0
1033,81.0,230,210,0.0,82.0
1034,73.0,16,194,0.0,41.0
1035,79.0,158,52,0.0,89.0
1036,64.0,12,226,0.0,33.0
1037,73.0,286,246,0.0,38.0
1038,64.0,320,340,0.0,41.0
1039,67.0,30,1552,0.0,19.0
1040,73.0,306,154,0.0,43.0
1041,79.0,186,1338,0.0,73.0
1042,78.0,320,374,0.0,56.0
1043,66.0,28,368,0.0,36.0
1044,74.0,294,74,0.0,41.0
1045,62.0,46,2274,0.0,26.0
1046,67.0,306,170,0.0,53.0
1047,55.0,20,658,0.0,41.0
1048,76.0,340,862,0.0,73.0
1049,64.0,372,194,0.0,47.0
1050,79.0,132,174,0.0,71.0
1051,83.0,184,118,0.0,72.0
1052,79.0,104,158,0.0,69.0
1053,67.0,16,278,0.0,46.0
1054,76.0,120,176,0.0,85.0
1055,66.0,270,240,0.0,45.0
1056,57.0,30,554,0.0,33.0
1057,74.0,140,690,0.0,85.0
1058,78.0,336,456,0.0,65.0
1059,58.0,38,582,0.0,41.0
1060,67.0,22,234,0.0,41.0
1061,73.0,6,990,0.0,52.0
1062,76.0,368,616,0.0,65.0
1063,66.0,538,586,0.0,26.0
1064,59.0,4,590,0.0,22.0
1065,74.0,4,618,0.0,36.0
1066,78.0,1298,236,0.0,46.0
1067,76.0,236,134,0.0,57.0
1068,74.0,154,180,0.0,72.0
1069,73.0,162,166,0.0,72.0
1070,76.0,174,167,0.0,70.0
1071,74.0,164,134,0.0,67.0
1072,71.0,162,146,0.0,53.0
1073,70.0,152,169,0.0,59.0
1074,73.0,164,206,0.0,55.0
1075,71.0,208,232,0.0,48.0
1076,67.0,214,444,0.0,51.0
1077,57.0,312,272,0.0,37.0
1078,50.0,36,610,0.0,30.0
1079,66.0,348,670,0.0,47.0
1080,54.0,320,194,0.0,29.0
1081,57.0,336,122,0.0,26.0
1082,66.0,338,180,0.0,44.0
1083,50.0,10,300,0.0,33.0
1084,66.0,334,122,0.0,68.0
1085,57.0,16,130,0.0,30.0
1086,66.0,270,130,0.0,72.0
1087,54.0,14,198,0.0,41.0
1088,66.0,298,122,0.0,72.0
1089,57.0,10,112,0.0,46.0
1090,64.0,30,270,0.0,75.0
1091,69.0,292,156,0.0,72.0
1092,61.0,12,172,0.0,38.0
1093,67.0,128,47,0.0,81.0
1094,52.0,56,294,0.0,33.0
1095,61.0,294,234,0.0,31.0
1096,52.0,330,200,0.0,37.0
1097,55.0,4,1590,0.0,34.0
1098,61.0,304,122,0.0,36.0
1099,67.0,192,1344,0.0,73.0
1100,62.0,299,62,0.0,34.0
1101,54.0,15,375,0.0,32.0
1102,50.0,296,2360,0.0,39.0
1103,66.0,326,422,0.0,54.0
1104,55.0,308,192,0.0,33.0
1105,43.0,24,506,0.0,30.0
1106,59.0,436,678,0.0,55.0
1107,52.0,300,66,0.0,41.0
1108,64.0,88,74,0.0,60.0
1109,67.0,108,96,0.0,66.0
1110,71.0,18,80,0.0,55.0
1111,55.0,96,238,0.0,48.0
1112,67.0,92,188,0.0,49.0
1113,64.0,106,262,0.0,68.0
1114,54.0,112,448,0.0,28.0
1115,57.0,318,180,0.0,41.0
1116,62.0,50,682,0.0,71.0
1117,66.0,308,412,0.0,44.0
1118,55.0,10,400,0.0,34.0
1119,57.0,20,460,0.0,42.0
1120,64.0,324,492,0.0,43.0
1121,61.0,36,848,0.0,32.0
1122,45.0,14,1764,0.0,33.0
1123,62.0,470,638,0.0,34.0
1124,50.0,16,592,0.0,36.0
1125,54.0,30,626,0.0,24.0
1126,69.0,960,304,0.0,38.0
1127,68.0,316,430,0.0,54.0
1128,69.0,308,352,0.0,73.0
1129,71.0,310,292,0.0,69.0
1130,69.0,294,142,0.0,84.0
1131,61.0,3,131,0.0,47.0
1132,69.0,0,131,0.0,56.0
1133,76.0,14,150,0.0,66.0
1134,79.0,308,196,0.0,83.0
1135,69.0,0,146,0.0,46.0
1136,76.0,315,222,0.0,71.0
1137,61.0,16,210,0.0,35.0
1138,79.0,6,234,0.0,64.0
1139,69.0,558,154,0.0,69.0
1140,69.0,2,138,0.0,50.0
1141,74.0,18,148,0.0,67.0
1142,62.0,2,152,0.0,48.0
1143,78.0,324,208,0.0,70.0
1144,69.0,8,156,0.0,45.0
1145,74.0,10,198,0.0,25.0
1146,62.0,6,194,0.0,26.0
1147,78.0,352,256,0.0,65.0
1148,69.0,586,80,0.0,44.0
1149,57.0,12,82,0.0,18.0
1150,69.0,6,128,0.0,29.0
1151,73.0,348,158,0.0,39.0
1152,76.0,0,161,0.0,55.0
1153,69.0,4,162,0.0,29.0
1154,76.0,24,188,0.0,42.0
1155,73.0,344,215,0.0,42.0
1156,57.0,10,182,0.0,23.0
1157,69.0,728,330,0.0,41.0
1158,68.0,316,344,0.0,55.0
1159,69.0,296,354,0.0,62.0
1160,71.0,346,386,0.0,30.0
1161,69.0,358,322,0.0,28.0
1162,57.0,8,148,0.0,30.0
1163,49.0,18,170,0.0,28.0
1164,64.0,22,158,0.0,25.0
1165,67.0,342,214,0.0,35.0
1166,57.0,340,196,0.0,39.0
1167,49.0,0,216,0.0,30.0
1168,64.0,16,196,0.0,25.0
1169,67.0,4,262,0.0,28.0
1170,69.0,614,328,0.0,52.0
1171,57.0,2,160,0.0,41.0
1172,62.0,8,168,0.0,37.0
1173,50.0,2,166,0.0,45.0
1174,66.0,328,201,0.0,45.0
1175,57.0,22,148,0.0,26.0
1176,50.0,6,190,0.0,27.0
1177,62.0,4,186,0.0,36.0
1178,66.0,382,244,0.0,40.0
1179,69.0,630,214,0.0,34.0
1180,61.0,376,158,0.0,30.0
1181,45.0,10,150,0.0,27.0
1182,57.0,16,136,0.0,19.0
1183,64.0,2,148,0.0,36.0
1184,61.0,6,152,0.0,23.0
1185,57.0,430,164,0.0,13.0
1186,64.0,8,172,0.0,27.0
1187,45.0,0,208,0.0,30.0
1188,68.0,624,232,0.0,32.0
1189,71.0,242,150,0.0,45.0
1190,69.0,164,150,0.0,57.0
1191,73.0,150,178,0.0,73.0
1192,71.0,152,176,0.0,72.0
1193,74.0,144,165,0.0,85.0
1194,73.0,140,192,0.0,84.0
1195,76.0,162,162,0.0,88.0
1196,74.0,158,212,0.0,87.0
1197,78.0,170,206,0.0,79.0
1198,76.0,170,236,0.0,84.0
1199,79.0,210,380,0.0,75.0
1200,69.0,234,282,0.0,31.0
1201,62.0,50,778,0.0,34.0
1202,66.0,322,212,0.0,34.0
1203,78.0,224,776,0.0,53.0
1204,69.0,342,190,0.0,34.0
1205,62.0,44,96,0.0,29.0
1206,78.0,340,292,0.0,62.0
1207,69.0,310,190,0.0,39.0
1208,66.0,14,182,0.0,32.0
1209,78.0,304,210,0.0,88.0
1210,69.0,308,82,0.0,43.0
1211,76.0,306,344,0.0,85.0
1212,73.0,38,156,0.0,30.0
1213,81.0,280,216,0.0,79.0
1214,79.0,136,68,0.0,88.0
1215,64.0,18,280,0.0,39.0
1216,73.0,294,184,0.0,39.0
1217,67.0,18,1374,0.0,26.0
1218,64.0,318,262,0.0,46.0
1219,73.0,268,192,0.0,47.0
1220,79.0,204,1310,0.0,84.0
1221,78.0,316,374,0.0,68.0
1222,74.0,306,52,0.0,56.0
1223,62.0,24,2272,0.0,28.0
1224,66.0,18,374,0.0,42.0
1225,67.0,338,272,0.0,40.0
1226,55.0,14,820,0.0,38.0
1227,76.0,350,866,0.0,86.0
1228,64.0,305,313,0.0,51.0
1229,79.0,113,212,0.0,73.0
1230,83.0,202,170,0.0,76.0
1231,67.0,50,166,0.0,54.0
1232,79.0,64,206,0.0,68.0
1233,76.0,144,280,0.0,94.0
1234,66.0,302,334,0.0,43.0
1235,57.0,154,687,0.0,42.0
1236,74.0,32,716,0.0,91.0
1237,78.0,350,446,0.0,69.0
1238,67.0,30,222,0.0,37.0
1239,58.0,52,586,0.0,35.0
1240,73.0,12,950,0.0,46.0
1241,76.0,330,610,0.0,65.0
1242,59.0,6,710,0.0,18.0
1243,66.0,24,744,0.0,19.0
1244,74.0,508,820,0.0,41.0
1245,78.0,1314,278,0.0,45.0
1246,76.0,270,166,0.0,58.0
1247,74.0,176,208,0.0,64.0
1248,73.0,178,186,0.0,69.0
1249,76.0,192,184,0.0,75.0
1250,74.0,162,146,0.0,74.0
1251,71.0,168,180,0.0,55.0
1252,70.0,164,192,0.0,66.0
1253,73.0,195,231,0.0,50.0
1254,71.0,219,214,0.0,47.0
1255,67.0,202,396,0.0,50.0
1256,57.0,352,268,0.0,36.0
1257,66.0,366,676,0.0,46.0
1258,50.0,38,654,0.0,26.0
1259,54.0,332,176,0.0,28.0
1260,57.0,334,142,0.0,35.0
1261,50.0,38,106,0.0,38.0
1262,66.0,344,178,0.0,45.0
1263,66.0,292,122,0.0,73.0
1264,57.0,42,124,0.0,37.0
1265,54.0,26,82,0.0,40.0
1266,66.0,266,118,0.0,80.0
1267,57.0,22,54,0.0,51.0
1268,66.0,268,102,0.0,83.0
1269,61.0,4,546,0.0,43.0
1270,50.0,12,564,0.0,39.0
1271,64.0,4,588,0.0,84.0
1272,55.0,292,680,0.0,49.0
1273,69.0,590,222,0.0,75.0
1274,67.0,192,44,0.0,80.0
1275,50.0,14,336,0.0,33.0
1276,61.0,6,416,0.0,34.0
1277,52.0,2,428,0.0,46.0
1278,67.0,178,608,0.0,63.0
1279,62.0,24,352,0.0,52.0
1280,57.0,12,340,0.0,54.0
1281,66.0,1772,428,0.0,81.0
1282,50.0,6,434,0.0,48.0
1283,74.0,306,260,0.0,89.0
1284,72.0,192,98,0.0,97.0
1285,54.0,0,344,0.0,39.0
1286,57.0,222,372,0.0,47.0
1287,50.0,14,480,0.0,52.0
1288,72.0,4,500,0.0,64.0
1289,66.0,6,282,0.0,28.0
1290,63.0,1868,346,0.0,23.0
1291,71.0,12,590,0.0,35.0
1292,66.0,38,122,0.0,7.0
1293,83.0,638,280,0.0,22.0
1294,81.0,276,178,0.0,34.0
1295,63.0,14,140,0.0,18.0
1296,66.0,18,194,0.0,17.0
1297,71.0,8,236,0.0,8.0
1298,81.0,528,358,0.0,21.0
1299,40.0,0,760,0.0,101.0
1300,52.0,3698,798,0.0,107.0
1301,53.0,972,216,0.0,106.0
1302,41.0,8,232,0.0,98.0
1303,40.0,2,748,0.0,112.0
1304,52.0,332,778,0.0,112.0
1305,53.0,934,204,0.0,110.0
1306,41.0,5,237,0.0,104.0
1307,71.0,4,36,0.0,90.0
1308,74.0,2,36,0.0,97.0
1309,80.0,60,68,0.0,91.0
1310,71.0,82,50,0.0,65.0
1311,74.0,6,44,0.0,72.0
1312,80.0,70,100,0.0,78.0
1313,74.0,12,52,0.0,74.0
1314,71.0,68,96,0.0,71.0
1315,80.0,84,48,0.0,87.0
1316,71.0,4,50,0.0,60.0
1317,74.0,64,56,0.0,62.0
1318,80.0,66,94,0.0,70.0
1319,74.0,2,50,0.0,84.0
1320,71.0,78,54,0.0,77.0
1321,80.0,82,54,0.0,88.0
1322,40.0,4,784,0.0,111.0
1323,71.0,58,46,0.0,66.0
1324,74.0,0,54,0.0,78.0
1325,52.0,325,803,0.0,113.0
1326,80.0,76,50,0.0,69.0
1327,74.0,8,42,0.0,87.0
1328,71.0,50,56,0.0,73.0
1329,80.0,56,68,0.0,72.0
1330,71.0,62,70,0.0,66.0
1331,53.0,6,204,0.0,100.0
1332,74.0,2,86,0.0,71.0
1333,41.0,6,230,0.0,97.0
1334,80.0,92,106,0.0,75.0
1335,71.0,6,46,0.0,52.0
1336,74.0,84,80,0.0,79.0
1337,80.0,78,66,0.0,90.0
1338,40.0,0,206,0.0,107.0
1339,71.0,76,60,0.0,63.0
1340,74.0,4,60,0.0,77.0
1341,52.0,8,232,0.0,106.0
1342,80.0,82,74,0.0,76.0
1343,74.0,0,58,0.0,87.0
1344,71.0,0,74,0.0,73.0
1345,80.0,71,109,0.0,86.0
1346,53.0,68,222,0.0,95.0
1347,74.0,3,71,0.0,77.0
1348,71.0,77,82,0.0,70.0
1349,41.0,6,244,0.0,92.0
1350,80.0,87,104,0.0,95.0
1351,74.0,6,56,0.0,92.0
1352,71.0,4,86,0.0,89.0
1353,80.0,88,52,0.0,96.0
1354,40.0,66,204,0.0,106.0
1355,74.0,55,57,0.0,92.0
1356,71.0,3,54,0.0,86.0
1357,52.0,0,220,0.0,106.0
1358,80.0,74,98,0.0,86.0
1359,74.0,8,76,0.0,90.0
1360,71.0,54,86,0.0,80.0
1361,80.0,82,100,0.0,100.0
1362,53.0,4,200,0.0,101.0
1363,41.0,6,238,0.0,98.0
1364,71.0,2,90,0.0,78.0
1365,74.0,70,94,0.0,92.0
1366,74.0,3,53,0.0,108.0
1367,80.0,94,122,0.0,95.0
1368,71.0,5,82,0.0,84.0
1369,71.0,2,36,0.0,100.0
1370,74.0,144,41,0.0,96.0
1371,40.0,62,372,0.0,108.0
1372,52.0,0,382,0.0,106.0
1373,53.0,152,70,0.0,97.0
1374,41.0,4,78,0.0,95.0
1375,80.0,0,329,0.0,108.0
1376,83.0,178,398,0.0,105.0
1377,74.0,4,38,0.0,104.0
1378,80.0,162,88,0.0,106.0
1379,40.0,8,398,0.0,108.0
1380,52.0,184,416,0.0,111.0
1381,53.0,146,48,0.0,99.0
1382,41.0,3,53,0.0,92.0
1383,83.0,8,456,0.0,103.0
1384,86.0,172,500,0.0,113.0
1385,84.0,0,40,0.0,98.0
1386,81.0,168,43,0.0,92.0
1387,80.0,0,58,0.0,97.0
1388,83.0,160,94,0.0,92.0
1389,52.0,193,428,0.0,108.0
1390,40.0,0,432,0.0,101.0
1391,77.0,4,44,0.0,100.0
1392,81.0,162,112,0.0,101.0
1393,80.0,160,56,0.0,96.0
1394,76.0,4,55,0.0,97.0
1395,74.0,164,38,0.0,97.0
1396,77.0,0,52,0.0,93.0
1397,76.0,4,32,0.0,97.0
1398,72.0,164,44,0.0,95.0
1399,71.0,156,36,0.0,87.0
1400,74.0,2,56,0.0,97.0
1401,72.0,3,62,0.0,93.0
1402,69.0,0,194,0.0,83.0
1403,74.0,174,49,0.0,80.0
1404,72.0,46,44,0.0,94.0
1405,71.0,56,48,0.0,68.0
1406,72.0,66,70,0.0,98.0
1407,74.0,182,40,0.0,93.0
1408,57.0,188,598,0.0,56.0
1409,45.0,3,627,0.0,58.0
1410,76.0,206,356,0.0,85.0
1411,69.0,584,44,0.0,61.0
1412,64.0,0,50,0.0,44.0
1413,60.0,8,56,0.0,43.0
1414,70.0,3,272,0.0,91.0
1415,68.0,252,66,0.0,67.0
1416,62.0,3,339,0.0,55.0
1417,65.0,88,364,0.0,76.0
1418,69.0,90,62,0.0,89.0
1419,69.0,224,64,0.0,84.0
1420,60.0,12,298,0.0,61.0
1421,64.0,6,310,0.0,67.0
1422,70.0,96,274,0.0,88.0
1423,62.0,12,290,0.0,50.0
1424,68.0,212,78,0.0,62.0
1425,65.0,18,330,0.0,72.0
1426,69.0,108,40,0.0,87.0
1427,64.0,20,38,0.0,69.0
1428,60.0,4,50,0.0,59.0
1429,69.0,224,42,0.0,67.0
1430,64.0,11,61,0.0,59.0
1431,68.0,114,104,0.0,72.0
1432,59.0,4,92,0.0,46.0
1433,74.0,5,116,0.0,78.0
1434,69.0,3,71,0.0,32.0
1435,64.0,0,96,0.0,34.0
1436,72.0,416,168,0.0,50.0
1437,57.0,30,188,0.0,27.0
1438,50.0,2,878,0.0,109.0
1439,38.0,1387,938,0.0,105.0
1440,51.0,1040,242,0.0,103.0
1441,39.0,3,267,0.0,100.0
1442,50.0,2,934,0.0,109.0
1443,38.0,371,1056,0.0,110.0
1444,51.0,2,276,0.0,102.0
1445,39.0,1088,328,0.0,92.0
1446,72.0,3,57,0.0,103.0
1447,69.0,0,67,0.0,100.0
1448,78.0,81,64,0.0,87.0
1449,72.0,6,55,0.0,84.0
1450,69.0,66,86,0.0,86.0
1451,78.0,86,50,0.0,67.0
1452,72.0,68,66,0.0,64.0
1453,69.0,6,60,0.0,86.0
1454,78.0,80,62,0.0,64.0
1455,72.0,12,48,0.0,64.0
1456,69.0,76,68,0.0,71.0
1457,78.0,76,64,0.0,62.0
1458,72.0,12,50,0.0,60.0
1459,69.0,68,76,0.0,77.0
1460,78.0,82,58,0.0,56.0
1461,50.0,336,783,0.0,108.0
1462,69.0,74,52,0.0,59.0
1463,72.0,3,52,0.0,55.0
1464,38.0,0,937,0.0,105.0
1465,78.0,73,68,0.0,51.0
1466,72.0,2,58,0.0,58.0
1467,69.0,0,78,0.0,57.0
1468,78.0,92,62,0.0,56.0
1469,72.0,78,56,0.0,50.0
1470,69.0,2,54,0.0,67.0
1471,51.0,76,266,0.0,90.0
1472,39.0,6,326,0.0,79.0
1473,78.0,80,75,0.0,50.0
1474,72.0,2,58,0.0,66.0
1475,69.0,78,72,0.0,66.0
1476,78.0,74,83,0.0,64.0
1477,72.0,3,61,0.0,66.0
1478,50.0,0,226,0.0,97.0
1479,69.0,80,82,0.0,69.0
1480,78.0,85,94,0.0,65.0
1481,38.0,6,346,0.0,90.0
1482,72.0,6,72,0.0,73.0
1483,69.0,6,90,0.0,80.0
1484,78.0,86,86,0.0,76.0
1485,72.0,2,64,0.0,76.0
1486,69.0,76,82,0.0,83.0
1487,51.0,72,312,0.0,100.0
1488,78.0,86,98,0.0,79.0
1489,39.0,0,356,0.0,88.0
1490,69.0,4,78,0.0,85.0
1491,72.0,2,80,0.0,88.0
1492,78.0,86,102,0.0,86.0
1493,50.0,68,206,0.0,105.0
1494,72.0,2,80,0.0,92.0
1495,69.0,72,84,0.0,88.0
1496,38.0,4,334,0.0,103.0
1497,78.0,88,94,0.0,90.0
1498,72.0,2,68,0.0,97.0
1499,69.0,4,73,0.0,95.0
1500,78.0,86,106,0.0,95.0
1501,72.0,6,68,0.0,90.0
1502,69.0,64,92,0.0,89.0
1503,51.0,50,282,0.0,100.0
1504,39.0,12,320,0.0,87.0
1505,78.0,96,92,0.0,100.0
1506,69.0,4,91,0.0,97.0
1507,72.0,4,104,0.0,101.0
1508,69.0,2,64,0.0,98.0
1509,72.0,158,94,0.0,110.0
1510,50.0,54,386,0.0,105.0
1511,38.0,0,478,0.0,101.0
1512,51.0,160,142,0.0,96.0
1513,78.0,186,312,0.0,103.0
1514,81.0,2,356,0.0,113.0
1515,39.0,5,194,0.0,85.0
1516,72.0,6,46,0.0,105.0
1517,78.0,168,90,0.0,97.0
1518,50.0,181,422,0.0,108.0
1519,38.0,0,446,0.0,103.0
1520,51.0,165,100,0.0,100.0
1521,39.0,12,114,0.0,85.0
1522,81.0,3,399,0.0,110.0
1523,84.0,178,468,0.0,113.0
1524,79.0,4,46,0.0,94.0
1525,82.0,150,68,0.0,100.0
1526,50.0,174,296,0.0,97.0
1527,38.0,6,310,0.0,95.0
1528,78.0,3,50,0.0,92.0
1529,81.0,159,81,0.0,100.0
1530,75.0,160,44,0.0,90.0
1531,79.0,0,80,0.0,99.0
1532,74.0,10,46,0.0,93.0
1533,78.0,168,80,0.0,90.0
1534,75.0,0,36,0.0,83.0
1535,72.0,162,54,0.0,91.0
1536,70.0,156,44,0.0,91.0
1537,74.0,2,48,0.0,88.0
1538,69.0,2,40,0.0,85.0
1539,72.0,160,44,0.0,89.0
1540,70.0,166,94,0.0,94.0
1541,67.0,4,194,0.0,86.0
1542,72.0,142,46,0.0,81.0
1543,70.0,38,62,0.0,80.0
1544,69.0,62,98,0.0,77.0
1545,70.0,66,74,0.0,93.0
1546,72.0,182,40,0.0,78.0
1547,55.0,0,550,0.0,49.0
1548,43.0,18,624,0.0,37.0
1549,74.0,224,176,0.0,66.0
1550,67.0,586,64,0.0,62.0
1551,58.0,2,70,0.0,52.0
1552,62.0,26,70,0.0,26.0
1553,68.0,84,324,0.0,62.0
1554,66.0,264,62,0.0,66.0
1555,63.0,12,354,0.0,56.0
1556,60.0,2,356,0.0,52.0
1557,67.0,0,60,0.0,58.0
1558,67.0,218,62,0.0,81.0
1559,58.0,104,330,0.0,59.0
1560,62.0,26,338,0.0,35.0
1561,68.0,92,310,0.0,84.0
1562,60.0,8,316,0.0,63.0
1563,63.0,20,340,0.0,67.0
1564,66.0,220,148,0.0,74.0
1565,67.0,112,92,0.0,93.0
1566,62.0,0,100,0.0,63.0
1567,58.0,20,206,0.0,66.0
1568,67.0,216,40,0.0,91.0
1569,62.0,16,124,0.0,70.0
1570,57.0,6,128,0.0,72.0
1571,66.0,4,158,0.0,80.0
1572,72.0,108,172,0.0,102.0
1573,67.0,20,76,0.0,57.0
1574,55.0,8,178,0.0,45.0
1575,62.0,8,170,0.0,33.0
1576,70.0,374,226,0.0,75.0
1577,67.0,892,50,0.0,72.0
1578,64.0,134,164,0.0,80.0
1579,60.0,2,164,0.0,64.0
1580,58.0,4,164,0.0,69.0
1581,74.0,4,196,0.0,89.0
1582,60.0,3,203,0.0,41.0
1583,57.0,16,230,0.0,46.0
1584,65.0,9,262,0.0,61.0
1585,72.0,418,308,0.0,73.0
1586,72.0,1126,44,0.0,100.0
1587,62.0,2,204,0.0,105.0
1588,50.0,2,210,0.0,102.0
1589,65.0,2,214,0.0,104.0
1590,77.0,156,258,0.0,115.0
1591,71.0,2,262,0.0,93.0
1592,60.0,12,156,0.0,105.0
1593,67.0,2,210,0.0,105.0
1594,48.0,0,198,0.0,106.0
1595,72.0,0,242,0.0,107.0
1596,76.0,562,296,0.0,112.0
1597,53.0,1988,228,0.0,16.0
1598,57.0,274,90,0.0,35.0
1599,60.0,210,112,0.0,38.0
1600,57.0,220,68,0.0,36.0
1601,53.0,216,92,0.0,32.0
1602,57.0,160,72,0.0,32.0
1603,60.0,192,84,0.0,49.0
1604,57.0,186,94,0.0,42.0
1605,58.0,200,160,0.0,66.0
1606,52.0,214,464,0.0,50.0
1607,60.0,198,158,0.0,54.0
1608,58.0,194,70,0.0,61.0
1609,52.0,220,156,0.0,39.0
1610,58.0,184,76,0.0,50.0
1611,60.0,178,112,0.0,44.0
1612,58.0,196,100,0.0,59.0
1613,57.0,208,176,0.0,44.0
1614,53.0,34,468,0.0,35.0
1615,60.0,194,194,0.0,45.0
1616,57.0,218,74,0.0,38.0
1617,72.0,214,936,0.0,88.0
1618,74.0,148,92,0.0,64.0
1619,72.0,92,54,0.0,75.0
1620,57.0,22,88,0.0,28.0
1621,71.0,66,138,0.0,69.0
1622,72.0,120,234,0.0,93.0
1623,60.0,3,245,0.0,41.0
1624,57.0,28,200,0.0,44.0
1625,53.0,210,902,0.0,39.0
1626,74.0,191,372,0.0,85.0
1627,58.0,188,178,0.0,55.0
1628,55.0,32,386,0.0,31.0
1629,60.0,216,198,0.0,41.0
1630,58.0,198,114,0.0,52.0
1631,65.0,216,880,0.0,74.0
1632,58.0,182,101,0.0,56.0
1633,64.0,214,388,0.0,51.0
1634,60.0,194,156,0.0,47.0
1635,55.0,30,704,0.0,34.0
1636,58.0,200,164,0.0,58.0
1637,57.0,52,92,0.0,45.0
1638,65.0,186,230,0.0,63.0
1639,53.0,228,474,0.0,32.0
1640,69.0,162,134,0.0,75.0
1641,60.0,40,162,0.0,41.0
1642,72.0,148,36,0.0,100.0
1643,57.0,56,76,0.0,35.0
1644,77.0,150,224,0.0,98.0
1645,57.0,36,116,0.0,57.0
1646,81.0,200,176,0.0,98.0
1647,84.0,150,84,0.0,103.0
1648,60.0,40,162,0.0,50.0
1649,84.0,152,84,0.0,95.0
1650,53.0,6,742,0.0,52.0
1651,57.0,58,128,0.0,36.0
1652,83.0,148,114,0.0,79.0
1653,84.0,102,102,0.0,87.0
1654,86.0,102,122,0.0,68.0
1655,55.0,122,204,0.0,29.0
1656,60.0,248,168,0.0,35.0
1657,52.0,8,758,0.0,31.0
1658,84.0,108,602,0.0,64.0
1659,82.0,206,108,0.0,62.0
1660,55.0,76,94,0.0,24.0
1661,81.0,58,110,0.0,50.0
1662,79.0,132,292,0.0,59.0
1663,52.0,16,330,0.0,34.0
1664,58.0,214,120,0.0,45.0
1665,60.0,210,132,0.0,28.0
1666,58.0,232,78,0.0,43.0
1667,56.0,246,206,0.0,41.0
1668,53.0,46,572,0.0,34.0
1669,60.0,230,178,0.0,40.0
1670,56.0,228,96,0.0,33.0
1671,72.0,292,1002,0.0,71.0
1672,73.0,172,70,0.0,50.0
1673,72.0,36,62,0.0,36.0
1674,71.0,64,74,0.0,43.0
1675,56.0,60,228,0.0,39.0
1676,60.0,68,194,0.0,39.0
1677,72.0,82,266,0.0,64.0
1678,56.0,52,68,0.0,42.0
1679,53.0,202,960,0.0,34.0
1680,73.0,178,472,0.0,60.0
1681,58.0,186,96,0.0,49.0
1682,55.0,54,434,0.0,24.0
1683,60.0,206,194,0.0,38.0
1684,58.0,226,140,0.0,38.0
1685,65.0,240,912,0.0,67.0
1686,58.0,196,126,0.0,52.0
1687,64.0,222,356,0.0,47.0
1688,60.0,200,172,0.0,38.0
1689,58.0,186,86,0.0,61.0
1690,55.0,30,698,0.0,22.0
1691,56.0,24,158,0.0,43.0
1692,65.0,188,246,0.0,80.0
1693,53.0,218,488,0.0,52.0
1694,68.0,162,170,0.0,83.0
1695,60.0,22,196,0.0,55.0
1696,72.0,184,44,0.0,101.0
1697,56.0,18,80,0.0,52.0
1698,77.0,182,268,0.0,102.0
1699,56.0,30,118,0.0,50.0
1700,80.0,146,200,0.0,94.0
1701,84.0,170,86,0.0,102.0
1702,60.0,38,162,0.0,46.0
1703,84.0,184,136,0.0,97.0
1704,53.0,44,734,0.0,48.0
1705,56.0,26,208,0.0,46.0
1706,54.0,240,106,0.0,39.0
1707,51.0,270,574,0.0,46.0
1708,56.0,184,186,0.0,45.0
1709,54.0,228,162,0.0,37.0
1710,84.0,10,848,0.0,95.0
1711,80.0,180,104,0.0,79.0
1712,54.0,50,98,0.0,31.0
1713,82.0,142,110,0.0,95.0
1714,56.0,22,154,0.0,44.0
1715,84.0,166,90,0.0,98.0
1716,54.0,20,120,0.0,49.0
1717,51.0,202,766,0.0,43.0
1718,53.0,222,96,0.0,43.0
1719,49.0,8,474,0.0,48.0
1720,56.0,182,150,0.0,46.0
1721,85.0,198,588,0.0,82.0
1722,53.0,224,76,0.0,41.0
1723,49.0,168,182,0.0,55.0
1724,53.0,34,68,0.0,38.0
1725,80.0,182,108,0.0,85.0
1726,84.0,156,98,0.0,102.0
1727,56.0,3,153,0.0,54.0
1728,85.0,185,124,0.0,100.0
1729,53.0,12,132,0.0,62.0
1730,51.0,186,166,0.0,58.0
1731,87.0,200,426,0.0,92.0
1732,48.0,2,464,0.0,61.0
1733,56.0,172,202,0.0,59.0
1734,51.0,220,178,0.0,62.0
1735,80.0,168,118,0.0,88.0
1736,54.0,24,102,0.0,61.0
1737,85.0,3,117,0.0,97.0
1738,56.0,158,186,0.0,66.0
1739,54.0,16,122,0.0,67.0
1740,87.0,175,220,0.0,101.0
1741,48.0,214,756,0.0,73.0
1742,53.0,214,138,0.0,60.0
1743,89.0,186,448,0.0,104.0
1744,56.0,166,282,0.0,62.0
1745,53.0,10,176,0.0,53.0
1746,49.0,2,882,0.0,69.0
1747,89.0,294,310,0.0,97.0
1748,53.0,232,82,0.0,52.0
1749,87.0,222,384,0.0,80.0
1750,56.0,146,186,0.0,54.0
1751,47.0,6,628,0.0,44.0
1752,53.0,62,88,0.0,38.0
1753,87.0,178,316,0.0,80.0
1754,53.0,214,72,0.0,53.0
1755,86.0,20,384,0.0,71.0
1756,46.0,162,492,0.0,68.0
1757,56.0,158,196,0.0,56.0
1758,53.0,220,74,0.0,58.0
1759,46.0,198,256,0.0,78.0
1760,53.0,54,78,0.0,48.0
1761,82.0,172,268,0.0,104.0
1762,56.0,6,158,0.0,64.0
1763,84.0,146,270,0.0,108.0
1764,53.0,28,164,0.0,61.0
1765,86.0,182,244,0.0,107.0
1766,87.0,164,282,0.0,95.0
1767,51.0,202,182,0.0,58.0
1768,78.0,2,186,0.0,80.0
1769,54.0,174,188,0.0,59.0
1770,51.0,36,202,0.0,61.0
1771,46.0,8,788,0.0,83.0
1772,78.0,170,244,0.0,94.0
1773,85.0,172,278,0.0,95.0
1774,51.0,32,124,0.0,63.0
1775,78.0,224,206,0.0,79.0
1776,54.0,180,157,0.0,59.0
1777,51.0,66,74,0.0,53.0
1778,45.0,12,808,0.0,85.0
1779,78.0,154,248,0.0,88.0
1780,84.0,4,304,0.0,91.0
1781,51.0,258,142,0.0,51.0
1782,78.0,0,208,0.0,73.0
1783,44.0,160,494,0.0,54.0
1784,54.0,180,184,0.0,53.0
1785,51.0,202,182,0.0,64.0
1786,51.0,6,126,0.0,65.0
1787,44.0,184,450,0.0,67.0
1788,80.0,188,268,0.0,95.0
1789,82.0,4,230,0.0,111.0
1790,54.0,190,248,0.0,68.0
1791,51.0,26,150,0.0,70.0
1792,84.0,178,198,0.0,108.0
1793,85.0,162,198,0.0,100.0
1794,76.0,184,94,0.0,103.0
1795,49.0,20,162,0.0,73.0
1796,78.0,158,62,0.0,86.0
1797,76.0,48,52,0.0,78.0
1798,78.0,68,98,0.0,88.0
1799,76.0,74,68,0.0,87.0
1800,52.0,30,318,0.0,65.0
1801,44.0,0,720,0.0,76.0
1802,75.0,24,98,0.0,83.0
1803,49.0,42,212,0.0,58.0
1804,76.0,70,142,0.0,107.0
1805,83.0,108,234,0.0,96.0
1806,76.0,193,90,0.0,102.0
1807,49.0,16,148,0.0,81.0
1808,78.0,158,76,0.0,90.0
1809,76.0,44,48,0.0,82.0
1810,52.0,32,194,0.0,77.0
1811,78.0,72,110,0.0,83.0
1812,76.0,74,72,0.0,92.0
1813,43.0,3,709,0.0,83.0
1814,49.0,50,126,0.0,82.0
1815,75.0,24,114,0.0,83.0
1816,76.0,84,118,0.0,103.0
1817,73.0,130,166,0.0,92.0
1818,76.0,128,172,0.0,100.0
1819,76.0,156,136,0.0,93.0
1820,82.0,154,372,0.0,107.0
1821,73.0,120,110,0.0,92.0
1822,83.0,208,274,0.0,90.0
1823,74.0,144,200,0.0,84.0
1824,54.0,98,1268,0.0,95.0
1825,42.0,10,1296,0.0,90.0
1826,71.0,148,108,0.0,71.0
1827,81.0,12,296,0.0,101.0
1828,53.0,128,326,0.0,88.0
1829,74.0,148,170,0.0,89.0
1830,41.0,2,340,0.0,87.0
1831,71.0,130,108,0.0,81.0
1832,71.0,148,192,0.0,84.0
1833,74.0,134,144,0.0,100.0
1834,80.0,142,312,0.0,103.0
1835,74.0,158,162,0.0,100.0
1836,71.0,116,122,0.0,90.0
1837,81.0,190,248,0.0,102.0
1838,52.0,134,1177,0.0,104.0
1839,72.0,158,180,0.0,80.0
1840,40.0,0,1280,0.0,105.0
1841,69.0,136,122,0.0,68.0
1842,79.0,14,278,0.0,98.0
1843,72.0,134,186,0.0,92.0
1844,51.0,124,344,0.0,101.0
1845,69.0,116,108,0.0,85.0
1846,39.0,4,392,0.0,92.0
1847,69.0,140,170,0.0,93.0
1848,72.0,134,150,0.0,100.0
1849,72.0,150,150,0.0,92.0
1850,78.0,160,376,0.0,99.0
1851,69.0,124,120,0.0,90.0
1852,50.0,150,1162,0.0,100.0
1853,79.0,216,272,0.0,97.0
1854,70.0,146,180,0.0,81.0
1855,67.0,134,126,0.0,75.0
1856,38.0,0,1334,0.0,99.0
1857,77.0,10,240,0.0,100.0
1858,70.0,138,162,0.0,76.0
1859,49.0,118,324,0.0,79.0
1860,37.0,2,352,0.0,81.0
1861,67.0,112,122,0.0,81.0
1862,76.0,0,294,0.0,103.0
1863,70.0,138,176,0.0,85.0
1864,67.0,124,116,0.0,77.0
1865,77.0,147,203,0.0,100.0
1866,48.0,0,692,0.0,96.0
1867,69.0,145,150,0.0,74.0
1868,36.0,148,708,0.0,97.0
1869,65.0,100,116,0.0,79.0
1870,69.0,150,180,0.0,84.0
1871,75.0,5,348,0.0,97.0
1872,66.0,116,108,0.0,81.0
1873,76.0,144,148,0.0,107.0
1874,47.0,140,702,0.0,85.0
1875,35.0,3,705,0.0,86.0
1876,67.0,136,172,0.0,88.0
1877,64.0,102,134,0.0,92.0
1878,67.0,146,158,0.0,89.0
1879,73.0,122,332,0.0,100.0
1880,64.0,122,98,0.0,85.0
1881,74.0,138,174,0.0,106.0
1882,45.0,2,672,0.0,106.0
1883,33.0,2,700,0.0,107.0
1884,65.0,134,192,0.0,91.0
1885,62.0,106,158,0.0,84.0
1886,71.0,0,286,0.0,93.0
1887,65.0,118,188,0.0,90.0
1888,62.0,116,186,0.0,89.0
1889,72.0,148,216,0.0,106.0
1890,43.0,2,684,0.0,101.0
1891,31.0,128,728,0.0,107.0
1892,64.0,140,212,0.0,98.0
1893,60.0,122,102,0.0,97.0
1894,84.0,250,368,0.0,113.0
1895,87.0,322,118,0.0,109.0
1896,81.0,232,214,0.0,113.0
1897,84.0,216,86,0.0,110.0
1898,78.0,202,226,0.0,100.0
1899,81.0,192,106,0.0,107.0
1900,75.0,180,232,0.0,98.0
1901,78.0,208,192,0.0,102.0
1902,72.0,218,134,0.0,101.0
1903,75.0,206,84,0.0,95.0
1904,69.0,184,98,0.0,100.0
1905,72.0,198,86,0.0,100.0
1906,66.0,188,176,0.0,90.0
1907,69.0,180,80,0.0,98.0
1908,63.0,168,140,0.0,86.0
1909,66.0,198,188,0.0,95.0
1910,60.0,156,114,0.0,90.0
1911,63.0,130,106,0.0,88.0
1912,42.0,228,3816,0.0,108.0
1913,30.0,4,3836,0.0,108.0
1914,57.0,120,106,0.0,95.0
1915,60.0,124,132,0.0,92.0
1916,54.0,108,160,0.0,91.0
1917,57.0,134,148,0.0,98.0
1918,51.0,112,168,0.0,95.0
1919,54.0,130,172,0.0,88.0
1920,48.0,130,108,0.0,95.0
1921,51.0,110,132,0.0,92.0
1922,45.0,128,154,0.0,103.0
1923,48.0,134,242,0.0,103.0
1924,42.0,206,280,0.0,95.0
1925,45.0,210,250,0.0,105.0
1926,39.0,224,318,0.0,99.0
1927,42.0,244,296,0.0,100.0
1928,36.0,274,396,0.0,105.0
1929,39.0,328,486,0.0,103.0
1930,34.0,368,770,0.0,114.0
1931,33.0,664,1932,0.0,106.0
1932,36.0,1853,302,0.0,92.0
1933,39.0,276,216,0.0,85.0
1934,41.0,196,194,0.0,94.0
1935,45.0,168,176,0.0,103.0
1936,48.0,166,162,0.0,97.0
1937,51.0,140,108,0.0,88.0
1938,29.0,3,3028,0.0,110.0
1939,53.0,118,126,0.0,92.0
1940,57.0,108,110,0.0,97.0
1941,60.0,106,112,0.0,94.0
1942,63.0,94,92,0.0,91.0
1943,65.0,102,94,0.0,101.0
1944,69.0,84,108,0.0,100.0
1945,72.0,92,118,0.0,101.0
1946,75.0,90,66,0.0,95.0
1947,81.0,116,324,0.0,96.0
1948,77.0,104,476,0.0,103.0
1949,84.0,104,278,0.0,90.0
1950,87.0,98,1802,0.0,104.0
1951,86.0,1550,290,0.0,72.0
1952,84.0,230,204,0.0,83.0
1953,82.0,164,170,0.0,97.0
1954,81.0,175,147,0.0,92.0
1955,79.0,129,120,0.0,94.0
1956,77.0,108,92,0.0,95.0
1957,76.0,104,132,0.0,93.0
1958,57.0,6,2706,0.0,75.0
1959,75.0,108,148,0.0,87.0
1960,60.0,2,2734,0.0,79.0
1961,53.0,16,2770,0.0,75.0
1962,74.0,106,88,0.0,91.0
1963,63.0,4,2810,0.0,86.0
1964,72.0,94,130,0.0,95.0
1965,70.0,106,174,0.0,101.0
1966,69.0,106,154,0.0,95.0
1967,67.0,106,99,0.0,97.0
1968,65.0,96,116,0.0,95.0
1969,64.0,104,28,0.0,103.0
1970,41.0,2,1028,0.0,62.0
1971,45.0,2,1044,0.0,65.0
1972,48.0,12,1094,0.0,75.0
1973,75.0,158,1366,0.0,102.0
1974,63.0,2,1420,0.0,98.0
1975,62.0,14,104,0.0,54.0
1976,74.0,1378,178,0.0,77.0
1977,60.0,144,98,0.0,63.0
1978,72.0,3,143,0.0,78.0
1979,58.0,12,100,0.0,79.0
1980,70.0,119,156,0.0,85.0
1981,57.0,128,106,0.0,76.0
1982,69.0,0,118,0.0,81.0
1983,55.0,128,140,0.0,80.0
1984,67.0,6,136,0.0,83.0
1985,53.0,118,112,0.0,86.0
1986,65.0,2,162,0.0,91.0
1987,64.0,122,137,0.0,89.0
1988,52.0,2,146,0.0,79.0
1989,51.0,14,92,0.0,76.0
1990,63.0,118,145,0.0,87.0
1991,50.0,10,134,0.0,93.0
1992,62.0,128,147,0.0,87.0
1993,48.0,25,143,0.0,92.0
1994,60.0,112,186,0.0,94.0
1995,46.0,6,158,0.0,100.0
1996,58.0,125,198,0.0,101.0
1997,57.0,150,166,0.0,95.0
1998,45.0,6,166,0.0,93.0
1999,43.0,10,192,0.0,93.0
2000,55.0,148,214,0.0,97.0
2001,41.0,8,124,0.0,92.0
2002,53.0,164,180,0.0,97.0
2003,40.0,10,72,0.0,106.0
2004,52.0,196,486,0.0,105.0
2005,51.0,394,1922,0.0,95.0
2006,53.0,1804,386,0.0,76.0
2007,51.0,300,236,0.0,78.0
2008,50.0,190,236,0.0,84.0
2009,51.0,200,208,0.0,79.0
2010,52.0,182,188,0.0,84.0
2011,53.0,142,162,0.0,76.0
2012,54.0,140,142,0.0,70.0
2013,55.0,146,126,0.0,73.0
2014,56.0,110,122,0.0,70.0
2015,57.0,102,130,0.0,81.0
2016,58.0,106,50,0.0,88.0
2017,59.0,80,66,0.0,69.0
2018,60.0,88,68,0.0,83.0
2019,61.0,80,42,0.0,79.0
2020,62.0,80,42,0.0,71.0
2021,63.0,72,36,0.0,83.0
2022,64.0,80,64,0.0,84.0
2023,65.0,80,58,0.0,87.0
2024,66.0,56,42,0.0,71.0
2025,67.0,66,72,0.0,85.0
2026,68.0,75,111,0.0,78.0
2027,69.0,83,44,0.0,70.0
2028,70.0,44,44,0.0,91.0
2029,71.0,74,50,0.0,70.0
2030,72.0,82,48,0.0,84.0
2031,73.0,62,42,0.0,70.0
2032,74.0,78,38,0.0,76.0
2033,75.0,70,38,0.0,75.0
2034,39.0,2,4742,0.0,97.0
2035,36.0,0,4750,0.0,87.0
2036,33.0,4,4752,0.0,79.0
2037,76.0,84,52,0.0,78.0
2038,77.0,78,64,0.0,84.0
2039,78.0,70,46,0.0,67.0
2040,29.0,12,4980,0.0,106.0
2041,79.0,82,60,0.0,76.0
2042,80.0,76,110,0.0,75.0
2043,81.0,90,78,0.0,76.0
2044,82.0,84,50,0.0,74.0
2045,83.0,74,103,0.0,57.0
2046,84.0,100,114,0.0,71.0
2047,85.0,104,118,0.0,65.0
2048,86.0,110,220,0.0,57.0
2049,87.0,226,776,0.0,62.0
2050,84.0,686,402,0.0,54.0
2051,81.0,516,290,0.0,58.0
2052,77.0,516,472,0.0,65.0
2053,76.0,710,1880,0.0,55.0
2054,75.0,2160,1992,0.0,22.0
2055,74.0,2920,866,0.0,55.0
2056,72.0,814,156,0.0,41.0
2057,62.0,4,1084,0.0,23.0
2058,70.0,134,198,0.0,60.0
2059,58.0,4,1190,0.0,34.0
2060,60.0,8,556,0.0,28.0
2061,65.0,22,1738,0.0,28.0
2062,69.0,2,630,0.0,52.0
2063,63.0,192,660,0.0,31.0
2064,72.0,1806,78,0.0,63.0
2065,65.0,24,522,0.0,38.0
2066,75.0,212,864,0.0,75.0
2067,74.0,788,76,0.0,37.0
2068,60.0,6,1062,0.0,34.0
2069,72.0,118,172,0.0,41.0
2070,69.0,2,1212,0.0,45.0
2071,65.0,4,374,0.0,36.0
2072,62.0,22,376,0.0,23.0
2073,70.0,172,432,0.0,57.0
2074,74.0,1070,52,0.0,72.0
2075,65.0,4,682,0.0,95.0
2076,71.0,0,700,0.0,86.0
2077,77.0,178,896,0.0,111.0
2078,62.0,0,912,0.0,97.0
2079,50.0,6,906,0.0,92.0
2080,75.0,830,194,0.0,81.0
2081,74.0,130,184,0.0,101.0
2082,63.0,0,147,0.0,99.0
2083,67.0,3,173,0.0,104.0
2084,51.0,9,172,0.0,97.0
2085,72.0,132,244,0.0,115.0
2086,47.0,0,164,0.0,83.0
2087,59.0,5,170,0.0,80.0
2088,67.0,0,208,0.0,96.0
2089,79.0,548,270,0.0,108.0
2090,74.0,3,309,0.0,100.0
2091,77.0,1206,350,0.0,64.0
2092,75.0,278,84,0.0,59.0
2093,67.0,4,396,0.0,45.0
2094,48.0,30,604,0.0,40.0
2095,65.0,24,280,0.0,44.0
2096,75.0,12,314,0.0,66.0
2097,74.0,264,54,0.0,80.0
2098,50.0,272,566,0.0,40.0
2099,74.0,12,290,0.0,66.0
2100,63.0,2,338,0.0,36.0
2101,51.0,282,378,0.0,40.0
2102,72.0,296,162,0.0,67.0
2103,62.0,20,1086,0.0,34.0
2104,70.0,392,1282,0.0,54.0
2105,69.0,1140,496,0.0,24.0
2106,60.0,52,604,0.0,14.0
2107,53.0,72,1858,0.0,13.0
2108,65.0,1228,324,0.0,38.0
2109,67.0,318,296,0.0,49.0
2110,69.0,272,302,0.0,73.0
2111,70.0,244,294,0.0,87.0
2112,72.0,244,448,0.0,93.0
2113,58.0,368,972,0.0,49.0
2114,74.0,4,1018,0.0,80.0
2115,60.0,4,94,0.0,25.0
2116,72.0,980,122,0.0,36.0
2117,70.0,102,204,0.0,59.0
2118,62.0,66,180,0.0,39.0
2119,65.0,6,1828,0.0,50.0
2120,63.0,28,520,0.0,32.0
2121,69.0,148,574,0.0,50.0
2122,72.0,1126,104,0.0,48.0
2123,57.0,4,704,0.0,27.0
2124,75.0,192,860,0.0,64.0
2125,65.0,36,868,0.0,16.0
2126,58.0,823,133,0.0,45.0
2127,74.0,23,116,0.0,42.0
2128,60.0,10,76,0.0,52.0
2129,72.0,130,154,0.0,70.0
2130,71.0,8,544,0.0,43.0
2131,65.0,12,562,0.0,28.0
2132,50.0,16,854,0.0,62.0
2133,77.0,148,948,0.0,92.0
2134,51.0,12,82,0.0,60.0
2135,75.0,818,174,0.0,72.0
2136,53.0,22,86,0.0,47.0
2137,74.0,134,310,0.0,94.0
2138,78.0,214,1638,0.0,85.0
2139,60.0,1202,741,0.0,37.0
2140,79.0,360,458,0.0,74.0
2141,75.0,346,306,0.0,64.0
2142,51.0,36,2220,0.0,42.0
2143,63.0,32,310,0.0,27.0
2144,72.0,270,122,0.0,84.0
2145,72.0,114,348,0.0,76.0
2146,70.0,302,212,0.0,76.0
2147,53.0,240,1174,0.0,33.0
2148,62.0,4,1070,0.0,25.0
2149,65.0,10,1798,0.0,50.0
2150,70.0,400,1304,0.0,66.0
2151,58.0,766,652,0.0,51.0
2152,53.0,0,908,0.0,34.0
2153,62.0,310,346,0.0,49.0
2154,74.0,340,690,0.0,74.0
2155,77.0,318,716,0.0,56.0
2156,60.0,320,660,0.0,30.0
2157,53.0,8,966,0.0,35.0
2158,57.0,352,316,0.0,34.0
2159,75.0,326,742,0.0,47.0
2160,72.0,396,92,0.0,53.0
2161,57.0,8,302,0.0,22.0
2162,63.0,384,518,0.0,32.0
2163,72.0,2,626,0.0,51.0
2164,58.0,22,226,0.0,31.0
2165,62.0,16,222,0.0,15.0
2166,46.0,0,930,0.0,38.0
2167,70.0,640,306,0.0,39.0
2168,58.0,8,860,0.0,16.0
2169,46.0,10,904,0.0,17.0
2170,62.0,44,950,0.0,16.0
2171,70.0,682,1022,0.0,28.0
2172,62.0,2142,1010,0.0,51.0
2173,60.0,954,140,0.0,34.0
2174,50.0,15,1154,0.0,33.0
2175,58.0,140,126,0.0,54.0
2176,46.0,0,1406,0.0,42.0
2177,48.0,52,670,0.0,25.0
2178,53.0,3,2035,0.0,29.0
2179,51.0,172,778,0.0,33.0
2180,57.0,14,848,0.0,47.0
2181,60.0,2038,252,0.0,41.0
2182,63.0,196,1092,0.0,64.0
2183,62.0,918,182,0.0,41.0
2184,60.0,144,206,0.0,47.0
2185,48.0,18,1290,0.0,43.0
2186,57.0,32,1408,0.0,52.0
2187,53.0,6,1632,0.0,38.0
2188,58.0,188,394,0.0,70.0
2189,50.0,32,374,0.0,33.0
2190,62.0,1086,266,0.0,82.0
2191,50.0,2,606,0.0,91.0
2192,53.0,6,744,0.0,93.0
2193,59.0,2,942,0.0,87.0
2194,65.0,196,1136,0.0,106.0
2195,63.0,924,314,0.0,71.0
2196,38.0,2,1248,0.0,90.0
2197,62.0,158,202,0.0,92.0
2198,51.0,0,150,0.0,100.0
2199,55.0,2,156,0.0,103.0
2200,60.0,150,210,0.0,108.0
2201,39.0,2,208,0.0,97.0
2202,55.0,2,214,0.0,93.0
2203,47.0,598,226,0.0,70.0
2204,35.0,2,256,0.0,72.0
2205,67.0,2,288,0.0,103.0
2206,62.0,2,294,0.0,88.0
2207,65.0,1378,362,0.0,43.0
2208,55.0,28,348,0.0,36.0
2209,63.0,304,70,0.0,50.0
2210,36.0,2,638,0.0,34.0
2211,53.0,8,264,0.0,38.0
2212,63.0,296,332,0.0,64.0
2213,62.0,282,72,0.0,60.0
2214,38.0,18,656,0.0,38.0
2215,62.0,280,330,0.0,42.0
2216,60.0,322,188,0.0,54.0
2217,51.0,16,606,0.0,47.0
2218,39.0,12,834,0.0,28.0
2219,50.0,30,886,0.0,34.0
2220,58.0,434,1416,0.0,53.0
2221,41.0,0,1446,0.0,25.0
2222,57.0,1350,480,0.0,35.0
2223,48.0,16,474,0.0,10.0
2224,29.0,4,680,0.0,24.0
2225,41.0,942,416,0.0,34.0
2226,43.0,350,356,0.0,47.0
2227,45.0,296,416,0.0,69.0
2228,46.0,298,434,0.0,73.0
2229,48.0,326,548,0.0,66.0
2230,34.0,18,1000,0.0,49.0
2231,36.0,34,64,0.0,33.0
2232,50.0,418,1132,0.0,56.0
2233,48.0,986,214,0.0,35.0
2234,38.0,50,124,0.0,35.0
2235,46.0,88,236,0.0,57.0
2236,45.0,10,656,0.0,54.0
2237,39.0,122,668,0.0,39.0
2238,48.0,1258,258,0.0,58.0
2239,36.0,24,902,0.0,45.0
2240,51.0,210,1066,0.0,58.0
2241,50.0,982,160,0.0,46.0
2242,38.0,22,148,0.0,35.0
2243,39.0,144,254,0.0,48.0
2244,48.0,6,286,0.0,59.0
2245,53.0,8,454,0.0,66.0
2246,58.0,382,470,0.0,81.0
2247,57.0,388,498,0.0,65.0
2248,38.0,16,1672,0.0,45.0
2249,56.0,378,588,0.0,61.0
2250,54.0,440,1002,0.0,48.0
2251,46.0,232,3092,0.0,46.0
2252,39.0,44,1702,0.0,43.0
2253,55.0,916,1052,0.0,45.0
2254,57.0,270,128,0.0,48.0
2255,55.0,108,126,0.0,48.0
2256,54.0,134,124,0.0,60.0
2257,55.0,124,188,0.0,51.0
2258,57.0,166,410,0.0,69.0
2259,58.0,380,268,0.0,73.0
2260,49.0,772,1508,0.0,41.0
2261,40.0,28,1722,0.0,53.0
2262,58.0,12,1094,0.0,54.0
2263,41.0,3,1317,0.0,33.0
2264,50.0,408,1622,0.0,43.0
2265,53.0,903,792,0.0,52.0
2266,53.0,4,318,0.0,54.0
2267,50.0,358,328,0.0,50.0
2268,51.0,320,292,0.0,67.0
2269,55.0,10,306,0.0,65.0
2270,41.0,776,1060,0.0,39.0
2271,50.0,322,186,0.0,59.0
2272,53.0,4,188,0.0,61.0
2273,50.0,0,294,0.0,43.0
2274,53.0,328,322,0.0,42.0
2275,51.0,297,182,0.0,65.0
2276,41.0,3,611,0.0,38.0
2277,48.0,10,356,0.0,49.0
2278,46.0,334,228,0.0,58.0
2279,50.0,3,361,0.0,56.0
2280,45.0,14,200,0.0,46.0
2281,48.0,365,256,0.0,59.0
2282,29.0,24,1616,0.0,40.0
2283,45.0,6,648,0.0,19.0
2284,39.0,444,694,0.0,38.0
2285,48.0,4,836,0.0,44.0
2286,34.0,6,1068,0.0,39.0
2287,38.0,2,344,0.0,24.0
2288,46.0,762,438,0.0,37.0
2289,38.0,18,666,0.0,32.0
2290,34.0,4,758,0.0,29.0
2291,46.0,756,822,0.0,39.0
2292,53.0,0,256,0.0,37.0
2293,65.0,298,130,0.0,41.0
2294,65.0,306,84,0.0,32.0
2295,65.0,312,90,0.0,31.0
2296,65.0,296,100,0.0,32.0
2297,69.0,16,1494,0.0,29.0
2298,72.0,2896,1522,0.0,51.0
2299,65.0,8,106,0.0,38.0
2300,70.0,282,146,0.0,65.0
2301,74.0,4,288,0.0,75.0
2302,65.0,24,72,0.0,43.0
2303,72.0,262,258,0.0,90.0
2304,75.0,4,294,0.0,78.0
2305,65.0,12,62,0.0,51.0
2306,74.0,2,172,0.0,75.0
2307,77.0,240,274,0.0,94.0
2308,65.0,248,118,0.0,49.0
2309,75.0,4,244,0.0,55.0
2310,79.0,16,262,0.0,72.0
2311,65.0,274,114,0.0,43.0
2312,65.0,6,98,0.0,27.0
2313,74.0,290,212,0.0,36.0
2314,77.0,0,246,0.0,56.0
2315,65.0,280,100,0.0,32.0
2316,65.0,40,108,0.0,29.0
2317,73.0,238,228,0.0,46.0
2318,76.0,14,230,0.0,53.0
2319,65.0,266,120,0.0,35.0
2320,65.0,30,118,0.0,31.0
2321,72.0,0,184,0.0,53.0
2322,75.0,252,216,0.0,42.0
2323,65.0,276,104,0.0,37.0
2324,65.0,252,114,0.0,40.0
2325,71.0,14,144,0.0,34.0
2326,74.0,2,202,0.0,46.0
2327,65.0,276,110,0.0,42.0
2328,65.0,18,94,0.0,39.0
2329,73.0,8,204,0.0,41.0
2330,70.0,252,220,0.0,51.0
2331,65.0,262,94,0.0,44.0
2332,65.0,6,102,0.0,32.0
2333,72.0,272,288,0.0,39.0
2334,69.0,18,274,0.0,25.0
2335,65.0,238,96,0.0,44.0
2336,65.0,270,104,0.0,45.0
2337,65.0,254,140,0.0,49.0
2338,41.0,0,200,0.0,37.0
2339,53.0,250,80,0.0,49.0
2340,53.0,250,64,0.0,51.0
2341,53.0,250,88,0.0,54.0
2342,53.0,282,58,0.0,62.0
2343,60.0,282,1120,0.0,58.0
2344,69.0,14,1314,0.0,60.0
2345,53.0,6,72,0.0,49.0
2346,62.0,14,94,0.0,51.0
2347,70.0,242,334,0.0,86.0
2348,53.0,14,58,0.0,54.0
2349,63.0,232,128,0.0,78.0
2350,72.0,10,294,0.0,95.0
2351,53.0,8,84,0.0,57.0
2352,65.0,8,112,0.0,81.0
2353,74.0,230,308,0.0,89.0
2354,53.0,22,64,0.0,52.0
2355,67.0,2,203,0.0,58.0
2356,75.0,274,284,0.0,70.0
2357,53.0,250,72,0.0,49.0
2358,53.0,7,70,0.0,44.0
2359,65.0,3,199,0.0,62.0
2360,74.0,250,220,0.0,66.0
2361,53.0,262,66,0.0,52.0
2362,53.0,16,64,0.0,40.0
2363,64.0,20,186,0.0,45.0
2364,73.0,236,264,0.0,61.0
2365,53.0,242,66,0.0,49.0
2366,53.0,22,64,0.0,51.0
2367,72.0,0,240,0.0,7.0
2368,63.0,234,302,0.0,50.0
2369,53.0,273,77,0.0,36.0
2370,53.0,16,86,0.0,34.0
2371,62.0,263,220,0.0,39.0
2372,71.0,2,218,0.0,32.0
2373,53.0,270,74,0.0,37.0
2374,53.0,24,66,0.0,37.0
2375,70.0,244,190,0.0,50.0
2376,61.0,12,196,0.0,36.0
2377,53.0,254,78,0.0,41.0
2378,53.0,6,160,0.0,32.0
2379,60.0,12,224,0.0,27.0
2380,69.0,384,320,0.0,28.0
2381,58.0,2,972,0.0,35.0
2382,74.0,1686,1110,0.0,73.0
2383,60.0,42,71,0.0,10.0
2384,72.0,1047,168,0.0,30.0
2385,62.0,22,172,0.0,34.0
2386,70.0,68,232,0.0,56.0
2387,65.0,3,1663,0.0,47.0
2388,63.0,180,344,0.0,32.0
2389,69.0,6,374,0.0,45.0
2390,81.0,1166,286,0.0,70.0
2391,87.0,208,930,0.0,78.0
2392,84.0,832,188,0.0,72.0
2393,81.0,130,232,0.0,91.0
2394,89.0,2,666,0.0,94.0
2395,86.0,608,160,0.0,51.0
2396,82.0,176,478,0.0,79.0
2397,62.0,10,1334,0.0,42.0
2398,81.0,148,44,0.0,61.0
2399,82.0,60,82,0.0,73.0
2400,81.0,54,100,0.0,88.0
2401,79.0,92,104,0.0,79.0
2402,81.0,82,150,0.0,98.0
2403,84.0,140,370,0.0,85.0
2404,63.0,660,1238,0.0,49.0
2405,82.0,290,444,0.0,86.0
2406,81.0,338,370,0.0,73.0
2407,79.0,218,324,0.0,70.0
2408,70.0,182,3572,0.0,62.0
2409,77.0,288,362,0.0,79.0
2410,67.0,88,1088,0.0,29.0
2411,75.0,304,474,0.0,73.0
2412,74.0,330,422,0.0,64.0
2413,77.0,296,246,0.0,65.0
2414,70.0,34,664,0.0,25.0
2415,65.0,54,610,0.0,26.0
2416,77.0,395,1155,0.0,60.0
2417,53.0,14,468,0.0,26.0
2418,58.0,707,544,0.0,41.0
2419,76.0,338,322,0.0,49.0
2420,75.0,294,384,0.0,56.0
2421,74.0,274,326,0.0,78.0
2422,77.0,294,350,0.0,55.0
2423,75.0,256,304,0.0,45.0
2424,57.0,42,574,0.0,27.0
2425,53.0,8,800,0.0,19.0
2426,74.0,320,280,0.0,44.0
2427,63.0,0,322,0.0,31.0
2428,69.0,36,340,0.0,30.0
2429,72.0,282,144,0.0,48.0
2430,63.0,8,480,0.0,25.0
2431,69.0,12,667,0.0,12.0
2432,72.0,442,756,0.0,47.0
2433,62.0,42,248,0.0,27.0
2434,58.0,10,988,0.0,30.0
2435,70.0,662,346,0.0,39.0
2436,62.0,18,1046,0.0,9.0
2437,58.0,34,1080,0.0,14.0
2438,70.0,736,1920,0.0,34.0
2439,71.0,1854,432,0.0,27.0
2440,53.0,962,252,0.0,32.0
2441,65.0,320,58,0.0,52.0
2442,65.0,278,78,0.0,36.0
2443,65.0,286,74,0.0,31.0
2444,65.0,272,80,0.0,36.0
2445,69.0,25,1380,0.0,29.0
2446,72.0,3,1417,0.0,45.0
2447,70.0,248,82,0.0,72.0
2448,65.0,3,111,0.0,41.0
2449,74.0,7,258,0.0,62.0
2450,65.0,8,88,0.0,43.0
2451,72.0,6,222,0.0,86.0
2452,75.0,246,292,0.0,79.0
2453,65.0,19,64,0.0,42.0
2454,74.0,248,178,0.0,79.0
2455,77.0,3,255,0.0,92.0
2456,75.0,2,70,0.0,66.0
2457,65.0,14,80,0.0,43.0
2458,79.0,232,112,0.0,81.0
2459,65.0,4,100,0.0,45.0
2460,75.0,246,186,0.0,75.0
2461,79.0,8,252,0.0,75.0
2462,74.0,251,81,0.0,71.0
2463,65.0,3,92,0.0,46.0
2464,77.0,2,118,0.0,76.0
2465,65.0,2,90,0.0,49.0
2466,74.0,18,200,0.0,53.0
2467,77.0,254,260,0.0,72.0
2468,73.0,243,65,0.0,61.0
2469,65.0,5,86,0.0,47.0
2470,76.0,2,102,0.0,74.0
2471,73.0,260,72,0.0,68.0
2472,65.0,3,77,0.0,43.0
2473,76.0,9,244,0.0,75.0
2474,75.0,238,76,0.0,74.0
2475,72.0,2,72,0.0,67.0
2476,65.0,8,78,0.0,44.0
2477,65.0,2,80,0.0,44.0
2478,72.0,8,98,0.0,72.0
2479,75.0,242,258,0.0,68.0
2480,74.0,6,44,0.0,65.0
2481,71.0,248,94,0.0,51.0
2482,65.0,8,92,0.0,45.0
2483,65.0,2,80,0.0,46.0
2484,71.0,10,122,0.0,41.0
2485,74.0,252,236,0.0,48.0
2486,70.0,234,104,0.0,52.0
2487,65.0,28,70,0.0,30.0
2488,73.0,10,118,0.0,52.0
2489,65.0,2,86,0.0,35.0
2490,73.0,228,252,0.0,48.0
2491,70.0,12,268,0.0,49.0
2492,65.0,278,88,0.0,37.0
2493,72.0,22,316,0.0,36.0
2494,69.0,16,304,0.0,23.0
2495,65.0,214,98,0.0,37.0
2496,65.0,262,70,0.0,40.0
2497,65.0,244,106,0.0,41.0
2498,41.0,34,178,0.0,17.0
2499,53.0,224,68,0.0,42.0
2500,53.0,252,66,0.0,29.0
2501,53.0,252,66,0.0,53.0
2502,60.0,8,994,0.0,50.0
2503,53.0,270,60,0.0,55.0
2504,69.0,276,1279,0.0,66.0
2505,53.0,10,62,0.0,56.0
2506,62.0,10,75,0.0,49.0
2507,70.0,224,286,0.0,80.0
2508,53.0,26,78,0.0,45.0
2509,63.0,0,156,0.0,72.0
2510,72.0,230,300,0.0,94.0
2511,53.0,0,63,0.0,55.0
2512,65.0,3,97,0.0,77.0
2513,74.0,246,294,0.0,83.0
2514,53.0,16,64,0.0,48.0
2515,67.0,13,85,0.0,53.0
2516,75.0,275,146,0.0,66.0
2517,53.0,239,82,0.0,52.0
2518,67.0,14,90,0.0,57.0
2519,75.0,4,238,0.0,58.0
2520,53.0,28,60,0.0,47.0
2521,74.0,4,100,0.0,69.0
2522,65.0,232,112,0.0,69.0
2523,53.0,34,64,0.0,47.0
2524,65.0,12,114,0.0,31.0
2525,74.0,210,276,0.0,69.0
2526,53.0,26,60,0.0,48.0
2527,64.0,2,94,0.0,45.0
2528,73.0,222,144,0.0,62.0
2529,53.0,30,66,0.0,51.0
2530,64.0,12,94,0.0,25.0
2531,73.0,222,266,0.0,63.0
2532,53.0,0,66,0.0,46.0
2533,63.0,230,98,0.0,59.0
2534,72.0,22,78,0.0,62.0
2535,53.0,4,72,0.0,38.0
2536,63.0,14,154,0.0,58.0
2537,72.0,238,246,0.0,81.0
2538,53.0,22,62,0.0,40.0
2539,62.0,244,108,0.0,54.0
2540,71.0,4,112,0.0,55.0
2541,53.0,250,74,0.0,48.0
2542,62.0,8,69,0.0,51.0
2543,71.0,24,218,0.0,28.0
2544,53.0,24,74,0.0,37.0
2545,61.0,10,122,0.0,49.0
2546,70.0,230,156,0.0,58.0
2547,53.0,290,96,0.0,31.0
2548,61.0,2,250,0.0,38.0
2549,70.0,4,406,0.0,43.0
2550,53.0,28,588,0.0,25.0
2551,69.0,404,666,0.0,26.0
2552,60.0,6,666,0.0,26.0
2553,46.0,3,1144,0.0,49.0
2554,62.0,1480,1200,0.0,51.0
2555,48.0,30,168,0.0,31.0
2556,60.0,1116,202,0.0,32.0
2557,50.0,18,90,0.0,51.0
2558,58.0,136,136,0.0,42.0
2559,57.0,12,483,0.0,47.0
2560,51.0,140,588,0.0,45.0
2561,53.0,3,2047,0.0,30.0
2562,69.0,1100,220,0.0,65.0
2563,75.0,186,970,0.0,81.0
2564,72.0,848,162,0.0,63.0
2565,69.0,136,196,0.0,71.0
2566,77.0,0,691,0.0,85.0
2567,74.0,659,180,0.0,58.0
2568,50.0,3,1443,0.0,58.0
2569,70.0,178,670,0.0,65.0
2570,69.0,140,72,0.0,43.0
2571,70.0,90,148,0.0,64.0
2572,69.0,74,118,0.0,71.0
2573,67.0,118,136,0.0,74.0
2574,69.0,84,196,0.0,77.0
2575,72.0,182,386,0.0,71.0
2576,70.0,324,470,0.0,68.0
2577,51.0,592,1554,0.0,29.0
2578,69.0,350,358,0.0,45.0
2579,67.0,258,342,0.0,52.0
2580,65.0,320,390,0.0,53.0
2581,58.0,180,3934,0.0,61.0
2582,55.0,68,1260,0.0,43.0
2583,63.0,314,436,0.0,54.0
2584,62.0,0,394,0.0,42.0
2585,65.0,312,226,0.0,51.0
2586,58.0,390,668,0.0,36.0
2587,53.0,38,648,0.0,41.0
2588,65.0,422,986,0.0,53.0
2589,65.0,326,364,0.0,60.0
2590,67.0,358,308,0.0,59.0
2591,65.0,292,142,0.0,73.0
2592,58.0,812,1178,0.0,51.0
2593,50.0,26,1242,0.0,31.0
2594,65.0,324,442,0.0,52.0
2595,63.0,310,386,0.0,53.0
2596,62.0,358,438,0.0,49.0
2597,48.0,32,1288,0.0,43.0
2598,41.0,10,2662,0.0,31.0
2599,63.0,440,252,0.0,48.0
2600,57.0,16,1412,0.0,48.0
2601,48.0,36,1006,0.0,20.0
2602,42.0,8,1268,0.0,38.0
2603,57.0,14,1258,0.0,31.0
2604,63.0,608,2094,0.0,48.0
2605,46.0,2,880,0.0,27.0
2606,62.0,1838,966,0.0,21.0
2607,43.0,30,942,0.0,21.0
2608,58.0,6,980,0.0,20.0
2609,34.0,2666,768,0.0,34.0
2610,50.0,18,1098,0.0,49.0
2611,36.0,20,80,0.0,24.0
2612,48.0,1102,204,0.0,34.0
2613,38.0,6,72,0.0,20.0
2614,46.0,132,110,0.0,49.0
2615,45.0,60,408,0.0,52.0
2616,41.0,10,1896,0.0,22.0
2617,39.0,106,562,0.0,25.0
2618,57.0,1182,206,0.0,58.0
2619,60.0,858,82,0.0,32.0
2620,63.0,186,948,0.0,64.0
2621,57.0,112,155,0.0,65.0
2622,65.0,4,446,0.0,69.0
2623,62.0,422,156,0.0,52.0
2624,50.0,162,648,0.0,41.0
2625,53.0,6,650,0.0,34.0
2626,58.0,144,134,0.0,83.0
2627,77.0,544,514,0.0,83.0
2628,74.0,461,176,0.0,53.0
2629,65.0,22,686,0.0,45.0
2630,62.0,3,705,0.0,35.0
2631,71.0,242,432,0.0,27.0
2632,36.0,10,1262,0.0,65.0
2633,38.0,22,222,0.0,42.0
2634,39.0,90,216,0.0,64.0
2635,48.0,16,310,0.0,70.0
2636,50.0,1144,440,0.0,60.0
2637,51.0,1666,1614,0.0,76.0
2638,47.0,24,566,0.0,66.0
2639,43.0,10,2032,0.0,61.0
2640,41.0,128,642,0.0,57.0
2641,59.0,1072,258,0.0,64.0
2642,65.0,184,866,0.0,89.0
2643,62.0,816,258,0.0,77.0
2644,59.0,146,190,0.0,79.0
2645,67.0,3,497,0.0,79.0
2646,55.0,3,506,0.0,57.0
2647,51.0,166,564,0.0,58.0
2648,63.0,414,230,0.0,72.0
2649,60.0,174,224,0.0,84.0
2650,79.0,602,658,0.0,73.0
2651,76.0,576,146,0.0,44.0
2652,64.0,14,882,0.0,25.0
2653,67.0,38,914,0.0,36.0
2654,73.0,194,414,0.0,45.0
2655,38.0,4,1256,0.0,72.0
2656,53.0,1912,1326,0.0,95.0
2657,40.0,2,246,0.0,64.0
2658,52.0,1142,270,0.0,70.0
2659,41.0,8,250,0.0,66.0
2660,50.0,134,288,0.0,80.0
2661,49.0,136,614,0.0,74.0
2662,45.0,4,2080,0.0,78.0
2663,43.0,8,649,0.0,69.0
2664,61.0,1070,226,0.0,84.0
2665,67.0,190,868,0.0,90.0
2666,64.0,830,216,0.0,76.0
2667,61.0,122,190,0.0,85.0
2668,69.0,158,488,0.0,94.0
2669,65.0,420,118,0.0,88.0
2670,57.0,8,598,0.0,67.0
2671,53.0,4,602,0.0,59.0
2672,62.0,132,126,0.0,93.0
2673,81.0,528,476,0.0,83.0
2674,77.0,430,160,0.0,68.0
2675,65.0,12,864,0.0,44.0
2676,69.0,0,890,0.0,51.0
2677,74.0,194,348,0.0,52.0
2678,62.0,8,302,0.0,29.0
2679,72.0,1434,572,0.0,66.0
2680,69.0,525,158,0.0,38.0
2681,54.0,3,791,0.0,33.0
2682,62.0,192,162,0.0,37.0
2683,74.0,16,504,0.0,25.0
2684,84.0,690,808,0.0,45.0
2685,81.0,722,176,0.0,30.0
2686,66.0,46,1040,0.0,32.0
2687,74.0,238,420,0.0,25.0
2688,74.0,1768,178,0.0,110.0
2689,82.0,134,144,0.0,101.0
2690,81.0,116,148,0.0,101.0
2691,82.0,104,122,0.0,94.0
2692,43.0,2,530,0.0,108.0
2693,74.0,94,90,0.0,101.0
2694,55.0,2,588,0.0,110.0
2695,82.0,92,124,0.0,104.0
2696,81.0,100,158,0.0,101.0
2697,82.0,106,124,0.0,96.0
2698,74.0,90,114,0.0,101.0
2699,82.0,98,128,0.0,105.0
2700,79.0,100,142,0.0,97.0
2701,82.0,104,126,0.0,98.0
2702,43.0,0,108,0.0,97.0
2703,74.0,116,110,0.0,105.0
2704,55.0,98,78,0.0,100.0
2705,82.0,3,133,0.0,94.0
2706,79.0,2,138,0.0,95.0
2707,54.0,111,146,0.0,86.0
2708,55.0,114,112,0.0,97.0
2709,82.0,2,130,0.0,95.0
2710,74.0,112,108,0.0,101.0
2711,45.0,12,108,0.0,110.0
2712,57.0,4,58,0.0,101.0
2713,82.0,88,134,0.0,93.0
2714,55.0,102,95,0.0,101.0
2715,77.0,6,126,0.0,92.0
2716,57.0,72,56,0.0,82.0
2717,82.0,14,132,0.0,100.0
2718,46.0,88,116,0.0,117.0
2719,74.0,6,110,0.0,101.0
2720,58.0,90,101,0.0,114.0
2721,82.0,4,144,0.0,108.0
2722,57.0,94,114,0.0,99.0
2723,77.0,28,136,0.0,98.0
2724,58.0,3,110,0.0,107.0
2725,82.0,89,153,0.0,99.0
2726,72.0,146,260,0.0,108.0
2727,82.0,100,147,0.0,90.0
2728,77.0,118,132,0.0,99.0
2729,48.0,16,358,0.0,105.0
2730,60.0,0,442,0.0,112.0
2731,82.0,98,132,0.0,94.0
2732,72.0,113,99,0.0,103.0
2733,82.0,99,118,0.0,92.0
2734,77.0,98,126,0.0,100.0
2735,82.0,96,130,0.0,92.0
2736,72.0,106,86,0.0,92.0
2737,82.0,84,122,0.0,95.0
2738,76.0,102,114,0.0,92.0
2739,82.0,82,128,0.0,100.0
2740,36.0,8,64,0.0,101.0
2741,72.0,118,96,0.0,97.0
2742,48.0,76,100,0.0,105.0
2743,82.0,8,120,0.0,89.0
2744,76.0,104,98,0.0,96.0
2745,47.0,10,108,0.0,86.0
2746,48.0,12,86,0.0,89.0
2747,82.0,82,128,0.0,88.0
2748,38.0,6,82,0.0,108.0
2749,72.0,102,110,0.0,97.0
2750,50.0,12,100,0.0,103.0
2751,82.0,82,132,0.0,91.0
2752,77.0,102,120,0.0,93.0
2753,48.0,2,124,0.0,98.0
2754,50.0,94,92,0.0,84.0
2755,82.0,0,130,0.0,92.0
2756,72.0,2,98,0.0,100.0
2757,40.0,108,102,0.0,106.0
2758,52.0,10,94,0.0,106.0
2759,82.0,90,134,0.0,99.0
2760,50.0,108,101,0.0,98.0
2761,79.0,3,145,0.0,95.0
2762,52.0,95,84,0.0,89.0
2763,82.0,6,166,0.0,87.0
2764,72.0,146,239,0.0,102.0
2765,80.0,136,150,0.0,92.0
2766,79.0,116,156,0.0,98.0
2767,80.0,122,132,0.0,84.0
2768,41.0,4,534,0.0,101.0
2769,53.0,8,578,0.0,108.0
2770,72.0,114,106,0.0,101.0
2771,80.0,108,120,0.0,84.0
2772,79.0,104,142,0.0,95.0
2773,80.0,100,128,0.0,87.0
2774,72.0,88,128,0.0,97.0
2775,80.0,110,130,0.0,89.0
2776,77.0,106,122,0.0,97.0
2777,80.0,90,140,0.0,93.0
2778,41.0,0,100,0.0,103.0
2779,72.0,112,108,0.0,104.0
2780,53.0,98,58,0.0,88.0
2781,80.0,2,126,0.0,88.0
2782,52.0,4,108,0.0,95.0
2783,77.0,108,128,0.0,93.0
2784,53.0,92,98,0.0,95.0
2785,80.0,2,132,0.0,88.0
2786,43.0,8,106,0.0,108.0
2787,72.0,112,146,0.0,100.0
2788,55.0,6,98,0.0,102.0
2789,80.0,96,138,0.0,87.0
2790,53.0,102,106,0.0,94.0
2791,75.0,6,128,0.0,87.0
2792,55.0,4,60,0.0,84.0
2793,80.0,88,144,0.0,90.0
2794,44.0,2,74,0.0,101.0
2795,72.0,118,118,0.0,101.0
2796,56.0,96,102,0.0,100.0
2797,80.0,2,146,0.0,88.0
2798,55.0,110,102,0.0,97.0
2799,75.0,12,138,0.0,88.0
2800,56.0,98,78,0.0,97.0
2801,80.0,4,169,0.0,84.0
2802,70.0,148,228,0.0,107.0
2803,80.0,118,152,0.0,81.0
2804,75.0,128,134,0.0,90.0
2805,58.0,8,416,0.0,116.0
2806,46.0,10,436,0.0,110.0
2807,80.0,98,150,0.0,83.0
2808,70.0,126,126,0.0,104.0
2809,80.0,110,144,0.0,79.0
2810,75.0,126,112,0.0,90.0
2811,80.0,94,140,0.0,82.0
2812,70.0,114,112,0.0,105.0
2813,80.0,102,136,0.0,84.0
2814,74.0,114,126,0.0,97.0
2815,80.0,96,136,0.0,86.0
2816,34.0,92,104,0.0,110.0
2817,70.0,6,110,0.0,100.0
2818,46.0,0,54,0.0,100.0
2819,44.0,72,48,0.0,84.0
2820,80.0,102,126,0.0,88.0
2821,45.0,22,42,0.0,78.0
2822,74.0,42,110,0.0,87.0
2823,46.0,48,96,0.0,103.0
2824,80.0,20,132,0.0,83.0
2825,36.0,4,78,0.0,108.0
2826,70.0,100,138,0.0,99.0
2827,48.0,84,116,0.0,103.0
2828,80.0,6,126,0.0,92.0
2829,46.0,84,144,0.0,105.0
2830,75.0,20,128,0.0,83.0
2831,48.0,74,102,0.0,96.0
2832,80.0,24,134,0.0,85.0
2833,38.0,104,98,0.0,106.0
2834,70.0,3,121,0.0,101.0
2835,50.0,93,88,0.0,105.0
2836,80.0,6,124,0.0,88.0
2837,48.0,110,94,0.0,101.0
2838,77.0,4,118,0.0,98.0
2839,50.0,80,38,0.0,79.0
2840,80.0,18,144,0.0,83.0
2841,70.0,112,150,0.0,103.0
2842,78.0,106,110,0.0,92.0
2843,77.0,110,122,0.0,85.0
2844,78.0,100,68,0.0,78.0
2845,51.0,20,414,0.0,101.0
2846,39.0,2,440,0.0,97.0
2847,70.0,78,112,0.0,98.0
2848,78.0,118,108,0.0,87.0
2849,77.0,86,116,0.0,98.0
2850,78.0,90,104,0.0,90.0
2851,70.0,90,106,0.0,104.0
2852,78.0,106,122,0.0,87.0
2853,75.0,112,120,0.0,83.0
2854,78.0,84,110,0.0,84.0
2855,70.0,113,111,0.0,100.0
2856,39.0,7,110,0.0,105.0
2857,51.0,15,88,0.0,88.0
2858,78.0,92,124,0.0,77.0
2859,50.0,85,114,0.0,96.0
2860,75.0,6,122,0.0,83.0
2861,51.0,84,104,0.0,92.0
2862,78.0,14,118,0.0,76.0
2863,41.0,12,80,0.0,110.0
2864,70.0,102,114,0.0,100.0
2865,53.0,82,100,0.0,105.0
2866,78.0,6,122,0.0,77.0
2867,73.0,4,114,0.0,83.0
2868,51.0,92,130,0.0,98.0
2869,53.0,76,86,0.0,75.0
2870,78.0,16,126,0.0,82.0
2871,42.0,10,94,0.0,101.0
2872,70.0,104,106,0.0,106.0
2873,54.0,10,86,0.0,102.0
2874,78.0,88,138,0.0,79.0
2875,53.0,102,106,0.0,97.0
2876,73.0,2,128,0.0,79.0
2877,54.0,6,78,0.0,101.0
2878,78.0,90,152,0.0,81.0
2879,68.0,148,154,0.0,87.0
2880,78.0,109,144,0.0,84.0
2881,73.0,120,114,0.0,81.0
2882,56.0,28,414,0.0,106.0
2883,78.0,88,126,0.0,82.0
2884,44.0,3,491,0.0,103.0
2885,68.0,118,68,0.0,81.0
2886,78.0,98,128,0.0,75.0
2887,73.0,116,72,0.0,79.0
2888,78.0,84,104,0.0,81.0
2889,68.0,98,52,0.0,86.0
2890,78.0,92,112,0.0,77.0
2891,72.0,104,119,0.0,95.0
2892,78.0,86,130,0.0,83.0
2893,32.0,100,92,0.0,113.0
2894,68.0,0,110,0.0,92.0
2895,44.0,92,66,0.0,94.0
2896,78.0,3,123,0.0,83.0
2897,72.0,6,64,0.0,83.0
2898,43.0,105,103,0.0,92.0
2899,44.0,82,91,0.0,88.0
2900,78.0,8,110,0.0,77.0
2901,68.0,94,104,0.0,84.0
2902,34.0,0,114,0.0,121.0
2903,46.0,3,97,0.0,117.0
2904,78.0,92,106,0.0,76.0
2905,73.0,9,114,0.0,72.0
2906,44.0,100,125,0.0,88.0
2907,46.0,70,98,0.0,91.0
2908,78.0,22,116,0.0,68.0
2909,36.0,94,107,0.0,111.0
2910,68.0,8,126,0.0,84.0
2911,48.0,78,90,0.0,108.0
2912,78.0,18,102,0.0,73.0
2913,46.0,68,132,0.0,101.0
2914,48.0,58,56,0.0,87.0
2915,75.0,34,124,0.0,78.0
2916,78.0,46,136,0.0,78.0
2917,68.0,94,154,0.0,87.0
2918,77.0,110,108,0.0,89.0
2919,37.0,6,264,0.0,101.0
2920,49.0,12,326,0.0,113.0
2921,75.0,90,136,0.0,84.0
2922,77.0,92,110,0.0,96.0
2923,68.0,96,152,0.0,94.0
2924,77.0,126,90,0.0,74.0
2925,49.0,80,150,0.0,100.0
2926,73.0,2,148,0.0,80.0
2927,51.0,52,148,0.0,89.0
2928,77.0,38,120,0.0,80.0
2929,53.0,32,124,0.0,98.0
2930,70.0,78,118,0.0,103.0
2931,75.0,100,128,0.0,80.0
2932,55.0,10,262,0.0,108.0
2933,73.0,106,138,0.0,84.0
2934,75.0,94,104,0.0,83.0
2935,70.0,98,78,0.0,92.0
2936,75.0,98,116,0.0,73.0
2937,73.0,2,142,0.0,81.0
2938,51.0,110,152,0.0,97.0
2939,53.0,62,130,0.0,93.0
2940,75.0,24,122,0.0,70.0
2941,55.0,48,144,0.0,97.0
2942,65.0,6,118,0.0,93.0
2943,75.0,90,124,0.0,72.0
2944,57.0,84,224,0.0,105.0
2945,72.0,110,120,0.0,89.0
2946,75.0,84,104,0.0,81.0
2947,65.0,104,74,0.0,89.0
2948,75.0,72,106,0.0,75.0
2949,53.0,102,124,0.0,95.0
2950,72.0,4,125,0.0,92.0
2951,55.0,52,132,0.0,97.0
2952,75.0,32,130,0.0,75.0
2953,57.0,46,138,0.0,101.0
2954,65.0,66,122,0.0,89.0
2955,73.0,94,114,0.0,83.0
2956,58.0,18,211,0.0,109.0
2957,72.0,106,126,0.0,92.0
2958,73.0,94,120,0.0,79.0
2959,65.0,94,114,0.0,92.0
2960,73.0,96,126,0.0,84.0
2961,70.0,2,112,0.0,95.0
2962,46.0,102,144,0.0,104.0
2963,48.0,76,86,0.0,82.0
2964,73.0,18,126,0.0,83.0
2965,49.0,42,92,0.0,91.0
2966,66.0,48,115,0.0,85.0
2967,71.0,86,98,0.0,76.0
2968,51.0,26,202,0.0,94.0
2969,70.0,100,126,0.0,84.0
2970,71.0,80,110,0.0,77.0
2971,66.0,92,88,0.0,90.0
2972,71.0,91,108,0.0,81.0
2973,47.0,85,136,0.0,83.0
2974,70.0,20,136,0.0,94.0
2975,71.0,26,102,0.0,75.0
2976,49.0,54,130,0.0,95.0
2977,51.0,46,146,0.0,95.0
2978,61.0,60,148,0.0,94.0
2979,71.0,86,102,0.0,60.0
2980,53.0,20,232,0.0,100.0
2981,68.0,92,110,0.0,82.0
2982,71.0,88,126,0.0,79.0
2983,61.0,104,100,0.0,93.0
2984,71.0,98,116,0.0,79.0
2985,49.0,102,112,0.0,93.0
2986,68.0,0,112,0.0,84.0
2987,51.0,52,118,0.0,92.0
2988,71.0,40,146,0.0,76.0
2989,53.0,34,132,0.0,98.0
2990,61.0,74,168,0.0,92.0
2991,54.0,6,224,0.0,97.0
2992,70.0,124,122,0.0,91.0
2993,68.0,94,126,0.0,85.0
2994,70.0,98,128,0.0,89.0
2995,61.0,90,118,0.0,90.0
2996,70.0,100,124,0.0,94.0
2997,66.0,26,116,0.0,77.0
2998,42.0,68,176,0.0,92.0
2999,44.0,60,136,0.0,95.0
3000,70.0,28,120,0.0,97.0
3001,46.0,32,150,0.0,106.0
3002,63.0,3,157,0.0,88.0
3003,68.0,117,104,0.0,78.0
3004,48.0,76,294,0.0,108.0
3005,66.0,94,88,0.0,78.0
3006,68.0,108,62,0.0,68.0
3007,63.0,86,118,0.0,74.0
3008,68.0,102,89,0.0,69.0
3009,66.0,8,130,0.0,76.0
3010,44.0,86,156,0.0,91.0
3011,68.0,36,118,0.0,70.0
3012,46.0,46,162,0.0,103.0
3013,48.0,46,140,0.0,99.0
3014,58.0,56,116,0.0,103.0
3015,68.0,74,114,0.0,69.0
3016,50.0,20,224,0.0,106.0
3017,65.0,122,88,0.0,80.0
3018,68.0,80,110,0.0,67.0
3019,58.0,84,116,0.0,101.0
3020,68.0,98,118,0.0,79.0
3021,46.0,62,144,0.0,107.0
3022,65.0,48,122,0.0,84.0
3023,48.0,22,144,0.0,98.0
3024,68.0,62,116,0.0,72.0
3025,50.0,18,156,0.0,103.0
3026,68.0,126,118,0.0,67.0
3027,58.0,6,284,0.0,98.0
3028,65.0,118,76,0.0,74.0
3029,68.0,72,120,0.0,68.0
3030,68.0,92,116,0.0,62.0
3031,58.0,122,280,0.0,88.0
3032,65.0,128,82,0.0,79.0
3033,68.0,74,120,0.0,65.0
3034,60.0,40,142,0.0,73.0
3035,66.0,84,61,0.0,65.0
3036,63.0,92,84,0.0,72.0
3037,66.0,118,56,0.0,78.0
3038,60.0,98,132,0.0,74.0
3039,66.0,110,86,0.0,64.0
3040,63.0,108,76,0.0,66.0
3041,66.0,104,74,0.0,60.0
3042,51.0,96,1750,0.0,100.0
3043,39.0,92,968,0.0,103.0
3044,65.0,120,66,0.0,76.0
3045,56.0,8,252,0.0,88.0
3046,61.0,104,72,0.0,62.0
3047,65.0,86,97,0.0,54.0
3048,56.0,94,180,0.0,79.0
3049,65.0,104,114,0.0,64.0
3050,61.0,106,112,0.0,73.0
3051,65.0,88,90,0.0,85.0
3052,41.0,94,896,0.0,101.0
3053,65.0,135,92,0.0,67.0
3054,56.0,5,285,0.0,78.0
3055,58.0,98,130,0.0,83.0
3056,65.0,84,122,0.0,74.0
3057,56.0,96,116,0.0,67.0
3058,65.0,106,74,0.0,77.0
3059,58.0,102,110,0.0,74.0
3060,65.0,70,184,0.0,65.0
3061,63.0,100,88,0.0,67.0
3062,54.0,116,256,0.0,79.0
3063,58.0,106,80,0.0,81.0
3064,63.0,88,106,0.0,58.0
3065,63.0,84,100,0.0,68.0
3066,54.0,100,298,0.0,75.0
3067,42.0,108,1540,0.0,97.0
3068,58.0,124,118,0.0,78.0
3069,30.0,16,756,0.0,108.0
3070,63.0,80,182,0.0,64.0
3071,53.0,14,196,0.0,61.0
3072,61.0,110,128,0.0,73.0
3073,58.0,108,146,0.0,85.0
3074,61.0,98,126,0.0,71.0
3075,53.0,118,166,0.0,80.0
3076,61.0,108,120,0.0,61.0
3077,58.0,114,134,0.0,88.0
3078,61.0,92,144,0.0,62.0
3079,31.0,120,1002,0.0,112.0
3080,34.0,44,54,0.0,30.0
3081,61.0,110,144,0.0,70.0
3082,53.0,8,362,0.0,72.0
3083,56.0,126,138,0.0,69.0
3084,61.0,96,128,0.0,68.0
3085,53.0,150,64,0.0,74.0
3086,61.0,94,114,0.0,44.0
3087,56.0,117,113,0.0,66.0
3088,61.0,83,126,0.0,60.0
3089,60.0,124,74,0.0,75.0
3090,51.0,130,266,0.0,80.0
3091,56.0,110,68,0.0,65.0
3092,60.0,80,98,0.0,59.0
3093,51.0,106,76,0.0,73.0
3094,60.0,96,72,0.0,57.0
3095,56.0,104,68,0.0,66.0
3096,60.0,86,132,0.0,54.0
3097,58.0,120,90,0.0,84.0
3098,49.0,112,244,0.0,79.0
3099,53.0,106,90,0.0,66.0
3100,58.0,92,122,0.0,69.0
3101,49.0,108,134,0.0,74.0
3102,58.0,98,118,0.0,71.0
3103,32.0,158,2444,0.0,102.0
3104,53.0,131,75,0.0,59.0
3105,58.0,75,112,0.0,69.0
3106,30.0,10,102,0.0,63.0
3107,31.0,32,86,0.0,66.0
3108,58.0,56,112,0.0,56.0
3109,49.0,132,330,0.0,70.0
3110,53.0,140,92,0.0,54.0
3111,58.0,64,134,0.0,64.0
3112,58.0,96,136,0.0,76.0
3113,49.0,110,286,0.0,56.0
3114,53.0,146,106,0.0,50.0
3115,58.0,58,226,0.0,88.0
3116,48.0,142,174,0.0,83.0
3117,56.0,110,124,0.0,69.0
3118,51.0,96,135,0.0,74.0
3119,56.0,106,118,0.0,75.0
3120,48.0,121,147,0.0,70.0
3121,56.0,83,120,0.0,57.0
3122,51.0,120,140,0.0,69.0
3123,56.0,84,198,0.0,61.0
3124,46.0,132,190,0.0,94.0
3125,55.0,136,122,0.0,69.0
3126,49.0,114,80,0.0,73.0
3127,55.0,100,114,0.0,61.0
3128,46.0,110,122,0.0,94.0
3129,32.0,34,2290,0.0,81.0
3130,55.0,124,139,0.0,51.0
3131,49.0,134,162,0.0,76.0
3132,55.0,120,176,0.0,50.0
3133,48.0,192,666,0.0,80.0
3134,56.0,332,354,0.0,75.0
3135,51.0,280,270,0.0,68.0
3136,48.0,228,148,0.0,81.0
3137,44.0,206,208,0.0,73.0
3138,32.0,0,1312,0.0,91.0
3139,51.0,208,196,0.0,81.0
3140,48.0,214,162,0.0,80.0
3141,44.0,192,116,0.0,75.0
3142,39.0,192,456,0.0,76.0
3143,48.0,210,450,0.0,91.0
3144,44.0,220,272,0.0,82.0
3145,39.0,216,318,0.0,90.0
3146,36.0,262,400,0.0,91.0
3147,44.0,242,294,0.0,79.0
3148,39.0,224,334,0.0,79.0
3149,48.0,204,188,0.0,88.0
3150,44.0,196,188,0.0,78.0
3151,51.0,220,194,0.0,86.0
3152,48.0,197,249,0.0,95.0
3153,56.0,191,312,0.0,84.0
3154,51.0,208,294,0.0,84.0
3155,60.0,208,242,0.0,84.0
3156,56.0,194,222,0.0,84.0
3157,63.0,200,58,0.0,90.0
3158,60.0,186,308,0.0,100.0
3159,68.0,192,306,0.0,93.0
3160,63.0,192,172,0.0,90.0
3161,72.0,198,48,0.0,103.0
3162,68.0,194,216,0.0,100.0
3163,75.0,198,270,0.0,98.0
3164,72.0,196,292,0.0,107.0
3165,80.0,192,292,0.0,100.0
3166,75.0,200,202,0.0,99.0
3167,84.0,224,68,0.0,108.0
3168,80.0,228,308,0.0,100.0
3169,87.0,256,246,0.0,102.0
3170,88.0,2,1240,0.0,107.0
3171,61.0,360,1300,0.0,73.0
3172,58.0,8,1374,0.0,79.0
3173,55.0,8,1410,0.0,66.0
3174,82.0,1384,362,0.0,104.0
3175,85.0,288,206,0.0,100.0
3176,79.0,232,228,0.0,98.0
3177,82.0,218,100,0.0,110.0
3178,76.0,190,182,0.0,103.0
3179,79.0,200,92,0.0,101.0
3180,73.0,190,242,0.0,97.0
3181,76.0,202,108,0.0,108.0
3182,70.0,186,246,0.0,104.0
3183,73.0,196,152,0.0,97.0
3184,67.0,190,242,0.0,103.0
3185,70.0,230,206,0.0,105.0
3186,55.0,0,172,0.0,103.0
3187,43.0,6,168,0.0,96.0
3188,64.0,6,200,0.0,101.0
3189,73.0,388,216,0.0,99.0
3190,70.0,0,226,0.0,101.0
3191,55.0,0,150,0.0,97.0
3192,43.0,2,144,0.0,92.0
3193,64.0,2,170,0.0,101.0
3194,73.0,382,216,0.0,102.0
3195,70.0,4,236,0.0,101.0
3196,53.0,11,134,0.0,97.0
3197,41.0,6,158,0.0,92.0
3198,70.0,3,221,0.0,99.0
3199,65.0,0,225,0.0,100.0
3200,73.0,392,248,0.0,100.0
3201,40.0,4,294,0.0,97.0
3202,52.0,13,303,0.0,98.0
3203,67.0,442,366,0.0,100.0
3204,72.0,3,409,0.0,107.0
3205,70.0,0,440,0.0,97.0
3206,48.0,870,208,0.0,86.0
3207,55.0,198,82,0.0,87.0
3208,52.0,186,166,0.0,102.0
3209,58.0,184,136,0.0,108.0
3210,55.0,184,164,0.0,97.0
3211,61.0,172,228,0.0,97.0
3212,58.0,180,200,0.0,107.0
3213,64.0,194,200,0.0,105.0
3214,61.0,176,270,0.0,98.0
3215,67.0,184,194,0.0,105.0
3216,64.0,174,294,0.0,105.0
3217,70.0,232,110,0.0,113.0
3218,58.0,326,130,0.0,106.0
3219,46.0,2,150,0.0,105.0
3220,73.0,2,170,0.0,96.0
3221,67.0,0,170,0.0,106.0
3222,76.0,2,220,0.0,111.0
3223,56.0,0,134,0.0,94.0
3224,44.0,10,156,0.0,86.0
3225,72.0,6,162,0.0,101.0
3226,77.0,390,188,0.0,110.0
3227,68.0,2,192,0.0,97.0
3228,55.0,2,106,0.0,98.0
3229,43.0,4,158,0.0,91.0
3230,76.0,8,216,0.0,105.0
3231,70.0,2,242,0.0,105.0
3232,79.0,368,248,0.0,106.0
3233,53.0,0,279,0.0,95.0
3234,41.0,4,347,0.0,93.0
3235,80.0,452,362,0.0,107.0
3236,77.0,0,361,0.0,103.0
3237,72.0,3,403,0.0,107.0
3238,56.0,1043,278,0.0,52.0
3239,65.0,250,152,0.0,64.0
3240,60.0,216,142,0.0,70.0
3241,68.0,178,78,0.0,82.0
3242,65.0,190,210,0.0,98.0
3243,72.0,182,170,0.0,105.0
3244,68.0,170,172,0.0,103.0
3245,77.0,182,76,0.0,111.0
3246,72.0,184,188,0.0,111.0
3247,80.0,168,232,0.0,106.0
3248,77.0,178,270,0.0,112.0
3249,84.0,256,118,0.0,107.0
3250,65.0,2,184,0.0,97.0
3251,53.0,2,210,0.0,93.0
3252,72.0,460,232,0.0,106.0
3253,41.0,2,230,0.0,84.0
3254,68.0,2,242,0.0,88.0
3255,65.0,10,206,0.0,97.0
3256,53.0,0,206,0.0,100.0
3257,72.0,412,226,0.0,110.0
3258,41.0,8,218,0.0,94.0
3259,68.0,0,294,0.0,92.0
3260,51.0,0,214,0.0,99.0
3261,39.0,3,230,0.0,97.0
3262,67.0,3,243,0.0,104.0
3263,72.0,402,258,0.0,109.0
3264,38.0,3,433,0.0,101.0
3265,66.0,0,470,0.0,95.0
3266,50.0,558,546,0.0,102.0
3267,69.0,5,558,0.0,101.0
3268,72.0,0,652,0.0,108.0
3269,69.0,1004,228,0.0,92.0
3270,72.0,236,180,0.0,94.0
3271,66.0,208,190,0.0,84.0
3272,69.0,240,134,0.0,71.0
3273,63.0,166,184,0.0,63.0
3274,66.0,187,191,0.0,76.0
3275,60.0,187,206,0.0,80.0
3276,63.0,182,220,0.0,85.0
3277,57.0,184,118,0.0,97.0
3278,60.0,182,132,0.0,98.0
3279,54.0,154,222,0.0,81.0
3280,57.0,230,162,0.0,105.0
3281,69.0,0,164,0.0,105.0
3282,60.0,0,164,0.0,97.0
3283,75.0,6,174,0.0,94.0
3284,48.0,3,171,0.0,96.0
3285,78.0,360,228,0.0,103.0
3286,58.0,3,144,0.0,106.0
3287,46.0,0,164,0.0,104.0
3288,74.0,6,172,0.0,93.0
3289,70.0,5,195,0.0,101.0
3290,79.0,351,228,0.0,107.0
3291,57.0,2,126,0.0,104.0
3292,78.0,2,188,0.0,91.0
3293,72.0,10,196,0.0,105.0
3294,45.0,3,189,0.0,101.0
3295,81.0,370,222,0.0,110.0
3296,55.0,0,242,0.0,95.0
3297,43.0,2,334,0.0,94.0
3298,79.0,6,398,0.0,98.0
3299,82.0,445,436,0.0,113.0
3300,74.0,2,520,0.0,102.0
3301,62.0,920,224,0.0,85.0
3302,70.0,248,64,0.0,96.0
3303,67.0,192,210,0.0,94.0
3304,74.0,182,146,0.0,99.0
3305,70.0,170,170,0.0,103.0
3306,79.0,192,166,0.0,100.0
3307,74.0,178,260,0.0,98.0
3308,62.0,2,198,0.0,39.0
3309,55.0,12,198,0.0,42.0
3310,82.0,248,688,0.0,98.0
3311,58.0,470,224,0.0,52.0
3312,67.0,182,216,0.0,70.0
3313,58.0,10,428,0.0,44.0
3314,62.0,498,510,0.0,41.0
3315,74.0,204,142,0.0,86.0
3316,55.0,28,544,0.0,35.0
3317,70.0,170,154,0.0,97.0
3318,79.0,194,114,0.0,97.0
3319,74.0,182,148,0.0,87.0
3320,82.0,176,230,0.0,100.0
3321,79.0,212,334,0.0,91.0
3322,59.0,8,204,0.0,31.0
3323,55.0,8,196,0.0,29.0
3324,65.0,452,228,0.0,41.0
3325,86.0,294,896,0.0,74.0
3326,86.0,174,298,0.0,92.0
3327,65.0,500,590,0.0,42.0
3328,59.0,18,600,0.0,29.0
3329,89.0,284,198,0.0,93.0
3330,55.0,10,738,0.0,39.0
3331,83.0,274,239,0.0,84.0
3332,86.0,234,132,0.0,92.0
3333,80.0,206,199,0.0,83.0
3334,83.0,208,124,0.0,80.0
3335,77.0,196,196,0.0,92.0
3336,80.0,216,108,0.0,91.0
3337,74.0,200,168,0.0,93.0
3338,77.0,198,86,0.0,101.0
3339,71.0,192,202,0.0,86.0
3340,74.0,198,94,0.0,101.0
3341,68.0,204,228,0.0,90.0
3342,71.0,206,170,0.0,85.0
3343,65.0,208,250,0.0,96.0
3344,68.0,290,176,0.0,92.0
3345,48.0,10,244,0.0,85.0
3346,50.0,0,252,0.0,67.0
3347,36.0,6,254,0.0,78.0
3348,53.0,14,246,0.0,56.0
3349,56.0,448,320,0.0,90.0
3350,56.0,576,1206,0.0,85.0
3351,47.0,10,1380,0.0,59.0
3352,53.0,0,1402,0.0,67.0
3353,50.0,10,1420,0.0,72.0
3354,35.0,10,1408,0.0,48.0
3355,55.0,1110,312,0.0,79.0
3356,44.0,452,208,0.0,67.0
3357,50.0,5,212,0.0,82.0
3358,32.0,3,223,0.0,62.0
3359,53.0,2,220,0.0,65.0
3360,60.0,6,246,0.0,82.0
3361,44.0,2,144,0.0,67.0
3362,32.0,10,146,0.0,65.0
3363,50.0,6,190,0.0,76.0
3364,60.0,400,214,0.0,91.0
3365,53.0,6,208,0.0,69.0
3366,50.0,2,206,0.0,80.0
3367,60.0,384,220,0.0,83.0
3368,32.0,4,222,0.0,69.0
3369,53.0,6,238,0.0,74.0
3370,44.0,8,248,0.0,69.0
3371,60.0,488,1248,0.0,90.0
3372,31.0,9,1356,0.0,70.0
3373,50.0,0,1398,0.0,76.0
3374,43.0,6,1396,0.0,59.0
3375,53.0,3,1423,0.0,73.0
3376,59.0,1176,262,0.0,62.0
3377,63.0,3,243,0.0,81.0
3378,36.0,442,252,0.0,53.0
3379,54.0,5,242,0.0,60.0
3380,48.0,4,253,0.0,37.0
3381,54.0,410,228,0.0,72.0
3382,48.0,14,212,0.0,70.0
3383,36.0,8,212,0.0,55.0
3384,63.0,2,252,0.0,83.0
3385,48.0,0,224,0.0,73.0
3386,36.0,14,234,0.0,61.0
3387,54.0,2,264,0.0,74.0
3388,63.0,406,288,0.0,88.0
3389,48.0,0,708,0.0,50.0
3390,36.0,26,711,0.0,52.0
3391,54.0,508,842,0.0,57.0
3392,63.0,2,1080,0.0,69.0
3393,35.0,16,260,0.0,31.0
3394,47.0,4,306,0.0,31.0
3395,55.0,964,342,0.0,36.0
3396,62.0,28,328,0.0,44.0
3397,51.0,3,219,0.0,59.0
3398,55.0,0,224,0.0,56.0
3399,39.0,11,220,0.0,50.0
3400,60.0,6,214,0.0,57.0
3401,67.0,474,244,0.0,78.0
3402,51.0,8,203,0.0,64.0
3403,39.0,14,192,0.0,53.0
3404,55.0,2,208,0.0,61.0
3405,67.0,410,242,0.0,85.0
3406,60.0,6,234,0.0,65.0
3407,51.0,4,209,0.0,61.0
3408,39.0,8,212,0.0,55.0
3409,55.0,3,241,0.0,78.0
3410,67.0,420,256,0.0,88.0
3411,60.0,3,246,0.0,70.0
3412,60.0,10,644,0.0,64.0
3413,51.0,0,918,0.0,47.0
3414,39.0,8,920,0.0,54.0
3415,67.0,568,1228,0.0,69.0
3416,55.0,4,1368,0.0,48.0
3417,59.0,32,256,0.0,34.0
3418,50.0,8,248,0.0,34.0
3419,38.0,12,256,0.0,32.0
3420,65.0,1102,326,0.0,52.0
3421,48.0,2,200,0.0,34.0
3422,63.0,484,239,0.0,47.0
3423,65.0,15,222,0.0,49.0
3424,36.0,14,214,0.0,41.0
3425,68.0,5,253,0.0,68.0
3426,65.0,6,232,0.0,62.0
3427,63.0,424,254,0.0,68.0
3428,48.0,4,240,0.0,57.0
3429,36.0,8,254,0.0,50.0
3430,68.0,2,282,0.0,78.0
3431,48.0,10,250,0.0,68.0
3432,65.0,0,292,0.0,61.0
3433,36.0,2,306,0.0,66.0
3434,63.0,466,334,0.0,62.0
3435,68.0,8,328,0.0,80.0
3436,68.0,662,1422,0.0,72.0
3437,62.0,8,1654,0.0,52.0
3438,65.0,10,1688,0.0,58.0
3439,67.0,1330,344,0.0,40.0
3440,35.0,8,1990,0.0,36.0
3441,47.0,8,2042,0.0,43.0
3442,71.0,10,250,0.0,37.0
3443,74.0,598,268,0.0,53.0
3444,71.0,6,234,0.0,46.0
3445,74.0,444,260,0.0,70.0
3446,71.0,427,223,0.0,43.0
3447,74.0,3,244,0.0,73.0
3448,74.0,26,762,0.0,37.0
3449,77.0,450,828,0.0,69.0
3450,56.0,412,499,0.0,49.0
3451,55.0,496,598,0.0,45.0
3452,74.0,6,216,0.0,50.0
3453,83.0,460,246,0.0,55.0
3454,74.0,30,194,0.0,41.0
3455,83.0,438,238,0.0,50.0
3456,74.0,24,136,0.0,46.0
3457,83.0,416,278,0.0,50.0
3458,77.0,27,749,0.0,34.0
3459,86.0,484,806,0.0,44.0
3460,68.0,415,618,0.0,44.0
3461,83.0,10,103,0.0,37.0
3462,86.0,484,184,0.0,31.0
3463,67.0,616,918,0.0,32.0
3464,83.0,22,110,0.0,21.0
3465,86.0,482,134,0.0,26.0
3466,83.0,18,144,0.0,22.0
3467,86.0,506,194,0.0,31.0
3468,80.0,726,1040,0.0,33.0
3469,86.0,8,2148,0.0,33.0
3470,89.0,606,2228,0.0,28.0
3471,79.0,1020,2568,0.0,11.0
3472,48.0,12,1920,0.0,101.0
3473,36.0,0,2128,0.0,98.0
3474,60.0,5078,3404,0.0,110.0
3475,51.0,2,680,0.0,34.0
3476,39.0,20,696,0.0,38.0
3477,63.0,3258,1142,0.0,56.0
3478,42.0,2,704,0.0,41.0
3479,54.0,8,708,0.0,44.0
3480,66.0,874,1076,0.0,62.0
3481,55.0,10,566,0.0,54.0
3482,43.0,6,802,0.0,49.0
3483,67.0,858,946,0.0,77.0
3484,56.0,18,456,0.0,51.0
3485,44.0,12,616,0.0,50.0
3486,68.0,784,1010,0.0,70.0
3487,48.0,8,578,0.0,38.0
3488,36.0,6,962,0.0,46.0
3489,60.0,784,1276,0.0,62.0
3490,35.0,12,860,0.0,22.0
3491,59.0,914,988,0.0,36.0
3492,47.0,32,962,0.0,23.0
3493,72.0,10,752,0.0,42.0
3494,75.0,1636,816,0.0,52.0
3495,66.0,20,814,0.0,40.0
3496,71.0,750,306,0.0,28.0
3497,67.0,2,294,0.0,34.0
3498,74.0,10,322,0.0,39.0
3499,72.0,3,437,0.0,40.0
3500,68.0,36,538,0.0,36.0
3501,78.0,748,893,0.0,42.0
3502,67.0,14,420,0.0,23.0
3503,71.0,20,704,0.0,17.0
3504,79.0,849,736,0.0,29.0
3505,32.0,8,2102,0.0,86.0
3506,44.0,2,2212,0.0,87.0
3507,56.0,2624,2810,0.0,106.0
3508,35.0,3,471,0.0,39.0
3509,47.0,16,502,0.0,36.0
3510,59.0,2646,650,0.0,62.0
3511,60.0,709,398,0.0,83.0
3512,61.0,342,246,0.0,70.0
3513,60.0,182,132,0.0,74.0
3514,59.0,120,164,0.0,78.0
3515,48.0,2,962,0.0,56.0
3516,36.0,14,1186,0.0,59.0
3517,60.0,140,442,0.0,76.0
3518,49.0,8,314,0.0,69.0
3519,37.0,16,450,0.0,60.0
3520,61.0,352,572,0.0,81.0
3521,51.0,2,450,0.0,62.0
3522,39.0,12,698,0.0,65.0
3523,63.0,394,1116,0.0,81.0
3524,44.0,6,682,0.0,49.0
3525,32.0,12,984,0.0,62.0
3526,56.0,810,1208,0.0,66.0
3527,31.0,12,788,0.0,42.0
3528,43.0,12,900,0.0,37.0
3529,55.0,932,954,0.0,50.0
3530,62.0,11,736,0.0,36.0
3531,71.0,3,837,0.0,47.0
3532,68.0,1712,886,0.0,36.0
3533,67.0,38,328,0.0,27.0
3534,70.0,758,410,0.0,49.0
3535,63.0,4,368,0.0,17.0
3536,68.0,0,556,0.0,38.0
3537,71.0,24,778,0.0,35.0
3538,74.0,750,868,0.0,58.0
3539,67.0,32,415,0.0,21.0
3540,70.0,16,614,0.0,20.0
3541,75.0,856,798,0.0,25.0
3542,49.0,422,316,0.0,46.0
3543,41.0,24,830,0.0,63.0
3544,44.0,342,312,0.0,34.0
3545,49.0,336,238,0.0,34.0
3546,61.0,2904,1682,0.0,83.0
3547,49.0,292,294,0.0,38.0
3548,41.0,324,682,0.0,42.0
3549,44.0,16,280,0.0,31.0
3550,49.0,296,218,0.0,39.0
3551,85.0,340,864,0.0,61.0
3552,49.0,280,302,0.0,53.0
3553,41.0,26,668,0.0,44.0
3554,80.0,354,748,0.0,64.0
3555,49.0,313,288,0.0,53.0
3556,44.0,3,617,0.0,39.0
3557,77.0,342,746,0.0,83.0
3558,49.0,274,332,0.0,58.0
3559,73.0,302,722,0.0,85.0
3560,41.0,24,732,0.0,48.0
3561,68.0,350,238,0.0,79.0
3562,44.0,26,258,0.0,52.0
3563,49.0,298,80,0.0,71.0
3564,48.0,388,298,0.0,75.0
3565,42.0,4,802,0.0,95.0
3566,45.0,336,318,0.0,61.0
3567,48.0,318,328,0.0,64.0
3568,57.0,4,1664,0.0,95.0
3569,60.0,2,1696,0.0,92.0
3570,63.0,468,1752,0.0,97.0
3571,48.0,328,296,0.0,53.0
3572,42.0,322,718,0.0,62.0
3573,45.0,40,248,0.0,33.0
3574,48.0,278,280,0.0,41.0
3575,84.0,370,852,0.0,69.0
3576,48.0,308,262,0.0,45.0
3577,81.0,328,800,0.0,78.0
3578,42.0,16,870,0.0,34.0
3579,48.0,296,188,0.0,37.0
3580,45.0,34,548,0.0,44.0
3581,78.0,306,838,0.0,59.0
3582,48.0,308,268,0.0,38.0
3583,75.0,316,754,0.0,48.0
3584,45.0,6,298,0.0,36.0
3585,72.0,350,402,0.0,44.0
3586,42.0,18,1080,0.0,28.0
3587,48.0,342,298,0.0,37.0
3588,63.0,294,148,0.0,42.0
3589,60.0,22,134,0.0,44.0
3590,63.0,18,104,0.0,32.0
3591,60.0,282,130,0.0,36.0
3592,43.0,346,1020,0.0,36.0
3593,60.0,10,104,0.0,39.0
3594,63.0,302,188,0.0,40.0
3595,60.0,308,114,0.0,48.0
3596,63.0,0,116,0.0,42.0
3597,44.0,278,658,0.0,60.0
3598,60.0,302,104,0.0,52.0
3599,63.0,0,124,0.0,50.0
3600,60.0,304,204,0.0,37.0
3601,63.0,8,204,0.0,28.0
3602,62.0,308,126,0.0,34.0
3603,60.0,14,114,0.0,37.0
3604,62.0,18,92,0.0,35.0
3605,60.0,284,128,0.0,32.0
3606,41.0,300,776,0.0,47.0
3607,60.0,296,152,0.0,32.0
3608,62.0,2,150,0.0,25.0
3609,62.0,308,114,0.0,37.0
3610,59.0,32,94,0.0,18.0
3611,62.0,24,82,0.0,32.0
3612,59.0,264,112,0.0,22.0
3613,43.0,294,802,0.0,25.0
3614,59.0,8,74,0.0,25.0
3615,62.0,296,128,0.0,31.0
3616,60.0,16,374,0.0,37.0
3617,67.0,326,122,0.0,42.0
3618,67.0,296,72,0.0,48.0
3619,36.0,288,982,0.0,44.0
3620,67.0,288,80,0.0,53.0
3621,65.0,6,92,0.0,54.0
3622,67.0,276,138,0.0,62.0
3623,65.0,14,66,0.0,48.0
3624,67.0,278,116,0.0,41.0
3625,43.0,8,134,0.0,61.0
3626,45.0,112,143,0.0,79.0
3627,65.0,6,60,0.0,54.0
3628,67.0,24,74,0.0,45.0
3629,47.0,116,144,0.0,59.0
3630,48.0,116,114,0.0,78.0
3631,65.0,12,80,0.0,56.0
3632,67.0,120,97,0.0,37.0
3633,50.0,3,117,0.0,70.0
3634,47.0,120,111,0.0,59.0
3635,67.0,12,126,0.0,62.0
3636,63.0,143,158,0.0,50.0
3637,63.0,294,92,0.0,37.0
3638,67.0,14,104,0.0,51.0
3639,63.0,16,78,0.0,39.0
3640,67.0,258,144,0.0,44.0
3641,48.0,8,804,0.0,65.0
3642,63.0,10,82,0.0,47.0
3643,67.0,264,152,0.0,41.0
3644,65.0,18,106,0.0,61.0
3645,67.0,268,160,0.0,39.0
3646,65.0,6,70,0.0,59.0
3647,67.0,270,93,0.0,41.0
3648,43.0,4,118,0.0,58.0
3649,45.0,110,150,0.0,78.0
3650,65.0,10,60,0.0,66.0
3651,67.0,130,88,0.0,58.0
3652,47.0,2,134,0.0,67.0
3653,48.0,126,122,0.0,87.0
3654,65.0,125,121,0.0,63.0
3655,67.0,7,116,0.0,74.0
3656,50.0,2,116,0.0,81.0
3657,47.0,136,64,0.0,80.0
3658,48.0,8,104,0.0,96.0
3659,63.0,132,156,0.0,73.0
3660,67.0,12,150,0.0,86.0
3661,65.0,3,83,0.0,68.0
3662,67.0,0,136,0.0,57.0
3663,43.0,288,140,0.0,73.0
3664,45.0,121,160,0.0,87.0
3665,65.0,5,74,0.0,71.0
3666,67.0,142,116,0.0,57.0
3667,47.0,3,135,0.0,68.0
3668,48.0,122,118,0.0,88.0
3669,50.0,128,114,0.0,85.0
3670,65.0,22,104,0.0,68.0
3671,67.0,4,130,0.0,75.0
3672,47.0,108,72,0.0,81.0
3673,48.0,12,102,0.0,101.0
3674,63.0,6,132,0.0,82.0
3675,67.0,126,164,0.0,78.0
3676,65.0,13,64,0.0,73.0
3677,67.0,276,124,0.0,60.0
3678,43.0,3,158,0.0,78.0
3679,45.0,112,188,0.0,93.0
3680,65.0,0,94,0.0,79.0
3681,67.0,126,124,0.0,70.0
3682,47.0,12,150,0.0,76.0
3683,48.0,120,130,0.0,92.0
3684,65.0,4,62,0.0,83.0
3685,50.0,10,106,0.0,87.0
3686,67.0,128,121,0.0,73.0
3687,47.0,122,50,0.0,71.0
3688,48.0,4,44,0.0,91.0
3689,63.0,132,114,0.0,73.0
3690,67.0,4,132,0.0,79.0
3691,58.0,2,110,0.0,111.0
3692,46.0,0,106,0.0,106.0
3693,64.0,6,144,0.0,101.0
3694,72.0,278,170,0.0,108.0
3695,56.0,3,121,0.0,90.0
3696,44.0,7,130,0.0,85.0
3697,65.0,294,143,0.0,104.0
3698,72.0,0,159,0.0,110.0
3699,55.0,2,132,0.0,95.0
3700,43.0,6,134,0.0,92.0
3701,64.0,2,154,0.0,99.0
3702,72.0,280,174,0.0,99.0
3703,67.0,4,176,0.0,94.0
3704,65.0,2,148,0.0,97.0
3705,53.0,6,164,0.0,87.0
3706,72.0,294,188,0.0,98.0
3707,68.0,0,196,0.0,86.0
3708,41.0,2,200,0.0,92.0
3709,72.0,3,179,0.0,97.0
3710,40.0,4,170,0.0,87.0
3711,67.0,2,200,0.0,94.0
3712,52.0,7,204,0.0,89.0
3713,70.0,306,228,0.0,92.0
3714,65.0,3,164,0.0,95.0
3715,53.0,8,162,0.0,93.0
3716,72.0,5,189,0.0,102.0
3717,41.0,6,188,0.0,83.0
3718,68.0,290,212,0.0,90.0
3719,67.0,2,58,0.0,91.0
3720,52.0,2,136,0.0,89.0
3721,40.0,4,134,0.0,89.0
3722,72.0,296,182,0.0,105.0
3723,70.0,2,177,0.0,89.0
3724,41.0,4,382,0.0,50.0
3725,53.0,6,436,0.0,51.0
3726,68.0,0,530,0.0,64.0
3727,65.0,16,534,0.0,67.0
3728,67.0,14,60,0.0,66.0
3729,72.0,416,784,0.0,103.0
3730,70.0,662,166,0.0,79.0
3731,68.0,114,44,0.0,69.0
3732,65.0,20,64,0.0,59.0
3733,63.0,3,57,0.0,63.0
3734,67.0,134,126,0.0,79.0
3735,65.0,129,40,0.0,88.0
3736,53.0,16,538,0.0,52.0
3737,62.0,18,166,0.0,63.0
3738,55.0,13,665,0.0,44.0
3739,60.0,6,708,0.0,59.0
3740,63.0,174,760,0.0,70.0
3741,59.0,10,324,0.0,25.0
3742,62.0,6,514,0.0,37.0
3743,43.0,733,568,0.0,36.0
3744,60.0,748,334,0.0,42.0
3745,48.0,28,512,0.0,24.0
3746,67.0,352,160,0.0,35.0
3747,67.0,280,164,0.0,31.0
3748,67.0,280,150,0.0,44.0
3749,67.0,302,136,0.0,39.0
3750,66.0,14,112,0.0,31.0
3751,67.0,296,144,0.0,40.0
3752,67.0,286,68,0.0,46.0
3753,66.0,12,70,0.0,45.0
3754,67.0,276,60,0.0,66.0
3755,66.0,10,76,0.0,50.0
3756,67.0,12,54,0.0,59.0
3757,66.0,280,102,0.0,53.0
3758,65.0,22,71,0.0,48.0
3759,67.0,284,100,0.0,48.0
3760,67.0,268,60,0.0,52.0
3761,65.0,10,66,0.0,36.0
3762,67.0,0,58,0.0,53.0
3763,65.0,266,70,0.0,42.0
3764,67.0,12,72,0.0,49.0
3765,65.0,284,98,0.0,41.0
3766,67.0,20,70,0.0,39.0
3767,65.0,14,68,0.0,41.0
3768,79.0,256,144,0.0,80.0
3769,81.0,114,144,0.0,88.0
3770,67.0,16,58,0.0,51.0
3771,65.0,4,62,0.0,51.0
3772,83.0,126,138,0.0,83.0
3773,84.0,114,154,0.0,94.0
3774,67.0,136,62,0.0,55.0
3775,65.0,6,64,0.0,59.0
3776,86.0,0,142,0.0,88.0
3777,83.0,112,148,0.0,84.0
3778,67.0,4,104,0.0,54.0
3779,63.0,152,130,0.0,47.0
3780,67.0,2,72,0.0,45.0
3781,63.0,306,90,0.0,35.0
3782,63.0,282,78,0.0,36.0
3783,67.0,12,68,0.0,48.0
3784,67.0,272,60,0.0,51.0
3785,63.0,2,61,0.0,41.0
3786,84.0,10,1142,0.0,83.0
3787,67.0,4,74,0.0,47.0
3788,65.0,308,100,0.0,43.0
3789,67.0,16,66,0.0,40.0
3790,65.0,16,68,0.0,36.0
3791,79.0,270,116,0.0,63.0
3792,81.0,108,154,0.0,73.0
3793,67.0,128,62,0.0,55.0
3794,65.0,20,60,0.0,42.0
3795,83.0,14,134,0.0,74.0
3796,84.0,114,156,0.0,94.0
3797,67.0,118,56,0.0,58.0
3798,65.0,10,48,0.0,73.0
3799,86.0,3,155,0.0,95.0
3800,83.0,121,150,0.0,93.0
3801,67.0,4,66,0.0,75.0
3802,63.0,134,90,0.0,66.0
3803,84.0,6,122,0.0,103.0
3804,67.0,10,60,0.0,57.0
3805,65.0,8,66,0.0,49.0
3806,79.0,282,150,0.0,76.0
3807,81.0,135,154,0.0,79.0
3808,67.0,20,66,0.0,50.0
3809,65.0,10,72,0.0,41.0
3810,83.0,121,138,0.0,72.0
3811,84.0,92,160,0.0,93.0
3812,67.0,16,60,0.0,52.0
3813,65.0,8,56,0.0,65.0
3814,86.0,136,148,0.0,96.0
3815,83.0,94,94,0.0,94.0
3816,67.0,4,60,0.0,85.0
3817,63.0,6,72,0.0,83.0
3818,84.0,138,136,0.0,112.0
3819,65.0,20,56,0.0,58.0
3820,67.0,14,80,0.0,74.0
3821,79.0,272,168,0.0,95.0
3822,81.0,118,170,0.0,94.0
3823,65.0,15,70,0.0,63.0
3824,67.0,130,104,0.0,57.0
3825,83.0,3,181,0.0,91.0
3826,84.0,112,162,0.0,104.0
3827,67.0,46,56,0.0,57.0
3828,65.0,6,53,0.0,69.0
3829,86.0,138,184,0.0,100.0
3830,83.0,80,114,0.0,97.0
3831,67.0,2,36,0.0,80.0
3832,63.0,2,38,0.0,84.0
3833,84.0,166,174,0.0,108.0
3834,84.0,12,146,0.0,91.0
3835,82.0,2,174,0.0,94.0
3836,48.0,368,226,0.0,97.0
3837,50.0,114,230,0.0,94.0
3838,82.0,4,110,0.0,95.0
3839,84.0,2,120,0.0,88.0
3840,52.0,148,160,0.0,98.0
3841,53.0,126,142,0.0,101.0
3842,55.0,4,126,0.0,104.0
3843,84.0,2,132,0.0,97.0
3844,82.0,122,148,0.0,103.0
3845,52.0,134,110,0.0,109.0
3846,53.0,10,126,0.0,110.0
3847,84.0,0,146,0.0,105.0
3848,80.0,130,162,0.0,97.0
3849,84.0,3,133,0.0,87.0
3850,82.0,22,138,0.0,84.0
3851,48.0,270,202,0.0,109.0
3852,50.0,105,218,0.0,105.0
3853,82.0,6,134,0.0,105.0
3854,84.0,142,144,0.0,94.0
3855,52.0,0,168,0.0,108.0
3856,53.0,130,162,0.0,109.0
3857,82.0,4,140,0.0,109.0
3858,84.0,16,130,0.0,108.0
3859,55.0,142,196,0.0,107.0
3860,52.0,138,276,0.0,112.0
3861,53.0,16,551,0.0,92.0
3862,80.0,6,612,0.0,92.0
3863,84.0,240,817,0.0,110.0
3864,79.0,10,131,0.0,80.0
3865,80.0,128,44,0.0,89.0
3866,82.0,654,186,0.0,97.0
3867,77.0,14,100,0.0,81.0
3868,75.0,126,132,0.0,88.0
3869,79.0,18,152,0.0,97.0
3870,77.0,124,40,0.0,94.0
3871,74.0,8,178,0.0,91.0
3872,53.0,0,604,0.0,55.0
3873,55.0,27,496,0.0,47.0
3874,72.0,3,811,0.0,92.0
3875,75.0,162,878,0.0,92.0
3876,55.0,32,366,0.0,34.0
3877,71.0,724,796,0.0,39.0
3878,74.0,12,986,0.0,75.0
3879,59.0,382,418,0.0,55.0
3880,60.0,336,302,0.0,72.0
3881,72.0,718,1142,0.0,71.0
3882,62.0,288,416,0.0,74.0
3883,63.0,348,416,0.0,67.0
3884,72.0,3,475,0.0,81.0
3885,64.0,351,344,0.0,87.0
3886,65.0,5,349,0.0,79.0
3887,72.0,294,510,0.0,102.0
3888,56.0,4,2528,0.0,48.0
3889,66.0,295,226,0.0,79.0
3890,72.0,332,450,0.0,79.0
3891,74.0,410,122,0.0,76.0
3892,72.0,76,118,0.0,88.0
3893,71.0,98,140,0.0,78.0
3894,67.0,6,896,0.0,81.0
3895,72.0,108,360,0.0,88.0
3896,55.0,34,1378,0.0,48.0
3897,74.0,286,420,0.0,91.0
3898,75.0,346,844,0.0,76.0
3899,65.0,780,728,0.0,49.0
3900,43.0,0,1512,0.0,56.0
3901,71.0,6,908,0.0,54.0
3902,47.0,506,362,0.0,44.0
3903,48.0,348,280,0.0,62.0
3904,72.0,730,1432,0.0,57.0
3905,50.0,285,301,0.0,70.0
3906,63.0,6,1512,0.0,22.0
3907,51.0,291,330,0.0,73.0
3908,60.0,10,446,0.0,59.0
3909,52.0,288,334,0.0,78.0
3910,53.0,12,334,0.0,66.0
3911,60.0,312,360,0.0,97.0
3912,54.0,310,282,0.0,79.0
3913,44.0,6,2670,0.0,35.0
3914,60.0,446,518,0.0,79.0
3915,62.0,494,112,0.0,66.0
3916,60.0,66,80,0.0,72.0
3917,59.0,100,116,0.0,65.0
3918,55.0,5,999,0.0,68.0
3919,60.0,108,444,0.0,75.0
3920,62.0,366,516,0.0,80.0
3921,43.0,27,1954,0.0,46.0
3922,63.0,436,918,0.0,68.0
3923,53.0,854,920,0.0,43.0
3924,31.0,16,1870,0.0,59.0
3925,59.0,6,1096,0.0,57.0
3926,60.0,888,1428,0.0,51.0
3927,36.0,14,1450,0.0,39.0
3928,51.0,6,1508,0.0,37.0
3929,43.0,3,349,0.0,41.0
3930,48.0,19,896,0.0,37.0
3931,51.0,2256,986,0.0,44.0
3932,41.0,8,460,0.0,39.0
3933,31.0,4,1324,0.0,41.0
3934,47.0,2,500,0.0,29.0
3935,50.0,842,1428,0.0,49.0
3936,48.0,1142,1122,0.0,111.0
3937,50.0,1130,74,0.0,78.0
3938,51.0,82,38,0.0,85.0
3939,53.0,80,100,0.0,97.0
3940,55.0,74,108,0.0,101.0
3941,57.0,64,108,0.0,99.0
3942,59.0,72,116,0.0,88.0
3943,39.0,5,1861,0.0,111.0
3944,60.0,72,316,0.0,117.0
3945,36.0,5,1896,0.0,113.0
3946,63.0,62,34,0.0,89.0
3947,62.0,282,104,0.0,72.0
3948,65.0,78,94,0.0,101.0
3949,67.0,74,110,0.0,108.0
3950,69.0,60,112,0.0,99.0
3951,71.0,82,60,0.0,87.0
3952,72.0,76,292,0.0,122.0
3953,74.0,264,112,0.0,103.0
3954,75.0,80,52,0.0,98.0
3955,77.0,82,120,0.0,109.0
3956,79.0,70,178,0.0,111.0
3957,81.0,76,232,0.0,107.0
3958,83.0,88,192,0.0,97.0
3959,60.0,64,684,0.0,115.0
3960,48.0,0,690,0.0,112.0
3961,55.0,6,680,0.0,106.0
3962,51.0,3,702,0.0,100.0
3963,84.0,3,735,0.0,124.0
