,note,step,duration,channel,velocity
0,53.0,0,192,0.0,80.0
1,60.0,0,192,0.0,80.0
2,65.0,0,192,0.0,80.0
3,69.0,0,192,0.0,80.0
4,72.0,0,192,0.0,80.0
5,41.0,0,192,0.0,80.0
6,69.0,0,192,0.0,80.0
7,72.0,0,192,0.0,80.0
8,48.0,240,192,0.0,80.0
9,72.0,0,192,0.0,80.0
10,69.0,0,192,0.0,80.0
11,45.0,240,192,0.0,80.0
12,41.0,0,192,0.0,80.0
13,69.0,0,288,0.0,80.0
14,72.0,240,288,0.0,80.0
15,74.0,120,48,0.0,80.0
16,29.0,240,192,0.0,80.0
17,72.0,60,48,0.0,80.0
18,71.0,60,24,0.0,80.0
19,72.0,30,24,0.0,80.0
20,69.0,30,48,0.0,80.0
21,67.0,60,48,0.0,80.0
22,65.0,60,48,0.0,80.0
23,53.0,0,96,0.0,80.0
24,57.0,60,96,0.0,80.0
25,77.0,0,192,0.0,80.0
26,53.0,120,96,0.0,80.0
27,57.0,0,96,0.0,80.0
28,55.0,0,96,0.0,80.0
29,58.0,0,96,0.0,80.0
30,53.0,120,96,0.0,80.0
31,76.0,0,192,0.0,80.0
32,58.0,0,96,0.0,80.0
33,53.0,120,96,0.0,80.0
34,55.0,0,96,0.0,80.0
35,57.0,0,96,0.0,80.0
36,53.0,120,96,0.0,80.0
37,60.0,0,96,0.0,80.0
38,75.0,0,192,0.0,80.0
39,60.0,0,96,0.0,80.0
40,57.0,0,96,0.0,80.0
41,53.0,120,96,0.0,80.0
42,62.0,0,96,0.0,80.0
43,53.0,0,96,0.0,80.0
44,58.0,120,96,0.0,80.0
45,74.0,0,192,0.0,80.0
46,53.0,120,96,0.0,80.0
47,58.0,0,96,0.0,80.0
48,62.0,0,96,0.0,80.0
49,62.0,120,96,0.0,80.0
50,58.0,0,96,0.0,80.0
51,53.0,0,96,0.0,80.0
52,58.0,0,96,0.0,80.0
53,53.0,0,96,0.0,80.0
54,62.0,120,96,0.0,80.0
55,53.0,120,96,0.0,80.0
56,62.0,0,96,0.0,80.0
57,58.0,0,96,0.0,80.0
58,62.0,0,96,0.0,80.0
59,58.0,0,96,0.0,80.0
60,53.0,120,96,0.0,80.0
61,53.0,0,96,0.0,80.0
62,55.0,120,96,0.0,80.0
63,72.0,0,96,0.0,80.0
64,64.0,0,96,0.0,80.0
65,55.0,0,96,0.0,80.0
66,53.0,120,96,0.0,80.0
67,64.0,0,96,0.0,80.0
68,70.0,0,96,0.0,80.0
69,64.0,0,96,0.0,80.0
70,55.0,0,96,0.0,80.0
71,53.0,120,96,0.0,80.0
72,70.0,0,192,0.0,80.0
73,53.0,0,96,0.0,80.0
74,64.0,120,96,0.0,80.0
75,55.0,0,96,0.0,80.0
76,55.0,0,96,0.0,80.0
77,64.0,0,96,0.0,80.0
78,53.0,120,96,0.0,80.0
79,64.0,0,96,0.0,80.0
80,55.0,0,96,0.0,80.0
81,53.0,120,96,0.0,80.0
82,53.0,0,96,0.0,80.0
83,57.0,120,96,0.0,80.0
84,74.0,0,96,0.0,80.0
85,65.0,0,96,0.0,80.0
86,57.0,0,96,0.0,80.0
87,53.0,120,96,0.0,80.0
88,65.0,0,96,0.0,80.0
89,72.0,0,96,0.0,80.0
90,65.0,0,96,0.0,80.0
91,57.0,0,96,0.0,80.0
92,53.0,120,96,0.0,80.0
93,72.0,0,192,0.0,80.0
94,65.0,0,96,0.0,80.0
95,53.0,120,96,0.0,80.0
96,57.0,0,96,0.0,80.0
97,65.0,120,96,0.0,80.0
98,57.0,0,96,0.0,80.0
99,53.0,0,96,0.0,80.0
100,65.0,0,96,0.0,80.0
101,57.0,0,96,0.0,80.0
102,53.0,120,96,0.0,80.0
103,82.0,0,48,0.0,80.0
104,81.0,60,48,0.0,80.0
105,79.0,60,48,0.0,80.0
106,60.0,0,192,0.0,80.0
107,52.0,0,192,0.0,80.0
108,55.0,120,192,0.0,80.0
109,81.0,60,48,0.0,80.0
110,79.0,60,48,0.0,80.0
111,77.0,60,48,0.0,80.0
112,76.0,60,48,0.0,80.0
113,77.0,60,48,0.0,80.0
114,76.0,60,48,0.0,80.0
115,74.0,60,48,0.0,80.0
116,72.0,60,48,0.0,80.0
117,70.0,60,48,0.0,80.0
118,53.0,60,48,0.0,80.0
119,69.0,0,96,0.0,80.0
120,60.0,60,48,0.0,80.0
121,57.0,0,48,0.0,80.0
122,60.0,60,48,0.0,80.0
123,55.0,60,48,0.0,80.0
124,77.0,60,192,0.0,80.0
125,60.0,60,48,0.0,80.0
126,58.0,60,48,0.0,80.0
127,60.0,60,48,0.0,80.0
128,57.0,60,48,0.0,80.0
129,76.0,0,192,0.0,80.0
130,60.0,60,48,0.0,80.0
131,57.0,60,48,0.0,80.0
132,77.0,0,96,0.0,80.0
133,60.0,60,48,0.0,80.0
134,58.0,60,96,0.0,80.0
135,65.0,120,96,0.0,80.0
136,74.0,0,96,0.0,80.0
137,46.0,120,96,0.0,80.0
138,67.0,0,96,0.0,80.0
139,58.0,120,96,0.0,80.0
140,48.0,120,96,0.0,80.0
141,64.0,0,96,0.0,80.0
142,55.0,120,96,0.0,80.0
143,82.0,0,48,0.0,80.0
144,81.0,60,48,0.0,80.0
145,79.0,60,48,0.0,80.0
146,60.0,0,192,0.0,80.0
147,52.0,0,192,0.0,80.0
148,55.0,120,192,0.0,80.0
149,81.0,60,48,0.0,80.0
150,79.0,60,48,0.0,80.0
151,77.0,60,48,0.0,80.0
152,76.0,60,48,0.0,80.0
153,77.0,60,48,0.0,80.0
154,76.0,60,48,0.0,80.0
155,74.0,60,48,0.0,80.0
156,72.0,60,48,0.0,80.0
157,70.0,60,48,0.0,80.0
158,53.0,60,48,0.0,80.0
159,69.0,0,96,0.0,80.0
160,60.0,60,48,0.0,80.0
161,57.0,0,48,0.0,80.0
162,60.0,60,48,0.0,80.0
163,55.0,60,48,0.0,80.0
164,81.0,60,192,0.0,80.0
165,64.0,60,48,0.0,80.0
166,58.0,0,48,0.0,80.0
167,64.0,60,48,0.0,80.0
168,57.0,60,48,0.0,80.0
169,79.0,60,192,0.0,80.0
170,65.0,60,48,0.0,80.0
171,60.0,60,48,0.0,80.0
172,77.0,0,96,0.0,80.0
173,65.0,60,48,0.0,80.0
174,58.0,60,96,0.0,80.0
175,74.0,0,96,0.0,80.0
176,65.0,120,96,0.0,80.0
177,46.0,120,96,0.0,80.0
178,67.0,120,96,0.0,80.0
179,58.0,0,96,0.0,80.0
180,48.0,120,96,0.0,80.0
181,64.0,0,96,0.0,80.0
182,55.0,120,96,0.0,80.0
183,57.0,0,64,0.0,80.0
184,65.0,80,64,0.0,80.0
185,41.0,0,192,0.0,80.0
186,53.0,120,192,0.0,80.0
187,60.0,80,64,0.0,80.0
188,69.0,80,64,0.0,80.0
189,65.0,80,64,0.0,80.0
190,60.0,80,64,0.0,80.0
191,58.0,80,64,0.0,80.0
192,67.0,80,64,0.0,80.0
193,36.0,0,192,0.0,80.0
194,48.0,0,192,0.0,80.0
195,64.0,80,64,0.0,80.0
196,65.0,0,64,0.0,80.0
197,57.0,80,64,0.0,80.0
198,29.0,80,192,0.0,80.0
199,41.0,0,192,0.0,80.0
200,60.0,80,64,0.0,80.0
201,67.0,80,64,0.0,80.0
202,60.0,80,64,0.0,80.0
203,64.0,80,64,0.0,80.0
204,69.0,80,64,0.0,80.0
205,60.0,80,64,0.0,80.0
206,65.0,80,64,0.0,80.0
207,60.0,80,64,0.0,80.0
208,67.0,80,64,0.0,80.0
209,36.0,0,192,0.0,80.0
210,48.0,0,192,0.0,80.0
211,64.0,80,64,0.0,80.0
212,70.0,80,64,0.0,80.0
213,67.0,80,64,0.0,80.0
214,64.0,80,64,0.0,80.0
215,60.0,0,64,0.0,80.0
216,69.0,80,64,0.0,80.0
217,53.0,0,192,0.0,80.0
218,41.0,80,192,0.0,80.0
219,65.0,80,64,0.0,80.0
220,67.0,80,64,0.0,80.0
221,60.0,80,64,0.0,80.0
222,48.0,0,192,0.0,80.0
223,64.0,80,64,0.0,80.0
224,69.0,80,64,0.0,80.0
225,60.0,80,64,0.0,80.0
226,65.0,80,64,0.0,80.0
227,70.0,80,64,0.0,80.0
228,60.0,80,64,0.0,80.0
229,67.0,80,64,0.0,80.0
230,69.0,0,64,0.0,80.0
231,72.0,80,64,0.0,80.0
232,41.0,0,192,0.0,80.0
233,53.0,80,192,0.0,80.0
234,77.0,80,64,0.0,80.0
235,81.0,80,64,0.0,80.0
236,77.0,80,64,0.0,80.0
237,74.0,80,64,0.0,80.0
238,72.0,80,64,0.0,80.0
239,77.0,80,64,0.0,80.0
240,81.0,80,64,0.0,80.0
241,80.0,0,64,0.0,80.0
242,74.0,80,64,0.0,80.0
243,65.0,0,192,0.0,80.0
244,53.0,80,192,0.0,80.0
245,71.0,80,64,0.0,80.0
246,72.0,0,64,0.0,80.0
247,76.0,80,64,0.0,80.0
248,52.0,0,192,0.0,80.0
249,64.0,80,192,0.0,80.0
250,79.0,80,64,0.0,80.0
251,75.0,80,64,0.0,80.0
252,72.0,80,64,0.0,80.0
253,70.0,80,64,0.0,80.0
254,69.0,80,64,0.0,80.0
255,72.0,80,64,0.0,80.0
256,51.0,0,192,0.0,80.0
257,63.0,0,192,0.0,80.0
258,78.0,80,64,0.0,80.0
259,77.0,0,64,0.0,80.0
260,74.0,80,64,0.0,80.0
261,62.0,80,192,0.0,80.0
262,50.0,0,192,0.0,80.0
263,70.0,80,64,0.0,80.0
264,69.0,80,64,0.0,80.0
265,74.0,80,64,0.0,80.0
266,77.0,80,64,0.0,80.0
267,77.0,80,64,0.0,80.0
268,71.0,80,64,0.0,80.0
269,62.0,0,192,0.0,80.0
270,50.0,0,192,0.0,80.0
271,68.0,80,64,0.0,80.0
272,69.0,0,64,0.0,80.0
273,73.0,80,64,0.0,80.0
274,49.0,0,192,0.0,80.0
275,61.0,80,192,0.0,80.0
276,76.0,80,64,0.0,80.0
277,72.0,80,64,0.0,80.0
278,69.0,80,64,0.0,80.0
279,67.0,80,64,0.0,80.0
280,66.0,0,64,0.0,80.0
281,69.0,80,64,0.0,80.0
282,60.0,80,192,0.0,80.0
283,48.0,0,192,0.0,80.0
284,75.0,80,64,0.0,80.0
285,74.0,0,64,0.0,80.0
286,71.0,80,64,0.0,80.0
287,59.0,0,192,0.0,80.0
288,47.0,80,192,0.0,80.0
289,67.0,80,64,0.0,80.0
290,65.0,80,64,0.0,80.0
291,70.0,80,64,0.0,80.0
292,74.0,80,64,0.0,80.0
293,73.0,0,64,0.0,80.0
294,67.0,80,64,0.0,80.0
295,46.0,0,192,0.0,80.0
296,58.0,80,192,0.0,80.0
297,64.0,80,64,0.0,80.0
298,65.0,0,64,0.0,80.0
299,69.0,80,64,0.0,80.0
300,45.0,80,192,0.0,80.0
301,57.0,0,192,0.0,80.0
302,72.0,80,64,0.0,80.0
303,77.0,80,64,0.0,80.0
304,72.0,80,64,0.0,80.0
305,69.0,80,64,0.0,80.0
306,67.0,0,64,0.0,80.0
307,70.0,80,64,0.0,80.0
308,46.0,0,192,0.0,80.0
309,58.0,80,192,0.0,80.0
310,69.0,80,64,0.0,80.0
311,70.0,80,64,0.0,80.0
312,74.0,80,64,0.0,80.0
313,73.0,80,64,0.0,80.0
314,74.0,80,64,0.0,80.0
315,79.0,80,64,0.0,80.0
316,78.0,80,64,0.0,80.0
317,79.0,80,64,0.0,80.0
318,82.0,80,64,0.0,80.0
319,81.0,80,64,0.0,80.0
320,82.0,80,64,0.0,80.0
321,86.0,80,64,0.0,80.0
322,85.0,80,64,0.0,80.0
323,86.0,80,64,0.0,80.0
324,82.0,80,64,0.0,80.0
325,81.0,80,64,0.0,80.0
326,82.0,80,64,0.0,80.0
327,79.0,80,64,0.0,80.0
328,78.0,80,64,0.0,80.0
329,79.0,80,64,0.0,80.0
330,74.0,80,64,0.0,80.0
331,73.0,80,64,0.0,80.0
332,74.0,80,64,0.0,80.0
333,70.0,80,64,0.0,80.0
334,58.0,0,192,0.0,80.0
335,46.0,0,192,0.0,80.0
336,67.0,80,64,0.0,80.0
337,65.0,0,192,0.0,80.0
338,48.0,80,192,0.0,80.0
339,57.0,0,192,0.0,80.0
340,64.0,240,192,0.0,80.0
341,55.0,0,192,0.0,80.0
342,36.0,480,192,0.0,80.0
343,48.0,0,192,0.0,80.0
344,52.0,240,192,0.0,80.0
345,40.0,0,192,0.0,80.0
346,55.0,0,192,0.0,80.0
347,43.0,240,192,0.0,80.0
348,79.0,240,48,0.0,80.0
349,81.0,60,48,0.0,80.0
350,79.0,60,48,0.0,80.0
351,76.0,60,48,0.0,80.0
352,79.0,60,48,0.0,80.0
353,81.0,60,48,0.0,80.0
354,79.0,60,48,0.0,80.0
355,76.0,60,48,0.0,80.0
356,77.0,60,48,0.0,80.0
357,79.0,60,48,0.0,80.0
358,77.0,60,48,0.0,80.0
359,74.0,60,48,0.0,80.0
360,67.0,60,48,0.0,80.0
361,76.0,0,48,0.0,80.0
362,69.0,60,48,0.0,80.0
363,77.0,0,48,0.0,80.0
364,76.0,60,48,0.0,80.0
365,67.0,0,48,0.0,80.0
366,64.0,0,48,0.0,80.0
367,72.0,60,48,0.0,80.0
368,67.0,0,48,0.0,80.0
369,76.0,60,48,0.0,80.0
370,69.0,0,48,0.0,80.0
371,77.0,60,48,0.0,80.0
372,76.0,0,48,0.0,80.0
373,67.0,60,48,0.0,80.0
374,64.0,60,48,0.0,80.0
375,72.0,0,48,0.0,80.0
376,74.0,0,48,0.0,80.0
377,65.0,60,48,0.0,80.0
378,76.0,0,48,0.0,80.0
379,67.0,60,48,0.0,80.0
380,74.0,0,48,0.0,80.0
381,65.0,60,48,0.0,80.0
382,62.0,0,48,0.0,80.0
383,71.0,60,48,0.0,80.0
384,64.0,0,96,0.0,80.0
385,55.0,120,96,0.0,80.0
386,72.0,60,288,0.0,80.0
387,60.0,120,96,0.0,80.0
388,74.0,0,48,0.0,80.0
389,55.0,120,96,0.0,80.0
390,76.0,60,48,0.0,80.0
391,59.0,60,192,0.0,80.0
392,74.0,0,192,0.0,80.0
393,43.0,240,192,0.0,80.0
394,31.0,0,192,0.0,80.0
395,47.0,0,192,0.0,80.0
396,35.0,240,192,0.0,80.0
397,50.0,0,192,0.0,80.0
398,38.0,240,192,0.0,80.0
399,77.0,240,48,0.0,80.0
400,79.0,60,48,0.0,80.0
401,77.0,60,48,0.0,80.0
402,74.0,60,48,0.0,80.0
403,77.0,60,48,0.0,80.0
404,79.0,60,48,0.0,80.0
405,77.0,60,48,0.0,80.0
406,74.0,60,48,0.0,80.0
407,76.0,60,48,0.0,80.0
408,77.0,60,48,0.0,80.0
409,76.0,60,48,0.0,80.0
410,72.0,60,48,0.0,80.0
411,65.0,0,48,0.0,80.0
412,74.0,60,48,0.0,80.0
413,67.0,60,48,0.0,80.0
414,76.0,0,48,0.0,80.0
415,74.0,60,48,0.0,80.0
416,65.0,0,48,0.0,80.0
417,62.0,0,48,0.0,80.0
418,71.0,60,48,0.0,80.0
419,65.0,0,48,0.0,80.0
420,74.0,60,48,0.0,80.0
421,76.0,60,48,0.0,80.0
422,67.0,0,48,0.0,80.0
423,65.0,60,48,0.0,80.0
424,74.0,0,48,0.0,80.0
425,71.0,60,48,0.0,80.0
426,62.0,0,48,0.0,80.0
427,72.0,0,48,0.0,80.0
428,64.0,60,48,0.0,80.0
429,71.0,0,48,0.0,80.0
430,65.0,60,48,0.0,80.0
431,72.0,0,48,0.0,80.0
432,64.0,60,48,0.0,80.0
433,76.0,0,48,0.0,80.0
434,60.0,60,48,0.0,80.0
435,65.0,60,96,0.0,80.0
436,62.0,120,96,0.0,80.0
437,74.0,0,288,0.0,80.0
438,59.0,120,96,0.0,80.0
439,76.0,0,48,0.0,80.0
440,55.0,120,96,0.0,80.0
441,77.0,60,48,0.0,80.0
442,60.0,60,192,0.0,80.0
443,76.0,0,192,0.0,80.0
444,79.0,80,64,0.0,80.0
445,52.0,0,192,0.0,80.0
446,40.0,240,192,0.0,80.0
447,77.0,80,64,0.0,80.0
448,76.0,80,64,0.0,80.0
449,79.0,80,64,0.0,80.0
450,74.0,80,64,0.0,80.0
451,72.0,80,64,0.0,80.0
452,79.0,80,64,0.0,80.0
453,70.0,80,64,0.0,80.0
454,70.0,80,64,0.0,80.0
455,53.0,80,192,0.0,80.0
456,41.0,0,192,0.0,80.0
457,68.0,80,64,0.0,80.0
458,69.0,80,64,0.0,80.0
459,74.0,80,64,0.0,80.0
460,73.0,80,64,0.0,80.0
461,76.0,80,64,0.0,80.0
462,74.0,80,64,0.0,80.0
463,77.0,80,64,0.0,80.0
464,81.0,80,64,0.0,80.0
465,54.0,80,192,0.0,80.0
466,42.0,0,192,0.0,80.0
467,79.0,80,64,0.0,80.0
468,78.0,80,64,0.0,80.0
469,81.0,80,64,0.0,80.0
470,76.0,80,64,0.0,80.0
471,74.0,80,64,0.0,80.0
472,81.0,80,64,0.0,80.0
473,72.0,80,64,0.0,80.0
474,72.0,80,64,0.0,80.0
475,55.0,80,192,0.0,80.0
476,43.0,0,192,0.0,80.0
477,70.0,80,64,0.0,80.0
478,71.0,80,64,0.0,80.0
479,76.0,80,64,0.0,80.0
480,75.0,80,64,0.0,80.0
481,78.0,80,64,0.0,80.0
482,76.0,80,64,0.0,80.0
483,79.0,80,64,0.0,80.0
484,83.0,80,64,0.0,80.0
485,56.0,80,192,0.0,80.0
486,44.0,0,192,0.0,80.0
487,81.0,80,64,0.0,80.0
488,80.0,80,64,0.0,80.0
489,83.0,80,64,0.0,80.0
490,77.0,80,64,0.0,80.0
491,76.0,80,64,0.0,80.0
492,83.0,80,64,0.0,80.0
493,74.0,80,64,0.0,80.0
494,71.0,80,64,0.0,80.0
495,57.0,0,192,0.0,80.0
496,45.0,80,192,0.0,80.0
497,72.0,80,64,0.0,80.0
498,68.0,80,64,0.0,80.0
499,77.0,80,192,0.0,80.0
500,69.0,80,64,0.0,80.0
501,66.0,80,64,0.0,80.0
502,76.0,80,192,0.0,80.0
503,67.0,80,64,0.0,80.0
504,73.0,80,64,0.0,80.0
505,65.0,80,192,0.0,80.0
506,74.0,80,64,0.0,80.0
507,64.0,80,64,0.0,80.0
508,81.0,80,192,0.0,80.0
509,65.0,80,64,0.0,80.0
510,63.0,80,64,0.0,80.0
511,79.0,80,192,0.0,80.0
512,64.0,80,64,0.0,80.0
513,79.0,0,15,0.0,80.0
514,77.0,0,96,0.0,80.0
515,76.0,120,48,0.0,80.0
516,74.0,60,12,0.0,80.0
517,62.0,0,192,0.0,80.0
518,55.0,0,192,0.0,80.0
519,64.0,0,192,0.0,80.0
520,72.0,60,192,0.0,80.0
521,71.0,0,24,0.0,80.0
522,72.0,30,24,0.0,80.0
523,71.0,30,24,0.0,80.0
524,72.0,30,24,0.0,80.0
525,71.0,30,24,0.0,80.0
526,72.0,30,24,0.0,80.0
527,65.0,240,192,0.0,80.0
528,69.0,30,24,0.0,80.0
529,71.0,30,24,0.0,80.0
530,48.0,30,48,0.0,80.0
531,52.0,60,48,0.0,80.0
532,55.0,60,48,0.0,80.0
533,72.0,0,192,0.0,80.0
534,60.0,60,48,0.0,80.0
535,64.0,60,96,0.0,80.0
536,71.0,60,48,0.0,80.0
537,72.0,60,48,0.0,80.0
538,74.0,60,48,0.0,80.0
539,77.0,45,15,0.0,80.0
540,76.0,15,96,0.0,80.0
541,74.0,120,48,0.0,80.0
542,72.0,60,48,0.0,80.0
543,50.0,60,48,0.0,80.0
544,53.0,60,48,0.0,80.0
545,59.0,60,48,0.0,80.0
546,71.0,0,192,0.0,80.0
547,62.0,60,48,0.0,80.0
548,65.0,60,96,0.0,80.0
549,73.0,60,48,0.0,80.0
550,74.0,60,48,0.0,80.0
551,76.0,60,48,0.0,80.0
552,79.0,45,15,0.0,80.0
553,77.0,15,96,0.0,80.0
554,76.0,120,48,0.0,80.0
555,74.0,60,48,0.0,80.0
556,52.0,60,48,0.0,80.0
557,55.0,60,48,0.0,80.0
558,60.0,60,48,0.0,80.0
559,72.0,0,192,0.0,80.0
560,64.0,60,48,0.0,80.0
561,67.0,60,96,0.0,80.0
562,75.0,60,48,0.0,80.0
563,76.0,60,48,0.0,80.0
564,77.0,60,48,0.0,80.0
565,81.0,45,15,0.0,80.0
566,79.0,15,113,0.0,80.0
567,77.0,120,48,0.0,80.0
568,76.0,60,48,0.0,80.0
569,73.0,0,48,0.0,80.0
570,74.0,60,48,0.0,80.0
571,77.0,60,48,0.0,80.0
572,65.0,60,192,0.0,80.0
573,69.0,0,192,0.0,80.0
574,76.0,60,48,0.0,80.0
575,73.0,0,48,0.0,80.0
576,74.0,60,48,0.0,80.0
577,77.0,60,48,0.0,80.0
578,69.0,60,192,0.0,80.0
579,65.0,0,192,0.0,80.0
580,76.0,60,48,0.0,80.0
581,79.0,45,15,0.0,80.0
582,77.0,0,96,0.0,80.0
583,76.0,120,48,0.0,80.0
584,69.0,0,192,0.0,80.0
585,65.0,15,192,0.0,80.0
586,74.0,60,48,0.0,80.0
587,81.0,0,48,0.0,80.0
588,77.0,60,48,0.0,80.0
589,76.0,60,48,0.0,80.0
590,72.0,0,192,0.0,80.0
591,69.0,0,192,0.0,80.0
592,65.0,60,192,0.0,80.0
593,74.0,0,8,0.0,80.0
594,72.0,37,8,0.0,80.0
595,76.0,8,8,0.0,80.0
596,74.0,15,24,0.0,80.0
597,76.0,30,24,0.0,80.0
598,74.0,30,24,0.0,80.0
599,76.0,30,24,0.0,80.0
600,74.0,30,24,0.0,80.0
601,76.0,30,24,0.0,80.0
602,67.0,15,192,0.0,80.0
603,72.0,0,192,0.0,80.0
604,74.0,30,24,0.0,80.0
605,76.0,30,24,0.0,80.0
606,74.0,15,24,0.0,80.0
607,76.0,30,24,0.0,80.0
608,74.0,30,24,0.0,80.0
609,76.0,30,24,0.0,80.0
610,74.0,30,24,0.0,80.0
611,76.0,30,24,0.0,80.0
612,71.0,15,192,0.0,80.0
613,74.0,30,24,0.0,80.0
614,76.0,30,24,0.0,80.0
615,36.0,0,48,0.0,80.0
616,40.0,60,48,0.0,80.0
617,43.0,60,48,0.0,80.0
618,64.0,0,192,0.0,80.0
619,72.0,0,192,0.0,80.0
620,67.0,15,192,0.0,80.0
621,48.0,60,48,0.0,80.0
622,52.0,60,96,0.0,80.0
623,59.0,60,48,0.0,80.0
624,60.0,60,48,0.0,80.0
625,62.0,60,48,0.0,80.0
626,65.0,45,15,0.0,80.0
627,64.0,15,96,0.0,80.0
628,62.0,120,48,0.0,80.0
629,60.0,60,48,0.0,80.0
630,38.0,60,48,0.0,80.0
631,41.0,60,48,0.0,80.0
632,47.0,60,48,0.0,80.0
633,59.0,0,192,0.0,80.0
634,50.0,60,48,0.0,80.0
635,53.0,60,96,0.0,80.0
636,61.0,60,48,0.0,80.0
637,62.0,60,48,0.0,80.0
638,64.0,60,48,0.0,80.0
639,67.0,45,15,0.0,80.0
640,65.0,15,96,0.0,80.0
641,64.0,120,48,0.0,80.0
642,62.0,60,48,0.0,80.0
643,40.0,60,48,0.0,80.0
644,43.0,60,48,0.0,80.0
645,48.0,60,48,0.0,80.0
646,60.0,0,192,0.0,80.0
647,52.0,60,48,0.0,80.0
648,55.0,60,96,0.0,80.0
649,63.0,60,48,0.0,80.0
650,64.0,60,48,0.0,80.0
651,65.0,60,48,0.0,80.0
652,69.0,45,15,0.0,80.0
653,67.0,15,96,0.0,80.0
654,65.0,120,48,0.0,80.0
655,64.0,60,48,0.0,80.0
656,41.0,60,48,0.0,80.0
657,45.0,60,48,0.0,80.0
658,50.0,60,48,0.0,80.0
659,62.0,0,192,0.0,80.0
660,53.0,60,48,0.0,80.0
661,57.0,60,96,0.0,80.0
662,62.0,60,48,0.0,80.0
663,65.0,60,48,0.0,80.0
664,69.0,60,48,0.0,80.0
665,74.0,60,96,0.0,80.0
666,53.0,60,48,0.0,80.0
667,57.0,60,48,0.0,80.0
668,62.0,60,48,0.0,80.0
669,65.0,60,96,0.0,80.0
670,69.0,60,48,0.0,80.0
671,74.0,60,48,0.0,80.0
672,77.0,60,48,0.0,80.0
673,81.0,60,96,0.0,80.0
674,65.0,60,48,0.0,80.0
675,69.0,60,48,0.0,80.0
676,74.0,60,48,0.0,80.0
677,77.0,60,96,0.0,80.0
678,83.0,60,48,0.0,80.0
679,84.0,60,48,0.0,80.0
680,80.0,60,48,0.0,80.0
681,81.0,60,48,0.0,80.0
682,76.0,60,48,0.0,80.0
683,77.0,60,48,0.0,80.0
684,74.0,37,8,0.0,80.0
685,72.0,0,8,0.0,80.0
686,76.0,8,8,0.0,80.0
687,74.0,15,24,0.0,80.0
688,76.0,30,24,0.0,80.0
689,74.0,30,24,0.0,80.0
690,76.0,30,24,0.0,80.0
691,74.0,30,24,0.0,80.0
692,76.0,30,24,0.0,80.0
693,60.0,0,192,0.0,80.0
694,55.0,15,192,0.0,80.0
695,74.0,30,24,0.0,80.0
696,76.0,30,24,0.0,80.0
697,74.0,15,24,0.0,80.0
698,76.0,30,24,0.0,80.0
699,74.0,30,24,0.0,80.0
700,76.0,30,24,0.0,80.0
701,74.0,30,24,0.0,80.0
702,76.0,30,24,0.0,80.0
703,59.0,15,192,0.0,80.0
704,74.0,30,24,0.0,80.0
705,76.0,30,24,0.0,80.0
706,60.0,0,48,0.0,80.0
707,72.0,15,96,0.0,80.0
708,67.0,60,48,0.0,80.0
709,64.0,60,48,0.0,80.0
710,76.0,0,96,0.0,80.0
711,67.0,60,48,0.0,80.0
712,60.0,0,48,0.0,80.0
713,67.0,60,48,0.0,80.0
714,64.0,60,48,0.0,80.0
715,79.0,60,192,0.0,80.0
716,67.0,60,48,0.0,80.0
717,83.0,0,24,0.0,80.0
718,55.0,60,48,0.0,80.0
719,84.0,30,24,0.0,80.0
720,83.0,0,24,0.0,80.0
721,65.0,30,48,0.0,80.0
722,84.0,30,24,0.0,80.0
723,83.0,0,24,0.0,80.0
724,62.0,30,48,0.0,80.0
725,84.0,30,24,0.0,80.0
726,81.0,30,24,0.0,80.0
727,65.0,0,48,0.0,80.0
728,83.0,30,24,0.0,80.0
729,60.0,0,48,0.0,80.0
730,84.0,30,96,0.0,80.0
731,67.0,60,48,0.0,80.0
732,64.0,60,48,0.0,80.0
733,76.0,0,96,0.0,80.0
734,67.0,60,48,0.0,80.0
735,60.0,0,48,0.0,80.0
736,67.0,60,48,0.0,80.0
737,64.0,60,48,0.0,80.0
738,79.0,60,192,0.0,80.0
739,67.0,60,48,0.0,80.0
740,83.0,0,24,0.0,80.0
741,55.0,60,48,0.0,80.0
742,84.0,30,24,0.0,80.0
743,83.0,0,24,0.0,80.0
744,65.0,30,48,0.0,80.0
745,84.0,30,24,0.0,80.0
746,83.0,30,24,0.0,80.0
747,62.0,0,48,0.0,80.0
748,84.0,30,24,0.0,80.0
749,81.0,0,24,0.0,80.0
750,65.0,30,48,0.0,80.0
751,83.0,30,24,0.0,80.0
752,84.0,0,192,0.0,80.0
753,60.0,30,192,0.0,80.0
754,64.0,0,192,0.0,80.0
755,67.0,240,192,0.0,80.0
756,64.0,0,192,0.0,80.0
757,48.0,0,192,0.0,80.0
758,52.0,0,192,0.0,80.0
759,72.0,0,192,0.0,80.0
760,55.0,0,192,0.0,80.0
761,60.0,480,192,0.0,80.0
762,65.0,0,192,0.0,80.0
763,69.0,0,192,0.0,80.0
764,72.0,0,192,0.0,80.0
765,53.0,0,192,0.0,80.0
766,41.0,0,192,0.0,80.0
767,72.0,0,192,0.0,80.0
768,48.0,240,192,0.0,80.0
769,69.0,0,192,0.0,80.0
770,69.0,0,192,0.0,80.0
771,72.0,0,192,0.0,80.0
772,45.0,240,192,0.0,80.0
773,41.0,0,192,0.0,80.0
774,72.0,240,288,0.0,80.0
775,69.0,0,288,0.0,80.0
776,74.0,120,48,0.0,80.0
777,29.0,240,192,0.0,80.0
778,72.0,60,48,0.0,80.0
779,71.0,60,24,0.0,80.0
780,72.0,30,24,0.0,80.0
781,69.0,30,48,0.0,80.0
782,67.0,60,48,0.0,80.0
783,65.0,60,48,0.0,80.0
784,57.0,0,96,0.0,80.0
785,53.0,60,96,0.0,80.0
786,77.0,0,192,0.0,80.0
787,53.0,0,96,0.0,80.0
788,57.0,120,96,0.0,80.0
789,55.0,0,96,0.0,80.0
790,58.0,0,96,0.0,80.0
791,53.0,0,96,0.0,80.0
792,76.0,120,192,0.0,80.0
793,58.0,0,96,0.0,80.0
794,55.0,0,96,0.0,80.0
795,53.0,120,96,0.0,80.0
796,60.0,0,96,0.0,80.0
797,57.0,0,96,0.0,80.0
798,53.0,0,96,0.0,80.0
799,75.0,120,192,0.0,80.0
800,60.0,0,96,0.0,80.0
801,57.0,0,96,0.0,80.0
802,53.0,120,96,0.0,80.0
803,62.0,0,96,0.0,80.0
804,53.0,0,96,0.0,80.0
805,58.0,0,96,0.0,80.0
806,74.0,120,192,0.0,80.0
807,53.0,0,96,0.0,80.0
808,58.0,0,96,0.0,80.0
809,62.0,120,96,0.0,80.0
810,62.0,120,96,0.0,80.0
811,58.0,0,96,0.0,80.0
812,53.0,0,96,0.0,80.0
813,53.0,120,96,0.0,80.0
814,62.0,0,96,0.0,80.0
815,58.0,0,96,0.0,80.0
816,58.0,120,96,0.0,80.0
817,53.0,0,96,0.0,80.0
818,62.0,0,96,0.0,80.0
819,62.0,0,96,0.0,80.0
820,58.0,0,96,0.0,80.0
821,53.0,120,96,0.0,80.0
822,72.0,0,96,0.0,80.0
823,64.0,120,96,0.0,80.0
824,53.0,0,96,0.0,80.0
825,55.0,0,96,0.0,80.0
826,70.0,120,96,0.0,80.0
827,64.0,0,96,0.0,80.0
828,53.0,0,96,0.0,80.0
829,55.0,0,96,0.0,80.0
830,64.0,0,96,0.0,80.0
831,55.0,0,96,0.0,80.0
832,53.0,120,96,0.0,80.0
833,70.0,0,192,0.0,80.0
834,64.0,120,96,0.0,80.0
835,55.0,0,96,0.0,80.0
836,53.0,0,96,0.0,80.0
837,53.0,120,96,0.0,80.0
838,55.0,0,96,0.0,80.0
839,64.0,0,96,0.0,80.0
840,64.0,0,96,0.0,80.0
841,55.0,0,96,0.0,80.0
842,53.0,120,96,0.0,80.0
843,74.0,0,96,0.0,80.0
844,65.0,120,96,0.0,80.0
845,53.0,0,96,0.0,80.0
846,57.0,0,96,0.0,80.0
847,72.0,120,96,0.0,80.0
848,65.0,0,96,0.0,80.0
849,53.0,0,96,0.0,80.0
850,57.0,0,96,0.0,80.0
851,65.0,0,96,0.0,80.0
852,57.0,0,96,0.0,80.0
853,53.0,120,96,0.0,80.0
854,72.0,0,192,0.0,80.0
855,65.0,120,96,0.0,80.0
856,57.0,0,96,0.0,80.0
857,53.0,0,96,0.0,80.0
858,53.0,120,96,0.0,80.0
859,65.0,0,96,0.0,80.0
860,57.0,0,96,0.0,80.0
861,65.0,0,96,0.0,80.0
862,57.0,0,96,0.0,80.0
863,53.0,120,96,0.0,80.0
864,82.0,0,48,0.0,80.0
865,81.0,60,48,0.0,80.0
866,79.0,60,48,0.0,80.0
867,52.0,0,192,0.0,80.0
868,55.0,0,192,0.0,80.0
869,60.0,120,192,0.0,80.0
870,81.0,60,48,0.0,80.0
871,79.0,60,48,0.0,80.0
872,77.0,60,48,0.0,80.0
873,76.0,60,48,0.0,80.0
874,77.0,60,48,0.0,80.0
875,76.0,60,48,0.0,80.0
876,74.0,60,48,0.0,80.0
877,72.0,60,48,0.0,80.0
878,70.0,60,48,0.0,80.0
879,53.0,60,48,0.0,80.0
880,69.0,0,96,0.0,80.0
881,60.0,60,48,0.0,80.0
882,57.0,0,48,0.0,80.0
883,60.0,60,48,0.0,80.0
884,55.0,60,48,0.0,80.0
885,77.0,60,192,0.0,80.0
886,60.0,60,48,0.0,80.0
887,58.0,0,48,0.0,80.0
888,60.0,60,48,0.0,80.0
889,57.0,60,48,0.0,80.0
890,76.0,60,192,0.0,80.0
891,60.0,60,48,0.0,80.0
892,57.0,60,48,0.0,80.0
893,77.0,0,96,0.0,80.0
894,60.0,60,48,0.0,80.0
895,58.0,60,96,0.0,80.0
896,74.0,0,96,0.0,80.0
897,65.0,120,96,0.0,80.0
898,46.0,120,96,0.0,80.0
899,67.0,0,96,0.0,80.0
900,58.0,120,96,0.0,80.0
901,48.0,120,96,0.0,80.0
902,64.0,0,96,0.0,80.0
903,55.0,120,96,0.0,80.0
904,82.0,0,48,0.0,80.0
905,81.0,60,48,0.0,80.0
906,79.0,60,48,0.0,80.0
907,60.0,0,192,0.0,80.0
908,52.0,0,192,0.0,80.0
909,55.0,120,192,0.0,80.0
910,81.0,60,48,0.0,80.0
911,79.0,60,48,0.0,80.0
912,77.0,60,48,0.0,80.0
913,76.0,60,48,0.0,80.0
914,77.0,60,48,0.0,80.0
915,76.0,60,48,0.0,80.0
916,74.0,60,48,0.0,80.0
917,72.0,60,48,0.0,80.0
918,70.0,60,48,0.0,80.0
919,53.0,0,48,0.0,80.0
920,69.0,60,96,0.0,80.0
921,60.0,60,48,0.0,80.0
922,57.0,0,48,0.0,80.0
923,60.0,60,48,0.0,80.0
924,55.0,60,48,0.0,80.0
925,81.0,60,192,0.0,80.0
926,64.0,60,48,0.0,80.0
927,58.0,60,48,0.0,80.0
928,64.0,60,48,0.0,80.0
929,57.0,60,48,0.0,80.0
930,79.0,0,192,0.0,80.0
931,65.0,60,48,0.0,80.0
932,60.0,0,48,0.0,80.0
933,77.0,60,96,0.0,80.0
934,65.0,60,48,0.0,80.0
935,58.0,60,96,0.0,80.0
936,65.0,120,96,0.0,80.0
937,74.0,0,96,0.0,80.0
938,46.0,120,96,0.0,80.0
939,67.0,0,96,0.0,80.0
940,58.0,120,96,0.0,80.0
941,48.0,120,96,0.0,80.0
942,64.0,120,96,0.0,80.0
943,55.0,0,96,0.0,80.0
944,57.0,0,64,0.0,80.0
945,65.0,80,64,0.0,80.0
946,53.0,120,192,0.0,80.0
947,41.0,0,192,0.0,80.0
948,60.0,80,64,0.0,80.0
949,69.0,80,64,0.0,80.0
950,65.0,80,64,0.0,80.0
951,60.0,80,64,0.0,80.0
952,58.0,80,64,0.0,80.0
953,67.0,80,64,0.0,80.0
954,48.0,0,192,0.0,80.0
955,36.0,0,192,0.0,80.0
956,64.0,80,64,0.0,80.0
957,65.0,0,64,0.0,80.0
958,57.0,80,64,0.0,80.0
959,29.0,80,192,0.0,80.0
960,41.0,0,192,0.0,80.0
961,60.0,80,64,0.0,80.0
962,67.0,80,64,0.0,80.0
963,60.0,80,64,0.0,80.0
964,64.0,80,64,0.0,80.0
965,69.0,80,64,0.0,80.0
966,60.0,80,64,0.0,80.0
967,65.0,80,64,0.0,80.0
968,60.0,0,64,0.0,80.0
969,67.0,80,64,0.0,80.0
970,36.0,0,192,0.0,80.0
971,48.0,80,192,0.0,80.0
972,64.0,80,64,0.0,80.0
973,70.0,80,64,0.0,80.0
974,67.0,80,64,0.0,80.0
975,64.0,80,64,0.0,80.0
976,60.0,0,64,0.0,80.0
977,69.0,80,64,0.0,80.0
978,53.0,0,192,0.0,80.0
979,41.0,80,192,0.0,80.0
980,65.0,80,64,0.0,80.0
981,67.0,0,64,0.0,80.0
982,60.0,80,64,0.0,80.0
983,48.0,80,192,0.0,80.0
984,64.0,80,64,0.0,80.0
985,69.0,80,64,0.0,80.0
986,60.0,80,64,0.0,80.0
987,65.0,80,64,0.0,80.0
988,70.0,80,64,0.0,80.0
989,60.0,80,64,0.0,80.0
990,67.0,80,64,0.0,80.0
991,69.0,0,64,0.0,80.0
992,72.0,80,64,0.0,80.0
993,41.0,0,192,0.0,80.0
994,53.0,80,192,0.0,80.0
995,77.0,80,64,0.0,80.0
996,81.0,80,64,0.0,80.0
997,77.0,80,64,0.0,80.0
998,74.0,80,64,0.0,80.0
999,72.0,80,64,0.0,80.0
1000,77.0,80,64,0.0,80.0
1001,81.0,80,64,0.0,80.0
1002,80.0,0,64,0.0,80.0
1003,74.0,80,64,0.0,80.0
1004,65.0,80,192,0.0,80.0
1005,53.0,0,192,0.0,80.0
1006,71.0,80,64,0.0,80.0
1007,72.0,80,64,0.0,80.0
1008,76.0,80,64,0.0,80.0
1009,52.0,0,192,0.0,80.0
1010,64.0,0,192,0.0,80.0
1011,79.0,80,64,0.0,80.0
1012,75.0,80,64,0.0,80.0
1013,72.0,80,64,0.0,80.0
1014,70.0,80,64,0.0,80.0
1015,69.0,80,64,0.0,80.0
1016,72.0,80,64,0.0,80.0
1017,63.0,0,192,0.0,80.0
1018,51.0,0,192,0.0,80.0
1019,78.0,80,64,0.0,80.0
1020,77.0,0,64,0.0,80.0
1021,74.0,80,64,0.0,80.0
1022,50.0,80,192,0.0,80.0
1023,62.0,0,192,0.0,80.0
1024,70.0,80,64,0.0,80.0
1025,69.0,80,64,0.0,80.0
1026,74.0,80,64,0.0,80.0
1027,77.0,80,64,0.0,80.0
1028,77.0,0,64,0.0,80.0
1029,71.0,80,64,0.0,80.0
1030,62.0,80,192,0.0,80.0
1031,50.0,0,192,0.0,80.0
1032,68.0,80,64,0.0,80.0
1033,69.0,80,64,0.0,80.0
1034,73.0,80,64,0.0,80.0
1035,61.0,0,192,0.0,80.0
1036,49.0,0,192,0.0,80.0
1037,76.0,80,64,0.0,80.0
1038,72.0,80,64,0.0,80.0
1039,69.0,80,64,0.0,80.0
1040,67.0,80,64,0.0,80.0
1041,66.0,80,64,0.0,80.0
1042,69.0,80,64,0.0,80.0
1043,48.0,0,192,0.0,80.0
1044,60.0,0,192,0.0,80.0
1045,75.0,80,64,0.0,80.0
1046,74.0,0,64,0.0,80.0
1047,71.0,80,64,0.0,80.0
1048,47.0,80,192,0.0,80.0
1049,59.0,0,192,0.0,80.0
1050,67.0,80,64,0.0,80.0
1051,65.0,80,64,0.0,80.0
1052,70.0,80,64,0.0,80.0
1053,74.0,80,64,0.0,80.0
1054,73.0,0,64,0.0,80.0
1055,67.0,80,64,0.0,80.0
1056,58.0,80,192,0.0,80.0
1057,46.0,0,192,0.0,80.0
1058,64.0,80,64,0.0,80.0
1059,65.0,80,64,0.0,80.0
1060,69.0,80,64,0.0,80.0
1061,45.0,0,192,0.0,80.0
1062,57.0,0,192,0.0,80.0
1063,72.0,80,64,0.0,80.0
1064,77.0,80,64,0.0,80.0
1065,72.0,80,64,0.0,80.0
1066,69.0,80,64,0.0,80.0
1067,67.0,0,64,0.0,80.0
1068,70.0,80,64,0.0,80.0
1069,58.0,80,192,0.0,80.0
1070,46.0,0,192,0.0,80.0
1071,69.0,80,64,0.0,80.0
1072,70.0,80,64,0.0,80.0
1073,74.0,80,64,0.0,80.0
1074,73.0,80,64,0.0,80.0
1075,74.0,80,64,0.0,80.0
1076,79.0,80,64,0.0,80.0
1077,78.0,80,64,0.0,80.0
1078,79.0,80,64,0.0,80.0
1079,82.0,80,64,0.0,80.0
1080,81.0,80,64,0.0,80.0
1081,82.0,80,64,0.0,80.0
1082,86.0,80,64,0.0,80.0
1083,85.0,80,64,0.0,80.0
1084,86.0,80,64,0.0,80.0
1085,82.0,80,64,0.0,80.0
1086,81.0,80,64,0.0,80.0
1087,82.0,80,64,0.0,80.0
1088,79.0,80,64,0.0,80.0
1089,78.0,80,64,0.0,80.0
1090,79.0,80,64,0.0,80.0
1091,74.0,80,64,0.0,80.0
1092,73.0,80,64,0.0,80.0
1093,74.0,0,64,0.0,80.0
1094,70.0,80,64,0.0,80.0
1095,46.0,80,192,0.0,80.0
1096,58.0,0,192,0.0,80.0
1097,67.0,80,64,0.0,80.0
1098,65.0,0,192,0.0,80.0
1099,48.0,0,192,0.0,80.0
1100,57.0,80,192,0.0,80.0
1101,55.0,240,192,0.0,80.0
1102,64.0,0,192,0.0,80.0
1103,36.0,0,192,0.0,80.0
1104,48.0,480,192,0.0,80.0
1105,40.0,240,192,0.0,80.0
1106,52.0,0,192,0.0,80.0
1107,55.0,240,192,0.0,80.0
1108,43.0,0,192,0.0,80.0
1109,79.0,240,48,0.0,80.0
1110,81.0,60,48,0.0,80.0
1111,79.0,60,48,0.0,80.0
1112,76.0,60,48,0.0,80.0
1113,79.0,60,48,0.0,80.0
1114,81.0,60,48,0.0,80.0
1115,79.0,60,48,0.0,80.0
1116,76.0,60,48,0.0,80.0
1117,77.0,60,48,0.0,80.0
1118,79.0,60,48,0.0,80.0
1119,77.0,60,48,0.0,80.0
1120,74.0,60,48,0.0,80.0
1121,67.0,0,48,0.0,80.0
1122,76.0,60,48,0.0,80.0
1123,77.0,60,48,0.0,80.0
1124,69.0,0,48,0.0,80.0
1125,76.0,0,48,0.0,80.0
1126,67.0,60,48,0.0,80.0
1127,72.0,60,48,0.0,80.0
1128,64.0,0,48,0.0,80.0
1129,67.0,0,48,0.0,80.0
1130,76.0,60,48,0.0,80.0
1131,69.0,0,48,0.0,80.0
1132,77.0,60,48,0.0,80.0
1133,76.0,60,48,0.0,80.0
1134,67.0,0,48,0.0,80.0
1135,64.0,0,48,0.0,80.0
1136,72.0,60,48,0.0,80.0
1137,65.0,60,48,0.0,80.0
1138,74.0,0,48,0.0,80.0
1139,76.0,0,48,0.0,80.0
1140,67.0,60,48,0.0,80.0
1141,65.0,60,48,0.0,80.0
1142,74.0,0,48,0.0,80.0
1143,71.0,60,48,0.0,80.0
1144,62.0,0,48,0.0,80.0
1145,64.0,0,96,0.0,80.0
1146,55.0,120,96,0.0,80.0
1147,72.0,60,288,0.0,80.0
1148,60.0,120,96,0.0,80.0
1149,74.0,0,48,0.0,80.0
1150,55.0,120,96,0.0,80.0
1151,76.0,60,48,0.0,80.0
1152,59.0,60,192,0.0,80.0
1153,74.0,0,192,0.0,80.0
1154,43.0,0,192,0.0,80.0
1155,31.0,240,192,0.0,80.0
1156,47.0,0,192,0.0,80.0
1157,35.0,240,192,0.0,80.0
1158,50.0,240,192,0.0,80.0
1159,38.0,0,192,0.0,80.0
1160,77.0,240,48,0.0,80.0
1161,79.0,60,48,0.0,80.0
1162,77.0,60,48,0.0,80.0
1163,74.0,60,48,0.0,80.0
1164,77.0,60,48,0.0,80.0
1165,79.0,60,48,0.0,80.0
1166,77.0,60,48,0.0,80.0
1167,74.0,60,48,0.0,80.0
1168,76.0,60,48,0.0,80.0
1169,77.0,60,48,0.0,80.0
1170,76.0,60,48,0.0,80.0
1171,72.0,60,48,0.0,80.0
1172,74.0,60,48,0.0,80.0
1173,65.0,0,48,0.0,80.0
1174,76.0,0,48,0.0,80.0
1175,67.0,60,48,0.0,80.0
1176,74.0,0,48,0.0,80.0
1177,65.0,60,48,0.0,80.0
1178,62.0,60,48,0.0,80.0
1179,71.0,0,48,0.0,80.0
1180,65.0,0,48,0.0,80.0
1181,74.0,60,48,0.0,80.0
1182,76.0,60,48,0.0,80.0
1183,67.0,0,48,0.0,80.0
1184,74.0,0,48,0.0,80.0
1185,65.0,60,48,0.0,80.0
1186,62.0,0,48,0.0,80.0
1187,71.0,60,48,0.0,80.0
1188,64.0,60,48,0.0,80.0
1189,72.0,0,48,0.0,80.0
1190,71.0,0,48,0.0,80.0
1191,65.0,60,48,0.0,80.0
1192,72.0,0,48,0.0,80.0
1193,64.0,60,48,0.0,80.0
1194,76.0,60,48,0.0,80.0
1195,60.0,0,48,0.0,80.0
1196,65.0,0,96,0.0,80.0
1197,62.0,120,96,0.0,80.0
1198,74.0,60,288,0.0,80.0
1199,59.0,120,96,0.0,80.0
1200,76.0,0,48,0.0,80.0
1201,55.0,120,96,0.0,80.0
1202,77.0,60,48,0.0,80.0
1203,60.0,60,192,0.0,80.0
1204,76.0,0,192,0.0,80.0
1205,79.0,80,64,0.0,80.0
1206,52.0,0,192,0.0,80.0
1207,40.0,240,192,0.0,80.0
1208,77.0,80,64,0.0,80.0
1209,76.0,80,64,0.0,80.0
1210,79.0,80,64,0.0,80.0
1211,74.0,80,64,0.0,80.0
1212,72.0,80,64,0.0,80.0
1213,79.0,80,64,0.0,80.0
1214,70.0,80,64,0.0,80.0
1215,70.0,80,64,0.0,80.0
1216,53.0,80,192,0.0,80.0
1217,41.0,0,192,0.0,80.0
1218,68.0,80,64,0.0,80.0
1219,69.0,80,64,0.0,80.0
1220,74.0,80,64,0.0,80.0
1221,73.0,80,64,0.0,80.0
1222,76.0,80,64,0.0,80.0
1223,74.0,80,64,0.0,80.0
1224,77.0,80,64,0.0,80.0
1225,81.0,80,64,0.0,80.0
1226,54.0,80,192,0.0,80.0
1227,42.0,0,192,0.0,80.0
1228,79.0,80,64,0.0,80.0
1229,78.0,80,64,0.0,80.0
1230,81.0,80,64,0.0,80.0
1231,76.0,80,64,0.0,80.0
1232,74.0,80,64,0.0,80.0
1233,81.0,80,64,0.0,80.0
1234,72.0,80,64,0.0,80.0
1235,72.0,80,64,0.0,80.0
1236,55.0,0,192,0.0,80.0
1237,43.0,80,192,0.0,80.0
1238,70.0,80,64,0.0,80.0
1239,71.0,80,64,0.0,80.0
1240,76.0,80,64,0.0,80.0
1241,75.0,80,64,0.0,80.0
1242,78.0,80,64,0.0,80.0
1243,76.0,80,64,0.0,80.0
1244,79.0,80,64,0.0,80.0
1245,83.0,80,64,0.0,80.0
1246,56.0,0,192,0.0,80.0
1247,44.0,80,192,0.0,80.0
1248,81.0,80,64,0.0,80.0
1249,80.0,80,64,0.0,80.0
1250,83.0,80,64,0.0,80.0
1251,77.0,80,64,0.0,80.0
1252,76.0,80,64,0.0,80.0
1253,83.0,80,64,0.0,80.0
1254,74.0,80,64,0.0,80.0
1255,71.0,80,64,0.0,80.0
1256,57.0,0,192,0.0,80.0
1257,45.0,80,192,0.0,80.0
1258,72.0,80,64,0.0,80.0
1259,68.0,80,64,0.0,80.0
1260,77.0,80,192,0.0,80.0
1261,69.0,80,64,0.0,80.0
1262,66.0,80,64,0.0,80.0
1263,76.0,80,192,0.0,80.0
1264,67.0,80,64,0.0,80.0
1265,73.0,80,64,0.0,80.0
1266,65.0,80,192,0.0,80.0
1267,74.0,80,64,0.0,80.0
1268,64.0,80,64,0.0,80.0
1269,81.0,80,192,0.0,80.0
1270,65.0,80,64,0.0,80.0
1271,63.0,80,64,0.0,80.0
1272,79.0,80,192,0.0,80.0
1273,64.0,80,64,0.0,80.0
1274,79.0,0,15,0.0,80.0
1275,77.0,0,96,0.0,80.0
1276,76.0,120,48,0.0,80.0
1277,62.0,0,192,0.0,80.0
1278,74.0,60,12,0.0,80.0
1279,64.0,0,192,0.0,80.0
1280,72.0,60,192,0.0,80.0
1281,55.0,0,192,0.0,80.0
1282,71.0,0,24,0.0,80.0
1283,72.0,30,24,0.0,80.0
1284,71.0,30,24,0.0,80.0
1285,72.0,30,24,0.0,80.0
1286,71.0,30,24,0.0,80.0
1287,72.0,30,24,0.0,80.0
1288,65.0,240,192,0.0,80.0
1289,69.0,30,24,0.0,80.0
1290,71.0,30,24,0.0,80.0
1291,48.0,30,48,0.0,80.0
1292,52.0,60,48,0.0,80.0
1293,55.0,60,48,0.0,80.0
1294,72.0,0,192,0.0,80.0
1295,60.0,60,48,0.0,80.0
1296,64.0,60,96,0.0,80.0
1297,71.0,60,48,0.0,80.0
1298,72.0,60,48,0.0,80.0
1299,74.0,60,48,0.0,80.0
1300,77.0,45,15,0.0,80.0
1301,76.0,15,96,0.0,80.0
1302,74.0,120,48,0.0,80.0
1303,72.0,60,48,0.0,80.0
1304,50.0,60,48,0.0,80.0
1305,53.0,60,48,0.0,80.0
1306,59.0,60,48,0.0,80.0
1307,71.0,0,192,0.0,80.0
1308,62.0,60,48,0.0,80.0
1309,65.0,60,96,0.0,80.0
1310,73.0,60,48,0.0,80.0
1311,74.0,60,48,0.0,80.0
1312,76.0,60,48,0.0,80.0
1313,79.0,45,15,0.0,80.0
1314,77.0,15,96,0.0,80.0
1315,76.0,120,48,0.0,80.0
1316,74.0,60,48,0.0,80.0
1317,52.0,60,48,0.0,80.0
1318,55.0,60,48,0.0,80.0
1319,60.0,60,48,0.0,80.0
1320,72.0,0,192,0.0,80.0
1321,64.0,60,48,0.0,80.0
1322,67.0,60,96,0.0,80.0
1323,75.0,60,48,0.0,80.0
1324,76.0,60,48,0.0,80.0
1325,77.0,60,48,0.0,80.0
1326,81.0,45,15,0.0,80.0
1327,79.0,15,113,0.0,80.0
1328,77.0,120,48,0.0,80.0
1329,76.0,60,48,0.0,80.0
1330,73.0,0,48,0.0,80.0
1331,74.0,60,48,0.0,80.0
1332,77.0,60,48,0.0,80.0
1333,65.0,0,192,0.0,80.0
1334,69.0,60,192,0.0,80.0
1335,76.0,60,48,0.0,80.0
1336,73.0,0,48,0.0,80.0
1337,74.0,60,48,0.0,80.0
1338,77.0,60,48,0.0,80.0
1339,65.0,0,192,0.0,80.0
1340,69.0,60,192,0.0,80.0
1341,76.0,60,48,0.0,80.0
1342,79.0,45,15,0.0,80.0
1343,77.0,15,96,0.0,80.0
1344,76.0,120,48,0.0,80.0
1345,69.0,0,192,0.0,80.0
1346,65.0,0,192,0.0,80.0
1347,74.0,60,48,0.0,80.0
1348,81.0,0,48,0.0,80.0
1349,77.0,60,48,0.0,80.0
1350,76.0,60,48,0.0,80.0
1351,69.0,0,192,0.0,80.0
1352,65.0,0,192,0.0,80.0
1353,72.0,60,192,0.0,80.0
1354,74.0,0,8,0.0,80.0
1355,72.0,37,8,0.0,80.0
1356,76.0,8,8,0.0,80.0
1357,74.0,15,24,0.0,80.0
1358,76.0,30,24,0.0,80.0
1359,74.0,30,24,0.0,80.0
1360,76.0,30,24,0.0,80.0
1361,74.0,30,24,0.0,80.0
1362,76.0,30,24,0.0,80.0
1363,67.0,15,192,0.0,80.0
1364,72.0,0,192,0.0,80.0
1365,74.0,30,24,0.0,80.0
1366,76.0,30,24,0.0,80.0
1367,74.0,15,24,0.0,80.0
1368,76.0,30,24,0.0,80.0
1369,74.0,30,24,0.0,80.0
1370,76.0,30,24,0.0,80.0
1371,74.0,30,24,0.0,80.0
1372,76.0,30,24,0.0,80.0
1373,71.0,15,192,0.0,80.0
1374,74.0,30,24,0.0,80.0
1375,76.0,30,24,0.0,80.0
1376,36.0,0,48,0.0,80.0
1377,40.0,60,48,0.0,80.0
1378,43.0,60,48,0.0,80.0
1379,64.0,0,192,0.0,80.0
1380,72.0,0,192,0.0,80.0
1381,67.0,15,192,0.0,80.0
1382,48.0,60,48,0.0,80.0
1383,52.0,60,96,0.0,80.0
1384,59.0,60,48,0.0,80.0
1385,60.0,60,48,0.0,80.0
1386,62.0,60,48,0.0,80.0
1387,65.0,45,15,0.0,80.0
1388,64.0,15,96,0.0,80.0
1389,62.0,120,48,0.0,80.0
1390,60.0,60,48,0.0,80.0
1391,38.0,60,48,0.0,80.0
1392,41.0,60,48,0.0,80.0
1393,47.0,60,48,0.0,80.0
1394,59.0,0,192,0.0,80.0
1395,50.0,60,48,0.0,80.0
1396,53.0,60,96,0.0,80.0
1397,61.0,60,48,0.0,80.0
1398,62.0,60,48,0.0,80.0
1399,64.0,60,48,0.0,80.0
1400,67.0,45,15,0.0,80.0
1401,65.0,15,96,0.0,80.0
1402,64.0,120,48,0.0,80.0
1403,62.0,60,48,0.0,80.0
1404,40.0,0,48,0.0,80.0
1405,43.0,60,48,0.0,80.0
1406,48.0,60,48,0.0,80.0
1407,60.0,60,192,0.0,80.0
1408,52.0,60,48,0.0,80.0
1409,55.0,60,96,0.0,80.0
1410,63.0,60,48,0.0,80.0
1411,64.0,60,48,0.0,80.0
1412,65.0,60,48,0.0,80.0
1413,69.0,45,15,0.0,80.0
1414,67.0,15,96,0.0,80.0
1415,65.0,120,48,0.0,80.0
1416,64.0,60,48,0.0,80.0
1417,41.0,60,48,0.0,80.0
1418,45.0,60,48,0.0,80.0
1419,50.0,60,48,0.0,80.0
1420,62.0,0,192,0.0,80.0
1421,53.0,60,48,0.0,80.0
1422,57.0,60,96,0.0,80.0
1423,62.0,60,48,0.0,80.0
1424,65.0,60,48,0.0,80.0
1425,69.0,60,48,0.0,80.0
1426,74.0,60,96,0.0,80.0
1427,53.0,60,48,0.0,80.0
1428,57.0,60,48,0.0,80.0
1429,62.0,60,48,0.0,80.0
1430,65.0,60,96,0.0,80.0
1431,69.0,60,48,0.0,80.0
1432,74.0,60,48,0.0,80.0
1433,77.0,60,48,0.0,80.0
1434,81.0,60,96,0.0,80.0
1435,65.0,60,48,0.0,80.0
1436,69.0,60,48,0.0,80.0
1437,74.0,60,48,0.0,80.0
1438,77.0,60,96,0.0,80.0
1439,83.0,60,48,0.0,80.0
1440,84.0,60,48,0.0,80.0
1441,80.0,60,48,0.0,80.0
1442,81.0,60,48,0.0,80.0
1443,76.0,60,48,0.0,80.0
1444,77.0,60,48,0.0,80.0
1445,72.0,37,8,0.0,80.0
1446,74.0,0,8,0.0,80.0
1447,76.0,8,8,0.0,80.0
1448,74.0,15,24,0.0,80.0
1449,76.0,30,24,0.0,80.0
1450,74.0,30,24,0.0,80.0
1451,76.0,30,24,0.0,80.0
1452,74.0,30,24,0.0,80.0
1453,76.0,30,24,0.0,80.0
1454,55.0,15,192,0.0,80.0
1455,60.0,0,192,0.0,80.0
1456,74.0,30,24,0.0,80.0
1457,76.0,30,24,0.0,80.0
1458,74.0,15,24,0.0,80.0
1459,76.0,30,24,0.0,80.0
1460,74.0,30,24,0.0,80.0
1461,76.0,30,24,0.0,80.0
1462,74.0,30,24,0.0,80.0
1463,76.0,30,24,0.0,80.0
1464,59.0,15,192,0.0,80.0
1465,74.0,30,24,0.0,80.0
1466,76.0,30,24,0.0,80.0
1467,60.0,15,48,0.0,80.0
1468,72.0,0,96,0.0,80.0
1469,67.0,60,48,0.0,80.0
1470,64.0,0,48,0.0,80.0
1471,76.0,60,96,0.0,80.0
1472,67.0,60,48,0.0,80.0
1473,60.0,0,48,0.0,80.0
1474,67.0,60,48,0.0,80.0
1475,64.0,60,48,0.0,80.0
1476,79.0,60,192,0.0,80.0
1477,67.0,60,48,0.0,80.0
1478,83.0,0,24,0.0,80.0
1479,55.0,60,48,0.0,80.0
1480,84.0,30,24,0.0,80.0
1481,83.0,30,24,0.0,80.0
1482,65.0,0,48,0.0,80.0
1483,84.0,30,24,0.0,80.0
1484,83.0,0,24,0.0,80.0
1485,62.0,30,48,0.0,80.0
1486,84.0,30,24,0.0,80.0
1487,81.0,0,24,0.0,80.0
1488,65.0,30,48,0.0,80.0
1489,83.0,30,24,0.0,80.0
1490,60.0,0,48,0.0,80.0
1491,84.0,30,96,0.0,80.0
1492,67.0,60,48,0.0,80.0
1493,64.0,0,48,0.0,80.0
1494,76.0,60,96,0.0,80.0
1495,67.0,60,48,0.0,80.0
1496,60.0,60,48,0.0,80.0
1497,67.0,60,48,0.0,80.0
1498,64.0,60,48,0.0,80.0
1499,79.0,0,192,0.0,80.0
1500,67.0,60,48,0.0,80.0
1501,83.0,60,24,0.0,80.0
1502,55.0,0,48,0.0,80.0
1503,84.0,30,24,0.0,80.0
1504,83.0,0,24,0.0,80.0
1505,65.0,30,48,0.0,80.0
1506,84.0,30,24,0.0,80.0
1507,83.0,0,24,0.0,80.0
1508,62.0,30,48,0.0,80.0
1509,84.0,30,24,0.0,80.0
1510,81.0,0,24,0.0,80.0
1511,65.0,30,48,0.0,80.0
1512,83.0,30,24,0.0,80.0
1513,64.0,0,192,0.0,80.0
1514,60.0,0,192,0.0,80.0
1515,84.0,30,192,0.0,80.0
1516,64.0,0,192,0.0,80.0
1517,67.0,240,192,0.0,80.0
1518,72.0,0,192,0.0,80.0
1519,55.0,0,192,0.0,80.0
1520,52.0,0,192,0.0,80.0
1521,48.0,0,192,0.0,80.0
1522,48.0,80,64,0.0,80.0
1523,79.0,480,192,0.0,80.0
1524,76.0,0,192,0.0,80.0
1525,47.0,80,64,0.0,80.0
1526,48.0,80,64,0.0,80.0
1527,52.0,80,64,0.0,80.0
1528,51.0,80,64,0.0,80.0
1529,52.0,80,64,0.0,80.0
1530,55.0,80,64,0.0,80.0
1531,54.0,80,64,0.0,80.0
1532,55.0,80,192,0.0,80.0
1533,76.0,0,144,0.0,80.0
1534,79.0,240,144,0.0,80.0
1535,76.0,0,48,0.0,80.0
1536,73.0,180,48,0.0,80.0
1537,79.0,60,144,0.0,80.0
1538,76.0,0,144,0.0,80.0
1539,73.0,0,48,0.0,80.0
1540,76.0,180,48,0.0,80.0
1541,55.0,80,64,0.0,80.0
1542,77.0,0,192,0.0,80.0
1543,74.0,60,192,0.0,80.0
1544,54.0,80,64,0.0,80.0
1545,55.0,80,64,0.0,80.0
1546,59.0,80,64,0.0,80.0
1547,58.0,80,64,0.0,80.0
1548,59.0,80,64,0.0,80.0
1549,62.0,80,64,0.0,80.0
1550,61.0,80,64,0.0,80.0
1551,62.0,80,192,0.0,80.0
1552,65.0,240,144,0.0,80.0
1553,74.0,0,144,0.0,80.0
1554,71.0,0,48,0.0,80.0
1555,62.0,180,48,0.0,80.0
1556,74.0,0,144,0.0,80.0
1557,65.0,60,144,0.0,80.0
1558,62.0,180,48,0.0,80.0
1559,71.0,0,48,0.0,80.0
1560,64.0,60,8,0.0,80.0
1561,67.0,8,8,0.0,80.0
1562,60.0,232,144,0.0,80.0
1563,55.0,180,48,0.0,80.0
1564,72.0,0,576,0.0,80.0
1565,57.0,60,144,0.0,80.0
1566,52.0,180,48,0.0,80.0
1567,72.0,0,192,0.0,80.0
1568,74.0,240,144,0.0,80.0
1569,69.0,180,48,0.0,80.0
1570,53.0,60,576,0.0,80.0
1571,71.0,60,144,0.0,80.0
1572,67.0,180,48,0.0,80.0
1573,52.0,60,192,0.0,80.0
1574,79.0,0,192,0.0,80.0
1575,72.0,0,144,0.0,80.0
1576,64.0,0,192,0.0,80.0
1577,67.0,240,192,0.0,80.0
1578,74.0,180,48,0.0,80.0
1579,71.0,60,144,0.0,80.0
1580,62.0,0,192,0.0,80.0
1581,65.0,0,192,0.0,80.0
1582,72.0,180,48,0.0,80.0
1583,70.0,0,192,0.0,80.0
1584,79.0,0,192,0.0,80.0
1585,64.0,0,384,0.0,80.0
1586,79.0,0,144,0.0,80.0
1587,69.0,240,144,0.0,80.0
1588,61.0,60,384,0.0,80.0
1589,76.0,180,48,0.0,80.0
1590,79.0,60,144,0.0,80.0
1591,76.0,180,48,0.0,80.0
1592,79.0,60,192,0.0,80.0
1593,72.0,240,144,0.0,80.0
1594,64.0,0,192,0.0,80.0
1595,67.0,0,192,0.0,80.0
1596,74.0,180,48,0.0,80.0
1597,71.0,60,144,0.0,80.0
1598,65.0,0,192,0.0,80.0
1599,62.0,0,192,0.0,80.0
1600,72.0,180,48,0.0,80.0
1601,79.0,0,192,0.0,80.0
1602,70.0,0,192,0.0,80.0
1603,64.0,60,384,0.0,80.0
1604,61.0,0,384,0.0,80.0
1605,69.0,240,192,0.0,80.0
1606,50.0,0,192,0.0,80.0
1607,38.0,480,192,0.0,80.0
1608,41.0,240,192,0.0,80.0
1609,53.0,0,192,0.0,80.0
1610,57.0,240,192,0.0,80.0
1611,45.0,0,192,0.0,80.0
1612,81.0,240,48,0.0,80.0
1613,82.0,60,48,0.0,80.0
1614,81.0,60,48,0.0,80.0
1615,77.0,60,48,0.0,80.0
1616,79.0,60,48,0.0,80.0
1617,81.0,60,48,0.0,80.0
1618,79.0,60,48,0.0,80.0
1619,76.0,60,48,0.0,80.0
1620,77.0,60,48,0.0,80.0
1621,79.0,60,48,0.0,80.0
1622,77.0,60,48,0.0,80.0
1623,74.0,60,48,0.0,80.0
1624,79.0,60,192,0.0,80.0
1625,82.0,0,192,0.0,80.0
1626,70.0,0,192,0.0,80.0
1627,74.0,0,192,0.0,80.0
1628,43.0,0,192,0.0,80.0
1629,31.0,0,192,0.0,80.0
1630,46.0,240,192,0.0,80.0
1631,34.0,0,192,0.0,80.0
1632,50.0,0,192,0.0,80.0
1633,38.0,240,192,0.0,80.0
1634,74.0,240,48,0.0,80.0
1635,75.0,60,48,0.0,80.0
1636,74.0,60,48,0.0,80.0
1637,70.0,60,48,0.0,80.0
1638,72.0,60,48,0.0,80.0
1639,74.0,60,48,0.0,80.0
1640,72.0,60,48,0.0,80.0
1641,69.0,60,48,0.0,80.0
1642,70.0,60,48,0.0,80.0
1643,72.0,60,48,0.0,80.0
1644,70.0,60,48,0.0,80.0
1645,67.0,60,48,0.0,80.0
1646,48.0,0,192,0.0,80.0
1647,76.0,0,192,0.0,80.0
1648,36.0,60,192,0.0,80.0
1649,67.0,0,192,0.0,80.0
1650,64.0,0,192,0.0,80.0
1651,72.0,0,192,0.0,80.0
1652,52.0,0,192,0.0,80.0
1653,40.0,240,192,0.0,80.0
1654,55.0,0,192,0.0,80.0
1655,43.0,240,192,0.0,80.0
1656,79.0,240,48,0.0,80.0
1657,81.0,60,48,0.0,80.0
1658,79.0,60,48,0.0,80.0
1659,76.0,60,48,0.0,80.0
1660,77.0,60,48,0.0,80.0
1661,79.0,60,48,0.0,80.0
1662,77.0,60,48,0.0,80.0
1663,74.0,60,48,0.0,80.0
1664,76.0,60,48,0.0,80.0
1665,77.0,60,48,0.0,80.0
1666,76.0,60,48,0.0,80.0
1667,72.0,60,48,0.0,80.0
1668,29.0,60,192,0.0,80.0
1669,41.0,0,192,0.0,80.0
1670,81.0,0,192,0.0,80.0
1671,77.0,0,192,0.0,80.0
1672,72.0,0,192,0.0,80.0
1673,69.0,0,192,0.0,80.0
1674,45.0,0,192,0.0,80.0
1675,33.0,240,192,0.0,80.0
1676,36.0,240,192,0.0,80.0
1677,48.0,0,192,0.0,80.0
1678,72.0,240,48,0.0,80.0
1679,74.0,60,48,0.0,80.0
1680,72.0,60,48,0.0,80.0
1681,69.0,60,48,0.0,80.0
1682,70.0,60,48,0.0,80.0
1683,72.0,60,48,0.0,80.0
1684,70.0,60,48,0.0,80.0
1685,67.0,60,48,0.0,80.0
1686,69.0,60,48,0.0,80.0
1687,70.0,60,48,0.0,80.0
1688,69.0,60,48,0.0,80.0
1689,65.0,60,48,0.0,80.0
1690,46.0,60,192,0.0,80.0
1691,58.0,0,192,0.0,80.0
1692,86.0,0,192,0.0,80.0
1693,77.0,0,192,0.0,80.0
1694,74.0,0,192,0.0,80.0
1695,80.0,0,192,0.0,80.0
1696,64.0,0,192,0.0,80.0
1697,61.0,240,192,0.0,80.0
1698,62.0,240,192,0.0,80.0
1699,65.0,0,192,0.0,80.0
1700,57.0,0,192,0.0,80.0
1701,45.0,240,192,0.0,80.0
1702,86.0,0,192,0.0,80.0
1703,74.0,0,192,0.0,80.0
1704,77.0,0,192,0.0,80.0
1705,81.0,0,192,0.0,80.0
1706,64.0,0,192,0.0,80.0
1707,61.0,240,192,0.0,80.0
1708,62.0,240,192,0.0,80.0
1709,65.0,0,192,0.0,80.0
1710,86.0,0,192,0.0,80.0
1711,44.0,0,192,0.0,80.0
1712,56.0,240,192,0.0,80.0
1713,83.0,0,192,0.0,80.0
1714,74.0,0,192,0.0,80.0
1715,77.0,0,192,0.0,80.0
1716,64.0,0,192,0.0,80.0
1717,61.0,240,192,0.0,80.0
1718,62.0,240,192,0.0,80.0
1719,65.0,0,192,0.0,80.0
1720,61.0,0,64,0.0,80.0
1721,69.0,80,64,0.0,80.0
1722,64.0,80,64,0.0,80.0
1723,62.0,80,64,0.0,80.0
1724,70.0,80,64,0.0,80.0
1725,65.0,80,64,0.0,80.0
1726,62.0,80,64,0.0,80.0
1727,68.0,80,64,0.0,80.0
1728,65.0,80,64,0.0,80.0
1729,61.0,80,64,0.0,80.0
1730,69.0,80,64,0.0,80.0
1731,64.0,80,64,0.0,80.0
1732,62.0,80,64,0.0,80.0
1733,70.0,80,64,0.0,80.0
1734,65.0,80,64,0.0,80.0
1735,62.0,80,64,0.0,80.0
1736,45.0,0,1296,0.0,80.0
1737,57.0,240,1296,0.0,80.0
1738,68.0,80,64,0.0,80.0
1739,65.0,80,64,0.0,80.0
1740,57.0,0,192,0.0,80.0
1741,64.0,0,192,0.0,80.0
1742,61.0,80,192,0.0,80.0
1743,70.0,240,96,0.0,80.0
1744,69.0,120,96,0.0,80.0
1745,69.0,120,192,0.0,80.0
1746,62.0,0,192,0.0,80.0
1747,56.0,0,192,0.0,80.0
1748,65.0,240,192,0.0,80.0
1749,72.0,240,96,0.0,80.0
1750,71.0,120,96,0.0,80.0
1751,71.0,120,192,0.0,80.0
1752,55.0,240,192,0.0,80.0
1753,64.0,0,192,0.0,80.0
1754,60.0,0,192,0.0,80.0
1755,72.0,240,96,0.0,80.0
1756,70.0,120,96,0.0,80.0
1757,70.0,120,192,0.0,80.0
1758,60.0,240,192,0.0,80.0
1759,65.0,0,192,0.0,80.0
1760,69.0,0,192,0.0,80.0
1761,72.0,0,192,0.0,80.0
1762,53.0,0,192,0.0,80.0
1763,41.0,0,192,0.0,80.0
1764,69.0,240,192,0.0,80.0
1765,72.0,0,192,0.0,80.0
1766,48.0,0,192,0.0,80.0
1767,72.0,0,192,0.0,80.0
1768,45.0,240,192,0.0,80.0
1769,69.0,0,192,0.0,80.0
1770,41.0,240,192,0.0,80.0
1771,72.0,0,288,0.0,80.0
1772,69.0,0,288,0.0,80.0
1773,74.0,120,48,0.0,80.0
1774,29.0,240,192,0.0,80.0
1775,72.0,60,48,0.0,80.0
1776,71.0,60,24,0.0,80.0
1777,72.0,30,24,0.0,80.0
1778,69.0,30,48,0.0,80.0
1779,67.0,60,48,0.0,80.0
1780,65.0,60,48,0.0,80.0
1781,53.0,0,96,0.0,80.0
1782,57.0,60,96,0.0,80.0
1783,77.0,0,192,0.0,80.0
1784,53.0,120,96,0.0,80.0
1785,57.0,0,96,0.0,80.0
1786,55.0,0,96,0.0,80.0
1787,58.0,0,96,0.0,80.0
1788,53.0,0,96,0.0,80.0
1789,76.0,120,192,0.0,80.0
1790,55.0,0,96,0.0,80.0
1791,53.0,120,96,0.0,80.0
1792,58.0,0,96,0.0,80.0
1793,53.0,0,96,0.0,80.0
1794,57.0,0,96,0.0,80.0
1795,60.0,0,96,0.0,80.0
1796,75.0,120,192,0.0,80.0
1797,60.0,0,96,0.0,80.0
1798,57.0,0,96,0.0,80.0
1799,53.0,120,96,0.0,80.0
1800,53.0,120,96,0.0,80.0
1801,58.0,0,96,0.0,80.0
1802,62.0,0,96,0.0,80.0
1803,74.0,0,192,0.0,80.0
1804,58.0,0,96,0.0,80.0
1805,53.0,120,96,0.0,80.0
1806,62.0,0,96,0.0,80.0
1807,58.0,0,96,0.0,80.0
1808,53.0,0,96,0.0,80.0
1809,62.0,120,96,0.0,80.0
1810,58.0,120,96,0.0,80.0
1811,53.0,0,96,0.0,80.0
1812,62.0,0,96,0.0,80.0
1813,58.0,0,96,0.0,80.0
1814,53.0,120,96,0.0,80.0
1815,62.0,0,96,0.0,80.0
1816,62.0,0,96,0.0,80.0
1817,58.0,0,96,0.0,80.0
1818,53.0,120,96,0.0,80.0
1819,53.0,0,96,0.0,80.0
1820,55.0,120,96,0.0,80.0
1821,64.0,0,96,0.0,80.0
1822,72.0,0,96,0.0,80.0
1823,55.0,0,96,0.0,80.0
1824,53.0,0,96,0.0,80.0
1825,70.0,120,96,0.0,80.0
1826,64.0,0,96,0.0,80.0
1827,55.0,0,96,0.0,80.0
1828,53.0,0,96,0.0,80.0
1829,64.0,120,96,0.0,80.0
1830,70.0,0,192,0.0,80.0
1831,55.0,120,96,0.0,80.0
1832,53.0,0,96,0.0,80.0
1833,64.0,0,96,0.0,80.0
1834,53.0,120,96,0.0,80.0
1835,55.0,0,96,0.0,80.0
1836,64.0,0,96,0.0,80.0
1837,64.0,0,96,0.0,80.0
1838,55.0,0,96,0.0,80.0
1839,53.0,120,96,0.0,80.0
1840,74.0,120,96,0.0,80.0
1841,53.0,0,96,0.0,80.0
1842,57.0,0,96,0.0,80.0
1843,65.0,0,96,0.0,80.0
1844,53.0,0,96,0.0,80.0
1845,57.0,0,96,0.0,80.0
1846,65.0,0,96,0.0,80.0
1847,72.0,120,96,0.0,80.0
1848,57.0,0,96,0.0,80.0
1849,53.0,0,96,0.0,80.0
1850,65.0,120,96,0.0,80.0
1851,72.0,0,192,0.0,80.0
1852,57.0,120,96,0.0,80.0
1853,53.0,0,96,0.0,80.0
1854,65.0,0,96,0.0,80.0
1855,53.0,0,96,0.0,80.0
1856,57.0,0,96,0.0,80.0
1857,65.0,120,96,0.0,80.0
1858,65.0,0,96,0.0,80.0
1859,57.0,0,96,0.0,80.0
1860,53.0,120,96,0.0,80.0
1861,82.0,0,48,0.0,80.0
1862,81.0,60,48,0.0,80.0
1863,79.0,60,48,0.0,80.0
1864,60.0,0,192,0.0,80.0
1865,55.0,120,192,0.0,80.0
1866,52.0,0,192,0.0,80.0
1867,81.0,60,48,0.0,80.0
1868,79.0,60,48,0.0,80.0
1869,77.0,60,48,0.0,80.0
1870,76.0,60,48,0.0,80.0
1871,77.0,60,48,0.0,80.0
1872,76.0,60,48,0.0,80.0
1873,74.0,60,48,0.0,80.0
1874,72.0,60,48,0.0,80.0
1875,70.0,60,48,0.0,80.0
1876,53.0,60,48,0.0,80.0
1877,69.0,0,96,0.0,80.0
1878,60.0,60,48,0.0,80.0
1879,57.0,60,48,0.0,80.0
1880,60.0,60,48,0.0,80.0
1881,55.0,60,48,0.0,80.0
1882,77.0,0,192,0.0,80.0
1883,60.0,60,48,0.0,80.0
1884,58.0,0,48,0.0,80.0
1885,60.0,60,48,0.0,80.0
1886,57.0,60,48,0.0,80.0
1887,76.0,60,192,0.0,80.0
1888,60.0,60,48,0.0,80.0
1889,57.0,0,48,0.0,80.0
1890,77.0,60,96,0.0,80.0
1891,60.0,60,48,0.0,80.0
1892,58.0,60,96,0.0,80.0
1893,65.0,120,96,0.0,80.0
1894,74.0,0,96,0.0,80.0
1895,46.0,120,96,0.0,80.0
1896,67.0,0,96,0.0,80.0
1897,58.0,120,96,0.0,80.0
1898,48.0,120,96,0.0,80.0
1899,64.0,120,96,0.0,80.0
1900,55.0,0,96,0.0,80.0
1901,82.0,0,48,0.0,80.0
1902,81.0,60,48,0.0,80.0
1903,79.0,60,48,0.0,80.0
1904,55.0,0,192,0.0,80.0
1905,52.0,0,192,0.0,80.0
1906,60.0,120,192,0.0,80.0
1907,81.0,60,48,0.0,80.0
1908,79.0,60,48,0.0,80.0
1909,77.0,60,48,0.0,80.0
1910,76.0,60,48,0.0,80.0
1911,77.0,60,48,0.0,80.0
1912,76.0,60,48,0.0,80.0
1913,74.0,60,48,0.0,80.0
1914,72.0,60,48,0.0,80.0
1915,70.0,60,48,0.0,80.0
1916,53.0,60,48,0.0,80.0
1917,69.0,0,96,0.0,80.0
1918,60.0,60,48,0.0,80.0
1919,57.0,0,48,0.0,80.0
1920,60.0,60,48,0.0,80.0
1921,55.0,60,48,0.0,80.0
1922,81.0,60,192,0.0,80.0
1923,64.0,60,48,0.0,80.0
1924,58.0,0,48,0.0,80.0
1925,64.0,60,48,0.0,80.0
1926,57.0,60,48,0.0,80.0
1927,79.0,60,192,0.0,80.0
1928,65.0,60,48,0.0,80.0
1929,60.0,60,48,0.0,80.0
1930,77.0,0,96,0.0,80.0
1931,65.0,60,48,0.0,80.0
1932,58.0,60,96,0.0,80.0
1933,74.0,0,96,0.0,80.0
1934,65.0,120,96,0.0,80.0
1935,46.0,120,96,0.0,80.0
1936,67.0,0,96,0.0,80.0
1937,58.0,120,96,0.0,80.0
1938,48.0,120,96,0.0,80.0
1939,55.0,120,96,0.0,80.0
1940,64.0,0,96,0.0,80.0
1941,57.0,120,64,0.0,80.0
1942,65.0,80,64,0.0,80.0
1943,53.0,0,192,0.0,80.0
1944,41.0,0,192,0.0,80.0
1945,60.0,80,64,0.0,80.0
1946,69.0,80,64,0.0,80.0
1947,65.0,80,64,0.0,80.0
1948,60.0,80,64,0.0,80.0
1949,58.0,0,64,0.0,80.0
1950,67.0,80,64,0.0,80.0
1951,48.0,0,192,0.0,80.0
1952,36.0,80,192,0.0,80.0
1953,64.0,80,64,0.0,80.0
1954,65.0,80,64,0.0,80.0
1955,57.0,80,64,0.0,80.0
1956,41.0,0,192,0.0,80.0
1957,29.0,0,192,0.0,80.0
1958,60.0,80,64,0.0,80.0
1959,67.0,80,64,0.0,80.0
1960,60.0,80,64,0.0,80.0
1961,64.0,80,64,0.0,80.0
1962,69.0,80,64,0.0,80.0
1963,60.0,80,64,0.0,80.0
1964,65.0,80,64,0.0,80.0
1965,60.0,0,64,0.0,80.0
1966,67.0,80,64,0.0,80.0
1967,48.0,80,192,0.0,80.0
1968,36.0,0,192,0.0,80.0
1969,64.0,80,64,0.0,80.0
1970,70.0,80,64,0.0,80.0
1971,67.0,80,64,0.0,80.0
1972,64.0,80,64,0.0,80.0
1973,60.0,0,64,0.0,80.0
1974,69.0,80,64,0.0,80.0
1975,41.0,80,192,0.0,80.0
1976,53.0,0,192,0.0,80.0
1977,65.0,80,64,0.0,80.0
1978,67.0,0,64,0.0,80.0
1979,60.0,80,64,0.0,80.0
1980,48.0,0,192,0.0,80.0
1981,64.0,80,64,0.0,80.0
1982,69.0,80,64,0.0,80.0
1983,60.0,80,64,0.0,80.0
1984,65.0,80,64,0.0,80.0
1985,70.0,80,64,0.0,80.0
1986,60.0,80,64,0.0,80.0
1987,67.0,80,64,0.0,80.0
1988,69.0,80,64,0.0,80.0
1989,72.0,80,64,0.0,80.0
1990,41.0,0,192,0.0,80.0
1991,53.0,0,192,0.0,80.0
1992,77.0,80,64,0.0,80.0
1993,81.0,80,64,0.0,80.0
1994,77.0,80,64,0.0,80.0
1995,74.0,80,64,0.0,80.0
1996,72.0,80,64,0.0,80.0
1997,77.0,80,64,0.0,80.0
1998,81.0,80,64,0.0,80.0
1999,80.0,0,64,0.0,80.0
2000,74.0,80,64,0.0,80.0
2001,53.0,0,192,0.0,80.0
2002,65.0,80,192,0.0,80.0
2003,71.0,80,64,0.0,80.0
2004,72.0,80,64,0.0,80.0
2005,76.0,80,64,0.0,80.0
2006,52.0,0,192,0.0,80.0
2007,64.0,0,192,0.0,80.0
2008,79.0,80,64,0.0,80.0
2009,75.0,80,64,0.0,80.0
2010,72.0,80,64,0.0,80.0
2011,70.0,80,64,0.0,80.0
2012,69.0,80,64,0.0,80.0
2013,72.0,80,64,0.0,80.0
2014,63.0,0,192,0.0,80.0
2015,51.0,0,192,0.0,80.0
2016,78.0,80,64,0.0,80.0
2017,77.0,80,64,0.0,80.0
2018,74.0,80,64,0.0,80.0
2019,50.0,0,192,0.0,80.0
2020,62.0,0,192,0.0,80.0
2021,70.0,80,64,0.0,80.0
2022,69.0,80,64,0.0,80.0
2023,74.0,80,64,0.0,80.0
2024,77.0,80,64,0.0,80.0
2025,77.0,0,64,0.0,80.0
2026,71.0,80,64,0.0,80.0
2027,62.0,0,192,0.0,80.0
2028,50.0,80,192,0.0,80.0
2029,68.0,80,64,0.0,80.0
2030,69.0,0,64,0.0,80.0
2031,73.0,80,64,0.0,80.0
2032,49.0,0,192,0.0,80.0
2033,61.0,80,192,0.0,80.0
2034,76.0,80,64,0.0,80.0
2035,72.0,80,64,0.0,80.0
2036,69.0,80,64,0.0,80.0
2037,67.0,80,64,0.0,80.0
2038,66.0,0,64,0.0,80.0
2039,69.0,80,64,0.0,80.0
2040,60.0,0,192,0.0,80.0
2041,48.0,80,192,0.0,80.0
2042,75.0,80,64,0.0,80.0
2043,74.0,0,64,0.0,80.0
2044,71.0,80,64,0.0,80.0
2045,47.0,0,192,0.0,80.0
2046,59.0,80,192,0.0,80.0
2047,67.0,80,64,0.0,80.0
2048,65.0,80,64,0.0,80.0
2049,70.0,80,64,0.0,80.0
2050,74.0,80,64,0.0,80.0
2051,73.0,0,64,0.0,80.0
2052,67.0,80,64,0.0,80.0
2053,58.0,0,192,0.0,80.0
2054,46.0,80,192,0.0,80.0
2055,64.0,80,64,0.0,80.0
2056,65.0,80,64,0.0,80.0
2057,69.0,80,64,0.0,80.0
2058,45.0,0,192,0.0,80.0
2059,57.0,0,192,0.0,80.0
2060,72.0,80,64,0.0,80.0
2061,77.0,80,64,0.0,80.0
2062,72.0,80,64,0.0,80.0
2063,69.0,80,64,0.0,80.0
2064,67.0,0,64,0.0,80.0
2065,70.0,80,64,0.0,80.0
2066,58.0,80,192,0.0,80.0
2067,46.0,0,192,0.0,80.0
2068,69.0,80,64,0.0,80.0
2069,70.0,80,64,0.0,80.0
2070,74.0,80,64,0.0,80.0
2071,73.0,80,64,0.0,80.0
2072,74.0,80,64,0.0,80.0
2073,79.0,80,64,0.0,80.0
2074,78.0,80,64,0.0,80.0
2075,79.0,80,64,0.0,80.0
2076,82.0,80,64,0.0,80.0
2077,81.0,80,64,0.0,80.0
2078,82.0,80,64,0.0,80.0
2079,86.0,80,64,0.0,80.0
2080,85.0,80,64,0.0,80.0
2081,86.0,80,64,0.0,80.0
2082,82.0,80,64,0.0,80.0
2083,81.0,80,64,0.0,80.0
2084,82.0,80,64,0.0,80.0
2085,79.0,80,64,0.0,80.0
2086,78.0,80,64,0.0,80.0
2087,79.0,80,64,0.0,80.0
2088,74.0,80,64,0.0,80.0
2089,73.0,80,64,0.0,80.0
2090,74.0,80,64,0.0,80.0
2091,70.0,80,64,0.0,80.0
2092,58.0,0,192,0.0,80.0
2093,46.0,0,192,0.0,80.0
2094,67.0,80,64,0.0,80.0
2095,65.0,80,192,0.0,80.0
2096,48.0,0,192,0.0,80.0
2097,57.0,0,192,0.0,80.0
2098,64.0,0,192,0.0,80.0
2099,55.0,240,192,0.0,80.0
2100,41.0,480,192,0.0,80.0
2101,29.0,0,192,0.0,80.0
2102,45.0,0,192,0.0,80.0
2103,33.0,240,192,0.0,80.0
2104,36.0,0,192,0.0,80.0
2105,48.0,240,192,0.0,80.0
2106,84.0,240,48,0.0,80.0
2107,86.0,60,48,0.0,80.0
2108,84.0,60,48,0.0,80.0
2109,81.0,60,48,0.0,80.0
2110,84.0,60,48,0.0,80.0
2111,86.0,60,48,0.0,80.0
2112,84.0,60,48,0.0,80.0
2113,81.0,60,48,0.0,80.0
2114,82.0,60,48,0.0,80.0
2115,84.0,60,48,0.0,80.0
2116,82.0,60,48,0.0,80.0
2117,79.0,60,48,0.0,80.0
2118,72.0,0,48,0.0,80.0
2119,81.0,60,48,0.0,80.0
2120,82.0,60,48,0.0,80.0
2121,74.0,0,48,0.0,80.0
2122,81.0,0,48,0.0,80.0
2123,72.0,60,48,0.0,80.0
2124,77.0,60,48,0.0,80.0
2125,69.0,0,48,0.0,80.0
2126,72.0,0,48,0.0,80.0
2127,81.0,60,48,0.0,80.0
2128,82.0,60,48,0.0,80.0
2129,74.0,0,48,0.0,80.0
2130,81.0,60,48,0.0,80.0
2131,72.0,0,48,0.0,80.0
2132,69.0,0,48,0.0,80.0
2133,77.0,60,48,0.0,80.0
2134,70.0,60,48,0.0,80.0
2135,79.0,0,48,0.0,80.0
2136,81.0,60,48,0.0,80.0
2137,72.0,0,48,0.0,80.0
2138,79.0,0,48,0.0,80.0
2139,70.0,60,48,0.0,80.0
2140,67.0,60,48,0.0,80.0
2141,76.0,0,48,0.0,80.0
2142,69.0,0,96,0.0,80.0
2143,60.0,120,96,0.0,80.0
2144,77.0,60,288,0.0,80.0
2145,65.0,120,96,0.0,80.0
2146,79.0,120,48,0.0,80.0
2147,60.0,0,96,0.0,80.0
2148,81.0,60,48,0.0,80.0
2149,79.0,0,192,0.0,80.0
2150,64.0,60,192,0.0,80.0
2151,36.0,240,192,0.0,80.0
2152,48.0,0,192,0.0,80.0
2153,40.0,0,192,0.0,80.0
2154,52.0,240,192,0.0,80.0
2155,55.0,240,192,0.0,80.0
2156,43.0,0,192,0.0,80.0
2157,82.0,240,48,0.0,80.0
2158,84.0,60,48,0.0,80.0
2159,82.0,60,48,0.0,80.0
2160,79.0,60,48,0.0,80.0
2161,82.0,60,48,0.0,80.0
2162,84.0,60,48,0.0,80.0
2163,82.0,60,48,0.0,80.0
2164,79.0,60,48,0.0,80.0
2165,81.0,60,48,0.0,80.0
2166,82.0,60,48,0.0,80.0
2167,81.0,60,48,0.0,80.0
2168,77.0,60,48,0.0,80.0
2169,70.0,0,48,0.0,80.0
2170,79.0,60,48,0.0,80.0
2171,81.0,60,48,0.0,80.0
2172,72.0,0,48,0.0,80.0
2173,79.0,0,48,0.0,80.0
2174,70.0,60,48,0.0,80.0
2175,67.0,0,48,0.0,80.0
2176,76.0,60,48,0.0,80.0
2177,70.0,60,48,0.0,80.0
2178,79.0,0,48,0.0,80.0
2179,72.0,0,48,0.0,80.0
2180,81.0,60,48,0.0,80.0
2181,70.0,60,48,0.0,80.0
2182,79.0,0,48,0.0,80.0
2183,67.0,0,48,0.0,80.0
2184,76.0,60,48,0.0,80.0
2185,77.0,0,48,0.0,80.0
2186,69.0,60,48,0.0,80.0
2187,76.0,60,48,0.0,80.0
2188,70.0,0,48,0.0,80.0
2189,77.0,0,48,0.0,80.0
2190,69.0,60,48,0.0,80.0
2191,65.0,60,48,0.0,80.0
2192,81.0,0,48,0.0,80.0
2193,70.0,0,96,0.0,80.0
2194,67.0,120,96,0.0,80.0
2195,79.0,60,288,0.0,80.0
2196,64.0,120,96,0.0,80.0
2197,81.0,120,48,0.0,80.0
2198,60.0,0,96,0.0,80.0
2199,82.0,60,48,0.0,80.0
2200,81.0,0,192,0.0,80.0
2201,65.0,60,192,0.0,80.0
2202,84.0,60,48,0.0,80.0
2203,82.0,60,48,0.0,80.0
2204,53.0,240,192,0.0,80.0
2205,41.0,0,192,0.0,80.0
2206,84.0,60,48,0.0,80.0
2207,81.0,0,48,0.0,80.0
2208,82.0,60,48,0.0,80.0
2209,79.0,60,48,0.0,80.0
2210,57.0,60,192,0.0,80.0
2211,45.0,0,192,0.0,80.0
2212,81.0,60,48,0.0,80.0
2213,77.0,0,48,0.0,80.0
2214,79.0,60,48,0.0,80.0
2215,76.0,60,48,0.0,80.0
2216,60.0,0,192,0.0,80.0
2217,48.0,60,192,0.0,80.0
2218,77.0,60,48,0.0,80.0
2219,50.0,60,48,0.0,80.0
2220,48.0,60,48,0.0,80.0
2221,62.0,0,192,0.0,80.0
2222,74.0,60,192,0.0,80.0
2223,50.0,60,48,0.0,80.0
2224,46.0,60,48,0.0,80.0
2225,48.0,60,48,0.0,80.0
2226,45.0,60,48,0.0,80.0
2227,77.0,0,192,0.0,80.0
2228,65.0,0,192,0.0,80.0
2229,46.0,60,48,0.0,80.0
2230,43.0,60,48,0.0,80.0
2231,45.0,60,48,0.0,80.0
2232,41.0,60,48,0.0,80.0
2233,70.0,0,192,0.0,80.0
2234,82.0,0,192,0.0,80.0
2235,43.0,60,48,0.0,80.0
2236,82.0,60,48,0.0,80.0
2237,81.0,60,48,0.0,80.0
2238,52.0,0,192,0.0,80.0
2239,40.0,60,192,0.0,80.0
2240,82.0,60,48,0.0,80.0
2241,79.0,0,48,0.0,80.0
2242,81.0,60,48,0.0,80.0
2243,77.0,60,48,0.0,80.0
2244,55.0,0,192,0.0,80.0
2245,43.0,60,192,0.0,80.0
2246,79.0,60,48,0.0,80.0
2247,76.0,0,48,0.0,80.0
2248,77.0,60,48,0.0,80.0
2249,74.0,60,48,0.0,80.0
2250,58.0,0,192,0.0,80.0
2251,46.0,60,192,0.0,80.0
2252,76.0,60,48,0.0,80.0
2253,48.0,60,48,0.0,80.0
2254,46.0,60,48,0.0,80.0
2255,60.0,0,192,0.0,80.0
2256,72.0,60,192,0.0,80.0
2257,48.0,60,48,0.0,80.0
2258,45.0,60,48,0.0,80.0
2259,46.0,60,48,0.0,80.0
2260,43.0,60,48,0.0,80.0
2261,64.0,0,192,0.0,80.0
2262,76.0,0,192,0.0,80.0
2263,45.0,60,48,0.0,80.0
2264,41.0,0,48,0.0,80.0
2265,43.0,60,48,0.0,80.0
2266,40.0,60,48,0.0,80.0
2267,69.0,0,192,0.0,80.0
2268,81.0,60,192,0.0,80.0
2269,41.0,60,48,0.0,80.0
2270,81.0,60,48,0.0,80.0
2271,79.0,60,48,0.0,80.0
2272,50.0,60,192,0.0,80.0
2273,38.0,0,192,0.0,80.0
2274,81.0,60,48,0.0,80.0
2275,77.0,60,48,0.0,80.0
2276,64.0,0,48,0.0,80.0
2277,79.0,60,48,0.0,80.0
2278,76.0,0,48,0.0,80.0
2279,60.0,60,48,0.0,80.0
2280,62.0,60,48,0.0,80.0
2281,77.0,0,48,0.0,80.0
2282,74.0,0,48,0.0,80.0
2283,58.0,60,48,0.0,80.0
2284,60.0,60,48,0.0,80.0
2285,76.0,0,48,0.0,80.0
2286,72.0,0,48,0.0,80.0
2287,57.0,60,48,0.0,80.0
2288,74.0,0,48,0.0,80.0
2289,58.0,60,48,0.0,80.0
2290,55.0,60,48,0.0,80.0
2291,70.0,0,48,0.0,80.0
2292,72.0,0,48,0.0,80.0
2293,57.0,60,48,0.0,80.0
2294,53.0,60,48,0.0,80.0
2295,69.0,0,48,0.0,80.0
2296,55.0,0,48,0.0,80.0
2297,70.0,60,48,0.0,80.0
2298,52.0,0,48,0.0,80.0
2299,67.0,60,48,0.0,80.0
2300,69.0,60,48,0.0,80.0
2301,53.0,0,48,0.0,80.0
2302,65.0,0,48,0.0,80.0
2303,50.0,60,48,0.0,80.0
2304,52.0,0,48,0.0,80.0
2305,67.0,60,48,0.0,80.0
2306,64.0,60,48,0.0,80.0
2307,48.0,0,48,0.0,80.0
2308,65.0,0,48,0.0,80.0
2309,50.0,60,48,0.0,80.0
2310,46.0,60,48,0.0,80.0
2311,62.0,0,48,0.0,80.0
2312,64.0,0,48,0.0,80.0
2313,48.0,60,48,0.0,80.0
2314,60.0,0,64,0.0,80.0
2315,72.0,80,64,0.0,80.0
2316,33.0,0,192,0.0,80.0
2317,45.0,60,192,0.0,80.0
2318,70.0,80,64,0.0,80.0
2319,69.0,80,64,0.0,80.0
2320,72.0,80,64,0.0,80.0
2321,67.0,80,64,0.0,80.0
2322,65.0,80,64,0.0,80.0
2323,72.0,80,64,0.0,80.0
2324,63.0,80,64,0.0,80.0
2325,63.0,80,64,0.0,80.0
2326,46.0,0,192,0.0,80.0
2327,34.0,80,192,0.0,80.0
2328,61.0,80,64,0.0,80.0
2329,62.0,80,64,0.0,80.0
2330,67.0,80,64,0.0,80.0
2331,66.0,80,64,0.0,80.0
2332,69.0,80,64,0.0,80.0
2333,67.0,80,64,0.0,80.0
2334,70.0,80,64,0.0,80.0
2335,74.0,80,64,0.0,80.0
2336,47.0,0,192,0.0,80.0
2337,35.0,80,192,0.0,80.0
2338,72.0,80,64,0.0,80.0
2339,71.0,80,64,0.0,80.0
2340,74.0,80,64,0.0,80.0
2341,69.0,80,64,0.0,80.0
2342,67.0,80,64,0.0,80.0
2343,74.0,80,64,0.0,80.0
2344,65.0,80,64,0.0,80.0
2345,65.0,80,64,0.0,80.0
2346,48.0,0,192,0.0,80.0
2347,36.0,80,192,0.0,80.0
2348,63.0,80,64,0.0,80.0
2349,64.0,80,64,0.0,80.0
2350,69.0,80,64,0.0,80.0
2351,68.0,80,64,0.0,80.0
2352,71.0,80,64,0.0,80.0
2353,69.0,80,64,0.0,80.0
2354,72.0,80,64,0.0,80.0
2355,76.0,80,64,0.0,80.0
2356,49.0,0,192,0.0,80.0
2357,37.0,80,192,0.0,80.0
2358,74.0,80,64,0.0,80.0
2359,73.0,80,64,0.0,80.0
2360,76.0,80,64,0.0,80.0
2361,70.0,80,64,0.0,80.0
2362,69.0,80,64,0.0,80.0
2363,76.0,80,64,0.0,80.0
2364,67.0,80,64,0.0,80.0
2365,64.0,80,64,0.0,80.0
2366,38.0,80,192,0.0,80.0
2367,50.0,0,192,0.0,80.0
2368,65.0,80,64,0.0,80.0
2369,61.0,80,64,0.0,80.0
2370,70.0,80,192,0.0,80.0
2371,62.0,80,64,0.0,80.0
2372,59.0,80,64,0.0,80.0
2373,69.0,80,192,0.0,80.0
2374,60.0,80,64,0.0,80.0
2375,66.0,80,64,0.0,80.0
2376,58.0,80,192,0.0,80.0
2377,67.0,80,64,0.0,80.0
2378,57.0,80,64,0.0,80.0
2379,74.0,80,192,0.0,80.0
2380,58.0,80,64,0.0,80.0
2381,56.0,80,64,0.0,80.0
2382,72.0,80,192,0.0,80.0
2383,57.0,80,64,0.0,80.0
2384,72.0,0,15,0.0,80.0
2385,70.0,0,96,0.0,80.0
2386,69.0,60,48,0.0,80.0
2387,67.0,60,48,0.0,80.0
2388,55.0,0,192,0.0,80.0
2389,46.0,80,192,0.0,80.0
2390,65.0,60,192,0.0,80.0
2391,57.0,0,192,0.0,80.0
2392,48.0,60,192,0.0,80.0
2393,64.0,180,24,0.0,80.0
2394,65.0,30,24,0.0,80.0
2395,64.0,0,24,0.0,80.0
2396,65.0,30,24,0.0,80.0
2397,64.0,30,24,0.0,80.0
2398,65.0,30,24,0.0,80.0
2399,62.0,30,24,0.0,80.0
2400,64.0,30,24,0.0,80.0
2401,58.0,30,192,0.0,80.0
2402,64.0,30,24,0.0,80.0
2403,65.0,30,24,0.0,80.0
2404,53.0,0,48,0.0,80.0
2405,57.0,60,48,0.0,80.0
2406,60.0,60,48,0.0,80.0
2407,65.0,60,12,0.0,80.0
2408,69.0,60,96,0.0,80.0
2409,76.0,60,48,0.0,80.0
2410,77.0,60,48,0.0,80.0
2411,79.0,60,48,0.0,80.0
2412,82.0,45,15,0.0,80.0
2413,81.0,15,96,0.0,80.0
2414,79.0,120,48,0.0,80.0
2415,77.0,60,48,0.0,80.0
2416,55.0,60,48,0.0,80.0
2417,58.0,60,48,0.0,80.0
2418,62.0,60,48,0.0,80.0
2419,76.0,0,192,0.0,80.0
2420,67.0,60,48,0.0,80.0
2421,70.0,60,96,0.0,80.0
2422,78.0,60,48,0.0,80.0
2423,79.0,60,48,0.0,80.0
2424,81.0,60,48,0.0,80.0
2425,84.0,45,15,0.0,80.0
2426,82.0,15,96,0.0,80.0
2427,81.0,120,48,0.0,80.0
2428,79.0,60,48,0.0,80.0
2429,57.0,0,48,0.0,80.0
2430,60.0,60,48,0.0,80.0
2431,65.0,60,48,0.0,80.0
2432,77.0,60,192,0.0,80.0
2433,69.0,60,48,0.0,80.0
2434,72.0,60,96,0.0,80.0
2435,80.0,60,48,0.0,80.0
2436,81.0,60,48,0.0,80.0
2437,82.0,60,48,0.0,80.0
2438,86.0,45,15,0.0,80.0
2439,84.0,15,113,0.0,80.0
2440,82.0,120,48,0.0,80.0
2441,81.0,60,48,0.0,80.0
2442,78.0,0,48,0.0,80.0
2443,79.0,60,48,0.0,80.0
2444,82.0,60,48,0.0,80.0
2445,70.0,0,192,0.0,80.0
2446,74.0,60,192,0.0,80.0
2447,81.0,60,48,0.0,80.0
2448,78.0,0,48,0.0,80.0
2449,79.0,60,48,0.0,80.0
2450,82.0,60,48,0.0,80.0
2451,74.0,0,192,0.0,80.0
2452,70.0,60,192,0.0,80.0
2453,81.0,60,48,0.0,80.0
2454,84.0,45,15,0.0,80.0
2455,82.0,15,113,0.0,80.0
2456,81.0,120,48,0.0,80.0
2457,74.0,0,192,0.0,80.0
2458,70.0,0,192,0.0,80.0
2459,79.0,60,48,0.0,80.0
2460,86.0,0,48,0.0,80.0
2461,82.0,60,48,0.0,80.0
2462,81.0,60,48,0.0,80.0
2463,74.0,0,192,0.0,80.0
2464,77.0,0,192,0.0,80.0
2465,70.0,60,192,0.0,80.0
2466,77.0,0,15,0.0,80.0
2467,79.0,15,15,0.0,80.0
2468,81.0,15,15,0.0,80.0
2469,79.0,30,24,0.0,80.0
2470,81.0,30,24,0.0,80.0
2471,79.0,30,24,0.0,80.0
2472,81.0,30,24,0.0,80.0
2473,79.0,30,24,0.0,80.0
2474,77.0,30,192,0.0,80.0
2475,72.0,0,192,0.0,80.0
2476,81.0,30,24,0.0,80.0
2477,79.0,30,24,0.0,80.0
2478,81.0,0,24,0.0,80.0
2479,79.0,30,24,0.0,80.0
2480,81.0,30,24,0.0,80.0
2481,79.0,30,24,0.0,80.0
2482,81.0,30,24,0.0,80.0
2483,79.0,30,24,0.0,80.0
2484,76.0,30,192,0.0,80.0
2485,81.0,30,24,0.0,80.0
2486,79.0,30,24,0.0,80.0
2487,41.0,0,48,0.0,80.0
2488,45.0,60,48,0.0,80.0
2489,48.0,60,48,0.0,80.0
2490,77.0,0,192,0.0,80.0
2491,69.0,0,192,0.0,80.0
2492,72.0,30,192,0.0,80.0
2493,53.0,60,48,0.0,80.0
2494,57.0,60,96,0.0,80.0
2495,64.0,60,48,0.0,80.0
2496,65.0,60,48,0.0,80.0
2497,67.0,60,48,0.0,80.0
2498,70.0,45,15,0.0,80.0
2499,69.0,15,96,0.0,80.0
2500,67.0,120,48,0.0,80.0
2501,65.0,60,48,0.0,80.0
2502,43.0,60,48,0.0,80.0
2503,46.0,60,48,0.0,80.0
2504,52.0,60,48,0.0,80.0
2505,64.0,0,192,0.0,80.0
2506,55.0,60,48,0.0,80.0
2507,58.0,60,96,0.0,80.0
2508,66.0,60,48,0.0,80.0
2509,67.0,60,48,0.0,80.0
2510,69.0,60,48,0.0,80.0
2511,72.0,45,15,0.0,80.0
2512,70.0,15,96,0.0,80.0
2513,69.0,120,48,0.0,80.0
2514,67.0,60,48,0.0,80.0
2515,45.0,0,48,0.0,80.0
2516,48.0,60,48,0.0,80.0
2517,53.0,60,48,0.0,80.0
2518,65.0,60,192,0.0,80.0
2519,57.0,60,48,0.0,80.0
2520,60.0,60,96,0.0,80.0
2521,68.0,60,48,0.0,80.0
2522,69.0,60,48,0.0,80.0
2523,70.0,60,48,0.0,80.0
2524,74.0,45,15,0.0,80.0
2525,72.0,15,96,0.0,80.0
2526,70.0,120,48,0.0,80.0
2527,69.0,60,48,0.0,80.0
2528,46.0,60,48,0.0,80.0
2529,50.0,60,48,0.0,80.0
2530,55.0,60,48,0.0,80.0
2531,67.0,0,192,0.0,80.0
2532,58.0,60,48,0.0,80.0
2533,62.0,60,48,0.0,80.0
2534,55.0,60,48,0.0,80.0
2535,58.0,60,48,0.0,80.0
2536,62.0,60,48,0.0,80.0
2537,46.0,60,48,0.0,80.0
2538,67.0,0,96,0.0,80.0
2539,50.0,60,48,0.0,80.0
2540,55.0,60,48,0.0,80.0
2541,58.0,120,96,0.0,80.0
2542,62.0,60,48,0.0,80.0
2543,67.0,60,48,0.0,80.0
2544,70.0,60,48,0.0,80.0
2545,74.0,60,96,0.0,80.0
2546,58.0,60,48,0.0,80.0
2547,62.0,60,48,0.0,80.0
2548,67.0,60,48,0.0,80.0
2549,70.0,60,96,0.0,80.0
2550,76.0,60,48,0.0,80.0
2551,77.0,60,48,0.0,80.0
2552,73.0,60,48,0.0,80.0
2553,74.0,60,48,0.0,80.0
2554,69.0,60,48,0.0,80.0
2555,70.0,60,48,0.0,80.0
2556,67.0,60,48,0.0,80.0
2557,65.0,0,24,0.0,80.0
2558,67.0,30,24,0.0,80.0
2559,69.0,30,24,0.0,80.0
2560,67.0,30,24,0.0,80.0
2561,69.0,30,24,0.0,80.0
2562,67.0,30,24,0.0,80.0
2563,48.0,60,192,0.0,80.0
2564,53.0,0,192,0.0,80.0
2565,69.0,30,24,0.0,80.0
2566,67.0,30,24,0.0,80.0
2567,69.0,30,24,0.0,80.0
2568,67.0,30,24,0.0,80.0
2569,69.0,30,24,0.0,80.0
2570,67.0,30,24,0.0,80.0
2571,69.0,30,24,0.0,80.0
2572,67.0,30,24,0.0,80.0
2573,52.0,0,192,0.0,80.0
2574,69.0,30,24,0.0,80.0
2575,67.0,30,24,0.0,80.0
2576,53.0,30,48,0.0,80.0
2577,65.0,0,96,0.0,80.0
2578,60.0,60,48,0.0,80.0
2579,57.0,60,48,0.0,80.0
2580,69.0,0,96,0.0,80.0
2581,60.0,60,48,0.0,80.0
2582,53.0,60,48,0.0,80.0
2583,60.0,60,48,0.0,80.0
2584,57.0,60,48,0.0,80.0
2585,72.0,0,192,0.0,80.0
2586,60.0,60,48,0.0,80.0
2587,76.0,60,24,0.0,80.0
2588,48.0,0,48,0.0,80.0
2589,77.0,30,24,0.0,80.0
2590,76.0,0,24,0.0,80.0
2591,58.0,30,48,0.0,80.0
2592,77.0,30,24,0.0,80.0
2593,76.0,0,24,0.0,80.0
2594,55.0,30,48,0.0,80.0
2595,77.0,30,24,0.0,80.0
2596,74.0,0,24,0.0,80.0
2597,58.0,30,48,0.0,80.0
2598,76.0,30,24,0.0,80.0
2599,53.0,30,48,0.0,80.0
2600,77.0,0,96,0.0,80.0
2601,60.0,60,48,0.0,80.0
2602,57.0,0,48,0.0,80.0
2603,69.0,60,96,0.0,80.0
2604,60.0,60,48,0.0,80.0
2605,53.0,0,48,0.0,80.0
2606,60.0,60,48,0.0,80.0
2607,57.0,60,48,0.0,80.0
2608,72.0,60,192,0.0,80.0
2609,60.0,60,48,0.0,80.0
2610,76.0,0,24,0.0,80.0
2611,48.0,60,48,0.0,80.0
2612,77.0,30,24,0.0,80.0
2613,76.0,0,24,0.0,80.0
2614,58.0,30,48,0.0,80.0
2615,77.0,30,24,0.0,80.0
2616,76.0,0,24,0.0,80.0
2617,55.0,30,48,0.0,80.0
2618,77.0,30,24,0.0,80.0
2619,74.0,0,24,0.0,80.0
2620,58.0,30,48,0.0,80.0
2621,76.0,30,24,0.0,80.0
2622,77.0,30,192,0.0,80.0
2623,57.0,0,192,0.0,80.0
2624,53.0,0,192,0.0,80.0
2625,53.0,0,192,0.0,80.0
2626,57.0,0,192,0.0,80.0
2627,41.0,240,192,0.0,80.0
2628,65.0,0,192,0.0,80.0
2629,60.0,0,192,0.0,80.0
