,note,step,duration,channel,velocity
0,60.0,0,96,6.0,70.0
1,76.0,0,132,5.0,76.0
2,64.0,240,96,6.0,70.0
3,67.0,240,96,6.0,70.0
4,76.0,0,140,5.0,75.0
5,64.0,240,96,6.0,70.0
6,60.0,0,96,6.0,70.0
7,55.0,240,96,6.0,70.0
8,60.0,0,396,7.0,70.0
9,60.0,240,96,6.0,70.0
10,55.0,240,96,6.0,70.0
11,76.0,240,924,5.0,74.0
12,62.0,240,96,6.0,70.0
13,79.0,0,300,5.0,70.0
14,55.0,240,96,6.0,70.0
15,77.0,0,116,5.0,70.0
16,55.0,0,380,7.0,70.0
17,62.0,0,96,6.0,70.0
18,76.0,240,308,5.0,70.0
19,55.0,0,96,6.0,70.0
20,77.0,240,140,5.0,70.0
21,64.0,240,96,6.0,70.0
22,79.0,0,300,5.0,70.0
23,60.0,240,96,6.0,70.0
24,76.0,0,148,5.0,70.0
25,64.0,0,96,6.0,70.0
26,72.0,240,228,5.0,70.0
27,67.0,240,96,6.0,70.0
28,48.0,0,852,7.0,70.0
29,64.0,240,96,6.0,70.0
30,60.0,240,96,6.0,70.0
31,64.0,240,96,6.0,70.0
32,84.0,0,796,5.0,70.0
33,60.0,0,96,6.0,70.0
34,83.0,240,148,5.0,70.0
35,65.0,240,96,6.0,70.0
36,83.0,0,316,5.0,70.0
37,60.0,0,96,6.0,70.0
38,81.0,240,276,5.0,70.0
39,64.0,240,96,6.0,70.0
40,79.0,0,164,5.0,70.0
41,60.0,240,96,6.0,70.0
42,60.0,0,844,7.0,70.0
43,64.0,0,96,6.0,70.0
44,60.0,240,96,6.0,70.0
45,64.0,240,96,6.0,70.0
46,84.0,240,796,5.0,70.0
47,60.0,240,96,6.0,70.0
48,83.0,0,148,5.0,70.0
49,65.0,0,96,6.0,70.0
50,83.0,240,308,5.0,70.0
51,60.0,0,96,6.0,70.0
52,81.0,240,292,5.0,70.0
53,64.0,240,96,6.0,70.0
54,79.0,0,204,5.0,70.0
55,65.0,240,96,6.0,70.0
56,48.0,0,828,7.0,70.0
57,72.0,0,164,5.0,70.0
58,67.0,240,240,6.0,70.0
59,65.0,240,240,6.0,70.0
60,72.0,240,132,5.0,70.0
61,64.0,0,240,6.0,70.0
62,62.0,240,240,6.0,70.0
63,60.0,0,240,6.0,70.0
64,64.0,240,240,6.0,70.0
65,67.0,240,240,6.0,70.0
66,72.0,0,892,5.0,70.0
67,72.0,240,240,6.0,70.0
68,52.0,240,1028,7.0,70.0
69,59.0,0,240,6.0,70.0
70,76.0,0,292,5.0,70.0
71,74.0,0,140,5.0,70.0
72,62.0,240,240,6.0,70.0
73,67.0,240,240,6.0,70.0
74,72.0,0,300,5.0,70.0
75,55.0,240,788,7.0,70.0
76,74.0,0,148,5.0,70.0
77,71.0,240,240,6.0,70.0
78,76.0,0,164,5.0,70.0
79,60.0,0,240,6.0,70.0
80,64.0,240,240,6.0,70.0
81,76.0,0,156,5.0,70.0
82,67.0,240,240,6.0,70.0
83,72.0,240,240,6.0,70.0
84,60.0,240,1052,7.0,70.0
85,62.0,0,240,6.0,70.0
86,79.0,240,284,5.0,70.0
87,77.0,240,124,5.0,70.0
88,67.0,0,240,6.0,70.0
89,71.0,0,240,6.0,70.0
90,76.0,240,316,5.0,70.0
91,55.0,0,820,7.0,70.0
92,77.0,0,156,5.0,70.0
93,74.0,240,240,6.0,70.0
94,79.0,0,148,5.0,70.0
95,64.0,240,240,6.0,70.0
96,48.0,0,480,7.0,70.0
97,67.0,240,240,6.0,70.0
98,79.0,240,140,5.0,70.0
99,72.0,0,240,6.0,70.0
100,76.0,240,240,6.0,70.0
101,77.0,0,240,6.0,70.0
102,81.0,240,308,5.0,70.0
103,79.0,0,124,5.0,70.0
104,60.0,0,480,7.0,70.0
105,76.0,240,240,6.0,70.0
106,74.0,0,96,6.0,70.0
107,77.0,240,96,5.0,70.0
108,76.0,240,96,5.0,70.0
109,72.0,0,96,6.0,70.0
110,48.0,0,480,7.0,70.0
111,67.0,0,240,6.0,70.0
112,72.0,240,240,6.0,70.0
113,76.0,240,572,5.0,70.0
114,71.0,0,240,6.0,70.0
115,74.0,240,340,5.0,70.0
116,69.0,240,240,6.0,70.0
117,55.0,0,960,7.0,70.0
118,67.0,0,240,6.0,70.0
119,72.0,230,404,1.0,84.0
120,64.0,0,396,2.0,65.0
121,55.0,10,396,2.0,65.0
122,76.0,0,428,0.0,84.0
123,65.0,240,240,6.0,70.0
124,64.0,0,240,6.0,70.0
125,72.0,0,396,1.0,84.0
126,55.0,10,388,2.0,65.0
127,64.0,0,412,2.0,65.0
128,76.0,230,428,0.0,84.0
129,62.0,240,240,6.0,70.0
130,72.0,0,96,5.0,70.0
131,60.0,0,96,6.0,70.0
132,55.0,240,96,6.0,70.0
133,67.0,0,96,5.0,70.0
134,48.0,10,372,10.0,70.0
135,60.0,0,372,8.0,70.0
136,60.0,240,96,6.0,70.0
137,72.0,0,96,5.0,70.0
138,55.0,0,96,6.0,70.0
139,67.0,240,96,5.0,70.0
140,76.0,0,852,0.0,84.0
141,72.0,230,860,1.0,84.0
142,64.0,0,892,2.0,65.0
143,60.0,0,900,2.0,65.0
144,71.0,10,96,5.0,70.0
145,59.0,0,96,6.0,70.0
146,79.0,0,284,0.0,83.0
147,76.0,230,292,1.0,83.0
148,64.0,0,284,2.0,64.0
149,67.0,0,292,2.0,64.0
150,67.0,0,96,5.0,70.0
151,55.0,0,96,6.0,70.0
152,55.0,0,404,8.0,70.0
153,43.0,0,404,10.0,70.0
154,74.0,0,188,1.0,83.0
155,77.0,230,196,0.0,83.0
156,65.0,0,188,2.0,64.0
157,62.0,10,196,2.0,64.0
158,71.0,0,96,5.0,70.0
159,59.0,0,96,6.0,70.0
160,76.0,0,292,0.0,82.0
161,64.0,0,284,2.0,63.0
162,72.0,230,300,1.0,82.0
163,60.0,10,292,2.0,63.0
164,67.0,10,96,5.0,70.0
165,55.0,0,96,6.0,70.0
166,74.0,230,204,1.0,96.0
167,77.0,0,212,0.0,96.0
168,62.0,0,204,2.0,63.0
169,65.0,0,212,2.0,63.0
170,60.0,10,96,6.0,70.0
171,72.0,0,96,5.0,70.0
172,79.0,230,300,0.0,114.0
173,76.0,10,96,5.0,70.0
174,64.0,0,96,6.0,70.0
175,76.0,230,240,0.0,127.0
176,67.0,0,480,2.0,63.0
177,64.0,0,480,2.0,63.0
178,67.0,0,96,6.0,70.0
179,79.0,10,96,5.0,70.0
180,76.0,0,96,5.0,70.0
181,64.0,240,96,6.0,70.0
182,48.0,0,836,8.0,70.0
183,36.0,0,836,10.0,70.0
184,72.0,230,480,0.0,82.0
185,60.0,10,308,6.0,81.0
186,72.0,0,480,5.0,70.0
187,59.0,240,308,6.0,70.0
188,76.0,0,660,1.0,100.0
189,84.0,230,668,0.0,100.0
190,60.0,240,308,6.0,70.0
191,83.0,0,188,0.0,99.0
192,59.0,10,180,6.0,70.0
193,79.0,230,196,1.0,99.0
194,79.0,0,276,1.0,98.0
195,83.0,230,284,0.0,98.0
196,72.0,10,308,5.0,70.0
197,60.0,0,308,6.0,70.0
198,60.0,0,1440,2.0,85.0
199,48.0,0,1440,2.0,85.0
200,77.0,0,284,1.0,98.0
201,81.0,230,284,0.0,98.0
202,71.0,10,308,5.0,70.0
203,72.0,10,308,5.0,70.0
204,36.0,0,844,10.0,70.0
205,48.0,0,844,8.0,70.0
206,71.0,240,148,5.0,70.0
207,76.0,230,420,1.0,100.0
208,79.0,0,428,0.0,100.0
209,60.0,0,308,6.0,81.0
210,72.0,0,480,5.0,70.0
211,59.0,240,308,6.0,70.0
212,76.0,0,652,1.0,100.0
213,84.0,230,660,0.0,100.0
214,60.0,240,308,6.0,70.0
215,79.0,0,180,1.0,93.0
216,83.0,230,180,0.0,93.0
217,59.0,10,172,6.0,70.0
218,83.0,0,276,0.0,94.0
219,79.0,230,284,1.0,94.0
220,84.0,10,308,5.0,70.0
221,60.0,0,372,6.0,70.0
222,60.0,0,1440,2.0,70.0
223,48.0,10,1440,2.0,70.0
224,81.0,0,292,0.0,96.0
225,77.0,230,300,1.0,96.0
226,83.0,10,308,5.0,70.0
227,84.0,10,308,5.0,70.0
228,83.0,240,140,5.0,70.0
229,79.0,0,412,0.0,98.0
230,36.0,0,884,10.0,70.0
231,48.0,0,884,8.0,70.0
232,76.0,230,420,1.0,98.0
233,52.0,0,396,2.0,70.0
234,60.0,10,396,2.0,70.0
235,72.0,230,420,0.0,97.0
236,67.0,0,428,1.0,97.0
237,84.0,0,480,5.0,70.0
238,52.0,0,388,2.0,70.0
239,67.0,470,420,1.0,96.0
240,72.0,0,420,0.0,96.0
241,60.0,10,412,2.0,70.0
242,64.0,0,308,6.0,86.0
243,67.0,240,188,6.0,70.0
244,79.0,240,292,5.0,87.0
245,76.0,240,148,5.0,70.0
246,52.0,0,892,2.0,70.0
247,60.0,0,892,2.0,70.0
248,72.0,0,908,0.0,95.0
249,67.0,470,908,1.0,95.0
250,48.0,0,1068,8.0,70.0
251,36.0,10,1068,10.0,70.0
252,72.0,230,292,1.0,100.0
253,64.0,0,284,2.0,70.0
254,76.0,0,300,0.0,100.0
255,60.0,0,300,2.0,70.0
256,62.0,10,340,6.0,84.0
257,55.0,0,148,2.0,70.0
258,74.0,230,172,0.0,100.0
259,62.0,0,172,2.0,70.0
260,65.0,10,180,6.0,70.0
261,71.0,0,196,1.0,100.0
262,69.0,0,276,1.0,97.0
263,72.0,230,284,0.0,97.0
264,60.0,0,292,2.0,70.0
265,77.0,10,300,5.0,87.0
266,43.0,0,852,10.0,70.0
267,55.0,0,852,8.0,70.0
268,74.0,0,140,5.0,70.0
269,74.0,230,180,0.0,95.0
270,71.0,0,180,1.0,95.0
271,55.0,0,412,2.0,70.0
272,62.0,10,180,2.0,70.0
273,60.0,10,308,6.0,84.0
274,60.0,0,356,2.0,70.0
275,72.0,230,388,1.0,96.0
276,64.0,0,380,2.0,70.0
277,76.0,0,420,0.0,96.0
278,64.0,240,180,6.0,70.0
279,76.0,0,300,5.0,80.0
280,72.0,240,140,5.0,70.0
281,72.0,0,404,1.0,104.0
282,60.0,10,396,2.0,70.0
283,76.0,230,412,0.0,104.0
284,64.0,0,404,2.0,70.0
285,48.0,0,1044,10.0,70.0
286,60.0,0,1044,8.0,70.0
287,79.0,0,268,0.0,105.0
288,76.0,230,268,1.0,105.0
289,64.0,0,292,2.0,70.0
290,67.0,0,300,2.0,70.0
291,59.0,0,316,6.0,82.0
292,62.0,0,172,2.0,70.0
293,62.0,10,172,6.0,70.0
294,77.0,230,188,0.0,105.0
295,65.0,0,180,2.0,70.0
296,74.0,0,204,1.0,105.0
297,76.0,230,292,0.0,101.0
298,72.0,0,300,1.0,101.0
299,64.0,0,292,2.0,70.0
300,60.0,0,300,2.0,70.0
301,74.0,10,332,5.0,85.0
302,55.0,0,860,8.0,70.0
303,43.0,10,860,10.0,70.0
304,71.0,10,156,5.0,70.0
305,77.0,230,172,0.0,100.0
306,62.0,0,172,2.0,70.0
307,65.0,0,172,2.0,70.0
308,74.0,0,188,1.0,100.0
309,72.0,0,300,5.0,70.0
310,55.0,10,316,6.0,70.0
311,79.0,230,404,0.0,100.0
312,76.0,0,412,1.0,100.0
313,64.0,0,316,6.0,70.0
314,67.0,240,356,5.0,70.0
315,64.0,10,332,5.0,70.0
316,60.0,0,340,6.0,70.0
317,67.0,0,156,5.0,70.0
318,64.0,240,156,6.0,70.0
319,67.0,0,892,2.0,70.0
320,76.0,0,428,0.0,100.0
321,72.0,230,428,1.0,100.0
322,64.0,0,908,2.0,70.0
323,40.0,0,1044,10.0,70.0
324,52.0,0,1044,8.0,70.0
325,76.0,230,292,1.0,94.0
326,79.0,0,300,0.0,94.0
327,67.0,10,292,2.0,70.0
328,64.0,0,300,2.0,70.0
329,67.0,0,316,5.0,70.0
330,64.0,0,316,6.0,70.0
331,77.0,0,172,0.0,96.0
332,74.0,230,180,1.0,96.0
333,62.0,10,172,2.0,70.0
334,65.0,0,172,2.0,70.0
335,65.0,0,324,5.0,70.0
336,62.0,0,340,6.0,70.0
337,55.0,0,196,2.0,70.0
338,72.0,230,284,1.0,100.0
339,76.0,0,292,0.0,100.0
340,64.0,0,300,2.0,70.0
341,64.0,0,316,5.0,70.0
342,60.0,10,332,6.0,70.0
343,74.0,230,164,0.0,103.0
344,71.0,0,164,1.0,103.0
345,43.0,0,884,10.0,70.0
346,55.0,0,884,8.0,70.0
347,59.0,0,164,6.0,70.0
348,62.0,10,180,5.0,70.0
349,62.0,0,188,2.0,70.0
350,55.0,0,196,2.0,70.0
351,36.0,0,188,10.0,105.0
352,48.0,10,188,8.0,105.0
353,64.0,0,204,7.0,105.0
354,50.0,0,188,8.0,105.0
355,38.0,0,188,10.0,105.0
356,65.0,240,196,7.0,105.0
357,72.0,230,480,0.0,105.0
358,60.0,0,480,6.0,105.0
359,60.0,0,480,2.0,105.0
360,52.0,0,480,2.0,105.0
361,60.0,0,480,5.0,105.0
362,40.0,0,188,10.0,105.0
363,52.0,240,188,8.0,105.0
364,67.0,0,188,7.0,105.0
365,72.0,0,164,6.0,105.0
366,65.0,0,164,7.0,105.0
367,84.0,0,172,5.0,105.0
368,38.0,240,188,10.0,105.0
369,50.0,0,188,8.0,105.0
370,72.0,0,164,6.0,105.0
371,84.0,0,164,5.0,105.0
372,36.0,0,188,10.0,105.0
373,48.0,0,188,8.0,105.0
374,64.0,240,196,7.0,105.0
375,84.0,0,140,5.0,105.0
376,72.0,0,172,6.0,105.0
377,50.0,0,188,8.0,105.0
378,38.0,0,188,10.0,105.0
379,65.0,240,196,7.0,105.0
380,72.0,0,148,6.0,105.0
381,84.0,0,148,5.0,105.0
382,40.0,0,188,10.0,105.0
383,52.0,240,188,8.0,105.0
384,67.0,0,196,7.0,105.0
385,69.0,0,156,7.0,105.0
386,72.0,0,156,6.0,105.0
387,84.0,0,164,5.0,105.0
388,53.0,0,188,8.0,105.0
389,41.0,240,188,10.0,105.0
390,83.0,0,132,5.0,105.0
391,71.0,0,132,6.0,103.0
392,43.0,240,188,10.0,105.0
393,55.0,0,188,8.0,105.0
394,62.0,0,188,7.0,105.0
395,72.0,60,140,6.0,108.0
396,84.0,0,156,5.0,109.0
397,74.0,0,252,6.0,109.0
398,60.0,0,172,7.0,105.0
399,45.0,0,188,10.0,105.0
400,57.0,120,188,8.0,105.0
401,86.0,60,360,5.0,115.0
402,47.0,0,188,10.0,105.0
403,59.0,0,188,8.0,105.0
404,62.0,240,196,7.0,105.0
405,77.0,0,172,5.0,105.0
406,45.0,240,188,10.0,105.0
407,57.0,0,188,8.0,105.0
408,65.0,0,188,6.0,105.0
409,60.0,0,188,7.0,105.0
410,77.0,0,140,5.0,105.0
411,65.0,0,148,6.0,105.0
412,59.0,240,180,7.0,105.0
413,55.0,0,188,8.0,105.0
414,43.0,0,188,10.0,105.0
415,65.0,0,148,6.0,105.0
416,77.0,240,148,5.0,105.0
417,60.0,0,180,7.0,105.0
418,45.0,0,188,10.0,105.0
419,57.0,0,188,8.0,105.0
420,77.0,0,148,5.0,105.0
421,65.0,0,156,6.0,105.0
422,62.0,240,172,7.0,105.0
423,47.0,0,188,10.0,105.0
424,59.0,0,188,8.0,105.0
425,77.0,240,124,5.0,105.0
426,65.0,0,140,6.0,105.0
427,59.0,0,188,7.0,105.0
428,43.0,0,188,10.0,105.0
429,55.0,0,188,8.0,105.0
430,76.0,0,108,5.0,105.0
431,64.0,0,124,6.0,106.0
432,77.0,60,124,5.0,110.0
433,48.0,0,188,10.0,105.0
434,60.0,0,188,8.0,105.0
435,65.0,0,148,6.0,107.0
436,67.0,60,260,6.0,111.0
437,67.0,10,412,7.0,105.0
438,55.0,0,412,7.0,105.0
439,64.0,120,188,8.0,105.0
440,52.0,0,188,10.0,105.0
441,79.0,0,360,5.0,115.0
442,60.0,240,188,8.0,105.0
443,48.0,0,188,10.0,105.0
444,84.0,240,156,5.0,105.0
445,72.0,0,164,6.0,105.0
446,43.0,0,188,10.0,105.0
447,55.0,0,188,8.0,105.0
448,84.0,0,132,5.0,105.0
449,72.0,0,156,6.0,105.0
450,40.0,0,188,10.0,105.0
451,52.0,240,188,8.0,105.0
452,67.0,0,828,7.0,105.0
453,84.0,0,132,5.0,105.0
454,55.0,0,868,7.0,105.0
455,55.0,0,188,8.0,105.0
456,72.0,240,188,6.0,105.0
457,43.0,0,188,10.0,105.0
458,84.0,0,132,5.0,105.0
459,72.0,0,180,6.0,105.0
460,40.0,0,188,10.0,105.0
461,52.0,240,188,8.0,105.0
462,84.0,0,132,5.0,105.0
463,72.0,0,172,6.0,105.0
464,60.0,0,1852,2.0,105.0
465,64.0,0,1868,2.0,105.0
466,48.0,0,188,8.0,105.0
467,36.0,240,188,10.0,105.0
468,76.0,0,2012,1.0,105.0
469,71.0,0,132,6.0,108.0
470,83.0,10,140,5.0,104.0
471,31.0,0,188,10.0,105.0
472,43.0,0,188,8.0,105.0
473,72.0,0,148,6.0,112.0
474,84.0,60,172,5.0,107.0
475,74.0,60,244,6.0,117.0
476,67.0,0,868,7.0,105.0
477,55.0,0,892,7.0,105.0
478,35.0,120,188,10.0,105.0
479,47.0,0,188,8.0,105.0
480,86.0,0,360,5.0,111.0
481,50.0,0,188,8.0,105.0
482,38.0,0,188,10.0,105.0
483,77.0,0,140,5.0,105.0
484,65.0,240,172,6.0,105.0
485,55.0,0,188,8.0,105.0
486,43.0,0,188,10.0,105.0
487,77.0,0,156,5.0,105.0
488,65.0,240,180,6.0,105.0
489,47.0,0,188,10.0,105.0
490,59.0,0,188,8.0,105.0
491,77.0,0,140,5.0,105.0
492,65.0,240,164,6.0,105.0
493,55.0,0,892,7.0,105.0
494,67.0,240,892,7.0,105.0
495,62.0,0,188,8.0,105.0
496,50.0,0,188,10.0,105.0
497,77.0,0,156,5.0,105.0
498,65.0,240,164,6.0,105.0
499,47.0,0,188,10.0,105.0
500,59.0,0,188,8.0,105.0
501,67.0,0,388,7.0,105.0
502,77.0,0,148,5.0,105.0
503,77.0,230,1844,1.0,105.0
504,79.0,230,3764,0.0,105.0
505,62.0,0,1836,2.0,105.0
506,55.0,0,1836,2.0,105.0
507,55.0,0,404,7.0,105.0
508,65.0,0,180,6.0,105.0
509,43.0,240,188,10.0,105.0
510,55.0,0,188,8.0,105.0
511,64.0,0,76,6.0,105.0
512,60.0,120,76,6.0,105.0
513,76.0,0,212,5.0,95.0
514,79.0,0,276,0.0,105.0
515,76.0,230,276,1.0,105.0
516,60.0,0,316,2.0,105.0
517,60.0,120,76,6.0,105.0
518,64.0,0,324,2.0,105.0
519,60.0,0,388,8.0,105.0
520,48.0,10,388,10.0,105.0
521,55.0,0,412,7.0,105.0
522,67.0,0,420,7.0,105.0
523,60.0,120,76,6.0,105.0
524,60.0,10,76,6.0,105.0
525,60.0,120,76,6.0,105.0
526,60.0,120,76,6.0,105.0
527,60.0,120,76,6.0,105.0
528,60.0,120,76,6.0,105.0
529,60.0,120,76,6.0,105.0
530,60.0,120,76,6.0,105.0
531,77.0,0,812,5.0,105.0
532,57.0,0,820,8.0,105.0
533,45.0,0,820,10.0,105.0
534,69.0,0,876,7.0,105.0
535,60.0,120,76,6.0,105.0
536,60.0,10,76,6.0,80.0
537,77.0,110,1052,0.0,112.0
538,67.0,0,192,7.0,80.0
539,43.0,0,192,10.0,80.0
540,55.0,0,192,8.0,80.0
541,76.0,0,192,5.0,80.0
542,60.0,120,76,6.0,80.0
543,60.0,120,76,6.0,80.0
544,60.0,0,1292,2.0,105.0
545,48.0,0,1316,2.0,105.0
546,76.0,110,404,0.0,95.0
547,60.0,120,76,6.0,80.0
548,60.0,0,76,6.0,70.0
549,65.0,0,192,7.0,70.0
550,41.0,0,192,10.0,70.0
551,81.0,0,192,5.0,70.0
552,53.0,0,192,8.0,70.0
553,60.0,120,76,6.0,70.0
554,60.0,120,76,6.0,70.0
555,60.0,120,76,6.0,70.0
556,60.0,120,76,6.0,70.0
557,40.0,0,192,10.0,70.0
558,64.0,0,192,7.0,70.0
559,79.0,0,192,5.0,70.0
560,52.0,0,192,8.0,70.0
561,60.0,120,76,6.0,70.0
562,60.0,120,76,6.0,70.0
563,60.0,120,76,6.0,70.0
564,60.0,0,76,6.0,70.0
565,69.0,0,192,7.0,70.0
566,77.0,120,192,5.0,70.0
567,57.0,0,192,8.0,70.0
568,45.0,0,192,10.0,70.0
569,60.0,120,76,6.0,70.0
570,60.0,120,76,6.0,70.0
571,60.0,120,76,6.0,70.0
572,60.0,0,76,6.0,70.0
573,55.0,0,192,8.0,70.0
574,43.0,0,192,10.0,70.0
575,67.0,120,192,7.0,70.0
576,76.0,0,192,5.0,70.0
577,60.0,120,76,6.0,70.0
578,60.0,120,76,6.0,70.0
579,60.0,0,1852,2.0,70.0
580,48.0,120,1852,2.0,70.0
581,60.0,120,76,6.0,70.0
582,60.0,0,76,6.0,90.0
583,60.0,120,76,6.0,90.0
584,74.0,0,212,5.0,81.0
585,60.0,0,276,2.0,70.0
586,48.0,0,308,2.0,70.0
587,60.0,120,76,6.0,90.0
588,65.0,120,324,7.0,70.0
589,41.0,0,380,10.0,70.0
590,53.0,0,380,8.0,70.0
591,60.0,120,76,6.0,90.0
592,60.0,0,76,6.0,90.0
593,60.0,120,76,6.0,90.0
594,60.0,120,76,6.0,90.0
595,60.0,120,76,6.0,90.0
596,60.0,120,76,6.0,90.0
597,60.0,120,76,6.0,90.0
598,60.0,120,76,6.0,90.0
599,77.0,0,820,5.0,105.0
600,69.0,0,860,7.0,105.0
601,45.0,0,876,10.0,105.0
602,57.0,0,876,8.0,105.0
603,60.0,120,76,6.0,90.0
604,60.0,0,76,6.0,80.0
605,77.0,110,1060,0.0,97.0
606,67.0,10,192,7.0,80.0
607,43.0,0,192,10.0,80.0
608,55.0,0,192,8.0,80.0
609,76.0,0,192,5.0,80.0
610,60.0,120,76,6.0,80.0
611,60.0,120,76,6.0,80.0
612,76.0,110,388,0.0,70.0
613,60.0,120,76,6.0,80.0
614,60.0,10,1396,2.0,105.0
615,48.0,0,1404,2.0,105.0
616,60.0,0,76,6.0,70.0
617,41.0,0,192,10.0,70.0
618,81.0,120,192,5.0,70.0
619,65.0,0,192,7.0,70.0
620,53.0,0,192,8.0,70.0
621,60.0,120,76,6.0,70.0
622,60.0,120,76,6.0,70.0
623,60.0,120,76,6.0,70.0
624,60.0,0,76,6.0,70.0
625,64.0,0,192,7.0,70.0
626,79.0,0,192,5.0,70.0
627,52.0,0,192,8.0,70.0
628,40.0,120,192,10.0,70.0
629,60.0,120,76,6.0,70.0
630,60.0,120,76,6.0,70.0
631,60.0,120,76,6.0,70.0
632,60.0,0,76,6.0,70.0
633,45.0,0,192,10.0,70.0
634,77.0,120,192,5.0,70.0
635,69.0,0,192,7.0,70.0
636,57.0,0,192,8.0,70.0
637,60.0,120,76,6.0,70.0
638,60.0,120,76,6.0,70.0
639,60.0,120,76,6.0,70.0
640,60.0,0,76,6.0,70.0
641,67.0,120,192,7.0,70.0
642,76.0,0,192,5.0,70.0
643,43.0,0,192,10.0,70.0
644,55.0,0,192,8.0,70.0
645,60.0,120,76,6.0,70.0
646,60.0,120,76,6.0,70.0
647,60.0,120,76,6.0,70.0
648,60.0,0,348,6.0,70.0
649,74.0,0,480,5.0,70.0
650,57.0,240,324,6.0,70.0
651,60.0,240,308,6.0,70.0
652,57.0,240,164,6.0,70.0
653,76.0,120,196,5.0,82.0
654,60.0,120,332,6.0,70.0
655,74.0,0,480,5.0,70.0
656,57.0,240,324,6.0,70.0
657,60.0,240,332,6.0,70.0
658,57.0,240,156,6.0,70.0
659,76.0,120,180,5.0,80.0
660,41.0,0,1988,10.0,70.0
661,53.0,0,1988,8.0,70.0
662,60.0,120,324,6.0,70.0
663,74.0,0,480,5.0,70.0
664,57.0,240,340,6.0,70.0
665,60.0,240,324,6.0,70.0
666,57.0,240,180,6.0,70.0
667,76.0,120,204,5.0,80.0
668,60.0,0,332,6.0,70.0
669,74.0,120,480,5.0,70.0
670,57.0,240,324,6.0,70.0
671,60.0,240,332,6.0,70.0
672,54.0,0,1812,8.0,70.0
673,42.0,0,1812,10.0,70.0
674,69.0,120,3756,7.0,70.0
675,57.0,240,156,6.0,70.0
676,48.0,0,5708,2.0,70.0
677,60.0,0,5708,2.0,70.0
678,76.0,120,204,5.0,84.0
679,55.0,0,96,6.0,70.0
680,62.0,240,96,6.0,70.0
681,55.0,10,364,2.0,70.0
682,55.0,0,428,8.0,70.0
683,43.0,0,428,10.0,70.0
684,74.0,0,480,5.0,70.0
685,71.0,0,480,7.0,70.0
686,59.0,240,96,6.0,70.0
687,62.0,240,96,6.0,70.0
688,55.0,240,96,6.0,70.0
689,62.0,240,96,6.0,70.0
690,59.0,240,96,6.0,70.0
691,62.0,240,96,6.0,70.0
692,74.0,110,1836,0.0,89.0
693,71.0,0,2004,1.0,89.0
694,55.0,10,96,6.0,70.0
695,62.0,240,96,6.0,70.0
696,59.0,240,96,6.0,70.0
697,62.0,240,96,6.0,70.0
698,55.0,240,96,6.0,70.0
699,62.0,240,96,6.0,70.0
700,59.0,240,96,6.0,70.0
701,62.0,240,96,6.0,70.0
702,74.0,230,1836,1.0,95.0
703,77.0,0,1844,0.0,95.0
704,76.0,0,356,0.0,90.0
705,72.0,230,364,1.0,90.0
706,36.0,0,192,10.0,70.0
707,48.0,0,192,8.0,70.0
708,60.0,480,192,7.0,70.0
709,79.0,0,1140,5.0,70.0
710,40.0,480,192,10.0,70.0
711,52.0,0,192,8.0,70.0
712,64.0,0,192,7.0,70.0
713,67.0,10,1180,6.0,70.0
714,48.0,0,192,8.0,70.0
715,60.0,0,192,7.0,70.0
716,36.0,0,192,10.0,70.0
717,84.0,480,196,5.0,70.0
718,72.0,0,228,6.0,79.0
719,64.0,0,180,6.0,70.0
720,76.0,120,204,5.0,70.0
721,79.0,360,580,5.0,70.0
722,67.0,0,580,6.0,82.0
723,62.0,480,192,7.0,70.0
724,38.0,0,192,10.0,70.0
725,50.0,0,192,8.0,70.0
726,65.0,0,292,6.0,70.0
727,77.0,0,316,5.0,70.0
728,47.0,0,192,8.0,70.0
729,59.0,480,192,7.0,70.0
730,35.0,0,192,10.0,70.0
731,31.0,0,192,10.0,70.0
732,43.0,480,192,8.0,70.0
733,55.0,0,192,7.0,70.0
734,60.0,0,192,7.0,70.0
735,36.0,0,192,10.0,70.0
736,48.0,480,192,8.0,70.0
737,69.0,480,192,7.0,70.0
738,45.0,0,192,10.0,70.0
739,57.0,0,192,8.0,70.0
740,76.0,480,1172,5.0,70.0
741,64.0,0,1220,6.0,70.0
742,65.0,0,172,6.0,80.0
743,53.0,0,192,8.0,70.0
744,41.0,480,192,10.0,70.0
745,65.0,0,192,7.0,70.0
746,77.0,0,204,5.0,70.0
747,81.0,120,204,5.0,70.0
748,69.0,0,204,6.0,70.0
749,60.0,360,564,6.0,80.0
750,72.0,0,588,5.0,70.0
751,55.0,0,192,8.0,70.0
752,67.0,0,192,7.0,70.0
753,43.0,480,192,10.0,70.0
754,71.0,0,308,5.0,70.0
755,59.0,0,308,6.0,70.0
756,43.0,480,192,8.0,70.0
757,55.0,0,192,7.0,70.0
758,31.0,0,192,10.0,70.0
759,41.0,0,192,10.0,70.0
760,65.0,480,192,7.0,70.0
761,53.0,0,192,8.0,70.0
762,64.0,0,192,7.0,70.0
763,40.0,480,192,10.0,70.0
764,52.0,0,192,8.0,70.0
765,38.0,0,192,10.0,70.0
766,62.0,480,192,7.0,70.0
767,50.0,0,192,8.0,70.0
768,72.0,0,1516,5.0,70.0
769,60.0,480,1524,6.0,70.0
770,48.0,0,192,8.0,70.0
771,36.0,0,192,10.0,70.0
772,60.0,0,192,7.0,70.0
773,74.0,0,324,5.0,70.0
774,62.0,480,332,6.0,70.0
775,64.0,240,140,6.0,70.0
776,76.0,0,140,5.0,70.0
777,69.0,480,192,7.0,70.0
778,57.0,0,192,8.0,70.0
779,45.0,0,192,10.0,70.0
780,67.0,0,192,7.0,70.0
781,55.0,0,192,8.0,70.0
782,43.0,480,192,10.0,70.0
783,77.0,0,1516,5.0,70.0
784,65.0,240,1564,6.0,70.0
785,41.0,0,192,10.0,70.0
786,65.0,0,192,7.0,70.0
787,53.0,480,192,8.0,70.0
788,67.0,0,332,6.0,70.0
789,79.0,0,340,5.0,70.0
790,69.0,240,132,6.0,70.0
791,81.0,0,172,5.0,70.0
792,40.0,0,228,10.0,70.0
793,52.0,240,228,8.0,70.0
794,64.0,0,388,7.0,70.0
795,67.0,0,588,6.0,70.0
796,79.0,0,604,5.0,70.0
797,45.0,0,172,10.0,70.0
798,57.0,480,172,8.0,70.0
799,72.0,0,300,5.0,70.0
800,60.0,0,308,6.0,70.0
801,53.0,0,236,8.0,70.0
802,41.0,0,236,10.0,70.0
803,62.0,0,604,6.0,70.0
804,74.0,480,620,5.0,70.0
805,60.0,0,1100,7.0,70.0
806,55.0,0,188,8.0,70.0
807,43.0,0,188,10.0,70.0
808,65.0,480,292,6.0,70.0
809,77.0,0,324,5.0,70.0
810,59.0,0,364,7.0,70.0
811,59.0,0,564,7.0,70.0
812,75.0,0,596,5.0,70.0
813,63.0,480,620,6.0,70.0
814,48.0,0,220,8.0,70.0
815,36.0,0,220,10.0,70.0
816,60.0,10,292,7.0,70.0
817,64.0,0,308,6.0,70.0
818,76.0,0,324,5.0,70.0
819,76.0,470,668,1.0,97.0
820,52.0,0,228,8.0,70.0
821,40.0,480,228,10.0,70.0
822,79.0,0,780,0.0,97.0
823,60.0,0,884,2.0,83.0
824,64.0,0,892,2.0,83.0
825,76.0,0,300,0.0,99.0
826,72.0,230,332,1.0,99.0
827,74.0,240,204,1.0,106.0
828,43.0,0,196,10.0,70.0
829,55.0,0,196,8.0,70.0
830,77.0,0,316,0.0,106.0
831,62.0,10,356,2.0,81.0
832,55.0,0,364,2.0,81.0
833,71.0,230,188,1.0,95.0
834,74.0,0,204,0.0,95.0
835,72.0,240,480,0.0,85.0
836,52.0,0,1044,7.0,70.0
837,48.0,480,596,10.0,70.0
838,60.0,0,596,8.0,70.0
839,72.0,10,1500,5.0,70.0
840,47.0,0,580,10.0,70.0
841,59.0,480,580,8.0,70.0
842,60.0,0,1572,6.0,70.0
843,62.0,0,316,6.0,70.0
844,74.0,0,332,5.0,70.0
845,55.0,0,868,7.0,70.0
846,64.0,240,156,6.0,70.0
847,76.0,0,164,5.0,70.0
848,46.0,480,588,10.0,70.0
849,58.0,0,588,8.0,70.0
850,57.0,0,332,8.0,70.0
851,45.0,0,332,10.0,70.0
852,65.0,0,364,6.0,70.0
853,77.0,240,388,5.0,70.0
854,48.0,0,556,7.0,70.0
855,65.0,0,356,6.0,70.0
856,77.0,0,380,5.0,70.0
857,48.0,480,444,10.0,70.0
858,60.0,0,444,8.0,70.0
859,60.0,0,844,7.0,70.0
860,45.0,0,428,10.0,70.0
861,57.0,0,428,8.0,70.0
862,77.0,480,580,5.0,70.0
863,65.0,0,604,6.0,70.0
864,79.0,0,308,5.0,70.0
865,67.0,480,316,6.0,70.0
866,53.0,0,412,8.0,70.0
867,41.0,0,412,10.0,70.0
868,69.0,0,172,6.0,70.0
869,65.0,0,412,7.0,70.0
870,81.0,240,180,5.0,70.0
871,67.0,240,308,6.0,70.0
872,79.0,0,308,5.0,70.0
873,69.0,240,308,6.0,70.0
874,81.0,0,308,5.0,70.0
875,83.0,0,308,5.0,70.0
876,71.0,240,308,6.0,70.0
877,72.0,0,308,6.0,70.0
878,84.0,240,308,5.0,70.0
879,71.0,240,308,6.0,70.0
880,83.0,0,308,5.0,70.0
881,72.0,240,308,6.0,70.0
882,84.0,0,308,5.0,70.0
883,83.0,0,308,5.0,70.0
884,71.0,240,308,6.0,70.0
885,72.0,0,156,6.0,70.0
886,52.0,0,1836,8.0,70.0
887,40.0,0,1836,10.0,70.0
888,64.0,0,1844,7.0,70.0
889,84.0,240,172,5.0,70.0
890,68.0,240,308,6.0,70.0
891,80.0,0,308,5.0,70.0
892,81.0,0,308,5.0,70.0
893,69.0,240,308,6.0,70.0
894,68.0,240,308,6.0,70.0
895,80.0,0,308,5.0,70.0
896,69.0,240,164,6.0,70.0
897,81.0,0,188,5.0,70.0
898,53.0,0,1028,8.0,70.0
899,41.0,0,1028,10.0,70.0
900,65.0,0,1044,7.0,70.0
901,64.0,0,308,6.0,70.0
902,76.0,0,308,5.0,70.0
903,65.0,240,308,6.0,70.0
904,77.0,0,308,5.0,70.0
905,76.0,0,308,5.0,70.0
906,64.0,240,308,6.0,70.0
907,60.0,240,844,7.0,70.0
908,60.0,0,7572,2.0,81.0
909,45.0,0,868,10.0,70.0
910,57.0,0,868,8.0,70.0
911,48.0,0,7588,2.0,81.0
912,65.0,0,172,6.0,70.0
913,77.0,240,180,5.0,70.0
914,60.0,0,308,7.0,70.0
915,64.0,0,308,6.0,70.0
916,60.0,240,308,6.0,70.0
917,55.0,0,308,7.0,70.0
918,76.0,0,564,5.0,70.0
919,64.0,0,308,6.0,70.0
920,60.0,0,308,7.0,70.0
921,60.0,240,308,6.0,70.0
922,55.0,0,312,7.0,70.0
923,64.0,0,124,6.0,70.0
924,60.0,240,148,7.0,70.0
925,79.0,240,876,5.0,70.0
926,64.0,0,300,6.0,70.0
927,60.0,240,308,7.0,70.0
928,77.0,0,204,5.0,70.0
929,65.0,0,292,6.0,70.0
930,62.0,240,308,7.0,70.0
931,67.0,0,156,6.0,70.0
932,55.0,10,1844,8.0,70.0
933,43.0,0,1844,10.0,70.0
934,76.0,240,188,5.0,70.0
935,64.0,0,188,7.0,70.0
936,76.0,240,284,5.0,70.0
937,64.0,0,308,7.0,70.0
938,67.0,0,308,6.0,70.0
939,74.0,0,292,5.0,70.0
940,65.0,240,308,6.0,70.0
941,62.0,0,308,7.0,70.0
942,64.0,0,308,6.0,70.0
943,60.0,240,308,7.0,70.0
944,67.0,240,308,6.0,70.0
945,64.0,0,308,7.0,70.0
946,60.0,0,308,7.0,70.0
947,64.0,240,308,6.0,70.0
948,79.0,230,3276,0.0,80.0
949,67.0,0,3276,1.0,80.0
950,67.0,240,308,6.0,70.0
951,64.0,0,308,7.0,70.0
952,72.0,0,1060,5.0,70.0
953,74.0,0,196,1.0,100.0
954,77.0,230,284,0.0,100.0
955,62.0,0,308,7.0,70.0
956,65.0,0,308,6.0,70.0
957,71.0,10,340,5.0,70.0
958,55.0,0,3700,2.0,87.0
959,31.0,0,1836,10.0,70.0
960,43.0,0,1836,8.0,70.0
961,59.0,10,164,7.0,70.0
962,62.0,0,172,6.0,70.0
963,71.0,230,196,1.0,90.0
964,74.0,0,196,0.0,90.0
965,60.0,0,316,7.0,70.0
966,72.0,0,332,5.0,70.0
967,60.0,0,348,6.0,70.0
968,36.0,10,348,10.0,70.0
969,48.0,0,348,8.0,70.0
970,72.0,230,480,0.0,83.0
971,60.0,0,480,2.0,70.0
972,52.0,0,480,2.0,70.0
973,36.0,480,96,10.0,105.0
974,60.0,0,96,5.0,105.0
975,48.0,0,96,8.0,105.0
976,60.0,0,96,5.0,105.0
977,48.0,240,96,8.0,105.0
978,36.0,0,96,10.0,105.0
979,35.0,0,308,10.0,105.0
980,47.0,240,308,8.0,105.0
981,59.0,0,316,5.0,105.0
982,38.0,0,124,10.0,105.0
983,50.0,240,124,8.0,105.0
984,62.0,0,140,5.0,105.0
985,53.0,0,96,8.0,105.0
986,41.0,0,96,10.0,105.0
987,65.0,240,96,5.0,105.0
988,41.0,0,96,10.0,105.0
989,65.0,0,96,5.0,105.0
990,53.0,240,96,8.0,105.0
991,52.0,240,276,8.0,105.0
992,40.0,0,276,10.0,105.0
993,64.0,0,308,5.0,105.0
994,67.0,0,156,5.0,105.0
995,43.0,0,164,10.0,105.0
996,55.0,240,164,8.0,105.0
997,48.0,0,96,10.0,105.0
998,60.0,0,96,8.0,105.0
999,72.0,240,96,5.0,105.0
1000,48.0,240,96,10.0,105.0
1001,72.0,0,96,5.0,105.0
1002,60.0,0,96,8.0,105.0
1003,71.0,240,324,5.0,105.0
1004,74.0,240,132,5.0,105.0
1005,59.0,0,380,8.0,105.0
1006,47.0,0,380,10.0,105.0
1007,77.0,0,96,5.0,105.0
1008,55.0,0,132,2.0,116.0
1009,67.0,240,164,7.0,105.0
1010,43.0,0,180,10.0,105.0
1011,55.0,0,180,8.0,105.0
1012,77.0,0,96,5.0,105.0
1013,55.0,0,140,2.0,114.0
1014,67.0,0,156,7.0,105.0
1015,43.0,240,188,10.0,105.0
1016,55.0,0,188,8.0,105.0
1017,76.0,0,332,5.0,105.0
1018,48.0,0,372,10.0,105.0
1019,60.0,0,372,8.0,105.0
1020,67.0,240,372,7.0,105.0
1021,60.0,0,412,2.0,105.0
1022,72.0,30,96,0.0,123.0
1023,64.0,400,188,5.0,104.0
1024,43.0,0,156,10.0,105.0
1025,55.0,0,156,8.0,105.0
1026,55.0,0,164,2.0,117.0
1027,72.0,230,96,0.0,123.0
1028,55.0,10,156,2.0,121.0
1029,43.0,0,164,10.0,105.0
1030,55.0,0,164,8.0,105.0
1031,79.0,0,480,5.0,109.0
1032,72.0,40,524,5.0,105.0
1033,71.0,230,316,0.0,121.0
1034,62.0,0,348,8.0,105.0
1035,50.0,10,348,10.0,105.0
1036,74.0,230,164,0.0,119.0
1037,67.0,10,892,7.0,105.0
1038,62.0,0,428,2.0,105.0
1039,77.0,240,96,0.0,116.0
1040,55.0,10,164,2.0,114.0
1041,55.0,0,180,8.0,105.0
1042,43.0,0,180,10.0,105.0
1043,77.0,230,96,0.0,112.0
1044,55.0,0,172,8.0,105.0
1045,43.0,0,172,10.0,105.0
1046,55.0,10,204,2.0,114.0
1047,74.0,0,480,6.0,105.0
1048,77.0,0,480,6.0,105.0
1049,83.0,0,480,5.0,105.0
1050,72.0,230,316,0.0,112.0
1051,64.0,0,356,8.0,105.0
1052,52.0,0,356,10.0,105.0
1053,76.0,230,148,0.0,113.0
1054,67.0,0,876,7.0,105.0
1055,64.0,10,480,2.0,105.0
1056,79.0,240,96,0.0,113.0
1057,43.0,0,164,10.0,105.0
1058,55.0,0,164,8.0,105.0
1059,79.0,230,96,0.0,115.0
1060,55.0,10,156,8.0,105.0
1061,43.0,0,156,10.0,105.0
1062,76.0,0,480,6.0,105.0
1063,72.0,0,480,6.0,105.0
1064,84.0,10,480,5.0,105.0
1065,74.0,230,292,0.0,115.0
1066,79.0,230,132,0.0,114.0
1067,59.0,0,372,8.0,105.0
1068,47.0,10,372,10.0,105.0
1069,67.0,0,876,7.0,105.0
1070,83.0,240,96,0.0,114.0
1071,43.0,0,156,10.0,105.0
1072,55.0,0,156,8.0,105.0
1073,55.0,10,164,2.0,116.0
1074,83.0,230,96,0.0,114.0
1075,43.0,10,148,10.0,105.0
1076,55.0,0,148,8.0,105.0
1077,55.0,0,172,2.0,116.0
1078,77.0,0,412,5.0,105.0
1079,74.0,0,436,6.0,105.0
1080,67.0,0,444,6.0,105.0
1081,64.0,0,364,6.0,105.0
1082,72.0,0,364,6.0,105.0
1083,48.0,0,364,10.0,105.0
1084,60.0,10,364,8.0,105.0
1085,76.0,0,372,5.0,105.0
1086,67.0,0,860,7.0,105.0
1087,84.0,230,404,0.0,114.0
1088,60.0,0,412,2.0,105.0
1089,72.0,38,96,0.0,120.0
1090,55.0,10,100,8.0,105.0
1091,67.0,16,188,6.0,105.0
1092,43.0,0,100,10.0,105.0
1093,64.0,376,212,5.0,105.0
1094,55.0,0,156,2.0,114.0
1095,72.0,230,96,0.0,121.0
1096,55.0,10,108,8.0,105.0
1097,43.0,0,108,10.0,105.0
1098,55.0,0,188,2.0,117.0
1099,72.0,0,480,5.0,112.0
1100,79.0,0,480,5.0,113.0
1101,76.0,0,480,6.0,115.0
1102,72.0,40,540,6.0,112.0
1103,71.0,230,308,0.0,123.0
1104,50.0,0,348,10.0,105.0
1105,62.0,0,348,8.0,105.0
1106,67.0,0,852,7.0,105.0
1107,62.0,10,388,2.0,105.0
1108,74.0,230,164,0.0,120.0
1109,55.0,0,876,7.0,105.0
1110,77.0,240,96,0.0,120.0
1111,55.0,0,140,8.0,105.0
1112,43.0,0,140,10.0,105.0
1113,55.0,0,164,2.0,113.0
1114,77.0,230,96,0.0,118.0
1115,43.0,10,156,10.0,105.0
1116,55.0,0,156,8.0,105.0
1117,55.0,0,172,2.0,115.0
1118,77.0,10,480,6.0,105.0
1119,83.0,0,480,5.0,105.0
1120,74.0,0,480,6.0,105.0
1121,72.0,230,324,0.0,117.0
1122,52.0,0,356,10.0,105.0
1123,64.0,0,356,8.0,105.0
1124,55.0,0,860,7.0,105.0
1125,76.0,230,156,0.0,115.0
1126,67.0,0,876,7.0,105.0
1127,64.0,10,480,2.0,105.0
1128,79.0,240,96,0.0,115.0
1129,55.0,0,172,8.0,105.0
1130,43.0,0,172,10.0,105.0
1131,79.0,230,96,0.0,115.0
1132,55.0,10,180,8.0,105.0
1133,43.0,0,180,10.0,105.0
1134,72.0,0,480,6.0,105.0
1135,76.0,0,480,6.0,105.0
1136,84.0,10,480,5.0,105.0
1137,74.0,230,316,0.0,115.0
1138,47.0,0,348,10.0,105.0
1139,59.0,10,348,8.0,105.0
1140,55.0,0,844,7.0,105.0
1141,67.0,0,860,7.0,105.0
1142,79.0,230,164,0.0,116.0
1143,83.0,240,96,0.0,119.0
1144,55.0,0,164,8.0,105.0
1145,43.0,0,164,10.0,105.0
1146,55.0,0,180,2.0,105.0
1147,83.0,230,100,0.0,105.0
1148,67.0,10,388,7.0,105.0
1149,43.0,0,156,10.0,105.0
1150,55.0,0,156,8.0,105.0
1151,74.0,0,412,6.0,105.0
1152,55.0,10,188,2.0,105.0
1153,77.0,0,428,5.0,105.0
1154,67.0,0,428,6.0,105.0
1155,55.0,0,480,7.0,105.0
1156,67.0,0,188,7.0,105.0
1157,64.0,0,356,6.0,105.0
1158,72.0,0,356,6.0,105.0
1159,60.0,10,396,2.0,105.0
1160,67.0,240,164,7.0,105.0
1161,76.0,0,428,5.0,105.0
1162,48.0,0,480,10.0,105.0
1163,60.0,0,480,8.0,105.0
1164,64.0,152,188,6.0,107.0
1165,67.0,0,172,7.0,105.0
1166,67.0,240,180,7.0,105.0
1167,76.0,0,84,5.0,105.0
1168,84.0,120,84,5.0,105.0
1169,79.0,48,480,6.0,116.0
1170,64.0,0,480,2.0,105.0
1171,60.0,0,480,2.0,105.0
1172,72.0,40,540,6.0,111.0
1173,60.0,0,204,8.0,105.0
1174,48.0,0,204,10.0,105.0
1175,69.0,0,196,7.0,105.0
1176,69.0,240,164,7.0,105.0
1177,84.0,0,480,5.0,113.0
1178,76.0,0,480,5.0,113.0
1179,57.0,0,480,8.0,118.0
1180,45.0,10,480,10.0,118.0
1181,64.0,152,188,6.0,106.0
1182,64.0,0,164,7.0,105.0
1183,76.0,110,892,1.0,105.0
1184,64.0,240,180,7.0,105.0
1185,84.0,0,84,5.0,105.0
1186,76.0,0,100,5.0,105.0
1187,60.0,0,480,2.0,105.0
1188,64.0,0,480,2.0,105.0
1189,81.0,40,480,6.0,116.0
1190,72.0,48,524,6.0,111.0
1191,57.0,120,204,8.0,105.0
1192,45.0,0,204,10.0,105.0
1193,65.0,10,180,7.0,105.0
1194,65.0,240,188,7.0,105.0
1195,74.0,0,480,5.0,117.0
1196,84.0,0,480,5.0,117.0
1197,41.0,0,480,10.0,119.0
1198,53.0,0,480,8.0,119.0
1199,62.0,160,204,6.0,103.0
1200,65.0,40,156,7.0,105.0
1201,84.0,230,2796,0.0,105.0
1202,65.0,240,172,7.0,105.0
1203,84.0,0,92,5.0,105.0
1204,74.0,0,92,5.0,105.0
1205,62.0,0,480,2.0,105.0
1206,60.0,0,480,2.0,105.0
1207,81.0,0,480,6.0,112.0
1208,72.0,40,532,6.0,107.0
1209,53.0,120,172,8.0,105.0
1210,41.0,0,172,10.0,105.0
1211,67.0,10,180,7.0,105.0
1212,67.0,240,172,7.0,105.0
1213,74.0,0,480,5.0,115.0
1214,83.0,0,480,5.0,115.0
1215,43.0,0,480,10.0,119.0
1216,55.0,0,480,8.0,119.0
1217,62.0,144,180,6.0,105.0
1218,67.0,48,164,7.0,105.0
1219,71.0,48,372,6.0,112.0
1220,79.0,0,332,6.0,119.0
1221,83.0,110,892,0.0,105.0
1222,67.0,240,172,7.0,105.0
1223,74.0,110,1868,1.0,105.0
1224,55.0,0,420,2.0,105.0
1225,62.0,0,428,2.0,105.0
1226,83.0,120,84,5.0,105.0
1227,74.0,0,84,5.0,105.0
1228,55.0,0,204,8.0,105.0
1229,64.0,16,188,6.0,107.0
1230,43.0,0,204,10.0,105.0
1231,48.0,0,828,8.0,117.0
1232,36.0,10,828,10.0,117.0
1233,72.0,56,908,6.0,116.0
1234,84.0,0,884,5.0,114.0
1235,76.0,0,884,5.0,114.0
1236,79.0,0,916,6.0,122.0
1237,76.0,38,960,1.0,105.0
1238,84.0,0,960,0.0,105.0
1239,67.0,0,960,7.0,105.0
1240,64.0,0,960,2.0,105.0
1241,60.0,0,960,2.0,105.0
1242,60.0,0,292,5.0,118.0
1243,48.0,960,308,8.0,120.0
1244,36.0,0,308,10.0,120.0
1245,31.0,0,140,10.0,105.0
1246,43.0,240,140,8.0,105.0
1247,55.0,0,148,5.0,105.0
1248,52.0,240,96,8.0,105.0
1249,40.0,0,96,10.0,105.0
1250,64.0,0,96,5.0,105.0
1251,40.0,0,96,10.0,105.0
1252,64.0,0,96,5.0,105.0
1253,52.0,240,96,8.0,105.0
1254,52.0,0,284,8.0,117.0
1255,40.0,240,284,10.0,117.0
1256,64.0,0,316,5.0,120.0
1257,36.0,240,132,10.0,105.0
1258,48.0,0,132,8.0,105.0
1259,60.0,0,156,5.0,105.0
1260,43.0,0,96,10.0,105.0
1261,67.0,0,96,5.0,105.0
1262,55.0,240,96,8.0,105.0
1263,67.0,0,96,5.0,105.0
1264,55.0,240,96,8.0,105.0
1265,43.0,0,96,10.0,105.0
1266,67.0,0,300,5.0,118.0
1267,43.0,0,308,10.0,121.0
1268,55.0,240,308,8.0,121.0
1269,64.0,240,140,5.0,105.0
1270,40.0,0,156,10.0,105.0
1271,52.0,0,156,8.0,105.0
1272,72.0,0,96,5.0,105.0
1273,48.0,240,96,10.0,105.0
1274,60.0,0,96,8.0,105.0
1275,48.0,240,96,10.0,105.0
1276,60.0,0,96,8.0,105.0
1277,72.0,0,96,5.0,105.0
1278,72.0,10,708,5.0,117.0
1279,60.0,0,716,8.0,119.0
1280,48.0,0,716,10.0,119.0
1281,72.0,230,1860,0.0,90.0
1282,67.0,0,1868,1.0,90.0
1283,60.0,0,1868,2.0,70.0
1284,52.0,0,1892,2.0,70.0
1285,74.0,1910,1860,0.0,97.0
1286,62.0,10,1852,2.0,70.0
1287,55.0,0,1852,2.0,70.0
1288,71.0,0,1868,1.0,97.0
1289,64.0,0,96,6.0,92.0
1290,60.0,10,96,7.0,90.0
1291,76.0,0,300,0.0,104.0
1292,60.0,10,96,6.0,72.0
1293,55.0,0,96,7.0,74.0
1294,79.0,230,148,0.0,116.0
1295,72.0,1910,480,1.0,104.0
1296,60.0,0,480,2.0,86.0
1297,76.0,0,96,0.0,123.0
1298,79.0,10,96,5.0,72.0
1299,64.0,0,96,6.0,73.0
1300,60.0,0,96,7.0,75.0
1301,64.0,0,788,2.0,86.0
1302,74.0,230,96,0.0,121.0
1303,65.0,10,96,6.0,74.0
1304,62.0,0,96,7.0,76.0
1305,62.0,0,276,2.0,70.0
1306,64.0,0,96,7.0,92.0
1307,79.0,10,96,5.0,85.0
1308,67.0,0,96,6.0,95.0
1309,64.0,240,96,6.0,76.0
1310,60.0,0,96,7.0,78.0
1311,52.0,0,380,2.0,70.0
1312,72.0,230,540,0.0,110.0
1313,60.0,0,532,2.0,70.0
1314,67.0,230,1036,1.0,123.0
1315,65.0,10,96,6.0,77.0
1316,79.0,0,96,5.0,75.0
1317,62.0,0,96,7.0,79.0
1318,55.0,0,260,8.0,117.0
1319,43.0,0,260,10.0,117.0
1320,59.0,0,96,7.0,79.0
1321,62.0,240,96,6.0,78.0
1322,71.0,0,364,1.0,100.0
1323,74.0,230,380,0.0,100.0
1324,55.0,0,372,2.0,70.0
1325,62.0,0,380,2.0,70.0
1326,79.0,0,96,5.0,90.0
1327,60.0,0,96,7.0,93.0
1328,64.0,0,96,6.0,98.0
1329,48.0,0,244,10.0,117.0
1330,60.0,10,244,8.0,117.0
1331,76.0,230,276,0.0,101.0
1332,60.0,0,96,6.0,79.0
1333,55.0,10,96,7.0,81.0
1334,79.0,230,116,0.0,109.0
1335,72.0,0,468,1.0,101.0
1336,60.0,0,480,2.0,94.0
1337,76.0,230,96,0.0,120.0
1338,64.0,10,96,6.0,80.0
1339,79.0,0,96,5.0,79.0
1340,60.0,0,96,7.0,82.0
1341,64.0,0,804,2.0,94.0
1342,74.0,230,96,0.0,119.0
1343,65.0,0,96,6.0,81.0
1344,62.0,10,96,7.0,83.0
1345,62.0,0,308,2.0,70.0
1346,67.0,10,96,6.0,98.0
1347,79.0,0,96,5.0,95.0
1348,64.0,0,96,7.0,99.0
1349,60.0,0,96,7.0,85.0
1350,64.0,240,96,6.0,83.0
1351,52.0,0,348,2.0,70.0
1352,60.0,0,480,2.0,70.0
1353,72.0,230,540,0.0,112.0
1354,67.0,0,1060,1.0,120.0
1355,79.0,0,96,5.0,82.0
1356,62.0,0,96,7.0,85.0
1357,65.0,10,96,6.0,84.0
1358,43.0,0,244,10.0,117.0
1359,55.0,0,244,8.0,117.0
1360,62.0,0,96,6.0,84.0
1361,59.0,240,96,7.0,86.0
1362,74.0,0,380,0.0,97.0
1363,71.0,230,380,1.0,97.0
1364,62.0,0,396,2.0,70.0
1365,55.0,0,396,2.0,70.0
1366,64.0,0,96,6.0,100.0
1367,60.0,0,96,7.0,99.0
1368,79.0,10,96,5.0,99.0
1369,48.0,0,300,10.0,117.0
1370,60.0,0,300,8.0,117.0
1371,76.0,0,316,0.0,104.0
1372,55.0,10,96,7.0,88.0
1373,60.0,0,96,6.0,86.0
1374,79.0,230,124,0.0,113.0
1375,72.0,230,480,1.0,104.0
1376,60.0,0,480,2.0,97.0
1377,76.0,0,96,0.0,116.0
1378,60.0,10,96,7.0,89.0
1379,79.0,0,96,5.0,85.0
1380,64.0,0,96,6.0,87.0
1381,64.0,0,796,2.0,97.0
1382,74.0,0,96,1.0,116.0
1383,74.0,230,96,0.0,116.0
1384,65.0,10,96,6.0,88.0
1385,62.0,0,96,7.0,90.0
1386,62.0,0,316,2.0,70.0
1387,79.0,10,96,5.0,97.0
1388,64.0,0,96,7.0,98.0
1389,67.0,0,96,6.0,96.0
1390,64.0,0,96,6.0,90.0
1391,60.0,240,96,7.0,91.0
1392,52.0,0,380,2.0,70.0
1393,60.0,0,480,2.0,70.0
1394,72.0,0,564,0.0,108.0
1395,72.0,230,564,1.0,108.0
1396,67.0,230,1052,1.0,116.0
1397,79.0,0,96,5.0,89.0
1398,65.0,0,96,6.0,91.0
1399,62.0,0,96,7.0,92.0
1400,55.0,0,252,8.0,117.0
1401,43.0,0,252,10.0,117.0
1402,76.0,230,300,0.0,99.0
1403,62.0,10,96,6.0,91.0
1404,59.0,0,96,7.0,93.0
1405,74.0,230,164,0.0,98.0
1406,62.0,0,396,2.0,70.0
1407,71.0,0,412,1.0,99.0
1408,55.0,10,412,2.0,70.0
1409,60.0,10,96,6.0,92.0
1410,60.0,0,96,7.0,94.0
1411,60.0,0,300,8.0,117.0
1412,48.0,0,300,10.0,117.0
1413,64.0,0,96,7.0,92.0
1414,67.0,240,96,6.0,93.0
1415,72.0,230,480,0.0,103.0
1416,52.0,0,480,2.0,92.0
1417,60.0,0,480,2.0,92.0
1418,60.0,0,96,7.0,89.0
1419,64.0,0,96,6.0,92.0
1420,43.0,0,252,10.0,117.0
1421,55.0,240,252,8.0,117.0
1422,79.0,0,788,5.0,91.0
1423,67.0,0,96,6.0,91.0
1424,64.0,240,96,7.0,87.0
1425,76.0,0,164,5.0,94.0
1426,48.0,0,228,8.0,117.0
1427,36.0,240,228,10.0,117.0
1428,64.0,0,480,6.0,90.0
1429,84.0,0,480,5.0,94.0
1430,60.0,0,480,7.0,84.0
1431,72.0,960,240,4.0,90.0
1432,60.0,0,240,4.0,90.0
1433,67.0,0,240,4.0,90.0
1434,71.0,240,240,4.0,90.0
1435,64.0,0,240,4.0,90.0
1436,72.0,240,240,4.0,90.0
1437,67.0,0,240,4.0,90.0
1438,71.0,240,240,4.0,90.0
1439,60.0,0,240,4.0,90.0
1440,67.0,240,240,4.0,90.0
1441,72.0,240,480,4.0,90.0
1442,64.0,0,240,4.0,90.0
1443,76.0,240,480,4.0,90.0
1444,67.0,240,240,4.0,90.0
1445,60.0,240,240,4.0,90.0
1446,74.0,0,240,4.0,90.0
1447,72.0,0,240,4.0,90.0
1448,67.0,240,240,4.0,90.0
1449,64.0,0,240,4.0,90.0
1450,72.0,240,240,4.0,90.0
1451,71.0,240,240,4.0,90.0
1452,67.0,0,240,4.0,90.0
1453,60.0,240,240,4.0,90.0
1454,72.0,0,480,4.0,90.0
1455,67.0,240,240,4.0,90.0
1456,64.0,240,240,4.0,90.0
1457,67.0,240,240,4.0,90.0
1458,60.0,0,240,4.0,90.0
1459,77.0,240,240,4.0,90.0
1460,76.0,0,240,4.0,90.0
1461,69.0,240,240,4.0,90.0
1462,77.0,0,240,4.0,90.0
1463,65.0,240,240,4.0,90.0
1464,69.0,240,240,4.0,90.0
1465,76.0,0,240,4.0,90.0
1466,60.0,240,240,4.0,90.0
1467,69.0,240,240,4.0,90.0
1468,77.0,0,480,4.0,90.0
1469,65.0,240,240,4.0,90.0
1470,81.0,0,480,4.0,90.0
1471,69.0,240,240,4.0,90.0
1472,78.0,240,240,4.0,90.0
1473,60.0,0,240,4.0,90.0
1474,67.0,240,240,4.0,90.0
1475,79.0,0,240,4.0,90.0
1476,79.0,240,240,4.0,90.0
1477,64.0,0,240,4.0,90.0
1478,78.0,0,240,4.0,90.0
1479,67.0,240,240,4.0,90.0
1480,60.0,0,240,4.0,90.0
1481,67.0,240,240,4.0,90.0
1482,79.0,240,480,4.0,90.0
1483,64.0,240,240,4.0,90.0
1484,67.0,240,240,4.0,90.0
1485,60.0,0,240,4.0,90.0
1486,84.0,240,240,4.0,90.0
1487,67.0,0,240,4.0,90.0
1488,83.0,240,240,4.0,90.0
1489,64.0,0,240,4.0,90.0
1490,84.0,240,240,4.0,90.0
1491,67.0,240,240,4.0,90.0
1492,83.0,0,240,4.0,90.0
1493,60.0,0,240,4.0,90.0
1494,84.0,240,480,4.0,90.0
1495,67.0,240,240,4.0,90.0
1496,64.0,0,240,4.0,90.0
1497,67.0,240,240,4.0,90.0
1498,76.0,240,480,4.0,90.0
1499,79.0,0,240,4.0,90.0
1500,60.0,240,240,4.0,90.0
1501,69.0,0,240,4.0,90.0
1502,77.0,240,240,4.0,90.0
1503,77.0,240,240,4.0,90.0
1504,62.0,0,240,4.0,90.0
1505,74.0,240,240,4.0,90.0
1506,69.0,0,240,4.0,90.0
1507,59.0,240,240,4.0,90.0
1508,86.0,0,480,4.0,90.0
1509,67.0,240,240,4.0,90.0
1510,62.0,240,240,4.0,90.0
1511,67.0,0,240,4.0,90.0
1512,77.0,240,240,4.0,90.0
1513,76.0,0,240,4.0,90.0
1514,60.0,240,480,4.0,90.0
1515,79.0,240,240,4.0,90.0
1516,72.0,0,240,4.0,90.0
1517,76.0,240,240,4.0,90.0
1518,57.0,240,480,4.0,90.0
1519,74.0,240,240,4.0,90.0
1520,77.0,240,240,4.0,90.0
1521,53.0,0,480,4.0,90.0
1522,71.0,240,240,4.0,90.0
1523,55.0,0,480,4.0,90.0
1524,74.0,240,240,4.0,90.0
1525,72.0,0,240,4.0,90.0
1526,76.0,240,240,4.0,90.0
1527,48.0,240,480,4.0,90.0
1528,67.0,240,240,4.0,90.0
1529,72.0,240,240,4.0,90.0
1530,64.0,240,240,4.0,90.0
1531,67.0,240,240,4.0,90.0
1532,65.0,240,240,4.0,90.0
1533,62.0,240,240,4.0,90.0
1534,60.0,240,240,4.0,90.0
1535,72.0,0,284,3.0,90.0
1536,48.0,0,480,4.0,90.0
1537,67.0,0,240,4.0,90.0
1538,71.0,240,268,3.0,90.0
1539,64.0,240,240,4.0,90.0
1540,72.0,0,284,3.0,90.0
1541,67.0,0,240,4.0,90.0
1542,52.0,0,480,4.0,90.0
1543,71.0,240,284,3.0,90.0
1544,60.0,240,240,4.0,90.0
1545,72.0,0,292,3.0,90.0
1546,67.0,240,240,4.0,90.0
1547,55.0,0,480,4.0,90.0
1548,76.0,0,300,3.0,90.0
1549,64.0,240,240,4.0,90.0
1550,79.0,0,292,3.0,90.0
1551,67.0,240,240,4.0,90.0
1552,52.0,0,480,4.0,90.0
1553,76.0,0,292,3.0,90.0
1554,60.0,0,240,4.0,90.0
1555,74.0,240,292,3.0,90.0
1556,72.0,0,172,3.0,90.0
1557,67.0,240,240,4.0,90.0
1558,48.0,0,480,4.0,90.0
1559,64.0,240,240,4.0,90.0
1560,72.0,0,240,3.0,90.0
1561,71.0,0,240,3.0,90.0
1562,67.0,240,240,4.0,90.0
1563,52.0,0,480,4.0,90.0
1564,60.0,240,240,4.0,90.0
1565,55.0,0,480,4.0,90.0
1566,67.0,240,240,4.0,90.0
1567,72.0,0,480,3.0,90.0
1568,64.0,0,240,4.0,90.0
1569,67.0,240,240,4.0,90.0
1570,52.0,240,480,4.0,90.0
1571,60.0,0,240,4.0,90.0
1572,77.0,240,292,3.0,90.0
1573,69.0,240,240,4.0,90.0
1574,48.0,0,480,4.0,90.0
1575,76.0,0,268,3.0,90.0
1576,65.0,0,240,4.0,90.0
1577,77.0,0,292,3.0,90.0
1578,53.0,240,480,4.0,90.0
1579,69.0,240,240,4.0,90.0
1580,76.0,0,276,3.0,90.0
1581,60.0,0,240,4.0,90.0
1582,77.0,240,268,3.0,90.0
1583,69.0,0,240,4.0,90.0
1584,57.0,0,480,4.0,90.0
1585,81.0,240,268,3.0,90.0
1586,65.0,0,240,4.0,90.0
1587,84.0,240,292,3.0,90.0
1588,81.0,0,196,3.0,90.0
1589,69.0,240,240,4.0,90.0
1590,53.0,0,480,4.0,90.0
1591,60.0,0,240,4.0,90.0
1592,67.0,240,240,4.0,90.0
1593,48.0,240,480,4.0,90.0
1594,64.0,240,240,4.0,90.0
1595,52.0,0,480,4.0,90.0
1596,67.0,240,240,4.0,90.0
1597,78.0,0,1020,3.0,90.0
1598,60.0,240,240,4.0,90.0
1599,67.0,240,240,4.0,90.0
1600,55.0,0,480,4.0,90.0
1601,79.0,0,480,3.0,90.0
1602,64.0,240,240,4.0,90.0
1603,67.0,240,240,4.0,90.0
1604,52.0,0,480,4.0,90.0
1605,86.0,0,80,3.0,90.0
1606,84.0,60,80,3.0,90.0
1607,86.0,60,80,3.0,90.0
1608,60.0,240,240,4.0,90.0
1609,84.0,60,80,3.0,90.0
1610,48.0,0,480,4.0,90.0
1611,67.0,0,240,4.0,90.0
1612,83.0,60,288,3.0,90.0
1613,64.0,0,240,4.0,90.0
1614,84.0,240,288,3.0,90.0
1615,52.0,0,480,4.0,90.0
1616,67.0,240,240,4.0,90.0
1617,86.0,0,288,3.0,90.0
1618,60.0,0,240,4.0,90.0
1619,88.0,240,288,3.0,90.0
1620,67.0,240,240,4.0,90.0
1621,55.0,0,480,4.0,90.0
1622,84.0,0,288,3.0,90.0
1623,64.0,0,240,4.0,90.0
1624,79.0,0,288,3.0,90.0
1625,76.0,0,140,3.0,90.0
1626,67.0,240,240,4.0,90.0
1627,52.0,240,480,4.0,90.0
1628,62.0,0,240,4.0,90.0
1629,77.0,0,288,3.0,90.0
1630,47.0,240,480,4.0,90.0
1631,67.0,240,240,4.0,90.0
1632,74.0,0,288,3.0,90.0
1633,65.0,240,240,4.0,90.0
1634,83.0,0,288,3.0,90.0
1635,50.0,0,480,4.0,90.0
1636,67.0,0,240,4.0,90.0
1637,79.0,240,288,3.0,90.0
1638,62.0,0,240,4.0,90.0
1639,86.0,0,288,3.0,90.0
1640,55.0,240,480,4.0,90.0
1641,67.0,0,240,4.0,90.0
1642,83.0,240,288,3.0,90.0
1643,65.0,0,240,4.0,90.0
1644,79.0,240,288,3.0,90.0
1645,77.0,0,140,3.0,90.0
1646,47.0,0,480,4.0,90.0
1647,67.0,240,240,4.0,90.0
1648,77.0,0,308,3.0,90.0
1649,76.0,240,148,3.0,90.0
1650,60.0,0,480,4.0,90.0
1651,48.0,240,480,4.0,90.0
1652,79.0,0,96,3.0,90.0
1653,76.0,240,96,3.0,90.0
1654,52.0,240,480,4.0,90.0
1655,76.0,0,300,3.0,90.0
1656,74.0,240,148,3.0,90.0
1657,53.0,240,480,4.0,90.0
1658,72.0,0,96,3.0,90.0
1659,71.0,240,96,3.0,90.0
1660,55.0,240,480,4.0,90.0
1661,72.0,240,96,3.0,91.0
1662,76.0,0,96,4.0,90.0
1663,77.0,240,96,4.0,90.0
1664,74.0,0,96,3.0,93.0
1665,60.0,0,480,4.0,90.0
1666,79.0,240,96,4.0,90.0
1667,76.0,0,96,3.0,95.0
1668,81.0,240,96,4.0,90.0
1669,77.0,0,96,3.0,97.0
1670,79.0,240,96,3.0,99.0
1671,83.0,0,96,4.0,90.0
1672,81.0,240,96,3.0,101.0
1673,84.0,0,96,4.0,90.0
1674,83.0,240,96,3.0,103.0
1675,86.0,0,96,4.0,90.0
1676,88.0,240,96,4.0,90.0
1677,84.0,0,96,3.0,105.0
1678,86.0,0,96,3.0,107.0
1679,89.0,240,96,4.0,90.0
1680,88.0,240,96,4.0,90.0
1681,84.0,0,96,3.0,107.0
1682,59.0,0,480,4.0,90.0
1683,86.0,240,96,4.0,90.0
1684,83.0,0,96,3.0,105.0
1685,81.0,0,96,3.0,103.0
1686,84.0,240,96,4.0,90.0
1687,79.0,0,96,3.0,101.0
1688,83.0,240,96,4.0,90.0
1689,77.0,0,96,3.0,99.0
1690,81.0,240,96,4.0,90.0
1691,76.0,0,96,3.0,98.0
1692,79.0,240,96,4.0,90.0
1693,74.0,0,96,3.0,96.0
1694,77.0,240,96,4.0,90.0
1695,76.0,0,240,4.0,90.0
1696,72.0,240,288,3.0,94.0
1697,79.0,240,240,4.0,90.0
1698,60.0,0,480,4.0,90.0
1699,76.0,0,288,3.0,90.0
1700,84.0,0,240,4.0,90.0
1701,79.0,0,288,3.0,90.0
1702,76.0,240,124,3.0,90.0
1703,64.0,240,480,4.0,90.0
1704,79.0,0,0,4.0,90.0
1705,76.0,0,288,3.0,90.0
1706,67.0,240,480,4.0,90.0
1707,77.0,240,240,4.0,90.0
1708,74.0,0,288,3.0,90.0
1709,76.0,0,240,4.0,90.0
1710,72.0,0,288,3.0,90.0
1711,71.0,0,180,3.0,90.0
1712,55.0,240,480,4.0,90.0
1713,74.0,240,240,4.0,90.0
1714,48.0,10,216,10.0,105.0
1715,72.0,0,216,7.0,105.0
1716,60.0,0,216,8.0,105.0
1717,64.0,230,380,1.0,105.0
1718,72.0,0,380,0.0,105.0
1719,60.0,0,420,2.0,105.0
1720,52.0,0,428,2.0,105.0
1721,64.0,240,216,8.0,105.0
1722,52.0,0,216,10.0,105.0
1723,76.0,0,216,7.0,105.0
1724,72.0,0,480,3.0,90.0
1725,60.0,0,480,4.0,90.0
1726,72.0,0,480,4.0,90.0
1727,64.0,230,164,1.0,105.0
1728,72.0,0,180,0.0,105.0
1729,60.0,0,180,2.0,105.0
1730,52.0,0,180,2.0,105.0
1731,62.0,0,216,8.0,105.0
1732,74.0,10,216,7.0,105.0
1733,50.0,0,216,10.0,105.0
1734,72.0,0,148,0.0,105.0
1735,64.0,230,156,1.0,105.0
1736,60.0,0,172,2.0,105.0
1737,52.0,0,180,2.0,105.0
1738,60.0,10,216,8.0,105.0
1739,72.0,0,216,7.0,105.0
1740,48.0,0,216,10.0,105.0
1741,59.0,10,216,8.0,105.0
1742,47.0,0,216,10.0,105.0
1743,71.0,0,216,7.0,105.0
1744,64.0,0,380,5.0,105.0
1745,72.0,0,380,5.0,105.0
1746,52.0,0,396,2.0,105.0
1747,72.0,0,412,0.0,105.0
1748,64.0,230,412,1.0,105.0
1749,60.0,0,412,2.0,105.0
1750,55.0,8,404,6.0,105.0
1751,45.0,0,216,10.0,105.0
1752,69.0,0,216,7.0,105.0
1753,57.0,232,216,8.0,105.0
1754,55.0,0,216,8.0,105.0
1755,43.0,0,216,10.0,105.0
1756,67.0,0,216,7.0,105.0
1757,72.0,0,412,0.0,105.0
1758,64.0,230,420,1.0,105.0
1759,52.0,0,412,2.0,105.0
1760,60.0,0,420,2.0,105.0
1761,72.0,10,428,5.0,105.0
1762,76.0,0,428,5.0,105.0
1763,67.0,16,412,5.0,105.0
1764,41.0,0,216,10.0,105.0
1765,53.0,224,216,8.0,105.0
1766,65.0,0,216,7.0,105.0
1767,36.0,0,216,10.0,105.0
1768,64.0,10,216,7.0,105.0
1769,48.0,0,216,8.0,105.0
1770,72.0,0,380,0.0,105.0
1771,64.0,230,404,1.0,105.0
1772,60.0,0,404,2.0,105.0
1773,52.0,0,420,2.0,105.0
1774,48.0,240,216,10.0,105.0
1775,72.0,0,216,7.0,105.0
1776,60.0,0,216,8.0,105.0
1777,79.0,0,480,5.0,105.0
1778,72.0,0,480,5.0,105.0
1779,72.0,0,180,1.0,105.0
1780,76.0,230,188,0.0,105.0
1781,64.0,0,180,2.0,105.0
1782,60.0,0,180,2.0,105.0
1783,59.0,0,216,8.0,105.0
1784,47.0,10,216,10.0,105.0
1785,71.0,0,216,7.0,105.0
1786,76.0,230,188,0.0,105.0
1787,72.0,0,188,1.0,105.0
1788,60.0,0,180,2.0,105.0
1789,64.0,0,196,2.0,105.0
1790,57.0,0,216,8.0,105.0
1791,45.0,0,216,10.0,105.0
1792,69.0,10,216,7.0,105.0
1793,67.0,10,216,7.0,105.0
1794,55.0,0,216,8.0,105.0
1795,43.0,0,216,10.0,105.0
1796,72.0,0,380,1.0,105.0
1797,72.0,0,380,5.0,105.0
1798,67.0,8,380,5.0,105.0
1799,76.0,0,388,5.0,105.0
1800,76.0,230,404,0.0,105.0
1801,60.0,0,412,2.0,105.0
1802,64.0,0,412,2.0,105.0
1803,53.0,0,216,8.0,105.0
1804,41.0,232,216,10.0,105.0
1805,65.0,0,216,7.0,105.0
1806,40.0,0,216,10.0,105.0
1807,52.0,10,216,8.0,105.0
1808,64.0,0,216,7.0,105.0
1809,60.0,0,404,2.0,105.0
1810,64.0,0,412,2.0,105.0
1811,79.0,0,420,5.0,105.0
1812,38.0,0,216,10.0,105.0
1813,50.0,240,216,8.0,105.0
1814,62.0,0,216,7.0,105.0
1815,72.0,0,480,1.0,105.0
1816,76.0,230,480,0.0,105.0
1817,60.0,0,480,2.0,105.0
1818,64.0,0,480,2.0,105.0
1819,36.0,240,480,10.0,105.0
1820,60.0,0,480,7.0,105.0
1821,84.0,0,480,5.0,105.0
1822,76.0,0,480,5.0,105.0
1823,48.0,0,480,8.0,105.0
1824,72.0,240,308,3.0,90.0
1825,71.0,240,308,3.0,90.0
1826,72.0,240,308,3.0,90.0
1827,71.0,240,308,3.0,90.0
1828,72.0,240,308,3.0,90.0
1829,76.0,240,308,3.0,90.0
1830,72.0,240,164,3.0,90.0
1831,71.0,0,324,3.0,107.0
1832,60.0,240,432,6.0,70.0
1833,65.0,0,432,5.0,70.0
1834,69.0,200,324,3.0,99.0
1835,71.0,208,252,3.0,106.0
1836,69.0,120,164,3.0,100.0
1837,71.0,120,164,3.0,95.0
1838,65.0,0,432,5.0,70.0
1839,60.0,72,432,6.0,70.0
1840,69.0,104,164,3.0,90.0
1841,71.0,104,108,3.0,90.0
1842,69.0,48,100,3.0,92.0
1843,71.0,72,80,3.0,93.0
1844,69.0,60,80,3.0,97.0
1845,71.0,60,80,3.0,98.0
1846,69.0,60,80,3.0,100.0
1847,60.0,0,432,6.0,70.0
1848,65.0,32,432,5.0,70.0
1849,71.0,60,80,3.0,100.0
1850,69.0,60,80,3.0,100.0
1851,71.0,60,80,3.0,99.0
1852,69.0,60,80,3.0,98.0
1853,71.0,60,80,3.0,94.0
1854,69.0,60,80,3.0,93.0
1855,67.0,60,164,3.0,91.0
1856,60.0,0,432,6.0,70.0
1857,65.0,0,432,5.0,70.0
1858,69.0,120,164,3.0,89.0
1859,67.0,0,164,3.0,93.0
1860,72.0,480,316,3.0,84.0
1861,76.0,240,300,3.0,89.0
1862,79.0,240,276,3.0,95.0
1863,84.0,240,140,3.0,95.0
1864,79.0,240,96,3.0,87.0
1865,76.0,240,96,3.0,85.0
1866,64.0,0,1812,5.0,70.0
1867,60.0,120,1852,6.0,70.0
1868,64.0,240,432,5.0,70.0
1869,55.0,0,432,6.0,70.0
1870,79.0,0,900,3.0,90.0
1871,64.0,0,432,5.0,70.0
1872,55.0,480,432,6.0,70.0
1873,79.0,0,152,3.0,87.0
1874,77.0,120,152,3.0,90.0
1875,79.0,120,152,3.0,90.0
1876,62.0,480,432,5.0,70.0
1877,55.0,0,432,6.0,70.0
1878,77.0,120,152,3.0,84.0
1879,79.0,0,97,3.0,77.0
1880,77.0,0,97,3.0,77.0
1881,79.0,0,97,3.0,72.0
1882,77.0,0,97,3.0,72.0
1883,76.0,60,152,3.0,75.0
1884,55.0,0,432,6.0,70.0
1885,62.0,120,432,5.0,70.0
1886,77.0,120,152,3.0,78.0
1887,76.0,120,240,3.0,91.0
1888,79.0,0,264,3.0,90.0
1889,81.0,240,97,3.0,97.0
1890,79.0,60,97,3.0,100.0
1891,81.0,60,97,3.0,98.0
1892,79.0,60,97,3.0,93.0
1893,78.0,0,152,3.0,90.0
1894,79.0,120,120,3.0,84.0
1895,60.0,0,1052,5.0,70.0
1896,77.0,0,305,3.0,84.0
1897,76.0,240,305,3.0,91.0
1898,74.0,240,305,3.0,93.0
1899,67.0,120,852,5.0,70.0
1900,72.0,240,305,3.0,89.0
1901,71.0,240,152,3.0,84.0
1902,69.0,120,152,3.0,84.0
1903,65.0,0,308,5.0,84.0
1904,60.0,0,2276,6.0,70.0
1905,71.0,120,152,3.0,85.0
1906,69.0,120,152,3.0,93.0
1907,60.0,0,308,5.0,70.0
1908,71.0,120,97,3.0,94.0
1909,69.0,60,97,3.0,94.0
1910,71.0,60,97,3.0,94.0
1911,69.0,60,97,3.0,94.0
1912,65.0,0,308,5.0,87.0
1913,71.0,60,97,3.0,93.0
1914,60.0,0,396,6.0,70.0
1915,69.0,60,97,3.0,93.0
1916,71.0,60,97,3.0,93.0
1917,69.0,60,97,3.0,90.0
1918,60.0,0,308,5.0,70.0
1919,71.0,0,97,3.0,90.0
1920,69.0,60,97,3.0,88.0
1921,71.0,60,97,3.0,88.0
1922,69.0,60,97,3.0,85.0
1923,65.0,60,308,5.0,82.0
1924,71.0,60,97,3.0,85.0
1925,60.0,0,396,6.0,70.0
1926,69.0,60,97,3.0,83.0
1927,71.0,60,97,3.0,83.0
1928,69.0,60,97,3.0,83.0
1929,60.0,0,308,5.0,70.0
1930,71.0,0,97,3.0,80.0
1931,69.0,60,97,3.0,80.0
1932,71.0,60,97,3.0,80.0
1933,69.0,60,97,3.0,81.0
1934,65.0,0,308,5.0,82.0
1935,67.0,0,152,3.0,87.0
1936,60.0,60,412,6.0,70.0
1937,60.0,60,180,5.0,70.0
1938,69.0,120,152,3.0,92.0
1939,67.0,120,240,3.0,92.0
1940,72.0,240,240,3.0,79.0
1941,76.0,240,240,3.0,90.0
1942,79.0,240,240,3.0,95.0
1943,84.0,240,240,3.0,103.0
1944,88.0,240,240,3.0,110.0
1945,84.0,240,240,3.0,113.0
1946,64.0,0,1812,5.0,76.0
1947,79.0,240,180,3.0,111.0
1948,60.0,0,1920,6.0,70.0
1949,64.0,0,308,5.0,92.0
1950,55.0,0,404,6.0,70.0
1951,55.0,240,308,5.0,70.0
1952,64.0,0,308,5.0,91.0
1953,55.0,240,380,6.0,70.0
1954,79.0,240,900,3.0,101.0
1955,55.0,240,308,5.0,70.0
1956,79.0,0,152,3.0,90.0
1957,77.0,120,152,3.0,80.0
1958,62.0,0,308,5.0,82.0
1959,79.0,120,152,3.0,82.0
1960,55.0,240,396,6.0,70.0
1961,77.0,120,152,3.0,85.0
1962,55.0,0,308,5.0,70.0
1963,79.0,120,97,3.0,88.0
1964,77.0,60,97,3.0,91.0
1965,79.0,60,97,3.0,88.0
1966,77.0,60,97,3.0,85.0
1967,62.0,0,308,5.0,80.0
1968,76.0,0,152,3.0,83.0
1969,55.0,0,404,6.0,70.0
1970,55.0,60,180,5.0,70.0
1971,77.0,120,122,3.0,80.0
1972,76.0,84,122,3.0,80.0
1973,76.0,240,240,3.0,83.0
1974,77.0,0,97,3.0,93.0
1975,60.0,36,612,6.0,70.0
1976,76.0,60,97,3.0,96.0
1977,77.0,60,97,3.0,96.0
1978,76.0,60,97,3.0,96.0
1979,74.0,60,152,3.0,90.0
1980,60.0,0,172,6.0,70.0
1981,76.0,120,88,3.0,85.0
1982,77.0,120,210,3.0,87.0
1983,72.0,240,868,5.0,70.0
1984,77.0,240,255,3.0,93.0
1985,79.0,240,97,3.0,101.0
1986,62.0,0,636,6.0,70.0
1987,77.0,60,97,3.0,101.0
1988,79.0,60,97,3.0,101.0
1989,77.0,60,97,3.0,101.0
1990,76.0,0,152,3.0,99.0
1991,62.0,60,188,6.0,70.0
1992,77.0,120,87,3.0,95.0
1993,79.0,120,206,3.0,90.0
1994,72.0,0,876,5.0,70.0
1995,79.0,240,260,3.0,87.0
1996,81.0,0,97,3.0,94.0
1997,64.0,0,628,6.0,70.0
1998,79.0,60,97,3.0,97.0
1999,81.0,60,97,3.0,97.0
2000,79.0,60,97,3.0,97.0
2001,77.0,0,152,3.0,99.0
2002,64.0,60,196,6.0,70.0
2003,79.0,120,84,3.0,99.0
2004,81.0,0,202,3.0,99.0
2005,72.0,240,892,5.0,70.0
2006,81.0,240,267,3.0,91.0
2007,83.0,0,97,3.0,95.0
2008,81.0,60,97,3.0,98.0
2009,65.0,120,644,6.0,70.0
2010,83.0,60,97,3.0,100.0
2011,81.0,60,97,3.0,106.0
2012,79.0,0,152,3.0,106.0
2013,65.0,60,180,6.0,70.0
2014,81.0,120,92,3.0,108.0
2015,72.0,240,480,5.0,70.0
2016,62.0,120,428,6.0,70.0
2017,77.0,0,436,5.0,70.0
2018,83.0,0,528,3.0,111.0
2019,84.0,0,348,3.0,107.0
2020,60.0,0,412,6.0,70.0
2021,76.0,480,420,5.0,70.0
2022,77.0,0,420,3.0,99.0
2023,74.0,0,556,5.0,70.0
2024,59.0,480,564,6.0,70.0
2025,72.0,0,324,5.0,70.0
2026,76.0,480,396,3.0,93.0
2027,60.0,0,420,6.0,70.0
2028,67.0,240,292,6.0,70.0
2029,79.0,0,768,3.0,91.0
2030,66.0,240,292,6.0,70.0
2031,76.0,480,796,5.0,70.0
2032,67.0,240,172,6.0,70.0
2033,72.0,0,172,5.0,70.0
2034,76.0,0,324,3.0,83.0
2035,66.0,240,308,6.0,70.0
2036,74.0,0,348,3.0,83.0
2037,67.0,240,156,6.0,70.0
2038,71.0,0,480,5.0,70.0
2039,62.0,240,96,6.0,70.0
2040,59.0,240,96,6.0,70.0
2041,71.0,0,240,4.0,90.0
2042,55.0,0,480,4.0,90.0
2043,67.0,240,240,4.0,90.0
2044,55.0,240,480,6.0,70.0
2045,62.0,240,240,4.0,90.0
2046,60.0,240,240,4.0,90.0
2047,59.0,240,240,4.0,90.0
2048,62.0,240,240,4.0,90.0
2049,74.0,0,1440,3.0,90.0
2050,67.0,240,240,4.0,90.0
2051,71.0,0,240,3.0,90.0
2052,69.0,0,240,4.0,90.0
2053,72.0,240,240,3.0,90.0
2054,71.0,0,240,4.0,90.0
2055,74.0,240,432,3.0,90.0
2056,67.0,240,240,4.0,90.0
2057,43.0,0,480,4.0,90.0
2058,62.0,240,240,4.0,90.0
2059,74.0,0,444,3.0,90.0
2060,60.0,240,240,4.0,90.0
2061,59.0,0,240,4.0,90.0
2062,74.0,240,456,3.0,90.0
2063,62.0,240,240,4.0,90.0
2064,67.0,0,240,4.0,90.0
2065,74.0,240,444,3.0,90.0
2066,71.0,0,0,4.0,90.0
2067,62.0,240,240,4.0,90.0
2068,52.0,0,480,4.0,90.0
2069,40.0,0,480,4.0,90.0
2070,68.0,240,240,4.0,90.0
2071,74.0,240,780,3.0,90.0
2072,83.0,0,168,3.0,90.0
2073,71.0,240,240,4.0,90.0
2074,74.0,0,240,4.0,90.0
2075,68.0,240,240,4.0,90.0
2076,71.0,240,240,4.0,90.0
2077,74.0,240,240,4.0,90.0
2078,80.0,240,240,4.0,90.0
2079,71.0,240,240,4.0,90.0
2080,74.0,240,240,4.0,90.0
2081,80.0,240,240,4.0,90.0
2082,83.0,240,1920,3.0,90.0
2083,59.0,240,240,4.0,90.0
2084,83.0,240,480,4.0,90.0
2085,56.0,240,240,4.0,90.0
2086,52.0,240,240,4.0,90.0
2087,74.0,0,960,3.0,90.0
2088,69.0,0,240,4.0,90.0
2089,57.0,240,480,4.0,90.0
2090,64.0,240,240,4.0,90.0
2091,60.0,240,240,4.0,90.0
2092,59.0,240,240,4.0,90.0
2093,57.0,240,240,4.0,90.0
2094,72.0,0,1440,3.0,90.0
2095,60.0,240,240,4.0,90.0
2096,69.0,240,240,3.0,90.0
2097,64.0,0,240,4.0,90.0
2098,71.0,240,240,3.0,90.0
2099,68.0,0,240,4.0,90.0
2100,69.0,0,240,4.0,90.0
2101,72.0,240,408,3.0,90.0
2102,45.0,0,480,4.0,90.0
2103,64.0,240,240,4.0,90.0
2104,60.0,0,240,4.0,90.0
2105,72.0,240,432,3.0,90.0
2106,59.0,240,240,4.0,90.0
2107,57.0,0,240,4.0,90.0
2108,72.0,240,444,3.0,90.0
2109,60.0,240,240,4.0,90.0
2110,64.0,240,240,4.0,90.0
2111,72.0,0,420,3.0,90.0
2112,67.0,240,240,4.0,90.0
2113,66.0,0,240,4.0,90.0
2114,38.0,0,480,4.0,90.0
2115,50.0,0,480,4.0,90.0
2116,62.0,240,240,4.0,90.0
2117,66.0,240,240,4.0,90.0
2118,72.0,240,744,3.0,90.0
2119,81.0,240,156,3.0,90.0
2120,69.0,0,240,4.0,90.0
2121,72.0,240,240,4.0,90.0
2122,66.0,240,240,4.0,90.0
2123,69.0,240,240,4.0,90.0
2124,72.0,240,240,4.0,90.0
2125,78.0,240,240,4.0,90.0
2126,69.0,240,240,4.0,90.0
2127,72.0,240,240,4.0,90.0
2128,81.0,0,1920,3.0,90.0
2129,78.0,240,240,4.0,90.0
2130,57.0,240,240,4.0,90.0
2131,81.0,0,480,4.0,90.0
2132,54.0,240,240,4.0,90.0
2133,50.0,240,240,4.0,90.0
2134,72.0,240,960,3.0,90.0
2135,71.0,0,480,3.0,90.0
2136,55.0,0,480,4.0,90.0
2137,71.0,240,240,4.0,90.0
2138,74.0,240,240,4.0,90.0
2139,55.0,0,960,7.0,70.0
2140,79.0,240,240,4.0,90.0
2141,78.0,240,240,4.0,90.0
2142,60.0,0,480,4.0,90.0
2143,74.0,240,240,4.0,90.0
2144,48.0,0,480,4.0,90.0
2145,67.0,240,60,5.0,70.0
2146,66.0,60,60,5.0,70.0
2147,67.0,60,60,5.0,70.0
2148,66.0,60,60,5.0,70.0
2149,81.0,0,240,4.0,90.0
2150,67.0,60,60,5.0,70.0
2151,66.0,60,60,5.0,70.0
2152,67.0,60,60,5.0,70.0
2153,60.0,0,960,7.0,70.0
2154,66.0,60,60,5.0,70.0
2155,78.0,0,240,4.0,90.0
2156,79.0,0,240,4.0,90.0
2157,67.0,60,480,5.0,70.0
2158,47.0,0,480,4.0,90.0
2159,74.0,240,240,4.0,90.0
2160,59.0,0,480,4.0,90.0
2161,71.0,0,192,5.0,70.0
2162,83.0,240,240,4.0,90.0
2163,59.0,0,960,7.0,70.0
2164,79.0,240,240,4.0,90.0
2165,69.0,240,192,5.0,70.0
2166,81.0,0,240,4.0,90.0
2167,54.0,0,480,4.0,90.0
2168,74.0,240,240,4.0,90.0
2169,42.0,0,480,4.0,90.0
2170,72.0,240,192,5.0,70.0
2171,84.0,0,240,4.0,90.0
2172,54.0,0,960,7.0,70.0
2173,81.0,240,240,4.0,90.0
2174,83.0,0,240,4.0,90.0
2175,71.0,240,480,5.0,70.0
2176,43.0,0,480,4.0,90.0
2177,55.0,0,480,4.0,90.0
2178,74.0,240,240,4.0,90.0
2179,86.0,240,240,4.0,90.0
2180,55.0,0,960,7.0,70.0
2181,74.0,0,480,5.0,70.0
2182,83.0,240,240,4.0,90.0
2183,78.0,0,240,4.0,90.0
2184,48.0,0,480,4.0,90.0
2185,60.0,0,480,4.0,90.0
2186,74.0,240,240,4.0,90.0
2187,67.0,240,60,5.0,70.0
2188,66.0,60,60,5.0,70.0
2189,67.0,60,60,5.0,70.0
2190,81.0,0,240,4.0,90.0
2191,66.0,60,60,5.0,70.0
2192,67.0,0,60,5.0,70.0
2193,66.0,60,60,5.0,70.0
2194,67.0,60,60,5.0,70.0
2195,66.0,60,60,5.0,70.0
2196,60.0,240,960,7.0,70.0
2197,78.0,60,240,4.0,90.0
2198,79.0,0,240,4.0,90.0
2199,59.0,0,480,4.0,90.0
2200,67.0,60,480,5.0,70.0
2201,74.0,240,240,4.0,90.0
2202,47.0,0,480,4.0,90.0
2203,71.0,240,192,5.0,70.0
2204,83.0,0,240,4.0,90.0
2205,59.0,0,960,7.0,70.0
2206,79.0,240,240,4.0,90.0
2207,69.0,0,192,5.0,70.0
2208,81.0,0,240,4.0,90.0
2209,42.0,0,480,4.0,90.0
2210,74.0,240,240,4.0,90.0
2211,54.0,240,480,4.0,90.0
2212,72.0,240,192,5.0,70.0
2213,84.0,0,240,4.0,90.0
2214,54.0,0,960,7.0,70.0
2215,81.0,240,240,4.0,90.0
2216,83.0,0,240,4.0,90.0
2217,55.0,0,480,7.0,70.0
2218,55.0,0,480,4.0,90.0
2219,43.0,0,480,4.0,90.0
2220,62.0,240,8160,6.0,70.0
2221,71.0,240,480,5.0,70.0
2222,74.0,240,240,4.0,90.0
2223,86.0,240,240,4.0,90.0
2224,83.0,240,240,4.0,90.0
2225,76.0,0,240,4.0,90.0
2226,60.0,240,240,4.0,90.0
2227,64.0,240,240,4.0,90.0
2228,80.0,0,240,4.0,90.0
2229,74.0,0,960,5.0,70.0
2230,66.0,0,240,4.0,90.0
2231,81.0,240,240,4.0,90.0
2232,60.0,0,960,7.0,70.0
2233,69.0,0,240,4.0,90.0
2234,84.0,240,240,4.0,90.0
2235,76.0,0,960,6.0,70.0
2236,59.0,0,240,4.0,90.0
2237,74.0,240,240,4.0,90.0
2238,72.0,0,960,5.0,70.0
2239,62.0,0,240,4.0,90.0
2240,78.0,240,240,4.0,90.0
2241,64.0,0,240,4.0,90.0
2242,79.0,0,240,4.0,90.0
2243,59.0,0,960,7.0,70.0
2244,74.0,0,960,6.0,70.0
2245,67.0,0,240,4.0,90.0
2246,83.0,240,240,4.0,90.0
2247,57.0,0,240,4.0,90.0
2248,72.0,0,240,4.0,90.0
2249,76.0,240,240,4.0,90.0
2250,60.0,0,240,4.0,90.0
2251,71.0,240,960,5.0,70.0
2252,62.0,0,240,4.0,90.0
2253,78.0,0,240,4.0,90.0
2254,66.0,240,240,4.0,90.0
2255,81.0,0,240,4.0,90.0
2256,57.0,0,960,7.0,70.0
2257,72.0,240,960,6.0,70.0
2258,71.0,240,240,4.0,90.0
2259,55.0,0,240,4.0,90.0
2260,75.0,0,240,4.0,90.0
2261,69.0,240,960,5.0,70.0
2262,59.0,240,240,4.0,90.0
2263,61.0,0,240,4.0,90.0
2264,76.0,240,240,4.0,90.0
2265,55.0,0,960,7.0,70.0
2266,71.0,0,960,6.0,70.0
2267,79.0,0,240,4.0,90.0
2268,64.0,240,240,4.0,90.0
2269,54.0,240,240,4.0,90.0
2270,69.0,0,240,4.0,90.0
2271,67.0,0,960,5.0,70.0
2272,73.0,240,240,4.0,90.0
2273,57.0,0,240,4.0,90.0
2274,74.0,0,240,4.0,90.0
2275,59.0,240,240,4.0,90.0
2276,54.0,0,960,7.0,70.0
2277,69.0,0,0,6.0,90.0
2278,66.0,0,480,5.0,70.0
2279,62.0,240,240,4.0,90.0
2280,78.0,0,240,4.0,90.0
2281,67.0,0,240,4.0,90.0
2282,69.0,240,240,4.0,90.0
2283,73.0,240,240,4.0,90.0
2284,79.0,0,960,0.0,90.0
2285,73.0,230,960,1.0,90.0
2286,40.0,0,960,10.0,90.0
2287,64.0,0,960,2.0,90.0
2288,52.0,0,960,7.0,90.0
2289,67.0,0,960,6.0,90.0
2290,73.0,0,960,5.0,90.0
2291,76.0,240,240,4.0,90.0
2292,57.0,0,960,4.0,90.0
2293,61.0,0,960,4.0,90.0
2294,52.0,10,960,8.0,90.0
2295,52.0,0,960,4.0,90.0
2296,64.0,0,960,5.0,90.0
2297,55.0,0,960,4.0,90.0
2298,79.0,240,240,4.0,90.0
2299,76.0,240,240,4.0,90.0
2300,73.0,240,240,4.0,90.0
2301,67.0,240,240,4.0,90.0
2302,66.0,0,240,4.0,90.0
2303,69.0,240,240,4.0,90.0
2304,74.0,240,240,4.0,90.0
2305,74.0,230,960,1.0,90.0
2306,78.0,0,960,0.0,90.0
2307,66.0,0,960,6.0,90.0
2308,74.0,10,960,5.0,90.0
2309,62.0,0,960,4.0,90.0
2310,54.0,0,960,4.0,90.0
2311,69.0,0,960,6.0,90.0
2312,78.0,240,240,4.0,90.0
2313,62.0,0,960,5.0,90.0
2314,50.0,0,960,4.0,90.0
2315,57.0,0,960,4.0,90.0
2316,62.0,0,960,2.0,90.0
2317,38.0,0,960,10.0,90.0
2318,50.0,0,960,7.0,90.0
2319,50.0,0,960,8.0,90.0
2320,81.0,240,240,4.0,90.0
2321,78.0,240,240,4.0,90.0
2322,74.0,240,240,4.0,90.0
2323,69.0,240,240,4.0,90.0
2324,67.0,0,240,4.0,90.0
2325,69.0,240,240,4.0,90.0
2326,73.0,240,240,4.0,90.0
2327,85.0,230,960,0.0,90.0
2328,79.0,0,960,1.0,90.0
2329,69.0,0,960,6.0,90.0
2330,67.0,0,960,6.0,90.0
2331,52.0,0,960,8.0,90.0
2332,57.0,0,960,4.0,90.0
2333,40.0,0,960,10.0,90.0
2334,52.0,0,960,4.0,90.0
2335,55.0,0,960,4.0,90.0
2336,64.0,0,960,5.0,90.0
2337,73.0,0,960,5.0,90.0
2338,64.0,0,960,2.0,90.0
2339,61.0,10,960,4.0,90.0
2340,52.0,0,960,7.0,90.0
2341,76.0,240,240,4.0,90.0
2342,79.0,240,240,4.0,90.0
2343,76.0,240,240,4.0,90.0
2344,73.0,240,240,4.0,90.0
2345,67.0,240,240,4.0,90.0
2346,66.0,10,240,4.0,90.0
2347,78.0,0,480,1.0,70.0
2348,50.0,0,480,7.0,70.0
2349,74.0,0,480,5.0,70.0
2350,50.0,0,480,4.0,90.0
2351,50.0,0,480,8.0,70.0
2352,62.0,240,240,4.0,90.0
2353,62.0,0,480,5.0,70.0
2354,38.0,0,480,10.0,70.0
2355,66.0,0,480,6.0,70.0
2356,69.0,0,480,6.0,70.0
2357,62.0,0,480,2.0,70.0
2358,66.0,0,240,4.0,90.0
2359,54.0,240,240,4.0,90.0
2360,57.0,0,240,4.0,90.0
2361,69.0,240,240,4.0,90.0
2362,74.0,240,240,4.0,90.0
2363,62.0,0,240,4.0,90.0
2364,61.0,240,240,4.0,90.0
2365,73.0,0,240,4.0,90.0
2366,62.0,240,240,4.0,90.0
2367,74.0,0,240,4.0,90.0
2368,61.0,0,240,4.0,90.0
2369,73.0,240,240,4.0,90.0
2370,62.0,0,240,4.0,90.0
2371,50.0,0,240,7.0,70.0
2372,50.0,0,240,4.0,90.0
2373,74.0,240,480,4.0,90.0
2374,62.0,240,240,5.0,70.0
2375,66.0,0,240,5.0,70.0
2376,78.0,0,240,4.0,90.0
2377,54.0,0,240,4.0,90.0
2378,54.0,240,240,7.0,70.0
2379,57.0,0,240,4.0,90.0
2380,81.0,0,240,4.0,90.0
2381,57.0,0,240,7.0,70.0
2382,69.0,240,240,5.0,70.0
2383,62.0,0,240,7.0,70.0
2384,86.0,240,240,4.0,90.0
2385,74.0,0,240,5.0,70.0
2386,62.0,0,240,4.0,90.0
2387,61.0,240,240,7.0,70.0
2388,61.0,0,240,4.0,90.0
2389,85.0,0,240,4.0,90.0
2390,73.0,0,240,5.0,70.0
2391,62.0,0,240,7.0,70.0
2392,62.0,240,240,4.0,90.0
2393,74.0,0,240,5.0,70.0
2394,86.0,0,240,4.0,90.0
2395,85.0,0,240,4.0,90.0
2396,61.0,0,240,4.0,90.0
2397,73.0,240,240,5.0,70.0
2398,61.0,0,240,7.0,70.0
2399,50.0,10,240,10.0,105.0
2400,74.0,0,240,5.0,105.0
2401,62.0,0,240,8.0,105.0
2402,86.0,0,480,4.0,105.0
2403,49.0,240,240,10.0,105.0
2404,73.0,0,240,5.0,105.0
2405,61.0,0,240,8.0,105.0
2406,62.0,0,480,4.0,105.0
2407,62.0,0,240,8.0,105.0
2408,74.0,0,240,5.0,105.0
2409,50.0,240,240,10.0,105.0
2410,76.0,0,240,5.0,105.0
2411,64.0,240,240,8.0,105.0
2412,52.0,0,240,10.0,105.0
2413,48.0,0,240,10.0,105.0
2414,72.0,240,240,5.0,105.0
2415,60.0,0,240,8.0,105.0
2416,59.0,0,240,8.0,105.0
2417,71.0,240,240,5.0,105.0
2418,47.0,0,240,10.0,105.0
2419,72.0,240,240,5.0,105.0
2420,60.0,0,240,8.0,105.0
2421,48.0,0,240,10.0,105.0
2422,50.0,0,240,10.0,105.0
2423,62.0,0,240,8.0,105.0
2424,74.0,240,240,5.0,105.0
2425,47.0,240,240,10.0,105.0
2426,71.0,0,240,5.0,105.0
2427,59.0,0,240,8.0,105.0
2428,46.0,240,240,10.0,105.0
2429,58.0,0,240,8.0,105.0
2430,70.0,0,240,5.0,105.0
2431,59.0,0,240,8.0,105.0
2432,47.0,0,240,10.0,105.0
2433,71.0,240,240,5.0,105.0
2434,86.0,230,6720,0.0,70.0
2435,74.0,230,2880,1.0,105.0
2436,60.0,240,240,8.0,105.0
2437,72.0,0,240,5.0,105.0
2438,48.0,0,240,10.0,105.0
2439,45.0,0,240,10.0,105.0
2440,57.0,10,240,8.0,105.0
2441,69.0,0,240,5.0,105.0
2442,44.0,240,240,10.0,105.0
2443,56.0,0,240,8.0,105.0
2444,68.0,0,240,5.0,105.0
2445,45.0,240,240,10.0,105.0
2446,57.0,0,240,8.0,105.0
2447,69.0,0,240,5.0,105.0
2448,72.0,230,960,1.0,105.0
2449,78.0,0,960,0.0,105.0
2450,47.0,0,240,10.0,105.0
2451,59.0,0,240,8.0,105.0
2452,71.0,240,240,5.0,105.0
2453,71.0,230,480,1.0,105.0
2454,79.0,0,480,0.0,105.0
2455,62.0,0,4320,2.0,105.0
2456,55.0,0,480,2.0,105.0
2457,55.0,0,480,8.0,105.0
2458,67.0,10,480,5.0,105.0
2459,43.0,0,480,10.0,105.0
2460,79.0,480,408,3.0,105.0
2461,79.0,480,432,3.0,94.0
2462,79.0,480,432,3.0,109.0
2463,81.0,0,501,3.0,105.0
2464,83.0,480,108,3.0,103.0
2465,81.0,60,108,3.0,102.0
2466,79.0,60,108,3.0,100.0
2467,81.0,60,108,3.0,97.0
2468,50.0,0,960,8.0,70.0
2469,60.0,0,960,7.0,70.0
2470,38.0,480,960,10.0,70.0
2471,66.0,0,960,5.0,70.0
2472,83.0,60,288,3.0,97.0
2473,79.0,0,396,3.0,105.0
2474,55.0,0,480,8.0,70.0
2475,67.0,0,480,5.0,70.0
2476,62.0,0,1440,7.0,70.0
2477,59.0,240,480,7.0,70.0
2478,43.0,0,480,10.0,70.0
2479,79.0,480,408,3.0,105.0
2480,81.0,0,480,3.0,105.0
2481,83.0,480,108,3.0,101.0
2482,81.0,60,108,3.0,106.0
2483,79.0,60,108,3.0,106.0
2484,81.0,60,108,3.0,104.0
2485,60.0,0,960,7.0,70.0
2486,66.0,0,960,5.0,70.0
2487,50.0,480,960,8.0,70.0
2488,38.0,0,960,10.0,70.0
2489,83.0,60,288,3.0,101.0
2490,79.0,0,372,3.0,105.0
2491,55.0,0,480,8.0,70.0
2492,67.0,240,480,5.0,70.0
2493,43.0,0,480,10.0,70.0
2494,62.0,0,1440,7.0,70.0
2495,59.0,0,480,7.0,70.0
2496,84.0,0,384,3.0,105.0
2497,72.0,0,480,5.0,70.0
2498,67.0,0,0,7.0,70.0
2499,52.0,0,480,10.0,70.0
2500,64.0,480,480,8.0,70.0
2501,74.0,240,240,6.0,70.0
2502,73.0,240,240,6.0,70.0
2503,71.0,0,960,5.0,70.0
2504,62.0,0,960,8.0,70.0
2505,74.0,240,240,6.0,70.0
2506,50.0,0,960,10.0,70.0
2507,83.0,480,1008,3.0,112.0
2508,73.0,0,240,6.0,70.0
2509,74.0,240,240,6.0,70.0
2510,69.0,0,480,5.0,70.0
2511,66.0,240,480,7.0,70.0
2512,81.0,0,480,3.0,105.0
2513,73.0,240,240,6.0,70.0
2514,74.0,240,240,6.0,70.0
2515,54.0,0,480,7.0,70.0
2516,38.0,240,480,10.0,70.0
2517,57.0,0,480,5.0,70.0
2518,50.0,0,480,8.0,70.0
2519,81.0,480,408,3.0,105.0
2520,81.0,480,396,3.0,105.0
2521,81.0,480,408,3.0,105.0
2522,83.0,0,504,3.0,105.0
2523,84.0,480,108,3.0,100.0
2524,83.0,60,108,3.0,102.0
2525,81.0,60,108,3.0,107.0
2526,83.0,60,108,3.0,110.0
2527,55.0,0,960,8.0,70.0
2528,43.0,480,960,10.0,70.0
2529,59.0,0,960,5.0,70.0
2530,55.0,0,960,7.0,70.0
2531,84.0,60,300,3.0,107.0
2532,81.0,240,372,3.0,105.0
2533,60.0,0,480,5.0,70.0
2534,57.0,0,480,7.0,70.0
2535,54.0,0,480,8.0,70.0
2536,42.0,0,480,10.0,70.0
2537,81.0,480,420,3.0,96.0
2538,83.0,480,504,3.0,105.0
2539,84.0,480,108,3.0,104.0
2540,83.0,60,108,3.0,104.0
2541,81.0,60,108,3.0,107.0
2542,83.0,60,108,3.0,105.0
2543,55.0,0,960,8.0,70.0
2544,71.0,0,960,5.0,70.0
2545,43.0,0,960,10.0,70.0
2546,67.0,0,960,7.0,70.0
2547,84.0,60,300,3.0,105.0
2548,81.0,240,384,3.0,105.0
2549,54.0,0,480,8.0,70.0
2550,42.0,0,480,10.0,70.0
2551,69.0,0,480,7.0,70.0
2552,72.0,0,480,5.0,70.0
2553,86.0,0,360,3.0,98.0
2554,66.0,0,480,7.0,70.0
2555,74.0,0,480,5.0,70.0
2556,38.0,480,480,10.0,70.0
2557,62.0,0,5760,6.0,70.0
2558,50.0,0,480,8.0,70.0
2559,79.0,240,240,6.0,70.0
2560,78.0,240,240,6.0,70.0
2561,69.0,480,960,7.0,70.0
2562,55.0,0,960,8.0,70.0
2563,43.0,0,960,10.0,70.0
2564,79.0,240,240,6.0,70.0
2565,72.0,0,960,5.0,70.0
2566,84.0,0,1056,3.0,117.0
2567,78.0,240,240,6.0,70.0
2568,79.0,240,240,6.0,70.0
2569,67.0,0,480,7.0,70.0
2570,71.0,0,480,5.0,70.0
2571,83.0,0,480,3.0,105.0
2572,78.0,240,240,6.0,70.0
2573,79.0,240,240,6.0,70.0
2574,86.0,240,300,3.0,105.0
2575,85.0,240,300,3.0,105.0
2576,86.0,240,156,3.0,105.0
2577,62.0,0,480,5.0,70.0
2578,84.0,240,324,3.0,105.0
2579,74.0,0,480,5.0,70.0
2580,83.0,240,300,3.0,105.0
2581,81.0,0,300,3.0,105.0
2582,79.0,240,180,3.0,105.0
2583,59.0,0,1920,7.0,70.0
2584,71.0,240,480,5.0,70.0
2585,67.0,240,1920,6.0,70.0
2586,64.0,0,240,6.0,70.0
2587,69.0,0,480,5.0,70.0
2588,60.0,0,480,7.0,70.0
2589,68.0,240,240,6.0,70.0
2590,69.0,240,240,6.0,70.0
2591,88.0,240,792,3.0,105.0
2592,84.0,0,156,3.0,105.0
2593,72.0,240,240,6.0,70.0
2594,81.0,240,123,3.0,117.0
2595,76.0,240,240,5.0,70.0
2596,76.0,0,480,6.0,70.0
2597,60.0,0,480,7.0,70.0
2598,72.0,240,240,5.0,70.0
2599,69.0,240,240,5.0,70.0
2600,62.0,0,240,6.0,70.0
2601,67.0,240,480,5.0,70.0
2602,66.0,240,240,6.0,70.0
2603,59.0,0,480,7.0,70.0
2604,67.0,240,240,6.0,70.0
2605,86.0,0,768,3.0,105.0
2606,83.0,240,180,3.0,105.0
2607,71.0,0,240,6.0,70.0
2608,79.0,240,126,3.0,114.0
2609,74.0,0,480,6.0,70.0
2610,59.0,0,480,7.0,70.0
2611,74.0,240,240,5.0,70.0
2612,71.0,240,240,5.0,70.0
2613,67.0,240,240,5.0,70.0
2614,57.0,240,240,7.0,70.0
2615,72.0,0,240,6.0,70.0
2616,54.0,240,240,7.0,70.0
2617,69.0,0,240,6.0,70.0
2618,66.0,0,480,5.0,70.0
2619,72.0,240,240,6.0,70.0
2620,57.0,0,240,7.0,70.0
2621,78.0,0,780,3.0,105.0
2622,81.0,0,192,3.0,105.0
2623,69.0,240,240,6.0,70.0
2624,54.0,0,240,7.0,70.0
2625,84.0,0,125,3.0,121.0
2626,62.0,240,240,5.0,70.0
2627,66.0,240,480,6.0,70.0
2628,50.0,0,480,7.0,70.0
2629,67.0,0,240,6.0,70.0
2630,64.0,240,240,5.0,70.0
2631,69.0,240,240,6.0,70.0
2632,66.0,0,240,5.0,70.0
2633,71.0,0,0,6.0,70.0
2634,67.0,0,480,5.0,70.0
2635,83.0,0,384,3.0,105.0
2636,69.0,480,480,5.0,70.0
2637,63.0,0,480,7.0,70.0
2638,66.0,0,480,5.0,70.0
2639,83.0,0,324,3.0,105.0
2640,64.0,480,480,7.0,70.0
2641,67.0,0,480,5.0,70.0
2642,83.0,0,312,3.0,105.0
2643,63.0,480,480,7.0,70.0
2644,69.0,0,480,5.0,70.0
2645,66.0,0,480,5.0,70.0
2646,71.0,0,960,6.0,70.0
2647,64.0,480,480,7.0,70.0
2648,67.0,0,480,5.0,70.0
2649,83.0,0,540,3.0,105.0
2650,84.0,480,300,3.0,105.0
2651,86.0,240,168,3.0,105.0
2652,69.0,0,480,5.0,70.0
2653,67.0,240,480,6.0,70.0
2654,88.0,0,480,3.0,105.0
2655,60.0,0,480,7.0,70.0
2656,64.0,0,480,7.0,70.0
2657,84.0,480,300,3.0,105.0
2658,83.0,0,0,3.0,105.0
2659,69.0,0,240,5.0,70.0
2660,81.0,120,150,3.0,105.0
2661,83.0,0,150,3.0,105.0
2662,72.0,120,240,5.0,70.0
2663,62.0,0,0,7.0,70.0
2664,67.0,240,480,6.0,70.0
2665,81.0,120,150,3.0,105.0
2666,83.0,0,108,3.0,105.0
2667,81.0,60,108,3.0,105.0
2668,83.0,60,108,3.0,105.0
2669,71.0,120,240,5.0,70.0
2670,81.0,60,108,3.0,105.0
2671,83.0,60,108,3.0,105.0
2672,81.0,60,108,3.0,105.0
2673,83.0,60,108,3.0,105.0
2674,72.0,0,240,5.0,70.0
2675,67.0,0,480,6.0,70.0
2676,81.0,60,108,3.0,105.0
2677,83.0,60,108,3.0,105.0
2678,81.0,60,108,3.0,105.0
2679,83.0,60,108,3.0,105.0
2680,74.0,0,240,5.0,70.0
2681,81.0,60,108,3.0,105.0
2682,83.0,0,108,3.0,105.0
2683,81.0,60,108,3.0,105.0
2684,83.0,60,108,3.0,105.0
2685,66.0,0,480,6.0,70.0
2686,62.0,0,480,7.0,70.0
2687,72.0,60,240,5.0,70.0
2688,81.0,60,108,3.0,105.0
2689,83.0,60,108,3.0,105.0
2690,81.0,60,108,3.0,105.0
2691,83.0,60,108,3.0,105.0
2692,71.0,0,240,5.0,70.0
2693,81.0,60,108,3.0,105.0
2694,79.0,0,150,3.0,105.0
2695,66.0,0,480,6.0,70.0
2696,72.0,60,240,5.0,70.0
2697,62.0,0,480,7.0,70.0
2698,81.0,120,150,3.0,105.0
2699,55.0,120,240,7.0,70.0
2700,67.0,0,240,6.0,70.0
2701,71.0,0,240,6.0,70.0
2702,67.0,240,240,7.0,70.0
2703,71.0,0,480,5.0,70.0
2704,79.0,0,480,3.0,105.0
2705,66.0,0,240,7.0,70.0
2706,69.0,240,240,6.0,70.0
2707,67.0,0,240,6.0,70.0
2708,64.0,240,240,7.0,70.0
2709,66.0,240,240,6.0,70.0
2710,62.0,0,240,7.0,70.0
2711,60.0,0,240,7.0,70.0
2712,64.0,240,240,6.0,70.0
2713,59.0,240,240,7.0,70.0
2714,62.0,0,240,6.0,70.0
2715,57.0,240,240,7.0,70.0
2716,60.0,0,240,6.0,70.0
2717,55.0,0,240,4.0,105.0
2718,62.0,240,240,4.0,105.0
2719,55.0,0,480,7.0,70.0
2720,59.0,240,480,6.0,70.0
2721,59.0,10,240,4.0,105.0
2722,79.0,230,408,0.0,70.0
2723,62.0,240,240,4.0,105.0
2724,67.0,10,0,4.0,105.0
2725,71.0,0,552,1.0,70.0
2726,55.0,0,240,4.0,105.0
2727,79.0,0,396,0.0,70.0
2728,62.0,240,240,4.0,105.0
2729,74.0,230,576,1.0,70.0
2730,59.0,10,240,4.0,105.0
2731,79.0,230,480,0.0,70.0
2732,67.0,0,480,4.0,105.0
2733,62.0,240,240,4.0,105.0
2734,50.0,0,240,4.0,105.0
2735,62.0,240,240,4.0,105.0
2736,60.0,240,240,4.0,105.0
2737,69.0,10,720,4.0,105.0
2738,81.0,230,792,0.0,70.0
2739,62.0,0,240,4.0,105.0
2740,71.0,10,240,4.0,105.0
2741,78.0,0,1032,1.0,70.0
2742,83.0,230,312,0.0,70.0
2743,55.0,0,240,4.0,105.0
2744,79.0,230,336,0.0,70.0
2745,62.0,240,240,4.0,105.0
2746,67.0,10,480,4.0,105.0
2747,79.0,230,240,0.0,70.0
2748,74.0,0,240,1.0,70.0
2749,59.0,0,240,4.0,105.0
2750,62.0,240,240,4.0,105.0
2751,67.0,10,480,4.0,105.0
2752,50.0,0,240,4.0,105.0
2753,62.0,240,240,4.0,105.0
2754,60.0,240,240,4.0,105.0
2755,69.0,10,720,4.0,105.0
2756,81.0,230,792,0.0,70.0
2757,71.0,10,240,4.0,105.0
2758,62.0,0,240,4.0,105.0
2759,78.0,0,1032,1.0,70.0
2760,83.0,230,324,0.0,70.0
2761,55.0,0,240,4.0,105.0
2762,79.0,230,384,0.0,70.0
2763,59.0,240,240,4.0,105.0
2764,67.0,10,480,4.0,105.0
2765,52.0,0,240,4.0,105.0
2766,79.0,0,432,1.0,70.0
2767,84.0,230,444,0.0,70.0
2768,55.0,240,240,4.0,105.0
2769,67.0,10,0,4.0,105.0
2770,72.0,0,480,4.0,105.0
2771,50.0,0,240,4.0,105.0
2772,62.0,0,240,4.0,105.0
2773,86.0,240,300,3.0,104.0
2774,61.0,0,240,4.0,105.0
2775,85.0,240,300,3.0,101.0
2776,71.0,0,960,4.0,105.0
2777,62.0,0,240,4.0,105.0
2778,86.0,240,300,3.0,102.0
2779,83.0,230,1056,0.0,70.0
2780,79.0,0,1080,1.0,70.0
2781,61.0,0,240,4.0,105.0
2782,85.0,10,300,3.0,105.0
2783,81.0,230,480,0.0,70.0
2784,78.0,0,480,1.0,70.0
2785,69.0,0,480,4.0,105.0
2786,66.0,0,480,4.0,105.0
2787,62.0,0,240,4.0,105.0
2788,86.0,240,300,3.0,103.0
2789,61.0,0,240,4.0,105.0
2790,85.0,240,300,3.0,101.0
2791,62.0,240,240,4.0,105.0
2792,86.0,0,300,3.0,102.0
2793,50.0,0,240,4.0,105.0
2794,57.0,240,240,4.0,105.0
2795,54.0,0,240,4.0,105.0
2796,81.0,0,408,0.0,70.0
2797,78.0,230,432,1.0,70.0
2798,57.0,240,240,4.0,105.0
2799,69.0,10,480,4.0,105.0
2800,50.0,0,240,4.0,105.0
2801,81.0,0,408,0.0,70.0
2802,78.0,230,408,1.0,70.0
2803,69.0,10,480,4.0,105.0
2804,57.0,240,240,4.0,105.0
2805,54.0,10,240,4.0,105.0
2806,78.0,0,432,1.0,70.0
2807,81.0,230,444,0.0,70.0
2808,57.0,240,240,4.0,105.0
2809,69.0,0,480,4.0,105.0
2810,50.0,10,240,4.0,105.0
2811,59.0,240,240,4.0,105.0
2812,71.0,0,720,4.0,105.0
2813,55.0,240,240,4.0,105.0
2814,83.0,0,756,0.0,70.0
2815,79.0,230,768,1.0,70.0
2816,81.0,0,240,1.0,70.0
2817,59.0,10,240,4.0,105.0
2818,72.0,0,240,4.0,105.0
2819,84.0,230,288,0.0,70.0
2820,50.0,10,240,4.0,105.0
2821,78.0,230,396,1.0,70.0
2822,81.0,0,408,0.0,70.0
2823,57.0,240,240,4.0,105.0
2824,69.0,0,0,4.0,105.0
2825,81.0,230,228,0.0,70.0
2826,78.0,0,228,1.0,70.0
2827,54.0,10,240,4.0,105.0
2828,57.0,240,240,4.0,105.0
2829,50.0,0,240,4.0,105.0
2830,59.0,240,240,4.0,105.0
2831,55.0,240,240,4.0,105.0
2832,71.0,10,720,4.0,105.0
2833,79.0,230,780,1.0,70.0
2834,83.0,0,792,0.0,70.0
2835,81.0,230,240,1.0,70.0
2836,72.0,10,240,4.0,105.0
2837,59.0,0,240,4.0,105.0
2838,84.0,0,300,0.0,70.0
2839,50.0,10,240,4.0,105.0
2840,81.0,0,396,0.0,70.0
2841,78.0,230,396,1.0,70.0
2842,69.0,0,480,4.0,105.0
2843,57.0,240,240,4.0,105.0
2844,54.0,10,240,4.0,105.0
2845,81.0,0,396,1.0,70.0
2846,86.0,230,420,0.0,70.0
2847,57.0,240,240,4.0,105.0
2848,74.0,240,5760,3.0,100.0
2849,74.0,0,480,4.0,105.0
2850,43.0,0,240,4.0,105.0
2851,55.0,0,240,4.0,105.0
2852,79.0,240,300,3.0,105.0
2853,54.0,0,240,4.0,105.0
2854,78.0,240,300,3.0,105.0
2855,69.0,10,960,4.0,105.0
2856,55.0,240,240,4.0,105.0
2857,72.0,0,960,4.0,105.0
2858,79.0,0,300,3.0,105.0
2859,81.0,0,1044,1.0,70.0
2860,84.0,230,1044,0.0,70.0
2861,54.0,0,240,4.0,105.0
2862,78.0,0,300,3.0,105.0
2863,79.0,230,480,1.0,70.0
2864,83.0,0,480,0.0,70.0
2865,67.0,10,480,4.0,105.0
2866,71.0,0,480,4.0,105.0
2867,55.0,0,240,4.0,105.0
2868,79.0,240,300,3.0,105.0
2869,54.0,240,240,4.0,105.0
2870,78.0,0,300,3.0,105.0
2871,55.0,0,240,4.0,105.0
2872,79.0,240,300,3.0,105.0
2873,74.0,240,240,4.0,105.0
2874,67.0,0,480,5.0,70.0
2875,73.0,240,240,4.0,105.0
2876,67.0,0,852,3.0,105.0
2877,43.0,0,960,8.0,70.0
2878,71.0,0,480,5.0,70.0
2879,59.0,0,960,7.0,70.0
2880,62.0,0,960,6.0,70.0
2881,31.0,240,960,10.0,70.0
2882,43.0,0,960,4.0,105.0
2883,74.0,240,240,4.0,105.0
2884,72.0,0,240,4.0,105.0
2885,71.0,240,240,4.0,105.0
2886,74.0,240,480,5.0,70.0
2887,69.0,240,240,4.0,105.0
2888,86.0,0,912,3.0,105.0
2889,79.0,0,480,5.0,70.0
2890,47.0,0,480,4.0,105.0
2891,67.0,240,240,4.0,105.0
2892,50.0,0,480,7.0,70.0
2893,35.0,0,480,10.0,70.0
2894,47.0,0,480,8.0,70.0
2895,74.0,0,480,6.0,70.0
2896,48.0,0,240,4.0,105.0
2897,52.0,240,240,4.0,105.0
2898,76.0,0,480,4.0,105.0
2899,36.0,0,480,10.0,70.0
2900,76.0,0,480,5.0,70.0
2901,52.0,0,480,7.0,70.0
2902,72.0,0,480,6.0,70.0
2903,48.0,240,480,8.0,70.0
2904,88.0,0,480,3.0,105.0
2905,76.0,240,240,4.0,105.0
2906,57.0,0,240,4.0,105.0
2907,72.0,0,480,5.0,70.0
2908,52.0,0,480,8.0,70.0
2909,57.0,0,480,7.0,70.0
2910,60.0,0,240,4.0,105.0
2911,69.0,0,480,6.0,70.0
2912,40.0,0,480,10.0,70.0
2913,72.0,240,240,4.0,105.0
2914,48.0,0,240,4.0,105.0
2915,69.0,0,480,4.0,105.0
2916,52.0,240,240,4.0,105.0
2917,57.0,0,480,8.0,70.0
2918,60.0,0,480,7.0,70.0
2919,69.0,240,480,5.0,70.0
2920,45.0,0,480,10.0,70.0
2921,81.0,0,480,3.0,105.0
2922,64.0,0,480,6.0,70.0
2923,57.0,0,240,4.0,105.0
2924,84.0,0,240,3.0,105.0
2925,60.0,240,480,8.0,70.0
2926,88.0,240,240,3.0,105.0
2927,64.0,0,480,7.0,70.0
2928,60.0,0,480,6.0,70.0
2929,64.0,0,480,5.0,70.0
2930,60.0,0,240,4.0,105.0
2931,48.0,0,480,10.0,70.0
2932,47.0,0,240,4.0,105.0
2933,50.0,240,240,4.0,105.0
2934,50.0,0,480,7.0,70.0
2935,47.0,0,480,8.0,70.0
2936,35.0,0,480,10.0,70.0
2937,74.0,0,480,5.0,70.0
2938,74.0,0,480,4.0,105.0
2939,71.0,0,480,6.0,70.0
2940,86.0,240,480,3.0,105.0
2941,74.0,0,240,4.0,105.0
2942,55.0,0,240,4.0,105.0
2943,55.0,0,480,7.0,70.0
2944,71.0,240,480,5.0,70.0
2945,59.0,240,240,4.0,105.0
2946,71.0,0,240,4.0,105.0
2947,67.0,0,480,6.0,70.0
2948,50.0,0,480,8.0,70.0
2949,38.0,0,480,10.0,70.0
2950,47.0,0,240,4.0,105.0
2951,55.0,0,480,8.0,70.0
2952,67.0,0,480,5.0,70.0
2953,50.0,240,240,4.0,105.0
2954,59.0,240,480,7.0,70.0
2955,79.0,0,480,3.0,105.0
2956,43.0,0,480,10.0,70.0
2957,67.0,0,480,4.0,105.0
2958,62.0,0,480,6.0,70.0
2959,55.0,240,240,4.0,105.0
2960,83.0,0,240,3.0,105.0
2961,59.0,0,480,8.0,70.0
2962,59.0,0,480,6.0,70.0
2963,62.0,0,480,7.0,70.0
2964,86.0,240,240,3.0,105.0
2965,59.0,0,240,4.0,105.0
2966,47.0,0,480,10.0,70.0
2967,62.0,0,480,5.0,70.0
2968,45.0,0,240,4.0,105.0
2969,69.0,0,480,6.0,70.0
2970,48.0,240,240,4.0,105.0
2971,84.0,0,480,3.0,105.0
2972,72.0,0,480,5.0,70.0
2973,66.0,0,480,4.0,105.0
2974,45.0,0,480,8.0,70.0
2975,33.0,0,480,10.0,70.0
2976,48.0,240,480,7.0,70.0
2977,50.0,0,240,4.0,105.0
2978,66.0,0,240,4.0,105.0
2979,36.0,0,480,10.0,70.0
2980,66.0,240,480,6.0,70.0
2981,54.0,0,480,7.0,70.0
2982,69.0,0,480,5.0,70.0
2983,69.0,240,240,4.0,105.0
2984,54.0,0,240,4.0,105.0
2985,48.0,0,480,8.0,70.0
2986,45.0,0,240,4.0,105.0
2987,60.0,0,480,6.0,70.0
2988,57.0,0,480,7.0,70.0
2989,42.0,0,480,10.0,70.0
2990,66.0,0,480,5.0,70.0
2991,54.0,0,480,8.0,70.0
2992,72.0,240,480,3.0,105.0
2993,48.0,240,240,4.0,105.0
2994,72.0,0,480,4.0,105.0
2995,50.0,0,240,4.0,105.0
2996,69.0,0,240,3.0,105.0
2997,57.0,240,480,6.0,70.0
2998,57.0,0,480,8.0,70.0
2999,62.0,240,240,3.0,105.0
3000,60.0,0,480,7.0,70.0
3001,54.0,0,240,4.0,105.0
3002,45.0,0,480,10.0,70.0
3003,60.0,0,480,5.0,70.0
3004,71.0,240,240,4.0,105.0
3005,59.0,0,480,5.0,70.0
3006,55.0,0,480,4.0,105.0
3007,62.0,0,480,6.0,70.0
3008,55.0,0,480,8.0,70.0
3009,43.0,0,480,10.0,70.0
3010,55.0,0,480,7.0,70.0
3011,57.0,0,240,4.0,105.0
3012,72.0,240,240,4.0,105.0
3013,74.0,240,240,4.0,105.0
3014,59.0,0,240,4.0,105.0
3015,76.0,0,240,4.0,105.0
3016,60.0,240,240,4.0,105.0
3017,62.0,240,240,4.0,105.0
3018,78.0,0,240,4.0,105.0
3019,64.0,240,240,4.0,105.0
3020,79.0,0,240,4.0,105.0
3021,66.0,240,240,4.0,105.0
3022,81.0,0,240,4.0,105.0
3023,67.0,240,1920,3.0,105.0
3024,55.0,240,480,6.0,70.0
3025,71.0,0,480,5.0,70.0
3026,62.0,0,480,6.0,70.0
3027,67.0,0,480,4.0,105.0
3028,79.0,0,480,5.0,70.0
3029,83.0,0,480,4.0,105.0
3030,69.0,480,480,4.0,105.0
3031,84.0,0,480,4.0,105.0
3032,71.0,0,480,4.0,105.0
3033,86.0,480,480,4.0,105.0
3034,79.0,0,1920,3.0,105.0
3035,72.0,0,480,4.0,105.0
3036,88.0,480,480,4.0,105.0
3037,83.0,0,120,4.0,105.0
3038,67.0,0,120,4.0,105.0
3039,66.0,120,120,4.0,105.0
3040,81.0,0,120,4.0,105.0
3041,67.0,0,120,4.0,105.0
3042,83.0,120,120,4.0,105.0
3043,66.0,0,120,4.0,105.0
3044,81.0,120,120,4.0,105.0
3045,62.0,0,480,7.0,70.0
3046,62.0,0,480,5.0,70.0
3047,83.0,120,60,4.0,105.0
3048,67.0,0,60,4.0,105.0
3049,81.0,0,60,4.0,105.0
3050,66.0,60,60,4.0,105.0
3051,83.0,60,60,4.0,105.0
3052,67.0,0,60,4.0,105.0
3053,66.0,0,60,4.0,105.0
3054,81.0,60,60,4.0,105.0
3055,83.0,0,60,4.0,105.0
3056,67.0,60,60,4.0,105.0
3057,66.0,60,60,4.0,105.0
3058,81.0,0,60,4.0,105.0
3059,67.0,0,60,4.0,105.0
3060,83.0,60,60,4.0,105.0
3061,74.0,0,480,7.0,70.0
3062,81.0,0,480,6.0,70.0
3063,74.0,480,960,3.0,105.0
3064,81.0,0,60,4.0,105.0
3065,84.0,0,480,5.0,70.0
3066,66.0,60,60,4.0,105.0
3067,67.0,0,60,4.0,105.0
3068,83.0,0,60,4.0,105.0
3069,66.0,0,60,4.0,105.0
3070,81.0,60,60,4.0,105.0
3071,83.0,60,60,4.0,105.0
3072,67.0,0,60,4.0,105.0
3073,66.0,60,60,4.0,105.0
3074,81.0,0,60,4.0,105.0
3075,67.0,0,60,4.0,105.0
3076,83.0,60,60,4.0,105.0
3077,66.0,0,60,4.0,105.0
3078,81.0,60,60,4.0,105.0
3079,67.0,60,60,4.0,105.0
3080,83.0,0,60,4.0,105.0
3081,66.0,60,60,4.0,105.0
3082,62.0,0,480,7.0,70.0
3083,81.0,0,60,4.0,105.0
3084,62.0,0,480,5.0,70.0
3085,83.0,0,60,4.0,105.0
3086,67.0,0,60,4.0,105.0
3087,81.0,0,60,4.0,105.0
3088,66.0,60,60,4.0,105.0
3089,83.0,0,60,4.0,105.0
3090,67.0,60,60,4.0,105.0
3091,66.0,60,60,4.0,105.0
3092,81.0,0,60,4.0,105.0
3093,79.0,0,120,4.0,105.0
3094,64.0,60,120,4.0,105.0
3095,81.0,0,120,4.0,105.0
3096,74.0,0,480,7.0,70.0
3097,66.0,120,120,4.0,105.0
3098,62.0,60,960,3.0,105.0
3099,72.0,0,480,5.0,70.0
3100,69.0,60,480,6.0,70.0
3101,78.0,0,480,6.0,70.0
3102,81.0,0,480,5.0,70.0
3103,55.0,120,480,7.0,70.0
3104,67.0,0,480,7.0,70.0
3105,55.0,0,480,6.0,70.0
3106,71.0,0,480,5.0,70.0
3107,79.0,0,480,5.0,70.0
3108,67.0,0,480,3.0,105.0
3109,62.0,0,480,6.0,70.0
3110,79.0,0,480,4.0,105.0
3111,67.0,0,0,4.0,105.0
3112,67.0,0,0,4.0,105.0
3113,55.0,240,0,4.0,105.0
3114,54.0,240,240,4.0,105.0
3115,66.0,0,240,4.0,105.0
3116,57.0,0,240,4.0,105.0
3117,69.0,240,240,4.0,105.0
3118,60.0,240,240,4.0,105.0
3119,72.0,0,240,4.0,105.0
3120,72.0,0,240,4.0,105.0
3121,60.0,240,240,4.0,105.0
3122,59.0,0,240,4.0,105.0
3123,71.0,240,240,4.0,105.0
3124,62.0,240,240,4.0,105.0
3125,74.0,0,240,4.0,105.0
3126,79.0,0,0,4.0,105.0
3127,67.0,240,0,4.0,105.0
3128,78.0,0,240,4.0,105.0
3129,66.0,240,240,4.0,105.0
3130,69.0,0,240,4.0,105.0
3131,81.0,240,240,4.0,105.0
3132,72.0,240,240,4.0,105.0
3133,84.0,0,240,4.0,105.0
3134,72.0,0,240,4.0,105.0
3135,84.0,240,240,4.0,105.0
3136,71.0,0,480,4.0,105.0
3137,83.0,28,32,4.0,105.0
3138,67.0,0,96,3.0,116.0
3139,62.0,240,0,4.0,105.0
3140,67.0,0,96,3.0,116.0
3141,79.0,32,540,4.0,105.0
3142,74.0,388,572,4.0,105.0
3143,86.0,32,480,4.0,105.0
3144,66.0,0,300,3.0,105.0
3145,69.0,240,180,3.0,105.0
3146,72.0,0,480,6.0,70.0
3147,62.0,0,480,6.0,70.0
3148,69.0,0,480,4.0,105.0
3149,69.0,240,480,7.0,70.0
3150,78.0,0,480,5.0,70.0
3151,69.0,0,480,5.0,70.0
3152,72.0,0,96,3.0,115.0
3153,62.0,32,240,4.0,105.0
3154,72.0,0,96,3.0,119.0
3155,62.0,240,240,4.0,105.0
3156,86.0,0,480,4.0,105.0
3157,81.0,28,512,4.0,105.0
3158,78.0,32,540,4.0,105.0
3159,74.0,148,572,4.0,105.0
3160,67.0,0,288,3.0,105.0
3161,71.0,240,192,3.0,105.0
3162,71.0,0,480,7.0,70.0
3163,79.0,0,480,5.0,70.0
3164,74.0,240,480,6.0,70.0
3165,71.0,0,480,4.0,105.0
3166,71.0,0,480,5.0,70.0
3167,62.0,0,480,6.0,70.0
3168,74.0,0,96,3.0,117.0
3169,62.0,240,0,4.0,105.0
3170,74.0,0,96,3.0,119.0
3171,79.0,32,540,4.0,105.0
3172,83.0,28,512,4.0,105.0
3173,86.0,32,480,4.0,105.0
3174,74.0,148,572,4.0,105.0
3175,69.0,0,312,3.0,105.0
3176,74.0,240,180,3.0,105.0
3177,66.0,240,480,4.0,105.0
3178,66.0,0,480,7.0,70.0
3179,72.0,0,480,6.0,70.0
3180,81.0,0,480,5.0,70.0
3181,74.0,0,480,5.0,70.0
3182,62.0,0,480,6.0,70.0
3183,78.0,0,96,3.0,122.0
3184,62.0,32,240,4.0,105.0
3185,78.0,0,96,3.0,113.0
3186,74.0,148,572,4.0,105.0
3187,81.0,32,540,4.0,105.0
3188,84.0,28,512,4.0,105.0
3189,86.0,0,480,4.0,105.0
3190,62.0,240,240,4.0,105.0
3191,79.0,0,360,3.0,105.0
3192,71.0,0,480,6.0,70.0
3193,62.0,0,480,6.0,70.0
3194,74.0,0,480,5.0,70.0
3195,67.0,240,480,4.0,105.0
3196,83.0,0,480,5.0,70.0
3197,67.0,0,480,7.0,70.0
3198,67.0,0,96,3.0,118.0
3199,62.0,0,240,4.0,105.0
3200,67.0,0,96,3.0,116.0
3201,74.0,388,572,4.0,105.0
3202,79.0,32,540,4.0,105.0
3203,83.0,28,512,4.0,105.0
3204,86.0,32,480,4.0,105.0
3205,62.0,240,240,4.0,105.0
3206,66.0,0,288,3.0,105.0
3207,69.0,240,192,3.0,105.0
3208,62.0,240,480,6.0,70.0
3209,69.0,0,480,5.0,70.0
3210,78.0,0,480,5.0,70.0
3211,69.0,0,480,4.0,105.0
3212,69.0,0,480,7.0,70.0
3213,72.0,0,480,6.0,70.0
3214,72.0,0,96,3.0,115.0
3215,62.0,240,0,4.0,105.0
3216,72.0,0,96,3.0,117.0
3217,81.0,28,512,4.0,105.0
3218,78.0,32,540,4.0,105.0
3219,74.0,148,572,4.0,105.0
3220,86.0,32,480,4.0,105.0
3221,67.0,0,312,3.0,105.0
3222,71.0,240,192,3.0,105.0
3223,71.0,0,480,7.0,70.0
3224,71.0,240,480,5.0,70.0
3225,74.0,0,480,6.0,70.0
3226,62.0,0,480,6.0,70.0
3227,71.0,0,480,4.0,105.0
3228,79.0,0,480,5.0,70.0
3229,74.0,32,96,3.0,116.0
3230,62.0,240,0,4.0,105.0
3231,74.0,0,96,3.0,115.0
3232,86.0,0,480,4.0,105.0
3233,83.0,28,512,4.0,105.0
3234,79.0,32,540,4.0,105.0
3235,74.0,148,572,4.0,105.0
3236,69.0,0,300,3.0,105.0
3237,74.0,240,192,3.0,105.0
3238,74.0,0,480,5.0,70.0
3239,66.0,240,480,4.0,105.0
3240,72.0,0,480,6.0,70.0
3241,62.0,0,480,6.0,70.0
3242,66.0,0,480,7.0,70.0
3243,81.0,0,480,5.0,70.0
3244,78.0,0,96,3.0,121.0
3245,62.0,0,0,4.0,105.0
3246,78.0,240,96,3.0,120.0
3247,84.0,28,512,4.0,105.0
3248,86.0,32,480,4.0,105.0
3249,81.0,32,540,4.0,105.0
3250,74.0,148,572,4.0,105.0
3251,83.0,156,164,4.0,105.0
3252,67.0,0,480,4.0,105.0
3253,62.0,240,480,6.0,70.0
3254,79.0,0,480,3.0,105.0
3255,74.0,0,480,5.0,70.0
3256,83.0,0,480,5.0,70.0
3257,71.0,0,480,6.0,70.0
3258,84.0,164,160,4.0,105.0
3259,67.0,0,480,7.0,70.0
3260,86.0,160,156,4.0,105.0
3261,84.0,156,164,4.0,105.0
3262,83.0,164,160,4.0,105.0
3263,79.0,156,164,4.0,105.0
3264,81.0,164,160,4.0,105.0
3265,64.0,160,480,4.0,105.0
3266,83.0,160,156,4.0,105.0
3267,81.0,156,164,4.0,105.0
3268,79.0,164,160,4.0,105.0
3269,76.0,156,164,4.0,105.0
3270,78.0,164,160,4.0,105.0
3271,60.0,160,480,4.0,105.0
3272,79.0,160,156,4.0,105.0
3273,78.0,156,164,4.0,105.0
3274,76.0,164,160,4.0,105.0
3275,72.0,156,164,4.0,105.0
3276,74.0,164,160,4.0,105.0
3277,57.0,160,480,4.0,105.0
3278,76.0,160,156,4.0,105.0
3279,74.0,156,164,4.0,105.0
3280,72.0,164,160,4.0,105.0
3281,50.0,240,96,4.0,105.0
3282,52.0,240,96,4.0,105.0
3283,54.0,240,96,4.0,105.0
3284,84.0,0,960,4.0,105.0
3285,81.0,0,960,4.0,105.0
3286,74.0,0,0,4.0,105.0
3287,55.0,240,96,4.0,105.0
3288,57.0,240,96,4.0,105.0
3289,83.0,0,480,4.0,105.0
3290,79.0,0,480,4.0,105.0
3291,59.0,0,96,4.0,105.0
3292,60.0,240,96,4.0,105.0
3293,79.0,0,480,4.0,105.0
3294,74.0,0,480,4.0,105.0
3295,71.0,240,480,4.0,105.0
3296,62.0,0,480,4.0,105.0
3297,78.0,240,480,4.0,105.0
3298,74.0,0,0,4.0,105.0
3299,69.0,0,480,4.0,105.0
3300,71.0,0,480,4.0,105.0
3301,79.0,0,480,4.0,105.0
3302,59.0,480,480,4.0,105.0
3303,81.0,0,480,4.0,105.0
3304,76.0,0,480,4.0,105.0
3305,69.0,0,480,4.0,105.0
3306,60.0,480,480,4.0,105.0
3307,62.0,0,480,4.0,105.0
3308,69.0,0,480,4.0,105.0
3309,72.0,0,480,4.0,105.0
3310,78.0,480,480,4.0,105.0
3311,83.0,156,164,4.0,105.0
3312,67.0,480,480,4.0,105.0
3313,84.0,164,160,4.0,105.0
3314,67.0,0,480,7.0,70.0
3315,86.0,160,156,4.0,105.0
3316,84.0,156,164,4.0,105.0
3317,83.0,164,160,4.0,105.0
3318,67.0,0,480,6.0,70.0
3319,86.0,0,480,5.0,70.0
3320,79.0,156,164,4.0,105.0
3321,81.0,164,160,4.0,105.0
3322,64.0,0,480,7.0,70.0
3323,64.0,160,480,4.0,105.0
3324,83.0,160,156,4.0,105.0
3325,81.0,156,164,4.0,105.0
3326,79.0,164,160,4.0,105.0
3327,64.0,0,480,6.0,70.0
3328,79.0,0,480,5.0,70.0
3329,76.0,156,164,4.0,105.0
3330,60.0,0,480,7.0,70.0
3331,78.0,164,160,4.0,105.0
3332,60.0,160,480,4.0,105.0
3333,79.0,0,156,4.0,105.0
3334,78.0,156,164,4.0,105.0
3335,60.0,0,480,6.0,70.0
3336,76.0,164,160,4.0,105.0
3337,76.0,160,480,5.0,70.0
3338,72.0,156,164,4.0,105.0
3339,57.0,0,480,4.0,105.0
3340,74.0,164,160,4.0,105.0
3341,57.0,160,480,7.0,70.0
3342,76.0,160,156,4.0,105.0
3343,74.0,156,164,4.0,105.0
3344,57.0,0,480,6.0,70.0
3345,72.0,164,160,4.0,105.0
3346,72.0,0,0,5.0,90.0
3347,50.0,240,96,4.0,105.0
3348,52.0,240,96,4.0,105.0
3349,54.0,240,96,4.0,105.0
3350,84.0,0,960,4.0,105.0
3351,74.0,240,0,4.0,105.0
3352,81.0,160,960,4.0,105.0
3353,69.0,0,960,6.0,90.0
3354,55.0,0,96,4.0,105.0
3355,57.0,240,96,4.0,105.0
3356,71.0,0,480,5.0,70.0
3357,62.0,0,1440,7.0,90.0
3358,67.0,0,480,6.0,70.0
3359,83.0,0,480,4.0,105.0
3360,79.0,0,480,4.0,105.0
3361,74.0,0,0,4.0,105.0
3362,59.0,0,96,4.0,105.0
3363,60.0,240,96,4.0,105.0
3364,79.0,240,480,4.0,105.0
3365,71.0,0,480,4.0,105.0
3366,62.0,0,480,4.0,105.0
3367,69.0,240,480,4.0,105.0
3368,74.0,0,480,4.0,105.0
3369,78.0,0,480,4.0,105.0
3370,79.0,480,480,4.0,105.0
3371,74.0,0,480,4.0,105.0
3372,71.0,0,480,4.0,105.0
3373,59.0,0,480,4.0,105.0
3374,76.0,0,480,4.0,105.0
3375,60.0,480,480,4.0,105.0
3376,81.0,0,480,4.0,105.0
3377,69.0,0,480,4.0,105.0
3378,72.0,0,480,4.0,105.0
3379,78.0,0,480,4.0,105.0
3380,69.0,480,480,4.0,105.0
3381,62.0,0,480,4.0,105.0
3382,50.0,240,96,4.0,105.0
3383,52.0,240,96,4.0,105.0
3384,54.0,240,96,4.0,105.0
3385,81.0,0,960,4.0,105.0
3386,84.0,0,960,4.0,105.0
3387,72.0,0,960,5.0,90.0
3388,74.0,0,0,4.0,105.0
3389,69.0,480,960,6.0,90.0
3390,55.0,0,96,4.0,105.0
3391,57.0,240,96,4.0,105.0
3392,67.0,240,480,6.0,70.0
3393,83.0,0,480,4.0,105.0
3394,79.0,0,480,4.0,105.0
3395,71.0,0,480,5.0,70.0
3396,62.0,0,1440,7.0,90.0
3397,59.0,240,96,4.0,105.0
3398,60.0,240,96,4.0,105.0
3399,79.0,0,480,4.0,105.0
3400,74.0,0,480,4.0,105.0
3401,71.0,0,480,4.0,105.0
3402,69.0,240,480,4.0,105.0
3403,74.0,0,480,4.0,105.0
3404,78.0,0,480,4.0,105.0
3405,62.0,0,480,4.0,105.0
3406,74.0,0,480,4.0,105.0
3407,71.0,480,480,4.0,105.0
3408,59.0,0,480,4.0,105.0
3409,79.0,0,480,4.0,105.0
3410,60.0,0,480,4.0,105.0
3411,69.0,0,480,4.0,105.0
3412,76.0,0,480,4.0,105.0
3413,81.0,480,480,4.0,105.0
3414,78.0,0,480,4.0,105.0
3415,72.0,0,480,4.0,105.0
3416,69.0,0,480,4.0,105.0
3417,62.0,480,480,4.0,105.0
3418,71.0,0,240,5.0,70.0
3419,59.0,0,240,6.0,70.0
3420,79.0,0,480,4.0,105.0
3421,55.0,480,480,4.0,105.0
3422,71.0,0,480,4.0,105.0
3423,74.0,0,480,4.0,105.0
3424,62.0,240,240,6.0,70.0
3425,74.0,0,240,5.0,70.0
3426,71.0,0,240,5.0,70.0
3427,59.0,240,240,6.0,70.0
3428,62.0,0,240,6.0,70.0
3429,74.0,240,240,5.0,70.0
3430,59.0,240,240,6.0,70.0
3431,71.0,0,240,5.0,70.0
3432,79.0,0,1380,3.0,105.0
3433,74.0,0,240,5.0,70.0
3434,67.0,0,1440,7.0,70.0
3435,62.0,240,240,6.0,70.0
3436,72.0,240,240,5.0,70.0
3437,60.0,0,240,6.0,70.0
3438,81.0,0,300,3.0,105.0
3439,74.0,240,240,5.0,70.0
3440,62.0,0,240,6.0,70.0
3441,66.0,0,480,7.0,70.0
3442,83.0,0,324,3.0,105.0
3443,71.0,0,240,5.0,70.0
3444,59.0,0,240,6.0,70.0
3445,79.0,0,396,3.0,105.0
3446,67.0,240,480,7.0,70.0
3447,74.0,240,240,5.0,70.0
3448,62.0,0,240,6.0,70.0
3449,60.0,0,240,6.0,70.0
3450,72.0,0,240,5.0,70.0
3451,81.0,0,300,3.0,105.0
3452,74.0,0,240,5.0,70.0
3453,66.0,240,480,7.0,70.0
3454,62.0,240,240,6.0,70.0
3455,83.0,0,324,3.0,105.0
3456,71.0,0,240,5.0,70.0
3457,59.0,0,240,6.0,70.0
3458,79.0,240,384,3.0,105.0
3459,67.0,0,480,7.0,70.0
3460,62.0,240,240,6.0,70.0
3461,74.0,0,240,5.0,70.0
3462,72.0,0,240,5.0,70.0
3463,60.0,0,240,6.0,70.0
3464,81.0,240,300,3.0,105.0
3465,66.0,0,480,7.0,70.0
3466,62.0,0,240,6.0,70.0
3467,74.0,0,240,5.0,70.0
3468,83.0,240,324,3.0,105.0
3469,71.0,0,240,5.0,70.0
3470,59.0,0,240,6.0,70.0
3471,79.0,240,372,3.0,105.0
3472,62.0,0,240,6.0,70.0
3473,74.0,240,240,5.0,70.0
3474,59.0,240,240,6.0,70.0
3475,71.0,0,240,5.0,70.0
3476,83.0,0,348,3.0,105.0
3477,62.0,240,240,6.0,70.0
3478,74.0,0,240,5.0,70.0
3479,71.0,240,240,5.0,70.0
3480,59.0,0,240,6.0,70.0
3481,43.0,0,5280,10.0,70.0
3482,74.0,0,240,5.0,70.0
3483,62.0,240,240,6.0,70.0
3484,55.0,0,5280,8.0,84.0
3485,59.0,0,240,6.0,70.0
3486,71.0,0,240,5.0,70.0
3487,59.0,0,480,8.0,70.0
3488,62.0,240,240,6.0,70.0
3489,47.0,240,480,10.0,70.0
3490,74.0,0,240,5.0,70.0
3491,67.0,0,0,7.0,70.0
3492,59.0,240,240,6.0,70.0
3493,71.0,0,240,5.0,70.0
3494,86.0,0,1308,3.0,105.0
3495,74.0,240,240,5.0,70.0
3496,62.0,0,240,6.0,70.0
3497,59.0,0,240,6.0,70.0
3498,71.0,240,240,5.0,70.0
3499,84.0,0,312,3.0,105.0
3500,83.0,0,180,3.0,105.0
3501,74.0,0,240,5.0,70.0
3502,55.0,0,960,7.0,70.0
3503,50.0,0,960,10.0,70.0
3504,62.0,0,960,8.0,70.0
3505,62.0,240,240,6.0,70.0
3506,72.0,0,240,5.0,70.0
3507,60.0,0,240,6.0,70.0
3508,83.0,0,288,3.0,105.0
3509,81.0,0,180,3.0,105.0
3510,74.0,240,240,5.0,70.0
3511,62.0,0,240,6.0,70.0
3512,72.0,0,240,5.0,70.0
3513,60.0,240,240,6.0,70.0
3514,79.0,0,324,3.0,105.0
3515,50.0,0,960,8.0,70.0
3516,62.0,0,240,6.0,70.0
3517,66.0,0,960,7.0,70.0
3518,74.0,0,240,5.0,70.0
3519,57.0,0,960,7.0,70.0
3520,38.0,240,960,10.0,70.0
3521,81.0,240,312,3.0,105.0
3522,67.0,0,240,4.0,105.0
3523,71.0,0,240,4.0,105.0
3524,59.0,240,240,4.0,105.0
3525,74.0,0,240,4.0,105.0
3526,67.0,0,240,4.0,105.0
3527,71.0,240,240,4.0,105.0
3528,67.0,0,960,7.0,70.0
3529,55.0,0,960,7.0,70.0
3530,59.0,0,960,6.0,70.0
3531,71.0,0,960,5.0,70.0
3532,59.0,240,240,4.0,105.0
3533,43.0,0,960,10.0,70.0
3534,74.0,0,240,4.0,105.0
3535,55.0,240,960,8.0,70.0
3536,67.0,0,240,4.0,105.0
3537,71.0,240,240,4.0,105.0
3538,79.0,0,1248,3.0,105.0
3539,74.0,0,240,4.0,105.0
3540,59.0,0,240,4.0,105.0
3541,83.0,240,300,3.0,105.0
3542,66.0,0,240,4.0,105.0
3543,72.0,0,240,4.0,105.0
3544,81.0,240,300,3.0,105.0
3545,62.0,0,480,6.0,70.0
3546,50.0,0,480,8.0,70.0
3547,59.0,0,240,4.0,105.0
3548,38.0,0,480,10.0,70.0
3549,78.0,0,480,5.0,70.0
3550,74.0,0,240,4.0,105.0
3551,72.0,0,480,6.0,70.0
3552,69.0,0,480,7.0,70.0
3553,62.0,0,480,7.0,70.0
3554,83.0,240,300,3.0,105.0
3555,67.0,0,240,4.0,105.0
3556,71.0,0,240,4.0,105.0
3557,79.0,0,300,3.0,105.0
3558,62.0,0,480,6.0,70.0
3559,67.0,0,480,7.0,70.0
3560,74.0,0,240,4.0,105.0
3561,59.0,240,240,4.0,105.0
3562,71.0,0,480,6.0,70.0
3563,55.0,240,480,8.0,70.0
3564,43.0,0,480,10.0,70.0
3565,79.0,0,480,5.0,70.0
3566,83.0,0,300,3.0,105.0
3567,66.0,0,240,4.0,105.0
3568,72.0,0,240,4.0,105.0
3569,81.0,0,300,3.0,105.0
3570,38.0,0,480,10.0,70.0
3571,69.0,240,480,7.0,70.0
3572,62.0,0,480,7.0,70.0
3573,50.0,0,480,8.0,70.0
3574,78.0,0,480,5.0,70.0
3575,62.0,0,0,6.0,70.0
3576,59.0,240,240,4.0,105.0
3577,74.0,0,240,4.0,105.0
3578,72.0,0,480,6.0,70.0
3579,83.0,0,300,3.0,105.0
3580,67.0,0,240,4.0,105.0
3581,71.0,0,240,4.0,105.0
3582,79.0,0,300,3.0,105.0
3583,59.0,0,240,4.0,105.0
3584,43.0,0,480,10.0,70.0
3585,79.0,0,480,5.0,70.0
3586,55.0,240,480,8.0,70.0
3587,67.0,0,480,7.0,70.0
3588,74.0,0,240,4.0,105.0
3589,62.0,0,0,6.0,70.0
3590,71.0,0,480,6.0,70.0
3591,83.0,240,300,3.0,105.0
3592,66.0,0,240,4.0,105.0
3593,72.0,0,240,4.0,105.0
3594,81.0,0,300,3.0,105.0
3595,78.0,0,480,5.0,70.0
3596,74.0,0,240,4.0,105.0
3597,59.0,240,240,4.0,105.0
3598,38.0,0,480,10.0,70.0
3599,50.0,0,480,8.0,70.0
3600,62.0,240,480,7.0,70.0
3601,69.0,0,480,7.0,70.0
3602,72.0,0,480,6.0,70.0
3603,62.0,0,0,6.0,70.0
3604,83.0,0,300,3.0,105.0
3605,67.0,0,240,4.0,105.0
3606,71.0,0,240,4.0,105.0
3607,79.0,0,300,3.0,105.0
3608,59.0,240,240,4.0,105.0
3609,74.0,0,240,4.0,105.0
3610,71.0,0,480,6.0,70.0
3611,55.0,0,480,8.0,70.0
3612,79.0,0,480,5.0,70.0
3613,43.0,0,480,10.0,70.0
3614,67.0,240,480,7.0,70.0
3615,67.0,240,240,4.0,105.0
3616,71.0,0,240,4.0,105.0
3617,83.0,0,300,3.0,105.0
3618,74.0,0,240,4.0,105.0
3619,59.0,240,240,4.0,105.0
3620,67.0,240,240,4.0,105.0
3621,71.0,0,240,4.0,105.0
3622,67.0,0,480,5.0,70.0
3623,43.0,0,480,10.0,70.0
3624,55.0,0,480,8.0,70.0
3625,59.0,0,240,4.0,105.0
3626,74.0,240,240,4.0,105.0
3627,67.0,0,240,4.0,105.0
3628,71.0,0,240,4.0,105.0
3629,71.0,240,480,5.0,70.0
3630,59.0,0,240,4.0,105.0
3631,74.0,240,240,4.0,105.0
3632,47.0,0,480,10.0,70.0
3633,59.0,0,480,8.0,70.0
3634,62.0,0,480,8.0,70.0
3635,74.0,0,480,5.0,70.0
3636,86.0,0,1440,3.0,105.0
3637,50.0,0,480,10.0,70.0
3638,67.0,0,480,4.0,105.0
3639,71.0,240,480,4.0,105.0
3640,69.0,0,240,4.0,105.0
3641,84.0,480,312,3.0,105.0
3642,83.0,0,156,3.0,105.0
3643,59.0,0,480,4.0,105.0
3644,67.0,0,0,4.0,105.0
3645,83.0,240,300,3.0,105.0
3646,81.0,0,144,3.0,105.0
3647,62.0,0,480,5.0,70.0
3648,62.0,0,480,4.0,105.0
3649,66.0,240,240,4.0,105.0
3650,38.0,0,480,10.0,70.0
3651,50.0,0,480,8.0,70.0
3652,64.0,0,240,4.0,105.0
3653,79.0,240,288,3.0,105.0
3654,50.0,0,480,4.0,105.0
3655,66.0,0,240,4.0,105.0
3656,81.0,240,300,3.0,105.0
3657,55.0,0,240,4.0,105.0
3658,59.0,240,240,4.0,105.0
3659,67.0,0,480,4.0,105.0
3660,67.0,240,480,5.0,70.0
3661,79.0,0,480,3.0,105.0
3662,43.0,0,480,10.0,70.0
3663,55.0,0,480,8.0,70.0
3664,62.0,240,0,4.0,105.0
3665,69.0,180,60,4.0,105.0
3666,54.0,60,240,4.0,105.0
3667,74.0,180,60,4.0,105.0
3668,81.0,0,480,4.0,105.0
3669,57.0,240,240,4.0,105.0
3670,62.0,240,0,4.0,105.0
3671,71.0,180,60,4.0,105.0
3672,86.0,0,480,4.0,105.0
3673,55.0,60,240,4.0,105.0
3674,83.0,0,480,4.0,105.0
3675,59.0,240,240,4.0,105.0
3676,62.0,240,240,4.0,105.0
3677,62.0,240,240,4.0,105.0
3678,69.0,180,60,4.0,105.0
3679,50.0,60,240,4.0,105.0
3680,74.0,180,60,4.0,105.0
3681,54.0,240,240,4.0,105.0
3682,81.0,0,480,4.0,105.0
3683,62.0,60,240,4.0,105.0
3684,62.0,240,240,4.0,105.0
3685,86.0,0,480,4.0,105.0
3686,67.0,180,60,4.0,105.0
3687,55.0,0,240,4.0,105.0
3688,59.0,240,240,4.0,105.0
3689,79.0,60,480,4.0,105.0
3690,62.0,240,240,4.0,105.0
3691,62.0,240,240,4.0,105.0
3692,69.0,180,60,4.0,105.0
3693,54.0,0,240,4.0,105.0
3694,74.0,180,60,4.0,105.0
3695,81.0,60,480,4.0,105.0
3696,57.0,240,240,4.0,105.0
3697,62.0,0,240,4.0,105.0
3698,42.0,0,960,10.0,70.0
3699,62.0,240,240,4.0,105.0
3700,86.0,60,480,4.0,105.0
3701,71.0,180,60,4.0,105.0
3702,69.0,0,960,6.0,70.0
3703,72.0,0,960,5.0,70.0
3704,54.0,0,960,8.0,70.0
3705,55.0,0,240,4.0,105.0
3706,83.0,60,480,4.0,105.0
3707,59.0,240,240,4.0,105.0
3708,74.0,180,60,4.0,105.0
3709,62.0,60,240,4.0,105.0
3710,86.0,0,480,4.0,105.0
3711,62.0,240,240,4.0,105.0
3712,55.0,0,960,8.0,70.0
3713,67.0,0,960,6.0,70.0
3714,43.0,0,960,10.0,70.0
3715,69.0,180,60,4.0,105.0
3716,71.0,0,960,5.0,70.0
3717,50.0,0,240,4.0,105.0
3718,81.0,0,480,4.0,105.0
3719,54.0,240,240,4.0,105.0
3720,74.0,180,60,4.0,105.0
3721,62.0,60,240,4.0,105.0
3722,62.0,240,240,4.0,105.0
3723,86.0,0,480,4.0,105.0
3724,67.0,180,60,4.0,105.0
3725,74.0,0,3840,3.0,80.0
3726,50.0,60,960,8.0,70.0
3727,38.0,0,960,10.0,70.0
3728,60.0,0,960,6.0,70.0
3729,69.0,0,960,5.0,70.0
3730,55.0,0,240,4.0,105.0
3731,59.0,240,240,4.0,105.0
3732,79.0,60,480,4.0,105.0
3733,74.0,180,60,4.0,105.0
3734,62.0,240,0,4.0,105.0
3735,43.0,0,960,8.0,70.0
3736,69.0,180,60,4.0,105.0
3737,59.0,0,960,6.0,70.0
3738,86.0,0,480,4.0,105.0
3739,31.0,0,960,10.0,70.0
3740,67.0,0,960,5.0,70.0
3741,54.0,0,240,4.0,105.0
3742,81.0,0,480,4.0,105.0
3743,57.0,240,240,4.0,105.0
3744,74.0,180,60,4.0,105.0
3745,62.0,240,0,4.0,105.0
3746,84.0,50,960,0.0,70.0
3747,81.0,0,960,1.0,70.0
3748,86.0,0,480,4.0,105.0
3749,71.0,180,60,4.0,105.0
3750,42.0,0,960,10.0,70.0
3751,54.0,0,960,8.0,70.0
3752,69.0,10,960,6.0,70.0
3753,72.0,0,960,5.0,70.0
3754,55.0,0,240,4.0,105.0
3755,74.0,180,60,4.0,105.0
3756,59.0,240,240,4.0,105.0
3757,83.0,0,480,4.0,105.0
3758,62.0,240,0,4.0,105.0
3759,79.0,0,960,1.0,70.0
3760,83.0,50,960,0.0,70.0
3761,67.0,0,960,6.0,70.0
3762,71.0,10,960,5.0,70.0
3763,43.0,0,960,10.0,70.0
3764,55.0,0,960,8.0,70.0
3765,69.0,180,60,4.0,105.0
3766,86.0,0,480,4.0,105.0
3767,50.0,0,240,4.0,105.0
3768,74.0,180,60,4.0,105.0
3769,54.0,240,240,4.0,105.0
3770,81.0,0,480,4.0,105.0
3771,62.0,0,240,4.0,105.0
3772,72.0,0,960,1.0,70.0
3773,81.0,50,960,0.0,70.0
3774,50.0,0,960,8.0,70.0
3775,86.0,0,3840,3.0,90.0
3776,69.0,0,960,5.0,70.0
3777,60.0,10,960,6.0,70.0
3778,86.0,60,480,4.0,105.0
3779,62.0,240,240,4.0,105.0
3780,38.0,0,960,10.0,70.0
3781,81.0,0,240,4.0,105.0
3782,71.0,230,480,1.0,70.0
3783,79.0,0,480,0.0,70.0
3784,59.0,0,480,6.0,70.0
3785,31.0,0,480,10.0,70.0
3786,67.0,0,480,3.0,90.0
3787,79.0,240,240,4.0,105.0
3788,43.0,0,480,8.0,70.0
3789,67.0,0,480,5.0,70.0
3790,62.0,0,4320,7.0,70.0
3791,59.0,10,480,4.0,105.0
3792,55.0,0,480,4.0,105.0
3793,78.0,240,240,4.0,80.0
3794,79.0,240,240,4.0,80.0
3795,78.0,240,240,4.0,80.0
3796,79.0,240,240,4.0,80.0
3797,81.0,240,240,4.0,80.0
3798,79.0,240,240,4.0,80.0
3799,79.0,240,240,4.0,80.0
3800,77.0,240,240,4.0,80.0
3801,76.0,240,240,4.0,80.0
3802,77.0,240,240,4.0,80.0
3803,76.0,240,240,4.0,80.0
3804,77.0,240,240,4.0,80.0
3805,79.0,240,240,4.0,80.0
3806,77.0,240,240,4.0,80.0
3807,77.0,0,240,4.0,80.0
3808,81.0,240,264,3.0,97.0
3809,76.0,240,240,4.0,80.0
3810,79.0,0,264,3.0,95.0
3811,75.0,0,240,4.0,80.0
3812,78.0,240,264,3.0,97.0
3813,76.0,0,240,4.0,80.0
3814,79.0,240,264,3.0,96.0
3815,75.0,0,240,4.0,80.0
3816,78.0,240,264,3.0,87.0
3817,76.0,240,240,4.0,80.0
3818,79.0,0,264,3.0,92.0
3819,77.0,0,240,4.0,80.0
3820,81.0,240,264,3.0,90.0
3821,79.0,240,144,3.0,85.0
3822,76.0,0,0,4.0,80.0
3823,79.0,240,264,3.0,94.0
3824,74.0,0,240,4.0,80.0
3825,77.0,240,264,3.0,88.0
3826,73.0,0,240,4.0,80.0
3827,76.0,240,264,3.0,90.0
3828,74.0,240,240,4.0,80.0
3829,77.0,0,264,3.0,90.0
3830,73.0,240,240,4.0,80.0
3831,76.0,0,264,3.0,92.0
3832,74.0,240,240,4.0,80.0
3833,77.0,0,264,3.0,91.0
3834,76.0,0,240,4.0,80.0
3835,79.0,240,264,3.0,80.0
3836,77.0,240,144,3.0,79.0
3837,74.0,0,240,4.0,80.0
3838,71.0,0,240,4.0,90.0
3839,74.0,240,302,3.0,90.0
3840,74.0,0,240,4.0,90.0
3841,77.0,240,302,3.0,88.0
3842,72.0,0,240,4.0,90.0
3843,76.0,240,302,3.0,98.0
3844,76.0,240,240,4.0,90.0
3845,79.0,0,302,3.0,101.0
3846,59.0,0,240,6.0,70.0
3847,62.0,0,240,5.0,70.0
3848,65.0,0,240,5.0,70.0
3849,74.0,240,480,4.0,90.0
3850,62.0,240,240,6.0,70.0
3851,77.0,0,480,3.0,106.0
3852,60.0,0,240,6.0,70.0
3853,64.0,240,240,5.0,70.0
3854,67.0,0,240,5.0,70.0
3855,55.0,0,480,4.0,90.0
3856,64.0,240,240,6.0,70.0
3857,67.0,0,480,4.0,90.0
3858,71.0,0,240,4.0,80.0
3859,74.0,240,302,3.0,80.0
3860,62.0,0,480,6.0,70.0
3861,74.0,240,240,4.0,80.0
3862,65.0,0,480,5.0,70.0
3863,77.0,0,302,3.0,92.0
3864,73.0,240,240,4.0,80.0
3865,76.0,0,302,3.0,94.0
3866,76.0,240,240,4.0,80.0
3867,79.0,0,302,3.0,99.0
3868,71.0,230,240,1.0,70.0
3869,74.0,0,240,0.0,70.0
3870,77.0,0,240,0.0,70.0
3871,74.0,230,240,1.0,70.0
3872,77.0,0,480,3.0,94.0
3873,74.0,10,480,4.0,80.0
3874,76.0,240,240,0.0,70.0
3875,73.0,0,240,1.0,70.0
3876,76.0,0,240,1.0,70.0
3877,79.0,230,240,0.0,70.0
3878,67.0,10,480,4.0,80.0
3879,55.0,0,480,4.0,80.0
3880,71.0,0,240,4.0,90.0
3881,74.0,10,302,3.0,90.0
3882,77.0,240,480,0.0,70.0
3883,74.0,0,480,1.0,70.0
3884,74.0,240,240,4.0,90.0
3885,77.0,0,302,3.0,91.0
3886,72.0,240,240,4.0,90.0
3887,76.0,0,302,3.0,102.0
3888,76.0,0,240,4.0,90.0
3889,79.0,240,302,3.0,102.0
3890,74.0,0,240,4.0,90.0
3891,77.0,240,302,3.0,100.0
3892,76.0,0,240,4.0,90.0
3893,79.0,240,302,3.0,93.0
3894,72.0,0,240,4.0,90.0
3895,76.0,240,302,3.0,94.0
3896,77.0,0,156,3.0,97.0
3897,74.0,240,240,4.0,90.0
3898,71.0,0,240,4.0,80.0
3899,74.0,240,302,3.0,72.0
3900,74.0,240,240,4.0,80.0
3901,77.0,0,302,3.0,83.0
3902,73.0,0,240,4.0,80.0
3903,76.0,240,302,3.0,88.0
3904,76.0,0,240,4.0,80.0
3905,31.0,0,6720,10.0,70.0
3906,43.0,0,6720,8.0,70.0
3907,79.0,240,302,3.0,84.0
3908,71.0,230,240,1.0,70.0
3909,74.0,0,240,0.0,70.0
3910,62.0,0,240,5.0,70.0
3911,59.0,10,240,6.0,70.0
3912,74.0,230,240,1.0,70.0
3913,77.0,0,240,0.0,70.0
3914,65.0,10,240,5.0,70.0
3915,77.0,0,480,3.0,73.0
3916,74.0,0,480,4.0,80.0
3917,62.0,0,240,6.0,70.0
3918,73.0,230,240,1.0,70.0
3919,76.0,0,240,0.0,70.0
3920,61.0,10,240,6.0,70.0
3921,64.0,0,240,5.0,70.0
3922,76.0,230,240,1.0,70.0
3923,79.0,0,240,0.0,70.0
3924,67.0,0,240,5.0,70.0
3925,64.0,10,240,6.0,70.0
3926,74.0,230,480,1.0,70.0
3927,77.0,0,480,0.0,70.0
3928,62.0,10,480,6.0,70.0
3929,55.0,0,15840,2.0,70.0
3930,43.0,0,15840,2.0,70.0
3931,65.0,0,480,5.0,70.0
3932,60.0,960,240,4.0,80.0
3933,76.0,0,360,3.0,80.0
3934,55.0,240,240,4.0,80.0
3935,60.0,240,240,4.0,80.0
3936,76.0,0,348,3.0,80.0
3937,55.0,240,240,4.0,80.0
3938,60.0,240,240,4.0,80.0
3939,64.0,240,240,4.0,80.0
3940,48.0,0,480,4.0,80.0
3941,67.0,240,240,4.0,80.0
3942,76.0,0,876,3.0,80.0
3943,60.0,240,240,4.0,80.0
3944,59.0,0,240,4.0,80.0
3945,79.0,240,302,3.0,80.0
3946,43.0,0,480,4.0,80.0
3947,62.0,0,240,4.0,80.0
3948,77.0,240,302,3.0,80.0
3949,67.0,240,240,4.0,80.0
3950,76.0,0,302,3.0,80.0
3951,77.0,0,180,3.0,80.0
3952,62.0,240,240,4.0,80.0
3953,64.0,0,240,4.0,80.0
3954,79.0,240,302,3.0,80.0
3955,36.0,0,480,4.0,80.0
3956,67.0,0,240,4.0,80.0
3957,76.0,240,302,3.0,80.0
3958,72.0,240,240,4.0,80.0
3959,72.0,0,384,3.0,80.0
3960,67.0,240,240,4.0,80.0
3961,64.0,0,240,4.0,80.0
3962,60.0,240,240,4.0,80.0
3963,64.0,240,240,4.0,80.0
3964,84.0,240,804,3.0,80.0
3965,83.0,240,180,3.0,80.0
3966,60.0,0,240,4.0,80.0
3967,65.0,240,240,4.0,80.0
3968,83.0,0,312,3.0,80.0
3969,81.0,0,180,3.0,80.0
3970,60.0,240,240,4.0,80.0
3971,48.0,0,480,4.0,80.0
3972,64.0,0,240,4.0,80.0
3973,60.0,240,240,4.0,80.0
3974,79.0,240,480,3.0,80.0
3975,64.0,0,240,4.0,80.0
3976,60.0,240,240,4.0,80.0
3977,64.0,240,240,4.0,80.0
3978,84.0,240,816,3.0,80.0
3979,83.0,240,180,3.0,80.0
3980,60.0,0,240,4.0,80.0
3981,65.0,240,240,4.0,80.0
3982,83.0,0,288,3.0,80.0
3983,81.0,0,168,3.0,80.0
3984,48.0,0,480,4.0,80.0
3985,60.0,240,240,4.0,80.0
3986,64.0,0,240,4.0,80.0
3987,79.0,240,396,3.0,80.0
3988,60.0,240,240,4.0,80.0
3989,64.0,0,240,4.0,90.0
3990,72.0,240,408,3.0,90.0
3991,65.0,240,240,4.0,90.0
3992,67.0,0,240,4.0,90.0
3993,72.0,240,408,3.0,90.0
3994,64.0,240,240,4.0,90.0
3995,60.0,0,240,4.0,90.0
3996,52.0,240,480,4.0,80.0
3997,64.0,240,240,4.0,90.0
3998,67.0,240,240,4.0,90.0
3999,72.0,0,888,3.0,90.0
4000,72.0,240,240,4.0,90.0
4001,59.0,240,240,4.0,90.0
4002,76.0,0,302,3.0,90.0
4003,62.0,240,240,4.0,90.0
4004,55.0,0,480,4.0,80.0
4005,74.0,0,302,3.0,90.0
4006,67.0,240,240,4.0,90.0
4007,72.0,0,302,3.0,90.0
4008,74.0,0,168,3.0,90.0
4009,71.0,240,240,4.0,90.0
4010,60.0,0,240,4.0,90.0
4011,76.0,240,336,3.0,90.0
4012,48.0,0,480,4.0,80.0
4013,64.0,240,240,4.0,90.0
4014,67.0,0,240,4.0,90.0
4015,76.0,240,336,3.0,90.0
4016,72.0,240,240,4.0,90.0
4017,62.0,0,240,4.0,90.0
4018,79.0,0,302,3.0,90.0
4019,67.0,240,240,4.0,90.0
4020,43.0,240,480,4.0,80.0
4021,77.0,0,302,3.0,90.0
4022,71.0,0,240,4.0,90.0
4023,76.0,240,302,3.0,90.0
4024,77.0,240,168,3.0,90.0
4025,74.0,0,240,4.0,90.0
4026,64.0,0,240,4.0,90.0
4027,79.0,240,396,3.0,90.0
4028,48.0,0,480,4.0,80.0
4029,67.0,240,240,4.0,90.0
4030,72.0,240,240,4.0,90.0
4031,79.0,0,480,3.0,90.0
4032,76.0,240,240,4.0,90.0
4033,77.0,0,240,4.0,90.0
4034,81.0,240,302,3.0,90.0
4035,60.0,0,480,4.0,80.0
4036,76.0,240,240,4.0,90.0
4037,79.0,0,302,3.0,90.0
4038,77.0,0,96,3.0,90.0
4039,74.0,240,240,4.0,90.0
4040,76.0,0,96,3.0,90.0
4041,72.0,240,240,4.0,90.0
4042,67.0,0,240,4.0,90.0
4043,72.0,240,240,4.0,90.0
4044,76.0,240,552,3.0,90.0
4045,71.0,240,240,4.0,90.0
4046,74.0,0,396,3.0,90.0
4047,69.0,240,240,4.0,90.0
4048,55.0,0,960,4.0,80.0
4049,67.0,10,96,7.0,105.0
4050,67.0,0,96,6.0,105.0
4051,76.0,0,192,5.0,105.0
4052,67.0,0,240,4.0,90.0
4053,65.0,0,96,6.0,105.0
4054,65.0,240,96,7.0,105.0
4055,72.0,230,0,1.0,105.0
4056,76.0,0,480,0.0,105.0
4057,64.0,0,480,2.0,105.0
4058,65.0,0,240,4.0,90.0
4059,60.0,0,480,2.0,105.0
4060,64.0,0,96,6.0,105.0
4061,64.0,0,96,7.0,105.0
4062,76.0,10,192,5.0,105.0
4063,64.0,0,240,4.0,90.0
4064,62.0,0,96,6.0,105.0
4065,62.0,0,96,7.0,105.0
4066,76.0,0,480,0.0,105.0
4067,72.0,230,0,1.0,105.0
4068,62.0,240,240,4.0,90.0
4069,60.0,0,480,2.0,105.0
4070,64.0,0,0,2.0,105.0
4071,60.0,0,96,6.0,105.0
4072,60.0,10,96,7.0,105.0
4073,55.0,0,96,7.0,105.0
4074,55.0,240,96,6.0,105.0
4075,60.0,0,480,4.0,90.0
4076,60.0,0,480,8.0,105.0
4077,48.0,0,480,10.0,105.0
4078,60.0,240,96,6.0,105.0
4079,60.0,0,96,7.0,105.0
4080,55.0,0,96,6.0,105.0
4081,55.0,240,96,7.0,105.0
4082,76.0,0,960,0.0,105.0
4083,60.0,0,960,2.0,105.0
4084,64.0,0,0,2.0,105.0
4085,76.0,0,960,5.0,105.0
4086,62.0,0,96,7.0,105.0
4087,62.0,0,96,6.0,105.0
4088,79.0,230,240,0.0,105.0
4089,79.0,0,240,5.0,105.0
4090,55.0,0,96,7.0,105.0
4091,55.0,0,96,6.0,105.0
4092,77.0,230,240,0.0,105.0
4093,55.0,0,480,8.0,105.0
4094,43.0,10,480,10.0,105.0
4095,62.0,0,240,2.0,105.0
4096,77.0,10,240,5.0,105.0
4097,62.0,0,96,7.0,105.0
4098,62.0,10,96,6.0,105.0
4099,76.0,230,240,0.0,105.0
4100,60.0,0,240,2.0,105.0
4101,76.0,0,240,5.0,105.0
4102,55.0,0,96,7.0,105.0
4103,55.0,0,96,6.0,105.0
4104,71.0,0,960,1.0,105.0
4105,77.0,230,240,0.0,105.0
4106,77.0,10,240,5.0,105.0
4107,62.0,0,240,2.0,105.0
4108,55.0,0,960,2.0,105.0
4109,64.0,0,96,6.0,105.0
4110,64.0,0,96,7.0,105.0
4111,79.0,0,240,5.0,105.0
4112,60.0,240,96,6.0,105.0
4113,60.0,0,96,7.0,105.0
4114,72.0,230,480,1.0,105.0
4115,76.0,0,480,0.0,105.0
4116,52.0,10,480,2.0,105.0
4117,60.0,0,480,2.0,105.0
4118,76.0,0,240,5.0,105.0
4119,64.0,240,96,7.0,105.0
4120,64.0,0,96,6.0,105.0
4121,67.0,240,96,7.0,105.0
4122,67.0,0,96,6.0,105.0
4123,48.0,0,960,8.0,105.0
4124,72.0,0,480,5.0,105.0
4125,36.0,0,960,10.0,105.0
4126,64.0,0,96,7.0,105.0
4127,64.0,0,96,6.0,105.0
4128,60.0,240,96,7.0,105.0
4129,60.0,0,96,6.0,105.0
4130,64.0,240,96,7.0,105.0
4131,64.0,0,96,6.0,105.0
4132,84.0,230,720,0.0,105.0
4133,84.0,0,720,5.0,105.0
4134,60.0,10,96,6.0,105.0
4135,60.0,0,96,7.0,105.0
4136,83.0,230,240,0.0,105.0
4137,83.0,0,240,5.0,105.0
4138,65.0,0,96,6.0,105.0
4139,65.0,0,96,7.0,105.0
4140,83.0,230,240,0.0,105.0
4141,83.0,0,240,5.0,105.0
4142,60.0,0,96,7.0,105.0
4143,60.0,10,96,6.0,105.0
4144,81.0,230,240,0.0,105.0
4145,81.0,0,240,5.0,105.0
4146,64.0,10,96,6.0,105.0
4147,64.0,0,96,7.0,105.0
4148,60.0,240,96,7.0,105.0
4149,60.0,0,96,6.0,105.0
4150,79.0,230,480,0.0,105.0
4151,79.0,0,480,5.0,105.0
4152,60.0,0,0,2.0,105.0
4153,48.0,0,960,8.0,105.0
4154,36.0,10,960,10.0,105.0
4155,48.0,10,0,2.0,105.0
4156,64.0,0,96,6.0,105.0
4157,64.0,0,96,7.0,105.0
4158,60.0,0,96,7.0,105.0
4159,60.0,240,96,6.0,105.0
4160,64.0,240,96,7.0,105.0
4161,64.0,0,96,6.0,105.0
4162,84.0,230,720,0.0,105.0
4163,84.0,0,720,5.0,105.0
4164,60.0,10,96,6.0,105.0
4165,60.0,0,96,7.0,105.0
4166,83.0,230,0,0.0,105.0
4167,83.0,0,0,5.0,105.0
4168,65.0,10,96,7.0,105.0
4169,65.0,0,96,6.0,105.0
4170,60.0,0,96,7.0,105.0
4171,60.0,10,96,6.0,105.0
4172,81.0,230,240,0.0,105.0
4173,81.0,0,240,5.0,105.0
4174,64.0,0,96,7.0,105.0
4175,64.0,0,96,6.0,105.0
4176,60.0,0,96,7.0,105.0
4177,60.0,240,96,6.0,105.0
4178,79.0,230,480,0.0,105.0
4179,36.0,0,960,10.0,105.0
4180,48.0,0,960,8.0,105.0
4181,79.0,10,480,5.0,105.0
4182,64.0,0,96,6.0,105.0
4183,64.0,10,96,7.0,105.0
4184,65.0,240,96,6.0,105.0
4185,65.0,0,96,7.0,105.0
4186,72.0,0,480,0.0,105.0
4187,67.0,230,0,1.0,105.0
4188,72.0,0,480,5.0,105.0
4189,67.0,0,96,7.0,105.0
4190,67.0,0,96,6.0,105.0
4191,64.0,0,96,6.0,105.0
4192,64.0,240,96,7.0,105.0
4193,72.0,0,480,0.0,105.0
4194,72.0,10,0,5.0,105.0
4195,60.0,0,240,7.0,105.0
4196,60.0,0,240,6.0,105.0
4197,64.0,240,240,7.0,105.0
4198,64.0,0,240,6.0,105.0
4199,67.0,0,240,6.0,105.0
4200,67.0,240,240,7.0,105.0
4201,67.0,230,960,1.0,105.0
4202,72.0,0,960,0.0,105.0
4203,72.0,240,240,6.0,105.0
4204,40.0,0,960,10.0,105.0
4205,72.0,0,240,7.0,105.0
4206,52.0,0,960,8.0,105.0
4207,76.0,0,240,0.0,105.0
4208,72.0,230,240,1.0,105.0
4209,59.0,0,240,6.0,105.0
4210,76.0,0,240,5.0,105.0
4211,59.0,0,240,7.0,105.0
4212,71.0,230,240,1.0,105.0
4213,74.0,0,240,0.0,105.0
4214,62.0,0,240,7.0,105.0
4215,74.0,0,240,5.0,105.0
4216,62.0,10,240,6.0,105.0
4217,55.0,10,0,2.0,105.0
4218,72.0,0,240,0.0,105.0
4219,69.0,230,240,1.0,105.0
4220,72.0,0,240,5.0,105.0
4221,67.0,0,240,7.0,105.0
4222,67.0,0,240,6.0,105.0
4223,71.0,0,240,1.0,105.0
4224,74.0,230,240,0.0,105.0
4225,71.0,0,240,6.0,105.0
4226,43.0,10,960,10.0,105.0
4227,55.0,0,960,8.0,105.0
4228,71.0,0,240,7.0,105.0
4229,74.0,10,240,5.0,105.0
4230,60.0,0,240,6.0,105.0
4231,60.0,0,240,7.0,105.0
4232,76.0,0,480,0.0,105.0
4233,72.0,230,480,1.0,105.0
4234,64.0,240,240,7.0,105.0
4235,76.0,0,0,5.0,105.0
4236,64.0,0,240,6.0,105.0
4237,67.0,10,240,7.0,105.0
4238,67.0,0,240,6.0,105.0
4239,72.0,230,480,1.0,105.0
4240,76.0,0,480,0.0,105.0
4241,60.0,10,960,2.0,105.0
4242,52.0,0,960,2.0,105.0
4243,60.0,0,960,8.0,105.0
4244,48.0,0,960,10.0,105.0
4245,72.0,0,240,7.0,105.0
4246,72.0,240,240,6.0,105.0
4247,79.0,0,240,0.0,105.0
4248,79.0,0,240,5.0,105.0
4249,62.0,0,240,6.0,105.0
4250,62.0,0,240,7.0,105.0
4251,64.0,0,240,2.0,105.0
4252,77.0,230,240,0.0,105.0
4253,67.0,0,240,7.0,105.0
4254,77.0,10,240,5.0,105.0
4255,67.0,0,240,6.0,105.0
4256,62.0,0,240,2.0,105.0
4257,76.0,230,240,0.0,105.0
4258,76.0,0,240,5.0,105.0
4259,71.0,10,240,7.0,105.0
4260,60.0,0,240,2.0,105.0
4261,71.0,0,240,6.0,105.0
4262,71.0,230,960,1.0,105.0
4263,77.0,230,240,0.0,105.0
4264,62.0,0,240,2.0,105.0
4265,74.0,0,240,6.0,105.0
4266,77.0,10,240,5.0,105.0
4267,43.0,0,960,10.0,105.0
4268,55.0,0,960,8.0,105.0
4269,74.0,0,240,7.0,105.0
4270,55.0,10,960,2.0,105.0
4271,67.0,0,480,1.0,105.0
4272,79.0,230,480,0.0,105.0
4273,79.0,0,480,5.0,105.0
4274,52.0,0,480,8.0,105.0
4275,67.0,0,0,7.0,105.0
4276,60.0,0,480,2.0,105.0
4277,64.0,0,0,2.0,105.0
4278,40.0,0,480,10.0,105.0
4279,72.0,10,480,6.0,105.0
4280,72.0,0,480,1.0,105.0
4281,76.0,470,480,0.0,105.0
4282,48.0,0,480,8.0,105.0
4283,36.0,10,480,10.0,105.0
4284,76.0,0,480,5.0,105.0
4285,72.0,0,480,6.0,105.0
4286,64.0,10,0,2.0,105.0
4287,67.0,0,0,2.0,105.0
4288,76.0,470,240,1.0,105.0
4289,79.0,0,240,0.0,105.0
4290,79.0,0,240,5.0,105.0
4291,76.0,0,240,6.0,105.0
4292,77.0,0,240,0.0,105.0
4293,74.0,230,240,1.0,105.0
4294,55.0,0,480,8.0,105.0
4295,77.0,10,240,5.0,105.0
4296,67.0,0,0,7.0,105.0
4297,43.0,0,480,10.0,105.0
4298,62.0,0,240,2.0,105.0
4299,74.0,0,240,6.0,105.0
4300,65.0,0,240,2.0,105.0
4301,72.0,0,240,1.0,105.0
4302,76.0,230,240,0.0,105.0
4303,72.0,0,240,6.0,105.0
4304,76.0,0,240,5.0,105.0
4305,64.0,0,240,2.0,105.0
4306,60.0,0,240,2.0,105.0
4307,71.0,0,240,1.0,105.0
4308,74.0,230,240,0.0,105.0
4309,43.0,10,480,8.0,105.0
4310,71.0,10,240,6.0,105.0
4311,31.0,0,480,10.0,105.0
4312,74.0,0,240,5.0,105.0
4313,55.0,0,240,2.0,105.0
4314,62.0,0,240,2.0,105.0
4315,65.0,0,240,7.0,105.0
4316,72.0,230,480,0.0,105.0
4317,48.0,0,480,8.0,105.0
4318,52.0,0,480,2.0,105.0
4319,60.0,10,480,2.0,105.0
4320,72.0,0,480,6.0,105.0
4321,64.0,0,480,7.0,105.0
4322,36.0,0,480,10.0,105.0
4323,48.0,0,96,8.0,105.0
4324,36.0,0,96,10.0,105.0
4325,60.0,480,96,5.0,105.0
4326,36.0,0,96,10.0,105.0
4327,48.0,240,96,8.0,105.0
4328,60.0,0,96,5.0,105.0
4329,59.0,240,240,5.0,105.0
4330,47.0,0,240,8.0,105.0
4331,35.0,0,240,10.0,105.0
4332,50.0,240,240,8.0,105.0
4333,62.0,0,240,5.0,105.0
4334,38.0,0,240,10.0,105.0
4335,53.0,240,96,8.0,105.0
4336,41.0,0,96,10.0,105.0
4337,65.0,0,96,5.0,105.0
4338,65.0,240,96,5.0,105.0
4339,53.0,0,96,8.0,105.0
4340,41.0,0,96,10.0,105.0
4341,64.0,240,240,5.0,105.0
4342,40.0,0,240,10.0,105.0
4343,52.0,0,240,8.0,105.0
4344,67.0,0,240,5.0,105.0
4345,43.0,0,240,10.0,105.0
4346,55.0,240,240,8.0,105.0
4347,60.0,240,96,8.0,105.0
4348,72.0,0,96,5.0,105.0
4349,48.0,0,96,10.0,105.0
4350,60.0,0,96,8.0,105.0
4351,72.0,240,96,5.0,105.0
4352,48.0,0,96,10.0,105.0
4353,71.0,240,240,5.0,105.0
4354,47.0,0,480,10.0,105.0
4355,74.0,240,240,5.0,105.0
4356,59.0,0,480,8.0,105.0
4357,77.0,0,96,5.0,105.0
4358,55.0,0,240,8.0,105.0
4359,55.0,0,240,2.0,105.0
4360,43.0,0,0,10.0,105.0
4361,77.0,0,96,5.0,105.0
4362,55.0,0,240,2.0,105.0
4363,55.0,240,240,8.0,105.0
4364,60.0,0,480,2.0,105.0
4365,60.0,0,480,8.0,105.0
4366,76.0,240,480,5.0,105.0
4367,48.0,0,480,10.0,105.0
4368,72.0,470,96,0.0,105.0
4369,55.0,10,240,2.0,105.0
4370,43.0,10,0,10.0,105.0
4371,55.0,0,0,8.0,105.0
4372,72.0,230,96,0.0,105.0
4373,72.0,0,480,5.0,105.0
4374,79.0,0,480,5.0,105.0
4375,64.0,0,480,6.0,105.0
4376,55.0,0,240,2.0,105.0
4377,71.0,230,240,0.0,105.0
4378,74.0,230,240,0.0,105.0
4379,62.0,0,480,2.0,105.0
4380,62.0,10,480,8.0,105.0
4381,67.0,0,960,7.0,105.0
4382,50.0,0,480,10.0,105.0
4383,77.0,240,96,0.0,105.0
4384,43.0,0,240,10.0,105.0
4385,55.0,0,240,8.0,105.0
4386,55.0,0,240,2.0,105.0
4387,77.0,230,96,0.0,105.0
4388,55.0,0,240,8.0,105.0
4389,74.0,10,480,6.0,105.0
4390,83.0,0,480,5.0,105.0
4391,55.0,0,240,2.0,105.0
4392,77.0,0,480,6.0,105.0
4393,43.0,10,240,10.0,105.0
4394,72.0,230,240,0.0,105.0
4395,76.0,230,240,0.0,105.0
4396,64.0,0,480,2.0,105.0
4397,52.0,10,480,10.0,105.0
4398,67.0,0,0,7.0,105.0
4399,64.0,0,480,8.0,105.0
4400,79.0,240,96,0.0,105.0
4401,43.0,0,240,10.0,105.0
4402,55.0,0,240,8.0,105.0
4403,79.0,230,96,0.0,105.0
4404,43.0,10,240,10.0,105.0
4405,84.0,0,480,5.0,105.0
4406,76.0,10,480,6.0,105.0
4407,72.0,0,480,6.0,105.0
4408,55.0,0,240,8.0,105.0
4409,74.0,230,240,0.0,105.0
4410,79.0,230,240,0.0,105.0
4411,59.0,10,480,8.0,105.0
4412,47.0,0,480,10.0,105.0
4413,67.0,0,0,7.0,105.0
4414,83.0,240,96,0.0,105.0
4415,43.0,10,0,10.0,105.0
4416,55.0,0,240,2.0,105.0
4417,55.0,0,240,8.0,105.0
4418,83.0,230,96,0.0,105.0
4419,55.0,0,240,8.0,105.0
4420,74.0,10,480,6.0,105.0
4421,79.0,0,480,5.0,105.0
4422,55.0,0,240,2.0,105.0
4423,67.0,0,480,6.0,105.0
4424,84.0,230,480,0.0,105.0
4425,64.0,0,480,6.0,105.0
4426,60.0,10,480,8.0,105.0
4427,72.0,0,0,6.0,105.0
4428,67.0,0,0,7.0,105.0
4429,48.0,0,480,10.0,105.0
4430,60.0,0,480,2.0,105.0
4431,76.0,0,480,5.0,105.0
4432,72.0,470,96,0.0,105.0
4433,55.0,10,0,2.0,105.0
4434,55.0,0,240,8.0,105.0
4435,43.0,0,240,10.0,105.0
4436,72.0,230,96,0.0,105.0
4437,55.0,0,240,8.0,105.0
4438,76.0,10,480,6.0,105.0
4439,43.0,0,240,10.0,105.0
4440,72.0,0,480,5.0,105.0
4441,79.0,0,480,5.0,105.0
4442,64.0,0,480,5.0,105.0
4443,67.0,0,480,6.0,105.0
4444,71.0,230,240,0.0,105.0
4445,74.0,230,240,0.0,105.0
4446,62.0,10,480,8.0,105.0
4447,50.0,0,480,10.0,105.0
4448,55.0,0,960,7.0,105.0
4449,62.0,0,480,2.0,105.0
4450,77.0,240,96,0.0,105.0
4451,55.0,0,240,2.0,105.0
4452,43.0,0,0,10.0,105.0
4453,55.0,10,0,8.0,105.0
4454,77.0,230,96,0.0,105.0
4455,74.0,10,480,6.0,105.0
4456,77.0,0,480,6.0,105.0
4457,83.0,0,480,5.0,105.0
4458,55.0,0,240,2.0,105.0
4459,72.0,230,240,0.0,105.0
4460,76.0,230,240,0.0,105.0
4461,55.0,0,960,7.0,105.0
4462,67.0,10,0,7.0,105.0
4463,52.0,0,480,10.0,105.0
4464,64.0,0,480,2.0,105.0
4465,64.0,10,480,8.0,105.0
4466,79.0,240,96,0.0,105.0
4467,43.0,10,0,10.0,105.0
4468,55.0,0,0,8.0,105.0
4469,79.0,230,96,0.0,105.0
4470,76.0,0,480,6.0,105.0
4471,72.0,0,480,6.0,105.0
4472,84.0,0,480,5.0,105.0
4473,71.0,230,240,0.0,105.0
4474,76.0,230,240,0.0,105.0
4475,44.0,10,480,10.0,105.0
4476,56.0,0,480,8.0,105.0
4477,80.0,240,96,0.0,105.0
4478,40.0,10,0,10.0,105.0
4479,52.0,0,0,2.0,105.0
4480,64.0,0,0,2.0,105.0
4481,52.0,0,240,8.0,105.0
4482,80.0,230,96,0.0,105.0
4483,71.0,10,480,6.0,105.0
4484,68.0,0,480,6.0,105.0
4485,52.0,0,0,2.0,105.0
4486,64.0,0,0,2.0,105.0
4487,52.0,0,240,8.0,105.0
4488,74.0,0,480,5.0,105.0
4489,64.0,0,0,5.0,105.0
4490,81.0,230,480,0.0,105.0
4491,45.0,0,480,10.0,105.0
4492,57.0,0,480,8.0,105.0
4493,69.0,10,480,6.0,105.0
4494,72.0,0,480,5.0,105.0
4495,52.0,0,0,2.0,105.0
4496,64.0,0,0,7.0,105.0
4497,69.0,470,96,0.0,105.0
4498,64.0,0,240,2.0,105.0
4499,52.0,0,240,8.0,105.0
4500,40.0,0,0,10.0,105.0
4501,69.0,230,96,0.0,105.0
4502,64.0,0,480,6.0,105.0
4503,52.0,0,240,8.0,105.0
4504,76.0,0,480,5.0,105.0
4505,64.0,0,240,2.0,105.0
4506,52.0,10,240,2.0,105.0
4507,72.0,0,480,6.0,105.0
4508,57.0,0,480,6.0,105.0
4509,68.0,230,240,0.0,105.0
4510,71.0,230,240,0.0,105.0
4511,64.0,10,0,7.0,105.0
4512,47.0,0,480,10.0,105.0
4513,59.0,10,480,8.0,105.0
4514,64.0,0,0,2.0,105.0
4515,52.0,0,0,2.0,105.0
4516,74.0,240,96,0.0,105.0
4517,40.0,0,240,10.0,105.0
4518,64.0,10,0,2.0,105.0
4519,52.0,0,240,8.0,105.0
4520,74.0,230,96,0.0,105.0
4521,80.0,0,480,5.0,105.0
4522,52.0,0,240,8.0,105.0
4523,64.0,0,480,6.0,105.0
4524,52.0,0,0,2.0,105.0
4525,64.0,0,0,2.0,105.0
4526,71.0,0,480,5.0,105.0
4527,40.0,0,240,10.0,105.0
4528,74.0,0,480,6.0,105.0
4529,64.0,0,480,5.0,105.0
4530,69.0,230,240,0.0,105.0
4531,72.0,230,240,0.0,105.0
4532,64.0,0,0,7.0,105.0
4533,60.0,0,480,8.0,105.0
4534,48.0,10,480,10.0,105.0
4535,76.0,240,96,0.0,105.0
4536,48.0,0,240,8.0,105.0
4537,36.0,10,0,10.0,105.0
4538,76.0,230,96,0.0,105.0
4539,69.0,0,480,6.0,105.0
4540,76.0,0,480,6.0,105.0
4541,64.0,10,480,5.0,105.0
4542,72.0,0,480,5.0,105.0
4543,48.0,0,240,8.0,105.0
4544,81.0,0,480,5.0,105.0
4545,82.0,230,240,0.0,105.0
4546,79.0,230,240,0.0,105.0
4547,40.0,10,480,10.0,105.0
4548,52.0,0,480,8.0,105.0
4549,76.0,240,96,0.0,105.0
4550,48.0,0,240,8.0,105.0
4551,36.0,0,240,10.0,105.0
4552,60.0,10,0,2.0,105.0
4553,48.0,0,0,2.0,105.0
4554,76.0,230,96,0.0,105.0
4555,36.0,0,240,10.0,105.0
4556,64.0,0,480,6.0,105.0
4557,55.0,0,480,6.0,105.0
4558,70.0,10,480,5.0,105.0
4559,67.0,0,480,5.0,105.0
4560,48.0,0,240,8.0,105.0
4561,77.0,230,480,0.0,105.0
4562,48.0,10,480,2.0,105.0
4563,60.0,0,480,2.0,105.0
4564,65.0,0,480,5.0,105.0
4565,69.0,0,480,5.0,105.0
4566,53.0,0,480,8.0,105.0
4567,65.0,0,480,6.0,105.0
4568,41.0,0,480,10.0,105.0
4569,57.0,0,480,6.0,105.0
4570,60.0,0,0,7.0,105.0
4571,65.0,470,96,0.0,105.0
4572,60.0,0,240,2.0,105.0
4573,36.0,10,0,10.0,105.0
4574,48.0,0,240,2.0,105.0
4575,48.0,0,0,8.0,105.0
4576,65.0,230,96,0.0,105.0
4577,48.0,0,240,2.0,105.0
4578,72.0,0,480,5.0,105.0
4579,65.0,0,480,6.0,105.0
4580,69.0,0,480,6.0,105.0
4581,60.0,0,0,2.0,105.0
4582,64.0,230,240,0.0,105.0
4583,67.0,230,240,0.0,105.0
4584,60.0,10,0,7.0,105.0
4585,43.0,0,480,10.0,105.0
4586,55.0,10,480,8.0,105.0
4587,48.0,0,0,2.0,105.0
4588,60.0,0,0,2.0,105.0
4589,70.0,240,96,0.0,105.0
4590,48.0,10,0,8.0,105.0
4591,36.0,0,0,10.0,105.0
4592,70.0,230,96,0.0,105.0
4593,48.0,0,0,2.0,105.0
4594,60.0,0,0,2.0,105.0
4595,70.0,0,480,6.0,105.0
4596,67.0,0,480,6.0,105.0
4597,76.0,0,480,5.0,105.0
4598,65.0,230,240,0.0,105.0
4599,69.0,230,240,0.0,105.0
4600,45.0,0,480,10.0,105.0
4601,57.0,10,480,8.0,105.0
4602,72.0,240,96,0.0,105.0
4603,36.0,0,240,10.0,105.0
4604,48.0,0,240,8.0,105.0
4605,72.0,230,96,0.0,105.0
4606,77.0,0,480,5.0,105.0
4607,48.0,0,240,8.0,105.0
4608,72.0,10,480,6.0,105.0
4609,69.0,0,480,6.0,105.0
4610,36.0,10,240,10.0,105.0
4611,67.0,230,240,0.0,105.0
4612,72.0,230,240,0.0,105.0
4613,52.0,10,480,8.0,105.0
4614,40.0,0,480,10.0,105.0
4615,60.0,0,960,7.0,105.0
4616,48.0,0,960,7.0,105.0
4617,76.0,240,96,0.0,105.0
4618,48.0,10,0,8.0,105.0
4619,36.0,0,0,10.0,105.0
4620,48.0,0,0,2.0,105.0
4621,60.0,0,0,2.0,105.0
4622,76.0,230,96,0.0,105.0
4623,60.0,0,480,7.0,105.0
4624,64.0,0,480,5.0,105.0
4625,72.0,0,480,5.0,105.0
4626,82.0,0,480,5.0,105.0
4627,60.0,0,0,2.0,105.0
4628,79.0,0,480,6.0,105.0
4629,72.0,132,252,3.0,122.0
4630,77.0,98,480,0.0,105.0
4631,48.0,10,480,7.0,105.0
4632,77.0,0,480,6.0,105.0
4633,60.0,0,480,7.0,105.0
4634,41.0,0,480,10.0,105.0
4635,65.0,0,480,5.0,105.0
4636,72.0,0,480,5.0,105.0
4637,53.0,0,480,8.0,105.0
4638,48.0,0,480,2.0,105.0
4639,81.0,0,480,5.0,105.0
4640,53.0,480,192,7.0,70.0
4641,57.0,0,240,6.0,70.0
4642,65.0,0,240,5.0,70.0
4643,60.0,240,240,6.0,70.0
4644,57.0,0,240,5.0,70.0
4645,53.0,0,192,7.0,70.0
4646,57.0,0,240,6.0,70.0
4647,65.0,240,240,5.0,70.0
4648,57.0,0,240,5.0,70.0
4649,60.0,240,240,6.0,70.0
4650,53.0,0,192,7.0,70.0
4651,65.0,240,240,5.0,70.0
4652,57.0,0,240,6.0,70.0
4653,84.0,0,1836,3.0,122.0
4654,60.0,0,240,6.0,70.0
4655,57.0,240,240,5.0,70.0
4656,53.0,0,192,7.0,70.0
4657,65.0,240,240,5.0,70.0
4658,57.0,0,240,6.0,70.0
4659,60.0,0,240,6.0,70.0
4660,57.0,240,240,5.0,70.0
4661,53.0,240,192,7.0,70.0
4662,65.0,0,240,5.0,70.0
4663,57.0,0,240,6.0,70.0
4664,81.0,0,900,3.0,90.0
4665,57.0,0,240,5.0,70.0
4666,60.0,240,240,6.0,70.0
4667,53.0,0,192,7.0,70.0
4668,65.0,240,240,5.0,70.0
4669,57.0,0,240,6.0,70.0
4670,57.0,240,240,5.0,70.0
4671,60.0,0,240,6.0,70.0
4672,53.0,0,192,7.0,70.0
4673,65.0,240,240,5.0,70.0
4674,57.0,0,240,6.0,70.0
4675,77.0,0,912,3.0,90.0
4676,57.0,240,240,5.0,70.0
4677,60.0,0,240,6.0,70.0
4678,53.0,240,192,7.0,70.0
4679,57.0,0,240,6.0,70.0
4680,65.0,0,240,5.0,70.0
4681,57.0,0,240,5.0,70.0
4682,60.0,240,240,6.0,70.0
4683,53.0,0,192,7.0,70.0
4684,65.0,240,240,5.0,70.0
4685,57.0,0,240,6.0,70.0
4686,57.0,240,240,5.0,70.0
4687,60.0,0,240,6.0,70.0
4688,53.0,0,192,7.0,70.0
4689,57.0,0,240,6.0,70.0
4690,65.0,240,240,5.0,70.0
4691,57.0,0,240,5.0,70.0
4692,60.0,240,240,6.0,70.0
4693,72.0,0,1488,3.0,90.0
4694,53.0,0,192,7.0,70.0
4695,65.0,0,240,5.0,70.0
4696,57.0,240,240,6.0,70.0
4697,77.0,0,348,3.0,90.0
4698,57.0,240,240,5.0,70.0
4699,60.0,0,240,6.0,70.0
4700,53.0,0,192,7.0,70.0
4701,65.0,240,240,5.0,70.0
4702,58.0,0,240,6.0,70.0
4703,76.0,0,420,3.0,90.0
4704,58.0,240,240,5.0,70.0
4705,65.0,0,240,6.0,70.0
4706,76.0,0,111,3.0,98.0
4707,74.0,60,111,3.0,106.0
4708,53.0,0,192,7.0,70.0
4709,76.0,60,111,3.0,108.0
4710,58.0,240,240,6.0,70.0
4711,65.0,0,240,5.0,70.0
4712,74.0,60,111,3.0,108.0
4713,72.0,0,156,3.0,104.0
4714,65.0,60,240,6.0,70.0
4715,58.0,0,240,5.0,70.0
4716,74.0,120,180,3.0,92.0
4717,53.0,120,192,7.0,70.0
4718,57.0,0,240,6.0,70.0
4719,65.0,0,240,5.0,70.0
4720,60.0,240,240,6.0,70.0
4721,57.0,0,240,5.0,70.0
4722,53.0,240,192,7.0,70.0
4723,65.0,0,240,5.0,70.0
4724,57.0,0,240,6.0,70.0
4725,60.0,0,240,6.0,70.0
4726,72.0,0,960,3.0,98.0
4727,57.0,240,240,5.0,70.0
4728,77.0,240,300,3.0,95.0
4729,76.0,240,300,3.0,100.0
4730,77.0,240,300,3.0,91.0
4731,76.0,240,300,3.0,85.0
4732,77.0,240,300,3.0,87.0
4733,79.0,240,168,3.0,95.0
4734,81.0,240,132,3.0,97.0
4735,60.0,0,1920,5.0,70.0
4736,57.0,240,1920,7.0,70.0
4737,65.0,0,1920,6.0,70.0
4738,74.0,240,240,5.0,70.0
4739,72.0,240,240,5.0,70.0
4740,78.0,0,960,3.0,102.0
4741,74.0,240,240,5.0,70.0
4742,70.0,240,240,5.0,70.0
4743,69.0,240,240,5.0,70.0
4744,67.0,240,240,5.0,70.0
4745,58.0,240,1920,7.0,70.0
4746,65.0,240,240,5.0,70.0
4747,62.0,0,1920,6.0,70.0
4748,79.0,0,1116,3.0,99.0
4749,64.0,0,240,5.0,70.0
4750,65.0,0,240,5.0,70.0
4751,60.0,0,0,6.0,70.0
4752,60.0,240,480,7.0,70.0
4753,81.0,240,300,3.0,99.0
4754,67.0,240,240,5.0,70.0
4755,82.0,0,300,3.0,93.0
4756,48.0,0,0,7.0,70.0
4757,65.0,0,240,5.0,70.0
4758,81.0,240,300,3.0,93.0
4759,69.0,240,240,5.0,70.0
4760,84.0,0,300,3.0,100.0
4761,67.0,240,240,5.0,70.0
4762,82.0,0,300,3.0,100.0
4763,65.0,240,240,5.0,70.0
4764,60.0,0,240,6.0,70.0
4765,81.0,0,300,3.0,93.0
4766,79.0,0,132,3.0,88.0
4767,58.0,0,240,6.0,70.0
4768,48.0,0,480,7.0,70.0
4769,64.0,240,240,5.0,70.0
4770,77.0,0,264,3.0,90.0
4771,79.0,240,104,3.0,95.0
4772,77.0,60,104,3.0,97.0
4773,65.0,0,480,5.0,70.0
4774,57.0,240,480,6.0,70.0
4775,53.0,0,480,7.0,70.0
4776,76.0,60,132,3.0,96.0
4777,77.0,120,168,3.0,90.0
4778,79.0,240,96,3.0,84.0
4779,81.0,240,264,3.0,84.0
4780,82.0,240,104,3.0,93.0
4781,81.0,60,104,3.0,93.0
4782,79.0,60,132,3.0,93.0
4783,81.0,120,156,3.0,85.0
4784,82.0,240,120,3.0,87.0
4785,41.0,0,192,10.0,70.0
4786,53.0,0,192,8.0,70.0
4787,60.0,0,240,7.0,70.0
4788,65.0,10,240,5.0,70.0
4789,57.0,0,240,6.0,70.0
4790,72.0,0,288,3.0,103.0
4791,84.0,0,144,3.0,101.0
4792,60.0,240,240,6.0,70.0
4793,57.0,0,240,5.0,70.0
4794,53.0,0,240,7.0,70.0
4795,84.0,0,96,3.0,96.0
4796,41.0,0,192,10.0,70.0
4797,53.0,240,192,8.0,70.0
4798,57.0,0,240,6.0,70.0
4799,65.0,0,240,5.0,70.0
4800,60.0,0,240,7.0,70.0
4801,84.0,240,96,3.0,90.0
4802,53.0,0,240,7.0,70.0
4803,57.0,0,240,5.0,70.0
4804,60.0,0,240,6.0,70.0
4805,84.0,0,96,3.0,88.0
4806,53.0,0,192,8.0,70.0
4807,41.0,0,192,10.0,70.0
4808,57.0,0,240,6.0,70.0
4809,65.0,0,240,5.0,70.0
4810,60.0,240,240,7.0,70.0
4811,84.0,0,96,3.0,90.0
4812,53.0,0,240,7.0,70.0
4813,57.0,0,240,5.0,70.0
4814,60.0,240,240,6.0,70.0
4815,84.0,240,96,3.0,90.0
4816,41.0,0,192,10.0,70.0
4817,53.0,0,192,8.0,70.0
4818,60.0,0,240,7.0,70.0
4819,65.0,0,240,5.0,70.0
4820,57.0,0,240,6.0,70.0
4821,84.0,0,96,3.0,90.0
4822,53.0,0,240,7.0,70.0
4823,57.0,240,240,5.0,70.0
4824,60.0,0,240,6.0,70.0
4825,53.0,0,192,8.0,70.0
4826,41.0,0,192,10.0,70.0
4827,57.0,0,240,6.0,70.0
4828,65.0,240,240,5.0,70.0
4829,60.0,0,240,7.0,70.0
4830,69.0,0,264,3.0,100.0
4831,81.0,240,144,3.0,100.0
4832,53.0,0,240,7.0,70.0
4833,57.0,0,240,5.0,70.0
4834,60.0,0,240,6.0,70.0
4835,81.0,0,96,3.0,90.0
4836,41.0,0,192,10.0,70.0
4837,53.0,0,192,8.0,70.0
4838,57.0,0,240,6.0,70.0
4839,65.0,0,240,5.0,70.0
4840,60.0,240,240,7.0,70.0
4841,81.0,240,96,3.0,90.0
4842,60.0,0,240,6.0,70.0
4843,53.0,0,240,7.0,70.0
4844,57.0,0,240,5.0,70.0
4845,41.0,0,192,10.0,70.0
4846,53.0,0,192,8.0,70.0
4847,65.0,0,240,5.0,70.0
4848,60.0,0,240,7.0,70.0
4849,57.0,240,240,6.0,70.0
4850,65.0,0,288,3.0,104.0
4851,77.0,0,168,3.0,97.0
4852,57.0,0,240,5.0,70.0
4853,60.0,0,240,6.0,70.0
4854,53.0,240,240,7.0,70.0
4855,77.0,0,96,3.0,90.0
4856,53.0,0,192,8.0,70.0
4857,41.0,240,192,10.0,70.0
4858,60.0,0,240,7.0,70.0
4859,65.0,0,240,5.0,70.0
4860,57.0,0,240,6.0,70.0
4861,77.0,240,96,3.0,90.0
4862,53.0,0,240,7.0,70.0
4863,60.0,0,240,6.0,70.0
4864,57.0,0,240,5.0,70.0
4865,53.0,0,192,8.0,70.0
4866,41.0,0,192,10.0,70.0
4867,57.0,240,240,6.0,70.0
4868,65.0,0,240,5.0,70.0
4869,60.0,0,240,7.0,70.0
4870,72.0,0,324,3.0,90.0
4871,60.0,240,240,6.0,70.0
4872,57.0,0,240,5.0,70.0
4873,53.0,0,240,7.0,70.0
4874,41.0,0,192,10.0,70.0
4875,53.0,0,192,8.0,70.0
4876,57.0,240,240,6.0,70.0
4877,65.0,0,240,5.0,70.0
4878,60.0,0,240,7.0,70.0
4879,53.0,0,240,7.0,70.0
4880,60.0,240,240,6.0,70.0
4881,57.0,0,240,5.0,70.0
4882,72.0,0,636,3.0,90.0
4883,53.0,0,192,8.0,70.0
4884,41.0,0,192,10.0,70.0
4885,65.0,0,240,5.0,70.0
4886,57.0,240,240,6.0,70.0
4887,60.0,0,240,7.0,70.0
4888,53.0,0,240,7.0,70.0
4889,60.0,0,240,6.0,70.0
4890,57.0,240,240,5.0,70.0
4891,74.0,0,288,3.0,89.0
4892,41.0,0,192,10.0,70.0
4893,53.0,0,192,8.0,70.0
4894,60.0,240,240,7.0,70.0
4895,57.0,0,240,6.0,70.0
4896,65.0,0,240,5.0,70.0
4897,76.0,0,300,3.0,94.0
4898,77.0,0,168,3.0,99.0
4899,69.0,0,5760,1.0,70.0
4900,72.0,230,5760,0.0,70.0
4901,57.0,240,240,5.0,70.0
4902,60.0,0,240,6.0,70.0
4903,53.0,0,240,7.0,70.0
4904,53.0,0,192,8.0,70.0
4905,41.0,0,192,10.0,70.0
4906,58.0,0,240,6.0,70.0
4907,65.0,10,240,5.0,70.0
4908,76.0,0,408,3.0,90.0
4909,58.0,0,240,5.0,70.0
4910,65.0,240,240,6.0,70.0
4911,76.0,0,104,3.0,88.0
4912,74.0,60,104,3.0,94.0
4913,41.0,0,192,10.0,70.0
4914,53.0,0,192,8.0,70.0
4915,76.0,60,104,3.0,94.0
4916,58.0,240,240,6.0,70.0
4917,65.0,0,240,5.0,70.0
4918,74.0,60,104,3.0,93.0
4919,72.0,60,160,3.0,86.0
4920,74.0,120,96,3.0,81.0
4921,70.0,230,960,1.0,70.0
4922,74.0,0,960,0.0,70.0
4923,58.0,0,240,5.0,70.0
4924,58.0,0,960,7.0,70.0
4925,65.0,0,240,6.0,70.0
4926,65.0,0,240,5.0,70.0
4927,60.0,0,240,7.0,70.0
4928,57.0,0,240,6.0,70.0
4929,57.0,240,240,5.0,70.0
4930,60.0,0,240,6.0,70.0
4931,53.0,0,240,7.0,70.0
4932,57.0,0,240,6.0,70.0
4933,60.0,0,240,7.0,70.0
4934,65.0,240,240,5.0,70.0
4935,72.0,110,960,0.0,70.0
4936,69.0,0,960,1.0,70.0
4937,60.0,240,240,6.0,70.0
4938,72.0,10,960,3.0,90.0
4939,53.0,0,960,8.0,70.0
4940,57.0,0,240,5.0,70.0
4941,53.0,0,240,7.0,70.0
4942,41.0,0,960,10.0,70.0
4943,84.0,240,319,3.0,92.0
4944,83.0,240,319,3.0,97.0
4945,84.0,240,319,3.0,100.0
4946,86.0,240,319,3.0,105.0
4947,84.0,240,319,3.0,105.0
4948,82.0,240,319,3.0,103.0
4949,81.0,240,168,3.0,96.0
4950,57.0,240,1920,7.0,70.0
4951,60.0,0,1920,5.0,70.0
4952,78.0,0,300,3.0,83.0
4953,79.0,240,144,3.0,99.0
4954,85.0,240,300,3.0,90.0
4955,86.0,240,132,3.0,102.0
4956,81.0,240,288,3.0,90.0
4957,82.0,240,144,3.0,102.0
4958,78.0,240,300,3.0,90.0
4959,79.0,240,144,3.0,97.0
4960,65.0,0,3840,6.0,70.0
4961,58.0,240,1920,7.0,70.0
4962,67.0,0,1920,5.0,70.0
4963,62.0,0,1920,7.0,70.0
4964,60.0,0,480,7.0,70.0
4965,77.0,0,960,3.0,99.0
4966,69.0,0,960,5.0,70.0
4967,62.0,480,480,7.0,70.0
4968,69.0,0,60,5.0,70.0
4969,81.0,0,104,3.0,100.0
4970,67.0,0,60,5.0,70.0
4971,79.0,60,104,3.0,103.0
4972,69.0,0,60,5.0,70.0
4973,81.0,60,104,3.0,103.0
4974,67.0,0,60,5.0,70.0
4975,79.0,60,104,3.0,104.0
4976,69.0,0,60,5.0,70.0
4977,81.0,60,104,3.0,109.0
4978,67.0,0,60,5.0,70.0
4979,79.0,60,104,3.0,106.0
4980,69.0,0,60,5.0,70.0
4981,81.0,60,104,3.0,104.0
4982,65.0,240,1440,6.0,70.0
4983,67.0,0,60,5.0,70.0
4984,58.0,480,480,7.0,70.0
4985,79.0,60,104,3.0,98.0
4986,69.0,60,60,5.0,70.0
4987,81.0,0,104,3.0,93.0
4988,67.0,60,60,5.0,70.0
4989,79.0,0,104,3.0,91.0
4990,69.0,0,60,5.0,70.0
4991,81.0,60,104,3.0,88.0
4992,67.0,60,60,5.0,70.0
4993,79.0,0,139,3.0,83.0
4994,65.0,60,120,5.0,70.0
4995,77.0,0,160,3.0,82.0
4996,67.0,0,120,5.0,70.0
4997,60.0,0,480,7.0,70.0
4998,64.0,0,480,6.0,70.0
4999,79.0,120,160,3.0,82.0
5000,77.0,0,480,3.0,92.0
5001,65.0,0,480,6.0,70.0
5002,65.0,10,480,5.0,70.0
5003,77.0,110,1920,0.0,70.0
5004,72.0,0,1920,1.0,70.0
5005,65.0,0,1920,7.0,70.0
5006,57.0,0,1920,7.0,70.0
5007,79.0,0,1920,0.0,70.0
5008,76.0,1910,1920,1.0,70.0
5009,67.0,0,1920,7.0,70.0
5010,60.0,10,1920,7.0,70.0
5011,81.0,0,240,0.0,70.0
5012,65.0,0,240,4.0,80.0
5013,69.0,0,240,4.0,90.0
5014,84.0,230,240,0.0,70.0
5015,77.0,1910,480,1.0,70.0
5016,60.0,10,240,4.0,80.0
5017,65.0,0,240,4.0,90.0
5018,81.0,0,96,0.0,70.0
5019,65.0,0,240,4.0,80.0
5020,69.0,0,720,7.0,70.0
5021,65.0,10,720,7.0,70.0
5022,69.0,10,240,4.0,90.0
5023,79.0,230,96,0.0,70.0
5024,67.0,0,240,7.0,70.0
5025,70.0,0,240,4.0,90.0
5026,67.0,10,240,4.0,80.0
5027,72.0,0,240,4.0,90.0
5028,69.0,240,0,4.0,90.0
5029,72.0,230,960,1.0,70.0
5030,77.0,230,480,0.0,70.0
5031,65.0,0,480,7.0,70.0
5032,57.0,10,480,7.0,70.0
5033,65.0,0,240,4.0,80.0
5034,70.0,0,240,4.0,90.0
5035,67.0,240,0,4.0,90.0
5036,76.0,0,480,1.0,70.0
5037,79.0,230,480,0.0,70.0
5038,64.0,0,240,4.0,80.0
5039,60.0,0,480,7.0,70.0
5040,67.0,0,480,7.0,70.0
5041,81.0,0,240,0.0,70.0
5042,69.0,0,240,4.0,90.0
5043,65.0,0,240,4.0,80.0
5044,84.0,230,240,0.0,70.0
5045,77.0,230,480,1.0,70.0
5046,65.0,10,0,4.0,80.0
5047,60.0,10,240,4.0,80.0
5048,81.0,230,96,0.0,70.0
5049,69.0,0,720,7.0,70.0
5050,69.0,0,240,4.0,90.0
5051,65.0,10,720,7.0,70.0
5052,79.0,230,96,0.0,70.0
5053,67.0,0,240,7.0,70.0
5054,67.0,0,240,4.0,80.0
5055,70.0,10,240,4.0,90.0
5056,69.0,0,240,4.0,80.0
5057,72.0,10,240,4.0,90.0
5058,77.0,230,480,0.0,70.0
5059,72.0,0,960,1.0,70.0
5060,65.0,0,240,4.0,80.0
5061,65.0,0,480,7.0,70.0
5062,57.0,0,480,7.0,70.0
5063,69.0,240,240,4.0,90.0
5064,70.0,0,240,4.0,90.0
5065,67.0,0,0,4.0,90.0
5066,76.0,230,480,1.0,70.0
5067,79.0,0,480,0.0,70.0
5068,64.0,240,240,4.0,80.0
5069,67.0,0,480,7.0,70.0
5070,60.0,0,480,7.0,70.0
5071,81.0,0,240,0.0,70.0
5072,69.0,0,240,4.0,90.0
5073,65.0,0,0,4.0,90.0
5074,84.0,230,240,0.0,70.0
5075,77.0,230,480,1.0,70.0
5076,60.0,10,240,4.0,80.0
5077,57.0,0,480,7.0,70.0
5078,65.0,0,480,7.0,70.0
5079,81.0,0,96,0.0,70.0
5080,65.0,0,240,4.0,80.0
5081,69.0,10,240,4.0,90.0
5082,79.0,230,96,0.0,70.0
5083,67.0,10,240,4.0,80.0
5084,70.0,0,240,4.0,90.0
5085,69.0,10,240,4.0,80.0
5086,72.0,0,240,4.0,90.0
5087,77.0,230,480,0.0,70.0
5088,72.0,230,960,1.0,70.0
5089,69.0,0,240,4.0,90.0
5090,65.0,240,240,4.0,80.0
5091,81.0,0,240,0.0,70.0
5092,70.0,0,240,4.0,90.0
5093,67.0,10,240,4.0,80.0
5094,84.0,0,5652,3.0,90.0
5095,79.0,230,240,0.0,70.0
5096,76.0,230,480,1.0,70.0
5097,67.0,0,240,4.0,90.0
5098,64.0,10,240,4.0,80.0
5099,65.0,240,0,4.0,90.0
5100,77.0,230,480,0.0,70.0
5101,69.0,240,240,4.0,90.0
5102,84.0,10,768,3.0,90.0
5103,81.0,240,180,3.0,90.0
5104,65.0,0,240,4.0,90.0
5105,89.0,240,156,3.0,90.0
5106,72.0,0,240,4.0,90.0
5107,69.0,240,240,4.0,90.0
5108,72.0,240,240,4.0,90.0
5109,69.0,240,240,4.0,90.0
5110,65.0,240,240,4.0,80.0
5111,77.0,0,240,4.0,90.0
5112,72.0,0,240,4.0,80.0
5113,76.0,240,240,4.0,90.0
5114,77.0,240,240,4.0,90.0
5115,69.0,0,240,4.0,80.0
5116,76.0,0,240,4.0,90.0
5117,72.0,240,240,4.0,80.0
5118,65.0,0,240,4.0,80.0
5119,72.0,240,240,4.0,80.0
5120,77.0,240,480,4.0,90.0
5121,69.0,240,240,4.0,80.0
5122,81.0,0,480,4.0,90.0
5123,72.0,240,240,4.0,80.0
5124,64.0,240,240,4.0,80.0
5125,81.0,0,240,4.0,90.0
5126,79.0,0,0,4.0,90.0
5127,73.0,0,240,4.0,80.0
5128,69.0,240,240,4.0,80.0
5129,78.0,0,240,4.0,90.0
5130,73.0,240,240,4.0,80.0
5131,64.0,240,240,4.0,80.0
5132,79.0,0,480,4.0,90.0
5133,73.0,240,240,4.0,80.0
5134,69.0,240,240,4.0,80.0
5135,73.0,240,240,4.0,80.0
5136,88.0,240,240,4.0,90.0
5137,61.0,0,240,4.0,80.0
5138,87.0,240,240,4.0,90.0
5139,69.0,0,240,4.0,80.0
5140,88.0,0,240,4.0,90.0
5141,64.0,240,240,4.0,80.0
5142,69.0,0,240,4.0,80.0
5143,87.0,240,240,4.0,90.0
5144,61.0,240,240,4.0,80.0
5145,69.0,240,240,4.0,80.0
5146,88.0,0,480,4.0,90.0
5147,64.0,0,240,4.0,80.0
5148,76.0,240,480,4.0,90.0
5149,69.0,240,240,4.0,80.0
5150,62.0,240,240,4.0,80.0
5151,79.0,0,240,4.0,90.0
5152,69.0,0,240,4.0,80.0
5153,77.0,240,240,4.0,90.0
5154,77.0,0,240,4.0,90.0
5155,65.0,240,240,4.0,80.0
5156,69.0,240,240,4.0,80.0
5157,76.0,0,240,4.0,90.0
5158,62.0,240,240,4.0,80.0
5159,69.0,240,240,4.0,80.0
5160,77.0,0,480,4.0,90.0
5161,65.0,240,240,4.0,80.0
5162,69.0,240,240,4.0,80.0
5163,62.0,240,240,4.0,80.0
5164,77.0,0,240,4.0,90.0
5165,69.0,0,240,4.0,80.0
5166,76.0,240,240,4.0,90.0
5167,77.0,0,240,4.0,90.0
5168,65.0,240,240,4.0,80.0
5169,76.0,0,240,4.0,90.0
5170,69.0,240,240,4.0,80.0
5171,60.0,0,240,4.0,80.0
5172,68.0,240,240,4.0,80.0
5173,77.0,240,480,4.0,90.0
5174,62.0,0,240,4.0,80.0
5175,68.0,240,240,4.0,80.0
5176,77.0,180,60,4.0,90.0
5177,59.0,0,240,4.0,80.0
5178,67.0,240,240,4.0,80.0
5179,89.0,60,480,4.0,90.0
5180,62.0,0,240,4.0,80.0
5181,89.0,240,240,4.0,90.0
5182,67.0,0,240,4.0,80.0
5183,88.0,240,240,4.0,90.0
5184,59.0,240,240,4.0,80.0
5185,67.0,240,240,4.0,80.0
5186,89.0,0,480,4.0,90.0
5187,62.0,240,240,4.0,80.0
5188,67.0,0,0,4.0,80.0
5189,89.0,0,240,4.0,90.0
5190,88.0,240,240,4.0,90.0
5191,86.0,240,240,4.0,90.0
5192,84.0,240,240,4.0,90.0
5193,59.0,0,960,4.0,80.0
5194,83.0,240,240,4.0,90.0
5195,81.0,240,240,4.0,90.0
5196,79.0,240,240,4.0,90.0
5197,77.0,240,240,4.0,90.0
5198,67.0,0,480,4.0,80.0
5199,59.0,0,480,4.0,80.0
5200,76.0,240,240,4.0,90.0
5201,77.0,240,240,4.0,90.0
5202,79.0,240,240,4.0,90.0
5203,81.0,240,240,4.0,90.0
5204,67.0,0,960,4.0,80.0
5205,60.0,0,960,4.0,80.0
5206,83.0,240,240,4.0,90.0
5207,84.0,240,240,4.0,90.0
5208,86.0,240,240,4.0,90.0
5209,67.0,240,3612,3.0,90.0
5210,67.0,0,480,4.0,80.0
5211,60.0,0,480,4.0,80.0
5212,88.0,240,240,4.0,90.0
5213,86.0,0,240,3.0,90.0
5214,89.0,240,240,4.0,90.0
5215,88.0,0,240,4.0,90.0
5216,84.0,240,240,3.0,90.0
5217,86.0,240,240,4.0,90.0
5218,83.0,0,240,3.0,90.0
5219,81.0,240,240,3.0,90.0
5220,59.0,0,960,4.0,80.0
5221,67.0,0,960,4.0,80.0
5222,84.0,0,240,4.0,90.0
5223,83.0,0,240,4.0,90.0
5224,79.0,240,240,3.0,90.0
5225,81.0,240,240,4.0,90.0
5226,77.0,0,240,3.0,90.0
5227,79.0,0,240,4.0,90.0
5228,76.0,0,240,3.0,90.0
5229,77.0,240,240,4.0,90.0
5230,67.0,240,0,4.0,80.0
5231,59.0,240,480,4.0,80.0
5232,74.0,0,240,3.0,90.0
5233,72.0,0,240,3.0,90.0
5234,76.0,0,240,4.0,90.0
5235,77.0,0,240,4.0,90.0
5236,74.0,240,240,3.0,90.0
5237,79.0,240,240,4.0,90.0
5238,76.0,0,240,3.0,90.0
5239,60.0,0,960,4.0,80.0
5240,77.0,0,240,3.0,90.0
5241,81.0,240,240,4.0,90.0
5242,83.0,0,240,4.0,90.0
5243,79.0,240,240,3.0,90.0
5244,84.0,240,240,4.0,90.0
5245,81.0,0,240,3.0,90.0
5246,86.0,240,240,4.0,90.0
5247,83.0,0,240,3.0,90.0
5248,88.0,240,240,4.0,90.0
5249,67.0,0,480,4.0,80.0
5250,84.0,0,240,3.0,90.0
5251,60.0,0,480,4.0,80.0
5252,86.0,0,240,4.0,90.0
5253,83.0,0,240,3.0,90.0
5254,84.0,240,240,4.0,90.0
5255,81.0,0,240,3.0,90.0
5256,80.0,0,240,3.0,90.0
5257,83.0,240,240,4.0,90.0
5258,77.0,240,240,3.0,90.0
5259,81.0,0,240,4.0,90.0
5260,64.0,240,960,4.0,80.0
5261,56.0,0,960,4.0,80.0
5262,80.0,0,240,4.0,90.0
5263,76.0,240,240,3.0,90.0
5264,74.0,0,240,3.0,90.0
5265,77.0,240,240,4.0,90.0
5266,72.0,0,240,3.0,90.0
5267,76.0,0,240,4.0,90.0
5268,74.0,0,240,4.0,90.0
5269,71.0,240,240,3.0,90.0
5270,64.0,240,480,4.0,80.0
5271,56.0,0,480,4.0,80.0
5272,69.0,0,240,3.0,90.0
5273,72.0,240,240,4.0,90.0
5274,74.0,0,240,4.0,90.0
5275,71.0,240,240,3.0,90.0
5276,72.0,0,240,3.0,90.0
5277,76.0,240,240,4.0,90.0
5278,57.0,0,960,4.0,80.0
5279,74.0,240,240,3.0,90.0
5280,77.0,0,240,4.0,90.0
5281,64.0,0,960,4.0,80.0
5282,76.0,240,240,3.0,90.0
5283,80.0,0,240,4.0,90.0
5284,77.0,240,240,3.0,90.0
5285,81.0,0,240,4.0,90.0
5286,80.0,240,240,3.0,90.0
5287,83.0,0,240,4.0,90.0
5288,57.0,0,480,4.0,80.0
5289,81.0,240,240,3.0,90.0
5290,64.0,0,480,4.0,80.0
5291,84.0,0,240,4.0,90.0
5292,82.0,0,240,4.0,90.0
5293,79.0,0,240,3.0,90.0
5294,77.0,240,240,3.0,90.0
5295,81.0,0,240,4.0,90.0
5296,79.0,0,240,4.0,90.0
5297,76.0,240,240,3.0,90.0
5298,74.0,0,240,3.0,90.0
5299,77.0,240,240,4.0,90.0
5300,60.0,240,960,4.0,80.0
5301,52.0,0,960,4.0,80.0
5302,72.0,0,240,3.0,90.0
5303,76.0,240,240,4.0,90.0
5304,74.0,240,240,4.0,90.0
5305,70.0,0,240,3.0,90.0
5306,72.0,240,240,4.0,90.0
5307,69.0,0,240,3.0,90.0
5308,52.0,0,480,4.0,80.0
5309,70.0,240,240,4.0,90.0
5310,60.0,0,480,4.0,80.0
5311,67.0,0,240,3.0,90.0
5312,69.0,0,240,4.0,90.0
5313,53.0,240,480,4.0,80.0
5314,60.0,0,480,4.0,80.0
5315,65.0,0,480,3.0,90.0
5316,74.0,240,240,4.0,90.0
5317,73.0,240,240,4.0,90.0
5318,76.0,240,240,4.0,90.0
5319,74.0,240,240,4.0,90.0
5320,77.0,240,240,4.0,90.0
5321,76.0,240,240,4.0,90.0
5322,79.0,240,240,4.0,90.0
5323,77.0,240,240,4.0,90.0
5324,81.0,240,240,4.0,90.0
5325,79.0,240,240,4.0,90.0
5326,82.0,240,240,4.0,90.0
5327,81.0,0,240,4.0,90.0
5328,77.0,240,240,4.0,90.0
5329,53.0,240,480,4.0,80.0
5330,74.0,240,240,4.0,90.0
5331,72.0,240,240,4.0,90.0
5332,54.0,0,480,4.0,80.0
5333,71.0,0,240,3.0,90.0
5334,55.0,0,480,4.0,80.0
5335,71.0,0,480,4.0,90.0
5336,74.0,240,480,4.0,90.0
5337,67.0,240,240,3.0,90.0
5338,79.0,0,480,4.0,90.0
5339,69.0,240,240,3.0,90.0
5340,71.0,240,240,3.0,90.0
5341,72.0,240,240,3.0,90.0
5342,74.0,240,240,3.0,90.0
5343,76.0,240,240,3.0,90.0
5344,78.0,240,240,3.0,90.0
5345,79.0,240,240,3.0,90.0
5346,78.0,240,240,3.0,90.0
5347,79.0,240,240,3.0,90.0
5348,78.0,240,240,3.0,90.0
5349,79.0,240,240,3.0,90.0
5350,78.0,240,240,3.0,90.0
5351,79.0,240,240,3.0,90.0
5352,78.0,240,240,3.0,90.0
5353,63.0,480,0,4.0,80.0
5354,72.0,0,480,4.0,90.0
5355,75.0,0,480,4.0,90.0
5356,60.0,960,480,4.0,80.0
5357,75.0,0,480,4.0,90.0
5358,60.0,0,480,4.0,80.0
5359,72.0,480,0,4.0,90.0
5360,63.0,0,240,5.0,70.0
5361,60.0,0,240,6.0,70.0
5362,60.0,0,480,8.0,70.0
5363,55.0,240,240,6.0,70.0
5364,60.0,0,240,5.0,70.0
5365,48.0,0,480,10.0,70.0
5366,63.0,0,240,5.0,70.0
5367,60.0,240,240,6.0,70.0
5368,60.0,0,960,4.0,80.0
5369,75.0,0,960,4.0,90.0
5370,63.0,0,960,4.0,80.0
5371,55.0,0,240,6.0,70.0
5372,60.0,240,240,5.0,70.0
5373,59.0,0,240,6.0,70.0
5374,67.0,240,240,4.0,80.0
5375,79.0,0,240,4.0,90.0
5376,62.0,0,240,5.0,70.0
5377,65.0,0,240,4.0,80.0
5378,74.0,0,240,4.0,90.0
5379,77.0,0,240,4.0,90.0
5380,62.0,0,240,4.0,80.0
5381,59.0,0,240,5.0,70.0
5382,55.0,240,240,6.0,70.0
5383,55.0,0,480,8.0,70.0
5384,43.0,0,480,10.0,70.0
5385,59.0,0,240,6.0,70.0
5386,62.0,240,240,5.0,70.0
5387,72.0,0,240,4.0,90.0
5388,63.0,0,240,4.0,80.0
5389,75.0,0,240,4.0,90.0
5390,60.0,0,240,4.0,80.0
5391,74.0,0,240,4.0,90.0
5392,55.0,240,240,6.0,70.0
5393,65.0,0,240,4.0,80.0
5394,59.0,0,240,5.0,70.0
5395,77.0,0,240,4.0,90.0
5396,62.0,0,240,4.0,80.0
5397,63.0,0,240,4.0,80.0
5398,79.0,0,240,4.0,90.0
5399,75.0,240,0,4.0,90.0
5400,67.0,0,240,4.0,80.0
5401,67.0,0,2400,7.0,70.0
5402,36.0,240,480,10.0,70.0
5403,63.0,0,240,4.0,80.0
5404,48.0,0,480,8.0,70.0
5405,60.0,0,480,5.0,70.0
5406,72.0,0,480,4.0,90.0
5407,60.0,240,480,4.0,80.0
5408,74.0,480,480,4.0,90.0
5409,71.0,0,480,4.0,90.0
5410,62.0,0,480,4.0,80.0
5411,59.0,480,0,4.0,80.0
5412,74.0,0,0,4.0,90.0
5413,62.0,0,0,4.0,80.0
5414,55.0,0,5760,2.0,70.0
5415,43.0,240,5760,2.0,70.0
5416,71.0,0,480,4.0,90.0
5417,59.0,0,240,6.0,70.0
5418,62.0,0,240,5.0,70.0
5419,43.0,0,480,10.0,70.0
5420,59.0,0,240,5.0,70.0
5421,55.0,240,240,6.0,70.0
5422,55.0,0,480,8.0,70.0
5423,59.0,0,240,6.0,70.0
5424,62.0,240,240,5.0,70.0
5425,59.0,240,240,5.0,70.0
5426,55.0,0,240,6.0,70.0
5427,71.0,0,960,4.0,90.0
5428,59.0,480,960,4.0,80.0
5429,60.0,0,240,6.0,70.0
5430,63.0,240,240,5.0,70.0
5431,77.0,0,240,4.0,90.0
5432,65.0,0,240,4.0,80.0
5433,63.0,0,240,4.0,80.0
5434,60.0,240,240,4.0,80.0
5435,75.0,0,240,4.0,90.0
5436,48.0,0,480,8.0,70.0
5437,72.0,0,240,4.0,90.0
5438,36.0,0,480,10.0,70.0
5439,60.0,0,240,5.0,70.0
5440,55.0,0,240,6.0,70.0
5441,59.0,240,240,4.0,80.0
5442,74.0,0,240,4.0,90.0
5443,71.0,0,240,4.0,90.0
5444,62.0,0,240,4.0,80.0
5445,63.0,0,240,5.0,70.0
5446,60.0,0,240,6.0,70.0
5447,63.0,0,240,4.0,80.0
5448,60.0,0,240,5.0,70.0
5449,75.0,240,240,4.0,90.0
5450,55.0,0,240,6.0,70.0
5451,60.0,0,240,4.0,80.0
5452,72.0,0,240,4.0,90.0
5453,74.0,0,240,4.0,90.0
5454,77.0,0,240,4.0,90.0
5455,62.0,0,240,4.0,80.0
5456,65.0,0,240,4.0,80.0
5457,62.0,0,480,5.0,70.0
5458,67.0,0,2400,7.0,70.0
5459,31.0,0,480,10.0,70.0
5460,59.0,240,480,6.0,70.0
5461,43.0,0,480,8.0,70.0
5462,74.0,240,240,4.0,90.0
5463,79.0,0,8160,3.0,90.0
5464,62.0,0,240,4.0,80.0
5465,79.0,240,192,3.0,90.0
5466,59.0,240,480,4.0,80.0
5467,71.0,0,480,4.0,90.0
5468,78.0,240,314,3.0,90.0
5469,79.0,240,314,3.0,90.0
5470,78.0,240,314,3.0,90.0
5471,79.0,240,192,3.0,90.0
5472,72.0,0,480,4.0,90.0
5473,67.0,240,480,4.0,90.0
5474,63.0,0,480,4.0,80.0
5475,84.0,0,528,3.0,90.0
5476,65.0,0,480,4.0,90.0
5477,70.0,0,480,4.0,90.0
5478,62.0,0,480,4.0,80.0
5479,82.0,480,528,3.0,90.0
5480,63.0,0,480,4.0,90.0
5481,68.0,0,480,4.0,90.0
5482,60.0,480,480,4.0,80.0
5483,80.0,0,528,3.0,90.0
5484,79.0,480,372,3.0,90.0
5485,67.0,0,480,4.0,90.0
5486,62.0,0,480,4.0,90.0
5487,58.0,0,480,4.0,80.0
5488,44.0,0,480,4.0,80.0
5489,56.0,0,480,7.0,70.0
5490,56.0,0,480,4.0,80.0
5491,60.0,240,240,4.0,90.0
5492,63.0,240,240,4.0,90.0
5493,79.0,480,804,3.0,90.0
5494,78.0,0,180,3.0,90.0
5495,63.0,0,480,6.0,70.0
5496,72.0,0,480,5.0,70.0
5497,66.0,240,240,4.0,90.0
5498,72.0,0,240,4.0,90.0
5499,75.0,0,480,5.0,70.0
5500,66.0,240,240,4.0,90.0
5501,60.0,240,480,6.0,70.0
5502,63.0,240,240,4.0,90.0
5503,66.0,0,480,5.0,70.0
5504,63.0,0,480,6.0,70.0
5505,60.0,240,240,4.0,90.0
5506,78.0,0,1356,3.0,90.0
5507,60.0,240,240,4.0,90.0
5508,44.0,0,480,4.0,80.0
5509,56.0,240,480,7.0,70.0
5510,56.0,0,480,4.0,80.0
5511,63.0,240,240,4.0,90.0
5512,60.0,0,480,6.0,70.0
5513,75.0,0,480,3.0,90.0
5514,66.0,240,240,4.0,90.0
5515,72.0,240,240,4.0,90.0
5516,62.0,0,480,6.0,70.0
5517,66.0,240,240,4.0,90.0
5518,66.0,0,960,5.0,70.0
5519,74.0,0,480,3.0,90.0
5520,63.0,240,240,4.0,90.0
5521,72.0,0,396,3.0,90.0
5522,66.0,0,480,5.0,70.0
5523,63.0,0,480,6.0,70.0
5524,60.0,240,240,4.0,90.0
5525,71.0,0,288,3.0,90.0
5526,74.0,0,156,3.0,90.0
5527,55.0,240,480,7.0,70.0
5528,62.0,240,240,4.0,90.0
5529,55.0,0,480,4.0,80.0
5530,43.0,0,480,4.0,80.0
5531,79.0,0,96,3.0,90.0
5532,67.0,0,240,4.0,90.0
5533,79.0,0,96,3.0,90.0
5534,71.0,0,480,5.0,70.0
5535,62.0,240,480,6.0,70.0
5536,71.0,240,240,4.0,90.0
5537,74.0,240,240,4.0,90.0
5538,59.0,0,480,6.0,70.0
5539,71.0,240,240,4.0,90.0
5540,74.0,0,480,5.0,70.0
5541,67.0,0,240,4.0,90.0
5542,62.0,240,480,6.0,70.0
5543,71.0,0,480,5.0,70.0
5544,62.0,240,240,4.0,90.0
5545,59.0,0,240,4.0,90.0
5546,79.0,0,1308,3.0,90.0
5547,55.0,0,480,7.0,70.0
5548,62.0,240,240,4.0,90.0
5549,55.0,0,480,4.0,80.0
5550,43.0,240,480,4.0,80.0
5551,83.0,0,96,3.0,90.0
5552,67.0,0,240,4.0,90.0
5553,86.0,240,96,3.0,90.0
5554,71.0,0,240,4.0,90.0
5555,67.0,0,480,6.0,70.0
5556,79.0,240,480,5.0,70.0
5557,75.0,0,240,4.0,90.0
5558,84.0,240,324,3.0,90.0
5559,83.0,240,180,3.0,90.0
5560,74.0,0,240,4.0,90.0
5561,66.0,0,480,6.0,70.0
5562,78.0,0,480,5.0,70.0
5563,81.0,0,96,3.0,90.0
5564,72.0,0,240,4.0,90.0
5565,79.0,0,96,3.0,90.0
5566,71.0,240,240,4.0,90.0
5567,79.0,0,480,5.0,70.0
5568,67.0,240,480,6.0,70.0
5569,72.0,240,240,4.0,90.0
5570,44.0,0,480,4.0,80.0
5571,56.0,0,480,4.0,80.0
5572,56.0,0,480,7.0,70.0
5573,60.0,240,240,4.0,90.0
5574,79.0,0,552,3.0,90.0
5575,63.0,0,240,4.0,90.0
5576,78.0,0,396,3.0,90.0
5577,66.0,240,240,4.0,90.0
5578,63.0,240,480,6.0,70.0
5579,72.0,0,480,5.0,70.0
5580,72.0,240,240,4.0,90.0
5581,75.0,0,480,5.0,70.0
5582,60.0,0,480,6.0,70.0
5583,66.0,240,240,4.0,90.0
5584,63.0,0,240,4.0,90.0
5585,60.0,240,240,4.0,90.0
5586,66.0,0,480,5.0,70.0
5587,63.0,240,480,6.0,70.0
5588,87.0,0,1368,3.0,90.0
5589,56.0,0,480,7.0,70.0
5590,44.0,240,480,4.0,80.0
5591,56.0,0,480,4.0,80.0
5592,60.0,240,240,4.0,90.0
5593,63.0,0,240,4.0,90.0
5594,66.0,240,240,4.0,90.0
5595,63.0,240,480,5.0,70.0
5596,84.0,0,564,3.0,90.0
5597,72.0,0,240,4.0,90.0
5598,66.0,0,960,6.0,70.0
5599,60.0,0,480,5.0,70.0
5600,66.0,240,240,4.0,90.0
5601,87.0,240,552,3.0,90.0
5602,63.0,240,240,4.0,90.0
5603,78.0,0,372,3.0,90.0
5604,72.0,0,480,5.0,70.0
5605,66.0,0,480,6.0,70.0
5606,60.0,240,240,4.0,90.0
5607,67.0,0,480,6.0,70.0
5608,55.0,0,480,7.0,70.0
5609,71.0,0,480,5.0,70.0
5610,55.0,10,480,8.0,70.0
5611,43.0,0,480,4.0,80.0
5612,43.0,0,480,10.0,70.0
5613,55.0,0,480,4.0,80.0
5614,59.0,240,240,4.0,90.0
5615,79.0,0,480,3.0,90.0
5616,79.0,240,192,5.0,70.0
5617,67.0,0,192,6.0,70.0
5618,62.0,0,240,4.0,90.0
5619,71.0,230,960,1.0,70.0
5620,74.0,0,960,0.0,70.0
5621,67.0,240,240,4.0,90.0
5622,60.0,240,240,4.0,90.0
5623,55.0,0,480,4.0,80.0
5624,84.0,10,528,3.0,90.0
5625,63.0,0,240,4.0,90.0
5626,78.0,240,384,3.0,90.0
5627,72.0,230,960,1.0,70.0
5628,75.0,0,960,0.0,70.0
5629,66.0,240,240,4.0,90.0
5630,43.0,10,480,4.0,80.0
5631,55.0,0,480,4.0,80.0
5632,59.0,240,240,4.0,90.0
5633,79.0,0,480,3.0,90.0
5634,55.0,0,480,8.0,70.0
5635,43.0,0,480,10.0,70.0
5636,55.0,0,480,7.0,70.0
5637,79.0,0,192,5.0,70.0
5638,67.0,0,192,6.0,70.0
5639,62.0,240,240,4.0,90.0
5640,74.0,230,960,0.0,70.0
5641,71.0,0,960,1.0,70.0
5642,67.0,240,240,4.0,90.0
5643,60.0,240,240,4.0,90.0
5644,55.0,0,480,4.0,80.0
5645,84.0,10,528,3.0,90.0
5646,63.0,240,240,4.0,90.0
5647,78.0,0,360,3.0,90.0
5648,72.0,230,960,1.0,70.0
5649,75.0,0,960,0.0,70.0
5650,66.0,240,240,4.0,90.0
5651,79.0,0,384,3.0,90.0
5652,55.0,0,480,4.0,80.0
5653,59.0,240,240,4.0,90.0
5654,62.0,240,240,4.0,90.0
5655,71.0,230,960,1.0,70.0
5656,74.0,0,960,0.0,70.0
5657,79.0,0,480,5.0,70.0
5658,67.0,0,480,6.0,70.0
5659,62.0,10,960,7.0,70.0
5660,59.0,240,240,4.0,90.0
5661,59.0,0,960,7.0,70.0
5662,79.0,0,360,3.0,90.0
5663,61.0,240,240,4.0,90.0
5664,55.0,0,480,4.0,80.0
5665,64.0,240,240,4.0,90.0
5666,76.0,0,960,0.0,70.0
5667,73.0,230,960,1.0,70.0
5668,61.0,0,960,7.0,70.0
5669,79.0,0,480,5.0,70.0
5670,61.0,240,240,4.0,90.0
5671,67.0,0,0,6.0,70.0
5672,64.0,10,960,7.0,70.0
5673,79.0,10,240,5.0,70.0
5674,79.0,0,305,3.0,90.0
5675,62.0,0,240,4.0,90.0
5676,55.0,0,480,4.0,80.0
5677,78.0,240,305,3.0,90.0
5678,65.0,0,240,4.0,90.0
5679,79.0,0,240,5.0,70.0
5680,67.0,240,240,6.0,70.0
5681,79.0,0,305,3.0,90.0
5682,74.0,0,960,1.0,70.0
5683,77.0,230,960,0.0,70.0
5684,62.0,0,960,7.0,70.0
5685,65.0,0,960,7.0,70.0
5686,62.0,0,240,4.0,90.0
5687,78.0,240,305,3.0,90.0
5688,67.0,0,240,6.0,70.0
5689,79.0,0,240,5.0,70.0
5690,79.0,10,305,3.0,90.0
5691,59.0,0,240,4.0,90.0
5692,55.0,0,480,4.0,80.0
5693,78.0,240,305,3.0,90.0
5694,62.0,0,240,4.0,90.0
5695,67.0,0,240,6.0,70.0
5696,79.0,240,240,5.0,70.0
5697,79.0,0,305,3.0,90.0
5698,78.0,240,156,3.0,90.0
5699,71.0,230,960,1.0,70.0
5700,74.0,0,960,0.0,70.0
5701,43.0,0,3840,10.0,70.0
5702,55.0,0,3840,8.0,70.0
5703,55.0,0,7680,2.0,70.0
5704,62.0,0,960,7.0,70.0
5705,59.0,0,960,7.0,70.0
5706,59.0,0,240,4.0,90.0
5707,60.0,0,240,4.0,90.0
5708,72.0,230,480,1.0,70.0
5709,76.0,0,480,0.0,70.0
5710,64.0,0,480,7.0,70.0
5711,79.0,0,480,5.0,70.0
5712,60.0,0,480,7.0,70.0
5713,48.0,0,480,2.0,70.0
5714,36.0,0,480,10.0,70.0
5715,48.0,0,480,8.0,70.0
5716,48.0,0,480,4.0,80.0
5717,64.0,240,240,4.0,90.0
5718,60.0,10,480,2.0,70.0
5719,67.0,0,480,6.0,70.0
5720,67.0,240,240,4.0,90.0
5721,65.0,240,240,4.0,90.0
5722,64.0,240,240,4.0,90.0
5723,79.0,0,1440,3.0,90.0
5724,67.0,240,240,4.0,90.0
5725,76.0,0,240,3.0,90.0
5726,72.0,240,240,4.0,90.0
5727,77.0,240,240,3.0,90.0
5728,74.0,0,240,4.0,90.0
5729,76.0,240,240,4.0,90.0
5730,79.0,0,420,3.0,90.0
5731,36.0,0,480,4.0,80.0
5732,72.0,240,240,4.0,90.0
5733,67.0,0,240,4.0,90.0
5734,79.0,240,432,3.0,90.0
5735,65.0,240,240,4.0,90.0
5736,64.0,240,240,4.0,90.0
5737,79.0,0,396,3.0,90.0
5738,67.0,240,240,4.0,90.0
5739,72.0,0,240,4.0,90.0
5740,79.0,240,420,3.0,90.0
5741,74.0,240,240,4.0,90.0
5742,76.0,240,240,4.0,90.0
5743,69.0,240,240,4.0,90.0
5744,57.0,0,480,4.0,80.0
5745,45.0,0,480,4.0,80.0
5746,73.0,240,240,4.0,90.0
5747,79.0,0,744,3.0,90.0
5748,88.0,0,192,3.0,90.0
5749,76.0,240,240,4.0,90.0
5750,79.0,0,240,4.0,90.0
5751,73.0,240,240,4.0,90.0
5752,76.0,240,240,4.0,90.0
5753,79.0,240,240,4.0,90.0
5754,85.0,240,240,4.0,90.0
5755,76.0,240,240,4.0,90.0
5756,79.0,240,240,4.0,90.0
5757,88.0,240,1860,3.0,90.0
5758,85.0,240,240,4.0,90.0
5759,64.0,240,240,4.0,80.0
5760,88.0,0,480,4.0,90.0
5761,61.0,240,240,4.0,80.0
5762,79.0,240,960,3.0,90.0
5763,57.0,240,240,4.0,80.0
5764,74.0,0,240,4.0,90.0
5765,62.0,240,480,4.0,80.0
5766,69.0,240,240,4.0,90.0
5767,65.0,240,240,4.0,90.0
5768,64.0,240,240,4.0,90.0
5769,62.0,240,240,4.0,90.0
5770,65.0,240,240,4.0,90.0
5771,77.0,0,1440,3.0,90.0
5772,74.0,240,240,3.0,90.0
5773,69.0,0,240,4.0,90.0
5774,76.0,240,240,3.0,90.0
5775,73.0,0,240,4.0,90.0
5776,74.0,0,240,4.0,90.0
5777,77.0,0,432,3.0,90.0
5778,69.0,240,240,4.0,90.0
5779,50.0,240,480,4.0,80.0
5780,65.0,0,240,4.0,90.0
5781,77.0,240,432,3.0,90.0
5782,64.0,240,240,4.0,90.0
5783,62.0,0,240,4.0,90.0
5784,77.0,240,432,3.0,90.0
5785,65.0,240,240,4.0,90.0
5786,69.0,240,240,4.0,90.0
5787,77.0,0,444,3.0,90.0
5788,72.0,240,240,4.0,90.0
5789,71.0,0,240,4.0,90.0
5790,67.0,240,240,4.0,90.0
5791,55.0,0,480,4.0,80.0
5792,43.0,0,480,4.0,80.0
5793,71.0,240,240,4.0,90.0
5794,77.0,240,780,3.0,90.0
5795,86.0,0,168,3.0,90.0
5796,74.0,240,240,4.0,90.0
5797,77.0,0,240,4.0,90.0
5798,71.0,240,240,4.0,90.0
5799,74.0,240,240,4.0,90.0
5800,77.0,240,240,4.0,90.0
5801,83.0,240,240,4.0,90.0
5802,74.0,240,240,4.0,90.0
5803,77.0,240,240,4.0,90.0
5804,83.0,240,240,4.0,90.0
5805,86.0,240,1920,3.0,90.0
5806,62.0,240,240,4.0,80.0
5807,86.0,240,480,4.0,90.0
5808,59.0,240,240,4.0,80.0
5809,77.0,0,960,3.0,90.0
5810,55.0,240,240,4.0,80.0
5811,79.0,240,240,4.0,90.0
5812,60.0,0,480,4.0,80.0
5813,76.0,0,480,3.0,90.0
5814,76.0,240,240,4.0,90.0
5815,48.0,0,960,7.0,70.0
5816,72.0,240,240,4.0,90.0
5817,71.0,0,240,4.0,90.0
5818,41.0,0,480,4.0,80.0
5819,53.0,0,480,4.0,80.0
5820,67.0,240,240,4.0,90.0
5821,60.0,240,60,6.0,70.0
5822,59.0,60,60,6.0,70.0
5823,60.0,60,60,6.0,70.0
5824,74.0,0,240,4.0,90.0
5825,59.0,60,60,6.0,70.0
5826,57.0,60,120,6.0,70.0
5827,71.0,0,240,4.0,90.0
5828,53.0,240,960,7.0,70.0
5829,59.0,120,120,6.0,70.0
5830,72.0,120,240,4.0,90.0
5831,52.0,0,480,4.0,80.0
5832,40.0,0,480,4.0,80.0
5833,60.0,0,480,6.0,70.0
5834,67.0,240,240,4.0,90.0
5835,64.0,0,192,6.0,70.0
5836,76.0,240,240,4.0,90.0
5837,72.0,240,240,4.0,90.0
5838,52.0,0,960,7.0,70.0
5839,62.0,0,192,6.0,70.0
5840,74.0,240,240,4.0,90.0
5841,47.0,0,480,4.0,80.0
5842,59.0,0,480,4.0,80.0
5843,67.0,240,240,4.0,90.0
5844,65.0,0,192,6.0,70.0
5845,77.0,240,240,4.0,90.0
5846,59.0,0,960,7.0,70.0
5847,74.0,240,240,4.0,90.0
5848,76.0,0,240,4.0,90.0
5849,64.0,0,480,6.0,70.0
5850,48.0,0,480,4.0,80.0
5851,60.0,0,480,4.0,80.0
5852,72.0,240,240,4.0,90.0
5853,84.0,0,240,4.0,90.0
5854,60.0,240,960,7.0,70.0
5855,79.0,240,240,4.0,90.0
5856,67.0,240,4800,5.0,70.0
5857,83.0,0,240,4.0,90.0
5858,53.0,0,480,4.0,80.0
5859,65.0,240,480,4.0,80.0
5860,79.0,240,240,4.0,90.0
5861,72.0,0,60,5.0,70.0
5862,71.0,60,60,5.0,70.0
5863,72.0,60,60,5.0,70.0
5864,86.0,240,240,4.0,90.0
5865,71.0,60,60,5.0,70.0
5866,69.0,0,120,5.0,70.0
5867,71.0,120,120,5.0,70.0
5868,83.0,60,240,4.0,90.0
5869,65.0,0,960,7.0,70.0
5870,84.0,0,240,4.0,90.0
5871,72.0,120,480,5.0,70.0
5872,79.0,240,240,4.0,90.0
5873,64.0,0,480,4.0,80.0
5874,52.0,0,480,4.0,80.0
5875,76.0,240,192,5.0,70.0
5876,88.0,0,240,4.0,90.0
5877,84.0,240,240,4.0,90.0
5878,64.0,0,960,7.0,70.0
5879,74.0,0,192,5.0,70.0
5880,86.0,0,240,4.0,90.0
5881,79.0,240,240,4.0,90.0
5882,71.0,0,480,4.0,80.0
5883,59.0,240,480,4.0,80.0
5884,77.0,0,192,5.0,70.0
5885,89.0,240,240,4.0,90.0
5886,59.0,0,960,7.0,70.0
5887,86.0,240,240,4.0,90.0
5888,88.0,0,240,4.0,90.0
5889,60.0,0,480,4.0,80.0
5890,72.0,0,480,4.0,80.0
5891,84.0,240,240,4.0,90.0
5892,67.0,240,3840,6.0,70.0
5893,60.0,0,480,7.0,70.0
5894,76.0,240,480,5.0,70.0
5895,76.0,240,240,4.0,90.0
5896,78.0,240,240,4.0,90.0
5897,81.0,0,240,4.0,90.0
5898,65.0,0,240,4.0,80.0
5899,85.0,240,240,4.0,90.0
5900,69.0,0,240,4.0,80.0
5901,79.0,0,960,5.0,70.0
5902,86.0,0,240,4.0,90.0
5903,71.0,240,240,4.0,80.0
5904,65.0,0,960,7.0,70.0
5905,81.0,240,960,6.0,70.0
5906,89.0,240,240,4.0,90.0
5907,74.0,0,240,4.0,80.0
5908,64.0,0,240,4.0,80.0
5909,79.0,0,240,4.0,90.0
5910,67.0,0,240,4.0,80.0
5911,83.0,240,240,4.0,90.0
5912,77.0,0,960,5.0,70.0
5913,69.0,0,240,4.0,80.0
5914,84.0,240,240,4.0,90.0
5915,64.0,0,960,7.0,70.0
5916,79.0,240,960,6.0,70.0
5917,88.0,240,240,4.0,90.0
5918,72.0,0,240,4.0,80.0
5919,77.0,0,240,4.0,90.0
5920,62.0,0,240,4.0,80.0
5921,76.0,0,960,5.0,70.0
5922,65.0,240,240,4.0,80.0
5923,81.0,0,240,4.0,90.0
5924,67.0,0,240,4.0,80.0
5925,83.0,0,240,4.0,90.0
5926,62.0,240,960,7.0,70.0
5927,86.0,240,240,4.0,90.0
5928,71.0,0,240,4.0,80.0
5929,77.0,0,960,6.0,70.0
5930,76.0,0,240,4.0,90.0
5931,60.0,0,240,4.0,80.0
5932,74.0,240,960,5.0,70.0
5933,64.0,240,240,4.0,80.0
5934,80.0,0,240,4.0,90.0
5935,66.0,0,240,4.0,80.0
5936,81.0,0,240,4.0,90.0
5937,76.0,240,960,6.0,70.0
5938,84.0,240,240,4.0,90.0
5939,69.0,0,240,4.0,80.0
5940,60.0,0,960,7.0,70.0
5941,74.0,0,240,4.0,90.0
5942,59.0,240,240,4.0,80.0
5943,62.0,240,240,4.0,80.0
5944,78.0,0,240,4.0,90.0
5945,72.0,240,960,5.0,70.0
5946,64.0,0,240,4.0,80.0
5947,79.0,240,240,4.0,90.0
5948,71.0,0,480,5.0,70.0
5949,74.0,0,960,6.0,70.0
5950,59.0,0,960,7.0,70.0
5951,83.0,0,240,4.0,90.0
5952,67.0,240,240,4.0,80.0
5953,72.0,0,240,4.0,90.0
5954,74.0,240,240,4.0,90.0
5955,78.0,240,240,4.0,90.0
5956,84.0,230,960,0.0,90.0
5957,78.0,0,960,1.0,90.0
5958,62.0,0,960,4.0,80.0
5959,57.0,0,960,4.0,80.0
5960,66.0,0,960,4.0,80.0
5961,57.0,0,960,8.0,90.0
5962,81.0,240,240,4.0,90.0
5963,60.0,0,960,4.0,80.0
5964,69.0,0,960,5.0,90.0
5965,72.0,0,960,6.0,90.0
5966,60.0,0,960,2.0,90.0
5967,62.0,10,960,6.0,90.0
5968,78.0,0,960,5.0,90.0
5969,45.0,0,960,10.0,90.0
5970,48.0,0,960,2.0,90.0
5971,84.0,240,240,4.0,90.0
5972,81.0,240,240,4.0,90.0
5973,78.0,240,240,4.0,90.0
5974,72.0,240,240,4.0,90.0
5975,71.0,0,240,4.0,90.0
5976,55.0,0,480,6.0,90.0
5977,71.0,0,480,5.0,90.0
5978,62.0,0,480,5.0,90.0
5979,74.0,240,240,4.0,90.0
5980,79.0,240,240,4.0,90.0
5981,79.0,230,960,1.0,90.0
5982,83.0,0,960,0.0,90.0
5983,62.0,0,960,2.0,90.0
5984,83.0,240,240,4.0,90.0
5985,55.0,0,960,4.0,80.0
5986,55.0,0,960,2.0,90.0
5987,62.0,0,960,4.0,80.0
5988,79.0,0,960,5.0,90.0
5989,55.0,0,960,8.0,90.0
5990,43.0,0,960,10.0,90.0
5991,67.0,10,960,4.0,80.0
5992,59.0,0,960,4.0,80.0
5993,86.0,240,240,4.0,90.0
5994,83.0,240,240,4.0,90.0
5995,79.0,240,240,4.0,90.0
5996,74.0,240,240,4.0,90.0
5997,72.0,0,240,4.0,90.0
5998,74.0,240,240,4.0,90.0
5999,78.0,240,240,4.0,90.0
6000,78.0,0,960,0.0,90.0
6001,72.0,230,960,1.0,90.0
6002,62.0,0,960,6.0,90.0
6003,78.0,0,960,5.0,90.0
6004,72.0,0,960,6.0,90.0
6005,69.0,10,960,5.0,90.0
6006,60.0,0,960,2.0,90.0
6007,45.0,0,960,10.0,90.0
6008,48.0,0,960,2.0,90.0
6009,50.0,0,960,4.0,80.0
6010,48.0,0,960,4.0,80.0
6011,45.0,0,960,4.0,80.0
6012,81.0,240,240,4.0,90.0
6013,57.0,0,960,8.0,90.0
6014,54.0,0,960,4.0,80.0
6015,84.0,240,240,4.0,90.0
6016,81.0,240,240,4.0,90.0
6017,78.0,240,240,4.0,90.0
6018,72.0,240,240,4.0,90.0
6019,71.0,0,240,4.0,90.0
6020,71.0,230,480,1.0,70.0
6021,71.0,0,480,5.0,70.0
6022,43.0,0,480,10.0,70.0
6023,55.0,0,480,2.0,70.0
6024,62.0,0,480,2.0,70.0
6025,79.0,0,480,5.0,70.0
6026,67.0,240,240,4.0,90.0
6027,55.0,0,480,6.0,70.0
6028,62.0,0,480,6.0,70.0
6029,55.0,0,480,8.0,70.0
6030,43.0,10,480,4.0,80.0
6031,62.0,0,480,5.0,70.0
6032,47.0,240,240,4.0,80.0
6033,71.0,0,240,4.0,90.0
6034,50.0,240,240,4.0,80.0
6035,74.0,0,240,4.0,90.0
6036,55.0,0,240,4.0,80.0
6037,79.0,240,240,4.0,90.0
6038,54.0,240,240,4.0,80.0
6039,78.0,0,240,4.0,90.0
6040,55.0,0,240,4.0,80.0
6041,79.0,240,240,4.0,90.0
6042,54.0,0,240,4.0,80.0
6043,78.0,240,240,4.0,90.0
6044,79.0,240,240,4.0,90.0
6045,55.0,240,0,4.0,80.0
6046,67.0,0,240,4.0,90.0
6047,55.0,0,240,7.0,70.0
6048,67.0,0,240,5.0,70.0
6049,59.0,240,240,7.0,70.0
6050,71.0,0,240,5.0,70.0
6051,71.0,0,240,4.0,90.0
6052,59.0,0,240,4.0,80.0
6053,74.0,0,240,4.0,90.0
6054,62.0,0,240,4.0,80.0
6055,74.0,240,240,5.0,70.0
6056,62.0,0,240,7.0,70.0
6057,79.0,0,240,5.0,70.0
6058,79.0,240,240,4.0,90.0
6059,67.0,0,240,4.0,80.0
6060,67.0,0,240,7.0,70.0
6061,78.0,0,240,4.0,90.0
6062,78.0,0,240,5.0,70.0
6063,66.0,0,240,4.0,80.0
6064,66.0,240,240,7.0,70.0
6065,67.0,240,240,4.0,80.0
6066,79.0,0,240,4.0,90.0
6067,67.0,0,240,7.0,70.0
6068,79.0,0,240,5.0,70.0
6069,66.0,0,240,4.0,80.0
6070,78.0,240,240,4.0,90.0
6071,78.0,0,240,5.0,70.0
6072,66.0,0,240,7.0,70.0
6073,55.0,0,240,8.0,90.0
6074,43.0,240,240,10.0,90.0
6075,42.0,0,240,10.0,90.0
6076,54.0,240,240,8.0,90.0
6077,79.0,0,480,5.0,70.0
6078,67.0,0,480,7.0,70.0
6079,79.0,0,480,4.0,90.0
6080,67.0,0,480,4.0,80.0
6081,43.0,240,240,10.0,90.0
6082,67.0,0,240,5.0,90.0
6083,55.0,0,240,8.0,90.0
6084,57.0,0,240,8.0,90.0
6085,69.0,240,240,5.0,90.0
6086,45.0,0,240,10.0,90.0
6087,65.0,240,240,5.0,90.0
6088,41.0,0,240,10.0,90.0
6089,53.0,0,240,8.0,90.0
6090,40.0,240,240,10.0,90.0
6091,52.0,0,240,8.0,90.0
6092,64.0,0,240,5.0,90.0
6093,41.0,240,240,10.0,90.0
6094,53.0,0,240,8.0,90.0
6095,65.0,0,240,5.0,90.0
6096,67.0,0,240,5.0,90.0
6097,55.0,0,240,8.0,90.0
6098,43.0,240,240,10.0,90.0
6099,52.0,0,240,8.0,90.0
6100,40.0,0,240,10.0,90.0
6101,64.0,240,240,5.0,90.0
6102,63.0,240,240,5.0,90.0
6103,39.0,0,240,10.0,90.0
6104,51.0,0,240,8.0,90.0
6105,52.0,0,240,8.0,90.0
6106,40.0,0,240,10.0,90.0
6107,64.0,240,240,5.0,90.0
6108,79.0,0,6720,0.0,70.0
6109,65.0,0,240,5.0,90.0
6110,53.0,240,240,8.0,90.0
6111,41.0,0,240,10.0,90.0
6112,62.0,10,240,5.0,90.0
6113,50.0,0,240,8.0,90.0
6114,38.0,0,240,10.0,90.0
6115,61.0,0,240,5.0,90.0
6116,37.0,240,240,10.0,90.0
6117,49.0,0,240,8.0,90.0
6118,38.0,0,240,10.0,90.0
6119,62.0,240,240,5.0,90.0
6120,50.0,0,240,8.0,90.0
6121,83.0,0,960,0.0,90.0
6122,77.0,230,960,1.0,90.0
6123,55.0,0,3840,2.0,90.0
6124,40.0,0,240,10.0,90.0
6125,52.0,0,240,8.0,90.0
6126,64.0,240,240,5.0,90.0
6127,76.0,230,480,1.0,90.0
6128,84.0,0,480,0.0,90.0
6129,48.0,0,480,8.0,90.0
6130,60.0,0,480,5.0,90.0
6131,67.0,0,4320,2.0,90.0
6132,60.0,10,480,2.0,90.0
6133,36.0,0,480,10.0,90.0
6134,72.0,480,432,3.0,90.0
6135,72.0,480,408,3.0,90.0
6136,72.0,480,408,3.0,90.0
6137,74.0,0,480,3.0,90.0
6138,76.0,480,99,3.0,96.0
6139,74.0,60,99,3.0,101.0
6140,72.0,60,99,3.0,103.0
6141,74.0,60,99,3.0,93.0
6142,76.0,60,144,3.0,85.0
6143,55.0,0,960,7.0,70.0
6144,53.0,480,960,7.0,70.0
6145,43.0,0,960,8.0,70.0
6146,59.0,0,960,5.0,70.0
6147,31.0,0,960,10.0,70.0
6148,72.0,0,408,3.0,90.0
6149,48.0,0,480,8.0,70.0
6150,52.0,0,480,7.0,70.0
6151,55.0,0,480,7.0,70.0
6152,36.0,240,480,10.0,70.0
6153,60.0,0,480,5.0,70.0
6154,72.0,480,408,3.0,90.0
6155,74.0,480,480,3.0,90.0
6156,76.0,480,99,3.0,97.0
6157,74.0,60,99,3.0,102.0
6158,72.0,60,99,3.0,102.0
6159,74.0,60,99,3.0,100.0
6160,76.0,60,168,3.0,96.0
6161,31.0,0,960,10.0,70.0
6162,55.0,0,960,7.0,70.0
6163,43.0,0,960,8.0,70.0
6164,53.0,0,960,7.0,70.0
6165,59.0,0,960,5.0,70.0
6166,72.0,0,384,3.0,90.0
6167,52.0,0,480,7.0,70.0
6168,55.0,0,480,7.0,70.0
6169,36.0,240,480,10.0,70.0
6170,48.0,0,480,8.0,70.0
6171,60.0,0,480,5.0,70.0
6172,77.0,480,432,3.0,90.0
6173,57.0,0,480,8.0,70.0
6174,65.0,0,480,5.0,70.0
6175,60.0,0,0,7.0,70.0
6176,45.0,0,480,10.0,70.0
6177,79.0,240,240,6.0,70.0
6178,78.0,240,240,6.0,70.0
6179,43.0,0,960,10.0,70.0
6180,64.0,0,960,5.0,70.0
6181,55.0,480,960,8.0,70.0
6182,79.0,240,240,6.0,70.0
6183,76.0,0,1032,3.0,90.0
6184,78.0,0,240,6.0,70.0
6185,62.0,240,480,5.0,70.0
6186,79.0,240,240,6.0,70.0
6187,74.0,0,480,3.0,90.0
6188,59.0,0,480,7.0,70.0
6189,78.0,240,240,6.0,70.0
6190,79.0,240,240,6.0,70.0
6191,31.0,0,480,10.0,70.0
6192,43.0,0,480,8.0,70.0
6193,59.0,0,480,7.0,70.0
6194,62.0,0,480,5.0,70.0
6195,74.0,480,420,3.0,90.0
6196,74.0,480,396,3.0,90.0
6197,74.0,480,396,3.0,90.0
6198,76.0,0,480,3.0,90.0
6199,77.0,480,99,3.0,90.0
6200,76.0,60,99,3.0,90.0
6201,74.0,60,99,3.0,90.0
6202,76.0,60,99,3.0,90.0
6203,77.0,60,132,3.0,90.0
6204,48.0,0,960,8.0,70.0
6205,36.0,480,960,10.0,70.0
6206,60.0,0,960,7.0,70.0
6207,64.0,0,960,5.0,70.0
6208,74.0,0,420,3.0,90.0
6209,47.0,240,480,8.0,70.0
6210,65.0,0,480,5.0,70.0
6211,62.0,0,480,7.0,70.0
6212,35.0,0,480,10.0,70.0
6213,74.0,480,420,3.0,90.0
6214,67.0,240,3840,6.0,70.0
6215,76.0,0,480,3.0,90.0
6216,77.0,480,99,3.0,90.0
6217,76.0,60,99,3.0,90.0
6218,74.0,60,99,3.0,90.0
6219,76.0,60,99,3.0,90.0
6220,77.0,60,168,3.0,90.0
6221,60.0,0,960,7.0,70.0
6222,48.0,0,960,8.0,70.0
6223,36.0,0,960,10.0,70.0
6224,64.0,480,960,5.0,70.0
6225,74.0,0,396,3.0,90.0
6226,47.0,0,480,8.0,70.0
6227,65.0,0,480,5.0,70.0
6228,35.0,240,480,10.0,70.0
6229,62.0,0,480,7.0,70.0
6230,79.0,480,420,3.0,90.0
6231,59.0,0,480,7.0,70.0
6232,55.0,0,1920,6.0,70.0
6233,31.0,0,480,10.0,70.0
6234,67.0,0,480,5.0,70.0
6235,43.0,0,480,8.0,70.0
6236,72.0,240,240,6.0,70.0
6237,71.0,240,240,6.0,70.0
6238,72.0,240,240,6.0,70.0
6239,36.0,0,960,10.0,70.0
6240,65.0,0,960,5.0,70.0
6241,48.0,480,960,8.0,70.0
6242,62.0,0,960,7.0,70.0
6243,77.0,0,1020,3.0,90.0
6244,71.0,240,240,6.0,70.0
6245,76.0,0,480,3.0,90.0
6246,64.0,0,480,5.0,70.0
6247,72.0,240,240,6.0,70.0
6248,60.0,0,480,7.0,70.0
6249,71.0,240,240,6.0,70.0
6250,72.0,240,240,6.0,70.0
6251,79.0,240,310,3.0,90.0
6252,78.0,0,310,3.0,90.0
6253,79.0,240,156,3.0,90.0
6254,55.0,240,480,5.0,70.0
6255,77.0,0,310,3.0,90.0
6256,67.0,240,480,5.0,70.0
6257,76.0,240,310,3.0,90.0
6258,74.0,240,310,3.0,90.0
6259,72.0,240,144,3.0,90.0
6260,64.0,0,480,5.0,70.0
6261,52.0,0,1920,7.0,70.0
6262,60.0,240,1920,6.0,70.0
6263,57.0,0,240,6.0,70.0
6264,61.0,240,240,6.0,70.0
6265,62.0,240,480,5.0,70.0
6266,53.0,0,480,7.0,70.0
6267,62.0,240,240,6.0,70.0
6268,81.0,0,768,3.0,90.0
6269,77.0,0,156,3.0,90.0
6270,65.0,240,240,6.0,70.0
6271,74.0,0,144,3.0,90.0
6272,69.0,240,96,5.0,70.0
6273,53.0,240,480,7.0,70.0
6274,69.0,0,480,6.0,70.0
6275,65.0,240,96,5.0,70.0
6276,62.0,240,96,5.0,70.0
6277,55.0,0,240,6.0,70.0
6278,52.0,0,480,7.0,70.0
6279,59.0,240,240,6.0,70.0
6280,60.0,0,480,5.0,70.0
6281,60.0,240,240,6.0,70.0
6282,79.0,240,780,3.0,90.0
6283,76.0,0,180,3.0,90.0
6284,64.0,240,240,6.0,70.0
6285,72.0,240,132,3.0,90.0
6286,67.0,240,96,5.0,70.0
6287,64.0,0,480,7.0,70.0
6288,67.0,0,480,6.0,70.0
6289,64.0,240,96,5.0,70.0
6290,60.0,240,96,5.0,70.0
6291,65.0,0,240,6.0,70.0
6292,62.0,0,240,7.0,70.0
6293,59.0,0,480,5.0,70.0
6294,62.0,240,240,6.0,70.0
6295,59.0,0,240,7.0,70.0
6296,65.0,240,240,6.0,70.0
6297,62.0,0,240,7.0,70.0
6298,71.0,240,768,3.0,90.0
6299,74.0,0,168,3.0,90.0
6300,62.0,0,240,6.0,70.0
6301,59.0,240,240,7.0,70.0
6302,77.0,240,132,3.0,90.0
6303,55.0,240,96,5.0,70.0
6304,55.0,0,480,7.0,70.0
6305,59.0,0,480,6.0,70.0
6306,57.0,240,96,5.0,70.0
6307,60.0,0,240,6.0,70.0
6308,59.0,240,96,5.0,70.0
6309,62.0,0,240,6.0,70.0
6310,64.0,0,480,6.0,70.0
6311,60.0,240,480,5.0,70.0
6312,76.0,480,408,3.0,90.0
6313,74.0,0,480,5.0,70.0
6314,56.0,0,480,7.0,70.0
6315,71.0,0,480,6.0,70.0
6316,76.0,0,420,3.0,90.0
6317,57.0,0,480,7.0,70.0
6318,72.0,480,480,5.0,70.0
6319,69.0,0,480,6.0,70.0
6320,76.0,0,396,3.0,90.0
6321,71.0,0,480,6.0,70.0
6322,56.0,0,480,7.0,70.0
6323,74.0,480,480,5.0,70.0
6324,76.0,0,444,3.0,90.0
6325,69.0,480,480,6.0,70.0
6326,72.0,0,480,5.0,70.0
6327,57.0,0,480,7.0,70.0
6328,77.0,480,192,3.0,89.0
6329,79.0,240,192,3.0,91.0
6330,81.0,0,408,3.0,99.0
6331,69.0,0,480,7.0,70.0
6332,65.0,240,480,7.0,70.0
6333,74.0,0,480,5.0,70.0
6334,72.0,0,480,6.0,70.0
6335,77.0,480,204,3.0,99.0
6336,76.0,240,180,3.0,97.0
6337,76.0,0,155,3.0,87.0
6338,62.0,0,240,5.0,70.0
6339,74.0,120,155,3.0,93.0
6340,76.0,0,155,3.0,96.0
6341,67.0,0,480,7.0,70.0
6342,72.0,0,0,6.0,70.0
6343,65.0,120,240,5.0,70.0
6344,74.0,120,155,3.0,101.0
6345,76.0,120,100,3.0,101.0
6346,74.0,60,100,3.0,97.0
6347,76.0,60,100,3.0,94.0
6348,64.0,0,240,5.0,70.0
6349,74.0,60,100,3.0,92.0
6350,76.0,60,100,3.0,87.0
6351,74.0,60,100,3.0,87.0
6352,76.0,60,100,3.0,84.0
6353,65.0,0,240,5.0,70.0
6354,55.0,0,480,7.0,70.0
6355,74.0,60,100,3.0,82.0
6356,76.0,0,100,3.0,82.0
6357,74.0,60,100,3.0,82.0
6358,76.0,60,100,3.0,79.0
6359,67.0,60,240,5.0,70.0
6360,74.0,60,100,3.0,77.0
6361,76.0,0,100,3.0,77.0
6362,74.0,60,100,3.0,77.0
6363,76.0,60,100,3.0,77.0
6364,55.0,0,480,7.0,70.0
6365,71.0,0,480,6.0,70.0
6366,65.0,60,240,5.0,70.0
6367,74.0,60,100,3.0,77.0
6368,76.0,0,100,3.0,77.0
6369,74.0,60,100,3.0,77.0
6370,76.0,60,100,3.0,77.0
6371,64.0,0,240,5.0,70.0
6372,74.0,60,100,3.0,77.0
6373,72.0,60,155,3.0,77.0
6374,65.0,0,240,5.0,70.0
6375,71.0,0,480,6.0,70.0
6376,55.0,60,480,7.0,70.0
6377,74.0,120,155,3.0,81.0
6378,60.0,0,240,7.0,70.0
6379,72.0,0,240,6.0,70.0
6380,60.0,0,240,7.0,70.0
6381,72.0,0,480,3.0,86.0
6382,76.0,240,240,6.0,70.0
6383,64.0,120,480,5.0,70.0
6384,59.0,240,240,7.0,70.0
6385,74.0,0,240,6.0,70.0
6386,57.0,240,240,7.0,70.0
6387,72.0,0,240,6.0,70.0
6388,71.0,240,240,6.0,70.0
6389,55.0,0,240,7.0,70.0
6390,69.0,240,240,6.0,70.0
6391,53.0,0,240,7.0,70.0
6392,52.0,240,240,7.0,70.0
6393,67.0,0,240,6.0,70.0
6394,65.0,0,240,6.0,70.0
6395,50.0,240,240,7.0,70.0
6396,60.0,0,240,4.0,80.0
6397,48.0,240,480,7.0,70.0
6398,67.0,240,240,4.0,80.0
6399,64.0,0,480,6.0,70.0
6400,64.0,0,240,4.0,80.0
6401,72.0,0,0,4.0,90.0
6402,67.0,240,240,4.0,80.0
6403,60.0,0,480,2.0,70.0
6404,52.0,0,480,2.0,70.0
6405,60.0,240,240,4.0,80.0
6406,52.0,0,480,2.0,70.0
6407,60.0,0,0,2.0,70.0
6408,72.0,0,0,4.0,90.0
6409,67.0,240,240,4.0,80.0
6410,64.0,240,240,4.0,80.0
6411,67.0,240,240,4.0,80.0
6412,52.0,0,480,2.0,70.0
6413,55.0,0,240,4.0,80.0
6414,74.0,240,480,4.0,90.0
6415,67.0,240,240,4.0,80.0
6416,74.0,240,240,4.0,90.0
6417,62.0,0,720,2.0,70.0
6418,65.0,0,240,4.0,80.0
6419,76.0,0,240,4.0,90.0
6420,31.0,0,960,10.0,70.0
6421,67.0,0,240,4.0,80.0
6422,55.0,0,960,2.0,70.0
6423,43.0,0,960,8.0,70.0
6424,64.0,240,240,2.0,70.0
6425,64.0,0,240,4.0,80.0
6426,60.0,0,480,2.0,70.0
6427,48.0,0,480,8.0,70.0
6428,52.0,0,0,2.0,70.0
6429,72.0,0,0,4.0,90.0
6430,67.0,240,240,4.0,80.0
6431,36.0,240,480,10.0,70.0
6432,60.0,0,240,4.0,80.0
6433,60.0,240,480,2.0,70.0
6434,67.0,240,240,4.0,80.0
6435,55.0,0,240,4.0,80.0
6436,67.0,240,240,4.0,80.0
6437,74.0,0,0,4.0,90.0
6438,62.0,240,720,2.0,70.0
6439,65.0,240,240,4.0,80.0
6440,76.0,0,240,4.0,90.0
6441,67.0,240,240,4.0,80.0
6442,43.0,0,960,8.0,70.0
6443,31.0,0,960,10.0,70.0
6444,64.0,0,240,2.0,70.0
6445,55.0,0,960,2.0,70.0
6446,64.0,0,240,4.0,80.0
6447,72.0,0,480,4.0,90.0
6448,67.0,240,240,4.0,80.0
6449,48.0,0,480,8.0,70.0
6450,36.0,240,480,10.0,70.0
6451,55.0,0,480,2.0,70.0
6452,60.0,0,480,2.0,70.0
6453,55.0,240,240,4.0,80.0
6454,62.0,0,480,2.0,70.0
6455,47.0,0,480,8.0,70.0
6456,35.0,0,480,10.0,70.0
6457,67.0,240,240,4.0,80.0
6458,77.0,0,480,4.0,90.0
6459,74.0,0,480,4.0,90.0
6460,65.0,0,480,2.0,70.0
6461,55.0,0,240,4.0,80.0
6462,36.0,0,480,10.0,70.0
6463,67.0,240,240,4.0,80.0
6464,48.0,0,480,8.0,70.0
6465,79.0,0,288,3.0,90.0
6466,66.0,0,240,4.0,80.0
6467,78.0,0,288,3.0,90.0
6468,52.0,240,480,8.0,70.0
6469,67.0,0,240,4.0,80.0
6470,72.0,0,960,4.0,90.0
6471,76.0,240,960,4.0,90.0
6472,64.0,0,960,2.0,70.0
6473,60.0,0,960,2.0,70.0
6474,40.0,0,480,10.0,70.0
6475,79.0,240,288,3.0,90.0
6476,66.0,0,240,4.0,80.0
6477,78.0,240,288,3.0,90.0
6478,74.0,0,480,4.0,90.0
6479,67.0,240,240,4.0,80.0
6480,62.0,0,480,2.0,70.0
6481,55.0,0,480,8.0,70.0
6482,43.0,0,480,10.0,70.0
6483,55.0,0,480,2.0,70.0
6484,71.0,0,480,4.0,90.0
6485,79.0,0,288,3.0,90.0
6486,66.0,0,240,4.0,80.0
6487,78.0,240,288,3.0,90.0
6488,79.0,240,180,3.0,90.0
6489,67.0,0,240,4.0,80.0
6490,55.0,0,240,4.0,80.0
6491,62.0,240,240,4.0,80.0
6492,59.0,0,240,4.0,80.0
6493,55.0,240,0,2.0,70.0
6494,62.0,0,480,2.0,70.0
6495,43.0,0,960,10.0,70.0
6496,71.0,0,0,4.0,90.0
6497,74.0,0,0,4.0,90.0
6498,62.0,240,240,4.0,80.0
6499,55.0,0,960,8.0,70.0
6500,55.0,0,240,4.0,80.0
6501,62.0,0,480,2.0,70.0
6502,71.0,0,0,4.0,90.0
6503,74.0,0,0,4.0,90.0
6504,62.0,240,240,4.0,80.0
6505,55.0,240,0,2.0,70.0
6506,59.0,0,240,4.0,80.0
6507,62.0,240,240,4.0,80.0
6508,62.0,0,480,2.0,70.0
6509,55.0,0,240,4.0,80.0
6510,72.0,240,480,4.0,90.0
6511,64.0,0,480,2.0,70.0
6512,76.0,0,480,4.0,90.0
6513,60.0,0,480,2.0,70.0
6514,64.0,240,240,4.0,80.0
6515,60.0,240,240,4.0,80.0
6516,76.0,0,240,4.0,90.0
6517,64.0,0,240,2.0,70.0
6518,31.0,0,960,10.0,70.0
6519,43.0,0,960,8.0,70.0
6520,64.0,0,240,4.0,80.0
6521,77.0,240,240,4.0,90.0
6522,65.0,0,240,2.0,70.0
6523,55.0,0,240,4.0,80.0
6524,62.0,240,240,4.0,80.0
6525,62.0,0,0,2.0,70.0
6526,74.0,240,0,4.0,90.0
6527,59.0,0,240,4.0,80.0
6528,59.0,0,480,2.0,70.0
6529,71.0,0,480,4.0,90.0
6530,62.0,240,240,4.0,80.0
6531,55.0,0,240,4.0,80.0
6532,60.0,0,480,2.0,70.0
6533,64.0,240,0,2.0,70.0
6534,64.0,240,240,4.0,80.0
6535,72.0,0,480,4.0,90.0
6536,76.0,0,480,4.0,90.0
6537,76.0,0,240,4.0,90.0
6538,60.0,0,240,4.0,80.0
6539,65.0,240,240,2.0,70.0
6540,64.0,0,240,4.0,80.0
6541,31.0,0,960,10.0,70.0
6542,43.0,240,960,8.0,70.0
6543,77.0,0,240,4.0,90.0
6544,55.0,0,240,4.0,80.0
6545,62.0,0,480,2.0,70.0
6546,62.0,240,240,4.0,80.0
6547,74.0,240,480,4.0,90.0
6548,59.0,0,240,4.0,80.0
6549,31.0,0,480,10.0,70.0
6550,59.0,0,480,2.0,70.0
6551,67.0,240,5760,3.0,90.0
6552,43.0,240,480,8.0,70.0
6553,62.0,240,240,4.0,80.0
6554,79.0,0,480,4.0,90.0
6555,71.0,0,480,4.0,90.0
6556,67.0,0,480,2.0,70.0
6557,48.0,0,240,4.0,80.0
6558,36.0,0,480,10.0,70.0
6559,60.0,0,240,4.0,80.0
6560,48.0,0,480,8.0,70.0
6561,84.0,240,288,3.0,90.0
6562,59.0,0,240,4.0,80.0
6563,83.0,240,288,3.0,90.0
6564,43.0,0,480,10.0,70.0
6565,62.0,240,960,2.0,70.0
6566,55.0,0,480,8.0,70.0
6567,65.0,0,960,2.0,70.0
6568,74.0,0,960,4.0,90.0
6569,77.0,0,960,4.0,90.0
6570,60.0,0,240,4.0,80.0
6571,84.0,240,288,3.0,90.0
6572,59.0,0,240,4.0,80.0
6573,83.0,0,288,3.0,90.0
6574,76.0,0,480,4.0,90.0
6575,72.0,0,480,4.0,90.0
6576,60.0,240,480,8.0,70.0
6577,64.0,0,480,2.0,70.0
6578,60.0,0,480,2.0,70.0
6579,60.0,0,240,4.0,80.0
6580,48.0,0,480,10.0,70.0
6581,84.0,240,288,3.0,90.0
6582,59.0,240,240,4.0,80.0
6583,83.0,0,288,3.0,90.0
6584,84.0,0,168,3.0,90.0
6585,60.0,240,240,4.0,80.0
6586,55.0,0,480,7.0,70.0
6587,79.0,240,240,4.0,90.0
6588,72.0,0,480,5.0,70.0
6589,78.0,240,240,4.0,90.0
6590,64.0,0,888,3.0,90.0
6591,48.0,0,960,4.0,80.0
6592,76.0,0,480,5.0,70.0
6593,36.0,0,960,10.0,70.0
6594,64.0,240,960,6.0,70.0
6595,79.0,240,240,4.0,90.0
6596,60.0,0,480,7.0,70.0
6597,48.0,0,960,8.0,70.0
6598,77.0,240,240,4.0,90.0
6599,64.0,0,480,7.0,70.0
6600,79.0,0,480,5.0,70.0
6601,76.0,240,240,4.0,90.0
6602,74.0,0,240,4.0,90.0
6603,79.0,0,912,3.0,90.0
6604,40.0,0,480,10.0,70.0
6605,67.0,240,480,7.0,70.0
6606,52.0,0,480,4.0,80.0
6607,72.0,240,240,4.0,90.0
6608,84.0,0,480,5.0,70.0
6609,67.0,0,480,6.0,70.0
6610,52.0,0,480,8.0,70.0
6611,81.0,0,240,4.0,90.0
6612,53.0,0,480,8.0,70.0
6613,41.0,0,480,10.0,70.0
6614,65.0,240,480,7.0,70.0
6615,81.0,0,480,3.0,90.0
6616,69.0,0,480,6.0,70.0
6617,81.0,0,480,5.0,70.0
6618,53.0,0,480,4.0,80.0
6619,80.0,240,240,4.0,90.0
6620,81.0,0,240,4.0,90.0
6621,65.0,240,240,4.0,80.0
6622,77.0,0,240,4.0,90.0
6623,57.0,0,480,8.0,70.0
6624,77.0,0,480,5.0,70.0
6625,62.0,240,240,4.0,80.0
6626,74.0,0,480,6.0,70.0
6627,45.0,0,480,10.0,70.0
6628,62.0,0,480,7.0,70.0
6629,86.0,0,192,3.0,90.0
6630,85.0,240,204,3.0,90.0
6631,74.0,0,480,4.0,90.0
6632,50.0,0,480,10.0,70.0
6633,77.0,0,480,6.0,70.0
6634,59.0,240,0,4.0,80.0
6635,74.0,0,480,5.0,70.0
6636,62.0,0,480,8.0,70.0
6637,59.0,0,480,7.0,70.0
6638,86.0,0,192,3.0,90.0
6639,83.0,0,204,3.0,90.0
6640,71.0,0,480,5.0,70.0
6641,53.0,0,480,7.0,70.0
6642,65.0,0,480,8.0,70.0
6643,55.0,240,240,4.0,80.0
6644,53.0,0,480,10.0,70.0
6645,81.0,0,480,6.0,70.0
6646,79.0,0,240,4.0,90.0
6647,79.0,0,480,5.0,70.0
6648,67.0,240,480,6.0,70.0
6649,52.0,0,480,4.0,80.0
6650,40.0,0,480,10.0,70.0
6651,64.0,0,480,7.0,70.0
6652,78.0,240,240,4.0,90.0
6653,79.0,0,480,3.0,90.0
6654,52.0,0,480,8.0,70.0
6655,64.0,0,240,4.0,80.0
6656,79.0,0,240,4.0,90.0
6657,55.0,0,480,8.0,70.0
6658,60.0,240,480,7.0,70.0
6659,72.0,0,480,6.0,70.0
6660,76.0,0,480,5.0,70.0
6661,43.0,0,480,10.0,70.0
6662,76.0,240,240,4.0,90.0
6663,60.0,0,240,4.0,80.0
6664,84.0,0,192,3.0,90.0
6665,83.0,240,204,3.0,90.0
6666,48.0,0,480,10.0,70.0
6667,57.0,240,480,7.0,70.0
6668,76.0,0,480,6.0,70.0
6669,72.0,0,480,4.0,90.0
6670,60.0,0,480,8.0,70.0
6671,72.0,0,480,5.0,70.0
6672,57.0,0,480,4.0,80.0
6673,84.0,0,192,3.0,90.0
6674,57.0,0,240,4.0,80.0
6675,81.0,240,204,3.0,90.0
6676,64.0,0,480,8.0,70.0
6677,53.0,0,240,4.0,80.0
6678,79.0,0,480,6.0,70.0
6679,69.0,0,480,5.0,70.0
6680,52.0,0,480,7.0,70.0
6681,52.0,240,480,10.0,70.0
6682,71.0,0,240,4.0,90.0
6683,62.0,0,480,7.0,70.0
6684,65.0,0,480,6.0,70.0
6685,50.0,240,480,4.0,80.0
6686,72.0,240,240,4.0,90.0
6687,50.0,0,480,8.0,70.0
6688,77.0,0,480,5.0,70.0
6689,38.0,0,480,10.0,70.0
6690,77.0,0,660,3.0,90.0
6691,62.0,0,240,4.0,80.0
6692,74.0,0,240,4.0,90.0
6693,76.0,240,192,3.0,90.0
6694,74.0,0,480,5.0,70.0
6695,76.0,0,240,4.0,90.0
6696,60.0,0,240,4.0,80.0
6697,71.0,0,480,6.0,70.0
6698,59.0,240,480,7.0,70.0
6699,41.0,0,480,10.0,70.0
6700,53.0,0,480,8.0,70.0
6701,74.0,240,192,3.0,90.0
6702,59.0,0,240,4.0,80.0
6703,72.0,0,204,3.0,90.0
6704,77.0,0,480,4.0,90.0
6705,59.0,0,480,8.0,70.0
6706,55.0,0,480,7.0,70.0
6707,47.0,0,480,10.0,70.0
6708,71.0,0,480,5.0,70.0
6709,74.0,0,480,6.0,70.0
6710,57.0,240,240,4.0,80.0
6711,74.0,0,168,3.0,90.0
6712,59.0,0,240,4.0,80.0
6713,71.0,0,192,3.0,90.0
6714,62.0,0,480,8.0,70.0
6715,55.0,240,240,4.0,80.0
6716,50.0,0,480,10.0,70.0
6717,77.0,0,480,6.0,70.0
6718,50.0,0,480,7.0,70.0
6719,65.0,240,480,5.0,70.0
6720,55.0,0,480,7.0,70.0
6721,72.0,0,480,6.0,70.0
6722,64.0,240,480,5.0,70.0
6723,48.0,0,480,10.0,70.0
6724,60.0,0,480,8.0,70.0
6725,76.0,240,240,4.0,90.0
6726,60.0,0,480,4.0,80.0
6727,62.0,0,240,4.0,80.0
6728,77.0,240,240,4.0,90.0
6729,64.0,0,240,4.0,80.0
6730,79.0,240,240,4.0,90.0
6731,81.0,0,240,4.0,90.0
6732,65.0,240,240,4.0,80.0
6733,83.0,240,240,4.0,90.0
6734,67.0,0,240,4.0,80.0
6735,69.0,240,240,4.0,80.0
6736,84.0,0,240,4.0,90.0
6737,71.0,0,240,4.0,80.0
6738,86.0,240,240,4.0,90.0
6739,72.0,0,240,4.0,80.0
6740,88.0,240,240,4.0,90.0
6741,72.0,0,2364,3.0,90.0
6742,76.0,0,480,5.0,70.0
6743,84.0,0,480,5.0,70.0
6744,64.0,0,480,6.0,70.0
6745,79.0,0,480,6.0,70.0
6746,86.0,240,240,4.0,90.0
6747,71.0,0,240,4.0,80.0
6748,60.0,0,480,7.0,70.0
6749,48.0,0,480,7.0,70.0
6750,84.0,0,240,4.0,90.0
6751,69.0,0,240,4.0,80.0
6752,84.0,240,432,3.0,90.0
6753,83.0,0,240,4.0,90.0
6754,67.0,240,240,4.0,80.0
6755,81.0,240,240,4.0,90.0
6756,65.0,0,240,4.0,80.0
6757,84.0,0,396,3.0,90.0
6758,64.0,0,240,4.0,80.0
6759,79.0,240,240,4.0,90.0
6760,77.0,0,240,4.0,90.0
6761,62.0,0,240,4.0,80.0
6762,84.0,240,444,3.0,90.0
6763,60.0,240,240,4.0,80.0
6764,76.0,0,240,4.0,90.0
6765,76.0,0,120,4.0,90.0
6766,60.0,0,120,4.0,80.0
6767,74.0,0,120,4.0,90.0
6768,59.0,120,120,4.0,80.0
6769,76.0,120,120,4.0,90.0
6770,60.0,0,120,4.0,80.0
6771,83.0,0,0,0.0,70.0
6772,77.0,110,0,1.0,70.0
6773,59.0,120,120,4.0,80.0
6774,62.0,0,480,2.0,70.0
6775,55.0,0,480,2.0,70.0
6776,74.0,0,120,4.0,90.0
6777,60.0,10,60,4.0,80.0
6778,76.0,0,60,4.0,90.0
6779,59.0,0,60,4.0,80.0
6780,74.0,60,60,4.0,90.0
6781,76.0,60,60,4.0,90.0
6782,60.0,0,60,4.0,80.0
6783,77.0,50,0,1.0,70.0
6784,55.0,10,0,2.0,70.0
6785,62.0,0,240,2.0,70.0
6786,59.0,0,60,4.0,80.0
6787,74.0,60,60,4.0,90.0
6788,60.0,0,60,4.0,80.0
6789,76.0,0,60,4.0,90.0
6790,74.0,0,60,4.0,90.0
6791,59.0,60,60,4.0,80.0
6792,60.0,0,60,4.0,80.0
6793,79.0,10,900,3.0,90.0
6794,76.0,60,60,4.0,90.0
6795,83.0,0,240,0.0,70.0
6796,77.0,50,0,1.0,70.0
6797,62.0,10,0,2.0,70.0
6798,74.0,60,60,4.0,90.0
6799,59.0,0,60,4.0,80.0
6800,60.0,0,60,4.0,80.0
6801,76.0,0,60,4.0,90.0
6802,74.0,60,60,4.0,90.0
6803,59.0,0,60,4.0,80.0
6804,60.0,0,60,4.0,80.0
6805,76.0,60,60,4.0,90.0
6806,59.0,0,60,4.0,80.0
6807,74.0,60,60,4.0,90.0
6808,76.0,60,60,4.0,90.0
6809,60.0,0,60,4.0,80.0
6810,59.0,0,60,4.0,80.0
6811,74.0,60,60,4.0,90.0
6812,60.0,0,60,4.0,80.0
6813,76.0,60,60,4.0,90.0
6814,77.0,50,0,1.0,70.0
6815,83.0,0,0,0.0,70.0
6816,55.0,0,480,2.0,70.0
6817,74.0,0,60,4.0,90.0
6818,59.0,60,60,4.0,80.0
6819,76.0,0,60,4.0,90.0
6820,60.0,10,60,4.0,80.0
6821,59.0,0,60,4.0,80.0
6822,74.0,60,60,4.0,90.0
6823,76.0,0,60,4.0,90.0
6824,60.0,60,60,4.0,80.0
6825,59.0,60,60,4.0,80.0
6826,74.0,0,60,4.0,90.0
6827,57.0,0,120,4.0,80.0
6828,72.0,60,120,4.0,90.0
6829,67.0,0,900,3.0,90.0
6830,55.0,0,480,2.0,70.0
6831,59.0,0,120,4.0,80.0
6832,74.0,120,120,4.0,90.0
6833,62.0,0,480,2.0,70.0
6834,60.0,120,0,6.0,90.0
6835,60.0,120,0,6.0,90.0
6836,76.0,110,480,1.0,70.0
6837,84.0,0,480,0.0,70.0
6838,48.0,0,480,2.0,70.0
6839,60.0,0,480,2.0,70.0
6840,72.0,0,480,4.0,90.0
6841,72.0,10,480,3.0,90.0
6842,60.0,10,0,6.0,90.0
6843,60.0,0,480,4.0,80.0
6844,60.0,120,0,6.0,90.0
6845,60.0,120,120,6.0,90.0
6846,60.0,120,0,6.0,90.0
6847,60.0,120,120,6.0,90.0
6848,77.0,110,960,0.0,90.0
6849,45.0,0,960,10.0,90.0
6850,69.0,0,960,7.0,90.0
6851,57.0,0,960,8.0,90.0
6852,60.0,120,120,6.0,90.0
6853,48.0,0,0,2.0,70.0
6854,60.0,0,0,2.0,70.0
6855,77.0,0,960,5.0,90.0
6856,60.0,0,120,6.0,70.0
6857,76.0,0,192,5.0,70.0
6858,55.0,0,192,8.0,70.0
6859,43.0,10,192,10.0,70.0
6860,60.0,120,120,6.0,70.0
6861,60.0,120,120,6.0,70.0
6862,76.0,110,480,0.0,70.0
6863,67.0,0,480,7.0,70.0
6864,60.0,0,0,6.0,70.0
6865,60.0,120,0,6.0,70.0
6866,81.0,0,192,5.0,70.0
6867,41.0,0,192,10.0,70.0
6868,53.0,0,192,8.0,70.0
6869,65.0,120,192,7.0,70.0
6870,60.0,120,0,6.0,70.0
6871,60.0,120,0,6.0,70.0
6872,60.0,0,0,6.0,70.0
6873,52.0,0,192,8.0,70.0
6874,64.0,0,192,7.0,70.0
6875,79.0,0,192,5.0,70.0
6876,40.0,120,192,10.0,70.0
6877,60.0,120,0,6.0,70.0
6878,60.0,120,0,6.0,70.0
6879,60.0,120,0,6.0,70.0
6880,57.0,0,192,8.0,70.0
6881,69.0,120,192,7.0,70.0
6882,77.0,0,192,5.0,70.0
6883,45.0,0,192,10.0,70.0
6884,60.0,120,120,6.0,70.0
6885,60.0,120,120,6.0,70.0
6886,60.0,0,120,6.0,70.0
6887,67.0,0,192,7.0,70.0
6888,55.0,120,192,8.0,70.0
6889,43.0,0,192,10.0,70.0
6890,76.0,0,192,5.0,70.0
6891,60.0,120,120,6.0,70.0
6892,60.0,120,0,6.0,70.0
6893,60.0,0,120,6.0,90.0
6894,60.0,120,0,6.0,90.0
6895,65.0,0,480,7.0,70.0
6896,60.0,120,120,6.0,90.0
6897,53.0,120,480,8.0,70.0
6898,41.0,0,480,10.0,70.0
6899,74.0,0,480,5.0,70.0
6900,60.0,120,0,6.0,90.0
6901,60.0,120,0,6.0,90.0
6902,60.0,120,0,6.0,90.0
6903,60.0,120,120,6.0,90.0
6904,60.0,120,120,6.0,90.0
6905,60.0,120,120,6.0,90.0
6906,77.0,110,960,0.0,90.0
6907,57.0,0,960,8.0,90.0
6908,45.0,0,960,10.0,90.0
6909,48.0,0,0,2.0,70.0
6910,77.0,0,960,5.0,90.0
6911,69.0,0,960,7.0,90.0
6912,60.0,0,0,6.0,70.0
6913,60.0,0,0,2.0,70.0
6914,67.0,0,192,7.0,70.0
6915,43.0,10,192,10.0,70.0
6916,76.0,0,192,5.0,70.0
6917,55.0,0,192,8.0,70.0
6918,60.0,120,0,6.0,70.0
6919,76.0,110,480,0.0,70.0
6920,60.0,120,120,6.0,70.0
6921,60.0,120,120,6.0,70.0
6922,53.0,0,192,8.0,70.0
6923,65.0,0,192,7.0,70.0
6924,81.0,0,192,5.0,70.0
6925,41.0,0,192,10.0,70.0
6926,60.0,120,0,6.0,70.0
6927,60.0,0,0,6.0,70.0
6928,64.0,120,192,7.0,70.0
6929,40.0,0,192,10.0,70.0
6930,52.0,0,192,8.0,70.0
6931,79.0,0,192,5.0,70.0
6932,60.0,120,120,6.0,70.0
6933,60.0,120,120,6.0,70.0
6934,60.0,120,0,6.0,70.0
6935,60.0,120,0,6.0,70.0
6936,57.0,0,192,8.0,70.0
6937,69.0,0,192,7.0,70.0
6938,45.0,0,192,10.0,70.0
6939,77.0,0,192,5.0,70.0
6940,60.0,120,0,6.0,70.0
6941,60.0,0,0,6.0,70.0
6942,60.0,120,0,6.0,70.0
6943,76.0,0,192,5.0,70.0
6944,43.0,120,192,10.0,70.0
6945,55.0,0,192,8.0,70.0
6946,67.0,0,192,7.0,70.0
6947,60.0,120,0,6.0,70.0
6948,60.0,120,0,6.0,70.0
6949,60.0,120,0,6.0,70.0
6950,57.0,240,240,6.0,70.0
6951,74.0,0,480,5.0,70.0
6952,60.0,240,240,6.0,70.0
6953,57.0,240,240,6.0,70.0
6954,76.0,120,120,5.0,70.0
6955,60.0,120,240,6.0,70.0
6956,57.0,240,240,6.0,70.0
6957,74.0,0,480,5.0,70.0
6958,60.0,240,240,6.0,70.0
6959,41.0,0,1920,10.0,70.0
6960,57.0,240,240,6.0,70.0
6961,53.0,0,1920,8.0,70.0
6962,76.0,120,120,5.0,70.0
6963,60.0,0,240,6.0,70.0
6964,74.0,0,480,5.0,70.0
6965,57.0,240,240,6.0,70.0
6966,60.0,240,240,6.0,70.0
6967,76.0,120,120,5.0,70.0
6968,57.0,240,240,6.0,70.0
6969,60.0,120,240,6.0,70.0
6970,74.0,0,480,5.0,70.0
6971,57.0,240,240,6.0,70.0
6972,60.0,240,240,6.0,70.0
6973,42.0,120,1920,10.0,70.0
6974,57.0,240,240,6.0,70.0
6975,69.0,0,3840,7.0,70.0
6976,54.0,0,1920,8.0,70.0
6977,76.0,120,120,5.0,70.0
6978,59.0,0,96,6.0,70.0
6979,81.0,0,144,3.0,90.0
6980,62.0,0,156,4.0,90.0
6981,47.0,0,240,4.0,80.0
6982,79.0,120,144,3.0,97.0
6983,65.0,36,164,4.0,90.0
6984,62.0,0,96,6.0,70.0
6985,81.0,84,144,3.0,103.0
6986,67.0,80,160,4.0,90.0
6987,55.0,0,480,2.0,70.0
6988,43.0,0,480,10.0,70.0
6989,74.0,0,480,5.0,70.0
6990,55.0,0,480,8.0,70.0
6991,43.0,0,240,4.0,80.0
6992,71.0,10,480,7.0,70.0
6993,79.0,40,144,3.0,101.0
6994,59.0,0,96,6.0,70.0
6995,81.0,0,100,3.0,91.0
6996,71.0,120,156,4.0,90.0
6997,79.0,60,100,3.0,88.0
6998,81.0,60,100,3.0,86.0
6999,50.0,0,240,4.0,80.0
7000,79.0,24,100,3.0,86.0
7001,67.0,36,164,4.0,90.0
7002,62.0,0,96,6.0,70.0
7003,81.0,0,100,3.0,87.0
7004,79.0,60,100,3.0,87.0
7005,81.0,40,100,3.0,90.0
7006,43.0,60,240,4.0,80.0
7007,65.0,20,160,4.0,90.0
7008,79.0,60,100,3.0,95.0
7009,55.0,0,96,6.0,70.0
7010,81.0,0,100,3.0,100.0
7011,62.0,60,156,4.0,90.0
7012,79.0,60,100,3.0,100.0
7013,81.0,60,100,3.0,100.0
7014,47.0,0,240,4.0,80.0
7015,79.0,24,100,3.0,97.0
7016,65.0,36,164,4.0,90.0
7017,62.0,60,96,6.0,70.0
7018,81.0,0,100,3.0,92.0
7019,79.0,60,100,3.0,90.0
7020,81.0,40,100,3.0,87.0
7021,67.0,20,160,4.0,90.0
7022,43.0,0,240,4.0,80.0
7023,79.0,60,100,3.0,82.0
7024,59.0,0,96,6.0,70.0
7025,81.0,60,100,3.0,79.0
7026,71.0,0,156,4.0,90.0
7027,79.0,60,100,3.0,79.0
7028,81.0,60,100,3.0,79.0
7029,50.0,0,240,4.0,80.0
7030,79.0,24,100,3.0,81.0
7031,67.0,36,164,4.0,90.0
7032,62.0,60,96,6.0,70.0
7033,81.0,0,100,3.0,86.0
7034,79.0,60,100,3.0,91.0
7035,81.0,40,100,3.0,96.0
7036,74.0,0,1920,0.0,70.0
7037,71.0,110,1920,1.0,70.0
7038,43.0,0,240,4.0,80.0
7039,65.0,20,160,4.0,90.0
7040,79.0,60,100,3.0,99.0
7041,55.0,0,96,6.0,70.0
7042,81.0,10,100,3.0,101.0
7043,62.0,0,156,4.0,90.0
7044,79.0,60,100,3.0,101.0
7045,81.0,60,100,3.0,100.0
7046,47.0,0,240,4.0,80.0
7047,79.0,24,100,3.0,97.0
7048,65.0,36,164,4.0,90.0
7049,62.0,60,96,6.0,70.0
7050,81.0,0,100,3.0,92.0
7051,79.0,60,100,3.0,90.0
7052,81.0,40,100,3.0,87.0
7053,67.0,20,160,4.0,90.0
7054,43.0,0,240,4.0,80.0
7055,79.0,60,100,3.0,82.0
7056,59.0,0,96,6.0,70.0
7057,81.0,60,100,3.0,77.0
7058,71.0,0,156,4.0,90.0
7059,79.0,60,100,3.0,77.0
7060,81.0,60,100,3.0,76.0
7061,50.0,0,240,4.0,80.0
7062,79.0,24,100,3.0,80.0
7063,67.0,36,164,4.0,90.0
7064,62.0,0,96,6.0,70.0
7065,81.0,0,100,3.0,85.0
7066,79.0,60,100,3.0,90.0
7067,81.0,40,100,3.0,95.0
7068,43.0,60,240,4.0,80.0
7069,65.0,20,160,4.0,90.0
7070,79.0,60,100,3.0,98.0
7071,55.0,60,96,6.0,70.0
7072,81.0,0,100,3.0,100.0
7073,62.0,0,156,4.0,90.0
7074,79.0,60,100,3.0,100.0
7075,81.0,60,100,3.0,99.0
7076,47.0,0,240,4.0,80.0
7077,79.0,24,100,3.0,99.0
7078,65.0,36,164,4.0,90.0
7079,62.0,60,96,6.0,70.0
7080,81.0,0,100,3.0,93.0
7081,79.0,60,100,3.0,88.0
7082,81.0,40,100,3.0,83.0
7083,43.0,0,240,4.0,80.0
7084,67.0,20,160,4.0,90.0
7085,79.0,60,100,3.0,81.0
7086,59.0,0,96,6.0,70.0
7087,81.0,0,100,3.0,81.0
7088,71.0,0,156,4.0,90.0
7089,79.0,60,100,3.0,80.0
7090,81.0,60,100,3.0,80.0
7091,50.0,60,240,4.0,80.0
7092,79.0,24,100,3.0,82.0
7093,67.0,36,164,4.0,90.0
7094,62.0,60,96,6.0,70.0
7095,78.0,0,144,3.0,82.0
7096,79.0,40,72,3.0,85.0
7097,74.0,0,1920,1.0,70.0
7098,77.0,50,1920,0.0,70.0
7099,43.0,0,240,4.0,80.0
7100,65.0,80,160,4.0,90.0
7101,76.0,0,480,0.0,70.0
7102,72.0,110,480,1.0,70.0
7103,67.0,0,480,4.0,90.0
7104,79.0,10,480,3.0,90.0
7105,48.0,0,480,4.0,80.0
7106,64.0,0,480,4.0,90.0
7107,72.0,0,480,4.0,90.0
7108,60.0,480,192,7.0,70.0
7109,36.0,0,192,10.0,70.0
7110,48.0,0,192,8.0,70.0
7111,64.0,480,192,7.0,70.0
7112,40.0,0,192,10.0,70.0
7113,52.0,0,192,8.0,70.0
7114,67.0,0,1440,6.0,70.0
7115,79.0,0,1440,5.0,70.0
7116,72.0,0,120,6.0,70.0
7117,84.0,0,120,5.0,70.0
7118,36.0,0,192,10.0,70.0
7119,60.0,0,192,7.0,70.0
7120,48.0,480,192,8.0,70.0
7121,76.0,120,360,5.0,70.0
7122,64.0,0,360,6.0,70.0
7123,67.0,0,480,6.0,70.0
7124,79.0,360,480,5.0,70.0
7125,62.0,0,192,7.0,70.0
7126,50.0,0,192,8.0,70.0
7127,38.0,0,192,10.0,70.0
7128,77.0,0,480,5.0,70.0
7129,65.0,480,480,6.0,70.0
7130,35.0,0,192,10.0,70.0
7131,59.0,0,192,7.0,70.0
7132,47.0,32,192,8.0,70.0
7133,65.0,32,540,4.0,90.0
7134,55.0,0,480,4.0,80.0
7135,43.0,0,572,4.0,80.0
7136,67.0,28,512,4.0,90.0
7137,47.0,0,540,4.0,80.0
7138,50.0,0,512,4.0,80.0
7139,71.0,0,480,4.0,90.0
7140,62.0,388,572,4.0,90.0
7141,79.0,0,528,3.0,104.0
7142,55.0,480,192,7.0,70.0
7143,31.0,0,192,10.0,70.0
7144,43.0,0,192,8.0,70.0
7145,77.0,0,372,3.0,90.0
7146,36.0,0,192,10.0,70.0
7147,60.0,480,192,7.0,70.0
7148,48.0,0,192,8.0,70.0
7149,57.0,480,192,8.0,70.0
7150,45.0,0,192,10.0,70.0
7151,69.0,0,192,7.0,70.0
7152,76.0,480,1440,5.0,70.0
7153,64.0,0,1440,6.0,70.0
7154,65.0,0,120,6.0,70.0
7155,77.0,0,120,5.0,70.0
7156,41.0,0,192,10.0,70.0
7157,53.0,480,192,8.0,70.0
7158,65.0,0,192,7.0,70.0
7159,69.0,120,360,6.0,70.0
7160,81.0,0,360,5.0,70.0
7161,72.0,360,480,5.0,70.0
7162,60.0,0,480,6.0,70.0
7163,43.0,480,192,10.0,70.0
7164,55.0,0,192,8.0,70.0
7165,67.0,0,192,7.0,70.0
7166,59.0,0,480,6.0,70.0
7167,71.0,0,480,5.0,70.0
7168,43.0,0,192,8.0,70.0
7169,31.0,0,192,10.0,70.0
7170,55.0,0,192,7.0,70.0
7171,53.0,0,480,4.0,80.0
7172,55.0,388,572,4.0,90.0
7173,67.0,32,480,4.0,90.0
7174,50.0,20,520,4.0,80.0
7175,65.0,8,512,4.0,90.0
7176,62.0,20,540,4.0,90.0
7177,43.0,12,560,4.0,80.0
7178,72.0,0,552,3.0,109.0
7179,41.0,0,192,10.0,70.0
7180,65.0,480,192,7.0,70.0
7181,53.0,0,192,8.0,70.0
7182,71.0,0,396,3.0,90.0
7183,64.0,0,192,7.0,70.0
7184,52.0,480,192,8.0,70.0
7185,40.0,0,192,10.0,70.0
7186,50.0,0,192,8.0,70.0
7187,38.0,0,192,10.0,70.0
7188,62.0,480,192,7.0,70.0
7189,60.0,480,1440,6.0,70.0
7190,72.0,0,1440,5.0,70.0
7191,60.0,480,192,7.0,70.0
7192,36.0,0,192,10.0,70.0
7193,48.0,0,192,8.0,70.0
7194,74.0,0,240,5.0,70.0
7195,62.0,0,240,6.0,70.0
7196,64.0,0,240,6.0,70.0
7197,76.0,240,240,5.0,70.0
7198,45.0,0,192,10.0,70.0
7199,69.0,480,192,7.0,70.0
7200,57.0,0,192,8.0,70.0
7201,67.0,0,192,7.0,70.0
7202,55.0,480,192,8.0,70.0
7203,43.0,0,192,10.0,70.0
7204,65.0,240,1440,6.0,70.0
7205,77.0,0,1440,5.0,70.0
7206,65.0,0,192,7.0,70.0
7207,53.0,0,192,8.0,70.0
7208,41.0,480,192,10.0,70.0
7209,79.0,0,240,5.0,70.0
7210,67.0,0,240,6.0,70.0
7211,69.0,0,240,6.0,70.0
7212,81.0,240,240,5.0,70.0
7213,40.0,0,192,10.0,70.0
7214,52.0,0,192,8.0,70.0
7215,64.0,0,192,7.0,70.0
7216,67.0,0,480,6.0,70.0
7217,79.0,240,480,5.0,70.0
7218,57.0,0,192,8.0,70.0
7219,45.0,0,192,10.0,70.0
7220,72.0,0,480,5.0,70.0
7221,60.0,0,480,6.0,70.0
7222,41.0,0,192,10.0,70.0
7223,53.0,480,192,8.0,70.0
7224,74.0,0,480,5.0,70.0
7225,60.0,480,960,7.0,70.0
7226,62.0,0,480,6.0,70.0
7227,43.0,0,192,10.0,70.0
7228,55.0,480,192,8.0,70.0
7229,59.0,0,480,7.0,70.0
7230,77.0,0,480,5.0,70.0
7231,65.0,0,480,6.0,70.0
7232,63.0,480,480,6.0,70.0
7233,75.0,0,480,5.0,70.0
7234,59.0,0,480,7.0,70.0
7235,48.0,0,192,8.0,70.0
7236,36.0,0,192,10.0,70.0
7237,76.0,0,480,5.0,70.0
7238,60.0,0,480,7.0,70.0
7239,64.0,480,480,6.0,70.0
7240,52.0,0,192,8.0,70.0
7241,40.0,0,192,10.0,70.0
7242,76.0,0,720,4.0,90.0
7243,79.0,0,720,4.0,90.0
7244,79.0,0,852,3.0,90.0
7245,76.0,0,240,4.0,90.0
7246,72.0,240,240,4.0,90.0
7247,64.0,0,480,4.0,80.0
7248,60.0,480,480,4.0,80.0
7249,84.0,0,100,3.0,91.0
7250,83.0,60,100,3.0,93.0
7251,55.0,0,192,8.0,70.0
7252,43.0,0,192,10.0,70.0
7253,84.0,60,100,3.0,96.0
7254,77.0,0,240,4.0,90.0
7255,74.0,0,240,4.0,90.0
7256,83.0,60,100,3.0,98.0
7257,81.0,60,156,3.0,101.0
7258,83.0,120,84,3.0,103.0
7259,74.0,0,240,4.0,90.0
7260,71.0,0,240,4.0,90.0
7261,62.0,240,480,4.0,80.0
7262,55.0,0,480,4.0,80.0
7263,72.0,0,480,4.0,90.0
7264,52.0,0,480,4.0,80.0
7265,60.0,0,480,4.0,80.0
7266,52.0,0,960,7.0,70.0
7267,48.0,0,480,10.0,70.0
7268,60.0,480,480,8.0,70.0
7269,72.0,0,1440,5.0,70.0
7270,59.0,0,480,8.0,70.0
7271,60.0,120,1440,6.0,70.0
7272,47.0,0,480,10.0,70.0
7273,74.0,0,240,5.0,70.0
7274,62.0,480,240,6.0,70.0
7275,76.0,0,240,5.0,70.0
7276,64.0,240,240,6.0,70.0
7277,46.0,0,480,10.0,70.0
7278,55.0,480,960,7.0,70.0
7279,58.0,0,480,8.0,70.0
7280,57.0,0,480,8.0,70.0
7281,48.0,0,480,7.0,70.0
7282,65.0,0,480,6.0,70.0
7283,77.0,0,480,5.0,70.0
7284,45.0,240,480,10.0,70.0
7285,65.0,480,0,6.0,70.0
7286,77.0,0,0,5.0,70.0
7287,60.0,0,480,8.0,70.0
7288,48.0,0,480,10.0,70.0
7289,45.0,0,480,10.0,70.0
7290,60.0,480,960,7.0,70.0
7291,57.0,0,480,8.0,70.0
7292,67.0,0,240,6.0,70.0
7293,79.0,480,240,5.0,70.0
7294,81.0,240,240,5.0,70.0
7295,69.0,0,240,6.0,70.0
7296,41.0,0,480,10.0,70.0
7297,65.0,0,480,7.0,70.0
7298,53.0,0,480,8.0,70.0
7299,79.0,240,240,5.0,70.0
7300,67.0,0,240,6.0,70.0
7301,69.0,0,240,6.0,70.0
7302,81.0,240,240,5.0,70.0
7303,71.0,0,240,6.0,70.0
7304,83.0,240,240,5.0,70.0
7305,84.0,240,240,5.0,70.0
7306,72.0,0,240,6.0,70.0
7307,83.0,0,240,5.0,70.0
7308,71.0,240,240,6.0,70.0
7309,84.0,0,240,5.0,70.0
7310,72.0,240,240,6.0,70.0
7311,71.0,0,240,6.0,70.0
7312,83.0,240,240,5.0,70.0
7313,84.0,240,240,5.0,70.0
7314,72.0,0,240,6.0,70.0
7315,64.0,0,1920,7.0,70.0
7316,40.0,0,1920,10.0,70.0
7317,52.0,0,1920,8.0,70.0
7318,68.0,0,240,6.0,70.0
7319,80.0,240,240,5.0,70.0
7320,69.0,0,240,6.0,70.0
7321,81.0,240,240,5.0,70.0
7322,80.0,0,240,5.0,70.0
7323,68.0,240,240,6.0,70.0
7324,41.0,0,960,10.0,70.0
7325,65.0,0,960,7.0,70.0
7326,53.0,0,960,8.0,70.0
7327,69.0,0,240,6.0,70.0
7328,81.0,240,240,5.0,70.0
7329,76.0,240,240,5.0,70.0
7330,64.0,0,240,6.0,70.0
7331,77.0,0,240,5.0,70.0
7332,65.0,240,240,6.0,70.0
7333,64.0,240,240,6.0,70.0
7334,76.0,0,240,5.0,70.0
7335,65.0,0,240,6.0,70.0
7336,48.0,0,7680,2.0,70.0
7337,60.0,0,7680,2.0,70.0
7338,57.0,0,960,8.0,70.0
7339,45.0,0,960,10.0,70.0
7340,60.0,0,0,7.0,70.0
7341,77.0,240,240,5.0,70.0
7342,76.0,0,240,5.0,70.0
7343,64.0,240,240,6.0,70.0
7344,84.0,0,7968,3.0,96.0
7345,79.0,240,168,3.0,90.0
7346,67.0,0,240,5.0,70.0
7347,64.0,0,240,6.0,70.0
7348,64.0,0,240,5.0,70.0
7349,60.0,240,240,6.0,70.0
7350,64.0,240,240,6.0,70.0
7351,67.0,0,240,5.0,70.0
7352,60.0,240,240,6.0,70.0
7353,64.0,0,240,5.0,70.0
7354,79.0,0,888,3.0,90.0
7355,64.0,0,240,6.0,70.0
7356,67.0,240,240,5.0,70.0
7357,77.0,240,168,3.0,90.0
7358,65.0,0,240,5.0,70.0
7359,62.0,0,240,6.0,70.0
7360,76.0,240,168,3.0,90.0
7361,60.0,0,240,6.0,70.0
7362,55.0,0,1920,8.0,70.0
7363,43.0,0,1920,10.0,70.0
7364,64.0,0,240,5.0,70.0
7365,64.0,0,240,6.0,70.0
7366,67.0,0,240,5.0,70.0
7367,76.0,240,288,3.0,90.0
7368,74.0,0,168,3.0,90.0
7369,65.0,0,240,5.0,70.0
7370,62.0,240,240,6.0,70.0
7371,64.0,0,96,5.0,70.0
7372,60.0,0,96,6.0,70.0
7373,64.0,240,96,5.0,70.0
7374,60.0,0,96,6.0,70.0
7375,64.0,0,240,5.0,70.0
7376,60.0,240,240,6.0,70.0
7377,64.0,0,240,6.0,70.0
7378,67.0,240,240,5.0,70.0
7379,72.0,240,1008,3.0,90.0
7380,62.0,240,240,6.0,70.0
7381,65.0,0,240,5.0,70.0
7382,71.0,0,420,3.0,90.0
7383,55.0,0,3840,2.0,70.0
7384,59.0,240,240,6.0,70.0
7385,43.0,0,1920,8.0,70.0
7386,62.0,0,240,5.0,70.0
7387,31.0,0,1920,10.0,70.0
7388,60.0,0,480,4.0,80.0
7389,72.0,148,572,4.0,90.0
7390,76.0,32,540,4.0,90.0
7391,79.0,28,512,4.0,90.0
7392,60.0,0,480,5.0,70.0
7393,36.0,0,480,10.0,70.0
7394,60.0,0,480,2.0,70.0
7395,52.0,0,480,2.0,70.0
7396,67.0,0,3360,7.0,70.0
7397,60.0,0,480,6.0,70.0
7398,84.0,0,480,4.0,90.0
7399,48.0,0,480,8.0,70.0
7400,72.0,32,480,3.0,90.0
7401,60.0,0,0,4.0,90.0
7402,48.0,240,0,4.0,80.0
7403,47.0,0,240,4.0,80.0
7404,59.0,240,240,4.0,90.0
7405,50.0,0,240,4.0,80.0
7406,62.0,240,240,4.0,90.0
7407,53.0,0,240,4.0,80.0
7408,65.0,240,240,4.0,90.0
7409,53.0,0,240,4.0,80.0
7410,65.0,240,240,4.0,90.0
7411,52.0,0,240,4.0,80.0
7412,64.0,240,240,4.0,90.0
7413,55.0,0,240,4.0,80.0
7414,67.0,240,240,4.0,90.0
7415,60.0,240,0,4.0,80.0
7416,72.0,0,0,4.0,90.0
7417,59.0,240,240,4.0,80.0
7418,71.0,0,240,4.0,90.0
7419,74.0,240,240,4.0,90.0
7420,62.0,0,240,4.0,80.0
7421,65.0,240,240,4.0,80.0
7422,77.0,240,0,4.0,90.0
7423,65.0,0,240,4.0,80.0
7424,76.0,28,32,4.0,90.0
7425,60.0,0,480,4.0,80.0
7426,72.0,0,96,3.0,105.0
7427,55.0,0,0,4.0,80.0
7428,72.0,240,96,3.0,104.0
7429,79.0,0,480,4.0,90.0
7430,67.0,388,572,4.0,90.0
7431,72.0,32,540,4.0,90.0
7432,71.0,240,300,3.0,105.0
7433,74.0,240,168,3.0,90.0
7434,62.0,0,480,5.0,70.0
7435,71.0,0,480,5.0,70.0
7436,55.0,0,480,6.0,70.0
7437,65.0,0,480,6.0,70.0
7438,62.0,0,480,7.0,70.0
7439,62.0,0,480,4.0,80.0
7440,77.0,0,96,3.0,105.0
7441,55.0,0,0,4.0,80.0
7442,77.0,240,96,3.0,105.0
7443,74.0,28,512,4.0,90.0
7444,71.0,32,540,4.0,90.0
7445,67.0,148,572,4.0,90.0
7446,79.0,32,480,4.0,90.0
7447,72.0,0,312,3.0,105.0
7448,76.0,240,168,3.0,90.0
7449,64.0,240,480,4.0,80.0
7450,72.0,0,480,5.0,70.0
7451,67.0,0,480,6.0,70.0
7452,55.0,0,480,6.0,70.0
7453,64.0,0,480,7.0,70.0
7454,64.0,0,480,5.0,70.0
7455,79.0,0,96,3.0,102.0
7456,55.0,0,240,4.0,80.0
7457,79.0,240,96,3.0,102.0
7458,79.0,32,480,4.0,90.0
7459,76.0,28,512,4.0,90.0
7460,72.0,32,540,4.0,90.0
7461,67.0,148,572,4.0,90.0
7462,55.0,0,240,4.0,80.0
7463,74.0,0,324,3.0,104.0
7464,79.0,240,168,3.0,90.0
7465,55.0,0,480,6.0,70.0
7466,65.0,0,480,6.0,70.0
7467,59.0,0,480,7.0,70.0
7468,74.0,0,480,5.0,70.0
7469,67.0,240,480,5.0,70.0
7470,59.0,0,480,4.0,80.0
7471,83.0,0,96,3.0,103.0
7472,55.0,32,240,4.0,80.0
7473,83.0,240,96,3.0,106.0
7474,77.0,28,512,4.0,90.0
7475,74.0,32,540,4.0,90.0
7476,67.0,148,572,4.0,90.0
7477,55.0,0,240,4.0,80.0
7478,79.0,0,480,4.0,90.0
7479,84.0,0,372,3.0,106.0
7480,60.0,240,480,4.0,80.0
7481,72.0,0,480,5.0,70.0
7482,76.0,0,480,5.0,70.0
7483,55.0,0,480,6.0,70.0
7484,64.0,0,480,6.0,70.0
7485,67.0,0,480,5.0,70.0
7486,60.0,0,480,7.0,70.0
7487,72.0,32,96,3.0,99.0
7488,55.0,240,0,4.0,80.0
7489,72.0,0,96,3.0,99.0
7490,76.0,28,512,4.0,90.0
7491,79.0,0,480,4.0,90.0
7492,72.0,32,540,4.0,90.0
7493,67.0,388,572,4.0,90.0
7494,71.0,0,324,3.0,101.0
7495,74.0,240,192,3.0,90.0
7496,74.0,0,480,5.0,70.0
7497,77.0,0,480,6.0,70.0
7498,62.0,0,480,7.0,70.0
7499,83.0,0,480,5.0,70.0
7500,62.0,0,480,4.0,80.0
7501,67.0,240,480,6.0,70.0
7502,77.0,32,96,3.0,90.0
7503,55.0,240,0,4.0,80.0
7504,77.0,0,96,3.0,99.0
7505,67.0,148,572,4.0,90.0
7506,71.0,32,540,4.0,90.0
7507,74.0,28,512,4.0,90.0
7508,79.0,0,480,4.0,90.0
7509,72.0,0,300,3.0,101.0
7510,76.0,240,180,3.0,90.0
7511,76.0,0,480,5.0,70.0
7512,64.0,0,480,4.0,80.0
7513,84.0,0,480,5.0,70.0
7514,79.0,0,480,6.0,70.0
7515,67.0,0,480,6.0,70.0
7516,64.0,240,480,7.0,70.0
7517,79.0,32,96,3.0,99.0
7518,55.0,240,0,4.0,80.0
7519,79.0,0,96,3.0,101.0
7520,79.0,0,480,4.0,90.0
7521,76.0,28,512,4.0,90.0
7522,72.0,32,540,4.0,90.0
7523,67.0,148,572,4.0,90.0
7524,74.0,0,312,3.0,103.0
7525,79.0,240,192,3.0,90.0
7526,77.0,0,480,5.0,70.0
7527,67.0,240,480,6.0,70.0
7528,74.0,0,480,6.0,70.0
7529,59.0,0,480,4.0,80.0
7530,59.0,0,480,7.0,70.0
7531,74.0,0,480,5.0,70.0
7532,83.0,32,96,3.0,100.0
7533,55.0,0,240,4.0,80.0
7534,83.0,0,96,3.0,100.0
7535,55.0,240,240,4.0,80.0
7536,74.0,32,540,4.0,90.0
7537,67.0,148,572,4.0,90.0
7538,79.0,0,480,4.0,90.0
7539,77.0,28,512,4.0,90.0
7540,76.0,156,164,4.0,90.0
7541,76.0,0,480,5.0,70.0
7542,72.0,0,480,5.0,70.0
7543,72.0,0,480,6.0,70.0
7544,60.0,0,480,4.0,80.0
7545,77.0,164,160,4.0,90.0
7546,67.0,0,480,5.0,70.0
7547,84.0,240,480,3.0,100.0
7548,64.0,0,480,6.0,70.0
7549,60.0,0,480,7.0,70.0
7550,79.0,160,156,4.0,90.0
7551,77.0,156,164,4.0,90.0
7552,76.0,164,160,4.0,90.0
7553,72.0,156,164,4.0,90.0
7554,57.0,160,480,4.0,80.0
7555,74.0,164,160,4.0,90.0
7556,76.0,160,156,4.0,90.0
7557,74.0,156,164,4.0,90.0
7558,72.0,164,160,4.0,90.0
7559,69.0,156,164,4.0,90.0
7560,53.0,160,480,4.0,80.0
7561,71.0,164,160,4.0,90.0
7562,72.0,160,156,4.0,90.0
7563,71.0,156,164,4.0,90.0
7564,69.0,164,160,4.0,90.0
7565,65.0,156,164,4.0,90.0
7566,67.0,164,160,4.0,90.0
7567,50.0,160,480,4.0,80.0
7568,69.0,160,156,4.0,90.0
7569,67.0,156,164,4.0,90.0
7570,65.0,164,160,4.0,90.0
7571,55.0,240,240,4.0,80.0
7572,54.0,240,240,4.0,80.0
7573,53.0,240,240,4.0,80.0
7574,74.0,160,960,4.0,90.0
7575,79.0,0,960,4.0,90.0
7576,83.0,0,960,4.0,90.0
7577,52.0,0,240,4.0,80.0
7578,76.0,0,0,4.0,90.0
7579,72.0,0,0,4.0,90.0
7580,79.0,0,480,4.0,90.0
7581,84.0,0,480,4.0,90.0
7582,60.0,240,240,4.0,80.0
7583,59.0,240,240,4.0,80.0
7584,58.0,240,240,4.0,80.0
7585,67.0,0,480,4.0,90.0
7586,72.0,0,0,4.0,90.0
7587,72.0,0,0,4.0,90.0
7588,69.0,240,480,4.0,90.0
7589,57.0,0,480,4.0,80.0
7590,77.0,480,0,4.0,90.0
7591,53.0,0,480,4.0,80.0
7592,81.0,0,480,4.0,90.0
7593,79.0,0,480,4.0,90.0
7594,76.0,0,480,4.0,90.0
7595,72.0,480,480,4.0,90.0
7596,55.0,0,480,4.0,80.0
7597,43.0,480,480,4.0,80.0
7598,67.0,0,480,4.0,90.0
7599,71.0,0,480,4.0,90.0
7600,62.0,0,480,4.0,90.0
7601,88.0,156,164,4.0,90.0
7602,60.0,0,480,7.0,70.0
7603,72.0,480,480,4.0,80.0
7604,86.0,164,160,4.0,90.0
7605,84.0,0,156,4.0,90.0
7606,86.0,156,164,4.0,90.0
7607,88.0,164,160,4.0,90.0
7608,60.0,0,480,6.0,70.0
7609,76.0,160,480,5.0,70.0
7610,84.0,156,164,4.0,90.0
7611,69.0,0,480,4.0,80.0
7612,83.0,164,160,4.0,90.0
7613,69.0,160,480,7.0,70.0
7614,81.0,0,156,4.0,90.0
7615,83.0,156,164,4.0,90.0
7616,84.0,164,160,4.0,90.0
7617,84.0,0,480,5.0,70.0
7618,69.0,160,480,6.0,70.0
7619,81.0,156,164,4.0,90.0
7620,65.0,160,480,4.0,80.0
7621,79.0,164,160,4.0,90.0
7622,65.0,0,480,7.0,70.0
7623,77.0,0,156,4.0,90.0
7624,79.0,156,164,4.0,90.0
7625,81.0,164,160,4.0,90.0
7626,81.0,0,480,5.0,70.0
7627,65.0,160,480,6.0,70.0
7628,77.0,156,164,4.0,90.0
7629,62.0,0,480,7.0,70.0
7630,76.0,164,160,4.0,90.0
7631,62.0,160,480,4.0,80.0
7632,74.0,0,156,4.0,90.0
7633,76.0,156,164,4.0,90.0
7634,77.0,164,160,4.0,90.0
7635,62.0,0,0,6.0,80.0
7636,77.0,160,480,5.0,70.0
7637,55.0,240,240,4.0,80.0
7638,54.0,240,240,4.0,80.0
7639,53.0,240,240,4.0,80.0
7640,79.0,0,960,4.0,90.0
7641,83.0,0,960,4.0,90.0
7642,71.0,0,960,5.0,80.0
7643,74.0,0,960,4.0,90.0
7644,52.0,0,240,4.0,80.0
7645,72.0,0,480,5.0,70.0
7646,67.0,160,1440,7.0,70.0
7647,64.0,240,480,6.0,70.0
7648,79.0,0,480,4.0,90.0
7649,76.0,0,480,4.0,90.0
7650,72.0,0,0,4.0,90.0
7651,84.0,0,480,4.0,90.0
7652,60.0,240,240,4.0,80.0
7653,59.0,240,240,4.0,80.0
7654,67.0,0,480,4.0,90.0
7655,72.0,0,0,4.0,90.0
7656,76.0,0,480,4.0,90.0
7657,58.0,240,240,4.0,80.0
7658,77.0,240,480,4.0,90.0
7659,57.0,0,480,4.0,80.0
7660,69.0,0,480,4.0,90.0
7661,53.0,480,480,4.0,80.0
7662,72.0,0,0,4.0,90.0
7663,77.0,0,480,4.0,90.0
7664,81.0,0,480,4.0,90.0
7665,79.0,0,480,4.0,90.0
7666,76.0,0,480,4.0,90.0
7667,55.0,480,480,4.0,80.0
7668,43.0,480,480,4.0,80.0
7669,67.0,0,480,4.0,90.0
7670,62.0,0,480,4.0,90.0
7671,71.0,0,480,4.0,90.0
7672,55.0,240,240,4.0,80.0
7673,54.0,240,240,4.0,80.0
7674,83.0,0,960,4.0,90.0
7675,53.0,240,240,4.0,80.0
7676,74.0,480,960,4.0,90.0
7677,62.0,0,960,6.0,80.0
7678,71.0,0,960,5.0,80.0
7679,79.0,0,0,4.0,90.0
7680,52.0,0,240,4.0,80.0
7681,60.0,240,240,4.0,80.0
7682,84.0,240,480,4.0,90.0
7683,72.0,0,480,4.0,90.0
7684,76.0,0,480,4.0,90.0
7685,64.0,0,480,6.0,70.0
7686,72.0,0,480,5.0,70.0
7687,67.0,0,1440,7.0,70.0
7688,59.0,0,240,4.0,80.0
7689,67.0,240,480,4.0,90.0
7690,72.0,240,0,4.0,90.0
7691,76.0,0,480,4.0,90.0
7692,58.0,240,240,4.0,80.0
7693,77.0,0,480,4.0,90.0
7694,57.0,0,480,4.0,80.0
7695,69.0,0,480,4.0,90.0
7696,53.0,0,480,4.0,80.0
7697,81.0,480,480,4.0,90.0
7698,72.0,0,0,4.0,90.0
7699,77.0,0,480,4.0,90.0
7700,79.0,0,480,4.0,90.0
7701,76.0,480,480,4.0,90.0
7702,55.0,0,480,4.0,80.0
7703,71.0,0,480,4.0,90.0
7704,67.0,480,480,4.0,90.0
7705,43.0,0,480,4.0,80.0
7706,62.0,0,480,4.0,90.0
7707,45.0,0,240,4.0,80.0
7708,72.0,480,432,3.0,90.0
7709,48.0,240,240,4.0,80.0
7710,64.0,0,480,4.0,90.0
7711,72.0,0,480,4.0,90.0
7712,52.0,240,240,4.0,80.0
7713,57.0,240,240,4.0,80.0
7714,41.0,0,240,4.0,80.0
7715,84.0,0,864,3.0,90.0
7716,45.0,240,240,4.0,80.0
7717,62.0,240,480,4.0,90.0
7718,65.0,0,480,4.0,90.0
7719,69.0,0,480,4.0,90.0
7720,72.0,0,480,4.0,90.0
7721,83.0,240,204,3.0,90.0
7722,50.0,0,240,4.0,80.0
7723,81.0,0,192,3.0,90.0
7724,53.0,240,240,4.0,80.0
7725,81.0,0,216,3.0,90.0
7726,43.0,240,240,4.0,80.0
7727,79.0,0,180,3.0,90.0
7728,64.0,0,480,4.0,90.0
7729,67.0,0,480,4.0,90.0
7730,48.0,240,240,4.0,80.0
7731,72.0,0,480,4.0,90.0
7732,77.0,0,204,3.0,90.0
7733,52.0,240,240,4.0,80.0
7734,76.0,0,192,3.0,90.0
7735,55.0,240,240,4.0,80.0
7736,76.0,0,216,3.0,90.0
7737,43.0,240,240,4.0,80.0
7738,74.0,240,192,3.0,90.0
7739,50.0,0,240,4.0,80.0
7740,71.0,0,480,4.0,90.0
7741,65.0,0,480,4.0,90.0
7742,62.0,0,480,4.0,90.0
7743,72.0,0,180,3.0,90.0
7744,53.0,240,240,4.0,80.0
7745,74.0,60,60,5.0,70.0
7746,71.0,0,180,3.0,90.0
7747,72.0,60,60,5.0,70.0
7748,55.0,240,240,4.0,80.0
7749,71.0,60,60,5.0,70.0
7750,45.0,0,240,4.0,80.0
7751,72.0,0,444,3.0,90.0
7752,57.0,0,480,8.0,70.0
7753,48.0,240,240,4.0,80.0
7754,72.0,0,480,4.0,90.0
7755,45.0,0,480,10.0,70.0
7756,60.0,0,480,4.0,90.0
7757,64.0,0,480,4.0,90.0
7758,69.0,60,480,4.0,90.0
7759,72.0,0,480,5.0,70.0
7760,52.0,0,240,4.0,80.0
7761,83.0,60,60,5.0,70.0
7762,81.0,60,60,5.0,70.0
7763,79.0,60,60,5.0,70.0
7764,57.0,240,240,4.0,80.0
7765,64.0,0,960,7.0,70.0
7766,41.0,0,240,4.0,80.0
7767,84.0,240,924,3.0,90.0
7768,62.0,0,480,4.0,90.0
7769,65.0,0,480,4.0,90.0
7770,69.0,0,480,4.0,90.0
7771,72.0,0,480,4.0,90.0
7772,45.0,240,240,4.0,80.0
7773,81.0,60,480,5.0,70.0
7774,41.0,0,480,10.0,70.0
7775,53.0,0,480,8.0,70.0
7776,83.0,0,204,3.0,90.0
7777,50.0,240,240,4.0,80.0
7778,81.0,60,60,5.0,70.0
7779,79.0,60,60,5.0,70.0
7780,81.0,240,204,3.0,90.0
7781,78.0,60,60,5.0,70.0
7782,62.0,0,960,7.0,70.0
7783,53.0,0,240,4.0,80.0
7784,81.0,60,204,3.0,90.0
7785,43.0,0,240,4.0,80.0
7786,79.0,240,204,3.0,90.0
7787,64.0,0,480,4.0,90.0
7788,67.0,0,480,4.0,90.0
7789,72.0,0,480,4.0,90.0
7790,48.0,0,240,4.0,80.0
7791,79.0,0,480,5.0,80.0
7792,55.0,0,480,8.0,80.0
7793,43.0,0,480,10.0,80.0
7794,77.0,240,180,3.0,90.0
7795,52.0,0,240,4.0,80.0
7796,72.0,60,60,5.0,80.0
7797,71.0,60,60,5.0,80.0
7798,76.0,240,204,3.0,90.0
7799,55.0,0,240,4.0,80.0
7800,64.0,0,960,7.0,80.0
7801,72.0,0,2880,6.0,70.0
7802,69.0,60,60,5.0,80.0
7803,76.0,60,204,3.0,90.0
7804,43.0,0,240,4.0,80.0
7805,74.0,0,180,3.0,90.0
7806,71.0,0,480,4.0,90.0
7807,43.0,0,480,8.0,80.0
7808,31.0,0,480,10.0,80.0
7809,71.0,0,480,5.0,80.0
7810,67.0,0,480,4.0,90.0
7811,65.0,0,480,4.0,90.0
7812,47.0,240,240,4.0,80.0
7813,62.0,0,480,4.0,90.0
7814,72.0,240,180,3.0,90.0
7815,50.0,0,240,4.0,80.0
7816,71.0,0,204,3.0,90.0
7817,67.0,0,960,7.0,80.0
7818,55.0,240,240,4.0,80.0
7819,65.0,0,960,6.0,80.0
7820,72.0,10,240,5.0,90.0
7821,60.0,0,240,8.0,90.0
7822,48.0,0,240,10.0,90.0
7823,72.0,0,480,3.0,90.0
7824,47.0,0,240,10.0,105.0
7825,64.0,0,480,6.0,90.0
7826,67.0,0,480,7.0,90.0
7827,48.0,0,480,4.0,80.0
7828,67.0,0,480,4.0,90.0
7829,60.0,0,480,4.0,90.0
7830,64.0,0,480,4.0,90.0
7831,72.0,0,480,4.0,90.0
7832,59.0,0,240,8.0,105.0
7833,71.0,240,240,5.0,105.0
7834,60.0,0,240,8.0,105.0
7835,72.0,0,240,5.0,105.0
7836,48.0,240,240,10.0,105.0
7837,50.0,0,240,10.0,105.0
7838,62.0,240,240,8.0,105.0
7839,74.0,0,240,5.0,105.0
7840,76.0,0,240,5.0,105.0
7841,64.0,0,240,8.0,105.0
7842,52.0,240,240,10.0,105.0
7843,62.0,0,240,8.0,105.0
7844,50.0,240,240,10.0,105.0
7845,74.0,0,240,5.0,105.0
7846,72.0,240,240,5.0,105.0
7847,60.0,0,240,8.0,105.0
7848,48.0,0,240,10.0,105.0
7849,59.0,0,240,8.0,105.0
7850,71.0,240,240,5.0,105.0
7851,47.0,0,240,10.0,105.0
7852,45.0,0,240,10.0,105.0
7853,57.0,240,240,8.0,105.0
7854,69.0,0,240,5.0,105.0
7855,44.0,240,240,10.0,105.0
7856,56.0,0,240,8.0,105.0
7857,68.0,0,240,5.0,105.0
7858,57.0,0,240,8.0,105.0
7859,45.0,240,240,10.0,105.0
7860,69.0,0,240,5.0,105.0
7861,71.0,0,240,5.0,105.0
7862,59.0,240,240,8.0,105.0
7863,47.0,0,240,10.0,105.0
7864,72.0,0,240,5.0,105.0
7865,48.0,0,240,10.0,105.0
7866,60.0,240,240,8.0,105.0
7867,59.0,0,240,8.0,105.0
7868,47.0,240,240,10.0,105.0
7869,71.0,0,240,5.0,105.0
7870,69.0,0,240,5.0,105.0
7871,45.0,0,240,10.0,105.0
7872,57.0,240,240,8.0,105.0
7873,76.0,230,3840,1.0,90.0
7874,84.0,0,3840,0.0,90.0
7875,43.0,0,240,10.0,105.0
7876,67.0,240,240,5.0,105.0
7877,60.0,0,0,2.0,105.0
7878,64.0,0,3840,2.0,90.0
7879,55.0,0,240,8.0,105.0
7880,41.0,0,480,10.0,105.0
7881,65.0,0,480,5.0,105.0
7882,53.0,10,480,8.0,105.0
7883,81.0,0,960,0.0,105.0
7884,77.0,480,480,6.0,105.0
7885,81.0,0,480,5.0,105.0
7886,72.0,0,480,5.0,105.0
7887,65.0,0,960,2.0,105.0
7888,50.0,10,480,8.0,105.0
7889,62.0,0,480,7.0,105.0
7890,38.0,0,480,10.0,105.0
7891,83.0,470,960,0.0,105.0
7892,77.0,230,1920,1.0,105.0
7893,77.0,480,480,6.0,105.0
7894,55.0,10,0,2.0,105.0
7895,83.0,0,480,5.0,105.0
7896,74.0,0,480,5.0,105.0
7897,62.0,0,960,2.0,105.0
7898,60.0,0,480,7.0,105.0
7899,48.0,0,480,8.0,105.0
7900,36.0,0,480,10.0,105.0
7901,84.0,470,960,0.0,105.0
7902,67.0,0,480,6.0,105.0
7903,72.0,0,480,6.0,105.0
7904,84.0,0,480,5.0,105.0
7905,76.0,480,480,5.0,105.0
7906,64.0,0,960,2.0,105.0
7907,69.0,10,480,7.0,105.0
7908,57.0,0,480,8.0,105.0
7909,45.0,0,480,10.0,105.0
7910,72.0,0,960,1.0,105.0
7911,78.0,470,960,0.0,105.0
7912,60.0,0,960,2.0,105.0
7913,48.0,0,960,2.0,105.0
7914,78.0,480,480,5.0,105.0
7915,72.0,0,480,6.0,105.0
7916,72.0,0,480,5.0,105.0
7917,55.0,0,480,6.0,105.0
7918,64.0,0,480,6.0,105.0
7919,79.0,0,960,0.0,105.0
7920,72.0,470,960,1.0,105.0
7921,79.0,0,960,5.0,105.0
7922,67.0,10,960,7.0,105.0
7923,64.0,0,960,2.0,105.0
7924,60.0,0,960,2.0,105.0
7925,43.0,0,960,10.0,105.0
7926,55.0,0,960,8.0,105.0
7927,76.0,0,1908,4.0,90.0
7928,55.0,0,1920,4.0,80.0
7929,43.0,0,1932,4.0,80.0
7930,84.0,0,2400,3.0,90.0
7931,76.0,2664,120,4.0,90.0
7932,84.0,0,146,3.0,90.0
7933,76.0,0,120,4.0,90.0
7934,84.0,216,146,3.0,90.0
7935,74.0,0,120,4.0,90.0
7936,83.0,120,146,3.0,90.0
7937,76.0,0,100,4.0,90.0
7938,84.0,120,100,3.0,90.0
7939,74.0,60,100,4.0,90.0
7940,83.0,0,100,3.0,90.0
7941,84.0,0,100,3.0,90.0
7942,76.0,60,100,4.0,90.0
7943,83.0,60,100,3.0,90.0
7944,74.0,0,100,4.0,90.0
7945,84.0,60,100,3.0,90.0
7946,76.0,0,100,4.0,90.0
7947,74.0,0,100,4.0,90.0
7948,83.0,60,100,3.0,90.0
7949,76.0,60,100,4.0,90.0
7950,84.0,0,100,3.0,90.0
7951,83.0,0,100,3.0,90.0
7952,74.0,60,100,4.0,90.0
7953,72.0,0,120,4.0,90.0
7954,81.0,60,146,3.0,90.0
7955,74.0,120,120,4.0,90.0
7956,83.0,0,120,3.0,90.0
7957,36.0,0,240,10.0,90.0
7958,64.0,0,240,7.0,90.0
7959,48.0,0,240,8.0,90.0
7960,72.0,110,480,0.0,90.0
7961,55.0,0,480,4.0,80.0
7962,48.0,0,480,4.0,80.0
7963,55.0,10,480,6.0,90.0
7964,60.0,0,480,4.0,80.0
7965,50.0,0,240,8.0,90.0
7966,64.0,0,480,6.0,90.0
7967,84.0,0,480,3.0,90.0
7968,60.0,0,480,2.0,101.0
7969,72.0,0,480,5.0,90.0
7970,52.0,0,480,4.0,80.0
7971,38.0,0,240,10.0,90.0
7972,72.0,0,480,6.0,90.0
7973,65.0,240,240,7.0,90.0
7974,64.0,0,480,5.0,90.0
7975,55.0,0,480,5.0,90.0
7976,72.0,0,480,4.0,90.0
7977,40.0,0,240,10.0,90.0
7978,52.0,240,240,8.0,90.0
7979,67.0,0,240,7.0,90.0
7980,50.0,0,240,8.0,105.0
7981,84.0,240,240,5.0,105.0
7982,38.0,0,240,10.0,105.0
7983,72.0,0,0,6.0,105.0
7984,65.0,0,240,7.0,105.0
7985,64.0,0,240,7.0,105.0
7986,48.0,0,240,8.0,105.0
7987,36.0,0,240,10.0,105.0
7988,84.0,240,240,5.0,105.0
7989,84.0,0,240,5.0,105.0
7990,50.0,240,240,8.0,105.0
7991,72.0,0,0,6.0,105.0
7992,38.0,0,240,10.0,105.0
7993,65.0,0,240,7.0,105.0
7994,40.0,0,240,10.0,105.0
7995,52.0,240,240,8.0,105.0
7996,84.0,0,0,5.0,105.0
7997,67.0,0,240,7.0,105.0
7998,53.0,240,240,8.0,105.0
7999,72.0,0,240,6.0,105.0
8000,41.0,0,240,10.0,105.0
8001,69.0,0,240,7.0,105.0
8002,83.0,0,60,5.0,105.0
8003,71.0,0,60,6.0,105.0
8004,84.0,60,60,5.0,105.0
8005,72.0,0,60,6.0,105.0
8006,43.0,0,240,10.0,105.0
8007,55.0,0,240,8.0,105.0
8008,62.0,0,240,7.0,105.0
8009,67.0,230,480,0.0,105.0
8010,86.0,60,360,5.0,105.0
8011,55.0,10,480,2.0,84.0
8012,57.0,0,240,8.0,105.0
8013,45.0,0,240,10.0,105.0
8014,60.0,120,240,7.0,105.0
8015,74.0,0,360,6.0,105.0
8016,47.0,0,240,10.0,105.0
8017,62.0,0,240,7.0,105.0
8018,59.0,240,240,8.0,105.0
8019,60.0,0,240,7.0,105.0
8020,65.0,0,0,6.0,105.0
8021,57.0,0,240,8.0,105.0
8022,45.0,0,240,10.0,105.0
8023,77.0,240,240,5.0,105.0
8024,77.0,0,240,5.0,105.0
8025,43.0,0,240,10.0,105.0
8026,55.0,0,240,8.0,105.0
8027,59.0,240,240,7.0,105.0
8028,77.0,0,240,5.0,105.0
8029,45.0,240,240,10.0,105.0
8030,57.0,0,240,8.0,105.0
8031,65.0,240,0,6.0,105.0
8032,60.0,0,240,7.0,105.0
8033,77.0,0,240,5.0,105.0
8034,62.0,0,240,7.0,105.0
8035,59.0,0,240,8.0,105.0
8036,47.0,0,240,10.0,105.0
8037,77.0,0,240,5.0,105.0
8038,65.0,0,240,6.0,105.0
8039,59.0,0,240,7.0,105.0
8040,43.0,0,240,10.0,105.0
8041,55.0,240,240,8.0,105.0
8042,76.0,10,60,5.0,105.0
8043,64.0,0,60,6.0,105.0
8044,77.0,0,60,5.0,105.0
8045,65.0,60,60,6.0,105.0
8046,60.0,0,240,8.0,105.0
8047,48.0,0,240,10.0,105.0
8048,64.0,120,240,8.0,105.0
8049,52.0,0,240,10.0,105.0
8050,67.0,0,480,7.0,105.0
8051,55.0,0,480,7.0,105.0
8052,67.0,0,360,6.0,105.0
8053,79.0,60,360,5.0,105.0
8054,48.0,0,240,10.0,105.0
8055,60.0,240,240,8.0,105.0
8056,55.0,240,240,8.0,105.0
8057,72.0,0,240,6.0,105.0
8058,84.0,0,0,5.0,105.0
8059,43.0,0,240,10.0,105.0
8060,52.0,240,240,8.0,105.0
8061,72.0,0,240,6.0,105.0
8062,40.0,0,240,10.0,105.0
8063,84.0,0,0,5.0,105.0
8064,43.0,0,240,10.0,105.0
8065,72.0,240,0,6.0,105.0
8066,55.0,240,240,8.0,105.0
8067,67.0,0,960,7.0,105.0
8068,55.0,0,960,7.0,105.0
8069,84.0,0,0,5.0,105.0
8070,52.0,0,240,8.0,105.0
8071,72.0,240,0,6.0,105.0
8072,40.0,0,240,10.0,105.0
8073,76.0,0,1920,1.0,105.0
8074,60.0,0,1920,2.0,105.0
8075,84.0,0,240,5.0,105.0
8076,64.0,0,1920,2.0,105.0
8077,48.0,0,240,8.0,105.0
8078,36.0,0,240,10.0,105.0
8079,71.0,0,60,6.0,105.0
8080,83.0,10,60,5.0,105.0
8081,72.0,60,60,6.0,105.0
8082,84.0,0,60,5.0,105.0
8083,43.0,0,240,8.0,105.0
8084,31.0,0,240,10.0,105.0
8085,86.0,60,360,5.0,105.0
8086,35.0,0,240,10.0,105.0
8087,55.0,0,0,7.0,105.0
8088,67.0,240,0,7.0,105.0
8089,74.0,0,360,6.0,105.0
8090,47.0,120,240,8.0,105.0
8091,38.0,0,240,10.0,105.0
8092,50.0,0,240,8.0,105.0
8093,65.0,0,240,6.0,105.0
8094,43.0,0,240,10.0,105.0
8095,55.0,0,240,8.0,105.0
8096,77.0,240,240,5.0,105.0
8097,59.0,0,240,8.0,105.0
8098,47.0,0,240,10.0,105.0
8099,77.0,0,240,5.0,105.0
8100,65.0,240,240,6.0,105.0
8101,50.0,240,240,10.0,105.0
8102,65.0,0,240,6.0,105.0
8103,62.0,0,240,8.0,105.0
8104,77.0,0,0,5.0,105.0
8105,55.0,0,0,7.0,105.0
8106,65.0,0,0,6.0,105.0
8107,77.0,240,0,5.0,105.0
8108,59.0,0,240,8.0,105.0
8109,47.0,240,240,10.0,105.0
8110,79.0,230,0,0.0,105.0
8111,77.0,230,1920,1.0,105.0
8112,62.0,0,1920,2.0,105.0
8113,55.0,0,1920,2.0,105.0
8114,43.0,0,240,10.0,105.0
8115,67.0,0,480,7.0,105.0
8116,55.0,0,240,8.0,105.0
8117,60.0,0,480,8.0,105.0
8118,48.0,0,480,10.0,105.0
8119,55.0,0,480,7.0,105.0
8120,67.0,0,0,7.0,105.0
8121,76.0,0,480,5.0,105.0
8122,60.0,480,0,2.0,105.0
8123,64.0,0,0,6.0,105.0
8124,67.0,240,0,7.0,105.0
8125,79.0,0,480,6.0,105.0
8126,72.0,0,480,6.0,105.0
8127,48.0,0,120,10.0,105.0
8128,76.0,0,0,5.0,105.0
8129,84.0,10,0,5.0,105.0
8130,60.0,120,120,8.0,105.0
8131,64.0,0,480,2.0,105.0
8132,69.0,240,0,7.0,105.0
8133,57.0,0,480,8.0,105.0
8134,45.0,0,480,10.0,105.0
8135,64.0,240,0,7.0,105.0
8136,76.0,0,1920,1.0,105.0
8137,60.0,0,480,2.0,105.0
8138,64.0,240,480,2.0,105.0
8139,64.0,0,480,6.0,105.0
8140,72.0,0,480,6.0,105.0
8141,57.0,0,120,8.0,105.0
8142,76.0,120,120,5.0,105.0
8143,45.0,0,120,10.0,105.0
8144,81.0,0,480,6.0,105.0
8145,84.0,0,0,5.0,105.0
8146,65.0,240,0,7.0,105.0
8147,41.0,0,480,10.0,105.0
8148,53.0,10,480,8.0,105.0
8149,74.0,0,480,5.0,105.0
8150,65.0,240,0,7.0,105.0
8151,84.0,110,1920,0.0,105.0
8152,74.0,0,120,5.0,105.0
8153,84.0,120,120,5.0,105.0
8154,62.0,0,480,6.0,105.0
8155,53.0,0,120,8.0,105.0
8156,72.0,0,480,6.0,105.0
8157,81.0,240,480,6.0,105.0
8158,60.0,0,480,2.0,105.0
8159,62.0,0,480,2.0,105.0
8160,41.0,0,120,10.0,105.0
8161,67.0,0,240,7.0,105.0
8162,55.0,10,480,8.0,105.0
8163,43.0,0,480,10.0,105.0
8164,74.0,0,480,5.0,105.0
8165,67.0,240,240,7.0,105.0
8166,83.0,0,480,5.0,105.0
8167,67.0,240,0,7.0,105.0
8168,83.0,110,960,0.0,105.0
8169,74.0,110,1920,1.0,105.0
8170,71.0,0,480,6.0,105.0
8171,74.0,0,120,5.0,105.0
8172,83.0,0,120,5.0,105.0
8173,79.0,240,480,6.0,105.0
8174,43.0,0,120,10.0,105.0
8175,55.0,120,120,8.0,105.0
8176,62.0,0,480,2.0,105.0
8177,55.0,0,480,2.0,105.0
8178,62.0,0,480,6.0,105.0
8179,64.0,0,480,6.0,105.0
8180,72.0,0,480,6.0,105.0
8181,72.0,110,960,1.0,105.0
8182,84.0,0,960,0.0,105.0
8183,76.0,0,960,5.0,105.0
8184,36.0,0,960,10.0,105.0
8185,48.0,0,960,8.0,105.0
8186,48.0,0,960,2.0,105.0
8187,84.0,0,960,5.0,105.0
8188,79.0,0,960,6.0,105.0
8189,60.0,0,960,2.0,105.0
8190,67.0,10,960,7.0,105.0
8191,60.0,960,240,4.0,80.0
8192,64.0,240,240,4.0,80.0
8193,76.0,0,0,4.0,90.0
8194,67.0,240,240,4.0,80.0
8195,64.0,240,240,4.0,80.0
8196,60.0,0,240,4.0,80.0
8197,55.0,240,240,4.0,80.0
8198,60.0,240,240,4.0,80.0
8199,72.0,240,900,3.0,90.0
8200,76.0,0,960,4.0,90.0
8201,55.0,240,240,4.0,80.0
8202,62.0,0,240,4.0,80.0
8203,79.0,240,240,4.0,90.0
8204,55.0,0,240,4.0,80.0
8205,77.0,240,240,4.0,90.0
8206,62.0,0,240,4.0,80.0
8207,76.0,240,240,4.0,90.0
8208,71.0,0,840,3.0,90.0
8209,77.0,240,240,4.0,90.0
8210,55.0,0,240,4.0,80.0
8211,64.0,0,240,4.0,80.0
8212,79.0,0,240,4.0,90.0
8213,72.0,240,408,3.0,90.0
8214,60.0,0,240,4.0,80.0
8215,76.0,240,240,4.0,90.0
8216,67.0,0,192,3.0,90.0
8217,64.0,0,240,4.0,80.0
8218,64.0,240,204,3.0,90.0
8219,72.0,240,480,4.0,90.0
8220,67.0,0,240,4.0,80.0
8221,64.0,0,240,4.0,80.0
8222,60.0,240,240,4.0,80.0
8223,60.0,0,480,3.0,90.0
8224,64.0,240,240,4.0,80.0
8225,84.0,240,720,4.0,90.0
8226,60.0,240,240,4.0,80.0
8227,83.0,240,0,4.0,90.0
8228,72.0,0,192,3.0,90.0
8229,65.0,0,240,4.0,80.0
8230,71.0,0,204,3.0,90.0
8231,81.0,240,240,4.0,90.0
8232,60.0,0,240,4.0,80.0
8233,72.0,240,204,3.0,90.0
8234,64.0,0,240,4.0,80.0
8235,71.0,240,192,3.0,90.0
8236,79.0,0,480,4.0,90.0
8237,60.0,0,240,4.0,80.0
8238,64.0,0,240,4.0,80.0
8239,60.0,240,240,4.0,80.0
8240,72.0,240,480,3.0,90.0
8241,84.0,0,720,4.0,90.0
8242,64.0,240,240,4.0,80.0
8243,83.0,0,0,4.0,90.0
8244,60.0,240,240,4.0,80.0
8245,84.0,0,216,3.0,90.0
8246,65.0,240,240,4.0,80.0
8247,83.0,240,204,3.0,90.0
8248,60.0,0,240,4.0,80.0
8249,81.0,0,240,4.0,90.0
8250,84.0,0,204,3.0,90.0
8251,64.0,240,240,4.0,80.0
8252,83.0,240,204,3.0,90.0
8253,79.0,0,480,4.0,90.0
8254,60.0,0,240,4.0,80.0
8255,64.0,0,240,4.0,80.0
8256,84.0,240,480,3.0,90.0
8257,72.0,0,0,4.0,90.0
8258,65.0,240,240,4.0,80.0
8259,67.0,240,240,4.0,80.0
8260,64.0,240,240,4.0,80.0
8261,60.0,0,240,4.0,80.0
8262,55.0,240,240,4.0,80.0
8263,60.0,240,240,4.0,80.0
8264,55.0,240,240,4.0,80.0
8265,72.0,240,960,4.0,90.0
8266,59.0,0,240,4.0,80.0
8267,76.0,240,240,4.0,90.0
8268,74.0,240,240,4.0,90.0
8269,55.0,0,240,4.0,80.0
8270,59.0,240,240,4.0,80.0
8271,72.0,0,240,4.0,90.0
8272,55.0,0,240,4.0,80.0
8273,74.0,240,240,4.0,90.0
8274,60.0,0,240,4.0,80.0
8275,76.0,0,0,4.0,90.0
8276,55.0,240,240,4.0,80.0
8277,60.0,240,240,4.0,80.0
8278,79.0,0,2844,3.0,90.0
8279,55.0,240,240,4.0,80.0
8280,79.0,0,240,4.0,90.0
8281,62.0,240,240,4.0,80.0
8282,55.0,0,240,4.0,80.0
8283,77.0,240,240,4.0,90.0
8284,62.0,0,240,4.0,80.0
8285,76.0,240,240,4.0,90.0
8286,71.0,0,924,3.0,90.0
8287,55.0,0,240,4.0,80.0
8288,77.0,240,240,4.0,90.0
8289,64.0,0,240,4.0,80.0
8290,72.0,240,432,3.0,90.0
8291,60.0,240,240,4.0,80.0
8292,79.0,0,480,4.0,90.0
8293,55.0,0,240,4.0,80.0
8294,76.0,240,420,3.0,90.0
8295,79.0,0,480,4.0,90.0
8296,52.0,240,240,4.0,80.0
8297,77.0,240,228,3.0,90.0
8298,81.0,0,240,4.0,90.0
8299,76.0,240,228,3.0,90.0
8300,48.0,0,480,4.0,80.0
8301,79.0,0,240,4.0,90.0
8302,74.0,0,192,3.0,90.0
8303,77.0,0,240,4.0,90.0
8304,72.0,0,192,3.0,90.0
8305,60.0,240,480,4.0,80.0
8306,76.0,240,240,4.0,90.0
8307,55.0,0,480,4.0,80.0
8308,76.0,0,480,4.0,90.0
8309,72.0,240,540,3.0,90.0
8310,67.0,0,240,4.0,80.0
8311,71.0,0,384,3.0,90.0
8312,74.0,480,480,4.0,90.0
8313,66.0,240,240,4.0,80.0
8314,67.0,0,240,4.0,80.0
8315,76.0,240,420,3.0,90.0
8316,60.0,240,0,2.0,78.0
8317,64.0,0,480,2.0,78.0
8318,65.0,240,240,4.0,80.0
8319,64.0,0,240,4.0,80.0
8320,76.0,0,396,3.0,90.0
8321,64.0,0,480,2.0,78.0
8322,62.0,240,240,4.0,80.0
8323,72.0,0,240,4.0,90.0
8324,60.0,0,480,4.0,80.0
8325,67.0,240,240,4.0,90.0
8326,64.0,240,240,4.0,90.0
8327,76.0,240,924,3.0,90.0
8328,72.0,240,240,4.0,90.0
8329,64.0,0,960,2.0,78.0
8330,60.0,0,960,2.0,78.0
8331,79.0,0,216,3.0,90.0
8332,71.0,240,240,4.0,90.0
8333,67.0,0,240,2.0,78.0
8334,77.0,0,216,3.0,90.0
8335,62.0,0,240,2.0,78.0
8336,65.0,240,240,2.0,78.0
8337,67.0,0,240,4.0,90.0
8338,55.0,0,480,4.0,80.0
8339,76.0,0,216,3.0,90.0
8340,60.0,0,240,2.0,78.0
8341,62.0,240,240,4.0,90.0
8342,64.0,0,240,2.0,78.0
8343,77.0,0,216,3.0,90.0
8344,71.0,240,240,4.0,90.0
8345,62.0,0,240,2.0,78.0
8346,65.0,0,240,2.0,78.0
8347,79.0,0,216,3.0,90.0
8348,72.0,0,240,4.0,90.0
8349,60.0,0,240,5.0,70.0
8350,76.0,240,216,3.0,90.0
8351,59.0,0,240,5.0,70.0
8352,48.0,240,480,4.0,80.0
8353,67.0,0,480,2.0,78.0
8354,64.0,0,480,2.0,78.0
8355,67.0,0,240,4.0,90.0
8356,64.0,0,240,4.0,90.0
8357,60.0,240,240,5.0,70.0
8358,59.0,0,240,5.0,70.0
8359,67.0,240,240,4.0,90.0
8360,72.0,0,480,3.0,90.0
8361,60.0,0,240,5.0,70.0
8362,64.0,240,240,4.0,80.0
8363,72.0,0,480,4.0,90.0
8364,60.0,240,240,4.0,80.0
8365,59.0,0,240,5.0,70.0
8366,84.0,0,636,3.0,90.0
8367,60.0,240,240,5.0,70.0
8368,64.0,0,240,4.0,80.0
8369,83.0,0,216,3.0,90.0
8370,60.0,0,240,4.0,80.0
8371,59.0,240,240,5.0,70.0
8372,83.0,0,216,3.0,90.0
8373,65.0,0,240,4.0,80.0
8374,60.0,0,240,5.0,70.0
8375,72.0,240,240,4.0,90.0
8376,81.0,0,216,3.0,90.0
8377,59.0,0,240,5.0,70.0
8378,60.0,0,240,4.0,80.0
8379,71.0,240,240,4.0,90.0
8380,72.0,0,240,4.0,90.0
8381,64.0,0,240,4.0,80.0
8382,60.0,0,240,5.0,70.0
8383,79.0,240,444,3.0,90.0
8384,59.0,0,240,5.0,70.0
8385,60.0,240,240,4.0,80.0
8386,71.0,0,240,4.0,90.0
8387,60.0,240,240,5.0,70.0
8388,64.0,0,240,4.0,80.0
8389,59.0,0,240,5.0,70.0
8390,72.0,0,480,4.0,90.0
8391,60.0,240,240,4.0,80.0
8392,84.0,0,648,3.0,90.0
8393,60.0,240,240,5.0,70.0
8394,64.0,0,240,4.0,80.0
8395,83.0,0,216,3.0,90.0
8396,60.0,0,240,4.0,80.0
8397,59.0,240,240,5.0,70.0
8398,83.0,0,216,3.0,90.0
8399,60.0,0,240,5.0,70.0
8400,65.0,240,240,4.0,80.0
8401,84.0,0,240,4.0,90.0
8402,81.0,0,216,3.0,90.0
8403,60.0,0,240,4.0,80.0
8404,59.0,0,240,5.0,70.0
8405,83.0,240,240,4.0,90.0
8406,60.0,240,240,5.0,70.0
8407,84.0,0,240,4.0,90.0
8408,64.0,0,240,4.0,80.0
8409,79.0,0,444,3.0,90.0
8410,60.0,0,240,4.0,80.0
8411,59.0,240,240,5.0,70.0
8412,83.0,0,240,4.0,90.0
8413,64.0,0,240,4.0,80.0
8414,72.0,240,444,3.0,90.0
8415,52.0,240,0,2.0,81.0
8416,60.0,0,480,2.0,81.0
8417,60.0,0,480,5.0,70.0
8418,84.0,0,480,4.0,90.0
8419,60.0,240,240,4.0,80.0
8420,64.0,0,240,4.0,80.0
8421,72.0,0,432,3.0,90.0
8422,60.0,0,480,2.0,81.0
8423,60.0,0,0,4.0,90.0
8424,52.0,0,0,2.0,81.0
8425,67.0,0,240,5.0,70.0
8426,66.0,0,240,5.0,70.0
8427,48.0,0,480,4.0,80.0
8428,64.0,240,240,4.0,90.0
8429,67.0,240,240,4.0,90.0
8430,67.0,0,240,5.0,70.0
8431,72.0,240,900,3.0,90.0
8432,72.0,0,240,4.0,90.0
8433,60.0,0,960,2.0,81.0
8434,66.0,240,240,5.0,70.0
8435,76.0,12,180,3.0,90.0
8436,67.0,0,240,5.0,70.0
8437,59.0,0,240,4.0,90.0
8438,74.0,0,216,3.0,90.0
8439,66.0,228,240,5.0,70.0
8440,43.0,240,480,4.0,80.0
8441,62.0,0,240,4.0,90.0
8442,72.0,240,216,3.0,90.0
8443,67.0,0,240,5.0,70.0
8444,67.0,0,240,4.0,90.0
8445,74.0,0,216,3.0,90.0
8446,71.0,240,240,4.0,90.0
8447,66.0,0,240,5.0,70.0
8448,55.0,0,960,2.0,81.0
8449,62.0,0,960,2.0,81.0
8450,67.0,0,240,5.0,70.0
8451,60.0,0,240,4.0,90.0
8452,76.0,0,432,3.0,90.0
8453,66.0,240,240,5.0,70.0
8454,48.0,240,480,4.0,80.0
8455,64.0,0,240,4.0,90.0
8456,67.0,0,240,4.0,90.0
8457,67.0,0,240,5.0,70.0
8458,76.0,240,432,3.0,90.0
8459,64.0,0,960,2.0,81.0
8460,60.0,0,960,2.0,81.0
8461,72.0,240,240,4.0,90.0
8462,66.0,0,240,5.0,70.0
8463,79.0,0,216,3.0,90.0
8464,67.0,0,240,5.0,70.0
8465,62.0,0,240,4.0,90.0
8466,77.0,240,216,3.0,90.0
8467,66.0,0,240,5.0,70.0
8468,67.0,0,240,4.0,90.0
8469,55.0,0,480,4.0,80.0
8470,76.0,0,216,3.0,90.0
8471,67.0,0,240,5.0,70.0
8472,71.0,240,240,4.0,90.0
8473,77.0,240,216,3.0,90.0
8474,74.0,0,240,4.0,90.0
8475,62.0,0,960,2.0,81.0
8476,65.0,240,960,2.0,81.0
8477,65.0,0,240,5.0,70.0
8478,79.0,0,216,3.0,90.0
8479,64.0,0,240,5.0,70.0
8480,76.0,240,240,4.0,90.0
8481,76.0,0,216,3.0,90.0
8482,60.0,0,240,5.0,70.0
8483,52.0,0,480,4.0,80.0
8484,72.0,240,240,4.0,90.0
8485,79.0,0,216,3.0,90.0
8486,76.0,0,240,4.0,90.0
8487,64.0,240,240,5.0,70.0
8488,60.0,0,240,6.0,70.0
8489,76.0,0,216,3.0,90.0
8490,64.0,0,240,6.0,70.0
8491,67.0,0,960,2.0,81.0
8492,64.0,0,960,2.0,81.0
8493,72.0,0,240,4.0,90.0
8494,48.0,0,480,4.0,80.0
8495,67.0,240,240,5.0,70.0
8496,67.0,0,240,5.0,70.0
8497,76.0,0,240,4.0,90.0
8498,64.0,0,240,2.0,78.0
8499,67.0,0,240,2.0,78.0
8500,64.0,240,240,6.0,70.0
8501,79.0,0,300,3.0,90.0
8502,77.0,0,180,3.0,90.0
8503,65.0,0,240,2.0,78.0
8504,55.0,0,480,4.0,80.0
8505,74.0,240,240,4.0,90.0
8506,62.0,0,240,6.0,70.0
8507,65.0,0,240,5.0,70.0
8508,62.0,0,240,2.0,78.0
8509,60.0,240,96,6.0,70.0
8510,64.0,0,96,5.0,70.0
8511,76.0,0,108,3.0,100.0
8512,64.0,0,240,2.0,78.0
8513,72.0,0,240,4.0,90.0
8514,60.0,0,240,2.0,78.0
8515,74.0,0,84,3.0,100.0
8516,59.0,0,96,6.0,70.0
8517,62.0,0,96,5.0,70.0
8518,43.0,0,480,4.0,80.0
8519,71.0,240,240,4.0,90.0
8520,62.0,0,240,2.0,78.0
8521,55.0,0,240,2.0,78.0
8522,72.0,10,480,4.0,90.0
8523,72.0,0,480,3.0,100.0
8524,48.0,0,480,4.0,80.0
8525,60.0,0,480,5.0,70.0
8526,72.0,0,1920,0.0,70.0
8527,67.0,230,1920,1.0,70.0
8528,60.0,0,1920,2.0,94.0
8529,52.0,0,1920,2.0,94.0
8530,71.0,1910,1920,1.0,70.0
8531,74.0,0,1920,0.0,70.0
8532,62.0,0,1920,2.0,102.0
8533,55.0,10,1920,2.0,102.0
8534,81.0,0,150,3.0,90.0
8535,76.0,0,240,0.0,70.0
8536,60.0,0,240,4.0,80.0
8537,64.0,10,240,4.0,90.0
8538,79.0,120,150,3.0,87.0
8539,81.0,0,150,3.0,90.0
8540,72.0,1910,480,1.0,70.0
8541,79.0,110,240,0.0,70.0
8542,60.0,10,0,4.0,80.0
8543,55.0,10,240,4.0,80.0
8544,79.0,120,150,3.0,93.0
8545,76.0,0,96,0.0,70.0
8546,81.0,0,101,3.0,95.0
8547,79.0,60,101,3.0,98.0
8548,81.0,60,101,3.0,101.0
8549,64.0,0,720,2.0,102.0
8550,60.0,0,720,2.0,102.0
8551,64.0,0,240,4.0,90.0
8552,79.0,60,101,3.0,101.0
8553,74.0,50,96,0.0,70.0
8554,81.0,0,101,3.0,101.0
8555,79.0,60,101,3.0,101.0
8556,81.0,60,101,3.0,103.0
8557,62.0,10,240,2.0,79.0
8558,65.0,0,240,4.0,90.0
8559,62.0,0,240,4.0,80.0
8560,79.0,60,101,3.0,103.0
8561,81.0,0,101,3.0,103.0
8562,79.0,60,101,3.0,103.0
8563,81.0,60,101,3.0,103.0
8564,67.0,0,240,4.0,90.0
8565,64.0,60,0,4.0,90.0
8566,79.0,60,101,3.0,102.0
8567,81.0,0,101,3.0,97.0
8568,79.0,60,101,3.0,94.0
8569,81.0,60,101,3.0,91.0
8570,72.0,50,480,0.0,70.0
8571,67.0,110,960,1.0,70.0
8572,60.0,0,240,4.0,80.0
8573,60.0,0,480,2.0,79.0
8574,52.0,0,480,2.0,79.0
8575,79.0,60,101,3.0,89.0
8576,81.0,0,101,3.0,86.0
8577,79.0,60,101,3.0,84.0
8578,81.0,60,101,3.0,84.0
8579,65.0,0,240,4.0,90.0
8580,62.0,0,240,4.0,80.0
8581,79.0,60,101,3.0,84.0
8582,81.0,60,101,3.0,81.0
8583,79.0,60,101,3.0,81.0
8584,81.0,60,101,3.0,79.0
8585,74.0,50,480,0.0,70.0
8586,71.0,0,480,1.0,70.0
8587,62.0,10,480,2.0,79.0
8588,55.0,0,480,2.0,79.0
8589,59.0,0,240,4.0,80.0
8590,62.0,0,240,4.0,90.0
8591,79.0,60,101,3.0,79.0
8592,81.0,0,101,3.0,79.0
8593,79.0,60,101,3.0,80.0
8594,81.0,60,101,3.0,80.0
8595,76.0,0,240,0.0,70.0
8596,64.0,10,240,4.0,90.0
8597,60.0,0,0,4.0,90.0
8598,79.0,60,101,3.0,83.0
8599,81.0,10,101,3.0,83.0
8600,79.0,60,101,3.0,83.0
8601,81.0,60,101,3.0,85.0
8602,79.0,50,240,0.0,70.0
8603,72.0,50,480,1.0,70.0
8604,55.0,0,240,4.0,80.0
8605,60.0,0,0,4.0,80.0
8606,79.0,60,101,3.0,85.0
8607,76.0,0,96,0.0,70.0
8608,81.0,0,101,3.0,88.0
8609,79.0,60,101,3.0,88.0
8610,81.0,60,101,3.0,90.0
8611,60.0,0,720,2.0,79.0
8612,64.0,0,720,2.0,79.0
8613,64.0,10,240,4.0,90.0
8614,79.0,60,101,3.0,93.0
8615,74.0,50,96,0.0,70.0
8616,81.0,0,101,3.0,96.0
8617,79.0,60,101,3.0,96.0
8618,81.0,60,101,3.0,96.0
8619,62.0,0,240,4.0,80.0
8620,65.0,0,240,4.0,90.0
8621,62.0,10,240,2.0,79.0
8622,79.0,60,101,3.0,96.0
8623,81.0,10,101,3.0,96.0
8624,79.0,60,101,3.0,96.0
8625,81.0,60,101,3.0,96.0
8626,64.0,0,240,4.0,80.0
8627,67.0,0,240,4.0,90.0
8628,79.0,60,101,3.0,94.0
8629,81.0,0,101,3.0,94.0
8630,79.0,60,101,3.0,91.0
8631,81.0,60,101,3.0,89.0
8632,72.0,50,480,0.0,70.0
8633,67.0,50,960,1.0,70.0
8634,60.0,60,240,4.0,80.0
8635,64.0,0,240,4.0,90.0
8636,52.0,0,480,2.0,79.0
8637,60.0,0,480,2.0,79.0
8638,79.0,60,101,3.0,86.0
8639,81.0,0,101,3.0,86.0
8640,79.0,60,101,3.0,86.0
8641,81.0,60,101,3.0,86.0
8642,62.0,0,240,4.0,80.0
8643,65.0,0,240,4.0,90.0
8644,79.0,60,101,3.0,86.0
8645,81.0,60,101,3.0,86.0
8646,79.0,60,101,3.0,86.0
8647,81.0,60,101,3.0,86.0
8648,74.0,0,480,0.0,70.0
8649,71.0,50,480,1.0,70.0
8650,55.0,0,480,2.0,79.0
8651,62.0,0,240,4.0,90.0
8652,59.0,0,240,4.0,80.0
8653,62.0,10,480,2.0,79.0
8654,79.0,60,101,3.0,88.0
8655,81.0,0,101,3.0,88.0
8656,79.0,60,101,3.0,90.0
8657,81.0,60,101,3.0,93.0
8658,76.0,50,240,0.0,70.0
8659,60.0,10,240,4.0,80.0
8660,64.0,0,240,4.0,90.0
8661,79.0,60,101,3.0,93.0
8662,81.0,10,101,3.0,96.0
8663,79.0,60,101,3.0,96.0
8664,81.0,60,101,3.0,96.0
8665,72.0,0,480,1.0,70.0
8666,79.0,50,240,0.0,70.0
8667,55.0,0,240,4.0,80.0
8668,60.0,0,240,4.0,90.0
8669,79.0,60,101,3.0,98.0
8670,76.0,0,96,0.0,70.0
8671,81.0,10,101,3.0,98.0
8672,79.0,60,101,3.0,98.0
8673,81.0,60,101,3.0,101.0
8674,64.0,0,720,2.0,79.0
8675,64.0,0,240,4.0,90.0
8676,60.0,0,240,4.0,80.0
8677,60.0,0,720,2.0,79.0
8678,79.0,60,101,3.0,103.0
8679,74.0,50,96,0.0,70.0
8680,81.0,0,101,3.0,103.0
8681,79.0,60,101,3.0,103.0
8682,81.0,60,101,3.0,103.0
8683,62.0,10,240,4.0,80.0
8684,62.0,0,240,2.0,79.0
8685,65.0,0,240,4.0,90.0
8686,79.0,60,101,3.0,103.0
8687,81.0,0,101,3.0,103.0
8688,79.0,60,101,3.0,103.0
8689,81.0,60,101,3.0,102.0
8690,67.0,0,240,4.0,90.0
8691,64.0,10,240,4.0,80.0
8692,79.0,60,101,3.0,102.0
8693,81.0,0,101,3.0,99.0
8694,79.0,60,101,3.0,99.0
8695,81.0,60,101,3.0,99.0
8696,67.0,50,960,1.0,70.0
8697,72.0,50,480,0.0,70.0
8698,60.0,0,480,2.0,79.0
8699,52.0,0,480,2.0,79.0
8700,60.0,60,240,4.0,80.0
8701,64.0,0,240,4.0,90.0
8702,79.0,60,101,3.0,99.0
8703,81.0,0,101,3.0,99.0
8704,79.0,60,101,3.0,99.0
8705,81.0,60,101,3.0,99.0
8706,76.0,50,240,0.0,70.0
8707,65.0,10,240,4.0,90.0
8708,62.0,0,240,4.0,80.0
8709,79.0,60,101,3.0,103.0
8710,78.0,0,144,3.0,103.0
8711,79.0,120,84,3.0,106.0
8712,74.0,0,240,0.0,70.0
8713,71.0,50,240,1.0,70.0
8714,62.0,0,480,2.0,79.0
8715,55.0,0,480,2.0,79.0
8716,62.0,0,240,4.0,90.0
8717,59.0,10,240,4.0,80.0
8718,60.0,0,240,4.0,80.0
8719,64.0,0,240,4.0,90.0
8720,72.0,110,480,0.0,70.0
8721,52.0,10,480,2.0,79.0
8722,55.0,240,240,4.0,80.0
8723,60.0,0,480,2.0,79.0
8724,60.0,0,0,4.0,80.0
8725,79.0,0,624,3.0,108.0
8726,64.0,0,0,4.0,80.0
8727,67.0,0,240,4.0,90.0
8728,76.0,240,336,3.0,110.0
8729,84.0,0,480,3.0,117.0
8730,60.0,0,480,4.0,80.0
8731,64.0,240,480,4.0,90.0
8732,74.0,470,480,0.0,105.0
8733,71.0,0,480,1.0,105.0
8734,74.0,0,480,5.0,105.0
8735,83.0,0,480,5.0,105.0
8736,43.0,10,480,10.0,105.0
8737,55.0,0,480,8.0,105.0
8738,67.0,0,480,7.0,105.0
8739,72.0,0,960,1.0,105.0
8740,76.0,470,960,0.0,105.0
8741,67.0,0,960,7.0,105.0
8742,55.0,0,960,7.0,105.0
8743,76.0,10,960,5.0,105.0
8744,84.0,0,960,5.0,105.0
8745,48.0,0,480,2.0,105.0
8746,60.0,0,960,8.0,105.0
8747,60.0,0,480,2.0,105.0
8748,64.0,0,480,6.0,105.0
8749,55.0,480,480,6.0,105.0
8750,48.0,0,960,10.0,105.0
8751,72.0,0,0,6.0,105.0
8752,67.0,0,480,6.0,105.0
8753,76.0,480,480,6.0,105.0
8754,52.0,0,480,2.0,105.0
8755,64.0,0,480,2.0,105.0
8756,74.0,0,480,0.0,105.0
8757,71.0,470,480,1.0,105.0
8758,43.0,0,480,10.0,105.0
8759,55.0,0,480,8.0,105.0
8760,71.0,0,480,6.0,105.0
8761,74.0,0,480,5.0,105.0
8762,83.0,0,480,5.0,105.0
8763,79.0,0,480,6.0,105.0
8764,62.0,0,480,6.0,105.0
8765,67.0,0,480,2.0,105.0
8766,67.0,0,0,7.0,105.0
8767,55.0,0,480,2.0,105.0
8768,76.0,470,960,0.0,105.0
8769,72.0,0,960,1.0,105.0
8770,55.0,0,480,6.0,105.0
8771,60.0,10,960,8.0,105.0
8772,55.0,0,960,7.0,105.0
8773,76.0,0,960,5.0,105.0
8774,64.0,0,480,6.0,105.0
8775,72.0,0,0,6.0,105.0
8776,48.0,480,480,2.0,105.0
8777,60.0,0,480,2.0,105.0
8778,84.0,0,960,5.0,105.0
8779,48.0,0,960,10.0,105.0
8780,67.0,480,480,6.0,105.0
8781,76.0,0,480,6.0,105.0
8782,64.0,0,480,2.0,105.0
8783,52.0,0,480,2.0,105.0
8784,74.0,0,480,0.0,105.0
8785,71.0,470,480,1.0,105.0
8786,67.0,0,480,2.0,105.0
8787,67.0,10,480,7.0,105.0
8788,71.0,0,480,6.0,105.0
8789,62.0,0,480,6.0,105.0
8790,55.0,0,480,2.0,105.0
8791,79.0,0,480,6.0,105.0
8792,43.0,0,480,10.0,105.0
8793,74.0,0,480,5.0,105.0
8794,83.0,0,480,5.0,105.0
8795,55.0,0,480,8.0,105.0
8796,72.0,0,960,1.0,105.0
8797,76.0,470,960,0.0,105.0
8798,76.0,0,0,5.0,105.0
8799,84.0,0,960,5.0,105.0
8800,60.0,0,0,2.0,105.0
8801,64.0,10,0,2.0,105.0
8802,48.0,0,0,10.0,105.0
8803,60.0,0,0,8.0,105.0
8804,67.0,0,0,6.0,105.0
8805,72.0,0,0,6.0,105.0
8806,67.0,0,960,7.0,105.0
8807,55.0,0,960,7.0,105.0
8808,76.0,950,0,1.0,105.0
8809,79.0,0,960,0.0,105.0
8810,64.0,0,960,7.0,105.0
8811,84.0,0,0,5.0,105.0
8812,72.0,0,0,6.0,105.0
8813,64.0,0,0,2.0,105.0
8814,55.0,0,960,7.0,105.0
8815,84.0,0,960,0.0,105.0
8816,60.0,0,960,2.0,105.0
8817,76.0,10,960,5.0,105.0
8818,48.0,0,960,8.0,105.0
8819,36.0,0,960,10.0,105.0
8820,55.0,0,960,7.0,105.0
8821,64.0,0,960,7.0,105.0
8822,67.0,0,960,6.0,105.0
