,note,step,duration,channel,velocity
0,60.0,0,48,0.0,72.0
1,64.0,48,48,0.0,72.0
2,67.0,48,48,0.0,72.0
3,48.0,0,604,1.0,72.0
4,36.0,0,604,1.0,72.0
5,72.0,48,604,0.0,72.0
6,43.0,0,764,1.0,72.0
7,31.0,624,764,1.0,72.0
8,67.0,0,764,0.0,72.0
9,52.0,768,572,1.0,72.0
10,76.0,0,576,0.0,72.0
11,77.0,0,92,0.0,72.0
12,53.0,576,92,1.0,72.0
13,74.0,96,92,0.0,72.0
14,50.0,0,92,1.0,72.0
15,72.0,96,380,0.0,72.0
16,48.0,0,380,1.0,72.0
17,64.0,0,144,0.0,51.0
18,67.0,192,144,0.0,51.0
19,79.0,768,380,0.0,51.0
20,64.0,0,144,0.0,51.0
21,67.0,192,144,0.0,51.0
22,79.0,192,380,0.0,51.0
23,61.0,192,144,0.0,51.0
24,67.0,192,144,0.0,51.0
25,61.0,0,144,0.0,51.0
26,67.0,192,144,0.0,51.0
27,81.0,192,380,0.0,51.0
28,79.0,192,48,0.0,51.0
29,62.0,0,144,0.0,51.0
30,67.0,144,144,0.0,51.0
31,77.0,48,332,0.0,51.0
32,62.0,0,144,0.0,51.0
33,67.0,192,144,0.0,51.0
34,77.0,192,380,0.0,51.0
35,59.0,192,144,0.0,51.0
36,67.0,192,144,0.0,51.0
37,59.0,0,144,0.0,51.0
38,67.0,192,144,0.0,51.0
39,79.0,192,380,0.0,51.0
40,77.0,192,48,0.0,51.0
41,60.0,0,144,0.0,51.0
42,67.0,144,144,0.0,51.0
43,76.0,48,332,0.0,51.0
44,60.0,0,144,0.0,51.0
45,67.0,192,144,0.0,51.0
46,76.0,192,380,0.0,51.0
47,64.0,192,144,0.0,51.0
48,67.0,192,144,0.0,51.0
49,64.0,192,144,0.0,51.0
50,79.0,0,192,0.0,51.0
51,67.0,0,144,0.0,51.0
52,76.0,192,192,0.0,51.0
53,73.0,192,144,0.0,51.0
54,74.0,192,144,0.0,51.0
55,77.0,192,144,0.0,51.0
56,76.0,192,144,0.0,51.0
57,73.0,192,144,0.0,51.0
58,74.0,192,144,0.0,51.0
59,77.0,192,144,0.0,51.0
60,76.0,192,144,0.0,51.0
61,69.0,0,1532,0.0,51.0
62,65.0,0,1532,0.0,51.0
63,73.0,192,144,0.0,51.0
64,74.0,192,144,0.0,51.0
65,77.0,0,144,0.0,51.0
66,81.0,192,144,0.0,51.0
67,62.0,192,380,1.0,51.0
68,57.0,0,380,1.0,51.0
69,53.0,0,380,1.0,51.0
70,79.0,0,144,0.0,51.0
71,76.0,192,144,0.0,51.0
72,55.0,192,380,1.0,51.0
73,60.0,0,380,1.0,51.0
74,64.0,0,380,1.0,51.0
75,77.0,192,144,0.0,51.0
76,74.0,192,144,0.0,51.0
77,55.0,0,380,1.0,51.0
78,59.0,0,380,1.0,51.0
79,62.0,0,380,1.0,51.0
80,60.0,192,48,0.0,72.0
81,64.0,48,48,0.0,72.0
82,67.0,48,48,0.0,72.0
83,72.0,0,604,0.0,72.0
84,48.0,0,604,1.0,72.0
85,36.0,48,604,1.0,72.0
86,31.0,624,764,1.0,72.0
87,43.0,0,764,1.0,72.0
88,67.0,0,764,0.0,72.0
89,76.0,768,572,0.0,72.0
90,52.0,0,572,1.0,72.0
91,53.0,0,92,1.0,72.0
92,77.0,576,92,0.0,72.0
93,50.0,0,92,1.0,72.0
94,74.0,96,92,0.0,72.0
95,48.0,80,380,1.0,72.0
96,72.0,16,380,0.0,72.0
97,64.0,0,144,0.0,51.0
98,67.0,192,144,0.0,51.0
99,79.0,768,380,0.0,51.0
100,64.0,0,144,0.0,51.0
101,67.0,192,144,0.0,51.0
102,79.0,192,380,0.0,51.0
103,61.0,192,144,0.0,51.0
104,67.0,192,144,0.0,51.0
105,61.0,192,144,0.0,51.0
106,67.0,192,144,0.0,51.0
107,81.0,0,380,0.0,51.0
108,79.0,192,48,0.0,51.0
109,62.0,0,144,0.0,51.0
110,67.0,144,144,0.0,51.0
111,77.0,48,332,0.0,51.0
112,62.0,0,144,0.0,51.0
113,67.0,192,144,0.0,51.0
114,77.0,192,380,0.0,51.0
115,59.0,192,144,0.0,51.0
116,67.0,192,144,0.0,51.0
117,78.0,0,144,0.0,51.0
118,59.0,192,144,0.0,51.0
119,81.0,0,144,0.0,51.0
120,79.0,0,144,0.0,51.0
121,67.0,192,144,0.0,51.0
122,77.0,192,44,0.0,51.0
123,60.0,48,144,0.0,51.0
124,67.0,144,144,0.0,51.0
125,76.0,0,332,0.0,51.0
126,60.0,0,144,0.0,51.0
127,67.0,192,144,0.0,51.0
128,76.0,192,380,0.0,51.0
129,64.0,192,144,0.0,51.0
130,76.0,192,144,0.0,51.0
131,67.0,0,144,0.0,51.0
132,64.0,0,144,0.0,51.0
133,79.0,192,144,0.0,51.0
134,67.0,0,144,0.0,51.0
135,76.0,192,144,0.0,51.0
136,67.0,0,528,0.0,51.0
137,70.0,0,528,0.0,51.0
138,73.0,192,572,0.0,72.0
139,74.0,576,92,0.0,51.0
140,76.0,96,92,0.0,51.0
141,74.0,0,380,0.0,51.0
142,65.0,96,380,0.0,51.0
143,69.0,0,380,0.0,51.0
144,77.0,576,144,0.0,51.0
145,71.0,192,528,0.0,51.0
146,67.0,0,528,0.0,51.0
147,76.0,0,572,0.0,72.0
148,77.0,576,92,0.0,51.0
149,79.0,96,92,0.0,51.0
150,72.0,0,380,0.0,51.0
151,69.0,0,380,0.0,51.0
152,77.0,96,380,0.0,51.0
153,57.0,0,144,1.0,72.0
154,84.0,768,144,0.0,72.0
155,72.0,0,144,0.0,72.0
156,60.0,192,144,1.0,72.0
157,84.0,0,144,0.0,72.0
158,72.0,0,144,0.0,72.0
159,57.0,0,144,1.0,72.0
160,60.0,192,144,1.0,72.0
161,53.0,192,144,1.0,51.0
162,60.0,192,144,1.0,51.0
163,72.0,0,764,0.0,72.0
164,84.0,192,764,0.0,72.0
165,53.0,192,144,1.0,51.0
166,83.0,0,188,0.0,51.0
167,60.0,192,144,1.0,51.0
168,81.0,0,188,0.0,51.0
169,52.0,0,144,1.0,72.0
170,79.0,0,144,0.0,72.0
171,72.0,192,144,0.0,72.0
172,60.0,0,144,1.0,72.0
173,79.0,0,144,0.0,72.0
174,72.0,192,144,0.0,72.0
175,52.0,192,144,1.0,72.0
176,60.0,192,144,1.0,72.0
177,48.0,192,144,1.0,51.0
178,72.0,0,528,0.0,72.0
179,79.0,0,528,0.0,72.0
180,60.0,192,144,1.0,51.0
181,77.0,0,144,0.0,51.0
182,48.0,192,144,1.0,51.0
183,60.0,0,144,1.0,51.0
184,76.0,192,144,0.0,51.0
185,76.0,192,92,0.0,51.0
186,53.0,0,144,1.0,51.0
187,74.0,96,92,0.0,51.0
188,77.0,96,92,0.0,51.0
189,57.0,0,144,1.0,51.0
190,81.0,96,92,0.0,51.0
191,79.0,96,44,0.0,51.0
192,53.0,0,144,1.0,51.0
193,77.0,48,140,0.0,51.0
194,76.0,144,92,0.0,51.0
195,62.0,0,144,1.0,51.0
196,74.0,96,92,0.0,51.0
197,55.0,0,144,1.0,51.0
198,64.0,192,144,1.0,51.0
199,72.0,96,380,0.0,51.0
200,71.0,192,44,0.0,51.0
201,72.0,48,44,0.0,51.0
202,71.0,48,44,0.0,51.0
203,55.0,0,144,1.0,51.0
204,72.0,48,44,0.0,51.0
205,69.0,0,92,0.0,51.0
206,62.0,48,144,1.0,51.0
207,72.0,96,92,0.0,51.0
208,84.0,0,144,0.0,72.0
209,72.0,0,144,0.0,72.0
210,57.0,96,144,1.0,72.0
211,84.0,192,144,0.0,72.0
212,72.0,0,144,0.0,72.0
213,60.0,0,144,1.0,72.0
214,57.0,192,144,1.0,72.0
215,60.0,192,144,1.0,72.0
216,53.0,192,144,1.0,51.0
217,84.0,0,572,0.0,72.0
218,72.0,0,572,0.0,72.0
219,86.0,192,92,0.0,51.0
220,60.0,0,144,1.0,51.0
221,84.0,96,92,0.0,51.0
222,53.0,96,144,1.0,51.0
223,83.0,0,144,0.0,51.0
224,81.0,192,144,0.0,51.0
225,60.0,0,144,1.0,51.0
226,52.0,0,144,1.0,72.0
227,79.0,0,144,0.0,72.0
228,72.0,192,144,0.0,72.0
229,60.0,192,144,1.0,72.0
230,79.0,0,144,0.0,72.0
231,72.0,0,144,0.0,72.0
232,52.0,0,144,1.0,72.0
233,60.0,192,144,1.0,72.0
234,48.0,192,144,1.0,51.0
235,72.0,0,572,0.0,72.0
236,79.0,192,572,0.0,72.0
237,81.0,0,92,0.0,51.0
238,60.0,192,144,1.0,51.0
239,79.0,96,92,0.0,51.0
240,77.0,0,144,0.0,51.0
241,48.0,96,144,1.0,51.0
242,76.0,0,144,0.0,51.0
243,60.0,192,144,1.0,51.0
244,76.0,192,92,0.0,51.0
245,53.0,0,144,1.0,51.0
246,71.0,96,92,0.0,51.0
247,81.0,0,92,0.0,51.0
248,60.0,96,144,1.0,51.0
249,80.0,96,92,0.0,51.0
250,83.0,0,44,0.0,51.0
251,53.0,96,144,1.0,51.0
252,81.0,48,140,0.0,51.0
253,79.0,0,92,0.0,51.0
254,62.0,144,144,1.0,51.0
255,77.0,96,92,0.0,51.0
256,55.0,0,144,1.0,51.0
257,60.0,192,144,1.0,51.0
258,76.0,96,380,0.0,51.0
259,74.0,0,44,0.0,51.0
260,76.0,48,44,0.0,51.0
261,74.0,32,44,0.0,51.0
262,55.0,192,144,1.0,51.0
263,76.0,64,44,0.0,51.0
264,72.0,0,92,0.0,51.0
265,59.0,48,144,1.0,51.0
266,74.0,96,92,0.0,51.0
267,64.0,0,144,1.0,72.0
268,60.0,96,144,1.0,72.0
269,64.0,192,144,1.0,51.0
270,60.0,0,144,1.0,51.0
271,72.0,0,380,0.0,72.0
272,64.0,192,144,1.0,51.0
273,60.0,0,144,1.0,51.0
274,74.0,144,48,0.0,51.0
275,72.0,0,92,0.0,51.0
276,60.0,48,144,1.0,51.0
277,64.0,0,144,1.0,51.0
278,71.0,96,92,0.0,51.0
279,64.0,96,144,1.0,51.0
280,60.0,0,144,1.0,51.0
281,72.0,0,144,0.0,51.0
282,75.0,0,144,0.0,51.0
283,64.0,0,144,1.0,51.0
284,60.0,192,144,1.0,51.0
285,60.0,0,144,1.0,51.0
286,76.0,192,144,0.0,51.0
287,64.0,0,144,1.0,51.0
288,60.0,0,144,1.0,51.0
289,64.0,0,144,1.0,51.0
290,78.0,192,144,0.0,51.0
291,79.0,0,144,0.0,51.0
292,60.0,192,144,1.0,51.0
293,64.0,0,144,1.0,51.0
294,64.0,192,144,1.0,51.0
295,60.0,0,144,1.0,51.0
296,83.0,0,144,0.0,51.0
297,64.0,192,144,1.0,51.0
298,84.0,0,144,0.0,51.0
299,60.0,0,144,1.0,51.0
300,64.0,192,144,1.0,51.0
301,60.0,0,144,1.0,51.0
302,87.0,0,144,0.0,51.0
303,64.0,192,144,1.0,51.0
304,60.0,0,144,1.0,51.0
305,64.0,192,144,1.0,51.0
306,60.0,0,144,1.0,51.0
307,88.0,0,380,0.0,51.0
308,64.0,192,144,1.0,51.0
309,60.0,0,144,1.0,51.0
310,64.0,0,144,1.0,51.0
311,60.0,192,144,1.0,51.0
312,59.0,192,144,1.0,72.0
313,62.0,0,144,1.0,72.0
314,59.0,156,144,1.0,51.0
315,62.0,0,144,1.0,51.0
316,74.0,0,380,0.0,72.0
317,79.0,16,380,0.0,72.0
318,86.0,20,380,0.0,72.0
319,59.0,192,144,1.0,51.0
320,62.0,0,144,1.0,51.0
321,72.0,144,48,0.0,51.0
322,71.0,48,92,0.0,51.0
323,59.0,0,144,1.0,51.0
324,62.0,0,144,1.0,51.0
325,69.0,96,92,0.0,51.0
326,59.0,96,144,1.0,51.0
327,62.0,0,144,1.0,51.0
328,71.0,0,144,0.0,51.0
329,73.0,192,144,0.0,51.0
330,62.0,0,144,1.0,51.0
331,59.0,0,144,1.0,51.0
332,59.0,0,144,1.0,51.0
333,74.0,192,144,0.0,51.0
334,62.0,0,144,1.0,51.0
335,62.0,192,144,1.0,51.0
336,78.0,0,144,0.0,51.0
337,59.0,0,144,1.0,51.0
338,59.0,192,144,1.0,51.0
339,62.0,0,144,1.0,51.0
340,79.0,0,144,0.0,51.0
341,62.0,0,144,1.0,51.0
342,82.0,192,144,0.0,51.0
343,59.0,0,144,1.0,51.0
344,83.0,0,144,0.0,51.0
345,62.0,192,144,1.0,51.0
346,59.0,0,144,1.0,51.0
347,85.0,192,144,0.0,51.0
348,62.0,0,144,1.0,51.0
349,59.0,0,144,1.0,51.0
350,59.0,0,144,1.0,51.0
351,62.0,192,144,1.0,51.0
352,62.0,0,144,1.0,51.0
353,59.0,192,144,1.0,51.0
354,86.0,0,380,0.0,51.0
355,62.0,192,144,1.0,51.0
356,59.0,0,144,1.0,51.0
357,59.0,0,144,1.0,51.0
358,62.0,192,144,1.0,51.0
359,57.0,192,144,1.0,72.0
360,62.0,0,144,1.0,72.0
361,54.0,0,144,1.0,72.0
362,57.0,0,144,1.0,51.0
363,54.0,0,144,1.0,51.0
364,62.0,136,144,1.0,51.0
365,72.0,0,380,0.0,72.0
366,78.0,16,380,0.0,72.0
367,81.0,20,380,0.0,72.0
368,84.0,20,380,0.0,72.0
369,62.0,0,144,1.0,51.0
370,57.0,0,144,1.0,51.0
371,54.0,192,144,1.0,51.0
372,71.0,144,48,0.0,51.0
373,69.0,48,92,0.0,51.0
374,62.0,0,144,1.0,51.0
375,54.0,0,144,1.0,51.0
376,57.0,0,144,1.0,51.0
377,68.0,96,92,0.0,56.0
378,54.0,0,144,1.0,51.0
379,62.0,0,144,1.0,51.0
380,57.0,0,144,1.0,51.0
381,69.0,96,144,0.0,62.0
382,62.0,192,144,1.0,51.0
383,71.0,0,144,0.0,63.0
384,57.0,0,144,1.0,51.0
385,54.0,0,144,1.0,51.0
386,72.0,192,144,0.0,65.0
387,54.0,0,144,1.0,51.0
388,62.0,0,144,1.0,51.0
389,57.0,0,144,1.0,51.0
390,57.0,0,144,1.0,51.0
391,62.0,0,144,1.0,51.0
392,54.0,0,144,1.0,51.0
393,77.0,192,144,0.0,66.0
394,78.0,192,144,0.0,67.0
395,62.0,0,144,1.0,51.0
396,57.0,0,144,1.0,51.0
397,54.0,0,144,1.0,51.0
398,80.0,192,144,0.0,68.0
399,54.0,0,144,1.0,51.0
400,57.0,0,144,1.0,51.0
401,62.0,0,144,1.0,51.0
402,62.0,0,144,1.0,51.0
403,81.0,192,144,0.0,70.0
404,54.0,0,144,1.0,51.0
405,57.0,0,144,1.0,51.0
406,57.0,0,144,1.0,51.0
407,62.0,192,144,1.0,51.0
408,83.0,0,144,0.0,71.0
409,54.0,0,144,1.0,51.0
410,57.0,0,144,1.0,51.0
411,62.0,0,144,1.0,51.0
412,54.0,0,144,1.0,51.0
413,54.0,0,144,1.0,51.0
414,57.0,192,144,1.0,51.0
415,62.0,0,144,1.0,51.0
416,84.0,192,380,0.0,72.0
417,54.0,0,144,1.0,51.0
418,57.0,0,144,1.0,51.0
419,62.0,192,144,1.0,51.0
420,62.0,0,144,1.0,51.0
421,57.0,0,144,1.0,51.0
422,54.0,192,144,1.0,51.0
423,84.0,0,44,0.0,75.0
424,55.0,192,144,1.0,72.0
425,83.0,48,140,0.0,51.0
426,81.0,0,92,0.0,51.0
427,62.0,144,144,1.0,72.0
428,79.0,96,92,0.0,51.0
429,79.0,0,44,0.0,51.0
430,57.0,96,144,1.0,51.0
431,78.0,48,140,0.0,51.0
432,76.0,0,92,0.0,51.0
433,62.0,144,144,1.0,51.0
434,74.0,96,92,0.0,51.0
435,74.0,0,32,0.0,51.0
436,78.0,48,32,0.0,51.0
437,81.0,48,32,0.0,51.0
438,54.0,96,144,1.0,72.0
439,62.0,48,144,1.0,51.0
440,50.0,192,144,1.0,51.0
441,62.0,192,144,1.0,51.0
442,84.0,0,20,0.0,68.0
443,55.0,192,144,1.0,51.0
444,83.0,48,140,0.0,51.0
445,81.0,0,92,0.0,51.0
446,62.0,144,144,1.0,51.0
447,79.0,96,92,0.0,51.0
448,79.0,96,44,0.0,51.0
449,59.0,0,144,1.0,51.0
450,78.0,48,140,0.0,51.0
451,76.0,144,92,0.0,51.0
452,62.0,0,144,1.0,51.0
453,74.0,96,92,0.0,51.0
454,74.0,0,32,0.0,51.0
455,78.0,48,32,0.0,51.0
456,81.0,48,32,0.0,51.0
457,54.0,96,144,1.0,72.0
458,62.0,48,144,1.0,51.0
459,50.0,192,144,1.0,51.0
460,62.0,192,144,1.0,51.0
461,84.0,48,644,0.0,75.0
462,83.0,192,92,0.0,72.0
463,81.0,96,92,0.0,72.0
464,84.0,96,92,0.0,72.0
465,55.0,0,380,1.0,72.0
466,83.0,96,92,0.0,72.0
467,62.0,0,380,1.0,72.0
468,86.0,96,144,0.0,72.0
469,78.0,144,144,0.0,72.0
470,79.0,0,92,0.0,72.0
471,78.0,96,92,0.0,72.0
472,81.0,96,92,0.0,72.0
473,62.0,0,380,1.0,72.0
474,59.0,240,380,1.0,72.0
475,79.0,96,92,0.0,72.0
476,83.0,96,144,0.0,72.0
477,75.0,192,144,0.0,72.0
478,76.0,0,92,0.0,72.0
479,75.0,96,92,0.0,72.0
480,78.0,96,92,0.0,72.0
481,67.0,0,380,1.0,72.0
482,60.0,192,380,1.0,72.0
483,76.0,96,92,0.0,72.0
484,79.0,96,144,0.0,72.0
485,71.0,192,144,0.0,72.0
486,72.0,0,92,0.0,72.0
487,71.0,96,92,0.0,72.0
488,74.0,96,92,0.0,72.0
489,72.0,96,92,0.0,72.0
490,64.0,192,380,1.0,72.0
491,67.0,0,380,1.0,72.0
492,76.0,96,144,0.0,72.0
493,68.0,192,144,0.0,72.0
494,57.0,192,284,1.0,72.0
495,69.0,0,284,0.0,72.0
496,71.0,288,92,0.0,72.0
497,59.0,0,92,1.0,72.0
498,72.0,96,284,0.0,72.0
499,60.0,0,284,1.0,72.0
500,71.0,288,92,0.0,72.0
501,59.0,0,92,1.0,72.0
502,69.0,0,284,0.0,72.0
503,57.0,96,284,1.0,72.0
504,67.0,0,92,0.0,72.0
505,55.0,288,92,1.0,72.0
506,66.0,96,284,0.0,72.0
507,54.0,0,284,1.0,72.0
508,52.0,0,92,1.0,72.0
509,64.0,288,92,0.0,72.0
510,62.0,96,188,0.0,72.0
511,50.0,0,188,1.0,72.0
512,54.0,0,92,1.0,72.0
513,66.0,192,92,0.0,72.0
514,57.0,0,92,1.0,72.0
515,69.0,96,92,0.0,72.0
516,62.0,0,144,1.0,72.0
517,74.0,96,144,0.0,72.0
518,62.0,192,144,1.0,72.0
519,74.0,0,144,0.0,72.0
520,62.0,192,380,1.0,72.0
521,74.0,0,380,0.0,72.0
522,61.0,768,144,1.0,51.0
523,62.0,192,144,1.0,51.0
524,61.0,192,144,1.0,51.0
525,62.0,192,144,1.0,51.0
526,61.0,192,144,1.0,51.0
527,62.0,192,144,1.0,51.0
528,61.0,192,144,1.0,51.0
529,62.0,192,144,1.0,52.0
530,60.0,192,144,1.0,55.0
531,62.0,192,144,1.0,57.0
532,59.0,192,144,1.0,60.0
533,62.0,192,144,1.0,62.0
534,60.0,192,144,1.0,65.0
535,62.0,192,144,1.0,67.0
536,57.0,192,144,1.0,70.0
537,62.0,192,144,1.0,72.0
538,83.0,0,144,0.0,51.0
539,55.0,192,144,1.0,51.0
540,84.0,144,144,0.0,51.0
541,62.0,48,144,1.0,51.0
542,55.0,0,144,1.0,51.0
543,86.0,192,144,0.0,51.0
544,62.0,192,144,1.0,51.0
545,83.0,0,144,0.0,51.0
546,59.0,192,144,1.0,51.0
547,62.0,192,144,1.0,51.0
548,59.0,192,144,1.0,51.0
549,62.0,192,144,1.0,51.0
550,79.0,0,764,0.0,51.0
551,60.0,192,144,1.0,51.0
552,81.0,0,144,0.0,51.0
553,83.0,0,144,0.0,51.0
554,62.0,192,144,1.0,51.0
555,60.0,192,144,1.0,51.0
556,84.0,0,144,0.0,51.0
557,81.0,192,144,0.0,51.0
558,62.0,0,144,1.0,51.0
559,57.0,0,144,1.0,51.0
560,62.0,192,144,1.0,51.0
561,57.0,192,144,1.0,51.0
562,62.0,192,144,1.0,51.0
563,78.0,192,764,0.0,51.0
564,79.0,0,92,0.0,51.0
565,59.0,192,144,1.0,51.0
566,78.0,96,188,0.0,51.0
567,62.0,96,144,1.0,51.0
568,76.0,0,92,0.0,51.0
569,55.0,192,144,1.0,51.0
570,74.0,96,188,0.0,51.0
571,62.0,96,144,1.0,51.0
572,71.0,0,92,0.0,51.0
573,57.0,192,144,1.0,51.0
574,72.0,96,188,0.0,51.0
575,62.0,96,144,1.0,51.0
576,54.0,192,144,1.0,51.0
577,62.0,192,144,1.0,51.0
578,72.0,192,92,0.0,51.0
579,55.0,0,144,1.0,51.0
580,71.0,96,188,0.0,51.0
581,62.0,96,144,1.0,51.0
582,69.0,192,92,0.0,51.0
583,52.0,0,144,1.0,51.0
584,67.0,96,188,0.0,51.0
585,61.0,96,144,1.0,51.0
586,71.0,192,92,0.0,51.0
587,50.0,0,144,1.0,51.0
588,69.0,96,188,0.0,51.0
589,62.0,96,144,1.0,51.0
590,60.0,192,144,1.0,51.0
591,57.0,192,144,1.0,51.0
592,83.0,192,144,0.0,51.0
593,55.0,0,144,1.0,51.0
594,62.0,192,144,1.0,51.0
595,84.0,0,144,0.0,51.0
596,86.0,192,144,0.0,51.0
597,55.0,0,144,1.0,51.0
598,83.0,192,144,0.0,51.0
599,62.0,0,144,1.0,51.0
600,59.0,0,144,1.0,51.0
601,62.0,192,144,1.0,51.0
602,59.0,192,144,1.0,51.0
603,79.0,192,528,0.0,51.0
604,62.0,192,144,1.0,51.0
605,60.0,0,144,1.0,51.0
606,81.0,192,144,0.0,51.0
607,83.0,192,144,0.0,51.0
608,62.0,0,144,1.0,51.0
609,60.0,0,144,1.0,51.0
610,84.0,192,144,0.0,51.0
611,81.0,192,144,0.0,51.0
612,62.0,0,144,1.0,51.0
613,57.0,0,144,1.0,51.0
614,62.0,192,144,1.0,51.0
615,78.0,192,528,0.0,51.0
616,57.0,192,144,1.0,51.0
617,62.0,192,144,1.0,51.0
618,79.0,192,92,0.0,51.0
619,59.0,0,144,1.0,51.0
620,78.0,96,188,0.0,51.0
621,62.0,96,144,1.0,51.0
622,76.0,0,92,0.0,51.0
623,55.0,192,144,1.0,51.0
624,74.0,96,188,0.0,51.0
625,62.0,96,144,1.0,51.0
626,71.0,0,92,0.0,51.0
627,57.0,192,144,1.0,51.0
628,72.0,96,188,0.0,51.0
629,62.0,96,144,1.0,51.0
630,54.0,192,144,1.0,51.0
631,62.0,192,144,1.0,51.0
632,72.0,0,92,0.0,51.0
633,55.0,192,144,1.0,51.0
634,71.0,96,188,0.0,51.0
635,62.0,96,144,1.0,51.0
636,69.0,0,92,0.0,51.0
637,52.0,192,144,1.0,51.0
638,67.0,96,188,0.0,51.0
639,61.0,96,144,1.0,51.0
640,76.0,192,92,0.0,51.0
641,50.0,0,144,1.0,51.0
642,74.0,96,188,0.0,51.0
643,62.0,96,144,1.0,51.0
644,48.0,192,144,1.0,51.0
645,60.0,192,144,1.0,51.0
646,47.0,0,92,1.0,72.0
647,55.0,96,92,1.0,72.0
648,54.0,96,92,1.0,72.0
649,55.0,96,92,1.0,72.0
650,57.0,96,92,1.0,72.0
651,55.0,96,92,1.0,72.0
652,54.0,96,92,1.0,72.0
653,55.0,96,92,1.0,72.0
654,74.0,0,764,0.0,72.0
655,86.0,192,764,0.0,72.0
656,84.0,0,144,0.0,72.0
657,83.0,192,144,0.0,72.0
658,47.0,96,380,1.0,72.0
659,81.0,192,144,0.0,72.0
660,79.0,192,144,0.0,72.0
661,48.0,0,92,1.0,72.0
662,55.0,96,92,1.0,72.0
663,54.0,96,92,1.0,72.0
664,55.0,96,92,1.0,72.0
665,57.0,96,92,1.0,72.0
666,55.0,96,92,1.0,72.0
667,54.0,96,92,1.0,72.0
668,55.0,96,92,1.0,72.0
669,88.0,192,764,0.0,72.0
670,76.0,0,764,0.0,72.0
671,86.0,0,144,0.0,72.0
672,84.0,192,144,0.0,72.0
673,48.0,96,380,1.0,72.0
674,83.0,192,144,0.0,72.0
675,81.0,192,144,0.0,72.0
676,83.0,192,92,0.0,51.0
677,50.0,0,144,1.0,51.0
678,84.0,96,92,0.0,51.0
679,86.0,0,92,0.0,51.0
680,55.0,96,144,1.0,51.0
681,83.0,96,92,0.0,51.0
682,59.0,0,144,1.0,51.0
683,79.0,96,188,0.0,51.0
684,55.0,192,144,1.0,51.0
685,81.0,0,92,0.0,51.0
686,50.0,192,144,1.0,51.0
687,83.0,96,92,0.0,51.0
688,84.0,0,92,0.0,51.0
689,57.0,96,144,1.0,51.0
690,81.0,96,92,0.0,51.0
691,60.0,0,144,1.0,51.0
692,78.0,96,188,0.0,51.0
693,57.0,192,144,1.0,51.0
694,48.0,192,92,1.0,72.0
695,55.0,96,92,1.0,51.0
696,54.0,96,92,1.0,51.0
697,55.0,96,92,1.0,51.0
698,57.0,96,92,1.0,51.0
699,55.0,96,92,1.0,51.0
700,54.0,96,92,1.0,51.0
701,86.0,0,764,0.0,72.0
702,74.0,0,764,0.0,72.0
703,55.0,96,92,1.0,51.0
704,84.0,96,92,0.0,72.0
705,86.0,96,92,0.0,72.0
706,84.0,96,92,0.0,72.0
707,83.0,96,92,0.0,72.0
708,47.0,0,380,1.0,51.0
709,81.0,96,92,0.0,72.0
710,83.0,96,92,0.0,72.0
711,81.0,96,92,0.0,72.0
712,79.0,96,92,0.0,72.0
713,48.0,0,92,1.0,51.0
714,55.0,96,92,1.0,51.0
715,54.0,96,92,1.0,51.0
716,55.0,96,92,1.0,51.0
717,57.0,96,92,1.0,51.0
718,55.0,96,92,1.0,51.0
719,54.0,96,92,1.0,51.0
720,55.0,96,92,1.0,51.0
721,76.0,96,764,0.0,72.0
722,88.0,0,764,0.0,72.0
723,86.0,0,92,0.0,72.0
724,88.0,96,92,0.0,72.0
725,86.0,96,92,0.0,72.0
726,84.0,96,92,0.0,72.0
727,48.0,96,380,1.0,51.0
728,83.0,96,92,0.0,72.0
729,84.0,96,92,0.0,72.0
730,83.0,96,92,0.0,72.0
731,81.0,96,92,0.0,72.0
732,83.0,96,144,0.0,51.0
733,62.0,0,144,0.0,51.0
734,79.0,192,144,0.0,51.0
735,67.0,0,144,0.0,51.0
736,64.0,0,144,0.0,51.0
737,67.0,192,144,0.0,51.0
738,84.0,192,380,0.0,77.0
739,83.0,192,144,0.0,51.0
740,62.0,0,144,0.0,51.0
741,79.0,192,144,0.0,51.0
742,67.0,0,144,0.0,51.0
743,60.0,0,144,0.0,51.0
744,67.0,192,144,0.0,51.0
745,88.0,192,380,0.0,77.0
746,86.0,192,144,0.0,51.0
747,59.0,0,144,0.0,51.0
748,67.0,0,144,0.0,51.0
749,79.0,192,144,0.0,51.0
750,64.0,0,144,0.0,51.0
751,67.0,192,144,0.0,51.0
752,84.0,192,380,0.0,77.0
753,83.0,192,144,0.0,51.0
754,62.0,0,144,0.0,51.0
755,79.0,192,144,0.0,51.0
756,67.0,0,144,0.0,51.0
757,60.0,0,144,0.0,51.0
758,67.0,192,144,0.0,51.0
759,88.0,192,380,0.0,77.0
760,68.0,0,144,0.0,66.0
761,62.0,0,144,0.0,66.0
762,59.0,192,144,0.0,66.0
763,68.0,192,144,0.0,66.0
764,62.0,0,144,0.0,66.0
765,59.0,0,144,0.0,66.0
766,59.0,0,144,0.0,66.0
767,68.0,192,144,0.0,66.0
768,62.0,0,144,0.0,66.0
769,59.0,192,144,0.0,66.0
770,62.0,0,144,0.0,66.0
771,68.0,0,144,0.0,66.0
772,77.0,0,764,0.0,72.0
773,89.0,0,764,0.0,72.0
774,68.0,192,144,0.0,66.0
775,59.0,0,144,0.0,66.0
776,62.0,0,144,0.0,66.0
777,68.0,0,144,0.0,66.0
778,62.0,192,144,0.0,66.0
779,59.0,0,144,0.0,66.0
780,89.0,0,380,0.0,72.0
781,77.0,0,380,0.0,72.0
782,68.0,192,144,0.0,66.0
783,62.0,0,144,0.0,66.0
784,59.0,0,144,0.0,66.0
785,59.0,0,144,0.0,66.0
786,68.0,192,144,0.0,66.0
787,62.0,0,144,0.0,66.0
788,77.0,0,380,0.0,72.0
789,89.0,0,380,0.0,72.0
790,88.0,0,144,0.0,72.0
791,76.0,0,144,0.0,72.0
792,68.0,0,144,0.0,66.0
793,62.0,0,144,0.0,66.0
794,59.0,192,144,0.0,66.0
795,86.0,192,144,0.0,72.0
796,84.0,192,48,0.0,72.0
797,86.0,48,48,0.0,72.0
798,84.0,48,48,0.0,72.0
799,86.0,48,48,0.0,72.0
800,83.0,48,188,0.0,66.0
801,81.0,192,48,0.0,72.0
802,83.0,48,48,0.0,72.0
803,81.0,48,48,0.0,72.0
804,83.0,48,48,0.0,72.0
805,79.0,48,188,0.0,66.0
806,78.0,192,48,0.0,72.0
807,79.0,48,48,0.0,72.0
808,78.0,48,48,0.0,72.0
809,79.0,48,48,0.0,72.0
810,76.0,48,188,0.0,66.0
811,50.0,0,92,1.0,66.0
812,74.0,192,144,0.0,72.0
813,59.0,96,92,1.0,66.0
814,76.0,96,92,0.0,72.0
815,55.0,0,92,1.0,66.0
816,59.0,0,92,1.0,66.0
817,78.0,96,92,0.0,72.0
818,50.0,96,92,1.0,66.0
819,79.0,0,92,0.0,72.0
820,59.0,96,92,1.0,66.0
821,81.0,0,92,0.0,72.0
822,55.0,0,92,1.0,66.0
823,83.0,96,92,0.0,72.0
824,84.0,96,92,0.0,72.0
825,59.0,0,92,1.0,66.0
826,50.0,96,92,1.0,66.0
827,86.0,0,92,0.0,72.0
828,84.0,96,92,0.0,72.0
829,59.0,0,92,1.0,66.0
830,83.0,96,92,0.0,72.0
831,55.0,0,92,1.0,66.0
832,84.0,0,92,0.0,72.0
833,59.0,96,92,1.0,66.0
834,50.0,0,92,1.0,66.0
835,86.0,96,92,0.0,72.0
836,83.0,96,92,0.0,72.0
837,59.0,0,92,1.0,66.0
838,81.0,96,92,0.0,72.0
839,55.0,0,92,1.0,66.0
840,79.0,96,92,0.0,72.0
841,59.0,0,92,1.0,66.0
842,81.0,0,44,0.0,66.0
843,50.0,96,92,1.0,61.0
844,83.0,48,44,0.0,66.0
845,81.0,0,44,0.0,66.0
846,60.0,48,92,1.0,61.0
847,83.0,48,44,0.0,66.0
848,81.0,0,44,0.0,66.0
849,83.0,48,44,0.0,66.0
850,53.0,48,92,1.0,61.0
851,81.0,0,44,0.0,66.0
852,60.0,48,92,1.0,61.0
853,83.0,48,44,0.0,66.0
854,81.0,0,44,0.0,66.0
855,50.0,48,92,1.0,61.0
856,83.0,48,44,0.0,66.0
857,81.0,0,44,0.0,66.0
858,83.0,48,44,0.0,66.0
859,60.0,48,92,1.0,61.0
860,81.0,0,44,0.0,66.0
861,53.0,48,92,1.0,61.0
862,83.0,48,44,0.0,66.0
863,81.0,48,44,0.0,66.0
864,60.0,0,92,1.0,61.0
865,83.0,48,44,0.0,66.0
866,81.0,0,44,0.0,66.0
867,83.0,48,44,0.0,66.0
868,50.0,48,92,1.0,61.0
869,81.0,48,44,0.0,66.0
870,60.0,0,92,1.0,61.0
871,83.0,48,44,0.0,66.0
872,81.0,0,44,0.0,66.0
873,53.0,48,92,1.0,61.0
874,83.0,48,44,0.0,66.0
875,81.0,0,44,0.0,66.0
876,83.0,48,44,0.0,66.0
877,60.0,48,92,1.0,61.0
878,81.0,0,44,0.0,66.0
879,50.0,48,92,1.0,61.0
880,83.0,48,44,0.0,66.0
881,81.0,48,44,0.0,66.0
882,60.0,0,92,1.0,61.0
883,83.0,48,44,0.0,66.0
884,53.0,0,92,1.0,61.0
885,79.0,48,92,0.0,66.0
886,81.0,96,92,0.0,66.0
887,60.0,0,92,1.0,61.0
888,59.0,96,380,1.0,51.0
889,55.0,0,380,1.0,51.0
890,79.0,0,380,0.0,66.0
891,71.0,144,144,0.0,51.0
892,67.0,384,380,0.0,51.0
893,74.0,240,144,0.0,51.0
894,72.0,192,144,0.0,51.0
895,69.0,0,380,0.0,51.0
896,69.0,192,144,0.0,51.0
897,66.0,192,380,0.0,51.0
898,72.0,0,144,0.0,51.0
899,71.0,192,144,0.0,51.0
900,67.0,192,380,0.0,51.0
901,67.0,192,144,0.0,51.0
902,64.0,192,380,0.0,51.0
903,71.0,192,144,0.0,51.0
904,69.0,192,144,0.0,51.0
905,60.0,0,380,0.0,51.0
906,66.0,192,144,0.0,51.0
907,62.0,192,380,0.0,51.0
908,69.0,192,144,0.0,51.0
909,67.0,192,144,0.0,51.0
910,59.0,0,380,0.0,51.0
911,71.0,0,92,0.0,72.0
912,72.0,96,92,0.0,72.0
913,74.0,96,92,0.0,72.0
914,55.0,0,380,1.0,77.0
915,43.0,192,380,1.0,77.0
916,71.0,96,92,0.0,72.0
917,72.0,96,92,0.0,72.0
918,74.0,96,92,0.0,72.0
919,76.0,96,92,0.0,72.0
920,57.0,0,380,1.0,77.0
921,45.0,0,380,1.0,77.0
922,72.0,96,92,0.0,72.0
923,81.0,0,92,0.0,72.0
924,83.0,96,92,0.0,72.0
925,84.0,96,92,0.0,72.0
926,81.0,96,92,0.0,72.0
927,42.0,0,380,1.0,77.0
928,54.0,96,380,1.0,77.0
929,83.0,0,92,0.0,72.0
930,84.0,96,92,0.0,72.0
931,86.0,96,92,0.0,72.0
932,55.0,96,380,1.0,77.0
933,43.0,0,380,1.0,77.0
934,83.0,96,92,0.0,72.0
935,67.0,0,92,0.0,72.0
936,69.0,96,92,0.0,72.0
937,71.0,96,92,0.0,72.0
938,67.0,96,92,0.0,72.0
939,52.0,96,380,1.0,77.0
940,40.0,0,380,1.0,77.0
941,69.0,0,92,0.0,72.0
942,71.0,96,92,0.0,72.0
943,72.0,96,92,0.0,72.0
944,69.0,96,92,0.0,72.0
945,48.0,96,380,1.0,77.0
946,36.0,0,380,1.0,77.0
947,78.0,96,92,0.0,72.0
948,79.0,96,92,0.0,72.0
949,50.0,0,240,1.0,77.0
950,38.0,0,240,1.0,77.0
951,81.0,96,92,0.0,72.0
952,78.0,96,92,0.0,72.0
953,43.0,96,240,1.0,77.0
954,79.0,0,380,0.0,77.0
955,55.0,0,240,1.0,77.0
956,43.0,384,240,1.0,77.0
957,74.0,0,380,0.0,77.0
958,79.0,16,380,0.0,77.0
959,83.0,20,380,0.0,77.0
960,43.0,0,240,1.0,77.0
961,55.0,348,240,1.0,77.0
962,71.0,0,380,0.0,77.0
963,74.0,16,380,0.0,77.0
964,79.0,20,380,0.0,77.0
965,60.0,732,48,0.0,72.0
966,64.0,48,48,0.0,72.0
967,67.0,48,48,0.0,72.0
968,72.0,0,604,0.0,72.0
969,48.0,0,604,1.0,72.0
970,36.0,48,604,1.0,72.0
971,67.0,624,764,0.0,72.0
972,31.0,0,764,1.0,72.0
973,43.0,0,764,1.0,72.0
974,52.0,768,572,1.0,72.0
975,76.0,0,576,0.0,72.0
976,53.0,576,92,1.0,72.0
977,77.0,0,92,0.0,72.0
978,74.0,96,92,0.0,72.0
979,50.0,0,92,1.0,72.0
980,72.0,0,380,0.0,72.0
981,48.0,96,380,1.0,72.0
982,64.0,768,144,0.0,51.0
983,67.0,192,144,0.0,51.0
984,79.0,0,380,0.0,51.0
985,64.0,0,144,0.0,51.0
986,67.0,192,144,0.0,51.0
987,79.0,192,380,0.0,51.0
988,61.0,192,144,0.0,51.0
989,67.0,192,144,0.0,51.0
990,61.0,0,144,0.0,51.0
991,67.0,192,144,0.0,51.0
992,81.0,192,380,0.0,51.0
993,79.0,192,48,0.0,51.0
994,62.0,0,144,0.0,51.0
995,67.0,144,144,0.0,51.0
996,77.0,48,332,0.0,51.0
997,62.0,192,144,0.0,51.0
998,67.0,192,144,0.0,51.0
999,77.0,0,380,0.0,51.0
1000,59.0,192,144,0.0,51.0
1001,67.0,192,144,0.0,51.0
1002,59.0,192,144,0.0,51.0
1003,67.0,192,144,0.0,51.0
1004,79.0,0,380,0.0,51.0
1005,77.0,192,48,0.0,51.0
1006,60.0,0,144,0.0,51.0
1007,67.0,144,144,0.0,51.0
1008,76.0,48,332,0.0,51.0
1009,60.0,192,144,0.0,51.0
1010,67.0,192,144,0.0,51.0
1011,76.0,0,380,0.0,51.0
1012,64.0,192,144,0.0,51.0
1013,67.0,192,144,0.0,51.0
1014,64.0,0,144,0.0,51.0
1015,79.0,192,192,0.0,51.0
1016,67.0,0,144,0.0,51.0
1017,76.0,192,192,0.0,51.0
1018,73.0,192,144,0.0,51.0
1019,74.0,192,144,0.0,51.0
1020,77.0,192,144,0.0,51.0
1021,76.0,192,144,0.0,51.0
1022,73.0,192,144,0.0,51.0
1023,74.0,192,144,0.0,51.0
1024,77.0,192,144,0.0,51.0
1025,76.0,192,144,0.0,51.0
1026,69.0,0,1532,0.0,51.0
1027,65.0,0,1532,0.0,51.0
1028,73.0,192,144,0.0,51.0
1029,74.0,192,144,0.0,51.0
1030,77.0,0,144,0.0,51.0
1031,81.0,192,144,0.0,51.0
1032,62.0,192,380,1.0,51.0
1033,57.0,0,380,1.0,51.0
1034,53.0,0,380,1.0,51.0
1035,79.0,192,144,0.0,51.0
1036,76.0,192,144,0.0,51.0
1037,55.0,0,380,1.0,51.0
1038,60.0,0,380,1.0,51.0
1039,64.0,0,380,1.0,51.0
1040,77.0,0,144,0.0,51.0
1041,74.0,192,144,0.0,51.0
1042,55.0,0,380,1.0,51.0
1043,62.0,192,380,1.0,51.0
1044,59.0,0,380,1.0,51.0
1045,60.0,192,48,0.0,72.0
1046,64.0,48,48,0.0,72.0
1047,67.0,48,48,0.0,72.0
1048,36.0,48,604,1.0,72.0
1049,48.0,0,604,1.0,72.0
1050,72.0,0,604,0.0,72.0
1051,67.0,0,764,0.0,72.0
1052,31.0,624,764,1.0,72.0
1053,43.0,0,764,1.0,72.0
1054,52.0,768,572,1.0,72.0
1055,76.0,0,572,0.0,72.0
1056,53.0,576,92,1.0,72.0
1057,77.0,0,92,0.0,72.0
1058,74.0,0,92,0.0,72.0
1059,50.0,96,92,1.0,72.0
1060,48.0,80,380,1.0,72.0
1061,72.0,16,380,0.0,72.0
1062,64.0,0,144,0.0,51.0
1063,67.0,192,144,0.0,51.0
1064,79.0,768,380,0.0,51.0
1065,64.0,0,144,0.0,51.0
1066,67.0,192,144,0.0,51.0
1067,79.0,192,380,0.0,51.0
1068,61.0,192,144,0.0,51.0
1069,67.0,192,144,0.0,51.0
1070,61.0,0,144,0.0,51.0
1071,67.0,192,144,0.0,51.0
1072,81.0,192,380,0.0,51.0
1073,79.0,192,48,0.0,51.0
1074,62.0,0,144,0.0,51.0
1075,67.0,144,144,0.0,51.0
1076,77.0,48,332,0.0,51.0
1077,62.0,192,144,0.0,51.0
1078,67.0,192,144,0.0,51.0
1079,77.0,0,380,0.0,51.0
1080,59.0,192,144,0.0,51.0
1081,78.0,192,144,0.0,51.0
1082,67.0,0,144,0.0,51.0
1083,81.0,192,144,0.0,51.0
1084,59.0,0,144,0.0,51.0
1085,79.0,192,144,0.0,51.0
1086,67.0,0,144,0.0,51.0
1087,77.0,192,44,0.0,51.0
1088,60.0,0,144,0.0,51.0
1089,67.0,144,144,0.0,51.0
1090,76.0,48,332,0.0,51.0
1091,60.0,192,144,0.0,51.0
1092,67.0,192,144,0.0,51.0
1093,76.0,0,380,0.0,51.0
1094,64.0,192,144,0.0,51.0
1095,76.0,0,144,0.0,51.0
1096,67.0,192,144,0.0,51.0
1097,79.0,192,144,0.0,51.0
1098,64.0,0,144,0.0,51.0
1099,76.0,0,144,0.0,51.0
1100,67.0,192,144,0.0,51.0
1101,67.0,192,528,0.0,51.0
1102,70.0,0,528,0.0,51.0
1103,73.0,0,572,0.0,72.0
1104,74.0,576,92,0.0,51.0
1105,76.0,96,92,0.0,51.0
1106,65.0,0,380,0.0,51.0
1107,69.0,0,380,0.0,51.0
1108,74.0,96,380,0.0,51.0
1109,77.0,576,144,0.0,51.0
1110,71.0,0,528,0.0,51.0
1111,67.0,0,528,0.0,51.0
1112,76.0,192,572,0.0,72.0
1113,77.0,576,92,0.0,51.0
1114,79.0,96,92,0.0,51.0
1115,72.0,96,380,0.0,51.0
1116,69.0,0,380,0.0,51.0
1117,77.0,0,380,0.0,51.0
1118,57.0,0,144,1.0,72.0
1119,84.0,0,144,0.0,72.0
1120,72.0,768,144,0.0,72.0
1121,60.0,192,144,1.0,72.0
1122,84.0,0,144,0.0,72.0
1123,72.0,0,144,0.0,72.0
1124,57.0,0,144,1.0,72.0
1125,60.0,192,144,1.0,72.0
1126,53.0,192,144,1.0,51.0
1127,60.0,192,144,1.0,51.0
1128,72.0,192,764,0.0,72.0
1129,84.0,0,764,0.0,72.0
1130,53.0,0,144,1.0,51.0
1131,83.0,192,188,0.0,51.0
1132,60.0,0,144,1.0,51.0
1133,81.0,192,188,0.0,51.0
1134,72.0,192,144,0.0,72.0
1135,52.0,0,144,1.0,72.0
1136,79.0,0,144,0.0,72.0
1137,79.0,192,144,0.0,72.0
1138,72.0,0,144,0.0,72.0
1139,60.0,0,144,1.0,72.0
1140,52.0,0,144,1.0,72.0
1141,60.0,192,144,1.0,72.0
1142,72.0,192,528,0.0,72.0
1143,79.0,0,528,0.0,72.0
1144,48.0,192,144,1.0,51.0
1145,60.0,192,144,1.0,51.0
1146,48.0,0,144,1.0,51.0
1147,77.0,192,144,0.0,51.0
1148,60.0,192,144,1.0,51.0
1149,76.0,0,144,0.0,51.0
1150,76.0,192,92,0.0,51.0
1151,53.0,0,144,1.0,51.0
1152,74.0,96,92,0.0,51.0
1153,77.0,0,92,0.0,51.0
1154,57.0,96,144,1.0,51.0
1155,81.0,96,92,0.0,51.0
1156,79.0,0,44,0.0,51.0
1157,53.0,96,144,1.0,51.0
1158,77.0,48,140,0.0,51.0
1159,76.0,144,92,0.0,51.0
1160,62.0,0,144,1.0,51.0
1161,74.0,96,92,0.0,51.0
1162,55.0,96,144,1.0,51.0
1163,64.0,192,144,1.0,51.0
1164,72.0,0,380,0.0,51.0
1165,71.0,0,44,0.0,51.0
1166,72.0,48,44,0.0,51.0
1167,71.0,48,44,0.0,51.0
1168,55.0,192,144,1.0,51.0
1169,72.0,48,44,0.0,51.0
1170,69.0,0,92,0.0,51.0
1171,62.0,48,144,1.0,51.0
1172,71.0,96,92,0.0,51.0
1173,84.0,0,144,0.0,72.0
1174,72.0,0,144,0.0,72.0
1175,57.0,96,144,1.0,72.0
1176,84.0,192,144,0.0,72.0
1177,72.0,0,144,0.0,72.0
1178,60.0,0,144,1.0,72.0
1179,57.0,192,144,1.0,72.0
1180,60.0,192,144,1.0,72.0
1181,53.0,192,144,1.0,51.0
1182,84.0,0,572,0.0,72.0
1183,72.0,0,572,0.0,72.0
1184,86.0,192,92,0.0,51.0
1185,60.0,0,144,1.0,51.0
1186,84.0,96,92,0.0,51.0
1187,53.0,0,144,1.0,51.0
1188,83.0,96,144,0.0,51.0
1189,81.0,0,144,0.0,51.0
1190,60.0,192,144,1.0,51.0
1191,79.0,0,144,0.0,72.0
1192,72.0,192,144,0.0,72.0
1193,52.0,0,144,1.0,72.0
1194,72.0,0,144,0.0,72.0
1195,79.0,192,144,0.0,72.0
1196,60.0,0,144,1.0,72.0
1197,52.0,0,144,1.0,72.0
1198,60.0,192,144,1.0,72.0
1199,48.0,192,144,1.0,51.0
1200,72.0,0,572,0.0,72.0
1201,79.0,192,572,0.0,72.0
1202,81.0,0,92,0.0,51.0
1203,60.0,192,144,1.0,51.0
1204,79.0,96,92,0.0,51.0
1205,77.0,0,144,0.0,51.0
1206,48.0,96,144,1.0,51.0
1207,76.0,0,144,0.0,51.0
1208,60.0,192,144,1.0,51.0
1209,76.0,192,92,0.0,51.0
1210,53.0,0,144,1.0,51.0
1211,71.0,96,92,0.0,51.0
1212,81.0,0,92,0.0,51.0
1213,60.0,96,144,1.0,51.0
1214,80.0,96,92,0.0,51.0
1215,83.0,96,44,0.0,51.0
1216,53.0,0,144,1.0,51.0
1217,81.0,48,140,0.0,51.0
1218,79.0,144,92,0.0,51.0
1219,62.0,0,144,1.0,51.0
1220,77.0,96,92,0.0,51.0
1221,55.0,0,144,1.0,51.0
1222,60.0,192,144,1.0,51.0
1223,76.0,96,380,0.0,51.0
1224,74.0,192,44,0.0,51.0
1225,76.0,48,44,0.0,51.0
1226,74.0,32,44,0.0,51.0
1227,55.0,0,144,1.0,51.0
1228,76.0,64,44,0.0,51.0
1229,74.0,48,92,0.0,51.0
1230,59.0,0,144,1.0,51.0
1231,76.0,96,92,0.0,51.0
1232,64.0,0,144,1.0,72.0
1233,60.0,96,144,1.0,72.0
1234,64.0,0,144,1.0,51.0
1235,60.0,192,144,1.0,51.0
1236,72.0,0,380,0.0,72.0
1237,60.0,192,144,1.0,51.0
1238,64.0,0,144,1.0,51.0
1239,74.0,144,48,0.0,51.0
1240,72.0,0,92,0.0,51.0
1241,60.0,48,144,1.0,51.0
1242,64.0,0,144,1.0,51.0
1243,71.0,96,92,0.0,51.0
1244,64.0,0,144,1.0,51.0
1245,60.0,96,144,1.0,51.0
1246,72.0,0,144,0.0,51.0
1247,75.0,0,144,0.0,51.0
1248,60.0,0,144,1.0,51.0
1249,64.0,192,144,1.0,51.0
1250,76.0,0,144,0.0,51.0
1251,60.0,0,144,1.0,51.0
1252,64.0,192,144,1.0,51.0
1253,64.0,0,144,1.0,51.0
1254,60.0,192,144,1.0,51.0
1255,78.0,0,144,0.0,51.0
1256,64.0,192,144,1.0,51.0
1257,60.0,0,144,1.0,51.0
1258,79.0,0,144,0.0,51.0
1259,83.0,0,144,0.0,51.0
1260,64.0,0,144,1.0,51.0
1261,60.0,192,144,1.0,51.0
1262,84.0,0,144,0.0,51.0
1263,60.0,0,144,1.0,51.0
1264,64.0,192,144,1.0,51.0
1265,64.0,0,144,1.0,51.0
1266,60.0,0,144,1.0,51.0
1267,87.0,192,144,0.0,51.0
1268,64.0,192,144,1.0,51.0
1269,60.0,0,144,1.0,51.0
1270,64.0,192,144,1.0,51.0
1271,60.0,0,144,1.0,51.0
1272,88.0,0,380,0.0,51.0
1273,64.0,192,144,1.0,51.0
1274,60.0,0,144,1.0,51.0
1275,64.0,192,144,1.0,51.0
1276,60.0,0,144,1.0,51.0
1277,62.0,192,144,1.0,72.0
1278,59.0,0,144,1.0,72.0
1279,62.0,156,144,1.0,51.0
1280,59.0,0,144,1.0,51.0
1281,74.0,0,380,0.0,72.0
1282,79.0,16,380,0.0,72.0
1283,86.0,20,380,0.0,72.0
1284,59.0,192,144,1.0,51.0
1285,62.0,0,144,1.0,51.0
1286,72.0,144,48,0.0,51.0
1287,71.0,0,92,0.0,51.0
1288,59.0,48,144,1.0,51.0
1289,62.0,0,144,1.0,51.0
1290,69.0,96,92,0.0,51.0
1291,71.0,96,144,0.0,51.0
1292,59.0,0,144,1.0,51.0
1293,62.0,0,144,1.0,51.0
1294,59.0,192,144,1.0,51.0
1295,62.0,0,144,1.0,51.0
1296,73.0,0,144,0.0,51.0
1297,59.0,0,144,1.0,51.0
1298,62.0,192,144,1.0,51.0
1299,74.0,0,144,0.0,51.0
1300,62.0,0,144,1.0,51.0
1301,59.0,192,144,1.0,51.0
1302,78.0,0,144,0.0,51.0
1303,79.0,192,144,0.0,51.0
1304,59.0,0,144,1.0,51.0
1305,62.0,0,144,1.0,51.0
1306,82.0,192,144,0.0,51.0
1307,62.0,0,144,1.0,51.0
1308,59.0,0,144,1.0,51.0
1309,62.0,0,144,1.0,51.0
1310,59.0,0,144,1.0,51.0
1311,83.0,192,144,0.0,51.0
1312,62.0,0,144,1.0,51.0
1313,59.0,192,144,1.0,51.0
1314,85.0,0,144,0.0,51.0
1315,59.0,192,144,1.0,51.0
1316,62.0,0,144,1.0,51.0
1317,62.0,192,144,1.0,51.0
1318,59.0,0,144,1.0,51.0
1319,86.0,0,380,0.0,51.0
1320,62.0,0,144,1.0,51.0
1321,59.0,192,144,1.0,51.0
1322,62.0,192,144,1.0,51.0
1323,59.0,0,144,1.0,51.0
1324,54.0,192,144,1.0,72.0
1325,62.0,0,144,1.0,72.0
1326,57.0,0,144,1.0,72.0
1327,54.0,0,144,1.0,51.0
1328,57.0,0,144,1.0,51.0
1329,62.0,136,144,1.0,51.0
1330,72.0,0,380,0.0,72.0
1331,78.0,16,380,0.0,72.0
1332,81.0,20,380,0.0,72.0
1333,84.0,20,380,0.0,72.0
1334,54.0,0,144,1.0,51.0
1335,62.0,192,144,1.0,51.0
1336,57.0,0,144,1.0,51.0
1337,71.0,144,48,0.0,51.0
1338,69.0,48,92,0.0,51.0
1339,54.0,0,144,1.0,51.0
1340,62.0,0,144,1.0,51.0
1341,57.0,0,144,1.0,51.0
1342,68.0,96,92,0.0,56.0
1343,62.0,96,144,1.0,51.0
1344,57.0,0,144,1.0,51.0
1345,54.0,0,144,1.0,51.0
1346,69.0,0,144,0.0,62.0
1347,71.0,192,144,0.0,63.0
1348,62.0,0,144,1.0,51.0
1349,57.0,0,144,1.0,51.0
1350,54.0,0,144,1.0,51.0
1351,72.0,192,144,0.0,65.0
1352,57.0,0,144,1.0,51.0
1353,62.0,0,144,1.0,51.0
1354,54.0,0,144,1.0,51.0
1355,77.0,0,144,0.0,66.0
1356,54.0,192,144,1.0,51.0
1357,57.0,0,144,1.0,51.0
1358,62.0,0,144,1.0,51.0
1359,57.0,0,144,1.0,51.0
1360,54.0,0,144,1.0,51.0
1361,62.0,0,144,1.0,51.0
1362,78.0,192,144,0.0,67.0
1363,62.0,0,144,1.0,51.0
1364,57.0,0,144,1.0,51.0
1365,54.0,0,144,1.0,51.0
1366,80.0,192,144,0.0,68.0
1367,57.0,0,144,1.0,51.0
1368,81.0,0,144,0.0,70.0
1369,54.0,192,144,1.0,51.0
1370,62.0,0,144,1.0,51.0
1371,54.0,0,144,1.0,51.0
1372,57.0,192,144,1.0,51.0
1373,62.0,0,144,1.0,51.0
1374,83.0,0,144,0.0,71.0
1375,54.0,0,144,1.0,51.0
1376,57.0,0,144,1.0,51.0
1377,62.0,0,144,1.0,51.0
1378,84.0,192,240,0.0,72.0
1379,54.0,0,144,1.0,51.0
1380,57.0,0,144,1.0,51.0
1381,62.0,192,144,1.0,51.0
1382,57.0,0,144,1.0,51.0
1383,62.0,0,144,1.0,51.0
1384,54.0,192,144,1.0,51.0
1385,54.0,192,144,1.0,51.0
1386,62.0,0,144,1.0,51.0
1387,57.0,0,144,1.0,51.0
1388,84.0,192,44,0.0,75.0
1389,55.0,0,144,1.0,72.0
1390,83.0,48,140,0.0,51.0
1391,81.0,144,92,0.0,51.0
1392,62.0,0,144,1.0,72.0
1393,79.0,96,92,0.0,51.0
1394,79.0,0,44,0.0,51.0
1395,57.0,96,144,1.0,51.0
1396,78.0,48,140,0.0,51.0
1397,76.0,0,92,0.0,51.0
1398,62.0,144,144,1.0,51.0
1399,74.0,96,92,0.0,51.0
1400,74.0,0,32,0.0,51.0
1401,78.0,48,32,0.0,51.0
1402,81.0,48,32,0.0,51.0
1403,54.0,96,144,1.0,72.0
1404,62.0,48,144,1.0,51.0
1405,50.0,192,144,1.0,51.0
1406,62.0,192,144,1.0,51.0
1407,84.0,0,20,0.0,68.0
1408,55.0,192,144,1.0,51.0
1409,83.0,48,140,0.0,51.0
1410,81.0,0,92,0.0,51.0
1411,62.0,144,144,1.0,51.0
1412,79.0,96,92,0.0,51.0
1413,79.0,96,44,0.0,51.0
1414,59.0,0,144,1.0,51.0
1415,78.0,48,140,0.0,51.0
1416,76.0,144,92,0.0,51.0
1417,62.0,0,144,1.0,51.0
1418,74.0,96,92,0.0,51.0
1419,74.0,96,32,0.0,51.0
1420,78.0,48,32,0.0,51.0
1421,81.0,48,32,0.0,51.0
1422,54.0,0,144,1.0,72.0
1423,62.0,48,144,1.0,51.0
1424,50.0,192,144,1.0,51.0
1425,62.0,192,144,1.0,51.0
1426,84.0,48,644,0.0,75.0
1427,83.0,0,92,0.0,72.0
1428,81.0,96,92,0.0,72.0
1429,84.0,96,92,0.0,72.0
1430,55.0,192,380,1.0,72.0
1431,83.0,96,92,0.0,72.0
1432,62.0,0,380,1.0,72.0
1433,86.0,96,144,0.0,72.0
1434,78.0,144,144,0.0,72.0
1435,79.0,0,92,0.0,72.0
1436,78.0,96,92,0.0,72.0
1437,81.0,96,92,0.0,72.0
1438,79.0,96,92,0.0,72.0
1439,59.0,0,380,1.0,72.0
1440,62.0,240,380,1.0,72.0
1441,83.0,96,144,0.0,72.0
1442,75.0,192,144,0.0,72.0
1443,76.0,0,92,0.0,72.0
1444,75.0,96,92,0.0,72.0
1445,78.0,96,92,0.0,72.0
1446,60.0,0,380,1.0,72.0
1447,76.0,96,92,0.0,72.0
1448,67.0,192,380,1.0,72.0
1449,79.0,96,144,0.0,72.0
1450,71.0,192,144,0.0,72.0
1451,72.0,0,92,0.0,72.0
1452,71.0,96,92,0.0,72.0
1453,74.0,96,92,0.0,72.0
1454,72.0,96,92,0.0,72.0
1455,64.0,192,380,1.0,72.0
1456,67.0,0,380,1.0,72.0
1457,76.0,96,144,0.0,72.0
1458,68.0,192,144,0.0,72.0
1459,69.0,0,284,0.0,72.0
1460,57.0,192,284,1.0,72.0
1461,71.0,288,92,0.0,72.0
1462,59.0,0,92,1.0,72.0
1463,72.0,96,284,0.0,72.0
1464,60.0,0,284,1.0,72.0
1465,71.0,288,92,0.0,72.0
1466,59.0,0,92,1.0,72.0
1467,57.0,0,284,1.0,72.0
1468,69.0,96,284,0.0,72.0
1469,67.0,0,92,0.0,72.0
1470,55.0,288,92,1.0,72.0
1471,66.0,96,284,0.0,72.0
1472,54.0,0,284,1.0,72.0
1473,64.0,288,92,0.0,72.0
1474,52.0,0,92,1.0,72.0
1475,62.0,96,188,0.0,72.0
1476,50.0,0,188,1.0,72.0
1477,54.0,192,92,1.0,72.0
1478,66.0,0,92,0.0,72.0
1479,57.0,0,92,1.0,72.0
1480,69.0,96,92,0.0,72.0
1481,62.0,96,144,1.0,72.0
1482,74.0,0,144,0.0,72.0
1483,62.0,192,144,1.0,72.0
1484,74.0,0,144,0.0,72.0
1485,74.0,192,380,0.0,72.0
1486,62.0,0,380,1.0,72.0
1487,61.0,768,144,1.0,51.0
1488,62.0,192,144,1.0,51.0
1489,61.0,192,144,1.0,51.0
1490,62.0,192,144,1.0,51.0
1491,61.0,192,144,1.0,51.0
1492,62.0,192,144,1.0,51.0
1493,61.0,192,144,1.0,51.0
1494,62.0,192,144,1.0,52.0
1495,60.0,192,144,1.0,55.0
1496,62.0,192,144,1.0,57.0
1497,59.0,192,144,1.0,60.0
1498,62.0,192,144,1.0,62.0
1499,60.0,192,144,1.0,65.0
1500,62.0,192,144,1.0,67.0
1501,57.0,192,144,1.0,70.0
1502,62.0,192,144,1.0,72.0
1503,83.0,192,144,0.0,51.0
1504,55.0,0,144,1.0,51.0
1505,84.0,144,144,0.0,51.0
1506,62.0,48,144,1.0,51.0
1507,86.0,192,144,0.0,51.0
1508,55.0,0,144,1.0,51.0
1509,62.0,0,144,1.0,51.0
1510,83.0,192,144,0.0,51.0
1511,59.0,0,144,1.0,51.0
1512,62.0,192,144,1.0,51.0
1513,59.0,192,144,1.0,51.0
1514,62.0,192,144,1.0,51.0
1515,79.0,192,764,0.0,51.0
1516,81.0,192,144,0.0,51.0
1517,60.0,0,144,1.0,51.0
1518,83.0,0,144,0.0,51.0
1519,62.0,192,144,1.0,51.0
1520,60.0,192,144,1.0,51.0
1521,84.0,0,144,0.0,51.0
1522,62.0,192,144,1.0,51.0
1523,81.0,0,144,0.0,51.0
1524,57.0,192,144,1.0,51.0
1525,62.0,192,144,1.0,51.0
1526,57.0,192,144,1.0,51.0
1527,62.0,192,144,1.0,51.0
1528,78.0,0,764,0.0,51.0
1529,79.0,192,92,0.0,51.0
1530,59.0,0,144,1.0,51.0
1531,78.0,96,188,0.0,51.0
1532,62.0,96,144,1.0,51.0
1533,76.0,192,92,0.0,51.0
1534,55.0,0,144,1.0,51.0
1535,74.0,96,188,0.0,51.0
1536,62.0,96,144,1.0,51.0
1537,71.0,0,92,0.0,51.0
1538,57.0,192,144,1.0,51.0
1539,72.0,96,188,0.0,51.0
1540,62.0,96,144,1.0,51.0
1541,54.0,192,144,1.0,51.0
1542,62.0,192,144,1.0,51.0
1543,72.0,192,92,0.0,51.0
1544,55.0,0,144,1.0,51.0
1545,71.0,96,188,0.0,51.0
1546,62.0,96,144,1.0,51.0
1547,69.0,192,92,0.0,51.0
1548,52.0,0,144,1.0,51.0
1549,67.0,96,188,0.0,51.0
1550,61.0,96,144,1.0,51.0
1551,71.0,192,92,0.0,51.0
1552,50.0,0,144,1.0,51.0
1553,69.0,96,188,0.0,51.0
1554,62.0,96,144,1.0,51.0
1555,60.0,192,144,1.0,51.0
1556,57.0,192,144,1.0,51.0
1557,55.0,192,144,1.0,51.0
1558,83.0,0,144,0.0,51.0
1559,62.0,192,144,1.0,51.0
1560,84.0,0,144,0.0,51.0
1561,86.0,0,144,0.0,51.0
1562,55.0,192,144,1.0,51.0
1563,62.0,192,144,1.0,51.0
1564,83.0,0,144,0.0,51.0
1565,59.0,0,144,1.0,51.0
1566,62.0,192,144,1.0,51.0
1567,59.0,192,144,1.0,51.0
1568,79.0,192,528,0.0,51.0
1569,62.0,192,144,1.0,51.0
1570,81.0,0,144,0.0,51.0
1571,60.0,192,144,1.0,51.0
1572,62.0,0,144,1.0,51.0
1573,83.0,192,144,0.0,51.0
1574,84.0,192,144,0.0,51.0
1575,60.0,0,144,1.0,51.0
1576,62.0,0,144,1.0,51.0
1577,81.0,192,144,0.0,51.0
1578,57.0,192,144,1.0,51.0
1579,62.0,192,144,1.0,51.0
1580,57.0,192,144,1.0,51.0
1581,78.0,0,528,0.0,51.0
1582,62.0,192,144,1.0,51.0
1583,79.0,192,92,0.0,51.0
1584,59.0,0,144,1.0,51.0
1585,78.0,96,188,0.0,51.0
1586,62.0,96,144,1.0,51.0
1587,76.0,192,92,0.0,51.0
1588,55.0,0,144,1.0,51.0
1589,74.0,96,188,0.0,51.0
1590,62.0,96,144,1.0,51.0
1591,71.0,192,92,0.0,51.0
1592,57.0,0,144,1.0,51.0
1593,72.0,96,188,0.0,51.0
1594,62.0,96,144,1.0,51.0
1595,54.0,192,144,1.0,51.0
1596,62.0,192,144,1.0,51.0
1597,72.0,192,92,0.0,51.0
1598,55.0,0,144,1.0,51.0
1599,71.0,96,188,0.0,51.0
1600,62.0,96,144,1.0,51.0
1601,69.0,0,92,0.0,51.0
1602,52.0,192,144,1.0,51.0
1603,67.0,96,188,0.0,51.0
1604,61.0,96,144,1.0,51.0
1605,76.0,192,92,0.0,51.0
1606,50.0,0,144,1.0,51.0
1607,74.0,96,188,0.0,51.0
1608,62.0,96,144,1.0,51.0
1609,48.0,192,144,1.0,51.0
1610,60.0,192,144,1.0,51.0
1611,47.0,0,92,1.0,72.0
1612,55.0,96,92,1.0,72.0
1613,54.0,96,92,1.0,72.0
1614,55.0,96,92,1.0,72.0
1615,57.0,96,92,1.0,72.0
1616,55.0,96,92,1.0,72.0
1617,54.0,96,92,1.0,72.0
1618,74.0,192,764,0.0,72.0
1619,86.0,0,764,0.0,72.0
1620,55.0,96,92,1.0,72.0
1621,84.0,96,144,0.0,72.0
1622,83.0,192,144,0.0,72.0
1623,47.0,0,380,1.0,72.0
1624,81.0,192,144,0.0,72.0
1625,79.0,192,144,0.0,72.0
1626,48.0,192,92,1.0,72.0
1627,55.0,96,92,1.0,72.0
1628,54.0,96,92,1.0,72.0
1629,55.0,96,92,1.0,72.0
1630,57.0,96,92,1.0,72.0
1631,55.0,96,92,1.0,72.0
1632,54.0,96,92,1.0,72.0
1633,76.0,0,764,0.0,72.0
1634,88.0,0,764,0.0,72.0
1635,55.0,96,92,1.0,72.0
1636,86.0,96,144,0.0,72.0
1637,84.0,192,144,0.0,72.0
1638,48.0,0,380,1.0,72.0
1639,83.0,192,144,0.0,72.0
1640,81.0,192,144,0.0,72.0
1641,83.0,192,92,0.0,51.0
1642,50.0,0,144,1.0,51.0
1643,84.0,96,92,0.0,51.0
1644,86.0,0,92,0.0,51.0
1645,55.0,96,144,1.0,51.0
1646,83.0,96,92,0.0,51.0
1647,59.0,0,144,1.0,51.0
1648,79.0,96,188,0.0,51.0
1649,55.0,192,144,1.0,51.0
1650,81.0,0,92,0.0,51.0
1651,50.0,192,144,1.0,51.0
1652,83.0,96,92,0.0,51.0
1653,84.0,0,92,0.0,51.0
1654,57.0,96,144,1.0,51.0
1655,81.0,96,92,0.0,51.0
1656,60.0,96,144,1.0,51.0
1657,78.0,0,188,0.0,51.0
1658,57.0,192,144,1.0,51.0
1659,48.0,0,92,1.0,72.0
1660,55.0,96,92,1.0,51.0
1661,54.0,96,92,1.0,51.0
1662,55.0,96,92,1.0,51.0
1663,57.0,96,92,1.0,51.0
1664,55.0,96,92,1.0,51.0
1665,54.0,96,92,1.0,51.0
1666,55.0,96,92,1.0,51.0
1667,86.0,0,764,0.0,72.0
1668,74.0,192,764,0.0,72.0
1669,84.0,96,92,0.0,72.0
1670,86.0,96,92,0.0,72.0
1671,84.0,96,92,0.0,72.0
1672,83.0,96,92,0.0,72.0
1673,47.0,0,380,1.0,51.0
1674,81.0,96,92,0.0,72.0
1675,83.0,96,92,0.0,72.0
1676,81.0,96,92,0.0,72.0
1677,79.0,96,92,0.0,72.0
1678,48.0,96,92,1.0,51.0
1679,55.0,96,92,1.0,51.0
1680,54.0,96,92,1.0,51.0
1681,55.0,96,92,1.0,51.0
1682,57.0,96,92,1.0,51.0
1683,55.0,96,92,1.0,51.0
1684,54.0,96,92,1.0,51.0
1685,76.0,0,764,0.0,72.0
1686,55.0,96,92,1.0,51.0
1687,88.0,0,764,0.0,72.0
1688,86.0,0,92,0.0,72.0
1689,88.0,96,92,0.0,72.0
1690,86.0,96,92,0.0,72.0
1691,48.0,96,380,1.0,51.0
1692,84.0,96,92,0.0,72.0
1693,83.0,96,92,0.0,72.0
1694,84.0,96,92,0.0,72.0
1695,83.0,96,92,0.0,72.0
1696,81.0,96,92,0.0,72.0
1697,83.0,0,144,0.0,51.0
1698,62.0,96,144,0.0,51.0
1699,79.0,192,144,0.0,51.0
1700,67.0,0,144,0.0,51.0
1701,64.0,192,144,0.0,51.0
1702,67.0,192,144,0.0,51.0
1703,84.0,0,380,0.0,77.0
1704,83.0,192,144,0.0,51.0
1705,62.0,0,144,0.0,51.0
1706,67.0,0,144,0.0,51.0
1707,79.0,192,144,0.0,51.0
1708,60.0,0,144,0.0,51.0
1709,67.0,192,144,0.0,51.0
1710,88.0,192,380,0.0,77.0
1711,86.0,192,144,0.0,51.0
1712,59.0,0,144,0.0,51.0
1713,79.0,192,144,0.0,51.0
1714,67.0,0,144,0.0,51.0
1715,64.0,0,144,0.0,51.0
1716,67.0,192,144,0.0,51.0
1717,84.0,192,380,0.0,77.0
1718,83.0,192,144,0.0,51.0
1719,62.0,0,144,0.0,51.0
1720,67.0,0,144,0.0,51.0
1721,79.0,192,144,0.0,51.0
1722,60.0,0,144,0.0,51.0
1723,67.0,192,144,0.0,51.0
1724,88.0,192,380,0.0,77.0
1725,62.0,0,144,0.0,66.0
1726,59.0,0,144,0.0,66.0
1727,68.0,0,144,0.0,66.0
1728,62.0,0,144,0.0,66.0
1729,59.0,192,144,0.0,66.0
1730,68.0,0,144,0.0,66.0
1731,62.0,192,144,0.0,66.0
1732,59.0,0,144,0.0,66.0
1733,68.0,0,144,0.0,66.0
1734,68.0,192,144,0.0,66.0
1735,62.0,0,144,0.0,66.0
1736,59.0,0,144,0.0,66.0
1737,77.0,0,764,0.0,72.0
1738,89.0,192,764,0.0,72.0
1739,68.0,0,144,0.0,66.0
1740,62.0,0,144,0.0,66.0
1741,59.0,0,144,0.0,66.0
1742,68.0,192,144,0.0,66.0
1743,62.0,0,144,0.0,66.0
1744,59.0,0,144,0.0,66.0
1745,89.0,0,380,0.0,72.0
1746,77.0,192,380,0.0,72.0
1747,68.0,0,144,0.0,66.0
1748,62.0,192,144,0.0,66.0
1749,59.0,0,144,0.0,66.0
1750,68.0,192,144,0.0,66.0
1751,62.0,0,144,0.0,66.0
1752,59.0,0,144,0.0,66.0
1753,89.0,0,380,0.0,72.0
1754,77.0,0,380,0.0,72.0
1755,88.0,0,144,0.0,72.0
1756,76.0,0,144,0.0,72.0
1757,68.0,0,144,0.0,66.0
1758,62.0,192,144,0.0,66.0
1759,59.0,0,144,0.0,66.0
1760,86.0,192,144,0.0,72.0
1761,84.0,192,48,0.0,72.0
1762,86.0,48,48,0.0,72.0
1763,84.0,48,48,0.0,72.0
1764,86.0,48,48,0.0,72.0
1765,83.0,48,188,0.0,66.0
1766,81.0,192,48,0.0,72.0
1767,83.0,48,48,0.0,72.0
1768,81.0,48,48,0.0,72.0
1769,83.0,48,48,0.0,72.0
1770,79.0,48,188,0.0,66.0
1771,78.0,192,48,0.0,72.0
1772,79.0,48,48,0.0,72.0
1773,78.0,48,48,0.0,72.0
1774,79.0,48,48,0.0,72.0
1775,76.0,48,188,0.0,66.0
1776,50.0,0,92,1.0,66.0
1777,74.0,192,144,0.0,72.0
1778,59.0,96,92,1.0,66.0
1779,76.0,96,92,0.0,72.0
1780,55.0,0,92,1.0,66.0
1781,78.0,0,92,0.0,72.0
1782,59.0,96,92,1.0,66.0
1783,79.0,0,92,0.0,72.0
1784,50.0,96,92,1.0,66.0
1785,59.0,0,92,1.0,66.0
1786,81.0,96,92,0.0,72.0
1787,83.0,96,92,0.0,72.0
1788,55.0,0,92,1.0,66.0
1789,59.0,0,92,1.0,66.0
1790,84.0,96,92,0.0,72.0
1791,50.0,0,92,1.0,66.0
1792,86.0,96,92,0.0,72.0
1793,84.0,0,92,0.0,72.0
1794,59.0,96,92,1.0,66.0
1795,55.0,0,92,1.0,66.0
1796,83.0,96,92,0.0,72.0
1797,84.0,96,92,0.0,72.0
1798,59.0,0,92,1.0,66.0
1799,86.0,0,92,0.0,72.0
1800,50.0,96,92,1.0,66.0
1801,59.0,96,92,1.0,66.0
1802,83.0,0,92,0.0,72.0
1803,55.0,0,92,1.0,66.0
1804,81.0,96,92,0.0,72.0
1805,79.0,96,92,0.0,72.0
1806,59.0,0,92,1.0,66.0
1807,81.0,96,44,0.0,66.0
1808,50.0,0,92,1.0,61.0
1809,83.0,48,44,0.0,66.0
1810,81.0,0,44,0.0,66.0
1811,83.0,48,44,0.0,66.0
1812,60.0,48,92,1.0,61.0
1813,81.0,0,44,0.0,66.0
1814,53.0,48,92,1.0,61.0
1815,83.0,48,44,0.0,66.0
1816,81.0,0,44,0.0,66.0
1817,83.0,48,44,0.0,66.0
1818,60.0,48,92,1.0,61.0
1819,81.0,0,44,0.0,66.0
1820,83.0,48,44,0.0,66.0
1821,50.0,48,92,1.0,61.0
1822,81.0,0,44,0.0,66.0
1823,83.0,48,44,0.0,66.0
1824,60.0,48,92,1.0,61.0
1825,81.0,0,44,0.0,66.0
1826,83.0,48,44,0.0,66.0
1827,53.0,48,92,1.0,61.0
1828,81.0,48,44,0.0,66.0
1829,83.0,48,44,0.0,66.0
1830,60.0,0,92,1.0,61.0
1831,81.0,48,44,0.0,66.0
1832,83.0,48,44,0.0,66.0
1833,50.0,0,92,1.0,61.0
1834,81.0,0,44,0.0,66.0
1835,60.0,48,92,1.0,61.0
1836,83.0,48,44,0.0,66.0
1837,81.0,48,44,0.0,66.0
1838,83.0,48,44,0.0,66.0
1839,53.0,0,92,1.0,61.0
1840,81.0,48,44,0.0,66.0
1841,83.0,48,44,0.0,66.0
1842,60.0,0,92,1.0,61.0
1843,81.0,0,44,0.0,66.0
1844,50.0,48,92,1.0,61.0
1845,83.0,48,44,0.0,66.0
1846,81.0,0,44,0.0,66.0
1847,60.0,48,92,1.0,61.0
1848,83.0,48,44,0.0,66.0
1849,53.0,48,92,1.0,61.0
1850,79.0,0,92,0.0,66.0
1851,60.0,96,92,1.0,61.0
1852,81.0,0,92,0.0,66.0
1853,79.0,0,380,0.0,66.0
1854,59.0,96,380,1.0,51.0
1855,55.0,0,380,1.0,51.0
1856,71.0,144,144,0.0,51.0
1857,67.0,384,380,0.0,51.0
1858,74.0,0,144,0.0,51.0
1859,72.0,192,144,0.0,51.0
1860,69.0,240,380,0.0,51.0
1861,69.0,192,144,0.0,51.0
1862,66.0,192,380,0.0,51.0
1863,72.0,192,144,0.0,51.0
1864,71.0,192,144,0.0,51.0
1865,67.0,0,380,0.0,51.0
1866,67.0,192,144,0.0,51.0
1867,64.0,192,380,0.0,51.0
1868,71.0,192,144,0.0,51.0
1869,69.0,192,144,0.0,51.0
1870,60.0,0,380,0.0,51.0
1871,66.0,192,144,0.0,51.0
1872,62.0,192,380,0.0,51.0
1873,69.0,192,144,0.0,51.0
1874,67.0,192,144,0.0,51.0
1875,59.0,0,380,0.0,51.0
1876,71.0,0,92,0.0,72.0
1877,72.0,96,92,0.0,72.0
1878,74.0,96,92,0.0,72.0
1879,71.0,96,92,0.0,72.0
1880,43.0,0,380,1.0,77.0
1881,55.0,192,380,1.0,77.0
1882,72.0,96,92,0.0,72.0
1883,74.0,96,92,0.0,72.0
1884,76.0,96,92,0.0,72.0
1885,45.0,0,380,1.0,77.0
1886,72.0,96,92,0.0,72.0
1887,57.0,0,380,1.0,77.0
1888,81.0,96,92,0.0,72.0
1889,83.0,96,92,0.0,72.0
1890,84.0,96,92,0.0,72.0
1891,54.0,0,380,1.0,77.0
1892,81.0,96,92,0.0,72.0
1893,42.0,0,380,1.0,77.0
1894,83.0,96,92,0.0,72.0
1895,84.0,96,92,0.0,72.0
1896,86.0,96,92,0.0,72.0
1897,55.0,0,380,1.0,77.0
1898,83.0,96,92,0.0,72.0
1899,43.0,0,380,1.0,77.0
1900,67.0,0,92,0.0,72.0
1901,69.0,96,92,0.0,72.0
1902,71.0,96,92,0.0,72.0
1903,40.0,0,380,1.0,77.0
1904,67.0,96,92,0.0,72.0
1905,52.0,96,380,1.0,77.0
1906,69.0,0,92,0.0,72.0
1907,71.0,96,92,0.0,72.0
1908,72.0,96,92,0.0,72.0
1909,48.0,96,380,1.0,77.0
1910,36.0,0,380,1.0,77.0
1911,69.0,96,92,0.0,72.0
1912,78.0,96,92,0.0,72.0
1913,79.0,96,92,0.0,72.0
1914,81.0,96,92,0.0,72.0
1915,50.0,0,380,1.0,77.0
1916,38.0,0,380,1.0,77.0
1917,78.0,96,92,0.0,72.0
1918,79.0,96,380,0.0,77.0
1919,43.0,0,380,1.0,77.0
1920,43.0,0,380,1.0,77.0
1921,74.0,384,380,0.0,77.0
1922,55.0,0,380,1.0,77.0
1923,79.0,16,380,0.0,77.0
1924,83.0,20,380,0.0,77.0
1925,71.0,0,380,0.0,77.0
1926,55.0,0,380,1.0,77.0
1927,43.0,348,380,1.0,77.0
1928,74.0,16,380,0.0,77.0
1929,79.0,20,380,0.0,77.0
1930,55.0,732,48,0.0,72.0
1931,58.0,48,48,0.0,72.0
1932,62.0,48,48,0.0,72.0
1933,67.0,0,604,0.0,72.0
1934,31.0,0,764,1.0,72.0
1935,43.0,48,764,1.0,72.0
1936,62.0,624,764,0.0,72.0
1937,38.0,0,764,1.0,72.0
1938,70.0,0,572,0.0,72.0
1939,46.0,768,572,1.0,72.0
1940,72.0,576,92,0.0,72.0
1941,48.0,0,92,1.0,72.0
1942,69.0,0,92,0.0,72.0
1943,45.0,96,92,1.0,72.0
1944,67.0,0,380,0.0,72.0
1945,43.0,96,380,1.0,72.0
1946,74.0,0,572,0.0,51.0
1947,70.0,768,572,0.0,51.0
1948,75.0,576,92,0.0,51.0
1949,72.0,0,92,0.0,51.0
1950,69.0,0,92,0.0,51.0
1951,72.0,96,92,0.0,51.0
1952,70.0,0,380,0.0,51.0
1953,67.0,96,380,0.0,51.0
1954,82.0,768,572,0.0,41.0
1955,74.0,0,572,0.0,41.0
1956,84.0,576,92,0.0,41.0
1957,75.0,0,92,0.0,41.0
1958,81.0,96,92,0.0,41.0
1959,72.0,0,92,0.0,41.0
1960,79.0,96,380,0.0,41.0
1961,70.0,0,380,0.0,41.0
1962,62.0,768,144,0.0,51.0
1963,58.0,0,144,0.0,51.0
1964,67.0,192,144,0.0,51.0
1965,62.0,0,144,0.0,51.0
1966,58.0,192,144,0.0,51.0
1967,67.0,192,144,0.0,51.0
1968,79.0,0,380,0.0,51.0
1969,62.0,0,144,0.0,51.0
1970,58.0,0,144,0.0,51.0
1971,67.0,192,144,0.0,51.0
1972,86.0,192,380,0.0,51.0
1973,62.0,192,144,0.0,51.0
1974,58.0,0,144,0.0,51.0
1975,67.0,192,144,0.0,51.0
1976,88.0,0,380,0.0,51.0
1977,57.0,0,144,0.0,51.0
1978,64.0,0,144,0.0,51.0
1979,67.0,192,144,0.0,51.0
1980,57.0,0,144,0.0,51.0
1981,86.0,192,528,0.0,51.0
1982,64.0,192,144,0.0,51.0
1983,67.0,192,144,0.0,51.0
1984,64.0,0,144,0.0,51.0
1985,57.0,0,144,0.0,51.0
1986,67.0,192,144,0.0,51.0
1987,85.0,192,380,0.0,51.0
1988,64.0,0,144,0.0,51.0
1989,57.0,192,144,0.0,51.0
1990,67.0,192,144,0.0,51.0
1991,62.0,192,144,0.0,51.0
1992,58.0,0,144,0.0,51.0
1993,67.0,192,144,0.0,51.0
1994,79.0,96,92,0.0,51.0
1995,79.0,0,44,0.0,51.0
1996,81.0,48,44,0.0,51.0
1997,79.0,48,44,0.0,51.0
1998,62.0,96,144,0.0,51.0
1999,58.0,0,144,0.0,51.0
2000,81.0,48,44,0.0,51.0
2001,78.0,48,44,0.0,51.0
2002,79.0,96,44,0.0,51.0
2003,67.0,0,144,0.0,51.0
2004,62.0,0,144,0.0,51.0
2005,58.0,0,144,0.0,51.0
2006,67.0,192,144,0.0,51.0
2007,86.0,96,380,0.0,51.0
2008,62.0,0,144,0.0,51.0
2009,58.0,0,144,0.0,51.0
2010,67.0,192,144,0.0,51.0
2011,88.0,192,380,0.0,51.0
2012,64.0,0,144,0.0,51.0
2013,57.0,192,144,0.0,51.0
2014,67.0,192,144,0.0,51.0
2015,57.0,192,144,0.0,51.0
2016,64.0,0,144,0.0,51.0
2017,67.0,192,144,0.0,51.0
2018,86.0,0,764,0.0,51.0
2019,64.0,0,144,0.0,51.0
2020,57.0,0,144,0.0,51.0
2021,67.0,192,144,0.0,51.0
2022,85.0,192,380,0.0,51.0
2023,64.0,0,144,0.0,51.0
2024,57.0,192,144,0.0,51.0
2025,67.0,192,144,0.0,51.0
2026,50.0,192,44,1.0,72.0
2027,53.0,48,44,1.0,72.0
2028,57.0,48,44,1.0,72.0
2029,38.0,48,604,1.0,72.0
2030,62.0,0,604,1.0,72.0
2031,50.0,0,604,1.0,72.0
2032,45.0,624,764,1.0,72.0
2033,57.0,0,764,1.0,72.0
2034,53.0,768,572,1.0,72.0
2035,65.0,0,572,0.0,72.0
2036,55.0,576,92,1.0,72.0
2037,67.0,0,92,0.0,72.0
2038,64.0,96,92,0.0,72.0
2039,52.0,0,92,1.0,72.0
2040,50.0,0,380,1.0,72.0
2041,62.0,96,764,0.0,72.0
2042,57.0,768,144,1.0,51.0
2043,62.0,192,144,1.0,51.0
2044,53.0,0,380,1.0,51.0
2045,74.0,96,92,0.0,51.0
2046,76.0,96,44,0.0,51.0
2047,74.0,48,44,0.0,51.0
2048,73.0,48,44,0.0,51.0
2049,57.0,0,144,1.0,51.0
2050,74.0,48,44,0.0,51.0
2051,73.0,0,92,0.0,51.0
2052,62.0,48,144,1.0,51.0
2053,53.0,0,380,1.0,51.0
2054,74.0,96,92,0.0,51.0
2055,57.0,0,144,1.0,51.0
2056,62.0,192,144,1.0,51.0
2057,53.0,96,380,1.0,51.0
2058,81.0,0,380,0.0,51.0
2059,57.0,0,144,1.0,51.0
2060,62.0,192,144,1.0,51.0
2061,83.0,0,380,0.0,51.0
2062,53.0,192,380,1.0,51.0
2063,59.0,0,144,1.0,51.0
2064,62.0,192,144,1.0,51.0
2065,52.0,0,380,1.0,51.0
2066,59.0,0,144,1.0,51.0
2067,62.0,192,144,1.0,51.0
2068,52.0,192,380,1.0,51.0
2069,81.0,192,764,0.0,51.0
2070,59.0,192,144,1.0,51.0
2071,62.0,192,144,1.0,51.0
2072,52.0,0,380,1.0,51.0
2073,80.0,0,380,0.0,51.0
2074,59.0,0,144,1.0,51.0
2075,62.0,192,144,1.0,51.0
2076,52.0,192,380,1.0,51.0
2077,57.0,192,144,1.0,51.0
2078,62.0,0,144,1.0,51.0
2079,81.0,176,144,0.0,51.0
2080,53.0,16,364,1.0,51.0
2081,53.0,0,12,1.0,51.0
2082,57.0,192,144,1.0,51.0
2083,86.0,0,144,0.0,51.0
2084,62.0,192,144,1.0,51.0
2085,85.0,0,144,0.0,51.0
2086,57.0,0,144,1.0,51.0
2087,88.0,0,144,0.0,51.0
2088,86.0,0,144,0.0,51.0
2089,62.0,192,144,1.0,51.0
2090,53.0,192,380,1.0,51.0
2091,84.0,0,144,0.0,51.0
2092,57.0,0,144,1.0,51.0
2093,62.0,192,144,1.0,51.0
2094,83.0,0,144,0.0,51.0
2095,53.0,192,380,1.0,51.0
2096,59.0,0,144,1.0,51.0
2097,62.0,192,144,1.0,51.0
2098,52.0,192,380,1.0,51.0
2099,59.0,0,144,1.0,51.0
2100,81.0,0,672,0.0,51.0
2101,83.0,96,48,0.0,51.0
2102,62.0,192,144,1.0,51.0
2103,52.0,192,380,1.0,51.0
2104,81.0,48,48,0.0,51.0
2105,59.0,0,144,1.0,51.0
2106,62.0,192,144,1.0,51.0
2107,52.0,0,380,1.0,51.0
2108,80.0,48,380,0.0,51.0
2109,59.0,192,144,1.0,51.0
2110,62.0,192,144,1.0,51.0
2111,52.0,0,380,1.0,51.0
2112,57.0,0,92,1.0,72.0
2113,64.0,96,92,1.0,72.0
2114,60.0,96,92,1.0,72.0
2115,64.0,96,92,1.0,72.0
2116,57.0,96,92,1.0,72.0
2117,64.0,96,92,1.0,72.0
2118,60.0,96,92,1.0,72.0
2119,72.0,0,764,0.0,51.0
2120,64.0,96,92,1.0,72.0
2121,84.0,192,764,0.0,51.0
2122,57.0,0,92,1.0,72.0
2123,64.0,96,92,1.0,72.0
2124,60.0,96,92,1.0,72.0
2125,64.0,96,92,1.0,72.0
2126,57.0,96,92,1.0,72.0
2127,64.0,96,92,1.0,72.0
2128,60.0,96,92,1.0,72.0
2129,81.0,96,764,0.0,51.0
2130,69.0,0,764,0.0,51.0
2131,64.0,96,92,1.0,72.0
2132,57.0,0,92,1.0,72.0
2133,66.0,96,92,1.0,72.0
2134,60.0,96,92,1.0,72.0
2135,66.0,96,92,1.0,72.0
2136,57.0,96,92,1.0,72.0
2137,87.0,96,572,0.0,51.0
2138,66.0,96,92,1.0,72.0
2139,88.0,96,92,0.0,51.0
2140,60.0,0,92,1.0,72.0
2141,87.0,96,92,0.0,51.0
2142,66.0,0,92,1.0,72.0
2143,57.0,0,92,1.0,72.0
2144,66.0,96,92,1.0,72.0
2145,59.0,96,92,1.0,72.0
2146,88.0,96,380,0.0,51.0
2147,66.0,96,92,1.0,72.0
2148,57.0,96,92,1.0,72.0
2149,66.0,96,92,1.0,72.0
2150,59.0,96,92,1.0,72.0
2151,66.0,96,92,1.0,72.0
2152,55.0,0,92,1.0,72.0
2153,62.0,96,92,1.0,72.0
2154,58.0,96,92,1.0,72.0
2155,62.0,96,92,1.0,72.0
2156,55.0,96,92,1.0,72.0
2157,62.0,96,92,1.0,72.0
2158,58.0,96,92,1.0,72.0
2159,70.0,96,764,0.0,51.0
2160,62.0,96,92,1.0,72.0
2161,82.0,0,764,0.0,51.0
2162,55.0,0,92,1.0,72.0
2163,61.0,96,92,1.0,72.0
2164,58.0,96,92,1.0,72.0
2165,61.0,96,92,1.0,72.0
2166,55.0,96,92,1.0,72.0
2167,61.0,96,92,1.0,72.0
2168,58.0,96,92,1.0,72.0
2169,79.0,96,764,0.0,51.0
2170,61.0,96,92,1.0,72.0
2171,67.0,0,764,0.0,51.0
2172,55.0,0,92,1.0,72.0
2173,64.0,96,92,1.0,72.0
2174,58.0,96,92,1.0,72.0
2175,64.0,96,92,1.0,72.0
2176,55.0,96,92,1.0,72.0
2177,64.0,96,92,1.0,72.0
2178,85.0,96,572,0.0,51.0
2179,86.0,96,92,0.0,51.0
2180,58.0,0,92,1.0,72.0
2181,64.0,96,92,1.0,72.0
2182,85.0,0,92,0.0,51.0
2183,54.0,0,92,1.0,72.0
2184,62.0,96,92,1.0,72.0
2185,57.0,96,92,1.0,72.0
2186,86.0,96,380,0.0,51.0
2187,62.0,96,92,1.0,72.0
2188,54.0,96,92,1.0,72.0
2189,62.0,96,92,1.0,72.0
2190,57.0,96,92,1.0,72.0
2191,62.0,96,92,1.0,72.0
2192,53.0,0,92,1.0,72.0
2193,60.0,96,92,1.0,72.0
2194,56.0,96,92,1.0,72.0
2195,62.0,96,92,1.0,72.0
2196,53.0,96,92,1.0,72.0
2197,83.0,96,572,0.0,51.0
2198,60.0,96,92,1.0,72.0
2199,56.0,0,92,1.0,72.0
2200,84.0,96,92,0.0,51.0
2201,60.0,96,92,1.0,72.0
2202,83.0,0,92,0.0,51.0
2203,52.0,96,92,1.0,72.0
2204,60.0,96,92,1.0,72.0
2205,55.0,96,92,1.0,72.0
2206,84.0,0,380,0.0,51.0
2207,60.0,96,92,1.0,72.0
2208,52.0,96,92,1.0,72.0
2209,60.0,96,92,1.0,72.0
2210,55.0,96,92,1.0,72.0
2211,60.0,96,92,1.0,72.0
2212,50.0,0,92,1.0,72.0
2213,59.0,96,92,1.0,72.0
2214,53.0,96,92,1.0,72.0
2215,59.0,96,92,1.0,72.0
2216,50.0,96,92,1.0,72.0
2217,80.0,96,572,0.0,51.0
2218,59.0,96,92,1.0,72.0
2219,81.0,96,92,0.0,51.0
2220,53.0,0,92,1.0,72.0
2221,59.0,96,92,1.0,72.0
2222,80.0,0,92,0.0,51.0
2223,48.0,0,92,1.0,72.0
2224,57.0,96,92,1.0,72.0
2225,52.0,96,92,1.0,72.0
2226,81.0,96,380,0.0,51.0
2227,57.0,96,92,1.0,72.0
2228,48.0,96,92,1.0,72.0
2229,57.0,96,92,1.0,72.0
2230,52.0,96,92,1.0,72.0
2231,57.0,96,92,1.0,72.0
2232,81.0,192,144,0.0,51.0
2233,39.0,96,380,1.0,72.0
2234,51.0,0,380,1.0,72.0
2235,84.0,192,144,0.0,51.0
2236,78.0,192,144,0.0,51.0
2237,81.0,192,144,0.0,51.0
2238,75.0,192,144,0.0,51.0
2239,78.0,192,144,0.0,51.0
2240,72.0,192,144,0.0,51.0
2241,75.0,192,144,0.0,51.0
2242,69.0,192,144,0.0,51.0
2243,57.0,0,144,1.0,72.0
2244,60.0,0,144,1.0,72.0
2245,72.0,192,144,0.0,51.0
2246,66.0,192,144,0.0,51.0
2247,54.0,0,144,1.0,72.0
2248,69.0,192,144,0.0,51.0
2249,57.0,0,144,1.0,72.0
2250,63.0,0,144,0.0,51.0
2251,51.0,192,144,1.0,72.0
2252,66.0,0,144,0.0,51.0
2253,54.0,192,144,1.0,72.0
2254,45.0,0,144,1.0,72.0
2255,57.0,192,144,0.0,51.0
2256,60.0,0,144,1.0,72.0
2257,48.0,192,144,1.0,72.0
2258,54.0,192,144,1.0,72.0
2259,42.0,0,144,1.0,72.0
2260,45.0,0,144,1.0,72.0
2261,57.0,192,144,1.0,72.0
2262,51.0,192,144,1.0,72.0
2263,39.0,0,144,1.0,72.0
2264,52.0,192,380,1.0,72.0
2265,40.0,0,380,1.0,72.0
2266,40.0,384,380,1.0,72.0
2267,52.0,0,380,1.0,72.0
2268,76.0,0,380,0.0,51.0
2269,80.0,0,380,0.0,51.0
2270,74.0,0,380,0.0,51.0
2271,71.0,0,380,0.0,51.0
2272,81.0,0,380,0.0,51.0
2273,57.0,0,380,1.0,51.0
2274,45.0,384,380,1.0,51.0
2275,76.0,0,380,0.0,51.0
2276,72.0,0,380,0.0,51.0
2277,72.0,192,144,0.0,51.0
2278,69.0,384,380,0.0,51.0
2279,76.0,192,144,0.0,51.0
2280,74.0,192,144,0.0,51.0
2281,71.0,0,380,0.0,51.0
2282,71.0,192,144,0.0,51.0
2283,68.0,192,380,0.0,51.0
2284,74.0,192,144,0.0,51.0
2285,72.0,192,144,0.0,51.0
2286,69.0,0,380,0.0,51.0
2287,69.0,192,144,0.0,51.0
2288,65.0,192,380,0.0,51.0
2289,72.0,192,144,0.0,51.0
2290,71.0,192,144,0.0,51.0
2291,62.0,0,380,0.0,51.0
2292,68.0,192,144,0.0,51.0
2293,64.0,192,380,0.0,51.0
2294,71.0,0,144,0.0,51.0
2295,69.0,192,144,0.0,51.0
2296,60.0,192,380,0.0,51.0
2297,72.0,0,92,0.0,72.0
2298,74.0,96,92,0.0,72.0
2299,76.0,96,92,0.0,72.0
2300,57.0,0,380,1.0,72.0
2301,45.0,192,380,1.0,72.0
2302,72.0,96,92,0.0,72.0
2303,74.0,0,92,0.0,72.0
2304,76.0,96,92,0.0,72.0
2305,77.0,96,92,0.0,72.0
2306,59.0,96,380,1.0,72.0
2307,74.0,96,92,0.0,72.0
2308,47.0,0,380,1.0,72.0
2309,71.0,0,92,0.0,72.0
2310,72.0,96,92,0.0,72.0
2311,74.0,96,92,0.0,72.0
2312,44.0,96,380,1.0,72.0
2313,56.0,0,380,1.0,72.0
2314,71.0,96,92,0.0,72.0
2315,72.0,0,92,0.0,72.0
2316,74.0,96,92,0.0,72.0
2317,76.0,96,92,0.0,72.0
2318,72.0,96,92,0.0,72.0
2319,45.0,0,380,1.0,72.0
2320,57.0,96,380,1.0,72.0
2321,69.0,96,92,0.0,72.0
2322,71.0,96,92,0.0,72.0
2323,72.0,96,92,0.0,72.0
2324,69.0,96,92,0.0,72.0
2325,53.0,0,380,1.0,72.0
2326,41.0,0,380,1.0,72.0
2327,71.0,0,92,0.0,72.0
2328,72.0,96,92,0.0,72.0
2329,74.0,96,92,0.0,72.0
2330,71.0,96,92,0.0,72.0
2331,38.0,96,380,1.0,72.0
2332,50.0,0,380,1.0,72.0
2333,68.0,96,92,0.0,72.0
2334,69.0,96,92,0.0,72.0
2335,71.0,96,92,0.0,72.0
2336,40.0,0,380,1.0,72.0
2337,52.0,0,380,1.0,72.0
2338,68.0,96,92,0.0,72.0
2339,57.0,96,44,0.0,72.0
2340,60.0,48,44,0.0,72.0
2341,64.0,48,44,0.0,72.0
2342,69.0,0,604,0.0,72.0
2343,33.0,48,764,1.0,72.0
2344,45.0,0,764,1.0,72.0
2345,40.0,0,764,1.0,72.0
2346,64.0,624,764,0.0,72.0
2347,48.0,0,572,1.0,72.0
2348,72.0,768,572,0.0,72.0
2349,74.0,576,48,0.0,72.0
2350,50.0,0,92,1.0,72.0
2351,71.0,96,48,0.0,72.0
2352,47.0,0,92,1.0,72.0
2353,69.0,96,380,0.0,72.0
2354,45.0,0,380,1.0,72.0
2355,76.0,768,572,0.0,51.0
2356,72.0,0,572,0.0,51.0
2357,74.0,576,92,0.0,51.0
2358,77.0,0,92,0.0,51.0
2359,71.0,96,92,0.0,51.0
2360,74.0,0,92,0.0,51.0
2361,69.0,96,380,0.0,51.0
2362,72.0,0,380,0.0,51.0
2363,84.0,0,572,0.0,41.0
2364,76.0,768,572,0.0,41.0
2365,86.0,576,92,0.0,41.0
2366,77.0,0,92,0.0,41.0
2367,83.0,96,92,0.0,41.0
2368,74.0,0,92,0.0,41.0
2369,81.0,0,380,0.0,41.0
2370,72.0,96,380,0.0,41.0
2371,59.0,768,48,0.0,72.0
2372,62.0,48,48,0.0,72.0
2373,67.0,48,48,0.0,72.0
2374,71.0,48,604,0.0,72.0
2375,47.0,0,604,1.0,72.0
2376,35.0,0,604,1.0,72.0
2377,31.0,0,764,1.0,72.0
2378,67.0,624,764,0.0,72.0
2379,43.0,0,764,1.0,72.0
2380,74.0,768,572,0.0,72.0
2381,50.0,0,572,1.0,72.0
2382,76.0,0,92,0.0,72.0
2383,52.0,576,92,1.0,72.0
2384,48.0,96,92,1.0,72.0
2385,72.0,0,92,0.0,72.0
2386,71.0,96,380,0.0,72.0
2387,47.0,0,380,1.0,72.0
2388,77.0,0,572,0.0,51.0
2389,74.0,768,572,0.0,51.0
2390,76.0,0,92,0.0,51.0
2391,79.0,576,92,0.0,51.0
2392,72.0,96,92,0.0,51.0
2393,76.0,0,92,0.0,51.0
2394,74.0,96,380,0.0,51.0
2395,71.0,0,380,0.0,51.0
2396,86.0,768,572,0.0,41.0
2397,77.0,0,572,0.0,41.0
2398,88.0,576,92,0.0,41.0
2399,79.0,0,92,0.0,41.0
2400,84.0,0,92,0.0,41.0
2401,76.0,96,92,0.0,41.0
2402,83.0,96,380,0.0,41.0
2403,74.0,0,380,0.0,41.0
2404,60.0,768,48,0.0,72.0
2405,64.0,48,48,0.0,72.0
2406,67.0,48,48,0.0,72.0
2407,48.0,0,528,1.0,51.0
2408,36.0,0,528,1.0,51.0
2409,72.0,48,604,0.0,72.0
2410,43.0,0,528,1.0,51.0
2411,31.0,624,528,1.0,51.0
2412,67.0,0,764,0.0,72.0
2413,52.0,768,572,1.0,51.0
2414,76.0,0,572,0.0,72.0
2415,55.0,0,92,1.0,51.0
2416,77.0,576,92,0.0,72.0
2417,50.0,96,92,1.0,51.0
2418,74.0,0,92,0.0,72.0
2419,72.0,0,380,0.0,72.0
2420,48.0,96,380,1.0,51.0
2421,64.0,768,144,0.0,51.0
2422,67.0,192,144,0.0,51.0
2423,79.0,0,380,0.0,51.0
2424,64.0,0,144,0.0,51.0
2425,67.0,192,144,0.0,51.0
2426,79.0,192,380,0.0,51.0
2427,61.0,192,144,0.0,51.0
2428,67.0,192,144,0.0,51.0
2429,61.0,0,144,0.0,51.0
2430,67.0,192,144,0.0,51.0
2431,81.0,192,380,0.0,51.0
2432,79.0,192,144,0.0,51.0
2433,62.0,0,144,0.0,51.0
2434,67.0,144,144,0.0,51.0
2435,77.0,0,44,0.0,51.0
2436,62.0,192,144,0.0,51.0
2437,67.0,192,144,0.0,51.0
2438,59.0,192,144,0.0,51.0
2439,67.0,192,144,0.0,51.0
2440,59.0,192,144,0.0,51.0
2441,79.0,0,240,0.0,51.0
2442,67.0,192,144,0.0,51.0
2443,60.0,0,144,0.0,51.0
2444,77.0,192,144,0.0,51.0
2445,67.0,144,144,0.0,51.0
2446,76.0,0,44,0.0,51.0
2447,60.0,192,144,0.0,51.0
2448,67.0,192,144,0.0,51.0
2449,64.0,192,144,0.0,51.0
2450,67.0,192,144,0.0,51.0
2451,79.0,192,144,0.0,51.0
2452,64.0,0,144,0.0,51.0
2453,76.0,192,144,0.0,51.0
2454,67.0,0,144,0.0,51.0
2455,73.0,192,144,0.0,51.0
2456,74.0,192,144,0.0,51.0
2457,77.0,192,144,0.0,51.0
2458,76.0,192,144,0.0,51.0
2459,73.0,192,144,0.0,51.0
2460,74.0,192,144,0.0,51.0
2461,77.0,192,144,0.0,51.0
2462,76.0,192,144,0.0,51.0
2463,69.0,0,1532,0.0,51.0
2464,65.0,0,1532,0.0,51.0
2465,73.0,192,144,0.0,51.0
2466,74.0,192,144,0.0,51.0
2467,77.0,0,144,0.0,51.0
2468,81.0,192,144,0.0,51.0
2469,62.0,0,380,1.0,51.0
2470,53.0,192,380,1.0,51.0
2471,57.0,0,380,1.0,51.0
2472,79.0,192,144,0.0,51.0
2473,76.0,192,144,0.0,51.0
2474,55.0,0,380,1.0,51.0
2475,60.0,0,380,1.0,51.0
2476,64.0,0,380,1.0,51.0
2477,77.0,0,144,0.0,51.0
2478,74.0,192,144,0.0,51.0
2479,59.0,0,380,1.0,51.0
2480,62.0,192,380,1.0,51.0
2481,55.0,0,380,1.0,51.0
2482,60.0,192,48,0.0,72.0
2483,63.0,48,48,0.0,72.0
2484,67.0,48,48,0.0,72.0
2485,48.0,0,604,1.0,72.0
2486,36.0,48,604,1.0,72.0
2487,72.0,0,604,0.0,72.0
2488,31.0,624,764,1.0,72.0
2489,43.0,0,764,1.0,72.0
2490,67.0,0,764,0.0,72.0
2491,75.0,0,572,0.0,72.0
2492,51.0,768,572,1.0,72.0
2493,77.0,576,92,0.0,72.0
2494,53.0,0,92,1.0,72.0
2495,50.0,96,92,1.0,72.0
2496,74.0,0,92,0.0,72.0
2497,48.0,0,380,1.0,72.0
2498,72.0,96,380,0.0,72.0
2499,78.0,0,44,0.0,51.0
2500,63.0,768,144,0.0,51.0
2501,67.0,144,144,0.0,51.0
2502,79.0,192,4,0.0,51.0
2503,63.0,0,144,0.0,51.0
2504,67.0,192,144,0.0,51.0
2505,60.0,192,144,0.0,51.0
2506,67.0,0,144,0.0,51.0
2507,72.0,192,144,0.0,51.0
2508,84.0,192,144,0.0,51.0
2509,60.0,0,144,0.0,51.0
2510,67.0,0,144,0.0,51.0
2511,80.0,192,144,0.0,51.0
2512,79.0,192,144,0.0,51.0
2513,62.0,0,144,0.0,51.0
2514,78.0,0,144,0.0,51.0
2515,67.0,192,144,0.0,51.0
2516,62.0,192,144,0.0,51.0
2517,67.0,192,144,0.0,51.0
2518,77.0,0,380,0.0,51.0
2519,59.0,192,144,0.0,51.0
2520,77.0,0,144,0.0,51.0
2521,67.0,192,144,0.0,51.0
2522,59.0,192,144,0.0,51.0
2523,80.0,0,144,0.0,51.0
2524,77.0,0,144,0.0,51.0
2525,67.0,192,144,0.0,51.0
2526,77.0,192,144,0.0,72.0
2527,61.0,0,144,0.0,51.0
2528,58.0,0,144,0.0,51.0
2529,67.0,0,144,0.0,51.0
2530,76.0,192,144,0.0,72.0
2531,61.0,0,144,0.0,51.0
2532,58.0,0,144,0.0,51.0
2533,67.0,192,144,0.0,51.0
2534,61.0,0,144,0.0,51.0
2535,58.0,192,144,0.0,51.0
2536,67.0,192,144,0.0,51.0
2537,85.0,192,764,0.0,51.0
2538,61.0,192,144,0.0,51.0
2539,58.0,0,144,0.0,51.0
2540,67.0,192,144,0.0,51.0
2541,76.0,0,380,0.0,51.0
2542,56.0,192,144,0.0,51.0
2543,60.0,0,144,0.0,51.0
2544,64.0,192,144,0.0,51.0
2545,79.0,0,380,0.0,51.0
2546,56.0,192,144,0.0,51.0
2547,60.0,0,144,0.0,51.0
2548,65.0,192,144,0.0,51.0
2549,77.0,0,380,0.0,51.0
2550,56.0,192,144,0.0,51.0
2551,60.0,0,144,0.0,51.0
2552,65.0,192,144,0.0,51.0
2553,77.0,0,144,0.0,51.0
2554,84.0,0,144,0.0,51.0
2555,60.0,192,144,0.0,51.0
2556,56.0,0,144,0.0,51.0
2557,80.0,192,144,0.0,51.0
2558,65.0,0,144,0.0,51.0
2559,79.0,0,144,0.0,72.0
2560,63.0,0,144,0.0,51.0
2561,60.0,192,144,0.0,51.0
2562,78.0,192,144,0.0,72.0
2563,69.0,0,144,0.0,51.0
2564,63.0,192,144,0.0,51.0
2565,60.0,0,144,0.0,51.0
2566,69.0,192,144,0.0,51.0
2567,60.0,192,144,0.0,51.0
2568,63.0,0,144,0.0,51.0
2569,69.0,192,144,0.0,51.0
2570,87.0,0,764,0.0,51.0
2571,63.0,0,144,0.0,51.0
2572,60.0,0,144,0.0,51.0
2573,69.0,192,144,0.0,51.0
2574,78.0,192,380,0.0,51.0
2575,81.0,0,144,0.0,41.0
2576,79.0,192,144,0.0,41.0
2577,62.0,192,380,0.0,41.0
2578,59.0,0,380,0.0,41.0
2579,78.0,192,144,0.0,41.0
2580,79.0,192,144,0.0,41.0
2581,78.0,192,144,0.0,41.0
2582,79.0,192,144,0.0,41.0
2583,78.0,192,144,0.0,41.0
2584,79.0,192,144,0.0,41.0
2585,77.0,192,144,0.0,46.0
2586,79.0,192,144,0.0,51.0
2587,67.0,0,144,0.0,51.0
2588,77.0,0,144,0.0,55.0
2589,66.0,192,144,0.0,55.0
2590,67.0,192,144,0.0,57.0
2591,79.0,0,144,0.0,57.0
2592,80.0,192,144,0.0,61.0
2593,68.0,0,144,0.0,61.0
2594,81.0,192,144,0.0,66.0
2595,69.0,0,144,0.0,66.0
2596,82.0,192,144,0.0,67.0
2597,70.0,0,144,0.0,67.0
2598,83.0,192,144,0.0,70.0
2599,71.0,0,144,0.0,70.0
2600,84.0,0,144,0.0,72.0
2601,72.0,0,144,0.0,72.0
2602,57.0,192,144,1.0,72.0
2603,84.0,192,144,0.0,72.0
2604,60.0,0,144,1.0,72.0
2605,72.0,0,144,0.0,72.0
2606,57.0,0,144,1.0,72.0
2607,60.0,192,144,1.0,72.0
2608,53.0,192,144,1.0,51.0
2609,60.0,192,144,1.0,51.0
2610,72.0,192,764,0.0,72.0
2611,84.0,0,764,0.0,72.0
2612,53.0,0,144,1.0,51.0
2613,83.0,192,144,0.0,51.0
2614,60.0,0,144,1.0,51.0
2615,81.0,192,144,0.0,51.0
2616,52.0,192,144,1.0,72.0
2617,72.0,0,144,0.0,72.0
2618,79.0,0,144,0.0,72.0
2619,79.0,0,144,0.0,72.0
2620,72.0,0,144,0.0,72.0
2621,60.0,192,144,1.0,72.0
2622,52.0,192,144,1.0,72.0
2623,60.0,192,144,1.0,72.0
2624,48.0,192,144,1.0,51.0
2625,60.0,192,144,1.0,51.0
2626,72.0,0,764,0.0,72.0
2627,79.0,0,764,0.0,72.0
2628,77.0,192,144,0.0,51.0
2629,48.0,0,144,1.0,51.0
2630,76.0,0,144,0.0,51.0
2631,60.0,192,144,1.0,51.0
2632,76.0,192,92,0.0,51.0
2633,53.0,0,144,1.0,51.0
2634,74.0,96,92,0.0,51.0
2635,77.0,96,92,0.0,51.0
2636,57.0,0,144,1.0,51.0
2637,76.0,96,92,0.0,51.0
2638,79.0,96,44,0.0,51.0
2639,53.0,0,144,1.0,51.0
2640,77.0,48,140,0.0,51.0
2641,76.0,0,92,0.0,51.0
2642,62.0,144,144,1.0,51.0
2643,74.0,96,92,0.0,51.0
2644,55.0,96,144,1.0,51.0
2645,64.0,192,144,1.0,51.0
2646,72.0,0,380,0.0,51.0
2647,71.0,192,44,0.0,51.0
2648,72.0,48,44,0.0,51.0
2649,71.0,48,44,0.0,51.0
2650,55.0,0,144,1.0,51.0
2651,72.0,48,44,0.0,51.0
2652,69.0,48,92,0.0,51.0
2653,62.0,0,144,1.0,51.0
2654,71.0,96,92,0.0,51.0
2655,57.0,96,144,1.0,72.0
2656,72.0,0,144,0.0,72.0
2657,84.0,0,144,0.0,72.0
2658,60.0,0,144,1.0,72.0
2659,72.0,0,144,0.0,72.0
2660,84.0,192,144,0.0,72.0
2661,57.0,192,144,1.0,72.0
2662,60.0,192,144,1.0,72.0
2663,53.0,192,144,1.0,51.0
2664,72.0,0,572,0.0,72.0
2665,84.0,0,572,0.0,72.0
2666,86.0,192,92,0.0,51.0
2667,60.0,0,144,1.0,51.0
2668,84.0,96,92,0.0,51.0
2669,53.0,96,144,1.0,51.0
2670,83.0,0,188,0.0,51.0
2671,60.0,0,144,1.0,51.0
2672,81.0,192,188,0.0,51.0
2673,79.0,0,144,0.0,72.0
2674,52.0,192,144,1.0,72.0
2675,72.0,0,144,0.0,72.0
2676,72.0,192,144,0.0,72.0
2677,79.0,0,144,0.0,72.0
2678,60.0,0,144,1.0,72.0
2679,52.0,0,144,1.0,72.0
2680,62.0,192,144,1.0,72.0
2681,48.0,192,144,1.0,51.0
2682,72.0,192,572,0.0,72.0
2683,79.0,0,572,0.0,72.0
2684,81.0,0,92,0.0,51.0
2685,60.0,192,144,1.0,51.0
2686,79.0,96,92,0.0,51.0
2687,48.0,96,144,1.0,51.0
2688,77.0,0,188,0.0,51.0
2689,60.0,192,144,1.0,51.0
2690,76.0,0,188,0.0,51.0
2691,76.0,192,92,0.0,51.0
2692,53.0,0,144,1.0,51.0
2693,74.0,96,92,0.0,51.0
2694,81.0,0,92,0.0,51.0
2695,60.0,96,144,1.0,51.0
2696,80.0,96,92,0.0,51.0
2697,83.0,0,44,0.0,51.0
2698,53.0,96,144,1.0,51.0
2699,81.0,48,140,0.0,51.0
2700,79.0,0,92,0.0,51.0
2701,60.0,144,144,1.0,51.0
2702,77.0,96,92,0.0,51.0
2703,55.0,0,144,1.0,51.0
2704,60.0,192,144,1.0,51.0
2705,76.0,96,380,0.0,51.0
2706,74.0,192,44,0.0,51.0
2707,76.0,48,44,0.0,51.0
2708,74.0,48,44,0.0,51.0
2709,55.0,0,144,1.0,51.0
2710,76.0,48,44,0.0,51.0
2711,72.0,48,92,0.0,51.0
2712,60.0,0,144,1.0,51.0
2713,74.0,96,92,0.0,51.0
2714,60.0,96,144,1.0,51.0
2715,64.0,0,144,1.0,51.0
2716,72.0,0,240,0.0,72.0
2717,64.0,0,144,1.0,51.0
2718,60.0,192,144,1.0,51.0
2719,60.0,192,144,1.0,51.0
2720,64.0,0,144,1.0,51.0
2721,74.0,144,44,0.0,51.0
2722,72.0,48,92,0.0,51.0
2723,60.0,0,144,1.0,51.0
2724,64.0,0,144,1.0,51.0
2725,71.0,96,92,0.0,51.0
2726,72.0,0,144,0.0,51.0
2727,64.0,96,144,1.0,51.0
2728,60.0,0,144,1.0,51.0
2729,60.0,192,144,1.0,51.0
2730,64.0,0,144,1.0,51.0
2731,75.0,0,144,0.0,51.0
2732,64.0,0,144,1.0,51.0
2733,60.0,0,144,1.0,51.0
2734,76.0,192,144,0.0,51.0
2735,60.0,0,144,1.0,51.0
2736,78.0,0,144,0.0,51.0
2737,64.0,192,144,1.0,51.0
2738,60.0,192,144,1.0,51.0
2739,64.0,0,144,1.0,51.0
2740,79.0,0,144,0.0,51.0
2741,83.0,192,144,0.0,51.0
2742,60.0,0,144,1.0,51.0
2743,64.0,0,144,1.0,51.0
2744,84.0,144,144,0.0,51.0
2745,60.0,48,144,1.0,51.0
2746,64.0,0,144,1.0,51.0
2747,64.0,0,144,1.0,51.0
2748,87.0,192,144,0.0,51.0
2749,60.0,0,144,1.0,51.0
2750,60.0,0,144,1.0,51.0
2751,64.0,192,144,1.0,51.0
2752,64.0,192,144,1.0,51.0
2753,60.0,0,144,1.0,51.0
2754,88.0,0,380,0.0,51.0
2755,60.0,192,144,1.0,51.0
2756,64.0,0,144,1.0,51.0
2757,64.0,192,144,1.0,51.0
2758,60.0,0,144,1.0,51.0
2759,62.0,0,144,1.0,51.0
2760,59.0,0,144,1.0,51.0
2761,59.0,156,144,1.0,51.0
2762,62.0,0,144,1.0,51.0
2763,74.0,192,380,0.0,72.0
2764,79.0,16,380,0.0,72.0
2765,86.0,20,380,0.0,72.0
2766,62.0,192,144,1.0,51.0
2767,59.0,0,144,1.0,51.0
2768,72.0,144,44,0.0,51.0
2769,71.0,0,92,0.0,51.0
2770,62.0,48,144,1.0,51.0
2771,59.0,0,144,1.0,51.0
2772,69.0,96,92,0.0,51.0
2773,71.0,0,144,0.0,51.0
2774,59.0,96,144,1.0,51.0
2775,62.0,0,144,1.0,51.0
2776,73.0,0,144,0.0,51.0
2777,59.0,0,144,1.0,51.0
2778,62.0,192,144,1.0,51.0
2779,59.0,192,144,1.0,51.0
2780,62.0,0,144,1.0,51.0
2781,74.0,0,144,0.0,51.0
2782,78.0,192,144,0.0,51.0
2783,59.0,0,144,1.0,51.0
2784,62.0,0,144,1.0,51.0
2785,59.0,0,144,1.0,51.0
2786,62.0,192,144,1.0,51.0
2787,79.0,0,144,0.0,51.0
2788,62.0,192,144,1.0,51.0
2789,59.0,0,144,1.0,51.0
2790,81.0,0,144,0.0,51.0
2791,62.0,0,144,1.0,51.0
2792,83.0,192,144,0.0,51.0
2793,59.0,0,144,1.0,51.0
2794,85.0,0,144,0.0,51.0
2795,59.0,192,144,1.0,51.0
2796,62.0,0,144,1.0,51.0
2797,59.0,192,144,1.0,51.0
2798,62.0,0,144,1.0,51.0
2799,62.0,0,144,1.0,51.0
2800,59.0,192,144,1.0,51.0
2801,86.0,0,380,0.0,51.0
2802,59.0,0,144,1.0,51.0
2803,62.0,192,144,1.0,51.0
2804,62.0,0,144,1.0,51.0
2805,59.0,192,144,1.0,51.0
2806,54.0,192,144,1.0,51.0
2807,57.0,0,144,1.0,51.0
2808,62.0,0,144,1.0,51.0
2809,54.0,156,144,1.0,51.0
2810,57.0,0,144,1.0,51.0
2811,62.0,0,144,1.0,51.0
2812,72.0,0,380,0.0,72.0
2813,78.0,16,380,0.0,72.0
2814,84.0,20,380,0.0,72.0
2815,54.0,0,144,1.0,51.0
2816,57.0,0,144,1.0,51.0
2817,62.0,192,144,1.0,51.0
2818,71.0,144,44,0.0,51.0
2819,69.0,0,92,0.0,51.0
2820,54.0,0,144,1.0,51.0
2821,57.0,48,144,1.0,51.0
2822,62.0,0,144,1.0,51.0
2823,68.0,96,92,0.0,51.0
2824,69.0,0,144,0.0,51.0
2825,62.0,0,144,1.0,51.0
2826,57.0,0,144,1.0,51.0
2827,54.0,96,144,1.0,51.0
2828,71.0,0,144,0.0,51.0
2829,62.0,0,144,1.0,51.0
2830,57.0,192,144,1.0,51.0
2831,54.0,0,144,1.0,51.0
2832,62.0,0,144,1.0,51.0
2833,54.0,0,144,1.0,51.0
2834,57.0,192,144,1.0,51.0
2835,72.0,0,144,0.0,51.0
2836,54.0,0,144,1.0,51.0
2837,57.0,0,144,1.0,51.0
2838,62.0,0,144,1.0,51.0
2839,77.0,192,144,0.0,51.0
2840,62.0,0,144,1.0,51.0
2841,78.0,0,144,0.0,51.0
2842,57.0,192,144,1.0,51.0
2843,54.0,0,144,1.0,51.0
2844,54.0,0,144,1.0,51.0
2845,57.0,0,144,1.0,51.0
2846,62.0,0,144,1.0,51.0
2847,80.0,192,144,0.0,51.0
2848,81.0,0,144,0.0,51.0
2849,54.0,192,144,1.0,51.0
2850,62.0,0,144,1.0,51.0
2851,57.0,0,144,1.0,51.0
2852,54.0,0,144,1.0,51.0
2853,57.0,192,144,1.0,51.0
2854,62.0,0,144,1.0,51.0
2855,83.0,0,144,0.0,51.0
2856,54.0,192,144,1.0,51.0
2857,57.0,0,144,1.0,51.0
2858,62.0,0,144,1.0,51.0
2859,57.0,0,144,1.0,51.0
2860,54.0,192,144,1.0,51.0
2861,62.0,0,144,1.0,51.0
2862,84.0,0,380,0.0,51.0
2863,54.0,192,144,1.0,51.0
2864,57.0,0,144,1.0,51.0
2865,62.0,0,144,1.0,51.0
2866,62.0,0,144,1.0,51.0
2867,54.0,0,144,1.0,51.0
2868,57.0,192,144,1.0,51.0
2869,83.0,192,92,0.0,72.0
2870,81.0,96,92,0.0,72.0
2871,84.0,96,92,0.0,72.0
2872,83.0,96,92,0.0,72.0
2873,86.0,96,144,0.0,72.0
2874,62.0,0,528,1.0,72.0
2875,55.0,0,528,1.0,72.0
2876,78.0,192,144,0.0,72.0
2877,79.0,0,92,0.0,72.0
2878,78.0,96,92,0.0,72.0
2879,81.0,96,92,0.0,72.0
2880,79.0,96,92,0.0,72.0
2881,59.0,0,528,1.0,72.0
2882,83.0,96,144,0.0,72.0
2883,55.0,192,528,1.0,72.0
2884,74.0,192,144,0.0,72.0
2885,76.0,0,92,0.0,72.0
2886,75.0,96,92,0.0,72.0
2887,78.0,96,92,0.0,72.0
2888,76.0,96,92,0.0,72.0
2889,79.0,96,144,0.0,72.0
2890,55.0,0,528,1.0,72.0
2891,60.0,192,528,1.0,72.0
2892,71.0,192,144,0.0,72.0
2893,72.0,192,92,0.0,72.0
2894,71.0,96,92,0.0,72.0
2895,74.0,96,92,0.0,72.0
2896,72.0,96,92,0.0,72.0
2897,76.0,96,144,0.0,72.0
2898,55.0,0,528,1.0,72.0
2899,64.0,0,528,1.0,72.0
2900,69.0,192,144,0.0,72.0
2901,71.0,192,92,0.0,72.0
2902,69.0,96,92,0.0,72.0
2903,72.0,96,92,0.0,72.0
2904,55.0,0,380,1.0,72.0
2905,71.0,96,92,0.0,72.0
2906,67.0,0,380,1.0,72.0
2907,74.0,96,144,0.0,72.0
2908,54.0,0,144,1.0,72.0
2909,66.0,192,144,0.0,72.0
2910,55.0,192,92,1.0,72.0
2911,67.0,0,92,0.0,72.0
2912,54.0,96,92,1.0,72.0
2913,66.0,0,92,0.0,72.0
2914,69.0,96,92,0.0,72.0
2915,57.0,0,92,1.0,72.0
2916,67.0,0,92,0.0,72.0
2917,55.0,96,92,1.0,72.0
2918,59.0,96,144,1.0,72.0
2919,71.0,0,144,0.0,72.0
2920,62.0,0,144,0.0,72.0
2921,50.0,192,144,1.0,72.0
2922,64.0,0,284,0.0,72.0
2923,52.0,192,284,1.0,72.0
2924,62.0,288,92,0.0,72.0
2925,50.0,0,92,1.0,72.0
2926,48.0,96,284,1.0,72.0
2927,60.0,0,284,0.0,72.0
2928,47.0,0,92,1.0,72.0
2929,59.0,288,92,0.0,72.0
2930,60.0,0,284,0.0,72.0
2931,48.0,96,284,1.0,72.0
2932,45.0,0,92,1.0,72.0
2933,57.0,288,92,1.0,72.0
2934,43.0,96,284,1.0,72.0
2935,55.0,0,284,1.0,72.0
2936,53.0,288,92,1.0,72.0
2937,41.0,0,92,1.0,72.0
2938,55.0,0,144,1.0,72.0
2939,43.0,96,144,1.0,72.0
2940,47.0,192,92,1.0,72.0
2941,59.0,0,92,1.0,72.0
2942,50.0,96,92,1.0,72.0
2943,62.0,0,92,0.0,72.0
2944,55.0,96,144,1.0,72.0
2945,67.0,0,144,0.0,72.0
2946,55.0,0,144,1.0,72.0
2947,67.0,192,144,0.0,72.0
2948,67.0,192,380,0.0,72.0
2949,55.0,0,380,1.0,72.0
2950,78.0,768,144,0.0,51.0
2951,79.0,192,144,0.0,51.0
2952,78.0,192,144,0.0,51.0
2953,79.0,192,144,0.0,51.0
2954,78.0,192,144,0.0,51.0
2955,79.0,192,144,0.0,51.0
2956,78.0,192,144,0.0,51.0
2957,79.0,192,144,0.0,51.0
2958,77.0,192,144,0.0,51.0
2959,79.0,192,144,0.0,51.0
2960,76.0,192,144,0.0,51.0
2961,79.0,192,144,0.0,51.0
2962,77.0,192,144,0.0,51.0
2963,79.0,192,144,0.0,51.0
2964,74.0,192,144,0.0,51.0
2965,79.0,192,144,0.0,51.0
2966,72.0,192,144,0.0,51.0
2967,64.0,0,144,0.0,51.0
2968,65.0,0,144,0.0,51.0
2969,79.0,192,144,0.0,51.0
2970,72.0,192,144,0.0,51.0
2971,67.0,0,144,0.0,51.0
2972,64.0,0,144,0.0,51.0
2973,79.0,192,144,0.0,51.0
2974,76.0,192,144,0.0,51.0
2975,79.0,192,144,0.0,51.0
2976,60.0,0,528,0.0,51.0
2977,76.0,192,144,0.0,51.0
2978,79.0,192,144,0.0,51.0
2979,77.0,192,144,0.0,51.0
2980,62.0,0,144,0.0,51.0
2981,64.0,192,144,0.0,51.0
2982,79.0,0,144,0.0,51.0
2983,77.0,192,144,0.0,51.0
2984,65.0,0,144,0.0,51.0
2985,79.0,192,144,0.0,51.0
2986,62.0,0,144,0.0,51.0
2987,74.0,192,144,0.0,51.0
2988,79.0,192,144,0.0,51.0
2989,59.0,0,528,0.0,51.0
2990,74.0,192,144,0.0,51.0
2991,79.0,192,144,0.0,51.0
2992,62.0,0,92,0.0,51.0
2993,76.0,192,144,0.0,51.0
2994,60.0,96,144,0.0,51.0
2995,79.0,96,144,0.0,51.0
2996,65.0,0,92,0.0,51.0
2997,72.0,192,144,0.0,51.0
2998,64.0,96,144,0.0,51.0
2999,79.0,96,144,0.0,51.0
3000,61.0,0,92,0.0,51.0
3001,71.0,192,144,0.0,51.0
3002,62.0,96,144,0.0,51.0
3003,79.0,96,144,0.0,51.0
3004,74.0,192,144,0.0,51.0
3005,79.0,192,144,0.0,51.0
3006,65.0,0,92,0.0,51.0
3007,72.0,192,144,0.0,51.0
3008,64.0,96,144,0.0,51.0
3009,79.0,96,144,0.0,51.0
3010,72.0,192,92,0.0,51.0
3011,67.0,0,144,0.0,51.0
3012,66.0,96,144,0.0,51.0
3013,81.0,96,144,0.0,51.0
3014,69.0,0,92,0.0,51.0
3015,71.0,192,144,0.0,51.0
3016,67.0,96,144,0.0,51.0
3017,74.0,96,144,0.0,51.0
3018,78.0,192,144,0.0,51.0
3019,79.0,192,144,0.0,51.0
3020,76.0,192,144,0.0,51.0
3021,48.0,0,144,1.0,51.0
3022,77.0,192,144,0.0,51.0
3023,55.0,0,144,1.0,51.0
3024,48.0,192,144,1.0,51.0
3025,79.0,0,144,0.0,51.0
3026,55.0,192,144,1.0,51.0
3027,76.0,0,144,0.0,51.0
3028,52.0,192,144,1.0,51.0
3029,55.0,192,144,1.0,51.0
3030,52.0,192,144,1.0,51.0
3031,55.0,192,144,1.0,51.0
3032,72.0,0,764,0.0,51.0
3033,74.0,0,144,0.0,51.0
3034,53.0,192,144,1.0,51.0
3035,76.0,192,144,0.0,51.0
3036,55.0,0,144,1.0,51.0
3037,77.0,192,144,0.0,51.0
3038,53.0,0,144,1.0,51.0
3039,74.0,144,144,0.0,51.0
3040,55.0,48,144,1.0,51.0
3041,50.0,0,144,1.0,51.0
3042,55.0,192,144,1.0,51.0
3043,50.0,192,144,1.0,51.0
3044,55.0,192,144,1.0,51.0
3045,83.0,192,764,0.0,51.0
3046,84.0,0,92,0.0,51.0
3047,52.0,192,144,1.0,51.0
3048,55.0,96,144,1.0,51.0
3049,83.0,96,284,0.0,51.0
3050,81.0,192,92,0.0,51.0
3051,48.0,0,144,1.0,51.0
3052,55.0,96,144,1.0,51.0
3053,79.0,96,284,0.0,51.0
3054,76.0,192,92,0.0,51.0
3055,50.0,0,144,1.0,51.0
3056,55.0,96,144,1.0,51.0
3057,77.0,96,284,0.0,51.0
3058,47.0,192,144,1.0,51.0
3059,55.0,192,144,1.0,51.0
3060,77.0,192,92,0.0,51.0
3061,48.0,0,144,1.0,51.0
3062,55.0,96,144,1.0,51.0
3063,76.0,96,284,0.0,51.0
3064,74.0,192,92,0.0,51.0
3065,45.0,0,144,1.0,51.0
3066,54.0,96,144,1.0,51.0
3067,72.0,96,284,0.0,51.0
3068,81.0,0,92,0.0,51.0
3069,43.0,192,144,1.0,51.0
3070,55.0,96,144,1.0,51.0
3071,79.0,96,284,0.0,51.0
3072,41.0,192,144,1.0,51.0
3073,53.0,192,144,1.0,51.0
3074,40.0,0,92,1.0,51.0
3075,48.0,96,92,1.0,51.0
3076,47.0,96,92,1.0,51.0
3077,48.0,96,92,1.0,51.0
3078,50.0,96,92,1.0,51.0
3079,48.0,96,92,1.0,51.0
3080,47.0,96,92,1.0,51.0
3081,67.0,0,764,0.0,72.0
3082,79.0,192,764,0.0,72.0
3083,48.0,96,92,1.0,51.0
3084,77.0,96,144,0.0,51.0
3085,40.0,0,240,1.0,51.0
3086,76.0,192,144,0.0,51.0
3087,74.0,192,144,0.0,51.0
3088,72.0,192,144,0.0,51.0
3089,41.0,0,92,1.0,51.0
3090,48.0,96,92,1.0,51.0
3091,47.0,96,92,1.0,51.0
3092,81.0,0,380,0.0,51.0
3093,69.0,192,380,0.0,51.0
3094,48.0,96,92,1.0,51.0
3095,50.0,96,92,1.0,51.0
3096,48.0,96,92,1.0,51.0
3097,47.0,96,92,1.0,51.0
3098,48.0,96,92,1.0,51.0
3099,79.0,0,144,0.0,51.0
3100,77.0,192,144,0.0,51.0
3101,41.0,96,380,1.0,51.0
3102,76.0,192,144,0.0,51.0
3103,74.0,192,144,0.0,51.0
3104,76.0,0,92,0.0,51.0
3105,43.0,192,144,1.0,51.0
3106,77.0,96,92,0.0,51.0
3107,79.0,0,92,0.0,51.0
3108,48.0,96,144,1.0,51.0
3109,76.0,96,92,0.0,51.0
3110,52.0,96,144,1.0,51.0
3111,72.0,0,144,0.0,51.0
3112,48.0,192,144,1.0,51.0
3113,74.0,0,92,0.0,51.0
3114,43.0,192,144,1.0,51.0
3115,76.0,96,92,0.0,51.0
3116,77.0,96,92,0.0,51.0
3117,50.0,0,144,1.0,51.0
3118,74.0,96,92,0.0,51.0
3119,71.0,96,144,0.0,51.0
3120,53.0,0,144,1.0,51.0
3121,50.0,192,144,1.0,51.0
3122,52.0,0,92,1.0,51.0
3123,60.0,96,92,1.0,51.0
3124,59.0,96,92,1.0,51.0
3125,60.0,96,92,1.0,51.0
3126,62.0,96,92,1.0,51.0
3127,60.0,96,92,1.0,51.0
3128,59.0,96,92,1.0,51.0
3129,79.0,192,764,0.0,72.0
3130,67.0,0,764,0.0,72.0
3131,60.0,96,92,1.0,51.0
3132,77.0,0,92,0.0,51.0
3133,79.0,96,92,0.0,51.0
3134,77.0,96,92,0.0,51.0
3135,52.0,96,380,1.0,51.0
3136,76.0,96,92,0.0,51.0
3137,74.0,96,92,0.0,51.0
3138,76.0,96,92,0.0,51.0
3139,74.0,96,92,0.0,51.0
3140,72.0,96,92,0.0,51.0
3141,57.0,0,92,1.0,51.0
3142,65.0,96,92,1.0,51.0
3143,64.0,96,92,1.0,51.0
3144,65.0,96,92,1.0,51.0
3145,67.0,96,92,1.0,51.0
3146,65.0,96,92,1.0,51.0
3147,64.0,96,92,1.0,51.0
3148,65.0,96,92,1.0,51.0
3149,84.0,0,764,0.0,51.0
3150,72.0,96,764,0.0,51.0
3151,83.0,0,92,0.0,51.0
3152,84.0,96,92,0.0,51.0
3153,83.0,96,92,0.0,51.0
3154,81.0,96,92,0.0,51.0
3155,57.0,96,380,1.0,51.0
3156,79.0,96,92,0.0,51.0
3157,81.0,96,92,0.0,51.0
3158,79.0,96,92,0.0,51.0
3159,77.0,96,92,0.0,51.0
3160,55.0,0,144,1.0,51.0
3161,76.0,96,144,0.0,51.0
3162,72.0,192,144,0.0,51.0
3163,60.0,0,144,1.0,51.0
3164,57.0,0,144,1.0,51.0
3165,60.0,192,144,1.0,51.0
3166,77.0,192,380,0.0,72.0
3167,76.0,0,144,0.0,51.0
3168,55.0,192,144,1.0,51.0
3169,60.0,192,144,1.0,51.0
3170,72.0,0,144,0.0,51.0
3171,53.0,192,144,1.0,51.0
3172,60.0,192,144,1.0,51.0
3173,81.0,0,380,0.0,72.0
3174,52.0,192,144,1.0,51.0
3175,79.0,0,144,0.0,51.0
3176,72.0,0,144,0.0,51.0
3177,60.0,192,144,1.0,51.0
3178,57.0,0,144,1.0,51.0
3179,60.0,192,144,1.0,51.0
3180,77.0,192,380,0.0,72.0
3181,55.0,192,144,1.0,51.0
3182,76.0,0,144,0.0,51.0
3183,60.0,0,144,1.0,51.0
3184,72.0,192,144,0.0,51.0
3185,53.0,0,144,1.0,51.0
3186,60.0,192,144,1.0,51.0
3187,81.0,192,380,0.0,72.0
3188,52.0,0,144,1.0,66.0
3189,55.0,192,144,1.0,66.0
3190,61.0,0,144,1.0,66.0
3191,52.0,192,144,1.0,66.0
3192,55.0,0,144,1.0,66.0
3193,61.0,0,144,1.0,66.0
3194,61.0,0,144,1.0,66.0
3195,52.0,0,144,1.0,66.0
3196,55.0,192,144,1.0,66.0
3197,61.0,0,144,1.0,66.0
3198,55.0,192,144,1.0,66.0
3199,52.0,0,144,1.0,66.0
3200,70.0,0,764,0.0,72.0
3201,82.0,0,764,0.0,72.0
3202,55.0,0,144,1.0,66.0
3203,52.0,0,144,1.0,66.0
3204,61.0,192,144,1.0,66.0
3205,61.0,192,144,1.0,66.0
3206,52.0,0,144,1.0,66.0
3207,55.0,0,144,1.0,66.0
3208,82.0,0,380,0.0,72.0
3209,70.0,0,380,0.0,72.0
3210,52.0,0,144,1.0,66.0
3211,61.0,0,144,1.0,66.0
3212,55.0,0,144,1.0,66.0
3213,61.0,192,144,1.0,66.0
3214,55.0,0,144,1.0,66.0
3215,52.0,0,144,1.0,66.0
3216,82.0,192,380,0.0,72.0
3217,70.0,0,380,0.0,72.0
3218,81.0,0,144,0.0,72.0
3219,69.0,0,144,0.0,72.0
3220,79.0,192,144,0.0,72.0
3221,62.0,192,380,1.0,65.0
3222,57.0,0,380,1.0,65.0
3223,53.0,0,380,1.0,65.0
3224,77.0,192,44,0.0,72.0
3225,79.0,48,44,0.0,72.0
3226,77.0,48,44,0.0,72.0
3227,79.0,48,44,0.0,72.0
3228,76.0,48,144,0.0,72.0
3229,74.0,192,44,0.0,72.0
3230,76.0,48,44,0.0,72.0
3231,74.0,48,44,0.0,72.0
3232,76.0,48,44,0.0,72.0
3233,72.0,48,144,0.0,72.0
3234,71.0,192,44,0.0,66.0
3235,72.0,48,44,0.0,66.0
3236,71.0,48,44,0.0,66.0
3237,72.0,48,44,0.0,66.0
3238,69.0,48,144,0.0,66.0
3239,55.0,0,92,1.0,61.0
3240,67.0,192,144,0.0,66.0
3241,64.0,96,92,1.0,61.0
3242,60.0,96,92,1.0,61.0
3243,69.0,0,92,0.0,66.0
3244,71.0,96,92,0.0,66.0
3245,64.0,0,92,1.0,61.0
3246,72.0,0,92,0.0,66.0
3247,55.0,96,92,1.0,61.0
3248,64.0,0,92,1.0,61.0
3249,74.0,96,92,0.0,66.0
3250,60.0,96,92,1.0,61.0
3251,76.0,0,92,0.0,66.0
3252,64.0,0,92,1.0,61.0
3253,77.0,96,92,0.0,66.0
3254,55.0,96,92,1.0,61.0
3255,78.0,0,92,0.0,66.0
3256,64.0,96,92,1.0,61.0
3257,79.0,0,92,0.0,66.0
3258,60.0,96,92,1.0,61.0
3259,81.0,0,92,0.0,66.0
3260,79.0,0,92,0.0,66.0
3261,64.0,96,92,1.0,61.0
3262,78.0,0,44,0.0,66.0
3263,55.0,96,92,1.0,61.0
3264,64.0,48,92,1.0,61.0
3265,76.0,48,140,0.0,66.0
3266,74.0,0,92,0.0,66.0
3267,60.0,96,92,1.0,61.0
3268,72.0,96,92,0.0,66.0
3269,64.0,0,92,1.0,61.0
3270,74.0,96,44,0.0,66.0
3271,76.0,48,44,0.0,66.0
3272,55.0,0,92,1.0,61.0
3273,74.0,48,44,0.0,66.0
3274,76.0,48,44,0.0,66.0
3275,65.0,0,92,1.0,61.0
3276,74.0,48,44,0.0,66.0
3277,76.0,48,44,0.0,66.0
3278,59.0,0,92,1.0,61.0
3279,74.0,32,44,0.0,66.0
3280,65.0,16,92,1.0,61.0
3281,76.0,48,44,0.0,66.0
3282,74.0,0,44,0.0,66.0
3283,76.0,48,44,0.0,66.0
3284,55.0,48,92,1.0,61.0
3285,74.0,0,44,0.0,66.0
3286,76.0,48,44,0.0,66.0
3287,65.0,48,92,1.0,61.0
3288,74.0,0,44,0.0,66.0
3289,76.0,48,44,0.0,66.0
3290,59.0,48,92,1.0,61.0
3291,74.0,48,44,0.0,66.0
3292,76.0,48,44,0.0,66.0
3293,65.0,0,92,1.0,61.0
3294,74.0,48,44,0.0,66.0
3295,55.0,0,92,1.0,61.0
3296,76.0,48,44,0.0,66.0
3297,74.0,32,44,0.0,66.0
3298,65.0,16,92,1.0,61.0
3299,76.0,48,44,0.0,66.0
3300,74.0,0,44,0.0,66.0
3301,59.0,48,92,1.0,61.0
3302,76.0,48,44,0.0,66.0
3303,74.0,0,44,0.0,66.0
3304,76.0,48,44,0.0,66.0
3305,65.0,48,92,1.0,61.0
3306,74.0,48,44,0.0,66.0
3307,76.0,48,44,0.0,66.0
3308,55.0,0,92,1.0,61.0
3309,74.0,48,44,0.0,66.0
3310,65.0,0,92,1.0,61.0
3311,76.0,48,44,0.0,66.0
3312,72.0,48,92,0.0,66.0
3313,59.0,0,92,1.0,61.0
3314,65.0,0,92,1.0,61.0
3315,74.0,96,92,0.0,66.0
3316,72.0,0,380,0.0,51.0
3317,64.0,96,380,1.0,61.0
3318,60.0,0,380,1.0,61.0
3319,76.0,192,144,0.0,51.0
3320,72.0,384,380,0.0,51.0
3321,79.0,192,144,0.0,51.0
3322,77.0,192,144,0.0,51.0
3323,74.0,0,380,0.0,51.0
3324,74.0,192,144,0.0,51.0
3325,71.0,192,380,0.0,51.0
3326,77.0,0,144,0.0,51.0
3327,76.0,192,144,0.0,51.0
3328,72.0,192,380,0.0,51.0
3329,72.0,192,144,0.0,51.0
3330,69.0,192,380,0.0,51.0
3331,76.0,0,144,0.0,51.0
3332,74.0,192,144,0.0,51.0
3333,65.0,192,380,0.0,51.0
3334,71.0,192,144,0.0,51.0
3335,67.0,192,380,0.0,51.0
3336,74.0,192,144,0.0,51.0
3337,72.0,192,144,0.0,51.0
3338,64.0,0,380,0.0,51.0
3339,76.0,0,92,0.0,72.0
3340,77.0,96,92,0.0,72.0
3341,79.0,96,92,0.0,72.0
3342,48.0,0,380,1.0,72.0
3343,60.0,192,380,1.0,72.0
3344,76.0,96,92,0.0,72.0
3345,77.0,96,92,0.0,72.0
3346,79.0,96,92,0.0,72.0
3347,81.0,96,92,0.0,72.0
3348,62.0,0,380,1.0,72.0
3349,50.0,0,380,1.0,72.0
3350,77.0,96,92,0.0,72.0
3351,74.0,0,92,0.0,72.0
3352,76.0,96,92,0.0,72.0
3353,77.0,96,92,0.0,72.0
3354,74.0,96,92,0.0,72.0
3355,59.0,96,380,1.0,72.0
3356,47.0,0,380,1.0,72.0
3357,76.0,96,92,0.0,72.0
3358,77.0,96,92,0.0,72.0
3359,79.0,96,92,0.0,72.0
3360,48.0,0,380,1.0,72.0
3361,60.0,0,380,1.0,72.0
3362,76.0,96,92,0.0,72.0
3363,72.0,0,92,0.0,72.0
3364,74.0,96,92,0.0,72.0
3365,76.0,96,92,0.0,72.0
3366,45.0,96,380,1.0,72.0
3367,57.0,0,380,1.0,72.0
3368,72.0,96,92,0.0,72.0
3369,74.0,0,92,0.0,72.0
3370,76.0,96,92,0.0,72.0
3371,77.0,96,92,0.0,72.0
3372,41.0,96,380,1.0,72.0
3373,74.0,96,92,0.0,72.0
3374,53.0,0,380,1.0,72.0
3375,71.0,96,92,0.0,72.0
3376,72.0,96,92,0.0,72.0
3377,74.0,96,92,0.0,72.0
3378,71.0,48,92,0.0,72.0
3379,43.0,0,380,1.0,72.0
3380,55.0,0,380,1.0,72.0
3381,60.0,144,44,0.0,72.0
3382,64.0,48,44,0.0,72.0
3383,67.0,48,44,0.0,72.0
3384,72.0,0,604,0.0,72.0
3385,48.0,0,764,1.0,72.0
3386,36.0,48,764,1.0,72.0
3387,43.0,624,764,1.0,72.0
3388,67.0,0,764,0.0,72.0
3389,52.0,768,572,1.0,72.0
3390,76.0,0,572,0.0,72.0
3391,77.0,0,92,0.0,72.0
3392,53.0,576,92,1.0,72.0
3393,74.0,96,92,0.0,72.0
3394,50.0,0,92,1.0,72.0
3395,48.0,0,380,1.0,72.0
3396,72.0,96,380,0.0,72.0
3397,74.0,384,92,0.0,73.0
3398,77.0,96,92,0.0,75.0
3399,79.0,96,92,0.0,76.0
3400,43.0,0,380,1.0,77.0
3401,55.0,0,380,1.0,77.0
3402,83.0,96,92,0.0,77.0
3403,72.0,0,92,0.0,77.0
3404,76.0,96,92,0.0,77.0
3405,79.0,96,92,0.0,77.0
3406,83.0,96,92,0.0,77.0
3407,60.0,96,380,1.0,77.0
3408,74.0,0,92,0.0,77.0
3409,77.0,96,92,0.0,77.0
3410,79.0,96,92,0.0,77.0
3411,55.0,0,380,1.0,77.0
3412,83.0,96,92,0.0,77.0
3413,43.0,96,380,1.0,77.0
3414,72.0,96,92,0.0,77.0
3415,76.0,96,92,0.0,77.0
3416,79.0,96,92,0.0,77.0
3417,60.0,0,380,1.0,77.0
3418,48.0,0,380,1.0,77.0
3419,84.0,96,92,0.0,77.0
3420,74.0,0,92,0.0,77.0
3421,77.0,96,92,0.0,77.0
3422,79.0,96,92,0.0,77.0
3423,83.0,96,92,0.0,77.0
3424,55.0,96,380,1.0,77.0
3425,43.0,0,380,1.0,77.0
3426,84.0,96,380,0.0,77.0
3427,76.0,0,380,0.0,77.0
3428,48.0,0,380,1.0,77.0
3429,60.0,0,380,1.0,77.0
3430,36.0,0,380,1.0,77.0
3431,64.0,384,380,0.0,77.0
3432,67.0,0,380,0.0,77.0
3433,72.0,0,380,0.0,77.0
3434,48.0,0,380,1.0,77.0
3435,72.0,0,380,0.0,77.0
3436,67.0,384,380,0.0,77.0
3437,64.0,0,380,0.0,77.0
3438,36.0,0,380,1.0,77.0
3439,48.0,0,380,1.0,77.0
3440,55.0,768,48,0.0,72.0
3441,58.0,48,48,0.0,72.0
3442,62.0,48,48,0.0,72.0
3443,67.0,0,604,0.0,72.0
3444,43.0,48,764,1.0,72.0
3445,31.0,0,764,1.0,72.0
3446,38.0,0,764,1.0,72.0
3447,62.0,624,764,0.0,72.0
3448,70.0,768,572,0.0,72.0
3449,46.0,0,572,1.0,72.0
3450,72.0,576,92,0.0,72.0
3451,48.0,0,92,1.0,72.0
3452,45.0,96,92,1.0,72.0
3453,69.0,0,92,0.0,72.0
3454,43.0,96,380,1.0,72.0
3455,67.0,0,380,0.0,72.0
3456,74.0,768,572,0.0,51.0
3457,70.0,0,572,0.0,51.0
3458,75.0,576,92,0.0,51.0
3459,72.0,0,92,0.0,51.0
3460,69.0,0,92,0.0,51.0
3461,72.0,96,92,0.0,51.0
3462,70.0,0,380,0.0,51.0
3463,67.0,96,380,0.0,51.0
3464,82.0,768,572,0.0,41.0
3465,74.0,0,572,0.0,41.0
3466,75.0,0,92,0.0,41.0
3467,84.0,576,92,0.0,41.0
3468,81.0,96,92,0.0,41.0
3469,72.0,0,92,0.0,41.0
3470,79.0,96,380,0.0,41.0
3471,70.0,0,380,0.0,41.0
3472,62.0,768,144,0.0,51.0
3473,58.0,0,144,0.0,51.0
3474,67.0,192,144,0.0,51.0
3475,62.0,0,144,0.0,51.0
3476,58.0,192,144,0.0,51.0
3477,67.0,192,144,0.0,51.0
3478,79.0,0,380,0.0,51.0
3479,62.0,0,144,0.0,51.0
3480,58.0,0,144,0.0,51.0
3481,67.0,192,144,0.0,51.0
3482,86.0,192,380,0.0,51.0
3483,62.0,0,144,0.0,51.0
3484,58.0,192,144,0.0,51.0
3485,67.0,192,144,0.0,51.0
3486,88.0,0,380,0.0,51.0
3487,57.0,192,144,0.0,51.0
3488,64.0,0,144,0.0,51.0
3489,67.0,192,144,0.0,51.0
3490,57.0,0,144,0.0,51.0
3491,86.0,0,528,0.0,51.0
3492,64.0,192,144,0.0,51.0
3493,67.0,192,144,0.0,51.0
3494,64.0,0,144,0.0,51.0
3495,57.0,192,144,0.0,51.0
3496,67.0,192,144,0.0,51.0
3497,85.0,0,380,0.0,51.0
3498,64.0,192,144,0.0,51.0
3499,57.0,0,144,0.0,51.0
3500,67.0,192,144,0.0,51.0
3501,58.0,0,144,0.0,51.0
3502,62.0,192,144,0.0,51.0
3503,67.0,192,144,0.0,51.0
3504,79.0,96,92,0.0,51.0
3505,79.0,0,44,0.0,51.0
3506,81.0,48,44,0.0,51.0
3507,79.0,48,44,0.0,51.0
3508,58.0,0,144,0.0,51.0
3509,62.0,96,144,0.0,51.0
3510,81.0,48,44,0.0,51.0
3511,78.0,48,44,0.0,51.0
3512,79.0,96,44,0.0,51.0
3513,67.0,0,144,0.0,51.0
3514,62.0,96,144,0.0,51.0
3515,58.0,0,144,0.0,51.0
3516,67.0,192,144,0.0,51.0
3517,86.0,0,380,0.0,51.0
3518,62.0,0,144,0.0,51.0
3519,58.0,0,144,0.0,51.0
3520,67.0,192,144,0.0,51.0
3521,88.0,192,380,0.0,51.0
3522,57.0,0,144,0.0,51.0
3523,64.0,192,144,0.0,51.0
3524,67.0,192,144,0.0,51.0
3525,64.0,192,144,0.0,51.0
3526,57.0,0,144,0.0,51.0
3527,67.0,192,144,0.0,51.0
3528,86.0,0,764,0.0,51.0
3529,64.0,192,144,0.0,51.0
3530,57.0,0,144,0.0,51.0
3531,67.0,192,144,0.0,51.0
3532,85.0,0,380,0.0,51.0
3533,64.0,192,144,0.0,51.0
3534,57.0,0,144,0.0,51.0
3535,67.0,192,144,0.0,51.0
3536,50.0,192,44,1.0,72.0
3537,53.0,48,44,1.0,72.0
3538,57.0,48,44,1.0,72.0
3539,62.0,0,604,1.0,72.0
3540,50.0,0,604,1.0,72.0
3541,38.0,48,604,1.0,72.0
3542,45.0,0,764,1.0,72.0
3543,57.0,624,764,1.0,72.0
3544,53.0,768,572,1.0,72.0
3545,65.0,0,572,0.0,72.0
3546,67.0,576,92,0.0,72.0
3547,55.0,0,92,1.0,72.0
3548,52.0,0,92,1.0,72.0
3549,64.0,96,92,0.0,72.0
3550,50.0,96,380,1.0,72.0
3551,62.0,0,764,0.0,72.0
3552,57.0,0,144,1.0,51.0
3553,62.0,192,144,1.0,51.0
3554,53.0,768,380,1.0,51.0
3555,74.0,96,92,0.0,51.0
3556,76.0,0,44,0.0,51.0
3557,74.0,48,44,0.0,51.0
3558,73.0,48,44,0.0,51.0
3559,57.0,96,144,1.0,51.0
3560,74.0,48,44,0.0,51.0
3561,73.0,48,92,0.0,51.0
3562,62.0,0,144,1.0,51.0
3563,53.0,0,380,1.0,51.0
3564,74.0,96,92,0.0,51.0
3565,57.0,96,144,1.0,51.0
3566,62.0,192,144,1.0,51.0
3567,53.0,0,380,1.0,51.0
3568,81.0,0,380,0.0,51.0
3569,57.0,192,144,1.0,51.0
3570,62.0,192,144,1.0,51.0
3571,83.0,0,380,0.0,51.0
3572,53.0,0,380,1.0,51.0
3573,59.0,192,144,1.0,51.0
3574,62.0,192,144,1.0,51.0
3575,52.0,0,380,1.0,51.0
3576,59.0,192,144,1.0,51.0
3577,62.0,192,144,1.0,51.0
3578,81.0,0,764,0.0,51.0
3579,52.0,0,380,1.0,51.0
3580,59.0,0,144,1.0,51.0
3581,62.0,192,144,1.0,51.0
3582,52.0,0,380,1.0,51.0
3583,80.0,192,380,0.0,51.0
3584,59.0,0,144,1.0,51.0
3585,62.0,192,144,1.0,51.0
3586,52.0,192,380,1.0,51.0
3587,57.0,192,144,1.0,51.0
3588,81.0,0,144,0.0,51.0
3589,62.0,176,144,1.0,51.0
3590,53.0,16,364,1.0,51.0
3591,53.0,0,12,1.0,51.0
3592,86.0,192,144,0.0,51.0
3593,57.0,0,144,1.0,51.0
3594,62.0,192,144,1.0,51.0
3595,85.0,0,144,0.0,51.0
3596,57.0,192,144,1.0,51.0
3597,88.0,0,144,0.0,51.0
3598,86.0,0,144,0.0,51.0
3599,62.0,192,144,1.0,51.0
3600,53.0,0,380,1.0,51.0
3601,84.0,192,144,0.0,51.0
3602,57.0,0,144,1.0,51.0
3603,83.0,192,144,0.0,51.0
3604,62.0,0,144,1.0,51.0
3605,53.0,0,380,1.0,51.0
3606,59.0,0,144,1.0,51.0
3607,62.0,192,144,1.0,51.0
3608,52.0,0,380,1.0,51.0
3609,59.0,192,144,1.0,51.0
3610,81.0,192,672,0.0,51.0
3611,83.0,96,48,0.0,51.0
3612,62.0,192,144,1.0,51.0
3613,52.0,0,380,1.0,51.0
3614,81.0,48,48,0.0,51.0
3615,59.0,0,144,1.0,51.0
3616,62.0,192,144,1.0,51.0
3617,52.0,0,380,1.0,51.0
3618,80.0,48,380,0.0,51.0
3619,59.0,192,144,1.0,51.0
3620,62.0,192,144,1.0,51.0
3621,52.0,0,380,1.0,51.0
3622,57.0,0,92,1.0,72.0
3623,64.0,96,92,1.0,72.0
3624,60.0,96,92,1.0,72.0
3625,64.0,96,92,1.0,72.0
3626,57.0,96,92,1.0,72.0
3627,64.0,96,92,1.0,72.0
3628,60.0,96,92,1.0,72.0
3629,84.0,0,764,0.0,51.0
3630,64.0,96,92,1.0,72.0
3631,72.0,192,764,0.0,51.0
3632,57.0,96,92,1.0,72.0
3633,64.0,96,92,1.0,72.0
3634,60.0,96,92,1.0,72.0
3635,64.0,96,92,1.0,72.0
3636,57.0,96,92,1.0,72.0
3637,64.0,96,92,1.0,72.0
3638,60.0,96,92,1.0,72.0
3639,69.0,0,764,0.0,51.0
3640,64.0,96,92,1.0,72.0
3641,81.0,0,764,0.0,51.0
3642,57.0,96,92,1.0,72.0
3643,66.0,96,92,1.0,72.0
3644,60.0,96,92,1.0,72.0
3645,66.0,96,92,1.0,72.0
3646,57.0,96,92,1.0,72.0
3647,66.0,96,92,1.0,72.0
3648,87.0,0,572,0.0,51.0
3649,60.0,0,92,1.0,72.0
3650,88.0,96,92,0.0,51.0
3651,87.0,96,92,0.0,51.0
3652,66.0,0,92,1.0,72.0
3653,57.0,0,92,1.0,72.0
3654,66.0,96,92,1.0,72.0
3655,59.0,96,92,1.0,72.0
3656,88.0,96,380,0.0,51.0
3657,66.0,96,92,1.0,72.0
3658,57.0,96,92,1.0,72.0
3659,66.0,96,92,1.0,72.0
3660,59.0,96,92,1.0,72.0
3661,66.0,96,92,1.0,72.0
3662,55.0,0,92,1.0,72.0
3663,62.0,96,92,1.0,72.0
3664,58.0,96,92,1.0,72.0
3665,62.0,96,92,1.0,72.0
3666,55.0,96,92,1.0,72.0
3667,62.0,96,92,1.0,72.0
3668,58.0,96,92,1.0,72.0
3669,62.0,96,92,1.0,72.0
3670,82.0,0,764,0.0,51.0
3671,70.0,96,764,0.0,51.0
3672,55.0,0,92,1.0,72.0
3673,61.0,96,92,1.0,72.0
3674,58.0,96,92,1.0,72.0
3675,61.0,96,92,1.0,72.0
3676,55.0,96,92,1.0,72.0
3677,61.0,96,92,1.0,72.0
3678,58.0,96,92,1.0,72.0
3679,67.0,0,764,0.0,51.0
3680,61.0,96,92,1.0,72.0
3681,79.0,96,764,0.0,51.0
3682,55.0,96,92,1.0,72.0
3683,64.0,96,92,1.0,72.0
3684,58.0,96,92,1.0,72.0
3685,64.0,96,92,1.0,72.0
3686,55.0,96,92,1.0,72.0
3687,64.0,96,92,1.0,72.0
3688,85.0,0,572,0.0,51.0
3689,58.0,96,92,1.0,72.0
3690,86.0,0,92,0.0,51.0
3691,85.0,0,92,0.0,51.0
3692,64.0,96,92,1.0,72.0
3693,54.0,0,92,1.0,72.0
3694,62.0,96,92,1.0,72.0
3695,57.0,96,92,1.0,72.0
3696,86.0,96,380,0.0,51.0
3697,62.0,96,92,1.0,72.0
3698,54.0,96,92,1.0,72.0
3699,62.0,96,92,1.0,72.0
3700,57.0,96,92,1.0,72.0
3701,62.0,96,92,1.0,72.0
3702,53.0,0,92,1.0,72.0
3703,60.0,96,92,1.0,72.0
3704,56.0,96,92,1.0,72.0
3705,62.0,96,92,1.0,72.0
3706,53.0,96,92,1.0,72.0
3707,60.0,96,92,1.0,72.0
3708,83.0,96,572,0.0,51.0
3709,84.0,0,92,0.0,51.0
3710,56.0,96,92,1.0,72.0
3711,83.0,0,92,0.0,51.0
3712,60.0,96,92,1.0,72.0
3713,52.0,0,92,1.0,72.0
3714,60.0,96,92,1.0,72.0
3715,55.0,96,92,1.0,72.0
3716,84.0,96,380,0.0,51.0
3717,60.0,96,92,1.0,72.0
3718,52.0,96,92,1.0,72.0
3719,60.0,96,92,1.0,72.0
3720,55.0,96,92,1.0,72.0
3721,60.0,96,92,1.0,72.0
3722,50.0,0,92,1.0,72.0
3723,59.0,96,92,1.0,72.0
3724,53.0,96,92,1.0,72.0
3725,59.0,96,92,1.0,72.0
3726,50.0,96,92,1.0,72.0
3727,80.0,96,572,0.0,51.0
3728,59.0,96,92,1.0,72.0
3729,81.0,96,92,0.0,51.0
3730,53.0,0,92,1.0,72.0
3731,80.0,96,92,0.0,51.0
3732,59.0,0,92,1.0,72.0
3733,48.0,0,92,1.0,72.0
3734,57.0,96,92,1.0,72.0
3735,52.0,96,92,1.0,72.0
3736,81.0,96,380,0.0,51.0
3737,57.0,96,92,1.0,72.0
3738,48.0,96,92,1.0,72.0
3739,57.0,96,92,1.0,72.0
3740,52.0,96,92,1.0,72.0
3741,57.0,96,92,1.0,72.0
3742,81.0,192,144,0.0,51.0
3743,51.0,96,380,1.0,72.0
3744,39.0,0,380,1.0,72.0
3745,84.0,192,144,0.0,51.0
3746,78.0,192,144,0.0,51.0
3747,81.0,192,144,0.0,51.0
3748,75.0,192,144,0.0,51.0
3749,78.0,192,144,0.0,51.0
3750,72.0,192,144,0.0,51.0
3751,75.0,192,144,0.0,51.0
3752,69.0,192,144,0.0,51.0
3753,57.0,0,144,1.0,72.0
3754,72.0,192,144,0.0,51.0
3755,60.0,0,144,1.0,72.0
3756,54.0,192,144,1.0,72.0
3757,66.0,0,144,0.0,51.0
3758,57.0,0,144,1.0,72.0
3759,69.0,192,144,0.0,51.0
3760,51.0,0,144,1.0,72.0
3761,63.0,192,144,0.0,51.0
3762,66.0,192,144,0.0,51.0
3763,54.0,0,144,1.0,72.0
3764,57.0,0,144,0.0,51.0
3765,45.0,192,144,1.0,72.0
3766,60.0,192,144,1.0,72.0
3767,48.0,0,144,1.0,72.0
3768,42.0,0,144,1.0,72.0
3769,54.0,192,144,1.0,72.0
3770,45.0,0,144,1.0,72.0
3771,57.0,192,144,1.0,72.0
3772,51.0,0,144,1.0,72.0
3773,39.0,192,144,1.0,72.0
3774,52.0,192,380,1.0,72.0
3775,40.0,0,380,1.0,72.0
3776,40.0,0,380,1.0,72.0
3777,52.0,0,380,1.0,72.0
3778,80.0,0,380,0.0,51.0
3779,76.0,0,380,0.0,51.0
3780,71.0,0,380,0.0,51.0
3781,74.0,384,380,0.0,51.0
3782,57.0,0,380,1.0,51.0
3783,81.0,0,380,0.0,51.0
3784,76.0,0,380,0.0,51.0
3785,72.0,0,380,0.0,51.0
3786,45.0,384,380,1.0,51.0
3787,72.0,192,144,0.0,51.0
3788,69.0,384,380,0.0,51.0
3789,76.0,192,144,0.0,51.0
3790,74.0,192,144,0.0,51.0
3791,71.0,0,380,0.0,51.0
3792,71.0,192,144,0.0,51.0
3793,68.0,192,380,0.0,51.0
3794,74.0,192,144,0.0,51.0
3795,72.0,192,144,0.0,51.0
3796,69.0,0,380,0.0,51.0
3797,69.0,192,144,0.0,51.0
3798,65.0,192,380,0.0,51.0
3799,72.0,0,144,0.0,51.0
3800,71.0,192,144,0.0,51.0
3801,62.0,192,380,0.0,51.0
3802,68.0,192,144,0.0,51.0
3803,64.0,192,380,0.0,51.0
3804,71.0,192,144,0.0,51.0
3805,69.0,192,144,0.0,51.0
3806,60.0,0,380,0.0,51.0
3807,72.0,0,92,0.0,72.0
3808,74.0,96,92,0.0,72.0
3809,76.0,96,92,0.0,72.0
3810,72.0,96,92,0.0,72.0
3811,57.0,0,380,1.0,72.0
3812,45.0,192,380,1.0,72.0
3813,74.0,96,92,0.0,72.0
3814,76.0,96,92,0.0,72.0
3815,77.0,96,92,0.0,72.0
3816,47.0,0,380,1.0,72.0
3817,59.0,0,380,1.0,72.0
3818,74.0,96,92,0.0,72.0
3819,71.0,0,92,0.0,72.0
3820,72.0,96,92,0.0,72.0
3821,74.0,96,92,0.0,72.0
3822,56.0,96,380,1.0,72.0
3823,44.0,0,380,1.0,72.0
3824,71.0,96,92,0.0,72.0
3825,72.0,96,92,0.0,72.0
3826,74.0,96,92,0.0,72.0
3827,76.0,96,92,0.0,72.0
3828,57.0,0,380,1.0,72.0
3829,45.0,0,380,1.0,72.0
3830,72.0,96,92,0.0,72.0
3831,69.0,96,92,0.0,72.0
3832,71.0,96,92,0.0,72.0
3833,72.0,96,92,0.0,72.0
3834,41.0,0,380,1.0,72.0
3835,53.0,0,380,1.0,72.0
3836,69.0,96,92,0.0,72.0
3837,71.0,0,92,0.0,72.0
3838,72.0,96,92,0.0,72.0
3839,74.0,96,92,0.0,72.0
3840,38.0,96,380,1.0,72.0
3841,50.0,0,380,1.0,72.0
3842,71.0,96,92,0.0,72.0
3843,68.0,96,92,0.0,72.0
3844,69.0,96,92,0.0,72.0
3845,71.0,96,92,0.0,72.0
3846,40.0,0,380,1.0,72.0
3847,52.0,0,380,1.0,72.0
3848,68.0,96,92,0.0,72.0
3849,57.0,96,44,0.0,72.0
3850,60.0,48,44,0.0,72.0
3851,64.0,48,44,0.0,72.0
3852,69.0,48,604,0.0,72.0
3853,45.0,0,764,1.0,72.0
3854,33.0,0,764,1.0,72.0
3855,64.0,0,764,0.0,72.0
3856,40.0,624,764,1.0,72.0
3857,48.0,768,572,1.0,72.0
3858,72.0,0,572,0.0,72.0
3859,74.0,0,48,0.0,72.0
3860,50.0,576,92,1.0,72.0
3861,71.0,0,48,0.0,72.0
3862,47.0,96,92,1.0,72.0
3863,45.0,0,380,1.0,72.0
3864,69.0,96,380,0.0,72.0
3865,76.0,768,572,0.0,51.0
3866,72.0,0,572,0.0,51.0
3867,77.0,576,92,0.0,51.0
3868,74.0,0,92,0.0,51.0
3869,74.0,96,92,0.0,51.0
3870,71.0,0,92,0.0,51.0
3871,72.0,96,380,0.0,51.0
3872,69.0,0,380,0.0,51.0
3873,84.0,768,572,0.0,41.0
3874,76.0,0,572,0.0,41.0
3875,86.0,576,92,0.0,41.0
3876,77.0,0,92,0.0,41.0
3877,74.0,96,92,0.0,41.0
3878,83.0,0,92,0.0,41.0
3879,81.0,96,380,0.0,41.0
3880,72.0,0,380,0.0,41.0
3881,59.0,768,48,0.0,72.0
3882,62.0,48,48,0.0,72.0
3883,67.0,48,48,0.0,72.0
3884,71.0,0,604,0.0,72.0
3885,47.0,0,604,1.0,72.0
3886,35.0,48,604,1.0,72.0
3887,67.0,0,764,0.0,72.0
3888,43.0,624,764,1.0,72.0
3889,31.0,0,764,1.0,72.0
3890,50.0,0,572,1.0,72.0
3891,74.0,768,572,0.0,72.0
3892,52.0,0,92,1.0,72.0
3893,76.0,576,92,0.0,72.0
3894,48.0,96,92,1.0,72.0
3895,72.0,0,92,0.0,72.0
3896,47.0,96,380,1.0,72.0
3897,71.0,0,380,0.0,72.0
3898,77.0,768,572,0.0,51.0
3899,74.0,0,572,0.0,51.0
3900,76.0,0,92,0.0,51.0
3901,79.0,576,92,0.0,51.0
3902,76.0,96,92,0.0,51.0
3903,72.0,0,92,0.0,51.0
3904,74.0,96,380,0.0,51.0
3905,71.0,0,380,0.0,51.0
3906,77.0,768,572,0.0,41.0
3907,86.0,0,572,0.0,41.0
3908,88.0,576,92,0.0,41.0
3909,79.0,0,92,0.0,41.0
3910,84.0,96,92,0.0,41.0
3911,76.0,0,92,0.0,41.0
3912,74.0,96,380,0.0,41.0
3913,83.0,0,380,0.0,41.0
3914,60.0,768,48,0.0,72.0
3915,64.0,48,48,0.0,72.0
3916,67.0,48,48,0.0,72.0
3917,48.0,0,528,1.0,51.0
3918,36.0,48,528,1.0,51.0
3919,72.0,0,604,0.0,72.0
3920,31.0,0,528,1.0,51.0
3921,43.0,624,528,1.0,51.0
3922,67.0,0,764,0.0,72.0
3923,52.0,768,572,1.0,51.0
3924,76.0,0,572,0.0,72.0
3925,55.0,576,92,1.0,51.0
3926,77.0,0,92,0.0,72.0
3927,50.0,96,92,1.0,51.0
3928,74.0,0,92,0.0,72.0
3929,72.0,96,380,0.0,72.0
3930,48.0,0,380,1.0,51.0
3931,64.0,768,144,0.0,51.0
3932,67.0,192,144,0.0,51.0
3933,79.0,0,380,0.0,51.0
3934,64.0,0,144,0.0,51.0
3935,67.0,192,144,0.0,51.0
3936,79.0,192,380,0.0,51.0
3937,61.0,192,144,0.0,51.0
3938,67.0,192,144,0.0,51.0
3939,61.0,192,144,0.0,51.0
3940,67.0,192,144,0.0,51.0
3941,81.0,0,380,0.0,51.0
3942,79.0,192,144,0.0,51.0
3943,62.0,0,144,0.0,51.0
3944,67.0,144,144,0.0,51.0
3945,77.0,0,44,0.0,51.0
3946,62.0,192,144,0.0,51.0
3947,67.0,192,144,0.0,51.0
3948,59.0,192,144,0.0,51.0
3949,67.0,192,144,0.0,51.0
3950,59.0,192,144,0.0,51.0
3951,79.0,0,240,0.0,51.0
3952,67.0,192,144,0.0,51.0
3953,60.0,192,144,0.0,51.0
3954,77.0,0,144,0.0,51.0
3955,67.0,144,144,0.0,51.0
3956,76.0,192,44,0.0,51.0
3957,60.0,0,144,0.0,51.0
3958,67.0,192,144,0.0,51.0
3959,64.0,192,144,0.0,51.0
3960,67.0,192,144,0.0,51.0
3961,79.0,192,144,0.0,51.0
3962,64.0,0,144,0.0,51.0
3963,76.0,192,144,0.0,51.0
3964,67.0,0,144,0.0,51.0
3965,73.0,192,144,0.0,51.0
3966,74.0,192,144,0.0,51.0
3967,77.0,192,144,0.0,51.0
3968,76.0,192,144,0.0,51.0
3969,73.0,192,144,0.0,51.0
3970,74.0,192,144,0.0,51.0
3971,77.0,192,144,0.0,51.0
3972,76.0,192,144,0.0,51.0
3973,69.0,0,1532,0.0,51.0
3974,65.0,0,1532,0.0,51.0
3975,73.0,192,144,0.0,51.0
3976,74.0,192,144,0.0,51.0
3977,77.0,0,144,0.0,51.0
3978,81.0,192,144,0.0,51.0
3979,62.0,192,380,1.0,51.0
3980,53.0,0,380,1.0,51.0
3981,57.0,0,380,1.0,51.0
3982,79.0,0,144,0.0,51.0
3983,76.0,192,144,0.0,51.0
3984,64.0,192,380,1.0,51.0
3985,60.0,0,380,1.0,51.0
3986,55.0,0,380,1.0,51.0
3987,77.0,0,144,0.0,51.0
3988,74.0,192,144,0.0,51.0
3989,59.0,0,380,1.0,51.0
3990,62.0,0,380,1.0,51.0
3991,55.0,192,380,1.0,51.0
3992,60.0,192,48,0.0,72.0
3993,63.0,48,48,0.0,72.0
3994,67.0,48,48,0.0,72.0
3995,72.0,48,604,0.0,72.0
3996,36.0,0,604,1.0,72.0
3997,48.0,0,604,1.0,72.0
3998,31.0,0,764,1.0,72.0
3999,43.0,0,764,1.0,72.0
4000,67.0,624,764,0.0,72.0
4001,75.0,0,572,0.0,72.0
4002,51.0,768,572,1.0,72.0
4003,53.0,576,92,1.0,72.0
4004,77.0,0,92,0.0,72.0
4005,50.0,96,92,1.0,72.0
4006,74.0,0,92,0.0,72.0
4007,72.0,0,380,0.0,72.0
4008,48.0,96,380,1.0,72.0
4009,78.0,768,44,0.0,51.0
4010,63.0,48,144,0.0,51.0
4011,67.0,144,144,0.0,51.0
4012,79.0,0,4,0.0,51.0
4013,63.0,192,144,0.0,51.0
4014,67.0,192,144,0.0,51.0
4015,60.0,192,144,0.0,51.0
4016,72.0,192,144,0.0,51.0
4017,67.0,0,144,0.0,51.0
4018,60.0,0,144,0.0,51.0
4019,84.0,192,144,0.0,51.0
4020,80.0,192,144,0.0,51.0
4021,67.0,0,144,0.0,51.0
4022,79.0,192,144,0.0,51.0
4023,62.0,0,144,0.0,51.0
4024,78.0,192,144,0.0,51.0
4025,67.0,0,144,0.0,51.0
4026,62.0,0,144,0.0,51.0
4027,67.0,192,144,0.0,51.0
4028,77.0,192,380,0.0,51.0
4029,59.0,192,144,0.0,51.0
4030,77.0,192,144,0.0,51.0
4031,67.0,0,144,0.0,51.0
4032,59.0,192,144,0.0,51.0
4033,80.0,0,144,0.0,51.0
4034,77.0,192,144,0.0,51.0
4035,67.0,0,144,0.0,51.0
4036,61.0,0,144,0.0,51.0
4037,77.0,0,144,0.0,72.0
4038,58.0,192,144,0.0,51.0
4039,76.0,0,144,0.0,72.0
4040,67.0,192,144,0.0,51.0
4041,61.0,0,144,0.0,51.0
4042,58.0,0,144,0.0,51.0
4043,67.0,192,144,0.0,51.0
4044,61.0,0,144,0.0,51.0
4045,58.0,192,144,0.0,51.0
4046,67.0,192,144,0.0,51.0
4047,85.0,192,764,0.0,51.0
4048,58.0,0,144,0.0,51.0
4049,61.0,192,144,0.0,51.0
4050,67.0,192,144,0.0,51.0
4051,76.0,0,380,0.0,51.0
4052,60.0,0,144,0.0,51.0
4053,56.0,0,144,0.0,51.0
4054,64.0,192,144,0.0,51.0
4055,79.0,192,380,0.0,51.0
4056,60.0,0,144,0.0,51.0
4057,56.0,0,144,0.0,51.0
4058,65.0,192,144,0.0,51.0
4059,77.0,192,380,0.0,51.0
4060,60.0,0,144,0.0,51.0
4061,56.0,192,144,0.0,51.0
4062,77.0,192,144,0.0,51.0
4063,65.0,0,144,0.0,51.0
4064,84.0,0,144,0.0,51.0
4065,60.0,0,144,0.0,51.0
4066,56.0,192,144,0.0,51.0
4067,80.0,0,144,0.0,51.0
4068,65.0,192,144,0.0,51.0
4069,79.0,192,144,0.0,72.0
4070,63.0,0,144,0.0,51.0
4071,60.0,0,144,0.0,51.0
4072,69.0,0,144,0.0,51.0
4073,78.0,192,144,0.0,72.0
4074,63.0,192,144,0.0,51.0
4075,60.0,0,144,0.0,51.0
4076,69.0,192,144,0.0,51.0
4077,60.0,192,144,0.0,51.0
4078,63.0,0,144,0.0,51.0
4079,69.0,192,144,0.0,51.0
4080,87.0,0,764,0.0,51.0
4081,60.0,0,144,0.0,51.0
4082,63.0,192,144,0.0,51.0
4083,69.0,192,144,0.0,51.0
4084,78.0,0,380,0.0,51.0
4085,81.0,192,144,0.0,41.0
4086,79.0,192,144,0.0,41.0
4087,62.0,0,380,0.0,41.0
4088,59.0,0,380,0.0,41.0
4089,78.0,192,144,0.0,41.0
4090,79.0,192,144,0.0,41.0
4091,78.0,192,144,0.0,41.0
4092,79.0,192,144,0.0,41.0
4093,78.0,192,144,0.0,41.0
4094,79.0,192,144,0.0,41.0
4095,77.0,192,144,0.0,46.0
4096,79.0,192,144,0.0,51.0
4097,67.0,0,144,0.0,51.0
4098,77.0,192,144,0.0,55.0
4099,66.0,0,144,0.0,55.0
4100,79.0,0,144,0.0,57.0
4101,67.0,192,144,0.0,57.0
4102,80.0,192,144,0.0,61.0
4103,68.0,0,144,0.0,61.0
4104,81.0,192,144,0.0,66.0
4105,69.0,0,144,0.0,66.0
4106,82.0,0,144,0.0,67.0
4107,70.0,192,144,0.0,67.0
4108,83.0,192,144,0.0,70.0
4109,71.0,0,144,0.0,70.0
4110,84.0,192,144,0.0,72.0
4111,72.0,0,144,0.0,72.0
4112,57.0,0,144,1.0,72.0
4113,84.0,192,144,0.0,72.0
4114,72.0,0,144,0.0,72.0
4115,60.0,0,144,1.0,72.0
4116,57.0,0,144,1.0,72.0
4117,60.0,192,144,1.0,72.0
4118,53.0,192,144,1.0,51.0
4119,60.0,192,144,1.0,51.0
4120,84.0,192,764,0.0,72.0
4121,72.0,0,764,0.0,72.0
4122,83.0,192,144,0.0,51.0
4123,53.0,0,144,1.0,51.0
4124,60.0,0,144,1.0,51.0
4125,81.0,192,144,0.0,51.0
4126,79.0,0,144,0.0,72.0
4127,72.0,192,144,0.0,72.0
4128,52.0,0,144,1.0,72.0
4129,79.0,0,144,0.0,72.0
4130,72.0,0,144,0.0,72.0
4131,60.0,192,144,1.0,72.0
4132,52.0,192,144,1.0,72.0
4133,60.0,192,144,1.0,72.0
4134,48.0,192,144,1.0,51.0
4135,60.0,192,144,1.0,51.0
4136,72.0,0,764,0.0,72.0
4137,79.0,0,764,0.0,72.0
4138,48.0,192,144,1.0,51.0
4139,77.0,0,144,0.0,51.0
4140,60.0,192,144,1.0,51.0
4141,76.0,0,144,0.0,51.0
4142,76.0,192,92,0.0,51.0
4143,53.0,0,144,1.0,51.0
4144,74.0,96,92,0.0,51.0
4145,77.0,0,92,0.0,51.0
4146,57.0,96,144,1.0,51.0
4147,76.0,96,92,0.0,51.0
4148,79.0,0,92,0.0,51.0
4149,53.0,96,144,1.0,51.0
4150,77.0,96,92,0.0,51.0
4151,76.0,0,92,0.0,51.0
4152,62.0,96,144,1.0,51.0
4153,74.0,96,92,0.0,51.0
4154,55.0,96,144,1.0,51.0
4155,64.0,192,144,1.0,51.0
4156,72.0,0,380,0.0,51.0
4157,71.0,0,44,0.0,51.0
4158,72.0,48,44,0.0,51.0
4159,71.0,48,44,0.0,51.0
4160,55.0,192,144,1.0,51.0
4161,72.0,48,44,0.0,51.0
4162,69.0,48,92,0.0,51.0
4163,62.0,0,144,1.0,51.0
4164,71.0,96,92,0.0,51.0
4165,84.0,0,144,0.0,72.0
4166,72.0,96,144,0.0,72.0
4167,57.0,0,144,1.0,72.0
4168,60.0,0,144,1.0,72.0
4169,84.0,192,144,0.0,72.0
4170,72.0,0,144,0.0,72.0
4171,57.0,0,144,1.0,72.0
4172,60.0,192,144,1.0,72.0
4173,53.0,192,144,1.0,51.0
4174,72.0,0,572,0.0,72.0
4175,84.0,192,572,0.0,72.0
4176,86.0,192,92,0.0,51.0
4177,60.0,0,144,1.0,51.0
4178,84.0,96,92,0.0,51.0
4179,53.0,96,144,1.0,51.0
4180,83.0,0,188,0.0,51.0
4181,60.0,192,144,1.0,51.0
4182,81.0,0,188,0.0,51.0
4183,52.0,0,144,1.0,72.0
4184,72.0,192,144,0.0,72.0
4185,79.0,0,144,0.0,72.0
4186,72.0,0,144,0.0,72.0
4187,60.0,0,144,1.0,72.0
4188,79.0,192,144,0.0,72.0
4189,52.0,192,144,1.0,72.0
4190,62.0,192,144,1.0,72.0
4191,48.0,192,144,1.0,51.0
4192,79.0,0,572,0.0,72.0
4193,72.0,0,572,0.0,72.0
4194,81.0,0,92,0.0,51.0
4195,60.0,192,144,1.0,51.0
4196,79.0,96,92,0.0,51.0
4197,48.0,96,144,1.0,51.0
4198,77.0,0,188,0.0,51.0
4199,60.0,192,144,1.0,51.0
4200,76.0,0,188,0.0,51.0
4201,76.0,0,92,0.0,51.0
4202,53.0,192,144,1.0,51.0
4203,74.0,96,92,0.0,51.0
4204,81.0,96,92,0.0,51.0
4205,60.0,0,144,1.0,51.0
4206,80.0,96,92,0.0,51.0
4207,83.0,96,44,0.0,51.0
4208,53.0,0,144,1.0,51.0
4209,81.0,48,140,0.0,51.0
4210,79.0,0,92,0.0,51.0
4211,60.0,144,144,1.0,51.0
4212,77.0,96,92,0.0,51.0
4213,55.0,0,144,1.0,51.0
4214,60.0,192,144,1.0,51.0
4215,76.0,96,380,0.0,51.0
4216,74.0,0,44,0.0,51.0
4217,76.0,48,44,0.0,51.0
4218,74.0,48,44,0.0,51.0
4219,55.0,192,144,1.0,51.0
4220,76.0,48,44,0.0,51.0
4221,72.0,0,92,0.0,51.0
4222,60.0,48,144,1.0,51.0
4223,74.0,96,92,0.0,51.0
4224,64.0,0,144,1.0,51.0
4225,60.0,0,144,1.0,51.0
4226,72.0,96,240,0.0,72.0
4227,64.0,192,144,1.0,51.0
4228,60.0,0,144,1.0,51.0
4229,60.0,192,144,1.0,51.0
4230,64.0,0,144,1.0,51.0
4231,74.0,144,44,0.0,51.0
4232,72.0,0,92,0.0,51.0
4233,60.0,0,144,1.0,51.0
4234,64.0,48,144,1.0,51.0
4235,71.0,96,92,0.0,51.0
4236,72.0,96,144,0.0,51.0
4237,60.0,0,144,1.0,51.0
4238,64.0,0,144,1.0,51.0
4239,60.0,0,144,1.0,51.0
4240,64.0,0,144,1.0,51.0
4241,75.0,192,144,0.0,51.0
4242,60.0,192,144,1.0,51.0
4243,76.0,0,144,0.0,51.0
4244,64.0,0,144,1.0,51.0
4245,60.0,0,144,1.0,51.0
4246,78.0,0,144,0.0,51.0
4247,64.0,192,144,1.0,51.0
4248,64.0,192,144,1.0,51.0
4249,79.0,0,144,0.0,51.0
4250,60.0,0,144,1.0,51.0
4251,64.0,0,144,1.0,51.0
4252,60.0,192,144,1.0,51.0
4253,83.0,0,144,0.0,51.0
4254,84.0,144,144,0.0,51.0
4255,60.0,0,144,1.0,51.0
4256,64.0,48,144,1.0,51.0
4257,87.0,0,144,0.0,51.0
4258,64.0,0,144,1.0,51.0
4259,60.0,192,144,1.0,51.0
4260,64.0,192,144,1.0,51.0
4261,60.0,0,144,1.0,51.0
4262,64.0,0,144,1.0,51.0
4263,60.0,192,144,1.0,51.0
4264,88.0,0,380,0.0,51.0
4265,64.0,192,144,1.0,51.0
4266,60.0,0,144,1.0,51.0
4267,64.0,0,144,1.0,51.0
4268,60.0,192,144,1.0,51.0
4269,62.0,0,144,1.0,51.0
4270,59.0,192,144,1.0,51.0
4271,62.0,156,144,1.0,51.0
4272,59.0,0,144,1.0,51.0
4273,74.0,0,380,0.0,72.0
4274,79.0,16,380,0.0,72.0
4275,86.0,20,380,0.0,72.0
4276,62.0,192,144,1.0,51.0
4277,59.0,0,144,1.0,51.0
4278,72.0,144,44,0.0,51.0
4279,71.0,0,92,0.0,51.0
4280,62.0,48,144,1.0,51.0
4281,59.0,0,144,1.0,51.0
4282,69.0,96,92,0.0,51.0
4283,62.0,96,144,1.0,51.0
4284,71.0,0,144,0.0,51.0
4285,59.0,0,144,1.0,51.0
4286,73.0,0,144,0.0,51.0
4287,59.0,192,144,1.0,51.0
4288,62.0,0,144,1.0,51.0
4289,74.0,0,144,0.0,51.0
4290,59.0,192,144,1.0,51.0
4291,62.0,0,144,1.0,51.0
4292,62.0,0,144,1.0,51.0
4293,59.0,192,144,1.0,51.0
4294,78.0,0,144,0.0,51.0
4295,62.0,192,144,1.0,51.0
4296,79.0,0,144,0.0,51.0
4297,59.0,0,144,1.0,51.0
4298,62.0,0,144,1.0,51.0
4299,81.0,0,144,0.0,51.0
4300,59.0,192,144,1.0,51.0
4301,83.0,0,144,0.0,51.0
4302,62.0,192,144,1.0,51.0
4303,59.0,0,144,1.0,51.0
4304,59.0,0,144,1.0,51.0
4305,85.0,192,144,0.0,51.0
4306,62.0,0,144,1.0,51.0
4307,62.0,192,144,1.0,51.0
4308,59.0,0,144,1.0,51.0
4309,59.0,0,144,1.0,51.0
4310,62.0,192,144,1.0,51.0
4311,86.0,0,380,0.0,51.0
4312,62.0,192,144,1.0,51.0
4313,59.0,0,144,1.0,51.0
4314,62.0,192,144,1.0,51.0
4315,59.0,0,144,1.0,51.0
4316,62.0,0,144,1.0,51.0
4317,57.0,0,144,1.0,51.0
4318,54.0,0,144,1.0,51.0
4319,54.0,0,144,1.0,51.0
4320,57.0,0,144,1.0,51.0
4321,62.0,156,144,1.0,51.0
4322,72.0,192,380,0.0,72.0
4323,78.0,16,380,0.0,72.0
4324,84.0,20,380,0.0,72.0
4325,54.0,192,144,1.0,51.0
4326,57.0,0,144,1.0,51.0
4327,62.0,0,144,1.0,51.0
4328,71.0,144,44,0.0,51.0
4329,69.0,48,92,0.0,51.0
4330,62.0,0,144,1.0,51.0
4331,57.0,0,144,1.0,51.0
4332,54.0,0,144,1.0,51.0
4333,68.0,96,92,0.0,51.0
4334,54.0,0,144,1.0,51.0
4335,57.0,0,144,1.0,51.0
4336,62.0,0,144,1.0,51.0
4337,69.0,96,144,0.0,51.0
4338,62.0,0,144,1.0,51.0
4339,57.0,0,144,1.0,51.0
4340,54.0,192,144,1.0,51.0
4341,71.0,0,144,0.0,51.0
4342,62.0,0,144,1.0,51.0
4343,54.0,0,144,1.0,51.0
4344,57.0,0,144,1.0,51.0
4345,72.0,192,144,0.0,51.0
4346,77.0,192,144,0.0,51.0
4347,54.0,0,144,1.0,51.0
4348,57.0,0,144,1.0,51.0
4349,62.0,0,144,1.0,51.0
4350,62.0,192,144,1.0,51.0
4351,57.0,0,144,1.0,51.0
4352,54.0,0,144,1.0,51.0
4353,78.0,0,144,0.0,51.0
4354,54.0,192,144,1.0,51.0
4355,57.0,0,144,1.0,51.0
4356,62.0,0,144,1.0,51.0
4357,80.0,0,144,0.0,51.0
4358,81.0,0,144,0.0,51.0
4359,54.0,192,144,1.0,51.0
4360,62.0,0,144,1.0,51.0
4361,57.0,0,144,1.0,51.0
4362,83.0,0,144,0.0,51.0
4363,54.0,192,144,1.0,51.0
4364,57.0,0,144,1.0,51.0
4365,62.0,0,144,1.0,51.0
4366,54.0,192,144,1.0,51.0
4367,57.0,0,144,1.0,51.0
4368,62.0,0,144,1.0,51.0
4369,54.0,192,144,1.0,51.0
4370,57.0,0,144,1.0,51.0
4371,62.0,0,144,1.0,51.0
4372,84.0,0,380,0.0,51.0
4373,62.0,0,144,1.0,51.0
4374,57.0,0,144,1.0,51.0
4375,54.0,192,144,1.0,51.0
4376,62.0,0,144,1.0,51.0
4377,54.0,192,144,1.0,51.0
4378,57.0,0,144,1.0,51.0
4379,83.0,192,92,0.0,72.0
4380,81.0,96,92,0.0,72.0
4381,84.0,96,92,0.0,72.0
4382,83.0,96,92,0.0,72.0
4383,86.0,96,144,0.0,72.0
4384,62.0,0,528,1.0,72.0
4385,55.0,0,528,1.0,72.0
4386,78.0,192,144,0.0,72.0
4387,79.0,0,92,0.0,72.0
4388,78.0,96,92,0.0,72.0
4389,81.0,96,92,0.0,72.0
4390,79.0,96,92,0.0,72.0
4391,83.0,96,144,0.0,72.0
4392,59.0,0,528,1.0,72.0
4393,55.0,192,528,1.0,72.0
4394,74.0,192,144,0.0,72.0
4395,76.0,0,92,0.0,72.0
4396,75.0,96,92,0.0,72.0
4397,78.0,96,92,0.0,72.0
4398,76.0,96,92,0.0,72.0
4399,55.0,0,528,1.0,72.0
4400,79.0,96,144,0.0,72.0
4401,60.0,192,528,1.0,72.0
4402,71.0,192,144,0.0,72.0
4403,72.0,192,92,0.0,72.0
4404,71.0,96,92,0.0,72.0
4405,74.0,96,92,0.0,72.0
4406,72.0,96,92,0.0,72.0
4407,64.0,0,528,1.0,72.0
4408,55.0,0,528,1.0,72.0
4409,76.0,96,144,0.0,72.0
4410,69.0,192,144,0.0,72.0
4411,71.0,0,92,0.0,72.0
4412,69.0,96,92,0.0,72.0
4413,72.0,96,92,0.0,72.0
4414,55.0,0,380,1.0,72.0
4415,71.0,96,92,0.0,72.0
4416,67.0,192,380,1.0,72.0
4417,74.0,96,144,0.0,72.0
4418,66.0,0,144,0.0,72.0
4419,54.0,192,144,1.0,72.0
4420,67.0,192,92,0.0,72.0
4421,55.0,0,92,1.0,72.0
4422,66.0,0,92,0.0,72.0
4423,54.0,96,92,1.0,72.0
4424,69.0,96,92,0.0,72.0
4425,57.0,0,92,1.0,72.0
4426,67.0,96,92,0.0,72.0
4427,55.0,0,92,1.0,72.0
4428,71.0,96,144,0.0,72.0
4429,59.0,0,144,1.0,72.0
4430,62.0,192,144,0.0,72.0
4431,50.0,0,144,1.0,72.0
4432,52.0,0,284,1.0,72.0
4433,64.0,192,284,0.0,72.0
4434,62.0,288,92,0.0,72.0
4435,50.0,0,92,1.0,72.0
4436,60.0,96,284,0.0,72.0
4437,48.0,0,284,1.0,72.0
4438,59.0,288,92,0.0,72.0
4439,47.0,0,92,1.0,72.0
4440,48.0,0,284,1.0,72.0
4441,60.0,96,284,0.0,72.0
4442,45.0,0,92,1.0,72.0
4443,57.0,288,92,1.0,72.0
4444,43.0,96,284,1.0,72.0
4445,55.0,0,284,1.0,72.0
4446,41.0,288,92,1.0,72.0
4447,53.0,0,92,1.0,72.0
4448,55.0,96,144,1.0,72.0
4449,43.0,0,144,1.0,72.0
4450,59.0,192,92,1.0,72.0
4451,47.0,0,92,1.0,72.0
4452,50.0,96,92,1.0,72.0
4453,62.0,0,92,0.0,72.0
4454,55.0,96,144,1.0,72.0
4455,67.0,0,144,0.0,72.0
4456,55.0,192,144,1.0,72.0
4457,67.0,0,144,0.0,72.0
4458,67.0,0,380,0.0,72.0
4459,55.0,192,380,1.0,72.0
4460,78.0,768,144,0.0,51.0
4461,79.0,192,144,0.0,51.0
4462,78.0,192,144,0.0,51.0
4463,79.0,192,144,0.0,51.0
4464,78.0,192,144,0.0,51.0
4465,79.0,192,144,0.0,51.0
4466,78.0,192,144,0.0,51.0
4467,79.0,192,144,0.0,51.0
4468,77.0,192,144,0.0,51.0
4469,79.0,192,144,0.0,51.0
4470,76.0,192,144,0.0,51.0
4471,79.0,192,144,0.0,51.0
4472,77.0,192,144,0.0,51.0
4473,79.0,192,144,0.0,51.0
4474,74.0,192,144,0.0,51.0
4475,79.0,192,144,0.0,51.0
4476,72.0,192,144,0.0,51.0
4477,64.0,0,144,0.0,51.0
4478,79.0,0,144,0.0,51.0
4479,65.0,192,144,0.0,51.0
4480,72.0,192,144,0.0,51.0
4481,67.0,0,144,0.0,51.0
4482,64.0,192,144,0.0,51.0
4483,79.0,0,144,0.0,51.0
4484,76.0,192,144,0.0,51.0
4485,79.0,192,144,0.0,51.0
4486,60.0,0,528,0.0,51.0
4487,76.0,192,144,0.0,51.0
4488,79.0,192,144,0.0,51.0
4489,77.0,192,144,0.0,51.0
4490,62.0,0,144,0.0,51.0
4491,64.0,0,144,0.0,51.0
4492,79.0,192,144,0.0,51.0
4493,77.0,0,144,0.0,51.0
4494,65.0,192,144,0.0,51.0
4495,79.0,192,144,0.0,51.0
4496,62.0,0,144,0.0,51.0
4497,74.0,192,144,0.0,51.0
4498,79.0,192,144,0.0,51.0
4499,59.0,0,528,0.0,51.0
4500,74.0,192,144,0.0,51.0
4501,79.0,192,144,0.0,51.0
4502,62.0,0,92,0.0,51.0
4503,76.0,192,144,0.0,51.0
4504,60.0,96,144,0.0,51.0
4505,79.0,96,144,0.0,51.0
4506,65.0,0,92,0.0,51.0
4507,72.0,192,144,0.0,51.0
4508,64.0,96,144,0.0,51.0
4509,79.0,96,144,0.0,51.0
4510,61.0,192,92,0.0,51.0
4511,71.0,0,144,0.0,51.0
4512,62.0,96,144,0.0,51.0
4513,79.0,96,144,0.0,51.0
4514,74.0,192,144,0.0,51.0
4515,79.0,192,144,0.0,51.0
4516,65.0,0,92,0.0,51.0
4517,72.0,192,144,0.0,51.0
4518,64.0,96,144,0.0,51.0
4519,79.0,96,144,0.0,51.0
4520,72.0,192,92,0.0,51.0
4521,67.0,0,144,0.0,51.0
4522,66.0,96,144,0.0,51.0
4523,81.0,96,144,0.0,51.0
4524,69.0,192,92,0.0,51.0
4525,71.0,0,144,0.0,51.0
4526,67.0,96,144,0.0,51.0
4527,74.0,96,144,0.0,51.0
4528,78.0,192,144,0.0,51.0
4529,79.0,192,144,0.0,51.0
4530,76.0,192,144,0.0,51.0
4531,48.0,0,144,1.0,51.0
4532,55.0,0,144,1.0,51.0
4533,77.0,192,144,0.0,51.0
4534,79.0,192,144,0.0,51.0
4535,48.0,0,144,1.0,51.0
4536,55.0,192,144,1.0,51.0
4537,76.0,0,144,0.0,51.0
4538,52.0,0,144,1.0,51.0
4539,55.0,192,144,1.0,51.0
4540,52.0,192,144,1.0,51.0
4541,55.0,192,144,1.0,51.0
4542,72.0,192,764,0.0,51.0
4543,74.0,0,144,0.0,51.0
4544,53.0,192,144,1.0,51.0
4545,76.0,192,144,0.0,51.0
4546,55.0,0,144,1.0,51.0
4547,53.0,0,144,1.0,51.0
4548,77.0,192,144,0.0,51.0
4549,74.0,144,144,0.0,51.0
4550,55.0,48,144,1.0,51.0
4551,50.0,0,144,1.0,51.0
4552,55.0,192,144,1.0,51.0
4553,50.0,192,144,1.0,51.0
4554,55.0,192,144,1.0,51.0
4555,83.0,192,764,0.0,51.0
4556,84.0,192,92,0.0,51.0
4557,52.0,0,144,1.0,51.0
4558,55.0,96,144,1.0,51.0
4559,83.0,96,284,0.0,51.0
4560,81.0,0,92,0.0,51.0
4561,48.0,192,144,1.0,51.0
4562,55.0,96,144,1.0,51.0
4563,79.0,96,284,0.0,51.0
4564,76.0,192,92,0.0,51.0
4565,50.0,0,144,1.0,51.0
4566,55.0,96,144,1.0,51.0
4567,77.0,96,284,0.0,51.0
4568,47.0,192,144,1.0,51.0
4569,55.0,192,144,1.0,51.0
4570,77.0,192,92,0.0,51.0
4571,48.0,0,144,1.0,51.0
4572,55.0,96,144,1.0,51.0
4573,76.0,96,284,0.0,51.0
4574,74.0,0,92,0.0,51.0
4575,45.0,192,144,1.0,51.0
4576,54.0,96,144,1.0,51.0
4577,72.0,96,284,0.0,51.0
4578,81.0,0,92,0.0,51.0
4579,43.0,192,144,1.0,51.0
4580,55.0,96,144,1.0,51.0
4581,79.0,96,284,0.0,51.0
4582,41.0,192,144,1.0,51.0
4583,53.0,192,144,1.0,51.0
4584,40.0,0,92,1.0,51.0
4585,48.0,96,92,1.0,51.0
4586,47.0,96,92,1.0,51.0
4587,48.0,96,92,1.0,51.0
4588,50.0,96,92,1.0,51.0
4589,48.0,96,92,1.0,51.0
4590,47.0,96,92,1.0,51.0
4591,79.0,192,764,0.0,72.0
4592,67.0,0,764,0.0,72.0
4593,48.0,96,92,1.0,51.0
4594,77.0,96,144,0.0,51.0
4595,40.0,0,240,1.0,51.0
4596,76.0,192,144,0.0,51.0
4597,74.0,192,144,0.0,51.0
4598,72.0,192,144,0.0,51.0
4599,41.0,0,92,1.0,51.0
4600,48.0,96,92,1.0,51.0
4601,47.0,96,92,1.0,51.0
4602,81.0,192,380,0.0,51.0
4603,48.0,96,92,1.0,51.0
4604,69.0,0,380,0.0,51.0
4605,50.0,96,92,1.0,51.0
4606,48.0,96,92,1.0,51.0
4607,47.0,96,92,1.0,51.0
4608,48.0,96,92,1.0,51.0
4609,79.0,0,144,0.0,51.0
4610,77.0,192,144,0.0,51.0
4611,41.0,96,380,1.0,51.0
4612,76.0,192,144,0.0,51.0
4613,74.0,192,144,0.0,51.0
4614,76.0,192,92,0.0,51.0
4615,43.0,0,144,1.0,51.0
4616,77.0,96,92,0.0,51.0
4617,79.0,96,92,0.0,51.0
4618,48.0,0,144,1.0,51.0
4619,76.0,96,92,0.0,51.0
4620,72.0,0,144,0.0,51.0
4621,52.0,96,144,1.0,51.0
4622,48.0,192,144,1.0,51.0
4623,74.0,192,92,0.0,51.0
4624,43.0,0,144,1.0,51.0
4625,76.0,96,92,0.0,51.0
4626,77.0,96,92,0.0,51.0
4627,50.0,0,144,1.0,51.0
4628,74.0,96,92,0.0,51.0
4629,71.0,0,144,0.0,51.0
4630,53.0,96,144,1.0,51.0
4631,50.0,192,144,1.0,51.0
4632,52.0,0,92,1.0,51.0
4633,60.0,96,92,1.0,51.0
4634,59.0,96,92,1.0,51.0
4635,60.0,96,92,1.0,51.0
4636,62.0,96,92,1.0,51.0
4637,60.0,96,92,1.0,51.0
4638,59.0,96,92,1.0,51.0
4639,79.0,0,764,0.0,72.0
4640,60.0,96,92,1.0,51.0
4641,67.0,192,764,0.0,72.0
4642,77.0,0,92,0.0,51.0
4643,79.0,96,92,0.0,51.0
4644,77.0,96,92,0.0,51.0
4645,76.0,96,92,0.0,51.0
4646,52.0,96,380,1.0,51.0
4647,74.0,96,92,0.0,51.0
4648,76.0,96,92,0.0,51.0
4649,74.0,96,92,0.0,51.0
4650,72.0,96,92,0.0,51.0
4651,57.0,0,92,1.0,51.0
4652,65.0,96,92,1.0,51.0
4653,64.0,96,92,1.0,51.0
4654,65.0,96,92,1.0,51.0
4655,67.0,96,92,1.0,51.0
4656,65.0,96,92,1.0,51.0
4657,64.0,96,92,1.0,51.0
4658,72.0,96,764,0.0,51.0
4659,84.0,0,764,0.0,51.0
4660,65.0,96,92,1.0,51.0
4661,83.0,0,92,0.0,51.0
4662,84.0,96,92,0.0,51.0
4663,83.0,96,92,0.0,51.0
4664,81.0,96,92,0.0,51.0
4665,57.0,96,380,1.0,51.0
4666,79.0,96,92,0.0,51.0
4667,81.0,96,92,0.0,51.0
4668,79.0,96,92,0.0,51.0
4669,77.0,96,92,0.0,51.0
4670,55.0,0,144,1.0,51.0
4671,76.0,96,144,0.0,51.0
4672,72.0,192,144,0.0,51.0
4673,60.0,0,144,1.0,51.0
4674,57.0,192,144,1.0,51.0
4675,60.0,192,144,1.0,51.0
4676,77.0,0,380,0.0,72.0
4677,76.0,192,144,0.0,51.0
4678,55.0,0,144,1.0,51.0
4679,72.0,192,144,0.0,51.0
4680,60.0,0,144,1.0,51.0
4681,53.0,192,144,1.0,51.0
4682,60.0,192,144,1.0,51.0
4683,81.0,0,380,0.0,72.0
4684,79.0,192,144,0.0,51.0
4685,52.0,0,144,1.0,51.0
4686,72.0,0,144,0.0,51.0
4687,60.0,192,144,1.0,51.0
4688,57.0,0,144,1.0,51.0
4689,60.0,192,144,1.0,51.0
4690,77.0,192,380,0.0,72.0
4691,76.0,0,144,0.0,51.0
4692,55.0,192,144,1.0,51.0
4693,72.0,192,144,0.0,51.0
4694,60.0,0,144,1.0,51.0
4695,53.0,0,144,1.0,51.0
4696,60.0,192,144,1.0,51.0
4697,81.0,192,380,0.0,72.0
4698,52.0,0,144,1.0,66.0
4699,61.0,192,144,1.0,66.0
4700,55.0,0,144,1.0,66.0
4701,52.0,0,144,1.0,66.0
4702,55.0,192,144,1.0,66.0
4703,61.0,0,144,1.0,66.0
4704,61.0,0,144,1.0,66.0
4705,52.0,0,144,1.0,66.0
4706,55.0,192,144,1.0,66.0
4707,61.0,192,144,1.0,66.0
4708,55.0,0,144,1.0,66.0
4709,52.0,0,144,1.0,66.0
4710,70.0,0,764,0.0,72.0
4711,82.0,0,764,0.0,72.0
4712,55.0,0,144,1.0,66.0
4713,52.0,0,144,1.0,66.0
4714,61.0,0,144,1.0,66.0
4715,61.0,192,144,1.0,66.0
4716,55.0,0,144,1.0,66.0
4717,52.0,0,144,1.0,66.0
4718,82.0,192,380,0.0,72.0
4719,70.0,0,380,0.0,72.0
4720,55.0,192,144,1.0,66.0
4721,61.0,0,144,1.0,66.0
4722,52.0,0,144,1.0,66.0
4723,52.0,192,144,1.0,66.0
4724,55.0,0,144,1.0,66.0
4725,61.0,0,144,1.0,66.0
4726,70.0,0,380,0.0,72.0
4727,82.0,0,380,0.0,72.0
4728,81.0,0,144,0.0,72.0
4729,69.0,0,144,0.0,72.0
4730,79.0,192,144,0.0,72.0
4731,62.0,0,380,1.0,65.0
4732,57.0,192,380,1.0,65.0
4733,53.0,0,380,1.0,65.0
4734,77.0,192,44,0.0,72.0
4735,79.0,48,44,0.0,72.0
4736,77.0,48,44,0.0,72.0
4737,79.0,48,44,0.0,72.0
4738,76.0,48,144,0.0,72.0
4739,74.0,192,44,0.0,72.0
4740,76.0,48,44,0.0,72.0
4741,74.0,48,44,0.0,72.0
4742,76.0,48,44,0.0,72.0
4743,72.0,48,144,0.0,72.0
4744,71.0,192,44,0.0,66.0
4745,72.0,48,44,0.0,66.0
4746,71.0,48,44,0.0,66.0
4747,72.0,48,44,0.0,66.0
4748,69.0,48,144,0.0,66.0
4749,55.0,192,92,1.0,61.0
4750,67.0,0,144,0.0,66.0
4751,64.0,96,92,1.0,61.0
4752,69.0,96,92,0.0,66.0
4753,60.0,0,92,1.0,61.0
4754,64.0,0,92,1.0,61.0
4755,71.0,96,92,0.0,66.0
4756,55.0,0,92,1.0,61.0
4757,72.0,96,92,0.0,66.0
4758,74.0,96,92,0.0,66.0
4759,64.0,0,92,1.0,61.0
4760,76.0,96,92,0.0,66.0
4761,60.0,0,92,1.0,61.0
4762,77.0,96,92,0.0,66.0
4763,64.0,0,92,1.0,61.0
4764,78.0,96,92,0.0,66.0
4765,55.0,0,92,1.0,61.0
4766,79.0,96,92,0.0,66.0
4767,64.0,0,92,1.0,61.0
4768,81.0,96,92,0.0,66.0
4769,60.0,0,92,1.0,61.0
4770,79.0,0,92,0.0,66.0
4771,64.0,96,92,1.0,61.0
4772,78.0,96,44,0.0,66.0
4773,55.0,0,92,1.0,61.0
4774,64.0,48,92,1.0,61.0
4775,76.0,48,140,0.0,66.0
4776,60.0,96,92,1.0,61.0
4777,74.0,0,92,0.0,66.0
4778,64.0,96,92,1.0,61.0
4779,72.0,0,92,0.0,66.0
4780,74.0,96,44,0.0,66.0
4781,76.0,48,44,0.0,66.0
4782,55.0,0,92,1.0,61.0
4783,74.0,0,44,0.0,66.0
4784,65.0,48,92,1.0,61.0
4785,76.0,48,44,0.0,66.0
4786,74.0,0,44,0.0,66.0
4787,59.0,48,92,1.0,61.0
4788,76.0,48,44,0.0,66.0
4789,74.0,32,44,0.0,66.0
4790,65.0,16,92,1.0,61.0
4791,76.0,48,44,0.0,66.0
4792,74.0,0,44,0.0,66.0
4793,76.0,48,44,0.0,66.0
4794,55.0,48,92,1.0,61.0
4795,74.0,48,44,0.0,66.0
4796,65.0,0,92,1.0,61.0
4797,76.0,48,44,0.0,66.0
4798,74.0,48,44,0.0,66.0
4799,76.0,48,44,0.0,66.0
4800,59.0,0,92,1.0,61.0
4801,74.0,48,44,0.0,66.0
4802,65.0,0,92,1.0,61.0
4803,76.0,48,44,0.0,66.0
4804,74.0,0,44,0.0,66.0
4805,76.0,48,44,0.0,66.0
4806,55.0,48,92,1.0,61.0
4807,74.0,32,44,0.0,66.0
4808,65.0,16,92,1.0,61.0
4809,76.0,48,44,0.0,66.0
4810,74.0,48,44,0.0,66.0
4811,76.0,48,44,0.0,66.0
4812,59.0,0,92,1.0,61.0
4813,74.0,0,44,0.0,66.0
4814,76.0,48,44,0.0,66.0
4815,65.0,48,92,1.0,61.0
4816,74.0,0,44,0.0,66.0
4817,55.0,48,92,1.0,61.0
4818,76.0,48,44,0.0,66.0
4819,74.0,0,44,0.0,66.0
4820,76.0,48,44,0.0,66.0
4821,65.0,48,92,1.0,61.0
4822,72.0,48,92,0.0,66.0
4823,59.0,0,92,1.0,61.0
4824,74.0,96,92,0.0,66.0
4825,65.0,0,92,1.0,61.0
4826,72.0,96,380,0.0,51.0
4827,64.0,0,380,1.0,61.0
4828,60.0,0,380,1.0,61.0
4829,76.0,192,144,0.0,51.0
4830,72.0,384,380,0.0,51.0
4831,79.0,0,144,0.0,51.0
4832,77.0,192,144,0.0,51.0
4833,74.0,192,380,0.0,51.0
4834,74.0,192,144,0.0,51.0
4835,71.0,192,380,0.0,51.0
4836,77.0,192,144,0.0,51.0
4837,76.0,192,144,0.0,51.0
4838,72.0,0,380,0.0,51.0
4839,72.0,192,144,0.0,51.0
4840,69.0,192,380,0.0,51.0
4841,76.0,192,144,0.0,51.0
4842,74.0,192,144,0.0,51.0
4843,65.0,0,380,0.0,51.0
4844,71.0,192,144,0.0,51.0
4845,67.0,192,380,0.0,51.0
4846,74.0,0,144,0.0,51.0
4847,72.0,192,144,0.0,51.0
4848,64.0,192,380,0.0,51.0
4849,76.0,192,92,0.0,72.0
4850,77.0,96,92,0.0,72.0
4851,79.0,96,92,0.0,72.0
4852,48.0,0,380,1.0,72.0
4853,60.0,0,380,1.0,72.0
4854,76.0,96,92,0.0,72.0
4855,77.0,0,92,0.0,72.0
4856,79.0,96,92,0.0,72.0
4857,81.0,96,92,0.0,72.0
4858,77.0,96,92,0.0,72.0
4859,50.0,0,380,1.0,72.0
4860,62.0,96,380,1.0,72.0
4861,74.0,96,92,0.0,72.0
4862,76.0,96,92,0.0,72.0
4863,77.0,96,92,0.0,72.0
4864,74.0,96,92,0.0,72.0
4865,59.0,0,380,1.0,72.0
4866,47.0,0,380,1.0,72.0
4867,76.0,0,92,0.0,72.0
4868,77.0,96,92,0.0,72.0
4869,79.0,96,92,0.0,72.0
4870,48.0,96,380,1.0,72.0
4871,76.0,96,92,0.0,72.0
4872,60.0,0,380,1.0,72.0
4873,72.0,0,92,0.0,72.0
4874,74.0,96,92,0.0,72.0
4875,76.0,96,92,0.0,72.0
4876,45.0,0,380,1.0,72.0
4877,57.0,96,380,1.0,72.0
4878,72.0,96,92,0.0,72.0
4879,74.0,0,92,0.0,72.0
4880,76.0,96,92,0.0,72.0
4881,77.0,96,92,0.0,72.0
4882,74.0,96,92,0.0,72.0
4883,53.0,0,380,1.0,72.0
4884,41.0,96,380,1.0,72.0
4885,71.0,0,92,0.0,72.0
4886,72.0,96,92,0.0,72.0
4887,74.0,96,92,0.0,72.0
4888,71.0,48,92,0.0,72.0
4889,55.0,96,380,1.0,72.0
4890,43.0,0,380,1.0,72.0
4891,60.0,144,44,0.0,72.0
4892,64.0,48,44,0.0,72.0
4893,67.0,48,44,0.0,72.0
4894,72.0,0,604,0.0,72.0
4895,48.0,0,764,1.0,72.0
4896,36.0,48,764,1.0,72.0
4897,43.0,0,764,1.0,72.0
4898,67.0,624,764,0.0,72.0
4899,76.0,768,572,0.0,72.0
4900,52.0,0,572,1.0,72.0
4901,53.0,0,92,1.0,72.0
4902,77.0,576,92,0.0,72.0
4903,50.0,0,92,1.0,72.0
4904,74.0,96,92,0.0,72.0
4905,72.0,0,380,0.0,72.0
4906,48.0,96,380,1.0,72.0
4907,74.0,384,92,0.0,73.0
4908,77.0,96,92,0.0,75.0
4909,79.0,96,92,0.0,76.0
4910,55.0,0,380,1.0,77.0
4911,83.0,96,92,0.0,77.0
4912,43.0,0,380,1.0,77.0
4913,72.0,0,92,0.0,77.0
4914,76.0,96,92,0.0,77.0
4915,79.0,96,92,0.0,77.0
4916,83.0,96,92,0.0,77.0
4917,60.0,96,380,1.0,77.0
4918,74.0,0,92,0.0,77.0
4919,77.0,96,92,0.0,77.0
4920,79.0,96,92,0.0,77.0
4921,43.0,0,380,1.0,77.0
4922,55.0,96,380,1.0,77.0
4923,83.0,96,92,0.0,77.0
4924,72.0,0,92,0.0,77.0
4925,76.0,96,92,0.0,77.0
4926,79.0,96,92,0.0,77.0
4927,60.0,0,380,1.0,77.0
4928,48.0,96,380,1.0,77.0
4929,84.0,96,92,0.0,77.0
4930,74.0,96,92,0.0,77.0
4931,77.0,96,92,0.0,77.0
4932,79.0,96,92,0.0,77.0
4933,83.0,96,92,0.0,77.0
4934,43.0,0,380,1.0,77.0
4935,55.0,0,380,1.0,77.0
4936,84.0,0,380,0.0,77.0
4937,76.0,96,380,0.0,77.0
4938,48.0,0,380,1.0,77.0
4939,60.0,0,380,1.0,77.0
4940,36.0,0,380,1.0,77.0
4941,64.0,0,380,0.0,77.0
4942,67.0,0,380,0.0,77.0
4943,72.0,384,380,0.0,77.0
4944,48.0,0,380,1.0,77.0
4945,72.0,0,380,0.0,77.0
4946,67.0,0,380,0.0,77.0
4947,36.0,0,380,1.0,77.0
4948,48.0,384,380,1.0,77.0
4949,64.0,0,380,0.0,77.0
