,note,step,duration,channel,velocity
0,67.0,0,480,0.0,59.0
1,70.0,0,480,0.0,59.0
2,65.0,0,260,0.0,55.0
3,68.0,479,260,0.0,55.0
4,51.0,0,960,0.0,51.0
5,63.0,240,260,0.0,53.0
6,67.0,0,260,0.0,53.0
7,72.0,240,260,0.0,54.0
8,68.0,0,260,0.0,54.0
9,67.0,0,240,0.0,52.0
10,70.0,240,240,0.0,52.0
11,51.0,240,480,0.0,50.0
12,70.0,0,480,0.0,59.0
13,67.0,0,480,0.0,59.0
14,65.0,0,480,0.0,53.0
15,68.0,0,480,0.0,53.0
16,53.0,480,480,0.0,46.0
17,55.0,0,480,0.0,45.0
18,63.0,0,480,0.0,51.0
19,67.0,480,480,0.0,51.0
20,58.0,480,480,0.0,55.0
21,61.0,0,480,0.0,55.0
22,64.0,0,480,0.0,65.0
23,65.0,0,240,0.0,55.0
24,56.0,480,480,0.0,51.0
25,72.0,240,240,0.0,55.0
26,60.0,0,480,0.0,51.0
27,70.0,240,120,0.0,53.0
28,68.0,120,120,0.0,51.0
29,67.0,120,120,0.0,53.0
30,65.0,120,120,0.0,52.0
31,45.0,0,120,0.0,47.0
32,46.0,120,120,0.0,50.0
33,48.0,120,120,0.0,53.0
34,46.0,120,120,0.0,51.0
35,63.0,0,480,0.0,59.0
36,55.0,120,480,0.0,59.0
37,53.0,0,120,0.0,53.0
38,62.0,0,120,0.0,53.0
39,58.0,180,60,0.0,47.0
40,62.0,60,60,0.0,51.0
41,60.0,60,60,0.0,49.0
42,63.0,60,60,0.0,52.0
43,62.0,60,60,0.0,51.0
44,46.0,120,480,0.0,49.0
45,65.0,60,60,0.0,53.0
46,63.0,60,60,0.0,51.0
47,67.0,60,60,0.0,54.0
48,65.0,60,60,0.0,54.0
49,68.0,60,60,0.0,57.0
50,67.0,60,60,0.0,54.0
51,70.0,60,60,0.0,59.0
52,68.0,60,60,0.0,56.0
53,72.0,60,60,0.0,60.0
54,70.0,0,300,0.0,61.0
55,72.0,300,60,0.0,53.0
56,39.0,0,480,0.0,53.0
57,51.0,0,480,0.0,53.0
58,70.0,60,60,0.0,50.0
59,67.0,60,420,0.0,61.0
60,68.0,60,120,0.0,53.0
61,67.0,120,120,0.0,51.0
62,65.0,120,120,0.0,53.0
63,63.0,120,120,0.0,52.0
64,79.0,0,120,0.0,62.0
65,74.0,120,120,0.0,54.0
66,75.0,120,120,0.0,58.0
67,51.0,120,480,0.0,49.0
68,60.0,0,480,0.0,49.0
69,72.0,120,120,0.0,52.0
70,53.0,0,480,0.0,53.0
71,70.0,480,0,0.0,50.0
72,60.0,0,480,0.0,53.0
73,68.0,45,60,0.0,48.0
74,70.0,45,60,0.0,50.0
75,68.0,45,60,0.0,48.0
76,70.0,45,60,0.0,50.0
77,68.0,45,60,0.0,48.0
78,70.0,45,60,0.0,50.0
79,68.0,45,60,0.0,49.0
80,67.0,45,60,0.0,57.0
81,68.0,60,60,0.0,55.0
82,62.0,0,480,0.0,50.0
83,58.0,0,480,0.0,50.0
84,67.0,60,60,0.0,60.0
85,75.0,120,120,0.0,65.0
86,63.0,0,240,0.0,49.0
87,60.0,0,240,0.0,49.0
88,74.0,120,120,0.0,62.0
89,73.0,120,120,0.0,59.0
90,74.0,90,30,0.0,53.0
91,71.0,120,120,0.0,57.0
92,70.0,90,30,0.0,53.0
93,72.0,30,120,0.0,61.0
94,67.0,90,30,0.0,47.0
95,68.0,30,120,0.0,57.0
96,65.0,30,120,0.0,55.0
97,56.0,0,480,0.0,54.0
98,44.0,0,480,0.0,54.0
99,55.0,0,480,0.0,50.0
100,63.0,120,720,0.0,51.0
101,67.0,0,120,0.0,50.0
102,56.0,480,480,0.0,40.0
103,46.0,0,960,0.0,50.0
104,62.0,240,240,0.0,50.0
105,65.0,120,120,0.0,47.0
106,51.0,120,120,0.0,32.0
107,55.0,120,120,0.0,32.0
108,58.0,120,120,0.0,30.0
109,55.0,120,120,0.0,27.0
110,63.0,0,480,0.0,46.0
111,51.0,120,120,0.0,33.0
112,55.0,120,120,0.0,29.0
113,58.0,0,120,0.0,31.0
114,55.0,120,120,0.0,29.0
115,70.0,120,240,0.0,49.0
116,67.0,0,0,0.0,52.0
117,51.0,0,120,0.0,33.0
118,70.0,120,240,0.0,52.0
119,55.0,120,120,0.0,29.0
120,58.0,120,120,0.0,31.0
121,67.0,0,240,0.0,46.0
122,70.0,0,240,0.0,46.0
123,55.0,120,120,0.0,29.0
124,51.0,0,120,0.0,36.0
125,75.0,120,240,0.0,57.0
126,53.0,120,120,0.0,27.0
127,56.0,0,120,0.0,30.0
128,53.0,120,120,0.0,27.0
129,51.0,120,120,0.0,32.0
130,53.0,120,120,0.0,27.0
131,68.0,0,720,0.0,57.0
132,74.0,120,480,0.0,50.0
133,56.0,120,120,0.0,30.0
134,82.0,0,120,0.0,54.0
135,53.0,120,120,0.0,27.0
136,80.0,0,120,0.0,51.0
137,51.0,0,120,0.0,32.0
138,79.0,120,120,0.0,54.0
139,53.0,120,120,0.0,27.0
140,77.0,0,120,0.0,52.0
141,56.0,120,120,0.0,30.0
142,75.0,0,120,0.0,52.0
143,74.0,120,120,0.0,49.0
144,53.0,0,120,0.0,27.0
145,77.0,120,40,0.0,54.0
146,75.0,40,40,0.0,52.0
147,77.0,40,40,0.0,54.0
148,51.0,0,120,0.0,33.0
149,55.0,40,120,0.0,27.0
150,75.0,0,240,0.0,53.0
151,58.0,120,120,0.0,30.0
152,74.0,120,60,0.0,45.0
153,72.0,60,60,0.0,44.0
154,55.0,0,120,0.0,27.0
155,51.0,0,120,0.0,29.0
156,70.0,60,240,0.0,45.0
157,55.0,120,120,0.0,27.0
158,58.0,120,120,0.0,30.0
159,55.0,120,120,0.0,27.0
160,67.0,0,0,0.0,50.0
161,70.0,0,0,0.0,50.0
162,51.0,120,120,0.0,29.0
163,70.0,120,0,0.0,45.0
164,67.0,0,0,0.0,45.0
165,55.0,120,120,0.0,27.0
166,58.0,0,120,0.0,30.0
167,55.0,120,120,0.0,27.0
168,51.0,120,120,0.0,35.0
169,75.0,0,240,0.0,56.0
170,53.0,120,120,0.0,29.0
171,56.0,120,120,0.0,30.0
172,53.0,120,120,0.0,29.0
173,51.0,120,120,0.0,32.0
174,68.0,0,720,0.0,56.0
175,53.0,120,120,0.0,27.0
176,74.0,0,480,0.0,46.0
177,56.0,0,120,0.0,27.0
178,82.0,120,120,0.0,53.0
179,80.0,0,120,0.0,50.0
180,53.0,120,120,0.0,27.0
181,51.0,0,120,0.0,32.0
182,79.0,120,120,0.0,53.0
183,77.0,120,120,0.0,50.0
184,53.0,0,120,0.0,27.0
185,56.0,120,120,0.0,27.0
186,75.0,0,120,0.0,52.0
187,74.0,120,120,0.0,50.0
188,53.0,0,120,0.0,27.0
189,75.0,120,120,0.0,53.0
190,77.0,120,40,0.0,43.0
191,75.0,40,40,0.0,43.0
192,74.0,40,40,0.0,43.0
193,75.0,40,60,0.0,43.0
194,77.0,60,60,0.0,44.0
195,79.0,60,60,0.0,45.0
196,51.0,0,480,0.0,27.0
197,55.0,0,480,0.0,27.0
198,75.0,60,60,0.0,44.0
199,70.0,60,120,0.0,43.0
200,55.0,0,240,0.0,32.0
201,67.0,0,240,0.0,48.0
202,70.0,240,240,0.0,48.0
203,58.0,0,240,0.0,32.0
204,65.0,0,240,0.0,45.0
205,56.0,0,240,0.0,34.0
206,68.0,0,240,0.0,45.0
207,60.0,0,0,0.0,35.0
208,63.0,240,0,0.0,53.0
209,57.0,240,240,0.0,35.0
210,67.0,0,240,0.0,49.0
211,70.0,0,360,0.0,53.0
212,58.0,0,480,0.0,37.0
213,67.0,360,120,0.0,39.0
214,65.0,120,480,0.0,35.0
215,62.0,0,480,0.0,35.0
216,58.0,240,240,0.0,46.0
217,53.0,240,240,0.0,46.0
218,65.0,180,60,0.0,67.0
219,50.0,240,240,0.0,46.0
220,46.0,0,240,0.0,53.0
221,50.0,240,240,0.0,45.0
222,77.0,60,720,0.0,72.0
223,53.0,240,240,0.0,47.0
224,75.0,240,60,0.0,70.0
225,74.0,60,60,0.0,62.0
226,72.0,60,60,0.0,65.0
227,70.0,60,60,0.0,63.0
228,58.0,0,240,0.0,45.0
229,63.0,0,240,0.0,51.0
230,69.0,60,240,0.0,71.0
231,62.0,0,240,0.0,47.0
232,70.0,240,240,0.0,70.0
233,69.0,0,240,0.0,67.0
234,60.0,0,240,0.0,51.0
235,63.0,240,240,0.0,51.0
236,72.0,0,240,0.0,67.0
237,75.0,0,60,0.0,65.0
238,74.0,60,60,0.0,62.0
239,72.0,60,60,0.0,65.0
240,74.0,60,60,0.0,61.0
241,62.0,0,240,0.0,47.0
242,58.0,0,240,0.0,47.0
243,70.0,240,240,0.0,65.0
244,72.0,0,240,0.0,65.0
245,75.0,60,240,0.0,65.0
246,57.0,0,240,0.0,47.0
247,60.0,0,240,0.0,47.0
248,65.0,240,240,0.0,49.0
249,65.0,240,240,0.0,53.0
250,65.0,240,240,0.0,50.0
251,53.0,240,240,0.0,45.0
252,75.0,240,720,0.0,72.0
253,57.0,240,240,0.0,45.0
254,77.0,240,60,0.0,69.0
255,75.0,60,60,0.0,63.0
256,74.0,60,60,0.0,69.0
257,72.0,60,60,0.0,63.0
258,60.0,0,240,0.0,45.0
259,62.0,60,240,0.0,50.0
260,70.0,0,240,0.0,73.0
261,69.0,0,240,0.0,70.0
262,72.0,0,240,0.0,70.0
263,63.0,0,240,0.0,45.0
264,70.0,240,240,0.0,71.0
265,74.0,0,240,0.0,71.0
266,65.0,240,480,0.0,45.0
267,62.0,0,240,0.0,51.0
268,77.0,240,60,0.0,67.0
269,75.0,60,60,0.0,67.0
270,74.0,60,60,0.0,67.0
271,75.0,60,60,0.0,64.0
272,60.0,0,240,0.0,45.0
273,63.0,0,240,0.0,45.0
274,72.0,0,240,0.0,67.0
275,74.0,60,120,0.0,72.0
276,77.0,0,120,0.0,72.0
277,58.0,0,240,0.0,50.0
278,62.0,0,240,0.0,50.0
279,46.0,240,240,0.0,54.0
280,46.0,240,240,0.0,57.0
281,46.0,240,240,0.0,54.0
282,50.0,240,240,0.0,54.0
283,53.0,240,240,0.0,56.0
284,80.0,240,720,0.0,76.0
285,79.0,0,60,0.0,67.0
286,77.0,60,60,0.0,63.0
287,75.0,60,60,0.0,67.0
288,74.0,60,60,0.0,64.0
289,56.0,240,240,0.0,52.0
290,55.0,0,240,0.0,56.0
291,75.0,60,240,0.0,72.0
292,50.0,240,120,0.0,53.0
293,77.0,0,120,0.0,74.0
294,58.0,240,0,0.0,53.0
295,51.0,0,0,0.0,53.0
296,78.0,240,720,0.0,80.0
297,80.0,0,120,0.0,72.0
298,79.0,120,120,0.0,69.0
299,51.0,120,0,0.0,55.0
300,59.0,240,240,0.0,55.0
301,77.0,0,120,0.0,70.0
302,51.0,120,0,0.0,53.0
303,60.0,0,240,0.0,55.0
304,75.0,120,120,0.0,67.0
305,74.0,0,120,0.0,67.0
306,72.0,120,120,0.0,64.0
307,57.0,0,240,0.0,53.0
308,77.0,120,80,0.0,75.0
309,76.0,80,80,0.0,71.0
310,77.0,80,80,0.0,73.0
311,58.0,0,240,0.0,54.0
312,50.0,0,240,0.0,54.0
313,79.0,80,80,0.0,75.0
314,67.0,80,80,0.0,67.0
315,58.0,0,240,0.0,50.0
316,75.0,80,80,0.0,69.0
317,51.0,0,240,0.0,50.0
318,62.0,0,240,0.0,50.0
319,53.0,240,0,0.0,46.0
320,62.0,0,240,0.0,46.0
321,70.0,80,480,0.0,75.0
322,74.0,240,120,0.0,68.0
323,53.0,0,240,0.0,42.0
324,72.0,120,120,0.0,60.0
325,63.0,0,0,0.0,42.0
326,70.0,120,120,0.0,66.0
327,53.0,0,240,0.0,42.0
328,69.0,0,480,0.0,62.0
329,72.0,120,120,0.0,59.0
330,62.0,0,120,0.0,45.0
331,58.0,120,0,0.0,50.0
332,62.0,120,120,0.0,54.0
333,65.0,120,120,0.0,57.0
334,70.0,120,480,0.0,60.0
335,63.0,120,120,0.0,63.0
336,65.0,120,120,0.0,54.0
337,62.0,0,120,0.0,63.0
338,65.0,120,120,0.0,54.0
339,70.0,120,240,0.0,75.0
340,77.0,120,0,0.0,59.0
341,60.0,0,120,0.0,63.0
342,65.0,120,120,0.0,56.0
343,72.0,0,240,0.0,80.0
344,58.0,0,120,0.0,63.0
345,74.0,120,240,0.0,76.0
346,65.0,120,120,0.0,55.0
347,77.0,0,240,0.0,76.0
348,57.0,120,120,0.0,63.0
349,60.0,120,120,0.0,53.0
350,77.0,0,300,0.0,80.0
351,79.0,60,60,0.0,69.0
352,63.0,120,120,0.0,56.0
353,77.0,0,60,0.0,67.0
354,76.0,60,60,0.0,70.0
355,62.0,60,120,0.0,53.0
356,77.0,60,120,0.0,76.0
357,60.0,0,120,0.0,61.0
358,75.0,0,720,0.0,63.0
359,58.0,120,120,0.0,54.0
360,57.0,0,120,0.0,56.0
361,69.0,0,240,0.0,75.0
362,77.0,120,240,0.0,75.0
363,55.0,120,120,0.0,54.0
364,53.0,0,120,0.0,56.0
365,55.0,120,120,0.0,54.0
366,70.0,120,240,0.0,76.0
367,79.0,0,240,0.0,76.0
368,51.0,120,120,0.0,56.0
369,53.0,120,120,0.0,54.0
370,72.0,0,240,0.0,75.0
371,81.0,0,240,0.0,75.0
372,50.0,120,120,0.0,61.0
373,53.0,120,120,0.0,52.0
374,82.0,0,300,0.0,86.0
375,58.0,120,120,0.0,54.0
376,84.0,60,60,0.0,75.0
377,86.0,0,60,0.0,76.0
378,53.0,60,120,0.0,51.0
379,82.0,60,60,0.0,72.0
380,77.0,0,120,0.0,78.0
381,62.0,60,120,0.0,57.0
382,70.0,0,720,0.0,86.0
383,77.0,0,240,0.0,54.0
384,74.0,240,240,0.0,54.0
385,58.0,0,240,0.0,41.0
386,62.0,0,240,0.0,41.0
387,60.0,0,240,0.0,43.0
388,63.0,0,240,0.0,43.0
389,75.0,0,240,0.0,54.0
390,72.0,240,240,0.0,54.0
391,74.0,0,240,0.0,54.0
392,62.0,0,240,0.0,39.0
393,70.0,0,240,0.0,54.0
394,65.0,240,240,0.0,39.0
395,72.0,0,300,0.0,57.0
396,74.0,300,60,0.0,52.0
397,75.0,60,60,0.0,54.0
398,72.0,60,60,0.0,52.0
399,63.0,240,480,0.0,46.0
400,67.0,0,480,0.0,46.0
401,79.0,60,120,0.0,59.0
402,60.0,240,240,0.0,41.0
403,67.0,0,240,0.0,49.0
404,72.0,0,240,0.0,49.0
405,51.0,0,240,0.0,41.0
406,70.0,0,240,0.0,52.0
407,62.0,0,240,0.0,43.0
408,65.0,0,240,0.0,52.0
409,72.0,0,240,0.0,49.0
410,69.0,240,240,0.0,49.0
411,63.0,0,240,0.0,42.0
412,53.0,240,480,0.0,43.0
413,72.0,0,360,0.0,54.0
414,63.0,0,480,0.0,45.0
415,69.0,240,480,0.0,54.0
416,73.0,360,120,0.0,50.0
417,58.0,0,600,0.0,45.0
418,62.0,0,120,0.0,35.0
419,74.0,120,240,0.0,45.0
420,70.0,0,240,0.0,45.0
421,58.0,120,120,0.0,51.0
422,62.0,0,120,0.0,54.0
423,65.0,120,120,0.0,51.0
424,70.0,120,240,0.0,74.0
425,77.0,0,0,0.0,59.0
426,63.0,0,120,0.0,57.0
427,62.0,120,120,0.0,54.0
428,77.0,120,0,0.0,75.0
429,72.0,120,240,0.0,80.0
430,60.0,0,120,0.0,55.0
431,58.0,120,120,0.0,53.0
432,74.0,0,240,0.0,75.0
433,57.0,0,120,0.0,63.0
434,60.0,120,120,0.0,54.0
435,77.0,0,300,0.0,83.0
436,63.0,120,120,0.0,56.0
437,79.0,60,60,0.0,69.0
438,77.0,0,60,0.0,71.0
439,62.0,60,120,0.0,54.0
440,76.0,60,60,0.0,67.0
441,77.0,60,120,0.0,77.0
442,60.0,0,120,0.0,61.0
443,75.0,120,720,0.0,83.0
444,58.0,120,120,0.0,54.0
445,57.0,0,120,0.0,56.0
446,55.0,120,120,0.0,54.0
447,69.0,0,240,0.0,76.0
448,77.0,120,240,0.0,76.0
449,53.0,120,120,0.0,56.0
450,55.0,120,120,0.0,54.0
451,79.0,0,240,0.0,81.0
452,70.0,0,240,0.0,81.0
453,51.0,120,120,0.0,56.0
454,72.0,0,240,0.0,76.0
455,81.0,0,240,0.0,76.0
456,53.0,120,120,0.0,54.0
457,50.0,0,120,0.0,61.0
458,53.0,120,120,0.0,46.0
459,82.0,120,300,0.0,86.0
460,58.0,120,120,0.0,51.0
461,84.0,60,60,0.0,67.0
462,86.0,60,60,0.0,70.0
463,82.0,60,60,0.0,66.0
464,53.0,0,120,0.0,45.0
465,77.0,60,120,0.0,63.0
466,62.0,0,120,0.0,50.0
467,70.0,0,720,0.0,86.0
468,58.0,0,240,0.0,41.0
469,77.0,0,240,0.0,54.0
470,74.0,240,240,0.0,54.0
471,62.0,0,240,0.0,41.0
472,63.0,240,240,0.0,43.0
473,72.0,0,240,0.0,54.0
474,75.0,0,240,0.0,54.0
475,60.0,0,240,0.0,43.0
476,74.0,0,240,0.0,54.0
477,70.0,0,240,0.0,54.0
478,62.0,0,240,0.0,42.0
479,65.0,240,240,0.0,42.0
480,71.0,240,60,0.0,45.0
481,72.0,60,60,0.0,45.0
482,74.0,60,60,0.0,46.0
483,67.0,0,240,0.0,43.0
484,72.0,60,60,0.0,45.0
485,63.0,0,240,0.0,43.0
486,75.0,60,60,0.0,50.0
487,74.0,60,60,0.0,47.0
488,77.0,60,60,0.0,52.0
489,75.0,60,60,0.0,50.0
490,79.0,60,480,0.0,60.0
491,57.0,0,240,0.0,43.0
492,77.0,480,240,0.0,54.0
493,69.0,180,60,0.0,50.0
494,53.0,0,480,0.0,43.0
495,63.0,0,480,0.0,43.0
496,60.0,240,240,0.0,43.0
497,58.0,0,120,0.0,43.0
498,62.0,120,120,0.0,39.0
499,65.0,120,120,0.0,40.0
500,62.0,120,120,0.0,42.0
501,70.0,60,480,0.0,51.0
502,58.0,120,120,0.0,46.0
503,62.0,120,120,0.0,44.0
504,65.0,120,120,0.0,45.0
505,62.0,120,120,0.0,46.0
506,80.0,0,240,0.0,66.0
507,63.0,0,120,0.0,53.0
508,60.0,120,120,0.0,50.0
509,79.0,120,240,0.0,70.0
510,65.0,120,120,0.0,51.0
511,81.0,0,240,0.0,73.0
512,63.0,120,120,0.0,53.0
513,62.0,0,120,0.0,56.0
514,84.0,120,240,0.0,76.0
515,65.0,120,120,0.0,51.0
516,62.0,0,120,0.0,53.0
517,82.0,120,240,0.0,71.0
518,60.0,120,120,0.0,50.0
519,58.0,120,120,0.0,64.0
520,56.0,120,120,0.0,56.0
521,53.0,0,120,0.0,59.0
522,50.0,120,120,0.0,56.0
523,68.0,120,240,0.0,69.0
524,51.0,120,120,0.0,64.0
525,67.0,0,240,0.0,69.0
526,48.0,120,120,0.0,59.0
527,53.0,0,120,0.0,64.0
528,69.0,0,240,0.0,63.0
529,63.0,120,0,0.0,54.0
530,41.0,120,120,0.0,54.0
531,72.0,0,480,0.0,54.0
532,46.0,0,720,0.0,46.0
533,62.0,0,0,0.0,47.0
534,70.0,0,240,0.0,42.0
535,65.0,240,240,0.0,47.0
536,56.0,0,240,0.0,42.0
537,67.0,240,240,0.0,52.0
538,55.0,0,240,0.0,45.0
539,63.0,0,240,0.0,52.0
540,65.0,0,240,0.0,55.0
541,53.0,240,240,0.0,49.0
542,68.0,0,240,0.0,55.0
543,70.0,241,480,0.0,59.0
544,67.0,0,480,0.0,59.0
545,65.0,479,260,0.0,55.0
546,68.0,0,260,0.0,55.0
547,51.0,0,960,0.0,51.0
548,67.0,0,260,0.0,53.0
549,63.0,240,260,0.0,53.0
550,68.0,0,260,0.0,54.0
551,72.0,240,260,0.0,54.0
552,67.0,240,0,0.0,59.0
553,70.0,240,240,0.0,52.0
554,51.0,0,480,0.0,50.0
555,70.0,0,480,0.0,59.0
556,53.0,480,480,0.0,46.0
557,68.0,0,480,0.0,53.0
558,65.0,0,480,0.0,53.0
559,67.0,0,480,0.0,51.0
560,63.0,480,480,0.0,51.0
561,55.0,0,480,0.0,45.0
562,64.0,480,480,0.0,65.0
563,61.0,0,480,0.0,55.0
564,58.0,0,480,0.0,55.0
565,65.0,480,240,0.0,55.0
566,72.0,240,240,0.0,55.0
567,56.0,0,480,0.0,51.0
568,60.0,0,480,0.0,51.0
569,70.0,240,120,0.0,53.0
570,68.0,120,120,0.0,51.0
571,67.0,120,120,0.0,53.0
572,65.0,120,120,0.0,52.0
573,45.0,120,120,0.0,47.0
574,46.0,120,120,0.0,50.0
575,48.0,120,120,0.0,53.0
576,55.0,0,480,0.0,59.0
577,63.0,0,480,0.0,59.0
578,46.0,0,0,0.0,49.0
579,62.0,120,120,0.0,53.0
580,53.0,0,120,0.0,53.0
581,58.0,180,60,0.0,47.0
582,62.0,60,60,0.0,51.0
583,60.0,60,60,0.0,49.0
584,63.0,60,60,0.0,52.0
585,62.0,60,60,0.0,51.0
586,65.0,60,60,0.0,53.0
587,63.0,60,60,0.0,51.0
588,67.0,60,60,0.0,54.0
589,65.0,60,60,0.0,54.0
590,68.0,60,60,0.0,57.0
591,67.0,60,60,0.0,54.0
592,70.0,60,60,0.0,59.0
593,68.0,60,60,0.0,56.0
594,72.0,0,60,0.0,60.0
595,70.0,60,300,0.0,61.0
596,72.0,300,60,0.0,53.0
597,70.0,60,60,0.0,50.0
598,51.0,60,480,0.0,53.0
599,39.0,0,480,0.0,53.0
600,67.0,0,420,0.0,61.0
601,68.0,60,120,0.0,53.0
602,67.0,120,120,0.0,51.0
603,65.0,120,120,0.0,53.0
604,63.0,120,120,0.0,52.0
605,79.0,0,120,0.0,62.0
606,74.0,120,120,0.0,54.0
607,75.0,120,120,0.0,58.0
608,51.0,120,480,0.0,49.0
609,60.0,0,0,0.0,53.0
610,72.0,120,120,0.0,52.0
611,53.0,120,480,0.0,53.0
612,70.0,0,480,0.0,56.0
613,70.0,0,60,0.0,50.0
614,68.0,45,60,0.0,48.0
615,70.0,45,60,0.0,50.0
616,68.0,45,60,0.0,48.0
617,70.0,45,60,0.0,50.0
618,68.0,45,60,0.0,48.0
619,70.0,45,60,0.0,50.0
620,68.0,45,60,0.0,49.0
621,67.0,45,60,0.0,57.0
622,62.0,480,480,0.0,50.0
623,58.0,0,480,0.0,50.0
624,68.0,60,60,0.0,55.0
625,67.0,0,60,0.0,60.0
626,75.0,120,120,0.0,65.0
627,63.0,0,240,0.0,49.0
628,60.0,60,240,0.0,49.0
629,74.0,120,120,0.0,62.0
630,73.0,120,120,0.0,59.0
631,74.0,90,30,0.0,53.0
632,71.0,0,120,0.0,57.0
633,72.0,30,120,0.0,61.0
634,70.0,90,30,0.0,53.0
635,68.0,30,120,0.0,57.0
636,67.0,90,30,0.0,47.0
637,65.0,30,120,0.0,55.0
638,56.0,0,480,0.0,54.0
639,44.0,120,480,0.0,54.0
640,55.0,0,480,0.0,50.0
641,63.0,120,720,0.0,51.0
642,67.0,0,120,0.0,50.0
643,56.0,480,480,0.0,40.0
644,62.0,240,240,0.0,50.0
645,65.0,120,120,0.0,47.0
646,46.0,0,960,0.0,50.0
647,51.0,120,120,0.0,32.0
648,55.0,120,120,0.0,32.0
649,58.0,120,120,0.0,30.0
650,63.0,0,480,0.0,46.0
651,55.0,120,120,0.0,27.0
652,51.0,120,120,0.0,33.0
653,55.0,120,120,0.0,29.0
654,58.0,0,120,0.0,31.0
655,70.0,120,240,0.0,49.0
656,67.0,0,240,0.0,49.0
657,55.0,120,120,0.0,29.0
658,51.0,0,120,0.0,33.0
659,55.0,120,120,0.0,29.0
660,67.0,120,240,0.0,52.0
661,70.0,0,0,0.0,46.0
662,58.0,120,120,0.0,31.0
663,55.0,120,120,0.0,29.0
664,67.0,0,240,0.0,46.0
665,51.0,120,120,0.0,36.0
666,75.0,0,240,0.0,57.0
667,53.0,120,120,0.0,27.0
668,56.0,0,120,0.0,30.0
669,53.0,120,120,0.0,27.0
670,51.0,120,120,0.0,32.0
671,68.0,0,720,0.0,57.0
672,53.0,120,120,0.0,27.0
673,74.0,120,480,0.0,50.0
674,82.0,0,120,0.0,54.0
675,56.0,120,120,0.0,30.0
676,53.0,0,120,0.0,27.0
677,80.0,120,120,0.0,51.0
678,79.0,120,120,0.0,54.0
679,51.0,0,120,0.0,32.0
680,77.0,120,120,0.0,52.0
681,53.0,0,120,0.0,27.0
682,56.0,120,120,0.0,30.0
683,75.0,0,120,0.0,52.0
684,74.0,120,120,0.0,49.0
685,53.0,0,120,0.0,27.0
686,77.0,120,40,0.0,54.0
687,75.0,40,40,0.0,52.0
688,51.0,0,120,0.0,33.0
689,77.0,40,40,0.0,54.0
690,55.0,40,120,0.0,27.0
691,58.0,120,120,0.0,30.0
692,75.0,0,240,0.0,53.0
693,74.0,120,60,0.0,45.0
694,72.0,60,60,0.0,44.0
695,55.0,0,120,0.0,27.0
696,51.0,60,120,0.0,29.0
697,70.0,0,0,0.0,45.0
698,55.0,120,120,0.0,27.0
699,58.0,120,120,0.0,30.0
700,67.0,0,0,0.0,50.0
701,55.0,120,120,0.0,27.0
702,51.0,0,120,0.0,29.0
703,67.0,0,0,0.0,45.0
704,55.0,120,120,0.0,27.0
705,70.0,120,0,0.0,45.0
706,58.0,0,120,0.0,30.0
707,55.0,120,120,0.0,27.0
708,51.0,0,120,0.0,35.0
709,75.0,0,240,0.0,56.0
710,53.0,120,120,0.0,29.0
711,56.0,0,120,0.0,30.0
712,53.0,120,120,0.0,29.0
713,51.0,120,120,0.0,32.0
714,68.0,120,720,0.0,56.0
715,53.0,120,120,0.0,27.0
716,74.0,120,480,0.0,46.0
717,82.0,120,120,0.0,53.0
718,56.0,0,120,0.0,27.0
719,53.0,0,120,0.0,27.0
720,80.0,120,120,0.0,50.0
721,79.0,0,120,0.0,53.0
722,51.0,120,120,0.0,32.0
723,77.0,120,120,0.0,50.0
724,53.0,0,120,0.0,27.0
725,56.0,120,120,0.0,27.0
726,75.0,0,120,0.0,52.0
727,74.0,0,120,0.0,50.0
728,53.0,120,120,0.0,27.0
729,75.0,0,120,0.0,53.0
730,77.0,120,40,0.0,43.0
731,75.0,40,40,0.0,43.0
732,74.0,40,40,0.0,43.0
733,75.0,40,60,0.0,43.0
734,77.0,60,60,0.0,44.0
735,79.0,60,60,0.0,45.0
736,55.0,0,480,0.0,27.0
737,75.0,60,60,0.0,44.0
738,51.0,120,480,0.0,27.0
739,70.0,60,120,0.0,43.0
740,58.0,0,240,0.0,32.0
741,55.0,240,240,0.0,32.0
742,70.0,0,240,0.0,48.0
743,67.0,0,240,0.0,48.0
744,68.0,0,240,0.0,45.0
745,60.0,0,0,0.0,35.0
746,56.0,240,240,0.0,34.0
747,65.0,0,240,0.0,45.0
748,57.0,240,240,0.0,35.0
749,67.0,0,240,0.0,49.0
750,63.0,240,0,0.0,53.0
751,70.0,0,360,0.0,53.0
752,67.0,360,120,0.0,39.0
753,58.0,0,480,0.0,37.0
754,58.0,240,240,0.0,46.0
755,62.0,120,480,0.0,35.0
756,65.0,0,480,0.0,35.0
757,53.0,240,240,0.0,46.0
758,50.0,240,240,0.0,46.0
759,65.0,180,60,0.0,67.0
760,46.0,60,240,0.0,53.0
761,50.0,240,240,0.0,45.0
762,77.0,0,720,0.0,72.0
763,53.0,240,240,0.0,47.0
764,75.0,240,60,0.0,70.0
765,74.0,60,60,0.0,62.0
766,72.0,60,60,0.0,65.0
767,70.0,60,60,0.0,63.0
768,58.0,0,240,0.0,45.0
769,63.0,60,240,0.0,51.0
770,69.0,0,240,0.0,71.0
771,62.0,0,240,0.0,47.0
772,70.0,240,240,0.0,70.0
773,69.0,0,240,0.0,67.0
774,60.0,0,240,0.0,51.0
775,63.0,240,240,0.0,51.0
776,72.0,0,240,0.0,67.0
777,75.0,0,60,0.0,65.0
778,74.0,60,60,0.0,62.0
779,72.0,60,60,0.0,65.0
780,62.0,0,240,0.0,47.0
781,58.0,0,240,0.0,47.0
782,74.0,60,60,0.0,61.0
783,70.0,240,240,0.0,65.0
784,72.0,0,240,0.0,65.0
785,75.0,0,240,0.0,65.0
786,57.0,0,240,0.0,47.0
787,60.0,60,240,0.0,47.0
788,65.0,240,240,0.0,49.0
789,65.0,240,240,0.0,53.0
790,65.0,240,240,0.0,50.0
791,53.0,240,240,0.0,45.0
792,57.0,240,240,0.0,45.0
793,75.0,240,720,0.0,72.0
794,77.0,0,60,0.0,69.0
795,75.0,60,60,0.0,63.0
796,74.0,60,60,0.0,69.0
797,60.0,240,240,0.0,45.0
798,72.0,60,60,0.0,63.0
799,62.0,60,240,0.0,50.0
800,70.0,0,240,0.0,73.0
801,63.0,240,240,0.0,45.0
802,69.0,0,240,0.0,70.0
803,72.0,0,240,0.0,70.0
804,62.0,0,240,0.0,51.0
805,65.0,0,480,0.0,45.0
806,74.0,240,240,0.0,71.0
807,70.0,0,240,0.0,71.0
808,77.0,0,60,0.0,67.0
809,75.0,60,60,0.0,67.0
810,74.0,60,60,0.0,67.0
811,60.0,240,240,0.0,45.0
812,75.0,60,60,0.0,64.0
813,72.0,0,240,0.0,67.0
814,63.0,0,240,0.0,45.0
815,74.0,0,120,0.0,72.0
816,77.0,0,120,0.0,72.0
817,62.0,0,240,0.0,50.0
818,58.0,60,240,0.0,50.0
819,46.0,240,240,0.0,54.0
820,46.0,240,0,0.0,54.0
821,50.0,240,240,0.0,54.0
822,80.0,240,720,0.0,76.0
823,53.0,240,240,0.0,56.0
824,79.0,0,60,0.0,67.0
825,77.0,60,60,0.0,63.0
826,75.0,60,60,0.0,67.0
827,56.0,240,240,0.0,52.0
828,74.0,60,60,0.0,64.0
829,75.0,60,240,0.0,72.0
830,55.0,0,240,0.0,56.0
831,77.0,0,120,0.0,74.0
832,50.0,240,120,0.0,53.0
833,58.0,0,240,0.0,53.0
834,51.0,240,240,0.0,53.0
835,78.0,240,720,0.0,80.0
836,58.0,0,240,0.0,53.0
837,51.0,240,240,0.0,53.0
838,80.0,240,120,0.0,72.0
839,51.0,0,240,0.0,55.0
840,59.0,0,240,0.0,55.0
841,79.0,120,120,0.0,69.0
842,77.0,0,120,0.0,70.0
843,75.0,120,120,0.0,66.0
844,51.0,0,0,0.0,53.0
845,60.0,0,240,0.0,55.0
846,74.0,120,120,0.0,67.0
847,57.0,0,240,0.0,53.0
848,72.0,120,120,0.0,66.0
849,77.0,120,80,0.0,75.0
850,76.0,80,80,0.0,71.0
851,50.0,0,240,0.0,54.0
852,77.0,80,80,0.0,73.0
853,58.0,0,0,0.0,50.0
854,79.0,80,80,0.0,75.0
855,67.0,80,80,0.0,67.0
856,75.0,80,80,0.0,69.0
857,51.0,0,240,0.0,50.0
858,53.0,240,0,0.0,46.0
859,62.0,80,240,0.0,50.0
860,62.0,0,240,0.0,46.0
861,70.0,0,480,0.0,75.0
862,74.0,0,120,0.0,68.0
863,72.0,120,120,0.0,60.0
864,63.0,0,0,0.0,42.0
865,53.0,120,0,0.0,42.0
866,70.0,0,120,0.0,66.0
867,72.0,120,120,0.0,59.0
868,69.0,0,480,0.0,68.0
869,62.0,0,120,0.0,45.0
870,58.0,0,120,0.0,45.0
871,58.0,120,120,0.0,50.0
872,62.0,120,120,0.0,54.0
873,70.0,120,480,0.0,60.0
874,65.0,120,120,0.0,57.0
875,63.0,120,120,0.0,63.0
876,65.0,120,120,0.0,54.0
877,62.0,120,120,0.0,63.0
878,77.0,0,240,0.0,75.0
879,70.0,0,240,0.0,75.0
880,65.0,120,120,0.0,54.0
881,60.0,0,120,0.0,63.0
882,65.0,120,120,0.0,56.0
883,77.0,120,240,0.0,59.0
884,72.0,0,240,0.0,80.0
885,58.0,120,120,0.0,63.0
886,65.0,120,120,0.0,55.0
887,77.0,120,0,0.0,80.0
888,74.0,0,240,0.0,76.0
889,57.0,0,120,0.0,63.0
890,60.0,120,120,0.0,53.0
891,79.0,60,60,0.0,69.0
892,63.0,120,120,0.0,56.0
893,77.0,60,60,0.0,67.0
894,76.0,60,60,0.0,70.0
895,62.0,0,120,0.0,53.0
896,60.0,60,120,0.0,61.0
897,77.0,0,120,0.0,76.0
898,58.0,120,120,0.0,54.0
899,75.0,0,720,0.0,63.0
900,57.0,0,120,0.0,56.0
901,69.0,120,240,0.0,75.0
902,77.0,0,240,0.0,75.0
903,55.0,120,120,0.0,54.0
904,53.0,0,120,0.0,56.0
905,55.0,120,120,0.0,54.0
906,79.0,120,240,0.0,76.0
907,70.0,0,240,0.0,76.0
908,51.0,120,120,0.0,56.0
909,72.0,0,240,0.0,75.0
910,53.0,120,120,0.0,54.0
911,81.0,0,240,0.0,75.0
912,50.0,0,120,0.0,61.0
913,53.0,120,120,0.0,52.0
914,82.0,120,300,0.0,86.0
915,58.0,120,120,0.0,54.0
916,84.0,60,60,0.0,75.0
917,86.0,0,60,0.0,76.0
918,82.0,60,60,0.0,72.0
919,53.0,60,120,0.0,51.0
920,77.0,60,120,0.0,77.0
921,62.0,0,120,0.0,57.0
922,70.0,0,720,0.0,86.0
923,74.0,0,240,0.0,54.0
924,62.0,240,240,0.0,41.0
925,58.0,0,240,0.0,41.0
926,77.0,0,240,0.0,54.0
927,63.0,240,240,0.0,43.0
928,60.0,0,240,0.0,43.0
929,75.0,0,240,0.0,54.0
930,72.0,0,240,0.0,54.0
931,65.0,0,240,0.0,39.0
932,74.0,0,240,0.0,54.0
933,70.0,240,240,0.0,54.0
934,62.0,0,240,0.0,39.0
935,72.0,240,300,0.0,57.0
936,74.0,300,60,0.0,52.0
937,75.0,60,60,0.0,54.0
938,63.0,0,480,0.0,46.0
939,67.0,0,480,0.0,46.0
940,72.0,60,60,0.0,52.0
941,79.0,60,120,0.0,59.0
942,60.0,0,240,0.0,41.0
943,51.0,0,240,0.0,41.0
944,67.0,240,240,0.0,49.0
945,72.0,0,240,0.0,49.0
946,62.0,240,240,0.0,43.0
947,65.0,0,240,0.0,52.0
948,70.0,0,240,0.0,52.0
949,69.0,0,0,0.0,54.0
950,72.0,0,0,0.0,54.0
951,53.0,0,480,0.0,43.0
952,63.0,0,0,0.0,45.0
953,73.0,360,120,0.0,50.0
954,58.0,240,600,0.0,45.0
955,62.0,0,120,0.0,35.0
956,74.0,0,240,0.0,45.0
957,70.0,120,240,0.0,45.0
958,58.0,120,120,0.0,51.0
959,62.0,0,120,0.0,54.0
960,65.0,120,120,0.0,51.0
961,70.0,0,240,0.0,74.0
962,77.0,0,0,0.0,59.0
963,63.0,120,120,0.0,57.0
964,72.0,0,240,0.0,80.0
965,62.0,120,120,0.0,54.0
966,60.0,0,120,0.0,55.0
967,58.0,120,120,0.0,53.0
968,77.0,0,240,0.0,75.0
969,74.0,120,240,0.0,75.0
970,57.0,120,120,0.0,63.0
971,60.0,120,120,0.0,54.0
972,77.0,0,300,0.0,83.0
973,63.0,120,120,0.0,56.0
974,79.0,60,60,0.0,69.0
975,77.0,60,60,0.0,71.0
976,76.0,60,60,0.0,67.0
977,62.0,0,120,0.0,54.0
978,77.0,60,120,0.0,78.0
979,60.0,0,120,0.0,61.0
980,75.0,0,720,0.0,83.0
981,58.0,120,120,0.0,54.0
982,57.0,0,120,0.0,56.0
983,55.0,120,120,0.0,54.0
984,77.0,0,240,0.0,76.0
985,69.0,120,240,0.0,76.0
986,53.0,0,120,0.0,56.0
987,70.0,0,240,0.0,81.0
988,79.0,120,240,0.0,81.0
989,55.0,120,120,0.0,54.0
990,51.0,0,120,0.0,56.0
991,81.0,120,240,0.0,76.0
992,72.0,0,240,0.0,76.0
993,53.0,120,120,0.0,54.0
994,50.0,0,120,0.0,61.0
995,53.0,120,120,0.0,46.0
996,82.0,0,300,0.0,86.0
997,58.0,120,120,0.0,51.0
998,84.0,60,60,0.0,67.0
999,86.0,0,60,0.0,70.0
1000,53.0,60,120,0.0,45.0
1001,82.0,60,60,0.0,66.0
1002,62.0,60,120,0.0,50.0
1003,77.0,0,120,0.0,63.0
1004,70.0,120,720,0.0,86.0
1005,62.0,0,240,0.0,41.0
1006,58.0,0,240,0.0,41.0
1007,74.0,240,240,0.0,54.0
1008,77.0,0,240,0.0,54.0
1009,75.0,240,240,0.0,54.0
1010,72.0,0,240,0.0,54.0
1011,63.0,0,240,0.0,43.0
1012,60.0,0,240,0.0,43.0
1013,70.0,240,240,0.0,54.0
1014,74.0,0,240,0.0,54.0
1015,65.0,0,240,0.0,42.0
1016,62.0,0,240,0.0,42.0
1017,71.0,240,60,0.0,45.0
1018,72.0,60,60,0.0,45.0
1019,74.0,60,60,0.0,46.0
1020,67.0,0,240,0.0,43.0
1021,63.0,0,240,0.0,43.0
1022,72.0,60,60,0.0,45.0
1023,75.0,60,60,0.0,50.0
1024,74.0,60,60,0.0,47.0
1025,77.0,60,60,0.0,52.0
1026,75.0,60,60,0.0,50.0
1027,79.0,60,480,0.0,60.0
1028,77.0,0,240,0.0,54.0
1029,57.0,480,240,0.0,43.0
1030,69.0,180,60,0.0,50.0
1031,60.0,240,240,0.0,43.0
1032,63.0,0,480,0.0,43.0
1033,53.0,0,480,0.0,43.0
1034,58.0,0,120,0.0,43.0
1035,62.0,120,120,0.0,39.0
1036,65.0,120,120,0.0,40.0
1037,62.0,120,120,0.0,42.0
1038,70.0,60,480,0.0,51.0
1039,58.0,120,120,0.0,46.0
1040,62.0,120,120,0.0,44.0
1041,65.0,120,120,0.0,45.0
1042,80.0,0,240,0.0,66.0
1043,62.0,120,120,0.0,46.0
1044,63.0,120,120,0.0,53.0
1045,79.0,0,240,0.0,70.0
1046,60.0,120,120,0.0,50.0
1047,65.0,0,120,0.0,51.0
1048,81.0,120,240,0.0,72.0
1049,63.0,120,120,0.0,53.0
1050,62.0,120,120,0.0,56.0
1051,65.0,120,120,0.0,51.0
1052,84.0,0,240,0.0,76.0
1053,62.0,120,120,0.0,53.0
1054,60.0,120,120,0.0,50.0
1055,82.0,0,240,0.0,71.0
1056,58.0,120,120,0.0,64.0
1057,56.0,120,120,0.0,56.0
1058,53.0,120,120,0.0,59.0
1059,50.0,120,120,0.0,56.0
1060,68.0,0,240,0.0,69.0
1061,51.0,120,120,0.0,64.0
1062,67.0,0,240,0.0,69.0
1063,48.0,120,120,0.0,59.0
1064,53.0,120,120,0.0,64.0
1065,63.0,0,240,0.0,63.0
1066,41.0,120,120,0.0,54.0
1067,69.0,0,240,0.0,63.0
1068,63.0,0,480,0.0,54.0
1069,72.0,120,480,0.0,54.0
1070,62.0,0,240,0.0,42.0
1071,70.0,480,240,0.0,42.0
1072,46.0,0,720,0.0,46.0
1073,56.0,0,240,0.0,42.0
1074,62.0,240,240,0.0,47.0
1075,65.0,0,240,0.0,47.0
1076,55.0,240,240,0.0,45.0
1077,63.0,0,240,0.0,52.0
1078,67.0,0,240,0.0,52.0
1079,65.0,0,240,0.0,55.0
1080,68.0,0,240,0.0,55.0
1081,53.0,240,240,0.0,49.0
1082,66.0,240,480,0.0,67.0
1083,69.0,0,480,0.0,67.0
1084,67.0,480,240,0.0,62.0
1085,70.0,0,0,0.0,54.0
1086,73.0,240,240,0.0,54.0
1087,52.0,0,960,0.0,56.0
1088,64.0,240,240,0.0,56.0
1089,67.0,0,240,0.0,56.0
1090,68.0,0,240,0.0,51.0
1091,72.0,240,240,0.0,51.0
1092,48.0,0,480,0.0,46.0
1093,67.0,240,480,0.0,55.0
1094,70.0,0,480,0.0,55.0
1095,65.0,480,240,0.0,52.0
1096,68.0,0,240,0.0,52.0
1097,50.0,0,960,0.0,53.0
1098,77.0,240,0,0.0,54.0
1099,77.0,240,0,0.0,54.0
1100,60.0,0,480,0.0,43.0
1101,56.0,0,480,0.0,43.0
1102,58.0,0,480,0.0,43.0
1103,61.0,0,480,0.0,43.0
1104,78.0,240,480,0.0,62.0
1105,79.0,480,240,0.0,56.0
1106,82.0,240,480,0.0,63.0
1107,76.0,240,240,0.0,57.0
1108,70.0,0,480,0.0,43.0
1109,60.0,240,480,0.0,43.0
1110,70.0,0,480,0.0,43.0
1111,79.0,240,480,0.0,64.0
1112,68.0,480,240,0.0,36.0
1113,65.0,0,720,0.0,43.0
1114,77.0,0,240,0.0,60.0
1115,41.0,240,240,0.0,45.0
1116,41.0,240,240,0.0,46.0
1117,41.0,240,240,0.0,44.0
1118,80.0,240,240,0.0,59.0
1119,79.0,240,120,0.0,61.0
1120,77.0,120,120,0.0,59.0
1121,75.0,120,120,0.0,57.0
1122,73.0,120,120,0.0,57.0
1123,72.0,120,120,0.0,59.0
1124,73.0,120,120,0.0,62.0
1125,77.0,120,120,0.0,66.0
1126,41.0,0,0,0.0,42.0
1127,73.0,120,120,0.0,60.0
1128,72.0,120,480,0.0,57.0
1129,41.0,240,0,0.0,46.0
1130,41.0,240,240,0.0,45.0
1131,71.0,480,960,0.0,47.0
1132,68.0,0,1440,0.0,57.0
1133,62.0,0,1440,0.0,57.0
1134,72.0,240,240,0.0,53.0
1135,71.0,240,120,0.0,56.0
1136,72.0,120,120,0.0,58.0
1137,63.0,0,0,0.0,50.0
1138,74.0,120,120,0.0,59.0
1139,72.0,120,120,0.0,56.0
1140,71.0,120,120,0.0,56.0
1141,63.0,0,0,0.0,61.0
1142,72.0,120,120,0.0,59.0
1143,75.0,120,120,0.0,61.0
1144,42.0,240,1440,0.0,54.0
1145,74.0,120,120,0.0,60.0
1146,71.0,120,480,0.0,66.0
1147,63.0,0,0,0.0,60.0
1148,43.0,0,720,0.0,49.0
1149,43.0,240,0,0.0,50.0
1150,43.0,240,0,0.0,47.0
1151,72.0,480,960,0.0,60.0
1152,72.0,240,240,0.0,62.0
1153,63.0,240,0,0.0,64.0
1154,72.0,0,240,0.0,64.0
1155,63.0,240,0,0.0,67.0
1156,72.0,0,240,0.0,67.0
1157,44.0,240,960,0.0,55.0
1158,63.0,240,240,0.0,70.0
1159,72.0,0,240,0.0,70.0
1160,63.0,0,240,0.0,72.0
1161,45.0,0,480,0.0,62.0
1162,72.0,240,240,0.0,72.0
1163,73.0,0,300,0.0,74.0
1164,72.0,300,60,0.0,62.0
1165,70.0,60,60,0.0,57.0
1166,68.0,60,60,0.0,54.0
1167,46.0,0,480,0.0,62.0
1168,63.0,240,720,0.0,74.0
1169,67.0,60,240,0.0,66.0
1170,79.0,240,240,0.0,67.0
1171,49.0,0,480,0.0,48.0
1172,80.0,240,240,0.0,67.0
1173,48.0,0,480,0.0,54.0
1174,72.0,240,360,0.0,65.0
1175,70.0,120,120,0.0,56.0
1176,73.0,120,120,0.0,60.0
1177,49.0,240,480,0.0,44.0
1178,77.0,120,120,0.0,55.0
1179,51.0,0,480,0.0,43.0
1180,60.0,120,480,0.0,43.0
1181,68.0,0,720,0.0,63.0
1182,72.0,0,120,0.0,55.0
1183,61.0,0,480,0.0,36.0
1184,51.0,480,480,0.0,36.0
1185,67.0,240,240,0.0,55.0
1186,70.0,120,120,0.0,55.0
1187,56.0,120,120,0.0,33.0
1188,60.0,120,120,0.0,26.0
1189,63.0,120,120,0.0,27.0
1190,68.0,0,480,0.0,46.0
1191,60.0,120,120,0.0,25.0
1192,56.0,120,120,0.0,30.0
1193,60.0,120,120,0.0,26.0
1194,63.0,0,120,0.0,29.0
1195,60.0,120,120,0.0,26.0
1196,72.0,120,240,0.0,46.0
1197,68.0,0,240,0.0,46.0
1198,56.0,120,120,0.0,33.0
1199,60.0,120,120,0.0,27.0
1200,68.0,0,0,0.0,46.0
1201,72.0,0,0,0.0,46.0
1202,63.0,120,120,0.0,29.0
1203,60.0,120,120,0.0,27.0
1204,55.0,0,120,0.0,36.0
1205,77.0,0,240,0.0,58.0
1206,58.0,120,120,0.0,26.0
1207,60.0,0,120,0.0,27.0
1208,58.0,120,120,0.0,26.0
1209,55.0,120,120,0.0,32.0
1210,76.0,120,480,0.0,46.0
1211,72.0,0,0,0.0,47.0
1212,70.0,120,0,0.0,47.0
1213,58.0,120,120,0.0,26.0
1214,60.0,0,120,0.0,27.0
1215,58.0,120,120,0.0,25.0
1216,55.0,120,120,0.0,32.0
1217,70.0,120,0,0.0,47.0
1218,72.0,0,0,0.0,47.0
1219,58.0,120,120,0.0,27.0
1220,60.0,0,120,0.0,27.0
1221,58.0,120,120,0.0,25.0
1222,72.0,0,0,0.0,59.0
1223,53.0,0,120,0.0,36.0
1224,79.0,120,240,0.0,59.0
1225,56.0,120,120,0.0,27.0
1226,60.0,0,120,0.0,30.0
1227,56.0,120,120,0.0,27.0
1228,53.0,120,120,0.0,32.0
1229,56.0,120,120,0.0,26.0
1230,68.0,0,0,0.0,51.0
1231,72.0,120,0,0.0,51.0
1232,77.0,120,480,0.0,51.0
1233,60.0,0,120,0.0,27.0
1234,68.0,0,0,0.0,54.0
1235,56.0,120,120,0.0,26.0
1236,53.0,0,120,0.0,32.0
1237,72.0,120,240,0.0,54.0
1238,56.0,120,120,0.0,27.0
1239,60.0,0,120,0.0,29.0
1240,68.0,0,0,0.0,64.0
1241,72.0,120,0,0.0,64.0
1242,56.0,120,120,0.0,27.0
1243,51.0,0,120,0.0,36.0
1244,80.0,0,240,0.0,64.0
1245,54.0,120,120,0.0,30.0
1246,56.0,120,120,0.0,32.0
1247,54.0,120,120,0.0,29.0
1248,51.0,120,120,0.0,36.0
1249,54.0,120,120,0.0,29.0
1250,78.0,0,480,0.0,60.0
1251,72.0,120,0,0.0,50.0
1252,56.0,0,120,0.0,32.0
1253,54.0,120,120,0.0,29.0
1254,72.0,0,0,0.0,55.0
1255,68.0,0,0,0.0,55.0
1256,51.0,120,120,0.0,35.0
1257,54.0,120,120,0.0,29.0
1258,56.0,120,120,0.0,31.0
1259,72.0,0,240,0.0,51.0
1260,68.0,0,240,0.0,51.0
1261,54.0,120,120,0.0,27.0
1262,49.0,120,120,0.0,40.0
1263,78.0,0,240,0.0,61.0
1264,52.0,120,120,0.0,34.0
1265,56.0,0,120,0.0,36.0
1266,52.0,120,120,0.0,33.0
1267,49.0,120,120,0.0,40.0
1268,68.0,0,720,0.0,61.0
1269,52.0,120,120,0.0,33.0
1270,73.0,0,720,0.0,61.0
1271,76.0,120,0,0.0,59.0
1272,56.0,0,120,0.0,36.0
1273,68.0,0,240,0.0,59.0
1274,52.0,120,120,0.0,33.0
1275,47.0,0,120,0.0,39.0
1276,76.0,0,240,0.0,64.0
1277,68.0,120,0,0.0,59.0
1278,51.0,120,120,0.0,34.0
1279,56.0,0,120,0.0,36.0
1280,51.0,120,120,0.0,33.0
1281,75.0,0,0,0.0,65.0
1282,77.0,360,60,0.0,52.0
1283,75.0,60,60,0.0,49.0
1284,46.0,0,0,0.0,29.0
1285,68.0,0,720,0.0,65.0
1286,74.0,60,240,0.0,52.0
1287,53.0,240,0,0.0,29.0
1288,62.0,0,240,0.0,45.0
1289,68.0,0,240,0.0,45.0
1290,68.0,0,240,0.0,47.0
1291,62.0,0,240,0.0,47.0
1292,46.0,240,240,0.0,32.0
1293,53.0,0,240,0.0,32.0
1294,68.0,0,240,0.0,45.0
1295,46.0,0,240,0.0,29.0
1296,53.0,0,0,0.0,32.0
1297,62.0,0,0,0.0,47.0
1298,46.0,0,480,0.0,32.0
1299,68.0,240,480,0.0,47.0
1300,80.0,0,240,0.0,39.0
1301,74.0,240,0,0.0,39.0
1302,65.0,0,240,0.0,27.0
1303,58.0,0,0,0.0,27.0
1304,65.0,0,240,0.0,27.0
1305,80.0,0,0,0.0,39.0
1306,65.0,0,240,0.0,27.0
1307,74.0,0,240,0.0,39.0
1308,58.0,240,0,0.0,31.0
1309,80.0,0,0,0.0,43.0
1310,82.0,240,30,0.0,34.0
1311,80.0,30,30,0.0,36.0
1312,79.0,30,30,0.0,39.0
1313,80.0,30,30,0.0,41.0
1314,82.0,30,60,0.0,42.0
1315,74.0,0,480,0.0,43.0
1316,84.0,60,60,0.0,38.0
1317,65.0,0,480,0.0,31.0
1318,82.0,60,120,0.0,43.0
1319,80.0,120,120,0.0,39.0
1320,79.0,120,120,0.0,44.0
1321,77.0,120,120,0.0,44.0
1322,75.0,120,120,0.0,46.0
1323,74.0,120,120,0.0,44.0
1324,72.0,120,120,0.0,44.0
1325,70.0,120,120,0.0,44.0
1326,70.0,0,360,0.0,46.0
1327,72.0,359,60,0.0,46.0
1328,70.0,60,60,0.0,46.0
1329,67.0,121,480,0.0,46.0
1330,68.0,0,240,0.0,44.0
1331,65.0,60,240,0.0,44.0
1332,67.0,240,240,0.0,42.0
1333,63.0,0,240,0.0,42.0
1334,51.0,0,960,0.0,39.0
1335,68.0,0,240,0.0,43.0
1336,72.0,240,240,0.0,43.0
1337,67.0,240,0,0.0,45.0
1338,70.0,0,0,0.0,45.0
1339,51.0,0,120,0.0,37.0
1340,55.0,120,120,0.0,33.0
1341,58.0,120,120,0.0,36.0
1342,72.0,120,60,0.0,42.0
1343,70.0,60,60,0.0,42.0
1344,51.0,0,120,0.0,33.0
1345,53.0,0,120,0.0,40.0
1346,56.0,120,120,0.0,32.0
1347,62.0,120,120,0.0,35.0
1348,68.0,60,480,0.0,47.0
1349,53.0,120,120,0.0,33.0
1350,55.0,120,120,0.0,40.0
1351,58.0,120,120,0.0,32.0
1352,63.0,120,120,0.0,36.0
1353,55.0,120,120,0.0,33.0
1354,67.0,0,600,0.0,47.0
1355,64.0,120,120,0.0,44.0
1356,65.0,120,120,0.0,45.0
1357,67.0,120,120,0.0,46.0
1358,68.0,120,120,0.0,49.0
1359,69.0,120,120,0.0,51.0
1360,70.0,120,120,0.0,52.0
1361,71.0,120,120,0.0,54.0
1362,74.0,120,60,0.0,56.0
1363,72.0,60,60,0.0,54.0
1364,71.0,60,60,0.0,52.0
1365,72.0,60,60,0.0,54.0
1366,70.0,60,60,0.0,52.0
1367,68.0,60,60,0.0,49.0
1368,67.0,60,60,0.0,51.0
1369,65.0,60,60,0.0,50.0
1370,60.0,0,1440,0.0,41.0
1371,56.0,120,1440,0.0,41.0
1372,45.0,0,120,0.0,44.0
1373,46.0,120,120,0.0,46.0
1374,48.0,120,120,0.0,49.0
1375,63.0,60,480,0.0,54.0
1376,55.0,0,480,0.0,54.0
1377,46.0,0,0,0.0,45.0
1378,62.0,0,60,0.0,47.0
1379,53.0,120,60,0.0,47.0
1380,58.0,60,60,0.0,49.0
1381,57.0,60,60,0.0,50.0
1382,58.0,60,60,0.0,51.0
1383,59.0,60,60,0.0,52.0
1384,60.0,60,60,0.0,53.0
1385,61.0,60,60,0.0,54.0
1386,62.0,60,60,0.0,54.0
1387,63.0,60,60,0.0,55.0
1388,64.0,60,60,0.0,56.0
1389,65.0,60,60,0.0,57.0
1390,66.0,60,60,0.0,59.0
1391,67.0,60,60,0.0,60.0
1392,68.0,60,60,0.0,61.0
1393,69.0,60,60,0.0,62.0
1394,70.0,60,60,0.0,63.0
1395,70.0,0,360,0.0,63.0
1396,72.0,360,60,0.0,57.0
1397,39.0,0,480,0.0,45.0
1398,70.0,60,60,0.0,53.0
1399,67.0,60,480,0.0,63.0
1400,51.0,0,480,0.0,45.0
1401,68.0,60,60,0.0,55.0
1402,67.0,60,60,0.0,54.0
1403,72.0,60,60,0.0,56.0
1404,70.0,60,60,0.0,53.0
1405,75.0,60,60,0.0,57.0
1406,74.0,60,60,0.0,55.0
1407,77.0,60,60,0.0,61.0
1408,75.0,60,60,0.0,55.0
1409,80.0,0,60,0.0,63.0
1410,79.0,60,60,0.0,59.0
1411,78.0,60,60,0.0,61.0
1412,79.0,60,60,0.0,61.0
1413,77.0,60,60,0.0,61.0
1414,75.0,60,60,0.0,59.0
1415,74.0,60,60,0.0,57.0
1416,60.0,0,480,0.0,53.0
1417,72.0,60,60,0.0,55.0
1418,51.0,60,480,0.0,53.0
1419,70.0,60,240,0.0,60.0
1420,60.0,0,480,0.0,51.0
1421,53.0,0,480,0.0,51.0
1422,58.0,240,240,0.0,46.0
1423,69.0,240,480,0.0,63.0
1424,62.0,0,480,0.0,46.0
1425,59.0,240,240,0.0,40.0
1426,68.0,0,360,0.0,63.0
1427,60.0,0,240,0.0,47.0
1428,67.0,120,120,0.0,66.0
1429,75.0,120,120,0.0,68.0
1430,55.0,0,240,0.0,45.0
1431,73.0,120,120,0.0,64.0
1432,71.0,120,120,0.0,67.0
1433,63.0,240,720,0.0,47.0
1434,72.0,120,120,0.0,64.0
1435,56.0,0,240,0.0,50.0
1436,74.0,120,120,0.0,69.0
1437,75.0,0,0,0.0,70.0
1438,55.0,0,480,0.0,51.0
1439,70.0,240,360,0.0,66.0
1440,72.0,120,60,0.0,54.0
1441,70.0,60,60,0.0,50.0
1442,70.0,60,60,0.0,53.0
1443,68.0,60,60,0.0,45.0
1444,67.0,60,60,0.0,51.0
1445,56.0,240,480,0.0,37.0
1446,65.0,60,60,0.0,45.0
1447,46.0,120,960,0.0,51.0
1448,51.0,60,120,0.0,30.0
1449,55.0,120,120,0.0,26.0
1450,58.0,120,120,0.0,27.0
1451,63.0,0,480,0.0,46.0
1452,55.0,120,120,0.0,27.0
1453,51.0,120,120,0.0,30.0
1454,55.0,120,120,0.0,27.0
1455,58.0,120,120,0.0,29.0
1456,55.0,120,120,0.0,27.0
1457,67.0,0,240,0.0,46.0
1458,70.0,0,0,0.0,50.0
1459,51.0,120,120,0.0,33.0
1460,67.0,0,240,0.0,50.0
1461,55.0,120,120,0.0,27.0
1462,58.0,0,120,0.0,29.0
1463,70.0,0,240,0.0,46.0
1464,67.0,120,240,0.0,46.0
1465,55.0,120,120,0.0,27.0
1466,51.0,0,120,0.0,36.0
1467,53.0,120,120,0.0,27.0
1468,75.0,120,240,0.0,54.0
1469,56.0,0,120,0.0,30.0
1470,53.0,120,120,0.0,27.0
1471,51.0,120,120,0.0,32.0
1472,74.0,120,480,0.0,46.0
1473,53.0,120,120,0.0,27.0
1474,68.0,0,720,0.0,54.0
1475,56.0,0,120,0.0,27.0
1476,82.0,120,120,0.0,50.0
1477,80.0,120,120,0.0,47.0
1478,53.0,0,120,0.0,26.0
1479,51.0,0,120,0.0,32.0
1480,79.0,120,120,0.0,52.0
1481,53.0,120,120,0.0,27.0
1482,77.0,0,120,0.0,47.0
1483,56.0,120,120,0.0,27.0
1484,75.0,0,120,0.0,49.0
1485,74.0,0,120,0.0,45.0
1486,53.0,120,120,0.0,27.0
1487,77.0,120,40,0.0,54.0
1488,75.0,40,40,0.0,52.0
1489,77.0,40,40,0.0,54.0
1490,51.0,0,120,0.0,33.0
1491,55.0,0,120,0.0,26.0
1492,75.0,40,240,0.0,52.0
1493,58.0,120,120,0.0,27.0
1494,74.0,0,60,0.0,49.0
1495,72.0,60,60,0.0,45.0
1496,55.0,120,120,0.0,26.0
1497,51.0,0,120,0.0,31.0
1498,55.0,120,120,0.0,26.0
1499,70.0,60,240,0.0,50.0
1500,58.0,120,120,0.0,27.0
1501,70.0,120,0,0.0,53.0
1502,55.0,120,120,0.0,26.0
1503,67.0,0,0,0.0,53.0
1504,51.0,0,120,0.0,33.0
1505,55.0,120,120,0.0,27.0
1506,67.0,0,0,0.0,49.0
1507,70.0,120,0,0.0,49.0
1508,58.0,0,120,0.0,30.0
1509,55.0,120,120,0.0,27.0
1510,51.0,120,120,0.0,36.0
1511,75.0,0,120,0.0,62.0
1512,68.0,0,240,0.0,62.0
1513,74.0,0,120,0.0,55.0
1514,53.0,120,120,0.0,25.0
1515,56.0,120,120,0.0,27.0
1516,53.0,120,120,0.0,24.0
1517,51.0,120,120,0.0,29.0
1518,84.0,0,480,0.0,60.0
1519,53.0,120,120,0.0,23.0
1520,82.0,120,60,0.0,50.0
1521,80.0,60,60,0.0,49.0
1522,56.0,0,120,0.0,27.0
1523,84.0,0,60,0.0,52.0
1524,80.0,60,60,0.0,49.0
1525,53.0,60,120,0.0,23.0
1526,79.0,60,60,0.0,51.0
1527,51.0,0,120,0.0,30.0
1528,77.0,60,60,0.0,49.0
1529,80.0,0,60,0.0,51.0
1530,77.0,60,60,0.0,49.0
1531,53.0,60,120,0.0,26.0
1532,75.0,60,60,0.0,51.0
1533,56.0,0,120,0.0,26.0
1534,74.0,60,60,0.0,49.0
1535,77.0,60,60,0.0,52.0
1536,53.0,0,120,0.0,25.0
1537,74.0,60,60,0.0,49.0
1538,75.0,0,60,0.0,54.0
1539,77.0,60,60,0.0,52.0
1540,75.0,60,60,0.0,52.0
1541,74.0,60,60,0.0,52.0
1542,75.0,60,40,0.0,50.0
1543,76.0,40,40,0.0,47.0
1544,77.0,40,40,0.0,50.0
1545,78.0,40,60,0.0,53.0
1546,55.0,60,480,0.0,27.0
1547,51.0,0,480,0.0,27.0
1548,79.0,60,60,0.0,54.0
1549,70.0,60,240,0.0,50.0
1550,70.0,0,240,0.0,45.0
1551,55.0,0,240,0.0,32.0
1552,67.0,240,240,0.0,45.0
1553,65.0,0,240,0.0,47.0
1554,68.0,0,240,0.0,47.0
1555,56.0,240,240,0.0,34.0
1556,57.0,0,240,0.0,35.0
1557,67.0,0,240,0.0,51.0
1558,63.0,240,240,0.0,51.0
1559,70.0,0,120,0.0,58.0
1560,69.0,120,120,0.0,49.0
1561,70.0,120,120,0.0,53.0
1562,63.0,0,480,0.0,58.0
1563,67.0,120,120,0.0,42.0
1564,58.0,240,600,0.0,37.0
1565,59.0,120,120,0.0,41.0
1566,60.0,120,120,0.0,45.0
1567,58.0,120,120,0.0,43.0
1568,62.0,0,480,0.0,38.0
1569,65.0,120,480,0.0,38.0
1570,58.0,120,120,0.0,45.0
1571,56.0,120,120,0.0,44.0
1572,55.0,120,120,0.0,45.0
1573,53.0,120,120,0.0,45.0
1574,70.0,60,60,0.0,67.0
1575,51.0,60,240,0.0,53.0
1576,55.0,240,240,0.0,45.0
1577,58.0,240,240,0.0,47.0
1578,82.0,0,720,0.0,73.0
1579,80.0,0,60,0.0,70.0
1580,79.0,60,60,0.0,66.0
1581,77.0,60,60,0.0,70.0
1582,63.0,240,240,0.0,45.0
1583,75.0,60,60,0.0,64.0
1584,68.0,60,240,0.0,51.0
1585,74.0,0,240,0.0,74.0
1586,67.0,240,240,0.0,47.0
1587,75.0,0,240,0.0,72.0
1588,74.0,240,240,0.0,67.0
1589,77.0,0,240,0.0,67.0
1590,65.0,0,240,0.0,51.0
1591,68.0,0,240,0.0,51.0
1592,80.0,240,60,0.0,69.0
1593,79.0,60,60,0.0,65.0
1594,77.0,60,60,0.0,66.0
1595,67.0,0,240,0.0,47.0
1596,63.0,0,240,0.0,47.0
1597,75.0,0,240,0.0,69.0
1598,79.0,60,60,0.0,65.0
1599,80.0,0,240,0.0,70.0
1600,77.0,0,240,0.0,70.0
1601,62.0,0,240,0.0,47.0
1602,65.0,60,240,0.0,47.0
1603,70.0,240,240,0.0,57.0
1604,70.0,240,240,0.0,59.0
1605,70.0,240,240,0.0,59.0
1606,58.0,240,240,0.0,45.0
1607,80.0,240,720,0.0,72.0
1608,62.0,240,240,0.0,45.0
1609,82.0,240,60,0.0,69.0
1610,80.0,60,60,0.0,65.0
1611,79.0,60,60,0.0,69.0
1612,77.0,60,60,0.0,64.0
1613,65.0,0,240,0.0,45.0
1614,67.0,60,240,0.0,50.0
1615,75.0,0,240,0.0,73.0
1616,77.0,0,240,0.0,70.0
1617,68.0,0,240,0.0,45.0
1618,74.0,0,240,0.0,70.0
1619,75.0,0,240,0.0,71.0
1620,79.0,240,240,0.0,71.0
1621,67.0,0,240,0.0,51.0
1622,70.0,240,480,0.0,45.0
1623,82.0,0,60,0.0,67.0
1624,80.0,60,60,0.0,63.0
1625,79.0,60,60,0.0,67.0
1626,80.0,60,60,0.0,64.0
1627,77.0,240,240,0.0,67.0
1628,65.0,0,240,0.0,45.0
1629,68.0,0,240,0.0,45.0
1630,82.0,0,120,0.0,72.0
1631,79.0,60,120,0.0,72.0
1632,63.0,0,240,0.0,50.0
1633,67.0,0,240,0.0,50.0
1634,39.0,240,240,0.0,54.0
1635,51.0,240,0,0.0,56.0
1636,39.0,240,0,0.0,54.0
1637,51.0,0,240,0.0,54.0
1638,63.0,240,0,0.0,49.0
1639,55.0,0,0,0.0,49.0
1640,73.0,240,600,0.0,83.0
1641,75.0,120,30,0.0,62.0
1642,73.0,30,30,0.0,58.0
1643,72.0,30,30,0.0,62.0
1644,73.0,30,30,0.0,59.0
1645,63.0,0,0,0.0,48.0
1646,55.0,30,0,0.0,48.0
1647,75.0,0,120,0.0,67.0
1648,77.0,120,120,0.0,67.0
1649,63.0,0,0,0.0,51.0
1650,75.0,0,120,0.0,67.0
1651,73.0,120,120,0.0,60.0
1652,63.0,0,0,0.0,45.0
1653,55.0,120,0,0.0,45.0
1654,72.0,0,120,0.0,67.0
1655,71.0,120,120,0.0,61.0
1656,55.0,240,240,0.0,47.0
1657,71.0,120,600,0.0,70.0
1658,72.0,120,120,0.0,67.0
1659,63.0,120,0,0.0,55.0
1660,56.0,0,0,0.0,55.0
1661,75.0,0,120,0.0,69.0
1662,74.0,120,120,0.0,69.0
1663,56.0,0,0,0.0,55.0
1664,63.0,120,0,0.0,55.0
1665,77.0,0,120,0.0,69.0
1666,75.0,120,120,0.0,64.0
1667,74.0,120,120,0.0,68.0
1668,63.0,0,240,0.0,50.0
1669,56.0,0,240,0.0,50.0
1670,72.0,120,120,0.0,61.0
1671,70.0,0,100,0.0,59.0
1672,71.0,80,100,0.0,60.0
1673,63.0,0,0,0.0,48.0
1674,55.0,120,240,0.0,53.0
1675,72.0,80,100,0.0,62.0
1676,73.0,80,100,0.0,66.0
1677,74.0,80,100,0.0,68.0
1678,75.0,80,80,0.0,69.0
1679,56.0,0,240,0.0,48.0
1680,75.0,80,60,0.0,60.0
1681,46.0,0,240,0.0,50.0
1682,55.0,0,0,0.0,46.0
1683,46.0,180,240,0.0,46.0
1684,63.0,60,420,0.0,73.0
1685,67.0,0,120,0.0,59.0
1686,65.0,120,120,0.0,64.0
1687,56.0,0,240,0.0,39.0
1688,46.0,0,0,0.0,39.0
1689,63.0,0,120,0.0,64.0
1690,56.0,120,240,0.0,39.0
1691,65.0,120,120,0.0,59.0
1692,62.0,0,480,0.0,59.0
1693,51.0,120,120,0.0,45.0
1694,55.0,0,120,0.0,45.0
1695,51.0,120,120,0.0,50.0
1696,55.0,120,120,0.0,54.0
1697,63.0,0,480,0.0,55.0
1698,58.0,120,120,0.0,57.0
1699,56.0,120,120,0.0,63.0
1700,58.0,120,120,0.0,56.0
1701,55.0,0,120,0.0,63.0
1702,58.0,120,120,0.0,56.0
1703,70.0,0,240,0.0,75.0
1704,63.0,120,240,0.0,75.0
1705,53.0,120,120,0.0,63.0
1706,70.0,0,240,0.0,59.0
1707,65.0,0,240,0.0,80.0
1708,58.0,120,120,0.0,56.0
1709,51.0,0,120,0.0,63.0
1710,58.0,120,120,0.0,56.0
1711,70.0,0,240,0.0,75.0
1712,67.0,120,240,0.0,75.0
1713,50.0,0,120,0.0,63.0
1714,53.0,120,120,0.0,54.0
1715,70.0,0,300,0.0,80.0
1716,72.0,60,60,0.0,76.0
1717,56.0,120,120,0.0,56.0
1718,70.0,60,60,0.0,70.0
1719,69.0,60,60,0.0,69.0
1720,55.0,0,120,0.0,53.0
1721,53.0,0,120,0.0,61.0
1722,70.0,60,120,0.0,79.0
1723,68.0,120,720,0.0,63.0
1724,51.0,120,120,0.0,54.0
1725,50.0,0,120,0.0,56.0
1726,48.0,120,120,0.0,54.0
1727,62.0,120,240,0.0,74.0
1728,70.0,0,240,0.0,74.0
1729,46.0,0,120,0.0,56.0
1730,72.0,0,240,0.0,76.0
1731,63.0,120,240,0.0,76.0
1732,48.0,120,120,0.0,54.0
1733,44.0,120,120,0.0,56.0
1734,46.0,120,120,0.0,52.0
1735,74.0,0,240,0.0,72.0
1736,65.0,0,240,0.0,72.0
1737,43.0,0,120,0.0,61.0
1738,46.0,120,120,0.0,47.0
1739,75.0,120,300,0.0,81.0
1740,77.0,60,60,0.0,70.0
1741,51.0,120,120,0.0,52.0
1742,79.0,60,60,0.0,72.0
1743,46.0,0,120,0.0,47.0
1744,75.0,60,60,0.0,66.0
1745,55.0,60,120,0.0,52.0
1746,70.0,0,120,0.0,69.0
1747,63.0,0,720,0.0,81.0
1748,67.0,0,240,0.0,52.0
1749,55.0,240,240,0.0,43.0
1750,51.0,0,240,0.0,43.0
1751,70.0,0,240,0.0,52.0
1752,56.0,0,240,0.0,43.0
1753,65.0,240,240,0.0,54.0
1754,68.0,0,240,0.0,54.0
1755,53.0,0,240,0.0,43.0
1756,63.0,0,240,0.0,52.0
1757,67.0,0,240,0.0,52.0
1758,58.0,0,240,0.0,43.0
1759,55.0,240,240,0.0,43.0
1760,65.0,240,300,0.0,57.0
1761,67.0,300,60,0.0,50.0
1762,68.0,60,60,0.0,52.0
1763,56.0,0,480,0.0,46.0
1764,65.0,60,60,0.0,50.0
1765,60.0,0,480,0.0,46.0
1766,72.0,60,120,0.0,56.0
1767,53.0,0,240,0.0,36.0
1768,60.0,0,240,0.0,46.0
1769,65.0,0,240,0.0,46.0
1770,44.0,240,240,0.0,36.0
1771,55.0,0,240,0.0,43.0
1772,58.0,0,240,0.0,49.0
1773,63.0,240,240,0.0,49.0
1774,46.0,0,480,0.0,43.0
1775,56.0,240,0,0.0,45.0
1776,65.0,0,240,0.0,46.0
1777,62.0,0,240,0.0,46.0
1778,65.0,0,360,0.0,54.0
1779,66.0,360,120,0.0,50.0
1780,62.0,0,480,0.0,54.0
1781,51.0,0,600,0.0,45.0
1782,55.0,120,120,0.0,35.0
1783,63.0,120,120,0.0,52.0
1784,67.0,120,0,0.0,54.0
1785,70.0,120,120,0.0,51.0
1786,82.0,0,0,0.0,77.0
1787,75.0,0,240,0.0,76.0
1788,68.0,120,120,0.0,57.0
1789,77.0,0,240,0.0,77.0
1790,82.0,120,0,0.0,76.0
1791,67.0,120,120,0.0,52.0
1792,65.0,0,120,0.0,54.0
1793,82.0,0,0,0.0,81.0
1794,63.0,120,120,0.0,53.0
1795,79.0,0,240,0.0,76.0
1796,62.0,0,120,0.0,63.0
1797,65.0,120,120,0.0,54.0
1798,84.0,60,60,0.0,73.0
1799,68.0,120,120,0.0,56.0
1800,82.0,60,60,0.0,69.0
1801,81.0,60,60,0.0,70.0
1802,67.0,0,120,0.0,54.0
1803,65.0,0,120,0.0,61.0
1804,82.0,60,120,0.0,78.0
1805,80.0,120,720,0.0,81.0
1806,63.0,120,120,0.0,54.0
1807,62.0,0,120,0.0,56.0
1808,60.0,120,120,0.0,54.0
1809,74.0,120,240,0.0,76.0
1810,82.0,0,240,0.0,76.0
1811,58.0,0,120,0.0,56.0
1812,75.0,0,240,0.0,80.0
1813,60.0,120,120,0.0,54.0
1814,84.0,120,240,0.0,80.0
1815,56.0,0,120,0.0,56.0
1816,58.0,120,120,0.0,53.0
1817,77.0,120,240,0.0,75.0
1818,86.0,0,240,0.0,75.0
1819,55.0,0,120,0.0,61.0
1820,58.0,120,120,0.0,45.0
1821,87.0,0,300,0.0,86.0
1822,86.0,60,60,0.0,68.0
1823,60.0,120,120,0.0,49.0
1824,87.0,60,60,0.0,70.0
1825,82.0,60,60,0.0,66.0
1826,62.0,0,120,0.0,45.0
1827,79.0,60,120,0.0,61.0
1828,63.0,0,120,0.0,46.0
1829,75.0,120,720,0.0,86.0
1830,82.0,0,240,0.0,54.0
1831,79.0,240,240,0.0,54.0
1832,67.0,0,240,0.0,43.0
1833,63.0,0,240,0.0,43.0
1834,68.0,0,240,0.0,43.0
1835,80.0,0,240,0.0,54.0
1836,77.0,240,240,0.0,54.0
1837,65.0,0,240,0.0,43.0
1838,70.0,0,240,0.0,36.0
1839,79.0,0,240,0.0,54.0
1840,75.0,0,240,0.0,54.0
1841,67.0,240,240,0.0,36.0
1842,76.0,0,60,0.0,51.0
1843,77.0,60,60,0.0,50.0
1844,79.0,60,60,0.0,56.0
1845,77.0,60,60,0.0,55.0
1846,68.0,240,240,0.0,43.0
1847,72.0,0,240,0.0,43.0
1848,80.0,60,60,0.0,59.0
1849,79.0,60,60,0.0,58.0
1850,82.0,60,60,0.0,62.0
1851,80.0,60,60,0.0,60.0
1852,84.0,60,480,0.0,66.0
1853,82.0,0,240,0.0,59.0
1854,62.0,480,240,0.0,43.0
1855,58.0,0,480,0.0,43.0
1856,74.0,180,60,0.0,53.0
1857,68.0,0,480,0.0,43.0
1858,65.0,240,240,0.0,43.0
1859,63.0,60,120,0.0,43.0
1860,67.0,120,120,0.0,39.0
1861,70.0,120,120,0.0,40.0
1862,67.0,120,120,0.0,42.0
1863,75.0,0,480,0.0,56.0
1864,63.0,120,120,0.0,46.0
1865,67.0,120,120,0.0,44.0
1866,70.0,0,120,0.0,49.0
1867,85.0,120,240,0.0,69.0
1868,67.0,120,120,0.0,50.0
1869,68.0,0,120,0.0,58.0
1870,65.0,120,120,0.0,55.0
1871,84.0,120,240,0.0,72.0
1872,70.0,120,120,0.0,56.0
1873,68.0,120,120,0.0,58.0
1874,86.0,0,240,0.0,75.0
1875,67.0,0,120,0.0,62.0
1876,89.0,120,240,0.0,81.0
1877,70.0,120,120,0.0,56.0
1878,67.0,0,120,0.0,53.0
1879,87.0,120,240,0.0,78.0
1880,65.0,120,120,0.0,55.0
1881,63.0,120,120,0.0,70.0
1882,61.0,120,120,0.0,61.0
1883,58.0,120,120,0.0,64.0
1884,73.0,0,240,0.0,72.0
1885,55.0,120,120,0.0,61.0
1886,56.0,0,120,0.0,70.0
1887,72.0,120,240,0.0,74.0
1888,53.0,120,120,0.0,64.0
1889,58.0,0,120,0.0,70.0
1890,46.0,120,120,0.0,59.0
1891,74.0,120,240,0.0,69.0
1892,68.0,0,240,0.0,69.0
1893,77.0,0,480,0.0,59.0
1894,68.0,0,480,0.0,59.0
1895,75.0,0,240,0.0,52.0
1896,67.0,480,240,0.0,52.0
1897,51.0,120,720,0.0,50.0
1898,65.0,240,240,0.0,47.0
1899,62.0,0,240,0.0,47.0
1900,56.0,0,240,0.0,42.0
1901,63.0,0,240,0.0,52.0
1902,55.0,0,240,0.0,45.0
1903,67.0,240,240,0.0,52.0
1904,65.0,0,240,0.0,54.0
1905,68.0,240,240,0.0,54.0
1906,53.0,0,240,0.0,47.0
1907,69.0,0,480,0.0,67.0
1908,66.0,240,480,0.0,67.0
1909,70.0,0,240,0.0,62.0
1910,67.0,480,240,0.0,62.0
1911,73.0,0,240,0.0,54.0
1912,70.0,240,240,0.0,54.0
1913,52.0,0,960,0.0,56.0
1914,64.0,240,240,0.0,56.0
1915,67.0,0,240,0.0,56.0
1916,72.0,240,240,0.0,51.0
1917,68.0,0,240,0.0,51.0
1918,48.0,0,480,0.0,46.0
1919,67.0,0,480,0.0,55.0
1920,70.0,240,480,0.0,55.0
1921,68.0,0,240,0.0,52.0
1922,65.0,480,240,0.0,52.0
1923,77.0,240,240,0.0,54.0
1924,50.0,0,960,0.0,53.0
1925,77.0,0,240,0.0,54.0
1926,56.0,0,480,0.0,43.0
1927,60.0,240,480,0.0,43.0
1928,77.0,240,240,0.0,54.0
1929,61.0,240,480,0.0,43.0
1930,78.0,0,480,0.0,62.0
1931,58.0,0,480,0.0,43.0
1932,79.0,480,240,0.0,56.0
1933,82.0,240,480,0.0,63.0
1934,60.0,0,480,0.0,43.0
1935,70.0,240,0,0.0,43.0
1936,76.0,240,240,0.0,57.0
1937,79.0,0,480,0.0,64.0
1938,77.0,480,240,0.0,60.0
1939,65.0,0,720,0.0,43.0
1940,68.0,0,240,0.0,36.0
1941,41.0,240,0,0.0,46.0
1942,41.0,240,0,0.0,44.0
1943,41.0,240,0,0.0,52.0
1944,80.0,240,240,0.0,59.0
1945,79.0,240,120,0.0,61.0
1946,77.0,120,120,0.0,59.0
1947,75.0,120,120,0.0,57.0
1948,73.0,120,120,0.0,57.0
1949,72.0,120,120,0.0,59.0
1950,73.0,120,120,0.0,62.0
1951,77.0,120,120,0.0,66.0
1952,73.0,120,120,0.0,60.0
1953,72.0,120,480,0.0,57.0
1954,41.0,0,720,0.0,42.0
1955,41.0,240,240,0.0,45.0
1956,41.0,240,240,0.0,46.0
1957,41.0,240,240,0.0,45.0
1958,62.0,0,1440,0.0,57.0
1959,68.0,0,1440,0.0,57.0
1960,71.0,480,960,0.0,47.0
1961,72.0,0,240,0.0,53.0
1962,71.0,240,120,0.0,56.0
1963,63.0,0,0,0.0,50.0
1964,72.0,120,120,0.0,58.0
1965,74.0,120,120,0.0,59.0
1966,72.0,120,120,0.0,56.0
1967,71.0,120,120,0.0,56.0
1968,72.0,120,120,0.0,59.0
1969,63.0,0,0,0.0,61.0
1970,75.0,120,120,0.0,61.0
1971,42.0,240,1440,0.0,54.0
1972,74.0,120,120,0.0,60.0
1973,71.0,0,480,0.0,66.0
1974,43.0,240,0,0.0,48.0
1975,43.0,240,240,0.0,50.0
1976,43.0,240,240,0.0,47.0
1977,63.0,480,960,0.0,60.0
1978,72.0,0,960,0.0,60.0
1979,72.0,240,240,0.0,62.0
1980,63.0,0,240,0.0,62.0
1981,72.0,240,0,0.0,67.0
1982,63.0,240,240,0.0,64.0
1983,44.0,240,960,0.0,55.0
1984,72.0,0,0,0.0,70.0
1985,63.0,240,0,0.0,70.0
1986,72.0,0,0,0.0,72.0
1987,45.0,0,480,0.0,62.0
1988,63.0,240,240,0.0,72.0
1989,73.0,240,300,0.0,74.0
1990,72.0,300,60,0.0,62.0
1991,70.0,60,60,0.0,57.0
1992,68.0,60,60,0.0,54.0
1993,46.0,0,480,0.0,62.0
1994,63.0,0,720,0.0,74.0
1995,67.0,60,240,0.0,66.0
1996,49.0,0,480,0.0,48.0
1997,79.0,240,240,0.0,67.0
1998,80.0,0,240,0.0,67.0
1999,48.0,240,480,0.0,54.0
2000,72.0,240,360,0.0,65.0
2001,70.0,120,120,0.0,56.0
2002,73.0,120,120,0.0,60.0
2003,77.0,120,120,0.0,55.0
2004,49.0,240,480,0.0,44.0
2005,60.0,0,480,0.0,43.0
2006,51.0,480,0,0.0,36.0
2007,68.0,120,720,0.0,63.0
2008,72.0,0,120,0.0,55.0
2009,70.0,120,120,0.0,55.0
2010,61.0,0,480,0.0,36.0
2011,67.0,240,240,0.0,55.0
2012,56.0,120,120,0.0,33.0
2013,60.0,120,120,0.0,26.0
2014,63.0,120,120,0.0,27.0
2015,60.0,120,120,0.0,25.0
2016,68.0,0,480,0.0,46.0
2017,56.0,120,120,0.0,30.0
2018,60.0,120,120,0.0,26.0
2019,63.0,0,120,0.0,29.0
2020,68.0,120,240,0.0,46.0
2021,72.0,120,0,0.0,49.0
2022,60.0,120,120,0.0,26.0
2023,56.0,0,120,0.0,33.0
2024,68.0,0,0,0.0,46.0
2025,60.0,120,120,0.0,27.0
2026,63.0,0,120,0.0,29.0
2027,72.0,120,0,0.0,58.0
2028,60.0,120,120,0.0,27.0
2029,55.0,0,120,0.0,36.0
2030,77.0,0,240,0.0,58.0
2031,58.0,120,120,0.0,26.0
2032,60.0,120,120,0.0,27.0
2033,58.0,120,120,0.0,26.0
2034,55.0,120,120,0.0,32.0
2035,58.0,120,120,0.0,26.0
2036,70.0,0,0,0.0,47.0
2037,72.0,120,0,0.0,47.0
2038,76.0,0,480,0.0,46.0
2039,60.0,0,120,0.0,27.0
2040,58.0,120,120,0.0,25.0
2041,55.0,0,120,0.0,32.0
2042,72.0,120,240,0.0,51.0
2043,70.0,0,240,0.0,51.0
2044,58.0,120,120,0.0,27.0
2045,60.0,0,120,0.0,27.0
2046,72.0,0,240,0.0,47.0
2047,70.0,120,240,0.0,47.0
2048,58.0,120,120,0.0,25.0
2049,53.0,120,120,0.0,36.0
2050,56.0,120,120,0.0,27.0
2051,79.0,0,240,0.0,59.0
2052,60.0,120,120,0.0,30.0
2053,56.0,120,120,0.0,27.0
2054,53.0,120,120,0.0,32.0
2055,77.0,0,480,0.0,51.0
2056,56.0,120,120,0.0,26.0
2057,68.0,0,0,0.0,51.0
2058,72.0,0,0,0.0,51.0
2059,60.0,120,120,0.0,27.0
2060,56.0,120,120,0.0,26.0
2061,53.0,120,120,0.0,32.0
2062,68.0,0,240,0.0,54.0
2063,72.0,0,240,0.0,54.0
2064,56.0,120,120,0.0,27.0
2065,60.0,120,120,0.0,29.0
2066,72.0,0,240,0.0,49.0
2067,68.0,0,240,0.0,49.0
2068,56.0,120,120,0.0,27.0
2069,51.0,0,120,0.0,36.0
2070,80.0,120,240,0.0,64.0
2071,54.0,120,120,0.0,30.0
2072,56.0,0,120,0.0,32.0
2073,54.0,120,120,0.0,29.0
2074,51.0,120,120,0.0,36.0
2075,54.0,120,120,0.0,29.0
2076,78.0,120,480,0.0,60.0
2077,72.0,0,720,0.0,64.0
2078,68.0,0,720,0.0,64.0
2079,56.0,120,120,0.0,32.0
2080,72.0,0,240,0.0,50.0
2081,54.0,120,120,0.0,29.0
2082,68.0,120,0,0.0,55.0
2083,51.0,0,120,0.0,35.0
2084,54.0,120,120,0.0,29.0
2085,72.0,0,0,0.0,51.0
2086,56.0,120,120,0.0,31.0
2087,68.0,0,240,0.0,51.0
2088,54.0,120,120,0.0,27.0
2089,49.0,0,120,0.0,40.0
2090,78.0,120,240,0.0,61.0
2091,52.0,120,120,0.0,34.0
2092,56.0,120,120,0.0,36.0
2093,52.0,120,120,0.0,33.0
2094,49.0,120,120,0.0,40.0
2095,68.0,0,0,0.0,59.0
2096,73.0,0,720,0.0,61.0
2097,76.0,120,0,0.0,59.0
2098,52.0,120,120,0.0,33.0
2099,56.0,0,120,0.0,36.0
2100,52.0,120,120,0.0,33.0
2101,76.0,0,0,0.0,64.0
2102,68.0,0,0,0.0,64.0
2103,47.0,120,120,0.0,39.0
2104,51.0,120,120,0.0,34.0
2105,56.0,0,120,0.0,36.0
2106,51.0,120,120,0.0,33.0
2107,68.0,0,0,0.0,65.0
2108,75.0,120,240,0.0,59.0
2109,75.0,0,360,0.0,65.0
2110,77.0,360,60,0.0,52.0
2111,75.0,60,60,0.0,49.0
2112,46.0,120,720,0.0,36.0
2113,53.0,0,720,0.0,36.0
2114,68.0,0,0,0.0,45.0
2115,74.0,60,240,0.0,52.0
2116,53.0,240,240,0.0,29.0
2117,62.0,0,0,0.0,47.0
2118,68.0,240,0,0.0,47.0
2119,46.0,0,0,0.0,32.0
2120,53.0,0,240,0.0,32.0
2121,46.0,0,0,0.0,29.0
2122,68.0,0,240,0.0,45.0
2123,53.0,240,240,0.0,29.0
2124,62.0,240,0,0.0,47.0
2125,53.0,0,480,0.0,32.0
2126,68.0,0,480,0.0,47.0
2127,46.0,0,480,0.0,32.0
2128,80.0,0,240,0.0,39.0
2129,74.0,720,240,0.0,39.0
2130,58.0,0,240,0.0,27.0
2131,65.0,0,240,0.0,27.0
2132,58.0,0,240,0.0,27.0
2133,65.0,0,0,0.0,27.0
2134,80.0,240,240,0.0,39.0
2135,74.0,0,240,0.0,39.0
2136,80.0,0,240,0.0,39.0
2137,74.0,0,240,0.0,39.0
2138,58.0,240,240,0.0,27.0
2139,80.0,0,240,0.0,43.0
2140,82.0,240,30,0.0,34.0
2141,80.0,30,30,0.0,36.0
2142,79.0,30,30,0.0,39.0
2143,80.0,30,30,0.0,41.0
2144,82.0,30,60,0.0,40.0
2145,65.0,0,480,0.0,31.0
2146,58.0,0,480,0.0,31.0
2147,84.0,60,60,0.0,37.0
2148,74.0,240,480,0.0,43.0
2149,82.0,60,120,0.0,43.0
2150,80.0,120,120,0.0,40.0
2151,79.0,120,120,0.0,44.0
2152,77.0,120,120,0.0,44.0
2153,75.0,120,120,0.0,46.0
2154,74.0,120,120,0.0,44.0
2155,72.0,120,120,0.0,44.0
2156,70.0,120,120,0.0,44.0
2157,70.0,0,360,0.0,46.0
2158,72.0,359,60,0.0,46.0
2159,70.0,60,60,0.0,46.0
2160,67.0,0,480,0.0,46.0
2161,68.0,0,240,0.0,44.0
2162,65.0,60,240,0.0,44.0
2163,63.0,0,240,0.0,42.0
2164,67.0,240,240,0.0,42.0
2165,51.0,121,960,0.0,39.0
2166,72.0,240,240,0.0,43.0
2167,68.0,0,240,0.0,43.0
2168,67.0,0,0,0.0,45.0
2169,70.0,240,0,0.0,45.0
2170,51.0,0,120,0.0,37.0
2171,55.0,120,120,0.0,33.0
2172,58.0,120,120,0.0,36.0
2173,72.0,0,60,0.0,42.0
2174,51.0,120,120,0.0,33.0
2175,70.0,60,60,0.0,42.0
2176,53.0,60,120,0.0,40.0
2177,56.0,120,120,0.0,32.0
2178,62.0,120,120,0.0,35.0
2179,53.0,120,120,0.0,33.0
2180,68.0,0,480,0.0,47.0
2181,55.0,0,120,0.0,40.0
2182,58.0,120,120,0.0,32.0
2183,63.0,120,120,0.0,36.0
2184,55.0,120,120,0.0,33.0
2185,67.0,120,600,0.0,47.0
2186,64.0,120,120,0.0,44.0
2187,65.0,120,120,0.0,45.0
2188,67.0,120,120,0.0,46.0
2189,68.0,120,120,0.0,49.0
2190,69.0,120,120,0.0,51.0
2191,70.0,120,120,0.0,52.0
2192,71.0,120,120,0.0,54.0
2193,74.0,120,60,0.0,56.0
2194,72.0,60,60,0.0,54.0
2195,71.0,60,60,0.0,52.0
2196,72.0,60,60,0.0,54.0
2197,70.0,60,60,0.0,52.0
2198,68.0,60,60,0.0,49.0
2199,67.0,60,60,0.0,51.0
2200,60.0,0,1440,0.0,41.0
2201,56.0,120,1440,0.0,41.0
2202,65.0,60,60,0.0,50.0
2203,45.0,60,120,0.0,44.0
2204,46.0,120,120,0.0,46.0
2205,48.0,120,120,0.0,49.0
2206,55.0,0,480,0.0,54.0
2207,46.0,120,120,0.0,45.0
2208,63.0,0,480,0.0,54.0
2209,53.0,0,60,0.0,47.0
2210,62.0,120,60,0.0,47.0
2211,58.0,60,60,0.0,49.0
2212,57.0,60,60,0.0,50.0
2213,58.0,60,60,0.0,51.0
2214,59.0,60,60,0.0,52.0
2215,60.0,60,60,0.0,53.0
2216,61.0,60,60,0.0,54.0
2217,46.0,0,480,0.0,45.0
2218,62.0,60,60,0.0,54.0
2219,63.0,60,60,0.0,55.0
2220,64.0,60,60,0.0,56.0
2221,65.0,60,60,0.0,57.0
2222,66.0,60,60,0.0,59.0
2223,67.0,60,60,0.0,60.0
2224,68.0,60,60,0.0,61.0
2225,69.0,60,60,0.0,62.0
2226,70.0,60,0,0.0,63.0
2227,72.0,360,60,0.0,57.0
2228,51.0,0,480,0.0,45.0
2229,70.0,60,60,0.0,53.0
2230,67.0,0,480,0.0,63.0
2231,39.0,0,480,0.0,45.0
2232,68.0,60,60,0.0,55.0
2233,67.0,60,60,0.0,54.0
2234,72.0,60,60,0.0,56.0
2235,70.0,60,60,0.0,53.0
2236,75.0,60,60,0.0,57.0
2237,74.0,60,60,0.0,55.0
2238,77.0,60,60,0.0,61.0
2239,75.0,60,60,0.0,55.0
2240,80.0,60,60,0.0,63.0
2241,79.0,60,60,0.0,59.0
2242,78.0,60,60,0.0,61.0
2243,79.0,60,60,0.0,61.0
2244,77.0,60,60,0.0,61.0
2245,75.0,60,60,0.0,59.0
2246,74.0,60,60,0.0,57.0
2247,51.0,0,480,0.0,53.0
2248,60.0,0,0,0.0,51.0
2249,72.0,60,60,0.0,55.0
2250,70.0,0,240,0.0,60.0
2251,53.0,60,480,0.0,51.0
2252,58.0,240,240,0.0,46.0
2253,69.0,240,480,0.0,63.0
2254,62.0,0,480,0.0,46.0
2255,59.0,0,240,0.0,40.0
2256,68.0,240,360,0.0,63.0
2257,60.0,0,240,0.0,47.0
2258,67.0,120,120,0.0,66.0
2259,75.0,0,120,0.0,68.0
2260,55.0,120,240,0.0,45.0
2261,73.0,120,120,0.0,64.0
2262,71.0,0,120,0.0,67.0
2263,72.0,120,120,0.0,64.0
2264,63.0,240,720,0.0,47.0
2265,56.0,120,240,0.0,50.0
2266,74.0,120,120,0.0,69.0
2267,75.0,0,0,0.0,70.0
2268,55.0,120,480,0.0,51.0
2269,70.0,240,360,0.0,66.0
2270,72.0,120,60,0.0,54.0
2271,70.0,60,60,0.0,50.0
2272,70.0,60,60,0.0,53.0
2273,68.0,60,60,0.0,45.0
2274,67.0,60,60,0.0,51.0
2275,46.0,0,960,0.0,51.0
2276,56.0,240,480,0.0,37.0
2277,65.0,60,60,0.0,45.0
2278,51.0,0,120,0.0,30.0
2279,55.0,120,120,0.0,26.0
2280,58.0,120,120,0.0,27.0
2281,63.0,60,480,0.0,46.0
2282,55.0,120,120,0.0,27.0
2283,51.0,120,120,0.0,30.0
2284,55.0,120,120,0.0,27.0
2285,58.0,120,120,0.0,29.0
2286,55.0,120,120,0.0,27.0
2287,70.0,0,240,0.0,46.0
2288,67.0,0,240,0.0,46.0
2289,51.0,120,120,0.0,33.0
2290,70.0,0,240,0.0,50.0
2291,55.0,120,120,0.0,27.0
2292,67.0,120,0,0.0,46.0
2293,58.0,0,120,0.0,29.0
2294,70.0,0,240,0.0,46.0
2295,55.0,120,120,0.0,27.0
2296,51.0,0,120,0.0,36.0
2297,75.0,120,240,0.0,54.0
2298,53.0,120,120,0.0,27.0
2299,56.0,0,120,0.0,30.0
2300,53.0,120,120,0.0,27.0
2301,51.0,120,120,0.0,32.0
2302,68.0,0,720,0.0,54.0
2303,53.0,120,120,0.0,27.0
2304,74.0,120,480,0.0,46.0
2305,56.0,120,120,0.0,27.0
2306,82.0,0,120,0.0,50.0
2307,53.0,120,120,0.0,26.0
2308,80.0,0,120,0.0,47.0
2309,79.0,0,120,0.0,52.0
2310,51.0,120,120,0.0,32.0
2311,77.0,120,120,0.0,47.0
2312,53.0,0,120,0.0,27.0
2313,56.0,0,120,0.0,27.0
2314,75.0,120,120,0.0,49.0
2315,53.0,120,120,0.0,27.0
2316,74.0,0,120,0.0,45.0
2317,77.0,0,40,0.0,54.0
2318,75.0,40,40,0.0,52.0
2319,51.0,120,120,0.0,33.0
2320,77.0,40,40,0.0,54.0
2321,55.0,40,120,0.0,26.0
2322,58.0,120,120,0.0,27.0
2323,75.0,0,240,0.0,52.0
2324,74.0,0,60,0.0,49.0
2325,72.0,60,60,0.0,45.0
2326,55.0,120,120,0.0,26.0
2327,51.0,60,120,0.0,31.0
2328,70.0,0,240,0.0,50.0
2329,55.0,120,120,0.0,26.0
2330,58.0,0,120,0.0,27.0
2331,70.0,0,240,0.0,49.0
2332,67.0,0,0,0.0,53.0
2333,55.0,120,120,0.0,26.0
2334,51.0,120,120,0.0,33.0
2335,55.0,120,120,0.0,27.0
2336,70.0,0,240,0.0,53.0
2337,67.0,0,0,0.0,49.0
2338,58.0,120,120,0.0,30.0
2339,55.0,120,120,0.0,27.0
2340,70.0,0,240,0.0,49.0
2341,51.0,120,120,0.0,36.0
2342,75.0,0,120,0.0,62.0
2343,68.0,0,240,0.0,62.0
2344,53.0,120,120,0.0,25.0
2345,74.0,0,120,0.0,55.0
2346,56.0,0,120,0.0,27.0
2347,53.0,120,120,0.0,24.0
2348,51.0,120,120,0.0,29.0
2349,53.0,120,120,0.0,23.0
2350,84.0,120,480,0.0,60.0
2351,82.0,0,60,0.0,50.0
2352,80.0,60,60,0.0,49.0
2353,56.0,120,120,0.0,27.0
2354,84.0,60,60,0.0,52.0
2355,53.0,0,120,0.0,23.0
2356,80.0,60,60,0.0,49.0
2357,79.0,60,60,0.0,51.0
2358,77.0,60,60,0.0,49.0
2359,51.0,0,120,0.0,30.0
2360,80.0,60,60,0.0,51.0
2361,53.0,0,120,0.0,26.0
2362,77.0,60,60,0.0,49.0
2363,75.0,0,60,0.0,51.0
2364,56.0,60,120,0.0,26.0
2365,74.0,60,60,0.0,49.0
2366,77.0,60,60,0.0,52.0
2367,74.0,60,60,0.0,49.0
2368,53.0,0,120,0.0,25.0
2369,75.0,0,60,0.0,54.0
2370,77.0,60,60,0.0,52.0
2371,75.0,60,60,0.0,52.0
2372,74.0,60,60,0.0,52.0
2373,75.0,60,40,0.0,50.0
2374,76.0,40,40,0.0,47.0
2375,77.0,40,40,0.0,50.0
2376,78.0,40,60,0.0,53.0
2377,51.0,60,480,0.0,27.0
2378,55.0,0,480,0.0,27.0
2379,79.0,60,60,0.0,54.0
2380,70.0,240,0,0.0,45.0
2381,67.0,0,240,0.0,45.0
2382,55.0,0,240,0.0,32.0
2383,56.0,0,240,0.0,34.0
2384,65.0,240,240,0.0,47.0
2385,68.0,0,240,0.0,47.0
2386,67.0,0,240,0.0,51.0
2387,57.0,240,240,0.0,35.0
2388,63.0,240,0,0.0,58.0
2389,70.0,0,120,0.0,58.0
2390,69.0,120,120,0.0,49.0
2391,70.0,120,120,0.0,53.0
2392,67.0,120,120,0.0,42.0
2393,58.0,0,600,0.0,37.0
2394,59.0,120,120,0.0,41.0
2395,60.0,120,120,0.0,45.0
2396,62.0,120,480,0.0,38.0
2397,65.0,0,480,0.0,38.0
2398,58.0,120,120,0.0,43.0
2399,58.0,120,120,0.0,45.0
2400,56.0,120,120,0.0,44.0
2401,55.0,120,120,0.0,45.0
2402,53.0,120,120,0.0,45.0
2403,70.0,60,60,0.0,67.0
2404,51.0,60,240,0.0,53.0
2405,55.0,240,240,0.0,45.0
2406,82.0,0,720,0.0,73.0
2407,58.0,240,240,0.0,47.0
2408,80.0,240,60,0.0,70.0
2409,79.0,60,60,0.0,66.0
2410,77.0,60,60,0.0,70.0
2411,63.0,0,240,0.0,45.0
2412,75.0,60,60,0.0,64.0
2413,74.0,0,240,0.0,74.0
2414,68.0,60,240,0.0,51.0
2415,67.0,240,240,0.0,47.0
2416,75.0,0,240,0.0,72.0
2417,74.0,0,240,0.0,67.0
2418,77.0,0,240,0.0,67.0
2419,65.0,0,240,0.0,51.0
2420,68.0,240,240,0.0,51.0
2421,80.0,0,60,0.0,69.0
2422,79.0,60,60,0.0,65.0
2423,77.0,60,60,0.0,66.0
2424,75.0,240,240,0.0,69.0
2425,79.0,60,60,0.0,65.0
2426,67.0,0,240,0.0,47.0
2427,63.0,0,240,0.0,47.0
2428,65.0,0,240,0.0,47.0
2429,80.0,60,240,0.0,70.0
2430,77.0,0,240,0.0,70.0
2431,62.0,0,240,0.0,47.0
2432,70.0,240,240,0.0,57.0
2433,70.0,240,0,0.0,59.0
2434,58.0,240,240,0.0,45.0
2435,80.0,240,720,0.0,72.0
2436,62.0,240,240,0.0,45.0
2437,82.0,240,60,0.0,69.0
2438,80.0,60,60,0.0,65.0
2439,79.0,60,60,0.0,69.0
2440,65.0,0,240,0.0,45.0
2441,77.0,60,60,0.0,64.0
2442,75.0,0,240,0.0,73.0
2443,67.0,60,240,0.0,50.0
2444,68.0,0,240,0.0,45.0
2445,74.0,0,240,0.0,70.0
2446,77.0,240,240,0.0,70.0
2447,67.0,240,240,0.0,51.0
2448,70.0,0,480,0.0,45.0
2449,79.0,0,240,0.0,71.0
2450,75.0,0,240,0.0,71.0
2451,82.0,0,60,0.0,67.0
2452,80.0,60,60,0.0,63.0
2453,79.0,60,60,0.0,67.0
2454,65.0,240,240,0.0,45.0
2455,80.0,60,60,0.0,64.0
2456,68.0,0,240,0.0,45.0
2457,77.0,0,240,0.0,67.0
2458,82.0,0,120,0.0,72.0
2459,79.0,0,120,0.0,72.0
2460,63.0,60,240,0.0,50.0
2461,67.0,0,240,0.0,50.0
2462,51.0,0,240,0.0,54.0
2463,39.0,240,240,0.0,54.0
2464,51.0,0,240,0.0,56.0
2465,39.0,240,240,0.0,56.0
2466,51.0,0,240,0.0,54.0
2467,39.0,240,240,0.0,54.0
2468,55.0,0,240,0.0,47.0
2469,63.0,240,240,0.0,47.0
2470,73.0,240,600,0.0,83.0
2471,75.0,120,30,0.0,62.0
2472,73.0,30,30,0.0,58.0
2473,72.0,30,30,0.0,62.0
2474,55.0,240,240,0.0,49.0
2475,73.0,30,30,0.0,59.0
2476,63.0,0,240,0.0,49.0
2477,75.0,30,120,0.0,67.0
2478,77.0,120,120,0.0,67.0
2479,55.0,0,0,0.0,51.0
2480,63.0,0,0,0.0,51.0
2481,75.0,120,120,0.0,67.0
2482,55.0,0,0,0.0,45.0
2483,63.0,120,0,0.0,45.0
2484,73.0,120,120,0.0,60.0
2485,72.0,0,120,0.0,67.0
2486,71.0,120,0,0.0,70.0
2487,55.0,240,240,0.0,47.0
2488,72.0,120,120,0.0,67.0
2489,56.0,120,0,0.0,55.0
2490,63.0,0,480,0.0,47.0
2491,75.0,0,120,0.0,69.0
2492,63.0,120,0,0.0,55.0
2493,56.0,0,0,0.0,55.0
2494,74.0,120,120,0.0,69.0
2495,77.0,0,120,0.0,69.0
2496,63.0,120,0,0.0,50.0
2497,75.0,120,120,0.0,64.0
2498,74.0,0,120,0.0,68.0
2499,56.0,0,240,0.0,50.0
2500,72.0,120,120,0.0,61.0
2501,63.0,0,0,0.0,53.0
2502,70.0,120,100,0.0,59.0
2503,71.0,80,100,0.0,60.0
2504,55.0,0,240,0.0,53.0
2505,72.0,80,100,0.0,62.0
2506,73.0,80,100,0.0,66.0
2507,74.0,80,100,0.0,68.0
2508,75.0,80,0,0.0,60.0
2509,63.0,0,240,0.0,48.0
2510,56.0,0,240,0.0,48.0
2511,46.0,180,0,0.0,46.0
2512,55.0,0,240,0.0,50.0
2513,55.0,0,240,0.0,46.0
2514,63.0,60,420,0.0,73.0
2515,67.0,0,120,0.0,59.0
2516,65.0,120,120,0.0,64.0
2517,46.0,120,0,0.0,39.0
2518,56.0,0,240,0.0,39.0
2519,63.0,0,120,0.0,64.0
2520,65.0,120,120,0.0,59.0
2521,62.0,240,480,0.0,59.0
2522,56.0,0,240,0.0,39.0
2523,51.0,0,120,0.0,45.0
2524,55.0,0,120,0.0,45.0
2525,51.0,120,120,0.0,50.0
2526,55.0,120,120,0.0,54.0
2527,58.0,120,120,0.0,57.0
2528,63.0,120,480,0.0,55.0
2529,56.0,120,120,0.0,63.0
2530,58.0,120,120,0.0,56.0
2531,55.0,120,120,0.0,63.0
2532,70.0,0,240,0.0,75.0
2533,63.0,0,240,0.0,75.0
2534,58.0,120,120,0.0,56.0
2535,53.0,0,120,0.0,63.0
2536,65.0,120,240,0.0,80.0
2537,70.0,120,0,0.0,75.0
2538,58.0,120,120,0.0,56.0
2539,51.0,0,120,0.0,63.0
2540,58.0,120,120,0.0,56.0
2541,67.0,0,240,0.0,75.0
2542,50.0,0,120,0.0,63.0
2543,53.0,120,120,0.0,54.0
2544,70.0,120,300,0.0,80.0
2545,56.0,120,120,0.0,56.0
2546,72.0,60,60,0.0,76.0
2547,70.0,0,60,0.0,70.0
2548,55.0,60,120,0.0,53.0
2549,69.0,60,60,0.0,69.0
2550,70.0,0,120,0.0,79.0
2551,53.0,60,120,0.0,61.0
2552,51.0,120,120,0.0,54.0
2553,68.0,0,720,0.0,63.0
2554,50.0,120,120,0.0,56.0
2555,48.0,120,120,0.0,54.0
2556,62.0,0,240,0.0,74.0
2557,70.0,0,240,0.0,74.0
2558,46.0,120,120,0.0,56.0
2559,72.0,0,240,0.0,76.0
2560,48.0,120,120,0.0,54.0
2561,63.0,0,240,0.0,76.0
2562,44.0,0,120,0.0,56.0
2563,46.0,120,120,0.0,52.0
2564,65.0,120,240,0.0,72.0
2565,74.0,0,240,0.0,72.0
2566,43.0,120,120,0.0,61.0
2567,46.0,120,120,0.0,47.0
2568,75.0,0,300,0.0,81.0
2569,51.0,120,120,0.0,52.0
2570,77.0,60,60,0.0,70.0
2571,79.0,60,60,0.0,72.0
2572,75.0,60,60,0.0,66.0
2573,46.0,0,120,0.0,47.0
2574,55.0,60,120,0.0,52.0
2575,70.0,0,120,0.0,69.0
2576,63.0,0,720,0.0,81.0
2577,55.0,0,240,0.0,43.0
2578,51.0,0,240,0.0,43.0
2579,67.0,0,240,0.0,52.0
2580,70.0,240,240,0.0,52.0
2581,68.0,0,240,0.0,54.0
2582,65.0,0,240,0.0,54.0
2583,53.0,0,240,0.0,43.0
2584,56.0,240,240,0.0,43.0
2585,58.0,240,240,0.0,43.0
2586,67.0,0,240,0.0,52.0
2587,63.0,0,240,0.0,52.0
2588,55.0,0,240,0.0,43.0
2589,65.0,240,300,0.0,57.0
2590,67.0,300,60,0.0,50.0
2591,68.0,60,60,0.0,52.0
2592,60.0,0,480,0.0,46.0
2593,65.0,60,60,0.0,50.0
2594,56.0,0,480,0.0,46.0
2595,72.0,60,120,0.0,56.0
2596,44.0,0,240,0.0,36.0
2597,53.0,0,240,0.0,36.0
2598,65.0,240,240,0.0,46.0
2599,60.0,0,240,0.0,46.0
2600,55.0,0,240,0.0,43.0
2601,63.0,240,240,0.0,49.0
2602,58.0,0,240,0.0,49.0
2603,56.0,240,240,0.0,36.0
2604,65.0,0,240,0.0,46.0
2605,62.0,0,240,0.0,46.0
2606,46.0,0,480,0.0,43.0
2607,65.0,0,360,0.0,54.0
2608,66.0,360,120,0.0,50.0
2609,62.0,240,480,0.0,54.0
2610,56.0,0,480,0.0,45.0
2611,51.0,0,600,0.0,45.0
2612,55.0,120,120,0.0,35.0
2613,63.0,120,120,0.0,52.0
2614,67.0,0,240,0.0,45.0
2615,67.0,0,120,0.0,54.0
2616,70.0,120,120,0.0,51.0
2617,82.0,120,240,0.0,76.0
2618,75.0,0,240,0.0,76.0
2619,68.0,120,120,0.0,57.0
2620,82.0,0,240,0.0,77.0
2621,77.0,0,240,0.0,77.0
2622,67.0,120,120,0.0,52.0
2623,65.0,120,120,0.0,54.0
2624,63.0,120,120,0.0,53.0
2625,82.0,0,240,0.0,76.0
2626,79.0,0,240,0.0,76.0
2627,62.0,120,120,0.0,63.0
2628,65.0,120,120,0.0,54.0
2629,82.0,0,300,0.0,81.0
2630,68.0,120,120,0.0,56.0
2631,84.0,60,60,0.0,73.0
2632,82.0,0,60,0.0,69.0
2633,67.0,60,120,0.0,54.0
2634,81.0,60,60,0.0,70.0
2635,82.0,0,120,0.0,78.0
2636,65.0,60,120,0.0,61.0
2637,63.0,120,120,0.0,54.0
2638,80.0,0,720,0.0,81.0
2639,62.0,0,120,0.0,56.0
2640,74.0,120,240,0.0,76.0
2641,60.0,120,120,0.0,54.0
2642,82.0,0,240,0.0,76.0
2643,58.0,0,120,0.0,56.0
2644,84.0,120,240,0.0,80.0
2645,75.0,0,240,0.0,80.0
2646,60.0,120,120,0.0,54.0
2647,56.0,0,120,0.0,56.0
2648,77.0,120,240,0.0,75.0
2649,58.0,120,120,0.0,53.0
2650,86.0,0,240,0.0,75.0
2651,55.0,120,120,0.0,61.0
2652,58.0,120,120,0.0,45.0
2653,87.0,0,300,0.0,86.0
2654,86.0,60,60,0.0,68.0
2655,60.0,120,120,0.0,49.0
2656,87.0,60,60,0.0,70.0
2657,62.0,0,120,0.0,45.0
2658,82.0,60,60,0.0,66.0
2659,63.0,60,120,0.0,46.0
2660,79.0,0,120,0.0,61.0
2661,75.0,0,720,0.0,86.0
2662,79.0,0,240,0.0,54.0
2663,63.0,240,240,0.0,43.0
2664,67.0,0,240,0.0,43.0
2665,82.0,0,240,0.0,54.0
2666,68.0,0,240,0.0,43.0
2667,65.0,0,240,0.0,43.0
2668,80.0,0,240,0.0,54.0
2669,77.0,240,240,0.0,54.0
2670,70.0,240,240,0.0,36.0
2671,67.0,0,240,0.0,36.0
2672,79.0,0,240,0.0,54.0
2673,75.0,0,240,0.0,54.0
2674,76.0,240,60,0.0,51.0
2675,77.0,60,60,0.0,50.0
2676,79.0,60,60,0.0,56.0
2677,72.0,0,240,0.0,43.0
2678,77.0,60,60,0.0,55.0
2679,68.0,0,240,0.0,43.0
2680,80.0,60,60,0.0,59.0
2681,79.0,60,60,0.0,58.0
2682,82.0,60,60,0.0,62.0
2683,80.0,60,60,0.0,60.0
2684,84.0,60,480,0.0,66.0
2685,82.0,0,240,0.0,59.0
2686,62.0,480,240,0.0,43.0
2687,65.0,240,240,0.0,43.0
2688,68.0,0,480,0.0,43.0
2689,58.0,0,480,0.0,43.0
2690,74.0,180,60,0.0,53.0
2691,63.0,60,120,0.0,43.0
2692,67.0,120,120,0.0,39.0
2693,70.0,120,120,0.0,40.0
2694,67.0,120,120,0.0,42.0
2695,75.0,0,480,0.0,56.0
2696,63.0,120,120,0.0,46.0
2697,67.0,120,120,0.0,44.0
2698,70.0,120,120,0.0,49.0
2699,67.0,120,120,0.0,50.0
2700,85.0,0,240,0.0,69.0
2701,68.0,120,120,0.0,58.0
2702,84.0,0,240,0.0,72.0
2703,65.0,120,120,0.0,55.0
2704,70.0,0,120,0.0,56.0
2705,68.0,120,120,0.0,58.0
2706,86.0,120,240,0.0,75.0
2707,67.0,120,120,0.0,62.0
2708,70.0,120,120,0.0,56.0
2709,89.0,0,240,0.0,81.0
2710,67.0,0,120,0.0,53.0
2711,87.0,120,240,0.0,78.0
2712,65.0,120,120,0.0,55.0
2713,63.0,120,120,0.0,70.0
2714,61.0,120,120,0.0,61.0
2715,58.0,0,120,0.0,64.0
2716,55.0,120,120,0.0,61.0
2717,73.0,120,240,0.0,72.0
2718,56.0,120,120,0.0,70.0
2719,53.0,120,120,0.0,64.0
2720,72.0,0,240,0.0,74.0
2721,58.0,0,120,0.0,70.0
2722,46.0,120,120,0.0,59.0
2723,74.0,120,240,0.0,69.0
2724,68.0,0,240,0.0,69.0
2725,68.0,0,480,0.0,54.0
2726,77.0,0,480,0.0,54.0
2727,67.0,0,240,0.0,42.0
2728,75.0,480,240,0.0,42.0
2729,51.0,120,720,0.0,46.0
2730,62.0,0,240,0.0,41.0
2731,65.0,240,240,0.0,41.0
2732,67.0,0,240,0.0,46.0
2733,63.0,240,240,0.0,46.0
2734,65.0,240,240,0.0,45.0
2735,68.0,0,240,0.0,45.0
2736,46.0,0,240,0.0,36.0
2737,62.0,240,960,0.0,34.0
2738,65.0,0,960,0.0,37.0
2739,68.0,0,960,0.0,37.0
2740,67.0,0,240,0.0,36.0
2741,39.0,0,1200,0.0,27.0
2742,51.0,0,1200,0.0,31.0
2743,63.0,960,240,0.0,36.0
