,note,step,duration,channel,velocity
0,45.0,0,60,7.0,100.0
1,45.0,60,60,7.0,100.0
2,45.0,60,60,7.0,100.0
3,76.0,0,240,7.0,100.0
4,45.0,60,60,7.0,100.0
5,45.0,0,60,7.0,100.0
6,45.0,60,60,7.0,100.0
7,73.0,0,420,7.0,100.0
8,69.0,60,180,7.0,100.0
9,45.0,60,60,7.0,100.0
10,74.0,60,60,7.0,100.0
11,71.0,0,60,7.0,100.0
12,45.0,0,60,7.0,100.0
13,78.0,60,60,7.0,100.0
14,74.0,0,60,7.0,100.0
15,45.0,0,60,7.0,100.0
16,76.0,60,60,7.0,100.0
17,73.0,0,60,7.0,100.0
18,45.0,0,60,7.0,100.0
19,74.0,60,30,7.0,100.0
20,71.0,0,30,7.0,100.0
21,45.0,0,60,7.0,100.0
22,73.0,60,30,7.0,100.0
23,69.0,0,30,7.0,100.0
24,45.0,0,60,7.0,100.0
25,45.0,0,60,7.0,100.0
26,73.0,60,120,7.0,100.0
27,69.0,0,120,7.0,100.0
28,45.0,60,60,7.0,100.0
29,45.0,60,60,7.0,100.0
30,57.0,0,960,7.0,100.0
31,45.0,60,60,7.0,100.0
32,74.0,60,120,7.0,100.0
33,66.0,0,120,7.0,100.0
34,59.0,0,120,7.0,100.0
35,50.0,0,120,7.0,100.0
36,38.0,0,120,7.0,100.0
37,71.0,120,60,7.0,100.0
38,62.0,0,60,7.0,100.0
39,74.0,120,120,7.0,100.0
40,66.0,0,120,7.0,100.0
41,59.0,0,120,7.0,100.0
42,50.0,0,120,7.0,100.0
43,38.0,0,120,7.0,100.0
44,71.0,120,60,7.0,100.0
45,62.0,0,60,7.0,100.0
46,40.0,60,60,7.0,100.0
47,40.0,60,60,7.0,100.0
48,69.0,120,240,7.0,100.0
49,61.0,0,240,7.0,100.0
50,40.0,60,60,7.0,100.0
51,68.0,60,60,7.0,100.0
52,59.0,0,60,7.0,100.0
53,52.0,0,300,7.0,100.0
54,40.0,0,60,7.0,100.0
55,64.0,60,60,7.0,100.0
56,52.0,0,60,7.0,100.0
57,63.0,60,60,7.0,100.0
58,51.0,0,60,7.0,100.0
59,62.0,60,60,7.0,100.0
60,50.0,0,60,7.0,100.0
61,61.0,0,60,7.0,100.0
62,49.0,0,60,7.0,100.0
63,61.0,60,60,7.0,100.0
64,49.0,0,60,7.0,100.0
65,61.0,60,60,7.0,100.0
66,49.0,0,60,7.0,100.0
67,61.0,60,60,7.0,100.0
68,49.0,0,60,7.0,100.0
69,69.0,60,300,7.0,100.0
70,62.0,60,60,7.0,100.0
71,59.0,0,60,7.0,100.0
72,47.0,0,60,7.0,100.0
73,68.0,60,60,7.0,100.0
74,62.0,0,60,7.0,100.0
75,59.0,0,60,7.0,100.0
76,47.0,0,60,7.0,100.0
77,69.0,60,60,7.0,100.0
78,61.0,0,60,7.0,100.0
79,57.0,0,60,7.0,100.0
80,45.0,0,60,7.0,100.0
81,66.0,60,60,7.0,100.0
82,61.0,0,60,7.0,100.0
83,57.0,0,60,7.0,100.0
84,45.0,0,60,7.0,100.0
85,59.0,60,60,7.0,100.0
86,56.0,0,60,7.0,100.0
87,44.0,0,60,7.0,100.0
88,74.0,60,60,7.0,100.0
89,59.0,0,60,7.0,100.0
90,56.0,0,60,7.0,100.0
91,44.0,0,60,7.0,100.0
92,57.0,0,60,7.0,100.0
93,54.0,0,60,7.0,100.0
94,42.0,0,60,7.0,100.0
95,57.0,60,60,7.0,100.0
96,54.0,0,60,7.0,100.0
97,42.0,0,60,7.0,100.0
98,74.0,60,180,7.0,100.0
99,56.0,60,60,7.0,100.0
100,52.0,0,60,7.0,100.0
101,40.0,0,60,7.0,100.0
102,73.0,60,60,7.0,100.0
103,56.0,0,60,7.0,100.0
104,52.0,0,60,7.0,100.0
105,40.0,0,60,7.0,100.0
106,74.0,60,60,7.0,100.0
107,68.0,0,60,7.0,100.0
108,50.0,0,60,7.0,100.0
109,38.0,0,60,7.0,100.0
110,71.0,60,60,7.0,100.0
111,68.0,0,60,7.0,100.0
112,64.0,0,960,7.0,100.0
113,50.0,0,60,7.0,100.0
114,38.0,0,60,7.0,100.0
115,76.0,60,60,7.0,100.0
116,69.0,0,60,7.0,100.0
117,81.0,60,60,7.0,100.0
118,49.0,0,120,7.0,100.0
119,37.0,0,120,7.0,100.0
120,80.0,60,60,7.0,100.0
121,62.0,0,60,7.0,100.0
122,74.0,60,60,7.0,100.0
123,68.0,0,60,7.0,100.0
124,47.0,0,120,7.0,100.0
125,35.0,0,120,7.0,100.0
126,73.0,60,60,7.0,100.0
127,69.0,0,60,7.0,100.0
128,64.0,0,300,7.0,100.0
129,76.0,60,60,7.0,100.0
130,61.0,0,60,7.0,100.0
131,45.0,0,120,7.0,100.0
132,33.0,0,120,7.0,100.0
133,71.0,60,60,7.0,100.0
134,66.0,0,60,7.0,100.0
135,78.0,60,60,7.0,100.0
136,62.0,0,120,7.0,100.0
137,54.0,0,60,7.0,100.0
138,50.0,0,120,7.0,100.0
139,38.0,0,120,7.0,100.0
140,52.0,0,60,7.0,100.0
141,40.0,0,60,7.0,100.0
142,51.0,60,60,7.0,100.0
143,39.0,0,60,7.0,100.0
144,69.0,60,180,7.0,100.0
145,61.0,0,180,7.0,100.0
146,52.0,60,60,7.0,100.0
147,40.0,0,60,7.0,100.0
148,71.0,60,30,7.0,100.0
149,62.0,0,30,7.0,100.0
150,69.0,30,30,7.0,100.0
151,61.0,0,30,7.0,100.0
152,51.0,0,60,7.0,100.0
153,39.0,0,60,7.0,100.0
154,68.0,30,30,7.0,100.0
155,59.0,0,30,7.0,100.0
156,71.0,60,60,4.0,80.0
157,68.0,0,60,4.0,80.0
158,59.0,0,60,5.0,80.0
159,56.0,0,60,5.0,80.0
160,71.0,0,60,7.0,100.0
161,68.0,0,60,7.0,100.0
162,52.0,0,120,7.0,100.0
163,40.0,0,120,7.0,100.0
164,73.0,60,60,4.0,80.0
165,69.0,0,60,4.0,80.0
166,61.0,0,60,5.0,80.0
167,57.0,0,60,5.0,80.0
168,73.0,0,60,7.0,100.0
169,69.0,0,60,7.0,100.0
170,74.0,60,60,4.0,80.0
171,71.0,0,60,4.0,80.0
172,62.0,0,60,5.0,80.0
173,59.0,0,60,5.0,80.0
174,74.0,0,60,7.0,100.0
175,71.0,0,60,7.0,100.0
176,69.0,0,60,7.0,100.0
177,57.0,0,60,7.0,100.0
178,45.0,0,60,7.0,100.0
179,69.0,60,60,7.0,100.0
180,57.0,0,60,7.0,100.0
181,45.0,0,60,7.0,100.0
182,69.0,60,60,7.0,100.0
183,57.0,0,60,7.0,100.0
184,45.0,0,60,7.0,100.0
185,76.0,60,240,4.0,80.0
186,85.0,0,240,4.0,80.0
187,64.0,0,240,5.0,80.0
188,57.0,0,240,6.0,80.0
189,45.0,0,240,6.0,80.0
190,76.0,0,240,7.0,100.0
191,57.0,0,60,7.0,100.0
192,45.0,0,60,7.0,100.0
193,57.0,0,60,7.0,100.0
194,45.0,0,60,7.0,100.0
195,57.0,60,60,7.0,100.0
196,45.0,0,60,7.0,100.0
197,73.0,60,180,4.0,80.0
198,81.0,0,180,4.0,80.0
199,61.0,0,420,5.0,80.0
200,57.0,0,180,5.0,80.0
201,57.0,0,180,6.0,80.0
202,45.0,0,180,6.0,80.0
203,73.0,0,420,7.0,100.0
204,69.0,60,240,7.0,100.0
205,57.0,60,60,7.0,100.0
206,45.0,0,60,7.0,100.0
207,74.0,60,60,4.0,80.0
208,83.0,0,60,4.0,80.0
209,62.0,0,60,5.0,80.0
210,59.0,0,60,5.0,80.0
211,57.0,0,60,6.0,80.0
212,45.0,0,60,6.0,80.0
213,74.0,0,60,7.0,100.0
214,71.0,0,60,7.0,100.0
215,69.0,0,60,7.0,100.0
216,57.0,0,60,7.0,100.0
217,45.0,0,60,7.0,100.0
218,78.0,60,60,4.0,80.0
219,86.0,0,60,4.0,80.0
220,66.0,0,60,5.0,80.0
221,62.0,0,60,5.0,80.0
222,78.0,0,60,7.0,100.0
223,74.0,0,60,7.0,100.0
224,69.0,0,60,7.0,100.0
225,57.0,0,60,7.0,100.0
226,45.0,0,60,7.0,100.0
227,76.0,60,60,4.0,80.0
228,85.0,0,60,4.0,80.0
229,64.0,0,60,5.0,80.0
230,61.0,0,60,5.0,80.0
231,57.0,0,120,6.0,80.0
232,45.0,0,120,6.0,80.0
233,76.0,0,60,7.0,100.0
234,73.0,0,60,7.0,100.0
235,69.0,0,60,7.0,100.0
236,57.0,0,60,7.0,100.0
237,45.0,0,60,7.0,100.0
238,74.0,60,30,4.0,80.0
239,83.0,0,30,4.0,80.0
240,62.0,0,30,5.0,80.0
241,59.0,0,30,5.0,80.0
242,74.0,0,30,7.0,100.0
243,71.0,0,30,7.0,100.0
244,57.0,0,60,7.0,100.0
245,45.0,0,60,7.0,100.0
246,73.0,60,30,4.0,80.0
247,81.0,0,30,4.0,80.0
248,61.0,0,30,5.0,80.0
249,73.0,0,30,7.0,100.0
250,57.0,0,60,5.0,80.0
251,57.0,0,120,6.0,80.0
252,45.0,0,120,6.0,80.0
253,57.0,0,60,7.0,100.0
254,45.0,0,60,7.0,100.0
255,57.0,0,60,7.0,100.0
256,45.0,0,60,7.0,100.0
257,73.0,60,120,4.0,80.0
258,81.0,0,120,4.0,80.0
259,61.0,0,120,5.0,80.0
260,57.0,0,120,5.0,80.0
261,57.0,0,120,6.0,80.0
262,45.0,0,120,6.0,80.0
263,73.0,0,120,7.0,100.0
264,69.0,0,240,7.0,100.0
265,57.0,60,60,7.0,100.0
266,45.0,0,60,7.0,100.0
267,69.0,60,60,7.0,100.0
268,57.0,0,60,7.0,100.0
269,45.0,0,60,7.0,100.0
270,69.0,60,60,7.0,100.0
271,57.0,0,60,7.0,100.0
272,45.0,0,60,7.0,100.0
273,74.0,60,120,4.0,80.0
274,78.0,0,120,4.0,80.0
275,74.0,0,120,7.0,100.0
276,66.0,0,120,7.0,100.0
277,59.0,0,120,7.0,100.0
278,50.0,0,120,7.0,100.0
279,38.0,0,120,7.0,100.0
280,71.0,120,60,4.0,80.0
281,74.0,0,60,4.0,80.0
282,71.0,0,60,7.0,100.0
283,62.0,0,60,7.0,100.0
284,74.0,120,120,4.0,80.0
285,78.0,0,120,4.0,80.0
286,74.0,0,120,7.0,100.0
287,66.0,0,120,7.0,100.0
288,59.0,0,120,7.0,100.0
289,50.0,0,120,7.0,100.0
290,38.0,0,120,7.0,100.0
291,71.0,120,60,4.0,80.0
292,74.0,0,60,4.0,80.0
293,71.0,0,60,7.0,100.0
294,62.0,0,60,7.0,100.0
295,40.0,60,60,7.0,100.0
296,40.0,60,60,7.0,100.0
297,69.0,120,240,4.0,80.0
298,73.0,0,240,4.0,80.0
299,69.0,0,240,7.0,100.0
300,61.0,0,240,7.0,100.0
301,40.0,60,60,7.0,100.0
302,68.0,60,60,4.0,80.0
303,71.0,0,60,4.0,80.0
304,52.0,0,300,6.0,80.0
305,68.0,0,60,7.0,100.0
306,59.0,0,60,7.0,100.0
307,52.0,0,300,7.0,100.0
308,40.0,0,60,7.0,100.0
309,64.0,60,60,7.0,100.0
310,52.0,0,60,7.0,100.0
311,63.0,60,60,7.0,100.0
312,51.0,0,60,7.0,100.0
313,62.0,60,60,7.0,100.0
314,50.0,0,60,7.0,100.0
315,64.0,0,60,7.0,100.0
316,61.0,0,60,7.0,100.0
317,49.0,0,60,7.0,100.0
318,57.0,0,120,6.0,80.0
319,45.0,0,120,6.0,80.0
320,64.0,60,60,7.0,100.0
321,61.0,0,60,7.0,100.0
322,49.0,0,60,7.0,100.0
323,81.0,0,150,7.0,100.0
324,69.0,0,150,7.0,100.0
325,85.0,30,30,7.0,100.0
326,73.0,0,30,7.0,100.0
327,64.0,60,60,7.0,100.0
328,61.0,0,60,7.0,100.0
329,49.0,0,60,7.0,100.0
330,83.0,30,30,7.0,100.0
331,71.0,0,30,7.0,100.0
332,69.0,60,240,4.0,80.0
333,64.0,0,240,5.0,80.0
334,61.0,0,240,5.0,80.0
335,81.0,30,30,7.0,100.0
336,69.0,0,30,7.0,100.0
337,64.0,0,60,7.0,100.0
338,61.0,0,60,7.0,100.0
339,49.0,0,60,7.0,100.0
340,80.0,0,30,7.0,100.0
341,68.0,0,30,7.0,100.0
342,83.0,30,30,7.0,100.0
343,71.0,0,30,7.0,100.0
344,62.0,0,60,7.0,100.0
345,59.0,0,60,7.0,100.0
346,47.0,0,60,7.0,100.0
347,81.0,30,30,7.0,100.0
348,69.0,0,30,7.0,100.0
349,68.0,30,120,4.0,80.0
350,62.0,0,120,5.0,80.0
351,59.0,0,120,5.0,80.0
352,80.0,30,30,7.0,100.0
353,68.0,0,30,7.0,100.0
354,62.0,0,60,7.0,100.0
355,59.0,0,60,7.0,100.0
356,47.0,0,60,7.0,100.0
357,78.0,0,30,7.0,100.0
358,66.0,0,30,7.0,100.0
359,81.0,30,30,7.0,100.0
360,69.0,0,30,7.0,100.0
361,61.0,0,60,7.0,100.0
362,57.0,0,60,7.0,100.0
363,45.0,0,60,7.0,100.0
364,80.0,30,30,7.0,100.0
365,68.0,0,30,7.0,100.0
366,66.0,30,120,4.0,80.0
367,61.0,0,120,5.0,80.0
368,57.0,0,120,5.0,80.0
369,78.0,30,30,7.0,100.0
370,66.0,0,30,7.0,100.0
371,61.0,0,60,7.0,100.0
372,57.0,0,60,7.0,100.0
373,45.0,0,60,7.0,100.0
374,59.0,0,60,7.0,100.0
375,56.0,0,60,7.0,100.0
376,44.0,0,60,7.0,100.0
377,64.0,30,120,4.0,80.0
378,59.0,0,120,5.0,80.0
379,56.0,0,120,5.0,80.0
380,64.0,0,120,6.0,80.0
381,52.0,0,120,6.0,80.0
382,76.0,0,120,7.0,100.0
383,64.0,0,120,7.0,100.0
384,59.0,60,60,7.0,100.0
385,56.0,0,60,7.0,100.0
386,44.0,0,60,7.0,100.0
387,74.0,0,30,7.0,100.0
388,62.0,0,30,7.0,100.0
389,78.0,30,30,7.0,100.0
390,66.0,0,30,7.0,100.0
391,57.0,0,60,7.0,100.0
392,54.0,0,60,7.0,100.0
393,42.0,0,60,7.0,100.0
394,76.0,30,30,7.0,100.0
395,64.0,0,30,7.0,100.0
396,86.0,60,120,4.0,80.0
397,57.0,0,120,5.0,80.0
398,54.0,0,120,5.0,80.0
399,74.0,30,30,7.0,100.0
400,62.0,0,30,7.0,100.0
401,57.0,0,60,7.0,100.0
402,54.0,0,60,7.0,100.0
403,42.0,0,60,7.0,100.0
404,73.0,0,30,7.0,100.0
405,61.0,0,30,7.0,100.0
406,76.0,30,30,7.0,100.0
407,64.0,0,30,7.0,100.0
408,56.0,0,60,7.0,100.0
409,52.0,0,60,7.0,100.0
410,40.0,0,60,7.0,100.0
411,74.0,30,30,7.0,100.0
412,62.0,0,30,7.0,100.0
413,85.0,30,120,4.0,80.0
414,56.0,0,120,5.0,80.0
415,52.0,0,120,5.0,80.0
416,73.0,30,30,7.0,100.0
417,61.0,0,30,7.0,100.0
418,56.0,0,60,7.0,100.0
419,52.0,0,60,7.0,100.0
420,40.0,0,60,7.0,100.0
421,71.0,0,30,7.0,100.0
422,59.0,0,30,7.0,100.0
423,74.0,30,30,7.0,100.0
424,62.0,0,30,7.0,100.0
425,54.0,0,60,7.0,100.0
426,50.0,0,60,7.0,100.0
427,38.0,0,60,7.0,100.0
428,73.0,30,30,7.0,100.0
429,61.0,0,30,7.0,100.0
430,83.0,30,120,4.0,80.0
431,54.0,0,120,5.0,80.0
432,50.0,0,120,5.0,80.0
433,71.0,30,30,7.0,100.0
434,59.0,0,30,7.0,100.0
435,54.0,0,60,7.0,100.0
436,50.0,0,60,7.0,100.0
437,38.0,0,60,7.0,100.0
438,52.0,0,60,5.0,80.0
439,49.0,0,60,5.0,80.0
440,52.0,0,60,7.0,100.0
441,49.0,0,60,7.0,100.0
442,37.0,0,60,7.0,100.0
443,88.0,30,120,4.0,80.0
444,69.0,0,120,7.0,100.0
445,57.0,0,120,7.0,100.0
446,52.0,60,60,7.0,100.0
447,49.0,0,60,7.0,100.0
448,37.0,0,60,7.0,100.0
449,61.0,0,60,7.0,100.0
450,54.0,0,60,7.0,100.0
451,42.0,0,60,7.0,100.0
452,81.0,0,90,7.0,100.0
453,85.0,60,120,4.0,80.0
454,54.0,0,120,5.0,80.0
455,61.0,0,120,6.0,80.0
456,83.0,30,30,7.0,100.0
457,81.0,0,30,7.0,100.0
458,61.0,60,60,7.0,100.0
459,54.0,0,60,7.0,100.0
460,42.0,0,60,7.0,100.0
461,83.0,0,15,7.0,100.0
462,85.0,15,15,7.0,100.0
463,81.0,0,30,7.0,100.0
464,83.0,15,15,7.0,100.0
465,85.0,15,15,7.0,100.0
466,81.0,0,30,7.0,100.0
467,66.0,0,60,7.0,100.0
468,50.0,0,60,7.0,100.0
469,38.0,0,60,7.0,100.0
470,83.0,15,15,7.0,100.0
471,85.0,15,15,7.0,100.0
472,81.0,0,30,7.0,100.0
473,83.0,15,15,7.0,100.0
474,81.0,0,360,4.0,80.0
475,50.0,0,120,5.0,80.0
476,57.0,0,240,6.0,80.0
477,85.0,15,15,7.0,100.0
478,81.0,0,30,7.0,100.0
479,66.0,0,60,7.0,100.0
480,50.0,0,60,7.0,100.0
481,38.0,0,60,7.0,100.0
482,83.0,0,15,7.0,100.0
483,85.0,15,15,7.0,100.0
484,80.0,0,30,7.0,100.0
485,83.0,15,15,7.0,100.0
486,85.0,15,15,7.0,100.0
487,80.0,0,30,7.0,100.0
488,64.0,0,60,7.0,100.0
489,52.0,0,60,7.0,100.0
490,40.0,0,60,7.0,100.0
491,81.0,15,30,7.0,100.0
492,80.0,0,30,7.0,100.0
493,83.0,30,240,4.0,80.0
494,80.0,15,120,4.0,80.0
495,52.0,0,120,5.0,80.0
496,59.0,0,240,6.0,80.0
497,64.0,0,120,6.0,80.0
498,83.0,30,30,7.0,100.0
499,80.0,0,30,7.0,100.0
500,62.0,0,60,7.0,100.0
501,52.0,0,60,7.0,100.0
502,40.0,0,60,7.0,100.0
503,57.0,0,60,5.0,80.0
504,57.0,0,60,7.0,100.0
505,45.0,0,60,7.0,100.0
506,61.0,0,90,7.0,100.0
507,81.0,30,120,4.0,80.0
508,52.0,60,60,5.0,80.0
509,57.0,0,120,6.0,80.0
510,49.0,0,120,6.0,80.0
511,81.0,0,120,7.0,100.0
512,52.0,0,60,7.0,100.0
513,40.0,0,60,7.0,100.0
514,61.0,0,30,7.0,100.0
515,57.0,60,60,5.0,80.0
516,64.0,0,120,7.0,100.0
517,57.0,0,60,7.0,100.0
518,45.0,0,60,7.0,100.0
519,85.0,0,30,7.0,100.0
520,61.0,0,30,7.0,100.0
521,52.0,60,60,5.0,80.0
522,57.0,0,60,6.0,80.0
523,49.0,0,60,6.0,80.0
524,81.0,30,30,7.0,100.0
525,52.0,0,60,7.0,100.0
526,40.0,0,60,7.0,100.0
527,76.0,0,30,7.0,100.0
528,61.0,0,30,7.0,100.0
529,57.0,30,60,5.0,80.0
530,57.0,0,60,6.0,80.0
531,49.0,0,60,6.0,80.0
532,64.0,0,120,7.0,100.0
533,57.0,0,60,7.0,100.0
534,45.0,0,60,7.0,100.0
535,76.0,0,30,7.0,100.0
536,61.0,0,30,7.0,100.0
537,52.0,60,60,5.0,80.0
538,57.0,0,60,6.0,80.0
539,49.0,0,60,6.0,80.0
540,52.0,0,60,7.0,100.0
541,40.0,0,60,7.0,100.0
542,76.0,0,30,7.0,100.0
543,61.0,0,30,7.0,100.0
544,57.0,60,60,5.0,80.0
545,57.0,0,60,6.0,80.0
546,49.0,0,60,6.0,80.0
547,64.0,0,120,7.0,100.0
548,57.0,0,60,7.0,100.0
549,45.0,0,60,7.0,100.0
550,76.0,0,30,7.0,100.0
551,61.0,0,30,7.0,100.0
552,52.0,60,60,5.0,80.0
553,57.0,0,60,6.0,80.0
554,49.0,0,60,6.0,80.0
555,52.0,0,60,7.0,100.0
556,40.0,0,60,7.0,100.0
557,59.0,0,30,7.0,100.0
558,56.0,0,60,5.0,80.0
559,76.0,0,60,7.0,100.0
560,64.0,0,120,7.0,100.0
561,56.0,0,60,7.0,100.0
562,44.0,0,60,7.0,100.0
563,59.0,0,30,7.0,100.0
564,52.0,60,60,5.0,80.0
565,59.0,0,120,6.0,80.0
566,52.0,0,120,6.0,80.0
567,86.0,0,60,7.0,100.0
568,52.0,0,60,7.0,100.0
569,40.0,0,60,7.0,100.0
570,59.0,0,30,7.0,100.0
571,56.0,60,60,5.0,80.0
572,64.0,0,120,7.0,100.0
573,56.0,0,60,7.0,100.0
574,44.0,0,60,7.0,100.0
575,59.0,0,30,7.0,100.0
576,74.0,60,240,4.0,80.0
577,52.0,60,60,5.0,80.0
578,52.0,0,60,7.0,100.0
579,40.0,0,60,7.0,100.0
580,59.0,0,60,5.0,80.0
581,86.0,0,180,7.0,100.0
582,64.0,0,120,7.0,100.0
583,47.0,0,60,7.0,100.0
584,85.0,0,30,7.0,100.0
585,59.0,0,90,7.0,100.0
586,71.0,0,360,4.0,80.0
587,68.0,60,120,4.0,80.0
588,52.0,60,60,5.0,80.0
589,59.0,0,240,6.0,80.0
590,52.0,0,240,6.0,80.0
591,83.0,30,30,7.0,100.0
592,52.0,0,60,7.0,100.0
593,40.0,0,60,7.0,100.0
594,85.0,0,30,7.0,100.0
595,59.0,0,30,7.0,100.0
596,62.0,0,60,5.0,80.0
597,83.0,30,30,7.0,100.0
598,64.0,0,120,7.0,100.0
599,62.0,0,60,7.0,100.0
600,50.0,0,60,7.0,100.0
601,81.0,0,30,7.0,100.0
602,59.0,0,30,7.0,100.0
603,80.0,30,120,4.0,80.0
604,76.0,0,120,4.0,80.0
605,52.0,30,60,5.0,80.0
606,59.0,0,120,6.0,80.0
607,52.0,0,120,6.0,80.0
608,80.0,30,30,7.0,100.0
609,52.0,0,60,7.0,100.0
610,40.0,0,60,7.0,100.0
611,57.0,0,30,7.0,100.0
612,61.0,0,60,5.0,80.0
613,83.0,0,60,7.0,100.0
614,64.0,0,120,7.0,100.0
615,61.0,0,60,7.0,100.0
616,49.0,0,60,7.0,100.0
617,57.0,0,30,7.0,100.0
618,81.0,30,120,4.0,80.0
619,76.0,0,120,4.0,80.0
620,52.0,60,60,5.0,80.0
621,61.0,0,120,6.0,80.0
622,57.0,0,120,6.0,80.0
623,81.0,0,60,7.0,100.0
624,52.0,0,60,7.0,100.0
625,40.0,0,60,7.0,100.0
626,57.0,0,30,7.0,100.0
627,61.0,60,60,5.0,80.0
628,64.0,0,120,7.0,100.0
629,61.0,0,60,7.0,100.0
630,49.0,0,60,7.0,100.0
631,85.0,0,30,7.0,100.0
632,57.0,0,30,7.0,100.0
633,52.0,60,60,5.0,80.0
634,57.0,0,60,6.0,80.0
635,49.0,0,60,6.0,80.0
636,81.0,30,30,7.0,100.0
637,52.0,0,60,7.0,100.0
638,40.0,0,60,7.0,100.0
639,76.0,0,30,7.0,100.0
640,61.0,0,30,7.0,100.0
641,57.0,30,60,5.0,80.0
642,57.0,0,60,6.0,80.0
643,49.0,0,60,6.0,80.0
644,64.0,0,120,7.0,100.0
645,57.0,0,60,7.0,100.0
646,45.0,0,60,7.0,100.0
647,76.0,0,30,7.0,100.0
648,61.0,0,30,7.0,100.0
649,52.0,60,60,5.0,80.0
650,57.0,0,60,6.0,80.0
651,49.0,0,60,6.0,80.0
652,52.0,0,60,7.0,100.0
653,40.0,0,60,7.0,100.0
654,76.0,0,30,7.0,100.0
655,61.0,0,30,7.0,100.0
656,57.0,60,60,5.0,80.0
657,57.0,0,60,6.0,80.0
658,49.0,0,60,6.0,80.0
659,64.0,0,120,7.0,100.0
660,57.0,0,60,7.0,100.0
661,45.0,0,60,7.0,100.0
662,76.0,0,30,7.0,100.0
663,61.0,0,30,7.0,100.0
664,52.0,60,60,5.0,80.0
665,57.0,0,60,6.0,80.0
666,49.0,0,60,6.0,80.0
667,52.0,0,60,7.0,100.0
668,40.0,0,60,7.0,100.0
669,59.0,0,30,7.0,100.0
670,56.0,0,60,5.0,80.0
671,76.0,0,60,7.0,100.0
672,64.0,0,120,7.0,100.0
673,56.0,0,60,7.0,100.0
674,44.0,0,60,7.0,100.0
675,59.0,0,30,7.0,100.0
676,52.0,60,60,5.0,80.0
677,59.0,0,120,6.0,80.0
678,52.0,0,120,6.0,80.0
679,86.0,0,60,7.0,100.0
680,52.0,0,60,7.0,100.0
681,40.0,0,60,7.0,100.0
682,59.0,0,30,7.0,100.0
683,56.0,60,60,5.0,80.0
684,64.0,0,120,7.0,100.0
685,56.0,0,60,7.0,100.0
686,44.0,0,60,7.0,100.0
687,59.0,0,30,7.0,100.0
688,86.0,60,240,4.0,80.0
689,52.0,60,60,5.0,80.0
690,52.0,0,60,7.0,100.0
691,40.0,0,60,7.0,100.0
692,59.0,0,60,5.0,80.0
693,86.0,0,180,7.0,100.0
694,64.0,0,120,7.0,100.0
695,47.0,0,60,7.0,100.0
696,85.0,0,30,7.0,100.0
697,59.0,0,90,7.0,100.0
698,83.0,0,360,4.0,80.0
699,52.0,60,60,5.0,80.0
700,59.0,0,240,6.0,80.0
701,52.0,0,240,6.0,80.0
702,83.0,30,30,7.0,100.0
703,52.0,0,60,7.0,100.0
704,40.0,0,60,7.0,100.0
705,85.0,0,30,7.0,100.0
706,59.0,0,30,7.0,100.0
707,62.0,0,60,5.0,80.0
708,83.0,30,30,7.0,100.0
709,64.0,0,120,7.0,100.0
710,62.0,0,60,7.0,100.0
711,50.0,0,60,7.0,100.0
712,81.0,0,30,7.0,100.0
713,59.0,0,30,7.0,100.0
714,80.0,60,240,4.0,80.0
715,76.0,30,120,4.0,80.0
716,52.0,30,60,5.0,80.0
717,59.0,0,120,6.0,80.0
718,52.0,0,120,6.0,80.0
719,80.0,30,30,7.0,100.0
720,64.0,0,60,7.0,100.0
721,52.0,0,60,7.0,100.0
722,40.0,0,60,7.0,100.0
723,81.0,30,30,4.0,80.0
724,81.0,0,30,7.0,100.0
725,80.0,30,30,4.0,80.0
726,80.0,0,30,7.0,100.0
727,83.0,30,30,4.0,80.0
728,83.0,0,30,7.0,100.0
729,81.0,30,30,4.0,80.0
730,61.0,0,120,5.0,80.0
731,61.0,0,120,6.0,80.0
732,57.0,0,120,6.0,80.0
733,81.0,0,30,7.0,100.0
734,57.0,0,120,7.0,100.0
735,64.0,0,120,7.0,100.0
736,61.0,0,120,7.0,100.0
737,49.0,0,120,7.0,100.0
738,85.0,30,30,4.0,80.0
739,85.0,0,30,7.0,100.0
740,83.0,30,30,4.0,80.0
741,83.0,0,30,7.0,100.0
742,81.0,30,30,4.0,80.0
743,81.0,0,30,7.0,100.0
744,80.0,30,30,4.0,80.0
745,61.0,0,60,5.0,80.0
746,57.0,0,60,6.0,80.0
747,45.0,0,60,6.0,80.0
748,80.0,0,30,7.0,100.0
749,64.0,0,60,7.0,100.0
750,61.0,0,60,7.0,100.0
751,49.0,0,60,7.0,100.0
752,78.0,30,30,4.0,80.0
753,78.0,0,30,7.0,100.0
754,77.0,30,30,4.0,80.0
755,77.0,0,30,7.0,100.0
756,80.0,30,30,4.0,80.0
757,80.0,0,30,7.0,100.0
758,78.0,30,30,4.0,80.0
759,62.0,0,120,5.0,80.0
760,57.0,0,120,6.0,80.0
761,45.0,0,120,6.0,80.0
762,78.0,0,30,7.0,100.0
763,62.0,0,120,7.0,100.0
764,50.0,0,120,7.0,100.0
765,81.0,30,60,4.0,80.0
766,81.0,0,60,7.0,100.0
767,61.0,60,60,5.0,80.0
768,57.0,0,60,6.0,80.0
769,45.0,0,60,6.0,80.0
770,69.0,0,60,7.0,100.0
771,61.0,0,60,7.0,100.0
772,49.0,0,60,7.0,100.0
773,78.0,60,30,4.0,80.0
774,78.0,0,30,7.0,100.0
775,77.0,30,30,4.0,80.0
776,77.0,0,30,7.0,100.0
777,80.0,30,30,4.0,80.0
778,80.0,0,30,7.0,100.0
779,78.0,30,30,4.0,80.0
780,62.0,0,120,5.0,80.0
781,57.0,0,120,6.0,80.0
782,45.0,0,120,6.0,80.0
783,78.0,0,30,7.0,100.0
784,69.0,0,120,7.0,100.0
785,62.0,0,120,7.0,100.0
786,50.0,0,120,7.0,100.0
787,81.0,30,30,4.0,80.0
788,81.0,0,30,7.0,100.0
789,79.0,30,30,4.0,80.0
790,79.0,0,30,7.0,100.0
791,78.0,30,30,4.0,80.0
792,78.0,0,30,7.0,100.0
793,76.0,30,30,4.0,80.0
794,58.0,0,60,5.0,80.0
795,76.0,0,30,7.0,100.0
796,61.0,0,60,7.0,100.0
797,58.0,0,60,7.0,100.0
798,46.0,0,60,7.0,100.0
799,74.0,30,30,4.0,80.0
800,74.0,0,30,7.0,100.0
801,73.0,30,30,4.0,80.0
802,73.0,0,30,7.0,100.0
803,76.0,30,30,4.0,80.0
804,76.0,0,30,7.0,100.0
805,74.0,30,30,4.0,80.0
806,59.0,0,120,5.0,80.0
807,74.0,0,30,7.0,100.0
808,59.0,0,120,7.0,100.0
809,47.0,0,120,7.0,100.0
810,78.0,30,60,4.0,80.0
811,78.0,0,60,7.0,100.0
812,58.0,60,60,5.0,80.0
813,58.0,0,60,7.0,100.0
814,46.0,0,60,7.0,100.0
815,86.0,60,30,4.0,80.0
816,74.0,0,30,7.0,100.0
817,85.0,30,30,4.0,80.0
818,73.0,0,30,7.0,100.0
819,88.0,30,30,4.0,80.0
820,76.0,0,30,7.0,100.0
821,86.0,30,30,4.0,80.0
822,59.0,0,120,5.0,80.0
823,74.0,0,30,7.0,100.0
824,66.0,0,180,7.0,100.0
825,59.0,0,120,7.0,100.0
826,47.0,0,120,7.0,100.0
827,90.0,30,30,4.0,80.0
828,78.0,0,30,7.0,100.0
829,88.0,30,30,4.0,80.0
830,76.0,0,30,7.0,100.0
831,86.0,30,30,4.0,80.0
832,74.0,0,30,7.0,100.0
833,85.0,30,30,4.0,80.0
834,54.0,0,60,5.0,80.0
835,73.0,0,30,7.0,100.0
836,54.0,0,60,7.0,100.0
837,42.0,0,60,7.0,100.0
838,83.0,30,30,4.0,80.0
839,71.0,0,30,7.0,100.0
840,82.0,30,30,4.0,80.0
841,70.0,0,30,7.0,100.0
842,85.0,30,30,4.0,80.0
843,73.0,0,30,7.0,100.0
844,83.0,30,30,4.0,80.0
845,50.0,0,120,5.0,80.0
846,71.0,0,30,7.0,100.0
847,66.0,0,180,7.0,100.0
848,50.0,0,120,7.0,100.0
849,38.0,0,120,7.0,100.0
850,86.0,30,30,4.0,80.0
851,74.0,0,30,7.0,100.0
852,85.0,30,30,4.0,80.0
853,73.0,0,30,7.0,100.0
854,83.0,30,30,4.0,80.0
855,71.0,0,30,7.0,100.0
856,81.0,30,30,4.0,80.0
857,51.0,0,60,5.0,80.0
858,69.0,0,30,7.0,100.0
859,66.0,0,60,7.0,100.0
860,51.0,0,60,7.0,100.0
861,39.0,0,60,7.0,100.0
862,68.0,0,30,7.0,100.0
863,64.0,30,30,7.0,100.0
864,66.0,30,30,7.0,100.0
865,80.0,30,120,4.0,80.0
866,52.0,0,120,5.0,80.0
867,52.0,0,120,6.0,80.0
868,68.0,30,30,7.0,100.0
869,59.0,0,120,7.0,100.0
870,52.0,0,120,7.0,100.0
871,40.0,0,120,7.0,100.0
872,69.0,30,30,7.0,100.0
873,47.0,30,30,5.0,80.0
874,71.0,0,30,7.0,100.0
875,59.0,0,30,7.0,100.0
876,47.0,0,30,7.0,100.0
877,35.0,0,30,7.0,100.0
878,49.0,0,30,5.0,80.0
879,73.0,0,30,7.0,100.0
880,61.0,0,30,7.0,100.0
881,49.0,0,30,7.0,100.0
882,37.0,0,30,7.0,100.0
883,88.0,30,60,4.0,80.0
884,80.0,0,60,4.0,80.0
885,51.0,30,30,5.0,80.0
886,59.0,0,60,6.0,80.0
887,52.0,0,60,6.0,80.0
888,75.0,0,30,7.0,100.0
889,63.0,0,30,7.0,100.0
890,51.0,0,30,7.0,100.0
891,39.0,0,30,7.0,100.0
892,52.0,0,30,5.0,80.0
893,76.0,0,30,7.0,100.0
894,64.0,0,30,7.0,100.0
895,52.0,0,30,7.0,100.0
896,40.0,0,30,7.0,100.0
897,88.0,30,60,4.0,80.0
898,80.0,0,60,4.0,80.0
899,54.0,30,30,5.0,80.0
900,59.0,0,60,6.0,80.0
901,52.0,0,60,6.0,80.0
902,78.0,0,30,7.0,100.0
903,66.0,0,30,7.0,100.0
904,54.0,0,30,7.0,100.0
905,42.0,0,30,7.0,100.0
906,56.0,0,30,5.0,80.0
907,80.0,0,30,7.0,100.0
908,68.0,0,30,7.0,100.0
909,56.0,0,30,7.0,100.0
910,44.0,0,30,7.0,100.0
911,88.0,30,60,4.0,80.0
912,80.0,0,60,4.0,80.0
913,57.0,30,30,5.0,80.0
914,59.0,0,60,6.0,80.0
915,52.0,0,60,6.0,80.0
916,81.0,0,30,7.0,100.0
917,69.0,0,30,7.0,100.0
918,57.0,0,30,7.0,100.0
919,45.0,0,30,7.0,100.0
920,59.0,0,30,5.0,80.0
921,83.0,0,30,7.0,100.0
922,71.0,0,30,7.0,100.0
923,59.0,0,30,7.0,100.0
924,47.0,0,30,7.0,100.0
925,88.0,30,60,4.0,80.0
926,80.0,0,60,4.0,80.0
927,56.0,30,30,5.0,80.0
928,59.0,0,60,6.0,80.0
929,52.0,0,60,6.0,80.0
930,80.0,0,30,7.0,100.0
931,68.0,0,30,7.0,100.0
932,56.0,0,30,7.0,100.0
933,44.0,0,30,7.0,100.0
934,59.0,0,30,5.0,80.0
935,83.0,0,30,7.0,100.0
936,71.0,0,30,7.0,100.0
937,59.0,0,30,7.0,100.0
938,47.0,0,30,7.0,100.0
939,88.0,30,60,4.0,80.0
940,80.0,0,60,4.0,80.0
941,56.0,30,30,5.0,80.0
942,59.0,0,60,6.0,80.0
943,52.0,0,60,6.0,80.0
944,80.0,0,30,7.0,100.0
945,68.0,0,30,7.0,100.0
946,56.0,0,30,7.0,100.0
947,44.0,0,30,7.0,100.0
948,88.0,30,60,4.0,80.0
949,80.0,0,60,4.0,80.0
950,52.0,0,60,5.0,80.0
951,59.0,0,60,6.0,80.0
952,52.0,0,60,6.0,80.0
953,76.0,0,60,7.0,100.0
954,64.0,0,60,7.0,100.0
955,52.0,0,60,7.0,100.0
956,40.0,0,60,7.0,100.0
957,88.0,120,60,4.0,80.0
958,80.0,0,60,4.0,80.0
959,64.0,0,60,5.0,80.0
960,59.0,0,60,6.0,80.0
961,52.0,0,60,6.0,80.0
962,71.0,0,60,7.0,100.0
963,80.0,0,60,7.0,100.0
964,76.0,0,60,7.0,100.0
965,64.0,0,60,7.0,100.0
966,52.0,0,60,7.0,100.0
967,76.0,120,60,4.0,80.0
968,52.0,0,60,5.0,80.0
969,52.0,0,60,6.0,80.0
970,40.0,0,60,6.0,80.0
971,71.0,0,60,7.0,100.0
972,76.0,0,60,7.0,100.0
973,64.0,0,60,7.0,100.0
974,52.0,0,60,7.0,100.0
975,40.0,0,60,7.0,100.0
976,76.0,240,240,7.0,100.0
977,73.0,240,180,7.0,100.0
978,74.0,180,60,7.0,100.0
979,64.0,0,240,7.0,100.0
980,78.0,0,60,7.0,100.0
981,76.0,60,60,7.0,100.0
982,74.0,60,30,7.0,100.0
983,61.0,0,180,7.0,100.0
984,73.0,60,30,7.0,100.0
985,81.0,60,240,7.0,100.0
986,62.0,0,60,7.0,100.0
987,66.0,0,60,7.0,100.0
988,64.0,60,60,7.0,100.0
989,62.0,60,30,7.0,100.0
990,80.0,60,180,7.0,100.0
991,71.0,0,180,7.0,100.0
992,61.0,0,30,7.0,100.0
993,81.0,60,60,7.0,100.0
994,73.0,0,60,7.0,100.0
995,85.0,60,60,7.0,100.0
996,76.0,0,60,7.0,100.0
997,83.0,60,60,7.0,100.0
998,74.0,0,60,7.0,100.0
999,81.0,60,30,7.0,100.0
1000,73.0,0,30,7.0,100.0
1001,59.0,0,180,7.0,100.0
1002,80.0,60,30,7.0,100.0
1003,71.0,0,30,7.0,100.0
1004,61.0,0,60,7.0,100.0
1005,64.0,0,60,7.0,100.0
1006,62.0,60,60,7.0,100.0
1007,61.0,60,30,7.0,100.0
1008,78.0,60,180,7.0,100.0
1009,69.0,0,180,7.0,100.0
1010,59.0,0,30,7.0,100.0
1011,80.0,60,60,7.0,100.0
1012,71.0,0,60,7.0,100.0
1013,81.0,60,60,7.0,100.0
1014,73.0,0,60,7.0,100.0
1015,85.0,60,60,7.0,100.0
1016,76.0,0,60,7.0,100.0
1017,83.0,60,30,7.0,100.0
1018,74.0,0,30,7.0,100.0
1019,81.0,30,30,7.0,100.0
1020,73.0,0,30,7.0,100.0
1021,80.0,30,30,7.0,100.0
1022,71.0,0,30,7.0,100.0
1023,78.0,30,30,7.0,100.0
1024,69.0,0,30,7.0,100.0
1025,61.0,0,60,7.0,100.0
1026,57.0,0,240,7.0,100.0
1027,78.0,30,60,7.0,100.0
1028,69.0,0,60,7.0,100.0
1029,76.0,60,60,7.0,100.0
1030,68.0,0,60,7.0,100.0
1031,76.0,60,60,7.0,100.0
1032,68.0,0,60,7.0,100.0
1033,59.0,0,180,7.0,100.0
1034,75.0,60,60,7.0,100.0
1035,66.0,0,60,7.0,100.0
1036,57.0,0,120,7.0,100.0
1037,76.0,60,60,7.0,100.0
1038,64.0,0,60,7.0,100.0
1039,59.0,0,60,7.0,100.0
1040,56.0,0,60,7.0,100.0
1041,78.0,60,60,7.0,100.0
1042,68.0,0,60,7.0,100.0
1043,59.0,0,60,7.0,100.0
1044,52.0,0,60,7.0,100.0
1045,74.0,60,120,7.0,100.0
1046,71.0,180,60,7.0,100.0
1047,68.0,0,60,7.0,100.0
1048,73.0,60,60,7.0,100.0
1049,69.0,0,60,7.0,100.0
1050,74.0,60,60,7.0,100.0
1051,71.0,0,60,7.0,100.0
1052,50.0,0,120,7.0,100.0
1053,76.0,60,60,7.0,100.0
1054,64.0,0,180,7.0,100.0
1055,78.0,60,60,7.0,100.0
1056,69.0,0,120,7.0,100.0
1057,61.0,0,60,7.0,100.0
1058,49.0,0,120,7.0,100.0
1059,76.0,60,30,7.0,100.0
1060,68.0,0,30,7.0,100.0
1061,74.0,30,30,7.0,100.0
1062,66.0,0,30,7.0,100.0
1063,59.0,0,60,7.0,100.0
1064,73.0,30,30,7.0,100.0
1065,64.0,0,30,7.0,100.0
1066,66.0,0,30,7.0,100.0
1067,71.0,30,30,7.0,100.0
1068,62.0,0,30,7.0,100.0
1069,50.0,0,120,7.0,100.0
1070,61.0,0,60,7.0,100.0
1071,52.0,0,60,7.0,100.0
1072,69.0,30,120,7.0,100.0
1073,64.0,0,120,7.0,100.0
1074,62.0,0,60,7.0,100.0
1075,52.0,0,60,7.0,100.0
1076,68.0,120,120,7.0,100.0
1077,59.0,60,60,7.0,100.0
1078,71.0,60,30,7.0,100.0
1079,69.0,0,120,7.0,100.0
1080,73.0,30,30,7.0,100.0
1081,74.0,30,30,7.0,100.0
1082,76.0,30,30,7.0,100.0
1083,78.0,30,30,7.0,100.0
1084,61.0,60,240,5.0,80.0
1085,57.0,0,240,6.0,80.0
1086,49.0,0,240,6.0,80.0
1087,80.0,30,30,7.0,100.0
1088,61.0,0,240,7.0,100.0
1089,45.0,0,240,7.0,100.0
1090,81.0,0,30,7.0,100.0
1091,85.0,30,30,7.0,100.0
1092,83.0,30,30,7.0,100.0
1093,81.0,30,30,7.0,100.0
1094,80.0,30,30,7.0,100.0
1095,78.0,30,30,7.0,100.0
1096,57.0,0,450,5.0,80.0
1097,54.0,30,210,5.0,80.0
1098,76.0,30,30,7.0,100.0
1099,57.0,0,450,7.0,100.0
1100,54.0,0,210,7.0,100.0
1101,42.0,0,210,7.0,100.0
1102,59.0,30,30,5.0,80.0
1103,56.0,0,30,5.0,80.0
1104,74.0,0,30,7.0,100.0
1105,59.0,0,30,7.0,100.0
1106,56.0,0,30,7.0,100.0
1107,44.0,0,30,7.0,100.0
1108,61.0,0,30,7.0,100.0
1109,57.0,0,60,7.0,100.0
1110,45.0,0,60,7.0,100.0
1111,59.0,60,30,7.0,100.0
1112,61.0,0,120,5.0,80.0
1113,57.0,0,120,5.0,80.0
1114,61.0,30,30,7.0,100.0
1115,62.0,30,30,7.0,100.0
1116,64.0,30,30,7.0,100.0
1117,45.0,0,60,7.0,100.0
1118,33.0,0,60,7.0,100.0
1119,66.0,30,30,7.0,100.0
1120,85.0,30,240,4.0,80.0
1121,76.0,0,240,4.0,80.0
1122,61.0,0,240,6.0,80.0
1123,57.0,0,240,6.0,80.0
1124,88.0,0,240,7.0,100.0
1125,73.0,0,240,7.0,100.0
1126,68.0,30,30,7.0,100.0
1127,73.0,30,30,7.0,100.0
1128,71.0,30,30,7.0,100.0
1129,68.0,60,30,7.0,100.0
1130,66.0,30,30,7.0,100.0
1131,81.0,30,210,4.0,80.0
1132,73.0,0,210,4.0,80.0
1133,85.0,0,210,7.0,100.0
1134,69.0,0,210,7.0,100.0
1135,64.0,30,30,7.0,100.0
1136,83.0,30,30,4.0,80.0
1137,74.0,0,30,4.0,80.0
1138,86.0,0,30,7.0,100.0
1139,71.0,0,30,7.0,100.0
1140,62.0,0,30,7.0,100.0
1141,73.0,0,30,7.0,100.0
1142,88.0,0,60,7.0,100.0
1143,69.0,30,30,7.0,100.0
1144,71.0,30,30,7.0,100.0
1145,85.0,30,120,4.0,80.0
1146,76.0,0,120,4.0,80.0
1147,73.0,30,30,7.0,100.0
1148,74.0,0,30,7.0,100.0
1149,81.0,30,60,7.0,100.0
1150,76.0,30,30,7.0,100.0
1151,78.0,30,30,7.0,100.0
1152,61.0,0,240,5.0,80.0
1153,57.0,0,240,6.0,80.0
1154,49.0,0,240,6.0,80.0
1155,80.0,30,30,7.0,100.0
1156,61.0,0,240,7.0,100.0
1157,45.0,0,240,7.0,100.0
1158,81.0,0,30,7.0,100.0
1159,85.0,30,30,7.0,100.0
1160,83.0,30,30,7.0,100.0
1161,81.0,30,30,7.0,100.0
1162,80.0,30,30,7.0,100.0
1163,78.0,30,30,7.0,100.0
1164,57.0,0,450,5.0,80.0
1165,54.0,30,210,5.0,80.0
1166,76.0,30,30,7.0,100.0
1167,57.0,0,450,7.0,100.0
1168,54.0,0,210,7.0,100.0
1169,42.0,0,210,7.0,100.0
1170,59.0,30,30,5.0,80.0
1171,56.0,0,30,5.0,80.0
1172,74.0,0,30,7.0,100.0
1173,59.0,0,30,7.0,100.0
1174,56.0,0,30,7.0,100.0
1175,44.0,0,30,7.0,100.0
1176,61.0,0,30,7.0,100.0
1177,57.0,0,60,7.0,100.0
1178,45.0,0,60,7.0,100.0
1179,59.0,60,30,7.0,100.0
1180,61.0,0,120,5.0,80.0
1181,57.0,0,120,5.0,80.0
1182,61.0,30,30,7.0,100.0
1183,62.0,30,30,7.0,100.0
1184,64.0,30,30,7.0,100.0
1185,45.0,0,60,7.0,100.0
1186,33.0,0,60,7.0,100.0
1187,66.0,30,30,7.0,100.0
1188,85.0,30,240,4.0,80.0
1189,76.0,0,240,4.0,80.0
1190,61.0,0,240,6.0,80.0
1191,52.0,0,240,6.0,80.0
1192,88.0,0,240,7.0,100.0
1193,73.0,0,240,7.0,100.0
1194,68.0,30,30,7.0,100.0
1195,73.0,30,30,7.0,100.0
1196,71.0,30,30,7.0,100.0
1197,68.0,60,30,7.0,100.0
1198,66.0,30,30,7.0,100.0
1199,81.0,30,210,4.0,80.0
1200,73.0,0,210,4.0,80.0
1201,85.0,0,210,7.0,100.0
1202,69.0,0,210,7.0,100.0
1203,64.0,30,30,7.0,100.0
1204,83.0,30,30,4.0,80.0
1205,74.0,0,30,4.0,80.0
1206,86.0,0,30,7.0,100.0
1207,71.0,0,30,7.0,100.0
1208,62.0,0,30,7.0,100.0
1209,61.0,0,30,7.0,100.0
1210,45.0,0,60,5.0,80.0
1211,57.0,30,30,7.0,100.0
1212,45.0,0,60,7.0,100.0
1213,33.0,0,60,7.0,100.0
1214,47.0,30,30,5.0,80.0
1215,59.0,0,30,7.0,100.0
1216,47.0,0,30,7.0,100.0
1217,35.0,0,30,7.0,100.0
1218,85.0,30,120,4.0,80.0
1219,76.0,0,120,4.0,80.0
1220,49.0,30,30,5.0,80.0
1221,57.0,0,120,6.0,80.0
1222,45.0,0,120,6.0,80.0
1223,88.0,0,120,7.0,100.0
1224,73.0,0,120,7.0,100.0
1225,61.0,0,30,7.0,100.0
1226,49.0,0,30,7.0,100.0
1227,37.0,0,30,7.0,100.0
1228,50.0,30,30,5.0,80.0
1229,62.0,0,30,7.0,100.0
1230,50.0,0,30,7.0,100.0
1231,38.0,0,30,7.0,100.0
1232,52.0,30,30,5.0,80.0
1233,64.0,0,30,7.0,100.0
1234,52.0,0,30,7.0,100.0
1235,40.0,0,30,7.0,100.0
1236,85.0,30,30,4.0,80.0
1237,81.0,0,30,4.0,80.0
1238,54.0,0,30,5.0,80.0
1239,57.0,0,30,6.0,80.0
1240,45.0,0,30,6.0,80.0
1241,85.0,0,30,7.0,100.0
1242,76.0,0,30,7.0,100.0
1243,66.0,0,30,7.0,100.0
1244,54.0,0,30,7.0,100.0
1245,42.0,0,30,7.0,100.0
1246,85.0,30,30,4.0,80.0
1247,81.0,0,30,4.0,80.0
1248,56.0,0,30,5.0,80.0
1249,57.0,0,30,6.0,80.0
1250,45.0,0,30,6.0,80.0
1251,85.0,0,30,7.0,100.0
1252,76.0,0,30,7.0,100.0
1253,68.0,0,30,7.0,100.0
1254,56.0,0,30,7.0,100.0
1255,44.0,0,30,7.0,100.0
1256,57.0,0,30,5.0,80.0
1257,69.0,0,30,7.0,100.0
1258,57.0,0,30,7.0,100.0
1259,45.0,0,30,7.0,100.0
1260,85.0,30,60,4.0,80.0
1261,81.0,0,60,4.0,80.0
1262,56.0,30,30,5.0,80.0
1263,57.0,0,60,6.0,80.0
1264,45.0,0,60,6.0,80.0
1265,85.0,0,60,7.0,100.0
1266,76.0,0,60,7.0,100.0
1267,68.0,0,30,7.0,100.0
1268,56.0,0,30,7.0,100.0
1269,44.0,0,30,7.0,100.0
1270,57.0,0,30,5.0,80.0
1271,69.0,0,30,7.0,100.0
1272,57.0,0,30,7.0,100.0
1273,45.0,0,30,7.0,100.0
1274,85.0,30,60,4.0,80.0
1275,81.0,0,60,4.0,80.0
1276,59.0,30,30,5.0,80.0
1277,57.0,0,60,6.0,80.0
1278,45.0,0,60,6.0,80.0
1279,85.0,0,60,7.0,100.0
1280,76.0,0,60,7.0,100.0
1281,71.0,0,30,7.0,100.0
1282,59.0,0,30,7.0,100.0
1283,47.0,0,30,7.0,100.0
1284,55.0,0,30,5.0,80.0
1285,67.0,0,30,7.0,100.0
1286,55.0,0,30,7.0,100.0
1287,43.0,0,30,7.0,100.0
1288,85.0,30,60,4.0,80.0
1289,81.0,0,60,4.0,80.0
1290,54.0,30,30,5.0,80.0
1291,57.0,0,60,6.0,80.0
1292,45.0,0,60,6.0,80.0
1293,85.0,0,60,7.0,100.0
1294,76.0,0,60,7.0,100.0
1295,66.0,0,30,7.0,100.0
1296,54.0,0,30,7.0,100.0
1297,42.0,0,30,7.0,100.0
1298,55.0,0,30,5.0,80.0
1299,67.0,0,30,7.0,100.0
1300,55.0,0,30,7.0,100.0
1301,43.0,0,30,7.0,100.0
1302,85.0,30,60,4.0,80.0
1303,81.0,0,60,4.0,80.0
1304,57.0,30,30,5.0,80.0
1305,57.0,0,60,6.0,80.0
1306,45.0,0,60,6.0,80.0
1307,85.0,0,60,7.0,100.0
1308,76.0,0,60,7.0,100.0
1309,69.0,0,30,7.0,100.0
1310,57.0,0,30,7.0,100.0
1311,45.0,0,30,7.0,100.0
1312,86.0,30,60,4.0,80.0
1313,81.0,0,60,4.0,80.0
1314,54.0,0,60,5.0,80.0
1315,57.0,0,60,6.0,80.0
1316,45.0,0,60,6.0,80.0
1317,86.0,0,60,7.0,100.0
1318,78.0,0,60,7.0,100.0
1319,66.0,0,60,7.0,100.0
1320,54.0,0,60,7.0,100.0
1321,42.0,0,60,7.0,100.0
1322,88.0,120,60,4.0,80.0
1323,81.0,0,60,4.0,80.0
1324,49.0,0,60,5.0,80.0
1325,57.0,0,60,6.0,80.0
1326,45.0,0,60,6.0,80.0
1327,81.0,0,60,7.0,100.0
1328,69.0,0,60,7.0,100.0
1329,76.0,0,60,7.0,100.0
1330,61.0,0,60,7.0,100.0
1331,49.0,0,60,7.0,100.0
1332,37.0,0,60,7.0,100.0
1333,90.0,120,60,4.0,80.0
1334,81.0,0,60,4.0,80.0
1335,50.0,0,60,5.0,80.0
1336,57.0,0,60,6.0,80.0
1337,45.0,0,60,6.0,80.0
1338,69.0,0,60,7.0,100.0
1339,78.0,0,60,7.0,100.0
1340,57.0,0,60,7.0,100.0
1341,66.0,0,60,7.0,100.0
1342,74.0,0,60,7.0,100.0
1343,62.0,0,60,7.0,100.0
1344,50.0,0,60,7.0,100.0
1345,38.0,0,60,7.0,100.0
1346,66.0,240,180,7.0,100.0
1347,54.0,0,180,7.0,100.0
1348,68.0,180,30,7.0,100.0
1349,56.0,0,30,7.0,100.0
1350,70.0,30,30,7.0,100.0
1351,58.0,0,30,7.0,100.0
1352,71.0,30,60,7.0,100.0
1353,59.0,0,60,7.0,100.0
1354,73.0,60,60,7.0,100.0
1355,61.0,0,60,7.0,100.0
1356,74.0,60,60,7.0,100.0
1357,62.0,0,60,7.0,100.0
1358,76.0,60,60,7.0,100.0
1359,64.0,0,60,7.0,100.0
1360,78.0,60,60,7.0,100.0
1361,66.0,0,60,7.0,100.0
1362,70.0,60,60,7.0,100.0
1363,61.0,0,60,7.0,100.0
1364,58.0,0,60,7.0,100.0
1365,71.0,60,60,7.0,100.0
1366,62.0,0,60,7.0,100.0
1367,59.0,0,60,7.0,100.0
1368,74.0,60,60,7.0,100.0
1369,66.0,0,60,7.0,100.0
1370,62.0,0,60,7.0,100.0
1371,50.0,0,120,7.0,100.0
1372,38.0,0,120,7.0,100.0
1373,69.0,60,120,7.0,100.0
1374,61.0,0,120,7.0,100.0
1375,57.0,0,120,7.0,100.0
1376,52.0,0,120,7.0,100.0
1377,40.0,0,120,7.0,100.0
1378,52.0,0,60,7.0,100.0
1379,40.0,0,60,7.0,100.0
1380,68.0,120,120,7.0,100.0
1381,59.0,0,120,7.0,100.0
1382,56.0,0,120,7.0,100.0
1383,69.0,120,30,7.0,100.0
1384,61.0,0,30,7.0,100.0
1385,64.0,30,30,7.0,100.0
1386,45.0,0,60,7.0,100.0
1387,64.0,0,15,7.0,100.0
1388,64.0,30,15,7.0,100.0
1389,81.0,30,60,7.0,100.0
1390,57.0,0,120,7.0,100.0
1391,62.0,0,30,7.0,100.0
1392,68.0,30,60,4.0,80.0
1393,64.0,0,60,5.0,80.0
1394,62.0,0,60,5.0,80.0
1395,80.0,0,60,7.0,100.0
1396,64.0,30,30,7.0,100.0
1397,59.0,0,60,7.0,100.0
1398,47.0,0,60,7.0,100.0
1399,64.0,0,15,7.0,100.0
1400,64.0,30,15,7.0,100.0
1401,74.0,30,60,7.0,100.0
1402,61.0,0,30,7.0,100.0
1403,69.0,30,60,4.0,80.0
1404,64.0,0,60,5.0,80.0
1405,61.0,0,60,5.0,80.0
1406,73.0,0,60,7.0,100.0
1407,64.0,30,30,7.0,100.0
1408,57.0,0,60,7.0,100.0
1409,45.0,0,60,7.0,100.0
1410,85.0,30,10,7.0,100.0
1411,64.0,0,15,7.0,100.0
1412,86.0,10,10,7.0,100.0
1413,85.0,10,10,7.0,100.0
1414,83.0,10,15,7.0,100.0
1415,64.0,0,15,7.0,100.0
1416,85.0,15,15,7.0,100.0
1417,69.0,0,60,7.0,100.0
1418,59.0,0,30,7.0,100.0
1419,86.0,15,60,4.0,80.0
1420,80.0,0,60,4.0,80.0
1421,59.0,0,60,6.0,80.0
1422,52.0,0,60,6.0,80.0
1423,86.0,0,60,7.0,100.0
1424,68.0,0,60,7.0,100.0
1425,64.0,30,30,7.0,100.0
1426,52.0,0,60,7.0,100.0
1427,40.0,0,60,7.0,100.0
1428,64.0,0,15,7.0,100.0
1429,64.0,30,15,7.0,100.0
1430,62.0,30,60,7.0,100.0
1431,85.0,30,60,4.0,80.0
1432,81.0,0,60,4.0,80.0
1433,61.0,0,60,6.0,80.0
1434,57.0,0,60,6.0,80.0
1435,61.0,0,60,7.0,100.0
1436,64.0,30,30,7.0,100.0
1437,57.0,0,60,7.0,100.0
1438,45.0,0,60,7.0,100.0
1439,73.0,0,10,7.0,100.0
1440,64.0,0,15,7.0,100.0
1441,74.0,10,10,7.0,100.0
1442,73.0,10,10,7.0,100.0
1443,71.0,10,15,7.0,100.0
1444,64.0,0,15,7.0,100.0
1445,81.0,30,60,7.0,100.0
1446,73.0,15,15,7.0,100.0
1447,68.0,15,60,4.0,80.0
1448,64.0,0,60,5.0,80.0
1449,62.0,0,60,5.0,80.0
1450,80.0,0,60,7.0,100.0
1451,64.0,30,30,7.0,100.0
1452,59.0,0,60,7.0,100.0
1453,47.0,0,60,7.0,100.0
1454,64.0,30,15,7.0,100.0
1455,64.0,30,15,7.0,100.0
1456,74.0,0,120,7.0,100.0
1457,61.0,0,30,7.0,100.0
1458,69.0,30,60,4.0,80.0
1459,64.0,0,60,5.0,80.0
1460,61.0,0,60,5.0,80.0
1461,73.0,0,60,7.0,100.0
1462,64.0,30,30,7.0,100.0
1463,57.0,0,60,7.0,100.0
1464,45.0,0,60,7.0,100.0
1465,85.0,30,10,7.0,100.0
1466,64.0,0,15,7.0,100.0
1467,86.0,10,10,7.0,100.0
1468,85.0,10,10,7.0,100.0
1469,83.0,10,15,7.0,100.0
1470,64.0,0,15,7.0,100.0
1471,85.0,15,15,7.0,100.0
1472,69.0,0,60,7.0,100.0
1473,59.0,0,30,7.0,100.0
1474,86.0,15,60,4.0,80.0
1475,80.0,0,60,4.0,80.0
1476,59.0,0,60,6.0,80.0
1477,52.0,0,60,6.0,80.0
1478,86.0,0,60,7.0,100.0
1479,68.0,0,60,7.0,100.0
1480,64.0,30,30,7.0,100.0
1481,50.0,0,60,7.0,100.0
1482,38.0,0,60,7.0,100.0
1483,64.0,0,15,7.0,100.0
1484,64.0,30,15,7.0,100.0
1485,64.0,0,120,5.0,80.0
1486,62.0,30,60,7.0,100.0
1487,85.0,30,60,4.0,80.0
1488,81.0,0,60,4.0,80.0
1489,61.0,0,60,6.0,80.0
1490,57.0,0,60,6.0,80.0
1491,61.0,0,60,7.0,100.0
1492,64.0,30,30,7.0,100.0
1493,57.0,0,60,7.0,100.0
1494,45.0,0,60,7.0,100.0
1495,73.0,0,10,7.0,100.0
1496,64.0,0,15,7.0,100.0
1497,74.0,10,10,7.0,100.0
1498,73.0,10,10,7.0,100.0
1499,71.0,10,15,7.0,100.0
1500,64.0,0,15,7.0,100.0
1501,81.0,30,60,7.0,100.0
1502,73.0,15,15,7.0,100.0
1503,68.0,15,60,4.0,80.0
1504,64.0,0,60,5.0,80.0
1505,62.0,0,60,5.0,80.0
1506,80.0,0,60,7.0,100.0
1507,64.0,30,30,7.0,100.0
1508,59.0,0,60,7.0,100.0
1509,47.0,0,60,7.0,100.0
1510,64.0,30,15,7.0,100.0
1511,64.0,30,15,7.0,100.0
1512,74.0,0,120,7.0,100.0
1513,61.0,0,30,7.0,100.0
1514,69.0,30,60,4.0,80.0
1515,64.0,0,60,5.0,80.0
1516,61.0,0,60,5.0,80.0
1517,73.0,0,60,7.0,100.0
1518,64.0,30,30,7.0,100.0
1519,57.0,0,60,7.0,100.0
1520,45.0,0,60,7.0,100.0
1521,85.0,30,10,7.0,100.0
1522,64.0,0,15,7.0,100.0
1523,86.0,10,10,7.0,100.0
1524,85.0,10,10,7.0,100.0
1525,83.0,10,15,7.0,100.0
1526,64.0,0,15,7.0,100.0
1527,85.0,15,15,7.0,100.0
1528,69.0,0,60,7.0,100.0
1529,59.0,0,30,7.0,100.0
1530,86.0,15,60,4.0,80.0
1531,80.0,0,60,4.0,80.0
1532,59.0,0,60,6.0,80.0
1533,52.0,0,60,6.0,80.0
1534,86.0,0,60,7.0,100.0
1535,68.0,0,60,7.0,100.0
1536,64.0,30,30,7.0,100.0
1537,52.0,0,60,7.0,100.0
1538,40.0,0,60,7.0,100.0
1539,80.0,30,10,7.0,100.0
1540,64.0,0,15,7.0,100.0
1541,81.0,10,10,7.0,100.0
1542,80.0,10,10,7.0,100.0
1543,78.0,10,15,7.0,100.0
1544,64.0,0,15,7.0,100.0
1545,80.0,15,15,7.0,100.0
1546,64.0,0,15,7.0,100.0
1547,73.0,30,15,7.0,100.0
1548,85.0,15,60,4.0,80.0
1549,81.0,0,60,4.0,80.0
1550,64.0,0,60,5.0,80.0
1551,61.0,0,60,5.0,80.0
1552,61.0,0,60,6.0,80.0
1553,57.0,0,60,6.0,80.0
1554,81.0,0,60,7.0,100.0
1555,57.0,0,60,7.0,100.0
1556,45.0,0,60,7.0,100.0
1557,85.0,30,10,7.0,100.0
1558,69.0,0,15,7.0,100.0
1559,86.0,10,10,7.0,100.0
1560,85.0,10,10,7.0,100.0
1561,83.0,10,15,7.0,100.0
1562,73.0,0,15,7.0,100.0
1563,85.0,15,15,7.0,100.0
1564,64.0,0,15,7.0,100.0
1565,74.0,30,15,7.0,100.0
1566,86.0,15,60,4.0,80.0
1567,80.0,0,60,4.0,80.0
1568,64.0,0,60,5.0,80.0
1569,61.0,0,60,5.0,80.0
1570,59.0,0,60,6.0,80.0
1571,52.0,0,60,6.0,80.0
1572,86.0,0,60,7.0,100.0
1573,52.0,0,60,7.0,100.0
1574,40.0,0,60,7.0,100.0
1575,80.0,30,10,7.0,100.0
1576,71.0,0,15,7.0,100.0
1577,81.0,10,10,7.0,100.0
1578,80.0,10,10,7.0,100.0
1579,78.0,10,15,7.0,100.0
1580,74.0,0,15,7.0,100.0
1581,80.0,15,15,7.0,100.0
1582,64.0,0,15,7.0,100.0
1583,73.0,30,15,7.0,100.0
1584,85.0,15,60,4.0,80.0
1585,81.0,0,60,4.0,80.0
1586,64.0,0,60,5.0,80.0
1587,61.0,0,60,5.0,80.0
1588,61.0,0,60,6.0,80.0
1589,57.0,0,60,6.0,80.0
1590,81.0,0,60,7.0,100.0
1591,57.0,0,60,7.0,100.0
1592,45.0,0,60,7.0,100.0
1593,85.0,30,10,7.0,100.0
1594,69.0,0,15,7.0,100.0
1595,86.0,10,10,7.0,100.0
1596,85.0,10,10,7.0,100.0
1597,83.0,10,15,7.0,100.0
1598,73.0,0,15,7.0,100.0
1599,85.0,15,15,7.0,100.0
1600,64.0,0,15,7.0,100.0
1601,74.0,30,15,7.0,100.0
1602,86.0,15,60,4.0,80.0
1603,80.0,0,60,4.0,80.0
1604,64.0,0,60,5.0,80.0
1605,61.0,0,60,5.0,80.0
1606,59.0,0,60,6.0,80.0
1607,52.0,0,60,6.0,80.0
1608,86.0,0,60,7.0,100.0
1609,52.0,0,60,7.0,100.0
1610,40.0,0,60,7.0,100.0
1611,80.0,30,10,7.0,100.0
1612,71.0,0,15,7.0,100.0
1613,81.0,10,10,7.0,100.0
1614,80.0,10,10,7.0,100.0
1615,78.0,10,15,7.0,100.0
1616,74.0,0,15,7.0,100.0
1617,80.0,15,15,7.0,100.0
1618,85.0,15,60,4.0,80.0
1619,81.0,0,60,4.0,80.0
1620,64.0,0,60,5.0,80.0
1621,61.0,0,60,5.0,80.0
1622,57.0,0,60,6.0,80.0
1623,49.0,0,60,6.0,80.0
1624,73.0,0,60,7.0,100.0
1625,57.0,0,60,7.0,100.0
1626,45.0,0,60,7.0,100.0
1627,81.0,0,70,7.0,100.0
1628,69.0,0,10,7.0,100.0
1629,83.0,10,10,7.0,100.0
1630,71.0,0,10,7.0,100.0
1631,81.0,10,10,7.0,100.0
1632,69.0,0,10,7.0,100.0
1633,80.0,10,15,7.0,100.0
1634,68.0,0,15,7.0,100.0
1635,52.0,0,60,5.0,80.0
1636,57.0,0,60,6.0,80.0
1637,49.0,0,60,6.0,80.0
1638,81.0,15,15,7.0,100.0
1639,69.0,0,15,7.0,100.0
1640,64.0,0,60,7.0,100.0
1641,52.0,0,60,7.0,100.0
1642,40.0,0,60,7.0,100.0
1643,88.0,60,120,4.0,80.0
1644,76.0,0,120,4.0,80.0
1645,56.0,15,60,5.0,80.0
1646,59.0,0,60,6.0,80.0
1647,52.0,0,60,6.0,80.0
1648,83.0,0,60,7.0,100.0
1649,71.0,0,60,7.0,100.0
1650,68.0,0,60,7.0,100.0
1651,56.0,0,60,7.0,100.0
1652,44.0,0,60,7.0,100.0
1653,83.0,0,10,7.0,100.0
1654,71.0,0,10,7.0,100.0
1655,85.0,10,10,7.0,100.0
1656,73.0,0,10,7.0,100.0
1657,83.0,10,10,7.0,100.0
1658,71.0,0,10,7.0,100.0
1659,81.0,10,15,7.0,100.0
1660,69.0,0,15,7.0,100.0
1661,52.0,0,60,5.0,80.0
1662,59.0,0,60,6.0,80.0
1663,52.0,0,60,6.0,80.0
1664,83.0,15,15,7.0,100.0
1665,71.0,0,15,7.0,100.0
1666,64.0,0,60,7.0,100.0
1667,52.0,0,60,7.0,100.0
1668,40.0,0,60,7.0,100.0
1669,88.0,60,120,4.0,80.0
1670,76.0,0,120,4.0,80.0
1671,57.0,15,60,5.0,80.0
1672,61.0,0,60,6.0,80.0
1673,57.0,0,60,6.0,80.0
1674,85.0,0,60,7.0,100.0
1675,73.0,0,60,7.0,100.0
1676,69.0,0,60,7.0,100.0
1677,57.0,0,60,7.0,100.0
1678,45.0,0,60,7.0,100.0
1679,85.0,0,30,7.0,100.0
1680,73.0,0,30,7.0,100.0
1681,85.0,60,60,4.0,80.0
1682,52.0,0,60,5.0,80.0
1683,61.0,0,60,6.0,80.0
1684,57.0,0,60,6.0,80.0
1685,64.0,0,60,7.0,100.0
1686,52.0,0,60,7.0,100.0
1687,40.0,0,60,7.0,100.0
1688,86.0,0,30,7.0,100.0
1689,74.0,0,30,7.0,100.0
1690,86.0,60,60,4.0,80.0
1691,76.0,0,120,4.0,80.0
1692,59.0,0,60,5.0,80.0
1693,71.0,0,60,7.0,100.0
1694,59.0,0,60,7.0,100.0
1695,47.0,0,60,7.0,100.0
1696,86.0,0,30,7.0,100.0
1697,74.0,0,30,7.0,100.0
1698,80.0,60,60,4.0,80.0
1699,76.0,0,60,4.0,80.0
1700,52.0,0,60,5.0,80.0
1701,59.0,0,120,6.0,80.0
1702,64.0,0,60,7.0,100.0
1703,52.0,0,60,7.0,100.0
1704,40.0,0,60,7.0,100.0
1705,73.0,0,60,7.0,100.0
1706,49.0,0,60,7.0,100.0
1707,49.0,60,60,7.0,100.0
1708,88.0,0,150,7.0,100.0
1709,76.0,0,150,7.0,100.0
1710,86.0,30,15,7.0,100.0
1711,74.0,0,15,7.0,100.0
1712,49.0,60,60,7.0,100.0
1713,85.0,30,15,7.0,100.0
1714,73.0,0,15,7.0,100.0
1715,83.0,30,15,7.0,100.0
1716,71.0,0,15,7.0,100.0
1717,49.0,0,60,7.0,100.0
1718,81.0,30,15,7.0,100.0
1719,69.0,0,15,7.0,100.0
1720,80.0,30,15,7.0,100.0
1721,68.0,0,15,7.0,100.0
1722,49.0,0,60,7.0,100.0
1723,78.0,30,15,7.0,100.0
1724,66.0,0,15,7.0,100.0
1725,76.0,30,15,7.0,100.0
1726,64.0,0,15,7.0,100.0
1727,49.0,0,60,7.0,100.0
1728,74.0,30,15,7.0,100.0
1729,62.0,0,15,7.0,100.0
1730,73.0,30,15,7.0,100.0
1731,49.0,0,60,7.0,100.0
1732,71.0,30,15,7.0,100.0
1733,59.0,0,15,7.0,100.0
1734,69.0,30,15,7.0,100.0
1735,57.0,0,15,7.0,100.0
1736,81.0,60,480,4.0,80.0
1737,76.0,0,480,4.0,80.0
1738,61.0,0,480,5.0,80.0
1739,61.0,0,480,7.0,100.0
1740,49.0,0,60,7.0,100.0
1741,52.0,0,60,7.0,100.0
1742,67.0,0,120,7.0,100.0
1743,52.0,60,60,7.0,100.0
1744,52.0,60,60,7.0,100.0
1745,79.0,30,240,4.0,80.0
1746,64.0,0,240,5.0,80.0
1747,67.0,60,60,7.0,100.0
1748,64.0,0,240,7.0,100.0
1749,52.0,0,60,7.0,100.0
1750,49.0,0,60,7.0,100.0
1751,65.0,0,120,7.0,100.0
1752,49.0,60,60,7.0,100.0
1753,49.0,60,60,7.0,100.0
1754,77.0,60,240,4.0,80.0
1755,61.0,0,240,5.0,80.0
1756,65.0,60,60,7.0,100.0
1757,61.0,0,240,7.0,100.0
1758,49.0,0,60,7.0,100.0
1759,66.0,0,60,7.0,100.0
1760,50.0,0,60,7.0,100.0
1761,50.0,60,60,7.0,100.0
1762,81.0,60,60,7.0,100.0
1763,50.0,0,60,7.0,100.0
1764,78.0,60,240,4.0,80.0
1765,62.0,0,240,5.0,80.0
1766,62.0,0,240,7.0,100.0
1767,50.0,60,60,7.0,100.0
1768,54.0,0,60,7.0,100.0
1769,54.0,60,60,7.0,100.0
1770,63.0,60,60,7.0,100.0
1771,54.0,0,60,7.0,100.0
1772,75.0,60,240,4.0,80.0
1773,66.0,0,240,5.0,80.0
1774,57.0,0,1440,6.0,80.0
1775,66.0,0,240,7.0,100.0
1776,54.0,60,60,7.0,100.0
1777,64.0,0,60,5.0,80.0
1778,52.0,0,60,7.0,100.0
1779,64.0,0,90,7.0,100.0
1780,63.0,60,60,5.0,80.0
1781,66.0,30,30,7.0,100.0
1782,63.0,0,60,7.0,100.0
1783,51.0,0,60,7.0,100.0
1784,68.0,0,30,7.0,100.0
1785,62.0,30,60,5.0,80.0
1786,69.0,30,30,7.0,100.0
1787,62.0,0,60,7.0,100.0
1788,50.0,0,60,7.0,100.0
1789,71.0,0,30,7.0,100.0
1790,76.0,60,240,4.0,80.0
1791,61.0,30,60,5.0,80.0
1792,73.0,30,30,7.0,100.0
1793,61.0,0,60,7.0,100.0
1794,49.0,0,60,7.0,100.0
1795,74.0,30,30,4.0,80.0
1796,74.0,0,30,7.0,100.0
1797,76.0,30,30,4.0,80.0
1798,59.0,0,60,5.0,80.0
1799,76.0,0,30,7.0,100.0
1800,59.0,0,60,7.0,100.0
1801,47.0,0,60,7.0,100.0
1802,78.0,30,30,4.0,80.0
1803,78.0,0,30,7.0,100.0
1804,79.0,30,30,4.0,80.0
1805,62.0,0,60,5.0,80.0
1806,80.0,0,30,7.0,100.0
1807,62.0,0,60,7.0,100.0
1808,50.0,0,60,7.0,100.0
1809,81.0,30,30,4.0,80.0
1810,81.0,0,30,7.0,100.0
1811,83.0,30,30,4.0,80.0
1812,61.0,0,60,5.0,80.0
1813,83.0,0,30,7.0,100.0
1814,61.0,0,60,7.0,100.0
1815,49.0,0,60,7.0,100.0
1816,85.0,30,30,4.0,80.0
1817,85.0,0,30,7.0,100.0
1818,86.0,30,30,4.0,80.0
1819,57.0,0,60,5.0,80.0
1820,86.0,0,30,7.0,100.0
1821,57.0,0,60,7.0,100.0
1822,45.0,0,60,7.0,100.0
1823,88.0,0,60,7.0,100.0
1824,64.0,0,60,7.0,100.0
1825,52.0,0,60,7.0,100.0
1826,40.0,0,60,7.0,100.0
1827,85.0,60,30,7.0,100.0
1828,88.0,30,120,4.0,80.0
1829,52.0,0,600,6.0,80.0
1830,81.0,30,30,7.0,100.0
1831,64.0,0,60,7.0,100.0
1832,52.0,0,60,7.0,100.0
1833,40.0,0,60,7.0,100.0
1834,76.0,0,60,7.0,100.0
1835,64.0,0,60,7.0,100.0
1836,52.0,0,60,7.0,100.0
1837,40.0,0,60,7.0,100.0
1838,85.0,30,90,4.0,80.0
1839,81.0,0,90,4.0,80.0
1840,61.0,0,90,6.0,80.0
1841,57.0,0,90,6.0,80.0
1842,73.0,60,30,7.0,100.0
1843,85.0,30,30,4.0,80.0
1844,81.0,0,30,4.0,80.0
1845,61.0,0,30,6.0,80.0
1846,57.0,0,30,6.0,80.0
1847,69.0,0,30,7.0,100.0
1848,52.0,0,60,7.0,100.0
1849,40.0,0,60,7.0,100.0
1850,85.0,30,30,4.0,80.0
1851,81.0,0,30,4.0,80.0
1852,61.0,0,60,6.0,80.0
1853,57.0,0,60,6.0,80.0
1854,52.0,0,60,7.0,100.0
1855,40.0,0,60,7.0,100.0
1856,85.0,60,30,4.0,80.0
1857,81.0,0,30,4.0,80.0
1858,61.0,0,60,6.0,80.0
1859,57.0,0,60,6.0,80.0
1860,52.0,0,60,7.0,100.0
1861,40.0,0,60,7.0,100.0
1862,83.0,60,30,4.0,80.0
1863,80.0,0,30,4.0,80.0
1864,59.0,0,60,6.0,80.0
1865,52.0,0,60,6.0,80.0
1866,52.0,0,60,7.0,100.0
1867,40.0,0,60,7.0,100.0
1868,83.0,60,30,4.0,80.0
1869,80.0,0,30,4.0,80.0
1870,52.0,0,480,5.0,80.0
1871,59.0,0,60,6.0,80.0
1872,52.0,0,60,6.0,80.0
1873,71.0,0,120,7.0,100.0
1874,80.0,0,120,7.0,100.0
1875,52.0,0,60,7.0,100.0
1876,40.0,0,60,7.0,100.0
1877,81.0,60,120,4.0,80.0
1878,45.0,0,120,5.0,80.0
1879,57.0,0,120,6.0,80.0
1880,49.0,0,120,6.0,80.0
1881,64.0,0,420,7.0,100.0
1882,73.0,0,120,7.0,100.0
1883,81.0,0,120,7.0,100.0
1884,57.0,0,120,7.0,100.0
1885,45.0,0,120,7.0,100.0
1886,33.0,0,120,7.0,100.0
1887,81.0,240,120,7.0,100.0
1888,69.0,0,120,7.0,100.0
1889,85.0,120,60,7.0,100.0
1890,73.0,0,60,7.0,100.0
1891,78.0,120,120,7.0,100.0
1892,66.0,0,120,7.0,100.0
1893,81.0,120,60,7.0,100.0
1894,69.0,0,60,7.0,100.0
1895,66.0,0,30,7.0,100.0
1896,62.0,0,30,7.0,100.0
1897,50.0,0,30,7.0,100.0
1898,38.0,0,30,7.0,100.0
1899,71.0,120,90,7.0,100.0
1900,71.0,90,30,7.0,100.0
1901,67.0,0,30,7.0,100.0
1902,64.0,0,30,7.0,100.0
1903,52.0,0,30,7.0,100.0
1904,40.0,0,30,7.0,100.0
1905,73.0,30,90,7.0,100.0
1906,73.0,90,30,7.0,100.0
1907,76.0,30,120,7.0,100.0
1908,69.0,0,120,7.0,100.0
1909,66.0,0,120,7.0,100.0
1910,54.0,0,120,7.0,100.0
1911,42.0,0,120,7.0,100.0
1912,74.0,120,60,7.0,100.0
1913,74.0,120,120,7.0,100.0
1914,62.0,0,120,7.0,100.0
1915,78.0,120,60,7.0,100.0
1916,66.0,0,60,7.0,100.0
1917,71.0,120,120,7.0,100.0
1918,59.0,0,120,7.0,100.0
1919,74.0,120,60,7.0,100.0
1920,62.0,0,60,7.0,100.0
1921,62.0,0,30,7.0,100.0
1922,59.0,0,30,7.0,100.0
1923,47.0,0,30,7.0,100.0
1924,35.0,0,30,7.0,100.0
1925,66.0,120,90,7.0,100.0
1926,66.0,90,30,7.0,100.0
1927,62.0,0,30,7.0,100.0
1928,64.0,0,30,7.0,100.0
1929,52.0,0,30,7.0,100.0
1930,40.0,0,30,7.0,100.0
1931,68.0,30,90,7.0,100.0
1932,68.0,90,30,7.0,100.0
1933,69.0,30,30,7.0,100.0
1934,73.0,30,30,7.0,100.0
1935,76.0,30,30,7.0,100.0
1936,73.0,30,30,7.0,100.0
1937,61.0,0,120,7.0,100.0
1938,57.0,0,120,7.0,100.0
1939,45.0,0,120,7.0,100.0
1940,33.0,0,120,7.0,100.0
1941,69.0,30,30,7.0,100.0
1942,64.0,30,30,7.0,100.0
1943,61.0,30,30,7.0,100.0
1944,64.0,30,30,7.0,100.0
1945,66.0,30,30,7.0,100.0
1946,59.0,0,30,7.0,100.0
1947,50.0,0,30,7.0,100.0
1948,38.0,0,30,7.0,100.0
1949,62.0,0,60,7.0,100.0
1950,66.0,60,30,7.0,100.0
1951,69.0,30,30,7.0,100.0
1952,68.0,30,30,7.0,100.0
1953,62.0,0,30,7.0,100.0
1954,59.0,0,30,7.0,100.0
1955,52.0,0,30,7.0,100.0
1956,40.0,0,30,7.0,100.0
1957,64.0,30,30,7.0,100.0
1958,68.0,30,30,7.0,100.0
1959,71.0,30,30,7.0,100.0
1960,69.0,30,30,7.0,100.0
1961,73.0,30,30,7.0,100.0
1962,76.0,30,30,7.0,100.0
1963,73.0,30,30,7.0,100.0
1964,61.0,0,120,7.0,100.0
1965,57.0,0,120,7.0,100.0
1966,45.0,0,120,7.0,100.0
1967,33.0,0,120,7.0,100.0
1968,69.0,30,30,7.0,100.0
1969,64.0,30,30,7.0,100.0
1970,61.0,30,30,7.0,100.0
1971,64.0,30,30,7.0,100.0
1972,66.0,30,30,7.0,100.0
1973,59.0,0,30,7.0,100.0
1974,50.0,0,30,7.0,100.0
1975,38.0,0,30,7.0,100.0
1976,62.0,0,60,7.0,100.0
1977,66.0,60,30,7.0,100.0
1978,69.0,30,30,7.0,100.0
1979,68.0,30,30,7.0,100.0
1980,62.0,0,30,7.0,100.0
1981,59.0,0,30,7.0,100.0
1982,52.0,0,30,7.0,100.0
1983,40.0,0,30,7.0,100.0
1984,64.0,30,30,7.0,100.0
1985,68.0,30,30,7.0,100.0
1986,71.0,30,30,7.0,100.0
1987,69.0,0,30,7.0,100.0
1988,64.0,30,30,7.0,100.0
1989,57.0,0,60,7.0,100.0
1990,45.0,0,60,7.0,100.0
1991,33.0,0,60,7.0,100.0
1992,61.0,0,90,7.0,100.0
1993,69.0,30,30,7.0,100.0
1994,57.0,0,30,7.0,100.0
1995,45.0,0,30,7.0,100.0
1996,81.0,30,120,4.0,80.0
1997,73.0,0,120,4.0,80.0
1998,64.0,0,120,5.0,80.0
1999,61.0,0,120,5.0,80.0
2000,57.0,0,120,6.0,80.0
2001,45.0,0,120,6.0,80.0
2002,64.0,30,30,7.0,100.0
2003,69.0,0,30,7.0,100.0
2004,73.0,0,30,7.0,100.0
2005,61.0,0,30,7.0,100.0
2006,49.0,0,30,7.0,100.0
2007,64.0,30,30,7.0,100.0
2008,81.0,30,90,4.0,80.0
2009,73.0,0,90,4.0,80.0
2010,64.0,0,90,5.0,80.0
2011,61.0,0,90,5.0,80.0
2012,57.0,0,90,6.0,80.0
2013,45.0,0,90,6.0,80.0
2014,69.0,30,30,7.0,100.0
2015,57.0,0,30,7.0,100.0
2016,45.0,0,30,7.0,100.0
2017,81.0,30,30,4.0,80.0
2018,73.0,0,30,4.0,80.0
2019,64.0,0,30,5.0,80.0
2020,61.0,0,30,5.0,80.0
2021,57.0,0,30,6.0,80.0
2022,45.0,0,30,6.0,80.0
2023,64.0,0,30,7.0,100.0
2024,73.0,0,30,7.0,100.0
2025,64.0,0,30,7.0,100.0
2026,52.0,0,30,7.0,100.0
2027,40.0,0,30,7.0,100.0
2028,81.0,30,60,4.0,80.0
2029,73.0,0,60,4.0,80.0
2030,64.0,0,60,5.0,80.0
2031,61.0,0,60,5.0,80.0
2032,57.0,0,60,6.0,80.0
2033,45.0,0,60,6.0,80.0
2034,69.0,30,30,7.0,100.0
2035,73.0,0,30,7.0,100.0
2036,57.0,0,30,7.0,100.0
2037,45.0,0,30,7.0,100.0
2038,81.0,30,60,4.0,80.0
2039,73.0,0,60,4.0,80.0
2040,64.0,0,60,5.0,80.0
2041,61.0,0,60,5.0,80.0
2042,57.0,0,60,6.0,80.0
2043,45.0,0,60,6.0,80.0
2044,69.0,0,60,7.0,100.0
2045,76.0,0,30,7.0,100.0
2046,61.0,0,30,7.0,100.0
2047,49.0,0,30,7.0,100.0
2048,37.0,0,30,7.0,100.0
2049,81.0,60,60,4.0,80.0
2050,73.0,0,60,4.0,80.0
2051,64.0,0,60,5.0,80.0
2052,61.0,0,60,5.0,80.0
2053,57.0,0,60,6.0,80.0
2054,45.0,0,60,6.0,80.0
2055,73.0,30,30,7.0,100.0
2056,76.0,0,30,7.0,100.0
2057,64.0,0,30,7.0,100.0
2058,52.0,0,30,7.0,100.0
2059,40.0,0,30,7.0,100.0
2060,81.0,30,60,4.0,80.0
2061,73.0,0,60,4.0,80.0
2062,64.0,0,60,5.0,80.0
2063,61.0,0,60,5.0,80.0
2064,57.0,0,60,6.0,80.0
2065,45.0,0,60,6.0,80.0
2066,73.0,30,30,7.0,100.0
2067,81.0,30,60,4.0,80.0
2068,73.0,0,60,4.0,80.0
2069,64.0,0,60,5.0,80.0
2070,61.0,0,60,5.0,80.0
2071,57.0,0,60,6.0,80.0
2072,45.0,0,60,6.0,80.0
2073,69.0,0,60,7.0,100.0
2074,57.0,0,60,7.0,100.0
2075,45.0,0,60,7.0,100.0
2076,33.0,0,60,7.0,100.0
2077,85.0,120,60,4.0,80.0
2078,76.0,0,60,4.0,80.0
2079,64.0,0,60,5.0,80.0
2080,61.0,0,60,5.0,80.0
2081,57.0,0,60,6.0,80.0
2082,45.0,0,60,6.0,80.0
2083,64.0,0,60,7.0,100.0
2084,73.0,0,60,7.0,100.0
2085,81.0,0,60,7.0,100.0
2086,69.0,0,60,7.0,100.0
2087,57.0,0,60,7.0,100.0
2088,45.0,0,60,7.0,100.0
2089,81.0,120,60,4.0,80.0
2090,73.0,0,60,4.0,80.0
2091,64.0,0,60,5.0,80.0
2092,61.0,0,60,5.0,80.0
2093,57.0,0,60,6.0,80.0
2094,45.0,0,60,6.0,80.0
2095,57.0,0,60,7.0,100.0
2096,45.0,0,60,7.0,100.0
2097,33.0,0,60,7.0,100.0
2098,57.0,0,60,7.0,100.0
2099,57.0,60,60,7.0,100.0
2100,57.0,60,60,7.0,100.0
2101,76.0,240,240,3.0,127.0
2102,73.0,0,240,7.0,100.0
2103,57.0,60,60,7.0,100.0
2104,57.0,0,60,7.0,100.0
2105,57.0,60,60,7.0,100.0
2106,73.0,60,180,3.0,127.0
2107,69.0,0,180,7.0,100.0
2108,57.0,60,60,7.0,100.0
2109,74.0,60,60,3.0,127.0
2110,71.0,0,60,7.0,100.0
2111,57.0,0,60,7.0,100.0
2112,78.0,60,60,3.0,127.0
2113,74.0,0,60,7.0,100.0
2114,76.0,60,60,3.0,127.0
2115,73.0,0,60,7.0,100.0
2116,57.0,0,120,7.0,100.0
2117,74.0,60,30,3.0,127.0
2118,71.0,0,30,7.0,100.0
2119,73.0,60,30,3.0,127.0
2120,69.0,0,30,7.0,100.0
2121,73.0,60,120,3.0,127.0
2122,69.0,0,120,7.0,100.0
2123,57.0,60,60,7.0,100.0
2124,61.0,60,60,7.0,100.0
2125,57.0,60,60,7.0,100.0
2126,74.0,60,120,3.0,127.0
2127,66.0,0,120,7.0,100.0
2128,59.0,0,120,7.0,100.0
2129,50.0,0,120,7.0,100.0
2130,71.0,120,60,3.0,127.0
2131,62.0,0,60,7.0,100.0
2132,74.0,120,120,3.0,127.0
2133,66.0,0,120,7.0,100.0
2134,59.0,0,120,7.0,100.0
2135,50.0,0,120,7.0,100.0
2136,71.0,120,60,3.0,127.0
2137,62.0,0,60,7.0,100.0
2138,52.0,60,60,7.0,100.0
2139,52.0,60,60,7.0,100.0
2140,69.0,120,240,3.0,127.0
2141,61.0,0,240,7.0,100.0
2142,52.0,60,60,7.0,100.0
2143,68.0,60,120,3.0,127.0
2144,59.0,0,120,7.0,100.0
2145,64.0,60,60,7.0,100.0
2146,52.0,0,120,7.0,100.0
2147,63.0,60,60,7.0,100.0
2148,62.0,60,60,7.0,100.0
2149,61.0,0,60,7.0,100.0
2150,61.0,60,60,7.0,100.0
2151,61.0,60,60,7.0,100.0
2152,64.0,0,240,7.0,100.0
2153,61.0,60,60,7.0,100.0
2154,69.0,60,270,3.0,127.0
2155,68.0,30,30,3.0,127.0
2156,59.0,0,60,7.0,100.0
2157,69.0,30,30,3.0,127.0
2158,68.0,30,30,3.0,127.0
2159,62.0,60,120,7.0,100.0
2160,59.0,0,60,7.0,100.0
2161,71.0,30,30,3.0,127.0
2162,69.0,30,30,3.0,127.0
2163,57.0,0,60,7.0,100.0
2164,68.0,30,30,3.0,127.0
2165,66.0,30,30,3.0,127.0
2166,61.0,0,120,7.0,100.0
2167,57.0,0,60,7.0,100.0
2168,64.0,30,60,3.0,127.0
2169,74.0,60,60,3.0,127.0
2170,59.0,0,120,7.0,100.0
2171,56.0,0,120,7.0,100.0
2172,64.0,0,120,7.0,100.0
2173,74.0,60,240,3.0,127.0
2174,71.0,0,240,7.0,100.0
2175,68.0,0,240,7.0,100.0
2176,65.0,120,120,7.0,100.0
2177,73.0,120,120,3.0,127.0
2178,69.0,0,120,7.0,100.0
2179,71.0,120,30,3.0,127.0
2180,73.0,30,30,3.0,127.0
2181,74.0,30,30,3.0,127.0
2182,76.0,30,30,3.0,127.0
2183,71.0,0,120,7.0,100.0
2184,66.0,0,240,7.0,100.0
2185,62.0,0,120,7.0,100.0
2186,77.0,30,30,3.0,127.0
2187,78.0,30,30,3.0,127.0
2188,74.0,30,30,3.0,127.0
2189,66.0,0,30,7.0,100.0
2190,71.0,30,30,3.0,127.0
2191,62.0,0,30,7.0,100.0
2192,50.0,0,60,7.0,100.0
2193,61.0,0,60,7.0,100.0
2194,69.0,30,120,3.0,127.0
2195,64.0,60,60,7.0,100.0
2196,52.0,0,120,7.0,100.0
2197,73.0,60,60,3.0,127.0
2198,62.0,0,60,7.0,100.0
2199,71.0,60,60,3.0,127.0
2200,64.0,0,60,7.0,100.0
2201,56.0,0,120,7.0,100.0
2202,52.0,0,120,7.0,100.0
2203,61.0,0,30,7.0,100.0
2204,64.0,0,30,7.0,100.0
2205,69.0,60,120,3.0,127.0
2206,57.0,0,120,7.0,100.0
2207,69.0,60,30,7.0,100.0
2208,64.0,60,120,5.0,80.0
2209,61.0,0,120,5.0,80.0
2210,71.0,0,10,7.0,100.0
2211,73.0,10,10,7.0,100.0
2212,71.0,10,10,7.0,100.0
2213,69.0,10,15,7.0,100.0
2214,62.0,60,60,5.0,80.0
2215,59.0,0,60,5.0,80.0
2216,71.0,15,15,7.0,100.0
2217,61.0,15,30,5.0,80.0
2218,57.0,0,30,5.0,80.0
2219,73.0,0,30,7.0,100.0
2220,69.0,0,30,7.0,100.0
2221,64.0,0,30,7.0,100.0
2222,73.0,60,30,7.0,100.0
2223,69.0,0,30,7.0,100.0
2224,61.0,60,120,5.0,80.0
2225,52.0,0,120,5.0,80.0
2226,74.0,0,10,7.0,100.0
2227,71.0,0,10,7.0,100.0
2228,76.0,10,10,7.0,100.0
2229,73.0,0,10,7.0,100.0
2230,74.0,10,10,7.0,100.0
2231,71.0,0,10,7.0,100.0
2232,73.0,10,15,7.0,100.0
2233,69.0,0,15,7.0,100.0
2234,59.0,60,60,5.0,80.0
2235,50.0,0,60,5.0,80.0
2236,74.0,15,15,7.0,100.0
2237,71.0,0,15,7.0,100.0
2238,45.0,0,60,7.0,100.0
2239,33.0,0,60,7.0,100.0
2240,57.0,0,120,5.0,80.0
2241,49.0,0,120,5.0,80.0
2242,57.0,120,60,7.0,100.0
2243,45.0,0,60,7.0,100.0
2244,76.0,0,240,7.0,100.0
2245,61.0,0,240,7.0,100.0
2246,64.0,0,240,7.0,100.0
2247,45.0,0,60,7.0,100.0
2248,33.0,0,60,7.0,100.0
2249,73.0,0,420,7.0,100.0
2250,69.0,120,180,7.0,100.0
2251,61.0,0,180,7.0,100.0
2252,57.0,0,180,7.0,100.0
2253,45.0,120,60,7.0,100.0
2254,74.0,60,60,7.0,100.0
2255,71.0,0,60,7.0,100.0
2256,59.0,0,60,7.0,100.0
2257,62.0,0,60,7.0,100.0
2258,69.0,15,510,3.0,127.0
2259,71.0,30,30,3.0,127.0
2260,78.0,60,60,7.0,100.0
2261,74.0,0,60,7.0,100.0
2262,62.0,0,60,7.0,100.0
2263,66.0,0,60,7.0,100.0
2264,45.0,0,60,7.0,100.0
2265,33.0,0,60,7.0,100.0
2266,73.0,30,30,3.0,127.0
2267,74.0,30,30,3.0,127.0
2268,76.0,0,60,7.0,100.0
2269,73.0,0,60,7.0,100.0
2270,61.0,0,60,7.0,100.0
2271,64.0,0,60,7.0,100.0
2272,76.0,30,30,3.0,127.0
2273,74.0,0,30,7.0,100.0
2274,71.0,0,30,7.0,100.0
2275,59.0,0,30,7.0,100.0
2276,62.0,0,30,7.0,100.0
2277,78.0,30,30,3.0,127.0
2278,45.0,0,60,7.0,100.0
2279,80.0,30,30,3.0,127.0
2280,73.0,0,30,7.0,100.0
2281,69.0,0,30,7.0,100.0
2282,57.0,0,90,7.0,100.0
2283,61.0,0,30,7.0,100.0
2284,81.0,30,30,3.0,127.0
2285,80.0,30,30,3.0,127.0
2286,81.0,30,30,3.0,127.0
2287,45.0,0,60,7.0,100.0
2288,33.0,0,60,7.0,100.0
2289,80.0,30,30,3.0,127.0
2290,81.0,30,30,3.0,127.0
2291,73.0,0,120,7.0,100.0
2292,69.0,0,120,7.0,100.0
2293,57.0,0,120,7.0,100.0
2294,61.0,0,120,7.0,100.0
2295,80.0,30,30,3.0,127.0
2296,81.0,30,30,3.0,127.0
2297,57.0,0,60,7.0,100.0
2298,45.0,0,60,7.0,100.0
2299,80.0,30,30,3.0,127.0
2300,81.0,30,30,3.0,127.0
2301,77.0,30,30,3.0,127.0
2302,78.0,30,30,3.0,127.0
2303,77.0,30,30,3.0,127.0
2304,78.0,30,30,3.0,127.0
2305,74.0,0,120,7.0,100.0
2306,66.0,0,120,7.0,100.0
2307,59.0,0,120,7.0,100.0
2308,50.0,0,120,7.0,100.0
2309,38.0,0,120,7.0,100.0
2310,73.0,30,30,3.0,127.0
2311,74.0,30,30,3.0,127.0
2312,71.0,0,60,7.0,100.0
2313,62.0,0,60,7.0,100.0
2314,73.0,30,30,3.0,127.0
2315,74.0,30,30,3.0,127.0
2316,70.0,30,30,3.0,127.0
2317,71.0,30,30,3.0,127.0
2318,73.0,30,30,3.0,127.0
2319,74.0,30,30,3.0,127.0
2320,74.0,0,120,7.0,100.0
2321,66.0,0,120,7.0,100.0
2322,59.0,0,120,7.0,100.0
2323,50.0,0,120,7.0,100.0
2324,38.0,0,120,7.0,100.0
2325,75.0,30,30,3.0,127.0
2326,76.0,30,30,3.0,127.0
2327,71.0,0,60,7.0,100.0
2328,62.0,0,60,7.0,100.0
2329,77.0,30,30,3.0,127.0
2330,78.0,30,30,3.0,127.0
2331,52.0,60,30,7.0,100.0
2332,40.0,0,30,7.0,100.0
2333,52.0,60,30,7.0,100.0
2334,40.0,0,30,7.0,100.0
2335,69.0,30,180,3.0,127.0
2336,71.0,60,30,3.0,127.0
2337,52.0,0,30,7.0,100.0
2338,40.0,0,30,7.0,100.0
2339,69.0,30,30,3.0,127.0
2340,69.0,0,240,7.0,100.0
2341,61.0,0,240,7.0,100.0
2342,52.0,0,60,7.0,100.0
2343,40.0,0,60,7.0,100.0
2344,68.0,30,120,3.0,127.0
2345,68.0,0,120,7.0,100.0
2346,59.0,0,120,7.0,100.0
2347,64.0,0,360,7.0,100.0
2348,56.0,60,60,7.0,100.0
2349,44.0,0,60,7.0,100.0
2350,59.0,60,60,7.0,100.0
2351,47.0,0,60,7.0,100.0
2352,44.0,0,60,7.0,100.0
2353,76.0,60,30,3.0,127.0
2354,74.0,30,30,3.0,127.0
2355,71.0,30,15,3.0,127.0
2356,68.0,30,15,3.0,127.0
2357,59.0,0,120,7.0,100.0
2358,56.0,60,180,7.0,100.0
2359,52.0,0,120,7.0,100.0
2360,40.0,0,120,7.0,100.0
2361,64.0,30,15,3.0,127.0
2362,62.0,30,15,3.0,127.0
2363,59.0,30,15,3.0,127.0
2364,56.0,30,15,3.0,127.0
2365,64.0,60,60,7.0,100.0
2366,56.0,0,60,7.0,100.0
2367,64.0,60,60,7.0,100.0
2368,56.0,0,60,7.0,100.0
2369,52.0,30,240,3.0,127.0
2370,64.0,60,60,7.0,100.0
2371,56.0,0,60,7.0,100.0
2372,62.0,60,60,7.0,100.0
2373,57.0,0,60,7.0,100.0
2374,62.0,60,60,7.0,100.0
2375,57.0,0,60,7.0,100.0
2376,50.0,60,240,3.0,127.0
2377,62.0,60,60,7.0,100.0
2378,57.0,0,60,7.0,100.0
2379,54.0,0,240,7.0,100.0
2380,42.0,0,240,7.0,100.0
2381,71.0,60,60,7.0,100.0
2382,68.0,0,60,7.0,100.0
2383,64.0,0,60,7.0,100.0
2384,71.0,60,60,7.0,100.0
2385,68.0,0,60,7.0,100.0
2386,64.0,0,60,7.0,100.0
2387,80.0,60,240,3.0,127.0
2388,71.0,60,60,7.0,100.0
2389,68.0,0,60,7.0,100.0
2390,64.0,0,60,7.0,100.0
2391,50.0,0,240,7.0,100.0
2392,38.0,0,240,7.0,100.0
2393,81.0,60,60,3.0,127.0
2394,73.0,60,60,3.0,127.0
2395,73.0,0,120,7.0,100.0
2396,69.0,0,120,7.0,100.0
2397,64.0,0,120,7.0,100.0
2398,49.0,0,120,7.0,100.0
2399,37.0,0,120,7.0,100.0
2400,74.0,60,60,3.0,127.0
2401,75.0,60,60,3.0,127.0
2402,76.0,60,60,3.0,127.0
2403,68.0,60,60,3.0,127.0
2404,69.0,60,60,3.0,127.0
2405,70.0,60,60,3.0,127.0
2406,66.0,0,120,7.0,100.0
2407,63.0,0,120,7.0,100.0
2408,71.0,60,360,3.0,127.0
2409,69.0,120,240,7.0,100.0
2410,73.0,120,60,3.0,127.0
2411,74.0,60,60,3.0,127.0
2412,68.0,0,120,7.0,100.0
2413,64.0,120,240,7.0,100.0
2414,52.0,0,120,7.0,100.0
2415,73.0,60,30,3.0,127.0
2416,81.0,30,30,3.0,127.0
2417,69.0,0,60,7.0,100.0
2418,64.0,0,60,7.0,100.0
2419,76.0,30,15,3.0,127.0
2420,73.0,30,15,3.0,127.0
2421,69.0,0,60,7.0,100.0
2422,64.0,0,60,7.0,100.0
2423,61.0,0,60,7.0,100.0
2424,57.0,0,120,7.0,100.0
2425,45.0,0,120,7.0,100.0
2426,69.0,30,15,3.0,127.0
2427,64.0,30,15,3.0,127.0
2428,69.0,0,60,7.0,100.0
2429,64.0,0,60,7.0,100.0
2430,61.0,0,60,7.0,100.0
2431,61.0,30,15,3.0,127.0
2432,57.0,30,15,3.0,127.0
2433,69.0,0,60,7.0,100.0
2434,64.0,0,60,7.0,100.0
2435,61.0,0,60,7.0,100.0
2436,54.0,30,30,3.0,127.0
2437,57.0,30,30,3.0,127.0
2438,62.0,30,30,3.0,127.0
2439,66.0,30,30,3.0,127.0
2440,69.0,0,60,7.0,100.0
2441,66.0,0,60,7.0,100.0
2442,62.0,0,60,7.0,100.0
2443,50.0,0,120,7.0,100.0
2444,38.0,0,120,7.0,100.0
2445,69.0,30,30,3.0,127.0
2446,74.0,30,30,3.0,127.0
2447,69.0,0,60,7.0,100.0
2448,66.0,0,60,7.0,100.0
2449,62.0,0,60,7.0,100.0
2450,78.0,30,30,3.0,127.0
2451,81.0,30,30,3.0,127.0
2452,69.0,0,60,7.0,100.0
2453,66.0,0,60,7.0,100.0
2454,62.0,0,60,7.0,100.0
2455,75.0,30,30,3.0,127.0
2456,76.0,30,30,3.0,127.0
2457,78.0,30,30,3.0,127.0
2458,76.0,30,30,3.0,127.0
2459,69.0,0,60,7.0,100.0
2460,64.0,0,60,7.0,100.0
2461,57.0,0,60,7.0,100.0
2462,49.0,0,120,7.0,100.0
2463,37.0,0,120,7.0,100.0
2464,74.0,30,30,3.0,127.0
2465,73.0,30,30,3.0,127.0
2466,69.0,0,60,7.0,100.0
2467,61.0,0,60,7.0,100.0
2468,57.0,0,60,7.0,100.0
2469,71.0,30,30,3.0,127.0
2470,69.0,30,30,3.0,127.0
2471,69.0,0,60,7.0,100.0
2472,61.0,0,60,7.0,100.0
2473,66.0,0,60,7.0,100.0
2474,54.0,0,120,7.0,100.0
2475,42.0,0,120,7.0,100.0
2476,71.0,30,15,3.0,127.0
2477,73.0,15,15,3.0,127.0
2478,71.0,15,15,3.0,127.0
2479,73.0,15,15,3.0,127.0
2480,69.0,0,60,7.0,100.0
2481,59.0,0,60,7.0,100.0
2482,66.0,0,60,7.0,100.0
2483,71.0,15,15,3.0,127.0
2484,73.0,15,15,3.0,127.0
2485,71.0,15,15,3.0,127.0
2486,73.0,15,15,3.0,127.0
2487,69.0,0,60,7.0,100.0
2488,59.0,0,60,7.0,100.0
2489,66.0,0,60,7.0,100.0
2490,50.0,0,120,7.0,100.0
2491,38.0,0,120,7.0,100.0
2492,71.0,15,15,3.0,127.0
2493,73.0,15,15,3.0,127.0
2494,71.0,15,15,3.0,127.0
2495,73.0,15,15,3.0,127.0
2496,68.0,0,60,7.0,100.0
2497,59.0,0,60,7.0,100.0
2498,64.0,0,60,7.0,100.0
2499,71.0,15,15,3.0,127.0
2500,73.0,15,15,3.0,127.0
2501,69.0,15,15,3.0,127.0
2502,71.0,15,15,3.0,127.0
2503,68.0,0,60,7.0,100.0
2504,59.0,0,60,7.0,100.0
2505,62.0,0,60,7.0,100.0
2506,52.0,0,120,7.0,100.0
2507,40.0,0,120,7.0,100.0
2508,69.0,0,30,7.0,100.0
2509,64.0,30,30,7.0,100.0
2510,57.0,0,60,7.0,100.0
2511,45.0,0,60,7.0,100.0
2512,33.0,0,60,7.0,100.0
2513,61.0,0,90,7.0,100.0
2514,69.0,30,30,7.0,100.0
2515,57.0,0,30,7.0,100.0
2516,45.0,0,30,7.0,100.0
2517,69.0,15,120,3.0,127.0
2518,81.0,0,120,4.0,80.0
2519,73.0,0,120,4.0,80.0
2520,57.0,0,120,5.0,80.0
2521,57.0,0,120,6.0,80.0
2522,45.0,0,120,6.0,80.0
2523,64.0,30,30,7.0,100.0
2524,69.0,0,30,7.0,100.0
2525,73.0,0,30,7.0,100.0
2526,61.0,0,30,7.0,100.0
2527,49.0,0,30,7.0,100.0
2528,64.0,30,30,7.0,100.0
2529,81.0,30,90,4.0,80.0
2530,73.0,0,90,4.0,80.0
2531,64.0,0,90,5.0,80.0
2532,61.0,0,90,5.0,80.0
2533,57.0,0,90,6.0,80.0
2534,45.0,0,90,6.0,80.0
2535,69.0,30,30,7.0,100.0
2536,57.0,0,30,7.0,100.0
2537,45.0,0,30,7.0,100.0
2538,81.0,30,30,4.0,80.0
2539,73.0,0,30,4.0,80.0
2540,64.0,0,30,5.0,80.0
2541,61.0,0,30,5.0,80.0
2542,57.0,0,30,6.0,80.0
2543,45.0,0,30,6.0,80.0
2544,64.0,0,30,7.0,100.0
2545,73.0,0,30,7.0,100.0
2546,64.0,0,30,7.0,100.0
2547,52.0,0,30,7.0,100.0
2548,40.0,0,30,7.0,100.0
2549,81.0,30,60,4.0,80.0
2550,73.0,0,60,4.0,80.0
2551,64.0,0,60,5.0,80.0
2552,61.0,0,60,5.0,80.0
2553,57.0,0,60,6.0,80.0
2554,45.0,0,60,6.0,80.0
2555,69.0,30,30,7.0,100.0
2556,73.0,0,30,7.0,100.0
2557,57.0,0,30,7.0,100.0
2558,45.0,0,30,7.0,100.0
2559,81.0,30,60,4.0,80.0
2560,73.0,0,60,4.0,80.0
2561,64.0,0,60,5.0,80.0
2562,61.0,0,60,5.0,80.0
2563,57.0,0,60,6.0,80.0
2564,45.0,0,60,6.0,80.0
2565,69.0,0,60,7.0,100.0
2566,76.0,0,30,7.0,100.0
2567,61.0,0,30,7.0,100.0
2568,49.0,0,30,7.0,100.0
2569,37.0,0,30,7.0,100.0
2570,81.0,60,60,4.0,80.0
2571,73.0,0,60,4.0,80.0
2572,64.0,0,60,5.0,80.0
2573,61.0,0,60,5.0,80.0
2574,57.0,0,60,6.0,80.0
2575,45.0,0,60,6.0,80.0
2576,73.0,30,30,7.0,100.0
2577,76.0,0,30,7.0,100.0
2578,64.0,0,30,7.0,100.0
2579,52.0,0,30,7.0,100.0
2580,40.0,0,30,7.0,100.0
2581,81.0,30,60,4.0,80.0
2582,73.0,0,60,4.0,80.0
2583,64.0,0,60,5.0,80.0
2584,61.0,0,60,5.0,80.0
2585,57.0,0,60,6.0,80.0
2586,45.0,0,60,6.0,80.0
2587,73.0,30,30,7.0,100.0
2588,57.0,0,60,6.0,80.0
2589,45.0,0,60,6.0,80.0
2590,81.0,30,120,4.0,80.0
2591,73.0,0,120,4.0,80.0
2592,64.0,0,120,5.0,80.0
2593,61.0,0,120,5.0,80.0
2594,81.0,0,120,7.0,100.0
2595,57.0,0,120,7.0,100.0
2596,45.0,0,120,7.0,100.0
2597,33.0,0,120,7.0,100.0
2598,57.0,120,60,6.0,80.0
2599,45.0,0,60,6.0,80.0
2600,57.0,120,60,6.0,80.0
2601,45.0,0,60,6.0,80.0
2602,69.0,0,120,7.0,100.0
2603,61.0,0,120,7.0,100.0
2604,54.0,0,120,7.0,100.0
2605,42.0,0,120,7.0,100.0
2606,74.0,240,120,7.0,100.0
2607,66.0,0,120,7.0,100.0
2608,69.0,0,120,7.0,100.0
2609,59.0,0,120,7.0,100.0
2610,47.0,0,120,7.0,100.0
2611,35.0,0,120,7.0,100.0
2612,68.0,240,120,7.0,100.0
2613,62.0,0,120,7.0,100.0
2614,64.0,0,120,7.0,100.0
2615,59.0,0,120,7.0,100.0
2616,52.0,0,120,7.0,100.0
2617,40.0,0,120,7.0,100.0
2618,69.0,0,120,7.0,100.0
2619,60.0,0,120,7.0,100.0
2620,64.0,0,120,7.0,100.0
2621,57.0,0,120,7.0,100.0
2622,45.0,0,120,7.0,100.0
2623,33.0,0,120,7.0,100.0
2624,69.0,240,360,3.0,127.0
2625,60.0,240,120,7.0,100.0
2626,57.0,0,120,7.0,100.0
2627,53.0,0,120,7.0,100.0
2628,41.0,0,120,7.0,100.0
2629,71.0,120,60,3.0,127.0
2630,72.0,60,60,3.0,127.0
2631,71.0,60,60,3.0,127.0
2632,74.0,60,60,3.0,127.0
2633,65.0,0,120,7.0,100.0
2634,59.0,0,120,7.0,100.0
2635,57.0,0,120,7.0,100.0
2636,50.0,0,120,7.0,100.0
2637,38.0,0,120,7.0,100.0
2638,77.0,60,240,3.0,127.0
2639,59.0,120,120,7.0,100.0
2640,56.0,0,120,7.0,100.0
2641,52.0,0,120,7.0,100.0
2642,40.0,0,120,7.0,100.0
2643,76.0,120,60,3.0,127.0
2644,74.0,60,60,3.0,127.0
2645,74.0,60,30,3.0,127.0
2646,60.0,0,30,7.0,100.0
2647,57.0,0,30,7.0,100.0
2648,52.0,0,30,7.0,100.0
2649,45.0,0,30,7.0,100.0
2650,33.0,0,30,7.0,100.0
2651,72.0,30,30,3.0,127.0
2652,71.0,30,30,3.0,127.0
2653,64.0,0,30,7.0,100.0
2654,60.0,0,30,7.0,100.0
2655,52.0,0,30,7.0,100.0
2656,57.0,0,30,7.0,100.0
2657,45.0,0,30,7.0,100.0
2658,69.0,30,30,3.0,127.0
2659,60.0,0,30,7.0,100.0
2660,57.0,0,30,7.0,100.0
2661,52.0,0,30,7.0,100.0
2662,45.0,0,30,7.0,100.0
2663,33.0,0,30,7.0,100.0
2664,64.0,60,30,7.0,100.0
2665,60.0,0,30,7.0,100.0
2666,52.0,0,30,7.0,100.0
2667,57.0,0,30,7.0,100.0
2668,45.0,0,30,7.0,100.0
2669,69.0,30,120,3.0,127.0
2670,72.0,60,60,3.0,127.0
2671,60.0,60,120,7.0,100.0
2672,57.0,0,120,7.0,100.0
2673,52.0,0,120,7.0,100.0
2674,45.0,0,120,7.0,100.0
2675,33.0,0,120,7.0,100.0
2676,74.0,60,60,3.0,127.0
2677,76.0,60,60,3.0,127.0
2678,60.0,0,90,7.0,100.0
2679,44.0,0,90,7.0,100.0
2680,60.0,90,30,7.0,100.0
2681,56.0,0,120,7.0,100.0
2682,44.0,0,30,7.0,100.0
2683,59.0,30,90,7.0,100.0
2684,43.0,0,90,7.0,100.0
2685,65.0,120,240,7.0,100.0
2686,59.0,90,30,7.0,100.0
2687,55.0,0,120,7.0,100.0
2688,43.0,0,30,7.0,100.0
2689,60.0,0,90,7.0,100.0
2690,44.0,0,90,7.0,100.0
2691,65.0,30,120,7.0,100.0
2692,60.0,90,30,7.0,100.0
2693,56.0,0,120,7.0,100.0
2694,44.0,0,30,7.0,100.0
2695,77.0,60,520,3.0,127.0
2696,74.0,40,20,3.0,127.0
2697,71.0,40,20,3.0,127.0
2698,65.0,30,120,7.0,100.0
2699,59.0,0,120,7.0,100.0
2700,55.0,0,120,7.0,100.0
2701,43.0,0,120,7.0,100.0
2702,67.0,40,20,3.0,127.0
2703,71.0,40,20,3.0,127.0
2704,74.0,40,20,3.0,127.0
2705,77.0,40,20,3.0,127.0
2706,74.0,40,20,3.0,127.0
2707,71.0,40,20,3.0,127.0
2708,65.0,0,120,7.0,100.0
2709,59.0,0,120,7.0,100.0
2710,62.0,0,120,7.0,100.0
2711,55.0,0,120,7.0,100.0
2712,43.0,0,120,7.0,100.0
2713,67.0,40,20,3.0,127.0
2714,71.0,40,20,3.0,127.0
2715,74.0,40,20,3.0,127.0
2716,77.0,40,30,3.0,127.0
2717,74.0,30,30,3.0,127.0
2718,71.0,30,15,3.0,127.0
2719,67.0,30,15,3.0,127.0
2720,65.0,30,15,3.0,127.0
2721,62.0,30,15,3.0,127.0
2722,59.0,30,15,3.0,127.0
2723,55.0,30,15,3.0,127.0
2724,53.0,30,30,3.0,127.0
2725,55.0,30,30,3.0,127.0
2726,59.0,30,15,3.0,127.0
2727,62.0,30,15,3.0,127.0
2728,65.0,30,15,3.0,127.0
2729,67.0,30,15,3.0,127.0
2730,71.0,30,15,3.0,127.0
2731,74.0,30,15,3.0,127.0
2732,77.0,30,60,3.0,127.0
2733,76.0,60,60,3.0,127.0
2734,65.0,0,600,7.0,100.0
2735,59.0,0,600,7.0,100.0
2736,62.0,0,600,7.0,100.0
2737,55.0,0,600,7.0,100.0
2738,43.0,0,600,7.0,100.0
2739,74.0,60,60,3.0,127.0
2740,72.0,60,60,3.0,127.0
2741,71.0,60,60,3.0,127.0
2742,81.0,60,60,3.0,127.0
2743,79.0,60,60,3.0,127.0
2744,77.0,60,60,3.0,127.0
2745,75.0,60,120,3.0,127.0
2746,64.0,0,60,7.0,100.0
2747,55.0,0,60,7.0,100.0
2748,48.0,0,60,7.0,100.0
2749,76.0,120,120,3.0,127.0
2750,64.0,120,60,7.0,100.0
2751,60.0,0,60,7.0,100.0
2752,48.0,0,60,7.0,100.0
2753,67.0,60,60,3.0,127.0
2754,72.0,60,60,3.0,127.0
2755,76.0,60,60,3.0,127.0
2756,65.0,0,60,7.0,100.0
2757,67.0,60,60,7.0,100.0
2758,74.0,60,180,3.0,127.0
2759,65.0,60,60,7.0,100.0
2760,76.0,60,60,3.0,127.0
2761,67.0,0,60,7.0,100.0
2762,77.0,60,60,3.0,127.0
2763,65.0,0,60,7.0,100.0
2764,74.0,60,60,3.0,127.0
2765,67.0,0,60,7.0,100.0
2766,69.0,60,60,3.0,127.0
2767,65.0,0,60,7.0,100.0
2768,71.0,60,60,3.0,127.0
2769,67.0,0,60,7.0,100.0
2770,72.0,60,30,3.0,127.0
2771,64.0,0,60,7.0,100.0
2772,76.0,60,30,3.0,127.0
2773,67.0,0,60,7.0,100.0
2774,64.0,0,60,7.0,100.0
2775,67.0,60,60,7.0,100.0
2776,79.0,60,180,3.0,127.0
2777,64.0,60,60,7.0,100.0
2778,78.0,60,60,3.0,127.0
2779,67.0,0,60,7.0,100.0
2780,77.0,60,60,3.0,127.0
2781,64.0,0,60,7.0,100.0
2782,76.0,60,60,3.0,127.0
2783,67.0,0,60,7.0,100.0
2784,65.0,0,60,7.0,100.0
2785,67.0,60,60,7.0,100.0
2786,74.0,60,180,3.0,127.0
2787,65.0,60,60,7.0,100.0
2788,76.0,60,60,3.0,127.0
2789,67.0,0,60,7.0,100.0
2790,77.0,60,60,3.0,127.0
2791,65.0,0,60,7.0,100.0
2792,74.0,60,60,3.0,127.0
2793,67.0,0,60,7.0,100.0
2794,69.0,60,60,3.0,127.0
2795,65.0,0,60,7.0,100.0
2796,71.0,60,60,3.0,127.0
2797,67.0,0,60,7.0,100.0
2798,72.0,60,60,3.0,127.0
2799,76.0,60,60,3.0,127.0
2800,79.0,60,180,3.0,127.0
2801,76.0,180,60,3.0,127.0
2802,74.0,60,60,3.0,127.0
2803,72.0,60,60,3.0,127.0
2804,64.0,0,480,7.0,100.0
2805,71.0,60,60,3.0,127.0
2806,74.0,60,60,3.0,127.0
2807,79.0,60,180,3.0,127.0
2808,74.0,180,60,3.0,127.0
2809,72.0,60,60,3.0,127.0
2810,71.0,60,60,3.0,127.0
2811,67.0,0,960,7.0,100.0
2812,62.0,0,480,7.0,100.0
2813,70.0,60,120,3.0,127.0
2814,67.0,0,120,7.0,100.0
2815,61.0,0,120,7.0,100.0
2816,49.0,120,240,3.0,127.0
2817,70.0,0,240,7.0,100.0
2818,67.0,0,240,7.0,100.0
2819,64.0,0,240,7.0,100.0
2820,47.0,240,120,3.0,127.0
2821,71.0,0,120,7.0,100.0
2822,46.0,120,120,3.0,127.0
2823,73.0,0,120,7.0,100.0
2824,79.0,120,240,3.0,127.0
2825,67.0,0,480,7.0,100.0
2826,64.0,0,480,7.0,100.0
2827,61.0,0,240,7.0,100.0
2828,46.0,0,240,7.0,100.0
2829,34.0,0,240,7.0,100.0
2830,78.0,240,60,3.0,127.0
2831,76.0,60,60,3.0,127.0
2832,64.0,0,120,7.0,100.0
2833,59.0,0,120,7.0,100.0
2834,47.0,0,120,7.0,100.0
2835,35.0,0,120,7.0,100.0
2836,67.0,0,240,7.0,100.0
2837,64.0,0,120,7.0,100.0
2838,58.0,0,120,7.0,100.0
2839,48.0,0,120,7.0,100.0
2840,36.0,0,120,7.0,100.0
2841,76.0,60,180,3.0,127.0
2842,74.0,60,20,3.0,127.0
2843,72.0,20,20,3.0,127.0
2844,71.0,20,20,3.0,127.0
2845,67.0,120,120,7.0,100.0
2846,64.0,0,120,7.0,100.0
2847,70.0,20,60,3.0,127.0
2848,67.0,60,60,7.0,100.0
2849,52.0,0,60,7.0,100.0
2850,48.0,0,120,7.0,100.0
2851,36.0,0,120,7.0,100.0
2852,70.0,60,60,3.0,127.0
2853,66.0,0,60,7.0,100.0
2854,51.0,0,60,7.0,100.0
2855,64.0,60,60,7.0,100.0
2856,58.0,0,360,7.0,100.0
2857,52.0,0,60,7.0,100.0
2858,63.0,0,60,7.0,100.0
2859,59.0,0,60,7.0,100.0
2860,75.0,60,30,7.0,100.0
2861,71.0,0,30,7.0,100.0
2862,71.0,60,120,3.0,127.0
2863,76.0,30,30,7.0,100.0
2864,73.0,0,30,7.0,100.0
2865,54.0,0,120,7.0,100.0
2866,47.0,0,120,7.0,100.0
2867,35.0,0,120,7.0,100.0
2868,78.0,30,60,7.0,100.0
2869,75.0,0,60,7.0,100.0
2870,79.0,60,30,7.0,100.0
2871,76.0,0,30,7.0,100.0
2872,47.0,60,30,3.0,127.0
2873,49.0,60,30,3.0,127.0
2874,51.0,60,30,3.0,127.0
2875,81.0,60,240,7.0,100.0
2876,52.0,60,30,3.0,127.0
2877,51.0,30,30,3.0,127.0
2878,78.0,0,300,7.0,100.0
2879,52.0,30,30,3.0,127.0
2880,51.0,30,30,3.0,127.0
2881,79.0,0,120,7.0,100.0
2882,71.0,0,60,7.0,100.0
2883,52.0,30,30,3.0,127.0
2884,51.0,30,30,3.0,127.0
2885,73.0,0,60,7.0,100.0
2886,52.0,30,30,3.0,127.0
2887,79.0,0,90,7.0,100.0
2888,54.0,30,30,3.0,127.0
2889,79.0,0,30,7.0,100.0
2890,75.0,0,60,7.0,100.0
2891,79.0,0,15,7.0,100.0
2892,76.0,0,15,7.0,100.0
2893,55.0,30,30,3.0,127.0
2894,81.0,15,15,7.0,100.0
2895,78.0,0,15,7.0,100.0
2896,79.0,0,15,7.0,100.0
2897,76.0,0,15,7.0,100.0
2898,54.0,15,30,3.0,127.0
2899,81.0,15,15,7.0,100.0
2900,78.0,0,15,7.0,100.0
2901,79.0,0,15,7.0,100.0
2902,76.0,0,15,7.0,100.0
2903,52.0,15,30,3.0,127.0
2904,81.0,15,15,7.0,100.0
2905,78.0,0,15,7.0,100.0
2906,79.0,0,15,7.0,100.0
2907,76.0,0,15,7.0,100.0
2908,54.0,15,30,3.0,127.0
2909,81.0,15,15,7.0,100.0
2910,78.0,0,15,7.0,100.0
2911,79.0,0,15,7.0,100.0
2912,76.0,0,15,7.0,100.0
2913,55.0,15,30,3.0,127.0
2914,81.0,15,15,7.0,100.0
2915,78.0,0,15,7.0,100.0
2916,79.0,0,15,7.0,100.0
2917,76.0,0,15,7.0,100.0
2918,54.0,15,30,3.0,127.0
2919,81.0,15,15,7.0,100.0
2920,55.0,15,30,3.0,127.0
2921,78.0,0,45,7.0,100.0
2922,75.0,0,30,7.0,100.0
2923,57.0,30,30,3.0,127.0
2924,79.0,0,30,7.0,100.0
2925,76.0,0,30,7.0,100.0
2926,78.0,0,60,7.0,100.0
2927,75.0,0,60,7.0,100.0
2928,75.0,60,30,4.0,80.0
2929,71.0,0,30,4.0,80.0
2930,63.0,0,30,7.0,100.0
2931,59.0,0,30,7.0,100.0
2932,59.0,30,120,3.0,127.0
2933,76.0,30,30,4.0,80.0
2934,73.0,0,30,4.0,80.0
2935,64.0,0,30,7.0,100.0
2936,61.0,0,30,7.0,100.0
2937,78.0,0,60,4.0,80.0
2938,75.0,0,60,4.0,80.0
2939,66.0,0,60,7.0,100.0
2940,63.0,0,60,7.0,100.0
2941,79.0,60,30,4.0,80.0
2942,76.0,0,30,4.0,80.0
2943,67.0,0,30,7.0,100.0
2944,64.0,0,30,7.0,100.0
2945,47.0,30,120,3.0,127.0
2946,47.0,60,30,3.0,127.0
2947,49.0,60,30,3.0,127.0
2948,51.0,60,30,3.0,127.0
2949,81.0,60,240,4.0,80.0
2950,69.0,0,240,7.0,100.0
2951,52.0,60,30,3.0,127.0
2952,51.0,30,30,3.0,127.0
2953,66.0,0,300,7.0,100.0
2954,52.0,30,30,3.0,127.0
2955,51.0,30,30,3.0,127.0
2956,67.0,0,120,7.0,100.0
2957,59.0,0,60,7.0,100.0
2958,52.0,30,30,3.0,127.0
2959,51.0,30,30,3.0,127.0
2960,61.0,0,60,7.0,100.0
2961,52.0,30,30,3.0,127.0
2962,67.0,0,90,7.0,100.0
2963,54.0,30,30,3.0,127.0
2964,78.0,0,480,4.0,80.0
2965,67.0,0,30,7.0,100.0
2966,63.0,0,60,7.0,100.0
2967,67.0,0,15,7.0,100.0
2968,64.0,0,15,7.0,100.0
2969,55.0,30,30,3.0,127.0
2970,69.0,15,15,7.0,100.0
2971,66.0,0,15,7.0,100.0
2972,67.0,0,15,7.0,100.0
2973,64.0,0,15,7.0,100.0
2974,54.0,15,30,3.0,127.0
2975,69.0,15,15,7.0,100.0
2976,66.0,0,15,7.0,100.0
2977,67.0,0,15,7.0,100.0
2978,64.0,0,15,7.0,100.0
2979,52.0,15,30,3.0,127.0
2980,69.0,15,15,7.0,100.0
2981,66.0,0,15,7.0,100.0
2982,67.0,0,15,7.0,100.0
2983,64.0,0,15,7.0,100.0
2984,54.0,15,30,3.0,127.0
2985,69.0,15,15,7.0,100.0
2986,66.0,0,15,7.0,100.0
2987,67.0,0,15,7.0,100.0
2988,64.0,0,15,7.0,100.0
2989,55.0,15,30,3.0,127.0
2990,69.0,15,15,7.0,100.0
2991,66.0,0,15,7.0,100.0
2992,67.0,0,15,7.0,100.0
2993,64.0,0,15,7.0,100.0
2994,54.0,15,30,3.0,127.0
2995,69.0,15,15,7.0,100.0
2996,55.0,15,30,3.0,127.0
2997,66.0,0,45,7.0,100.0
2998,63.0,0,30,7.0,100.0
2999,57.0,30,30,3.0,127.0
3000,79.0,0,480,4.0,80.0
3001,76.0,0,240,4.0,80.0
3002,67.0,0,30,7.0,100.0
3003,64.0,0,30,7.0,100.0
3004,47.0,60,30,5.0,80.0
3005,59.0,0,30,7.0,100.0
3006,47.0,0,30,7.0,100.0
3007,35.0,0,30,7.0,100.0
3008,59.0,30,120,3.0,127.0
3009,78.0,0,120,4.0,80.0
3010,75.0,0,120,4.0,80.0
3011,66.0,0,120,7.0,100.0
3012,63.0,0,120,7.0,100.0
3013,49.0,60,30,5.0,80.0
3014,61.0,0,30,7.0,100.0
3015,49.0,0,30,7.0,100.0
3016,37.0,0,30,7.0,100.0
3017,83.0,60,30,4.0,80.0
3018,78.0,0,30,4.0,80.0
3019,51.0,0,30,5.0,80.0
3020,71.0,0,30,7.0,100.0
3021,66.0,0,30,7.0,100.0
3022,63.0,0,30,7.0,100.0
3023,51.0,0,30,7.0,100.0
3024,39.0,0,30,7.0,100.0
3025,79.0,60,30,4.0,80.0
3026,76.0,0,30,4.0,80.0
3027,52.0,0,30,5.0,80.0
3028,67.0,0,30,7.0,100.0
3029,64.0,0,30,7.0,100.0
3030,52.0,0,30,7.0,100.0
3031,40.0,0,30,7.0,100.0
3032,51.0,30,30,5.0,80.0
3033,59.0,0,60,6.0,80.0
3034,52.0,0,60,6.0,80.0
3035,63.0,0,30,7.0,100.0
3036,51.0,0,30,7.0,100.0
3037,39.0,0,30,7.0,100.0
3038,52.0,30,30,5.0,80.0
3039,64.0,0,30,7.0,100.0
3040,52.0,0,30,7.0,100.0
3041,40.0,0,30,7.0,100.0
3042,54.0,30,30,5.0,80.0
3043,66.0,0,30,7.0,100.0
3044,54.0,0,30,7.0,100.0
3045,42.0,0,30,7.0,100.0
3046,88.0,30,30,4.0,80.0
3047,79.0,0,30,4.0,80.0
3048,55.0,0,30,5.0,80.0
3049,68.0,0,30,7.0,100.0
3050,76.0,0,30,7.0,100.0
3051,59.0,0,30,7.0,100.0
3052,67.0,0,30,7.0,100.0
3053,55.0,0,30,7.0,100.0
3054,43.0,0,30,7.0,100.0
3055,54.0,30,30,5.0,80.0
3056,59.0,0,60,6.0,80.0
3057,52.0,0,60,6.0,80.0
3058,66.0,0,30,7.0,100.0
3059,54.0,0,30,7.0,100.0
3060,42.0,0,30,7.0,100.0
3061,55.0,30,30,5.0,80.0
3062,67.0,0,30,7.0,100.0
3063,55.0,0,30,7.0,100.0
3064,43.0,0,30,7.0,100.0
3065,57.0,30,30,5.0,80.0
3066,69.0,0,30,7.0,100.0
3067,57.0,0,30,7.0,100.0
3068,45.0,0,30,7.0,100.0
3069,59.0,0,60,5.0,80.0
3070,71.0,0,60,7.0,100.0
3071,47.0,60,30,5.0,80.0
3072,47.0,0,90,7.0,100.0
3073,35.0,0,30,7.0,100.0
3074,87.0,30,120,4.0,80.0
3075,78.0,0,120,4.0,80.0
3076,59.0,0,120,6.0,80.0
3077,75.0,0,120,7.0,100.0
3078,59.0,0,120,7.0,100.0
3079,66.0,0,120,7.0,100.0
3080,49.0,60,30,5.0,80.0
3081,61.0,0,30,7.0,100.0
3082,49.0,0,30,7.0,100.0
3083,37.0,0,30,7.0,100.0
3084,83.0,60,30,4.0,80.0
3085,78.0,0,30,4.0,80.0
3086,51.0,0,30,5.0,80.0
3087,71.0,0,30,7.0,100.0
3088,54.0,0,30,7.0,100.0
3089,63.0,0,30,7.0,100.0
3090,51.0,0,30,7.0,100.0
3091,39.0,0,30,7.0,100.0
3092,79.0,60,30,4.0,80.0
3093,76.0,0,30,4.0,80.0
3094,52.0,0,30,5.0,80.0
3095,67.0,0,30,7.0,100.0
3096,64.0,0,30,7.0,100.0
3097,52.0,0,30,7.0,100.0
3098,40.0,0,30,7.0,100.0
3099,51.0,30,30,5.0,80.0
3100,59.0,0,60,6.0,80.0
3101,52.0,0,60,6.0,80.0
3102,63.0,0,30,7.0,100.0
3103,51.0,0,30,7.0,100.0
3104,39.0,0,30,7.0,100.0
3105,52.0,30,30,5.0,80.0
3106,64.0,0,30,7.0,100.0
3107,52.0,0,30,7.0,100.0
3108,40.0,0,30,7.0,100.0
3109,54.0,30,30,5.0,80.0
3110,66.0,0,30,7.0,100.0
3111,54.0,0,30,7.0,100.0
3112,42.0,0,30,7.0,100.0
3113,91.0,30,30,4.0,80.0
3114,88.0,0,30,4.0,80.0
3115,55.0,0,30,5.0,80.0
3116,71.0,0,30,7.0,100.0
3117,79.0,0,30,7.0,100.0
3118,59.0,0,30,7.0,100.0
3119,76.0,0,30,7.0,100.0
3120,67.0,0,30,7.0,100.0
3121,55.0,0,30,7.0,100.0
3122,43.0,0,30,7.0,100.0
3123,54.0,30,30,5.0,80.0
3124,59.0,0,60,6.0,80.0
3125,52.0,0,60,6.0,80.0
3126,66.0,0,30,7.0,100.0
3127,54.0,0,30,7.0,100.0
3128,42.0,0,30,7.0,100.0
3129,55.0,30,30,5.0,80.0
3130,67.0,0,30,7.0,100.0
3131,55.0,0,30,7.0,100.0
3132,43.0,0,30,7.0,100.0
3133,57.0,30,30,5.0,80.0
3134,69.0,0,30,7.0,100.0
3135,57.0,0,30,7.0,100.0
3136,45.0,0,30,7.0,100.0
3137,90.0,0,120,4.0,80.0
3138,87.0,0,120,4.0,80.0
3139,59.0,0,120,5.0,80.0
3140,59.0,0,120,6.0,80.0
3141,78.0,0,120,7.0,100.0
3142,66.0,0,120,7.0,100.0
3143,75.0,0,120,7.0,100.0
3144,71.0,0,120,7.0,100.0
3145,59.0,0,120,7.0,100.0
3146,47.0,0,120,7.0,100.0
3147,71.0,30,300,3.0,127.0
3148,73.0,300,60,3.0,127.0
3149,75.0,60,60,3.0,127.0
3150,76.0,60,60,3.0,127.0
3151,76.0,60,60,3.0,127.0
3152,75.0,60,60,3.0,127.0
3153,71.0,60,60,3.0,127.0
3154,68.0,60,60,3.0,127.0
3155,63.0,0,240,7.0,100.0
3156,59.0,0,240,7.0,100.0
3157,65.0,60,60,3.0,127.0
3158,66.0,60,60,3.0,127.0
3159,69.0,60,60,3.0,127.0
3160,73.0,60,60,3.0,127.0
3161,61.0,0,240,7.0,100.0
3162,57.0,0,240,7.0,100.0
3163,73.0,60,60,3.0,127.0
3164,71.0,60,60,3.0,127.0
3165,68.0,60,60,3.0,127.0
3166,64.0,60,60,3.0,127.0
3167,59.0,0,240,7.0,100.0
3168,56.0,0,240,7.0,100.0
3169,64.0,60,60,3.0,127.0
3170,63.0,60,60,3.0,127.0
3171,66.0,60,60,3.0,127.0
3172,69.0,60,60,3.0,127.0
3173,63.0,0,120,7.0,100.0
3174,57.0,0,240,7.0,100.0
3175,54.0,0,240,7.0,100.0
3176,68.0,60,30,3.0,127.0
3177,69.0,30,30,3.0,127.0
3178,71.0,30,15,3.0,127.0
3179,73.0,30,15,3.0,127.0
3180,64.0,0,120,7.0,100.0
3181,59.0,0,120,7.0,100.0
3182,75.0,30,15,3.0,127.0
3183,76.0,30,15,3.0,127.0
3184,78.0,30,15,3.0,127.0
3185,80.0,30,15,3.0,127.0
3186,52.0,0,240,7.0,100.0
3187,63.0,60,60,7.0,100.0
3188,81.0,30,180,3.0,127.0
3189,66.0,60,60,7.0,100.0
3190,63.0,0,60,7.0,100.0
3191,75.0,60,60,3.0,127.0
3192,69.0,0,60,7.0,100.0
3193,66.0,0,60,7.0,100.0
3194,35.0,0,240,7.0,100.0
3195,78.0,60,60,3.0,127.0
3196,68.0,0,60,7.0,100.0
3197,64.0,0,60,7.0,100.0
3198,59.0,0,300,7.0,100.0
3199,76.0,60,60,3.0,127.0
3200,71.0,0,60,7.0,100.0
3201,68.0,0,60,7.0,100.0
3202,64.0,0,60,7.0,100.0
3203,52.0,0,120,7.0,100.0
3204,40.0,0,120,7.0,100.0
3205,71.0,0,60,7.0,100.0
3206,68.0,0,60,7.0,100.0
3207,64.0,0,60,7.0,100.0
3208,71.0,60,60,7.0,100.0
3209,68.0,0,60,7.0,100.0
3210,64.0,0,60,7.0,100.0
3211,76.0,60,180,3.0,127.0
3212,78.0,60,30,3.0,127.0
3213,80.0,30,30,3.0,127.0
3214,71.0,0,60,7.0,100.0
3215,68.0,0,60,7.0,100.0
3216,64.0,0,60,7.0,100.0
3217,52.0,60,120,7.0,100.0
3218,40.0,0,120,7.0,100.0
3219,78.0,30,30,3.0,127.0
3220,71.0,0,60,7.0,100.0
3221,68.0,0,60,7.0,100.0
3222,64.0,0,60,7.0,100.0
3223,76.0,60,30,3.0,127.0
3224,71.0,0,60,7.0,100.0
3225,68.0,0,60,7.0,100.0
3226,64.0,0,60,7.0,100.0
3227,75.0,60,40,3.0,127.0
3228,78.0,40,40,3.0,127.0
3229,81.0,40,40,3.0,127.0
3230,71.0,0,120,7.0,100.0
3231,69.0,0,120,7.0,100.0
3232,66.0,0,120,7.0,100.0
3233,54.0,0,120,7.0,100.0
3234,42.0,0,120,7.0,100.0
3235,78.0,40,40,3.0,127.0
3236,75.0,40,40,3.0,127.0
3237,71.0,40,40,3.0,127.0
3238,69.0,40,120,3.0,127.0
3239,69.0,60,60,7.0,100.0
3240,66.0,0,60,7.0,100.0
3241,47.0,0,120,7.0,100.0
3242,35.0,0,120,7.0,100.0
3243,68.0,60,60,7.0,100.0
3244,64.0,0,60,7.0,100.0
3245,66.0,60,60,7.0,100.0
3246,63.0,0,60,7.0,100.0
3247,68.0,60,60,3.0,127.0
3248,68.0,0,60,7.0,100.0
3249,64.0,0,60,7.0,100.0
3250,59.0,0,180,7.0,100.0
3251,71.0,60,60,3.0,127.0
3252,71.0,0,60,7.0,100.0
3253,68.0,0,60,7.0,100.0
3254,64.0,0,60,7.0,100.0
3255,52.0,0,120,7.0,100.0
3256,40.0,0,120,7.0,100.0
3257,71.0,0,60,7.0,100.0
3258,68.0,0,60,7.0,100.0
3259,64.0,0,60,7.0,100.0
3260,71.0,60,60,7.0,100.0
3261,68.0,0,60,7.0,100.0
3262,64.0,0,60,7.0,100.0
3263,76.0,60,180,3.0,127.0
3264,78.0,60,30,3.0,127.0
3265,80.0,30,30,3.0,127.0
3266,71.0,0,60,7.0,100.0
3267,68.0,0,60,7.0,100.0
3268,64.0,0,60,7.0,100.0
3269,52.0,60,120,7.0,100.0
3270,40.0,0,120,7.0,100.0
3271,78.0,30,60,3.0,127.0
3272,71.0,0,60,7.0,100.0
3273,68.0,0,60,7.0,100.0
3274,64.0,0,60,7.0,100.0
3275,76.0,60,60,3.0,127.0
3276,71.0,0,60,7.0,100.0
3277,68.0,0,60,7.0,100.0
3278,64.0,0,60,7.0,100.0
3279,75.0,60,30,3.0,127.0
3280,78.0,30,30,3.0,127.0
3281,81.0,30,30,3.0,127.0
3282,78.0,30,30,3.0,127.0
3283,71.0,0,120,7.0,100.0
3284,69.0,0,120,7.0,100.0
3285,66.0,0,120,7.0,100.0
3286,54.0,0,120,7.0,100.0
3287,42.0,0,120,7.0,100.0
3288,75.0,30,30,3.0,127.0
3289,71.0,30,30,3.0,127.0
3290,69.0,30,30,3.0,127.0
3291,66.0,30,30,3.0,127.0
3292,63.0,30,120,3.0,127.0
3293,69.0,60,60,7.0,100.0
3294,66.0,0,60,7.0,100.0
3295,47.0,0,120,7.0,100.0
3296,35.0,0,120,7.0,100.0
3297,68.0,60,60,7.0,100.0
3298,64.0,0,60,7.0,100.0
3299,66.0,60,60,7.0,100.0
3300,63.0,0,60,7.0,100.0
3301,76.0,60,30,3.0,127.0
3302,75.0,30,30,3.0,127.0
3303,78.0,30,30,3.0,127.0
3304,76.0,30,30,3.0,127.0
3305,68.0,0,120,7.0,100.0
3306,64.0,0,120,7.0,100.0
3307,59.0,0,240,7.0,100.0
3308,52.0,0,120,7.0,100.0
3309,40.0,0,120,7.0,100.0
3310,80.0,30,30,3.0,127.0
3311,78.0,30,30,3.0,127.0
3312,76.0,30,30,3.0,127.0
3313,75.0,30,30,3.0,127.0
3314,71.0,0,60,7.0,100.0
3315,56.0,0,60,7.0,100.0
3316,73.0,30,30,3.0,127.0
3317,72.0,30,30,3.0,127.0
3318,75.0,30,30,3.0,127.0
3319,73.0,30,30,3.0,127.0
3320,69.0,0,120,7.0,100.0
3321,64.0,0,180,7.0,100.0
3322,57.0,0,120,7.0,100.0
3323,76.0,30,60,3.0,127.0
3324,71.0,60,60,7.0,100.0
3325,56.0,0,60,7.0,100.0
3326,73.0,60,30,3.0,127.0
3327,72.0,30,30,3.0,127.0
3328,75.0,30,30,3.0,127.0
3329,73.0,30,30,3.0,127.0
3330,73.0,0,120,7.0,100.0
3331,64.0,0,180,7.0,100.0
3332,57.0,0,120,7.0,100.0
3333,76.0,30,30,3.0,127.0
3334,75.0,30,30,3.0,127.0
3335,73.0,30,30,3.0,127.0
3336,71.0,30,30,3.0,127.0
3337,68.0,0,60,7.0,100.0
3338,53.0,0,60,7.0,100.0
3339,69.0,30,30,3.0,127.0
3340,68.0,30,30,3.0,127.0
3341,71.0,30,30,3.0,127.0
3342,69.0,30,30,3.0,127.0
3343,66.0,0,120,7.0,100.0
3344,61.0,0,180,7.0,100.0
3345,54.0,0,120,7.0,100.0
3346,73.0,30,60,3.0,127.0
3347,68.0,60,60,7.0,100.0
3348,53.0,0,60,7.0,100.0
3349,69.0,60,30,3.0,127.0
3350,68.0,30,30,3.0,127.0
3351,71.0,30,30,3.0,127.0
3352,69.0,30,30,3.0,127.0
3353,69.0,0,120,7.0,100.0
3354,61.0,0,180,7.0,100.0
3355,54.0,0,120,7.0,100.0
3356,73.0,30,30,3.0,127.0
3357,71.0,30,30,3.0,127.0
3358,69.0,30,30,3.0,127.0
3359,68.0,30,30,3.0,127.0
3360,65.0,0,60,7.0,100.0
3361,59.0,0,60,7.0,100.0
3362,56.0,0,60,7.0,100.0
3363,66.0,30,30,3.0,127.0
3364,65.0,30,30,3.0,127.0
3365,68.0,30,30,3.0,127.0
3366,66.0,30,30,3.0,127.0
3367,66.0,0,120,7.0,100.0
3368,61.0,0,120,7.0,100.0
3369,57.0,0,120,7.0,100.0
3370,69.0,30,30,3.0,127.0
3371,68.0,30,30,3.0,127.0
3372,66.0,30,30,3.0,127.0
3373,64.0,30,30,3.0,127.0
3374,64.0,0,60,7.0,100.0
3375,61.0,0,60,7.0,100.0
3376,58.0,0,60,7.0,100.0
3377,63.0,30,30,3.0,127.0
3378,59.0,30,30,3.0,127.0
3379,57.0,30,30,3.0,127.0
3380,54.0,30,30,3.0,127.0
3381,57.0,30,30,3.0,127.0
3382,59.0,30,30,3.0,127.0
3383,63.0,30,30,3.0,127.0
3384,66.0,30,30,3.0,127.0
3385,69.0,30,30,3.0,127.0
3386,71.0,30,30,3.0,127.0
3387,75.0,30,30,3.0,127.0
3388,78.0,30,30,3.0,127.0
3389,47.0,0,360,7.0,100.0
3390,35.0,0,360,7.0,100.0
3391,81.0,30,30,3.0,127.0
3392,78.0,30,30,3.0,127.0
3393,75.0,30,30,3.0,127.0
3394,78.0,30,30,3.0,127.0
3395,63.0,0,480,7.0,100.0
3396,54.0,0,480,7.0,100.0
3397,45.0,0,120,7.0,100.0
3398,33.0,0,120,7.0,100.0
3399,76.0,30,60,3.0,127.0
3400,83.0,60,60,3.0,127.0
3401,64.0,0,120,7.0,100.0
3402,59.0,0,600,7.0,100.0
3403,56.0,0,120,7.0,100.0
3404,44.0,0,120,7.0,100.0
3405,32.0,0,120,7.0,100.0
3406,81.0,60,60,3.0,127.0
3407,80.0,60,60,3.0,127.0
3408,78.0,60,60,3.0,127.0
3409,76.0,60,60,3.0,127.0
3410,75.0,60,60,3.0,127.0
3411,74.0,60,60,3.0,127.0
3412,71.0,0,120,7.0,100.0
3413,56.0,0,120,7.0,100.0
3414,73.0,60,60,3.0,127.0
3415,74.0,60,60,3.0,127.0
3416,73.0,0,120,7.0,100.0
3417,64.0,0,240,7.0,100.0
3418,57.0,0,120,7.0,100.0
3419,75.0,60,60,3.0,127.0
3420,76.0,60,60,3.0,127.0
3421,77.0,60,60,3.0,127.0
3422,78.0,60,60,3.0,127.0
3423,80.0,60,60,3.0,127.0
3424,81.0,60,60,3.0,127.0
3425,73.0,120,120,7.0,100.0
3426,67.0,0,120,7.0,100.0
3427,58.0,0,120,7.0,100.0
3428,34.0,0,120,7.0,100.0
3429,76.0,60,360,3.0,127.0
3430,71.0,120,120,7.0,100.0
3431,68.0,0,120,7.0,100.0
3432,80.0,120,60,3.0,127.0
3433,78.0,60,60,3.0,127.0
3434,75.0,0,120,7.0,100.0
3435,69.0,0,120,7.0,100.0
3436,59.0,0,240,7.0,100.0
3437,35.0,0,240,7.0,100.0
3438,76.0,0,60,7.0,100.0
3439,76.0,60,120,3.0,127.0
3440,68.0,0,120,7.0,100.0
3441,52.0,0,120,7.0,100.0
3442,28.0,0,120,7.0,100.0
3443,64.0,120,60,7.0,100.0
3444,68.0,60,60,7.0,100.0
3445,64.0,60,60,7.0,100.0
3446,76.0,60,60,3.0,127.0
3447,68.0,0,60,7.0,100.0
3448,75.0,60,60,3.0,127.0
3449,64.0,0,60,7.0,100.0
3450,73.0,60,60,3.0,127.0
3451,68.0,0,60,7.0,100.0
3452,72.0,60,60,3.0,127.0
3453,66.0,0,60,7.0,100.0
3454,75.0,60,60,3.0,127.0
3455,68.0,0,60,7.0,100.0
3456,66.0,0,60,7.0,100.0
3457,68.0,60,60,7.0,100.0
3458,66.0,60,60,7.0,100.0
3459,78.0,60,240,3.0,127.0
3460,68.0,60,60,7.0,100.0
3461,66.0,0,60,7.0,100.0
3462,72.0,60,120,3.0,127.0
3463,68.0,60,60,7.0,100.0
3464,64.0,0,60,7.0,100.0
3465,75.0,60,120,3.0,127.0
3466,68.0,60,60,7.0,100.0
3467,64.0,0,60,7.0,100.0
3468,73.0,60,120,3.0,127.0
3469,68.0,60,60,7.0,100.0
3470,64.0,60,60,7.0,100.0
3471,49.0,60,60,3.0,127.0
3472,68.0,0,60,7.0,100.0
3473,52.0,60,60,3.0,127.0
3474,64.0,0,60,7.0,100.0
3475,49.0,60,60,3.0,127.0
3476,68.0,0,60,7.0,100.0
3477,61.0,0,120,7.0,100.0
3478,56.0,60,60,3.0,127.0
3479,63.0,0,60,7.0,100.0
3480,55.0,60,60,3.0,127.0
3481,68.0,0,60,7.0,100.0
3482,56.0,60,60,3.0,127.0
3483,63.0,0,60,7.0,100.0
3484,55.0,60,60,3.0,127.0
3485,68.0,0,60,7.0,100.0
3486,56.0,60,60,3.0,127.0
3487,63.0,0,60,7.0,100.0
3488,55.0,60,60,3.0,127.0
3489,68.0,0,60,7.0,100.0
3490,56.0,60,60,3.0,127.0
3491,63.0,0,60,7.0,100.0
3492,54.0,60,60,3.0,127.0
3493,68.0,0,60,7.0,100.0
3494,60.0,0,480,7.0,100.0
3495,64.0,0,60,7.0,100.0
3496,52.0,60,120,3.0,127.0
3497,68.0,60,60,7.0,100.0
3498,61.0,0,120,7.0,100.0
3499,64.0,0,60,7.0,100.0
3500,49.0,60,120,3.0,127.0
3501,68.0,60,60,7.0,100.0
3502,64.0,60,60,7.0,100.0
3503,76.0,60,60,3.0,127.0
3504,68.0,0,60,7.0,100.0
3505,75.0,60,60,3.0,127.0
3506,64.0,0,60,7.0,100.0
3507,73.0,60,60,3.0,127.0
3508,68.0,0,60,7.0,100.0
3509,72.0,60,60,3.0,127.0
3510,66.0,0,60,7.0,100.0
3511,75.0,60,60,3.0,127.0
3512,68.0,0,60,7.0,100.0
3513,66.0,0,60,7.0,100.0
3514,68.0,60,60,7.0,100.0
3515,66.0,60,60,7.0,100.0
3516,78.0,60,240,3.0,127.0
3517,68.0,60,60,7.0,100.0
3518,66.0,0,60,7.0,100.0
3519,72.0,60,120,3.0,127.0
3520,68.0,60,60,7.0,100.0
3521,64.0,0,60,7.0,100.0
3522,75.0,60,120,3.0,127.0
3523,68.0,60,60,7.0,100.0
3524,64.0,0,60,7.0,100.0
3525,73.0,60,120,3.0,127.0
3526,68.0,60,60,7.0,100.0
3527,64.0,60,60,7.0,100.0
3528,49.0,60,60,3.0,127.0
3529,68.0,0,60,7.0,100.0
3530,52.0,60,60,3.0,127.0
3531,64.0,0,60,7.0,100.0
3532,49.0,60,60,3.0,127.0
3533,68.0,0,60,7.0,100.0
3534,61.0,0,120,7.0,100.0
3535,56.0,60,60,3.0,127.0
3536,63.0,0,60,7.0,100.0
3537,55.0,60,60,3.0,127.0
3538,68.0,0,60,7.0,100.0
3539,56.0,60,60,3.0,127.0
3540,63.0,0,60,7.0,100.0
3541,55.0,60,60,3.0,127.0
3542,68.0,0,60,7.0,100.0
3543,56.0,60,60,3.0,127.0
3544,63.0,0,60,7.0,100.0
3545,55.0,60,60,3.0,127.0
3546,68.0,0,60,7.0,100.0
3547,56.0,60,60,3.0,127.0
3548,63.0,0,60,7.0,100.0
3549,54.0,60,60,3.0,127.0
3550,68.0,0,60,7.0,100.0
3551,60.0,0,480,7.0,100.0
3552,64.0,0,60,7.0,100.0
3553,52.0,60,120,3.0,127.0
3554,68.0,60,60,7.0,100.0
3555,61.0,0,120,7.0,100.0
3556,64.0,0,60,7.0,100.0
3557,61.0,0,60,7.0,100.0
3558,49.0,60,120,3.0,127.0
3559,68.0,60,60,7.0,100.0
3560,73.0,40,20,3.0,127.0
3561,61.0,0,60,7.0,100.0
3562,75.0,40,20,3.0,127.0
3563,64.0,60,120,7.0,100.0
3564,76.0,40,20,3.0,127.0
3565,78.0,40,20,3.0,127.0
3566,80.0,40,20,3.0,127.0
3567,81.0,40,180,3.0,127.0
3568,78.0,180,60,3.0,127.0
3569,64.0,0,240,7.0,100.0
3570,66.0,0,240,7.0,100.0
3571,60.0,0,240,7.0,100.0
3572,75.0,60,20,3.0,127.0
3573,76.0,40,20,3.0,127.0
3574,77.0,40,20,3.0,127.0
3575,69.0,0,360,7.0,100.0
3576,63.0,0,120,7.0,100.0
3577,66.0,0,120,7.0,100.0
3578,59.0,0,120,7.0,100.0
3579,78.0,40,20,3.0,127.0
3580,79.0,40,20,3.0,127.0
3581,80.0,40,20,3.0,127.0
3582,81.0,40,180,3.0,127.0
3583,78.0,180,60,3.0,127.0
3584,64.0,0,240,7.0,100.0
3585,66.0,0,240,7.0,100.0
3586,60.0,0,240,7.0,100.0
3587,75.0,60,30,3.0,127.0
3588,73.0,30,30,3.0,127.0
3589,71.0,30,15,3.0,127.0
3590,73.0,30,15,3.0,127.0
3591,69.0,0,360,7.0,100.0
3592,63.0,0,120,7.0,100.0
3593,66.0,0,120,7.0,100.0
3594,59.0,0,120,7.0,100.0
3595,75.0,30,15,3.0,127.0
3596,76.0,30,15,3.0,127.0
3597,78.0,30,15,3.0,127.0
3598,80.0,30,15,3.0,127.0
3599,81.0,30,30,3.0,127.0
3600,78.0,30,30,3.0,127.0
3601,69.0,0,60,7.0,100.0
3602,63.0,0,60,7.0,100.0
3603,66.0,0,60,7.0,100.0
3604,75.0,30,30,3.0,127.0
3605,71.0,30,30,3.0,127.0
3606,69.0,30,30,3.0,127.0
3607,59.0,0,30,7.0,100.0
3608,35.0,0,30,7.0,100.0
3609,66.0,30,30,3.0,127.0
3610,69.0,0,120,7.0,100.0
3611,63.0,0,120,7.0,100.0
3612,66.0,0,120,7.0,100.0
3613,63.0,30,30,3.0,127.0
3614,59.0,30,30,3.0,127.0
3615,57.0,30,30,3.0,127.0
3616,54.0,0,30,7.0,100.0
3617,30.0,0,30,7.0,100.0
3618,59.0,30,30,3.0,127.0
3619,69.0,0,120,7.0,100.0
3620,63.0,0,120,7.0,100.0
3621,66.0,0,120,7.0,100.0
3622,63.0,30,30,3.0,127.0
3623,66.0,30,30,3.0,127.0
3624,69.0,30,30,3.0,127.0
3625,51.0,0,30,7.0,100.0
3626,27.0,0,30,7.0,100.0
3627,71.0,30,30,3.0,127.0
3628,69.0,0,120,7.0,100.0
3629,63.0,0,120,7.0,100.0
3630,66.0,0,120,7.0,100.0
3631,75.0,30,30,3.0,127.0
3632,78.0,30,30,3.0,127.0
3633,69.0,0,60,7.0,100.0
3634,63.0,0,60,7.0,100.0
3635,66.0,0,60,7.0,100.0
3636,69.0,0,120,7.0,100.0
3637,63.0,0,120,7.0,100.0
3638,66.0,0,120,7.0,100.0
3639,47.0,0,120,7.0,100.0
3640,35.0,0,120,7.0,100.0
3641,81.0,30,180,3.0,127.0
3642,78.0,180,60,3.0,127.0
3643,75.0,60,480,3.0,127.0
3644,71.0,720,240,7.0,100.0
3645,68.0,240,180,7.0,100.0
3646,69.0,180,60,7.0,100.0
3647,59.0,0,240,7.0,100.0
3648,73.0,0,60,7.0,100.0
3649,71.0,60,60,7.0,100.0
3650,69.0,60,30,7.0,100.0
3651,56.0,0,180,7.0,100.0
3652,68.0,60,30,7.0,100.0
3653,76.0,60,240,3.0,127.0
3654,57.0,0,60,7.0,100.0
3655,61.0,0,60,7.0,100.0
3656,59.0,60,60,7.0,100.0
3657,57.0,60,30,7.0,100.0
3658,75.0,60,180,3.0,127.0
3659,66.0,0,180,7.0,100.0
3660,56.0,0,30,7.0,100.0
3661,76.0,60,60,3.0,127.0
3662,68.0,0,60,7.0,100.0
3663,80.0,60,60,3.0,127.0
3664,71.0,0,60,7.0,100.0
3665,78.0,60,60,3.0,127.0
3666,69.0,0,60,7.0,100.0
3667,76.0,60,30,3.0,127.0
3668,68.0,0,30,7.0,100.0
3669,54.0,0,180,7.0,100.0
3670,75.0,60,30,3.0,127.0
3671,66.0,0,30,7.0,100.0
3672,56.0,0,60,7.0,100.0
3673,59.0,0,60,7.0,100.0
3674,57.0,60,60,7.0,100.0
3675,56.0,60,30,7.0,100.0
3676,73.0,60,180,3.0,127.0
3677,64.0,0,180,7.0,100.0
3678,54.0,0,30,7.0,100.0
3679,75.0,60,60,3.0,127.0
3680,66.0,0,60,7.0,100.0
3681,76.0,60,60,3.0,127.0
3682,68.0,0,60,7.0,100.0
3683,78.0,60,30,3.0,127.0
3684,69.0,0,30,7.0,100.0
3685,80.0,30,30,3.0,127.0
3686,71.0,0,30,7.0,100.0
3687,52.0,0,120,7.0,100.0
3688,78.0,30,30,3.0,127.0
3689,69.0,0,30,7.0,100.0
3690,76.0,30,30,3.0,127.0
3691,68.0,0,30,7.0,100.0
3692,75.0,30,30,3.0,127.0
3693,66.0,0,30,7.0,100.0
3694,73.0,30,30,3.0,127.0
3695,64.0,0,30,7.0,100.0
3696,52.0,0,60,7.0,100.0
3697,73.0,30,60,3.0,127.0
3698,63.0,0,60,7.0,100.0
3699,71.0,60,60,3.0,127.0
3700,54.0,0,120,7.0,100.0
3701,71.0,60,60,3.0,127.0
3702,61.0,0,60,7.0,100.0
3703,52.0,0,60,7.0,100.0
3704,70.0,60,60,3.0,127.0
3705,71.0,60,60,3.0,127.0
3706,59.0,0,60,7.0,100.0
3707,51.0,0,60,7.0,100.0
3708,73.0,60,60,3.0,127.0
3709,63.0,0,60,7.0,100.0
3710,59.0,0,60,7.0,100.0
3711,69.0,60,120,3.0,127.0
3712,66.0,180,60,7.0,100.0
3713,63.0,0,60,7.0,100.0
3714,68.0,60,60,7.0,100.0
3715,64.0,0,60,7.0,100.0
3716,69.0,60,60,7.0,100.0
3717,66.0,0,60,7.0,100.0
3718,57.0,0,120,7.0,100.0
3719,33.0,0,120,7.0,100.0
3720,71.0,60,60,7.0,100.0
3721,73.0,60,60,7.0,100.0
3722,64.0,0,120,7.0,100.0
3723,59.0,0,240,7.0,100.0
3724,56.0,0,120,7.0,100.0
3725,32.0,0,120,7.0,100.0
3726,71.0,60,30,7.0,100.0
3727,63.0,0,30,7.0,100.0
3728,69.0,30,30,7.0,100.0
3729,61.0,0,30,7.0,100.0
3730,68.0,30,30,7.0,100.0
3731,59.0,0,30,7.0,100.0
3732,66.0,30,30,7.0,100.0
3733,61.0,0,60,7.0,100.0
3734,57.0,0,120,7.0,100.0
3735,33.0,0,120,7.0,100.0
3736,66.0,30,60,7.0,100.0
3737,64.0,60,60,7.0,100.0
3738,56.0,0,120,7.0,100.0
3739,35.0,0,120,7.0,100.0
3740,64.0,60,60,7.0,100.0
3741,63.0,60,60,7.0,100.0
3742,57.0,0,120,7.0,100.0
3743,59.0,0,240,7.0,100.0
3744,47.0,0,120,7.0,100.0
3745,35.0,0,120,7.0,100.0
3746,52.0,60,30,3.0,127.0
3747,64.0,0,30,7.0,100.0
3748,59.0,30,30,3.0,127.0
3749,52.0,0,60,7.0,100.0
3750,40.0,0,60,7.0,100.0
3751,56.0,30,30,3.0,127.0
3752,59.0,30,30,3.0,127.0
3753,76.0,0,60,7.0,100.0
3754,56.0,0,120,7.0,100.0
3755,59.0,0,120,7.0,100.0
3756,54.0,30,30,3.0,127.0
3757,59.0,30,30,3.0,127.0
3758,75.0,0,60,7.0,100.0
3759,54.0,0,60,7.0,100.0
3760,42.0,0,60,7.0,100.0
3761,57.0,30,30,3.0,127.0
3762,59.0,30,30,3.0,127.0
3763,69.0,0,60,7.0,100.0
3764,52.0,30,30,3.0,127.0
3765,59.0,30,30,3.0,127.0
3766,68.0,0,60,7.0,100.0
3767,52.0,0,60,7.0,100.0
3768,40.0,0,60,7.0,100.0
3769,80.0,0,10,7.0,100.0
3770,81.0,10,10,7.0,100.0
3771,56.0,30,30,3.0,127.0
3772,80.0,10,10,7.0,100.0
3773,78.0,0,15,7.0,100.0
3774,59.0,10,30,3.0,127.0
3775,80.0,15,15,7.0,100.0
3776,64.0,0,60,7.0,100.0
3777,47.0,15,30,3.0,127.0
3778,59.0,30,30,3.0,127.0
3779,81.0,0,60,7.0,100.0
3780,63.0,0,60,7.0,100.0
3781,47.0,0,60,7.0,100.0
3782,35.0,0,60,7.0,100.0
3783,54.0,30,30,3.0,127.0
3784,59.0,30,30,3.0,127.0
3785,57.0,0,60,7.0,100.0
3786,52.0,30,30,3.0,127.0
3787,59.0,30,30,3.0,127.0
3788,56.0,0,60,7.0,100.0
3789,52.0,0,60,7.0,100.0
3790,40.0,0,60,7.0,100.0
3791,68.0,0,10,7.0,100.0
3792,69.0,10,10,7.0,100.0
3793,56.0,30,30,3.0,127.0
3794,68.0,10,10,7.0,100.0
3795,66.0,0,15,7.0,100.0
3796,59.0,10,30,3.0,127.0
3797,76.0,0,60,7.0,100.0
3798,68.0,15,15,7.0,100.0
3799,54.0,15,30,3.0,127.0
3800,59.0,30,30,3.0,127.0
3801,75.0,0,60,7.0,100.0
3802,71.0,0,120,7.0,100.0
3803,54.0,0,60,7.0,100.0
3804,42.0,0,60,7.0,100.0
3805,57.0,30,30,3.0,127.0
3806,59.0,30,30,3.0,127.0
3807,69.0,0,120,7.0,100.0
3808,52.0,30,30,3.0,127.0
3809,59.0,30,30,3.0,127.0
3810,68.0,0,60,7.0,100.0
3811,71.0,0,120,7.0,100.0
3812,52.0,0,60,7.0,100.0
3813,40.0,0,60,7.0,100.0
3814,80.0,0,10,7.0,100.0
3815,81.0,10,10,7.0,100.0
3816,56.0,30,30,3.0,127.0
3817,80.0,10,10,7.0,100.0
3818,78.0,0,15,7.0,100.0
3819,59.0,10,30,3.0,127.0
3820,80.0,15,15,7.0,100.0
3821,64.0,0,60,7.0,100.0
3822,47.0,15,30,3.0,127.0
3823,59.0,30,30,3.0,127.0
3824,81.0,0,60,7.0,100.0
3825,63.0,0,60,7.0,100.0
3826,71.0,0,120,7.0,100.0
3827,47.0,0,60,7.0,100.0
3828,35.0,0,60,7.0,100.0
3829,54.0,30,30,3.0,127.0
3830,59.0,30,30,3.0,127.0
3831,57.0,0,60,7.0,100.0
3832,52.0,30,30,3.0,127.0
3833,59.0,30,30,3.0,127.0
3834,56.0,0,60,7.0,100.0
3835,71.0,0,120,7.0,100.0
3836,52.0,0,60,7.0,100.0
3837,40.0,0,60,7.0,100.0
3838,68.0,0,10,7.0,100.0
3839,69.0,10,10,7.0,100.0
3840,56.0,30,30,3.0,127.0
3841,68.0,10,10,7.0,100.0
3842,66.0,0,15,7.0,100.0
3843,59.0,10,30,3.0,127.0
3844,76.0,0,60,7.0,100.0
3845,68.0,15,15,7.0,100.0
3846,51.0,15,30,3.0,127.0
3847,59.0,30,30,3.0,127.0
3848,75.0,0,60,7.0,100.0
3849,71.0,0,120,7.0,100.0
3850,54.0,0,60,7.0,100.0
3851,42.0,0,60,7.0,100.0
3852,54.0,30,30,3.0,127.0
3853,59.0,30,30,3.0,127.0
3854,69.0,0,120,7.0,100.0
3855,52.0,30,30,3.0,127.0
3856,59.0,30,30,3.0,127.0
3857,68.0,0,60,7.0,100.0
3858,71.0,0,120,7.0,100.0
3859,52.0,0,60,7.0,100.0
3860,40.0,0,60,7.0,100.0
3861,80.0,0,10,7.0,100.0
3862,81.0,10,10,7.0,100.0
3863,56.0,30,30,3.0,127.0
3864,80.0,10,10,7.0,100.0
3865,78.0,0,15,7.0,100.0
3866,59.0,10,30,3.0,127.0
3867,80.0,15,15,7.0,100.0
3868,64.0,0,60,7.0,100.0
3869,47.0,15,30,3.0,127.0
3870,59.0,30,30,3.0,127.0
3871,81.0,0,60,7.0,100.0
3872,63.0,0,60,7.0,100.0
3873,71.0,0,120,7.0,100.0
3874,59.0,0,60,7.0,100.0
3875,47.0,0,60,7.0,100.0
3876,75.0,0,10,7.0,100.0
3877,76.0,10,10,7.0,100.0
3878,54.0,30,30,3.0,127.0
3879,75.0,10,10,7.0,100.0
3880,73.0,0,15,7.0,100.0
3881,59.0,10,30,3.0,127.0
3882,75.0,15,15,7.0,100.0
3883,52.0,15,30,3.0,127.0
3884,59.0,30,30,3.0,127.0
3885,76.0,0,60,7.0,100.0
3886,71.0,0,120,7.0,100.0
3887,64.0,0,60,7.0,100.0
3888,52.0,0,60,7.0,100.0
3889,80.0,0,10,7.0,100.0
3890,81.0,10,10,7.0,100.0
3891,56.0,30,30,3.0,127.0
3892,80.0,10,10,7.0,100.0
3893,78.0,0,15,7.0,100.0
3894,59.0,10,30,3.0,127.0
3895,80.0,15,15,7.0,100.0
3896,47.0,15,30,3.0,127.0
3897,59.0,30,30,3.0,127.0
3898,81.0,0,60,7.0,100.0
3899,71.0,0,120,7.0,100.0
3900,59.0,0,60,7.0,100.0
3901,47.0,0,60,7.0,100.0
3902,75.0,0,10,7.0,100.0
3903,76.0,10,10,7.0,100.0
3904,54.0,30,30,3.0,127.0
3905,75.0,10,10,7.0,100.0
3906,73.0,0,15,7.0,100.0
3907,59.0,10,30,3.0,127.0
3908,75.0,15,15,7.0,100.0
3909,52.0,15,30,3.0,127.0
3910,59.0,30,30,3.0,127.0
3911,76.0,0,60,7.0,100.0
3912,71.0,0,120,7.0,100.0
3913,64.0,0,60,7.0,100.0
3914,52.0,0,60,7.0,100.0
3915,80.0,0,10,7.0,100.0
3916,81.0,10,10,7.0,100.0
3917,56.0,30,30,3.0,127.0
3918,80.0,10,10,7.0,100.0
3919,78.0,0,15,7.0,100.0
3920,59.0,10,30,3.0,127.0
3921,80.0,15,15,7.0,100.0
3922,47.0,15,30,3.0,127.0
3923,59.0,30,30,3.0,127.0
3924,81.0,0,60,7.0,100.0
3925,71.0,0,120,7.0,100.0
3926,59.0,0,60,7.0,100.0
3927,47.0,0,60,7.0,100.0
3928,75.0,0,10,7.0,100.0
3929,76.0,10,10,7.0,100.0
3930,54.0,30,30,3.0,127.0
3931,75.0,10,10,7.0,100.0
3932,73.0,0,15,7.0,100.0
3933,59.0,10,30,3.0,127.0
3934,75.0,15,15,7.0,100.0
3935,71.0,0,60,7.0,100.0
3936,52.0,15,30,3.0,127.0
3937,56.0,30,30,3.0,127.0
3938,76.0,0,60,7.0,100.0
3939,59.0,30,30,3.0,127.0
3940,68.0,0,30,7.0,100.0
3941,64.0,30,30,3.0,127.0
3942,52.0,0,120,7.0,100.0
3943,68.0,30,30,3.0,127.0
3944,71.0,0,150,7.0,100.0
3945,68.0,0,30,7.0,100.0
3946,64.0,30,30,3.0,127.0
3947,59.0,30,30,3.0,127.0
3948,71.0,0,30,7.0,100.0
3949,68.0,0,30,7.0,100.0
3950,56.0,30,30,3.0,127.0
3951,64.0,0,240,7.0,100.0
3952,52.0,30,30,3.0,127.0
3953,56.0,30,30,3.0,127.0
3954,59.0,30,30,3.0,127.0
3955,64.0,30,30,3.0,127.0
3956,52.0,0,120,7.0,100.0
3957,40.0,0,120,7.0,100.0
3958,68.0,30,30,3.0,127.0
3959,64.0,30,30,3.0,127.0
3960,71.0,0,180,7.0,100.0
3961,59.0,30,30,3.0,127.0
3962,56.0,30,30,3.0,127.0
3963,76.0,0,60,7.0,100.0
3964,68.0,0,240,7.0,100.0
3965,64.0,0,120,7.0,100.0
3966,45.0,30,30,3.0,127.0
3967,49.0,30,30,3.0,127.0
3968,76.0,0,60,7.0,100.0
3969,52.0,30,30,3.0,127.0
3970,57.0,30,30,3.0,127.0
3971,73.0,0,120,7.0,100.0
3972,69.0,0,60,7.0,100.0
3973,45.0,0,120,7.0,100.0
3974,61.0,30,30,3.0,127.0
3975,73.0,0,30,7.0,100.0
3976,69.0,0,30,7.0,100.0
3977,57.0,30,30,3.0,127.0
3978,52.0,30,30,3.0,127.0
3979,73.0,0,30,7.0,100.0
3980,69.0,0,30,7.0,100.0
3981,49.0,30,30,3.0,127.0
3982,57.0,0,240,7.0,100.0
3983,45.0,30,30,3.0,127.0
3984,49.0,30,30,3.0,127.0
3985,52.0,30,30,3.0,127.0
3986,57.0,30,30,3.0,127.0
3987,45.0,0,120,7.0,100.0
3988,33.0,0,120,7.0,100.0
3989,61.0,30,30,3.0,127.0
3990,57.0,30,30,3.0,127.0
3991,73.0,0,180,7.0,100.0
3992,69.0,0,180,7.0,100.0
3993,52.0,30,30,3.0,127.0
3994,49.0,30,30,3.0,127.0
3995,76.0,0,60,7.0,100.0
3996,73.0,0,60,7.0,100.0
3997,57.0,0,120,7.0,100.0
3998,47.0,30,30,3.0,127.0
3999,52.0,30,30,3.0,127.0
4000,76.0,0,60,7.0,100.0
4001,56.0,30,30,3.0,127.0
4002,59.0,30,30,3.0,127.0
4003,71.0,0,60,7.0,100.0
4004,47.0,0,120,7.0,100.0
4005,64.0,30,30,3.0,127.0
4006,59.0,30,30,3.0,127.0
4007,68.0,0,180,7.0,100.0
4008,64.0,0,60,7.0,100.0
4009,56.0,30,30,3.0,127.0
4010,52.0,30,30,3.0,127.0
4011,71.0,0,60,7.0,100.0
4012,68.0,0,60,7.0,100.0
4013,59.0,0,240,7.0,100.0
4014,71.0,0,60,7.0,100.0
4015,68.0,0,60,7.0,100.0
4016,47.0,30,120,3.0,127.0
4017,69.0,60,60,7.0,100.0
4018,66.0,0,60,7.0,100.0
4019,47.0,0,120,7.0,100.0
4020,35.0,0,120,7.0,100.0
4021,68.0,60,60,7.0,100.0
4022,64.0,0,60,7.0,100.0
4023,66.0,60,60,7.0,100.0
4024,63.0,0,60,7.0,100.0
4025,59.0,0,120,7.0,100.0
4026,52.0,60,60,3.0,127.0
4027,54.0,60,15,3.0,127.0
4028,56.0,30,15,3.0,127.0
4029,64.0,0,120,7.0,100.0
4030,56.0,0,120,7.0,100.0
4031,52.0,0,120,7.0,100.0
4032,40.0,0,120,7.0,100.0
4033,57.0,30,15,3.0,127.0
4034,59.0,30,15,3.0,127.0
4035,61.0,30,15,3.0,127.0
4036,63.0,30,15,3.0,127.0
4037,64.0,30,60,3.0,127.0
4038,66.0,60,15,3.0,127.0
4039,68.0,30,15,3.0,127.0
4040,69.0,30,15,3.0,127.0
4041,71.0,30,15,3.0,127.0
4042,73.0,30,15,3.0,127.0
4043,75.0,30,15,3.0,127.0
4044,76.0,30,30,3.0,127.0
4045,78.0,30,30,3.0,127.0
4046,80.0,30,30,3.0,127.0
4047,81.0,30,30,3.0,127.0
4048,83.0,30,30,3.0,127.0
4049,85.0,30,30,3.0,127.0
4050,86.0,30,30,3.0,127.0
4051,85.0,30,30,3.0,127.0
4052,83.0,30,30,3.0,127.0
4053,81.0,30,30,3.0,127.0
4054,80.0,30,30,3.0,127.0
4055,78.0,30,30,3.0,127.0
4056,76.0,30,30,3.0,127.0
4057,75.0,30,30,3.0,127.0
4058,76.0,30,30,3.0,127.0
4059,74.0,30,30,3.0,127.0
4060,62.0,0,480,7.0,100.0
4061,59.0,0,480,7.0,100.0
4062,56.0,0,480,7.0,100.0
4063,44.0,0,480,7.0,100.0
4064,73.0,30,30,3.0,127.0
4065,76.0,30,30,3.0,127.0
4066,52.0,0,540,7.0,100.0
4067,45.0,0,60,7.0,100.0
4068,73.0,30,30,3.0,127.0
4069,64.0,0,30,7.0,100.0
4070,69.0,30,30,3.0,127.0
4071,61.0,0,120,7.0,100.0
4072,57.0,0,120,7.0,100.0
4073,68.0,30,30,3.0,127.0
4074,71.0,30,30,3.0,127.0
4075,52.0,0,60,7.0,100.0
4076,74.0,0,10,7.0,100.0
4077,71.0,0,10,7.0,100.0
4078,76.0,10,10,7.0,100.0
4079,73.0,0,10,7.0,100.0
4080,68.0,30,30,3.0,127.0
4081,74.0,10,10,7.0,100.0
4082,71.0,0,10,7.0,100.0
4083,73.0,0,15,7.0,100.0
4084,69.0,0,15,7.0,100.0
4085,64.0,10,30,3.0,127.0
4086,74.0,15,15,7.0,100.0
4087,71.0,0,15,7.0,100.0
4088,73.0,15,30,3.0,127.0
4089,73.0,0,30,7.0,100.0
4090,69.0,0,30,7.0,100.0
4091,76.0,30,30,3.0,127.0
4092,57.0,0,60,7.0,100.0
4093,45.0,0,60,7.0,100.0
4094,73.0,30,30,3.0,127.0
4095,73.0,0,30,7.0,100.0
4096,69.0,0,30,7.0,100.0
4097,69.0,30,30,3.0,127.0
4098,68.0,30,30,3.0,127.0
4099,74.0,0,30,7.0,100.0
4100,71.0,0,30,7.0,100.0
4101,71.0,30,30,3.0,127.0
4102,52.0,0,60,7.0,100.0
4103,68.0,30,30,3.0,127.0
4104,74.0,0,30,7.0,100.0
4105,71.0,0,30,7.0,100.0
4106,64.0,30,30,3.0,127.0
4107,61.0,30,30,3.0,127.0
4108,64.0,30,30,3.0,127.0
4109,64.0,0,420,7.0,100.0
4110,57.0,0,60,7.0,100.0
4111,45.0,0,60,7.0,100.0
4112,61.0,30,30,3.0,127.0
4113,52.0,0,30,7.0,100.0
4114,57.0,30,30,3.0,127.0
4115,73.0,0,120,7.0,100.0
4116,69.0,0,120,7.0,100.0
4117,56.0,30,30,3.0,127.0
4118,59.0,30,30,3.0,127.0
4119,40.0,0,60,7.0,100.0
4120,62.0,0,10,7.0,100.0
4121,59.0,0,10,7.0,100.0
4122,64.0,10,10,7.0,100.0
4123,61.0,0,10,7.0,100.0
4124,56.0,30,30,3.0,127.0
4125,62.0,10,10,7.0,100.0
4126,71.0,0,10,7.0,100.0
4127,61.0,0,15,7.0,100.0
4128,57.0,0,15,7.0,100.0
4129,52.0,10,30,3.0,127.0
4130,62.0,15,15,7.0,100.0
4131,59.0,0,15,7.0,100.0
4132,61.0,15,30,3.0,127.0
4133,61.0,0,30,7.0,100.0
4134,64.0,30,30,3.0,127.0
4135,45.0,0,60,7.0,100.0
4136,61.0,30,30,3.0,127.0
4137,61.0,0,30,7.0,100.0
4138,57.0,0,90,7.0,100.0
4139,57.0,30,30,3.0,127.0
4140,56.0,30,30,3.0,127.0
4141,62.0,0,30,7.0,100.0
4142,59.0,0,30,7.0,100.0
4143,59.0,30,30,3.0,127.0
4144,40.0,0,60,7.0,100.0
4145,56.0,30,30,3.0,127.0
4146,62.0,0,30,7.0,100.0
4147,59.0,0,30,7.0,100.0
4148,52.0,30,30,3.0,127.0
4149,57.0,30,30,3.0,127.0
4150,45.0,30,30,3.0,127.0
4151,49.0,30,30,3.0,127.0
4152,52.0,30,30,3.0,127.0
4153,61.0,0,120,7.0,100.0
4154,52.0,0,480,7.0,100.0
4155,57.0,0,120,7.0,100.0
4156,45.0,0,120,7.0,100.0
4157,57.0,30,30,3.0,127.0
4158,61.0,30,30,3.0,127.0
4159,64.0,30,30,3.0,127.0
4160,69.0,30,30,3.0,127.0
4161,73.0,30,120,3.0,127.0
4162,64.0,60,60,7.0,100.0
4163,61.0,0,60,7.0,100.0
4164,45.0,0,60,7.0,100.0
4165,64.0,60,60,7.0,100.0
4166,61.0,0,60,7.0,100.0
4167,45.0,0,60,7.0,100.0
4168,64.0,60,60,7.0,100.0
4169,61.0,0,60,7.0,100.0
4170,57.0,0,180,7.0,100.0
4171,45.0,0,60,7.0,100.0
4172,45.0,60,30,3.0,127.0
4173,51.0,30,30,3.0,127.0
4174,54.0,30,30,3.0,127.0
4175,57.0,30,30,3.0,127.0
4176,66.0,0,120,7.0,100.0
4177,60.0,0,120,7.0,100.0
4178,63.0,0,120,7.0,100.0
4179,57.0,0,120,7.0,100.0
4180,45.0,0,120,7.0,100.0
4181,63.0,30,30,3.0,127.0
4182,66.0,30,30,3.0,127.0
4183,69.0,30,30,3.0,127.0
4184,72.0,30,30,3.0,127.0
4185,75.0,30,120,3.0,127.0
4186,66.0,60,60,7.0,100.0
4187,60.0,0,60,7.0,100.0
4188,63.0,0,60,7.0,100.0
4189,57.0,0,60,7.0,100.0
4190,45.0,0,60,7.0,100.0
4191,66.0,60,60,7.0,100.0
4192,60.0,0,60,7.0,100.0
4193,63.0,0,60,7.0,100.0
4194,57.0,0,60,7.0,100.0
4195,45.0,0,60,7.0,100.0
4196,66.0,60,60,7.0,100.0
4197,60.0,0,60,7.0,100.0
4198,63.0,0,60,7.0,100.0
4199,57.0,0,60,7.0,100.0
4200,45.0,0,60,7.0,100.0
4201,46.0,60,30,3.0,127.0
4202,49.0,30,30,3.0,127.0
4203,52.0,30,30,3.0,127.0
4204,58.0,30,30,3.0,127.0
4205,67.0,0,120,7.0,100.0
4206,61.0,0,120,7.0,100.0
4207,64.0,0,120,7.0,100.0
4208,58.0,0,120,7.0,100.0
4209,46.0,0,120,7.0,100.0
4210,61.0,30,30,3.0,127.0
4211,64.0,30,30,3.0,127.0
4212,70.0,30,30,3.0,127.0
4213,73.0,30,30,3.0,127.0
4214,76.0,30,120,3.0,127.0
4215,67.0,60,60,7.0,100.0
4216,61.0,0,60,7.0,100.0
4217,64.0,0,60,7.0,100.0
4218,58.0,0,60,7.0,100.0
4219,46.0,0,60,7.0,100.0
4220,67.0,60,60,7.0,100.0
4221,61.0,0,60,7.0,100.0
4222,64.0,0,60,7.0,100.0
4223,58.0,0,60,7.0,100.0
4224,46.0,0,60,7.0,100.0
4225,67.0,60,60,7.0,100.0
4226,61.0,0,60,7.0,100.0
4227,64.0,0,60,7.0,100.0
4228,58.0,0,60,7.0,100.0
4229,46.0,0,60,7.0,100.0
4230,47.0,60,30,3.0,127.0
4231,52.0,30,30,3.0,127.0
4232,51.0,30,30,3.0,127.0
4233,54.0,30,30,3.0,127.0
4234,68.0,0,120,7.0,100.0
4235,64.0,0,120,7.0,100.0
4236,59.0,0,120,7.0,100.0
4237,47.0,0,120,7.0,100.0
4238,52.0,30,30,3.0,127.0
4239,56.0,30,30,3.0,127.0
4240,54.0,30,30,3.0,127.0
4241,57.0,30,30,3.0,127.0
4242,56.0,30,30,3.0,127.0
4243,59.0,30,30,3.0,127.0
4244,57.0,30,30,3.0,127.0
4245,61.0,30,30,3.0,127.0
4246,59.0,30,30,3.0,127.0
4247,64.0,30,30,3.0,127.0
4248,63.0,30,30,3.0,127.0
4249,63.0,0,30,7.0,100.0
4250,59.0,0,30,7.0,100.0
4251,66.0,30,30,3.0,127.0
4252,64.0,30,30,3.0,127.0
4253,64.0,0,30,7.0,100.0
4254,56.0,0,30,7.0,100.0
4255,68.0,30,30,3.0,127.0
4256,66.0,30,30,3.0,127.0
4257,66.0,0,30,7.0,100.0
4258,63.0,0,30,7.0,100.0
4259,69.0,30,30,3.0,127.0
4260,68.0,30,30,3.0,127.0
4261,68.0,0,30,7.0,100.0
4262,64.0,0,30,7.0,100.0
4263,71.0,30,30,3.0,127.0
4264,69.0,30,30,3.0,127.0
4265,69.0,0,30,7.0,100.0
4266,66.0,0,30,7.0,100.0
4267,73.0,30,30,3.0,127.0
4268,71.0,30,30,3.0,127.0
4269,71.0,0,30,7.0,100.0
4270,68.0,0,30,7.0,100.0
4271,76.0,30,30,3.0,127.0
4272,75.0,30,30,3.0,127.0
4273,75.0,0,30,7.0,100.0
4274,66.0,0,30,7.0,100.0
4275,78.0,30,30,3.0,127.0
4276,76.0,30,30,3.0,127.0
4277,76.0,0,30,7.0,100.0
4278,68.0,0,30,7.0,100.0
4279,80.0,30,30,3.0,127.0
4280,78.0,30,30,3.0,127.0
4281,78.0,0,30,7.0,100.0
4282,75.0,0,30,7.0,100.0
4283,81.0,30,30,3.0,127.0
4284,80.0,30,30,3.0,127.0
4285,83.0,60,30,3.0,127.0
4286,82.0,30,30,3.0,127.0
4287,80.0,0,120,7.0,100.0
4288,76.0,0,120,7.0,100.0
4289,71.0,0,120,7.0,100.0
4290,83.0,30,30,3.0,127.0
4291,82.0,30,30,3.0,127.0
4292,83.0,30,30,3.0,127.0
4293,82.0,30,30,3.0,127.0
4294,83.0,30,30,3.0,127.0
4295,80.0,60,30,3.0,127.0
4296,79.0,30,30,3.0,127.0
4297,80.0,0,120,7.0,100.0
4298,76.0,0,120,7.0,100.0
4299,71.0,0,120,7.0,100.0
4300,80.0,30,30,3.0,127.0
4301,79.0,30,30,3.0,127.0
4302,80.0,30,30,3.0,127.0
4303,79.0,30,30,3.0,127.0
4304,80.0,30,30,3.0,127.0
4305,76.0,60,30,3.0,127.0
4306,75.0,30,30,3.0,127.0
4307,76.0,0,120,7.0,100.0
4308,68.0,0,120,7.0,100.0
4309,59.0,0,120,7.0,100.0
4310,76.0,30,30,3.0,127.0
4311,75.0,30,30,3.0,127.0
4312,76.0,30,30,3.0,127.0
4313,75.0,30,30,3.0,127.0
4314,76.0,30,30,3.0,127.0
4315,71.0,60,30,3.0,127.0
4316,70.0,30,30,3.0,127.0
4317,71.0,0,120,7.0,100.0
4318,68.0,0,120,7.0,100.0
4319,59.0,0,120,7.0,100.0
4320,71.0,30,30,3.0,127.0
4321,70.0,30,30,3.0,127.0
4322,71.0,30,30,3.0,127.0
4323,70.0,30,30,3.0,127.0
4324,71.0,30,40,3.0,127.0
4325,72.0,40,20,3.0,127.0
4326,68.0,0,60,7.0,100.0
4327,64.0,0,60,7.0,100.0
4328,59.0,0,60,7.0,100.0
4329,73.0,20,20,3.0,127.0
4330,68.0,20,60,7.0,100.0
4331,64.0,0,60,7.0,100.0
4332,59.0,0,60,7.0,100.0
4333,47.0,0,120,7.0,100.0
4334,35.0,0,120,7.0,100.0
4335,74.0,40,20,3.0,127.0
4336,75.0,40,20,3.0,127.0
4337,68.0,0,60,7.0,100.0
4338,64.0,0,60,7.0,100.0
4339,59.0,0,60,7.0,100.0
4340,76.0,20,20,3.0,127.0
4341,68.0,20,60,7.0,100.0
4342,64.0,0,60,7.0,100.0
4343,59.0,0,60,7.0,100.0
4344,47.0,0,120,7.0,100.0
4345,35.0,0,120,7.0,100.0
4346,77.0,40,20,3.0,127.0
4347,78.0,40,20,3.0,127.0
4348,68.0,0,60,7.0,100.0
4349,64.0,0,60,7.0,100.0
4350,59.0,0,60,7.0,100.0
4351,79.0,20,20,3.0,127.0
4352,68.0,20,60,7.0,100.0
4353,64.0,0,60,7.0,100.0
4354,59.0,0,60,7.0,100.0
4355,47.0,0,120,7.0,100.0
4356,35.0,0,120,7.0,100.0
4357,80.0,40,30,3.0,127.0
4358,81.0,30,30,3.0,127.0
4359,68.0,0,60,7.0,100.0
4360,64.0,0,60,7.0,100.0
4361,59.0,0,60,7.0,100.0
4362,82.0,30,30,3.0,127.0
4363,83.0,30,30,3.0,127.0
4364,68.0,0,60,7.0,100.0
4365,64.0,0,60,7.0,100.0
4366,59.0,0,60,7.0,100.0
4367,47.0,0,120,7.0,100.0
4368,35.0,0,120,7.0,100.0
4369,78.0,30,15,3.0,127.0
4370,80.0,15,15,3.0,127.0
4371,66.0,0,30,7.0,100.0
4372,64.0,0,30,7.0,100.0
4373,59.0,0,30,7.0,100.0
4374,78.0,15,15,3.0,127.0
4375,80.0,15,15,3.0,127.0
4376,66.0,0,30,7.0,100.0
4377,64.0,0,30,7.0,100.0
4378,59.0,0,30,7.0,100.0
4379,47.0,0,60,7.0,100.0
4380,35.0,0,60,7.0,100.0
4381,78.0,15,15,3.0,127.0
4382,80.0,15,15,3.0,127.0
4383,66.0,0,30,7.0,100.0
4384,64.0,0,30,7.0,100.0
4385,59.0,0,30,7.0,100.0
4386,78.0,15,15,3.0,127.0
4387,80.0,15,15,3.0,127.0
4388,66.0,0,30,7.0,100.0
4389,64.0,0,30,7.0,100.0
4390,59.0,0,30,7.0,100.0
4391,47.0,0,60,7.0,100.0
4392,35.0,0,60,7.0,100.0
4393,78.0,15,15,3.0,127.0
4394,80.0,15,15,3.0,127.0
4395,66.0,0,30,7.0,100.0
4396,64.0,0,30,7.0,100.0
4397,59.0,0,30,7.0,100.0
4398,78.0,15,15,3.0,127.0
4399,80.0,15,15,3.0,127.0
4400,66.0,0,30,7.0,100.0
4401,64.0,0,30,7.0,100.0
4402,59.0,0,30,7.0,100.0
4403,47.0,0,60,7.0,100.0
4404,35.0,0,60,7.0,100.0
4405,78.0,15,15,3.0,127.0
4406,80.0,15,15,3.0,127.0
4407,66.0,0,30,7.0,100.0
4408,64.0,0,30,7.0,100.0
4409,59.0,0,30,7.0,100.0
4410,78.0,15,15,3.0,127.0
4411,80.0,15,15,3.0,127.0
4412,66.0,0,30,7.0,100.0
4413,64.0,0,30,7.0,100.0
4414,59.0,0,30,7.0,100.0
4415,47.0,0,60,7.0,100.0
4416,35.0,0,60,7.0,100.0
4417,78.0,15,15,3.0,127.0
4418,80.0,15,15,3.0,127.0
4419,66.0,0,30,7.0,100.0
4420,63.0,0,30,7.0,100.0
4421,57.0,0,30,7.0,100.0
4422,78.0,15,15,3.0,127.0
4423,80.0,15,15,3.0,127.0
4424,66.0,0,30,7.0,100.0
4425,63.0,0,30,7.0,100.0
4426,57.0,0,30,7.0,100.0
4427,47.0,0,60,7.0,100.0
4428,35.0,0,60,7.0,100.0
4429,78.0,15,15,3.0,127.0
4430,80.0,15,15,3.0,127.0
4431,66.0,0,30,7.0,100.0
4432,63.0,0,30,7.0,100.0
4433,57.0,0,30,7.0,100.0
4434,78.0,15,15,3.0,127.0
4435,80.0,15,15,3.0,127.0
4436,66.0,0,30,7.0,100.0
4437,63.0,0,30,7.0,100.0
4438,57.0,0,30,7.0,100.0
4439,47.0,0,60,7.0,100.0
4440,35.0,0,60,7.0,100.0
4441,78.0,15,15,3.0,127.0
4442,80.0,15,15,3.0,127.0
4443,66.0,0,30,7.0,100.0
4444,63.0,0,30,7.0,100.0
4445,57.0,0,30,7.0,100.0
4446,78.0,15,15,3.0,127.0
4447,80.0,15,15,3.0,127.0
4448,66.0,0,30,7.0,100.0
4449,63.0,0,30,7.0,100.0
4450,57.0,0,30,7.0,100.0
4451,47.0,0,60,7.0,100.0
4452,35.0,0,60,7.0,100.0
4453,78.0,15,15,3.0,127.0
4454,80.0,15,15,3.0,127.0
4455,66.0,0,30,7.0,100.0
4456,63.0,0,30,7.0,100.0
4457,57.0,0,30,7.0,100.0
4458,76.0,15,15,3.0,127.0
4459,78.0,15,15,3.0,127.0
4460,66.0,0,30,7.0,100.0
4461,63.0,0,30,7.0,100.0
4462,57.0,0,30,7.0,100.0
4463,47.0,0,60,7.0,100.0
4464,35.0,0,60,7.0,100.0
4465,52.0,0,60,5.0,80.0
4466,56.0,0,60,7.0,100.0
4467,52.0,0,60,7.0,100.0
4468,40.0,0,60,7.0,100.0
4469,68.0,0,30,7.0,100.0
4470,76.0,15,120,3.0,127.0
4471,47.0,60,60,5.0,80.0
4472,52.0,0,120,6.0,80.0
4473,64.0,0,120,7.0,100.0
4474,76.0,0,120,7.0,100.0
4475,71.0,0,120,7.0,100.0
4476,47.0,0,60,7.0,100.0
4477,35.0,0,60,7.0,100.0
4478,68.0,0,30,7.0,100.0
4479,52.0,60,60,5.0,80.0
4480,71.0,30,30,7.0,100.0
4481,59.0,0,120,7.0,100.0
4482,52.0,0,60,7.0,100.0
4483,40.0,0,60,7.0,100.0
4484,80.0,0,30,7.0,100.0
4485,68.0,0,30,7.0,100.0
4486,47.0,30,60,5.0,80.0
4487,59.0,0,60,6.0,80.0
4488,52.0,0,60,6.0,80.0
4489,76.0,30,30,7.0,100.0
4490,47.0,0,60,7.0,100.0
4491,35.0,0,60,7.0,100.0
4492,71.0,0,60,7.0,100.0
4493,68.0,0,30,7.0,100.0
4494,52.0,30,60,5.0,80.0
4495,59.0,0,60,6.0,80.0
4496,52.0,0,60,6.0,80.0
4497,59.0,0,120,7.0,100.0
4498,52.0,0,60,7.0,100.0
4499,40.0,0,60,7.0,100.0
4500,71.0,30,60,7.0,100.0
4501,68.0,0,30,7.0,100.0
4502,47.0,30,60,5.0,80.0
4503,59.0,0,60,6.0,80.0
4504,52.0,0,60,6.0,80.0
4505,47.0,0,60,7.0,100.0
4506,35.0,0,60,7.0,100.0
4507,71.0,30,60,7.0,100.0
4508,68.0,0,30,7.0,100.0
4509,52.0,30,60,5.0,80.0
4510,59.0,0,60,6.0,80.0
4511,52.0,0,60,6.0,80.0
4512,59.0,0,120,7.0,100.0
4513,52.0,0,60,7.0,100.0
4514,40.0,0,60,7.0,100.0
4515,71.0,30,60,7.0,100.0
4516,68.0,0,30,7.0,100.0
4517,47.0,30,60,5.0,80.0
4518,59.0,0,60,6.0,80.0
4519,52.0,0,60,6.0,80.0
4520,71.0,30,30,7.0,100.0
4521,47.0,0,60,7.0,100.0
4522,35.0,0,60,7.0,100.0
4523,66.0,0,30,7.0,100.0
4524,51.0,0,60,5.0,80.0
4525,83.0,0,60,7.0,100.0
4526,71.0,30,30,7.0,100.0
4527,59.0,0,120,7.0,100.0
4528,51.0,0,60,7.0,100.0
4529,39.0,0,60,7.0,100.0
4530,66.0,0,30,7.0,100.0
4531,47.0,30,60,5.0,80.0
4532,81.0,0,60,7.0,100.0
4533,71.0,30,30,7.0,100.0
4534,47.0,0,60,7.0,100.0
4535,35.0,0,60,7.0,100.0
4536,66.0,0,30,7.0,100.0
4537,51.0,30,60,5.0,80.0
4538,71.0,30,30,7.0,100.0
4539,59.0,0,120,7.0,100.0
4540,51.0,0,60,7.0,100.0
4541,39.0,0,60,7.0,100.0
4542,66.0,0,30,7.0,100.0
4543,81.0,30,240,4.0,80.0
4544,47.0,30,60,5.0,80.0
4545,71.0,30,30,7.0,100.0
4546,47.0,0,60,7.0,100.0
4547,35.0,0,60,7.0,100.0
4548,66.0,0,30,7.0,100.0
4549,54.0,0,60,5.0,80.0
4550,81.0,0,180,7.0,100.0
4551,71.0,30,30,7.0,100.0
4552,59.0,0,120,7.0,100.0
4553,54.0,0,60,7.0,100.0
4554,42.0,0,60,7.0,100.0
4555,83.0,0,30,7.0,100.0
4556,66.0,0,30,7.0,100.0
4557,78.0,0,360,4.0,80.0
4558,47.0,30,60,5.0,80.0
4559,81.0,30,30,7.0,100.0
4560,71.0,0,30,7.0,100.0
4561,47.0,0,60,7.0,100.0
4562,35.0,0,60,7.0,100.0
4563,80.0,0,30,7.0,100.0
4564,66.0,0,30,7.0,100.0
4565,57.0,0,60,5.0,80.0
4566,78.0,30,30,7.0,100.0
4567,71.0,0,30,7.0,100.0
4568,59.0,0,120,7.0,100.0
4569,57.0,0,60,7.0,100.0
4570,45.0,0,60,7.0,100.0
4571,76.0,0,30,7.0,100.0
4572,66.0,0,30,7.0,100.0
4573,75.0,30,240,4.0,80.0
4574,71.0,30,120,4.0,80.0
4575,47.0,30,60,5.0,80.0
4576,75.0,30,30,7.0,100.0
4577,71.0,0,30,7.0,100.0
4578,47.0,0,60,7.0,100.0
4579,35.0,0,60,7.0,100.0
4580,64.0,0,30,7.0,100.0
4581,56.0,0,60,5.0,80.0
4582,78.0,0,60,7.0,100.0
4583,71.0,30,30,7.0,100.0
4584,59.0,0,120,7.0,100.0
4585,56.0,0,60,7.0,100.0
4586,44.0,0,60,7.0,100.0
4587,64.0,0,30,7.0,100.0
4588,76.0,30,120,4.0,80.0
4589,71.0,0,120,4.0,80.0
4590,47.0,30,60,5.0,80.0
4591,59.0,0,600,6.0,80.0
4592,52.0,0,120,6.0,80.0
4593,76.0,0,60,7.0,100.0
4594,71.0,30,30,7.0,100.0
4595,47.0,0,60,7.0,100.0
4596,35.0,0,60,7.0,100.0
4597,64.0,0,30,7.0,100.0
4598,56.0,30,60,5.0,80.0
4599,71.0,30,30,7.0,100.0
4600,59.0,0,120,7.0,100.0
4601,56.0,0,60,7.0,100.0
4602,44.0,0,60,7.0,100.0
4603,80.0,0,30,7.0,100.0
4604,64.0,0,30,7.0,100.0
4605,47.0,30,60,5.0,80.0
4606,59.0,0,60,6.0,80.0
4607,52.0,0,60,6.0,80.0
4608,76.0,30,30,7.0,100.0
4609,47.0,0,60,7.0,100.0
4610,35.0,0,60,7.0,100.0
4611,71.0,0,60,7.0,100.0
4612,68.0,0,30,7.0,100.0
4613,52.0,30,60,5.0,80.0
4614,59.0,0,60,6.0,80.0
4615,52.0,0,60,6.0,80.0
4616,59.0,0,120,7.0,100.0
4617,52.0,0,60,7.0,100.0
4618,40.0,0,60,7.0,100.0
4619,71.0,30,60,7.0,100.0
4620,68.0,0,30,7.0,100.0
4621,47.0,30,60,5.0,80.0
4622,59.0,0,60,6.0,80.0
4623,52.0,0,60,6.0,80.0
4624,47.0,0,60,7.0,100.0
4625,35.0,0,60,7.0,100.0
4626,71.0,30,60,7.0,100.0
4627,68.0,0,30,7.0,100.0
4628,52.0,30,60,5.0,80.0
4629,59.0,0,60,6.0,80.0
4630,52.0,0,60,6.0,80.0
4631,59.0,0,120,7.0,100.0
4632,52.0,0,60,7.0,100.0
4633,40.0,0,60,7.0,100.0
4634,71.0,30,60,7.0,100.0
4635,68.0,0,30,7.0,100.0
4636,47.0,30,60,5.0,80.0
4637,59.0,0,60,6.0,80.0
4638,52.0,0,60,6.0,80.0
4639,47.0,0,60,7.0,100.0
4640,35.0,0,60,7.0,100.0
4641,71.0,30,60,7.0,100.0
4642,66.0,0,30,7.0,100.0
4643,51.0,0,60,5.0,80.0
4644,71.0,30,30,7.0,100.0
4645,59.0,0,120,7.0,100.0
4646,51.0,0,60,7.0,100.0
4647,39.0,0,60,7.0,100.0
4648,83.0,0,30,7.0,100.0
4649,66.0,0,30,7.0,100.0
4650,47.0,30,60,5.0,80.0
4651,81.0,30,30,7.0,100.0
4652,71.0,0,30,7.0,100.0
4653,47.0,0,60,7.0,100.0
4654,35.0,0,60,7.0,100.0
4655,66.0,0,30,7.0,100.0
4656,51.0,30,60,5.0,80.0
4657,71.0,30,30,7.0,100.0
4658,59.0,0,120,7.0,100.0
4659,51.0,0,60,7.0,100.0
4660,39.0,0,60,7.0,100.0
4661,66.0,0,30,7.0,100.0
4662,81.0,30,240,4.0,80.0
4663,66.0,0,240,4.0,80.0
4664,47.0,30,60,5.0,80.0
4665,71.0,30,30,7.0,100.0
4666,47.0,0,60,7.0,100.0
4667,35.0,0,60,7.0,100.0
4668,66.0,0,30,7.0,100.0
4669,54.0,0,60,5.0,80.0
4670,81.0,0,180,7.0,100.0
4671,71.0,30,30,7.0,100.0
4672,59.0,0,120,7.0,100.0
4673,54.0,0,60,7.0,100.0
4674,42.0,0,60,7.0,100.0
4675,83.0,0,30,7.0,100.0
4676,66.0,0,30,7.0,100.0
4677,78.0,30,120,4.0,80.0
4678,63.0,0,120,4.0,80.0
4679,47.0,30,60,5.0,80.0
4680,81.0,30,30,7.0,100.0
4681,71.0,0,30,7.0,100.0
4682,47.0,0,60,7.0,100.0
4683,35.0,0,60,7.0,100.0
4684,80.0,0,30,7.0,100.0
4685,66.0,0,30,7.0,100.0
4686,57.0,0,60,5.0,80.0
4687,78.0,30,30,7.0,100.0
4688,71.0,0,30,7.0,100.0
4689,59.0,0,120,7.0,100.0
4690,57.0,0,60,7.0,100.0
4691,45.0,0,60,7.0,100.0
4692,76.0,0,30,7.0,100.0
4693,66.0,0,30,7.0,100.0
4694,87.0,30,120,4.0,80.0
4695,71.0,0,120,4.0,80.0
4696,47.0,30,60,5.0,80.0
4697,75.0,30,30,7.0,100.0
4698,71.0,0,30,7.0,100.0
4699,59.0,0,60,7.0,100.0
4700,47.0,0,60,7.0,100.0
4701,35.0,0,60,7.0,100.0
4702,76.0,0,30,7.0,100.0
4703,75.0,30,30,7.0,100.0
4704,78.0,30,30,7.0,100.0
4705,88.0,30,120,4.0,80.0
4706,71.0,0,120,4.0,80.0
4707,56.0,0,120,5.0,80.0
4708,59.0,0,600,6.0,80.0
4709,52.0,0,120,6.0,80.0
4710,76.0,30,30,7.0,100.0
4711,59.0,0,120,7.0,100.0
4712,56.0,0,120,7.0,100.0
4713,44.0,0,120,7.0,100.0
4714,80.0,30,30,7.0,100.0
4715,78.0,30,30,7.0,100.0
4716,76.0,0,30,7.0,100.0
4717,56.0,30,60,5.0,80.0
4718,75.0,30,30,7.0,100.0
4719,71.0,0,60,7.0,100.0
4720,56.0,0,60,7.0,100.0
4721,44.0,0,60,7.0,100.0
4722,73.0,0,30,7.0,100.0
4723,72.0,30,30,7.0,100.0
4724,60.0,0,30,7.0,100.0
4725,75.0,30,30,7.0,100.0
4726,63.0,0,30,7.0,100.0
4727,57.0,30,120,5.0,80.0
4728,52.0,0,180,6.0,80.0
4729,73.0,30,30,7.0,100.0
4730,61.0,0,30,7.0,100.0
4731,69.0,0,120,7.0,100.0
4732,57.0,0,120,7.0,100.0
4733,45.0,0,120,7.0,100.0
4734,76.0,30,60,7.0,100.0
4735,64.0,0,60,7.0,100.0
4736,56.0,60,60,5.0,80.0
4737,56.0,0,60,7.0,100.0
4738,44.0,0,60,7.0,100.0
4739,85.0,60,30,4.0,80.0
4740,61.0,0,30,4.0,80.0
4741,73.0,0,30,7.0,100.0
4742,61.0,0,30,7.0,100.0
4743,84.0,30,30,4.0,80.0
4744,72.0,0,30,7.0,100.0
4745,87.0,30,30,4.0,80.0
4746,75.0,0,30,7.0,100.0
4747,85.0,30,30,4.0,80.0
4748,57.0,0,120,5.0,80.0
4749,52.0,0,180,6.0,80.0
4750,40.0,0,120,6.0,80.0
4751,73.0,0,30,7.0,100.0
4752,64.0,0,180,7.0,100.0
4753,57.0,0,120,7.0,100.0
4754,45.0,0,120,7.0,100.0
4755,88.0,30,30,4.0,80.0
4756,76.0,0,30,7.0,100.0
4757,86.0,30,30,4.0,80.0
4758,74.0,0,30,7.0,100.0
4759,85.0,30,30,4.0,80.0
4760,73.0,0,30,7.0,100.0
4761,83.0,30,30,4.0,80.0
4762,53.0,0,60,5.0,80.0
4763,71.0,0,30,7.0,100.0
4764,68.0,0,60,7.0,100.0
4765,53.0,0,60,7.0,100.0
4766,41.0,0,60,7.0,100.0
4767,81.0,30,30,4.0,80.0
4768,69.0,0,30,7.0,100.0
4769,80.0,30,30,4.0,80.0
4770,68.0,0,30,7.0,100.0
4771,83.0,30,30,4.0,80.0
4772,71.0,0,30,7.0,100.0
4773,81.0,30,30,4.0,80.0
4774,54.0,0,120,5.0,80.0
4775,69.0,0,30,7.0,100.0
4776,66.0,0,120,7.0,100.0
4777,54.0,0,120,7.0,100.0
4778,42.0,0,120,7.0,100.0
4779,85.0,30,60,4.0,80.0
4780,73.0,0,60,7.0,100.0
4781,53.0,60,60,5.0,80.0
4782,53.0,0,60,7.0,100.0
4783,41.0,0,60,7.0,100.0
4784,81.0,60,30,4.0,80.0
4785,69.0,0,30,7.0,100.0
4786,80.0,30,30,4.0,80.0
4787,68.0,0,30,7.0,100.0
4788,83.0,30,30,4.0,80.0
4789,71.0,0,30,7.0,100.0
4790,81.0,30,30,4.0,80.0
4791,54.0,0,120,5.0,80.0
4792,69.0,0,30,7.0,100.0
4793,61.0,0,180,7.0,100.0
4794,54.0,0,120,7.0,100.0
4795,42.0,0,120,7.0,100.0
4796,85.0,30,30,4.0,80.0
4797,73.0,0,30,7.0,100.0
4798,83.0,30,30,4.0,80.0
4799,71.0,0,30,7.0,100.0
4800,81.0,30,30,4.0,80.0
4801,69.0,0,30,7.0,100.0
4802,80.0,30,30,4.0,80.0
4803,49.0,0,60,5.0,80.0
4804,68.0,0,30,7.0,100.0
4805,49.0,0,60,7.0,100.0
4806,37.0,0,60,7.0,100.0
4807,78.0,30,30,4.0,80.0
4808,66.0,0,30,7.0,100.0
4809,77.0,30,30,4.0,80.0
4810,65.0,0,30,7.0,100.0
4811,80.0,30,30,4.0,80.0
4812,68.0,0,30,7.0,100.0
4813,78.0,30,30,4.0,80.0
4814,45.0,0,120,5.0,80.0
4815,66.0,0,30,7.0,100.0
4816,61.0,0,180,7.0,100.0
4817,45.0,0,120,7.0,100.0
4818,33.0,0,120,7.0,100.0
4819,69.0,0,30,7.0,100.0
4820,81.0,30,60,4.0,80.0
4821,68.0,30,30,7.0,100.0
4822,66.0,0,30,7.0,100.0
4823,46.0,30,60,5.0,80.0
4824,64.0,30,30,7.0,100.0
4825,61.0,0,60,7.0,100.0
4826,46.0,0,60,7.0,100.0
4827,34.0,0,60,7.0,100.0
4828,75.0,30,30,4.0,80.0
4829,63.0,0,30,7.0,100.0
4830,73.0,30,30,4.0,80.0
4831,61.0,0,30,7.0,100.0
4832,54.0,0,60,7.0,100.0
4833,47.0,0,60,7.0,100.0
4834,35.0,0,60,7.0,100.0
4835,71.0,30,30,4.0,80.0
4836,73.0,30,30,4.0,80.0
4837,61.0,0,30,7.0,100.0
4838,47.0,0,60,7.0,100.0
4839,35.0,0,60,7.0,100.0
4840,75.0,30,30,4.0,80.0
4841,63.0,0,30,7.0,100.0
4842,76.0,30,30,4.0,80.0
4843,64.0,0,30,7.0,100.0
4844,59.0,0,120,7.0,100.0
4845,47.0,0,60,7.0,100.0
4846,35.0,0,60,7.0,100.0
4847,78.0,30,30,4.0,80.0
4848,66.0,0,30,7.0,100.0
4849,80.0,30,30,4.0,80.0
4850,47.0,0,240,5.0,80.0
4851,68.0,0,30,7.0,100.0
4852,47.0,0,60,7.0,100.0
4853,35.0,0,60,7.0,100.0
4854,81.0,30,30,4.0,80.0
4855,69.0,0,30,7.0,100.0
4856,80.0,30,30,4.0,80.0
4857,68.0,0,30,7.0,100.0
4858,63.0,0,120,7.0,100.0
4859,45.0,0,60,7.0,100.0
4860,33.0,0,60,7.0,100.0
4861,78.0,30,30,4.0,80.0
4862,66.0,0,30,7.0,100.0
4863,80.0,30,30,4.0,80.0
4864,68.0,0,30,7.0,100.0
4865,63.0,0,60,7.0,100.0
4866,45.0,0,60,7.0,100.0
4867,33.0,0,60,7.0,100.0
4868,81.0,30,30,4.0,80.0
4869,69.0,0,30,7.0,100.0
4870,83.0,30,30,4.0,80.0
4871,71.0,0,30,7.0,100.0
4872,66.0,0,60,7.0,100.0
4873,45.0,0,60,7.0,100.0
4874,33.0,0,60,7.0,100.0
4875,85.0,30,30,4.0,80.0
4876,73.0,0,30,7.0,100.0
4877,66.0,0,30,7.0,100.0
4878,87.0,30,30,4.0,80.0
4879,45.0,0,240,5.0,80.0
4880,75.0,0,30,7.0,100.0
4881,45.0,0,60,7.0,100.0
4882,33.0,0,60,7.0,100.0
4883,76.0,0,60,7.0,100.0
4884,68.0,0,60,7.0,100.0
4885,44.0,0,60,7.0,100.0
4886,32.0,0,60,7.0,100.0
4887,80.0,60,30,7.0,100.0
4888,88.0,30,120,4.0,80.0
4889,44.0,0,120,5.0,80.0
4890,59.0,0,600,6.0,80.0
4891,76.0,30,30,7.0,100.0
4892,68.0,0,60,7.0,100.0
4893,44.0,0,60,7.0,100.0
4894,32.0,0,60,7.0,100.0
4895,83.0,0,60,7.0,100.0
4896,56.0,0,60,7.0,100.0
4897,44.0,0,60,7.0,100.0
4898,76.0,30,120,4.0,80.0
4899,71.0,0,120,4.0,80.0
4900,56.0,0,120,5.0,80.0
4901,68.0,0,120,7.0,100.0
4902,56.0,60,60,7.0,100.0
4903,44.0,0,60,7.0,100.0
4904,57.0,0,60,7.0,100.0
4905,45.0,0,60,7.0,100.0
4906,78.0,60,120,4.0,80.0
4907,57.0,0,120,5.0,80.0
4908,69.0,0,120,7.0,100.0
4909,57.0,60,60,7.0,100.0
4910,45.0,0,60,7.0,100.0
4911,70.0,0,60,7.0,100.0
4912,58.0,0,60,7.0,100.0
4913,46.0,0,60,7.0,100.0
4914,79.0,60,120,4.0,80.0
4915,73.0,0,240,4.0,80.0
4916,58.0,0,120,5.0,80.0
4917,52.0,0,480,6.0,80.0
4918,85.0,0,120,7.0,100.0
4919,70.0,60,60,7.0,100.0
4920,58.0,0,60,7.0,100.0
4921,46.0,0,60,7.0,100.0
4922,83.0,0,60,7.0,100.0
4923,71.0,0,60,7.0,100.0
4924,59.0,0,60,7.0,100.0
4925,47.0,0,60,7.0,100.0
4926,80.0,60,30,7.0,100.0
4927,80.0,60,120,4.0,80.0
4928,71.0,0,120,4.0,80.0
4929,59.0,0,120,5.0,80.0
4930,76.0,30,30,7.0,100.0
4931,59.0,0,60,7.0,100.0
4932,47.0,0,60,7.0,100.0
4933,56.0,0,60,5.0,80.0
4934,71.0,0,120,7.0,100.0
4935,56.0,0,60,7.0,100.0
4936,44.0,0,60,7.0,100.0
4937,78.0,30,90,4.0,80.0
4938,64.0,0,90,4.0,80.0
4939,68.0,0,90,7.0,100.0
4940,78.0,30,30,4.0,80.0
4941,64.0,0,30,4.0,80.0
4942,52.0,60,60,5.0,80.0
4943,64.0,0,60,7.0,100.0
4944,52.0,0,60,7.0,100.0
4945,40.0,0,60,7.0,100.0
4946,80.0,30,30,4.0,80.0
4947,64.0,0,30,4.0,80.0
4948,47.0,0,60,7.0,100.0
4949,35.0,0,60,7.0,100.0
4950,80.0,60,30,4.0,80.0
4951,64.0,0,30,4.0,80.0
4952,47.0,0,60,7.0,100.0
4953,35.0,0,60,7.0,100.0
4954,78.0,60,30,4.0,80.0
4955,63.0,0,30,4.0,80.0
4956,47.0,0,60,7.0,100.0
4957,35.0,0,60,7.0,100.0
4958,78.0,60,30,4.0,80.0
4959,63.0,0,30,4.0,80.0
4960,47.0,0,240,5.0,80.0
4961,66.0,0,120,7.0,100.0
4962,75.0,0,120,7.0,100.0
4963,47.0,0,60,7.0,100.0
4964,35.0,0,60,7.0,100.0
4965,76.0,60,120,4.0,80.0
4966,64.0,0,120,4.0,80.0
4967,52.0,0,120,5.0,80.0
4968,59.0,0,600,6.0,80.0
4969,52.0,0,120,6.0,80.0
4970,59.0,0,360,7.0,100.0
4971,68.0,0,120,7.0,100.0
4972,76.0,0,120,7.0,100.0
4973,64.0,0,120,7.0,100.0
4974,52.0,0,120,7.0,100.0
4975,40.0,0,120,7.0,100.0
4976,76.0,240,120,7.0,100.0
4977,64.0,0,120,7.0,100.0
4978,80.0,120,60,7.0,100.0
4979,68.0,0,60,7.0,100.0
4980,73.0,120,120,7.0,100.0
4981,61.0,0,120,7.0,100.0
4982,76.0,120,60,7.0,100.0
4983,64.0,0,60,7.0,100.0
4984,61.0,0,30,7.0,100.0
4985,57.0,0,30,7.0,100.0
4986,45.0,0,30,7.0,100.0
4987,66.0,120,90,7.0,100.0
4988,66.0,90,30,7.0,100.0
4989,63.0,0,30,7.0,100.0
4990,59.0,0,30,7.0,100.0
4991,47.0,0,30,7.0,100.0
4992,68.0,30,90,7.0,100.0
4993,68.0,90,30,7.0,100.0
4994,71.0,30,120,7.0,100.0
4995,64.0,0,120,7.0,100.0
4996,61.0,0,120,7.0,100.0
4997,49.0,0,120,7.0,100.0
4998,69.0,120,60,7.0,100.0
4999,81.0,120,120,7.0,100.0
5000,69.0,0,120,7.0,100.0
5001,85.0,120,60,7.0,100.0
5002,73.0,0,60,7.0,100.0
5003,78.0,120,120,7.0,100.0
5004,66.0,0,120,7.0,100.0
5005,81.0,120,60,7.0,100.0
5006,69.0,0,60,7.0,100.0
5007,69.0,0,30,7.0,100.0
5008,66.0,0,30,7.0,100.0
5009,54.0,0,30,7.0,100.0
5010,42.0,0,30,7.0,100.0
5011,73.0,120,90,7.0,100.0
5012,73.0,90,30,7.0,100.0
5013,69.0,0,30,7.0,100.0
5014,66.0,0,30,7.0,100.0
5015,59.0,0,30,7.0,100.0
5016,47.0,0,30,7.0,100.0
5017,75.0,30,90,7.0,100.0
5018,75.0,90,30,7.0,100.0
5019,76.0,30,30,7.0,100.0
5020,80.0,30,30,7.0,100.0
5021,83.0,30,30,7.0,100.0
5022,80.0,30,30,7.0,100.0
5023,68.0,0,120,7.0,100.0
5024,64.0,0,120,7.0,100.0
5025,52.0,0,120,7.0,100.0
5026,40.0,0,120,7.0,100.0
5027,76.0,30,30,7.0,100.0
5028,71.0,30,30,7.0,100.0
5029,68.0,30,30,7.0,100.0
5030,71.0,30,30,7.0,100.0
5031,73.0,30,30,7.0,100.0
5032,66.0,0,30,7.0,100.0
5033,57.0,0,30,7.0,100.0
5034,45.0,0,30,7.0,100.0
5035,69.0,0,60,7.0,100.0
5036,73.0,60,30,7.0,100.0
5037,76.0,30,30,7.0,100.0
5038,75.0,30,30,7.0,100.0
5039,69.0,0,30,7.0,100.0
5040,66.0,0,30,7.0,100.0
5041,59.0,0,30,7.0,100.0
5042,47.0,0,30,7.0,100.0
5043,71.0,30,30,7.0,100.0
5044,75.0,30,30,7.0,100.0
5045,78.0,30,30,7.0,100.0
5046,76.0,30,30,7.0,100.0
5047,80.0,30,30,7.0,100.0
5048,83.0,30,30,7.0,100.0
5049,80.0,30,30,7.0,100.0
5050,68.0,0,120,7.0,100.0
5051,64.0,0,120,7.0,100.0
5052,52.0,0,120,7.0,100.0
5053,40.0,0,120,7.0,100.0
5054,76.0,30,30,7.0,100.0
5055,71.0,30,30,7.0,100.0
5056,68.0,30,30,7.0,100.0
5057,71.0,30,30,7.0,100.0
5058,73.0,30,30,7.0,100.0
5059,66.0,0,30,7.0,100.0
5060,57.0,0,30,7.0,100.0
5061,45.0,0,30,7.0,100.0
5062,69.0,0,60,7.0,100.0
5063,73.0,60,30,7.0,100.0
5064,76.0,30,30,7.0,100.0
5065,75.0,30,30,7.0,100.0
5066,69.0,0,30,7.0,100.0
5067,66.0,0,30,7.0,100.0
5068,59.0,0,30,7.0,100.0
5069,47.0,0,30,7.0,100.0
5070,71.0,30,30,7.0,100.0
5071,75.0,30,30,7.0,100.0
5072,78.0,30,30,7.0,100.0
5073,76.0,0,30,7.0,100.0
5074,52.0,0,60,5.0,80.0
5075,71.0,30,30,7.0,100.0
5076,68.0,0,60,7.0,100.0
5077,64.0,0,60,7.0,100.0
5078,52.0,0,60,7.0,100.0
5079,40.0,0,60,7.0,100.0
5080,76.0,0,30,7.0,100.0
5081,68.0,0,30,7.0,100.0
5082,88.0,30,120,4.0,80.0
5083,80.0,0,120,4.0,80.0
5084,59.0,0,120,6.0,80.0
5085,52.0,0,120,6.0,80.0
5086,71.0,30,30,7.0,100.0
5087,52.0,0,60,7.0,100.0
5088,68.0,0,30,7.0,100.0
5089,52.0,0,60,7.0,100.0
5090,88.0,30,90,4.0,80.0
5091,80.0,0,90,4.0,80.0
5092,59.0,0,90,6.0,80.0
5093,52.0,0,90,6.0,80.0
5094,68.0,60,30,7.0,100.0
5095,88.0,30,30,4.0,80.0
5096,80.0,0,30,4.0,80.0
5097,64.0,30,180,5.0,80.0
5098,59.0,0,30,6.0,80.0
5099,52.0,0,30,6.0,80.0
5100,71.0,0,30,7.0,100.0
5101,64.0,0,180,7.0,100.0
5102,52.0,0,60,7.0,100.0
5103,76.0,0,30,7.0,100.0
5104,88.0,30,60,4.0,80.0
5105,80.0,0,60,4.0,80.0
5106,59.0,0,60,5.0,80.0
5107,59.0,0,60,6.0,80.0
5108,52.0,0,60,6.0,80.0
5109,71.0,30,30,7.0,100.0
5110,59.0,0,60,7.0,100.0
5111,47.0,0,60,7.0,100.0
5112,76.0,0,30,7.0,100.0
5113,88.0,30,60,4.0,80.0
5114,80.0,0,60,4.0,80.0
5115,64.0,0,60,5.0,80.0
5116,59.0,0,60,6.0,80.0
5117,52.0,0,60,6.0,80.0
5118,80.0,30,30,7.0,100.0
5119,64.0,0,60,7.0,100.0
5120,52.0,0,60,7.0,100.0
5121,83.0,0,30,7.0,100.0
5122,88.0,30,60,4.0,80.0
5123,80.0,0,60,4.0,80.0
5124,56.0,0,60,5.0,80.0
5125,59.0,0,60,6.0,80.0
5126,52.0,0,60,6.0,80.0
5127,80.0,30,30,7.0,100.0
5128,56.0,0,60,7.0,100.0
5129,44.0,0,60,7.0,100.0
5130,83.0,0,30,7.0,100.0
5131,88.0,30,60,4.0,80.0
5132,80.0,0,60,4.0,80.0
5133,59.0,0,60,5.0,80.0
5134,59.0,0,60,6.0,80.0
5135,52.0,0,60,6.0,80.0
5136,80.0,30,30,7.0,100.0
5137,59.0,0,60,7.0,100.0
5138,47.0,0,60,7.0,100.0
5139,88.0,30,60,4.0,80.0
5140,80.0,0,60,4.0,80.0
5141,52.0,0,60,5.0,80.0
5142,59.0,0,60,6.0,80.0
5143,52.0,0,60,6.0,80.0
5144,76.0,0,60,7.0,100.0
5145,52.0,0,60,7.0,100.0
5146,40.0,0,60,7.0,100.0
5147,88.0,120,60,4.0,80.0
5148,80.0,0,60,4.0,80.0
5149,52.0,0,60,5.0,80.0
5150,59.0,0,60,6.0,80.0
5151,52.0,0,60,6.0,80.0
5152,71.0,0,60,7.0,100.0
5153,80.0,0,60,7.0,100.0
5154,64.0,0,60,7.0,100.0
5155,52.0,0,60,7.0,100.0
5156,40.0,0,60,7.0,100.0
5157,88.0,120,60,4.0,80.0
5158,80.0,0,60,4.0,80.0
5159,52.0,0,60,5.0,80.0
5160,59.0,0,60,6.0,80.0
5161,52.0,0,60,6.0,80.0
5162,64.0,0,60,7.0,100.0
5163,71.0,0,60,7.0,100.0
5164,76.0,0,60,7.0,100.0
5165,52.0,0,60,7.0,100.0
5166,40.0,0,60,7.0,100.0
5167,71.0,240,240,3.0,127.0
5168,68.0,0,240,7.0,100.0
5169,68.0,240,180,3.0,127.0
5170,69.0,180,60,3.0,127.0
5171,66.0,0,60,7.0,100.0
5172,73.0,60,60,3.0,127.0
5173,69.0,0,60,7.0,100.0
5174,71.0,60,60,3.0,127.0
5175,68.0,0,60,7.0,100.0
5176,68.0,0,30,7.0,100.0
5177,68.0,60,30,7.0,100.0
5178,71.0,60,180,3.0,127.0
5179,80.0,60,60,3.0,127.0
5180,68.0,60,120,7.0,100.0
5181,64.0,0,840,7.0,100.0
5182,78.0,60,60,3.0,127.0
5183,76.0,60,60,3.0,127.0
5184,75.0,60,60,3.0,127.0
5185,78.0,60,60,3.0,127.0
5186,81.0,60,180,3.0,127.0
5187,63.0,0,180,7.0,100.0
5188,80.0,180,60,3.0,127.0
5189,64.0,0,60,7.0,100.0
5190,61.0,0,60,7.0,100.0
5191,78.0,60,60,3.0,127.0
5192,66.0,0,60,7.0,100.0
5193,63.0,0,60,7.0,100.0
5194,76.0,60,60,3.0,127.0
5195,68.0,0,60,7.0,100.0
5196,64.0,0,60,7.0,100.0
5197,76.0,60,60,3.0,127.0
5198,69.0,0,60,7.0,100.0
5199,66.0,0,60,7.0,100.0
5200,75.0,60,60,3.0,127.0
5201,59.0,0,600,7.0,100.0
5202,47.0,0,600,7.0,100.0
5203,35.0,0,120,7.0,100.0
5204,73.0,60,60,3.0,127.0
5205,66.0,0,60,7.0,100.0
5206,63.0,0,60,7.0,100.0
5207,71.0,60,60,3.0,127.0
5208,70.0,60,60,3.0,127.0
5209,71.0,60,60,3.0,127.0
5210,59.0,0,120,7.0,100.0
5211,47.0,0,120,7.0,100.0
5212,35.0,0,120,7.0,100.0
5213,73.0,60,60,3.0,127.0
5214,75.0,60,60,3.0,127.0
5215,69.0,0,120,7.0,100.0
5216,66.0,0,120,7.0,100.0
5217,52.0,0,120,7.0,100.0
5218,40.0,0,120,7.0,100.0
5219,76.0,60,240,3.0,127.0
5220,68.0,0,240,7.0,100.0
5221,68.0,240,180,3.0,127.0
5222,69.0,180,60,3.0,127.0
5223,66.0,0,60,7.0,100.0
5224,73.0,60,60,3.0,127.0
5225,69.0,0,60,7.0,100.0
5226,71.0,60,60,3.0,127.0
5227,68.0,0,60,7.0,100.0
5228,68.0,0,30,7.0,100.0
5229,68.0,60,30,7.0,100.0
5230,71.0,60,180,3.0,127.0
5231,80.0,60,60,3.0,127.0
5232,68.0,60,120,7.0,100.0
5233,64.0,0,840,7.0,100.0
5234,78.0,60,60,3.0,127.0
5235,76.0,60,60,3.0,127.0
5236,75.0,60,60,3.0,127.0
5237,78.0,60,60,3.0,127.0
5238,81.0,60,180,3.0,127.0
5239,63.0,0,180,7.0,100.0
5240,80.0,180,60,3.0,127.0
5241,64.0,0,60,7.0,100.0
5242,61.0,0,60,7.0,100.0
5243,78.0,60,60,3.0,127.0
5244,66.0,0,60,7.0,100.0
5245,63.0,0,60,7.0,100.0
5246,76.0,60,60,3.0,127.0
5247,68.0,0,60,7.0,100.0
5248,64.0,0,60,7.0,100.0
5249,76.0,60,60,3.0,127.0
5250,69.0,0,60,7.0,100.0
5251,66.0,0,60,7.0,100.0
5252,75.0,60,60,3.0,127.0
5253,59.0,0,600,7.0,100.0
5254,47.0,0,600,7.0,100.0
5255,35.0,0,120,7.0,100.0
5256,73.0,60,60,3.0,127.0
5257,66.0,0,60,7.0,100.0
5258,63.0,0,60,7.0,100.0
5259,71.0,60,60,3.0,127.0
5260,70.0,60,60,3.0,127.0
5261,71.0,60,60,3.0,127.0
5262,59.0,0,120,7.0,100.0
5263,47.0,0,120,7.0,100.0
5264,35.0,0,120,7.0,100.0
5265,73.0,60,60,3.0,127.0
5266,75.0,60,60,3.0,127.0
5267,69.0,0,120,7.0,100.0
5268,66.0,0,120,7.0,100.0
5269,68.0,0,60,7.0,100.0
5270,64.0,0,60,7.0,100.0
5271,59.0,0,60,7.0,100.0
5272,52.0,0,60,7.0,100.0
5273,40.0,0,60,7.0,100.0
5274,76.0,60,120,3.0,127.0
5275,71.0,60,60,7.0,100.0
5276,59.0,0,60,7.0,100.0
5277,52.0,0,60,7.0,100.0
5278,40.0,0,60,7.0,100.0
5279,64.0,60,30,3.0,127.0
5280,66.0,30,30,3.0,127.0
5281,68.0,0,180,7.0,100.0
5282,64.0,60,120,7.0,100.0
5283,59.0,0,120,7.0,100.0
5284,52.0,0,120,7.0,100.0
5285,40.0,0,120,7.0,100.0
5286,68.0,30,30,3.0,127.0
5287,69.0,30,30,3.0,127.0
5288,71.0,30,30,3.0,127.0
5289,73.0,30,30,3.0,127.0
5290,75.0,30,30,3.0,127.0
5291,76.0,30,30,3.0,127.0
5292,78.0,30,30,3.0,127.0
5293,80.0,30,30,3.0,127.0
5294,81.0,30,30,3.0,127.0
5295,83.0,30,30,3.0,127.0
5296,81.0,30,30,3.0,127.0
5297,80.0,30,30,3.0,127.0
5298,59.0,0,120,7.0,100.0
5299,47.0,0,120,7.0,100.0
5300,35.0,0,120,7.0,100.0
5301,78.0,30,30,3.0,127.0
5302,76.0,30,30,3.0,127.0
5303,75.0,30,30,3.0,127.0
5304,73.0,30,30,3.0,127.0
5305,69.0,0,120,7.0,100.0
5306,63.0,0,120,7.0,100.0
5307,71.0,30,30,3.0,127.0
5308,75.0,30,30,3.0,127.0
5309,78.0,30,30,3.0,127.0
5310,76.0,30,30,3.0,127.0
5311,59.0,0,120,7.0,100.0
5312,47.0,0,120,7.0,100.0
5313,35.0,0,120,7.0,100.0
5314,75.0,30,30,3.0,127.0
5315,73.0,30,30,3.0,127.0
5316,71.0,30,30,3.0,127.0
5317,69.0,30,30,3.0,127.0
5318,66.0,0,120,7.0,100.0
5319,63.0,0,120,7.0,100.0
5320,68.0,0,60,7.0,100.0
5321,64.0,0,60,7.0,100.0
5322,59.0,0,60,7.0,100.0
5323,52.0,0,60,7.0,100.0
5324,40.0,0,60,7.0,100.0
5325,68.0,30,120,3.0,127.0
5326,71.0,60,60,7.0,100.0
5327,64.0,0,60,7.0,100.0
5328,59.0,0,60,7.0,100.0
5329,52.0,0,60,7.0,100.0
5330,40.0,0,60,7.0,100.0
5331,64.0,60,30,3.0,127.0
5332,66.0,30,30,3.0,127.0
5333,68.0,60,120,7.0,100.0
5334,64.0,0,120,7.0,100.0
5335,59.0,0,120,7.0,100.0
5336,52.0,0,120,7.0,100.0
5337,40.0,0,120,7.0,100.0
5338,68.0,30,30,3.0,127.0
5339,69.0,30,30,3.0,127.0
5340,71.0,30,30,3.0,127.0
5341,73.0,30,30,3.0,127.0
5342,75.0,30,30,3.0,127.0
5343,76.0,30,30,3.0,127.0
5344,78.0,30,30,3.0,127.0
5345,80.0,30,30,3.0,127.0
5346,81.0,30,30,3.0,127.0
5347,83.0,30,30,3.0,127.0
5348,81.0,30,30,3.0,127.0
5349,80.0,30,30,3.0,127.0
5350,59.0,0,120,7.0,100.0
5351,47.0,0,120,7.0,100.0
5352,35.0,0,120,7.0,100.0
5353,78.0,30,30,3.0,127.0
5354,76.0,30,30,3.0,127.0
5355,75.0,30,30,3.0,127.0
5356,73.0,30,30,3.0,127.0
5357,69.0,0,120,7.0,100.0
5358,63.0,0,120,7.0,100.0
5359,71.0,30,30,3.0,127.0
5360,75.0,30,30,3.0,127.0
5361,78.0,30,30,3.0,127.0
5362,76.0,30,30,3.0,127.0
5363,59.0,0,120,7.0,100.0
5364,47.0,0,120,7.0,100.0
5365,35.0,0,120,7.0,100.0
5366,75.0,30,30,3.0,127.0
5367,73.0,30,30,3.0,127.0
5368,71.0,30,30,3.0,127.0
5369,69.0,30,30,3.0,127.0
5370,66.0,0,120,7.0,100.0
5371,63.0,0,120,7.0,100.0
5372,68.0,0,60,7.0,100.0
5373,64.0,0,60,7.0,100.0
5374,59.0,0,60,7.0,100.0
5375,52.0,0,60,7.0,100.0
5376,40.0,0,60,7.0,100.0
5377,68.0,30,120,3.0,127.0
5378,71.0,60,60,7.0,100.0
5379,64.0,0,60,7.0,100.0
5380,59.0,0,60,7.0,100.0
5381,52.0,0,60,7.0,100.0
5382,40.0,0,60,7.0,100.0
5383,64.0,30,30,3.0,127.0
5384,66.0,30,30,3.0,127.0
5385,68.0,30,30,3.0,127.0
5386,68.0,60,120,7.0,100.0
5387,64.0,0,120,7.0,100.0
5388,52.0,0,120,7.0,100.0
5389,40.0,0,120,7.0,100.0
5390,69.0,30,30,3.0,127.0
5391,71.0,30,30,3.0,127.0
5392,73.0,30,30,3.0,127.0
5393,75.0,30,30,3.0,127.0
5394,76.0,30,30,3.0,127.0
5395,78.0,30,30,3.0,127.0
5396,76.0,30,30,3.0,127.0
5397,75.0,30,30,3.0,127.0
5398,71.0,0,60,7.0,100.0
5399,68.0,0,60,7.0,100.0
5400,64.0,0,60,7.0,100.0
5401,52.0,0,60,7.0,100.0
5402,40.0,0,60,7.0,100.0
5403,76.0,30,120,3.0,127.0
5404,71.0,60,60,7.0,100.0
5405,68.0,0,60,7.0,100.0
5406,64.0,0,60,7.0,100.0
5407,52.0,0,60,7.0,100.0
5408,40.0,0,60,7.0,100.0
5409,68.0,30,30,3.0,127.0
5410,69.0,30,30,3.0,127.0
5411,71.0,30,30,3.0,127.0
5412,71.0,60,120,7.0,100.0
5413,68.0,0,120,7.0,100.0
5414,64.0,0,120,7.0,100.0
5415,52.0,0,120,7.0,100.0
5416,40.0,0,120,7.0,100.0
5417,73.0,30,30,3.0,127.0
5418,75.0,30,30,3.0,127.0
5419,76.0,30,30,3.0,127.0
5420,78.0,30,30,3.0,127.0
5421,80.0,30,30,3.0,127.0
5422,81.0,30,30,3.0,127.0
5423,80.0,30,30,3.0,127.0
5424,78.0,30,30,3.0,127.0
5425,76.0,0,60,7.0,100.0
5426,71.0,0,60,7.0,100.0
5427,68.0,0,60,7.0,100.0
5428,52.0,0,60,7.0,100.0
5429,40.0,0,60,7.0,100.0
5430,80.0,30,120,3.0,127.0
5431,76.0,60,60,7.0,100.0
5432,71.0,0,60,7.0,100.0
5433,68.0,0,60,7.0,100.0
5434,52.0,0,60,7.0,100.0
5435,40.0,0,60,7.0,100.0
5436,71.0,30,30,3.0,127.0
5437,73.0,30,30,3.0,127.0
5438,75.0,30,30,3.0,127.0
5439,76.0,60,120,7.0,100.0
5440,71.0,0,120,7.0,100.0
5441,68.0,0,120,7.0,100.0
5442,52.0,0,120,7.0,100.0
5443,40.0,0,120,7.0,100.0
5444,76.0,30,30,3.0,127.0
5445,75.0,30,30,3.0,127.0
5446,78.0,30,30,3.0,127.0
5447,76.0,30,30,3.0,127.0
5448,80.0,30,30,3.0,127.0
5449,78.0,30,30,3.0,127.0
5450,81.0,30,30,3.0,127.0
5451,80.0,30,30,3.0,127.0
5452,66.0,120,120,7.0,100.0
5453,50.0,0,120,7.0,100.0
5454,38.0,0,120,7.0,100.0
5455,65.0,120,120,7.0,100.0
5456,56.0,0,240,7.0,100.0
5457,59.0,0,240,7.0,100.0
5458,49.0,0,120,7.0,100.0
5459,37.0,0,120,7.0,100.0
5460,66.0,120,120,7.0,100.0
5461,56.0,0,120,7.0,100.0
5462,59.0,0,120,7.0,100.0
5463,50.0,0,120,7.0,100.0
5464,38.0,0,120,7.0,100.0
5465,83.0,30,540,3.0,127.0
5466,65.0,120,60,7.0,100.0
5467,56.0,0,60,7.0,100.0
5468,59.0,0,60,7.0,100.0
5469,49.0,0,60,7.0,100.0
5470,37.0,0,60,7.0,100.0
5471,80.0,60,120,3.0,127.0
5472,65.0,60,60,7.0,100.0
5473,56.0,0,60,7.0,100.0
5474,59.0,0,60,7.0,100.0
5475,49.0,0,60,7.0,100.0
5476,37.0,0,60,7.0,100.0
5477,77.0,60,120,3.0,127.0
5478,65.0,60,60,7.0,100.0
5479,56.0,0,60,7.0,100.0
5480,59.0,0,60,7.0,100.0
5481,49.0,0,60,7.0,100.0
5482,37.0,0,60,7.0,100.0
5483,74.0,60,120,3.0,127.0
5484,65.0,60,60,7.0,100.0
5485,56.0,0,60,7.0,100.0
5486,59.0,0,60,7.0,100.0
5487,49.0,0,60,7.0,100.0
5488,37.0,0,60,7.0,100.0
5489,71.0,60,120,3.0,127.0
5490,65.0,60,60,7.0,100.0
5491,56.0,0,60,7.0,100.0
5492,59.0,0,60,7.0,100.0
5493,49.0,0,60,7.0,100.0
5494,37.0,0,60,7.0,100.0
5495,68.0,60,120,3.0,127.0
5496,65.0,60,60,7.0,100.0
5497,56.0,0,60,7.0,100.0
5498,59.0,0,60,7.0,100.0
5499,49.0,0,60,7.0,100.0
5500,37.0,0,60,7.0,100.0
5501,65.0,60,60,3.0,127.0
5502,61.0,60,60,3.0,127.0
5503,65.0,0,60,7.0,100.0
5504,56.0,0,60,7.0,100.0
5505,59.0,0,60,7.0,100.0
5506,49.0,0,60,7.0,100.0
5507,37.0,0,60,7.0,100.0
5508,59.0,60,60,3.0,127.0
5509,57.0,60,60,3.0,127.0
5510,65.0,0,60,7.0,100.0
5511,56.0,0,60,7.0,100.0
5512,59.0,0,60,7.0,100.0
5513,49.0,0,60,7.0,100.0
5514,37.0,0,60,7.0,100.0
5515,56.0,60,60,3.0,127.0
5516,66.0,0,60,7.0,100.0
5517,54.0,60,120,3.0,127.0
5518,57.0,0,120,7.0,100.0
5519,54.0,0,120,7.0,100.0
5520,42.0,0,120,7.0,100.0
5521,69.0,60,120,7.0,100.0
5522,66.0,0,120,7.0,100.0
5523,52.0,60,120,3.0,127.0
5524,69.0,60,120,7.0,100.0
5525,66.0,0,120,7.0,100.0
5526,50.0,60,120,3.0,127.0
5527,69.0,60,120,7.0,100.0
5528,66.0,0,120,7.0,100.0
5529,49.0,60,120,3.0,127.0
5530,69.0,60,60,7.0,100.0
5531,66.0,0,60,7.0,100.0
5532,68.0,60,60,7.0,100.0
5533,66.0,0,60,7.0,100.0
5534,68.0,60,60,7.0,100.0
5535,66.0,0,60,7.0,100.0
5536,47.0,60,240,3.0,127.0
5537,68.0,60,60,7.0,100.0
5538,66.0,0,60,7.0,100.0
5539,68.0,60,60,7.0,100.0
5540,66.0,0,60,7.0,100.0
5541,68.0,60,60,7.0,100.0
5542,66.0,0,60,7.0,100.0
5543,48.0,60,240,3.0,127.0
5544,68.0,60,60,7.0,100.0
5545,66.0,0,60,7.0,100.0
5546,73.0,0,60,7.0,100.0
5547,61.0,0,60,7.0,100.0
5548,49.0,0,60,7.0,100.0
5549,49.0,60,120,3.0,127.0
5550,68.0,0,120,7.0,100.0
5551,65.0,0,120,7.0,100.0
5552,73.0,60,60,7.0,100.0
5553,61.0,0,60,7.0,100.0
5554,49.0,0,60,7.0,100.0
5555,73.0,60,60,7.0,100.0
5556,61.0,0,60,7.0,100.0
5557,49.0,0,60,7.0,100.0
5558,73.0,60,60,7.0,100.0
5559,61.0,0,60,7.0,100.0
5560,49.0,0,60,7.0,100.0
5561,80.0,0,30,7.0,100.0
5562,77.0,0,30,7.0,100.0
5563,80.0,30,30,7.0,100.0
5564,77.0,0,30,7.0,100.0
5565,73.0,0,60,7.0,100.0
5566,61.0,0,60,7.0,100.0
5567,49.0,0,60,7.0,100.0
5568,80.0,30,30,7.0,100.0
5569,77.0,0,30,7.0,100.0
5570,80.0,30,30,7.0,100.0
5571,77.0,0,30,7.0,100.0
5572,73.0,0,60,7.0,100.0
5573,61.0,0,60,7.0,100.0
5574,49.0,0,60,7.0,100.0
5575,80.0,30,30,7.0,100.0
5576,77.0,0,30,7.0,100.0
5577,80.0,30,30,7.0,100.0
5578,77.0,0,30,7.0,100.0
5579,73.0,0,60,7.0,100.0
5580,61.0,0,60,7.0,100.0
5581,49.0,0,60,7.0,100.0
5582,80.0,30,30,7.0,100.0
5583,77.0,0,30,7.0,100.0
5584,83.0,60,240,4.0,80.0
5585,80.0,0,240,4.0,80.0
5586,80.0,30,30,7.0,100.0
5587,77.0,0,30,7.0,100.0
5588,73.0,0,60,7.0,100.0
5589,61.0,0,60,7.0,100.0
5590,49.0,0,60,7.0,100.0
5591,81.0,0,30,7.0,100.0
5592,78.0,0,30,7.0,100.0
5593,81.0,30,30,7.0,100.0
5594,78.0,0,30,7.0,100.0
5595,73.0,0,60,7.0,100.0
5596,61.0,0,60,7.0,100.0
5597,49.0,0,60,7.0,100.0
5598,81.0,30,30,7.0,100.0
5599,78.0,0,30,7.0,100.0
5600,81.0,30,30,7.0,100.0
5601,78.0,0,30,7.0,100.0
5602,73.0,0,60,7.0,100.0
5603,61.0,0,60,7.0,100.0
5604,49.0,0,60,7.0,100.0
5605,81.0,30,30,7.0,100.0
5606,78.0,0,30,7.0,100.0
5607,81.0,30,30,7.0,100.0
5608,78.0,0,30,7.0,100.0
5609,73.0,0,60,7.0,100.0
5610,61.0,0,60,7.0,100.0
5611,49.0,0,60,7.0,100.0
5612,81.0,30,30,7.0,100.0
5613,78.0,0,30,7.0,100.0
5614,81.0,30,240,4.0,80.0
5615,78.0,0,240,4.0,80.0
5616,81.0,30,30,7.0,100.0
5617,78.0,0,30,7.0,100.0
5618,73.0,0,60,7.0,100.0
5619,61.0,0,60,7.0,100.0
5620,49.0,0,60,7.0,100.0
5621,84.0,0,30,7.0,100.0
5622,78.0,0,30,7.0,100.0
5623,84.0,30,30,7.0,100.0
5624,78.0,0,30,7.0,100.0
5625,69.0,0,60,7.0,100.0
5626,61.0,0,60,7.0,100.0
5627,49.0,0,60,7.0,100.0
5628,84.0,30,30,7.0,100.0
5629,78.0,0,30,7.0,100.0
5630,84.0,30,30,7.0,100.0
5631,78.0,0,30,7.0,100.0
5632,69.0,0,60,7.0,100.0
5633,61.0,0,60,7.0,100.0
5634,49.0,0,60,7.0,100.0
5635,84.0,30,30,7.0,100.0
5636,78.0,0,30,7.0,100.0
5637,84.0,30,30,7.0,100.0
5638,78.0,0,30,7.0,100.0
5639,66.0,0,60,7.0,100.0
5640,61.0,0,60,7.0,100.0
5641,49.0,0,60,7.0,100.0
5642,84.0,30,30,7.0,100.0
5643,78.0,0,30,7.0,100.0
5644,90.0,30,240,4.0,80.0
5645,84.0,0,240,4.0,80.0
5646,61.0,0,960,6.0,80.0
5647,49.0,0,960,6.0,80.0
5648,84.0,30,30,7.0,100.0
5649,78.0,0,30,7.0,100.0
5650,66.0,0,60,7.0,100.0
5651,61.0,0,60,7.0,100.0
5652,49.0,0,60,7.0,100.0
5653,89.0,30,120,4.0,80.0
5654,85.0,0,120,4.0,80.0
5655,61.0,0,1080,5.0,80.0
5656,61.0,0,120,6.0,80.0
5657,49.0,0,120,6.0,80.0
5658,85.0,0,120,7.0,100.0
5659,77.0,0,120,7.0,100.0
5660,68.0,0,120,7.0,100.0
5661,61.0,0,120,7.0,100.0
5662,49.0,0,120,7.0,100.0
5663,49.0,120,120,3.0,127.0
5664,49.0,120,120,3.0,127.0
5665,49.0,120,120,3.0,127.0
5666,49.0,120,120,3.0,127.0
5667,73.0,120,120,7.0,100.0
5668,68.0,0,120,7.0,100.0
5669,65.0,0,120,7.0,100.0
5670,61.0,0,120,7.0,100.0
5671,49.0,0,120,7.0,100.0
5672,73.0,120,120,7.0,100.0
5673,68.0,0,120,7.0,100.0
5674,65.0,0,120,7.0,100.0
5675,61.0,0,120,7.0,100.0
5676,49.0,0,120,7.0,100.0
5677,73.0,120,120,7.0,100.0
5678,68.0,0,120,7.0,100.0
5679,65.0,0,120,7.0,100.0
5680,61.0,0,120,7.0,100.0
5681,49.0,0,120,7.0,100.0
5682,74.0,120,120,7.0,100.0
5683,68.0,0,120,7.0,100.0
5684,65.0,0,120,7.0,100.0
5685,59.0,0,120,7.0,100.0
5686,47.0,0,120,7.0,100.0
5687,47.0,120,120,3.0,127.0
5688,47.0,120,120,3.0,127.0
5689,47.0,120,120,3.0,127.0
5690,47.0,120,120,3.0,127.0
5691,86.0,120,120,4.0,80.0
5692,89.0,0,120,4.0,80.0
5693,62.0,0,120,5.0,80.0
5694,56.0,0,120,5.0,80.0
5695,74.0,0,120,7.0,100.0
5696,65.0,0,120,7.0,100.0
5697,68.0,0,120,7.0,100.0
5698,59.0,0,120,7.0,100.0
5699,47.0,0,120,7.0,100.0
5700,86.0,120,120,4.0,80.0
5701,89.0,0,120,4.0,80.0
5702,62.0,0,120,5.0,80.0
5703,56.0,0,120,5.0,80.0
5704,74.0,0,120,7.0,100.0
5705,65.0,0,120,7.0,100.0
5706,68.0,0,120,7.0,100.0
5707,59.0,0,120,7.0,100.0
5708,47.0,0,120,7.0,100.0
5709,86.0,120,120,4.0,80.0
5710,89.0,0,120,4.0,80.0
5711,62.0,0,120,5.0,80.0
5712,56.0,0,120,5.0,80.0
5713,74.0,0,120,7.0,100.0
5714,65.0,0,120,7.0,100.0
5715,68.0,0,120,7.0,100.0
5716,59.0,0,120,7.0,100.0
5717,47.0,0,120,7.0,100.0
5718,45.0,40,20,3.0,127.0
5719,50.0,40,20,3.0,127.0
5720,57.0,0,120,7.0,100.0
5721,45.0,0,120,7.0,100.0
5722,54.0,40,20,3.0,127.0
5723,57.0,40,20,3.0,127.0
5724,62.0,40,20,3.0,127.0
5725,66.0,40,20,3.0,127.0
5726,69.0,40,20,3.0,127.0
5727,74.0,40,20,3.0,127.0
5728,78.0,40,20,3.0,127.0
5729,74.0,40,20,3.0,127.0
5730,81.0,40,20,3.0,127.0
5731,86.0,120,480,4.0,80.0
5732,90.0,0,480,4.0,80.0
5733,57.0,0,480,5.0,80.0
5734,74.0,0,480,7.0,100.0
5735,66.0,0,480,7.0,100.0
5736,69.0,0,480,7.0,100.0
5737,73.0,60,30,3.0,127.0
5738,76.0,30,30,3.0,127.0
5739,45.0,0,120,7.0,100.0
5740,33.0,0,120,7.0,100.0
5741,79.0,30,30,3.0,127.0
5742,83.0,30,30,3.0,127.0
5743,79.0,30,30,3.0,127.0
5744,76.0,30,30,3.0,127.0
5745,73.0,30,30,3.0,127.0
5746,69.0,30,30,3.0,127.0
5747,67.0,30,30,3.0,127.0
5748,64.0,30,30,3.0,127.0
5749,61.0,30,30,3.0,127.0
5750,57.0,30,30,3.0,127.0
5751,55.0,30,30,3.0,127.0
5752,52.0,30,30,3.0,127.0
5753,85.0,40,480,4.0,80.0
5754,91.0,0,480,4.0,80.0
5755,45.0,0,480,5.0,80.0
5756,57.0,0,960,6.0,80.0
5757,45.0,0,960,6.0,80.0
5758,73.0,0,480,7.0,100.0
5759,64.0,0,480,7.0,100.0
5760,67.0,0,480,7.0,100.0
5761,74.0,0,60,7.0,100.0
5762,50.0,30,120,3.0,127.0
5763,86.0,0,120,4.0,80.0
5764,90.0,0,120,4.0,80.0
5765,50.0,0,120,5.0,80.0
5766,57.0,0,120,6.0,80.0
5767,45.0,0,120,6.0,80.0
5768,69.0,60,60,7.0,100.0
5769,62.0,0,120,7.0,100.0
5770,50.0,0,120,7.0,100.0
5771,38.0,0,120,7.0,100.0
5772,66.0,0,180,7.0,100.0
5773,69.0,120,60,7.0,100.0
5774,66.0,60,60,7.0,100.0
5775,69.0,60,60,3.0,127.0
5776,69.0,0,60,7.0,100.0
5777,74.0,60,60,3.0,127.0
5778,66.0,0,60,7.0,100.0
5779,78.0,60,60,3.0,127.0
5780,69.0,0,60,7.0,100.0
5781,67.0,0,60,7.0,100.0
5782,69.0,60,60,7.0,100.0
5783,76.0,60,180,3.0,127.0
5784,67.0,60,60,7.0,100.0
5785,78.0,60,60,3.0,127.0
5786,69.0,0,60,7.0,100.0
5787,79.0,60,60,3.0,127.0
5788,67.0,0,60,7.0,100.0
5789,76.0,60,60,3.0,127.0
5790,69.0,0,60,7.0,100.0
5791,71.0,60,60,3.0,127.0
5792,67.0,0,60,7.0,100.0
5793,73.0,60,60,3.0,127.0
5794,69.0,0,60,7.0,100.0
5795,74.0,60,30,3.0,127.0
5796,66.0,0,60,7.0,100.0
5797,78.0,60,30,3.0,127.0
5798,69.0,0,60,7.0,100.0
5799,66.0,0,60,7.0,100.0
5800,69.0,60,60,7.0,100.0
5801,81.0,60,180,3.0,127.0
5802,66.0,60,60,7.0,100.0
5803,80.0,60,60,3.0,127.0
5804,69.0,0,60,7.0,100.0
5805,79.0,60,60,3.0,127.0
5806,66.0,0,60,7.0,100.0
5807,78.0,60,60,3.0,127.0
5808,69.0,0,60,7.0,100.0
5809,67.0,0,60,7.0,100.0
5810,69.0,60,60,7.0,100.0
5811,76.0,60,180,3.0,127.0
5812,67.0,60,60,7.0,100.0
5813,78.0,60,60,3.0,127.0
5814,69.0,0,60,7.0,100.0
5815,79.0,60,60,3.0,127.0
5816,67.0,0,60,7.0,100.0
5817,76.0,60,60,3.0,127.0
5818,69.0,0,60,7.0,100.0
5819,71.0,60,60,3.0,127.0
5820,67.0,0,60,7.0,100.0
5821,73.0,60,60,3.0,127.0
5822,69.0,0,60,7.0,100.0
5823,74.0,60,30,3.0,127.0
5824,78.0,60,30,3.0,127.0
5825,81.0,60,180,3.0,127.0
5826,78.0,180,60,3.0,127.0
5827,76.0,60,60,3.0,127.0
5828,74.0,60,60,3.0,127.0
5829,66.0,0,480,7.0,100.0
5830,73.0,60,30,3.0,127.0
5831,76.0,60,30,3.0,127.0
5832,81.0,60,180,3.0,127.0
5833,76.0,180,60,3.0,127.0
5834,74.0,60,60,3.0,127.0
5835,73.0,60,60,3.0,127.0
5836,69.0,0,960,7.0,100.0
5837,64.0,0,480,7.0,100.0
5838,69.0,0,60,7.0,100.0
5839,72.0,60,120,3.0,127.0
5840,81.0,60,60,7.0,100.0
5841,78.0,0,60,7.0,100.0
5842,63.0,0,120,7.0,100.0
5843,81.0,0,60,7.0,100.0
5844,78.0,0,60,7.0,100.0
5845,81.0,60,60,7.0,100.0
5846,78.0,0,60,7.0,100.0
5847,81.0,60,60,7.0,100.0
5848,78.0,0,60,7.0,100.0
5849,51.0,60,240,3.0,127.0
5850,81.0,60,60,7.0,100.0
5851,78.0,0,60,7.0,100.0
5852,81.0,0,60,7.0,100.0
5853,78.0,0,60,7.0,100.0
5854,49.0,60,120,3.0,127.0
5855,81.0,60,60,7.0,100.0
5856,78.0,0,60,7.0,100.0
5857,80.0,0,60,7.0,100.0
5858,78.0,0,60,7.0,100.0
5859,48.0,60,120,3.0,127.0
5860,68.0,60,60,7.0,100.0
5861,66.0,0,60,7.0,100.0
5862,68.0,60,60,7.0,100.0
5863,66.0,0,60,7.0,100.0
5864,68.0,60,60,7.0,100.0
5865,66.0,0,60,7.0,100.0
5866,68.0,0,60,7.0,100.0
5867,66.0,0,60,7.0,100.0
5868,68.0,60,60,7.0,100.0
5869,66.0,0,60,7.0,100.0
5870,80.0,60,180,3.0,127.0
5871,68.0,60,60,7.0,100.0
5872,66.0,0,60,7.0,100.0
5873,78.0,60,20,3.0,127.0
5874,76.0,20,20,3.0,127.0
5875,75.0,20,20,3.0,127.0
5876,68.0,0,60,7.0,100.0
5877,66.0,0,60,7.0,100.0
5878,63.0,0,480,7.0,100.0
5879,60.0,0,360,7.0,100.0
5880,68.0,0,60,7.0,100.0
5881,64.0,0,60,7.0,100.0
5882,76.0,20,120,3.0,127.0
5883,80.0,60,60,7.0,100.0
5884,76.0,0,60,7.0,100.0
5885,61.0,0,120,7.0,100.0
5886,80.0,0,60,7.0,100.0
5887,76.0,0,60,7.0,100.0
5888,80.0,60,60,7.0,100.0
5889,76.0,0,60,7.0,100.0
5890,79.0,60,60,7.0,100.0
5891,76.0,0,60,7.0,100.0
5892,49.0,60,240,3.0,127.0
5893,79.0,60,60,7.0,100.0
5894,76.0,0,60,7.0,100.0
5895,79.0,0,60,7.0,100.0
5896,76.0,0,60,7.0,100.0
5897,47.0,60,120,3.0,127.0
5898,79.0,60,60,7.0,100.0
5899,76.0,0,60,7.0,100.0
5900,78.0,0,60,7.0,100.0
5901,76.0,0,60,7.0,100.0
5902,46.0,60,120,3.0,127.0
5903,66.0,60,60,7.0,100.0
5904,64.0,0,60,7.0,100.0
5905,66.0,60,60,7.0,100.0
5906,64.0,0,60,7.0,100.0
5907,66.0,60,60,7.0,100.0
5908,64.0,0,60,7.0,100.0
5909,66.0,0,60,7.0,100.0
5910,64.0,0,60,7.0,100.0
5911,66.0,60,60,7.0,100.0
5912,64.0,0,60,7.0,100.0
5913,58.0,0,240,7.0,100.0
5914,46.0,0,240,7.0,100.0
5915,78.0,60,180,3.0,127.0
5916,66.0,60,60,7.0,100.0
5917,64.0,0,60,7.0,100.0
5918,76.0,60,20,3.0,127.0
5919,74.0,20,20,3.0,127.0
5920,73.0,20,20,3.0,127.0
5921,66.0,0,60,7.0,100.0
5922,64.0,0,60,7.0,100.0
5923,61.0,0,480,7.0,100.0
5924,58.0,0,120,7.0,100.0
5925,46.0,0,120,7.0,100.0
5926,66.0,0,30,7.0,100.0
5927,62.0,0,30,7.0,100.0
5928,47.0,0,30,7.0,100.0
5929,59.0,0,60,7.0,100.0
5930,74.0,60,30,7.0,100.0
5931,66.0,0,30,7.0,100.0
5932,71.0,0,30,7.0,100.0
5933,59.0,0,30,7.0,100.0
5934,47.0,0,30,7.0,100.0
5935,74.0,20,120,3.0,127.0
5936,71.0,30,30,3.0,127.0
5937,74.0,60,60,7.0,100.0
5938,66.0,0,60,7.0,100.0
5939,71.0,0,60,7.0,100.0
5940,59.0,0,60,7.0,100.0
5941,47.0,0,60,7.0,100.0
5942,70.0,30,30,3.0,127.0
5943,71.0,30,30,3.0,127.0
5944,73.0,30,30,3.0,127.0
5945,71.0,30,30,3.0,127.0
5946,70.0,30,30,3.0,127.0
5947,71.0,30,30,3.0,127.0
5948,73.0,30,30,3.0,127.0
5949,74.0,30,30,3.0,127.0
5950,75.0,30,30,3.0,127.0
5951,76.0,30,30,3.0,127.0
5952,68.0,0,30,7.0,100.0
5953,65.0,0,30,7.0,100.0
5954,61.0,0,30,7.0,100.0
5955,59.0,0,30,7.0,100.0
5956,47.0,0,30,7.0,100.0
5957,77.0,60,30,7.0,100.0
5958,68.0,0,30,7.0,100.0
5959,73.0,0,30,7.0,100.0
5960,59.0,0,30,7.0,100.0
5961,47.0,0,30,7.0,100.0
5962,77.0,30,120,3.0,127.0
5963,73.0,30,30,3.0,127.0
5964,77.0,60,60,7.0,100.0
5965,68.0,0,60,7.0,100.0
5966,73.0,0,60,7.0,100.0
5967,59.0,0,60,7.0,100.0
5968,47.0,0,60,7.0,100.0
5969,72.0,30,30,3.0,127.0
5970,73.0,30,30,3.0,127.0
5971,74.0,30,30,3.0,127.0
5972,73.0,30,30,3.0,127.0
5973,72.0,30,30,3.0,127.0
5974,73.0,30,30,3.0,127.0
5975,74.0,30,30,3.0,127.0
5976,75.0,30,30,3.0,127.0
5977,76.0,30,30,3.0,127.0
5978,77.0,30,30,3.0,127.0
5979,78.0,30,40,3.0,127.0
5980,78.0,0,60,7.0,100.0
5981,69.0,0,60,7.0,100.0
5982,73.0,0,60,7.0,100.0
5983,57.0,0,60,7.0,100.0
5984,45.0,0,60,7.0,100.0
5985,73.0,40,40,3.0,127.0
5986,75.0,40,40,3.0,127.0
5987,77.0,40,40,3.0,127.0
5988,78.0,40,40,3.0,127.0
5989,79.0,40,40,3.0,127.0
5990,80.0,40,30,3.0,127.0
5991,73.0,30,30,3.0,127.0
5992,80.0,0,60,7.0,100.0
5993,73.0,0,60,7.0,100.0
5994,61.0,0,60,7.0,100.0
5995,53.0,0,60,7.0,100.0
5996,41.0,0,60,7.0,100.0
5997,74.0,30,30,3.0,127.0
5998,76.0,30,30,3.0,127.0
5999,77.0,30,30,3.0,127.0
6000,78.0,30,30,3.0,127.0
6001,79.0,30,30,3.0,127.0
6002,80.0,30,30,3.0,127.0
6003,81.0,30,60,3.0,127.0
6004,81.0,0,60,7.0,100.0
6005,73.0,0,60,7.0,100.0
6006,66.0,0,60,7.0,100.0
6007,54.0,0,60,7.0,100.0
6008,42.0,0,60,7.0,100.0
6009,78.0,60,120,3.0,127.0
6010,78.0,60,60,7.0,100.0
6011,66.0,0,60,7.0,100.0
6012,57.0,0,60,7.0,100.0
6013,45.0,0,60,7.0,100.0
6014,74.0,60,120,3.0,127.0
6015,74.0,60,60,7.0,100.0
6016,66.0,0,60,7.0,100.0
6017,59.0,0,60,7.0,100.0
6018,47.0,0,60,7.0,100.0
6019,71.0,60,120,3.0,127.0
6020,71.0,60,60,7.0,100.0
6021,66.0,0,60,7.0,100.0
6022,62.0,0,60,7.0,100.0
6023,50.0,0,60,7.0,100.0
6024,68.0,60,60,3.0,127.0
6025,69.0,60,60,7.0,100.0
6026,66.0,0,60,7.0,100.0
6027,49.0,0,120,7.0,100.0
6028,69.0,60,60,7.0,100.0
6029,66.0,0,60,7.0,100.0
6030,61.0,0,180,7.0,100.0
6031,73.0,60,240,3.0,127.0
6032,69.0,60,60,7.0,100.0
6033,66.0,0,60,7.0,100.0
6034,61.0,0,60,7.0,100.0
6035,68.0,60,60,7.0,100.0
6036,65.0,0,60,7.0,100.0
6037,61.0,0,60,7.0,100.0
6038,49.0,0,120,7.0,100.0
6039,37.0,0,120,7.0,100.0
6040,68.0,60,60,7.0,100.0
6041,65.0,0,60,7.0,100.0
6042,61.0,0,60,7.0,100.0
6043,65.0,60,240,3.0,127.0
6044,68.0,60,60,7.0,100.0
6045,65.0,0,60,7.0,100.0
6046,61.0,0,60,7.0,100.0
6047,81.0,60,60,7.0,100.0
6048,57.0,0,60,7.0,100.0
6049,54.0,0,60,7.0,100.0
6050,42.0,0,60,7.0,100.0
6051,89.0,60,60,4.0,80.0
6052,65.0,0,60,5.0,80.0
6053,77.0,0,60,7.0,100.0
6054,68.0,0,60,7.0,100.0
6055,56.0,0,60,7.0,100.0
6056,44.0,0,60,7.0,100.0
6057,90.0,60,60,4.0,80.0
6058,66.0,0,60,5.0,80.0
6059,78.0,0,60,7.0,100.0
6060,69.0,0,60,7.0,100.0
6061,57.0,0,60,7.0,100.0
6062,45.0,0,60,7.0,100.0
6063,85.0,60,60,4.0,80.0
6064,61.0,0,60,5.0,80.0
6065,73.0,0,60,7.0,100.0
6066,70.0,0,60,7.0,100.0
6067,58.0,0,60,7.0,100.0
6068,46.0,0,60,7.0,100.0
6069,86.0,60,60,4.0,80.0
6070,62.0,0,60,5.0,80.0
6071,74.0,0,60,7.0,100.0
6072,71.0,0,60,7.0,100.0
6073,59.0,0,60,7.0,100.0
6074,47.0,0,60,7.0,100.0
6075,82.0,60,60,4.0,80.0
6076,58.0,0,60,5.0,80.0
6077,70.0,0,60,7.0,100.0
6078,73.0,0,60,7.0,100.0
6079,61.0,0,60,7.0,100.0
6080,49.0,0,60,7.0,100.0
6081,83.0,60,60,4.0,80.0
6082,59.0,0,60,5.0,80.0
6083,71.0,0,60,7.0,100.0
6084,74.0,0,60,7.0,100.0
6085,62.0,0,60,7.0,100.0
6086,50.0,0,60,7.0,100.0
6087,78.0,60,60,4.0,80.0
6088,54.0,0,60,5.0,80.0
6089,66.0,0,60,7.0,100.0
6090,70.0,0,60,7.0,100.0
6091,58.0,0,60,7.0,100.0
6092,46.0,0,60,7.0,100.0
6093,79.0,0,120,4.0,80.0
6094,55.0,0,120,5.0,80.0
6095,67.0,0,120,7.0,100.0
6096,71.0,0,120,7.0,100.0
6097,47.0,0,120,7.0,100.0
6098,62.0,120,120,7.0,100.0
6099,59.0,0,240,7.0,100.0
6100,62.0,120,120,7.0,100.0
6101,59.0,0,120,7.0,100.0
6102,67.0,60,480,3.0,127.0
6103,62.0,120,120,7.0,100.0
6104,59.0,0,120,7.0,100.0
6105,52.0,0,120,7.0,100.0
6106,49.0,0,120,7.0,100.0
6107,37.0,0,120,7.0,100.0
6108,79.0,120,120,7.0,100.0
6109,76.0,0,120,7.0,100.0
6110,79.0,120,120,7.0,100.0
6111,76.0,0,120,7.0,100.0
6112,58.0,120,480,3.0,127.0
6113,79.0,120,120,7.0,100.0
6114,76.0,0,120,7.0,100.0
6115,54.0,0,120,7.0,100.0
6116,50.0,0,120,7.0,100.0
6117,38.0,0,120,7.0,100.0
6118,62.0,120,120,7.0,100.0
6119,59.0,0,120,7.0,100.0
6120,62.0,120,120,7.0,100.0
6121,59.0,0,120,7.0,100.0
6122,78.0,120,480,3.0,127.0
6123,62.0,120,120,7.0,100.0
6124,59.0,0,120,7.0,100.0
6125,54.0,0,120,7.0,100.0
6126,51.0,0,120,7.0,100.0
6127,39.0,0,120,7.0,100.0
6128,81.0,120,120,7.0,100.0
6129,78.0,0,120,7.0,100.0
6130,81.0,120,120,7.0,100.0
6131,78.0,0,120,7.0,100.0
6132,60.0,120,480,3.0,127.0
6133,81.0,120,120,7.0,100.0
6134,78.0,0,120,7.0,100.0
6135,81.0,0,60,7.0,100.0
6136,78.0,0,60,7.0,100.0
6137,61.0,0,60,7.0,100.0
6138,49.0,0,60,7.0,100.0
6139,37.0,0,60,7.0,100.0
6140,61.0,120,120,3.0,127.0
6141,66.0,60,60,7.0,100.0
6142,57.0,0,60,7.0,100.0
6143,61.0,0,60,7.0,100.0
6144,49.0,0,60,7.0,100.0
6145,37.0,0,60,7.0,100.0
6146,57.0,60,30,3.0,127.0
6147,56.0,30,30,3.0,127.0
6148,66.0,60,120,7.0,100.0
6149,57.0,0,120,7.0,100.0
6150,61.0,0,120,7.0,100.0
6151,49.0,0,120,7.0,100.0
6152,37.0,0,120,7.0,100.0
6153,57.0,30,60,3.0,127.0
6154,66.0,60,30,3.0,127.0
6155,65.0,30,30,3.0,127.0
6156,66.0,30,60,3.0,127.0
6157,73.0,60,30,3.0,127.0
6158,72.0,30,30,3.0,127.0
6159,69.0,0,60,7.0,100.0
6160,66.0,0,60,7.0,100.0
6161,61.0,0,60,7.0,100.0
6162,49.0,0,60,7.0,100.0
6163,37.0,0,60,7.0,100.0
6164,73.0,30,120,3.0,127.0
6165,69.0,60,60,7.0,100.0
6166,66.0,0,60,7.0,100.0
6167,61.0,0,60,7.0,100.0
6168,49.0,0,60,7.0,100.0
6169,37.0,0,60,7.0,100.0
6170,69.0,60,30,3.0,127.0
6171,68.0,30,30,3.0,127.0
6172,69.0,60,120,7.0,100.0
6173,66.0,0,120,7.0,100.0
6174,61.0,0,120,7.0,100.0
6175,49.0,0,120,7.0,100.0
6176,37.0,0,120,7.0,100.0
6177,69.0,30,60,3.0,127.0
6178,78.0,60,30,3.0,127.0
6179,77.0,30,30,3.0,127.0
6180,78.0,30,60,3.0,127.0
6181,81.0,60,30,3.0,127.0
6182,80.0,30,30,3.0,127.0
6183,78.0,0,60,7.0,100.0
6184,69.0,0,60,7.0,100.0
6185,73.0,0,60,7.0,100.0
6186,61.0,0,60,7.0,100.0
6187,49.0,0,60,7.0,100.0
6188,81.0,30,120,3.0,127.0
6189,78.0,60,60,7.0,100.0
6190,69.0,0,60,7.0,100.0
6191,73.0,0,60,7.0,100.0
6192,61.0,0,60,7.0,100.0
6193,49.0,0,60,7.0,100.0
6194,73.0,60,30,3.0,127.0
6195,72.0,30,30,3.0,127.0
6196,78.0,60,120,7.0,100.0
6197,69.0,0,120,7.0,100.0
6198,73.0,0,120,7.0,100.0
6199,61.0,0,120,7.0,100.0
6200,49.0,0,120,7.0,100.0
6201,73.0,30,60,3.0,127.0
6202,81.0,60,30,3.0,127.0
6203,80.0,30,30,3.0,127.0
6204,81.0,30,60,3.0,127.0
6205,85.0,60,30,3.0,127.0
6206,84.0,30,30,3.0,127.0
6207,85.0,30,60,3.0,127.0
6208,81.0,60,60,7.0,100.0
6209,78.0,0,60,7.0,100.0
6210,81.0,0,60,7.0,100.0
6211,78.0,0,60,7.0,100.0
6212,66.0,60,120,3.0,127.0
6213,81.0,60,60,7.0,100.0
6214,78.0,0,60,7.0,100.0
6215,81.0,0,60,7.0,100.0
6216,78.0,0,60,7.0,100.0
6217,62.0,60,120,3.0,127.0
6218,81.0,60,60,7.0,100.0
6219,78.0,0,60,7.0,100.0
6220,81.0,0,60,7.0,100.0
6221,78.0,0,60,7.0,100.0
6222,60.0,60,120,3.0,127.0
6223,81.0,60,60,7.0,100.0
6224,78.0,0,60,7.0,100.0
6225,61.0,60,120,3.0,127.0
6226,81.0,0,120,7.0,100.0
6227,78.0,0,120,7.0,100.0
6228,72.0,60,30,3.0,127.0
6229,61.0,120,120,7.0,100.0
6230,49.0,0,120,7.0,100.0
6231,37.0,0,120,7.0,100.0
6232,73.0,60,30,3.0,127.0
6233,74.0,60,30,3.0,127.0
6234,75.0,60,30,3.0,127.0
6235,76.0,60,30,3.0,127.0
6236,77.0,60,15,3.0,127.0
6237,78.0,15,15,3.0,127.0
6238,77.0,15,15,3.0,127.0
6239,78.0,15,15,3.0,127.0
6240,77.0,15,15,3.0,127.0
6241,78.0,15,15,3.0,127.0
6242,77.0,15,15,3.0,127.0
6243,78.0,15,15,3.0,127.0
6244,71.0,0,60,7.0,100.0
6245,68.0,0,60,7.0,100.0
6246,61.0,0,120,7.0,100.0
6247,77.0,15,15,3.0,127.0
6248,78.0,15,15,3.0,127.0
6249,77.0,15,15,3.0,127.0
6250,78.0,15,15,3.0,127.0
6251,71.0,0,60,7.0,100.0
6252,68.0,0,60,7.0,100.0
6253,77.0,15,15,3.0,127.0
6254,78.0,15,15,3.0,127.0
6255,77.0,15,15,3.0,127.0
6256,78.0,15,15,3.0,127.0
6257,71.0,0,60,7.0,100.0
6258,68.0,0,60,7.0,100.0
6259,78.0,15,15,3.0,127.0
6260,80.0,15,15,3.0,127.0
6261,78.0,15,15,3.0,127.0
6262,80.0,15,15,3.0,127.0
6263,78.0,15,15,3.0,127.0
6264,80.0,15,15,3.0,127.0
6265,78.0,15,15,3.0,127.0
6266,80.0,15,15,3.0,127.0
6267,69.0,0,60,7.0,100.0
6268,66.0,0,60,7.0,100.0
6269,61.0,0,120,7.0,100.0
6270,78.0,15,15,3.0,127.0
6271,80.0,15,15,3.0,127.0
6272,78.0,15,15,3.0,127.0
6273,80.0,15,15,3.0,127.0
6274,69.0,0,60,7.0,100.0
6275,66.0,0,60,7.0,100.0
6276,78.0,15,15,3.0,127.0
6277,80.0,15,15,3.0,127.0
6278,78.0,15,15,3.0,127.0
6279,80.0,15,15,3.0,127.0
6280,81.0,0,240,4.0,80.0
6281,57.0,0,240,5.0,80.0
6282,69.0,0,60,7.0,100.0
6283,66.0,0,60,7.0,100.0
6284,80.0,15,15,3.0,127.0
6285,81.0,15,15,3.0,127.0
6286,80.0,15,15,3.0,127.0
6287,81.0,15,15,3.0,127.0
6288,61.0,0,60,7.0,100.0
6289,49.0,0,60,7.0,100.0
6290,37.0,0,60,7.0,100.0
6291,80.0,15,15,3.0,127.0
6292,81.0,15,15,3.0,127.0
6293,80.0,15,15,3.0,127.0
6294,81.0,15,15,3.0,127.0
6295,68.0,0,120,7.0,100.0
6296,66.0,0,120,7.0,100.0
6297,61.0,0,60,7.0,100.0
6298,49.0,0,60,7.0,100.0
6299,37.0,0,60,7.0,100.0
6300,80.0,15,15,3.0,127.0
6301,81.0,15,15,3.0,127.0
6302,80.0,15,15,3.0,127.0
6303,81.0,15,15,3.0,127.0
6304,61.0,0,60,7.0,100.0
6305,49.0,0,60,7.0,100.0
6306,37.0,0,60,7.0,100.0
6307,80.0,15,15,3.0,127.0
6308,81.0,15,15,3.0,127.0
6309,80.0,15,15,3.0,127.0
6310,81.0,15,15,3.0,127.0
6311,78.0,0,480,4.0,80.0
6312,61.0,0,60,7.0,100.0
6313,49.0,0,60,7.0,100.0
6314,37.0,0,60,7.0,100.0
6315,80.0,15,15,3.0,127.0
6316,81.0,15,15,3.0,127.0
6317,80.0,15,15,3.0,127.0
6318,81.0,15,15,3.0,127.0
6319,61.0,0,60,7.0,100.0
6320,49.0,0,60,7.0,100.0
6321,37.0,0,60,7.0,100.0
6322,80.0,15,15,3.0,127.0
6323,81.0,15,15,3.0,127.0
6324,80.0,15,15,3.0,127.0
6325,81.0,15,15,3.0,127.0
6326,68.0,0,120,7.0,100.0
6327,77.0,0,120,7.0,100.0
6328,85.0,0,120,7.0,100.0
6329,65.0,0,120,7.0,100.0
6330,73.0,0,120,7.0,100.0
6331,80.0,0,120,7.0,100.0
6332,61.0,0,60,7.0,100.0
6333,49.0,0,60,7.0,100.0
6334,37.0,0,60,7.0,100.0
6335,80.0,15,15,3.0,127.0
6336,81.0,15,15,3.0,127.0
6337,80.0,15,15,3.0,127.0
6338,81.0,15,15,3.0,127.0
6339,61.0,0,60,7.0,100.0
6340,49.0,0,60,7.0,100.0
6341,37.0,0,60,7.0,100.0
6342,80.0,15,15,3.0,127.0
6343,81.0,15,15,3.0,127.0
6344,78.0,15,15,3.0,127.0
6345,80.0,15,15,3.0,127.0
6346,80.0,0,480,4.0,80.0
6347,77.0,0,240,4.0,80.0
6348,56.0,0,480,5.0,80.0
6349,61.0,0,60,7.0,100.0
6350,49.0,0,60,7.0,100.0
6351,37.0,0,60,7.0,100.0
6352,78.0,0,30,4.0,80.0
6353,54.0,0,30,5.0,80.0
6354,78.0,0,30,7.0,100.0
6355,54.0,0,30,7.0,100.0
6356,42.0,0,30,7.0,100.0
6357,49.0,0,1020,6.0,80.0
6358,78.0,30,30,7.0,100.0
6359,66.0,0,60,7.0,100.0
6360,77.0,30,30,4.0,80.0
6361,53.0,0,30,5.0,80.0
6362,77.0,0,30,7.0,100.0
6363,53.0,0,30,7.0,100.0
6364,41.0,0,30,7.0,100.0
6365,78.0,15,120,3.0,127.0
6366,77.0,30,30,7.0,100.0
6367,65.0,0,60,7.0,100.0
6368,78.0,30,30,4.0,80.0
6369,54.0,0,30,5.0,80.0
6370,78.0,0,30,7.0,100.0
6371,54.0,0,30,7.0,100.0
6372,42.0,0,30,7.0,100.0
6373,78.0,30,30,7.0,100.0
6374,66.0,0,60,7.0,100.0
6375,80.0,30,30,4.0,80.0
6376,56.0,0,30,5.0,80.0
6377,80.0,0,30,7.0,100.0
6378,56.0,0,30,7.0,100.0
6379,44.0,0,30,7.0,100.0
6380,80.0,30,30,7.0,100.0
6381,68.0,0,60,7.0,100.0
6382,81.0,30,30,4.0,80.0
6383,57.0,0,30,5.0,80.0
6384,81.0,0,30,7.0,100.0
6385,57.0,0,30,7.0,100.0
6386,45.0,0,30,7.0,100.0
6387,81.0,30,30,7.0,100.0
6388,69.0,0,60,7.0,100.0
6389,80.0,30,30,4.0,80.0
6390,56.0,0,30,5.0,80.0
6391,80.0,0,30,7.0,100.0
6392,56.0,0,30,7.0,100.0
6393,44.0,0,30,7.0,100.0
6394,80.0,30,30,7.0,100.0
6395,68.0,0,60,7.0,100.0
6396,81.0,30,30,4.0,80.0
6397,57.0,0,30,5.0,80.0
6398,81.0,0,30,7.0,100.0
6399,57.0,0,30,7.0,100.0
6400,45.0,0,30,7.0,100.0
6401,83.0,30,30,7.0,100.0
6402,69.0,0,60,7.0,100.0
6403,83.0,30,30,4.0,80.0
6404,59.0,0,30,5.0,80.0
6405,83.0,0,30,7.0,100.0
6406,59.0,0,30,7.0,100.0
6407,47.0,0,30,7.0,100.0
6408,85.0,30,30,7.0,100.0
6409,71.0,0,60,7.0,100.0
6410,85.0,30,30,4.0,80.0
6411,61.0,0,30,5.0,80.0
6412,85.0,0,30,7.0,100.0
6413,61.0,0,30,7.0,100.0
6414,49.0,0,30,7.0,100.0
6415,85.0,30,30,7.0,100.0
6416,73.0,0,60,7.0,100.0
6417,84.0,30,30,4.0,80.0
6418,60.0,0,30,5.0,80.0
6419,84.0,0,30,7.0,100.0
6420,60.0,0,30,7.0,100.0
6421,48.0,0,30,7.0,100.0
6422,61.0,0,120,6.0,80.0
6423,49.0,0,120,6.0,80.0
6424,84.0,30,30,7.0,100.0
6425,72.0,0,60,7.0,100.0
6426,85.0,30,30,4.0,80.0
6427,61.0,0,30,5.0,80.0
6428,61.0,0,30,7.0,100.0
6429,49.0,0,30,7.0,100.0
6430,73.0,0,60,7.0,100.0
6431,86.0,60,30,4.0,80.0
6432,62.0,0,30,5.0,80.0
6433,62.0,0,30,7.0,100.0
6434,50.0,0,30,7.0,100.0
6435,74.0,0,60,7.0,100.0
6436,85.0,60,30,4.0,80.0
6437,61.0,0,30,5.0,80.0
6438,61.0,0,30,7.0,100.0
6439,49.0,0,30,7.0,100.0
6440,73.0,0,60,7.0,100.0
6441,83.0,60,30,4.0,80.0
6442,59.0,0,30,5.0,80.0
6443,83.0,0,30,7.0,100.0
6444,59.0,0,30,7.0,100.0
6445,47.0,0,30,7.0,100.0
6446,83.0,30,30,7.0,100.0
6447,71.0,0,60,7.0,100.0
6448,81.0,30,30,4.0,80.0
6449,57.0,0,30,5.0,80.0
6450,81.0,0,30,7.0,100.0
6451,57.0,0,30,7.0,100.0
6452,45.0,0,30,7.0,100.0
6453,81.0,30,30,7.0,100.0
6454,69.0,0,60,7.0,100.0
6455,80.0,30,30,4.0,80.0
6456,56.0,0,30,5.0,80.0
6457,80.0,0,30,7.0,100.0
6458,56.0,0,30,7.0,100.0
6459,44.0,0,30,7.0,100.0
6460,80.0,30,30,7.0,100.0
6461,68.0,0,60,7.0,100.0
6462,78.0,0,30,7.0,100.0
6463,77.0,60,30,7.0,100.0
6464,65.0,0,30,7.0,100.0
6465,78.0,30,120,4.0,80.0
6466,54.0,0,120,5.0,80.0
6467,57.0,0,120,6.0,80.0
6468,49.0,0,120,6.0,80.0
6469,54.0,0,120,7.0,100.0
6470,42.0,0,120,7.0,100.0
6471,78.0,60,30,7.0,100.0
6472,66.0,0,150,7.0,100.0
6473,80.0,60,30,7.0,100.0
6474,68.0,0,30,7.0,100.0
6475,81.0,0,30,7.0,100.0
6476,69.0,0,30,7.0,100.0
6477,80.0,60,30,7.0,100.0
6478,68.0,0,30,7.0,100.0
6479,81.0,60,30,7.0,100.0
6480,69.0,0,30,7.0,100.0
6481,83.0,60,30,7.0,100.0
6482,71.0,0,30,7.0,100.0
6483,85.0,60,30,7.0,100.0
6484,73.0,0,30,7.0,100.0
6485,73.0,60,30,7.0,100.0
6486,72.0,0,30,7.0,100.0
6487,85.0,60,30,7.0,100.0
6488,73.0,0,30,7.0,100.0
6489,86.0,60,30,7.0,100.0
6490,74.0,0,30,7.0,100.0
6491,66.0,60,480,5.0,80.0
6492,66.0,0,480,7.0,100.0
6493,54.0,0,480,7.0,100.0
6494,85.0,0,30,7.0,100.0
6495,73.0,0,30,7.0,100.0
6496,83.0,60,30,7.0,100.0
6497,71.0,0,30,7.0,100.0
6498,68.0,0,360,7.0,100.0
6499,81.0,60,30,7.0,100.0
6500,69.0,0,30,7.0,100.0
6501,80.0,60,30,7.0,100.0
6502,68.0,0,30,7.0,100.0
6503,65.0,60,240,5.0,80.0
6504,71.0,0,120,7.0,100.0
6505,65.0,0,240,7.0,100.0
6506,53.0,0,240,7.0,100.0
6507,78.0,0,30,7.0,100.0
6508,77.0,60,30,7.0,100.0
6509,65.0,0,30,7.0,100.0
6510,66.0,60,120,5.0,80.0
6511,69.0,0,120,7.0,100.0
6512,54.0,0,120,7.0,100.0
6513,78.0,60,30,7.0,100.0
6514,66.0,0,150,7.0,100.0
6515,80.0,60,30,7.0,100.0
6516,68.0,0,30,7.0,100.0
6517,81.0,0,30,7.0,100.0
6518,69.0,0,30,7.0,100.0
6519,80.0,60,30,7.0,100.0
6520,68.0,0,30,7.0,100.0
6521,81.0,60,30,7.0,100.0
6522,69.0,0,30,7.0,100.0
6523,83.0,60,30,7.0,100.0
6524,71.0,0,30,7.0,100.0
6525,84.0,60,30,7.0,100.0
6526,72.0,0,30,7.0,100.0
6527,83.0,60,30,7.0,100.0
6528,71.0,0,30,7.0,100.0
6529,82.0,60,30,7.0,100.0
6530,70.0,0,30,7.0,100.0
6531,84.0,60,30,7.0,100.0
6532,72.0,0,30,7.0,100.0
6533,64.0,60,480,5.0,80.0
6534,64.0,0,480,7.0,100.0
6535,52.0,0,480,7.0,100.0
6536,83.0,0,30,7.0,100.0
6537,71.0,0,30,7.0,100.0
6538,80.0,60,30,7.0,100.0
6539,68.0,0,30,7.0,100.0
6540,66.0,0,600,7.0,100.0
6541,81.0,60,30,7.0,100.0
6542,69.0,0,30,7.0,100.0
6543,71.0,0,30,7.0,100.0
6544,78.0,60,30,7.0,100.0
6545,66.0,0,30,7.0,100.0
6546,69.0,0,30,7.0,100.0
6547,63.0,60,240,5.0,80.0
6548,63.0,0,240,7.0,100.0
6549,51.0,0,240,7.0,100.0
6550,76.0,60,30,4.0,80.0
6551,52.0,0,30,5.0,80.0
6552,76.0,0,30,7.0,100.0
6553,67.0,0,30,7.0,100.0
6554,52.0,0,30,7.0,100.0
6555,76.0,30,30,7.0,100.0
6556,64.0,0,60,7.0,100.0
6557,75.0,30,30,4.0,80.0
6558,51.0,0,30,5.0,80.0
6559,75.0,0,30,7.0,100.0
6560,51.0,0,30,7.0,100.0
6561,39.0,0,30,7.0,100.0
6562,52.0,0,120,6.0,80.0
6563,75.0,30,30,7.0,100.0
6564,63.0,0,60,7.0,100.0
6565,76.0,30,30,4.0,80.0
6566,52.0,0,30,5.0,80.0
6567,76.0,0,30,7.0,100.0
6568,52.0,0,30,7.0,100.0
6569,40.0,0,30,7.0,100.0
6570,76.0,30,30,7.0,100.0
6571,64.0,0,60,7.0,100.0
6572,78.0,30,30,4.0,80.0
6573,54.0,0,30,5.0,80.0
6574,78.0,0,30,7.0,100.0
6575,54.0,0,30,7.0,100.0
6576,42.0,0,30,7.0,100.0
6577,78.0,30,30,7.0,100.0
6578,66.0,0,60,7.0,100.0
6579,79.0,30,30,4.0,80.0
6580,55.0,0,30,5.0,80.0
6581,79.0,0,30,7.0,100.0
6582,55.0,0,30,7.0,100.0
6583,43.0,0,30,7.0,100.0
6584,79.0,30,30,7.0,100.0
6585,67.0,0,60,7.0,100.0
6586,78.0,30,30,4.0,80.0
6587,54.0,0,30,5.0,80.0
6588,78.0,0,30,7.0,100.0
6589,54.0,0,30,7.0,100.0
6590,42.0,0,30,7.0,100.0
6591,78.0,30,30,7.0,100.0
6592,66.0,0,60,7.0,100.0
6593,79.0,30,30,4.0,80.0
6594,55.0,0,30,5.0,80.0
6595,79.0,0,30,7.0,100.0
6596,55.0,0,30,7.0,100.0
6597,43.0,0,30,7.0,100.0
6598,79.0,30,30,7.0,100.0
6599,67.0,0,60,7.0,100.0
6600,81.0,30,30,4.0,80.0
6601,57.0,0,30,5.0,80.0
6602,81.0,0,30,7.0,100.0
6603,57.0,0,30,7.0,100.0
6604,45.0,0,30,7.0,100.0
6605,81.0,30,30,7.0,100.0
6606,69.0,0,60,7.0,100.0
6607,83.0,30,30,4.0,80.0
6608,59.0,0,30,5.0,80.0
6609,83.0,0,30,7.0,100.0
6610,59.0,0,30,7.0,100.0
6611,47.0,0,30,7.0,100.0
6612,83.0,30,30,7.0,100.0
6613,71.0,0,60,7.0,100.0
6614,82.0,30,30,4.0,80.0
6615,58.0,0,30,5.0,80.0
6616,82.0,0,30,7.0,100.0
6617,58.0,0,30,7.0,100.0
6618,46.0,0,30,7.0,100.0
6619,59.0,0,120,6.0,80.0
6620,82.0,30,30,7.0,100.0
6621,70.0,0,60,7.0,100.0
6622,83.0,30,30,4.0,80.0
6623,59.0,0,30,5.0,80.0
6624,83.0,0,30,7.0,100.0
6625,59.0,0,30,7.0,100.0
6626,47.0,0,30,7.0,100.0
6627,83.0,30,30,7.0,100.0
6628,71.0,0,60,7.0,100.0
6629,84.0,30,30,4.0,80.0
6630,60.0,0,30,5.0,80.0
6631,84.0,0,30,7.0,100.0
6632,60.0,0,30,7.0,100.0
6633,48.0,0,30,7.0,100.0
6634,84.0,30,30,7.0,100.0
6635,72.0,0,60,7.0,100.0
6636,83.0,30,30,4.0,80.0
6637,59.0,0,30,5.0,80.0
6638,83.0,0,30,7.0,100.0
6639,59.0,0,30,7.0,100.0
6640,47.0,0,30,7.0,100.0
6641,83.0,30,30,7.0,100.0
6642,71.0,0,60,7.0,100.0
6643,81.0,30,30,4.0,80.0
6644,57.0,0,30,5.0,80.0
6645,81.0,0,30,7.0,100.0
6646,57.0,0,30,7.0,100.0
6647,45.0,0,30,7.0,100.0
6648,81.0,30,30,7.0,100.0
6649,69.0,0,60,7.0,100.0
6650,79.0,30,30,4.0,80.0
6651,55.0,0,30,5.0,80.0
6652,79.0,0,30,7.0,100.0
6653,55.0,0,30,7.0,100.0
6654,43.0,0,30,7.0,100.0
6655,79.0,30,30,7.0,100.0
6656,67.0,0,60,7.0,100.0
6657,78.0,30,30,4.0,80.0
6658,54.0,0,30,5.0,80.0
6659,78.0,0,30,7.0,100.0
6660,54.0,0,30,7.0,100.0
6661,42.0,0,30,7.0,100.0
6662,78.0,30,30,7.0,100.0
6663,66.0,0,60,7.0,100.0
6664,76.0,0,30,7.0,100.0
6665,75.0,60,30,7.0,100.0
6666,63.0,0,30,7.0,100.0
6667,76.0,30,120,4.0,80.0
6668,52.0,0,120,5.0,80.0
6669,52.0,0,120,6.0,80.0
6670,52.0,0,120,7.0,100.0
6671,40.0,0,120,7.0,100.0
6672,76.0,60,30,7.0,100.0
6673,64.0,0,150,7.0,100.0
6674,78.0,60,30,7.0,100.0
6675,66.0,0,30,7.0,100.0
6676,79.0,0,30,7.0,100.0
6677,67.0,0,30,7.0,100.0
6678,78.0,60,30,7.0,100.0
6679,66.0,0,30,7.0,100.0
6680,79.0,60,30,7.0,100.0
6681,67.0,0,30,7.0,100.0
6682,81.0,60,30,7.0,100.0
6683,69.0,0,30,7.0,100.0
6684,83.0,60,30,7.0,100.0
6685,71.0,0,30,7.0,100.0
6686,82.0,60,30,7.0,100.0
6687,70.0,0,30,7.0,100.0
6688,83.0,60,30,7.0,100.0
6689,71.0,0,30,7.0,100.0
6690,84.0,60,30,7.0,100.0
6691,72.0,0,30,7.0,100.0
6692,64.0,60,480,5.0,80.0
6693,64.0,0,480,7.0,100.0
6694,52.0,0,480,7.0,100.0
6695,83.0,0,30,7.0,100.0
6696,71.0,0,30,7.0,100.0
6697,81.0,60,30,7.0,100.0
6698,69.0,0,30,7.0,100.0
6699,66.0,0,360,7.0,100.0
6700,79.0,60,30,7.0,100.0
6701,67.0,0,30,7.0,100.0
6702,78.0,60,30,7.0,100.0
6703,66.0,0,30,7.0,100.0
6704,63.0,60,240,5.0,80.0
6705,69.0,0,120,7.0,100.0
6706,63.0,0,240,7.0,100.0
6707,51.0,0,240,7.0,100.0
6708,76.0,0,30,7.0,100.0
6709,75.0,60,30,7.0,100.0
6710,63.0,0,30,7.0,100.0
6711,64.0,60,120,5.0,80.0
6712,67.0,0,120,7.0,100.0
6713,52.0,0,120,7.0,100.0
6714,76.0,60,30,7.0,100.0
6715,64.0,0,150,7.0,100.0
6716,78.0,60,30,7.0,100.0
6717,66.0,0,30,7.0,100.0
6718,79.0,0,30,7.0,100.0
6719,67.0,0,30,7.0,100.0
6720,78.0,60,30,7.0,100.0
6721,66.0,0,30,7.0,100.0
6722,79.0,60,30,7.0,100.0
6723,67.0,0,30,7.0,100.0
6724,81.0,60,30,7.0,100.0
6725,69.0,0,30,7.0,100.0
6726,82.0,60,30,7.0,100.0
6727,70.0,0,30,7.0,100.0
6728,81.0,60,30,7.0,100.0
6729,69.0,0,30,7.0,100.0
6730,80.0,60,30,7.0,100.0
6731,68.0,0,30,7.0,100.0
6732,82.0,60,30,7.0,100.0
6733,70.0,0,30,7.0,100.0
6734,62.0,60,480,5.0,80.0
6735,62.0,0,480,7.0,100.0
6736,50.0,0,480,7.0,100.0
6737,81.0,0,30,7.0,100.0
6738,69.0,0,30,7.0,100.0
6739,78.0,60,30,7.0,100.0
6740,66.0,0,30,7.0,100.0
6741,64.0,0,600,7.0,100.0
6742,79.0,60,30,7.0,100.0
6743,67.0,0,30,7.0,100.0
6744,69.0,0,30,7.0,100.0
6745,76.0,60,30,7.0,100.0
6746,64.0,0,30,7.0,100.0
6747,68.0,0,30,7.0,100.0
6748,61.0,60,240,5.0,80.0
6749,61.0,0,240,7.0,100.0
6750,49.0,0,240,7.0,100.0
6751,50.0,60,60,5.0,80.0
6752,69.0,30,30,7.0,100.0
6753,50.0,0,60,7.0,100.0
6754,66.0,0,90,7.0,100.0
6755,45.0,30,60,5.0,80.0
6756,57.0,0,120,6.0,80.0
6757,45.0,0,120,6.0,80.0
6758,62.0,0,120,7.0,100.0
6759,76.0,0,120,7.0,100.0
6760,69.0,30,30,7.0,100.0
6761,57.0,0,60,7.0,100.0
6762,45.0,0,60,7.0,100.0
6763,33.0,0,60,7.0,100.0
6764,66.0,0,30,7.0,100.0
6765,50.0,30,60,5.0,80.0
6766,69.0,30,30,7.0,100.0
6767,62.0,0,60,7.0,100.0
6768,50.0,0,60,7.0,100.0
6769,38.0,0,60,7.0,100.0
6770,78.0,0,30,7.0,100.0
6771,66.0,0,30,7.0,100.0
6772,45.0,30,60,5.0,80.0
6773,57.0,0,60,6.0,80.0
6774,45.0,0,60,6.0,80.0
6775,74.0,30,30,7.0,100.0
6776,57.0,0,60,7.0,100.0
6777,45.0,0,60,7.0,100.0
6778,33.0,0,60,7.0,100.0
6779,69.0,0,60,7.0,100.0
6780,66.0,0,30,7.0,100.0
6781,50.0,30,60,5.0,80.0
6782,57.0,0,60,6.0,80.0
6783,45.0,0,60,6.0,80.0
6784,62.0,0,60,7.0,100.0
6785,50.0,0,60,7.0,100.0
6786,38.0,0,60,7.0,100.0
6787,69.0,30,60,7.0,100.0
6788,66.0,0,30,7.0,100.0
6789,45.0,30,60,5.0,80.0
6790,57.0,0,60,6.0,80.0
6791,45.0,0,60,6.0,80.0
6792,57.0,0,60,7.0,100.0
6793,45.0,0,60,7.0,100.0
6794,33.0,0,60,7.0,100.0
6795,69.0,30,60,7.0,100.0
6796,66.0,0,30,7.0,100.0
6797,50.0,30,60,5.0,80.0
6798,57.0,0,60,6.0,80.0
6799,45.0,0,60,6.0,80.0
6800,62.0,0,60,7.0,100.0
6801,50.0,0,60,7.0,100.0
6802,38.0,0,60,7.0,100.0
6803,69.0,30,60,7.0,100.0
6804,66.0,0,30,7.0,100.0
6805,45.0,30,60,5.0,80.0
6806,57.0,0,60,6.0,80.0
6807,45.0,0,60,6.0,80.0
6808,69.0,30,30,7.0,100.0
6809,57.0,0,60,7.0,100.0
6810,45.0,0,60,7.0,100.0
6811,33.0,0,60,7.0,100.0
6812,64.0,0,30,7.0,100.0
6813,49.0,0,60,5.0,80.0
6814,81.0,0,60,7.0,100.0
6815,69.0,30,30,7.0,100.0
6816,61.0,0,60,7.0,100.0
6817,49.0,0,60,7.0,100.0
6818,37.0,0,60,7.0,100.0
6819,64.0,0,30,7.0,100.0
6820,45.0,30,60,5.0,80.0
6821,57.0,0,120,6.0,80.0
6822,45.0,0,120,6.0,80.0
6823,79.0,0,60,7.0,100.0
6824,69.0,30,30,7.0,100.0
6825,57.0,0,60,7.0,100.0
6826,45.0,0,60,7.0,100.0
6827,33.0,0,60,7.0,100.0
6828,64.0,0,30,7.0,100.0
6829,49.0,30,60,5.0,80.0
6830,69.0,30,30,7.0,100.0
6831,61.0,0,60,7.0,100.0
6832,49.0,0,60,7.0,100.0
6833,37.0,0,60,7.0,100.0
6834,64.0,0,30,7.0,100.0
6835,76.0,30,240,4.0,80.0
6836,45.0,30,60,5.0,80.0
6837,69.0,30,30,7.0,100.0
6838,57.0,0,60,7.0,100.0
6839,45.0,0,60,7.0,100.0
6840,33.0,0,60,7.0,100.0
6841,67.0,0,30,7.0,100.0
6842,52.0,0,60,5.0,80.0
6843,79.0,0,180,7.0,100.0
6844,69.0,30,30,7.0,100.0
6845,64.0,0,60,7.0,100.0
6846,52.0,0,60,7.0,100.0
6847,40.0,0,60,7.0,100.0
6848,81.0,0,30,7.0,100.0
6849,67.0,0,30,7.0,100.0
6850,79.0,30,120,4.0,80.0
6851,69.0,0,360,4.0,80.0
6852,45.0,30,60,5.0,80.0
6853,57.0,0,240,6.0,80.0
6854,45.0,0,240,6.0,80.0
6855,79.0,30,30,7.0,100.0
6856,69.0,0,30,7.0,100.0
6857,57.0,0,60,7.0,100.0
6858,45.0,0,60,7.0,100.0
6859,33.0,0,60,7.0,100.0
6860,78.0,0,30,7.0,100.0
6861,67.0,0,30,7.0,100.0
6862,52.0,0,60,5.0,80.0
6863,76.0,30,30,7.0,100.0
6864,69.0,0,30,7.0,100.0
6865,64.0,0,60,7.0,100.0
6866,52.0,0,60,7.0,100.0
6867,40.0,0,60,7.0,100.0
6868,74.0,0,30,7.0,100.0
6869,67.0,0,30,7.0,100.0
6870,85.0,30,120,4.0,80.0
6871,79.0,0,120,4.0,80.0
6872,45.0,30,60,5.0,80.0
6873,57.0,0,120,6.0,80.0
6874,45.0,0,120,6.0,80.0
6875,73.0,30,30,7.0,100.0
6876,69.0,0,30,7.0,100.0
6877,57.0,0,60,7.0,100.0
6878,45.0,0,60,7.0,100.0
6879,33.0,0,60,7.0,100.0
6880,66.0,0,30,7.0,100.0
6881,50.0,0,60,5.0,80.0
6882,76.0,0,60,7.0,100.0
6883,69.0,30,30,7.0,100.0
6884,62.0,0,60,7.0,100.0
6885,50.0,0,60,7.0,100.0
6886,38.0,0,60,7.0,100.0
6887,66.0,0,30,7.0,100.0
6888,86.0,30,120,4.0,80.0
6889,78.0,0,120,4.0,80.0
6890,45.0,30,60,5.0,80.0
6891,57.0,0,120,6.0,80.0
6892,45.0,0,120,6.0,80.0
6893,74.0,0,60,7.0,100.0
6894,69.0,30,30,7.0,100.0
6895,57.0,0,60,7.0,100.0
6896,45.0,0,60,7.0,100.0
6897,33.0,0,60,7.0,100.0
6898,66.0,0,30,7.0,100.0
6899,50.0,30,60,5.0,80.0
6900,69.0,30,30,7.0,100.0
6901,62.0,0,60,7.0,100.0
6902,50.0,0,60,7.0,100.0
6903,38.0,0,60,7.0,100.0
6904,78.0,0,30,7.0,100.0
6905,66.0,0,30,7.0,100.0
6906,45.0,30,60,5.0,80.0
6907,57.0,0,60,6.0,80.0
6908,45.0,0,60,6.0,80.0
6909,74.0,30,30,7.0,100.0
6910,57.0,0,60,7.0,100.0
6911,45.0,0,60,7.0,100.0
6912,33.0,0,60,7.0,100.0
6913,69.0,0,60,7.0,100.0
6914,66.0,0,30,7.0,100.0
6915,50.0,30,60,5.0,80.0
6916,57.0,0,60,6.0,80.0
6917,45.0,0,60,6.0,80.0
6918,62.0,0,60,7.0,100.0
6919,50.0,0,60,7.0,100.0
6920,38.0,0,60,7.0,100.0
6921,69.0,30,60,7.0,100.0
6922,66.0,0,30,7.0,100.0
6923,45.0,30,60,5.0,80.0
6924,57.0,0,60,6.0,80.0
6925,45.0,0,60,6.0,80.0
6926,57.0,0,60,7.0,100.0
6927,45.0,0,60,7.0,100.0
6928,33.0,0,60,7.0,100.0
6929,69.0,30,60,7.0,100.0
6930,66.0,0,30,7.0,100.0
6931,50.0,30,60,5.0,80.0
6932,57.0,0,60,6.0,80.0
6933,45.0,0,60,6.0,80.0
6934,62.0,0,60,7.0,100.0
6935,50.0,0,60,7.0,100.0
6936,38.0,0,60,7.0,100.0
6937,69.0,30,60,7.0,100.0
6938,66.0,0,30,7.0,100.0
6939,45.0,30,60,5.0,80.0
6940,57.0,0,60,6.0,80.0
6941,45.0,0,60,6.0,80.0
6942,57.0,0,60,7.0,100.0
6943,45.0,0,60,7.0,100.0
6944,33.0,0,60,7.0,100.0
6945,69.0,30,60,7.0,100.0
6946,61.0,0,30,7.0,100.0
6947,52.0,0,60,5.0,80.0
6948,69.0,30,30,7.0,100.0
6949,64.0,0,60,7.0,100.0
6950,52.0,0,60,7.0,100.0
6951,40.0,0,60,7.0,100.0
6952,81.0,0,30,7.0,100.0
6953,61.0,0,30,7.0,100.0
6954,45.0,30,60,5.0,80.0
6955,57.0,0,120,6.0,80.0
6956,45.0,0,120,6.0,80.0
6957,79.0,30,30,7.0,100.0
6958,69.0,0,30,7.0,100.0
6959,57.0,0,60,7.0,100.0
6960,45.0,0,60,7.0,100.0
6961,33.0,0,60,7.0,100.0
6962,61.0,0,30,7.0,100.0
6963,52.0,30,60,5.0,80.0
6964,69.0,30,30,7.0,100.0
6965,64.0,0,60,7.0,100.0
6966,52.0,0,60,7.0,100.0
6967,40.0,0,60,7.0,100.0
6968,61.0,0,30,7.0,100.0
6969,73.0,30,240,4.0,80.0
6970,45.0,30,60,5.0,80.0
6971,69.0,30,30,7.0,100.0
6972,57.0,0,60,7.0,100.0
6973,45.0,0,60,7.0,100.0
6974,33.0,0,60,7.0,100.0
6975,64.0,0,30,7.0,100.0
6976,49.0,0,60,5.0,80.0
6977,79.0,0,180,7.0,100.0
6978,69.0,30,30,7.0,100.0
6979,61.0,0,60,7.0,100.0
6980,49.0,0,60,7.0,100.0
6981,37.0,0,60,7.0,100.0
6982,78.0,0,30,7.0,100.0
6983,64.0,0,30,7.0,100.0
6984,76.0,30,120,4.0,80.0
6985,69.0,0,360,4.0,80.0
6986,45.0,30,60,5.0,80.0
6987,57.0,0,240,6.0,80.0
6988,45.0,0,240,6.0,80.0
6989,79.0,30,30,7.0,100.0
6990,69.0,0,30,7.0,100.0
6991,57.0,0,60,7.0,100.0
6992,45.0,0,60,7.0,100.0
6993,33.0,0,60,7.0,100.0
6994,81.0,0,30,7.0,100.0
6995,64.0,0,30,7.0,100.0
6996,49.0,0,60,5.0,80.0
6997,79.0,30,30,7.0,100.0
6998,69.0,0,30,7.0,100.0
6999,61.0,0,60,7.0,100.0
7000,49.0,0,60,7.0,100.0
7001,37.0,0,60,7.0,100.0
7002,78.0,0,30,7.0,100.0
7003,64.0,0,30,7.0,100.0
7004,79.0,30,120,4.0,80.0
7005,76.0,0,120,4.0,80.0
7006,45.0,30,60,5.0,80.0
7007,57.0,0,120,6.0,80.0
7008,45.0,0,120,6.0,80.0
7009,76.0,30,30,7.0,100.0
7010,69.0,0,30,7.0,100.0
7011,57.0,0,60,7.0,100.0
7012,45.0,0,60,7.0,100.0
7013,33.0,0,60,7.0,100.0
7014,78.0,30,30,4.0,80.0
7015,78.0,0,30,7.0,100.0
7016,76.0,30,30,4.0,80.0
7017,76.0,0,30,7.0,100.0
7018,79.0,30,30,4.0,80.0
7019,79.0,0,30,7.0,100.0
7020,78.0,30,30,4.0,80.0
7021,50.0,0,120,5.0,80.0
7022,57.0,0,120,6.0,80.0
7023,45.0,0,120,6.0,80.0
7024,78.0,0,30,7.0,100.0
7025,62.0,0,120,7.0,100.0
7026,50.0,0,120,7.0,100.0
7027,38.0,0,120,7.0,100.0
7028,81.0,30,30,4.0,80.0
7029,81.0,0,30,7.0,100.0
7030,79.0,30,30,4.0,80.0
7031,79.0,0,30,7.0,100.0
7032,78.0,30,30,4.0,80.0
7033,78.0,0,30,7.0,100.0
7034,76.0,30,30,4.0,80.0
7035,55.0,0,60,5.0,80.0
7036,57.0,0,60,6.0,80.0
7037,45.0,0,60,6.0,80.0
7038,76.0,0,30,7.0,100.0
7039,61.0,0,60,7.0,100.0
7040,55.0,0,60,7.0,100.0
7041,43.0,0,60,7.0,100.0
7042,74.0,30,30,4.0,80.0
7043,74.0,0,30,7.0,100.0
7044,73.0,30,30,4.0,80.0
7045,73.0,0,30,7.0,100.0
7046,76.0,30,30,4.0,80.0
7047,76.0,0,30,7.0,100.0
7048,74.0,30,30,4.0,80.0
7049,54.0,0,120,5.0,80.0
7050,57.0,0,120,6.0,80.0
7051,45.0,0,120,6.0,80.0
7052,74.0,0,30,7.0,100.0
7053,62.0,0,120,7.0,100.0
7054,54.0,0,120,7.0,100.0
7055,42.0,0,120,7.0,100.0
7056,78.0,30,60,4.0,80.0
7057,78.0,0,60,7.0,100.0
7058,58.0,60,60,5.0,80.0
7059,61.0,0,60,7.0,100.0
7060,58.0,0,60,7.0,100.0
7061,46.0,0,60,7.0,100.0
7062,86.0,60,30,4.0,80.0
7063,74.0,0,30,7.0,100.0
7064,85.0,30,30,4.0,80.0
7065,73.0,0,30,7.0,100.0
7066,88.0,30,30,4.0,80.0
7067,76.0,0,30,7.0,100.0
7068,86.0,30,30,4.0,80.0
7069,59.0,0,120,5.0,80.0
7070,74.0,0,30,7.0,100.0
7071,59.0,0,120,7.0,100.0
7072,47.0,0,120,7.0,100.0
7073,90.0,30,30,4.0,80.0
7074,78.0,0,30,7.0,100.0
7075,88.0,30,30,4.0,80.0
7076,76.0,0,30,7.0,100.0
7077,86.0,30,30,4.0,80.0
7078,74.0,0,30,7.0,100.0
7079,85.0,30,30,4.0,80.0
7080,52.0,0,60,5.0,80.0
7081,73.0,0,30,7.0,100.0
7082,58.0,0,60,7.0,100.0
7083,52.0,0,60,7.0,100.0
7084,40.0,0,60,7.0,100.0
7085,83.0,30,30,4.0,80.0
7086,71.0,0,30,7.0,100.0
7087,82.0,30,30,4.0,80.0
7088,70.0,0,30,7.0,100.0
7089,85.0,30,30,4.0,80.0
7090,73.0,0,30,7.0,100.0
7091,83.0,30,30,4.0,80.0
7092,50.0,0,120,5.0,80.0
7093,71.0,0,30,7.0,100.0
7094,59.0,0,120,7.0,100.0
7095,50.0,0,120,7.0,100.0
7096,38.0,0,120,7.0,100.0
7097,86.0,30,60,4.0,80.0
7098,74.0,0,60,7.0,100.0
7099,54.0,60,60,5.0,80.0
7100,54.0,0,60,7.0,100.0
7101,42.0,0,60,7.0,100.0
7102,83.0,60,30,4.0,80.0
7103,71.0,0,30,7.0,100.0
7104,82.0,30,30,4.0,80.0
7105,70.0,0,30,7.0,100.0
7106,85.0,30,30,4.0,80.0
7107,73.0,0,30,7.0,100.0
7108,83.0,30,30,4.0,80.0
7109,56.0,0,120,5.0,80.0
7110,71.0,0,30,7.0,100.0
7111,62.0,0,180,7.0,100.0
7112,56.0,0,120,7.0,100.0
7113,44.0,0,120,7.0,100.0
7114,86.0,30,30,4.0,80.0
7115,74.0,0,30,7.0,100.0
7116,85.0,30,30,4.0,80.0
7117,73.0,0,30,7.0,100.0
7118,83.0,30,30,4.0,80.0
7119,71.0,0,30,7.0,100.0
7120,81.0,30,30,4.0,80.0
7121,62.0,0,60,5.0,80.0
7122,69.0,0,30,7.0,100.0
7123,66.0,0,60,7.0,100.0
7124,63.0,0,60,7.0,100.0
7125,51.0,0,60,7.0,100.0
7126,80.0,30,30,4.0,80.0
7127,68.0,0,30,7.0,100.0
7128,67.0,0,30,7.0,100.0
7129,78.0,30,30,4.0,80.0
7130,66.0,0,30,7.0,100.0
7131,81.0,30,30,4.0,80.0
7132,69.0,0,30,7.0,100.0
7133,80.0,30,30,4.0,80.0
7134,64.0,0,120,5.0,80.0
7135,68.0,0,30,7.0,100.0
7136,67.0,0,30,7.0,100.0
7137,64.0,0,120,7.0,100.0
7138,52.0,0,120,7.0,100.0
7139,83.0,30,30,4.0,80.0
7140,71.0,0,30,7.0,100.0
7141,81.0,30,30,4.0,80.0
7142,69.0,0,30,7.0,100.0
7143,80.0,30,30,4.0,80.0
7144,68.0,0,30,7.0,100.0
7145,67.0,0,30,7.0,100.0
7146,78.0,30,30,4.0,80.0
7147,57.0,0,60,5.0,80.0
7148,66.0,0,30,7.0,100.0
7149,63.0,0,60,7.0,100.0
7150,57.0,0,60,7.0,100.0
7151,45.0,0,60,7.0,100.0
7152,76.0,30,60,4.0,80.0
7153,56.0,0,120,5.0,80.0
7154,56.0,0,120,7.0,100.0
7155,44.0,0,120,7.0,100.0
7156,52.0,30,30,5.0,80.0
7157,52.0,0,30,7.0,100.0
7158,40.0,0,30,7.0,100.0
7159,54.0,30,30,5.0,80.0
7160,54.0,0,30,7.0,100.0
7161,42.0,0,30,7.0,100.0
7162,56.0,30,30,5.0,80.0
7163,56.0,0,30,7.0,100.0
7164,44.0,0,30,7.0,100.0
7165,57.0,30,30,5.0,80.0
7166,57.0,0,30,7.0,100.0
7167,45.0,0,30,7.0,100.0
7168,56.0,30,30,5.0,80.0
7169,56.0,0,30,7.0,100.0
7170,44.0,0,30,7.0,100.0
7171,57.0,30,30,5.0,80.0
7172,57.0,0,30,7.0,100.0
7173,45.0,0,30,7.0,100.0
7174,86.0,120,240,4.0,80.0
7175,83.0,0,240,4.0,80.0
7176,59.0,30,30,5.0,80.0
7177,74.0,0,240,7.0,100.0
7178,64.0,0,360,7.0,100.0
7179,83.0,0,240,7.0,100.0
7180,59.0,0,30,7.0,100.0
7181,47.0,0,30,7.0,100.0
7182,85.0,30,15,4.0,80.0
7183,81.0,0,15,4.0,80.0
7184,73.0,0,15,7.0,100.0
7185,69.0,0,15,7.0,100.0
7186,86.0,15,15,4.0,80.0
7187,83.0,0,15,4.0,80.0
7188,61.0,0,30,5.0,80.0
7189,74.0,0,15,7.0,100.0
7190,71.0,0,15,7.0,100.0
7191,61.0,0,30,7.0,100.0
7192,49.0,0,30,7.0,100.0
7193,85.0,15,15,4.0,80.0
7194,81.0,0,15,4.0,80.0
7195,73.0,0,15,7.0,100.0
7196,69.0,0,15,7.0,100.0
7197,86.0,15,15,4.0,80.0
7198,83.0,0,15,4.0,80.0
7199,59.0,0,30,5.0,80.0
7200,74.0,0,15,7.0,100.0
7201,71.0,0,15,7.0,100.0
7202,59.0,0,30,7.0,100.0
7203,47.0,0,30,7.0,100.0
7204,85.0,15,15,4.0,80.0
7205,81.0,0,15,4.0,80.0
7206,73.0,0,15,7.0,100.0
7207,69.0,0,15,7.0,100.0
7208,86.0,15,15,4.0,80.0
7209,61.0,0,30,5.0,80.0
7210,74.0,0,15,7.0,100.0
7211,61.0,0,30,7.0,100.0
7212,49.0,0,30,7.0,100.0
7213,83.0,0,30,4.0,80.0
7214,80.0,15,15,4.0,80.0
7215,71.0,0,30,7.0,100.0
7216,68.0,0,15,7.0,100.0
7217,85.0,15,15,4.0,80.0
7218,81.0,0,15,4.0,80.0
7219,63.0,0,30,5.0,80.0
7220,73.0,0,15,7.0,100.0
7221,69.0,0,15,7.0,100.0
7222,63.0,0,30,7.0,100.0
7223,51.0,0,30,7.0,100.0
7224,71.0,0,30,7.0,100.0
7225,68.0,0,30,7.0,100.0
7226,66.0,60,30,7.0,100.0
7227,83.0,15,120,4.0,80.0
7228,80.0,0,120,4.0,80.0
7229,64.0,0,120,5.0,80.0
7230,52.0,0,480,6.0,80.0
7231,68.0,30,30,7.0,100.0
7232,64.0,0,120,7.0,100.0
7233,52.0,0,120,7.0,100.0
7234,69.0,30,30,7.0,100.0
7235,47.0,30,30,5.0,80.0
7236,71.0,0,30,7.0,100.0
7237,59.0,0,30,7.0,100.0
7238,47.0,0,30,7.0,100.0
7239,35.0,0,30,7.0,100.0
7240,49.0,0,30,5.0,80.0
7241,73.0,0,30,7.0,100.0
7242,61.0,0,30,7.0,100.0
7243,49.0,0,30,7.0,100.0
7244,37.0,0,30,7.0,100.0
7245,88.0,30,60,4.0,80.0
7246,80.0,0,60,4.0,80.0
7247,51.0,30,30,5.0,80.0
7248,59.0,0,60,6.0,80.0
7249,52.0,0,60,6.0,80.0
7250,75.0,0,30,7.0,100.0
7251,63.0,0,30,7.0,100.0
7252,51.0,0,30,7.0,100.0
7253,39.0,0,30,7.0,100.0
7254,52.0,0,30,5.0,80.0
7255,76.0,0,30,7.0,100.0
7256,64.0,0,30,7.0,100.0
7257,52.0,0,30,7.0,100.0
7258,40.0,0,30,7.0,100.0
7259,88.0,30,60,4.0,80.0
7260,80.0,0,60,4.0,80.0
7261,54.0,30,30,5.0,80.0
7262,59.0,0,60,6.0,80.0
7263,52.0,0,60,6.0,80.0
7264,78.0,0,30,7.0,100.0
7265,66.0,0,30,7.0,100.0
7266,54.0,0,30,7.0,100.0
7267,42.0,0,30,7.0,100.0
7268,56.0,0,30,5.0,80.0
7269,80.0,0,30,7.0,100.0
7270,68.0,0,30,7.0,100.0
7271,56.0,0,30,7.0,100.0
7272,44.0,0,30,7.0,100.0
7273,88.0,30,60,4.0,80.0
7274,80.0,0,60,4.0,80.0
7275,57.0,30,30,5.0,80.0
7276,59.0,0,60,6.0,80.0
7277,52.0,0,60,6.0,80.0
7278,81.0,0,30,7.0,100.0
7279,69.0,0,30,7.0,100.0
7280,57.0,0,30,7.0,100.0
7281,45.0,0,30,7.0,100.0
7282,59.0,0,30,5.0,80.0
7283,83.0,0,30,7.0,100.0
7284,71.0,0,30,7.0,100.0
7285,59.0,0,30,7.0,100.0
7286,47.0,0,30,7.0,100.0
7287,88.0,30,60,4.0,80.0
7288,80.0,0,60,4.0,80.0
7289,56.0,30,30,5.0,80.0
7290,59.0,0,60,6.0,80.0
7291,52.0,0,60,6.0,80.0
7292,80.0,0,30,7.0,100.0
7293,68.0,0,30,7.0,100.0
7294,56.0,0,30,7.0,100.0
7295,44.0,0,30,7.0,100.0
7296,59.0,0,30,5.0,80.0
7297,83.0,0,30,7.0,100.0
7298,71.0,0,30,7.0,100.0
7299,59.0,0,30,7.0,100.0
7300,47.0,0,30,7.0,100.0
7301,88.0,30,60,4.0,80.0
7302,80.0,0,60,4.0,80.0
7303,56.0,30,30,5.0,80.0
7304,59.0,0,60,6.0,80.0
7305,52.0,0,60,6.0,80.0
7306,80.0,0,30,7.0,100.0
7307,68.0,0,30,7.0,100.0
7308,56.0,0,30,7.0,100.0
7309,44.0,0,30,7.0,100.0
7310,52.0,30,60,3.0,127.0
7311,54.0,60,15,3.0,127.0
7312,56.0,30,15,3.0,127.0
7313,88.0,0,120,4.0,80.0
7314,80.0,0,120,4.0,80.0
7315,52.0,0,120,5.0,80.0
7316,59.0,0,120,6.0,80.0
7317,52.0,0,120,6.0,80.0
7318,76.0,0,120,7.0,100.0
7319,64.0,0,120,7.0,100.0
7320,52.0,0,120,7.0,100.0
7321,40.0,0,120,7.0,100.0
7322,57.0,30,15,3.0,127.0
7323,59.0,30,15,3.0,127.0
7324,61.0,30,15,3.0,127.0
7325,63.0,30,15,3.0,127.0
7326,64.0,30,15,3.0,127.0
7327,66.0,30,15,3.0,127.0
7328,68.0,30,15,3.0,127.0
7329,69.0,30,15,3.0,127.0
7330,71.0,30,15,3.0,127.0
7331,73.0,30,15,3.0,127.0
7332,74.0,30,15,3.0,127.0
7333,75.0,30,15,3.0,127.0
7334,64.0,120,120,5.0,80.0
7335,66.0,0,30,7.0,100.0
7336,63.0,0,30,7.0,100.0
7337,66.0,60,30,7.0,100.0
7338,63.0,0,30,7.0,100.0
7339,63.0,120,120,5.0,80.0
7340,68.0,0,30,7.0,100.0
7341,62.0,0,30,7.0,100.0
7342,68.0,60,30,7.0,100.0
7343,62.0,0,30,7.0,100.0
7344,62.0,0,120,5.0,80.0
7345,64.0,0,360,7.0,100.0
7346,69.0,0,30,7.0,100.0
7347,64.0,0,30,7.0,100.0
7348,61.0,0,30,7.0,100.0
7349,69.0,60,30,7.0,100.0
7350,64.0,0,30,7.0,100.0
7351,61.0,0,30,7.0,100.0
7352,64.0,60,240,5.0,80.0
7353,61.0,60,120,5.0,80.0
7354,71.0,0,30,7.0,100.0
7355,68.0,0,30,7.0,100.0
7356,59.0,0,30,7.0,100.0
7357,71.0,60,30,7.0,100.0
7358,68.0,0,30,7.0,100.0
7359,59.0,0,30,7.0,100.0
7360,62.0,60,120,5.0,80.0
7361,59.0,0,120,5.0,80.0
7362,73.0,0,30,7.0,100.0
7363,69.0,0,30,7.0,100.0
7364,57.0,0,30,7.0,100.0
7365,73.0,60,30,7.0,100.0
7366,69.0,0,30,7.0,100.0
7367,57.0,0,30,7.0,100.0
7368,61.0,60,120,5.0,80.0
7369,57.0,0,120,5.0,80.0
7370,74.0,0,30,7.0,100.0
7371,71.0,0,30,7.0,100.0
7372,56.0,0,30,7.0,100.0
7373,74.0,60,30,7.0,100.0
7374,71.0,0,30,7.0,100.0
7375,56.0,0,30,7.0,100.0
7376,59.0,60,120,5.0,80.0
7377,56.0,0,120,5.0,80.0
7378,52.0,0,960,6.0,80.0
7379,69.0,0,60,7.0,100.0
7380,57.0,60,120,5.0,80.0
7381,45.0,0,120,6.0,80.0
7382,57.0,60,60,7.0,100.0
7383,59.0,0,120,7.0,100.0
7384,57.0,60,60,7.0,100.0
7385,76.0,30,1200,3.0,127.0
7386,73.0,0,240,7.0,100.0
7387,57.0,60,60,7.0,100.0
7388,57.0,0,60,7.0,100.0
7389,57.0,60,60,7.0,100.0
7390,73.0,60,180,3.0,127.0
7391,69.0,0,180,7.0,100.0
7392,57.0,60,60,7.0,100.0
7393,74.0,60,60,3.0,127.0
7394,71.0,0,60,7.0,100.0
7395,57.0,0,60,7.0,100.0
7396,78.0,60,60,3.0,127.0
7397,74.0,0,60,7.0,100.0
7398,76.0,60,60,3.0,127.0
7399,73.0,0,60,7.0,100.0
7400,57.0,0,120,7.0,100.0
7401,74.0,60,30,3.0,127.0
7402,71.0,0,30,7.0,100.0
7403,73.0,60,30,3.0,127.0
7404,69.0,0,30,7.0,100.0
7405,73.0,60,120,3.0,127.0
7406,69.0,0,120,7.0,100.0
7407,57.0,60,60,7.0,100.0
7408,61.0,60,60,7.0,100.0
7409,57.0,60,60,7.0,100.0
7410,74.0,60,120,3.0,127.0
7411,66.0,0,120,7.0,100.0
7412,59.0,0,120,7.0,100.0
7413,50.0,0,120,7.0,100.0
7414,71.0,120,60,3.0,127.0
7415,62.0,0,60,7.0,100.0
7416,74.0,120,120,3.0,127.0
7417,66.0,0,120,7.0,100.0
7418,59.0,0,120,7.0,100.0
7419,50.0,0,120,7.0,100.0
7420,71.0,120,60,3.0,127.0
7421,62.0,0,60,7.0,100.0
7422,52.0,60,60,7.0,100.0
7423,52.0,60,60,7.0,100.0
7424,69.0,120,240,3.0,127.0
7425,61.0,0,240,7.0,100.0
7426,52.0,60,60,7.0,100.0
7427,68.0,60,120,3.0,127.0
7428,59.0,0,120,7.0,100.0
7429,64.0,60,60,7.0,100.0
7430,52.0,0,120,7.0,100.0
7431,63.0,60,60,7.0,100.0
7432,62.0,60,60,7.0,100.0
7433,61.0,0,60,7.0,100.0
7434,61.0,60,60,7.0,100.0
7435,61.0,60,60,7.0,100.0
7436,64.0,0,240,7.0,100.0
7437,61.0,60,60,7.0,100.0
7438,69.0,60,270,3.0,127.0
7439,68.0,30,30,3.0,127.0
7440,59.0,0,60,7.0,100.0
7441,69.0,30,30,3.0,127.0
7442,68.0,30,30,3.0,127.0
7443,62.0,60,120,7.0,100.0
7444,59.0,0,60,7.0,100.0
7445,71.0,30,30,3.0,127.0
7446,69.0,30,30,3.0,127.0
7447,57.0,0,60,7.0,100.0
7448,68.0,30,30,3.0,127.0
7449,66.0,30,30,3.0,127.0
7450,61.0,0,120,7.0,100.0
7451,57.0,0,60,7.0,100.0
7452,64.0,30,60,3.0,127.0
7453,74.0,60,60,3.0,127.0
7454,59.0,0,120,7.0,100.0
7455,56.0,0,120,7.0,100.0
7456,64.0,0,120,7.0,100.0
7457,74.0,60,240,3.0,127.0
7458,71.0,0,240,7.0,100.0
7459,68.0,0,240,7.0,100.0
7460,65.0,120,120,7.0,100.0
7461,73.0,120,120,3.0,127.0
7462,69.0,0,120,7.0,100.0
7463,71.0,120,30,3.0,127.0
7464,73.0,30,30,3.0,127.0
7465,74.0,30,30,3.0,127.0
7466,76.0,30,30,3.0,127.0
7467,71.0,0,120,7.0,100.0
7468,66.0,0,240,7.0,100.0
7469,62.0,0,120,7.0,100.0
7470,77.0,30,30,3.0,127.0
7471,78.0,30,30,3.0,127.0
7472,74.0,30,30,3.0,127.0
7473,66.0,0,30,7.0,100.0
7474,71.0,30,30,3.0,127.0
7475,62.0,0,30,7.0,100.0
7476,50.0,0,60,7.0,100.0
7477,61.0,0,60,7.0,100.0
7478,69.0,30,120,3.0,127.0
7479,64.0,60,60,7.0,100.0
7480,52.0,0,120,7.0,100.0
7481,73.0,60,60,3.0,127.0
7482,62.0,0,60,7.0,100.0
7483,71.0,60,60,3.0,127.0
7484,64.0,0,60,7.0,100.0
7485,56.0,0,120,7.0,100.0
7486,52.0,0,120,7.0,100.0
7487,61.0,0,30,7.0,100.0
7488,64.0,0,30,7.0,100.0
7489,69.0,60,120,3.0,127.0
7490,57.0,0,120,7.0,100.0
7491,69.0,60,30,7.0,100.0
7492,64.0,60,120,5.0,80.0
7493,61.0,0,120,5.0,80.0
7494,71.0,0,10,7.0,100.0
7495,73.0,10,10,7.0,100.0
7496,71.0,10,10,7.0,100.0
7497,69.0,10,15,7.0,100.0
7498,62.0,60,60,5.0,80.0
7499,59.0,0,60,5.0,80.0
7500,71.0,15,15,7.0,100.0
7501,61.0,15,30,5.0,80.0
7502,57.0,0,30,5.0,80.0
7503,73.0,0,30,7.0,100.0
7504,69.0,0,30,7.0,100.0
7505,64.0,0,30,7.0,100.0
7506,73.0,60,30,7.0,100.0
7507,69.0,0,30,7.0,100.0
7508,61.0,60,120,5.0,80.0
7509,52.0,0,120,5.0,80.0
7510,73.0,0,10,7.0,100.0
7511,71.0,0,10,7.0,100.0
7512,74.0,10,10,7.0,100.0
7513,73.0,0,20,7.0,100.0
7514,71.0,10,10,7.0,100.0
7515,76.0,10,15,7.0,100.0
7516,69.0,0,15,7.0,100.0
7517,59.0,60,60,5.0,80.0
7518,50.0,0,60,5.0,80.0
7519,74.0,15,15,7.0,100.0
7520,71.0,0,15,7.0,100.0
7521,45.0,0,60,7.0,100.0
7522,33.0,0,60,7.0,100.0
7523,57.0,0,120,5.0,80.0
7524,49.0,0,120,5.0,80.0
7525,57.0,120,60,7.0,100.0
7526,45.0,0,60,7.0,100.0
7527,76.0,0,240,7.0,100.0
7528,61.0,0,240,7.0,100.0
7529,64.0,0,240,7.0,100.0
7530,45.0,0,60,7.0,100.0
7531,33.0,0,60,7.0,100.0
7532,73.0,0,420,7.0,100.0
7533,69.0,120,180,7.0,100.0
7534,61.0,0,180,7.0,100.0
7535,57.0,0,180,7.0,100.0
7536,45.0,120,60,7.0,100.0
7537,74.0,60,60,7.0,100.0
7538,71.0,0,60,7.0,100.0
7539,59.0,0,60,7.0,100.0
7540,62.0,0,60,7.0,100.0
7541,69.0,15,510,3.0,127.0
7542,71.0,30,30,3.0,127.0
7543,78.0,60,60,7.0,100.0
7544,74.0,0,60,7.0,100.0
7545,62.0,0,60,7.0,100.0
7546,66.0,0,60,7.0,100.0
7547,45.0,0,60,7.0,100.0
7548,33.0,0,60,7.0,100.0
7549,73.0,30,30,3.0,127.0
7550,74.0,30,30,3.0,127.0
7551,76.0,0,60,7.0,100.0
7552,73.0,0,60,7.0,100.0
7553,61.0,0,60,7.0,100.0
7554,64.0,0,60,7.0,100.0
7555,76.0,30,30,3.0,127.0
7556,74.0,0,30,7.0,100.0
7557,71.0,0,30,7.0,100.0
7558,59.0,0,30,7.0,100.0
7559,62.0,0,30,7.0,100.0
7560,78.0,30,30,3.0,127.0
7561,45.0,0,60,7.0,100.0
7562,80.0,30,30,3.0,127.0
7563,73.0,0,30,7.0,100.0
7564,69.0,0,30,7.0,100.0
7565,57.0,0,90,7.0,100.0
7566,61.0,0,30,7.0,100.0
7567,81.0,30,30,3.0,127.0
7568,80.0,30,30,3.0,127.0
7569,81.0,30,30,3.0,127.0
7570,45.0,0,60,7.0,100.0
7571,33.0,0,60,7.0,100.0
7572,80.0,30,30,3.0,127.0
7573,81.0,30,30,3.0,127.0
7574,73.0,0,120,7.0,100.0
7575,69.0,0,120,7.0,100.0
7576,57.0,0,120,7.0,100.0
7577,61.0,0,120,7.0,100.0
7578,80.0,30,30,3.0,127.0
7579,81.0,30,30,3.0,127.0
7580,57.0,0,60,7.0,100.0
7581,45.0,0,60,7.0,100.0
7582,80.0,30,30,3.0,127.0
7583,81.0,30,30,3.0,127.0
7584,77.0,30,30,3.0,127.0
7585,78.0,30,30,3.0,127.0
7586,77.0,30,30,3.0,127.0
7587,78.0,30,30,3.0,127.0
7588,74.0,0,120,7.0,100.0
7589,66.0,0,120,7.0,100.0
7590,59.0,0,120,7.0,100.0
7591,50.0,0,120,7.0,100.0
7592,38.0,0,120,7.0,100.0
7593,73.0,30,30,3.0,127.0
7594,74.0,30,30,3.0,127.0
7595,71.0,0,60,7.0,100.0
7596,62.0,0,60,7.0,100.0
7597,73.0,30,30,3.0,127.0
7598,74.0,30,30,3.0,127.0
7599,70.0,30,30,3.0,127.0
7600,71.0,30,30,3.0,127.0
7601,73.0,30,30,3.0,127.0
7602,74.0,30,30,3.0,127.0
7603,74.0,0,120,7.0,100.0
7604,66.0,0,120,7.0,100.0
7605,59.0,0,120,7.0,100.0
7606,50.0,0,120,7.0,100.0
7607,38.0,0,120,7.0,100.0
7608,75.0,30,30,3.0,127.0
7609,76.0,30,30,3.0,127.0
7610,71.0,0,60,7.0,100.0
7611,62.0,0,60,7.0,100.0
7612,77.0,30,30,3.0,127.0
7613,78.0,30,30,3.0,127.0
7614,52.0,60,30,7.0,100.0
7615,40.0,0,30,7.0,100.0
7616,52.0,60,30,7.0,100.0
7617,40.0,0,30,7.0,100.0
7618,69.0,30,180,3.0,127.0
7619,71.0,60,30,3.0,127.0
7620,52.0,0,30,7.0,100.0
7621,40.0,0,30,7.0,100.0
7622,69.0,30,30,3.0,127.0
7623,69.0,0,240,7.0,100.0
7624,61.0,0,240,7.0,100.0
7625,52.0,0,60,7.0,100.0
7626,40.0,0,60,7.0,100.0
7627,68.0,30,120,3.0,127.0
7628,68.0,0,120,7.0,100.0
7629,59.0,0,120,7.0,100.0
7630,64.0,0,360,7.0,100.0
7631,56.0,60,60,7.0,100.0
7632,44.0,0,60,7.0,100.0
7633,59.0,60,60,7.0,100.0
7634,47.0,0,60,7.0,100.0
7635,44.0,0,60,7.0,100.0
7636,76.0,60,30,3.0,127.0
7637,74.0,30,30,3.0,127.0
7638,71.0,30,15,3.0,127.0
7639,68.0,30,15,3.0,127.0
7640,59.0,0,120,7.0,100.0
7641,56.0,60,180,7.0,100.0
7642,52.0,0,120,7.0,100.0
7643,40.0,0,120,7.0,100.0
7644,64.0,30,15,3.0,127.0
7645,62.0,30,15,3.0,127.0
7646,59.0,30,15,3.0,127.0
7647,56.0,30,15,3.0,127.0
7648,64.0,60,60,7.0,100.0
7649,56.0,0,60,7.0,100.0
7650,64.0,60,60,7.0,100.0
7651,56.0,0,60,7.0,100.0
7652,52.0,30,240,3.0,127.0
7653,64.0,60,60,7.0,100.0
7654,56.0,0,60,7.0,100.0
7655,62.0,60,60,7.0,100.0
7656,57.0,0,60,7.0,100.0
7657,62.0,60,60,7.0,100.0
7658,57.0,0,60,7.0,100.0
7659,50.0,60,240,3.0,127.0
7660,62.0,60,60,7.0,100.0
7661,57.0,0,60,7.0,100.0
7662,54.0,0,240,7.0,100.0
7663,42.0,0,240,7.0,100.0
7664,71.0,60,60,7.0,100.0
7665,68.0,0,60,7.0,100.0
7666,64.0,0,60,7.0,100.0
7667,71.0,60,60,7.0,100.0
7668,68.0,0,60,7.0,100.0
7669,64.0,0,60,7.0,100.0
7670,80.0,60,240,3.0,127.0
7671,71.0,60,60,7.0,100.0
7672,68.0,0,60,7.0,100.0
7673,64.0,0,60,7.0,100.0
7674,50.0,0,240,7.0,100.0
7675,38.0,0,240,7.0,100.0
7676,81.0,60,60,3.0,127.0
7677,73.0,60,60,3.0,127.0
7678,73.0,0,120,7.0,100.0
7679,69.0,0,120,7.0,100.0
7680,64.0,0,120,7.0,100.0
7681,49.0,0,120,7.0,100.0
7682,37.0,0,120,7.0,100.0
7683,74.0,60,60,3.0,127.0
7684,75.0,60,60,3.0,127.0
7685,76.0,60,60,3.0,127.0
7686,68.0,60,60,3.0,127.0
7687,69.0,60,60,3.0,127.0
7688,70.0,60,60,3.0,127.0
7689,66.0,0,120,7.0,100.0
7690,63.0,0,120,7.0,100.0
7691,71.0,60,360,3.0,127.0
7692,69.0,120,240,7.0,100.0
7693,73.0,120,60,3.0,127.0
7694,74.0,60,60,3.0,127.0
7695,68.0,0,120,7.0,100.0
7696,64.0,120,240,7.0,100.0
7697,52.0,0,120,7.0,100.0
7698,73.0,60,30,3.0,127.0
7699,81.0,30,30,3.0,127.0
7700,69.0,0,60,7.0,100.0
7701,64.0,0,60,7.0,100.0
7702,76.0,30,15,3.0,127.0
7703,73.0,30,15,3.0,127.0
7704,69.0,0,60,7.0,100.0
7705,64.0,0,60,7.0,100.0
7706,61.0,0,60,7.0,100.0
7707,57.0,0,120,7.0,100.0
7708,45.0,0,120,7.0,100.0
7709,69.0,30,15,3.0,127.0
7710,64.0,30,15,3.0,127.0
7711,69.0,0,60,7.0,100.0
7712,64.0,0,60,7.0,100.0
7713,61.0,0,60,7.0,100.0
7714,61.0,30,15,3.0,127.0
7715,57.0,30,15,3.0,127.0
7716,69.0,0,60,7.0,100.0
7717,64.0,0,60,7.0,100.0
7718,61.0,0,60,7.0,100.0
7719,54.0,30,30,3.0,127.0
7720,57.0,30,30,3.0,127.0
7721,62.0,30,30,3.0,127.0
7722,66.0,30,30,3.0,127.0
7723,69.0,0,60,7.0,100.0
7724,66.0,0,60,7.0,100.0
7725,62.0,0,60,7.0,100.0
7726,50.0,0,120,7.0,100.0
7727,38.0,0,120,7.0,100.0
7728,69.0,30,30,3.0,127.0
7729,74.0,30,30,3.0,127.0
7730,69.0,0,60,7.0,100.0
7731,66.0,0,60,7.0,100.0
7732,62.0,0,60,7.0,100.0
7733,78.0,30,30,3.0,127.0
7734,81.0,30,30,3.0,127.0
7735,69.0,0,60,7.0,100.0
7736,66.0,0,60,7.0,100.0
7737,62.0,0,60,7.0,100.0
7738,75.0,30,30,3.0,127.0
7739,76.0,30,30,3.0,127.0
7740,78.0,30,30,3.0,127.0
7741,76.0,30,30,3.0,127.0
7742,69.0,0,60,7.0,100.0
7743,64.0,0,60,7.0,100.0
7744,57.0,0,60,7.0,100.0
7745,49.0,0,120,7.0,100.0
7746,37.0,0,120,7.0,100.0
7747,74.0,30,30,3.0,127.0
7748,73.0,30,30,3.0,127.0
7749,69.0,0,60,7.0,100.0
7750,61.0,0,60,7.0,100.0
7751,57.0,0,60,7.0,100.0
7752,71.0,30,30,3.0,127.0
7753,69.0,30,30,3.0,127.0
7754,69.0,0,60,7.0,100.0
7755,61.0,0,60,7.0,100.0
7756,66.0,0,60,7.0,100.0
7757,54.0,0,120,7.0,100.0
7758,42.0,0,120,7.0,100.0
7759,71.0,30,15,3.0,127.0
7760,73.0,15,15,3.0,127.0
7761,71.0,15,15,3.0,127.0
7762,73.0,15,15,3.0,127.0
7763,69.0,0,60,7.0,100.0
7764,59.0,0,60,7.0,100.0
7765,66.0,0,60,7.0,100.0
7766,71.0,15,15,3.0,127.0
7767,73.0,15,15,3.0,127.0
7768,71.0,15,15,3.0,127.0
7769,73.0,15,15,3.0,127.0
7770,69.0,0,60,7.0,100.0
7771,59.0,0,60,7.0,100.0
7772,66.0,0,60,7.0,100.0
7773,50.0,0,120,7.0,100.0
7774,38.0,0,120,7.0,100.0
7775,71.0,15,15,3.0,127.0
7776,73.0,15,15,3.0,127.0
7777,71.0,15,15,3.0,127.0
7778,73.0,15,15,3.0,127.0
7779,68.0,0,60,7.0,100.0
7780,59.0,0,60,7.0,100.0
7781,64.0,0,60,7.0,100.0
7782,71.0,15,15,3.0,127.0
7783,73.0,15,15,3.0,127.0
7784,69.0,15,15,3.0,127.0
7785,71.0,15,15,3.0,127.0
7786,68.0,0,60,7.0,100.0
7787,59.0,0,60,7.0,100.0
7788,62.0,0,60,7.0,100.0
7789,52.0,0,120,7.0,100.0
7790,40.0,0,120,7.0,100.0
7791,69.0,0,60,7.0,100.0
7792,57.0,0,60,7.0,100.0
7793,45.0,0,60,7.0,100.0
7794,33.0,0,60,7.0,100.0
7795,61.0,0,90,7.0,100.0
7796,69.0,60,30,7.0,100.0
7797,57.0,0,30,7.0,100.0
7798,45.0,0,30,7.0,100.0
7799,69.0,15,120,3.0,127.0
7800,81.0,0,120,4.0,80.0
7801,73.0,0,120,4.0,80.0
7802,64.0,0,120,5.0,80.0
7803,61.0,0,120,5.0,80.0
7804,64.0,30,30,7.0,100.0
7805,69.0,0,30,7.0,100.0
7806,73.0,0,30,7.0,100.0
7807,61.0,0,30,7.0,100.0
7808,49.0,0,30,7.0,100.0
7809,64.0,30,30,7.0,100.0
7810,81.0,30,90,4.0,80.0
7811,73.0,0,90,4.0,80.0
7812,64.0,0,90,5.0,80.0
7813,61.0,0,90,5.0,80.0
7814,69.0,30,30,7.0,100.0
7815,57.0,0,30,7.0,100.0
7816,45.0,0,30,7.0,100.0
7817,81.0,30,30,4.0,80.0
7818,73.0,0,30,4.0,80.0
7819,64.0,0,30,5.0,80.0
7820,61.0,0,30,5.0,80.0
7821,64.0,0,30,7.0,100.0
7822,73.0,0,30,7.0,100.0
7823,64.0,0,30,7.0,100.0
7824,52.0,0,30,7.0,100.0
7825,40.0,0,30,7.0,100.0
7826,81.0,30,60,4.0,80.0
7827,73.0,0,60,4.0,80.0
7828,64.0,0,60,5.0,80.0
7829,61.0,0,60,5.0,80.0
7830,69.0,30,30,7.0,100.0
7831,73.0,0,30,7.0,100.0
7832,57.0,0,30,7.0,100.0
7833,45.0,0,30,7.0,100.0
7834,81.0,30,60,4.0,80.0
7835,73.0,0,60,4.0,80.0
7836,64.0,0,60,5.0,80.0
7837,61.0,0,60,5.0,80.0
7838,69.0,0,60,7.0,100.0
7839,76.0,0,30,7.0,100.0
7840,61.0,0,30,7.0,100.0
7841,49.0,0,30,7.0,100.0
7842,37.0,0,30,7.0,100.0
7843,81.0,60,60,4.0,80.0
7844,73.0,0,60,4.0,80.0
7845,64.0,0,60,5.0,80.0
7846,61.0,0,60,5.0,80.0
7847,73.0,30,30,7.0,100.0
7848,76.0,0,30,7.0,100.0
7849,64.0,0,30,7.0,100.0
7850,52.0,0,30,7.0,100.0
7851,40.0,0,30,7.0,100.0
7852,81.0,30,60,4.0,80.0
7853,73.0,0,60,4.0,80.0
7854,64.0,0,60,5.0,80.0
7855,61.0,0,60,5.0,80.0
7856,73.0,30,30,7.0,100.0
7857,81.0,30,120,4.0,80.0
7858,73.0,0,120,4.0,80.0
7859,64.0,0,120,5.0,80.0
7860,61.0,0,120,5.0,80.0
7861,45.0,0,600,6.0,80.0
7862,81.0,0,120,7.0,100.0
7863,57.0,0,120,7.0,100.0
7864,45.0,0,120,7.0,100.0
7865,33.0,0,120,7.0,100.0
7866,69.0,240,120,7.0,100.0
7867,61.0,0,120,7.0,100.0
7868,54.0,0,120,7.0,100.0
7869,42.0,0,120,7.0,100.0
7870,74.0,240,120,7.0,100.0
7871,66.0,0,120,7.0,100.0
7872,69.0,0,120,7.0,100.0
7873,59.0,0,120,7.0,100.0
7874,47.0,0,120,7.0,100.0
7875,35.0,0,120,7.0,100.0
7876,68.0,240,120,7.0,100.0
7877,62.0,0,120,7.0,100.0
7878,64.0,0,120,7.0,100.0
7879,59.0,0,120,7.0,100.0
7880,52.0,0,120,7.0,100.0
7881,40.0,0,120,7.0,100.0
7882,69.0,0,120,7.0,100.0
7883,60.0,0,120,7.0,100.0
7884,64.0,0,120,7.0,100.0
7885,57.0,0,120,7.0,100.0
7886,45.0,0,120,7.0,100.0
7887,33.0,0,120,7.0,100.0
7888,69.0,240,360,3.0,127.0
7889,72.0,240,120,7.0,100.0
7890,69.0,0,120,7.0,100.0
7891,65.0,0,120,7.0,100.0
7892,71.0,120,60,3.0,127.0
7893,72.0,60,60,3.0,127.0
7894,71.0,60,60,3.0,127.0
7895,74.0,60,60,3.0,127.0
7896,77.0,0,120,7.0,100.0
7897,69.0,0,120,7.0,100.0
7898,62.0,0,120,7.0,100.0
7899,77.0,60,240,3.0,127.0
7900,71.0,120,120,7.0,100.0
7901,68.0,0,120,7.0,100.0
7902,64.0,0,120,7.0,100.0
7903,76.0,120,60,3.0,127.0
7904,74.0,60,60,3.0,127.0
7905,74.0,60,30,3.0,127.0
7906,72.0,30,30,3.0,127.0
7907,71.0,30,30,3.0,127.0
7908,69.0,30,30,3.0,127.0
7909,72.0,0,120,7.0,100.0
7910,69.0,0,120,7.0,100.0
7911,57.0,0,120,7.0,100.0
7912,69.0,30,120,3.0,127.0
7913,72.0,60,60,3.0,127.0
7914,79.0,120,120,7.0,100.0
7915,72.0,0,120,7.0,100.0
7916,64.0,0,120,7.0,100.0
7917,74.0,60,60,3.0,127.0
7918,76.0,60,60,3.0,127.0
7919,74.0,60,60,3.0,127.0
7920,77.0,60,60,3.0,127.0
7921,81.0,0,120,7.0,100.0
7922,72.0,0,120,7.0,100.0
7923,65.0,0,120,7.0,100.0
7924,81.0,60,240,3.0,127.0
7925,74.0,120,120,7.0,100.0
7926,71.0,0,120,7.0,100.0
7927,67.0,0,120,7.0,100.0
7928,79.0,120,60,3.0,127.0
7929,77.0,60,60,3.0,127.0
7930,77.0,60,30,3.0,127.0
7931,76.0,30,30,3.0,127.0
7932,74.0,30,30,3.0,127.0
7933,72.0,30,30,3.0,127.0
7934,76.0,0,120,7.0,100.0
7935,72.0,0,120,7.0,100.0
7936,60.0,0,120,7.0,100.0
7937,72.0,30,120,3.0,127.0
7938,76.0,60,60,7.0,100.0
7939,71.0,120,120,7.0,100.0
7940,64.0,0,120,7.0,100.0
7941,56.0,0,120,7.0,100.0
7942,44.0,0,120,7.0,100.0
7943,78.0,60,60,7.0,100.0
7944,79.0,60,60,7.0,100.0
7945,78.0,60,60,7.0,100.0
7946,81.0,60,60,7.0,100.0
7947,72.0,0,120,7.0,100.0
7948,64.0,0,120,7.0,100.0
7949,57.0,0,120,7.0,100.0
7950,45.0,0,120,7.0,100.0
7951,84.0,60,240,7.0,100.0
7952,66.0,120,120,7.0,100.0
7953,63.0,0,120,7.0,100.0
7954,59.0,0,120,7.0,100.0
7955,47.0,0,120,7.0,100.0
7956,83.0,120,60,7.0,100.0
7957,81.0,60,60,7.0,100.0
7958,74.0,60,60,3.0,127.0
7959,76.0,60,60,3.0,127.0
7960,81.0,0,240,7.0,100.0
7961,77.0,60,240,3.0,127.0
7962,76.0,120,60,3.0,127.0
7963,74.0,60,60,3.0,127.0
7964,80.0,120,240,7.0,100.0
7965,71.0,0,480,7.0,100.0
7966,52.0,0,480,7.0,100.0
7967,40.0,0,480,7.0,100.0
7968,73.0,60,60,3.0,127.0
7969,76.0,60,30,3.0,127.0
7970,79.0,30,30,3.0,127.0
7971,79.0,0,240,7.0,100.0
7972,64.0,0,720,7.0,100.0
7973,82.0,30,240,3.0,127.0
7974,81.0,120,60,3.0,127.0
7975,79.0,60,60,3.0,127.0
7976,76.0,120,240,7.0,100.0
7977,73.0,0,480,7.0,100.0
7978,57.0,0,480,7.0,100.0
7979,45.0,0,480,7.0,100.0
7980,79.0,60,60,3.0,127.0
7981,74.0,0,60,7.0,100.0
7982,69.0,0,300,7.0,100.0
7983,50.0,0,60,7.0,100.0
7984,38.0,0,60,7.0,100.0
7985,77.0,60,60,3.0,127.0
7986,67.0,60,60,7.0,100.0
7987,61.0,0,60,7.0,100.0
7988,57.0,0,60,7.0,100.0
7989,52.0,0,60,7.0,100.0
7990,40.0,0,60,7.0,100.0
7991,76.0,60,60,3.0,127.0
7992,76.0,60,60,3.0,127.0
7993,65.0,0,60,7.0,100.0
7994,62.0,0,60,7.0,100.0
7995,57.0,0,60,7.0,100.0
7996,53.0,0,60,7.0,100.0
7997,41.0,0,60,7.0,100.0
7998,74.0,60,60,3.0,127.0
7999,69.0,60,60,7.0,100.0
8000,64.0,0,60,7.0,100.0
8001,57.0,0,60,7.0,100.0
8002,52.0,0,60,7.0,100.0
8003,40.0,0,60,7.0,100.0
8004,72.0,60,60,3.0,127.0
8005,72.0,60,60,3.0,127.0
8006,71.0,60,120,3.0,127.0
8007,65.0,0,240,7.0,100.0
8008,62.0,0,240,7.0,100.0
8009,50.0,0,240,7.0,100.0
8010,38.0,0,240,7.0,100.0
8011,72.0,120,120,3.0,127.0
8012,71.0,60,120,3.0,127.0
8013,69.0,120,60,3.0,127.0
8014,69.0,0,480,7.0,100.0
8015,66.0,60,240,7.0,100.0
8016,59.0,0,240,7.0,100.0
8017,51.0,0,240,7.0,100.0
8018,39.0,0,240,7.0,100.0
8019,68.0,0,30,7.0,100.0
8020,64.0,0,30,7.0,100.0
8021,68.0,60,30,7.0,100.0
8022,64.0,0,30,7.0,100.0
8023,68.0,60,120,3.0,127.0
8024,69.0,30,30,7.0,100.0
8025,66.0,0,30,7.0,100.0
8026,59.0,0,120,7.0,100.0
8027,52.0,0,120,7.0,100.0
8028,40.0,0,120,7.0,100.0
8029,71.0,30,60,7.0,100.0
8030,68.0,0,60,7.0,100.0
8031,72.0,60,30,7.0,100.0
8032,69.0,0,30,7.0,100.0
8033,52.0,60,30,3.0,127.0
8034,54.0,60,30,3.0,127.0
8035,56.0,60,30,3.0,127.0
8036,74.0,60,240,7.0,100.0
8037,57.0,60,30,3.0,127.0
8038,52.0,30,30,3.0,127.0
8039,71.0,0,300,7.0,100.0
8040,54.0,30,30,3.0,127.0
8041,56.0,30,30,3.0,127.0
8042,72.0,0,120,7.0,100.0
8043,64.0,0,60,7.0,100.0
8044,57.0,30,30,3.0,127.0
8045,56.0,30,30,3.0,127.0
8046,66.0,0,60,7.0,100.0
8047,57.0,30,30,3.0,127.0
8048,72.0,0,90,7.0,100.0
8049,59.0,30,30,3.0,127.0
8050,72.0,0,30,7.0,100.0
8051,68.0,0,60,7.0,100.0
8052,72.0,0,15,7.0,100.0
8053,69.0,0,15,7.0,100.0
8054,60.0,30,30,3.0,127.0
8055,74.0,15,15,7.0,100.0
8056,71.0,0,15,7.0,100.0
8057,72.0,0,15,7.0,100.0
8058,69.0,0,15,7.0,100.0
8059,59.0,15,30,3.0,127.0
8060,74.0,15,15,7.0,100.0
8061,71.0,0,15,7.0,100.0
8062,72.0,0,15,7.0,100.0
8063,69.0,0,15,7.0,100.0
8064,57.0,15,30,3.0,127.0
8065,74.0,15,15,7.0,100.0
8066,71.0,0,15,7.0,100.0
8067,72.0,0,15,7.0,100.0
8068,69.0,0,15,7.0,100.0
8069,59.0,15,30,3.0,127.0
8070,74.0,15,15,7.0,100.0
8071,71.0,0,15,7.0,100.0
8072,72.0,0,15,7.0,100.0
8073,69.0,0,15,7.0,100.0
8074,60.0,15,30,3.0,127.0
8075,74.0,15,15,7.0,100.0
8076,71.0,0,15,7.0,100.0
8077,72.0,0,15,7.0,100.0
8078,69.0,0,15,7.0,100.0
8079,59.0,15,30,3.0,127.0
8080,74.0,15,15,7.0,100.0
8081,60.0,15,30,3.0,127.0
8082,71.0,0,45,7.0,100.0
8083,68.0,0,30,7.0,100.0
8084,62.0,30,30,3.0,127.0
8085,72.0,0,30,7.0,100.0
8086,69.0,0,30,7.0,100.0
8087,71.0,0,30,7.0,100.0
8088,68.0,0,30,7.0,100.0
8089,80.0,60,30,4.0,80.0
8090,76.0,0,30,4.0,80.0
8091,68.0,0,30,7.0,100.0
8092,64.0,0,30,7.0,100.0
8093,64.0,30,120,3.0,127.0
8094,81.0,30,30,4.0,80.0
8095,78.0,0,30,4.0,80.0
8096,69.0,0,30,7.0,100.0
8097,66.0,0,30,7.0,100.0
8098,83.0,0,60,4.0,80.0
8099,80.0,0,60,4.0,80.0
8100,71.0,0,60,7.0,100.0
8101,68.0,0,60,7.0,100.0
8102,84.0,60,30,4.0,80.0
8103,81.0,0,30,4.0,80.0
8104,72.0,0,30,7.0,100.0
8105,69.0,0,30,7.0,100.0
8106,52.0,30,120,3.0,127.0
8107,52.0,60,30,3.0,127.0
8108,54.0,60,30,3.0,127.0
8109,56.0,60,30,3.0,127.0
8110,86.0,60,240,4.0,80.0
8111,74.0,0,240,7.0,100.0
8112,57.0,60,30,3.0,127.0
8113,52.0,30,30,3.0,127.0
8114,71.0,0,300,7.0,100.0
8115,54.0,30,30,3.0,127.0
8116,56.0,30,30,3.0,127.0
8117,72.0,0,120,7.0,100.0
8118,64.0,0,60,7.0,100.0
8119,57.0,30,30,3.0,127.0
8120,56.0,30,30,3.0,127.0
8121,66.0,0,60,7.0,100.0
8122,57.0,30,30,3.0,127.0
8123,72.0,0,90,7.0,100.0
8124,59.0,30,30,3.0,127.0
8125,83.0,0,480,4.0,80.0
8126,72.0,0,30,7.0,100.0
8127,68.0,0,60,7.0,100.0
8128,72.0,0,15,7.0,100.0
8129,69.0,0,15,7.0,100.0
8130,60.0,30,30,3.0,127.0
8131,74.0,15,15,7.0,100.0
8132,71.0,0,15,7.0,100.0
8133,72.0,0,15,7.0,100.0
8134,69.0,0,15,7.0,100.0
8135,59.0,15,30,3.0,127.0
8136,74.0,15,15,7.0,100.0
8137,71.0,0,15,7.0,100.0
8138,72.0,0,15,7.0,100.0
8139,69.0,0,15,7.0,100.0
8140,57.0,15,30,3.0,127.0
8141,74.0,15,15,7.0,100.0
8142,71.0,0,15,7.0,100.0
8143,72.0,0,15,7.0,100.0
8144,69.0,0,15,7.0,100.0
8145,59.0,15,30,3.0,127.0
8146,74.0,15,15,7.0,100.0
8147,71.0,0,15,7.0,100.0
8148,72.0,0,15,7.0,100.0
8149,69.0,0,15,7.0,100.0
8150,60.0,15,30,3.0,127.0
8151,74.0,15,15,7.0,100.0
8152,71.0,0,15,7.0,100.0
8153,72.0,0,15,7.0,100.0
8154,69.0,0,15,7.0,100.0
8155,59.0,15,30,3.0,127.0
8156,74.0,15,15,7.0,100.0
8157,60.0,15,30,3.0,127.0
8158,71.0,0,45,7.0,100.0
8159,68.0,0,30,7.0,100.0
8160,62.0,30,30,3.0,127.0
8161,84.0,0,480,4.0,80.0
8162,81.0,0,240,4.0,80.0
8163,72.0,0,30,7.0,100.0
8164,69.0,0,30,7.0,100.0
8165,52.0,60,30,5.0,80.0
8166,52.0,0,30,7.0,100.0
8167,40.0,0,30,7.0,100.0
8168,64.0,30,120,3.0,127.0
8169,83.0,0,120,4.0,80.0
8170,80.0,0,120,4.0,80.0
8171,71.0,0,120,7.0,100.0
8172,68.0,0,120,7.0,100.0
8173,54.0,60,30,5.0,80.0
8174,54.0,0,30,7.0,100.0
8175,42.0,0,30,7.0,100.0
8176,76.0,60,30,4.0,80.0
8177,71.0,0,30,4.0,80.0
8178,56.0,0,30,5.0,80.0
8179,76.0,0,30,7.0,100.0
8180,71.0,0,30,7.0,100.0
8181,56.0,0,30,7.0,100.0
8182,44.0,0,30,7.0,100.0
8183,72.0,60,30,4.0,80.0
8184,69.0,0,30,4.0,80.0
8185,57.0,0,30,5.0,80.0
8186,72.0,0,30,7.0,100.0
8187,69.0,0,30,7.0,100.0
8188,57.0,0,30,7.0,100.0
8189,45.0,0,30,7.0,100.0
8190,56.0,30,30,5.0,80.0
8191,52.0,0,240,6.0,80.0
8192,56.0,0,30,7.0,100.0
8193,44.0,0,30,7.0,100.0
8194,57.0,30,30,5.0,80.0
8195,57.0,0,30,7.0,100.0
8196,45.0,0,30,7.0,100.0
8197,59.0,30,30,5.0,80.0
8198,59.0,0,30,7.0,100.0
8199,47.0,0,30,7.0,100.0
8200,81.0,30,30,4.0,80.0
8201,72.0,0,30,4.0,80.0
8202,60.0,0,30,5.0,80.0
8203,81.0,0,30,7.0,100.0
8204,57.0,0,30,7.0,100.0
8205,64.0,0,30,7.0,100.0
8206,72.0,0,30,7.0,100.0
8207,60.0,0,30,7.0,100.0
8208,48.0,0,30,7.0,100.0
8209,59.0,30,30,5.0,80.0
8210,52.0,0,60,6.0,80.0
8211,59.0,0,30,7.0,100.0
8212,47.0,0,30,7.0,100.0
8213,60.0,30,30,5.0,80.0
8214,60.0,0,30,7.0,100.0
8215,48.0,0,30,7.0,100.0
8216,62.0,30,30,5.0,80.0
8217,62.0,0,30,7.0,100.0
8218,50.0,0,30,7.0,100.0
8219,64.0,0,60,5.0,80.0
8220,52.0,60,30,5.0,80.0
8221,52.0,0,90,7.0,100.0
8222,40.0,0,30,7.0,100.0
8223,80.0,30,120,4.0,80.0
8224,71.0,0,120,4.0,80.0
8225,52.0,0,120,6.0,80.0
8226,64.0,0,120,7.0,100.0
8227,80.0,0,120,7.0,100.0
8228,68.0,0,120,7.0,100.0
8229,71.0,0,120,7.0,100.0
8230,54.0,60,30,5.0,80.0
8231,66.0,0,30,7.0,100.0
8232,54.0,0,30,7.0,100.0
8233,42.0,0,30,7.0,100.0
8234,88.0,60,30,4.0,80.0
8235,83.0,0,30,4.0,80.0
8236,56.0,0,30,5.0,80.0
8237,76.0,0,30,7.0,100.0
8238,71.0,0,30,7.0,100.0
8239,68.0,0,30,7.0,100.0
8240,56.0,0,30,7.0,100.0
8241,44.0,0,30,7.0,100.0
8242,84.0,60,30,4.0,80.0
8243,81.0,0,30,4.0,80.0
8244,57.0,0,30,5.0,80.0
8245,72.0,0,30,7.0,100.0
8246,69.0,0,30,7.0,100.0
8247,57.0,0,30,7.0,100.0
8248,45.0,0,30,7.0,100.0
8249,56.0,30,30,5.0,80.0
8250,68.0,0,30,7.0,100.0
8251,56.0,0,30,7.0,100.0
8252,44.0,0,30,7.0,100.0
8253,57.0,30,30,5.0,80.0
8254,69.0,0,30,7.0,100.0
8255,57.0,0,30,7.0,100.0
8256,45.0,0,30,7.0,100.0
8257,59.0,30,30,5.0,80.0
8258,71.0,0,30,7.0,100.0
8259,59.0,0,30,7.0,100.0
8260,47.0,0,30,7.0,100.0
8261,84.0,30,30,4.0,80.0
8262,81.0,0,30,4.0,80.0
8263,60.0,0,30,5.0,80.0
8264,84.0,0,30,7.0,100.0
8265,60.0,0,30,7.0,100.0
8266,48.0,0,30,7.0,100.0
8267,59.0,30,30,5.0,80.0
8268,64.0,0,60,7.0,100.0
8269,72.0,0,60,7.0,100.0
8270,81.0,0,60,7.0,100.0
8271,71.0,0,30,7.0,100.0
8272,59.0,0,30,7.0,100.0
8273,47.0,0,30,7.0,100.0
8274,60.0,30,30,5.0,80.0
8275,72.0,0,30,7.0,100.0
8276,60.0,0,30,7.0,100.0
8277,48.0,0,30,7.0,100.0
8278,62.0,30,30,5.0,80.0
8279,74.0,0,30,7.0,100.0
8280,62.0,0,30,7.0,100.0
8281,50.0,0,30,7.0,100.0
8282,83.0,0,120,4.0,80.0
8283,80.0,0,120,4.0,80.0
8284,64.0,0,120,5.0,80.0
8285,83.0,0,120,7.0,100.0
8286,71.0,0,120,7.0,100.0
8287,80.0,0,120,7.0,100.0
8288,76.0,0,120,7.0,100.0
8289,64.0,0,120,7.0,100.0
8290,52.0,0,120,7.0,100.0
8291,76.0,30,300,3.0,127.0
8292,78.0,300,60,3.0,127.0
8293,80.0,60,60,3.0,127.0
8294,81.0,60,60,3.0,127.0
8295,81.0,60,60,3.0,127.0
8296,80.0,60,60,3.0,127.0
8297,76.0,60,60,3.0,127.0
8298,73.0,60,60,3.0,127.0
8299,68.0,0,240,7.0,100.0
8300,64.0,0,240,7.0,100.0
8301,70.0,60,60,3.0,127.0
8302,71.0,60,60,3.0,127.0
8303,74.0,60,60,3.0,127.0
8304,78.0,60,60,3.0,127.0
8305,66.0,0,240,7.0,100.0
8306,62.0,0,240,7.0,100.0
8307,78.0,60,60,3.0,127.0
8308,76.0,60,60,3.0,127.0
8309,73.0,60,60,3.0,127.0
8310,69.0,60,60,3.0,127.0
8311,64.0,0,240,7.0,100.0
8312,61.0,0,240,7.0,100.0
8313,69.0,60,60,3.0,127.0
8314,68.0,60,60,3.0,127.0
8315,71.0,60,60,3.0,127.0
8316,74.0,60,60,3.0,127.0
8317,68.0,0,120,7.0,100.0
8318,62.0,0,240,7.0,100.0
8319,59.0,0,240,7.0,100.0
8320,73.0,60,30,3.0,127.0
8321,74.0,30,30,3.0,127.0
8322,75.0,30,30,3.0,127.0
8323,76.0,30,30,3.0,127.0
8324,69.0,0,120,7.0,100.0
8325,64.0,0,120,7.0,100.0
8326,74.0,30,30,3.0,127.0
8327,73.0,30,30,3.0,127.0
8328,71.0,30,30,3.0,127.0
8329,69.0,30,30,3.0,127.0
8330,57.0,0,240,7.0,100.0
8331,68.0,30,30,3.0,127.0
8332,69.0,30,30,3.0,127.0
8333,71.0,30,15,3.0,127.0
8334,73.0,30,15,3.0,127.0
8335,62.0,0,120,7.0,100.0
8336,59.0,0,120,7.0,100.0
8337,74.0,30,30,3.0,127.0
8338,76.0,30,30,3.0,127.0
8339,78.0,30,15,3.0,127.0
8340,80.0,30,15,3.0,127.0
8341,81.0,30,60,3.0,127.0
8342,61.0,0,60,7.0,100.0
8343,52.0,0,300,7.0,100.0
8344,64.0,60,60,7.0,100.0
8345,61.0,0,60,7.0,100.0
8346,64.0,0,60,7.0,100.0
8347,61.0,0,60,7.0,100.0
8348,57.0,0,180,7.0,100.0
8349,64.0,60,60,7.0,100.0
8350,61.0,0,60,7.0,100.0
8351,57.0,0,60,7.0,100.0
8352,69.0,60,180,3.0,127.0
8353,71.0,60,30,3.0,127.0
8354,73.0,30,30,3.0,127.0
8355,64.0,0,60,7.0,100.0
8356,61.0,0,60,7.0,100.0
8357,71.0,30,60,3.0,127.0
8358,64.0,0,60,7.0,100.0
8359,61.0,0,60,7.0,100.0
8360,57.0,60,180,7.0,100.0
8361,69.0,60,60,3.0,127.0
8362,64.0,0,60,7.0,100.0
8363,61.0,0,60,7.0,100.0
8364,57.0,0,60,7.0,100.0
8365,68.0,60,40,3.0,127.0
8366,71.0,40,40,3.0,127.0
8367,74.0,40,20,3.0,127.0
8368,64.0,0,120,7.0,100.0
8369,62.0,0,120,7.0,100.0
8370,59.0,0,120,7.0,100.0
8371,71.0,40,20,3.0,127.0
8372,68.0,40,20,3.0,127.0
8373,64.0,40,20,3.0,127.0
8374,62.0,40,120,3.0,127.0
8375,62.0,60,60,7.0,100.0
8376,59.0,0,60,7.0,100.0
8377,61.0,60,60,7.0,100.0
8378,57.0,0,60,7.0,100.0
8379,59.0,60,60,7.0,100.0
8380,56.0,0,60,7.0,100.0
8381,61.0,60,60,7.0,100.0
8382,76.0,60,60,7.0,100.0
8383,73.0,0,60,7.0,100.0
8384,52.0,0,360,7.0,100.0
8385,57.0,0,120,7.0,100.0
8386,76.0,0,60,7.0,100.0
8387,73.0,0,60,7.0,100.0
8388,76.0,60,60,7.0,100.0
8389,73.0,0,60,7.0,100.0
8390,57.0,60,180,3.0,127.0
8391,59.0,60,30,3.0,127.0
8392,61.0,30,30,3.0,127.0
8393,76.0,0,60,7.0,100.0
8394,73.0,0,60,7.0,100.0
8395,69.0,60,120,7.0,100.0
8396,59.0,30,60,3.0,127.0
8397,76.0,0,60,7.0,100.0
8398,73.0,0,60,7.0,100.0
8399,57.0,60,60,3.0,127.0
8400,76.0,0,60,7.0,100.0
8401,73.0,0,60,7.0,100.0
8402,56.0,60,30,3.0,127.0
8403,59.0,30,30,3.0,127.0
8404,62.0,30,30,3.0,127.0
8405,59.0,30,30,3.0,127.0
8406,76.0,0,120,7.0,100.0
8407,74.0,0,120,7.0,100.0
8408,71.0,0,120,7.0,100.0
8409,62.0,30,30,3.0,127.0
8410,59.0,30,30,3.0,127.0
8411,56.0,30,30,3.0,127.0
8412,52.0,30,30,3.0,127.0
8413,50.0,30,120,3.0,127.0
8414,62.0,60,60,7.0,100.0
8415,59.0,0,60,7.0,100.0
8416,61.0,60,60,7.0,100.0
8417,57.0,0,60,7.0,100.0
8418,59.0,60,60,7.0,100.0
8419,56.0,0,60,7.0,100.0
8420,52.0,0,120,7.0,100.0
8421,57.0,60,30,3.0,127.0
8422,56.0,30,30,3.0,127.0
8423,59.0,30,30,3.0,127.0
8424,57.0,30,30,3.0,127.0
8425,61.0,0,120,7.0,100.0
8426,57.0,0,120,7.0,100.0
8427,61.0,30,30,3.0,127.0
8428,59.0,30,30,3.0,127.0
8429,57.0,30,30,3.0,127.0
8430,56.0,30,30,3.0,127.0
8431,64.0,0,60,7.0,100.0
8432,52.0,0,60,7.0,100.0
8433,49.0,0,60,7.0,100.0
8434,54.0,30,30,3.0,127.0
8435,53.0,30,30,3.0,127.0
8436,56.0,30,30,3.0,127.0
8437,54.0,30,30,3.0,127.0
8438,66.0,0,120,7.0,100.0
8439,57.0,0,180,7.0,100.0
8440,50.0,0,120,7.0,100.0
8441,57.0,30,60,3.0,127.0
8442,65.0,60,60,7.0,100.0
8443,49.0,0,60,7.0,100.0
8444,54.0,60,30,3.0,127.0
8445,53.0,30,30,3.0,127.0
8446,56.0,30,30,3.0,127.0
8447,54.0,30,30,3.0,127.0
8448,66.0,0,120,7.0,100.0
8449,57.0,0,180,7.0,100.0
8450,50.0,0,120,7.0,100.0
8451,57.0,30,30,3.0,127.0
8452,56.0,30,30,3.0,127.0
8453,54.0,30,30,3.0,127.0
8454,52.0,30,30,3.0,127.0
8455,61.0,0,60,7.0,100.0
8456,46.0,0,60,7.0,100.0
8457,34.0,0,60,7.0,100.0
8458,50.0,30,30,3.0,127.0
8459,49.0,30,30,3.0,127.0
8460,52.0,30,30,3.0,127.0
8461,50.0,30,30,3.0,127.0
8462,62.0,0,120,7.0,100.0
8463,59.0,0,120,7.0,100.0
8464,54.0,0,180,7.0,100.0
8465,47.0,0,120,7.0,100.0
8466,35.0,0,120,7.0,100.0
8467,54.0,30,60,3.0,127.0
8468,61.0,60,60,7.0,100.0
8469,46.0,0,60,7.0,100.0
8470,34.0,0,60,7.0,100.0
8471,74.0,60,30,3.0,127.0
8472,73.0,30,30,3.0,127.0
8473,76.0,30,30,3.0,127.0
8474,74.0,30,30,3.0,127.0
8475,62.0,0,120,7.0,100.0
8476,59.0,0,120,7.0,100.0
8477,54.0,0,180,7.0,100.0
8478,47.0,0,120,7.0,100.0
8479,35.0,0,120,7.0,100.0
8480,78.0,30,30,3.0,127.0
8481,76.0,30,30,3.0,127.0
8482,74.0,30,30,3.0,127.0
8483,73.0,30,30,3.0,127.0
8484,70.0,0,60,7.0,100.0
8485,64.0,0,60,7.0,100.0
8486,61.0,0,60,7.0,100.0
8487,71.0,30,30,3.0,127.0
8488,70.0,30,30,3.0,127.0
8489,73.0,30,30,3.0,127.0
8490,71.0,30,30,3.0,127.0
8491,71.0,0,120,7.0,100.0
8492,66.0,0,120,7.0,100.0
8493,62.0,0,120,7.0,100.0
8494,74.0,30,30,3.0,127.0
8495,73.0,30,30,3.0,127.0
8496,71.0,30,30,3.0,127.0
8497,69.0,30,30,3.0,127.0
8498,66.0,0,60,7.0,100.0
8499,51.0,0,60,7.0,100.0
8500,68.0,30,30,3.0,127.0
8501,71.0,30,30,3.0,127.0
8502,74.0,30,30,3.0,127.0
8503,71.0,30,30,3.0,127.0
8504,64.0,0,120,7.0,100.0
8505,59.0,0,180,7.0,100.0
8506,52.0,0,120,7.0,100.0
8507,74.0,30,30,3.0,127.0
8508,71.0,30,30,3.0,127.0
8509,68.0,30,30,3.0,127.0
8510,64.0,30,30,3.0,127.0
8511,62.0,30,30,3.0,127.0
8512,59.0,30,30,3.0,127.0
8513,56.0,30,30,3.0,127.0
8514,52.0,30,30,3.0,127.0
8515,50.0,30,30,3.0,127.0
8516,52.0,30,30,3.0,127.0
8517,50.0,30,30,3.0,127.0
8518,52.0,30,30,3.0,127.0
8519,68.0,0,240,7.0,100.0
8520,59.0,0,240,7.0,100.0
8521,49.0,30,60,3.0,127.0
8522,76.0,60,60,3.0,127.0
8523,69.0,0,120,7.0,100.0
8524,61.0,0,120,7.0,100.0
8525,64.0,0,360,7.0,100.0
8526,74.0,60,60,3.0,127.0
8527,73.0,60,60,3.0,127.0
8528,71.0,60,60,3.0,127.0
8529,69.0,60,60,3.0,127.0
8530,68.0,60,60,3.0,127.0
8531,67.0,60,60,3.0,127.0
8532,64.0,0,120,7.0,100.0
8533,49.0,0,120,7.0,100.0
8534,66.0,60,60,3.0,127.0
8535,67.0,60,60,3.0,127.0
8536,66.0,0,120,7.0,100.0
8537,57.0,0,240,7.0,100.0
8538,50.0,0,120,7.0,100.0
8539,68.0,60,60,3.0,127.0
8540,69.0,60,60,3.0,127.0
8541,70.0,60,60,3.0,127.0
8542,71.0,60,60,3.0,127.0
8543,73.0,60,60,3.0,127.0
8544,74.0,60,60,3.0,127.0
8545,66.0,120,120,7.0,100.0
8546,60.0,0,120,7.0,100.0
8547,51.0,0,120,7.0,100.0
8548,69.0,60,360,3.0,127.0
8549,64.0,120,120,7.0,100.0
8550,61.0,0,120,7.0,100.0
8551,73.0,120,60,3.0,127.0
8552,71.0,60,60,3.0,127.0
8553,68.0,0,120,7.0,100.0
8554,62.0,0,120,7.0,100.0
8555,52.0,0,240,7.0,100.0
8556,61.0,0,60,7.0,100.0
8557,69.0,60,120,3.0,127.0
8558,69.0,0,120,7.0,100.0
8559,61.0,60,60,7.0,100.0
8560,45.0,0,120,7.0,100.0
8561,57.0,0,180,7.0,100.0
8562,61.0,120,60,7.0,100.0
8563,57.0,60,60,7.0,100.0
8564,73.0,60,30,3.0,127.0
8565,69.0,0,60,7.0,100.0
8566,61.0,0,60,7.0,100.0
8567,73.0,60,30,3.0,127.0
8568,68.0,0,60,7.0,100.0
8569,57.0,0,60,7.0,100.0
8570,73.0,60,30,3.0,127.0
8571,66.0,0,60,7.0,100.0
8572,61.0,0,60,7.0,100.0
8573,65.0,0,60,7.0,100.0
8574,59.0,0,60,7.0,100.0
8575,68.0,60,60,7.0,100.0
8576,61.0,0,60,7.0,100.0
8577,73.0,60,180,3.0,127.0
8578,59.0,0,60,7.0,100.0
8579,73.0,60,60,3.0,127.0
8580,61.0,0,60,7.0,100.0
8581,74.0,60,60,3.0,127.0
8582,71.0,60,180,7.0,100.0
8583,59.0,0,60,7.0,100.0
8584,75.0,60,60,3.0,127.0
8585,71.0,0,60,7.0,100.0
8586,61.0,0,60,7.0,100.0
8587,76.0,60,60,3.0,127.0
8588,69.0,0,60,7.0,100.0
8589,59.0,0,60,7.0,100.0
8590,77.0,60,60,3.0,127.0
8591,68.0,0,60,7.0,100.0
8592,61.0,0,60,7.0,100.0
8593,77.0,60,60,3.0,127.0
8594,73.0,0,60,7.0,100.0
8595,57.0,0,60,7.0,100.0
8596,78.0,60,60,3.0,127.0
8597,69.0,0,60,7.0,100.0
8598,61.0,0,60,7.0,100.0
8599,57.0,0,60,7.0,100.0
8600,73.0,60,120,3.0,127.0
8601,66.0,0,120,7.0,100.0
8602,61.0,60,60,7.0,100.0
8603,54.0,60,60,3.0,127.0
8604,62.0,0,60,7.0,100.0
8605,57.0,0,60,7.0,100.0
8606,52.0,60,60,3.0,127.0
8607,62.0,0,60,7.0,100.0
8608,57.0,0,60,7.0,100.0
8609,50.0,60,60,3.0,127.0
8610,62.0,0,60,7.0,100.0
8611,57.0,0,60,7.0,100.0
8612,54.0,60,240,7.0,100.0
8613,42.0,0,240,7.0,100.0
8614,50.0,60,60,3.0,127.0
8615,49.0,60,60,3.0,127.0
8616,61.0,0,60,7.0,100.0
8617,56.0,0,60,7.0,100.0
8618,61.0,0,60,7.0,100.0
8619,56.0,0,60,7.0,100.0
8620,61.0,60,60,7.0,100.0
8621,56.0,0,60,7.0,100.0
8622,53.0,0,240,7.0,100.0
8623,41.0,0,240,7.0,100.0
8624,49.0,60,180,3.0,127.0
8625,62.0,60,60,3.0,127.0
8626,68.0,0,60,7.0,100.0
8627,65.0,0,60,7.0,100.0
8628,61.0,60,60,3.0,127.0
8629,68.0,0,60,7.0,100.0
8630,65.0,0,60,7.0,100.0
8631,59.0,60,60,3.0,127.0
8632,68.0,0,60,7.0,100.0
8633,65.0,0,60,7.0,100.0
8634,49.0,60,240,7.0,100.0
8635,37.0,0,240,7.0,100.0
8636,59.0,60,30,3.0,127.0
8637,57.0,30,30,3.0,127.0
8638,66.0,0,60,7.0,100.0
8639,56.0,30,30,3.0,127.0
8640,54.0,30,30,3.0,127.0
8641,69.0,0,120,7.0,100.0
8642,61.0,0,60,7.0,100.0
8643,54.0,0,120,7.0,100.0
8644,42.0,0,120,7.0,100.0
8645,57.0,0,60,7.0,100.0
8646,54.0,30,120,3.0,127.0
8647,61.0,60,60,7.0,100.0
8648,57.0,60,60,7.0,100.0
8649,69.0,60,60,3.0,127.0
8650,73.0,0,60,7.0,100.0
8651,61.0,0,60,7.0,100.0
8652,68.0,60,60,3.0,127.0
8653,73.0,0,60,7.0,100.0
8654,57.0,0,60,7.0,100.0
8655,66.0,60,60,3.0,127.0
8656,73.0,0,60,7.0,100.0
8657,61.0,0,60,7.0,100.0
8658,65.0,60,60,3.0,127.0
8659,59.0,0,60,7.0,100.0
8660,68.0,60,60,3.0,127.0
8661,61.0,0,60,7.0,100.0
8662,73.0,0,180,7.0,100.0
8663,59.0,0,60,7.0,100.0
8664,73.0,60,60,7.0,100.0
8665,61.0,0,60,7.0,100.0
8666,71.0,60,180,3.0,127.0
8667,74.0,60,60,7.0,100.0
8668,59.0,0,60,7.0,100.0
8669,71.0,60,60,3.0,127.0
8670,75.0,0,60,7.0,100.0
8671,61.0,0,60,7.0,100.0
8672,69.0,60,60,3.0,127.0
8673,76.0,0,60,7.0,100.0
8674,59.0,0,60,7.0,100.0
8675,68.0,60,60,3.0,127.0
8676,77.0,0,60,7.0,100.0
8677,61.0,0,60,7.0,100.0
8678,73.0,60,60,3.0,127.0
8679,77.0,0,60,7.0,100.0
8680,57.0,0,60,7.0,100.0
8681,69.0,60,60,3.0,127.0
8682,78.0,0,60,7.0,100.0
8683,61.0,0,60,7.0,100.0
8684,57.0,0,60,7.0,100.0
8685,66.0,60,120,3.0,127.0
8686,73.0,0,120,7.0,100.0
8687,61.0,60,60,7.0,100.0
8688,45.0,0,120,7.0,100.0
8689,68.0,120,60,7.0,100.0
8690,57.0,60,240,3.0,127.0
8691,69.0,60,60,7.0,100.0
8692,61.0,0,240,7.0,100.0
8693,69.0,0,60,7.0,100.0
8694,68.0,60,60,7.0,100.0
8695,47.0,0,120,7.0,100.0
8696,59.0,60,240,3.0,127.0
8697,66.0,0,480,7.0,100.0
8698,62.0,0,240,7.0,100.0
8699,61.0,120,15,3.0,127.0
8700,62.0,15,15,3.0,127.0
8701,61.0,15,15,3.0,127.0
8702,62.0,15,15,3.0,127.0
8703,68.0,60,180,7.0,100.0
8704,61.0,15,15,3.0,127.0
8705,62.0,15,15,3.0,127.0
8706,61.0,15,15,3.0,127.0
8707,62.0,15,15,3.0,127.0
8708,74.0,0,60,7.0,100.0
8709,49.0,0,120,7.0,100.0
8710,61.0,15,15,3.0,127.0
8711,62.0,15,15,3.0,127.0
8712,61.0,15,15,3.0,127.0
8713,62.0,15,15,3.0,127.0
8714,73.0,0,60,7.0,100.0
8715,59.0,15,30,3.0,127.0
8716,61.0,30,30,3.0,127.0
8717,71.0,0,60,7.0,100.0
8718,65.0,0,240,7.0,100.0
8719,56.0,0,240,7.0,100.0
8720,71.0,0,30,7.0,100.0
8721,69.0,30,30,7.0,100.0
8722,66.0,0,60,7.0,100.0
8723,54.0,0,60,7.0,100.0
8724,68.0,30,30,7.0,100.0
8725,66.0,30,120,3.0,127.0
8726,66.0,30,30,7.0,100.0
8727,61.0,0,60,7.0,100.0
8728,42.0,0,120,7.0,100.0
8729,57.0,0,120,7.0,100.0
8730,66.0,30,120,7.0,100.0
8731,61.0,60,60,7.0,100.0
8732,66.0,40,20,3.0,127.0
8733,68.0,40,20,3.0,127.0
8734,57.0,0,180,7.0,100.0
8735,54.0,0,240,7.0,100.0
8736,42.0,60,120,7.0,100.0
8737,69.0,40,20,3.0,127.0
8738,71.0,40,20,3.0,127.0
8739,73.0,40,20,3.0,127.0
8740,74.0,40,180,3.0,127.0
8741,71.0,180,60,3.0,127.0
8742,69.0,0,240,7.0,100.0
8743,53.0,0,240,7.0,100.0
8744,41.0,0,240,7.0,100.0
8745,68.0,60,20,3.0,127.0
8746,69.0,40,20,3.0,127.0
8747,70.0,40,20,3.0,127.0
8748,68.0,0,120,7.0,100.0
8749,62.0,0,360,7.0,100.0
8750,59.0,0,360,7.0,100.0
8751,52.0,0,120,7.0,100.0
8752,40.0,0,120,7.0,100.0
8753,71.0,40,20,3.0,127.0
8754,72.0,40,20,3.0,127.0
8755,73.0,40,20,3.0,127.0
8756,74.0,40,180,3.0,127.0
8757,71.0,180,60,3.0,127.0
8758,69.0,0,240,7.0,100.0
8759,53.0,0,240,7.0,100.0
8760,41.0,0,240,7.0,100.0
8761,68.0,60,30,3.0,127.0
8762,66.0,30,30,3.0,127.0
8763,64.0,30,15,3.0,127.0
8764,66.0,30,15,3.0,127.0
8765,68.0,0,120,7.0,100.0
8766,62.0,0,360,7.0,100.0
8767,59.0,0,360,7.0,100.0
8768,52.0,0,120,7.0,100.0
8769,40.0,0,120,7.0,100.0
8770,68.0,30,30,3.0,127.0
8771,69.0,30,30,3.0,127.0
8772,71.0,30,15,3.0,127.0
8773,73.0,30,15,3.0,127.0
8774,74.0,30,30,3.0,127.0
8775,71.0,30,30,3.0,127.0
8776,68.0,0,60,7.0,100.0
8777,59.0,0,60,7.0,100.0
8778,62.0,0,60,7.0,100.0
8779,64.0,0,60,7.0,100.0
8780,68.0,30,15,3.0,127.0
8781,64.0,30,15,3.0,127.0
8782,62.0,30,15,3.0,127.0
8783,52.0,0,30,7.0,100.0
8784,59.0,30,15,3.0,127.0
8785,68.0,0,120,7.0,100.0
8786,59.0,0,120,7.0,100.0
8787,62.0,0,120,7.0,100.0
8788,64.0,0,120,7.0,100.0
8789,56.0,30,15,3.0,127.0
8790,52.0,30,15,3.0,127.0
8791,50.0,30,30,3.0,127.0
8792,47.0,0,30,7.0,100.0
8793,52.0,30,30,3.0,127.0
8794,68.0,0,120,7.0,100.0
8795,59.0,0,120,7.0,100.0
8796,62.0,0,120,7.0,100.0
8797,64.0,0,120,7.0,100.0
8798,56.0,30,15,3.0,127.0
8799,59.0,30,15,3.0,127.0
8800,62.0,30,15,3.0,127.0
8801,56.0,0,30,7.0,100.0
8802,44.0,0,30,7.0,100.0
8803,64.0,30,15,3.0,127.0
8804,68.0,0,120,7.0,100.0
8805,59.0,0,120,7.0,100.0
8806,62.0,0,120,7.0,100.0
8807,64.0,0,120,7.0,100.0
8808,68.0,30,15,3.0,127.0
8809,71.0,30,15,3.0,127.0
8810,68.0,0,60,7.0,100.0
8811,59.0,0,60,7.0,100.0
8812,62.0,0,60,7.0,100.0
8813,64.0,0,60,7.0,100.0
8814,68.0,0,120,7.0,100.0
8815,59.0,0,120,7.0,100.0
8816,62.0,0,120,7.0,100.0
8817,64.0,0,120,7.0,100.0
8818,52.0,0,120,7.0,100.0
8819,40.0,0,120,7.0,100.0
8820,74.0,30,180,3.0,127.0
8821,71.0,180,60,3.0,127.0
8822,68.0,60,480,3.0,127.0
8823,76.0,720,240,3.0,127.0
8824,73.0,240,180,3.0,127.0
8825,74.0,180,60,3.0,127.0
8826,64.0,0,240,7.0,100.0
8827,78.0,60,60,3.0,127.0
8828,76.0,60,60,3.0,127.0
8829,74.0,60,60,3.0,127.0
8830,61.0,0,180,7.0,100.0
8831,73.0,60,60,3.0,127.0
8832,81.0,0,240,7.0,100.0
8833,62.0,0,60,7.0,100.0
8834,66.0,0,60,7.0,100.0
8835,64.0,60,60,7.0,100.0
8836,62.0,60,30,7.0,100.0
8837,71.0,60,180,3.0,127.0
8838,80.0,0,180,7.0,100.0
8839,61.0,0,30,7.0,100.0
8840,73.0,60,60,3.0,127.0
8841,81.0,0,60,7.0,100.0
8842,76.0,60,60,3.0,127.0
8843,85.0,0,60,7.0,100.0
8844,74.0,60,60,3.0,127.0
8845,83.0,0,60,7.0,100.0
8846,81.0,0,30,7.0,100.0
8847,73.0,60,60,3.0,127.0
8848,59.0,0,180,7.0,100.0
8849,80.0,0,30,7.0,100.0
8850,71.0,60,60,3.0,127.0
8851,61.0,0,60,7.0,100.0
8852,64.0,0,60,7.0,100.0
8853,62.0,60,60,7.0,100.0
8854,61.0,60,30,7.0,100.0
8855,69.0,60,180,3.0,127.0
8856,78.0,0,180,7.0,100.0
8857,59.0,0,30,7.0,100.0
8858,71.0,60,60,3.0,127.0
8859,80.0,0,60,7.0,100.0
8860,73.0,60,60,3.0,127.0
8861,81.0,0,60,7.0,100.0
8862,75.0,60,30,3.0,127.0
8863,83.0,0,30,7.0,100.0
8864,76.0,30,30,3.0,127.0
8865,85.0,0,30,7.0,100.0
8866,75.0,30,30,3.0,127.0
8867,83.0,0,30,7.0,100.0
8868,73.0,30,30,3.0,127.0
8869,81.0,0,30,7.0,100.0
8870,71.0,30,30,3.0,127.0
8871,80.0,0,30,7.0,100.0
8872,69.0,30,30,3.0,127.0
8873,78.0,0,30,7.0,100.0
8874,57.0,0,240,7.0,100.0
8875,68.0,30,60,3.0,127.0
8876,78.0,0,60,7.0,100.0
8877,59.0,0,60,7.0,100.0
8878,76.0,60,60,7.0,100.0
8879,66.0,60,60,3.0,127.0
8880,76.0,0,60,7.0,100.0
8881,57.0,0,60,7.0,100.0
8882,75.0,60,60,7.0,100.0
8883,64.0,60,60,3.0,127.0
8884,76.0,0,60,7.0,100.0
8885,56.0,0,60,7.0,100.0
8886,78.0,60,60,7.0,100.0
8887,68.0,60,60,3.0,127.0
8888,64.0,0,60,7.0,100.0
8889,74.0,0,120,7.0,100.0
8890,71.0,180,60,3.0,127.0
8891,68.0,0,60,7.0,100.0
8892,73.0,60,60,3.0,127.0
8893,69.0,0,60,7.0,100.0
8894,74.0,60,60,3.0,127.0
8895,71.0,0,60,7.0,100.0
8896,62.0,0,120,7.0,100.0
8897,76.0,60,60,3.0,127.0
8898,80.0,60,30,3.0,127.0
8899,78.0,30,30,3.0,127.0
8900,69.0,0,120,7.0,100.0
8901,64.0,0,240,7.0,100.0
8902,61.0,0,120,7.0,100.0
8903,76.0,30,30,3.0,127.0
8904,68.0,0,30,7.0,100.0
8905,74.0,30,30,3.0,127.0
8906,66.0,0,30,7.0,100.0
8907,59.0,0,60,7.0,100.0
8908,62.0,0,60,7.0,100.0
8909,50.0,0,60,7.0,100.0
8910,73.0,30,30,3.0,127.0
8911,64.0,0,30,7.0,100.0
8912,71.0,30,30,3.0,127.0
8913,62.0,0,30,7.0,100.0
8914,66.0,0,60,7.0,100.0
8915,71.0,30,60,3.0,127.0
8916,62.0,0,60,7.0,100.0
8917,52.0,0,60,7.0,100.0
8918,69.0,60,60,3.0,127.0
8919,61.0,0,60,7.0,100.0
8920,64.0,0,120,7.0,100.0
8921,69.0,60,60,3.0,127.0
8922,61.0,0,60,7.0,100.0
8923,52.0,0,60,7.0,100.0
8924,40.0,0,60,7.0,100.0
8925,68.0,60,60,3.0,127.0
8926,59.0,0,60,7.0,100.0
8927,62.0,0,120,7.0,100.0
8928,64.0,30,30,7.0,100.0
8929,57.0,0,60,7.0,100.0
8930,45.0,0,60,7.0,100.0
8931,64.0,0,15,7.0,100.0
8932,64.0,30,15,7.0,100.0
8933,69.0,60,120,3.0,127.0
8934,81.0,30,60,7.0,100.0
8935,61.0,0,120,7.0,100.0
8936,62.0,0,30,7.0,100.0
8937,80.0,30,60,7.0,100.0
8938,64.0,30,30,7.0,100.0
8939,59.0,0,60,7.0,100.0
8940,47.0,0,60,7.0,100.0
8941,64.0,0,15,7.0,100.0
8942,64.0,30,15,7.0,100.0
8943,74.0,30,60,7.0,100.0
8944,61.0,0,30,7.0,100.0
8945,73.0,30,60,7.0,100.0
8946,64.0,30,30,7.0,100.0
8947,57.0,0,60,7.0,100.0
8948,45.0,0,60,7.0,100.0
8949,85.0,30,10,7.0,100.0
8950,64.0,0,15,7.0,100.0
8951,86.0,10,10,7.0,100.0
8952,85.0,10,10,7.0,100.0
8953,83.0,10,15,7.0,100.0
8954,64.0,0,15,7.0,100.0
8955,85.0,15,15,7.0,100.0
8956,69.0,0,60,7.0,100.0
8957,59.0,0,30,7.0,100.0
8958,86.0,15,60,7.0,100.0
8959,68.0,0,60,7.0,100.0
8960,64.0,30,30,7.0,100.0
8961,52.0,0,60,7.0,100.0
8962,40.0,0,60,7.0,100.0
8963,64.0,0,15,7.0,100.0
8964,64.0,30,15,7.0,100.0
8965,62.0,30,60,7.0,100.0
8966,61.0,30,60,7.0,100.0
8967,64.0,30,30,7.0,100.0
8968,57.0,0,60,7.0,100.0
8969,45.0,0,60,7.0,100.0
8970,73.0,0,10,7.0,100.0
8971,64.0,0,15,7.0,100.0
8972,74.0,10,10,7.0,100.0
8973,73.0,10,10,7.0,100.0
8974,71.0,10,15,7.0,100.0
8975,64.0,0,15,7.0,100.0
8976,81.0,30,60,7.0,100.0
8977,73.0,15,15,7.0,100.0
8978,80.0,15,60,7.0,100.0
8979,64.0,30,30,7.0,100.0
8980,59.0,0,60,7.0,100.0
8981,47.0,0,60,7.0,100.0
8982,64.0,30,15,7.0,100.0
8983,64.0,30,15,7.0,100.0
8984,74.0,0,120,7.0,100.0
8985,61.0,0,30,7.0,100.0
8986,73.0,30,60,7.0,100.0
8987,64.0,30,30,7.0,100.0
8988,57.0,0,60,7.0,100.0
8989,45.0,0,60,7.0,100.0
8990,85.0,30,10,7.0,100.0
8991,64.0,0,15,7.0,100.0
8992,86.0,10,10,7.0,100.0
8993,85.0,10,10,7.0,100.0
8994,83.0,10,15,7.0,100.0
8995,64.0,0,15,7.0,100.0
8996,85.0,15,15,7.0,100.0
8997,69.0,0,60,7.0,100.0
8998,59.0,0,30,7.0,100.0
8999,86.0,15,60,7.0,100.0
9000,68.0,0,60,7.0,100.0
9001,64.0,30,30,7.0,100.0
9002,52.0,0,60,7.0,100.0
9003,40.0,0,60,7.0,100.0
9004,64.0,0,15,7.0,100.0
9005,64.0,30,15,7.0,100.0
9006,62.0,30,60,7.0,100.0
9007,57.0,30,30,3.0,127.0
9008,64.0,30,30,3.0,127.0
9009,61.0,0,60,7.0,100.0
9010,57.0,0,60,7.0,100.0
9011,73.0,0,10,7.0,100.0
9012,74.0,10,10,7.0,100.0
9013,61.0,30,30,3.0,127.0
9014,73.0,10,10,7.0,100.0
9015,71.0,0,15,7.0,100.0
9016,64.0,10,30,3.0,127.0
9017,81.0,0,60,7.0,100.0
9018,73.0,15,15,7.0,100.0
9019,59.0,15,30,3.0,127.0
9020,64.0,30,30,3.0,127.0
9021,80.0,0,60,7.0,100.0
9022,59.0,0,60,7.0,100.0
9023,62.0,30,30,3.0,127.0
9024,64.0,30,30,3.0,127.0
9025,74.0,0,120,7.0,100.0
9026,57.0,30,30,3.0,127.0
9027,64.0,30,30,3.0,127.0
9028,73.0,0,60,7.0,100.0
9029,57.0,0,60,7.0,100.0
9030,85.0,0,10,7.0,100.0
9031,86.0,10,10,7.0,100.0
9032,61.0,30,30,3.0,127.0
9033,85.0,10,10,7.0,100.0
9034,83.0,0,15,7.0,100.0
9035,64.0,10,30,3.0,127.0
9036,85.0,15,15,7.0,100.0
9037,69.0,0,60,7.0,100.0
9038,56.0,15,30,3.0,127.0
9039,64.0,30,30,3.0,127.0
9040,86.0,0,60,7.0,100.0
9041,68.0,0,60,7.0,100.0
9042,52.0,0,60,7.0,100.0
9043,80.0,0,10,7.0,100.0
9044,81.0,10,10,7.0,100.0
9045,59.0,30,30,3.0,127.0
9046,80.0,10,10,7.0,100.0
9047,78.0,0,15,7.0,100.0
9048,64.0,10,30,3.0,127.0
9049,80.0,15,15,7.0,100.0
9050,57.0,15,30,3.0,127.0
9051,64.0,30,30,3.0,127.0
9052,81.0,0,60,7.0,100.0
9053,57.0,0,60,7.0,100.0
9054,85.0,0,10,7.0,100.0
9055,86.0,10,10,7.0,100.0
9056,61.0,30,30,3.0,127.0
9057,85.0,10,10,7.0,100.0
9058,83.0,0,15,7.0,100.0
9059,64.0,10,30,3.0,127.0
9060,85.0,15,15,7.0,100.0
9061,56.0,15,30,3.0,127.0
9062,64.0,30,30,3.0,127.0
9063,86.0,0,60,7.0,100.0
9064,52.0,0,60,7.0,100.0
9065,68.0,0,10,7.0,100.0
9066,69.0,10,10,7.0,100.0
9067,59.0,30,30,3.0,127.0
9068,68.0,10,10,7.0,100.0
9069,66.0,0,15,7.0,100.0
9070,64.0,10,30,3.0,127.0
9071,68.0,15,15,7.0,100.0
9072,57.0,15,30,3.0,127.0
9073,64.0,30,30,3.0,127.0
9074,69.0,0,60,7.0,100.0
9075,57.0,0,60,7.0,100.0
9076,73.0,0,10,7.0,100.0
9077,74.0,10,10,7.0,100.0
9078,61.0,30,30,3.0,127.0
9079,73.0,10,10,7.0,100.0
9080,71.0,0,15,7.0,100.0
9081,64.0,10,30,3.0,127.0
9082,73.0,15,15,7.0,100.0
9083,56.0,15,30,3.0,127.0
9084,64.0,30,30,3.0,127.0
9085,74.0,0,60,7.0,100.0
9086,52.0,0,60,7.0,100.0
9087,80.0,0,10,7.0,100.0
9088,71.0,0,10,7.0,100.0
9089,81.0,10,10,7.0,100.0
9090,73.0,0,10,7.0,100.0
9091,59.0,30,30,3.0,127.0
9092,80.0,10,10,7.0,100.0
9093,71.0,0,10,7.0,100.0
9094,78.0,0,15,7.0,100.0
9095,69.0,0,15,7.0,100.0
9096,64.0,10,30,3.0,127.0
9097,76.0,0,960,4.0,80.0
9098,64.0,0,960,5.0,80.0
9099,80.0,15,15,7.0,100.0
9100,71.0,0,15,7.0,100.0
9101,45.0,15,30,3.0,127.0
9102,49.0,30,30,3.0,127.0
9103,81.0,0,60,7.0,100.0
9104,52.0,30,30,3.0,127.0
9105,57.0,30,30,3.0,127.0
9106,76.0,0,60,7.0,100.0
9107,73.0,0,120,7.0,100.0
9108,57.0,0,120,7.0,100.0
9109,45.0,0,120,7.0,100.0
9110,61.0,30,30,3.0,127.0
9111,76.0,0,30,7.0,100.0
9112,73.0,0,30,7.0,100.0
9113,64.0,30,30,3.0,127.0
9114,64.0,0,60,7.0,100.0
9115,69.0,30,30,3.0,127.0
9116,76.0,0,30,7.0,100.0
9117,73.0,0,30,7.0,100.0
9118,73.0,30,30,3.0,127.0
9119,76.0,30,30,3.0,127.0
9120,81.0,30,30,3.0,127.0
9121,61.0,0,60,7.0,100.0
9122,76.0,30,30,3.0,127.0
9123,73.0,30,30,3.0,127.0
9124,69.0,30,30,3.0,127.0
9125,64.0,30,30,3.0,127.0
9126,76.0,0,180,7.0,100.0
9127,73.0,0,180,7.0,100.0
9128,57.0,0,60,7.0,100.0
9129,61.0,30,30,3.0,127.0
9130,57.0,30,30,3.0,127.0
9131,81.0,0,60,7.0,100.0
9132,76.0,0,60,7.0,100.0
9133,50.0,30,30,3.0,127.0
9134,54.0,30,30,3.0,127.0
9135,81.0,0,60,7.0,100.0
9136,57.0,30,30,3.0,127.0
9137,62.0,30,30,3.0,127.0
9138,78.0,0,120,7.0,100.0
9139,74.0,0,60,7.0,100.0
9140,50.0,0,120,7.0,100.0
9141,38.0,0,120,7.0,100.0
9142,66.0,30,30,3.0,127.0
9143,78.0,0,30,7.0,100.0
9144,74.0,0,30,7.0,100.0
9145,69.0,30,30,3.0,127.0
9146,57.0,0,60,7.0,100.0
9147,74.0,30,30,3.0,127.0
9148,78.0,0,30,7.0,100.0
9149,74.0,0,30,7.0,100.0
9150,78.0,30,30,3.0,127.0
9151,81.0,30,30,3.0,127.0
9152,78.0,30,30,3.0,127.0
9153,56.0,0,60,7.0,100.0
9154,74.0,30,30,3.0,127.0
9155,69.0,30,30,3.0,127.0
9156,66.0,30,30,3.0,127.0
9157,62.0,30,30,3.0,127.0
9158,78.0,0,180,7.0,100.0
9159,74.0,0,180,7.0,100.0
9160,54.0,0,60,7.0,100.0
9161,57.0,30,30,3.0,127.0
9162,54.0,30,30,3.0,127.0
9163,81.0,0,60,7.0,100.0
9164,78.0,0,60,7.0,100.0
9165,52.0,30,30,3.0,127.0
9166,57.0,30,30,3.0,127.0
9167,81.0,0,60,7.0,100.0
9168,61.0,30,30,3.0,127.0
9169,64.0,30,30,3.0,127.0
9170,76.0,0,60,7.0,100.0
9171,57.0,0,60,7.0,100.0
9172,52.0,0,120,7.0,100.0
9173,40.0,0,120,7.0,100.0
9174,69.0,30,30,3.0,127.0
9175,64.0,30,30,3.0,127.0
9176,73.0,0,180,7.0,100.0
9177,69.0,0,60,7.0,100.0
9178,61.0,0,60,7.0,100.0
9179,61.0,30,30,3.0,127.0
9180,57.0,30,30,3.0,127.0
9181,76.0,0,60,7.0,100.0
9182,73.0,0,60,7.0,100.0
9183,57.0,0,60,7.0,100.0
9184,76.0,0,60,7.0,100.0
9185,73.0,0,60,7.0,100.0
9186,64.0,0,60,7.0,100.0
9187,52.0,30,120,3.0,127.0
9188,74.0,60,60,7.0,100.0
9189,71.0,0,60,7.0,100.0
9190,40.0,0,120,7.0,100.0
9191,73.0,60,60,7.0,100.0
9192,69.0,0,60,7.0,100.0
9193,52.0,0,180,7.0,100.0
9194,71.0,60,60,7.0,100.0
9195,68.0,0,60,7.0,100.0
9196,57.0,60,60,3.0,127.0
9197,59.0,60,15,3.0,127.0
9198,61.0,30,15,3.0,127.0
9199,69.0,0,120,7.0,100.0
9200,57.0,0,120,7.0,100.0
9201,45.0,0,120,7.0,100.0
9202,33.0,0,120,7.0,100.0
9203,62.0,30,15,3.0,127.0
9204,64.0,30,15,3.0,127.0
9205,66.0,30,15,3.0,127.0
9206,68.0,30,15,3.0,127.0
9207,69.0,30,30,3.0,127.0
9208,71.0,30,30,3.0,127.0
9209,73.0,30,15,3.0,127.0
9210,74.0,30,15,3.0,127.0
9211,76.0,30,15,3.0,127.0
9212,78.0,30,15,3.0,127.0
9213,80.0,30,15,3.0,127.0
9214,81.0,30,15,3.0,127.0
9215,81.0,30,30,3.0,127.0
9216,79.0,30,30,3.0,127.0
9217,76.0,30,30,3.0,127.0
9218,73.0,30,30,3.0,127.0
9219,69.0,30,30,3.0,127.0
9220,67.0,30,30,3.0,127.0
9221,64.0,30,30,3.0,127.0
9222,61.0,30,30,3.0,127.0
9223,57.0,30,30,3.0,127.0
9224,61.0,30,30,3.0,127.0
9225,64.0,30,30,3.0,127.0
9226,67.0,30,30,3.0,127.0
9227,69.0,30,30,3.0,127.0
9228,73.0,30,30,3.0,127.0
9229,76.0,30,30,3.0,127.0
9230,79.0,30,30,3.0,127.0
9231,67.0,0,480,7.0,100.0
9232,64.0,0,480,7.0,100.0
9233,49.0,0,480,7.0,100.0
9234,37.0,0,480,7.0,100.0
9235,78.0,30,30,3.0,127.0
9236,81.0,30,30,3.0,127.0
9237,57.0,0,540,7.0,100.0
9238,50.0,0,60,7.0,100.0
9239,38.0,0,60,7.0,100.0
9240,78.0,30,30,3.0,127.0
9241,69.0,0,30,7.0,100.0
9242,74.0,30,30,3.0,127.0
9243,66.0,0,120,7.0,100.0
9244,62.0,0,120,7.0,100.0
9245,73.0,30,30,3.0,127.0
9246,76.0,30,30,3.0,127.0
9247,57.0,0,60,7.0,100.0
9248,45.0,0,60,7.0,100.0
9249,79.0,0,10,7.0,100.0
9250,76.0,0,10,7.0,100.0
9251,81.0,10,10,7.0,100.0
9252,78.0,0,10,7.0,100.0
9253,73.0,30,30,3.0,127.0
9254,79.0,10,10,7.0,100.0
9255,76.0,0,10,7.0,100.0
9256,78.0,0,15,7.0,100.0
9257,74.0,0,15,7.0,100.0
9258,69.0,10,30,3.0,127.0
9259,79.0,15,15,7.0,100.0
9260,76.0,0,15,7.0,100.0
9261,78.0,15,30,3.0,127.0
9262,78.0,0,30,7.0,100.0
9263,74.0,0,30,7.0,100.0
9264,81.0,30,30,3.0,127.0
9265,62.0,0,60,7.0,100.0
9266,50.0,0,60,7.0,100.0
9267,78.0,30,30,3.0,127.0
9268,78.0,0,30,7.0,100.0
9269,74.0,0,30,7.0,100.0
9270,74.0,30,30,3.0,127.0
9271,73.0,30,30,3.0,127.0
9272,79.0,0,30,7.0,100.0
9273,76.0,0,30,7.0,100.0
9274,76.0,30,30,3.0,127.0
9275,57.0,0,60,7.0,100.0
9276,45.0,0,60,7.0,100.0
9277,73.0,30,30,3.0,127.0
9278,79.0,0,30,7.0,100.0
9279,76.0,0,30,7.0,100.0
9280,69.0,30,30,3.0,127.0
9281,66.0,30,30,3.0,127.0
9282,69.0,30,30,3.0,127.0
9283,69.0,0,420,7.0,100.0
9284,62.0,0,60,7.0,100.0
9285,50.0,0,60,7.0,100.0
9286,66.0,30,30,3.0,127.0
9287,57.0,0,30,7.0,100.0
9288,62.0,30,30,3.0,127.0
9289,78.0,0,120,7.0,100.0
9290,74.0,0,120,7.0,100.0
9291,61.0,30,30,3.0,127.0
9292,64.0,30,30,3.0,127.0
9293,45.0,0,60,7.0,100.0
9294,67.0,0,10,7.0,100.0
9295,64.0,0,10,7.0,100.0
9296,69.0,10,10,7.0,100.0
9297,66.0,0,10,7.0,100.0
9298,61.0,30,30,3.0,127.0
9299,79.0,0,30,4.0,80.0
9300,76.0,0,30,4.0,80.0
9301,67.0,10,10,7.0,100.0
9302,64.0,0,10,7.0,100.0
9303,66.0,0,15,7.0,100.0
9304,62.0,0,15,7.0,100.0
9305,57.0,10,30,3.0,127.0
9306,67.0,15,15,7.0,100.0
9307,64.0,0,15,7.0,100.0
9308,66.0,15,30,3.0,127.0
9309,78.0,0,30,4.0,80.0
9310,74.0,0,30,4.0,80.0
9311,66.0,0,30,7.0,100.0
9312,62.0,0,30,7.0,100.0
9313,69.0,30,30,3.0,127.0
9314,50.0,0,60,7.0,100.0
9315,38.0,0,60,7.0,100.0
9316,66.0,30,30,3.0,127.0
9317,78.0,0,30,4.0,80.0
9318,74.0,0,30,4.0,80.0
9319,66.0,0,30,7.0,100.0
9320,62.0,0,30,7.0,100.0
9321,62.0,30,30,3.0,127.0
9322,61.0,30,30,3.0,127.0
9323,79.0,0,30,4.0,80.0
9324,76.0,0,30,4.0,80.0
9325,67.0,0,30,7.0,100.0
9326,64.0,0,30,7.0,100.0
9327,64.0,30,30,3.0,127.0
9328,45.0,0,60,7.0,100.0
9329,61.0,30,30,3.0,127.0
9330,79.0,0,30,4.0,80.0
9331,76.0,0,30,4.0,80.0
9332,67.0,0,30,7.0,100.0
9333,64.0,0,30,7.0,100.0
9334,57.0,30,30,3.0,127.0
9335,57.0,0,360,7.0,100.0
9336,54.0,30,30,3.0,127.0
9337,62.0,0,30,7.0,100.0
9338,57.0,30,30,3.0,127.0
9339,50.0,0,60,7.0,100.0
9340,38.0,0,60,7.0,100.0
9341,54.0,30,30,3.0,127.0
9342,50.0,30,30,3.0,127.0
9343,78.0,0,120,4.0,80.0
9344,74.0,0,120,4.0,80.0
9345,66.0,0,120,7.0,100.0
9346,49.0,30,30,3.0,127.0
9347,52.0,30,30,3.0,127.0
9348,45.0,0,60,7.0,100.0
9349,33.0,0,60,7.0,100.0
9350,55.0,0,8,7.0,100.0
9351,64.0,0,10,7.0,100.0
9352,66.0,10,10,7.0,100.0
9353,55.0,5,8,7.0,100.0
9354,49.0,30,30,3.0,127.0
9355,68.0,0,30,4.0,80.0
9356,64.0,0,30,4.0,80.0
9357,64.0,5,10,7.0,100.0
9358,62.0,0,15,7.0,100.0
9359,54.0,0,15,7.0,100.0
9360,45.0,10,30,3.0,127.0
9361,55.0,0,60,5.0,80.0
9362,52.0,0,60,5.0,80.0
9363,64.0,15,15,7.0,100.0
9364,55.0,0,15,7.0,100.0
9365,54.0,15,30,3.0,127.0
9366,66.0,0,30,4.0,80.0
9367,62.0,0,30,4.0,80.0
9368,54.0,0,30,5.0,80.0
9369,50.0,0,30,5.0,80.0
9370,62.0,0,30,7.0,100.0
9371,54.0,0,30,7.0,100.0
9372,57.0,30,30,3.0,127.0
9373,50.0,0,60,7.0,100.0
9374,38.0,0,60,7.0,100.0
9375,54.0,30,30,3.0,127.0
9376,66.0,0,30,4.0,80.0
9377,62.0,0,30,4.0,80.0
9378,54.0,0,30,5.0,80.0
9379,50.0,0,30,5.0,80.0
9380,62.0,0,30,7.0,100.0
9381,54.0,0,30,7.0,100.0
9382,50.0,30,30,3.0,127.0
9383,49.0,30,30,3.0,127.0
9384,67.0,0,30,4.0,80.0
9385,64.0,0,30,4.0,80.0
9386,55.0,0,30,5.0,80.0
9387,52.0,0,30,5.0,80.0
9388,64.0,0,30,7.0,100.0
9389,55.0,0,30,7.0,100.0
9390,52.0,30,30,3.0,127.0
9391,45.0,0,60,7.0,100.0
9392,33.0,0,60,7.0,100.0
9393,49.0,30,30,3.0,127.0
9394,67.0,0,30,4.0,80.0
9395,64.0,0,30,4.0,80.0
9396,55.0,0,30,5.0,80.0
9397,52.0,0,30,5.0,80.0
9398,64.0,0,30,7.0,100.0
9399,55.0,0,30,7.0,100.0
9400,45.0,30,30,3.0,127.0
9401,50.0,30,60,3.0,127.0
9402,54.0,60,15,3.0,127.0
9403,57.0,30,15,3.0,127.0
9404,66.0,0,120,4.0,80.0
9405,62.0,0,120,4.0,80.0
9406,54.0,0,120,5.0,80.0
9407,50.0,0,120,5.0,80.0
9408,62.0,0,120,7.0,100.0
9409,57.0,0,600,7.0,100.0
9410,54.0,0,120,7.0,100.0
9411,50.0,0,120,7.0,100.0
9412,38.0,0,120,7.0,100.0
9413,62.0,30,15,3.0,127.0
9414,66.0,30,15,3.0,127.0
9415,69.0,30,15,3.0,127.0
9416,74.0,30,15,3.0,127.0
9417,78.0,30,120,3.0,127.0
9418,66.0,60,60,7.0,100.0
9419,57.0,0,60,7.0,100.0
9420,62.0,0,60,7.0,100.0
9421,50.0,0,60,7.0,100.0
9422,38.0,0,60,7.0,100.0
9423,66.0,60,60,7.0,100.0
9424,57.0,0,60,7.0,100.0
9425,62.0,0,60,7.0,100.0
9426,50.0,0,60,7.0,100.0
9427,38.0,0,60,7.0,100.0
9428,66.0,60,60,7.0,100.0
9429,57.0,0,60,7.0,100.0
9430,62.0,0,60,7.0,100.0
9431,50.0,0,60,7.0,100.0
9432,38.0,0,60,7.0,100.0
9433,52.0,60,60,3.0,127.0
9434,56.0,60,15,3.0,127.0
9435,59.0,30,15,3.0,127.0
9436,68.0,0,120,7.0,100.0
9437,59.0,0,120,7.0,100.0
9438,64.0,0,120,7.0,100.0
9439,50.0,0,120,7.0,100.0
9440,38.0,0,120,7.0,100.0
9441,64.0,30,15,3.0,127.0
9442,68.0,30,15,3.0,127.0
9443,71.0,30,15,3.0,127.0
9444,76.0,30,15,3.0,127.0
9445,80.0,30,120,3.0,127.0
9446,68.0,60,60,7.0,100.0
9447,59.0,0,60,7.0,100.0
9448,64.0,0,60,7.0,100.0
9449,50.0,0,60,7.0,100.0
9450,38.0,0,60,7.0,100.0
9451,68.0,60,60,7.0,100.0
9452,59.0,0,60,7.0,100.0
9453,64.0,0,60,7.0,100.0
9454,50.0,0,60,7.0,100.0
9455,38.0,0,60,7.0,100.0
9456,68.0,60,60,7.0,100.0
9457,59.0,0,60,7.0,100.0
9458,64.0,0,60,7.0,100.0
9459,50.0,0,60,7.0,100.0
9460,38.0,0,60,7.0,100.0
9461,54.0,60,30,3.0,127.0
9462,57.0,30,30,3.0,127.0
9463,63.0,30,15,3.0,127.0
9464,66.0,30,15,3.0,127.0
9465,69.0,0,120,7.0,100.0
9466,60.0,0,120,7.0,100.0
9467,66.0,0,120,7.0,100.0
9468,51.0,0,120,7.0,100.0
9469,39.0,0,120,7.0,100.0
9470,69.0,30,15,3.0,127.0
9471,72.0,30,15,3.0,127.0
9472,75.0,30,15,3.0,127.0
9473,78.0,30,15,3.0,127.0
9474,81.0,30,120,3.0,127.0
9475,69.0,60,60,7.0,100.0
9476,60.0,0,60,7.0,100.0
9477,66.0,0,60,7.0,100.0
9478,51.0,0,60,7.0,100.0
9479,39.0,0,60,7.0,100.0
9480,69.0,60,60,7.0,100.0
9481,60.0,0,60,7.0,100.0
9482,66.0,0,60,7.0,100.0
9483,51.0,0,60,7.0,100.0
9484,39.0,0,60,7.0,100.0
9485,69.0,60,60,7.0,100.0
9486,60.0,0,60,7.0,100.0
9487,66.0,0,60,7.0,100.0
9488,51.0,0,60,7.0,100.0
9489,39.0,0,60,7.0,100.0
9490,45.0,60,30,3.0,127.0
9491,49.0,30,30,3.0,127.0
9492,69.0,0,60,7.0,100.0
9493,61.0,0,60,7.0,100.0
9494,64.0,0,60,7.0,100.0
9495,52.0,30,30,3.0,127.0
9496,57.0,30,30,3.0,127.0
9497,69.0,0,60,7.0,100.0
9498,61.0,0,60,7.0,100.0
9499,64.0,0,60,7.0,100.0
9500,52.0,0,120,7.0,100.0
9501,40.0,0,120,7.0,100.0
9502,61.0,30,30,3.0,127.0
9503,57.0,30,30,3.0,127.0
9504,69.0,0,60,7.0,100.0
9505,61.0,0,60,7.0,100.0
9506,64.0,0,60,7.0,100.0
9507,52.0,30,30,3.0,127.0
9508,49.0,30,30,3.0,127.0
9509,69.0,0,60,7.0,100.0
9510,61.0,0,60,7.0,100.0
9511,64.0,0,60,7.0,100.0
9512,52.0,30,30,3.0,127.0
9513,57.0,30,30,3.0,127.0
9514,61.0,30,30,3.0,127.0
9515,64.0,30,30,3.0,127.0
9516,73.0,0,60,7.0,100.0
9517,69.0,0,60,7.0,100.0
9518,52.0,0,120,7.0,100.0
9519,69.0,30,30,3.0,127.0
9520,64.0,30,30,3.0,127.0
9521,73.0,0,60,7.0,100.0
9522,69.0,0,60,7.0,100.0
9523,64.0,0,180,7.0,100.0
9524,61.0,30,30,3.0,127.0
9525,57.0,30,30,3.0,127.0
9526,73.0,0,60,7.0,100.0
9527,69.0,0,60,7.0,100.0
9528,64.0,0,60,7.0,100.0
9529,61.0,30,30,3.0,127.0
9530,64.0,30,30,3.0,127.0
9531,69.0,30,30,3.0,127.0
9532,73.0,30,30,3.0,127.0
9533,76.0,0,60,7.0,100.0
9534,73.0,0,60,7.0,100.0
9535,69.0,0,60,7.0,100.0
9536,61.0,0,120,7.0,100.0
9537,49.0,0,120,7.0,100.0
9538,76.0,30,30,3.0,127.0
9539,73.0,30,30,3.0,127.0
9540,76.0,0,60,7.0,100.0
9541,73.0,0,60,7.0,100.0
9542,69.0,0,60,7.0,100.0
9543,69.0,30,30,3.0,127.0
9544,64.0,30,30,3.0,127.0
9545,76.0,0,60,7.0,100.0
9546,73.0,0,60,7.0,100.0
9547,69.0,0,60,7.0,100.0
9548,69.0,30,30,3.0,127.0
9549,73.0,30,30,3.0,127.0
9550,76.0,30,15,3.0,127.0
9551,81.0,30,15,3.0,127.0
9552,81.0,0,60,7.0,100.0
9553,76.0,0,60,7.0,100.0
9554,73.0,0,60,7.0,100.0
9555,57.0,0,120,7.0,100.0
9556,45.0,0,120,7.0,100.0
9557,85.0,30,60,3.0,127.0
9558,81.0,0,60,7.0,100.0
9559,76.0,0,60,7.0,100.0
9560,73.0,0,60,7.0,100.0
9561,81.0,60,60,7.0,100.0
9562,76.0,0,60,7.0,100.0
9563,73.0,0,60,7.0,100.0
9564,81.0,60,60,7.0,100.0
9565,76.0,0,60,7.0,100.0
9566,73.0,0,60,7.0,100.0
9567,81.0,60,30,3.0,127.0
9568,80.0,30,30,3.0,127.0
9569,52.0,0,120,7.0,100.0
9570,40.0,0,120,7.0,100.0
9571,81.0,30,30,3.0,127.0
9572,73.0,0,30,7.0,100.0
9573,69.0,0,30,7.0,100.0
9574,64.0,0,30,7.0,100.0
9575,80.0,30,30,3.0,127.0
9576,81.0,30,30,3.0,127.0
9577,73.0,0,30,7.0,100.0
9578,69.0,0,30,7.0,100.0
9579,64.0,0,30,7.0,100.0
9580,80.0,30,30,3.0,127.0
9581,81.0,30,30,3.0,127.0
9582,73.0,0,30,7.0,100.0
9583,69.0,0,30,7.0,100.0
9584,64.0,0,30,7.0,100.0
9585,76.0,60,30,3.0,127.0
9586,75.0,30,30,3.0,127.0
9587,76.0,30,30,3.0,127.0
9588,73.0,0,30,7.0,100.0
9589,69.0,0,30,7.0,100.0
9590,64.0,0,30,7.0,100.0
9591,75.0,30,30,3.0,127.0
9592,76.0,30,30,3.0,127.0
9593,73.0,0,30,7.0,100.0
9594,69.0,0,30,7.0,100.0
9595,64.0,0,30,7.0,100.0
9596,75.0,30,30,3.0,127.0
9597,76.0,30,30,3.0,127.0
9598,73.0,0,30,7.0,100.0
9599,69.0,0,30,7.0,100.0
9600,64.0,0,30,7.0,100.0
9601,73.0,60,30,3.0,127.0
9602,72.0,30,30,3.0,127.0
9603,73.0,30,30,3.0,127.0
9604,69.0,0,30,7.0,100.0
9605,61.0,0,30,7.0,100.0
9606,64.0,0,30,7.0,100.0
9607,52.0,0,30,7.0,100.0
9608,72.0,30,30,3.0,127.0
9609,73.0,30,30,3.0,127.0
9610,69.0,0,30,7.0,100.0
9611,61.0,0,30,7.0,100.0
9612,64.0,0,30,7.0,100.0
9613,52.0,0,30,7.0,100.0
9614,72.0,30,30,3.0,127.0
9615,73.0,30,30,3.0,127.0
9616,69.0,0,30,7.0,100.0
9617,61.0,0,30,7.0,100.0
9618,64.0,0,30,7.0,100.0
9619,52.0,0,30,7.0,100.0
9620,69.0,60,30,3.0,127.0
9621,68.0,30,30,3.0,127.0
9622,69.0,30,30,3.0,127.0
9623,61.0,0,30,7.0,100.0
9624,57.0,0,30,7.0,100.0
9625,64.0,0,30,7.0,100.0
9626,52.0,0,30,7.0,100.0
9627,68.0,30,30,3.0,127.0
9628,69.0,30,30,3.0,127.0
9629,61.0,0,30,7.0,100.0
9630,57.0,0,30,7.0,100.0
9631,64.0,0,30,7.0,100.0
9632,52.0,0,30,7.0,100.0
9633,68.0,30,30,3.0,127.0
9634,69.0,30,30,3.0,127.0
9635,64.0,30,30,3.0,127.0
9636,66.0,30,30,3.0,127.0
9637,68.0,30,30,3.0,127.0
9638,61.0,0,120,7.0,100.0
9639,64.0,0,120,7.0,100.0
9640,52.0,0,120,7.0,100.0
9641,69.0,30,30,3.0,127.0
9642,71.0,30,30,3.0,127.0
9643,61.0,0,60,7.0,100.0
9644,57.0,0,180,7.0,100.0
9645,72.0,30,30,3.0,127.0
9646,73.0,30,30,3.0,127.0
9647,61.0,0,60,7.0,100.0
9648,57.0,0,60,7.0,100.0
9649,74.0,30,30,3.0,127.0
9650,75.0,30,30,3.0,127.0
9651,61.0,0,60,7.0,100.0
9652,57.0,0,60,7.0,100.0
9653,76.0,30,30,3.0,127.0
9654,77.0,30,30,3.0,127.0
9655,61.0,0,60,7.0,100.0
9656,57.0,0,60,7.0,100.0
9657,78.0,30,30,3.0,127.0
9658,79.0,30,30,3.0,127.0
9659,61.0,0,60,7.0,100.0
9660,57.0,0,60,7.0,100.0
9661,80.0,30,30,3.0,127.0
9662,81.0,30,30,3.0,127.0
9663,61.0,0,60,7.0,100.0
9664,57.0,0,60,7.0,100.0
9665,71.0,30,15,3.0,127.0
9666,73.0,15,15,3.0,127.0
9667,59.0,0,30,7.0,100.0
9668,56.0,0,30,7.0,100.0
9669,71.0,15,15,3.0,127.0
9670,73.0,15,15,3.0,127.0
9671,59.0,0,30,7.0,100.0
9672,56.0,0,30,7.0,100.0
9673,40.0,0,60,7.0,100.0
9674,71.0,15,15,3.0,127.0
9675,73.0,15,15,3.0,127.0
9676,59.0,0,30,7.0,100.0
9677,56.0,0,30,7.0,100.0
9678,71.0,15,15,3.0,127.0
9679,73.0,15,15,3.0,127.0
9680,59.0,0,30,7.0,100.0
9681,56.0,0,30,7.0,100.0
9682,40.0,0,60,7.0,100.0
9683,71.0,15,15,3.0,127.0
9684,73.0,15,15,3.0,127.0
9685,59.0,0,30,7.0,100.0
9686,56.0,0,30,7.0,100.0
9687,71.0,15,15,3.0,127.0
9688,73.0,15,15,3.0,127.0
9689,59.0,0,30,7.0,100.0
9690,56.0,0,30,7.0,100.0
9691,40.0,0,60,7.0,100.0
9692,71.0,15,15,3.0,127.0
9693,73.0,15,15,3.0,127.0
9694,59.0,0,30,7.0,100.0
9695,56.0,0,30,7.0,100.0
9696,71.0,15,15,3.0,127.0
9697,73.0,15,15,3.0,127.0
9698,59.0,0,30,7.0,100.0
9699,56.0,0,30,7.0,100.0
9700,52.0,0,240,7.0,100.0
9701,40.0,0,60,7.0,100.0
9702,71.0,15,15,3.0,127.0
9703,73.0,15,15,3.0,127.0
9704,59.0,0,30,7.0,100.0
9705,56.0,0,30,7.0,100.0
9706,50.0,0,30,7.0,100.0
9707,71.0,15,15,3.0,127.0
9708,73.0,15,15,3.0,127.0
9709,59.0,0,30,7.0,100.0
9710,56.0,0,30,7.0,100.0
9711,50.0,0,30,7.0,100.0
9712,52.0,0,60,7.0,100.0
9713,40.0,0,60,7.0,100.0
9714,71.0,15,15,3.0,127.0
9715,73.0,15,15,3.0,127.0
9716,59.0,0,30,7.0,100.0
9717,56.0,0,30,7.0,100.0
9718,50.0,0,30,7.0,100.0
9719,71.0,15,15,3.0,127.0
9720,73.0,15,15,3.0,127.0
9721,59.0,0,30,7.0,100.0
9722,56.0,0,30,7.0,100.0
9723,50.0,0,30,7.0,100.0
9724,52.0,0,60,7.0,100.0
9725,40.0,0,60,7.0,100.0
9726,71.0,15,15,3.0,127.0
9727,73.0,15,15,3.0,127.0
9728,59.0,0,30,7.0,100.0
9729,56.0,0,30,7.0,100.0
9730,50.0,0,30,7.0,100.0
9731,71.0,15,15,3.0,127.0
9732,73.0,15,15,3.0,127.0
9733,59.0,0,30,7.0,100.0
9734,56.0,0,30,7.0,100.0
9735,50.0,0,30,7.0,100.0
9736,52.0,0,60,7.0,100.0
9737,40.0,0,60,7.0,100.0
9738,71.0,15,15,3.0,127.0
9739,73.0,15,15,3.0,127.0
9740,59.0,0,30,7.0,100.0
9741,56.0,0,30,7.0,100.0
9742,50.0,0,30,7.0,100.0
9743,69.0,15,15,3.0,127.0
9744,71.0,15,15,3.0,127.0
9745,59.0,0,30,7.0,100.0
9746,56.0,0,30,7.0,100.0
9747,50.0,0,30,7.0,100.0
9748,52.0,0,60,7.0,100.0
9749,40.0,0,60,7.0,100.0
9750,57.0,0,60,5.0,80.0
9751,64.0,30,30,7.0,100.0
9752,49.0,0,60,7.0,100.0
9753,45.0,0,60,7.0,100.0
9754,61.0,0,30,7.0,100.0
9755,69.0,15,120,3.0,127.0
9756,52.0,30,60,5.0,80.0
9757,52.0,0,1080,6.0,80.0
9758,57.0,0,120,7.0,100.0
9759,52.0,0,60,7.0,100.0
9760,40.0,0,60,7.0,100.0
9761,61.0,0,30,7.0,100.0
9762,57.0,60,60,5.0,80.0
9763,64.0,0,120,7.0,100.0
9764,57.0,0,60,7.0,100.0
9765,45.0,0,60,7.0,100.0
9766,85.0,0,30,7.0,100.0
9767,61.0,0,30,7.0,100.0
9768,52.0,60,60,5.0,80.0
9769,57.0,0,60,6.0,80.0
9770,49.0,0,60,6.0,80.0
9771,81.0,30,30,7.0,100.0
9772,52.0,0,60,7.0,100.0
9773,40.0,0,60,7.0,100.0
9774,76.0,0,30,7.0,100.0
9775,61.0,0,30,7.0,100.0
9776,57.0,30,60,5.0,80.0
9777,57.0,0,60,6.0,80.0
9778,49.0,0,60,6.0,80.0
9779,64.0,0,120,7.0,100.0
9780,57.0,0,60,7.0,100.0
9781,45.0,0,60,7.0,100.0
9782,76.0,0,30,7.0,100.0
9783,61.0,0,30,7.0,100.0
9784,52.0,60,60,5.0,80.0
9785,57.0,0,60,6.0,80.0
9786,49.0,0,60,6.0,80.0
9787,52.0,0,60,7.0,100.0
9788,40.0,0,60,7.0,100.0
9789,76.0,0,30,7.0,100.0
9790,61.0,0,30,7.0,100.0
9791,57.0,60,60,5.0,80.0
9792,57.0,0,60,6.0,80.0
9793,49.0,0,60,6.0,80.0
9794,64.0,0,120,7.0,100.0
9795,57.0,0,60,7.0,100.0
9796,45.0,0,60,7.0,100.0
9797,76.0,0,30,7.0,100.0
9798,61.0,0,30,7.0,100.0
9799,52.0,60,60,5.0,80.0
9800,57.0,0,60,6.0,80.0
9801,49.0,0,60,6.0,80.0
9802,52.0,0,60,7.0,100.0
9803,40.0,0,60,7.0,100.0
9804,59.0,0,30,7.0,100.0
9805,56.0,0,60,5.0,80.0
9806,76.0,0,60,7.0,100.0
9807,64.0,0,120,7.0,100.0
9808,56.0,0,60,7.0,100.0
9809,44.0,0,60,7.0,100.0
9810,59.0,0,30,7.0,100.0
9811,52.0,60,60,5.0,80.0
9812,59.0,0,120,6.0,80.0
9813,52.0,0,120,6.0,80.0
9814,86.0,0,60,7.0,100.0
9815,52.0,0,60,7.0,100.0
9816,40.0,0,60,7.0,100.0
9817,59.0,0,30,7.0,100.0
9818,56.0,60,60,5.0,80.0
9819,64.0,0,120,7.0,100.0
9820,56.0,0,60,7.0,100.0
9821,44.0,0,60,7.0,100.0
9822,59.0,0,30,7.0,100.0
9823,74.0,60,240,4.0,80.0
9824,52.0,60,60,5.0,80.0
9825,52.0,0,60,7.0,100.0
9826,40.0,0,60,7.0,100.0
9827,59.0,0,60,5.0,80.0
9828,86.0,0,180,7.0,100.0
9829,64.0,0,120,7.0,100.0
9830,47.0,0,60,7.0,100.0
9831,85.0,0,30,7.0,100.0
9832,59.0,0,90,7.0,100.0
9833,71.0,0,360,4.0,80.0
9834,68.0,60,120,4.0,80.0
9835,52.0,60,60,5.0,80.0
9836,59.0,0,240,6.0,80.0
9837,52.0,0,240,6.0,80.0
9838,83.0,30,30,7.0,100.0
9839,52.0,0,60,7.0,100.0
9840,40.0,0,60,7.0,100.0
9841,85.0,0,30,7.0,100.0
9842,59.0,0,30,7.0,100.0
9843,62.0,0,60,5.0,80.0
9844,83.0,30,30,7.0,100.0
9845,64.0,0,120,7.0,100.0
9846,62.0,0,60,7.0,100.0
9847,50.0,0,60,7.0,100.0
9848,81.0,0,30,7.0,100.0
9849,59.0,0,30,7.0,100.0
9850,80.0,30,120,4.0,80.0
9851,76.0,0,120,4.0,80.0
9852,52.0,30,60,5.0,80.0
9853,59.0,0,120,6.0,80.0
9854,52.0,0,120,6.0,80.0
9855,80.0,30,30,7.0,100.0
9856,52.0,0,60,7.0,100.0
9857,40.0,0,60,7.0,100.0
9858,57.0,0,30,7.0,100.0
9859,61.0,0,60,5.0,80.0
9860,83.0,0,60,7.0,100.0
9861,64.0,0,120,7.0,100.0
9862,61.0,0,60,7.0,100.0
9863,49.0,0,60,7.0,100.0
9864,57.0,0,30,7.0,100.0
9865,81.0,30,120,4.0,80.0
9866,76.0,0,120,4.0,80.0
9867,52.0,60,60,5.0,80.0
9868,61.0,0,120,6.0,80.0
9869,57.0,0,120,6.0,80.0
9870,81.0,0,60,7.0,100.0
9871,52.0,0,60,7.0,100.0
9872,40.0,0,60,7.0,100.0
9873,57.0,0,30,7.0,100.0
9874,61.0,60,60,5.0,80.0
9875,64.0,0,120,7.0,100.0
9876,61.0,0,60,7.0,100.0
9877,49.0,0,60,7.0,100.0
9878,85.0,0,30,7.0,100.0
9879,57.0,0,30,7.0,100.0
9880,52.0,60,60,5.0,80.0
9881,57.0,0,60,6.0,80.0
9882,49.0,0,60,6.0,80.0
9883,81.0,30,30,7.0,100.0
9884,52.0,0,60,7.0,100.0
9885,40.0,0,60,7.0,100.0
9886,76.0,0,30,7.0,100.0
9887,61.0,0,30,7.0,100.0
9888,57.0,30,60,5.0,80.0
9889,57.0,0,60,6.0,80.0
9890,49.0,0,60,6.0,80.0
9891,64.0,0,120,7.0,100.0
9892,57.0,0,60,7.0,100.0
9893,45.0,0,60,7.0,100.0
9894,76.0,0,30,7.0,100.0
9895,61.0,0,30,7.0,100.0
9896,52.0,60,60,5.0,80.0
9897,57.0,0,60,6.0,80.0
9898,49.0,0,60,6.0,80.0
9899,52.0,0,60,7.0,100.0
9900,40.0,0,60,7.0,100.0
9901,76.0,0,30,7.0,100.0
9902,61.0,0,30,7.0,100.0
9903,57.0,60,60,5.0,80.0
9904,57.0,0,60,6.0,80.0
9905,49.0,0,60,6.0,80.0
9906,64.0,0,120,7.0,100.0
9907,57.0,0,60,7.0,100.0
9908,45.0,0,60,7.0,100.0
9909,76.0,0,30,7.0,100.0
9910,61.0,0,30,7.0,100.0
9911,52.0,60,60,5.0,80.0
9912,57.0,0,60,6.0,80.0
9913,49.0,0,60,6.0,80.0
9914,52.0,0,60,7.0,100.0
9915,40.0,0,60,7.0,100.0
9916,59.0,0,30,7.0,100.0
9917,56.0,0,60,5.0,80.0
9918,76.0,0,60,7.0,100.0
9919,64.0,0,120,7.0,100.0
9920,56.0,0,60,7.0,100.0
9921,44.0,0,60,7.0,100.0
9922,59.0,0,30,7.0,100.0
9923,52.0,60,60,5.0,80.0
9924,59.0,0,120,6.0,80.0
9925,52.0,0,120,6.0,80.0
9926,86.0,0,60,7.0,100.0
9927,52.0,0,60,7.0,100.0
9928,40.0,0,60,7.0,100.0
9929,59.0,0,30,7.0,100.0
9930,56.0,60,60,5.0,80.0
9931,64.0,0,120,7.0,100.0
9932,56.0,0,60,7.0,100.0
9933,44.0,0,60,7.0,100.0
9934,59.0,0,30,7.0,100.0
9935,86.0,60,240,4.0,80.0
9936,52.0,60,60,5.0,80.0
9937,52.0,0,60,7.0,100.0
9938,40.0,0,60,7.0,100.0
9939,59.0,0,60,5.0,80.0
9940,86.0,0,180,7.0,100.0
9941,64.0,0,120,7.0,100.0
9942,47.0,0,60,7.0,100.0
9943,85.0,0,30,7.0,100.0
9944,59.0,0,90,7.0,100.0
9945,83.0,0,360,4.0,80.0
9946,52.0,60,60,5.0,80.0
9947,59.0,0,240,6.0,80.0
9948,52.0,0,240,6.0,80.0
9949,83.0,30,30,7.0,100.0
9950,52.0,0,60,7.0,100.0
9951,40.0,0,60,7.0,100.0
9952,85.0,0,30,7.0,100.0
9953,59.0,0,30,7.0,100.0
9954,62.0,0,60,5.0,80.0
9955,83.0,30,30,7.0,100.0
9956,64.0,0,120,7.0,100.0
9957,62.0,0,60,7.0,100.0
9958,50.0,0,60,7.0,100.0
9959,81.0,0,30,7.0,100.0
9960,59.0,0,30,7.0,100.0
9961,80.0,60,240,4.0,80.0
9962,76.0,30,120,4.0,80.0
9963,52.0,30,60,5.0,80.0
9964,59.0,0,120,6.0,80.0
9965,52.0,0,120,6.0,80.0
9966,80.0,30,30,7.0,100.0
9967,52.0,0,60,7.0,100.0
9968,40.0,0,60,7.0,100.0
9969,64.0,0,120,7.0,100.0
9970,49.0,0,60,7.0,100.0
9971,49.0,60,60,7.0,100.0
9972,88.0,0,150,7.0,100.0
9973,76.0,0,150,7.0,100.0
9974,86.0,30,15,7.0,100.0
9975,74.0,0,15,7.0,100.0
9976,49.0,60,60,7.0,100.0
9977,85.0,30,15,7.0,100.0
9978,73.0,0,15,7.0,100.0
9979,83.0,30,15,7.0,100.0
9980,71.0,0,15,7.0,100.0
9981,57.0,0,240,6.0,80.0
9982,45.0,0,240,6.0,80.0
9983,49.0,0,60,7.0,100.0
9984,81.0,0,15,7.0,100.0
9985,69.0,0,15,7.0,100.0
9986,80.0,30,15,7.0,100.0
9987,68.0,0,15,7.0,100.0
9988,49.0,0,60,7.0,100.0
9989,78.0,30,15,7.0,100.0
9990,66.0,0,15,7.0,100.0
9991,76.0,30,15,7.0,100.0
9992,64.0,0,15,7.0,100.0
9993,57.0,30,120,6.0,80.0
9994,45.0,0,120,6.0,80.0
9995,49.0,0,60,7.0,100.0
9996,74.0,0,15,7.0,100.0
9997,62.0,0,15,7.0,100.0
9998,73.0,30,15,7.0,100.0
9999,49.0,0,60,7.0,100.0
10000,71.0,30,15,7.0,100.0
10001,59.0,0,15,7.0,100.0
10002,69.0,30,15,7.0,100.0
10003,57.0,0,15,7.0,100.0
10004,81.0,30,480,4.0,80.0
10005,76.0,0,480,4.0,80.0
10006,61.0,0,480,5.0,80.0
10007,57.0,30,120,6.0,80.0
10008,45.0,0,120,6.0,80.0
10009,61.0,0,480,7.0,100.0
10010,49.0,0,60,7.0,100.0
10011,52.0,0,60,7.0,100.0
10012,67.0,0,120,7.0,100.0
10013,52.0,60,60,7.0,100.0
10014,52.0,60,60,7.0,100.0
10015,79.0,30,240,4.0,80.0
10016,64.0,0,240,5.0,80.0
10017,57.0,0,240,6.0,80.0
10018,45.0,0,240,6.0,80.0
10019,67.0,60,60,7.0,100.0
10020,64.0,0,240,7.0,100.0
10021,52.0,0,60,7.0,100.0
10022,49.0,0,60,7.0,100.0
10023,65.0,0,120,7.0,100.0
10024,49.0,60,60,7.0,100.0
10025,49.0,60,60,7.0,100.0
10026,77.0,60,240,4.0,80.0
10027,61.0,0,240,5.0,80.0
10028,57.0,0,240,6.0,80.0
10029,45.0,0,240,6.0,80.0
10030,65.0,60,60,7.0,100.0
10031,61.0,0,240,7.0,100.0
10032,49.0,0,60,7.0,100.0
10033,66.0,0,60,7.0,100.0
10034,50.0,0,60,7.0,100.0
10035,57.0,0,120,6.0,80.0
10036,45.0,0,120,6.0,80.0
10037,50.0,60,60,7.0,100.0
10038,81.0,0,60,7.0,100.0
10039,50.0,0,60,7.0,100.0
10040,57.0,60,90,6.0,80.0
10041,45.0,0,90,6.0,80.0
10042,78.0,60,240,4.0,80.0
10043,62.0,0,240,5.0,80.0
10044,57.0,30,30,6.0,80.0
10045,45.0,0,30,6.0,80.0
10046,62.0,0,240,7.0,100.0
10047,50.0,60,60,7.0,100.0
10048,54.0,0,60,7.0,100.0
10049,57.0,0,120,6.0,80.0
10050,45.0,0,120,6.0,80.0
10051,54.0,60,60,7.0,100.0
10052,63.0,0,60,7.0,100.0
10053,54.0,0,60,7.0,100.0
10054,75.0,30,240,4.0,80.0
10055,66.0,0,240,5.0,80.0
10056,57.0,60,120,6.0,80.0
10057,45.0,0,120,6.0,80.0
10058,66.0,0,240,7.0,100.0
10059,54.0,60,60,7.0,100.0
10060,64.0,0,60,5.0,80.0
10061,52.0,0,60,7.0,100.0
10062,64.0,0,90,7.0,100.0
10063,63.0,60,60,5.0,80.0
10064,66.0,30,30,7.0,100.0
10065,63.0,0,60,7.0,100.0
10066,51.0,0,60,7.0,100.0
10067,68.0,0,30,7.0,100.0
10068,62.0,30,60,5.0,80.0
10069,69.0,30,30,7.0,100.0
10070,62.0,0,60,7.0,100.0
10071,50.0,0,60,7.0,100.0
10072,71.0,0,30,7.0,100.0
10073,76.0,60,240,4.0,80.0
10074,61.0,30,60,5.0,80.0
10075,73.0,30,30,7.0,100.0
10076,61.0,0,60,7.0,100.0
10077,49.0,0,60,7.0,100.0
10078,74.0,30,30,4.0,80.0
10079,74.0,0,30,7.0,100.0
10080,76.0,30,30,4.0,80.0
10081,59.0,0,60,5.0,80.0
10082,76.0,0,30,7.0,100.0
10083,59.0,0,60,7.0,100.0
10084,47.0,0,60,7.0,100.0
10085,78.0,30,30,4.0,80.0
10086,78.0,0,30,7.0,100.0
10087,80.0,30,30,4.0,80.0
10088,62.0,0,60,5.0,80.0
10089,80.0,0,30,7.0,100.0
10090,62.0,0,60,7.0,100.0
10091,50.0,0,60,7.0,100.0
10092,81.0,30,30,4.0,80.0
10093,81.0,0,30,7.0,100.0
10094,83.0,30,30,4.0,80.0
10095,61.0,0,60,5.0,80.0
10096,83.0,0,30,7.0,100.0
10097,61.0,0,60,7.0,100.0
10098,49.0,0,60,7.0,100.0
10099,85.0,30,30,4.0,80.0
10100,85.0,0,30,7.0,100.0
10101,86.0,30,30,4.0,80.0
10102,57.0,0,60,5.0,80.0
10103,86.0,0,30,7.0,100.0
10104,57.0,0,60,7.0,100.0
10105,45.0,0,60,7.0,100.0
10106,88.0,0,60,7.0,100.0
10107,64.0,0,60,7.0,100.0
10108,52.0,0,60,7.0,100.0
10109,40.0,0,60,7.0,100.0
10110,85.0,60,30,7.0,100.0
10111,88.0,30,120,4.0,80.0
10112,52.0,0,600,6.0,80.0
10113,81.0,30,30,7.0,100.0
10114,64.0,0,60,7.0,100.0
10115,52.0,0,60,7.0,100.0
10116,40.0,0,60,7.0,100.0
10117,76.0,0,60,7.0,100.0
10118,64.0,0,60,7.0,100.0
10119,52.0,0,60,7.0,100.0
10120,40.0,0,60,7.0,100.0
10121,85.0,30,90,4.0,80.0
10122,81.0,0,90,4.0,80.0
10123,61.0,0,90,6.0,80.0
10124,45.0,0,90,6.0,80.0
10125,73.0,60,30,7.0,100.0
10126,85.0,30,30,4.0,80.0
10127,81.0,0,30,4.0,80.0
10128,61.0,0,30,6.0,80.0
10129,45.0,0,30,6.0,80.0
10130,69.0,0,30,7.0,100.0
10131,52.0,0,60,7.0,100.0
10132,40.0,0,60,7.0,100.0
10133,85.0,30,60,4.0,80.0
10134,81.0,0,60,4.0,80.0
10135,61.0,0,60,6.0,80.0
10136,45.0,0,60,6.0,80.0
10137,52.0,0,60,7.0,100.0
10138,40.0,0,60,7.0,100.0
10139,85.0,60,60,4.0,80.0
10140,81.0,0,60,4.0,80.0
10141,61.0,0,60,6.0,80.0
10142,45.0,0,60,6.0,80.0
10143,52.0,0,60,7.0,100.0
10144,40.0,0,60,7.0,100.0
10145,83.0,60,60,4.0,80.0
10146,80.0,0,60,4.0,80.0
10147,59.0,0,60,6.0,80.0
10148,52.0,0,60,6.0,80.0
10149,52.0,0,60,7.0,100.0
10150,40.0,0,60,7.0,100.0
10151,83.0,60,60,4.0,80.0
10152,80.0,0,60,4.0,80.0
10153,52.0,0,480,5.0,80.0
10154,59.0,0,60,6.0,80.0
10155,52.0,0,60,6.0,80.0
10156,62.0,0,120,7.0,100.0
10157,71.0,0,120,7.0,100.0
10158,80.0,0,120,7.0,100.0
10159,52.0,0,60,7.0,100.0
10160,40.0,0,60,7.0,100.0
10161,81.0,60,120,4.0,80.0
10162,45.0,0,120,5.0,80.0
10163,57.0,0,120,6.0,80.0
10164,49.0,0,120,6.0,80.0
10165,64.0,0,420,7.0,100.0
10166,73.0,0,120,7.0,100.0
10167,81.0,0,120,7.0,100.0
10168,57.0,0,120,7.0,100.0
10169,45.0,0,120,7.0,100.0
10170,33.0,0,120,7.0,100.0
10171,81.0,240,120,7.0,100.0
10172,69.0,0,120,7.0,100.0
10173,85.0,120,60,7.0,100.0
10174,73.0,0,60,7.0,100.0
10175,78.0,120,120,7.0,100.0
10176,66.0,0,120,7.0,100.0
10177,81.0,120,60,7.0,100.0
10178,69.0,0,60,7.0,100.0
10179,66.0,0,30,7.0,100.0
10180,62.0,0,30,7.0,100.0
10181,50.0,0,30,7.0,100.0
10182,38.0,0,30,7.0,100.0
10183,71.0,120,90,7.0,100.0
10184,71.0,30,30,7.0,100.0
10185,64.0,60,60,7.0,100.0
10186,67.0,0,30,7.0,100.0
10187,64.0,0,30,7.0,100.0
10188,52.0,0,30,7.0,100.0
10189,40.0,0,30,7.0,100.0
10190,73.0,30,90,7.0,100.0
10191,73.0,90,30,7.0,100.0
10192,76.0,30,120,7.0,100.0
10193,69.0,0,120,7.0,100.0
10194,66.0,0,120,7.0,100.0
10195,54.0,0,120,7.0,100.0
10196,42.0,0,120,7.0,100.0
10197,74.0,120,60,7.0,100.0
10198,74.0,120,120,7.0,100.0
10199,62.0,0,120,7.0,100.0
10200,78.0,120,60,7.0,100.0
10201,66.0,0,60,7.0,100.0
10202,71.0,120,120,7.0,100.0
10203,59.0,0,120,7.0,100.0
10204,74.0,120,60,7.0,100.0
10205,62.0,0,60,7.0,100.0
10206,62.0,0,30,7.0,100.0
10207,59.0,0,30,7.0,100.0
10208,47.0,0,30,7.0,100.0
10209,35.0,0,30,7.0,100.0
10210,66.0,120,90,7.0,100.0
10211,66.0,30,30,7.0,100.0
10212,52.0,60,60,7.0,100.0
10213,62.0,0,30,7.0,100.0
10214,64.0,0,30,7.0,100.0
10215,52.0,0,30,7.0,100.0
10216,40.0,0,30,7.0,100.0
10217,68.0,30,90,7.0,100.0
10218,68.0,90,30,7.0,100.0
10219,69.0,30,30,7.0,100.0
10220,73.0,30,30,7.0,100.0
10221,76.0,30,30,7.0,100.0
10222,73.0,30,30,7.0,100.0
10223,61.0,0,120,7.0,100.0
10224,57.0,0,120,7.0,100.0
10225,45.0,0,120,7.0,100.0
10226,33.0,0,120,7.0,100.0
10227,69.0,30,30,7.0,100.0
10228,64.0,30,30,7.0,100.0
10229,61.0,30,30,7.0,100.0
10230,64.0,30,30,7.0,100.0
10231,66.0,30,30,7.0,100.0
10232,59.0,0,30,7.0,100.0
10233,50.0,0,30,7.0,100.0
10234,38.0,0,30,7.0,100.0
10235,62.0,0,60,7.0,100.0
10236,66.0,60,30,7.0,100.0
10237,69.0,30,30,7.0,100.0
10238,68.0,30,30,7.0,100.0
10239,62.0,0,30,7.0,100.0
10240,59.0,0,30,7.0,100.0
10241,52.0,0,30,7.0,100.0
10242,40.0,0,30,7.0,100.0
10243,64.0,30,30,7.0,100.0
10244,68.0,30,30,7.0,100.0
10245,71.0,30,30,7.0,100.0
10246,69.0,30,30,7.0,100.0
10247,73.0,30,30,7.0,100.0
10248,76.0,30,30,7.0,100.0
10249,73.0,30,30,7.0,100.0
10250,61.0,0,120,7.0,100.0
10251,57.0,0,120,7.0,100.0
10252,45.0,0,120,7.0,100.0
10253,33.0,0,120,7.0,100.0
10254,69.0,30,30,7.0,100.0
10255,64.0,30,30,7.0,100.0
10256,61.0,30,30,7.0,100.0
10257,64.0,30,30,7.0,100.0
10258,66.0,30,30,7.0,100.0
10259,59.0,0,30,7.0,100.0
10260,50.0,0,30,7.0,100.0
10261,38.0,0,30,7.0,100.0
10262,62.0,0,60,7.0,100.0
10263,66.0,60,30,7.0,100.0
10264,69.0,30,30,7.0,100.0
10265,68.0,30,30,7.0,100.0
10266,62.0,0,30,7.0,100.0
10267,59.0,0,30,7.0,100.0
10268,52.0,0,30,7.0,100.0
10269,40.0,0,30,7.0,100.0
10270,64.0,30,30,7.0,100.0
10271,68.0,30,30,7.0,100.0
10272,71.0,30,30,7.0,100.0
10273,69.0,0,30,7.0,100.0
10274,64.0,30,30,7.0,100.0
10275,57.0,0,60,7.0,100.0
10276,45.0,0,60,7.0,100.0
10277,33.0,0,60,7.0,100.0
10278,61.0,0,90,7.0,100.0
10279,69.0,30,30,7.0,100.0
10280,57.0,0,30,7.0,100.0
10281,45.0,0,30,7.0,100.0
10282,81.0,30,120,4.0,80.0
10283,73.0,0,120,4.0,80.0
10284,64.0,0,120,5.0,80.0
10285,61.0,0,120,5.0,80.0
10286,57.0,0,120,6.0,80.0
10287,45.0,0,120,6.0,80.0
10288,64.0,30,30,7.0,100.0
10289,69.0,0,30,7.0,100.0
10290,73.0,0,30,7.0,100.0
10291,61.0,0,30,7.0,100.0
10292,49.0,0,30,7.0,100.0
10293,64.0,30,30,7.0,100.0
10294,81.0,30,90,4.0,80.0
10295,73.0,0,90,4.0,80.0
10296,64.0,0,90,5.0,80.0
10297,61.0,0,90,5.0,80.0
10298,57.0,0,90,6.0,80.0
10299,45.0,0,90,6.0,80.0
10300,69.0,30,30,7.0,100.0
10301,57.0,0,30,7.0,100.0
10302,45.0,0,30,7.0,100.0
10303,81.0,30,30,4.0,80.0
10304,73.0,0,30,4.0,80.0
10305,64.0,0,30,5.0,80.0
10306,61.0,0,30,5.0,80.0
10307,57.0,0,30,6.0,80.0
10308,45.0,0,30,6.0,80.0
10309,64.0,0,30,7.0,100.0
10310,73.0,0,30,7.0,100.0
10311,64.0,0,30,7.0,100.0
10312,52.0,0,30,7.0,100.0
10313,40.0,0,30,7.0,100.0
10314,81.0,30,60,4.0,80.0
10315,73.0,0,60,4.0,80.0
10316,64.0,0,60,5.0,80.0
10317,61.0,0,60,5.0,80.0
10318,57.0,0,60,6.0,80.0
10319,45.0,0,60,6.0,80.0
10320,69.0,30,30,7.0,100.0
10321,73.0,0,30,7.0,100.0
10322,57.0,0,30,7.0,100.0
10323,45.0,0,30,7.0,100.0
10324,81.0,30,60,4.0,80.0
10325,73.0,0,60,4.0,80.0
10326,64.0,0,60,5.0,80.0
10327,61.0,0,60,5.0,80.0
10328,57.0,0,60,6.0,80.0
10329,45.0,0,60,6.0,80.0
10330,69.0,0,60,7.0,100.0
10331,76.0,0,30,7.0,100.0
10332,61.0,0,30,7.0,100.0
10333,49.0,0,30,7.0,100.0
10334,37.0,0,30,7.0,100.0
10335,81.0,60,60,4.0,80.0
10336,73.0,0,60,4.0,80.0
10337,64.0,0,60,5.0,80.0
10338,61.0,0,60,5.0,80.0
10339,57.0,0,60,6.0,80.0
10340,45.0,0,60,6.0,80.0
10341,73.0,30,30,7.0,100.0
10342,76.0,0,30,7.0,100.0
10343,64.0,0,30,7.0,100.0
10344,52.0,0,30,7.0,100.0
10345,40.0,0,30,7.0,100.0
10346,81.0,30,60,4.0,80.0
10347,73.0,0,60,4.0,80.0
10348,64.0,0,60,5.0,80.0
10349,61.0,0,60,5.0,80.0
10350,57.0,0,60,6.0,80.0
10351,45.0,0,60,6.0,80.0
10352,73.0,30,30,7.0,100.0
10353,69.0,0,60,7.0,100.0
10354,57.0,0,60,7.0,100.0
10355,45.0,0,60,7.0,100.0
10356,33.0,0,60,7.0,100.0
10357,81.0,30,120,4.0,80.0
10358,73.0,0,120,4.0,80.0
10359,64.0,0,120,5.0,80.0
10360,61.0,0,120,5.0,80.0
10361,57.0,0,120,6.0,80.0
10362,45.0,0,120,6.0,80.0
10363,64.0,0,60,7.0,100.0
10364,73.0,0,60,7.0,100.0
10365,81.0,0,60,7.0,100.0
10366,69.0,0,60,7.0,100.0
10367,57.0,0,60,7.0,100.0
10368,45.0,0,60,7.0,100.0
10369,85.0,120,120,4.0,80.0
10370,76.0,0,120,4.0,80.0
10371,64.0,0,120,5.0,80.0
10372,61.0,0,120,5.0,80.0
10373,57.0,0,120,6.0,80.0
10374,45.0,0,120,6.0,80.0
10375,57.0,0,60,7.0,100.0
10376,45.0,0,60,7.0,100.0
10377,33.0,0,60,7.0,100.0
10378,81.0,120,120,4.0,80.0
10379,73.0,0,120,4.0,80.0
10380,64.0,0,120,5.0,80.0
10381,61.0,0,120,5.0,80.0
10382,57.0,0,120,6.0,80.0
10383,45.0,0,120,6.0,80.0
