,note,step,duration,channel,velocity
0,65.0,0,119,5.0,66.0
1,62.0,0,119,1.0,66.0
2,65.0,0,119,1.0,66.0
3,62.0,120,119,6.0,66.0
4,57.0,0,119,5.0,66.0
5,63.0,120,119,1.0,66.0
6,65.0,0,359,4.0,66.0
7,63.0,0,119,6.0,66.0
8,60.0,0,119,1.0,66.0
9,65.0,0,359,0.0,66.0
10,58.0,0,119,3.0,66.0
11,74.0,0,119,0.0,66.0
12,58.0,0,119,1.0,66.0
13,62.0,120,119,1.0,66.0
14,65.0,0,119,0.0,66.0
15,62.0,0,119,3.0,66.0
16,74.0,0,119,4.0,66.0
17,62.0,0,119,6.0,66.0
18,58.0,0,119,5.0,66.0
19,46.0,0,119,8.0,66.0
20,72.0,0,59,0.0,66.0
21,72.0,0,59,4.0,66.0
22,63.0,0,119,5.0,66.0
23,60.0,120,119,3.0,66.0
24,41.0,0,119,8.0,66.0
25,53.0,0,119,3.0,66.0
26,69.0,60,59,0.0,66.0
27,69.0,0,59,4.0,66.0
28,63.0,0,119,0.0,66.0
29,70.0,0,59,4.0,66.0
30,70.0,60,29,4.0,66.0
31,70.0,60,119,0.0,66.0
32,62.0,0,119,0.0,66.0
33,34.0,0,119,8.0,66.0
34,62.0,0,119,3.0,66.0
35,62.0,0,119,5.0,66.0
36,62.0,0,119,1.0,66.0
37,58.0,0,119,1.0,66.0
38,65.0,0,239,6.0,66.0
39,58.0,0,119,3.0,66.0
40,74.0,0,59,4.0,66.0
41,62.0,0,119,6.0,66.0
42,77.0,60,59,4.0,66.0
43,65.0,0,119,5.0,66.0
44,65.0,60,119,1.0,66.0
45,62.0,0,119,1.0,66.0
46,82.0,0,59,4.0,66.0
47,58.0,0,119,3.0,66.0
48,65.0,0,119,0.0,66.0
49,86.0,60,59,4.0,66.0
50,74.0,60,119,0.0,66.0
51,62.0,0,119,3.0,66.0
52,62.0,0,119,1.0,66.0
53,58.0,0,119,1.0,66.0
54,58.0,0,119,6.0,66.0
55,62.0,0,119,5.0,66.0
56,46.0,0,119,8.0,66.0
57,84.0,0,59,4.0,66.0
58,72.0,0,59,0.0,66.0
59,41.0,0,119,8.0,66.0
60,63.0,60,119,0.0,66.0
61,60.0,0,119,3.0,66.0
62,60.0,0,119,6.0,66.0
63,69.0,0,59,0.0,66.0
64,53.0,0,119,3.0,66.0
65,81.0,60,59,4.0,66.0
66,63.0,0,119,5.0,66.0
67,82.0,60,59,4.0,66.0
68,58.0,0,119,6.0,66.0
69,70.0,0,119,0.0,66.0
70,62.0,0,119,0.0,66.0
71,62.0,0,119,5.0,66.0
72,58.0,0,119,1.0,66.0
73,58.0,0,119,3.0,66.0
74,34.0,0,119,8.0,66.0
75,62.0,0,119,3.0,66.0
76,62.0,0,119,1.0,66.0
77,60.0,120,119,6.0,66.0
78,63.0,0,119,5.0,66.0
79,63.0,0,119,1.0,66.0
80,60.0,0,119,1.0,66.0
81,65.0,0,59,3.0,66.0
82,58.0,0,59,3.0,66.0
83,82.0,0,119,4.0,66.0
84,65.0,0,119,1.0,66.0
85,62.0,0,119,1.0,66.0
86,34.0,0,119,8.0,66.0
87,62.0,120,119,6.0,66.0
88,65.0,0,119,5.0,66.0
89,70.0,0,119,0.0,66.0
90,65.0,0,119,0.0,66.0
91,67.0,0,59,3.0,66.0
92,58.0,0,59,3.0,66.0
93,70.0,0,119,0.0,66.0
94,39.0,0,119,8.0,66.0
95,63.0,0,119,6.0,66.0
96,67.0,90,29,5.0,66.0
97,82.0,0,119,4.0,66.0
98,63.0,0,119,1.0,66.0
99,67.0,0,119,1.0,66.0
100,69.0,0,59,0.0,66.0
101,81.0,30,59,4.0,66.0
102,67.0,120,239,0.0,66.0
103,82.0,60,59,4.0,66.0
104,70.0,0,59,0.0,66.0
105,63.0,0,119,6.0,66.0
106,72.0,0,59,0.0,66.0
107,84.0,0,59,4.0,66.0
108,65.0,0,59,3.0,66.0
109,58.0,0,59,3.0,66.0
110,70.0,0,59,0.0,66.0
111,82.0,60,59,4.0,66.0
112,38.0,60,119,8.0,66.0
113,69.0,60,59,0.0,66.0
114,81.0,0,59,4.0,66.0
115,65.0,0,239,0.0,66.0
116,70.0,0,119,5.0,66.0
117,62.0,0,119,6.0,66.0
118,79.0,0,59,4.0,66.0
119,67.0,60,59,0.0,66.0
120,58.0,0,179,1.0,66.0
121,55.0,0,59,1.0,66.0
122,55.0,60,59,6.0,66.0
123,36.0,60,119,8.0,66.0
124,60.0,0,59,6.0,66.0
125,77.0,0,179,4.0,66.0
126,65.0,0,179,0.0,66.0
127,60.0,0,59,1.0,66.0
128,58.0,60,59,1.0,66.0
129,55.0,60,119,0.0,66.0
130,58.0,0,59,6.0,66.0
131,63.0,0,59,0.0,66.0
132,75.0,0,59,4.0,66.0
133,67.0,0,119,5.0,66.0
134,63.0,0,14,0.0,66.0
135,75.0,0,14,4.0,66.0
136,65.0,15,14,0.0,66.0
137,77.0,0,14,4.0,66.0
138,63.0,0,14,0.0,66.0
139,75.0,15,14,4.0,66.0
140,57.0,60,59,6.0,66.0
141,77.0,15,14,4.0,66.0
142,65.0,0,14,0.0,66.0
143,57.0,0,59,1.0,66.0
144,63.0,0,14,0.0,66.0
145,75.0,0,14,4.0,66.0
146,65.0,15,14,0.0,66.0
147,77.0,0,14,4.0,66.0
148,75.0,15,14,4.0,66.0
149,63.0,0,14,0.0,66.0
150,77.0,15,14,4.0,66.0
151,29.0,0,119,8.0,66.0
152,65.0,0,14,0.0,66.0
153,58.0,0,59,1.0,66.0
154,58.0,15,59,6.0,66.0
155,75.0,0,14,4.0,66.0
156,63.0,0,14,0.0,66.0
157,65.0,15,14,0.0,66.0
158,77.0,0,14,4.0,66.0
159,63.0,15,14,0.0,66.0
160,75.0,0,14,4.0,66.0
161,65.0,15,14,0.0,66.0
162,55.0,0,59,1.0,66.0
163,55.0,0,59,6.0,66.0
164,77.0,0,14,4.0,66.0
165,75.0,15,14,4.0,66.0
166,63.0,0,14,0.0,66.0
167,77.0,15,14,4.0,66.0
168,65.0,0,14,0.0,66.0
169,74.0,15,14,4.0,66.0
170,62.0,0,14,0.0,66.0
171,63.0,15,14,0.0,66.0
172,60.0,0,119,0.0,66.0
173,57.0,0,59,6.0,66.0
174,72.0,15,119,5.0,66.0
175,75.0,0,14,4.0,66.0
176,57.0,0,59,1.0,66.0
177,58.0,0,119,6.0,66.0
178,34.0,15,119,8.0,66.0
179,62.0,0,239,0.0,66.0
180,58.0,0,239,0.0,66.0
181,74.0,0,239,4.0,66.0
182,62.0,0,119,3.0,48.0
183,65.0,0,239,5.0,66.0
184,46.0,120,119,8.0,66.0
185,58.0,0,239,1.0,66.0
186,70.0,0,119,6.0,66.0
187,55.0,0,119,3.0,48.0
188,65.0,0,119,6.0,66.0
189,41.0,0,119,8.0,66.0
190,62.0,0,119,3.0,48.0
191,55.0,120,119,3.0,48.0
192,55.0,120,119,3.0,48.0
193,62.0,0,119,3.0,48.0
194,62.0,0,119,6.0,66.0
195,38.0,0,119,8.0,66.0
196,62.0,0,239,3.0,48.0
197,65.0,120,119,1.0,40.0
198,58.0,0,239,6.0,48.0
199,62.0,0,119,1.0,40.0
200,34.0,120,239,8.0,66.0
201,55.0,0,239,3.0,48.0
202,60.0,120,119,1.0,40.0
203,65.0,0,359,4.0,48.0
204,65.0,0,359,11.0,60.0
205,63.0,0,119,1.0,40.0
206,58.0,0,119,1.0,40.0
207,62.0,0,119,1.0,40.0
208,74.0,0,119,11.0,60.0
209,58.0,120,119,6.0,48.0
210,58.0,0,119,7.0,48.0
211,74.0,0,119,4.0,48.0
212,65.0,0,119,5.0,48.0
213,72.0,0,59,11.0,60.0
214,72.0,120,59,4.0,48.0
215,63.0,0,119,7.0,48.0
216,69.0,0,59,4.0,48.0
217,69.0,60,59,11.0,60.0
218,63.0,0,119,6.0,48.0
219,70.0,0,59,4.0,48.0
220,70.0,60,29,4.0,48.0
221,58.0,60,119,1.0,40.0
222,62.0,0,119,1.0,40.0
223,62.0,0,119,7.0,48.0
224,62.0,0,119,6.0,48.0
225,65.0,0,239,5.0,48.0
226,70.0,0,119,11.0,60.0
227,74.0,0,59,4.0,48.0
228,65.0,0,119,1.0,40.0
229,77.0,60,59,4.0,48.0
230,62.0,60,119,1.0,40.0
231,82.0,0,59,4.0,48.0
232,58.0,0,119,7.0,48.0
233,86.0,60,59,4.0,48.0
234,58.0,0,119,1.0,40.0
235,70.0,60,119,6.0,48.0
236,62.0,0,119,1.0,40.0
237,74.0,0,119,5.0,48.0
238,74.0,0,119,11.0,60.0
239,72.0,0,59,11.0,60.0
240,84.0,0,59,4.0,48.0
241,72.0,0,119,5.0,48.0
242,81.0,60,59,4.0,48.0
243,69.0,0,59,11.0,60.0
244,63.0,0,119,7.0,48.0
245,69.0,60,119,6.0,48.0
246,82.0,60,59,4.0,48.0
247,74.0,0,119,5.0,48.0
248,70.0,0,119,11.0,60.0
249,70.0,0,119,6.0,48.0
250,62.0,0,119,7.0,48.0
251,65.0,0,119,1.0,40.0
252,62.0,0,119,1.0,40.0
253,63.0,0,119,1.0,40.0
254,60.0,120,119,1.0,40.0
255,34.0,0,119,8.0,48.0
256,82.0,0,119,4.0,48.0
257,70.0,0,119,11.0,60.0
258,58.0,0,119,1.0,40.0
259,62.0,0,119,6.0,48.0
260,65.0,120,119,5.0,48.0
261,62.0,0,119,1.0,40.0
262,67.0,0,119,5.0,48.0
263,67.0,0,119,1.0,40.0
264,82.0,0,119,4.0,48.0
265,63.0,0,119,6.0,48.0
266,39.0,0,119,8.0,48.0
267,70.0,120,119,11.0,60.0
268,63.0,0,119,1.0,40.0
269,81.0,0,59,4.0,48.0
270,69.0,0,59,11.0,60.0
271,67.0,0,119,5.0,48.0
272,70.0,60,59,11.0,60.0
273,82.0,0,59,4.0,48.0
274,63.0,120,119,6.0,48.0
275,72.0,60,59,11.0,60.0
276,84.0,0,59,4.0,48.0
277,38.0,0,119,8.0,48.0
278,82.0,0,59,4.0,48.0
279,70.0,60,59,11.0,60.0
280,69.0,0,59,11.0,60.0
281,81.0,0,59,4.0,48.0
282,67.0,60,59,11.0,60.0
283,70.0,60,119,5.0,48.0
284,62.0,0,119,6.0,48.0
285,79.0,0,59,4.0,48.0
286,65.0,0,179,1.0,48.0
287,36.0,0,119,8.0,48.0
288,62.0,60,59,1.0,48.0
289,55.0,0,59,6.0,48.0
290,60.0,60,59,6.0,48.0
291,67.0,0,59,1.0,48.0
292,58.0,0,59,6.0,48.0
293,67.0,0,119,5.0,48.0
294,77.0,60,239,4.0,48.0
295,65.0,60,59,1.0,48.0
296,65.0,0,239,11.0,60.0
297,75.0,0,14,4.0,48.0
298,77.0,15,14,4.0,48.0
299,63.0,60,29,11.0,60.0
300,75.0,0,14,4.0,48.0
301,77.0,15,14,4.0,48.0
302,65.0,15,29,11.0,60.0
303,63.0,0,59,1.0,48.0
304,57.0,0,59,6.0,48.0
305,75.0,15,14,4.0,48.0
306,77.0,15,14,4.0,48.0
307,63.0,0,29,11.0,60.0
308,75.0,0,14,4.0,48.0
309,77.0,15,14,4.0,48.0
310,65.0,0,59,1.0,48.0
311,65.0,15,29,11.0,60.0
312,29.0,0,119,8.0,48.0
313,58.0,0,59,6.0,48.0
314,75.0,0,14,4.0,48.0
315,63.0,0,29,11.0,60.0
316,77.0,15,14,4.0,48.0
317,75.0,0,14,4.0,48.0
318,77.0,15,14,4.0,48.0
319,65.0,15,29,11.0,60.0
320,62.0,0,59,1.0,48.0
321,55.0,15,59,6.0,48.0
322,65.0,0,119,5.0,48.0
323,57.0,0,59,6.0,48.0
324,62.0,15,59,11.0,60.0
325,74.0,0,59,4.0,48.0
326,63.0,0,59,1.0,48.0
327,58.0,0,119,6.0,48.0
328,34.0,0,119,8.0,48.0
329,62.0,0,239,11.0,60.0
330,65.0,0,239,1.0,48.0
331,62.0,120,119,6.0,48.0
332,65.0,60,239,5.0,48.0
333,74.0,0,239,4.0,48.0
334,46.0,0,119,8.0,48.0
335,65.0,120,119,6.0,48.0
336,70.0,0,359,10.0,60.0
337,50.0,0,119,8.0,48.0
338,62.0,0,119,6.0,48.0
339,74.0,0,119,4.0,48.0
340,74.0,0,119,10.0,60.0
341,70.0,120,119,5.0,48.0
342,46.0,0,119,8.0,48.0
343,77.0,120,59,10.0,60.0
344,77.0,0,119,4.0,48.0
345,74.0,60,59,10.0,60.0
346,74.0,0,119,5.0,48.0
347,46.0,0,119,8.0,48.0
348,74.0,0,119,4.0,48.0
349,74.0,0,119,0.0,66.0
350,74.0,0,119,10.0,60.0
351,62.0,60,119,6.0,48.0
352,70.0,0,119,5.0,48.0
353,77.0,0,59,0.0,66.0
354,50.0,0,119,8.0,48.0
355,74.0,60,59,0.0,66.0
356,65.0,120,119,6.0,48.0
357,74.0,0,59,0.0,66.0
358,70.0,60,119,5.0,48.0
359,74.0,0,119,10.0,60.0
360,46.0,0,119,8.0,48.0
361,74.0,0,119,4.0,48.0
362,62.0,0,119,6.0,48.0
363,77.0,120,59,10.0,60.0
364,72.0,60,59,10.0,60.0
365,72.0,0,119,5.0,48.0
366,77.0,0,119,4.0,48.0
367,69.0,0,119,5.0,48.0
368,72.0,60,119,10.0,60.0
369,45.0,0,119,8.0,48.0
370,72.0,0,119,4.0,48.0
371,60.0,0,119,6.0,48.0
372,72.0,0,119,0.0,66.0
373,77.0,120,59,0.0,66.0
374,69.0,0,119,6.0,48.0
375,72.0,60,59,0.0,66.0
376,50.0,0,119,8.0,48.0
377,72.0,0,59,0.0,66.0
378,60.0,0,119,6.0,48.0
379,72.0,60,119,10.0,60.0
380,45.0,0,119,8.0,48.0
381,69.0,0,119,5.0,48.0
382,72.0,0,119,4.0,48.0
383,77.0,120,119,10.0,60.0
384,77.0,0,119,4.0,48.0
385,69.0,0,119,5.0,48.0
386,76.0,0,119,4.0,48.0
387,76.0,120,119,10.0,60.0
388,57.0,0,119,6.0,48.0
389,41.0,0,119,8.0,48.0
390,72.0,0,119,5.0,48.0
391,74.0,0,119,4.0,48.0
392,65.0,0,119,6.0,48.0
393,41.0,0,119,8.0,48.0
394,74.0,120,119,10.0,60.0
395,69.0,120,119,5.0,48.0
396,57.0,0,119,6.0,48.0
397,72.0,0,119,10.0,60.0
398,72.0,0,119,4.0,48.0
399,42.0,0,119,8.0,48.0
400,70.0,0,59,4.0,48.0
401,70.0,0,89,10.0,60.0
402,62.0,60,59,0.0,66.0
403,43.0,120,119,8.0,48.0
404,55.0,0,119,6.0,48.0
405,70.0,30,29,10.0,60.0
406,62.0,0,59,5.0,48.0
407,64.0,30,59,0.0,66.0
408,64.0,0,59,5.0,48.0
409,65.0,60,59,0.0,66.0
410,53.0,0,119,6.0,48.0
411,74.0,0,119,4.0,48.0
412,65.0,0,59,5.0,48.0
413,70.0,0,119,10.0,60.0
414,41.0,0,119,8.0,48.0
415,67.0,0,59,5.0,48.0
416,67.0,0,59,0.0,66.0
417,69.0,60,59,5.0,48.0
418,69.0,0,59,0.0,66.0
419,76.0,0,119,4.0,48.0
420,40.0,0,119,8.0,48.0
421,52.0,60,119,6.0,48.0
422,65.0,0,59,5.0,48.0
423,65.0,0,59,0.0,66.0
424,38.0,0,119,8.0,48.0
425,77.0,60,119,4.0,48.0
426,50.0,0,119,6.0,48.0
427,67.0,0,59,0.0,66.0
428,70.0,0,119,10.0,60.0
429,67.0,60,59,5.0,48.0
430,36.0,0,239,8.0,48.0
431,48.0,0,239,6.0,48.0
432,64.0,0,239,5.0,48.0
433,64.0,0,239,0.0,66.0
434,79.0,60,239,10.0,60.0
435,79.0,0,239,4.0,48.0
436,77.0,240,59,10.0,60.0
437,76.0,60,59,10.0,60.0
438,74.0,60,59,10.0,60.0
439,72.0,60,59,10.0,60.0
440,72.0,60,239,10.0,60.0
441,36.0,0,119,8.0,48.0
442,52.0,120,119,6.0,48.0
443,70.0,0,29,10.0,60.0
444,72.0,30,29,10.0,60.0
445,70.0,30,29,10.0,60.0
446,72.0,30,29,10.0,60.0
447,60.0,0,239,5.0,48.0
448,72.0,0,239,4.0,48.0
449,38.0,120,119,8.0,48.0
450,53.0,0,119,6.0,48.0
451,70.0,30,29,10.0,60.0
452,72.0,30,29,10.0,60.0
453,60.0,0,119,5.0,48.0
454,40.0,0,119,8.0,48.0
455,70.0,0,119,4.0,48.0
456,69.0,30,59,10.0,60.0
457,55.0,0,119,6.0,48.0
458,60.0,60,119,5.0,48.0
459,60.0,0,59,5.0,48.0
460,60.0,0,59,11.0,60.0
461,69.0,0,239,10.0,60.0
462,41.0,0,239,8.0,48.0
463,53.0,0,239,6.0,48.0
464,69.0,0,239,4.0,60.0
465,60.0,60,59,11.0,60.0
466,60.0,120,119,3.0,48.0
467,65.0,0,119,3.0,48.0
468,65.0,60,119,5.0,48.0
469,65.0,0,119,11.0,60.0
470,81.0,120,59,4.0,60.0
471,53.0,0,59,13.0,60.0
472,60.0,0,119,5.0,48.0
473,41.0,0,119,8.0,48.0
474,53.0,0,119,1.0,48.0
475,65.0,0,479,0.0,48.0
476,69.0,0,479,0.0,48.0
477,53.0,60,59,13.0,60.0
478,60.0,0,119,3.0,48.0
479,60.0,0,119,11.0,60.0
480,40.0,0,119,8.0,48.0
481,52.0,0,119,1.0,48.0
482,52.0,0,119,13.0,60.0
483,82.0,0,179,4.0,60.0
484,64.0,120,59,5.0,48.0
485,55.0,0,119,13.0,60.0
486,60.0,0,119,3.0,48.0
487,79.0,60,59,4.0,60.0
488,55.0,0,119,1.0,48.0
489,43.0,0,119,8.0,48.0
490,60.0,0,119,11.0,60.0
491,36.0,60,59,8.0,48.0
492,76.0,0,59,4.0,60.0
493,48.0,0,59,1.0,48.0
494,72.0,60,29,4.0,60.0
495,48.0,0,119,13.0,60.0
496,67.0,0,119,11.0,60.0
497,67.0,0,119,5.0,48.0
498,67.0,0,119,3.0,48.0
499,72.0,0,29,4.0,60.0
500,58.0,0,59,1.0,48.0
501,64.0,0,59,12.0,60.0
502,46.0,0,59,8.0,48.0
503,72.0,60,59,10.0,60.0
504,72.0,0,29,4.0,60.0
505,60.0,0,119,11.0,60.0
506,60.0,0,119,3.0,48.0
507,58.0,0,119,6.0,48.0
508,64.0,60,59,12.0,60.0
509,64.0,0,119,3.0,48.0
510,72.0,0,59,10.0,60.0
511,64.0,0,119,5.0,48.0
512,72.0,0,119,10.0,60.0
513,57.0,0,119,6.0,48.0
514,65.0,0,119,3.0,48.0
515,65.0,0,119,12.0,60.0
516,72.0,60,119,4.0,60.0
517,60.0,0,59,5.0,48.0
518,60.0,0,59,6.0,48.0
519,77.0,120,119,4.0,60.0
520,60.0,0,119,3.0,48.0
521,45.0,0,239,8.0,48.0
522,77.0,0,119,10.0,60.0
523,57.0,0,119,3.0,48.0
524,60.0,0,119,12.0,60.0
525,57.0,0,239,1.0,48.0
526,60.0,0,119,11.0,60.0
527,72.0,120,119,10.0,60.0
528,69.0,0,119,11.0,60.0
529,69.0,0,119,3.0,48.0
530,65.0,0,119,6.0,48.0
531,72.0,0,119,4.0,60.0
532,69.0,0,119,5.0,48.0
533,81.0,0,59,4.0,60.0
534,69.0,0,59,11.0,60.0
535,53.0,120,119,1.0,48.0
536,69.0,60,59,11.0,60.0
537,41.0,0,119,8.0,48.0
538,69.0,0,119,3.0,48.0
539,53.0,0,119,13.0,60.0
540,60.0,0,119,6.0,48.0
541,65.0,0,119,5.0,48.0
542,52.0,0,119,13.0,60.0
543,70.0,60,119,3.0,48.0
544,40.0,0,119,8.0,48.0
545,52.0,0,119,1.0,48.0
546,70.0,0,119,11.0,60.0
547,64.0,120,59,5.0,48.0
548,82.0,0,179,4.0,60.0
549,79.0,60,59,4.0,60.0
550,67.0,0,119,3.0,48.0
551,67.0,0,239,6.0,48.0
552,43.0,0,119,8.0,48.0
553,55.0,0,119,1.0,48.0
554,67.0,0,119,11.0,60.0
555,55.0,0,119,13.0,60.0
556,76.0,0,59,4.0,60.0
557,48.0,0,59,1.0,48.0
558,36.0,0,59,8.0,48.0
559,72.0,60,29,4.0,60.0
560,67.0,0,119,5.0,48.0
561,64.0,0,119,3.0,48.0
562,48.0,60,119,13.0,60.0
563,64.0,0,119,11.0,60.0
564,72.0,0,29,4.0,60.0
565,58.0,0,59,1.0,48.0
566,46.0,60,59,8.0,48.0
567,72.0,60,29,4.0,60.0
568,72.0,0,119,10.0,60.0
569,60.0,0,119,11.0,60.0
570,64.0,0,119,3.0,48.0
571,64.0,0,119,5.0,48.0
572,58.0,0,119,6.0,48.0
573,64.0,0,119,12.0,60.0
574,60.0,0,119,3.0,48.0
575,72.0,60,119,4.0,60.0
576,57.0,0,119,6.0,48.0
577,72.0,0,119,10.0,60.0
578,65.0,0,119,12.0,60.0
579,65.0,0,119,3.0,48.0
580,45.0,0,239,8.0,48.0
581,60.0,0,119,12.0,60.0
582,77.0,0,119,10.0,60.0
583,57.0,0,119,13.0,60.0
584,60.0,0,239,11.0,60.0
585,60.0,0,1679,0.0,48.0
586,57.0,0,239,1.0,48.0
587,60.0,120,119,3.0,48.0
588,60.0,0,119,6.0,48.0
589,65.0,0,119,5.0,48.0
590,77.0,0,119,4.0,60.0
591,53.0,120,119,13.0,60.0
592,69.0,0,119,0.0,48.0
593,53.0,0,119,1.0,48.0
594,72.0,0,119,10.0,60.0
595,41.0,0,119,8.0,48.0
596,65.0,0,119,6.0,48.0
597,72.0,0,119,5.0,48.0
598,81.0,0,119,4.0,60.0
599,67.0,0,59,11.0,60.0
600,51.0,120,59,13.0,60.0
601,51.0,0,119,1.0,48.0
602,67.0,0,59,11.0,60.0
603,63.0,0,119,6.0,48.0
604,39.0,0,119,8.0,48.0
605,72.0,0,119,5.0,48.0
606,67.0,0,119,3.0,48.0
607,79.0,0,119,4.0,60.0
608,51.0,60,59,13.0,60.0
609,67.0,0,119,0.0,48.0
610,66.0,60,119,11.0,60.0
611,38.0,0,119,8.0,48.0
612,62.0,0,119,6.0,48.0
613,78.0,0,119,4.0,60.0
614,66.0,0,119,0.0,48.0
615,66.0,0,119,3.0,48.0
616,50.0,0,119,1.0,48.0
617,42.0,0,119,8.0,48.0
618,69.0,0,119,3.0,48.0
619,81.0,0,119,4.0,60.0
620,54.0,0,119,1.0,48.0
621,66.0,120,119,6.0,48.0
622,69.0,0,119,0.0,48.0
623,69.0,0,119,11.0,60.0
624,62.0,0,119,3.0,48.0
625,69.0,0,119,6.0,48.0
626,62.0,0,119,0.0,48.0
627,74.0,0,119,4.0,60.0
628,72.0,0,359,5.0,48.0
629,50.0,0,359,13.0,60.0
630,62.0,120,119,11.0,60.0
631,76.0,0,59,4.0,60.0
632,64.0,0,59,3.0,48.0
633,72.0,0,59,10.0,60.0
634,64.0,0,59,0.0,48.0
635,50.0,120,119,1.0,48.0
636,65.0,0,119,11.0,60.0
637,62.0,0,119,6.0,48.0
638,72.0,0,59,10.0,60.0
639,38.0,0,119,8.0,48.0
640,50.0,0,119,13.0,60.0
641,65.0,60,59,3.0,48.0
642,72.0,0,119,5.0,48.0
643,72.0,60,2399,0.0,48.0
644,66.0,0,59,0.0,48.0
645,78.0,0,59,4.0,60.0
646,71.0,0,119,10.0,60.0
647,71.0,0,119,5.0,48.0
648,71.0,0,119,0.0,48.0
649,55.0,0,119,1.0,48.0
650,43.0,60,119,8.0,48.0
651,59.0,0,119,1.0,48.0
652,55.0,0,239,13.0,60.0
653,74.0,0,119,0.0,48.0
654,62.0,0,239,6.0,48.0
655,47.0,0,119,8.0,48.0
656,74.0,120,119,10.0,60.0
657,74.0,0,119,5.0,48.0
658,67.0,0,119,0.0,48.0
659,67.0,0,119,5.0,48.0
660,55.0,120,119,13.0,60.0
661,67.0,0,119,10.0,60.0
662,79.0,0,359,4.0,60.0
663,65.0,0,59,12.0,60.0
664,69.0,0,59,5.0,48.0
665,69.0,0,59,0.0,48.0
666,43.0,0,119,8.0,48.0
667,65.0,0,119,3.0,48.0
668,55.0,0,119,1.0,48.0
669,71.0,0,59,5.0,48.0
670,55.0,120,119,13.0,60.0
671,65.0,0,119,0.0,48.0
672,65.0,60,59,12.0,60.0
673,71.0,0,59,0.0,48.0
674,71.0,0,119,10.0,60.0
675,62.0,0,119,6.0,48.0
676,77.0,0,119,4.0,60.0
677,64.0,0,119,0.0,48.0
678,60.0,0,119,6.0,48.0
679,76.0,0,119,4.0,60.0
680,64.0,0,119,3.0,48.0
681,48.0,0,119,1.0,48.0
682,64.0,60,119,12.0,60.0
683,36.0,0,119,8.0,48.0
684,67.0,0,719,11.0,60.0
685,79.0,0,119,4.0,60.0
686,67.0,0,119,3.0,48.0
687,67.0,0,119,0.0,48.0
688,64.0,0,119,6.0,48.0
689,67.0,120,119,12.0,60.0
690,40.0,0,119,8.0,48.0
691,52.0,0,119,1.0,48.0
692,48.0,0,239,13.0,60.0
693,72.0,0,239,10.0,60.0
694,67.0,0,119,11.0,60.0
695,72.0,0,359,0.0,48.0
696,60.0,0,119,0.0,48.0
697,48.0,0,119,13.0,60.0
698,60.0,120,119,3.0,48.0
699,72.0,0,359,5.0,48.0
700,60.0,0,119,12.0,60.0
701,67.0,0,119,6.0,48.0
702,72.0,0,119,4.0,60.0
703,72.0,0,119,10.0,60.0
704,74.0,0,59,4.0,60.0
705,62.0,0,59,0.0,48.0
706,36.0,0,119,8.0,48.0
707,64.0,0,59,0.0,48.0
708,70.0,0,119,0.0,48.0
709,64.0,0,119,12.0,60.0
710,60.0,0,119,6.0,48.0
711,48.0,0,119,13.0,60.0
712,67.0,0,119,11.0,60.0
713,76.0,60,59,4.0,60.0
714,70.0,0,119,10.0,60.0
715,48.0,0,119,1.0,48.0
716,70.0,120,119,5.0,48.0
717,64.0,0,119,3.0,48.0
718,65.0,0,119,0.0,48.0
719,65.0,0,119,3.0,48.0
720,77.0,0,119,4.0,60.0
721,69.0,0,119,10.0,60.0
722,69.0,0,119,5.0,48.0
723,65.0,0,119,6.0,48.0
724,41.0,0,119,8.0,48.0
725,65.0,0,119,11.0,60.0
726,69.0,0,119,0.0,48.0
727,67.0,0,119,0.0,48.0
728,67.0,0,119,11.0,60.0
729,70.0,0,119,0.0,48.0
730,70.0,0,119,5.0,48.0
731,65.0,60,239,12.0,60.0
732,53.0,0,239,13.0,60.0
733,70.0,0,119,10.0,60.0
734,67.0,120,119,6.0,48.0
735,29.0,0,119,8.0,48.0
736,67.0,0,119,3.0,48.0
737,68.0,0,119,3.0,48.0
738,68.0,0,119,11.0,60.0
739,65.0,120,119,12.0,60.0
740,53.0,0,119,13.0,60.0
741,71.0,0,119,0.0,48.0
742,71.0,0,119,5.0,48.0
743,68.0,0,119,6.0,48.0
744,71.0,0,119,10.0,60.0
745,68.0,0,119,0.0,48.0
746,77.0,0,239,4.0,60.0
747,41.0,0,119,8.0,48.0
748,53.0,0,479,1.0,48.0
749,72.0,0,119,10.0,60.0
750,69.0,0,119,3.0,48.0
751,72.0,120,119,5.0,48.0
752,69.0,0,119,11.0,60.0
753,69.0,0,119,0.0,48.0
754,65.0,0,119,12.0,60.0
755,77.0,0,119,4.0,60.0
756,72.0,0,119,0.0,48.0
757,53.0,0,119,13.0,60.0
758,69.0,0,119,6.0,48.0
759,69.0,0,119,3.0,48.0
760,69.0,0,119,6.0,48.0
761,69.0,0,119,11.0,60.0
762,73.0,0,119,5.0,48.0
763,69.0,0,119,0.0,48.0
764,34.0,0,119,8.0,48.0
765,73.0,0,119,0.0,48.0
766,73.0,0,119,10.0,60.0
767,85.0,0,119,4.0,60.0
768,74.0,0,119,0.0,48.0
769,74.0,120,119,10.0,60.0
770,65.0,0,719,1.0,48.0
771,70.0,0,119,11.0,60.0
772,46.0,0,239,13.0,60.0
773,74.0,0,119,5.0,48.0
774,70.0,0,119,6.0,48.0
775,65.0,0,239,12.0,60.0
776,86.0,0,119,4.0,60.0
777,70.0,0,119,3.0,48.0
778,70.0,0,119,0.0,48.0
779,46.0,0,119,8.0,48.0
780,67.0,0,59,11.0,60.0
781,67.0,0,59,6.0,48.0
782,64.0,0,59,3.0,48.0
783,64.0,0,59,1.0,48.0
784,64.0,0,59,12.0,60.0
785,72.0,120,59,0.0,48.0
786,72.0,0,59,10.0,60.0
787,67.0,0,59,3.0,48.0
788,76.0,0,59,5.0,48.0
789,67.0,0,59,0.0,48.0
790,84.0,0,59,4.0,60.0
791,82.0,60,59,4.0,60.0
792,74.0,0,59,5.0,48.0
793,65.0,0,59,3.0,48.0
794,62.0,0,59,12.0,60.0
795,70.0,0,59,0.0,48.0
796,70.0,0,59,10.0,60.0
797,46.0,0,119,13.0,60.0
798,65.0,0,59,6.0,48.0
799,46.0,120,359,1.0,48.0
800,62.0,0,59,1.0,48.0
801,62.0,0,59,3.0,48.0
802,65.0,0,59,11.0,60.0
803,65.0,0,59,0.0,48.0
804,64.0,0,59,6.0,48.0
805,60.0,0,59,3.0,48.0
806,81.0,0,59,4.0,60.0
807,64.0,0,59,11.0,60.0
808,64.0,0,59,0.0,48.0
809,64.0,0,59,3.0,48.0
810,69.0,0,59,0.0,48.0
811,72.0,0,59,5.0,48.0
812,60.0,0,59,12.0,60.0
813,69.0,0,59,10.0,60.0
814,60.0,60,59,1.0,48.0
815,62.0,0,59,11.0,60.0
816,58.0,0,59,12.0,60.0
817,62.0,0,59,3.0,48.0
818,79.0,60,59,4.0,60.0
819,58.0,0,59,3.0,48.0
820,70.0,0,59,5.0,48.0
821,62.0,0,59,6.0,48.0
822,34.0,0,119,8.0,48.0
823,46.0,0,119,13.0,60.0
824,62.0,0,59,0.0,48.0
825,67.0,0,59,10.0,60.0
826,46.0,0,119,1.0,48.0
827,58.0,0,59,1.0,48.0
828,67.0,0,59,0.0,48.0
829,36.0,0,119,8.0,48.0
830,60.0,60,119,6.0,48.0
831,48.0,0,119,8.0,48.0
832,60.0,120,119,6.0,48.0
833,65.0,0,329,0.0,48.0
834,65.0,0,329,10.0,60.0
835,77.0,0,329,4.0,60.0
836,69.0,0,329,5.0,48.0
837,72.0,0,29,5.0,48.0
838,81.0,90,29,4.0,60.0
839,60.0,120,119,6.0,48.0
840,60.0,0,359,3.0,48.0
841,57.0,0,359,3.0,48.0
842,57.0,0,359,1.0,48.0
843,69.0,0,29,10.0,60.0
844,60.0,0,359,0.0,48.0
845,57.0,0,359,12.0,60.0
846,69.0,0,29,0.0,48.0
847,48.0,0,359,1.0,48.0
848,48.0,0,359,13.0,60.0
849,60.0,0,359,11.0,60.0
850,52.0,0,119,1.0,48.0
851,58.0,30,119,12.0,60.0
852,70.0,0,119,5.0,48.0
853,37.0,0,119,8.0,48.0
854,64.0,0,119,3.0,48.0
855,61.0,0,119,6.0,48.0
856,79.0,0,119,4.0,60.0
857,58.0,0,119,0.0,48.0
858,67.0,0,119,0.0,48.0
859,49.0,0,119,13.0,60.0
860,58.0,0,119,3.0,48.0
861,64.0,0,119,11.0,60.0
862,49.0,0,119,1.0,48.0
863,67.0,0,119,10.0,60.0
864,77.0,0,119,4.0,60.0
865,65.0,0,119,0.0,48.0
866,57.0,0,119,0.0,48.0
867,65.0,0,119,11.0,60.0
868,69.0,120,119,5.0,48.0
869,62.0,0,119,6.0,48.0
870,65.0,0,119,10.0,60.0
871,38.0,0,119,8.0,48.0
872,74.0,0,59,10.0,60.0
873,74.0,0,59,4.0,60.0
874,65.0,0,59,5.0,48.0
875,65.0,0,59,11.0,60.0
876,65.0,0,239,3.0,48.0
877,50.0,0,239,13.0,60.0
878,74.0,0,119,6.0,48.0
879,74.0,0,59,10.0,60.0
880,50.0,0,239,1.0,48.0
881,50.0,120,119,8.0,48.0
882,53.0,0,239,1.0,48.0
883,65.0,0,119,0.0,48.0
884,57.0,0,239,3.0,48.0
885,65.0,60,59,11.0,60.0
886,57.0,0,239,12.0,60.0
887,74.0,0,119,0.0,48.0
888,77.0,0,119,0.0,48.0
889,77.0,0,119,4.0,60.0
890,77.0,0,119,10.0,60.0
891,69.0,0,119,11.0,60.0
892,69.0,60,119,5.0,48.0
893,69.0,0,119,0.0,48.0
894,50.0,0,59,13.0,60.0
895,57.0,0,59,12.0,60.0
896,50.0,60,59,13.0,60.0
897,74.0,0,119,0.0,48.0
898,65.0,0,119,5.0,48.0
899,57.0,0,119,3.0,48.0
900,62.0,120,119,6.0,48.0
901,57.0,0,59,12.0,60.0
902,57.0,0,119,1.0,48.0
903,65.0,0,119,0.0,48.0
904,50.0,0,119,3.0,48.0
905,74.0,0,119,4.0,60.0
906,50.0,0,119,1.0,48.0
907,38.0,0,119,8.0,48.0
908,65.0,0,119,11.0,60.0
909,74.0,0,119,10.0,60.0
910,62.0,60,119,3.0,48.0
911,62.0,0,119,13.0,60.0
912,65.0,0,119,3.0,48.0
913,50.0,0,119,8.0,48.0
914,65.0,0,119,12.0,60.0
915,65.0,0,119,1.0,48.0
916,62.0,0,119,1.0,48.0
917,65.0,0,119,6.0,48.0
918,69.0,0,119,5.0,48.0
919,60.0,0,119,1.0,48.0
920,64.0,0,119,6.0,48.0
921,48.0,0,119,8.0,48.0
922,60.0,0,119,13.0,60.0
923,64.0,0,119,3.0,48.0
924,60.0,0,119,3.0,48.0
925,64.0,120,119,12.0,60.0
926,69.0,0,119,11.0,60.0
927,69.0,0,119,0.0,48.0
928,64.0,0,119,1.0,48.0
929,59.0,0,119,13.0,60.0
930,71.0,0,119,0.0,48.0
931,62.0,0,119,3.0,48.0
932,59.0,0,119,3.0,48.0
933,71.0,0,119,5.0,48.0
934,47.0,120,119,8.0,48.0
935,59.0,0,119,1.0,48.0
936,62.0,0,119,12.0,60.0
937,71.0,0,119,11.0,60.0
938,62.0,0,119,1.0,48.0
939,62.0,0,119,6.0,48.0
940,60.0,0,119,3.0,48.0
941,57.0,0,119,3.0,48.0
942,72.0,0,119,5.0,48.0
943,60.0,0,119,12.0,60.0
944,77.0,0,119,4.0,60.0
945,77.0,0,119,10.0,60.0
946,60.0,0,119,6.0,48.0
947,57.0,0,119,13.0,60.0
948,45.0,0,119,8.0,48.0
949,72.0,0,119,0.0,48.0
950,60.0,120,119,1.0,48.0
951,72.0,0,119,11.0,60.0
952,57.0,0,119,1.0,48.0
953,74.0,0,119,5.0,48.0
954,74.0,0,119,11.0,60.0
955,59.0,0,119,12.0,60.0
956,59.0,0,119,1.0,48.0
957,55.0,0,119,1.0,48.0
958,43.0,0,119,8.0,48.0
959,74.0,0,119,0.0,48.0
960,59.0,0,119,3.0,48.0
961,59.0,120,119,6.0,48.0
962,77.0,0,119,10.0,60.0
963,77.0,0,119,4.0,60.0
964,60.0,0,119,1.0,48.0
965,55.0,0,239,3.0,48.0
966,43.0,0,119,1.0,48.0
967,72.0,0,119,0.0,48.0
968,60.0,0,119,12.0,60.0
969,60.0,0,119,3.0,48.0
970,31.0,0,119,8.0,48.0
971,72.0,0,119,5.0,48.0
972,81.0,0,119,4.0,60.0
973,55.0,0,239,13.0,60.0
974,72.0,0,119,11.0,60.0
975,81.0,0,119,10.0,60.0
976,60.0,120,119,6.0,48.0
977,71.0,0,119,11.0,60.0
978,55.0,0,119,13.0,60.0
979,79.0,0,119,10.0,60.0
980,79.0,120,119,4.0,60.0
981,62.0,0,119,12.0,60.0
982,62.0,0,119,6.0,48.0
983,71.0,0,119,5.0,48.0
984,71.0,0,119,0.0,48.0
985,62.0,0,119,3.0,48.0
986,62.0,0,119,1.0,48.0
987,77.0,0,119,4.0,60.0
988,55.0,0,119,1.0,48.0
989,62.0,0,119,3.0,48.0
990,71.0,0,119,5.0,48.0
991,71.0,0,119,0.0,48.0
992,62.0,120,119,1.0,48.0
993,43.0,0,119,8.0,48.0
994,71.0,0,119,11.0,60.0
995,62.0,0,119,12.0,60.0
996,67.0,0,119,3.0,48.0
997,55.0,0,119,13.0,60.0
998,62.0,0,119,6.0,48.0
999,77.0,0,119,10.0,60.0
1000,77.0,0,59,4.0,60.0
1001,77.0,0,59,10.0,60.0
1002,76.0,60,59,10.0,60.0
1003,48.0,0,119,1.0,48.0
1004,72.0,0,119,0.0,48.0
1005,36.0,0,119,8.0,48.0
1006,76.0,0,59,4.0,60.0
1007,72.0,120,119,11.0,60.0
1008,72.0,0,119,5.0,48.0
1009,77.0,0,59,4.0,60.0
1010,67.0,0,179,12.0,60.0
1011,77.0,60,59,10.0,60.0
1012,67.0,0,179,6.0,48.0
1013,67.0,0,179,1.0,48.0
1014,67.0,0,179,3.0,48.0
1015,64.0,0,59,1.0,48.0
1016,48.0,0,239,13.0,60.0
1017,70.0,0,119,5.0,48.0
1018,60.0,0,119,1.0,48.0
1019,70.0,0,119,11.0,60.0
1020,64.0,0,59,12.0,60.0
1021,79.0,0,59,10.0,60.0
1022,64.0,60,59,3.0,48.0
1023,48.0,0,119,8.0,48.0
1024,64.0,0,59,6.0,48.0
1025,79.0,0,59,4.0,60.0
1026,70.0,0,119,0.0,48.0
1027,67.0,0,59,5.0,48.0
1028,70.0,0,59,4.0,60.0
1029,67.0,0,119,11.0,60.0
1030,48.0,0,119,13.0,60.0
1031,60.0,0,359,3.0,48.0
1032,70.0,0,119,10.0,60.0
1033,64.0,0,119,12.0,60.0
1034,64.0,0,119,1.0,48.0
1035,70.0,0,119,0.0,48.0
1036,67.0,0,119,0.0,48.0
1037,64.0,60,119,3.0,48.0
1038,64.0,0,119,6.0,48.0
1039,67.0,0,59,5.0,48.0
1040,62.0,0,59,6.0,48.0
1041,70.0,0,59,4.0,60.0
1042,62.0,0,59,3.0,48.0
1043,62.0,0,59,12.0,60.0
1044,62.0,0,59,1.0,48.0
1045,60.0,0,59,12.0,60.0
1046,70.0,0,119,10.0,60.0
1047,60.0,60,59,1.0,48.0
1048,52.0,0,119,1.0,48.0
1049,67.0,0,119,0.0,48.0
1050,60.0,0,59,3.0,48.0
1051,67.0,0,119,11.0,60.0
1052,70.0,0,119,0.0,48.0
1053,60.0,0,59,6.0,48.0
1054,40.0,120,119,8.0,48.0
1055,52.0,0,119,13.0,60.0
1056,60.0,0,119,1.0,48.0
1057,69.0,0,119,10.0,60.0
1058,72.0,60,119,0.0,48.0
1059,60.0,0,119,3.0,48.0
1060,41.0,0,119,8.0,48.0
1061,53.0,0,119,1.0,48.0
1062,53.0,0,119,13.0,60.0
1063,65.0,0,119,3.0,48.0
1064,69.0,0,119,4.0,60.0
1065,60.0,0,119,12.0,60.0
1066,60.0,0,119,6.0,48.0
1067,51.0,0,119,1.0,48.0
1068,57.0,120,119,12.0,60.0
1069,72.0,0,119,10.0,60.0
1070,57.0,0,119,1.0,48.0
1071,72.0,0,119,4.0,60.0
1072,51.0,0,119,13.0,60.0
1073,75.0,0,119,0.0,48.0
1074,65.0,0,239,11.0,60.0
1075,39.0,0,119,8.0,48.0
1076,57.0,0,119,6.0,48.0
1077,57.0,0,119,3.0,48.0
1078,58.0,0,59,6.0,48.0
1079,58.0,0,119,3.0,48.0
1080,69.0,0,359,0.0,48.0
1081,65.0,0,119,11.0,60.0
1082,74.0,0,119,0.0,48.0
1083,70.0,0,119,4.0,60.0
1084,65.0,0,359,5.0,48.0
1085,50.0,0,119,13.0,60.0
1086,50.0,0,119,1.0,48.0
1087,58.0,0,119,1.0,48.0
1088,65.0,0,239,3.0,48.0
1089,70.0,120,119,10.0,60.0
1090,38.0,0,119,8.0,48.0
1091,58.0,0,119,12.0,60.0
1092,58.0,0,59,6.0,48.0
1093,77.0,0,119,0.0,48.0
1094,74.0,0,119,10.0,60.0
1095,46.0,120,119,1.0,48.0
1096,62.0,0,119,11.0,60.0
1097,58.0,0,119,12.0,60.0
1098,74.0,0,119,4.0,60.0
1099,34.0,0,119,8.0,48.0
1100,62.0,0,119,3.0,48.0
1101,65.0,0,119,0.0,48.0
1102,62.0,0,119,5.0,48.0
1103,58.0,0,119,3.0,48.0
1104,58.0,0,119,1.0,48.0
1105,46.0,0,119,13.0,60.0
1106,36.0,0,119,8.0,48.0
1107,48.0,0,119,1.0,48.0
1108,60.0,0,239,5.0,60.0
1109,36.0,120,119,8.0,48.0
1110,48.0,0,119,1.0,48.0
1111,57.0,120,239,6.0,48.0
1112,65.0,0,239,4.0,60.0
1113,57.0,0,59,6.0,48.0
1114,65.0,0,59,4.0,60.0
1115,60.0,0,59,5.0,60.0
1116,65.0,0,329,0.0,48.0
1117,48.0,120,119,1.0,48.0
1118,60.0,0,359,0.0,48.0
1119,57.0,0,59,6.0,48.0
1120,60.0,0,359,11.0,60.0
1121,36.0,0,119,8.0,48.0
1122,60.0,0,59,5.0,60.0
1123,65.0,0,359,10.0,60.0
1124,57.0,0,359,1.0,48.0
1125,57.0,0,359,3.0,48.0
1126,60.0,0,359,3.0,48.0
1127,65.0,60,59,4.0,60.0
1128,57.0,0,359,12.0,60.0
1129,69.0,30,29,0.0,48.0
1130,48.0,0,359,13.0,60.0
1131,58.0,0,59,6.0,48.0
1132,67.0,0,59,4.0,60.0
1133,64.0,0,59,5.0,60.0
1134,58.0,60,59,6.0,48.0
1135,64.0,0,119,11.0,60.0
1136,55.0,0,119,3.0,48.0
1137,67.0,30,119,0.0,48.0
1138,58.0,0,119,12.0,60.0
1139,67.0,0,119,10.0,60.0
1140,64.0,0,59,5.0,60.0
1141,36.0,0,119,8.0,48.0
1142,48.0,0,119,13.0,60.0
1143,64.0,0,119,3.0,48.0
1144,58.0,0,119,1.0,48.0
1145,48.0,0,119,1.0,48.0
1146,67.0,0,59,4.0,60.0
1147,64.0,0,119,0.0,48.0
1148,65.0,0,119,3.0,48.0
1149,57.0,0,119,3.0,48.0
1150,65.0,0,119,0.0,48.0
1151,57.0,0,119,1.0,48.0
1152,65.0,0,119,0.0,84.0
1153,65.0,0,239,11.0,60.0
1154,65.0,0,239,5.0,60.0
1155,65.0,0,119,3.0,84.0
1156,69.0,0,119,0.0,84.0
1157,53.0,0,119,3.0,84.0
1158,57.0,0,239,6.0,48.0
1159,45.0,60,239,13.0,60.0
1160,65.0,0,239,4.0,60.0
1161,57.0,0,119,3.0,84.0
1162,60.0,120,119,1.0,84.0
1163,41.0,0,119,1.0,84.0
1164,65.0,0,239,10.0,60.0
1165,57.0,0,239,12.0,60.0
1166,65.0,0,119,2.0,84.0
1167,53.0,0,119,2.0,84.0
1168,41.0,0,239,8.0,48.0
1169,65.0,0,119,2.0,84.0
1170,53.0,0,119,2.0,84.0
1171,60.0,0,119,1.0,84.0
1172,53.0,0,119,3.0,84.0
1173,41.0,0,119,1.0,84.0
1174,57.0,0,119,3.0,84.0
1175,69.0,0,119,0.0,84.0
1176,65.0,120,119,0.0,84.0
1177,65.0,0,119,3.0,84.0
1178,57.0,0,119,3.0,84.0
1179,53.0,0,119,3.0,84.0
1180,65.0,0,119,3.0,84.0
1181,60.0,120,119,1.0,84.0
1182,53.0,0,119,2.0,84.0
1183,41.0,0,119,1.0,84.0
1184,65.0,0,119,0.0,84.0
1185,69.0,0,119,0.0,84.0
1186,65.0,0,119,2.0,84.0
1187,55.0,0,29,6.0,84.0
1188,67.0,0,29,4.0,84.0
1189,67.0,90,29,5.0,84.0
1190,53.0,0,59,6.0,84.0
1191,65.0,0,59,5.0,84.0
1192,65.0,30,59,4.0,84.0
1193,51.0,60,29,6.0,84.0
1194,63.0,0,29,5.0,84.0
1195,63.0,0,29,4.0,84.0
1196,53.0,30,29,6.0,84.0
1197,41.0,0,119,8.0,84.0
1198,65.0,0,29,4.0,84.0
1199,65.0,0,29,5.0,84.0
1200,69.0,0,59,5.0,84.0
1201,69.0,0,59,4.0,84.0
1202,57.0,30,59,6.0,84.0
1203,45.0,0,119,8.0,84.0
1204,65.0,120,59,4.0,84.0
1205,53.0,0,59,6.0,84.0
1206,65.0,0,59,5.0,84.0
1207,65.0,120,479,3.0,84.0
1208,57.0,0,479,3.0,84.0
1209,65.0,0,479,2.0,84.0
1210,53.0,0,479,2.0,84.0
1211,53.0,0,479,3.0,84.0
1212,65.0,0,479,0.0,84.0
1213,69.0,0,479,0.0,84.0
1214,41.0,0,119,8.0,84.0
1215,41.0,0,479,1.0,84.0
1216,60.0,0,479,1.0,84.0
1217,50.0,0,239,6.0,84.0
1218,69.0,0,119,0.0,84.0
1219,69.0,0,119,3.0,84.0
1220,65.0,0,119,0.0,84.0
1221,38.0,120,239,8.0,84.0
1222,50.0,0,119,3.0,84.0
1223,62.0,0,239,4.0,84.0
1224,38.0,120,119,1.0,84.0
1225,65.0,0,119,2.0,84.0
1226,62.0,0,119,1.0,84.0
1227,62.0,0,239,5.0,84.0
1228,65.0,0,119,3.0,84.0
1229,38.0,0,119,1.0,84.0
1230,62.0,0,119,1.0,84.0
1231,69.0,0,119,0.0,84.0
1232,69.0,0,119,3.0,84.0
1233,50.0,120,119,3.0,84.0
1234,65.0,0,119,3.0,84.0
1235,65.0,0,119,2.0,84.0
1236,65.0,0,119,0.0,84.0
1237,65.0,0,119,2.0,84.0
1238,62.0,0,119,1.0,84.0
1239,50.0,120,119,3.0,84.0
1240,65.0,0,119,0.0,84.0
1241,65.0,0,119,3.0,84.0
1242,69.0,0,119,0.0,84.0
1243,38.0,0,119,1.0,84.0
1244,69.0,0,119,3.0,84.0
1245,64.0,0,29,5.0,84.0
1246,52.0,90,29,6.0,84.0
1247,64.0,0,29,4.0,84.0
1248,62.0,0,59,4.0,84.0
1249,62.0,30,59,5.0,84.0
1250,50.0,0,59,6.0,84.0
1251,49.0,0,29,6.0,84.0
1252,61.0,60,29,4.0,84.0
1253,61.0,0,29,5.0,84.0
1254,62.0,30,29,4.0,84.0
1255,38.0,0,119,8.0,84.0
1256,62.0,0,29,5.0,84.0
1257,50.0,0,29,6.0,84.0
1258,53.0,0,59,6.0,84.0
1259,65.0,30,59,4.0,84.0
1260,65.0,0,59,5.0,84.0
1261,41.0,0,119,8.0,84.0
1262,62.0,120,59,4.0,84.0
1263,50.0,0,59,6.0,84.0
1264,62.0,0,59,5.0,84.0
1265,38.0,0,479,1.0,84.0
1266,65.0,0,479,3.0,84.0
1267,69.0,0,479,3.0,84.0
1268,65.0,0,479,0.0,84.0
1269,69.0,0,479,0.0,84.0
1270,50.0,0,479,3.0,84.0
1271,65.0,120,479,2.0,84.0
1272,38.0,0,119,8.0,84.0
1273,62.0,0,479,1.0,84.0
1274,58.0,0,119,2.0,84.0
1275,70.0,120,119,2.0,84.0
1276,62.0,0,119,3.0,84.0
1277,58.0,120,239,4.0,84.0
1278,70.0,0,119,3.0,84.0
1279,46.0,0,119,3.0,84.0
1280,74.0,0,119,0.0,84.0
1281,34.0,0,239,8.0,84.0
1282,58.0,0,239,5.0,84.0
1283,58.0,0,239,6.0,84.0
1284,65.0,0,119,1.0,84.0
1285,34.0,0,119,1.0,84.0
1286,70.0,0,119,0.0,84.0
1287,58.0,0,119,2.0,84.0
1288,34.0,0,119,1.0,84.0
1289,70.0,0,119,3.0,84.0
1290,46.0,0,119,3.0,84.0
1291,74.0,0,119,0.0,84.0
1292,70.0,0,119,0.0,84.0
1293,65.0,0,119,1.0,84.0
1294,62.0,0,119,3.0,84.0
1295,70.0,120,119,2.0,84.0
1296,74.0,0,119,0.0,84.0
1297,65.0,0,119,1.0,84.0
1298,62.0,0,119,3.0,84.0
1299,70.0,0,119,0.0,84.0
1300,70.0,0,119,3.0,84.0
1301,58.0,0,119,2.0,84.0
1302,46.0,120,119,3.0,84.0
1303,34.0,0,119,1.0,84.0
1304,70.0,0,119,2.0,84.0
1305,34.0,0,239,1.0,84.0
1306,65.0,0,239,1.0,84.0
1307,62.0,0,239,3.0,84.0
1308,70.0,0,239,2.0,84.0
1309,58.0,0,239,2.0,84.0
1310,46.0,0,239,3.0,84.0
1311,77.0,0,239,0.0,78.0
1312,46.0,0,239,8.0,84.0
1313,74.0,0,239,0.0,78.0
1314,58.0,0,239,5.0,84.0
1315,77.0,120,239,4.0,84.0
1316,70.0,0,239,4.0,84.0
1317,58.0,0,239,6.0,84.0
1318,70.0,0,239,6.0,84.0
1319,65.0,0,239,6.0,84.0
1320,74.0,0,239,5.0,84.0
1321,65.0,0,239,5.0,84.0
1322,62.0,0,239,4.0,84.0
1323,70.0,0,239,3.0,84.0
1324,76.0,240,119,0.0,56.0
1325,72.0,0,119,0.0,56.0
1326,70.0,120,119,0.0,56.0
1327,74.0,0,119,0.0,56.0
1328,69.0,120,239,0.0,56.0
1329,72.0,0,239,0.0,56.0
1330,60.0,120,119,7.0,48.0
1331,61.0,0,119,7.0,48.0
1332,70.0,120,119,0.0,56.0
1333,67.0,0,119,0.0,56.0
1334,62.0,120,119,7.0,48.0
1335,65.0,0,119,0.0,56.0
1336,69.0,0,119,0.0,56.0
1337,58.0,120,119,7.0,48.0
1338,59.0,120,119,7.0,48.0
1339,65.0,0,239,0.0,56.0
1340,67.0,0,359,0.0,56.0
1341,64.0,0,119,0.0,56.0
1342,60.0,120,119,7.0,48.0
1343,65.0,120,119,0.0,56.0
1344,67.0,0,119,0.0,56.0
1345,59.0,0,119,7.0,48.0
1346,60.0,0,59,7.0,48.0
1347,67.0,120,119,0.0,56.0
1348,64.0,0,119,0.0,56.0
1349,69.0,120,59,0.0,56.0
1350,53.0,0,59,7.0,48.0
1351,65.0,0,59,0.0,56.0
1352,64.0,60,59,0.0,56.0
1353,67.0,0,59,0.0,56.0
1354,67.0,0,239,0.0,56.0
1355,64.0,0,239,0.0,56.0
1356,60.0,60,239,7.0,48.0
1357,57.0,0,59,5.0,66.0
1358,41.0,120,119,8.0,66.0
1359,53.0,0,119,1.0,48.0
1360,57.0,0,119,6.0,66.0
1361,60.0,60,59,5.0,66.0
1362,65.0,0,59,5.0,66.0
1363,60.0,60,59,5.0,66.0
1364,60.0,60,119,6.0,66.0
1365,77.0,0,359,4.0,66.0
1366,53.0,240,359,13.0,60.0
1367,45.0,0,119,8.0,66.0
1368,57.0,0,119,1.0,48.0
1369,57.0,0,59,5.0,66.0
1370,41.0,0,119,8.0,66.0
1371,53.0,0,119,13.0,60.0
1372,77.0,0,119,4.0,66.0
1373,60.0,60,59,5.0,66.0
1374,65.0,60,119,6.0,66.0
1375,53.0,0,119,1.0,48.0
1376,65.0,0,59,5.0,66.0
1377,57.0,0,119,13.0,60.0
1378,81.0,0,119,4.0,66.0
1379,60.0,60,59,5.0,66.0
1380,57.0,60,59,5.0,66.0
1381,41.0,0,119,8.0,66.0
1382,53.0,0,119,1.0,48.0
1383,57.0,0,119,6.0,66.0
1384,60.0,60,59,5.0,66.0
1385,53.0,0,119,13.0,60.0
1386,77.0,0,119,4.0,66.0
1387,65.0,60,59,5.0,66.0
1388,60.0,0,359,11.0,60.0
1389,45.0,0,119,8.0,66.0
1390,60.0,60,59,5.0,66.0
1391,57.0,0,119,1.0,48.0
1392,72.0,0,119,4.0,66.0
1393,65.0,0,359,0.0,48.0
1394,60.0,0,359,0.0,48.0
1395,65.0,0,359,10.0,60.0
1396,60.0,0,119,6.0,66.0
1397,57.0,0,359,12.0,60.0
1398,57.0,60,59,5.0,66.0
1399,65.0,0,119,10.0,60.0
1400,65.0,0,119,6.0,66.0
1401,60.0,0,119,11.0,60.0
1402,57.0,0,119,12.0,60.0
1403,41.0,0,119,8.0,66.0
1404,57.0,0,119,1.0,48.0
1405,53.0,0,119,1.0,48.0
1406,77.0,0,119,4.0,66.0
1407,60.0,0,119,0.0,48.0
1408,65.0,0,119,0.0,48.0
1409,60.0,60,59,5.0,66.0
1410,65.0,0,59,5.0,66.0
1411,60.0,0,119,1.0,48.0
1412,69.0,0,119,10.0,60.0
1413,65.0,60,119,11.0,60.0
1414,60.0,0,119,12.0,60.0
1415,60.0,60,59,5.0,66.0
1416,65.0,0,119,0.0,48.0
1417,69.0,0,119,0.0,48.0
1418,81.0,0,119,4.0,66.0
1419,57.0,0,59,5.0,66.0
1420,57.0,0,119,12.0,60.0
1421,65.0,0,119,10.0,60.0
1422,60.0,0,119,0.0,48.0
1423,65.0,0,119,0.0,48.0
1424,53.0,0,119,1.0,48.0
1425,57.0,0,119,1.0,48.0
1426,77.0,0,119,4.0,66.0
1427,60.0,0,119,11.0,60.0
1428,60.0,60,59,5.0,66.0
1429,41.0,0,119,8.0,66.0
1430,57.0,60,119,6.0,66.0
1431,65.0,0,59,5.0,66.0
1432,72.0,0,119,4.0,66.0
1433,45.0,0,119,8.0,66.0
1434,60.0,0,119,6.0,66.0
1435,60.0,60,59,5.0,66.0
1436,57.0,60,119,1.0,48.0
1437,57.0,0,59,5.0,66.0
1438,41.0,0,119,8.0,66.0
1439,65.0,0,119,6.0,66.0
1440,81.0,0,119,4.0,66.0
1441,57.0,60,119,13.0,60.0
1442,60.0,60,59,5.0,66.0
1443,53.0,0,119,1.0,48.0
1444,69.0,0,59,5.0,66.0
1445,84.0,60,119,4.0,66.0
1446,60.0,0,119,13.0,60.0
1447,65.0,60,59,5.0,66.0
1448,60.0,0,59,5.0,66.0
1449,81.0,60,119,4.0,66.0
1450,57.0,0,119,13.0,60.0
1451,41.0,0,119,8.0,66.0
1452,53.0,0,119,1.0,48.0
1453,65.0,60,59,5.0,66.0
1454,57.0,0,119,6.0,66.0
1455,72.0,0,59,5.0,66.0
1456,69.0,60,59,5.0,66.0
1457,60.0,0,119,6.0,66.0
1458,77.0,0,119,4.0,66.0
1459,45.0,0,119,8.0,66.0
1460,57.0,60,119,1.0,48.0
1461,65.0,0,59,5.0,66.0
1462,65.0,0,119,11.0,60.0
1463,69.0,0,119,10.0,60.0
1464,65.0,0,119,6.0,66.0
1465,60.0,0,119,12.0,60.0
1466,81.0,0,119,4.0,66.0
1467,41.0,0,119,8.0,66.0
1468,65.0,0,119,0.0,48.0
1469,69.0,0,119,0.0,48.0
1470,53.0,0,119,1.0,48.0
1471,60.0,60,119,1.0,48.0
1472,69.0,60,59,5.0,66.0
1473,69.0,60,59,5.0,66.0
1474,65.0,0,119,12.0,60.0
1475,72.0,0,119,0.0,48.0
1476,69.0,0,119,0.0,48.0
1477,84.0,0,119,4.0,66.0
1478,65.0,0,119,1.0,48.0
1479,65.0,60,59,5.0,66.0
1480,72.0,0,119,10.0,60.0
1481,69.0,0,119,11.0,60.0
1482,60.0,0,59,5.0,66.0
1483,60.0,0,119,1.0,48.0
1484,53.0,0,119,1.0,48.0
1485,81.0,0,119,4.0,66.0
1486,65.0,0,119,11.0,60.0
1487,65.0,60,59,5.0,66.0
1488,57.0,0,119,6.0,66.0
1489,60.0,0,119,12.0,60.0
1490,69.0,0,119,10.0,60.0
1491,41.0,0,119,8.0,66.0
1492,69.0,60,119,0.0,48.0
1493,65.0,0,119,0.0,48.0
1494,69.0,0,59,5.0,66.0
1495,77.0,0,119,4.0,66.0
1496,45.0,0,119,8.0,66.0
1497,60.0,0,119,6.0,66.0
1498,57.0,60,119,1.0,48.0
1499,65.0,60,59,5.0,66.0
1500,60.0,0,59,5.0,66.0
1501,65.0,60,59,5.0,66.0
1502,41.0,0,119,8.0,66.0
1503,60.0,0,119,13.0,60.0
1504,65.0,0,119,6.0,66.0
1505,81.0,60,119,4.0,66.0
1506,53.0,0,119,1.0,48.0
1507,69.0,0,59,5.0,66.0
1508,65.0,60,59,5.0,66.0
1509,84.0,0,119,4.0,66.0
1510,60.0,0,59,5.0,66.0
1511,51.0,0,119,8.0,66.0
1512,57.0,0,119,6.0,66.0
1513,65.0,60,59,5.0,66.0
1514,72.0,0,119,4.0,66.0
1515,63.0,60,119,1.0,48.0
1516,63.0,60,239,13.0,60.0
1517,69.0,0,59,5.0,66.0
1518,48.0,0,119,8.0,66.0
1519,72.0,60,59,5.0,66.0
1520,60.0,0,119,1.0,48.0
1521,60.0,0,119,6.0,66.0
1522,60.0,0,119,13.0,60.0
1523,75.0,60,119,4.0,66.0
1524,75.0,0,59,5.0,66.0
1525,72.0,60,59,5.0,66.0
1526,69.0,0,119,11.0,60.0
1527,63.0,0,119,3.0,66.0
1528,75.0,0,119,10.0,60.0
1529,67.0,0,119,0.0,48.0
1530,75.0,0,119,0.0,48.0
1531,79.0,0,119,4.0,66.0
1532,46.0,0,119,8.0,66.0
1533,60.0,60,119,1.0,48.0
1534,58.0,0,119,1.0,48.0
1535,58.0,0,119,13.0,60.0
1536,60.0,0,119,12.0,60.0
1537,63.0,0,119,6.0,66.0
1538,67.0,0,119,3.0,66.0
1539,75.0,0,59,5.0,66.0
1540,72.0,60,59,5.0,66.0
1541,79.0,0,119,4.0,66.0
1542,69.0,0,59,5.0,66.0
1543,63.0,0,239,12.0,60.0
1544,45.0,0,119,8.0,66.0
1545,72.0,60,119,4.0,66.0
1546,79.0,0,239,10.0,60.0
1547,57.0,0,119,6.0,66.0
1548,67.0,0,239,3.0,66.0
1549,63.0,0,239,3.0,66.0
1550,65.0,60,59,5.0,66.0
1551,72.0,0,239,11.0,60.0
1552,63.0,0,239,1.0,48.0
1553,57.0,0,119,1.0,48.0
1554,72.0,60,239,0.0,48.0
1555,79.0,0,239,0.0,48.0
1556,74.0,60,59,5.0,66.0
1557,62.0,0,119,12.0,60.0
1558,65.0,60,59,5.0,66.0
1559,65.0,0,119,0.0,48.0
1560,77.0,0,119,0.0,48.0
1561,62.0,0,119,1.0,48.0
1562,45.0,0,119,1.0,48.0
1563,65.0,0,119,3.0,66.0
1564,77.0,0,119,4.0,66.0
1565,65.0,0,119,11.0,60.0
1566,33.0,0,119,8.0,66.0
1567,77.0,0,119,10.0,60.0
1568,65.0,0,119,6.0,66.0
1569,62.0,0,119,3.0,66.0
1570,72.0,0,59,5.0,66.0
1571,60.0,0,119,3.0,66.0
1572,65.0,0,119,3.0,66.0
1573,57.0,0,119,6.0,66.0
1574,57.0,0,479,13.0,60.0
1575,75.0,60,119,4.0,66.0
1576,60.0,0,119,1.0,48.0
1577,65.0,0,119,0.0,48.0
1578,60.0,0,119,12.0,60.0
1579,45.0,0,119,8.0,66.0
1580,75.0,0,119,10.0,60.0
1581,65.0,0,119,11.0,60.0
1582,57.0,0,119,1.0,48.0
1583,65.0,60,59,5.0,66.0
1584,75.0,0,119,0.0,48.0
1585,75.0,0,59,4.0,66.0
1586,72.0,0,59,5.0,66.0
1587,70.0,0,59,5.0,66.0
1588,74.0,60,59,4.0,66.0
1589,74.0,0,29,4.0,66.0
1590,70.0,0,29,5.0,66.0
1591,70.0,60,29,5.0,66.0
1592,74.0,0,29,4.0,66.0
1593,65.0,0,239,0.0,48.0
1594,58.0,60,239,13.0,60.0
1595,65.0,0,239,11.0,60.0
1596,46.0,0,119,1.0,48.0
1597,58.0,60,119,6.0,66.0
1598,34.0,0,119,8.0,66.0
1599,65.0,0,239,3.0,66.0
1600,70.0,60,59,5.0,66.0
1601,74.0,0,59,4.0,66.0
1602,43.0,0,119,8.0,66.0
1603,58.0,0,359,1.0,48.0
1604,74.0,0,359,0.0,48.0
1605,74.0,0,359,10.0,60.0
1606,62.0,0,119,6.0,66.0
1607,55.0,0,119,13.0,60.0
1608,70.0,60,59,4.0,66.0
1609,58.0,0,359,3.0,66.0
1610,55.0,0,119,1.0,48.0
1611,58.0,0,359,12.0,60.0
1612,62.0,0,59,5.0,66.0
1613,62.0,0,59,1.0,48.0
1614,62.0,0,59,3.0,66.0
1615,74.0,0,59,5.0,66.0
1616,62.0,0,59,12.0,60.0
1617,77.0,0,59,0.0,48.0
1618,77.0,0,59,4.0,66.0
1619,77.0,0,59,10.0,60.0
1620,60.0,60,29,12.0,60.0
1621,75.0,0,29,10.0,60.0
1622,75.0,0,29,0.0,48.0
1623,67.0,0,239,3.0,66.0
1624,74.0,30,29,0.0,48.0
1625,67.0,0,119,6.0,66.0
1626,39.0,0,119,8.0,66.0
1627,51.0,0,119,1.0,48.0
1628,75.0,0,59,4.0,66.0
1629,60.0,0,59,1.0,48.0
1630,67.0,0,239,0.0,48.0
1631,58.0,0,29,12.0,60.0
1632,67.0,0,239,11.0,60.0
1633,60.0,0,59,3.0,66.0
1634,74.0,0,29,10.0,60.0
1635,72.0,0,59,5.0,66.0
1636,51.0,60,119,13.0,60.0
1637,58.0,0,59,3.0,66.0
1638,74.0,0,119,4.0,66.0
1639,70.0,0,119,5.0,66.0
1640,58.0,0,119,1.0,48.0
1641,57.0,0,59,1.0,48.0
1642,72.0,0,59,4.0,66.0
1643,77.0,60,29,4.0,66.0
1644,65.0,0,239,6.0,66.0
1645,65.0,0,239,0.0,48.0
1646,65.0,0,239,3.0,66.0
1647,57.0,60,179,3.0,66.0
1648,53.0,0,239,13.0,60.0
1649,72.0,0,239,0.0,48.0
1650,65.0,0,59,1.0,48.0
1651,41.0,0,239,8.0,66.0
1652,65.0,30,239,11.0,60.0
1653,72.0,0,239,10.0,60.0
1654,53.0,0,239,1.0,48.0
1655,69.0,60,119,5.0,66.0
1656,57.0,0,239,12.0,60.0
1657,65.0,60,59,1.0,48.0
1658,77.0,0,59,4.0,66.0
1659,64.0,60,59,1.0,48.0
1660,76.0,0,59,4.0,66.0
1661,67.0,60,59,1.0,75.0
1662,79.0,0,59,4.0,75.0
1663,65.0,60,59,1.0,72.0
1664,77.0,0,59,4.0,72.0
1665,63.0,0,59,1.0,48.0
1666,75.0,60,59,4.0,48.0
1667,74.0,60,59,4.0,48.0
1668,62.0,0,59,1.0,48.0
1669,65.0,0,59,1.0,75.0
1670,77.0,60,59,4.0,75.0
1671,75.0,60,59,4.0,72.0
1672,63.0,0,59,1.0,72.0
1673,29.0,0,239,8.0,66.0
1674,72.0,0,59,4.0,72.0
1675,60.0,60,59,1.0,72.0
1676,69.0,60,59,4.0,72.0
1677,57.0,0,59,1.0,72.0
1678,67.0,60,59,4.0,72.0
1679,55.0,0,59,1.0,72.0
1680,53.0,0,59,1.0,72.0
1681,65.0,60,59,4.0,72.0
1682,62.0,0,239,6.0,48.0
1683,53.0,0,239,1.0,72.0
1684,65.0,60,239,4.0,48.0
1685,58.0,120,119,5.0,48.0
1686,34.0,0,239,8.0,48.0
1687,62.0,0,119,5.0,48.0
1688,70.0,120,119,4.0,48.0
1689,53.0,0,359,13.0,60.0
1690,74.0,120,119,4.0,48.0
1691,62.0,0,119,13.0,60.0
1692,58.0,0,119,6.0,48.0
1693,34.0,0,119,8.0,48.0
1694,65.0,0,119,5.0,48.0
1695,72.0,120,59,4.0,48.0
1696,60.0,0,59,13.0,60.0
1697,57.0,0,59,13.0,60.0
1698,69.0,60,59,4.0,48.0
1699,39.0,0,119,8.0,48.0
1700,70.0,60,59,4.0,48.0
1701,74.0,60,59,4.0,48.0
1702,58.0,0,119,13.0,60.0
1703,65.0,0,239,6.0,48.0
1704,38.0,0,119,8.0,48.0
1705,58.0,0,119,5.0,48.0
1706,77.0,0,59,4.0,48.0
1707,62.0,60,119,5.0,48.0
1708,74.0,60,59,4.0,48.0
1709,70.0,60,59,4.0,48.0
1710,34.0,0,119,8.0,48.0
1711,65.0,0,119,5.0,48.0
1712,62.0,0,119,6.0,48.0
1713,62.0,0,119,13.0,60.0
1714,74.0,60,59,4.0,48.0
1715,72.0,0,59,4.0,48.0
1716,60.0,0,59,13.0,60.0
1717,69.0,60,59,4.0,48.0
1718,39.0,0,119,8.0,48.0
1719,57.0,0,59,13.0,60.0
1720,70.0,0,59,4.0,48.0
1721,58.0,60,119,13.0,60.0
1722,38.0,0,119,8.0,48.0
1723,58.0,0,119,5.0,48.0
1724,65.0,60,239,6.0,48.0
1725,74.0,60,59,4.0,48.0
1726,77.0,60,59,4.0,48.0
1727,62.0,0,119,5.0,48.0
1728,74.0,60,59,4.0,48.0
1729,77.0,0,59,4.0,48.0
1730,58.0,60,89,13.0,60.0
1731,38.0,0,119,8.0,48.0
1732,60.0,30,29,13.0,60.0
1733,65.0,0,119,5.0,48.0
1734,82.0,60,59,4.0,48.0
1735,58.0,0,119,6.0,48.0
1736,39.0,0,119,8.0,48.0
1737,60.0,0,119,6.0,48.0
1738,82.0,0,119,4.0,48.0
1739,67.0,0,119,5.0,48.0
1740,58.0,30,119,13.0,60.0
1741,57.0,120,59,13.0,60.0
1742,58.0,60,59,13.0,60.0
1743,60.0,0,59,13.0,60.0
1744,58.0,60,59,13.0,60.0
1745,65.0,0,119,5.0,48.0
1746,58.0,0,119,6.0,48.0
1747,82.0,0,119,4.0,48.0
1748,38.0,60,119,8.0,48.0
1749,57.0,60,59,13.0,60.0
1750,55.0,60,59,13.0,60.0
1751,36.0,0,119,8.0,48.0
1752,79.0,0,59,4.0,48.0
1753,67.0,60,59,5.0,48.0
1754,57.0,60,119,6.0,48.0
1755,72.0,0,59,5.0,48.0
1756,84.0,60,59,4.0,48.0
1757,70.0,60,59,5.0,48.0
1758,53.0,0,239,13.0,60.0
1759,82.0,0,59,4.0,48.0
1760,69.0,60,59,5.0,48.0
1761,81.0,0,59,4.0,48.0
1762,70.0,60,59,5.0,48.0
1763,82.0,0,59,4.0,48.0
1764,65.0,0,119,6.0,48.0
1765,29.0,0,119,8.0,48.0
1766,51.0,0,179,13.0,60.0
1767,79.0,0,59,4.0,48.0
1768,67.0,60,59,5.0,48.0
1769,81.0,0,59,4.0,48.0
1770,50.0,60,59,13.0,60.0
1771,69.0,0,59,5.0,48.0
1772,82.0,0,119,4.0,48.0
1773,70.0,0,119,5.0,48.0
1774,62.0,60,239,6.0,48.0
1775,34.0,0,239,8.0,48.0
1776,70.0,120,119,4.0,48.0
1777,62.0,0,119,5.0,48.0
1778,50.0,0,239,13.0,60.0
1779,74.0,120,59,4.0,48.0
1780,65.0,0,59,5.0,48.0
1781,70.0,60,59,4.0,48.0
1782,62.0,0,59,5.0,48.0
1783,58.0,0,359,12.0,60.0
1784,70.0,0,59,4.0,48.0
1785,62.0,0,59,5.0,48.0
1786,53.0,0,119,6.0,48.0
1787,62.0,60,119,12.0,60.0
1788,46.0,0,119,8.0,48.0
1789,65.0,0,59,12.0,60.0
1790,34.0,120,119,8.0,48.0
1791,62.0,60,59,12.0,60.0
1792,55.0,0,119,6.0,48.0
1793,74.0,0,59,4.0,48.0
1794,62.0,0,119,12.0,60.0
1795,58.0,60,119,5.0,48.0
1796,46.0,0,119,8.0,48.0
1797,53.0,0,119,6.0,48.0
1798,62.0,0,59,5.0,48.0
1799,77.0,120,59,4.0,48.0
1800,74.0,60,59,4.0,48.0
1801,58.0,0,59,5.0,48.0
1802,58.0,0,59,5.0,48.0
1803,74.0,0,59,4.0,48.0
1804,58.0,60,119,6.0,48.0
1805,46.0,0,119,8.0,48.0
1806,62.0,0,119,12.0,60.0
1807,63.0,120,59,12.0,60.0
1808,58.0,0,119,6.0,48.0
1809,58.0,60,59,12.0,60.0
1810,43.0,0,119,8.0,48.0
1811,58.0,60,119,12.0,60.0
1812,31.0,0,119,8.0,48.0
1813,70.0,0,119,4.0,48.0
1814,63.0,0,119,5.0,48.0
1815,55.0,0,119,6.0,48.0
1816,75.0,120,59,4.0,48.0
1817,70.0,0,59,5.0,48.0
1818,67.0,60,59,5.0,48.0
1819,70.0,0,59,4.0,48.0
1820,67.0,60,59,5.0,48.0
1821,70.0,0,59,4.0,48.0
1822,58.0,0,119,6.0,48.0
1823,58.0,0,119,12.0,60.0
1824,43.0,0,119,8.0,48.0
1825,63.0,120,119,12.0,60.0
1826,39.0,0,119,8.0,48.0
1827,57.0,0,119,6.0,48.0
1828,51.0,0,119,8.0,48.0
1829,79.0,120,119,4.0,48.0
1830,58.0,0,119,6.0,48.0
1831,70.0,0,119,5.0,48.0
1832,67.0,0,119,12.0,60.0
1833,77.0,120,59,4.0,48.0
1834,65.0,0,59,12.0,60.0
1835,67.0,0,119,5.0,48.0
1836,63.0,0,59,12.0,60.0
1837,75.0,60,59,4.0,48.0
1838,62.0,0,59,12.0,60.0
1839,74.0,0,59,4.0,48.0
1840,55.0,60,119,6.0,48.0
1841,63.0,0,119,5.0,48.0
1842,60.0,60,59,12.0,60.0
1843,72.0,0,59,4.0,48.0
1844,39.0,0,119,8.0,48.0
1845,70.0,60,59,4.0,48.0
1846,48.0,60,59,6.0,48.0
1847,41.0,0,119,8.0,48.0
1848,60.0,0,59,5.0,48.0
1849,65.0,60,59,5.0,48.0
1850,53.0,0,59,6.0,48.0
1851,63.0,60,59,5.0,48.0
1852,58.0,0,239,12.0,60.0
1853,29.0,0,119,8.0,48.0
1854,51.0,0,59,6.0,48.0
1855,62.0,0,59,5.0,48.0
1856,68.0,0,59,4.0,48.0
1857,50.0,0,59,6.0,48.0
1858,51.0,60,59,6.0,48.0
1859,63.0,0,59,5.0,48.0
1860,60.0,0,59,5.0,48.0
1861,48.0,60,59,6.0,48.0
1862,56.0,60,179,12.0,60.0
1863,55.0,0,59,12.0,60.0
1864,34.0,0,119,8.0,48.0
1865,50.0,0,59,6.0,48.0
1866,62.0,60,59,5.0,48.0
1867,63.0,0,59,5.0,48.0
1868,67.0,0,59,4.0,48.0
1869,58.0,60,59,5.0,48.0
1870,70.0,0,59,10.0,60.0
1871,55.0,60,59,5.0,48.0
1872,55.0,0,239,12.0,60.0
1873,70.0,60,59,10.0,60.0
1874,70.0,0,119,4.0,48.0
1875,39.0,60,239,8.0,48.0
1876,58.0,0,59,5.0,48.0
1877,51.0,0,239,6.0,48.0
1878,67.0,60,59,5.0,48.0
1879,63.0,60,59,5.0,48.0
1880,75.0,0,119,10.0,60.0
1881,75.0,0,119,4.0,48.0
1882,67.0,0,59,11.0,60.0
1883,58.0,60,59,5.0,48.0
1884,70.0,0,119,10.0,60.0
1885,67.0,0,59,11.0,60.0
1886,63.0,60,59,5.0,48.0
1887,63.0,0,119,6.0,48.0
1888,39.0,0,119,8.0,48.0
1889,70.0,0,119,4.0,48.0
1890,65.0,0,59,5.0,48.0
1891,62.0,0,119,6.0,48.0
1892,38.0,0,119,8.0,48.0
1893,62.0,60,59,5.0,48.0
1894,68.0,0,179,11.0,60.0
1895,80.0,60,179,4.0,48.0
1896,58.0,60,59,5.0,48.0
1897,65.0,0,59,11.0,60.0
1898,65.0,60,59,5.0,48.0
1899,65.0,0,119,6.0,48.0
1900,77.0,0,59,4.0,48.0
1901,41.0,0,119,8.0,48.0
1902,68.0,0,59,5.0,48.0
1903,34.0,0,119,8.0,48.0
1904,74.0,0,119,4.0,48.0
1905,65.0,60,59,5.0,48.0
1906,58.0,60,119,6.0,48.0
1907,58.0,0,59,5.0,48.0
1908,70.0,0,59,4.0,48.0
1909,44.0,0,119,8.0,48.0
1910,68.0,60,119,6.0,48.0
1911,70.0,0,119,10.0,60.0
1912,65.0,60,59,5.0,48.0
1913,62.0,0,239,11.0,60.0
1914,67.0,0,59,5.0,48.0
1915,63.0,60,59,5.0,48.0
1916,75.0,0,119,4.0,48.0
1917,75.0,60,119,10.0,60.0
1918,58.0,0,59,5.0,48.0
1919,58.0,0,59,12.0,60.0
1920,43.0,0,239,8.0,48.0
1921,67.0,0,239,6.0,48.0
1922,70.0,60,119,10.0,60.0
1923,63.0,60,59,5.0,48.0
1924,58.0,0,59,12.0,60.0
1925,70.0,0,119,4.0,48.0
1926,67.0,0,59,5.0,48.0
1927,75.0,0,119,4.0,48.0
1928,63.0,60,119,12.0,60.0
1929,63.0,60,59,5.0,48.0
1930,58.0,0,59,5.0,48.0
1931,39.0,0,119,8.0,48.0
1932,58.0,0,119,12.0,60.0
1933,63.0,60,59,5.0,48.0
1934,63.0,0,119,6.0,48.0
1935,70.0,60,119,4.0,48.0
1936,67.0,0,119,11.0,60.0
1937,65.0,60,59,5.0,48.0
1938,38.0,0,119,8.0,48.0
1939,62.0,60,59,5.0,48.0
1940,62.0,0,119,6.0,48.0
1941,80.0,0,179,4.0,48.0
1942,58.0,0,59,5.0,48.0
1943,68.0,0,179,11.0,60.0
1944,41.0,0,119,8.0,48.0
1945,65.0,60,119,6.0,48.0
1946,77.0,60,59,4.0,48.0
1947,65.0,0,59,11.0,60.0
1948,62.0,0,59,5.0,48.0
1949,68.0,0,59,5.0,48.0
1950,65.0,60,59,5.0,48.0
1951,58.0,0,119,6.0,48.0
1952,34.0,60,119,8.0,48.0
1953,74.0,0,119,4.0,48.0
1954,58.0,0,59,5.0,48.0
1955,56.0,0,59,13.0,60.0
1956,74.0,0,59,4.0,48.0
1957,65.0,60,59,5.0,48.0
1958,62.0,0,239,11.0,60.0
1959,58.0,0,119,12.0,60.0
1960,74.0,60,119,10.0,60.0
1961,56.0,0,59,13.0,60.0
1962,58.0,0,1919,0.0,48.0
1963,44.0,0,119,8.0,48.0
1964,68.0,0,119,6.0,48.0
1965,70.0,0,1919,0.0,48.0
1966,67.0,0,59,5.0,48.0
1967,67.0,0,119,6.0,48.0
1968,55.0,0,119,13.0,60.0
1969,43.0,0,119,8.0,48.0
1970,63.0,60,59,5.0,48.0
1971,58.0,60,59,5.0,48.0
1972,51.0,0,119,13.0,60.0
1973,63.0,0,119,6.0,48.0
1974,39.0,0,119,8.0,48.0
1975,58.0,0,239,1.0,48.0
1976,67.0,60,59,5.0,48.0
1977,75.0,60,239,10.0,60.0
1978,75.0,0,239,4.0,48.0
1979,58.0,0,239,12.0,60.0
1980,59.0,0,59,5.0,48.0
1981,67.0,60,59,5.0,48.0
1982,77.0,0,119,4.0,48.0
1983,59.0,0,119,12.0,60.0
1984,62.0,60,119,6.0,48.0
1985,77.0,0,119,10.0,60.0
1986,50.0,0,119,13.0,60.0
1987,38.0,0,119,8.0,48.0
1988,59.0,0,119,1.0,48.0
1989,60.0,0,59,5.0,48.0
1990,48.0,0,119,13.0,60.0
1991,60.0,60,119,12.0,60.0
1992,67.0,0,119,11.0,60.0
1993,67.0,60,59,5.0,48.0
1994,67.0,0,119,0.0,48.0
1995,60.0,0,119,6.0,48.0
1996,36.0,0,119,8.0,48.0
1997,75.0,0,119,10.0,60.0
1998,60.0,0,119,1.0,48.0
1999,75.0,0,119,4.0,48.0
2000,65.0,0,59,5.0,48.0
2001,47.0,0,119,13.0,60.0
2002,74.0,0,119,4.0,48.0
2003,35.0,0,119,8.0,48.0
2004,59.0,0,119,6.0,48.0
2005,74.0,0,119,10.0,60.0
2006,62.0,60,59,5.0,48.0
2007,62.0,0,119,1.0,48.0
2008,62.0,0,119,12.0,60.0
2009,60.0,0,59,12.0,60.0
2010,55.0,0,59,5.0,48.0
2011,60.0,60,59,1.0,48.0
2012,75.0,0,59,10.0,60.0
2013,75.0,0,59,4.0,48.0
2014,62.0,0,59,5.0,48.0
2015,67.0,0,239,11.0,60.0
2016,77.0,0,59,4.0,48.0
2017,59.0,0,59,12.0,60.0
2018,50.0,0,119,13.0,60.0
2019,77.0,60,59,10.0,60.0
2020,38.0,0,119,8.0,48.0
2021,59.0,0,59,1.0,48.0
2022,62.0,0,119,6.0,48.0
2023,60.0,0,59,5.0,48.0
2024,60.0,0,59,1.0,48.0
2025,43.0,0,119,13.0,60.0
2026,31.0,0,119,8.0,48.0
2027,60.0,0,119,12.0,60.0
2028,67.0,0,119,11.0,60.0
2029,75.0,0,119,10.0,60.0
2030,55.0,60,119,6.0,48.0
2031,55.0,60,59,5.0,48.0
2032,75.0,0,119,4.0,48.0
2033,59.0,0,59,1.0,48.0
2034,59.0,0,59,5.0,48.0
2035,74.0,0,119,10.0,60.0
2036,59.0,0,119,12.0,60.0
2037,41.0,0,119,8.0,48.0
2038,74.0,0,119,4.0,48.0
2039,67.0,0,119,11.0,60.0
2040,65.0,60,119,6.0,48.0
2041,55.0,60,59,5.0,48.0
2042,53.0,0,119,13.0,60.0
2043,60.0,0,59,5.0,48.0
2044,51.0,0,119,13.0,60.0
2045,55.0,60,59,5.0,48.0
2046,60.0,0,119,1.0,48.0
2047,39.0,0,119,8.0,48.0
2048,63.0,60,119,6.0,48.0
2049,60.0,60,59,5.0,48.0
2050,67.0,0,179,11.0,60.0
2051,60.0,0,179,12.0,60.0
2052,75.0,0,239,10.0,60.0
2053,67.0,0,119,6.0,48.0
2054,63.0,0,59,12.0,60.0
2055,67.0,0,59,11.0,60.0
2056,55.0,60,59,5.0,48.0
2057,55.0,0,119,13.0,60.0
2058,43.0,0,119,8.0,48.0
2059,60.0,0,59,5.0,48.0
2060,36.0,60,119,8.0,48.0
2061,60.0,0,119,6.0,48.0
2062,75.0,0,359,4.0,48.0
2063,67.0,0,119,11.0,60.0
2064,63.0,0,119,12.0,60.0
2065,55.0,60,59,5.0,48.0
2066,48.0,0,119,13.0,60.0
2067,58.0,0,59,5.0,48.0
2068,46.0,0,119,8.0,48.0
2069,74.0,60,119,4.0,48.0
2070,62.0,60,59,5.0,48.0
2071,67.0,0,119,11.0,60.0
2072,63.0,0,119,12.0,60.0
2073,58.0,0,119,13.0,60.0
2074,74.0,0,119,10.0,60.0
2075,58.0,0,119,6.0,48.0
2076,57.0,60,119,13.0,60.0
2077,67.0,0,119,11.0,60.0
2078,72.0,0,119,10.0,60.0
2079,45.0,0,119,8.0,48.0
2080,72.0,0,119,4.0,48.0
2081,63.0,0,119,5.0,48.0
2082,67.0,60,1079,0.0,48.0
2083,57.0,0,119,6.0,48.0
2084,63.0,0,479,1.0,48.0
2085,63.0,0,119,12.0,60.0
2086,65.0,0,59,11.0,60.0
2087,62.0,0,59,12.0,60.0
2088,62.0,0,59,5.0,48.0
2089,65.0,0,59,0.0,48.0
2090,74.0,0,59,4.0,48.0
2091,74.0,0,59,10.0,60.0
2092,62.0,120,59,1.0,48.0
2093,75.0,0,59,4.0,48.0
2094,60.0,0,59,12.0,60.0
2095,60.0,0,119,13.0,60.0
2096,60.0,0,59,5.0,48.0
2097,60.0,0,119,6.0,48.0
2098,63.0,0,59,0.0,48.0
2099,63.0,60,59,11.0,60.0
2100,75.0,0,59,10.0,60.0
2101,48.0,0,119,8.0,48.0
2102,60.0,0,59,1.0,48.0
2103,58.0,0,59,5.0,48.0
2104,65.0,0,59,0.0,48.0
2105,58.0,0,119,12.0,60.0
2106,41.0,0,119,8.0,48.0
2107,53.0,0,119,13.0,60.0
2108,65.0,0,119,11.0,60.0
2109,58.0,0,119,1.0,48.0
2110,65.0,60,59,5.0,48.0
2111,53.0,0,119,6.0,48.0
2112,74.0,60,119,4.0,48.0
2113,74.0,0,119,10.0,60.0
2114,63.0,0,59,0.0,48.0
2115,57.0,0,59,5.0,48.0
2116,65.0,60,59,5.0,48.0
2117,63.0,0,119,11.0,60.0
2118,45.0,0,119,8.0,48.0
2119,72.0,60,119,4.0,48.0
2120,57.0,0,119,13.0,60.0
2121,72.0,0,119,10.0,60.0
2122,57.0,0,119,6.0,48.0
2123,60.0,0,119,1.0,48.0
2124,60.0,0,119,12.0,60.0
2125,62.0,0,119,11.0,60.0
2126,62.0,0,119,0.0,48.0
2127,58.0,0,119,13.0,60.0
2128,46.0,0,119,8.0,48.0
2129,62.0,120,119,13.0,60.0
2130,58.0,60,239,6.0,54.0
2131,65.0,0,119,0.0,54.0
2132,58.0,0,239,12.0,60.0
2133,58.0,0,239,1.0,48.0
2134,65.0,0,239,5.0,54.0
2135,50.0,0,119,8.0,48.0
2136,74.0,0,239,4.0,48.0
2137,74.0,0,239,10.0,60.0
2138,65.0,0,119,11.0,60.0
2139,70.0,0,59,0.0,60.0
2140,46.0,0,119,8.0,54.0
2141,62.0,0,119,12.0,60.0
2142,70.0,0,119,11.0,60.0
2143,74.0,0,119,10.0,60.0
2144,62.0,0,119,1.0,54.0
2145,58.0,120,119,13.0,60.0
2146,70.0,0,59,0.0,66.0
2147,45.0,0,119,8.0,60.0
2148,70.0,0,239,5.0,60.0
2149,74.0,0,119,10.0,60.0
2150,57.0,120,119,13.0,60.0
2151,70.0,0,119,11.0,60.0
2152,74.0,0,239,4.0,54.0
2153,65.0,0,239,6.0,60.0
2154,65.0,0,119,12.0,60.0
2155,65.0,0,119,1.0,60.0
2156,76.0,120,29,10.0,60.0
2157,77.0,30,29,10.0,60.0
2158,76.0,30,29,10.0,60.0
2159,43.0,0,119,8.0,63.0
2160,77.0,30,29,10.0,60.0
2161,76.0,0,29,10.0,60.0
2162,77.0,30,29,10.0,60.0
2163,76.0,30,29,10.0,60.0
2164,46.0,30,119,8.0,66.0
2165,76.0,0,239,4.0,60.0
2166,77.0,30,29,10.0,60.0
2167,76.0,0,29,10.0,60.0
2168,77.0,30,29,10.0,60.0
2169,76.0,30,29,10.0,60.0
2170,77.0,30,29,10.0,60.0
2171,70.0,0,359,11.0,60.0
2172,58.0,0,359,12.0,60.0
2173,43.0,30,119,8.0,69.0
2174,55.0,0,359,13.0,60.0
2175,58.0,0,479,1.0,72.0
2176,76.0,0,239,4.0,66.0
2177,55.0,0,119,13.0,60.0
2178,67.0,0,479,6.0,66.0
2179,58.0,30,119,12.0,60.0
2180,70.0,0,479,5.0,66.0
2181,70.0,0,479,0.0,72.0
2182,76.0,0,119,10.0,60.0
2183,43.0,0,119,8.0,72.0
2184,70.0,0,119,11.0,60.0
2185,69.0,120,59,5.0,72.0
2186,65.0,60,59,5.0,48.0
2187,65.0,60,59,5.0,48.0
2188,65.0,60,59,5.0,48.0
2189,53.0,0,239,13.0,60.0
2190,41.0,0,239,8.0,72.0
2191,60.0,0,239,6.0,72.0
2192,69.0,0,239,0.0,72.0
2193,60.0,0,239,12.0,60.0
2194,77.0,0,239,10.0,60.0
2195,69.0,0,239,11.0,60.0
2196,60.0,0,239,1.0,72.0
2197,77.0,0,299,4.0,72.0
2198,82.0,60,59,4.0,48.0
2199,74.0,0,29,4.0,48.0
2200,62.0,0,59,12.0,60.0
2201,70.0,0,59,11.0,60.0
2202,74.0,60,29,4.0,48.0
2203,65.0,60,239,5.0,48.0
2204,62.0,0,59,12.0,60.0
2205,74.0,0,119,0.0,48.0
2206,58.0,0,119,1.0,48.0
2207,70.0,0,59,11.0,60.0
2208,70.0,60,119,0.0,48.0
2209,58.0,0,119,6.0,48.0
2210,62.0,0,119,1.0,48.0
2211,69.0,0,179,11.0,60.0
2212,63.0,0,179,12.0,60.0
2213,75.0,0,179,4.0,48.0
2214,72.0,0,59,4.0,48.0
2215,63.0,0,239,1.0,48.0
2216,60.0,60,239,1.0,48.0
2217,72.0,0,239,0.0,48.0
2218,75.0,0,239,0.0,48.0
2219,60.0,180,59,12.0,60.0
2220,72.0,0,59,11.0,60.0
2221,57.0,0,239,6.0,48.0
2222,29.0,0,239,8.0,48.0
2223,60.0,0,119,6.0,48.0
2224,69.0,0,119,4.0,48.0
2225,77.0,0,59,4.0,48.0
2226,77.0,0,59,10.0,60.0
2227,57.0,0,59,13.0,60.0
2228,65.0,0,239,11.0,60.0
2229,57.0,60,239,12.0,60.0
2230,57.0,0,59,13.0,60.0
2231,57.0,120,119,1.0,48.0
2232,60.0,0,119,1.0,48.0
2233,63.0,0,119,6.0,48.0
2234,77.0,60,59,10.0,60.0
2235,65.0,0,479,5.0,48.0
2236,72.0,0,119,0.0,48.0
2237,69.0,0,119,0.0,48.0
2238,58.0,0,119,13.0,60.0
2239,77.0,0,179,10.0,60.0
2240,77.0,0,179,4.0,48.0
2241,74.0,0,239,0.0,48.0
2242,70.0,0,239,0.0,48.0
2243,62.0,0,239,1.0,48.0
2244,74.0,0,59,4.0,48.0
2245,58.0,60,239,1.0,48.0
2246,46.0,120,119,13.0,60.0
2247,34.0,0,239,8.0,48.0
2248,74.0,60,59,10.0,60.0
2249,70.0,0,119,4.0,48.0
2250,62.0,0,359,6.0,48.0
2251,74.0,0,59,4.0,48.0
2252,70.0,0,119,0.0,48.0
2253,58.0,0,119,6.0,48.0
2254,62.0,0,119,12.0,60.0
2255,70.0,0,119,11.0,60.0
2256,74.0,0,119,0.0,48.0
2257,70.0,60,239,10.0,60.0
2258,65.0,0,479,5.0,48.0
2259,62.0,120,119,1.0,48.0
2260,58.0,0,119,1.0,48.0
2261,69.0,0,179,11.0,60.0
2262,63.0,0,179,12.0,60.0
2263,75.0,0,179,4.0,48.0
2264,57.0,0,239,6.0,48.0
2265,72.0,0,59,11.0,60.0
2266,72.0,0,239,0.0,48.0
2267,75.0,0,239,0.0,48.0
2268,60.0,0,59,12.0,60.0
2269,72.0,180,59,4.0,48.0
2270,60.0,0,239,1.0,48.0
2271,63.0,0,239,1.0,48.0
2272,41.0,0,239,8.0,48.0
2273,69.0,0,119,4.0,48.0
2274,60.0,0,119,6.0,48.0
2275,77.0,120,59,4.0,48.0
2276,53.0,0,1919,3.0,48.0
2277,60.0,0,119,1.0,48.0
2278,65.0,0,1919,3.0,48.0
2279,65.0,0,239,11.0,60.0
2280,57.0,0,119,1.0,48.0
2281,65.0,120,479,5.0,48.0
2282,63.0,0,119,6.0,48.0
2283,69.0,0,119,0.0,48.0
2284,72.0,0,119,0.0,48.0
2285,57.0,60,239,12.0,60.0
2286,77.0,0,119,10.0,60.0
2287,57.0,0,119,13.0,60.0
2288,58.0,0,119,13.0,60.0
2289,77.0,0,179,10.0,60.0
2290,77.0,0,179,4.0,48.0
2291,62.0,120,119,12.0,60.0
2292,74.0,60,59,10.0,60.0
2293,70.0,0,239,0.0,48.0
2294,46.0,0,239,1.0,48.0
2295,74.0,0,239,0.0,48.0
2296,46.0,0,119,13.0,60.0
2297,34.0,0,239,8.0,48.0
2298,65.0,0,119,11.0,60.0
2299,74.0,0,59,4.0,48.0
2300,70.0,0,119,4.0,48.0
2301,46.0,0,119,8.0,48.0
2302,77.0,0,119,0.0,48.0
2303,62.0,120,359,6.0,48.0
2304,62.0,0,119,12.0,60.0
2305,70.0,60,119,10.0,60.0
2306,74.0,0,119,0.0,48.0
2307,58.0,0,119,1.0,48.0
2308,65.0,0,119,11.0,60.0
2309,60.0,0,59,12.0,60.0
2310,65.0,0,59,11.0,60.0
2311,72.0,0,59,4.0,48.0
2312,56.0,120,119,13.0,60.0
2313,56.0,0,119,1.0,48.0
2314,65.0,0,59,11.0,60.0
2315,77.0,0,119,0.0,48.0
2316,44.0,0,119,8.0,48.0
2317,60.0,0,119,6.0,48.0
2318,60.0,60,59,12.0,60.0
2319,72.0,0,119,0.0,48.0
2320,65.0,0,479,5.0,48.0
2321,43.0,0,119,8.0,48.0
2322,65.0,0,119,5.0,48.0
2323,59.0,0,119,6.0,48.0
2324,65.0,0,119,11.0,60.0
2325,59.0,0,119,12.0,60.0
2326,55.0,0,119,1.0,48.0
2327,60.0,0,59,12.0,60.0
2328,63.0,120,59,11.0,60.0
2329,60.0,0,59,6.0,48.0
2330,63.0,0,59,5.0,48.0
2331,62.0,30,59,12.0,60.0
2332,77.0,60,239,0.0,48.0
2333,71.0,0,239,0.0,48.0
2334,31.0,0,119,8.0,48.0
2335,55.0,0,239,13.0,60.0
2336,65.0,0,59,5.0,48.0
2337,62.0,0,59,6.0,48.0
2338,74.0,0,239,4.0,48.0
2339,65.0,0,59,11.0,60.0
2340,43.0,30,119,1.0,48.0
2341,63.0,0,119,12.0,60.0
2342,67.0,0,119,5.0,48.0
2343,67.0,60,119,11.0,60.0
2344,63.0,0,119,6.0,48.0
2345,55.0,0,119,13.0,60.0
2346,77.0,0,59,10.0,60.0
2347,67.0,0,119,11.0,60.0
2348,62.0,120,119,12.0,60.0
2349,55.0,0,119,13.0,60.0
2350,77.0,0,119,0.0,48.0
2351,77.0,0,119,4.0,48.0
2352,62.0,0,119,6.0,48.0
2353,77.0,60,59,10.0,60.0
2354,67.0,0,119,5.0,48.0
2355,43.0,0,119,8.0,48.0
2356,71.0,0,119,0.0,48.0
2357,55.0,0,119,1.0,48.0
2358,60.0,60,59,13.0,60.0
2359,48.0,60,59,13.0,60.0
2360,76.0,0,119,10.0,60.0
2361,48.0,0,119,8.0,48.0
2362,60.0,0,119,1.0,48.0
2363,76.0,0,119,4.0,48.0
2364,60.0,0,239,12.0,60.0
2365,67.0,0,239,5.0,48.0
2366,36.0,0,119,8.0,48.0
2367,79.0,0,119,4.0,48.0
2368,60.0,0,239,6.0,48.0
2369,76.0,0,239,0.0,48.0
2370,72.0,0,239,0.0,48.0
2371,48.0,60,119,1.0,48.0
2372,67.0,0,239,11.0,60.0
2373,48.0,0,119,13.0,60.0
2374,79.0,0,119,10.0,60.0
2375,72.0,0,119,10.0,60.0
2376,64.0,0,119,6.0,48.0
2377,64.0,0,119,12.0,60.0
2378,72.0,120,119,4.0,48.0
2379,74.0,0,59,4.0,48.0
2380,58.0,0,59,13.0,60.0
2381,72.0,0,119,5.0,48.0
2382,76.0,60,59,4.0,48.0
2383,36.0,0,119,8.0,48.0
2384,48.0,0,119,1.0,48.0
2385,72.0,0,119,11.0,60.0
2386,76.0,0,119,0.0,48.0
2387,58.0,0,59,13.0,60.0
2388,76.0,0,119,10.0,60.0
2389,67.0,120,119,12.0,60.0
2390,72.0,0,119,0.0,48.0
2391,67.0,0,119,6.0,48.0
2392,53.0,0,119,1.0,48.0
2393,57.0,0,119,6.0,48.0
2394,41.0,0,119,8.0,48.0
2395,57.0,0,119,13.0,60.0
2396,60.0,0,119,13.0,60.0
2397,77.0,0,239,0.0,48.0
2398,72.0,0,239,0.0,48.0
2399,72.0,0,239,11.0,60.0
2400,41.0,0,119,1.0,48.0
2401,29.0,0,119,8.0,48.0
2402,77.0,0,239,10.0,60.0
2403,60.0,120,119,6.0,48.0
2404,72.0,0,239,5.0,48.0
2405,60.0,0,239,12.0,60.0
2406,69.0,0,119,5.0,48.0
2407,77.0,120,119,10.0,60.0
2408,77.0,60,359,4.0,48.0
2409,53.0,0,119,13.0,60.0
2410,69.0,0,119,11.0,60.0
2411,65.0,0,119,12.0,60.0
2412,65.0,0,119,6.0,48.0
2413,41.0,0,119,8.0,48.0
2414,57.0,0,119,13.0,60.0
2415,57.0,0,119,6.0,48.0
2416,53.0,0,119,1.0,48.0
2417,75.0,0,119,4.0,48.0
2418,72.0,0,119,5.0,48.0
2419,75.0,0,119,10.0,60.0
2420,65.0,0,119,12.0,60.0
2421,72.0,120,119,11.0,60.0
2422,72.0,0,119,0.0,48.0
2423,75.0,0,119,0.0,48.0
2424,58.0,0,119,6.0,48.0
2425,74.0,0,119,10.0,60.0
2426,46.0,0,119,8.0,48.0
2427,58.0,0,119,12.0,60.0
2428,58.0,0,119,1.0,48.0
2429,74.0,0,119,4.0,48.0
2430,74.0,0,119,0.0,48.0
2431,70.0,120,119,0.0,48.0
2432,34.0,120,119,8.0,48.0
2433,75.0,0,119,10.0,60.0
2434,58.0,0,239,13.0,60.0
2435,46.0,0,119,1.0,48.0
2436,75.0,0,119,4.0,48.0
2437,60.0,0,119,12.0,60.0
2438,60.0,0,119,6.0,48.0
2439,61.0,0,119,6.0,48.0
2440,46.0,0,119,13.0,60.0
2441,76.0,0,119,10.0,60.0
2442,61.0,120,119,12.0,60.0
2443,76.0,0,119,4.0,48.0
2444,77.0,0,119,10.0,60.0
2445,46.0,120,119,1.0,48.0
2446,62.0,0,119,12.0,60.0
2447,62.0,0,119,6.0,48.0
2448,34.0,0,119,8.0,48.0
2449,77.0,0,119,4.0,48.0
2450,46.0,0,119,13.0,60.0
2451,78.0,0,119,4.0,48.0
2452,39.0,0,119,8.0,48.0
2453,62.0,0,119,12.0,60.0
2454,51.0,0,119,1.0,48.0
2455,78.0,0,119,10.0,60.0
2456,62.0,120,119,6.0,48.0
2457,79.0,0,119,4.0,48.0
2458,63.0,0,119,6.0,48.0
2459,70.0,0,719,11.0,60.0
2460,63.0,120,119,1.0,48.0
2461,51.0,0,119,8.0,48.0
2462,79.0,0,119,10.0,60.0
2463,63.0,0,119,12.0,60.0
2464,51.0,0,239,13.0,60.0
2465,68.0,0,59,6.0,48.0
2466,68.0,0,59,12.0,60.0
2467,77.0,0,59,4.0,48.0
2468,77.0,120,59,10.0,60.0
2469,67.0,0,59,6.0,48.0
2470,75.0,0,59,10.0,60.0
2471,70.0,0,119,11.0,60.0
2472,75.0,0,59,4.0,48.0
2473,67.0,60,59,12.0,60.0
2474,51.0,0,119,13.0,60.0
2475,70.0,0,839,5.0,48.0
2476,69.0,0,59,11.0,60.0
2477,74.0,0,59,10.0,60.0
2478,65.0,0,59,6.0,48.0
2479,69.0,0,59,5.0,48.0
2480,74.0,0,59,4.0,48.0
2481,65.0,60,59,12.0,60.0
2482,67.0,0,59,11.0,60.0
2483,72.0,0,59,10.0,60.0
2484,51.0,0,119,13.0,60.0
2485,63.0,0,59,6.0,48.0
2486,67.0,60,59,5.0,48.0
2487,51.0,0,119,1.0,48.0
2488,72.0,0,59,4.0,48.0
2489,39.0,0,119,8.0,48.0
2490,63.0,0,59,12.0,60.0
2491,62.0,0,59,6.0,48.0
2492,53.0,0,119,1.0,48.0
2493,41.0,0,119,8.0,48.0
2494,62.0,0,59,6.0,48.0
2495,29.0,120,119,8.0,48.0
2496,65.0,0,239,5.0,48.0
2497,41.0,0,119,1.0,48.0
2498,70.0,60,329,4.0,48.0
2499,70.0,0,329,10.0,60.0
2500,65.0,120,119,5.0,48.0
2501,65.0,0,359,11.0,60.0
2502,62.0,0,119,6.0,48.0
2503,74.0,90,29,4.0,48.0
2504,74.0,0,29,10.0,60.0
2505,62.0,0,359,12.0,60.0
2506,53.0,0,359,13.0,60.0
2507,69.0,0,119,11.0,60.0
2508,63.0,0,119,6.0,48.0
2509,72.0,0,119,4.0,48.0
2510,54.0,0,119,1.0,48.0
2511,69.0,0,119,5.0,48.0
2512,63.0,0,119,12.0,60.0
2513,42.0,0,119,8.0,48.0
2514,54.0,0,119,13.0,60.0
2515,72.0,30,119,10.0,60.0
2516,55.0,0,119,1.0,48.0
2517,70.0,0,119,10.0,60.0
2518,70.0,0,119,4.0,48.0
2519,43.0,0,119,8.0,48.0
2520,55.0,120,119,13.0,60.0
2521,62.0,0,119,6.0,48.0
2522,55.0,0,59,13.0,60.0
2523,70.0,0,59,10.0,60.0
2524,55.0,0,119,6.0,48.0
2525,70.0,0,239,5.0,48.0
2526,70.0,0,119,4.0,48.0
2527,43.0,120,119,1.0,48.0
2528,70.0,0,239,11.0,60.0
2529,62.0,0,239,12.0,60.0
2530,31.0,0,119,8.0,48.0
2531,70.0,0,59,10.0,60.0
2532,55.0,60,59,13.0,60.0
2533,58.0,0,119,13.0,60.0
2534,74.0,0,119,4.0,48.0
2535,74.0,60,119,10.0,60.0
2536,58.0,0,119,6.0,48.0
2537,62.0,120,59,11.0,60.0
2538,55.0,0,59,12.0,60.0
2539,62.0,0,59,11.0,60.0
2540,70.0,0,119,4.0,48.0
2541,70.0,0,119,10.0,60.0
2542,55.0,60,59,12.0,60.0
2543,55.0,0,119,7.0,48.0
2544,55.0,0,119,6.0,48.0
2545,62.0,0,119,5.0,48.0
2546,55.0,0,119,13.0,60.0
2547,55.0,0,119,1.0,48.0
2548,70.0,0,119,11.0,60.0
2549,67.0,0,119,12.0,60.0
2550,67.0,0,119,6.0,48.0
2551,67.0,60,119,7.0,48.0
2552,70.0,0,119,5.0,48.0
2553,67.0,0,119,1.0,48.0
2554,74.0,0,119,10.0,60.0
2555,65.0,0,119,6.0,48.0
2556,69.0,120,119,11.0,60.0
2557,65.0,0,119,1.0,48.0
2558,69.0,0,119,5.0,48.0
2559,74.0,0,119,4.0,48.0
2560,65.0,0,119,12.0,60.0
2561,65.0,0,119,7.0,48.0
2562,67.0,0,119,11.0,60.0
2563,67.0,0,119,5.0,48.0
2564,76.0,0,119,4.0,48.0
2565,64.0,0,119,1.0,48.0
2566,64.0,0,119,12.0,60.0
2567,76.0,0,119,10.0,60.0
2568,64.0,120,119,7.0,48.0
2569,64.0,0,119,6.0,48.0
2570,62.0,0,119,6.0,48.0
2571,65.0,0,119,11.0,60.0
2572,62.0,120,119,1.0,48.0
2573,62.0,0,119,7.0,48.0
2574,77.0,0,119,10.0,60.0
2575,77.0,0,119,4.0,48.0
2576,65.0,0,119,5.0,48.0
2577,62.0,0,119,12.0,60.0
2578,60.0,0,119,6.0,48.0
2579,60.0,0,119,1.0,48.0
2580,60.0,0,119,7.0,48.0
2581,79.0,0,179,4.0,48.0
2582,64.0,0,179,11.0,60.0
2583,79.0,0,179,10.0,60.0
2584,64.0,0,179,5.0,48.0
2585,48.0,0,119,7.0,48.0
2586,60.0,120,239,12.0,60.0
2587,76.0,0,59,4.0,48.0
2588,76.0,60,59,10.0,60.0
2589,48.0,120,119,6.0,48.0
2590,48.0,0,119,1.0,48.0
2591,67.0,0,59,5.0,48.0
2592,67.0,0,59,11.0,60.0
2593,70.0,0,59,4.0,48.0
2594,67.0,0,59,5.0,48.0
2595,70.0,60,119,10.0,60.0
2596,64.0,0,119,12.0,60.0
2597,67.0,0,119,11.0,60.0
2598,70.0,0,59,4.0,48.0
2599,67.0,0,59,5.0,48.0
2600,70.0,120,119,10.0,60.0
2601,48.0,0,119,13.0,60.0
2602,63.0,0,119,6.0,48.0
2603,64.0,0,119,12.0,60.0
2604,48.0,0,119,1.0,48.0
2605,36.0,0,119,8.0,48.0
2606,67.0,0,119,11.0,60.0
2607,41.0,0,119,8.0,48.0
2608,53.0,0,119,1.0,48.0
2609,65.0,0,179,11.0,60.0
2610,65.0,0,179,12.0,60.0
2611,69.0,120,179,4.0,48.0
2612,69.0,0,179,10.0,60.0
2613,72.0,60,59,10.0,60.0
2614,29.0,0,119,8.0,48.0
2615,65.0,0,239,6.0,48.0
2616,57.0,0,59,12.0,60.0
2617,53.0,0,239,13.0,60.0
2618,41.0,120,119,1.0,48.0
2619,72.0,0,59,4.0,48.0
2620,65.0,0,59,11.0,60.0
2621,65.0,0,119,11.0,60.0
2622,53.0,0,119,13.0,60.0
2623,75.0,0,119,10.0,60.0
2624,65.0,0,359,5.0,48.0
2625,75.0,0,119,4.0,48.0
2626,57.0,60,119,12.0,60.0
2627,57.0,0,119,6.0,48.0
2628,57.0,0,59,6.0,48.0
2629,65.0,0,59,5.0,48.0
2630,75.0,0,59,4.0,48.0
2631,75.0,0,119,10.0,60.0
2632,53.0,120,119,1.0,48.0
2633,57.0,0,119,12.0,60.0
2634,65.0,0,119,11.0,60.0
2635,53.0,0,119,13.0,60.0
2636,41.0,0,119,8.0,48.0
2637,75.0,0,59,4.0,48.0
2638,75.0,0,59,10.0,60.0
2639,46.0,120,119,8.0,48.0
2640,74.0,60,59,4.0,48.0
2641,58.0,0,119,1.0,48.0
2642,58.0,0,119,13.0,60.0
2643,74.0,0,59,10.0,60.0
2644,75.0,0,59,10.0,60.0
2645,75.0,0,59,4.0,48.0
2646,77.0,0,59,4.0,48.0
2647,77.0,60,59,10.0,60.0
2648,58.0,0,239,12.0,60.0
2649,44.0,0,119,8.0,48.0
2650,65.0,0,239,5.0,48.0
2651,56.0,0,119,13.0,60.0
2652,65.0,0,239,11.0,60.0
2653,56.0,60,119,1.0,48.0
2654,77.0,0,59,4.0,48.0
2655,77.0,0,59,10.0,60.0
2656,75.0,60,59,4.0,48.0
2657,55.0,0,119,13.0,60.0
2658,67.0,60,119,11.0,60.0
2659,75.0,0,59,10.0,60.0
2660,55.0,0,119,1.0,48.0
2661,58.0,0,119,12.0,60.0
2662,43.0,0,119,8.0,48.0
2663,67.0,0,119,5.0,48.0
2664,58.0,0,359,6.0,48.0
2665,77.0,0,59,4.0,48.0
2666,77.0,0,59,10.0,60.0
2667,79.0,60,29,4.0,48.0
2668,79.0,0,29,10.0,60.0
2669,67.0,0,119,11.0,60.0
2670,79.0,0,29,4.0,48.0
2671,79.0,30,29,10.0,60.0
2672,58.0,0,119,6.0,48.0
2673,58.0,0,119,12.0,60.0
2674,67.0,0,119,5.0,48.0
2675,51.0,60,119,1.0,48.0
2676,51.0,0,119,13.0,60.0
2677,39.0,0,119,8.0,48.0
2678,53.0,0,119,1.0,48.0
2679,65.0,0,119,5.0,48.0
2680,62.0,30,119,6.0,48.0
2681,41.0,0,119,8.0,48.0
2682,65.0,0,119,5.0,48.0
2683,62.0,120,119,6.0,48.0
2684,53.0,0,119,1.0,48.0
2685,41.0,0,119,8.0,48.0
2686,62.0,0,359,12.0,60.0
2687,41.0,0,119,8.0,48.0
2688,53.0,0,119,1.0,48.0
2689,70.0,0,359,4.0,48.0
2690,62.0,120,119,6.0,48.0
2691,65.0,0,359,11.0,60.0
2692,65.0,0,119,5.0,48.0
2693,70.0,0,359,10.0,60.0
2694,53.0,0,359,13.0,60.0
2695,72.0,0,119,10.0,60.0
2696,69.0,0,119,11.0,60.0
2697,41.0,0,119,8.0,48.0
2698,53.0,0,119,1.0,48.0
2699,63.0,0,119,6.0,48.0
2700,53.0,0,119,13.0,60.0
2701,69.0,120,119,5.0,48.0
2702,72.0,0,119,4.0,48.0
2703,63.0,0,119,12.0,60.0
2704,70.0,0,59,4.0,72.0
2705,62.0,0,119,12.0,60.0
2706,46.0,0,119,1.0,48.0
2707,46.0,0,119,13.0,60.0
2708,65.0,60,59,4.0,72.0
2709,70.0,0,119,5.0,48.0
2710,62.0,0,119,6.0,48.0
2711,58.0,0,59,13.0,72.0
2712,58.0,0,59,6.0,72.0
2713,62.0,0,59,4.0,72.0
2714,62.0,0,59,5.0,72.0
2715,62.0,0,59,12.0,72.0
2716,70.0,0,239,10.0,60.0
2717,70.0,0,239,11.0,60.0
2718,58.0,0,119,3.0,72.0
2719,58.0,0,119,1.0,72.0
2720,62.0,60,119,1.0,72.0
2721,62.0,0,119,3.0,72.0
2722,58.0,0,59,13.0,72.0
2723,62.0,0,59,12.0,72.0
2724,65.0,60,59,4.0,72.0
2725,34.0,120,239,8.0,48.0
2726,70.0,0,59,4.0,72.0
2727,65.0,0,119,12.0,72.0
2728,62.0,0,119,3.0,72.0
2729,62.0,0,119,1.0,72.0
2730,65.0,60,59,4.0,72.0
2731,62.0,0,119,13.0,72.0
2732,65.0,0,119,5.0,72.0
2733,65.0,60,119,3.0,72.0
2734,65.0,0,119,1.0,72.0
2735,62.0,0,119,6.0,72.0
2736,70.0,60,59,11.0,72.0
2737,70.0,0,59,4.0,72.0
2738,74.0,0,59,10.0,72.0
2739,58.0,0,119,1.0,72.0
2740,58.0,0,119,13.0,72.0
2741,58.0,0,119,6.0,72.0
2742,62.0,0,119,12.0,72.0
2743,62.0,0,119,1.0,72.0
2744,62.0,0,119,3.0,72.0
2745,74.0,60,59,4.0,72.0
2746,70.0,0,119,0.0,72.0
2747,46.0,0,119,8.0,72.0
2748,58.0,0,119,3.0,72.0
2749,70.0,0,59,11.0,72.0
2750,74.0,0,59,10.0,72.0
2751,74.0,0,119,0.0,72.0
2752,62.0,0,119,5.0,72.0
2753,77.0,0,59,4.0,72.0
2754,77.0,0,119,0.0,72.0
2755,74.0,0,119,11.0,72.0
2756,74.0,60,59,4.0,72.0
2757,77.0,0,119,10.0,72.0
2758,74.0,0,119,0.0,72.0
2759,62.0,0,59,5.0,72.0
2760,58.0,0,59,6.0,72.0
2761,70.0,0,59,4.0,72.0
2762,62.0,0,119,3.0,72.0
2763,74.0,0,119,10.0,72.0
2764,70.0,0,119,11.0,72.0
2765,65.0,60,59,4.0,72.0
2766,34.0,60,239,8.0,72.0
2767,62.0,0,119,1.0,72.0
2768,58.0,0,119,1.0,72.0
2769,62.0,0,119,12.0,72.0
2770,70.0,0,119,0.0,72.0
2771,74.0,60,119,0.0,72.0
2772,58.0,0,119,3.0,72.0
2773,58.0,0,119,13.0,72.0
2774,70.0,0,59,4.0,72.0
2775,62.0,60,119,13.0,72.0
2776,65.0,0,119,1.0,72.0
2777,62.0,0,119,1.0,72.0
2778,65.0,0,119,5.0,72.0
2779,62.0,0,119,6.0,72.0
2780,65.0,0,119,3.0,72.0
2781,65.0,0,119,12.0,72.0
2782,65.0,60,59,4.0,72.0
2783,62.0,0,119,3.0,72.0
2784,70.0,0,59,4.0,72.0
2785,58.0,0,119,6.0,72.0
2786,74.0,60,59,4.0,72.0
2787,70.0,0,119,0.0,72.0
2788,74.0,0,119,0.0,72.0
2789,58.0,0,119,1.0,72.0
2790,62.0,0,119,1.0,72.0
2791,62.0,0,119,3.0,72.0
2792,62.0,0,119,12.0,72.0
2793,46.0,60,119,8.0,72.0
2794,62.0,0,119,5.0,72.0
2795,58.0,0,119,13.0,72.0
2796,58.0,0,119,3.0,72.0
2797,70.0,0,119,11.0,72.0
2798,74.0,0,119,10.0,72.0
2799,77.0,0,59,4.0,72.0
2800,74.0,0,119,11.0,72.0
2801,74.0,0,119,0.0,72.0
2802,74.0,60,59,4.0,72.0
2803,77.0,60,119,10.0,72.0
2804,77.0,0,119,0.0,72.0
2805,55.0,0,59,6.0,72.0
2806,58.0,0,59,5.0,72.0
2807,70.0,0,59,4.0,72.0
2808,58.0,0,119,12.0,72.0
2809,70.0,0,119,0.0,72.0
2810,58.0,0,119,1.0,72.0
2811,74.0,0,119,0.0,72.0
2812,55.0,0,119,1.0,72.0
2813,43.0,0,239,8.0,72.0
2814,55.0,0,119,3.0,72.0
2815,65.0,60,59,4.0,72.0
2816,70.0,0,119,11.0,72.0
2817,58.0,60,119,3.0,72.0
2818,74.0,0,119,10.0,72.0
2819,55.0,0,119,13.0,72.0
2820,70.0,0,59,4.0,72.0
2821,58.0,0,119,6.0,72.0
2822,62.0,0,119,12.0,72.0
2823,62.0,60,119,1.0,72.0
2824,58.0,0,119,13.0,72.0
2825,58.0,0,119,1.0,72.0
2826,65.0,60,59,4.0,72.0
2827,58.0,0,119,3.0,72.0
2828,62.0,0,119,5.0,72.0
2829,62.0,0,119,3.0,72.0
2830,70.0,0,59,4.0,72.0
2831,55.0,0,119,3.0,72.0
2832,58.0,0,119,3.0,72.0
2833,70.0,0,119,0.0,72.0
2834,74.0,0,119,0.0,72.0
2835,70.0,60,119,11.0,72.0
2836,43.0,0,119,8.0,72.0
2837,74.0,60,59,4.0,72.0
2838,58.0,0,119,1.0,72.0
2839,58.0,0,119,5.0,72.0
2840,58.0,0,119,12.0,72.0
2841,55.0,0,119,6.0,72.0
2842,55.0,0,119,1.0,72.0
2843,55.0,0,119,13.0,72.0
2844,74.0,0,119,10.0,72.0
2845,67.0,120,119,3.0,72.0
2846,58.0,0,119,1.0,72.0
2847,61.0,0,119,1.0,72.0
2848,61.0,0,119,12.0,72.0
2849,55.0,0,119,3.0,72.0
2850,52.0,0,119,13.0,72.0
2851,40.0,0,239,8.0,72.0
2852,79.0,0,239,10.0,72.0
2853,70.0,0,239,11.0,72.0
2854,70.0,0,119,11.0,72.0
2855,67.0,0,119,3.0,72.0
2856,55.0,120,119,3.0,72.0
2857,70.0,0,359,0.0,72.0
2858,73.0,0,359,0.0,72.0
2859,61.0,0,119,12.0,72.0
2860,61.0,0,119,1.0,72.0
2861,79.0,0,119,10.0,72.0
2862,58.0,0,119,1.0,72.0
2863,52.0,0,119,13.0,72.0
2864,61.0,0,59,12.0,72.0
2865,52.0,0,59,13.0,72.0
2866,61.0,0,119,1.0,72.0
2867,58.0,0,119,1.0,72.0
2868,40.0,0,119,8.0,72.0
2869,61.0,0,479,6.0,72.0
2870,79.0,60,479,4.0,72.0
2871,61.0,60,59,12.0,72.0
2872,70.0,0,119,11.0,72.0
2873,70.0,0,479,5.0,72.0
2874,55.0,0,119,3.0,72.0
2875,52.0,0,59,13.0,72.0
2876,67.0,120,119,3.0,72.0
2877,70.0,0,119,0.0,72.0
2878,73.0,0,119,0.0,72.0
2879,79.0,0,119,10.0,72.0
2880,60.0,0,59,6.0,72.0
2881,65.0,60,59,6.0,72.0
2882,65.0,0,59,6.0,72.0
2883,60.0,0,179,12.0,72.0
2884,51.0,0,179,13.0,72.0
2885,57.0,0,119,1.0,72.0
2886,39.0,0,239,8.0,72.0
2887,65.0,0,59,12.0,72.0
2888,51.0,60,59,13.0,72.0
2889,72.0,0,239,10.0,72.0
2890,69.0,0,239,11.0,72.0
2891,57.0,0,119,3.0,72.0
2892,65.0,0,59,6.0,72.0
2893,65.0,0,119,3.0,72.0
2894,60.0,60,119,1.0,72.0
2895,57.0,0,119,3.0,72.0
2896,69.0,60,359,0.0,72.0
2897,72.0,0,359,0.0,72.0
2898,65.0,60,119,12.0,72.0
2899,69.0,0,119,11.0,72.0
2900,72.0,0,119,10.0,72.0
2901,57.0,0,119,1.0,72.0
2902,60.0,0,119,1.0,72.0
2903,51.0,0,119,13.0,72.0
2904,65.0,0,119,3.0,72.0
2905,57.0,0,119,3.0,72.0
2906,51.0,0,119,13.0,72.0
2907,69.0,0,119,11.0,72.0
2908,65.0,0,239,6.0,72.0
2909,69.0,0,119,0.0,72.0
2910,69.0,0,479,5.0,72.0
2911,72.0,0,119,0.0,72.0
2912,65.0,0,119,3.0,72.0
2913,39.0,0,119,8.0,72.0
2914,65.0,0,119,12.0,72.0
2915,60.0,0,119,1.0,72.0
2916,72.0,120,119,10.0,72.0
2917,57.0,0,119,1.0,72.0
2918,72.0,0,479,4.0,72.0
2919,38.0,0,119,8.0,48.0
2920,50.0,0,239,13.0,72.0
2921,65.0,0,239,3.0,72.0
2922,65.0,0,239,6.0,48.0
2923,70.0,0,239,0.0,72.0
2924,70.0,120,239,11.0,72.0
2925,38.0,120,119,8.0,48.0
2926,70.0,0,239,5.0,48.0
2927,62.0,0,239,1.0,72.0
2928,53.0,0,239,1.0,72.0
2929,58.0,0,239,3.0,72.0
2930,77.0,0,239,0.0,72.0
2931,65.0,0,239,12.0,72.0
2932,77.0,0,299,10.0,72.0
2933,77.0,0,299,4.0,48.0
2934,39.0,0,119,8.0,48.0
2935,74.0,60,59,4.0,48.0
2936,67.0,0,119,5.0,48.0
2937,74.0,0,59,10.0,72.0
2938,58.0,120,119,6.0,48.0
2939,67.0,0,119,11.0,72.0
2940,51.0,0,119,13.0,72.0
2941,58.0,0,119,12.0,72.0
2942,75.0,0,59,10.0,72.0
2943,75.0,0,59,4.0,48.0
2944,67.0,0,59,5.0,48.0
2945,63.0,60,59,6.0,48.0
2946,67.0,0,119,11.0,72.0
2947,72.0,60,59,4.0,48.0
2948,39.0,0,119,8.0,48.0
2949,63.0,0,119,12.0,72.0
2950,51.0,0,119,13.0,72.0
2951,72.0,0,59,10.0,72.0
2952,41.0,0,119,8.0,48.0
2953,41.0,120,119,8.0,48.0
2954,70.0,0,239,4.0,48.0
2955,62.0,0,239,6.0,48.0
2956,65.0,60,239,5.0,48.0
2957,70.0,0,29,4.0,48.0
2958,62.0,0,59,6.0,48.0
2959,65.0,0,59,5.0,48.0
2960,70.0,0,329,10.0,72.0
2961,62.0,0,59,6.0,48.0
2962,62.0,0,359,12.0,72.0
2963,70.0,0,59,4.0,48.0
2964,65.0,0,359,11.0,72.0
2965,29.0,120,119,8.0,48.0
2966,65.0,60,59,5.0,48.0
2967,74.0,30,29,10.0,72.0
2968,53.0,0,359,13.0,72.0
2969,57.0,30,59,6.0,48.0
2970,63.0,0,59,5.0,48.0
2971,74.0,0,59,4.0,48.0
2972,53.0,0,119,13.0,72.0
2973,29.0,0,119,8.0,48.0
2974,63.0,0,59,5.0,48.0
2975,57.0,0,119,12.0,72.0
2976,63.0,0,119,11.0,72.0
2977,57.0,60,59,6.0,48.0
2978,72.0,0,59,4.0,48.0
2979,72.0,0,119,10.0,72.0
2980,34.0,0,239,8.0,48.0
2981,70.0,0,239,4.0,48.0
2982,58.0,0,119,2.0,84.0
2983,62.0,0,239,11.0,72.0
2984,53.0,120,119,3.0,84.0
2985,46.0,0,119,3.0,84.0
2986,62.0,0,239,5.0,48.0
2987,58.0,0,239,6.0,48.0
2988,70.0,0,119,2.0,84.0
2989,46.0,60,239,13.0,72.0
2990,62.0,0,119,0.0,84.0
2991,70.0,0,119,0.0,84.0
2992,62.0,0,119,3.0,84.0
2993,65.0,0,119,1.0,84.0
2994,46.0,0,119,1.0,84.0
2995,70.0,0,239,10.0,72.0
2996,58.0,0,239,12.0,72.0
2997,46.0,0,119,3.0,84.0
2998,70.0,0,119,0.0,84.0
2999,62.0,0,119,0.0,84.0
3000,46.0,0,119,1.0,84.0
3001,65.0,0,119,1.0,84.0
3002,58.0,0,119,2.0,84.0
3003,70.0,0,119,2.0,84.0
3004,62.0,120,119,3.0,84.0
3005,53.0,0,119,3.0,84.0
3006,65.0,120,119,1.0,84.0
3007,58.0,0,119,2.0,84.0
3008,70.0,0,119,2.0,84.0
3009,70.0,0,119,0.0,84.0
3010,53.0,0,119,3.0,84.0
3011,46.0,0,119,3.0,84.0
3012,46.0,0,119,1.0,84.0
3013,62.0,0,119,0.0,84.0
3014,62.0,0,119,3.0,84.0
3015,60.0,90,29,6.0,84.0
3016,72.0,0,29,4.0,84.0
3017,72.0,0,29,5.0,84.0
3018,70.0,0,59,5.0,84.0
3019,70.0,30,59,4.0,84.0
3020,58.0,0,59,6.0,84.0
3021,69.0,0,29,5.0,84.0
3022,57.0,60,29,6.0,84.0
3023,69.0,0,29,4.0,84.0
3024,58.0,0,29,6.0,84.0
3025,70.0,0,29,4.0,84.0
3026,46.0,0,119,8.0,84.0
3027,70.0,30,29,5.0,84.0
3028,74.0,0,59,4.0,84.0
3029,62.0,0,59,6.0,84.0
3030,74.0,0,59,5.0,84.0
3031,58.0,60,59,6.0,84.0
3032,50.0,30,119,8.0,84.0
3033,70.0,0,59,4.0,84.0
3034,70.0,0,59,5.0,84.0
3035,62.0,0,479,0.0,84.0
3036,70.0,0,479,0.0,84.0
3037,53.0,0,479,3.0,84.0
3038,46.0,0,479,3.0,84.0
3039,62.0,0,479,3.0,84.0
3040,70.0,0,479,2.0,84.0
3041,46.0,60,119,8.0,84.0
3042,46.0,0,479,1.0,84.0
3043,65.0,120,479,1.0,84.0
3044,58.0,0,479,2.0,84.0
3045,70.0,0,119,0.0,84.0
3046,70.0,0,119,2.0,84.0
3047,62.0,0,119,2.0,84.0
3048,74.0,0,119,0.0,84.0
3049,43.0,0,239,8.0,84.0
3050,67.0,120,239,4.0,84.0
3051,62.0,0,119,3.0,84.0
3052,58.0,120,119,3.0,84.0
3053,67.0,0,239,5.0,84.0
3054,55.0,0,119,3.0,84.0
3055,43.0,0,119,1.0,84.0
3056,67.0,0,119,1.0,84.0
3057,55.0,0,239,6.0,84.0
3058,74.0,0,119,0.0,84.0
3059,70.0,0,119,0.0,84.0
3060,70.0,120,119,2.0,84.0
3061,62.0,0,119,2.0,84.0
3062,62.0,0,119,3.0,84.0
3063,67.0,0,119,1.0,84.0
3064,58.0,0,119,3.0,84.0
3065,43.0,0,119,1.0,84.0
3066,55.0,0,119,3.0,84.0
3067,74.0,0,119,0.0,84.0
3068,62.0,0,119,3.0,84.0
3069,58.0,0,119,3.0,84.0
3070,70.0,0,119,2.0,84.0
3071,62.0,120,119,2.0,84.0
3072,70.0,0,119,0.0,84.0
3073,55.0,0,119,3.0,84.0
3074,67.0,0,119,1.0,84.0
3075,43.0,0,119,1.0,84.0
3076,69.0,0,29,4.0,84.0
3077,57.0,90,29,6.0,84.0
3078,69.0,0,29,5.0,84.0
3079,67.0,0,59,5.0,84.0
3080,67.0,30,59,4.0,84.0
3081,55.0,0,59,6.0,84.0
3082,54.0,0,29,6.0,84.0
3083,66.0,60,29,4.0,84.0
3084,66.0,0,29,5.0,84.0
3085,67.0,30,29,5.0,84.0
3086,55.0,0,29,6.0,84.0
3087,67.0,0,29,4.0,84.0
3088,43.0,0,119,8.0,84.0
3089,70.0,0,59,5.0,84.0
3090,58.0,0,59,6.0,84.0
3091,70.0,0,59,4.0,84.0
3092,46.0,30,119,8.0,84.0
3093,55.0,0,59,6.0,84.0
3094,67.0,120,59,4.0,84.0
3095,67.0,0,59,5.0,84.0
3096,58.0,0,479,3.0,84.0
3097,70.0,0,479,0.0,84.0
3098,67.0,0,479,1.0,84.0
3099,62.0,120,479,3.0,84.0
3100,74.0,0,479,0.0,84.0
3101,70.0,0,479,2.0,84.0
3102,55.0,0,479,3.0,84.0
3103,43.0,0,119,8.0,84.0
3104,62.0,0,479,2.0,84.0
3105,43.0,0,479,1.0,84.0
3106,58.0,0,119,3.0,84.0
3107,70.0,0,119,2.0,84.0
3108,39.0,120,119,1.0,84.0
3109,63.0,0,119,1.0,84.0
3110,51.0,0,119,3.0,84.0
3111,63.0,0,239,4.0,84.0
3112,67.0,0,119,3.0,84.0
3113,75.0,0,119,0.0,84.0
3114,67.0,0,119,0.0,84.0
3115,51.0,0,239,6.0,84.0
3116,63.0,120,239,5.0,84.0
3117,39.0,0,239,8.0,84.0
3118,63.0,0,119,1.0,84.0
3119,39.0,0,119,1.0,84.0
3120,67.0,0,119,0.0,84.0
3121,75.0,0,119,0.0,84.0
3122,70.0,0,119,2.0,84.0
3123,67.0,0,119,3.0,84.0
3124,51.0,0,119,3.0,84.0
3125,58.0,120,119,3.0,84.0
3126,51.0,0,119,3.0,84.0
3127,75.0,0,119,0.0,84.0
3128,67.0,120,119,0.0,84.0
3129,63.0,0,119,1.0,84.0
3130,39.0,0,119,1.0,84.0
3131,70.0,0,119,2.0,84.0
3132,67.0,0,119,3.0,84.0
3133,58.0,0,119,3.0,84.0
3134,63.0,0,119,1.0,84.0
3135,45.0,0,119,1.0,84.0
3136,45.0,0,239,3.0,72.0
3137,67.0,0,119,1.0,84.0
3138,67.0,0,239,0.0,84.0
3139,75.0,0,239,5.0,75.0
3140,63.0,0,239,5.0,75.0
3141,63.0,120,119,1.0,84.0
3142,75.0,0,239,0.0,84.0
3143,72.0,0,239,4.0,75.0
3144,79.0,0,239,4.0,75.0
3145,63.0,120,239,4.0,75.0
3146,63.0,0,239,3.0,72.0
3147,72.0,0,239,2.0,72.0
3148,60.0,0,239,3.0,72.0
3149,77.0,0,119,4.0,72.0
3150,74.0,120,119,5.0,72.0
3151,62.0,0,119,1.0,84.0
3152,65.0,0,119,1.0,84.0
3153,33.0,0,479,8.0,75.0
3154,57.0,0,479,6.0,75.0
3155,63.0,0,119,1.0,72.0
3156,60.0,0,119,1.0,72.0
3157,72.0,0,119,5.0,72.0
3158,75.0,120,119,4.0,72.0
3159,74.0,0,59,4.0,72.0
3160,70.0,0,119,2.0,72.0
3161,65.0,0,119,3.0,72.0
3162,82.0,60,59,4.0,72.0
3163,70.0,0,119,5.0,72.0
3164,46.0,0,119,3.0,72.0
3165,34.0,120,119,8.0,72.0
3166,58.0,0,119,1.0,72.0
3167,62.0,0,119,1.0,72.0
3168,58.0,0,119,3.0,72.0
3169,58.0,0,119,6.0,72.0
3170,82.0,0,29,4.0,72.0
3171,82.0,60,29,4.0,72.0
3172,62.0,0,119,1.0,72.0
3173,65.0,0,119,1.0,72.0
3174,65.0,0,119,6.0,72.0
3175,62.0,60,119,5.0,72.0
3176,72.0,0,59,4.0,72.0
3177,51.0,60,119,3.0,72.0
3178,63.0,0,119,1.0,72.0
3179,67.0,0,119,1.0,72.0
3180,58.0,0,119,3.0,72.0
3181,63.0,0,119,6.0,72.0
3182,82.0,60,59,4.0,72.0
3183,67.0,0,119,3.0,72.0
3184,39.0,0,119,8.0,72.0
3185,67.0,0,119,5.0,72.0
3186,82.0,0,29,4.0,72.0
3187,82.0,60,29,4.0,72.0
3188,60.0,60,119,6.0,72.0
3189,63.0,0,119,1.0,72.0
3190,60.0,0,119,1.0,72.0
3191,63.0,0,119,5.0,72.0
3192,58.0,0,59,6.0,72.0
3193,62.0,0,59,5.0,72.0
3194,58.0,0,119,3.0,72.0
3195,62.0,0,119,3.0,72.0
3196,41.0,0,119,8.0,72.0
3197,65.0,0,119,2.0,72.0
3198,65.0,60,59,5.0,72.0
3199,53.0,0,119,3.0,72.0
3200,62.0,0,59,6.0,72.0
3201,62.0,60,29,6.0,72.0
3202,65.0,0,29,5.0,72.0
3203,62.0,60,29,6.0,72.0
3204,65.0,0,29,5.0,72.0
3205,62.0,0,59,5.0,72.0
3206,70.0,0,299,4.0,72.0
3207,58.0,0,59,6.0,72.0
3208,72.0,0,14,4.0,72.0
3209,70.0,15,14,4.0,72.0
3210,69.0,15,14,4.0,72.0
3211,58.0,60,359,1.0,72.0
3212,62.0,0,359,1.0,72.0
3213,63.0,0,59,5.0,72.0
3214,57.0,60,119,3.0,72.0
3215,57.0,60,59,6.0,72.0
3216,65.0,0,119,2.0,72.0
3217,70.0,15,14,4.0,72.0
3218,53.0,0,119,3.0,72.0
3219,60.0,0,119,3.0,72.0
3220,29.0,0,119,8.0,72.0
3221,65.0,0,239,0.0,72.0
3222,62.0,0,239,0.0,72.0
3223,57.0,15,29,6.0,72.0
3224,63.0,0,29,5.0,72.0
3225,74.0,0,59,4.0,72.0
3226,63.0,60,29,5.0,72.0
3227,57.0,0,29,6.0,72.0
3228,69.0,0,119,0.0,72.0
3229,72.0,0,59,4.0,72.0
3230,57.0,0,119,1.0,72.0
3231,63.0,0,119,1.0,72.0
3232,60.0,0,119,0.0,72.0
3233,62.0,0,239,0.0,72.0
3234,70.0,0,239,0.0,72.0
3235,58.0,0,239,3.0,72.0
3236,62.0,0,239,5.0,72.0
3237,58.0,0,239,6.0,72.0
3238,62.0,0,239,2.0,72.0
3239,62.0,0,239,1.0,72.0
3240,58.0,0,239,1.0,72.0
3241,58.0,0,239,2.0,72.0
3242,46.0,0,239,3.0,72.0
3243,34.0,0,239,8.0,72.0
3244,70.0,60,239,4.0,72.0
3245,58.0,0,479,1.0,72.0
3246,58.0,0,479,12.0,84.0
3247,58.0,0,479,7.0,72.0
3248,58.0,240,479,6.0,72.0
3249,58.0,0,479,3.0,72.0
3250,57.0,480,239,3.0,72.0
3251,57.0,0,239,6.0,72.0
3252,57.0,0,239,7.0,72.0
3253,57.0,0,239,12.0,84.0
3254,57.0,0,239,1.0,72.0
3255,63.0,240,479,3.0,72.0
3256,63.0,0,479,1.0,72.0
3257,63.0,0,479,7.0,72.0
3258,63.0,0,479,12.0,84.0
3259,63.0,0,479,6.0,72.0
3260,62.0,0,239,1.0,72.0
3261,62.0,0,239,6.0,72.0
3262,62.0,0,239,12.0,84.0
3263,62.0,480,239,7.0,72.0
3264,62.0,0,239,3.0,72.0
3265,58.0,0,239,6.0,72.0
3266,58.0,240,239,12.0,84.0
3267,58.0,0,239,1.0,72.0
3268,58.0,0,239,3.0,72.0
3269,58.0,0,239,7.0,72.0
3270,65.0,0,119,6.0,72.0
3271,65.0,240,239,1.0,72.0
3272,65.0,0,239,7.0,72.0
3273,65.0,0,239,3.0,72.0
3274,65.0,0,239,12.0,84.0
3275,67.0,0,359,1.0,72.0
3276,67.0,0,359,7.0,72.0
3277,67.0,0,359,3.0,72.0
3278,67.0,0,359,12.0,84.0
3279,67.0,240,359,6.0,72.0
3280,65.0,360,119,3.0,72.0
3281,65.0,0,119,1.0,72.0
3282,65.0,0,119,12.0,84.0
3283,65.0,0,119,6.0,72.0
3284,65.0,0,119,7.0,72.0
3285,63.0,0,119,12.0,84.0
3286,63.0,0,119,3.0,72.0
3287,63.0,0,119,6.0,72.0
3288,63.0,120,119,1.0,72.0
3289,63.0,0,119,7.0,72.0
3290,62.0,0,119,6.0,72.0
3291,62.0,120,119,7.0,72.0
3292,62.0,0,119,12.0,84.0
3293,62.0,0,119,3.0,72.0
3294,62.0,0,119,1.0,72.0
3295,60.0,0,119,3.0,72.0
3296,48.0,0,119,8.0,72.0
3297,60.0,0,119,12.0,84.0
3298,60.0,120,119,1.0,72.0
3299,72.0,0,119,2.0,60.0
3300,60.0,0,119,6.0,72.0
3301,58.0,0,119,1.0,72.0
3302,58.0,0,119,3.0,72.0
3303,46.0,0,119,8.0,72.0
3304,70.0,0,119,2.0,60.0
3305,58.0,0,119,12.0,84.0
3306,58.0,120,119,6.0,72.0
3307,45.0,0,119,8.0,72.0
3308,57.0,0,119,12.0,84.0
3309,57.0,0,119,1.0,72.0
3310,57.0,0,119,3.0,72.0
3311,69.0,0,119,2.0,60.0
3312,57.0,0,119,6.0,72.0
3313,46.0,120,119,8.0,72.0
3314,58.0,0,119,3.0,72.0
3315,58.0,0,119,12.0,84.0
3316,70.0,0,119,2.0,60.0
3317,58.0,0,119,1.0,72.0
3318,58.0,0,119,6.0,72.0
3319,55.0,0,119,12.0,84.0
3320,55.0,0,119,6.0,72.0
3321,55.0,120,119,3.0,72.0
3322,43.0,0,119,8.0,72.0
3323,55.0,0,119,1.0,72.0
3324,67.0,0,119,2.0,60.0
3325,57.0,120,119,3.0,72.0
3326,45.0,0,119,8.0,72.0
3327,65.0,0,479,5.0,72.0
3328,57.0,0,119,1.0,72.0
3329,69.0,0,119,2.0,60.0
3330,65.0,0,479,3.0,72.0
3331,65.0,120,479,11.0,72.0
3332,65.0,0,479,0.0,72.0
3333,65.0,0,479,7.0,72.0
3334,57.0,0,119,6.0,72.0
3335,57.0,0,119,12.0,84.0
3336,62.0,0,239,5.0,72.0
3337,62.0,0,239,11.0,72.0
3338,62.0,0,239,3.0,72.0
3339,58.0,0,239,1.0,72.0
3340,58.0,0,239,6.0,72.0
3341,58.0,0,239,3.0,72.0
3342,62.0,0,239,0.0,72.0
3343,58.0,0,239,12.0,84.0
3344,46.0,120,239,8.0,72.0
3345,62.0,0,239,7.0,72.0
3346,55.0,0,239,6.0,72.0
3347,55.0,0,239,3.0,72.0
3348,55.0,0,239,12.0,84.0
3349,43.0,0,239,8.0,72.0
3350,55.0,0,239,1.0,72.0
3351,60.0,0,119,6.0,72.0
3352,60.0,0,239,1.0,72.0
3353,70.0,0,479,11.0,72.0
3354,70.0,0,479,3.0,72.0
3355,60.0,0,239,3.0,72.0
3356,60.0,240,239,12.0,84.0
3357,70.0,0,479,5.0,72.0
3358,70.0,0,479,0.0,72.0
3359,70.0,240,479,7.0,72.0
3360,48.0,0,239,8.0,72.0
3361,53.0,0,239,12.0,84.0
3362,69.0,0,239,0.0,72.0
3363,53.0,0,239,3.0,72.0
3364,53.0,0,239,1.0,72.0
3365,69.0,0,239,5.0,72.0
3366,69.0,0,239,7.0,72.0
3367,69.0,0,239,11.0,72.0
3368,69.0,240,239,3.0,72.0
3369,53.0,0,239,6.0,72.0
3370,41.0,0,239,8.0,72.0
3371,65.0,0,239,3.0,72.0
3372,65.0,0,239,0.0,72.0
3373,55.0,240,239,6.0,72.0
3374,65.0,0,239,5.0,72.0
3375,55.0,0,239,1.0,72.0
3376,55.0,0,239,12.0,84.0
3377,43.0,0,239,8.0,72.0
3378,65.0,0,239,11.0,72.0
3379,65.0,0,239,7.0,72.0
3380,55.0,0,239,3.0,72.0
3381,57.0,0,119,6.0,72.0
3382,72.0,0,119,5.0,72.0
3383,72.0,0,239,3.0,72.0
3384,72.0,0,239,11.0,72.0
3385,45.0,0,239,8.0,72.0
3386,72.0,0,239,0.0,72.0
3387,72.0,0,239,7.0,72.0
3388,57.0,240,239,12.0,84.0
3389,57.0,0,239,1.0,72.0
3390,57.0,0,239,3.0,72.0
3391,46.0,0,239,8.0,72.0
3392,58.0,240,239,3.0,72.0
3393,58.0,0,239,12.0,84.0
3394,58.0,0,239,6.0,72.0
3395,58.0,0,239,1.0,72.0
3396,74.0,0,359,11.0,72.0
3397,74.0,0,359,0.0,72.0
3398,74.0,0,359,7.0,72.0
3399,74.0,0,359,5.0,72.0
3400,74.0,0,359,3.0,72.0
3401,72.0,0,119,0.0,72.0
3402,72.0,0,119,3.0,72.0
3403,60.0,0,239,6.0,72.0
3404,60.0,240,239,12.0,84.0
3405,72.0,0,119,11.0,72.0
3406,60.0,0,239,1.0,72.0
3407,72.0,120,119,5.0,72.0
3408,72.0,0,119,7.0,72.0
3409,48.0,0,239,8.0,72.0
3410,60.0,0,239,3.0,72.0
3411,70.0,120,119,0.0,72.0
3412,70.0,0,119,3.0,72.0
3413,70.0,0,119,7.0,72.0
3414,62.0,0,119,6.0,72.0
3415,70.0,0,119,11.0,72.0
3416,70.0,0,119,5.0,72.0
3417,62.0,0,239,1.0,72.0
3418,69.0,0,119,0.0,72.0
3419,62.0,0,239,12.0,84.0
3420,62.0,0,239,3.0,72.0
3421,69.0,0,119,3.0,72.0
3422,50.0,0,239,8.0,72.0
3423,69.0,120,119,5.0,72.0
3424,69.0,0,119,11.0,72.0
3425,69.0,0,119,7.0,72.0
3426,67.0,0,119,11.0,72.0
3427,67.0,0,119,5.0,72.0
3428,67.0,0,119,7.0,72.0
3429,67.0,0,119,3.0,72.0
3430,67.0,0,119,0.0,72.0
3431,65.0,0,119,7.0,72.0
3432,65.0,0,119,3.0,72.0
3433,65.0,120,119,11.0,72.0
3434,65.0,0,119,0.0,72.0
3435,65.0,0,119,5.0,72.0
3436,64.0,0,119,7.0,72.0
3437,64.0,0,119,0.0,72.0
3438,64.0,0,119,3.0,72.0
3439,64.0,0,119,5.0,72.0
3440,64.0,120,119,11.0,72.0
3441,58.0,0,479,1.0,72.0
3442,58.0,0,479,3.0,72.0
3443,65.0,0,119,5.0,72.0
3444,65.0,120,119,7.0,72.0
3445,65.0,0,119,3.0,72.0
3446,58.0,0,479,6.0,72.0
3447,58.0,0,479,12.0,84.0
3448,65.0,0,119,0.0,72.0
3449,46.0,120,479,8.0,72.0
3450,65.0,0,119,11.0,72.0
3451,62.0,120,119,0.0,72.0
3452,62.0,0,119,7.0,72.0
3453,62.0,0,119,11.0,72.0
3454,62.0,0,119,5.0,72.0
3455,62.0,0,119,3.0,72.0
3456,64.0,0,119,11.0,72.0
3457,63.0,0,119,3.0,72.0
3458,64.0,0,119,7.0,72.0
3459,70.0,0,479,10.0,72.0
3460,70.0,0,479,0.0,72.0
3461,64.0,0,119,5.0,72.0
3462,70.0,0,479,4.0,72.0
3463,64.0,120,119,0.0,72.0
3464,60.0,0,359,6.0,72.0
3465,60.0,0,359,1.0,72.0
3466,60.0,0,359,3.0,72.0
3467,60.0,0,359,12.0,84.0
3468,48.0,0,359,8.0,72.0
3469,58.0,0,119,12.0,84.0
3470,65.0,0,239,5.0,72.0
3471,69.0,0,239,4.0,72.0
3472,58.0,120,119,6.0,72.0
3473,69.0,0,239,10.0,72.0
3474,58.0,0,119,3.0,72.0
3475,69.0,120,239,7.0,72.0
3476,65.0,0,239,7.0,72.0
3477,65.0,0,239,11.0,72.0
3478,69.0,0,239,0.0,72.0
3479,65.0,0,239,0.0,72.0
3480,46.0,0,119,8.0,72.0
3481,58.0,0,119,1.0,72.0
3482,65.0,0,239,3.0,72.0
3483,57.0,0,119,6.0,72.0
3484,57.0,0,119,1.0,72.0
3485,45.0,0,119,8.0,72.0
3486,57.0,0,119,12.0,84.0
3487,57.0,0,119,3.0,72.0
3488,58.0,0,119,3.0,72.0
3489,58.0,120,119,6.0,72.0
3490,58.0,0,119,12.0,84.0
3491,46.0,0,119,8.0,72.0
3492,58.0,0,119,1.0,72.0
3493,43.0,0,119,8.0,72.0
3494,65.0,0,119,5.0,72.0
3495,55.0,0,119,3.0,72.0
3496,55.0,0,119,6.0,72.0
3497,55.0,0,119,12.0,84.0
3498,55.0,120,119,1.0,72.0
3499,45.0,0,119,8.0,72.0
3500,57.0,0,119,3.0,72.0
3501,57.0,0,119,6.0,72.0
3502,75.0,0,479,7.0,72.0
3503,65.0,0,239,7.0,72.0
3504,57.0,120,119,1.0,72.0
3505,75.0,0,479,4.0,72.0
3506,75.0,120,479,10.0,72.0
3507,65.0,0,239,0.0,72.0
3508,75.0,0,479,0.0,72.0
3509,65.0,0,239,11.0,72.0
3510,57.0,0,119,12.0,84.0
3511,65.0,0,239,3.0,72.0
3512,74.0,0,239,10.0,72.0
3513,58.0,0,239,7.0,72.0
3514,74.0,0,239,4.0,72.0
3515,65.0,0,239,0.0,72.0
3516,74.0,0,239,0.0,72.0
3517,58.0,0,239,3.0,72.0
3518,65.0,0,239,5.0,72.0
3519,58.0,0,239,12.0,84.0
3520,65.0,0,239,11.0,72.0
3521,58.0,0,239,1.0,72.0
3522,58.0,0,239,6.0,72.0
3523,65.0,120,239,3.0,72.0
3524,63.0,0,239,3.0,72.0
3525,60.0,0,239,7.0,72.0
3526,60.0,0,239,1.0,72.0
3527,70.0,0,239,4.0,72.0
3528,63.0,240,239,11.0,72.0
3529,60.0,0,239,6.0,72.0
3530,60.0,0,239,12.0,84.0
3531,70.0,0,239,10.0,72.0
3532,63.0,0,239,5.0,72.0
3533,63.0,0,239,0.0,72.0
3534,60.0,0,239,3.0,72.0
3535,70.0,0,239,0.0,72.0
3536,62.0,240,119,7.0,72.0
3537,62.0,0,119,6.0,72.0
3538,77.0,0,119,4.0,72.0
3539,62.0,0,239,1.0,72.0
3540,77.0,0,239,0.0,72.0
3541,62.0,0,239,0.0,72.0
3542,62.0,0,239,11.0,72.0
3543,62.0,0,239,3.0,72.0
3544,62.0,0,239,12.0,84.0
3545,77.0,0,239,10.0,72.0
3546,62.0,0,239,5.0,72.0
3547,70.0,0,239,5.0,72.0
3548,63.0,240,239,7.0,72.0
3549,70.0,0,239,11.0,72.0
3550,63.0,0,239,12.0,84.0
3551,63.0,0,239,1.0,72.0
3552,63.0,0,239,6.0,72.0
3553,63.0,0,239,3.0,72.0
3554,70.0,0,239,0.0,72.0
3555,70.0,0,239,3.0,72.0
3556,79.0,0,359,10.0,72.0
3557,79.0,0,359,0.0,72.0
3558,79.0,0,359,4.0,72.0
3559,77.0,0,119,4.0,72.0
3560,65.0,0,239,1.0,72.0
3561,65.0,0,239,7.0,72.0
3562,77.0,0,119,10.0,72.0
3563,69.0,0,239,11.0,72.0
3564,65.0,0,239,6.0,72.0
3565,69.0,240,239,0.0,72.0
3566,65.0,0,239,3.0,72.0
3567,65.0,0,239,12.0,84.0
3568,69.0,0,239,5.0,72.0
3569,69.0,0,239,3.0,72.0
3570,77.0,120,119,0.0,72.0
3571,67.0,0,119,3.0,72.0
3572,75.0,0,119,0.0,72.0
3573,67.0,120,119,6.0,72.0
3574,70.0,0,119,0.0,72.0
3575,70.0,0,119,3.0,72.0
3576,75.0,0,119,10.0,72.0
3577,67.0,0,119,7.0,72.0
3578,75.0,0,119,4.0,72.0
3579,70.0,0,119,5.0,72.0
3580,70.0,0,119,11.0,72.0
3581,67.0,0,119,1.0,72.0
3582,67.0,0,119,12.0,84.0
3583,65.0,120,119,12.0,84.0
3584,74.0,0,119,4.0,72.0
3585,65.0,0,119,6.0,72.0
3586,65.0,0,119,1.0,72.0
3587,69.0,0,119,0.0,72.0
3588,74.0,0,119,0.0,72.0
3589,74.0,0,119,10.0,72.0
3590,65.0,0,119,7.0,72.0
3591,69.0,0,119,11.0,72.0
3592,65.0,0,119,3.0,72.0
3593,69.0,0,119,5.0,72.0
3594,69.0,0,119,3.0,72.0
3595,72.0,0,119,0.0,72.0
3596,63.0,0,119,1.0,72.0
3597,72.0,0,119,10.0,72.0
3598,63.0,0,119,3.0,72.0
3599,67.0,0,119,11.0,72.0
3600,72.0,0,119,4.0,72.0
3601,63.0,120,119,6.0,72.0
3602,67.0,0,119,3.0,72.0
3603,63.0,0,119,12.0,84.0
3604,63.0,0,119,7.0,72.0
3605,67.0,0,119,0.0,72.0
3606,67.0,0,119,5.0,72.0
3607,62.0,0,119,7.0,72.0
3608,70.0,0,119,0.0,72.0
3609,62.0,0,119,6.0,72.0
3610,65.0,0,119,0.0,72.0
3611,65.0,0,119,5.0,72.0
3612,65.0,0,119,3.0,72.0
3613,70.0,0,119,10.0,72.0
3614,62.0,0,119,3.0,72.0
3615,65.0,120,119,11.0,72.0
3616,62.0,0,119,1.0,72.0
3617,70.0,0,119,4.0,72.0
3618,62.0,0,119,12.0,84.0
3619,60.0,0,119,3.0,72.0
3620,60.0,0,119,1.0,72.0
3621,69.0,0,119,10.0,72.0
3622,60.0,0,119,6.0,72.0
3623,69.0,0,119,4.0,72.0
3624,69.0,0,119,0.0,72.0
3625,60.0,120,119,12.0,84.0
3626,70.0,0,119,10.0,72.0
3627,70.0,0,119,0.0,72.0
3628,62.0,0,119,12.0,84.0
3629,62.0,0,119,3.0,72.0
3630,62.0,0,119,6.0,72.0
3631,70.0,120,119,4.0,72.0
3632,62.0,0,119,1.0,72.0
3633,67.0,120,119,10.0,72.0
3634,58.0,0,119,6.0,72.0
3635,58.0,0,119,12.0,84.0
3636,67.0,0,119,4.0,72.0
3637,58.0,0,119,1.0,72.0
3638,58.0,0,119,3.0,72.0
3639,67.0,0,119,0.0,72.0
3640,69.0,0,119,4.0,72.0
3641,69.0,0,119,0.0,72.0
3642,63.0,0,479,0.0,72.0
3643,63.0,0,479,11.0,72.0
3644,60.0,0,119,6.0,72.0
3645,69.0,0,119,10.0,72.0
3646,72.0,0,479,2.0,72.0
3647,65.0,0,479,2.0,72.0
3648,41.0,0,479,8.0,72.0
3649,53.0,0,479,3.0,72.0
3650,63.0,0,479,3.0,72.0
3651,63.0,0,479,5.0,72.0
3652,53.0,0,479,1.0,72.0
3653,60.0,0,119,12.0,84.0
3654,60.0,120,119,1.0,72.0
3655,53.0,0,479,13.0,84.0
3656,60.0,0,119,3.0,72.0
3657,65.0,0,119,0.0,72.0
3658,62.0,0,119,12.0,84.0
3659,62.0,0,119,3.0,72.0
3660,65.0,0,119,5.0,72.0
3661,62.0,0,119,6.0,72.0
3662,65.0,0,119,3.0,72.0
3663,65.0,0,119,11.0,72.0
3664,62.0,0,119,1.0,72.0
3665,63.0,0,119,6.0,72.0
3666,50.0,0,239,3.0,72.0
3667,63.0,0,119,3.0,72.0
3668,63.0,0,119,11.0,72.0
3669,70.0,120,239,10.0,72.0
3670,63.0,0,119,0.0,72.0
3671,70.0,0,239,0.0,72.0
3672,63.0,0,119,1.0,72.0
3673,50.0,0,239,1.0,72.0
3674,63.0,0,119,12.0,84.0
3675,63.0,120,119,5.0,72.0
3676,70.0,0,239,4.0,72.0
3677,38.0,0,239,8.0,72.0
3678,70.0,0,239,2.0,72.0
3679,74.0,0,239,2.0,72.0
3680,50.0,0,239,13.0,84.0
3681,62.0,0,119,11.0,72.0
3682,65.0,0,119,6.0,72.0
3683,65.0,0,119,1.0,72.0
3684,65.0,0,119,12.0,84.0
3685,65.0,0,119,3.0,72.0
3686,62.0,120,119,3.0,72.0
3687,62.0,0,119,0.0,72.0
3688,62.0,0,119,5.0,72.0
3689,64.0,0,119,3.0,72.0
3690,67.0,0,119,3.0,72.0
3691,67.0,0,119,12.0,84.0
3692,64.0,0,119,5.0,72.0
3693,67.0,0,119,6.0,72.0
3694,67.0,120,119,1.0,72.0
3695,64.0,0,119,0.0,72.0
3696,64.0,0,119,11.0,72.0
3697,65.0,0,119,11.0,72.0
3698,62.0,0,119,1.0,72.0
3699,62.0,0,119,12.0,84.0
3700,65.0,0,119,3.0,72.0
3701,62.0,0,119,3.0,72.0
3702,62.0,120,119,6.0,72.0
3703,65.0,0,119,5.0,72.0
3704,65.0,0,119,0.0,72.0
3705,58.0,0,479,1.0,72.0
3706,74.0,0,239,10.0,72.0
3707,64.0,0,119,3.0,72.0
3708,74.0,0,239,0.0,72.0
3709,67.0,120,119,3.0,72.0
3710,74.0,0,239,4.0,72.0
3711,64.0,0,119,6.0,72.0
3712,67.0,0,119,0.0,72.0
3713,58.0,0,479,3.0,72.0
3714,64.0,0,119,12.0,84.0
3715,46.0,0,479,8.0,72.0
3716,58.0,0,479,13.0,84.0
3717,67.0,0,119,5.0,72.0
3718,64.0,0,119,1.0,72.0
3719,67.0,0,119,11.0,72.0
3720,72.0,0,119,10.0,72.0
3721,72.0,0,119,4.0,72.0
3722,72.0,0,119,0.0,72.0
3723,65.0,0,239,5.0,72.0
3724,70.0,120,119,4.0,72.0
3725,45.0,0,239,8.0,72.0
3726,65.0,0,239,3.0,72.0
3727,65.0,120,239,0.0,72.0
3728,70.0,0,119,0.0,72.0
3729,57.0,0,239,13.0,84.0
3730,57.0,0,239,3.0,72.0
3731,70.0,0,119,10.0,72.0
3732,57.0,0,239,1.0,72.0
3733,65.0,0,239,11.0,72.0
3734,69.0,0,119,0.0,72.0
3735,69.0,0,119,4.0,72.0
3736,69.0,0,119,10.0,72.0
3737,65.0,0,479,12.0,84.0
3738,70.0,120,119,0.0,72.0
3739,53.0,120,239,13.0,84.0
3740,41.0,0,239,8.0,72.0
3741,70.0,0,119,4.0,72.0
3742,53.0,0,239,1.0,72.0
3743,65.0,0,479,1.0,72.0
3744,65.0,0,479,6.0,72.0
3745,70.0,0,119,10.0,72.0
3746,53.0,0,239,3.0,72.0
3747,67.0,0,119,10.0,72.0
3748,67.0,0,119,4.0,72.0
3749,67.0,0,119,0.0,72.0
3750,60.0,0,239,13.0,84.0
3751,65.0,120,239,11.0,72.0
3752,69.0,0,119,10.0,72.0
3753,63.0,0,239,3.0,72.0
3754,65.0,0,239,0.0,72.0
3755,65.0,0,239,5.0,72.0
3756,69.0,0,119,0.0,72.0
3757,63.0,0,239,6.0,72.0
3758,60.0,0,239,3.0,72.0
3759,65.0,0,239,3.0,72.0
3760,69.0,120,119,4.0,72.0
3761,48.0,0,239,8.0,72.0
3762,63.0,0,239,1.0,72.0
3763,63.0,0,239,12.0,84.0
3764,60.0,0,239,1.0,72.0
3765,72.0,0,719,2.0,72.0
3766,65.0,0,719,2.0,72.0
3767,70.0,0,119,4.0,72.0
3768,70.0,0,119,10.0,72.0
3769,70.0,0,119,0.0,72.0
3770,62.0,0,239,3.0,72.0
3771,69.0,0,119,10.0,72.0
3772,69.0,0,119,0.0,72.0
3773,62.0,0,239,12.0,84.0
3774,62.0,0,239,6.0,72.0
3775,62.0,0,239,2.0,72.0
3776,70.0,0,239,2.0,72.0
3777,69.0,120,119,4.0,72.0
3778,70.0,0,119,4.0,72.0
3779,62.0,0,359,1.0,72.0
3780,62.0,0,359,13.0,84.0
3781,50.0,0,359,8.0,72.0
3782,70.0,0,119,10.0,72.0
3783,70.0,120,119,0.0,72.0
3784,72.0,0,119,4.0,72.0
3785,60.0,0,119,13.0,84.0
3786,60.0,0,119,1.0,72.0
3787,72.0,0,119,10.0,72.0
3788,60.0,0,119,3.0,72.0
3789,72.0,120,119,0.0,72.0
3790,48.0,0,119,8.0,72.0
3791,58.0,0,119,1.0,72.0
3792,46.0,0,119,8.0,72.0
3793,58.0,120,119,13.0,84.0
3794,74.0,0,119,10.0,72.0
3795,58.0,0,119,3.0,72.0
3796,74.0,0,119,0.0,72.0
3797,74.0,0,119,4.0,72.0
3798,65.0,0,719,11.0,72.0
3799,65.0,0,719,3.0,72.0
3800,65.0,0,719,0.0,72.0
3801,57.0,0,119,1.0,72.0
3802,65.0,0,719,5.0,72.0
3803,72.0,0,119,10.0,72.0
3804,72.0,0,119,0.0,72.0
3805,57.0,0,119,13.0,84.0
3806,45.0,0,119,8.0,72.0
3807,72.0,120,119,4.0,72.0
3808,57.0,0,119,3.0,72.0
3809,55.0,0,119,13.0,84.0
3810,70.0,0,119,10.0,72.0
3811,55.0,0,119,1.0,72.0
3812,43.0,0,119,8.0,72.0
3813,55.0,0,119,3.0,72.0
3814,70.0,0,119,4.0,72.0
3815,70.0,120,119,0.0,72.0
3816,69.0,120,119,0.0,72.0
3817,41.0,0,119,8.0,72.0
3818,67.0,0,239,5.0,72.0
3819,67.0,0,239,0.0,72.0
3820,53.0,0,119,3.0,72.0
3821,69.0,0,119,10.0,72.0
3822,69.0,0,119,4.0,72.0
3823,53.0,0,119,1.0,72.0
3824,67.0,0,239,11.0,72.0
3825,67.0,0,239,3.0,72.0
3826,53.0,0,119,13.0,84.0
3827,67.0,0,119,0.0,72.0
3828,52.0,0,119,13.0,84.0
3829,52.0,0,119,1.0,72.0
3830,40.0,0,119,8.0,72.0
3831,52.0,120,119,3.0,72.0
3832,67.0,0,119,10.0,72.0
3833,67.0,0,119,4.0,72.0
3834,53.0,0,119,3.0,72.0
3835,53.0,0,119,1.0,72.0
3836,53.0,0,119,13.0,84.0
3837,60.0,0,239,5.0,72.0
3838,41.0,0,119,8.0,72.0
3839,69.0,0,119,10.0,72.0
3840,69.0,120,119,4.0,72.0
3841,60.0,0,239,3.0,72.0
3842,60.0,0,239,11.0,72.0
3843,60.0,0,239,0.0,72.0
3844,69.0,0,119,0.0,72.0
3845,38.0,0,119,8.0,72.0
3846,65.0,120,119,0.0,72.0
3847,50.0,0,119,3.0,72.0
3848,65.0,0,119,10.0,72.0
3849,50.0,0,119,1.0,72.0
3850,50.0,0,119,13.0,84.0
3851,65.0,0,119,4.0,72.0
3852,60.0,0,239,3.0,72.0
3853,60.0,0,239,5.0,72.0
3854,60.0,0,239,11.0,72.0
3855,60.0,0,239,0.0,72.0
3856,67.0,120,119,0.0,72.0
3857,58.0,0,479,3.0,72.0
3858,67.0,0,119,4.0,72.0
3859,58.0,0,479,12.0,84.0
3860,52.0,0,119,13.0,84.0
3861,52.0,0,119,1.0,72.0
3862,58.0,0,479,1.0,72.0
3863,40.0,0,119,8.0,72.0
3864,52.0,0,119,3.0,72.0
3865,58.0,0,479,6.0,72.0
3866,67.0,0,119,10.0,72.0
3867,53.0,0,119,1.0,72.0
3868,53.0,0,119,13.0,84.0
3869,41.0,0,119,8.0,72.0
3870,53.0,0,119,3.0,72.0
3871,51.0,0,119,3.0,72.0
3872,57.0,0,239,3.0,72.0
3873,57.0,0,239,12.0,84.0
3874,57.0,0,239,6.0,72.0
3875,51.0,0,119,13.0,84.0
3876,39.0,0,119,8.0,72.0
3877,57.0,0,239,1.0,72.0
3878,51.0,120,119,1.0,72.0
3879,65.0,0,239,3.0,72.0
3880,65.0,120,239,0.0,72.0
3881,65.0,0,239,11.0,72.0
3882,65.0,0,239,5.0,72.0
3883,69.0,0,239,0.0,72.0
3884,69.0,0,239,4.0,72.0
3885,69.0,0,239,10.0,72.0
3886,50.0,0,119,13.0,84.0
3887,50.0,0,119,1.0,72.0
3888,50.0,0,119,3.0,72.0
3889,38.0,0,119,8.0,72.0
3890,67.0,0,239,0.0,72.0
3891,70.0,0,239,0.0,72.0
3892,70.0,0,239,4.0,72.0
3893,70.0,0,239,10.0,72.0
3894,67.0,0,239,11.0,72.0
3895,67.0,0,239,3.0,72.0
3896,39.0,0,119,8.0,72.0
3897,51.0,0,119,1.0,72.0
3898,67.0,0,239,5.0,72.0
3899,51.0,120,119,3.0,72.0
3900,51.0,0,119,13.0,84.0
3901,48.0,0,119,3.0,72.0
3902,48.0,0,119,1.0,72.0
3903,48.0,120,119,13.0,84.0
3904,36.0,0,119,8.0,72.0
3905,69.0,0,239,5.0,72.0
3906,63.0,0,479,12.0,84.0
3907,50.0,120,119,3.0,72.0
3908,72.0,0,239,4.0,72.0
3909,50.0,0,119,13.0,84.0
3910,69.0,0,239,3.0,72.0
3911,50.0,0,119,1.0,72.0
3912,69.0,0,239,0.0,72.0
3913,72.0,0,239,0.0,72.0
3914,69.0,0,239,11.0,72.0
3915,72.0,0,239,10.0,72.0
3916,63.0,120,479,3.0,72.0
3917,63.0,0,479,6.0,72.0
3918,63.0,0,479,1.0,72.0
3919,38.0,0,119,8.0,72.0
3920,74.0,0,59,4.0,72.0
3921,70.0,0,119,5.0,72.0
3922,82.0,120,59,4.0,72.0
3923,62.0,0,239,1.0,72.0
3924,34.0,0,239,8.0,72.0
3925,62.0,0,239,3.0,72.0
3926,62.0,0,239,12.0,84.0
3927,62.0,0,239,6.0,72.0
3928,86.0,120,59,4.0,72.0
3929,82.0,0,59,5.0,72.0
3930,84.0,0,59,4.0,72.0
3931,81.0,120,59,5.0,72.0
3932,58.0,0,239,12.0,84.0
3933,58.0,0,239,6.0,72.0
3934,58.0,0,239,1.0,72.0
3935,46.0,0,479,1.0,72.0
3936,58.0,0,239,3.0,72.0
3937,46.0,0,479,13.0,84.0
3938,46.0,120,479,3.0,72.0
3939,79.0,120,59,5.0,72.0
3940,82.0,0,59,4.0,72.0
3941,77.0,0,59,5.0,72.0
3942,81.0,120,59,4.0,72.0
3943,70.0,0,719,2.0,72.0
3944,70.0,0,719,3.0,72.0
3945,58.0,0,239,1.0,72.0
3946,58.0,0,719,2.0,72.0
3947,65.0,0,239,6.0,72.0
3948,65.0,0,239,1.0,72.0
3949,58.0,0,239,13.0,84.0
3950,70.0,0,719,11.0,72.0
3951,65.0,0,239,12.0,84.0
3952,65.0,0,239,3.0,72.0
3953,74.0,0,719,10.0,72.0
3954,74.0,0,719,0.0,72.0
3955,70.0,0,719,0.0,72.0
3956,58.0,0,239,3.0,72.0
3957,79.0,0,59,4.0,72.0
3958,75.0,0,59,5.0,72.0
3959,74.0,0,59,5.0,72.0
3960,77.0,120,59,4.0,72.0
3961,39.0,0,239,8.0,72.0
3962,58.0,0,239,2.0,72.0
3963,70.0,0,239,2.0,72.0
3964,70.0,0,239,3.0,72.0
3965,70.0,0,239,11.0,72.0
3966,72.0,120,59,5.0,72.0
3967,75.0,0,59,4.0,72.0
3968,74.0,0,59,4.0,72.0
3969,70.0,120,59,5.0,72.0
3970,51.0,0,479,13.0,84.0
3971,51.0,0,479,1.0,72.0
3972,67.0,0,479,6.0,72.0
3973,75.0,0,479,10.0,72.0
3974,67.0,120,479,3.0,72.0
3975,51.0,0,479,3.0,72.0
3976,67.0,0,479,12.0,84.0
3977,67.0,0,479,1.0,72.0
3978,72.0,0,59,4.0,72.0
3979,69.0,0,59,5.0,72.0
3980,70.0,120,59,4.0,72.0
3981,67.0,0,59,5.0,72.0
3982,63.0,0,239,1.0,72.0
3983,51.0,0,239,1.0,72.0
3984,63.0,120,239,12.0,84.0
3985,67.0,0,719,0.0,72.0
3986,72.0,0,479,11.0,72.0
3987,79.0,0,239,10.0,72.0
3988,51.0,0,239,13.0,84.0
3989,75.0,0,719,0.0,72.0
3990,63.0,0,239,6.0,72.0
3991,72.0,0,479,3.0,72.0
3992,51.0,0,239,3.0,72.0
3993,63.0,0,239,3.0,72.0
3994,65.0,0,59,5.0,72.0
3995,69.0,0,59,4.0,72.0
3996,72.0,0,59,4.0,72.0
3997,69.0,120,59,5.0,72.0
3998,41.0,0,239,8.0,72.0
3999,72.0,120,59,5.0,72.0
4000,75.0,0,59,4.0,72.0
4001,74.0,120,59,5.0,72.0
4002,77.0,0,59,4.0,72.0
4003,53.0,120,479,13.0,84.0
4004,53.0,0,479,1.0,72.0
4005,65.0,0,479,2.0,72.0
4006,53.0,0,479,3.0,72.0
4007,72.0,0,479,10.0,72.0
4008,63.0,0,479,3.0,72.0
4009,69.0,0,479,11.0,72.0
4010,63.0,0,479,1.0,72.0
4011,72.0,0,479,0.0,72.0
4012,69.0,0,479,3.0,72.0
4013,72.0,0,479,2.0,72.0
4014,63.0,0,479,6.0,72.0
4015,63.0,0,479,12.0,84.0
4016,75.0,0,59,5.0,72.0
4017,79.0,0,59,4.0,72.0
4018,72.0,0,59,5.0,72.0
4019,81.0,120,59,4.0,72.0
4020,60.0,0,239,6.0,72.0
4021,60.0,0,239,12.0,84.0
4022,69.0,0,719,0.0,72.0
4023,53.0,0,239,13.0,84.0
4024,60.0,0,239,1.0,72.0
4025,53.0,0,239,1.0,72.0
4026,69.0,0,239,3.0,72.0
4027,69.0,0,239,11.0,72.0
4028,67.0,0,239,2.0,72.0
4029,77.0,0,239,2.0,72.0
4030,77.0,0,239,0.0,72.0
4031,53.0,120,239,3.0,72.0
4032,60.0,0,239,3.0,72.0
4033,77.0,0,239,10.0,72.0
4034,43.0,0,119,8.0,72.0
4035,58.0,0,119,6.0,72.0
4036,82.0,0,119,4.0,72.0
4037,74.0,0,119,4.0,72.0
4038,55.0,0,239,1.0,72.0
4039,74.0,0,239,2.0,72.0
4040,58.0,0,239,1.0,72.0
4041,70.0,0,239,11.0,72.0
4042,62.0,120,119,5.0,72.0
4043,70.0,0,239,2.0,72.0
4044,55.0,0,239,13.0,84.0
4045,74.0,120,239,10.0,72.0
4046,70.0,0,119,5.0,72.0
4047,55.0,0,239,3.0,72.0
4048,70.0,0,239,3.0,72.0
4049,74.0,0,239,0.0,72.0
4050,82.0,0,119,4.0,72.0
4051,72.0,0,119,4.0,72.0
4052,39.0,0,119,8.0,72.0
4053,63.0,0,119,6.0,72.0
4054,51.0,0,239,1.0,72.0
4055,51.0,0,239,13.0,84.0
4056,79.0,120,119,5.0,72.0
4057,70.0,0,119,5.0,72.0
4058,58.0,0,479,12.0,84.0
4059,51.0,0,239,3.0,72.0
4060,67.0,0,239,1.0,72.0
4061,67.0,120,239,11.0,72.0
4062,58.0,0,479,3.0,72.0
4063,67.0,0,239,3.0,72.0
4064,70.0,0,239,2.0,72.0
4065,70.0,0,479,0.0,72.0
4066,72.0,0,119,4.0,72.0
4067,81.0,0,119,4.0,72.0
4068,41.0,120,119,8.0,72.0
4069,65.0,0,119,6.0,72.0
4070,72.0,0,479,10.0,72.0
4071,69.0,0,239,0.0,72.0
4072,72.0,0,479,0.0,72.0
4073,53.0,0,239,13.0,84.0
4074,65.0,0,239,11.0,72.0
4075,53.0,0,239,3.0,72.0
4076,53.0,0,239,1.0,72.0
4077,65.0,0,119,5.0,72.0
4078,75.0,120,119,5.0,72.0
4079,57.0,0,239,12.0,84.0
4080,65.0,0,239,2.0,72.0
4081,57.0,0,239,3.0,72.0
4082,72.0,0,479,2.0,72.0
4083,65.0,0,239,1.0,72.0
4084,65.0,0,239,3.0,72.0
4085,74.0,120,239,5.0,72.0
4086,65.0,0,239,11.0,72.0
4087,58.0,0,239,3.0,72.0
4088,82.0,0,239,4.0,72.0
4089,70.0,0,239,4.0,72.0
4090,46.0,0,239,3.0,72.0
4091,58.0,0,239,6.0,72.0
4092,70.0,0,239,10.0,72.0
4093,34.0,0,239,8.0,72.0
4094,62.0,0,239,2.0,72.0
4095,70.0,0,239,2.0,72.0
4096,65.0,0,239,5.0,72.0
4097,58.0,0,239,12.0,84.0
4098,46.0,0,239,13.0,84.0
4099,58.0,0,239,1.0,72.0
4100,62.0,0,239,1.0,72.0
4101,65.0,0,239,3.0,72.0
4102,70.0,0,239,0.0,72.0
