,note,step,duration,channel,velocity
0,72.0,0,240,1.0,52.0
1,70.0,480,206,1.0,49.0
2,69.0,240,206,1.0,48.0
3,67.0,240,206,1.0,47.0
4,65.0,240,206,1.0,47.0
5,69.0,240,206,1.0,46.0
6,67.0,240,206,1.0,45.0
7,70.0,240,206,1.0,44.0
8,64.0,240,192,1.0,43.0
9,65.0,240,240,1.0,42.0
10,60.0,480,240,1.0,40.0
11,72.0,480,720,1.0,54.0
12,70.0,960,240,1.0,48.0
13,69.0,240,240,1.0,46.0
14,67.0,240,240,1.0,45.0
15,65.0,240,240,1.0,44.0
16,69.0,240,240,1.0,43.0
17,67.0,240,240,1.0,42.0
18,70.0,240,240,1.0,41.0
19,64.0,240,192,1.0,40.0
20,57.0,0,240,3.0,40.0
21,60.0,240,240,3.0,41.0
22,57.0,240,240,3.0,42.0
23,60.0,240,240,3.0,43.0
24,57.0,240,240,3.0,44.0
25,60.0,240,240,3.0,45.0
26,57.0,240,240,3.0,46.0
27,65.0,240,1860,1.0,40.0
28,53.0,0,1860,5.0,40.0
29,60.0,240,192,3.0,47.0
30,58.0,0,240,3.0,47.0
31,66.0,240,240,1.0,46.0
32,60.0,240,240,3.0,49.0
33,67.0,0,240,1.0,48.0
34,69.0,240,240,1.0,51.0
35,58.0,0,240,3.0,51.0
36,70.0,240,240,1.0,53.0
37,60.0,0,240,3.0,53.0
38,58.0,240,240,3.0,56.0
39,72.0,0,240,1.0,55.0
40,60.0,0,240,3.0,58.0
41,73.0,240,240,1.0,58.0
42,58.0,0,240,3.0,60.0
43,74.0,240,240,1.0,60.0
44,53.0,0,1860,5.0,47.0
45,76.0,0,192,1.0,63.0
46,60.0,240,192,3.0,63.0
47,57.0,0,240,3.0,63.0
48,79.0,240,240,1.0,63.0
49,77.0,240,240,1.0,61.0
50,60.0,0,240,3.0,61.0
51,57.0,0,240,3.0,59.0
52,76.0,240,240,1.0,59.0
53,74.0,0,192,1.0,58.0
54,60.0,240,240,3.0,58.0
55,57.0,240,240,3.0,56.0
56,74.0,0,240,1.0,56.0
57,60.0,240,240,3.0,54.0
58,72.0,0,240,1.0,54.0
59,70.0,0,240,1.0,53.0
60,57.0,240,240,3.0,53.0
61,53.0,0,1867,5.0,63.0
62,69.0,0,192,1.0,51.0
63,60.0,240,192,3.0,51.0
64,58.0,0,240,3.0,50.0
65,67.0,240,330,1.0,50.0
66,60.0,240,240,3.0,48.0
67,69.0,120,120,1.0,47.0
68,58.0,120,240,3.0,46.0
69,67.0,0,240,1.0,46.0
70,66.0,0,240,1.0,45.0
71,60.0,240,240,3.0,45.0
72,58.0,240,240,3.0,43.0
73,60.0,240,240,3.0,42.0
74,67.0,0,480,1.0,43.0
75,58.0,0,240,3.0,40.0
76,64.0,0,1860,2.0,50.0
77,72.0,240,427,1.0,40.0
78,60.0,240,192,3.0,38.0
79,53.0,0,1875,5.0,50.0
80,57.0,240,720,3.0,37.0
81,65.0,0,720,1.0,37.0
82,53.0,0,720,5.0,37.0
83,60.0,1440,240,5.0,61.0
84,58.0,480,240,5.0,58.0
85,57.0,240,240,5.0,57.0
86,55.0,240,240,5.0,56.0
87,53.0,240,240,5.0,55.0
88,57.0,240,240,5.0,55.0
89,55.0,240,240,5.0,54.0
90,58.0,240,240,5.0,53.0
91,52.0,240,192,5.0,52.0
92,53.0,240,240,5.0,52.0
93,48.0,480,240,5.0,50.0
94,60.0,480,720,5.0,64.0
95,58.0,960,240,5.0,57.0
96,57.0,240,240,5.0,56.0
97,55.0,240,240,5.0,55.0
98,53.0,240,240,5.0,54.0
99,57.0,240,240,5.0,53.0
100,55.0,240,240,5.0,52.0
101,58.0,240,240,5.0,51.0
102,52.0,240,192,5.0,50.0
103,72.0,0,240,2.0,47.0
104,84.0,240,240,2.0,48.0
105,81.0,240,240,2.0,49.0
106,84.0,240,240,2.0,50.0
107,72.0,240,240,2.0,51.0
108,84.0,240,240,2.0,52.0
109,81.0,240,240,2.0,53.0
110,53.0,240,1860,5.0,48.0
111,84.0,240,192,2.0,54.0
112,54.0,0,240,5.0,55.0
113,72.0,240,240,2.0,55.0
114,55.0,0,240,5.0,57.0
115,84.0,240,240,2.0,56.0
116,82.0,0,240,2.0,58.0
117,57.0,240,240,5.0,58.0
118,84.0,0,240,2.0,60.0
119,58.0,240,240,5.0,60.0
120,72.0,240,240,2.0,62.0
121,60.0,0,240,5.0,62.0
122,84.0,240,240,2.0,64.0
123,61.0,0,240,5.0,63.0
124,82.0,240,240,2.0,67.0
125,62.0,0,240,5.0,65.0
126,84.0,240,192,2.0,69.0
127,64.0,0,192,5.0,69.0
128,72.0,240,240,2.0,71.0
129,67.0,0,240,5.0,71.0
130,84.0,0,240,2.0,68.0
131,65.0,240,240,5.0,68.0
132,81.0,240,240,2.0,65.0
133,64.0,0,240,5.0,65.0
134,62.0,0,192,5.0,62.0
135,84.0,240,240,2.0,62.0
136,62.0,240,240,5.0,59.0
137,72.0,0,240,2.0,59.0
138,60.0,240,240,5.0,56.0
139,84.0,0,240,2.0,56.0
140,58.0,240,240,5.0,53.0
141,81.0,0,240,2.0,53.0
142,84.0,0,192,2.0,50.0
143,57.0,240,192,5.0,50.0
144,78.0,0,240,1.0,53.0
145,64.0,0,240,3.0,55.0
146,79.0,240,240,1.0,55.0
147,60.0,240,240,3.0,57.0
148,81.0,0,240,1.0,57.0
149,58.0,240,720,5.0,53.0
150,82.0,240,240,1.0,60.0
151,64.0,0,240,3.0,60.0
152,84.0,240,240,1.0,62.0
153,67.0,0,240,3.0,64.0
154,85.0,240,240,1.0,64.0
155,86.0,240,240,1.0,66.0
156,58.0,0,720,5.0,62.0
157,60.0,0,240,3.0,66.0
158,88.0,240,192,1.0,69.0
159,67.0,0,192,3.0,69.0
160,89.0,240,156,1.0,71.0
161,57.0,0,156,5.0,71.0
162,77.0,240,156,1.0,69.0
163,89.0,240,240,1.0,68.0
164,72.0,0,240,4.0,68.0
165,69.0,0,240,5.0,68.0
166,70.0,0,240,4.0,66.0
167,88.0,240,240,1.0,66.0
168,67.0,0,240,5.0,66.0
169,69.0,0,156,4.0,64.0
170,65.0,240,156,5.0,64.0
171,86.0,0,156,1.0,64.0
172,74.0,240,156,1.0,62.0
173,86.0,240,240,1.0,60.0
174,65.0,0,240,5.0,60.0
175,69.0,0,240,4.0,60.0
176,67.0,240,240,4.0,59.0
177,84.0,0,240,1.0,59.0
178,64.0,0,240,5.0,59.0
179,82.0,0,156,1.0,57.0
180,65.0,0,156,4.0,57.0
181,62.0,240,156,5.0,57.0
182,70.0,240,156,1.0,55.0
183,62.0,0,240,5.0,53.0
184,65.0,0,240,4.0,53.0
185,82.0,240,240,1.0,53.0
186,64.0,240,240,4.0,51.0
187,60.0,0,240,5.0,51.0
188,81.0,0,240,1.0,51.0
189,58.0,0,156,5.0,50.0
190,79.0,0,156,1.0,50.0
191,62.0,240,156,4.0,50.0
192,67.0,240,156,1.0,48.0
193,58.0,0,240,5.0,46.0
194,62.0,0,240,4.0,46.0
195,79.0,240,240,1.0,46.0
196,77.0,240,192,1.0,44.0
197,57.0,0,240,5.0,44.0
198,60.0,0,240,4.0,44.0
199,77.0,0,960,1.0,42.0
200,55.0,0,1320,5.0,42.0
201,76.0,960,360,1.0,31.0
202,58.0,240,1320,4.0,42.0
203,81.0,480,240,1.0,59.0
204,79.0,240,240,1.0,57.0
205,77.0,240,240,1.0,56.0
206,76.0,240,240,1.0,55.0
207,74.0,240,240,1.0,54.0
208,52.0,960,1860,5.0,61.0
209,58.0,0,1867,4.0,61.0
210,72.0,240,192,1.0,53.0
211,72.0,0,240,1.0,53.0
212,77.0,240,240,1.0,55.0
213,76.0,240,240,1.0,57.0
214,57.0,0,900,4.0,51.0
215,53.0,240,907,5.0,51.0
216,75.0,240,240,1.0,59.0
217,73.0,0,240,1.0,58.0
218,74.0,240,240,1.0,56.0
219,70.0,240,240,1.0,55.0
220,46.0,0,900,5.0,58.0
221,55.0,240,907,4.0,58.0
222,67.0,240,192,1.0,54.0
223,65.0,240,960,1.0,53.0
224,67.0,0,120,1.0,42.0
225,65.0,120,120,1.0,43.0
226,64.0,120,120,1.0,44.0
227,65.0,120,120,1.0,46.0
228,69.0,120,240,1.0,47.0
229,58.0,480,900,4.0,47.0
230,48.0,480,1380,5.0,50.0
231,64.0,0,480,2.0,47.0
232,67.0,240,240,1.0,42.0
233,65.0,240,240,1.0,42.0
234,81.0,240,240,1.0,56.0
235,79.0,240,240,1.0,54.0
236,77.0,240,240,1.0,53.0
237,76.0,240,240,1.0,51.0
238,74.0,240,240,1.0,49.0
239,72.0,240,240,1.0,48.0
240,59.0,0,1860,4.0,57.0
241,53.0,0,1860,4.0,57.0
242,50.0,0,1860,5.0,57.0
243,71.0,240,192,1.0,46.0
244,70.0,0,240,1.0,48.0
245,54.0,240,240,5.0,52.0
246,76.0,240,240,1.0,51.0
247,55.0,0,240,5.0,54.0
248,57.0,240,240,5.0,56.0
249,72.0,0,240,1.0,54.0
250,76.0,0,240,1.0,57.0
251,58.0,240,240,5.0,58.0
252,60.0,240,240,5.0,60.0
253,70.0,0,240,1.0,60.0
254,61.0,0,240,5.0,62.0
255,79.0,240,240,1.0,63.0
256,62.0,240,240,5.0,64.0
257,72.0,0,240,1.0,66.0
258,64.0,0,192,5.0,66.0
259,79.0,240,192,1.0,69.0
260,69.0,240,240,1.0,71.0
261,65.0,0,240,5.0,71.0
262,53.0,240,240,5.0,69.0
263,65.0,240,240,5.0,67.0
264,72.0,0,240,1.0,67.0
265,69.0,0,240,2.0,67.0
266,64.0,240,240,5.0,65.0
267,62.0,240,240,5.0,63.0
268,50.0,240,240,5.0,61.0
269,77.0,0,240,1.0,59.0
270,69.0,0,240,2.0,59.0
271,62.0,240,240,5.0,59.0
272,60.0,240,240,5.0,56.0
273,58.0,240,156,5.0,54.0
274,46.0,240,156,5.0,52.0
275,77.0,240,240,1.0,50.0
276,58.0,0,240,5.0,50.0
277,74.0,0,240,2.0,50.0
278,57.0,240,240,5.0,48.0
279,55.0,240,156,5.0,46.0
280,43.0,240,156,5.0,44.0
281,55.0,0,240,5.0,42.0
282,82.0,240,240,1.0,42.0
283,74.0,0,240,2.0,42.0
284,53.0,240,192,5.0,40.0
285,53.0,0,960,5.0,38.0
286,73.0,0,960,2.0,38.0
287,52.0,960,360,5.0,29.0
288,72.0,0,360,2.0,29.0
289,82.0,240,1320,1.0,38.0
290,69.0,480,240,5.0,52.0
291,67.0,240,240,5.0,50.0
292,65.0,240,240,5.0,49.0
293,64.0,240,240,5.0,47.0
294,62.0,240,240,5.0,46.0
295,60.0,240,192,5.0,45.0
296,76.0,0,1920,1.0,44.0
297,70.0,960,1920,2.0,44.0
298,69.0,0,360,2.0,45.0
299,77.0,0,360,1.0,45.0
300,81.0,480,240,1.0,59.0
301,79.0,240,240,1.0,57.0
302,77.0,240,240,1.0,56.0
303,76.0,240,240,1.0,54.0
304,60.0,240,1440,5.0,46.0
305,74.0,240,240,1.0,52.0
306,62.0,0,240,5.0,49.0
307,70.0,0,1387,2.0,59.0
308,72.0,0,192,1.0,50.0
309,64.0,240,192,5.0,51.0
310,65.0,0,240,5.0,53.0
311,69.0,240,367,2.0,48.0
312,66.0,240,240,5.0,55.0
313,69.0,240,240,5.0,57.0
314,67.0,240,240,5.0,54.0
315,65.0,240,240,5.0,53.0
316,64.0,240,240,5.0,52.0
317,72.0,0,1440,1.0,48.0
318,74.0,0,240,1.0,49.0
319,62.0,240,240,5.0,50.0
320,60.0,240,180,5.0,49.0
321,76.0,0,192,1.0,51.0
322,70.0,0,1395,2.0,56.0
323,77.0,240,240,1.0,54.0
324,69.0,0,360,2.0,54.0
325,78.0,240,240,1.0,56.0
326,81.0,240,240,1.0,60.0
327,79.0,240,240,1.0,56.0
328,77.0,240,240,1.0,54.0
329,60.0,0,1440,5.0,46.0
330,76.0,240,240,1.0,53.0
331,62.0,240,240,5.0,54.0
332,74.0,0,240,1.0,51.0
333,70.0,0,1387,2.0,60.0
334,72.0,0,192,1.0,50.0
335,64.0,240,240,5.0,55.0
336,72.0,0,240,1.0,50.0
337,65.0,240,360,5.0,56.0
338,69.0,0,360,2.0,50.0
339,77.0,240,192,1.0,51.0
340,69.0,240,240,1.0,52.0
341,72.0,240,192,1.0,53.0
342,65.0,240,240,1.0,54.0
343,69.0,240,192,1.0,55.0
344,60.0,240,240,1.0,56.0
345,64.0,240,192,1.0,57.0
346,53.0,240,240,5.0,56.0
347,65.0,0,360,1.0,58.0
348,57.0,240,192,5.0,57.0
349,50.0,240,240,5.0,58.0
350,53.0,240,192,5.0,59.0
351,49.0,240,240,5.0,59.0
352,52.0,240,192,5.0,60.0
353,81.0,240,240,1.0,73.0
354,45.0,0,240,5.0,61.0
355,49.0,240,192,5.0,62.0
356,79.0,0,240,1.0,68.0
357,50.0,240,360,5.0,62.0
358,77.0,240,240,1.0,66.0
359,76.0,240,240,1.0,65.0
360,74.0,240,240,1.0,64.0
361,77.0,240,240,1.0,63.0
362,76.0,240,240,1.0,61.0
363,79.0,0,240,1.0,60.0
364,69.0,240,240,5.0,74.0
365,73.0,240,192,1.0,59.0
366,67.0,0,240,5.0,71.0
367,74.0,240,240,1.0,57.0
368,65.0,240,240,5.0,70.0
369,64.0,0,240,5.0,69.0
370,69.0,240,240,1.0,55.0
371,62.0,240,240,5.0,68.0
372,64.0,240,240,5.0,67.0
373,62.0,240,240,5.0,66.0
374,79.0,0,720,1.0,74.0
375,65.0,240,240,5.0,65.0
376,59.0,240,192,5.0,64.0
377,60.0,240,240,5.0,63.0
378,77.0,0,240,1.0,70.0
379,76.0,240,240,1.0,69.0
380,74.0,240,240,1.0,68.0
381,55.0,0,240,5.0,61.0
382,72.0,240,240,1.0,68.0
383,76.0,240,240,1.0,67.0
384,74.0,240,240,1.0,66.0
385,77.0,240,240,1.0,65.0
386,67.0,0,720,5.0,78.0
387,71.0,240,192,1.0,64.0
388,65.0,0,240,5.0,74.0
389,72.0,240,240,1.0,64.0
390,63.0,240,240,5.0,73.0
391,62.0,0,240,5.0,72.0
392,67.0,240,240,1.0,62.0
393,60.0,240,240,5.0,71.0
394,63.0,0,240,5.0,71.0
395,62.0,240,240,5.0,70.0
396,79.0,240,720,1.0,78.0
397,65.0,240,240,5.0,69.0
398,59.0,240,192,5.0,69.0
399,77.0,240,240,1.0,73.0
400,75.0,240,240,1.0,72.0
401,74.0,0,240,1.0,71.0
402,63.0,240,360,3.0,70.0
403,67.0,0,360,3.0,70.0
404,60.0,0,847,5.0,68.0
405,72.0,240,192,1.0,70.0
406,77.0,0,240,1.0,75.0
407,75.0,240,240,1.0,74.0
408,74.0,240,240,1.0,73.0
409,63.0,0,360,3.0,71.0
410,60.0,0,360,3.0,71.0
411,58.0,240,847,5.0,70.0
412,72.0,240,192,1.0,72.0
413,77.0,0,240,1.0,77.0
414,75.0,240,240,1.0,75.0
415,74.0,0,240,1.0,74.0
416,63.0,0,360,3.0,73.0
417,60.0,240,360,3.0,73.0
418,56.0,240,847,5.0,72.0
419,72.0,240,192,1.0,72.0
420,77.0,0,240,1.0,77.0
421,75.0,240,240,1.0,75.0
422,74.0,240,240,1.0,74.0
423,63.0,0,360,3.0,74.0
424,60.0,0,360,3.0,74.0
425,55.0,240,847,5.0,73.0
426,72.0,240,192,1.0,72.0
427,84.0,240,288,1.0,75.0
428,54.0,0,288,5.0,75.0
429,60.0,0,288,3.0,75.0
430,63.0,0,288,3.0,75.0
431,77.0,960,240,1.0,81.0
432,75.0,240,240,1.0,79.0
433,74.0,0,240,1.0,78.0
434,63.0,240,288,3.0,77.0
435,54.0,0,288,5.0,77.0
436,60.0,0,288,3.0,77.0
437,72.0,240,192,1.0,76.0
438,56.0,0,288,5.0,78.0
439,87.0,0,288,1.0,78.0
440,63.0,0,288,3.0,78.0
441,60.0,240,288,3.0,78.0
442,56.0,0,288,5.0,80.0
443,78.0,0,288,1.0,80.0
444,44.0,960,288,5.0,80.0
445,72.0,0,288,2.0,80.0
446,43.0,960,288,5.0,81.0
447,79.0,0,288,1.0,81.0
448,71.0,0,288,2.0,81.0
449,55.0,0,288,5.0,81.0
450,79.0,960,1120,1.0,68.0
451,81.0,1120,160,1.0,61.0
452,79.0,160,160,1.0,60.0
453,77.0,160,160,1.0,59.0
454,79.0,160,160,1.0,58.0
455,77.0,160,160,1.0,57.0
456,76.0,160,160,1.0,56.0
457,77.0,160,160,1.0,55.0
458,76.0,160,160,1.0,55.0
459,74.0,160,160,1.0,54.0
460,76.0,160,160,1.0,53.0
461,74.0,160,160,1.0,52.0
462,72.0,160,240,1.0,51.0
463,64.0,0,360,5.0,48.0
464,67.0,240,240,3.0,48.0
465,71.0,240,80,1.0,44.0
466,72.0,80,80,1.0,45.0
467,71.0,80,80,1.0,46.0
468,65.0,0,360,5.0,48.0
469,69.0,0,120,1.0,46.0
470,71.0,120,120,1.0,47.0
471,67.0,80,240,3.0,49.0
472,72.0,0,240,1.0,49.0
473,64.0,120,360,5.0,49.0
474,67.0,240,240,3.0,50.0
475,74.0,240,80,1.0,46.0
476,76.0,80,80,1.0,46.0
477,74.0,80,80,1.0,47.0
478,72.0,80,120,1.0,48.0
479,59.0,0,360,5.0,50.0
480,74.0,120,120,1.0,49.0
481,67.0,0,240,3.0,51.0
482,76.0,120,240,1.0,51.0
483,60.0,0,360,5.0,51.0
484,67.0,240,240,3.0,52.0
485,77.0,240,80,1.0,47.0
486,79.0,80,80,1.0,48.0
487,77.0,80,80,1.0,49.0
488,57.0,0,360,5.0,52.0
489,76.0,80,120,1.0,50.0
490,60.0,0,240,3.0,53.0
491,77.0,120,120,1.0,51.0
492,79.0,120,240,1.0,53.0
493,52.0,0,360,5.0,53.0
494,60.0,240,240,3.0,54.0
495,81.0,240,240,1.0,54.0
496,53.0,0,360,5.0,54.0
497,65.0,240,192,3.0,55.0
498,72.0,0,480,1.0,56.0
499,64.0,0,480,3.0,56.0
500,71.0,0,240,1.0,51.0
501,55.0,240,840,5.0,56.0
502,62.0,480,360,3.0,51.0
503,57.0,480,480,5.0,62.0
504,61.0,0,480,4.0,62.0
505,81.0,480,1120,1.0,71.0
506,59.0,0,240,5.0,53.0
507,62.0,480,240,4.0,53.0
508,82.0,160,160,1.0,66.0
509,81.0,160,160,1.0,66.0
510,79.0,160,160,1.0,65.0
511,61.0,0,240,5.0,54.0
512,64.0,0,240,4.0,54.0
513,81.0,160,160,1.0,64.0
514,79.0,160,160,1.0,63.0
515,77.0,160,160,1.0,63.0
516,62.0,0,240,5.0,55.0
517,65.0,0,240,4.0,55.0
518,79.0,160,160,1.0,62.0
519,77.0,160,160,1.0,61.0
520,76.0,0,160,1.0,61.0
521,67.0,0,240,4.0,57.0
522,64.0,160,240,5.0,57.0
523,77.0,160,160,1.0,60.0
524,76.0,160,160,1.0,59.0
525,65.0,0,240,5.0,58.0
526,74.0,0,240,1.0,59.0
527,69.0,160,240,4.0,58.0
528,86.0,480,240,1.0,59.0
529,81.0,480,240,1.0,60.0
530,83.0,0,80,1.0,56.0
531,84.0,80,80,1.0,57.0
532,83.0,80,80,1.0,58.0
533,81.0,80,120,1.0,59.0
534,83.0,120,120,1.0,61.0
535,53.0,480,480,5.0,64.0
536,55.0,0,720,4.0,64.0
537,84.0,120,240,1.0,64.0
538,52.0,0,240,5.0,60.0
539,72.0,0,80,1.0,57.0
540,74.0,80,80,1.0,58.0
541,72.0,80,80,1.0,59.0
542,71.0,80,120,1.0,59.0
543,54.0,0,480,5.0,63.0
544,57.0,480,480,4.0,63.0
545,72.0,120,120,1.0,60.0
546,76.0,0,480,1.0,62.0
547,60.0,0,480,4.0,61.0
548,55.0,120,960,5.0,61.0
549,74.0,480,480,1.0,59.0
550,60.0,0,240,5.0,56.0
551,72.0,480,360,1.0,56.0
552,48.0,480,240,5.0,69.0
553,67.0,480,240,1.0,72.0
554,55.0,480,1120,5.0,75.0
555,57.0,160,160,5.0,70.0
556,55.0,160,160,5.0,69.0
557,53.0,160,160,5.0,69.0
558,55.0,160,160,5.0,68.0
559,53.0,160,160,5.0,67.0
560,52.0,160,160,5.0,66.0
561,79.0,480,1120,1.0,77.0
562,53.0,0,160,5.0,66.0
563,81.0,160,160,1.0,73.0
564,52.0,160,160,5.0,65.0
565,79.0,0,160,1.0,73.0
566,77.0,160,160,1.0,72.0
567,50.0,0,160,5.0,64.0
568,52.0,0,160,5.0,63.0
569,79.0,160,160,1.0,72.0
570,77.0,160,160,1.0,71.0
571,50.0,0,160,5.0,63.0
572,76.0,160,160,1.0,71.0
573,48.0,0,240,5.0,62.0
574,77.0,160,160,1.0,70.0
575,76.0,160,160,1.0,69.0
576,50.0,160,80,5.0,57.0
577,52.0,80,80,5.0,58.0
578,74.0,0,160,1.0,69.0
579,50.0,80,80,5.0,59.0
580,72.0,0,160,1.0,68.0
581,48.0,80,120,5.0,60.0
582,50.0,40,120,5.0,61.0
583,71.0,80,160,1.0,68.0
584,72.0,0,160,1.0,67.0
585,52.0,120,240,5.0,64.0
586,74.0,160,160,1.0,67.0
587,72.0,160,160,1.0,66.0
588,70.0,160,160,1.0,66.0
589,40.0,0,240,5.0,65.0
590,69.0,160,160,1.0,65.0
591,68.0,160,128,1.0,64.0
592,69.0,0,160,1.0,64.0
593,74.0,160,160,1.0,67.0
594,41.0,160,360,5.0,66.0
595,73.0,160,160,1.0,67.0
596,74.0,160,160,1.0,68.0
597,77.0,160,160,1.0,68.0
598,76.0,160,160,1.0,68.0
599,77.0,160,160,1.0,69.0
600,81.0,160,160,1.0,69.0
601,80.0,160,160,1.0,70.0
602,81.0,0,160,1.0,70.0
603,77.0,160,160,1.0,70.0
604,74.0,160,128,1.0,71.0
605,53.0,160,480,5.0,70.0
606,55.0,160,240,5.0,71.0
607,72.0,0,480,1.0,71.0
608,43.0,480,240,5.0,75.0
609,71.0,0,360,1.0,62.0
610,60.0,480,240,1.0,64.0
611,57.0,480,1120,5.0,79.0
612,58.0,160,160,5.0,74.0
613,57.0,160,160,5.0,73.0
614,72.0,480,480,1.0,66.0
615,55.0,160,160,5.0,73.0
616,57.0,160,160,5.0,72.0
617,70.0,0,480,2.0,67.0
618,55.0,160,160,5.0,72.0
619,73.0,0,480,1.0,67.0
620,53.0,0,160,5.0,71.0
621,55.0,160,160,5.0,70.0
622,53.0,160,160,5.0,70.0
623,74.0,0,480,1.0,69.0
624,69.0,160,480,2.0,69.0
625,52.0,160,160,5.0,69.0
626,53.0,160,160,5.0,69.0
627,73.0,0,360,2.0,70.0
628,76.0,0,360,1.0,70.0
629,52.0,160,160,5.0,68.0
630,77.0,160,160,1.0,71.0
631,50.0,0,240,5.0,68.0
632,76.0,160,160,1.0,72.0
633,77.0,160,160,1.0,72.0
634,48.0,160,80,5.0,67.0
635,50.0,80,80,5.0,68.0
636,78.0,0,160,1.0,73.0
637,48.0,0,80,5.0,69.0
638,76.0,80,160,1.0,73.0
639,47.0,80,120,5.0,70.0
640,48.0,40,120,5.0,71.0
641,78.0,80,160,1.0,74.0
642,79.0,120,160,1.0,74.0
643,47.0,0,240,5.0,74.0
644,78.0,160,160,1.0,75.0
645,79.0,160,160,1.0,75.0
646,53.0,0,80,5.0,71.0
647,55.0,80,80,5.0,72.0
648,83.0,160,160,1.0,76.0
649,53.0,0,80,5.0,73.0
650,81.0,80,160,1.0,76.0
651,52.0,80,120,5.0,73.0
652,83.0,80,160,1.0,77.0
653,53.0,40,120,5.0,75.0
654,84.0,120,240,1.0,77.0
655,79.0,160,160,2.0,76.0
656,52.0,0,360,5.0,77.0
657,76.0,160,160,2.0,75.0
658,81.0,160,240,1.0,74.0
659,77.0,160,160,2.0,73.0
660,53.0,0,360,5.0,74.0
661,74.0,160,160,2.0,72.0
662,79.0,160,240,1.0,71.0
663,76.0,160,160,2.0,70.0
664,55.0,0,360,5.0,71.0
665,72.0,160,160,2.0,69.0
666,77.0,160,240,1.0,68.0
667,74.0,160,160,2.0,66.0
668,43.0,0,360,5.0,68.0
669,71.0,160,160,2.0,65.0
670,72.0,160,240,1.0,64.0
671,48.0,0,240,5.0,64.0
672,88.0,480,160,1.0,69.0
673,86.0,160,160,1.0,69.0
674,84.0,160,160,1.0,69.0
675,83.0,160,160,1.0,69.0
676,81.0,160,160,1.0,70.0
677,79.0,160,160,1.0,70.0
678,78.0,0,160,1.0,70.0
679,81.0,160,160,1.0,70.0
680,75.0,160,480,4.0,70.0
681,78.0,160,160,1.0,70.0
682,72.0,0,480,5.0,70.0
683,81.0,160,240,1.0,70.0
684,79.0,160,160,2.0,70.0
685,74.0,0,480,4.0,70.0
686,76.0,160,160,2.0,70.0
687,71.0,0,480,5.0,70.0
688,79.0,0,240,1.0,71.0
689,77.0,160,160,2.0,71.0
690,74.0,160,160,2.0,71.0
691,72.0,0,480,4.0,71.0
692,69.0,160,480,5.0,71.0
693,77.0,160,240,1.0,71.0
694,76.0,160,160,2.0,71.0
695,67.0,0,480,5.0,71.0
696,71.0,0,480,4.0,71.0
697,72.0,160,160,2.0,71.0
698,76.0,0,240,1.0,71.0
699,74.0,160,160,2.0,72.0
700,69.0,0,480,4.0,71.0
701,71.0,160,160,2.0,72.0
702,65.0,160,480,5.0,71.0
703,72.0,0,360,1.0,72.0
704,64.0,160,360,5.0,72.0
705,67.0,0,360,4.0,72.0
706,63.0,480,160,5.0,72.0
707,62.0,160,160,5.0,72.0
708,60.0,160,160,5.0,73.0
709,58.0,160,160,5.0,73.0
710,56.0,160,160,5.0,73.0
711,55.0,160,160,5.0,73.0
712,54.0,160,160,5.0,73.0
713,57.0,160,160,5.0,73.0
714,54.0,160,160,5.0,73.0
715,75.0,0,480,2.0,76.0
716,57.0,160,160,5.0,73.0
717,55.0,160,160,5.0,74.0
718,84.0,0,960,1.0,76.0
719,52.0,160,160,5.0,74.0
720,55.0,0,160,5.0,74.0
721,53.0,160,160,5.0,74.0
722,50.0,160,160,5.0,74.0
723,74.0,0,960,2.0,73.0
724,83.0,160,480,1.0,74.0
725,53.0,0,160,5.0,74.0
726,52.0,160,160,5.0,74.0
727,84.0,0,480,1.0,74.0
728,48.0,160,160,5.0,75.0
729,52.0,0,160,5.0,75.0
730,50.0,160,160,5.0,75.0
731,86.0,160,480,1.0,75.0
732,79.0,160,960,2.0,74.0
733,77.0,0,480,2.0,75.0
734,47.0,160,160,5.0,75.0
735,76.0,0,360,2.0,75.0
736,79.0,0,360,2.0,75.0
737,48.0,0,360,5.0,75.0
738,88.0,160,360,1.0,75.0
739,79.0,480,160,1.0,76.0
740,77.0,160,160,1.0,76.0
741,76.0,160,160,1.0,76.0
742,74.0,160,160,1.0,76.0
743,72.0,160,160,1.0,76.0
744,71.0,160,160,1.0,76.0
745,72.0,0,160,1.0,76.0
746,70.0,160,160,1.0,76.0
747,68.0,160,160,1.0,77.0
748,52.0,0,480,5.0,76.0
749,69.0,160,360,1.0,77.0
750,60.0,160,840,4.0,76.0
751,53.0,0,360,5.0,74.0
752,69.0,480,160,5.0,77.0
753,67.0,160,160,5.0,77.0
754,65.0,160,160,5.0,77.0
755,64.0,160,160,5.0,78.0
756,62.0,160,160,5.0,78.0
757,61.0,160,160,5.0,78.0
758,62.0,0,160,5.0,78.0
759,60.0,160,160,5.0,78.0
760,78.0,0,360,1.0,78.0
761,74.0,160,360,2.0,78.0
762,58.0,160,160,5.0,78.0
763,59.0,160,360,5.0,78.0
764,74.0,0,360,2.0,74.0
765,79.0,0,360,1.0,74.0
766,67.0,480,160,1.0,79.0
767,71.0,160,160,1.0,79.0
768,74.0,160,160,1.0,79.0
769,79.0,160,160,1.0,79.0
770,83.0,160,160,1.0,79.0
771,86.0,160,160,1.0,79.0
772,84.0,0,160,1.0,80.0
773,81.0,160,160,1.0,80.0
774,62.0,0,360,4.0,80.0
775,60.0,160,360,5.0,80.0
776,78.0,160,160,1.0,80.0
777,79.0,0,240,1.0,80.0
778,62.0,160,360,4.0,77.0
779,59.0,0,360,5.0,77.0
780,67.0,480,160,1.0,80.0
781,71.0,160,160,1.0,81.0
782,74.0,160,160,1.0,81.0
783,79.0,160,160,1.0,81.0
784,83.0,160,160,1.0,81.0
785,86.0,160,160,1.0,81.0
786,84.0,160,160,1.0,81.0
787,81.0,160,160,1.0,81.0
788,62.0,0,360,4.0,81.0
789,60.0,0,360,4.0,81.0
790,57.0,0,360,5.0,81.0
791,78.0,160,160,1.0,81.0
792,79.0,160,160,1.0,82.0
793,83.0,160,160,1.0,82.0
794,59.0,0,360,4.0,82.0
795,55.0,0,360,5.0,82.0
796,86.0,160,160,1.0,82.0
797,84.0,160,160,1.0,82.0
798,81.0,160,160,1.0,82.0
799,60.0,0,360,4.0,80.0
800,62.0,0,840,4.0,82.0
801,57.0,0,360,5.0,80.0
802,78.0,160,160,1.0,82.0
803,79.0,0,160,1.0,82.0
804,83.0,160,160,1.0,83.0
805,55.0,0,360,5.0,82.0
806,59.0,160,360,4.0,82.0
807,86.0,160,160,1.0,83.0
808,84.0,0,160,1.0,83.0
809,81.0,160,160,1.0,83.0
810,62.0,0,840,4.0,82.0
811,60.0,0,360,4.0,80.0
812,57.0,160,360,5.0,80.0
813,78.0,160,160,1.0,83.0
814,55.0,0,360,5.0,83.0
815,79.0,160,360,1.0,83.0
816,62.0,0,360,4.0,83.0
817,59.0,0,360,4.0,83.0
818,43.0,480,240,5.0,66.0
819,45.0,480,240,5.0,68.0
820,47.0,480,240,5.0,69.0
821,48.0,480,240,5.0,70.0
822,52.0,480,240,5.0,71.0
823,53.0,480,240,5.0,72.0
824,56.0,480,240,5.0,74.0
825,57.0,480,240,5.0,75.0
826,60.0,240,240,5.0,76.0
827,59.0,240,240,5.0,76.0
828,57.0,240,240,5.0,77.0
829,59.0,240,240,5.0,77.0
830,60.0,240,240,5.0,78.0
831,57.0,240,240,5.0,79.0
832,59.0,240,192,5.0,79.0
833,60.0,240,240,5.0,79.0
834,57.0,480,240,5.0,76.0
835,52.0,480,240,5.0,73.0
836,54.0,480,80,5.0,63.0
837,55.0,80,80,5.0,62.0
838,54.0,80,80,5.0,61.0
839,52.0,80,120,5.0,60.0
840,54.0,120,120,5.0,59.0
841,67.0,0,240,1.0,59.0
842,64.0,480,480,4.0,59.0
843,69.0,0,240,1.0,61.0
844,65.0,480,480,4.0,61.0
845,71.0,0,240,1.0,62.0
846,62.0,480,480,4.0,62.0
847,72.0,480,240,1.0,64.0
848,64.0,0,480,4.0,64.0
849,76.0,0,240,1.0,66.0
850,61.0,480,480,4.0,66.0
851,77.0,480,240,1.0,67.0
852,62.0,0,480,4.0,67.0
853,80.0,0,240,1.0,69.0
854,64.0,480,480,4.0,69.0
855,55.0,120,3840,5.0,59.0
856,81.0,480,240,1.0,71.0
857,84.0,240,240,1.0,71.0
858,83.0,240,240,1.0,72.0
859,81.0,240,240,1.0,73.0
860,83.0,240,240,1.0,74.0
861,84.0,240,240,1.0,75.0
862,81.0,240,240,1.0,76.0
863,83.0,240,192,1.0,76.0
864,65.0,0,2160,4.0,71.0
865,62.0,240,240,4.0,77.0
866,64.0,240,240,4.0,76.0
867,65.0,240,240,4.0,76.0
868,64.0,240,240,4.0,75.0
869,60.0,240,240,4.0,75.0
870,66.0,240,240,4.0,74.0
871,62.0,240,192,4.0,74.0
872,55.0,240,0,5.0,73.0
873,84.0,240,2040,1.0,78.0
874,81.0,240,156,1.0,73.0
875,67.0,0,600,4.0,73.0
876,64.0,240,156,4.0,72.0
877,83.0,240,600,1.0,72.0
878,80.0,240,156,1.0,71.0
879,65.0,240,607,4.0,71.0
880,63.0,240,156,4.0,70.0
881,81.0,240,480,1.0,70.0
882,78.0,240,156,1.0,69.0
883,64.0,240,600,4.0,69.0
884,61.0,240,156,4.0,68.0
885,79.0,240,600,1.0,68.0
886,76.0,240,156,1.0,67.0
887,77.0,240,156,1.0,66.0
888,56.0,240,156,5.0,66.0
889,77.0,0,156,1.0,66.0
890,77.0,0,240,1.0,65.0
891,79.0,240,80,1.0,58.0
892,77.0,80,80,1.0,59.0
893,76.0,80,80,1.0,60.0
894,77.0,80,240,1.0,61.0
895,79.0,240,240,1.0,63.0
896,81.0,240,480,1.0,66.0
897,79.0,480,240,1.0,62.0
898,77.0,240,240,1.0,62.0
899,76.0,240,156,1.0,61.0
900,62.0,240,3840,4.0,67.0
901,82.0,480,960,1.0,77.0
902,81.0,480,240,1.0,63.0
903,79.0,240,240,1.0,60.0
904,61.0,480,960,4.0,66.0
905,57.0,240,3847,5.0,65.0
906,77.0,240,156,1.0,57.0
907,62.0,0,360,4.0,57.0
908,82.0,240,240,1.0,57.0
909,81.0,240,240,1.0,56.0
910,80.0,240,240,1.0,56.0
911,81.0,240,240,1.0,55.0
912,76.0,240,240,1.0,55.0
913,81.0,240,240,1.0,54.0
914,61.0,0,480,5.0,54.0
915,79.0,240,240,1.0,54.0
916,77.0,0,240,1.0,53.0
917,62.0,240,360,5.0,50.0
918,69.0,0,840,4.0,54.0
919,81.0,240,240,1.0,53.0
920,79.0,240,240,1.0,52.0
921,78.0,240,240,1.0,52.0
922,79.0,240,240,1.0,51.0
923,74.0,240,240,1.0,51.0
924,79.0,240,240,1.0,50.0
925,59.0,0,480,5.0,50.0
926,77.0,240,480,1.0,50.0
927,75.0,240,240,1.0,49.0
928,77.0,240,240,1.0,48.0
929,60.0,240,892,5.0,46.0
930,67.0,0,1380,4.0,50.0
931,76.0,240,480,1.0,48.0
932,69.0,240,240,1.0,47.0
933,76.0,240,240,1.0,46.0
934,53.0,0,907,5.0,47.0
935,65.0,240,915,4.0,47.0
936,74.0,240,480,1.0,46.0
937,67.0,240,240,1.0,45.0
938,74.0,240,240,1.0,44.0
939,64.0,240,960,4.0,45.0
940,72.0,240,480,1.0,44.0
941,65.0,240,240,1.0,43.0
942,72.0,240,240,1.0,42.0
943,55.0,0,1860,5.0,45.0
944,71.0,240,192,1.0,42.0
945,62.0,240,915,4.0,43.0
946,72.0,160,104,1.0,97.0
947,74.0,160,104,1.0,97.0
948,76.0,160,104,1.0,96.0
949,78.0,160,104,1.0,95.0
950,79.0,160,104,1.0,94.0
951,81.0,160,104,1.0,94.0
952,66.0,240,1200,4.0,100.0
953,57.0,0,1200,5.0,100.0
954,60.0,0,1200,4.0,100.0
955,83.0,160,104,1.0,93.0
956,84.0,160,104,1.0,92.0
957,86.0,160,104,1.0,91.0
958,57.0,0,240,5.0,91.0
959,66.0,0,240,4.0,91.0
960,60.0,0,240,4.0,91.0
961,88.0,160,104,1.0,91.0
962,84.0,160,104,1.0,90.0
963,88.0,160,160,1.0,72.0
964,86.0,160,160,1.0,72.0
965,84.0,160,160,1.0,71.0
966,83.0,160,160,1.0,70.0
967,81.0,160,160,1.0,69.0
968,79.0,160,160,1.0,68.0
969,67.0,160,1185,4.0,73.0
970,64.0,0,1200,4.0,73.0
971,55.0,0,1200,5.0,73.0
972,60.0,0,1200,4.0,73.0
973,77.0,160,160,1.0,67.0
974,76.0,160,160,1.0,66.0
975,74.0,160,160,1.0,66.0
976,60.0,0,240,4.0,66.0
977,55.0,0,240,5.0,66.0
978,64.0,0,240,4.0,66.0
979,76.0,160,160,1.0,65.0
980,72.0,160,128,1.0,64.0
981,72.0,160,104,1.0,95.0
982,74.0,160,104,1.0,94.0
983,76.0,160,104,1.0,94.0
984,78.0,160,104,1.0,93.0
985,79.0,160,104,1.0,92.0
986,81.0,160,104,1.0,91.0
987,64.0,0,1185,4.0,99.0
988,54.0,0,1200,5.0,99.0
989,60.0,0,1200,4.0,99.0
990,57.0,160,1215,4.0,99.0
991,83.0,160,104,1.0,91.0
992,84.0,160,104,1.0,90.0
993,86.0,160,104,1.0,89.0
994,57.0,0,240,4.0,89.0
995,60.0,0,240,4.0,89.0
996,64.0,0,240,4.0,89.0
997,54.0,0,240,5.0,89.0
998,88.0,160,104,1.0,89.0
999,84.0,160,104,1.0,88.0
1000,88.0,160,160,1.0,63.0
1001,86.0,160,160,1.0,62.0
1002,84.0,160,160,1.0,62.0
1003,83.0,160,160,1.0,61.0
1004,81.0,160,160,1.0,61.0
1005,79.0,160,160,1.0,60.0
1006,64.0,0,1185,4.0,63.0
1007,60.0,160,1185,4.0,63.0
1008,55.0,0,1200,5.0,63.0
1009,77.0,160,160,1.0,60.0
1010,76.0,160,160,1.0,59.0
1011,74.0,0,160,1.0,59.0
1012,60.0,0,240,4.0,59.0
1013,55.0,0,240,5.0,59.0
1014,64.0,160,240,4.0,59.0
1015,76.0,160,160,1.0,58.0
1016,72.0,160,128,1.0,58.0
1017,72.0,160,104,1.0,93.0
1018,74.0,160,104,1.0,93.0
1019,75.0,160,104,1.0,92.0
1020,78.0,160,104,1.0,92.0
1021,79.0,160,104,1.0,91.0
1022,80.0,160,104,1.0,90.0
1023,60.0,160,1185,4.0,98.0
1024,66.0,0,1200,4.0,98.0
1025,56.0,0,1215,5.0,98.0
1026,63.0,0,1215,4.0,98.0
1027,83.0,160,104,1.0,90.0
1028,84.0,160,104,1.0,89.0
1029,86.0,0,104,1.0,89.0
1030,56.0,0,240,5.0,89.0
1031,66.0,0,240,4.0,89.0
1032,60.0,160,240,4.0,89.0
1033,63.0,0,240,4.0,89.0
1034,87.0,160,104,1.0,88.0
1035,84.0,160,104,1.0,88.0
1036,88.0,160,120,1.0,87.0
1037,67.0,0,240,4.0,87.0
1038,60.0,0,240,4.0,87.0
1039,64.0,0,240,4.0,87.0
1040,86.0,120,120,1.0,87.0
1041,55.0,0,240,5.0,87.0
1042,84.0,120,120,1.0,86.0
1043,83.0,120,120,1.0,86.0
1044,81.0,120,120,1.0,85.0
1045,79.0,120,120,1.0,85.0
1046,77.0,120,120,1.0,84.0
1047,76.0,120,96,1.0,84.0
1048,84.0,120,120,1.0,84.0
1049,83.0,120,120,1.0,83.0
1050,81.0,120,120,1.0,83.0
1051,79.0,120,120,1.0,82.0
1052,77.0,120,120,1.0,82.0
1053,76.0,120,120,1.0,81.0
1054,74.0,120,120,1.0,81.0
1055,72.0,120,96,1.0,81.0
1056,74.0,0,80,1.0,80.0
1057,76.0,80,80,1.0,80.0
1058,74.0,80,80,1.0,80.0
1059,76.0,80,80,1.0,79.0
1060,74.0,80,80,1.0,79.0
1061,76.0,80,80,1.0,79.0
1062,74.0,80,80,1.0,78.0
1063,76.0,80,80,1.0,78.0
1064,74.0,80,80,1.0,78.0
1065,76.0,80,80,1.0,78.0
1066,74.0,80,80,1.0,77.0
1067,76.0,80,80,1.0,77.0
1068,60.0,120,960,4.0,80.0
1069,74.0,0,80,1.0,77.0
1070,76.0,80,80,1.0,76.0
1071,74.0,80,80,1.0,76.0
1072,76.0,80,80,1.0,76.0
1073,74.0,80,80,1.0,76.0
1074,76.0,80,80,1.0,75.0
1075,74.0,80,80,1.0,75.0
1076,76.0,80,80,1.0,75.0
1077,74.0,80,80,1.0,74.0
1078,72.0,80,120,1.0,74.0
1079,74.0,120,96,1.0,74.0
1080,59.0,80,937,4.0,77.0
1081,55.0,0,1897,5.0,80.0
1082,60.0,120,128,1.0,81.0
1083,64.0,160,128,1.0,81.0
1084,67.0,160,128,1.0,81.0
1085,72.0,160,128,1.0,81.0
1086,76.0,160,128,1.0,81.0
1087,79.0,160,128,1.0,80.0
1088,84.0,160,240,1.0,80.0
1089,79.0,160,128,2.0,80.0
1090,76.0,160,128,2.0,80.0
1091,83.0,160,240,1.0,80.0
1092,77.0,160,128,2.0,79.0
1093,74.0,160,128,2.0,79.0
1094,81.0,160,240,1.0,79.0
1095,76.0,160,128,2.0,79.0
1096,72.0,160,128,2.0,79.0
1097,79.0,160,240,1.0,78.0
1098,74.0,160,128,2.0,78.0
1099,71.0,160,128,2.0,78.0
1100,77.0,160,240,1.0,78.0
1101,72.0,160,128,2.0,78.0
1102,69.0,160,128,2.0,77.0
1103,76.0,160,240,1.0,77.0
1104,71.0,160,128,2.0,77.0
1105,67.0,160,128,2.0,77.0
1106,64.0,160,240,1.0,77.0
1107,70.0,160,128,2.0,76.0
1108,36.0,0,4288,5.0,86.0
1109,48.0,0,4288,5.0,86.0
1110,73.0,160,128,2.0,76.0
1111,65.0,160,240,1.0,76.0
1112,69.0,160,128,2.0,76.0
1113,53.0,0,360,5.0,76.0
1114,74.0,160,128,2.0,76.0
1115,64.0,0,240,1.0,75.0
1116,67.0,160,128,2.0,75.0
1117,55.0,160,360,5.0,75.0
1118,72.0,160,128,2.0,75.0
1119,62.0,160,240,1.0,75.0
1120,65.0,160,128,2.0,75.0
1121,43.0,0,360,5.0,75.0
1122,71.0,160,128,2.0,74.0
1123,60.0,0,128,1.0,74.0
1124,64.0,160,128,1.0,74.0
1125,67.0,160,128,1.0,74.0
1126,72.0,160,128,1.0,74.0
1127,76.0,160,128,1.0,73.0
1128,79.0,160,128,1.0,73.0
1129,84.0,160,240,1.0,73.0
1130,79.0,160,128,2.0,73.0
1131,76.0,160,128,2.0,73.0
1132,83.0,160,240,1.0,72.0
1133,77.0,160,128,2.0,72.0
1134,74.0,160,128,2.0,72.0
1135,81.0,160,240,1.0,72.0
1136,76.0,160,128,2.0,72.0
1137,72.0,160,128,2.0,72.0
1138,79.0,160,240,1.0,71.0
1139,74.0,160,128,2.0,71.0
1140,71.0,160,128,2.0,71.0
1141,77.0,160,240,1.0,71.0
1142,72.0,160,128,2.0,71.0
1143,69.0,160,128,2.0,70.0
1144,76.0,160,240,1.0,70.0
1145,71.0,160,128,2.0,70.0
1146,67.0,160,128,2.0,70.0
1147,64.0,160,240,1.0,70.0
1148,70.0,160,128,2.0,69.0
1149,36.0,160,4288,5.0,79.0
1150,73.0,160,128,2.0,69.0
1151,48.0,0,4288,5.0,79.0
1152,65.0,160,240,1.0,69.0
1153,69.0,160,128,2.0,69.0
1154,53.0,0,360,5.0,69.0
1155,74.0,160,128,2.0,69.0
1156,64.0,0,240,1.0,68.0
1157,67.0,160,128,2.0,68.0
1158,55.0,160,360,5.0,68.0
1159,72.0,160,128,2.0,68.0
1160,62.0,0,240,1.0,68.0
1161,65.0,160,128,2.0,68.0
1162,43.0,160,360,5.0,68.0
1163,71.0,160,128,2.0,67.0
1164,64.0,0,240,1.0,67.0
1165,67.0,160,128,2.0,67.0
1166,72.0,160,128,2.0,67.0
1167,63.0,160,240,1.0,67.0
1168,66.0,160,128,2.0,66.0
1169,72.0,160,128,2.0,66.0
1170,64.0,160,240,1.0,66.0
1171,67.0,160,128,2.0,66.0
1172,72.0,160,128,2.0,66.0
1173,63.0,160,240,1.0,65.0
1174,66.0,160,128,2.0,65.0
1175,72.0,160,128,2.0,65.0
1176,64.0,160,240,1.0,65.0
1177,67.0,160,128,2.0,65.0
1178,48.0,160,2347,5.0,74.0
1179,72.0,160,128,2.0,64.0
1180,69.0,0,240,1.0,64.0
1181,65.0,160,128,2.0,64.0
1182,53.0,160,360,5.0,64.0
1183,62.0,160,128,2.0,64.0
1184,67.0,0,240,1.0,64.0
1185,64.0,160,128,2.0,63.0
1186,55.0,160,360,5.0,64.0
1187,60.0,160,128,2.0,63.0
1188,65.0,0,240,1.0,63.0
1189,62.0,160,128,2.0,63.0
1190,43.0,160,360,5.0,63.0
1191,59.0,160,128,2.0,63.0
1192,55.0,0,240,1.0,62.0
1193,60.0,160,128,2.0,62.0
1194,64.0,160,128,2.0,62.0
1195,54.0,160,240,1.0,62.0
1196,60.0,160,128,2.0,62.0
1197,63.0,160,128,2.0,61.0
1198,55.0,160,240,1.0,61.0
1199,60.0,160,128,2.0,61.0
1200,64.0,160,128,2.0,61.0
1201,54.0,160,240,1.0,61.0
1202,60.0,160,128,2.0,60.0
1203,63.0,160,128,2.0,60.0
1204,55.0,160,240,1.0,60.0
1205,60.0,160,128,2.0,60.0
1206,48.0,0,2280,5.0,70.0
1207,36.0,160,2280,5.0,70.0
1208,64.0,160,128,2.0,60.0
1209,62.0,160,240,1.0,59.0
1210,57.0,160,128,2.0,59.0
1211,41.0,0,360,5.0,59.0
1212,53.0,160,128,2.0,59.0
1213,60.0,0,240,1.0,59.0
1214,55.0,160,128,2.0,59.0
1215,43.0,160,360,5.0,59.0
1216,52.0,160,128,2.0,58.0
1217,59.0,0,240,1.0,58.0
1218,53.0,160,128,2.0,58.0
1219,31.0,160,360,5.0,58.0
1220,50.0,160,128,2.0,58.0
1221,48.0,160,128,1.0,60.0
1222,36.0,0,128,5.0,60.0
1223,52.0,160,128,1.0,61.0
1224,40.0,0,128,5.0,61.0
1225,43.0,0,128,5.0,62.0
1226,55.0,160,128,1.0,62.0
1227,60.0,160,128,1.0,63.0
1228,48.0,0,128,5.0,63.0
1229,55.0,160,128,1.0,64.0
1230,43.0,0,128,5.0,64.0
1231,52.0,160,128,1.0,65.0
1232,40.0,0,128,5.0,65.0
1233,48.0,160,128,1.0,66.0
1234,36.0,0,128,5.0,66.0
1235,52.0,0,128,1.0,67.0
1236,40.0,160,128,5.0,67.0
1237,43.0,0,128,5.0,68.0
1238,55.0,160,128,1.0,68.0
1239,48.0,0,128,5.0,69.0
1240,60.0,160,128,1.0,69.0
1241,55.0,160,128,1.0,70.0
1242,43.0,0,128,5.0,70.0
1243,52.0,160,128,1.0,71.0
1244,40.0,0,128,5.0,71.0
1245,36.0,0,128,5.0,72.0
1246,48.0,160,128,1.0,72.0
1247,52.0,160,128,1.0,73.0
1248,40.0,0,128,5.0,73.0
1249,43.0,160,128,5.0,74.0
1250,55.0,0,128,1.0,74.0
1251,60.0,0,128,1.0,75.0
1252,48.0,160,128,5.0,75.0
1253,64.0,160,128,1.0,76.0
1254,52.0,0,128,5.0,76.0
1255,67.0,160,128,1.0,77.0
1256,55.0,0,128,5.0,77.0
1257,72.0,160,128,1.0,78.0
1258,60.0,0,128,5.0,78.0
1259,55.0,160,128,5.0,79.0
1260,67.0,0,128,1.0,79.0
1261,52.0,160,128,5.0,80.0
1262,64.0,0,128,1.0,80.0
1263,48.0,160,128,5.0,81.0
1264,60.0,0,128,1.0,81.0
1265,52.0,0,128,5.0,82.0
1266,64.0,160,128,1.0,82.0
1267,55.0,160,128,5.0,83.0
1268,67.0,0,128,1.0,83.0
1269,60.0,160,128,1.0,84.0
1270,48.0,0,128,5.0,84.0
1271,52.0,160,128,5.0,85.0
1272,64.0,0,128,1.0,85.0
1273,55.0,160,128,5.0,86.0
1274,67.0,0,128,1.0,86.0
1275,60.0,160,128,5.0,87.0
1276,72.0,0,128,1.0,87.0
1277,64.0,0,128,5.0,88.0
1278,76.0,160,128,1.0,88.0
1279,67.0,160,128,5.0,89.0
1280,79.0,0,128,1.0,89.0
1281,72.0,160,128,5.0,90.0
1282,84.0,0,128,1.0,90.0
1283,79.0,0,128,1.0,91.0
1284,67.0,160,128,5.0,91.0
1285,64.0,0,128,5.0,92.0
1286,76.0,160,128,1.0,92.0
1287,60.0,160,128,5.0,93.0
1288,72.0,0,128,1.0,93.0
1289,64.0,160,128,5.0,94.0
1290,76.0,0,128,1.0,94.0
1291,67.0,0,128,5.0,95.0
1292,79.0,160,128,1.0,95.0
1293,72.0,0,360,1.0,96.0
1294,84.0,160,360,1.0,96.0
1295,48.0,480,360,5.0,92.0
1296,60.0,0,360,1.0,92.0
1297,72.0,0,360,1.0,92.0
1298,79.0,960,240,1.0,56.0
1299,77.0,480,240,1.0,53.0
1300,75.0,240,240,1.0,52.0
1301,74.0,240,240,1.0,51.0
1302,72.0,240,240,1.0,50.0
1303,75.0,240,240,1.0,49.0
1304,74.0,240,240,1.0,48.0
1305,77.0,240,240,1.0,47.0
1306,71.0,240,192,1.0,46.0
1307,36.0,240,128,5.0,44.0
1308,39.0,160,128,5.0,45.0
1309,43.0,160,128,5.0,46.0
1310,72.0,0,480,1.0,48.0
1311,48.0,160,128,5.0,47.0
1312,43.0,160,128,5.0,48.0
1313,67.0,0,360,1.0,42.0
1314,39.0,160,128,5.0,49.0
1315,36.0,160,128,5.0,50.0
1316,39.0,160,128,5.0,51.0
1317,43.0,160,128,5.0,51.0
1318,48.0,0,128,5.0,52.0
1319,67.0,160,240,2.0,52.0
1320,75.0,0,240,1.0,52.0
1321,43.0,160,128,5.0,53.0
1322,39.0,160,128,5.0,54.0
1323,36.0,0,128,5.0,55.0
1324,39.0,160,128,5.0,56.0
1325,43.0,160,128,5.0,57.0
1326,74.0,160,480,1.0,59.0
1327,65.0,0,480,2.0,59.0
1328,48.0,160,128,5.0,58.0
1329,51.0,160,128,5.0,59.0
1330,72.0,0,360,1.0,55.0
1331,63.0,0,360,2.0,55.0
1332,55.0,160,128,5.0,60.0
1333,60.0,160,128,5.0,61.0
1334,55.0,160,128,5.0,62.0
1335,51.0,160,128,5.0,62.0
1336,48.0,0,128,5.0,63.0
1337,75.0,0,240,2.0,63.0
1338,79.0,160,240,1.0,63.0
1339,51.0,160,128,5.0,64.0
1340,55.0,160,128,5.0,65.0
1341,48.0,0,128,5.0,66.0
1342,51.0,160,128,5.0,67.0
1343,55.0,160,128,5.0,68.0
1344,77.0,160,480,1.0,71.0
1345,74.0,0,480,2.0,71.0
1346,60.0,160,128,5.0,69.0
1347,63.0,160,128,5.0,70.0
1348,72.0,0,360,2.0,67.0
1349,75.0,0,360,1.0,67.0
1350,67.0,160,128,5.0,71.0
1351,72.0,160,128,5.0,72.0
1352,67.0,160,128,5.0,72.0
1353,63.0,160,128,5.0,73.0
1354,60.0,0,128,5.0,74.0
1355,79.0,160,240,1.0,81.0
1356,63.0,160,128,5.0,75.0
1357,67.0,160,128,5.0,76.0
1358,87.0,160,160,1.0,79.0
1359,89.0,160,160,1.0,78.0
1360,87.0,160,160,1.0,78.0
1361,86.0,160,160,1.0,77.0
1362,72.0,0,720,5.0,77.0
1363,84.0,160,160,1.0,76.0
1364,83.0,160,160,1.0,75.0
1365,84.0,160,160,1.0,75.0
1366,86.0,160,160,1.0,74.0
1367,84.0,160,160,1.0,73.0
1368,82.0,160,160,1.0,72.0
1369,81.0,160,160,1.0,71.0
1370,60.0,0,360,5.0,71.0
1371,79.0,160,160,1.0,71.0
1372,78.0,160,160,1.0,70.0
1373,79.0,160,160,1.0,69.0
1374,81.0,160,160,1.0,68.0
1375,79.0,160,160,1.0,68.0
1376,62.0,0,720,5.0,74.0
1377,78.0,160,160,1.0,67.0
1378,75.0,160,160,1.0,66.0
1379,74.0,160,160,1.0,65.0
1380,72.0,160,160,1.0,64.0
1381,70.0,160,160,1.0,64.0
1382,69.0,0,160,1.0,63.0
1383,50.0,160,240,5.0,70.0
1384,67.0,160,160,1.0,62.0
1385,66.0,160,160,1.0,61.0
1386,48.0,160,240,5.0,66.0
1387,67.0,0,360,1.0,61.0
1388,46.0,240,240,5.0,65.0
1389,45.0,240,240,5.0,64.0
1390,43.0,240,240,5.0,62.0
1391,46.0,240,240,5.0,61.0
1392,45.0,240,240,5.0,59.0
1393,48.0,240,240,5.0,58.0
1394,42.0,240,192,5.0,57.0
1395,55.0,0,128,2.0,57.0
1396,58.0,160,128,2.0,57.0
1397,62.0,160,128,2.0,58.0
1398,43.0,240,480,5.0,57.0
1399,67.0,160,128,2.0,59.0
1400,62.0,160,128,2.0,60.0
1401,38.0,0,360,5.0,52.0
1402,58.0,160,128,2.0,61.0
1403,55.0,160,128,2.0,61.0
1404,58.0,160,128,2.0,62.0
1405,62.0,160,128,2.0,63.0
1406,67.0,0,128,2.0,64.0
1407,46.0,160,240,5.0,64.0
1408,50.0,0,240,4.0,64.0
1409,62.0,160,128,2.0,65.0
1410,58.0,160,128,2.0,65.0
1411,55.0,0,128,2.0,66.0
1412,58.0,160,128,2.0,67.0
1413,62.0,160,128,2.0,68.0
1414,48.0,0,480,4.0,69.0
1415,45.0,160,480,5.0,69.0
1416,67.0,0,128,2.0,69.0
1417,70.0,160,128,2.0,69.0
1418,46.0,160,360,4.0,66.0
1419,43.0,0,360,5.0,66.0
1420,74.0,160,128,2.0,70.0
1421,79.0,160,128,2.0,71.0
1422,74.0,160,128,2.0,72.0
1423,70.0,160,128,2.0,73.0
1424,67.0,160,128,2.0,73.0
1425,50.0,0,240,5.0,73.0
1426,58.0,0,240,4.0,73.0
1427,70.0,160,128,2.0,74.0
1428,74.0,160,128,2.0,75.0
1429,67.0,160,128,2.0,76.0
1430,70.0,160,128,2.0,77.0
1431,74.0,160,128,2.0,77.0
1432,57.0,0,480,4.0,79.0
1433,48.0,0,480,5.0,79.0
1434,79.0,160,128,2.0,78.0
1435,82.0,160,128,2.0,79.0
1436,46.0,0,360,5.0,75.0
1437,55.0,0,360,4.0,75.0
1438,84.0,160,128,2.0,80.0
1439,86.0,160,128,2.0,80.0
1440,84.0,160,128,2.0,81.0
1441,82.0,160,128,2.0,82.0
1442,81.0,0,128,2.0,83.0
1443,62.0,160,240,5.0,90.0
1444,79.0,160,128,2.0,84.0
1445,78.0,160,128,2.0,84.0
1446,70.0,0,160,5.0,86.0
1447,79.0,160,240,1.0,85.0
1448,72.0,160,160,5.0,85.0
1449,70.0,160,160,5.0,85.0
1450,81.0,160,80,1.0,77.0
1451,69.0,0,160,5.0,84.0
1452,82.0,80,80,1.0,77.0
1453,81.0,0,80,1.0,78.0
1454,67.0,80,160,5.0,84.0
1455,79.0,80,120,1.0,78.0
1456,66.0,80,160,5.0,83.0
1457,81.0,40,120,1.0,79.0
1458,67.0,120,160,5.0,83.0
1459,69.0,160,160,5.0,82.0
1460,67.0,160,160,5.0,82.0
1461,65.0,0,160,5.0,81.0
1462,64.0,160,160,5.0,80.0
1463,74.0,160,360,2.0,79.0
1464,62.0,160,160,5.0,80.0
1465,61.0,160,160,5.0,79.0
1466,62.0,160,160,5.0,79.0
1467,82.0,0,1327,1.0,80.0
1468,64.0,160,160,5.0,78.0
1469,76.0,0,630,2.0,77.0
1470,62.0,0,160,5.0,78.0
1471,61.0,160,160,5.0,77.0
1472,80.0,160,360,1.0,76.0
1473,74.0,80,187,2.0,75.0
1474,58.0,80,160,5.0,77.0
1475,57.0,0,160,5.0,76.0
1476,55.0,160,160,5.0,75.0
1477,73.0,160,352,2.0,74.0
1478,81.0,0,360,1.0,74.0
1479,53.0,160,160,5.0,75.0
1480,52.0,160,160,5.0,74.0
1481,50.0,160,160,5.0,74.0
1482,79.0,0,360,1.0,73.0
1483,76.0,0,367,2.0,73.0
1484,49.0,160,160,5.0,73.0
1485,53.0,160,128,4.0,72.0
1486,77.0,160,360,1.0,71.0
1487,50.0,0,360,5.0,73.0
1488,57.0,160,128,4.0,72.0
1489,52.0,160,128,4.0,70.0
1490,76.0,160,360,1.0,70.0
1491,48.0,0,360,5.0,71.0
1492,69.0,0,840,2.0,71.0
1493,57.0,160,128,4.0,70.0
1494,50.0,160,128,4.0,69.0
1495,65.0,0,352,2.0,69.0
1496,47.0,160,360,5.0,69.0
1497,57.0,160,128,4.0,68.0
1498,50.0,160,128,4.0,67.0
1499,74.0,0,832,1.0,69.0
1500,62.0,0,360,2.0,67.0
1501,46.0,160,360,5.0,68.0
1502,56.0,160,128,4.0,67.0
1503,73.0,0,160,1.0,68.0
1504,69.0,160,160,1.0,68.0
1505,73.0,160,160,1.0,69.0
1506,76.0,160,160,1.0,69.0
1507,57.0,160,720,4.0,66.0
1508,45.0,0,720,5.0,66.0
1509,81.0,160,160,1.0,69.0
1510,85.0,160,160,1.0,70.0
1511,88.0,160,160,1.0,70.0
1512,86.0,160,160,1.0,71.0
1513,85.0,160,160,1.0,71.0
1514,82.0,160,160,1.0,71.0
1515,81.0,160,160,1.0,72.0
1516,79.0,160,160,1.0,72.0
1517,50.0,160,160,5.0,73.0
1518,53.0,160,160,5.0,73.0
1519,57.0,160,160,5.0,74.0
1520,77.0,160,720,1.0,73.0
1521,62.0,160,160,5.0,74.0
1522,65.0,160,160,5.0,75.0
1523,69.0,160,160,5.0,75.0
1524,67.0,160,160,5.0,75.0
1525,65.0,160,160,5.0,76.0
1526,64.0,0,160,5.0,76.0
1527,65.0,160,160,5.0,77.0
1528,86.0,0,360,1.0,76.0
1529,77.0,160,360,2.0,76.0
1530,62.0,160,160,5.0,77.0
1531,85.0,160,128,1.0,77.0
1532,76.0,0,128,2.0,77.0
1533,69.0,160,160,1.0,78.0
1534,73.0,160,160,1.0,78.0
1535,76.0,160,160,1.0,79.0
1536,57.0,0,720,5.0,77.0
1537,81.0,160,160,1.0,79.0
1538,85.0,160,160,1.0,79.0
1539,88.0,160,160,1.0,80.0
1540,86.0,160,160,1.0,80.0
1541,85.0,160,160,1.0,80.0
1542,82.0,160,160,1.0,81.0
1543,81.0,160,160,1.0,81.0
1544,79.0,160,160,1.0,82.0
1545,50.0,160,160,5.0,82.0
1546,53.0,160,160,5.0,83.0
1547,57.0,160,160,5.0,83.0
1548,77.0,160,720,1.0,82.0
1549,62.0,160,160,5.0,84.0
1550,65.0,160,160,5.0,84.0
1551,69.0,160,160,5.0,84.0
1552,67.0,160,160,5.0,85.0
1553,65.0,160,160,5.0,85.0
1554,64.0,0,160,5.0,86.0
1555,65.0,160,160,5.0,86.0
1556,77.0,160,360,2.0,86.0
1557,86.0,0,360,1.0,86.0
1558,62.0,160,160,5.0,86.0
1559,76.0,0,128,2.0,87.0
1560,85.0,160,240,1.0,87.0
1561,81.0,160,128,2.0,86.0
1562,76.0,160,128,2.0,86.0
1563,73.0,160,240,1.0,85.0
1564,57.0,0,720,5.0,87.0
1565,76.0,160,128,2.0,85.0
1566,73.0,160,128,2.0,84.0
1567,69.0,160,240,1.0,84.0
1568,73.0,160,128,2.0,83.0
1569,69.0,160,128,2.0,82.0
1570,64.0,160,240,1.0,82.0
1571,69.0,160,128,2.0,81.0
1572,64.0,160,128,2.0,81.0
1573,61.0,160,240,1.0,80.0
1574,64.0,160,128,2.0,80.0
1575,61.0,160,128,2.0,79.0
1576,57.0,160,240,1.0,78.0
1577,61.0,160,128,2.0,78.0
1578,57.0,160,128,2.0,77.0
1579,52.0,160,240,1.0,77.0
1580,57.0,160,128,2.0,76.0
1581,52.0,160,128,2.0,76.0
1582,49.0,160,240,1.0,75.0
1583,52.0,160,128,2.0,74.0
1584,49.0,160,128,2.0,74.0
1585,45.0,0,128,1.0,77.0
1586,33.0,160,128,5.0,77.0
1587,49.0,160,128,1.0,77.0
1588,37.0,0,128,5.0,77.0
1589,52.0,160,128,1.0,78.0
1590,40.0,0,128,5.0,78.0
1591,57.0,0,128,1.0,79.0
1592,45.0,160,128,5.0,79.0
1593,52.0,0,128,1.0,79.0
1594,40.0,160,128,5.0,79.0
1595,37.0,0,128,5.0,80.0
1596,49.0,160,128,1.0,80.0
1597,33.0,160,128,5.0,81.0
1598,45.0,0,128,1.0,81.0
1599,37.0,0,128,5.0,81.0
1600,49.0,160,128,1.0,81.0
1601,52.0,0,128,1.0,82.0
1602,40.0,160,128,5.0,82.0
1603,57.0,160,128,1.0,83.0
1604,45.0,0,128,5.0,83.0
1605,52.0,160,128,1.0,83.0
1606,40.0,0,128,5.0,83.0
1607,49.0,160,128,1.0,84.0
1608,37.0,0,128,5.0,84.0
1609,45.0,160,128,1.0,85.0
1610,33.0,0,128,5.0,85.0
1611,37.0,0,128,5.0,85.0
1612,49.0,160,128,1.0,85.0
1613,40.0,160,128,5.0,86.0
1614,52.0,0,128,1.0,86.0
1615,45.0,0,128,5.0,87.0
1616,57.0,160,128,1.0,87.0
1617,49.0,0,128,5.0,87.0
1618,61.0,160,128,1.0,87.0
1619,64.0,160,128,1.0,88.0
1620,52.0,0,128,5.0,88.0
1621,57.0,0,128,5.0,89.0
1622,69.0,160,128,1.0,89.0
1623,52.0,0,128,5.0,90.0
1624,64.0,160,128,1.0,90.0
1625,61.0,0,128,1.0,90.0
1626,49.0,160,128,5.0,90.0
1627,57.0,160,128,1.0,91.0
1628,45.0,0,128,5.0,91.0
1629,49.0,0,128,5.0,92.0
1630,61.0,160,128,1.0,92.0
1631,64.0,160,128,1.0,92.0
1632,52.0,0,128,5.0,92.0
1633,45.0,0,128,5.0,93.0
1634,57.0,160,128,1.0,93.0
1635,61.0,160,128,1.0,94.0
1636,49.0,0,128,5.0,94.0
1637,52.0,0,128,5.0,94.0
1638,64.0,160,128,1.0,94.0
1639,69.0,0,128,1.0,95.0
1640,57.0,160,128,5.0,95.0
1641,61.0,0,128,5.0,96.0
1642,73.0,160,128,1.0,96.0
1643,76.0,160,128,1.0,96.0
1644,64.0,0,128,5.0,96.0
1645,69.0,160,128,5.0,97.0
1646,81.0,0,128,1.0,97.0
1647,76.0,160,128,1.0,98.0
1648,64.0,0,128,5.0,98.0
1649,73.0,0,128,1.0,98.0
1650,61.0,160,128,5.0,98.0
1651,57.0,160,128,5.0,99.0
1652,69.0,0,128,1.0,99.0
1653,73.0,0,128,1.0,100.0
1654,61.0,160,128,5.0,100.0
1655,76.0,0,128,1.0,100.0
1656,64.0,160,128,5.0,100.0
1657,69.0,160,240,5.0,101.0
1658,81.0,0,240,1.0,101.0
1659,45.0,0,240,5.0,92.0
1660,57.0,480,240,4.0,92.0
1661,69.0,0,240,1.0,92.0
1662,61.0,0,480,4.0,53.0
1663,57.0,480,480,5.0,53.0
1664,81.0,480,1120,1.0,67.0
1665,59.0,0,240,5.0,47.0
1666,62.0,480,240,4.0,47.0
1667,82.0,160,160,1.0,57.0
1668,81.0,160,160,1.0,56.0
1669,79.0,0,160,1.0,55.0
1670,61.0,0,240,5.0,47.0
1671,64.0,160,240,4.0,47.0
1672,81.0,160,160,1.0,55.0
1673,79.0,160,160,1.0,54.0
1674,77.0,160,160,1.0,53.0
1675,65.0,0,240,4.0,47.0
1676,62.0,0,240,5.0,47.0
1677,79.0,160,160,1.0,52.0
1678,77.0,160,160,1.0,51.0
1679,76.0,0,160,1.0,50.0
1680,64.0,0,240,5.0,48.0
1681,67.0,160,240,4.0,48.0
1682,77.0,160,160,1.0,50.0
1683,76.0,160,160,1.0,49.0
1684,74.0,0,240,1.0,48.0
1685,69.0,160,240,4.0,48.0
1686,65.0,0,240,5.0,48.0
1687,50.0,0,240,5.0,64.0
1688,74.0,480,480,1.0,49.0
1689,73.0,0,480,2.0,49.0
1690,76.0,0,480,1.0,49.0
1691,78.0,0,480,1.0,50.0
1692,72.0,480,480,2.0,50.0
1693,62.0,480,1120,5.0,68.0
1694,79.0,0,240,1.0,50.0
1695,70.0,480,240,2.0,50.0
1696,63.0,160,160,5.0,61.0
1697,62.0,160,160,5.0,61.0
1698,60.0,160,160,5.0,60.0
1699,81.0,0,240,1.0,51.0
1700,78.0,0,240,2.0,51.0
1701,62.0,160,160,5.0,59.0
1702,60.0,160,160,5.0,58.0
1703,58.0,0,160,5.0,57.0
1704,79.0,160,240,2.0,51.0
1705,82.0,0,240,1.0,51.0
1706,60.0,160,160,5.0,56.0
1707,58.0,160,160,5.0,55.0
1708,57.0,0,160,5.0,54.0
1709,84.0,0,240,1.0,51.0
1710,78.0,160,240,2.0,51.0
1711,58.0,160,160,5.0,53.0
1712,57.0,160,160,5.0,52.0
1713,55.0,160,240,5.0,51.0
1714,82.0,0,240,1.0,52.0
1715,79.0,0,240,2.0,52.0
1716,67.0,480,240,5.0,48.0
1717,59.0,0,480,5.0,60.0
1718,62.0,480,480,4.0,60.0
1719,79.0,480,1120,1.0,70.0
1720,64.0,480,240,5.0,54.0
1721,60.0,0,240,5.0,54.0
1722,81.0,160,160,1.0,62.0
1723,79.0,160,160,1.0,62.0
1724,77.0,160,160,1.0,61.0
1725,62.0,0,240,5.0,54.0
1726,65.0,0,240,4.0,54.0
1727,79.0,160,160,1.0,61.0
1728,77.0,160,160,1.0,60.0
1729,76.0,0,160,1.0,60.0
1730,67.0,0,240,4.0,55.0
1731,64.0,160,240,5.0,55.0
1732,77.0,160,160,1.0,59.0
1733,76.0,160,160,1.0,59.0
1734,74.0,160,160,1.0,58.0
1735,65.0,0,240,5.0,55.0
1736,69.0,0,240,4.0,55.0
1737,76.0,160,160,1.0,57.0
1738,74.0,160,160,1.0,57.0
1739,64.0,0,240,5.0,55.0
1740,67.0,0,240,4.0,55.0
1741,72.0,160,240,1.0,56.0
1742,48.0,0,240,5.0,70.0
1743,69.0,0,240,2.0,57.0
1744,72.0,480,480,1.0,56.0
1745,71.0,0,480,2.0,56.0
1746,74.0,0,480,1.0,56.0
1747,76.0,480,480,1.0,57.0
1748,70.0,0,480,2.0,57.0
1749,60.0,480,1120,5.0,72.0
1750,77.0,480,240,1.0,57.0
1751,62.0,160,160,5.0,66.0
1752,60.0,160,160,5.0,65.0
1753,58.0,160,160,5.0,65.0
1754,79.0,0,240,1.0,58.0
1755,76.0,0,240,2.0,58.0
1756,60.0,160,160,5.0,64.0
1757,58.0,160,160,5.0,63.0
1758,57.0,160,160,5.0,62.0
1759,81.0,0,240,1.0,58.0
1760,77.0,0,240,2.0,58.0
1761,58.0,160,160,5.0,62.0
1762,57.0,160,160,5.0,61.0
1763,55.0,0,160,5.0,60.0
1764,76.0,160,240,2.0,59.0
1765,82.0,0,240,1.0,59.0
1766,57.0,160,160,5.0,59.0
1767,55.0,160,160,5.0,59.0
1768,77.0,0,240,2.0,59.0
1769,53.0,160,240,5.0,58.0
1770,81.0,0,240,1.0,59.0
1771,65.0,480,240,1.0,59.0
1772,46.0,480,240,5.0,68.0
1773,77.0,480,1120,1.0,76.0
1774,79.0,160,160,1.0,69.0
1775,77.0,160,160,1.0,68.0
1776,75.0,160,160,1.0,67.0
1777,77.0,160,160,1.0,67.0
1778,75.0,160,160,1.0,66.0
1779,74.0,160,160,1.0,66.0
1780,58.0,480,1120,5.0,75.0
1781,60.0,0,160,5.0,69.0
1782,75.0,160,160,1.0,65.0
1783,74.0,0,160,1.0,64.0
1784,58.0,160,160,5.0,68.0
1785,57.0,0,160,5.0,68.0
1786,72.0,160,160,1.0,64.0
1787,74.0,160,160,1.0,63.0
1788,58.0,0,160,5.0,67.0
1789,72.0,160,160,1.0,62.0
1790,57.0,0,160,5.0,66.0
1791,55.0,160,160,5.0,65.0
1792,70.0,0,240,1.0,62.0
1793,57.0,160,160,5.0,64.0
1794,55.0,160,160,5.0,63.0
1795,53.0,160,160,5.0,63.0
1796,70.0,0,240,1.0,63.0
1797,55.0,160,160,5.0,62.0
1798,53.0,160,160,5.0,61.0
1799,52.0,0,240,5.0,60.0
1800,48.0,480,240,5.0,59.0
1801,82.0,160,1120,1.0,79.0
1802,84.0,160,160,1.0,72.0
1803,82.0,160,160,1.0,72.0
1804,81.0,160,160,1.0,71.0
1805,82.0,160,160,1.0,70.0
1806,81.0,160,160,1.0,70.0
1807,70.0,480,1120,5.0,75.0
1808,79.0,160,160,1.0,69.0
1809,81.0,0,160,1.0,69.0
1810,72.0,160,160,5.0,72.0
1811,79.0,160,160,1.0,68.0
1812,70.0,0,160,5.0,71.0
1813,69.0,0,160,5.0,71.0
1814,77.0,160,160,1.0,67.0
1815,79.0,160,160,1.0,67.0
1816,70.0,0,160,5.0,71.0
1817,77.0,0,160,1.0,66.0
1818,69.0,160,160,5.0,70.0
1819,76.0,160,160,1.0,66.0
1820,67.0,0,160,5.0,70.0
1821,69.0,160,160,5.0,69.0
1822,74.0,0,160,1.0,66.0
1823,67.0,0,160,5.0,69.0
1824,76.0,160,160,1.0,66.0
1825,77.0,160,160,1.0,67.0
1826,65.0,0,160,5.0,68.0
1827,67.0,0,160,5.0,68.0
1828,76.0,160,160,1.0,67.0
1829,65.0,0,160,5.0,67.0
1830,77.0,160,160,1.0,67.0
1831,64.0,0,160,5.0,67.0
1832,79.0,160,160,1.0,67.0
1833,65.0,160,160,5.0,66.0
1834,77.0,0,160,1.0,67.0
1835,79.0,0,160,1.0,67.0
1836,64.0,160,160,5.0,66.0
1837,62.0,0,160,5.0,65.0
1838,81.0,160,160,1.0,67.0
1839,79.0,160,160,1.0,68.0
1840,64.0,0,160,5.0,65.0
1841,81.0,0,160,1.0,68.0
1842,62.0,160,160,5.0,64.0
1843,82.0,0,160,1.0,68.0
1844,84.0,160,160,1.0,68.0
1845,82.0,160,160,1.0,68.0
1846,64.0,0,480,4.0,64.0
1847,81.0,160,160,1.0,68.0
1848,82.0,160,160,1.0,68.0
1849,81.0,160,160,1.0,69.0
1850,65.0,0,480,4.0,68.0
1851,79.0,160,160,1.0,69.0
1852,81.0,160,160,1.0,69.0
1853,79.0,160,160,1.0,69.0
1854,67.0,0,480,4.0,69.0
1855,77.0,160,160,1.0,69.0
1856,79.0,160,160,1.0,69.0
1857,69.0,0,480,4.0,69.0
1858,60.0,160,0,5.0,70.0
1859,77.0,160,160,1.0,70.0
1860,76.0,0,160,1.0,70.0
1861,74.0,160,160,1.0,70.0
1862,70.0,0,480,4.0,70.0
1863,76.0,160,160,1.0,70.0
1864,77.0,0,160,1.0,70.0
1865,76.0,160,160,1.0,70.0
1866,77.0,160,160,1.0,70.0
1867,69.0,160,480,4.0,70.0
1868,79.0,160,160,1.0,71.0
1869,77.0,160,160,1.0,71.0
1870,67.0,0,480,4.0,71.0
1871,79.0,160,160,1.0,71.0
1872,81.0,0,160,1.0,71.0
1873,79.0,160,160,1.0,71.0
1874,65.0,160,480,4.0,71.0
1875,81.0,160,160,1.0,71.0
1876,60.0,0,0,5.0,71.0
1877,82.0,160,240,1.0,71.0
1878,82.0,160,160,2.0,71.0
1879,79.0,160,160,2.0,70.0
1880,64.0,0,720,4.0,71.0
1881,76.0,160,240,1.0,70.0
1882,79.0,160,160,2.0,69.0
1883,76.0,160,160,2.0,69.0
1884,70.0,160,240,1.0,68.0
1885,76.0,160,160,2.0,68.0
1886,70.0,160,160,2.0,67.0
1887,67.0,160,240,1.0,67.0
1888,70.0,160,160,2.0,66.0
1889,67.0,160,160,2.0,66.0
1890,64.0,160,240,1.0,65.0
1891,67.0,160,160,2.0,65.0
1892,64.0,160,160,2.0,64.0
1893,58.0,160,240,1.0,64.0
1894,64.0,160,160,2.0,63.0
1895,58.0,160,160,2.0,63.0
1896,55.0,160,240,1.0,62.0
1897,58.0,160,160,2.0,62.0
1898,55.0,160,160,2.0,61.0
1899,52.0,160,240,1.0,61.0
1900,55.0,160,160,2.0,60.0
1901,52.0,160,160,2.0,64.0
1902,36.0,0,160,5.0,65.0
1903,48.0,160,160,1.0,65.0
1904,52.0,160,160,1.0,67.0
1905,40.0,0,160,5.0,67.0
1906,55.0,160,160,1.0,68.0
1907,43.0,0,160,5.0,68.0
1908,58.0,160,160,1.0,69.0
1909,46.0,0,160,5.0,69.0
1910,43.0,0,160,5.0,70.0
1911,55.0,160,160,1.0,70.0
1912,40.0,0,160,5.0,72.0
1913,52.0,160,160,1.0,72.0
1914,36.0,160,160,5.0,73.0
1915,48.0,0,160,1.0,73.0
1916,52.0,0,160,1.0,74.0
1917,40.0,160,160,5.0,74.0
1918,43.0,160,160,5.0,76.0
1919,55.0,0,160,1.0,76.0
1920,46.0,0,160,5.0,77.0
1921,58.0,160,160,1.0,77.0
1922,43.0,0,160,5.0,78.0
1923,55.0,160,160,1.0,78.0
1924,52.0,0,160,1.0,79.0
1925,40.0,160,160,5.0,79.0
1926,36.0,160,160,5.0,81.0
1927,48.0,0,160,1.0,81.0
1928,52.0,0,160,1.0,82.0
1929,40.0,160,160,5.0,82.0
1930,43.0,160,160,5.0,83.0
1931,55.0,0,160,1.0,83.0
1932,48.0,0,160,5.0,85.0
1933,60.0,160,160,1.0,85.0
1934,52.0,160,160,5.0,86.0
1935,64.0,0,160,1.0,86.0
1936,67.0,0,160,1.0,87.0
1937,55.0,160,160,5.0,87.0
1938,70.0,0,160,1.0,88.0
1939,58.0,160,160,5.0,88.0
1940,55.0,0,160,5.0,90.0
1941,67.0,160,160,1.0,90.0
1942,52.0,160,160,5.0,91.0
1943,64.0,0,160,1.0,91.0
1944,48.0,0,160,5.0,92.0
1945,60.0,160,160,1.0,92.0
1946,64.0,160,160,1.0,94.0
1947,52.0,0,160,5.0,94.0
1948,55.0,160,160,5.0,95.0
1949,67.0,0,160,1.0,95.0
1950,60.0,160,160,1.0,96.0
1951,48.0,0,160,5.0,96.0
1952,52.0,160,160,5.0,97.0
1953,64.0,0,160,1.0,97.0
1954,67.0,160,160,1.0,99.0
1955,55.0,0,160,5.0,99.0
1956,60.0,0,160,5.0,100.0
1957,72.0,160,160,1.0,100.0
1958,64.0,160,160,5.0,101.0
1959,76.0,0,160,1.0,101.0
1960,79.0,0,160,1.0,103.0
1961,67.0,160,160,5.0,103.0
1962,70.0,0,160,5.0,104.0
1963,82.0,160,160,1.0,104.0
1964,79.0,0,160,1.0,105.0
1965,67.0,160,160,5.0,105.0
1966,64.0,0,160,5.0,106.0
1967,76.0,160,160,1.0,106.0
1968,60.0,160,160,5.0,108.0
1969,72.0,0,160,1.0,108.0
1970,76.0,0,160,1.0,109.0
1971,64.0,160,160,5.0,109.0
1972,79.0,160,160,1.0,110.0
1973,67.0,0,160,5.0,110.0
1974,82.0,160,360,1.0,112.0
1975,70.0,0,360,5.0,112.0
1976,64.0,0,360,2.0,97.0
1977,67.0,480,360,2.0,97.0
1978,48.0,0,360,5.0,107.0
1979,70.0,0,360,1.0,97.0
1980,72.0,960,240,1.0,55.0
1981,70.0,480,206,1.0,49.0
1982,69.0,240,206,1.0,48.0
1983,67.0,240,206,1.0,47.0
1984,65.0,240,206,1.0,46.0
1985,69.0,240,206,1.0,45.0
1986,67.0,240,206,1.0,45.0
1987,70.0,240,206,1.0,44.0
1988,64.0,240,192,1.0,43.0
1989,65.0,240,240,1.0,42.0
1990,60.0,480,240,1.0,40.0
1991,72.0,480,720,1.0,59.0
1992,70.0,960,240,1.0,50.0
1993,69.0,240,240,1.0,49.0
1994,67.0,240,240,1.0,48.0
1995,65.0,240,240,1.0,47.0
1996,69.0,240,240,1.0,46.0
1997,67.0,240,240,1.0,45.0
1998,70.0,240,240,1.0,44.0
1999,64.0,240,192,1.0,43.0
2000,57.0,240,240,3.0,44.0
2001,60.0,240,240,3.0,45.0
2002,57.0,240,240,3.0,46.0
2003,60.0,240,240,3.0,47.0
2004,57.0,240,240,3.0,47.0
2005,60.0,240,240,3.0,48.0
2006,57.0,240,240,3.0,49.0
2007,53.0,0,1860,5.0,44.0
2008,65.0,0,1860,1.0,44.0
2009,60.0,240,192,3.0,50.0
2010,66.0,0,240,1.0,51.0
2011,58.0,0,240,3.0,51.0
2012,67.0,240,240,1.0,52.0
2013,60.0,0,240,3.0,52.0
2014,69.0,240,240,1.0,53.0
2015,58.0,0,240,3.0,53.0
2016,70.0,240,240,1.0,55.0
2017,60.0,0,240,3.0,55.0
2018,72.0,240,240,1.0,56.0
2019,58.0,0,240,3.0,56.0
2020,60.0,240,240,3.0,57.0
2021,73.0,0,240,1.0,57.0
2022,58.0,240,240,3.0,59.0
2023,74.0,0,240,1.0,59.0
2024,53.0,240,1860,5.0,51.0
2025,60.0,240,192,3.0,60.0
2026,76.0,0,192,1.0,60.0
2027,79.0,0,240,1.0,61.0
2028,57.0,240,240,3.0,61.0
2029,77.0,240,240,1.0,59.0
2030,60.0,0,240,3.0,59.0
2031,76.0,0,240,1.0,58.0
2032,57.0,240,240,3.0,58.0
2033,74.0,240,192,1.0,57.0
2034,60.0,0,240,3.0,57.0
2035,57.0,240,240,3.0,56.0
2036,74.0,0,240,1.0,56.0
2037,72.0,0,240,1.0,54.0
2038,60.0,240,240,3.0,54.0
2039,70.0,240,240,1.0,53.0
2040,57.0,0,240,3.0,53.0
2041,53.0,0,1867,5.0,61.0
2042,69.0,0,192,1.0,52.0
2043,60.0,240,192,3.0,52.0
2044,58.0,0,240,3.0,51.0
2045,67.0,0,330,1.0,51.0
2046,60.0,240,240,3.0,49.0
2047,69.0,120,120,1.0,49.0
2048,58.0,120,240,3.0,48.0
2049,67.0,0,240,1.0,48.0
2050,60.0,240,240,3.0,47.0
2051,66.0,0,240,1.0,47.0
2052,58.0,0,240,3.0,46.0
2053,60.0,240,240,3.0,44.0
2054,67.0,240,480,1.0,46.0
2055,58.0,240,240,3.0,43.0
2056,72.0,0,427,1.0,43.0
2057,60.0,240,192,3.0,42.0
2058,53.0,0,1875,5.0,51.0
2059,64.0,240,1875,2.0,51.0
2060,65.0,240,720,1.0,41.0
2061,57.0,0,720,3.0,41.0
2062,53.0,0,720,5.0,41.0
2063,60.0,1440,240,5.0,62.0
2064,58.0,480,240,5.0,60.0
2065,56.0,240,240,5.0,59.0
2066,55.0,240,240,5.0,58.0
2067,53.0,240,240,5.0,57.0
2068,56.0,240,240,5.0,56.0
2069,55.0,240,240,5.0,55.0
2070,58.0,240,240,5.0,53.0
2071,52.0,240,192,5.0,52.0
2072,53.0,240,240,5.0,51.0
2073,48.0,480,240,5.0,49.0
2074,80.0,480,720,1.0,68.0
2075,68.0,0,720,2.0,68.0
2076,63.0,0,480,4.0,63.0
2077,60.0,480,480,5.0,63.0
2078,78.0,480,240,1.0,62.0
2079,61.0,0,360,5.0,58.0
2080,65.0,0,360,4.0,58.0
2081,77.0,240,240,1.0,61.0
2082,75.0,240,240,1.0,60.0
2083,73.0,240,240,1.0,59.0
2084,77.0,240,240,1.0,59.0
2085,75.0,240,240,1.0,58.0
2086,78.0,0,240,1.0,57.0
2087,72.0,240,192,1.0,56.0
2088,66.0,0,480,5.0,57.0
2089,73.0,240,240,1.0,56.0
2090,65.0,0,360,5.0,53.0
2091,68.0,240,840,4.0,57.0
2092,68.0,480,240,1.0,54.0
2093,53.0,480,720,5.0,77.0
2094,81.0,480,480,1.0,73.0
2095,72.0,0,480,2.0,73.0
2096,51.0,480,240,5.0,72.0
2097,82.0,0,360,1.0,68.0
2098,73.0,0,360,2.0,68.0
2099,49.0,240,240,5.0,72.0
2100,48.0,240,240,5.0,72.0
2101,46.0,240,240,5.0,72.0
2102,49.0,240,240,5.0,71.0
2103,48.0,240,240,5.0,71.0
2104,51.0,0,240,5.0,71.0
2105,45.0,240,240,5.0,71.0
2106,84.0,240,480,1.0,71.0
2107,48.0,240,240,5.0,71.0
2108,46.0,240,240,5.0,70.0
2109,77.0,0,960,2.0,71.0
2110,49.0,240,240,5.0,70.0
2111,85.0,0,960,1.0,71.0
2112,43.0,240,240,5.0,70.0
2113,46.0,240,240,5.0,70.0
2114,44.0,240,240,5.0,69.0
2115,82.0,0,967,2.0,70.0
2116,48.0,0,240,5.0,69.0
2117,84.0,0,952,1.0,70.0
2118,41.0,240,240,5.0,69.0
2119,44.0,0,240,5.0,69.0
2120,43.0,240,240,5.0,68.0
2121,80.0,240,967,2.0,69.0
2122,46.0,240,240,5.0,68.0
2123,40.0,240,240,5.0,68.0
2124,79.0,0,480,2.0,68.0
2125,41.0,240,240,5.0,68.0
2126,82.0,240,1222,1.0,69.0
2127,80.0,240,240,1.0,68.0
2128,84.0,240,240,1.0,68.0
2129,77.0,240,240,1.0,69.0
2130,56.0,0,480,5.0,68.0
2131,80.0,240,240,1.0,69.0
2132,58.0,0,480,5.0,69.0
2133,78.0,240,240,1.0,69.0
2134,82.0,0,240,1.0,69.0
2135,75.0,240,240,1.0,70.0
2136,60.0,240,480,5.0,69.0
2137,78.0,240,240,1.0,70.0
2138,61.0,0,360,5.0,70.0
2139,77.0,240,240,1.0,70.0
2140,80.0,0,240,1.0,70.0
2141,53.0,240,480,5.0,70.0
2142,73.0,240,240,1.0,71.0
2143,77.0,0,240,1.0,71.0
2144,75.0,240,240,1.0,71.0
2145,55.0,240,480,5.0,71.0
2146,78.0,240,240,1.0,71.0
2147,57.0,0,480,5.0,71.0
2148,72.0,240,240,1.0,72.0
2149,75.0,240,240,1.0,72.0
2150,58.0,0,360,5.0,72.0
2151,73.0,240,240,1.0,72.0
2152,77.0,0,240,1.0,72.0
2153,55.0,240,360,5.0,72.0
2154,70.0,240,240,1.0,73.0
2155,73.0,0,240,1.0,73.0
2156,63.0,0,840,4.0,72.0
2157,56.0,240,360,5.0,73.0
2158,72.0,240,240,1.0,73.0
2159,75.0,0,240,1.0,73.0
2160,53.0,0,352,5.0,73.0
2161,68.0,240,240,1.0,74.0
2162,72.0,0,240,1.0,74.0
2163,55.0,240,360,5.0,74.0
2164,61.0,240,840,4.0,73.0
2165,70.0,240,240,1.0,74.0
2166,73.0,0,240,1.0,74.0
2167,52.0,240,360,5.0,74.0
2168,60.0,0,360,4.0,74.0
2169,67.0,240,192,1.0,75.0
2170,70.0,240,240,1.0,77.0
2171,68.0,240,240,1.0,75.0
2172,67.0,240,240,1.0,74.0
2173,60.0,0,360,4.0,75.0
2174,56.0,0,360,4.0,75.0
2175,65.0,240,192,1.0,72.0
2176,53.0,0,960,5.0,75.0
2177,70.0,240,240,1.0,79.0
2178,68.0,240,240,1.0,77.0
2179,67.0,240,240,1.0,75.0
2180,53.0,0,360,4.0,76.0
2181,56.0,0,360,4.0,76.0
2182,65.0,240,192,1.0,73.0
2183,51.0,0,960,5.0,76.0
2184,70.0,0,240,1.0,79.0
2185,68.0,240,240,1.0,78.0
2186,67.0,240,240,1.0,76.0
2187,53.0,0,360,4.0,77.0
2188,56.0,0,360,4.0,77.0
2189,65.0,240,240,1.0,75.0
2190,49.0,240,960,5.0,77.0
2191,70.0,240,240,1.0,79.0
2192,68.0,240,240,1.0,78.0
2193,67.0,0,240,1.0,77.0
2194,56.0,0,360,4.0,78.0
2195,53.0,240,360,4.0,78.0
2196,65.0,240,240,1.0,76.0
2197,48.0,0,960,5.0,78.0
2198,77.0,240,240,1.0,79.0
2199,56.0,0,240,4.0,79.0
2200,53.0,0,240,4.0,79.0
2201,47.0,0,240,5.0,79.0
2202,70.0,960,240,1.0,81.0
2203,68.0,240,240,1.0,80.0
2204,48.0,0,240,5.0,80.0
2205,67.0,240,240,1.0,79.0
2206,53.0,0,240,4.0,80.0
2207,56.0,0,240,4.0,80.0
2208,65.0,240,240,1.0,78.0
2209,53.0,240,240,4.0,81.0
2210,80.0,0,240,1.0,81.0
2211,59.0,0,240,4.0,81.0
2212,49.0,0,240,5.0,81.0
2213,71.0,960,240,1.0,82.0
2214,65.0,0,240,2.0,82.0
2215,37.0,0,240,5.0,82.0
2216,49.0,0,240,5.0,82.0
2217,36.0,0,240,5.0,83.0
2218,48.0,960,240,5.0,83.0
2219,64.0,0,240,2.0,83.0
2220,72.0,0,240,1.0,83.0
2221,72.0,960,1128,1.0,64.0
2222,74.0,1120,160,1.0,57.0
2223,72.0,160,160,1.0,56.0
2224,70.0,160,160,1.0,55.0
2225,72.0,160,160,1.0,55.0
2226,70.0,160,160,1.0,54.0
2227,69.0,160,160,1.0,53.0
2228,70.0,160,160,1.0,53.0
2229,69.0,160,160,1.0,52.0
2230,67.0,160,160,1.0,51.0
2231,69.0,160,160,1.0,51.0
2232,67.0,160,160,1.0,50.0
2233,65.0,0,240,1.0,50.0
2234,57.0,160,360,5.0,48.0
2235,60.0,240,240,3.0,48.0
2236,64.0,0,80,1.0,45.0
2237,65.0,80,80,1.0,45.0
2238,64.0,80,80,1.0,46.0
2239,62.0,0,120,1.0,47.0
2240,58.0,240,360,5.0,49.0
2241,64.0,120,120,1.0,48.0
2242,60.0,80,240,3.0,50.0
2243,65.0,120,240,1.0,50.0
2244,57.0,0,360,5.0,50.0
2245,60.0,240,240,3.0,51.0
2246,67.0,240,80,1.0,47.0
2247,69.0,80,80,1.0,48.0
2248,67.0,80,80,1.0,49.0
2249,52.0,0,360,5.0,51.0
2250,65.0,80,120,1.0,50.0
2251,67.0,120,120,1.0,51.0
2252,60.0,0,240,3.0,52.0
2253,69.0,0,240,1.0,52.0
2254,53.0,120,360,5.0,52.0
2255,60.0,240,240,3.0,53.0
2256,70.0,0,80,1.0,50.0
2257,72.0,80,80,1.0,51.0
2258,70.0,80,80,1.0,52.0
2259,50.0,240,360,5.0,54.0
2260,69.0,0,120,1.0,52.0
2261,53.0,80,240,3.0,54.0
2262,70.0,120,120,1.0,53.0
2263,72.0,0,240,1.0,55.0
2264,45.0,120,360,5.0,55.0
2265,53.0,240,240,3.0,55.0
2266,74.0,240,240,1.0,56.0
2267,46.0,0,360,5.0,56.0
2268,58.0,240,240,3.0,56.0
2269,57.0,240,480,3.0,57.0
2270,65.0,0,480,1.0,57.0
2271,64.0,480,240,1.0,49.0
2272,55.0,0,360,3.0,49.0
2273,48.0,0,840,5.0,57.0
2274,50.0,0,480,5.0,60.0
2275,54.0,480,480,4.0,60.0
2276,74.0,480,1105,1.0,72.0
2277,52.0,480,240,5.0,53.0
2278,55.0,0,240,4.0,53.0
2279,75.0,160,160,1.0,62.0
2280,74.0,160,160,1.0,62.0
2281,72.0,0,160,1.0,61.0
2282,54.0,160,240,5.0,54.0
2283,57.0,0,240,4.0,54.0
2284,74.0,160,160,1.0,61.0
2285,72.0,160,160,1.0,60.0
2286,70.0,0,160,1.0,60.0
2287,58.0,0,240,4.0,56.0
2288,55.0,160,240,5.0,56.0
2289,72.0,160,160,1.0,60.0
2290,70.0,160,160,1.0,59.0
2291,69.0,0,160,1.0,59.0
2292,60.0,0,240,4.0,57.0
2293,57.0,160,240,5.0,57.0
2294,70.0,160,160,1.0,58.0
2295,69.0,160,160,1.0,58.0
2296,67.0,0,240,1.0,58.0
2297,62.0,0,240,4.0,58.0
2298,58.0,160,240,5.0,58.0
2299,79.0,480,240,1.0,59.0
2300,62.0,480,240,5.0,61.0
2301,76.0,0,80,1.0,59.0
2302,77.0,80,80,1.0,59.0
2303,76.0,80,80,1.0,60.0
2304,74.0,80,120,1.0,60.0
2305,46.0,480,480,5.0,62.0
2306,76.0,120,120,1.0,61.0
2307,77.0,0,240,1.0,65.0
2308,48.0,0,960,4.0,62.0
2309,45.0,120,480,5.0,65.0
2310,65.0,480,80,1.0,55.0
2311,67.0,80,80,1.0,56.0
2312,65.0,80,80,1.0,57.0
2313,64.0,80,120,1.0,58.0
2314,65.0,120,120,1.0,59.0
2315,50.0,0,480,4.0,63.0
2316,47.0,0,480,5.0,63.0
2317,53.0,0,480,4.0,61.0
2318,69.0,120,480,1.0,61.0
2319,48.0,0,960,5.0,61.0
2320,67.0,0,480,1.0,59.0
2321,52.0,480,480,4.0,59.0
2322,65.0,0,240,1.0,57.0
2323,53.0,480,240,5.0,57.0
2324,41.0,480,240,5.0,70.0
2325,72.0,480,240,1.0,76.0
2326,60.0,480,1120,5.0,76.0
2327,62.0,160,160,5.0,68.0
2328,60.0,160,160,5.0,67.0
2329,58.0,160,160,5.0,67.0
2330,60.0,160,160,5.0,66.0
2331,58.0,160,160,5.0,65.0
2332,84.0,480,1120,1.0,82.0
2333,57.0,160,160,5.0,65.0
2334,86.0,0,160,1.0,75.0
2335,58.0,160,160,5.0,64.0
2336,84.0,0,160,1.0,74.0
2337,57.0,160,160,5.0,63.0
2338,82.0,160,160,1.0,74.0
2339,55.0,0,160,5.0,63.0
2340,57.0,0,160,5.0,62.0
2341,84.0,160,160,1.0,73.0
2342,55.0,160,160,5.0,61.0
2343,82.0,0,160,1.0,73.0
2344,81.0,160,160,1.0,72.0
2345,53.0,0,240,5.0,61.0
2346,82.0,160,160,1.0,72.0
2347,81.0,160,160,1.0,71.0
2348,55.0,0,80,5.0,59.0
2349,79.0,160,160,1.0,70.0
2350,57.0,80,80,5.0,59.0
2351,55.0,0,80,5.0,60.0
2352,77.0,80,160,1.0,70.0
2353,53.0,80,120,5.0,60.0
2354,55.0,40,120,5.0,61.0
2355,76.0,80,160,1.0,69.0
2356,77.0,0,160,1.0,69.0
2357,57.0,120,240,5.0,65.0
2358,79.0,160,160,1.0,68.0
2359,77.0,160,160,1.0,68.0
2360,75.0,0,160,1.0,67.0
2361,45.0,160,240,5.0,66.0
2362,74.0,160,160,1.0,67.0
2363,73.0,160,128,1.0,66.0
2364,74.0,160,160,1.0,68.0
2365,79.0,160,160,1.0,68.0
2366,46.0,0,360,5.0,68.0
2367,78.0,160,160,1.0,69.0
2368,79.0,160,160,1.0,69.0
2369,82.0,160,160,1.0,69.0
2370,81.0,160,160,1.0,70.0
2371,82.0,160,160,1.0,70.0
2372,86.0,160,160,1.0,71.0
2373,85.0,160,160,1.0,71.0
2374,86.0,0,160,1.0,72.0
2375,82.0,160,160,1.0,72.0
2376,79.0,160,128,1.0,72.0
2377,58.0,160,480,5.0,72.0
2378,60.0,0,240,5.0,73.0
2379,77.0,160,480,1.0,73.0
2380,48.0,480,240,5.0,73.0
2381,76.0,0,360,1.0,63.0
2382,65.0,480,240,1.0,63.0
2383,62.0,480,1120,5.0,80.0
2384,63.0,160,160,5.0,72.0
2385,77.0,480,480,1.0,64.0
2386,62.0,160,160,5.0,71.0
2387,60.0,0,160,5.0,71.0
2388,62.0,160,160,5.0,70.0
2389,78.0,0,480,1.0,66.0
2390,60.0,160,160,5.0,69.0
2391,75.0,160,480,2.0,66.0
2392,58.0,160,160,5.0,68.0
2393,60.0,160,160,5.0,68.0
2394,74.0,0,480,2.0,67.0
2395,79.0,0,480,1.0,67.0
2396,58.0,160,160,5.0,67.0
2397,57.0,0,160,5.0,66.0
2398,58.0,160,160,5.0,66.0
2399,81.0,160,360,1.0,68.0
2400,78.0,0,360,2.0,68.0
2401,57.0,160,160,5.0,65.0
2402,82.0,0,160,1.0,69.0
2403,55.0,160,240,5.0,64.0
2404,81.0,160,160,1.0,69.0
2405,82.0,160,160,1.0,69.0
2406,53.0,160,80,5.0,63.0
2407,55.0,80,80,5.0,64.0
2408,83.0,0,160,1.0,70.0
2409,53.0,0,80,5.0,65.0
2410,81.0,80,160,1.0,70.0
2411,52.0,80,120,5.0,66.0
2412,83.0,80,160,1.0,71.0
2413,53.0,40,120,5.0,67.0
2414,84.0,120,160,1.0,71.0
2415,52.0,0,240,5.0,71.0
2416,83.0,160,160,1.0,71.0
2417,84.0,160,160,1.0,72.0
2418,58.0,0,80,5.0,67.0
2419,60.0,80,80,5.0,67.0
2420,88.0,160,160,1.0,72.0
2421,58.0,80,80,5.0,68.0
2422,86.0,0,160,1.0,72.0
2423,57.0,80,120,5.0,68.0
2424,58.0,40,120,5.0,69.0
2425,88.0,80,160,1.0,73.0
2426,89.0,0,240,1.0,73.0
2427,84.0,160,160,2.0,72.0
2428,57.0,120,360,5.0,73.0
2429,81.0,160,160,2.0,72.0
2430,86.0,160,240,1.0,71.0
2431,82.0,160,160,2.0,70.0
2432,58.0,0,360,5.0,71.0
2433,79.0,160,160,2.0,69.0
2434,84.0,160,240,1.0,69.0
2435,81.0,160,160,2.0,68.0
2436,60.0,0,360,5.0,69.0
2437,77.0,160,160,2.0,67.0
2438,82.0,0,240,1.0,67.0
2439,79.0,160,160,2.0,66.0
2440,48.0,160,360,5.0,67.0
2441,76.0,160,160,2.0,65.0
2442,77.0,0,240,1.0,64.0
2443,53.0,160,240,5.0,64.0
2444,81.0,480,160,1.0,64.0
2445,79.0,160,160,1.0,64.0
2446,77.0,160,160,1.0,64.0
2447,76.0,160,160,1.0,64.0
2448,74.0,160,160,1.0,65.0
2449,72.0,160,160,1.0,65.0
2450,71.0,160,160,1.0,65.0
2451,74.0,160,160,1.0,65.0
2452,71.0,160,160,1.0,65.0
2453,68.0,0,480,4.0,65.0
2454,65.0,0,480,5.0,65.0
2455,74.0,0,240,1.0,65.0
2456,72.0,160,160,2.0,66.0
2457,69.0,160,160,2.0,66.0
2458,64.0,0,480,5.0,65.0
2459,67.0,160,480,4.0,65.0
2460,72.0,0,240,1.0,66.0
2461,70.0,160,160,2.0,66.0
2462,65.0,0,480,4.0,66.0
2463,62.0,160,480,5.0,66.0
2464,67.0,160,160,2.0,66.0
2465,70.0,0,240,1.0,66.0
2466,69.0,160,160,2.0,67.0
2467,64.0,160,480,4.0,66.0
2468,65.0,160,160,2.0,67.0
2469,60.0,0,480,5.0,66.0
2470,69.0,0,240,1.0,67.0
2471,67.0,160,160,2.0,67.0
2472,64.0,160,160,2.0,67.0
2473,62.0,0,480,4.0,67.0
2474,58.0,160,480,5.0,67.0
2475,65.0,0,360,1.0,67.0
2476,60.0,160,360,4.0,67.0
2477,57.0,0,360,5.0,67.0
2478,68.0,480,160,5.0,68.0
2479,67.0,160,160,5.0,68.0
2480,65.0,160,160,5.0,68.0
2481,63.0,160,160,5.0,68.0
2482,61.0,160,160,5.0,69.0
2483,60.0,160,160,5.0,69.0
2484,59.0,160,160,5.0,69.0
2485,62.0,160,160,5.0,69.0
2486,68.0,0,360,2.0,69.0
2487,59.0,160,160,5.0,69.0
2488,62.0,160,160,5.0,69.0
2489,60.0,160,160,5.0,70.0
2490,57.0,160,160,5.0,70.0
2491,77.0,0,960,1.0,69.0
2492,60.0,0,160,5.0,70.0
2493,58.0,160,160,5.0,70.0
2494,76.0,160,360,1.0,70.0
2495,67.0,0,847,2.0,69.0
2496,55.0,160,160,5.0,70.0
2497,58.0,160,160,5.0,70.0
2498,57.0,160,160,5.0,71.0
2499,77.0,0,360,1.0,70.0
2500,53.0,160,160,5.0,71.0
2501,57.0,0,160,5.0,71.0
2502,55.0,160,160,5.0,71.0
2503,72.0,0,832,2.0,70.0
2504,70.0,160,360,2.0,71.0
2505,79.0,0,360,1.0,71.0
2506,52.0,160,160,5.0,71.0
2507,53.0,0,360,5.0,71.0
2508,69.0,0,360,2.0,71.0
2509,81.0,160,360,1.0,71.0
2510,72.0,0,360,2.0,71.0
2511,84.0,480,160,1.0,72.0
2512,82.0,160,160,1.0,72.0
2513,81.0,160,160,1.0,72.0
2514,79.0,160,160,1.0,72.0
2515,77.0,160,160,1.0,73.0
2516,76.0,160,160,1.0,73.0
2517,77.0,0,160,1.0,73.0
2518,75.0,160,160,1.0,73.0
2519,73.0,160,160,1.0,73.0
2520,57.0,160,480,5.0,73.0
2521,65.0,0,795,4.0,73.0
2522,74.0,160,360,1.0,73.0
2523,58.0,0,360,5.0,70.0
2524,74.0,480,160,5.0,74.0
2525,72.0,160,160,5.0,74.0
2526,70.0,160,160,5.0,74.0
2527,69.0,160,160,5.0,74.0
2528,67.0,160,160,5.0,75.0
2529,66.0,160,160,5.0,75.0
2530,67.0,160,160,5.0,75.0
2531,65.0,160,160,5.0,75.0
2532,83.0,0,360,1.0,75.0
2533,79.0,0,360,2.0,75.0
2534,63.0,160,160,5.0,75.0
2535,64.0,160,360,5.0,75.0
2536,84.0,0,360,1.0,72.0
2537,79.0,0,360,2.0,72.0
2538,60.0,480,160,1.0,76.0
2539,64.0,160,160,1.0,76.0
2540,67.0,160,160,1.0,76.0
2541,72.0,160,160,1.0,76.0
2542,76.0,160,160,1.0,77.0
2543,79.0,160,160,1.0,77.0
2544,77.0,0,160,1.0,77.0
2545,74.0,160,160,1.0,77.0
2546,55.0,160,360,4.0,77.0
2547,53.0,0,360,5.0,77.0
2548,71.0,160,128,1.0,77.0
2549,72.0,0,240,1.0,77.0
2550,55.0,160,360,4.0,72.0
2551,52.0,0,360,5.0,72.0
2552,60.0,480,160,1.0,78.0
2553,64.0,160,160,1.0,78.0
2554,67.0,160,160,1.0,78.0
2555,72.0,160,160,1.0,78.0
2556,76.0,160,160,1.0,79.0
2557,79.0,160,160,1.0,79.0
2558,77.0,0,160,1.0,79.0
2559,74.0,160,160,1.0,79.0
2560,50.0,0,360,5.0,79.0
2561,55.0,0,360,4.0,79.0
2562,53.0,160,360,4.0,79.0
2563,71.0,160,128,1.0,79.0
2564,72.0,0,160,1.0,79.0
2565,76.0,160,160,1.0,80.0
2566,48.0,0,360,5.0,79.0
2567,52.0,0,360,4.0,79.0
2568,79.0,160,160,1.0,80.0
2569,77.0,0,160,1.0,80.0
2570,74.0,160,160,1.0,80.0
2571,50.0,0,360,5.0,76.0
2572,55.0,160,840,4.0,79.0
2573,53.0,160,360,4.0,76.0
2574,71.0,160,128,1.0,80.0
2575,55.0,160,122,1.0,80.0
2576,72.0,0,160,1.0,80.0
2577,76.0,160,160,1.0,81.0
2578,52.0,0,360,4.0,80.0
2579,48.0,0,360,5.0,80.0
2580,79.0,160,160,1.0,81.0
2581,77.0,0,160,1.0,81.0
2582,74.0,160,160,1.0,81.0
2583,53.0,0,360,4.0,75.0
2584,50.0,160,360,5.0,75.0
2585,71.0,160,128,1.0,81.0
2586,55.0,0,360,4.0,81.0
2587,72.0,160,360,1.0,81.0
2588,48.0,0,360,5.0,81.0
2589,52.0,0,360,4.0,81.0
2590,36.0,480,240,5.0,70.0
2591,38.0,480,240,5.0,71.0
2592,40.0,480,240,5.0,72.0
2593,41.0,480,240,5.0,73.0
2594,45.0,480,240,5.0,74.0
2595,46.0,480,240,5.0,75.0
2596,49.0,480,240,5.0,76.0
2597,50.0,480,240,5.0,77.0
2598,53.0,240,240,5.0,78.0
2599,52.0,240,240,5.0,78.0
2600,50.0,240,240,5.0,78.0
2601,52.0,240,240,5.0,79.0
2602,53.0,240,240,5.0,79.0
2603,50.0,240,240,5.0,80.0
2604,52.0,240,192,5.0,80.0
2605,53.0,240,240,5.0,81.0
2606,50.0,480,240,5.0,78.0
2607,45.0,480,240,5.0,74.0
2608,47.0,480,80,5.0,61.0
2609,48.0,80,80,5.0,60.0
2610,47.0,80,80,5.0,59.0
2611,45.0,80,120,5.0,58.0
2612,47.0,120,96,5.0,56.0
2613,60.0,0,240,1.0,59.0
2614,57.0,480,480,4.0,59.0
2615,62.0,480,240,1.0,61.0
2616,58.0,0,480,4.0,61.0
2617,64.0,0,240,1.0,62.0
2618,55.0,480,480,4.0,62.0
2619,65.0,480,240,1.0,64.0
2620,57.0,0,480,4.0,64.0
2621,69.0,0,240,1.0,66.0
2622,54.0,480,480,4.0,66.0
2623,70.0,480,240,1.0,67.0
2624,55.0,0,480,4.0,67.0
2625,73.0,480,240,1.0,69.0
2626,48.0,120,3780,5.0,59.0
2627,57.0,0,480,4.0,69.0
2628,74.0,0,240,1.0,71.0
2629,77.0,240,240,1.0,71.0
2630,76.0,240,240,1.0,72.0
2631,74.0,240,240,1.0,73.0
2632,76.0,240,240,1.0,74.0
2633,77.0,240,240,1.0,75.0
2634,74.0,240,240,1.0,75.0
2635,76.0,240,192,1.0,76.0
2636,58.0,0,1882,4.0,71.0
2637,77.0,240,240,1.0,77.0
2638,57.0,0,240,4.0,77.0
2639,55.0,240,240,4.0,76.0
2640,53.0,0,240,4.0,74.0
2641,74.0,240,240,1.0,74.0
2642,52.0,240,240,4.0,73.0
2643,69.0,240,240,1.0,72.0
2644,53.0,0,240,4.0,72.0
2645,50.0,240,240,4.0,70.0
2646,71.0,0,80,1.0,61.0
2647,72.0,80,80,1.0,61.0
2648,71.0,80,80,1.0,62.0
2649,55.0,240,240,4.0,69.0
2650,69.0,0,120,1.0,62.0
2651,53.0,80,192,4.0,68.0
2652,48.0,480,3810,5.0,71.0
2653,71.0,120,120,1.0,63.0
2654,72.0,0,360,1.0,66.0
2655,48.0,0,360,5.0,66.0
2656,52.0,120,360,4.0,66.0
2657,36.0,480,240,5.0,68.0
2658,38.0,0,240,5.0,69.0
2659,40.0,480,240,5.0,70.0
2660,72.0,480,766,1.0,78.0
2661,41.0,480,240,5.0,70.0
2662,70.0,0,240,1.0,75.0
2663,69.0,240,240,1.0,75.0
2664,67.0,240,240,1.0,74.0
2665,45.0,0,240,5.0,71.0
2666,65.0,240,240,1.0,74.0
2667,69.0,240,240,1.0,73.0
2668,46.0,0,240,5.0,72.0
2669,67.0,240,240,1.0,73.0
2670,49.0,240,240,5.0,73.0
2671,70.0,0,240,1.0,73.0
2672,64.0,240,192,1.0,72.0
2673,50.0,0,240,5.0,73.0
2674,65.0,240,240,1.0,72.0
2675,53.0,240,240,5.0,74.0
2676,52.0,0,240,5.0,74.0
2677,60.0,240,240,1.0,71.0
2678,50.0,240,240,5.0,75.0
2679,52.0,0,240,5.0,75.0
2680,53.0,240,240,5.0,75.0
2681,50.0,240,240,5.0,76.0
2682,84.0,240,720,1.0,88.0
2683,52.0,240,192,5.0,76.0
2684,53.0,240,240,5.0,76.0
2685,82.0,0,240,1.0,81.0
2686,81.0,240,240,1.0,80.0
2687,79.0,240,240,1.0,80.0
2688,57.0,0,240,5.0,77.0
2689,77.0,240,240,1.0,79.0
2690,58.0,0,240,5.0,78.0
2691,81.0,240,240,1.0,79.0
2692,79.0,240,240,1.0,78.0
2693,82.0,240,240,1.0,78.0
2694,61.0,0,240,5.0,79.0
2695,76.0,240,192,1.0,77.0
2696,77.0,0,240,1.0,77.0
2697,62.0,240,240,5.0,79.0
2698,65.0,240,240,5.0,80.0
2699,72.0,240,240,1.0,76.0
2700,64.0,0,240,5.0,80.0
2701,62.0,240,240,5.0,81.0
2702,64.0,240,240,5.0,81.0
2703,65.0,240,240,5.0,81.0
2704,62.0,240,240,5.0,82.0
2705,84.0,0,720,1.0,89.0
2706,64.0,240,192,5.0,82.0
2707,82.0,0,240,1.0,84.0
2708,65.0,240,240,5.0,82.0
2709,81.0,240,240,1.0,83.0
2710,79.0,240,240,1.0,82.0
2711,62.0,0,240,5.0,83.0
2712,77.0,240,192,1.0,82.0
2713,57.0,240,240,5.0,84.0
2714,59.0,480,240,5.0,85.0
2715,86.0,0,1080,1.0,88.0
2716,87.0,240,156,1.0,82.0
2717,69.0,240,156,4.0,79.0
2718,88.0,240,607,1.0,81.0
2719,85.0,240,156,1.0,80.0
2720,70.0,240,600,4.0,79.0
2721,68.0,240,156,4.0,79.0
2722,86.0,240,600,1.0,80.0
2723,83.0,240,156,1.0,78.0
2724,69.0,240,607,4.0,79.0
2725,66.0,240,156,4.0,79.0
2726,84.0,240,607,1.0,78.0
2727,81.0,240,156,1.0,77.0
2728,60.0,480,3472,5.0,85.0
2729,67.0,240,615,4.0,79.0
2730,82.0,240,156,1.0,76.0
2731,82.0,240,156,1.0,76.0
2732,61.0,0,156,4.0,79.0
2733,82.0,0,240,1.0,76.0
2734,84.0,240,80,1.0,73.0
2735,82.0,80,80,1.0,74.0
2736,81.0,80,80,1.0,75.0
2737,82.0,80,240,1.0,76.0
2738,84.0,240,240,1.0,78.0
2739,86.0,240,480,1.0,81.0
2740,84.0,480,240,1.0,78.0
2741,82.0,240,240,1.0,76.0
2742,81.0,240,156,1.0,75.0
2743,67.0,240,2880,4.0,79.0
2744,87.0,480,960,1.0,84.0
2745,86.0,480,240,1.0,75.0
2746,84.0,240,240,1.0,73.0
2747,66.0,480,960,4.0,74.0
2748,62.0,0,3847,5.0,79.0
2749,82.0,240,156,1.0,72.0
2750,67.0,0,360,4.0,72.0
2751,87.0,240,240,1.0,72.0
2752,86.0,240,240,1.0,71.0
2753,85.0,240,240,1.0,71.0
2754,86.0,240,240,1.0,70.0
2755,81.0,240,240,1.0,70.0
2756,86.0,0,240,1.0,69.0
2757,84.0,240,240,1.0,69.0
2758,66.0,0,480,5.0,69.0
2759,82.0,240,240,1.0,68.0
2760,67.0,0,360,5.0,62.0
2761,74.0,240,840,4.0,69.0
2762,86.0,240,240,1.0,68.0
2763,84.0,240,240,1.0,67.0
2764,83.0,240,240,1.0,67.0
2765,84.0,240,240,1.0,67.0
2766,79.0,240,240,1.0,66.0
2767,84.0,240,240,1.0,66.0
2768,64.0,0,480,5.0,66.0
2769,82.0,240,480,1.0,65.0
2770,80.0,240,240,1.0,64.0
2771,82.0,240,240,1.0,64.0
2772,65.0,240,892,5.0,65.0
2773,72.0,0,1380,4.0,66.0
2774,81.0,240,480,1.0,63.0
2775,74.0,240,240,1.0,63.0
2776,81.0,240,240,1.0,62.0
2777,58.0,240,907,5.0,63.0
2778,70.0,0,915,4.0,63.0
2779,79.0,240,480,1.0,62.0
2780,72.0,240,240,1.0,61.0
2781,79.0,240,240,1.0,60.0
2782,69.0,240,960,4.0,61.0
2783,77.0,240,480,1.0,60.0
2784,70.0,240,240,1.0,59.0
2785,77.0,240,240,1.0,58.0
2786,60.0,0,1860,5.0,61.0
2787,67.0,240,915,4.0,59.0
2788,76.0,240,480,1.0,58.0
2789,69.0,240,240,1.0,57.0
2790,77.0,240,240,1.0,57.0
2791,60.0,0,892,5.0,58.0
2792,66.0,240,900,4.0,58.0
2793,75.0,240,480,1.0,56.0
2794,68.0,240,240,1.0,55.0
2795,75.0,240,240,1.0,55.0
2796,65.0,0,907,4.0,56.0
2797,59.0,240,907,5.0,56.0
2798,74.0,240,480,1.0,54.0
2799,67.0,240,240,1.0,53.0
2800,75.0,240,240,1.0,53.0
2801,58.0,0,900,5.0,54.0
2802,64.0,240,900,4.0,54.0
2803,73.0,240,480,1.0,53.0
2804,66.0,240,240,1.0,52.0
2805,73.0,240,240,1.0,51.0
2806,63.0,240,900,4.0,52.0
2807,57.0,0,900,5.0,52.0
2808,72.0,240,480,1.0,51.0
2809,67.0,240,240,1.0,50.0
2810,72.0,240,240,1.0,49.0
2811,62.0,0,900,4.0,50.0
2812,58.0,240,907,5.0,50.0
2813,70.0,240,480,1.0,49.0
2814,62.0,240,240,1.0,48.0
2815,69.0,240,240,1.0,48.0
2816,46.0,0,900,5.0,49.0
2817,58.0,240,907,4.0,49.0
2818,67.0,240,480,1.0,47.0
2819,60.0,240,240,1.0,46.0
2820,67.0,240,240,1.0,46.0
2821,57.0,240,960,4.0,47.0
2822,65.0,240,480,1.0,45.0
2823,58.0,240,240,1.0,44.0
2824,65.0,240,240,1.0,44.0
2825,55.0,240,907,4.0,45.0
2826,48.0,0,1867,5.0,47.0
2827,64.0,240,192,1.0,44.0
2828,65.0,160,104,1.0,87.0
2829,67.0,160,104,1.0,87.0
2830,69.0,160,104,1.0,86.0
2831,71.0,160,104,1.0,85.0
2832,72.0,160,104,1.0,84.0
2833,74.0,160,104,1.0,84.0
2834,50.0,240,1185,5.0,92.0
2835,59.0,0,1200,4.0,92.0
2836,53.0,0,1215,4.0,92.0
2837,76.0,160,104,1.0,83.0
2838,77.0,160,104,1.0,82.0
2839,79.0,0,104,1.0,81.0
2840,53.0,0,240,4.0,81.0
2841,50.0,160,240,5.0,81.0
2842,59.0,0,240,4.0,81.0
2843,81.0,160,104,1.0,81.0
2844,77.0,160,104,1.0,80.0
2845,81.0,160,160,1.0,66.0
2846,79.0,160,160,1.0,65.0
2847,77.0,160,160,1.0,64.0
2848,76.0,160,160,1.0,62.0
2849,74.0,160,160,1.0,61.0
2850,72.0,160,160,1.0,60.0
2851,53.0,0,1185,4.0,67.0
2852,48.0,0,1200,5.0,67.0
2853,57.0,0,1200,4.0,67.0
2854,70.0,160,160,1.0,59.0
2855,60.0,160,1440,4.0,67.0
2856,69.0,160,160,1.0,58.0
2857,67.0,0,160,1.0,56.0
2858,57.0,160,240,4.0,56.0
2859,53.0,0,240,4.0,56.0
2860,48.0,0,240,5.0,56.0
2861,69.0,160,160,1.0,55.0
2862,65.0,160,128,1.0,54.0
2863,65.0,160,104,1.0,83.0
2864,67.0,160,104,1.0,83.0
2865,69.0,160,104,1.0,82.0
2866,71.0,160,104,1.0,82.0
2867,72.0,160,104,1.0,81.0
2868,74.0,160,104,1.0,80.0
2869,57.0,160,1170,4.0,91.0
2870,47.0,0,1200,5.0,91.0
2871,53.0,0,1200,4.0,91.0
2872,50.0,0,1215,4.0,91.0
2873,76.0,160,104,1.0,80.0
2874,77.0,160,104,1.0,79.0
2875,79.0,160,104,1.0,79.0
2876,57.0,0,240,4.0,79.0
2877,50.0,0,240,4.0,79.0
2878,47.0,0,240,5.0,79.0
2879,53.0,0,240,4.0,79.0
2880,81.0,160,104,1.0,78.0
2881,77.0,160,104,1.0,78.0
2882,81.0,160,160,1.0,61.0
2883,79.0,160,160,1.0,60.0
2884,77.0,160,160,1.0,59.0
2885,76.0,160,160,1.0,59.0
2886,74.0,160,160,1.0,58.0
2887,72.0,160,160,1.0,57.0
2888,48.0,160,1200,5.0,62.0
2889,57.0,0,1200,4.0,62.0
2890,53.0,0,1215,4.0,62.0
2891,70.0,160,160,1.0,57.0
2892,69.0,160,160,1.0,56.0
2893,67.0,160,160,1.0,55.0
2894,48.0,0,240,5.0,55.0
2895,53.0,0,240,4.0,55.0
2896,57.0,0,240,4.0,55.0
2897,69.0,160,160,1.0,55.0
2898,65.0,160,128,1.0,54.0
2899,65.0,160,104,1.0,81.0
2900,67.0,160,104,1.0,81.0
2901,68.0,160,104,1.0,81.0
2902,71.0,160,104,1.0,80.0
2903,72.0,160,104,1.0,80.0
2904,73.0,160,104,1.0,80.0
2905,53.0,160,1185,4.0,88.0
2906,56.0,0,1200,4.0,88.0
2907,49.0,0,1200,5.0,88.0
2908,59.0,0,1215,4.0,88.0
2909,76.0,160,104,1.0,79.0
2910,77.0,160,104,1.0,79.0
2911,79.0,0,104,1.0,79.0
2912,49.0,0,240,5.0,79.0
2913,53.0,0,240,4.0,79.0
2914,56.0,0,240,4.0,79.0
2915,59.0,160,240,4.0,79.0
2916,80.0,160,104,1.0,78.0
2917,77.0,160,104,1.0,78.0
2918,81.0,0,120,1.0,78.0
2919,79.0,120,120,1.0,77.0
2920,60.0,0,240,4.0,78.0
2921,53.0,0,240,4.0,78.0
2922,48.0,160,240,5.0,78.0
2923,57.0,0,240,4.0,78.0
2924,77.0,120,120,1.0,77.0
2925,76.0,120,120,1.0,77.0
2926,74.0,120,120,1.0,77.0
2927,72.0,120,120,1.0,76.0
2928,70.0,120,120,1.0,76.0
2929,69.0,120,96,1.0,76.0
2930,77.0,120,120,1.0,76.0
2931,76.0,120,120,1.0,75.0
2932,74.0,120,120,1.0,75.0
2933,72.0,120,120,1.0,75.0
2934,70.0,120,120,1.0,75.0
2935,69.0,120,120,1.0,74.0
2936,67.0,120,120,1.0,74.0
2937,65.0,120,96,1.0,74.0
2938,67.0,120,80,1.0,73.0
2939,69.0,80,80,1.0,73.0
2940,67.0,80,80,1.0,73.0
2941,69.0,80,80,1.0,73.0
2942,67.0,80,80,1.0,73.0
2943,69.0,80,80,1.0,73.0
2944,67.0,80,80,1.0,72.0
2945,69.0,80,80,1.0,72.0
2946,67.0,80,80,1.0,72.0
2947,69.0,80,80,1.0,72.0
2948,67.0,80,80,1.0,72.0
2949,69.0,80,80,1.0,72.0
2950,53.0,0,960,4.0,73.0
2951,67.0,80,80,1.0,71.0
2952,69.0,80,80,1.0,71.0
2953,67.0,80,80,1.0,71.0
2954,69.0,80,80,1.0,71.0
2955,67.0,80,80,1.0,71.0
2956,69.0,80,80,1.0,71.0
2957,67.0,80,80,1.0,70.0
2958,69.0,80,80,1.0,70.0
2959,67.0,80,80,1.0,70.0
2960,65.0,80,120,1.0,70.0
2961,67.0,120,96,1.0,70.0
2962,52.0,0,937,4.0,71.0
2963,48.0,0,1897,5.0,73.0
2964,53.0,0,128,1.0,79.0
2965,57.0,160,128,1.0,79.0
2966,60.0,160,128,1.0,79.0
2967,65.0,160,128,1.0,79.0
2968,69.0,160,128,1.0,79.0
2969,72.0,160,128,1.0,79.0
2970,77.0,160,240,1.0,79.0
2971,72.0,160,128,2.0,79.0
2972,69.0,160,128,2.0,78.0
2973,76.0,160,240,1.0,78.0
2974,70.0,160,128,2.0,78.0
2975,67.0,160,128,2.0,78.0
2976,74.0,160,240,1.0,78.0
2977,69.0,160,128,2.0,78.0
2978,65.0,160,128,2.0,78.0
2979,72.0,160,240,1.0,77.0
2980,67.0,160,128,2.0,77.0
2981,64.0,160,128,2.0,77.0
2982,70.0,160,240,1.0,77.0
2983,65.0,160,128,2.0,77.0
2984,62.0,160,128,2.0,77.0
2985,69.0,160,240,1.0,77.0
2986,64.0,160,128,2.0,77.0
2987,60.0,160,128,2.0,76.0
2988,57.0,160,240,1.0,76.0
2989,63.0,160,128,2.0,76.0
2990,41.0,120,4248,5.0,82.0
2991,66.0,160,128,2.0,76.0
2992,58.0,0,240,1.0,76.0
2993,62.0,160,128,2.0,76.0
2994,46.0,160,360,5.0,76.0
2995,67.0,160,128,2.0,76.0
2996,57.0,160,240,1.0,75.0
2997,60.0,160,128,2.0,75.0
2998,48.0,0,360,5.0,75.0
2999,65.0,160,128,2.0,75.0
3000,55.0,160,240,1.0,75.0
3001,58.0,160,128,2.0,75.0
3002,36.0,0,360,5.0,75.0
3003,64.0,160,128,2.0,75.0
3004,65.0,0,128,1.0,75.0
3005,69.0,160,128,1.0,75.0
3006,72.0,160,128,1.0,74.0
3007,77.0,160,128,1.0,74.0
3008,81.0,160,128,1.0,74.0
3009,84.0,160,128,1.0,74.0
3010,89.0,160,240,1.0,74.0
3011,84.0,160,128,2.0,74.0
3012,81.0,160,128,2.0,74.0
3013,88.0,160,240,1.0,73.0
3014,82.0,160,128,2.0,73.0
3015,79.0,160,128,2.0,73.0
3016,86.0,160,240,1.0,73.0
3017,81.0,160,128,2.0,73.0
3018,77.0,160,128,2.0,73.0
3019,84.0,160,240,1.0,73.0
3020,79.0,160,128,2.0,73.0
3021,76.0,160,128,2.0,72.0
3022,82.0,160,240,1.0,72.0
3023,77.0,160,128,2.0,72.0
3024,74.0,160,128,2.0,72.0
3025,81.0,160,240,1.0,72.0
3026,76.0,160,128,2.0,72.0
3027,72.0,160,128,2.0,72.0
3028,69.0,160,240,1.0,72.0
3029,75.0,160,128,2.0,71.0
3030,78.0,160,128,2.0,71.0
3031,41.0,160,4297,5.0,78.0
3032,53.0,0,4312,5.0,78.0
3033,70.0,0,240,1.0,71.0
3034,74.0,160,128,2.0,71.0
3035,58.0,160,360,5.0,71.0
3036,79.0,160,128,2.0,71.0
3037,69.0,0,240,1.0,71.0
3038,72.0,160,128,2.0,71.0
3039,60.0,160,360,5.0,71.0
3040,77.0,160,128,2.0,70.0
3041,67.0,0,240,1.0,70.0
3042,70.0,160,128,2.0,70.0
3043,48.0,160,360,5.0,70.0
3044,76.0,160,128,2.0,70.0
3045,69.0,160,240,1.0,70.0
3046,72.0,160,128,2.0,70.0
3047,77.0,160,128,2.0,70.0
3048,68.0,160,240,1.0,70.0
3049,71.0,160,128,2.0,69.0
3050,77.0,160,128,2.0,69.0
3051,69.0,160,240,1.0,69.0
3052,72.0,160,128,2.0,69.0
3053,77.0,160,128,2.0,69.0
3054,68.0,160,240,1.0,69.0
3055,71.0,160,128,2.0,69.0
3056,77.0,160,128,2.0,68.0
3057,69.0,160,240,1.0,68.0
3058,72.0,160,128,2.0,68.0
3059,53.0,0,2280,5.0,75.0
3060,77.0,160,128,2.0,68.0
3061,74.0,0,240,1.0,68.0
3062,70.0,160,128,2.0,68.0
3063,58.0,160,360,5.0,68.0
3064,67.0,160,128,2.0,68.0
3065,72.0,160,240,1.0,68.0
3066,69.0,160,128,2.0,67.0
3067,60.0,0,360,5.0,68.0
3068,65.0,160,128,2.0,67.0
3069,70.0,0,240,1.0,67.0
3070,67.0,160,128,2.0,67.0
3071,48.0,160,360,5.0,67.0
3072,64.0,160,128,2.0,67.0
3073,60.0,160,240,1.0,67.0
3074,65.0,160,128,2.0,67.0
3075,69.0,160,128,2.0,66.0
3076,59.0,160,240,1.0,66.0
3077,65.0,160,128,2.0,66.0
3078,68.0,160,128,2.0,66.0
3079,60.0,160,240,1.0,66.0
3080,65.0,160,128,2.0,66.0
3081,69.0,160,128,2.0,66.0
3082,59.0,160,240,1.0,66.0
3083,65.0,160,128,2.0,65.0
3084,68.0,160,128,2.0,65.0
3085,60.0,160,240,1.0,65.0
3086,65.0,160,128,2.0,65.0
3087,41.0,0,2280,5.0,70.0
3088,53.0,0,2280,5.0,70.0
3089,69.0,160,128,2.0,65.0
3090,67.0,0,240,1.0,65.0
3091,62.0,160,128,2.0,65.0
3092,46.0,160,360,5.0,65.0
3093,58.0,160,128,2.0,64.0
3094,65.0,160,240,1.0,64.0
3095,60.0,160,128,2.0,64.0
3096,48.0,0,360,5.0,64.0
3097,57.0,160,128,2.0,64.0
3098,64.0,0,240,1.0,64.0
3099,58.0,160,128,2.0,64.0
3100,36.0,160,360,5.0,64.0
3101,55.0,160,128,2.0,64.0
3102,41.0,160,128,5.0,65.0
3103,53.0,0,128,1.0,65.0
3104,45.0,0,128,5.0,66.0
3105,57.0,160,128,1.0,66.0
3106,60.0,160,128,1.0,66.0
3107,48.0,0,128,5.0,66.0
3108,53.0,160,128,5.0,67.0
3109,65.0,0,128,1.0,67.0
3110,48.0,160,128,5.0,68.0
3111,60.0,0,128,1.0,68.0
3112,57.0,0,128,1.0,69.0
3113,45.0,160,128,5.0,69.0
3114,41.0,0,128,5.0,70.0
3115,53.0,160,128,1.0,70.0
3116,45.0,160,128,5.0,71.0
3117,57.0,0,128,1.0,71.0
3118,48.0,0,128,5.0,72.0
3119,60.0,160,128,1.0,72.0
3120,53.0,160,128,5.0,73.0
3121,65.0,0,128,1.0,73.0
3122,60.0,160,128,1.0,74.0
3123,48.0,0,128,5.0,74.0
3124,57.0,160,128,1.0,75.0
3125,45.0,0,128,5.0,75.0
3126,53.0,160,128,1.0,76.0
3127,41.0,0,128,5.0,76.0
3128,45.0,0,128,5.0,77.0
3129,57.0,160,128,1.0,77.0
3130,48.0,160,128,5.0,78.0
3131,60.0,0,128,1.0,78.0
3132,65.0,0,128,1.0,78.0
3133,53.0,160,128,5.0,78.0
3134,57.0,0,128,5.0,79.0
3135,69.0,160,128,1.0,79.0
3136,60.0,160,128,5.0,80.0
3137,72.0,0,128,1.0,80.0
3138,65.0,160,128,5.0,81.0
3139,77.0,0,128,1.0,81.0
3140,72.0,160,128,1.0,82.0
3141,60.0,0,128,5.0,82.0
3142,57.0,0,128,5.0,83.0
3143,69.0,160,128,1.0,83.0
3144,53.0,160,128,5.0,84.0
3145,65.0,0,128,1.0,84.0
3146,69.0,160,128,1.0,85.0
3147,57.0,0,128,5.0,85.0
3148,72.0,160,128,1.0,86.0
3149,60.0,0,128,5.0,86.0
3150,65.0,0,128,1.0,87.0
3151,53.0,160,128,5.0,87.0
3152,57.0,0,128,5.0,88.0
3153,69.0,160,128,1.0,88.0
3154,72.0,160,128,1.0,89.0
3155,60.0,0,128,5.0,89.0
3156,77.0,160,128,1.0,90.0
3157,65.0,0,128,5.0,90.0
3158,81.0,0,128,1.0,90.0
3159,69.0,160,128,5.0,90.0
3160,72.0,160,128,5.0,91.0
3161,84.0,0,128,1.0,91.0
3162,77.0,0,128,5.0,92.0
3163,89.0,160,128,1.0,92.0
3164,84.0,160,128,1.0,93.0
3165,72.0,0,128,5.0,93.0
3166,81.0,160,128,1.0,94.0
3167,69.0,0,128,5.0,94.0
3168,65.0,0,128,5.0,95.0
3169,77.0,160,128,1.0,95.0
3170,81.0,160,128,1.0,96.0
3171,69.0,0,128,5.0,96.0
3172,72.0,0,128,5.0,97.0
3173,84.0,160,128,1.0,97.0
3174,77.0,0,360,5.0,98.0
3175,89.0,160,360,1.0,98.0
3176,53.0,0,360,5.0,95.0
3177,41.0,480,360,5.0,95.0
3178,65.0,0,360,1.0,95.0
3179,70.0,0,480,1.0,40.0
3180,62.0,2880,480,4.0,40.0
3181,58.0,0,480,5.0,40.0
3182,60.0,0,480,5.0,43.0
3183,63.0,0,480,4.0,43.0
3184,69.0,480,480,1.0,43.0
3185,65.0,0,410,4.0,47.0
3186,62.0,480,420,5.0,47.0
3187,70.0,0,425,1.0,47.0
3188,61.0,480,480,4.0,60.0
3189,64.0,0,960,1.0,60.0
3190,60.0,480,480,4.0,50.0
3191,72.0,480,420,1.0,52.0
3192,55.0,0,1380,5.0,60.0
3193,71.0,480,40,1.0,55.0
3194,72.0,40,40,1.0,56.0
3195,74.0,40,40,1.0,59.0
3196,58.0,0,960,4.0,52.0
3197,72.0,40,600,1.0,62.0
3198,70.0,240,120,1.0,54.0
3199,69.0,120,120,1.0,52.0
3200,67.0,120,120,1.0,50.0
3201,57.0,360,720,4.0,51.0
3202,53.0,0,1200,5.0,55.0
3203,65.0,120,120,1.0,48.0
3204,63.0,0,120,1.0,46.0
3205,58.0,0,200,4.0,46.0
3206,55.0,120,210,5.0,46.0
3207,67.0,120,95,1.0,44.0
3208,65.0,120,240,1.0,47.0
3209,63.0,240,40,1.0,42.0
3210,65.0,40,40,1.0,42.0
3211,63.0,40,40,1.0,41.0
3212,65.0,40,30,1.0,40.0
3213,63.0,30,30,1.0,39.0
3214,62.0,30,30,1.0,39.0
3215,60.0,0,480,4.0,47.0
3216,57.0,0,480,5.0,47.0
3217,63.0,30,30,1.0,38.0
3218,58.0,30,360,4.0,38.0
3219,62.0,0,360,1.0,38.0
3220,74.0,0,660,1.0,56.0
3221,65.0,480,665,2.0,56.0
3222,62.0,240,240,2.0,40.0
3223,71.0,0,240,1.0,40.0
3224,63.0,0,240,2.0,42.0
3225,72.0,240,240,1.0,42.0
3226,74.0,240,240,1.0,45.0
3227,65.0,0,240,2.0,45.0
3228,67.0,0,240,2.0,47.0
3229,75.0,240,240,1.0,47.0
3230,36.0,480,1380,5.0,46.0
3231,72.0,240,180,1.0,45.0
3232,48.0,0,1385,5.0,46.0
3233,70.0,0,240,1.0,51.0
3234,69.0,240,180,1.0,48.0
3235,63.0,240,480,4.0,47.0
3236,60.0,0,480,5.0,47.0
3237,72.0,0,240,1.0,54.0
3238,70.0,240,180,1.0,51.0
3239,65.0,0,420,4.0,49.0
3240,62.0,240,425,5.0,49.0
3241,77.0,0,660,1.0,64.0
3242,74.0,240,660,2.0,64.0
3243,74.0,240,240,1.0,47.0
3244,71.0,0,240,2.0,47.0
3245,75.0,240,240,1.0,51.0
3246,72.0,0,240,2.0,51.0
3247,77.0,240,240,1.0,54.0
3248,74.0,0,240,2.0,54.0
3249,75.0,0,240,2.0,58.0
3250,79.0,240,240,1.0,58.0
3251,39.0,480,1380,5.0,51.0
3252,51.0,0,1380,5.0,51.0
3253,75.0,240,180,1.0,55.0
3254,72.0,0,180,2.0,55.0
3255,74.0,240,240,1.0,62.0
3256,69.0,0,410,2.0,62.0
3257,72.0,240,180,1.0,59.0
3258,63.0,0,480,4.0,56.0
3259,53.0,0,480,5.0,56.0
3260,75.0,240,240,1.0,70.0
3261,58.0,0,410,4.0,62.0
3262,62.0,0,410,4.0,62.0
3263,70.0,0,420,2.0,70.0
3264,74.0,240,180,1.0,66.0
3265,79.0,0,240,1.0,77.0
3266,72.0,240,410,2.0,77.0
3267,77.0,240,180,1.0,72.0
3268,57.0,0,420,4.0,69.0
3269,45.0,0,425,5.0,69.0
3270,84.0,240,240,1.0,80.0
3271,74.0,0,420,2.0,80.0
3272,82.0,240,240,1.0,71.0
3273,81.0,240,240,1.0,67.0
3274,55.0,0,960,4.0,76.0
3275,43.0,0,960,5.0,76.0
3276,79.0,240,240,1.0,62.0
3277,77.0,240,240,1.0,58.0
3278,70.0,0,900,2.0,67.0
3279,76.0,240,180,1.0,53.0
3280,60.0,0,420,4.0,58.0
3281,55.0,0,420,5.0,58.0
3282,64.0,0,480,4.0,56.0
3283,79.0,0,480,1.0,52.0
3284,70.0,240,480,2.0,52.0
3285,53.0,0,890,5.0,56.0
3286,65.0,480,410,4.0,46.0
3287,69.0,0,410,2.0,46.0
3288,77.0,0,590,1.0,46.0
3289,79.0,600,120,1.0,37.0
3290,75.0,120,120,1.0,39.0
3291,72.0,120,95,1.0,41.0
3292,58.0,0,480,5.0,42.0
3293,70.0,120,480,1.0,44.0
3294,62.0,0,480,4.0,42.0
3295,69.0,0,480,1.0,49.0
3296,60.0,480,480,5.0,46.0
3297,63.0,0,480,4.0,46.0
3298,65.0,0,410,4.0,51.0
3299,62.0,480,420,5.0,51.0
3300,70.0,0,425,1.0,54.0
3301,61.0,480,480,4.0,62.0
3302,60.0,480,480,4.0,51.0
3303,64.0,0,960,1.0,62.0
3304,55.0,0,1380,5.0,62.0
3305,72.0,0,420,1.0,54.0
3306,71.0,480,40,1.0,59.0
3307,72.0,40,40,1.0,61.0
3308,74.0,40,40,1.0,62.0
3309,58.0,480,960,4.0,54.0
3310,72.0,40,600,1.0,67.0
3311,70.0,240,120,1.0,56.0
3312,69.0,120,120,1.0,54.0
3313,67.0,120,120,1.0,52.0
3314,57.0,360,720,4.0,54.0
3315,53.0,0,1200,5.0,58.0
3316,65.0,120,120,1.0,49.0
3317,63.0,0,120,1.0,47.0
3318,58.0,120,200,4.0,47.0
3319,55.0,0,210,5.0,47.0
3320,67.0,120,95,1.0,44.0
3321,65.0,0,240,1.0,46.0
3322,63.0,240,40,1.0,41.0
3323,65.0,40,40,1.0,40.0
3324,63.0,40,40,1.0,39.0
3325,65.0,40,30,1.0,38.0
3326,63.0,30,30,1.0,38.0
3327,62.0,30,30,1.0,37.0
3328,57.0,120,480,5.0,46.0
3329,60.0,0,480,4.0,46.0
3330,63.0,30,30,1.0,37.0
3331,62.0,0,410,1.0,36.0
3332,58.0,30,420,4.0,37.0
3333,74.0,480,660,1.0,60.0
3334,65.0,0,665,2.0,60.0
3335,71.0,0,240,1.0,44.0
3336,62.0,240,240,2.0,44.0
3337,72.0,0,240,1.0,47.0
3338,63.0,240,240,2.0,47.0
3339,65.0,0,240,2.0,50.0
3340,74.0,240,240,1.0,50.0
3341,75.0,0,240,1.0,53.0
3342,67.0,240,240,2.0,53.0
3343,72.0,240,180,1.0,50.0
3344,36.0,480,1380,5.0,69.0
3345,48.0,0,1385,5.0,69.0
3346,70.0,0,240,1.0,58.0
3347,69.0,240,180,1.0,54.0
3348,60.0,0,480,5.0,51.0
3349,63.0,240,480,4.0,51.0
3350,72.0,240,240,1.0,63.0
3351,62.0,0,420,5.0,56.0
3352,70.0,240,180,1.0,58.0
3353,65.0,0,420,4.0,56.0
3354,77.0,0,660,1.0,74.0
3355,74.0,240,660,2.0,74.0
3356,71.0,240,240,2.0,56.0
3357,74.0,0,240,1.0,56.0
3358,72.0,240,240,2.0,59.0
3359,75.0,0,240,1.0,59.0
3360,77.0,0,240,1.0,62.0
3361,74.0,240,240,2.0,62.0
3362,79.0,240,240,1.0,66.0
3363,75.0,0,240,2.0,66.0
3364,51.0,480,1380,5.0,72.0
3365,39.0,0,1380,5.0,72.0
3366,75.0,0,180,1.0,63.0
3367,72.0,240,180,2.0,63.0
3368,74.0,0,240,1.0,68.0
3369,69.0,0,360,2.0,68.0
3370,72.0,240,180,1.0,64.0
3371,53.0,0,480,5.0,61.0
3372,63.0,240,480,4.0,61.0
3373,75.0,240,240,1.0,72.0
3374,70.0,0,360,2.0,72.0
3375,74.0,240,180,1.0,69.0
3376,62.0,0,420,4.0,66.0
3377,58.0,0,425,5.0,66.0
3378,79.0,0,240,1.0,80.0
3379,45.0,0,410,5.0,72.0
3380,72.0,240,420,2.0,80.0
3381,57.0,0,420,4.0,72.0
3382,77.0,240,180,1.0,74.0
3383,84.0,240,240,1.0,85.0
3384,82.0,240,180,1.0,78.0
3385,81.0,240,120,1.0,75.0
3386,79.0,120,120,1.0,74.0
3387,77.0,120,120,1.0,73.0
3388,76.0,120,120,1.0,71.0
3389,74.0,120,240,1.0,70.0
3390,58.0,0,1380,4.0,82.0
3391,55.0,0,1380,5.0,82.0
3392,72.0,240,180,1.0,67.0
3393,64.0,0,1380,4.0,82.0
3394,60.0,0,1385,4.0,82.0
3395,86.0,0,240,1.0,87.0
3396,84.0,240,180,1.0,83.0
3397,82.0,240,120,1.0,80.0
3398,81.0,120,120,1.0,78.0
3399,79.0,120,120,1.0,77.0
3400,78.0,120,120,1.0,75.0
3401,75.0,120,240,1.0,73.0
3402,60.0,0,1370,4.0,87.0
3403,62.0,0,1380,4.0,87.0
3404,74.0,240,180,1.0,70.0
3405,57.0,240,1380,5.0,87.0
3406,66.0,0,1380,4.0,87.0
3407,87.0,0,240,1.0,93.0
3408,86.0,240,180,1.0,86.0
3409,84.0,240,120,1.0,82.0
3410,82.0,120,120,1.0,80.0
3411,81.0,120,120,1.0,78.0
3412,79.0,120,120,1.0,76.0
3413,78.0,120,120,1.0,74.0
3414,79.0,120,120,1.0,72.0
3415,81.0,120,120,1.0,70.0
3416,62.0,0,1380,4.0,93.0
3417,67.0,240,1385,4.0,93.0
3418,58.0,0,1385,5.0,93.0
3419,82.0,120,95,1.0,68.0
3420,77.0,120,360,1.0,71.0
3421,79.0,360,60,1.0,59.0
3422,77.0,60,60,1.0,57.0
3423,69.0,0,480,2.0,71.0
3424,67.0,0,410,2.0,54.0
3425,76.0,60,420,1.0,54.0
3426,60.0,0,905,5.0,71.0
3427,53.0,960,480,5.0,44.0
3428,52.0,480,480,5.0,49.0
3429,53.0,480,420,5.0,54.0
3430,83.0,120,120,1.0,65.0
3431,84.0,120,120,1.0,63.0
3432,80.0,120,120,1.0,61.0
3433,81.0,120,120,1.0,59.0
3434,76.0,120,120,1.0,57.0
3435,77.0,120,120,1.0,55.0
3436,71.0,120,120,1.0,53.0
3437,72.0,120,120,1.0,51.0
3438,68.0,120,120,1.0,49.0
3439,69.0,120,120,1.0,48.0
3440,48.0,480,1380,5.0,67.0
3441,65.0,120,360,1.0,46.0
3442,55.0,120,480,5.0,47.0
3443,64.0,240,480,1.0,43.0
3444,54.0,240,480,5.0,51.0
3445,63.0,240,480,1.0,47.0
3446,55.0,240,410,5.0,56.0
3447,64.0,240,360,1.0,50.0
3448,85.0,120,120,1.0,70.0
3449,86.0,120,120,1.0,68.0
3450,81.0,120,120,1.0,66.0
3451,82.0,120,120,1.0,64.0
3452,78.0,120,120,1.0,63.0
3453,79.0,120,120,1.0,61.0
3454,75.0,120,120,1.0,60.0
3455,76.0,120,120,1.0,58.0
3456,69.0,120,120,1.0,57.0
3457,70.0,120,120,1.0,55.0
3458,48.0,240,1385,5.0,71.0
3459,67.0,120,360,1.0,54.0
3460,57.0,120,480,5.0,53.0
3461,66.0,240,480,1.0,49.0
3462,56.0,240,480,5.0,58.0
3463,65.0,240,480,1.0,53.0
3464,57.0,240,420,5.0,64.0
3465,66.0,240,185,1.0,57.0
3466,84.0,120,120,1.0,69.0
3467,87.0,120,120,1.0,67.0
3468,81.0,120,120,1.0,65.0
3469,84.0,120,120,1.0,63.0
3470,78.0,120,120,1.0,61.0
3471,81.0,120,120,1.0,59.0
3472,75.0,120,120,1.0,57.0
3473,78.0,120,120,1.0,55.0
3474,72.0,120,120,1.0,53.0
3475,75.0,120,120,1.0,51.0
3476,51.0,240,1370,4.0,76.0
3477,48.0,0,1370,5.0,76.0
3478,54.0,0,1380,4.0,76.0
3479,57.0,0,1385,4.0,76.0
3480,69.0,120,95,1.0,49.0
3481,82.0,120,120,1.0,76.0
3482,87.0,120,120,1.0,74.0
3483,78.0,120,120,1.0,72.0
3484,82.0,120,120,1.0,70.0
3485,75.0,120,120,1.0,69.0
3486,78.0,120,120,1.0,67.0
3487,70.0,120,120,1.0,65.0
3488,75.0,120,120,1.0,63.0
3489,66.0,120,120,1.0,62.0
3490,70.0,120,120,1.0,60.0
3491,46.0,0,1370,5.0,77.0
3492,58.0,120,1370,4.0,77.0
3493,51.0,0,1380,4.0,77.0
3494,54.0,0,1385,4.0,77.0
3495,63.0,120,95,1.0,58.0
3496,86.0,120,120,1.0,79.0
3497,89.0,120,120,1.0,77.0
3498,83.0,120,120,1.0,76.0
3499,86.0,120,120,1.0,74.0
3500,77.0,120,120,1.0,72.0
3501,83.0,120,120,1.0,70.0
3502,74.0,120,120,1.0,68.0
3503,77.0,120,120,1.0,66.0
3504,71.0,120,120,1.0,64.0
3505,74.0,120,120,1.0,62.0
3506,44.0,0,1380,5.0,81.0
3507,47.0,120,1380,4.0,81.0
3508,53.0,0,1380,4.0,81.0
3509,50.0,0,1380,4.0,81.0
3510,65.0,120,95,1.0,63.0
3511,45.0,120,120,5.0,59.0
3512,48.0,120,120,4.0,58.0
3513,53.0,120,120,4.0,58.0
3514,57.0,120,95,4.0,57.0
3515,60.0,120,120,1.0,61.0
3516,65.0,120,120,1.0,60.0
3517,69.0,120,120,1.0,59.0
3518,72.0,120,95,1.0,59.0
3519,46.0,120,240,5.0,54.0
3520,62.0,120,120,1.0,58.0
3521,65.0,120,120,1.0,57.0
3522,74.0,120,95,1.0,57.0
3523,36.0,120,120,5.0,52.0
3524,41.0,120,120,4.0,53.0
3525,45.0,120,120,4.0,52.0
3526,48.0,120,95,4.0,51.0
3527,57.0,120,120,1.0,54.0
3528,60.0,120,120,1.0,53.0
3529,65.0,120,120,1.0,51.0
3530,69.0,120,95,1.0,50.0
3531,36.0,120,230,5.0,45.0
3532,55.0,120,120,1.0,48.0
3533,58.0,120,120,1.0,47.0
3534,64.0,120,95,1.0,46.0
3535,57.0,120,240,3.0,59.0
3536,65.0,0,420,1.0,59.0
3537,60.0,240,240,3.0,54.0
3538,57.0,240,240,3.0,51.0
3539,60.0,240,240,3.0,50.0
3540,77.0,240,80,1.0,50.0
3541,76.0,80,80,1.0,49.0
3542,55.0,0,240,3.0,50.0
3543,58.0,0,240,3.0,50.0
3544,79.0,80,80,1.0,49.0
3545,77.0,0,80,1.0,49.0
3546,76.0,80,80,1.0,49.0
3547,60.0,80,193,3.0,49.0
3548,53.0,0,1410,5.0,59.0
3549,74.0,80,64,1.0,49.0
3550,57.0,0,240,3.0,54.0
3551,60.0,240,240,3.0,48.0
3552,72.0,80,548,1.0,54.0
3553,71.0,80,80,1.0,47.0
3554,57.0,240,240,3.0,47.0
3555,74.0,80,80,1.0,47.0
3556,72.0,0,80,1.0,47.0
3557,70.0,80,80,1.0,46.0
3558,60.0,80,240,3.0,47.0
3559,69.0,80,80,1.0,46.0
3560,67.0,80,80,1.0,46.0
3561,66.0,80,80,1.0,46.0
3562,58.0,0,240,3.0,46.0
3563,69.0,80,80,1.0,46.0
3564,67.0,0,80,1.0,45.0
3565,65.0,80,80,1.0,45.0
3566,60.0,80,193,3.0,45.0
3567,53.0,0,1410,5.0,54.0
3568,64.0,80,64,1.0,45.0
3569,55.0,0,240,3.0,61.0
3570,64.0,80,240,3.0,61.0
3571,70.0,0,480,1.0,58.0
3572,60.0,240,240,3.0,47.0
3573,69.0,0,193,1.0,43.0
3574,57.0,240,240,3.0,43.0
3575,65.0,0,240,3.0,43.0
3576,60.0,240,240,3.0,43.0
3577,77.0,0,80,1.0,42.0
3578,76.0,80,80,1.0,42.0
3579,79.0,80,80,1.0,42.0
3580,58.0,0,240,3.0,42.0
3581,55.0,240,240,3.0,42.0
3582,77.0,80,80,1.0,42.0
3583,76.0,80,80,1.0,41.0
3584,60.0,0,193,3.0,42.0
3585,53.0,0,1403,5.0,61.0
3586,74.0,80,64,1.0,41.0
3587,57.0,0,240,3.0,46.0
3588,60.0,240,240,3.0,40.0
3589,72.0,0,548,1.0,46.0
3590,71.0,80,80,1.0,40.0
3591,74.0,80,80,1.0,39.0
3592,57.0,240,240,3.0,40.0
3593,72.0,80,80,1.0,39.0
3594,70.0,80,80,1.0,39.0
3595,69.0,80,80,1.0,39.0
3596,60.0,0,240,3.0,39.0
3597,67.0,0,80,1.0,39.0
3598,66.0,80,80,1.0,38.0
3599,69.0,80,80,1.0,38.0
3600,58.0,80,240,3.0,39.0
3601,67.0,80,80,1.0,38.0
3602,65.0,80,80,1.0,38.0
3603,60.0,0,193,3.0,38.0
3604,53.0,80,1410,5.0,46.0
3605,64.0,80,64,1.0,38.0
3606,58.0,80,480,4.0,54.0
3607,64.0,0,480,4.0,54.0
3608,74.0,0,480,1.0,55.0
3609,72.0,0,80,1.0,36.0
3610,71.0,80,80,1.0,36.0
3611,57.0,0,193,4.0,36.0
3612,65.0,480,193,4.0,36.0
3613,53.0,0,673,5.0,54.0
3614,74.0,80,80,1.0,36.0
3615,72.0,80,80,1.0,36.0
3616,70.0,80,80,1.0,35.0
3617,69.0,80,80,1.0,35.0
3618,67.0,80,80,1.0,35.0
3619,66.0,80,80,1.0,35.0
3620,69.0,80,80,1.0,35.0
3621,67.0,80,80,1.0,34.0
3622,65.0,80,80,1.0,34.0
3623,64.0,80,64,1.0,34.0
3624,58.0,0,480,4.0,54.0
3625,64.0,80,480,4.0,54.0
3626,73.0,0,480,1.0,51.0
3627,72.0,0,80,1.0,33.0
3628,71.0,80,80,1.0,32.0
3629,53.0,0,673,5.0,54.0
3630,56.0,0,193,4.0,33.0
3631,65.0,480,193,4.0,33.0
3632,74.0,80,80,1.0,32.0
3633,72.0,80,80,1.0,32.0
3634,70.0,80,80,1.0,32.0
3635,68.0,80,80,1.0,32.0
3636,67.0,80,80,1.0,31.0
3637,65.0,80,80,1.0,31.0
3638,68.0,80,80,1.0,31.0
3639,67.0,80,80,1.0,31.0
3640,65.0,80,80,1.0,31.0
3641,63.0,80,64,1.0,30.0
3642,77.0,0,480,1.0,47.0
3643,75.0,480,193,1.0,34.0
3644,75.0,240,193,1.0,41.0
3645,75.0,240,193,1.0,48.0
3646,61.0,80,1380,4.0,57.0
3647,58.0,0,1380,4.0,57.0
3648,75.0,240,193,1.0,55.0
3649,55.0,0,1395,5.0,57.0
3650,75.0,0,608,1.0,64.0
3651,77.0,600,60,1.0,56.0
3652,75.0,60,60,1.0,56.0
3653,73.0,60,60,1.0,55.0
3654,72.0,60,60,1.0,54.0
3655,70.0,60,60,1.0,53.0
3656,60.0,0,908,4.0,61.0
3657,56.0,240,908,5.0,61.0
3658,68.0,60,60,1.0,52.0
3659,66.0,0,120,1.0,51.0
3660,68.0,120,39,1.0,50.0
3661,66.0,30,39,1.0,49.0
3662,65.0,30,39,1.0,49.0
3663,66.0,30,39,1.0,48.0
3664,70.0,30,120,1.0,48.0
3665,73.0,120,96,1.0,46.0
3666,58.0,0,458,5.0,53.0
3667,61.0,60,458,4.0,53.0
3668,56.0,120,240,4.0,47.0
3669,57.0,240,240,4.0,44.0
3670,65.0,0,720,1.0,47.0
3671,58.0,240,240,4.0,42.0
3672,67.0,240,60,1.0,38.0
3673,65.0,60,60,1.0,39.0
3674,64.0,60,60,1.0,41.0
3675,59.0,0,240,4.0,42.0
3676,65.0,60,60,1.0,42.0
3677,68.0,0,240,1.0,44.0
3678,60.0,60,240,4.0,47.0
3679,67.0,0,193,1.0,50.0
3680,58.0,240,193,4.0,52.0
3681,48.0,0,1395,5.0,47.0
3682,65.0,0,120,1.0,62.0
3683,57.0,240,240,3.0,63.0
3684,60.0,120,240,3.0,61.0
3685,57.0,240,240,3.0,59.0
3686,60.0,240,240,3.0,57.0
3687,53.0,0,960,5.0,63.0
3688,81.0,120,893,1.0,67.0
3689,79.0,60,60,1.0,52.0
3690,82.0,60,60,1.0,50.0
3691,81.0,60,60,1.0,48.0
3692,55.0,240,240,3.0,55.0
3693,79.0,0,60,1.0,46.0
3694,77.0,60,60,1.0,44.0
3695,76.0,60,60,1.0,43.0
3696,58.0,60,193,3.0,45.0
3697,46.0,0,435,5.0,55.0
3698,74.0,60,48,1.0,41.0
3699,53.0,60,240,3.0,37.0
3700,57.0,240,240,3.0,39.0
3701,72.0,0,600,1.0,39.0
3702,77.0,120,120,1.0,37.0
3703,53.0,240,240,3.0,41.0
3704,69.0,0,120,1.0,39.0
3705,48.0,0,0,5.0,46.0
3706,74.0,120,120,1.0,41.0
3707,57.0,120,240,3.0,44.0
3708,72.0,0,120,1.0,43.0
3709,70.0,120,120,1.0,46.0
3710,52.0,120,240,3.0,46.0
3711,67.0,0,120,1.0,48.0
3712,55.0,120,193,3.0,48.0
3713,64.0,120,96,1.0,52.0
3714,57.0,0,240,3.0,55.0
3715,53.0,0,480,5.0,55.0
3716,60.0,240,240,3.0,52.0
3717,55.0,0,240,3.0,51.0
3718,57.0,240,240,3.0,49.0
3719,49.0,240,480,5.0,51.0
3720,81.0,120,1013,1.0,60.0
3721,79.0,60,60,1.0,51.0
3722,82.0,60,60,1.0,50.0
3723,81.0,60,60,1.0,48.0
3724,50.0,0,240,5.0,48.0
3725,53.0,240,240,3.0,48.0
3726,79.0,0,60,1.0,47.0
3727,77.0,60,60,1.0,45.0
3728,76.0,60,60,1.0,44.0
3729,47.0,60,193,5.0,46.0
3730,56.0,0,193,3.0,46.0
3731,74.0,60,48,1.0,42.0
3732,57.0,60,240,3.0,34.0
3733,60.0,240,240,3.0,36.0
3734,72.0,0,548,1.0,41.0
3735,73.0,60,60,1.0,37.0
3736,76.0,60,60,1.0,37.0
3737,74.0,60,60,1.0,38.0
3738,53.0,240,240,3.0,38.0
3739,72.0,0,60,1.0,39.0
3740,70.0,60,60,1.0,40.0
3741,69.0,60,60,1.0,41.0
3742,48.0,0,960,5.0,34.0
3743,57.0,60,240,3.0,40.0
3744,67.0,60,60,1.0,41.0
3745,65.0,0,60,1.0,40.0
3746,64.0,60,60,1.0,39.0
3747,70.0,60,60,1.0,37.0
3748,69.0,60,60,1.0,36.0
3749,55.0,60,240,3.0,40.0
3750,72.0,60,60,1.0,35.0
3751,70.0,60,60,1.0,34.0
3752,67.0,60,60,1.0,32.0
3753,58.0,0,193,3.0,35.0
3754,48.0,0,435,5.0,40.0
3755,64.0,60,48,1.0,31.0
3756,64.0,0,480,2.0,30.0
3757,67.0,60,480,1.0,30.0
3758,58.0,0,480,3.0,33.0
3759,53.0,0,900,5.0,33.0
3760,60.0,0,908,3.0,33.0
3761,65.0,480,428,1.0,21.0
3762,57.0,0,428,3.0,24.0
3763,53.0,0,480,5.0,70.0
3764,41.0,960,480,5.0,70.0
3765,52.0,480,480,5.0,73.0
3766,40.0,0,480,5.0,73.0
3767,53.0,0,420,5.0,76.0
3768,41.0,0,420,5.0,76.0
3769,81.0,480,560,1.0,82.0
3770,79.0,80,80,1.0,78.0
3771,82.0,80,80,1.0,78.0
3772,81.0,80,80,1.0,77.0
3773,79.0,80,80,1.0,76.0
3774,77.0,80,80,1.0,76.0
3775,76.0,80,80,1.0,75.0
3776,74.0,80,80,1.0,75.0
3777,77.0,80,80,1.0,74.0
3778,76.0,80,80,1.0,74.0
3779,74.0,80,80,1.0,73.0
3780,73.0,80,80,1.0,72.0
3781,70.0,80,80,1.0,72.0
3782,69.0,80,80,1.0,71.0
3783,72.0,80,80,1.0,71.0
3784,70.0,80,80,1.0,70.0
3785,69.0,80,80,1.0,69.0
3786,37.0,0,1440,5.0,86.0
3787,67.0,80,80,1.0,69.0
3788,49.0,480,1440,5.0,86.0
3789,38.0,0,480,5.0,66.0
3790,50.0,80,480,5.0,66.0
3791,65.0,0,480,1.0,66.0
3792,37.0,0,480,5.0,69.0
3793,49.0,480,480,5.0,69.0
3794,50.0,0,413,5.0,72.0
3795,38.0,0,420,5.0,72.0
3796,77.0,480,560,1.0,78.0
3797,76.0,80,80,1.0,74.0
3798,79.0,80,80,1.0,73.0
3799,77.0,80,80,1.0,73.0
3800,75.0,80,80,1.0,72.0
3801,74.0,80,80,1.0,71.0
3802,72.0,80,80,1.0,71.0
3803,71.0,80,80,1.0,70.0
3804,74.0,80,80,1.0,69.0
3805,72.0,80,80,1.0,69.0
3806,70.0,80,80,1.0,68.0
3807,69.0,80,80,1.0,67.0
3808,67.0,80,80,1.0,67.0
3809,66.0,80,80,1.0,66.0
3810,69.0,80,80,1.0,65.0
3811,67.0,80,80,1.0,65.0
3812,65.0,80,80,1.0,64.0
3813,33.0,0,1440,5.0,82.0
3814,45.0,480,1440,5.0,82.0
3815,63.0,80,80,1.0,63.0
3816,62.0,0,480,1.0,63.0
3817,74.0,0,480,1.0,63.0
3818,34.0,0,480,5.0,63.0
3819,46.0,80,480,5.0,63.0
3820,73.0,0,480,1.0,65.0
3821,61.0,480,480,1.0,65.0
3822,74.0,0,428,1.0,68.0
3823,62.0,0,428,1.0,68.0
3824,53.0,480,560,5.0,77.0
3825,52.0,80,80,5.0,69.0
3826,55.0,80,80,5.0,69.0
3827,53.0,80,80,5.0,68.0
3828,51.0,80,80,5.0,68.0
3829,50.0,80,80,5.0,67.0
3830,48.0,80,80,5.0,66.0
3831,47.0,80,80,5.0,66.0
3832,50.0,80,80,5.0,65.0
3833,48.0,80,80,5.0,65.0
3834,46.0,80,80,5.0,64.0
3835,45.0,80,80,5.0,64.0
3836,43.0,80,80,5.0,63.0
3837,42.0,80,80,5.0,62.0
3838,45.0,80,80,5.0,62.0
3839,43.0,80,80,5.0,61.0
3840,41.0,80,80,5.0,61.0
3841,39.0,80,80,5.0,60.0
3842,57.0,0,1440,1.0,72.0
3843,69.0,480,1440,1.0,72.0
3844,38.0,0,480,5.0,60.0
3845,82.0,0,480,1.0,60.0
3846,70.0,80,480,1.0,60.0
3847,81.0,0,480,1.0,62.0
3848,69.0,480,480,1.0,62.0
3849,70.0,0,420,1.0,66.0
3850,82.0,0,428,1.0,66.0
3851,62.0,480,560,5.0,76.0
3852,61.0,80,80,5.0,71.0
3853,64.0,80,80,5.0,71.0
3854,62.0,80,80,5.0,71.0
3855,60.0,80,80,5.0,71.0
3856,58.0,80,80,5.0,70.0
3857,57.0,80,80,5.0,70.0
3858,56.0,80,80,5.0,70.0
3859,58.0,80,80,5.0,69.0
3860,57.0,80,80,5.0,69.0
3861,55.0,80,80,5.0,69.0
3862,54.0,80,80,5.0,69.0
3863,51.0,80,80,5.0,68.0
3864,50.0,80,80,5.0,68.0
3865,53.0,80,80,5.0,68.0
3866,51.0,80,80,5.0,68.0
3867,50.0,80,80,5.0,67.0
3868,48.0,80,80,5.0,67.0
3869,78.0,480,1440,1.0,71.0
3870,66.0,0,1440,1.0,71.0
3871,79.0,80,80,1.0,67.0
3872,78.0,80,80,1.0,67.0
3873,81.0,80,80,1.0,66.0
3874,79.0,80,80,1.0,66.0
3875,77.0,80,80,1.0,66.0
3876,75.0,80,80,1.0,65.0
3877,74.0,80,80,1.0,65.0
3878,73.0,80,80,1.0,65.0
3879,75.0,80,80,1.0,65.0
3880,74.0,80,80,1.0,64.0
3881,72.0,80,80,1.0,64.0
3882,46.0,0,908,5.0,67.0
3883,70.0,80,80,1.0,64.0
3884,68.0,80,80,1.0,64.0
3885,67.0,80,80,1.0,63.0
3886,70.0,80,80,1.0,63.0
3887,68.0,80,80,1.0,63.0
3888,67.0,80,80,1.0,63.0
3889,47.0,0,420,5.0,64.0
3890,65.0,80,80,1.0,62.0
3891,63.0,80,80,1.0,62.0
3892,62.0,80,80,1.0,63.0
3893,65.0,80,80,1.0,62.0
3894,63.0,80,80,1.0,62.0
3895,62.0,80,80,1.0,61.0
3896,48.0,0,420,5.0,62.0
3897,60.0,80,64,1.0,61.0
3898,58.0,80,40,1.0,60.0
3899,60.0,40,40,1.0,60.0
3900,58.0,40,40,1.0,59.0
3901,60.0,40,40,1.0,59.0
3902,58.0,40,40,1.0,59.0
3903,60.0,40,40,1.0,58.0
3904,58.0,40,40,1.0,58.0
3905,60.0,40,40,1.0,58.0
3906,58.0,40,40,1.0,57.0
3907,60.0,40,60,1.0,57.0
3908,58.0,60,60,1.0,57.0
3909,57.0,60,156,1.0,56.0
3910,55.0,240,156,1.0,54.0
3911,49.0,0,900,5.0,60.0
3912,62.0,240,80,5.0,61.0
3913,61.0,80,80,5.0,61.0
3914,64.0,80,80,5.0,61.0
3915,62.0,80,80,5.0,60.0
3916,60.0,80,80,5.0,60.0
3917,53.0,0,420,1.0,61.0
3918,58.0,80,80,5.0,60.0
3919,57.0,0,80,5.0,59.0
3920,56.0,80,80,5.0,59.0
3921,58.0,80,80,5.0,59.0
3922,57.0,80,80,5.0,58.0
3923,55.0,80,80,5.0,58.0
3924,65.0,80,420,1.0,59.0
3925,77.0,0,420,1.0,59.0
3926,53.0,80,80,5.0,58.0
3927,51.0,0,80,5.0,58.0
3928,50.0,80,80,5.0,57.0
3929,53.0,80,80,5.0,57.0
3930,51.0,80,80,5.0,57.0
3931,50.0,80,80,5.0,56.0
3932,66.0,0,413,1.0,58.0
3933,78.0,80,420,1.0,58.0
3934,48.0,80,80,5.0,56.0
3935,46.0,80,80,5.0,56.0
3936,45.0,80,80,5.0,55.0
3937,48.0,80,80,5.0,55.0
3938,46.0,80,80,5.0,55.0
3939,45.0,80,80,5.0,55.0
3940,67.0,0,420,1.0,56.0
3941,79.0,0,420,1.0,56.0
3942,43.0,80,64,5.0,54.0
3943,41.0,0,40,5.0,53.0
3944,43.0,40,40,5.0,53.0
3945,41.0,40,40,5.0,53.0
3946,43.0,40,40,5.0,52.0
3947,41.0,40,40,5.0,52.0
3948,43.0,40,40,5.0,52.0
3949,41.0,40,40,5.0,52.0
3950,43.0,40,40,5.0,51.0
3951,41.0,40,40,5.0,51.0
3952,43.0,40,60,5.0,51.0
3953,41.0,60,60,5.0,50.0
3954,40.0,60,156,5.0,50.0
3955,38.0,240,156,5.0,48.0
3956,80.0,0,960,1.0,54.0
3957,68.0,80,960,1.0,54.0
3958,37.0,240,413,5.0,46.0
3959,81.0,0,420,1.0,49.0
3960,69.0,0,420,1.0,49.0
3961,53.0,0,673,5.0,56.0
3962,41.0,960,673,5.0,56.0
3963,50.0,0,240,5.0,38.0
3964,38.0,240,240,5.0,38.0
3965,52.0,0,240,5.0,42.0
3966,40.0,240,240,5.0,42.0
3967,41.0,0,193,5.0,46.0
3968,53.0,240,193,5.0,46.0
3969,79.0,480,1140,1.0,58.0
3970,70.0,0,1140,2.0,58.0
3971,76.0,240,240,1.0,45.0
3972,64.0,0,240,2.0,45.0
3973,43.0,0,673,5.0,62.0
3974,55.0,240,673,5.0,62.0
3975,52.0,240,240,5.0,42.0
3976,40.0,0,240,5.0,42.0
3977,54.0,0,240,5.0,47.0
3978,42.0,240,240,5.0,47.0
3979,43.0,240,193,5.0,51.0
3980,55.0,0,193,5.0,51.0
3981,72.0,0,1133,2.0,62.0
3982,81.0,240,1133,1.0,62.0
3983,78.0,240,240,1.0,48.0
3984,66.0,0,240,2.0,48.0
3985,57.0,0,673,5.0,66.0
3986,45.0,240,673,5.0,66.0
3987,42.0,0,240,5.0,48.0
3988,54.0,240,240,5.0,48.0
3989,43.0,0,240,5.0,51.0
3990,55.0,240,240,5.0,51.0
3991,74.0,240,900,2.0,68.0
3992,82.0,0,900,1.0,68.0
3993,57.0,0,240,5.0,54.0
3994,45.0,240,240,5.0,54.0
3995,46.0,0,193,5.0,70.0
3996,58.0,0,193,5.0,70.0
3997,52.0,240,240,5.0,61.0
3998,55.0,0,240,4.0,61.0
3999,70.0,0,653,2.0,70.0
4000,74.0,240,660,1.0,70.0
4001,71.0,0,240,1.0,54.0
4002,68.0,240,240,2.0,54.0
4003,72.0,240,240,1.0,58.0
4004,69.0,0,240,2.0,58.0
4005,71.0,0,193,2.0,62.0
4006,74.0,240,193,1.0,62.0
4007,63.0,0,1148,4.0,75.0
4008,53.0,240,1148,5.0,75.0
4009,57.0,240,240,4.0,71.0
4010,54.0,0,240,5.0,71.0
4011,75.0,0,660,1.0,76.0
4012,72.0,240,668,2.0,76.0
4013,73.0,240,240,1.0,59.0
4014,70.0,0,240,2.0,59.0
4015,71.0,240,240,2.0,63.0
4016,74.0,0,240,1.0,63.0
4017,65.0,0,893,4.0,80.0
4018,55.0,240,900,5.0,80.0
4019,73.0,240,240,2.0,66.0
4020,76.0,0,240,1.0,66.0
4021,74.0,0,193,2.0,80.0
4022,77.0,0,193,1.0,80.0
4023,71.0,240,240,1.0,68.0
4024,67.0,0,240,2.0,68.0
4025,50.0,0,660,5.0,80.0
4026,53.0,240,660,4.0,80.0
4027,47.0,240,240,4.0,63.0
4028,50.0,0,240,5.0,63.0
4029,51.0,240,240,4.0,66.0
4030,48.0,0,240,5.0,66.0
4031,50.0,0,193,5.0,70.0
4032,53.0,240,193,4.0,70.0
4033,75.0,0,1140,2.0,83.0
4034,79.0,240,1140,1.0,83.0
4035,68.0,240,240,2.0,71.0
4036,72.0,0,240,1.0,71.0
4037,55.0,0,675,4.0,84.0
4038,51.0,240,675,5.0,84.0
4039,52.0,240,240,4.0,67.0
4040,49.0,0,240,5.0,67.0
4041,50.0,0,240,5.0,70.0
4042,53.0,240,240,4.0,70.0
4043,55.0,240,193,4.0,74.0
4044,52.0,0,193,5.0,74.0
4045,80.0,240,1148,1.0,85.0
4046,77.0,0,1148,2.0,85.0
4047,74.0,0,240,1.0,77.0
4048,70.0,240,240,2.0,77.0
4049,53.0,240,675,5.0,86.0
4050,56.0,0,690,4.0,86.0
4051,54.0,240,240,4.0,71.0
4052,51.0,0,240,5.0,71.0
4053,55.0,240,240,4.0,74.0
4054,52.0,0,240,5.0,74.0
4055,79.0,0,908,2.0,88.0
4056,82.0,240,923,1.0,88.0
4057,54.0,240,240,5.0,78.0
4058,57.0,0,240,4.0,78.0
4059,58.0,240,193,4.0,93.0
4060,55.0,0,193,5.0,93.0
4061,52.0,0,240,4.0,83.0
4062,48.0,240,240,5.0,83.0
4063,82.0,0,683,1.0,93.0
4064,79.0,0,683,2.0,93.0
4065,80.0,0,240,1.0,77.0
4066,76.0,240,240,2.0,77.0
4067,81.0,240,240,1.0,80.0
4068,78.0,0,240,2.0,80.0
4069,83.0,240,193,1.0,83.0
4070,80.0,0,193,2.0,83.0
4071,60.0,240,1140,4.0,92.0
4072,57.0,0,1140,5.0,92.0
4073,50.0,0,240,5.0,86.0
4074,54.0,240,240,4.0,86.0
4075,81.0,0,690,2.0,95.0
4076,84.0,240,690,1.0,95.0
4077,78.0,0,240,2.0,79.0
4078,81.0,240,240,1.0,79.0
4079,79.0,240,240,2.0,82.0
4080,82.0,0,240,1.0,82.0
4081,81.0,240,193,2.0,86.0
4082,84.0,0,193,1.0,86.0
4083,62.0,240,1140,4.0,97.0
4084,58.0,0,1140,5.0,97.0
4085,51.0,240,240,5.0,94.0
4086,55.0,0,240,4.0,94.0
4087,82.0,240,668,2.0,102.0
4088,86.0,0,675,1.0,102.0
4089,80.0,240,240,2.0,86.0
4090,83.0,0,240,1.0,86.0
4091,63.0,240,720,4.0,104.0
4092,81.0,240,240,2.0,89.0
4093,60.0,0,720,5.0,104.0
4094,84.0,0,240,1.0,89.0
4095,86.0,240,240,1.0,93.0
4096,58.0,0,240,5.0,90.0
4097,82.0,0,240,2.0,93.0
4098,62.0,0,240,4.0,90.0
4099,87.0,240,193,1.0,98.0
4100,84.0,0,193,2.0,98.0
4101,57.0,0,240,5.0,95.0
4102,60.0,0,240,4.0,95.0
4103,84.0,0,193,2.0,102.0
4104,58.0,240,193,4.0,99.0
4105,54.0,0,193,5.0,99.0
4106,87.0,0,193,1.0,102.0
4107,87.0,0,560,1.0,108.0
4108,84.0,0,560,2.0,108.0
4109,84.0,560,80,1.0,107.0
4110,81.0,80,80,1.0,106.0
4111,77.0,80,80,1.0,105.0
4112,75.0,80,80,1.0,104.0
4113,53.0,0,960,5.0,108.0
4114,63.0,0,960,4.0,108.0
4115,57.0,0,960,4.0,108.0
4116,60.0,240,960,4.0,108.0
4117,72.0,80,80,1.0,103.0
4118,69.0,80,80,1.0,103.0
4119,65.0,80,80,1.0,102.0
4120,63.0,80,80,1.0,101.0
4121,60.0,80,80,1.0,100.0
4122,57.0,80,80,1.0,100.0
4123,53.0,80,80,1.0,99.0
4124,41.0,80,480,1.0,98.0
4125,62.0,0,480,4.0,40.0
4126,58.0,0,480,5.0,40.0
4127,70.0,1440,480,1.0,40.0
4128,60.0,0,480,5.0,44.0
4129,63.0,480,480,4.0,44.0
4130,69.0,0,480,1.0,44.0
4131,65.0,0,410,4.0,48.0
4132,62.0,0,420,5.0,48.0
4133,70.0,480,425,1.0,48.0
4134,61.0,0,480,4.0,60.0
4135,60.0,480,480,4.0,51.0
4136,64.0,0,960,1.0,60.0
4137,55.0,480,1380,5.0,60.0
4138,72.0,0,420,1.0,53.0
4139,71.0,480,40,1.0,51.0
4140,72.0,40,40,1.0,53.0
4141,74.0,40,40,1.0,56.0
4142,58.0,480,960,4.0,53.0
4143,72.0,40,600,1.0,59.0
4144,70.0,240,120,1.0,52.0
4145,69.0,120,120,1.0,50.0
4146,67.0,120,120,1.0,49.0
4147,53.0,0,1200,5.0,51.0
4148,57.0,360,720,4.0,55.0
4149,65.0,120,120,1.0,47.0
4150,63.0,0,120,1.0,46.0
4151,58.0,0,200,4.0,46.0
4152,55.0,120,210,5.0,46.0
4153,67.0,120,95,1.0,45.0
4154,65.0,0,240,1.0,47.0
4155,63.0,240,40,1.0,42.0
4156,65.0,40,40,1.0,41.0
4157,63.0,40,40,1.0,41.0
4158,65.0,40,30,1.0,40.0
4159,63.0,30,30,1.0,39.0
4160,62.0,30,30,1.0,39.0
4161,60.0,0,480,4.0,47.0
4162,63.0,30,30,1.0,38.0
4163,57.0,120,480,5.0,47.0
4164,58.0,30,360,4.0,37.0
4165,62.0,0,360,1.0,37.0
4166,74.0,0,660,1.0,60.0
4167,65.0,480,665,2.0,60.0
4168,71.0,240,240,1.0,40.0
4169,62.0,0,240,2.0,40.0
4170,63.0,240,240,2.0,43.0
4171,72.0,0,240,1.0,43.0
4172,74.0,0,240,1.0,46.0
4173,65.0,240,240,2.0,46.0
4174,67.0,0,240,2.0,48.0
4175,75.0,240,240,1.0,48.0
4176,36.0,480,1380,5.0,46.0
4177,72.0,240,180,1.0,46.0
4178,48.0,0,1385,5.0,46.0
4179,70.0,240,240,1.0,52.0
4180,69.0,240,180,1.0,48.0
4181,60.0,0,480,5.0,47.0
4182,63.0,0,480,4.0,47.0
4183,72.0,0,240,1.0,56.0
4184,65.0,0,420,4.0,50.0
4185,70.0,240,180,1.0,51.0
4186,62.0,240,425,5.0,50.0
4187,74.0,240,660,2.0,70.0
4188,77.0,0,660,1.0,70.0
4189,71.0,240,240,2.0,52.0
4190,74.0,0,240,1.0,52.0
4191,75.0,240,240,1.0,56.0
4192,72.0,0,240,2.0,56.0
4193,74.0,0,240,2.0,59.0
4194,77.0,240,240,1.0,59.0
4195,79.0,240,240,1.0,62.0
4196,75.0,0,240,2.0,62.0
4197,75.0,0,180,1.0,59.0
4198,72.0,240,180,2.0,59.0
4199,51.0,0,1380,5.0,59.0
4200,39.0,480,1380,5.0,59.0
4201,74.0,0,240,1.0,66.0
4202,69.0,240,410,2.0,66.0
4203,72.0,240,180,1.0,61.0
4204,63.0,0,480,4.0,59.0
4205,53.0,0,480,5.0,59.0
4206,75.0,0,240,1.0,70.0
4207,62.0,0,410,4.0,64.0
4208,58.0,0,410,5.0,64.0
4209,74.0,240,180,1.0,66.0
4210,70.0,240,420,2.0,70.0
4211,79.0,0,240,1.0,74.0
4212,72.0,240,410,2.0,74.0
4213,57.0,0,420,4.0,68.0
4214,77.0,240,180,1.0,71.0
4215,45.0,0,425,5.0,68.0
4216,84.0,0,240,1.0,78.0
4217,74.0,0,420,2.0,78.0
4218,82.0,240,240,1.0,73.0
4219,81.0,240,240,1.0,68.0
4220,55.0,240,960,4.0,75.0
4221,43.0,0,960,5.0,75.0
4222,79.0,240,240,1.0,64.0
4223,77.0,0,240,1.0,59.0
4224,55.0,0,420,5.0,58.0
4225,60.0,240,420,4.0,58.0
4226,76.0,240,180,1.0,54.0
4227,70.0,0,900,2.0,68.0
4228,70.0,240,480,2.0,58.0
4229,64.0,0,480,4.0,54.0
4230,79.0,0,480,1.0,58.0
4231,77.0,0,405,1.0,50.0
4232,69.0,0,410,2.0,50.0
4233,53.0,0,890,5.0,54.0
4234,65.0,480,608,4.0,50.0
4235,67.0,600,120,4.0,45.0
4236,63.0,120,120,4.0,43.0
4237,60.0,120,95,4.0,40.0
4238,58.0,120,480,5.0,48.0
4239,57.0,480,480,5.0,51.0
4240,58.0,0,425,5.0,54.0
4241,85.0,480,548,1.0,58.0
4242,83.0,80,80,1.0,46.0
4243,85.0,80,80,1.0,46.0
4244,84.0,80,80,1.0,47.0
4245,82.0,80,80,1.0,47.0
4246,81.0,80,80,1.0,48.0
4247,79.0,80,80,1.0,49.0
4248,78.0,80,80,1.0,49.0
4249,81.0,80,80,1.0,50.0
4250,79.0,80,80,1.0,50.0
4251,77.0,80,80,1.0,51.0
4252,76.0,80,80,1.0,52.0
4253,52.0,480,960,5.0,64.0
4254,73.0,0,80,1.0,52.0
4255,72.0,80,80,1.0,53.0
4256,75.0,80,80,1.0,53.0
4257,73.0,80,80,1.0,54.0
4258,72.0,80,80,1.0,55.0
4259,60.0,0,420,5.0,56.0
4260,64.0,80,420,4.0,52.0
4261,70.0,80,64,1.0,55.0
4262,59.0,0,40,5.0,61.0
4263,60.0,40,40,5.0,63.0
4264,62.0,40,40,5.0,64.0
4265,70.0,0,240,1.0,56.0
4266,69.0,30,0,1.0,54.0
4267,70.0,30,60,1.0,53.0
4268,69.0,30,0,1.0,57.0
4269,67.0,30,60,1.0,56.0
4270,70.0,60,60,1.0,60.0
4271,72.0,60,120,1.0,62.0
4272,63.0,80,683,2.0,56.0
4273,60.0,40,600,5.0,66.0
4274,70.0,120,120,1.0,58.0
4275,58.0,0,120,5.0,57.0
4276,57.0,120,120,5.0,56.0
4277,55.0,120,120,5.0,55.0
4278,72.0,120,458,1.0,56.0
4279,63.0,0,458,2.0,56.0
4280,53.0,120,120,5.0,53.0
4281,51.0,0,120,5.0,52.0
4282,72.0,120,193,1.0,49.0
4283,69.0,0,193,2.0,49.0
4284,55.0,120,95,5.0,50.0
4285,72.0,120,180,1.0,53.0
4286,53.0,0,240,5.0,52.0
4287,74.0,180,60,1.0,47.0
4288,72.0,30,60,1.0,46.0
4289,51.0,30,40,5.0,45.0
4290,71.0,0,60,1.0,45.0
4291,53.0,10,40,5.0,44.0
4292,72.0,30,60,1.0,44.0
4293,51.0,40,40,5.0,43.0
4294,53.0,40,30,5.0,42.0
4295,51.0,30,30,5.0,41.0
4296,77.0,0,193,1.0,45.0
4297,50.0,30,30,5.0,41.0
4298,51.0,30,30,5.0,40.0
4299,69.0,0,480,2.0,53.0
4300,77.0,0,192,1.0,40.0
4301,70.0,0,193,2.0,40.0
4302,50.0,30,420,5.0,39.0
4303,65.0,240,240,1.0,42.0
4304,70.0,240,240,1.0,52.0
4305,74.0,240,193,1.0,61.0
4306,77.0,0,240,1.0,78.0
4307,75.0,240,180,1.0,75.0
4308,74.0,240,120,1.0,72.0
4309,72.0,120,120,1.0,70.0
4310,70.0,120,120,1.0,68.0
4311,69.0,120,120,1.0,67.0
4312,67.0,120,240,1.0,65.0
4313,48.0,240,1380,5.0,78.0
4314,51.0,0,1380,4.0,78.0
4315,65.0,240,180,1.0,62.0
4316,57.0,0,1380,4.0,78.0
4317,53.0,0,1385,4.0,78.0
4318,79.0,0,240,1.0,84.0
4319,77.0,240,180,1.0,80.0
4320,75.0,240,120,1.0,76.0
4321,74.0,120,120,1.0,75.0
4322,72.0,120,120,1.0,73.0
4323,71.0,120,120,1.0,71.0
4324,68.0,120,240,1.0,70.0
4325,53.0,240,1370,4.0,84.0
4326,50.0,0,1380,5.0,84.0
4327,67.0,240,180,1.0,66.0
4328,59.0,0,1380,4.0,84.0
4329,55.0,0,1380,4.0,84.0
4330,80.0,0,240,1.0,89.0
4331,79.0,240,180,1.0,85.0
4332,77.0,240,120,1.0,81.0
4333,75.0,120,120,1.0,79.0
4334,74.0,120,120,1.0,77.0
4335,72.0,120,120,1.0,76.0
4336,71.0,120,120,1.0,74.0
4337,72.0,120,120,1.0,72.0
4338,74.0,120,120,1.0,70.0
4339,55.0,240,1380,4.0,89.0
4340,51.0,0,1385,5.0,89.0
4341,60.0,0,1385,4.0,89.0
4342,75.0,120,95,1.0,70.0
4343,70.0,0,360,1.0,72.0
4344,72.0,360,60,1.0,62.0
4345,70.0,60,60,1.0,60.0
4346,62.0,0,480,4.0,72.0
4347,60.0,0,410,4.0,58.0
4348,69.0,60,420,1.0,58.0
4349,53.0,120,905,5.0,72.0
4350,70.0,960,120,1.0,42.0
4351,82.0,120,360,1.0,48.0
4352,81.0,360,480,1.0,51.0
4353,82.0,480,420,1.0,55.0
4354,64.0,120,120,5.0,66.0
4355,65.0,120,120,5.0,65.0
4356,61.0,120,120,5.0,63.0
4357,62.0,120,120,5.0,62.0
4358,57.0,120,120,5.0,60.0
4359,58.0,120,120,5.0,58.0
4360,52.0,120,120,5.0,57.0
4361,53.0,120,120,5.0,55.0
4362,49.0,120,120,5.0,54.0
4363,50.0,120,120,5.0,52.0
4364,77.0,480,1380,1.0,74.0
4365,46.0,120,360,5.0,50.0
4366,84.0,120,480,1.0,50.0
4367,45.0,240,480,5.0,52.0
4368,83.0,240,480,1.0,54.0
4369,44.0,240,480,5.0,56.0
4370,84.0,240,413,1.0,58.0
4371,45.0,240,193,5.0,60.0
4372,71.0,120,120,5.0,74.0
4373,72.0,120,120,5.0,73.0
4374,68.0,120,120,5.0,71.0
4375,69.0,120,120,5.0,70.0
4376,62.0,120,120,5.0,68.0
4377,63.0,120,120,5.0,67.0
4378,59.0,120,120,5.0,65.0
4379,60.0,120,120,5.0,64.0
4380,56.0,120,120,5.0,62.0
4381,77.0,240,1230,1.0,82.0
4382,57.0,0,120,5.0,61.0
4383,51.0,120,96,5.0,59.0
4384,84.0,120,495,1.0,61.0
4385,50.0,120,480,5.0,58.0
4386,83.0,240,480,1.0,60.0
4387,49.0,240,480,5.0,63.0
4388,82.0,240,480,1.0,65.0
4389,50.0,240,428,5.0,68.0
4390,83.0,240,193,1.0,70.0
4391,77.0,120,120,1.0,80.0
4392,80.0,120,120,1.0,78.0
4393,74.0,120,120,1.0,77.0
4394,77.0,120,120,1.0,75.0
4395,71.0,120,120,1.0,74.0
4396,74.0,120,120,1.0,72.0
4397,68.0,120,120,1.0,71.0
4398,71.0,120,120,1.0,69.0
4399,65.0,120,120,1.0,67.0
4400,68.0,120,120,1.0,66.0
4401,44.0,240,1370,4.0,83.0
4402,41.0,0,1370,5.0,83.0
4403,47.0,0,1380,4.0,83.0
4404,50.0,0,1385,4.0,83.0
4405,62.0,120,95,1.0,64.0
4406,75.0,120,120,1.0,85.0
4407,80.0,120,120,1.0,83.0
4408,71.0,120,120,1.0,81.0
4409,75.0,120,120,1.0,79.0
4410,68.0,120,120,1.0,77.0
4411,71.0,120,120,1.0,75.0
4412,63.0,120,120,1.0,74.0
4413,68.0,120,120,1.0,72.0
4414,59.0,120,120,1.0,70.0
4415,63.0,120,120,1.0,68.0
4416,51.0,0,1370,4.0,87.0
4417,39.0,0,1370,5.0,87.0
4418,44.0,0,1380,4.0,87.0
4419,47.0,120,1385,4.0,87.0
4420,56.0,120,95,1.0,66.0
4421,79.0,120,120,1.0,88.0
4422,82.0,120,120,1.0,86.0
4423,76.0,120,120,1.0,84.0
4424,79.0,120,120,1.0,81.0
4425,70.0,120,120,1.0,79.0
4426,76.0,120,120,1.0,77.0
4427,67.0,120,120,1.0,75.0
4428,70.0,120,120,1.0,72.0
4429,64.0,120,120,1.0,70.0
4430,67.0,120,120,1.0,68.0
4431,37.0,120,1380,5.0,91.0
4432,43.0,0,1380,4.0,91.0
4433,46.0,0,1380,4.0,91.0
4434,40.0,0,1380,4.0,91.0
4435,58.0,120,95,1.0,66.0
4436,38.0,120,120,5.0,61.0
4437,41.0,120,120,4.0,61.0
4438,46.0,120,120,4.0,60.0
4439,50.0,120,95,4.0,60.0
4440,53.0,120,120,1.0,57.0
4441,58.0,120,120,1.0,56.0
4442,62.0,120,120,1.0,55.0
4443,65.0,120,95,1.0,54.0
4444,39.0,120,240,5.0,57.0
4445,55.0,120,120,1.0,53.0
4446,58.0,120,120,1.0,52.0
4447,67.0,120,95,1.0,51.0
4448,41.0,120,120,1.0,50.0
4449,46.0,120,120,1.0,49.0
4450,50.0,120,120,1.0,48.0
4451,53.0,120,95,1.0,47.0
4452,62.0,120,120,1.0,46.0
4453,65.0,120,120,1.0,45.0
4454,70.0,120,120,1.0,44.0
4455,74.0,120,95,1.0,43.0
4456,29.0,120,230,5.0,46.0
4457,60.0,120,120,1.0,42.0
4458,63.0,120,120,1.0,41.0
4459,69.0,120,95,1.0,40.0
4460,62.0,0,240,4.0,61.0
4461,70.0,0,420,1.0,61.0
4462,65.0,240,240,4.0,53.0
4463,62.0,240,240,4.0,51.0
4464,65.0,240,240,4.0,50.0
4465,82.0,0,80,1.0,50.0
4466,81.0,80,80,1.0,49.0
4467,84.0,80,80,1.0,49.0
4468,60.0,240,240,4.0,50.0
4469,63.0,0,240,4.0,50.0
4470,82.0,80,80,1.0,49.0
4471,81.0,80,80,1.0,49.0
4472,65.0,0,193,4.0,49.0
4473,58.0,120,1410,5.0,61.0
4474,79.0,80,64,1.0,48.0
4475,62.0,80,240,4.0,54.0
4476,65.0,240,240,4.0,48.0
4477,77.0,0,548,1.0,54.0
4478,76.0,80,80,1.0,47.0
4479,79.0,80,80,1.0,47.0
4480,62.0,240,240,4.0,47.0
4481,77.0,0,80,1.0,46.0
4482,75.0,80,80,1.0,46.0
4483,65.0,80,240,4.0,46.0
4484,74.0,80,80,1.0,46.0
4485,72.0,0,80,1.0,46.0
4486,71.0,80,80,1.0,46.0
4487,63.0,80,240,4.0,46.0
4488,74.0,80,80,1.0,45.0
4489,72.0,80,80,1.0,45.0
4490,70.0,80,80,1.0,45.0
4491,65.0,0,193,4.0,45.0
4492,58.0,0,1410,5.0,54.0
4493,69.0,80,64,1.0,45.0
4494,69.0,0,240,4.0,56.0
4495,60.0,80,240,4.0,56.0
4496,65.0,240,240,4.0,47.0
4497,75.0,0,480,1.0,56.0
4498,74.0,0,193,1.0,43.0
4499,62.0,240,240,4.0,43.0
4500,70.0,0,240,4.0,43.0
4501,65.0,240,240,4.0,43.0
4502,82.0,240,80,1.0,42.0
4503,81.0,80,80,1.0,42.0
4504,84.0,80,80,1.0,42.0
4505,60.0,0,240,4.0,42.0
4506,63.0,0,240,4.0,42.0
4507,82.0,0,80,1.0,41.0
4508,81.0,80,80,1.0,41.0
4509,65.0,80,193,4.0,41.0
4510,58.0,0,1403,5.0,56.0
4511,79.0,80,64,1.0,41.0
4512,62.0,0,240,4.0,44.0
4513,65.0,240,240,4.0,40.0
4514,77.0,80,548,1.0,46.0
4515,76.0,80,80,1.0,39.0
4516,62.0,240,240,4.0,40.0
4517,79.0,80,80,1.0,39.0
4518,77.0,0,80,1.0,39.0
4519,75.0,80,80,1.0,39.0
4520,74.0,80,80,1.0,39.0
4521,65.0,80,240,4.0,39.0
4522,72.0,80,80,1.0,38.0
4523,71.0,80,80,1.0,38.0
4524,74.0,80,80,1.0,38.0
4525,63.0,0,240,4.0,38.0
4526,72.0,80,80,1.0,38.0
4527,70.0,80,80,1.0,38.0
4528,65.0,0,193,4.0,38.0
4529,58.0,0,1410,5.0,44.0
4530,69.0,80,64,1.0,37.0
4531,63.0,0,480,4.0,54.0
4532,69.0,0,480,4.0,54.0
4533,79.0,0,480,1.0,52.0
4534,77.0,0,80,1.0,36.0
4535,76.0,80,80,1.0,36.0
4536,70.0,0,193,4.0,42.0
4537,62.0,480,193,4.0,42.0
4538,58.0,80,673,5.0,54.0
4539,79.0,80,80,1.0,36.0
4540,77.0,80,80,1.0,35.0
4541,75.0,80,80,1.0,35.0
4542,74.0,80,80,1.0,35.0
4543,72.0,80,80,1.0,35.0
4544,71.0,80,80,1.0,35.0
4545,74.0,80,80,1.0,34.0
4546,72.0,80,80,1.0,34.0
4547,70.0,80,80,1.0,34.0
4548,69.0,80,64,1.0,34.0
4549,69.0,0,480,4.0,58.0
4550,63.0,0,480,4.0,58.0
4551,78.0,0,480,1.0,50.0
4552,77.0,480,80,1.0,32.0
4553,76.0,80,80,1.0,32.0
4554,61.0,0,193,4.0,53.0
4555,58.0,80,673,5.0,58.0
4556,70.0,0,193,4.0,53.0
4557,79.0,80,80,1.0,32.0
4558,77.0,80,80,1.0,32.0
4559,75.0,80,80,1.0,31.0
4560,73.0,80,80,1.0,31.0
4561,72.0,80,80,1.0,31.0
4562,70.0,80,80,1.0,31.0
4563,73.0,80,80,1.0,31.0
4564,72.0,80,80,1.0,30.0
4565,70.0,80,80,1.0,30.0
4566,68.0,80,64,1.0,30.0
4567,82.0,80,480,1.0,46.0
4568,80.0,480,193,1.0,39.0
4569,80.0,240,193,1.0,47.0
4570,80.0,240,193,1.0,54.0
4571,63.0,0,1380,4.0,63.0
4572,66.0,0,1380,4.0,63.0
4573,80.0,240,193,1.0,63.0
4574,60.0,0,1395,5.0,63.0
4575,80.0,0,608,1.0,72.0
4576,82.0,600,60,1.0,64.0
4577,80.0,60,60,1.0,63.0
4578,78.0,60,60,1.0,62.0
4579,77.0,60,60,1.0,61.0
4580,75.0,60,60,1.0,61.0
4581,65.0,240,908,4.0,71.0
4582,61.0,0,908,5.0,71.0
4583,73.0,60,60,1.0,60.0
4584,71.0,0,120,1.0,59.0
4585,73.0,120,39,1.0,58.0
4586,71.0,30,39,1.0,58.0
4587,70.0,30,39,1.0,57.0
4588,71.0,30,39,1.0,57.0
4589,75.0,30,120,1.0,56.0
4590,78.0,120,96,1.0,55.0
4591,63.0,0,458,5.0,59.0
4592,66.0,60,458,4.0,59.0
4593,61.0,0,240,3.0,57.0
4594,62.0,240,240,3.0,53.0
4595,70.0,120,720,1.0,57.0
4596,63.0,240,240,3.0,49.0
4597,72.0,240,60,1.0,42.0
4598,70.0,60,60,1.0,44.0
4599,69.0,60,60,1.0,45.0
4600,70.0,60,60,1.0,47.0
4601,64.0,0,240,3.0,44.0
4602,73.0,60,240,1.0,48.0
4603,65.0,0,240,3.0,50.0
4604,72.0,240,193,1.0,54.0
4605,63.0,0,193,3.0,55.0
4606,53.0,0,1395,5.0,57.0
4607,70.0,0,120,1.0,65.0
4608,62.0,0,240,3.0,65.0
4609,65.0,120,240,3.0,63.0
4610,62.0,240,240,3.0,61.0
4611,65.0,240,240,3.0,60.0
4612,58.0,240,960,5.0,65.0
4613,86.0,120,893,1.0,67.0
4614,84.0,60,60,1.0,57.0
4615,87.0,60,60,1.0,55.0
4616,86.0,60,60,1.0,54.0
4617,60.0,0,240,3.0,58.0
4618,84.0,60,60,1.0,52.0
4619,82.0,60,60,1.0,51.0
4620,81.0,60,60,1.0,50.0
4621,63.0,0,193,3.0,52.0
4622,51.0,240,435,5.0,58.0
4623,79.0,60,48,1.0,48.0
4624,58.0,0,240,3.0,44.0
4625,62.0,240,240,3.0,45.0
4626,77.0,0,600,1.0,44.0
4627,82.0,120,120,1.0,50.0
4628,58.0,240,240,3.0,47.0
4629,74.0,0,120,1.0,51.0
4630,62.0,120,240,3.0,48.0
4631,79.0,120,120,1.0,52.0
4632,53.0,60,960,5.0,44.0
4633,77.0,120,120,1.0,50.0
4634,57.0,0,240,3.0,50.0
4635,75.0,120,120,1.0,48.0
4636,72.0,120,120,1.0,47.0
4637,60.0,0,193,3.0,51.0
4638,53.0,0,443,5.0,50.0
4639,69.0,120,96,1.0,45.0
4640,62.0,120,240,3.0,56.0
4641,65.0,240,240,3.0,54.0
4642,58.0,0,480,5.0,56.0
4643,60.0,240,240,3.0,53.0
4644,62.0,240,240,3.0,51.0
4645,54.0,0,480,5.0,53.0
4646,86.0,0,1013,1.0,56.0
4647,84.0,60,60,1.0,50.0
4648,87.0,60,60,1.0,49.0
4649,86.0,60,60,1.0,49.0
4650,55.0,240,240,5.0,51.0
4651,58.0,0,240,3.0,51.0
4652,84.0,60,60,1.0,48.0
4653,82.0,60,60,1.0,47.0
4654,81.0,60,60,1.0,46.0
4655,61.0,0,193,3.0,49.0
4656,52.0,0,193,5.0,49.0
4657,79.0,60,48,1.0,45.0
4658,62.0,0,240,3.0,46.0
4659,65.0,240,240,3.0,42.0
4660,77.0,60,548,1.0,44.0
4661,78.0,60,60,1.0,45.0
4662,81.0,60,60,1.0,46.0
4663,58.0,240,240,3.0,45.0
4664,79.0,60,60,1.0,47.0
4665,77.0,0,60,1.0,47.0
4666,75.0,60,60,1.0,48.0
4667,74.0,60,60,1.0,49.0
4668,53.0,0,0,5.0,49.0
4669,62.0,60,240,3.0,47.0
4670,72.0,60,60,1.0,49.0
4671,70.0,60,60,1.0,49.0
4672,69.0,60,60,1.0,48.0
4673,75.0,60,60,1.0,48.0
4674,60.0,0,240,3.0,49.0
4675,74.0,60,60,1.0,47.0
4676,77.0,0,60,1.0,47.0
4677,75.0,60,60,1.0,46.0
4678,72.0,60,60,1.0,46.0
4679,63.0,60,193,3.0,47.0
4680,69.0,60,48,1.0,45.0
4681,70.0,60,80,1.0,45.0
4682,69.0,80,80,1.0,44.0
4683,72.0,80,80,1.0,44.0
4684,70.0,80,80,1.0,43.0
4685,69.0,80,80,1.0,42.0
4686,62.0,0,450,3.0,45.0
4687,58.0,0,458,5.0,45.0
4688,67.0,80,80,1.0,42.0
4689,65.0,80,80,1.0,41.0
4690,64.0,80,80,1.0,40.0
4691,67.0,80,80,1.0,40.0
4692,65.0,80,80,1.0,39.0
4693,63.0,80,80,1.0,38.0
4694,62.0,80,80,1.0,38.0
4695,60.0,80,80,1.0,37.0
4696,59.0,80,80,1.0,36.0
4697,62.0,80,80,1.0,36.0
4698,60.0,80,80,1.0,35.0
4699,58.0,80,80,1.0,35.0
4700,57.0,80,76,1.0,34.0
4701,55.0,0,491,1.0,49.0
4702,53.0,480,193,1.0,35.0
4703,77.0,240,193,1.0,40.0
4704,51.0,0,930,4.0,49.0
4705,45.0,80,935,5.0,49.0
4706,77.0,240,193,1.0,43.0
4707,63.0,0,425,4.0,44.0
4708,57.0,0,430,5.0,44.0
4709,77.0,240,193,1.0,46.0
4710,77.0,240,60,1.0,49.0
4711,79.0,60,33,1.0,50.0
4712,77.0,20,33,1.0,50.0
4713,76.0,20,33,1.0,51.0
4714,77.0,20,60,1.0,51.0
4715,62.0,0,193,4.0,49.0
4716,58.0,0,193,5.0,49.0
4717,82.0,60,48,1.0,52.0
4718,72.0,0,60,1.0,52.0
4719,74.0,60,33,1.0,53.0
4720,72.0,20,33,1.0,54.0
4721,71.0,20,33,1.0,54.0
4722,72.0,20,55,1.0,54.0
4723,51.0,0,193,5.0,52.0
4724,63.0,60,193,4.0,52.0
4725,79.0,60,48,1.0,55.0
4726,70.0,60,240,1.0,56.0
4727,72.0,240,60,1.0,59.0
4728,70.0,60,60,1.0,60.0
4729,62.0,0,415,4.0,56.0
4730,69.0,60,60,1.0,61.0
4731,53.0,0,425,5.0,56.0
4732,70.0,60,60,1.0,61.0
4733,74.0,0,240,1.0,62.0
4734,72.0,240,193,1.0,65.0
4735,63.0,0,435,4.0,62.0
4736,69.0,0,440,1.0,62.0
4737,54.0,60,445,5.0,62.0
4738,55.0,0,80,5.0,66.0
4739,54.0,80,80,5.0,65.0
4740,57.0,80,80,5.0,63.0
4741,55.0,80,80,5.0,62.0
4742,53.0,80,80,5.0,61.0
4743,62.0,240,420,4.0,66.0
4744,70.0,0,425,1.0,66.0
4745,51.0,80,80,5.0,60.0
4746,50.0,80,80,5.0,58.0
4747,48.0,80,80,5.0,57.0
4748,51.0,80,80,5.0,56.0
4749,50.0,80,80,5.0,54.0
4750,48.0,80,80,5.0,53.0
4751,46.0,80,80,5.0,52.0
4752,44.0,80,80,5.0,51.0
4753,43.0,80,80,5.0,49.0
4754,46.0,80,80,5.0,48.0
4755,44.0,80,80,5.0,47.0
4756,43.0,80,80,5.0,46.0
4757,41.0,80,80,5.0,44.0
4758,70.0,0,480,2.0,62.0
4759,79.0,0,480,1.0,62.0
4760,39.0,80,480,5.0,61.0
4761,80.0,0,193,1.0,49.0
4762,71.0,480,193,2.0,49.0
4763,38.0,0,193,5.0,49.0
4764,80.0,0,193,1.0,55.0
4765,71.0,0,193,2.0,55.0
4766,38.0,240,193,5.0,55.0
4767,38.0,240,193,5.0,61.0
4768,80.0,0,193,1.0,61.0
4769,71.0,0,193,2.0,61.0
4770,80.0,0,193,1.0,66.0
4771,71.0,0,193,2.0,66.0
4772,38.0,240,193,5.0,66.0
4773,78.0,0,60,1.0,74.0
4774,79.0,60,60,1.0,73.0
4775,81.0,60,60,1.0,72.0
4776,39.0,0,193,5.0,72.0
4777,72.0,240,193,2.0,74.0
4778,79.0,60,60,1.0,70.0
4779,77.0,60,60,1.0,69.0
4780,75.0,60,60,1.0,67.0
4781,74.0,60,60,1.0,66.0
4782,72.0,60,48,1.0,65.0
4783,70.0,0,240,1.0,63.0
4784,72.0,240,60,1.0,62.0
4785,70.0,60,60,1.0,61.0
4786,69.0,60,60,1.0,60.0
4787,65.0,60,480,4.0,65.0
4788,70.0,60,60,1.0,60.0
4789,62.0,0,480,4.0,65.0
4790,74.0,0,240,1.0,58.0
4791,63.0,0,430,4.0,58.0
4792,72.0,240,193,1.0,54.0
4793,53.0,0,915,5.0,65.0
4794,69.0,60,440,2.0,58.0
4795,70.0,240,53,1.0,54.0
4796,89.0,80,53,1.0,75.0
4797,62.0,0,193,4.0,55.0
4798,58.0,0,193,5.0,55.0
4799,86.0,80,53,1.0,74.0
4800,82.0,80,53,1.0,73.0
4801,77.0,80,53,1.0,72.0
4802,74.0,80,53,1.0,71.0
4803,46.0,80,53,5.0,70.0
4804,70.0,80,193,1.0,71.0
4805,50.0,80,53,5.0,69.0
4806,53.0,80,53,5.0,68.0
4807,58.0,80,53,5.0,67.0
4808,62.0,80,53,5.0,66.0
4809,65.0,80,53,5.0,65.0
4810,69.0,80,80,1.0,64.0
4811,72.0,80,80,1.0,63.0
4812,75.0,80,80,1.0,62.0
4813,72.0,80,80,1.0,61.0
4814,69.0,80,80,1.0,60.0
4815,70.0,80,53,1.0,59.0
4816,77.0,80,53,1.0,56.0
4817,58.0,0,193,1.0,59.0
4818,74.0,80,53,1.0,55.0
4819,70.0,80,53,1.0,54.0
4820,65.0,80,53,1.0,53.0
4821,62.0,80,53,1.0,52.0
4822,58.0,80,53,1.0,51.0
4823,34.0,80,53,5.0,50.0
4824,38.0,80,53,5.0,48.0
4825,41.0,80,53,5.0,47.0
4826,46.0,80,53,5.0,46.0
4827,50.0,80,53,5.0,45.0
4828,57.0,80,80,1.0,42.0
4829,53.0,80,193,5.0,44.0
4830,60.0,80,80,1.0,40.0
4831,63.0,80,80,1.0,38.0
4832,60.0,80,80,1.0,36.0
4833,57.0,80,64,1.0,34.0
4834,51.0,0,480,3.0,37.0
4835,60.0,0,480,1.0,37.0
4836,57.0,80,480,3.0,37.0
4837,46.0,0,720,5.0,37.0
4838,34.0,0,720,5.0,37.0
4839,58.0,0,240,1.0,31.0
4840,50.0,480,240,3.0,31.0
4841,53.0,0,720,3.0,37.0
4842,69.0,2880,720,4.0,46.0
4843,72.0,480,480,3.0,48.0
4844,77.0,0,960,1.0,50.0
4845,65.0,0,720,4.0,50.0
4846,72.0,480,420,3.0,52.0
4847,81.0,480,900,1.0,52.0
4848,81.0,0,246,1.0,57.0
4849,79.0,240,192,1.0,52.0
4850,79.0,0,240,1.0,54.0
4851,70.0,480,720,4.0,56.0
4852,76.0,240,192,1.0,50.0
4853,72.0,240,480,3.0,54.0
4854,69.0,0,720,4.0,54.0
4855,77.0,240,720,1.0,54.0
4856,72.0,480,426,3.0,55.0
4857,81.0,240,192,1.0,58.0
4858,81.0,240,240,1.0,65.0
4859,79.0,240,192,1.0,58.0
4860,79.0,240,240,1.0,61.0
4861,70.0,0,720,4.0,65.0
4862,76.0,240,192,1.0,54.0
4863,72.0,0,486,3.0,61.0
4864,77.0,240,720,1.0,55.0
4865,69.0,0,720,4.0,55.0
4866,72.0,480,360,3.0,57.0
4867,81.0,240,192,1.0,61.0
4868,84.0,0,240,1.0,64.0
4869,82.0,240,192,1.0,56.0
4870,67.0,240,480,4.0,64.0
4871,82.0,0,240,1.0,58.0
4872,79.0,240,192,1.0,52.0
4873,64.0,240,480,4.0,58.0
4874,82.0,0,240,1.0,57.0
4875,81.0,240,192,1.0,52.0
4876,65.0,240,480,4.0,57.0
4877,81.0,240,240,1.0,55.0
4878,72.0,0,1860,3.0,64.0
4879,77.0,240,192,1.0,49.0
4880,69.0,0,442,4.0,55.0
4881,74.0,0,240,1.0,46.0
4882,76.0,240,74,1.0,43.0
4883,74.0,60,96,1.0,44.0
4884,73.0,100,80,1.0,46.0
4885,70.0,240,480,4.0,46.0
4886,74.0,0,240,1.0,48.0
4887,58.0,80,480,5.0,48.0
4888,76.0,240,240,1.0,49.0
4889,77.0,0,480,1.0,51.0
4890,62.0,240,480,5.0,51.0
4891,59.0,0,480,5.0,54.0
4892,79.0,480,480,1.0,54.0
4893,65.0,0,960,4.0,54.0
4894,64.0,480,240,4.0,50.0
4895,62.0,240,240,4.0,46.0
4896,72.0,0,1162,1.0,59.0
4897,64.0,240,426,4.0,42.0
4898,73.0,240,192,1.0,44.0
4899,60.0,480,1402,5.0,57.0
4900,74.0,240,192,1.0,45.0
4901,76.0,240,192,1.0,47.0
4902,69.0,0,720,4.0,48.0
4903,72.0,480,480,3.0,50.0
4904,77.0,240,960,1.0,52.0
4905,65.0,480,720,4.0,52.0
4906,72.0,480,426,3.0,54.0
4907,81.0,0,906,1.0,54.0
4908,81.0,480,240,1.0,57.0
4909,79.0,240,192,1.0,51.0
4910,79.0,0,240,1.0,54.0
4911,70.0,0,720,4.0,57.0
4912,76.0,240,192,1.0,50.0
4913,72.0,240,480,3.0,54.0
4914,69.0,0,720,4.0,52.0
4915,77.0,240,720,1.0,52.0
4916,72.0,480,426,3.0,55.0
4917,81.0,240,192,1.0,57.0
4918,81.0,0,240,1.0,61.0
4919,79.0,240,192,1.0,57.0
4920,79.0,240,240,1.0,57.0
4921,70.0,240,720,4.0,61.0
4922,76.0,240,192,1.0,54.0
4923,72.0,0,480,3.0,57.0
4924,69.0,240,720,4.0,56.0
4925,77.0,0,720,1.0,56.0
4926,72.0,480,426,3.0,60.0
4927,81.0,240,192,1.0,63.0
4928,84.0,0,240,1.0,66.0
4929,82.0,240,192,1.0,59.0
4930,67.0,240,480,4.0,66.0
4931,82.0,240,240,1.0,60.0
4932,79.0,240,192,1.0,54.0
4933,64.0,0,480,4.0,60.0
4934,82.0,0,240,1.0,60.0
4935,81.0,240,192,1.0,55.0
4936,65.0,240,480,4.0,60.0
4937,81.0,0,240,1.0,58.0
4938,62.0,240,426,4.0,58.0
4939,72.0,0,1866,3.0,66.0
4940,77.0,240,192,1.0,51.0
4941,74.0,240,240,1.0,51.0
4942,76.0,240,74,1.0,49.0
4943,74.0,60,96,1.0,51.0
4944,73.0,100,80,1.0,53.0
4945,74.0,80,240,1.0,55.0
4946,79.0,240,240,1.0,56.0
4947,58.0,0,960,5.0,51.0
4948,70.0,0,480,4.0,55.0
4949,77.0,240,246,1.0,58.0
4950,69.0,0,480,4.0,58.0
4951,60.0,0,712,5.0,58.0
4952,70.0,480,246,2.0,61.0
4953,76.0,0,254,1.0,61.0
4954,67.0,0,360,4.0,61.0
4955,65.0,480,480,5.0,65.0
4956,60.0,480,480,5.0,55.0
4957,70.0,0,960,2.0,64.0
4958,76.0,0,974,1.0,64.0
4959,77.0,480,420,1.0,43.0
4960,53.0,0,420,5.0,43.0
4961,69.0,0,434,2.0,43.0
4962,64.0,0,720,4.0,42.0
4963,72.0,480,420,3.0,45.0
4964,79.0,960,960,1.0,46.0
4965,65.0,0,720,4.0,47.0
4966,81.0,480,900,1.0,50.0
4967,72.0,480,420,3.0,49.0
4968,79.0,480,246,1.0,53.0
4969,77.0,240,192,1.0,48.0
4970,67.0,0,720,4.0,53.0
4971,77.0,0,240,1.0,50.0
4972,76.0,240,192,1.0,46.0
4973,71.0,240,480,3.0,50.0
4974,69.0,240,720,4.0,47.0
4975,76.0,0,906,1.0,50.0
4976,72.0,480,426,3.0,44.0
4977,79.0,480,720,1.0,48.0
4978,64.0,0,720,4.0,48.0
4979,84.0,240,192,1.0,52.0
4980,72.0,480,480,3.0,51.0
4981,83.0,0,246,1.0,57.0
4982,81.0,240,180,1.0,55.0
4983,65.0,240,720,4.0,57.0
4984,81.0,240,134,1.0,58.0
4985,72.0,240,420,3.0,56.0
4986,79.0,0,240,1.0,64.0
4987,77.0,240,180,1.0,60.0
4988,67.0,240,720,4.0,64.0
4989,77.0,240,126,1.0,58.0
4990,71.0,240,486,3.0,59.0
4991,75.0,240,240,1.0,61.0
4992,76.0,240,180,1.0,56.0
4993,69.0,0,720,4.0,61.0
4994,76.0,240,134,1.0,54.0
4995,72.0,240,420,3.0,55.0
4996,74.0,0,240,1.0,58.0
4997,76.0,240,82,1.0,50.0
4998,74.0,80,85,1.0,51.0
4999,73.0,80,80,1.0,52.0
5000,74.0,80,120,1.0,53.0
5001,76.0,240,126,1.0,56.0
5002,69.0,0,960,3.0,54.0
5003,65.0,240,960,4.0,54.0
5004,77.0,240,126,1.0,58.0
5005,79.0,240,126,1.0,61.0
5006,80.0,240,134,1.0,64.0
5007,81.0,240,126,1.0,67.0
5008,72.0,0,720,1.0,69.0
5009,74.0,720,120,1.0,53.0
5010,64.0,0,960,4.0,69.0
5011,72.0,120,120,1.0,54.0
5012,71.0,0,240,1.0,56.0
5013,72.0,240,134,1.0,50.0
5014,55.0,240,1386,5.0,69.0
5015,62.0,120,426,4.0,56.0
5016,74.0,240,120,1.0,51.0
5017,76.0,240,126,1.0,51.0
5018,57.0,0,720,4.0,52.0
5019,60.0,480,480,3.0,53.0
5020,77.0,240,960,1.0,53.0
5021,55.0,480,720,4.0,55.0
5022,60.0,480,420,3.0,56.0
5023,76.0,0,900,1.0,55.0
5024,74.0,0,134,1.0,58.0
5025,76.0,180,120,1.0,59.0
5026,77.0,120,134,1.0,61.0
5027,79.0,180,126,1.0,62.0
5028,55.0,480,720,4.0,58.0
5029,81.0,180,120,1.0,64.0
5030,83.0,120,120,1.0,65.0
5031,62.0,0,480,3.0,62.0
5032,53.0,0,960,5.0,58.0
5033,84.0,0,426,1.0,67.0
5034,55.0,0,720,4.0,67.0
5035,60.0,480,420,3.0,58.0
5036,52.0,180,906,5.0,67.0
5037,79.0,480,240,1.0,60.0
5038,77.0,240,240,1.0,57.0
5039,57.0,0,720,4.0,60.0
5040,77.0,240,120,1.0,60.0
5041,60.0,240,480,3.0,58.0
5042,77.0,240,240,1.0,66.0
5043,76.0,240,180,1.0,62.0
5044,55.0,0,720,4.0,66.0
5045,76.0,240,240,1.0,68.0
5046,60.0,240,480,3.0,63.0
5047,74.0,0,120,1.0,66.0
5048,76.0,120,120,1.0,66.0
5049,77.0,120,120,1.0,67.0
5050,78.0,120,120,1.0,68.0
5051,79.0,0,120,1.0,68.0
5052,55.0,0,720,4.0,66.0
5053,80.0,120,120,1.0,69.0
5054,81.0,120,120,1.0,70.0
5055,83.0,120,120,1.0,70.0
5056,62.0,120,480,3.0,68.0
5057,53.0,240,960,5.0,66.0
5058,84.0,120,480,1.0,72.0
5059,55.0,0,720,4.0,72.0
5060,52.0,0,900,5.0,72.0
5061,60.0,480,426,3.0,68.0
5062,84.0,480,360,1.0,71.0
5063,81.0,360,96,1.0,69.0
5064,69.0,0,420,5.0,75.0
5065,72.0,0,420,4.0,75.0
5066,69.0,480,480,5.0,69.0
5067,72.0,0,480,4.0,69.0
5068,78.0,120,960,1.0,75.0
5069,67.0,480,426,5.0,63.0
5070,79.0,0,426,1.0,63.0
5071,71.0,0,434,4.0,63.0
5072,81.0,480,366,1.0,62.0
5073,77.0,360,96,1.0,60.0
5074,67.0,0,420,4.0,68.0
5075,65.0,0,420,4.0,68.0
5076,59.0,120,420,5.0,68.0
5077,59.0,0,480,5.0,61.0
5078,74.0,0,960,1.0,68.0
5079,67.0,0,480,4.0,61.0
5080,65.0,480,480,4.0,61.0
5081,67.0,0,420,4.0,53.0
5082,76.0,480,426,1.0,53.0
5083,60.0,0,434,5.0,53.0
5084,64.0,0,434,4.0,53.0
5085,77.0,0,240,1.0,66.0
5086,79.0,240,120,1.0,64.0
5087,81.0,120,134,1.0,63.0
5088,79.0,120,134,1.0,62.0
5089,77.0,120,120,1.0,61.0
5090,76.0,120,120,1.0,60.0
5091,74.0,120,120,1.0,59.0
5092,65.0,0,960,4.0,66.0
5093,57.0,0,960,5.0,66.0
5094,72.0,0,240,1.0,58.0
5095,60.0,480,1200,4.0,66.0
5096,64.0,0,246,4.0,58.0
5097,55.0,120,246,5.0,58.0
5098,55.0,0,240,5.0,54.0
5099,74.0,480,240,1.0,54.0
5100,59.0,0,246,4.0,54.0
5101,60.0,0,486,5.0,57.0
5102,74.0,0,720,1.0,58.0
5103,71.0,480,960,2.0,58.0
5104,55.0,480,480,5.0,52.0
5105,75.0,240,246,1.0,50.0
5106,72.0,0,426,2.0,47.0
5107,76.0,0,426,1.0,47.0
5108,52.0,240,480,5.0,47.0
5109,48.0,480,360,5.0,43.0
5110,84.0,480,120,1.0,66.0
5111,83.0,120,120,1.0,65.0
5112,84.0,120,120,1.0,64.0
5113,81.0,120,96,1.0,62.0
5114,62.0,0,360,5.0,69.0
5115,72.0,120,360,4.0,69.0
5116,69.0,0,360,4.0,69.0
5117,72.0,0,480,4.0,65.0
5118,69.0,0,480,4.0,65.0
5119,78.0,0,966,1.0,69.0
5120,62.0,480,486,5.0,65.0
5121,79.0,0,240,1.0,59.0
5122,80.0,240,180,1.0,56.0
5123,71.0,0,426,4.0,59.0
5124,67.0,480,426,5.0,59.0
5125,81.0,240,120,1.0,63.0
5126,80.0,120,120,1.0,62.0
5127,81.0,120,120,1.0,61.0
5128,77.0,120,96,1.0,59.0
5129,55.0,0,420,5.0,63.0
5130,59.0,0,420,4.0,63.0
5131,65.0,0,420,4.0,63.0
5132,74.0,120,720,1.0,63.0
5133,75.0,240,240,1.0,54.0
5134,65.0,0,480,4.0,59.0
5135,59.0,0,480,4.0,59.0
5136,55.0,480,480,5.0,59.0
5137,76.0,240,120,1.0,57.0
5138,77.0,120,120,1.0,59.0
5139,78.0,120,120,1.0,61.0
5140,60.0,0,426,5.0,57.0
5141,64.0,0,426,4.0,57.0
5142,79.0,120,96,1.0,62.0
5143,80.0,120,240,1.0,67.0
5144,81.0,240,192,1.0,68.0
5145,79.0,0,120,1.0,65.0
5146,77.0,120,120,1.0,63.0
5147,76.0,120,120,1.0,62.0
5148,57.0,0,420,4.0,65.0
5149,53.0,240,420,5.0,65.0
5150,62.0,0,420,4.0,65.0
5151,74.0,120,96,1.0,60.0
5152,72.0,120,240,1.0,58.0
5153,76.0,240,60,1.0,50.0
5154,74.0,60,60,1.0,51.0
5155,72.0,60,60,1.0,52.0
5156,60.0,0,420,4.0,58.0
5157,64.0,0,420,4.0,58.0
5158,74.0,60,60,1.0,53.0
5159,76.0,60,240,1.0,54.0
5160,74.0,240,240,1.0,48.0
5161,65.0,0,480,4.0,54.0
5162,59.0,0,480,4.0,54.0
5163,55.0,0,960,5.0,58.0
5164,72.0,0,426,1.0,48.0
5165,60.0,0,720,4.0,48.0
5166,72.0,240,120,1.0,41.0
5167,55.0,480,480,3.0,44.0
5168,71.0,120,120,1.0,43.0
5169,74.0,120,120,1.0,45.0
5170,72.0,120,120,1.0,46.0
5171,76.0,120,120,1.0,48.0
5172,74.0,120,120,1.0,50.0
5173,77.0,0,120,1.0,52.0
5174,60.0,0,720,4.0,45.0
5175,76.0,120,120,1.0,54.0
5176,79.0,120,120,1.0,56.0
5177,64.0,240,1860,3.0,48.0
5178,55.0,120,434,3.0,52.0
5179,77.0,120,104,1.0,58.0
5180,81.0,120,240,1.0,60.0
5181,79.0,240,180,1.0,56.0
5182,59.0,0,720,4.0,60.0
5183,55.0,240,480,3.0,65.0
5184,79.0,0,660,1.0,65.0
5185,78.0,240,180,1.0,57.0
5186,77.0,0,186,1.0,54.0
5187,59.0,480,720,4.0,59.0
5188,74.0,240,186,1.0,51.0
5189,55.0,240,426,3.0,54.0
5190,65.0,0,1874,3.0,60.0
5191,71.0,0,240,1.0,48.0
5192,72.0,240,186,1.0,45.0
5193,60.0,0,720,4.0,48.0
5194,55.0,240,360,3.0,42.0
5195,72.0,240,120,1.0,47.0
5196,71.0,120,120,1.0,49.0
5197,74.0,120,120,1.0,51.0
5198,72.0,120,120,1.0,53.0
5199,76.0,120,120,1.0,55.0
5200,74.0,120,120,1.0,57.0
5201,77.0,120,120,1.0,59.0
5202,60.0,0,720,4.0,51.0
5203,76.0,120,120,1.0,61.0
5204,79.0,120,120,1.0,63.0
5205,64.0,240,1860,3.0,48.0
5206,55.0,0,426,3.0,59.0
5207,77.0,120,90,1.0,65.0
5208,81.0,0,240,1.0,67.0
5209,79.0,240,180,1.0,64.0
5210,59.0,0,720,4.0,67.0
5211,55.0,0,420,3.0,71.0
5212,79.0,240,742,1.0,71.0
5213,78.0,240,240,1.0,63.0
5214,59.0,480,720,4.0,66.0
5215,77.0,0,240,1.0,60.0
5216,55.0,240,420,3.0,60.0
5217,74.0,240,180,1.0,58.0
5218,65.0,120,1874,3.0,67.0
5219,71.0,0,240,1.0,55.0
5220,60.0,0,420,4.0,55.0
5221,64.0,240,420,3.0,55.0
5222,72.0,240,186,1.0,50.0
5223,72.0,240,120,1.0,51.0
5224,48.0,240,426,4.0,48.0
5225,71.0,120,120,1.0,53.0
5226,74.0,120,120,1.0,54.0
5227,72.0,120,120,1.0,56.0
5228,76.0,120,120,1.0,58.0
5229,74.0,120,120,1.0,60.0
5230,77.0,120,120,1.0,62.0
5231,76.0,120,120,1.0,64.0
5232,79.0,120,120,1.0,65.0
5233,77.0,120,96,1.0,67.0
5234,81.0,120,240,1.0,68.0
5235,79.0,240,180,1.0,64.0
5236,76.0,240,120,1.0,61.0
5237,64.0,0,420,4.0,60.0
5238,60.0,240,426,5.0,60.0
5239,74.0,120,120,1.0,63.0
5240,77.0,120,120,1.0,65.0
5241,76.0,120,120,1.0,66.0
5242,79.0,120,120,1.0,68.0
5243,77.0,120,120,1.0,70.0
5244,81.0,120,120,1.0,72.0
5245,79.0,120,120,1.0,74.0
5246,82.0,120,120,1.0,75.0
5247,81.0,120,104,1.0,77.0
5248,84.0,120,240,1.0,81.0
5249,82.0,240,180,1.0,76.0
5250,79.0,240,120,1.0,71.0
5251,67.0,0,420,4.0,71.0
5252,60.0,240,426,5.0,71.0
5253,64.0,0,434,4.0,71.0
5254,78.0,120,120,1.0,73.0
5255,81.0,120,120,1.0,75.0
5256,79.0,120,120,1.0,77.0
5257,82.0,120,120,1.0,79.0
5258,81.0,120,120,1.0,81.0
5259,84.0,120,120,1.0,83.0
5260,82.0,120,120,1.0,85.0
5261,86.0,120,120,1.0,87.0
5262,84.0,120,90,1.0,89.0
5263,87.0,120,240,1.0,90.0
5264,86.0,240,180,1.0,86.0
5265,85.0,240,180,1.0,81.0
5266,84.0,240,186,1.0,77.0
5267,83.0,240,194,1.0,73.0
5268,82.0,240,180,1.0,69.0
5269,81.0,240,186,1.0,65.0
5270,80.0,240,186,1.0,61.0
5271,79.0,0,300,1.0,69.0
5272,81.0,300,60,1.0,58.0
5273,79.0,60,60,1.0,59.0
5274,78.0,60,60,1.0,60.0
5275,79.0,60,120,1.0,62.0
5276,81.0,240,120,1.0,56.0
5277,84.0,240,240,1.0,57.0
5278,82.0,240,232,1.0,52.0
5279,79.0,240,254,1.0,47.0
5280,70.0,0,1860,4.0,69.0
5281,67.0,240,1860,4.0,69.0
5282,64.0,0,1866,4.0,69.0
5283,60.0,0,1866,5.0,69.0
5284,76.0,240,194,1.0,43.0
5285,69.0,240,720,4.0,38.0
5286,77.0,0,720,1.0,40.0
5287,79.0,240,82,1.0,39.0
5288,77.0,60,74,1.0,40.0
5289,76.0,60,60,1.0,41.0
5290,77.0,60,60,1.0,42.0
5291,72.0,480,480,3.0,41.0
5292,65.0,0,720,4.0,43.0
5293,72.0,480,420,3.0,46.0
5294,81.0,60,900,1.0,43.0
5295,81.0,0,246,1.0,49.0
5296,79.0,240,180,1.0,44.0
5297,70.0,480,720,4.0,49.0
5298,79.0,0,240,1.0,46.0
5299,76.0,240,180,1.0,42.0
5300,72.0,240,480,3.0,46.0
5301,77.0,0,720,1.0,43.0
5302,69.0,240,720,4.0,43.0
5303,72.0,480,426,3.0,46.0
5304,81.0,240,186,1.0,48.0
5305,78.0,240,240,1.0,51.0
5306,79.0,240,240,1.0,47.0
5307,82.0,240,240,1.0,48.0
5308,70.0,0,720,4.0,51.0
5309,76.0,240,186,1.0,43.0
5310,72.0,0,480,3.0,48.0
5311,79.0,0,240,1.0,46.0
5312,77.0,240,434,1.0,44.0
5313,69.0,240,720,4.0,46.0
5314,81.0,240,186,1.0,51.0
5315,72.0,240,434,3.0,49.0
5316,84.0,0,240,1.0,54.0
5317,83.0,240,195,1.0,48.0
5318,67.0,0,480,4.0,54.0
5319,82.0,0,240,1.0,48.0
5320,79.0,240,192,1.0,45.0
5321,64.0,240,494,4.0,48.0
5322,82.0,0,240,1.0,50.0
5323,80.0,240,202,1.0,46.0
5324,65.0,240,480,4.0,50.0
5325,81.0,240,240,1.0,45.0
5326,72.0,240,1852,3.0,54.0
5327,69.0,0,426,4.0,45.0
5328,77.0,240,192,1.0,40.0
5329,74.0,0,246,1.0,42.0
5330,76.0,240,82,1.0,40.0
5331,74.0,80,84,1.0,42.0
5332,70.0,240,486,4.0,42.0
5333,73.0,80,94,1.0,44.0
5334,74.0,80,240,1.0,46.0
5335,76.0,240,134,1.0,47.0
5336,58.0,0,480,5.0,46.0
5337,77.0,0,240,1.0,49.0
5338,62.0,240,480,5.0,49.0
5339,78.0,240,240,1.0,51.0
5340,81.0,0,240,1.0,52.0
5341,79.0,240,194,1.0,54.0
5342,59.0,240,480,5.0,52.0
5343,65.0,0,974,4.0,52.0
5344,64.0,480,360,4.0,47.0
5345,62.0,360,134,4.0,41.0
5346,72.0,240,1222,1.0,58.0
5347,74.0,240,120,1.0,41.0
5348,60.0,0,1380,5.0,54.0
5349,64.0,120,420,4.0,40.0
5350,73.0,120,120,1.0,43.0
5351,76.0,120,120,1.0,44.0
5352,74.0,120,120,1.0,45.0
5353,77.0,120,120,1.0,46.0
5354,76.0,120,96,1.0,47.0
5355,79.0,120,126,1.0,46.0
5356,69.0,0,720,4.0,46.0
5357,77.0,120,614,1.0,48.0
5358,79.0,240,74,1.0,46.0
5359,77.0,60,60,1.0,47.0
5360,76.0,60,75,1.0,49.0
5361,72.0,360,480,3.0,48.0
5362,77.0,60,60,1.0,50.0
5363,65.0,0,720,4.0,51.0
5364,81.0,60,900,1.0,51.0
5365,72.0,480,420,3.0,53.0
5366,79.0,0,240,1.0,56.0
5367,82.0,240,240,1.0,50.0
5368,76.0,240,240,1.0,52.0
5369,70.0,480,720,4.0,56.0
5370,79.0,240,194,1.0,46.0
5371,72.0,0,480,3.0,52.0
5372,69.0,240,720,4.0,50.0
5373,77.0,0,727,1.0,50.0
5374,81.0,240,180,1.0,55.0
5375,72.0,480,426,3.0,52.0
5376,79.0,240,134,1.0,59.0
5377,81.0,120,120,1.0,56.0
5378,82.0,120,126,1.0,55.0
5379,79.0,120,120,1.0,54.0
5380,76.0,120,120,1.0,53.0
5381,70.0,0,720,4.0,56.0
5382,77.0,120,126,1.0,52.0
5383,79.0,120,120,1.0,51.0
5384,76.0,120,120,1.0,50.0
5385,72.0,0,480,3.0,53.0
5386,77.0,120,720,1.0,50.0
5387,69.0,0,720,4.0,50.0
5388,81.0,240,180,1.0,56.0
5389,72.0,480,426,3.0,54.0
5390,84.0,240,240,1.0,58.0
5391,83.0,240,240,1.0,52.0
5392,67.0,0,494,4.0,58.0
5393,82.0,240,240,1.0,51.0
5394,79.0,240,186,1.0,46.0
5395,64.0,0,480,4.0,51.0
5396,82.0,240,240,1.0,53.0
5397,80.0,240,240,1.0,48.0
5398,65.0,0,480,4.0,53.0
5399,72.0,0,1500,3.0,58.0
5400,81.0,240,240,1.0,49.0
5401,77.0,240,180,1.0,45.0
5402,62.0,0,426,4.0,49.0
5403,74.0,240,300,1.0,46.0
5404,76.0,300,60,1.0,42.0
5405,74.0,60,60,1.0,44.0
5406,73.0,60,60,1.0,46.0
5407,74.0,0,240,1.0,48.0
5408,79.0,240,126,1.0,46.0
5409,58.0,0,960,5.0,46.0
5410,70.0,60,480,4.0,48.0
5411,77.0,240,246,1.0,48.0
5412,69.0,0,480,4.0,48.0
5413,70.0,0,240,2.0,51.0
5414,76.0,0,246,1.0,51.0
5415,60.0,0,900,5.0,48.0
5416,67.0,480,426,4.0,51.0
5417,65.0,0,480,5.0,55.0
5418,60.0,480,480,5.0,49.0
5419,76.0,480,966,1.0,56.0
5420,70.0,0,974,2.0,56.0
5421,69.0,0,426,2.0,43.0
5422,53.0,0,426,5.0,43.0
5423,77.0,480,434,1.0,43.0
5424,77.0,20,420,2.0,76.0
5425,74.0,40,440,2.0,75.0
5426,69.0,960,480,2.0,72.0
5427,81.0,20,644,1.0,78.0
5428,79.0,640,84,1.0,64.0
5429,77.0,80,84,1.0,63.0
5430,53.0,0,934,4.0,65.0
5431,57.0,0,934,4.0,65.0
5432,62.0,0,934,4.0,65.0
5433,50.0,0,934,5.0,65.0
5434,76.0,80,74,1.0,63.0
5435,74.0,80,192,1.0,62.0
5436,65.0,240,192,4.0,60.0
5437,62.0,0,192,5.0,60.0
5438,74.0,0,192,1.0,60.0
5439,69.0,0,192,4.0,60.0
5440,65.0,0,192,4.0,58.0
5441,62.0,0,192,5.0,58.0
5442,74.0,0,192,1.0,58.0
5443,69.0,240,192,4.0,58.0
5444,74.0,0,192,1.0,56.0
5445,69.0,0,192,4.0,56.0
5446,65.0,0,192,4.0,56.0
5447,62.0,240,192,5.0,56.0
5448,73.0,0,240,1.0,54.0
5449,64.0,0,240,5.0,54.0
5450,69.0,0,240,4.0,54.0
5451,67.0,240,240,4.0,54.0
5452,62.0,0,240,5.0,49.0
5453,65.0,480,240,4.0,49.0
5454,69.0,0,240,4.0,49.0
5455,74.0,0,240,1.0,49.0
5456,69.0,0,240,4.0,44.0
5457,64.0,0,240,4.0,44.0
5458,76.0,0,240,1.0,44.0
5459,61.0,480,240,5.0,44.0
5460,76.0,40,425,2.0,80.0
5461,79.0,20,412,2.0,81.0
5462,73.0,0,480,2.0,77.0
5463,82.0,20,630,1.0,82.0
5464,81.0,640,84,1.0,66.0
5465,79.0,80,80,1.0,65.0
5466,55.0,960,920,5.0,69.0
5467,58.0,0,924,4.0,69.0
5468,61.0,0,924,4.0,69.0
5469,64.0,0,934,4.0,69.0
5470,77.0,80,64,1.0,64.0
5471,76.0,80,180,1.0,63.0
5472,70.0,240,192,4.0,61.0
5473,76.0,0,192,1.0,61.0
5474,73.0,0,192,2.0,61.0
5475,67.0,0,192,5.0,61.0
5476,76.0,0,192,1.0,59.0
5477,67.0,0,192,5.0,59.0
5478,73.0,0,192,2.0,59.0
5479,70.0,240,192,4.0,59.0
5480,67.0,240,192,5.0,56.0
5481,73.0,0,192,2.0,56.0
5482,76.0,0,192,1.0,56.0
5483,70.0,0,192,4.0,56.0
5484,69.0,240,240,4.0,55.0
5485,74.0,0,240,1.0,55.0
5486,65.0,0,240,5.0,55.0
5487,64.0,0,240,5.0,50.0
5488,73.0,480,240,2.0,50.0
5489,76.0,0,240,1.0,50.0
5490,67.0,0,240,4.0,50.0
5491,62.0,480,240,5.0,45.0
5492,77.0,0,240,1.0,45.0
5493,65.0,0,240,4.0,45.0
5494,74.0,0,240,2.0,45.0
5495,77.0,0,240,1.0,42.0
5496,76.0,240,192,1.0,40.0
5497,76.0,240,240,1.0,44.0
5498,67.0,960,720,4.0,42.0
5499,73.0,240,192,1.0,41.0
5500,69.0,0,480,3.0,44.0
5501,74.0,0,720,1.0,46.0
5502,65.0,240,720,4.0,46.0
5503,77.0,240,192,1.0,49.0
5504,69.0,480,434,3.0,48.0
5505,77.0,240,240,1.0,50.0
5506,76.0,240,192,1.0,48.0
5507,67.0,0,720,4.0,50.0
5508,79.0,240,240,1.0,52.0
5509,73.0,240,192,1.0,50.0
5510,69.0,0,480,3.0,52.0
5511,76.0,240,240,1.0,54.0
5512,74.0,240,434,1.0,55.0
5513,65.0,0,720,4.0,54.0
5514,77.0,240,192,1.0,57.0
5515,69.0,0,0,3.0,61.0
5516,81.0,240,262,1.0,61.0
5517,64.0,0,480,4.0,61.0
5518,80.0,240,240,1.0,54.0
5519,79.0,240,240,1.0,56.0
5520,76.0,240,192,1.0,52.0
5521,61.0,0,480,4.0,56.0
5522,79.0,0,240,1.0,58.0
5523,62.0,240,480,4.0,58.0
5524,78.0,240,240,1.0,53.0
5525,77.0,0,240,1.0,52.0
5526,74.0,240,192,1.0,49.0
5527,68.0,240,480,3.0,52.0
5528,58.0,0,480,4.0,52.0
5529,73.0,240,240,1.0,50.0
5530,76.0,240,180,1.0,52.0
5531,69.0,0,426,3.0,50.0
5532,57.0,0,434,4.0,50.0
5533,76.0,240,120,1.0,54.0
5534,76.0,240,120,1.0,56.0
5535,76.0,240,240,1.0,58.0
5536,81.0,240,180,1.0,60.0
5537,81.0,240,120,1.0,62.0
5538,81.0,240,120,1.0,68.0
5539,77.0,40,400,2.0,79.0
5540,69.0,0,495,2.0,75.0
5541,74.0,40,455,2.0,77.0
5542,81.0,40,540,1.0,81.0
5543,79.0,600,80,1.0,71.0
5544,77.0,80,84,1.0,70.0
5545,62.0,0,940,4.0,73.0
5546,57.0,0,944,4.0,73.0
5547,53.0,0,944,4.0,73.0
5548,76.0,80,70,1.0,70.0
5549,50.0,240,954,5.0,73.0
5550,74.0,80,180,1.0,69.0
5551,74.0,0,192,1.0,67.0
5552,69.0,0,192,4.0,67.0
5553,65.0,240,192,4.0,67.0
5554,62.0,0,192,5.0,67.0
5555,62.0,0,192,5.0,65.0
5556,74.0,240,192,1.0,65.0
5557,65.0,0,192,4.0,65.0
5558,69.0,0,192,4.0,65.0
5559,69.0,0,192,4.0,63.0
5560,65.0,0,192,4.0,63.0
5561,62.0,0,192,5.0,63.0
5562,74.0,240,192,1.0,63.0
5563,69.0,0,240,4.0,61.0
5564,64.0,0,240,5.0,61.0
5565,73.0,0,240,1.0,61.0
5566,67.0,240,240,4.0,61.0
5567,65.0,0,240,4.0,58.0
5568,62.0,480,240,5.0,58.0
5569,74.0,0,240,1.0,58.0
5570,69.0,0,240,4.0,58.0
5571,64.0,0,240,4.0,54.0
5572,76.0,480,240,1.0,54.0
5573,61.0,0,240,5.0,54.0
5574,69.0,0,240,4.0,54.0
5575,76.0,40,432,2.0,77.0
5576,73.0,960,480,2.0,74.0
5577,79.0,40,415,2.0,80.0
5578,82.0,40,614,1.0,83.0
5579,81.0,600,80,1.0,73.0
5580,79.0,80,84,1.0,72.0
5581,58.0,0,940,4.0,74.0
5582,64.0,0,940,4.0,74.0
5583,61.0,0,944,4.0,74.0
5584,55.0,0,944,5.0,74.0
5585,77.0,80,70,1.0,72.0
5586,76.0,80,192,1.0,71.0
5587,67.0,240,192,5.0,69.0
5588,76.0,0,192,1.0,69.0
5589,70.0,0,192,4.0,69.0
5590,73.0,0,192,2.0,69.0
5591,70.0,0,192,4.0,68.0
5592,73.0,0,192,2.0,68.0
5593,76.0,240,192,1.0,68.0
5594,67.0,0,192,5.0,68.0
5595,67.0,240,192,5.0,66.0
5596,76.0,0,192,1.0,66.0
5597,70.0,0,192,4.0,66.0
5598,73.0,0,192,2.0,66.0
5599,65.0,0,240,5.0,64.0
5600,69.0,240,240,4.0,64.0
5601,74.0,0,240,1.0,64.0
5602,64.0,480,240,5.0,60.0
5603,76.0,0,240,1.0,60.0
5604,67.0,0,240,4.0,60.0
5605,73.0,0,240,2.0,60.0
5606,65.0,0,240,4.0,57.0
5607,74.0,0,240,2.0,57.0
5608,62.0,0,240,5.0,57.0
5609,77.0,480,240,1.0,57.0
5610,75.0,960,240,1.0,78.0
5611,77.0,240,74,1.0,70.0
5612,75.0,60,60,1.0,71.0
5613,74.0,60,60,1.0,72.0
5614,75.0,60,60,1.0,73.0
5615,79.0,60,134,1.0,74.0
5616,55.0,0,720,4.0,78.0
5617,73.0,240,126,1.0,70.0
5618,58.0,0,480,3.0,74.0
5619,76.0,240,240,1.0,67.0
5620,74.0,240,426,1.0,67.0
5621,53.0,0,720,4.0,67.0
5622,77.0,240,194,1.0,57.0
5623,57.0,240,434,3.0,60.0
5624,75.0,0,120,1.0,82.0
5625,77.0,120,120,1.0,79.0
5626,79.0,120,120,1.0,78.0
5627,81.0,120,120,1.0,76.0
5628,82.0,120,120,1.0,74.0
5629,79.0,120,120,1.0,73.0
5630,55.0,240,720,4.0,82.0
5631,76.0,120,120,1.0,71.0
5632,73.0,120,96,1.0,70.0
5633,58.0,0,480,3.0,74.0
5634,74.0,0,240,1.0,68.0
5635,57.0,0,480,3.0,68.0
5636,86.0,240,434,1.0,68.0
5637,62.0,240,412,3.0,62.0
5638,53.0,120,914,5.0,68.0
5639,77.0,240,426,1.0,59.0
5640,58.0,240,480,3.0,56.0
5641,76.0,240,480,1.0,57.0
5642,55.0,0,960,5.0,56.0
5643,67.0,240,480,3.0,58.0
5644,82.0,240,494,1.0,62.0
5645,65.0,0,480,3.0,59.0
5646,81.0,240,480,1.0,60.0
5647,73.0,240,180,1.0,62.0
5648,64.0,240,434,3.0,61.0
5649,57.0,240,914,5.0,59.0
5650,73.0,0,1200,1.0,65.0
5651,74.0,1200,60,1.0,48.0
5652,73.0,60,60,1.0,49.0
5653,71.0,60,60,1.0,51.0
5654,73.0,60,60,1.0,52.0
5655,76.0,60,360,1.0,54.0
5656,74.0,360,96,1.0,50.0
5657,67.0,240,1920,4.0,65.0
5658,74.0,0,240,1.0,46.0
5659,76.0,240,60,1.0,44.0
5660,74.0,60,60,1.0,46.0
5661,73.0,60,60,1.0,47.0
5662,38.0,0,2400,5.0,65.0
5663,50.0,0,2400,5.0,65.0
5664,65.0,120,480,4.0,46.0
5665,76.0,60,60,1.0,49.0
5666,77.0,60,360,1.0,51.0
5667,75.0,360,104,1.0,51.0
5668,75.0,120,240,1.0,52.0
5669,77.0,240,60,1.0,50.0
5670,75.0,60,60,1.0,51.0
5671,74.0,60,60,1.0,53.0
5672,75.0,60,60,1.0,54.0
5673,79.0,60,360,1.0,55.0
5674,77.0,360,90,1.0,58.0
5675,65.0,240,240,3.0,59.0
5676,58.0,0,720,4.0,58.0
5677,62.0,240,240,3.0,60.0
5678,65.0,240,240,3.0,61.0
5679,77.0,120,1200,1.0,62.0
5680,65.0,0,180,3.0,64.0
5681,82.0,240,240,1.0,64.0
5682,77.0,0,240,1.0,65.0
5683,62.0,240,240,3.0,65.0
5684,58.0,240,720,4.0,63.0
5685,65.0,240,194,3.0,66.0
5686,74.0,0,194,1.0,66.0
5687,75.0,240,120,1.0,69.0
5688,77.0,120,120,1.0,65.0
5689,79.0,0,120,1.0,63.0
5690,65.0,120,180,3.0,63.0
5691,77.0,120,120,1.0,62.0
5692,75.0,120,120,1.0,61.0
5693,63.0,0,180,3.0,61.0
5694,60.0,0,720,4.0,69.0
5695,74.0,120,120,1.0,60.0
5696,72.0,120,120,1.0,58.0
5697,65.0,0,240,3.0,58.0
5698,70.0,120,120,1.0,57.0
5699,69.0,0,426,1.0,56.0
5700,65.0,240,240,3.0,53.0
5701,53.0,120,720,4.0,56.0
5702,63.0,240,240,3.0,51.0
5703,65.0,240,186,3.0,48.0
5704,70.0,240,240,1.0,44.0
5705,72.0,240,120,1.0,45.0
5706,65.0,0,240,3.0,45.0
5707,74.0,120,120,1.0,46.0
5708,75.0,0,120,1.0,47.0
5709,77.0,120,120,1.0,47.0
5710,58.0,0,720,4.0,44.0
5711,62.0,120,240,3.0,47.0
5712,79.0,120,120,1.0,48.0
5713,65.0,0,180,3.0,48.0
5714,81.0,120,120,1.0,49.0
5715,82.0,0,120,1.0,49.0
5716,84.0,120,120,1.0,50.0
5717,86.0,0,120,1.0,51.0
5718,65.0,120,240,3.0,51.0
5719,81.0,120,120,1.0,52.0
5720,82.0,120,120,1.0,52.0
5721,77.0,120,120,1.0,53.0
5722,58.0,120,720,4.0,49.0
5723,62.0,0,240,3.0,52.0
5724,79.0,120,120,1.0,54.0
5725,65.0,0,194,3.0,54.0
5726,74.0,120,96,1.0,54.0
5727,75.0,0,120,1.0,57.0
5728,77.0,120,120,1.0,55.0
5729,79.0,120,120,1.0,54.0
5730,65.0,0,180,3.0,54.0
5731,77.0,120,120,1.0,53.0
5732,75.0,0,120,1.0,51.0
5733,63.0,120,240,3.0,51.0
5734,60.0,120,720,4.0,57.0
5735,74.0,120,120,1.0,50.0
5736,72.0,0,120,1.0,49.0
5737,70.0,120,120,1.0,48.0
5738,65.0,120,240,3.0,49.0
5739,69.0,120,426,1.0,47.0
5740,65.0,240,240,3.0,45.0
5741,63.0,240,240,3.0,43.0
5742,53.0,0,720,4.0,47.0
5743,65.0,240,186,3.0,40.0
5744,70.0,0,240,1.0,64.0
5745,72.0,0,120,1.0,66.0
5746,65.0,240,240,3.0,66.0
5747,74.0,120,120,1.0,66.0
5748,75.0,120,120,1.0,67.0
5749,62.0,0,240,3.0,67.0
5750,77.0,120,120,1.0,68.0
5751,58.0,240,720,4.0,64.0
5752,79.0,120,120,1.0,68.0
5753,65.0,0,240,3.0,68.0
5754,81.0,120,120,1.0,69.0
5755,82.0,0,240,1.0,70.0
5756,84.0,240,240,1.0,71.0
5757,65.0,0,240,3.0,71.0
5758,86.0,240,134,1.0,72.0
5759,58.0,120,720,4.0,70.0
5760,62.0,0,240,3.0,72.0
5761,86.0,0,120,1.0,74.0
5762,65.0,240,194,3.0,74.0
5763,62.0,240,180,3.0,74.0
5764,60.0,240,240,3.0,72.0
5765,57.0,240,720,4.0,77.0
5766,86.0,0,960,1.0,80.0
5767,62.0,240,240,3.0,70.0
5768,78.0,240,420,1.0,68.0
5769,62.0,240,240,3.0,66.0
5770,57.0,0,720,4.0,68.0
5771,60.0,240,240,3.0,64.0
5772,62.0,240,172,3.0,62.0
5773,67.0,0,240,1.0,67.0
5774,69.0,0,120,1.0,68.0
5775,62.0,240,180,3.0,68.0
5776,70.0,120,120,1.0,69.0
5777,72.0,0,120,1.0,70.0
5778,74.0,120,120,1.0,71.0
5779,55.0,240,720,4.0,67.0
5780,58.0,120,240,3.0,70.0
5781,76.0,120,120,1.0,72.0
5782,78.0,120,120,1.0,73.0
5783,62.0,0,240,3.0,72.0
5784,79.0,120,120,1.0,74.0
5785,81.0,120,120,1.0,74.0
5786,82.0,0,120,1.0,75.0
5787,84.0,120,120,1.0,76.0
5788,62.0,120,240,3.0,75.0
5789,86.0,120,126,1.0,77.0
5790,53.0,0,720,4.0,74.0
5791,58.0,0,240,3.0,77.0
5792,86.0,240,126,1.0,79.0
5793,62.0,0,180,3.0,79.0
5794,60.0,240,240,3.0,77.0
5795,58.0,240,240,3.0,74.0
5796,52.0,240,720,4.0,81.0
5797,84.0,0,960,1.0,84.0
5798,60.0,240,240,3.0,72.0
5799,76.0,0,434,1.0,69.0
5800,60.0,240,240,3.0,66.0
5801,55.0,240,720,4.0,69.0
5802,58.0,240,240,3.0,63.0
5803,60.0,240,186,3.0,60.0
5804,65.0,0,240,1.0,70.0
5805,67.0,0,120,1.0,71.0
5806,60.0,240,240,3.0,71.0
5807,68.0,120,120,1.0,71.0
5808,70.0,120,120,1.0,72.0
5809,53.0,240,720,4.0,70.0
5810,72.0,120,120,1.0,72.0
5811,56.0,0,240,3.0,72.0
5812,74.0,120,120,1.0,73.0
5813,60.0,0,240,3.0,73.0
5814,76.0,120,120,1.0,73.0
5815,77.0,120,120,1.0,74.0
5816,79.0,120,120,1.0,74.0
5817,80.0,120,120,1.0,75.0
5818,60.0,0,240,3.0,75.0
5819,82.0,120,120,1.0,75.0
5820,84.0,0,126,1.0,76.0
5821,56.0,120,240,3.0,76.0
5822,53.0,0,720,4.0,74.0
5823,84.0,240,126,1.0,76.0
5824,60.0,0,186,3.0,76.0
5825,84.0,240,360,1.0,77.0
5826,77.0,120,96,1.0,79.0
5827,56.0,240,240,3.0,78.0
5828,49.0,0,720,4.0,77.0
5829,53.0,0,240,3.0,79.0
5830,56.0,240,240,3.0,80.0
5831,56.0,240,240,3.0,82.0
5832,89.0,120,960,1.0,82.0
5833,53.0,240,240,3.0,83.0
5834,49.0,240,720,4.0,81.0
5835,87.0,0,240,1.0,83.0
5836,56.0,240,186,3.0,84.0
5837,85.0,0,194,1.0,84.0
5838,84.0,240,240,1.0,86.0
5839,83.0,240,240,1.0,83.0
5840,56.0,0,960,4.0,86.0
5841,80.0,240,720,1.0,80.0
5842,79.0,240,120,1.0,70.0
5843,80.0,120,120,1.0,68.0
5844,82.0,120,120,1.0,66.0
5845,80.0,120,120,1.0,64.0
5846,79.0,120,120,1.0,63.0
5847,53.0,0,1860,4.0,86.0
5848,77.0,120,96,1.0,61.0
5849,59.0,480,960,4.0,74.0
5850,49.0,0,1920,5.0,86.0
5851,76.0,0,240,1.0,59.0
5852,84.0,240,120,1.0,61.0
5853,60.0,0,420,4.0,59.0
5854,48.0,0,426,5.0,59.0
5855,55.0,120,426,4.0,59.0
5856,84.0,240,120,1.0,64.0
5857,84.0,240,120,1.0,67.0
5858,84.0,240,120,1.0,71.0
5859,89.0,240,240,1.0,77.0
5860,86.0,240,240,1.0,73.0
5861,83.0,240,240,1.0,69.0
5862,84.0,240,134,1.0,66.0
5863,77.0,240,240,1.0,72.0
5864,74.0,240,240,1.0,68.0
5865,71.0,240,240,1.0,65.0
5866,72.0,240,180,1.0,62.0
5867,89.0,240,240,1.0,68.0
5868,86.0,240,240,1.0,65.0
5869,83.0,240,240,1.0,61.0
5870,84.0,240,126,1.0,57.0
5871,88.0,240,240,1.0,63.0
5872,84.0,240,240,1.0,60.0
5873,81.0,240,246,1.0,57.0
5874,82.0,240,126,1.0,53.0
5875,86.0,240,240,1.0,59.0
5876,82.0,240,240,1.0,55.0
5877,80.0,240,240,1.0,52.0
5878,81.0,240,126,1.0,48.0
5879,86.0,240,120,1.0,52.0
5880,84.0,120,120,1.0,51.0
5881,82.0,120,120,1.0,49.0
5882,81.0,120,120,1.0,48.0
5883,79.0,120,120,1.0,46.0
5884,78.0,120,120,1.0,44.0
5885,79.0,120,134,1.0,43.0
5886,84.0,240,126,1.0,49.0
5887,82.0,120,120,1.0,47.0
5888,81.0,120,120,1.0,46.0
5889,79.0,120,120,1.0,45.0
5890,77.0,120,120,1.0,43.0
5891,76.0,120,96,1.0,42.0
5892,69.0,0,720,4.0,40.0
5893,77.0,120,720,1.0,44.0
5894,79.0,240,60,1.0,38.0
5895,77.0,60,60,1.0,40.0
5896,76.0,60,60,1.0,42.0
5897,72.0,480,480,3.0,42.0
5898,77.0,60,60,1.0,44.0
5899,65.0,60,720,4.0,46.0
5900,81.0,0,906,1.0,46.0
5901,72.0,480,426,3.0,47.0
5902,81.0,480,240,1.0,51.0
5903,79.0,240,180,1.0,46.0
5904,70.0,0,720,4.0,51.0
5905,79.0,240,240,1.0,48.0
5906,76.0,240,186,1.0,44.0
5907,72.0,0,480,3.0,48.0
5908,77.0,240,720,1.0,46.0
5909,69.0,0,720,4.0,46.0
5910,72.0,480,434,3.0,50.0
5911,81.0,240,426,1.0,52.0
5912,79.0,240,480,1.0,52.0
5913,70.0,240,720,4.0,57.0
5914,72.0,240,480,3.0,52.0
5915,76.0,240,480,1.0,48.0
5916,69.0,240,720,4.0,48.0
5917,77.0,240,480,1.0,50.0
5918,72.0,240,420,3.0,51.0
5919,81.0,240,186,1.0,55.0
5920,84.0,240,240,1.0,58.0
5921,82.0,240,194,1.0,52.0
5922,67.0,0,480,4.0,55.0
5923,79.0,240,126,1.0,46.0
5924,64.0,240,480,4.0,49.0
5925,82.0,0,240,1.0,50.0
5926,81.0,240,180,1.0,46.0
5927,65.0,240,480,4.0,50.0
5928,77.0,240,134,1.0,42.0
5929,69.0,240,434,4.0,44.0
5930,72.0,0,1874,3.0,55.0
5931,73.0,240,240,1.0,44.0
5932,70.0,0,480,4.0,44.0
5933,74.0,240,240,1.0,46.0
5934,75.0,0,240,1.0,47.0
5935,58.0,240,480,5.0,47.0
5936,76.0,240,240,1.0,49.0
5937,77.0,240,240,1.0,50.0
5938,62.0,0,480,5.0,50.0
5939,78.0,240,240,1.0,52.0
5940,81.0,240,240,1.0,53.0
5941,79.0,240,194,1.0,55.0
5942,59.0,0,480,5.0,53.0
5943,65.0,0,960,4.0,53.0
5944,79.0,0,480,1.0,52.0
5945,64.0,480,374,4.0,45.0
5946,62.0,360,120,4.0,43.0
5947,72.0,0,554,1.0,45.0
5948,72.0,120,120,1.0,45.0
5949,71.0,120,120,1.0,46.0
5950,64.0,120,420,4.0,44.0
5951,60.0,240,1386,5.0,52.0
5952,72.0,120,120,1.0,46.0
5953,73.0,120,120,1.0,47.0
5954,74.0,120,120,1.0,48.0
5955,75.0,120,120,1.0,49.0
5956,76.0,120,96,1.0,50.0
5957,69.0,0,720,4.0,50.0
5958,77.0,120,726,1.0,50.0
5959,79.0,240,82,1.0,47.0
5960,77.0,60,60,1.0,48.0
5961,76.0,60,60,1.0,49.0
5962,72.0,480,480,3.0,50.0
5963,77.0,60,60,1.0,50.0
5964,65.0,60,720,4.0,51.0
5965,81.0,0,906,1.0,51.0
5966,72.0,480,426,3.0,55.0
5967,79.0,480,240,1.0,59.0
5968,81.0,240,240,1.0,56.0
5969,70.0,0,720,4.0,59.0
5970,82.0,0,240,1.0,54.0
5971,76.0,240,194,1.0,51.0
5972,72.0,240,480,3.0,54.0
5973,69.0,240,720,4.0,53.0
5974,77.0,0,720,1.0,53.0
5975,81.0,240,186,1.0,58.0
5976,72.0,480,434,3.0,56.0
5977,78.0,0,120,1.0,63.0
5978,79.0,120,120,1.0,63.0
5979,80.0,120,120,1.0,62.0
5980,81.0,120,120,1.0,61.0
5981,82.0,0,134,1.0,61.0
5982,70.0,240,720,4.0,63.0
5983,76.0,240,126,1.0,59.0
5984,72.0,120,480,3.0,61.0
5985,77.0,240,240,1.0,58.0
5986,69.0,0,720,4.0,58.0
5987,81.0,240,480,1.0,60.0
5988,72.0,240,420,3.0,63.0
5989,84.0,240,480,1.0,70.0
5990,67.0,240,480,4.0,69.0
5991,82.0,240,480,1.0,67.0
5992,64.0,240,480,4.0,66.0
5993,79.0,240,480,1.0,64.0
5994,72.0,0,1386,3.0,69.0
5995,65.0,240,480,4.0,63.0
5996,81.0,240,472,1.0,61.0
5997,77.0,240,186,1.0,58.0
5998,62.0,240,434,4.0,59.0
5999,74.0,240,300,1.0,56.0
6000,76.0,300,60,1.0,52.0
6001,74.0,60,60,1.0,53.0
6002,73.0,60,60,1.0,54.0
6003,74.0,60,194,1.0,55.0
6004,58.0,0,900,5.0,56.0
6005,70.0,0,480,4.0,55.0
6006,79.0,240,480,1.0,56.0
6007,69.0,0,480,4.0,57.0
6008,60.0,0,480,5.0,57.0
6009,72.0,240,486,1.0,57.0
6010,77.0,240,480,1.0,58.0
6011,70.0,240,420,1.0,59.0
6012,67.0,0,426,4.0,59.0
6013,76.0,240,194,1.0,60.0
6014,65.0,0,487,5.0,63.0
6015,70.0,0,960,2.0,66.0
6016,60.0,480,480,5.0,57.0
6017,76.0,240,960,1.0,66.0
6018,69.0,0,420,2.0,51.0
6019,77.0,480,420,1.0,51.0
6020,53.0,0,426,5.0,51.0
6021,53.0,480,384,4.0,61.0
6022,72.0,960,960,1.0,58.0
6023,46.0,480,384,4.0,63.0
6024,58.0,480,384,4.0,65.0
6025,68.0,0,1920,2.0,58.0
6026,73.0,0,1200,1.0,63.0
6027,51.0,480,384,4.0,67.0
6028,77.0,240,254,1.0,67.0
6029,75.0,240,240,1.0,66.0
6030,39.0,0,384,4.0,66.0
6031,73.0,240,240,1.0,66.0
6032,67.0,0,1260,2.0,67.0
6033,44.0,0,384,4.0,65.0
6034,70.0,240,240,2.0,64.0
6035,68.0,0,240,2.0,64.0
6036,56.0,240,384,4.0,64.0
6037,67.0,240,240,2.0,63.0
6038,72.0,240,1260,1.0,65.0
6039,49.0,240,384,4.0,63.0
6040,75.0,240,254,1.0,62.0
6041,73.0,0,240,1.0,62.0
6042,37.0,240,384,4.0,62.0
6043,72.0,240,240,1.0,61.0
6044,65.0,0,1260,2.0,63.0
6045,43.0,0,384,4.0,61.0
6046,68.0,240,240,2.0,60.0
6047,67.0,240,240,2.0,59.0
6048,55.0,0,384,4.0,59.0
6049,65.0,240,240,2.0,59.0
6050,70.0,240,1260,1.0,61.0
6051,48.0,0,384,4.0,58.0
6052,73.0,240,240,1.0,58.0
6053,72.0,0,240,1.0,57.0
6054,36.0,240,384,4.0,57.0
6055,64.0,240,960,2.0,58.0
6056,70.0,240,246,1.0,57.0
6057,41.0,240,194,4.0,56.0
6058,68.0,0,194,1.0,56.0
6059,70.0,240,82,1.0,51.0
6060,68.0,80,84,1.0,52.0
6061,49.0,0,240,4.0,51.0
6062,67.0,80,86,1.0,54.0
6063,65.0,0,614,2.0,56.0
6064,68.0,0,134,1.0,55.0
6065,48.0,80,240,4.0,55.0
6066,67.0,0,120,2.0,54.0
6067,70.0,240,126,1.0,54.0
6068,46.0,0,240,4.0,54.0
6069,68.0,0,180,2.0,56.0
6070,72.0,240,186,1.0,56.0
6071,73.0,240,82,1.0,54.0
6072,72.0,80,76,1.0,55.0
6073,44.0,0,420,4.0,56.0
6074,70.0,80,86,1.0,57.0
6075,72.0,80,134,1.0,59.0
6076,73.0,240,126,1.0,60.0
6077,75.0,240,156,1.0,60.0
6078,75.0,240,156,1.0,63.0
6079,75.0,240,156,1.0,65.0
6080,75.0,240,156,1.0,67.0
6081,75.0,240,240,1.0,69.0
6082,77.0,240,186,1.0,67.0
6083,73.0,0,960,1.0,74.0
6084,55.0,0,960,5.0,74.0
6085,70.0,0,966,2.0,74.0
6086,72.0,960,420,1.0,62.0
6087,63.0,240,1380,4.0,74.0
6088,68.0,0,426,2.0,62.0
6089,56.0,0,426,5.0,62.0
6090,70.0,480,240,1.0,62.0
6091,72.0,240,82,1.0,52.0
6092,70.0,80,84,1.0,54.0
6093,69.0,80,86,1.0,56.0
6094,70.0,80,254,1.0,58.0
6095,72.0,240,120,1.0,55.0
6096,73.0,120,120,1.0,54.0
6097,65.0,0,960,2.0,62.0
6098,49.0,0,960,5.0,62.0
6099,61.0,0,960,4.0,62.0
6100,63.0,0,246,2.0,52.0
6101,68.0,120,246,1.0,52.0
6102,60.0,0,486,4.0,52.0
6103,51.0,0,486,5.0,52.0
6104,61.0,0,246,2.0,48.0
6105,67.0,480,246,1.0,48.0
6106,58.0,0,434,5.0,48.0
6107,56.0,480,480,5.0,44.0
6108,51.0,480,480,5.0,38.0
6109,61.0,0,960,2.0,48.0
6110,70.0,0,966,1.0,48.0
6111,60.0,0,420,2.0,32.0
6112,44.0,480,420,5.0,32.0
6113,68.0,0,426,1.0,32.0
6114,53.0,480,384,4.0,61.0
6115,72.0,960,960,1.0,58.0
6116,46.0,480,384,4.0,63.0
6117,58.0,480,384,4.0,65.0
6118,68.0,0,1920,2.0,58.0
6119,73.0,0,1200,1.0,63.0
6120,51.0,480,384,4.0,67.0
6121,77.0,240,254,1.0,67.0
6122,75.0,0,240,1.0,66.0
6123,39.0,240,384,4.0,66.0
6124,73.0,240,240,1.0,66.0
6125,67.0,0,1260,2.0,67.0
6126,44.0,240,384,4.0,65.0
6127,70.0,240,240,2.0,64.0
6128,68.0,240,240,2.0,64.0
6129,56.0,0,384,4.0,64.0
6130,67.0,240,240,2.0,63.0
6131,72.0,0,1260,1.0,65.0
6132,49.0,240,384,4.0,63.0
6133,75.0,240,254,1.0,62.0
6134,73.0,240,240,1.0,62.0
6135,37.0,0,384,4.0,62.0
6136,72.0,240,240,1.0,61.0
6137,65.0,0,1260,2.0,63.0
6138,43.0,240,384,4.0,61.0
6139,68.0,240,240,2.0,60.0
6140,67.0,0,240,2.0,59.0
6141,55.0,240,384,4.0,59.0
6142,65.0,240,240,2.0,59.0
6143,70.0,0,1260,1.0,61.0
6144,48.0,240,384,4.0,58.0
6145,73.0,240,240,1.0,58.0
6146,72.0,0,240,1.0,57.0
6147,36.0,240,384,4.0,57.0
6148,64.0,0,960,2.0,58.0
6149,70.0,240,246,1.0,57.0
6150,41.0,0,194,4.0,56.0
6151,68.0,0,194,1.0,56.0
6152,70.0,0,82,1.0,51.0
6153,68.0,80,84,1.0,52.0
6154,49.0,240,240,4.0,51.0
6155,67.0,80,86,1.0,54.0
6156,65.0,240,614,2.0,56.0
6157,68.0,80,134,1.0,55.0
6158,48.0,0,240,4.0,55.0
6159,67.0,240,120,2.0,54.0
6160,70.0,0,126,1.0,54.0
6161,46.0,0,240,4.0,54.0
6162,68.0,0,180,2.0,56.0
6163,72.0,0,186,1.0,56.0
6164,73.0,240,82,1.0,54.0
6165,72.0,80,76,1.0,55.0
6166,44.0,240,420,4.0,56.0
6167,70.0,80,86,1.0,57.0
6168,72.0,80,134,1.0,59.0
6169,73.0,240,126,1.0,60.0
6170,75.0,240,156,1.0,60.0
6171,75.0,240,156,1.0,63.0
6172,75.0,240,156,1.0,65.0
6173,75.0,240,156,1.0,67.0
6174,75.0,240,240,1.0,69.0
6175,77.0,240,186,1.0,67.0
6176,73.0,240,960,1.0,74.0
6177,55.0,0,960,5.0,74.0
6178,70.0,0,966,2.0,74.0
6179,72.0,960,420,1.0,62.0
6180,63.0,0,1380,4.0,74.0
6181,68.0,0,426,2.0,62.0
6182,56.0,0,426,5.0,62.0
6183,70.0,480,240,1.0,62.0
6184,72.0,240,82,1.0,52.0
6185,70.0,80,84,1.0,54.0
6186,69.0,80,86,1.0,56.0
6187,70.0,80,254,1.0,58.0
6188,72.0,240,120,1.0,55.0
6189,49.0,0,960,5.0,62.0
6190,61.0,0,960,4.0,62.0
6191,65.0,0,960,2.0,62.0
6192,73.0,120,120,1.0,54.0
6193,63.0,0,246,2.0,52.0
6194,68.0,0,246,1.0,52.0
6195,60.0,0,486,4.0,52.0
6196,51.0,120,486,5.0,52.0
6197,67.0,0,246,1.0,48.0
6198,61.0,0,246,2.0,48.0
6199,58.0,480,434,5.0,48.0
6200,56.0,0,480,5.0,44.0
6201,51.0,480,480,5.0,38.0
6202,61.0,0,960,2.0,48.0
6203,70.0,480,966,1.0,48.0
6204,44.0,480,420,5.0,32.0
6205,60.0,0,420,2.0,32.0
6206,68.0,0,426,1.0,32.0
6207,65.0,480,426,4.0,44.0
6208,72.0,960,960,1.0,42.0
6209,69.0,0,966,2.0,42.0
6210,64.0,480,420,4.0,48.0
6211,73.0,0,906,1.0,46.0
6212,70.0,480,914,2.0,46.0
6213,72.0,480,300,1.0,51.0
6214,63.0,0,480,4.0,51.0
6215,78.0,240,254,1.0,52.0
6216,77.0,240,240,1.0,53.0
6217,62.0,0,240,4.0,53.0
6218,60.0,0,240,4.0,54.0
6219,75.0,240,246,1.0,54.0
6220,69.0,0,974,2.0,51.0
6221,58.0,0,240,4.0,55.0
6222,73.0,0,420,1.0,55.0
6223,70.0,240,434,2.0,55.0
6224,60.0,240,240,4.0,50.0
6225,61.0,240,240,4.0,48.0
6226,62.0,240,240,4.0,46.0
6227,63.0,0,420,4.0,49.0
6228,63.0,480,420,4.0,51.0
6229,70.0,240,960,1.0,49.0
6230,67.0,0,966,2.0,49.0
6231,71.0,480,906,1.0,53.0
6232,62.0,480,426,4.0,56.0
6233,68.0,0,914,2.0,53.0
6234,70.0,0,300,1.0,58.0
6235,77.0,240,240,1.0,59.0
6236,61.0,0,480,4.0,58.0
6237,60.0,0,240,4.0,61.0
6238,75.0,240,246,1.0,61.0
6239,73.0,240,240,1.0,62.0
6240,58.0,0,240,4.0,62.0
6241,56.0,0,240,4.0,63.0
6242,67.0,480,1200,2.0,58.0
6243,72.0,240,426,1.0,66.0
6244,70.0,0,240,2.0,61.0
6245,55.0,240,240,4.0,61.0
6246,68.0,240,240,2.0,60.0
6247,53.0,0,240,4.0,60.0
6248,72.0,240,172,1.0,58.0
6249,51.0,0,240,4.0,58.0
6250,67.0,0,240,2.0,58.0
6251,72.0,240,240,1.0,62.0
6252,50.0,0,426,4.0,62.0
6253,71.0,240,186,1.0,56.0
6254,65.0,0,426,2.0,62.0
6255,67.0,240,180,2.0,51.0
6256,52.0,240,420,4.0,53.0
6257,70.0,0,180,1.0,51.0
6258,70.0,0,240,1.0,59.0
6259,67.0,0,240,2.0,59.0
6260,53.0,240,426,4.0,59.0
6261,69.0,240,194,1.0,55.0
6262,65.0,0,194,2.0,55.0
6263,47.0,240,420,4.0,53.0
6264,68.0,0,180,1.0,50.0
6265,65.0,240,180,2.0,50.0
6266,68.0,0,246,1.0,53.0
6267,48.0,0,426,4.0,53.0
6268,70.0,240,240,1.0,51.0
6269,71.0,0,240,1.0,48.0
6270,72.0,240,240,1.0,46.0
6271,65.0,240,966,2.0,53.0
6272,60.0,240,720,4.0,48.0
6273,64.0,240,420,2.0,45.0
6274,67.0,0,426,1.0,45.0
6275,59.0,240,240,4.0,49.0
6276,60.0,240,240,4.0,52.0
6277,59.0,240,180,4.0,56.0
6278,60.0,240,960,5.0,60.0
6279,70.0,0,960,2.0,62.0
6280,76.0,480,960,1.0,62.0
6281,68.0,0,480,2.0,66.0
6282,77.0,480,486,1.0,66.0
6283,61.0,480,1200,5.0,64.0
6284,70.0,0,480,1.0,69.0
6285,65.0,240,240,5.0,69.0
6286,63.0,0,240,5.0,68.0
6287,72.0,240,240,1.0,68.0
6288,61.0,240,240,5.0,67.0
6289,73.0,0,246,1.0,67.0
6290,67.0,480,1200,2.0,69.0
6291,70.0,240,240,2.0,66.0
6292,68.0,240,240,2.0,65.0
6293,67.0,240,240,2.0,64.0
6294,75.0,240,966,1.0,66.0
6295,60.0,0,1200,5.0,66.0
6296,63.0,240,240,5.0,63.0
6297,68.0,0,486,1.0,64.0
6298,61.0,0,240,5.0,62.0
6299,70.0,240,240,1.0,62.0
6300,72.0,240,240,1.0,61.0
6301,60.0,0,254,5.0,61.0
6302,65.0,240,1200,2.0,64.0
6303,68.0,240,240,2.0,60.0
6304,67.0,240,240,2.0,59.0
6305,73.0,240,960,1.0,61.0
6306,65.0,240,240,2.0,59.0
6307,58.0,0,1200,5.0,61.0
6308,67.0,0,480,1.0,58.0
6309,64.0,240,480,2.0,58.0
6310,61.0,240,240,5.0,59.0
6311,68.0,0,240,1.0,59.0
6312,65.0,0,240,2.0,59.0
6313,60.0,240,240,5.0,59.0
6314,67.0,0,180,2.0,60.0
6315,70.0,240,186,1.0,60.0
6316,58.0,0,240,5.0,60.0
6317,56.0,0,240,5.0,60.0
6318,72.0,0,246,1.0,60.0
6319,79.0,0,82,1.0,56.0
6320,77.0,60,82,1.0,58.0
6321,55.0,240,240,5.0,56.0
6322,76.0,100,86,1.0,61.0
6323,77.0,0,134,1.0,64.0
6324,53.0,80,240,5.0,64.0
6325,68.0,240,780,2.0,60.0
6326,79.0,0,134,1.0,62.0
6327,51.0,240,246,5.0,62.0
6328,80.0,0,240,1.0,64.0
6329,71.0,240,126,1.0,66.0
6330,49.0,240,480,5.0,64.0
6331,71.0,0,126,1.0,68.0
6332,71.0,240,120,1.0,70.0
6333,61.0,0,360,4.0,68.0
6334,65.0,240,360,4.0,68.0
6335,80.0,240,240,1.0,72.0
6336,71.0,240,126,1.0,75.0
6337,50.0,0,480,5.0,72.0
6338,71.0,0,126,1.0,77.0
6339,71.0,240,120,1.0,79.0
6340,62.0,0,366,4.0,77.0
6341,65.0,240,374,4.0,77.0
6342,72.0,240,240,1.0,81.0
6343,73.0,240,186,1.0,76.0
6344,52.0,0,960,5.0,80.0
6345,67.0,240,960,2.0,84.0
6346,61.0,0,960,4.0,80.0
6347,70.0,0,960,1.0,84.0
6348,60.0,0,420,4.0,69.0
6349,65.0,0,420,2.0,69.0
6350,53.0,960,426,5.0,69.0
6351,68.0,0,426,1.0,69.0
6352,67.0,0,240,1.0,64.0
6353,73.0,240,194,1.0,61.0
6354,72.0,240,120,1.0,59.0
6355,70.0,120,120,1.0,57.0
6356,68.0,120,120,1.0,56.0
6357,58.0,0,480,4.0,59.0
6358,46.0,480,960,5.0,64.0
6359,67.0,120,120,1.0,54.0
6360,65.0,120,254,1.0,53.0
6361,56.0,0,480,4.0,53.0
6362,64.0,0,254,1.0,48.0
6363,55.0,480,420,4.0,48.0
6364,48.0,0,906,5.0,53.0
6365,53.0,0,486,5.0,48.0
6366,58.0,0,960,2.0,52.0
6367,67.0,480,960,1.0,52.0
6368,48.0,480,480,5.0,41.0
6369,65.0,480,420,1.0,34.0
6370,41.0,0,420,5.0,34.0
6371,56.0,0,426,2.0,34.0
6372,65.0,480,426,4.0,44.0
6373,72.0,0,960,1.0,42.0
6374,69.0,960,966,2.0,42.0
6375,64.0,480,420,4.0,48.0
6376,73.0,480,906,1.0,46.0
6377,70.0,0,914,2.0,46.0
6378,72.0,0,300,1.0,51.0
6379,63.0,480,480,4.0,51.0
6380,78.0,240,254,1.0,52.0
6381,77.0,0,240,1.0,53.0
6382,62.0,240,240,4.0,53.0
6383,60.0,0,240,4.0,54.0
6384,75.0,240,246,1.0,54.0
6385,69.0,0,974,2.0,51.0
6386,58.0,240,240,4.0,55.0
6387,73.0,0,420,1.0,55.0
6388,70.0,0,434,2.0,55.0
6389,60.0,240,240,4.0,50.0
6390,61.0,240,240,4.0,48.0
6391,62.0,240,240,4.0,46.0
6392,63.0,0,420,4.0,49.0
6393,63.0,480,420,4.0,51.0
6394,70.0,0,960,1.0,49.0
6395,67.0,240,966,2.0,49.0
6396,62.0,480,426,4.0,56.0
6397,71.0,480,906,1.0,53.0
6398,68.0,0,914,2.0,53.0
6399,70.0,480,300,1.0,58.0
6400,61.0,0,480,4.0,58.0
6401,77.0,240,240,1.0,59.0
6402,60.0,240,240,4.0,61.0
6403,75.0,0,246,1.0,61.0
6404,73.0,240,240,1.0,62.0
6405,58.0,0,240,4.0,62.0
6406,56.0,0,240,4.0,63.0
6407,67.0,0,1200,2.0,58.0
6408,72.0,240,426,1.0,66.0
6409,70.0,240,240,2.0,61.0
6410,55.0,0,240,4.0,61.0
6411,53.0,240,240,4.0,60.0
6412,68.0,0,240,2.0,60.0
6413,72.0,0,172,1.0,58.0
6414,67.0,240,240,2.0,58.0
6415,51.0,0,240,4.0,58.0
6416,72.0,0,240,1.0,62.0
6417,65.0,240,426,2.0,62.0
6418,50.0,0,426,4.0,62.0
6419,71.0,240,186,1.0,56.0
6420,52.0,240,420,4.0,53.0
6421,67.0,240,180,2.0,51.0
6422,70.0,0,180,1.0,51.0
6423,70.0,240,240,1.0,59.0
6424,67.0,0,240,2.0,59.0
6425,53.0,0,426,4.0,59.0
6426,65.0,240,194,2.0,55.0
6427,69.0,0,194,1.0,55.0
6428,68.0,240,180,1.0,50.0
6429,47.0,240,420,4.0,53.0
6430,65.0,0,180,2.0,50.0
6431,68.0,0,246,1.0,53.0
6432,48.0,0,426,4.0,53.0
6433,70.0,240,240,1.0,51.0
6434,71.0,0,240,1.0,48.0
6435,72.0,240,240,1.0,46.0
6436,65.0,240,966,2.0,53.0
6437,60.0,240,720,4.0,48.0
6438,64.0,240,420,2.0,45.0
6439,67.0,0,426,1.0,45.0
6440,59.0,240,240,4.0,49.0
6441,60.0,240,240,4.0,52.0
6442,59.0,240,180,4.0,56.0
6443,60.0,240,960,5.0,60.0
6444,76.0,480,960,1.0,62.0
6445,70.0,0,960,2.0,62.0
6446,68.0,0,480,2.0,66.0
6447,77.0,480,486,1.0,66.0
6448,61.0,480,1200,5.0,64.0
6449,65.0,240,240,5.0,69.0
6450,70.0,0,480,1.0,69.0
6451,63.0,240,240,5.0,68.0
6452,72.0,0,240,1.0,68.0
6453,61.0,240,240,5.0,67.0
6454,73.0,0,246,1.0,67.0
6455,67.0,480,1200,2.0,69.0
6456,70.0,240,240,2.0,66.0
6457,68.0,240,240,2.0,65.0
6458,67.0,240,240,2.0,64.0
6459,75.0,240,966,1.0,66.0
6460,60.0,0,1200,5.0,66.0
6461,63.0,240,240,5.0,63.0
6462,68.0,0,486,1.0,64.0
6463,70.0,240,240,1.0,62.0
6464,61.0,0,240,5.0,62.0
6465,72.0,0,240,1.0,61.0
6466,60.0,240,254,5.0,61.0
6467,65.0,240,1200,2.0,64.0
6468,68.0,240,240,2.0,60.0
6469,67.0,240,240,2.0,59.0
6470,65.0,240,240,2.0,59.0
6471,73.0,0,960,1.0,61.0
6472,58.0,240,1200,5.0,61.0
6473,67.0,240,480,1.0,58.0
6474,61.0,240,240,5.0,59.0
6475,64.0,0,480,2.0,58.0
6476,68.0,0,240,1.0,59.0
6477,60.0,0,240,5.0,59.0
6478,65.0,240,240,2.0,59.0
6479,67.0,0,180,2.0,60.0
6480,70.0,0,186,1.0,60.0
6481,58.0,240,240,5.0,60.0
6482,56.0,0,240,5.0,60.0
6483,72.0,0,246,1.0,60.0
6484,79.0,240,82,1.0,56.0
6485,77.0,60,82,1.0,58.0
6486,55.0,0,240,5.0,56.0
6487,76.0,100,86,1.0,61.0
6488,77.0,80,134,1.0,64.0
6489,53.0,0,240,5.0,64.0
6490,68.0,240,780,2.0,60.0
6491,79.0,240,134,1.0,62.0
6492,51.0,0,246,5.0,62.0
6493,80.0,240,240,1.0,64.0
6494,71.0,240,126,1.0,66.0
6495,49.0,0,480,5.0,64.0
6496,71.0,240,126,1.0,68.0
6497,61.0,0,360,4.0,68.0
6498,71.0,240,120,1.0,70.0
6499,65.0,0,360,4.0,68.0
6500,80.0,0,240,1.0,72.0
6501,71.0,240,126,1.0,75.0
6502,50.0,240,480,5.0,72.0
6503,71.0,0,126,1.0,77.0
6504,71.0,240,120,1.0,79.0
6505,62.0,0,366,4.0,77.0
6506,65.0,240,374,4.0,77.0
6507,72.0,240,240,1.0,81.0
6508,73.0,240,186,1.0,76.0
6509,67.0,0,960,2.0,84.0
6510,70.0,0,960,1.0,84.0
6511,52.0,0,960,5.0,80.0
6512,61.0,240,960,4.0,80.0
6513,60.0,0,420,4.0,69.0
6514,65.0,0,420,2.0,69.0
6515,68.0,0,426,1.0,69.0
6516,53.0,960,426,5.0,69.0
6517,67.0,480,240,1.0,64.0
6518,73.0,240,194,1.0,61.0
6519,72.0,0,120,1.0,59.0
6520,70.0,120,120,1.0,57.0
6521,68.0,120,120,1.0,56.0
6522,46.0,0,960,5.0,64.0
6523,58.0,240,480,4.0,59.0
6524,67.0,120,120,1.0,54.0
6525,65.0,0,254,1.0,53.0
6526,56.0,120,480,4.0,53.0
6527,64.0,480,254,1.0,48.0
6528,55.0,0,420,4.0,48.0
6529,48.0,0,906,5.0,53.0
6530,64.0,480,1214,1.0,48.0
6531,65.0,1200,60,1.0,25.0
6532,64.0,60,60,1.0,27.0
6533,62.0,60,60,1.0,29.0
6534,64.0,60,60,1.0,31.0
6535,67.0,60,240,1.0,33.0
6536,58.0,0,1800,2.0,48.0
6537,53.0,0,1800,5.0,48.0
6538,65.0,240,120,1.0,32.0
6539,41.0,0,1806,5.0,48.0
6540,57.0,240,192,2.0,33.0
6541,41.0,0,192,5.0,33.0
6542,53.0,0,192,5.0,33.0
6543,65.0,0,240,1.0,33.0
6544,67.0,240,60,1.0,31.0
6545,65.0,60,60,1.0,33.0
6546,64.0,60,60,1.0,34.0
6547,65.0,60,74,1.0,36.0
6548,69.0,60,246,1.0,37.0
6549,67.0,240,120,1.0,37.0
6550,41.0,0,192,5.0,38.0
6551,53.0,0,192,5.0,38.0
6552,64.0,0,194,2.0,38.0
6553,67.0,240,240,1.0,38.0
6554,69.0,240,60,1.0,37.0
6555,67.0,60,60,1.0,38.0
6556,66.0,60,60,1.0,39.0
6557,67.0,60,60,1.0,40.0
6558,70.0,60,240,1.0,41.0
6559,69.0,240,120,1.0,42.0
6560,69.0,240,120,1.0,43.0
6561,65.0,0,192,2.0,43.0
6562,65.0,160,116,1.0,38.0
6563,67.0,140,120,1.0,39.0
6564,41.0,0,420,5.0,43.0
6565,53.0,0,426,5.0,43.0
6566,69.0,180,120,1.0,40.0
6567,70.0,160,132,1.0,41.0
6568,72.0,160,142,1.0,42.0
6569,70.0,160,126,1.0,43.0
6570,67.0,160,120,1.0,44.0
6571,69.0,140,134,1.0,45.0
6572,70.0,180,120,1.0,46.0
6573,72.0,160,132,1.0,47.0
6574,74.0,160,136,1.0,48.0
6575,72.0,160,134,1.0,49.0
6576,65.0,180,120,1.0,38.0
6577,67.0,140,122,1.0,39.0
6578,68.0,160,142,1.0,41.0
6579,69.0,180,120,1.0,42.0
6580,70.0,140,130,1.0,43.0
6581,71.0,160,142,1.0,45.0
6582,72.0,160,120,1.0,46.0
6583,73.0,160,130,1.0,47.0
6584,74.0,160,142,1.0,49.0
6585,75.0,180,120,1.0,50.0
6586,76.0,140,114,1.0,51.0
6587,69.0,0,720,4.0,44.0
6588,77.0,160,720,1.0,47.0
6589,79.0,240,60,1.0,43.0
6590,77.0,60,60,1.0,44.0
6591,76.0,60,60,1.0,45.0
6592,77.0,60,60,1.0,47.0
6593,72.0,480,480,3.0,46.0
6594,65.0,0,720,4.0,48.0
6595,81.0,60,900,1.0,48.0
6596,72.0,480,420,3.0,52.0
6597,81.0,0,240,1.0,55.0
6598,79.0,240,180,1.0,50.0
6599,70.0,480,720,4.0,55.0
6600,79.0,0,246,1.0,51.0
6601,76.0,240,180,1.0,47.0
6602,72.0,240,480,3.0,51.0
6603,77.0,0,240,1.0,48.0
6604,79.0,240,96,1.0,45.0
6605,77.0,80,84,1.0,48.0
6606,76.0,80,94,1.0,50.0
6607,77.0,80,186,1.0,53.0
6608,69.0,240,720,4.0,48.0
6609,81.0,240,126,1.0,55.0
6610,72.0,0,434,3.0,53.0
6611,78.0,0,240,1.0,59.0
6612,79.0,240,240,1.0,57.0
6613,82.0,240,186,1.0,54.0
6614,70.0,240,720,4.0,59.0
6615,76.0,240,134,1.0,52.0
6616,72.0,0,480,3.0,54.0
6617,79.0,0,240,1.0,52.0
6618,77.0,240,480,1.0,55.0
6619,69.0,240,720,4.0,52.0
6620,81.0,240,180,1.0,59.0
6621,72.0,240,420,3.0,57.0
6622,67.0,0,240,4.0,64.0
6623,72.0,240,240,3.0,64.0
6624,84.0,240,120,1.0,60.0
6625,82.0,120,120,1.0,59.0
6626,64.0,120,240,4.0,57.0
6627,72.0,0,240,3.0,57.0
6628,81.0,240,120,1.0,54.0
6629,79.0,120,104,1.0,52.0
6630,65.0,120,240,4.0,57.0
6631,72.0,0,240,3.0,57.0
6632,82.0,240,126,1.0,55.0
6633,81.0,120,96,1.0,53.0
6634,72.0,120,240,3.0,52.0
6635,69.0,0,240,4.0,52.0
6636,79.0,240,120,1.0,50.0
6637,77.0,120,90,1.0,49.0
6638,74.0,120,246,1.0,48.0
6639,76.0,240,82,1.0,47.0
6640,74.0,80,84,1.0,49.0
6641,73.0,80,80,1.0,51.0
6642,70.0,0,480,4.0,48.0
6643,74.0,80,134,1.0,52.0
6644,76.0,240,142,1.0,54.0
6645,58.0,0,480,3.0,52.0
6646,77.0,0,240,1.0,56.0
6647,62.0,240,480,3.0,56.0
6648,78.0,240,240,1.0,58.0
6649,81.0,0,240,1.0,59.0
6650,79.0,240,180,1.0,61.0
6651,59.0,0,486,3.0,59.0
6652,79.0,0,480,1.0,62.0
6653,65.0,240,960,4.0,59.0
6654,64.0,0,360,4.0,52.0
6655,62.0,360,120,4.0,46.0
6656,72.0,480,606,1.0,52.0
6657,73.0,120,120,1.0,48.0
6658,74.0,120,120,1.0,49.0
6659,64.0,120,420,4.0,47.0
6660,60.0,240,1394,3.0,59.0
6661,72.0,120,0,1.0,51.0
6662,70.0,120,120,1.0,52.0
6663,69.0,120,120,1.0,53.0
6664,67.0,120,120,1.0,54.0
6665,65.0,120,240,1.0,54.0
6666,67.0,240,134,1.0,54.0
6667,69.0,120,134,1.0,54.0
6668,70.0,120,126,1.0,55.0
6669,57.0,0,720,4.0,54.0
6670,72.0,120,134,1.0,55.0
6671,74.0,120,120,1.0,55.0
6672,76.0,120,120,1.0,55.0
6673,60.0,0,480,3.0,55.0
6674,77.0,0,120,1.0,56.0
6675,79.0,120,120,1.0,56.0
6676,81.0,120,120,1.0,56.0
6677,82.0,120,120,1.0,56.0
6678,84.0,0,134,1.0,57.0
6679,53.0,120,720,4.0,56.0
6680,81.0,240,126,1.0,57.0
6681,60.0,120,420,3.0,57.0
6682,79.0,240,134,1.0,58.0
6683,81.0,120,120,1.0,58.0
6684,82.0,120,126,1.0,58.0
6685,79.0,120,120,1.0,58.0
6686,76.0,120,120,1.0,59.0
6687,77.0,120,120,1.0,59.0
6688,58.0,0,720,4.0,58.0
6689,79.0,120,120,1.0,59.0
6690,60.0,0,480,3.0,59.0
6691,76.0,120,120,1.0,59.0
6692,77.0,0,96,1.0,59.0
6693,84.0,120,126,1.0,60.0
6694,83.0,120,120,1.0,60.0
6695,84.0,120,96,1.0,60.0
6696,86.0,120,120,1.0,60.0
6697,57.0,120,720,4.0,59.0
6698,84.0,120,120,1.0,61.0
6699,82.0,120,120,1.0,61.0
6700,60.0,0,434,3.0,60.0
6701,81.0,120,96,1.0,61.0
6702,79.0,120,120,1.0,61.0
6703,81.0,120,120,1.0,62.0
6704,82.0,120,120,1.0,62.0
6705,79.0,120,120,1.0,62.0
6706,76.0,120,120,1.0,62.0
6707,77.0,120,120,1.0,63.0
6708,58.0,0,720,4.0,61.0
6709,79.0,120,120,1.0,63.0
6710,76.0,120,96,1.0,63.0
6711,60.0,0,480,3.0,62.0
6712,77.0,120,240,1.0,63.0
6713,57.0,0,426,4.0,63.0
6714,69.0,0,480,2.0,64.0
6715,81.0,240,480,1.0,64.0
6716,60.0,0,420,3.0,64.0
6717,53.0,240,420,4.0,64.0
6718,72.0,0,480,2.0,65.0
6719,84.0,240,480,1.0,65.0
6720,55.0,0,480,4.0,67.0
6721,83.0,0,480,1.0,66.0
6722,71.0,240,480,2.0,66.0
6723,52.0,240,420,4.0,65.0
6724,82.0,240,480,1.0,64.0
6725,70.0,0,480,2.0,64.0
6726,53.0,240,420,4.0,64.0
6727,60.0,240,1380,3.0,67.0
6728,68.0,240,480,2.0,63.0
6729,80.0,0,480,1.0,63.0
6730,53.0,0,420,3.0,62.0
6731,50.0,240,420,4.0,62.0
6732,69.0,0,202,2.0,61.0
6733,81.0,240,202,1.0,61.0
6734,67.0,120,134,1.0,61.0
6735,69.0,120,120,1.0,62.0
6736,50.0,0,420,3.0,60.0
6737,55.0,240,426,3.0,60.0
6738,46.0,0,426,4.0,60.0
6739,70.0,120,120,1.0,62.0
6740,72.0,120,120,1.0,63.0
6741,74.0,120,120,1.0,64.0
6742,76.0,120,120,1.0,64.0
6743,78.0,120,120,1.0,65.0
6744,79.0,120,120,1.0,66.0
6745,81.0,120,120,1.0,66.0
6746,82.0,120,120,1.0,67.0
6747,84.0,120,120,1.0,67.0
6748,86.0,120,126,1.0,68.0
6749,60.0,240,120,4.0,69.0
6750,70.0,0,126,3.0,69.0
6751,76.0,0,134,1.0,69.0
6752,79.0,0,726,1.0,72.0
6753,81.0,720,120,1.0,64.0
6754,70.0,240,960,3.0,72.0
6755,79.0,120,120,1.0,63.0
6756,77.0,0,134,1.0,61.0
6757,76.0,160,112,1.0,58.0
6758,69.0,120,426,3.0,61.0
6759,65.0,0,1386,4.0,72.0
6760,75.0,140,142,1.0,56.0
6761,74.0,180,120,1.0,53.0
6762,73.0,160,110,1.0,50.0
6763,72.0,160,122,1.0,47.0
6764,50.0,160,720,4.0,44.0
6765,53.0,480,480,3.0,46.0
6766,70.0,0,966,1.0,46.0
6767,48.0,0,720,4.0,48.0
6768,53.0,480,420,3.0,50.0
6769,69.0,480,960,1.0,48.0
6770,67.0,480,142,1.0,51.0
6771,69.0,180,120,1.0,52.0
6772,70.0,140,130,1.0,53.0
6773,72.0,160,134,1.0,53.0
6774,48.0,0,720,4.0,51.0
6775,74.0,180,120,1.0,54.0
6776,76.0,140,122,1.0,55.0
6777,46.0,0,960,5.0,51.0
6778,55.0,0,486,3.0,53.0
6779,77.0,0,426,1.0,57.0
6780,48.0,160,720,4.0,57.0
6781,45.0,0,900,5.0,57.0
6782,53.0,480,420,3.0,51.0
6783,77.0,240,186,1.0,49.0
6784,84.0,0,240,1.0,53.0
6785,83.0,240,180,1.0,48.0
6786,62.0,240,720,4.0,46.0
6787,82.0,240,126,1.0,51.0
6788,65.0,240,480,3.0,49.0
6789,80.0,240,240,1.0,58.0
6790,81.0,240,180,1.0,53.0
6791,60.0,0,720,4.0,52.0
6792,81.0,240,126,1.0,56.0
6793,65.0,240,420,3.0,55.0
6794,78.0,240,120,1.0,57.0
6795,79.0,120,120,1.0,58.0
6796,81.0,120,120,1.0,59.0
6797,82.0,120,120,1.0,59.0
6798,83.0,0,120,1.0,60.0
6799,84.0,120,120,1.0,61.0
6800,60.0,0,720,4.0,57.0
6801,86.0,120,120,1.0,61.0
6802,88.0,120,120,1.0,62.0
6803,58.0,0,960,5.0,57.0
6804,67.0,120,480,3.0,60.0
6805,89.0,0,420,1.0,67.0
6806,60.0,0,720,4.0,67.0
6807,57.0,120,900,5.0,67.0
6808,65.0,480,426,3.0,57.0
6809,77.0,480,360,1.0,50.0
6810,74.0,360,112,1.0,57.0
6811,62.0,120,420,5.0,57.0
6812,65.0,0,420,4.0,57.0
6813,62.0,0,480,5.0,54.0
6814,71.0,0,960,1.0,61.0
6815,65.0,480,487,4.0,54.0
6816,64.0,480,420,4.0,50.0
6817,60.0,0,420,5.0,50.0
6818,72.0,0,420,1.0,50.0
6819,74.0,480,366,1.0,49.0
6820,70.0,360,104,1.0,58.0
6821,60.0,0,420,4.0,61.0
6822,58.0,0,420,4.0,61.0
6823,52.0,120,420,5.0,61.0
6824,58.0,480,480,4.0,55.0
6825,52.0,0,480,5.0,55.0
6826,67.0,0,974,1.0,61.0
6827,53.0,0,420,5.0,49.0
6828,60.0,0,906,4.0,55.0
6829,69.0,480,426,1.0,49.0
6830,57.0,0,426,4.0,49.0
6831,72.0,0,82,1.0,46.0
6832,70.0,60,60,1.0,43.0
6833,69.0,60,60,1.0,44.0
6834,70.0,60,60,1.0,46.0
6835,72.0,60,120,1.0,48.0
6836,74.0,120,120,1.0,48.0
6837,72.0,120,120,1.0,49.0
6838,70.0,120,120,1.0,49.0
6839,69.0,120,120,1.0,50.0
6840,53.0,0,892,4.0,46.0
6841,50.0,0,892,5.0,46.0
6842,58.0,480,900,4.0,46.0
6843,67.0,120,104,1.0,51.0
6844,65.0,0,300,1.0,52.0
6845,57.0,120,412,4.0,52.0
6846,72.0,240,186,1.0,53.0
6847,53.0,0,434,4.0,52.0
6848,67.0,0,240,1.0,54.0
6849,52.0,240,420,4.0,54.0
6850,48.0,0,900,5.0,52.0
6851,72.0,240,186,1.0,56.0
6852,53.0,0,480,5.0,57.0
6853,67.0,240,960,2.0,60.0
6854,70.0,0,960,1.0,60.0
6855,64.0,0,960,2.0,60.0
6856,48.0,480,480,5.0,51.0
6857,65.0,480,120,2.0,48.0
6858,69.0,0,120,1.0,48.0
6859,77.0,120,78,1.0,49.0
6860,79.0,120,78,1.0,50.0
6861,41.0,0,420,5.0,48.0
6862,81.0,120,78,1.0,51.0
6863,82.0,120,78,1.0,52.0
6864,84.0,120,78,1.0,53.0
6865,86.0,120,78,1.0,54.0
6866,88.0,120,78,1.0,55.0
6867,89.0,120,120,1.0,56.0
6868,88.0,120,120,1.0,57.0
6869,89.0,120,120,1.0,58.0
6870,86.0,120,96,1.0,59.0
6871,67.0,120,426,5.0,65.0
6872,77.0,0,426,4.0,65.0
6873,74.0,0,426,4.0,65.0
6874,67.0,0,480,5.0,60.0
6875,77.0,0,480,4.0,60.0
6876,74.0,480,480,4.0,60.0
6877,83.0,0,966,1.0,65.0
6878,84.0,0,240,1.0,55.0
6879,85.0,240,194,1.0,54.0
6880,72.0,480,434,5.0,55.0
6881,76.0,0,442,4.0,55.0
6882,86.0,240,126,1.0,57.0
6883,85.0,120,126,1.0,59.0
6884,86.0,120,120,1.0,61.0
6885,82.0,120,96,1.0,62.0
6886,64.0,120,420,4.0,67.0
6887,70.0,0,420,4.0,67.0
6888,60.0,0,420,5.0,67.0
6889,79.0,0,720,1.0,67.0
6890,64.0,0,480,4.0,62.0
6891,70.0,0,480,4.0,62.0
6892,60.0,480,480,5.0,62.0
6893,80.0,240,240,1.0,60.0
6894,81.0,0,120,1.0,54.0
6895,82.0,120,120,1.0,55.0
6896,83.0,120,120,1.0,56.0
6897,69.0,240,426,4.0,54.0
6898,65.0,0,426,5.0,54.0
6899,84.0,120,96,1.0,56.0
6900,85.0,120,240,1.0,57.0
6901,86.0,240,180,1.0,59.0
6902,84.0,240,120,1.0,60.0
6903,82.0,120,120,1.0,61.0
6904,81.0,120,120,1.0,62.0
6905,58.0,0,420,5.0,60.0
6906,67.0,0,426,4.0,60.0
6907,79.0,120,104,1.0,62.0
6908,77.0,120,246,1.0,63.0
6909,79.0,240,60,1.0,61.0
6910,77.0,60,60,1.0,63.0
6911,76.0,60,60,1.0,65.0
6912,69.0,0,426,4.0,63.0
6913,77.0,60,60,1.0,67.0
6914,81.0,0,240,1.0,69.0
6915,70.0,0,420,4.0,69.0
6916,60.0,0,900,5.0,63.0
6917,79.0,240,186,1.0,70.0
6918,76.0,60,434,1.0,69.0
6919,77.0,0,120,1.0,73.0
6920,76.0,120,120,1.0,72.0
6921,79.0,120,120,1.0,72.0
6922,77.0,120,120,1.0,71.0
6923,81.0,120,120,1.0,71.0
6924,79.0,120,120,1.0,70.0
6925,77.0,120,120,1.0,69.0
6926,76.0,120,120,1.0,69.0
6927,74.0,120,180,1.0,68.0
6928,72.0,120,120,1.0,68.0
6929,71.0,120,120,1.0,67.0
6930,74.0,120,120,1.0,66.0
6931,79.0,120,120,1.0,66.0
6932,77.0,120,126,1.0,65.0
6933,74.0,120,120,1.0,64.0
6934,71.0,0,1845,4.0,73.0
6935,67.0,0,1860,4.0,73.0
6936,65.0,240,1860,4.0,73.0
6937,62.0,0,1866,5.0,73.0
6938,71.0,120,96,1.0,64.0
6939,70.0,0,120,1.0,63.0
6940,69.0,120,120,1.0,63.0
6941,72.0,120,120,1.0,62.0
6942,70.0,120,120,1.0,61.0
6943,74.0,120,120,1.0,61.0
6944,72.0,120,120,1.0,60.0
6945,70.0,120,120,1.0,60.0
6946,69.0,120,120,1.0,59.0
6947,67.0,120,120,1.0,58.0
6948,65.0,120,120,1.0,58.0
6949,64.0,120,120,1.0,57.0
6950,67.0,120,120,1.0,56.0
6951,72.0,120,120,1.0,56.0
6952,70.0,120,120,1.0,55.0
6953,67.0,120,120,1.0,55.0
6954,58.0,0,1845,4.0,63.0
6955,52.0,120,1852,5.0,63.0
6956,60.0,0,1867,4.0,63.0
6957,55.0,0,1867,4.0,63.0
6958,64.0,120,96,1.0,54.0
6959,67.0,240,60,1.0,51.0
6960,65.0,60,60,1.0,52.0
6961,64.0,60,60,1.0,53.0
6962,65.0,60,60,1.0,55.0
6963,45.0,120,480,5.0,54.0
6964,84.0,60,134,1.0,56.0
6965,84.0,240,120,1.0,58.0
6966,69.0,240,60,1.0,55.0
6967,67.0,60,60,1.0,57.0
6968,66.0,60,60,1.0,59.0
6969,46.0,240,480,5.0,59.0
6970,67.0,60,60,1.0,61.0
6971,86.0,60,126,1.0,63.0
6972,86.0,240,120,1.0,63.0
6973,84.0,240,420,1.0,64.0
6974,69.0,0,480,4.0,67.0
6975,72.0,480,720,1.0,70.0
6976,74.0,240,82,1.0,63.0
6977,72.0,60,82,1.0,65.0
6978,71.0,60,60,1.0,66.0
6979,60.0,0,1440,5.0,64.0
6980,72.0,60,60,1.0,67.0
6981,74.0,0,240,1.0,68.0
6982,70.0,480,900,4.0,70.0
6983,61.0,60,420,5.0,74.0
6984,76.0,240,186,1.0,73.0
6985,77.0,0,120,1.0,79.0
6986,76.0,120,120,1.0,79.0
6987,79.0,120,120,1.0,78.0
6988,77.0,120,120,1.0,78.0
6989,81.0,120,126,1.0,78.0
6990,79.0,120,126,1.0,78.0
6991,77.0,120,120,1.0,77.0
6992,76.0,120,120,1.0,77.0
6993,74.0,120,120,1.0,77.0
6994,72.0,120,120,1.0,76.0
6995,71.0,120,120,1.0,76.0
6996,74.0,120,120,1.0,76.0
6997,79.0,120,120,1.0,75.0
6998,77.0,120,120,1.0,75.0
6999,74.0,120,120,1.0,75.0
7000,71.0,0,1852,4.0,79.0
7001,65.0,0,1867,4.0,79.0
7002,62.0,0,1867,5.0,79.0
7003,67.0,240,1867,4.0,79.0
7004,71.0,120,96,1.0,74.0
7005,70.0,0,120,1.0,74.0
7006,69.0,120,120,1.0,74.0
7007,72.0,120,120,1.0,73.0
7008,70.0,120,120,1.0,73.0
7009,74.0,120,134,1.0,73.0
7010,72.0,120,134,1.0,72.0
7011,70.0,120,134,1.0,72.0
7012,69.0,120,134,1.0,72.0
7013,67.0,120,126,1.0,71.0
7014,65.0,120,120,1.0,71.0
7015,64.0,120,120,1.0,71.0
7016,67.0,120,120,1.0,70.0
7017,72.0,120,120,1.0,70.0
7018,70.0,120,120,1.0,70.0
7019,60.0,120,1800,4.0,74.0
7020,58.0,0,1800,4.0,74.0
7021,55.0,0,1800,4.0,74.0
7022,67.0,120,120,1.0,69.0
7023,52.0,0,1800,5.0,74.0
7024,64.0,120,96,1.0,69.0
7025,51.0,120,120,5.0,69.0
7026,50.0,120,120,5.0,69.0
7027,53.0,120,126,5.0,68.0
7028,51.0,120,120,5.0,68.0
7029,55.0,120,120,5.0,68.0
7030,53.0,120,126,5.0,67.0
7031,51.0,120,120,5.0,67.0
7032,50.0,120,120,5.0,67.0
7033,48.0,120,120,5.0,66.0
7034,46.0,120,120,5.0,66.0
7035,45.0,120,120,5.0,66.0
7036,43.0,120,134,5.0,65.0
7037,41.0,120,120,5.0,65.0
7038,40.0,120,120,5.0,65.0
7039,41.0,120,120,5.0,64.0
7040,65.0,0,1866,1.0,69.0
7041,57.0,0,1866,2.0,69.0
7042,39.0,120,134,5.0,64.0
7043,58.0,120,120,1.0,65.0
7044,60.0,120,120,1.0,66.0
7045,38.0,120,426,5.0,64.0
7046,62.0,120,120,1.0,66.0
7047,63.0,120,120,1.0,67.0
7048,65.0,120,120,1.0,68.0
7049,67.0,120,120,1.0,68.0
7050,69.0,120,120,1.0,69.0
7051,70.0,120,120,1.0,70.0
7052,72.0,120,120,1.0,70.0
7053,74.0,120,120,1.0,71.0
7054,75.0,120,120,1.0,72.0
7055,77.0,120,120,1.0,73.0
7056,79.0,120,120,1.0,73.0
7057,81.0,120,134,1.0,74.0
7058,82.0,120,96,1.0,75.0
7059,65.0,240,156,1.0,77.0
7060,59.0,0,426,4.0,75.0
7061,49.0,0,426,5.0,75.0
7062,53.0,120,426,4.0,75.0
7063,55.0,0,426,4.0,75.0
7064,68.0,240,156,1.0,78.0
7065,71.0,240,156,1.0,80.0
7066,77.0,240,156,1.0,81.0
7067,80.0,240,156,1.0,82.0
7068,83.0,240,156,1.0,84.0
7069,89.0,240,156,1.0,85.0
7070,36.0,240,900,5.0,50.0
7071,48.0,0,906,1.0,53.0
7072,41.0,960,1200,5.0,53.0
7073,40.0,240,180,5.0,57.0
7074,40.0,240,240,5.0,58.0
7075,36.0,240,186,5.0,59.0
7076,55.0,960,1156,1.0,57.0
7077,53.0,240,180,2.0,61.0
7078,53.0,240,240,2.0,62.0
7079,48.0,240,186,2.0,62.0
7080,45.0,240,1200,5.0,60.0
7081,43.0,240,186,5.0,64.0
7082,43.0,240,240,5.0,65.0
7083,36.0,240,186,5.0,66.0
7084,58.0,240,1200,1.0,63.0
7085,57.0,240,180,2.0,67.0
7086,41.0,0,480,5.0,66.0
7087,57.0,0,240,2.0,68.0
7088,55.0,240,180,2.0,69.0
7089,60.0,240,915,1.0,66.0
7090,40.0,240,664,5.0,68.0
7091,38.0,240,180,5.0,70.0
7092,57.0,0,502,2.0,70.0
7093,38.0,0,240,5.0,71.0
7094,59.0,240,426,2.0,71.0
7095,43.0,240,202,5.0,72.0
7096,65.0,240,1200,1.0,70.0
7097,64.0,240,180,2.0,74.0
7098,60.0,240,427,2.0,73.0
7099,36.0,0,435,5.0,73.0
7100,64.0,0,240,2.0,75.0
7101,48.0,240,420,5.0,75.0
7102,60.0,240,194,2.0,75.0
7103,70.0,0,1200,1.0,73.0
7104,69.0,240,180,2.0,77.0
7105,69.0,240,240,2.0,78.0
7106,60.0,0,900,4.0,76.0
7107,65.0,240,186,2.0,79.0
7108,53.0,240,906,5.0,76.0
7109,75.0,0,1200,1.0,76.0
7110,58.0,0,412,4.0,79.0
7111,74.0,240,186,2.0,80.0
7112,46.0,240,426,5.0,79.0
7113,74.0,0,240,2.0,81.0
7114,65.0,0,900,2.0,79.0
7115,53.0,0,420,5.0,81.0
7116,72.0,240,186,2.0,82.0
7117,57.0,240,434,4.0,81.0
7118,77.0,0,1207,1.0,79.0
7119,76.0,240,172,2.0,84.0
7120,72.0,240,705,2.0,83.0
7121,76.0,240,240,2.0,84.0
7122,58.0,0,900,4.0,83.0
7123,55.0,0,900,5.0,83.0
7124,72.0,240,195,2.0,85.0
7125,82.0,0,1200,1.0,83.0
7126,60.0,0,420,4.0,86.0
7127,77.0,0,420,2.0,86.0
7128,53.0,0,434,5.0,86.0
7129,81.0,240,194,2.0,87.0
7130,81.0,0,240,2.0,88.0
7131,64.0,0,420,4.0,88.0
7132,76.0,240,420,2.0,88.0
7133,79.0,240,186,2.0,88.0
7134,60.0,0,426,5.0,88.0
7135,84.0,240,1200,1.0,86.0
7136,83.0,240,194,2.0,86.0
7137,79.0,240,712,2.0,89.0
7138,83.0,240,240,2.0,85.0
7139,55.0,0,900,5.0,89.0
7140,62.0,0,900,4.0,89.0
7141,79.0,240,202,2.0,84.0
7142,89.0,0,1200,1.0,89.0
7143,84.0,0,426,2.0,83.0
7144,88.0,240,186,1.0,82.0
7145,79.0,0,428,2.0,83.0
7146,88.0,240,240,1.0,81.0
7147,84.0,240,186,1.0,80.0
7148,72.0,240,1206,4.0,83.0
7149,70.0,240,180,4.0,78.0
7150,70.0,240,240,4.0,78.0
7151,68.0,240,172,4.0,77.0
7152,60.0,0,1866,5.0,83.0
7153,86.0,240,1200,1.0,79.0
7154,84.0,240,195,1.0,75.0
7155,84.0,240,246,1.0,74.0
7156,81.0,240,194,1.0,73.0
7157,69.0,0,1140,4.0,76.0
7158,67.0,240,180,4.0,71.0
7159,67.0,240,240,4.0,70.0
7160,64.0,240,180,4.0,69.0
7161,60.0,240,1860,5.0,76.0
7162,82.0,240,1200,1.0,72.0
7163,81.0,240,180,1.0,67.0
7164,81.0,240,240,1.0,66.0
7165,65.0,240,720,4.0,68.0
7166,69.0,0,180,4.0,65.0
7167,60.0,0,900,5.0,68.0
7168,78.0,240,186,1.0,65.0
7169,79.0,240,126,1.0,64.0
7170,70.0,0,240,4.0,64.0
7171,78.0,0,126,1.0,63.0
7172,69.0,240,240,4.0,63.0
7173,79.0,0,134,1.0,62.0
7174,60.0,0,645,5.0,64.0
7175,70.0,240,180,4.0,62.0
7176,76.0,240,126,1.0,61.0
7177,77.0,0,126,1.0,60.0
7178,69.0,0,240,4.0,60.0
7179,76.0,0,126,1.0,59.0
7180,68.0,240,240,4.0,59.0
7181,77.0,240,134,1.0,58.0
7182,69.0,0,194,4.0,58.0
7183,60.0,240,675,5.0,60.0
7184,78.0,240,126,1.0,57.0
7185,79.0,0,120,1.0,56.0
7186,81.0,120,120,1.0,56.0
7187,70.0,240,240,4.0,56.0
7188,78.0,120,120,1.0,55.0
7189,69.0,0,240,4.0,55.0
7190,81.0,120,120,1.0,55.0
7191,60.0,0,660,5.0,56.0
7192,70.0,0,194,4.0,55.0
7193,79.0,120,240,1.0,55.0
7194,76.0,240,126,1.0,54.0
7195,77.0,240,120,1.0,53.0
7196,69.0,0,240,4.0,53.0
7197,79.0,120,120,1.0,52.0
7198,76.0,0,120,1.0,52.0
7199,79.0,120,120,1.0,51.0
7200,68.0,120,240,4.0,52.0
7201,60.0,0,660,5.0,53.0
7202,69.0,0,186,4.0,51.0
7203,77.0,120,240,1.0,51.0
7204,78.0,240,134,1.0,50.0
7205,79.0,0,120,1.0,49.0
7206,81.0,120,120,1.0,48.0
7207,82.0,120,120,1.0,48.0
7208,70.0,240,420,4.0,49.0
7209,60.0,0,426,5.0,49.0
7210,84.0,120,120,1.0,47.0
7211,86.0,120,240,1.0,47.0
7212,76.0,240,126,1.0,46.0
7213,77.0,0,120,1.0,45.0
7214,79.0,120,120,1.0,44.0
7215,81.0,120,120,1.0,44.0
7216,69.0,0,420,4.0,45.0
7217,60.0,240,426,5.0,45.0
7218,82.0,120,120,1.0,43.0
7219,84.0,120,240,1.0,43.0
7220,72.0,240,126,1.0,42.0
7221,71.0,0,120,1.0,58.0
7222,72.0,120,120,1.0,58.0
7223,74.0,120,120,1.0,58.0
7224,76.0,120,120,1.0,58.0
7225,77.0,120,120,1.0,58.0
7226,79.0,120,120,1.0,58.0
7227,80.0,120,120,1.0,59.0
7228,79.0,120,120,1.0,59.0
7229,77.0,120,120,1.0,59.0
7230,76.0,120,126,1.0,59.0
7231,74.0,120,120,1.0,59.0
7232,72.0,120,120,1.0,59.0
7233,71.0,120,126,1.0,59.0
7234,72.0,120,126,1.0,59.0
7235,74.0,120,142,1.0,60.0
7236,76.0,120,126,1.0,60.0
7237,77.0,120,120,1.0,60.0
7238,79.0,120,120,1.0,60.0
7239,80.0,120,120,1.0,60.0
7240,79.0,120,120,1.0,60.0
7241,77.0,120,120,1.0,60.0
7242,76.0,120,120,1.0,61.0
7243,74.0,120,120,1.0,61.0
7244,72.0,120,120,1.0,61.0
7245,71.0,120,120,1.0,61.0
7246,72.0,120,120,1.0,61.0
7247,74.0,120,120,1.0,61.0
7248,76.0,120,120,1.0,61.0
7249,77.0,120,120,1.0,62.0
7250,79.0,120,120,1.0,62.0
7251,68.0,240,3720,4.0,58.0
7252,62.0,0,3720,4.0,58.0
7253,65.0,0,3720,4.0,58.0
7254,81.0,120,120,1.0,62.0
7255,60.0,0,3720,5.0,58.0
7256,71.0,120,120,1.0,62.0
7257,72.0,120,120,1.0,62.0
7258,74.0,120,120,1.0,62.0
7259,72.0,120,120,1.0,62.0
7260,71.0,120,120,1.0,63.0
7261,72.0,120,120,1.0,63.0
7262,73.0,120,120,1.0,63.0
7263,74.0,120,120,1.0,63.0
7264,75.0,120,120,1.0,63.0
7265,76.0,120,120,1.0,63.0
7266,77.0,120,120,1.0,63.0
7267,78.0,120,120,1.0,64.0
7268,79.0,120,120,1.0,64.0
7269,80.0,120,120,1.0,64.0
7270,81.0,120,120,1.0,64.0
7271,82.0,120,120,1.0,64.0
7272,83.0,120,120,1.0,64.0
7273,84.0,120,120,1.0,64.0
7274,85.0,120,120,1.0,65.0
7275,86.0,120,120,1.0,65.0
7276,87.0,120,120,1.0,65.0
7277,88.0,120,120,1.0,65.0
7278,89.0,120,120,1.0,65.0
7279,88.0,120,120,1.0,65.0
7280,86.0,120,120,1.0,65.0
7281,84.0,120,120,1.0,66.0
7282,82.0,120,120,1.0,66.0
7283,81.0,120,120,1.0,66.0
7284,79.0,120,120,1.0,66.0
7285,77.0,120,120,1.0,66.0
7286,76.0,120,120,1.0,66.0
7287,74.0,120,120,1.0,66.0
7288,72.0,120,60,1.0,66.0
7289,69.0,0,3795,4.0,62.0
7290,65.0,0,3795,4.0,62.0
7291,60.0,0,3802,5.0,62.0
7292,70.0,60,60,1.0,67.0
7293,69.0,60,120,1.0,67.0
7294,70.0,120,120,1.0,67.0
7295,72.0,120,120,1.0,67.0
7296,74.0,120,120,1.0,67.0
7297,76.0,120,120,1.0,67.0
7298,77.0,120,120,1.0,67.0
7299,79.0,120,120,1.0,67.0
7300,81.0,120,120,1.0,68.0
7301,82.0,120,120,1.0,68.0
7302,84.0,120,120,1.0,68.0
7303,86.0,120,120,1.0,68.0
7304,88.0,120,120,1.0,68.0
7305,89.0,120,120,1.0,68.0
7306,77.0,360,88,1.0,69.0
7307,79.0,120,88,1.0,69.0
7308,81.0,80,88,1.0,62.0
7309,79.0,80,88,1.0,62.0
7310,81.0,80,88,1.0,62.0
7311,79.0,80,88,1.0,63.0
7312,81.0,80,88,1.0,63.0
7313,79.0,80,88,1.0,63.0
7314,81.0,80,88,1.0,64.0
7315,79.0,80,88,1.0,64.0
7316,81.0,80,88,1.0,65.0
7317,79.0,80,88,1.0,65.0
7318,81.0,80,88,1.0,65.0
7319,79.0,0,88,1.0,66.0
7320,81.0,80,88,1.0,66.0
7321,79.0,80,88,1.0,66.0
7322,81.0,80,88,1.0,67.0
7323,79.0,80,88,1.0,67.0
7324,81.0,80,88,1.0,67.0
7325,79.0,80,88,1.0,68.0
7326,81.0,80,88,1.0,68.0
7327,79.0,80,88,1.0,68.0
7328,77.0,80,134,1.0,69.0
7329,60.0,80,900,5.0,70.0
7330,64.0,0,900,4.0,70.0
7331,70.0,0,900,4.0,70.0
7332,79.0,120,88,1.0,69.0
7333,77.0,0,420,1.0,71.0
7334,65.0,120,720,4.0,71.0
7335,77.0,240,120,1.0,49.0
7336,76.0,120,120,1.0,50.0
7337,60.0,480,495,3.0,46.0
7338,79.0,120,120,1.0,52.0
7339,77.0,120,120,1.0,53.0
7340,81.0,120,120,1.0,55.0
7341,79.0,120,120,1.0,56.0
7342,82.0,0,120,1.0,58.0
7343,65.0,0,720,4.0,52.0
7344,81.0,120,120,1.0,59.0
7345,84.0,120,120,1.0,60.0
7346,60.0,120,420,3.0,58.0
7347,69.0,0,1874,3.0,71.0
7348,82.0,120,120,1.0,62.0
7349,86.0,0,240,1.0,68.0
7350,84.0,240,180,1.0,66.0
7351,64.0,0,720,4.0,67.0
7352,60.0,0,487,3.0,65.0
7353,84.0,240,720,1.0,65.0
7354,83.0,240,240,1.0,61.0
7355,64.0,480,720,4.0,62.0
7356,82.0,0,240,1.0,59.0
7357,70.0,120,1860,3.0,67.0
7358,60.0,240,420,3.0,59.0
7359,79.0,240,186,1.0,58.0
7360,76.0,0,240,1.0,57.0
7361,77.0,240,180,1.0,55.0
7362,65.0,240,720,4.0,57.0
7363,77.0,240,120,1.0,56.0
7364,60.0,240,480,3.0,54.0
7365,76.0,120,120,1.0,57.0
7366,79.0,0,120,1.0,59.0
7367,77.0,120,120,1.0,61.0
7368,81.0,120,120,1.0,63.0
7369,79.0,120,120,1.0,65.0
7370,82.0,0,120,1.0,67.0
7371,65.0,120,720,4.0,59.0
7372,81.0,120,120,1.0,69.0
7373,84.0,120,120,1.0,71.0
7374,60.0,120,426,3.0,67.0
7375,69.0,0,1866,3.0,57.0
7376,82.0,120,96,1.0,72.0
7377,86.0,0,240,1.0,76.0
7378,84.0,240,180,1.0,74.0
7379,64.0,0,720,4.0,75.0
7380,60.0,240,480,3.0,72.0
7381,84.0,0,600,1.0,72.0
7382,83.0,120,120,1.0,69.0
7383,82.0,120,120,1.0,68.0
7384,81.0,120,120,1.0,68.0
7385,84.0,0,126,1.0,67.0
7386,64.0,480,720,4.0,70.0
7387,82.0,120,120,1.0,66.0
7388,81.0,120,120,1.0,66.0
7389,70.0,120,1866,3.0,75.0
7390,60.0,120,442,3.0,67.0
7391,79.0,120,96,1.0,65.0
7392,77.0,120,240,1.0,64.0
7393,79.0,240,60,1.0,60.0
7394,77.0,60,60,1.0,61.0
7395,76.0,60,60,1.0,62.0
7396,69.0,0,420,4.0,64.0
7397,65.0,0,434,5.0,64.0
7398,77.0,60,60,1.0,63.0
7399,81.0,60,606,1.0,64.0
7400,74.0,240,60,1.0,52.0
7401,72.0,60,60,1.0,53.0
7402,71.0,60,60,1.0,54.0
7403,57.0,480,426,4.0,59.0
7404,53.0,0,426,5.0,59.0
7405,72.0,60,60,1.0,55.0
7406,77.0,60,600,1.0,56.0
7407,69.0,180,156,1.0,53.0
7408,45.0,0,412,4.0,54.0
7409,41.0,480,426,5.0,54.0
7410,72.0,120,156,1.0,52.0
7411,65.0,180,156,1.0,50.0
7412,69.0,180,156,1.0,49.0
7413,60.0,120,156,1.0,48.0
7414,65.0,180,156,1.0,46.0
7415,57.0,180,156,1.0,45.0
7416,60.0,180,156,1.0,44.0
7417,53.0,120,156,1.0,43.0
7418,57.0,180,156,1.0,41.0
7419,48.0,120,156,1.0,40.0
7420,41.0,180,240,4.0,40.0
7421,43.0,240,240,4.0,40.0
7422,45.0,240,240,4.0,41.0
7423,53.0,0,952,1.0,42.0
7424,43.0,240,240,4.0,41.0
7425,41.0,240,246,4.0,42.0
7426,40.0,240,246,4.0,42.0
7427,38.0,240,240,4.0,43.0
7428,57.0,0,906,1.0,46.0
7429,36.0,240,246,4.0,44.0
7430,57.0,0,240,1.0,51.0
7431,34.0,240,254,4.0,44.0
7432,55.0,0,192,1.0,44.0
7433,31.0,240,240,4.0,45.0
7434,55.0,0,240,1.0,47.0
7435,36.0,240,246,4.0,45.0
7436,52.0,240,192,1.0,41.0
7437,34.0,0,246,4.0,46.0
7438,33.0,0,240,4.0,46.0
7439,29.0,240,240,4.0,47.0
7440,53.0,240,720,1.0,46.0
7441,38.0,240,246,4.0,48.0
7442,57.0,240,180,1.0,52.0
7443,36.0,0,240,4.0,48.0
7444,57.0,240,240,1.0,55.0
7445,34.0,0,240,4.0,49.0
7446,55.0,0,180,1.0,50.0
7447,31.0,240,240,4.0,49.0
7448,36.0,240,240,4.0,50.0
7449,55.0,0,240,1.0,50.0
7450,52.0,240,202,1.0,44.0
7451,34.0,0,240,4.0,50.0
7452,33.0,240,240,4.0,51.0
7453,36.0,240,240,4.0,51.0
7454,41.0,240,240,4.0,52.0
7455,40.0,240,240,4.0,53.0
7456,38.0,240,240,4.0,53.0
7457,60.0,0,1200,1.0,57.0
7458,62.0,240,240,1.0,50.0
7459,31.0,0,240,4.0,52.0
7460,60.0,240,120,1.0,48.0
7461,58.0,120,120,1.0,48.0
7462,33.0,0,240,4.0,50.0
7463,57.0,0,120,1.0,47.0
7464,34.0,120,240,4.0,49.0
7465,55.0,120,120,1.0,46.0
7466,36.0,120,240,4.0,47.0
7467,35.0,240,240,4.0,45.0
7468,53.0,0,480,1.0,46.0
7469,36.0,240,240,4.0,44.0
7470,52.0,0,426,1.0,43.0
7471,34.0,240,186,4.0,42.0
7472,33.0,0,240,4.0,44.0
7473,41.0,240,180,4.0,45.0
7474,45.0,240,180,4.0,45.0
7475,53.0,240,726,1.0,47.0
7476,55.0,240,60,1.0,44.0
7477,53.0,60,60,1.0,46.0
7478,52.0,60,60,1.0,48.0
7479,43.0,0,240,4.0,46.0
7480,53.0,60,60,1.0,50.0
7481,41.0,60,240,4.0,48.0
7482,40.0,240,240,4.0,47.0
7483,38.0,240,240,4.0,48.0
7484,57.0,0,914,1.0,52.0
7485,36.0,240,240,4.0,48.0
7486,57.0,0,240,1.0,56.0
7487,34.0,240,240,4.0,49.0
7488,55.0,0,180,1.0,51.0
7489,31.0,240,240,4.0,50.0
7490,36.0,0,240,4.0,50.0
7491,55.0,240,240,1.0,53.0
7492,52.0,240,194,1.0,47.0
7493,34.0,0,240,4.0,51.0
7494,53.0,240,240,1.0,52.0
7495,33.0,0,240,4.0,52.0
7496,55.0,240,90,1.0,47.0
7497,53.0,80,92,1.0,48.0
7498,52.0,80,80,1.0,49.0
7499,29.0,0,240,4.0,52.0
7500,53.0,80,126,1.0,52.0
7501,38.0,0,240,4.0,52.0
7502,57.0,0,134,1.0,56.0
7503,36.0,240,240,4.0,53.0
7504,34.0,240,240,4.0,54.0
7505,57.0,0,240,1.0,61.0
7506,55.0,0,180,1.0,56.0
7507,31.0,240,240,4.0,55.0
7508,55.0,0,240,1.0,57.0
7509,36.0,240,240,4.0,55.0
7510,52.0,240,186,1.0,53.0
7511,34.0,0,240,4.0,56.0
7512,33.0,0,240,4.0,57.0
7513,36.0,240,240,4.0,57.0
7514,41.0,240,240,4.0,58.0
7515,40.0,240,240,4.0,59.0
7516,60.0,240,1200,1.0,67.0
7517,38.0,240,240,4.0,61.0
7518,62.0,0,240,1.0,58.0
7519,31.0,240,240,4.0,60.0
7520,60.0,240,120,1.0,57.0
7521,33.0,0,240,4.0,59.0
7522,58.0,120,120,1.0,56.0
7523,57.0,0,120,1.0,55.0
7524,55.0,120,112,1.0,54.0
7525,34.0,120,240,4.0,58.0
7526,55.0,0,240,1.0,55.0
7527,53.0,240,180,1.0,51.0
7528,36.0,120,420,4.0,57.0
7529,53.0,0,240,1.0,53.0
7530,52.0,240,172,1.0,49.0
7531,36.0,240,420,4.0,55.0
7532,29.0,240,412,5.0,53.0
7533,53.0,0,420,1.0,53.0
7534,41.0,0,420,4.0,53.0
7535,50.0,720,60,1.0,45.0
7536,48.0,60,60,1.0,46.0
7537,47.0,60,60,1.0,46.0
7538,48.0,60,60,1.0,47.0
7539,58.0,60,240,1.0,48.0
7540,52.0,240,126,1.0,48.0
7541,52.0,240,126,1.0,46.0
7542,52.0,240,120,1.0,45.0
7543,46.0,0,480,4.0,46.0
7544,36.0,0,480,5.0,46.0
7545,53.0,240,420,1.0,44.0
7546,45.0,0,420,4.0,44.0
7547,41.0,0,420,5.0,44.0
7548,50.0,696,60,1.0,36.0
7549,48.0,64,60,1.0,37.0
7550,47.0,72,60,1.0,38.0
7551,48.0,56,60,1.0,39.0
7552,58.0,72,240,1.0,42.0
7553,52.0,240,126,1.0,39.0
7554,52.0,240,134,1.0,38.0
7555,52.0,240,126,1.0,37.0
7556,46.0,0,426,4.0,38.0
7557,36.0,0,434,5.0,38.0
7558,60.0,240,240,1.0,36.0
7559,53.0,240,126,1.0,35.0
7560,53.0,0,120,1.0,34.0
7561,53.0,240,126,1.0,32.0
7562,45.0,0,420,4.0,34.0
7563,41.0,240,420,5.0,34.0
7564,62.0,240,240,1.0,31.0
7565,52.0,240,120,1.0,30.0
7566,52.0,0,134,1.0,29.0
7567,52.0,240,126,1.0,28.0
7568,46.0,240,426,4.0,29.0
7569,36.0,0,426,5.0,29.0
7570,46.0,240,960,4.0,30.0
7571,52.0,0,960,1.0,30.0
7572,41.0,0,1386,4.0,30.0
7573,45.0,960,426,4.0,23.0
7574,53.0,0,434,1.0,23.0
7575,29.0,0,1402,5.0,30.0
