,note,step,duration,channel,velocity
0,70.0,0,720,1.0,52.0
1,63.0,0,900,5.0,52.0
2,72.0,720,180,1.0,56.0
3,67.0,0,900,4.0,52.0
4,63.0,240,893,5.0,55.0
5,67.0,0,900,4.0,55.0
6,70.0,0,1388,1.0,54.0
7,62.0,960,900,5.0,59.0
8,65.0,0,908,4.0,59.0
9,70.0,480,480,1.0,60.0
10,75.0,480,360,1.0,62.0
11,67.0,0,480,4.0,62.0
12,75.0,480,353,1.0,64.0
13,60.0,0,900,5.0,62.0
14,69.0,0,420,4.0,64.0
15,75.0,0,240,1.0,67.0
16,74.0,240,240,1.0,64.0
17,70.0,480,700,4.0,67.0
18,72.0,240,240,1.0,62.0
19,70.0,240,180,1.0,60.0
20,58.0,0,908,5.0,67.0
21,62.0,0,900,4.0,60.0
22,70.0,0,900,1.0,58.0
23,74.0,0,240,1.0,62.0
24,72.0,240,180,1.0,59.0
25,64.0,960,900,4.0,57.0
26,58.0,240,1860,5.0,60.0
27,72.0,240,900,1.0,56.0
28,77.0,480,240,1.0,53.0
29,65.0,480,900,4.0,53.0
30,74.0,240,188,1.0,55.0
31,72.0,0,240,1.0,58.0
32,70.0,240,180,1.0,55.0
33,62.0,240,900,4.0,49.0
34,56.0,0,1875,5.0,53.0
35,70.0,240,960,1.0,52.0
36,75.0,480,240,1.0,49.0
37,70.0,240,180,1.0,45.0
38,55.0,480,908,5.0,46.0
39,53.0,0,900,5.0,42.0
40,63.0,0,1920,4.0,46.0
41,70.0,480,0,1.0,39.0
42,68.0,60,80,1.0,39.0
43,70.0,60,80,1.0,38.0
44,68.0,60,70,1.0,38.0
45,70.0,60,60,1.0,37.0
46,68.0,60,80,1.0,37.0
47,58.0,0,900,5.0,39.0
48,62.0,960,908,4.0,39.0
49,67.0,60,70,1.0,36.0
50,68.0,60,80,1.0,36.0
51,51.0,60,240,4.0,36.0
52,55.0,240,240,3.0,39.0
53,67.0,0,480,1.0,35.0
54,58.0,240,240,3.0,40.0
55,63.0,240,180,3.0,41.0
56,51.0,0,240,4.0,43.0
57,70.0,240,480,1.0,43.0
58,55.0,240,240,3.0,44.0
59,58.0,240,240,3.0,45.0
60,63.0,240,180,3.0,46.0
61,51.0,240,240,4.0,51.0
62,55.0,240,240,3.0,49.0
63,75.0,240,90,1.0,48.0
64,77.0,60,90,1.0,50.0
65,58.0,0,240,3.0,50.0
66,63.0,120,180,3.0,52.0
67,79.0,60,350,1.0,52.0
68,51.0,240,240,4.0,53.0
69,77.0,0,480,1.0,54.0
70,55.0,240,240,3.0,54.0
71,58.0,240,240,3.0,55.0
72,63.0,240,180,3.0,57.0
73,75.0,0,420,1.0,57.0
74,77.0,0,80,1.0,56.0
75,75.0,60,80,1.0,55.0
76,77.0,60,80,1.0,54.0
77,53.0,240,240,4.0,53.0
78,75.0,60,80,1.0,53.0
79,77.0,60,80,1.0,52.0
80,75.0,60,80,1.0,51.0
81,77.0,60,80,1.0,50.0
82,56.0,0,240,3.0,50.0
83,75.0,60,80,1.0,49.0
84,77.0,60,80,1.0,49.0
85,75.0,60,80,1.0,48.0
86,77.0,60,80,1.0,47.0
87,62.0,0,240,3.0,47.0
88,75.0,60,80,1.0,46.0
89,77.0,60,70,1.0,45.0
90,75.0,60,80,1.0,44.0
91,65.0,0,180,3.0,44.0
92,74.0,60,80,1.0,43.0
93,75.0,60,80,1.0,42.0
94,53.0,0,240,4.0,41.0
95,56.0,240,240,3.0,41.0
96,62.0,240,240,3.0,43.0
97,74.0,60,900,1.0,41.0
98,65.0,240,180,3.0,45.0
99,53.0,240,240,4.0,49.0
100,56.0,240,240,3.0,48.0
101,77.0,240,80,1.0,46.0
102,79.0,60,80,1.0,48.0
103,62.0,0,240,3.0,50.0
104,65.0,120,180,3.0,52.0
105,80.0,60,353,1.0,52.0
106,53.0,0,240,4.0,53.0
107,56.0,240,240,3.0,55.0
108,79.0,240,480,1.0,55.0
109,62.0,0,240,3.0,57.0
110,65.0,240,173,3.0,59.0
111,77.0,240,428,1.0,59.0
112,79.0,240,80,1.0,58.0
113,77.0,60,80,1.0,57.0
114,79.0,60,80,1.0,56.0
115,55.0,0,240,4.0,55.0
116,77.0,60,80,1.0,55.0
117,79.0,0,80,1.0,55.0
118,77.0,60,80,1.0,54.0
119,79.0,60,80,1.0,53.0
120,58.0,60,240,3.0,53.0
121,77.0,60,80,1.0,52.0
122,79.0,0,80,1.0,51.0
123,77.0,60,80,1.0,50.0
124,79.0,60,70,1.0,50.0
125,63.0,60,240,3.0,51.0
126,77.0,60,80,1.0,49.0
127,79.0,60,80,1.0,48.0
128,77.0,60,70,1.0,47.0
129,67.0,0,188,3.0,48.0
130,75.0,60,80,1.0,46.0
131,77.0,60,80,1.0,45.0
132,55.0,0,240,4.0,46.0
133,58.0,240,240,3.0,45.0
134,63.0,240,240,3.0,45.0
135,75.0,60,900,1.0,45.0
136,67.0,240,180,3.0,44.0
137,54.0,240,240,4.0,44.0
138,58.0,240,240,3.0,44.0
139,77.0,0,70,1.0,38.0
140,75.0,60,70,1.0,40.0
141,74.0,60,80,1.0,41.0
142,63.0,240,240,3.0,43.0
143,66.0,60,188,3.0,44.0
144,75.0,60,293,1.0,43.0
145,54.0,0,240,4.0,43.0
146,77.0,240,480,1.0,46.0
147,58.0,240,240,3.0,42.0
148,63.0,0,240,3.0,42.0
149,78.0,240,428,1.0,50.0
150,66.0,240,188,3.0,48.0
151,53.0,240,240,4.0,43.0
152,70.0,0,480,1.0,50.0
153,57.0,240,240,3.0,41.0
154,60.0,0,240,3.0,42.0
155,69.0,240,413,1.0,42.0
156,63.0,240,188,3.0,44.0
157,53.0,240,240,4.0,48.0
158,57.0,240,240,3.0,47.0
159,60.0,240,240,3.0,48.0
160,72.0,0,310,1.0,48.0
161,63.0,240,188,3.0,50.0
162,52.0,0,240,4.0,54.0
163,55.0,240,240,3.0,50.0
164,75.0,240,480,1.0,52.0
165,58.0,240,240,3.0,47.0
166,73.0,0,413,1.0,47.0
167,61.0,240,188,3.0,45.0
168,52.0,240,240,4.0,43.0
169,55.0,240,240,3.0,40.0
170,58.0,0,240,3.0,38.0
171,70.0,240,310,1.0,38.0
172,61.0,240,180,3.0,36.0
173,69.0,0,240,1.0,34.0
174,60.0,0,240,4.0,34.0
175,61.0,240,240,4.0,35.0
176,70.0,0,240,1.0,35.0
177,69.0,240,240,1.0,36.0
178,60.0,0,240,4.0,36.0
179,58.0,0,240,4.0,37.0
180,73.0,240,240,1.0,37.0
181,57.0,240,240,4.0,38.0
182,72.0,0,240,1.0,38.0
183,70.0,240,240,2.0,39.0
184,61.0,0,240,4.0,39.0
185,76.0,0,240,1.0,39.0
186,69.0,0,240,2.0,40.0
187,77.0,240,240,1.0,40.0
188,60.0,0,240,4.0,40.0
189,64.0,0,210,2.0,41.0
190,58.0,240,210,4.0,41.0
191,73.0,0,210,1.0,41.0
192,58.0,0,960,4.0,43.0
193,64.0,240,960,2.0,45.0
194,73.0,0,960,1.0,45.0
195,72.0,0,480,1.0,30.0
196,57.0,960,480,4.0,31.0
197,65.0,0,480,2.0,30.0
198,53.0,240,3370,5.0,34.0
199,62.0,0,210,3.0,42.0
200,65.0,240,210,3.0,42.0
201,65.0,0,210,3.0,42.0
202,62.0,240,210,3.0,42.0
203,58.0,960,923,4.0,54.0
204,62.0,240,210,3.0,42.0
205,65.0,0,210,3.0,42.0
206,62.0,0,210,3.0,43.0
207,65.0,240,210,3.0,43.0
208,70.0,0,240,1.0,43.0
209,62.0,0,210,3.0,44.0
210,65.0,0,210,3.0,44.0
211,74.0,240,240,1.0,43.0
212,77.0,0,203,1.0,45.0
213,62.0,240,210,3.0,44.0
214,65.0,0,210,3.0,44.0
215,58.0,240,930,4.0,43.0
216,77.0,240,240,1.0,49.0
217,75.0,0,96,1.0,47.0
218,65.0,0,190,3.0,45.0
219,63.0,240,190,3.0,45.0
220,72.0,0,96,1.0,46.0
221,63.0,0,190,3.0,45.0
222,65.0,240,190,3.0,45.0
223,69.0,240,96,1.0,44.0
224,65.0,0,190,3.0,46.0
225,63.0,0,190,3.0,46.0
226,60.0,0,915,4.0,44.0
227,63.0,0,190,3.0,46.0
228,65.0,240,190,3.0,46.0
229,69.0,0,240,1.0,46.0
230,63.0,0,190,3.0,47.0
231,65.0,240,190,3.0,47.0
232,72.0,0,240,1.0,48.0
233,60.0,240,908,4.0,46.0
234,75.0,0,188,1.0,50.0
235,65.0,240,190,3.0,47.0
236,63.0,0,190,3.0,47.0
237,79.0,240,240,1.0,53.0
238,77.0,0,96,1.0,51.0
239,62.0,240,190,3.0,48.0
240,65.0,0,190,3.0,48.0
241,74.0,240,96,1.0,49.0
242,62.0,0,190,3.0,48.0
243,65.0,0,190,3.0,48.0
244,70.0,0,96,1.0,46.0
245,58.0,0,908,4.0,48.0
246,62.0,0,190,3.0,49.0
247,65.0,240,190,3.0,49.0
248,65.0,0,190,3.0,50.0
249,62.0,0,190,3.0,50.0
250,70.0,240,240,1.0,50.0
251,65.0,0,190,3.0,50.0
252,62.0,240,190,3.0,50.0
253,74.0,0,240,1.0,51.0
254,77.0,240,180,1.0,53.0
255,58.0,240,900,4.0,49.0
256,65.0,0,190,3.0,50.0
257,62.0,0,190,3.0,50.0
258,77.0,240,240,1.0,56.0
259,75.0,0,96,1.0,54.0
260,65.0,240,190,3.0,51.0
261,63.0,0,190,3.0,51.0
262,72.0,240,96,1.0,52.0
263,63.0,0,190,3.0,52.0
264,65.0,0,190,3.0,52.0
265,69.0,0,96,1.0,51.0
266,60.0,0,908,4.0,51.0
267,63.0,0,190,3.0,52.0
268,65.0,240,190,3.0,52.0
269,63.0,0,190,3.0,53.0
270,65.0,0,190,3.0,53.0
271,69.0,240,240,1.0,53.0
272,63.0,240,190,3.0,53.0
273,65.0,0,190,3.0,53.0
274,72.0,0,240,1.0,54.0
275,75.0,0,188,1.0,57.0
276,65.0,0,190,3.0,54.0
277,63.0,240,190,3.0,54.0
278,60.0,240,915,4.0,52.0
279,79.0,0,240,1.0,60.0
280,77.0,0,96,1.0,57.0
281,65.0,0,190,3.0,54.0
282,62.0,240,190,3.0,54.0
283,74.0,0,96,1.0,55.0
284,65.0,0,190,3.0,55.0
285,62.0,240,190,3.0,55.0
286,70.0,240,96,1.0,53.0
287,58.0,240,900,4.0,54.0
288,65.0,0,190,3.0,55.0
289,62.0,0,190,3.0,55.0
290,46.0,240,240,4.0,66.0
291,77.0,240,160,1.0,65.0
292,50.0,0,240,3.0,68.0
293,76.0,0,120,1.0,68.0
294,48.0,240,240,4.0,69.0
295,77.0,120,120,1.0,69.0
296,81.0,0,120,1.0,71.0
297,51.0,120,180,3.0,71.0
298,77.0,120,98,1.0,72.0
299,82.0,0,240,1.0,74.0
300,77.0,240,188,1.0,73.0
301,53.0,0,240,3.0,73.0
302,58.0,240,240,3.0,72.0
303,50.0,120,893,4.0,74.0
304,62.0,240,173,3.0,71.0
305,77.0,0,660,1.0,72.0
306,74.0,0,240,1.0,69.0
307,53.0,240,240,3.0,69.0
308,77.0,240,120,1.0,68.0
309,74.0,120,98,1.0,67.0
310,58.0,0,240,3.0,68.0
311,77.0,120,120,1.0,67.0
312,62.0,0,180,3.0,67.0
313,50.0,240,915,4.0,70.0
314,74.0,120,90,1.0,66.0
315,79.0,120,240,1.0,71.0
316,75.0,240,188,1.0,66.0
317,55.0,0,240,3.0,65.0
318,60.0,0,240,3.0,64.0
319,63.0,240,188,3.0,63.0
320,51.0,0,908,4.0,66.0
321,75.0,240,645,1.0,64.0
322,72.0,0,240,1.0,61.0
323,55.0,240,240,3.0,62.0
324,75.0,0,120,1.0,60.0
325,72.0,120,98,1.0,59.0
326,60.0,240,240,3.0,61.0
327,75.0,120,120,1.0,58.0
328,51.0,240,908,4.0,63.0
329,63.0,0,188,3.0,60.0
330,72.0,120,98,1.0,58.0
331,77.0,120,240,1.0,63.0
332,58.0,0,240,3.0,59.0
333,74.0,240,300,1.0,59.0
334,70.0,120,98,1.0,56.0
335,62.0,240,240,3.0,58.0
336,74.0,120,120,1.0,55.0
337,53.0,0,908,4.0,60.0
338,65.0,0,203,3.0,58.0
339,70.0,120,105,1.0,54.0
340,75.0,120,240,1.0,60.0
341,57.0,240,240,3.0,56.0
342,72.0,0,300,1.0,55.0
343,69.0,120,90,1.0,51.0
344,60.0,240,240,3.0,55.0
345,72.0,120,120,1.0,50.0
346,53.0,0,908,4.0,57.0
347,63.0,0,195,3.0,55.0
348,69.0,120,90,1.0,49.0
349,72.0,0,120,1.0,48.0
350,70.0,120,120,1.0,49.0
351,69.0,120,120,1.0,50.0
352,62.0,0,480,3.0,54.0
353,70.0,120,120,1.0,51.0
354,55.0,120,480,4.0,54.0
355,72.0,120,240,1.0,51.0
356,74.0,240,240,1.0,53.0
357,75.0,240,240,1.0,55.0
358,74.0,240,90,1.0,57.0
359,77.0,60,150,1.0,58.0
360,75.0,180,90,1.0,59.0
361,79.0,60,150,1.0,60.0
362,77.0,180,90,1.0,61.0
363,81.0,60,130,1.0,61.0
364,82.0,0,120,1.0,59.0
365,77.0,120,120,1.0,57.0
366,76.0,120,120,1.0,56.0
367,62.0,0,420,5.0,49.0
368,70.0,180,420,4.0,49.0
369,77.0,120,120,1.0,55.0
370,79.0,120,120,1.0,54.0
371,77.0,120,120,1.0,53.0
372,76.0,120,120,1.0,52.0
373,77.0,120,105,1.0,51.0
374,77.0,120,120,1.0,59.0
375,76.0,120,120,1.0,58.0
376,62.0,0,420,5.0,56.0
377,70.0,120,420,4.0,56.0
378,77.0,120,120,1.0,57.0
379,76.0,120,120,1.0,55.0
380,77.0,120,120,1.0,55.0
381,70.0,0,420,4.0,52.0
382,62.0,120,428,5.0,52.0
383,78.0,120,98,1.0,54.0
384,79.0,0,120,1.0,43.0
385,72.0,120,120,1.0,42.0
386,71.0,120,120,1.0,41.0
387,63.0,0,420,5.0,42.0
388,70.0,120,420,4.0,42.0
389,72.0,120,120,1.0,40.0
390,74.0,120,120,1.0,39.0
391,72.0,120,120,1.0,37.0
392,71.0,120,120,1.0,36.0
393,72.0,120,98,1.0,35.0
394,72.0,120,120,1.0,52.0
395,71.0,120,120,1.0,51.0
396,63.0,0,420,5.0,53.0
397,70.0,120,420,4.0,53.0
398,72.0,120,120,1.0,50.0
399,71.0,120,120,1.0,49.0
400,72.0,120,120,1.0,48.0
401,64.0,120,420,5.0,49.0
402,70.0,0,420,4.0,49.0
403,73.0,120,105,1.0,47.0
404,74.0,0,240,1.0,46.0
405,75.0,240,240,1.0,47.0
406,76.0,240,240,1.0,48.0
407,65.0,0,900,5.0,46.0
408,70.0,120,900,4.0,46.0
409,77.0,240,180,1.0,49.0
410,74.0,240,80,1.0,50.0
411,72.0,60,80,1.0,50.0
412,74.0,60,80,1.0,51.0
413,72.0,60,80,1.0,51.0
414,74.0,60,80,1.0,51.0
415,72.0,60,80,1.0,51.0
416,74.0,60,80,1.0,52.0
417,72.0,60,80,1.0,52.0
418,74.0,0,80,1.0,52.0
419,72.0,60,80,1.0,53.0
420,74.0,60,80,1.0,53.0
421,72.0,60,80,1.0,53.0
422,74.0,60,80,1.0,53.0
423,72.0,60,80,1.0,54.0
424,53.0,60,413,5.0,52.0
425,63.0,0,420,4.0,52.0
426,57.0,0,428,4.0,52.0
427,70.0,60,80,1.0,54.0
428,72.0,60,80,1.0,54.0
429,58.0,0,190,5.0,54.0
430,62.0,0,190,4.0,54.0
431,62.0,240,240,5.0,52.0
432,70.0,60,480,1.0,55.0
433,65.0,0,240,4.0,52.0
434,63.0,0,240,4.0,50.0
435,60.0,240,240,5.0,50.0
436,58.0,240,180,5.0,48.0
437,62.0,0,188,4.0,48.0
438,69.0,240,75,1.0,49.0
439,72.0,40,70,1.0,51.0
440,57.0,160,240,5.0,49.0
441,60.0,0,240,4.0,49.0
442,55.0,240,240,5.0,47.0
443,58.0,0,240,4.0,47.0
444,53.0,240,188,5.0,45.0
445,57.0,0,188,4.0,45.0
446,75.0,40,860,1.0,53.0
447,58.0,0,230,4.0,43.0
448,74.0,0,350,1.0,47.0
449,58.0,240,120,1.0,45.0
450,62.0,120,120,1.0,45.0
451,60.0,120,120,1.0,44.0
452,63.0,120,120,1.0,43.0
453,62.0,120,120,1.0,42.0
454,65.0,120,120,1.0,42.0
455,46.0,240,960,5.0,43.0
456,63.0,120,120,1.0,41.0
457,67.0,120,120,1.0,40.0
458,65.0,120,120,1.0,40.0
459,68.0,120,120,1.0,39.0
460,67.0,120,120,1.0,38.0
461,70.0,120,120,1.0,37.0
462,68.0,120,120,1.0,37.0
463,72.0,120,98,1.0,36.0
464,70.0,0,360,1.0,36.0
465,72.0,360,98,1.0,38.0
466,61.0,0,893,5.0,36.0
467,64.0,0,900,4.0,36.0
468,67.0,120,900,4.0,36.0
469,70.0,120,900,1.0,37.0
470,67.0,0,900,4.0,38.0
471,64.0,0,900,4.0,38.0
472,61.0,480,908,5.0,38.0
473,82.0,480,960,1.0,39.0
474,60.0,0,900,5.0,40.0
475,67.0,480,900,4.0,40.0
476,64.0,0,900,4.0,40.0
477,79.0,480,480,1.0,42.0
478,76.0,0,480,1.0,44.0
479,70.0,480,420,1.0,47.0
480,60.0,0,900,5.0,42.0
481,64.0,480,900,4.0,42.0
482,67.0,0,908,4.0,42.0
483,70.0,0,240,1.0,50.0
484,69.0,240,188,1.0,47.0
485,65.0,480,893,4.0,46.0
486,60.0,0,908,5.0,46.0
487,69.0,240,900,1.0,44.0
488,65.0,0,893,4.0,39.0
489,60.0,480,900,5.0,39.0
490,68.0,480,900,1.0,46.0
491,67.0,480,98,1.0,55.0
492,60.0,480,900,5.0,50.0
493,63.0,0,908,4.0,50.0
494,68.0,60,840,1.0,58.0
495,67.0,480,120,1.0,64.0
496,59.0,420,885,5.0,59.0
497,63.0,0,893,4.0,59.0
498,68.0,60,650,1.0,69.0
499,80.0,240,240,1.0,70.0
500,79.0,240,240,1.0,68.0
501,58.0,420,900,5.0,68.0
502,62.0,0,900,4.0,68.0
503,80.0,240,188,1.0,67.0
504,77.0,240,240,1.0,64.0
505,76.0,240,240,1.0,63.0
506,68.0,240,893,4.0,64.0
507,58.0,0,900,5.0,64.0
508,77.0,240,188,1.0,61.0
509,74.0,240,240,1.0,59.0
510,73.0,240,240,1.0,57.0
511,58.0,0,900,5.0,61.0
512,74.0,240,180,1.0,56.0
513,65.0,240,900,4.0,61.0
514,68.0,240,240,1.0,53.0
515,67.0,240,240,1.0,52.0
516,58.0,240,893,5.0,57.0
517,62.0,0,900,4.0,57.0
518,65.0,0,900,4.0,57.0
519,68.0,240,188,1.0,50.0
520,63.0,240,240,5.0,54.0
521,62.0,240,240,5.0,53.0
522,67.0,240,893,1.0,49.0
523,63.0,240,188,5.0,51.0
524,61.0,240,240,5.0,49.0
525,60.0,240,240,5.0,48.0
526,67.0,0,893,1.0,48.0
527,63.0,240,908,2.0,48.0
528,61.0,240,188,5.0,47.0
529,60.0,240,240,5.0,48.0
530,59.0,240,240,5.0,51.0
531,63.0,240,900,2.0,45.0
532,68.0,0,908,1.0,45.0
533,60.0,240,188,5.0,53.0
534,59.0,240,240,5.0,59.0
535,58.0,240,240,5.0,60.0
536,59.0,240,180,5.0,64.0
537,63.0,0,900,2.0,56.0
538,69.0,240,908,1.0,56.0
539,70.0,120,120,1.0,73.0
540,69.0,120,120,1.0,72.0
541,70.0,120,120,1.0,72.0
542,69.0,120,120,1.0,71.0
543,70.0,120,120,1.0,70.0
544,72.0,120,120,1.0,69.0
545,62.0,240,893,4.0,75.0
546,58.0,0,908,5.0,75.0
547,70.0,120,105,1.0,68.0
548,75.0,120,120,1.0,54.0
549,74.0,120,120,1.0,54.0
550,60.0,0,480,4.0,55.0
551,75.0,120,120,1.0,53.0
552,74.0,120,120,1.0,52.0
553,72.0,120,120,1.0,51.0
554,70.0,120,120,1.0,51.0
555,58.0,120,900,5.0,55.0
556,63.0,0,420,4.0,52.0
557,69.0,120,105,1.0,50.0
558,70.0,120,120,1.0,65.0
559,69.0,120,120,1.0,64.0
560,70.0,120,120,1.0,63.0
561,69.0,120,120,1.0,63.0
562,70.0,120,120,1.0,62.0
563,72.0,120,120,1.0,61.0
564,58.0,120,900,5.0,64.0
565,62.0,0,915,4.0,64.0
566,70.0,120,105,1.0,60.0
567,75.0,120,120,1.0,46.0
568,74.0,120,120,1.0,46.0
569,60.0,0,480,4.0,47.0
570,75.0,120,120,1.0,45.0
571,74.0,0,120,1.0,44.0
572,72.0,120,120,1.0,43.0
573,70.0,120,120,1.0,43.0
574,63.0,120,428,4.0,44.0
575,58.0,120,908,5.0,47.0
576,69.0,120,110,1.0,42.0
577,70.0,120,70,1.0,51.0
578,69.0,60,70,1.0,50.0
579,70.0,60,60,1.0,49.0
580,69.0,60,70,1.0,49.0
581,70.0,60,60,1.0,48.0
582,69.0,60,70,1.0,47.0
583,68.0,60,60,1.0,47.0
584,69.0,60,70,1.0,46.0
585,72.0,60,360,1.0,45.0
586,58.0,0,900,5.0,51.0
587,63.0,0,908,4.0,51.0
588,70.0,360,100,1.0,41.0
589,62.0,0,960,4.0,38.0
590,70.0,0,960,1.0,38.0
591,58.0,120,960,5.0,38.0
592,71.0,960,240,1.0,41.0
593,72.0,240,240,1.0,43.0
594,74.0,240,240,1.0,45.0
595,72.0,240,240,1.0,44.0
596,70.0,240,240,1.0,43.0
597,68.0,240,240,1.0,41.0
598,67.0,240,240,1.0,39.0
599,65.0,240,180,1.0,36.0
600,51.0,0,240,4.0,34.0
601,67.0,240,480,1.0,34.0
602,55.0,240,240,3.0,36.0
603,58.0,240,240,3.0,38.0
604,63.0,240,173,3.0,40.0
605,51.0,0,240,4.0,42.0
606,55.0,240,240,3.0,44.0
607,70.0,240,480,1.0,42.0
608,58.0,240,240,3.0,46.0
609,63.0,240,188,3.0,48.0
610,49.0,240,240,4.0,53.0
611,77.0,180,60,1.0,46.0
612,55.0,240,240,3.0,50.0
613,75.0,0,120,1.0,47.0
614,58.0,60,240,3.0,48.0
615,74.0,120,120,1.0,49.0
616,75.0,120,120,1.0,51.0
617,61.0,0,188,3.0,47.0
618,77.0,120,105,1.0,54.0
619,49.0,0,240,4.0,46.0
620,75.0,120,360,1.0,56.0
621,55.0,240,240,3.0,44.0
622,58.0,0,240,3.0,43.0
623,67.0,240,368,1.0,50.0
624,61.0,240,188,3.0,42.0
625,48.0,0,240,4.0,38.0
626,70.0,240,480,1.0,45.0
627,51.0,240,240,3.0,39.0
628,56.0,0,240,3.0,40.0
629,68.0,240,310,1.0,41.0
630,60.0,240,180,3.0,42.0
631,48.0,0,240,4.0,43.0
632,68.0,240,310,1.0,37.0
633,51.0,240,240,3.0,44.0
634,56.0,240,240,3.0,46.0
635,60.0,240,180,3.0,47.0
636,55.0,240,240,4.0,48.0
637,58.0,240,240,3.0,50.0
638,77.0,180,60,1.0,49.0
639,75.0,0,120,1.0,50.0
640,63.0,60,240,3.0,51.0
641,74.0,120,120,1.0,51.0
642,75.0,120,120,1.0,52.0
643,67.0,0,173,3.0,52.0
644,77.0,120,90,1.0,53.0
645,55.0,0,240,4.0,54.0
646,75.0,120,310,1.0,55.0
647,58.0,240,240,3.0,55.0
648,63.0,0,240,3.0,56.0
649,73.0,240,310,1.0,60.0
650,67.0,240,188,3.0,58.0
651,56.0,0,240,4.0,62.0
652,60.0,240,240,3.0,58.0
653,71.0,240,480,1.0,66.0
654,63.0,240,240,3.0,55.0
655,72.0,0,310,1.0,58.0
656,68.0,240,195,3.0,53.0
657,56.0,240,240,4.0,51.0
658,60.0,240,240,3.0,54.0
659,63.0,0,240,3.0,57.0
660,72.0,240,310,1.0,57.0
661,68.0,240,195,3.0,60.0
662,56.0,0,240,4.0,66.0
663,75.0,240,480,1.0,66.0
664,58.0,240,240,3.0,62.0
665,62.0,240,240,3.0,58.0
666,74.0,0,310,1.0,58.0
667,65.0,240,180,3.0,55.0
668,56.0,240,240,4.0,52.0
669,58.0,240,240,3.0,54.0
670,62.0,240,240,3.0,55.0
671,70.0,0,310,1.0,55.0
672,65.0,240,188,3.0,57.0
673,55.0,240,240,4.0,61.0
674,58.0,240,240,3.0,58.0
675,77.0,0,480,1.0,61.0
676,63.0,0,240,3.0,55.0
677,75.0,240,310,1.0,55.0
678,67.0,240,188,3.0,53.0
679,55.0,240,240,4.0,54.0
680,58.0,240,240,3.0,56.0
681,63.0,240,240,3.0,61.0
682,75.0,0,310,1.0,61.0
683,67.0,240,188,3.0,65.0
684,57.0,240,240,4.0,70.0
685,77.0,0,480,1.0,70.0
686,60.0,240,240,3.0,69.0
687,63.0,240,240,3.0,67.0
688,78.0,0,310,1.0,67.0
689,66.0,240,180,3.0,65.0
690,57.0,240,240,4.0,64.0
691,60.0,240,240,3.0,62.0
692,63.0,0,240,3.0,60.0
693,75.0,240,310,1.0,60.0
694,66.0,240,180,3.0,58.0
695,74.0,0,240,1.0,48.0
696,65.0,240,240,4.0,52.0
697,75.0,240,240,1.0,50.0
698,66.0,0,240,4.0,53.0
699,74.0,0,240,1.0,52.0
700,65.0,240,240,4.0,55.0
701,78.0,240,240,1.0,54.0
702,63.0,0,240,4.0,56.0
703,62.0,0,240,4.0,57.0
704,77.0,240,240,1.0,56.0
705,66.0,240,240,4.0,59.0
706,75.0,0,240,2.0,57.0
707,81.0,0,240,1.0,57.0
708,82.0,0,240,1.0,59.0
709,65.0,240,240,4.0,60.0
710,74.0,0,240,2.0,59.0
711,69.0,0,188,2.0,61.0
712,78.0,240,195,1.0,61.0
713,63.0,0,195,4.0,61.0
714,63.0,0,960,4.0,66.0
715,69.0,240,960,2.0,66.0
716,78.0,0,960,1.0,66.0
717,70.0,960,480,2.0,42.0
718,77.0,0,480,1.0,42.0
719,62.0,0,480,4.0,42.0
720,58.0,0,3370,5.0,52.0
721,58.0,240,190,3.0,36.0
722,55.0,0,190,3.0,36.0
723,58.0,240,190,3.0,36.0
724,55.0,0,190,3.0,36.0
725,51.0,960,908,4.0,52.0
726,55.0,0,190,3.0,37.0
727,58.0,240,190,3.0,37.0
728,55.0,0,190,3.0,38.0
729,58.0,0,190,3.0,38.0
730,63.0,240,240,1.0,38.0
731,58.0,240,190,3.0,39.0
732,55.0,0,190,3.0,39.0
733,67.0,0,240,1.0,39.0
734,70.0,0,188,1.0,42.0
735,51.0,240,908,4.0,38.0
736,55.0,240,190,3.0,39.0
737,58.0,0,190,3.0,39.0
738,70.0,240,240,1.0,45.0
739,68.0,0,96,1.0,44.0
740,56.0,0,190,3.0,40.0
741,58.0,240,190,3.0,40.0
742,65.0,0,96,1.0,41.0
743,56.0,240,190,3.0,41.0
744,58.0,0,190,3.0,41.0
745,62.0,240,96,1.0,39.0
746,53.0,0,900,4.0,40.0
747,56.0,0,190,3.0,42.0
748,58.0,0,190,3.0,42.0
749,56.0,240,190,3.0,43.0
750,58.0,0,190,3.0,43.0
751,62.0,0,240,1.0,43.0
752,56.0,0,190,3.0,43.0
753,58.0,0,190,3.0,43.0
754,65.0,240,240,1.0,44.0
755,68.0,0,173,1.0,47.0
756,53.0,240,900,4.0,42.0
757,56.0,0,190,3.0,44.0
758,58.0,240,190,3.0,44.0
759,72.0,240,240,1.0,50.0
760,70.0,0,96,1.0,47.0
761,55.0,240,190,3.0,45.0
762,58.0,0,190,3.0,45.0
763,67.0,0,96,1.0,45.0
764,58.0,0,190,3.0,46.0
765,55.0,240,190,3.0,46.0
766,63.0,0,96,1.0,43.0
767,51.0,0,908,4.0,44.0
768,58.0,0,190,3.0,46.0
769,55.0,240,190,3.0,46.0
770,70.0,0,190,3.0,47.0
771,67.0,240,190,3.0,47.0
772,75.0,0,240,1.0,47.0
773,70.0,0,190,3.0,48.0
774,67.0,240,190,3.0,48.0
775,79.0,0,240,1.0,48.0
776,63.0,240,900,4.0,47.0
777,82.0,240,180,1.0,51.0
778,67.0,0,190,3.0,48.0
779,70.0,0,190,3.0,48.0
780,82.0,0,240,1.0,54.0
781,80.0,240,96,1.0,53.0
782,68.0,0,190,3.0,50.0
783,70.0,0,190,3.0,50.0
784,77.0,240,96,1.0,51.0
785,70.0,0,190,3.0,50.0
786,68.0,0,190,3.0,50.0
787,74.0,0,96,1.0,50.0
788,65.0,240,908,4.0,49.0
789,70.0,240,190,3.0,51.0
790,68.0,0,190,3.0,51.0
791,70.0,240,190,3.0,52.0
792,68.0,0,190,3.0,52.0
793,74.0,0,240,1.0,52.0
794,70.0,0,190,3.0,52.0
795,68.0,240,190,3.0,52.0
796,77.0,0,240,1.0,54.0
797,65.0,240,893,4.0,51.0
798,70.0,0,190,3.0,53.0
799,68.0,0,190,3.0,53.0
800,80.0,240,195,1.0,58.0
801,84.0,240,240,1.0,61.0
802,82.0,0,96,1.0,58.0
803,70.0,240,190,3.0,54.0
804,67.0,0,190,3.0,54.0
805,79.0,0,96,1.0,56.0
806,70.0,0,190,3.0,55.0
807,67.0,240,190,3.0,55.0
808,75.0,240,96,1.0,54.0
809,63.0,0,908,4.0,53.0
810,70.0,0,190,3.0,55.0
811,67.0,0,190,3.0,55.0
812,51.0,240,240,4.0,68.0
813,70.0,240,150,1.0,70.0
814,55.0,0,240,3.0,70.0
815,69.0,0,120,1.0,72.0
816,53.0,240,240,4.0,72.0
817,70.0,120,120,1.0,73.0
818,74.0,0,120,1.0,74.0
819,56.0,120,188,3.0,74.0
820,70.0,120,98,1.0,75.0
821,75.0,0,240,1.0,79.0
822,70.0,240,180,1.0,76.0
823,58.0,0,240,3.0,74.0
824,63.0,240,240,3.0,73.0
825,55.0,120,908,4.0,76.0
826,67.0,240,188,3.0,72.0
827,70.0,0,720,1.0,74.0
828,67.0,240,240,1.0,69.0
829,46.0,0,240,3.0,69.0
830,70.0,0,120,1.0,68.0
831,67.0,120,98,1.0,67.0
832,51.0,240,240,3.0,68.0
833,70.0,0,120,1.0,67.0
834,43.0,240,908,4.0,71.0
835,55.0,120,188,3.0,67.0
836,67.0,120,105,1.0,66.0
837,72.0,0,240,1.0,71.0
838,68.0,240,188,1.0,67.0
839,48.0,0,240,3.0,64.0
840,53.0,0,240,3.0,63.0
841,56.0,240,180,3.0,62.0
842,44.0,120,915,4.0,65.0
843,68.0,240,710,1.0,63.0
844,65.0,0,240,1.0,59.0
845,48.0,240,240,3.0,59.0
846,68.0,0,120,1.0,58.0
847,65.0,120,90,1.0,57.0
848,53.0,240,240,3.0,58.0
849,68.0,0,120,1.0,57.0
850,56.0,120,188,3.0,57.0
851,44.0,240,908,4.0,60.0
852,65.0,120,98,1.0,56.0
853,70.0,120,240,1.0,61.0
854,51.0,240,240,3.0,54.0
855,67.0,0,360,1.0,56.0
856,63.0,120,98,1.0,53.0
857,55.0,240,240,3.0,53.0
858,67.0,120,120,1.0,52.0
859,58.0,0,188,3.0,52.0
860,46.0,0,908,4.0,55.0
861,63.0,120,98,1.0,51.0
862,68.0,0,240,1.0,57.0
863,50.0,240,240,3.0,49.0
864,65.0,0,360,1.0,54.0
865,62.0,120,105,1.0,51.0
866,53.0,240,240,3.0,48.0
867,65.0,0,120,1.0,50.0
868,46.0,120,900,4.0,50.0
869,56.0,120,195,3.0,46.0
870,62.0,120,105,1.0,49.0
871,65.0,0,120,1.0,48.0
872,63.0,120,120,1.0,47.0
873,62.0,120,120,1.0,48.0
874,55.0,0,480,3.0,46.0
875,63.0,120,120,1.0,49.0
876,48.0,120,480,4.0,46.0
877,65.0,120,240,1.0,50.0
878,67.0,240,240,1.0,52.0
879,68.0,240,240,1.0,54.0
880,67.0,240,90,1.0,57.0
881,70.0,60,180,1.0,58.0
882,68.0,180,90,1.0,62.0
883,72.0,60,200,1.0,63.0
884,70.0,180,90,1.0,67.0
885,74.0,60,150,1.0,68.0
886,75.0,0,120,1.0,77.0
887,82.0,120,120,1.0,77.0
888,81.0,120,120,1.0,76.0
889,70.0,0,420,4.0,77.0
890,67.0,180,428,5.0,77.0
891,82.0,120,120,1.0,76.0
892,84.0,120,120,1.0,75.0
893,82.0,120,120,1.0,75.0
894,81.0,120,120,1.0,74.0
895,82.0,120,105,1.0,74.0
896,82.0,120,120,1.0,59.0
897,81.0,120,120,1.0,59.0
898,75.0,0,380,4.0,59.0
899,67.0,120,380,5.0,59.0
900,82.0,120,120,1.0,58.0
901,81.0,120,120,1.0,57.0
902,82.0,120,120,1.0,57.0
903,67.0,0,380,5.0,58.0
904,75.0,120,380,4.0,58.0
905,83.0,120,98,1.0,57.0
906,84.0,0,120,1.0,56.0
907,77.0,120,120,1.0,56.0
908,75.0,0,360,4.0,56.0
909,76.0,120,120,1.0,56.0
910,68.0,120,368,5.0,56.0
911,77.0,120,120,1.0,55.0
912,79.0,120,120,1.0,55.0
913,77.0,120,120,1.0,54.0
914,76.0,120,120,1.0,54.0
915,77.0,120,105,1.0,54.0
916,77.0,120,120,1.0,71.0
917,76.0,120,120,1.0,70.0
918,68.0,0,380,5.0,72.0
919,75.0,120,380,4.0,72.0
920,77.0,120,120,1.0,70.0
921,76.0,120,120,1.0,69.0
922,77.0,120,120,1.0,69.0
923,69.0,120,380,5.0,70.0
924,75.0,0,380,4.0,70.0
925,78.0,120,90,1.0,68.0
926,79.0,0,240,1.0,68.0
927,80.0,240,240,1.0,67.0
928,81.0,240,240,1.0,66.0
929,70.0,120,908,4.0,68.0
930,75.0,0,915,4.0,68.0
931,82.0,240,210,1.0,65.0
932,79.0,240,80,1.0,63.0
933,77.0,60,80,1.0,62.0
934,79.0,60,80,1.0,62.0
935,77.0,60,80,1.0,61.0
936,79.0,60,80,1.0,61.0
937,77.0,60,80,1.0,60.0
938,79.0,60,80,1.0,60.0
939,77.0,60,80,1.0,59.0
940,79.0,60,80,1.0,59.0
941,77.0,60,80,1.0,58.0
942,79.0,60,80,1.0,57.0
943,77.0,60,80,1.0,57.0
944,79.0,60,80,1.0,56.0
945,77.0,60,80,1.0,56.0
946,58.0,0,380,5.0,59.0
947,62.0,0,380,4.0,59.0
948,68.0,0,380,4.0,59.0
949,75.0,60,70,1.0,55.0
950,77.0,60,65,1.0,55.0
951,63.0,60,190,5.0,54.0
952,67.0,0,190,4.0,54.0
953,75.0,0,480,1.0,54.0
954,67.0,240,240,5.0,52.0
955,70.0,0,240,4.0,52.0
956,65.0,240,240,5.0,51.0
957,68.0,0,240,4.0,51.0
958,67.0,0,195,4.0,49.0
959,63.0,240,203,5.0,49.0
960,74.0,240,85,1.0,52.0
961,77.0,40,85,1.0,55.0
962,80.0,40,350,1.0,57.0
963,62.0,160,240,5.0,51.0
964,65.0,0,240,4.0,51.0
965,63.0,240,240,4.0,48.0
966,60.0,0,240,5.0,48.0
967,62.0,240,203,4.0,47.0
968,58.0,0,210,5.0,47.0
969,79.0,240,120,1.0,50.0
970,82.0,120,120,1.0,49.0
971,80.0,120,120,1.0,49.0
972,77.0,120,120,1.0,49.0
973,75.0,120,120,1.0,48.0
974,63.0,240,960,4.0,45.0
975,79.0,120,120,1.0,48.0
976,51.0,0,960,5.0,45.0
977,77.0,120,120,1.0,47.0
978,74.0,120,120,1.0,47.0
979,72.0,120,120,1.0,47.0
980,75.0,120,120,1.0,46.0
981,74.0,120,120,1.0,46.0
982,70.0,120,120,1.0,45.0
983,68.0,120,120,1.0,45.0
984,72.0,120,98,1.0,44.0
985,70.0,0,720,1.0,44.0
986,67.0,0,908,4.0,44.0
987,63.0,120,908,5.0,44.0
988,72.0,720,195,1.0,50.0
989,70.0,240,420,1.0,46.0
990,63.0,0,900,5.0,46.0
991,67.0,0,900,4.0,46.0
992,70.0,480,700,1.0,48.0
993,71.0,240,240,1.0,50.0
994,72.0,240,240,1.0,51.0
995,65.0,0,893,4.0,49.0
996,62.0,480,908,5.0,49.0
997,74.0,240,240,1.0,53.0
998,75.0,240,240,1.0,54.0
999,77.0,240,240,1.0,56.0
1000,67.0,0,720,4.0,52.0
1001,79.0,240,240,1.0,57.0
1002,60.0,0,900,5.0,52.0
1003,69.0,240,188,4.0,54.0
1004,75.0,0,195,1.0,59.0
1005,77.0,0,230,1.0,62.0
1006,75.0,240,230,1.0,61.0
1007,58.0,240,900,5.0,57.0
1008,70.0,0,900,4.0,57.0
1009,74.0,240,960,1.0,57.0
1010,68.0,480,885,4.0,50.0
1011,62.0,0,893,5.0,50.0
1012,72.0,480,640,1.0,51.0
1013,70.0,160,160,1.0,46.0
1014,63.0,0,480,5.0,45.0
1015,67.0,480,480,4.0,45.0
1016,74.0,160,160,1.0,45.0
1017,75.0,160,160,1.0,44.0
1018,79.0,160,160,1.0,43.0
1019,71.0,160,130,1.0,41.0
1020,72.0,0,160,1.0,40.0
1021,75.0,160,160,1.0,39.0
1022,56.0,0,380,5.0,40.0
1023,68.0,160,380,4.0,40.0
1024,67.0,160,160,1.0,38.0
1025,68.0,160,160,1.0,37.0
1026,72.0,160,160,1.0,35.0
1027,65.0,160,130,1.0,34.0
1028,55.0,480,380,4.0,33.0
1029,46.0,0,380,5.0,33.0
1030,46.0,480,380,5.0,31.0
1031,55.0,0,380,4.0,31.0
1032,63.0,160,1440,1.0,33.0
1033,67.0,0,240,1.0,28.0
1034,46.0,480,380,5.0,28.0
1035,56.0,0,380,4.0,28.0
1036,62.0,0,435,2.0,28.0
1037,65.0,240,203,1.0,30.0
1038,65.0,240,960,1.0,27.0
1039,62.0,0,960,2.0,27.0
1040,56.0,0,960,4.0,26.0
1041,51.0,0,1440,5.0,26.0
1042,63.0,0,480,1.0,21.0
1043,55.0,960,480,4.0,21.0
1044,74.0,1920,360,1.0,55.0
1045,75.0,360,120,1.0,59.0
1046,72.0,120,240,1.0,61.0
1047,70.0,240,120,1.0,56.0
1048,62.0,0,156,5.0,55.0
1049,65.0,240,156,4.0,55.0
1050,70.0,0,156,1.0,55.0
1051,65.0,480,156,4.0,52.0
1052,70.0,0,156,1.0,52.0
1053,62.0,0,156,5.0,52.0
1054,69.0,0,360,1.0,49.0
1055,63.0,0,360,5.0,49.0
1056,65.0,480,360,4.0,49.0
1057,75.0,960,360,1.0,57.0
1058,77.0,360,120,1.0,61.0
1059,74.0,120,240,1.0,62.0
1060,72.0,240,120,1.0,60.0
1061,72.0,240,156,1.0,58.0
1062,65.0,0,156,4.0,58.0
1063,63.0,0,156,5.0,58.0
1064,65.0,0,156,4.0,54.0
1065,72.0,0,156,1.0,54.0
1066,63.0,480,156,5.0,54.0
1067,62.0,480,360,5.0,51.0
1068,65.0,0,360,4.0,51.0
1069,70.0,0,360,1.0,51.0
1070,58.0,0,360,5.0,67.0
1071,74.0,960,360,1.0,67.0
1072,75.0,0,96,1.0,72.0
1073,60.0,360,96,5.0,72.0
1074,62.0,0,240,5.0,75.0
1075,77.0,120,240,1.0,75.0
1076,79.0,240,240,1.0,73.0
1077,63.0,0,240,5.0,73.0
1078,60.0,240,240,5.0,72.0
1079,75.0,0,240,1.0,72.0
1080,72.0,240,240,1.0,72.0
1081,57.0,0,240,5.0,72.0
1082,74.0,240,240,1.0,71.0
1083,58.0,0,240,5.0,71.0
1084,75.0,240,200,1.0,70.0
1085,60.0,0,200,5.0,70.0
1086,77.0,0,240,1.0,70.0
1087,62.0,240,240,5.0,70.0
1088,79.0,240,240,1.0,69.0
1089,63.0,0,240,5.0,69.0
1090,60.0,240,240,5.0,68.0
1091,75.0,0,240,1.0,68.0
1092,72.0,0,240,1.0,68.0
1093,57.0,240,240,5.0,68.0
1094,74.0,240,240,1.0,67.0
1095,58.0,0,240,5.0,67.0
1096,53.0,0,2880,5.0,75.0
1097,75.0,240,240,1.0,66.0
1098,77.0,0,205,1.0,66.0
1099,62.0,240,384,5.0,66.0
1100,82.0,240,240,1.0,59.0
1101,81.0,240,240,1.0,58.0
1102,79.0,240,240,1.0,57.0
1103,77.0,240,240,1.0,56.0
1104,76.0,240,240,1.0,55.0
1105,74.0,240,240,1.0,54.0
1106,72.0,240,240,1.0,53.0
1107,71.0,240,240,1.0,51.0
1108,70.0,240,240,1.0,50.0
1109,69.0,240,240,1.0,49.0
1110,67.0,240,200,1.0,48.0
1111,72.0,240,360,1.0,67.0
1112,74.0,360,120,1.0,65.0
1113,65.0,0,156,1.0,65.0
1114,60.0,0,156,4.0,65.0
1115,57.0,0,156,4.0,65.0
1116,48.0,120,156,5.0,65.0
1117,55.0,0,156,4.0,62.0
1118,64.0,480,156,1.0,62.0
1119,58.0,0,156,4.0,62.0
1120,48.0,0,156,5.0,62.0
1121,53.0,480,193,5.0,60.0
1122,65.0,0,480,1.0,60.0
1123,57.0,0,480,4.0,60.0
1124,41.0,480,193,5.0,53.0
1125,70.0,480,360,5.0,55.0
1126,74.0,0,360,1.0,55.0
1127,72.0,0,96,1.0,59.0
1128,69.0,360,96,5.0,59.0
1129,72.0,120,480,1.0,60.0
1130,69.0,0,480,5.0,60.0
1131,65.0,480,480,5.0,57.0
1132,70.0,0,360,5.0,65.0
1133,76.0,480,360,1.0,65.0
1134,69.0,0,96,5.0,69.0
1135,77.0,360,96,1.0,69.0
1136,69.0,120,480,5.0,70.0
1137,77.0,0,480,1.0,70.0
1138,53.0,480,440,5.0,63.0
1139,71.0,0,360,2.0,79.0
1140,74.0,40,320,2.0,79.0
1141,65.0,480,360,5.0,79.0
1142,53.0,0,360,5.0,79.0
1143,80.0,40,285,1.0,79.0
1144,64.0,400,355,5.0,83.0
1145,76.0,40,315,2.0,83.0
1146,52.0,0,360,5.0,83.0
1147,79.0,40,280,1.0,83.0
1148,72.0,0,365,2.0,83.0
1149,72.0,40,315,2.0,81.0
1150,63.0,400,355,5.0,81.0
1151,51.0,0,360,5.0,81.0
1152,69.0,0,360,2.0,81.0
1153,78.0,40,288,1.0,81.0
1154,62.0,0,355,5.0,79.0
1155,77.0,40,275,1.0,78.0
1156,74.0,40,320,2.0,78.0
1157,70.0,400,360,2.0,79.0
1158,50.0,0,360,5.0,79.0
1159,43.0,0,355,5.0,76.0
1160,55.0,400,360,5.0,76.0
1161,76.0,40,280,1.0,76.0
1162,67.0,0,360,2.0,76.0
1163,70.0,40,320,2.0,76.0
1164,66.0,0,360,2.0,73.0
1165,72.0,40,320,2.0,73.0
1166,57.0,0,360,5.0,73.0
1167,45.0,400,360,5.0,73.0
1168,75.0,40,280,1.0,73.0
1169,65.0,400,355,2.0,71.0
1170,46.0,0,355,5.0,71.0
1171,58.0,0,360,5.0,71.0
1172,70.0,40,320,2.0,71.0
1173,74.0,40,288,1.0,70.0
1174,51.0,400,960,5.0,64.0
1175,72.0,480,480,1.0,62.0
1176,73.0,0,420,1.0,61.0
1177,52.0,480,420,5.0,61.0
1178,70.0,0,240,1.0,59.0
1179,69.0,240,200,1.0,58.0
1180,53.0,480,485,5.0,59.0
1181,67.0,240,193,1.0,57.0
1182,65.0,240,193,1.0,56.0
1183,51.0,0,480,5.0,57.0
1184,70.0,240,415,1.0,55.0
1185,50.0,0,420,5.0,55.0
1186,57.0,0,480,5.0,69.0
1187,75.0,480,480,1.0,69.0
1188,72.0,0,480,2.0,69.0
1189,58.0,480,355,5.0,67.0
1190,74.0,0,360,1.0,67.0
1191,70.0,0,360,2.0,67.0
1192,72.0,360,96,1.0,66.0
1193,69.0,0,96,2.0,66.0
1194,52.0,120,350,5.0,65.0
1195,70.0,0,360,2.0,65.0
1196,74.0,0,360,1.0,65.0
1197,75.0,360,96,1.0,64.0
1198,72.0,0,96,2.0,64.0
1199,74.0,0,480,1.0,64.0
1200,70.0,0,480,2.0,64.0
1201,53.0,120,840,5.0,64.0
1202,72.0,0,384,1.0,62.0
1203,69.0,480,384,2.0,62.0
1204,62.0,480,360,5.0,51.0
1205,63.0,360,96,5.0,53.0
1206,60.0,120,240,5.0,54.0
1207,58.0,240,120,5.0,52.0
1208,77.0,0,156,2.0,51.0
1209,74.0,0,156,3.0,51.0
1210,58.0,240,156,5.0,51.0
1211,74.0,480,156,3.0,47.0
1212,58.0,0,156,5.0,47.0
1213,77.0,0,156,2.0,47.0
1214,75.0,0,360,3.0,42.0
1215,57.0,480,360,5.0,42.0
1216,77.0,0,360,2.0,42.0
1217,63.0,960,360,5.0,51.0
1218,65.0,360,96,5.0,56.0
1219,62.0,120,240,5.0,58.0
1220,60.0,240,120,5.0,56.0
1221,81.0,240,156,3.0,54.0
1222,87.0,0,156,2.0,54.0
1223,60.0,0,156,5.0,54.0
1224,60.0,0,156,5.0,49.0
1225,81.0,0,156,3.0,49.0
1226,87.0,480,156,2.0,49.0
1227,58.0,0,360,5.0,45.0
1228,82.0,0,360,3.0,45.0
1229,86.0,480,360,2.0,45.0
1230,58.0,0,360,5.0,69.0
1231,74.0,960,360,1.0,69.0
1232,60.0,0,100,5.0,73.0
1233,75.0,360,100,1.0,73.0
1234,77.0,0,240,1.0,75.0
1235,62.0,0,240,5.0,75.0
1236,63.0,0,240,5.0,73.0
1237,79.0,240,240,1.0,73.0
1238,60.0,0,240,5.0,72.0
1239,75.0,240,240,1.0,72.0
1240,72.0,0,240,1.0,71.0
1241,57.0,240,240,5.0,71.0
1242,58.0,240,240,5.0,71.0
1243,74.0,0,240,1.0,71.0
1244,60.0,240,200,5.0,70.0
1245,75.0,0,200,1.0,70.0
1246,77.0,0,240,1.0,69.0
1247,62.0,240,240,5.0,69.0
1248,79.0,240,240,1.0,68.0
1249,63.0,0,240,5.0,68.0
1250,60.0,0,240,5.0,68.0
1251,75.0,240,240,1.0,68.0
1252,53.0,120,2400,5.0,75.0
1253,57.0,240,240,5.0,67.0
1254,72.0,0,240,1.0,67.0
1255,58.0,240,240,5.0,66.0
1256,74.0,0,240,1.0,66.0
1257,60.0,240,240,5.0,65.0
1258,75.0,0,240,1.0,65.0
1259,77.0,0,200,1.0,64.0
1260,62.0,240,384,5.0,64.0
1261,87.0,240,240,1.0,57.0
1262,86.0,240,240,1.0,56.0
1263,84.0,240,240,1.0,55.0
1264,82.0,240,240,1.0,54.0
1265,81.0,240,240,1.0,53.0
1266,79.0,240,240,1.0,52.0
1267,77.0,240,240,1.0,52.0
1268,76.0,240,240,1.0,51.0
1269,75.0,240,240,1.0,50.0
1270,74.0,240,240,1.0,49.0
1271,72.0,240,200,1.0,48.0
1272,77.0,240,360,1.0,67.0
1273,79.0,360,96,1.0,65.0
1274,70.0,0,156,1.0,64.0
1275,65.0,0,156,4.0,64.0
1276,62.0,120,156,4.0,64.0
1277,53.0,0,156,5.0,64.0
1278,53.0,480,156,5.0,61.0
1279,63.0,0,156,4.0,61.0
1280,60.0,0,156,4.0,61.0
1281,69.0,0,156,1.0,61.0
1282,58.0,0,193,5.0,58.0
1283,62.0,0,384,4.0,58.0
1284,70.0,480,384,1.0,58.0
1285,46.0,480,193,5.0,52.0
1286,79.0,480,360,1.0,47.0
1287,75.0,0,360,2.0,47.0
1288,77.0,0,96,1.0,51.0
1289,74.0,360,96,2.0,51.0
1290,77.0,120,384,1.0,53.0
1291,74.0,0,384,2.0,53.0
1292,70.0,480,384,5.0,48.0
1293,75.0,480,360,2.0,53.0
1294,81.0,0,368,1.0,53.0
1295,82.0,0,96,1.0,58.0
1296,74.0,360,96,2.0,58.0
1297,74.0,120,384,2.0,61.0
1298,82.0,0,384,1.0,61.0
1299,58.0,480,384,5.0,55.0
1300,74.0,0,360,1.0,65.0
1301,55.0,480,384,5.0,65.0
1302,70.0,360,96,1.0,70.0
1303,51.0,120,384,5.0,72.0
1304,48.0,480,384,5.0,69.0
1305,75.0,0,960,1.0,72.0
1306,67.0,0,960,2.0,72.0
1307,53.0,480,313,5.0,67.0
1308,72.0,0,360,1.0,67.0
1309,63.0,0,384,2.0,67.0
1310,69.0,360,96,1.0,65.0
1311,58.0,0,193,5.0,64.0
1312,70.0,120,384,1.0,64.0
1313,62.0,0,384,2.0,64.0
1314,46.0,480,193,5.0,56.0
1315,70.0,480,120,1.0,42.0
1316,72.0,120,120,1.0,44.0
1317,70.0,120,120,1.0,45.0
1318,69.0,120,120,1.0,46.0
1319,67.0,120,360,4.0,47.0
1320,63.0,0,360,4.0,47.0
1321,70.0,0,384,1.0,47.0
1322,58.0,240,192,3.0,49.0
1323,63.0,240,360,4.0,51.0
1324,67.0,0,360,4.0,51.0
1325,58.0,240,192,3.0,53.0
1326,70.0,120,120,1.0,54.0
1327,75.0,0,288,1.0,55.0
1328,63.0,0,360,4.0,55.0
1329,67.0,120,360,4.0,55.0
1330,58.0,240,192,3.0,57.0
1331,75.0,120,96,1.0,58.0
1332,65.0,0,360,4.0,65.0
1333,68.0,0,360,4.0,65.0
1334,58.0,240,192,3.0,61.0
1335,75.0,120,480,1.0,65.0
1336,74.0,240,313,1.0,58.0
1337,68.0,0,360,4.0,58.0
1338,65.0,0,360,4.0,58.0
1339,58.0,240,192,3.0,54.0
1340,70.0,0,120,1.0,50.0
1341,72.0,120,120,1.0,51.0
1342,70.0,0,120,1.0,52.0
1343,65.0,0,360,4.0,50.0
1344,68.0,240,360,4.0,50.0
1345,58.0,120,192,3.0,52.0
1346,69.0,120,120,1.0,53.0
1347,67.0,120,360,4.0,54.0
1348,63.0,0,360,4.0,54.0
1349,70.0,0,384,1.0,54.0
1350,58.0,240,192,3.0,56.0
1351,67.0,0,360,4.0,58.0
1352,63.0,240,360,4.0,58.0
1353,58.0,240,192,3.0,60.0
1354,70.0,120,120,1.0,61.0
1355,79.0,0,288,1.0,62.0
1356,63.0,0,360,4.0,62.0
1357,67.0,120,360,4.0,62.0
1358,58.0,240,192,3.0,64.0
1359,79.0,120,96,1.0,65.0
1360,62.0,0,360,4.0,70.0
1361,65.0,0,360,4.0,70.0
1362,58.0,240,192,3.0,67.0
1363,82.0,120,480,1.0,70.0
1364,80.0,240,313,1.0,64.0
1365,62.0,0,360,4.0,64.0
1366,65.0,0,360,4.0,64.0
1367,58.0,240,192,3.0,61.0
1368,80.0,240,120,1.0,59.0
1369,82.0,120,120,1.0,59.0
1370,80.0,0,120,1.0,59.0
1371,65.0,0,360,4.0,59.0
1372,62.0,0,360,4.0,59.0
1373,58.0,120,192,3.0,59.0
1374,77.0,120,105,1.0,58.0
1375,79.0,0,120,1.0,58.0
1376,80.0,120,120,1.0,57.0
1377,79.0,120,120,1.0,57.0
1378,75.0,120,105,1.0,57.0
1379,63.0,120,480,5.0,58.0
1380,82.0,120,104,1.0,56.0
1381,80.0,160,104,1.0,56.0
1382,79.0,160,104,1.0,55.0
1383,77.0,0,104,1.0,55.0
1384,75.0,160,104,1.0,54.0
1385,55.0,160,384,5.0,55.0
1386,43.0,0,384,5.0,55.0
1387,73.0,160,104,1.0,54.0
1388,72.0,0,120,1.0,53.0
1389,73.0,120,120,1.0,53.0
1390,72.0,120,120,1.0,53.0
1391,56.0,0,384,5.0,53.0
1392,44.0,160,384,5.0,53.0
1393,68.0,120,120,1.0,52.0
1394,84.0,120,160,1.0,52.0
1395,82.0,160,160,1.0,51.0
1396,80.0,160,160,1.0,51.0
1397,79.0,0,160,1.0,50.0
1398,77.0,160,160,1.0,50.0
1399,61.0,0,384,4.0,50.0
1400,58.0,160,384,5.0,50.0
1401,76.0,160,145,1.0,49.0
1402,77.0,0,120,1.0,49.0
1403,79.0,120,120,1.0,48.0
1404,77.0,120,120,1.0,48.0
1405,56.0,160,384,5.0,49.0
1406,60.0,0,384,4.0,49.0
1407,72.0,120,110,1.0,48.0
1408,84.0,120,128,1.0,47.0
1409,82.0,160,128,1.0,47.0
1410,80.0,160,128,1.0,46.0
1411,79.0,160,128,1.0,46.0
1412,63.0,0,156,5.0,46.0
1413,77.0,0,128,1.0,45.0
1414,65.0,160,156,5.0,45.0
1415,75.0,0,128,1.0,45.0
1416,67.0,160,140,5.0,45.0
1417,57.0,0,480,5.0,46.0
1418,75.0,160,480,1.0,44.0
1419,67.0,0,480,5.0,44.0
1420,58.0,0,860,5.0,44.0
1421,65.0,0,380,5.0,40.0
1422,74.0,480,384,1.0,40.0
1423,77.0,480,120,1.0,45.0
1424,58.0,0,235,5.0,45.0
1425,79.0,120,120,1.0,46.0
1426,77.0,120,120,1.0,48.0
1427,65.0,0,192,3.0,48.0
1428,74.0,120,100,1.0,49.0
1429,60.0,0,235,5.0,53.0
1430,75.0,120,240,1.0,53.0
1431,65.0,240,192,3.0,51.0
1432,63.0,0,235,5.0,49.0
1433,72.0,240,240,1.0,49.0
1434,65.0,240,192,3.0,46.0
1435,81.0,240,120,1.0,55.0
1436,63.0,0,235,5.0,55.0
1437,82.0,120,120,1.0,58.0
1438,81.0,0,120,1.0,61.0
1439,65.0,120,192,3.0,61.0
1440,77.0,120,105,1.0,64.0
1441,62.0,120,235,5.0,71.0
1442,65.0,240,192,3.0,66.0
1443,82.0,0,480,1.0,71.0
1444,58.0,240,235,5.0,62.0
1445,86.0,0,240,1.0,62.0
1446,65.0,240,192,3.0,57.0
1447,77.0,240,96,1.0,53.0
1448,79.0,120,96,1.0,55.0
1449,58.0,0,235,5.0,53.0
1450,77.0,120,96,1.0,56.0
1451,65.0,0,192,3.0,56.0
1452,74.0,120,96,1.0,58.0
1453,75.0,0,193,1.0,61.0
1454,60.0,120,235,5.0,61.0
1455,65.0,240,192,3.0,58.0
1456,72.0,0,193,1.0,56.0
1457,63.0,240,235,5.0,56.0
1458,65.0,240,192,3.0,53.0
1459,81.0,240,120,1.0,60.0
1460,63.0,0,235,5.0,60.0
1461,82.0,120,120,1.0,63.0
1462,81.0,120,120,1.0,65.0
1463,65.0,0,192,3.0,65.0
1464,77.0,120,100,1.0,68.0
1465,58.0,120,235,5.0,73.0
1466,62.0,240,192,3.0,68.0
1467,82.0,0,480,1.0,73.0
1468,86.0,240,240,1.0,63.0
1469,58.0,0,240,5.0,63.0
1470,84.0,480,120,1.0,57.0
1471,82.0,120,120,1.0,56.0
1472,81.0,120,120,1.0,55.0
1473,79.0,120,105,1.0,55.0
1474,79.0,120,240,1.0,54.0
1475,77.0,240,200,1.0,53.0
1476,77.0,0,313,1.0,51.0
1477,58.0,240,313,4.0,51.0
1478,50.0,0,313,5.0,51.0
1479,79.0,480,120,1.0,48.0
1480,77.0,120,120,1.0,48.0
1481,50.0,0,313,5.0,48.0
1482,58.0,0,313,4.0,48.0
1483,75.0,120,120,1.0,47.0
1484,74.0,120,105,1.0,46.0
1485,74.0,120,240,1.0,46.0
1486,72.0,240,200,1.0,44.0
1487,58.0,240,313,4.0,43.0
1488,72.0,0,313,1.0,43.0
1489,51.0,0,313,5.0,43.0
1490,52.0,0,313,5.0,40.0
1491,72.0,0,313,1.0,40.0
1492,58.0,480,313,4.0,40.0
1493,74.0,480,90,1.0,67.0
1494,58.0,0,90,4.0,67.0
1495,60.0,0,90,4.0,69.0
1496,76.0,60,98,1.0,69.0
1497,53.0,0,720,5.0,67.0
1498,62.0,60,600,4.0,71.0
1499,77.0,0,600,1.0,71.0
1500,62.0,840,120,4.0,54.0
1501,77.0,0,120,1.0,54.0
1502,60.0,0,120,4.0,52.0
1503,75.0,120,120,1.0,52.0
1504,74.0,0,120,1.0,50.0
1505,58.0,120,120,4.0,50.0
1506,72.0,0,100,1.0,48.0
1507,57.0,120,100,4.0,48.0
1508,53.0,0,465,5.0,54.0
1509,58.0,0,193,5.0,45.0
1510,70.0,120,480,1.0,45.0
1511,46.0,480,193,5.0,36.0
1512,70.0,480,120,1.0,42.0
1513,72.0,120,120,1.0,44.0
1514,70.0,120,120,1.0,45.0
1515,69.0,120,120,1.0,46.0
1516,63.0,0,360,4.0,47.0
1517,67.0,0,360,4.0,47.0
1518,70.0,120,384,1.0,47.0
1519,58.0,240,192,3.0,49.0
1520,67.0,0,360,4.0,51.0
1521,63.0,240,360,4.0,51.0
1522,58.0,240,192,3.0,53.0
1523,70.0,120,120,1.0,54.0
1524,75.0,0,288,1.0,55.0
1525,63.0,0,360,4.0,55.0
1526,67.0,120,360,4.0,55.0
1527,58.0,240,192,3.0,57.0
1528,75.0,120,96,1.0,58.0
1529,68.0,120,360,4.0,65.0
1530,65.0,0,360,4.0,65.0
1531,58.0,240,192,3.0,61.0
1532,75.0,0,480,1.0,65.0
1533,74.0,240,313,1.0,58.0
1534,65.0,0,360,4.0,58.0
1535,68.0,0,360,4.0,58.0
1536,58.0,240,192,3.0,54.0
1537,70.0,0,120,1.0,50.0
1538,72.0,120,120,1.0,51.0
1539,70.0,120,120,1.0,52.0
1540,65.0,0,360,4.0,50.0
1541,68.0,240,360,4.0,50.0
1542,58.0,0,192,3.0,52.0
1543,69.0,120,120,1.0,53.0
1544,63.0,120,360,4.0,54.0
1545,67.0,0,360,4.0,54.0
1546,70.0,0,384,1.0,54.0
1547,58.0,240,192,3.0,56.0
1548,63.0,240,360,4.0,58.0
1549,67.0,0,360,4.0,58.0
1550,58.0,240,192,3.0,60.0
1551,70.0,120,120,1.0,61.0
1552,79.0,0,288,1.0,62.0
1553,63.0,120,360,4.0,62.0
1554,67.0,0,360,4.0,62.0
1555,58.0,240,192,3.0,64.0
1556,79.0,120,96,1.0,65.0
1557,65.0,0,360,4.0,70.0
1558,62.0,0,360,4.0,70.0
1559,58.0,240,192,3.0,67.0
1560,82.0,120,480,1.0,70.0
1561,80.0,240,313,1.0,64.0
1562,65.0,0,360,4.0,64.0
1563,62.0,0,360,4.0,64.0
1564,58.0,240,192,3.0,61.0
1565,80.0,240,120,1.0,59.0
1566,82.0,120,120,1.0,59.0
1567,62.0,0,360,4.0,59.0
1568,65.0,0,360,4.0,59.0
1569,80.0,0,120,1.0,59.0
1570,58.0,120,192,3.0,59.0
1571,77.0,120,105,1.0,58.0
1572,79.0,0,120,1.0,58.0
1573,80.0,120,120,1.0,57.0
1574,79.0,120,120,1.0,57.0
1575,75.0,120,105,1.0,57.0
1576,63.0,120,480,5.0,58.0
1577,82.0,120,104,1.0,56.0
1578,80.0,160,104,1.0,56.0
1579,79.0,160,104,1.0,55.0
1580,77.0,160,104,1.0,55.0
1581,75.0,160,104,1.0,54.0
1582,43.0,0,384,5.0,55.0
1583,55.0,0,384,5.0,55.0
1584,73.0,160,104,1.0,54.0
1585,72.0,160,120,1.0,53.0
1586,73.0,120,120,1.0,53.0
1587,72.0,120,120,1.0,53.0
1588,56.0,0,384,5.0,53.0
1589,44.0,0,384,5.0,53.0
1590,68.0,120,120,1.0,52.0
1591,84.0,120,160,1.0,52.0
1592,82.0,160,160,1.0,51.0
1593,80.0,160,160,1.0,51.0
1594,79.0,160,160,1.0,50.0
1595,77.0,160,160,1.0,50.0
1596,61.0,0,384,4.0,50.0
1597,58.0,0,384,5.0,50.0
1598,76.0,160,145,1.0,49.0
1599,77.0,0,120,1.0,49.0
1600,79.0,120,120,1.0,48.0
1601,77.0,120,120,1.0,48.0
1602,60.0,0,384,4.0,49.0
1603,56.0,160,384,5.0,49.0
1604,72.0,120,110,1.0,48.0
1605,84.0,120,128,1.0,47.0
1606,82.0,160,128,1.0,47.0
1607,80.0,160,128,1.0,46.0
1608,79.0,0,128,1.0,46.0
1609,63.0,0,156,5.0,46.0
1610,77.0,160,128,1.0,45.0
1611,65.0,0,156,5.0,45.0
1612,75.0,0,128,1.0,45.0
1613,67.0,160,140,5.0,45.0
1614,57.0,160,480,5.0,46.0
1615,67.0,0,480,5.0,44.0
1616,75.0,0,480,1.0,44.0
1617,58.0,160,860,5.0,44.0
1618,65.0,480,380,5.0,40.0
1619,74.0,0,384,1.0,40.0
1620,77.0,480,120,1.0,45.0
1621,58.0,0,235,5.0,45.0
1622,79.0,120,120,1.0,46.0
1623,77.0,120,120,1.0,48.0
1624,65.0,0,192,3.0,48.0
1625,74.0,120,100,1.0,49.0
1626,60.0,120,235,5.0,53.0
1627,75.0,0,240,1.0,53.0
1628,65.0,240,192,3.0,51.0
1629,63.0,240,235,5.0,49.0
1630,72.0,0,240,1.0,49.0
1631,65.0,240,192,3.0,46.0
1632,81.0,0,120,1.0,55.0
1633,63.0,240,235,5.0,55.0
1634,82.0,120,120,1.0,58.0
1635,81.0,120,120,1.0,61.0
1636,65.0,0,192,3.0,61.0
1637,77.0,120,105,1.0,64.0
1638,62.0,0,235,5.0,71.0
1639,65.0,240,192,3.0,66.0
1640,82.0,120,480,1.0,71.0
1641,58.0,0,235,5.0,62.0
1642,86.0,240,240,1.0,62.0
1643,65.0,240,192,3.0,57.0
1644,77.0,240,96,1.0,53.0
1645,79.0,120,96,1.0,55.0
1646,58.0,0,235,5.0,53.0
1647,77.0,120,96,1.0,56.0
1648,65.0,0,192,3.0,56.0
1649,74.0,120,96,1.0,58.0
1650,75.0,0,193,1.0,61.0
1651,60.0,120,235,5.0,61.0
1652,65.0,240,192,3.0,58.0
1653,72.0,0,193,1.0,56.0
1654,63.0,240,235,5.0,56.0
1655,65.0,240,192,3.0,53.0
1656,81.0,240,120,1.0,60.0
1657,63.0,0,235,5.0,60.0
1658,82.0,120,120,1.0,63.0
1659,81.0,0,120,1.0,65.0
1660,65.0,120,192,3.0,65.0
1661,77.0,120,100,1.0,68.0
1662,58.0,0,235,5.0,73.0
1663,62.0,240,192,3.0,68.0
1664,82.0,120,480,1.0,73.0
1665,58.0,240,240,5.0,63.0
1666,86.0,0,240,1.0,63.0
1667,84.0,480,120,1.0,57.0
1668,82.0,120,120,1.0,56.0
1669,81.0,120,120,1.0,55.0
1670,79.0,120,105,1.0,55.0
1671,79.0,120,240,1.0,54.0
1672,77.0,240,200,1.0,53.0
1673,58.0,0,313,4.0,51.0
1674,50.0,0,313,5.0,51.0
1675,77.0,240,313,1.0,51.0
1676,79.0,0,120,1.0,48.0
1677,77.0,120,120,1.0,48.0
1678,50.0,0,313,5.0,48.0
1679,58.0,480,313,4.0,48.0
1680,75.0,120,120,1.0,47.0
1681,74.0,120,105,1.0,46.0
1682,74.0,120,240,1.0,46.0
1683,72.0,240,200,1.0,44.0
1684,51.0,0,313,5.0,43.0
1685,72.0,240,313,1.0,43.0
1686,58.0,0,313,4.0,43.0
1687,52.0,0,313,5.0,40.0
1688,72.0,480,313,1.0,40.0
1689,58.0,0,313,4.0,40.0
1690,74.0,0,90,1.0,67.0
1691,58.0,480,90,4.0,67.0
1692,60.0,0,90,4.0,69.0
1693,76.0,60,98,1.0,69.0
1694,77.0,60,600,1.0,71.0
1695,53.0,0,720,5.0,67.0
1696,62.0,0,600,4.0,71.0
1697,62.0,0,120,4.0,54.0
1698,77.0,0,120,1.0,54.0
1699,75.0,0,120,1.0,52.0
1700,60.0,120,120,4.0,52.0
1701,74.0,120,120,1.0,50.0
1702,58.0,0,120,4.0,50.0
1703,72.0,120,100,1.0,48.0
1704,57.0,0,100,4.0,48.0
1705,53.0,840,465,5.0,54.0
1706,58.0,0,193,5.0,45.0
1707,70.0,120,480,1.0,45.0
1708,46.0,480,193,5.0,36.0
1709,70.0,480,120,1.0,40.0
1710,62.0,0,240,4.0,40.0
1711,70.0,240,120,1.0,46.0
1712,58.0,0,192,3.0,46.0
1713,71.0,240,165,1.0,57.0
1714,63.0,0,240,4.0,57.0
1715,58.0,120,192,3.0,53.0
1716,72.0,120,368,1.0,55.0
1717,63.0,240,240,4.0,50.0
1718,58.0,240,192,3.0,47.0
1719,74.0,0,120,1.0,49.0
1720,65.0,240,240,4.0,49.0
1721,74.0,240,120,1.0,53.0
1722,58.0,0,192,3.0,53.0
1723,74.0,0,173,1.0,62.0
1724,67.0,240,240,4.0,62.0
1725,58.0,120,192,3.0,59.0
1726,75.0,120,368,1.0,60.0
1727,67.0,240,240,4.0,55.0
1728,58.0,240,192,3.0,52.0
1729,77.0,0,120,1.0,55.0
1730,62.0,240,240,4.0,55.0
1731,77.0,0,120,1.0,60.0
1732,58.0,240,192,3.0,60.0
1733,78.0,0,173,1.0,72.0
1734,63.0,240,240,4.0,72.0
1735,58.0,120,192,3.0,68.0
1736,79.0,120,383,1.0,70.0
1737,63.0,240,240,4.0,64.0
1738,58.0,240,192,3.0,60.0
1739,81.0,240,120,1.0,61.0
1740,60.0,0,240,4.0,61.0
1741,81.0,240,120,1.0,66.0
1742,58.0,0,192,3.0,66.0
1743,81.0,0,165,1.0,76.0
1744,62.0,240,240,4.0,76.0
1745,58.0,120,192,3.0,67.0
1746,82.0,120,375,1.0,72.0
1747,65.0,240,240,4.0,57.0
1748,62.0,240,192,3.0,47.0
1749,70.0,0,120,1.0,41.0
1750,70.0,240,120,1.0,47.0
1751,58.0,240,480,5.0,41.0
1752,75.0,0,240,1.0,75.0
1753,77.0,240,240,1.0,73.0
1754,78.0,240,240,1.0,70.0
1755,77.0,240,240,1.0,68.0
1756,75.0,240,240,1.0,66.0
1757,74.0,240,215,1.0,63.0
1758,75.0,240,240,1.0,61.0
1759,77.0,240,240,1.0,56.0
1760,78.0,240,240,1.0,52.0
1761,79.0,240,240,1.0,48.0
1762,80.0,240,240,1.0,43.0
1763,47.0,240,2858,5.0,75.0
1764,59.0,0,2865,5.0,75.0
1765,81.0,240,240,1.0,38.0
1766,58.0,0,480,5.0,34.0
1767,46.0,0,480,5.0,34.0
1768,82.0,240,480,1.0,34.0
1769,58.0,0,120,5.0,72.0
1770,46.0,960,120,5.0,72.0
1771,59.0,0,120,5.0,74.0
1772,47.0,120,120,5.0,74.0
1773,46.0,120,120,5.0,75.0
1774,58.0,0,120,5.0,75.0
1775,45.0,120,120,5.0,77.0
1776,57.0,0,120,5.0,77.0
1777,46.0,120,480,5.0,79.0
1778,58.0,0,480,5.0,79.0
1779,70.0,960,120,1.0,42.0
1780,72.0,120,120,1.0,43.0
1781,70.0,120,120,1.0,44.0
1782,69.0,120,120,1.0,45.0
1783,67.0,0,360,4.0,45.0
1784,63.0,0,360,4.0,45.0
1785,70.0,120,384,1.0,45.0
1786,58.0,240,192,3.0,47.0
1787,67.0,240,360,4.0,49.0
1788,63.0,0,360,4.0,49.0
1789,58.0,240,192,3.0,51.0
1790,70.0,120,120,1.0,52.0
1791,75.0,0,288,1.0,52.0
1792,67.0,120,360,4.0,52.0
1793,63.0,0,360,4.0,52.0
1794,58.0,240,192,3.0,54.0
1795,75.0,120,96,1.0,55.0
1796,68.0,120,360,4.0,61.0
1797,65.0,0,360,4.0,61.0
1798,58.0,240,192,3.0,57.0
1799,75.0,0,480,1.0,61.0
1800,74.0,240,240,1.0,54.0
1801,65.0,0,360,4.0,54.0
1802,68.0,0,360,4.0,54.0
1803,58.0,240,192,3.0,51.0
1804,70.0,240,120,1.0,48.0
1805,72.0,120,120,1.0,50.0
1806,70.0,0,120,1.0,51.0
1807,68.0,0,360,4.0,48.0
1808,65.0,0,360,4.0,48.0
1809,58.0,120,192,3.0,51.0
1810,69.0,120,120,1.0,52.0
1811,67.0,0,360,4.0,53.0
1812,63.0,0,360,4.0,53.0
1813,70.0,120,384,1.0,53.0
1814,58.0,240,192,3.0,55.0
1815,67.0,0,360,4.0,57.0
1816,63.0,240,360,4.0,57.0
1817,58.0,240,192,3.0,60.0
1818,70.0,120,120,1.0,61.0
1819,79.0,0,288,1.0,62.0
1820,67.0,0,360,4.0,62.0
1821,63.0,120,360,4.0,62.0
1822,58.0,240,192,3.0,64.0
1823,79.0,120,96,1.0,65.0
1824,65.0,120,360,4.0,70.0
1825,62.0,0,360,4.0,70.0
1826,58.0,240,192,3.0,67.0
1827,82.0,0,480,1.0,70.0
1828,80.0,0,240,1.0,64.0
1829,62.0,0,360,4.0,64.0
1830,65.0,240,360,4.0,64.0
1831,58.0,240,192,3.0,60.0
1832,80.0,240,120,1.0,59.0
1833,82.0,120,120,1.0,58.0
1834,65.0,0,360,4.0,59.0
1835,62.0,0,360,4.0,59.0
1836,80.0,0,120,1.0,58.0
1837,58.0,120,192,3.0,58.0
1838,77.0,120,110,1.0,57.0
1839,79.0,0,120,1.0,57.0
1840,80.0,120,120,1.0,57.0
1841,79.0,120,120,1.0,56.0
1842,75.0,120,105,1.0,56.0
1843,63.0,120,480,5.0,57.0
1844,82.0,120,104,1.0,55.0
1845,80.0,160,104,1.0,55.0
1846,79.0,160,104,1.0,54.0
1847,77.0,0,104,1.0,53.0
1848,75.0,160,104,1.0,53.0
1849,55.0,0,384,5.0,53.0
1850,43.0,160,384,5.0,53.0
1851,73.0,160,104,1.0,52.0
1852,72.0,0,120,1.0,52.0
1853,73.0,120,120,1.0,51.0
1854,72.0,120,120,1.0,51.0
1855,56.0,160,384,5.0,52.0
1856,44.0,0,384,5.0,52.0
1857,68.0,120,105,1.0,50.0
1858,84.0,120,160,1.0,50.0
1859,82.0,160,160,1.0,49.0
1860,80.0,160,160,1.0,49.0
1861,79.0,0,160,1.0,48.0
1862,77.0,160,160,1.0,47.0
1863,58.0,0,384,5.0,48.0
1864,61.0,160,384,4.0,48.0
1865,76.0,160,140,1.0,47.0
1866,77.0,160,120,1.0,46.0
1867,79.0,120,120,1.0,46.0
1868,77.0,120,120,1.0,45.0
1869,56.0,0,384,5.0,46.0
1870,60.0,0,384,4.0,46.0
1871,72.0,120,120,1.0,45.0
1872,84.0,120,128,1.0,45.0
1873,82.0,160,128,1.0,44.0
1874,80.0,160,128,1.0,43.0
1875,79.0,160,128,1.0,43.0
1876,63.0,0,156,5.0,43.0
1877,77.0,160,128,1.0,42.0
1878,65.0,0,156,5.0,42.0
1879,75.0,160,128,1.0,42.0
1880,67.0,0,156,5.0,42.0
1881,57.0,0,480,5.0,43.0
1882,75.0,0,480,1.0,41.0
1883,67.0,0,480,5.0,41.0
1884,74.0,480,240,1.0,35.0
1885,65.0,0,445,5.0,35.0
1886,58.0,160,925,5.0,41.0
1887,70.0,480,120,1.0,46.0
1888,72.0,120,120,1.0,47.0
1889,51.0,0,240,4.0,46.0
1890,70.0,0,120,1.0,48.0
1891,58.0,120,192,3.0,48.0
1892,67.0,120,100,1.0,49.0
1893,53.0,0,240,4.0,51.0
1894,68.0,120,240,1.0,51.0
1895,58.0,240,192,3.0,50.0
1896,65.0,0,240,1.0,48.0
1897,56.0,240,240,4.0,48.0
1898,58.0,240,192,3.0,46.0
1899,74.0,0,120,1.0,52.0
1900,56.0,240,240,4.0,52.0
1901,75.0,120,120,1.0,55.0
1902,74.0,0,120,1.0,57.0
1903,58.0,120,192,3.0,57.0
1904,70.0,120,115,1.0,59.0
1905,55.0,0,240,4.0,66.0
1906,58.0,240,192,3.0,63.0
1907,75.0,120,480,1.0,66.0
1908,51.0,240,240,4.0,60.0
1909,79.0,0,240,1.0,60.0
1910,58.0,240,192,3.0,57.0
1911,70.0,0,120,1.0,53.0
1912,51.0,240,240,4.0,53.0
1913,72.0,120,120,1.0,55.0
1914,70.0,0,120,1.0,57.0
1915,58.0,120,192,3.0,57.0
1916,67.0,120,110,1.0,59.0
1917,68.0,120,240,1.0,63.0
1918,53.0,0,240,4.0,63.0
1919,58.0,240,192,3.0,60.0
1920,56.0,0,240,4.0,58.0
1921,65.0,240,240,1.0,58.0
1922,58.0,240,192,3.0,55.0
1923,74.0,240,120,1.0,59.0
1924,56.0,0,240,4.0,59.0
1925,75.0,120,120,1.0,62.0
1926,74.0,120,120,1.0,65.0
1927,58.0,0,192,3.0,65.0
1928,70.0,120,105,1.0,68.0
1929,55.0,120,240,4.0,71.0
1930,58.0,240,192,3.0,67.0
1931,75.0,0,480,1.0,71.0
1932,51.0,240,240,4.0,64.0
1933,79.0,0,240,1.0,64.0
1934,89.0,480,120,1.0,63.0
1935,87.0,120,120,1.0,62.0
1936,86.0,120,120,1.0,61.0
1937,84.0,120,95,1.0,60.0
1938,84.0,120,240,1.0,60.0
1939,82.0,240,195,1.0,58.0
1940,63.0,0,313,4.0,56.0
1941,82.0,240,313,1.0,56.0
1942,55.0,0,313,5.0,56.0
1943,84.0,0,120,1.0,53.0
1944,82.0,120,120,1.0,52.0
1945,55.0,0,313,5.0,53.0
1946,63.0,480,313,4.0,53.0
1947,80.0,120,120,1.0,51.0
1948,79.0,120,105,1.0,51.0
1949,79.0,120,240,1.0,50.0
1950,77.0,240,205,1.0,48.0
1951,63.0,0,313,4.0,46.0
1952,77.0,240,313,1.0,46.0
1953,56.0,0,313,5.0,46.0
1954,77.0,480,313,1.0,43.0
1955,57.0,0,313,5.0,43.0
1956,63.0,0,313,4.0,43.0
1957,79.0,0,90,1.0,72.0
1958,63.0,480,98,4.0,72.0
1959,80.0,0,83,1.0,74.0
1960,65.0,60,105,4.0,74.0
1961,82.0,0,593,1.0,77.0
1962,58.0,0,720,5.0,72.0
1963,67.0,60,600,4.0,77.0
1964,67.0,0,120,4.0,59.0
1965,82.0,0,120,1.0,59.0
1966,80.0,0,120,1.0,57.0
1967,65.0,120,120,4.0,57.0
1968,63.0,0,120,4.0,55.0
1969,79.0,120,120,1.0,55.0
1970,62.0,120,120,4.0,53.0
1971,77.0,0,120,1.0,53.0
1972,58.0,840,488,5.0,59.0
1973,63.0,120,240,5.0,51.0
1974,75.0,0,480,1.0,51.0
1975,51.0,480,156,5.0,40.0
1976,74.0,480,360,1.0,55.0
1977,75.0,360,120,1.0,59.0
1978,72.0,120,240,1.0,61.0
1979,70.0,240,120,1.0,56.0
1980,70.0,240,156,1.0,55.0
1981,62.0,0,156,5.0,55.0
1982,65.0,0,156,4.0,55.0
1983,65.0,0,156,4.0,52.0
1984,62.0,480,156,5.0,52.0
1985,70.0,0,156,1.0,52.0
1986,69.0,480,360,1.0,49.0
1987,65.0,0,360,4.0,49.0
1988,63.0,0,360,5.0,49.0
1989,75.0,960,360,1.0,57.0
1990,77.0,360,120,1.0,61.0
1991,74.0,120,240,1.0,62.0
1992,72.0,240,120,1.0,60.0
1993,63.0,0,156,5.0,58.0
1994,65.0,240,156,4.0,58.0
1995,72.0,0,156,1.0,58.0
1996,72.0,0,156,1.0,54.0
1997,65.0,0,156,4.0,54.0
1998,63.0,480,156,5.0,54.0
1999,62.0,0,360,5.0,51.0
2000,70.0,480,360,1.0,51.0
2001,65.0,0,360,4.0,51.0
2002,74.0,0,360,1.0,67.0
2003,58.0,960,360,5.0,67.0
2004,75.0,0,96,1.0,72.0
2005,60.0,360,96,5.0,72.0
2006,77.0,120,240,1.0,75.0
2007,62.0,0,240,5.0,75.0
2008,63.0,0,240,5.0,73.0
2009,79.0,240,240,1.0,73.0
2010,60.0,240,240,5.0,72.0
2011,75.0,0,240,1.0,72.0
2012,57.0,240,240,5.0,72.0
2013,72.0,0,240,1.0,72.0
2014,74.0,240,240,1.0,71.0
2015,58.0,0,240,5.0,71.0
2016,75.0,240,200,1.0,70.0
2017,60.0,0,200,5.0,70.0
2018,62.0,0,240,5.0,70.0
2019,77.0,240,240,1.0,70.0
2020,79.0,240,240,1.0,69.0
2021,63.0,0,240,5.0,69.0
2022,75.0,240,240,1.0,68.0
2023,60.0,0,240,5.0,68.0
2024,57.0,0,240,5.0,68.0
2025,72.0,240,240,1.0,68.0
2026,58.0,240,240,5.0,67.0
2027,74.0,0,240,1.0,67.0
2028,53.0,0,2880,5.0,75.0
2029,75.0,240,240,1.0,66.0
2030,77.0,0,205,1.0,66.0
2031,62.0,240,384,5.0,66.0
2032,82.0,240,240,1.0,59.0
2033,81.0,240,240,1.0,58.0
2034,79.0,240,240,1.0,57.0
2035,77.0,240,240,1.0,56.0
2036,76.0,240,240,1.0,55.0
2037,74.0,240,240,1.0,54.0
2038,72.0,240,240,1.0,53.0
2039,71.0,240,240,1.0,51.0
2040,70.0,240,240,1.0,50.0
2041,69.0,240,240,1.0,49.0
2042,67.0,240,200,1.0,48.0
2043,72.0,240,360,1.0,67.0
2044,74.0,360,120,1.0,65.0
2045,57.0,0,156,4.0,65.0
2046,65.0,0,156,1.0,65.0
2047,48.0,0,156,5.0,65.0
2048,60.0,120,156,4.0,65.0
2049,58.0,0,156,4.0,62.0
2050,48.0,480,156,5.0,62.0
2051,64.0,0,156,1.0,62.0
2052,55.0,0,156,4.0,62.0
2053,53.0,480,193,5.0,60.0
2054,57.0,0,480,4.0,60.0
2055,65.0,0,480,1.0,60.0
2056,41.0,480,193,5.0,53.0
2057,74.0,480,360,1.0,55.0
2058,70.0,0,360,5.0,55.0
2059,72.0,0,96,1.0,59.0
2060,69.0,360,96,5.0,59.0
2061,69.0,0,480,5.0,60.0
2062,72.0,120,480,1.0,60.0
2063,65.0,480,480,5.0,57.0
2064,76.0,480,360,1.0,65.0
2065,70.0,0,360,5.0,65.0
2066,77.0,360,96,1.0,69.0
2067,69.0,0,96,5.0,69.0
2068,69.0,120,480,5.0,70.0
2069,77.0,0,480,1.0,70.0
2070,53.0,480,440,5.0,63.0
2071,53.0,480,360,5.0,79.0
2072,71.0,0,360,2.0,79.0
2073,74.0,40,320,2.0,79.0
2074,65.0,0,360,5.0,79.0
2075,80.0,40,285,1.0,79.0
2076,64.0,400,355,5.0,83.0
2077,76.0,40,315,2.0,83.0
2078,79.0,40,280,1.0,83.0
2079,52.0,0,360,5.0,83.0
2080,72.0,0,365,2.0,83.0
2081,63.0,0,355,5.0,81.0
2082,72.0,40,315,2.0,81.0
2083,69.0,400,360,2.0,81.0
2084,51.0,0,360,5.0,81.0
2085,78.0,40,288,1.0,81.0
2086,62.0,400,355,5.0,79.0
2087,77.0,40,275,1.0,78.0
2088,50.0,0,360,5.0,79.0
2089,70.0,0,360,2.0,79.0
2090,74.0,40,320,2.0,78.0
2091,43.0,0,355,5.0,76.0
2092,70.0,40,320,2.0,76.0
2093,55.0,0,360,5.0,76.0
2094,76.0,40,280,1.0,76.0
2095,67.0,400,360,2.0,76.0
2096,57.0,0,360,5.0,73.0
2097,45.0,400,360,5.0,73.0
2098,66.0,0,360,2.0,73.0
2099,72.0,40,320,2.0,73.0
2100,75.0,40,280,1.0,73.0
2101,65.0,400,355,2.0,71.0
2102,46.0,0,355,5.0,71.0
2103,70.0,40,320,2.0,71.0
2104,58.0,0,360,5.0,71.0
2105,74.0,40,288,1.0,70.0
2106,51.0,400,960,5.0,64.0
2107,72.0,480,480,1.0,62.0
2108,52.0,480,420,5.0,61.0
2109,73.0,0,420,1.0,61.0
2110,70.0,0,240,1.0,59.0
2111,69.0,240,200,1.0,58.0
2112,53.0,480,485,5.0,59.0
2113,67.0,240,193,1.0,57.0
2114,65.0,240,193,1.0,56.0
2115,51.0,0,480,5.0,57.0
2116,70.0,0,415,1.0,55.0
2117,50.0,240,420,5.0,55.0
2118,57.0,0,480,5.0,69.0
2119,72.0,0,480,2.0,69.0
2120,75.0,480,480,1.0,69.0
2121,58.0,0,355,5.0,67.0
2122,70.0,480,360,2.0,67.0
2123,74.0,0,360,1.0,67.0
2124,69.0,360,96,2.0,66.0
2125,72.0,0,96,1.0,66.0
2126,52.0,0,350,5.0,65.0
2127,74.0,120,360,1.0,65.0
2128,70.0,0,360,2.0,65.0
2129,75.0,360,96,1.0,64.0
2130,72.0,0,96,2.0,64.0
2131,74.0,0,480,1.0,64.0
2132,70.0,0,480,2.0,64.0
2133,53.0,120,840,5.0,64.0
2134,72.0,0,384,1.0,62.0
2135,69.0,480,384,2.0,62.0
2136,62.0,480,360,5.0,51.0
2137,63.0,360,96,5.0,53.0
2138,60.0,120,240,5.0,54.0
2139,58.0,240,120,5.0,52.0
2140,74.0,0,156,3.0,51.0
2141,77.0,240,156,2.0,51.0
2142,58.0,0,156,5.0,51.0
2143,58.0,0,156,5.0,47.0
2144,77.0,480,156,2.0,47.0
2145,74.0,0,156,3.0,47.0
2146,57.0,0,360,5.0,42.0
2147,77.0,480,360,2.0,42.0
2148,75.0,0,360,3.0,42.0
2149,63.0,960,360,5.0,51.0
2150,65.0,360,96,5.0,56.0
2151,62.0,120,240,5.0,58.0
2152,60.0,240,120,5.0,56.0
2153,81.0,0,156,3.0,54.0
2154,87.0,240,156,2.0,54.0
2155,60.0,0,156,5.0,54.0
2156,87.0,480,156,2.0,49.0
2157,60.0,0,156,5.0,49.0
2158,81.0,0,156,3.0,49.0
2159,58.0,0,360,5.0,45.0
2160,86.0,480,360,2.0,45.0
2161,82.0,0,360,3.0,45.0
2162,74.0,960,360,1.0,69.0
2163,58.0,0,360,5.0,69.0
2164,60.0,360,100,5.0,73.0
2165,75.0,0,100,1.0,73.0
2166,62.0,0,240,5.0,75.0
2167,77.0,120,240,1.0,75.0
2168,63.0,0,240,5.0,73.0
2169,79.0,240,240,1.0,73.0
2170,75.0,0,240,1.0,72.0
2171,60.0,240,240,5.0,72.0
2172,72.0,240,240,1.0,71.0
2173,57.0,0,240,5.0,71.0
2174,74.0,0,240,1.0,71.0
2175,58.0,240,240,5.0,71.0
2176,60.0,0,200,5.0,70.0
2177,75.0,240,200,1.0,70.0
2178,77.0,240,240,1.0,69.0
2179,62.0,0,240,5.0,69.0
2180,63.0,0,240,5.0,68.0
2181,79.0,240,240,1.0,68.0
2182,75.0,0,240,1.0,68.0
2183,60.0,240,240,5.0,68.0
2184,72.0,240,240,1.0,67.0
2185,53.0,0,2400,5.0,75.0
2186,57.0,0,240,5.0,67.0
2187,74.0,0,240,1.0,66.0
2188,58.0,240,240,5.0,66.0
2189,75.0,240,240,1.0,65.0
2190,60.0,0,240,5.0,65.0
2191,77.0,240,200,1.0,64.0
2192,62.0,0,384,5.0,64.0
2193,87.0,240,240,1.0,57.0
2194,86.0,240,240,1.0,56.0
2195,84.0,240,240,1.0,55.0
2196,82.0,240,240,1.0,54.0
2197,81.0,240,240,1.0,53.0
2198,79.0,240,240,1.0,52.0
2199,77.0,240,240,1.0,52.0
2200,76.0,240,240,1.0,51.0
2201,75.0,240,240,1.0,50.0
2202,74.0,240,240,1.0,49.0
2203,72.0,240,200,1.0,48.0
2204,77.0,240,360,1.0,67.0
2205,79.0,360,96,1.0,65.0
2206,65.0,120,156,4.0,64.0
2207,62.0,0,156,4.0,64.0
2208,70.0,0,156,1.0,64.0
2209,53.0,0,156,5.0,64.0
2210,69.0,0,156,1.0,61.0
2211,53.0,0,156,5.0,61.0
2212,60.0,480,156,4.0,61.0
2213,63.0,0,156,4.0,61.0
2214,58.0,0,193,5.0,58.0
2215,70.0,0,384,1.0,58.0
2216,62.0,480,384,4.0,58.0
2217,46.0,480,193,5.0,52.0
2218,79.0,480,360,1.0,47.0
2219,75.0,0,360,2.0,47.0
2220,77.0,360,96,1.0,51.0
2221,74.0,0,96,2.0,51.0
2222,74.0,120,384,2.0,53.0
2223,77.0,0,384,1.0,53.0
2224,70.0,480,384,5.0,48.0
2225,75.0,480,360,2.0,53.0
2226,81.0,0,368,1.0,53.0
2227,82.0,0,96,1.0,58.0
2228,74.0,360,96,2.0,58.0
2229,74.0,0,384,2.0,61.0
2230,82.0,120,384,1.0,61.0
2231,58.0,480,384,5.0,55.0
2232,74.0,480,360,1.0,65.0
2233,55.0,0,384,5.0,65.0
2234,70.0,360,96,1.0,70.0
2235,51.0,120,384,5.0,72.0
2236,48.0,480,384,5.0,69.0
2237,67.0,0,960,2.0,72.0
2238,75.0,0,960,1.0,72.0
2239,53.0,480,313,5.0,67.0
2240,72.0,0,360,1.0,67.0
2241,63.0,0,384,2.0,67.0
2242,69.0,360,96,1.0,65.0
2243,58.0,0,193,5.0,64.0
2244,62.0,120,384,2.0,64.0
2245,70.0,0,384,1.0,64.0
2246,46.0,480,193,5.0,56.0
2247,70.0,2640,120,1.0,42.0
2248,63.0,240,144,5.0,44.0
2249,67.0,0,144,4.0,44.0
2250,70.0,240,690,1.0,46.0
2251,67.0,0,216,4.0,45.0
2252,63.0,240,216,5.0,45.0
2253,82.0,240,120,1.0,45.0
2254,65.0,240,144,4.0,47.0
2255,62.0,0,144,5.0,47.0
2256,62.0,0,216,5.0,48.0
2257,65.0,240,216,4.0,48.0
2258,82.0,240,720,1.0,50.0
2259,80.0,240,120,1.0,49.0
2260,80.0,0,120,1.0,55.0
2261,63.0,240,156,5.0,53.0
2262,79.0,120,120,1.0,54.0
2263,77.0,120,120,1.0,53.0
2264,55.0,0,156,5.0,51.0
2265,75.0,120,98,1.0,51.0
2266,72.0,0,120,1.0,50.0
2267,56.0,120,156,5.0,49.0
2268,75.0,120,120,1.0,49.0
2269,74.0,0,120,1.0,48.0
2270,58.0,120,156,5.0,47.0
2271,77.0,120,120,1.0,47.0
2272,75.0,120,120,1.0,46.0
2273,60.0,0,156,5.0,45.0
2274,79.0,120,120,1.0,44.0
2275,77.0,120,120,1.0,43.0
2276,62.0,0,156,5.0,43.0
2277,80.0,120,105,1.0,42.0
2278,79.0,0,120,1.0,41.0
2279,63.0,120,156,5.0,41.0
2280,70.0,240,120,1.0,66.0
2281,67.0,240,144,4.0,67.0
2282,63.0,0,144,5.0,67.0
2283,70.0,240,690,1.0,72.0
2284,67.0,0,216,4.0,68.0
2285,63.0,240,216,5.0,68.0
2286,82.0,240,120,1.0,69.0
2287,62.0,240,144,5.0,71.0
2288,65.0,0,144,4.0,71.0
2289,65.0,240,216,4.0,71.0
2290,62.0,0,216,5.0,71.0
2291,82.0,240,720,1.0,76.0
2292,80.0,240,120,1.0,72.0
2293,80.0,0,120,1.0,76.0
2294,63.0,240,156,5.0,75.0
2295,79.0,120,120,1.0,75.0
2296,77.0,0,120,1.0,73.0
2297,67.0,0,156,5.0,72.0
2298,70.0,120,156,4.0,72.0
2299,75.0,120,98,1.0,71.0
2300,74.0,0,120,2.0,69.0
2301,80.0,0,120,1.0,69.0
2302,70.0,120,156,4.0,70.0
2303,65.0,0,156,5.0,70.0
2304,79.0,240,120,1.0,68.0
2305,75.0,0,120,2.0,68.0
2306,63.0,0,156,5.0,68.0
2307,70.0,0,156,4.0,68.0
2308,58.0,0,156,5.0,65.0
2309,79.0,0,240,1.0,65.0
2310,75.0,240,240,2.0,65.0
2311,77.0,0,120,1.0,60.0
2312,74.0,240,120,2.0,60.0
2313,70.0,0,154,4.0,60.0
2314,58.0,240,156,5.0,57.0
2315,77.0,240,193,1.0,53.0
2316,76.0,240,128,1.0,55.0
2317,65.0,0,120,3.0,56.0
2318,58.0,0,360,4.0,55.0
2319,62.0,120,120,3.0,58.0
2320,77.0,120,360,1.0,56.0
2321,65.0,120,120,3.0,60.0
2322,65.0,120,120,3.0,64.0
2323,77.0,120,40,1.0,66.0
2324,79.0,40,40,1.0,68.0
2325,77.0,40,40,1.0,69.0
2326,62.0,0,120,3.0,66.0
2327,58.0,120,360,4.0,62.0
2328,76.0,40,60,1.0,71.0
2329,77.0,60,60,1.0,73.0
2330,65.0,0,120,3.0,71.0
2331,65.0,120,120,3.0,74.0
2332,60.0,120,120,3.0,71.0
2333,57.0,60,360,4.0,77.0
2334,87.0,0,360,1.0,77.0
2335,65.0,120,120,3.0,68.0
2336,84.0,0,120,1.0,68.0
2337,81.0,0,120,1.0,65.0
2338,65.0,120,120,3.0,62.0
2339,75.0,0,120,1.0,59.0
2340,57.0,120,360,4.0,65.0
2341,60.0,120,120,3.0,59.0
2342,65.0,120,120,3.0,56.0
2343,74.0,120,131,1.0,52.0
2344,65.0,120,120,3.0,53.0
2345,58.0,0,360,4.0,52.0
2346,62.0,120,120,3.0,55.0
2347,65.0,120,120,3.0,56.0
2348,77.0,0,360,1.0,53.0
2349,65.0,120,120,3.0,59.0
2350,77.0,0,40,1.0,60.0
2351,79.0,40,40,1.0,62.0
2352,77.0,40,40,1.0,63.0
2353,58.0,120,360,4.0,58.0
2354,62.0,120,120,3.0,60.0
2355,76.0,40,60,1.0,65.0
2356,77.0,60,60,1.0,68.0
2357,65.0,0,120,3.0,65.0
2358,65.0,120,120,3.0,71.0
2359,60.0,120,120,3.0,69.0
2360,57.0,0,360,4.0,73.0
2361,87.0,60,360,1.0,73.0
2362,84.0,0,120,1.0,67.0
2363,65.0,120,120,3.0,67.0
2364,81.0,120,120,1.0,65.0
2365,65.0,120,120,3.0,63.0
2366,57.0,0,360,4.0,65.0
2367,75.0,0,120,1.0,61.0
2368,60.0,120,120,3.0,61.0
2369,65.0,120,120,3.0,59.0
2370,74.0,120,120,1.0,57.0
2371,75.0,120,120,1.0,58.0
2372,77.0,120,120,1.0,60.0
2373,79.0,120,101,1.0,62.0
2374,58.0,0,480,5.0,56.0
2375,77.0,120,120,1.0,63.0
2376,79.0,120,120,1.0,65.0
2377,81.0,120,120,1.0,67.0
2378,82.0,120,101,1.0,68.0
2379,62.0,0,480,5.0,62.0
2380,78.0,120,120,1.0,70.0
2381,79.0,120,98,1.0,69.0
2382,74.0,120,120,1.0,67.0
2383,75.0,120,101,1.0,66.0
2384,63.0,0,480,5.0,70.0
2385,71.0,120,120,1.0,65.0
2386,72.0,120,105,1.0,64.0
2387,67.0,0,120,1.0,63.0
2388,51.0,0,156,5.0,63.0
2389,63.0,120,156,4.0,63.0
2390,72.0,120,101,1.0,61.0
2391,62.0,120,240,4.0,60.0
2392,70.0,0,240,1.0,60.0
2393,69.0,0,120,1.0,53.0
2394,60.0,240,124,4.0,53.0
2395,53.0,0,364,5.0,60.0
2396,53.0,240,120,5.0,50.0
2397,55.0,120,120,5.0,49.0
2398,51.0,120,120,5.0,47.0
2399,53.0,120,101,5.0,46.0
2400,50.0,120,480,5.0,44.0
2401,77.0,240,240,1.0,45.0
2402,75.0,240,240,1.0,47.0
2403,62.0,0,141,5.0,49.0
2404,65.0,240,141,4.0,49.0
2405,74.0,0,199,1.0,49.0
2406,63.0,0,213,5.0,53.0
2407,67.0,240,213,4.0,53.0
2408,71.0,240,120,1.0,54.0
2409,71.0,240,240,1.0,56.0
2410,67.0,240,141,4.0,58.0
2411,63.0,0,141,5.0,58.0
2412,72.0,0,199,1.0,58.0
2413,69.0,0,213,4.0,63.0
2414,65.0,240,213,5.0,63.0
2415,79.0,240,240,1.0,62.0
2416,77.0,240,240,1.0,64.0
2417,65.0,240,141,5.0,66.0
2418,69.0,0,141,4.0,66.0
2419,75.0,0,203,1.0,66.0
2420,70.0,0,213,4.0,72.0
2421,67.0,240,213,5.0,72.0
2422,73.0,240,120,1.0,70.0
2423,73.0,240,240,1.0,72.0
2424,67.0,240,141,5.0,74.0
2425,70.0,0,141,4.0,74.0
2426,74.0,0,191,1.0,74.0
2427,58.0,40,120,3.0,81.0
2428,50.0,0,360,4.0,81.0
2429,53.0,120,120,3.0,81.0
2430,58.0,120,120,3.0,80.0
2431,58.0,120,120,3.0,80.0
2432,50.0,120,360,4.0,80.0
2433,53.0,120,120,3.0,79.0
2434,77.0,40,839,2.0,81.0
2435,82.0,0,799,1.0,81.0
2436,70.0,240,919,2.0,81.0
2437,74.0,40,879,2.0,81.0
2438,58.0,120,120,3.0,79.0
2439,60.0,0,120,3.0,78.0
2440,51.0,120,360,4.0,79.0
2441,55.0,120,120,3.0,78.0
2442,60.0,120,120,3.0,78.0
2443,60.0,120,120,3.0,77.0
2444,55.0,120,120,3.0,77.0
2445,51.0,120,360,4.0,78.0
2446,75.0,40,835,2.0,79.0
2447,72.0,40,875,2.0,79.0
2448,67.0,0,919,2.0,79.0
2449,79.0,40,799,1.0,78.0
2450,60.0,120,120,3.0,77.0
2451,79.0,0,120,1.0,81.0
2452,77.0,120,120,1.0,80.0
2453,62.0,0,120,3.0,76.0
2454,58.0,0,120,3.0,76.0
2455,53.0,120,360,4.0,76.0
2456,75.0,120,120,1.0,79.0
2457,74.0,120,105,1.0,78.0
2458,62.0,0,120,3.0,75.0
2459,74.0,120,120,1.0,77.0
2460,72.0,0,120,1.0,76.0
2461,63.0,120,120,3.0,75.0
2462,70.0,120,120,1.0,76.0
2463,60.0,0,120,3.0,74.0
2464,53.0,0,360,4.0,75.0
2465,69.0,120,98,1.0,75.0
2466,63.0,0,120,3.0,74.0
2467,72.0,120,120,1.0,74.0
2468,70.0,120,101,1.0,70.0
2469,74.0,120,120,1.0,65.0
2470,72.0,120,101,1.0,61.0
2471,58.0,0,480,4.0,74.0
2472,62.0,0,480,4.0,74.0
2473,75.0,120,120,1.0,57.0
2474,74.0,120,98,1.0,52.0
2475,77.0,120,120,1.0,48.0
2476,75.0,120,98,1.0,44.0
2477,79.0,120,240,1.0,42.0
2478,77.0,240,480,1.0,45.0
2479,65.0,240,384,4.0,47.0
2480,62.0,0,384,5.0,47.0
2481,74.0,240,195,1.0,49.0
2482,71.0,240,240,1.0,51.0
2483,74.0,240,480,1.0,54.0
2484,63.0,240,384,5.0,56.0
2485,67.0,0,384,4.0,56.0
2486,72.0,240,195,1.0,58.0
2487,78.0,240,240,1.0,60.0
2488,79.0,240,480,1.0,63.0
2489,69.0,240,384,4.0,65.0
2490,65.0,0,384,5.0,65.0
2491,75.0,240,203,1.0,67.0
2492,73.0,240,240,1.0,70.0
2493,75.0,240,480,1.0,72.0
2494,70.0,240,384,4.0,74.0
2495,67.0,0,384,5.0,74.0
2496,74.0,240,203,1.0,76.0
2497,58.0,40,120,3.0,85.0
2498,50.0,240,360,4.0,85.0
2499,53.0,120,120,3.0,84.0
2500,58.0,120,120,3.0,84.0
2501,58.0,120,120,3.0,83.0
2502,50.0,120,360,4.0,83.0
2503,53.0,120,120,3.0,82.0
2504,70.0,0,915,2.0,85.0
2505,82.0,0,799,1.0,85.0
2506,77.0,40,839,2.0,85.0
2507,74.0,40,879,2.0,85.0
2508,58.0,120,120,3.0,82.0
2509,60.0,40,120,3.0,81.0
2510,55.0,120,120,3.0,80.0
2511,51.0,0,360,4.0,81.0
2512,60.0,120,120,3.0,80.0
2513,60.0,120,120,3.0,79.0
2514,55.0,120,120,3.0,78.0
2515,51.0,120,360,4.0,79.0
2516,79.0,0,795,1.0,81.0
2517,67.0,120,919,2.0,81.0
2518,72.0,40,879,2.0,81.0
2519,75.0,40,839,2.0,81.0
2520,60.0,120,120,3.0,78.0
2521,79.0,120,120,1.0,81.0
2522,77.0,120,120,1.0,80.0
2523,62.0,0,120,3.0,77.0
2524,75.0,120,120,1.0,79.0
2525,53.0,0,360,4.0,77.0
2526,58.0,0,120,3.0,77.0
2527,74.0,120,101,1.0,79.0
2528,62.0,0,120,3.0,76.0
2529,74.0,0,120,1.0,78.0
2530,63.0,120,120,3.0,75.0
2531,72.0,0,120,1.0,77.0
2532,53.0,120,360,4.0,76.0
2533,70.0,0,120,1.0,76.0
2534,60.0,120,120,3.0,75.0
2535,69.0,120,101,1.0,76.0
2536,63.0,0,120,3.0,74.0
2537,69.0,0,120,1.0,74.0
2538,70.0,120,75,1.0,76.0
2539,72.0,120,78,1.0,78.0
2540,74.0,120,78,1.0,79.0
2541,58.0,0,480,4.0,74.0
2542,62.0,120,480,4.0,74.0
2543,75.0,120,78,1.0,81.0
2544,77.0,120,78,1.0,83.0
2545,79.0,120,78,1.0,85.0
2546,81.0,120,78,1.0,87.0
2547,82.0,120,120,1.0,89.0
2548,58.0,0,120,3.0,88.0
2549,84.0,120,120,1.0,88.0
2550,50.0,0,360,4.0,89.0
2551,53.0,120,120,3.0,87.0
2552,86.0,0,120,1.0,87.0
2553,81.0,0,98,1.0,87.0
2554,58.0,120,120,3.0,87.0
2555,58.0,120,120,3.0,85.0
2556,53.0,120,120,3.0,85.0
2557,82.0,0,360,1.0,86.0
2558,50.0,120,360,4.0,86.0
2559,58.0,120,120,3.0,84.0
2560,79.0,120,120,1.0,83.0
2561,81.0,0,120,1.0,83.0
2562,58.0,120,120,3.0,83.0
2563,82.0,120,120,1.0,82.0
2564,51.0,0,360,4.0,83.0
2565,55.0,0,120,3.0,82.0
2566,78.0,120,98,1.0,81.0
2567,58.0,0,120,3.0,81.0
2568,58.0,120,120,3.0,80.0
2569,51.0,120,360,4.0,80.0
2570,79.0,0,360,1.0,80.0
2571,55.0,120,120,3.0,79.0
2572,58.0,120,120,3.0,78.0
2573,79.0,0,120,1.0,78.0
2574,77.0,120,120,1.0,77.0
2575,62.0,0,120,3.0,77.0
2576,53.0,120,360,4.0,78.0
2577,75.0,120,120,1.0,76.0
2578,58.0,0,120,3.0,76.0
2579,74.0,120,98,1.0,75.0
2580,62.0,0,120,3.0,75.0
2581,74.0,120,120,1.0,75.0
2582,63.0,120,120,3.0,74.0
2583,72.0,0,120,1.0,74.0
2584,53.0,0,360,4.0,75.0
2585,70.0,0,120,1.0,73.0
2586,60.0,120,120,3.0,73.0
2587,69.0,0,101,1.0,73.0
2588,63.0,120,120,3.0,73.0
2589,70.0,120,120,1.0,73.0
2590,72.0,120,120,1.0,75.0
2591,74.0,120,120,1.0,77.0
2592,75.0,120,120,1.0,80.0
2593,58.0,0,480,4.0,73.0
2594,62.0,0,480,4.0,73.0
2595,77.0,120,120,1.0,82.0
2596,79.0,120,120,1.0,84.0
2597,81.0,120,120,1.0,86.0
2598,82.0,120,98,1.0,89.0
2599,78.0,120,120,1.0,92.0
2600,79.0,120,120,1.0,89.0
2601,75.0,120,120,1.0,87.0
2602,63.0,0,120,5.0,87.0
2603,72.0,120,101,1.0,84.0
2604,74.0,0,120,1.0,81.0
2605,60.0,120,120,5.0,81.0
2606,75.0,120,120,1.0,78.0
2607,72.0,120,120,1.0,75.0
2608,65.0,0,120,5.0,75.0
2609,69.0,120,94,1.0,72.0
2610,70.0,120,120,1.0,68.0
2611,72.0,120,120,1.0,70.0
2612,74.0,120,120,1.0,72.0
2613,58.0,0,480,5.0,68.0
2614,75.0,120,120,1.0,74.0
2615,62.0,0,480,4.0,68.0
2616,77.0,120,120,1.0,75.0
2617,79.0,120,120,1.0,77.0
2618,81.0,120,120,1.0,79.0
2619,82.0,120,101,1.0,81.0
2620,78.0,120,120,1.0,82.0
2621,79.0,120,120,1.0,81.0
2622,75.0,0,120,1.0,80.0
2623,51.0,120,120,5.0,80.0
2624,72.0,120,101,1.0,78.0
2625,74.0,120,120,1.0,77.0
2626,48.0,0,120,5.0,77.0
2627,75.0,120,120,1.0,75.0
2628,53.0,0,120,5.0,74.0
2629,72.0,120,120,1.0,74.0
2630,69.0,120,98,1.0,72.0
2631,58.0,120,120,5.0,71.0
2632,53.0,240,120,5.0,62.0
2633,70.0,0,596,1.0,71.0
2634,46.0,240,120,5.0,46.0
2635,70.0,240,120,1.0,47.0
2636,53.0,0,156,5.0,49.0
2637,61.0,240,156,4.0,49.0
2638,61.0,0,240,4.0,50.0
2639,53.0,240,240,5.0,50.0
2640,70.0,240,720,1.0,52.0
2641,82.0,240,120,1.0,50.0
2642,52.0,0,156,5.0,53.0
2643,60.0,240,156,4.0,53.0
2644,60.0,240,240,4.0,54.0
2645,82.0,240,720,1.0,54.0
2646,52.0,0,240,5.0,54.0
2647,72.0,240,120,1.0,66.0
2648,73.0,240,120,1.0,67.0
2649,72.0,120,120,1.0,68.0
2650,74.0,120,120,1.0,69.0
2651,65.0,0,156,5.0,69.0
2652,72.0,120,120,2.0,70.0
2653,75.0,0,120,1.0,71.0
2654,67.0,120,156,5.0,71.0
2655,72.0,120,120,2.0,71.0
2656,76.0,0,120,1.0,72.0
2657,70.0,120,156,5.0,72.0
2658,72.0,120,120,2.0,73.0
2659,77.0,0,120,1.0,74.0
2660,68.0,120,156,5.0,74.0
2661,72.0,120,120,2.0,74.0
2662,79.0,0,120,1.0,75.0
2663,64.0,120,156,5.0,75.0
2664,72.0,120,120,2.0,76.0
2665,80.0,120,120,1.0,77.0
2666,65.0,0,156,5.0,77.0
2667,68.0,240,120,1.0,36.0
2668,59.0,240,144,4.0,38.0
2669,51.0,0,144,5.0,38.0
2670,59.0,240,216,4.0,39.0
2671,51.0,0,216,5.0,39.0
2672,68.0,240,720,1.0,40.0
2673,80.0,240,120,1.0,40.0
2674,58.0,240,156,4.0,42.0
2675,50.0,0,156,5.0,42.0
2676,50.0,240,234,5.0,43.0
2677,58.0,0,234,4.0,43.0
2678,80.0,240,720,1.0,44.0
2679,70.0,240,120,1.0,56.0
2680,71.0,240,120,1.0,57.0
2681,70.0,120,120,2.0,58.0
2682,72.0,120,120,1.0,59.0
2683,63.0,0,156,5.0,59.0
2684,70.0,120,120,2.0,60.0
2685,73.0,120,120,1.0,61.0
2686,65.0,0,156,5.0,61.0
2687,70.0,120,120,2.0,61.0
2688,74.0,120,120,1.0,62.0
2689,68.0,0,156,5.0,62.0
2690,70.0,120,120,2.0,63.0
2691,75.0,0,120,1.0,64.0
2692,67.0,120,156,5.0,64.0
2693,70.0,120,120,2.0,65.0
2694,77.0,0,120,1.0,65.0
2695,62.0,120,156,5.0,65.0
2696,70.0,120,120,2.0,66.0
2697,79.0,120,120,1.0,67.0
2698,63.0,0,156,5.0,67.0
2699,51.0,240,120,5.0,44.0
2700,67.0,240,120,2.0,40.0
2701,73.0,0,120,1.0,40.0
2702,51.0,240,720,5.0,45.0
2703,63.0,240,120,5.0,47.0
2704,67.0,0,720,2.0,41.0
2705,73.0,240,720,1.0,41.0
2706,72.0,0,120,1.0,44.0
2707,68.0,240,120,2.0,44.0
2708,63.0,240,720,5.0,48.0
2709,39.0,0,120,5.0,66.0
2710,51.0,240,120,5.0,66.0
2711,68.0,240,720,2.0,45.0
2712,72.0,0,720,1.0,45.0
2713,66.0,240,120,2.0,61.0
2714,70.0,0,120,1.0,61.0
2715,39.0,0,720,5.0,67.0
2716,51.0,240,0,5.0,70.0
2717,63.0,0,120,5.0,70.0
2718,70.0,0,720,1.0,62.0
2719,66.0,240,720,2.0,62.0
2720,65.0,0,120,2.0,64.0
2721,69.0,240,120,1.0,64.0
2722,63.0,0,720,5.0,71.0
2723,51.0,240,720,5.0,71.0
2724,53.0,240,120,5.0,48.0
2725,69.0,240,720,1.0,65.0
2726,65.0,0,720,2.0,65.0
2727,70.0,240,120,2.0,45.0
2728,75.0,0,120,1.0,45.0
2729,53.0,240,720,5.0,50.0
2730,65.0,240,120,5.0,55.0
2731,70.0,0,0,2.0,51.0
2732,75.0,0,720,1.0,47.0
2733,73.0,240,120,1.0,51.0
2734,65.0,240,720,5.0,56.0
2735,53.0,0,120,5.0,72.0
2736,41.0,240,120,5.0,72.0
2737,70.0,240,720,2.0,53.0
2738,73.0,0,720,1.0,53.0
2739,68.0,0,120,2.0,67.0
2740,72.0,240,120,1.0,67.0
2741,41.0,0,720,5.0,73.0
2742,53.0,240,720,5.0,73.0
2743,65.0,0,120,5.0,77.0
2744,53.0,240,120,5.0,77.0
2745,68.0,240,720,2.0,68.0
2746,72.0,0,720,1.0,68.0
2747,67.0,240,120,2.0,71.0
2748,71.0,0,120,1.0,71.0
2749,67.0,240,120,2.0,71.0
2750,71.0,0,120,1.0,71.0
2751,53.0,0,720,5.0,78.0
2752,65.0,240,0,5.0,72.0
2753,71.0,0,120,1.0,72.0
2754,67.0,120,120,3.0,73.0
2755,63.0,120,180,5.0,73.0
2756,67.0,120,120,3.0,74.0
2757,72.0,0,240,1.0,73.0
2758,62.0,0,180,5.0,74.0
2759,67.0,120,120,3.0,74.0
2760,74.0,120,240,1.0,74.0
2761,60.0,120,180,5.0,75.0
2762,67.0,120,120,3.0,75.0
2763,75.0,0,240,1.0,75.0
2764,59.0,120,180,5.0,76.0
2765,67.0,120,120,3.0,76.0
2766,77.0,0,240,1.0,76.0
2767,75.0,120,60,1.0,76.0
2768,77.0,60,60,1.0,77.0
2769,60.0,0,180,5.0,76.0
2770,75.0,60,83,1.0,77.0
2771,67.0,0,120,3.0,77.0
2772,74.0,120,120,1.0,77.0
2773,62.0,0,180,5.0,77.0
2774,67.0,120,120,3.0,78.0
2775,72.0,120,120,1.0,78.0
2776,63.0,0,180,5.0,78.0
2777,67.0,120,120,3.0,79.0
2778,71.0,0,120,1.0,79.0
2779,65.0,120,180,5.0,79.0
2780,67.0,120,101,3.0,79.0
2781,63.0,120,180,5.0,80.0
2782,72.0,0,240,1.0,80.0
2783,67.0,120,120,3.0,80.0
2784,62.0,0,180,5.0,81.0
2785,74.0,120,240,1.0,81.0
2786,67.0,120,120,3.0,81.0
2787,60.0,120,180,5.0,81.0
2788,75.0,0,240,1.0,81.0
2789,67.0,120,120,3.0,82.0
2790,59.0,120,180,5.0,82.0
2791,77.0,0,218,1.0,82.0
2792,67.0,120,101,3.0,83.0
2793,75.0,120,120,1.0,84.0
2794,60.0,0,180,5.0,84.0
2795,56.0,0,120,5.0,76.0
2796,68.0,0,120,5.0,76.0
2797,78.0,0,120,2.0,76.0
2798,84.0,240,120,1.0,76.0
2799,83.0,0,120,1.0,69.0
2800,79.0,0,120,2.0,69.0
2801,67.0,240,120,5.0,69.0
2802,55.0,0,120,5.0,69.0
2803,54.0,0,240,5.0,60.0
2804,72.0,480,240,1.0,60.0
2805,71.0,0,120,1.0,57.0
2806,55.0,240,240,5.0,57.0
2807,56.0,240,240,5.0,55.0
2808,71.0,0,120,1.0,51.0
2809,55.0,240,240,5.0,52.0
2810,54.0,240,240,5.0,49.0
2811,71.0,0,240,1.0,48.0
2812,70.0,0,120,1.0,45.0
2813,55.0,240,240,5.0,47.0
2814,56.0,240,240,5.0,44.0
2815,70.0,240,120,1.0,39.0
2816,62.0,0,1920,4.0,60.0
2817,63.0,0,240,4.0,46.0
2818,55.0,0,240,5.0,46.0
2819,67.0,240,156,4.0,47.0
2820,63.0,0,156,5.0,47.0
2821,70.0,240,720,1.0,46.0
2822,67.0,240,313,4.0,47.0
2823,63.0,0,313,5.0,47.0
2824,82.0,240,120,1.0,48.0
2825,62.0,0,156,5.0,49.0
2826,65.0,240,156,4.0,49.0
2827,82.0,240,720,1.0,53.0
2828,65.0,0,313,4.0,50.0
2829,62.0,240,313,5.0,50.0
2830,80.0,240,120,1.0,51.0
2831,80.0,0,120,1.0,56.0
2832,63.0,240,156,5.0,53.0
2833,79.0,120,120,1.0,55.0
2834,77.0,120,120,1.0,54.0
2835,55.0,0,156,5.0,51.0
2836,75.0,120,101,1.0,53.0
2837,72.0,0,120,1.0,52.0
2838,56.0,120,156,5.0,49.0
2839,75.0,120,120,1.0,51.0
2840,74.0,120,120,1.0,50.0
2841,58.0,0,156,5.0,48.0
2842,77.0,120,101,1.0,49.0
2843,75.0,120,120,1.0,48.0
2844,60.0,0,156,5.0,46.0
2845,79.0,120,120,1.0,47.0
2846,77.0,120,120,1.0,46.0
2847,62.0,0,156,5.0,44.0
2848,80.0,120,98,1.0,45.0
2849,79.0,120,120,1.0,44.0
2850,63.0,0,156,5.0,43.0
2851,70.0,240,120,1.0,66.0
2852,67.0,0,156,4.0,67.0
2853,63.0,240,156,5.0,67.0
2854,63.0,240,156,5.0,68.0
2855,67.0,0,156,4.0,68.0
2856,70.0,240,720,1.0,70.0
2857,82.0,240,120,1.0,69.0
2858,65.0,240,156,4.0,71.0
2859,62.0,0,156,5.0,71.0
2860,65.0,240,156,4.0,71.0
2861,62.0,0,156,5.0,71.0
2862,82.0,240,720,1.0,74.0
2863,80.0,240,120,1.0,72.0
2864,80.0,0,120,1.0,76.0
2865,63.0,240,156,5.0,74.0
2866,79.0,120,120,1.0,75.0
2867,77.0,120,120,1.0,73.0
2868,67.0,0,156,5.0,72.0
2869,70.0,0,156,4.0,72.0
2870,75.0,120,100,1.0,71.0
2871,80.0,0,120,1.0,69.0
2872,74.0,0,120,2.0,69.0
2873,65.0,0,156,5.0,70.0
2874,70.0,120,156,4.0,70.0
2875,79.0,240,120,1.0,66.0
2876,75.0,0,120,2.0,66.0
2877,70.0,0,156,4.0,67.0
2878,63.0,0,156,5.0,67.0
2879,58.0,240,156,5.0,65.0
2880,75.0,0,240,2.0,62.0
2881,79.0,0,240,1.0,62.0
2882,77.0,0,120,1.0,54.0
2883,74.0,240,120,2.0,54.0
2884,70.0,0,156,4.0,54.0
2885,58.0,240,240,5.0,40.0
2886,70.0,240,120,1.0,40.0
2887,69.0,240,131,1.0,42.0
2888,58.0,120,120,3.0,44.0
2889,55.0,120,120,3.0,46.0
2890,51.0,0,360,4.0,42.0
2891,58.0,120,120,3.0,47.0
2892,70.0,0,360,1.0,44.0
2893,58.0,120,120,3.0,51.0
2894,70.0,0,40,1.0,52.0
2895,72.0,40,40,1.0,54.0
2896,51.0,120,360,4.0,49.0
2897,70.0,40,40,1.0,55.0
2898,55.0,120,120,3.0,52.0
2899,69.0,40,60,1.0,57.0
2900,70.0,60,60,1.0,60.0
2901,58.0,0,120,3.0,57.0
2902,58.0,120,120,3.0,65.0
2903,50.0,0,360,4.0,69.0
2904,80.0,60,360,1.0,69.0
2905,53.0,120,120,3.0,62.0
2906,58.0,120,120,3.0,58.0
2907,77.0,0,120,1.0,58.0
2908,74.0,0,120,1.0,54.0
2909,58.0,120,120,3.0,50.0
2910,50.0,120,360,4.0,54.0
2911,53.0,0,120,3.0,47.0
2912,68.0,120,120,1.0,47.0
2913,58.0,120,120,3.0,43.0
2914,67.0,0,131,1.0,42.0
2915,58.0,120,120,3.0,44.0
2916,51.0,120,360,4.0,42.0
2917,55.0,120,120,3.0,47.0
2918,58.0,120,120,3.0,49.0
2919,70.0,0,360,1.0,44.0
2920,58.0,120,120,3.0,55.0
2921,70.0,0,40,1.0,57.0
2922,72.0,40,40,1.0,59.0
2923,51.0,120,360,4.0,52.0
2924,70.0,40,40,1.0,61.0
2925,55.0,120,120,3.0,57.0
2926,69.0,0,60,1.0,63.0
2927,70.0,60,60,1.0,66.0
2928,58.0,40,120,3.0,63.0
2929,58.0,120,120,3.0,71.0
2930,80.0,60,360,1.0,73.0
2931,50.0,0,360,4.0,73.0
2932,53.0,120,120,3.0,69.0
2933,77.0,120,120,1.0,66.0
2934,58.0,0,120,3.0,66.0
2935,74.0,120,120,1.0,64.0
2936,58.0,120,120,3.0,61.0
2937,68.0,0,40,1.0,59.0
2938,70.0,40,40,1.0,58.0
2939,50.0,0,360,4.0,64.0
2940,53.0,120,120,3.0,59.0
2941,68.0,40,40,1.0,57.0
2942,67.0,40,60,1.0,57.0
2943,68.0,60,60,1.0,55.0
2944,58.0,0,120,3.0,57.0
2945,67.0,60,120,1.0,56.0
2946,70.0,120,120,1.0,58.0
2947,75.0,120,120,1.0,61.0
2948,79.0,120,101,1.0,64.0
2949,51.0,0,480,5.0,56.0
2950,82.0,120,120,1.0,67.0
2951,79.0,120,120,1.0,70.0
2952,75.0,120,120,1.0,73.0
2953,70.0,120,109,1.0,76.0
2954,55.0,0,480,5.0,67.0
2955,72.0,120,120,1.0,79.0
2956,84.0,120,120,1.0,77.0
2957,83.0,120,120,1.0,75.0
2958,56.0,0,480,5.0,79.0
2959,84.0,120,120,1.0,73.0
2960,79.0,120,120,1.0,70.0
2961,80.0,120,120,1.0,68.0
2962,76.0,120,120,1.0,66.0
2963,56.0,0,156,5.0,66.0
2964,68.0,0,156,4.0,66.0
2965,77.0,120,101,1.0,64.0
2966,75.0,120,240,1.0,62.0
2967,67.0,0,240,4.0,62.0
2968,58.0,0,394,5.0,62.0
2969,74.0,240,158,1.0,53.0
2970,65.0,0,158,4.0,53.0
2971,58.0,240,120,5.0,47.0
2972,60.0,120,120,5.0,44.0
2973,56.0,120,120,5.0,42.0
2974,58.0,120,98,5.0,39.0
2975,82.0,240,240,1.0,37.0
2976,55.0,120,480,5.0,37.0
2977,80.0,240,240,1.0,38.0
2978,67.0,240,156,5.0,39.0
2979,70.0,0,156,4.0,39.0
2980,79.0,0,199,1.0,39.0
2981,68.0,0,313,5.0,40.0
2982,72.0,240,313,4.0,40.0
2983,76.0,240,120,1.0,42.0
2984,76.0,240,240,1.0,43.0
2985,77.0,240,120,1.0,44.0
2986,72.0,0,156,4.0,44.0
2987,68.0,0,156,5.0,44.0
2988,70.0,0,313,5.0,45.0
2989,74.0,240,313,4.0,45.0
2990,84.0,240,240,1.0,47.0
2991,82.0,240,240,1.0,48.0
2992,74.0,0,156,4.0,49.0
2993,70.0,0,156,5.0,49.0
2994,80.0,240,203,1.0,49.0
2995,75.0,240,313,4.0,51.0
2996,72.0,0,313,5.0,51.0
2997,78.0,240,120,1.0,52.0
2998,78.0,240,240,1.0,53.0
2999,79.0,0,120,1.0,54.0
3000,75.0,240,156,4.0,54.0
3001,72.0,0,156,5.0,54.0
3002,51.0,40,120,3.0,65.0
3003,46.0,120,120,3.0,65.0
3004,43.0,240,360,4.0,65.0
3005,51.0,120,120,3.0,64.0
3006,51.0,120,120,3.0,63.0
3007,43.0,120,360,4.0,64.0
3008,46.0,120,120,3.0,63.0
3009,63.0,0,915,2.0,65.0
3010,67.0,40,879,2.0,65.0
3011,70.0,40,839,2.0,65.0
3012,75.0,0,799,1.0,65.0
3013,51.0,120,120,3.0,62.0
3014,53.0,0,120,3.0,62.0
3015,48.0,120,120,3.0,61.0
3016,44.0,120,360,4.0,62.0
3017,53.0,120,120,3.0,61.0
3018,53.0,120,120,3.0,60.0
3019,44.0,120,360,4.0,60.0
3020,48.0,120,120,3.0,59.0
3021,60.0,0,870,2.0,62.0
3022,68.0,40,794,2.0,62.0
3023,65.0,40,838,2.0,62.0
3024,72.0,40,758,1.0,62.0
3025,53.0,120,120,3.0,59.0
3026,72.0,120,120,1.0,59.0
3027,70.0,120,120,1.0,58.0
3028,55.0,0,120,3.0,58.0
3029,46.0,0,360,4.0,59.0
3030,68.0,120,120,1.0,58.0
3031,51.0,0,120,3.0,58.0
3032,67.0,120,101,1.0,57.0
3033,55.0,0,105,3.0,57.0
3034,67.0,120,120,1.0,57.0
3035,56.0,0,120,3.0,56.0
3036,65.0,120,120,1.0,56.0
3037,63.0,0,120,1.0,56.0
3038,46.0,0,360,4.0,57.0
3039,53.0,120,120,3.0,56.0
3040,62.0,120,101,1.0,56.0
3041,56.0,0,101,3.0,56.0
3042,65.0,0,120,1.0,55.0
3043,63.0,120,120,1.0,55.0
3044,67.0,120,120,1.0,54.0
3045,65.0,120,120,1.0,54.0
3046,51.0,0,480,4.0,55.0
3047,55.0,120,480,4.0,55.0
3048,68.0,120,120,1.0,54.0
3049,67.0,120,120,1.0,53.0
3050,70.0,120,120,1.0,53.0
3051,68.0,120,101,1.0,52.0
3052,72.0,120,240,1.0,52.0
3053,70.0,240,480,1.0,53.0
3054,58.0,0,313,4.0,55.0
3055,55.0,240,313,5.0,55.0
3056,67.0,240,199,1.0,57.0
3057,64.0,240,240,1.0,59.0
3058,67.0,240,480,1.0,61.0
3059,56.0,240,313,5.0,63.0
3060,60.0,0,313,4.0,63.0
3061,65.0,240,203,1.0,65.0
3062,71.0,240,240,1.0,67.0
3063,72.0,240,480,1.0,69.0
3064,62.0,240,313,4.0,71.0
3065,58.0,0,313,5.0,71.0
3066,68.0,240,195,1.0,73.0
3067,66.0,240,240,1.0,75.0
3068,68.0,240,480,1.0,77.0
3069,60.0,0,313,5.0,79.0
3070,63.0,240,313,4.0,79.0
3071,67.0,240,199,1.0,81.0
3072,51.0,0,120,3.0,85.0
3073,43.0,240,360,4.0,85.0
3074,46.0,120,120,3.0,84.0
3075,51.0,120,120,3.0,84.0
3076,51.0,120,120,3.0,83.0
3077,46.0,120,120,3.0,82.0
3078,43.0,120,360,4.0,83.0
3079,63.0,0,911,2.0,85.0
3080,75.0,40,795,1.0,85.0
3081,67.0,40,879,2.0,85.0
3082,70.0,40,843,2.0,85.0
3083,51.0,120,120,3.0,82.0
3084,53.0,40,120,3.0,81.0
3085,48.0,120,120,3.0,80.0
3086,44.0,0,360,4.0,81.0
3087,53.0,120,120,3.0,80.0
3088,53.0,120,120,3.0,79.0
3089,48.0,120,120,3.0,79.0
3090,44.0,120,360,4.0,79.0
3091,60.0,120,915,2.0,81.0
3092,65.0,40,875,2.0,81.0
3093,68.0,40,835,2.0,81.0
3094,72.0,0,803,1.0,81.0
3095,53.0,120,120,3.0,78.0
3096,72.0,0,120,1.0,78.0
3097,55.0,120,120,3.0,77.0
3098,70.0,0,120,1.0,77.0
3099,46.0,120,360,4.0,78.0
3100,68.0,120,120,1.0,77.0
3101,51.0,0,120,3.0,77.0
3102,67.0,0,101,1.0,76.0
3103,55.0,120,120,3.0,76.0
3104,67.0,120,120,1.0,76.0
3105,56.0,120,120,3.0,75.0
3106,65.0,0,120,1.0,75.0
3107,53.0,120,120,3.0,75.0
3108,46.0,0,360,4.0,76.0
3109,63.0,0,120,1.0,75.0
3110,62.0,120,101,1.0,74.0
3111,56.0,0,120,3.0,74.0
3112,63.0,0,120,1.0,74.0
3113,75.0,120,120,1.0,74.0
3114,77.0,120,120,1.0,74.0
3115,48.0,0,480,4.0,74.0
3116,55.0,120,480,4.0,74.0
3117,79.0,120,120,1.0,75.0
3118,80.0,120,120,1.0,75.0
3119,82.0,120,120,1.0,75.0
3120,84.0,120,120,1.0,76.0
3121,86.0,120,98,1.0,76.0
3122,87.0,0,120,1.0,76.0
3123,63.0,120,120,3.0,77.0
3124,82.0,0,120,1.0,77.0
3125,58.0,120,120,3.0,77.0
3126,79.0,0,120,1.0,77.0
3127,55.0,120,360,4.0,76.0
3128,75.0,0,98,1.0,77.0
3129,63.0,120,120,3.0,77.0
3130,75.0,0,40,2.0,70.0
3131,77.0,40,40,2.0,71.0
3132,75.0,40,40,2.0,72.0
3133,77.0,0,40,2.0,72.0
3134,75.0,40,40,2.0,73.0
3135,63.0,40,120,3.0,78.0
3136,77.0,40,40,2.0,74.0
3137,75.0,0,40,2.0,74.0
3138,77.0,40,40,2.0,75.0
3139,55.0,120,360,4.0,78.0
3140,58.0,40,120,3.0,78.0
3141,75.0,40,40,2.0,76.0
3142,74.0,40,60,2.0,76.0
3143,75.0,60,60,2.0,77.0
3144,63.0,0,120,3.0,79.0
3145,72.0,0,120,1.0,78.0
3146,65.0,120,120,3.0,79.0
3147,77.0,0,120,1.0,79.0
3148,60.0,120,120,3.0,80.0
3149,80.0,0,120,1.0,80.0
3150,56.0,60,360,4.0,79.0
3151,84.0,0,105,1.0,80.0
3152,65.0,120,120,3.0,80.0
3153,84.0,0,40,2.0,73.0
3154,86.0,40,40,2.0,74.0
3155,84.0,40,40,2.0,74.0
3156,86.0,40,40,2.0,75.0
3157,84.0,40,40,2.0,76.0
3158,65.0,0,120,3.0,81.0
3159,86.0,40,40,2.0,77.0
3160,84.0,0,40,2.0,78.0
3161,86.0,40,40,2.0,78.0
3162,56.0,120,360,4.0,80.0
3163,84.0,40,40,2.0,79.0
3164,60.0,40,120,3.0,81.0
3165,83.0,40,60,2.0,80.0
3166,65.0,0,120,3.0,82.0
3167,84.0,60,60,2.0,81.0
3168,84.0,60,120,1.0,83.0
3169,82.0,120,120,1.0,82.0
3170,67.0,0,120,3.0,82.0
3171,63.0,120,120,3.0,83.0
3172,58.0,0,360,4.0,82.0
3173,80.0,0,120,1.0,83.0
3174,79.0,0,98,1.0,83.0
3175,67.0,120,120,3.0,83.0
3176,79.0,120,120,1.0,83.0
3177,68.0,0,120,3.0,84.0
3178,77.0,120,120,1.0,84.0
3179,75.0,0,120,1.0,84.0
3180,65.0,120,120,3.0,84.0
3181,58.0,0,360,4.0,83.0
3182,74.0,120,94,1.0,84.0
3183,68.0,0,120,3.0,84.0
3184,75.0,120,120,1.0,86.0
3185,77.0,120,120,1.0,86.0
3186,79.0,120,120,1.0,87.0
3187,63.0,0,480,4.0,86.0
3188,67.0,0,480,4.0,86.0
3189,80.0,120,120,1.0,87.0
3190,82.0,120,120,1.0,87.0
3191,84.0,120,120,1.0,88.0
3192,86.0,120,120,1.0,88.0
3193,87.0,120,98,1.0,89.0
3194,83.0,120,120,1.0,89.0
3195,84.0,120,120,1.0,88.0
3196,80.0,120,120,1.0,87.0
3197,68.0,0,156,5.0,87.0
3198,77.0,120,101,1.0,86.0
3199,79.0,0,120,1.0,85.0
3200,65.0,120,156,5.0,85.0
3201,80.0,120,120,1.0,84.0
3202,77.0,120,120,1.0,83.0
3203,70.0,0,156,5.0,83.0
3204,74.0,120,98,1.0,82.0
3205,75.0,0,120,1.0,81.0
3206,77.0,120,120,1.0,80.0
3207,79.0,120,120,1.0,79.0
3208,67.0,120,480,5.0,81.0
3209,80.0,120,120,1.0,78.0
3210,82.0,120,120,1.0,77.0
3211,79.0,120,120,1.0,76.0
3212,75.0,120,120,1.0,75.0
3213,70.0,120,101,1.0,74.0
3214,71.0,120,120,1.0,73.0
3215,72.0,120,120,1.0,72.0
3216,68.0,120,120,1.0,71.0
3217,56.0,0,156,5.0,71.0
3218,65.0,120,98,1.0,70.0
3219,67.0,120,120,1.0,69.0
3220,53.0,0,156,5.0,69.0
3221,68.0,120,120,1.0,68.0
3222,65.0,120,120,1.0,67.0
3223,58.0,0,156,5.0,67.0
3224,62.0,120,101,1.0,66.0
3225,63.0,0,120,1.0,72.0
3226,70.0,120,120,1.0,74.0
3227,69.0,120,120,1.0,75.0
3228,70.0,120,120,1.0,77.0
3229,51.0,120,480,5.0,72.0
3230,72.0,120,120,1.0,78.0
3231,70.0,120,120,1.0,80.0
3232,74.0,0,120,1.0,81.0
3233,65.0,0,156,4.0,81.0
3234,68.0,120,156,4.0,81.0
3235,58.0,0,156,5.0,81.0
3236,70.0,120,120,1.0,83.0
3237,75.0,0,120,1.0,84.0
3238,70.0,120,120,1.0,86.0
3239,67.0,120,313,4.0,84.0
3240,63.0,0,313,5.0,84.0
3241,69.0,120,120,1.0,87.0
3242,70.0,120,120,1.0,89.0
3243,72.0,120,120,1.0,90.0
3244,70.0,120,120,1.0,92.0
3245,74.0,0,120,1.0,93.0
3246,65.0,120,156,4.0,93.0
3247,68.0,0,156,4.0,93.0
3248,58.0,0,156,5.0,93.0
3249,70.0,120,98,1.0,95.0
3250,63.0,0,480,5.0,96.0
3251,75.0,120,480,1.0,96.0
3252,67.0,0,480,4.0,96.0
