,note,step,duration,channel,velocity
0,62.0,0,237,6.0,52.0
1,70.0,0,237,5.0,56.0
2,65.0,0,480,7.0,57.0
3,46.0,0,480,10.0,52.0
4,58.0,0,480,8.0,52.0
5,70.0,480,177,5.0,56.0
6,62.0,0,177,6.0,55.0
7,70.0,360,57,5.0,68.0
8,62.0,0,57,6.0,56.0
9,62.0,0,237,6.0,66.0
10,70.0,120,237,5.0,60.0
11,62.0,0,189,6.0,62.0
12,70.0,0,189,5.0,58.0
13,65.0,480,480,7.0,52.0
14,58.0,0,480,8.0,52.0
15,46.0,0,480,10.0,52.0
16,72.0,0,240,5.0,75.0
17,63.0,0,240,6.0,72.0
18,60.0,0,190,6.0,55.0
19,69.0,240,190,5.0,59.0
20,41.0,0,480,10.0,57.0
21,65.0,480,480,7.0,66.0
22,53.0,0,480,8.0,57.0
23,34.0,0,480,10.0,53.0
24,70.0,0,480,5.0,67.0
25,46.0,0,480,8.0,53.0
26,62.0,240,480,6.0,71.0
27,65.0,0,480,7.0,65.0
28,69.0,0,237,6.0,61.0
29,72.0,0,237,5.0,49.0
30,65.0,0,480,7.0,57.0
31,41.0,1440,480,10.0,50.0
32,53.0,0,480,8.0,50.0
33,69.0,480,177,6.0,63.0
34,72.0,0,177,5.0,62.0
35,72.0,0,57,5.0,65.0
36,69.0,360,57,6.0,59.0
37,72.0,0,237,5.0,51.0
38,69.0,120,237,6.0,68.0
39,69.0,0,189,6.0,55.0
40,72.0,480,189,5.0,60.0
41,65.0,0,0,7.0,59.0
42,53.0,0,480,8.0,53.0
43,41.0,0,480,10.0,53.0
44,67.0,0,240,6.0,56.0
45,70.0,480,240,5.0,60.0
46,69.0,240,120,6.0,59.0
47,72.0,0,120,5.0,58.0
48,74.0,0,120,5.0,70.0
49,70.0,120,120,6.0,67.0
50,58.0,0,480,8.0,63.0
51,46.0,0,480,10.0,63.0
52,65.0,0,0,7.0,61.0
53,72.0,0,381,5.0,56.0
54,69.0,0,381,6.0,59.0
55,53.0,0,480,8.0,50.0
56,41.0,120,480,10.0,50.0
57,58.0,240,117,6.0,52.0
58,58.0,0,480,7.0,49.0
59,34.0,1440,480,10.0,55.0
60,46.0,0,480,8.0,55.0
61,74.0,0,720,5.0,47.0
62,62.0,240,240,6.0,66.0
63,70.0,240,190,5.0,47.0
64,65.0,0,190,6.0,76.0
65,57.0,240,117,6.0,53.0
66,60.0,0,480,7.0,51.0
67,36.0,0,480,10.0,50.0
68,48.0,0,480,8.0,50.0
69,75.0,240,720,5.0,74.0
70,60.0,240,240,6.0,71.0
71,63.0,240,192,6.0,78.0
72,72.0,0,192,5.0,52.0
73,58.0,235,117,6.0,55.0
74,77.0,245,355,5.0,109.0
75,38.0,0,480,10.0,87.0
76,62.0,0,480,7.0,84.0
77,74.0,120,125,5.0,51.0
78,50.0,0,480,8.0,87.0
79,62.0,125,117,6.0,69.0
80,65.0,240,117,6.0,69.0
81,77.0,0,715,5.0,69.0
82,79.0,235,120,5.0,68.0
83,77.0,120,112,5.0,53.0
84,70.0,240,467,6.0,74.0
85,75.0,112,234,5.0,55.0
86,74.0,234,94,5.0,52.0
87,72.0,250,237,5.0,55.0
88,74.0,237,60,5.0,70.0
89,72.0,60,60,5.0,50.0
90,71.0,60,127,5.0,53.0
91,72.0,127,190,5.0,65.0
92,74.0,240,117,5.0,73.0
93,63.0,0,964,7.0,57.0
94,75.0,0,117,5.0,71.0
95,39.0,0,1433,10.0,60.0
96,51.0,0,1433,8.0,60.0
97,67.0,233,236,5.0,46.0
98,72.0,0,240,5.0,77.0
99,70.0,240,192,5.0,54.0
100,60.0,240,960,7.0,44.0
101,52.0,0,491,8.0,61.0
102,67.0,0,1924,6.0,57.0
103,40.0,236,491,10.0,61.0
104,70.0,247,237,5.0,61.0
105,65.0,0,473,6.0,51.0
106,41.0,4,473,10.0,57.0
107,60.0,0,473,7.0,63.0
108,53.0,0,473,8.0,57.0
109,69.0,233,240,5.0,57.0
110,67.0,240,240,5.0,52.0
111,65.0,240,243,5.0,47.0
112,66.0,243,244,5.0,67.0
113,67.0,244,241,5.0,65.0
114,68.0,241,245,5.0,64.0
115,69.0,245,192,5.0,69.0
116,82.0,235,239,0.0,55.0
117,62.0,0,237,1.0,53.0
118,70.0,0,237,1.0,53.0
119,58.0,0,0,3.0,53.0
120,65.0,0,0,3.0,53.0
121,70.0,4,477,5.0,70.0
122,82.0,476,179,0.0,51.0
123,62.0,1,179,1.0,60.0
124,70.0,0,179,1.0,60.0
125,58.0,0,0,3.0,59.0
126,65.0,2,0,3.0,59.0
127,82.0,358,57,0.0,66.0
128,62.0,0,59,1.0,62.0
129,70.0,0,59,1.0,62.0
130,58.0,0,956,2.0,58.0
131,50.0,0,956,2.0,58.0
132,82.0,118,237,0.0,59.0
133,62.0,0,239,1.0,58.0
134,70.0,1,239,1.0,58.0
135,65.0,0,479,3.0,59.0
136,58.0,0,479,3.0,59.0
137,82.0,0,237,0.0,56.0
138,70.0,0,237,1.0,53.0
139,62.0,0,237,1.0,53.0
140,58.0,0,480,3.0,68.0
141,58.0,0,480,2.0,51.0
142,46.0,479,480,2.0,51.0
143,65.0,0,0,3.0,62.0
144,84.0,0,240,0.0,68.0
145,72.0,0,240,1.0,61.0
146,81.0,0,240,0.0,50.0
147,53.0,480,480,3.0,62.0
148,65.0,0,0,3.0,61.0
149,41.0,0,480,2.0,50.0
150,69.0,240,240,1.0,61.0
151,63.0,0,480,1.0,52.0
152,53.0,0,480,2.0,50.0
153,58.0,0,480,3.0,61.0
154,70.0,0,480,1.0,58.0
155,62.0,0,480,1.0,58.0
156,46.0,0,480,2.0,66.0
157,58.0,0,480,2.0,66.0
158,82.0,0,480,0.0,63.0
159,58.0,0,960,6.0,60.0
160,70.0,240,960,5.0,55.0
161,71.0,0,381,5.0,65.0
162,59.0,960,381,6.0,62.0
163,72.0,0,237,1.0,59.0
164,84.0,0,237,0.0,44.0
165,69.0,0,237,1.0,59.0
166,65.0,0,0,3.0,64.0
167,72.0,0,480,5.0,71.0
168,60.0,480,480,6.0,65.0
169,69.0,480,177,1.0,60.0
170,72.0,0,177,1.0,60.0
171,84.0,0,177,0.0,66.0
172,65.0,360,0,3.0,58.0
173,72.0,0,57,1.0,62.0
174,84.0,0,57,0.0,71.0
175,69.0,0,57,1.0,62.0
176,53.0,0,960,3.0,65.0
177,41.0,0,960,2.0,51.0
178,53.0,0,960,2.0,51.0
179,84.0,0,237,0.0,60.0
180,72.0,0,237,1.0,60.0
181,69.0,120,237,1.0,60.0
182,65.0,0,480,3.0,65.0
183,72.0,0,237,1.0,58.0
184,69.0,480,237,1.0,58.0
185,84.0,0,237,0.0,57.0
186,53.0,0,480,3.0,71.0
187,65.0,0,480,3.0,61.0
188,41.0,0,480,2.0,56.0
189,53.0,0,480,2.0,56.0
190,67.0,0,240,1.0,53.0
191,70.0,0,240,1.0,53.0
192,82.0,0,240,0.0,54.0
193,69.0,0,120,1.0,69.0
194,72.0,240,120,1.0,69.0
195,84.0,0,120,0.0,62.0
196,58.0,0,480,2.0,68.0
197,46.0,0,480,2.0,68.0
198,74.0,0,120,1.0,71.0
199,86.0,0,120,0.0,66.0
200,65.0,120,0,3.0,53.0
201,53.0,480,480,3.0,64.0
202,70.0,120,120,1.0,71.0
203,53.0,0,480,3.0,53.0
204,53.0,0,480,2.0,55.0
205,84.0,0,480,0.0,57.0
206,72.0,0,480,1.0,51.0
207,69.0,0,480,1.0,51.0
208,41.0,0,480,2.0,55.0
209,72.0,0,960,5.0,55.0
210,60.0,0,960,6.0,51.0
211,73.0,960,381,5.0,70.0
212,61.0,0,381,6.0,64.0
213,74.0,480,117,5.0,70.0
214,62.0,0,240,6.0,76.0
215,58.0,0,190,6.0,54.0
216,34.0,0,480,10.0,50.0
217,46.0,0,480,8.0,50.0
218,62.0,240,117,6.0,73.0
219,74.0,240,480,5.0,56.0
220,65.0,240,117,6.0,74.0
221,70.0,0,190,5.0,44.0
222,75.0,0,117,5.0,73.0
223,48.0,240,480,8.0,58.0
224,57.0,0,240,6.0,57.0
225,36.0,0,480,10.0,58.0
226,75.0,240,480,5.0,62.0
227,60.0,240,240,6.0,70.0
228,63.0,0,190,6.0,78.0
229,72.0,240,190,5.0,51.0
230,77.0,0,240,5.0,75.0
231,74.0,240,190,5.0,55.0
232,65.0,0,2400,7.0,55.0
233,50.0,0,480,8.0,52.0
234,38.0,240,480,10.0,52.0
235,58.0,0,480,6.0,55.0
236,82.0,240,117,5.0,76.0
237,82.0,240,117,5.0,67.0
238,72.0,0,250,5.0,42.0
239,75.0,250,198,5.0,63.0
240,39.0,0,501,10.0,55.0
241,63.0,0,501,7.0,57.0
242,67.0,0,501,6.0,55.0
243,51.0,240,501,8.0,55.0
244,79.0,251,119,5.0,76.0
245,79.0,247,117,5.0,67.0
246,53.0,240,0,8.0,50.0
247,41.0,0,0,10.0,50.0
248,41.0,237,0,10.0,69.0
249,53.0,0,236,8.0,69.0
250,53.0,236,236,8.0,61.0
251,41.0,0,0,10.0,67.0
252,62.0,0,1425,6.0,55.0
253,70.0,0,1425,5.0,45.0
254,53.0,236,240,8.0,67.0
255,41.0,0,0,10.0,56.0
256,53.0,239,0,8.0,60.0
257,69.0,0,239,5.0,55.0
258,63.0,240,239,6.0,64.0
259,60.0,0,190,6.0,48.0
260,75.0,0,190,5.0,81.0
261,41.0,0,240,10.0,60.0
262,74.0,236,162,5.0,54.0
263,77.0,158,160,5.0,79.0
264,82.0,160,130,5.0,79.0
265,58.0,0,484,6.0,55.0
266,58.0,4,480,8.0,71.0
267,46.0,0,480,10.0,71.0
268,65.0,228,2384,7.0,55.0
269,82.0,162,78,5.0,60.0
270,82.0,162,79,5.0,64.0
271,82.0,159,79,5.0,62.0
272,72.0,0,157,5.0,45.0
273,75.0,157,160,5.0,70.0
274,79.0,160,123,5.0,75.0
275,51.0,160,475,8.0,58.0
276,39.0,0,475,10.0,58.0
277,63.0,0,475,7.0,54.0
278,67.0,0,475,6.0,51.0
279,79.0,158,78,5.0,60.0
280,79.0,158,79,5.0,61.0
281,79.0,160,79,5.0,70.0
282,62.0,163,479,6.0,51.0
283,41.0,239,240,10.0,53.0
284,70.0,0,479,5.0,48.0
285,53.0,0,240,8.0,53.0
286,41.0,0,244,10.0,60.0
287,53.0,244,0,8.0,63.0
288,53.0,240,0,8.0,59.0
289,41.0,0,240,10.0,63.0
290,74.0,0,724,5.0,73.0
291,41.0,0,0,10.0,58.0
292,58.0,240,724,6.0,41.0
293,53.0,240,0,8.0,58.0
294,62.0,0,240,6.0,78.0
295,41.0,0,0,10.0,55.0
296,77.0,0,240,5.0,75.0
297,75.0,0,240,5.0,58.0
298,53.0,0,0,8.0,54.0
299,60.0,0,240,6.0,61.0
300,72.0,240,240,5.0,48.0
301,41.0,0,240,10.0,54.0
302,65.0,0,1923,7.0,58.0
303,57.0,0,240,6.0,51.0
304,46.0,0,117,10.0,108.0
305,58.0,0,117,7.0,81.0
306,58.0,0,117,8.0,108.0
307,53.0,0,117,8.0,94.0
308,41.0,0,117,10.0,94.0
309,53.0,240,117,7.0,85.0
310,82.0,0,480,0.0,73.0
311,70.0,0,480,3.0,74.0
312,58.0,0,480,3.0,74.0
313,58.0,240,117,7.0,110.0
314,46.0,0,117,10.0,101.0
315,58.0,0,117,8.0,101.0
316,53.0,240,117,8.0,92.0
317,41.0,0,117,10.0,92.0
318,53.0,0,117,7.0,86.0
319,65.0,0,360,3.0,55.0
320,53.0,0,360,3.0,55.0
321,62.0,240,960,5.0,83.0
322,65.0,0,120,3.0,79.0
323,53.0,120,120,3.0,79.0
324,70.0,0,960,5.0,83.0
325,46.0,0,960,2.0,72.0
326,58.0,0,960,6.0,99.0
327,77.0,0,480,0.0,62.0
328,58.0,120,117,7.0,104.0
329,46.0,0,117,10.0,105.0
330,58.0,0,117,8.0,105.0
331,82.0,240,117,5.0,92.0
332,70.0,0,117,6.0,89.0
333,41.0,0,117,10.0,87.0
334,53.0,0,117,8.0,87.0
335,53.0,0,117,7.0,92.0
336,53.0,0,480,3.0,81.0
337,82.0,0,480,0.0,94.0
338,65.0,0,0,3.0,74.0
339,82.0,0,117,5.0,94.0
340,58.0,0,117,8.0,107.0
341,70.0,240,117,6.0,95.0
342,46.0,0,117,10.0,107.0
343,58.0,0,117,7.0,102.0
344,82.0,0,117,5.0,102.0
345,70.0,0,117,6.0,101.0
346,53.0,0,117,8.0,92.0
347,41.0,240,117,10.0,92.0
348,53.0,0,117,7.0,86.0
349,58.0,0,480,2.0,72.0
350,86.0,0,480,0.0,102.0
351,65.0,0,0,3.0,81.0
352,53.0,0,480,3.0,74.0
353,82.0,0,60,5.0,95.0
354,70.0,0,60,6.0,91.0
355,60.0,0,117,7.0,126.0
356,60.0,0,117,8.0,107.0
357,48.0,0,117,10.0,107.0
358,72.0,0,60,6.0,112.0
359,84.0,60,60,5.0,110.0
360,82.0,0,120,5.0,93.0
361,70.0,60,120,6.0,90.0
362,53.0,120,117,7.0,87.0
363,53.0,0,117,8.0,78.0
364,41.0,0,117,10.0,78.0
365,81.0,0,240,5.0,90.0
366,69.0,0,0,6.0,101.0
367,60.0,0,117,8.0,106.0
368,60.0,0,117,7.0,126.0
369,48.0,240,117,10.0,106.0
370,53.0,240,117,7.0,93.0
371,53.0,0,117,8.0,80.0
372,41.0,0,117,10.0,80.0
373,48.0,0,117,10.0,112.0
374,60.0,0,117,7.0,126.0
375,60.0,240,117,8.0,112.0
376,53.0,0,117,7.0,89.0
377,41.0,0,117,10.0,77.0
378,53.0,240,117,8.0,77.0
379,81.0,0,960,5.0,90.0
380,63.0,0,1440,2.0,96.0
381,58.0,0,117,8.0,105.0
382,58.0,240,117,7.0,107.0
383,46.0,0,117,10.0,105.0
384,53.0,0,117,7.0,87.0
385,41.0,240,117,10.0,83.0
386,53.0,0,117,8.0,83.0
387,62.0,0,360,2.0,71.0
388,70.0,0,480,1.0,74.0
389,70.0,0,480,6.0,105.0
390,58.0,120,120,2.0,74.0
391,82.0,0,480,5.0,111.0
392,57.0,120,117,7.0,108.0
393,57.0,0,117,8.0,109.0
394,45.0,0,117,10.0,109.0
395,83.0,0,240,5.0,110.0
396,71.0,0,240,6.0,111.0
397,41.0,0,117,10.0,87.0
398,53.0,0,117,8.0,87.0
399,53.0,0,117,7.0,83.0
400,72.0,240,240,6.0,112.0
401,84.0,0,240,5.0,110.0
402,57.0,0,480,2.0,79.0
403,57.0,0,117,7.0,107.0
404,57.0,0,117,8.0,99.0
405,45.0,240,117,10.0,99.0
406,41.0,240,117,10.0,93.0
407,53.0,0,117,8.0,93.0
408,53.0,0,117,7.0,86.0
409,75.0,0,960,1.0,104.0
410,60.0,0,480,2.0,100.0
411,45.0,0,117,10.0,107.0
412,57.0,0,117,8.0,107.0
413,57.0,0,117,7.0,105.0
414,84.0,0,720,5.0,104.0
415,72.0,0,0,6.0,100.0
416,41.0,0,117,10.0,87.0
417,84.0,240,117,5.0,103.0
418,53.0,0,117,7.0,101.0
419,53.0,0,117,8.0,87.0
420,72.0,0,480,1.0,75.0
421,57.0,240,480,2.0,84.0
422,84.0,0,117,5.0,93.0
423,72.0,0,117,6.0,98.0
424,45.0,240,117,10.0,110.0
425,57.0,0,117,7.0,106.0
426,57.0,0,117,8.0,110.0
427,53.0,0,117,8.0,89.0
428,84.0,240,117,5.0,96.0
429,41.0,0,117,10.0,89.0
430,72.0,0,117,6.0,97.0
431,53.0,0,117,7.0,89.0
432,53.0,0,3840,3.0,81.0
433,69.0,0,480,1.0,60.0
434,53.0,0,480,2.0,72.0
435,46.0,0,117,10.0,106.0
436,58.0,0,117,7.0,106.0
437,58.0,240,117,8.0,106.0
438,72.0,0,240,6.0,112.0
439,84.0,0,240,5.0,93.0
440,41.0,240,117,10.0,92.0
441,53.0,0,117,8.0,92.0
442,53.0,0,117,7.0,88.0
443,86.0,0,240,5.0,114.0
444,50.0,0,480,2.0,72.0
445,74.0,0,240,6.0,110.0
446,70.0,0,480,3.0,109.0
447,58.0,0,480,3.0,109.0
448,46.0,0,117,10.0,110.0
449,58.0,0,117,7.0,110.0
450,58.0,0,117,8.0,110.0
451,41.0,0,117,10.0,90.0
452,53.0,240,117,7.0,88.0
453,53.0,0,117,8.0,90.0
454,65.0,0,360,3.0,69.0
455,53.0,120,0,3.0,77.0
456,82.0,240,480,5.0,76.0
457,53.0,0,480,2.0,86.0
458,41.0,0,480,2.0,86.0
459,70.0,0,480,6.0,74.0
460,89.0,240,4800,0.0,101.0
461,77.0,0,960,1.0,114.0
462,65.0,0,0,3.0,79.0
463,58.0,0,117,7.0,109.0
464,46.0,120,117,10.0,101.0
465,58.0,0,117,8.0,101.0
466,53.0,240,117,7.0,85.0
467,70.0,0,117,6.0,85.0
468,41.0,0,117,10.0,88.0
469,82.0,0,117,5.0,88.0
470,53.0,0,117,8.0,88.0
471,74.0,0,480,1.0,77.0
472,46.0,0,480,2.0,92.0
473,86.0,0,480,0.0,74.0
474,65.0,0,0,3.0,94.0
475,58.0,0,480,2.0,92.0
476,53.0,0,0,3.0,94.0
477,70.0,0,117,6.0,89.0
478,46.0,0,117,10.0,110.0
479,58.0,0,117,7.0,108.0
480,58.0,0,117,8.0,110.0
481,82.0,0,117,5.0,93.0
482,53.0,0,117,8.0,80.0
483,82.0,0,117,5.0,97.0
484,41.0,0,117,10.0,80.0
485,53.0,240,117,7.0,89.0
486,70.0,0,117,6.0,99.0
487,62.0,0,480,2.0,106.0
488,70.0,240,480,1.0,60.0
489,50.0,0,480,2.0,106.0
490,65.0,0,0,3.0,79.0
491,53.0,240,0,3.0,79.0
492,82.0,0,480,0.0,57.0
493,82.0,0,60,5.0,95.0
494,70.0,0,60,6.0,97.0
495,60.0,0,117,8.0,112.0
496,48.0,0,117,10.0,112.0
497,60.0,0,117,7.0,124.0
498,84.0,60,60,5.0,111.0
499,72.0,0,60,6.0,109.0
500,82.0,60,120,5.0,83.0
501,70.0,0,120,6.0,94.0
502,41.0,0,117,10.0,89.0
503,53.0,0,117,7.0,85.0
504,53.0,120,117,8.0,89.0
505,81.0,0,0,5.0,94.0
506,69.0,0,0,6.0,92.0
507,60.0,0,117,8.0,111.0
508,48.0,0,117,10.0,111.0
509,60.0,240,117,7.0,126.0
510,53.0,0,117,7.0,85.0
511,53.0,240,117,8.0,83.0
512,41.0,0,117,10.0,83.0
513,60.0,240,117,7.0,126.0
514,48.0,0,117,10.0,110.0
515,60.0,0,117,8.0,110.0
516,53.0,0,117,7.0,93.0
517,53.0,240,117,8.0,77.0
518,41.0,0,117,10.0,77.0
519,75.0,0,1440,1.0,98.0
520,77.0,0,0,0.0,72.0
521,58.0,0,117,7.0,101.0
522,58.0,0,117,8.0,99.0
523,46.0,0,117,10.0,99.0
524,53.0,240,117,8.0,88.0
525,53.0,0,117,7.0,87.0
526,41.0,0,117,10.0,88.0
527,74.0,0,360,1.0,80.0
528,70.0,0,480,6.0,108.0
529,82.0,240,480,5.0,104.0
530,70.0,120,120,1.0,65.0
531,45.0,0,117,10.0,106.0
532,57.0,0,117,7.0,108.0
533,57.0,0,117,8.0,106.0
534,71.0,120,240,6.0,110.0
535,83.0,0,240,5.0,114.0
536,41.0,0,117,10.0,89.0
537,53.0,0,117,7.0,92.0
538,53.0,240,117,8.0,89.0
539,72.0,0,190,6.0,101.0
540,84.0,240,0,5.0,100.0
541,69.0,0,480,1.0,79.0
542,57.0,0,117,8.0,99.0
543,45.0,0,117,10.0,99.0
544,57.0,0,117,7.0,106.0
545,53.0,240,117,7.0,89.0
546,41.0,0,117,10.0,90.0
547,53.0,0,117,8.0,90.0
548,72.0,0,480,1.0,100.0
549,87.0,0,960,0.0,122.0
550,57.0,0,117,8.0,110.0
551,57.0,240,117,7.0,109.0
552,45.0,0,117,10.0,110.0
553,72.0,0,720,6.0,100.0
554,72.0,240,117,6.0,102.0
555,53.0,0,117,7.0,84.0
556,53.0,0,117,8.0,94.0
557,84.0,0,117,5.0,93.0
558,41.0,0,117,10.0,94.0
559,69.0,0,480,1.0,72.0
560,84.0,0,480,0.0,78.0
561,45.0,0,117,10.0,104.0
562,72.0,240,117,6.0,93.0
563,57.0,0,117,8.0,104.0
564,57.0,0,117,7.0,109.0
565,84.0,0,117,5.0,89.0
566,53.0,0,117,8.0,88.0
567,53.0,0,117,7.0,93.0
568,41.0,0,117,10.0,88.0
569,84.0,240,117,5.0,108.0
570,72.0,0,117,6.0,101.0
571,65.0,0,0,3.0,85.0
572,65.0,0,480,1.0,57.0
573,53.0,0,3840,2.0,68.0
574,41.0,0,3840,2.0,68.0
575,81.0,0,480,0.0,68.0
576,86.0,240,117,5.0,114.0
577,74.0,0,117,6.0,109.0
578,77.0,0,117,6.0,120.0
579,77.0,240,117,5.0,67.0
580,46.0,0,480,10.0,111.0
581,70.0,0,480,1.0,98.0
582,46.0,0,480,2.0,74.0
583,58.0,0,480,3.0,85.0
584,86.0,0,480,0.0,104.0
585,58.0,0,480,7.0,109.0
586,58.0,0,480,8.0,111.0
587,79.0,240,60,5.0,99.0
588,79.0,0,60,6.0,112.0
589,77.0,0,60,5.0,86.0
590,77.0,60,60,6.0,84.0
591,76.0,60,60,5.0,93.0
592,76.0,0,60,6.0,88.0
593,77.0,0,300,6.0,100.0
594,77.0,60,300,5.0,98.0
595,82.0,0,117,6.0,122.0
596,82.0,0,117,1.0,73.0
597,82.0,300,117,5.0,126.0
598,74.0,0,117,1.0,59.0
599,74.0,0,117,5.0,73.0
600,74.0,240,117,6.0,63.0
601,75.0,0,60,6.0,108.0
602,75.0,240,60,5.0,101.0
603,75.0,0,60,1.0,82.0
604,74.0,0,60,5.0,86.0
605,74.0,60,60,1.0,74.0
606,74.0,0,60,6.0,87.0
607,72.0,60,60,1.0,77.0
608,72.0,0,60,6.0,86.0
609,72.0,0,60,5.0,82.0
610,74.0,60,300,1.0,91.0
611,74.0,0,300,6.0,108.0
612,74.0,0,300,5.0,110.0
613,65.0,0,117,2.0,66.0
614,77.0,0,117,5.0,112.0
615,77.0,0,117,6.0,116.0
616,53.0,300,117,10.0,83.0
617,65.0,0,117,8.0,83.0
618,77.0,0,117,1.0,97.0
619,89.0,0,117,0.0,79.0
620,70.0,0,117,7.0,83.0
621,70.0,0,117,1.0,63.0
622,46.0,0,117,10.0,76.0
623,70.0,0,117,5.0,72.0
624,58.0,0,117,2.0,65.0
625,58.0,240,117,8.0,76.0
626,82.0,0,117,0.0,63.0
627,70.0,0,117,6.0,65.0
628,84.0,0,60,0.0,87.0
629,72.0,0,60,6.0,97.0
630,72.0,0,60,1.0,85.0
631,72.0,0,60,7.0,114.0
632,72.0,0,60,5.0,107.0
633,70.0,0,62,1.0,82.0
634,70.0,0,62,7.0,89.0
635,82.0,60,62,0.0,73.0
636,70.0,0,62,6.0,86.0
637,70.0,0,62,5.0,80.0
638,69.0,62,60,7.0,88.0
639,69.0,0,60,6.0,88.0
640,81.0,0,60,0.0,72.0
641,69.0,0,60,5.0,86.0
642,69.0,0,60,1.0,72.0
643,70.0,0,298,1.0,82.0
644,70.0,0,298,5.0,101.0
645,82.0,0,298,0.0,85.0
646,70.0,60,298,7.0,111.0
647,46.0,0,480,10.0,89.0
648,70.0,0,298,6.0,102.0
649,58.0,0,480,8.0,89.0
650,58.0,240,480,2.0,86.0
651,74.0,0,117,5.0,115.0
652,86.0,0,117,1.0,113.0
653,74.0,298,117,1.0,113.0
654,62.0,0,117,8.0,106.0
655,74.0,0,117,6.0,116.0
656,74.0,0,117,7.0,124.0
657,86.0,0,117,0.0,104.0
658,62.0,0,117,2.0,107.0
659,74.0,0,117,3.0,75.0
660,50.0,0,117,10.0,106.0
661,41.0,0,118,10.0,78.0
662,77.0,0,118,0.0,59.0
663,77.0,0,118,1.0,57.0
664,65.0,0,118,5.0,70.0
665,53.0,0,118,2.0,70.0
666,65.0,0,118,1.0,57.0
667,53.0,228,118,8.0,78.0
668,65.0,0,118,3.0,60.0
669,65.0,0,118,7.0,65.0
670,65.0,0,118,6.0,68.0
671,67.0,0,60,6.0,106.0
672,67.0,0,60,7.0,103.0
673,79.0,0,60,0.0,92.0
674,67.0,0,60,1.0,93.0
675,79.0,226,60,1.0,93.0
676,67.0,0,60,5.0,100.0
677,77.0,0,55,0.0,75.0
678,65.0,0,55,1.0,77.0
679,65.0,0,55,5.0,83.0
680,77.0,0,55,1.0,77.0
681,65.0,60,55,7.0,92.0
682,65.0,0,55,6.0,82.0
683,76.0,0,60,0.0,72.0
684,64.0,55,60,1.0,75.0
685,76.0,0,60,1.0,75.0
686,64.0,0,60,6.0,86.0
687,64.0,0,60,7.0,87.0
688,64.0,0,60,5.0,86.0
689,65.0,0,331,5.0,104.0
690,65.0,0,331,1.0,88.0
691,77.0,0,331,1.0,88.0
692,77.0,0,331,0.0,88.0
693,53.0,0,506,2.0,78.0
694,65.0,0,506,3.0,73.0
695,65.0,0,331,6.0,109.0
696,41.0,0,506,10.0,94.0
697,53.0,0,506,8.0,94.0
698,65.0,60,331,7.0,96.0
699,70.0,0,106,7.0,122.0
700,70.0,0,106,6.0,122.0
701,46.0,0,106,10.0,104.0
702,70.0,0,106,1.0,108.0
703,70.0,0,106,3.0,103.0
704,82.0,0,106,1.0,108.0
705,58.0,0,106,2.0,98.0
706,70.0,0,106,5.0,120.0
707,58.0,0,106,8.0,104.0
708,82.0,331,106,0.0,100.0
709,74.0,0,118,1.0,63.0
710,62.0,0,118,1.0,63.0
711,62.0,0,118,5.0,67.0
712,50.0,228,118,8.0,80.0
713,74.0,0,118,0.0,62.0
714,62.0,0,118,3.0,58.0
715,62.0,0,118,7.0,65.0
716,50.0,0,118,2.0,75.0
717,38.0,0,118,10.0,80.0
718,62.0,0,118,6.0,74.0
719,62.0,0,244,3.0,83.0
720,62.0,244,0,3.0,90.0
721,38.0,0,728,10.0,100.0
722,62.0,0,728,5.0,84.0
723,50.0,244,728,8.0,100.0
724,74.0,0,728,0.0,77.0
725,50.0,0,728,2.0,80.0
726,62.0,0,728,6.0,85.0
727,62.0,0,728,7.0,81.0
728,74.0,0,728,1.0,79.0
729,62.0,0,728,1.0,79.0
730,64.0,0,120,5.0,108.0
731,52.0,0,120,8.0,101.0
732,76.0,0,120,1.0,95.0
733,40.0,240,120,10.0,101.0
734,64.0,0,120,7.0,108.0
735,64.0,0,120,6.0,113.0
736,64.0,0,120,1.0,95.0
737,52.0,0,120,2.0,92.0
738,76.0,0,120,0.0,89.0
739,77.0,0,120,0.0,97.0
740,65.0,120,120,5.0,111.0
741,41.0,0,120,10.0,98.0
742,65.0,0,120,7.0,110.0
743,77.0,0,120,1.0,96.0
744,65.0,0,120,1.0,96.0
745,53.0,0,120,8.0,98.0
746,53.0,0,120,2.0,87.0
747,65.0,0,120,6.0,107.0
748,67.0,0,240,1.0,95.0
749,67.0,0,240,7.0,115.0
750,67.0,0,240,6.0,115.0
751,79.0,0,240,0.0,98.0
752,79.0,0,240,1.0,95.0
753,67.0,0,240,5.0,112.0
754,43.0,120,240,10.0,111.0
755,55.0,0,240,2.0,86.0
756,55.0,0,240,8.0,111.0
757,40.0,0,240,10.0,89.0
758,64.0,240,240,5.0,89.0
759,52.0,0,240,8.0,89.0
760,52.0,0,240,2.0,84.0
761,64.0,0,240,7.0,79.0
762,76.0,0,240,0.0,69.0
763,76.0,0,240,1.0,63.0
764,64.0,0,240,6.0,85.0
765,64.0,0,240,1.0,63.0
766,53.0,0,235,2.0,85.0
767,65.0,0,237,3.0,67.0
768,53.0,0,237,8.0,99.0
769,41.0,0,237,10.0,99.0
770,77.0,0,237,0.0,87.0
771,65.0,0,237,7.0,103.0
772,65.0,0,237,1.0,91.0
773,77.0,0,237,1.0,91.0
774,65.0,0,237,6.0,101.0
775,65.0,240,237,5.0,106.0
776,41.0,0,235,2.0,61.0
777,77.0,0,237,6.0,126.0
778,72.0,0,237,6.0,126.0
779,65.0,0,237,6.0,126.0
780,89.0,0,237,0.0,115.0
781,53.0,0,237,7.0,77.0
782,41.0,0,237,8.0,69.0
783,65.0,480,237,3.0,87.0
784,81.0,0,237,1.0,97.0
785,72.0,0,237,1.0,97.0
786,69.0,0,237,5.0,126.0
787,77.0,0,237,5.0,126.0
788,29.0,0,237,10.0,69.0
789,63.0,0,479,11.0,53.0
790,58.0,0,479,11.0,54.0
791,42.0,0,479,11.0,55.0
792,54.0,0,1919,8.0,43.0
793,42.0,1441,1919,10.0,43.0
794,58.0,0,1919,7.0,42.0
795,58.0,0,1919,6.0,49.0
796,63.0,0,720,2.0,58.0
797,75.0,0,720,1.0,55.0
798,87.0,1919,720,0.0,53.0
799,60.0,0,240,2.0,48.0
800,84.0,0,240,0.0,46.0
801,72.0,720,240,1.0,47.0
802,57.0,480,0,2.0,56.0
803,81.0,240,480,0.0,51.0
804,69.0,0,0,1.0,56.0
805,57.0,0,1816,7.0,51.0
806,53.0,0,1816,8.0,51.0
807,60.0,0,1816,6.0,56.0
808,41.0,0,1816,10.0,51.0
809,81.0,0,480,0.0,53.0
810,42.0,0,480,11.0,53.0
811,63.0,480,480,11.0,56.0
812,58.0,0,480,11.0,57.0
813,42.0,0,1920,10.0,52.0
814,58.0,0,1920,7.0,48.0
815,54.0,0,1920,8.0,52.0
816,58.0,0,1920,6.0,48.0
817,63.0,0,240,2.0,57.0
818,75.0,1938,240,1.0,56.0
819,87.0,0,240,0.0,57.0
820,86.0,240,231,0.0,53.0
821,74.0,0,231,1.0,55.0
822,62.0,0,231,2.0,57.0
823,87.0,231,231,0.0,67.0
824,75.0,0,231,1.0,68.0
825,63.0,0,231,2.0,68.0
826,84.0,231,233,0.0,48.0
827,72.0,0,233,1.0,45.0
828,60.0,0,233,2.0,48.0
829,57.0,0,471,2.0,55.0
830,69.0,0,0,1.0,52.0
831,81.0,0,471,0.0,47.0
832,57.0,0,1783,7.0,50.0
833,60.0,0,1783,6.0,48.0
834,53.0,0,1783,8.0,45.0
835,41.0,0,1783,10.0,45.0
836,81.0,0,496,0.0,57.0
837,57.0,471,496,2.0,55.0
838,42.0,0,484,11.0,61.0
839,58.0,0,484,11.0,52.0
840,63.0,0,484,11.0,52.0
841,42.0,0,1924,10.0,58.0
842,58.0,0,1924,7.0,51.0
843,54.0,492,1924,8.0,58.0
844,58.0,0,1924,6.0,53.0
845,63.0,0,9599,5.0,48.0
846,63.0,0,1440,2.0,48.0
847,87.0,0,1440,0.0,56.0
848,75.0,964,1440,1.0,50.0
849,59.0,0,960,5.0,47.0
850,59.0,0,960,6.0,51.0
851,56.0,0,960,7.0,47.0
852,44.0,960,960,10.0,58.0
853,56.0,0,960,8.0,58.0
854,88.0,0,960,0.0,61.0
855,64.0,0,960,2.0,59.0
856,76.0,480,960,1.0,65.0
857,68.0,0,856,5.0,72.0
858,68.0,0,960,6.0,63.0
859,46.0,0,960,10.0,48.0
860,58.0,0,960,8.0,48.0
861,58.0,480,960,7.0,50.0
862,62.0,480,960,2.0,55.0
863,86.0,0,960,0.0,51.0
864,74.0,0,960,1.0,63.0
865,59.0,0,960,7.0,50.0
866,47.0,480,960,10.0,49.0
867,59.0,0,960,8.0,49.0
868,66.0,0,960,6.0,37.0
869,66.0,0,960,5.0,46.0
870,63.0,480,960,2.0,63.0
871,75.0,0,960,1.0,66.0
872,87.0,0,960,0.0,67.0
873,45.0,0,856,10.0,46.0
874,65.0,0,856,6.0,46.0
875,57.0,480,856,8.0,46.0
876,57.0,0,856,7.0,48.0
877,72.0,0,960,1.0,48.0
878,60.0,480,960,2.0,53.0
879,84.0,0,960,0.0,48.0
880,65.0,0,1920,5.0,51.0
881,58.0,0,960,8.0,51.0
882,46.0,0,960,10.0,51.0
883,65.0,0,960,6.0,52.0
884,58.0,480,960,7.0,48.0
885,85.0,0,960,0.0,64.0
886,73.0,0,960,1.0,69.0
887,61.0,480,960,2.0,64.0
888,54.0,480,960,7.0,51.0
889,66.0,0,0,6.0,56.0
890,54.0,0,960,8.0,50.0
891,42.0,0,960,10.0,50.0
892,70.0,480,960,1.0,46.0
893,82.0,0,960,0.0,48.0
894,58.0,0,960,2.0,54.0
895,51.0,480,960,7.0,48.0
896,51.0,0,960,8.0,49.0
897,39.0,0,960,10.0,49.0
898,66.0,0,1920,5.0,57.0
899,83.0,0,960,0.0,63.0
900,59.0,480,960,2.0,58.0
901,71.0,0,960,1.0,64.0
902,53.0,480,856,7.0,55.0
903,53.0,0,856,8.0,56.0
904,41.0,0,856,10.0,56.0
905,63.0,0,856,6.0,44.0
906,63.0,0,856,5.0,40.0
907,57.0,0,480,2.0,53.0
908,69.0,480,480,1.0,52.0
909,81.0,0,480,0.0,53.0
910,61.0,480,117,6.0,41.0
911,61.0,0,117,5.0,41.0
912,54.0,0,480,8.0,52.0
913,70.0,0,240,5.0,72.0
914,82.0,2,478,0.0,69.0
915,42.0,0,480,10.0,52.0
916,70.0,0,480,1.0,65.0
917,58.0,0,480,2.0,62.0
918,54.0,0,480,7.0,55.0
919,61.0,238,240,6.0,51.0
920,69.0,240,240,5.0,52.0
921,60.0,0,240,6.0,50.0
922,70.0,240,190,5.0,57.0
923,61.0,0,190,6.0,58.0
924,58.0,240,117,6.0,50.0
925,61.0,0,117,5.0,46.0
926,49.0,0,480,8.0,44.0
927,53.0,0,480,7.0,44.0
928,37.0,240,480,10.0,44.0
929,58.0,240,117,6.0,44.0
930,61.0,0,117,5.0,51.0
931,58.0,240,117,6.0,48.0
932,61.0,0,117,5.0,52.0
933,58.0,240,117,6.0,48.0
934,60.0,0,117,5.0,38.0
935,54.0,0,480,7.0,48.0
936,39.0,240,480,10.0,44.0
937,51.0,0,480,8.0,44.0
938,58.0,0,117,6.0,50.0
939,60.0,240,117,5.0,48.0
940,58.0,240,117,6.0,50.0
941,60.0,0,117,5.0,57.0
942,60.0,0,117,5.0,41.0
943,57.0,240,117,6.0,48.0
944,53.0,0,480,8.0,45.0
945,53.0,0,480,7.0,47.0
946,41.0,240,480,10.0,45.0
947,60.0,0,117,5.0,52.0
948,57.0,240,117,6.0,47.0
949,60.0,240,117,5.0,57.0
950,57.0,0,117,6.0,54.0
951,62.0,0,240,5.0,50.0
952,58.0,0,240,6.0,42.0
953,65.0,240,240,5.0,47.0
954,62.0,0,240,6.0,47.0
955,62.0,0,240,5.0,39.0
956,58.0,240,240,6.0,37.0
957,62.0,0,240,6.0,48.0
958,65.0,240,240,5.0,42.0
959,62.0,0,240,5.0,38.0
960,58.0,240,240,6.0,44.0
961,62.0,0,240,6.0,49.0
962,65.0,240,240,5.0,51.0
963,74.0,0,120,1.0,65.0
964,77.0,0,120,1.0,65.0
965,62.0,240,240,5.0,40.0
966,75.0,0,120,1.0,85.0
967,79.0,120,120,1.0,85.0
968,58.0,0,240,6.0,41.0
969,74.0,0,120,1.0,63.0
970,77.0,0,120,1.0,63.0
971,65.0,0,240,5.0,48.0
972,62.0,120,240,6.0,55.0
973,72.0,120,120,1.0,57.0
974,75.0,0,120,1.0,57.0
975,58.0,0,240,6.0,40.0
976,62.0,120,240,5.0,38.0
977,70.0,0,240,1.0,62.0
978,74.0,0,240,1.0,62.0
979,65.0,0,240,5.0,48.0
980,62.0,240,240,6.0,55.0
981,74.0,240,120,1.0,66.0
982,77.0,0,120,1.0,66.0
983,79.0,0,120,1.0,74.0
984,75.0,120,120,1.0,74.0
985,58.0,0,240,6.0,46.0
986,62.0,0,240,5.0,38.0
987,77.0,0,120,1.0,65.0
988,74.0,0,120,1.0,65.0
989,72.0,120,120,1.0,61.0
990,62.0,0,240,6.0,56.0
991,75.0,0,120,1.0,61.0
992,65.0,120,240,5.0,41.0
993,70.0,0,240,1.0,65.0
994,58.0,0,240,6.0,42.0
995,62.0,0,240,5.0,41.0
996,74.0,120,240,1.0,65.0
997,62.0,240,240,6.0,46.0
998,65.0,0,240,5.0,50.0
999,62.0,0,240,5.0,38.0
1000,58.0,0,240,6.0,37.0
1001,50.0,0,3736,7.0,42.0
1002,53.0,240,3736,7.0,42.0
1003,65.0,240,190,5.0,44.0
1004,74.0,240,480,1.0,60.0
1005,62.0,0,240,6.0,53.0
1006,77.0,0,480,1.0,60.0
1007,57.0,0,240,6.0,36.0
1008,72.0,0,240,1.0,51.0
1009,69.0,0,240,1.0,51.0
1010,60.0,0,240,5.0,35.0
1011,60.0,240,240,6.0,50.0
1012,63.0,0,240,5.0,49.0
1013,57.0,240,240,6.0,42.0
1014,60.0,0,240,5.0,46.0
1015,69.0,0,240,1.0,69.0
1016,72.0,0,240,1.0,69.0
1017,60.0,0,240,6.0,50.0
1018,63.0,240,240,5.0,48.0
1019,72.0,240,240,1.0,67.0
1020,69.0,0,240,1.0,67.0
1021,57.0,0,240,6.0,40.0
1022,60.0,0,240,5.0,36.0
1023,60.0,240,240,6.0,53.0
1024,63.0,0,240,5.0,51.0
1025,60.0,240,240,5.0,39.0
1026,57.0,0,240,6.0,35.0
1027,60.0,0,240,2.0,63.0
1028,84.0,0,240,0.0,55.0
1029,82.0,0,240,0.0,55.0
1030,60.0,0,240,6.0,48.0
1031,58.0,0,0,2.0,66.0
1032,63.0,0,240,5.0,47.0
1033,82.0,0,224,0.0,51.0
1034,57.0,240,240,6.0,40.0
1035,60.0,0,240,5.0,34.0
1036,81.0,224,240,0.0,53.0
1037,60.0,16,240,6.0,50.0
1038,57.0,0,240,2.0,69.0
1039,63.0,0,240,5.0,55.0
1040,79.0,224,240,0.0,53.0
1041,55.0,16,233,2.0,62.0
1042,60.0,0,233,5.0,40.0
1043,57.0,0,233,6.0,36.0
1044,77.0,224,249,0.0,60.0
1045,63.0,0,247,5.0,50.0
1046,60.0,9,247,6.0,53.0
1047,53.0,0,247,2.0,68.0
1048,76.0,240,247,0.0,50.0
1049,57.0,0,240,6.0,39.0
1050,52.0,7,240,2.0,67.0
1051,60.0,0,240,5.0,41.0
1052,63.0,240,252,5.0,49.0
1053,60.0,0,252,6.0,53.0
1054,53.0,0,252,2.0,73.0
1055,77.0,0,256,0.0,67.0
1056,60.0,252,248,5.0,33.0
1057,55.0,0,248,2.0,74.0
1058,57.0,0,248,6.0,37.0
1059,79.0,4,249,0.0,68.0
1060,81.0,5,215,0.0,72.0
1061,63.0,244,220,5.0,49.0
1062,60.0,0,220,6.0,49.0
1063,57.0,0,220,2.0,78.0
1064,53.0,0,3840,7.0,47.0
1065,51.0,240,3840,7.0,47.0
1066,58.0,0,236,2.0,73.0
1067,62.0,0,236,5.0,38.0
1068,82.0,231,238,0.0,68.0
1069,58.0,2,236,6.0,48.0
1070,84.0,0,60,0.0,70.0
1071,60.0,0,60,2.0,82.0
1072,82.0,60,56,0.0,61.0
1073,58.0,0,58,2.0,62.0
1074,81.0,56,120,0.0,53.0
1075,65.0,0,238,5.0,47.0
1076,62.0,236,238,6.0,53.0
1077,57.0,2,120,2.0,68.0
1078,62.0,2,237,5.0,34.0
1079,82.0,118,239,0.0,65.0
1080,58.0,0,237,2.0,77.0
1081,58.0,0,237,6.0,41.0
1082,84.0,0,117,0.0,69.0
1083,60.0,237,117,2.0,76.0
1084,65.0,0,237,5.0,52.0
1085,62.0,0,237,6.0,57.0
1086,62.0,237,236,5.0,36.0
1087,58.0,0,236,6.0,45.0
1088,65.0,236,239,5.0,46.0
1089,86.0,0,475,0.0,73.0
1090,62.0,0,239,6.0,55.0
1091,62.0,0,475,2.0,77.0
1092,77.0,0,120,1.0,63.0
1093,74.0,0,120,1.0,63.0
1094,62.0,239,239,5.0,38.0
1095,79.0,120,119,1.0,69.0
1096,75.0,0,119,1.0,69.0
1097,58.0,0,239,6.0,36.0
1098,74.0,0,120,1.0,68.0
1099,77.0,0,120,1.0,68.0
1100,75.0,0,120,1.0,62.0
1101,62.0,0,240,6.0,48.0
1102,72.0,120,120,1.0,62.0
1103,65.0,119,240,5.0,40.0
1104,58.0,0,240,6.0,40.0
1105,74.0,0,240,1.0,62.0
1106,70.0,0,240,1.0,62.0
1107,62.0,120,240,5.0,39.0
1108,62.0,240,240,6.0,54.0
1109,65.0,0,240,5.0,48.0
1110,77.0,240,120,1.0,69.0
1111,74.0,0,120,1.0,69.0
1112,58.0,0,240,6.0,37.0
1113,79.0,0,120,1.0,78.0
1114,75.0,120,120,1.0,78.0
1115,62.0,0,240,5.0,40.0
1116,77.0,120,120,1.0,60.0
1117,74.0,0,120,1.0,60.0
1118,72.0,0,120,1.0,50.0
1119,75.0,120,120,1.0,50.0
1120,62.0,0,240,6.0,56.0
1121,65.0,0,240,5.0,54.0
1122,58.0,0,240,6.0,40.0
1123,62.0,0,240,5.0,46.0
1124,74.0,120,240,1.0,62.0
1125,70.0,0,240,1.0,62.0
1126,62.0,240,240,6.0,59.0
1127,65.0,0,240,5.0,47.0
1128,58.0,240,240,6.0,41.0
1129,62.0,0,240,5.0,34.0
1130,62.0,240,240,6.0,50.0
1131,53.0,0,3822,7.0,42.0
1132,50.0,0,3822,7.0,42.0
1133,77.0,0,480,1.0,63.0
1134,74.0,0,480,1.0,63.0
1135,65.0,0,240,5.0,50.0
1136,57.0,0,240,6.0,39.0
1137,72.0,0,240,1.0,48.0
1138,69.0,0,240,1.0,48.0
1139,60.0,0,240,5.0,26.0
1140,63.0,0,240,5.0,45.0
1141,60.0,240,240,6.0,47.0
1142,60.0,240,240,5.0,34.0
1143,57.0,0,240,6.0,42.0
1144,72.0,0,240,1.0,66.0
1145,69.0,0,240,1.0,66.0
1146,63.0,240,240,5.0,51.0
1147,60.0,0,240,6.0,45.0
1148,60.0,0,240,5.0,33.0
1149,69.0,0,240,1.0,67.0
1150,57.0,240,240,6.0,39.0
1151,72.0,0,240,1.0,67.0
1152,63.0,0,240,5.0,62.0
1153,60.0,240,240,6.0,56.0
1154,57.0,240,240,6.0,45.0
1155,87.0,0,240,0.0,57.0
1156,60.0,0,240,5.0,33.0
1157,63.0,0,240,2.0,60.0
1158,63.0,240,190,5.0,54.0
1159,60.0,0,240,2.0,63.0
1160,84.0,0,240,0.0,49.0
1161,60.0,0,240,6.0,45.0
1162,82.0,240,229,0.0,47.0
1163,58.0,0,240,2.0,65.0
1164,57.0,0,240,6.0,42.0
1165,60.0,0,240,5.0,36.0
1166,81.0,229,240,0.0,49.0
1167,57.0,0,240,2.0,66.0
1168,63.0,0,240,5.0,49.0
1169,60.0,11,240,6.0,51.0
1170,79.0,229,240,0.0,44.0
1171,55.0,11,236,2.0,64.0
1172,57.0,0,236,6.0,47.0
1173,60.0,0,236,5.0,35.0
1174,77.0,229,247,0.0,43.0
1175,63.0,0,244,5.0,47.0
1176,53.0,7,244,2.0,65.0
1177,60.0,0,244,6.0,52.0
1178,52.0,0,240,2.0,65.0
1179,60.0,4,240,5.0,37.0
1180,57.0,0,240,6.0,37.0
1181,76.0,240,244,0.0,59.0
1182,60.0,240,246,6.0,49.0
1183,53.0,0,246,2.0,74.0
1184,63.0,0,246,5.0,52.0
1185,77.0,0,249,0.0,65.0
1186,60.0,0,246,5.0,28.0
1187,57.0,0,246,6.0,39.0
1188,55.0,246,246,2.0,81.0
1189,79.0,3,245,0.0,71.0
1190,63.0,0,228,5.0,54.0
1191,81.0,2,226,0.0,68.0
1192,51.0,240,3840,7.0,41.0
1193,57.0,0,228,2.0,74.0
1194,53.0,0,3840,7.0,41.0
1195,60.0,243,228,6.0,56.0
1196,58.0,0,236,2.0,76.0
1197,82.0,242,238,0.0,74.0
1198,60.0,236,60,2.0,80.0
1199,84.0,0,60,0.0,72.0
1200,82.0,0,56,0.0,50.0
1201,58.0,60,58,2.0,66.0
1202,62.0,0,376,5.0,56.0
1203,58.0,0,376,6.0,55.0
1204,81.0,56,120,0.0,50.0
1205,58.0,2,474,3.0,73.0
1206,65.0,0,15852,3.0,64.0
1207,53.0,0,474,7.0,62.0
1208,50.0,0,474,7.0,62.0
1209,34.0,0,15852,10.0,35.0
1210,53.0,0,15852,3.0,64.0
1211,46.0,0,15852,2.0,70.0
1212,57.0,2,120,2.0,71.0
1213,46.0,0,15852,8.0,35.0
1214,58.0,2,237,2.0,75.0
1215,82.0,118,239,0.0,64.0
1216,62.0,237,117,2.0,86.0
1217,86.0,0,117,0.0,72.0
1218,72.0,0,236,1.0,63.0
1219,75.0,0,236,1.0,63.0
1220,65.0,236,0,3.0,73.0
1221,74.0,0,60,1.0,74.0
1222,77.0,0,60,1.0,74.0
1223,75.0,0,59,1.0,59.0
1224,72.0,60,59,1.0,59.0
1225,74.0,0,120,1.0,63.0
1226,53.0,0,475,8.0,59.0
1227,41.0,237,475,10.0,59.0
1228,71.0,59,120,1.0,63.0
1229,65.0,0,0,3.0,65.0
1230,72.0,0,0,1.0,69.0
1231,77.0,0,714,0.0,42.0
1232,53.0,0,714,2.0,61.0
1233,75.0,239,0,1.0,69.0
1234,79.0,0,120,0.0,60.0
1235,55.0,0,120,2.0,71.0
1236,65.0,0,240,3.0,79.0
1237,81.0,0,120,0.0,71.0
1238,57.0,120,120,2.0,71.0
1239,82.0,0,240,0.0,73.0
1240,58.0,0,240,2.0,81.0
1241,60.0,0,60,2.0,80.0
1242,84.0,240,60,0.0,69.0
1243,58.0,60,60,2.0,68.0
1244,82.0,0,60,0.0,53.0
1245,34.0,0,480,10.0,49.0
1246,70.0,0,480,3.0,85.0
1247,62.0,0,480,3.0,85.0
1248,70.0,120,480,1.0,69.0
1249,81.0,60,120,0.0,55.0
1250,57.0,0,120,2.0,69.0
1251,46.0,0,480,8.0,49.0
1252,74.0,0,480,1.0,69.0
1253,58.0,120,240,2.0,76.0
1254,82.0,0,240,0.0,62.0
1255,86.0,0,240,0.0,70.0
1256,62.0,240,240,2.0,90.0
1257,75.0,0,240,1.0,65.0
1258,65.0,240,0,3.0,67.0
1259,72.0,240,240,1.0,65.0
1260,74.0,0,60,1.0,79.0
1261,77.0,0,60,1.0,79.0
1262,75.0,0,60,1.0,63.0
1263,72.0,60,60,1.0,63.0
1264,71.0,60,120,1.0,64.0
1265,41.0,0,480,10.0,46.0
1266,74.0,0,120,1.0,64.0
1267,53.0,0,480,8.0,46.0
1268,65.0,240,0,3.0,73.0
1269,77.0,0,720,0.0,47.0
1270,75.0,0,240,1.0,81.0
1271,53.0,0,720,2.0,62.0
1272,72.0,0,240,1.0,81.0
1273,72.0,0,117,1.0,71.0
1274,75.0,0,117,1.0,71.0
1275,79.0,0,120,0.0,72.0
1276,55.0,0,120,2.0,74.0
1277,57.0,0,120,2.0,71.0
1278,81.0,120,120,0.0,67.0
1279,58.0,0,240,2.0,85.0
1280,82.0,0,240,0.0,68.0
1281,60.0,0,60,2.0,85.0
1282,84.0,240,60,0.0,71.0
1283,82.0,0,60,0.0,57.0
1284,58.0,60,60,2.0,67.0
1285,57.0,0,120,2.0,72.0
1286,74.0,120,480,1.0,58.0
1287,70.0,0,480,1.0,58.0
1288,34.0,0,480,10.0,56.0
1289,70.0,0,480,3.0,88.0
1290,46.0,0,480,8.0,56.0
1291,62.0,0,480,3.0,88.0
1292,81.0,60,120,0.0,47.0
1293,58.0,120,240,2.0,78.0
1294,82.0,0,240,0.0,66.0
1295,62.0,240,117,2.0,83.0
1296,86.0,0,233,0.0,76.0
1297,65.0,0,239,3.0,65.0
1298,53.0,239,0,2.0,73.0
1299,77.0,0,239,0.0,41.0
1300,75.0,0,239,1.0,62.0
1301,72.0,0,239,1.0,62.0
1302,74.0,0,60,1.0,85.0
1303,77.0,0,60,1.0,85.0
1304,75.0,0,61,1.0,65.0
1305,72.0,60,61,1.0,65.0
1306,65.0,123,0,3.0,77.0
1307,53.0,0,483,8.0,58.0
1308,74.0,0,123,1.0,59.0
1309,71.0,61,123,1.0,59.0
1310,53.0,0,0,2.0,74.0
1311,77.0,0,244,0.0,50.0
1312,41.0,0,483,10.0,58.0
1313,72.0,244,0,1.0,74.0
1314,75.0,0,0,1.0,74.0
1315,77.0,0,244,0.0,60.0
1316,79.0,0,121,0.0,61.0
1317,55.0,0,121,2.0,74.0
1318,81.0,121,119,0.0,70.0
1319,65.0,0,240,3.0,74.0
1320,57.0,0,119,2.0,74.0
1321,82.0,120,240,0.0,73.0
1322,58.0,0,240,2.0,74.0
1323,84.0,240,60,0.0,68.0
1324,60.0,0,60,2.0,87.0
1325,82.0,0,60,0.0,58.0
1326,58.0,60,60,2.0,74.0
1327,81.0,60,120,0.0,50.0
1328,46.0,0,480,8.0,58.0
1329,57.0,0,120,2.0,76.0
1330,74.0,0,480,1.0,67.0
1331,70.0,0,480,1.0,67.0
1332,70.0,0,480,3.0,86.0
1333,62.0,0,480,3.0,86.0
1334,34.0,0,480,10.0,58.0
1335,82.0,120,239,0.0,66.0
1336,58.0,0,239,2.0,69.0
1337,62.0,0,117,2.0,90.0
1338,86.0,239,236,0.0,83.0
1339,77.0,0,237,0.0,47.0
1340,65.0,237,0,3.0,74.0
1341,72.0,0,237,1.0,58.0
1342,53.0,0,237,2.0,59.0
1343,75.0,236,237,1.0,58.0
1344,77.0,0,60,1.0,74.0
1345,74.0,0,60,1.0,74.0
1346,72.0,60,60,1.0,62.0
1347,75.0,0,60,1.0,62.0
1348,71.0,60,123,1.0,59.0
1349,77.0,0,243,0.0,65.0
1350,74.0,0,123,1.0,59.0
1351,41.0,0,480,10.0,51.0
1352,53.0,0,480,8.0,51.0
1353,53.0,0,0,2.0,70.0
1354,75.0,0,244,1.0,75.0
1355,72.0,123,244,1.0,75.0
1356,77.0,0,244,0.0,57.0
1357,65.0,0,244,3.0,71.0
1358,75.0,0,117,1.0,66.0
1359,72.0,244,117,1.0,66.0
1360,79.0,0,121,0.0,72.0
1361,55.0,0,121,2.0,71.0
1362,81.0,121,119,0.0,75.0
1363,57.0,0,119,2.0,79.0
1364,65.0,0,240,3.0,70.0
1365,58.0,0,0,8.0,94.0
1366,58.0,0,240,2.0,88.0
1367,58.0,0,0,3.0,88.0
1368,70.0,0,240,3.0,105.0
1369,46.0,0,0,10.0,94.0
1370,70.0,121,240,6.0,84.0
1371,58.0,0,240,7.0,86.0
1372,70.0,0,240,5.0,85.0
1373,72.0,0,60,6.0,107.0
1374,60.0,0,60,7.0,105.0
1375,72.0,240,60,5.0,111.0
1376,70.0,0,60,6.0,80.0
1377,70.0,0,60,5.0,89.0
1378,58.0,60,60,7.0,94.0
1379,58.0,120,0,3.0,85.0
1380,70.0,0,240,3.0,88.0
1381,70.0,0,480,1.0,69.0
1382,74.0,0,480,1.0,69.0
1383,57.0,60,120,7.0,93.0
1384,69.0,0,120,5.0,86.0
1385,58.0,0,240,2.0,83.0
1386,69.0,0,120,6.0,85.0
1387,82.0,0,480,0.0,94.0
1388,46.0,0,0,10.0,94.0
1389,58.0,0,238,2.0,84.0
1390,58.0,0,238,7.0,101.0
1391,70.0,0,238,3.0,85.0
1392,58.0,0,238,8.0,94.0
1393,70.0,0,238,6.0,105.0
1394,70.0,0,238,5.0,108.0
1395,74.0,0,117,5.0,119.0
1396,74.0,0,117,6.0,113.0
1397,62.0,0,117,7.0,121.0
1398,62.0,0,240,8.0,109.0
1399,62.0,0,240,2.0,105.0
1400,74.0,238,240,3.0,103.0
1401,62.0,0,240,3.0,103.0
1402,50.0,0,240,10.0,109.0
1403,53.0,0,0,8.0,90.0
1404,65.0,0,240,5.0,69.0
1405,53.0,0,0,2.0,74.0
1406,65.0,0,240,6.0,62.0
1407,65.0,0,0,3.0,74.0
1408,53.0,0,0,3.0,74.0
1409,41.0,240,0,10.0,90.0
1410,53.0,0,240,7.0,83.0
1411,53.0,0,0,8.0,92.0
1412,53.0,240,0,2.0,85.0
1413,65.0,0,0,5.0,94.0
1414,53.0,0,240,7.0,90.0
1415,41.0,0,0,10.0,92.0
1416,53.0,0,0,3.0,84.0
1417,65.0,0,0,6.0,94.0
1418,53.0,0,240,7.0,100.0
1419,55.0,0,120,2.0,88.0
1420,67.0,0,120,6.0,112.0
1421,67.0,0,120,5.0,106.0
1422,55.0,0,120,8.0,98.0
1423,43.0,240,120,10.0,98.0
1424,55.0,0,120,7.0,100.0
1425,69.0,0,120,6.0,114.0
1426,57.0,0,120,7.0,106.0
1427,45.0,0,120,10.0,105.0
1428,57.0,0,120,8.0,105.0
1429,57.0,120,120,2.0,87.0
1430,69.0,0,120,5.0,109.0
1431,65.0,0,480,3.0,84.0
1432,70.0,0,237,5.0,111.0
1433,58.0,0,237,8.0,106.0
1434,70.0,0,237,1.0,74.0
1435,70.0,0,237,0.0,72.0
1436,46.0,120,237,10.0,106.0
1437,70.0,0,0,3.0,81.0
1438,70.0,0,0,6.0,94.0
1439,58.0,0,237,2.0,93.0
1440,58.0,237,0,7.0,93.0
1441,58.0,0,0,3.0,81.0
1442,70.0,0,240,5.0,95.0
1443,34.0,240,0,10.0,92.0
1444,46.0,0,240,8.0,78.0
1445,46.0,0,0,2.0,79.0
1446,70.0,0,0,1.0,84.0
1447,70.0,0,240,0.0,77.0
1448,58.0,0,0,7.0,95.0
1449,70.0,0,0,6.0,94.0
1450,70.0,0,120,5.0,99.0
1451,70.0,0,120,0.0,88.0
1452,46.0,0,120,8.0,92.0
1453,72.0,0,123,0.0,89.0
1454,48.0,0,123,8.0,103.0
1455,72.0,0,123,1.0,100.0
1456,36.0,0,123,10.0,103.0
1457,72.0,0,123,5.0,110.0
1458,60.0,0,123,7.0,107.0
1459,48.0,120,123,2.0,88.0
1460,72.0,0,123,6.0,105.0
1461,50.0,0,120,8.0,98.0
1462,50.0,0,120,2.0,85.0
1463,38.0,0,120,10.0,98.0
1464,74.0,0,120,6.0,114.0
1465,74.0,0,120,0.0,98.0
1466,74.0,123,120,1.0,99.0
1467,62.0,0,120,7.0,109.0
1468,74.0,0,120,5.0,117.0
1469,70.0,0,483,3.0,91.0
1470,58.0,0,483,3.0,91.0
1471,51.0,0,120,8.0,104.0
1472,51.0,120,120,2.0,93.0
1473,75.0,0,120,0.0,93.0
1474,63.0,0,120,7.0,112.0
1475,75.0,0,120,6.0,105.0
1476,75.0,0,120,1.0,94.0
1477,39.0,0,120,10.0,104.0
1478,75.0,0,120,5.0,110.0
1479,65.0,0,242,3.0,114.0
1480,77.0,0,0,0.0,89.0
1481,77.0,0,242,3.0,114.0
1482,77.0,0,242,5.0,119.0
1483,41.0,0,242,10.0,109.0
1484,53.0,242,0,2.0,86.0
1485,65.0,0,0,7.0,103.0
1486,77.0,0,242,1.0,97.0
1487,53.0,0,242,8.0,109.0
1488,77.0,0,0,6.0,103.0
1489,65.0,247,0,3.0,79.0
1490,77.0,0,247,3.0,93.0
1491,53.0,0,247,8.0,98.0
1492,41.0,0,0,10.0,101.0
1493,77.0,0,0,5.0,93.0
1494,53.0,0,0,2.0,84.0
1495,77.0,0,0,6.0,95.0
1496,77.0,0,0,1.0,86.0
1497,53.0,0,245,8.0,101.0
1498,77.0,0,245,0.0,80.0
1499,65.0,0,245,7.0,90.0
1500,43.0,0,124,10.0,99.0
1501,79.0,0,124,6.0,111.0
1502,55.0,0,124,2.0,86.0
1503,79.0,245,124,5.0,118.0
1504,79.0,0,124,0.0,94.0
1505,55.0,0,124,8.0,99.0
1506,67.0,0,124,7.0,109.0
1507,79.0,0,124,1.0,92.0
1508,45.0,0,102,10.0,104.0
1509,57.0,0,102,8.0,104.0
1510,81.0,0,102,1.0,95.0
1511,77.0,0,471,3.0,79.0
1512,81.0,124,102,6.0,111.0
1513,57.0,0,102,2.0,89.0
1514,81.0,0,102,0.0,91.0
1515,81.0,0,102,5.0,117.0
1516,69.0,0,102,7.0,112.0
1517,82.0,0,239,5.0,109.0
1518,62.0,0,239,3.0,62.0
1519,74.0,0,239,3.0,62.0
1520,70.0,112,239,7.0,115.0
1521,82.0,0,239,1.0,88.0
1522,46.0,0,239,10.0,102.0
1523,58.0,0,0,8.0,99.0
1524,82.0,0,0,0.0,89.0
1525,58.0,0,239,2.0,90.0
1526,82.0,0,0,6.0,98.0
1527,70.0,0,237,3.0,60.0
1528,58.0,239,237,3.0,60.0
1529,58.0,0,237,2.0,85.0
1530,70.0,0,0,7.0,102.0
1531,46.0,0,237,10.0,99.0
1532,58.0,0,0,8.0,94.0
1533,82.0,0,237,1.0,79.0
1534,82.0,0,237,5.0,103.0
1535,82.0,0,120,0.0,86.0
1536,84.0,120,123,0.0,93.0
1537,58.0,0,243,2.0,82.0
1538,82.0,0,243,1.0,84.0
1539,46.0,0,243,10.0,94.0
1540,74.0,0,243,3.0,97.0
1541,82.0,0,243,6.0,105.0
1542,62.0,237,243,3.0,97.0
1543,82.0,0,243,5.0,102.0
1544,81.0,0,120,6.0,84.0
1545,57.0,0,120,8.0,94.0
1546,81.0,0,120,5.0,92.0
1547,69.0,0,120,7.0,83.0
1548,86.0,0,120,0.0,100.0
1549,81.0,0,120,1.0,75.0
1550,57.0,123,120,2.0,83.0
1551,45.0,0,120,10.0,94.0
1552,43.0,0,120,10.0,90.0
1553,79.0,0,120,1.0,72.0
1554,70.0,0,240,3.0,64.0
1555,58.0,0,240,3.0,64.0
1556,87.0,0,120,0.0,86.0
1557,55.0,0,120,2.0,74.0
1558,79.0,0,120,5.0,83.0
1559,67.0,0,120,7.0,80.0
1560,55.0,120,120,8.0,90.0
1561,79.0,0,120,6.0,80.0
1562,67.0,0,471,3.0,53.0
1563,55.0,0,471,3.0,49.0
1564,77.0,0,472,6.0,82.0
1565,89.0,120,472,0.0,98.0
1566,65.0,0,472,7.0,83.0
1567,77.0,0,472,5.0,78.0
1568,53.0,0,472,8.0,95.0
1569,41.0,0,472,10.0,95.0
1570,77.0,0,472,1.0,69.0
1571,53.0,0,472,2.0,71.0
1572,74.0,0,960,6.0,57.0
1573,77.0,948,960,5.0,54.0
1574,74.0,960,963,5.0,47.0
1575,55.0,0,963,8.0,59.0
1576,67.0,0,963,7.0,48.0
1577,43.0,0,963,10.0,59.0
1578,55.0,0,963,2.0,71.0
1579,51.0,0,960,8.0,54.0
1580,60.0,0,960,7.0,42.0
1581,79.0,963,960,5.0,78.0
1582,70.0,0,1923,6.0,48.0
1583,51.0,0,960,2.0,69.0
1584,39.0,0,960,10.0,54.0
1585,53.0,0,856,2.0,71.0
1586,72.0,0,856,5.0,36.0
1587,63.0,0,856,7.0,69.0
1588,53.0,0,856,8.0,65.0
1589,69.0,0,856,6.0,54.0
1590,41.0,960,856,10.0,65.0
1591,70.0,0,240,6.0,61.0
1592,74.0,0,240,5.0,58.0
1593,77.0,0,240,5.0,72.0
1594,62.0,960,480,7.0,48.0
1595,74.0,240,240,6.0,76.0
1596,46.0,0,480,10.0,69.0
1597,58.0,0,480,8.0,69.0
1598,58.0,0,480,2.0,72.0
1599,75.0,0,240,5.0,57.0
1600,67.0,240,240,6.0,49.0
1601,60.0,0,381,7.0,56.0
1602,51.0,0,480,8.0,50.0
1603,72.0,240,240,5.0,50.0
1604,63.0,0,240,6.0,40.0
1605,39.0,0,480,10.0,50.0
1606,51.0,0,480,2.0,61.0
1607,53.0,0,480,2.0,74.0
1608,70.0,0,480,5.0,49.0
1609,65.0,0,480,7.0,74.0
1610,41.0,0,480,10.0,68.0
1611,62.0,240,480,6.0,52.0
1612,53.0,0,480,8.0,68.0
1613,65.0,0,480,7.0,61.0
1614,72.0,0,480,5.0,67.0
1615,57.0,0,480,6.0,49.0
1616,53.0,480,480,2.0,74.0
1617,53.0,0,480,8.0,61.0
1618,41.0,0,480,10.0,61.0
1619,58.0,0,236,6.0,56.0
1620,74.0,480,236,5.0,75.0
1621,60.0,0,60,6.0,69.0
1622,75.0,236,60,5.0,71.0
1623,58.0,60,64,6.0,56.0
1624,74.0,0,64,5.0,61.0
1625,72.0,64,120,5.0,49.0
1626,57.0,0,120,6.0,56.0
1627,46.0,0,480,8.0,50.0
1628,65.0,0,480,7.0,56.0
1629,46.0,0,480,2.0,59.0
1630,34.0,0,480,10.0,50.0
1631,58.0,120,246,6.0,62.0
1632,74.0,0,246,5.0,68.0
1633,60.0,246,244,6.0,67.0
1634,75.0,0,244,5.0,71.0
1635,77.0,0,466,5.0,68.0
1636,62.0,244,466,6.0,73.0
1637,62.0,0,967,6.0,54.0
1638,38.0,0,967,10.0,53.0
1639,81.0,0,967,0.0,53.0
1640,77.0,0,967,1.0,59.0
1641,74.0,0,967,1.0,59.0
1642,57.0,0,967,7.0,53.0
1643,50.0,0,967,8.0,53.0
1644,65.0,939,967,5.0,59.0
1645,83.0,0,860,0.0,60.0
1646,74.0,0,964,1.0,51.0
1647,71.0,0,964,1.0,51.0
1648,62.0,0,964,5.0,48.0
1649,65.0,967,964,2.0,53.0
1650,43.0,0,964,10.0,71.0
1651,62.0,0,964,2.0,74.0
1652,59.0,0,964,6.0,49.0
1653,55.0,0,964,8.0,71.0
1654,84.0,953,243,0.0,66.0
1655,86.0,232,78,0.0,75.0
1656,84.0,78,80,0.0,52.0
1657,83.0,80,83,0.0,50.0
1658,84.0,83,247,0.0,66.0
1659,58.0,0,961,6.0,61.0
1660,86.0,247,241,0.0,70.0
1661,64.0,0,961,2.0,51.0
1662,36.0,0,961,10.0,53.0
1663,79.0,11,961,1.0,73.0
1664,70.0,0,961,1.0,73.0
1665,55.0,0,1925,7.0,56.0
1666,67.0,0,961,5.0,77.0
1667,48.0,0,961,8.0,53.0
1668,87.0,481,0,0.0,63.0
1669,57.0,0,859,6.0,57.0
1670,72.0,0,859,1.0,43.0
1671,60.0,0,859,5.0,41.0
1672,69.0,0,859,1.0,43.0
1673,60.0,0,1920,2.0,58.0
1674,63.0,0,959,2.0,54.0
1675,53.0,0,959,8.0,63.0
1676,41.0,0,959,10.0,63.0
1677,65.0,241,959,3.0,63.0
1678,74.0,240,0,1.0,68.0
1679,70.0,0,240,1.0,62.0
1680,62.0,479,240,5.0,61.0
1681,58.0,0,240,6.0,69.0
1682,53.0,0,1440,7.0,57.0
1683,62.0,0,240,6.0,77.0
1684,86.0,0,480,0.0,56.0
1685,77.0,0,240,1.0,68.0
1686,70.0,0,240,5.0,92.0
1687,58.0,0,480,2.0,51.0
1688,62.0,0,480,2.0,51.0
1689,34.0,0,480,10.0,54.0
1690,46.0,0,480,8.0,54.0
1691,70.0,0,480,3.0,99.0
1692,58.0,0,480,3.0,99.0
1693,75.0,240,239,1.0,70.0
1694,63.0,0,239,6.0,69.0
1695,67.0,0,239,5.0,50.0
1696,79.0,0,239,1.0,70.0
1697,60.0,0,190,6.0,50.0
1698,63.0,0,190,5.0,49.0
1699,39.0,0,479,10.0,66.0
1700,51.0,0,479,8.0,66.0
1701,87.0,0,479,0.0,65.0
1702,75.0,239,240,1.0,46.0
1703,60.0,0,479,2.0,65.0
1704,55.0,0,479,7.0,64.0
1705,63.0,0,479,2.0,65.0
1706,72.0,0,240,1.0,46.0
1707,62.0,0,480,5.0,61.0
1708,70.0,0,480,1.0,51.0
1709,53.0,0,480,7.0,57.0
1710,53.0,0,480,8.0,63.0
1711,74.0,0,480,1.0,51.0
1712,86.0,0,480,0.0,48.0
1713,62.0,0,480,2.0,51.0
1714,74.0,0,480,3.0,75.0
1715,70.0,0,480,3.0,75.0
1716,58.0,0,480,6.0,49.0
1717,41.0,240,480,10.0,63.0
1718,58.0,0,480,2.0,51.0
1719,57.0,0,380,6.0,57.0
1720,60.0,0,380,5.0,53.0
1721,53.0,0,480,7.0,62.0
1722,72.0,0,480,1.0,53.0
1723,57.0,0,480,2.0,60.0
1724,60.0,0,480,2.0,60.0
1725,69.0,480,480,1.0,53.0
1726,29.0,0,480,10.0,39.0
1727,72.0,0,480,3.0,67.0
1728,65.0,0,480,3.0,67.0
1729,41.0,0,480,8.0,39.0
1730,84.0,0,480,0.0,53.0
1731,82.0,477,116,5.0,70.0
1732,82.0,240,57,5.0,72.0
1733,82.0,120,57,5.0,73.0
1734,82.0,120,117,5.0,74.0
1735,82.0,240,117,5.0,75.0
1736,82.0,240,240,5.0,75.0
1737,86.0,240,190,5.0,74.0
1738,77.0,240,240,5.0,73.0
1739,82.0,240,190,5.0,72.0
1740,62.0,0,1920,3.0,55.0
1741,70.0,0,1920,3.0,55.0
1742,62.0,3,1920,7.0,88.0
1743,65.0,0,1923,6.0,83.0
1744,74.0,0,117,5.0,70.0
1745,74.0,240,57,5.0,70.0
1746,74.0,120,57,5.0,70.0
1747,74.0,120,117,5.0,73.0
1748,74.0,240,117,5.0,74.0
1749,74.0,240,240,5.0,75.0
1750,77.0,240,190,5.0,76.0
1751,70.0,240,240,5.0,77.0
1752,74.0,240,190,5.0,78.0
1753,70.0,0,1920,6.0,82.0
1754,58.0,0,1920,3.0,62.0
1755,74.0,240,1920,3.0,62.0
1756,58.0,0,1920,7.0,55.0
1757,65.0,240,117,5.0,68.0
1758,65.0,0,240,6.0,50.0
1759,62.0,0,240,7.0,68.0
1760,65.0,240,57,5.0,69.0
1761,65.0,120,57,5.0,70.0
1762,65.0,0,117,5.0,72.0
1763,58.0,120,240,7.0,52.0
1764,62.0,0,240,6.0,55.0
1765,65.0,240,117,5.0,72.0
1766,65.0,240,117,5.0,70.0
1767,60.0,0,240,7.0,53.0
1768,63.0,0,240,6.0,52.0
1769,65.0,240,117,5.0,70.0
1770,65.0,0,117,5.0,70.0
1771,57.0,0,240,7.0,58.0
1772,60.0,240,240,6.0,50.0
1773,65.0,240,93,5.0,70.0
1774,77.0,0,1920,3.0,70.0
1775,53.0,0,1920,3.0,70.0
1776,82.0,240,117,0.0,64.0
1777,82.0,0,117,1.0,71.0
1778,70.0,0,117,1.0,71.0
1779,82.0,0,57,1.0,64.0
1780,70.0,0,57,1.0,64.0
1781,82.0,240,57,0.0,66.0
1782,70.0,120,57,1.0,74.0
1783,82.0,0,57,0.0,67.0
1784,82.0,0,57,1.0,74.0
1785,82.0,120,117,1.0,69.0
1786,70.0,0,117,1.0,69.0
1787,82.0,0,117,0.0,67.0
1788,82.0,240,117,1.0,74.0
1789,70.0,0,117,1.0,74.0
1790,82.0,0,117,0.0,69.0
1791,70.0,240,240,1.0,74.0
1792,82.0,0,240,1.0,74.0
1793,82.0,0,240,0.0,69.0
1794,74.0,240,240,1.0,49.0
1795,86.0,0,240,0.0,89.0
1796,65.0,240,240,1.0,80.0
1797,77.0,0,240,1.0,80.0
1798,77.0,0,240,0.0,48.0
1799,82.0,0,240,0.0,82.0
1800,38.0,0,1920,10.0,45.0
1801,77.0,0,1920,5.0,73.0
1802,50.0,0,1920,8.0,45.0
1803,65.0,0,1920,6.0,46.0
1804,58.0,0,1920,7.0,46.0
1805,70.0,240,240,1.0,48.0
1806,62.0,240,117,2.0,63.0
1807,74.0,0,117,1.0,82.0
1808,62.0,240,57,2.0,72.0
1809,74.0,0,57,1.0,79.0
1810,74.0,120,57,1.0,70.0
1811,62.0,0,57,2.0,77.0
1812,62.0,0,480,1.0,55.0
1813,74.0,0,480,0.0,50.0
1814,74.0,120,117,1.0,70.0
1815,62.0,0,117,2.0,72.0
1816,74.0,240,117,1.0,72.0
1817,62.0,0,117,2.0,79.0
1818,74.0,0,240,1.0,67.0
1819,62.0,240,240,2.0,70.0
1820,77.0,240,240,1.0,86.0
1821,65.0,0,240,2.0,84.0
1822,58.0,0,240,2.0,63.0
1823,70.0,240,240,1.0,49.0
1824,82.0,0,1920,5.0,66.0
1825,46.0,0,1920,8.0,48.0
1826,62.0,240,240,2.0,84.0
1827,74.0,0,240,1.0,81.0
1828,70.0,0,1920,7.0,75.0
1829,34.0,0,1920,10.0,48.0
1830,77.0,0,1920,6.0,74.0
1831,65.0,0,117,3.0,75.0
1832,53.0,0,117,2.0,56.0
1833,77.0,0,240,5.0,32.0
1834,65.0,0,240,7.0,45.0
1835,62.0,0,240,7.0,45.0
1836,74.0,0,240,6.0,45.0
1837,65.0,240,57,3.0,73.0
1838,53.0,0,57,2.0,72.0
1839,53.0,0,57,2.0,69.0
1840,65.0,120,57,3.0,77.0
1841,53.0,0,480,8.0,59.0
1842,65.0,240,480,1.0,46.0
1843,41.0,0,480,10.0,59.0
1844,53.0,120,117,2.0,64.0
1845,65.0,0,117,3.0,73.0
1846,70.0,0,240,6.0,54.0
1847,74.0,0,240,5.0,39.0
1848,62.0,0,240,7.0,52.0
1849,58.0,0,240,7.0,52.0
1850,65.0,0,117,3.0,72.0
1851,53.0,240,117,2.0,68.0
1852,53.0,0,117,2.0,71.0
1853,65.0,240,117,3.0,74.0
1854,63.0,0,240,7.0,50.0
1855,75.0,0,240,5.0,45.0
1856,60.0,0,240,7.0,50.0
1857,72.0,0,240,6.0,45.0
1858,53.0,0,117,2.0,75.0
1859,65.0,240,117,3.0,77.0
1860,65.0,0,117,3.0,75.0
1861,53.0,0,117,2.0,66.0
1862,60.0,0,240,7.0,43.0
1863,72.0,240,240,5.0,40.0
1864,57.0,0,240,7.0,43.0
1865,69.0,0,240,6.0,42.0
1866,53.0,0,117,2.0,72.0
1867,65.0,240,117,3.0,76.0
1868,58.0,0,116,6.0,89.0
1869,70.0,0,116,0.0,77.0
1870,58.0,0,116,5.0,83.0
1871,60.0,0,59,6.0,108.0
1872,60.0,0,59,5.0,111.0
1873,72.0,249,59,0.0,94.0
1874,62.0,0,58,6.0,114.0
1875,74.0,0,58,0.0,95.0
1876,62.0,124,58,5.0,113.0
1877,46.0,0,497,2.0,66.0
1878,34.0,0,497,10.0,83.0
1879,58.0,0,497,7.0,85.0
1880,58.0,0,497,3.0,101.0
1881,46.0,209,497,8.0,83.0
1882,70.0,0,497,3.0,101.0
1883,63.0,0,58,6.0,112.0
1884,75.0,124,58,0.0,91.0
1885,63.0,0,58,5.0,103.0
1886,65.0,126,57,6.0,115.0
1887,77.0,0,57,0.0,100.0
1888,65.0,0,57,5.0,114.0
1889,79.0,0,57,0.0,97.0
1890,67.0,0,57,5.0,103.0
1891,67.0,128,57,6.0,112.0
1892,69.0,0,57,6.0,115.0
1893,81.0,0,57,0.0,98.0
1894,69.0,125,57,5.0,114.0
1895,70.0,124,121,5.0,114.0
1896,82.0,0,121,0.0,100.0
1897,70.0,0,121,6.0,106.0
1898,81.0,0,120,0.0,84.0
1899,69.0,121,120,5.0,95.0
1900,69.0,0,120,6.0,86.0
1901,70.0,0,120,5.0,110.0
1902,82.0,0,120,0.0,86.0
1903,70.0,0,120,6.0,108.0
1904,70.0,0,240,3.0,81.0
1905,58.0,0,240,3.0,81.0
1906,81.0,0,120,0.0,77.0
1907,39.0,0,240,10.0,89.0
1908,67.0,0,240,7.0,89.0
1909,51.0,120,240,2.0,75.0
1910,69.0,120,120,5.0,88.0
1911,69.0,0,120,6.0,86.0
1912,51.0,0,240,8.0,89.0
1913,82.0,0,120,0.0,91.0
1914,70.0,0,120,5.0,104.0
1915,70.0,0,120,6.0,105.0
1916,69.0,0,120,6.0,84.0
1917,58.0,0,240,3.0,82.0
1918,50.0,0,240,8.0,93.0
1919,38.0,0,240,10.0,93.0
1920,70.0,0,240,3.0,82.0
1921,50.0,120,240,2.0,79.0
1922,65.0,0,240,7.0,78.0
1923,69.0,120,120,5.0,87.0
1924,81.0,0,120,0.0,77.0
1925,82.0,0,120,0.0,87.0
1926,70.0,0,120,5.0,105.0
1927,70.0,0,120,6.0,104.0
1928,69.0,0,96,5.0,92.0
1929,81.0,120,96,0.0,79.0
1930,69.0,0,96,6.0,90.0
1931,48.0,0,230,8.0,88.0
1932,36.0,120,230,10.0,88.0
1933,63.0,0,230,7.0,88.0
1934,70.0,0,230,3.0,81.0
1935,58.0,0,230,3.0,81.0
1936,48.0,0,230,2.0,81.0
1937,70.0,0,117,5.0,108.0
1938,70.0,0,117,6.0,101.0
1939,70.0,0,2196,1.0,69.0
1940,72.0,0,57,5.0,114.0
1941,72.0,0,57,1.0,96.0
1942,72.0,236,57,6.0,119.0
1943,74.0,120,57,5.0,115.0
1944,74.0,0,57,1.0,95.0
1945,74.0,0,57,6.0,116.0
1946,82.0,0,473,0.0,92.0
1947,70.0,117,0,3.0,87.0
1948,46.0,0,473,8.0,89.0
1949,58.0,0,0,3.0,87.0
1950,62.0,0,473,7.0,80.0
1951,34.0,119,473,10.0,89.0
1952,46.0,0,473,2.0,78.0
1953,75.0,0,59,6.0,108.0
1954,75.0,0,59,1.0,94.0
1955,75.0,0,59,5.0,117.0
1956,77.0,120,59,6.0,115.0
1957,77.0,0,59,5.0,119.0
1958,77.0,0,59,1.0,96.0
1959,79.0,0,59,6.0,109.0
1960,79.0,0,59,1.0,93.0
1961,79.0,120,59,5.0,119.0
1962,70.0,120,0,3.0,81.0
1963,81.0,0,59,1.0,95.0
1964,81.0,0,59,5.0,114.0
1965,81.0,0,59,6.0,109.0
1966,58.0,0,0,3.0,87.0
1967,82.0,0,120,0.0,77.0
1968,82.0,0,120,6.0,109.0
1969,82.0,123,120,5.0,107.0
1970,82.0,0,120,1.0,89.0
1971,81.0,0,117,6.0,93.0
1972,70.0,0,237,3.0,87.0
1973,81.0,120,117,0.0,71.0
1974,81.0,0,117,1.0,80.0
1975,81.0,0,117,5.0,90.0
1976,82.0,0,120,0.0,92.0
1977,82.0,0,120,6.0,104.0
1978,82.0,0,120,5.0,99.0
1979,82.0,0,120,1.0,86.0
1980,67.0,117,240,7.0,88.0
1981,70.0,0,240,3.0,82.0
1982,51.0,0,240,8.0,88.0
1983,58.0,0,240,3.0,82.0
1984,39.0,0,240,10.0,88.0
1985,51.0,0,240,2.0,74.0
1986,81.0,0,120,6.0,91.0
1987,81.0,120,120,0.0,84.0
1988,81.0,0,120,5.0,93.0
1989,81.0,0,120,1.0,75.0
1990,82.0,0,120,6.0,103.0
1991,82.0,0,120,1.0,89.0
1992,82.0,0,120,0.0,88.0
1993,82.0,0,120,5.0,100.0
1994,81.0,0,119,5.0,85.0
1995,65.0,120,239,7.0,88.0
1996,38.0,0,239,10.0,93.0
1997,70.0,0,239,3.0,88.0
1998,58.0,0,239,3.0,88.0
1999,50.0,0,239,2.0,78.0
2000,81.0,0,119,0.0,80.0
2001,81.0,120,119,6.0,91.0
2002,50.0,0,239,8.0,93.0
2003,81.0,0,119,1.0,73.0
2004,82.0,0,120,5.0,104.0
2005,82.0,0,120,0.0,94.0
2006,82.0,119,120,1.0,84.0
2007,82.0,0,120,6.0,108.0
2008,81.0,0,96,0.0,79.0
2009,81.0,120,96,5.0,86.0
2010,81.0,0,96,1.0,79.0
2011,81.0,0,96,6.0,89.0
2012,36.0,0,239,10.0,94.0
2013,63.0,0,239,7.0,76.0
2014,48.0,0,239,8.0,94.0
2015,58.0,0,239,3.0,88.0
2016,48.0,0,239,2.0,83.0
2017,70.0,0,239,3.0,88.0
2018,82.0,0,239,5.0,104.0
2019,46.0,0,239,2.0,76.0
2020,46.0,0,239,8.0,94.0
2021,62.0,0,239,7.0,85.0
2022,70.0,0,239,3.0,88.0
2023,82.0,0,239,1.0,95.0
2024,58.0,0,239,3.0,88.0
2025,82.0,0,239,6.0,108.0
2026,34.0,0,239,10.0,94.0
2027,82.0,120,239,0.0,92.0
2028,86.0,0,237,5.0,120.0
2029,86.0,0,237,0.0,99.0
2030,82.0,0,237,6.0,99.0
2031,74.0,0,237,6.0,99.0
2032,65.0,0,237,3.0,64.0
2033,58.0,0,237,2.0,105.0
2034,62.0,0,237,3.0,64.0
2035,46.0,0,237,10.0,124.0
2036,70.0,0,237,7.0,126.0
2037,77.0,0,237,5.0,120.0
2038,58.0,479,237,8.0,124.0
2039,77.0,0,237,1.0,65.0
2040,74.0,0,237,1.0,65.0
2041,82.0,0,421,0.0,81.0
2042,58.0,0,421,6.0,86.0
2043,62.0,0,421,3.0,83.0
2044,58.0,0,421,3.0,83.0
2045,58.0,0,421,7.0,87.0
2046,58.0,0,421,5.0,93.0
2047,34.0,0,421,10.0,91.0
2048,46.0,0,421,8.0,91.0
2049,74.0,480,421,1.0,76.0
2050,46.0,0,421,2.0,75.0
2051,70.0,0,421,1.0,76.0
2052,62.0,0,480,4.0,80.0
2053,58.0,0,480,4.0,67.0
2054,70.0,0,480,4.0,80.0
2055,46.0,960,480,4.0,67.0
2056,65.0,0,480,4.0,80.0
2057,70.0,360,0,4.0,78.0
2058,70.0,0,0,4.0,84.0
2059,58.0,0,480,4.0,65.0
2060,62.0,480,480,4.0,65.0
2061,72.0,480,240,4.0,84.0
2062,69.0,240,240,4.0,72.0
2063,63.0,0,480,4.0,76.0
2064,53.0,0,480,4.0,76.0
2065,70.0,0,381,4.0,84.0
2066,62.0,240,480,4.0,63.0
2067,58.0,0,480,4.0,63.0
2068,53.0,0,480,4.0,59.0
2069,72.0,480,0,4.0,72.0
2070,65.0,0,480,4.0,69.0
2071,41.0,0,480,4.0,59.0
2072,69.0,0,480,4.0,69.0
2073,72.0,360,0,4.0,81.0
2074,72.0,120,480,4.0,86.0
2075,65.0,0,480,4.0,58.0
2076,69.0,480,480,4.0,87.0
2077,72.0,0,480,4.0,87.0
2078,53.0,0,480,4.0,58.0
2079,70.0,480,240,4.0,71.0
2080,72.0,240,120,4.0,93.0
2081,74.0,120,120,4.0,97.0
2082,67.0,0,480,4.0,65.0
2083,58.0,0,480,4.0,71.0
2084,65.0,0,480,4.0,71.0
2085,69.0,0,480,4.0,82.0
2086,53.0,0,480,4.0,70.0
2087,65.0,0,480,4.0,70.0
2088,72.0,120,480,4.0,73.0
2089,58.0,240,240,4.0,57.0
2090,74.0,1440,720,4.0,79.0
2091,62.0,240,240,4.0,73.0
2092,65.0,0,240,4.0,72.0
2093,70.0,240,240,4.0,64.0
2094,60.0,240,252,4.0,54.0
2095,75.0,240,748,4.0,107.0
2096,63.0,252,256,4.0,69.0
2097,69.0,0,212,4.0,86.0
2098,72.0,256,212,4.0,72.0
2099,62.0,0,236,4.0,39.0
2100,77.0,226,356,4.0,106.0
2101,74.0,120,119,4.0,70.0
2102,65.0,236,239,4.0,67.0
2103,70.0,0,240,4.0,76.0
2104,65.0,240,240,4.0,40.0
2105,77.0,119,720,4.0,92.0
2106,76.0,240,116,4.0,75.0
2107,77.0,116,115,4.0,90.0
2108,62.0,240,471,4.0,46.0
2109,79.0,115,120,4.0,94.0
2110,77.0,120,120,4.0,79.0
2111,75.0,120,112,4.0,71.0
2112,74.0,112,128,4.0,78.0
2113,72.0,0,236,4.0,68.0
2114,74.0,236,60,4.0,82.0
2115,72.0,60,60,4.0,69.0
2116,71.0,60,120,4.0,70.0
2117,72.0,120,244,4.0,89.0
2118,55.0,128,960,4.0,62.0
2119,74.0,244,240,4.0,92.0
2120,75.0,240,240,4.0,97.0
2121,67.0,240,233,4.0,59.0
2122,51.0,0,1433,4.0,67.0
2123,72.0,233,236,4.0,105.0
2124,70.0,236,191,4.0,71.0
2125,52.0,0,487,4.0,80.0
2126,60.0,0,960,4.0,85.0
2127,70.0,251,236,4.0,83.0
2128,53.0,0,476,4.0,66.0
2129,69.0,236,240,4.0,71.0
2130,67.0,240,240,4.0,58.0
2131,65.0,240,241,4.0,51.0
2132,64.0,241,160,4.0,58.0
2133,65.0,160,161,4.0,66.0
2134,66.0,161,163,4.0,75.0
2135,67.0,163,161,4.0,83.0
2136,68.0,161,162,4.0,95.0
2137,69.0,162,129,4.0,91.0
2138,62.0,162,239,6.0,56.0
2139,70.0,0,239,5.0,55.0
2140,70.0,0,479,4.0,90.0
2141,46.0,0,479,10.0,50.0
2142,58.0,0,479,8.0,50.0
2143,65.0,0,479,7.0,56.0
2144,70.0,479,176,5.0,61.0
2145,62.0,0,176,6.0,57.0
2146,70.0,0,59,5.0,56.0
2147,62.0,356,59,6.0,60.0
2148,70.0,120,239,5.0,59.0
2149,62.0,0,239,6.0,61.0
2150,62.0,0,237,6.0,57.0
2151,70.0,479,237,5.0,64.0
2152,58.0,0,480,8.0,58.0
2153,46.0,0,480,10.0,58.0
2154,65.0,0,0,7.0,56.0
2155,53.0,0,232,8.0,51.0
2156,41.0,7,232,10.0,51.0
2157,72.0,0,243,5.0,65.0
2158,63.0,473,243,6.0,63.0
2159,69.0,0,244,5.0,55.0
2160,65.0,0,0,7.0,60.0
2161,60.0,236,244,6.0,55.0
2162,82.0,244,120,4.0,76.0
2163,34.0,0,237,10.0,48.0
2164,46.0,0,237,8.0,48.0
2165,81.0,120,121,4.0,73.0
2166,82.0,121,121,4.0,94.0
2167,81.0,121,123,4.0,77.0
2168,70.0,0,485,5.0,70.0
2169,62.0,0,485,6.0,62.0
2170,84.0,123,117,4.0,94.0
2171,82.0,117,119,4.0,73.0
2172,81.0,119,119,4.0,69.0
2173,82.0,0,960,0.0,56.0
2174,58.0,0,960,2.0,53.0
2175,70.0,0,960,1.0,52.0
2176,79.0,119,120,4.0,70.0
2177,79.0,0,116,4.0,84.0
2178,77.0,116,120,4.0,72.0
2179,75.0,120,117,4.0,69.0
2180,83.0,120,480,0.0,70.0
2181,74.0,117,127,4.0,69.0
2182,71.0,0,480,1.0,58.0
2183,59.0,0,480,2.0,57.0
2184,69.0,0,236,6.0,54.0
2185,72.0,0,236,5.0,54.0
2186,84.0,4,376,0.0,68.0
2187,72.0,0,376,1.0,74.0
2188,53.0,0,480,8.0,54.0
2189,60.0,0,476,2.0,69.0
2190,41.0,0,480,10.0,54.0
2191,72.0,0,476,4.0,73.0
2192,65.0,123,480,7.0,51.0
2193,72.0,476,177,5.0,58.0
2194,69.0,0,177,6.0,56.0
2195,72.0,360,57,5.0,61.0
2196,69.0,0,57,6.0,56.0
2197,69.0,0,237,6.0,66.0
2198,72.0,120,237,5.0,61.0
2199,72.0,0,237,5.0,59.0
2200,69.0,484,237,6.0,65.0
2201,53.0,0,480,8.0,59.0
2202,65.0,0,480,7.0,63.0
2203,41.0,0,480,10.0,59.0
2204,58.0,8,232,8.0,69.0
2205,46.0,0,232,10.0,69.0
2206,70.0,0,244,5.0,53.0
2207,67.0,472,244,6.0,54.0
2208,72.0,236,124,5.0,72.0
2209,69.0,0,124,6.0,72.0
2210,65.0,120,0,7.0,63.0
2211,74.0,124,120,5.0,73.0
2212,70.0,0,120,6.0,68.0
2213,84.0,0,120,4.0,74.0
2214,41.0,0,237,10.0,52.0
2215,53.0,0,237,8.0,52.0
2216,83.0,120,121,4.0,69.0
2217,84.0,121,121,4.0,87.0
2218,69.0,0,485,6.0,57.0
2219,83.0,121,123,4.0,83.0
2220,72.0,0,485,5.0,62.0
2221,86.0,123,117,4.0,100.0
2222,84.0,117,120,4.0,72.0
2223,82.0,120,118,4.0,69.0
2224,81.0,118,120,4.0,65.0
2225,72.0,0,960,1.0,56.0
2226,60.0,0,960,2.0,53.0
2227,84.0,0,960,0.0,56.0
2228,81.0,0,116,4.0,80.0
2229,79.0,116,120,4.0,64.0
2230,77.0,120,117,4.0,71.0
2231,85.0,0,376,0.0,66.0
2232,73.0,120,376,1.0,70.0
2233,61.0,0,376,2.0,60.0
2234,75.0,117,127,4.0,69.0
2235,74.0,4,233,4.0,74.0
2236,74.0,0,480,1.0,60.0
2237,58.0,0,243,4.0,54.0
2238,62.0,0,480,2.0,69.0
2239,86.0,123,480,0.0,74.0
2240,62.0,243,240,4.0,79.0
2241,74.0,233,483,4.0,79.0
2242,70.0,0,240,4.0,67.0
2243,65.0,240,240,4.0,71.0
2244,75.0,240,244,4.0,98.0
2245,60.0,0,240,4.0,60.0
2246,75.0,244,480,4.0,88.0
2247,63.0,240,240,4.0,73.0
2248,72.0,240,240,4.0,71.0
2249,69.0,0,240,4.0,83.0
2250,77.0,240,236,4.0,102.0
2251,74.0,236,240,4.0,66.0
2252,70.0,0,476,4.0,63.0
2253,62.0,0,476,4.0,63.0
2254,82.0,240,117,4.0,109.0
2255,82.0,240,117,4.0,94.0
2256,72.0,0,242,4.0,65.0
2257,63.0,0,486,4.0,48.0
2258,75.0,242,244,4.0,99.0
2259,67.0,244,486,4.0,48.0
2260,79.0,244,119,4.0,104.0
2261,79.0,244,119,4.0,83.0
2262,53.0,237,239,4.0,60.0
2263,62.0,239,237,4.0,86.0
2264,65.0,237,239,4.0,82.0
2265,70.0,239,1193,4.0,61.0
2266,69.0,241,244,4.0,79.0
2267,60.0,0,485,4.0,45.0
2268,63.0,239,485,4.0,45.0
2269,72.0,0,244,4.0,98.0
2270,75.0,244,230,4.0,100.0
2271,60.0,0,474,4.0,49.0
2272,57.0,244,474,4.0,49.0
2273,53.0,0,959,4.0,79.0
2274,74.0,0,238,4.0,76.0
2275,81.0,238,119,4.0,117.0
2276,82.0,119,120,4.0,94.0
2277,58.0,0,477,4.0,56.0
2278,81.0,120,117,4.0,77.0
2279,82.0,117,120,4.0,90.0
2280,81.0,120,119,4.0,78.0
2281,58.0,0,953,8.0,47.0
2282,46.0,0,953,10.0,47.0
2283,82.0,119,120,4.0,95.0
2284,74.0,242,953,6.0,46.0
2285,77.0,0,953,5.0,48.0
2286,58.0,0,953,7.0,49.0
2287,72.0,0,236,4.0,53.0
2288,78.0,236,119,4.0,104.0
2289,55.0,0,475,4.0,62.0
2290,79.0,119,120,4.0,94.0
2291,51.0,0,475,4.0,62.0
2292,78.0,120,120,4.0,77.0
2293,79.0,120,120,4.0,94.0
2294,78.0,120,120,4.0,75.0
2295,72.0,120,955,6.0,41.0
2296,75.0,0,955,5.0,46.0
2297,67.0,0,955,7.0,68.0
2298,51.0,0,955,8.0,34.0
2299,79.0,120,120,4.0,89.0
2300,39.0,0,955,10.0,34.0
2301,70.0,0,480,4.0,57.0
2302,58.0,240,240,4.0,74.0
2303,62.0,240,240,4.0,77.0
2304,74.0,0,720,4.0,94.0
2305,65.0,240,240,4.0,74.0
2306,70.0,120,1336,6.0,37.0
2307,74.0,0,1336,5.0,38.0
2308,77.0,0,240,4.0,105.0
2309,62.0,240,240,4.0,57.0
2310,60.0,0,240,4.0,53.0
2311,72.0,0,240,6.0,58.0
2312,75.0,240,240,4.0,80.0
2313,75.0,0,240,5.0,58.0
2314,41.0,0,1816,10.0,50.0
2315,53.0,0,1816,8.0,50.0
2316,65.0,0,1816,7.0,51.0
2317,57.0,0,240,4.0,46.0
2318,72.0,240,240,4.0,65.0
2319,53.0,240,1680,4.0,78.0
2320,69.0,0,240,6.0,44.0
2321,72.0,0,240,5.0,38.0
2322,58.0,0,240,7.0,78.0
2323,46.0,0,240,10.0,110.0
2324,58.0,0,240,8.0,110.0
2325,58.0,0,480,3.0,83.0
2326,58.0,0,480,4.0,61.0
2327,82.0,0,480,0.0,73.0
2328,41.0,0,240,10.0,88.0
2329,70.0,0,480,4.0,66.0
2330,53.0,0,240,8.0,88.0
2331,53.0,240,240,7.0,82.0
2332,70.0,0,480,3.0,83.0
2333,58.0,0,240,7.0,110.0
2334,46.0,0,240,10.0,112.0
2335,58.0,0,240,8.0,112.0
2336,53.0,0,0,3.0,73.0
2337,65.0,120,0,3.0,73.0
2338,70.0,240,960,5.0,85.0
2339,53.0,240,240,8.0,83.0
2340,53.0,0,240,7.0,82.0
2341,53.0,120,0,3.0,84.0
2342,62.0,0,960,5.0,85.0
2343,46.0,0,960,2.0,77.0
2344,70.0,0,960,6.0,108.0
2345,62.0,0,960,6.0,108.0
2346,41.0,0,240,10.0,83.0
2347,77.0,0,480,0.0,62.0
2348,58.0,0,240,7.0,106.0
2349,58.0,0,240,8.0,101.0
2350,46.0,0,240,10.0,101.0
2351,82.0,240,117,5.0,88.0
2352,70.0,0,117,6.0,82.0
2353,41.0,0,240,10.0,73.0
2354,65.0,0,480,3.0,84.0
2355,82.0,0,480,0.0,97.0
2356,53.0,240,0,3.0,91.0
2357,53.0,0,240,7.0,91.0
2358,53.0,0,240,8.0,73.0
2359,82.0,0,117,5.0,96.0
2360,70.0,0,117,6.0,96.0
2361,46.0,0,240,10.0,109.0
2362,58.0,0,240,7.0,105.0
2363,58.0,0,240,8.0,109.0
2364,70.0,0,117,6.0,99.0
2365,82.0,0,117,5.0,91.0
2366,58.0,0,480,2.0,76.0
2367,53.0,0,0,3.0,78.0
2368,65.0,0,0,3.0,78.0
2369,41.0,0,240,10.0,92.0
2370,53.0,240,240,7.0,98.0
2371,53.0,0,240,8.0,92.0
2372,86.0,0,480,0.0,108.0
2373,82.0,0,60,5.0,97.0
2374,70.0,0,60,6.0,98.0
2375,72.0,0,60,6.0,107.0
2376,84.0,60,60,5.0,115.0
2377,48.0,0,240,10.0,114.0
2378,70.0,0,120,6.0,90.0
2379,82.0,60,120,5.0,80.0
2380,60.0,0,240,8.0,114.0
2381,60.0,0,240,7.0,126.0
2382,41.0,0,240,10.0,88.0
2383,69.0,0,240,6.0,91.0
2384,81.0,240,0,5.0,97.0
2385,53.0,0,240,7.0,89.0
2386,53.0,0,240,8.0,88.0
2387,60.0,0,240,7.0,126.0
2388,48.0,0,240,10.0,109.0
2389,60.0,0,240,8.0,109.0
2390,41.0,0,240,10.0,83.0
2391,53.0,240,240,7.0,99.0
2392,53.0,0,240,8.0,83.0
2393,60.0,0,240,7.0,126.0
2394,60.0,240,240,8.0,112.0
2395,48.0,0,240,10.0,112.0
2396,69.0,0,960,6.0,95.0
2397,53.0,240,240,7.0,82.0
2398,53.0,0,240,8.0,83.0
2399,63.0,0,1440,2.0,102.0
2400,41.0,0,240,10.0,83.0
2401,58.0,240,240,7.0,110.0
2402,58.0,0,240,8.0,112.0
2403,46.0,0,240,10.0,112.0
2404,62.0,0,360,2.0,82.0
2405,70.0,0,480,6.0,104.0
2406,70.0,0,480,1.0,59.0
2407,53.0,0,240,8.0,89.0
2408,53.0,240,240,7.0,89.0
2409,41.0,0,240,10.0,89.0
2410,60.0,120,120,2.0,71.0
2411,82.0,0,480,5.0,103.0
2412,57.0,0,240,7.0,107.0
2413,57.0,0,240,8.0,113.0
2414,71.0,0,240,6.0,103.0
2415,83.0,0,240,5.0,110.0
2416,45.0,0,240,10.0,113.0
2417,72.0,0,240,6.0,103.0
2418,84.0,0,240,5.0,119.0
2419,57.0,120,480,2.0,70.0
2420,53.0,240,240,7.0,89.0
2421,41.0,0,240,10.0,90.0
2422,53.0,0,240,8.0,90.0
2423,57.0,0,240,7.0,101.0
2424,45.0,0,240,10.0,112.0
2425,57.0,0,240,8.0,112.0
2426,60.0,240,480,2.0,92.0
2427,53.0,0,240,8.0,83.0
2428,75.0,0,960,1.0,82.0
2429,53.0,0,240,7.0,91.0
2430,41.0,240,240,10.0,83.0
2431,72.0,240,0,6.0,61.0
2432,84.0,0,0,5.0,59.0
2433,57.0,0,240,8.0,67.0
2434,45.0,0,240,10.0,67.0
2435,57.0,0,240,7.0,64.0
2436,72.0,0,480,1.0,59.0
2437,41.0,0,240,10.0,53.0
2438,53.0,0,240,7.0,63.0
2439,53.0,0,240,8.0,53.0
2440,57.0,240,480,2.0,53.0
2441,84.0,240,117,5.0,61.0
2442,72.0,0,117,6.0,63.0
2443,57.0,0,240,7.0,68.0
2444,57.0,0,240,8.0,65.0
2445,45.0,0,240,10.0,65.0
2446,72.0,0,117,6.0,58.0
2447,84.0,240,117,5.0,64.0
2448,69.0,0,480,1.0,56.0
2449,53.0,0,240,7.0,59.0
2450,53.0,0,480,2.0,56.0
2451,41.0,0,240,10.0,57.0
2452,63.0,0,480,1.0,56.0
2453,89.0,240,3840,0.0,101.0
2454,53.0,0,240,8.0,57.0
2455,77.0,0,127,4.0,52.0
2456,82.0,109,120,4.0,66.0
2457,72.0,222,247,6.0,68.0
2458,58.0,0,229,2.0,71.0
2459,84.0,0,247,5.0,60.0
2460,86.0,0,124,4.0,75.0
2461,89.0,124,116,4.0,70.0
2462,58.0,0,469,7.0,68.0
2463,86.0,0,240,5.0,67.0
2464,74.0,120,240,6.0,67.0
2465,46.0,18,469,10.0,72.0
2466,58.0,0,469,8.0,72.0
2467,53.0,0,240,2.0,56.0
2468,77.0,116,131,4.0,38.0
2469,89.0,131,120,4.0,82.0
2470,58.0,0,251,2.0,63.0
2471,77.0,120,120,4.0,44.0
2472,65.0,0,371,3.0,84.0
2473,65.0,120,120,3.0,84.0
2474,53.0,0,240,2.0,54.0
2475,89.0,0,120,4.0,86.0
2476,62.0,0,960,1.0,62.0
2477,70.0,0,960,1.0,62.0
2478,70.0,0,960,0.0,43.0
2479,82.0,0,491,5.0,44.0
2480,70.0,0,491,6.0,44.0
2481,77.0,0,120,4.0,40.0
2482,89.0,120,120,4.0,86.0
2483,82.0,120,117,0.0,58.0
2484,70.0,0,117,1.0,55.0
2485,77.0,0,120,4.0,45.0
2486,65.0,126,0,3.0,83.0
2487,89.0,120,126,4.0,80.0
2488,53.0,0,246,2.0,67.0
2489,58.0,0,0,2.0,77.0
2490,82.0,0,119,0.0,61.0
2491,70.0,0,119,1.0,57.0
2492,77.0,0,126,4.0,44.0
2493,89.0,126,120,4.0,86.0
2494,70.0,0,118,1.0,58.0
2495,82.0,0,118,0.0,62.0
2496,77.0,0,128,4.0,46.0
2497,62.0,0,474,2.0,74.0
2498,89.0,128,100,4.0,81.0
2499,53.0,120,228,2.0,70.0
2500,82.0,114,60,0.0,65.0
2501,77.0,0,120,4.0,45.0
2502,84.0,60,60,0.0,72.0
2503,89.0,0,116,4.0,83.0
2504,60.0,0,236,2.0,99.0
2505,70.0,0,236,1.0,52.0
2506,82.0,60,116,0.0,55.0
2507,77.0,116,120,4.0,45.0
2508,81.0,119,0,0.0,59.0
2509,69.0,0,239,1.0,49.0
2510,89.0,120,119,4.0,78.0
2511,53.0,0,239,2.0,76.0
2512,77.0,0,120,4.0,43.0
2513,89.0,120,120,4.0,87.0
2514,60.0,0,240,2.0,111.0
2515,77.0,120,116,4.0,44.0
2516,53.0,0,232,2.0,68.0
2517,89.0,116,116,4.0,86.0
2518,77.0,116,120,4.0,46.0
2519,89.0,120,120,4.0,78.0
2520,60.0,0,240,2.0,101.0
2521,77.0,120,120,4.0,41.0
2522,89.0,120,120,4.0,86.0
2523,53.0,0,240,2.0,67.0
2524,63.0,0,1427,2.0,72.0
2525,69.0,0,952,1.0,59.0
2526,77.0,120,124,4.0,44.0
2527,89.0,124,120,4.0,89.0
2528,58.0,0,244,2.0,84.0
2529,77.0,0,125,4.0,38.0
2530,70.0,0,479,1.0,66.0
2531,53.0,120,235,2.0,64.0
2532,89.0,125,110,4.0,90.0
2533,82.0,0,479,0.0,71.0
2534,62.0,0,479,2.0,53.0
2535,77.0,0,1906,1.0,81.0
2536,77.0,0,120,4.0,33.0
2537,83.0,119,237,0.0,63.0
2538,71.0,0,237,1.0,64.0
2539,57.0,0,237,2.0,80.0
2540,89.0,120,117,4.0,79.0
2541,77.0,117,120,4.0,49.0
2542,53.0,0,236,2.0,66.0
2543,89.0,120,116,4.0,88.0
2544,72.0,0,0,1.0,57.0
2545,84.0,0,0,0.0,64.0
2546,77.0,0,120,4.0,37.0
2547,57.0,116,240,2.0,79.0
2548,89.0,120,120,4.0,80.0
2549,77.0,0,120,4.0,43.0
2550,75.0,0,952,1.0,59.0
2551,89.0,120,119,4.0,86.0
2552,53.0,120,239,2.0,73.0
2553,60.0,0,952,2.0,46.0
2554,77.0,119,119,4.0,49.0
2555,72.0,0,240,1.0,49.0
2556,89.0,119,121,4.0,80.0
2557,57.0,0,240,2.0,58.0
2558,84.0,121,119,0.0,60.0
2559,77.0,0,120,4.0,46.0
2560,72.0,0,240,1.0,60.0
2561,89.0,120,120,4.0,86.0
2562,72.0,0,119,1.0,70.0
2563,84.0,0,119,0.0,58.0
2564,77.0,0,121,4.0,43.0
2565,89.0,121,120,4.0,77.0
2566,57.0,0,241,2.0,79.0
2567,73.0,0,119,1.0,73.0
2568,85.0,0,119,0.0,66.0
2569,77.0,120,127,4.0,48.0
2570,69.0,120,479,1.0,46.0
2571,89.0,127,111,4.0,87.0
2572,53.0,0,719,2.0,71.0
2573,65.0,0,3826,3.0,84.0
2574,86.0,116,120,4.0,75.0
2575,89.0,120,120,4.0,92.0
2576,81.0,120,120,4.0,60.0
2577,58.0,0,480,3.0,82.0
2578,84.0,120,120,4.0,89.0
2579,70.0,0,480,1.0,78.0
2580,86.0,0,480,0.0,65.0
2581,58.0,0,480,2.0,70.0
2582,74.0,0,480,1.0,78.0
2583,65.0,0,480,3.0,82.0
2584,82.0,120,117,4.0,75.0
2585,86.0,117,120,4.0,102.0
2586,78.0,120,119,4.0,52.0
2587,81.0,119,119,4.0,88.0
2588,79.0,119,120,4.0,75.0
2589,82.0,120,120,4.0,97.0
2590,74.0,120,120,4.0,60.0
2591,77.0,120,117,4.0,87.0
2592,75.0,0,119,4.0,71.0
2593,79.0,119,117,4.0,99.0
2594,77.0,117,119,4.0,76.0
2595,75.0,119,128,4.0,75.0
2596,60.0,0,483,4.0,50.0
2597,57.0,0,483,4.0,50.0
2598,53.0,0,483,4.0,50.0
2599,53.0,0,483,8.0,50.0
2600,63.0,0,483,6.0,47.0
2601,65.0,117,483,7.0,60.0
2602,41.0,0,483,10.0,50.0
2603,69.0,0,483,5.0,55.0
2604,74.0,0,116,4.0,70.0
2605,77.0,116,120,4.0,92.0
2606,69.0,120,120,4.0,60.0
2607,46.0,0,480,8.0,54.0
2608,65.0,0,480,7.0,60.0
2609,70.0,0,480,5.0,63.0
2610,34.0,128,480,10.0,54.0
2611,62.0,0,480,6.0,51.0
2612,72.0,120,124,4.0,98.0
2613,58.0,0,480,4.0,61.0
2614,70.0,124,120,4.0,79.0
2615,74.0,120,120,4.0,100.0
2616,66.0,120,116,4.0,59.0
2617,69.0,116,120,4.0,90.0
2618,67.0,120,120,4.0,72.0
2619,70.0,120,120,4.0,97.0
2620,62.0,120,117,4.0,56.0
2621,65.0,117,120,4.0,96.0
2622,63.0,0,119,4.0,80.0
2623,67.0,119,120,4.0,100.0
2624,65.0,120,120,4.0,81.0
2625,81.0,0,487,5.0,50.0
2626,53.0,0,487,8.0,54.0
2627,75.0,0,487,6.0,52.0
2628,41.0,0,487,4.0,47.0
2629,45.0,0,487,4.0,47.0
2630,48.0,120,487,4.0,47.0
2631,63.0,120,128,4.0,70.0
2632,41.0,0,487,10.0,54.0
2633,65.0,0,487,7.0,52.0
2634,62.0,0,236,4.0,73.0
2635,46.0,0,0,4.0,64.0
2636,58.0,236,120,4.0,77.0
2637,82.0,128,476,5.0,62.0
2638,62.0,120,120,4.0,106.0
2639,34.0,0,476,10.0,46.0
2640,74.0,0,476,6.0,53.0
2641,65.0,0,476,7.0,63.0
2642,46.0,0,476,8.0,46.0
2643,60.0,0,120,4.0,71.0
2644,63.0,120,120,4.0,101.0
2645,48.0,120,240,4.0,60.0
2646,62.0,0,124,4.0,72.0
2647,65.0,124,120,4.0,89.0
2648,50.0,120,244,4.0,63.0
2649,51.0,120,240,4.0,56.0
2650,63.0,0,240,4.0,73.0
2651,60.0,240,120,4.0,68.0
2652,48.0,0,240,4.0,60.0
2653,63.0,120,120,4.0,92.0
2654,62.0,120,120,4.0,77.0
2655,65.0,120,120,4.0,94.0
2656,50.0,0,240,4.0,57.0
2657,63.0,120,120,4.0,80.0
2658,51.0,0,240,4.0,68.0
2659,67.0,120,120,4.0,100.0
2660,65.0,0,240,4.0,81.0
2661,53.0,120,240,4.0,64.0
2662,62.0,240,120,4.0,73.0
2663,50.0,0,240,4.0,52.0
2664,65.0,120,120,4.0,94.0
2665,63.0,0,120,4.0,73.0
2666,67.0,120,120,4.0,96.0
2667,51.0,120,240,4.0,67.0
2668,65.0,0,120,4.0,78.0
2669,53.0,120,240,4.0,60.0
2670,68.0,120,120,4.0,98.0
2671,67.0,0,121,4.0,77.0
2672,55.0,120,241,4.0,66.0
2673,68.0,121,120,4.0,91.0
2674,65.0,120,121,4.0,68.0
2675,68.0,121,124,4.0,91.0
2676,53.0,0,245,4.0,65.0
2677,67.0,124,123,4.0,83.0
2678,55.0,0,244,4.0,67.0
2679,70.0,123,121,4.0,99.0
2680,69.0,0,124,4.0,90.0
2681,72.0,124,106,4.0,102.0
2682,57.0,121,230,4.0,70.0
2683,58.0,0,234,4.0,63.0
2684,70.0,124,234,4.0,78.0
2685,77.0,0,118,0.0,53.0
2686,53.0,234,118,2.0,55.0
2687,41.0,0,118,2.0,55.0
2688,65.0,0,118,1.0,51.0
2689,65.0,0,120,4.0,64.0
2690,53.0,0,238,4.0,55.0
2691,69.0,120,118,4.0,98.0
2692,41.0,0,238,4.0,55.0
2693,67.0,118,119,1.0,61.0
2694,79.0,0,119,0.0,66.0
2695,43.0,0,119,2.0,67.0
2696,55.0,0,119,2.0,67.0
2697,67.0,0,119,4.0,76.0
2698,70.0,119,120,4.0,102.0
2699,43.0,0,239,4.0,54.0
2700,55.0,0,239,4.0,54.0
2701,81.0,0,117,0.0,75.0
2702,45.0,0,117,2.0,72.0
2703,57.0,0,117,2.0,72.0
2704,69.0,0,117,1.0,61.0
2705,69.0,120,120,4.0,74.0
2706,57.0,0,236,4.0,65.0
2707,72.0,120,116,4.0,99.0
2708,45.0,0,236,4.0,65.0
2709,58.0,0,117,2.0,62.0
2710,82.0,0,117,0.0,69.0
2711,70.0,0,117,1.0,68.0
2712,46.0,0,117,2.0,62.0
2713,58.0,116,240,4.0,70.0
2714,46.0,0,240,4.0,70.0
2715,70.0,0,240,4.0,71.0
2716,45.0,0,117,2.0,62.0
2717,57.0,0,117,2.0,62.0
2718,81.0,0,117,0.0,52.0
2719,69.0,240,117,1.0,60.0
2720,69.0,0,120,4.0,71.0
2721,45.0,0,240,4.0,61.0
2722,57.0,0,240,4.0,61.0
2723,72.0,120,120,4.0,100.0
2724,70.0,0,117,1.0,61.0
2725,46.0,0,117,2.0,68.0
2726,82.0,120,117,0.0,65.0
2727,58.0,0,117,2.0,68.0
2728,70.0,0,120,4.0,85.0
2729,58.0,0,240,4.0,56.0
2730,46.0,0,240,4.0,56.0
2731,74.0,120,120,4.0,99.0
2732,48.0,0,117,2.0,68.0
2733,60.0,0,117,2.0,68.0
2734,84.0,0,117,0.0,65.0
2735,72.0,120,117,1.0,70.0
2736,72.0,0,120,4.0,79.0
2737,48.0,0,235,4.0,69.0
2738,60.0,0,235,4.0,69.0
2739,75.0,120,115,4.0,96.0
2740,86.0,121,119,0.0,70.0
2741,62.0,0,119,2.0,64.0
2742,74.0,0,119,1.0,70.0
2743,50.0,0,119,2.0,64.0
2744,62.0,0,236,4.0,63.0
2745,50.0,0,236,4.0,63.0
2746,74.0,0,236,4.0,81.0
2747,70.0,0,119,1.0,46.0
2748,82.0,236,119,0.0,48.0
2749,58.0,0,119,2.0,58.0
2750,46.0,0,119,2.0,58.0
2751,70.0,0,120,4.0,63.0
2752,46.0,0,240,4.0,58.0
2753,58.0,0,240,4.0,58.0
2754,74.0,120,120,4.0,99.0
2755,84.0,0,119,0.0,64.0
2756,48.0,0,119,2.0,74.0
2757,72.0,0,119,1.0,67.0
2758,72.0,0,119,4.0,78.0
2759,60.0,0,119,2.0,74.0
2760,48.0,0,239,4.0,58.0
2761,60.0,120,239,4.0,58.0
2762,75.0,119,120,4.0,100.0
2763,50.0,0,119,2.0,76.0
2764,62.0,0,119,2.0,76.0
2765,86.0,0,119,0.0,69.0
2766,74.0,0,119,1.0,71.0
2767,74.0,0,120,4.0,81.0
2768,77.0,120,120,4.0,96.0
2769,50.0,120,240,4.0,74.0
2770,62.0,0,240,4.0,74.0
2771,63.0,0,119,2.0,71.0
2772,87.0,0,119,0.0,68.0
2773,51.0,0,119,2.0,71.0
2774,75.0,0,119,1.0,66.0
2775,75.0,0,120,4.0,73.0
2776,77.0,120,120,4.0,90.0
2777,51.0,120,240,4.0,65.0
2778,63.0,0,240,4.0,65.0
2779,50.0,120,119,2.0,57.0
2780,62.0,0,119,2.0,57.0
2781,74.0,0,119,1.0,59.0
2782,86.0,0,119,0.0,57.0
2783,74.0,0,121,4.0,74.0
2784,77.0,121,120,4.0,100.0
2785,62.0,0,241,4.0,45.0
2786,50.0,0,241,4.0,45.0
2787,63.0,0,119,2.0,63.0
2788,75.0,0,119,1.0,68.0
2789,87.0,120,119,0.0,62.0
2790,51.0,0,119,2.0,63.0
2791,75.0,0,120,4.0,75.0
2792,63.0,0,240,4.0,69.0
2793,77.0,120,120,4.0,94.0
2794,51.0,0,240,4.0,69.0
2795,64.0,0,119,2.0,65.0
2796,52.0,120,119,2.0,65.0
2797,88.0,0,119,0.0,65.0
2798,76.0,0,119,1.0,64.0
2799,76.0,0,120,4.0,72.0
2800,79.0,120,118,4.0,95.0
2801,64.0,0,238,4.0,67.0
2802,52.0,0,238,4.0,67.0
2803,65.0,0,119,5.0,86.0
2804,65.0,0,119,6.0,89.0
2805,67.0,0,59,6.0,109.0
2806,67.0,239,59,5.0,104.0
2807,69.0,120,59,6.0,114.0
2808,69.0,0,59,5.0,114.0
2809,65.0,0,479,7.0,81.0
2810,53.0,0,479,2.0,70.0
2811,65.0,120,479,2.0,70.0
2812,89.0,0,479,0.0,58.0
2813,77.0,0,479,4.0,77.0
2814,65.0,0,479,4.0,69.0
2815,53.0,0,479,4.0,69.0
2816,41.0,0,479,10.0,93.0
2817,53.0,0,479,8.0,93.0
2818,77.0,0,479,1.0,66.0
2819,65.0,0,479,3.0,72.0
2820,70.0,120,59,6.0,107.0
2821,70.0,0,59,5.0,108.0
2822,72.0,120,59,5.0,116.0
2823,72.0,0,59,6.0,114.0
2824,74.0,120,59,6.0,112.0
2825,74.0,0,59,5.0,114.0
2826,76.0,121,59,5.0,114.0
2827,76.0,0,59,6.0,113.0
2828,77.0,0,120,6.0,111.0
2829,77.0,120,120,0.0,77.0
2830,77.0,0,120,5.0,102.0
2831,77.0,0,120,1.0,76.0
2832,76.0,120,120,6.0,91.0
2833,76.0,0,120,5.0,91.0
2834,76.0,0,120,1.0,82.0
2835,76.0,0,120,0.0,73.0
2836,46.0,0,119,10.0,85.0
2837,62.0,0,119,7.0,90.0
2838,58.0,0,119,2.0,72.0
2839,58.0,120,119,8.0,85.0
2840,77.0,0,120,1.0,88.0
2841,77.0,0,120,0.0,85.0
2842,77.0,0,120,6.0,106.0
2843,77.0,0,120,5.0,106.0
2844,76.0,0,120,0.0,77.0
2845,76.0,120,120,5.0,93.0
2846,76.0,0,120,6.0,95.0
2847,65.0,0,0,3.0,80.0
2848,76.0,0,120,1.0,77.0
2849,57.0,0,119,2.0,77.0
2850,45.0,0,119,10.0,97.0
2851,60.0,0,119,7.0,86.0
2852,57.0,0,119,8.0,97.0
2853,77.0,120,120,0.0,94.0
2854,77.0,0,120,1.0,90.0
2855,77.0,0,120,5.0,106.0
2856,77.0,0,120,6.0,102.0
2857,76.0,0,120,1.0,77.0
2858,76.0,120,120,6.0,86.0
2859,65.0,0,0,3.0,77.0
2860,76.0,0,120,0.0,72.0
2861,76.0,0,120,5.0,89.0
2862,43.0,120,119,10.0,87.0
2863,55.0,0,119,2.0,82.0
2864,58.0,0,119,7.0,91.0
2865,55.0,0,119,8.0,87.0
2866,77.0,0,120,5.0,112.0
2867,77.0,0,120,6.0,103.0
2868,77.0,0,120,1.0,88.0
2869,77.0,0,120,0.0,92.0
2870,76.0,120,118,5.0,86.0
2871,76.0,0,118,6.0,90.0
2872,76.0,0,118,0.0,82.0
2873,76.0,0,118,1.0,84.0
2874,77.0,0,59,5.0,106.0
2875,77.0,0,59,6.0,113.0
2876,77.0,0,120,1.0,88.0
2877,72.0,120,59,5.0,71.0
2878,72.0,0,59,6.0,70.0
2879,72.0,0,120,1.0,69.0
2880,74.0,0,59,6.0,98.0
2881,74.0,0,59,5.0,104.0
2882,74.0,120,116,1.0,93.0
2883,76.0,116,59,5.0,107.0
2884,76.0,0,59,6.0,103.0
2885,53.0,124,476,2.0,80.0
2886,65.0,0,476,3.0,86.0
2887,77.0,0,476,0.0,93.0
2888,57.0,0,476,7.0,101.0
2889,53.0,0,476,8.0,86.0
2890,76.0,0,120,1.0,101.0
2891,41.0,0,476,10.0,86.0
2892,77.0,120,59,6.0,105.0
2893,77.0,0,59,5.0,108.0
2894,77.0,0,120,1.0,94.0
2895,79.0,0,59,6.0,110.0
2896,79.0,120,59,5.0,112.0
2897,79.0,0,120,1.0,106.0
2898,81.0,0,59,5.0,107.0
2899,81.0,120,59,6.0,117.0
2900,65.0,120,0,3.0,83.0
2901,81.0,0,120,1.0,93.0
2902,79.0,0,59,5.0,85.0
2903,79.0,0,59,6.0,89.0
2904,79.0,0,120,1.0,75.0
2905,77.0,120,120,6.0,83.0
2906,77.0,0,120,1.0,73.0
2907,77.0,0,120,5.0,84.0
2908,76.0,120,118,1.0,73.0
2909,76.0,0,118,6.0,84.0
2910,76.0,0,118,5.0,83.0
2911,65.0,0,0,3.0,86.0
2912,89.0,0,0,0.0,80.0
2913,46.0,0,117,10.0,89.0
2914,62.0,0,117,7.0,86.0
2915,58.0,0,117,8.0,89.0
2916,58.0,0,117,2.0,75.0
2917,77.0,0,120,5.0,101.0
2918,77.0,118,120,6.0,98.0
2919,77.0,0,120,1.0,93.0
2920,76.0,120,120,6.0,90.0
2921,76.0,0,120,1.0,73.0
2922,76.0,0,120,5.0,87.0
2923,65.0,0,0,3.0,84.0
2924,45.0,0,117,10.0,85.0
2925,57.0,0,117,2.0,77.0
2926,57.0,0,117,8.0,85.0
2927,60.0,120,117,7.0,83.0
2928,77.0,0,120,6.0,109.0
2929,77.0,0,120,1.0,90.0
2930,77.0,0,120,5.0,107.0
2931,89.0,0,240,0.0,81.0
2932,76.0,0,120,5.0,88.0
2933,76.0,120,120,6.0,91.0
2934,65.0,0,0,3.0,92.0
2935,76.0,0,120,1.0,83.0
2936,55.0,0,117,2.0,80.0
2937,43.0,0,117,10.0,98.0
2938,58.0,0,117,7.0,84.0
2939,55.0,0,117,8.0,98.0
2940,77.0,0,120,6.0,106.0
2941,77.0,120,120,1.0,89.0
2942,77.0,0,120,5.0,107.0
2943,89.0,120,0,0.0,82.0
2944,76.0,120,120,6.0,92.0
2945,76.0,0,120,5.0,86.0
2946,76.0,0,120,1.0,81.0
2947,57.0,0,120,4.0,77.0
2948,58.0,120,120,4.0,83.0
2949,60.0,120,120,4.0,95.0
2950,41.0,0,480,10.0,89.0
2951,77.0,0,480,6.0,103.0
2952,53.0,0,480,2.0,74.0
2953,77.0,0,480,5.0,108.0
2954,65.0,0,480,3.0,79.0
2955,53.0,0,480,8.0,89.0
2956,57.0,0,480,7.0,88.0
2957,77.0,0,480,1.0,92.0
2958,62.0,120,120,4.0,102.0
2959,64.0,120,120,4.0,91.0
2960,65.0,120,120,4.0,97.0
2961,67.0,120,120,4.0,98.0
2962,69.0,120,120,4.0,94.0
2963,70.0,120,120,4.0,98.0
2964,72.0,120,120,4.0,93.0
2965,74.0,120,120,4.0,104.0
2966,76.0,120,120,4.0,90.0
2967,77.0,120,120,4.0,92.0
2968,79.0,120,122,4.0,99.0
2969,81.0,122,120,4.0,101.0
2970,82.0,120,118,4.0,97.0
2971,84.0,120,958,4.0,104.0
2972,82.0,958,120,4.0,77.0
2973,81.0,120,120,4.0,77.0
2974,79.0,120,120,4.0,71.0
2975,77.0,120,113,4.0,70.0
2976,76.0,113,116,4.0,72.0
2977,77.0,116,120,4.0,89.0
2978,81.0,120,117,4.0,108.0
2979,77.0,117,134,4.0,71.0
2980,53.0,0,233,4.0,56.0
2981,48.0,233,240,4.0,63.0
2982,72.0,4,473,4.0,59.0
2983,57.0,240,0,4.0,56.0
2984,53.0,0,247,4.0,56.0
2985,84.0,0,964,5.0,56.0
2986,48.0,247,240,4.0,60.0
2987,72.0,0,964,6.0,58.0
2988,57.0,0,0,4.0,61.0
2989,53.0,0,240,4.0,61.0
2990,69.0,0,480,6.0,52.0
2991,81.0,240,480,5.0,55.0
2992,48.0,240,240,4.0,67.0
2993,71.0,0,120,4.0,73.0
2994,53.0,0,240,4.0,62.0
2995,72.0,120,120,4.0,84.0
2996,77.0,0,120,4.0,107.0
2997,65.0,240,480,6.0,37.0
2998,77.0,0,480,5.0,51.0
2999,57.0,0,0,4.0,61.0
3000,48.0,120,240,4.0,60.0
3001,72.0,120,120,4.0,66.0
3002,53.0,0,226,4.0,61.0
3003,48.0,226,240,4.0,63.0
3004,72.0,0,466,5.0,44.0
3005,69.0,0,466,4.0,68.0
3006,57.0,240,0,4.0,64.0
3007,68.0,0,123,4.0,70.0
3008,69.0,123,124,4.0,91.0
3009,53.0,0,247,4.0,64.0
3010,72.0,124,127,4.0,96.0
3011,69.0,127,120,4.0,70.0
3012,48.0,0,247,4.0,59.0
3013,72.0,12,960,6.0,72.0
3014,60.0,108,972,7.0,51.0
3015,65.0,120,490,4.0,55.0
3016,57.0,0,490,4.0,57.0
3017,69.0,0,490,6.0,58.0
3018,53.0,0,490,4.0,57.0
3019,57.0,0,490,7.0,49.0
3020,84.0,0,360,4.0,119.0
3021,81.0,0,360,4.0,119.0
3022,53.0,0,470,7.0,52.0
3023,65.0,490,470,6.0,48.0
3024,84.0,0,110,4.0,87.0
3025,81.0,360,110,4.0,87.0
3026,60.0,237,239,4.0,49.0
3027,48.0,0,4329,8.0,54.0
3028,48.0,119,476,7.0,53.0
3029,60.0,0,476,6.0,50.0
3030,36.0,130,4329,10.0,54.0
3031,60.0,239,237,4.0,62.0
3032,60.0,237,240,4.0,64.0
3033,81.0,0,953,4.0,68.0
3034,78.0,0,953,4.0,68.0
3035,60.0,0,239,4.0,64.0
3036,62.0,239,120,4.0,64.0
3037,64.0,120,120,4.0,73.0
3038,82.0,0,479,4.0,85.0
3039,79.0,240,479,4.0,85.0
3040,65.0,120,120,4.0,71.0
3041,67.0,120,120,4.0,70.0
3042,69.0,120,119,4.0,58.0
3043,70.0,119,120,4.0,69.0
3044,72.0,0,480,4.0,70.0
3045,82.0,120,960,4.0,80.0
3046,81.0,960,120,4.0,68.0
3047,79.0,120,120,4.0,70.0
3048,77.0,120,120,4.0,64.0
3049,76.0,120,120,4.0,70.0
3050,75.0,120,117,4.0,75.0
3051,76.0,117,120,4.0,89.0
3052,79.0,120,120,4.0,99.0
3053,76.0,120,123,4.0,76.0
3054,52.0,0,237,4.0,61.0
3055,48.0,237,240,4.0,56.0
3056,55.0,0,0,4.0,62.0
3057,70.0,0,477,4.0,59.0
3058,52.0,240,243,4.0,62.0
3059,82.0,123,960,5.0,59.0
3060,48.0,243,240,4.0,67.0
3061,70.0,0,960,6.0,59.0
3062,55.0,0,0,4.0,61.0
3063,52.0,240,240,4.0,61.0
3064,48.0,240,240,4.0,60.0
3065,79.0,0,480,5.0,50.0
3066,67.0,0,480,6.0,51.0
3067,69.0,240,120,4.0,78.0
3068,52.0,0,240,4.0,63.0
3069,70.0,120,120,4.0,88.0
3070,74.0,0,120,4.0,101.0
3071,48.0,120,240,4.0,61.0
3072,55.0,11,0,4.0,61.0
3073,70.0,120,120,4.0,72.0
3074,64.0,0,480,6.0,50.0
3075,76.0,0,480,5.0,47.0
3076,66.0,0,108,4.0,61.0
3077,67.0,108,118,4.0,84.0
3078,52.0,0,226,4.0,61.0
3079,70.0,118,120,4.0,96.0
3080,48.0,0,240,4.0,64.0
3081,70.0,0,466,5.0,40.0
3082,67.0,120,120,4.0,77.0
3083,55.0,120,0,4.0,66.0
3084,63.0,0,123,4.0,61.0
3085,64.0,123,124,4.0,85.0
3086,52.0,0,247,4.0,66.0
3087,67.0,124,123,4.0,105.0
3088,48.0,0,247,4.0,61.0
3089,64.0,123,124,4.0,74.0
3090,58.0,109,971,7.0,58.0
3091,70.0,0,960,6.0,76.0
3092,55.0,0,492,7.0,60.0
3093,60.0,124,492,4.0,61.0
3094,55.0,0,492,4.0,61.0
3095,52.0,0,492,4.0,74.0
3096,67.0,0,492,6.0,55.0
3097,79.0,360,0,4.0,87.0
3098,82.0,0,360,4.0,120.0
3099,36.0,0,3840,10.0,59.0
3100,48.0,0,3840,8.0,59.0
3101,82.0,0,108,4.0,87.0
3102,52.0,492,468,7.0,55.0
3103,64.0,0,468,6.0,51.0
3104,53.0,0,476,7.0,61.0
3105,53.0,0,476,8.0,75.0
3106,65.0,118,476,6.0,65.0
3107,41.0,0,476,10.0,75.0
3108,65.0,239,237,4.0,73.0
3109,65.0,239,0,4.0,86.0
3110,80.0,0,952,4.0,76.0
3111,76.0,0,952,4.0,76.0
3112,65.0,0,120,4.0,82.0
3113,64.0,120,119,4.0,76.0
3114,65.0,119,119,4.0,89.0
3115,77.0,237,478,4.0,91.0
3116,81.0,0,478,4.0,91.0
3117,67.0,119,120,4.0,92.0
3118,65.0,120,120,4.0,81.0
3119,63.0,120,120,4.0,74.0
3120,62.0,120,120,4.0,66.0
3121,60.0,120,120,4.0,72.0
3122,86.0,240,240,4.0,87.0
3123,58.0,0,480,4.0,85.0
3124,86.0,240,240,4.0,94.0
3125,86.0,240,240,4.0,93.0
3126,86.0,240,120,4.0,99.0
3127,85.0,120,120,4.0,96.0
3128,86.0,120,120,4.0,107.0
3129,87.0,120,117,4.0,108.0
3130,65.0,0,1437,6.0,51.0
3131,62.0,0,1437,7.0,57.0
3132,86.0,117,119,4.0,85.0
3133,84.0,119,116,4.0,79.0
3134,82.0,116,117,4.0,78.0
3135,66.0,0,375,6.0,58.0
3136,60.0,0,375,7.0,54.0
3137,81.0,117,131,4.0,84.0
3138,79.0,0,236,4.0,83.0
3139,74.0,236,120,4.0,77.0
3140,74.0,0,2396,5.0,53.0
3141,58.0,0,479,7.0,55.0
3142,72.0,120,120,4.0,79.0
3143,46.0,3,476,4.0,97.0
3144,67.0,128,479,6.0,67.0
3145,70.0,0,120,4.0,81.0
3146,69.0,120,120,4.0,78.0
3147,67.0,120,120,4.0,86.0
3148,78.0,0,481,5.0,68.0
3149,62.0,120,481,7.0,77.0
3150,66.0,120,121,4.0,87.0
3151,69.0,0,481,6.0,72.0
3152,67.0,0,243,4.0,105.0
3153,79.0,243,121,4.0,126.0
3154,58.0,0,485,4.0,67.0
3155,62.0,0,485,4.0,67.0
3156,81.0,121,121,4.0,117.0
3157,58.0,0,485,7.0,57.0
3158,79.0,121,485,5.0,71.0
3159,70.0,0,485,6.0,69.0
3160,82.0,121,120,4.0,112.0
3161,84.0,120,120,4.0,113.0
3162,86.0,120,123,4.0,111.0
3163,82.0,0,386,5.0,70.0
3164,74.0,0,386,6.0,73.0
3165,55.0,0,386,7.0,52.0
3166,82.0,123,115,4.0,77.0
3167,84.0,237,0,4.0,100.0
3168,58.0,0,477,4.0,70.0
3169,67.0,0,477,4.0,70.0
3170,84.0,240,0,4.0,90.0
3171,64.0,0,477,4.0,70.0
3172,67.0,120,477,6.0,41.0
3173,70.0,0,383,6.0,66.0
3174,84.0,240,240,4.0,98.0
3175,84.0,240,119,4.0,96.0
3176,83.0,119,120,4.0,93.0
3177,84.0,120,119,4.0,106.0
3178,60.0,0,475,6.0,44.0
3179,86.0,119,117,4.0,113.0
3180,52.0,0,1432,7.0,56.0
3181,84.0,0,119,4.0,90.0
3182,82.0,119,117,4.0,81.0
3183,81.0,117,116,4.0,91.0
3184,64.0,117,375,6.0,72.0
3185,55.0,0,375,7.0,64.0
3186,79.0,116,131,4.0,77.0
3187,34.0,120,5760,10.0,50.0
3188,46.0,0,5760,8.0,50.0
3189,77.0,3,236,4.0,76.0
3190,72.0,236,117,4.0,70.0
3191,72.0,0,2388,5.0,39.0
3192,65.0,0,476,6.0,67.0
3193,57.0,128,476,7.0,56.0
3194,70.0,117,120,4.0,74.0
3195,45.0,0,473,4.0,96.0
3196,69.0,0,123,4.0,84.0
3197,67.0,123,120,4.0,76.0
3198,65.0,120,120,4.0,87.0
3199,64.0,120,120,4.0,80.0
3200,33.0,0,956,10.0,60.0
3201,45.0,0,956,8.0,60.0
3202,60.0,0,483,7.0,70.0
3203,76.0,120,483,5.0,74.0
3204,67.0,0,483,6.0,70.0
3205,65.0,0,244,4.0,106.0
3206,77.0,244,120,4.0,126.0
3207,57.0,0,486,4.0,77.0
3208,60.0,0,486,4.0,77.0
3209,79.0,120,122,4.0,117.0
3210,77.0,0,486,5.0,71.0
3211,69.0,0,486,6.0,72.0
3212,57.0,0,486,7.0,60.0
3213,81.0,0,120,4.0,117.0
3214,82.0,120,120,4.0,113.0
3215,84.0,120,123,4.0,111.0
3216,81.0,123,115,4.0,86.0
3217,57.0,0,964,8.0,71.0
3218,81.0,122,478,5.0,77.0
3219,45.0,120,964,10.0,71.0
3220,53.0,0,478,7.0,59.0
3221,72.0,0,478,6.0,74.0
3222,82.0,240,0,4.0,98.0
3223,64.0,0,480,11.0,53.0
3224,43.0,0,480,11.0,59.0
3225,70.0,0,480,11.0,49.0
3226,58.0,0,480,11.0,55.0
3227,82.0,240,240,4.0,97.0
3228,82.0,240,239,4.0,92.0
3229,82.0,239,120,4.0,104.0
3230,81.0,120,119,4.0,89.0
3231,82.0,119,120,4.0,114.0
3232,84.0,120,117,4.0,108.0
3233,82.0,117,119,4.0,89.0
3234,79.0,119,117,4.0,80.0
3235,77.0,117,116,4.0,78.0
3236,76.0,116,131,4.0,83.0
3237,64.0,0,1918,4.0,71.0
3238,58.0,117,1918,4.0,71.0
3239,55.0,0,1918,4.0,71.0
3240,43.0,0,1918,10.0,56.0
3241,58.0,0,1918,7.0,73.0
3242,70.0,0,0,5.0,57.0
3243,64.0,0,1918,6.0,41.0
3244,55.0,0,1918,8.0,56.0
3245,74.0,0,236,4.0,85.0
3246,65.0,128,479,11.0,56.0
3247,70.0,0,479,11.0,54.0
3248,41.0,0,479,11.0,53.0
3249,62.0,0,479,11.0,53.0
3250,82.0,236,240,4.0,126.0
3251,82.0,240,244,4.0,106.0
3252,82.0,244,240,4.0,95.0
3253,82.0,240,120,4.0,101.0
3254,81.0,120,120,4.0,90.0
3255,82.0,120,117,4.0,109.0
3256,84.0,117,119,4.0,116.0
3257,82.0,119,120,4.0,80.0
3258,77.0,120,117,4.0,72.0
3259,76.0,117,116,4.0,78.0
3260,53.0,0,1920,4.0,91.0
3261,53.0,0,1920,8.0,58.0
3262,62.0,0,1920,7.0,73.0
3263,41.0,0,1920,10.0,58.0
3264,58.0,0,1920,4.0,91.0
3265,65.0,3,1920,4.0,91.0
3266,65.0,0,1920,6.0,59.0
3267,74.0,116,131,4.0,78.0
3268,72.0,0,233,4.0,78.0
3269,82.0,233,243,4.0,126.0
3270,60.0,0,480,11.0,56.0
3271,70.0,0,480,11.0,56.0
3272,40.0,127,480,11.0,53.0
3273,67.0,0,480,11.0,59.0
3274,82.0,243,241,4.0,108.0
3275,82.0,241,240,4.0,93.0
3276,82.0,240,123,4.0,98.0
3277,81.0,123,120,4.0,89.0
3278,82.0,120,120,4.0,107.0
3279,84.0,120,120,4.0,117.0
3280,82.0,120,120,4.0,85.0
3281,81.0,120,121,4.0,87.0
3282,82.0,121,120,4.0,113.0
3283,84.0,120,119,4.0,115.0
3284,60.0,0,1920,7.0,54.0
3285,52.0,4,1920,8.0,55.0
3286,70.0,0,1920,5.0,56.0
3287,67.0,0,1920,6.0,67.0
3288,60.0,0,1920,4.0,60.0
3289,52.0,0,1920,4.0,60.0
3290,40.0,0,1920,10.0,55.0
3291,55.0,0,1920,4.0,60.0
3292,82.0,0,121,4.0,88.0
3293,89.0,121,120,4.0,125.0
3294,85.0,120,120,4.0,89.0
3295,82.0,120,120,4.0,84.0
3296,37.0,0,481,11.0,82.0
3297,70.0,0,481,11.0,79.0
3298,65.0,0,481,11.0,74.0
3299,53.0,0,481,11.0,79.0
3300,77.0,120,120,4.0,73.0
3301,85.0,120,119,4.0,126.0
3302,82.0,119,120,4.0,86.0
3303,77.0,120,119,4.0,70.0
3304,73.0,119,120,4.0,73.0
3305,82.0,120,117,4.0,126.0
3306,77.0,117,119,4.0,78.0
3307,73.0,119,116,4.0,75.0
3308,70.0,116,120,4.0,74.0
3309,77.0,120,117,4.0,126.0
3310,73.0,117,119,4.0,83.0
3311,53.0,0,1919,7.0,55.0
3312,49.0,0,1919,8.0,54.0
3313,65.0,0,1919,6.0,58.0
3314,37.0,0,1919,10.0,54.0
3315,37.0,120,1919,4.0,82.0
3316,49.0,0,1919,4.0,82.0
3317,70.0,0,0,4.0,126.0
3318,36.0,0,113,4.0,57.0
3319,48.0,113,120,4.0,99.0
3320,47.0,120,120,4.0,86.0
3321,48.0,120,120,4.0,84.0
3322,40.0,120,123,4.0,67.0
3323,58.0,125,723,2.0,61.0
3324,70.0,0,723,1.0,62.0
3325,52.0,123,120,4.0,104.0
3326,82.0,0,723,0.0,64.0
3327,51.0,120,120,4.0,84.0
3328,79.0,0,190,0.0,61.0
3329,67.0,0,190,1.0,48.0
3330,55.0,0,190,2.0,66.0
3331,52.0,120,120,4.0,88.0
3332,43.0,0,121,4.0,67.0
3333,55.0,121,120,4.0,99.0
3334,54.0,120,120,4.0,84.0
3335,52.0,120,481,2.0,66.0
3336,64.0,0,0,1.0,71.0
3337,76.0,120,0,0.0,62.0
3338,55.0,120,120,4.0,87.0
3339,48.0,0,123,4.0,73.0
3340,60.0,123,120,4.0,114.0
3341,59.0,120,120,4.0,87.0
3342,64.0,7,1816,6.0,55.0
3343,36.0,0,1816,10.0,53.0
3344,55.0,0,1816,7.0,63.0
3345,48.0,0,1816,8.0,53.0
3346,70.0,0,3839,5.0,66.0
3347,60.0,120,120,4.0,90.0
3348,67.0,0,1920,4.0,126.0
3349,76.0,0,1920,4.0,126.0
3350,52.0,0,483,2.0,72.0
3351,82.0,0,120,4.0,126.0
3352,89.0,120,120,4.0,126.0
3353,85.0,120,120,4.0,90.0
3354,70.0,0,480,11.0,90.0
3355,65.0,120,480,11.0,73.0
3356,82.0,120,120,4.0,72.0
3357,53.0,0,480,11.0,79.0
3358,37.0,0,480,11.0,81.0
3359,77.0,120,120,4.0,70.0
3360,85.0,120,120,4.0,126.0
3361,82.0,120,120,4.0,86.0
3362,77.0,120,120,4.0,68.0
3363,73.0,120,117,4.0,63.0
3364,82.0,117,120,4.0,126.0
3365,77.0,120,116,4.0,92.0
3366,73.0,116,119,4.0,72.0
3367,70.0,119,120,4.0,70.0
3368,77.0,120,116,4.0,126.0
3369,73.0,116,118,4.0,79.0
3370,49.0,0,1920,8.0,62.0
3371,65.0,0,1920,6.0,63.0
3372,37.0,0,1920,10.0,62.0
3373,37.0,0,1920,4.0,100.0
3374,49.0,0,1920,4.0,100.0
3375,70.0,0,0,4.0,125.0
3376,53.0,0,1920,7.0,52.0
3377,36.0,0,113,4.0,62.0
3378,70.0,0,240,1.0,65.0
3379,82.0,0,240,0.0,58.0
3380,48.0,113,120,4.0,104.0
3381,58.0,127,240,2.0,65.0
3382,47.0,0,120,4.0,78.0
3383,48.0,120,120,4.0,88.0
3384,57.0,120,240,2.0,67.0
3385,69.0,0,240,1.0,64.0
3386,81.0,0,240,0.0,65.0
3387,40.0,0,123,4.0,67.0
3388,58.0,0,243,2.0,74.0
3389,52.0,123,120,4.0,104.0
3390,82.0,120,243,0.0,76.0
3391,70.0,0,243,1.0,74.0
3392,51.0,0,120,4.0,81.0
3393,79.0,0,190,0.0,59.0
3394,55.0,120,190,2.0,58.0
3395,67.0,0,190,1.0,55.0
3396,52.0,120,120,4.0,93.0
3397,43.0,0,121,4.0,66.0
3398,55.0,121,120,4.0,98.0
3399,54.0,120,120,4.0,79.0
3400,52.0,0,481,2.0,60.0
3401,64.0,0,481,1.0,51.0
3402,55.0,120,120,4.0,87.0
3403,76.0,120,481,0.0,50.0
3404,48.0,120,123,4.0,64.0
3405,60.0,123,120,4.0,122.0
3406,59.0,120,120,4.0,97.0
3407,64.0,7,1816,6.0,59.0
3408,36.0,0,1816,10.0,64.0
3409,48.0,0,1816,8.0,64.0
3410,55.0,0,1816,7.0,61.0
3411,76.0,0,1920,4.0,125.0
3412,64.0,0,483,1.0,74.0
3413,76.0,0,483,0.0,61.0
3414,67.0,0,1920,4.0,125.0
3415,60.0,120,120,4.0,86.0
3416,70.0,0,0,5.0,64.0
3417,52.0,0,483,2.0,73.0
3418,82.0,120,120,4.0,126.0
3419,89.0,120,120,4.0,126.0
3420,85.0,120,120,4.0,91.0
3421,82.0,120,120,4.0,76.0
3422,37.0,0,480,11.0,81.0
3423,53.0,0,480,11.0,88.0
3424,65.0,0,480,11.0,81.0
3425,70.0,0,480,11.0,79.0
3426,77.0,120,120,4.0,67.0
3427,85.0,120,120,4.0,126.0
3428,82.0,120,120,4.0,90.0
3429,77.0,120,120,4.0,69.0
3430,73.0,120,120,4.0,74.0
3431,82.0,120,117,4.0,126.0
3432,77.0,117,119,4.0,81.0
3433,73.0,119,120,4.0,69.0
3434,70.0,120,120,4.0,76.0
3435,77.0,120,116,4.0,126.0
3436,73.0,116,120,4.0,80.0
3437,49.0,0,1920,8.0,69.0
3438,53.0,0,1920,7.0,63.0
3439,49.0,0,1920,4.0,88.0
3440,65.0,0,1920,6.0,66.0
3441,61.0,0,1920,4.0,88.0
3442,70.0,120,128,4.0,71.0
3443,37.0,0,1920,10.0,69.0
3444,66.0,116,120,4.0,73.0
3445,70.0,120,120,4.0,106.0
3446,66.0,120,120,4.0,74.0
3447,58.0,0,1436,2.0,60.0
3448,70.0,0,1436,1.0,68.0
3449,82.0,0,1436,0.0,64.0
3450,71.0,120,121,4.0,107.0
3451,66.0,121,120,4.0,64.0
3452,71.0,120,120,4.0,93.0
3453,63.0,0,957,6.0,51.0
3454,39.0,0,957,10.0,62.0
3455,51.0,0,957,7.0,60.0
3456,51.0,128,957,4.0,58.0
3457,66.0,120,120,4.0,66.0
3458,51.0,0,957,8.0,62.0
3459,63.0,0,957,5.0,42.0
3460,63.0,120,120,4.0,77.0
3461,66.0,120,120,4.0,103.0
3462,59.0,0,961,2.0,79.0
3463,63.0,120,120,4.0,68.0
3464,71.0,0,961,1.0,81.0
3465,83.0,0,961,0.0,72.0
3466,69.0,0,123,4.0,105.0
3467,63.0,123,120,4.0,68.0
3468,65.0,120,120,4.0,87.0
3469,53.0,120,859,7.0,67.0
3470,65.0,0,859,6.0,59.0
3471,65.0,0,859,5.0,68.0
3472,53.0,0,859,8.0,64.0
3473,41.0,0,859,10.0,64.0
3474,63.0,120,120,4.0,78.0
3475,53.0,0,963,4.0,82.0
3476,63.0,120,120,4.0,71.0
3477,69.0,120,120,4.0,106.0
3478,63.0,120,120,4.0,63.0
3479,57.0,0,963,2.0,67.0
3480,81.0,120,963,0.0,65.0
3481,69.0,0,963,1.0,72.0
3482,70.0,0,120,4.0,106.0
3483,61.0,120,120,4.0,59.0
3484,66.0,120,120,4.0,101.0
3485,54.0,120,960,8.0,67.0
3486,66.0,0,960,5.0,68.0
3487,66.0,0,960,6.0,68.0
3488,54.0,0,960,7.0,59.0
3489,61.0,120,120,4.0,66.0
3490,54.0,0,960,4.0,78.0
3491,42.0,0,960,10.0,67.0
3492,61.0,120,120,4.0,72.0
3493,67.0,120,120,4.0,107.0
3494,70.0,0,960,1.0,75.0
3495,58.0,120,960,2.0,81.0
3496,82.0,0,960,0.0,73.0
3497,61.0,120,120,4.0,53.0
3498,70.0,0,120,4.0,120.0
3499,61.0,120,120,4.0,61.0
3500,67.0,120,120,4.0,100.0
3501,52.0,0,856,8.0,60.0
3502,64.0,120,856,5.0,59.0
3503,52.0,0,856,7.0,59.0
3504,40.0,0,856,10.0,60.0
3505,64.0,0,856,6.0,48.0
3506,52.0,0,960,4.0,83.0
3507,61.0,120,120,4.0,60.0
3508,60.0,120,120,4.0,79.0
3509,67.0,120,120,4.0,101.0
3510,60.0,120,120,4.0,58.0
3511,67.0,120,960,1.0,58.0
3512,79.0,0,960,0.0,59.0
3513,55.0,0,960,2.0,68.0
3514,68.0,120,120,4.0,107.0
3515,60.0,120,120,4.0,64.0
3516,67.0,120,120,4.0,112.0
3517,65.0,0,960,5.0,64.0
3518,53.0,0,960,7.0,68.0
3519,53.0,0,960,8.0,71.0
3520,65.0,0,960,6.0,58.0
3521,41.0,120,960,10.0,71.0
3522,60.0,120,120,4.0,59.0
3523,53.0,0,960,4.0,90.0
3524,61.0,120,120,4.0,76.0
3525,65.0,120,120,4.0,95.0
3526,68.0,0,960,1.0,70.0
3527,80.0,0,960,0.0,80.0
3528,56.0,0,960,2.0,82.0
3529,61.0,120,120,4.0,78.0
3530,68.0,0,120,4.0,108.0
3531,61.0,120,120,4.0,62.0
3532,65.0,120,120,4.0,95.0
3533,37.0,0,960,10.0,51.0
3534,61.0,120,120,4.0,68.0
3535,49.0,0,960,8.0,51.0
3536,61.0,120,960,7.0,86.0
3537,61.0,0,960,5.0,51.0
3538,61.0,0,960,6.0,53.0
3539,49.0,0,960,4.0,80.0
3540,61.0,120,120,4.0,76.0
3541,65.0,120,120,4.0,102.0
3542,53.0,0,960,2.0,68.0
3543,77.0,0,960,1.0,97.0
3544,89.0,0,960,0.0,102.0
3545,61.0,120,120,4.0,67.0
3546,66.0,0,120,4.0,99.0
3547,61.0,120,120,4.0,66.0
3548,65.0,120,120,4.0,103.0
3549,58.0,0,960,5.0,61.0
3550,58.0,0,960,6.0,50.0
3551,61.0,120,120,4.0,64.0
3552,46.0,0,960,8.0,57.0
3553,46.0,0,960,4.0,69.0
3554,58.0,120,960,7.0,66.0
3555,34.0,0,960,10.0,57.0
3556,58.0,120,120,4.0,73.0
3557,61.0,120,120,4.0,95.0
3558,58.0,120,120,4.0,79.0
3559,78.0,0,960,1.0,82.0
3560,90.0,0,960,0.0,80.0
3561,66.0,120,960,1.0,82.0
3562,54.0,0,960,2.0,73.0
3563,64.0,0,120,4.0,108.0
3564,58.0,120,120,4.0,78.0
3565,60.0,120,120,4.0,89.0
3566,60.0,120,856,5.0,65.0
3567,48.0,0,856,8.0,64.0
3568,60.0,0,856,7.0,69.0
3569,36.0,0,856,10.0,64.0
3570,60.0,0,856,6.0,69.0
3571,48.0,0,856,4.0,93.0
3572,52.0,0,381,2.0,69.0
3573,88.0,0,381,0.0,68.0
3574,64.0,120,381,1.0,62.0
3575,76.0,0,381,1.0,62.0
3576,58.0,120,120,4.0,82.0
3577,61.0,0,117,6.0,65.0
3578,61.0,0,117,5.0,67.0
3579,56.0,120,158,4.0,81.0
3580,61.0,158,160,4.0,102.0
3581,77.0,0,480,1.0,77.0
3582,61.0,0,480,7.0,72.0
3583,65.0,120,2880,1.0,97.0
3584,37.0,0,480,10.0,70.0
3585,49.0,0,480,8.0,70.0
3586,65.0,0,240,6.0,71.0
3587,53.0,0,480,2.0,77.0
3588,49.0,0,480,4.0,109.0
3589,89.0,0,480,0.0,68.0
3590,65.0,78,162,4.0,104.0
3591,68.0,82,240,5.0,84.0
3592,68.0,162,158,4.0,105.0
3593,67.0,0,240,5.0,54.0
3594,64.0,0,240,6.0,59.0
3595,73.0,158,160,4.0,109.0
3596,65.0,0,190,6.0,61.0
3597,68.0,82,190,5.0,69.0
3598,77.0,78,162,4.0,108.0
3599,80.0,0,158,4.0,102.0
3600,84.0,158,160,4.0,112.0
3601,65.0,0,117,6.0,50.0
3602,68.0,82,117,5.0,50.0
3603,89.0,78,162,4.0,110.0
3604,44.0,0,480,4.0,106.0
3605,32.0,162,480,10.0,56.0
3606,60.0,0,480,7.0,63.0
3607,44.0,0,480,8.0,56.0
3608,68.0,162,117,5.0,62.0
3609,65.0,0,117,6.0,57.0
3610,84.0,0,158,4.0,61.0
3611,80.0,158,160,4.0,59.0
3612,65.0,0,117,6.0,65.0
3613,68.0,82,117,5.0,65.0
3614,77.0,78,162,4.0,66.0
3615,85.0,162,160,4.0,111.0
3616,84.0,160,160,4.0,78.0
3617,65.0,0,119,6.0,48.0
3618,67.0,81,119,5.0,58.0
3619,46.0,0,482,4.0,99.0
3620,46.0,0,482,8.0,57.0
3621,34.0,0,482,10.0,57.0
3622,82.0,79,162,4.0,68.0
3623,61.0,0,482,7.0,60.0
3624,67.0,0,119,5.0,63.0
3625,65.0,0,119,6.0,58.0
3626,80.0,162,160,4.0,72.0
3627,79.0,160,159,4.0,74.0
3628,65.0,80,119,6.0,66.0
3629,67.0,0,119,5.0,63.0
3630,77.0,79,159,4.0,76.0
3631,76.0,0,154,4.0,74.0
3632,73.0,154,156,4.0,67.0
3633,64.0,0,117,6.0,51.0
3634,67.0,78,117,5.0,57.0
3635,48.0,0,458,4.0,101.0
3636,48.0,0,458,8.0,59.0
3637,60.0,159,458,7.0,56.0
3638,36.0,0,458,10.0,59.0
3639,72.0,78,148,4.0,73.0
3640,67.0,0,119,5.0,54.0
3641,64.0,0,119,6.0,63.0
3642,70.0,148,154,4.0,74.0
3643,68.0,154,156,4.0,71.0
3644,67.0,0,119,5.0,64.0
3645,64.0,77,119,6.0,61.0
3646,67.0,79,192,4.0,71.0
3647,65.0,0,239,5.0,36.0
3648,65.0,0,239,6.0,54.0
3649,60.0,0,240,6.0,42.0
3650,65.0,0,468,4.0,73.0
3651,69.0,228,240,5.0,60.0
3652,41.0,11,468,4.0,71.0
3653,57.0,0,244,6.0,45.0
3654,65.0,240,244,5.0,40.0
3655,60.0,244,241,6.0,61.0
3656,69.0,0,241,5.0,60.0
3657,57.0,241,243,6.0,49.0
3658,65.0,0,243,5.0,37.0
3659,60.0,243,244,6.0,62.0
3660,69.0,0,244,5.0,57.0
3661,57.0,0,120,2.0,60.0
3662,60.0,0,120,2.0,60.0
3663,72.0,0,120,1.0,60.0
3664,69.0,244,120,1.0,60.0
3665,62.0,0,120,2.0,82.0
3666,58.0,120,120,2.0,82.0
3667,57.0,0,240,6.0,47.0
3668,65.0,0,240,5.0,45.0
3669,74.0,0,120,1.0,75.0
3670,70.0,0,120,1.0,75.0
3671,60.0,0,120,2.0,64.0
3672,57.0,0,120,2.0,64.0
3673,72.0,0,120,1.0,62.0
3674,69.0,120,120,1.0,62.0
3675,55.0,0,120,2.0,68.0
3676,58.0,0,120,2.0,68.0
3677,60.0,0,240,6.0,57.0
3678,67.0,0,120,1.0,60.0
3679,70.0,120,120,1.0,60.0
3680,69.0,0,240,5.0,68.0
3681,57.0,120,240,2.0,65.0
3682,53.0,0,240,2.0,65.0
3683,69.0,0,240,1.0,66.0
3684,57.0,0,240,6.0,44.0
3685,65.0,0,240,5.0,37.0
3686,65.0,0,240,1.0,66.0
3687,60.0,0,240,6.0,54.0
3688,69.0,240,240,5.0,60.0
3689,72.0,0,120,1.0,66.0
3690,69.0,240,120,1.0,66.0
3691,57.0,0,120,2.0,57.0
3692,60.0,0,120,2.0,57.0
3693,58.0,120,120,2.0,73.0
3694,62.0,0,120,2.0,73.0
3695,57.0,0,240,6.0,46.0
3696,65.0,0,240,5.0,38.0
3697,74.0,0,120,1.0,80.0
3698,70.0,0,120,1.0,80.0
3699,60.0,120,120,2.0,66.0
3700,57.0,0,120,2.0,66.0
3701,72.0,0,120,1.0,62.0
3702,69.0,0,120,1.0,62.0
3703,60.0,0,240,6.0,56.0
3704,69.0,0,240,5.0,59.0
3705,55.0,120,120,2.0,63.0
3706,70.0,0,120,1.0,62.0
3707,67.0,0,120,1.0,62.0
3708,58.0,0,120,2.0,63.0
3709,57.0,0,240,6.0,48.0
3710,57.0,0,240,2.0,67.0
3711,53.0,120,240,2.0,67.0
3712,69.0,0,240,1.0,61.0
3713,65.0,0,240,1.0,61.0
3714,65.0,0,240,5.0,48.0
3715,60.0,0,240,6.0,61.0
3716,69.0,240,240,5.0,60.0
3717,57.0,0,240,6.0,48.0
3718,65.0,0,240,5.0,38.0
3719,60.0,240,190,6.0,56.0
3720,69.0,0,190,5.0,52.0
3721,57.0,0,480,2.0,64.0
3722,57.0,0,3851,7.0,47.0
3723,60.0,0,3851,7.0,47.0
3724,69.0,240,480,1.0,63.0
3725,60.0,0,480,2.0,64.0
3726,72.0,0,480,1.0,63.0
3727,52.0,0,240,2.0,76.0
3728,67.0,0,240,1.0,48.0
3729,64.0,0,240,1.0,48.0
3730,64.0,240,240,5.0,40.0
3731,55.0,0,240,2.0,76.0
3732,55.0,0,240,6.0,46.0
3733,58.0,0,240,6.0,47.0
3734,67.0,240,240,5.0,57.0
3735,64.0,240,240,1.0,60.0
3736,67.0,0,240,1.0,60.0
3737,52.0,0,240,2.0,66.0
3738,64.0,0,240,5.0,52.0
3739,55.0,0,240,6.0,50.0
3740,55.0,0,240,2.0,66.0
3741,58.0,240,240,6.0,50.0
3742,67.0,0,240,5.0,58.0
3743,64.0,0,240,5.0,42.0
3744,64.0,0,240,1.0,64.0
3745,55.0,0,240,2.0,63.0
3746,55.0,0,240,6.0,53.0
3747,67.0,0,240,1.0,64.0
3748,52.0,240,240,2.0,63.0
3749,58.0,0,240,6.0,51.0
3750,67.0,240,240,5.0,57.0
3751,64.0,240,240,5.0,43.0
3752,67.0,0,240,2.0,64.0
3753,79.0,0,240,0.0,62.0
3754,55.0,0,240,6.0,50.0
3755,67.0,0,240,5.0,52.0
3756,65.0,240,240,2.0,61.0
3757,58.0,0,240,6.0,47.0
3758,77.0,0,0,0.0,70.0
3759,65.0,0,240,2.0,76.0
3760,55.0,0,240,6.0,42.0
3761,64.0,240,240,5.0,40.0
3762,76.0,0,240,0.0,64.0
3763,64.0,0,240,2.0,58.0
3764,58.0,240,240,6.0,52.0
3765,67.0,0,240,5.0,56.0
3766,64.0,0,240,5.0,38.0
3767,55.0,0,240,6.0,48.0
3768,74.0,240,240,0.0,59.0
3769,62.0,0,240,2.0,62.0
3770,67.0,0,240,5.0,55.0
3771,72.0,0,240,0.0,69.0
3772,60.0,0,240,2.0,56.0
3773,58.0,240,240,6.0,55.0
3774,64.0,240,240,5.0,54.0
3775,55.0,0,240,6.0,47.0
3776,59.0,0,240,2.0,68.0
3777,71.0,0,240,0.0,60.0
3778,60.0,0,246,2.0,72.0
3779,58.0,0,246,6.0,57.0
3780,67.0,240,246,5.0,58.0
3781,72.0,0,246,0.0,72.0
3782,74.0,0,244,0.0,81.0
3783,55.0,0,244,6.0,47.0
3784,64.0,0,244,5.0,46.0
3785,62.0,246,244,2.0,83.0
3786,58.0,244,230,6.0,46.0
3787,64.0,0,230,2.0,87.0
3788,76.0,0,230,0.0,79.0
3789,60.0,0,3840,7.0,52.0
3790,67.0,0,230,5.0,63.0
3791,58.0,0,3840,7.0,52.0
3792,65.0,0,236,2.0,80.0
3793,77.0,0,236,0.0,73.0
3794,57.0,246,236,6.0,51.0
3795,57.0,0,236,4.0,54.0
3796,65.0,0,236,5.0,47.0
3797,79.0,236,60,0.0,85.0
3798,67.0,0,60,2.0,84.0
3799,77.0,60,60,0.0,69.0
3800,65.0,0,60,2.0,61.0
3801,76.0,60,118,0.0,62.0
3802,60.0,0,238,6.0,57.0
3803,69.0,0,238,5.0,58.0
3804,64.0,0,118,2.0,64.0
3805,60.0,0,238,4.0,72.0
3806,57.0,0,236,6.0,47.0
3807,65.0,118,236,5.0,44.0
3808,57.0,0,236,4.0,61.0
3809,77.0,0,236,0.0,76.0
3810,65.0,0,236,2.0,76.0
3811,81.0,0,119,0.0,84.0
3812,60.0,0,119,2.0,91.0
3813,69.0,0,240,5.0,56.0
3814,60.0,236,240,4.0,72.0
3815,60.0,0,240,6.0,54.0
3816,57.0,0,239,6.0,41.0
3817,65.0,240,239,5.0,44.0
3818,57.0,0,239,4.0,62.0
3819,60.0,239,236,6.0,62.0
3820,57.0,0,475,2.0,90.0
3821,60.0,0,236,4.0,75.0
3822,84.0,0,475,0.0,87.0
3823,69.0,0,236,5.0,62.0
3824,84.0,0,119,4.0,76.0
3825,65.0,0,239,5.0,37.0
3826,57.0,236,239,6.0,51.0
3827,86.0,119,120,4.0,96.0
3828,57.0,0,239,4.0,49.0
3829,84.0,0,120,4.0,78.0
3830,60.0,0,240,6.0,58.0
3831,69.0,120,240,5.0,56.0
3832,81.0,0,479,4.0,106.0
3833,60.0,0,240,4.0,76.0
3834,53.0,0,0,4.0,59.0
3835,82.0,120,120,4.0,70.0
3836,57.0,120,240,6.0,49.0
3837,65.0,0,240,5.0,42.0
3838,81.0,0,240,4.0,72.0
3839,57.0,0,240,4.0,59.0
3840,77.0,0,240,4.0,63.0
3841,60.0,0,240,4.0,67.0
3842,60.0,240,240,6.0,68.0
3843,69.0,0,240,5.0,53.0
3844,84.0,0,120,4.0,72.0
3845,86.0,120,120,4.0,92.0
3846,65.0,240,240,5.0,43.0
3847,57.0,0,240,6.0,42.0
3848,57.0,0,240,4.0,59.0
3849,84.0,0,120,4.0,74.0
3850,82.0,120,120,4.0,64.0
3851,60.0,0,240,4.0,67.0
3852,69.0,0,240,5.0,54.0
3853,60.0,120,240,6.0,63.0
3854,81.0,0,0,4.0,73.0
3855,65.0,120,240,5.0,44.0
3856,57.0,0,240,4.0,58.0
3857,77.0,0,240,4.0,61.0
3858,57.0,0,240,6.0,53.0
3859,60.0,0,240,6.0,57.0
3860,69.0,240,240,5.0,65.0
3861,60.0,0,240,4.0,74.0
3862,65.0,240,240,5.0,45.0
3863,57.0,0,240,4.0,62.0
3864,57.0,0,240,6.0,50.0
3865,60.0,0,240,6.0,58.0
3866,69.0,240,240,5.0,58.0
3867,84.0,0,480,4.0,74.0
3868,81.0,0,480,4.0,89.0
3869,57.0,0,3824,7.0,45.0
3870,60.0,0,240,4.0,64.0
3871,60.0,0,0,7.0,52.0
3872,64.0,240,240,5.0,39.0
3873,79.0,0,240,4.0,54.0
3874,55.0,0,240,6.0,45.0
3875,76.0,0,240,4.0,54.0
3876,58.0,0,240,4.0,55.0
3877,67.0,240,240,5.0,53.0
3878,58.0,0,240,6.0,65.0
3879,60.0,0,240,4.0,63.0
3880,76.0,0,240,4.0,75.0
3881,79.0,240,240,4.0,75.0
3882,58.0,0,240,4.0,55.0
3883,55.0,0,240,6.0,49.0
3884,64.0,0,240,5.0,42.0
3885,58.0,0,240,6.0,51.0
3886,60.0,0,240,4.0,68.0
3887,67.0,240,240,5.0,61.0
3888,58.0,0,240,4.0,62.0
3889,79.0,0,240,4.0,71.0
3890,76.0,0,240,4.0,71.0
3891,64.0,0,240,5.0,48.0
3892,55.0,240,240,6.0,43.0
3893,58.0,0,240,6.0,50.0
3894,60.0,240,240,4.0,69.0
3895,67.0,0,240,5.0,61.0
3896,82.0,0,240,4.0,74.0
3897,64.0,240,240,5.0,44.0
3898,55.0,0,240,6.0,49.0
3899,58.0,0,240,4.0,56.0
3900,67.0,240,190,5.0,60.0
3901,58.0,0,190,6.0,50.0
3902,60.0,0,240,4.0,69.0
3903,79.0,0,240,4.0,74.0
3904,53.0,0,1920,4.0,69.0
3905,55.0,0,240,6.0,47.0
3906,64.0,240,240,5.0,40.0
3907,58.0,0,240,4.0,60.0
3908,77.0,0,240,4.0,72.0
3909,58.0,240,240,6.0,52.0
3910,76.0,0,240,4.0,70.0
3911,67.0,0,240,5.0,61.0
3912,60.0,0,240,4.0,66.0
3913,58.0,240,240,4.0,59.0
3914,74.0,0,240,4.0,68.0
3915,64.0,0,240,5.0,43.0
3916,55.0,0,240,6.0,53.0
3917,72.0,0,240,4.0,68.0
3918,60.0,0,240,4.0,73.0
3919,58.0,0,240,6.0,59.0
3920,67.0,240,240,5.0,54.0
3921,55.0,0,240,4.0,56.0
3922,71.0,0,240,4.0,72.0
3923,64.0,0,240,5.0,45.0
3924,55.0,240,240,6.0,44.0
3925,67.0,0,246,5.0,57.0
3926,72.0,0,246,4.0,92.0
3927,58.0,240,246,6.0,58.0
3928,60.0,0,246,4.0,75.0
3929,58.0,0,248,4.0,59.0
3930,74.0,0,248,4.0,100.0
3931,55.0,0,248,6.0,36.0
3932,64.0,246,248,5.0,47.0
3933,67.0,0,226,5.0,63.0
3934,58.0,0,3840,7.0,52.0
3935,53.0,0,1920,4.0,60.0
3936,76.0,0,226,4.0,96.0
3937,60.0,248,226,4.0,66.0
3938,58.0,0,226,6.0,50.0
3939,77.0,0,240,4.0,96.0
3940,79.0,240,60,4.0,90.0
3941,77.0,60,58,4.0,74.0
3942,57.0,0,381,6.0,46.0
3943,65.0,0,381,5.0,43.0
3944,60.0,242,478,7.0,47.0
3945,57.0,0,478,7.0,47.0
3946,57.0,0,478,4.0,60.0
3947,76.0,58,120,4.0,79.0
3948,53.0,0,478,4.0,60.0
3949,53.0,0,15865,8.0,54.0
3950,41.0,181,15865,10.0,54.0
3951,77.0,120,118,4.0,89.0
3952,81.0,232,119,4.0,105.0
3953,71.0,0,157,4.0,45.0
3954,72.0,157,160,4.0,70.0
3955,73.0,160,162,4.0,82.0
3956,74.0,162,158,4.0,76.0
3957,75.0,158,162,4.0,79.0
3958,70.0,0,959,4.0,62.0
3959,67.0,235,959,4.0,62.0
3960,60.0,0,959,4.0,62.0
3961,76.0,162,160,4.0,87.0
3962,77.0,161,239,4.0,100.0
3963,79.0,239,60,4.0,100.0
3964,77.0,60,60,4.0,82.0
3965,65.0,0,479,4.0,74.0
3966,69.0,0,479,4.0,74.0
3967,76.0,60,120,4.0,74.0
3968,77.0,120,241,4.0,87.0
3969,81.0,241,119,4.0,106.0
3970,84.0,241,164,4.0,85.0
3971,83.0,164,159,4.0,70.0
3972,82.0,159,156,4.0,58.0
3973,81.0,156,159,4.0,59.0
3974,82.0,159,158,4.0,76.0
3975,79.0,158,162,4.0,60.0
3976,70.0,0,958,4.0,64.0
3977,64.0,0,958,4.0,64.0
3978,60.0,0,958,4.0,64.0
3979,77.0,162,240,4.0,75.0
3980,79.0,240,60,4.0,88.0
3981,77.0,60,60,4.0,79.0
3982,76.0,60,120,4.0,71.0
3983,65.0,0,480,4.0,76.0
3984,69.0,0,480,4.0,76.0
3985,77.0,120,240,4.0,95.0
3986,81.0,240,117,4.0,100.0
3987,71.0,0,158,4.0,50.0
3988,72.0,158,158,4.0,80.0
3989,73.0,158,168,4.0,76.0
3990,74.0,168,158,4.0,83.0
3991,75.0,158,160,4.0,76.0
3992,70.0,0,964,4.0,68.0
3993,67.0,236,964,4.0,68.0
3994,60.0,0,964,4.0,68.0
3995,76.0,160,162,4.0,74.0
3996,77.0,0,239,4.0,95.0
3997,79.0,239,60,4.0,98.0
3998,77.0,60,60,4.0,77.0
3999,76.0,60,120,4.0,78.0
4000,69.0,163,479,4.0,72.0
4001,65.0,0,479,4.0,72.0
4002,77.0,120,241,4.0,89.0
4003,81.0,241,119,4.0,108.0
4004,84.0,241,164,4.0,90.0
4005,83.0,164,159,4.0,75.0
4006,82.0,159,156,4.0,67.0
4007,81.0,156,159,4.0,60.0
4008,82.0,159,158,4.0,81.0
4009,79.0,158,162,4.0,58.0
4010,64.0,0,958,4.0,66.0
4011,60.0,0,958,4.0,66.0
4012,70.0,0,958,4.0,66.0
4013,77.0,0,158,4.0,64.0
4014,69.0,162,240,4.0,66.0
4015,65.0,0,240,4.0,66.0
4016,81.0,158,160,4.0,83.0
4017,77.0,160,162,4.0,59.0
4018,84.0,162,158,4.0,92.0
4019,60.0,0,240,4.0,57.0
4020,67.0,0,240,4.0,57.0
4021,82.0,158,160,4.0,72.0
4022,79.0,160,162,4.0,56.0
4023,77.0,0,158,4.0,56.0
4024,65.0,0,240,4.0,57.0
4025,69.0,162,240,4.0,57.0
4026,81.0,158,160,4.0,70.0
4027,77.0,160,162,4.0,45.0
4028,84.0,162,158,4.0,73.0
4029,67.0,0,236,4.0,56.0
4030,60.0,0,236,4.0,56.0
4031,82.0,158,156,4.0,64.0
4032,79.0,156,166,4.0,52.0
4033,77.0,166,232,4.0,56.0
4034,69.0,0,472,4.0,43.0
4035,65.0,0,472,4.0,43.0
4036,81.0,472,244,4.0,51.0
4037,84.0,484,244,4.0,62.0
4038,72.0,0,960,4.0,51.0
4039,69.0,964,960,4.0,51.0
4040,57.0,0,960,4.0,57.0
4041,50.0,0,960,4.0,57.0
4042,69.0,0,960,4.0,54.0
4043,65.0,0,0,4.0,73.0
4044,46.0,0,960,4.0,53.0
4045,74.0,0,960,4.0,73.0
4046,55.0,960,960,4.0,53.0
4047,58.0,960,856,4.0,72.0
4048,64.0,0,856,4.0,44.0
4049,67.0,0,856,4.0,44.0
4050,48.0,0,856,4.0,72.0
4051,69.0,970,235,4.0,65.0
4052,53.0,0,475,4.0,48.0
4053,57.0,0,475,4.0,48.0
4054,65.0,0,475,4.0,60.0
4055,72.0,235,240,4.0,68.0
4056,70.0,240,235,4.0,61.0
4057,67.0,235,240,4.0,50.0
4058,62.0,0,475,4.0,67.0
4059,55.0,0,475,4.0,46.0
4060,46.0,0,475,4.0,46.0
4061,60.0,0,472,4.0,65.0
4062,65.0,0,472,4.0,58.0
4063,57.0,0,472,4.0,50.0
4064,67.0,0,488,4.0,59.0
4065,64.0,472,488,4.0,92.0
4066,48.0,240,960,4.0,50.0
4067,60.0,488,0,4.0,45.0
4068,65.0,0,232,4.0,90.0
4069,69.0,0,232,4.0,65.0
4070,70.0,232,60,4.0,69.0
4071,69.0,60,60,4.0,54.0
4072,53.0,0,472,4.0,45.0
4073,67.0,60,120,4.0,52.0
4074,69.0,120,248,4.0,64.0
4075,67.0,0,240,4.0,69.0
4076,70.0,248,240,4.0,67.0
4077,69.0,0,472,4.0,86.0
4078,72.0,240,472,4.0,66.0
4079,52.0,953,119,4.0,75.0
4080,53.0,119,120,4.0,90.0
4081,55.0,120,120,4.0,87.0
4082,57.0,120,120,4.0,90.0
4083,59.0,120,120,4.0,73.0
4084,60.0,120,120,4.0,92.0
4085,62.0,120,124,4.0,96.0
4086,64.0,0,963,7.0,58.0
4087,33.0,0,963,10.0,55.0
4088,72.0,0,963,5.0,50.0
4089,69.0,0,963,6.0,52.0
4090,81.0,0,963,1.0,62.0
4091,45.0,0,963,8.0,55.0
4092,84.0,0,963,0.0,65.0
4093,45.0,0,963,4.0,57.0
4094,64.0,124,120,4.0,103.0
4095,66.0,0,124,4.0,106.0
4096,67.0,124,120,4.0,92.0
4097,69.0,120,120,4.0,92.0
4098,71.0,120,121,4.0,100.0
4099,72.0,121,120,4.0,101.0
4100,74.0,120,124,4.0,93.0
4101,76.0,124,124,4.0,98.0
4102,38.0,0,964,4.0,68.0
4103,78.0,124,111,4.0,101.0
4104,66.0,0,964,6.0,46.0
4105,72.0,0,964,1.0,53.0
4106,38.0,120,964,10.0,73.0
4107,50.0,0,964,8.0,73.0
4108,69.0,0,964,5.0,50.0
4109,60.0,0,964,2.0,70.0
4110,81.0,0,964,0.0,63.0
4111,78.0,0,964,1.0,53.0
4112,57.0,0,964,2.0,70.0
4113,79.0,0,120,4.0,99.0
4114,81.0,120,117,4.0,100.0
4115,79.0,117,120,4.0,81.0
4116,78.0,120,120,4.0,73.0
4117,79.0,120,120,4.0,87.0
4118,81.0,120,120,4.0,97.0
4119,79.0,120,120,4.0,76.0
4120,43.0,116,957,4.0,75.0
4121,65.0,0,957,6.0,57.0
4122,43.0,0,957,8.0,56.0
4123,71.0,0,957,1.0,61.0
4124,77.0,0,957,1.0,61.0
4125,74.0,0,957,5.0,83.0
4126,62.0,0,1926,7.0,52.0
4127,59.0,0,957,2.0,66.0
4128,81.0,120,120,4.0,90.0
4129,86.0,0,957,0.0,79.0
4130,31.0,0,957,10.0,56.0
4131,82.0,0,120,4.0,94.0
4132,81.0,120,119,4.0,71.0
4133,79.0,119,119,4.0,68.0
4134,77.0,119,116,4.0,71.0
4135,76.0,116,116,4.0,78.0
4136,74.0,116,117,4.0,69.0
4137,72.0,117,119,4.0,71.0
4138,64.0,0,958,6.0,51.0
4139,76.0,0,958,1.0,57.0
4140,67.0,0,958,5.0,39.0
4141,60.0,0,958,7.0,61.0
4142,79.0,0,958,0.0,45.0
4143,36.0,120,958,4.0,64.0
4144,70.0,119,132,4.0,68.0
4145,48.0,0,958,8.0,70.0
4146,55.0,0,1915,2.0,66.0
4147,58.0,0,958,2.0,64.0
4148,36.0,0,958,10.0,70.0
4149,70.0,0,958,1.0,57.0
4150,69.0,0,113,4.0,69.0
4151,53.0,0,233,2.0,65.0
4152,60.0,0,233,7.0,57.0
4153,77.0,0,233,1.0,84.0
4154,81.0,0,233,0.0,74.0
4155,41.0,0,233,10.0,62.0
4156,57.0,0,233,2.0,65.0
4157,69.0,0,233,1.0,84.0
4158,69.0,0,233,5.0,68.0
4159,77.0,113,120,4.0,107.0
4160,53.0,0,233,8.0,62.0
4161,65.0,0,233,6.0,67.0
4162,72.0,120,120,4.0,70.0
4163,69.0,120,123,4.0,66.0
4164,41.0,132,476,4.0,117.0
4165,67.0,0,120,4.0,73.0
4166,34.0,0,240,10.0,51.0
4167,74.0,120,120,4.0,106.0
4168,70.0,123,240,5.0,53.0
4169,67.0,0,240,6.0,51.0
4170,62.0,0,240,2.0,63.0
4171,79.0,0,240,1.0,68.0
4172,58.0,0,240,2.0,63.0
4173,62.0,0,240,7.0,51.0
4174,82.0,0,240,0.0,63.0
4175,46.0,0,240,8.0,51.0
4176,67.0,0,240,1.0,68.0
4177,70.0,120,120,4.0,72.0
4178,67.0,120,120,4.0,70.0
4179,46.0,0,480,4.0,120.0
4180,65.0,0,120,4.0,75.0
4181,77.0,0,240,1.0,63.0
4182,36.0,0,240,10.0,58.0
4183,81.0,0,240,0.0,68.0
4184,57.0,0,240,2.0,63.0
4185,72.0,120,120,4.0,112.0
4186,69.0,0,240,1.0,63.0
4187,69.0,0,240,5.0,60.0
4188,65.0,120,240,6.0,56.0
4189,48.0,0,240,8.0,58.0
4190,60.0,0,240,7.0,54.0
4191,60.0,0,240,2.0,63.0
4192,69.0,120,120,4.0,70.0
4193,48.0,0,480,4.0,125.0
4194,65.0,120,120,4.0,61.0
4195,64.0,0,124,4.0,71.0
4196,70.0,124,116,4.0,107.0
4197,70.0,0,240,1.0,67.0
4198,36.0,0,240,10.0,60.0
4199,48.0,0,240,8.0,60.0
4200,79.0,0,240,0.0,62.0
4201,58.0,120,240,2.0,59.0
4202,55.0,0,240,2.0,59.0
4203,76.0,0,240,1.0,67.0
4204,64.0,0,240,6.0,57.0
4205,60.0,0,240,7.0,51.0
4206,67.0,0,240,5.0,53.0
4207,67.0,116,120,4.0,79.0
4208,64.0,120,124,4.0,73.0
4209,36.0,0,484,4.0,90.0
4210,41.0,3,476,4.0,107.0
4211,65.0,0,476,4.0,112.0
4212,65.0,0,479,6.0,57.0
4213,65.0,0,479,5.0,52.0
4214,77.0,0,479,0.0,59.0
4215,60.0,0,479,7.0,56.0
4216,53.0,121,479,8.0,52.0
4217,41.0,0,479,10.0,52.0
4218,53.0,0,479,2.0,65.0
4219,57.0,0,479,2.0,65.0
4220,69.0,0,479,1.0,63.0
4221,77.0,0,479,1.0,63.0
4222,84.0,476,124,4.0,116.0
4223,81.0,124,120,4.0,84.0
4224,77.0,120,120,4.0,63.0
4225,72.0,120,121,4.0,58.0
4226,82.0,0,120,4.0,112.0
4227,36.0,121,120,4.0,78.0
4228,79.0,0,120,4.0,68.0
4229,40.0,120,120,4.0,92.0
4230,43.0,0,119,4.0,95.0
4231,76.0,120,119,4.0,65.0
4232,48.0,0,120,4.0,94.0
4233,72.0,119,120,4.0,61.0
4234,52.0,0,120,4.0,98.0
4235,70.0,120,120,4.0,62.0
4236,48.0,120,120,4.0,72.0
4237,72.0,0,120,4.0,88.0
4238,52.0,0,120,4.0,93.0
4239,70.0,120,120,4.0,74.0
4240,70.0,0,959,5.0,51.0
4241,36.0,0,959,10.0,48.0
4242,52.0,0,959,7.0,51.0
4243,72.0,0,120,4.0,88.0
4244,48.0,120,120,4.0,75.0
4245,67.0,0,959,6.0,52.0
4246,48.0,0,959,8.0,48.0
4247,69.0,0,120,4.0,67.0
4248,72.0,120,120,4.0,92.0
4249,77.0,120,120,4.0,105.0
4250,60.0,0,1439,7.0,51.0
4251,53.0,0,480,7.0,61.0
4252,65.0,0,480,6.0,53.0
4253,41.0,120,480,10.0,67.0
4254,53.0,0,480,8.0,67.0
4255,69.0,0,480,5.0,50.0
4256,53.0,0,480,4.0,91.0
4257,81.0,120,120,4.0,107.0
4258,84.0,120,121,4.0,105.0
4259,81.0,121,121,4.0,75.0
4260,77.0,121,119,4.0,71.0
4261,72.0,119,119,4.0,62.0
4262,82.0,0,120,4.0,117.0
4263,36.0,0,120,4.0,73.0
4264,79.0,0,117,4.0,76.0
4265,40.0,120,117,4.0,88.0
4266,76.0,117,116,4.0,68.0
4267,43.0,0,116,4.0,95.0
4268,48.0,116,116,4.0,98.0
4269,72.0,0,116,4.0,58.0
4270,70.0,0,117,4.0,67.0
4271,52.0,116,117,4.0,92.0
4272,72.0,0,120,4.0,94.0
4273,48.0,117,120,4.0,71.0
4274,70.0,0,118,4.0,73.0
4275,52.0,120,118,4.0,88.0
4276,52.0,0,960,7.0,51.0
4277,70.0,0,960,5.0,60.0
4278,48.0,0,960,8.0,54.0
4279,72.0,118,136,4.0,89.0
4280,48.0,0,136,4.0,80.0
4281,67.0,0,960,6.0,56.0
4282,36.0,0,960,10.0,54.0
4283,69.0,0,113,4.0,70.0
4284,72.0,113,120,4.0,91.0
4285,77.0,120,123,4.0,106.0
4286,65.0,0,477,6.0,55.0
4287,53.0,0,477,7.0,67.0
4288,60.0,119,1437,7.0,51.0
4289,69.0,0,477,5.0,53.0
4290,41.0,0,477,10.0,60.0
4291,53.0,136,477,8.0,60.0
4292,81.0,123,121,4.0,110.0
4293,53.0,0,477,4.0,95.0
4294,84.0,121,123,4.0,103.0
4295,81.0,123,120,4.0,72.0
4296,77.0,120,120,4.0,67.0
4297,72.0,120,120,4.0,57.0
4298,82.0,0,117,4.0,122.0
4299,36.0,120,117,4.0,75.0
4300,79.0,0,116,4.0,67.0
4301,40.0,117,116,4.0,87.0
4302,43.0,116,119,4.0,90.0
4303,76.0,0,119,4.0,74.0
4304,48.0,119,116,4.0,100.0
4305,72.0,0,116,4.0,68.0
4306,52.0,0,118,4.0,83.0
4307,70.0,116,118,4.0,72.0
4308,48.0,0,118,4.0,75.0
4309,72.0,118,118,4.0,95.0
4310,52.0,118,120,4.0,94.0
4311,70.0,0,120,4.0,76.0
4312,48.0,0,136,4.0,72.0
4313,72.0,120,136,4.0,95.0
4314,48.0,0,960,8.0,55.0
4315,70.0,0,960,5.0,54.0
4316,36.0,0,960,10.0,55.0
4317,67.0,0,960,6.0,52.0
4318,52.0,0,960,7.0,56.0
4319,53.0,0,472,4.0,86.0
4320,60.0,0,1432,7.0,56.0
4321,53.0,0,472,7.0,63.0
4322,69.0,136,472,4.0,73.0
4323,41.0,0,472,10.0,67.0
4324,69.0,0,472,5.0,51.0
4325,53.0,0,472,8.0,67.0
4326,65.0,0,472,6.0,54.0
4327,81.0,472,244,4.0,127.0
4328,84.0,0,244,4.0,127.0
4329,72.0,245,0,4.0,58.0
4330,81.0,0,489,4.0,73.0
4331,69.0,0,241,4.0,58.0
4332,53.0,0,486,4.0,80.0
4333,65.0,244,486,4.0,80.0
4334,81.0,0,243,4.0,127.0
4335,84.0,241,243,4.0,127.0
4336,72.0,243,477,4.0,70.0
4337,81.0,0,477,4.0,70.0
4338,69.0,0,239,4.0,58.0
4339,53.0,0,476,4.0,73.0
4340,65.0,240,476,4.0,73.0
4341,72.0,237,239,4.0,58.0
4342,81.0,0,240,4.0,127.0
4343,84.0,239,240,4.0,127.0
4344,81.0,0,240,4.0,76.0
4345,72.0,240,240,4.0,76.0
4346,81.0,237,0,4.0,76.0
4347,84.0,0,237,4.0,123.0
4348,65.0,240,477,4.0,77.0
4349,72.0,0,240,4.0,76.0
4350,81.0,240,0,4.0,120.0
4351,53.0,0,0,4.0,77.0
4352,84.0,0,239,4.0,120.0
4353,81.0,0,239,4.0,65.0
4354,65.0,0,478,4.0,77.0
4355,72.0,239,239,4.0,65.0
4356,82.0,240,479,4.0,108.0
4357,46.0,0,479,4.0,74.0
4358,86.0,83,396,4.0,108.0
4359,58.0,0,396,4.0,74.0
4360,79.0,876,720,4.0,71.0
4361,81.0,720,120,4.0,75.0
4362,76.0,0,960,4.0,65.0
4363,58.0,0,960,4.0,76.0
4364,60.0,0,960,4.0,76.0
4365,82.0,120,120,4.0,74.0
4366,84.0,120,117,4.0,71.0
4367,57.0,0,240,4.0,83.0
4368,65.0,0,240,4.0,83.0
4369,84.0,240,120,4.0,75.0
4370,81.0,120,120,4.0,78.0
4371,82.0,120,117,4.0,80.0
4372,67.0,0,240,4.0,96.0
4373,58.0,0,240,4.0,96.0
4374,82.0,240,120,4.0,84.0
4375,79.0,120,120,4.0,87.0
4376,81.0,0,117,4.0,89.0
4377,69.0,120,237,4.0,109.0
4378,60.0,0,237,4.0,109.0
4379,81.0,237,119,4.0,94.0
4380,77.0,119,117,4.0,96.0
4381,79.0,0,119,4.0,101.0
4382,60.0,117,236,4.0,105.0
4383,70.0,0,236,4.0,105.0
4384,79.0,236,119,4.0,98.0
4385,76.0,119,132,4.0,81.0
4386,65.0,0,241,1.0,53.0
4387,77.0,232,241,0.0,63.0
4388,69.0,132,473,4.0,74.0
4389,65.0,0,473,4.0,74.0
4390,77.0,0,473,4.0,93.0
4391,84.0,0,120,4.0,109.0
4392,69.0,241,243,1.0,72.0
4393,81.0,0,243,0.0,75.0
4394,81.0,120,123,4.0,73.0
4395,77.0,123,120,4.0,66.0
4396,72.0,120,120,4.0,66.0
4397,77.0,0,240,0.0,49.0
4398,65.0,0,240,1.0,55.0
4399,82.0,0,120,4.0,115.0
4400,36.0,0,120,4.0,71.0
4401,40.0,120,120,4.0,90.0
4402,79.0,0,120,4.0,81.0
4403,43.0,0,117,4.0,91.0
4404,76.0,120,117,4.0,58.0
4405,48.0,117,120,4.0,101.0
4406,72.0,0,120,4.0,68.0
4407,84.0,0,477,0.0,82.0
4408,72.0,0,477,1.0,71.0
4409,48.0,0,237,2.0,50.0
4410,60.0,0,237,2.0,50.0
4411,52.0,0,119,4.0,95.0
4412,70.0,120,119,4.0,68.0
4413,72.0,0,120,4.0,87.0
4414,48.0,119,120,4.0,66.0
4415,52.0,0,239,2.0,72.0
4416,64.0,0,239,2.0,72.0
4417,52.0,120,120,4.0,95.0
4418,70.0,0,120,4.0,79.0
4419,48.0,0,128,4.0,79.0
4420,72.0,120,128,4.0,90.0
4421,67.0,0,964,6.0,55.0
4422,52.0,0,964,7.0,57.0
4423,36.0,120,964,10.0,54.0
4424,48.0,0,964,8.0,54.0
4425,60.0,0,248,2.0,56.0
4426,70.0,0,964,5.0,50.0
4427,48.0,0,248,2.0,56.0
4428,69.0,128,116,4.0,79.0
4429,72.0,116,120,4.0,96.0
4430,77.0,0,124,0.0,54.0
4431,77.0,0,124,4.0,110.0
4432,65.0,120,124,1.0,62.0
4433,79.0,124,120,0.0,64.0
4434,69.0,0,480,5.0,58.0
4435,67.0,0,120,1.0,69.0
4436,65.0,0,480,6.0,39.0
4437,60.0,0,1444,7.0,57.0
4438,53.0,0,480,7.0,56.0
4439,41.0,0,480,10.0,69.0
4440,53.0,0,480,8.0,69.0
4441,53.0,0,480,4.0,89.0
4442,53.0,0,480,2.0,72.0
4443,65.0,0,480,2.0,72.0
4444,81.0,0,120,4.0,100.0
4445,84.0,0,120,4.0,100.0
4446,81.0,120,240,0.0,70.0
4447,81.0,120,120,4.0,73.0
4448,69.0,0,240,1.0,65.0
4449,77.0,0,120,4.0,59.0
4450,77.0,120,240,0.0,50.0
4451,65.0,0,240,1.0,46.0
4452,72.0,120,120,4.0,67.0
4453,36.0,120,120,4.0,74.0
4454,82.0,0,120,4.0,113.0
4455,40.0,0,116,4.0,96.0
4456,79.0,120,116,4.0,76.0
4457,43.0,0,120,4.0,89.0
4458,76.0,0,120,4.0,66.0
4459,60.0,0,120,2.0,53.0
4460,48.0,116,120,2.0,53.0
4461,62.0,0,117,2.0,66.0
4462,72.0,0,473,1.0,86.0
4463,48.0,0,117,4.0,92.0
4464,84.0,0,473,0.0,74.0
4465,50.0,0,117,2.0,66.0
4466,72.0,120,117,4.0,56.0
4467,70.0,117,119,4.0,72.0
4468,52.0,0,119,4.0,98.0
4469,72.0,0,120,4.0,85.0
4470,52.0,0,239,2.0,67.0
4471,64.0,0,239,2.0,67.0
4472,48.0,119,120,4.0,75.0
4473,70.0,0,120,4.0,75.0
4474,52.0,120,120,4.0,93.0
4475,60.0,0,248,2.0,50.0
4476,48.0,0,248,2.0,50.0
4477,52.0,0,960,7.0,63.0
4478,72.0,120,128,4.0,90.0
4479,48.0,0,960,8.0,48.0
4480,36.0,0,960,10.0,48.0
4481,67.0,0,960,6.0,56.0
4482,70.0,0,960,5.0,55.0
4483,48.0,0,128,4.0,78.0
4484,69.0,0,116,4.0,75.0
4485,72.0,116,120,4.0,96.0
4486,65.0,0,124,1.0,57.0
4487,77.0,120,124,4.0,111.0
4488,77.0,0,124,0.0,55.0
4489,53.0,128,480,7.0,62.0
4490,67.0,124,120,1.0,70.0
4491,41.0,0,480,10.0,66.0
4492,79.0,0,120,0.0,69.0
4493,65.0,0,480,2.0,72.0
4494,53.0,0,480,2.0,72.0
4495,60.0,0,1440,7.0,63.0
4496,53.0,0,480,8.0,66.0
4497,65.0,0,480,6.0,58.0
4498,69.0,0,480,5.0,52.0
4499,81.0,0,120,4.0,110.0
4500,53.0,0,480,4.0,88.0
4501,84.0,0,120,4.0,105.0
4502,81.0,120,120,4.0,77.0
4503,69.0,0,240,1.0,65.0
4504,81.0,120,240,0.0,66.0
4505,77.0,120,120,4.0,64.0
4506,65.0,0,240,1.0,53.0
4507,72.0,120,120,4.0,62.0
4508,77.0,0,240,0.0,45.0
4509,36.0,0,120,4.0,81.0
4510,82.0,0,120,4.0,121.0
4511,40.0,0,116,4.0,89.0
4512,79.0,120,116,4.0,74.0
4513,48.0,0,120,2.0,48.0
4514,43.0,0,120,4.0,100.0
4515,60.0,0,120,2.0,48.0
4516,76.0,116,120,4.0,69.0
4517,48.0,0,117,4.0,98.0
4518,72.0,0,117,4.0,62.0
4519,84.0,0,473,0.0,78.0
4520,72.0,0,473,1.0,79.0
4521,62.0,0,117,2.0,68.0
4522,50.0,120,117,2.0,68.0
4523,70.0,117,119,4.0,64.0
4524,52.0,0,119,4.0,91.0
4525,72.0,0,120,4.0,86.0
4526,64.0,0,239,2.0,71.0
4527,48.0,119,120,4.0,64.0
4528,52.0,0,239,2.0,71.0
4529,52.0,0,120,4.0,97.0
4530,70.0,0,120,4.0,77.0
4531,60.0,0,248,2.0,43.0
4532,48.0,120,248,2.0,43.0
4533,36.0,0,960,10.0,56.0
4534,72.0,120,128,4.0,97.0
4535,48.0,0,128,4.0,79.0
4536,67.0,0,960,6.0,56.0
4537,48.0,0,960,8.0,56.0
4538,70.0,120,960,5.0,56.0
4539,52.0,0,960,7.0,44.0
4540,69.0,0,473,4.0,68.0
4541,53.0,0,473,4.0,94.0
4542,65.0,0,473,2.0,78.0
4543,53.0,128,473,2.0,78.0
4544,53.0,0,473,7.0,59.0
4545,41.0,0,473,10.0,63.0
4546,60.0,0,1433,7.0,44.0
4547,53.0,0,473,8.0,63.0
4548,69.0,0,473,5.0,52.0
4549,65.0,0,473,6.0,49.0
4550,84.0,473,243,4.0,127.0
4551,81.0,243,0,4.0,79.0
4552,72.0,0,242,11.0,52.0
4553,69.0,0,242,11.0,55.0
4554,65.0,0,242,11.0,50.0
4555,41.0,0,242,11.0,51.0
4556,72.0,242,0,4.0,61.0
4557,69.0,0,119,4.0,61.0
4558,53.0,244,482,4.0,71.0
4559,65.0,0,482,4.0,71.0
4560,84.0,0,244,4.0,127.0
4561,81.0,244,0,4.0,75.0
4562,65.0,0,960,7.0,58.0
4563,69.0,0,960,6.0,52.0
4564,53.0,0,960,8.0,49.0
4565,72.0,0,234,4.0,75.0
4566,72.0,0,960,5.0,51.0
4567,41.0,0,960,10.0,49.0
4568,69.0,0,235,11.0,59.0
4569,65.0,0,235,11.0,54.0
4570,72.0,235,0,4.0,53.0
4571,81.0,0,235,4.0,87.0
4572,41.0,0,235,11.0,51.0
4573,72.0,0,235,11.0,60.0
4574,65.0,0,475,4.0,74.0
4575,53.0,0,475,4.0,74.0
4576,69.0,0,240,4.0,53.0
4577,81.0,241,0,4.0,73.0
4578,84.0,0,241,4.0,127.0
4579,72.0,240,0,5.0,62.0
4580,53.0,0,956,8.0,61.0
4581,41.0,0,0,10.0,61.0
4582,65.0,0,0,7.0,65.0
4583,69.0,0,956,6.0,62.0
4584,72.0,0,240,4.0,73.0
4585,81.0,0,240,4.0,127.0
4586,69.0,0,240,6.0,60.0
4587,53.0,0,240,8.0,61.0
4588,84.0,0,240,4.0,127.0
4589,72.0,0,239,4.0,74.0
4590,53.0,0,479,4.0,72.0
4591,65.0,239,0,4.0,84.0
4592,81.0,240,239,4.0,74.0
4593,53.0,0,240,8.0,56.0
4594,41.0,0,240,10.0,56.0
4595,65.0,0,240,7.0,55.0
4596,72.0,0,240,5.0,55.0
4597,81.0,240,0,4.0,78.0
4598,84.0,0,240,4.0,118.0
4599,69.0,0,240,6.0,59.0
4600,53.0,0,475,4.0,84.0
4601,72.0,0,235,4.0,78.0
4602,82.0,240,240,4.0,105.0
4603,86.0,0,240,4.0,105.0
4604,74.0,0,480,5.0,52.0
4605,62.0,0,480,7.0,58.0
4606,86.0,0,240,4.0,89.0
4607,58.0,0,480,4.0,70.0
4608,46.0,0,480,8.0,53.0
4609,46.0,0,480,4.0,70.0
4610,82.0,240,240,4.0,89.0
4611,70.0,0,480,6.0,52.0
4612,34.0,0,480,10.0,53.0
4613,82.0,236,0,4.0,79.0
4614,79.0,240,236,4.0,63.0
4615,79.0,0,239,4.0,79.0
4616,86.0,0,117,0.0,59.0
4617,86.0,0,117,1.0,53.0
4618,86.0,0,117,1.0,55.0
4619,86.0,240,117,0.0,56.0
4620,74.0,239,480,4.0,68.0
4621,79.0,0,480,4.0,68.0
4622,82.0,0,117,1.0,49.0
4623,82.0,240,117,0.0,47.0
4624,82.0,236,117,0.0,59.0
4625,82.0,0,117,1.0,55.0
4626,76.0,0,479,1.0,38.0
4627,79.0,0,479,0.0,47.0
4628,76.0,0,959,4.0,78.0
4629,79.0,0,1083,4.0,78.0
4630,81.0,1083,120,4.0,92.0
4631,79.0,120,120,4.0,72.0
4632,78.0,120,120,4.0,76.0
4633,79.0,120,121,4.0,88.0
4634,81.0,121,120,4.0,92.0
4635,82.0,120,124,4.0,92.0
4636,83.0,124,115,4.0,95.0
4637,58.0,0,1923,4.0,61.0
4638,60.0,0,1923,4.0,61.0
4639,67.0,0,1923,4.0,61.0
4640,64.0,241,1923,4.0,61.0
4641,84.0,120,120,4.0,95.0
4642,86.0,120,120,4.0,99.0
4643,84.0,120,116,4.0,77.0
4644,81.0,116,120,4.0,68.0
4645,89.0,120,119,4.0,106.0
4646,89.0,240,119,4.0,95.0
4647,65.0,0,479,4.0,66.0
4648,57.0,0,479,4.0,66.0
4649,82.0,239,120,4.0,61.0
4650,84.0,120,120,4.0,89.0
4651,82.0,120,120,4.0,71.0
4652,79.0,120,121,4.0,64.0
4653,86.0,121,119,4.0,113.0
4654,86.0,248,117,4.0,90.0
4655,67.0,0,479,4.0,57.0
4656,58.0,0,479,4.0,57.0
4657,84.0,233,120,4.0,76.0
4658,86.0,120,120,4.0,89.0
4659,84.0,120,120,4.0,77.0
4660,81.0,120,120,4.0,64.0
4661,77.0,0,119,4.0,62.0
4662,77.0,243,117,4.0,81.0
4663,69.0,0,480,4.0,59.0
4664,65.0,120,480,4.0,59.0
4665,60.0,0,480,4.0,59.0
4666,82.0,237,119,4.0,105.0
4667,84.0,119,119,4.0,105.0
4668,82.0,119,120,4.0,77.0
4669,79.0,120,113,4.0,64.0
4670,76.0,113,119,4.0,67.0
4671,76.0,231,118,4.0,81.0
4672,70.0,0,487,4.0,66.0
4673,67.0,0,487,4.0,66.0
4674,60.0,0,487,4.0,66.0
4675,77.0,7,112,4.0,90.0
4676,72.0,112,120,4.0,65.0
4677,74.0,120,121,4.0,88.0
4678,76.0,121,120,4.0,89.0
4679,77.0,120,123,4.0,95.0
4680,79.0,123,120,4.0,97.0
4681,81.0,120,120,4.0,101.0
4682,82.0,120,121,4.0,94.0
4683,84.0,121,120,4.0,98.0
4684,60.0,0,1204,6.0,56.0
4685,72.0,249,1204,5.0,53.0
4686,57.0,0,1204,7.0,57.0
4687,77.0,120,120,4.0,62.0
4688,69.0,0,1197,4.0,66.0
4689,57.0,0,1197,4.0,66.0
4690,83.0,0,123,4.0,100.0
4691,59.0,0,243,6.0,65.0
4692,56.0,0,243,4.0,64.0
4693,68.0,0,243,4.0,64.0
4694,77.0,123,120,4.0,56.0
4695,71.0,120,243,5.0,55.0
4696,56.0,0,243,7.0,58.0
4697,84.0,0,120,4.0,108.0
4698,60.0,0,240,6.0,75.0
4699,57.0,120,240,7.0,62.0
4700,72.0,0,240,5.0,59.0
4701,69.0,0,240,4.0,80.0
4702,77.0,120,120,4.0,59.0
4703,57.0,0,240,4.0,80.0
4704,83.0,0,120,4.0,102.0
4705,56.0,0,240,7.0,56.0
4706,59.0,120,240,6.0,66.0
4707,71.0,0,240,5.0,52.0
4708,77.0,120,120,4.0,61.0
4709,68.0,0,240,4.0,56.0
4710,56.0,0,240,4.0,56.0
4711,84.0,0,120,4.0,111.0
4712,81.0,120,120,4.0,74.0
4713,77.0,120,120,4.0,66.0
4714,81.0,120,120,4.0,92.0
4715,84.0,120,120,4.0,104.0
4716,60.0,0,720,6.0,68.0
4717,57.0,120,720,7.0,65.0
4718,77.0,120,120,4.0,57.0
4719,72.0,0,720,5.0,69.0
4720,69.0,0,720,4.0,79.0
4721,57.0,0,720,4.0,79.0
4722,83.0,0,120,4.0,99.0
4723,56.0,120,240,7.0,64.0
4724,77.0,120,120,4.0,62.0
4725,56.0,0,240,4.0,73.0
4726,68.0,0,240,4.0,73.0
4727,59.0,0,240,6.0,58.0
4728,71.0,0,240,5.0,54.0
4729,84.0,0,120,4.0,102.0
4730,77.0,120,120,4.0,60.0
4731,69.0,0,240,4.0,73.0
4732,72.0,120,240,5.0,69.0
4733,57.0,0,240,4.0,73.0
4734,60.0,0,240,6.0,69.0
4735,57.0,0,240,7.0,73.0
4736,83.0,0,120,4.0,107.0
4737,68.0,0,237,4.0,64.0
4738,71.0,0,237,5.0,53.0
4739,77.0,120,117,4.0,60.0
4740,56.0,120,237,7.0,61.0
4741,59.0,0,237,6.0,62.0
4742,56.0,0,237,4.0,64.0
4743,84.0,0,120,4.0,112.0
4744,72.0,0,240,5.0,61.0
4745,57.0,0,240,7.0,64.0
4746,69.0,0,240,4.0,81.0
4747,77.0,120,120,4.0,59.0
4748,60.0,117,240,6.0,64.0
4749,57.0,0,240,4.0,81.0
4750,83.0,0,119,4.0,99.0
4751,77.0,119,124,4.0,66.0
4752,68.0,0,243,4.0,60.0
4753,56.0,120,243,4.0,60.0
4754,56.0,0,243,7.0,56.0
4755,71.0,0,243,5.0,60.0
4756,59.0,0,243,6.0,58.0
4757,84.0,124,113,4.0,111.0
4758,77.0,113,120,4.0,58.0
4759,84.0,120,120,4.0,106.0
4760,57.0,0,473,4.0,74.0
4761,69.0,0,473,4.0,74.0
4762,77.0,120,120,4.0,58.0
4763,72.0,0,473,5.0,67.0
4764,57.0,0,473,7.0,60.0
4765,60.0,0,473,6.0,65.0
4766,85.0,0,123,4.0,114.0
4767,77.0,123,120,4.0,56.0
4768,85.0,120,120,4.0,110.0
4769,58.0,0,487,4.0,84.0
4770,70.0,0,487,4.0,84.0
4771,77.0,120,124,4.0,57.0
4772,73.0,0,487,5.0,69.0
4773,58.0,0,487,7.0,59.0
4774,61.0,120,487,6.0,64.0
4775,86.0,0,120,4.0,112.0
4776,77.0,120,120,4.0,58.0
4777,86.0,120,120,4.0,112.0
4778,59.0,0,480,7.0,57.0
4779,62.0,0,480,6.0,70.0
4780,77.0,120,120,4.0,58.0
4781,71.0,124,480,4.0,76.0
4782,59.0,0,480,4.0,76.0
4783,74.0,0,480,5.0,69.0
4784,87.0,0,120,4.0,116.0
4785,77.0,120,120,4.0,56.0
4786,87.0,120,113,4.0,112.0
4787,60.0,0,480,4.0,78.0
4788,75.0,0,480,5.0,68.0
4789,77.0,113,127,4.0,65.0
4790,72.0,0,480,4.0,78.0
4791,63.0,120,480,6.0,64.0
4792,60.0,0,480,7.0,62.0
4793,88.0,127,112,4.0,121.0
4794,77.0,112,124,4.0,54.0
4795,88.0,124,120,4.0,118.0
4796,76.0,0,476,5.0,70.0
4797,73.0,0,476,4.0,79.0
4798,77.0,120,120,4.0,57.0
4799,61.0,0,476,4.0,79.0
4800,61.0,0,476,7.0,66.0
4801,64.0,0,476,6.0,61.0
4802,89.0,120,120,4.0,113.0
4803,77.0,120,124,4.0,59.0
4804,89.0,124,120,4.0,116.0
4805,77.0,120,120,4.0,55.0
4806,74.0,0,484,4.0,78.0
4807,62.0,0,484,4.0,78.0
4808,62.0,0,484,7.0,71.0
4809,77.0,0,484,5.0,58.0
4810,65.0,0,484,6.0,67.0
4811,88.0,0,120,4.0,116.0
4812,77.0,120,120,4.0,60.0
4813,88.0,120,120,4.0,112.0
4814,61.0,0,480,4.0,65.0
4815,61.0,120,480,7.0,57.0
4816,76.0,0,480,5.0,52.0
4817,64.0,0,480,6.0,50.0
4818,73.0,0,480,4.0,65.0
4819,77.0,120,120,4.0,56.0
4820,87.0,0,116,4.0,118.0
4821,77.0,116,124,4.0,60.0
4822,87.0,124,112,4.0,118.0
4823,77.0,112,128,4.0,60.0
4824,72.0,0,480,4.0,70.0
4825,60.0,0,480,4.0,70.0
4826,63.0,0,480,6.0,57.0
4827,60.0,120,480,7.0,51.0
4828,75.0,0,480,5.0,52.0
4829,85.0,0,112,4.0,111.0
4830,86.0,112,124,4.0,94.0
4831,89.0,124,120,4.0,98.0
4832,70.0,0,480,4.0,63.0
4833,89.0,0,8167,0.0,51.0
4834,77.0,0,8167,1.0,53.0
4835,86.0,120,124,4.0,74.0
4836,62.0,0,480,6.0,56.0
4837,74.0,0,480,5.0,53.0
4838,65.0,0,8167,2.0,49.0
4839,58.0,0,480,4.0,63.0
4840,58.0,128,480,7.0,53.0
4841,81.0,0,120,4.0,51.0
4842,65.0,124,237,0.0,42.0
4843,62.0,0,237,1.0,44.0
4844,82.0,120,120,4.0,82.0
4845,86.0,120,116,4.0,99.0
4846,82.0,116,120,4.0,73.0
4847,76.0,0,120,4.0,57.0
4848,77.0,120,116,4.0,90.0
4849,65.0,0,237,1.0,67.0
4850,70.0,120,237,0.0,72.0
4851,62.0,0,237,1.0,64.0
4852,82.0,116,116,4.0,112.0
4853,77.0,116,118,4.0,62.0
4854,73.0,0,120,4.0,63.0
4855,65.0,0,238,2.0,54.0
4856,74.0,0,238,0.0,75.0
4857,62.0,118,238,2.0,54.0
4858,65.0,0,238,1.0,65.0
4859,70.0,0,238,1.0,73.0
4860,74.0,120,120,4.0,85.0
4861,77.0,120,116,4.0,95.0
4862,74.0,116,138,4.0,72.0
4863,69.0,7,112,4.0,59.0
4864,58.0,131,236,2.0,50.0
4865,74.0,0,236,1.0,79.0
4866,70.0,0,236,1.0,79.0
4867,77.0,0,236,0.0,73.0
4868,62.0,0,236,2.0,50.0
4869,70.0,112,120,4.0,85.0
4870,74.0,120,120,4.0,104.0
4871,70.0,120,124,4.0,70.0
4872,64.0,124,120,4.0,61.0
4873,82.0,0,237,0.0,84.0
4874,58.0,0,237,2.0,51.0
4875,53.0,0,237,2.0,51.0
4876,74.0,0,237,1.0,79.0
4877,77.0,0,237,1.0,79.0
4878,65.0,120,120,4.0,84.0
4879,70.0,120,120,4.0,109.0
4880,65.0,120,120,4.0,64.0
4881,61.0,0,120,4.0,58.0
4882,86.0,0,237,0.0,90.0
4883,82.0,0,237,1.0,74.0
4884,77.0,0,237,1.0,74.0
4885,53.0,120,237,2.0,52.0
4886,50.0,0,237,2.0,52.0
4887,62.0,120,120,4.0,92.0
4888,65.0,120,120,4.0,100.0
4889,62.0,120,120,4.0,74.0
4890,58.0,0,120,4.0,71.0
4891,89.0,0,237,0.0,73.0
4892,86.0,0,237,1.0,80.0
4893,80.0,0,237,1.0,80.0
4894,50.0,0,237,2.0,54.0
4895,47.0,120,237,2.0,54.0
4896,59.0,120,120,4.0,85.0
4897,62.0,120,120,4.0,99.0
4898,35.0,0,484,4.0,65.0
4899,47.0,0,484,4.0,65.0
4900,59.0,120,124,4.0,83.0
4901,60.0,116,120,4.0,79.0
4902,62.0,0,120,4.0,96.0
4903,65.0,120,240,6.0,52.0
4904,69.0,0,240,5.0,57.0
4905,36.0,3,476,4.0,76.0
4906,64.0,120,120,4.0,97.0
4907,48.0,0,476,4.0,76.0
4908,65.0,120,120,4.0,90.0
4909,65.0,0,0,6.0,64.0
4910,69.0,0,240,5.0,62.0
4911,67.0,120,120,4.0,95.0
4912,69.0,120,124,4.0,98.0
4913,70.0,124,120,4.0,97.0
4914,69.0,0,244,5.0,61.0
4915,72.0,120,120,4.0,97.0
4916,65.0,0,240,6.0,54.0
4917,74.0,120,120,4.0,99.0
4918,69.0,0,240,5.0,62.0
4919,76.0,120,120,4.0,96.0
4920,69.0,121,0,5.0,55.0
4921,77.0,120,121,4.0,91.0
4922,65.0,0,241,6.0,65.0
4923,79.0,0,124,4.0,98.0
4924,65.0,0,244,6.0,59.0
4925,81.0,124,120,4.0,93.0
4926,69.0,0,0,5.0,54.0
4927,82.0,120,121,4.0,104.0
4928,84.0,121,114,4.0,95.0
4929,77.0,0,1923,1.0,41.0
4930,65.0,0,235,6.0,63.0
4931,81.0,0,1923,0.0,46.0
4932,79.0,0,60,4.0,47.0
4933,67.0,0,120,5.0,59.0
4934,64.0,0,120,6.0,60.0
4935,81.0,60,60,4.0,60.0
4936,60.0,0,120,4.0,66.0
4937,79.0,0,60,4.0,65.0
4938,70.0,0,119,4.0,100.0
4939,36.0,121,2168,10.0,47.0
4940,81.0,60,59,4.0,69.0
4941,67.0,60,119,5.0,54.0
4942,48.0,0,2168,8.0,47.0
4943,64.0,0,119,6.0,65.0
4944,60.0,0,0,7.0,73.0
4945,79.0,59,60,4.0,73.0
4946,67.0,0,120,5.0,56.0
4947,64.0,60,0,6.0,82.0
4948,81.0,60,60,4.0,77.0
4949,64.0,0,120,4.0,50.0
4950,79.0,0,60,4.0,82.0
4951,48.0,0,240,8.0,69.0
4952,70.0,0,120,4.0,91.0
4953,81.0,60,60,4.0,86.0
4954,36.0,0,240,10.0,69.0
4955,67.0,0,120,5.0,65.0
4956,60.0,0,0,7.0,84.0
4957,64.0,0,0,6.0,86.0
4958,79.0,0,60,4.0,62.0
4959,81.0,60,60,4.0,71.0
4960,60.0,60,120,4.0,51.0
4961,64.0,0,0,6.0,66.0
4962,67.0,0,120,5.0,59.0
4963,79.0,0,60,4.0,75.0
4964,36.0,60,0,10.0,69.0
4965,70.0,60,120,4.0,101.0
4966,67.0,0,120,5.0,69.0
4967,81.0,60,60,4.0,79.0
4968,48.0,0,0,8.0,69.0
4969,64.0,0,0,6.0,75.0
4970,79.0,0,60,4.0,83.0
4971,81.0,60,60,4.0,87.0
4972,64.0,60,0,6.0,83.0
4973,67.0,0,0,5.0,79.0
4974,64.0,0,120,4.0,60.0
4975,79.0,0,60,4.0,92.0
4976,60.0,0,236,7.0,64.0
4977,70.0,0,116,4.0,90.0
4978,36.0,56,0,10.0,83.0
4979,67.0,0,0,5.0,87.0
4980,48.0,0,0,8.0,83.0
4981,81.0,60,56,4.0,96.0
4982,79.0,0,60,4.0,75.0
4983,81.0,60,60,4.0,83.0
4984,60.0,0,120,4.0,49.0
4985,64.0,0,120,6.0,92.0
4986,67.0,0,0,5.0,96.0
4987,79.0,60,60,4.0,88.0
4988,60.0,0,240,7.0,80.0
4989,70.0,0,120,4.0,97.0
4990,81.0,60,60,4.0,92.0
4991,64.0,0,0,6.0,90.0
4992,79.0,0,60,4.0,96.0
4993,81.0,60,59,4.0,100.0
4994,64.0,0,119,4.0,60.0
4995,67.0,0,119,5.0,76.0
4996,79.0,0,60,4.0,104.0
4997,70.0,59,120,4.0,88.0
4998,64.0,60,0,6.0,96.0
4999,81.0,60,60,4.0,109.0
5000,48.0,0,0,8.0,96.0
5001,67.0,0,120,5.0,88.0
5002,36.0,0,239,10.0,88.0
5003,60.0,0,0,7.0,108.0
5004,79.0,0,60,4.0,97.0
5005,81.0,60,60,4.0,116.0
5006,60.0,0,120,4.0,48.0
5007,67.0,0,120,5.0,96.0
5008,79.0,0,60,4.0,95.0
5009,36.0,0,240,10.0,96.0
5010,64.0,60,120,6.0,104.0
5011,67.0,60,0,5.0,106.0
5012,81.0,60,60,4.0,113.0
5013,70.0,0,120,4.0,101.0
5014,48.0,0,0,8.0,98.0
5015,64.0,0,116,4.0,54.0
5016,77.0,0,116,4.0,84.0
5017,64.0,0,116,6.0,107.0
5018,36.0,0,240,10.0,98.0
5019,76.0,120,1914,1.0,54.0
5020,64.0,0,124,6.0,103.0
5021,79.0,0,1914,0.0,47.0
5022,67.0,0,124,5.0,102.0
5023,60.0,0,240,7.0,96.0
5024,79.0,116,124,4.0,100.0
5025,70.0,0,124,4.0,92.0
5026,53.0,0,113,8.0,92.0
5027,41.0,0,113,10.0,92.0
5028,65.0,0,113,7.0,110.0
5029,65.0,121,236,3.0,77.0
5030,53.0,0,243,2.0,73.0
5031,48.0,0,117,8.0,71.0
5032,36.0,0,117,10.0,71.0
5033,60.0,240,117,7.0,62.0
5034,69.0,0,480,1.0,85.0
5035,77.0,0,480,1.0,85.0
5036,77.0,0,480,4.0,77.0
5037,77.0,0,480,0.0,70.0
5038,69.0,0,480,4.0,71.0
5039,48.0,0,240,2.0,69.0
5040,65.0,0,480,4.0,71.0
5041,41.0,0,117,10.0,92.0
5042,65.0,0,117,7.0,103.0
5043,53.0,0,117,8.0,92.0
5044,65.0,0,177,3.0,74.0
5045,53.0,0,240,2.0,92.0
5046,60.0,0,117,7.0,68.0
5047,36.0,240,117,10.0,82.0
5048,48.0,0,117,8.0,82.0
5049,65.0,120,57,3.0,86.0
5050,48.0,0,240,2.0,80.0
5051,65.0,0,960,6.0,108.0
5052,60.0,0,480,1.0,68.0
5053,65.0,0,960,5.0,88.0
5054,57.0,0,960,5.0,88.0
5055,72.0,0,480,1.0,68.0
5056,72.0,240,480,0.0,53.0
5057,57.0,3,960,6.0,108.0
5058,65.0,0,117,7.0,103.0
5059,41.0,0,117,10.0,92.0
5060,53.0,0,117,8.0,92.0
5061,65.0,0,237,3.0,78.0
5062,53.0,120,240,2.0,97.0
5063,77.0,240,117,5.0,85.0
5064,48.0,0,117,8.0,67.0
5065,60.0,0,117,7.0,68.0
5066,36.0,0,117,10.0,67.0
5067,65.0,0,117,6.0,93.0
5068,65.0,0,480,1.0,98.0
5069,77.0,0,480,1.0,98.0
5070,48.0,0,240,2.0,71.0
5071,77.0,0,480,0.0,102.0
5072,65.0,0,117,6.0,98.0
5073,77.0,0,117,5.0,97.0
5074,65.0,0,117,7.0,94.0
5075,41.0,0,117,10.0,94.0
5076,53.0,240,117,8.0,94.0
5077,65.0,0,237,3.0,80.0
5078,53.0,0,240,2.0,98.0
5079,36.0,0,117,10.0,75.0
5080,65.0,0,117,6.0,96.0
5081,77.0,0,117,5.0,102.0
5082,48.0,240,117,8.0,75.0
5083,60.0,0,117,7.0,72.0
5084,81.0,0,480,0.0,101.0
5085,69.0,0,480,1.0,109.0
5086,81.0,0,480,1.0,109.0
5087,48.0,0,240,2.0,75.0
5088,77.0,0,60,5.0,91.0
5089,65.0,0,60,6.0,103.0
5090,43.0,0,117,10.0,97.0
5091,55.0,240,117,8.0,97.0
5092,67.0,0,117,7.0,112.0
5093,79.0,60,60,5.0,110.0
5094,67.0,0,60,6.0,109.0
5095,65.0,0,120,6.0,89.0
5096,55.0,0,240,2.0,97.0
5097,77.0,60,120,5.0,86.0
5098,48.0,0,117,8.0,65.0
5099,36.0,0,117,10.0,65.0
5100,60.0,0,117,7.0,57.0
5101,48.0,0,240,2.0,61.0
5102,64.0,0,0,6.0,106.0
5103,76.0,240,0,5.0,91.0
5104,43.0,0,117,10.0,91.0
5105,55.0,0,117,8.0,91.0
5106,67.0,0,117,7.0,112.0
5107,55.0,0,240,2.0,100.0
5108,60.0,0,117,7.0,60.0
5109,48.0,240,117,8.0,76.0
5110,36.0,0,117,10.0,76.0
5111,48.0,0,240,2.0,68.0
5112,55.0,240,117,8.0,103.0
5113,43.0,0,117,10.0,103.0
5114,67.0,0,117,7.0,109.0
5115,55.0,0,240,2.0,96.0
5116,60.0,0,117,7.0,54.0
5117,36.0,0,117,10.0,76.0
5118,48.0,0,117,8.0,76.0
5119,48.0,240,240,2.0,72.0
5120,70.0,0,1440,1.0,92.0
5121,82.0,0,1440,1.0,92.0
5122,41.0,0,117,10.0,87.0
5123,65.0,0,117,7.0,107.0
5124,53.0,0,117,8.0,87.0
5125,53.0,0,240,2.0,94.0
5126,36.0,0,117,10.0,73.0
5127,60.0,0,117,7.0,72.0
5128,48.0,0,117,8.0,73.0
5129,69.0,240,360,1.0,73.0
5130,81.0,0,360,1.0,73.0
5131,65.0,120,120,1.0,63.0
5132,77.0,0,120,1.0,63.0
5133,65.0,0,480,6.0,104.0
5134,77.0,0,480,5.0,115.0
5135,48.0,240,240,2.0,77.0
5136,40.0,0,117,10.0,94.0
5137,52.0,0,117,8.0,94.0
5138,64.0,0,117,7.0,89.0
5139,78.0,0,240,5.0,111.0
5140,66.0,0,240,6.0,122.0
5141,52.0,120,240,2.0,91.0
5142,48.0,240,117,8.0,75.0
5143,60.0,0,117,7.0,71.0
5144,36.0,0,117,10.0,75.0
5145,48.0,0,240,2.0,78.0
5146,67.0,0,240,6.0,107.0
5147,67.0,0,480,1.0,93.0
5148,79.0,0,480,1.0,93.0
5149,79.0,0,0,5.0,103.0
5150,40.0,0,117,10.0,89.0
5151,52.0,0,117,8.0,89.0
5152,64.0,0,117,7.0,94.0
5153,52.0,240,240,2.0,87.0
5154,36.0,0,117,10.0,86.0
5155,48.0,0,117,8.0,86.0
5156,60.0,240,117,7.0,75.0
5157,48.0,0,240,2.0,79.0
5158,72.0,0,480,1.0,56.0
5159,60.0,0,480,1.0,56.0
5160,43.0,0,117,10.0,98.0
5161,55.0,240,117,8.0,98.0
5162,67.0,0,117,7.0,106.0
5163,55.0,0,240,2.0,98.0
5164,67.0,0,720,6.0,103.0
5165,79.0,0,117,5.0,91.0
5166,67.0,0,117,6.0,94.0
5167,60.0,240,117,7.0,59.0
5168,48.0,0,117,8.0,72.0
5169,36.0,0,117,10.0,72.0
5170,64.0,0,480,1.0,98.0
5171,76.0,0,480,1.0,98.0
5172,48.0,0,240,2.0,73.0
5173,70.0,0,117,7.0,122.0
5174,58.0,0,117,8.0,103.0
5175,46.0,240,117,10.0,103.0
5176,67.0,0,117,6.0,95.0
5177,79.0,0,117,5.0,95.0
5178,58.0,0,240,2.0,104.0
5179,79.0,0,117,5.0,96.0
5180,60.0,240,117,7.0,66.0
5181,48.0,0,117,8.0,62.0
5182,36.0,0,117,10.0,62.0
5183,67.0,0,117,6.0,96.0
5184,79.0,0,480,1.0,104.0
5185,67.0,0,480,1.0,104.0
5186,48.0,0,240,2.0,65.0
5187,67.0,0,60,6.0,98.0
5188,79.0,0,60,5.0,96.0
5189,69.0,0,117,7.0,111.0
5190,57.0,0,117,8.0,94.0
5191,45.0,0,117,10.0,94.0
5192,69.0,0,60,6.0,104.0
5193,81.0,60,60,5.0,107.0
5194,79.0,0,120,5.0,84.0
5195,67.0,60,120,6.0,86.0
5196,57.0,240,240,2.0,89.0
5197,48.0,0,117,8.0,68.0
5198,60.0,120,117,7.0,63.0
5199,36.0,0,117,10.0,68.0
5200,48.0,0,240,2.0,72.0
5201,77.0,240,0,5.0,93.0
5202,65.0,0,240,6.0,86.0
5203,69.0,0,117,7.0,115.0
5204,45.0,0,117,10.0,95.0
5205,57.0,0,117,8.0,95.0
5206,57.0,0,240,2.0,95.0
5207,36.0,0,117,10.0,67.0
5208,60.0,0,117,7.0,64.0
5209,48.0,240,117,8.0,67.0
5210,48.0,0,240,2.0,66.0
5211,57.0,0,117,8.0,100.0
5212,69.0,0,117,7.0,117.0
5213,45.0,240,117,10.0,100.0
5214,57.0,0,240,2.0,97.0
5215,36.0,0,117,10.0,66.0
5216,48.0,240,117,8.0,66.0
5217,60.0,0,117,7.0,61.0
5218,48.0,0,240,2.0,73.0
5219,65.0,0,960,6.0,96.0
5220,72.0,0,1440,1.0,105.0
5221,84.0,0,1440,1.0,105.0
5222,52.0,0,117,8.0,87.0
5223,64.0,0,117,7.0,101.0
5224,40.0,240,117,10.0,87.0
5225,52.0,0,240,2.0,85.0
5226,60.0,0,117,7.0,71.0
5227,48.0,240,117,8.0,83.0
5228,36.0,0,117,10.0,83.0
5229,82.0,0,360,1.0,82.0
5230,70.0,0,360,1.0,82.0
5231,48.0,0,240,2.0,74.0
5232,79.0,0,120,1.0,66.0
5233,67.0,0,480,6.0,109.0
5234,79.0,0,480,5.0,109.0
5235,67.0,120,120,1.0,66.0
5236,41.0,0,117,10.0,90.0
5237,65.0,0,117,7.0,100.0
5238,53.0,0,117,8.0,90.0
5239,68.0,0,240,6.0,109.0
5240,53.0,120,240,2.0,97.0
5241,80.0,0,240,5.0,114.0
5242,60.0,0,117,7.0,73.0
5243,48.0,0,117,8.0,78.0
5244,36.0,240,117,10.0,78.0
5245,69.0,0,0,6.0,102.0
5246,48.0,0,240,2.0,77.0
5247,77.0,0,480,1.0,69.0
5248,65.0,0,480,1.0,69.0
5249,81.0,0,0,5.0,104.0
5250,53.0,0,117,8.0,93.0
5251,41.0,0,117,10.0,93.0
5252,65.0,0,117,7.0,98.0
5253,53.0,0,240,2.0,89.0
5254,48.0,0,117,8.0,79.0
5255,36.0,0,117,10.0,79.0
5256,60.0,240,117,7.0,64.0
5257,72.0,240,480,1.0,60.0
5258,48.0,0,240,2.0,84.0
5259,60.0,0,480,1.0,60.0
5260,53.0,0,117,8.0,91.0
5261,41.0,240,117,10.0,91.0
5262,65.0,0,117,7.0,106.0
5263,81.0,240,0,5.0,102.0
5264,69.0,0,0,6.0,97.0
5265,53.0,0,240,2.0,85.0
5266,48.0,0,117,8.0,80.0
5267,60.0,0,117,7.0,65.0
5268,36.0,0,117,10.0,80.0
5269,48.0,0,240,2.0,76.0
5270,65.0,0,480,1.0,100.0
5271,77.0,0,480,1.0,100.0
5272,69.0,0,117,6.0,96.0
5273,81.0,240,117,5.0,95.0
5274,53.0,0,117,8.0,91.0
5275,41.0,0,117,10.0,91.0
5276,65.0,0,117,7.0,102.0
5277,53.0,0,240,2.0,97.0
5278,69.0,0,117,6.0,91.0
5279,81.0,0,117,5.0,97.0
5280,36.0,0,117,10.0,79.0
5281,48.0,0,117,8.0,79.0
5282,60.0,0,117,7.0,72.0
5283,48.0,240,240,2.0,75.0
5284,81.0,0,480,1.0,106.0
5285,69.0,0,480,1.0,106.0
5286,69.0,0,60,6.0,95.0
5287,81.0,0,60,5.0,96.0
5288,52.0,0,117,8.0,89.0
5289,64.0,240,117,7.0,91.0
5290,40.0,0,117,10.0,89.0
5291,70.0,0,60,6.0,105.0
5292,82.0,60,60,5.0,104.0
5293,81.0,0,120,5.0,86.0
5294,52.0,0,240,2.0,84.0
5295,69.0,60,120,6.0,94.0
5296,36.0,0,117,10.0,71.0
5297,48.0,120,117,8.0,71.0
5298,60.0,0,117,7.0,64.0
5299,67.0,0,0,6.0,102.0
5300,79.0,0,240,5.0,88.0
5301,48.0,0,240,2.0,75.0
5302,52.0,0,117,8.0,95.0
5303,64.0,0,117,7.0,100.0
5304,40.0,240,117,10.0,95.0
5305,52.0,0,240,2.0,88.0
5306,60.0,240,117,7.0,66.0
5307,36.0,0,117,10.0,74.0
5308,48.0,0,117,8.0,74.0
5309,48.0,0,240,2.0,75.0
5310,40.0,0,117,10.0,88.0
5311,64.0,0,117,7.0,99.0
5312,52.0,240,117,8.0,88.0
5313,52.0,0,240,2.0,90.0
5314,36.0,240,117,10.0,77.0
5315,48.0,0,117,8.0,77.0
5316,60.0,0,117,7.0,67.0
5317,82.0,0,1440,1.0,95.0
5318,70.0,0,1440,1.0,95.0
5319,79.0,0,960,5.0,95.0
5320,48.0,0,240,2.0,82.0
5321,42.0,0,117,10.0,101.0
5322,66.0,0,117,7.0,99.0
5323,54.0,0,117,8.0,101.0
5324,54.0,0,240,2.0,93.0
5325,60.0,0,117,7.0,64.0
5326,48.0,0,117,8.0,76.0
5327,36.0,0,117,10.0,76.0
5328,48.0,240,240,2.0,72.0
5329,69.0,0,0,6.0,100.0
5330,81.0,0,480,5.0,110.0
5331,81.0,240,480,1.0,77.0
5332,69.0,0,480,1.0,77.0
5333,43.0,0,117,10.0,98.0
5334,55.0,0,117,8.0,98.0
5335,67.0,0,117,7.0,113.0
5336,55.0,240,240,2.0,91.0
5337,81.0,0,240,5.0,93.0
5338,60.0,240,117,7.0,60.0
5339,48.0,0,117,8.0,71.0
5340,36.0,0,117,10.0,71.0
5341,48.0,0,240,2.0,74.0
5342,82.0,0,0,5.0,102.0
5343,70.0,0,0,6.0,99.0
5344,43.0,0,117,10.0,102.0
5345,67.0,0,117,7.0,116.0
5346,55.0,240,117,8.0,102.0
5347,55.0,0,240,2.0,95.0
5348,48.0,0,117,8.0,71.0
5349,60.0,0,117,7.0,60.0
5350,36.0,240,117,10.0,71.0
5351,48.0,0,240,2.0,70.0
5352,43.0,240,117,10.0,89.0
5353,55.0,0,117,8.0,89.0
5354,67.0,0,117,7.0,108.0
5355,70.0,240,0,6.0,97.0
5356,82.0,0,0,5.0,99.0
5357,55.0,0,240,2.0,91.0
5358,60.0,0,117,7.0,60.0
5359,36.0,0,117,10.0,74.0
5360,48.0,0,117,8.0,74.0
5361,76.0,0,1440,1.0,60.0
5362,64.0,0,1440,1.0,60.0
5363,48.0,0,240,2.0,71.0
5364,82.0,0,117,5.0,95.0
5365,70.0,240,117,6.0,96.0
5366,52.0,0,117,8.0,88.0
5367,64.0,0,117,7.0,99.0
5368,40.0,0,117,10.0,88.0
5369,52.0,0,240,2.0,95.0
5370,60.0,0,117,7.0,61.0
5371,48.0,0,117,8.0,74.0
5372,70.0,0,117,6.0,101.0
5373,82.0,240,117,5.0,97.0
5374,36.0,0,117,10.0,74.0
5375,72.0,0,11520,3.0,109.0
5376,48.0,0,240,2.0,82.0
5377,67.0,0,480,1.0,93.0
5378,79.0,0,480,1.0,93.0
5379,77.0,0,117,1.0,78.0
5380,81.0,0,117,6.0,126.0
5381,81.0,0,117,5.0,95.0
5382,77.0,0,117,1.0,87.0
5383,77.0,0,117,6.0,85.0
5384,77.0,240,117,5.0,69.0
5385,65.0,0,480,3.0,89.0
5386,53.0,0,480,2.0,93.0
5387,72.0,0,480,3.0,89.0
5388,65.0,0,480,7.0,100.0
5389,65.0,0,480,1.0,63.0
5390,41.0,0,480,10.0,89.0
5391,84.0,0,12000,0.0,103.0
5392,53.0,240,480,8.0,89.0
5393,79.0,0,60,1.0,93.0
5394,79.0,240,60,5.0,106.0
5395,79.0,0,60,6.0,106.0
5396,77.0,0,60,5.0,88.0
5397,77.0,0,60,6.0,91.0
5398,77.0,60,60,1.0,78.0
5399,76.0,60,60,5.0,92.0
5400,76.0,0,60,6.0,84.0
5401,76.0,0,60,1.0,75.0
5402,77.0,60,300,5.0,105.0
5403,77.0,0,300,6.0,99.0
5404,77.0,0,300,1.0,95.0
5405,81.0,300,117,6.0,113.0
5406,81.0,0,117,5.0,119.0
5407,81.0,0,117,1.0,97.0
5408,72.0,0,117,6.0,64.0
5409,72.0,240,117,1.0,55.0
5410,72.0,0,117,5.0,73.0
5411,74.0,0,60,1.0,88.0
5412,74.0,240,60,5.0,101.0
5413,74.0,0,60,6.0,100.0
5414,72.0,60,57,1.0,66.0
5415,72.0,0,57,6.0,90.0
5416,72.0,0,57,5.0,87.0
5417,70.0,0,60,1.0,73.0
5418,71.0,57,60,6.0,83.0
5419,71.0,0,60,5.0,87.0
5420,72.0,0,303,5.0,101.0
5421,72.0,60,303,6.0,99.0
5422,72.0,0,303,1.0,86.0
5423,74.0,0,116,7.0,75.0
5424,74.0,0,112,1.0,100.0
5425,74.0,0,112,6.0,109.0
5426,74.0,0,116,3.0,76.0
5427,50.0,299,116,10.0,79.0
5428,86.0,0,116,0.0,79.0
5429,62.0,0,116,8.0,79.0
5430,74.0,4,112,5.0,105.0
5431,62.0,0,116,2.0,76.0
5432,70.0,0,117,7.0,68.0
5433,70.0,0,117,3.0,63.0
5434,70.0,0,117,1.0,72.0
5435,70.0,0,117,6.0,73.0
5436,58.0,0,117,2.0,77.0
5437,70.0,240,117,5.0,83.0
5438,58.0,0,117,8.0,75.0
5439,82.0,0,117,0.0,63.0
5440,46.0,0,117,10.0,75.0
5441,72.0,240,60,5.0,96.0
5442,72.0,0,60,7.0,97.0
5443,84.0,0,60,0.0,92.0
5444,72.0,0,60,6.0,109.0
5445,72.0,0,60,1.0,89.0
5446,70.0,0,60,1.0,73.0
5447,82.0,0,60,0.0,72.0
5448,70.0,60,60,5.0,84.0
5449,70.0,0,60,6.0,88.0
5450,70.0,0,60,7.0,76.0
5451,81.0,0,60,0.0,83.0
5452,69.0,0,60,5.0,82.0
5453,69.0,0,60,7.0,74.0
5454,69.0,0,60,6.0,88.0
5455,69.0,60,60,1.0,71.0
5456,70.0,0,300,5.0,103.0
5457,70.0,0,480,3.0,84.0
5458,58.0,0,480,2.0,75.0
5459,70.0,0,300,1.0,91.0
5460,46.0,0,480,10.0,88.0
5461,70.0,0,300,7.0,90.0
5462,70.0,0,300,6.0,102.0
5463,82.0,60,300,0.0,89.0
5464,58.0,0,480,8.0,88.0
5465,74.0,0,117,6.0,120.0
5466,74.0,0,117,3.0,104.0
5467,74.0,300,117,5.0,118.0
5468,86.0,0,117,0.0,103.0
5469,62.0,0,117,8.0,93.0
5470,74.0,0,117,1.0,108.0
5471,74.0,0,117,7.0,97.0
5472,50.0,0,117,10.0,93.0
5473,62.0,0,117,2.0,98.0
5474,53.0,0,119,2.0,71.0
5475,53.0,0,119,8.0,69.0
5476,65.0,229,119,1.0,61.0
5477,65.0,0,119,3.0,53.0
5478,77.0,0,119,0.0,64.0
5479,65.0,0,119,7.0,61.0
5480,65.0,0,119,5.0,65.0
5481,65.0,0,119,6.0,72.0
5482,41.0,0,119,10.0,69.0
5483,79.0,0,60,0.0,81.0
5484,67.0,0,60,6.0,102.0
5485,67.0,0,60,7.0,83.0
5486,67.0,0,60,5.0,100.0
5487,67.0,0,60,1.0,89.0
5488,65.0,0,56,7.0,76.0
5489,65.0,0,56,5.0,89.0
5490,77.0,0,56,0.0,72.0
5491,65.0,60,56,6.0,87.0
5492,65.0,0,56,1.0,78.0
5493,64.0,0,60,6.0,91.0
5494,76.0,0,60,0.0,78.0
5495,64.0,56,60,7.0,78.0
5496,64.0,0,60,1.0,67.0
5497,64.0,0,60,5.0,88.0
5498,65.0,0,330,5.0,101.0
5499,65.0,0,330,6.0,107.0
5500,65.0,225,506,3.0,73.0
5501,53.0,0,506,8.0,81.0
5502,65.0,0,330,1.0,92.0
5503,41.0,0,506,10.0,81.0
5504,77.0,60,330,0.0,91.0
5505,65.0,0,330,7.0,88.0
5506,53.0,0,506,2.0,80.0
5507,58.0,0,106,2.0,97.0
5508,82.0,0,106,0.0,108.0
5509,46.0,0,106,10.0,96.0
5510,70.0,330,106,1.0,100.0
5511,70.0,0,106,7.0,112.0
5512,58.0,0,106,8.0,96.0
5513,70.0,0,106,5.0,123.0
5514,70.0,0,106,6.0,126.0
5515,70.0,0,228,3.0,100.0
5516,74.0,0,118,0.0,57.0
5517,62.0,0,118,6.0,68.0
5518,50.0,0,118,2.0,70.0
5519,50.0,0,118,8.0,70.0
5520,62.0,0,118,7.0,59.0
5521,62.0,0,118,5.0,67.0
5522,62.0,0,118,1.0,53.0
5523,38.0,228,118,10.0,70.0
5524,62.0,0,244,3.0,63.0
5525,62.0,0,117,6.0,89.0
5526,62.0,0,117,7.0,81.0
5527,50.0,0,117,2.0,83.0
5528,62.0,0,117,5.0,84.0
5529,74.0,0,117,0.0,73.0
5530,50.0,244,117,8.0,82.0
5531,62.0,0,117,1.0,80.0
5532,38.0,0,117,10.0,82.0
5533,62.0,0,240,3.0,85.0
5534,74.0,0,117,0.0,79.0
5535,38.0,0,117,10.0,82.0
5536,62.0,0,117,1.0,79.0
5537,62.0,0,117,5.0,94.0
5538,62.0,0,117,6.0,102.0
5539,50.0,0,117,2.0,85.0
5540,50.0,0,117,8.0,82.0
5541,62.0,240,117,7.0,75.0
5542,62.0,0,0,3.0,85.0
5543,62.0,0,117,7.0,81.0
5544,62.0,0,117,5.0,95.0
5545,62.0,0,117,1.0,92.0
5546,50.0,0,117,8.0,89.0
5547,74.0,0,117,0.0,87.0
5548,62.0,0,117,6.0,95.0
5549,50.0,0,117,2.0,80.0
5550,38.0,244,117,10.0,89.0
5551,62.0,0,0,3.0,79.0
5552,62.0,0,117,7.0,83.0
5553,38.0,0,117,10.0,89.0
5554,74.0,0,117,0.0,84.0
5555,62.0,0,117,5.0,95.0
5556,62.0,0,117,1.0,81.0
5557,50.0,240,117,8.0,89.0
5558,50.0,0,117,2.0,86.0
5559,62.0,0,117,6.0,95.0
5560,62.0,0,117,1.0,80.0
5561,50.0,0,117,2.0,81.0
5562,74.0,0,117,0.0,81.0
5563,38.0,244,117,10.0,84.0
5564,62.0,0,117,6.0,97.0
5565,62.0,0,117,5.0,96.0
5566,50.0,0,117,8.0,84.0
5567,62.0,0,117,7.0,82.0
5568,62.0,0,240,3.0,87.0
5569,62.0,0,117,7.0,82.0
5570,50.0,0,117,8.0,84.0
5571,62.0,0,117,5.0,97.0
5572,62.0,0,117,1.0,77.0
5573,74.0,0,117,0.0,77.0
5574,62.0,0,117,6.0,94.0
5575,50.0,0,117,2.0,80.0
5576,38.0,240,117,10.0,84.0
5577,62.0,0,240,3.0,81.0
5578,62.0,0,237,7.0,68.0
5579,50.0,0,237,8.0,82.0
5580,38.0,0,237,10.0,82.0
5581,62.0,0,237,6.0,91.0
5582,62.0,0,237,5.0,101.0
5583,62.0,240,480,1.0,88.0
5584,62.0,0,0,3.0,116.0
5585,74.0,0,480,0.0,81.0
5586,50.0,0,480,2.0,82.0
5587,70.0,0,237,6.0,126.0
5588,62.0,480,237,5.0,126.0
5589,62.0,0,237,8.0,108.0
5590,50.0,0,237,10.0,108.0
5591,62.0,0,237,6.0,126.0
5592,70.0,0,237,5.0,126.0
5593,62.0,0,237,7.0,81.0
5594,77.0,0,237,6.0,126.0
5595,82.0,0,237,5.0,126.0
5596,74.0,0,480,3.0,116.0
5597,62.0,0,0,2.0,97.0
5598,65.0,0,480,2.0,116.0
5599,77.0,0,480,1.0,114.0
5600,89.0,0,480,0.0,117.0
5601,82.0,0,0,1.0,94.0
5602,50.0,0,237,10.0,92.0
5603,62.0,0,237,6.0,100.0
5604,70.0,480,237,6.0,100.0
5605,70.0,0,237,5.0,102.0
5606,77.0,0,237,6.0,100.0
5607,82.0,0,237,5.0,102.0
5608,62.0,0,237,5.0,102.0
5609,62.0,0,237,7.0,84.0
5610,62.0,0,237,8.0,92.0
5611,89.0,0,0,0.0,79.0
5612,62.0,0,0,2.0,87.0
5613,65.0,0,0,2.0,87.0
5614,77.0,0,480,1.0,94.0
5615,77.0,0,480,3.0,105.0
5616,65.0,0,480,3.0,105.0
5617,70.0,0,237,5.0,95.0
5618,62.0,0,237,5.0,95.0
5619,82.0,0,237,5.0,95.0
5620,50.0,0,237,10.0,90.0
5621,62.0,0,237,7.0,78.0
5622,62.0,0,237,8.0,90.0
5623,70.0,0,237,6.0,100.0
5624,62.0,0,237,6.0,100.0
5625,77.0,480,237,6.0,100.0
5626,62.0,480,0,2.0,86.0
5627,70.0,0,480,3.0,55.0
5628,82.0,0,480,1.0,83.0
5629,77.0,0,480,1.0,83.0
5630,62.0,0,480,3.0,55.0
5631,70.0,0,480,5.0,95.0
5632,58.0,0,480,3.0,74.0
5633,62.0,0,480,8.0,82.0
5634,62.0,0,480,5.0,95.0
5635,70.0,0,480,3.0,74.0
5636,62.0,0,480,7.0,81.0
5637,82.0,0,480,5.0,95.0
5638,70.0,0,480,6.0,98.0
5639,62.0,0,480,6.0,98.0
5640,89.0,0,480,0.0,84.0
5641,50.0,0,480,10.0,82.0
5642,77.0,0,480,1.0,83.0
5643,65.0,0,480,2.0,86.0
5644,82.0,0,480,1.0,83.0
5645,77.0,0,480,6.0,98.0
5646,81.0,0,117,5.0,46.0
5647,81.0,240,57,5.0,58.0
5648,81.0,120,57,5.0,61.0
5649,81.0,120,117,5.0,59.0
5650,81.0,240,117,5.0,68.0
5651,81.0,240,240,5.0,61.0
5652,84.0,240,240,5.0,73.0
5653,77.0,240,240,5.0,40.0
5654,65.0,1920,1920,6.0,57.0
5655,60.0,0,1920,7.0,54.0
5656,81.0,240,240,5.0,69.0
5657,72.0,240,117,5.0,41.0
5658,69.0,0,240,7.0,88.0
5659,72.0,0,240,6.0,77.0
5660,72.0,240,57,5.0,57.0
5661,72.0,120,57,5.0,55.0
5662,72.0,0,117,5.0,59.0
5663,69.0,120,240,6.0,49.0
5664,65.0,0,240,7.0,60.0
5665,72.0,240,117,5.0,62.0
5666,72.0,240,117,5.0,57.0
5667,67.0,0,240,7.0,57.0
5668,70.0,0,240,6.0,54.0
5669,72.0,240,117,5.0,62.0
5670,72.0,0,117,5.0,56.0
5671,64.0,0,240,7.0,46.0
5672,67.0,240,240,6.0,47.0
5673,72.0,240,117,5.0,60.0
5674,81.0,0,117,1.0,62.0
5675,81.0,0,117,0.0,67.0
5676,69.0,0,117,1.0,60.0
5677,57.0,0,240,2.0,63.0
5678,69.0,240,57,1.0,52.0
5679,81.0,0,57,0.0,66.0
5680,81.0,0,57,1.0,66.0
5681,57.0,0,0,2.0,74.0
5682,81.0,120,57,0.0,71.0
5683,69.0,0,57,1.0,58.0
5684,81.0,0,57,1.0,70.0
5685,57.0,0,0,2.0,76.0
5686,69.0,0,117,1.0,59.0
5687,81.0,120,117,0.0,78.0
5688,81.0,0,117,1.0,72.0
5689,69.0,0,117,1.0,59.0
5690,81.0,240,117,1.0,68.0
5691,81.0,0,117,0.0,72.0
5692,57.0,0,240,2.0,70.0
5693,81.0,0,240,0.0,70.0
5694,57.0,0,240,2.0,72.0
5695,81.0,240,240,1.0,68.0
5696,69.0,0,240,1.0,66.0
5697,84.0,0,240,0.0,79.0
5698,60.0,240,240,2.0,86.0
5699,72.0,0,240,1.0,71.0
5700,77.0,240,240,0.0,49.0
5701,53.0,0,240,2.0,64.0
5702,77.0,0,240,1.0,63.0
5703,65.0,0,240,1.0,44.0
5704,57.0,240,240,2.0,81.0
5705,69.0,0,1920,5.0,50.0
5706,60.0,240,1920,8.0,72.0
5707,60.0,0,1920,7.0,58.0
5708,65.0,0,1920,6.0,59.0
5709,81.0,0,240,0.0,78.0
5710,69.0,0,240,1.0,75.0
5711,48.0,0,1920,10.0,72.0
5712,60.0,240,117,2.0,81.0
5713,72.0,0,117,1.0,72.0
5714,48.0,0,117,2.0,81.0
5715,84.0,0,240,5.0,83.0
5716,72.0,0,240,7.0,82.0
5717,81.0,0,240,6.0,90.0
5718,69.0,0,240,7.0,82.0
5719,72.0,240,57,1.0,70.0
5720,60.0,0,117,2.0,75.0
5721,48.0,0,117,2.0,75.0
5722,72.0,120,57,1.0,83.0
5723,60.0,0,480,1.0,41.0
5724,72.0,0,480,0.0,48.0
5725,72.0,0,117,1.0,68.0
5726,60.0,0,117,2.0,78.0
5727,48.0,0,117,2.0,78.0
5728,81.0,0,240,5.0,48.0
5729,65.0,120,240,7.0,55.0
5730,69.0,0,240,7.0,55.0
5731,77.0,0,240,6.0,57.0
5732,72.0,240,117,1.0,65.0
5733,60.0,0,117,2.0,66.0
5734,48.0,0,117,2.0,66.0
5735,72.0,0,117,1.0,71.0
5736,48.0,0,117,2.0,71.0
5737,60.0,0,117,2.0,71.0
5738,67.0,0,240,7.0,54.0
5739,79.0,240,240,6.0,57.0
5740,82.0,0,240,5.0,55.0
5741,70.0,0,240,7.0,54.0
5742,72.0,240,117,1.0,70.0
5743,48.0,0,117,2.0,68.0
5744,60.0,0,117,2.0,68.0
5745,72.0,0,117,1.0,68.0
5746,60.0,0,117,2.0,70.0
5747,48.0,0,117,2.0,70.0
5748,76.0,0,240,6.0,56.0
5749,64.0,0,240,7.0,55.0
5750,79.0,240,240,5.0,59.0
5751,67.0,0,240,7.0,55.0
5752,60.0,0,117,2.0,75.0
5753,72.0,240,117,1.0,71.0
5754,48.0,0,117,2.0,75.0
5755,48.0,0,1920,8.0,62.0
5756,36.0,0,1920,10.0,62.0
5757,65.0,213,116,6.0,87.0
5758,65.0,0,116,5.0,86.0
5759,67.0,222,58,6.0,115.0
5760,67.0,0,58,5.0,106.0
5761,69.0,126,58,6.0,113.0
5762,69.0,0,58,5.0,112.0
5763,65.0,0,495,1.0,64.0
5764,65.0,0,495,3.0,74.0
5765,53.0,27,468,8.0,99.0
5766,53.0,0,495,2.0,80.0
5767,65.0,0,495,7.0,91.0
5768,41.0,0,468,10.0,99.0
5769,70.0,0,58,5.0,106.0
5770,70.0,120,58,6.0,108.0
5771,72.0,125,59,5.0,115.0
5772,72.0,0,59,6.0,110.0
5773,74.0,0,57,6.0,113.0
5774,74.0,127,57,5.0,117.0
5775,76.0,122,59,6.0,120.0
5776,76.0,0,59,5.0,112.0
5777,77.0,120,0,0.0,81.0
5778,77.0,0,127,5.0,105.0
5779,77.0,0,127,6.0,106.0
5780,77.0,0,127,1.0,75.0
5781,76.0,0,120,1.0,72.0
5782,76.0,0,120,5.0,91.0
5783,76.0,127,120,6.0,89.0
5784,76.0,0,120,0.0,79.0
5785,77.0,120,120,5.0,98.0
5786,77.0,0,120,0.0,85.0
5787,77.0,0,120,6.0,107.0
5788,77.0,0,120,1.0,87.0
5789,58.0,0,240,8.0,87.0
5790,76.0,0,120,1.0,75.0
5791,76.0,0,120,6.0,92.0
5792,58.0,0,240,2.0,78.0
5793,76.0,0,120,0.0,80.0
5794,46.0,0,240,10.0,87.0
5795,62.0,0,240,7.0,92.0
5796,76.0,120,120,5.0,85.0
5797,65.0,0,240,3.0,74.0
5798,77.0,0,120,1.0,90.0
5799,77.0,0,120,5.0,104.0
5800,77.0,0,120,0.0,84.0
5801,77.0,0,120,6.0,97.0
5802,76.0,0,120,0.0,77.0
5803,57.0,120,240,8.0,88.0
5804,45.0,0,240,10.0,88.0
5805,57.0,0,240,2.0,80.0
5806,76.0,0,120,5.0,91.0
5807,76.0,120,120,6.0,88.0
5808,76.0,0,120,1.0,82.0
5809,65.0,0,240,3.0,79.0
5810,60.0,0,240,7.0,90.0
5811,77.0,0,120,0.0,100.0
5812,77.0,0,120,5.0,106.0
5813,77.0,0,120,6.0,106.0
5814,77.0,0,120,1.0,93.0
5815,65.0,0,231,3.0,83.0
5816,55.0,120,231,8.0,93.0
5817,76.0,0,111,6.0,92.0
5818,76.0,120,111,5.0,88.0
5819,55.0,0,231,2.0,74.0
5820,76.0,0,111,0.0,79.0
5821,43.0,0,231,10.0,93.0
5822,76.0,0,111,1.0,78.0
5823,58.0,0,231,7.0,88.0
5824,77.0,0,59,6.0,102.0
5825,77.0,117,120,5.0,104.0
5826,77.0,0,120,1.0,90.0
5827,72.0,120,59,6.0,73.0
5828,72.0,0,120,1.0,65.0
5829,72.0,0,120,5.0,74.0
5830,74.0,0,59,6.0,106.0
5831,74.0,120,116,1.0,96.0
5832,74.0,0,116,5.0,101.0
5833,76.0,0,59,6.0,106.0
5834,65.0,0,476,3.0,84.0
5835,77.0,0,476,0.0,84.0
5836,53.0,0,476,2.0,77.0
5837,53.0,0,476,8.0,93.0
5838,76.0,116,120,5.0,111.0
5839,76.0,0,120,1.0,96.0
5840,41.0,0,476,10.0,93.0
5841,57.0,0,476,7.0,90.0
5842,77.0,120,59,6.0,107.0
5843,77.0,0,120,1.0,94.0
5844,77.0,0,120,5.0,107.0
5845,79.0,120,59,6.0,115.0
5846,79.0,0,120,5.0,114.0
5847,79.0,0,120,1.0,104.0
5848,81.0,0,59,6.0,104.0
5849,81.0,0,120,5.0,116.0
5850,65.0,0,360,3.0,86.0
5851,81.0,120,120,1.0,101.0
5852,79.0,0,59,6.0,100.0
5853,65.0,120,120,3.0,83.0
5854,79.0,0,120,5.0,92.0
5855,79.0,0,120,1.0,68.0
5856,77.0,0,120,6.0,86.0
5857,77.0,0,120,1.0,69.0
5858,77.0,0,120,5.0,80.0
5859,89.0,0,238,0.0,70.0
5860,76.0,120,118,1.0,77.0
5861,76.0,0,118,5.0,93.0
5862,76.0,0,118,6.0,84.0
5863,65.0,0,0,3.0,87.0
5864,77.0,118,120,1.0,84.0
5865,77.0,0,120,6.0,108.0
5866,77.0,0,120,5.0,99.0
5867,76.0,120,120,5.0,93.0
5868,76.0,0,120,1.0,76.0
5869,76.0,0,120,6.0,83.0
5870,58.0,0,240,2.0,69.0
5871,89.0,0,240,0.0,80.0
5872,46.0,0,240,10.0,86.0
5873,62.0,0,240,7.0,84.0
5874,58.0,0,240,8.0,86.0
5875,65.0,0,0,3.0,79.0
5876,77.0,120,120,5.0,105.0
5877,77.0,0,120,6.0,109.0
5878,77.0,0,120,1.0,90.0
5879,76.0,0,120,1.0,78.0
5880,45.0,0,240,10.0,87.0
5881,60.0,0,240,7.0,82.0
5882,76.0,120,120,6.0,94.0
5883,89.0,0,0,0.0,78.0
5884,57.0,0,240,8.0,87.0
5885,76.0,0,120,5.0,89.0
5886,57.0,0,240,2.0,75.0
5887,77.0,0,120,6.0,102.0
5888,77.0,0,120,1.0,90.0
5889,77.0,0,120,5.0,110.0
5890,89.0,120,0,0.0,82.0
5891,76.0,0,120,1.0,74.0
5892,65.0,0,0,3.0,86.0
5893,43.0,120,240,10.0,90.0
5894,55.0,0,240,8.0,90.0
5895,76.0,120,120,6.0,86.0
5896,58.0,0,240,7.0,95.0
5897,76.0,0,120,5.0,86.0
5898,55.0,0,240,2.0,78.0
5899,77.0,0,237,5.0,103.0
5900,57.0,0,237,7.0,96.0
5901,41.0,0,237,10.0,85.0
5902,53.0,0,237,8.0,85.0
5903,77.0,0,237,6.0,102.0
5904,53.0,0,480,2.0,83.0
5905,77.0,0,480,1.0,86.0
5906,72.0,0,237,5.0,117.0
5907,81.0,0,237,5.0,117.0
5908,65.0,0,237,7.0,126.0
5909,81.0,480,237,6.0,119.0
5910,41.0,0,237,10.0,94.0
5911,72.0,0,237,6.0,119.0
5912,53.0,0,237,8.0,94.0
5913,53.0,0,480,2.0,87.0
5914,72.0,0,480,3.0,117.0
5915,65.0,0,480,3.0,117.0
5916,84.0,0,480,0.0,66.0
5917,72.0,0,480,1.0,105.0
5918,81.0,0,480,1.0,105.0
5919,69.0,0,480,1.0,73.0
5920,77.0,0,480,1.0,73.0
5921,29.0,0,480,10.0,71.0
5922,41.0,0,480,2.0,65.0
5923,65.0,0,480,3.0,91.0
5924,72.0,0,480,3.0,91.0
5925,41.0,0,480,8.0,71.0
5926,65.0,0,480,6.0,69.0
5927,57.0,0,480,5.0,63.0
5928,65.0,0,480,5.0,63.0
5929,81.0,0,480,0.0,60.0
5930,57.0,480,480,6.0,69.0
5931,53.0,0,480,7.0,80.0
5932,69.0,953,88,4.0,66.0
5933,72.0,88,95,4.0,78.0
5934,77.0,95,544,4.0,95.0
5935,79.0,544,78,4.0,75.0
5936,77.0,78,80,4.0,56.0
5937,76.0,80,82,4.0,57.0
5938,77.0,82,360,4.0,74.0
5939,81.0,360,120,4.0,86.0
5940,72.0,120,360,4.0,50.0
5941,77.0,360,120,4.0,84.0
5942,53.0,120,240,4.0,56.0
5943,60.0,240,240,4.0,72.0
5944,69.0,0,480,4.0,62.0
5945,57.0,240,240,4.0,51.0
5946,60.0,240,240,4.0,61.0
5947,50.0,240,240,4.0,54.0
5948,62.0,240,240,4.0,77.0
5949,57.0,240,240,4.0,54.0
5950,77.0,0,480,4.0,71.0
5951,62.0,240,240,4.0,66.0
5952,58.0,240,240,4.0,44.0
5953,67.0,240,240,4.0,71.0
5954,81.0,0,480,4.0,94.0
5955,62.0,0,240,4.0,39.0
5956,67.0,240,240,4.0,67.0
5957,60.0,240,240,4.0,31.0
5958,79.0,240,966,4.0,64.0
5959,70.0,240,246,4.0,68.0
5960,77.0,246,120,4.0,58.0
5961,67.0,0,240,4.0,46.0
5962,76.0,120,120,4.0,61.0
5963,74.0,120,120,4.0,50.0
5964,76.0,120,114,4.0,82.0
5965,70.0,0,234,4.0,59.0
5966,77.0,0,157,4.0,80.0
5967,72.0,157,79,4.0,60.0
5968,74.0,160,79,4.0,75.0
5969,65.0,0,479,4.0,39.0
5970,69.0,115,479,4.0,39.0
5971,76.0,162,158,4.0,81.0
5972,77.0,158,160,4.0,79.0
5973,78.0,160,162,4.0,78.0
5974,79.0,162,160,4.0,81.0
5975,80.0,160,165,4.0,80.0
5976,81.0,165,171,4.0,74.0
5977,82.0,171,164,4.0,76.0
5978,83.0,164,160,4.0,80.0
5979,84.0,160,140,4.0,81.0
5980,77.0,0,711,4.0,53.0
5981,79.0,711,79,4.0,74.0
5982,77.0,79,80,4.0,56.0
5983,76.0,80,78,4.0,61.0
5984,77.0,239,0,4.0,73.0
5985,81.0,117,120,4.0,81.0
5986,89.0,158,1424,0.0,59.0
5987,77.0,0,1424,1.0,50.0
5988,65.0,0,1424,2.0,55.0
5989,72.0,239,0,4.0,68.0
5990,84.0,0,379,0.0,43.0
5991,72.0,0,379,1.0,48.0
5992,60.0,0,379,2.0,49.0
5993,77.0,119,120,4.0,82.0
5994,53.0,0,240,4.0,59.0
5995,57.0,0,480,2.0,49.0
5996,69.0,0,480,1.0,48.0
5997,60.0,240,240,4.0,81.0
5998,69.0,0,480,4.0,61.0
5999,81.0,120,480,0.0,50.0
6000,57.0,240,240,4.0,59.0
6001,60.0,0,960,7.0,48.0
6002,53.0,0,960,8.0,41.0
6003,41.0,0,960,10.0,41.0
6004,60.0,240,240,4.0,75.0
6005,50.0,0,240,4.0,55.0
6006,62.0,240,240,4.0,80.0
6007,57.0,240,240,4.0,59.0
6008,50.0,0,856,8.0,53.0
6009,38.0,0,856,10.0,53.0
6010,62.0,240,240,4.0,79.0
6011,69.0,0,1920,5.0,47.0
6012,77.0,0,480,4.0,77.0
6013,58.0,0,240,4.0,43.0
6014,81.0,29,331,4.0,82.0
6015,67.0,211,240,4.0,70.0
6016,79.0,0,0,4.0,76.0
6017,62.0,120,240,4.0,40.0
6018,34.0,0,856,10.0,40.0
6019,46.0,240,856,8.0,40.0
6020,62.0,240,1920,7.0,51.0
6021,65.0,0,2880,6.0,47.0
6022,67.0,240,240,4.0,61.0
6023,60.0,240,240,4.0,33.0
6024,81.0,0,117,4.0,97.0
6025,79.0,117,116,4.0,76.0
6026,70.0,240,233,4.0,67.0
6027,77.0,116,116,4.0,71.0
6028,67.0,0,235,4.0,45.0
6029,76.0,116,119,4.0,70.0
6030,74.0,119,116,4.0,69.0
6031,48.0,0,841,8.0,46.0
6032,36.0,0,841,10.0,46.0
6033,72.0,116,136,4.0,70.0
6034,67.0,0,1920,5.0,41.0
6035,70.0,0,252,4.0,57.0
6036,57.0,8,232,4.0,43.0
6037,79.0,0,353,4.0,115.0
6038,65.0,232,241,4.0,71.0
6039,77.0,120,0,4.0,80.0
6040,60.0,0,243,4.0,42.0
6041,65.0,243,241,4.0,67.0
6042,33.0,0,965,10.0,47.0
6043,60.0,0,1917,7.0,48.0
6044,45.0,128,965,8.0,47.0
6045,64.0,0,1917,6.0,42.0
6046,58.0,241,240,4.0,52.0
6047,79.0,0,119,4.0,95.0
6048,65.0,240,236,4.0,70.0
6049,77.0,119,117,4.0,85.0
6050,76.0,117,120,4.0,80.0
6051,62.0,0,239,4.0,51.0
6052,74.0,120,119,4.0,74.0
6053,73.0,119,117,4.0,75.0
6054,34.0,0,849,10.0,48.0
6055,46.0,0,849,8.0,48.0
6056,65.0,0,248,4.0,56.0
6057,65.0,0,1920,5.0,43.0
6058,74.0,117,131,4.0,93.0
6059,55.0,0,233,4.0,36.0
6060,77.0,0,356,4.0,94.0
6061,64.0,233,243,4.0,70.0
6062,76.0,120,0,4.0,87.0
6063,58.0,0,244,4.0,46.0
6064,31.0,127,964,10.0,49.0
6065,62.0,0,1923,6.0,40.0
6066,64.0,244,240,4.0,63.0
6067,58.0,0,1923,7.0,44.0
6068,43.0,0,964,8.0,49.0
6069,57.0,0,236,4.0,49.0
6070,79.0,236,120,4.0,97.0
6071,67.0,0,237,4.0,70.0
6072,76.0,120,117,4.0,66.0
6073,74.0,117,119,4.0,65.0
6074,73.0,119,117,4.0,72.0
6075,64.0,0,236,4.0,46.0
6076,71.0,117,119,4.0,71.0
6077,73.0,119,132,4.0,88.0
6078,61.0,0,960,6.0,43.0
6079,57.0,0,960,7.0,46.0
6080,33.0,240,960,10.0,58.0
6081,64.0,4,1920,5.0,40.0
6082,45.0,0,960,8.0,58.0
6083,67.0,0,251,4.0,64.0
6084,65.0,0,112,5.0,60.0
6085,62.0,0,116,2.0,58.0
6086,74.0,128,116,1.0,63.0
6087,38.0,0,232,10.0,60.0
6088,50.0,0,232,8.0,60.0
6089,57.0,0,232,7.0,57.0
6090,62.0,4,232,6.0,74.0
6091,74.0,233,59,1.0,72.0
6092,62.0,0,59,2.0,67.0
6093,62.0,120,59,2.0,71.0
6094,74.0,0,59,1.0,73.0
6095,65.0,0,476,4.0,75.0
6096,62.0,0,476,4.0,75.0
6097,74.0,0,476,4.0,93.0
6098,62.0,0,117,2.0,82.0
6099,62.0,123,117,5.0,57.0
6100,74.0,0,117,1.0,68.0
6101,62.0,240,117,2.0,72.0
6102,74.0,0,117,1.0,72.0
6103,65.0,0,117,5.0,56.0
6104,62.0,240,244,2.0,73.0
6105,74.0,0,244,1.0,66.0
6106,77.0,244,240,1.0,86.0
6107,65.0,0,240,2.0,80.0
6108,69.0,0,117,5.0,49.0
6109,69.0,240,240,1.0,49.0
6110,57.0,0,240,2.0,59.0
6111,74.0,0,240,1.0,77.0
6112,62.0,240,240,2.0,90.0
6113,74.0,228,116,5.0,57.0
6114,65.0,0,104,1.0,51.0
6115,53.0,12,104,2.0,59.0
6116,62.0,108,120,4.0,77.0
6117,53.0,120,58,2.0,64.0
6118,65.0,0,58,1.0,66.0
6119,64.0,0,120,4.0,94.0
6120,65.0,120,58,1.0,78.0
6121,53.0,0,58,2.0,70.0
6122,65.0,0,121,4.0,92.0
6123,77.0,0,119,5.0,54.0
6124,65.0,0,119,1.0,70.0
6125,53.0,0,119,2.0,72.0
6126,67.0,121,124,4.0,93.0
6127,69.0,124,123,4.0,98.0
6128,65.0,0,117,1.0,70.0
6129,53.0,123,117,2.0,75.0
6130,71.0,0,124,4.0,96.0
6131,73.0,124,120,4.0,96.0
6132,81.0,0,117,5.0,57.0
6133,74.0,0,121,4.0,94.0
6134,65.0,0,242,1.0,67.0
6135,76.0,121,121,4.0,97.0
6136,53.0,120,242,2.0,74.0
6137,78.0,0,123,4.0,96.0
6138,57.0,121,247,2.0,84.0
6139,79.0,123,124,4.0,87.0
6140,69.0,0,247,1.0,87.0
6141,86.0,0,117,5.0,56.0
6142,81.0,0,120,4.0,89.0
6143,82.0,120,120,4.0,93.0
6144,62.0,124,240,1.0,46.0
6145,50.0,0,240,2.0,60.0
6146,84.0,120,121,4.0,101.0
6147,86.0,121,110,4.0,93.0
6148,66.0,0,231,1.0,80.0
6149,54.0,0,231,2.0,73.0
6150,67.0,0,117,1.0,105.0
6151,79.0,0,117,1.0,105.0
6152,82.0,0,237,5.0,54.0
6153,43.0,120,120,4.0,73.0
6154,67.0,0,57,1.0,74.0
6155,79.0,0,57,1.0,74.0
6156,45.0,120,117,4.0,85.0
6157,79.0,0,59,1.0,69.0
6158,67.0,0,59,1.0,69.0
6159,82.0,119,477,4.0,64.0
6160,46.0,117,120,4.0,83.0
6161,55.0,0,477,2.0,78.0
6162,55.0,0,119,6.0,60.0
6163,79.0,0,119,1.0,70.0
6164,48.0,120,119,4.0,93.0
6165,67.0,0,119,1.0,70.0
6166,50.0,119,120,4.0,95.0
6167,52.0,120,117,4.0,90.0
6168,67.0,0,117,1.0,72.0
6169,79.0,0,117,1.0,72.0
6170,54.0,117,120,4.0,92.0
6171,58.0,0,119,6.0,51.0
6172,55.0,120,120,4.0,97.0
6173,67.0,0,239,1.0,77.0
6174,79.0,0,239,1.0,77.0
6175,57.0,120,119,4.0,93.0
6176,58.0,119,120,4.0,88.0
6177,60.0,120,119,4.0,94.0
6178,82.0,0,239,1.0,80.0
6179,70.0,0,239,1.0,80.0
6180,62.0,119,117,6.0,56.0
6181,62.0,0,120,4.0,102.0
6182,74.0,0,240,1.0,54.0
6183,58.0,120,120,4.0,80.0
6184,62.0,0,240,1.0,54.0
6185,62.0,120,120,4.0,103.0
6186,67.0,0,240,1.0,81.0
6187,58.0,120,120,4.0,82.0
6188,79.0,0,240,1.0,81.0
6189,67.0,0,117,6.0,60.0
6190,70.0,120,117,1.0,46.0
6191,58.0,0,117,2.0,59.0
6192,67.0,120,117,4.0,76.0
6193,70.0,0,59,1.0,68.0
6194,58.0,117,59,2.0,64.0
6195,69.0,0,120,4.0,91.0
6196,58.0,120,59,2.0,66.0
6197,70.0,0,59,1.0,77.0
6198,55.0,0,476,4.0,78.0
6199,70.0,0,119,4.0,94.0
6200,70.0,0,117,1.0,72.0
6201,70.0,0,117,6.0,58.0
6202,58.0,0,117,2.0,71.0
6203,72.0,119,121,4.0,90.0
6204,74.0,121,123,4.0,99.0
6205,58.0,123,117,2.0,70.0
6206,70.0,0,117,1.0,68.0
6207,76.0,0,120,4.0,101.0
6208,78.0,120,121,4.0,97.0
6209,74.0,0,119,6.0,51.0
6210,79.0,121,124,4.0,96.0
6211,58.0,0,244,2.0,73.0
6212,70.0,0,244,1.0,70.0
6213,81.0,124,120,4.0,86.0
6214,83.0,0,121,4.0,98.0
6215,62.0,120,241,2.0,88.0
6216,84.0,121,120,4.0,94.0
6217,74.0,0,241,1.0,85.0
6218,79.0,0,119,6.0,56.0
6219,86.0,0,120,4.0,95.0
6220,67.0,120,239,1.0,59.0
6221,55.0,0,239,2.0,62.0
6222,83.0,120,119,4.0,86.0
6223,79.0,0,120,4.0,61.0
6224,71.0,0,235,1.0,81.0
6225,59.0,119,235,2.0,75.0
6226,77.0,120,115,4.0,63.0
6227,75.0,0,239,6.0,52.0
6228,72.0,0,240,1.0,84.0
6229,36.0,120,120,4.0,66.0
6230,60.0,117,240,2.0,84.0
6231,38.0,0,120,4.0,86.0
6232,60.0,0,120,2.0,63.0
6233,72.0,0,0,1.0,62.0
6234,60.0,0,119,2.0,62.0
6235,39.0,120,119,4.0,81.0
6236,75.0,0,479,4.0,63.0
6237,60.0,0,119,5.0,50.0
6238,60.0,0,119,2.0,63.0
6239,72.0,0,119,1.0,63.0
6240,41.0,119,120,4.0,94.0
6241,43.0,120,120,4.0,89.0
6242,60.0,0,119,2.0,65.0
6243,72.0,0,119,1.0,65.0
6244,45.0,120,120,4.0,85.0
6245,47.0,120,120,4.0,95.0
6246,63.0,0,119,5.0,53.0
6247,48.0,120,120,4.0,87.0
6248,60.0,0,239,2.0,63.0
6249,50.0,120,119,4.0,86.0
6250,72.0,0,239,1.0,63.0
6251,51.0,0,120,4.0,89.0
6252,53.0,120,120,4.0,84.0
6253,75.0,0,240,1.0,75.0
6254,63.0,119,240,2.0,75.0
6255,67.0,0,117,5.0,63.0
6256,55.0,0,120,4.0,89.0
6257,67.0,120,240,1.0,35.0
6258,51.0,120,120,4.0,69.0
6259,55.0,0,240,2.0,35.0
6260,55.0,0,120,4.0,88.0
6261,72.0,120,240,1.0,67.0
6262,60.0,0,240,2.0,67.0
6263,51.0,120,120,4.0,76.0
6264,51.0,0,117,2.0,61.0
6265,63.0,0,117,2.0,63.0
6266,72.0,0,117,5.0,55.0
6267,60.0,111,120,4.0,77.0
6268,63.0,120,57,2.0,72.0
6269,51.0,0,57,2.0,75.0
6270,62.0,0,120,4.0,86.0
6271,51.0,0,57,2.0,66.0
6272,63.0,120,57,2.0,69.0
6273,48.0,120,480,4.0,71.0
6274,63.0,0,120,4.0,91.0
6275,63.0,9,480,1.0,51.0
6276,75.0,0,117,5.0,50.0
6277,63.0,0,117,2.0,75.0
6278,51.0,120,117,2.0,71.0
6279,65.0,0,120,4.0,96.0
6280,67.0,120,120,4.0,90.0
6281,51.0,0,117,2.0,74.0
6282,63.0,0,117,2.0,76.0
6283,69.0,120,120,4.0,96.0
6284,71.0,120,120,4.0,96.0
6285,79.0,0,117,5.0,58.0
6286,72.0,0,121,4.0,94.0
6287,63.0,120,241,2.0,71.0
6288,74.0,121,120,4.0,93.0
6289,51.0,0,241,2.0,81.0
6290,76.0,0,120,4.0,100.0
6291,55.0,120,240,2.0,91.0
6292,67.0,0,240,2.0,86.0
6293,77.0,120,120,4.0,101.0
6294,84.0,0,119,5.0,59.0
6295,79.0,0,120,4.0,96.0
6296,48.0,0,240,2.0,66.0
6297,76.0,120,120,4.0,76.0
6298,60.0,120,240,2.0,54.0
6299,72.0,0,119,4.0,61.0
6300,52.0,120,239,2.0,81.0
6301,70.0,119,120,4.0,59.0
6302,64.0,0,239,2.0,84.0
6303,65.0,0,119,1.0,41.0
6304,77.0,0,119,1.0,72.0
6305,65.0,0,119,2.0,81.0
6306,81.0,121,239,5.0,54.0
6307,41.0,120,120,4.0,77.0
6308,65.0,0,59,1.0,53.0
6309,65.0,0,59,2.0,73.0
6310,77.0,120,59,1.0,71.0
6311,43.0,0,120,4.0,82.0
6312,65.0,120,59,2.0,68.0
6313,65.0,0,59,1.0,57.0
6314,77.0,0,59,1.0,74.0
6315,45.0,0,120,4.0,86.0
6316,69.0,0,480,4.0,73.0
6317,53.0,0,480,2.0,75.0
6318,77.0,0,119,1.0,71.0
6319,65.0,0,119,6.0,52.0
6320,65.0,120,119,1.0,65.0
6321,65.0,0,119,2.0,71.0
6322,46.0,0,120,4.0,97.0
6323,48.0,120,120,4.0,85.0
6324,65.0,0,119,2.0,64.0
6325,65.0,0,119,1.0,60.0
6326,77.0,120,119,1.0,70.0
6327,50.0,0,120,4.0,94.0
6328,52.0,120,119,4.0,83.0
6329,69.0,119,117,6.0,58.0
6330,53.0,0,120,4.0,88.0
6331,77.0,0,240,1.0,62.0
6332,65.0,0,240,1.0,60.0
6333,55.0,120,120,4.0,88.0
6334,65.0,0,240,2.0,75.0
6335,57.0,0,120,4.0,94.0
6336,58.0,120,120,4.0,90.0
6337,69.0,120,240,1.0,68.0
6338,81.0,0,240,1.0,83.0
6339,72.0,0,117,6.0,51.0
6340,60.0,0,120,4.0,94.0
6341,57.0,120,120,4.0,85.0
6342,60.0,120,240,2.0,61.0
6343,60.0,0,240,1.0,49.0
6344,72.0,0,240,1.0,50.0
6345,60.0,0,120,4.0,99.0
6346,57.0,120,120,4.0,77.0
6347,65.0,120,240,2.0,84.0
6348,77.0,0,240,1.0,85.0
6349,77.0,120,117,6.0,54.0
6350,69.0,0,117,1.0,51.0
6351,57.0,0,117,2.0,58.0
6352,65.0,120,120,4.0,78.0
6353,57.0,0,57,2.0,66.0
6354,69.0,0,57,1.0,69.0
6355,67.0,120,120,4.0,91.0
6356,57.0,0,57,2.0,75.0
6357,69.0,0,57,1.0,68.0
6358,69.0,120,120,4.0,93.0
6359,53.0,0,480,4.0,68.0
6360,57.0,0,117,2.0,65.0
6361,81.0,0,117,6.0,53.0
6362,69.0,0,117,1.0,73.0
6363,70.0,120,120,4.0,95.0
6364,72.0,120,120,4.0,98.0
6365,69.0,0,117,1.0,81.0
6366,57.0,0,117,2.0,69.0
6367,74.0,120,120,4.0,97.0
6368,76.0,120,121,4.0,99.0
6369,84.0,0,119,6.0,55.0
6370,77.0,121,124,4.0,99.0
6371,69.0,0,244,1.0,70.0
6372,79.0,124,120,4.0,98.0
6373,57.0,0,244,2.0,77.0
6374,81.0,120,120,4.0,103.0
6375,72.0,0,240,1.0,74.0
6376,82.0,120,120,4.0,91.0
6377,60.0,0,240,2.0,84.0
6378,77.0,120,117,6.0,53.0
6379,84.0,0,120,4.0,97.0
6380,65.0,0,240,1.0,59.0
6381,53.0,0,240,2.0,57.0
6382,81.0,120,120,4.0,70.0
6383,77.0,0,120,4.0,61.0
6384,57.0,0,235,2.0,76.0
6385,75.0,120,115,4.0,66.0
6386,69.0,120,235,1.0,88.0
6387,82.0,0,119,0.0,49.0
6388,82.0,121,119,1.0,100.0
6389,58.0,0,119,2.0,76.0
6390,70.0,0,119,3.0,80.0
6391,74.0,0,235,6.0,49.0
6392,70.0,0,236,1.0,61.0
6393,46.0,116,120,4.0,75.0
6394,58.0,0,59,2.0,65.0
6395,82.0,120,59,1.0,79.0
6396,70.0,0,59,3.0,88.0
6397,82.0,0,59,0.0,55.0
6398,70.0,0,120,1.0,62.0
6399,48.0,0,120,4.0,87.0
6400,82.0,120,59,1.0,73.0
6401,58.0,0,59,2.0,71.0
6402,70.0,0,59,3.0,88.0
6403,82.0,0,59,0.0,60.0
6404,70.0,0,0,1.0,57.0
6405,50.0,0,120,4.0,91.0
6406,74.0,0,476,4.0,68.0
6407,70.0,0,119,3.0,80.0
6408,82.0,0,119,0.0,61.0
6409,58.0,0,119,5.0,51.0
6410,82.0,120,119,1.0,68.0
6411,58.0,0,119,2.0,69.0
6412,51.0,0,120,4.0,87.0
6413,53.0,120,120,4.0,89.0
6414,82.0,0,119,0.0,68.0
6415,58.0,0,119,2.0,72.0
6416,70.0,0,119,3.0,81.0
6417,82.0,0,119,1.0,72.0
6418,55.0,120,120,4.0,84.0
6419,57.0,120,120,4.0,92.0
6420,70.0,0,0,1.0,68.0
6421,62.0,0,119,5.0,58.0
6422,58.0,0,120,4.0,82.0
6423,60.0,120,118,4.0,96.0
6424,58.0,120,238,2.0,66.0
6425,82.0,0,238,0.0,59.0
6426,82.0,0,238,1.0,64.0
6427,70.0,0,238,3.0,80.0
6428,62.0,118,120,4.0,101.0
6429,62.0,0,240,2.0,85.0
6430,74.0,0,240,1.0,73.0
6431,86.0,0,240,0.0,66.0
6432,63.0,120,120,4.0,90.0
6433,65.0,0,117,5.0,58.0
6434,65.0,0,120,4.0,97.0
6435,77.0,0,240,0.0,46.0
6436,65.0,0,240,1.0,41.0
6437,77.0,0,240,1.0,63.0
6438,65.0,0,240,3.0,80.0
6439,53.0,120,240,2.0,61.0
6440,62.0,120,120,4.0,64.0
6441,65.0,0,120,4.0,87.0
6442,62.0,120,120,4.0,71.0
6443,70.0,120,240,1.0,74.0
6444,82.0,0,240,0.0,71.0
6445,58.0,0,240,2.0,77.0
6446,86.0,0,117,0.0,76.0
6447,74.0,120,117,1.0,71.0
6448,70.0,0,117,5.0,54.0
6449,62.0,0,117,3.0,77.0
6450,50.0,0,117,2.0,92.0
6451,62.0,0,117,2.0,92.0
6452,70.0,120,120,4.0,71.0
6453,86.0,120,57,0.0,57.0
6454,62.0,0,57,2.0,71.0
6455,50.0,0,57,2.0,71.0
6456,62.0,0,57,3.0,84.0
6457,74.0,0,57,1.0,74.0
6458,72.0,0,120,4.0,100.0
6459,62.0,0,57,2.0,66.0
6460,74.0,0,57,1.0,65.0
6461,86.0,0,57,0.0,60.0
6462,62.0,0,57,3.0,82.0
6463,50.0,0,57,2.0,66.0
6464,74.0,120,120,4.0,94.0
6465,58.0,0,480,4.0,75.0
6466,86.0,0,117,0.0,60.0
6467,50.0,0,117,2.0,73.0
6468,62.0,0,117,2.0,73.0
6469,62.0,0,117,3.0,84.0
6470,74.0,0,117,5.0,53.0
6471,74.0,120,117,1.0,70.0
6472,75.0,0,120,4.0,93.0
6473,77.0,120,120,4.0,98.0
6474,74.0,0,117,1.0,72.0
6475,86.0,0,117,0.0,62.0
6476,62.0,0,117,3.0,85.0
6477,62.0,120,117,2.0,74.0
6478,50.0,0,117,2.0,74.0
6479,79.0,0,122,4.0,98.0
6480,81.0,122,120,4.0,104.0
6481,77.0,120,119,5.0,49.0
6482,82.0,0,124,4.0,99.0
6483,84.0,124,124,4.0,96.0
6484,50.0,0,248,2.0,72.0
6485,62.0,0,248,2.0,72.0
6486,74.0,0,248,1.0,72.0
6487,62.0,0,248,3.0,92.0
6488,86.0,0,248,0.0,60.0
6489,86.0,0,120,4.0,102.0
6490,77.0,0,240,1.0,88.0
6491,89.0,0,240,0.0,66.0
6492,87.0,120,120,4.0,97.0
6493,65.0,0,240,2.0,79.0
6494,53.0,124,240,2.0,79.0
6495,82.0,0,119,5.0,53.0
6496,89.0,0,120,4.0,97.0
6497,70.0,0,236,1.0,48.0
6498,82.0,120,236,0.0,47.0
6499,86.0,120,116,4.0,66.0
6500,58.0,0,236,3.0,76.0
6501,46.0,0,236,2.0,58.0
6502,58.0,0,236,2.0,58.0
6503,82.0,0,120,4.0,61.0
6504,50.0,0,234,2.0,88.0
6505,74.0,116,234,1.0,80.0
6506,62.0,0,234,2.0,88.0
6507,80.0,120,114,4.0,65.0
6508,86.0,0,234,0.0,66.0
6509,63.0,0,236,4.0,61.0
6510,75.0,0,476,1.0,88.0
6511,70.0,236,240,4.0,81.0
6512,63.0,0,476,2.0,81.0
6513,51.0,0,476,2.0,81.0
6514,87.0,0,476,0.0,70.0
6515,67.0,240,240,4.0,56.0
6516,63.0,0,956,8.0,54.0
6517,79.0,0,956,5.0,53.0
6518,67.0,120,956,7.0,54.0
6519,70.0,0,956,6.0,56.0
6520,51.0,0,956,10.0,54.0
6521,70.0,240,240,4.0,64.0
6522,79.0,0,956,4.0,75.0
6523,80.0,0,60,4.0,93.0
6524,82.0,60,60,4.0,94.0
6525,80.0,60,60,4.0,75.0
6526,62.0,0,240,4.0,44.0
6527,82.0,60,60,4.0,89.0
6528,80.0,60,60,4.0,76.0
6529,82.0,60,60,4.0,92.0
6530,80.0,60,60,4.0,77.0
6531,82.0,60,60,4.0,86.0
6532,71.0,0,240,4.0,82.0
6533,80.0,60,60,4.0,69.0
6534,82.0,60,60,4.0,90.0
6535,80.0,60,60,4.0,70.0
6536,65.0,0,240,4.0,49.0
6537,82.0,60,60,4.0,92.0
6538,79.0,60,118,4.0,70.0
6539,50.0,0,854,10.0,56.0
6540,62.0,240,854,8.0,56.0
6541,80.0,0,854,5.0,63.0
6542,71.0,0,854,6.0,63.0
6543,65.0,0,854,7.0,50.0
6544,71.0,0,238,4.0,81.0
6545,80.0,118,120,4.0,85.0
6546,79.0,0,126,4.0,75.0
6547,78.0,158,160,4.0,82.0
6548,77.0,160,162,4.0,74.0
6549,72.0,0,480,4.0,92.0
6550,63.0,0,480,4.0,92.0
6551,72.0,0,480,6.0,68.0
6552,51.0,120,480,10.0,64.0
6553,63.0,0,480,8.0,64.0
6554,67.0,0,480,7.0,66.0
6555,79.0,0,480,5.0,57.0
6556,76.0,162,158,4.0,77.0
6557,75.0,158,160,4.0,78.0
6558,74.0,160,162,4.0,67.0
6559,72.0,162,78,4.0,73.0
6560,74.0,158,79,4.0,90.0
6561,75.0,160,79,4.0,92.0
6562,77.0,164,79,4.0,97.0
6563,78.0,160,79,4.0,97.0
6564,79.0,166,78,4.0,88.0
6565,62.0,158,236,4.0,57.0
6566,70.0,236,240,4.0,78.0
6567,65.0,240,238,4.0,50.0
6568,70.0,238,242,4.0,77.0
6569,77.0,0,956,4.0,81.0
6570,62.0,0,956,8.0,59.0
6571,74.0,0,956,6.0,52.0
6572,70.0,0,956,7.0,47.0
6573,50.0,0,956,10.0,59.0
6574,77.0,0,956,5.0,53.0
6575,78.0,242,60,4.0,90.0
6576,80.0,60,60,4.0,92.0
6577,78.0,60,60,4.0,77.0
6578,63.0,0,240,4.0,47.0
6579,80.0,60,60,4.0,86.0
6580,78.0,60,60,4.0,76.0
6581,80.0,60,64,4.0,84.0
6582,78.0,64,60,4.0,76.0
6583,69.0,0,244,4.0,71.0
6584,80.0,60,60,4.0,98.0
6585,78.0,0,60,4.0,73.0
6586,80.0,60,60,4.0,93.0
6587,78.0,60,60,4.0,74.0
6588,80.0,60,60,4.0,94.0
6589,66.0,60,240,4.0,51.0
6590,77.0,0,116,4.0,66.0
6591,72.0,0,858,6.0,50.0
6592,78.0,0,858,5.0,62.0
6593,69.0,0,858,7.0,54.0
6594,51.0,0,858,10.0,64.0
6595,63.0,0,858,8.0,64.0
6596,78.0,116,118,4.0,81.0
6597,69.0,60,234,4.0,76.0
6598,77.0,0,160,4.0,75.0
6599,76.0,160,159,4.0,75.0
6600,75.0,159,159,4.0,72.0
6601,77.0,0,478,5.0,53.0
6602,70.0,120,478,7.0,61.0
6603,50.0,0,478,10.0,53.0
6604,74.0,0,478,6.0,65.0
6605,62.0,0,478,4.0,92.0
6606,70.0,0,478,4.0,92.0
6607,62.0,0,478,8.0,53.0
6608,74.0,159,158,4.0,68.0
6609,73.0,158,160,4.0,74.0
6610,72.0,160,162,4.0,71.0
6611,70.0,162,78,4.0,69.0
6612,72.0,158,79,4.0,92.0
6613,74.0,160,79,4.0,97.0
6614,75.0,164,79,4.0,89.0
6615,76.0,160,79,4.0,101.0
6616,77.0,159,85,4.0,95.0
6617,54.0,0,233,4.0,59.0
6618,77.0,0,233,4.0,84.0
6619,75.0,233,240,4.0,74.0
6620,58.0,0,240,4.0,63.0
6621,57.0,240,240,4.0,58.0
6622,58.0,240,240,4.0,61.0
6623,54.0,0,953,8.0,50.0
6624,42.0,0,953,10.0,50.0
6625,75.0,0,480,4.0,80.0
6626,53.0,0,238,4.0,61.0
6627,75.0,0,60,4.0,75.0
6628,73.0,60,60,4.0,69.0
6629,72.0,60,60,4.0,69.0
6630,73.0,60,60,4.0,88.0
6631,58.0,238,240,4.0,65.0
6632,77.0,60,240,4.0,108.0
6633,57.0,0,240,4.0,63.0
6634,53.0,0,958,8.0,46.0
6635,41.0,240,958,10.0,46.0
6636,58.0,240,240,4.0,65.0
6637,73.0,0,240,4.0,72.0
6638,51.0,0,240,4.0,54.0
6639,73.0,0,240,4.0,83.0
6640,58.0,240,240,4.0,71.0
6641,72.0,0,240,4.0,74.0
6642,57.0,240,240,4.0,56.0
6643,51.0,0,960,8.0,49.0
6644,58.0,240,240,4.0,69.0
6645,39.0,240,960,10.0,49.0
6646,72.0,0,720,4.0,82.0
6647,53.0,0,240,4.0,60.0
6648,72.0,240,240,4.0,85.0
6649,58.0,0,240,4.0,69.0
6650,57.0,240,240,4.0,66.0
6651,75.0,0,360,4.0,96.0
6652,53.0,240,856,8.0,53.0
6653,41.0,0,856,10.0,53.0
6654,74.0,120,120,4.0,77.0
6655,58.0,240,240,4.0,63.0
6656,54.0,0,240,4.0,55.0
6657,77.0,120,240,4.0,98.0
6658,58.0,240,240,4.0,67.0
6659,75.0,0,240,4.0,75.0
6660,57.0,0,240,4.0,58.0
6661,58.0,240,240,4.0,66.0
6662,42.0,0,960,10.0,51.0
6663,54.0,0,960,8.0,51.0
6664,75.0,240,600,4.0,87.0
6665,73.0,120,120,4.0,67.0
6666,53.0,0,240,4.0,60.0
6667,77.0,0,120,4.0,101.0
6668,58.0,120,240,4.0,73.0
6669,76.0,120,120,4.0,76.0
6670,77.0,120,120,4.0,91.0
6671,57.0,0,240,4.0,62.0
6672,76.0,120,120,4.0,73.0
6673,77.0,0,120,4.0,93.0
6674,53.0,240,960,8.0,50.0
6675,73.0,120,120,4.0,72.0
6676,41.0,0,960,10.0,50.0
6677,58.0,120,240,4.0,64.0
6678,73.0,0,60,4.0,81.0
6679,75.0,60,60,4.0,89.0
6680,73.0,60,120,4.0,70.0
6681,52.0,0,240,4.0,53.0
6682,72.0,0,0,4.0,86.0
6683,58.0,120,240,4.0,72.0
6684,57.0,240,240,4.0,53.0
6685,52.0,120,960,8.0,51.0
6686,40.0,0,960,10.0,51.0
6687,58.0,240,240,4.0,65.0
6688,53.0,0,240,4.0,52.0
6689,72.0,240,0,4.0,87.0
6690,58.0,0,240,4.0,71.0
6691,56.0,0,240,4.0,60.0
6692,75.0,240,360,4.0,101.0
6693,74.0,120,120,4.0,79.0
6694,58.0,240,240,4.0,61.0
6695,41.0,240,960,10.0,51.0
6696,53.0,0,960,8.0,51.0
6697,54.0,0,240,4.0,45.0
6698,77.0,120,360,4.0,98.0
6699,75.0,120,120,4.0,74.0
6700,63.0,240,240,4.0,83.0
6701,58.0,0,240,4.0,61.0
6702,42.0,0,960,10.0,52.0
6703,63.0,240,240,4.0,83.0
6704,54.0,0,960,8.0,52.0
6705,50.0,0,240,4.0,42.0
6706,58.0,240,240,4.0,72.0
6707,82.0,0,960,4.0,107.0
6708,70.0,120,960,4.0,107.0
6709,53.0,240,240,4.0,55.0
6710,58.0,240,240,4.0,67.0
6711,50.0,0,960,8.0,46.0
6712,38.0,240,960,10.0,46.0
6713,51.0,240,240,4.0,48.0
6714,63.0,240,240,4.0,86.0
6715,80.0,0,960,4.0,84.0
6716,58.0,240,240,4.0,57.0
6717,51.0,0,960,8.0,50.0
6718,39.0,0,960,10.0,50.0
6719,63.0,240,240,4.0,80.0
6720,53.0,0,240,4.0,44.0
6721,78.0,0,960,4.0,72.0
6722,61.0,240,240,4.0,80.0
6723,58.0,240,240,4.0,62.0
6724,41.0,240,960,10.0,57.0
6725,61.0,240,240,4.0,69.0
6726,53.0,0,960,8.0,57.0
6727,77.0,0,720,4.0,72.0
6728,76.0,240,480,4.0,74.0
6729,58.0,240,480,4.0,49.0
6730,82.0,0,8640,5.0,48.0
6731,70.0,0,12471,6.0,48.0
6732,73.0,240,480,4.0,67.0
6733,61.0,240,469,4.0,68.0
6734,72.0,240,460,4.0,78.0
6735,58.0,168,13431,7.0,43.0
6736,54.0,240,1920,4.0,121.0
6737,64.0,229,491,4.0,74.0
6738,70.0,231,260,4.0,74.0
6739,42.0,0,1920,10.0,48.0
6740,54.0,0,1920,8.0,48.0
6741,70.0,0,960,5.0,36.0
6742,64.0,0,960,6.0,40.0
6743,69.0,0,109,4.0,80.0
6744,65.0,109,120,4.0,63.0
6745,67.0,120,120,4.0,88.0
6746,60.0,0,469,7.0,70.0
6747,41.0,0,469,10.0,54.0
6748,65.0,0,469,6.0,61.0
6749,69.0,120,120,4.0,95.0
6750,69.0,260,469,5.0,49.0
6751,53.0,0,469,8.0,54.0
6752,53.0,0,469,4.0,71.0
6753,70.0,120,120,4.0,95.0
6754,72.0,120,124,4.0,88.0
6755,74.0,124,120,4.0,92.0
6756,76.0,120,123,4.0,93.0
6757,77.0,123,124,4.0,88.0
6758,79.0,124,121,4.0,99.0
6759,81.0,121,121,4.0,99.0
6760,82.0,121,127,4.0,88.0
6761,84.0,127,125,4.0,97.0
6762,86.0,125,124,4.0,101.0
6763,88.0,124,122,4.0,101.0
6764,89.0,122,100,4.0,91.0
6765,88.0,0,159,4.0,82.0
6766,85.0,159,160,4.0,71.0
6767,82.0,160,160,4.0,62.0
6768,79.0,160,157,4.0,68.0
6769,76.0,157,159,4.0,62.0
6770,73.0,159,160,4.0,64.0
6771,70.0,160,157,4.0,66.0
6772,67.0,157,158,4.0,65.0
6773,64.0,158,160,4.0,65.0
6774,61.0,160,157,4.0,66.0
6775,58.0,157,157,4.0,73.0
6776,41.0,0,1910,4.0,78.0
6777,53.0,0,1910,4.0,78.0
6778,55.0,157,166,4.0,81.0
6779,61.0,110,1910,7.0,49.0
6780,76.0,0,1910,5.0,54.0
6781,70.0,0,1910,6.0,51.0
6782,57.0,166,117,4.0,96.0
6783,53.0,117,120,4.0,73.0
6784,55.0,120,120,4.0,82.0
6785,57.0,120,120,4.0,94.0
6786,77.0,0,477,5.0,65.0
6787,53.0,0,2387,8.0,51.0
6788,60.0,0,477,7.0,56.0
6789,69.0,0,477,6.0,57.0
6790,41.0,0,2387,10.0,51.0
6791,58.0,120,120,4.0,70.0
6792,60.0,120,120,4.0,93.0
6793,62.0,120,120,4.0,103.0
6794,64.0,120,123,4.0,94.0
6795,65.0,123,120,4.0,89.0
6796,67.0,120,120,4.0,99.0
6797,69.0,120,120,4.0,94.0
6798,70.0,120,120,4.0,89.0
6799,72.0,120,121,4.0,98.0
6800,74.0,121,120,4.0,92.0
6801,76.0,120,121,4.0,88.0
6802,77.0,121,118,4.0,94.0
6803,76.0,120,158,4.0,71.0
6804,73.0,158,160,4.0,66.0
6805,70.0,160,161,4.0,67.0
6806,67.0,161,159,4.0,66.0
6807,64.0,159,158,4.0,74.0
6808,61.0,158,162,4.0,63.0
6809,58.0,162,158,4.0,78.0
6810,55.0,158,160,4.0,74.0
6811,52.0,160,162,4.0,73.0
6812,49.0,162,158,4.0,77.0
6813,46.0,158,160,4.0,70.0
6814,70.0,0,1918,5.0,52.0
6815,43.0,160,162,4.0,69.0
6816,41.0,0,1918,4.0,105.0
6817,29.0,0,1918,4.0,105.0
6818,61.0,0,1918,6.0,55.0
6819,45.0,0,156,4.0,78.0
6820,29.0,160,156,4.0,95.0
6821,60.0,0,381,6.0,57.0
6822,69.0,162,381,5.0,60.0
6823,33.0,160,156,4.0,94.0
6824,52.0,0,2398,7.0,55.0
6825,53.0,0,480,7.0,64.0
6826,41.0,0,2398,10.0,56.0
6827,53.0,0,2398,8.0,56.0
6828,36.0,160,156,4.0,92.0
6829,41.0,160,156,4.0,91.0
6830,48.0,160,156,4.0,88.0
6831,53.0,160,156,4.0,87.0
6832,41.0,160,156,4.0,88.0
6833,45.0,160,156,4.0,86.0
6834,48.0,160,156,4.0,86.0
6835,53.0,160,156,4.0,85.0
6836,60.0,160,156,4.0,84.0
6837,65.0,160,156,4.0,73.0
6838,53.0,160,156,4.0,81.0
6839,57.0,160,156,4.0,82.0
6840,60.0,160,156,4.0,83.0
6841,65.0,160,156,4.0,85.0
6842,72.0,160,156,4.0,86.0
6843,77.0,160,156,4.0,87.0
6844,65.0,160,156,4.0,80.0
6845,69.0,160,156,4.0,81.0
6846,72.0,160,156,4.0,82.0
6847,77.0,160,156,4.0,83.0
6848,84.0,160,156,4.0,84.0
6849,87.0,170,120,4.0,94.0
6850,86.0,120,119,4.0,84.0
6851,84.0,119,120,4.0,75.0
6852,82.0,120,120,4.0,70.0
6853,81.0,120,120,4.0,75.0
6854,79.0,120,117,4.0,73.0
6855,77.0,117,119,4.0,74.0
6856,76.0,119,117,4.0,72.0
6857,75.0,117,119,4.0,75.0
6858,74.0,119,119,4.0,78.0
6859,72.0,119,116,4.0,73.0
6860,70.0,116,116,4.0,72.0
6861,69.0,116,117,4.0,73.0
6862,67.0,117,117,4.0,65.0
6863,65.0,117,116,4.0,70.0
6864,64.0,116,138,4.0,72.0
6865,60.0,0,473,4.0,72.0
6866,63.0,7,473,4.0,74.0
6867,57.0,0,473,4.0,72.0
6868,53.0,0,473,4.0,72.0
6869,53.0,0,964,2.0,58.0
6870,41.0,0,964,2.0,58.0
6871,69.0,956,964,1.0,55.0
6872,70.0,0,960,1.0,61.0
6873,54.0,0,960,2.0,72.0
6874,42.0,964,960,2.0,72.0
6875,43.0,960,960,2.0,76.0
6876,71.0,0,960,1.0,69.0
6877,55.0,0,960,2.0,76.0
6878,44.0,960,960,2.0,70.0
6879,56.0,0,960,2.0,70.0
6880,87.0,0,0,0.0,77.0
6881,75.0,0,5047,1.0,64.0
6882,72.0,0,1200,1.0,73.0
6883,74.0,240,237,1.0,78.0
6884,71.0,0,237,1.0,78.0
6885,86.0,0,237,0.0,71.0
6886,72.0,0,239,1.0,88.0
6887,75.0,237,239,1.0,88.0
6888,87.0,0,239,0.0,87.0
6889,72.0,0,244,1.0,67.0
6890,45.0,0,960,2.0,88.0
6891,63.0,239,244,1.0,67.0
6892,57.0,960,960,2.0,88.0
6893,84.0,0,244,0.0,70.0
6894,65.0,0,0,3.0,84.0
6895,70.0,0,239,5.0,51.0
6896,62.0,0,239,6.0,57.0
6897,46.0,0,376,2.0,85.0
6898,58.0,0,376,2.0,85.0
6899,58.0,0,473,3.0,84.0
6900,65.0,0,480,7.0,44.0
6901,82.0,0,473,0.0,70.0
6902,70.0,0,473,1.0,73.0
6903,62.0,7,473,1.0,73.0
6904,46.0,237,480,10.0,53.0
6905,58.0,0,480,8.0,53.0
6906,70.0,0,179,5.0,52.0
6907,62.0,473,179,6.0,66.0
6908,62.0,363,57,6.0,63.0
6909,70.0,0,57,5.0,64.0
6910,70.0,120,237,5.0,62.0
6911,62.0,0,237,6.0,60.0
6912,62.0,484,237,6.0,58.0
6913,70.0,0,237,5.0,60.0
6914,46.0,0,480,10.0,58.0
6915,65.0,0,480,7.0,53.0
6916,58.0,0,480,8.0,58.0
6917,63.0,0,240,6.0,67.0
6918,72.0,0,240,5.0,73.0
6919,65.0,0,480,7.0,63.0
6920,41.0,480,480,10.0,47.0
6921,53.0,0,480,8.0,47.0
6922,60.0,0,240,6.0,51.0
6923,69.0,240,240,5.0,48.0
6924,34.0,0,480,10.0,49.0
6925,70.0,0,480,5.0,69.0
6926,65.0,0,480,7.0,62.0
6927,62.0,0,480,6.0,60.0
6928,46.0,0,480,8.0,49.0
6929,82.0,0,960,0.0,56.0
6930,70.0,240,960,1.0,51.0
6931,58.0,0,960,2.0,55.0
6932,71.0,0,381,1.0,61.0
6933,83.0,0,381,0.0,67.0
6934,59.0,960,381,2.0,59.0
6935,69.0,0,237,6.0,55.0
6936,72.0,0,237,5.0,58.0
6937,84.0,0,480,0.0,64.0
6938,65.0,480,480,7.0,52.0
6939,60.0,0,480,2.0,66.0
6940,53.0,0,480,8.0,49.0
6941,72.0,0,480,1.0,73.0
6942,41.0,0,480,10.0,49.0
6943,72.0,0,177,5.0,62.0
6944,69.0,480,177,6.0,54.0
6945,72.0,360,57,5.0,65.0
6946,69.0,0,57,6.0,63.0
6947,72.0,120,237,5.0,60.0
6948,69.0,0,237,6.0,66.0
6949,69.0,0,237,6.0,63.0
6950,72.0,0,237,5.0,61.0
6951,53.0,480,480,8.0,49.0
6952,41.0,0,480,10.0,49.0
6953,65.0,0,0,7.0,63.0
6954,67.0,0,240,6.0,51.0
6955,70.0,0,240,5.0,49.0
6956,72.0,0,120,5.0,63.0
6957,69.0,240,120,6.0,67.0
6958,70.0,120,120,6.0,67.0
6959,74.0,0,120,5.0,66.0
6960,46.0,0,480,10.0,73.0
6961,65.0,0,0,7.0,65.0
6962,58.0,480,480,8.0,73.0
6963,41.0,0,480,10.0,50.0
6964,53.0,0,480,8.0,50.0
6965,69.0,120,480,6.0,56.0
6966,72.0,0,480,5.0,55.0
6967,60.0,0,960,2.0,59.0
6968,72.0,0,960,1.0,55.0
6969,84.0,0,960,0.0,50.0
6970,85.0,0,381,0.0,66.0
6971,73.0,0,480,1.0,65.0
6972,61.0,960,480,2.0,69.0
6973,58.0,240,117,6.0,57.0
6974,62.0,480,480,2.0,73.0
6975,58.0,0,480,7.0,55.0
6976,46.0,0,480,8.0,53.0
6977,34.0,0,480,10.0,53.0
6978,86.0,0,480,0.0,64.0
6979,74.0,0,480,1.0,68.0
6980,62.0,240,240,6.0,70.0
6981,74.0,0,720,5.0,51.0
6982,70.0,0,240,5.0,49.0
6983,65.0,240,240,6.0,77.0
6984,57.0,0,117,6.0,55.0
6985,36.0,240,480,10.0,56.0
6986,48.0,0,480,8.0,56.0
6987,60.0,0,480,7.0,54.0
6988,60.0,240,240,6.0,67.0
6989,63.0,240,240,6.0,71.0
6990,75.0,0,720,5.0,65.0
6991,72.0,240,240,5.0,58.0
6992,58.0,240,117,6.0,57.0
6993,77.0,0,360,5.0,76.0
6994,62.0,0,480,7.0,83.0
6995,74.0,120,120,5.0,49.0
6996,38.0,240,480,10.0,78.0
6997,50.0,0,480,8.0,78.0
6998,62.0,120,117,6.0,72.0
6999,65.0,246,119,6.0,68.0
7000,77.0,0,720,5.0,66.0
7001,79.0,234,120,5.0,68.0
7002,70.0,240,463,6.0,87.0
7003,77.0,120,109,5.0,56.0
7004,75.0,109,233,5.0,59.0
7005,74.0,233,118,5.0,58.0
7006,72.0,0,237,5.0,55.0
7007,74.0,237,60,5.0,69.0
7008,72.0,60,60,5.0,57.0
7009,71.0,60,127,5.0,55.0
7010,72.0,127,240,5.0,63.0
7011,74.0,240,117,5.0,70.0
7012,63.0,0,964,7.0,53.0
7013,75.0,0,117,5.0,65.0
7014,51.0,0,1432,8.0,63.0
7015,39.0,0,1432,10.0,63.0
7016,67.0,233,235,5.0,44.0
7017,72.0,0,240,5.0,69.0
7018,60.0,240,845,7.0,58.0
7019,40.0,0,382,10.0,64.0
7020,52.0,235,382,8.0,64.0
7021,67.0,254,1924,6.0,50.0
7022,70.0,0,0,5.0,68.0
7023,69.0,232,240,5.0,56.0
7024,65.0,7,472,6.0,50.0
7025,41.0,0,479,10.0,62.0
7026,60.0,245,479,7.0,63.0
7027,53.0,0,479,8.0,62.0
7028,67.0,240,240,5.0,55.0
7029,65.0,240,244,5.0,47.0
7030,66.0,0,244,5.0,66.0
7031,67.0,244,241,5.0,65.0
7032,77.0,241,0,4.0,89.0
7033,68.0,0,245,5.0,68.0
7034,69.0,245,234,5.0,63.0
7035,77.0,0,60,4.0,59.0
7036,79.0,60,60,4.0,57.0
7037,77.0,60,60,4.0,48.0
7038,58.0,0,237,3.0,58.0
7039,62.0,0,237,2.0,67.0
7040,70.0,0,237,1.0,60.0
7041,65.0,0,237,1.0,60.0
7042,70.0,0,237,3.0,58.0
7043,79.0,60,60,4.0,63.0
7044,77.0,60,60,4.0,59.0
7045,79.0,60,60,4.0,65.0
7046,70.0,0,383,5.0,65.0
7047,77.0,60,60,4.0,54.0
7048,79.0,60,57,4.0,74.0
7049,77.0,0,60,4.0,54.0
7050,79.0,60,60,4.0,66.0
7051,58.0,0,179,3.0,68.0
7052,65.0,0,179,1.0,63.0
7053,70.0,0,179,1.0,63.0
7054,70.0,57,179,3.0,68.0
7055,62.0,0,179,2.0,70.0
7056,77.0,60,60,4.0,56.0
7057,79.0,60,60,4.0,61.0
7058,77.0,60,60,4.0,58.0
7059,79.0,60,60,4.0,74.0
7060,65.0,0,59,1.0,69.0
7061,58.0,0,59,3.0,65.0
7062,70.0,60,59,3.0,65.0
7063,62.0,0,59,2.0,69.0
7064,70.0,0,59,1.0,69.0
7065,77.0,0,60,4.0,61.0
7066,79.0,60,59,4.0,71.0
7067,77.0,0,60,4.0,54.0
7068,79.0,60,60,4.0,66.0
7069,77.0,60,60,4.0,59.0
7070,58.0,0,239,3.0,68.0
7071,70.0,59,239,3.0,68.0
7072,65.0,0,239,1.0,67.0
7073,70.0,0,239,1.0,67.0
7074,62.0,0,239,2.0,73.0
7075,79.0,60,60,4.0,65.0
7076,77.0,60,60,4.0,55.0
7077,46.0,239,1296,2.0,78.0
7078,79.0,60,60,4.0,63.0
7079,77.0,60,60,4.0,55.0
7080,79.0,60,60,4.0,68.0
7081,77.0,0,60,4.0,54.0
7082,79.0,60,59,4.0,63.0
7083,77.0,59,60,4.0,61.0
7084,46.0,0,236,2.0,70.0
7085,62.0,0,236,2.0,72.0
7086,58.0,60,236,3.0,67.0
7087,70.0,0,236,3.0,67.0
7088,70.0,0,236,1.0,72.0
7089,65.0,0,236,1.0,72.0
7090,79.0,60,60,4.0,67.0
7091,77.0,60,60,4.0,52.0
7092,79.0,60,60,4.0,67.0
7093,77.0,60,60,4.0,52.0
7094,79.0,60,60,4.0,72.0
7095,77.0,60,60,4.0,55.0
7096,79.0,60,60,4.0,71.0
7097,77.0,60,60,4.0,56.0
7098,79.0,60,60,4.0,60.0
7099,72.0,0,240,1.0,80.0
7100,63.0,0,240,2.0,79.0
7101,77.0,0,60,4.0,60.0
7102,79.0,60,60,4.0,60.0
7103,77.0,60,60,4.0,55.0
7104,79.0,60,60,4.0,71.0
7105,69.0,0,240,1.0,67.0
7106,65.0,0,0,1.0,57.0
7107,65.0,0,480,3.0,48.0
7108,53.0,0,480,3.0,48.0
7109,60.0,60,240,2.0,62.0
7110,41.0,0,480,2.0,72.0
7111,77.0,0,60,4.0,58.0
7112,79.0,60,60,4.0,66.0
7113,82.0,60,120,0.0,63.0
7114,77.0,60,60,4.0,52.0
7115,79.0,60,60,4.0,64.0
7116,81.0,0,120,0.0,60.0
7117,77.0,60,60,4.0,61.0
7118,82.0,0,120,0.0,74.0
7119,79.0,60,60,4.0,66.0
7120,77.0,60,60,4.0,57.0
7121,46.0,0,480,2.0,79.0
7122,81.0,0,120,0.0,58.0
7123,70.0,0,480,3.0,87.0
7124,58.0,0,480,3.0,87.0
7125,70.0,0,480,1.0,80.0
7126,79.0,60,60,4.0,70.0
7127,62.0,0,480,2.0,76.0
7128,77.0,0,60,4.0,55.0
7129,79.0,60,60,4.0,75.0
7130,84.0,60,120,0.0,80.0
7131,77.0,0,60,4.0,56.0
7132,79.0,60,60,4.0,64.0
7133,82.0,60,120,0.0,65.0
7134,77.0,0,60,4.0,60.0
7135,79.0,60,60,4.0,60.0
7136,81.0,60,120,0.0,56.0
7137,77.0,60,60,4.0,50.0
7138,79.0,60,60,4.0,63.0
7139,58.0,0,960,6.0,49.0
7140,70.0,0,960,5.0,48.0
7141,79.0,0,0,0.0,71.0
7142,77.0,0,60,4.0,48.0
7143,79.0,60,60,4.0,61.0
7144,77.0,60,60,4.0,54.0
7145,79.0,60,60,4.0,68.0
7146,77.0,0,120,0.0,65.0
7147,77.0,60,60,4.0,54.0
7148,79.0,60,60,4.0,62.0
7149,75.0,0,120,0.0,59.0
7150,71.0,60,381,5.0,67.0
7151,59.0,0,381,6.0,67.0
7152,77.0,60,60,4.0,55.0
7153,74.0,0,120,0.0,67.0
7154,79.0,60,60,4.0,68.0
7155,77.0,0,60,4.0,50.0
7156,79.0,60,60,4.0,66.0
7157,77.0,60,60,4.0,55.0
7158,65.0,0,237,3.0,63.0
7159,72.0,0,237,1.0,62.0
7160,69.0,0,237,1.0,62.0
7161,79.0,60,60,4.0,76.0
7162,77.0,60,60,4.0,54.0
7163,79.0,60,60,4.0,74.0
7164,77.0,60,60,4.0,54.0
7165,60.0,0,480,6.0,66.0
7166,72.0,0,480,5.0,72.0
7167,79.0,60,60,4.0,66.0
7168,72.0,0,480,0.0,54.0
7169,77.0,0,60,4.0,55.0
7170,79.0,60,60,4.0,68.0
7171,65.0,0,177,3.0,66.0
7172,69.0,60,177,1.0,69.0
7173,72.0,0,177,1.0,69.0
7174,77.0,60,60,4.0,62.0
7175,79.0,60,60,4.0,66.0
7176,77.0,60,60,4.0,56.0
7177,79.0,60,60,4.0,73.0
7178,72.0,0,57,1.0,74.0
7179,69.0,0,57,1.0,74.0
7180,65.0,60,57,3.0,79.0
7181,77.0,0,60,4.0,59.0
7182,53.0,60,960,3.0,57.0
7183,79.0,60,60,4.0,67.0
7184,53.0,0,960,2.0,60.0
7185,41.0,0,960,2.0,60.0
7186,77.0,0,60,4.0,54.0
7187,79.0,60,60,4.0,62.0
7188,77.0,60,60,4.0,55.0
7189,65.0,0,237,3.0,72.0
7190,72.0,60,237,1.0,69.0
7191,69.0,0,237,1.0,69.0
7192,79.0,60,60,4.0,61.0
7193,77.0,60,60,4.0,49.0
7194,79.0,60,60,4.0,71.0
7195,77.0,60,60,4.0,45.0
7196,79.0,60,60,4.0,66.0
7197,77.0,0,60,4.0,47.0
7198,79.0,60,60,4.0,60.0
7199,77.0,60,60,4.0,56.0
7200,65.0,60,237,3.0,71.0
7201,69.0,0,237,1.0,70.0
7202,72.0,0,237,1.0,70.0
7203,79.0,60,60,4.0,69.0
7204,77.0,60,60,4.0,52.0
7205,79.0,60,60,4.0,74.0
7206,77.0,60,60,4.0,47.0
7207,53.0,0,480,2.0,59.0
7208,41.0,0,480,2.0,59.0
7209,53.0,60,0,3.0,71.0
7210,79.0,60,60,4.0,70.0
7211,77.0,0,60,4.0,52.0
7212,79.0,60,60,4.0,68.0
7213,77.0,60,60,4.0,56.0
7214,79.0,60,60,4.0,66.0
7215,67.0,0,240,1.0,69.0
7216,70.0,0,240,1.0,69.0
7217,77.0,0,60,4.0,53.0
7218,79.0,60,60,4.0,59.0
7219,72.0,0,120,1.0,71.0
7220,69.0,60,120,1.0,71.0
7221,77.0,60,60,4.0,60.0
7222,79.0,60,60,4.0,65.0
7223,65.0,0,0,3.0,70.0
7224,53.0,0,0,3.0,70.0
7225,58.0,0,480,2.0,82.0
7226,74.0,0,120,1.0,83.0
7227,70.0,0,120,1.0,83.0
7228,46.0,0,480,2.0,82.0
7229,77.0,60,60,4.0,49.0
7230,84.0,0,120,0.0,61.0
7231,79.0,60,60,4.0,65.0
7232,77.0,0,60,4.0,50.0
7233,83.0,60,120,0.0,67.0
7234,79.0,60,60,4.0,67.0
7235,77.0,0,60,4.0,56.0
7236,79.0,60,60,4.0,65.0
7237,84.0,60,120,0.0,70.0
7238,77.0,60,60,4.0,53.0
7239,79.0,60,60,4.0,69.0
7240,83.0,0,120,0.0,62.0
7241,69.0,0,480,1.0,64.0
7242,72.0,0,480,1.0,64.0
7243,53.0,0,480,2.0,64.0
7244,41.0,0,480,2.0,64.0
7245,77.0,60,60,4.0,48.0
7246,86.0,0,120,0.0,77.0
7247,79.0,60,60,4.0,71.0
7248,77.0,0,60,4.0,49.0
7249,79.0,60,60,4.0,65.0
7250,84.0,60,120,0.0,72.0
7251,77.0,60,60,4.0,61.0
7252,82.0,0,120,0.0,66.0
7253,79.0,60,60,4.0,66.0
7254,77.0,0,60,4.0,55.0
7255,72.0,0,960,5.0,50.0
7256,79.0,60,60,4.0,71.0
7257,81.0,60,120,0.0,57.0
7258,60.0,0,960,6.0,52.0
7259,77.0,60,60,4.0,48.0
7260,81.0,0,112,0.0,73.0
7261,79.0,60,52,4.0,60.0
7262,77.0,0,60,4.0,57.0
7263,79.0,52,120,0.0,63.0
7264,79.0,60,60,4.0,66.0
7265,77.0,60,114,0.0,59.0
7266,76.0,0,114,4.0,52.0
7267,75.0,114,134,0.0,63.0
7268,61.0,0,480,6.0,61.0
7269,73.0,0,480,5.0,65.0
7270,77.0,0,134,4.0,61.0
7271,86.0,134,102,4.0,117.0
7272,58.0,224,248,4.0,58.0
7273,74.0,0,472,5.0,69.0
7274,62.0,0,472,6.0,74.0
7275,74.0,0,472,0.0,61.0
7276,62.0,248,248,4.0,74.0
7277,86.0,0,496,4.0,100.0
7278,65.0,124,9484,4.0,71.0
7279,82.0,248,240,4.0,68.0
7280,87.0,240,117,4.0,103.0
7281,60.0,0,232,4.0,55.0
7282,87.0,232,465,4.0,89.0
7283,63.0,232,233,4.0,67.0
7284,84.0,0,263,4.0,73.0
7285,69.0,233,263,4.0,81.0
7286,89.0,0,240,4.0,102.0
7287,86.0,240,240,4.0,72.0
7288,62.0,0,480,4.0,73.0
7289,70.0,263,480,4.0,73.0
7290,82.0,240,117,4.0,63.0
7291,82.0,241,119,4.0,81.0
7292,82.0,239,233,4.0,79.0
7293,70.0,0,460,4.0,53.0
7294,67.0,0,460,4.0,53.0
7295,79.0,233,227,4.0,69.0
7296,75.0,227,118,4.0,65.0
7297,75.0,234,119,4.0,77.0
7298,74.0,255,483,4.0,71.0
7299,58.0,243,241,4.0,64.0
7300,53.0,240,484,4.0,90.0
7301,62.0,243,240,4.0,91.0
7302,77.0,0,724,4.0,99.0
7303,74.0,240,237,4.0,74.0
7304,58.0,0,237,4.0,60.0
7305,60.0,237,240,4.0,60.0
7306,75.0,0,240,4.0,88.0
7307,53.0,241,1207,4.0,58.0
7308,72.0,240,247,4.0,66.0
7309,57.0,0,247,4.0,59.0
7310,86.0,0,117,4.0,114.0
7311,87.0,117,123,4.0,94.0
7312,89.0,123,120,4.0,104.0
7313,58.0,0,480,4.0,61.0
7314,87.0,120,120,4.0,77.0
7315,86.0,120,120,4.0,74.0
7316,84.0,120,120,4.0,70.0
7317,82.0,120,120,4.0,75.0
7318,46.0,0,960,10.0,52.0
7319,58.0,0,960,8.0,52.0
7320,58.0,247,960,7.0,59.0
7321,77.0,0,960,5.0,53.0
7322,74.0,0,960,6.0,50.0
7323,81.0,120,120,4.0,73.0
7324,79.0,0,117,4.0,69.0
7325,77.0,117,119,4.0,72.0
7326,75.0,119,117,4.0,65.0
7327,74.0,117,116,4.0,72.0
7328,51.0,0,469,4.0,55.0
7329,72.0,116,119,4.0,68.0
7330,70.0,119,118,4.0,73.0
7331,69.0,118,118,4.0,68.0
7332,72.0,0,960,6.0,52.0
7333,67.0,0,960,7.0,87.0
7334,51.0,120,960,8.0,47.0
7335,39.0,0,960,10.0,47.0
7336,67.0,118,136,4.0,69.0
7337,75.0,0,960,5.0,49.0
7338,65.0,0,7072,4.0,75.0
7339,70.0,112,121,4.0,102.0
7340,74.0,121,120,4.0,110.0
7341,70.0,120,120,4.0,69.0
7342,58.0,120,243,4.0,65.0
7343,62.0,243,244,4.0,77.0
7344,65.0,244,240,4.0,79.0
7345,77.0,0,727,4.0,107.0
7346,79.0,240,120,4.0,100.0
7347,74.0,0,1440,5.0,51.0
7348,77.0,120,120,4.0,77.0
7349,74.0,0,1440,6.0,69.0
7350,62.0,0,240,4.0,47.0
7351,77.0,0,120,4.0,77.0
7352,60.0,0,240,4.0,49.0
7353,75.0,120,240,6.0,64.0
7354,75.0,120,120,4.0,72.0
7355,75.0,0,240,5.0,63.0
7356,74.0,0,117,4.0,78.0
7357,65.0,0,1920,7.0,60.0
7358,72.0,120,240,5.0,47.0
7359,53.0,136,1920,8.0,63.0
7360,41.0,0,1920,10.0,63.0
7361,72.0,117,123,4.0,67.0
7362,57.0,0,240,4.0,47.0
7363,72.0,0,240,6.0,43.0
7364,53.0,0,1687,4.0,90.0
7365,58.0,0,113,7.0,73.0
7366,58.0,0,113,8.0,110.0
7367,46.0,0,113,10.0,110.0
7368,41.0,0,117,10.0,90.0
7369,53.0,240,117,7.0,82.0
7370,53.0,0,117,8.0,90.0
7371,82.0,0,483,0.0,71.0
7372,58.0,0,480,4.0,58.0
7373,70.0,0,480,4.0,67.0
7374,70.0,120,483,3.0,71.0
7375,58.0,0,483,3.0,71.0
7376,46.0,0,117,10.0,101.0
7377,58.0,240,117,7.0,102.0
7378,58.0,0,117,8.0,101.0
7379,41.0,0,117,10.0,91.0
7380,53.0,240,117,7.0,92.0
7381,53.0,0,117,8.0,91.0
7382,65.0,0,360,3.0,56.0
7383,53.0,0,360,3.0,56.0
7384,62.0,0,960,6.0,71.0
7385,70.0,0,960,5.0,79.0
7386,46.0,0,963,2.0,78.0
7387,62.0,3,960,5.0,79.0
7388,70.0,0,960,6.0,71.0
7389,77.0,0,480,0.0,54.0
7390,65.0,0,120,3.0,79.0
7391,53.0,120,120,3.0,79.0
7392,58.0,0,117,7.0,104.0
7393,58.0,120,117,8.0,112.0
7394,46.0,0,117,10.0,112.0
7395,82.0,0,117,5.0,87.0
7396,53.0,0,117,7.0,84.0
7397,70.0,0,117,6.0,80.0
7398,41.0,240,117,10.0,95.0
7399,53.0,0,117,8.0,95.0
7400,53.0,240,0,3.0,87.0
7401,65.0,0,0,3.0,87.0
7402,82.0,0,480,0.0,95.0
7403,46.0,0,117,10.0,112.0
7404,58.0,0,117,8.0,112.0
7405,70.0,0,117,6.0,88.0
7406,58.0,0,117,7.0,107.0
7407,82.0,0,117,5.0,98.0
7408,70.0,0,117,6.0,91.0
7409,82.0,0,117,5.0,96.0
7410,41.0,0,117,10.0,93.0
7411,53.0,0,117,8.0,93.0
7412,53.0,240,117,7.0,84.0
7413,53.0,240,0,3.0,83.0
7414,65.0,0,0,3.0,83.0
7415,86.0,0,480,0.0,113.0
7416,58.0,0,480,2.0,79.0
7417,82.0,0,60,5.0,99.0
7418,70.0,0,60,6.0,97.0
7419,60.0,0,117,7.0,126.0
7420,48.0,0,117,10.0,114.0
7421,60.0,0,117,8.0,114.0
7422,72.0,0,60,6.0,112.0
7423,84.0,60,60,5.0,112.0
7424,82.0,0,120,5.0,90.0
7425,70.0,60,120,6.0,86.0
7426,53.0,0,117,8.0,82.0
7427,41.0,0,117,10.0,82.0
7428,53.0,0,117,7.0,85.0
7429,81.0,0,240,5.0,88.0
7430,69.0,240,0,6.0,90.0
7431,48.0,0,117,10.0,114.0
7432,60.0,0,117,7.0,126.0
7433,60.0,0,117,8.0,114.0
7434,41.0,0,117,10.0,81.0
7435,53.0,240,117,7.0,87.0
7436,53.0,0,117,8.0,81.0
7437,60.0,0,117,8.0,110.0
7438,48.0,0,117,10.0,110.0
7439,60.0,240,117,7.0,126.0
7440,41.0,0,117,10.0,83.0
7441,53.0,240,117,8.0,83.0
7442,53.0,0,117,7.0,94.0
7443,81.0,0,960,5.0,95.0
7444,63.0,0,1440,2.0,105.0
7445,58.0,0,117,8.0,107.0
7446,46.0,0,117,10.0,107.0
7447,58.0,240,117,7.0,106.0
7448,53.0,0,117,8.0,92.0
7449,53.0,240,117,7.0,86.0
7450,41.0,0,117,10.0,92.0
7451,62.0,0,360,2.0,81.0
7452,58.0,120,120,2.0,75.0
7453,70.0,0,480,1.0,75.0
7454,82.0,0,480,5.0,106.0
7455,70.0,0,480,6.0,113.0
7456,57.0,0,117,7.0,105.0
7457,57.0,0,117,8.0,102.0
7458,45.0,0,117,10.0,102.0
7459,83.0,0,240,5.0,111.0
7460,71.0,0,240,6.0,104.0
7461,53.0,0,117,7.0,93.0
7462,53.0,0,117,8.0,88.0
7463,41.0,0,117,10.0,88.0
7464,84.0,240,240,5.0,110.0
7465,57.0,120,480,2.0,79.0
7466,72.0,0,0,6.0,100.0
7467,57.0,240,117,7.0,97.0
7468,57.0,0,117,8.0,102.0
7469,45.0,0,117,10.0,102.0
7470,41.0,240,117,10.0,86.0
7471,53.0,0,117,8.0,86.0
7472,53.0,0,117,7.0,94.0
7473,75.0,0,960,1.0,111.0
7474,60.0,0,480,2.0,95.0
7475,57.0,0,117,8.0,109.0
7476,45.0,240,117,10.0,109.0
7477,57.0,0,117,7.0,107.0
7478,72.0,0,0,6.0,100.0
7479,84.0,0,720,5.0,95.0
7480,53.0,240,117,7.0,90.0
7481,41.0,0,117,10.0,90.0
7482,53.0,0,117,8.0,90.0
7483,84.0,0,117,5.0,97.0
7484,72.0,0,480,1.0,78.0
7485,57.0,0,480,2.0,81.0
7486,57.0,0,117,8.0,108.0
7487,72.0,0,117,6.0,93.0
7488,84.0,240,117,5.0,100.0
7489,45.0,0,117,10.0,108.0
7490,57.0,0,117,7.0,103.0
7491,53.0,0,117,7.0,82.0
7492,41.0,0,117,10.0,86.0
7493,84.0,240,117,5.0,97.0
7494,72.0,0,117,6.0,98.0
7495,53.0,0,117,8.0,86.0
7496,69.0,0,480,1.0,70.0
7497,53.0,0,480,2.0,78.0
7498,58.0,0,117,8.0,108.0
7499,58.0,240,117,7.0,108.0
7500,46.0,0,117,10.0,108.0
7501,84.0,0,240,5.0,99.0
7502,72.0,0,240,6.0,95.0
7503,53.0,0,117,8.0,90.0
7504,41.0,240,117,10.0,90.0
7505,53.0,0,117,7.0,88.0
7506,70.0,0,480,3.0,100.0
7507,86.0,0,240,5.0,109.0
7508,74.0,0,240,6.0,109.0
7509,58.0,0,480,3.0,100.0
7510,50.0,0,480,2.0,78.0
7511,58.0,240,117,7.0,108.0
7512,46.0,0,117,10.0,96.0
7513,58.0,0,117,8.0,96.0
7514,53.0,240,117,7.0,85.0
7515,53.0,0,117,8.0,86.0
7516,41.0,0,117,10.0,86.0
7517,65.0,0,360,3.0,69.0
7518,53.0,0,0,3.0,89.0
7519,53.0,0,480,2.0,86.0
7520,41.0,0,480,2.0,86.0
7521,89.0,0,4800,0.0,100.0
7522,65.0,120,120,3.0,89.0
7523,82.0,0,480,5.0,79.0
7524,77.0,0,960,1.0,111.0
7525,70.0,0,480,6.0,80.0
7526,58.0,0,117,7.0,100.0
7527,46.0,0,117,10.0,111.0
7528,58.0,0,117,8.0,111.0
7529,70.0,0,117,6.0,87.0
7530,82.0,240,117,5.0,90.0
7531,53.0,0,117,8.0,88.0
7532,53.0,0,117,7.0,85.0
7533,41.0,0,117,10.0,88.0
7534,74.0,0,480,1.0,78.0
7535,86.0,0,480,0.0,63.0
7536,65.0,0,0,3.0,85.0
7537,46.0,0,480,2.0,97.0
7538,58.0,120,480,2.0,97.0
7539,53.0,0,0,3.0,85.0
7540,58.0,0,117,7.0,111.0
7541,58.0,0,117,8.0,108.0
7542,82.0,0,117,5.0,97.0
7543,46.0,0,117,10.0,108.0
7544,70.0,0,117,6.0,89.0
7545,41.0,0,117,10.0,95.0
7546,53.0,0,117,7.0,90.0
7547,70.0,0,117,6.0,98.0
7548,82.0,0,117,5.0,101.0
7549,53.0,240,117,8.0,95.0
7550,62.0,0,480,2.0,108.0
7551,53.0,0,0,3.0,80.0
7552,65.0,0,0,3.0,80.0
7553,70.0,240,480,1.0,69.0
7554,82.0,0,480,0.0,62.0
7555,50.0,0,480,2.0,108.0
7556,70.0,0,60,6.0,99.0
7557,82.0,0,60,5.0,97.0
7558,60.0,0,117,8.0,106.0
7559,60.0,0,117,7.0,126.0
7560,48.0,0,117,10.0,106.0
7561,72.0,0,60,6.0,107.0
7562,84.0,60,60,5.0,112.0
7563,82.0,0,120,5.0,88.0
7564,70.0,60,120,6.0,88.0
7565,41.0,120,117,10.0,82.0
7566,53.0,0,117,8.0,82.0
7567,53.0,0,117,7.0,79.0
7568,69.0,0,240,6.0,95.0
7569,81.0,0,240,5.0,81.0
7570,60.0,0,117,8.0,104.0
7571,60.0,0,117,7.0,126.0
7572,48.0,240,117,10.0,104.0
7573,53.0,0,117,7.0,87.0
7574,53.0,240,117,8.0,87.0
7575,41.0,0,117,10.0,87.0
7576,60.0,0,117,7.0,126.0
7577,60.0,240,117,8.0,108.0
7578,48.0,0,117,10.0,108.0
7579,53.0,0,117,7.0,81.0
7580,41.0,240,117,10.0,78.0
7581,53.0,0,117,8.0,78.0
7582,69.0,0,960,6.0,97.0
7583,75.0,0,1440,1.0,88.0
7584,77.0,240,1440,0.0,61.0
7585,81.0,0,960,5.0,93.0
7586,58.0,240,117,7.0,107.0
7587,58.0,0,117,8.0,105.0
7588,46.0,0,117,10.0,105.0
7589,53.0,0,117,7.0,84.0
7590,41.0,0,117,10.0,94.0
7591,53.0,240,117,8.0,94.0
7592,74.0,0,360,1.0,85.0
7593,82.0,0,480,5.0,99.0
7594,77.0,0,480,0.0,71.0
7595,70.0,0,480,6.0,105.0
7596,70.0,120,120,1.0,72.0
7597,45.0,0,117,10.0,106.0
7598,57.0,0,117,7.0,100.0
7599,57.0,120,117,8.0,106.0
7600,83.0,0,240,5.0,103.0
7601,71.0,0,240,6.0,107.0
7602,53.0,0,117,7.0,91.0
7603,41.0,0,117,10.0,87.0
7604,53.0,0,117,8.0,87.0
7605,72.0,0,190,6.0,105.0
7606,69.0,0,480,1.0,70.0
7607,84.0,240,240,5.0,104.0
7608,57.0,0,117,8.0,109.0
7609,57.0,0,117,7.0,103.0
7610,45.0,0,117,10.0,109.0
7611,41.0,0,117,10.0,83.0
7612,53.0,240,117,7.0,87.0
7613,53.0,0,117,8.0,83.0
7614,72.0,240,480,1.0,94.0
7615,87.0,0,960,0.0,117.0
7616,57.0,240,117,8.0,105.0
7617,45.0,0,117,10.0,105.0
7618,57.0,0,117,7.0,105.0
7619,72.0,0,720,6.0,102.0
7620,84.0,0,0,5.0,96.0
7621,53.0,240,117,7.0,95.0
7622,41.0,0,117,10.0,90.0
7623,53.0,0,117,8.0,90.0
7624,72.0,0,117,6.0,100.0
7625,69.0,0,480,1.0,67.0
7626,84.0,0,480,0.0,77.0
7627,72.0,0,117,6.0,98.0
7628,84.0,0,117,5.0,102.0
7629,45.0,0,117,10.0,105.0
7630,57.0,0,117,7.0,106.0
7631,57.0,0,117,8.0,105.0
7632,41.0,240,117,10.0,81.0
7633,84.0,0,117,5.0,101.0
7634,53.0,0,117,7.0,86.0
7635,72.0,0,117,6.0,97.0
7636,53.0,0,117,8.0,81.0
7637,65.0,240,480,1.0,61.0
7638,81.0,0,480,0.0,74.0
7639,53.0,0,3840,2.0,67.0
7640,41.0,0,3840,2.0,67.0
7641,65.0,0,0,3.0,92.0
7642,86.0,0,117,5.0,107.0
7643,74.0,240,117,6.0,116.0
7644,77.0,240,117,6.0,119.0
7645,77.0,0,117,5.0,67.0
7646,89.0,0,480,0.0,113.0
7647,58.0,0,480,3.0,92.0
7648,58.0,0,480,7.0,103.0
7649,58.0,0,480,8.0,112.0
7650,46.0,0,480,2.0,69.0
7651,70.0,0,480,1.0,104.0
7652,46.0,0,480,10.0,112.0
7653,79.0,0,60,6.0,116.0
7654,79.0,240,60,5.0,103.0
7655,77.0,60,60,5.0,84.0
7656,77.0,0,60,6.0,91.0
7657,76.0,0,60,6.0,84.0
7658,76.0,60,60,5.0,87.0
7659,77.0,60,300,5.0,110.0
7660,77.0,0,300,6.0,106.0
7661,82.0,0,117,5.0,126.0
7662,82.0,300,117,1.0,77.0
7663,82.0,0,117,6.0,125.0
7664,74.0,240,117,6.0,70.0
7665,74.0,0,117,5.0,70.0
7666,74.0,0,117,1.0,55.0
7667,75.0,240,60,5.0,94.0
7668,75.0,0,60,1.0,78.0
7669,75.0,0,60,6.0,106.0
7670,74.0,60,60,5.0,89.0
7671,74.0,0,60,1.0,81.0
7672,74.0,0,60,6.0,85.0
7673,72.0,60,60,5.0,85.0
7674,72.0,0,60,1.0,68.0
7675,72.0,0,60,6.0,81.0
7676,74.0,60,300,5.0,102.0
7677,74.0,0,300,6.0,112.0
7678,74.0,0,300,1.0,88.0
7679,53.0,300,117,10.0,91.0
7680,65.0,0,117,8.0,91.0
7681,77.0,0,117,6.0,117.0
7682,77.0,0,117,1.0,95.0
7683,89.0,0,117,0.0,76.0
7684,77.0,0,117,5.0,115.0
7685,65.0,0,117,2.0,75.0
7686,46.0,0,117,10.0,74.0
7687,58.0,0,117,8.0,74.0
7688,70.0,0,117,6.0,69.0
7689,58.0,0,117,2.0,64.0
7690,70.0,0,117,7.0,89.0
7691,70.0,0,117,1.0,62.0
7692,82.0,240,117,0.0,61.0
7693,70.0,0,117,5.0,60.0
7694,72.0,0,60,1.0,90.0
7695,72.0,0,60,7.0,103.0
7696,72.0,240,60,5.0,107.0
7697,84.0,0,60,0.0,89.0
7698,72.0,0,60,6.0,103.0
7699,70.0,0,62,7.0,89.0
7700,70.0,0,62,5.0,80.0
7701,82.0,0,62,0.0,80.0
7702,70.0,0,62,6.0,88.0
7703,70.0,60,62,1.0,70.0
7704,69.0,62,60,5.0,87.0
7705,69.0,0,60,1.0,79.0
7706,69.0,0,60,6.0,88.0
7707,81.0,0,60,0.0,72.0
7708,69.0,0,60,7.0,80.0
7709,58.0,0,480,8.0,96.0
7710,70.0,0,298,7.0,102.0
7711,70.0,0,298,1.0,93.0
7712,70.0,0,298,6.0,105.0
7713,82.0,0,298,0.0,88.0
7714,46.0,0,480,10.0,96.0
7715,58.0,0,480,2.0,75.0
7716,70.0,60,298,5.0,104.0
7717,50.0,0,117,10.0,105.0
7718,74.0,0,117,3.0,77.0
7719,86.0,0,117,0.0,101.0
7720,62.0,298,117,8.0,105.0
7721,74.0,0,117,5.0,114.0
7722,86.0,0,117,1.0,117.0
7723,74.0,0,117,1.0,117.0
7724,62.0,0,117,2.0,100.0
7725,74.0,0,117,6.0,119.0
7726,74.0,0,117,7.0,122.0
7727,53.0,0,118,2.0,74.0
7728,65.0,0,118,1.0,55.0
7729,53.0,0,118,8.0,83.0
7730,41.0,0,118,10.0,83.0
7731,77.0,0,118,0.0,56.0
7732,65.0,0,118,5.0,72.0
7733,65.0,0,118,7.0,70.0
7734,65.0,0,118,3.0,60.0
7735,65.0,228,118,6.0,68.0
7736,77.0,0,118,1.0,55.0
7737,67.0,0,60,1.0,92.0
7738,79.0,0,60,1.0,92.0
7739,79.0,0,60,0.0,96.0
7740,67.0,0,60,5.0,101.0
7741,67.0,0,60,6.0,99.0
7742,67.0,226,60,7.0,106.0
7743,65.0,0,55,5.0,95.0
7744,65.0,0,55,6.0,84.0
7745,77.0,0,55,1.0,65.0
7746,65.0,0,55,7.0,85.0
7747,65.0,60,55,1.0,65.0
7748,77.0,0,55,0.0,71.0
7749,64.0,0,60,1.0,77.0
7750,64.0,0,60,7.0,86.0
7751,64.0,55,60,5.0,93.0
7752,64.0,0,60,6.0,92.0
7753,76.0,0,60,0.0,89.0
7754,76.0,0,60,1.0,77.0
7755,77.0,0,331,1.0,91.0
7756,65.0,0,331,1.0,91.0
7757,41.0,0,506,10.0,97.0
7758,65.0,0,331,6.0,99.0
7759,77.0,0,331,0.0,94.0
7760,53.0,0,506,2.0,80.0
7761,53.0,0,506,8.0,97.0
7762,65.0,0,331,7.0,104.0
7763,65.0,0,506,3.0,76.0
7764,65.0,60,331,5.0,105.0
7765,82.0,0,106,1.0,102.0
7766,70.0,0,106,6.0,126.0
7767,70.0,0,106,7.0,126.0
7768,70.0,0,106,1.0,102.0
7769,82.0,0,106,0.0,102.0
7770,46.0,0,106,10.0,110.0
7771,70.0,0,106,5.0,126.0
7772,70.0,0,106,3.0,106.0
7773,58.0,0,106,2.0,91.0
7774,58.0,331,106,8.0,110.0
7775,62.0,0,118,3.0,60.0
7776,74.0,0,118,0.0,62.0
7777,74.0,0,118,1.0,59.0
7778,62.0,0,118,7.0,68.0
7779,62.0,0,118,5.0,58.0
7780,62.0,0,118,1.0,59.0
7781,50.0,0,118,2.0,67.0
7782,50.0,0,118,8.0,82.0
7783,38.0,228,118,10.0,82.0
7784,62.0,0,118,6.0,65.0
7785,62.0,0,244,3.0,79.0
7786,62.0,244,244,3.0,77.0
7787,62.0,0,728,7.0,94.0
7788,50.0,0,728,2.0,80.0
7789,62.0,0,728,1.0,76.0
7790,74.0,0,728,1.0,76.0
7791,62.0,0,728,6.0,88.0
7792,62.0,0,728,5.0,93.0
7793,50.0,244,728,8.0,93.0
7794,38.0,0,728,10.0,93.0
7795,74.0,0,728,0.0,87.0
7796,64.0,0,120,1.0,92.0
7797,76.0,0,120,1.0,92.0
7798,64.0,0,120,5.0,106.0
7799,76.0,0,120,0.0,93.0
7800,52.0,0,120,8.0,96.0
7801,40.0,0,120,10.0,96.0
7802,64.0,0,120,6.0,105.0
7803,52.0,240,120,2.0,93.0
7804,64.0,0,120,7.0,108.0
7805,62.0,244,480,3.0,86.0
7806,53.0,0,120,8.0,101.0
7807,77.0,0,120,0.0,97.0
7808,65.0,0,120,6.0,111.0
7809,41.0,0,120,10.0,101.0
7810,77.0,0,120,1.0,89.0
7811,65.0,120,120,5.0,110.0
7812,53.0,0,120,2.0,87.0
7813,65.0,0,120,1.0,89.0
7814,65.0,0,120,7.0,107.0
7815,79.0,0,240,0.0,101.0
7816,67.0,120,240,5.0,111.0
7817,43.0,0,240,10.0,105.0
7818,67.0,0,240,7.0,108.0
7819,55.0,0,240,2.0,89.0
7820,67.0,0,240,6.0,111.0
7821,55.0,0,240,8.0,105.0
7822,67.0,0,240,1.0,100.0
7823,79.0,0,240,1.0,100.0
7824,64.0,0,240,1.0,66.0
7825,64.0,0,240,7.0,77.0
7826,76.0,0,240,1.0,66.0
7827,52.0,0,240,8.0,97.0
7828,40.0,240,240,10.0,97.0
7829,76.0,0,240,0.0,68.0
7830,64.0,0,240,6.0,83.0
7831,52.0,0,240,2.0,75.0
7832,64.0,0,240,5.0,83.0
7833,65.0,0,236,4.0,76.0
7834,67.0,236,120,4.0,93.0
7835,77.0,0,476,1.0,86.0
7836,65.0,0,476,1.0,86.0
7837,65.0,240,476,7.0,103.0
7838,53.0,0,476,8.0,99.0
7839,65.0,0,476,5.0,104.0
7840,69.0,120,120,4.0,99.0
7841,65.0,0,476,3.0,80.0
7842,53.0,0,476,2.0,86.0
7843,77.0,0,476,0.0,88.0
7844,65.0,0,476,6.0,109.0
7845,41.0,0,476,10.0,99.0
7846,70.0,120,120,4.0,87.0
7847,72.0,120,120,4.0,100.0
7848,74.0,120,124,4.0,94.0
7849,76.0,124,120,4.0,90.0
7850,77.0,120,242,4.0,99.0
7851,79.0,242,123,4.0,99.0
7852,81.0,123,124,4.0,99.0
7853,82.0,124,121,4.0,94.0
7854,84.0,121,122,4.0,93.0
7855,86.0,122,122,4.0,96.0
7856,88.0,122,106,4.0,97.0
7857,89.0,115,953,4.0,102.0
7858,87.0,953,120,4.0,77.0
7859,86.0,120,119,4.0,79.0
7860,84.0,119,119,4.0,74.0
7861,82.0,119,120,4.0,72.0
7862,81.0,120,117,4.0,71.0
7863,82.0,117,119,4.0,89.0
7864,86.0,119,117,4.0,105.0
7865,82.0,117,127,4.0,74.0
7866,58.0,0,237,4.0,46.0
7867,77.0,127,477,4.0,58.0
7868,62.0,240,0,4.0,53.0
7869,53.0,237,240,4.0,49.0
7870,58.0,0,240,4.0,53.0
7871,62.0,243,0,4.0,50.0
7872,53.0,240,243,4.0,48.0
7873,77.0,0,960,5.0,46.0
7874,65.0,0,960,6.0,52.0
7875,58.0,0,240,4.0,50.0
7876,62.0,0,480,6.0,42.0
7877,74.0,0,480,5.0,42.0
7878,53.0,240,240,4.0,52.0
7879,62.0,240,0,4.0,54.0
7880,76.0,0,120,4.0,76.0
7881,58.0,0,240,4.0,54.0
7882,77.0,120,120,4.0,93.0
7883,82.0,0,120,4.0,110.0
7884,58.0,0,480,6.0,45.0
7885,77.0,120,120,4.0,62.0
7886,53.0,120,240,4.0,51.0
7887,70.0,0,480,5.0,31.0
7888,62.0,0,0,4.0,50.0
7889,58.0,0,226,4.0,50.0
7890,65.0,0,466,5.0,34.0
7891,74.0,0,466,4.0,61.0
7892,62.0,0,0,4.0,54.0
7893,53.0,226,240,4.0,53.0
7894,73.0,0,123,4.0,73.0
7895,74.0,123,124,4.0,87.0
7896,58.0,240,247,4.0,50.0
7897,77.0,124,124,4.0,101.0
7898,53.0,106,974,7.0,45.0
7899,53.0,0,247,4.0,50.0
7900,65.0,14,960,6.0,59.0
7901,74.0,124,123,4.0,76.0
7902,62.0,0,492,6.0,45.0
7903,50.0,0,492,7.0,42.0
7904,62.0,0,492,4.0,56.0
7905,70.0,123,492,4.0,62.0
7906,58.0,0,492,4.0,53.0
7907,89.0,0,360,4.0,112.0
7908,86.0,0,360,4.0,112.0
7909,58.0,0,468,6.0,41.0
7910,58.0,492,468,7.0,60.0
7911,86.0,360,108,4.0,90.0
7912,89.0,0,108,4.0,90.0
7913,53.0,0,4326,8.0,47.0
7914,41.0,0,4326,10.0,47.0
7915,65.0,0,476,6.0,62.0
7916,53.0,0,476,7.0,50.0
7917,65.0,237,0,4.0,58.0
7918,86.0,118,952,4.0,68.0
7919,83.0,0,952,4.0,68.0
7920,65.0,0,0,4.0,67.0
7921,67.0,240,119,4.0,81.0
7922,87.0,237,479,4.0,87.0
7923,84.0,0,479,4.0,87.0
7924,69.0,119,120,4.0,82.0
7925,70.0,120,120,4.0,76.0
7926,72.0,120,119,4.0,82.0
7927,74.0,119,120,4.0,80.0
7928,75.0,120,120,4.0,73.0
7929,77.0,0,480,4.0,82.0
7930,87.0,120,960,4.0,75.0
7931,86.0,960,120,4.0,73.0
7932,84.0,120,120,4.0,64.0
7933,82.0,120,120,4.0,68.0
7934,81.0,120,120,4.0,68.0
7935,80.0,120,117,4.0,76.0
7936,81.0,117,120,4.0,91.0
7937,84.0,120,120,4.0,104.0
7938,81.0,120,123,4.0,73.0
7939,57.0,0,237,4.0,44.0
7940,75.0,123,477,4.0,58.0
7941,60.0,240,0,4.0,54.0
7942,53.0,237,240,4.0,45.0
7943,57.0,0,240,4.0,54.0
7944,75.0,0,960,5.0,57.0
7945,63.0,0,960,6.0,41.0
7946,53.0,240,243,4.0,48.0
7947,60.0,0,0,4.0,47.0
7948,57.0,0,240,4.0,47.0
7949,53.0,240,240,4.0,48.0
7950,72.0,243,480,5.0,42.0
7951,60.0,0,480,6.0,47.0
7952,74.0,240,120,4.0,79.0
7953,75.0,120,120,4.0,89.0
7954,57.0,0,240,4.0,53.0
7955,79.0,120,120,4.0,104.0
7956,69.0,0,480,5.0,36.0
7957,57.0,0,480,6.0,50.0
7958,60.0,0,0,4.0,46.0
7959,75.0,120,120,4.0,70.0
7960,53.0,0,240,4.0,51.0
7961,71.0,0,106,4.0,62.0
7962,57.0,0,226,4.0,46.0
7963,72.0,106,120,4.0,80.0
7964,75.0,120,120,4.0,106.0
7965,63.0,11,466,5.0,40.0
7966,53.0,0,240,4.0,51.0
7967,72.0,120,120,4.0,71.0
7968,60.0,120,0,4.0,43.0
7969,68.0,0,123,4.0,62.0
7970,57.0,0,247,4.0,43.0
7971,69.0,123,124,4.0,94.0
7972,72.0,0,123,4.0,105.0
7973,69.0,123,124,4.0,71.0
7974,60.0,0,0,4.0,51.0
7975,51.0,109,971,7.0,42.0
7976,63.0,0,960,6.0,63.0
7977,53.0,124,247,4.0,53.0
7978,57.0,0,245,4.0,51.0
7979,53.0,245,245,4.0,51.0
7980,65.0,124,490,4.0,61.0
7981,60.0,0,490,6.0,46.0
7982,48.0,0,490,7.0,47.0
7983,57.0,0,240,4.0,48.0
7984,84.0,0,360,4.0,114.0
7985,81.0,245,360,4.0,114.0
7986,60.0,0,470,4.0,48.0
7987,53.0,240,230,4.0,49.0
7988,81.0,120,110,4.0,87.0
7989,57.0,0,470,7.0,63.0
7990,53.0,0,3840,8.0,47.0
7991,57.0,0,470,6.0,47.0
7992,84.0,0,110,4.0,87.0
7993,41.0,0,3840,10.0,47.0
7994,70.0,240,119,4.0,57.0
7995,58.0,0,479,6.0,48.0
7996,58.0,0,479,7.0,58.0
7997,46.0,0,479,8.0,41.0
7998,34.0,120,479,10.0,41.0
7999,70.0,239,117,4.0,60.0
8000,70.0,237,119,4.0,73.0
8001,85.0,0,955,4.0,98.0
8002,81.0,0,955,4.0,98.0
8003,70.0,0,117,4.0,75.0
8004,69.0,117,120,4.0,64.0
8005,70.0,120,119,4.0,74.0
8006,82.0,239,475,4.0,93.0
8007,86.0,0,475,4.0,93.0
8008,72.0,119,119,4.0,83.0
8009,70.0,119,120,4.0,73.0
8010,68.0,120,120,4.0,66.0
8011,67.0,120,120,4.0,74.0
8012,65.0,120,120,4.0,66.0
8013,79.0,240,117,4.0,76.0
8014,63.0,120,480,4.0,77.0
8015,79.0,240,117,4.0,83.0
8016,79.0,240,0,4.0,75.0
8017,78.0,120,120,4.0,75.0
8018,79.0,120,120,4.0,91.0
8019,80.0,120,120,4.0,97.0
8020,70.0,0,1440,6.0,48.0
8021,67.0,0,1440,7.0,49.0
8022,79.0,120,117,4.0,75.0
8023,77.0,117,120,4.0,73.0
8024,75.0,120,120,4.0,64.0
8025,65.0,0,480,7.0,51.0
8026,74.0,120,123,4.0,75.0
8027,71.0,0,480,6.0,52.0
8028,72.0,0,237,4.0,76.0
8029,67.0,237,120,4.0,89.0
8030,39.0,0,476,4.0,75.0
8031,63.0,123,476,7.0,40.0
8032,65.0,120,119,4.0,90.0
8033,79.0,0,2396,5.0,43.0
8034,72.0,0,476,6.0,49.0
8035,63.0,119,121,4.0,93.0
8036,62.0,121,120,4.0,95.0
8037,60.0,120,120,4.0,93.0
8038,71.0,0,481,5.0,45.0
8039,59.0,120,120,4.0,97.0
8040,65.0,0,481,6.0,34.0
8041,62.0,0,481,7.0,41.0
8042,60.0,120,243,4.0,115.0
8043,72.0,243,120,4.0,125.0
8044,51.0,0,484,4.0,83.0
8045,72.0,0,484,5.0,55.0
8046,74.0,120,121,4.0,101.0
8047,55.0,0,484,4.0,83.0
8048,63.0,0,484,7.0,56.0
8049,67.0,0,484,6.0,52.0
8050,75.0,0,120,4.0,93.0
8051,77.0,120,121,4.0,101.0
8052,79.0,121,120,4.0,92.0
8053,60.0,0,479,7.0,40.0
8054,63.0,121,479,6.0,38.0
8055,75.0,120,118,4.0,70.0
8056,79.0,0,479,5.0,69.0
8057,77.0,240,0,4.0,86.0
8058,60.0,0,477,4.0,73.0
8059,57.0,0,477,4.0,73.0
8060,51.0,0,477,4.0,73.0
8061,72.0,0,477,6.0,72.0
8062,77.0,0,119,4.0,71.0
8063,77.0,239,119,4.0,77.0
8064,75.0,237,479,6.0,60.0
8065,77.0,240,120,4.0,79.0
8066,76.0,120,120,4.0,81.0
8067,77.0,120,119,4.0,88.0
8068,79.0,119,120,4.0,101.0
8069,57.0,0,1435,7.0,45.0
8070,65.0,0,479,6.0,35.0
8071,77.0,0,120,4.0,73.0
8072,75.0,120,117,4.0,68.0
8073,74.0,117,119,4.0,72.0
8074,77.0,123,1915,5.0,47.0
8075,69.0,120,480,6.0,63.0
8076,60.0,0,480,7.0,63.0
8077,72.0,119,124,4.0,68.0
8078,51.0,0,5760,8.0,50.0
8079,39.0,0,5760,10.0,50.0
8080,70.0,0,236,4.0,71.0
8081,65.0,236,120,4.0,85.0
8082,38.0,0,476,4.0,78.0
8083,77.0,0,476,5.0,54.0
8084,63.0,120,120,4.0,97.0
8085,62.0,124,476,7.0,63.0
8086,70.0,0,476,6.0,57.0
8087,62.0,120,120,4.0,97.0
8088,60.0,120,120,4.0,95.0
8089,58.0,120,121,4.0,98.0
8090,72.0,0,481,6.0,59.0
8091,81.0,0,481,5.0,63.0
8092,65.0,0,481,7.0,61.0
8093,57.0,121,120,4.0,100.0
8094,58.0,0,243,4.0,109.0
8095,70.0,243,120,4.0,126.0
8096,72.0,120,120,4.0,103.0
8097,53.0,0,483,4.0,78.0
8098,50.0,120,483,4.0,78.0
8099,74.0,0,483,6.0,59.0
8100,62.0,0,483,7.0,48.0
8101,82.0,0,483,5.0,57.0
8102,74.0,120,121,4.0,97.0
8103,75.0,121,120,4.0,92.0
8104,77.0,120,121,4.0,93.0
8105,86.0,0,385,5.0,67.0
8106,77.0,0,385,6.0,65.0
8107,58.0,0,385,7.0,40.0
8108,79.0,121,118,4.0,94.0
8109,50.0,0,1920,8.0,41.0
8110,38.0,0,1920,10.0,41.0
8111,75.0,0,239,4.0,69.0
8112,75.0,239,119,4.0,78.0
8113,36.0,0,479,11.0,57.0
8114,69.0,0,479,11.0,53.0
8115,75.0,0,479,11.0,56.0
8116,63.0,0,479,11.0,58.0
8117,75.0,240,119,4.0,79.0
8118,75.0,239,117,4.0,81.0
8119,75.0,240,120,4.0,81.0
8120,74.0,120,120,4.0,77.0
8121,75.0,120,120,4.0,91.0
8122,77.0,120,120,4.0,93.0
8123,75.0,120,120,4.0,69.0
8124,74.0,120,120,4.0,73.0
8125,75.0,120,120,4.0,92.0
8126,75.0,120,0,5.0,44.0
8127,69.0,120,1918,6.0,35.0
8128,57.0,0,1918,4.0,75.0
8129,51.0,0,0,4.0,82.0
8130,48.0,0,1918,4.0,75.0
8131,36.0,0,1918,10.0,44.0
8132,48.0,0,1918,8.0,44.0
8133,63.0,0,1918,7.0,65.0
8134,77.0,120,120,4.0,98.0
8135,75.0,0,240,4.0,78.0
8136,63.0,240,117,4.0,59.0
8137,34.0,0,480,11.0,50.0
8138,67.0,0,480,11.0,47.0
8139,75.0,0,480,11.0,59.0
8140,70.0,0,480,11.0,58.0
8141,63.0,240,117,4.0,79.0
8142,63.0,240,117,4.0,83.0
8143,63.0,240,120,4.0,78.0
8144,62.0,120,120,4.0,81.0
8145,63.0,120,120,4.0,88.0
8146,65.0,120,120,4.0,96.0
8147,63.0,120,120,4.0,71.0
8148,62.0,120,120,4.0,72.0
8149,63.0,120,120,4.0,88.0
8150,46.0,0,1920,4.0,82.0
8151,55.0,0,1920,4.0,82.0
8152,70.0,0,1920,6.0,56.0
8153,65.0,120,120,4.0,96.0
8154,34.0,0,1920,10.0,53.0
8155,67.0,0,1920,7.0,62.0
8156,46.0,0,1920,8.0,53.0
8157,63.0,120,240,4.0,77.0
8158,87.0,240,117,4.0,119.0
8159,75.0,0,480,11.0,47.0
8160,72.0,0,480,11.0,52.0
8161,65.0,0,480,11.0,54.0
8162,33.0,0,480,11.0,54.0
8163,87.0,240,117,4.0,91.0
8164,87.0,241,119,4.0,81.0
8165,87.0,240,120,4.0,83.0
8166,86.0,120,120,4.0,65.0
8167,87.0,120,120,4.0,92.0
8168,89.0,120,124,4.0,92.0
8169,87.0,124,120,4.0,88.0
8170,86.0,120,120,4.0,77.0
8171,87.0,120,124,4.0,84.0
8172,33.0,0,1920,10.0,50.0
8173,45.0,0,1920,8.0,50.0
8174,48.0,0,1920,4.0,68.0
8175,45.0,0,1920,4.0,68.0
8176,53.0,0,1920,4.0,68.0
8177,72.0,0,1920,6.0,52.0
8178,65.0,0,1920,7.0,50.0
8179,75.0,0,1920,5.0,50.0
8180,89.0,124,111,4.0,97.0
8181,87.0,0,120,4.0,83.0
8182,82.0,120,123,4.0,64.0
8183,78.0,123,120,4.0,67.0
8184,75.0,120,120,4.0,70.0
8185,63.0,0,483,11.0,80.0
8186,58.0,0,483,11.0,79.0
8187,42.0,0,483,11.0,81.0
8188,82.0,120,120,4.0,126.0
8189,78.0,120,120,4.0,86.0
8190,75.0,120,117,4.0,78.0
8191,70.0,117,118,4.0,67.0
8192,78.0,118,120,4.0,126.0
8193,75.0,120,116,4.0,82.0
8194,70.0,116,116,4.0,73.0
8195,66.0,116,114,4.0,72.0
8196,75.0,114,114,4.0,126.0
8197,70.0,114,117,4.0,85.0
8198,66.0,117,116,4.0,71.0
8199,42.0,0,1918,10.0,55.0
8200,58.0,0,1918,7.0,39.0
8201,42.0,0,1918,4.0,85.0
8202,63.0,116,147,4.0,69.0
8203,54.0,113,1918,8.0,55.0
8204,54.0,0,1918,4.0,85.0
8205,58.0,0,1918,6.0,39.0
8206,29.0,0,108,4.0,89.0
8207,41.0,108,121,4.0,93.0
8208,40.0,121,120,4.0,77.0
8209,41.0,120,120,4.0,87.0
8210,33.0,120,123,4.0,93.0
8211,75.0,0,723,1.0,53.0
8212,45.0,123,120,4.0,104.0
8213,63.0,0,723,2.0,58.0
8214,87.0,136,723,0.0,62.0
8215,44.0,0,121,4.0,83.0
8216,60.0,120,241,2.0,46.0
8217,84.0,0,241,0.0,42.0
8218,45.0,121,120,4.0,89.0
8219,72.0,0,241,1.0,49.0
8220,36.0,0,120,4.0,91.0
8221,48.0,120,123,4.0,95.0
8222,47.0,123,120,4.0,82.0
8223,69.0,121,0,1.0,62.0
8224,48.0,120,121,4.0,88.0
8225,81.0,0,0,0.0,58.0
8226,57.0,0,0,2.0,56.0
8227,41.0,0,120,4.0,96.0
8228,53.0,120,123,4.0,104.0
8229,52.0,123,120,4.0,80.0
8230,63.0,0,0,5.0,47.0
8231,60.0,0,1920,6.0,57.0
8232,60.0,0,1920,4.0,126.0
8233,63.0,0,1920,4.0,126.0
8234,69.0,0,1920,4.0,126.0
8235,53.0,120,120,4.0,92.0
8236,53.0,0,1920,8.0,51.0
8237,41.0,0,1920,10.0,51.0
8238,57.0,11,1920,7.0,44.0
8239,87.0,0,120,4.0,126.0
8240,82.0,120,120,4.0,82.0
8241,78.0,120,120,4.0,66.0
8242,63.0,120,480,11.0,78.0
8243,58.0,0,480,11.0,79.0
8244,42.0,0,480,11.0,78.0
8245,75.0,120,120,4.0,72.0
8246,82.0,120,120,4.0,126.0
8247,78.0,120,120,4.0,80.0
8248,75.0,120,120,4.0,78.0
8249,70.0,120,120,4.0,65.0
8250,78.0,120,120,4.0,126.0
8251,75.0,120,116,4.0,89.0
8252,70.0,116,117,4.0,71.0
8253,66.0,117,119,4.0,69.0
8254,75.0,119,116,4.0,126.0
8255,70.0,116,120,4.0,80.0
8256,66.0,120,116,4.0,74.0
8257,42.0,0,1920,4.0,89.0
8258,54.0,0,1920,8.0,49.0
8259,58.0,0,1920,6.0,50.0
8260,58.0,0,1920,7.0,52.0
8261,63.0,0,0,4.0,125.0
8262,54.0,0,1920,4.0,89.0
8263,42.0,0,1920,10.0,49.0
8264,29.0,7,112,4.0,85.0
8265,63.0,0,240,2.0,52.0
8266,41.0,112,121,4.0,94.0
8267,87.0,0,240,0.0,54.0
8268,75.0,129,240,1.0,52.0
8269,40.0,121,120,4.0,83.0
8270,41.0,120,120,4.0,89.0
8271,62.0,0,240,2.0,47.0
8272,86.0,0,240,0.0,63.0
8273,74.0,0,240,1.0,43.0
8274,33.0,120,123,4.0,91.0
8275,75.0,0,243,1.0,65.0
8276,45.0,123,120,4.0,103.0
8277,87.0,0,243,0.0,67.0
8278,63.0,0,243,2.0,67.0
8279,44.0,0,120,4.0,77.0
8280,60.0,0,240,2.0,58.0
8281,72.0,0,240,1.0,48.0
8282,45.0,120,120,4.0,83.0
8283,84.0,120,240,0.0,46.0
8284,36.0,0,120,4.0,93.0
8285,48.0,120,121,4.0,104.0
8286,47.0,121,120,4.0,81.0
8287,69.0,120,481,1.0,51.0
8288,81.0,120,0,0.0,54.0
8289,48.0,120,120,4.0,88.0
8290,57.0,0,0,2.0,53.0
8291,41.0,0,120,4.0,102.0
8292,53.0,120,123,4.0,100.0
8293,52.0,123,120,4.0,86.0
8294,60.0,0,1920,6.0,59.0
8295,60.0,0,1920,4.0,125.0
8296,69.0,0,1920,4.0,125.0
8297,53.0,120,120,4.0,89.0
8298,57.0,0,1920,7.0,45.0
8299,69.0,0,483,1.0,59.0
8300,41.0,0,1920,10.0,47.0
8301,53.0,0,1920,8.0,47.0
8302,87.0,0,120,4.0,126.0
8303,82.0,120,120,4.0,82.0
8304,78.0,120,120,4.0,71.0
8305,63.0,0,480,11.0,82.0
8306,58.0,0,480,11.0,84.0
8307,42.0,0,480,11.0,82.0
8308,75.0,120,120,4.0,72.0
8309,82.0,120,120,4.0,126.0
8310,78.0,120,120,4.0,85.0
8311,75.0,120,120,4.0,82.0
8312,70.0,120,120,4.0,75.0
8313,78.0,0,120,4.0,126.0
8314,75.0,120,120,4.0,90.0
8315,70.0,120,120,4.0,70.0
8316,66.0,120,117,4.0,72.0
8317,75.0,117,120,4.0,126.0
8318,70.0,120,119,4.0,83.0
8319,66.0,119,120,4.0,71.0
8320,42.0,0,1920,10.0,49.0
8321,63.0,0,1920,5.0,56.0
8322,54.0,0,1920,8.0,49.0
8323,58.0,0,1920,7.0,54.0
8324,58.0,120,1920,6.0,44.0
8325,42.0,0,1920,4.0,81.0
8326,54.0,0,1920,4.0,81.0
8327,63.0,120,124,4.0,72.0
8328,71.0,116,120,4.0,76.0
8329,75.0,120,120,4.0,103.0
8330,63.0,0,1437,2.0,51.0
8331,75.0,120,1437,1.0,56.0
8332,87.0,0,1437,0.0,48.0
8333,71.0,120,121,4.0,68.0
8334,76.0,0,120,4.0,100.0
8335,71.0,120,120,4.0,67.0
8336,75.0,120,120,4.0,94.0
8337,56.0,0,957,5.0,32.0
8338,56.0,124,957,6.0,48.0
8339,56.0,0,957,4.0,97.0
8340,56.0,0,957,8.0,56.0
8341,44.0,0,957,10.0,56.0
8342,71.0,120,120,4.0,70.0
8343,56.0,0,957,7.0,43.0
8344,68.0,120,120,4.0,70.0
8345,71.0,120,120,4.0,94.0
8346,76.0,0,960,1.0,67.0
8347,88.0,0,960,0.0,61.0
8348,64.0,121,960,2.0,74.0
8349,68.0,120,120,4.0,76.0
8350,74.0,0,120,4.0,103.0
8351,68.0,120,123,4.0,59.0
8352,70.0,123,120,4.0,90.0
8353,58.0,0,859,5.0,54.0
8354,58.0,0,859,7.0,51.0
8355,58.0,0,859,8.0,53.0
8356,58.0,120,859,6.0,54.0
8357,46.0,0,859,10.0,53.0
8358,58.0,0,963,4.0,93.0
8359,68.0,120,120,4.0,69.0
8360,68.0,120,120,4.0,78.0
8361,74.0,120,120,4.0,112.0
8362,68.0,120,120,4.0,67.0
8363,62.0,120,963,2.0,47.0
8364,74.0,0,963,1.0,53.0
8365,86.0,0,963,0.0,48.0
8366,75.0,120,120,4.0,110.0
8367,66.0,120,120,4.0,62.0
8368,71.0,120,120,4.0,100.0
8369,59.0,0,960,5.0,61.0
8370,66.0,120,120,4.0,62.0
8371,47.0,0,960,10.0,47.0
8372,59.0,0,960,7.0,53.0
8373,59.0,0,960,8.0,47.0
8374,59.0,120,960,4.0,86.0
8375,59.0,0,960,6.0,56.0
8376,66.0,120,120,4.0,81.0
8377,72.0,120,120,4.0,100.0
8378,87.0,0,960,0.0,64.0
8379,75.0,0,960,1.0,65.0
8380,66.0,120,120,4.0,64.0
8381,63.0,0,960,2.0,70.0
8382,75.0,0,120,4.0,113.0
8383,66.0,120,120,4.0,52.0
8384,72.0,120,120,4.0,107.0
8385,57.0,120,856,5.0,49.0
8386,45.0,0,856,10.0,47.0
8387,57.0,0,856,8.0,47.0
8388,57.0,0,856,6.0,50.0
8389,57.0,0,856,7.0,49.0
8390,57.0,0,960,4.0,77.0
8391,66.0,120,120,4.0,57.0
8392,65.0,120,120,4.0,66.0
8393,72.0,120,120,4.0,109.0
8394,60.0,0,960,2.0,52.0
8395,84.0,120,960,0.0,49.0
8396,72.0,0,960,1.0,46.0
8397,65.0,120,120,4.0,60.0
8398,73.0,0,120,4.0,107.0
8399,65.0,120,120,4.0,52.0
8400,72.0,120,120,4.0,100.0
8401,46.0,0,960,10.0,52.0
8402,58.0,0,960,4.0,82.0
8403,65.0,120,120,4.0,64.0
8404,58.0,0,960,7.0,56.0
8405,58.0,120,960,5.0,56.0
8406,58.0,0,960,6.0,53.0
8407,58.0,0,960,8.0,52.0
8408,66.0,120,120,4.0,72.0
8409,70.0,120,120,4.0,101.0
8410,85.0,0,960,0.0,72.0
8411,61.0,0,960,2.0,68.0
8412,73.0,120,960,1.0,66.0
8413,66.0,120,120,4.0,68.0
8414,73.0,0,120,4.0,116.0
8415,66.0,120,120,4.0,57.0
8416,70.0,120,120,4.0,88.0
8417,66.0,0,960,7.0,75.0
8418,66.0,0,960,6.0,68.0
8419,66.0,120,120,4.0,70.0
8420,54.0,120,960,4.0,79.0
8421,42.0,0,960,10.0,43.0
8422,54.0,0,960,8.0,43.0
8423,66.0,0,960,5.0,69.0
8424,66.0,120,120,4.0,79.0
8425,70.0,120,120,4.0,98.0
8426,58.0,120,960,2.0,58.0
8427,82.0,0,960,0.0,52.0
8428,66.0,120,120,4.0,68.0
8429,70.0,0,960,1.0,50.0
8430,71.0,0,120,4.0,105.0
8431,66.0,120,120,4.0,70.0
8432,70.0,120,120,4.0,93.0
8433,66.0,120,120,4.0,67.0
8434,63.0,120,960,7.0,47.0
8435,51.0,0,960,8.0,42.0
8436,39.0,0,960,10.0,42.0
8437,63.0,0,960,5.0,43.0
8438,51.0,0,960,4.0,79.0
8439,63.0,0,960,6.0,47.0
8440,63.0,120,120,4.0,74.0
8441,66.0,120,120,4.0,97.0
8442,83.0,0,960,0.0,70.0
8443,63.0,120,120,4.0,68.0
8444,71.0,120,960,1.0,68.0
8445,59.0,0,960,2.0,59.0
8446,69.0,0,120,4.0,105.0
8447,63.0,120,120,4.0,67.0
8448,65.0,120,120,4.0,87.0
8449,53.0,0,856,4.0,87.0
8450,65.0,0,856,6.0,55.0
8451,65.0,0,856,5.0,59.0
8452,65.0,120,856,7.0,66.0
8453,41.0,0,856,10.0,46.0
8454,53.0,0,856,8.0,46.0
8455,81.0,0,381,0.0,49.0
8456,57.0,120,381,2.0,57.0
8457,69.0,0,480,1.0,57.0
8458,63.0,120,120,4.0,73.0
8459,66.0,0,117,6.0,55.0
8460,66.0,0,117,5.0,54.0
8461,61.0,0,158,4.0,67.0
8462,58.0,158,160,4.0,68.0
8463,82.0,0,480,0.0,66.0
8464,61.0,0,240,6.0,41.0
8465,42.0,0,480,10.0,54.0
8466,70.0,82,240,5.0,65.0
8467,66.0,120,480,7.0,57.0
8468,54.0,0,480,8.0,54.0
8469,61.0,78,162,4.0,96.0
8470,58.0,0,480,2.0,66.0
8471,54.0,0,480,4.0,115.0
8472,70.0,0,480,1.0,60.0
8473,66.0,0,158,4.0,103.0
8474,69.0,0,240,5.0,47.0
8475,60.0,162,240,6.0,44.0
8476,70.0,158,160,4.0,108.0
8477,61.0,82,190,6.0,60.0
8478,70.0,0,190,5.0,48.0
8479,73.0,78,162,4.0,103.0
8480,77.0,0,158,4.0,110.0
8481,82.0,158,162,4.0,107.0
8482,61.0,83,119,5.0,46.0
8483,58.0,0,119,6.0,50.0
8484,49.0,0,481,8.0,45.0
8485,37.0,0,481,10.0,45.0
8486,65.0,0,481,7.0,40.0
8487,85.0,79,161,4.0,96.0
8488,49.0,162,481,4.0,97.0
8489,61.0,0,119,5.0,57.0
8490,58.0,161,119,6.0,48.0
8491,82.0,0,157,4.0,75.0
8492,77.0,157,160,4.0,53.0
8493,61.0,0,117,5.0,48.0
8494,58.0,82,117,6.0,50.0
8495,73.0,78,162,4.0,56.0
8496,78.0,0,158,4.0,103.0
8497,77.0,158,163,4.0,78.0
8498,60.0,0,119,5.0,45.0
8499,58.0,84,119,6.0,41.0
8500,66.0,0,482,7.0,45.0
8501,75.0,79,161,4.0,67.0
8502,39.0,162,482,10.0,36.0
8503,51.0,0,482,8.0,36.0
8504,51.0,0,482,4.0,102.0
8505,60.0,0,119,5.0,45.0
8506,58.0,161,119,6.0,51.0
8507,73.0,0,160,4.0,77.0
8508,72.0,160,159,4.0,73.0
8509,60.0,80,119,5.0,49.0
8510,58.0,0,119,6.0,49.0
8511,70.0,79,159,4.0,68.0
8512,69.0,0,158,4.0,70.0
8513,66.0,158,154,4.0,69.0
8514,60.0,0,119,5.0,39.0
8515,57.0,75,119,6.0,53.0
8516,41.0,0,464,10.0,46.0
8517,53.0,159,464,8.0,46.0
8518,65.0,79,152,4.0,74.0
8519,53.0,0,464,4.0,105.0
8520,65.0,0,464,7.0,44.0
8521,57.0,0,118,6.0,46.0
8522,60.0,0,118,5.0,46.0
8523,63.0,152,156,4.0,68.0
8524,61.0,156,160,4.0,68.0
8525,57.0,0,118,6.0,54.0
8526,60.0,80,118,5.0,51.0
8527,60.0,80,180,4.0,67.0
8528,58.0,0,239,6.0,39.0
8529,62.0,173,239,5.0,48.0
8530,62.0,232,240,6.0,52.0
8531,65.0,0,240,5.0,56.0
8532,58.0,7,472,4.0,73.0
8533,46.0,0,472,4.0,74.0
8534,62.0,240,244,5.0,33.0
8535,58.0,0,244,6.0,43.0
8536,65.0,0,240,5.0,50.0
8537,62.0,244,240,6.0,51.0
8538,62.0,240,244,5.0,35.0
8539,58.0,0,244,6.0,40.0
8540,65.0,244,240,5.0,47.0
8541,62.0,0,240,6.0,54.0
8542,74.0,0,120,1.0,69.0
8543,77.0,0,120,1.0,69.0
8544,62.0,0,240,5.0,34.0
8545,79.0,0,120,1.0,83.0
8546,75.0,120,120,1.0,83.0
8547,58.0,240,240,6.0,39.0
8548,77.0,0,120,1.0,64.0
8549,74.0,0,120,1.0,64.0
8550,65.0,120,240,5.0,55.0
8551,72.0,0,120,1.0,57.0
8552,75.0,120,120,1.0,57.0
8553,62.0,0,240,6.0,47.0
8554,62.0,120,240,5.0,44.0
8555,58.0,0,240,6.0,38.0
8556,70.0,0,240,1.0,66.0
8557,74.0,0,240,1.0,66.0
8558,62.0,240,240,6.0,49.0
8559,65.0,0,240,5.0,50.0
8560,77.0,0,120,1.0,64.0
8561,74.0,0,120,1.0,64.0
8562,58.0,0,240,6.0,44.0
8563,62.0,240,240,5.0,34.0
8564,79.0,0,120,1.0,79.0
8565,75.0,120,120,1.0,79.0
8566,77.0,0,120,1.0,62.0
8567,74.0,0,120,1.0,62.0
8568,75.0,120,120,1.0,59.0
8569,62.0,0,240,6.0,47.0
8570,72.0,0,120,1.0,59.0
8571,65.0,120,240,5.0,44.0
8572,74.0,0,240,1.0,68.0
8573,62.0,120,240,5.0,34.0
8574,70.0,0,240,1.0,68.0
8575,58.0,0,240,6.0,39.0
8576,65.0,240,240,5.0,49.0
8577,62.0,0,240,6.0,48.0
8578,58.0,0,240,6.0,30.0
8579,62.0,0,240,5.0,36.0
8580,62.0,0,190,6.0,43.0
8581,65.0,240,190,5.0,48.0
8582,74.0,240,480,1.0,58.0
8583,53.0,0,3847,7.0,36.0
8584,77.0,0,480,1.0,58.0
8585,50.0,0,3847,7.0,36.0
8586,60.0,0,240,5.0,33.0
8587,57.0,0,240,6.0,39.0
8588,72.0,240,240,1.0,46.0
8589,69.0,0,240,1.0,46.0
8590,60.0,0,240,6.0,40.0
8591,63.0,240,240,5.0,44.0
8592,72.0,0,240,1.0,65.0
8593,69.0,240,240,1.0,65.0
8594,57.0,0,240,6.0,31.0
8595,60.0,0,240,5.0,33.0
8596,60.0,0,240,6.0,44.0
8597,63.0,240,240,5.0,53.0
8598,72.0,0,240,1.0,63.0
8599,69.0,0,240,1.0,63.0
8600,57.0,240,240,6.0,43.0
8601,60.0,0,240,5.0,35.0
8602,63.0,0,240,5.0,48.0
8603,60.0,240,240,6.0,45.0
8604,57.0,0,240,6.0,34.0
8605,60.0,0,240,5.0,30.0
8606,84.0,240,240,0.0,54.0
8607,60.0,0,240,2.0,50.0
8608,60.0,0,190,6.0,43.0
8609,58.0,0,240,2.0,51.0
8610,63.0,0,240,5.0,42.0
8611,82.0,0,0,0.0,48.0
8612,60.0,0,240,5.0,37.0
8613,58.0,240,240,2.0,64.0
8614,57.0,0,240,6.0,38.0
8615,81.0,240,240,0.0,54.0
8616,63.0,0,240,5.0,44.0
8617,57.0,0,240,2.0,53.0
8618,60.0,0,240,6.0,47.0
8619,57.0,0,240,6.0,46.0
8620,55.0,0,240,2.0,61.0
8621,79.0,240,240,0.0,58.0
8622,60.0,0,240,5.0,35.0
8623,63.0,0,240,5.0,47.0
8624,60.0,0,240,6.0,48.0
8625,53.0,240,240,2.0,56.0
8626,77.0,0,240,0.0,55.0
8627,76.0,0,240,0.0,51.0
8628,60.0,240,240,5.0,35.0
8629,52.0,0,240,2.0,58.0
8630,57.0,0,240,6.0,45.0
8631,77.0,0,245,0.0,60.0
8632,53.0,0,245,2.0,65.0
8633,63.0,0,245,5.0,47.0
8634,60.0,240,245,6.0,49.0
8635,55.0,0,245,2.0,63.0
8636,60.0,0,245,5.0,40.0
8637,57.0,0,245,6.0,43.0
8638,79.0,245,245,0.0,71.0
8639,60.0,0,230,6.0,51.0
8640,63.0,0,230,5.0,45.0
8641,81.0,0,230,0.0,68.0
8642,65.0,0,7687,3.0,39.0
8643,53.0,0,3840,7.0,44.0
8644,51.0,0,3840,7.0,44.0
8645,53.0,0,7687,3.0,39.0
8646,57.0,245,230,2.0,56.0
8647,58.0,0,240,6.0,54.0
8648,62.0,0,240,4.0,54.0
8649,82.0,242,240,0.0,74.0
8650,62.0,0,240,5.0,38.0
8651,58.0,0,240,2.0,65.0
8652,84.0,0,60,0.0,69.0
8653,60.0,0,60,2.0,68.0
8654,58.0,60,60,2.0,56.0
8655,82.0,0,60,0.0,54.0
8656,65.0,0,240,4.0,70.0
8657,57.0,60,120,2.0,55.0
8658,81.0,0,120,0.0,54.0
8659,74.0,0,240,5.0,60.0
8660,65.0,240,240,6.0,51.0
8661,63.0,0,233,6.0,37.0
8662,70.0,0,233,5.0,43.0
8663,82.0,0,233,0.0,74.0
8664,58.0,120,233,2.0,63.0
8665,62.0,0,233,4.0,53.0
8666,62.0,0,117,2.0,77.0
8667,86.0,0,117,0.0,70.0
8668,74.0,0,240,5.0,49.0
8669,65.0,233,240,6.0,52.0
8670,65.0,0,240,4.0,71.0
8671,63.0,0,240,6.0,34.0
8672,70.0,0,240,5.0,37.0
8673,62.0,0,240,4.0,52.0
8674,65.0,0,235,6.0,39.0
8675,65.0,240,475,2.0,79.0
8676,89.0,0,475,0.0,69.0
8677,74.0,0,235,5.0,48.0
8678,65.0,240,235,4.0,68.0
8679,77.0,0,120,4.0,71.0
8680,70.0,0,240,5.0,33.0
8681,79.0,120,120,4.0,90.0
8682,62.0,0,240,4.0,49.0
8683,63.0,235,240,6.0,34.0
8684,77.0,0,120,4.0,76.0
8685,46.0,0,9607,2.0,48.0
8686,58.0,0,1908,4.0,54.0
8687,65.0,0,240,4.0,64.0
8688,75.0,120,120,4.0,64.0
8689,74.0,120,0,4.0,70.0
8690,74.0,0,240,5.0,53.0
8691,65.0,120,240,6.0,44.0
8692,62.0,0,240,4.0,56.0
8693,70.0,0,240,4.0,100.0
8694,63.0,0,240,6.0,35.0
8695,70.0,0,240,5.0,32.0
8696,65.0,240,240,4.0,70.0
8697,65.0,0,240,6.0,50.0
8698,74.0,0,240,5.0,52.0
8699,77.0,240,120,4.0,84.0
8700,62.0,0,240,4.0,58.0
8701,70.0,0,240,5.0,32.0
8702,79.0,120,120,4.0,91.0
8703,63.0,0,240,6.0,38.0
8704,77.0,0,120,4.0,80.0
8705,74.0,0,240,5.0,50.0
8706,75.0,120,120,4.0,75.0
8707,65.0,120,240,4.0,62.0
8708,74.0,0,0,4.0,76.0
8709,65.0,0,240,6.0,43.0
8710,62.0,0,240,4.0,57.0
8711,70.0,0,240,4.0,92.0
8712,70.0,120,240,5.0,34.0
8713,63.0,0,240,6.0,40.0
8714,74.0,0,240,5.0,52.0
8715,65.0,240,240,6.0,42.0
8716,65.0,0,240,4.0,72.0
8717,70.0,240,240,5.0,32.0
8718,62.0,0,240,4.0,53.0
8719,63.0,0,240,6.0,38.0
8720,53.0,0,3828,7.0,50.0
8721,50.0,0,3828,7.0,50.0
8722,65.0,0,240,4.0,70.0
8723,74.0,0,480,4.0,117.0
8724,65.0,240,240,6.0,43.0
8725,58.0,0,1920,4.0,56.0
8726,74.0,0,240,5.0,50.0
8727,77.0,0,480,4.0,70.0
8728,72.0,0,240,4.0,63.0
8729,69.0,0,240,4.0,63.0
8730,63.0,0,240,4.0,52.0
8731,60.0,240,240,6.0,36.0
8732,69.0,0,240,5.0,41.0
8733,72.0,0,240,5.0,54.0
8734,65.0,0,240,4.0,63.0
8735,63.0,240,240,6.0,42.0
8736,63.0,0,240,4.0,53.0
8737,72.0,0,240,4.0,66.0
8738,60.0,0,240,6.0,26.0
8739,69.0,240,240,4.0,66.0
8740,69.0,0,240,5.0,28.0
8741,72.0,240,240,5.0,53.0
8742,65.0,0,240,4.0,71.0
8743,63.0,0,240,6.0,42.0
8744,69.0,240,240,4.0,68.0
8745,69.0,0,240,5.0,37.0
8746,63.0,0,240,4.0,52.0
8747,60.0,0,240,6.0,34.0
8748,72.0,0,240,4.0,68.0
8749,72.0,0,240,5.0,48.0
8750,63.0,0,240,6.0,52.0
8751,65.0,240,240,4.0,65.0
8752,87.0,240,240,4.0,73.0
8753,63.0,0,240,4.0,59.0
8754,60.0,0,240,6.0,40.0
8755,69.0,0,240,5.0,40.0
8756,72.0,0,190,5.0,46.0
8757,63.0,0,240,6.0,49.0
8758,65.0,240,240,4.0,74.0
8759,84.0,0,240,4.0,80.0
8760,58.0,0,1920,4.0,94.0
8761,60.0,240,240,6.0,34.0
8762,69.0,0,240,5.0,38.0
8763,63.0,0,240,4.0,57.0
8764,82.0,0,240,4.0,71.0
8765,65.0,0,240,4.0,63.0
8766,72.0,240,240,5.0,51.0
8767,63.0,0,240,6.0,57.0
8768,81.0,0,240,4.0,70.0
8769,63.0,0,240,4.0,51.0
8770,79.0,0,240,4.0,79.0
8771,60.0,0,240,6.0,37.0
8772,69.0,240,240,5.0,33.0
8773,72.0,0,240,5.0,51.0
8774,77.0,0,240,4.0,68.0
8775,63.0,0,240,6.0,60.0
8776,65.0,240,240,4.0,66.0
8777,69.0,240,240,5.0,41.0
8778,60.0,0,240,4.0,46.0
8779,76.0,0,240,4.0,74.0
8780,60.0,0,240,6.0,31.0
8781,72.0,240,245,5.0,51.0
8782,77.0,0,245,4.0,83.0
8783,65.0,0,245,4.0,72.0
8784,63.0,0,245,6.0,48.0
8785,69.0,0,247,5.0,30.0
8786,63.0,245,247,4.0,60.0
8787,79.0,0,247,4.0,96.0
8788,60.0,0,247,6.0,28.0
8789,58.0,0,1920,4.0,57.0
8790,65.0,0,228,4.0,60.0
8791,81.0,0,228,4.0,96.0
8792,72.0,0,228,5.0,53.0
8793,63.0,247,228,6.0,45.0
8794,53.0,0,3840,7.0,44.0
8795,51.0,0,3840,7.0,44.0
8796,82.0,0,240,4.0,95.0
8797,84.0,240,60,4.0,101.0
8798,82.0,60,60,4.0,75.0
8799,62.0,0,382,6.0,44.0
8800,70.0,240,382,5.0,36.0
8801,65.0,0,10092,1.0,59.0
8802,77.0,0,10092,1.0,59.0
8803,34.0,0,15859,10.0,40.0
8804,46.0,0,6252,2.0,36.0
8805,46.0,0,15859,8.0,40.0
8806,70.0,0,8160,3.0,53.0
8807,81.0,60,120,4.0,73.0
8808,62.0,0,480,4.0,51.0
8809,58.0,0,480,4.0,51.0
8810,58.0,0,8160,3.0,53.0
8811,50.0,0,480,7.0,42.0
8812,53.0,0,480,7.0,42.0
8813,82.0,120,118,4.0,89.0
8814,86.0,233,117,4.0,103.0
8815,76.0,0,158,4.0,48.0
8816,77.0,158,160,4.0,70.0
8817,78.0,160,162,4.0,78.0
8818,79.0,162,158,4.0,78.0
8819,80.0,158,160,4.0,85.0
8820,81.0,160,162,4.0,75.0
8821,75.0,235,960,4.0,57.0
8822,72.0,0,960,4.0,57.0
8823,65.0,0,960,4.0,57.0
8824,82.0,162,240,4.0,99.0
8825,84.0,240,60,4.0,90.0
8826,82.0,60,60,4.0,73.0
8827,70.0,0,480,4.0,78.0
8828,74.0,0,480,4.0,78.0
8829,81.0,60,120,4.0,77.0
8830,82.0,120,242,4.0,84.0
8831,86.0,242,119,4.0,109.0
8832,89.0,0,159,4.0,88.0
8833,88.0,159,162,4.0,70.0
8834,87.0,162,152,4.0,61.0
8835,86.0,152,160,4.0,61.0
8836,87.0,160,156,4.0,76.0
8837,65.0,247,951,4.0,62.0
8838,69.0,0,951,4.0,62.0
8839,84.0,156,162,4.0,62.0
8840,75.0,0,951,4.0,62.0
8841,82.0,162,240,4.0,71.0
8842,84.0,240,60,4.0,95.0
8843,82.0,60,60,4.0,73.0
8844,81.0,60,120,4.0,72.0
8845,70.0,0,480,4.0,75.0
8846,74.0,0,480,4.0,75.0
8847,82.0,120,240,4.0,90.0
8848,86.0,240,117,4.0,103.0
8849,76.0,0,154,4.0,53.0
8850,77.0,154,160,4.0,68.0
8851,78.0,160,170,4.0,82.0
8852,79.0,170,158,4.0,83.0
8853,80.0,158,160,4.0,82.0
8854,81.0,160,162,4.0,80.0
8855,65.0,236,964,4.0,73.0
8856,72.0,0,964,4.0,73.0
8857,75.0,0,964,4.0,73.0
8858,82.0,0,239,4.0,97.0
8859,84.0,239,60,4.0,97.0
8860,82.0,60,60,4.0,73.0
8861,70.0,0,479,4.0,72.0
8862,74.0,163,479,4.0,72.0
8863,81.0,60,120,4.0,75.0
8864,82.0,120,241,4.0,90.0
8865,86.0,241,119,4.0,99.0
8866,89.0,248,159,4.0,81.0
8867,88.0,159,160,4.0,68.0
8868,87.0,160,153,4.0,59.0
8869,86.0,153,159,4.0,65.0
8870,87.0,159,158,4.0,80.0
8871,65.0,0,951,4.0,60.0
8872,84.0,158,162,4.0,64.0
8873,75.0,0,951,4.0,60.0
8874,69.0,0,951,4.0,60.0
8875,82.0,0,158,4.0,67.0
8876,74.0,162,240,4.0,63.0
8877,70.0,0,240,4.0,63.0
8878,86.0,158,160,4.0,83.0
8879,82.0,160,162,4.0,69.0
8880,89.0,162,158,4.0,94.0
8881,65.0,0,240,4.0,68.0
8882,72.0,0,240,4.0,68.0
8883,87.0,158,160,4.0,69.0
8884,84.0,160,162,4.0,59.0
8885,82.0,162,158,4.0,45.0
8886,74.0,0,240,4.0,54.0
8887,70.0,0,240,4.0,54.0
8888,86.0,158,160,4.0,71.0
8889,82.0,160,162,4.0,50.0
8890,89.0,162,154,4.0,78.0
8891,72.0,0,236,4.0,51.0
8892,65.0,0,236,4.0,51.0
8893,87.0,154,160,4.0,59.0
8894,84.0,160,166,4.0,49.0
8895,82.0,0,232,4.0,50.0
8896,74.0,166,472,4.0,38.0
8897,70.0,0,472,4.0,38.0
8898,86.0,472,244,4.0,40.0
8899,89.0,484,244,4.0,37.0
8900,77.0,964,960,4.0,53.0
8901,74.0,0,960,4.0,53.0
8902,74.0,0,960,4.0,53.0
8903,55.0,0,960,4.0,58.0
8904,62.0,0,960,4.0,58.0
8905,70.0,0,0,4.0,73.0
8906,79.0,960,960,4.0,73.0
8907,51.0,0,960,4.0,48.0
8908,60.0,0,960,4.0,48.0
8909,53.0,0,960,4.0,72.0
8910,69.0,960,960,4.0,44.0
8911,63.0,0,960,4.0,72.0
8912,72.0,0,960,4.0,44.0
8913,74.0,970,235,4.0,73.0
8914,62.0,0,475,4.0,50.0
8915,58.0,0,475,4.0,95.0
8916,70.0,0,475,4.0,97.0
8917,77.0,235,240,4.0,83.0
8918,75.0,0,235,4.0,70.0
8919,67.0,0,475,4.0,100.0
8920,60.0,0,475,4.0,50.0
8921,51.0,240,475,4.0,84.0
8922,72.0,235,240,4.0,52.0
8923,62.0,240,472,4.0,65.0
8924,70.0,0,472,4.0,57.0
8925,65.0,0,472,4.0,104.0
8926,69.0,0,488,4.0,126.0
8927,72.0,472,488,4.0,69.0
8928,53.0,0,960,4.0,101.0
8929,65.0,488,0,4.0,63.0
8930,74.0,0,232,4.0,83.0
8931,70.0,0,232,4.0,126.0
8932,75.0,232,60,4.0,79.0
8933,74.0,60,60,4.0,71.0
8934,72.0,60,120,4.0,62.0
8935,58.0,0,472,4.0,63.0
8936,74.0,120,248,4.0,80.0
8937,72.0,248,240,4.0,113.0
8938,75.0,0,240,4.0,79.0
8939,74.0,0,472,4.0,126.0
8940,77.0,240,472,4.0,78.0
8941,57.0,0,117,4.0,70.0
8942,58.0,117,120,4.0,87.0
8943,60.0,120,120,4.0,93.0
8944,62.0,120,120,4.0,96.0
8945,64.0,120,120,4.0,100.0
8946,65.0,120,120,4.0,94.0
8947,67.0,120,127,4.0,100.0
8948,50.0,0,964,4.0,86.0
8949,62.0,0,964,6.0,52.0
8950,57.0,0,964,7.0,49.0
8951,69.0,127,120,4.0,101.0
8952,65.0,0,964,5.0,46.0
8953,50.0,956,964,8.0,58.0
8954,74.0,0,0,1.0,58.0
8955,77.0,0,964,1.0,62.0
8956,38.0,0,964,10.0,58.0
8957,71.0,120,120,4.0,99.0
8958,72.0,120,120,4.0,89.0
8959,74.0,120,120,4.0,99.0
8960,75.0,120,120,4.0,94.0
8961,77.0,120,120,4.0,96.0
8962,79.0,120,122,4.0,105.0
8963,81.0,122,120,4.0,99.0
8964,43.0,0,960,10.0,65.0
8965,59.0,0,960,6.0,56.0
8966,62.0,0,960,5.0,52.0
8967,71.0,0,960,1.0,58.0
8968,43.0,0,960,4.0,84.0
8969,83.0,120,118,4.0,98.0
8970,55.0,0,960,8.0,65.0
8971,65.0,0,960,2.0,63.0
8972,89.0,0,960,0.0,65.0
8973,62.0,0,960,2.0,34.0
8974,84.0,0,120,4.0,92.0
8975,86.0,120,120,4.0,100.0
8976,84.0,120,120,4.0,80.0
8977,83.0,120,120,4.0,80.0
8978,84.0,120,120,4.0,96.0
8979,86.0,120,120,4.0,101.0
8980,84.0,120,120,4.0,82.0
8981,88.0,0,960,0.0,62.0
8982,64.0,0,960,2.0,58.0
8983,36.0,0,960,10.0,54.0
8984,48.0,0,960,4.0,99.0
8985,86.0,120,120,4.0,91.0
8986,70.0,0,960,1.0,90.0
8987,79.0,0,960,1.0,90.0
8988,48.0,0,960,8.0,54.0
8989,58.0,0,960,6.0,57.0
8990,67.0,0,960,5.0,77.0
8991,55.0,0,1921,7.0,54.0
8992,87.0,0,120,4.0,95.0
8993,86.0,120,119,4.0,77.0
8994,84.0,119,120,4.0,67.0
8995,82.0,120,113,4.0,69.0
8996,81.0,113,119,4.0,73.0
8997,79.0,119,116,4.0,64.0
8998,77.0,116,118,4.0,74.0
8999,69.0,0,841,1.0,44.0
9000,63.0,0,841,2.0,66.0
9001,72.0,0,841,1.0,44.0
9002,60.0,119,1801,2.0,37.0
9003,87.0,0,841,0.0,62.0
9004,60.0,120,959,5.0,39.0
9005,41.0,0,959,10.0,67.0
9006,41.0,0,959,4.0,87.0
9007,75.0,118,134,4.0,72.0
9008,57.0,0,959,6.0,59.0
9009,53.0,0,959,8.0,67.0
9010,53.0,0,0,7.0,58.0
9011,74.0,0,112,4.0,72.0
9012,58.0,0,232,6.0,63.0
9013,46.0,0,232,10.0,71.0
9014,70.0,0,239,1.0,75.0
9015,62.0,7,232,5.0,63.0
9016,58.0,0,239,2.0,66.0
9017,74.0,0,239,1.0,75.0
9018,58.0,0,232,8.0,71.0
9019,82.0,112,120,4.0,115.0
9020,86.0,127,239,0.0,70.0
9021,62.0,0,239,2.0,66.0
9022,77.0,120,120,4.0,73.0
9023,46.0,0,472,4.0,99.0
9024,74.0,120,120,4.0,71.0
9025,72.0,0,124,4.0,73.0
9026,51.0,0,244,2.0,62.0
9027,87.0,0,244,0.0,69.0
9028,72.0,0,244,1.0,68.0
9029,75.0,0,244,1.0,68.0
9030,60.0,0,244,6.0,51.0
9031,63.0,0,244,5.0,51.0
9032,55.0,120,244,7.0,51.0
9033,79.0,124,120,4.0,111.0
9034,60.0,0,244,2.0,62.0
9035,51.0,0,244,8.0,60.0
9036,39.0,0,244,10.0,60.0
9037,75.0,120,120,4.0,72.0
9038,72.0,120,120,4.0,63.0
9039,51.0,0,484,4.0,104.0
9040,70.0,0,120,4.0,73.0
9041,77.0,120,120,4.0,110.0
9042,53.0,0,240,7.0,53.0
9043,86.0,0,240,0.0,64.0
9044,70.0,0,240,1.0,77.0
9045,74.0,0,240,1.0,77.0
9046,50.0,0,240,2.0,68.0
9047,53.0,0,240,8.0,56.0
9048,58.0,120,240,6.0,49.0
9049,41.0,0,240,10.0,56.0
9050,62.0,0,240,5.0,49.0
9051,58.0,0,240,2.0,68.0
9052,74.0,120,120,4.0,74.0
9053,53.0,0,480,4.0,103.0
9054,70.0,120,120,4.0,58.0
9055,69.0,0,120,4.0,68.0
9056,41.0,0,240,8.0,50.0
9057,29.0,0,240,10.0,50.0
9058,72.0,0,240,1.0,73.0
9059,75.0,120,120,4.0,106.0
9060,84.0,0,240,0.0,56.0
9061,60.0,0,240,5.0,56.0
9062,51.0,0,240,7.0,51.0
9063,69.0,120,240,1.0,73.0
9064,57.0,0,240,6.0,52.0
9065,48.0,0,240,2.0,66.0
9066,57.0,0,240,2.0,66.0
9067,72.0,120,120,4.0,75.0
9068,69.0,120,124,4.0,68.0
9069,41.0,0,484,4.0,78.0
9070,46.0,0,483,8.0,59.0
9071,50.0,121,483,7.0,52.0
9072,58.0,0,483,5.0,54.0
9073,58.0,0,483,2.0,58.0
9074,34.0,0,483,10.0,59.0
9075,70.0,0,483,1.0,64.0
9076,46.0,0,483,2.0,58.0
9077,82.0,0,483,0.0,64.0
9078,58.0,0,483,6.0,56.0
9079,70.0,0,480,4.0,89.0
9080,46.0,3,480,4.0,117.0
9081,77.0,480,120,4.0,109.0
9082,74.0,120,120,4.0,75.0
9083,70.0,120,120,4.0,63.0
9084,65.0,120,120,4.0,53.0
9085,41.0,0,120,4.0,76.0
9086,75.0,0,120,4.0,121.0
9087,45.0,0,120,4.0,90.0
9088,72.0,120,120,4.0,78.0
9089,48.0,0,120,4.0,91.0
9090,69.0,120,120,4.0,63.0
9091,53.0,0,120,4.0,92.0
9092,65.0,120,120,4.0,61.0
9093,57.0,0,116,4.0,97.0
9094,63.0,120,116,4.0,65.0
9095,53.0,116,120,4.0,73.0
9096,65.0,0,120,4.0,95.0
9097,57.0,0,120,4.0,89.0
9098,63.0,120,120,4.0,73.0
9099,75.0,0,960,5.0,62.0
9100,57.0,0,960,7.0,50.0
9101,41.0,0,960,10.0,51.0
9102,65.0,0,0,7.0,62.0
9103,65.0,0,124,4.0,96.0
9104,53.0,120,124,4.0,71.0
9105,53.0,120,960,8.0,51.0
9106,72.0,0,960,6.0,55.0
9107,62.0,0,120,4.0,81.0
9108,65.0,120,120,4.0,98.0
9109,70.0,120,120,4.0,112.0
9110,70.0,124,381,6.0,54.0
9111,46.0,0,381,10.0,70.0
9112,74.0,0,381,5.0,52.0
9113,58.0,0,381,7.0,62.0
9114,58.0,0,381,8.0,70.0
9115,58.0,0,480,4.0,98.0
9116,74.0,120,120,4.0,107.0
9117,77.0,120,120,4.0,105.0
9118,74.0,120,120,4.0,73.0
9119,70.0,120,120,4.0,59.0
9120,65.0,120,120,4.0,62.0
9121,41.0,0,120,4.0,76.0
9122,75.0,120,120,4.0,115.0
9123,45.0,0,120,4.0,86.0
9124,72.0,120,120,4.0,72.0
9125,69.0,0,116,4.0,70.0
9126,48.0,120,116,4.0,86.0
9127,65.0,116,116,4.0,64.0
9128,53.0,0,116,4.0,92.0
9129,63.0,116,120,4.0,68.0
9130,57.0,0,120,4.0,98.0
9131,65.0,120,120,4.0,92.0
9132,53.0,0,120,4.0,78.0
9133,57.0,0,120,4.0,94.0
9134,63.0,120,120,4.0,74.0
9135,53.0,0,128,4.0,78.0
9136,65.0,120,128,4.0,95.0
9137,75.0,0,960,5.0,49.0
9138,72.0,0,960,6.0,53.0
9139,41.0,0,960,10.0,58.0
9140,53.0,0,960,8.0,58.0
9141,65.0,0,0,7.0,68.0
9142,57.0,0,960,7.0,61.0
9143,62.0,0,108,4.0,66.0
9144,65.0,108,120,4.0,102.0
9145,70.0,120,120,4.0,109.0
9146,70.0,0,370,6.0,50.0
9147,46.0,0,370,10.0,61.0
9148,74.0,128,370,5.0,50.0
9149,58.0,0,370,7.0,68.0
9150,58.0,0,370,8.0,61.0
9151,58.0,0,473,4.0,98.0
9152,74.0,120,125,4.0,108.0
9153,77.0,125,120,4.0,107.0
9154,74.0,120,127,4.0,74.0
9155,70.0,127,120,4.0,64.0
9156,65.0,120,120,4.0,58.0
9157,75.0,0,113,4.0,111.0
9158,41.0,0,113,4.0,81.0
9159,45.0,0,120,4.0,91.0
9160,72.0,113,120,4.0,73.0
9161,48.0,0,115,4.0,95.0
9162,69.0,120,115,4.0,66.0
9163,65.0,115,120,4.0,61.0
9164,53.0,0,120,4.0,93.0
9165,57.0,120,120,4.0,95.0
9166,63.0,0,120,4.0,69.0
9167,53.0,0,120,4.0,77.0
9168,65.0,120,120,4.0,87.0
9169,63.0,120,120,4.0,69.0
9170,57.0,0,120,4.0,96.0
9171,53.0,0,960,8.0,56.0
9172,72.0,0,960,6.0,56.0
9173,65.0,0,132,4.0,92.0
9174,41.0,120,960,10.0,56.0
9175,65.0,0,960,7.0,51.0
9176,57.0,0,960,7.0,51.0
9177,75.0,0,960,5.0,51.0
9178,53.0,120,132,4.0,81.0
9179,70.0,132,370,6.0,55.0
9180,46.0,0,370,10.0,69.0
9181,74.0,0,370,5.0,57.0
9182,58.0,0,370,8.0,69.0
9183,58.0,0,370,7.0,56.0
9184,65.0,0,370,7.0,56.0
9185,62.0,0,468,4.0,63.0
9186,58.0,0,468,4.0,97.0
9187,74.0,0,244,4.0,127.0
9188,77.0,468,244,4.0,127.0
9189,74.0,0,489,4.0,55.0
9190,65.0,241,0,4.0,72.0
9191,62.0,0,244,4.0,72.0
9192,46.0,0,485,4.0,73.0
9193,58.0,248,485,4.0,73.0
9194,74.0,244,0,4.0,57.0
9195,77.0,244,244,4.0,92.0
9196,65.0,239,0,4.0,65.0
9197,58.0,0,479,4.0,74.0
9198,46.0,237,479,4.0,74.0
9199,62.0,0,240,4.0,65.0
9200,77.0,0,241,4.0,85.0
9201,74.0,240,241,4.0,85.0
9202,74.0,0,239,4.0,82.0
9203,65.0,241,239,4.0,82.0
9204,77.0,0,240,4.0,69.0
9205,74.0,240,0,4.0,78.0
9206,58.0,0,480,4.0,71.0
9207,46.0,0,480,4.0,71.0
9208,65.0,0,240,4.0,78.0
9209,74.0,240,0,4.0,62.0
9210,77.0,0,240,4.0,80.0
9211,58.0,0,475,4.0,75.0
9212,46.0,0,475,4.0,75.0
9213,65.0,0,235,4.0,62.0
9214,51.0,0,476,4.0,49.0
9215,75.0,240,476,4.0,88.0
9216,79.0,0,476,4.0,88.0
9217,39.0,0,476,4.0,49.0
9218,72.0,0,719,4.0,59.0
9219,74.0,474,120,4.0,95.0
9220,69.0,0,959,4.0,113.0
9221,53.0,83,876,4.0,48.0
9222,51.0,956,959,4.0,48.0
9223,75.0,120,120,4.0,93.0
9224,60.0,82,714,4.0,48.0
9225,57.0,80,796,4.0,48.0
9226,77.0,0,117,4.0,96.0
9227,58.0,120,240,4.0,73.0
9228,50.0,0,240,4.0,73.0
9229,77.0,240,120,4.0,85.0
9230,74.0,120,121,4.0,69.0
9231,75.0,121,119,4.0,87.0
9232,60.0,0,240,4.0,70.0
9233,51.0,0,240,4.0,70.0
9234,75.0,240,119,4.0,77.0
9235,72.0,119,120,4.0,73.0
9236,74.0,0,117,4.0,94.0
9237,53.0,120,236,4.0,80.0
9238,62.0,0,236,4.0,80.0
9239,74.0,236,117,4.0,86.0
9240,70.0,117,116,4.0,67.0
9241,72.0,0,119,4.0,86.0
9242,53.0,0,235,4.0,72.0
9243,63.0,116,235,4.0,72.0
9244,72.0,235,118,4.0,79.0
9245,69.0,118,138,4.0,67.0
9246,62.0,0,469,4.0,75.0
9247,70.0,229,240,1.0,66.0
9248,58.0,0,240,2.0,67.0
9249,58.0,0,469,4.0,75.0
9250,70.0,138,469,4.0,80.0
9251,89.0,0,124,4.0,119.0
9252,86.0,124,123,4.0,72.0
9253,62.0,0,247,2.0,89.0
9254,74.0,240,247,1.0,90.0
9255,82.0,123,124,4.0,60.0
9256,58.0,0,244,2.0,75.0
9257,70.0,0,244,1.0,59.0
9258,77.0,124,120,4.0,59.0
9259,87.0,0,120,4.0,116.0
9260,53.0,0,120,4.0,71.0
9261,84.0,120,120,4.0,73.0
9262,57.0,0,120,4.0,93.0
9263,60.0,0,120,4.0,103.0
9264,81.0,0,120,4.0,68.0
9265,65.0,120,240,1.0,59.0
9266,77.0,0,120,4.0,62.0
9267,65.0,120,120,4.0,110.0
9268,53.0,0,240,2.0,38.0
9269,65.0,120,480,2.0,95.0
9270,77.0,0,480,1.0,87.0
9271,75.0,0,120,4.0,62.0
9272,69.0,0,120,4.0,106.0
9273,77.0,120,120,4.0,89.0
9274,65.0,0,120,4.0,68.0
9275,69.0,120,240,1.0,67.0
9276,57.0,0,240,2.0,51.0
9277,75.0,0,120,4.0,76.0
9278,69.0,0,120,4.0,92.0
9279,77.0,120,120,4.0,90.0
9280,65.0,0,120,4.0,67.0
9281,53.0,0,960,8.0,56.0
9282,65.0,0,0,7.0,57.0
9283,72.0,0,960,6.0,54.0
9284,65.0,0,240,1.0,51.0
9285,41.0,0,960,10.0,56.0
9286,75.0,0,960,5.0,49.0
9287,53.0,120,240,2.0,37.0
9288,74.0,0,120,4.0,70.0
9289,77.0,120,120,4.0,90.0
9290,70.0,0,0,1.0,64.0
9291,58.0,0,240,2.0,44.0
9292,82.0,120,120,4.0,110.0
9293,58.0,0,381,8.0,65.0
9294,58.0,0,381,7.0,57.0
9295,74.0,0,381,6.0,63.0
9296,46.0,0,381,10.0,65.0
9297,74.0,0,381,5.0,53.0
9298,86.0,0,120,4.0,111.0
9299,70.0,120,480,4.0,107.0
9300,58.0,0,240,2.0,64.0
9301,60.0,120,120,2.0,77.0
9302,72.0,0,120,1.0,77.0
9303,57.0,0,1440,7.0,49.0
9304,89.0,120,121,4.0,104.0
9305,74.0,0,242,1.0,84.0
9306,62.0,0,242,2.0,81.0
9307,86.0,121,121,4.0,69.0
9308,82.0,0,119,4.0,68.0
9309,70.0,0,238,1.0,53.0
9310,58.0,121,238,2.0,66.0
9311,77.0,119,119,4.0,63.0
9312,87.0,0,120,4.0,111.0
9313,53.0,0,120,4.0,77.0
9314,84.0,120,117,4.0,81.0
9315,57.0,0,117,4.0,90.0
9316,53.0,0,116,2.0,35.0
9317,65.0,0,116,1.0,52.0
9318,60.0,0,116,4.0,102.0
9319,81.0,117,116,4.0,72.0
9320,77.0,0,116,4.0,64.0
9321,65.0,116,116,4.0,110.0
9322,67.0,0,116,1.0,66.0
9323,55.0,0,116,2.0,48.0
9324,77.0,0,469,1.0,90.0
9325,65.0,0,469,2.0,95.0
9326,75.0,0,119,4.0,64.0
9327,69.0,116,119,4.0,106.0
9328,77.0,119,118,4.0,88.0
9329,69.0,0,237,1.0,70.0
9330,57.0,0,237,2.0,49.0
9331,65.0,0,118,4.0,73.0
9332,69.0,0,120,4.0,97.0
9333,75.0,0,120,4.0,78.0
9334,75.0,0,960,5.0,49.0
9335,53.0,118,254,2.0,37.0
9336,65.0,120,134,4.0,68.0
9337,53.0,0,960,8.0,56.0
9338,41.0,119,960,10.0,56.0
9339,72.0,0,960,6.0,52.0
9340,65.0,0,960,7.0,56.0
9341,57.0,0,960,7.0,56.0
9342,77.0,0,134,4.0,93.0
9343,65.0,0,254,1.0,42.0
9344,74.0,0,113,4.0,74.0
9345,70.0,0,233,1.0,73.0
9346,58.0,120,0,2.0,67.0
9347,77.0,113,120,4.0,95.0
9348,82.0,0,123,4.0,111.0
9349,74.0,134,378,5.0,61.0
9350,58.0,0,378,8.0,67.0
9351,70.0,0,378,6.0,49.0
9352,58.0,0,378,7.0,56.0
9353,65.0,0,378,7.0,56.0
9354,46.0,0,378,10.0,67.0
9355,72.0,0,121,1.0,79.0
9356,82.0,0,244,0.0,61.0
9357,84.0,123,121,0.0,84.0
9358,70.0,0,244,1.0,56.0
9359,60.0,0,121,2.0,75.0
9360,86.0,0,121,4.0,107.0
9361,70.0,0,477,4.0,107.0
9362,89.0,0,123,4.0,96.0
9363,86.0,123,120,4.0,72.0
9364,62.0,0,243,2.0,79.0
9365,86.0,121,243,0.0,83.0
9366,74.0,0,243,1.0,78.0
9367,82.0,120,120,4.0,66.0
9368,70.0,0,240,1.0,52.0
9369,82.0,0,240,0.0,57.0
9370,77.0,120,120,4.0,57.0
9371,58.0,0,240,2.0,66.0
9372,87.0,0,117,4.0,118.0
9373,53.0,0,117,4.0,78.0
9374,57.0,117,116,4.0,86.0
9375,77.0,116,0,1.0,73.0
9376,84.0,0,116,4.0,80.0
9377,89.0,0,233,0.0,97.0
9378,65.0,0,233,2.0,91.0
9379,41.0,0,120,2.0,38.0
9380,65.0,0,120,1.0,55.0
9381,60.0,0,120,4.0,99.0
9382,81.0,0,120,4.0,67.0
9383,53.0,0,120,2.0,58.0
9384,43.0,0,116,2.0,45.0
9385,55.0,0,116,2.0,73.0
9386,79.0,0,116,1.0,81.0
9387,67.0,120,116,1.0,60.0
9388,65.0,0,116,4.0,102.0
9389,77.0,0,116,4.0,61.0
9390,69.0,0,119,4.0,108.0
9391,75.0,0,119,4.0,64.0
9392,77.0,0,120,4.0,88.0
9393,65.0,119,120,4.0,71.0
9394,57.0,116,239,2.0,76.0
9395,45.0,0,239,2.0,48.0
9396,81.0,0,239,1.0,81.0
9397,69.0,0,239,1.0,64.0
9398,69.0,0,120,4.0,92.0
9399,75.0,120,120,4.0,69.0
9400,65.0,0,132,4.0,63.0
9401,77.0,120,132,4.0,87.0
9402,72.0,0,960,6.0,55.0
9403,53.0,0,960,8.0,54.0
9404,77.0,0,252,1.0,65.0
9405,65.0,0,252,1.0,42.0
9406,41.0,0,960,10.0,54.0
9407,53.0,0,252,2.0,70.0
9408,41.0,0,252,2.0,32.0
9409,75.0,0,960,5.0,53.0
9410,57.0,0,960,7.0,54.0
9411,65.0,0,0,7.0,65.0
9412,74.0,0,376,5.0,55.0
9413,46.0,0,376,10.0,61.0
9414,58.0,0,376,7.0,65.0
9415,70.0,0,376,6.0,53.0
9416,58.0,0,376,8.0,61.0
9417,70.0,0,473,1.0,90.0
9418,58.0,0,473,2.0,82.0
9419,82.0,132,473,1.0,90.0
9420,74.0,0,473,4.0,69.0
9421,70.0,0,473,4.0,103.0
9422,46.0,0,473,2.0,82.0
9423,86.0,0,243,4.0,127.0
9424,89.0,473,243,4.0,127.0
9425,58.0,0,240,11.0,56.0
9426,62.0,0,240,11.0,55.0
9427,65.0,0,240,11.0,54.0
9428,46.0,0,240,11.0,53.0
9429,86.0,0,484,4.0,84.0
9430,77.0,243,484,4.0,84.0
9431,77.0,0,117,4.0,59.0
9432,74.0,240,117,4.0,59.0
9433,58.0,0,481,4.0,75.0
9434,70.0,0,481,4.0,75.0
9435,89.0,0,241,4.0,127.0
9436,86.0,241,241,4.0,127.0
9437,58.0,0,960,7.0,55.0
9438,46.0,0,960,10.0,48.0
9439,65.0,0,960,5.0,46.0
9440,58.0,244,960,8.0,48.0
9441,62.0,0,960,6.0,59.0
9442,46.0,0,240,11.0,54.0
9443,65.0,240,240,11.0,50.0
9444,58.0,0,240,11.0,52.0
9445,77.0,240,0,4.0,55.0
9446,86.0,0,480,4.0,79.0
9447,62.0,0,240,11.0,56.0
9448,74.0,0,239,4.0,55.0
9449,58.0,0,479,4.0,81.0
9450,70.0,0,479,4.0,81.0
9451,89.0,0,241,4.0,127.0
9452,86.0,239,241,4.0,127.0
9453,46.0,240,0,10.0,66.0
9454,62.0,0,960,6.0,57.0
9455,58.0,0,0,7.0,63.0
9456,77.0,241,240,4.0,77.0
9457,86.0,0,0,4.0,122.0
9458,65.0,0,960,5.0,57.0
9459,58.0,0,0,8.0,66.0
9460,62.0,0,240,6.0,65.0
9461,89.0,0,240,4.0,122.0
9462,65.0,0,240,5.0,64.0
9463,86.0,0,240,4.0,71.0
9464,77.0,240,240,4.0,71.0
9465,58.0,0,480,4.0,69.0
9466,70.0,0,480,4.0,69.0
9467,86.0,0,239,4.0,116.0
9468,89.0,0,239,4.0,116.0
9469,58.0,0,239,7.0,54.0
9470,56.0,240,239,8.0,54.0
9471,44.0,0,239,10.0,54.0
9472,62.0,0,239,6.0,50.0
9473,65.0,0,239,5.0,51.0
9474,86.0,0,239,4.0,75.0
9475,68.0,0,478,4.0,70.0
9476,56.0,0,478,4.0,70.0
9477,77.0,239,239,4.0,75.0
9478,74.0,0,119,1.0,66.0
9479,55.0,0,119,2.0,62.0
9480,43.0,0,119,2.0,62.0
9481,77.0,0,119,1.0,66.0
9482,83.0,0,119,0.0,58.0
9483,43.0,0,240,10.0,50.0
9484,62.0,0,240,6.0,52.0
9485,59.0,0,240,7.0,54.0
9486,65.0,241,240,5.0,50.0
9487,55.0,0,240,8.0,50.0
9488,43.0,0,119,2.0,68.0
9489,55.0,0,119,2.0,68.0
9490,74.0,0,119,1.0,70.0
9491,77.0,0,119,1.0,70.0
9492,83.0,240,119,0.0,66.0
9493,89.0,0,480,4.0,93.0
9494,55.0,0,480,4.0,62.0
9495,67.0,0,480,4.0,62.0
9496,86.0,0,480,4.0,93.0
9497,77.0,0,119,1.0,71.0
9498,43.0,0,119,2.0,74.0
9499,55.0,0,119,2.0,74.0
9500,74.0,240,119,1.0,71.0
9501,83.0,0,119,0.0,77.0
9502,43.0,0,119,2.0,75.0
9503,74.0,239,119,1.0,76.0
9504,55.0,0,119,2.0,75.0
9505,77.0,0,119,1.0,76.0
9506,83.0,0,119,0.0,63.0
9507,72.0,0,119,1.0,62.0
9508,76.0,0,119,1.0,62.0
9509,60.0,0,119,2.0,89.0
9510,48.0,240,119,2.0,89.0
9511,82.0,0,119,0.0,69.0
9512,48.0,0,239,10.0,51.0
9513,60.0,0,239,6.0,56.0
9514,55.0,0,239,7.0,53.0
9515,60.0,0,239,8.0,51.0
9516,64.0,0,239,5.0,57.0
9517,82.0,0,117,0.0,65.0
9518,72.0,0,117,1.0,74.0
9519,60.0,0,117,2.0,77.0
9520,48.0,239,117,2.0,77.0
9521,76.0,0,117,1.0,74.0
9522,60.0,0,479,4.0,71.0
9523,84.0,0,479,4.0,72.0
9524,88.0,0,479,4.0,72.0
9525,48.0,0,479,4.0,71.0
9526,60.0,0,117,2.0,74.0
9527,48.0,240,117,2.0,74.0
9528,82.0,0,117,0.0,70.0
9529,72.0,0,117,1.0,70.0
9530,76.0,0,117,1.0,70.0
9531,60.0,0,117,2.0,71.0
9532,82.0,0,117,0.0,61.0
9533,48.0,0,117,2.0,71.0
9534,72.0,240,117,1.0,70.0
9535,76.0,0,117,1.0,70.0
9536,54.0,0,117,2.0,61.0
9537,75.0,0,117,1.0,56.0
9538,72.0,0,117,1.0,56.0
9539,81.0,0,117,0.0,63.0
9540,42.0,0,117,2.0,61.0
9541,57.0,0,240,7.0,60.0
9542,63.0,0,240,5.0,54.0
9543,54.0,240,240,8.0,57.0
9544,60.0,0,240,6.0,49.0
9545,42.0,0,240,10.0,57.0
9546,72.0,0,117,1.0,66.0
9547,75.0,240,117,1.0,66.0
9548,81.0,0,117,0.0,69.0
9549,54.0,0,117,2.0,64.0
9550,42.0,0,117,2.0,64.0
9551,42.0,0,480,4.0,80.0
9552,87.0,0,480,4.0,75.0
9553,84.0,0,480,4.0,75.0
9554,54.0,0,480,4.0,80.0
9555,54.0,0,117,2.0,74.0
9556,42.0,240,117,2.0,74.0
9557,72.0,0,117,1.0,72.0
9558,75.0,0,117,1.0,72.0
9559,81.0,0,117,0.0,76.0
9560,81.0,0,117,0.0,72.0
9561,42.0,0,117,2.0,76.0
9562,72.0,0,117,1.0,71.0
9563,75.0,0,117,1.0,71.0
9564,54.0,240,117,2.0,76.0
9565,70.0,0,117,1.0,70.0
9566,74.0,0,117,1.0,70.0
9567,43.0,0,117,2.0,70.0
9568,55.0,0,117,2.0,70.0
9569,82.0,0,117,0.0,77.0
9570,58.0,0,240,6.0,46.0
9571,43.0,0,240,10.0,55.0
9572,55.0,0,240,8.0,55.0
9573,50.0,0,240,7.0,56.0
9574,62.0,0,240,5.0,53.0
9575,55.0,0,117,2.0,77.0
9576,43.0,0,117,2.0,77.0
9577,74.0,0,117,1.0,66.0
9578,70.0,0,117,1.0,66.0
9579,82.0,240,117,0.0,76.0
9580,43.0,0,480,4.0,74.0
9581,86.0,0,480,4.0,70.0
9582,82.0,240,480,4.0,70.0
9583,55.0,0,480,4.0,74.0
9584,70.0,0,117,1.0,74.0
9585,74.0,0,117,1.0,74.0
9586,82.0,0,117,0.0,64.0
9587,43.0,240,117,2.0,77.0
9588,55.0,0,117,2.0,77.0
9589,43.0,0,117,2.0,66.0
9590,55.0,0,117,2.0,66.0
9591,70.0,0,117,1.0,69.0
9592,74.0,0,117,1.0,69.0
9593,82.0,240,117,0.0,70.0
9594,81.0,0,960,4.0,72.0
9595,84.0,0,1080,4.0,72.0
9596,87.0,834,120,4.0,100.0
9597,84.0,120,120,4.0,79.0
9598,83.0,120,125,4.0,71.0
9599,84.0,125,124,4.0,84.0
9600,86.0,124,121,4.0,89.0
9601,87.0,121,128,4.0,96.0
9602,63.0,240,1920,4.0,81.0
9603,88.0,128,102,4.0,92.0
9604,65.0,81,1839,4.0,81.0
9605,72.0,82,1674,4.0,81.0
9606,69.0,83,1756,4.0,81.0
9607,89.0,108,123,4.0,99.0
9608,86.0,123,120,4.0,71.0
9609,89.0,120,120,4.0,99.0
9610,86.0,120,120,4.0,66.0
9611,82.0,0,117,4.0,62.0
9612,82.0,236,117,4.0,82.0
9613,70.0,120,473,4.0,73.0
9614,62.0,0,473,4.0,73.0
9615,82.0,237,118,4.0,83.0
9616,79.0,118,120,4.0,65.0
9617,82.0,120,116,4.0,93.0
9618,79.0,116,113,4.0,76.0
9619,75.0,0,119,4.0,65.0
9620,75.0,233,118,4.0,80.0
9621,70.0,0,491,4.0,64.0
9622,67.0,113,491,4.0,64.0
9623,77.0,258,112,4.0,92.0
9624,74.0,112,120,4.0,76.0
9625,77.0,120,121,4.0,98.0
9626,74.0,121,120,4.0,70.0
9627,70.0,120,119,4.0,58.0
9628,70.0,240,119,4.0,80.0
9629,53.0,0,480,4.0,82.0
9630,62.0,0,480,4.0,82.0
9631,58.0,0,480,4.0,82.0
9632,75.0,240,120,4.0,105.0
9633,72.0,120,120,4.0,72.0
9634,75.0,120,120,4.0,90.0
9635,72.0,120,120,4.0,65.0
9636,69.0,120,119,4.0,72.0
9637,69.0,236,119,4.0,77.0
9638,53.0,0,487,4.0,76.0
9639,63.0,0,487,4.0,76.0
9640,60.0,0,487,4.0,76.0
9641,70.0,4,116,4.0,82.0
9642,65.0,116,120,4.0,67.0
9643,67.0,120,120,4.0,88.0
9644,69.0,120,120,4.0,97.0
9645,70.0,120,121,4.0,94.0
9646,72.0,121,120,4.0,94.0
9647,74.0,120,120,4.0,100.0
9648,75.0,120,123,4.0,92.0
9649,77.0,123,120,4.0,99.0
9650,62.0,0,1200,4.0,75.0
9651,50.0,0,1200,4.0,75.0
9652,65.0,0,1204,6.0,54.0
9653,50.0,0,1204,7.0,53.0
9654,62.0,0,1204,7.0,53.0
9655,77.0,0,1204,5.0,52.0
9656,70.0,120,120,4.0,63.0
9657,76.0,0,120,4.0,101.0
9658,64.0,0,240,6.0,55.0
9659,61.0,120,240,4.0,72.0
9660,76.0,0,240,5.0,62.0
9661,70.0,120,120,4.0,60.0
9662,49.0,0,240,7.0,53.0
9663,61.0,0,240,7.0,53.0
9664,49.0,0,240,4.0,72.0
9665,77.0,0,120,4.0,107.0
9666,70.0,120,120,4.0,66.0
9667,62.0,0,240,4.0,87.0
9668,50.0,0,240,4.0,87.0
9669,77.0,0,240,5.0,68.0
9670,62.0,0,240,7.0,64.0
9671,50.0,0,240,7.0,64.0
9672,65.0,120,240,6.0,62.0
9673,76.0,0,120,4.0,99.0
9674,70.0,120,120,4.0,65.0
9675,61.0,120,240,4.0,77.0
9676,76.0,0,240,5.0,57.0
9677,49.0,0,240,4.0,77.0
9678,64.0,0,240,6.0,52.0
9679,61.0,0,240,7.0,59.0
9680,49.0,0,240,7.0,59.0
9681,77.0,0,120,4.0,109.0
9682,74.0,120,120,4.0,74.0
9683,70.0,120,120,4.0,64.0
9684,74.0,120,120,4.0,95.0
9685,77.0,120,120,4.0,105.0
9686,65.0,0,720,6.0,62.0
9687,77.0,0,720,5.0,70.0
9688,62.0,120,720,4.0,93.0
9689,62.0,0,720,7.0,68.0
9690,50.0,0,720,7.0,68.0
9691,70.0,120,120,4.0,62.0
9692,50.0,0,720,4.0,93.0
9693,76.0,0,120,4.0,108.0
9694,70.0,120,120,4.0,70.0
9695,64.0,120,240,6.0,60.0
9696,76.0,0,240,5.0,65.0
9697,61.0,0,240,7.0,53.0
9698,49.0,0,240,7.0,53.0
9699,49.0,0,240,4.0,72.0
9700,61.0,0,240,4.0,72.0
9701,77.0,0,120,4.0,109.0
9702,50.0,0,240,4.0,89.0
9703,70.0,120,120,4.0,64.0
9704,65.0,0,240,6.0,64.0
9705,62.0,0,240,4.0,89.0
9706,62.0,0,240,7.0,69.0
9707,50.0,0,240,7.0,69.0
9708,77.0,120,240,5.0,66.0
9709,76.0,0,120,4.0,105.0
9710,76.0,0,240,5.0,53.0
9711,61.0,120,240,4.0,78.0
9712,70.0,120,120,4.0,60.0
9713,64.0,0,240,6.0,57.0
9714,49.0,0,240,4.0,78.0
9715,49.0,0,240,7.0,60.0
9716,61.0,0,240,7.0,60.0
9717,77.0,0,117,4.0,108.0
9718,77.0,0,237,5.0,65.0
9719,70.0,117,120,4.0,57.0
9720,50.0,0,237,4.0,79.0
9721,50.0,0,237,7.0,65.0
9722,62.0,0,237,7.0,65.0
9723,62.0,0,237,4.0,79.0
9724,65.0,120,237,6.0,62.0
9725,76.0,0,119,4.0,101.0
9726,64.0,0,189,6.0,58.0
9727,76.0,120,189,5.0,48.0
9728,49.0,0,189,7.0,53.0
9729,61.0,0,189,7.0,53.0
9730,49.0,0,243,4.0,69.0
9731,61.0,0,243,4.0,69.0
9732,70.0,119,124,4.0,63.0
9733,77.0,0,109,4.0,108.0
9734,70.0,109,120,4.0,62.0
9735,77.0,120,120,4.0,107.0
9736,62.0,0,481,7.0,62.0
9737,65.0,0,481,6.0,65.0
9738,50.0,0,473,4.0,97.0
9739,77.0,0,481,5.0,66.0
9740,70.0,120,124,4.0,54.0
9741,62.0,8,473,4.0,97.0
9742,50.0,116,481,7.0,62.0
9743,78.0,0,120,4.0,114.0
9744,70.0,120,120,4.0,64.0
9745,78.0,120,127,4.0,117.0
9746,63.0,0,487,7.0,70.0
9747,51.0,0,487,7.0,70.0
9748,51.0,0,487,4.0,98.0
9749,63.0,0,487,4.0,98.0
9750,70.0,127,120,4.0,58.0
9751,66.0,124,487,6.0,69.0
9752,78.0,0,487,5.0,70.0
9753,79.0,0,120,4.0,118.0
9754,70.0,120,120,4.0,52.0
9755,79.0,120,120,4.0,120.0
9756,64.0,120,480,4.0,85.0
9757,52.0,0,480,7.0,64.0
9758,79.0,0,480,5.0,70.0
9759,52.0,0,480,4.0,85.0
9760,67.0,0,480,6.0,62.0
9761,70.0,120,120,4.0,55.0
9762,64.0,0,480,7.0,64.0
9763,80.0,0,120,4.0,121.0
9764,70.0,120,120,4.0,60.0
9765,80.0,120,113,4.0,115.0
9766,65.0,0,376,7.0,71.0
9767,53.0,0,376,7.0,71.0
9768,68.0,0,376,6.0,72.0
9769,80.0,120,376,5.0,71.0
9770,65.0,0,480,4.0,96.0
9771,53.0,0,480,4.0,96.0
9772,70.0,113,127,4.0,60.0
9773,81.0,4,113,4.0,115.0
9774,70.0,113,120,4.0,61.0
9775,81.0,120,120,4.0,115.0
9776,54.0,0,477,7.0,67.0
9777,69.0,123,477,6.0,69.0
9778,66.0,0,477,7.0,67.0
9779,70.0,120,120,4.0,62.0
9780,66.0,0,473,4.0,90.0
9781,54.0,0,473,4.0,90.0
9782,81.0,0,477,5.0,71.0
9783,82.0,0,120,4.0,118.0
9784,70.0,120,127,4.0,52.0
9785,82.0,127,120,4.0,121.0
9786,70.0,120,120,4.0,60.0
9787,67.0,120,487,4.0,92.0
9788,55.0,0,487,4.0,92.0
9789,70.0,0,487,6.0,69.0
9790,82.0,0,487,5.0,67.0
9791,67.0,0,487,7.0,68.0
9792,55.0,0,487,7.0,68.0
9793,81.0,120,120,4.0,111.0
9794,70.0,120,120,4.0,63.0
9795,81.0,120,120,4.0,119.0
9796,69.0,0,480,6.0,60.0
9797,54.0,0,480,4.0,69.0
9798,66.0,0,480,4.0,69.0
9799,70.0,120,120,4.0,57.0
9800,66.0,0,480,7.0,55.0
9801,54.0,0,480,7.0,55.0
9802,81.0,0,480,5.0,57.0
9803,80.0,0,113,4.0,110.0
9804,70.0,113,127,4.0,57.0
9805,80.0,127,109,4.0,110.0
9806,70.0,109,131,4.0,61.0
9807,53.0,0,480,4.0,70.0
9808,65.0,0,480,4.0,70.0
9809,65.0,0,480,7.0,59.0
9810,68.0,120,480,6.0,48.0
9811,80.0,0,480,5.0,57.0
9812,53.0,0,480,7.0,59.0
9813,78.0,0,109,4.0,108.0
9814,79.0,109,124,4.0,104.0
9815,82.0,124,120,4.0,101.0
9816,63.0,0,376,7.0,56.0
9817,51.0,0,376,7.0,56.0
9818,79.0,0,376,5.0,54.0
9819,67.0,0,376,6.0,54.0
9820,58.0,0,8157,2.0,60.0
9821,70.0,0,8157,1.0,70.0
9822,82.0,247,8157,0.0,56.0
9823,63.0,0,473,4.0,73.0
9824,79.0,120,120,4.0,72.0
9825,51.0,131,473,4.0,73.0
9826,74.0,120,120,4.0,56.0
9827,75.0,120,120,4.0,86.0
9828,79.0,120,120,4.0,103.0
9829,75.0,120,120,4.0,67.0
9830,69.0,120,120,4.0,60.0
9831,70.0,120,120,4.0,83.0
9832,75.0,120,120,4.0,106.0
9833,70.0,120,120,4.0,67.0
9834,66.0,120,120,4.0,61.0
9835,67.0,120,120,4.0,81.0
9836,70.0,120,116,4.0,90.0
9837,67.0,116,131,4.0,79.0
9838,62.0,131,113,4.0,61.0
9839,63.0,113,120,4.0,85.0
9840,67.0,120,120,4.0,101.0
9841,63.0,120,120,4.0,64.0
9842,57.0,120,120,4.0,76.0
9843,58.0,120,127,4.0,83.0
9844,63.0,127,120,4.0,99.0
9845,58.0,120,120,4.0,79.0
9846,54.0,120,120,4.0,76.0
9847,55.0,120,120,4.0,86.0
9848,58.0,120,120,4.0,83.0
9849,55.0,120,120,4.0,84.0
9850,50.0,120,120,4.0,80.0
9851,51.0,120,113,4.0,81.0
9852,55.0,113,120,4.0,92.0
9853,51.0,120,127,4.0,80.0
9854,52.0,154,160,4.0,71.0
9855,55.0,160,162,4.0,84.0
9856,40.0,3,476,4.0,104.0
9857,58.0,162,158,4.0,74.0
9858,61.0,158,160,4.0,94.0
9859,64.0,160,166,4.0,103.0
9860,67.0,166,158,4.0,99.0
9861,70.0,158,160,4.0,105.0
9862,73.0,160,167,4.0,106.0
9863,76.0,167,159,4.0,109.0
9864,79.0,159,164,4.0,95.0
9865,52.0,0,1923,8.0,58.0
9866,82.0,164,152,4.0,101.0
9867,67.0,124,1923,7.0,58.0
9868,40.0,0,1923,10.0,58.0
9869,73.0,0,1923,5.0,62.0
9870,70.0,0,1923,6.0,58.0
9871,85.0,0,163,4.0,104.0
9872,82.0,163,160,4.0,69.0
9873,79.0,160,161,4.0,67.0
9874,76.0,161,155,4.0,67.0
9875,73.0,155,160,4.0,63.0
9876,70.0,160,157,4.0,66.0
9877,67.0,157,157,4.0,70.0
9878,64.0,157,156,4.0,69.0
9879,61.0,156,158,4.0,59.0
9880,58.0,158,156,4.0,78.0
9881,55.0,156,157,4.0,74.0
9882,64.0,0,1797,5.0,47.0
9883,55.0,0,1797,8.0,60.0
9884,61.0,0,1797,6.0,45.0
9885,43.0,0,1797,10.0,60.0
9886,58.0,157,1797,7.0,46.0
9887,52.0,157,175,4.0,77.0
9888,82.0,0,116,0.0,56.0
9889,70.0,171,116,3.0,35.0
9890,82.0,0,116,1.0,71.0
9891,53.0,113,120,4.0,65.0
9892,70.0,0,237,1.0,74.0
9893,70.0,0,59,3.0,38.0
9894,82.0,0,59,0.0,65.0
9895,82.0,120,59,1.0,61.0
9896,70.0,0,120,1.0,63.0
9897,55.0,0,120,4.0,89.0
9898,82.0,0,59,0.0,76.0
9899,70.0,0,59,3.0,44.0
9900,82.0,120,59,1.0,74.0
9901,57.0,0,120,4.0,92.0
9902,41.0,4,473,4.0,124.0
9903,29.0,0,473,4.0,124.0
9904,70.0,0,0,1.0,66.0
9905,70.0,120,119,3.0,39.0
9906,82.0,0,119,1.0,74.0
9907,82.0,0,119,0.0,65.0
9908,58.0,0,120,4.0,84.0
9909,60.0,120,123,4.0,78.0
9910,70.0,0,0,1.0,59.0
9911,70.0,0,117,3.0,45.0
9912,82.0,0,117,0.0,66.0
9913,82.0,0,117,1.0,68.0
9914,62.0,123,120,4.0,89.0
9915,64.0,120,120,4.0,89.0
9916,65.0,120,124,4.0,96.0
9917,70.0,0,244,1.0,61.0
9918,70.0,0,244,3.0,33.0
9919,82.0,0,244,1.0,72.0
9920,64.0,124,120,4.0,71.0
9921,82.0,0,244,0.0,63.0
9922,65.0,0,120,4.0,86.0
9923,74.0,0,240,1.0,75.0
9924,86.0,120,240,0.0,87.0
9925,64.0,120,120,4.0,85.0
9926,65.0,0,120,4.0,87.0
9927,77.0,0,240,1.0,67.0
9928,65.0,0,240,1.0,42.0
9929,65.0,0,240,3.0,38.0
9930,64.0,120,120,4.0,76.0
9931,77.0,120,240,0.0,51.0
9932,65.0,0,120,4.0,88.0
9933,58.0,0,1924,7.0,61.0
9934,65.0,0,1924,5.0,61.0
9935,82.0,0,240,0.0,82.0
9936,64.0,120,120,4.0,81.0
9937,62.0,0,1924,6.0,66.0
9938,70.0,120,240,1.0,75.0
9939,74.0,0,117,3.0,41.0
9940,62.0,0,117,3.0,41.0
9941,62.0,0,117,2.0,62.0
9942,86.0,0,117,0.0,95.0
9943,74.0,0,117,1.0,53.0
9944,65.0,0,240,4.0,92.0
9945,86.0,0,57,0.0,75.0
9946,74.0,0,57,1.0,67.0
9947,74.0,0,57,3.0,36.0
9948,62.0,0,57,3.0,36.0
9949,62.0,0,57,2.0,76.0
9950,67.0,240,120,4.0,92.0
9951,86.0,120,57,0.0,72.0
9952,62.0,0,57,2.0,72.0
9953,74.0,0,57,3.0,44.0
9954,74.0,0,57,1.0,70.0
9955,62.0,0,57,3.0,44.0
9956,62.0,0,480,1.0,46.0
9957,69.0,0,120,4.0,97.0
9958,74.0,0,117,3.0,36.0
9959,86.0,0,117,0.0,70.0
9960,74.0,0,117,1.0,72.0
9961,62.0,0,117,2.0,71.0
9962,62.0,120,117,3.0,36.0
9963,70.0,0,120,4.0,92.0
9964,72.0,120,120,4.0,95.0
9965,86.0,0,117,0.0,67.0
9966,74.0,0,117,3.0,47.0
9967,62.0,0,117,3.0,47.0
9968,74.0,120,117,1.0,79.0
9969,62.0,0,117,2.0,69.0
9970,74.0,0,120,4.0,104.0
9971,76.0,120,120,4.0,101.0
9972,77.0,0,120,4.0,93.0
9973,74.0,0,240,1.0,71.0
9974,74.0,0,240,3.0,43.0
9975,86.0,120,240,0.0,72.0
9976,62.0,0,240,2.0,73.0
9977,76.0,120,120,4.0,74.0
9978,62.0,0,240,3.0,43.0
9979,77.0,0,120,4.0,96.0
9980,77.0,0,240,1.0,79.0
9981,65.0,0,240,2.0,77.0
9982,76.0,120,120,4.0,77.0
9983,89.0,120,240,0.0,79.0
9984,77.0,0,120,4.0,92.0
9985,70.0,0,240,3.0,44.0
9986,82.0,0,240,0.0,50.0
9987,58.0,0,240,2.0,64.0
9988,70.0,0,240,1.0,43.0
9989,76.0,120,120,4.0,73.0
9990,58.0,120,240,3.0,44.0
9991,77.0,0,120,4.0,89.0
9992,74.0,0,240,1.0,88.0
9993,65.0,0,1920,6.0,70.0
9994,70.0,0,1920,5.0,78.0
9995,62.0,120,1920,7.0,74.0
9996,86.0,0,240,0.0,75.0
9997,62.0,120,240,2.0,82.0
9998,76.0,120,120,4.0,76.0
9999,65.0,0,117,2.0,86.0
10000,89.0,0,117,0.0,84.0
10001,77.0,0,117,1.0,88.0
10002,65.0,0,117,1.0,88.0
10003,77.0,0,237,3.0,38.0
10004,77.0,0,240,4.0,85.0
10005,65.0,0,0,3.0,73.0
10006,53.0,0,0,2.0,44.0
10007,77.0,0,57,1.0,74.0
10008,65.0,0,57,1.0,74.0
10009,65.0,0,57,2.0,80.0
10010,89.0,0,57,0.0,71.0
10011,53.0,120,0,2.0,45.0
10012,79.0,240,120,4.0,88.0
10013,77.0,0,57,1.0,66.0
10014,89.0,0,57,0.0,70.0
10015,65.0,0,57,1.0,66.0
10016,65.0,0,57,2.0,71.0
10017,53.0,0,480,4.0,73.0
10018,62.0,0,480,4.0,73.0
10019,81.0,0,120,4.0,97.0
10020,65.0,120,0,3.0,76.0
10021,58.0,0,480,4.0,73.0
10022,89.0,0,117,0.0,71.0
10023,77.0,0,117,3.0,52.0
10024,77.0,0,117,1.0,67.0
10025,65.0,0,117,1.0,67.0
10026,65.0,0,117,2.0,76.0
10027,82.0,0,120,4.0,97.0
10028,53.0,0,0,2.0,45.0
10029,84.0,120,120,4.0,103.0
10030,65.0,0,117,2.0,67.0
10031,77.0,0,117,1.0,70.0
10032,89.0,0,117,0.0,69.0
10033,77.0,0,117,3.0,38.0
10034,65.0,120,117,1.0,70.0
10035,86.0,0,121,4.0,97.0
10036,53.0,120,0,2.0,43.0
10037,88.0,121,120,4.0,90.0
10038,65.0,0,0,3.0,78.0
10039,89.0,0,121,4.0,92.0
10040,77.0,0,241,3.0,46.0
10041,88.0,121,120,4.0,83.0
10042,65.0,0,241,2.0,61.0
10043,77.0,0,241,1.0,68.0
10044,89.0,0,241,0.0,68.0
10045,65.0,0,241,1.0,68.0
10046,89.0,120,120,4.0,81.0
10047,88.0,120,120,4.0,74.0
10048,82.0,0,240,1.0,91.0
10049,70.0,0,240,1.0,91.0
10050,58.0,0,240,2.0,43.0
10051,89.0,120,120,4.0,97.0
10052,86.0,0,240,0.0,67.0
10053,50.0,0,240,2.0,42.0
10054,62.0,0,240,2.0,59.0
10055,88.0,120,120,4.0,72.0
10056,62.0,0,240,1.0,46.0
10057,74.0,0,240,1.0,46.0
10058,62.0,0,240,3.0,70.0
10059,74.0,0,240,3.0,39.0
10060,89.0,120,120,4.0,90.0
10061,77.0,0,238,1.0,82.0
10062,65.0,0,238,3.0,84.0
10063,77.0,0,238,3.0,46.0
10064,65.0,0,238,1.0,82.0
10065,53.0,0,238,2.0,44.0
10066,74.0,120,1920,5.0,76.0
10067,70.0,0,1920,6.0,81.0
10068,65.0,0,1920,7.0,71.0
10069,88.0,120,118,4.0,71.0
10070,89.0,0,238,0.0,85.0
10071,82.0,0,117,1.0,90.0
10072,58.0,0,117,2.0,65.0
10073,46.0,0,117,2.0,65.0
10074,70.0,0,117,1.0,90.0
10075,70.0,0,117,3.0,23.0
10076,82.0,123,117,0.0,57.0
10077,58.0,0,117,3.0,23.0
10078,77.0,0,240,5.0,76.0
10079,89.0,0,240,4.0,90.0
10080,70.0,0,240,7.0,77.0
10081,74.0,0,240,6.0,79.0
10082,62.0,0,117,3.0,57.0
10083,62.0,0,117,2.0,84.0
10084,50.0,0,117,2.0,84.0
10085,86.0,0,117,0.0,82.0
10086,74.0,240,117,1.0,92.0
10087,74.0,0,117,3.0,57.0
10088,86.0,0,117,1.0,92.0
10089,85.0,0,120,4.0,63.0
10090,41.0,0,6249,10.0,64.0
10091,87.0,120,120,4.0,90.0
10092,62.0,0,480,4.0,76.0
10093,53.0,0,6249,8.0,64.0
10094,65.0,0,480,4.0,76.0
10095,70.0,0,480,4.0,76.0
10096,41.0,0,117,2.0,60.0
10097,53.0,0,117,2.0,60.0
10098,77.0,120,117,1.0,49.0
10099,65.0,0,117,3.0,27.0
10100,86.0,0,117,4.0,71.0
10101,65.0,0,117,1.0,49.0
10102,89.0,0,117,0.0,85.0
10103,53.0,0,117,3.0,27.0
10104,81.0,0,116,4.0,67.0
10105,70.0,240,117,3.0,50.0
10106,70.0,0,117,1.0,82.0
10107,82.0,0,117,1.0,82.0
10108,58.0,0,117,2.0,78.0
10109,46.0,0,117,2.0,78.0
10110,58.0,0,117,3.0,50.0
10111,84.0,116,120,4.0,85.0
10112,50.0,0,119,2.0,61.0
10113,82.0,0,119,4.0,77.0
10114,74.0,0,119,1.0,60.0
10115,62.0,0,119,1.0,60.0
10116,86.0,0,119,0.0,68.0
10117,62.0,120,119,3.0,34.0
10118,38.0,0,119,2.0,61.0
10119,77.0,0,239,6.0,52.0
10120,82.0,0,239,5.0,56.0
10121,74.0,0,239,7.0,54.0
10122,76.0,0,116,4.0,55.0
10123,65.0,239,117,3.0,47.0
10124,53.0,0,117,2.0,69.0
10125,89.0,0,117,0.0,75.0
10126,65.0,0,117,1.0,83.0
10127,77.0,0,117,1.0,83.0
10128,41.0,0,117,2.0,69.0
10129,79.0,116,116,4.0,94.0
10130,77.0,0,117,4.0,76.0
10131,34.0,0,117,2.0,66.0
10132,82.0,0,117,0.0,51.0
10133,70.0,0,117,1.0,50.0
10134,46.0,116,117,2.0,66.0
10135,58.0,0,117,3.0,37.0
10136,62.0,0,118,1.0,78.0
10137,74.0,234,118,1.0,78.0
10138,73.0,0,118,4.0,61.0
10139,62.0,0,118,3.0,48.0
10140,38.0,0,118,2.0,78.0
10141,50.0,0,118,2.0,78.0
10142,86.0,0,118,0.0,78.0
10143,75.0,118,136,4.0,86.0
10144,74.0,7,150,4.0,77.0
10145,77.0,0,239,7.0,54.0
10146,82.0,0,239,6.0,58.0
10147,86.0,0,239,5.0,57.0
10148,82.0,150,160,4.0,121.0
10149,65.0,0,483,3.0,49.0
10150,77.0,0,483,0.0,53.0
10151,77.0,0,483,1.0,82.0
10152,65.0,0,483,1.0,82.0
10153,41.0,0,483,2.0,79.0
10154,53.0,129,483,2.0,79.0
10155,81.0,160,166,4.0,81.0
10156,80.0,166,158,4.0,73.0
10157,79.0,158,160,4.0,74.0
10158,78.0,160,162,4.0,71.0
10159,77.0,162,158,4.0,77.0
10160,76.0,158,160,4.0,70.0
10161,75.0,160,162,4.0,70.0
10162,74.0,162,158,4.0,78.0
10163,72.0,158,160,4.0,61.0
10164,70.0,160,166,4.0,71.0
10165,72.0,3,56,4.0,92.0
10166,74.0,56,60,4.0,96.0
10167,53.0,0,116,4.0,65.0
10168,69.0,60,0,5.0,60.0
10169,63.0,0,119,6.0,54.0
10170,72.0,0,60,4.0,70.0
10171,41.0,60,0,10.0,55.0
10172,65.0,0,239,7.0,52.0
10173,53.0,0,239,8.0,56.0
10174,69.0,0,0,5.0,67.0
10175,63.0,0,0,6.0,67.0
10176,63.0,0,120,4.0,103.0
10177,74.0,60,60,4.0,91.0
10178,72.0,0,60,4.0,71.0
10179,74.0,60,60,4.0,91.0
10180,57.0,0,120,4.0,71.0
10181,69.0,0,0,5.0,73.0
10182,72.0,0,60,4.0,76.0
10183,74.0,60,60,4.0,96.0
10184,63.0,0,120,6.0,73.0
10185,63.0,60,120,4.0,99.0
10186,53.0,0,240,8.0,55.0
10187,65.0,0,240,7.0,67.0
10188,72.0,0,60,4.0,83.0
10189,69.0,0,120,5.0,79.0
10190,74.0,60,60,4.0,89.0
10191,53.0,60,120,4.0,55.0
10192,63.0,0,0,6.0,86.0
10193,72.0,0,60,4.0,76.0
10194,65.0,60,0,7.0,85.0
10195,41.0,0,240,10.0,67.0
10196,63.0,60,120,4.0,99.0
10197,74.0,60,60,4.0,93.0
10198,53.0,0,240,8.0,67.0
10199,69.0,0,0,5.0,83.0
10200,72.0,0,60,4.0,84.0
10201,63.0,0,124,6.0,85.0
10202,74.0,60,64,4.0,87.0
10203,57.0,0,124,4.0,60.0
10204,69.0,0,0,5.0,85.0
10205,72.0,0,60,4.0,72.0
10206,41.0,0,244,10.0,63.0
10207,65.0,60,0,7.0,62.0
10208,53.0,0,244,8.0,63.0
10209,74.0,60,60,4.0,89.0
10210,63.0,0,0,6.0,76.0
10211,63.0,0,120,4.0,95.0
10212,69.0,0,0,5.0,68.0
10213,72.0,0,60,4.0,70.0
10214,63.0,60,0,6.0,73.0
10215,53.0,0,120,4.0,60.0
10216,74.0,60,60,4.0,94.0
10217,69.0,0,0,5.0,65.0
10218,72.0,0,60,4.0,73.0
10219,69.0,0,0,5.0,74.0
10220,53.0,0,0,8.0,77.0
10221,41.0,60,0,10.0,77.0
10222,74.0,60,60,4.0,93.0
10223,63.0,0,120,4.0,92.0
10224,72.0,0,60,4.0,73.0
10225,57.0,0,120,4.0,63.0
10226,74.0,60,60,4.0,93.0
10227,69.0,0,0,5.0,80.0
10228,63.0,0,0,6.0,80.0
10229,72.0,0,60,4.0,72.0
10230,69.0,60,0,5.0,86.0
10231,63.0,60,120,4.0,92.0
10232,74.0,60,60,4.0,92.0
10233,65.0,0,0,7.0,90.0
10234,53.0,0,0,8.0,90.0
10235,41.0,0,0,10.0,90.0
10236,72.0,0,60,4.0,75.0
10237,63.0,0,120,6.0,86.0
10238,74.0,60,60,4.0,92.0
10239,53.0,0,120,4.0,55.0
10240,72.0,0,60,4.0,74.0
10241,69.0,60,0,5.0,87.0
10242,63.0,0,0,6.0,86.0
10243,74.0,60,60,4.0,90.0
10244,63.0,0,120,4.0,98.0
10245,57.0,0,120,4.0,61.0
10246,69.0,120,0,5.0,83.0
10247,70.0,0,120,4.0,65.0
10248,63.0,0,0,6.0,81.0
10249,53.0,0,240,8.0,84.0
10250,65.0,0,240,7.0,87.0
10251,72.0,0,120,4.0,100.0
10252,84.0,163,1923,0.0,61.0
10253,63.0,0,120,4.0,94.0
10254,81.0,0,1923,1.0,62.0
10255,41.0,0,240,10.0,84.0
10256,58.0,0,117,8.0,90.0
10257,58.0,0,117,7.0,90.0
10258,46.0,0,117,10.0,90.0
10259,53.0,0,117,7.0,102.0
10260,53.0,0,117,8.0,102.0
10261,41.0,240,117,10.0,102.0
10262,70.0,0,480,1.0,50.0
10263,82.0,0,480,0.0,71.0
10264,62.0,0,480,4.0,71.0
10265,70.0,0,480,3.0,75.0
10266,58.0,0,480,3.0,75.0
10267,74.0,0,480,4.0,89.0
10268,58.0,0,480,4.0,71.0
10269,82.0,0,480,1.0,70.0
10270,62.0,120,480,2.0,75.0
10271,46.0,0,117,10.0,117.0
10272,58.0,0,117,7.0,117.0
10273,58.0,240,117,8.0,117.0
10274,53.0,240,117,7.0,90.0
10275,41.0,0,117,10.0,99.0
10276,53.0,0,117,8.0,99.0
10277,65.0,0,360,3.0,64.0
10278,53.0,0,360,3.0,64.0
10279,53.0,0,480,2.0,64.0
10280,70.0,0,960,5.0,101.0
10281,62.0,0,960,5.0,101.0
10282,53.0,0,0,3.0,80.0
10283,65.0,120,120,3.0,75.0
10284,65.0,0,480,1.0,50.0
10285,58.0,0,960,6.0,83.0
10286,62.0,0,960,6.0,83.0
10287,77.0,0,480,0.0,63.0
10288,46.0,120,117,10.0,124.0
10289,58.0,0,117,7.0,121.0
10290,58.0,0,117,8.0,124.0
10291,82.0,0,117,5.0,89.0
10292,53.0,240,117,8.0,95.0
10293,70.0,0,117,6.0,104.0
10294,53.0,0,117,7.0,95.0
10295,41.0,0,117,10.0,95.0
10296,65.0,0,480,3.0,80.0
10297,70.0,0,480,1.0,69.0
10298,58.0,0,480,2.0,89.0
10299,82.0,0,117,5.0,90.0
10300,58.0,0,117,7.0,119.0
10301,46.0,0,117,10.0,121.0
10302,70.0,0,117,6.0,105.0
10303,58.0,0,117,8.0,121.0
10304,53.0,0,117,8.0,97.0
10305,82.0,0,117,5.0,93.0
10306,41.0,0,117,10.0,97.0
10307,53.0,0,117,7.0,102.0
10308,70.0,240,117,6.0,114.0
10309,53.0,0,480,3.0,77.0
10310,65.0,0,0,3.0,80.0
10311,62.0,0,480,2.0,101.0
10312,74.0,0,480,1.0,76.0
10313,82.0,0,60,5.0,99.0
10314,70.0,0,60,6.0,111.0
10315,60.0,0,117,8.0,126.0
10316,60.0,0,117,7.0,126.0
10317,48.0,0,117,10.0,126.0
10318,72.0,0,60,6.0,125.0
10319,84.0,60,60,5.0,113.0
10320,82.0,0,120,5.0,87.0
10321,70.0,60,120,6.0,101.0
10322,41.0,0,117,10.0,97.0
10323,53.0,0,117,7.0,98.0
10324,53.0,120,117,8.0,97.0
10325,69.0,240,0,6.0,106.0
10326,81.0,0,0,5.0,97.0
10327,60.0,0,117,8.0,126.0
10328,48.0,0,117,10.0,126.0
10329,60.0,0,117,7.0,126.0
10330,41.0,0,117,10.0,93.0
10331,53.0,240,117,8.0,93.0
10332,53.0,0,117,7.0,97.0
10333,60.0,0,117,7.0,126.0
10334,48.0,240,117,10.0,124.0
10335,60.0,0,117,8.0,124.0
10336,41.0,0,117,10.0,94.0
10337,53.0,0,117,7.0,99.0
10338,53.0,240,117,8.0,94.0
10339,75.0,0,1440,1.0,68.0
10340,63.0,0,1440,2.0,87.0
10341,58.0,0,117,8.0,124.0
10342,46.0,0,117,10.0,124.0
10343,58.0,0,117,7.0,123.0
10344,53.0,0,117,8.0,101.0
10345,41.0,240,117,10.0,101.0
10346,53.0,0,117,7.0,101.0
10347,62.0,240,360,2.0,83.0
10348,74.0,0,360,1.0,57.0
10349,82.0,0,480,5.0,105.0
10350,70.0,0,480,6.0,118.0
10351,70.0,120,120,1.0,48.0
10352,58.0,0,120,2.0,74.0
10353,57.0,0,117,7.0,114.0
10354,57.0,120,117,8.0,118.0
10355,45.0,0,117,10.0,118.0
10356,83.0,0,240,5.0,107.0
10357,71.0,0,240,6.0,126.0
10358,53.0,240,117,8.0,95.0
10359,41.0,0,117,10.0,95.0
10360,53.0,0,117,7.0,97.0
10361,60.0,0,480,2.0,93.0
10362,72.0,0,480,1.0,62.0
10363,72.0,0,240,6.0,126.0
10364,84.0,0,240,5.0,106.0
10365,45.0,0,117,10.0,119.0
10366,57.0,0,117,7.0,122.0
10367,57.0,0,117,8.0,119.0
10368,41.0,240,117,10.0,98.0
10369,53.0,0,117,7.0,97.0
10370,53.0,0,117,8.0,98.0
10371,53.0,240,480,2.0,79.0
10372,65.0,0,480,1.0,38.0
10373,48.0,0,117,10.0,126.0
10374,60.0,0,117,8.0,126.0
10375,60.0,240,117,7.0,126.0
10376,72.0,0,0,6.0,110.0
10377,84.0,240,0,5.0,97.0
10378,53.0,0,117,7.0,100.0
10379,53.0,0,117,8.0,85.0
10380,41.0,0,117,10.0,85.0
10381,57.0,0,480,2.0,89.0
10382,69.0,0,480,1.0,64.0
10383,72.0,0,117,6.0,107.0
10384,63.0,0,117,7.0,126.0
10385,51.0,240,117,10.0,126.0
10386,63.0,0,117,8.0,126.0
10387,84.0,0,117,5.0,101.0
10388,53.0,0,117,8.0,91.0
10389,53.0,0,117,7.0,94.0
10390,72.0,0,117,6.0,113.0
10391,84.0,240,117,5.0,99.0
10392,41.0,0,117,10.0,91.0
10393,60.0,0,480,2.0,97.0
10394,77.0,0,4800,1.0,98.0
10395,72.0,0,480,1.0,77.0
10396,72.0,0,60,6.0,104.0
10397,84.0,240,60,5.0,98.0
10398,62.0,0,117,7.0,126.0
10399,50.0,0,117,10.0,126.0
10400,62.0,0,117,8.0,126.0
10401,86.0,60,60,5.0,111.0
10402,74.0,0,60,6.0,121.0
10403,84.0,60,120,5.0,83.0
10404,72.0,0,120,6.0,105.0
10405,41.0,0,117,10.0,81.0
10406,53.0,0,117,7.0,89.0
10407,53.0,0,117,8.0,81.0
10408,70.0,0,0,6.0,110.0
10409,82.0,240,0,5.0,93.0
10410,62.0,0,117,8.0,126.0
10411,62.0,0,117,7.0,126.0
10412,50.0,0,117,10.0,126.0
10413,53.0,240,117,7.0,94.0
10414,41.0,0,117,10.0,85.0
10415,53.0,0,117,8.0,85.0
10416,62.0,240,117,7.0,126.0
10417,62.0,0,117,8.0,126.0
10418,50.0,0,117,10.0,126.0
10419,53.0,0,117,8.0,91.0
10420,41.0,0,117,10.0,91.0
10421,53.0,240,117,7.0,98.0
10422,65.0,0,1440,2.0,103.0
10423,57.0,0,117,8.0,115.0
10424,45.0,0,117,10.0,115.0
10425,57.0,0,117,7.0,118.0
10426,53.0,240,117,7.0,95.0
10427,53.0,0,117,8.0,99.0
10428,41.0,0,117,10.0,99.0
10429,75.0,0,360,1.0,50.0
10430,63.0,0,360,2.0,79.0
10431,84.0,240,480,5.0,107.0
10432,72.0,120,120,1.0,48.0
10433,72.0,0,480,6.0,119.0
10434,60.0,0,120,2.0,66.0
10435,58.0,0,117,7.0,126.0
10436,46.0,0,117,10.0,116.0
10437,58.0,120,117,8.0,116.0
10438,85.0,0,240,5.0,107.0
10439,73.0,0,240,6.0,120.0
10440,41.0,240,117,10.0,101.0
10441,53.0,0,117,7.0,96.0
10442,53.0,0,117,8.0,101.0
10443,58.0,0,480,2.0,73.0
10444,70.0,0,480,1.0,52.0
10445,74.0,0,240,6.0,117.0
10446,86.0,0,0,5.0,97.0
10447,58.0,0,117,8.0,117.0
10448,58.0,0,117,7.0,122.0
10449,46.0,240,117,10.0,117.0
10450,53.0,240,117,8.0,96.0
10451,53.0,0,117,7.0,95.0
10452,41.0,0,117,10.0,96.0
10453,53.0,0,480,2.0,75.0
10454,65.0,0,480,1.0,48.0
10455,46.0,0,117,10.0,118.0
10456,58.0,0,117,8.0,118.0
10457,58.0,0,117,7.0,116.0
10458,74.0,0,0,6.0,108.0
10459,41.0,0,117,10.0,106.0
10460,53.0,240,117,7.0,102.0
10461,86.0,0,117,5.0,96.0
10462,53.0,0,117,8.0,106.0
10463,58.0,240,480,2.0,90.0
10464,70.0,0,480,1.0,77.0
10465,74.0,0,117,6.0,107.0
10466,86.0,0,117,5.0,100.0
10467,58.0,0,117,7.0,125.0
10468,46.0,240,117,10.0,123.0
10469,58.0,0,117,8.0,123.0
10470,86.0,0,117,5.0,96.0
10471,53.0,0,117,7.0,96.0
10472,41.0,0,117,10.0,99.0
10473,53.0,240,117,8.0,99.0
10474,74.0,0,117,6.0,107.0
10475,74.0,0,480,1.0,81.0
10476,62.0,0,480,2.0,101.0
10477,57.0,0,117,8.0,114.0
10478,45.0,0,117,10.0,114.0
10479,57.0,0,117,7.0,110.0
10480,86.0,240,240,5.0,90.0
10481,71.0,0,240,6.0,89.0
10482,53.0,0,117,8.0,97.0
10483,41.0,0,117,10.0,97.0
10484,53.0,0,117,7.0,100.0
10485,72.0,240,190,6.0,112.0
10486,84.0,0,0,5.0,94.0
10487,57.0,0,117,8.0,119.0
10488,57.0,240,117,7.0,110.0
10489,45.0,0,117,10.0,119.0
10490,53.0,0,117,8.0,102.0
10491,53.0,240,117,7.0,102.0
10492,41.0,0,117,10.0,102.0
10493,57.0,0,117,7.0,118.0
10494,45.0,0,117,10.0,117.0
10495,57.0,240,117,8.0,117.0
10496,72.0,0,0,6.0,110.0
10497,53.0,0,117,8.0,97.0
10498,53.0,0,117,7.0,92.0
10499,41.0,240,117,10.0,97.0
10500,63.0,0,1440,2.0,95.0
10501,75.0,0,1440,1.0,69.0
10502,59.0,0,117,8.0,126.0
10503,59.0,0,117,7.0,125.0
10504,47.0,0,117,10.0,126.0
10505,72.0,0,117,6.0,108.0
10506,86.0,0,237,5.0,114.0
10507,72.0,240,117,6.0,106.0
10508,53.0,0,117,7.0,93.0
10509,41.0,0,117,10.0,98.0
10510,53.0,0,117,8.0,98.0
10511,74.0,240,480,1.0,58.0
10512,62.0,0,480,2.0,85.0
10513,60.0,0,117,7.0,126.0
10514,48.0,0,117,10.0,123.0
10515,60.0,0,117,8.0,123.0
10516,74.0,0,240,6.0,121.0
10517,86.0,0,240,5.0,99.0
10518,41.0,0,117,10.0,88.0
10519,53.0,0,117,7.0,101.0
10520,53.0,240,117,8.0,88.0
10521,87.0,0,240,5.0,107.0
10522,75.0,0,0,6.0,109.0
10523,60.0,0,117,7.0,126.0
10524,60.0,0,117,8.0,126.0
10525,48.0,0,117,10.0,126.0
10526,41.0,0,117,10.0,89.0
10527,53.0,240,117,8.0,89.0
10528,53.0,0,117,7.0,96.0
10529,60.0,240,117,8.0,124.0
10530,60.0,0,117,7.0,126.0
10531,48.0,0,117,10.0,124.0
10532,87.0,0,0,5.0,99.0
10533,41.0,0,117,10.0,96.0
10534,53.0,0,117,8.0,96.0
10535,53.0,0,117,7.0,97.0
10536,75.0,240,117,6.0,112.0
10537,57.0,0,1440,2.0,66.0
10538,69.0,240,1440,1.0,36.0
10539,57.0,0,117,7.0,112.0
10540,45.0,0,117,10.0,118.0
10541,75.0,0,117,6.0,114.0
10542,57.0,0,117,8.0,118.0
10543,87.0,240,117,5.0,95.0
10544,41.0,0,117,10.0,100.0
10545,53.0,0,117,7.0,97.0
10546,53.0,240,117,8.0,100.0
10547,75.0,0,117,6.0,105.0
10548,87.0,0,117,5.0,95.0
10549,53.0,240,11520,3.0,80.0
10550,72.0,0,480,1.0,71.0
10551,60.0,0,480,2.0,93.0
10552,86.0,0,117,5.0,90.0
10553,74.0,240,117,6.0,97.0
10554,77.0,240,117,5.0,62.0
10555,77.0,0,117,6.0,117.0
10556,46.0,0,480,10.0,117.0
10557,77.0,0,8160,1.0,77.0
10558,58.0,0,480,3.0,83.0
10559,70.0,0,480,1.0,57.0
10560,58.0,0,480,2.0,82.0
10561,58.0,0,480,8.0,117.0
10562,58.0,0,480,7.0,122.0
10563,89.0,0,12960,0.0,112.0
10564,87.0,0,4320,0.0,76.0
10565,79.0,0,60,5.0,98.0
10566,79.0,240,60,6.0,125.0
10567,77.0,0,60,5.0,88.0
10568,77.0,60,60,6.0,102.0
10569,76.0,60,60,6.0,102.0
10570,76.0,0,60,5.0,82.0
10571,77.0,60,300,5.0,103.0
10572,77.0,0,300,6.0,123.0
10573,82.0,0,117,1.0,74.0
10574,82.0,300,117,6.0,126.0
10575,82.0,0,117,5.0,121.0
10576,74.0,240,117,5.0,63.0
10577,74.0,0,117,6.0,81.0
10578,74.0,0,117,1.0,60.0
10579,75.0,0,60,1.0,85.0
10580,75.0,240,60,5.0,101.0
10581,75.0,0,60,6.0,113.0
10582,74.0,0,60,5.0,92.0
10583,74.0,0,60,6.0,104.0
10584,74.0,60,60,1.0,70.0
10585,72.0,0,60,5.0,78.0
10586,72.0,60,60,6.0,83.0
10587,72.0,0,60,1.0,74.0
10588,74.0,0,300,6.0,119.0
10589,74.0,60,300,1.0,82.0
10590,74.0,0,300,5.0,115.0
10591,77.0,0,117,6.0,124.0
10592,65.0,0,117,8.0,95.0
10593,77.0,0,117,1.0,104.0
10594,65.0,0,117,2.0,74.0
10595,53.0,0,117,10.0,95.0
10596,77.0,0,117,5.0,112.0
10597,89.0,300,117,0.0,76.0
10598,70.0,0,117,7.0,97.0
10599,82.0,0,117,0.0,59.0
10600,58.0,0,117,2.0,66.0
10601,58.0,0,117,8.0,91.0
10602,70.0,0,117,5.0,63.0
10603,70.0,0,117,6.0,76.0
10604,46.0,240,117,10.0,91.0
10605,70.0,0,117,1.0,61.0
10606,72.0,0,60,1.0,85.0
10607,72.0,0,60,5.0,104.0
10608,84.0,0,60,0.0,86.0
10609,72.0,0,60,6.0,113.0
10610,72.0,240,60,7.0,117.0
10611,70.0,60,62,6.0,93.0
10612,82.0,0,62,0.0,69.0
10613,70.0,0,62,1.0,76.0
10614,70.0,0,62,7.0,101.0
10615,70.0,0,62,5.0,80.0
10616,69.0,0,60,5.0,94.0
10617,69.0,62,60,6.0,91.0
10618,81.0,0,60,0.0,70.0
10619,69.0,0,60,7.0,98.0
10620,69.0,0,60,1.0,76.0
10621,70.0,0,298,7.0,114.0
10622,82.0,0,298,0.0,92.0
10623,70.0,0,298,6.0,112.0
10624,58.0,0,480,2.0,82.0
10625,58.0,0,480,8.0,103.0
10626,70.0,60,298,5.0,108.0
10627,46.0,0,480,10.0,103.0
10628,70.0,0,298,1.0,91.0
10629,74.0,0,117,5.0,115.0
10630,50.0,0,117,10.0,121.0
10631,86.0,0,117,1.0,111.0
10632,62.0,0,117,8.0,121.0
10633,74.0,0,117,7.0,126.0
10634,62.0,0,117,2.0,103.0
10635,74.0,0,117,6.0,126.0
10636,86.0,0,117,0.0,97.0
10637,74.0,0,117,1.0,111.0
10638,74.0,298,117,3.0,74.0
10639,65.0,0,118,5.0,68.0
10640,65.0,0,118,7.0,83.0
10641,77.0,0,118,1.0,62.0
10642,65.0,0,118,6.0,75.0
10643,53.0,0,118,8.0,87.0
10644,65.0,0,118,3.0,59.0
10645,41.0,0,118,10.0,87.0
10646,77.0,0,118,0.0,58.0
10647,53.0,228,118,2.0,68.0
10648,65.0,0,118,1.0,62.0
10649,67.0,0,60,1.0,87.0
10650,79.0,0,60,1.0,87.0
10651,67.0,0,60,7.0,115.0
10652,67.0,0,60,5.0,98.0
10653,67.0,0,60,6.0,117.0
10654,79.0,0,60,0.0,81.0
10655,65.0,0,55,5.0,88.0
10656,65.0,0,55,1.0,68.0
10657,77.0,60,55,1.0,68.0
10658,65.0,0,55,6.0,98.0
10659,77.0,0,55,0.0,75.0
10660,65.0,0,55,7.0,87.0
10661,76.0,0,60,1.0,72.0
10662,64.0,0,60,1.0,72.0
10663,64.0,0,60,6.0,92.0
10664,64.0,0,60,7.0,100.0
10665,76.0,0,60,0.0,69.0
10666,64.0,55,60,5.0,86.0
10667,65.0,0,506,3.0,77.0
10668,65.0,0,331,7.0,121.0
10669,53.0,226,506,8.0,97.0
10670,65.0,60,331,6.0,118.0
10671,65.0,0,331,1.0,84.0
10672,77.0,0,331,0.0,93.0
10673,53.0,0,506,2.0,77.0
10674,65.0,0,331,5.0,102.0
10675,77.0,0,331,1.0,84.0
10676,41.0,0,506,10.0,97.0
10677,70.0,0,106,5.0,121.0
10678,46.0,0,106,10.0,116.0
10679,70.0,331,106,7.0,126.0
10680,70.0,0,106,1.0,107.0
10681,82.0,0,106,1.0,107.0
10682,58.0,0,106,8.0,116.0
10683,58.0,0,106,2.0,93.0
10684,70.0,0,106,3.0,105.0
10685,82.0,0,106,0.0,109.0
10686,70.0,0,106,6.0,126.0
10687,62.0,228,118,6.0,71.0
10688,38.0,0,118,10.0,92.0
10689,74.0,0,118,0.0,59.0
10690,62.0,0,118,7.0,73.0
10691,74.0,0,118,1.0,57.0
10692,62.0,0,118,1.0,57.0
10693,50.0,0,118,8.0,92.0
10694,62.0,0,118,3.0,55.0
10695,50.0,0,118,2.0,69.0
10696,62.0,0,118,5.0,67.0
10697,62.0,244,0,3.0,80.0
10698,62.0,244,0,3.0,80.0
10699,74.0,0,728,0.0,79.0
10700,50.0,0,728,8.0,99.0
10701,62.0,0,728,5.0,91.0
10702,62.0,244,728,7.0,104.0
10703,62.0,0,728,1.0,76.0
10704,62.0,0,728,6.0,102.0
10705,38.0,0,728,10.0,99.0
10706,74.0,0,728,1.0,76.0
10707,50.0,0,728,2.0,84.0
10708,64.0,0,120,7.0,121.0
10709,52.0,240,120,2.0,83.0
10710,76.0,0,120,0.0,97.0
10711,52.0,0,120,8.0,114.0
10712,76.0,0,120,1.0,88.0
10713,64.0,0,120,1.0,88.0
10714,64.0,0,120,6.0,123.0
10715,64.0,0,120,5.0,106.0
10716,40.0,0,120,10.0,114.0
10717,65.0,0,120,7.0,119.0
10718,77.0,0,120,1.0,95.0
10719,65.0,0,120,6.0,124.0
10720,77.0,0,120,0.0,87.0
10721,65.0,0,120,1.0,95.0
10722,65.0,0,120,5.0,107.0
10723,53.0,0,120,8.0,109.0
10724,53.0,120,120,2.0,90.0
10725,41.0,0,120,10.0,109.0
10726,79.0,0,240,1.0,95.0
10727,67.0,0,240,7.0,126.0
10728,67.0,0,240,5.0,110.0
10729,67.0,0,240,1.0,95.0
10730,43.0,0,240,10.0,119.0
10731,79.0,120,240,0.0,91.0
10732,67.0,0,240,6.0,123.0
10733,55.0,0,240,8.0,119.0
10734,55.0,0,240,2.0,87.0
10735,76.0,0,240,0.0,73.0
10736,76.0,0,240,1.0,78.0
10737,64.0,0,240,1.0,78.0
10738,64.0,240,240,5.0,90.0
10739,40.0,0,240,10.0,107.0
10740,52.0,0,240,8.0,107.0
10741,64.0,0,240,6.0,84.0
10742,64.0,0,240,7.0,96.0
10743,52.0,0,240,2.0,77.0
10744,65.0,0,117,6.0,113.0
10745,65.0,0,117,5.0,96.0
10746,82.0,240,237,5.0,126.0
10747,74.0,0,237,6.0,126.0
10748,53.0,0,480,8.0,113.0
10749,65.0,0,480,3.0,77.0
10750,41.0,0,480,10.0,113.0
10751,65.0,0,480,1.0,83.0
10752,65.0,0,480,7.0,116.0
10753,53.0,0,480,2.0,86.0
10754,77.0,0,480,1.0,83.0
10755,77.0,240,480,0.0,88.0
10756,82.0,240,237,5.0,104.0
10757,74.0,0,237,6.0,114.0
10758,55.0,0,480,8.0,117.0
10759,58.0,0,480,3.0,101.0
10760,70.0,0,480,3.0,101.0
10761,43.0,240,480,10.0,117.0
10762,62.0,0,480,7.0,92.0
10763,55.0,0,480,2.0,89.0
10764,74.0,241,239,6.0,112.0
10765,82.0,0,239,5.0,98.0
10766,82.0,0,961,1.0,105.0
10767,74.0,0,961,1.0,105.0
10768,86.0,0,0,0.0,88.0
10769,62.0,0,481,3.0,107.0
10770,53.0,0,481,2.0,87.0
10771,65.0,0,481,7.0,122.0
10772,74.0,0,481,3.0,107.0
10773,41.0,0,481,10.0,101.0
10774,53.0,240,481,8.0,101.0
10775,74.0,0,119,6.0,107.0
10776,82.0,240,119,5.0,89.0
10777,67.0,0,479,7.0,126.0
10778,52.0,0,479,2.0,81.0
10779,52.0,240,479,8.0,103.0
10780,58.0,0,479,3.0,67.0
10781,70.0,0,479,3.0,67.0
10782,40.0,0,479,10.0,103.0
10783,74.0,0,479,1.0,86.0
10784,82.0,0,479,1.0,86.0
10785,70.0,239,60,4.0,72.0
10786,72.0,59,60,4.0,90.0
10787,70.0,60,60,4.0,80.0
10788,72.0,60,60,4.0,98.0
10789,70.0,60,60,4.0,80.0
10790,72.0,60,60,4.0,94.0
10791,70.0,60,60,4.0,72.0
10792,72.0,60,60,4.0,98.0
10793,70.0,60,60,4.0,75.0
10794,72.0,60,57,4.0,91.0
10795,70.0,57,60,4.0,79.0
10796,72.0,60,59,4.0,90.0
10797,70.0,59,60,4.0,83.0
10798,72.0,60,60,4.0,85.0
10799,70.0,60,60,4.0,81.0
10800,72.0,60,60,4.0,90.0
10801,62.0,0,956,4.0,75.0
10802,58.0,0,956,4.0,75.0
10803,53.0,0,956,4.0,75.0
10804,41.0,0,959,10.0,127.0
10805,82.0,1,959,5.0,127.0
10806,53.0,0,959,3.0,94.0
10807,65.0,0,959,3.0,94.0
10808,74.0,0,959,6.0,127.0
10809,53.0,0,959,8.0,127.0
10810,65.0,0,959,7.0,127.0
10811,69.0,60,120,4.0,76.0
10812,70.0,120,245,4.0,89.0
10813,72.0,245,60,4.0,96.0
10814,74.0,60,69,4.0,94.0
10815,75.0,69,60,4.0,97.0
10816,77.0,60,64,4.0,91.0
10817,79.0,64,60,4.0,92.0
10818,81.0,60,67,4.0,92.0
10819,82.0,67,60,4.0,96.0
10820,84.0,60,68,4.0,99.0
10821,86.0,68,60,4.0,92.0
10822,87.0,60,31,4.0,89.0
10823,89.0,47,118,4.0,97.0
10824,82.0,238,118,4.0,65.0
10825,82.0,236,60,4.0,81.0
10826,84.0,60,60,4.0,95.0
10827,82.0,60,60,4.0,69.0
10828,84.0,60,60,4.0,95.0
10829,81.0,60,119,4.0,74.0
10830,82.0,119,117,4.0,90.0
10831,86.0,117,119,4.0,96.0
10832,77.0,235,119,4.0,53.0
10833,77.0,236,60,4.0,79.0
10834,79.0,60,59,4.0,93.0
10835,77.0,59,60,4.0,75.0
10836,79.0,60,57,4.0,97.0
10837,76.0,57,119,4.0,67.0
10838,77.0,119,128,4.0,92.0
10839,82.0,128,113,4.0,108.0
10840,74.0,237,119,4.0,65.0
10841,74.0,240,60,4.0,78.0
10842,75.0,60,60,4.0,89.0
10843,74.0,60,60,4.0,74.0
10844,75.0,60,60,4.0,82.0
10845,73.0,60,120,4.0,77.0
10846,74.0,120,120,4.0,98.0
10847,77.0,120,119,4.0,105.0
10848,70.0,240,119,4.0,57.0
10849,70.0,239,60,4.0,82.0
10850,72.0,60,57,4.0,92.0
10851,70.0,57,60,4.0,75.0
10852,72.0,60,60,4.0,94.0
10853,69.0,60,120,4.0,70.0
10854,70.0,120,127,4.0,94.0
10855,62.0,127,116,4.0,77.0
10856,74.0,0,116,4.0,102.0
10857,53.0,0,119,4.0,61.0
10858,65.0,237,119,4.0,58.0
10859,53.0,0,60,4.0,78.0
10860,65.0,240,60,4.0,70.0
10861,55.0,0,60,4.0,89.0
10862,67.0,60,60,4.0,93.0
10863,53.0,60,60,4.0,74.0
10864,65.0,0,60,4.0,78.0
10865,55.0,0,63,4.0,94.0
10866,67.0,60,63,4.0,90.0
10867,52.0,0,117,4.0,89.0
10868,64.0,63,117,4.0,70.0
10869,65.0,117,120,4.0,84.0
10870,53.0,0,120,4.0,85.0
10871,58.0,120,119,4.0,89.0
10872,70.0,0,119,4.0,111.0
10873,50.0,0,119,4.0,68.0
10874,62.0,240,119,4.0,65.0
10875,50.0,0,60,4.0,76.0
10876,62.0,239,60,4.0,74.0
10877,51.0,0,60,4.0,87.0
10878,63.0,60,60,4.0,88.0
10879,50.0,60,60,4.0,82.0
10880,62.0,0,60,4.0,79.0
10881,51.0,60,60,4.0,85.0
10882,63.0,0,60,4.0,92.0
10883,49.0,0,120,4.0,84.0
10884,61.0,60,120,4.0,83.0
10885,50.0,0,124,4.0,84.0
10886,62.0,120,124,4.0,90.0
10887,53.0,0,116,4.0,86.0
10888,65.0,124,116,4.0,95.0
10889,58.0,237,119,4.0,71.0
10890,46.0,0,119,4.0,69.0
10891,46.0,243,60,4.0,81.0
10892,58.0,0,60,4.0,80.0
10893,48.0,60,60,4.0,87.0
10894,60.0,0,60,4.0,100.0
10895,46.0,0,60,4.0,82.0
10896,58.0,60,60,4.0,73.0
10897,60.0,60,60,4.0,94.0
10898,48.0,0,60,4.0,88.0
10899,57.0,0,120,4.0,80.0
10900,45.0,60,120,4.0,83.0
10901,46.0,120,120,4.0,85.0
10902,58.0,0,120,4.0,90.0
10903,50.0,0,117,4.0,98.0
10904,62.0,120,117,4.0,101.0
10905,41.0,0,117,4.0,70.0
10906,53.0,236,117,4.0,69.0
10907,41.0,237,60,4.0,82.0
10908,53.0,0,60,4.0,84.0
10909,43.0,0,60,4.0,84.0
10910,55.0,60,60,4.0,83.0
10911,41.0,0,60,4.0,82.0
10912,53.0,60,60,4.0,76.0
10913,43.0,0,60,4.0,86.0
10914,55.0,60,60,4.0,85.0
10915,52.0,60,120,4.0,80.0
10916,40.0,0,120,4.0,79.0
10917,41.0,120,127,4.0,82.0
10918,53.0,0,127,4.0,86.0
10919,52.0,127,113,4.0,78.0
10920,40.0,233,120,4.0,72.0
10921,43.0,120,120,4.0,85.0
10922,46.0,120,120,4.0,95.0
10923,48.0,120,120,4.0,87.0
10924,52.0,120,123,4.0,93.0
10925,53.0,123,124,4.0,90.0
10926,55.0,124,120,4.0,93.0
10927,57.0,120,121,4.0,95.0
10928,58.0,121,121,4.0,87.0
10929,60.0,121,123,4.0,90.0
10930,62.0,123,121,4.0,96.0
10931,64.0,121,123,4.0,97.0
10932,65.0,123,121,4.0,99.0
10933,67.0,121,110,4.0,101.0
10934,69.0,116,119,4.0,97.0
10935,70.0,119,120,4.0,100.0
10936,72.0,120,117,4.0,95.0
10937,74.0,117,120,4.0,104.0
10938,76.0,120,123,4.0,99.0
10939,77.0,123,121,4.0,92.0
10940,79.0,121,123,4.0,93.0
10941,81.0,123,120,4.0,100.0
10942,82.0,120,117,4.0,87.0
10943,81.0,117,119,4.0,77.0
10944,79.0,119,116,4.0,72.0
10945,77.0,116,116,4.0,75.0
10946,76.0,116,116,4.0,65.0
10947,74.0,116,116,4.0,74.0
10948,72.0,116,117,4.0,63.0
10949,70.0,117,134,4.0,68.0
10950,69.0,134,116,4.0,77.0
10951,70.0,116,120,4.0,90.0
10952,72.0,120,120,4.0,87.0
10953,70.0,120,120,4.0,74.0
10954,69.0,120,120,4.0,69.0
10955,75.0,120,117,4.0,108.0
10956,41.0,117,120,4.0,61.0
10957,45.0,120,119,4.0,86.0
10958,48.0,119,120,4.0,97.0
10959,53.0,120,121,4.0,103.0
10960,57.0,121,124,4.0,93.0
10961,60.0,124,124,4.0,100.0
10962,65.0,124,121,4.0,108.0
10963,69.0,121,124,4.0,113.0
10964,72.0,124,123,4.0,101.0
10965,75.0,123,111,4.0,105.0
10966,77.0,116,120,4.0,92.0
10967,81.0,120,120,4.0,114.0
10968,84.0,120,120,4.0,103.0
10969,87.0,120,360,4.0,99.0
10970,86.0,360,117,4.0,78.0
10971,84.0,117,120,4.0,73.0
10972,82.0,120,119,4.0,75.0
10973,81.0,119,119,4.0,78.0
10974,79.0,119,117,4.0,74.0
10975,77.0,117,116,4.0,69.0
10976,75.0,116,119,4.0,67.0
10977,74.0,119,117,4.0,67.0
10978,72.0,117,119,4.0,71.0
10979,70.0,119,132,4.0,66.0
10980,69.0,132,113,4.0,71.0
10981,75.0,113,363,4.0,110.0
10982,74.0,363,121,4.0,79.0
10983,72.0,121,120,4.0,75.0
10984,70.0,120,120,4.0,68.0
10985,69.0,120,120,4.0,69.0
10986,67.0,120,119,4.0,73.0
10987,65.0,119,120,4.0,75.0
10988,63.0,120,117,4.0,69.0
10989,62.0,117,120,4.0,80.0
10990,60.0,120,487,4.0,62.0
10991,58.0,0,476,4.0,63.0
10992,50.0,487,476,4.0,63.0
10993,58.0,361,0,4.0,66.0
10994,50.0,0,0,4.0,66.0
10995,58.0,0,0,4.0,68.0
10996,50.0,120,480,4.0,68.0
10997,58.0,480,0,4.0,73.0
10998,50.0,0,483,4.0,73.0
10999,60.0,483,236,4.0,78.0
11000,53.0,0,480,4.0,90.0
11001,57.0,236,244,4.0,70.0
11002,82.0,0,120,4.0,65.0
11003,81.0,120,121,4.0,60.0
11004,82.0,121,121,4.0,76.0
11005,50.0,244,482,4.0,92.0
11006,58.0,0,482,4.0,76.0
11007,81.0,121,120,4.0,68.0
11008,84.0,120,120,4.0,73.0
11009,82.0,120,119,4.0,72.0
11010,81.0,119,119,4.0,63.0
11011,79.0,119,117,4.0,62.0
11012,79.0,117,119,4.0,74.0
11013,77.0,119,120,4.0,58.0
11014,75.0,120,117,4.0,64.0
11015,74.0,117,127,4.0,65.0
11016,60.0,127,476,4.0,65.0
11017,53.0,0,476,4.0,65.0
11018,72.0,0,476,4.0,63.0
11019,60.0,0,361,4.0,68.0
11020,53.0,476,361,4.0,68.0
11021,60.0,0,120,4.0,71.0
11022,53.0,361,120,4.0,71.0
11023,60.0,120,483,4.0,72.0
11024,53.0,0,483,4.0,72.0
11025,60.0,0,480,4.0,76.0
11026,53.0,483,480,4.0,76.0
11027,58.0,0,357,4.0,70.0
11028,60.0,357,60,4.0,75.0
11029,62.0,60,63,4.0,76.0
11030,50.0,480,480,4.0,90.0
11031,84.0,63,121,4.0,62.0
11032,83.0,121,121,4.0,64.0
11033,84.0,121,123,4.0,79.0
11034,53.0,0,486,4.0,104.0
11035,83.0,123,121,4.0,61.0
11036,60.0,0,486,4.0,78.0
11037,86.0,121,119,4.0,83.0
11038,84.0,119,117,4.0,68.0
11039,82.0,117,119,4.0,61.0
11040,81.0,119,116,4.0,67.0
11041,81.0,116,119,4.0,75.0
11042,79.0,119,117,4.0,59.0
11043,77.0,117,119,4.0,67.0
11044,75.0,119,128,4.0,62.0
11045,58.0,0,476,4.0,62.0
11046,62.0,128,476,4.0,62.0
11047,74.0,0,476,4.0,63.0
11048,82.0,0,121,4.0,103.0
11049,81.0,121,123,4.0,77.0
11050,82.0,123,120,4.0,76.0
11051,62.0,476,364,4.0,67.0
11052,58.0,0,364,4.0,67.0
11053,81.0,120,121,4.0,64.0
11054,58.0,0,0,4.0,66.0
11055,62.0,121,0,4.0,66.0
11056,84.0,0,120,4.0,83.0
11057,82.0,120,119,4.0,68.0
11058,81.0,119,120,4.0,67.0
11059,79.0,116,0,4.0,67.0
11060,77.0,120,117,4.0,67.0
11061,75.0,117,119,4.0,63.0
11062,74.0,119,128,4.0,67.0
11063,75.0,128,476,4.0,72.0
11064,55.0,0,476,4.0,65.0
11065,58.0,0,476,4.0,65.0
11066,63.0,476,0,4.0,73.0
11067,82.0,0,121,4.0,99.0
11068,81.0,121,123,4.0,72.0
11069,58.0,0,0,4.0,69.0
11070,82.0,123,120,4.0,73.0
11071,63.0,120,0,4.0,69.0
11072,55.0,0,0,4.0,69.0
11073,81.0,0,121,4.0,62.0
11074,63.0,0,0,4.0,68.0
11075,84.0,121,120,4.0,83.0
11076,82.0,120,119,4.0,58.0
11077,81.0,119,120,4.0,68.0
11078,79.0,120,117,4.0,57.0
11079,58.0,0,476,4.0,68.0
11080,55.0,0,476,4.0,68.0
11081,81.0,117,119,4.0,83.0
11082,79.0,119,120,4.0,62.0
11083,77.0,120,117,4.0,60.0
11084,75.0,117,127,4.0,60.0
11085,56.0,0,0,4.0,70.0
11086,50.0,0,0,4.0,70.0
11087,77.0,127,476,4.0,79.0
11088,53.0,0,0,4.0,70.0
11089,58.0,476,0,4.0,70.0
11090,89.0,0,124,4.0,102.0
11091,88.0,124,120,4.0,72.0
11092,58.0,121,0,4.0,66.0
11093,53.0,0,0,4.0,66.0
11094,50.0,0,0,4.0,66.0
11095,56.0,0,0,4.0,66.0
11096,89.0,120,121,4.0,82.0
11097,56.0,0,0,4.0,73.0
11098,50.0,0,0,4.0,73.0
11099,58.0,121,0,4.0,73.0
11100,53.0,0,0,4.0,73.0
11101,88.0,0,121,4.0,69.0
11102,89.0,0,160,4.0,71.0
11103,87.0,160,158,4.0,63.0
11104,86.0,158,160,4.0,57.0
11105,84.0,160,157,4.0,62.0
11106,82.0,157,157,4.0,59.0
11107,80.0,157,166,4.0,54.0
11108,79.0,166,157,4.0,65.0
11109,77.0,157,161,4.0,62.0
11110,75.0,161,162,4.0,62.0
11111,74.0,162,158,4.0,62.0
11112,72.0,158,160,4.0,59.0
11113,70.0,160,159,4.0,60.0
11114,69.0,159,157,4.0,59.0
11115,67.0,157,158,4.0,63.0
11116,65.0,158,156,4.0,55.0
11117,63.0,156,160,4.0,66.0
11118,62.0,160,154,4.0,56.0
11119,55.0,0,1920,4.0,64.0
11120,51.0,0,1920,4.0,64.0
11121,60.0,154,178,4.0,59.0
11122,58.0,178,0,4.0,64.0
11123,52.0,153,159,4.0,60.0
11124,55.0,159,160,4.0,73.0
11125,58.0,160,158,4.0,74.0
11126,61.0,158,162,4.0,85.0
11127,64.0,162,164,4.0,61.0
11128,67.0,164,162,4.0,76.0
11129,70.0,162,162,4.0,83.0
11130,73.0,162,169,4.0,88.0
11131,76.0,169,160,4.0,84.0
11132,79.0,160,161,4.0,87.0
11133,82.0,161,150,4.0,93.0
11134,85.0,159,159,4.0,84.0
11135,82.0,159,160,4.0,65.0
11136,79.0,160,158,4.0,63.0
11137,76.0,158,160,4.0,56.0
11138,73.0,160,159,4.0,55.0
11139,70.0,159,157,4.0,51.0
11140,67.0,157,158,4.0,50.0
11141,64.0,158,158,4.0,55.0
11142,61.0,158,158,4.0,54.0
11143,58.0,158,157,4.0,61.0
11144,55.0,157,157,4.0,63.0
11145,52.0,157,170,4.0,64.0
11146,65.0,236,117,4.0,45.0
11147,65.0,240,117,4.0,49.0
11148,65.0,240,117,4.0,47.0
11149,41.0,170,956,4.0,66.0
11150,53.0,0,956,4.0,66.0
11151,65.0,240,241,4.0,50.0
11152,67.0,241,123,4.0,55.0
11153,69.0,123,120,4.0,55.0
11154,70.0,120,121,4.0,55.0
11155,72.0,121,120,4.0,54.0
11156,74.0,120,121,4.0,64.0
11157,75.0,121,118,4.0,60.0
11158,77.0,0,959,4.0,54.0
11159,74.0,959,0,4.0,45.0
11160,55.0,0,959,4.0,49.0
11161,70.0,959,0,4.0,59.0
11162,62.0,0,959,4.0,49.0
11163,51.0,0,960,4.0,37.0
11164,79.0,0,960,4.0,59.0
11165,60.0,960,0,4.0,49.0
11166,53.0,0,960,4.0,49.0
11167,72.0,0,960,4.0,43.0
11168,69.0,0,960,4.0,43.0
11169,50.0,0,960,4.0,45.0
11170,77.0,0,960,4.0,59.0
11171,65.0,0,960,4.0,59.0
11172,75.0,0,960,4.0,41.0
11173,67.0,0,960,4.0,41.0
11174,51.0,960,960,4.0,50.0
11175,58.0,960,0,4.0,52.0
11176,53.0,0,960,4.0,52.0
11177,65.0,0,960,4.0,48.0
11178,74.0,0,960,4.0,48.0
11179,72.0,0,873,4.0,46.0
11180,64.0,960,873,4.0,46.0
11181,55.0,0,873,4.0,51.0
11182,74.0,0,122,4.0,59.0
11183,65.0,122,122,4.0,39.0
11184,67.0,122,124,4.0,57.0
11185,69.0,124,122,4.0,69.0
11186,70.0,122,124,4.0,60.0
11187,72.0,124,121,4.0,63.0
11188,74.0,121,123,4.0,66.0
11189,58.0,0,982,4.0,41.0
11190,53.0,938,982,4.0,41.0
11191,75.0,123,124,4.0,68.0
11192,77.0,124,121,4.0,71.0
11193,70.0,121,121,4.0,73.0
11194,72.0,121,124,4.0,76.0
11195,74.0,124,126,4.0,78.0
11196,75.0,126,122,4.0,81.0
11197,77.0,122,124,4.0,83.0
11198,79.0,124,123,4.0,86.0
11199,81.0,123,99,4.0,103.0
11200,82.0,113,118,4.0,94.0
11201,84.0,238,60,4.0,100.0
11202,82.0,60,58,4.0,78.0
11203,81.0,58,120,4.0,76.0
11204,82.0,120,236,4.0,88.0
11205,86.0,236,236,4.0,106.0
11206,76.0,0,160,4.0,55.0
11207,77.0,160,158,4.0,88.0
11208,78.0,158,160,4.0,94.0
11209,79.0,160,158,4.0,90.0
11210,80.0,158,160,4.0,97.0
11211,65.0,236,958,4.0,40.0
11212,75.0,0,958,4.0,40.0
11213,72.0,0,958,4.0,40.0
11214,81.0,160,162,4.0,94.0
11215,82.0,162,117,4.0,90.0
11216,84.0,240,60,4.0,98.0
11217,82.0,60,60,4.0,71.0
11218,81.0,60,120,4.0,73.0
11219,74.0,0,480,4.0,45.0
11220,70.0,0,480,4.0,45.0
11221,82.0,120,240,4.0,85.0
11222,86.0,240,241,4.0,105.0
11223,89.0,0,159,4.0,76.0
11224,88.0,159,160,4.0,60.0
11225,87.0,160,160,4.0,48.0
11226,86.0,160,158,4.0,53.0
11227,87.0,158,160,4.0,63.0
11228,65.0,0,959,4.0,57.0
11229,69.0,0,959,4.0,57.0
11230,84.0,160,162,4.0,47.0
11231,75.0,241,959,4.0,57.0
11232,82.0,0,117,4.0,51.0
11233,84.0,240,60,4.0,64.0
11234,82.0,60,60,4.0,49.0
11235,81.0,60,120,4.0,55.0
11236,74.0,0,480,4.0,57.0
11237,70.0,162,480,4.0,57.0
11238,82.0,120,240,4.0,69.0
11239,86.0,240,237,4.0,71.0
11240,76.0,237,157,4.0,39.0
11241,77.0,157,160,4.0,64.0
11242,78.0,160,166,4.0,61.0
11243,79.0,166,158,4.0,65.0
11244,80.0,158,160,4.0,68.0
11245,65.0,0,963,4.0,50.0
11246,72.0,0,963,4.0,50.0
11247,81.0,160,162,4.0,62.0
11248,75.0,0,963,4.0,50.0
11249,82.0,0,119,4.0,66.0
11250,84.0,239,60,4.0,67.0
11251,82.0,60,60,4.0,54.0
11252,81.0,60,120,4.0,59.0
11253,74.0,163,479,4.0,50.0
11254,70.0,0,479,4.0,50.0
11255,82.0,120,241,4.0,65.0
11256,86.0,241,244,4.0,79.0
11257,89.0,0,159,4.0,73.0
11258,88.0,159,160,4.0,53.0
11259,87.0,160,157,4.0,52.0
11260,86.0,157,159,4.0,57.0
11261,87.0,159,158,4.0,65.0
11262,84.0,158,162,4.0,54.0
11263,75.0,0,955,4.0,54.0
11264,69.0,244,955,4.0,54.0
11265,65.0,0,955,4.0,54.0
11266,74.0,0,117,4.0,49.0
11267,70.0,0,117,4.0,49.0
11268,82.0,162,158,4.0,45.0
11269,86.0,158,160,4.0,60.0
11270,82.0,160,162,4.0,63.0
11271,72.0,162,117,4.0,66.0
11272,65.0,0,117,4.0,66.0
11273,89.0,0,158,4.0,66.0
11274,87.0,158,160,4.0,68.0
11275,84.0,160,162,4.0,71.0
11276,74.0,0,117,4.0,73.0
11277,70.0,0,117,4.0,73.0
11278,82.0,162,158,4.0,73.0
11279,86.0,158,160,4.0,76.0
11280,82.0,160,162,4.0,78.0
11281,72.0,0,117,4.0,81.0
11282,65.0,0,117,4.0,81.0
11283,89.0,162,154,4.0,81.0
11284,87.0,154,160,4.0,83.0
11285,84.0,160,166,4.0,86.0
11286,82.0,0,154,4.0,64.0
11287,86.0,154,162,4.0,106.0
11288,82.0,162,164,4.0,70.0
11289,74.0,166,480,4.0,74.0
11290,70.0,0,480,4.0,74.0
11291,89.0,164,158,4.0,110.0
11292,86.0,158,160,4.0,72.0
11293,82.0,160,162,4.0,62.0
11294,86.0,162,157,4.0,91.0
11295,82.0,157,157,4.0,64.0
11296,77.0,157,150,4.0,63.0
11297,82.0,150,156,4.0,99.0
11298,77.0,156,153,4.0,66.0
11299,74.0,153,187,4.0,60.0
11300,77.0,187,149,4.0,96.0
11301,74.0,149,161,4.0,75.0
11302,70.0,161,163,4.0,68.0
11303,74.0,163,160,4.0,101.0
11304,70.0,160,159,4.0,72.0
11305,65.0,159,161,4.0,61.0
11306,70.0,161,160,4.0,104.0
11307,65.0,160,157,4.0,63.0
11308,62.0,157,156,4.0,66.0
11309,65.0,156,159,4.0,79.0
11310,62.0,159,156,4.0,74.0
11311,58.0,156,179,4.0,70.0
11312,62.0,179,150,4.0,98.0
11313,58.0,150,162,4.0,78.0
11314,53.0,162,164,4.0,67.0
11315,58.0,164,158,4.0,90.0
11316,53.0,158,160,4.0,73.0
11317,50.0,160,162,4.0,75.0
11318,53.0,162,158,4.0,89.0
11319,50.0,158,158,4.0,82.0
11320,46.0,158,157,4.0,69.0
11321,50.0,157,159,4.0,88.0
11322,46.0,159,158,4.0,77.0
11323,41.0,158,174,4.0,74.0
11324,29.0,174,112,4.0,106.0
11325,41.0,233,119,4.0,126.0
11326,29.0,0,119,4.0,126.0
11327,53.0,0,120,4.0,68.0
11328,57.0,120,120,4.0,93.0
11329,43.0,0,119,4.0,126.0
11330,31.0,120,119,4.0,126.0
11331,55.0,0,123,4.0,81.0
11332,58.0,123,121,4.0,87.0
11333,33.0,0,119,4.0,126.0
11334,45.0,0,119,4.0,126.0
11335,57.0,121,123,4.0,77.0
11336,60.0,123,120,4.0,100.0
11337,46.0,120,117,4.0,126.0
11338,34.0,0,117,4.0,126.0
11339,58.0,0,117,4.0,82.0
11340,45.0,0,117,4.0,119.0
11341,33.0,0,117,4.0,119.0
11342,57.0,240,121,4.0,72.0
11343,60.0,121,121,4.0,91.0
11344,46.0,0,119,4.0,126.0
11345,34.0,121,119,4.0,126.0
11346,58.0,0,123,4.0,81.0
11347,62.0,123,121,4.0,90.0
11348,48.0,0,119,4.0,126.0
11349,36.0,0,119,4.0,126.0
11350,60.0,121,123,4.0,80.0
11351,63.0,123,111,4.0,100.0
11352,38.0,0,119,4.0,126.0
11353,62.0,0,119,4.0,82.0
11354,50.0,121,119,4.0,126.0
11355,46.0,0,119,4.0,114.0
11356,34.0,0,119,4.0,114.0
11357,58.0,236,120,4.0,78.0
11358,62.0,120,119,4.0,102.0
11359,36.0,0,117,4.0,126.0
11360,48.0,0,117,4.0,126.0
11361,60.0,119,120,4.0,79.0
11362,63.0,120,117,4.0,77.0
11363,50.0,0,119,4.0,126.0
11364,38.0,0,119,4.0,126.0
11365,62.0,117,120,4.0,73.0
11366,65.0,120,120,4.0,96.0
11367,39.0,0,119,4.0,77.0
11368,51.0,0,119,4.0,77.0
11369,63.0,120,120,4.0,83.0
11370,67.0,120,120,4.0,98.0
11371,53.0,120,119,4.0,90.0
11372,41.0,0,119,4.0,90.0
11373,65.0,0,123,4.0,81.0
11374,69.0,123,121,4.0,91.0
11375,55.0,0,119,4.0,89.0
11376,43.0,0,119,4.0,89.0
11377,67.0,121,120,4.0,75.0
11378,70.0,120,123,4.0,93.0
11379,57.0,123,117,4.0,91.0
11380,45.0,0,117,4.0,91.0
11381,69.0,0,120,4.0,72.0
11382,72.0,120,111,4.0,98.0
11383,58.0,0,119,4.0,79.0
11384,46.0,0,119,4.0,79.0
11385,70.0,121,119,4.0,75.0
11386,53.0,0,119,4.0,74.0
11387,41.0,0,119,4.0,74.0
11388,65.0,236,120,4.0,61.0
11389,69.0,120,120,4.0,91.0
11390,55.0,0,119,4.0,88.0
11391,43.0,0,119,4.0,88.0
11392,67.0,120,119,4.0,79.0
11393,70.0,119,120,4.0,99.0
11394,45.0,0,117,4.0,90.0
11395,57.0,0,117,4.0,90.0
11396,69.0,120,120,4.0,80.0
11397,72.0,120,120,4.0,97.0
11398,58.0,0,117,4.0,91.0
11399,46.0,0,117,4.0,91.0
11400,70.0,120,117,4.0,73.0
11401,57.0,0,117,4.0,80.0
11402,45.0,0,117,4.0,80.0
11403,69.0,240,120,4.0,78.0
11404,72.0,120,120,4.0,98.0
11405,58.0,0,117,4.0,87.0
11406,46.0,0,117,4.0,87.0
11407,70.0,120,120,4.0,74.0
11408,74.0,120,121,4.0,93.0
11409,60.0,0,119,4.0,89.0
11410,48.0,0,119,4.0,89.0
11411,72.0,121,120,4.0,77.0
11412,75.0,120,114,4.0,95.0
11413,74.0,120,119,4.0,76.0
11414,62.0,0,119,4.0,96.0
11415,50.0,0,119,4.0,96.0
11416,58.0,0,119,4.0,84.0
11417,46.0,0,119,4.0,84.0
11418,70.0,236,120,4.0,64.0
11419,74.0,120,120,4.0,99.0
11420,60.0,0,119,4.0,88.0
11421,48.0,120,119,4.0,88.0
11422,72.0,0,119,4.0,80.0
11423,75.0,119,120,4.0,99.0
11424,62.0,0,119,4.0,94.0
11425,50.0,120,119,4.0,94.0
11426,74.0,0,120,4.0,81.0
11427,77.0,120,121,4.0,88.0
11428,63.0,0,119,4.0,92.0
11429,51.0,0,119,4.0,92.0
11430,75.0,121,120,4.0,72.0
11431,79.0,120,120,4.0,94.0
11432,53.0,0,119,4.0,93.0
11433,65.0,0,119,4.0,93.0
11434,77.0,120,123,4.0,80.0
11435,81.0,123,124,4.0,94.0
11436,67.0,0,117,4.0,93.0
11437,55.0,0,117,4.0,93.0
11438,79.0,124,121,4.0,86.0
11439,82.0,121,120,4.0,97.0
11440,57.0,0,119,4.0,95.0
11441,69.0,0,119,4.0,95.0
11442,81.0,120,122,4.0,85.0
11443,84.0,122,108,4.0,101.0
11444,70.0,0,118,4.0,90.0
11445,58.0,120,118,4.0,90.0
11446,82.0,0,120,4.0,75.0
11447,86.0,120,120,4.0,105.0
11448,60.0,120,118,4.0,94.0
11449,72.0,0,118,4.0,94.0
11450,84.0,0,120,4.0,78.0
11451,87.0,120,118,4.0,95.0
11452,86.0,118,119,4.0,77.0
11453,74.0,0,119,4.0,98.0
11454,62.0,0,119,4.0,98.0
11455,52.0,0,117,4.0,91.0
11456,40.0,235,117,4.0,91.0
11457,64.0,0,117,4.0,78.0
11458,65.0,235,236,4.0,112.0
11459,67.0,236,120,4.0,95.0
11460,69.0,120,124,4.0,91.0
11461,70.0,124,120,4.0,92.0
11462,72.0,120,120,4.0,95.0
11463,74.0,120,120,4.0,93.0
11464,75.0,120,120,4.0,96.0
11465,53.0,0,960,4.0,106.0
11466,41.0,0,960,4.0,106.0
11467,77.0,120,120,4.0,96.0
11468,79.0,120,120,4.0,93.0
11469,81.0,120,120,4.0,98.0
11470,82.0,120,120,4.0,105.0
11471,83.0,120,78,4.0,91.0
11472,84.0,78,80,4.0,94.0
11473,85.0,80,82,4.0,98.0
11474,86.0,82,78,4.0,86.0
11475,87.0,78,80,4.0,97.0
11476,88.0,80,82,4.0,98.0
11477,89.0,82,117,4.0,87.0
11478,82.0,360,120,4.0,75.0
11479,84.0,120,120,4.0,97.0
11480,86.0,120,122,4.0,93.0
11481,84.0,122,60,4.0,75.0
11482,86.0,60,60,4.0,94.0
11483,84.0,60,60,4.0,74.0
11484,86.0,60,58,4.0,85.0
11485,84.0,60,60,4.0,81.0
11486,86.0,60,59,4.0,94.0
11487,84.0,59,60,4.0,78.0
11488,86.0,60,60,4.0,95.0
11489,84.0,60,60,4.0,75.0
11490,86.0,60,60,4.0,89.0
11491,84.0,60,60,4.0,74.0
11492,86.0,60,60,4.0,99.0
11493,84.0,60,60,4.0,73.0
11494,86.0,60,60,4.0,91.0
11495,84.0,60,60,4.0,73.0
11496,86.0,60,60,4.0,87.0
11497,84.0,0,60,4.0,72.0
11498,86.0,60,60,4.0,86.0
11499,84.0,60,60,4.0,69.0
11500,86.0,60,60,4.0,94.0
11501,84.0,60,60,4.0,73.0
11502,86.0,60,60,4.0,89.0
11503,84.0,60,60,4.0,70.0
11504,86.0,60,59,4.0,92.0
11505,84.0,59,60,4.0,81.0
11506,86.0,60,60,4.0,98.0
11507,84.0,60,60,4.0,73.0
11508,86.0,60,60,4.0,88.0
11509,84.0,60,60,4.0,71.0
11510,86.0,60,60,4.0,94.0
11511,84.0,60,60,4.0,75.0
11512,86.0,60,57,4.0,91.0
11513,82.0,57,119,4.0,72.0
11514,84.0,119,124,4.0,88.0
11515,63.0,60,1199,4.0,78.0
11516,57.0,0,1199,4.0,78.0
11517,53.0,0,1199,4.0,78.0
11518,46.0,0,239,10.0,98.0
11519,58.0,0,239,7.0,89.0
11520,70.0,0,239,1.0,72.0
11521,70.0,0,239,6.0,87.0
11522,70.0,0,239,3.0,78.0
11523,58.0,236,0,3.0,82.0
11524,58.0,0,0,2.0,86.0
11525,58.0,0,239,8.0,98.0
11526,70.0,121,239,5.0,87.0
11527,70.0,0,239,0.0,74.0
11528,72.0,0,60,1.0,87.0
11529,72.0,0,60,6.0,108.0
11530,72.0,0,60,5.0,111.0
11531,60.0,0,60,7.0,108.0
11532,72.0,0,60,0.0,92.0
11533,70.0,0,60,6.0,95.0
11534,70.0,0,60,0.0,72.0
11535,70.0,60,60,1.0,71.0
11536,58.0,0,60,7.0,96.0
11537,70.0,0,60,5.0,84.0
11538,69.0,0,120,0.0,73.0
11539,69.0,60,120,6.0,87.0
11540,70.0,0,240,3.0,82.0
11541,46.0,0,240,10.0,90.0
11542,57.0,0,120,7.0,93.0
11543,58.0,0,240,8.0,90.0
11544,69.0,0,120,1.0,78.0
11545,69.0,0,120,5.0,85.0
11546,58.0,0,241,2.0,78.0
11547,70.0,0,241,1.0,87.0
11548,70.0,0,241,6.0,100.0
11549,46.0,0,241,10.0,96.0
11550,58.0,0,241,8.0,96.0
11551,58.0,120,241,7.0,108.0
11552,70.0,0,241,0.0,89.0
11553,70.0,0,241,5.0,106.0
11554,58.0,0,241,3.0,86.0
11555,70.0,0,241,3.0,86.0
11556,62.0,0,119,7.0,118.0
11557,74.0,0,119,5.0,113.0
11558,74.0,0,119,6.0,124.0
11559,74.0,0,119,0.0,101.0
11560,74.0,0,119,1.0,110.0
11561,62.0,0,240,3.0,103.0
11562,74.0,0,240,3.0,103.0
11563,62.0,0,240,8.0,107.0
11564,62.0,3,957,4.0,81.0
11565,50.0,0,240,10.0,107.0
11566,82.0,0,957,4.0,77.0
11567,58.0,0,957,4.0,81.0
11568,62.0,241,240,2.0,99.0
11569,65.0,0,240,6.0,79.0
11570,65.0,240,240,0.0,65.0
11571,53.0,0,0,3.0,72.0
11572,65.0,0,0,3.0,72.0
11573,65.0,240,0,5.0,92.0
11574,53.0,0,240,2.0,68.0
11575,53.0,0,0,8.0,96.0
11576,65.0,0,0,1.0,73.0
11577,53.0,0,0,7.0,93.0
11578,41.0,0,0,10.0,96.0
11579,53.0,0,0,3.0,84.0
11580,65.0,0,0,3.0,84.0
11581,41.0,0,0,10.0,100.0
11582,53.0,0,0,7.0,93.0
11583,65.0,243,0,6.0,99.0
11584,65.0,0,0,0.0,85.0
11585,53.0,0,243,2.0,81.0
11586,53.0,0,240,8.0,100.0
11587,65.0,0,240,5.0,88.0
11588,65.0,0,240,1.0,84.0
11589,53.0,0,240,2.0,86.0
11590,55.0,240,120,7.0,111.0
11591,67.0,0,120,6.0,114.0
11592,55.0,0,120,2.0,89.0
11593,67.0,0,120,1.0,98.0
11594,67.0,0,120,5.0,111.0
11595,43.0,0,120,10.0,104.0
11596,67.0,0,120,0.0,88.0
11597,55.0,0,120,8.0,104.0
11598,45.0,0,120,10.0,112.0
11599,69.0,0,120,1.0,101.0
11600,57.0,0,120,2.0,92.0
11601,57.0,120,120,7.0,102.0
11602,69.0,0,120,6.0,111.0
11603,57.0,0,120,8.0,112.0
11604,69.0,0,120,5.0,109.0
11605,69.0,0,120,0.0,93.0
11606,70.0,0,237,6.0,107.0
11607,58.0,0,237,3.0,107.0
11608,70.0,0,237,3.0,107.0
11609,58.0,0,237,8.0,106.0
11610,70.0,120,237,1.0,92.0
11611,70.0,0,237,0.0,97.0
11612,58.0,0,237,2.0,96.0
11613,70.0,0,0,5.0,98.0
11614,58.0,0,0,7.0,97.0
11615,46.0,0,237,10.0,106.0
11616,70.0,237,240,6.0,94.0
11617,58.0,0,0,3.0,90.0
11618,70.0,0,0,3.0,90.0
11619,70.0,0,0,0.0,79.0
11620,70.0,0,0,1.0,90.0
11621,34.0,0,240,10.0,67.0
11622,58.0,240,0,7.0,93.0
11623,46.0,0,240,8.0,67.0
11624,46.0,0,0,2.0,79.0
11625,70.0,0,120,5.0,95.0
11626,34.0,0,120,10.0,92.0
11627,46.0,0,120,8.0,92.0
11628,70.0,0,120,6.0,99.0
11629,72.0,0,123,6.0,103.0
11630,48.0,0,123,2.0,86.0
11631,72.0,0,123,5.0,107.0
11632,72.0,0,123,1.0,96.0
11633,60.0,0,123,7.0,109.0
11634,48.0,0,123,8.0,105.0
11635,72.0,0,123,0.0,99.0
11636,36.0,120,123,10.0,105.0
11637,50.0,0,120,8.0,110.0
11638,38.0,0,120,10.0,110.0
11639,50.0,123,120,2.0,92.0
11640,74.0,0,120,5.0,114.0
11641,74.0,0,120,6.0,114.0
11642,74.0,0,120,1.0,99.0
11643,74.0,0,120,0.0,97.0
11644,62.0,0,120,7.0,119.0
11645,75.0,0,120,1.0,96.0
11646,75.0,0,120,0.0,85.0
11647,75.0,120,120,5.0,114.0
11648,39.0,0,120,10.0,113.0
11649,63.0,0,120,7.0,109.0
11650,51.0,0,120,2.0,88.0
11651,75.0,0,120,6.0,102.0
11652,51.0,0,120,8.0,113.0
11653,77.0,0,242,6.0,113.0
11654,77.0,0,242,1.0,96.0
11655,41.0,0,0,10.0,93.0
11656,77.0,0,242,3.0,112.0
11657,65.0,0,242,3.0,112.0
11658,77.0,0,0,5.0,100.0
11659,65.0,0,242,7.0,110.0
11660,53.0,0,0,8.0,93.0
11661,77.0,0,0,0.0,83.0
11662,53.0,0,0,2.0,90.0
11663,77.0,0,247,1.0,93.0
11664,53.0,0,0,8.0,95.0
11665,41.0,0,0,10.0,95.0
11666,77.0,0,0,6.0,98.0
11667,65.0,0,247,7.0,102.0
11668,77.0,0,247,3.0,90.0
11669,65.0,0,247,3.0,90.0
11670,65.0,0,243,7.0,103.0
11671,53.0,0,243,2.0,85.0
11672,77.0,247,243,1.0,93.0
11673,77.0,0,243,0.0,81.0
11674,77.0,0,243,5.0,97.0
11675,67.0,243,124,7.0,110.0
11676,79.0,0,124,5.0,110.0
11677,55.0,0,124,8.0,106.0
11678,79.0,0,124,0.0,91.0
11679,79.0,0,124,1.0,97.0
11680,43.0,0,124,10.0,106.0
11681,79.0,0,124,6.0,107.0
11682,55.0,0,124,2.0,95.0
11683,81.0,0,104,0.0,99.0
11684,81.0,0,104,1.0,98.0
11685,77.0,0,471,3.0,91.0
11686,65.0,0,471,3.0,91.0
11687,45.0,0,104,10.0,105.0
11688,57.0,0,104,2.0,95.0
11689,69.0,0,104,7.0,113.0
11690,81.0,0,104,5.0,106.0
11691,57.0,124,104,8.0,105.0
11692,81.0,0,104,6.0,105.0
11693,82.0,0,239,6.0,106.0
11694,82.0,0,239,1.0,98.0
11695,70.0,0,239,7.0,111.0
11696,82.0,239,0,5.0,108.0
11697,82.0,0,239,0.0,95.0
11698,74.0,0,239,3.0,62.0
11699,62.0,0,239,3.0,62.0
11700,58.0,0,0,8.0,99.0
11701,58.0,0,0,2.0,86.0
11702,46.0,0,239,10.0,100.0
11703,70.0,0,236,3.0,61.0
11704,58.0,0,0,8.0,100.0
11705,46.0,0,236,10.0,99.0
11706,82.0,236,0,1.0,76.0
11707,58.0,0,236,3.0,61.0
11708,82.0,0,236,6.0,103.0
11709,70.0,0,0,7.0,102.0
11710,58.0,0,0,2.0,84.0
11711,82.0,0,0,0.0,85.0
11712,82.0,0,241,5.0,100.0
11713,84.0,120,121,0.0,89.0
11714,62.0,0,241,3.0,92.0
11715,74.0,0,241,3.0,92.0
11716,82.0,0,241,6.0,96.0
11717,46.0,0,241,10.0,100.0
11718,45.0,0,120,10.0,95.0
11719,86.0,0,120,0.0,96.0
11720,69.0,0,120,7.0,87.0
11721,81.0,0,120,5.0,93.0
11722,81.0,0,120,6.0,88.0
11723,57.0,0,120,2.0,78.0
11724,81.0,0,120,1.0,75.0
11725,57.0,121,120,8.0,95.0
11726,55.0,0,123,2.0,77.0
11727,79.0,0,123,6.0,81.0
11728,79.0,0,123,5.0,90.0
11729,87.0,0,123,0.0,91.0
11730,58.0,0,243,3.0,70.0
11731,67.0,0,123,7.0,78.0
11732,55.0,0,123,8.0,93.0
11733,79.0,0,123,1.0,72.0
11734,43.0,120,123,10.0,93.0
11735,70.0,0,243,3.0,70.0
11736,53.0,120,470,3.0,54.0
11737,65.0,0,470,3.0,54.0
11738,77.0,0,472,5.0,88.0
11739,41.0,3,472,10.0,87.0
11740,77.0,0,472,1.0,72.0
11741,65.0,0,472,7.0,85.0
11742,77.0,0,472,6.0,79.0
11743,89.0,0,472,0.0,98.0
11744,53.0,0,472,2.0,70.0
11745,53.0,0,472,8.0,87.0
11746,77.0,0,967,1.0,54.0
11747,81.0,0,967,0.0,51.0
11748,65.0,0,967,5.0,55.0
11749,57.0,0,967,7.0,49.0
11750,74.0,967,0,1.0,47.0
11751,50.0,0,967,8.0,56.0
11752,62.0,0,967,6.0,50.0
11753,38.0,0,967,10.0,56.0
11754,83.0,0,860,0.0,62.0
11755,65.0,0,964,2.0,49.0
11756,62.0,0,964,5.0,56.0
11757,62.0,0,964,2.0,36.0
11758,59.0,0,964,6.0,55.0
11759,55.0,0,964,8.0,68.0
11760,43.0,0,964,10.0,68.0
11761,71.0,0,964,1.0,47.0
11762,84.0,953,243,0.0,65.0
11763,86.0,232,78,0.0,65.0
11764,84.0,78,80,0.0,58.0
11765,83.0,80,83,0.0,55.0
11766,84.0,83,247,0.0,68.0
11767,70.0,0,961,1.0,78.0
11768,55.0,0,1925,7.0,54.0
11769,36.0,0,961,10.0,46.0
11770,58.0,0,961,6.0,52.0
11771,64.0,0,961,2.0,53.0
11772,86.0,247,241,0.0,62.0
11773,67.0,11,961,5.0,65.0
11774,79.0,0,961,1.0,78.0
11775,48.0,0,961,8.0,46.0
11776,87.0,0,481,0.0,64.0
11777,57.0,0,859,6.0,69.0
11778,69.0,241,859,1.0,40.0
11779,72.0,0,859,1.0,40.0
11780,60.0,0,859,5.0,47.0
11781,65.0,0,959,3.0,74.0
11782,41.0,0,959,10.0,71.0
11783,63.0,0,959,2.0,60.0
11784,87.0,481,478,0.0,63.0
11785,53.0,0,959,8.0,71.0
11786,60.0,0,1920,2.0,33.0
11787,58.0,0,240,6.0,66.0
11788,62.0,479,240,5.0,58.0
11789,70.0,0,240,1.0,58.0
11790,74.0,0,0,1.0,73.0
11791,62.0,0,480,2.0,51.0
11792,58.0,0,480,2.0,51.0
11793,62.0,240,240,6.0,79.0
11794,34.0,0,480,10.0,54.0
11795,86.0,0,480,0.0,56.0
11796,77.0,0,240,1.0,73.0
11797,46.0,0,480,8.0,54.0
11798,53.0,0,1440,7.0,57.0
11799,58.0,0,480,3.0,111.0
11800,70.0,0,480,3.0,111.0
11801,70.0,0,240,5.0,85.0
11802,75.0,0,239,1.0,78.0
11803,67.0,0,239,5.0,55.0
11804,63.0,0,239,6.0,63.0
11805,79.0,0,239,1.0,78.0
11806,60.0,0,190,6.0,46.0
11807,63.0,0,190,5.0,44.0
11808,75.0,0,240,1.0,57.0
11809,63.0,0,479,2.0,57.0
11810,60.0,0,479,2.0,57.0
11811,72.0,239,240,1.0,57.0
11812,39.0,0,479,10.0,61.0
11813,51.0,0,479,8.0,61.0
11814,87.0,0,479,0.0,69.0
11815,55.0,240,479,7.0,61.0
11816,74.0,0,480,1.0,53.0
11817,53.0,0,480,7.0,64.0
11818,41.0,240,480,10.0,61.0
11819,70.0,0,480,1.0,53.0
11820,86.0,0,480,0.0,63.0
11821,53.0,0,480,8.0,61.0
11822,62.0,0,480,5.0,49.0
11823,62.0,0,480,2.0,52.0
11824,58.0,0,480,2.0,52.0
11825,70.0,0,480,3.0,77.0
11826,74.0,0,480,3.0,77.0
11827,58.0,0,480,6.0,52.0
11828,60.0,0,380,5.0,59.0
11829,57.0,0,380,6.0,55.0
11830,57.0,0,480,2.0,53.0
11831,60.0,0,480,2.0,53.0
11832,41.0,0,480,8.0,45.0
11833,29.0,480,480,10.0,45.0
11834,69.0,0,480,1.0,52.0
11835,72.0,0,480,3.0,71.0
11836,72.0,0,480,1.0,52.0
11837,84.0,0,480,0.0,55.0
11838,53.0,0,480,7.0,58.0
11839,65.0,0,480,3.0,71.0
11840,82.0,0,116,5.0,70.0
11841,82.0,240,57,5.0,72.0
11842,82.0,120,57,5.0,72.0
11843,82.0,120,117,5.0,73.0
11844,82.0,240,117,5.0,73.0
11845,82.0,240,240,5.0,73.0
11846,86.0,240,190,5.0,73.0
11847,77.0,240,240,5.0,72.0
11848,82.0,240,190,5.0,72.0
11849,62.0,3,1920,7.0,88.0
11850,70.0,0,1920,3.0,47.0
11851,62.0,0,1920,3.0,47.0
11852,65.0,477,1923,6.0,80.0
11853,74.0,0,117,5.0,70.0
11854,74.0,240,57,5.0,70.0
11855,74.0,120,57,5.0,72.0
11856,74.0,120,117,5.0,73.0
11857,74.0,240,117,5.0,74.0
11858,74.0,240,240,5.0,75.0
11859,77.0,240,190,5.0,73.0
11860,70.0,240,240,5.0,75.0
11861,74.0,240,190,5.0,73.0
11862,74.0,0,1920,3.0,78.0
11863,58.0,240,1920,3.0,78.0
11864,70.0,0,1920,6.0,79.0
11865,58.0,0,1920,7.0,60.0
11866,65.0,0,117,5.0,70.0
11867,62.0,0,240,7.0,75.0
11868,65.0,0,240,6.0,50.0
11869,65.0,240,57,5.0,72.0
11870,65.0,120,57,5.0,72.0
11871,65.0,0,117,5.0,72.0
11872,62.0,0,240,6.0,54.0
11873,58.0,120,240,7.0,53.0
11874,65.0,240,117,5.0,72.0
11875,65.0,0,117,5.0,72.0
11876,60.0,0,240,7.0,50.0
11877,63.0,240,240,6.0,53.0
11878,65.0,240,117,5.0,72.0
11879,65.0,0,117,5.0,72.0
11880,57.0,240,240,7.0,65.0
11881,60.0,0,240,6.0,54.0
11882,65.0,240,93,5.0,72.0
11883,77.0,0,1920,3.0,72.0
11884,53.0,240,1920,3.0,72.0
11885,70.0,0,117,1.0,58.0
11886,82.0,0,117,1.0,58.0
11887,82.0,0,117,0.0,67.0
11888,82.0,240,57,0.0,73.0
11889,82.0,0,57,1.0,64.0
11890,70.0,0,57,1.0,64.0
11891,82.0,120,57,0.0,66.0
11892,70.0,0,57,1.0,74.0
11893,82.0,0,57,1.0,74.0
11894,82.0,0,117,1.0,62.0
11895,70.0,120,117,1.0,62.0
11896,82.0,0,117,0.0,75.0
11897,82.0,0,117,1.0,69.0
11898,70.0,240,117,1.0,69.0
11899,82.0,0,117,0.0,63.0
11900,82.0,0,240,0.0,70.0
11901,70.0,0,240,1.0,67.0
11902,82.0,240,240,1.0,67.0
11903,86.0,240,240,0.0,85.0
11904,74.0,0,240,1.0,54.0
11905,77.0,240,240,0.0,54.0
11906,77.0,0,240,1.0,84.0
11907,65.0,0,240,1.0,84.0
11908,58.0,0,1920,7.0,43.0
11909,38.0,0,1920,10.0,44.0
11910,82.0,0,240,0.0,87.0
11911,70.0,240,240,1.0,46.0
11912,77.0,0,1920,5.0,68.0
11913,65.0,240,1920,6.0,38.0
11914,50.0,0,1920,8.0,44.0
11915,74.0,0,117,1.0,84.0
11916,62.0,0,117,2.0,70.0
11917,74.0,240,57,1.0,76.0
11918,62.0,0,57,2.0,71.0
11919,74.0,120,57,1.0,67.0
11920,62.0,0,57,2.0,63.0
11921,74.0,240,480,0.0,50.0
11922,62.0,0,480,1.0,53.0
11923,62.0,120,117,2.0,71.0
11924,74.0,0,117,1.0,78.0
11925,74.0,0,117,1.0,73.0
11926,62.0,240,117,2.0,70.0
11927,74.0,0,240,1.0,67.0
11928,62.0,240,240,2.0,62.0
11929,77.0,0,240,1.0,90.0
11930,65.0,240,240,2.0,83.0
11931,70.0,240,240,1.0,53.0
11932,58.0,0,240,2.0,67.0
11933,46.0,0,1920,8.0,47.0
11934,62.0,240,240,2.0,79.0
11935,77.0,0,1920,6.0,69.0
11936,34.0,0,1920,10.0,47.0
11937,82.0,0,1920,5.0,66.0
11938,70.0,0,1920,7.0,71.0
11939,74.0,0,240,1.0,76.0
11940,65.0,0,117,3.0,74.0
11941,53.0,0,117,2.0,65.0
11942,77.0,0,240,5.0,38.0
11943,62.0,0,240,7.0,40.0
11944,74.0,0,240,6.0,41.0
11945,65.0,0,240,7.0,40.0
11946,53.0,0,57,2.0,64.0
11947,65.0,240,57,3.0,83.0
11948,65.0,0,57,3.0,72.0
11949,53.0,120,57,2.0,68.0
11950,41.0,0,480,10.0,54.0
11951,65.0,0,480,1.0,50.0
11952,53.0,240,480,8.0,54.0
11953,53.0,0,117,2.0,67.0
11954,65.0,120,117,3.0,75.0
11955,74.0,0,240,5.0,47.0
11956,62.0,0,240,7.0,47.0
11957,70.0,0,240,6.0,43.0
11958,58.0,0,240,7.0,47.0
11959,53.0,240,117,2.0,72.0
11960,65.0,0,117,3.0,76.0
11961,65.0,240,117,3.0,69.0
11962,53.0,0,117,2.0,67.0
11963,75.0,0,240,5.0,42.0
11964,60.0,0,240,7.0,48.0
11965,63.0,0,240,7.0,48.0
11966,72.0,0,240,6.0,46.0
11967,65.0,240,117,3.0,75.0
11968,53.0,0,117,2.0,72.0
11969,53.0,0,117,2.0,68.0
11970,65.0,0,117,3.0,78.0
11971,60.0,0,240,7.0,42.0
11972,57.0,0,240,7.0,42.0
11973,69.0,240,240,6.0,41.0
11974,72.0,0,240,5.0,54.0
11975,53.0,240,117,2.0,67.0
11976,65.0,0,117,3.0,75.0
11977,70.0,0,116,0.0,76.0
11978,58.0,0,116,6.0,86.0
11979,58.0,0,116,5.0,87.0
11980,60.0,0,59,5.0,111.0
11981,60.0,0,59,6.0,109.0
11982,72.0,249,59,0.0,90.0
11983,62.0,124,58,5.0,113.0
11984,62.0,0,58,6.0,116.0
11985,74.0,0,58,0.0,96.0
11986,70.0,0,497,3.0,107.0
11987,58.0,0,497,3.0,107.0
11988,58.0,0,497,7.0,91.0
11989,46.0,0,497,2.0,68.0
11990,34.0,0,497,10.0,84.0
11991,46.0,209,497,8.0,84.0
11992,63.0,0,58,5.0,110.0
11993,75.0,0,58,0.0,97.0
11994,63.0,124,58,6.0,109.0
11995,65.0,0,57,6.0,111.0
11996,65.0,126,57,5.0,121.0
11997,77.0,0,57,0.0,98.0
11998,67.0,0,57,5.0,111.0
11999,79.0,0,57,0.0,97.0
12000,67.0,128,57,6.0,120.0
12001,69.0,0,57,6.0,113.0
12002,69.0,0,57,5.0,119.0
12003,81.0,125,57,0.0,93.0
12004,70.0,0,121,6.0,109.0
12005,70.0,0,121,5.0,113.0
12006,82.0,124,121,0.0,95.0
12007,81.0,0,120,0.0,79.0
12008,69.0,0,120,5.0,94.0
12009,69.0,121,120,6.0,94.0
12010,70.0,0,120,5.0,108.0
12011,70.0,0,120,6.0,109.0
12012,82.0,0,120,0.0,93.0
12013,69.0,0,120,6.0,83.0
12014,69.0,120,120,5.0,89.0
12015,67.0,0,240,7.0,85.0
12016,81.0,0,120,0.0,73.0
12017,70.0,0,240,3.0,79.0
12018,58.0,0,240,3.0,79.0
12019,51.0,0,240,8.0,88.0
12020,51.0,0,240,2.0,68.0
12021,39.0,120,240,10.0,88.0
12022,70.0,0,120,6.0,109.0
12023,70.0,120,120,5.0,103.0
12024,82.0,0,120,0.0,89.0
12025,65.0,0,240,7.0,89.0
12026,69.0,0,120,6.0,86.0
12027,38.0,0,240,10.0,89.0
12028,58.0,0,0,3.0,81.0
12029,50.0,0,240,8.0,89.0
12030,50.0,0,240,2.0,78.0
12031,70.0,0,0,3.0,81.0
12032,69.0,0,120,5.0,86.0
12033,81.0,120,120,0.0,77.0
12034,70.0,0,120,5.0,112.0
12035,70.0,120,120,6.0,106.0
12036,82.0,0,120,0.0,95.0
12037,69.0,0,96,6.0,92.0
12038,81.0,0,96,0.0,80.0
12039,69.0,120,96,5.0,90.0
12040,63.0,0,230,7.0,79.0
12041,36.0,0,230,10.0,94.0
12042,48.0,0,230,2.0,76.0
12043,48.0,0,230,8.0,94.0
12044,70.0,0,117,5.0,110.0
12045,70.0,0,117,6.0,105.0
12046,70.0,0,2196,1.0,80.0
12047,72.0,0,57,6.0,106.0
12048,72.0,236,57,5.0,110.0
12049,72.0,0,57,1.0,92.0
12050,74.0,0,57,1.0,92.0
12051,74.0,120,57,6.0,115.0
12052,74.0,0,57,5.0,116.0
12053,46.0,0,473,2.0,80.0
12054,82.0,0,473,0.0,91.0
12055,34.0,0,473,10.0,89.0
12056,58.0,119,473,3.0,81.0
12057,62.0,0,473,7.0,95.0
12058,70.0,0,0,3.0,83.0
12059,46.0,0,473,8.0,89.0
12060,75.0,117,59,6.0,113.0
12061,75.0,0,59,1.0,98.0
12062,75.0,0,59,5.0,112.0
12063,77.0,0,59,5.0,112.0
12064,77.0,120,59,1.0,94.0
12065,77.0,0,59,6.0,113.0
12066,79.0,0,59,6.0,112.0
12067,79.0,0,59,1.0,92.0
12068,79.0,120,59,5.0,116.0
12069,58.0,0,360,3.0,83.0
12070,81.0,0,59,1.0,94.0
12071,81.0,0,59,5.0,114.0
12072,81.0,0,59,6.0,111.0
12073,70.0,0,123,3.0,91.0
12074,58.0,120,123,3.0,91.0
12075,82.0,0,120,1.0,93.0
12076,82.0,0,120,6.0,106.0
12077,82.0,0,120,0.0,70.0
12078,82.0,123,120,5.0,114.0
12079,81.0,0,117,5.0,97.0
12080,70.0,0,237,3.0,84.0
12081,81.0,120,117,6.0,90.0
12082,81.0,0,117,0.0,73.0
12083,81.0,0,117,1.0,79.0
12084,58.0,0,0,3.0,80.0
12085,82.0,0,120,6.0,106.0
12086,82.0,0,120,0.0,83.0
12087,82.0,117,120,5.0,108.0
12088,82.0,0,120,1.0,92.0
12089,39.0,0,240,10.0,94.0
12090,81.0,0,120,0.0,77.0
12091,81.0,0,120,1.0,71.0
12092,81.0,0,120,5.0,85.0
12093,81.0,120,120,6.0,87.0
12094,51.0,0,240,2.0,69.0
12095,67.0,0,240,7.0,90.0
12096,51.0,0,240,8.0,94.0
12097,58.0,0,0,3.0,82.0
12098,70.0,0,0,3.0,82.0
12099,82.0,0,120,0.0,90.0
12100,82.0,0,120,5.0,112.0
12101,82.0,0,120,6.0,109.0
12102,82.0,0,120,1.0,92.0
12103,58.0,0,0,3.0,89.0
12104,70.0,119,0,3.0,89.0
12105,50.0,0,239,8.0,86.0
12106,81.0,0,119,6.0,87.0
12107,81.0,0,119,5.0,92.0
12108,50.0,120,239,2.0,74.0
12109,81.0,0,119,1.0,83.0
12110,65.0,0,239,7.0,85.0
12111,81.0,120,119,0.0,79.0
12112,38.0,0,239,10.0,86.0
12113,82.0,0,120,6.0,107.0
12114,82.0,0,120,0.0,94.0
12115,82.0,0,120,5.0,113.0
12116,82.0,0,120,1.0,95.0
12117,81.0,0,96,0.0,71.0
12118,81.0,120,96,5.0,95.0
12119,81.0,0,96,6.0,84.0
12120,81.0,0,96,1.0,81.0
12121,48.0,0,239,8.0,92.0
12122,36.0,0,239,10.0,92.0
12123,48.0,0,239,2.0,73.0
12124,63.0,0,239,7.0,79.0
12125,82.0,0,239,5.0,112.0
12126,46.0,0,239,2.0,79.0
12127,82.0,0,239,6.0,106.0
12128,34.0,0,239,10.0,89.0
12129,82.0,0,239,1.0,89.0
12130,62.0,120,239,7.0,82.0
12131,58.0,0,239,3.0,81.0
12132,70.0,0,239,3.0,81.0
12133,82.0,0,239,0.0,86.0
12134,46.0,0,239,8.0,89.0
12135,74.0,0,237,6.0,96.0
12136,86.0,0,237,5.0,125.0
12137,77.0,0,237,5.0,125.0
12138,58.0,479,237,8.0,122.0
12139,70.0,0,237,7.0,126.0
12140,46.0,0,237,10.0,122.0
12141,82.0,0,237,6.0,96.0
12142,58.0,0,237,6.0,68.0
12143,58.0,0,237,7.0,76.0
12144,70.0,0,237,1.0,76.0
12145,82.0,0,237,0.0,76.0
12146,46.0,0,237,8.0,76.0
12147,58.0,480,237,5.0,78.0
12148,34.0,0,237,10.0,76.0
12149,46.0,0,237,2.0,78.0
12150,58.0,0,237,3.0,73.0
12151,82.0,0,237,0.0,82.0
12152,58.0,0,237,3.0,79.0
12153,46.0,480,237,8.0,95.0
12154,58.0,0,237,6.0,88.0
12155,58.0,0,237,7.0,95.0
12156,70.0,0,237,1.0,82.0
12157,46.0,0,237,2.0,83.0
12158,34.0,0,237,10.0,95.0
12159,58.0,0,237,5.0,88.0
12160,58.0,0,842,3.0,93.0
12161,82.0,480,842,0.0,90.0
12162,58.0,0,842,7.0,111.0
12163,70.0,0,842,1.0,96.0
12164,46.0,0,842,8.0,108.0
12165,46.0,0,842,2.0,101.0
12166,58.0,0,842,6.0,107.0
12167,34.0,0,842,10.0,108.0
12168,58.0,0,842,5.0,112.0
