,note,step,duration,channel,velocity
0,69.0,0,96,0.0,80.0
1,69.0,0,96,7.0,80.0
2,66.0,120,48,8.0,80.0
3,38.0,0,96,12.0,80.0
4,50.0,0,96,11.0,80.0
5,62.0,0,96,10.0,80.0
6,69.0,60,48,8.0,80.0
7,66.0,0,48,8.0,80.0
8,50.0,60,96,11.0,80.0
9,62.0,0,96,10.0,80.0
10,38.0,0,96,12.0,80.0
11,69.0,60,48,8.0,80.0
12,74.0,0,288,7.0,80.0
13,66.0,60,48,8.0,80.0
14,74.0,0,288,0.0,80.0
15,38.0,0,96,12.0,80.0
16,62.0,0,96,10.0,80.0
17,50.0,0,96,11.0,80.0
18,69.0,60,48,8.0,80.0
19,66.0,0,48,8.0,80.0
20,62.0,0,96,10.0,80.0
21,38.0,0,96,12.0,80.0
22,78.0,0,96,7.0,80.0
23,50.0,60,96,11.0,80.0
24,78.0,0,96,0.0,80.0
25,69.0,60,48,8.0,80.0
26,66.0,0,48,8.0,80.0
27,62.0,0,96,10.0,80.0
28,38.0,60,96,12.0,80.0
29,50.0,0,96,11.0,80.0
30,69.0,60,48,8.0,80.0
31,66.0,60,48,8.0,80.0
32,50.0,0,96,11.0,80.0
33,62.0,0,96,10.0,80.0
34,38.0,0,96,12.0,80.0
35,69.0,60,48,8.0,80.0
36,66.0,60,48,8.0,80.0
37,81.0,0,288,7.0,80.0
38,81.0,0,288,0.0,80.0
39,62.0,0,96,10.0,80.0
40,38.0,0,96,12.0,80.0
41,50.0,0,96,11.0,80.0
42,69.0,60,48,8.0,80.0
43,66.0,0,48,8.0,80.0
44,78.0,0,96,0.0,80.0
45,50.0,0,96,11.0,80.0
46,38.0,0,96,12.0,80.0
47,78.0,0,96,7.0,80.0
48,62.0,60,96,10.0,80.0
49,69.0,60,48,8.0,80.0
50,67.0,0,48,8.0,80.0
51,61.0,0,96,10.0,80.0
52,76.0,0,96,0.0,80.0
53,33.0,0,96,12.0,80.0
54,76.0,0,96,7.0,80.0
55,45.0,60,96,11.0,80.0
56,69.0,60,48,8.0,80.0
57,67.0,60,48,8.0,80.0
58,45.0,0,96,12.0,80.0
59,76.0,0,96,0.0,80.0
60,57.0,0,96,11.0,80.0
61,76.0,0,96,7.0,80.0
62,61.0,0,96,10.0,80.0
63,69.0,60,48,8.0,80.0
64,78.0,0,48,0.0,80.0
65,78.0,0,48,7.0,80.0
66,67.0,0,48,8.0,80.0
67,33.0,0,96,12.0,80.0
68,61.0,60,96,10.0,80.0
69,45.0,0,96,11.0,80.0
70,76.0,0,48,7.0,80.0
71,69.0,0,48,8.0,80.0
72,76.0,60,48,0.0,80.0
73,67.0,0,48,8.0,80.0
74,75.0,0,48,0.0,80.0
75,75.0,0,48,7.0,80.0
76,45.0,0,96,12.0,80.0
77,61.0,60,96,10.0,80.0
78,57.0,0,96,11.0,80.0
79,76.0,0,48,7.0,80.0
80,69.0,0,48,8.0,80.0
81,76.0,60,48,0.0,80.0
82,67.0,60,48,8.0,80.0
83,73.0,0,96,0.0,80.0
84,73.0,0,96,7.0,80.0
85,33.0,0,96,12.0,80.0
86,64.0,0,96,10.0,80.0
87,45.0,0,96,11.0,80.0
88,69.0,60,48,8.0,80.0
89,67.0,0,48,8.0,80.0
90,73.0,0,96,7.0,80.0
91,45.0,0,96,12.0,80.0
92,73.0,0,96,0.0,80.0
93,57.0,0,96,11.0,80.0
94,64.0,60,96,10.0,80.0
95,69.0,60,48,8.0,80.0
96,74.0,60,48,0.0,80.0
97,67.0,0,48,8.0,80.0
98,74.0,0,48,7.0,80.0
99,45.0,0,96,11.0,80.0
100,64.0,0,96,10.0,80.0
101,33.0,0,96,12.0,80.0
102,69.0,60,48,8.0,80.0
103,73.0,0,48,7.0,80.0
104,73.0,0,48,0.0,80.0
105,71.0,0,48,7.0,80.0
106,71.0,0,48,0.0,80.0
107,67.0,60,48,8.0,80.0
108,45.0,0,96,12.0,80.0
109,57.0,0,96,11.0,80.0
110,64.0,0,96,10.0,80.0
111,73.0,60,48,7.0,80.0
112,73.0,0,48,0.0,80.0
113,69.0,0,48,8.0,80.0
114,66.0,0,48,8.0,80.0
115,62.0,0,96,10.0,80.0
116,38.0,0,96,12.0,80.0
117,74.0,0,96,0.0,80.0
118,74.0,0,96,7.0,80.0
119,50.0,60,96,11.0,80.0
120,69.0,60,48,8.0,80.0
121,66.0,0,48,8.0,80.0
122,38.0,60,96,12.0,80.0
123,50.0,0,96,11.0,80.0
124,69.0,60,48,8.0,80.0
125,66.0,0,48,8.0,80.0
126,57.0,0,192,10.0,80.0
127,74.0,0,192,7.0,80.0
128,74.0,0,192,0.0,80.0
129,38.0,60,96,12.0,80.0
130,50.0,0,96,11.0,80.0
131,69.0,60,48,8.0,80.0
132,66.0,0,48,8.0,80.0
133,50.0,0,96,11.0,80.0
134,78.0,0,96,0.0,80.0
135,38.0,60,96,12.0,80.0
136,78.0,0,96,7.0,80.0
137,62.0,0,96,10.0,80.0
138,69.0,60,48,8.0,80.0
139,62.0,0,48,8.0,80.0
140,38.0,0,96,12.0,80.0
141,81.0,0,96,7.0,80.0
142,50.0,60,96,11.0,80.0
143,81.0,0,96,0.0,80.0
144,66.0,0,96,10.0,80.0
145,69.0,60,48,8.0,80.0
146,62.0,0,48,8.0,80.0
147,38.0,60,96,12.0,80.0
148,50.0,0,96,11.0,80.0
149,69.0,60,48,8.0,80.0
150,62.0,0,48,8.0,80.0
151,81.0,0,192,7.0,80.0
152,66.0,0,192,10.0,80.0
153,81.0,0,192,0.0,80.0
154,38.0,0,96,12.0,80.0
155,50.0,60,96,11.0,80.0
156,69.0,60,48,8.0,80.0
157,62.0,0,48,8.0,80.0
158,78.0,0,96,7.0,80.0
159,50.0,0,96,11.0,80.0
160,38.0,0,96,12.0,80.0
161,78.0,0,96,0.0,80.0
162,69.0,60,96,10.0,80.0
163,69.0,60,48,8.0,80.0
164,61.0,0,48,8.0,80.0
165,52.0,0,96,11.0,80.0
166,76.0,0,96,0.0,80.0
167,40.0,60,96,12.0,80.0
168,76.0,0,96,7.0,80.0
169,64.0,0,96,10.0,80.0
170,64.0,60,48,8.0,80.0
171,61.0,0,48,8.0,80.0
172,64.0,60,96,10.0,80.0
173,40.0,0,96,12.0,80.0
174,52.0,0,96,11.0,80.0
175,64.0,60,48,8.0,80.0
176,61.0,0,48,8.0,80.0
177,81.0,0,192,0.0,80.0
178,81.0,0,192,7.0,80.0
179,64.0,60,96,10.0,80.0
180,52.0,0,96,11.0,80.0
181,40.0,0,96,12.0,80.0
182,64.0,60,48,8.0,80.0
183,83.0,0,48,0.0,80.0
184,83.0,0,48,7.0,80.0
185,62.0,0,48,8.0,80.0
186,52.0,0,96,11.0,80.0
187,64.0,0,96,10.0,80.0
188,40.0,60,96,12.0,80.0
189,80.0,0,48,0.0,80.0
190,59.0,60,48,8.0,80.0
191,80.0,0,48,7.0,80.0
192,45.0,0,96,12.0,80.0
193,57.0,60,96,11.0,80.0
194,81.0,0,192,7.0,80.0
195,61.0,0,192,8.0,80.0
196,81.0,0,192,0.0,80.0
197,64.0,0,192,10.0,80.0
198,40.0,0,96,12.0,80.0
199,52.0,120,96,11.0,80.0
200,33.0,120,96,12.0,80.0
201,45.0,0,96,11.0,80.0
202,69.0,0,96,0.0,80.0
203,69.0,120,96,7.0,80.0
204,66.0,120,48,8.0,80.0
205,38.0,0,96,12.0,80.0
206,62.0,0,96,10.0,80.0
207,50.0,0,96,11.0,80.0
208,69.0,60,48,8.0,80.0
209,66.0,0,48,8.0,80.0
210,50.0,60,96,11.0,80.0
211,38.0,0,96,12.0,80.0
212,62.0,0,96,10.0,80.0
213,69.0,60,48,8.0,80.0
214,74.0,0,288,7.0,80.0
215,74.0,0,288,0.0,80.0
216,66.0,0,48,8.0,80.0
217,38.0,60,96,12.0,80.0
218,50.0,0,96,11.0,80.0
219,62.0,0,96,10.0,80.0
220,69.0,60,48,8.0,80.0
221,66.0,0,48,8.0,80.0
222,78.0,0,96,0.0,80.0
223,38.0,0,96,12.0,80.0
224,78.0,60,96,7.0,80.0
225,50.0,0,96,11.0,80.0
226,62.0,0,96,10.0,80.0
227,69.0,60,48,8.0,80.0
228,66.0,60,48,8.0,80.0
229,50.0,0,96,11.0,80.0
230,38.0,0,96,12.0,80.0
231,62.0,0,96,10.0,80.0
232,69.0,60,48,8.0,80.0
233,66.0,60,48,8.0,80.0
234,38.0,0,96,12.0,80.0
235,50.0,0,96,11.0,80.0
236,62.0,0,96,10.0,80.0
237,69.0,60,48,8.0,80.0
238,81.0,0,288,0.0,80.0
239,81.0,0,288,7.0,80.0
240,66.0,0,48,8.0,80.0
241,50.0,0,96,11.0,80.0
242,62.0,60,96,10.0,80.0
243,38.0,0,96,12.0,80.0
244,69.0,60,48,8.0,80.0
245,66.0,0,48,8.0,80.0
246,78.0,0,96,0.0,80.0
247,78.0,60,96,7.0,80.0
248,50.0,0,96,11.0,80.0
249,38.0,0,96,12.0,80.0
250,62.0,0,96,10.0,80.0
251,69.0,60,48,8.0,80.0
252,67.0,0,48,8.0,80.0
253,61.0,0,96,10.0,80.0
254,33.0,0,96,12.0,80.0
255,76.0,0,96,7.0,80.0
256,45.0,0,96,11.0,80.0
257,76.0,60,96,0.0,80.0
258,69.0,60,48,8.0,80.0
259,67.0,0,48,8.0,80.0
260,76.0,0,96,0.0,80.0
261,76.0,0,96,7.0,80.0
262,45.0,0,96,12.0,80.0
263,57.0,60,96,11.0,80.0
264,61.0,0,96,10.0,80.0
265,69.0,60,48,8.0,80.0
266,78.0,0,48,7.0,80.0
267,78.0,0,48,0.0,80.0
268,67.0,0,48,8.0,80.0
269,33.0,60,96,12.0,80.0
270,45.0,0,96,11.0,80.0
271,61.0,0,96,10.0,80.0
272,76.0,60,48,7.0,80.0
273,69.0,0,48,8.0,80.0
274,76.0,0,48,0.0,80.0
275,75.0,60,48,0.0,80.0
276,75.0,0,48,7.0,80.0
277,67.0,0,48,8.0,80.0
278,57.0,0,96,11.0,80.0
279,45.0,0,96,12.0,80.0
280,61.0,0,96,10.0,80.0
281,69.0,0,48,8.0,80.0
282,76.0,0,48,0.0,80.0
283,76.0,60,48,7.0,80.0
284,67.0,0,48,8.0,80.0
285,73.0,60,96,0.0,80.0
286,33.0,0,96,12.0,80.0
287,64.0,0,96,10.0,80.0
288,73.0,0,96,7.0,80.0
289,45.0,0,96,11.0,80.0
290,69.0,60,48,8.0,80.0
291,67.0,0,48,8.0,80.0
292,73.0,0,96,7.0,80.0
293,45.0,0,96,12.0,80.0
294,64.0,60,96,10.0,80.0
295,73.0,0,96,0.0,80.0
296,57.0,0,96,11.0,80.0
297,69.0,60,48,8.0,80.0
298,74.0,0,48,0.0,80.0
299,74.0,60,48,7.0,80.0
300,67.0,0,48,8.0,80.0
301,33.0,0,96,12.0,80.0
302,45.0,0,96,11.0,80.0
303,64.0,0,96,10.0,80.0
304,69.0,0,48,8.0,80.0
305,73.0,0,48,0.0,80.0
306,73.0,60,48,7.0,80.0
307,67.0,0,48,8.0,80.0
308,71.0,0,48,0.0,80.0
309,71.0,0,48,7.0,80.0
310,57.0,0,96,11.0,80.0
311,45.0,60,96,12.0,80.0
312,64.0,0,96,10.0,80.0
313,69.0,60,48,8.0,80.0
314,73.0,0,48,0.0,80.0
315,73.0,0,48,7.0,80.0
316,66.0,0,48,8.0,80.0
317,38.0,0,96,12.0,80.0
318,62.0,60,96,10.0,80.0
319,74.0,0,96,0.0,80.0
320,50.0,0,96,11.0,80.0
321,74.0,0,96,7.0,80.0
322,69.0,60,48,8.0,80.0
323,66.0,0,48,8.0,80.0
324,38.0,0,96,12.0,80.0
325,50.0,0,96,11.0,80.0
326,69.0,60,48,8.0,80.0
327,66.0,0,48,8.0,80.0
328,57.0,60,192,10.0,80.0
329,74.0,0,192,0.0,80.0
330,74.0,0,192,7.0,80.0
331,50.0,60,96,11.0,80.0
332,38.0,0,96,12.0,80.0
333,69.0,60,48,8.0,80.0
334,66.0,60,48,8.0,80.0
335,78.0,0,96,0.0,80.0
336,38.0,0,96,12.0,80.0
337,50.0,0,96,11.0,80.0
338,78.0,0,96,7.0,80.0
339,62.0,0,96,10.0,80.0
340,69.0,60,48,8.0,80.0
341,62.0,0,48,8.0,80.0
342,81.0,0,96,7.0,80.0
343,81.0,60,96,0.0,80.0
344,50.0,0,96,11.0,80.0
345,66.0,0,96,10.0,80.0
346,38.0,0,96,12.0,80.0
347,69.0,60,48,8.0,80.0
348,62.0,60,48,8.0,80.0
349,38.0,0,96,12.0,80.0
350,50.0,0,96,11.0,80.0
351,69.0,60,48,8.0,80.0
352,62.0,0,48,8.0,80.0
353,81.0,0,192,0.0,80.0
354,66.0,0,192,10.0,80.0
355,81.0,0,192,7.0,80.0
356,38.0,60,96,12.0,80.0
357,50.0,0,96,11.0,80.0
358,69.0,60,48,8.0,80.0
359,62.0,0,48,8.0,80.0
360,78.0,0,96,0.0,80.0
361,38.0,0,96,12.0,80.0
362,69.0,0,96,10.0,80.0
363,50.0,60,96,11.0,80.0
364,78.0,0,96,7.0,80.0
365,69.0,60,48,8.0,80.0
366,61.0,0,48,8.0,80.0
367,76.0,60,96,7.0,80.0
368,40.0,0,96,12.0,80.0
369,52.0,0,96,11.0,80.0
370,76.0,0,96,0.0,80.0
371,64.0,0,96,10.0,80.0
372,64.0,60,48,8.0,80.0
373,61.0,0,48,8.0,80.0
374,40.0,0,96,12.0,80.0
375,64.0,0,96,10.0,80.0
376,52.0,0,96,11.0,80.0
377,64.0,60,48,8.0,80.0
378,61.0,0,48,8.0,80.0
379,81.0,60,192,7.0,80.0
380,81.0,0,192,0.0,80.0
381,40.0,0,96,12.0,80.0
382,64.0,0,96,10.0,80.0
383,52.0,60,96,11.0,80.0
384,64.0,60,48,8.0,80.0
385,83.0,0,48,7.0,80.0
386,62.0,0,48,8.0,80.0
387,83.0,0,48,0.0,80.0
388,64.0,60,96,10.0,80.0
389,40.0,0,96,12.0,80.0
390,52.0,0,96,11.0,80.0
391,59.0,60,48,8.0,80.0
392,80.0,0,48,7.0,80.0
393,80.0,0,48,0.0,80.0
394,45.0,0,96,12.0,80.0
395,57.0,0,96,11.0,80.0
396,81.0,0,192,0.0,80.0
397,64.0,60,192,10.0,80.0
398,61.0,0,192,8.0,80.0
399,81.0,0,192,7.0,80.0
400,40.0,0,96,12.0,80.0
401,52.0,120,96,11.0,80.0
402,45.0,120,96,11.0,80.0
403,33.0,0,96,12.0,80.0
404,81.0,0,96,7.0,80.0
405,69.0,120,96,8.0,80.0
406,81.0,0,96,0.0,80.0
407,42.0,0,192,12.0,80.0
408,81.0,0,192,7.0,80.0
409,81.0,0,192,0.0,80.0
410,54.0,0,192,11.0,80.0
411,69.0,120,192,8.0,80.0
412,62.0,0,192,10.0,80.0
413,86.0,240,48,0.0,80.0
414,86.0,0,48,7.0,80.0
415,74.0,0,48,8.0,80.0
416,85.0,0,48,7.0,80.0
417,73.0,0,48,8.0,80.0
418,85.0,60,48,0.0,80.0
419,83.0,0,48,7.0,80.0
420,71.0,0,48,8.0,80.0
421,83.0,0,48,0.0,80.0
422,62.0,0,96,10.0,80.0
423,54.0,0,96,11.0,80.0
424,42.0,60,96,12.0,80.0
425,81.0,0,48,0.0,80.0
426,69.0,60,48,8.0,80.0
427,81.0,0,48,7.0,80.0
428,67.0,0,96,8.0,80.0
429,79.0,0,96,0.0,80.0
430,79.0,0,96,7.0,80.0
431,61.0,0,96,10.0,80.0
432,40.0,60,96,12.0,80.0
433,52.0,0,96,11.0,80.0
434,66.0,0,96,8.0,80.0
435,78.0,0,96,0.0,80.0
436,38.0,0,96,12.0,80.0
437,62.0,0,96,10.0,80.0
438,50.0,0,96,11.0,80.0
439,78.0,120,96,7.0,80.0
440,37.0,0,96,12.0,80.0
441,76.0,0,96,0.0,80.0
442,76.0,0,96,7.0,80.0
443,57.0,0,96,10.0,80.0
444,64.0,120,96,8.0,80.0
445,49.0,0,96,11.0,80.0
446,38.0,0,192,12.0,80.0
447,66.0,0,192,8.0,80.0
448,69.0,0,192,10.0,80.0
449,50.0,240,192,11.0,80.0
450,78.0,0,192,7.0,80.0
451,78.0,0,192,0.0,80.0
452,79.0,0,48,7.0,80.0
453,79.0,240,48,0.0,80.0
454,67.0,0,48,8.0,80.0
455,78.0,0,48,0.0,80.0
456,66.0,0,48,8.0,80.0
457,78.0,60,48,7.0,80.0
458,76.0,0,48,7.0,80.0
459,64.0,0,48,8.0,80.0
460,76.0,0,48,0.0,80.0
461,57.0,0,96,10.0,80.0
462,54.0,0,96,11.0,80.0
463,42.0,60,96,12.0,80.0
464,74.0,0,48,7.0,80.0
465,74.0,60,48,0.0,80.0
466,62.0,0,48,8.0,80.0
467,57.0,0,96,11.0,80.0
468,73.0,0,96,0.0,80.0
469,73.0,0,96,7.0,80.0
470,61.0,0,96,8.0,80.0
471,45.0,60,96,12.0,80.0
472,61.0,0,96,10.0,80.0
473,59.0,120,96,11.0,80.0
474,59.0,0,96,8.0,80.0
475,62.0,0,96,10.0,80.0
476,47.0,0,96,12.0,80.0
477,71.0,0,96,7.0,80.0
478,71.0,0,96,0.0,80.0
479,61.0,0,96,11.0,80.0
480,64.0,0,96,10.0,80.0
481,49.0,0,96,12.0,80.0
482,57.0,120,96,8.0,80.0
483,69.0,0,96,0.0,80.0
484,69.0,0,96,7.0,80.0
485,69.0,0,96,7.0,80.0
486,69.0,120,96,0.0,80.0
487,62.0,0,48,8.0,80.0
488,42.0,0,96,12.0,80.0
489,54.0,0,96,11.0,80.0
490,66.0,60,48,8.0,80.0
491,62.0,0,48,8.0,80.0
492,69.0,120,192,10.0,80.0
493,74.0,0,192,0.0,80.0
494,74.0,0,192,7.0,80.0
495,42.0,0,96,12.0,80.0
496,54.0,60,96,11.0,80.0
497,66.0,60,48,8.0,80.0
498,62.0,0,48,8.0,80.0
499,42.0,60,96,12.0,80.0
500,54.0,0,96,11.0,80.0
501,66.0,60,48,8.0,80.0
502,62.0,0,48,8.0,80.0
503,81.0,0,192,7.0,80.0
504,81.0,0,192,0.0,80.0
505,66.0,0,192,10.0,80.0
506,54.0,0,96,11.0,80.0
507,42.0,60,96,12.0,80.0
508,66.0,60,48,8.0,80.0
509,62.0,0,48,8.0,80.0
510,43.0,60,96,12.0,80.0
511,55.0,0,96,11.0,80.0
512,82.0,0,96,7.0,80.0
513,82.0,0,96,0.0,80.0
514,64.0,60,48,8.0,80.0
515,62.0,0,48,8.0,80.0
516,55.0,0,96,11.0,80.0
517,43.0,60,96,12.0,80.0
518,64.0,60,48,8.0,80.0
519,62.0,0,48,8.0,80.0
520,64.0,0,288,10.0,80.0
521,83.0,0,192,7.0,80.0
522,83.0,0,192,0.0,80.0
523,43.0,0,96,12.0,80.0
524,55.0,60,96,11.0,80.0
525,64.0,60,48,8.0,80.0
526,62.0,0,48,8.0,80.0
527,79.0,0,48,7.0,80.0
528,79.0,60,48,0.0,80.0
529,55.0,0,96,11.0,80.0
530,71.0,0,96,10.0,80.0
531,43.0,0,96,12.0,80.0
532,76.0,0,48,7.0,80.0
533,76.0,60,48,0.0,80.0
534,64.0,0,48,8.0,80.0
535,61.0,0,48,8.0,80.0
536,45.0,60,96,12.0,80.0
537,57.0,0,96,11.0,80.0
538,81.0,0,96,0.0,80.0
539,81.0,0,96,7.0,80.0
540,69.0,0,96,10.0,80.0
541,64.0,60,48,8.0,80.0
542,61.0,0,48,8.0,80.0
543,69.0,0,96,10.0,80.0
544,57.0,0,96,11.0,80.0
545,45.0,60,96,12.0,80.0
546,64.0,60,48,8.0,80.0
547,61.0,0,48,8.0,80.0
548,79.0,0,192,0.0,80.0
549,79.0,0,192,7.0,80.0
550,57.0,0,96,11.0,80.0
551,45.0,0,96,12.0,80.0
552,69.0,60,96,10.0,80.0
553,64.0,60,48,8.0,80.0
554,76.0,0,48,7.0,80.0
555,67.0,0,48,8.0,80.0
556,76.0,0,48,0.0,80.0
557,45.0,0,96,12.0,80.0
558,57.0,60,96,11.0,80.0
559,69.0,0,96,10.0,80.0
560,64.0,60,48,8.0,80.0
561,73.0,0,48,0.0,80.0
562,73.0,0,48,7.0,80.0
563,50.0,60,96,12.0,80.0
564,62.0,0,96,11.0,80.0
565,74.0,0,192,0.0,80.0
566,69.0,0,192,10.0,80.0
567,74.0,0,192,7.0,80.0
568,66.0,0,192,8.0,80.0
569,45.0,120,96,12.0,80.0
570,57.0,0,96,11.0,80.0
571,38.0,120,96,12.0,80.0
572,50.0,0,96,11.0,80.0
573,81.0,120,96,7.0,80.0
574,81.0,0,96,0.0,80.0
575,42.0,0,192,12.0,80.0
576,54.0,0,192,11.0,80.0
577,62.0,0,192,10.0,80.0
578,69.0,0,192,8.0,80.0
579,81.0,0,192,7.0,80.0
580,81.0,120,192,0.0,80.0
581,86.0,0,48,0.0,80.0
582,74.0,0,48,8.0,80.0
583,86.0,240,48,7.0,80.0
584,73.0,0,48,8.0,80.0
585,85.0,60,48,7.0,80.0
586,85.0,0,48,0.0,80.0
587,83.0,0,48,0.0,80.0
588,71.0,0,48,8.0,80.0
589,83.0,60,48,7.0,80.0
590,42.0,0,96,12.0,80.0
591,54.0,0,96,11.0,80.0
592,62.0,0,96,10.0,80.0
593,81.0,0,48,0.0,80.0
594,81.0,0,48,7.0,80.0
595,69.0,60,48,8.0,80.0
596,61.0,0,96,10.0,80.0
597,79.0,60,96,0.0,80.0
598,40.0,0,96,12.0,80.0
599,52.0,0,96,11.0,80.0
600,67.0,0,96,8.0,80.0
601,79.0,0,96,7.0,80.0
602,78.0,0,96,0.0,80.0
603,50.0,0,96,11.0,80.0
604,62.0,0,96,10.0,80.0
605,78.0,120,96,7.0,80.0
606,38.0,0,96,12.0,80.0
607,66.0,0,96,8.0,80.0
608,64.0,0,96,8.0,80.0
609,76.0,0,96,7.0,80.0
610,76.0,0,96,0.0,80.0
611,49.0,120,96,11.0,80.0
612,37.0,0,96,12.0,80.0
613,57.0,0,96,10.0,80.0
614,69.0,0,192,10.0,80.0
615,78.0,0,192,7.0,80.0
616,38.0,0,192,12.0,80.0
617,78.0,0,192,0.0,80.0
618,50.0,240,192,11.0,80.0
619,66.0,0,192,8.0,80.0
620,79.0,0,48,7.0,80.0
621,79.0,240,48,0.0,80.0
622,67.0,0,48,8.0,80.0
623,66.0,0,48,8.0,80.0
624,78.0,0,48,7.0,80.0
625,78.0,60,48,0.0,80.0
626,76.0,0,48,7.0,80.0
627,64.0,60,48,8.0,80.0
628,76.0,0,48,0.0,80.0
629,42.0,0,96,12.0,80.0
630,54.0,0,96,11.0,80.0
631,57.0,0,96,10.0,80.0
632,74.0,0,48,0.0,80.0
633,62.0,60,48,8.0,80.0
634,74.0,0,48,7.0,80.0
635,45.0,0,96,12.0,80.0
636,73.0,0,96,0.0,80.0
637,57.0,0,96,11.0,80.0
638,61.0,60,96,8.0,80.0
639,73.0,0,96,7.0,80.0
640,61.0,0,96,10.0,80.0
641,47.0,0,96,12.0,80.0
642,71.0,120,96,7.0,80.0
643,59.0,0,96,11.0,80.0
644,59.0,0,96,8.0,80.0
645,71.0,0,96,0.0,80.0
646,62.0,0,96,10.0,80.0
647,69.0,0,96,7.0,80.0
648,49.0,0,96,12.0,80.0
649,57.0,0,96,8.0,80.0
650,61.0,120,96,11.0,80.0
651,64.0,0,96,10.0,80.0
652,69.0,0,96,0.0,80.0
653,69.0,120,96,0.0,80.0
654,69.0,0,96,7.0,80.0
655,62.0,0,48,8.0,80.0
656,54.0,0,96,11.0,80.0
657,42.0,0,96,12.0,80.0
658,66.0,60,48,8.0,80.0
659,62.0,60,48,8.0,80.0
660,74.0,0,192,0.0,80.0
661,69.0,120,192,10.0,80.0
662,74.0,0,192,7.0,80.0
663,42.0,0,96,12.0,80.0
664,54.0,0,96,11.0,80.0
665,66.0,60,48,8.0,80.0
666,62.0,0,48,8.0,80.0
667,54.0,60,96,11.0,80.0
668,42.0,0,96,12.0,80.0
669,66.0,60,48,8.0,80.0
670,62.0,0,48,8.0,80.0
671,66.0,0,192,10.0,80.0
672,81.0,0,192,7.0,80.0
673,81.0,0,192,0.0,80.0
674,42.0,60,96,12.0,80.0
675,54.0,0,96,11.0,80.0
676,66.0,60,48,8.0,80.0
677,62.0,0,48,8.0,80.0
678,43.0,0,96,12.0,80.0
679,55.0,0,96,11.0,80.0
680,82.0,60,96,7.0,80.0
681,82.0,0,96,0.0,80.0
682,64.0,60,48,8.0,80.0
683,62.0,0,48,8.0,80.0
684,55.0,60,96,11.0,80.0
685,43.0,0,96,12.0,80.0
686,64.0,60,48,8.0,80.0
687,62.0,0,48,8.0,80.0
688,64.0,0,288,10.0,80.0
689,83.0,0,192,0.0,80.0
690,83.0,0,192,7.0,80.0
691,43.0,0,96,12.0,80.0
692,55.0,60,96,11.0,80.0
693,64.0,60,48,8.0,80.0
694,79.0,0,48,0.0,80.0
695,62.0,0,48,8.0,80.0
696,79.0,60,48,7.0,80.0
697,71.0,0,96,10.0,80.0
698,43.0,0,96,12.0,80.0
699,55.0,0,96,11.0,80.0
700,76.0,0,48,7.0,80.0
701,64.0,60,48,8.0,80.0
702,76.0,0,48,0.0,80.0
703,61.0,60,48,8.0,80.0
704,57.0,0,96,11.0,80.0
705,45.0,0,96,12.0,80.0
706,69.0,0,96,10.0,80.0
707,81.0,0,96,7.0,80.0
708,81.0,0,96,0.0,80.0
709,64.0,60,48,8.0,80.0
710,61.0,0,48,8.0,80.0
711,45.0,60,96,12.0,80.0
712,69.0,0,96,10.0,80.0
713,57.0,0,96,11.0,80.0
714,64.0,60,48,8.0,80.0
715,61.0,0,48,8.0,80.0
716,79.0,0,192,0.0,80.0
717,79.0,0,192,7.0,80.0
718,69.0,60,96,10.0,80.0
719,57.0,0,96,11.0,80.0
720,45.0,0,96,12.0,80.0
721,64.0,60,48,8.0,80.0
722,76.0,0,48,7.0,80.0
723,67.0,0,48,8.0,80.0
724,76.0,60,48,0.0,80.0
725,45.0,0,96,12.0,80.0
726,69.0,0,96,10.0,80.0
727,57.0,0,96,11.0,80.0
728,73.0,0,48,7.0,80.0
729,64.0,0,48,8.0,80.0
730,73.0,60,48,0.0,80.0
731,50.0,0,192,11.0,80.0
732,66.0,60,192,8.0,80.0
733,74.0,0,192,0.0,80.0
734,74.0,0,192,7.0,80.0
735,38.0,0,192,12.0,80.0
736,69.0,0,192,10.0,80.0
737,45.0,0,48,2.0,80.0
738,57.0,360,48,7.0,80.0
739,45.0,0,48,11.0,80.0
740,33.0,0,48,12.0,80.0
741,69.0,0,48,1.0,80.0
742,69.0,0,48,0.0,80.0
743,57.0,0,48,10.0,80.0
744,57.0,0,48,8.0,80.0
745,35.0,0,24,12.0,80.0
746,47.0,0,24,2.0,80.0
747,71.0,60,24,1.0,80.0
748,47.0,0,24,11.0,80.0
749,59.0,0,24,7.0,80.0
750,59.0,0,24,8.0,80.0
751,71.0,0,24,0.0,80.0
752,59.0,0,24,10.0,80.0
753,73.0,30,24,1.0,80.0
754,37.0,0,24,12.0,80.0
755,61.0,0,24,10.0,80.0
756,61.0,0,24,7.0,80.0
757,61.0,0,24,8.0,80.0
758,49.0,0,24,2.0,80.0
759,49.0,0,24,11.0,80.0
760,73.0,0,24,0.0,80.0
761,50.0,0,192,5.0,80.0
762,62.0,0,192,7.0,80.0
763,50.0,0,192,11.0,80.0
764,74.0,0,192,0.0,80.0
765,62.0,0,192,8.0,80.0
766,50.0,30,192,2.0,80.0
767,74.0,0,192,1.0,80.0
768,62.0,0,192,10.0,80.0
769,62.0,0,192,4.0,80.0
770,50.0,0,192,3.0,80.0
771,62.0,0,192,3.0,80.0
772,38.0,0,192,12.0,80.0
773,42.0,0,192,12.0,80.0
774,54.0,0,192,11.0,80.0
775,50.0,0,192,5.0,80.0
776,78.0,0,192,1.0,80.0
777,66.0,0,192,10.0,80.0
778,66.0,0,192,4.0,80.0
779,66.0,0,192,3.0,80.0
780,54.0,0,192,3.0,80.0
781,66.0,240,192,7.0,80.0
782,54.0,0,192,2.0,80.0
783,78.0,0,192,0.0,80.0
784,66.0,0,192,8.0,80.0
785,57.0,0,192,11.0,80.0
786,69.0,0,192,4.0,80.0
787,69.0,0,192,7.0,80.0
788,45.0,0,192,12.0,80.0
789,69.0,0,192,10.0,80.0
790,57.0,0,192,2.0,80.0
791,81.0,0,192,1.0,80.0
792,57.0,0,192,3.0,80.0
793,69.0,0,192,8.0,80.0
794,81.0,0,192,0.0,80.0
795,45.0,240,192,5.0,80.0
796,69.0,0,192,3.0,80.0
797,78.0,0,48,8.0,80.0
798,81.0,240,48,7.0,80.0
799,76.0,0,48,8.0,80.0
800,79.0,60,48,7.0,80.0
801,74.0,60,48,8.0,80.0
802,78.0,0,48,7.0,80.0
803,73.0,0,48,8.0,80.0
804,76.0,60,48,7.0,80.0
805,74.0,0,96,8.0,80.0
806,62.0,0,96,4.0,80.0
807,50.0,0,96,3.0,80.0
808,50.0,60,96,2.0,80.0
809,74.0,0,96,1.0,80.0
810,74.0,0,96,7.0,80.0
811,38.0,0,96,12.0,80.0
812,62.0,0,96,10.0,80.0
813,50.0,0,96,11.0,80.0
814,74.0,0,96,0.0,80.0
815,62.0,0,96,3.0,80.0
816,50.0,0,192,5.0,80.0
817,66.0,0,96,10.0,80.0
818,54.0,0,96,2.0,80.0
819,78.0,120,96,0.0,80.0
820,54.0,0,96,3.0,80.0
821,66.0,0,96,8.0,80.0
822,66.0,0,96,3.0,80.0
823,66.0,0,96,7.0,80.0
824,78.0,0,96,1.0,80.0
825,54.0,0,96,11.0,80.0
826,42.0,0,96,12.0,80.0
827,66.0,0,96,4.0,80.0
828,69.0,0,96,10.0,80.0
829,57.0,0,96,11.0,80.0
830,57.0,0,96,2.0,80.0
831,81.0,0,96,0.0,80.0
832,45.0,0,96,5.0,80.0
833,69.0,0,96,4.0,80.0
834,69.0,120,96,7.0,80.0
835,69.0,0,96,3.0,80.0
836,57.0,0,96,3.0,80.0
837,45.0,0,96,12.0,80.0
838,81.0,0,96,1.0,80.0
839,69.0,0,96,8.0,80.0
840,57.0,0,96,2.0,80.0
841,81.0,0,96,0.0,80.0
842,57.0,0,96,3.0,80.0
843,69.0,120,96,8.0,80.0
844,69.0,0,96,4.0,80.0
845,81.0,0,96,1.0,80.0
846,45.0,0,96,12.0,80.0
847,45.0,0,96,5.0,80.0
848,69.0,0,96,3.0,80.0
849,57.0,0,96,11.0,80.0
850,69.0,0,96,7.0,80.0
851,69.0,0,96,10.0,80.0
852,69.0,0,192,8.0,80.0
853,69.0,0,192,3.0,80.0
854,57.0,120,192,3.0,80.0
855,69.0,0,192,4.0,80.0
856,81.0,0,192,1.0,80.0
857,45.0,0,192,12.0,80.0
858,45.0,0,192,5.0,80.0
859,69.0,0,192,7.0,80.0
860,81.0,0,192,0.0,80.0
861,57.0,0,192,11.0,80.0
862,57.0,0,192,2.0,80.0
863,69.0,0,192,10.0,80.0
864,81.0,240,48,7.0,80.0
865,78.0,0,48,8.0,80.0
866,79.0,0,48,7.0,80.0
867,76.0,60,48,8.0,80.0
868,78.0,0,48,7.0,80.0
869,74.0,60,48,8.0,80.0
870,73.0,60,48,8.0,80.0
871,76.0,0,48,7.0,80.0
872,74.0,0,48,6.0,80.0
873,69.0,60,48,6.0,80.0
874,74.0,60,48,6.0,80.0
875,74.0,0,192,8.0,80.0
876,38.0,0,192,12.0,80.0
877,74.0,0,192,7.0,80.0
878,50.0,0,192,11.0,80.0
879,66.0,0,192,10.0,80.0
880,50.0,0,192,6.0,80.0
881,78.0,60,48,6.0,80.0
882,81.0,0,48,6.0,80.0
883,66.0,60,96,8.0,80.0
884,66.0,0,96,6.0,80.0
885,62.0,0,96,6.0,80.0
886,69.0,0,96,7.0,80.0
887,62.0,0,96,10.0,80.0
888,74.0,60,48,6.0,80.0
889,83.0,0,48,6.0,80.0
890,67.0,0,96,6.0,80.0
891,62.0,0,96,6.0,80.0
892,67.0,60,96,8.0,80.0
893,62.0,0,96,10.0,80.0
894,71.0,0,96,7.0,80.0
895,74.0,60,48,6.0,80.0
896,81.0,0,48,6.0,80.0
897,78.0,60,48,6.0,80.0
898,74.0,60,48,6.0,80.0
899,66.0,60,192,6.0,80.0
900,50.0,0,192,11.0,80.0
901,66.0,0,192,8.0,80.0
902,62.0,0,192,10.0,80.0
903,62.0,0,192,6.0,80.0
904,69.0,0,192,7.0,80.0
905,38.0,0,192,12.0,80.0
906,78.0,60,48,6.0,80.0
907,81.0,0,48,6.0,80.0
908,62.0,0,96,10.0,80.0
909,69.0,0,96,7.0,80.0
910,62.0,60,96,6.0,80.0
911,66.0,0,96,6.0,80.0
912,66.0,0,96,8.0,80.0
913,74.0,60,48,6.0,80.0
914,83.0,0,48,6.0,80.0
915,62.0,0,96,10.0,80.0
916,62.0,0,96,6.0,80.0
917,71.0,0,96,7.0,80.0
918,67.0,60,96,8.0,80.0
919,67.0,0,96,6.0,80.0
920,74.0,60,48,6.0,80.0
921,81.0,60,48,6.0,80.0
922,66.0,0,96,8.0,80.0
923,62.0,0,96,10.0,80.0
924,69.0,0,96,7.0,80.0
925,66.0,0,96,6.0,80.0
926,62.0,0,96,6.0,80.0
927,74.0,60,48,6.0,80.0
928,83.0,0,48,6.0,80.0
929,50.0,0,192,11.0,80.0
930,38.0,0,192,12.0,80.0
931,62.0,0,96,10.0,80.0
932,67.0,60,96,8.0,80.0
933,71.0,0,96,7.0,80.0
934,67.0,0,96,6.0,80.0
935,62.0,0,96,6.0,80.0
936,74.0,60,48,6.0,80.0
937,81.0,0,48,6.0,80.0
938,62.0,0,96,6.0,80.0
939,66.0,60,96,6.0,80.0
940,66.0,0,96,8.0,80.0
941,62.0,0,96,10.0,80.0
942,69.0,0,96,7.0,80.0
943,74.0,60,48,6.0,80.0
944,83.0,60,48,6.0,80.0
945,71.0,0,96,7.0,80.0
946,67.0,0,96,6.0,80.0
947,62.0,0,96,10.0,80.0
948,62.0,0,96,6.0,80.0
949,67.0,0,96,8.0,80.0
950,74.0,60,48,6.0,80.0
951,50.0,0,192,11.0,80.0
952,38.0,0,192,12.0,80.0
953,66.0,0,192,8.0,80.0
954,74.0,0,1632,1.0,80.0
955,81.0,0,192,6.0,80.0
956,62.0,0,192,10.0,80.0
957,86.0,60,1632,0.0,80.0
958,62.0,0,192,6.0,80.0
959,66.0,60,192,6.0,80.0
960,69.0,0,192,7.0,80.0
961,83.0,240,48,6.0,80.0
962,81.0,60,48,6.0,80.0
963,79.0,60,48,6.0,80.0
964,78.0,60,48,6.0,80.0
965,74.0,0,96,6.0,80.0
966,67.0,60,96,6.0,80.0
967,76.0,0,96,6.0,80.0
968,74.0,0,96,6.0,80.0
969,67.0,120,96,6.0,80.0
970,76.0,0,96,6.0,80.0
971,74.0,120,96,6.0,80.0
972,76.0,0,96,6.0,80.0
973,68.0,0,96,6.0,80.0
974,68.0,0,96,6.0,80.0
975,74.0,0,96,6.0,80.0
976,76.0,120,96,6.0,80.0
977,78.0,0,96,6.0,80.0
978,69.0,0,192,6.0,80.0
979,73.0,120,192,6.0,80.0
980,76.0,120,96,6.0,80.0
981,83.0,0,48,6.0,80.0
982,81.0,60,48,6.0,80.0
983,79.0,60,48,6.0,80.0
984,74.0,120,192,6.0,80.0
985,66.0,0,192,6.0,80.0
986,78.0,60,48,6.0,80.0
987,76.0,60,96,6.0,80.0
988,67.0,0,96,6.0,80.0
989,74.0,0,96,6.0,80.0
990,76.0,120,96,6.0,80.0
991,74.0,0,96,6.0,80.0
992,67.0,0,96,6.0,80.0
993,74.0,0,96,6.0,80.0
994,68.0,120,96,6.0,80.0
995,76.0,0,96,6.0,80.0
996,76.0,120,96,6.0,80.0
997,74.0,0,96,6.0,80.0
998,68.0,0,96,6.0,80.0
999,75.0,0,32,6.0,80.0
1000,76.0,40,32,6.0,80.0
1001,78.0,40,32,6.0,80.0
1002,69.0,0,192,6.0,80.0
1003,73.0,120,192,6.0,80.0
1004,76.0,40,96,6.0,80.0
1005,69.0,0,48,0.0,80.0
1006,57.0,240,48,10.0,80.0
1007,33.0,0,48,12.0,80.0
1008,57.0,0,48,7.0,80.0
1009,69.0,0,48,1.0,80.0
1010,57.0,0,48,8.0,80.0
1011,45.0,0,48,2.0,80.0
1012,45.0,0,48,11.0,80.0
1013,47.0,0,24,2.0,80.0
1014,59.0,0,24,8.0,80.0
1015,71.0,0,24,1.0,80.0
1016,47.0,0,24,11.0,80.0
1017,59.0,0,24,10.0,80.0
1018,35.0,60,24,12.0,80.0
1019,71.0,0,24,0.0,80.0
1020,59.0,0,24,7.0,80.0
1021,73.0,0,24,1.0,80.0
1022,61.0,0,24,10.0,80.0
1023,61.0,0,24,8.0,80.0
1024,49.0,0,24,2.0,80.0
1025,61.0,0,24,7.0,80.0
1026,73.0,0,24,0.0,80.0
1027,49.0,30,24,11.0,80.0
1028,37.0,0,24,12.0,80.0
1029,62.0,0,192,7.0,80.0
1030,62.0,0,192,10.0,80.0
1031,50.0,0,192,11.0,80.0
1032,62.0,0,192,4.0,80.0
1033,62.0,0,192,8.0,80.0
1034,50.0,0,192,2.0,80.0
1035,74.0,0,192,1.0,80.0
1036,50.0,0,192,5.0,80.0
1037,38.0,0,192,12.0,80.0
1038,62.0,0,192,3.0,80.0
1039,50.0,0,192,3.0,80.0
1040,74.0,30,192,0.0,80.0
1041,50.0,0,192,5.0,80.0
1042,78.0,0,192,0.0,80.0
1043,54.0,240,192,3.0,80.0
1044,66.0,0,192,8.0,80.0
1045,66.0,0,192,4.0,80.0
1046,54.0,0,192,2.0,80.0
1047,42.0,0,192,12.0,80.0
1048,78.0,0,192,1.0,80.0
1049,66.0,0,192,7.0,80.0
1050,66.0,0,192,10.0,80.0
1051,54.0,0,192,11.0,80.0
1052,66.0,0,192,3.0,80.0
1053,45.0,0,192,5.0,80.0
1054,45.0,0,192,12.0,80.0
1055,69.0,240,192,7.0,80.0
1056,81.0,0,192,0.0,80.0
1057,57.0,0,192,11.0,80.0
1058,81.0,0,192,1.0,80.0
1059,69.0,0,192,8.0,80.0
1060,69.0,0,192,4.0,80.0
1061,57.0,0,192,2.0,80.0
1062,57.0,0,192,3.0,80.0
1063,69.0,0,192,3.0,80.0
1064,69.0,0,192,10.0,80.0
1065,81.0,240,48,7.0,80.0
1066,78.0,0,48,8.0,80.0
1067,76.0,60,48,8.0,80.0
1068,79.0,0,48,7.0,80.0
1069,78.0,0,48,7.0,80.0
1070,74.0,60,48,8.0,80.0
1071,73.0,0,48,8.0,80.0
1072,76.0,60,48,7.0,80.0
1073,38.0,0,96,12.0,80.0
1074,62.0,0,96,3.0,80.0
1075,50.0,0,96,3.0,80.0
1076,62.0,0,96,10.0,80.0
1077,74.0,0,96,0.0,80.0
1078,74.0,0,96,8.0,80.0
1079,50.0,0,96,2.0,80.0
1080,74.0,0,96,7.0,80.0
1081,74.0,60,96,1.0,80.0
1082,50.0,0,96,11.0,80.0
1083,62.0,0,96,4.0,80.0
1084,50.0,0,192,5.0,80.0
1085,54.0,0,96,2.0,80.0
1086,66.0,0,96,4.0,80.0
1087,66.0,0,96,7.0,80.0
1088,66.0,120,96,8.0,80.0
1089,66.0,0,96,10.0,80.0
1090,78.0,0,96,1.0,80.0
1091,54.0,0,96,11.0,80.0
1092,66.0,0,96,3.0,80.0
1093,42.0,0,96,12.0,80.0
1094,54.0,0,96,3.0,80.0
1095,78.0,0,96,0.0,80.0
1096,81.0,0,96,0.0,80.0
1097,69.0,0,96,10.0,80.0
1098,69.0,0,96,8.0,80.0
1099,45.0,0,96,5.0,80.0
1100,45.0,0,96,12.0,80.0
1101,81.0,0,96,1.0,80.0
1102,69.0,0,96,4.0,80.0
1103,57.0,0,96,3.0,80.0
1104,69.0,0,96,7.0,80.0
1105,57.0,0,96,11.0,80.0
1106,69.0,120,96,3.0,80.0
1107,57.0,0,96,2.0,80.0
1108,45.0,0,96,5.0,80.0
1109,69.0,0,96,7.0,80.0
1110,57.0,0,96,2.0,80.0
1111,69.0,0,96,10.0,80.0
1112,81.0,0,96,1.0,80.0
1113,69.0,0,96,8.0,80.0
1114,69.0,0,96,4.0,80.0
1115,69.0,120,96,3.0,80.0
1116,57.0,0,96,3.0,80.0
1117,81.0,0,96,0.0,80.0
1118,45.0,0,96,12.0,80.0
1119,57.0,0,96,11.0,80.0
1120,45.0,0,192,5.0,80.0
1121,69.0,0,192,4.0,80.0
1122,45.0,0,192,12.0,80.0
1123,69.0,120,192,10.0,80.0
1124,57.0,0,192,11.0,80.0
1125,81.0,0,192,0.0,80.0
1126,69.0,0,192,3.0,80.0
1127,69.0,0,192,8.0,80.0
1128,81.0,0,192,1.0,80.0
1129,69.0,0,192,7.0,80.0
1130,57.0,0,192,3.0,80.0
1131,57.0,0,192,2.0,80.0
1132,81.0,240,48,7.0,80.0
1133,78.0,0,48,8.0,80.0
1134,76.0,0,48,8.0,80.0
1135,79.0,60,48,7.0,80.0
1136,78.0,60,48,7.0,80.0
1137,74.0,0,48,8.0,80.0
1138,76.0,60,48,7.0,80.0
1139,73.0,0,48,8.0,80.0
1140,74.0,0,48,6.0,80.0
1141,69.0,60,48,6.0,80.0
1142,74.0,60,48,6.0,80.0
1143,74.0,0,192,8.0,80.0
1144,38.0,0,192,12.0,80.0
1145,66.0,0,192,10.0,80.0
1146,74.0,60,192,7.0,80.0
1147,50.0,0,192,6.0,80.0
1148,50.0,0,192,11.0,80.0
1149,78.0,60,48,6.0,80.0
1150,81.0,60,48,6.0,80.0
1151,66.0,0,96,8.0,80.0
1152,62.0,0,96,6.0,80.0
1153,66.0,0,96,6.0,80.0
1154,62.0,0,96,10.0,80.0
1155,69.0,0,96,7.0,80.0
1156,74.0,60,48,6.0,80.0
1157,83.0,60,48,6.0,80.0
1158,71.0,0,96,7.0,80.0
1159,67.0,0,96,6.0,80.0
1160,62.0,0,96,6.0,80.0
1161,67.0,0,96,8.0,80.0
1162,62.0,0,96,10.0,80.0
1163,74.0,60,48,6.0,80.0
1164,81.0,0,48,6.0,80.0
1165,78.0,60,48,6.0,80.0
1166,74.0,60,48,6.0,80.0
1167,66.0,0,192,6.0,80.0
1168,62.0,0,192,6.0,80.0
1169,62.0,0,192,10.0,80.0
1170,38.0,0,192,12.0,80.0
1171,50.0,0,192,11.0,80.0
1172,66.0,0,192,8.0,80.0
1173,69.0,60,192,7.0,80.0
1174,78.0,60,48,6.0,80.0
1175,81.0,0,48,6.0,80.0
1176,66.0,0,96,8.0,80.0
1177,69.0,60,96,7.0,80.0
1178,66.0,0,96,6.0,80.0
1179,62.0,0,96,6.0,80.0
1180,62.0,0,96,10.0,80.0
1181,74.0,60,48,6.0,80.0
1182,83.0,0,48,6.0,80.0
1183,71.0,0,96,7.0,80.0
1184,62.0,0,96,10.0,80.0
1185,62.0,60,96,6.0,80.0
1186,67.0,0,96,6.0,80.0
1187,67.0,0,96,8.0,80.0
1188,74.0,60,48,6.0,80.0
1189,81.0,0,48,6.0,80.0
1190,69.0,0,96,7.0,80.0
1191,66.0,60,96,8.0,80.0
1192,66.0,0,96,6.0,80.0
1193,62.0,0,96,6.0,80.0
1194,62.0,0,96,10.0,80.0
1195,74.0,60,48,6.0,80.0
1196,83.0,0,48,6.0,80.0
1197,38.0,0,192,12.0,80.0
1198,50.0,0,192,11.0,80.0
1199,71.0,0,96,7.0,80.0
1200,67.0,0,96,8.0,80.0
1201,62.0,0,96,6.0,80.0
1202,67.0,0,96,6.0,80.0
1203,62.0,60,96,10.0,80.0
1204,74.0,60,48,6.0,80.0
1205,81.0,60,48,6.0,80.0
1206,69.0,0,96,7.0,80.0
1207,66.0,0,96,8.0,80.0
1208,62.0,0,96,10.0,80.0
1209,62.0,0,96,6.0,80.0
1210,66.0,0,96,6.0,80.0
1211,74.0,60,48,6.0,80.0
1212,83.0,0,48,6.0,80.0
1213,67.0,0,96,8.0,80.0
1214,71.0,0,96,7.0,80.0
1215,62.0,0,96,6.0,80.0
1216,67.0,0,96,6.0,80.0
1217,62.0,60,96,10.0,80.0
1218,74.0,60,48,6.0,80.0
1219,81.0,0,48,6.0,80.0
1220,74.0,60,48,6.0,80.0
1221,78.0,60,48,6.0,80.0
1222,62.0,60,192,10.0,80.0
1223,66.0,0,192,6.0,80.0
1224,62.0,0,192,6.0,80.0
1225,74.0,0,1632,1.0,80.0
1226,69.0,0,192,7.0,80.0
1227,66.0,0,192,8.0,80.0
1228,86.0,0,1632,0.0,80.0
1229,50.0,0,192,11.0,80.0
1230,38.0,0,192,12.0,80.0
1231,81.0,60,48,6.0,80.0
1232,86.0,60,48,6.0,80.0
1233,85.0,60,48,6.0,80.0
1234,83.0,60,48,6.0,80.0
1235,81.0,60,48,6.0,80.0
1236,80.0,0,48,6.0,80.0
1237,68.0,0,96,8.0,80.0
1238,71.0,0,96,8.0,80.0
1239,62.0,0,96,11.0,80.0
1240,62.0,0,96,6.0,80.0
1241,64.0,0,96,10.0,80.0
1242,64.0,0,96,6.0,80.0
1243,71.0,60,48,6.0,80.0
1244,76.0,0,48,6.0,80.0
1245,64.0,60,192,7.0,80.0
1246,64.0,0,96,6.0,80.0
1247,62.0,60,96,11.0,80.0
1248,68.0,0,96,8.0,80.0
1249,71.0,0,96,8.0,80.0
1250,64.0,0,96,10.0,80.0
1251,62.0,0,96,6.0,80.0
1252,80.0,60,48,6.0,80.0
1253,81.0,0,24,7.0,80.0
1254,83.0,0,48,6.0,80.0
1255,80.0,30,24,7.0,80.0
1256,81.0,0,24,7.0,80.0
1257,62.0,0,96,6.0,80.0
1258,64.0,0,96,6.0,80.0
1259,68.0,0,96,8.0,80.0
1260,71.0,0,96,8.0,80.0
1261,62.0,60,96,11.0,80.0
1262,64.0,0,96,10.0,80.0
1263,80.0,30,48,6.0,80.0
1264,80.0,30,24,7.0,80.0
1265,81.0,30,24,7.0,80.0
1266,76.0,0,48,6.0,80.0
1267,80.0,30,24,7.0,80.0
1268,78.0,30,24,7.0,80.0
1269,71.0,0,96,8.0,80.0
1270,68.0,0,96,8.0,80.0
1271,64.0,0,96,10.0,80.0
1272,64.0,0,96,6.0,80.0
1273,62.0,0,96,6.0,80.0
1274,62.0,0,96,11.0,80.0
1275,71.0,0,48,6.0,80.0
1276,80.0,30,24,7.0,80.0
1277,81.0,0,48,6.0,80.0
1278,73.0,60,48,6.0,80.0
1279,76.0,60,48,6.0,80.0
1280,64.0,0,192,10.0,80.0
1281,64.0,0,192,6.0,80.0
1282,61.0,30,192,6.0,80.0
1283,81.0,0,192,7.0,80.0
1284,69.0,0,192,8.0,80.0
1285,61.0,0,192,11.0,80.0
1286,81.0,60,48,6.0,80.0
1287,85.0,60,48,6.0,80.0
1288,83.0,60,48,6.0,80.0
1289,81.0,60,48,6.0,80.0
1290,80.0,60,48,6.0,80.0
1291,78.0,0,48,6.0,80.0
1292,66.0,0,96,8.0,80.0
1293,69.0,0,96,8.0,80.0
1294,62.0,0,96,6.0,80.0
1295,61.0,60,96,6.0,80.0
1296,62.0,0,96,10.0,80.0
1297,61.0,0,96,11.0,80.0
1298,69.0,60,48,6.0,80.0
1299,74.0,0,48,6.0,80.0
1300,62.0,0,192,7.0,80.0
1301,66.0,60,96,8.0,80.0
1302,69.0,0,96,8.0,80.0
1303,61.0,0,96,11.0,80.0
1304,62.0,0,96,10.0,80.0
1305,61.0,0,96,6.0,80.0
1306,62.0,0,96,6.0,80.0
1307,78.0,60,48,6.0,80.0
1308,80.0,0,24,7.0,80.0
1309,81.0,0,48,6.0,80.0
1310,78.0,30,24,7.0,80.0
1311,80.0,30,24,7.0,80.0
1312,62.0,60,96,6.0,80.0
1313,62.0,0,96,10.0,80.0
1314,69.0,0,96,8.0,80.0
1315,61.0,0,96,11.0,80.0
1316,66.0,0,96,8.0,80.0
1317,61.0,0,96,6.0,80.0
1318,78.0,0,48,6.0,80.0
1319,78.0,30,24,7.0,80.0
1320,80.0,30,24,7.0,80.0
1321,74.0,0,48,6.0,80.0
1322,78.0,30,24,7.0,80.0
1323,76.0,0,24,7.0,80.0
1324,61.0,0,96,6.0,80.0
1325,62.0,0,96,6.0,80.0
1326,61.0,0,96,11.0,80.0
1327,66.0,0,96,8.0,80.0
1328,69.0,0,96,8.0,80.0
1329,62.0,0,96,10.0,80.0
1330,69.0,30,48,6.0,80.0
1331,78.0,30,24,7.0,80.0
1332,80.0,0,48,6.0,80.0
1333,71.0,60,48,6.0,80.0
1334,76.0,60,48,6.0,80.0
1335,68.0,0,192,8.0,80.0
1336,62.0,0,192,10.0,80.0
1337,80.0,30,192,7.0,80.0
1338,59.0,0,192,6.0,80.0
1339,59.0,0,192,11.0,80.0
1340,62.0,0,192,6.0,80.0
1341,80.0,60,48,6.0,80.0
1342,83.0,60,48,6.0,80.0
1343,81.0,60,48,6.0,80.0
1344,80.0,60,48,6.0,80.0
1345,78.0,60,48,6.0,80.0
1346,76.0,0,48,6.0,80.0
1347,59.0,0,96,11.0,80.0
1348,68.0,0,96,8.0,80.0
1349,59.0,60,96,6.0,80.0
1350,61.0,0,96,6.0,80.0
1351,64.0,0,96,10.0,80.0
1352,61.0,0,96,10.0,80.0
1353,68.0,60,48,6.0,80.0
1354,73.0,0,48,6.0,80.0
1355,61.0,0,192,7.0,80.0
1356,64.0,60,96,10.0,80.0
1357,59.0,0,96,11.0,80.0
1358,68.0,0,96,8.0,80.0
1359,61.0,0,96,10.0,80.0
1360,61.0,0,96,6.0,80.0
1361,59.0,0,96,6.0,80.0
1362,76.0,60,48,6.0,80.0
1363,78.0,0,24,7.0,80.0
1364,80.0,0,48,6.0,80.0
1365,76.0,30,24,7.0,80.0
1366,78.0,30,24,7.0,80.0
1367,59.0,0,96,6.0,80.0
1368,68.0,60,96,8.0,80.0
1369,64.0,0,96,10.0,80.0
1370,61.0,0,96,10.0,80.0
1371,61.0,0,96,6.0,80.0
1372,59.0,0,96,11.0,80.0
1373,76.0,0,48,6.0,80.0
1374,76.0,30,24,7.0,80.0
1375,78.0,0,24,7.0,80.0
1376,73.0,0,48,6.0,80.0
1377,76.0,30,24,7.0,80.0
1378,74.0,0,24,7.0,80.0
1379,59.0,30,96,11.0,80.0
1380,61.0,0,96,6.0,80.0
1381,59.0,0,96,6.0,80.0
1382,68.0,0,96,8.0,80.0
1383,61.0,0,96,10.0,80.0
1384,64.0,0,96,10.0,80.0
1385,68.0,30,48,6.0,80.0
1386,76.0,30,24,7.0,80.0
1387,78.0,0,48,6.0,80.0
1388,69.0,60,48,6.0,80.0
1389,73.0,60,48,6.0,80.0
1390,57.0,0,192,6.0,80.0
1391,61.0,0,192,6.0,80.0
1392,57.0,0,192,11.0,80.0
1393,61.0,0,192,10.0,80.0
1394,64.0,0,192,10.0,80.0
1395,66.0,0,192,8.0,80.0
1396,78.0,30,192,7.0,80.0
1397,78.0,60,48,6.0,80.0
1398,81.0,60,48,6.0,80.0
1399,80.0,60,48,6.0,80.0
1400,78.0,60,48,6.0,80.0
1401,76.0,60,48,6.0,80.0
1402,74.0,60,48,6.0,80.0
1403,59.0,0,96,10.0,80.0
1404,66.0,0,96,8.0,80.0
1405,59.0,0,96,6.0,80.0
1406,62.0,0,96,10.0,80.0
1407,57.0,0,96,11.0,80.0
1408,57.0,0,96,6.0,80.0
1409,66.0,60,48,6.0,80.0
1410,71.0,0,48,6.0,80.0
1411,59.0,0,192,7.0,80.0
1412,57.0,0,96,11.0,80.0
1413,66.0,0,96,8.0,80.0
1414,59.0,0,96,6.0,80.0
1415,57.0,60,96,6.0,80.0
1416,62.0,0,96,10.0,80.0
1417,59.0,0,96,10.0,80.0
1418,74.0,60,48,6.0,80.0
1419,76.0,0,24,7.0,80.0
1420,78.0,0,48,6.0,80.0
1421,74.0,30,24,7.0,80.0
1422,76.0,30,24,7.0,80.0
1423,59.0,0,96,6.0,80.0
1424,66.0,0,96,8.0,80.0
1425,62.0,0,96,10.0,80.0
1426,57.0,60,96,11.0,80.0
1427,59.0,0,96,10.0,80.0
1428,57.0,0,96,6.0,80.0
1429,74.0,0,48,6.0,80.0
1430,74.0,30,24,7.0,80.0
1431,76.0,0,24,7.0,80.0
1432,71.0,0,48,6.0,80.0
1433,74.0,30,24,7.0,80.0
1434,73.0,0,24,7.0,80.0
1435,59.0,30,96,6.0,80.0
1436,62.0,0,96,10.0,80.0
1437,59.0,0,96,10.0,80.0
1438,66.0,0,96,8.0,80.0
1439,57.0,0,96,6.0,80.0
1440,57.0,0,96,11.0,80.0
1441,66.0,30,48,6.0,80.0
1442,74.0,30,24,7.0,80.0
1443,76.0,0,48,6.0,80.0
1444,71.0,60,48,6.0,80.0
1445,80.0,60,48,6.0,80.0
1446,64.0,30,192,8.0,80.0
1447,56.0,0,192,11.0,80.0
1448,62.0,0,192,10.0,80.0
1449,59.0,0,192,10.0,80.0
1450,56.0,0,192,6.0,80.0
1451,76.0,0,192,7.0,80.0
1452,59.0,0,192,6.0,80.0
1453,76.0,60,48,6.0,80.0
1454,83.0,60,48,6.0,80.0
1455,80.0,60,48,6.0,80.0
1456,76.0,60,48,6.0,80.0
1457,74.0,60,48,6.0,80.0
1458,73.0,0,48,6.0,80.0
1459,81.0,60,48,6.0,80.0
1460,85.0,60,48,6.0,80.0
1461,64.0,0,192,8.0,80.0
1462,64.0,0,192,6.0,80.0
1463,80.0,60,48,6.0,80.0
1464,81.0,0,48,6.0,80.0
1465,76.0,60,48,6.0,80.0
1466,73.0,0,384,7.0,80.0
1467,57.0,60,384,10.0,80.0
1468,57.0,0,384,6.0,80.0
1469,78.0,60,48,6.0,80.0
1470,73.0,60,48,6.0,80.0
1471,74.0,60,48,6.0,80.0
1472,81.0,60,48,6.0,80.0
1473,86.0,60,48,6.0,80.0
1474,66.0,60,432,8.0,80.0
1475,66.0,0,432,6.0,80.0
1476,81.0,60,48,6.0,80.0
1477,83.0,0,48,6.0,80.0
1478,78.0,60,48,6.0,80.0
1479,59.0,0,384,6.0,80.0
1480,74.0,0,384,7.0,80.0
1481,59.0,0,384,10.0,80.0
1482,80.0,60,48,6.0,80.0
1483,74.0,60,48,6.0,80.0
1484,76.0,0,48,6.0,80.0
1485,85.0,60,48,6.0,80.0
1486,88.0,60,48,6.0,80.0
1487,68.0,0,432,6.0,80.0
1488,68.0,60,432,8.0,80.0
1489,83.0,60,48,6.0,80.0
1490,85.0,0,48,6.0,80.0
1491,80.0,60,48,6.0,80.0
1492,61.0,0,384,10.0,80.0
1493,61.0,0,384,6.0,80.0
1494,76.0,60,384,7.0,80.0
1495,81.0,60,48,6.0,80.0
1496,76.0,60,48,6.0,80.0
1497,78.0,0,48,6.0,80.0
1498,81.0,60,48,6.0,80.0
1499,83.0,60,48,6.0,80.0
1500,69.0,0,432,6.0,80.0
1501,69.0,60,432,8.0,80.0
1502,85.0,60,48,6.0,80.0
1503,86.0,60,48,6.0,80.0
1504,62.0,0,288,6.0,80.0
1505,62.0,60,288,10.0,80.0
1506,85.0,60,48,6.0,80.0
1507,78.0,0,384,7.0,80.0
1508,83.0,0,48,6.0,80.0
1509,71.0,0,192,8.0,80.0
1510,71.0,0,192,6.0,80.0
1511,63.0,60,96,10.0,80.0
1512,63.0,0,96,6.0,80.0
1513,81.0,60,48,6.0,80.0
1514,80.0,0,48,6.0,80.0
1515,76.0,60,48,6.0,80.0
1516,80.0,60,48,6.0,80.0
1517,80.0,0,192,7.0,80.0
1518,71.0,0,192,8.0,80.0
1519,64.0,0,192,10.0,80.0
1520,71.0,60,192,6.0,80.0
1521,64.0,0,192,6.0,80.0
1522,83.0,60,48,6.0,80.0
1523,86.0,0,48,6.0,80.0
1524,64.0,0,96,6.0,80.0
1525,68.0,60,96,6.0,80.0
1526,83.0,60,48,6.0,80.0
1527,85.0,0,48,6.0,80.0
1528,64.0,0,96,6.0,80.0
1529,69.0,60,96,6.0,80.0
1530,81.0,60,48,6.0,80.0
1531,80.0,60,48,6.0,80.0
1532,76.0,60,48,6.0,80.0
1533,80.0,60,48,6.0,80.0
1534,64.0,0,192,6.0,80.0
1535,71.0,0,192,6.0,80.0
1536,83.0,60,48,6.0,80.0
1537,86.0,60,48,6.0,80.0
1538,64.0,0,96,6.0,80.0
1539,68.0,0,96,6.0,80.0
1540,83.0,60,48,6.0,80.0
1541,85.0,0,48,6.0,80.0
1542,64.0,0,96,6.0,80.0
1543,69.0,60,96,6.0,80.0
1544,81.0,60,48,6.0,80.0
1545,68.0,0,48,7.0,80.0
1546,68.0,0,48,8.0,80.0
1547,52.0,0,96,11.0,80.0
1548,40.0,0,96,12.0,80.0
1549,64.0,0,96,10.0,80.0
1550,52.0,0,96,2.0,80.0
1551,64.0,60,48,8.0,80.0
1552,64.0,0,48,7.0,80.0
1553,68.0,0,48,8.0,80.0
1554,56.0,0,48,11.0,80.0
1555,68.0,60,48,10.0,80.0
1556,44.0,0,48,12.0,80.0
1557,68.0,0,48,7.0,80.0
1558,56.0,0,48,2.0,80.0
1559,64.0,0,192,6.0,80.0
1560,68.0,0,192,6.0,80.0
1561,88.0,60,192,6.0,80.0
1562,71.0,60,48,7.0,80.0
1563,59.0,0,48,11.0,80.0
1564,59.0,0,48,2.0,80.0
1565,71.0,0,48,10.0,80.0
1566,71.0,0,48,8.0,80.0
1567,47.0,0,48,12.0,80.0
1568,74.0,0,48,7.0,80.0
1569,74.0,0,48,8.0,80.0
1570,74.0,0,48,10.0,80.0
1571,50.0,60,48,12.0,80.0
1572,62.0,0,48,2.0,80.0
1573,62.0,0,48,11.0,80.0
1574,71.0,60,48,10.0,80.0
1575,59.0,0,48,11.0,80.0
1576,47.0,0,48,12.0,80.0
1577,71.0,0,48,7.0,80.0
1578,71.0,0,48,8.0,80.0
1579,59.0,0,48,2.0,80.0
1580,73.0,60,48,10.0,80.0
1581,61.0,0,48,2.0,80.0
1582,61.0,0,48,11.0,80.0
1583,73.0,0,48,8.0,80.0
1584,73.0,0,48,7.0,80.0
1585,49.0,0,48,12.0,80.0
1586,69.0,0,48,8.0,80.0
1587,69.0,0,48,10.0,80.0
1588,69.0,0,48,7.0,80.0
1589,45.0,60,48,12.0,80.0
1590,57.0,0,48,11.0,80.0
1591,57.0,0,48,2.0,80.0
1592,68.0,0,48,10.0,80.0
1593,68.0,60,48,7.0,80.0
1594,56.0,0,48,11.0,80.0
1595,56.0,0,48,2.0,80.0
1596,44.0,0,48,12.0,80.0
1597,68.0,0,48,8.0,80.0
1598,64.0,0,48,7.0,80.0
1599,40.0,0,48,12.0,80.0
1600,64.0,60,48,10.0,80.0
1601,52.0,0,48,11.0,80.0
1602,64.0,0,48,8.0,80.0
1603,52.0,0,48,2.0,80.0
1604,56.0,0,48,2.0,80.0
1605,68.0,60,48,7.0,80.0
1606,44.0,0,48,12.0,80.0
1607,56.0,0,48,11.0,80.0
1608,68.0,0,48,8.0,80.0
1609,68.0,0,48,10.0,80.0
1610,59.0,0,48,11.0,80.0
1611,59.0,60,48,2.0,80.0
1612,71.0,0,48,10.0,80.0
1613,47.0,0,48,12.0,80.0
1614,71.0,0,48,7.0,80.0
1615,71.0,0,48,8.0,80.0
1616,50.0,0,48,12.0,80.0
1617,62.0,0,48,2.0,80.0
1618,62.0,0,48,11.0,80.0
1619,74.0,0,48,8.0,80.0
1620,74.0,0,48,10.0,80.0
1621,74.0,60,48,7.0,80.0
1622,59.0,0,48,2.0,80.0
1623,59.0,0,48,11.0,80.0
1624,71.0,0,48,8.0,80.0
1625,47.0,0,48,12.0,80.0
1626,71.0,60,48,10.0,80.0
1627,71.0,0,48,7.0,80.0
1628,49.0,0,48,12.0,80.0
1629,73.0,0,48,8.0,80.0
1630,61.0,0,48,11.0,80.0
1631,73.0,0,48,7.0,80.0
1632,73.0,0,48,10.0,80.0
1633,61.0,60,48,2.0,80.0
1634,69.0,0,48,8.0,80.0
1635,69.0,0,48,10.0,80.0
1636,57.0,60,48,2.0,80.0
1637,45.0,0,48,12.0,80.0
1638,57.0,0,48,11.0,80.0
1639,69.0,0,48,7.0,80.0
1640,64.0,60,48,6.0,80.0
1641,66.0,60,48,6.0,80.0
1642,64.0,60,192,2.0,80.0
1643,52.0,0,192,12.0,80.0
1644,40.0,0,192,6.0,80.0
1645,52.0,0,192,6.0,80.0
1646,76.0,0,1152,1.0,80.0
1647,76.0,0,192,8.0,80.0
1648,64.0,0,1152,3.0,80.0
1649,64.0,0,192,11.0,80.0
1650,88.0,0,1152,0.0,80.0
1651,76.0,0,192,7.0,80.0
1652,76.0,0,192,10.0,80.0
1653,68.0,60,48,6.0,80.0
1654,69.0,60,48,6.0,80.0
1655,71.0,60,48,6.0,80.0
1656,73.0,60,48,6.0,80.0
1657,75.0,60,48,6.0,80.0
1658,76.0,60,48,6.0,80.0
1659,76.0,60,48,6.0,80.0
1660,78.0,60,48,6.0,80.0
1661,80.0,60,48,6.0,80.0
1662,81.0,60,48,6.0,80.0
1663,83.0,60,48,6.0,80.0
1664,85.0,60,48,6.0,80.0
1665,87.0,60,48,6.0,80.0
1666,69.0,0,96,10.0,80.0
1667,73.0,0,96,8.0,80.0
1668,88.0,0,192,6.0,80.0
1669,73.0,120,96,8.0,80.0
1670,69.0,0,96,10.0,80.0
1671,76.0,60,288,7.0,80.0
1672,73.0,120,96,8.0,80.0
1673,69.0,0,96,10.0,80.0
1674,69.0,120,96,10.0,80.0
1675,73.0,0,96,8.0,80.0
1676,81.0,0,96,7.0,80.0
1677,71.0,0,96,10.0,80.0
1678,80.0,0,96,7.0,80.0
1679,76.0,120,96,8.0,80.0
1680,76.0,120,96,8.0,80.0
1681,71.0,0,96,10.0,80.0
1682,80.0,0,96,7.0,80.0
1683,76.0,0,96,8.0,80.0
1684,71.0,120,96,10.0,80.0
1685,80.0,0,96,7.0,80.0
1686,80.0,0,48,7.0,80.0
1687,76.0,120,96,8.0,80.0
1688,71.0,0,96,10.0,80.0
1689,81.0,60,48,7.0,80.0
1690,69.0,0,96,10.0,80.0
1691,59.0,0,96,10.0,80.0
1692,75.0,60,96,8.0,80.0
1693,78.0,0,96,7.0,80.0
1694,78.0,0,96,7.0,80.0
1695,75.0,0,96,8.0,80.0
1696,59.0,120,96,10.0,80.0
1697,69.0,0,96,10.0,80.0
1698,59.0,120,96,10.0,80.0
1699,75.0,0,96,8.0,80.0
1700,78.0,0,96,7.0,80.0
1701,69.0,0,96,10.0,80.0
1702,78.0,0,48,7.0,80.0
1703,69.0,0,96,10.0,80.0
1704,59.0,120,96,10.0,80.0
1705,75.0,0,96,8.0,80.0
1706,80.0,60,48,7.0,80.0
1707,68.0,0,192,10.0,80.0
1708,64.0,0,192,10.0,80.0
1709,76.0,0,192,8.0,80.0
1710,76.0,60,192,7.0,80.0
1711,54.0,0,96,11.0,80.0
1712,57.0,0,96,10.0,80.0
1713,62.0,0,96,8.0,80.0
1714,54.0,0,96,11.0,80.0
1715,57.0,120,96,10.0,80.0
1716,62.0,0,96,8.0,80.0
1717,69.0,480,288,7.0,80.0
1718,57.0,120,96,10.0,80.0
1719,62.0,0,96,8.0,80.0
1720,54.0,0,96,11.0,80.0
1721,57.0,120,96,10.0,80.0
1722,62.0,0,96,8.0,80.0
1723,54.0,0,96,11.0,80.0
1724,74.0,0,96,7.0,80.0
1725,73.0,0,96,7.0,80.0
1726,69.0,0,96,8.0,80.0
1727,64.0,120,96,10.0,80.0
1728,52.0,0,96,11.0,80.0
1729,52.0,0,96,11.0,80.0
1730,73.0,0,96,7.0,80.0
1731,69.0,0,96,8.0,80.0
1732,64.0,120,96,10.0,80.0
1733,52.0,0,96,11.0,80.0
1734,64.0,120,96,10.0,80.0
1735,73.0,0,96,7.0,80.0
1736,69.0,0,96,8.0,80.0
1737,73.0,0,48,7.0,80.0
1738,52.0,0,96,11.0,80.0
1739,69.0,0,96,8.0,80.0
1740,64.0,120,96,10.0,80.0
1741,74.0,60,48,7.0,80.0
1742,52.0,60,96,11.0,80.0
1743,68.0,0,96,8.0,80.0
1744,71.0,0,96,7.0,80.0
1745,62.0,0,96,10.0,80.0
1746,71.0,0,96,7.0,80.0
1747,68.0,120,96,8.0,80.0
1748,62.0,0,96,10.0,80.0
1749,52.0,0,96,11.0,80.0
1750,68.0,0,96,8.0,80.0
1751,62.0,0,96,10.0,80.0
1752,71.0,120,96,7.0,80.0
1753,52.0,0,96,11.0,80.0
1754,71.0,0,48,7.0,80.0
1755,68.0,0,96,8.0,80.0
1756,62.0,0,96,10.0,80.0
1757,52.0,120,96,11.0,80.0
1758,73.0,60,48,7.0,80.0
1759,69.0,0,64,6.0,80.0
1760,71.0,80,64,6.0,80.0
1761,45.0,0,192,11.0,80.0
1762,69.0,0,192,7.0,80.0
1763,69.0,0,192,8.0,80.0
1764,61.0,60,192,10.0,80.0
1765,72.0,80,64,6.0,80.0
1766,73.0,80,64,6.0,80.0
1767,74.0,80,64,6.0,80.0
1768,75.0,80,64,6.0,80.0
1769,61.0,0,96,6.0,80.0
1770,64.0,0,96,6.0,80.0
1771,61.0,120,96,6.0,80.0
1772,64.0,0,96,6.0,80.0
1773,76.0,80,288,6.0,80.0
1774,61.0,120,96,6.0,80.0
1775,64.0,0,96,6.0,80.0
1776,81.0,0,96,6.0,80.0
1777,61.0,120,96,6.0,80.0
1778,64.0,0,96,6.0,80.0
1779,80.0,0,96,6.0,80.0
1780,59.0,120,192,6.0,80.0
1781,64.0,0,192,6.0,80.0
1782,80.0,120,96,6.0,80.0
1783,80.0,120,96,6.0,80.0
1784,80.0,120,48,6.0,80.0
1785,81.0,60,48,6.0,80.0
1786,78.0,0,96,6.0,80.0
1787,69.0,0,192,6.0,80.0
1788,59.0,60,192,6.0,80.0
1789,63.0,0,192,6.0,80.0
1790,78.0,120,96,6.0,80.0
1791,78.0,120,96,6.0,80.0
1792,78.0,120,48,6.0,80.0
1793,80.0,60,48,6.0,80.0
1794,76.0,0,64,6.0,80.0
1795,75.0,80,64,6.0,80.0
1796,68.0,60,192,6.0,80.0
1797,64.0,0,192,6.0,80.0
1798,74.0,80,64,6.0,80.0
1799,73.0,80,64,6.0,80.0
1800,72.0,80,64,6.0,80.0
1801,71.0,80,64,6.0,80.0
1802,54.0,0,96,6.0,80.0
1803,57.0,0,96,6.0,80.0
1804,57.0,0,96,6.0,80.0
1805,54.0,120,96,6.0,80.0
1806,69.0,0,288,6.0,80.0
1807,57.0,0,288,2.0,80.0
1808,81.0,80,288,0.0,80.0
1809,57.0,0,96,6.0,80.0
1810,54.0,120,96,6.0,80.0
1811,62.0,0,96,2.0,80.0
1812,86.0,0,96,0.0,80.0
1813,57.0,120,96,6.0,80.0
1814,54.0,0,96,6.0,80.0
1815,74.0,0,96,6.0,80.0
1816,85.0,0,96,0.0,80.0
1817,61.0,0,96,2.0,80.0
1818,73.0,0,96,6.0,80.0
1819,57.0,120,192,6.0,80.0
1820,52.0,0,192,6.0,80.0
1821,73.0,0,96,6.0,80.0
1822,85.0,0,96,0.0,80.0
1823,61.0,120,96,2.0,80.0
1824,73.0,0,96,6.0,80.0
1825,85.0,120,96,0.0,80.0
1826,61.0,0,96,2.0,80.0
1827,73.0,0,48,6.0,80.0
1828,85.0,120,48,0.0,80.0
1829,61.0,0,48,2.0,80.0
1830,62.0,60,48,2.0,80.0
1831,86.0,0,48,0.0,80.0
1832,74.0,0,48,6.0,80.0
1833,83.0,0,96,0.0,80.0
1834,59.0,0,96,2.0,80.0
1835,71.0,0,96,6.0,80.0
1836,56.0,0,192,6.0,80.0
1837,62.0,60,192,6.0,80.0
1838,52.0,0,192,6.0,80.0
1839,71.0,120,96,6.0,80.0
1840,83.0,0,96,0.0,80.0
1841,59.0,0,96,2.0,80.0
1842,59.0,120,96,2.0,80.0
1843,83.0,0,96,0.0,80.0
1844,71.0,0,96,6.0,80.0
1845,59.0,0,48,2.0,80.0
1846,83.0,120,48,0.0,80.0
1847,71.0,0,48,6.0,80.0
1848,73.0,0,48,6.0,80.0
1849,85.0,0,48,0.0,80.0
1850,61.0,60,48,2.0,80.0
1851,61.0,0,192,6.0,80.0
1852,81.0,0,192,0.0,80.0
1853,57.0,0,192,6.0,80.0
1854,69.0,60,192,6.0,80.0
1855,57.0,0,192,2.0,80.0
1856,57.0,240,48,6.0,80.0
1857,61.0,60,48,6.0,80.0
1858,64.0,60,48,6.0,80.0
1859,69.0,60,48,6.0,80.0
1860,59.0,0,48,6.0,80.0
1861,69.0,0,96,7.0,80.0
1862,81.0,0,96,0.0,80.0
1863,64.0,60,48,6.0,80.0
1864,69.0,0,48,6.0,80.0
1865,64.0,0,192,10.0,80.0
1866,52.0,0,192,6.0,80.0
1867,52.0,60,192,11.0,80.0
1868,40.0,0,192,12.0,80.0
1869,59.0,0,192,8.0,80.0
1870,40.0,0,192,6.0,80.0
1871,68.0,60,96,7.0,80.0
1872,80.0,0,96,0.0,80.0
1873,68.0,60,48,6.0,80.0
1874,59.0,60,48,6.0,80.0
1875,64.0,60,48,6.0,80.0
1876,68.0,60,48,6.0,80.0
1877,71.0,60,48,6.0,80.0
1878,61.0,60,48,6.0,80.0
1879,71.0,0,96,7.0,80.0
1880,83.0,0,96,0.0,80.0
1881,64.0,60,48,6.0,80.0
1882,73.0,0,48,6.0,80.0
1883,61.0,0,192,8.0,80.0
1884,64.0,0,192,10.0,80.0
1885,45.0,0,192,12.0,80.0
1886,45.0,0,192,6.0,80.0
1887,57.0,0,192,11.0,80.0
1888,33.0,0,192,6.0,80.0
1889,81.0,0,96,0.0,80.0
1890,69.0,60,96,7.0,80.0
1891,71.0,60,48,6.0,80.0
1892,61.0,60,48,6.0,80.0
1893,64.0,60,48,6.0,80.0
1894,69.0,60,48,6.0,80.0
1895,73.0,60,48,6.0,80.0
1896,64.0,0,48,6.0,80.0
1897,73.0,0,96,7.0,80.0
1898,85.0,0,96,0.0,80.0
1899,68.0,60,48,6.0,80.0
1900,73.0,60,48,6.0,80.0
1901,68.0,0,192,8.0,80.0
1902,52.0,0,192,6.0,80.0
1903,40.0,0,192,6.0,80.0
1904,64.0,0,192,10.0,80.0
1905,52.0,60,192,11.0,80.0
1906,40.0,0,192,12.0,80.0
1907,71.0,0,96,7.0,80.0
1908,83.0,0,96,0.0,80.0
1909,71.0,60,48,6.0,80.0
1910,64.0,60,48,6.0,80.0
1911,68.0,60,48,6.0,80.0
1912,71.0,60,48,6.0,80.0
1913,74.0,60,48,6.0,80.0
1914,64.0,0,48,6.0,80.0
1915,86.0,60,96,0.0,80.0
1916,74.0,0,96,7.0,80.0
1917,69.0,60,48,6.0,80.0
1918,74.0,0,48,6.0,80.0
1919,33.0,0,192,12.0,80.0
1920,64.0,0,192,10.0,80.0
1921,69.0,0,192,8.0,80.0
1922,45.0,0,192,6.0,80.0
1923,33.0,0,192,6.0,80.0
1924,45.0,0,192,11.0,80.0
1925,73.0,60,96,7.0,80.0
1926,85.0,0,96,0.0,80.0
1927,73.0,60,48,6.0,80.0
1928,33.0,60,48,6.0,80.0
1929,37.0,60,48,6.0,80.0
1930,40.0,60,48,6.0,80.0
1931,61.0,0,96,6.0,80.0
1932,45.0,60,48,6.0,80.0
1933,35.0,0,48,6.0,80.0
1934,62.0,60,96,6.0,80.0
1935,47.0,60,48,6.0,80.0
1936,37.0,60,48,6.0,80.0
1937,64.0,0,96,6.0,80.0
1938,49.0,60,48,6.0,80.0
1939,38.0,60,48,6.0,80.0
1940,66.0,0,96,6.0,80.0
1941,50.0,60,48,6.0,80.0
1942,40.0,0,48,6.0,80.0
1943,68.0,60,96,6.0,80.0
1944,52.0,60,48,6.0,80.0
1945,42.0,0,48,6.0,80.0
1946,69.0,60,96,6.0,80.0
1947,54.0,60,48,6.0,80.0
1948,44.0,60,48,6.0,80.0
1949,71.0,0,96,6.0,80.0
1950,56.0,60,48,6.0,80.0
1951,45.0,60,96,6.0,80.0
1952,73.0,0,96,6.0,80.0
1953,64.0,120,48,6.0,80.0
1954,64.0,0,96,8.0,80.0
1955,61.0,0,96,6.0,80.0
1956,61.0,0,96,10.0,80.0
1957,61.0,0,96,7.0,80.0
1958,76.0,60,48,6.0,80.0
1959,66.0,0,48,6.0,80.0
1960,66.0,0,96,8.0,80.0
1961,62.0,0,96,10.0,80.0
1962,62.0,60,96,7.0,80.0
1963,62.0,0,96,6.0,80.0
1964,78.0,60,48,6.0,80.0
1965,68.0,0,48,6.0,80.0
1966,64.0,60,96,10.0,80.0
1967,64.0,0,96,6.0,80.0
1968,64.0,0,96,7.0,80.0
1969,68.0,0,96,8.0,80.0
1970,80.0,60,48,6.0,80.0
1971,69.0,0,48,6.0,80.0
1972,66.0,0,96,10.0,80.0
1973,66.0,60,96,7.0,80.0
1974,66.0,0,96,6.0,80.0
1975,69.0,0,96,8.0,80.0
1976,81.0,60,48,6.0,80.0
1977,71.0,60,48,6.0,80.0
1978,71.0,0,96,8.0,80.0
1979,68.0,0,96,10.0,80.0
1980,68.0,0,96,7.0,80.0
1981,68.0,0,96,6.0,80.0
1982,83.0,60,48,6.0,80.0
1983,73.0,60,48,6.0,80.0
1984,73.0,0,96,8.0,80.0
1985,69.0,0,96,10.0,80.0
1986,69.0,0,96,7.0,80.0
1987,69.0,0,96,6.0,80.0
1988,85.0,60,48,6.0,80.0
1989,74.0,0,48,6.0,80.0
1990,71.0,0,96,6.0,80.0
1991,71.0,60,96,7.0,80.0
1992,71.0,0,96,10.0,80.0
1993,74.0,0,96,8.0,80.0
1994,86.0,60,48,6.0,80.0
1995,76.0,0,48,6.0,80.0
1996,73.0,60,96,7.0,80.0
1997,81.0,60,48,6.0,80.0
1998,88.0,60,48,6.0,80.0
1999,73.0,0,192,6.0,80.0
2000,73.0,0,192,10.0,80.0
2001,61.0,0,192,6.0,80.0
2002,69.0,0,96,7.0,80.0
2003,81.0,60,48,6.0,80.0
2004,78.0,0,48,6.0,80.0
2005,81.0,60,48,6.0,80.0
2006,88.0,60,48,6.0,80.0
2007,74.0,0,192,6.0,80.0
2008,76.0,0,432,8.0,80.0
2009,62.0,0,192,6.0,80.0
2010,74.0,60,192,10.0,80.0
2011,81.0,60,48,6.0,80.0
2012,78.0,0,48,6.0,80.0
2013,83.0,60,48,6.0,80.0
2014,78.0,0,384,7.0,80.0
2015,86.0,60,48,6.0,80.0
2016,59.0,0,192,6.0,80.0
2017,71.0,60,192,6.0,80.0
2018,71.0,0,192,10.0,80.0
2019,83.0,60,48,6.0,80.0
2020,76.0,0,48,6.0,80.0
2021,83.0,60,48,6.0,80.0
2022,86.0,60,48,6.0,80.0
2023,74.0,0,432,8.0,80.0
2024,68.0,0,192,6.0,80.0
2025,56.0,0,192,6.0,80.0
2026,68.0,60,192,10.0,80.0
2027,83.0,60,48,6.0,80.0
2028,76.0,0,48,6.0,80.0
2029,81.0,60,48,6.0,80.0
2030,76.0,0,384,7.0,80.0
2031,85.0,60,48,6.0,80.0
2032,69.0,0,192,6.0,80.0
2033,69.0,60,192,10.0,80.0
2034,57.0,0,192,6.0,80.0
2035,73.0,0,192,8.0,80.0
2036,81.0,60,48,6.0,80.0
2037,74.0,0,48,6.0,80.0
2038,78.0,60,48,6.0,80.0
2039,83.0,60,48,6.0,80.0
2040,50.0,60,192,6.0,80.0
2041,62.0,0,192,10.0,80.0
2042,62.0,0,192,6.0,80.0
2043,71.0,0,192,8.0,80.0
2044,74.0,0,192,7.0,80.0
2045,78.0,60,48,6.0,80.0
2046,71.0,0,48,6.0,80.0
2047,74.0,60,48,6.0,80.0
2048,80.0,60,48,6.0,80.0
2049,71.0,0,192,7.0,80.0
2050,68.0,0,192,8.0,80.0
2051,64.0,0,192,10.0,80.0
2052,52.0,60,192,6.0,80.0
2053,64.0,0,192,6.0,80.0
2054,74.0,60,48,6.0,80.0
2055,73.0,0,48,6.0,80.0
2056,76.0,60,48,6.0,80.0
2057,81.0,60,48,6.0,80.0
2058,57.0,0,192,6.0,80.0
2059,57.0,0,192,10.0,80.0
2060,69.0,60,192,7.0,80.0
2061,45.0,0,192,6.0,80.0
2062,69.0,0,192,8.0,80.0
2063,85.0,60,48,6.0,80.0
2064,49.0,0,48,6.0,80.0
2065,88.0,60,48,6.0,80.0
2066,61.0,0,48,6.0,80.0
2067,76.0,60,48,6.0,80.0
2068,75.0,60,48,6.0,80.0
2069,60.0,0,48,6.0,80.0
2070,76.0,0,192,1.0,80.0
2071,64.0,0,192,8.0,80.0
2072,61.0,0,192,11.0,80.0
2073,49.0,0,192,12.0,80.0
2074,61.0,60,48,6.0,80.0
2075,76.0,0,48,6.0,80.0
2076,50.0,0,48,6.0,80.0
2077,88.0,0,48,6.0,80.0
2078,78.0,0,48,6.0,80.0
2079,62.0,60,48,6.0,80.0
2080,77.0,0,48,6.0,80.0
2081,61.0,60,48,6.0,80.0
2082,69.0,0,432,7.0,80.0
2083,62.0,60,192,11.0,80.0
2084,64.0,0,432,10.0,80.0
2085,88.0,0,432,0.0,80.0
2086,50.0,0,192,12.0,80.0
2087,62.0,0,48,6.0,80.0
2088,78.0,60,48,6.0,80.0
2089,86.0,0,48,6.0,80.0
2090,47.0,0,48,6.0,80.0
2091,78.0,60,48,6.0,80.0
2092,59.0,0,48,6.0,80.0
2093,78.0,0,384,1.0,80.0
2094,66.0,0,384,8.0,80.0
2095,58.0,0,48,6.0,80.0
2096,86.0,60,48,6.0,80.0
2097,47.0,0,192,12.0,80.0
2098,59.0,60,192,11.0,80.0
2099,78.0,60,48,6.0,80.0
2100,59.0,0,48,6.0,80.0
2101,49.0,0,48,6.0,80.0
2102,86.0,0,48,6.0,80.0
2103,77.0,0,48,6.0,80.0
2104,61.0,60,48,6.0,80.0
2105,75.0,60,48,6.0,80.0
2106,60.0,0,48,6.0,80.0
2107,68.0,0,432,7.0,80.0
2108,62.0,0,432,10.0,80.0
2109,65.0,60,192,8.0,80.0
2110,49.0,0,192,12.0,80.0
2111,77.0,0,192,1.0,80.0
2112,86.0,0,432,0.0,80.0
2113,61.0,0,192,11.0,80.0
2114,61.0,0,48,6.0,80.0
2115,77.0,60,48,6.0,80.0
2116,46.0,60,48,6.0,80.0
2117,85.0,0,48,6.0,80.0
2118,76.0,0,48,6.0,80.0
2119,58.0,60,48,6.0,80.0
2120,56.0,60,48,6.0,80.0
2121,85.0,0,48,6.0,80.0
2122,64.0,0,192,8.0,80.0
2123,46.0,0,192,12.0,80.0
2124,76.0,0,192,1.0,80.0
2125,58.0,0,192,11.0,80.0
2126,67.0,0,192,7.0,80.0
2127,58.0,60,48,6.0,80.0
2128,76.0,0,48,6.0,80.0
2129,47.0,0,48,6.0,80.0
2130,85.0,60,48,6.0,80.0
2131,59.0,60,48,6.0,80.0
2132,75.0,0,48,6.0,80.0
2133,73.0,60,48,6.0,80.0
2134,58.0,0,48,6.0,80.0
2135,85.0,0,432,0.0,80.0
2136,66.0,0,192,7.0,80.0
2137,59.0,0,192,11.0,80.0
2138,61.0,0,432,10.0,80.0
2139,75.0,0,192,1.0,80.0
2140,47.0,0,192,12.0,80.0
2141,63.0,0,192,8.0,80.0
2142,59.0,0,48,6.0,80.0
2143,75.0,60,48,6.0,80.0
2144,44.0,0,48,6.0,80.0
2145,83.0,0,48,6.0,80.0
2146,56.0,0,48,6.0,80.0
2147,74.0,60,48,6.0,80.0
2148,54.0,60,48,6.0,80.0
2149,83.0,0,48,6.0,80.0
2150,44.0,0,192,12.0,80.0
2151,65.0,0,192,7.0,80.0
2152,56.0,0,192,11.0,80.0
2153,74.0,0,192,1.0,80.0
2154,62.0,0,192,8.0,80.0
2155,74.0,0,48,6.0,80.0
2156,56.0,60,48,6.0,80.0
2157,41.0,0,48,6.0,80.0
2158,83.0,0,48,6.0,80.0
2159,73.0,60,48,6.0,80.0
2160,53.0,0,48,6.0,80.0
2161,51.0,60,48,6.0,80.0
2162,72.0,0,48,6.0,80.0
2163,41.0,0,192,12.0,80.0
2164,68.0,60,192,7.0,80.0
2165,59.0,60,432,10.0,80.0
2166,83.0,0,432,0.0,80.0
2167,53.0,0,192,11.0,80.0
2168,73.0,0,48,6.0,80.0
2169,53.0,60,48,6.0,80.0
2170,42.0,0,48,6.0,80.0
2171,81.0,0,48,6.0,80.0
2172,73.0,60,48,6.0,80.0
2173,54.0,0,48,6.0,80.0
2174,73.0,0,384,1.0,80.0
2175,61.0,0,384,8.0,80.0
2176,81.0,60,48,6.0,80.0
2177,53.0,0,48,6.0,80.0
2178,57.0,0,192,10.0,80.0
2179,42.0,0,192,12.0,80.0
2180,66.0,0,192,7.0,80.0
2181,54.0,0,192,11.0,80.0
2182,54.0,60,48,6.0,80.0
2183,73.0,0,48,6.0,80.0
2184,81.0,0,48,6.0,80.0
2185,38.0,0,48,6.0,80.0
2186,50.0,0,48,6.0,80.0
2187,71.0,60,48,6.0,80.0
2188,81.0,0,48,6.0,80.0
2189,38.0,60,48,6.0,80.0
2190,66.0,0,192,10.0,80.0
2191,69.0,0,192,7.0,80.0
2192,38.0,60,192,12.0,80.0
2193,81.0,60,432,0.0,80.0
2194,50.0,0,192,11.0,80.0
2195,50.0,60,48,6.0,80.0
2196,71.0,0,48,6.0,80.0
2197,80.0,60,48,6.0,80.0
2198,40.0,0,48,6.0,80.0
2199,71.0,0,48,6.0,80.0
2200,52.0,60,48,6.0,80.0
2201,59.0,0,384,8.0,80.0
2202,71.0,0,384,1.0,80.0
2203,40.0,60,48,6.0,80.0
2204,80.0,0,48,6.0,80.0
2205,80.0,0,192,0.0,80.0
2206,40.0,0,192,12.0,80.0
2207,52.0,0,192,11.0,80.0
2208,64.0,0,192,10.0,80.0
2209,68.0,0,192,7.0,80.0
2210,71.0,0,48,6.0,80.0
2211,52.0,60,48,6.0,80.0
2212,81.0,0,48,6.0,80.0
2213,64.0,0,96,10.0,80.0
2214,69.0,0,96,7.0,80.0
2215,61.0,0,96,8.0,80.0
2216,69.0,60,48,6.0,80.0
2217,73.0,0,48,6.0,80.0
2218,45.0,0,192,12.0,80.0
2219,73.0,0,192,1.0,80.0
2220,81.0,60,192,0.0,80.0
2221,57.0,0,192,11.0,80.0
2222,45.0,0,192,6.0,80.0
2223,69.0,0,96,7.0,80.0
2224,64.0,0,96,10.0,80.0
2225,61.0,60,96,8.0,80.0
2226,76.0,60,48,6.0,80.0
2227,81.0,0,48,6.0,80.0
2228,61.0,0,96,8.0,80.0
2229,64.0,60,96,10.0,80.0
2230,69.0,0,96,7.0,80.0
2231,85.0,60,48,6.0,80.0
2232,88.0,60,48,6.0,80.0
2233,64.0,0,96,10.0,80.0
2234,61.0,0,96,8.0,80.0
2235,69.0,0,96,7.0,80.0
2236,85.0,60,48,6.0,80.0
2237,86.0,0,48,6.0,80.0
2238,83.0,60,48,6.0,80.0
2239,80.0,0,48,6.0,80.0
2240,40.0,0,192,12.0,80.0
2241,52.0,0,192,6.0,80.0
2242,52.0,60,192,11.0,80.0
2243,56.0,0,192,6.0,80.0
2244,62.0,0,192,6.0,80.0
2245,62.0,0,96,8.0,80.0
2246,68.0,60,96,7.0,80.0
2247,64.0,0,96,10.0,80.0
2248,76.0,60,48,6.0,80.0
2249,75.0,0,48,6.0,80.0
2250,68.0,0,96,7.0,80.0
2251,64.0,0,96,10.0,80.0
2252,62.0,60,96,8.0,80.0
2253,76.0,60,48,6.0,80.0
2254,74.0,0,48,6.0,80.0
2255,64.0,0,96,10.0,80.0
2256,68.0,60,96,7.0,80.0
2257,62.0,0,96,8.0,80.0
2258,71.0,60,48,6.0,80.0
2259,69.0,0,48,6.0,80.0
2260,73.0,60,48,6.0,80.0
2261,76.0,0,48,6.0,80.0
2262,61.0,0,192,6.0,80.0
2263,57.0,0,192,6.0,80.0
2264,45.0,0,192,12.0,80.0
2265,57.0,0,192,11.0,80.0
2266,69.0,0,96,7.0,80.0
2267,64.0,60,96,10.0,80.0
2268,61.0,0,96,8.0,80.0
2269,80.0,60,48,6.0,80.0
2270,81.0,0,48,6.0,80.0
2271,69.0,0,96,7.0,80.0
2272,64.0,60,96,10.0,80.0
2273,61.0,0,96,8.0,80.0
2274,85.0,60,48,6.0,80.0
2275,88.0,60,48,6.0,80.0
2276,64.0,0,96,10.0,80.0
2277,61.0,0,96,8.0,80.0
2278,69.0,0,96,7.0,80.0
2279,85.0,60,48,6.0,80.0
2280,86.0,60,48,6.0,80.0
2281,83.0,60,48,6.0,80.0
2282,80.0,60,48,6.0,80.0
2283,40.0,0,192,12.0,80.0
2284,52.0,0,192,11.0,80.0
2285,62.0,0,192,6.0,80.0
2286,56.0,0,192,6.0,80.0
2287,52.0,0,192,6.0,80.0
2288,64.0,0,96,10.0,80.0
2289,62.0,0,96,8.0,80.0
2290,68.0,0,96,7.0,80.0
2291,76.0,60,48,6.0,80.0
2292,75.0,0,48,6.0,80.0
2293,64.0,60,96,10.0,80.0
2294,62.0,0,96,8.0,80.0
2295,68.0,0,96,7.0,80.0
2296,76.0,60,48,6.0,80.0
2297,64.0,60,864,2.0,80.0
2298,74.0,0,48,6.0,80.0
2299,64.0,60,96,10.0,80.0
2300,62.0,0,96,8.0,80.0
2301,68.0,0,96,7.0,80.0
2302,71.0,60,48,6.0,80.0
2303,69.0,0,48,6.0,80.0
2304,68.0,60,48,6.0,80.0
2305,71.0,60,48,6.0,80.0
2306,61.0,0,192,8.0,80.0
2307,64.0,0,192,10.0,80.0
2308,57.0,0,192,11.0,80.0
2309,45.0,0,192,12.0,80.0
2310,57.0,0,192,2.0,80.0
2311,69.0,60,192,7.0,80.0
2312,57.0,0,192,6.0,80.0
2313,61.0,0,192,6.0,80.0
2314,69.0,60,48,6.0,80.0
2315,73.0,60,48,6.0,80.0
2316,71.0,60,48,6.0,80.0
2317,74.0,60,48,6.0,80.0
2318,73.0,60,48,6.0,80.0
2319,76.0,60,48,6.0,80.0
2320,75.0,60,48,6.0,80.0
2321,78.0,60,48,6.0,80.0
2322,76.0,60,48,6.0,80.0
2323,79.0,60,48,6.0,80.0
2324,78.0,60,48,6.0,80.0
2325,81.0,60,48,6.0,80.0
2326,79.0,60,48,6.0,80.0
2327,79.0,60,48,6.0,80.0
2328,78.0,60,48,6.0,80.0
2329,79.0,60,48,6.0,80.0
2330,81.0,60,48,6.0,80.0
2331,83.0,60,48,6.0,80.0
2332,81.0,60,48,6.0,80.0
2333,79.0,60,48,6.0,80.0
2334,78.0,60,48,6.0,80.0
2335,67.0,60,48,6.0,80.0
2336,76.0,0,48,6.0,80.0
2337,75.0,60,48,6.0,80.0
2338,66.0,0,48,6.0,80.0
2339,76.0,0,48,6.0,80.0
2340,67.0,60,48,6.0,80.0
2341,78.0,0,48,6.0,80.0
2342,69.0,60,48,6.0,80.0
2343,79.0,60,48,6.0,80.0
2344,71.0,0,48,6.0,80.0
2345,78.0,0,48,6.0,80.0
2346,69.0,60,48,6.0,80.0
2347,76.0,0,48,6.0,80.0
2348,67.0,60,48,6.0,80.0
2349,66.0,0,48,6.0,80.0
2350,74.0,60,48,6.0,80.0
2351,73.0,60,48,6.0,80.0
2352,64.0,0,48,6.0,80.0
2353,62.0,0,48,6.0,80.0
2354,71.0,60,48,6.0,80.0
2355,64.0,60,48,6.0,80.0
2356,73.0,0,48,6.0,80.0
2357,74.0,0,48,6.0,80.0
2358,66.0,60,48,6.0,80.0
2359,76.0,0,48,6.0,80.0
2360,67.0,60,48,6.0,80.0
2361,74.0,60,48,6.0,80.0
2362,66.0,0,48,6.0,80.0
2363,64.0,0,48,6.0,80.0
2364,73.0,60,48,6.0,80.0
2365,62.0,60,48,6.0,80.0
2366,71.0,0,48,6.0,80.0
2367,69.0,0,48,6.0,80.0
2368,70.0,60,48,6.0,80.0
2369,71.0,60,48,6.0,80.0
2370,61.0,60,192,6.0,80.0
2371,69.0,60,48,6.0,80.0
2372,67.0,60,48,6.0,80.0
2373,66.0,60,48,6.0,80.0
2374,64.0,60,48,6.0,80.0
2375,63.0,60,48,6.0,80.0
2376,64.0,60,48,6.0,80.0
2377,55.0,0,48,6.0,80.0
2378,63.0,60,48,6.0,80.0
2379,54.0,0,48,6.0,80.0
2380,55.0,60,48,6.0,80.0
2381,64.0,0,48,6.0,80.0
2382,66.0,0,48,6.0,80.0
2383,57.0,60,48,6.0,80.0
2384,67.0,60,48,6.0,80.0
2385,59.0,0,48,6.0,80.0
2386,66.0,60,48,6.0,80.0
2387,57.0,0,48,6.0,80.0
2388,55.0,60,48,6.0,80.0
2389,64.0,0,48,6.0,80.0
2390,62.0,0,48,6.0,80.0
2391,54.0,60,48,6.0,80.0
2392,52.0,0,48,6.0,80.0
2393,61.0,60,48,6.0,80.0
2394,51.0,60,48,6.0,80.0
2395,59.0,0,48,6.0,80.0
2396,52.0,0,48,6.0,80.0
2397,61.0,60,48,6.0,80.0
2398,54.0,60,48,6.0,80.0
2399,62.0,0,48,6.0,80.0
2400,55.0,0,48,6.0,80.0
2401,64.0,60,48,6.0,80.0
2402,54.0,60,48,6.0,80.0
2403,62.0,0,48,6.0,80.0
2404,52.0,60,48,6.0,80.0
2405,61.0,0,48,6.0,80.0
2406,59.0,60,48,6.0,80.0
2407,50.0,0,48,6.0,80.0
2408,57.0,60,48,6.0,80.0
2409,56.0,60,48,6.0,80.0
2410,69.0,0,1632,1.0,80.0
2411,57.0,0,3072,3.0,80.0
2412,45.0,0,3072,3.0,80.0
2413,81.0,0,1632,0.0,80.0
2414,81.0,0,1632,1.0,80.0
2415,49.0,60,192,6.0,80.0
2416,45.0,0,192,6.0,80.0
2417,57.0,60,48,6.0,80.0
2418,58.0,60,48,6.0,80.0
2419,59.0,60,48,6.0,80.0
2420,60.0,60,48,6.0,80.0
2421,61.0,60,48,6.0,80.0
2422,62.0,60,48,6.0,80.0
2423,63.0,60,48,6.0,80.0
2424,64.0,60,48,6.0,80.0
2425,65.0,60,48,6.0,80.0
2426,66.0,60,48,6.0,80.0
2427,67.0,60,48,6.0,80.0
2428,68.0,60,48,6.0,80.0
2429,69.0,60,48,6.0,80.0
2430,70.0,60,48,6.0,80.0
2431,71.0,60,48,6.0,80.0
2432,72.0,60,48,6.0,80.0
2433,73.0,60,48,6.0,80.0
2434,74.0,60,48,6.0,80.0
2435,75.0,60,48,6.0,80.0
2436,76.0,60,48,6.0,80.0
2437,77.0,60,48,6.0,80.0
2438,78.0,60,48,6.0,80.0
2439,79.0,60,48,6.0,80.0
2440,80.0,60,48,6.0,80.0
2441,81.0,60,48,6.0,80.0
2442,82.0,60,48,6.0,80.0
2443,83.0,60,48,6.0,80.0
2444,79.0,60,48,6.0,80.0
2445,76.0,60,48,6.0,80.0
2446,62.0,60,48,6.0,80.0
2447,69.0,60,48,6.0,80.0
2448,66.0,60,48,6.0,80.0
2449,69.0,60,48,6.0,80.0
2450,62.0,60,48,6.0,80.0
2451,74.0,0,288,6.0,80.0
2452,69.0,60,48,6.0,80.0
2453,66.0,0,48,6.0,80.0
2454,78.0,60,96,6.0,80.0
2455,69.0,60,48,6.0,80.0
2456,62.0,60,48,6.0,80.0
2457,69.0,60,48,6.0,80.0
2458,66.0,60,48,6.0,80.0
2459,69.0,60,48,6.0,80.0
2460,62.0,60,48,6.0,80.0
2461,81.0,0,288,6.0,80.0
2462,69.0,60,48,6.0,80.0
2463,66.0,0,48,6.0,80.0
2464,78.0,60,96,6.0,80.0
2465,69.0,60,48,6.0,80.0
2466,57.0,60,48,6.0,80.0
2467,76.0,0,96,6.0,80.0
2468,67.0,60,48,6.0,80.0
2469,66.0,60,48,6.0,80.0
2470,76.0,0,96,6.0,80.0
2471,67.0,60,48,6.0,80.0
2472,78.0,60,48,6.0,80.0
2473,69.0,0,48,6.0,80.0
2474,76.0,60,48,6.0,80.0
2475,67.0,0,48,6.0,80.0
2476,66.0,0,48,6.0,80.0
2477,75.0,60,48,6.0,80.0
2478,67.0,60,48,6.0,80.0
2479,76.0,0,48,6.0,80.0
2480,57.0,60,48,6.0,80.0
2481,73.0,0,96,6.0,80.0
2482,64.0,60,48,6.0,80.0
2483,62.0,0,48,6.0,80.0
2484,73.0,60,96,6.0,80.0
2485,64.0,60,48,6.0,80.0
2486,66.0,0,48,6.0,80.0
2487,74.0,60,48,6.0,80.0
2488,64.0,0,48,6.0,80.0
2489,73.0,60,48,6.0,80.0
2490,62.0,0,48,6.0,80.0
2491,71.0,60,48,6.0,80.0
2492,73.0,0,48,6.0,80.0
2493,64.0,60,48,6.0,80.0
2494,62.0,0,48,6.0,80.0
2495,74.0,60,96,6.0,80.0
2496,69.0,60,48,6.0,80.0
2497,66.0,60,48,6.0,80.0
2498,69.0,60,48,6.0,80.0
2499,62.0,60,48,6.0,80.0
2500,74.0,0,192,6.0,80.0
2501,69.0,60,48,6.0,80.0
2502,66.0,0,48,6.0,80.0
2503,78.0,60,96,6.0,80.0
2504,69.0,60,48,6.0,80.0
2505,62.0,0,48,6.0,80.0
2506,81.0,60,96,6.0,80.0
2507,69.0,60,48,6.0,80.0
2508,66.0,60,48,6.0,80.0
2509,69.0,60,48,6.0,80.0
2510,62.0,60,48,6.0,80.0
2511,81.0,0,192,6.0,80.0
2512,69.0,60,48,6.0,80.0
2513,66.0,60,48,6.0,80.0
2514,78.0,0,96,6.0,80.0
2515,69.0,60,48,6.0,80.0
2516,64.0,0,48,6.0,80.0
2517,76.0,60,96,6.0,80.0
2518,73.0,60,48,6.0,80.0
2519,69.0,60,48,6.0,80.0
2520,73.0,60,48,6.0,80.0
2521,64.0,60,48,6.0,80.0
2522,81.0,0,192,6.0,80.0
2523,74.0,60,48,6.0,80.0
2524,71.0,60,48,6.0,80.0
2525,83.0,0,48,6.0,80.0
2526,80.0,60,48,6.0,80.0
2527,74.0,0,48,6.0,80.0
2528,69.0,60,48,6.0,80.0
2529,68.0,60,48,6.0,80.0
2530,69.0,60,48,6.0,80.0
2531,81.0,0,192,6.0,80.0
2532,71.0,60,48,6.0,80.0
2533,69.0,60,48,6.0,80.0
2534,67.0,60,48,6.0,80.0
2535,66.0,60,48,6.0,80.0
2536,69.0,0,96,1.0,80.0
2537,69.0,0,96,7.0,80.0
2538,69.0,0,96,0.0,80.0
2539,64.0,60,48,6.0,80.0
2540,66.0,0,48,8.0,80.0
2541,38.0,0,96,12.0,80.0
2542,62.0,60,96,10.0,80.0
2543,50.0,0,96,11.0,80.0
2544,62.0,0,96,6.0,80.0
2545,69.0,60,48,8.0,80.0
2546,66.0,0,48,8.0,80.0
2547,74.0,0,192,4.0,80.0
2548,50.0,0,192,5.0,80.0
2549,62.0,0,192,4.0,80.0
2550,50.0,0,96,11.0,80.0
2551,62.0,0,96,10.0,80.0
2552,38.0,60,96,12.0,80.0
2553,69.0,60,48,8.0,80.0
2554,50.0,0,288,3.0,80.0
2555,62.0,0,288,3.0,80.0
2556,74.0,0,288,7.0,80.0
2557,74.0,0,288,1.0,80.0
2558,74.0,0,288,0.0,80.0
2559,66.0,0,48,8.0,80.0
2560,50.0,60,96,11.0,80.0
2561,38.0,0,96,12.0,80.0
2562,62.0,0,96,10.0,80.0
2563,69.0,60,48,8.0,80.0
2564,54.0,0,384,2.0,80.0
2565,62.0,0,384,2.0,80.0
2566,66.0,0,48,8.0,80.0
2567,78.0,0,96,7.0,80.0
2568,50.0,0,96,11.0,80.0
2569,66.0,0,96,3.0,80.0
2570,38.0,0,96,12.0,80.0
2571,78.0,0,96,0.0,80.0
2572,54.0,60,96,3.0,80.0
2573,62.0,0,96,10.0,80.0
2574,78.0,0,96,1.0,80.0
2575,69.0,60,48,8.0,80.0
2576,66.0,0,48,8.0,80.0
2577,38.0,0,96,12.0,80.0
2578,62.0,0,96,10.0,80.0
2579,50.0,0,96,11.0,80.0
2580,69.0,60,48,8.0,80.0
2581,66.0,0,48,8.0,80.0
2582,50.0,0,192,5.0,80.0
2583,62.0,0,192,4.0,80.0
2584,74.0,0,192,4.0,80.0
2585,38.0,0,96,12.0,80.0
2586,50.0,0,96,11.0,80.0
2587,62.0,60,96,10.0,80.0
2588,69.0,60,48,8.0,80.0
2589,81.0,60,288,1.0,80.0
2590,69.0,0,288,3.0,80.0
2591,57.0,0,288,3.0,80.0
2592,66.0,0,48,8.0,80.0
2593,81.0,0,288,0.0,80.0
2594,81.0,0,288,7.0,80.0
2595,38.0,0,96,12.0,80.0
2596,62.0,60,96,10.0,80.0
2597,50.0,0,96,11.0,80.0
2598,69.0,60,48,8.0,80.0
2599,62.0,0,384,2.0,80.0
2600,66.0,0,384,2.0,80.0
2601,66.0,0,48,8.0,80.0
2602,78.0,0,96,7.0,80.0
2603,38.0,0,96,12.0,80.0
2604,62.0,0,96,10.0,80.0
2605,78.0,0,96,1.0,80.0
2606,66.0,0,96,3.0,80.0
2607,54.0,60,96,3.0,80.0
2608,78.0,0,96,0.0,80.0
2609,50.0,0,96,11.0,80.0
2610,69.0,60,48,8.0,80.0
2611,67.0,0,48,8.0,80.0
2612,76.0,0,96,1.0,80.0
2613,33.0,0,96,12.0,80.0
2614,57.0,60,96,3.0,80.0
2615,45.0,0,96,5.0,80.0
2616,76.0,0,96,7.0,80.0
2617,64.0,0,96,2.0,80.0
2618,76.0,0,96,0.0,80.0
2619,67.0,0,96,2.0,80.0
2620,61.0,0,96,10.0,80.0
2621,45.0,0,96,11.0,80.0
2622,64.0,0,96,3.0,80.0
2623,69.0,0,96,4.0,80.0
2624,69.0,60,48,8.0,80.0
2625,67.0,60,48,8.0,80.0
2626,76.0,0,96,7.0,80.0
2627,64.0,0,96,3.0,80.0
2628,57.0,0,96,3.0,80.0
2629,64.0,0,96,2.0,80.0
2630,67.0,0,96,2.0,80.0
2631,76.0,0,96,1.0,80.0
2632,45.0,0,96,12.0,80.0
2633,45.0,0,96,5.0,80.0
2634,69.0,0,96,4.0,80.0
2635,76.0,0,96,0.0,80.0
2636,57.0,0,96,11.0,80.0
2637,61.0,0,96,10.0,80.0
2638,69.0,60,48,8.0,80.0
2639,78.0,0,48,0.0,80.0
2640,78.0,0,48,7.0,80.0
2641,67.0,0,48,8.0,80.0
2642,78.0,0,48,1.0,80.0
2643,33.0,0,96,12.0,80.0
2644,45.0,0,96,11.0,80.0
2645,61.0,0,96,10.0,80.0
2646,76.0,0,48,0.0,80.0
2647,69.0,0,48,8.0,80.0
2648,76.0,60,48,7.0,80.0
2649,76.0,0,48,1.0,80.0
2650,75.0,0,48,0.0,80.0
2651,67.0,60,48,8.0,80.0
2652,75.0,0,48,1.0,80.0
2653,75.0,0,48,7.0,80.0
2654,64.0,0,192,2.0,80.0
2655,67.0,0,192,2.0,80.0
2656,45.0,0,192,5.0,80.0
2657,64.0,0,192,3.0,80.0
2658,57.0,60,192,3.0,80.0
2659,69.0,0,192,4.0,80.0
2660,45.0,0,96,12.0,80.0
2661,61.0,0,96,10.0,80.0
2662,57.0,0,96,11.0,80.0
2663,76.0,0,48,1.0,80.0
2664,69.0,0,48,8.0,80.0
2665,76.0,60,48,7.0,80.0
2666,76.0,0,48,0.0,80.0
2667,67.0,0,48,8.0,80.0
2668,69.0,0,96,4.0,80.0
2669,45.0,0,96,5.0,80.0
2670,57.0,0,96,3.0,80.0
2671,45.0,0,96,3.0,80.0
2672,45.0,0,96,11.0,80.0
2673,33.0,0,96,12.0,80.0
2674,73.0,60,96,1.0,80.0
2675,64.0,0,96,10.0,80.0
2676,73.0,0,96,7.0,80.0
2677,64.0,0,96,2.0,80.0
2678,61.0,0,96,2.0,80.0
2679,73.0,0,96,0.0,80.0
2680,69.0,60,48,8.0,80.0
2681,67.0,0,48,8.0,80.0
2682,57.0,0,96,11.0,80.0
2683,64.0,0,96,10.0,80.0
2684,45.0,0,96,12.0,80.0
2685,57.0,0,96,3.0,80.0
2686,45.0,0,96,3.0,80.0
2687,69.0,0,96,4.0,80.0
2688,73.0,60,96,0.0,80.0
2689,64.0,0,96,2.0,80.0
2690,45.0,0,96,5.0,80.0
2691,61.0,0,96,2.0,80.0
2692,73.0,0,96,7.0,80.0
2693,73.0,0,96,1.0,80.0
2694,69.0,60,48,8.0,80.0
2695,67.0,0,48,8.0,80.0
2696,74.0,0,48,7.0,80.0
2697,74.0,0,48,0.0,80.0
2698,74.0,60,48,1.0,80.0
2699,64.0,0,96,10.0,80.0
2700,33.0,0,96,12.0,80.0
2701,45.0,0,96,11.0,80.0
2702,73.0,0,48,0.0,80.0
2703,73.0,60,48,7.0,80.0
2704,73.0,0,48,1.0,80.0
2705,69.0,0,48,8.0,80.0
2706,71.0,0,48,1.0,80.0
2707,71.0,0,48,7.0,80.0
2708,71.0,0,48,0.0,80.0
2709,67.0,60,48,8.0,80.0
2710,57.0,0,192,3.0,80.0
2711,61.0,0,192,2.0,80.0
2712,45.0,0,192,5.0,80.0
2713,69.0,0,192,4.0,80.0
2714,45.0,0,192,3.0,80.0
2715,64.0,0,192,2.0,80.0
2716,64.0,0,96,10.0,80.0
2717,57.0,0,96,11.0,80.0
2718,45.0,0,96,12.0,80.0
2719,73.0,0,48,7.0,80.0
2720,69.0,60,48,8.0,80.0
2721,73.0,0,48,0.0,80.0
2722,73.0,0,48,1.0,80.0
2723,66.0,0,48,8.0,80.0
2724,62.0,0,96,10.0,80.0
2725,38.0,0,96,12.0,80.0
2726,62.0,0,96,4.0,80.0
2727,50.0,0,96,11.0,80.0
2728,74.0,0,96,0.0,80.0
2729,50.0,0,96,3.0,80.0
2730,62.0,60,96,3.0,80.0
2731,74.0,0,96,7.0,80.0
2732,74.0,0,96,1.0,80.0
2733,74.0,0,96,4.0,80.0
2734,69.0,60,48,8.0,80.0
2735,66.0,0,48,8.0,80.0
2736,50.0,0,192,5.0,80.0
2737,38.0,0,96,12.0,80.0
2738,50.0,0,96,11.0,80.0
2739,62.0,0,96,4.0,80.0
2740,74.0,0,96,4.0,80.0
2741,69.0,60,48,8.0,80.0
2742,66.0,0,48,8.0,80.0
2743,50.0,0,192,3.0,80.0
2744,74.0,0,192,1.0,80.0
2745,62.0,0,192,3.0,80.0
2746,74.0,60,192,7.0,80.0
2747,74.0,0,192,0.0,80.0
2748,57.0,0,192,10.0,80.0
2749,50.0,0,96,11.0,80.0
2750,38.0,0,96,12.0,80.0
2751,69.0,60,48,8.0,80.0
2752,62.0,0,384,2.0,80.0
2753,54.0,0,384,2.0,80.0
2754,66.0,0,48,8.0,80.0
2755,74.0,60,192,4.0,80.0
2756,62.0,0,192,4.0,80.0
2757,50.0,0,96,11.0,80.0
2758,78.0,0,96,7.0,80.0
2759,78.0,0,96,1.0,80.0
2760,62.0,0,96,10.0,80.0
2761,66.0,0,96,3.0,80.0
2762,54.0,0,96,3.0,80.0
2763,78.0,0,96,0.0,80.0
2764,38.0,60,96,12.0,80.0
2765,69.0,60,48,8.0,80.0
2766,62.0,0,48,8.0,80.0
2767,74.0,0,96,4.0,80.0
2768,66.0,0,96,10.0,80.0
2769,62.0,0,96,4.0,80.0
2770,69.0,0,96,3.0,80.0
2771,81.0,0,96,0.0,80.0
2772,50.0,0,96,11.0,80.0
2773,81.0,0,96,7.0,80.0
2774,38.0,0,96,12.0,80.0
2775,81.0,0,96,1.0,80.0
2776,57.0,0,96,3.0,80.0
2777,69.0,60,48,8.0,80.0
2778,62.0,60,48,8.0,80.0
2779,50.0,0,192,5.0,80.0
2780,62.0,0,96,4.0,80.0
2781,74.0,0,96,4.0,80.0
2782,38.0,0,96,12.0,80.0
2783,50.0,0,96,11.0,80.0
2784,69.0,60,48,8.0,80.0
2785,62.0,0,48,8.0,80.0
2786,66.0,0,192,10.0,80.0
2787,81.0,0,192,0.0,80.0
2788,81.0,0,192,7.0,80.0
2789,81.0,0,192,1.0,80.0
2790,57.0,0,192,3.0,80.0
2791,69.0,0,192,3.0,80.0
2792,38.0,0,96,12.0,80.0
2793,50.0,60,96,11.0,80.0
2794,69.0,60,48,8.0,80.0
2795,66.0,0,384,2.0,80.0
2796,62.0,60,384,2.0,80.0
2797,62.0,60,48,8.0,80.0
2798,74.0,0,192,4.0,80.0
2799,62.0,0,192,4.0,80.0
2800,66.0,0,96,3.0,80.0
2801,62.0,0,96,3.0,80.0
2802,38.0,0,96,12.0,80.0
2803,50.0,0,96,11.0,80.0
2804,69.0,0,96,10.0,80.0
2805,78.0,0,96,0.0,80.0
2806,78.0,0,96,7.0,80.0
2807,78.0,0,96,1.0,80.0
2808,69.0,60,48,8.0,80.0
2809,61.0,0,48,8.0,80.0
2810,52.0,60,96,11.0,80.0
2811,76.0,0,96,7.0,80.0
2812,40.0,0,96,12.0,80.0
2813,76.0,0,96,1.0,80.0
2814,64.0,0,96,10.0,80.0
2815,76.0,0,96,0.0,80.0
2816,64.0,0,96,3.0,80.0
2817,64.0,60,48,8.0,80.0
2818,61.0,0,48,8.0,80.0
2819,64.0,0,96,10.0,80.0
2820,40.0,0,96,12.0,80.0
2821,64.0,60,96,3.0,80.0
2822,52.0,0,96,11.0,80.0
2823,64.0,60,48,8.0,80.0
2824,64.0,0,288,2.0,80.0
2825,61.0,0,288,2.0,80.0
2826,61.0,0,48,8.0,80.0
2827,81.0,0,192,0.0,80.0
2828,81.0,0,192,7.0,80.0
2829,81.0,0,192,1.0,80.0
2830,52.0,0,96,11.0,80.0
2831,40.0,60,96,12.0,80.0
2832,64.0,0,96,10.0,80.0
2833,64.0,0,96,3.0,80.0
2834,64.0,60,48,8.0,80.0
2835,76.0,0,384,4.0,80.0
2836,83.0,0,48,0.0,80.0
2837,62.0,0,48,8.0,80.0
2838,83.0,0,48,1.0,80.0
2839,83.0,0,48,7.0,80.0
2840,64.0,0,96,3.0,80.0
2841,40.0,0,96,12.0,80.0
2842,62.0,0,96,2.0,80.0
2843,64.0,60,96,10.0,80.0
2844,52.0,0,96,11.0,80.0
2845,59.0,0,96,2.0,80.0
2846,80.0,0,48,1.0,80.0
2847,59.0,0,48,8.0,80.0
2848,80.0,0,48,0.0,80.0
2849,80.0,60,48,7.0,80.0
2850,45.0,0,96,12.0,80.0
2851,57.0,0,96,11.0,80.0
2852,81.0,0,192,1.0,80.0
2853,76.0,0,192,4.0,80.0
2854,69.0,0,192,4.0,80.0
2855,61.0,0,192,8.0,80.0
2856,45.0,60,192,5.0,80.0
2857,61.0,0,192,2.0,80.0
2858,57.0,0,192,2.0,80.0
2859,64.0,0,192,10.0,80.0
2860,81.0,0,192,7.0,80.0
2861,57.0,0,192,3.0,80.0
2862,64.0,0,192,3.0,80.0
2863,81.0,0,192,0.0,80.0
2864,40.0,0,96,12.0,80.0
2865,52.0,120,96,11.0,80.0
2866,45.0,120,96,11.0,80.0
2867,33.0,0,96,12.0,80.0
2868,69.0,120,96,6.0,80.0
2869,81.0,120,96,6.0,80.0
2870,83.0,120,48,6.0,80.0
2871,54.0,0,192,6.0,80.0
2872,85.0,60,48,6.0,80.0
2873,86.0,60,48,6.0,80.0
2874,85.0,60,48,6.0,80.0
2875,83.0,60,48,6.0,80.0
2876,81.0,60,48,6.0,80.0
2877,79.0,60,48,6.0,80.0
2878,78.0,60,48,6.0,80.0
2879,76.0,60,48,6.0,80.0
2880,52.0,0,192,6.0,80.0
2881,74.0,60,48,6.0,80.0
2882,73.0,60,48,6.0,80.0
2883,71.0,60,48,6.0,80.0
2884,69.0,60,48,6.0,80.0
2885,67.0,60,48,6.0,80.0
2886,66.0,60,48,6.0,80.0
2887,78.0,60,48,6.0,80.0
2888,79.0,60,48,6.0,80.0
2889,50.0,0,192,6.0,80.0
2890,81.0,60,48,6.0,80.0
2891,83.0,60,48,6.0,80.0
2892,81.0,60,48,6.0,80.0
2893,79.0,60,48,6.0,80.0
2894,78.0,60,48,6.0,80.0
2895,76.0,0,48,6.0,80.0
2896,74.0,60,48,6.0,80.0
2897,73.0,60,48,6.0,80.0
2898,55.0,60,192,6.0,80.0
2899,71.0,60,48,6.0,80.0
2900,69.0,60,48,6.0,80.0
2901,67.0,60,48,6.0,80.0
2902,66.0,60,48,6.0,80.0
2903,64.0,60,48,6.0,80.0
2904,62.0,0,96,6.0,80.0
2905,86.0,120,96,6.0,80.0
2906,85.0,120,96,6.0,80.0
2907,54.0,60,384,6.0,80.0
2908,84.0,120,96,6.0,80.0
2909,82.0,120,96,6.0,80.0
2910,62.0,120,96,6.0,80.0
2911,83.0,0,192,6.0,80.0
2912,63.0,120,96,6.0,80.0
2913,55.0,0,384,6.0,80.0
2914,79.0,120,48,6.0,80.0
2915,64.0,0,96,6.0,80.0
2916,76.0,60,48,6.0,80.0
2917,74.0,60,48,6.0,80.0
2918,73.0,60,48,6.0,80.0
2919,79.0,60,48,6.0,80.0
2920,78.0,60,48,6.0,80.0
2921,81.0,60,48,6.0,80.0
2922,79.0,60,48,6.0,80.0
2923,64.0,0,384,6.0,80.0
2924,67.0,0,384,6.0,80.0
2925,57.0,0,384,6.0,80.0
2926,76.0,60,48,6.0,80.0
2927,73.0,60,48,6.0,80.0
2928,74.0,60,48,6.0,80.0
2929,69.0,60,48,6.0,80.0
2930,71.0,60,48,6.0,80.0
2931,62.0,0,192,6.0,80.0
2932,66.0,0,192,6.0,80.0
2933,73.0,60,48,6.0,80.0
2934,74.0,60,48,6.0,80.0
2935,76.0,60,48,6.0,80.0
2936,78.0,60,48,6.0,80.0
2937,79.0,60,48,6.0,80.0
2938,69.0,0,48,8.0,80.0
2939,81.0,0,48,8.0,80.0
2940,81.0,0,48,8.0,80.0
2941,69.0,60,48,8.0,80.0
2942,69.0,0,48,8.0,80.0
2943,81.0,0,48,8.0,80.0
2944,81.0,0,192,7.0,80.0
2945,57.0,0,192,4.0,80.0
2946,45.0,60,192,5.0,80.0
2947,69.0,0,192,4.0,80.0
2948,81.0,0,192,6.0,80.0
2949,78.0,0,192,1.0,80.0
2950,81.0,0,192,0.0,80.0
2951,50.0,0,96,12.0,80.0
2952,62.0,0,96,10.0,80.0
2953,62.0,60,96,11.0,80.0
2954,81.0,60,48,8.0,80.0
2955,69.0,0,48,8.0,80.0
2956,69.0,0,48,8.0,80.0
2957,81.0,0,48,8.0,80.0
2958,86.0,0,48,0.0,80.0
2959,86.0,0,48,7.0,80.0
2960,66.0,60,96,10.0,80.0
2961,74.0,0,96,1.0,80.0
2962,54.0,0,96,12.0,80.0
2963,66.0,0,96,11.0,80.0
2964,85.0,0,48,7.0,80.0
2965,85.0,0,48,0.0,80.0
2966,81.0,60,48,8.0,80.0
2967,69.0,0,48,8.0,80.0
2968,81.0,0,384,1.0,80.0
2969,66.0,0,384,2.0,80.0
2970,81.0,0,48,8.0,80.0
2971,83.0,60,48,0.0,80.0
2972,83.0,0,48,7.0,80.0
2973,69.0,0,48,8.0,80.0
2974,78.0,0,96,1.0,80.0
2975,62.0,0,96,10.0,80.0
2976,62.0,0,96,11.0,80.0
2977,50.0,0,96,12.0,80.0
2978,81.0,0,48,7.0,80.0
2979,81.0,0,48,0.0,80.0
2980,81.0,60,48,8.0,80.0
2981,69.0,0,48,8.0,80.0
2982,81.0,0,48,8.0,80.0
2983,69.0,0,48,8.0,80.0
2984,79.0,60,96,7.0,80.0
2985,61.0,0,96,2.0,80.0
2986,79.0,0,96,0.0,80.0
2987,52.0,0,96,12.0,80.0
2988,73.0,0,96,1.0,80.0
2989,64.0,0,96,10.0,80.0
2990,64.0,0,96,11.0,80.0
2991,81.0,60,48,8.0,80.0
2992,69.0,0,48,8.0,80.0
2993,69.0,0,48,8.0,80.0
2994,81.0,0,48,8.0,80.0
2995,45.0,0,192,5.0,80.0
2996,57.0,0,192,4.0,80.0
2997,69.0,0,192,4.0,80.0
2998,47.0,0,96,12.0,80.0
2999,79.0,0,96,0.0,80.0
3000,74.0,0,96,1.0,80.0
3001,59.0,60,96,10.0,80.0
3002,59.0,0,96,11.0,80.0
3003,62.0,0,96,2.0,80.0
3004,79.0,0,96,7.0,80.0
3005,69.0,0,48,8.0,80.0
3006,81.0,60,48,8.0,80.0
3007,81.0,0,48,8.0,80.0
3008,69.0,60,48,8.0,80.0
3009,61.0,0,96,11.0,80.0
3010,61.0,0,96,10.0,80.0
3011,49.0,0,96,12.0,80.0
3012,76.0,0,96,1.0,80.0
3013,64.0,0,96,2.0,80.0
3014,69.0,60,48,8.0,80.0
3015,81.0,0,48,8.0,80.0
3016,79.0,0,384,1.0,80.0
3017,81.0,0,48,8.0,80.0
3018,69.0,0,48,8.0,80.0
3019,57.0,0,96,11.0,80.0
3020,61.0,0,96,2.0,80.0
3021,76.0,0,96,7.0,80.0
3022,57.0,0,96,10.0,80.0
3023,76.0,0,96,0.0,80.0
3024,73.0,60,96,1.0,80.0
3025,45.0,0,96,12.0,80.0
3026,81.0,60,48,8.0,80.0
3027,69.0,0,48,8.0,80.0
3028,69.0,60,48,8.0,80.0
3029,81.0,0,48,8.0,80.0
3030,50.0,0,96,12.0,80.0
3031,62.0,0,96,10.0,80.0
3032,62.0,0,96,11.0,80.0
3033,69.0,0,48,8.0,80.0
3034,81.0,60,48,8.0,80.0
3035,69.0,0,48,8.0,80.0
3036,81.0,60,48,8.0,80.0
3037,78.0,0,192,7.0,80.0
3038,78.0,0,192,0.0,80.0
3039,69.0,0,192,4.0,80.0
3040,57.0,0,192,4.0,80.0
3041,45.0,0,192,5.0,80.0
3042,57.0,0,1152,2.0,80.0
3043,78.0,0,192,1.0,80.0
3044,38.0,0,96,12.0,80.0
3045,50.0,0,96,11.0,80.0
3046,62.0,0,96,10.0,80.0
3047,81.0,0,48,8.0,80.0
3048,69.0,60,48,8.0,80.0
3049,83.0,0,48,1.0,80.0
3050,81.0,0,48,8.0,80.0
3051,83.0,0,48,7.0,80.0
3052,69.0,0,48,8.0,80.0
3053,83.0,0,48,0.0,80.0
3054,54.0,0,96,11.0,80.0
3055,42.0,0,96,12.0,80.0
3056,66.0,60,96,10.0,80.0
3057,81.0,60,48,0.0,80.0
3058,81.0,0,48,1.0,80.0
3059,81.0,0,48,8.0,80.0
3060,69.0,0,48,8.0,80.0
3061,81.0,0,48,7.0,80.0
3062,66.0,0,384,2.0,80.0
3063,74.0,0,384,1.0,80.0
3064,79.0,0,48,7.0,80.0
3065,81.0,0,48,8.0,80.0
3066,79.0,0,48,0.0,80.0
3067,79.0,0,48,1.0,80.0
3068,69.0,60,48,8.0,80.0
3069,62.0,0,192,2.0,80.0
3070,43.0,0,96,12.0,80.0
3071,67.0,0,96,10.0,80.0
3072,55.0,0,96,11.0,80.0
3073,81.0,0,48,8.0,80.0
3074,78.0,0,48,1.0,80.0
3075,69.0,0,48,8.0,80.0
3076,78.0,60,48,0.0,80.0
3077,78.0,0,48,7.0,80.0
3078,69.0,0,48,8.0,80.0
3079,81.0,0,48,8.0,80.0
3080,45.0,0,1536,3.0,80.0
3081,57.0,0,1536,3.0,80.0
3082,45.0,0,96,12.0,80.0
3083,57.0,0,96,11.0,80.0
3084,76.0,0,96,7.0,80.0
3085,69.0,60,96,10.0,80.0
3086,76.0,0,96,0.0,80.0
3087,69.0,0,48,8.0,80.0
3088,81.0,60,48,8.0,80.0
3089,69.0,0,48,8.0,80.0
3090,81.0,0,48,8.0,80.0
3091,57.0,0,192,4.0,80.0
3092,45.0,0,192,5.0,80.0
3093,69.0,0,192,4.0,80.0
3094,57.0,0,96,3.0,80.0
3095,45.0,0,96,11.0,80.0
3096,57.0,0,96,10.0,80.0
3097,76.0,0,96,7.0,80.0
3098,33.0,0,96,12.0,80.0
3099,45.0,60,96,3.0,80.0
3100,76.0,0,96,0.0,80.0
3101,81.0,60,48,8.0,80.0
3102,69.0,0,48,8.0,80.0
3103,81.0,0,48,8.0,80.0
3104,69.0,0,48,8.0,80.0
3105,45.0,0,96,12.0,80.0
3106,69.0,0,96,10.0,80.0
3107,57.0,60,96,3.0,80.0
3108,57.0,0,96,11.0,80.0
3109,45.0,0,96,3.0,80.0
3110,69.0,60,48,8.0,80.0
3111,81.0,0,48,8.0,80.0
3112,61.0,0,384,2.0,80.0
3113,64.0,0,384,2.0,80.0
3114,76.0,0,384,1.0,80.0
3115,73.0,0,384,1.0,80.0
3116,69.0,0,48,8.0,80.0
3117,81.0,60,48,8.0,80.0
3118,55.0,0,96,11.0,80.0
3119,67.0,0,96,10.0,80.0
3120,69.0,0,96,0.0,80.0
3121,43.0,0,96,12.0,80.0
3122,57.0,0,96,3.0,80.0
3123,45.0,0,96,3.0,80.0
3124,69.0,0,96,7.0,80.0
3125,69.0,0,48,8.0,80.0
3126,81.0,60,48,8.0,80.0
3127,74.0,0,48,8.0,80.0
3128,66.0,0,96,10.0,80.0
3129,42.0,0,96,12.0,80.0
3130,54.0,0,96,11.0,80.0
3131,74.0,60,48,8.0,80.0
3132,74.0,0,48,8.0,80.0
3133,62.0,0,192,4.0,80.0
3134,50.0,0,192,5.0,80.0
3135,74.0,60,192,7.0,80.0
3136,74.0,0,192,0.0,80.0
3137,74.0,0,192,4.0,80.0
3138,74.0,0,192,1.0,80.0
3139,54.0,60,96,11.0,80.0
3140,66.0,0,96,10.0,80.0
3141,42.0,0,96,12.0,80.0
3142,74.0,60,48,8.0,80.0
3143,74.0,0,48,8.0,80.0
3144,42.0,0,96,12.0,80.0
3145,54.0,60,96,11.0,80.0
3146,66.0,0,96,10.0,80.0
3147,74.0,60,48,8.0,80.0
3148,50.0,0,384,3.0,80.0
3149,62.0,0,384,3.0,80.0
3150,62.0,0,384,2.0,80.0
3151,57.0,0,384,2.0,80.0
3152,74.0,0,48,8.0,80.0
3153,81.0,0,192,7.0,80.0
3154,81.0,0,192,1.0,80.0
3155,81.0,0,192,0.0,80.0
3156,42.0,60,96,12.0,80.0
3157,66.0,0,96,10.0,80.0
3158,54.0,0,96,11.0,80.0
3159,74.0,60,48,8.0,80.0
3160,74.0,0,48,8.0,80.0
3161,64.0,60,48,10.0,80.0
3162,83.0,0,96,7.0,80.0
3163,55.0,0,96,11.0,80.0
3164,83.0,0,96,0.0,80.0
3165,43.0,0,96,12.0,80.0
3166,64.0,60,48,10.0,80.0
3167,74.0,0,48,8.0,80.0
3168,64.0,60,48,10.0,80.0
3169,74.0,0,48,8.0,80.0
3170,74.0,0,192,4.0,80.0
3171,62.0,0,192,4.0,80.0
3172,50.0,0,192,5.0,80.0
3173,43.0,0,96,12.0,80.0
3174,55.0,0,96,11.0,80.0
3175,64.0,60,48,10.0,80.0
3176,74.0,0,48,8.0,80.0
3177,67.0,0,48,10.0,80.0
3178,71.0,0,48,8.0,80.0
3179,83.0,0,192,7.0,80.0
3180,83.0,0,192,0.0,80.0
3181,43.0,60,96,12.0,80.0
3182,55.0,0,96,11.0,80.0
3183,71.0,0,48,8.0,80.0
3184,67.0,60,48,10.0,80.0
3185,64.0,0,384,3.0,80.0
3186,62.0,0,384,3.0,80.0
3187,71.0,0,384,1.0,80.0
3188,83.0,0,384,1.0,80.0
3189,59.0,0,384,2.0,80.0
3190,64.0,0,384,2.0,80.0
3191,71.0,0,48,8.0,80.0
3192,79.0,0,48,0.0,80.0
3193,67.0,0,48,10.0,80.0
3194,79.0,60,48,7.0,80.0
3195,43.0,0,96,12.0,80.0
3196,55.0,0,96,11.0,80.0
3197,76.0,0,48,7.0,80.0
3198,67.0,0,48,10.0,80.0
3199,76.0,0,48,0.0,80.0
3200,71.0,60,48,8.0,80.0
3201,64.0,0,48,8.0,80.0
3202,61.0,0,48,10.0,80.0
3203,79.0,0,96,7.0,80.0
3204,57.0,0,96,11.0,80.0
3205,45.0,60,96,12.0,80.0
3206,79.0,0,96,0.0,80.0
3207,64.0,0,48,8.0,80.0
3208,61.0,60,48,10.0,80.0
3209,61.0,0,48,10.0,80.0
3210,64.0,0,48,8.0,80.0
3211,69.0,0,192,4.0,80.0
3212,45.0,0,192,5.0,80.0
3213,57.0,60,96,11.0,80.0
3214,45.0,0,96,12.0,80.0
3215,61.0,60,48,10.0,80.0
3216,64.0,0,48,8.0,80.0
3217,64.0,0,48,10.0,80.0
3218,67.0,0,48,8.0,80.0
3219,79.0,0,192,0.0,80.0
3220,79.0,0,192,7.0,80.0
3221,69.0,60,96,4.0,80.0
3222,45.0,0,96,5.0,80.0
3223,45.0,0,96,12.0,80.0
3224,57.0,0,96,11.0,80.0
3225,64.0,0,48,10.0,80.0
3226,67.0,60,48,8.0,80.0
3227,67.0,0,384,1.0,80.0
3228,73.0,0,384,1.0,80.0
3229,55.0,0,384,2.0,80.0
3230,64.0,0,384,3.0,80.0
3231,57.0,0,384,3.0,80.0
3232,61.0,0,384,2.0,80.0
3233,76.0,0,48,7.0,80.0
3234,76.0,0,48,0.0,80.0
3235,64.0,60,48,10.0,80.0
3236,67.0,0,48,8.0,80.0
3237,57.0,0,96,11.0,80.0
3238,69.0,0,96,4.0,80.0
3239,45.0,0,96,5.0,80.0
3240,45.0,0,96,12.0,80.0
3241,73.0,60,48,7.0,80.0
3242,64.0,0,48,10.0,80.0
3243,73.0,0,48,0.0,80.0
3244,67.0,0,48,8.0,80.0
3245,54.0,0,192,2.0,80.0
3246,62.0,0,192,2.0,80.0
3247,66.0,0,192,4.0,80.0
3248,50.0,0,192,11.0,80.0
3249,50.0,0,192,5.0,80.0
3250,74.0,0,192,1.0,80.0
3251,54.0,0,192,3.0,80.0
3252,66.0,0,192,1.0,80.0
3253,62.0,0,192,3.0,80.0
3254,74.0,0,192,0.0,80.0
3255,62.0,0,192,10.0,80.0
3256,66.0,0,192,8.0,80.0
3257,38.0,0,192,12.0,80.0
3258,74.0,60,192,7.0,80.0
3259,69.0,0,192,4.0,80.0
3260,78.0,360,96,6.0,80.0
3261,74.0,0,192,6.0,80.0
3262,71.0,120,192,6.0,80.0
3263,78.0,0,192,6.0,80.0
3264,81.0,0,96,6.0,80.0
3265,76.0,240,192,6.0,80.0
3266,70.0,0,192,6.0,80.0
3267,79.0,120,96,6.0,80.0
3268,78.0,120,96,6.0,80.0
3269,71.0,0,192,6.0,80.0
3270,74.0,0,192,6.0,80.0
3271,83.0,120,96,6.0,80.0
3272,82.0,120,96,6.0,80.0
3273,83.0,120,96,6.0,80.0
3274,74.0,0,192,6.0,80.0
3275,71.0,120,192,6.0,80.0
3276,78.0,0,192,6.0,80.0
3277,81.0,240,96,6.0,80.0
3278,70.0,0,192,6.0,80.0
3279,76.0,0,192,6.0,80.0
3280,79.0,120,96,6.0,80.0
3281,78.0,0,192,6.0,80.0
3282,71.0,0,192,6.0,80.0
3283,74.0,120,192,6.0,80.0
3284,74.0,300,48,6.0,80.0
3285,79.0,0,48,6.0,80.0
3286,71.0,0,96,10.0,80.0
3287,71.0,0,96,6.0,80.0
3288,59.0,0,96,6.0,80.0
3289,47.0,0,96,12.0,80.0
3290,59.0,0,96,11.0,80.0
3291,86.0,60,48,6.0,80.0
3292,85.0,0,48,6.0,80.0
3293,74.0,60,192,8.0,80.0
3294,79.0,0,216,7.0,80.0
3295,73.0,60,48,6.0,80.0
3296,78.0,60,48,6.0,80.0
3297,73.0,0,192,8.0,80.0
3298,69.0,0,192,6.0,80.0
3299,57.0,0,192,6.0,80.0
3300,57.0,0,192,11.0,80.0
3301,45.0,60,192,12.0,80.0
3302,69.0,0,192,10.0,80.0
3303,85.0,60,48,6.0,80.0
3304,83.0,0,48,6.0,80.0
3305,78.0,0,192,7.0,80.0
3306,71.0,60,48,6.0,80.0
3307,76.0,0,48,6.0,80.0
3308,67.0,60,192,10.0,80.0
3309,55.0,0,192,6.0,80.0
3310,55.0,0,192,11.0,80.0
3311,71.0,0,192,8.0,80.0
3312,67.0,0,192,6.0,80.0
3313,43.0,0,192,12.0,80.0
3314,83.0,60,48,6.0,80.0
3315,81.0,0,48,6.0,80.0
3316,76.0,60,216,7.0,80.0
3317,69.0,60,48,6.0,80.0
3318,74.0,60,48,6.0,80.0
3319,42.0,0,192,12.0,80.0
3320,54.0,0,192,11.0,80.0
3321,69.0,0,192,8.0,80.0
3322,66.0,60,192,6.0,80.0
3323,54.0,0,192,6.0,80.0
3324,66.0,0,192,10.0,80.0
3325,81.0,60,48,6.0,80.0
3326,79.0,0,48,6.0,80.0
3327,74.0,0,192,7.0,80.0
3328,67.0,60,48,6.0,80.0
3329,73.0,60,48,6.0,80.0
3330,40.0,0,192,12.0,80.0
3331,67.0,60,192,8.0,80.0
3332,52.0,0,192,11.0,80.0
3333,64.0,0,192,6.0,80.0
3334,52.0,0,192,6.0,80.0
3335,64.0,0,192,10.0,80.0
3336,79.0,60,48,6.0,80.0
3337,78.0,60,48,6.0,80.0
3338,73.0,0,216,7.0,80.0
3339,76.0,60,48,6.0,80.0
3340,79.0,60,48,6.0,80.0
3341,50.0,0,192,6.0,80.0
3342,66.0,0,192,8.0,80.0
3343,38.0,0,192,12.0,80.0
3344,62.0,0,192,10.0,80.0
3345,50.0,0,192,11.0,80.0
3346,78.0,60,48,6.0,80.0
3347,76.0,60,48,6.0,80.0
3348,71.0,0,192,7.0,80.0
3349,67.0,0,96,10.0,80.0
3350,64.0,0,96,8.0,80.0
3351,52.0,0,96,11.0,80.0
3352,52.0,0,96,6.0,80.0
3353,40.0,0,96,12.0,80.0
3354,74.0,60,48,6.0,80.0
3355,73.0,0,48,6.0,80.0
3356,43.0,0,96,12.0,80.0
3357,55.0,0,96,11.0,80.0
3358,59.0,0,96,10.0,80.0
3359,64.0,60,96,7.0,80.0
3360,59.0,0,96,8.0,80.0
3361,55.0,0,96,6.0,80.0
3362,71.0,60,48,6.0,80.0
3363,70.0,0,48,6.0,80.0
3364,71.0,60,48,6.0,80.0
3365,72.0,60,48,6.0,80.0
3366,54.0,0,192,11.0,80.0
3367,66.0,0,192,7.0,80.0
3368,42.0,60,192,12.0,80.0
3369,54.0,0,192,6.0,80.0
3370,61.0,0,192,10.0,80.0
3371,58.0,0,192,8.0,80.0
3372,73.0,60,48,6.0,80.0
3373,74.0,60,48,6.0,80.0
3374,75.0,60,48,6.0,80.0
3375,76.0,60,48,6.0,80.0
3376,77.0,60,48,6.0,80.0
3377,74.0,0,192,6.0,80.0
3378,71.0,60,192,6.0,80.0
3379,78.0,0,192,6.0,80.0
3380,81.0,0,96,6.0,80.0
3381,70.0,240,192,6.0,80.0
3382,76.0,0,192,6.0,80.0
3383,79.0,120,96,6.0,80.0
3384,78.0,120,64,6.0,80.0
3385,83.0,80,64,6.0,80.0
3386,71.0,0,192,6.0,80.0
3387,74.0,0,192,6.0,80.0
3388,82.0,80,64,6.0,80.0
3389,81.0,80,64,6.0,80.0
3390,80.0,80,64,6.0,80.0
3391,79.0,80,64,6.0,80.0
3392,74.0,0,192,6.0,80.0
3393,71.0,80,192,6.0,80.0
3394,78.0,0,192,6.0,80.0
3395,81.0,0,96,6.0,80.0
3396,70.0,240,192,6.0,80.0
3397,76.0,0,192,6.0,80.0
3398,79.0,120,96,6.0,80.0
3399,78.0,0,192,6.0,80.0
3400,74.0,120,192,6.0,80.0
3401,71.0,0,192,6.0,80.0
3402,74.0,300,48,6.0,80.0
3403,79.0,0,48,6.0,80.0
3404,71.0,0,96,6.0,80.0
3405,71.0,60,96,10.0,80.0
3406,47.0,0,96,12.0,80.0
3407,59.0,0,96,11.0,80.0
3408,59.0,0,96,6.0,80.0
3409,86.0,60,48,6.0,80.0
3410,85.0,60,48,6.0,80.0
3411,74.0,0,192,8.0,80.0
3412,79.0,0,216,7.0,80.0
3413,73.0,60,48,6.0,80.0
3414,78.0,60,48,6.0,80.0
3415,45.0,0,192,12.0,80.0
3416,69.0,0,192,6.0,80.0
3417,73.0,0,192,8.0,80.0
3418,57.0,0,192,6.0,80.0
3419,69.0,0,192,10.0,80.0
3420,57.0,0,192,11.0,80.0
3421,85.0,60,48,6.0,80.0
3422,83.0,0,48,6.0,80.0
3423,78.0,0,192,7.0,80.0
3424,71.0,60,48,6.0,80.0
3425,76.0,60,48,6.0,80.0
3426,55.0,0,192,11.0,80.0
3427,67.0,0,192,10.0,80.0
3428,71.0,0,192,8.0,80.0
3429,43.0,0,192,12.0,80.0
3430,67.0,60,192,6.0,80.0
3431,55.0,0,192,6.0,80.0
3432,83.0,60,48,6.0,80.0
3433,81.0,0,48,6.0,80.0
3434,76.0,0,216,7.0,80.0
3435,69.0,60,48,6.0,80.0
3436,74.0,60,48,7.0,80.0
3437,74.0,0,48,6.0,80.0
3438,78.0,0,48,6.0,80.0
3439,73.0,60,48,7.0,80.0
3440,54.0,0,288,6.0,80.0
3441,66.0,0,288,6.0,80.0
3442,81.0,60,48,6.0,80.0
3443,42.0,0,288,12.0,80.0
3444,69.0,0,288,8.0,80.0
3445,66.0,60,288,10.0,80.0
3446,54.0,0,288,11.0,80.0
3447,74.0,0,96,7.0,80.0
3448,78.0,60,48,6.0,80.0
3449,76.0,0,48,6.0,80.0
3450,71.0,0,96,8.0,80.0
3451,55.0,60,96,11.0,80.0
3452,43.0,0,96,12.0,80.0
3453,55.0,0,96,6.0,80.0
3454,67.0,0,96,6.0,80.0
3455,67.0,0,96,10.0,80.0
3456,83.0,60,48,6.0,80.0
3457,81.0,0,48,6.0,80.0
3458,76.0,0,216,7.0,80.0
3459,69.0,60,48,6.0,80.0
3460,74.0,0,48,6.0,80.0
3461,54.0,0,192,11.0,80.0
3462,54.0,0,192,6.0,80.0
3463,42.0,0,192,12.0,80.0
3464,69.0,0,192,8.0,80.0
3465,66.0,0,192,6.0,80.0
3466,66.0,60,192,10.0,80.0
3467,81.0,60,48,6.0,80.0
3468,79.0,0,48,6.0,80.0
3469,74.0,60,192,7.0,80.0
3470,67.0,60,48,6.0,80.0
3471,73.0,60,48,6.0,80.0
3472,64.0,60,192,6.0,80.0
3473,64.0,0,192,10.0,80.0
3474,52.0,0,192,6.0,80.0
3475,67.0,0,192,8.0,80.0
3476,40.0,0,192,12.0,80.0
3477,52.0,0,192,11.0,80.0
3478,79.0,60,48,6.0,80.0
3479,78.0,0,48,6.0,80.0
3480,73.0,0,216,7.0,80.0
3481,66.0,60,48,6.0,80.0
3482,71.0,0,48,6.0,80.0
3483,71.0,60,48,7.0,80.0
3484,74.0,0,48,6.0,80.0
3485,70.0,60,48,7.0,80.0
3486,50.0,0,288,11.0,80.0
3487,66.0,0,288,8.0,80.0
3488,62.0,0,288,10.0,80.0
3489,50.0,0,288,6.0,80.0
3490,62.0,60,288,6.0,80.0
3491,38.0,0,288,12.0,80.0
3492,78.0,60,48,6.0,80.0
3493,71.0,0,96,7.0,80.0
3494,74.0,60,48,6.0,80.0
3495,73.0,0,48,6.0,80.0
3496,64.0,0,96,6.0,80.0
3497,40.0,0,96,12.0,80.0
3498,52.0,0,96,11.0,80.0
3499,67.0,0,96,8.0,80.0
3500,52.0,0,96,6.0,80.0
3501,64.0,60,96,10.0,80.0
3502,79.0,60,48,6.0,80.0
3503,78.0,0,48,6.0,80.0
3504,73.0,0,216,7.0,80.0
3505,66.0,60,48,6.0,80.0
3506,71.0,0,48,6.0,80.0
3507,66.0,0,192,8.0,80.0
3508,50.0,0,192,6.0,80.0
3509,38.0,0,192,12.0,80.0
3510,62.0,60,192,10.0,80.0
3511,50.0,0,192,11.0,80.0
3512,62.0,0,192,6.0,80.0
3513,78.0,60,48,6.0,80.0
3514,76.0,0,48,6.0,80.0
3515,71.0,60,192,7.0,80.0
3516,64.0,60,48,6.0,80.0
3517,70.0,0,48,6.0,80.0
3518,61.0,0,192,10.0,80.0
3519,37.0,0,192,12.0,80.0
3520,64.0,60,192,8.0,80.0
3521,49.0,0,192,11.0,80.0
3522,49.0,0,192,6.0,80.0
3523,61.0,0,192,6.0,80.0
3524,70.0,60,96,7.0,80.0
3525,76.0,60,48,6.0,80.0
3526,74.0,0,48,6.0,80.0
3527,71.0,0,96,7.0,80.0
3528,47.0,0,96,11.0,80.0
3529,35.0,0,96,12.0,80.0
3530,62.0,0,96,8.0,80.0
3531,47.0,60,96,6.0,80.0
3532,78.0,60,48,6.0,80.0
3533,83.0,0,48,6.0,80.0
3534,66.0,60,96,8.0,80.0
3535,50.0,0,96,11.0,80.0
3536,38.0,0,96,12.0,80.0
3537,50.0,0,96,6.0,80.0
3538,78.0,60,48,6.0,80.0
3539,79.0,0,48,6.0,80.0
3540,59.0,0,288,10.0,80.0
3541,71.0,0,192,7.0,80.0
3542,40.0,60,96,12.0,80.0
3543,67.0,0,96,8.0,80.0
3544,52.0,0,96,6.0,80.0
3545,52.0,0,96,11.0,80.0
3546,83.0,60,48,6.0,80.0
3547,73.0,0,48,6.0,80.0
3548,59.0,0,96,10.0,80.0
3549,55.0,60,96,11.0,80.0
3550,71.0,0,96,7.0,80.0
3551,43.0,0,96,12.0,80.0
3552,64.0,0,96,8.0,80.0
3553,55.0,0,96,6.0,80.0
3554,76.0,60,48,6.0,80.0
3555,74.0,0,48,6.0,80.0
3556,78.0,60,48,6.0,80.0
3557,71.0,60,48,6.0,80.0
3558,54.0,0,192,11.0,80.0
3559,54.0,0,192,6.0,80.0
3560,42.0,0,192,12.0,80.0
3561,71.0,0,192,7.0,80.0
3562,66.0,60,192,10.0,80.0
3563,62.0,0,192,8.0,80.0
3564,74.0,60,48,6.0,80.0
3565,73.0,60,48,6.0,80.0
3566,76.0,60,48,6.0,80.0
3567,70.0,60,48,6.0,80.0
3568,70.0,0,192,7.0,80.0
3569,64.0,0,192,10.0,80.0
3570,42.0,0,192,11.0,80.0
3571,61.0,0,192,8.0,80.0
3572,42.0,0,192,6.0,80.0
3573,30.0,0,192,12.0,80.0
3574,73.0,60,48,6.0,80.0
3575,71.0,0,48,6.0,80.0
3576,74.0,60,48,6.0,80.0
3577,78.0,60,48,6.0,80.0
3578,43.0,60,192,6.0,80.0
3579,59.0,0,192,8.0,80.0
3580,83.0,0,192,0.0,80.0
3581,43.0,0,192,11.0,80.0
3582,74.0,0,192,1.0,80.0
3583,31.0,0,192,12.0,80.0
3584,62.0,0,192,10.0,80.0
3585,71.0,0,192,7.0,80.0
3586,83.0,60,48,6.0,80.0
3587,67.0,0,48,6.0,80.0
3588,73.0,60,48,6.0,80.0
3589,59.0,0,384,2.0,80.0
3590,76.0,60,48,6.0,80.0
3591,79.0,60,192,0.0,80.0
3592,76.0,0,192,1.0,80.0
3593,52.0,0,192,6.0,80.0
3594,79.0,60,48,6.0,80.0
3595,66.0,0,48,6.0,80.0
3596,71.0,60,48,6.0,80.0
3597,74.0,60,48,6.0,80.0
3598,78.0,60,192,0.0,80.0
3599,74.0,0,192,1.0,80.0
3600,54.0,0,192,6.0,80.0
3601,66.0,0,192,2.0,80.0
3602,78.0,60,48,6.0,80.0
3603,61.0,0,48,6.0,80.0
3604,64.0,60,48,6.0,80.0
3605,54.0,0,384,2.0,80.0
3606,66.0,60,48,6.0,80.0
3607,64.0,0,192,2.0,80.0
3608,73.0,60,192,1.0,80.0
3609,42.0,0,192,6.0,80.0
3610,70.0,0,192,0.0,80.0
3611,70.0,60,48,6.0,80.0
3612,71.0,0,96,10.0,80.0
3613,74.0,0,96,8.0,80.0
3614,47.0,0,192,6.0,80.0
3615,62.0,0,192,2.0,80.0
3616,71.0,60,192,1.0,80.0
3617,59.0,0,192,2.0,80.0
3618,71.0,0,192,0.0,80.0
3619,71.0,0,192,6.0,80.0
3620,71.0,120,96,10.0,80.0
3621,74.0,0,96,8.0,80.0
3622,78.0,0,288,7.0,80.0
3623,71.0,120,96,10.0,80.0
3624,74.0,0,96,8.0,80.0
3625,74.0,0,96,8.0,80.0
3626,71.0,120,96,10.0,80.0
3627,83.0,0,96,7.0,80.0
3628,81.0,0,96,7.0,80.0
3629,73.0,120,96,10.0,80.0
3630,78.0,0,96,8.0,80.0
3631,78.0,0,96,8.0,80.0
3632,81.0,0,96,7.0,80.0
3633,73.0,120,96,10.0,80.0
3634,78.0,0,96,8.0,80.0
3635,73.0,120,96,10.0,80.0
3636,81.0,0,96,7.0,80.0
3637,81.0,120,48,7.0,80.0
3638,73.0,0,96,10.0,80.0
3639,78.0,0,96,8.0,80.0
3640,83.0,60,48,7.0,80.0
3641,77.0,0,96,8.0,80.0
3642,71.0,0,96,10.0,80.0
3643,80.0,60,96,7.0,80.0
3644,61.0,0,96,10.0,80.0
3645,80.0,120,96,7.0,80.0
3646,77.0,0,96,8.0,80.0
3647,71.0,0,96,10.0,80.0
3648,61.0,0,96,10.0,80.0
3649,80.0,0,96,7.0,80.0
3650,77.0,120,96,8.0,80.0
3651,61.0,0,96,10.0,80.0
3652,71.0,0,96,10.0,80.0
3653,80.0,0,48,7.0,80.0
3654,61.0,120,96,10.0,80.0
3655,71.0,0,96,10.0,80.0
3656,77.0,0,96,8.0,80.0
3657,81.0,60,48,7.0,80.0
3658,78.0,0,192,7.0,80.0
3659,70.0,0,192,10.0,80.0
3660,78.0,60,192,8.0,80.0
3661,66.0,0,192,10.0,80.0
3662,64.0,0,96,8.0,80.0
3663,55.0,0,96,11.0,80.0
3664,59.0,480,96,10.0,80.0
3665,55.0,120,96,11.0,80.0
3666,64.0,0,96,8.0,80.0
3667,59.0,0,96,10.0,80.0
3668,71.0,0,288,7.0,80.0
3669,59.0,0,96,10.0,80.0
3670,64.0,120,96,8.0,80.0
3671,55.0,0,96,11.0,80.0
3672,76.0,0,96,7.0,80.0
3673,59.0,0,96,10.0,80.0
3674,64.0,120,96,8.0,80.0
3675,55.0,0,96,11.0,80.0
3676,66.0,120,96,10.0,80.0
3677,74.0,0,96,7.0,80.0
3678,71.0,0,96,8.0,80.0
3679,54.0,0,96,11.0,80.0
3680,74.0,120,96,7.0,80.0
3681,71.0,0,96,8.0,80.0
3682,66.0,0,96,10.0,80.0
3683,54.0,0,96,11.0,80.0
3684,66.0,0,96,10.0,80.0
3685,74.0,120,96,7.0,80.0
3686,54.0,0,96,11.0,80.0
3687,71.0,0,96,8.0,80.0
3688,74.0,120,48,7.0,80.0
3689,66.0,0,96,10.0,80.0
3690,54.0,0,96,11.0,80.0
3691,71.0,0,96,8.0,80.0
3692,76.0,60,48,7.0,80.0
3693,64.0,0,96,10.0,80.0
3694,42.0,0,96,11.0,80.0
3695,73.0,0,96,7.0,80.0
3696,70.0,60,96,8.0,80.0
3697,42.0,0,96,11.0,80.0
3698,73.0,0,96,7.0,80.0
3699,64.0,120,96,10.0,80.0
3700,70.0,0,96,8.0,80.0
3701,73.0,0,96,7.0,80.0
3702,64.0,0,96,10.0,80.0
3703,70.0,0,96,8.0,80.0
3704,42.0,120,96,11.0,80.0
3705,73.0,0,48,7.0,80.0
3706,70.0,0,96,8.0,80.0
3707,42.0,120,96,11.0,80.0
3708,64.0,0,96,10.0,80.0
3709,74.0,60,48,7.0,80.0
3710,71.0,0,64,6.0,80.0
3711,73.0,80,64,6.0,80.0
3712,47.0,0,192,11.0,80.0
3713,62.0,0,192,10.0,80.0
3714,71.0,0,192,7.0,80.0
3715,71.0,60,192,8.0,80.0
3716,74.0,80,64,6.0,80.0
3717,75.0,80,64,6.0,80.0
3718,76.0,80,64,6.0,80.0
3719,77.0,80,64,6.0,80.0
3720,62.0,0,96,6.0,80.0
3721,66.0,0,96,6.0,80.0
3722,62.0,120,96,6.0,80.0
3723,66.0,0,96,6.0,80.0
3724,78.0,80,288,6.0,80.0
3725,66.0,120,96,6.0,80.0
3726,62.0,0,96,6.0,80.0
3727,66.0,0,96,6.0,80.0
3728,62.0,120,96,6.0,80.0
3729,83.0,0,96,6.0,80.0
3730,81.0,120,96,6.0,80.0
3731,61.0,0,192,6.0,80.0
3732,66.0,0,192,6.0,80.0
3733,81.0,120,96,6.0,80.0
3734,81.0,120,96,6.0,80.0
3735,81.0,120,48,6.0,80.0
3736,83.0,60,48,6.0,80.0
3737,80.0,0,96,6.0,80.0
3738,71.0,0,192,6.0,80.0
3739,65.0,0,192,6.0,80.0
3740,61.0,60,192,6.0,80.0
3741,80.0,120,96,6.0,80.0
3742,80.0,120,96,6.0,80.0
3743,80.0,120,48,6.0,80.0
3744,81.0,60,48,6.0,80.0
3745,78.0,0,64,6.0,80.0
3746,77.0,80,64,6.0,80.0
3747,70.0,0,192,6.0,80.0
3748,66.0,60,192,6.0,80.0
3749,76.0,80,64,6.0,80.0
3750,75.0,80,64,6.0,80.0
3751,74.0,80,64,6.0,80.0
3752,73.0,80,64,6.0,80.0
3753,55.0,0,96,6.0,80.0
3754,59.0,0,96,6.0,80.0
3755,59.0,120,96,6.0,80.0
3756,55.0,0,96,6.0,80.0
3757,59.0,80,288,2.0,80.0
3758,71.0,0,288,6.0,80.0
3759,83.0,0,288,0.0,80.0
3760,59.0,120,96,6.0,80.0
3761,55.0,0,96,6.0,80.0
3762,76.0,0,96,6.0,80.0
3763,59.0,0,96,6.0,80.0
3764,55.0,120,96,6.0,80.0
3765,88.0,0,96,0.0,80.0
3766,64.0,0,96,2.0,80.0
3767,74.0,0,96,6.0,80.0
3768,62.0,120,96,2.0,80.0
3769,86.0,0,192,0.0,80.0
3770,62.0,120,96,2.0,80.0
3771,74.0,0,96,6.0,80.0
3772,74.0,120,96,6.0,80.0
3773,62.0,0,96,2.0,80.0
3774,54.0,0,384,6.0,80.0
3775,59.0,0,384,6.0,80.0
3776,74.0,0,48,6.0,80.0
3777,62.0,120,48,2.0,80.0
3778,64.0,60,48,2.0,80.0
3779,76.0,0,48,6.0,80.0
3780,72.0,60,96,6.0,80.0
3781,60.0,0,96,2.0,80.0
3782,72.0,120,96,6.0,80.0
3783,60.0,0,96,2.0,80.0
3784,72.0,120,96,6.0,80.0
3785,60.0,0,96,2.0,80.0
3786,54.0,0,384,6.0,80.0
3787,62.0,0,384,6.0,80.0
3788,57.0,0,384,6.0,80.0
3789,72.0,0,48,6.0,80.0
3790,60.0,120,48,2.0,80.0
3791,74.0,0,96,0.0,80.0
3792,74.0,60,48,6.0,80.0
3793,62.0,0,48,2.0,80.0
3794,59.0,0,48,7.0,80.0
3795,31.0,0,96,12.0,80.0
3796,43.0,0,96,11.0,80.0
3797,62.0,60,48,7.0,80.0
3798,59.0,0,48,7.0,80.0
3799,71.0,0,192,6.0,80.0
3800,55.0,0,192,6.0,80.0
3801,62.0,0,192,6.0,80.0
3802,59.0,0,192,6.0,80.0
3803,59.0,0,192,2.0,80.0
3804,55.0,0,96,11.0,80.0
3805,43.0,60,96,12.0,80.0
3806,62.0,60,48,7.0,80.0
3807,59.0,0,48,7.0,80.0
3808,79.0,0,288,0.0,80.0
3809,55.0,60,96,11.0,80.0
3810,43.0,0,96,12.0,80.0
3811,62.0,60,48,7.0,80.0
3812,59.0,0,48,7.0,80.0
3813,55.0,60,96,11.0,80.0
3814,83.0,0,96,0.0,80.0
3815,43.0,0,96,12.0,80.0
3816,62.0,60,48,7.0,80.0
3817,59.0,0,48,7.0,80.0
3818,31.0,0,96,12.0,80.0
3819,43.0,60,96,11.0,80.0
3820,62.0,60,48,7.0,80.0
3821,59.0,0,48,7.0,80.0
3822,43.0,60,96,12.0,80.0
3823,55.0,0,96,11.0,80.0
3824,62.0,60,48,7.0,80.0
3825,59.0,0,48,7.0,80.0
3826,86.0,0,288,0.0,80.0
3827,43.0,60,96,12.0,80.0
3828,55.0,0,96,11.0,80.0
3829,62.0,60,48,7.0,80.0
3830,55.0,60,864,10.0,80.0
3831,59.0,60,48,7.0,80.0
3832,43.0,0,96,12.0,80.0
3833,55.0,0,96,11.0,80.0
3834,83.0,0,96,0.0,80.0
3835,62.0,60,48,7.0,80.0
3836,60.0,60,48,7.0,80.0
3837,50.0,0,96,11.0,80.0
3838,81.0,0,96,0.0,80.0
3839,38.0,0,96,12.0,80.0
3840,62.0,60,48,7.0,80.0
3841,60.0,60,48,7.0,80.0
3842,81.0,0,96,0.0,80.0
3843,38.0,0,96,12.0,80.0
3844,50.0,0,96,11.0,80.0
3845,62.0,60,48,7.0,80.0
3846,60.0,0,48,7.0,80.0
3847,83.0,0,48,0.0,80.0
3848,38.0,60,96,12.0,80.0
3849,50.0,0,96,11.0,80.0
3850,81.0,60,48,0.0,80.0
3851,62.0,0,48,7.0,80.0
3852,54.0,0,384,10.0,80.0
3853,80.0,0,48,0.0,80.0
3854,60.0,0,48,7.0,80.0
3855,50.0,60,96,11.0,80.0
3856,38.0,0,96,12.0,80.0
3857,81.0,0,48,0.0,80.0
3858,62.0,60,48,7.0,80.0
3859,60.0,0,48,7.0,80.0
3860,38.0,60,96,12.0,80.0
3861,50.0,0,96,11.0,80.0
3862,78.0,0,96,0.0,80.0
3863,62.0,60,48,7.0,80.0
3864,60.0,60,48,7.0,80.0
3865,38.0,0,96,12.0,80.0
3866,50.0,0,96,11.0,80.0
3867,78.0,0,96,0.0,80.0
3868,62.0,60,48,7.0,80.0
3869,60.0,0,48,7.0,80.0
3870,79.0,60,48,0.0,80.0
3871,50.0,0,96,11.0,80.0
3872,38.0,0,96,12.0,80.0
3873,78.0,60,48,0.0,80.0
3874,62.0,0,48,7.0,80.0
3875,62.0,0,1824,8.0,80.0
3876,57.0,0,384,10.0,80.0
3877,76.0,60,48,0.0,80.0
3878,60.0,0,48,7.0,80.0
3879,50.0,0,96,11.0,80.0
3880,38.0,0,96,12.0,80.0
3881,62.0,0,48,7.0,80.0
3882,78.0,60,48,0.0,80.0
3883,71.0,60,48,6.0,80.0
3884,74.0,60,48,6.0,80.0
3885,31.0,0,192,12.0,80.0
3886,62.0,0,192,8.0,80.0
3887,59.0,0,192,7.0,80.0
3888,79.0,0,192,0.0,80.0
3889,55.0,60,192,10.0,80.0
3890,43.0,0,192,11.0,80.0
3891,79.0,60,48,6.0,80.0
3892,83.0,60,48,6.0,80.0
3893,79.0,60,48,6.0,80.0
3894,55.0,0,384,6.0,80.0
3895,67.0,0,384,6.0,80.0
3896,74.0,60,48,6.0,80.0
3897,71.0,60,48,6.0,80.0
3898,82.0,0,48,6.0,80.0
3899,76.0,60,48,6.0,80.0
3900,73.0,60,48,6.0,80.0
3901,54.0,0,192,6.0,80.0
3902,66.0,60,192,6.0,80.0
3903,70.0,60,48,6.0,80.0
3904,81.0,60,48,6.0,80.0
3905,78.0,60,48,6.0,80.0
3906,75.0,0,48,6.0,80.0
3907,59.0,0,192,6.0,80.0
3908,47.0,0,192,6.0,80.0
3909,71.0,60,96,1.0,80.0
3910,69.0,60,48,6.0,80.0
3911,67.0,60,48,7.0,80.0
3912,40.0,0,96,12.0,80.0
3913,52.0,0,96,11.0,80.0
3914,71.0,60,48,7.0,80.0
3915,67.0,0,48,7.0,80.0
3916,71.0,0,192,6.0,80.0
3917,79.0,0,192,6.0,80.0
3918,76.0,0,192,6.0,80.0
3919,64.0,0,192,6.0,80.0
3920,67.0,0,192,6.0,80.0
3921,52.0,0,192,6.0,80.0
3922,52.0,60,96,12.0,80.0
3923,64.0,0,96,11.0,80.0
3924,71.0,60,48,7.0,80.0
3925,76.0,0,288,1.0,80.0
3926,67.0,0,48,7.0,80.0
3927,52.0,0,96,12.0,80.0
3928,64.0,60,96,11.0,80.0
3929,71.0,60,48,7.0,80.0
3930,67.0,0,48,7.0,80.0
3931,79.0,0,96,1.0,80.0
3932,52.0,60,96,12.0,80.0
3933,64.0,0,96,11.0,80.0
3934,71.0,60,48,7.0,80.0
3935,67.0,0,48,7.0,80.0
3936,40.0,60,96,12.0,80.0
3937,52.0,0,96,11.0,80.0
3938,71.0,60,48,7.0,80.0
3939,67.0,0,48,7.0,80.0
3940,52.0,60,96,12.0,80.0
3941,64.0,0,96,11.0,80.0
3942,71.0,60,48,7.0,80.0
3943,83.0,0,288,1.0,80.0
3944,67.0,0,48,7.0,80.0
3945,64.0,60,96,11.0,80.0
3946,52.0,0,96,12.0,80.0
3947,71.0,60,48,7.0,80.0
3948,64.0,0,864,8.0,80.0
3949,67.0,0,48,7.0,80.0
3950,79.0,0,96,1.0,80.0
3951,64.0,60,96,11.0,80.0
3952,52.0,0,96,12.0,80.0
3953,71.0,60,48,7.0,80.0
3954,69.0,0,48,7.0,80.0
3955,47.0,0,96,12.0,80.0
3956,59.0,0,96,11.0,80.0
3957,78.0,60,96,1.0,80.0
3958,71.0,60,48,7.0,80.0
3959,69.0,0,48,7.0,80.0
3960,47.0,60,96,12.0,80.0
3961,59.0,0,96,11.0,80.0
3962,78.0,0,96,1.0,80.0
3963,71.0,60,48,7.0,80.0
3964,69.0,0,48,7.0,80.0
3965,79.0,60,48,1.0,80.0
3966,47.0,0,96,12.0,80.0
3967,59.0,0,96,11.0,80.0
3968,71.0,60,48,7.0,80.0
3969,78.0,0,48,1.0,80.0
3970,63.0,0,384,8.0,80.0
3971,76.0,60,48,1.0,80.0
3972,69.0,0,48,7.0,80.0
3973,59.0,0,96,11.0,80.0
3974,47.0,0,96,12.0,80.0
3975,78.0,60,48,1.0,80.0
3976,71.0,0,48,7.0,80.0
3977,69.0,0,48,7.0,80.0
3978,75.0,60,96,1.0,80.0
3979,47.0,0,96,12.0,80.0
3980,59.0,0,96,11.0,80.0
3981,71.0,60,48,7.0,80.0
3982,69.0,0,48,7.0,80.0
3983,47.0,0,96,12.0,80.0
3984,59.0,0,96,11.0,80.0
3985,75.0,60,96,1.0,80.0
3986,71.0,60,48,7.0,80.0
3987,76.0,0,48,1.0,80.0
3988,69.0,0,48,7.0,80.0
3989,59.0,0,96,11.0,80.0
3990,47.0,60,96,12.0,80.0
3991,71.0,60,48,7.0,80.0
3992,75.0,0,48,1.0,80.0
3993,66.0,0,384,8.0,80.0
3994,59.0,0,1824,10.0,80.0
3995,69.0,60,48,7.0,80.0
3996,73.0,0,48,1.0,80.0
3997,59.0,0,96,11.0,80.0
3998,47.0,0,96,12.0,80.0
3999,71.0,60,48,7.0,80.0
4000,75.0,0,48,1.0,80.0
4001,67.0,60,48,6.0,80.0
4002,71.0,60,48,6.0,80.0
4003,64.0,0,192,8.0,80.0
4004,59.0,0,192,10.0,80.0
4005,67.0,0,192,7.0,80.0
4006,52.0,0,192,11.0,80.0
4007,40.0,0,192,12.0,80.0
4008,76.0,0,192,1.0,80.0
4009,76.0,60,48,6.0,80.0
4010,79.0,60,48,6.0,80.0
4011,76.0,60,48,6.0,80.0
4012,52.0,0,384,6.0,80.0
4013,64.0,60,384,6.0,80.0
4014,71.0,60,48,6.0,80.0
4015,67.0,60,48,6.0,80.0
4016,78.0,0,48,6.0,80.0
4017,72.0,60,48,6.0,80.0
4018,69.0,60,48,6.0,80.0
4019,62.0,0,192,6.0,80.0
4020,50.0,60,192,6.0,80.0
4021,66.0,60,48,6.0,80.0
4022,77.0,0,48,6.0,80.0
4023,74.0,60,48,6.0,80.0
4024,71.0,60,48,6.0,80.0
4025,43.0,60,192,6.0,80.0
4026,55.0,0,192,6.0,80.0
4027,55.0,0,96,2.0,80.0
4028,65.0,60,48,6.0,80.0
4029,52.0,0,48,10.0,80.0
4030,36.0,0,96,12.0,80.0
4031,48.0,0,96,11.0,80.0
4032,55.0,60,48,10.0,80.0
4033,52.0,60,48,10.0,80.0
4034,60.0,0,192,6.0,80.0
4035,67.0,0,192,6.0,80.0
4036,64.0,0,192,6.0,80.0
4037,72.0,0,192,6.0,80.0
4038,76.0,0,192,6.0,80.0
4039,48.0,60,192,6.0,80.0
4040,60.0,0,96,11.0,80.0
4041,48.0,0,96,12.0,80.0
4042,55.0,60,48,10.0,80.0
4043,60.0,0,288,2.0,80.0
4044,52.0,0,48,10.0,80.0
4045,60.0,60,96,11.0,80.0
4046,48.0,0,96,12.0,80.0
4047,55.0,60,48,10.0,80.0
4048,52.0,0,48,10.0,80.0
4049,64.0,0,96,2.0,80.0
4050,48.0,60,96,12.0,80.0
4051,60.0,0,96,11.0,80.0
4052,55.0,60,48,10.0,80.0
4053,52.0,60,48,10.0,80.0
4054,36.0,0,96,12.0,80.0
4055,48.0,0,96,11.0,80.0
4056,55.0,60,48,10.0,80.0
4057,52.0,0,48,10.0,80.0
4058,60.0,60,96,11.0,80.0
4059,48.0,0,96,12.0,80.0
4060,55.0,60,48,10.0,80.0
4061,67.0,0,288,2.0,80.0
4062,52.0,0,48,10.0,80.0
4063,60.0,0,96,11.0,80.0
4064,48.0,60,96,12.0,80.0
4065,55.0,60,48,10.0,80.0
4066,60.0,0,864,7.0,80.0
4067,52.0,60,48,10.0,80.0
4068,64.0,0,96,2.0,80.0
4069,48.0,0,96,12.0,80.0
4070,60.0,0,96,11.0,80.0
4071,55.0,60,48,10.0,80.0
4072,53.0,0,48,10.0,80.0
4073,55.0,0,96,11.0,80.0
4074,43.0,60,96,12.0,80.0
4075,62.0,0,96,2.0,80.0
4076,55.0,60,48,10.0,80.0
4077,53.0,0,48,10.0,80.0
4078,43.0,60,96,12.0,80.0
4079,62.0,0,96,2.0,80.0
4080,55.0,0,96,11.0,80.0
4081,55.0,60,48,10.0,80.0
4082,64.0,0,48,2.0,80.0
4083,53.0,60,48,10.0,80.0
4084,55.0,0,96,11.0,80.0
4085,43.0,0,96,12.0,80.0
4086,62.0,60,48,2.0,80.0
4087,55.0,0,48,10.0,80.0
4088,59.0,0,384,7.0,80.0
4089,53.0,0,48,10.0,80.0
4090,61.0,0,48,2.0,80.0
4091,55.0,0,96,11.0,80.0
4092,43.0,60,96,12.0,80.0
4093,62.0,0,48,2.0,80.0
4094,55.0,60,48,10.0,80.0
4095,53.0,0,48,10.0,80.0
4096,43.0,0,96,12.0,80.0
4097,55.0,0,96,11.0,80.0
4098,59.0,60,96,2.0,80.0
4099,55.0,60,48,10.0,80.0
4100,53.0,0,48,10.0,80.0
4101,43.0,0,96,12.0,80.0
4102,55.0,60,96,11.0,80.0
4103,59.0,0,96,2.0,80.0
4104,55.0,60,48,10.0,80.0
4105,60.0,0,48,2.0,80.0
4106,53.0,60,48,10.0,80.0
4107,43.0,0,96,12.0,80.0
4108,55.0,0,96,11.0,80.0
4109,55.0,60,48,10.0,80.0
4110,59.0,0,48,2.0,80.0
4111,62.0,0,384,7.0,80.0
4112,53.0,60,48,10.0,80.0
4113,57.0,0,48,2.0,80.0
4114,43.0,0,96,12.0,80.0
4115,55.0,0,96,11.0,80.0
4116,67.0,0,96,1.0,80.0
4117,55.0,60,48,10.0,80.0
4118,59.0,0,48,2.0,80.0
4119,76.0,60,48,6.0,80.0
4120,79.0,60,48,6.0,80.0
4121,76.0,60,48,6.0,80.0
4122,72.0,60,48,6.0,80.0
4123,72.0,0,288,1.0,80.0
4124,76.0,60,48,6.0,80.0
4125,52.0,0,384,10.0,80.0
4126,60.0,0,384,7.0,80.0
4127,55.0,0,2304,8.0,80.0
4128,67.0,60,48,6.0,80.0
4129,76.0,0,96,1.0,80.0
4130,72.0,60,48,6.0,80.0
4131,64.0,0,48,6.0,80.0
4132,67.0,60,48,6.0,80.0
4133,60.0,60,48,6.0,80.0
4134,48.0,0,672,11.0,80.0
4135,36.0,0,672,6.0,80.0
4136,48.0,60,672,6.0,80.0
4137,60.0,60,192,8.0,80.0
4138,36.0,0,672,12.0,80.0
4139,64.0,0,192,7.0,80.0
4140,55.0,0,192,10.0,80.0
4141,64.0,60,48,6.0,80.0
4142,79.0,0,288,1.0,80.0
4143,55.0,60,48,6.0,80.0
4144,60.0,60,48,6.0,80.0
4145,60.0,0,864,2.0,80.0
4146,52.0,60,48,6.0,80.0
4147,34.0,0,192,12.0,80.0
4148,34.0,0,192,6.0,80.0
4149,46.0,0,192,6.0,80.0
4150,60.0,0,192,10.0,80.0
4151,64.0,0,192,8.0,80.0
4152,46.0,0,192,11.0,80.0
4153,67.0,0,192,7.0,80.0
4154,76.0,0,96,1.0,80.0
4155,67.0,0,96,0.0,80.0
4156,55.0,60,48,6.0,80.0
4157,79.0,60,48,6.0,80.0
4158,82.0,60,48,6.0,80.0
4159,73.0,0,192,1.0,80.0
4160,79.0,60,48,6.0,80.0
4161,76.0,60,48,6.0,80.0
4162,73.0,0,288,0.0,80.0
4163,79.0,60,48,6.0,80.0
4164,52.0,0,384,10.0,80.0
4165,61.0,0,384,7.0,80.0
4166,55.0,0,384,8.0,80.0
4167,73.0,60,48,6.0,80.0
4168,76.0,0,96,0.0,80.0
4169,76.0,60,48,6.0,80.0
4170,70.0,0,48,6.0,80.0
4171,73.0,60,48,6.0,80.0
4172,67.0,60,48,6.0,80.0
4173,64.0,0,192,7.0,80.0
4174,55.0,60,192,10.0,80.0
4175,61.0,0,192,8.0,80.0
4176,70.0,60,48,6.0,80.0
4177,79.0,0,288,0.0,80.0
4178,64.0,0,48,6.0,80.0
4179,67.0,60,48,6.0,80.0
4180,45.0,0,864,6.0,80.0
4181,33.0,60,864,12.0,80.0
4182,45.0,0,864,11.0,80.0
4183,33.0,0,864,6.0,80.0
4184,61.0,0,864,2.0,80.0
4185,61.0,60,48,6.0,80.0
4186,67.0,60,192,7.0,80.0
4187,64.0,0,192,8.0,80.0
4188,61.0,0,192,10.0,80.0
4189,76.0,0,96,0.0,80.0
4190,69.0,0,96,1.0,80.0
4191,64.0,60,48,6.0,80.0
4192,77.0,60,48,6.0,80.0
4193,81.0,60,48,6.0,80.0
4194,74.0,0,192,0.0,80.0
4195,77.0,60,48,6.0,80.0
4196,74.0,60,48,6.0,80.0
4197,74.0,0,288,1.0,80.0
4198,77.0,60,48,6.0,80.0
4199,57.0,0,384,8.0,80.0
4200,53.0,0,384,10.0,80.0
4201,62.0,60,384,7.0,80.0
4202,69.0,60,48,6.0,80.0
4203,77.0,0,96,1.0,80.0
4204,74.0,60,48,6.0,80.0
4205,65.0,0,48,6.0,80.0
4206,69.0,60,48,6.0,80.0
4207,62.0,60,48,6.0,80.0
4208,57.0,60,192,10.0,80.0
4209,65.0,0,192,7.0,80.0
4210,38.0,0,672,12.0,80.0
4211,50.0,0,672,11.0,80.0
4212,50.0,0,672,6.0,80.0
4213,38.0,0,672,6.0,80.0
4214,62.0,0,192,8.0,80.0
4215,65.0,60,48,6.0,80.0
4216,81.0,0,288,1.0,80.0
4217,57.0,0,48,6.0,80.0
4218,62.0,60,48,6.0,80.0
4219,62.0,0,864,2.0,80.0
4220,54.0,0,48,6.0,80.0
4221,36.0,0,192,12.0,80.0
4222,48.0,0,192,6.0,80.0
4223,36.0,0,192,6.0,80.0
4224,69.0,0,192,7.0,80.0
4225,62.0,0,192,10.0,80.0
4226,48.0,60,192,11.0,80.0
4227,66.0,0,192,8.0,80.0
4228,69.0,60,96,0.0,80.0
4229,78.0,0,96,1.0,80.0
4230,57.0,60,48,6.0,80.0
4231,81.0,60,48,6.0,80.0
4232,84.0,60,48,6.0,80.0
4233,75.0,0,192,1.0,80.0
4234,81.0,60,48,6.0,80.0
4235,75.0,0,288,0.0,80.0
4236,78.0,60,48,6.0,80.0
4237,81.0,60,48,6.0,80.0
4238,63.0,0,384,7.0,80.0
4239,54.0,0,384,10.0,80.0
4240,57.0,60,384,8.0,80.0
4241,75.0,0,48,6.0,80.0
4242,78.0,60,96,0.0,80.0
4243,78.0,60,48,6.0,80.0
4244,72.0,0,48,6.0,80.0
4245,75.0,60,48,6.0,80.0
4246,69.0,60,48,6.0,80.0
4247,57.0,0,192,10.0,80.0
4248,63.0,0,192,8.0,80.0
4249,66.0,60,192,7.0,80.0
4250,72.0,60,48,6.0,80.0
4251,81.0,0,288,0.0,80.0
4252,66.0,0,48,6.0,80.0
4253,69.0,60,48,6.0,80.0
4254,35.0,0,864,6.0,80.0
4255,47.0,0,864,6.0,80.0
4256,47.0,0,864,11.0,80.0
4257,35.0,0,864,12.0,80.0
4258,63.0,0,864,2.0,80.0
4259,63.0,0,48,6.0,80.0
4260,66.0,60,192,8.0,80.0
4261,63.0,0,192,10.0,80.0
4262,69.0,0,192,7.0,80.0
4263,78.0,60,96,0.0,80.0
4264,71.0,0,96,1.0,80.0
4265,66.0,60,48,6.0,80.0
4266,79.0,60,48,6.0,80.0
4267,83.0,60,48,6.0,80.0
4268,76.0,0,192,0.0,80.0
4269,79.0,60,48,6.0,80.0
4270,76.0,0,288,1.0,80.0
4271,76.0,60,48,6.0,80.0
4272,79.0,60,48,6.0,80.0
4273,64.0,0,384,7.0,80.0
4274,59.0,0,384,8.0,80.0
4275,55.0,0,384,10.0,80.0
4276,71.0,60,48,6.0,80.0
4277,79.0,0,96,1.0,80.0
4278,76.0,60,48,6.0,80.0
4279,67.0,60,48,6.0,80.0
4280,71.0,60,48,6.0,80.0
4281,64.0,60,48,6.0,80.0
4282,40.0,0,672,12.0,80.0
4283,64.0,0,192,8.0,80.0
4284,52.0,0,672,6.0,80.0
4285,40.0,0,672,6.0,80.0
4286,67.0,0,192,7.0,80.0
4287,59.0,0,192,10.0,80.0
4288,52.0,60,672,11.0,80.0
4289,67.0,60,48,6.0,80.0
4290,83.0,0,288,1.0,80.0
4291,59.0,0,48,6.0,80.0
4292,64.0,60,48,6.0,80.0
4293,64.0,0,864,2.0,80.0
4294,56.0,0,48,6.0,80.0
4295,71.0,0,192,7.0,80.0
4296,38.0,0,192,6.0,80.0
4297,50.0,60,192,6.0,80.0
4298,68.0,0,192,8.0,80.0
4299,50.0,0,192,11.0,80.0
4300,64.0,0,192,10.0,80.0
4301,38.0,0,192,12.0,80.0
4302,71.0,0,96,0.0,80.0
4303,79.0,60,96,1.0,80.0
4304,59.0,60,48,6.0,80.0
4305,83.0,60,48,6.0,80.0
4306,86.0,60,48,6.0,80.0
4307,77.0,60,192,1.0,80.0
4308,83.0,60,48,6.0,80.0
4309,80.0,60,48,6.0,80.0
4310,77.0,0,288,0.0,80.0
4311,83.0,60,48,6.0,80.0
4312,56.0,0,384,10.0,80.0
4313,59.0,0,384,8.0,80.0
4314,65.0,0,384,7.0,80.0
4315,77.0,60,48,6.0,80.0
4316,80.0,0,96,0.0,80.0
4317,80.0,60,48,6.0,80.0
4318,74.0,0,48,6.0,80.0
4319,77.0,60,48,6.0,80.0
4320,71.0,60,48,6.0,80.0
4321,65.0,0,192,8.0,80.0
4322,68.0,0,192,7.0,80.0
4323,59.0,60,192,10.0,80.0
4324,74.0,60,48,6.0,80.0
4325,83.0,0,288,0.0,80.0
4326,68.0,60,48,6.0,80.0
4327,71.0,60,48,6.0,80.0
4328,37.0,0,864,6.0,80.0
4329,49.0,0,864,11.0,80.0
4330,37.0,0,864,12.0,80.0
4331,65.0,0,864,2.0,80.0
4332,49.0,0,864,6.0,80.0
4333,65.0,0,48,6.0,80.0
4334,71.0,0,192,7.0,80.0
4335,68.0,0,192,8.0,80.0
4336,65.0,0,192,10.0,80.0
4337,80.0,60,96,0.0,80.0
4338,68.0,60,48,6.0,80.0
4339,69.0,0,48,6.0,80.0
4340,73.0,60,48,6.0,80.0
4341,78.0,60,48,6.0,80.0
4342,81.0,0,192,0.0,80.0
4343,54.0,0,192,11.0,80.0
4344,66.0,0,192,2.0,80.0
4345,42.0,0,192,6.0,80.0
4346,69.0,0,192,7.0,80.0
4347,54.0,0,192,6.0,80.0
4348,42.0,60,192,12.0,80.0
4349,81.0,60,48,6.0,80.0
4350,70.0,0,48,6.0,80.0
4351,73.0,60,48,6.0,80.0
4352,66.0,0,384,10.0,80.0
4353,61.0,0,384,8.0,80.0
4354,79.0,60,48,6.0,80.0
4355,52.0,0,192,11.0,80.0
4356,70.0,60,192,7.0,80.0
4357,64.0,0,192,2.0,80.0
4358,40.0,0,192,6.0,80.0
4359,40.0,0,192,12.0,80.0
4360,52.0,0,192,6.0,80.0
4361,82.0,0,192,0.0,80.0
4362,82.0,60,48,6.0,80.0
4363,71.0,0,48,6.0,80.0
4364,75.0,60,48,6.0,80.0
4365,78.0,60,48,6.0,80.0
4366,51.0,0,192,6.0,80.0
4367,39.0,0,192,6.0,80.0
4368,51.0,0,192,11.0,80.0
4369,83.0,0,192,0.0,80.0
4370,71.0,0,192,7.0,80.0
4371,39.0,60,192,12.0,80.0
4372,63.0,0,192,2.0,80.0
4373,83.0,60,48,6.0,80.0
4374,72.0,0,48,6.0,80.0
4375,78.0,60,48,6.0,80.0
4376,66.0,0,384,8.0,80.0
4377,78.0,0,864,1.0,80.0
4378,54.0,0,384,10.0,80.0
4379,81.0,60,48,6.0,80.0
4380,72.0,0,192,7.0,80.0
4381,50.0,0,192,11.0,80.0
4382,38.0,0,192,12.0,80.0
4383,84.0,60,192,0.0,80.0
4384,62.0,0,192,2.0,80.0
4385,38.0,0,192,6.0,80.0
4386,50.0,0,192,6.0,80.0
4387,84.0,60,48,6.0,80.0
4388,85.0,60,48,6.0,80.0
4389,86.0,60,48,6.0,80.0
4390,77.0,60,192,1.0,80.0
4391,73.0,0,192,7.0,80.0
4392,37.0,0,192,6.0,80.0
4393,61.0,0,192,2.0,80.0
4394,49.0,0,192,11.0,80.0
4395,37.0,0,192,12.0,80.0
4396,56.0,0,192,10.0,80.0
4397,49.0,0,192,6.0,80.0
4398,65.0,0,192,8.0,80.0
4399,85.0,0,192,0.0,80.0
4400,85.0,60,48,6.0,80.0
4401,84.0,60,48,6.0,80.0
4402,85.0,60,48,6.0,80.0
4403,83.0,0,48,6.0,80.0
4404,65.0,0,96,6.0,80.0
4405,61.0,60,96,6.0,80.0
4406,85.0,60,48,6.0,80.0
4407,82.0,60,48,6.0,80.0
4408,85.0,60,48,6.0,80.0
4409,81.0,60,48,6.0,80.0
4410,66.0,0,192,6.0,80.0
4411,85.0,60,48,6.0,80.0
4412,80.0,60,48,6.0,80.0
4413,68.0,0,96,6.0,80.0
4414,85.0,60,48,6.0,80.0
4415,61.0,0,384,6.0,80.0
4416,78.0,60,48,6.0,80.0
4417,69.0,0,96,6.0,80.0
4418,85.0,60,48,6.0,80.0
4419,77.0,60,48,6.0,80.0
4420,73.0,60,48,6.0,80.0
4421,72.0,60,48,6.0,80.0
4422,73.0,60,48,6.0,80.0
4423,68.0,0,288,6.0,80.0
4424,75.0,60,48,6.0,80.0
4425,73.0,60,48,6.0,80.0
4426,61.0,0,384,6.0,80.0
4427,77.0,60,48,6.0,80.0
4428,71.0,0,96,6.0,80.0
4429,73.0,60,48,6.0,80.0
4430,78.0,60,48,6.0,80.0
4431,69.0,0,96,6.0,80.0
4432,73.0,60,48,6.0,80.0
4433,80.0,0,48,6.0,80.0
4434,65.0,60,96,6.0,80.0
4435,73.0,60,48,6.0,80.0
4436,81.0,60,48,6.0,80.0
4437,66.0,0,96,6.0,80.0
4438,73.0,60,48,6.0,80.0
4439,61.0,0,384,6.0,80.0
4440,84.0,0,48,6.0,80.0
4441,63.0,60,96,6.0,80.0
4442,73.0,60,48,6.0,80.0
4443,65.0,0,192,6.0,80.0
4444,85.0,0,192,6.0,80.0
4445,61.0,60,192,6.0,80.0
4446,49.0,0,192,11.0,80.0
4447,85.0,0,1152,0.0,80.0
4448,37.0,0,192,12.0,80.0
4449,61.0,0,96,10.0,80.0
4450,68.0,120,96,7.0,80.0
4451,65.0,0,96,8.0,80.0
4452,73.0,0,288,1.0,80.0
4453,61.0,0,96,10.0,80.0
4454,68.0,120,96,7.0,80.0
4455,65.0,0,96,8.0,80.0
4456,68.0,0,96,7.0,80.0
4457,65.0,0,96,8.0,80.0
4458,77.0,120,96,1.0,80.0
4459,61.0,0,96,10.0,80.0
4460,65.0,0,96,8.0,80.0
4461,68.0,0,96,7.0,80.0
4462,61.0,120,96,10.0,80.0
4463,49.0,0,192,11.0,80.0
4464,37.0,0,192,12.0,80.0
4465,65.0,120,96,8.0,80.0
4466,68.0,0,96,7.0,80.0
4467,61.0,0,96,10.0,80.0
4468,80.0,0,288,1.0,80.0
4469,65.0,0,96,8.0,80.0
4470,61.0,0,96,10.0,80.0
4471,68.0,120,96,7.0,80.0
4472,61.0,0,96,10.0,80.0
4473,77.0,120,96,1.0,80.0
4474,65.0,0,96,8.0,80.0
4475,68.0,0,96,7.0,80.0
4476,64.0,0,96,8.0,80.0
4477,68.0,0,96,7.0,80.0
4478,61.0,0,96,10.0,80.0
4479,64.0,0,192,6.0,80.0
4480,61.0,0,192,6.0,80.0
4481,49.0,0,192,11.0,80.0
4482,37.0,0,192,12.0,80.0
4483,73.0,0,192,1.0,80.0
4484,68.0,0,192,6.0,80.0
4485,64.0,120,96,8.0,80.0
4486,61.0,0,96,10.0,80.0
4487,68.0,0,96,7.0,80.0
4488,73.0,120,288,0.0,80.0
4489,61.0,0,96,10.0,80.0
4490,68.0,0,96,7.0,80.0
4491,64.0,120,96,8.0,80.0
4492,61.0,0,96,10.0,80.0
4493,68.0,0,96,7.0,80.0
4494,76.0,0,96,0.0,80.0
4495,64.0,120,96,8.0,80.0
4496,64.0,0,96,8.0,80.0
4497,61.0,0,96,10.0,80.0
4498,68.0,0,96,7.0,80.0
4499,49.0,0,192,11.0,80.0
4500,37.0,120,192,12.0,80.0
4501,61.0,0,96,10.0,80.0
4502,68.0,0,96,7.0,80.0
4503,64.0,120,96,8.0,80.0
4504,80.0,0,288,0.0,80.0
4505,64.0,0,96,8.0,80.0
4506,68.0,120,96,7.0,80.0
4507,61.0,0,96,10.0,80.0
4508,64.0,120,96,8.0,80.0
4509,68.0,0,96,7.0,80.0
4510,76.0,0,96,0.0,80.0
4511,61.0,0,96,10.0,80.0
4512,61.0,120,96,10.0,80.0
4513,64.0,0,96,8.0,80.0
4514,67.0,0,96,7.0,80.0
4515,67.0,0,192,6.0,80.0
4516,49.0,0,192,11.0,80.0
4517,37.0,0,192,12.0,80.0
4518,73.0,0,192,0.0,80.0
4519,61.0,0,192,6.0,80.0
4520,64.0,0,192,6.0,80.0
4521,64.0,0,96,8.0,80.0
4522,61.0,120,96,10.0,80.0
4523,67.0,0,96,7.0,80.0
4524,73.0,0,288,6.0,80.0
4525,61.0,0,96,10.0,80.0
4526,64.0,120,96,8.0,80.0
4527,67.0,0,96,7.0,80.0
4528,67.0,0,96,7.0,80.0
4529,61.0,0,96,10.0,80.0
4530,76.0,0,96,6.0,80.0
4531,64.0,120,96,8.0,80.0
4532,64.0,0,96,8.0,80.0
4533,67.0,0,96,7.0,80.0
4534,61.0,0,96,10.0,80.0
4535,37.0,0,192,12.0,80.0
4536,49.0,0,192,11.0,80.0
4537,67.0,0,96,7.0,80.0
4538,61.0,120,96,10.0,80.0
4539,64.0,0,96,8.0,80.0
4540,79.0,120,288,6.0,80.0
4541,61.0,0,96,10.0,80.0
4542,67.0,120,96,7.0,80.0
4543,64.0,0,96,8.0,80.0
4544,76.0,0,96,6.0,80.0
4545,61.0,0,96,10.0,80.0
4546,64.0,120,96,8.0,80.0
4547,67.0,0,96,7.0,80.0
4548,45.0,120,24,5.0,80.0
4549,45.0,30,24,5.0,80.0
4550,45.0,30,24,5.0,80.0
4551,57.0,0,96,10.0,80.0
4552,45.0,0,96,2.0,80.0
4553,33.0,0,96,12.0,80.0
4554,45.0,0,96,11.0,80.0
4555,45.0,30,24,5.0,80.0
4556,45.0,0,24,5.0,80.0
4557,45.0,30,24,5.0,80.0
4558,61.0,0,192,6.0,80.0
4559,64.0,0,192,6.0,80.0
4560,67.0,0,192,6.0,80.0
4561,73.0,0,192,6.0,80.0
4562,57.0,0,192,6.0,80.0
4563,45.0,30,24,5.0,80.0
4564,57.0,0,96,2.0,80.0
4565,57.0,30,96,11.0,80.0
4566,69.0,0,96,10.0,80.0
4567,45.0,0,96,12.0,80.0
4568,45.0,30,24,5.0,80.0
4569,45.0,30,24,5.0,80.0
4570,73.0,0,288,7.0,80.0
4571,61.0,0,288,8.0,80.0
4572,45.0,30,24,5.0,80.0
4573,45.0,30,24,5.0,80.0
4574,45.0,0,96,12.0,80.0
4575,57.0,0,96,2.0,80.0
4576,57.0,0,96,11.0,80.0
4577,69.0,0,96,10.0,80.0
4578,45.0,30,24,5.0,80.0
4579,45.0,0,24,5.0,80.0
4580,45.0,30,24,5.0,80.0
4581,45.0,30,24,5.0,80.0
4582,76.0,0,96,7.0,80.0
4583,57.0,0,96,11.0,80.0
4584,69.0,30,96,10.0,80.0
4585,64.0,0,96,8.0,80.0
4586,45.0,0,96,12.0,80.0
4587,57.0,0,96,2.0,80.0
4588,45.0,30,24,5.0,80.0
4589,45.0,0,24,5.0,80.0
4590,45.0,30,24,5.0,80.0
4591,45.0,30,24,5.0,80.0
4592,57.0,0,96,11.0,80.0
4593,45.0,30,96,12.0,80.0
4594,69.0,0,96,10.0,80.0
4595,57.0,0,96,2.0,80.0
4596,45.0,30,24,5.0,80.0
4597,45.0,30,24,5.0,80.0
4598,45.0,30,24,5.0,80.0
4599,45.0,30,24,5.0,80.0
4600,45.0,0,96,12.0,80.0
4601,69.0,0,96,10.0,80.0
4602,57.0,0,96,2.0,80.0
4603,57.0,0,96,11.0,80.0
4604,45.0,30,24,5.0,80.0
4605,45.0,0,24,5.0,80.0
4606,67.0,0,288,8.0,80.0
4607,79.0,0,288,7.0,80.0
4608,45.0,30,24,5.0,80.0
4609,45.0,30,24,5.0,80.0
4610,69.0,0,96,10.0,80.0
4611,57.0,0,96,11.0,80.0
4612,57.0,30,96,2.0,80.0
4613,45.0,0,96,12.0,80.0
4614,45.0,30,24,5.0,80.0
4615,69.0,0,864,4.0,80.0
4616,57.0,0,864,3.0,80.0
4617,64.0,0,864,3.0,80.0
4618,73.0,0,864,1.0,80.0
4619,79.0,0,864,1.0,80.0
4620,85.0,0,864,0.0,80.0
4621,76.0,0,864,4.0,80.0
4622,45.0,0,24,5.0,80.0
4623,45.0,30,24,5.0,80.0
4624,45.0,30,24,5.0,80.0
4625,64.0,0,96,8.0,80.0
4626,69.0,0,96,10.0,80.0
4627,69.0,0,96,6.0,80.0
4628,57.0,30,96,11.0,80.0
4629,76.0,0,96,7.0,80.0
4630,57.0,0,96,2.0,80.0
4631,45.0,0,96,12.0,80.0
4632,45.0,30,24,5.0,80.0
4633,76.0,0,48,6.0,80.0
4634,62.0,0,96,6.0,80.0
4635,74.0,60,48,6.0,80.0
4636,73.0,0,48,6.0,80.0
4637,50.0,0,192,2.0,80.0
4638,62.0,0,192,10.0,80.0
4639,69.0,60,96,6.0,80.0
4640,74.0,60,48,6.0,80.0
4641,79.0,60,48,6.0,80.0
4642,74.0,30,288,7.0,80.0
4643,62.0,0,288,8.0,80.0
4644,66.0,0,96,6.0,80.0
4645,78.0,60,48,6.0,80.0
4646,77.0,0,48,6.0,80.0
4647,78.0,60,96,7.0,80.0
4648,66.0,0,96,8.0,80.0
4649,69.0,0,96,6.0,80.0
4650,78.0,60,48,6.0,80.0
4651,83.0,60,48,6.0,80.0
4652,62.0,0,96,6.0,80.0
4653,81.0,60,48,6.0,80.0
4654,80.0,60,48,6.0,80.0
4655,54.0,0,432,10.0,80.0
4656,57.0,0,432,10.0,80.0
4657,69.0,0,96,6.0,80.0
4658,81.0,60,48,6.0,80.0
4659,81.0,0,288,7.0,80.0
4660,79.0,0,48,6.0,80.0
4661,69.0,0,288,8.0,80.0
4662,66.0,60,96,6.0,80.0
4663,78.0,60,48,6.0,80.0
4664,38.0,0,864,12.0,80.0
4665,50.0,0,384,2.0,80.0
4666,50.0,0,864,11.0,80.0
4667,77.0,0,48,6.0,80.0
4668,54.0,0,192,10.0,80.0
4669,57.0,0,192,10.0,80.0
4670,66.0,0,96,8.0,80.0
4671,78.0,0,96,7.0,80.0
4672,69.0,60,96,6.0,80.0
4673,78.0,60,48,6.0,80.0
4674,78.0,0,48,6.0,80.0
4675,76.0,0,96,7.0,80.0
4676,64.0,0,96,8.0,80.0
4677,57.0,0,96,6.0,80.0
4678,76.0,60,48,6.0,80.0
4679,75.0,0,48,6.0,80.0
4680,67.0,60,96,6.0,80.0
4681,76.0,60,48,6.0,80.0
4682,81.0,0,48,6.0,80.0
4683,79.0,0,96,7.0,80.0
4684,64.0,0,96,6.0,80.0
4685,67.0,60,96,8.0,80.0
4686,79.0,60,48,6.0,80.0
4687,78.0,60,48,6.0,80.0
4688,67.0,0,96,6.0,80.0
4689,79.0,60,48,6.0,80.0
4690,71.0,0,48,6.0,80.0
4691,61.0,0,96,8.0,80.0
4692,73.0,0,96,7.0,80.0
4693,57.0,0,96,6.0,80.0
4694,69.0,60,48,6.0,80.0
4695,68.0,60,48,6.0,80.0
4696,67.0,0,96,6.0,80.0
4697,69.0,60,48,6.0,80.0
4698,74.0,0,48,6.0,80.0
4699,64.0,60,96,8.0,80.0
4700,64.0,0,96,6.0,80.0
4701,76.0,0,96,7.0,80.0
4702,73.0,60,48,6.0,80.0
4703,55.0,0,864,10.0,80.0
4704,57.0,0,864,10.0,80.0
4705,33.0,60,864,12.0,80.0
4706,45.0,0,864,2.0,80.0
4707,45.0,0,864,11.0,80.0
4708,71.0,60,48,6.0,80.0
4709,67.0,0,96,6.0,80.0
4710,73.0,60,48,6.0,80.0
4711,76.0,60,48,6.0,80.0
4712,62.0,0,96,6.0,80.0
4713,74.0,60,48,6.0,80.0
4714,73.0,60,48,6.0,80.0
4715,69.0,0,96,6.0,80.0
4716,74.0,60,48,6.0,80.0
4717,79.0,60,48,6.0,80.0
4718,74.0,0,288,7.0,80.0
4719,62.0,0,288,8.0,80.0
4720,66.0,0,96,6.0,80.0
4721,78.0,60,48,6.0,80.0
4722,77.0,0,48,6.0,80.0
4723,78.0,0,96,7.0,80.0
4724,69.0,60,96,6.0,80.0
4725,66.0,0,96,8.0,80.0
4726,78.0,60,48,6.0,80.0
4727,83.0,0,48,6.0,80.0
4728,62.0,0,96,6.0,80.0
4729,81.0,60,48,6.0,80.0
4730,80.0,60,48,6.0,80.0
4731,69.0,0,96,6.0,80.0
4732,81.0,60,48,6.0,80.0
4733,81.0,0,288,7.0,80.0
4734,69.0,60,288,8.0,80.0
4735,88.0,0,48,6.0,80.0
4736,66.0,60,96,6.0,80.0
4737,86.0,60,48,6.0,80.0
4738,50.0,0,864,2.0,80.0
4739,38.0,0,864,12.0,80.0
4740,54.0,0,864,10.0,80.0
4741,57.0,0,864,10.0,80.0
4742,50.0,0,864,11.0,80.0
4743,85.0,0,48,6.0,80.0
4744,69.0,0,96,6.0,80.0
4745,78.0,0,96,7.0,80.0
4746,74.0,60,96,8.0,80.0
4747,86.0,60,48,6.0,80.0
4748,85.0,0,48,6.0,80.0
4749,76.0,60,96,7.0,80.0
4750,64.0,0,96,6.0,80.0
4751,73.0,0,96,8.0,80.0
4752,86.0,60,48,6.0,80.0
4753,88.0,0,48,6.0,80.0
4754,52.0,0,192,2.0,80.0
4755,52.0,0,192,11.0,80.0
4756,40.0,0,192,12.0,80.0
4757,73.0,60,96,7.0,80.0
4758,73.0,0,96,6.0,80.0
4759,69.0,0,96,6.0,80.0
4760,69.0,0,96,8.0,80.0
4761,85.0,60,48,6.0,80.0
4762,83.0,0,48,6.0,80.0
4763,64.0,0,288,10.0,80.0
4764,71.0,0,96,8.0,80.0
4765,74.0,0,96,7.0,80.0
4766,64.0,0,96,6.0,80.0
4767,85.0,60,48,6.0,80.0
4768,86.0,60,48,6.0,80.0
4769,52.0,60,192,2.0,80.0
4770,52.0,0,192,11.0,80.0
4771,40.0,0,192,12.0,80.0
4772,71.0,0,96,7.0,80.0
4773,68.0,0,96,8.0,80.0
4774,68.0,0,96,6.0,80.0
4775,74.0,0,96,6.0,80.0
4776,62.0,0,96,10.0,80.0
4777,83.0,60,48,6.0,80.0
4778,81.0,60,48,6.0,80.0
4779,80.0,60,48,6.0,80.0
4780,81.0,60,48,6.0,80.0
4781,69.0,0,192,8.0,80.0
4782,73.0,0,192,6.0,80.0
4783,69.0,0,192,6.0,80.0
4784,45.0,0,192,11.0,80.0
4785,33.0,0,192,12.0,80.0
4786,57.0,0,192,2.0,80.0
4787,69.0,0,192,7.0,80.0
4788,61.0,0,192,10.0,80.0
4789,83.0,60,48,6.0,80.0
4790,81.0,60,48,6.0,80.0
4791,78.0,60,48,6.0,80.0
4792,79.0,0,48,6.0,80.0
4793,69.0,60,96,7.0,80.0
4794,69.0,0,96,0.0,80.0
4795,69.0,0,96,1.0,80.0
4796,76.0,60,48,6.0,80.0
4797,66.0,0,48,8.0,80.0
4798,62.0,0,96,10.0,80.0
4799,38.0,0,96,12.0,80.0
4800,50.0,0,96,11.0,80.0
4801,69.0,60,48,8.0,80.0
4802,66.0,0,48,8.0,80.0
4803,50.0,0,192,5.0,80.0
4804,62.0,0,192,4.0,80.0
4805,74.0,0,192,4.0,80.0
4806,74.0,0,192,6.0,80.0
4807,50.0,0,96,11.0,80.0
4808,38.0,60,96,12.0,80.0
4809,62.0,0,96,10.0,80.0
4810,69.0,60,48,8.0,80.0
4811,62.0,0,288,3.0,80.0
4812,74.0,0,288,7.0,80.0
4813,50.0,0,288,3.0,80.0
4814,66.0,0,48,8.0,80.0
4815,74.0,0,288,0.0,80.0
4816,74.0,60,288,1.0,80.0
4817,62.0,0,96,10.0,80.0
4818,38.0,60,96,12.0,80.0
4819,50.0,0,96,11.0,80.0
4820,69.0,60,48,8.0,80.0
4821,54.0,0,384,2.0,80.0
4822,62.0,0,384,2.0,80.0
4823,66.0,0,48,8.0,80.0
4824,54.0,0,96,3.0,80.0
4825,78.0,0,96,0.0,80.0
4826,78.0,0,96,1.0,80.0
4827,38.0,0,96,12.0,80.0
4828,66.0,0,96,3.0,80.0
4829,62.0,60,96,10.0,80.0
4830,78.0,0,96,7.0,80.0
4831,50.0,0,96,11.0,80.0
4832,69.0,60,48,8.0,80.0
4833,66.0,0,48,8.0,80.0
4834,62.0,0,96,10.0,80.0
4835,50.0,60,96,11.0,80.0
4836,38.0,0,96,12.0,80.0
4837,69.0,60,48,8.0,80.0
4838,66.0,0,48,8.0,80.0
4839,50.0,0,192,5.0,80.0
4840,62.0,0,192,4.0,80.0
4841,74.0,0,192,4.0,80.0
4842,38.0,60,96,12.0,80.0
4843,62.0,0,96,10.0,80.0
4844,50.0,0,96,11.0,80.0
4845,69.0,60,48,8.0,80.0
4846,66.0,0,48,8.0,80.0
4847,57.0,0,288,3.0,80.0
4848,69.0,0,288,3.0,80.0
4849,81.0,0,288,0.0,80.0
4850,81.0,0,288,7.0,80.0
4851,81.0,0,288,1.0,80.0
4852,38.0,0,96,12.0,80.0
4853,62.0,0,96,10.0,80.0
4854,50.0,60,96,11.0,80.0
4855,69.0,60,48,8.0,80.0
4856,66.0,0,384,2.0,80.0
4857,62.0,0,384,2.0,80.0
4858,66.0,0,48,8.0,80.0
4859,78.0,0,96,0.0,80.0
4860,38.0,0,96,12.0,80.0
4861,78.0,0,96,1.0,80.0
4862,62.0,0,96,10.0,80.0
4863,66.0,0,96,3.0,80.0
4864,78.0,60,96,7.0,80.0
4865,50.0,0,96,11.0,80.0
4866,54.0,0,96,3.0,80.0
4867,69.0,60,48,8.0,80.0
4868,67.0,0,48,8.0,80.0
4869,33.0,0,96,12.0,80.0
4870,64.0,0,96,2.0,80.0
4871,45.0,0,96,5.0,80.0
4872,45.0,0,96,11.0,80.0
4873,61.0,0,96,10.0,80.0
4874,76.0,60,96,7.0,80.0
4875,76.0,0,96,1.0,80.0
4876,67.0,0,96,2.0,80.0
4877,76.0,0,96,0.0,80.0
4878,57.0,0,96,3.0,80.0
4879,64.0,0,96,3.0,80.0
4880,69.0,0,96,4.0,80.0
4881,69.0,60,48,8.0,80.0
4882,67.0,0,48,8.0,80.0
4883,57.0,0,96,11.0,80.0
4884,64.0,0,96,2.0,80.0
4885,57.0,0,96,3.0,80.0
4886,64.0,0,96,3.0,80.0
4887,76.0,0,96,0.0,80.0
4888,67.0,0,96,2.0,80.0
4889,61.0,0,96,10.0,80.0
4890,69.0,0,96,4.0,80.0
4891,45.0,0,96,12.0,80.0
4892,76.0,0,96,7.0,80.0
4893,45.0,0,96,5.0,80.0
4894,76.0,60,96,1.0,80.0
4895,69.0,60,48,8.0,80.0
4896,67.0,0,48,8.0,80.0
4897,78.0,0,48,0.0,80.0
4898,78.0,0,48,7.0,80.0
4899,78.0,0,48,1.0,80.0
4900,61.0,0,96,10.0,80.0
4901,33.0,0,96,12.0,80.0
4902,45.0,0,96,11.0,80.0
4903,76.0,0,48,0.0,80.0
4904,76.0,0,48,1.0,80.0
4905,76.0,60,48,7.0,80.0
4906,69.0,0,48,8.0,80.0
4907,75.0,0,48,1.0,80.0
4908,75.0,60,48,7.0,80.0
4909,75.0,0,48,0.0,80.0
4910,67.0,0,48,8.0,80.0
4911,64.0,0,192,2.0,80.0
4912,67.0,0,192,2.0,80.0
4913,64.0,0,192,3.0,80.0
4914,45.0,0,192,5.0,80.0
4915,69.0,0,192,4.0,80.0
4916,57.0,60,192,3.0,80.0
4917,61.0,0,96,10.0,80.0
4918,45.0,0,96,12.0,80.0
4919,57.0,0,96,11.0,80.0
4920,76.0,0,48,1.0,80.0
4921,76.0,0,48,0.0,80.0
4922,76.0,60,48,7.0,80.0
4923,69.0,0,48,8.0,80.0
4924,67.0,0,48,8.0,80.0
4925,45.0,0,96,11.0,80.0
4926,73.0,0,96,0.0,80.0
4927,64.0,0,96,10.0,80.0
4928,33.0,0,96,12.0,80.0
4929,64.0,0,96,2.0,80.0
4930,45.0,60,96,5.0,80.0
4931,61.0,0,96,2.0,80.0
4932,69.0,0,96,4.0,80.0
4933,73.0,0,96,7.0,80.0
4934,73.0,0,96,1.0,80.0
4935,57.0,0,96,3.0,80.0
4936,45.0,0,96,3.0,80.0
4937,69.0,60,48,8.0,80.0
4938,67.0,0,48,8.0,80.0
4939,64.0,0,96,10.0,80.0
4940,73.0,0,96,1.0,80.0
4941,45.0,0,96,12.0,80.0
4942,45.0,0,96,3.0,80.0
4943,57.0,0,96,3.0,80.0
4944,73.0,60,96,0.0,80.0
4945,45.0,0,96,5.0,80.0
4946,57.0,0,96,11.0,80.0
4947,69.0,0,96,4.0,80.0
4948,61.0,0,96,2.0,80.0
4949,64.0,0,96,2.0,80.0
4950,73.0,0,96,7.0,80.0
4951,69.0,60,48,8.0,80.0
4952,67.0,0,48,8.0,80.0
4953,74.0,0,48,7.0,80.0
4954,74.0,0,48,0.0,80.0
4955,74.0,0,48,1.0,80.0
4956,64.0,60,96,10.0,80.0
4957,45.0,0,96,11.0,80.0
4958,33.0,0,96,12.0,80.0
4959,69.0,0,48,8.0,80.0
4960,73.0,0,48,0.0,80.0
4961,73.0,60,48,7.0,80.0
4962,73.0,0,48,1.0,80.0
4963,71.0,0,48,0.0,80.0
4964,67.0,0,48,8.0,80.0
4965,71.0,0,48,1.0,80.0
4966,71.0,0,48,7.0,80.0
4967,45.0,0,192,5.0,80.0
4968,61.0,0,192,2.0,80.0
4969,69.0,0,192,4.0,80.0
4970,64.0,0,192,2.0,80.0
4971,45.0,0,192,3.0,80.0
4972,57.0,0,192,3.0,80.0
4973,64.0,60,96,10.0,80.0
4974,57.0,0,96,11.0,80.0
4975,45.0,0,96,12.0,80.0
4976,73.0,0,48,7.0,80.0
4977,73.0,60,48,1.0,80.0
4978,73.0,0,48,0.0,80.0
4979,69.0,0,48,8.0,80.0
4980,66.0,60,48,8.0,80.0
4981,74.0,0,96,4.0,80.0
4982,62.0,0,96,3.0,80.0
4983,50.0,0,96,3.0,80.0
4984,74.0,0,96,0.0,80.0
4985,62.0,0,96,4.0,80.0
4986,74.0,0,96,1.0,80.0
4987,50.0,0,96,11.0,80.0
4988,74.0,0,96,7.0,80.0
4989,38.0,0,96,12.0,80.0
4990,62.0,0,96,10.0,80.0
4991,69.0,60,48,8.0,80.0
4992,66.0,0,48,8.0,80.0
4993,50.0,0,192,5.0,80.0
4994,50.0,0,96,11.0,80.0
4995,38.0,0,96,12.0,80.0
4996,62.0,0,96,4.0,80.0
4997,74.0,0,96,4.0,80.0
4998,69.0,60,48,8.0,80.0
4999,66.0,60,48,8.0,80.0
5000,74.0,0,192,0.0,80.0
5001,74.0,0,192,1.0,80.0
5002,62.0,0,192,3.0,80.0
5003,50.0,0,192,3.0,80.0
5004,57.0,0,192,10.0,80.0
5005,74.0,60,192,7.0,80.0
5006,38.0,0,96,12.0,80.0
5007,50.0,0,96,11.0,80.0
5008,69.0,60,48,8.0,80.0
5009,54.0,0,384,2.0,80.0
5010,62.0,0,384,2.0,80.0
5011,66.0,0,48,8.0,80.0
5012,74.0,0,192,4.0,80.0
5013,62.0,0,192,4.0,80.0
5014,50.0,0,96,11.0,80.0
5015,66.0,0,96,3.0,80.0
5016,54.0,0,96,3.0,80.0
5017,62.0,0,96,10.0,80.0
5018,78.0,0,96,0.0,80.0
5019,78.0,60,96,7.0,80.0
5020,38.0,0,96,12.0,80.0
5021,78.0,0,96,1.0,80.0
5022,69.0,60,48,8.0,80.0
5023,62.0,0,48,8.0,80.0
5024,66.0,0,96,10.0,80.0
5025,38.0,0,96,12.0,80.0
5026,81.0,0,96,0.0,80.0
5027,50.0,0,96,11.0,80.0
5028,81.0,0,96,1.0,80.0
5029,69.0,0,96,3.0,80.0
5030,81.0,0,96,7.0,80.0
5031,57.0,60,96,3.0,80.0
5032,74.0,0,96,4.0,80.0
5033,62.0,0,96,4.0,80.0
5034,69.0,60,48,8.0,80.0
5035,62.0,0,48,8.0,80.0
5036,50.0,0,192,5.0,80.0
5037,38.0,0,96,12.0,80.0
5038,50.0,0,96,11.0,80.0
5039,74.0,0,96,4.0,80.0
5040,62.0,0,96,4.0,80.0
5041,69.0,60,48,8.0,80.0
5042,62.0,0,48,8.0,80.0
5043,81.0,0,192,1.0,80.0
5044,66.0,0,192,10.0,80.0
5045,81.0,60,192,7.0,80.0
5046,81.0,0,192,0.0,80.0
5047,57.0,0,192,3.0,80.0
5048,69.0,0,192,3.0,80.0
5049,50.0,0,96,11.0,80.0
5050,38.0,0,96,12.0,80.0
5051,69.0,60,48,8.0,80.0
5052,62.0,0,384,2.0,80.0
5053,66.0,0,384,2.0,80.0
5054,62.0,60,48,8.0,80.0
5055,62.0,60,192,4.0,80.0
5056,74.0,0,192,4.0,80.0
5057,50.0,0,96,11.0,80.0
5058,62.0,0,96,3.0,80.0
5059,78.0,0,96,1.0,80.0
5060,66.0,0,96,3.0,80.0
5061,69.0,0,96,10.0,80.0
5062,78.0,0,96,0.0,80.0
5063,38.0,0,96,12.0,80.0
5064,78.0,0,96,7.0,80.0
5065,69.0,60,48,8.0,80.0
5066,61.0,0,48,8.0,80.0
5067,52.0,0,96,11.0,80.0
5068,76.0,0,96,0.0,80.0
5069,64.0,0,96,10.0,80.0
5070,40.0,0,96,12.0,80.0
5071,76.0,0,96,7.0,80.0
5072,76.0,0,96,1.0,80.0
5073,64.0,60,96,3.0,80.0
5074,64.0,60,48,8.0,80.0
5075,61.0,0,48,8.0,80.0
5076,64.0,0,96,3.0,80.0
5077,52.0,0,96,11.0,80.0
5078,40.0,0,96,12.0,80.0
5079,64.0,0,96,10.0,80.0
5080,64.0,60,48,8.0,80.0
5081,61.0,60,48,8.0,80.0
5082,61.0,0,288,2.0,80.0
5083,64.0,0,288,2.0,80.0
5084,81.0,60,192,1.0,80.0
5085,81.0,0,192,0.0,80.0
5086,81.0,0,192,7.0,80.0
5087,52.0,0,96,11.0,80.0
5088,40.0,0,96,12.0,80.0
5089,64.0,0,96,3.0,80.0
5090,64.0,0,96,10.0,80.0
5091,64.0,60,48,8.0,80.0
5092,76.0,0,384,4.0,80.0
5093,83.0,0,48,0.0,80.0
5094,83.0,0,48,1.0,80.0
5095,83.0,0,48,7.0,80.0
5096,62.0,0,48,8.0,80.0
5097,59.0,0,96,2.0,80.0
5098,62.0,0,96,2.0,80.0
5099,64.0,0,96,10.0,80.0
5100,52.0,60,96,11.0,80.0
5101,64.0,0,96,3.0,80.0
5102,40.0,0,96,12.0,80.0
5103,59.0,0,48,8.0,80.0
5104,80.0,0,48,1.0,80.0
5105,80.0,60,48,0.0,80.0
5106,80.0,0,48,7.0,80.0
5107,57.0,0,96,11.0,80.0
5108,45.0,0,96,12.0,80.0
5109,81.0,0,192,7.0,80.0
5110,81.0,0,192,0.0,80.0
5111,57.0,0,192,3.0,80.0
5112,64.0,0,192,3.0,80.0
5113,69.0,0,192,4.0,80.0
5114,61.0,0,192,2.0,80.0
5115,76.0,0,192,4.0,80.0
5116,57.0,0,192,2.0,80.0
5117,81.0,0,192,1.0,80.0
5118,64.0,0,192,10.0,80.0
5119,45.0,0,192,5.0,80.0
5120,61.0,60,192,8.0,80.0
5121,52.0,120,96,11.0,80.0
5122,40.0,0,96,12.0,80.0
5123,33.0,120,96,12.0,80.0
5124,45.0,0,96,11.0,80.0
5125,81.0,120,96,6.0,80.0
5126,80.0,0,48,6.0,80.0
5127,81.0,60,48,6.0,80.0
5128,83.0,60,48,6.0,80.0
5129,81.0,60,48,6.0,80.0
5130,83.0,60,48,6.0,80.0
5131,81.0,60,48,6.0,80.0
5132,57.0,0,384,6.0,80.0
5133,62.0,0,384,6.0,80.0
5134,74.0,0,384,7.0,80.0
5135,54.0,0,384,6.0,80.0
5136,42.0,0,384,12.0,80.0
5137,69.0,120,384,8.0,80.0
5138,54.0,0,384,11.0,80.0
5139,86.0,60,48,6.0,80.0
5140,83.0,60,48,6.0,80.0
5141,81.0,0,48,6.0,80.0
5142,79.0,60,48,6.0,80.0
5143,78.0,60,48,6.0,80.0
5144,79.0,60,48,6.0,80.0
5145,78.0,60,48,6.0,80.0
5146,79.0,60,48,6.0,80.0
5147,73.0,0,384,7.0,80.0
5148,52.0,0,384,11.0,80.0
5149,61.0,0,384,6.0,80.0
5150,67.0,0,384,8.0,80.0
5151,40.0,60,384,12.0,80.0
5152,57.0,0,384,6.0,80.0
5153,52.0,0,384,6.0,80.0
5154,83.0,60,48,6.0,80.0
5155,79.0,60,48,6.0,80.0
5156,79.0,0,48,6.0,80.0
5157,78.0,60,48,6.0,80.0
5158,77.0,60,48,6.0,80.0
5159,78.0,60,48,6.0,80.0
5160,77.0,60,48,6.0,80.0
5161,78.0,60,48,6.0,80.0
5162,66.0,0,384,8.0,80.0
5163,57.0,0,384,6.0,80.0
5164,74.0,60,384,7.0,80.0
5165,38.0,0,384,12.0,80.0
5166,62.0,0,384,6.0,80.0
5167,50.0,0,384,6.0,80.0
5168,50.0,0,384,11.0,80.0
5169,81.0,60,48,6.0,80.0
5170,78.0,60,48,6.0,80.0
5171,78.0,0,48,6.0,80.0
5172,76.0,60,48,6.0,80.0
5173,75.0,60,48,6.0,80.0
5174,76.0,60,48,6.0,80.0
5175,75.0,60,48,6.0,80.0
5176,76.0,60,48,6.0,80.0
5177,55.0,0,384,6.0,80.0
5178,61.0,0,384,8.0,80.0
5179,57.0,60,384,6.0,80.0
5180,55.0,0,384,11.0,80.0
5181,43.0,0,384,12.0,80.0
5182,76.0,0,384,7.0,80.0
5183,61.0,0,384,6.0,80.0
5184,79.0,60,48,6.0,80.0
5185,76.0,60,48,6.0,80.0
5186,74.0,0,48,6.0,80.0
5187,76.0,60,48,6.0,80.0
5188,78.0,60,48,6.0,80.0
5189,79.0,60,48,6.0,80.0
5190,81.0,60,48,6.0,80.0
5191,83.0,60,48,6.0,80.0
5192,57.0,60,384,6.0,80.0
5193,74.0,0,384,7.0,80.0
5194,62.0,0,384,6.0,80.0
5195,54.0,0,384,11.0,80.0
5196,42.0,0,384,12.0,80.0
5197,69.0,0,2304,10.0,80.0
5198,54.0,0,384,6.0,80.0
5199,85.0,60,48,6.0,80.0
5200,86.0,60,48,6.0,80.0
5201,82.0,0,48,6.0,80.0
5202,83.0,60,48,6.0,80.0
5203,85.0,60,48,6.0,80.0
5204,83.0,60,48,6.0,80.0
5205,81.0,60,48,6.0,80.0
5206,79.0,60,48,6.0,80.0
5207,55.0,0,384,11.0,80.0
5208,43.0,60,384,12.0,80.0
5209,62.0,0,864,8.0,80.0
5210,64.0,0,384,6.0,80.0
5211,71.0,0,384,7.0,80.0
5212,59.0,0,384,6.0,80.0
5213,55.0,0,384,6.0,80.0
5214,78.0,60,48,6.0,80.0
5215,76.0,60,48,6.0,80.0
5216,74.0,0,48,6.0,80.0
5217,73.0,60,48,6.0,80.0
5218,79.0,60,48,6.0,80.0
5219,78.0,60,48,6.0,80.0
5220,81.0,60,48,6.0,80.0
5221,79.0,60,48,6.0,80.0
5222,64.0,0,864,10.0,80.0
5223,57.0,0,384,11.0,80.0
5224,57.0,0,384,6.0,80.0
5225,67.0,0,384,6.0,80.0
5226,73.0,0,384,7.0,80.0
5227,64.0,60,384,6.0,80.0
5228,45.0,0,384,12.0,80.0
5229,67.0,0,384,8.0,80.0
5230,76.0,60,48,6.0,80.0
5231,73.0,60,48,6.0,80.0
5232,74.0,0,48,6.0,80.0
5233,73.0,60,48,6.0,80.0
5234,76.0,60,48,6.0,80.0
5235,50.0,0,192,11.0,80.0
5236,66.0,0,192,6.0,80.0
5237,38.0,0,192,12.0,80.0
5238,62.0,0,192,6.0,80.0
5239,66.0,0,192,8.0,80.0
5240,62.0,60,192,10.0,80.0
5241,74.0,0,192,7.0,80.0
5242,74.0,60,48,6.0,80.0
5243,78.0,60,48,6.0,80.0
5244,76.0,60,48,6.0,80.0
5245,79.0,60,48,6.0,80.0
5246,78.0,60,48,6.0,80.0
5247,69.0,0,192,4.0,80.0
5248,45.0,0,192,5.0,80.0
5249,57.0,0,192,4.0,80.0
5250,81.0,0,192,6.0,80.0
5251,54.0,0,96,12.0,80.0
5252,66.0,0,96,11.0,80.0
5253,66.0,120,96,2.0,80.0
5254,69.0,0,288,8.0,80.0
5255,81.0,0,288,0.0,80.0
5256,66.0,0,288,10.0,80.0
5257,78.0,0,288,1.0,80.0
5258,81.0,0,288,1.0,80.0
5259,81.0,60,288,7.0,80.0
5260,51.0,120,96,12.0,80.0
5261,63.0,0,96,11.0,80.0
5262,63.0,0,96,2.0,80.0
5263,47.0,0,96,12.0,80.0
5264,83.0,0,96,7.0,80.0
5265,71.0,0,96,8.0,80.0
5266,59.0,120,96,11.0,80.0
5267,83.0,0,96,0.0,80.0
5268,67.0,0,96,10.0,80.0
5269,59.0,0,96,2.0,80.0
5270,79.0,0,96,1.0,80.0
5271,83.0,0,96,1.0,80.0
5272,69.0,0,96,8.0,80.0
5273,81.0,0,96,0.0,80.0
5274,66.0,0,96,10.0,80.0
5275,78.0,0,96,1.0,80.0
5276,81.0,0,96,1.0,80.0
5277,81.0,0,96,7.0,80.0
5278,45.0,120,192,5.0,80.0
5279,69.0,0,192,4.0,80.0
5280,57.0,0,192,4.0,80.0
5281,79.0,0,96,7.0,80.0
5282,52.0,0,96,12.0,80.0
5283,67.0,120,96,8.0,80.0
5284,79.0,0,96,0.0,80.0
5285,64.0,0,96,2.0,80.0
5286,64.0,0,96,10.0,80.0
5287,76.0,0,96,1.0,80.0
5288,79.0,0,96,1.0,80.0
5289,64.0,0,96,11.0,80.0
5290,49.0,120,96,12.0,80.0
5291,61.0,0,96,11.0,80.0
5292,61.0,0,96,2.0,80.0
5293,81.0,0,96,0.0,80.0
5294,57.0,0,96,11.0,80.0
5295,66.0,0,96,10.0,80.0
5296,78.0,0,96,1.0,80.0
5297,81.0,0,96,1.0,80.0
5298,45.0,0,96,12.0,80.0
5299,81.0,0,96,7.0,80.0
5300,57.0,120,96,2.0,80.0
5301,69.0,0,96,8.0,80.0
5302,79.0,0,96,0.0,80.0
5303,67.0,120,96,8.0,80.0
5304,79.0,0,96,7.0,80.0
5305,64.0,0,96,10.0,80.0
5306,79.0,0,96,1.0,80.0
5307,76.0,0,96,1.0,80.0
5308,45.0,0,192,5.0,80.0
5309,69.0,0,192,4.0,80.0
5310,57.0,0,192,4.0,80.0
5311,62.0,0,96,10.0,80.0
5312,78.0,0,96,1.0,80.0
5313,74.0,0,96,1.0,80.0
5314,78.0,0,96,7.0,80.0
5315,66.0,0,96,8.0,80.0
5316,62.0,0,96,2.0,80.0
5317,78.0,120,96,0.0,80.0
5318,62.0,0,96,11.0,80.0
5319,50.0,0,96,12.0,80.0
5320,47.0,120,96,12.0,80.0
5321,59.0,0,96,2.0,80.0
5322,59.0,0,96,11.0,80.0
5323,64.0,0,96,10.0,80.0
5324,79.0,0,96,0.0,80.0
5325,79.0,0,96,7.0,80.0
5326,67.0,0,96,8.0,80.0
5327,55.0,0,96,11.0,80.0
5328,76.0,0,96,1.0,80.0
5329,79.0,0,96,1.0,80.0
5330,43.0,0,96,12.0,80.0
5331,55.0,120,96,2.0,80.0
5332,74.0,0,96,1.0,80.0
5333,78.0,0,96,1.0,80.0
5334,78.0,0,96,0.0,80.0
5335,62.0,0,96,10.0,80.0
5336,78.0,0,96,7.0,80.0
5337,66.0,0,96,8.0,80.0
5338,69.0,120,192,4.0,80.0
5339,57.0,0,192,4.0,80.0
5340,45.0,0,192,5.0,80.0
5341,76.0,120,96,7.0,80.0
5342,61.0,0,96,10.0,80.0
5343,64.0,0,96,8.0,80.0
5344,45.0,0,96,12.0,80.0
5345,57.0,0,96,11.0,80.0
5346,76.0,0,96,1.0,80.0
5347,76.0,0,96,0.0,80.0
5348,73.0,0,96,1.0,80.0
5349,57.0,0,96,2.0,80.0
5350,56.0,0,96,2.0,80.0
5351,56.0,120,96,11.0,80.0
5352,44.0,0,96,12.0,80.0
5353,57.0,0,1824,3.0,80.0
5354,45.0,0,1824,3.0,80.0
5355,69.0,0,96,0.0,80.0
5356,55.0,0,96,11.0,80.0
5357,43.0,120,96,12.0,80.0
5358,55.0,0,96,2.0,80.0
5359,69.0,0,96,7.0,80.0
5360,61.0,0,96,10.0,80.0
5361,64.0,0,96,8.0,80.0
5362,69.0,120,48,8.0,80.0
5363,62.0,0,48,10.0,80.0
5364,42.0,0,96,12.0,80.0
5365,54.0,0,96,11.0,80.0
5366,69.0,60,48,8.0,80.0
5367,62.0,0,48,10.0,80.0
5368,69.0,0,48,8.0,80.0
5369,62.0,0,48,10.0,80.0
5370,50.0,0,192,5.0,80.0
5371,54.0,0,192,2.0,80.0
5372,74.0,0,192,7.0,80.0
5373,74.0,0,192,4.0,80.0
5374,62.0,0,192,4.0,80.0
5375,42.0,60,96,12.0,80.0
5376,54.0,0,96,11.0,80.0
5377,69.0,60,48,8.0,80.0
5378,62.0,0,48,10.0,80.0
5379,69.0,60,48,10.0,80.0
5380,74.0,0,48,8.0,80.0
5381,54.0,0,96,11.0,80.0
5382,42.0,0,96,12.0,80.0
5383,69.0,0,48,10.0,80.0
5384,74.0,60,48,8.0,80.0
5385,62.0,0,384,3.0,80.0
5386,50.0,0,384,3.0,80.0
5387,74.0,0,384,0.0,80.0
5388,69.0,0,504,1.0,80.0
5389,74.0,60,48,8.0,80.0
5390,69.0,0,48,10.0,80.0
5391,57.0,0,192,2.0,80.0
5392,86.0,0,192,7.0,80.0
5393,62.0,0,192,2.0,80.0
5394,42.0,0,96,12.0,80.0
5395,54.0,0,96,11.0,80.0
5396,69.0,0,48,10.0,80.0
5397,74.0,60,48,8.0,80.0
5398,67.0,0,48,10.0,80.0
5399,74.0,60,48,8.0,80.0
5400,55.0,0,96,11.0,80.0
5401,83.0,0,96,7.0,80.0
5402,43.0,0,96,12.0,80.0
5403,74.0,0,48,8.0,80.0
5404,67.0,60,48,10.0,80.0
5405,74.0,0,48,8.0,80.0
5406,67.0,60,48,10.0,80.0
5407,62.0,0,192,4.0,80.0
5408,50.0,0,192,5.0,80.0
5409,74.0,0,192,4.0,80.0
5410,55.0,0,96,11.0,80.0
5411,43.0,0,96,12.0,80.0
5412,67.0,60,48,10.0,80.0
5413,74.0,0,48,8.0,80.0
5414,67.0,60,48,10.0,80.0
5415,71.0,0,48,8.0,80.0
5416,83.0,0,192,7.0,80.0
5417,55.0,0,96,11.0,80.0
5418,43.0,0,96,12.0,80.0
5419,67.0,60,48,10.0,80.0
5420,71.0,0,48,8.0,80.0
5421,64.0,0,384,2.0,80.0
5422,71.0,0,384,1.0,80.0
5423,74.0,0,864,1.0,80.0
5424,59.0,0,384,2.0,80.0
5425,62.0,0,384,3.0,80.0
5426,83.0,0,384,0.0,80.0
5427,64.0,0,384,3.0,80.0
5428,71.0,0,48,8.0,80.0
5429,79.0,60,48,7.0,80.0
5430,67.0,0,48,10.0,80.0
5431,55.0,0,96,11.0,80.0
5432,43.0,0,96,12.0,80.0
5433,76.0,60,48,7.0,80.0
5434,67.0,0,48,10.0,80.0
5435,71.0,0,48,8.0,80.0
5436,64.0,0,48,8.0,80.0
5437,61.0,0,48,10.0,80.0
5438,45.0,0,96,12.0,80.0
5439,79.0,0,96,7.0,80.0
5440,57.0,0,96,11.0,80.0
5441,61.0,60,48,10.0,80.0
5442,64.0,0,48,8.0,80.0
5443,61.0,60,48,10.0,80.0
5444,64.0,0,48,8.0,80.0
5445,69.0,0,192,4.0,80.0
5446,45.0,0,192,5.0,80.0
5447,45.0,0,96,12.0,80.0
5448,57.0,0,96,11.0,80.0
5449,61.0,60,48,10.0,80.0
5450,64.0,0,48,8.0,80.0
5451,67.0,0,48,8.0,80.0
5452,64.0,60,48,10.0,80.0
5453,79.0,0,192,7.0,80.0
5454,45.0,0,96,12.0,80.0
5455,45.0,0,96,5.0,80.0
5456,57.0,0,96,11.0,80.0
5457,69.0,0,96,4.0,80.0
5458,67.0,60,48,8.0,80.0
5459,64.0,0,48,10.0,80.0
5460,55.0,0,384,2.0,80.0
5461,64.0,60,384,3.0,80.0
5462,61.0,0,384,2.0,80.0
5463,76.0,0,384,1.0,80.0
5464,79.0,0,384,1.0,80.0
5465,57.0,0,384,3.0,80.0
5466,85.0,0,384,0.0,80.0
5467,76.0,0,48,7.0,80.0
5468,67.0,60,48,8.0,80.0
5469,64.0,0,48,10.0,80.0
5470,69.0,0,96,4.0,80.0
5471,45.0,0,96,12.0,80.0
5472,57.0,0,96,11.0,80.0
5473,45.0,0,96,5.0,80.0
5474,67.0,0,48,8.0,80.0
5475,64.0,0,48,10.0,80.0
5476,73.0,60,48,7.0,80.0
5477,78.0,0,192,1.0,80.0
5478,74.0,0,192,7.0,80.0
5479,62.0,0,192,3.0,80.0
5480,54.0,0,192,3.0,80.0
5481,38.0,0,192,12.0,80.0
5482,74.0,0,192,1.0,80.0
5483,50.0,0,192,5.0,80.0
5484,66.0,0,192,8.0,80.0
5485,62.0,0,192,10.0,80.0
5486,54.0,0,192,2.0,80.0
5487,62.0,0,192,2.0,80.0
5488,50.0,0,192,11.0,80.0
5489,66.0,0,192,4.0,80.0
5490,69.0,60,192,4.0,80.0
5491,86.0,0,192,0.0,80.0
5492,69.0,0,48,0.0,80.0
5493,57.0,0,48,10.0,80.0
5494,45.0,0,48,11.0,80.0
5495,69.0,0,48,1.0,80.0
5496,45.0,360,48,2.0,80.0
5497,33.0,0,48,12.0,80.0
5498,57.0,0,48,7.0,80.0
5499,57.0,0,48,8.0,80.0
5500,59.0,0,24,7.0,80.0
5501,47.0,0,24,11.0,80.0
5502,71.0,0,24,1.0,80.0
5503,59.0,0,24,8.0,80.0
5504,71.0,60,24,0.0,80.0
5505,47.0,0,24,2.0,80.0
5506,35.0,0,24,12.0,80.0
5507,59.0,0,24,10.0,80.0
5508,61.0,0,24,7.0,80.0
5509,49.0,0,24,11.0,80.0
5510,73.0,0,24,0.0,80.0
5511,61.0,0,24,10.0,80.0
5512,49.0,0,24,2.0,80.0
5513,73.0,0,24,1.0,80.0
5514,61.0,30,24,8.0,80.0
5515,37.0,0,24,12.0,80.0
5516,62.0,0,192,7.0,80.0
5517,62.0,0,192,3.0,80.0
5518,50.0,0,192,3.0,80.0
5519,62.0,0,192,10.0,80.0
5520,50.0,0,192,2.0,80.0
5521,38.0,0,192,12.0,80.0
5522,74.0,0,192,0.0,80.0
5523,74.0,0,192,1.0,80.0
5524,50.0,0,192,11.0,80.0
5525,62.0,0,192,8.0,80.0
5526,50.0,30,192,5.0,80.0
5527,62.0,0,192,4.0,80.0
5528,50.0,0,192,5.0,80.0
5529,66.0,0,192,4.0,80.0
5530,54.0,0,192,11.0,80.0
5531,66.0,0,192,8.0,80.0
5532,78.0,0,192,0.0,80.0
5533,66.0,0,192,3.0,80.0
5534,54.0,0,192,3.0,80.0
5535,66.0,0,192,7.0,80.0
5536,66.0,240,192,10.0,80.0
5537,78.0,0,192,1.0,80.0
5538,54.0,0,192,2.0,80.0
5539,42.0,0,192,12.0,80.0
5540,69.0,0,192,4.0,80.0
5541,45.0,0,192,12.0,80.0
5542,57.0,0,192,11.0,80.0
5543,57.0,0,192,2.0,80.0
5544,81.0,0,192,0.0,80.0
5545,45.0,0,192,5.0,80.0
5546,69.0,0,192,10.0,80.0
5547,57.0,240,192,3.0,80.0
5548,81.0,0,192,1.0,80.0
5549,69.0,0,192,8.0,80.0
5550,69.0,0,192,3.0,80.0
5551,69.0,0,192,7.0,80.0
5552,78.0,240,48,8.0,80.0
5553,81.0,0,48,7.0,80.0
5554,76.0,60,48,8.0,80.0
5555,79.0,0,48,7.0,80.0
5556,78.0,0,48,7.0,80.0
5557,74.0,60,48,8.0,80.0
5558,73.0,60,48,8.0,80.0
5559,76.0,0,48,7.0,80.0
5560,74.0,0,96,0.0,80.0
5561,74.0,0,96,8.0,80.0
5562,74.0,0,96,7.0,80.0
5563,62.0,0,96,4.0,80.0
5564,62.0,0,96,10.0,80.0
5565,62.0,0,96,3.0,80.0
5566,74.0,0,96,1.0,80.0
5567,50.0,0,96,11.0,80.0
5568,38.0,0,96,12.0,80.0
5569,50.0,0,96,2.0,80.0
5570,50.0,60,96,3.0,80.0
5571,50.0,0,192,5.0,80.0
5572,42.0,0,96,12.0,80.0
5573,66.0,0,96,8.0,80.0
5574,66.0,0,96,3.0,80.0
5575,54.0,0,96,11.0,80.0
5576,78.0,0,96,1.0,80.0
5577,78.0,0,96,0.0,80.0
5578,54.0,120,96,2.0,80.0
5579,66.0,0,96,4.0,80.0
5580,66.0,0,96,7.0,80.0
5581,66.0,0,96,10.0,80.0
5582,54.0,0,96,3.0,80.0
5583,81.0,0,96,0.0,80.0
5584,81.0,0,96,1.0,80.0
5585,69.0,0,96,10.0,80.0
5586,45.0,0,96,5.0,80.0
5587,69.0,0,96,7.0,80.0
5588,57.0,0,96,2.0,80.0
5589,69.0,0,96,4.0,80.0
5590,45.0,0,96,12.0,80.0
5591,57.0,0,96,3.0,80.0
5592,69.0,0,96,3.0,80.0
5593,57.0,0,96,11.0,80.0
5594,69.0,120,96,8.0,80.0
5595,69.0,0,96,10.0,80.0
5596,69.0,0,96,8.0,80.0
5597,57.0,0,96,3.0,80.0
5598,57.0,0,96,2.0,80.0
5599,45.0,0,96,5.0,80.0
5600,81.0,0,96,0.0,80.0
5601,45.0,0,96,12.0,80.0
5602,69.0,0,96,7.0,80.0
5603,81.0,0,96,1.0,80.0
5604,69.0,0,96,4.0,80.0
5605,57.0,120,96,11.0,80.0
5606,69.0,0,96,3.0,80.0
5607,69.0,0,192,7.0,80.0
5608,57.0,0,192,11.0,80.0
5609,69.0,0,192,8.0,80.0
5610,81.0,0,192,1.0,80.0
5611,57.0,0,192,2.0,80.0
5612,69.0,120,192,10.0,80.0
5613,69.0,0,192,3.0,80.0
5614,69.0,0,192,4.0,80.0
5615,81.0,0,192,0.0,80.0
5616,45.0,0,192,5.0,80.0
5617,57.0,0,192,3.0,80.0
5618,45.0,0,192,12.0,80.0
5619,81.0,0,48,7.0,80.0
5620,78.0,240,48,8.0,80.0
5621,79.0,60,48,7.0,80.0
5622,76.0,0,48,8.0,80.0
5623,78.0,60,48,7.0,80.0
5624,74.0,0,48,8.0,80.0
5625,73.0,0,48,8.0,80.0
5626,76.0,60,48,7.0,80.0
5627,74.0,0,48,6.0,80.0
5628,69.0,60,48,6.0,80.0
5629,74.0,60,48,6.0,80.0
5630,50.0,60,192,6.0,80.0
5631,74.0,0,192,7.0,80.0
5632,50.0,0,192,11.0,80.0
5633,74.0,0,192,8.0,80.0
5634,66.0,0,192,10.0,80.0
5635,38.0,0,192,12.0,80.0
5636,78.0,60,48,6.0,80.0
5637,81.0,60,48,6.0,80.0
5638,66.0,0,96,6.0,80.0
5639,66.0,0,96,8.0,80.0
5640,69.0,0,96,7.0,80.0
5641,62.0,0,96,10.0,80.0
5642,62.0,0,96,6.0,80.0
5643,74.0,60,48,6.0,80.0
5644,83.0,0,48,6.0,80.0
5645,67.0,60,96,8.0,80.0
5646,64.0,0,96,6.0,80.0
5647,71.0,0,96,7.0,80.0
5648,67.0,0,96,6.0,80.0
5649,62.0,0,96,10.0,80.0
5650,74.0,60,48,6.0,80.0
5651,81.0,0,48,6.0,80.0
5652,78.0,60,48,6.0,80.0
5653,74.0,60,48,6.0,80.0
5654,38.0,0,192,12.0,80.0
5655,62.0,60,192,10.0,80.0
5656,62.0,0,192,6.0,80.0
5657,66.0,0,192,6.0,80.0
5658,50.0,0,192,11.0,80.0
5659,69.0,0,192,7.0,80.0
5660,66.0,0,192,8.0,80.0
5661,78.0,60,48,6.0,80.0
5662,81.0,0,48,6.0,80.0
5663,62.0,0,96,6.0,80.0
5664,66.0,0,96,6.0,80.0
5665,69.0,0,96,7.0,80.0
5666,62.0,0,96,10.0,80.0
5667,66.0,60,96,8.0,80.0
5668,74.0,60,48,6.0,80.0
5669,83.0,60,48,6.0,80.0
5670,71.0,0,96,7.0,80.0
5671,62.0,0,96,10.0,80.0
5672,67.0,0,96,8.0,80.0
5673,64.0,0,96,6.0,80.0
5674,67.0,0,96,6.0,80.0
5675,74.0,60,48,6.0,80.0
5676,81.0,0,48,6.0,80.0
5677,62.0,0,96,10.0,80.0
5678,69.0,0,96,7.0,80.0
5679,66.0,0,96,6.0,80.0
5680,66.0,0,96,8.0,80.0
5681,62.0,0,96,6.0,80.0
5682,74.0,60,48,6.0,80.0
5683,83.0,60,48,6.0,80.0
5684,50.0,60,192,11.0,80.0
5685,38.0,0,192,12.0,80.0
5686,71.0,0,96,7.0,80.0
5687,64.0,0,96,6.0,80.0
5688,67.0,0,96,6.0,80.0
5689,67.0,0,96,8.0,80.0
5690,62.0,0,96,10.0,80.0
5691,74.0,60,48,6.0,80.0
5692,81.0,60,48,6.0,80.0
5693,62.0,0,96,10.0,80.0
5694,69.0,0,96,7.0,80.0
5695,66.0,0,96,6.0,80.0
5696,62.0,0,96,6.0,80.0
5697,66.0,0,96,8.0,80.0
5698,74.0,60,48,6.0,80.0
5699,83.0,0,48,6.0,80.0
5700,67.0,0,96,8.0,80.0
5701,67.0,0,96,6.0,80.0
5702,71.0,60,96,7.0,80.0
5703,62.0,0,96,10.0,80.0
5704,64.0,0,96,6.0,80.0
5705,74.0,60,48,6.0,80.0
5706,81.0,0,48,6.0,80.0
5707,74.0,60,48,6.0,80.0
5708,78.0,60,48,6.0,80.0
5709,74.0,0,1632,1.0,80.0
5710,62.0,0,192,6.0,80.0
5711,38.0,0,192,12.0,80.0
5712,86.0,0,1632,0.0,80.0
5713,66.0,0,192,8.0,80.0
5714,62.0,60,192,10.0,80.0
5715,69.0,0,192,7.0,80.0
5716,50.0,0,192,11.0,80.0
5717,66.0,0,192,6.0,80.0
5718,81.0,60,48,6.0,80.0
5719,86.0,60,48,6.0,80.0
5720,85.0,60,48,6.0,80.0
5721,83.0,60,48,6.0,80.0
5722,81.0,60,48,6.0,80.0
5723,80.0,0,48,6.0,80.0
5724,64.0,0,96,10.0,80.0
5725,64.0,60,96,6.0,80.0
5726,62.0,0,96,6.0,80.0
5727,71.0,0,96,8.0,80.0
5728,68.0,0,96,8.0,80.0
5729,62.0,0,96,11.0,80.0
5730,71.0,60,48,6.0,80.0
5731,76.0,60,48,6.0,80.0
5732,64.0,0,192,7.0,80.0
5733,68.0,0,96,8.0,80.0
5734,64.0,0,96,10.0,80.0
5735,64.0,0,96,6.0,80.0
5736,62.0,0,96,6.0,80.0
5737,62.0,0,96,11.0,80.0
5738,71.0,0,96,8.0,80.0
5739,80.0,60,48,6.0,80.0
5740,81.0,0,24,7.0,80.0
5741,83.0,0,48,6.0,80.0
5742,80.0,30,24,7.0,80.0
5743,81.0,30,24,7.0,80.0
5744,68.0,0,96,8.0,80.0
5745,64.0,0,96,10.0,80.0
5746,71.0,60,96,8.0,80.0
5747,62.0,0,96,6.0,80.0
5748,64.0,0,96,6.0,80.0
5749,62.0,0,96,11.0,80.0
5750,80.0,0,48,6.0,80.0
5751,80.0,30,24,7.0,80.0
5752,81.0,0,24,7.0,80.0
5753,76.0,0,48,6.0,80.0
5754,80.0,30,24,7.0,80.0
5755,78.0,30,24,7.0,80.0
5756,64.0,0,96,6.0,80.0
5757,62.0,0,96,6.0,80.0
5758,64.0,0,96,10.0,80.0
5759,71.0,30,96,8.0,80.0
5760,62.0,0,96,11.0,80.0
5761,68.0,0,96,8.0,80.0
5762,71.0,0,48,6.0,80.0
5763,80.0,30,24,7.0,80.0
5764,81.0,0,48,6.0,80.0
5765,72.0,60,48,6.0,80.0
5766,76.0,60,48,6.0,80.0
5767,64.0,0,192,10.0,80.0
5768,60.0,0,192,6.0,80.0
5769,64.0,0,192,6.0,80.0
5770,60.0,0,192,11.0,80.0
5771,81.0,0,192,7.0,80.0
5772,69.0,30,192,8.0,80.0
5773,81.0,60,48,6.0,80.0
5774,84.0,60,48,6.0,80.0
5775,83.0,60,48,6.0,80.0
5776,81.0,60,48,6.0,80.0
5777,79.0,60,48,6.0,80.0
5778,78.0,0,48,6.0,80.0
5779,62.0,0,96,10.0,80.0
5780,66.0,0,96,8.0,80.0
5781,60.0,60,96,6.0,80.0
5782,62.0,0,96,6.0,80.0
5783,69.0,0,96,8.0,80.0
5784,60.0,0,96,11.0,80.0
5785,69.0,60,48,6.0,80.0
5786,74.0,0,48,6.0,80.0
5787,62.0,0,192,7.0,80.0
5788,62.0,0,96,10.0,80.0
5789,60.0,0,96,11.0,80.0
5790,60.0,0,96,6.0,80.0
5791,62.0,0,96,6.0,80.0
5792,69.0,0,96,8.0,80.0
5793,66.0,60,96,8.0,80.0
5794,78.0,60,48,6.0,80.0
5795,79.0,0,24,7.0,80.0
5796,81.0,0,48,6.0,80.0
5797,78.0,30,24,7.0,80.0
5798,79.0,30,24,7.0,80.0
5799,62.0,0,96,10.0,80.0
5800,66.0,0,96,8.0,80.0
5801,60.0,0,96,6.0,80.0
5802,60.0,0,96,11.0,80.0
5803,69.0,0,96,8.0,80.0
5804,62.0,60,96,6.0,80.0
5805,78.0,0,48,6.0,80.0
5806,78.0,30,24,7.0,80.0
5807,79.0,0,24,7.0,80.0
5808,74.0,0,48,6.0,80.0
5809,78.0,30,24,7.0,80.0
5810,76.0,0,24,7.0,80.0
5811,62.0,0,96,10.0,80.0
5812,62.0,30,96,6.0,80.0
5813,60.0,0,96,6.0,80.0
5814,66.0,0,96,8.0,80.0
5815,69.0,0,96,8.0,80.0
5816,60.0,0,96,11.0,80.0
5817,69.0,30,48,6.0,80.0
5818,78.0,30,24,7.0,80.0
5819,79.0,0,48,6.0,80.0
5820,71.0,60,48,6.0,80.0
5821,74.0,60,48,6.0,80.0
5822,79.0,0,192,7.0,80.0
5823,67.0,0,192,8.0,80.0
5824,62.0,0,192,10.0,80.0
5825,62.0,0,192,6.0,80.0
5826,59.0,30,192,6.0,80.0
5827,59.0,0,192,11.0,80.0
5828,79.0,60,48,6.0,80.0
5829,83.0,60,48,6.0,80.0
5830,81.0,60,48,6.0,80.0
5831,79.0,60,48,6.0,80.0
5832,78.0,60,48,6.0,80.0
5833,77.0,0,48,6.0,80.0
5834,59.0,0,96,11.0,80.0
5835,68.0,0,96,8.0,80.0
5836,61.0,60,96,6.0,80.0
5837,65.0,0,96,10.0,80.0
5838,61.0,0,96,10.0,80.0
5839,59.0,0,96,6.0,80.0
5840,68.0,60,48,6.0,80.0
5841,73.0,0,48,6.0,80.0
5842,61.0,0,192,7.0,80.0
5843,68.0,0,96,8.0,80.0
5844,61.0,0,96,6.0,80.0
5845,59.0,0,96,6.0,80.0
5846,59.0,0,96,11.0,80.0
5847,65.0,0,96,10.0,80.0
5848,61.0,60,96,10.0,80.0
5849,77.0,60,48,6.0,80.0
5850,78.0,0,24,7.0,80.0
5851,80.0,0,48,6.0,80.0
5852,77.0,30,24,7.0,80.0
5853,78.0,30,24,7.0,80.0
5854,68.0,0,96,8.0,80.0
5855,59.0,0,96,11.0,80.0
5856,61.0,0,96,6.0,80.0
5857,65.0,0,96,10.0,80.0
5858,61.0,0,96,10.0,80.0
5859,59.0,60,96,6.0,80.0
5860,77.0,0,48,6.0,80.0
5861,77.0,30,24,7.0,80.0
5862,78.0,0,24,7.0,80.0
5863,73.0,0,48,6.0,80.0
5864,77.0,30,24,7.0,80.0
5865,75.0,0,24,7.0,80.0
5866,61.0,0,96,10.0,80.0
5867,68.0,0,96,8.0,80.0
5868,61.0,0,96,6.0,80.0
5869,59.0,0,96,11.0,80.0
5870,59.0,0,96,6.0,80.0
5871,65.0,30,96,10.0,80.0
5872,68.0,30,48,6.0,80.0
5873,77.0,30,24,7.0,80.0
5874,78.0,0,48,6.0,80.0
5875,69.0,60,48,6.0,80.0
5876,74.0,60,48,6.0,80.0
5877,78.0,0,192,7.0,80.0
5878,61.0,0,192,6.0,80.0
5879,69.0,0,192,8.0,80.0
5880,57.0,30,192,11.0,80.0
5881,57.0,0,192,6.0,80.0
5882,66.0,0,192,10.0,80.0
5883,61.0,0,192,10.0,80.0
5884,78.0,60,48,6.0,80.0
5885,81.0,60,48,6.0,80.0
5886,79.0,60,48,6.0,80.0
5887,78.0,60,48,6.0,80.0
5888,76.0,60,48,6.0,80.0
5889,75.0,60,48,6.0,80.0
5890,57.0,0,96,11.0,80.0
5891,66.0,0,96,8.0,80.0
5892,59.0,0,96,10.0,80.0
5893,59.0,0,96,6.0,80.0
5894,63.0,0,96,10.0,80.0
5895,57.0,0,96,6.0,80.0
5896,66.0,60,48,6.0,80.0
5897,71.0,0,48,6.0,80.0
5898,59.0,0,192,7.0,80.0
5899,57.0,0,96,11.0,80.0
5900,63.0,0,96,10.0,80.0
5901,57.0,60,96,6.0,80.0
5902,59.0,0,96,6.0,80.0
5903,66.0,0,96,8.0,80.0
5904,59.0,0,96,10.0,80.0
5905,75.0,60,48,6.0,80.0
5906,76.0,0,24,7.0,80.0
5907,78.0,0,48,6.0,80.0
5908,75.0,30,24,7.0,80.0
5909,76.0,0,24,7.0,80.0
5910,66.0,0,96,8.0,80.0
5911,57.0,0,96,11.0,80.0
5912,57.0,0,96,6.0,80.0
5913,59.0,0,96,6.0,80.0
5914,59.0,60,96,10.0,80.0
5915,63.0,0,96,10.0,80.0
5916,75.0,30,48,6.0,80.0
5917,75.0,30,24,7.0,80.0
5918,76.0,0,24,7.0,80.0
5919,71.0,0,48,6.0,80.0
5920,75.0,30,24,7.0,80.0
5921,73.0,30,24,7.0,80.0
5922,63.0,0,96,10.0,80.0
5923,59.0,0,96,6.0,80.0
5924,66.0,30,96,8.0,80.0
5925,57.0,0,96,11.0,80.0
5926,57.0,0,96,6.0,80.0
5927,59.0,0,96,10.0,80.0
5928,66.0,0,48,6.0,80.0
5929,75.0,30,24,7.0,80.0
5930,76.0,0,48,6.0,80.0
5931,67.0,60,48,6.0,80.0
5932,71.0,60,48,6.0,80.0
5933,55.0,0,192,6.0,80.0
5934,59.0,30,192,6.0,80.0
5935,76.0,0,192,7.0,80.0
5936,55.0,0,192,11.0,80.0
5937,64.0,0,192,10.0,80.0
5938,59.0,0,192,10.0,80.0
5939,67.0,0,192,8.0,80.0
5940,76.0,60,48,6.0,80.0
5941,79.0,60,48,6.0,80.0
5942,78.0,60,48,6.0,80.0
5943,76.0,60,48,6.0,80.0
5944,74.0,60,48,6.0,80.0
5945,73.0,0,48,6.0,80.0
5946,61.0,0,96,10.0,80.0
5947,55.0,0,96,11.0,80.0
5948,64.0,0,96,8.0,80.0
5949,57.0,0,96,6.0,80.0
5950,55.0,60,96,6.0,80.0
5951,57.0,0,96,10.0,80.0
5952,64.0,60,48,6.0,80.0
5953,69.0,0,48,6.0,80.0
5954,57.0,0,192,7.0,80.0
5955,55.0,0,96,6.0,80.0
5956,57.0,0,96,6.0,80.0
5957,64.0,60,96,8.0,80.0
5958,61.0,0,96,10.0,80.0
5959,57.0,0,96,10.0,80.0
5960,55.0,0,96,11.0,80.0
5961,73.0,60,48,6.0,80.0
5962,74.0,0,24,7.0,80.0
5963,76.0,0,48,6.0,80.0
5964,73.0,30,24,7.0,80.0
5965,74.0,30,24,7.0,80.0
5966,57.0,60,96,6.0,80.0
5967,55.0,0,96,6.0,80.0
5968,64.0,0,96,8.0,80.0
5969,57.0,0,96,10.0,80.0
5970,61.0,0,96,10.0,80.0
5971,55.0,0,96,11.0,80.0
5972,73.0,0,48,6.0,80.0
5973,73.0,30,24,7.0,80.0
5974,74.0,30,24,7.0,80.0
5975,69.0,0,48,6.0,80.0
5976,73.0,30,24,7.0,80.0
5977,71.0,30,24,7.0,80.0
5978,57.0,0,96,10.0,80.0
5979,61.0,0,96,10.0,80.0
5980,55.0,0,96,11.0,80.0
5981,55.0,0,96,6.0,80.0
5982,57.0,0,96,6.0,80.0
5983,64.0,0,96,8.0,80.0
5984,64.0,0,48,6.0,80.0
5985,73.0,30,24,7.0,80.0
5986,74.0,0,48,6.0,80.0
5987,69.0,60,48,6.0,80.0
5988,78.0,60,48,6.0,80.0
5989,62.0,0,192,8.0,80.0
5990,57.0,0,192,6.0,80.0
5991,57.0,30,192,10.0,80.0
5992,62.0,0,192,10.0,80.0
5993,74.0,60,48,6.0,80.0
5994,81.0,0,48,6.0,80.0
5995,78.0,60,48,6.0,80.0
5996,54.0,0,384,11.0,80.0
5997,54.0,0,384,6.0,80.0
5998,86.0,60,48,6.0,80.0
5999,69.0,0,192,8.0,80.0
6000,66.0,60,192,10.0,80.0
6001,81.0,60,48,6.0,80.0
6002,83.0,0,48,6.0,80.0
6003,84.0,60,48,6.0,80.0
6004,83.0,60,48,6.0,80.0
6005,62.0,0,432,6.0,80.0
6006,81.0,60,48,6.0,80.0
6007,55.0,60,288,11.0,80.0
6008,55.0,0,288,6.0,80.0
6009,79.0,60,48,6.0,80.0
6010,78.0,60,48,6.0,80.0
6011,64.0,0,384,10.0,80.0
6012,74.0,0,864,7.0,80.0
6013,71.0,0,384,8.0,80.0
6014,76.0,0,48,6.0,80.0
6015,64.0,0,192,6.0,80.0
6016,56.0,60,96,11.0,80.0
6017,56.0,0,96,6.0,80.0
6018,74.0,60,48,6.0,80.0
6019,73.0,0,48,6.0,80.0
6020,69.0,60,48,6.0,80.0
6021,73.0,60,48,6.0,80.0
6022,64.0,0,192,10.0,80.0
6023,57.0,60,192,11.0,80.0
6024,57.0,0,192,6.0,80.0
6025,73.0,0,192,7.0,80.0
6026,64.0,0,192,6.0,80.0
6027,69.0,0,192,8.0,80.0
6028,76.0,60,48,6.0,80.0
6029,79.0,0,48,6.0,80.0
6030,57.0,60,96,6.0,80.0
6031,61.0,0,96,6.0,80.0
6032,76.0,60,48,6.0,80.0
6033,78.0,60,48,6.0,80.0
6034,62.0,0,96,6.0,80.0
6035,57.0,0,96,6.0,80.0
6036,74.0,60,48,6.0,80.0
6037,73.0,60,48,6.0,80.0
6038,69.0,60,48,6.0,80.0
6039,73.0,60,48,6.0,80.0
6040,64.0,0,192,6.0,80.0
6041,57.0,0,192,6.0,80.0
6042,76.0,60,48,6.0,80.0
6043,79.0,60,48,6.0,80.0
6044,57.0,0,96,6.0,80.0
6045,61.0,0,96,6.0,80.0
6046,76.0,60,48,6.0,80.0
6047,78.0,0,48,6.0,80.0
6048,62.0,0,96,6.0,80.0
6049,57.0,60,96,6.0,80.0
6050,74.0,60,48,6.0,80.0
6051,61.0,0,48,8.0,80.0
6052,73.0,0,48,1.0,80.0
6053,61.0,0,48,7.0,80.0
6054,73.0,0,48,0.0,80.0
6055,57.0,0,96,10.0,80.0
6056,45.0,0,96,2.0,80.0
6057,33.0,60,96,12.0,80.0
6058,45.0,0,96,11.0,80.0
6059,69.0,60,48,1.0,80.0
6060,57.0,0,48,7.0,80.0
6061,69.0,0,48,0.0,80.0
6062,57.0,0,48,8.0,80.0
6063,61.0,0,48,10.0,80.0
6064,61.0,0,48,7.0,80.0
6065,49.0,0,48,11.0,80.0
6066,61.0,0,48,8.0,80.0
6067,49.0,0,48,2.0,80.0
6068,73.0,0,48,1.0,80.0
6069,73.0,0,48,0.0,80.0
6070,37.0,60,48,12.0,80.0
6071,61.0,0,192,6.0,80.0
6072,57.0,0,192,6.0,80.0
6073,69.0,0,192,4.0,80.0
6074,45.0,0,192,5.0,80.0
6075,81.0,0,192,6.0,80.0
6076,57.0,0,192,4.0,80.0
6077,52.0,0,48,11.0,80.0
6078,64.0,60,48,7.0,80.0
6079,40.0,0,48,12.0,80.0
6080,76.0,0,48,1.0,80.0
6081,52.0,0,48,2.0,80.0
6082,76.0,0,48,0.0,80.0
6083,64.0,0,48,8.0,80.0
6084,64.0,0,48,10.0,80.0
6085,79.0,0,48,0.0,80.0
6086,79.0,0,48,1.0,80.0
6087,55.0,0,48,2.0,80.0
6088,67.0,60,48,8.0,80.0
6089,55.0,0,48,11.0,80.0
6090,43.0,0,48,12.0,80.0
6091,67.0,0,48,10.0,80.0
6092,67.0,0,48,7.0,80.0
6093,64.0,0,48,7.0,80.0
6094,52.0,0,48,11.0,80.0
6095,76.0,60,48,1.0,80.0
6096,52.0,0,48,2.0,80.0
6097,64.0,0,48,10.0,80.0
6098,64.0,0,48,8.0,80.0
6099,76.0,0,48,0.0,80.0
6100,40.0,0,48,12.0,80.0
6101,78.0,0,48,1.0,80.0
6102,78.0,0,48,0.0,80.0
6103,66.0,0,48,8.0,80.0
6104,54.0,60,48,2.0,80.0
6105,54.0,0,48,11.0,80.0
6106,66.0,0,48,10.0,80.0
6107,42.0,0,48,12.0,80.0
6108,66.0,0,48,7.0,80.0
6109,74.0,0,48,0.0,80.0
6110,62.0,0,48,10.0,80.0
6111,50.0,0,48,2.0,80.0
6112,50.0,60,48,11.0,80.0
6113,62.0,0,48,7.0,80.0
6114,74.0,0,48,1.0,80.0
6115,62.0,0,48,8.0,80.0
6116,38.0,0,48,12.0,80.0
6117,37.0,0,48,12.0,80.0
6118,61.0,0,48,10.0,80.0
6119,61.0,0,48,7.0,80.0
6120,49.0,0,48,11.0,80.0
6121,61.0,0,48,8.0,80.0
6122,49.0,0,48,2.0,80.0
6123,73.0,0,48,0.0,80.0
6124,73.0,60,48,1.0,80.0
6125,45.0,0,48,11.0,80.0
6126,33.0,0,48,12.0,80.0
6127,69.0,0,48,1.0,80.0
6128,45.0,0,48,2.0,80.0
6129,57.0,0,48,10.0,80.0
6130,57.0,0,48,7.0,80.0
6131,57.0,0,48,8.0,80.0
6132,69.0,60,48,0.0,80.0
6133,73.0,60,48,0.0,80.0
6134,37.0,0,48,12.0,80.0
6135,73.0,0,48,1.0,80.0
6136,61.0,0,48,7.0,80.0
6137,49.0,0,48,2.0,80.0
6138,49.0,0,48,11.0,80.0
6139,61.0,0,48,10.0,80.0
6140,61.0,0,48,8.0,80.0
6141,57.0,0,192,4.0,80.0
6142,45.0,0,192,5.0,80.0
6143,69.0,0,192,4.0,80.0
6144,64.0,0,48,7.0,80.0
6145,52.0,0,48,2.0,80.0
6146,64.0,0,48,10.0,80.0
6147,52.0,0,48,11.0,80.0
6148,76.0,0,48,0.0,80.0
6149,40.0,0,48,12.0,80.0
6150,76.0,60,48,1.0,80.0
6151,64.0,0,48,8.0,80.0
6152,55.0,0,48,2.0,80.0
6153,55.0,0,48,11.0,80.0
6154,67.0,60,48,7.0,80.0
6155,79.0,0,48,1.0,80.0
6156,43.0,0,48,12.0,80.0
6157,79.0,0,48,0.0,80.0
6158,67.0,0,48,8.0,80.0
6159,67.0,0,48,10.0,80.0
6160,52.0,0,48,11.0,80.0
6161,40.0,0,48,12.0,80.0
6162,52.0,0,48,2.0,80.0
6163,76.0,60,48,1.0,80.0
6164,76.0,0,48,0.0,80.0
6165,64.0,0,48,8.0,80.0
6166,64.0,0,48,10.0,80.0
6167,64.0,0,48,7.0,80.0
6168,45.0,0,864,3.0,80.0
6169,57.0,0,864,3.0,80.0
6170,66.0,0,48,8.0,80.0
6171,78.0,0,48,1.0,80.0
6172,54.0,60,48,2.0,80.0
6173,66.0,0,48,7.0,80.0
6174,42.0,0,48,12.0,80.0
6175,78.0,0,48,0.0,80.0
6176,66.0,0,48,10.0,80.0
6177,54.0,0,48,11.0,80.0
6178,74.0,0,48,1.0,80.0
6179,62.0,0,48,7.0,80.0
6180,38.0,0,48,12.0,80.0
6181,50.0,0,48,11.0,80.0
6182,74.0,60,48,0.0,80.0
6183,50.0,0,48,2.0,80.0
6184,62.0,0,48,10.0,80.0
6185,62.0,0,48,8.0,80.0
6186,57.0,60,48,6.0,80.0
6187,59.0,60,48,6.0,80.0
6188,57.0,0,192,4.0,80.0
6189,81.0,0,192,1.0,80.0
6190,69.0,0,192,7.0,80.0
6191,57.0,0,192,11.0,80.0
6192,57.0,0,192,3.0,80.0
6193,69.0,0,192,4.0,80.0
6194,69.0,0,192,10.0,80.0
6195,69.0,0,192,8.0,80.0
6196,45.0,0,192,3.0,80.0
6197,57.0,60,192,2.0,80.0
6198,45.0,0,192,12.0,80.0
6199,33.0,0,192,6.0,80.0
6200,81.0,0,192,0.0,80.0
6201,45.0,0,192,5.0,80.0
6202,45.0,0,192,6.0,80.0
6203,61.0,60,48,6.0,80.0
6204,62.0,60,48,6.0,80.0
6205,64.0,60,48,6.0,80.0
6206,66.0,60,48,6.0,80.0
6207,68.0,60,48,6.0,80.0
6208,69.0,60,48,6.0,80.0
6209,69.0,60,48,6.0,80.0
6210,71.0,60,48,6.0,80.0
6211,73.0,60,48,6.0,80.0
6212,74.0,60,48,6.0,80.0
6213,76.0,60,48,6.0,80.0
6214,78.0,60,48,6.0,80.0
6215,80.0,60,48,6.0,80.0
6216,78.0,0,96,8.0,80.0
6217,74.0,0,96,10.0,80.0
6218,81.0,0,192,6.0,80.0
6219,78.0,120,96,8.0,80.0
6220,74.0,0,96,10.0,80.0
6221,81.0,60,288,7.0,80.0
6222,74.0,120,96,10.0,80.0
6223,78.0,0,96,8.0,80.0
6224,86.0,120,96,7.0,80.0
6225,74.0,0,96,10.0,80.0
6226,78.0,0,96,8.0,80.0
6227,76.0,0,96,10.0,80.0
6228,81.0,0,96,8.0,80.0
6229,85.0,120,96,7.0,80.0
6230,81.0,120,96,8.0,80.0
6231,76.0,0,96,10.0,80.0
6232,85.0,0,96,7.0,80.0
6233,85.0,0,96,7.0,80.0
6234,81.0,120,96,8.0,80.0
6235,76.0,0,96,10.0,80.0
6236,85.0,0,48,7.0,80.0
6237,81.0,120,96,8.0,80.0
6238,76.0,0,96,10.0,80.0
6239,86.0,60,48,7.0,80.0
6240,74.0,0,96,10.0,80.0
6241,83.0,60,96,7.0,80.0
6242,80.0,0,96,8.0,80.0
6243,64.0,0,96,10.0,80.0
6244,74.0,120,96,10.0,80.0
6245,83.0,0,96,7.0,80.0
6246,64.0,0,96,10.0,80.0
6247,80.0,0,96,8.0,80.0
6248,83.0,0,96,7.0,80.0
6249,74.0,120,96,10.0,80.0
6250,80.0,0,96,8.0,80.0
6251,64.0,0,96,10.0,80.0
6252,83.0,120,48,7.0,80.0
6253,74.0,0,96,10.0,80.0
6254,64.0,0,96,10.0,80.0
6255,80.0,0,96,8.0,80.0
6256,85.0,60,48,7.0,80.0
6257,73.0,60,192,10.0,80.0
6258,81.0,0,192,7.0,80.0
6259,69.0,0,192,10.0,80.0
6260,81.0,0,192,8.0,80.0
6261,67.0,0,96,8.0,80.0
6262,59.0,0,96,11.0,80.0
6263,62.0,480,96,10.0,80.0
6264,62.0,0,96,10.0,80.0
6265,67.0,120,96,8.0,80.0
6266,59.0,0,96,11.0,80.0
6267,74.0,0,288,7.0,80.0
6268,62.0,0,96,10.0,80.0
6269,59.0,0,96,11.0,80.0
6270,67.0,120,96,8.0,80.0
6271,59.0,0,96,11.0,80.0
6272,79.0,120,96,7.0,80.0
6273,62.0,0,96,10.0,80.0
6274,67.0,0,96,8.0,80.0
6275,69.0,0,96,10.0,80.0
6276,78.0,120,96,7.0,80.0
6277,74.0,0,96,8.0,80.0
6278,57.0,0,96,11.0,80.0
6279,78.0,0,96,7.0,80.0
6280,74.0,0,96,8.0,80.0
6281,57.0,0,96,11.0,80.0
6282,69.0,120,96,10.0,80.0
6283,57.0,0,96,11.0,80.0
6284,74.0,0,96,8.0,80.0
6285,78.0,0,96,7.0,80.0
6286,69.0,120,96,10.0,80.0
6287,78.0,0,48,7.0,80.0
6288,69.0,0,96,10.0,80.0
6289,57.0,0,96,11.0,80.0
6290,74.0,120,96,8.0,80.0
6291,79.0,60,48,7.0,80.0
6292,67.0,0,96,10.0,80.0
6293,76.0,0,96,7.0,80.0
6294,73.0,0,96,8.0,80.0
6295,45.0,60,96,11.0,80.0
6296,73.0,0,96,8.0,80.0
6297,45.0,0,96,11.0,80.0
6298,67.0,0,96,10.0,80.0
6299,76.0,120,96,7.0,80.0
6300,73.0,120,96,8.0,80.0
6301,45.0,0,96,11.0,80.0
6302,67.0,0,96,10.0,80.0
6303,76.0,0,96,7.0,80.0
6304,76.0,0,48,7.0,80.0
6305,45.0,120,96,11.0,80.0
6306,67.0,0,96,10.0,80.0
6307,73.0,0,96,8.0,80.0
6308,78.0,60,48,7.0,80.0
6309,74.0,0,64,6.0,80.0
6310,76.0,80,64,6.0,80.0
6311,50.0,0,192,11.0,80.0
6312,74.0,0,192,7.0,80.0
6313,74.0,0,192,8.0,80.0
6314,66.0,60,192,10.0,80.0
6315,77.0,80,64,6.0,80.0
6316,78.0,80,64,6.0,80.0
6317,79.0,80,64,6.0,80.0
6318,80.0,80,64,6.0,80.0
6319,66.0,0,96,6.0,80.0
6320,69.0,80,96,6.0,80.0
6321,66.0,0,96,6.0,80.0
6322,69.0,120,96,6.0,80.0
6323,81.0,0,288,6.0,80.0
6324,69.0,0,96,6.0,80.0
6325,66.0,120,96,6.0,80.0
6326,86.0,0,96,6.0,80.0
6327,66.0,120,96,6.0,80.0
6328,69.0,0,96,6.0,80.0
6329,85.0,0,96,6.0,80.0
6330,64.0,120,192,6.0,80.0
6331,69.0,0,192,6.0,80.0
6332,85.0,120,96,6.0,80.0
6333,85.0,120,96,6.0,80.0
6334,85.0,120,48,6.0,80.0
6335,86.0,60,48,6.0,80.0
6336,83.0,0,96,6.0,80.0
6337,74.0,0,192,6.0,80.0
6338,68.0,60,192,6.0,80.0
6339,64.0,0,192,6.0,80.0
6340,83.0,120,96,6.0,80.0
6341,83.0,120,96,6.0,80.0
6342,83.0,120,48,6.0,80.0
6343,85.0,60,48,6.0,80.0
6344,81.0,60,64,6.0,80.0
6345,80.0,80,64,6.0,80.0
6346,69.0,0,192,6.0,80.0
6347,73.0,0,192,6.0,80.0
6348,79.0,80,64,6.0,80.0
6349,78.0,80,64,6.0,80.0
6350,77.0,80,64,6.0,80.0
6351,76.0,80,64,6.0,80.0
6352,59.0,0,96,6.0,80.0
6353,62.0,80,96,6.0,80.0
6354,62.0,120,96,6.0,80.0
6355,59.0,0,96,6.0,80.0
6356,62.0,0,288,2.0,80.0
6357,74.0,0,288,6.0,80.0
6358,59.0,120,96,6.0,80.0
6359,62.0,0,96,6.0,80.0
6360,67.0,0,96,2.0,80.0
6361,62.0,120,96,6.0,80.0
6362,59.0,0,96,6.0,80.0
6363,79.0,0,96,6.0,80.0
6364,66.0,0,96,2.0,80.0
6365,78.0,0,96,6.0,80.0
6366,57.0,120,192,6.0,80.0
6367,62.0,0,192,6.0,80.0
6368,66.0,120,96,2.0,80.0
6369,78.0,0,96,6.0,80.0
6370,66.0,120,96,2.0,80.0
6371,78.0,0,96,6.0,80.0
6372,66.0,0,48,2.0,80.0
6373,78.0,120,48,6.0,80.0
6374,79.0,0,48,6.0,80.0
6375,67.0,60,48,2.0,80.0
6376,64.0,0,96,2.0,80.0
6377,76.0,0,96,6.0,80.0
6378,67.0,60,192,6.0,80.0
6379,61.0,0,192,6.0,80.0
6380,57.0,0,192,6.0,80.0
6381,64.0,0,96,2.0,80.0
6382,76.0,120,96,6.0,80.0
6383,64.0,120,96,2.0,80.0
6384,76.0,0,96,6.0,80.0
6385,76.0,120,48,6.0,80.0
6386,64.0,0,48,2.0,80.0
6387,66.0,60,48,2.0,80.0
6388,78.0,0,48,6.0,80.0
6389,62.0,0,192,2.0,80.0
6390,66.0,0,192,6.0,80.0
6391,62.0,60,192,6.0,80.0
6392,74.0,0,192,6.0,80.0
6393,62.0,240,48,6.0,80.0
6394,66.0,60,48,6.0,80.0
6395,69.0,60,48,6.0,80.0
6396,74.0,60,48,6.0,80.0
6397,64.0,60,48,6.0,80.0
6398,74.0,0,96,0.0,80.0
6399,62.0,0,96,7.0,80.0
6400,69.0,60,48,6.0,80.0
6401,74.0,60,48,6.0,80.0
6402,57.0,0,192,8.0,80.0
6403,52.0,0,192,10.0,80.0
6404,45.0,0,192,12.0,80.0
6405,45.0,0,192,6.0,80.0
6406,57.0,0,192,6.0,80.0
6407,57.0,0,192,11.0,80.0
6408,61.0,0,96,7.0,80.0
6409,73.0,0,96,0.0,80.0
6410,73.0,60,48,6.0,80.0
6411,64.0,60,48,6.0,80.0
6412,69.0,60,48,6.0,80.0
6413,73.0,60,48,6.0,80.0
6414,76.0,60,48,6.0,80.0
6415,66.0,0,48,6.0,80.0
6416,64.0,0,96,7.0,80.0
6417,76.0,0,96,0.0,80.0
6418,69.0,60,48,6.0,80.0
6419,76.0,60,48,6.0,80.0
6420,38.0,0,192,12.0,80.0
6421,54.0,0,192,10.0,80.0
6422,50.0,0,192,11.0,80.0
6423,38.0,60,192,6.0,80.0
6424,50.0,0,192,6.0,80.0
6425,57.0,0,192,8.0,80.0
6426,74.0,0,96,0.0,80.0
6427,62.0,0,96,7.0,80.0
6428,74.0,60,48,6.0,80.0
6429,66.0,60,48,6.0,80.0
6430,69.0,60,48,6.0,80.0
6431,74.0,60,48,6.0,80.0
6432,78.0,60,48,6.0,80.0
6433,69.0,0,48,6.0,80.0
6434,66.0,0,96,7.0,80.0
6435,78.0,0,96,0.0,80.0
6436,73.0,60,48,6.0,80.0
6437,78.0,0,48,6.0,80.0
6438,45.0,0,192,6.0,80.0
6439,45.0,0,192,11.0,80.0
6440,33.0,0,192,6.0,80.0
6441,61.0,60,192,8.0,80.0
6442,33.0,0,192,12.0,80.0
6443,57.0,0,192,10.0,80.0
6444,64.0,60,96,7.0,80.0
6445,76.0,0,96,0.0,80.0
6446,76.0,60,48,6.0,80.0
6447,69.0,60,48,6.0,80.0
6448,73.0,60,48,6.0,80.0
6449,76.0,60,48,6.0,80.0
6450,79.0,60,48,6.0,80.0
6451,69.0,60,48,6.0,80.0
6452,67.0,0,96,7.0,80.0
6453,79.0,0,96,0.0,80.0
6454,74.0,60,48,6.0,80.0
6455,79.0,60,48,6.0,80.0
6456,50.0,0,192,11.0,80.0
6457,62.0,0,192,8.0,80.0
6458,38.0,0,192,12.0,80.0
6459,38.0,0,192,6.0,80.0
6460,50.0,0,192,6.0,80.0
6461,57.0,0,192,10.0,80.0
6462,66.0,0,96,7.0,80.0
6463,78.0,0,96,0.0,80.0
6464,78.0,60,48,6.0,80.0
6465,38.0,60,48,6.0,80.0
6466,42.0,60,48,6.0,80.0
6467,45.0,0,48,6.0,80.0
6468,54.0,60,96,6.0,80.0
6469,50.0,60,48,6.0,80.0
6470,40.0,0,48,6.0,80.0
6471,55.0,60,96,6.0,80.0
6472,52.0,60,48,6.0,80.0
6473,42.0,60,48,6.0,80.0
6474,57.0,0,96,6.0,80.0
6475,54.0,60,48,6.0,80.0
6476,43.0,0,48,6.0,80.0
6477,59.0,60,96,6.0,80.0
6478,55.0,60,48,6.0,80.0
6479,45.0,0,48,6.0,80.0
6480,61.0,60,96,6.0,80.0
6481,57.0,60,48,6.0,80.0
6482,47.0,60,48,6.0,80.0
6483,62.0,0,96,6.0,80.0
6484,59.0,60,48,6.0,80.0
6485,49.0,0,48,6.0,80.0
6486,64.0,60,96,6.0,80.0
6487,61.0,60,48,6.0,80.0
6488,66.0,60,96,6.0,80.0
6489,50.0,0,96,6.0,80.0
6490,57.0,0,48,6.0,80.0
6491,57.0,0,96,8.0,80.0
6492,54.0,120,96,6.0,80.0
6493,69.0,0,96,7.0,80.0
6494,54.0,0,96,10.0,80.0
6495,69.0,60,48,6.0,80.0
6496,59.0,0,48,6.0,80.0
6497,71.0,0,96,7.0,80.0
6498,55.0,0,96,6.0,80.0
6499,59.0,60,96,8.0,80.0
6500,55.0,0,96,10.0,80.0
6501,71.0,60,48,6.0,80.0
6502,61.0,0,48,6.0,80.0
6503,61.0,0,96,8.0,80.0
6504,57.0,0,96,6.0,80.0
6505,57.0,0,96,10.0,80.0
6506,73.0,60,96,7.0,80.0
6507,73.0,60,48,6.0,80.0
6508,62.0,60,48,6.0,80.0
6509,59.0,0,96,6.0,80.0
6510,62.0,0,96,8.0,80.0
6511,59.0,0,96,10.0,80.0
6512,74.0,0,96,7.0,80.0
6513,74.0,60,48,6.0,80.0
6514,64.0,0,48,6.0,80.0
6515,61.0,0,96,6.0,80.0
6516,64.0,60,96,8.0,80.0
6517,76.0,0,96,7.0,80.0
6518,61.0,0,96,10.0,80.0
6519,76.0,60,48,6.0,80.0
6520,66.0,0,48,6.0,80.0
6521,62.0,0,96,10.0,80.0
6522,78.0,60,96,7.0,80.0
6523,62.0,0,96,6.0,80.0
6524,66.0,0,96,8.0,80.0
6525,78.0,60,48,6.0,80.0
6526,67.0,0,48,6.0,80.0
6527,64.0,60,96,10.0,80.0
6528,64.0,0,96,6.0,80.0
6529,67.0,0,96,8.0,80.0
6530,79.0,0,96,7.0,80.0
6531,79.0,60,48,6.0,80.0
6532,69.0,0,48,6.0,80.0
6533,74.0,60,48,6.0,80.0
6534,81.0,60,48,6.0,80.0
6535,69.0,0,192,8.0,80.0
6536,66.0,0,192,6.0,80.0
6537,54.0,0,192,6.0,80.0
6538,66.0,0,192,10.0,80.0
6539,74.0,60,48,6.0,80.0
6540,71.0,0,48,6.0,80.0
6541,74.0,60,48,6.0,80.0
6542,81.0,60,48,6.0,80.0
6543,67.0,0,192,6.0,80.0
6544,55.0,0,192,6.0,80.0
6545,67.0,60,192,10.0,80.0
6546,81.0,60,432,7.0,80.0
6547,74.0,60,48,6.0,80.0
6548,71.0,0,48,6.0,80.0
6549,76.0,60,48,6.0,80.0
6550,71.0,0,384,8.0,80.0
6551,79.0,60,48,6.0,80.0
6552,64.0,0,192,6.0,80.0
6553,64.0,60,192,10.0,80.0
6554,52.0,0,192,6.0,80.0
6555,76.0,60,48,6.0,80.0
6556,69.0,0,48,6.0,80.0
6557,76.0,60,48,6.0,80.0
6558,79.0,60,48,6.0,80.0
6559,79.0,0,432,7.0,80.0
6560,61.0,0,192,6.0,80.0
6561,49.0,0,192,6.0,80.0
6562,61.0,0,192,10.0,80.0
6563,76.0,60,48,6.0,80.0
6564,69.0,0,48,6.0,80.0
6565,74.0,60,48,6.0,80.0
6566,69.0,60,384,8.0,80.0
6567,78.0,60,48,6.0,80.0
6568,78.0,0,192,7.0,80.0
6569,62.0,0,192,6.0,80.0
6570,62.0,0,192,10.0,80.0
6571,50.0,60,192,6.0,80.0
6572,74.0,60,48,6.0,80.0
6573,67.0,60,48,6.0,80.0
6574,71.0,60,48,6.0,80.0
6575,76.0,60,48,6.0,80.0
6576,67.0,0,192,8.0,80.0
6577,55.0,0,192,10.0,80.0
6578,43.0,0,192,6.0,80.0
6579,55.0,0,192,6.0,80.0
6580,76.0,0,192,7.0,80.0
6581,71.0,60,48,6.0,80.0
6582,64.0,0,48,6.0,80.0
6583,67.0,60,48,6.0,80.0
6584,73.0,60,48,6.0,80.0
6585,45.0,0,192,6.0,80.0
6586,57.0,0,192,6.0,80.0
6587,73.0,0,192,7.0,80.0
6588,64.0,0,192,8.0,80.0
6589,57.0,60,192,10.0,80.0
6590,67.0,60,48,6.0,80.0
6591,66.0,0,48,6.0,80.0
6592,69.0,60,48,6.0,80.0
6593,74.0,60,48,6.0,80.0
6594,50.0,0,192,6.0,80.0
6595,62.0,60,192,8.0,80.0
6596,50.0,0,192,10.0,80.0
6597,78.0,60,48,6.0,80.0
6598,42.0,0,48,6.0,80.0
6599,81.0,0,48,6.0,80.0
6600,54.0,0,48,6.0,80.0
6601,69.0,60,48,6.0,80.0
6602,53.0,0,48,6.0,80.0
6603,68.0,60,48,6.0,80.0
6604,69.0,0,192,8.0,80.0
6605,42.0,60,192,12.0,80.0
6606,54.0,0,192,11.0,80.0
6607,54.0,0,48,6.0,80.0
6608,69.0,60,48,6.0,80.0
6609,43.0,0,48,6.0,80.0
6610,81.0,0,48,6.0,80.0
6611,71.0,60,48,6.0,80.0
6612,55.0,0,48,6.0,80.0
6613,70.0,60,48,6.0,80.0
6614,54.0,0,48,6.0,80.0
6615,43.0,0,192,12.0,80.0
6616,69.0,0,432,10.0,80.0
6617,81.0,0,432,1.0,80.0
6618,55.0,0,192,11.0,80.0
6619,74.0,0,672,7.0,80.0
6620,71.0,0,48,6.0,80.0
6621,55.0,60,48,6.0,80.0
6622,79.0,0,48,6.0,80.0
6623,40.0,60,48,6.0,80.0
6624,52.0,0,48,6.0,80.0
6625,71.0,60,48,6.0,80.0
6626,71.0,0,384,8.0,80.0
6627,83.0,60,384,0.0,80.0
6628,51.0,60,48,6.0,80.0
6629,79.0,0,48,6.0,80.0
6630,52.0,0,192,11.0,80.0
6631,40.0,0,192,12.0,80.0
6632,71.0,60,48,6.0,80.0
6633,52.0,0,48,6.0,80.0
6634,42.0,0,48,6.0,80.0
6635,79.0,0,48,6.0,80.0
6636,70.0,0,48,6.0,80.0
6637,54.0,60,48,6.0,80.0
6638,53.0,60,48,6.0,80.0
6639,68.0,0,48,6.0,80.0
6640,82.0,60,192,0.0,80.0
6641,70.0,0,192,8.0,80.0
6642,73.0,0,432,7.0,80.0
6643,54.0,0,192,11.0,80.0
6644,67.0,0,432,10.0,80.0
6645,79.0,0,432,1.0,80.0
6646,42.0,0,192,12.0,80.0
6647,54.0,60,48,6.0,80.0
6648,70.0,0,48,6.0,80.0
6649,78.0,0,48,6.0,80.0
6650,39.0,0,48,6.0,80.0
6651,69.0,0,48,6.0,80.0
6652,51.0,60,48,6.0,80.0
6653,39.0,0,48,6.0,80.0
6654,78.0,60,48,6.0,80.0
6655,69.0,0,192,8.0,80.0
6656,51.0,0,192,11.0,80.0
6657,39.0,60,192,12.0,80.0
6658,81.0,0,192,0.0,80.0
6659,72.0,0,192,7.0,80.0
6660,69.0,0,48,6.0,80.0
6661,51.0,60,48,6.0,80.0
6662,40.0,0,48,6.0,80.0
6663,78.0,0,48,6.0,80.0
6664,52.0,60,48,6.0,80.0
6665,68.0,0,48,6.0,80.0
6666,51.0,0,48,6.0,80.0
6667,66.0,60,48,6.0,80.0
6668,71.0,0,192,7.0,80.0
6669,68.0,60,192,8.0,80.0
6670,66.0,0,432,10.0,80.0
6671,80.0,0,192,0.0,80.0
6672,40.0,0,192,12.0,80.0
6673,78.0,0,432,1.0,80.0
6674,52.0,0,192,11.0,80.0
6675,52.0,60,48,6.0,80.0
6676,68.0,0,48,6.0,80.0
6677,76.0,60,48,6.0,80.0
6678,37.0,0,48,6.0,80.0
6679,67.0,0,48,6.0,80.0
6680,49.0,60,48,6.0,80.0
6681,37.0,0,48,6.0,80.0
6682,76.0,60,48,6.0,80.0
6683,70.0,0,192,7.0,80.0
6684,49.0,0,192,11.0,80.0
6685,67.0,0,192,8.0,80.0
6686,37.0,0,192,12.0,80.0
6687,79.0,0,192,0.0,80.0
6688,67.0,60,48,6.0,80.0
6689,49.0,0,48,6.0,80.0
6690,76.0,0,48,6.0,80.0
6691,34.0,0,48,6.0,80.0
6692,46.0,60,48,6.0,80.0
6693,66.0,0,48,6.0,80.0
6694,65.0,0,48,6.0,80.0
6695,44.0,60,48,6.0,80.0
6696,34.0,0,192,12.0,80.0
6697,73.0,60,192,7.0,80.0
6698,64.0,0,432,10.0,80.0
6699,46.0,0,192,11.0,80.0
6700,76.0,0,432,1.0,80.0
6701,66.0,60,48,6.0,80.0
6702,46.0,0,48,6.0,80.0
6703,35.0,0,48,6.0,80.0
6704,74.0,0,48,6.0,80.0
6705,47.0,0,48,6.0,80.0
6706,66.0,60,48,6.0,80.0
6707,66.0,0,384,8.0,80.0
6708,78.0,0,384,0.0,80.0
6709,74.0,60,48,6.0,80.0
6710,35.0,0,48,6.0,80.0
6711,62.0,60,192,10.0,80.0
6712,35.0,0,192,12.0,80.0
6713,47.0,0,192,11.0,80.0
6714,74.0,0,192,1.0,80.0
6715,71.0,0,192,7.0,80.0
6716,66.0,60,48,6.0,80.0
6717,47.0,0,48,6.0,80.0
6718,64.0,0,48,6.0,80.0
6719,74.0,60,48,6.0,80.0
6720,76.0,60,48,6.0,80.0
6721,59.0,0,192,10.0,80.0
6722,43.0,0,192,11.0,80.0
6723,31.0,0,192,12.0,80.0
6724,64.0,0,192,7.0,80.0
6725,43.0,0,192,6.0,80.0
6726,55.0,0,192,6.0,80.0
6727,74.0,60,48,6.0,80.0
6728,66.0,0,48,6.0,80.0
6729,74.0,60,48,6.0,80.0
6730,78.0,60,48,6.0,80.0
6731,57.0,0,192,10.0,80.0
6732,66.0,0,192,7.0,80.0
6733,45.0,0,192,6.0,80.0
6734,57.0,0,192,6.0,80.0
6735,45.0,60,192,11.0,80.0
6736,33.0,0,192,12.0,80.0
6737,74.0,60,48,6.0,80.0
6738,67.0,0,48,6.0,80.0
6739,74.0,60,48,6.0,80.0
6740,79.0,60,48,6.0,80.0
6741,55.0,0,192,10.0,80.0
6742,47.0,0,192,11.0,80.0
6743,59.0,60,192,6.0,80.0
6744,47.0,0,192,6.0,80.0
6745,35.0,0,192,12.0,80.0
6746,67.0,0,192,7.0,80.0
6747,74.0,60,48,6.0,80.0
6748,64.0,0,48,6.0,80.0
6749,74.0,60,48,6.0,80.0
6750,76.0,60,48,6.0,80.0
6751,32.0,0,192,12.0,80.0
6752,64.0,60,192,7.0,80.0
6753,59.0,0,192,10.0,80.0
6754,44.0,0,192,11.0,80.0
6755,56.0,60,48,6.0,80.0
6756,74.0,0,48,6.0,80.0
6757,44.0,0,48,6.0,80.0
6758,66.0,0,48,6.0,80.0
6759,74.0,60,48,6.0,80.0
6760,78.0,60,48,6.0,80.0
6761,66.0,0,192,7.0,80.0
6762,57.0,0,192,6.0,80.0
6763,45.0,0,192,6.0,80.0
6764,45.0,60,192,11.0,80.0
6765,33.0,0,192,12.0,80.0
6766,60.0,0,192,10.0,80.0
6767,57.0,0,192,10.0,80.0
6768,74.0,60,48,6.0,80.0
6769,67.0,0,48,6.0,80.0
6770,74.0,60,48,6.0,80.0
6771,79.0,60,48,6.0,80.0
6772,47.0,60,192,11.0,80.0
6773,67.0,0,192,7.0,80.0
6774,59.0,0,192,6.0,80.0
6775,47.0,0,192,6.0,80.0
6776,55.0,0,192,10.0,80.0
6777,59.0,0,192,10.0,80.0
6778,35.0,0,192,12.0,80.0
6779,74.0,60,48,6.0,80.0
6780,69.0,0,48,6.0,80.0
6781,74.0,60,48,6.0,80.0
6782,81.0,60,48,6.0,80.0
6783,57.0,60,192,10.0,80.0
6784,69.0,0,192,7.0,80.0
6785,54.0,0,192,10.0,80.0
6786,60.0,0,192,6.0,80.0
6787,48.0,0,192,11.0,80.0
6788,36.0,0,192,12.0,80.0
6789,48.0,0,192,6.0,80.0
6790,74.0,60,48,6.0,80.0
6791,66.0,0,48,6.0,80.0
6792,74.0,60,48,6.0,80.0
6793,78.0,60,48,6.0,80.0
6794,45.0,0,192,11.0,80.0
6795,33.0,0,192,12.0,80.0
6796,66.0,0,192,7.0,80.0
6797,57.0,60,192,10.0,80.0
6798,60.0,0,192,10.0,80.0
6799,57.0,0,48,6.0,80.0
6800,45.0,60,48,6.0,80.0
6801,74.0,0,48,6.0,80.0
6802,67.0,0,48,6.0,80.0
6803,74.0,60,48,6.0,80.0
6804,79.0,60,48,6.0,80.0
6805,67.0,0,192,7.0,80.0
6806,74.0,60,48,6.0,80.0
6807,68.0,60,48,6.0,80.0
6808,74.0,60,48,6.0,80.0
6809,35.0,0,384,12.0,80.0
6810,59.0,0,384,10.0,80.0
6811,47.0,0,384,11.0,80.0
6812,59.0,60,384,6.0,80.0
6813,47.0,0,384,6.0,80.0
6814,80.0,60,48,6.0,80.0
6815,68.0,0,192,7.0,80.0
6816,74.0,60,48,6.0,80.0
6817,69.0,0,48,6.0,80.0
6818,74.0,60,48,6.0,80.0
6819,81.0,60,48,6.0,80.0
6820,69.0,0,192,7.0,80.0
6821,74.0,60,48,6.0,80.0
6822,70.0,0,48,6.0,80.0
6823,74.0,60,48,6.0,80.0
6824,54.0,0,384,6.0,80.0
6825,54.0,0,384,11.0,80.0
6826,42.0,0,384,12.0,80.0
6827,42.0,60,384,6.0,80.0
6828,60.0,0,384,10.0,80.0
6829,82.0,60,48,6.0,80.0
6830,70.0,60,192,7.0,80.0
6831,74.0,60,48,6.0,80.0
6832,71.0,60,48,6.0,80.0
6833,43.0,0,48,6.0,80.0
6834,43.0,0,96,12.0,80.0
6835,59.0,0,96,10.0,80.0
6836,55.0,0,96,11.0,80.0
6837,71.0,0,96,7.0,80.0
6838,62.0,60,2976,8.0,80.0
6839,74.0,60,48,6.0,80.0
6840,55.0,0,48,6.0,80.0
6841,43.0,0,48,6.0,80.0
6842,83.0,0,48,6.0,80.0
6843,62.0,0,96,8.0,80.0
6844,55.0,0,96,11.0,80.0
6845,71.0,0,96,7.0,80.0
6846,59.0,0,96,10.0,80.0
6847,43.0,60,96,12.0,80.0
6848,55.0,60,48,6.0,80.0
6849,74.0,0,48,6.0,80.0
6850,42.0,0,48,6.0,80.0
6851,70.0,0,48,6.0,80.0
6852,60.0,60,96,10.0,80.0
6853,54.0,0,96,11.0,80.0
6854,62.0,0,96,8.0,80.0
6855,42.0,0,96,12.0,80.0
6856,70.0,0,96,7.0,80.0
6857,74.0,0,48,6.0,80.0
6858,54.0,60,48,6.0,80.0
6859,42.0,60,48,6.0,80.0
6860,82.0,0,48,6.0,80.0
6861,60.0,0,96,10.0,80.0
6862,42.0,0,96,12.0,80.0
6863,70.0,0,96,7.0,80.0
6864,54.0,0,96,11.0,80.0
6865,62.0,0,96,8.0,80.0
6866,74.0,0,48,6.0,80.0
6867,54.0,60,48,6.0,80.0
6868,71.0,0,48,6.0,80.0
6869,43.0,0,48,6.0,80.0
6870,71.0,0,96,7.0,80.0
6871,59.0,0,96,10.0,80.0
6872,43.0,0,96,12.0,80.0
6873,55.0,60,96,11.0,80.0
6874,62.0,0,96,8.0,80.0
6875,55.0,60,48,6.0,80.0
6876,74.0,0,48,6.0,80.0
6877,43.0,0,48,6.0,80.0
6878,83.0,60,48,6.0,80.0
6879,62.0,0,3552,2.0,80.0
6880,86.0,0,3552,0.0,80.0
6881,74.0,0,3552,1.0,80.0
6882,59.0,0,96,10.0,80.0
6883,71.0,0,96,7.0,80.0
6884,43.0,0,96,12.0,80.0
6885,55.0,0,96,11.0,80.0
6886,62.0,0,96,8.0,80.0
6887,74.0,60,48,6.0,80.0
6888,55.0,0,48,6.0,80.0
6889,40.0,0,48,6.0,80.0
6890,76.0,0,48,6.0,80.0
6891,57.0,0,96,10.0,80.0
6892,73.0,60,96,7.0,80.0
6893,67.0,0,96,8.0,80.0
6894,40.0,0,96,12.0,80.0
6895,52.0,0,96,11.0,80.0
6896,79.0,60,48,6.0,80.0
6897,52.0,0,48,6.0,80.0
6898,40.0,0,48,6.0,80.0
6899,85.0,60,48,6.0,80.0
6900,79.0,0,192,1.0,80.0
6901,64.0,0,192,2.0,80.0
6902,57.0,0,192,2.0,80.0
6903,73.0,0,192,1.0,80.0
6904,91.0,0,192,0.0,80.0
6905,40.0,0,96,12.0,80.0
6906,67.0,0,96,8.0,80.0
6907,57.0,0,96,10.0,80.0
6908,73.0,0,96,7.0,80.0
6909,52.0,0,96,11.0,80.0
6910,52.0,0,48,6.0,80.0
6911,79.0,60,48,6.0,80.0
6912,66.0,0,48,8.0,80.0
6913,74.0,0,48,7.0,80.0
6914,50.0,0,96,11.0,80.0
6915,38.0,0,96,12.0,80.0
6916,62.0,0,96,2.0,80.0
6917,78.0,60,48,8.0,80.0
6918,86.0,0,48,7.0,80.0
6919,86.0,60,48,7.0,80.0
6920,78.0,0,48,8.0,80.0
6921,74.0,0,192,4.0,80.0
6922,50.0,0,192,3.0,80.0
6923,62.0,60,192,3.0,80.0
6924,78.0,0,192,6.0,80.0
6925,62.0,0,192,4.0,80.0
6926,86.0,0,192,6.0,80.0
6927,50.0,0,192,5.0,80.0
6928,57.0,0,192,10.0,80.0
6929,38.0,0,192,6.0,80.0
6930,62.0,0,96,11.0,80.0
6931,50.0,0,96,12.0,80.0
6932,62.0,0,96,2.0,80.0
6933,78.0,60,48,8.0,80.0
6934,86.0,0,48,7.0,80.0
6935,86.0,0,48,7.0,80.0
6936,78.0,0,48,8.0,80.0
6937,68.0,0,48,10.0,80.0
6938,59.0,0,96,11.0,80.0
6939,59.0,0,96,2.0,80.0
6940,47.0,0,96,12.0,80.0
6941,86.0,60,48,7.0,80.0
6942,68.0,0,48,10.0,80.0
6943,78.0,0,48,8.0,80.0
6944,50.0,60,144,3.0,80.0
6945,74.0,0,144,4.0,80.0
6946,62.0,0,144,4.0,80.0
6947,50.0,0,144,5.0,80.0
6948,62.0,0,144,3.0,80.0
6949,86.0,0,48,7.0,80.0
6950,78.0,0,48,8.0,80.0
6951,68.0,0,48,10.0,80.0
6952,62.0,0,96,2.0,80.0
6953,62.0,0,96,11.0,80.0
6954,50.0,60,96,12.0,80.0
6955,68.0,0,48,10.0,80.0
6956,86.0,0,48,7.0,80.0
6957,62.0,0,48,4.0,80.0
6958,50.0,0,48,5.0,80.0
6959,62.0,60,48,3.0,80.0
6960,50.0,0,48,3.0,80.0
6961,78.0,0,48,8.0,80.0
6962,74.0,0,48,4.0,80.0
6963,86.0,0,48,7.0,80.0
6964,78.0,60,48,8.0,80.0
6965,69.0,0,48,10.0,80.0
6966,45.0,0,96,12.0,80.0
6967,57.0,0,96,2.0,80.0
6968,57.0,0,96,11.0,80.0
6969,78.0,60,48,8.0,80.0
6970,69.0,0,48,10.0,80.0
6971,86.0,0,48,7.0,80.0
6972,86.0,0,48,7.0,80.0
6973,69.0,0,48,10.0,80.0
6974,78.0,0,48,8.0,80.0
6975,50.0,0,192,5.0,80.0
6976,62.0,0,192,3.0,80.0
6977,74.0,0,192,4.0,80.0
6978,62.0,0,192,4.0,80.0
6979,50.0,0,192,3.0,80.0
6980,62.0,0,96,2.0,80.0
6981,50.0,0,96,12.0,80.0
6982,62.0,60,96,11.0,80.0
6983,86.0,60,48,7.0,80.0
6984,69.0,0,48,10.0,80.0
6985,78.0,0,48,8.0,80.0
6986,86.0,0,48,7.0,80.0
6987,71.0,0,48,10.0,80.0
6988,78.0,0,48,8.0,80.0
6989,44.0,0,96,12.0,80.0
6990,56.0,0,96,11.0,80.0
6991,56.0,0,96,2.0,80.0
6992,71.0,0,48,10.0,80.0
6993,78.0,0,48,8.0,80.0
6994,86.0,60,48,7.0,80.0
6995,78.0,0,864,1.0,80.0
6996,90.0,0,864,0.0,80.0
6997,74.0,0,864,1.0,80.0
6998,71.0,0,48,10.0,80.0
6999,86.0,0,48,7.0,80.0
7000,78.0,60,48,8.0,80.0
7001,62.0,60,192,3.0,80.0
7002,74.0,0,192,4.0,80.0
7003,62.0,0,192,4.0,80.0
7004,50.0,0,192,5.0,80.0
7005,50.0,0,192,3.0,80.0
7006,62.0,0,96,2.0,80.0
7007,50.0,0,96,12.0,80.0
7008,62.0,0,96,11.0,80.0
7009,86.0,0,48,7.0,80.0
7010,71.0,0,48,10.0,80.0
7011,78.0,60,48,8.0,80.0
7012,45.0,0,192,5.0,80.0
7013,69.0,0,384,7.0,80.0
7014,57.0,0,384,3.0,80.0
7015,57.0,0,384,4.0,80.0
7016,69.0,0,384,4.0,80.0
7017,57.0,0,384,11.0,80.0
7018,69.0,0,384,10.0,80.0
7019,45.0,0,384,3.0,80.0
7020,74.0,60,384,1.0,80.0
7021,78.0,0,384,1.0,80.0
7022,45.0,0,384,12.0,80.0
7023,69.0,0,384,8.0,80.0
7024,69.0,0,384,0.0,80.0
7025,57.0,0,384,2.0,80.0
7026,57.0,0,576,6.0,80.0
7027,69.0,0,576,6.0,80.0
7028,45.0,0,576,6.0,80.0
7029,81.0,720,48,6.0,80.0
7030,78.0,60,48,6.0,80.0
7031,74.0,60,48,6.0,80.0
7032,66.0,0,192,6.0,80.0
7033,57.0,0,192,6.0,80.0
7034,78.0,60,48,6.0,80.0
7035,81.0,60,48,6.0,80.0
7036,66.0,0,96,6.0,80.0
7037,57.0,0,96,6.0,80.0
7038,78.0,60,48,6.0,80.0
7039,83.0,0,48,6.0,80.0
7040,67.0,60,96,6.0,80.0
7041,57.0,0,96,6.0,80.0
7042,73.0,60,48,6.0,80.0
7043,81.0,60,48,6.0,80.0
7044,78.0,60,48,6.0,80.0
7045,74.0,60,48,6.0,80.0
7046,57.0,0,192,6.0,80.0
7047,66.0,0,192,6.0,80.0
7048,78.0,60,48,6.0,80.0
7049,81.0,60,48,6.0,80.0
7050,57.0,0,96,6.0,80.0
7051,66.0,0,96,6.0,80.0
7052,78.0,60,48,6.0,80.0
7053,83.0,0,48,6.0,80.0
7054,57.0,60,96,6.0,80.0
7055,67.0,0,96,6.0,80.0
7056,73.0,60,48,6.0,80.0
7057,81.0,60,48,6.0,80.0
7058,78.0,60,48,6.0,80.0
7059,74.0,60,48,6.0,80.0
7060,57.0,0,192,6.0,80.0
7061,66.0,0,192,6.0,80.0
7062,78.0,60,48,6.0,80.0
7063,81.0,60,48,6.0,80.0
7064,78.0,60,48,6.0,80.0
7065,86.0,0,48,6.0,80.0
7066,78.0,60,96,6.0,80.0
7067,81.0,60,48,6.0,80.0
7068,85.0,0,48,6.0,80.0
7069,76.0,60,96,6.0,80.0
7070,79.0,60,48,6.0,80.0
7071,83.0,60,48,6.0,80.0
7072,74.0,0,96,6.0,80.0
7073,78.0,60,48,6.0,80.0
7074,81.0,60,48,6.0,80.0
7075,73.0,0,96,6.0,80.0
7076,76.0,60,48,6.0,80.0
7077,79.0,0,48,6.0,80.0
7078,71.0,60,96,6.0,80.0
7079,74.0,60,48,6.0,80.0
7080,78.0,60,48,6.0,80.0
7081,69.0,0,96,6.0,80.0
7082,73.0,60,48,6.0,80.0
7083,76.0,0,48,6.0,80.0
7084,67.0,60,96,6.0,80.0
7085,71.0,60,48,6.0,80.0
7086,74.0,0,96,6.0,80.0
7087,66.0,60,96,6.0,80.0
7088,54.0,120,48,6.0,80.0
7089,86.0,0,48,6.0,80.0
7090,66.0,60,48,6.0,80.0
7091,74.0,0,48,6.0,80.0
7092,52.0,60,48,6.0,80.0
7093,85.0,0,48,6.0,80.0
7094,64.0,60,48,6.0,80.0
7095,73.0,0,48,6.0,80.0
7096,50.0,0,48,6.0,80.0
7097,83.0,60,48,6.0,80.0
7098,62.0,60,48,6.0,80.0
7099,71.0,0,48,6.0,80.0
7100,81.0,0,48,6.0,80.0
7101,49.0,60,48,6.0,80.0
7102,69.0,0,48,6.0,80.0
7103,61.0,60,48,6.0,80.0
7104,79.0,60,48,6.0,80.0
7105,47.0,0,48,6.0,80.0
7106,59.0,0,48,6.0,80.0
7107,67.0,60,48,6.0,80.0
7108,45.0,60,48,6.0,80.0
7109,78.0,0,48,6.0,80.0
7110,66.0,60,48,6.0,80.0
7111,57.0,0,48,6.0,80.0
7112,76.0,0,48,6.0,80.0
7113,43.0,60,48,6.0,80.0
7114,64.0,60,48,6.0,80.0
7115,55.0,0,48,6.0,80.0
7116,74.0,60,48,6.0,80.0
7117,42.0,0,48,6.0,80.0
7118,54.0,0,48,6.0,80.0
7119,62.0,60,48,6.0,80.0
7120,72.0,60,48,6.0,80.0
7121,40.0,0,48,6.0,80.0
7122,61.0,0,48,6.0,80.0
7123,52.0,60,48,6.0,80.0
7124,71.0,0,48,6.0,80.0
7125,69.0,60,48,6.0,80.0
7126,59.0,60,48,6.0,80.0
7127,51.0,0,192,6.0,80.0
7128,39.0,60,192,6.0,80.0
7129,69.0,60,48,6.0,80.0
7130,71.0,0,48,6.0,80.0
7131,69.0,60,48,6.0,80.0
7132,71.0,60,48,6.0,80.0
7133,78.0,60,192,6.0,80.0
7134,75.0,0,192,6.0,80.0
7135,69.0,60,48,6.0,80.0
7136,71.0,0,48,6.0,80.0
7137,68.0,60,48,6.0,80.0
7138,59.0,60,48,6.0,80.0
7139,38.0,0,192,6.0,80.0
7140,50.0,60,192,6.0,80.0
7141,68.0,60,48,6.0,80.0
7142,71.0,60,48,6.0,80.0
7143,68.0,60,48,6.0,80.0
7144,71.0,60,48,6.0,80.0
7145,74.0,0,192,6.0,80.0
7146,77.0,0,192,6.0,80.0
7147,68.0,60,48,6.0,80.0
7148,70.0,0,48,6.0,80.0
7149,67.0,60,48,6.0,80.0
7150,58.0,60,48,6.0,80.0
7151,37.0,0,192,6.0,80.0
7152,49.0,60,192,6.0,80.0
7153,67.0,60,48,6.0,80.0
7154,70.0,0,48,6.0,80.0
7155,67.0,60,48,6.0,80.0
7156,70.0,60,48,6.0,80.0
7157,73.0,60,192,6.0,80.0
7158,76.0,0,192,6.0,80.0
7159,67.0,60,48,6.0,80.0
7160,69.0,0,48,6.0,80.0
7161,66.0,60,48,6.0,80.0
7162,57.0,60,48,6.0,80.0
7163,48.0,60,192,6.0,80.0
7164,36.0,0,192,6.0,80.0
7165,66.0,60,48,6.0,80.0
7166,69.0,0,48,6.0,80.0
7167,66.0,60,48,6.0,80.0
7168,69.0,60,48,6.0,80.0
7169,72.0,0,192,6.0,80.0
7170,75.0,60,192,6.0,80.0
7171,66.0,60,48,6.0,80.0
7172,47.0,0,48,6.0,80.0
7173,67.0,60,96,6.0,80.0
7174,59.0,60,48,6.0,80.0
7175,57.0,60,48,6.0,80.0
7176,59.0,60,48,6.0,80.0
7177,48.0,0,48,6.0,80.0
7178,66.0,60,48,6.0,80.0
7179,60.0,60,48,6.0,80.0
7180,74.0,0,48,6.0,80.0
7181,78.0,0,48,6.0,80.0
7182,59.0,60,48,6.0,80.0
7183,74.0,60,48,6.0,80.0
7184,60.0,0,48,6.0,80.0
7185,47.0,60,48,6.0,80.0
7186,67.0,0,48,6.0,80.0
7187,74.0,0,48,6.0,80.0
7188,59.0,60,48,6.0,80.0
7189,79.0,60,48,6.0,80.0
7190,57.0,0,48,6.0,80.0
7191,74.0,0,48,6.0,80.0
7192,59.0,60,48,6.0,80.0
7193,69.0,0,48,6.0,80.0
7194,45.0,60,48,6.0,80.0
7195,74.0,0,48,6.0,80.0
7196,57.0,60,48,6.0,80.0
7197,81.0,60,48,6.0,80.0
7198,55.0,0,48,6.0,80.0
7199,74.0,0,48,6.0,80.0
7200,57.0,60,48,6.0,80.0
7201,43.0,60,48,6.0,80.0
7202,71.0,0,48,6.0,80.0
7203,74.0,60,48,6.0,80.0
7204,55.0,0,48,6.0,80.0
7205,83.0,0,48,6.0,80.0
7206,54.0,60,48,6.0,80.0
7207,74.0,60,48,6.0,80.0
7208,55.0,0,48,6.0,80.0
7209,42.0,0,48,6.0,80.0
7210,72.0,60,48,6.0,80.0
7211,54.0,60,48,6.0,80.0
7212,74.0,0,48,6.0,80.0
7213,84.0,60,48,6.0,80.0
7214,52.0,0,48,6.0,80.0
7215,74.0,0,48,6.0,80.0
7216,54.0,60,48,6.0,80.0
7217,71.0,60,48,6.0,80.0
7218,43.0,0,48,6.0,80.0
7219,74.0,60,48,6.0,80.0
7220,55.0,0,48,6.0,80.0
7221,54.0,60,48,6.0,80.0
7222,83.0,0,48,6.0,80.0
7223,55.0,60,48,6.0,80.0
7224,74.0,0,48,6.0,80.0
7225,45.0,60,48,6.0,80.0
7226,69.0,0,48,6.0,80.0
7227,57.0,0,48,6.0,80.0
7228,74.0,60,48,6.0,80.0
7229,55.0,60,48,6.0,80.0
7230,81.0,0,48,6.0,80.0
7231,74.0,60,48,6.0,80.0
7232,57.0,0,48,6.0,80.0
7233,47.0,60,48,6.0,80.0
7234,67.0,0,48,6.0,80.0
7235,74.0,0,48,6.0,80.0
7236,59.0,60,48,6.0,80.0
7237,79.0,60,48,6.0,80.0
7238,57.0,0,48,6.0,80.0
7239,59.0,60,48,6.0,80.0
7240,74.0,0,48,6.0,80.0
7241,66.0,60,48,6.0,80.0
7242,48.0,0,48,6.0,80.0
7243,60.0,0,48,6.0,80.0
7244,74.0,60,48,6.0,80.0
7245,59.0,60,48,6.0,80.0
7246,78.0,0,48,6.0,80.0
7247,60.0,60,48,6.0,80.0
7248,74.0,0,48,6.0,80.0
7249,47.0,60,48,6.0,80.0
7250,67.0,0,48,6.0,80.0
7251,59.0,60,48,6.0,80.0
7252,74.0,0,48,6.0,80.0
7253,57.0,60,48,6.0,80.0
7254,79.0,0,48,6.0,80.0
7255,74.0,0,48,6.0,80.0
7256,59.0,60,48,6.0,80.0
7257,69.0,60,48,6.0,80.0
7258,45.0,0,48,6.0,80.0
7259,74.0,60,48,6.0,80.0
7260,57.0,0,48,6.0,80.0
7261,55.0,60,48,6.0,80.0
7262,81.0,0,48,6.0,80.0
7263,57.0,0,48,6.0,80.0
7264,74.0,60,48,6.0,80.0
7265,55.0,60,48,6.0,80.0
7266,59.0,60,48,6.0,80.0
7267,62.0,60,48,6.0,80.0
7268,67.0,60,48,6.0,80.0
7269,71.0,60,48,6.0,80.0
7270,74.0,60,48,6.0,80.0
7271,79.0,60,48,6.0,80.0
7272,83.0,60,48,6.0,80.0
7273,55.0,60,48,6.0,80.0
7274,61.0,60,48,6.0,80.0
7275,64.0,60,48,6.0,80.0
7276,67.0,60,48,6.0,80.0
7277,73.0,60,48,6.0,80.0
7278,76.0,60,48,6.0,80.0
7279,82.0,60,48,6.0,80.0
7280,85.0,60,48,6.0,80.0
7281,56.0,60,48,6.0,80.0
7282,62.0,60,48,6.0,80.0
7283,65.0,60,48,6.0,80.0
7284,68.0,60,48,6.0,80.0
7285,74.0,60,48,6.0,80.0
7286,77.0,60,48,6.0,80.0
7287,80.0,60,48,6.0,80.0
7288,83.0,60,48,6.0,80.0
7289,86.0,60,48,6.0,80.0
7290,80.0,60,48,6.0,80.0
7291,83.0,60,48,6.0,80.0
7292,86.0,60,48,6.0,80.0
7293,89.0,60,48,6.0,80.0
7294,86.0,60,48,6.0,80.0
7295,89.0,60,48,6.0,80.0
7296,86.0,60,48,6.0,80.0
7297,89.0,60,192,6.0,80.0
7298,74.0,480,288,6.0,80.0
7299,79.0,360,96,6.0,80.0
7300,78.0,120,96,6.0,80.0
7301,78.0,120,96,6.0,80.0
7302,81.0,0,288,6.0,80.0
7303,78.0,120,96,6.0,80.0
7304,78.0,120,48,6.0,80.0
7305,86.0,0,96,6.0,80.0
7306,79.0,60,48,6.0,80.0
7307,85.0,0,96,6.0,80.0
7308,76.0,60,96,6.0,80.0
7309,85.0,0,96,6.0,80.0
7310,76.0,120,96,6.0,80.0
7311,85.0,0,96,6.0,80.0
7312,76.0,120,96,6.0,80.0
7313,76.0,120,48,6.0,80.0
7314,85.0,0,48,6.0,80.0
7315,86.0,0,48,6.0,80.0
7316,78.0,60,48,6.0,80.0
7317,83.0,0,96,6.0,80.0
7318,74.0,60,96,6.0,80.0
7319,83.0,120,96,6.0,80.0
7320,83.0,0,96,6.0,80.0
7321,83.0,120,48,6.0,80.0
7322,84.0,60,48,6.0,80.0
7323,79.0,120,288,6.0,80.0
7324,78.0,60,48,6.0,80.0
7325,79.0,60,48,6.0,80.0
7326,76.0,60,48,6.0,80.0
7327,81.0,60,288,6.0,80.0
7328,83.0,120,96,6.0,80.0
7329,78.0,60,336,6.0,80.0
7330,75.0,120,96,6.0,80.0
7331,79.0,120,288,6.0,80.0
7332,81.0,120,96,6.0,80.0
7333,76.0,120,336,6.0,80.0
7334,73.0,120,96,6.0,80.0
7335,57.0,120,288,6.0,80.0
7336,78.0,0,288,6.0,80.0
7337,74.0,120,96,6.0,80.0
7338,62.0,120,96,6.0,80.0
7339,78.0,0,96,6.0,80.0
7340,61.0,120,96,6.0,80.0
7341,83.0,0,216,6.0,80.0
7342,76.0,0,192,6.0,80.0
7343,80.0,120,96,6.0,80.0
7344,61.0,0,96,6.0,80.0
7345,61.0,120,96,6.0,80.0
7346,61.0,0,48,6.0,80.0
7347,88.0,120,96,6.0,80.0
7348,62.0,60,48,6.0,80.0
7349,59.0,60,96,6.0,80.0
7350,81.0,0,336,6.0,80.0
7351,86.0,0,192,6.0,80.0
7352,78.0,0,96,6.0,80.0
7353,59.0,120,96,6.0,80.0
7354,59.0,0,96,6.0,80.0
7355,59.0,0,48,6.0,80.0
7356,74.0,120,96,6.0,80.0
7357,61.0,60,48,6.0,80.0
7358,57.0,60,96,6.0,80.0
7359,79.0,120,336,6.0,80.0
7360,73.0,0,192,6.0,80.0
7361,57.0,120,96,6.0,80.0
7362,77.0,0,96,6.0,80.0
7363,57.0,120,96,6.0,80.0
7364,57.0,0,48,6.0,80.0
7365,85.0,120,96,6.0,80.0
7366,59.0,60,48,6.0,80.0
7367,78.0,0,336,6.0,80.0
7368,55.0,60,96,6.0,80.0
7369,83.0,0,192,6.0,80.0
7370,75.0,120,96,6.0,80.0
7371,55.0,0,96,6.0,80.0
7372,55.0,0,96,6.0,80.0
7373,55.0,0,48,6.0,80.0
7374,71.0,120,96,6.0,80.0
7375,57.0,60,48,6.0,80.0
7376,76.0,120,336,6.0,80.0
7377,69.0,60,192,6.0,80.0
7378,54.0,0,192,6.0,80.0
7379,73.0,120,96,6.0,80.0
7380,74.0,120,192,6.0,80.0
7381,66.0,120,96,6.0,80.0
7382,81.0,0,96,6.0,80.0
7383,64.0,0,48,6.0,80.0
7384,79.0,120,48,6.0,80.0
7385,78.0,0,48,6.0,80.0
7386,62.0,60,48,6.0,80.0
7387,61.0,0,48,6.0,80.0
7388,76.0,60,48,6.0,80.0
7389,59.0,60,48,6.0,80.0
7390,74.0,0,48,6.0,80.0
7391,73.0,0,48,6.0,80.0
7392,57.0,60,48,6.0,80.0
7393,55.0,60,48,6.0,80.0
7394,71.0,0,48,6.0,80.0
7395,54.0,0,48,6.0,80.0
7396,69.0,60,48,6.0,80.0
7397,67.0,60,48,6.0,80.0
7398,52.0,0,48,6.0,80.0
7399,50.0,60,48,6.0,80.0
7400,66.0,0,48,6.0,80.0
7401,64.0,0,48,6.0,80.0
7402,49.0,60,48,6.0,80.0
7403,62.0,60,48,6.0,80.0
7404,47.0,0,48,6.0,80.0
7405,61.0,60,48,6.0,80.0
7406,45.0,0,48,6.0,80.0
7407,43.0,60,48,6.0,80.0
7408,59.0,0,48,6.0,80.0
7409,42.0,0,48,6.0,80.0
7410,57.0,60,48,6.0,80.0
7411,40.0,0,48,6.0,80.0
7412,55.0,60,48,6.0,80.0
7413,38.0,0,48,6.0,80.0
7414,54.0,60,48,6.0,80.0
7415,32.0,0,192,6.0,80.0
7416,52.0,60,192,6.0,80.0
7417,44.0,0,192,6.0,80.0
7418,85.0,240,24,6.0,80.0
7419,83.0,30,24,6.0,80.0
7420,85.0,30,24,6.0,80.0
7421,83.0,30,24,6.0,80.0
7422,85.0,30,24,6.0,80.0
7423,83.0,30,24,6.0,80.0
7424,82.0,30,24,6.0,80.0
7425,83.0,30,24,6.0,80.0
7426,86.0,30,192,6.0,80.0
7427,50.0,0,192,6.0,80.0
7428,47.0,240,192,6.0,80.0
7429,56.0,0,192,6.0,80.0
7430,35.0,0,192,6.0,80.0
7431,57.0,0,576,6.0,80.0
7432,50.0,0,576,6.0,80.0
7433,54.0,0,576,6.0,80.0
7434,35.0,0,576,6.0,80.0
7435,45.0,240,576,6.0,80.0
7436,45.0,780,48,6.0,80.0
7437,47.0,60,48,6.0,80.0
7438,49.0,60,48,6.0,80.0
7439,50.0,60,48,6.0,80.0
7440,52.0,60,48,6.0,80.0
7441,54.0,60,48,6.0,80.0
7442,55.0,60,48,6.0,80.0
7443,57.0,60,48,6.0,80.0
7444,42.0,0,48,6.0,80.0
7445,50.0,60,48,6.0,80.0
7446,43.0,0,48,6.0,80.0
7447,52.0,60,48,6.0,80.0
7448,54.0,60,48,6.0,80.0
7449,45.0,0,48,6.0,80.0
7450,47.0,60,48,6.0,80.0
7451,55.0,0,48,6.0,80.0
7452,57.0,60,48,6.0,80.0
7453,49.0,0,48,6.0,80.0
7454,50.0,60,48,6.0,80.0
7455,59.0,0,48,6.0,80.0
7456,52.0,60,48,6.0,80.0
7457,61.0,0,48,6.0,80.0
7458,62.0,60,48,6.0,80.0
7459,57.0,60,48,6.0,80.0
7460,59.0,60,48,6.0,80.0
7461,54.0,0,192,6.0,80.0
7462,61.0,60,48,6.0,80.0
7463,62.0,60,48,6.0,80.0
7464,64.0,60,48,6.0,80.0
7465,66.0,60,48,6.0,80.0
7466,67.0,60,48,6.0,80.0
7467,69.0,60,48,6.0,80.0
7468,62.0,60,48,6.0,80.0
7469,54.0,0,48,6.0,80.0
7470,64.0,60,48,6.0,80.0
7471,55.0,0,48,6.0,80.0
7472,66.0,60,48,6.0,80.0
7473,57.0,0,48,6.0,80.0
7474,59.0,60,48,6.0,80.0
7475,67.0,0,48,6.0,80.0
7476,69.0,0,48,6.0,80.0
7477,61.0,60,48,6.0,80.0
7478,62.0,60,48,6.0,80.0
7479,71.0,0,48,6.0,80.0
7480,73.0,0,48,6.0,80.0
7481,64.0,60,48,6.0,80.0
7482,74.0,60,48,6.0,80.0
7483,69.0,60,48,6.0,80.0
7484,71.0,60,48,6.0,80.0
7485,66.0,0,192,6.0,80.0
7486,73.0,60,48,6.0,80.0
7487,74.0,60,48,6.0,80.0
7488,76.0,60,48,6.0,80.0
7489,78.0,60,48,6.0,80.0
7490,79.0,60,48,6.0,80.0
7491,81.0,60,48,6.0,80.0
7492,66.0,0,48,6.0,80.0
7493,74.0,60,48,6.0,80.0
7494,67.0,0,48,6.0,80.0
7495,76.0,60,48,6.0,80.0
7496,69.0,60,48,6.0,80.0
7497,78.0,0,48,6.0,80.0
7498,79.0,60,48,6.0,80.0
7499,71.0,0,48,6.0,80.0
7500,81.0,0,48,6.0,80.0
7501,73.0,60,48,6.0,80.0
7502,74.0,60,48,6.0,80.0
7503,83.0,0,48,6.0,80.0
7504,76.0,0,48,6.0,80.0
7505,85.0,60,48,6.0,80.0
7506,86.0,0,192,6.0,80.0
7507,78.0,60,192,6.0,80.0
7508,74.0,420,48,6.0,80.0
7509,74.0,60,24,6.0,80.0
7510,76.0,30,24,6.0,80.0
7511,78.0,30,24,6.0,80.0
7512,76.0,30,24,6.0,80.0
7513,78.0,30,24,6.0,80.0
7514,76.0,30,24,6.0,80.0
7515,78.0,30,24,6.0,80.0
7516,76.0,30,24,6.0,80.0
7517,78.0,30,24,6.0,80.0
7518,76.0,30,24,6.0,80.0
7519,78.0,30,24,6.0,80.0
7520,76.0,30,24,6.0,80.0
7521,78.0,30,24,6.0,80.0
7522,76.0,30,24,6.0,80.0
7523,78.0,30,24,6.0,80.0
7524,76.0,30,24,6.0,80.0
7525,78.0,30,24,6.0,80.0
7526,76.0,30,24,6.0,80.0
7527,78.0,30,24,6.0,80.0
7528,76.0,30,24,6.0,80.0
7529,78.0,30,24,6.0,80.0
7530,61.0,0,384,6.0,80.0
7531,57.0,0,384,6.0,80.0
7532,67.0,0,384,6.0,80.0
7533,76.0,30,24,6.0,80.0
7534,74.0,30,24,6.0,80.0
7535,76.0,30,24,6.0,80.0
7536,62.0,30,48,6.0,80.0
7537,69.0,60,48,6.0,80.0
7538,66.0,60,48,6.0,80.0
7539,74.0,0,192,6.0,80.0
7540,69.0,60,48,6.0,80.0
7541,66.0,0,48,6.0,80.0
7542,78.0,60,96,6.0,80.0
7543,69.0,60,48,6.0,80.0
7544,62.0,60,48,6.0,80.0
7545,69.0,60,48,6.0,80.0
7546,66.0,60,48,6.0,80.0
7547,81.0,0,192,6.0,80.0
7548,69.0,60,48,6.0,80.0
7549,66.0,0,48,6.0,80.0
7550,78.0,60,96,6.0,80.0
7551,69.0,60,48,6.0,80.0
7552,78.0,60,48,6.0,80.0
7553,57.0,0,48,6.0,80.0
7554,76.0,60,48,6.0,80.0
7555,67.0,0,48,6.0,80.0
7556,64.0,0,48,6.0,80.0
7557,75.0,60,48,6.0,80.0
7558,67.0,0,48,6.0,80.0
7559,76.0,60,48,6.0,80.0
7560,64.0,60,48,6.0,80.0
7561,75.0,0,48,6.0,80.0
7562,76.0,60,48,6.0,80.0
7563,67.0,0,48,6.0,80.0
7564,74.0,60,48,6.0,80.0
7565,57.0,0,48,6.0,80.0
7566,67.0,60,48,6.0,80.0
7567,73.0,0,48,6.0,80.0
7568,71.0,60,48,6.0,80.0
7569,64.0,0,48,6.0,80.0
7570,73.0,60,48,6.0,80.0
7571,67.0,0,48,6.0,80.0
7572,64.0,60,48,6.0,80.0
7573,71.0,0,48,6.0,80.0
7574,67.0,60,48,6.0,80.0
7575,73.0,0,48,6.0,80.0
7576,62.0,60,48,6.0,80.0
7577,74.0,0,96,6.0,80.0
7578,69.0,60,48,6.0,80.0
7579,66.0,60,48,6.0,80.0
7580,74.0,0,96,6.0,80.0
7581,69.0,60,48,6.0,80.0
7582,66.0,0,48,6.0,80.0
7583,78.0,60,96,6.0,80.0
7584,69.0,60,48,6.0,80.0
7585,62.0,60,48,6.0,80.0
7586,81.0,0,96,6.0,80.0
7587,69.0,60,48,6.0,80.0
7588,66.0,60,48,6.0,80.0
7589,81.0,0,96,6.0,80.0
7590,69.0,60,48,6.0,80.0
7591,66.0,60,48,6.0,80.0
7592,86.0,0,96,6.0,80.0
7593,69.0,60,48,6.0,80.0
7594,85.0,0,96,6.0,80.0
7595,85.0,120,48,6.0,80.0
7596,69.0,60,192,6.0,80.0
7597,86.0,60,48,6.0,80.0
7598,64.0,0,288,6.0,80.0
7599,83.0,0,48,6.0,80.0
7600,68.0,60,96,6.0,80.0
7601,85.0,60,48,6.0,80.0
7602,69.0,60,96,6.0,80.0
7603,81.0,0,96,6.0,80.0
7604,64.0,120,96,6.0,80.0
7605,57.0,120,96,6.0,80.0
7606,66.0,0,48,8.0,80.0
7607,50.0,0,96,11.0,80.0
7608,38.0,0,96,12.0,80.0
7609,62.0,0,96,10.0,80.0
7610,69.0,60,48,8.0,80.0
7611,66.0,60,48,8.0,80.0
7612,62.0,0,192,3.0,80.0
7613,50.0,120,192,3.0,80.0
7614,50.0,0,192,5.0,80.0
7615,74.0,0,192,0.0,80.0
7616,74.0,0,192,7.0,80.0
7617,62.0,0,192,7.0,80.0
7618,74.0,0,192,4.0,80.0
7619,62.0,0,192,4.0,80.0
7620,74.0,0,192,1.0,80.0
7621,62.0,0,96,10.0,80.0
7622,50.0,0,96,11.0,80.0
7623,38.0,0,96,12.0,80.0
7624,69.0,60,48,8.0,80.0
7625,66.0,0,48,8.0,80.0
7626,54.0,0,288,2.0,80.0
7627,62.0,0,288,2.0,80.0
7628,78.0,0,96,0.0,80.0
7629,78.0,0,96,7.0,80.0
7630,62.0,0,96,10.0,80.0
7631,54.0,0,96,3.0,80.0
7632,78.0,60,96,1.0,80.0
7633,38.0,0,96,12.0,80.0
7634,66.0,0,96,3.0,80.0
7635,50.0,0,96,11.0,80.0
7636,69.0,60,48,8.0,80.0
7637,66.0,0,48,8.0,80.0
7638,38.0,0,96,12.0,80.0
7639,50.0,0,96,11.0,80.0
7640,62.0,0,96,10.0,80.0
7641,69.0,60,48,8.0,80.0
7642,66.0,0,48,8.0,80.0
7643,74.0,0,192,4.0,80.0
7644,81.0,0,192,0.0,80.0
7645,81.0,60,192,7.0,80.0
7646,69.0,0,192,3.0,80.0
7647,62.0,0,192,4.0,80.0
7648,50.0,0,192,5.0,80.0
7649,81.0,0,192,1.0,80.0
7650,57.0,0,192,3.0,80.0
7651,62.0,0,96,10.0,80.0
7652,50.0,0,96,11.0,80.0
7653,38.0,60,96,12.0,80.0
7654,69.0,60,48,8.0,80.0
7655,66.0,0,288,2.0,80.0
7656,62.0,0,288,2.0,80.0
7657,66.0,0,48,8.0,80.0
7658,66.0,0,96,3.0,80.0
7659,78.0,0,96,0.0,80.0
7660,78.0,0,96,7.0,80.0
7661,38.0,0,96,12.0,80.0
7662,78.0,60,96,1.0,80.0
7663,54.0,0,96,3.0,80.0
7664,62.0,0,96,10.0,80.0
7665,50.0,0,96,11.0,80.0
7666,69.0,60,48,8.0,80.0
7667,67.0,0,48,8.0,80.0
7668,75.0,0,48,1.0,80.0
7669,75.0,0,48,7.0,80.0
7670,75.0,60,48,0.0,80.0
7671,45.0,0,96,11.0,80.0
7672,61.0,0,96,10.0,80.0
7673,64.0,0,96,2.0,80.0
7674,57.0,0,96,3.0,80.0
7675,64.0,0,96,3.0,80.0
7676,67.0,0,96,2.0,80.0
7677,33.0,0,96,12.0,80.0
7678,69.0,0,96,4.0,80.0
7679,76.0,0,48,0.0,80.0
7680,76.0,60,48,1.0,80.0
7681,76.0,0,48,7.0,80.0
7682,69.0,0,48,8.0,80.0
7683,67.0,0,48,8.0,80.0
7684,45.0,0,192,5.0,80.0
7685,76.0,60,96,7.0,80.0
7686,45.0,0,96,12.0,80.0
7687,76.0,0,96,0.0,80.0
7688,67.0,0,96,2.0,80.0
7689,57.0,0,96,11.0,80.0
7690,57.0,0,96,3.0,80.0
7691,64.0,0,96,3.0,80.0
7692,69.0,0,96,4.0,80.0
7693,61.0,0,96,10.0,80.0
7694,76.0,0,96,1.0,80.0
7695,64.0,0,96,2.0,80.0
7696,69.0,60,48,8.0,80.0
7697,67.0,0,48,8.0,80.0
7698,67.0,0,96,2.0,80.0
7699,64.0,0,96,2.0,80.0
7700,76.0,0,96,0.0,80.0
7701,45.0,0,96,12.0,80.0
7702,57.0,60,96,11.0,80.0
7703,76.0,0,96,1.0,80.0
7704,69.0,0,96,4.0,80.0
7705,61.0,0,96,10.0,80.0
7706,64.0,0,96,3.0,80.0
7707,76.0,0,96,7.0,80.0
7708,57.0,0,96,3.0,80.0
7709,69.0,60,48,8.0,80.0
7710,74.0,0,48,1.0,80.0
7711,67.0,0,48,8.0,80.0
7712,74.0,0,48,7.0,80.0
7713,74.0,0,48,0.0,80.0
7714,33.0,0,96,12.0,80.0
7715,61.0,0,96,2.0,80.0
7716,64.0,0,96,2.0,80.0
7717,57.0,0,96,3.0,80.0
7718,45.0,0,96,3.0,80.0
7719,45.0,0,96,11.0,80.0
7720,64.0,60,96,10.0,80.0
7721,69.0,0,96,4.0,80.0
7722,73.0,0,48,0.0,80.0
7723,69.0,0,48,8.0,80.0
7724,73.0,60,48,1.0,80.0
7725,73.0,0,48,7.0,80.0
7726,67.0,0,48,8.0,80.0
7727,45.0,0,192,5.0,80.0
7728,69.0,0,96,4.0,80.0
7729,73.0,0,96,1.0,80.0
7730,73.0,0,96,0.0,80.0
7731,64.0,0,96,10.0,80.0
7732,57.0,60,96,11.0,80.0
7733,45.0,0,96,12.0,80.0
7734,45.0,0,96,3.0,80.0
7735,57.0,0,96,3.0,80.0
7736,64.0,0,96,2.0,80.0
7737,61.0,0,96,2.0,80.0
7738,73.0,0,96,7.0,80.0
7739,69.0,60,48,8.0,80.0
7740,67.0,0,48,8.0,80.0
7741,69.0,0,96,4.0,80.0
7742,73.0,0,96,1.0,80.0
7743,61.0,0,96,2.0,80.0
7744,73.0,60,96,0.0,80.0
7745,64.0,0,96,10.0,80.0
7746,73.0,0,96,7.0,80.0
7747,57.0,0,96,3.0,80.0
7748,45.0,0,96,3.0,80.0
7749,57.0,0,96,11.0,80.0
7750,45.0,0,96,12.0,80.0
7751,64.0,0,96,2.0,80.0
7752,69.0,60,48,8.0,80.0
7753,66.0,0,48,8.0,80.0
7754,62.0,0,96,4.0,80.0
7755,74.0,0,96,4.0,80.0
7756,62.0,0,96,3.0,80.0
7757,50.0,0,96,3.0,80.0
7758,74.0,0,96,0.0,80.0
7759,74.0,0,96,1.0,80.0
7760,50.0,0,96,11.0,80.0
7761,74.0,0,96,7.0,80.0
7762,38.0,0,96,12.0,80.0
7763,62.0,0,96,10.0,80.0
7764,69.0,60,48,8.0,80.0
7765,66.0,0,48,8.0,80.0
7766,50.0,60,192,5.0,80.0
7767,38.0,0,96,12.0,80.0
7768,74.0,0,96,4.0,80.0
7769,57.0,0,96,10.0,80.0
7770,74.0,0,96,0.0,80.0
7771,62.0,60,96,3.0,80.0
7772,50.0,0,96,3.0,80.0
7773,50.0,0,96,11.0,80.0
7774,74.0,0,96,7.0,80.0
7775,62.0,0,96,4.0,80.0
7776,74.0,0,96,1.0,80.0
7777,69.0,60,48,8.0,80.0
7778,62.0,0,288,2.0,80.0
7779,54.0,0,288,2.0,80.0
7780,66.0,0,48,8.0,80.0
7781,38.0,0,96,12.0,80.0
7782,66.0,0,96,3.0,80.0
7783,78.0,0,96,1.0,80.0
7784,78.0,0,96,0.0,80.0
7785,50.0,60,96,11.0,80.0
7786,54.0,0,96,3.0,80.0
7787,62.0,0,96,10.0,80.0
7788,78.0,0,96,7.0,80.0
7789,69.0,60,48,8.0,80.0
7790,62.0,0,48,8.0,80.0
7791,62.0,0,96,4.0,80.0
7792,81.0,0,96,1.0,80.0
7793,81.0,0,96,0.0,80.0
7794,66.0,0,96,10.0,80.0
7795,38.0,0,96,12.0,80.0
7796,50.0,0,96,11.0,80.0
7797,81.0,0,96,7.0,80.0
7798,74.0,0,96,4.0,80.0
7799,57.0,60,96,3.0,80.0
7800,69.0,0,96,3.0,80.0
7801,69.0,60,48,8.0,80.0
7802,62.0,60,48,8.0,80.0
7803,50.0,0,192,5.0,80.0
7804,50.0,0,96,11.0,80.0
7805,62.0,0,96,4.0,80.0
7806,74.0,0,96,4.0,80.0
7807,81.0,0,96,0.0,80.0
7808,81.0,0,96,7.0,80.0
7809,69.0,0,96,3.0,80.0
7810,57.0,0,96,3.0,80.0
7811,66.0,0,96,10.0,80.0
7812,38.0,0,96,12.0,80.0
7813,81.0,0,96,1.0,80.0
7814,69.0,60,48,8.0,80.0
7815,62.0,0,288,2.0,80.0
7816,66.0,0,48,8.0,80.0
7817,66.0,0,288,2.0,80.0
7818,86.0,0,96,1.0,80.0
7819,38.0,0,96,12.0,80.0
7820,86.0,0,96,7.0,80.0
7821,50.0,0,96,11.0,80.0
7822,86.0,60,96,0.0,80.0
7823,69.0,0,96,10.0,80.0
7824,62.0,0,96,3.0,80.0
7825,66.0,0,96,3.0,80.0
7826,69.0,60,48,8.0,80.0
7827,85.0,0,96,0.0,80.0
7828,52.0,0,96,11.0,80.0
7829,85.0,0,96,7.0,80.0
7830,85.0,0,96,1.0,80.0
7831,64.0,0,96,8.0,80.0
7832,40.0,0,96,12.0,80.0
7833,64.0,0,96,3.0,80.0
7834,64.0,60,96,10.0,80.0
7835,85.0,0,48,7.0,80.0
7836,85.0,0,48,1.0,80.0
7837,64.0,120,48,8.0,80.0
7838,85.0,0,48,0.0,80.0
7839,61.0,0,192,2.0,80.0
7840,64.0,0,192,2.0,80.0
7841,64.0,0,96,10.0,80.0
7842,64.0,0,96,3.0,80.0
7843,52.0,0,96,11.0,80.0
7844,40.0,0,96,12.0,80.0
7845,66.0,0,48,8.0,80.0
7846,86.0,0,48,0.0,80.0
7847,86.0,0,48,1.0,80.0
7848,86.0,60,48,7.0,80.0
7849,76.0,0,288,4.0,80.0
7850,62.0,0,48,8.0,80.0
7851,83.0,0,48,0.0,80.0
7852,83.0,0,48,7.0,80.0
7853,83.0,0,48,1.0,80.0
7854,62.0,0,96,2.0,80.0
7855,64.0,0,96,3.0,80.0
7856,59.0,0,96,2.0,80.0
7857,64.0,0,96,10.0,80.0
7858,40.0,60,96,12.0,80.0
7859,52.0,0,96,11.0,80.0
7860,64.0,0,48,8.0,80.0
7861,85.0,0,48,7.0,80.0
7862,85.0,0,48,1.0,80.0
7863,85.0,60,48,0.0,80.0
7864,45.0,0,96,12.0,80.0
7865,57.0,0,96,11.0,80.0
7866,57.0,0,192,2.0,80.0
7867,64.0,0,192,10.0,80.0
7868,81.0,0,192,7.0,80.0
7869,64.0,0,192,3.0,80.0
7870,61.0,0,192,8.0,80.0
7871,69.0,0,192,4.0,80.0
7872,81.0,0,192,1.0,80.0
7873,61.0,0,192,2.0,80.0
7874,76.0,0,192,4.0,80.0
7875,57.0,60,192,3.0,80.0
7876,81.0,0,192,0.0,80.0
7877,45.0,0,192,5.0,80.0
7878,52.0,0,96,11.0,80.0
7879,40.0,120,96,12.0,80.0
7880,33.0,120,96,12.0,80.0
7881,45.0,0,96,11.0,80.0
7882,81.0,0,96,6.0,80.0
7883,86.0,120,48,6.0,80.0
7884,85.0,60,48,6.0,80.0
7885,57.0,120,288,6.0,80.0
7886,54.0,0,288,6.0,80.0
7887,62.0,0,288,6.0,80.0
7888,83.0,60,48,6.0,80.0
7889,81.0,60,48,6.0,80.0
7890,81.0,60,48,6.0,80.0
7891,80.0,60,48,6.0,80.0
7892,79.0,60,48,6.0,80.0
7893,83.0,60,48,6.0,80.0
7894,81.0,60,48,6.0,80.0
7895,61.0,0,288,6.0,80.0
7896,57.0,0,288,6.0,80.0
7897,52.0,0,288,6.0,80.0
7898,79.0,60,48,6.0,80.0
7899,79.0,0,48,6.0,80.0
7900,77.0,60,48,6.0,80.0
7901,78.0,60,48,6.0,80.0
7902,81.0,60,48,6.0,80.0
7903,62.0,0,288,6.0,80.0
7904,79.0,60,48,6.0,80.0
7905,50.0,0,288,6.0,80.0
7906,57.0,60,288,6.0,80.0
7907,78.0,60,48,6.0,80.0
7908,78.0,60,48,6.0,80.0
7909,75.0,60,48,6.0,80.0
7910,76.0,60,48,6.0,80.0
7911,79.0,60,48,6.0,80.0
7912,78.0,60,48,6.0,80.0
7913,57.0,0,288,6.0,80.0
7914,55.0,0,288,6.0,80.0
7915,61.0,0,288,6.0,80.0
7916,76.0,60,48,6.0,80.0
7917,74.0,0,48,6.0,80.0
7918,76.0,60,48,6.0,80.0
7919,78.0,60,48,6.0,80.0
7920,79.0,60,48,6.0,80.0
7921,81.0,60,48,6.0,80.0
7922,54.0,0,288,6.0,80.0
7923,62.0,60,288,6.0,80.0
7924,82.0,60,48,6.0,80.0
7925,83.0,60,48,6.0,80.0
7926,84.0,60,48,6.0,80.0
7927,85.0,60,48,6.0,80.0
7928,86.0,60,48,6.0,80.0
7929,83.0,60,48,6.0,80.0
7930,55.0,0,288,6.0,80.0
7931,62.0,0,288,6.0,80.0
7932,79.0,60,48,6.0,80.0
7933,78.0,60,48,6.0,80.0
7934,79.0,60,48,6.0,80.0
7935,80.0,60,48,6.0,80.0
7936,62.0,0,192,6.0,80.0
7937,81.0,60,48,6.0,80.0
7938,57.0,0,288,6.0,80.0
7939,79.0,60,48,6.0,80.0
7940,61.0,0,96,6.0,80.0
7941,76.0,60,48,6.0,80.0
7942,62.0,60,96,6.0,80.0
7943,74.0,0,192,6.0,80.0
7944,57.0,120,96,6.0,80.0
7945,50.0,120,96,6.0,80.0
7946,42.0,0,96,12.0,80.0
7947,66.0,120,96,10.0,80.0
7948,45.0,0,96,3.0,80.0
7949,54.0,0,96,2.0,80.0
7950,57.0,0,96,3.0,80.0
7951,54.0,0,96,11.0,80.0
7952,69.0,0,192,4.0,80.0
7953,81.0,0,192,0.0,80.0
7954,81.0,0,192,7.0,80.0
7955,45.0,0,192,5.0,80.0
7956,69.0,0,192,8.0,80.0
7957,81.0,0,192,1.0,80.0
7958,66.0,0,96,10.0,80.0
7959,54.0,0,96,11.0,80.0
7960,54.0,0,96,2.0,80.0
7961,42.0,0,96,12.0,80.0
7962,57.0,120,96,3.0,80.0
7963,45.0,0,96,3.0,80.0
7964,86.0,0,48,1.0,80.0
7965,74.0,0,48,8.0,80.0
7966,86.0,0,48,0.0,80.0
7967,86.0,0,48,7.0,80.0
7968,42.0,0,96,12.0,80.0
7969,57.0,120,96,3.0,80.0
7970,54.0,0,96,2.0,80.0
7971,54.0,0,96,11.0,80.0
7972,66.0,0,96,10.0,80.0
7973,45.0,0,96,3.0,80.0
7974,83.0,0,48,7.0,80.0
7975,71.0,60,48,8.0,80.0
7976,83.0,0,48,0.0,80.0
7977,83.0,0,48,1.0,80.0
7978,81.0,0,48,7.0,80.0
7979,81.0,0,48,1.0,80.0
7980,69.0,0,48,8.0,80.0
7981,81.0,0,48,0.0,80.0
7982,52.0,0,96,2.0,80.0
7983,64.0,0,96,10.0,80.0
7984,57.0,0,96,3.0,80.0
7985,45.0,0,96,3.0,80.0
7986,40.0,0,96,12.0,80.0
7987,52.0,60,96,11.0,80.0
7988,79.0,0,48,0.0,80.0
7989,79.0,0,48,1.0,80.0
7990,79.0,0,48,7.0,80.0
7991,67.0,60,48,8.0,80.0
7992,69.0,0,192,4.0,80.0
7993,45.0,0,192,5.0,80.0
7994,45.0,0,96,3.0,80.0
7995,52.0,0,96,11.0,80.0
7996,52.0,0,96,2.0,80.0
7997,79.0,0,96,7.0,80.0
7998,67.0,0,96,8.0,80.0
7999,40.0,0,96,12.0,80.0
8000,79.0,0,96,1.0,80.0
8001,79.0,0,96,0.0,80.0
8002,64.0,0,96,10.0,80.0
8003,57.0,60,96,3.0,80.0
8004,83.0,0,48,7.0,80.0
8005,71.0,0,48,8.0,80.0
8006,83.0,0,48,1.0,80.0
8007,83.0,0,48,0.0,80.0
8008,52.0,0,96,11.0,80.0
8009,57.0,0,96,3.0,80.0
8010,45.0,120,96,3.0,80.0
8011,52.0,0,96,2.0,80.0
8012,64.0,0,96,10.0,80.0
8013,40.0,0,96,12.0,80.0
8014,79.0,0,48,1.0,80.0
8015,67.0,0,48,8.0,80.0
8016,79.0,0,48,7.0,80.0
8017,79.0,60,48,0.0,80.0
8018,79.0,0,48,7.0,80.0
8019,79.0,0,48,0.0,80.0
8020,79.0,0,48,1.0,80.0
8021,67.0,0,48,8.0,80.0
8022,50.0,0,96,2.0,80.0
8023,50.0,0,96,11.0,80.0
8024,57.0,0,96,3.0,80.0
8025,62.0,0,96,10.0,80.0
8026,38.0,0,96,12.0,80.0
8027,45.0,0,96,3.0,80.0
8028,78.0,0,48,7.0,80.0
8029,78.0,0,48,1.0,80.0
8030,78.0,60,48,0.0,80.0
8031,66.0,0,48,8.0,80.0
8032,45.0,60,192,5.0,80.0
8033,69.0,0,192,4.0,80.0
8034,78.0,0,96,0.0,80.0
8035,78.0,0,96,7.0,80.0
8036,45.0,0,96,3.0,80.0
8037,57.0,0,96,3.0,80.0
8038,66.0,0,96,8.0,80.0
8039,78.0,0,96,1.0,80.0
8040,50.0,0,96,11.0,80.0
8041,62.0,60,96,10.0,80.0
8042,50.0,0,96,2.0,80.0
8043,38.0,0,96,12.0,80.0
8044,69.0,0,48,8.0,80.0
8045,81.0,0,48,1.0,80.0
8046,81.0,120,48,7.0,80.0
8047,81.0,0,48,0.0,80.0
8048,62.0,0,96,10.0,80.0
8049,45.0,0,96,3.0,80.0
8050,50.0,0,96,11.0,80.0
8051,57.0,0,96,3.0,80.0
8052,50.0,0,96,2.0,80.0
8053,38.0,0,96,12.0,80.0
8054,78.0,0,48,7.0,80.0
8055,66.0,0,48,8.0,80.0
8056,78.0,0,48,0.0,80.0
8057,78.0,60,48,1.0,80.0
8058,78.0,0,48,0.0,80.0
8059,78.0,0,48,7.0,80.0
8060,66.0,0,48,8.0,80.0
8061,78.0,0,48,1.0,80.0
8062,43.0,0,96,12.0,80.0
8063,45.0,0,96,3.0,80.0
8064,57.0,0,96,3.0,80.0
8065,55.0,0,96,2.0,80.0
8066,67.0,60,96,10.0,80.0
8067,55.0,0,96,11.0,80.0
8068,76.0,0,48,0.0,80.0
8069,76.0,0,48,7.0,80.0
8070,76.0,0,48,1.0,80.0
8071,64.0,60,48,8.0,80.0
8072,45.0,0,192,5.0,80.0
8073,69.0,0,192,4.0,80.0
8074,57.0,0,96,3.0,80.0
8075,76.0,0,96,0.0,80.0
8076,43.0,0,96,12.0,80.0
8077,64.0,0,96,8.0,80.0
8078,55.0,60,96,2.0,80.0
8079,76.0,0,96,7.0,80.0
8080,55.0,0,96,11.0,80.0
8081,45.0,0,96,3.0,80.0
8082,67.0,0,96,10.0,80.0
8083,76.0,0,96,1.0,80.0
8084,79.0,0,48,7.0,80.0
8085,79.0,0,48,1.0,80.0
8086,67.0,120,48,8.0,80.0
8087,79.0,0,48,0.0,80.0
8088,45.0,0,96,3.0,80.0
8089,55.0,0,96,11.0,80.0
8090,57.0,0,96,3.0,80.0
8091,55.0,0,96,2.0,80.0
8092,43.0,0,96,12.0,80.0
8093,67.0,0,96,10.0,80.0
8094,76.0,0,48,0.0,80.0
8095,76.0,0,48,1.0,80.0
8096,76.0,60,48,7.0,80.0
8097,64.0,0,48,8.0,80.0
8098,74.0,0,48,8.0,80.0
8099,62.0,0,48,8.0,80.0
8100,42.0,0,96,12.0,80.0
8101,74.0,0,96,1.0,80.0
8102,54.0,0,96,2.0,80.0
8103,74.0,0,96,7.0,80.0
8104,50.0,0,96,3.0,80.0
8105,62.0,0,96,3.0,80.0
8106,54.0,60,96,11.0,80.0
8107,74.0,0,96,0.0,80.0
8108,74.0,0,96,4.0,80.0
8109,66.0,0,96,10.0,80.0
8110,62.0,0,96,4.0,80.0
8111,74.0,60,48,8.0,80.0
8112,62.0,0,48,8.0,80.0
8113,62.0,0,48,8.0,80.0
8114,74.0,60,48,8.0,80.0
8115,50.0,0,192,5.0,80.0
8116,81.0,0,96,7.0,80.0
8117,54.0,0,96,2.0,80.0
8118,54.0,0,96,11.0,80.0
8119,81.0,0,96,1.0,80.0
8120,42.0,0,96,12.0,80.0
8121,50.0,0,96,3.0,80.0
8122,62.0,0,96,3.0,80.0
8123,66.0,0,96,10.0,80.0
8124,62.0,0,96,4.0,80.0
8125,74.0,0,96,4.0,80.0
8126,81.0,0,96,0.0,80.0
8127,74.0,60,48,8.0,80.0
8128,62.0,0,48,8.0,80.0
8129,62.0,0,48,8.0,80.0
8130,74.0,0,48,8.0,80.0
8131,81.0,0,96,1.0,80.0
8132,42.0,0,96,12.0,80.0
8133,81.0,0,96,7.0,80.0
8134,54.0,0,96,2.0,80.0
8135,81.0,0,96,0.0,80.0
8136,50.0,0,96,3.0,80.0
8137,62.0,0,96,3.0,80.0
8138,54.0,60,96,11.0,80.0
8139,66.0,0,96,10.0,80.0
8140,74.0,0,48,8.0,80.0
8141,62.0,60,48,8.0,80.0
8142,74.0,0,48,8.0,80.0
8143,62.0,0,48,8.0,80.0
8144,55.0,0,96,11.0,80.0
8145,43.0,60,96,12.0,80.0
8146,55.0,0,96,2.0,80.0
8147,67.0,0,96,10.0,80.0
8148,50.0,0,96,3.0,80.0
8149,83.0,0,96,1.0,80.0
8150,74.0,0,96,4.0,80.0
8151,62.0,0,96,3.0,80.0
8152,83.0,0,96,0.0,80.0
8153,62.0,0,96,4.0,80.0
8154,83.0,0,96,7.0,80.0
8155,62.0,0,48,8.0,80.0
8156,74.0,60,48,8.0,80.0
8157,62.0,0,48,8.0,80.0
8158,74.0,0,48,8.0,80.0
8159,50.0,0,192,5.0,80.0
8160,86.0,0,96,7.0,80.0
8161,43.0,0,96,12.0,80.0
8162,55.0,0,96,11.0,80.0
8163,86.0,0,96,0.0,80.0
8164,62.0,60,96,3.0,80.0
8165,50.0,0,96,3.0,80.0
8166,62.0,0,96,4.0,80.0
8167,74.0,0,96,4.0,80.0
8168,86.0,0,96,1.0,80.0
8169,55.0,0,96,2.0,80.0
8170,71.0,0,96,10.0,80.0
8171,62.0,0,48,8.0,80.0
8172,74.0,60,48,8.0,80.0
8173,62.0,0,48,8.0,80.0
8174,74.0,0,48,8.0,80.0
8175,55.0,0,96,11.0,80.0
8176,43.0,0,96,12.0,80.0
8177,71.0,0,96,10.0,80.0
8178,86.0,0,96,0.0,80.0
8179,55.0,0,96,2.0,80.0
8180,62.0,60,96,3.0,80.0
8181,50.0,0,96,3.0,80.0
8182,86.0,0,96,1.0,80.0
8183,86.0,0,96,7.0,80.0
8184,62.0,0,48,8.0,80.0
8185,74.0,60,48,8.0,80.0
8186,69.0,0,96,10.0,80.0
8187,57.0,0,96,11.0,80.0
8188,45.0,60,96,12.0,80.0
8189,45.0,0,96,5.0,80.0
8190,57.0,0,96,2.0,80.0
8191,69.0,0,96,4.0,80.0
8192,66.0,0,192,3.0,80.0
8193,62.0,0,192,3.0,80.0
8194,74.0,0,192,8.0,80.0
8195,78.0,0,192,0.0,80.0
8196,78.0,0,192,7.0,80.0
8197,74.0,0,192,1.0,80.0
8198,78.0,0,192,1.0,80.0
8199,57.0,120,96,2.0,80.0
8200,57.0,0,96,11.0,80.0
8201,45.0,0,96,5.0,80.0
8202,45.0,0,96,12.0,80.0
8203,69.0,0,96,4.0,80.0
8204,69.0,0,96,10.0,80.0
8205,76.0,0,48,1.0,80.0
8206,79.0,0,48,1.0,80.0
8207,76.0,0,48,8.0,80.0
8208,79.0,0,48,7.0,80.0
8209,79.0,0,48,0.0,80.0
8210,57.0,0,96,2.0,80.0
8211,57.0,0,96,11.0,80.0
8212,57.0,0,96,3.0,80.0
8213,64.0,0,96,3.0,80.0
8214,69.0,0,96,10.0,80.0
8215,69.0,120,96,4.0,80.0
8216,45.0,0,96,5.0,80.0
8217,45.0,0,96,12.0,80.0
8218,73.0,60,48,1.0,80.0
8219,76.0,0,48,0.0,80.0
8220,73.0,0,48,8.0,80.0
8221,76.0,0,48,7.0,80.0
8222,76.0,0,48,1.0,80.0
8223,62.0,0,48,6.0,80.0
8224,62.0,0,96,3.0,80.0
8225,50.0,0,96,3.0,80.0
8226,61.0,60,48,6.0,80.0
8227,62.0,60,48,6.0,80.0
8228,38.0,0,192,12.0,80.0
8229,66.0,0,192,4.0,80.0
8230,69.0,0,192,4.0,80.0
8231,74.0,0,192,0.0,80.0
8232,50.0,0,192,2.0,80.0
8233,74.0,0,192,8.0,80.0
8234,66.0,0,192,10.0,80.0
8235,50.0,60,192,11.0,80.0
8236,74.0,0,192,1.0,80.0
8237,74.0,0,192,7.0,80.0
8238,50.0,0,192,5.0,80.0
8239,66.0,0,96,3.0,80.0
8240,54.0,0,96,3.0,80.0
8241,64.0,60,48,6.0,80.0
8242,66.0,60,48,6.0,80.0
8243,62.0,0,96,3.0,80.0
8244,50.0,0,96,3.0,80.0
8245,62.0,60,48,6.0,80.0
8246,57.0,0,48,6.0,80.0
8247,69.0,60,48,6.0,80.0
8248,61.0,60,48,6.0,80.0
8249,69.0,60,48,6.0,80.0
8250,62.0,60,48,6.0,80.0
8251,69.0,60,48,6.0,80.0
8252,64.0,60,48,6.0,80.0
8253,79.0,0,456,6.0,80.0
8254,69.0,60,48,6.0,80.0
8255,78.0,60,48,6.0,80.0
8256,66.0,0,48,6.0,80.0
8257,69.0,60,48,6.0,80.0
8258,76.0,0,48,6.0,80.0
8259,74.0,0,48,6.0,80.0
8260,67.0,60,48,6.0,80.0
8261,69.0,60,48,6.0,80.0
8262,73.0,0,48,6.0,80.0
8263,66.0,60,48,6.0,80.0
8264,74.0,0,96,6.0,80.0
8265,69.0,60,48,6.0,80.0
8266,62.0,0,48,6.0,80.0
8267,78.0,60,96,6.0,80.0
8268,69.0,60,48,6.0,80.0
8269,66.0,60,48,6.0,80.0
8270,81.0,0,96,6.0,80.0
8271,69.0,60,48,6.0,80.0
8272,62.0,60,48,6.0,80.0
8273,81.0,0,96,6.0,80.0
8274,69.0,60,48,6.0,80.0
8275,66.0,0,48,6.0,80.0
8276,81.0,60,96,6.0,80.0
8277,69.0,60,48,6.0,80.0
8278,62.0,0,48,6.0,80.0
8279,86.0,60,96,6.0,80.0
8280,69.0,60,48,6.0,80.0
8281,64.0,0,48,6.0,80.0
8282,86.0,60,96,6.0,80.0
8283,69.0,60,48,6.0,80.0
8284,67.0,0,48,6.0,80.0
8285,69.0,60,48,6.0,80.0
8286,64.0,60,48,6.0,80.0
8287,69.0,60,48,6.0,80.0
8288,67.0,60,48,6.0,80.0
8289,85.0,60,336,6.0,80.0
8290,69.0,60,48,6.0,80.0
8291,64.0,0,48,6.0,80.0
8292,83.0,60,48,6.0,80.0
8293,81.0,0,48,6.0,80.0
8294,69.0,60,48,6.0,80.0
8295,83.0,60,48,6.0,80.0
8296,67.0,0,48,6.0,80.0
8297,69.0,60,48,6.0,80.0
8298,85.0,0,48,6.0,80.0
8299,66.0,60,48,6.0,80.0
8300,69.0,60,48,6.0,80.0
8301,68.0,0,48,6.0,80.0
8302,69.0,0,96,8.0,80.0
8303,81.0,60,96,7.0,80.0
8304,69.0,60,48,6.0,80.0
8305,67.0,0,48,6.0,80.0
8306,86.0,0,288,6.0,80.0
8307,67.0,60,96,8.0,80.0
8308,79.0,0,96,7.0,80.0
8309,69.0,60,48,6.0,80.0
8310,66.0,60,48,6.0,80.0
8311,81.0,0,96,6.0,80.0
8312,66.0,0,96,8.0,80.0
8313,78.0,0,96,7.0,80.0
8314,69.0,60,48,6.0,80.0
8315,64.0,0,48,6.0,80.0
8316,64.0,0,96,8.0,80.0
8317,76.0,60,96,7.0,80.0
8318,69.0,60,48,6.0,80.0
8319,62.0,60,48,6.0,80.0
8320,74.0,0,96,7.0,80.0
8321,62.0,0,96,8.0,80.0
8322,69.0,60,48,6.0,80.0
8323,57.0,0,48,6.0,80.0
8324,45.0,60,2976,3.0,80.0
8325,57.0,60,96,8.0,80.0
8326,57.0,0,2976,3.0,80.0
8327,69.0,0,96,7.0,80.0
8328,69.0,60,48,6.0,80.0
8329,61.0,60,48,6.0,80.0
8330,69.0,60,48,6.0,80.0
8331,62.0,60,48,6.0,80.0
8332,69.0,60,48,6.0,80.0
8333,64.0,60,48,6.0,80.0
8334,79.0,0,456,6.0,80.0
8335,69.0,60,48,6.0,80.0
8336,66.0,0,48,6.0,80.0
8337,78.0,60,48,6.0,80.0
8338,69.0,60,48,6.0,80.0
8339,76.0,0,48,6.0,80.0
8340,67.0,60,48,6.0,80.0
8341,74.0,0,48,6.0,80.0
8342,73.0,0,48,6.0,80.0
8343,69.0,60,48,6.0,80.0
8344,66.0,0,48,6.0,80.0
8345,74.0,60,96,6.0,80.0
8346,69.0,60,48,6.0,80.0
8347,62.0,60,48,6.0,80.0
8348,78.0,0,96,6.0,80.0
8349,69.0,60,48,6.0,80.0
8350,66.0,0,48,6.0,80.0
8351,81.0,60,96,6.0,80.0
8352,69.0,60,48,6.0,80.0
8353,62.0,0,48,6.0,80.0
8354,81.0,60,96,6.0,80.0
8355,69.0,60,48,6.0,80.0
8356,66.0,60,48,6.0,80.0
8357,86.0,0,96,6.0,80.0
8358,69.0,60,48,6.0,80.0
8359,62.0,0,48,6.0,80.0
8360,81.0,60,96,6.0,80.0
8361,69.0,60,48,6.0,80.0
8362,64.0,60,48,6.0,80.0
8363,69.0,60,48,6.0,80.0
8364,67.0,60,48,6.0,80.0
8365,69.0,60,48,6.0,80.0
8366,81.0,0,1728,0.0,80.0
8367,69.0,0,1728,1.0,80.0
8368,81.0,0,1728,1.0,80.0
8369,57.0,0,1728,2.0,80.0
8370,64.0,60,48,6.0,80.0
8371,69.0,60,48,6.0,80.0
8372,67.0,0,48,6.0,80.0
8373,81.0,0,456,6.0,80.0
8374,69.0,60,48,6.0,80.0
8375,64.0,60,48,6.0,80.0
8376,79.0,0,96,6.0,80.0
8377,69.0,60,48,6.0,80.0
8378,73.0,0,288,1.0,80.0
8379,79.0,0,288,1.0,80.0
8380,85.0,60,288,0.0,80.0
8381,64.0,0,288,3.0,80.0
8382,57.0,0,288,3.0,80.0
8383,45.0,0,288,2.0,80.0
8384,67.0,60,48,6.0,80.0
8385,76.0,0,96,6.0,80.0
8386,69.0,60,48,6.0,80.0
8387,50.0,0,96,2.0,80.0
8388,78.0,0,96,1.0,80.0
8389,78.0,0,96,8.0,80.0
8390,74.0,0,96,1.0,80.0
8391,74.0,0,96,10.0,80.0
8392,62.0,0,96,3.0,80.0
8393,54.0,60,96,3.0,80.0
8394,86.0,0,96,0.0,80.0
8395,66.0,0,192,6.0,80.0
8396,74.0,0,192,6.0,80.0
8397,78.0,0,96,8.0,80.0
8398,74.0,120,96,10.0,80.0
8399,78.0,120,96,8.0,80.0
8400,74.0,0,96,10.0,80.0
8401,78.0,120,96,8.0,80.0
8402,74.0,0,96,10.0,80.0
8403,81.0,0,192,7.0,80.0
8404,74.0,0,96,10.0,80.0
8405,78.0,120,96,8.0,80.0
8406,78.0,0,96,8.0,80.0
8407,74.0,0,96,10.0,80.0
8408,86.0,120,96,7.0,80.0
8409,85.0,120,96,7.0,80.0
8410,81.0,0,96,8.0,80.0
8411,76.0,0,96,10.0,80.0
8412,81.0,0,96,8.0,80.0
8413,85.0,0,96,7.0,80.0
8414,76.0,120,96,10.0,80.0
8415,85.0,0,48,7.0,80.0
8416,81.0,120,96,8.0,80.0
8417,76.0,0,96,10.0,80.0
8418,86.0,60,48,7.0,80.0
8419,83.0,0,96,7.0,80.0
8420,80.0,0,96,8.0,80.0
8421,74.0,60,96,10.0,80.0
8422,64.0,0,96,10.0,80.0
8423,64.0,0,96,10.0,80.0
8424,80.0,0,96,8.0,80.0
8425,74.0,0,96,10.0,80.0
8426,83.0,120,96,7.0,80.0
8427,83.0,0,48,7.0,80.0
8428,80.0,0,96,8.0,80.0
8429,64.0,0,96,10.0,80.0
8430,74.0,120,96,10.0,80.0
8431,85.0,60,48,7.0,80.0
8432,81.0,60,192,8.0,80.0
8433,81.0,0,192,7.0,80.0
8434,69.0,0,192,10.0,80.0
8435,73.0,0,192,10.0,80.0
8436,67.0,0,96,8.0,80.0
8437,62.0,0,96,10.0,80.0
8438,59.0,360,96,11.0,80.0
8439,74.0,0,192,7.0,80.0
8440,62.0,0,96,10.0,80.0
8441,59.0,0,96,11.0,80.0
8442,67.0,120,96,8.0,80.0
8443,62.0,0,96,10.0,80.0
8444,59.0,0,96,11.0,80.0
8445,79.0,120,96,7.0,80.0
8446,67.0,0,96,8.0,80.0
8447,57.0,0,96,11.0,80.0
8448,69.0,0,96,10.0,80.0
8449,74.0,0,96,8.0,80.0
8450,78.0,120,96,7.0,80.0
8451,57.0,120,96,11.0,80.0
8452,69.0,0,96,10.0,80.0
8453,74.0,0,96,8.0,80.0
8454,78.0,0,96,7.0,80.0
8455,78.0,0,48,7.0,80.0
8456,69.0,0,96,10.0,80.0
8457,57.0,120,96,11.0,80.0
8458,74.0,0,96,8.0,80.0
8459,79.0,60,48,7.0,80.0
8460,73.0,0,96,8.0,80.0
8461,45.0,0,96,11.0,80.0
8462,67.0,0,96,10.0,80.0
8463,76.0,60,96,7.0,80.0
8464,76.0,0,96,7.0,80.0
8465,73.0,0,96,8.0,80.0
8466,67.0,0,96,10.0,80.0
8467,45.0,120,96,11.0,80.0
8468,76.0,120,48,7.0,80.0
8469,73.0,0,96,8.0,80.0
8470,67.0,0,96,10.0,80.0
8471,45.0,0,96,11.0,80.0
8472,78.0,60,48,7.0,80.0
8473,74.0,0,48,6.0,80.0
8474,76.0,60,48,6.0,80.0
8475,77.0,60,48,6.0,80.0
8476,50.0,0,192,11.0,80.0
8477,66.0,0,192,10.0,80.0
8478,74.0,0,192,8.0,80.0
8479,74.0,60,192,7.0,80.0
8480,78.0,60,48,6.0,80.0
8481,79.0,60,48,6.0,80.0
8482,80.0,60,48,6.0,80.0
8483,69.0,0,96,6.0,80.0
8484,66.0,0,96,6.0,80.0
8485,69.0,0,192,1.0,80.0
8486,57.0,0,192,2.0,80.0
8487,81.0,0,192,6.0,80.0
8488,81.0,0,192,0.0,80.0
8489,69.0,0,192,7.0,80.0
8490,69.0,120,96,6.0,80.0
8491,66.0,0,96,6.0,80.0
8492,54.0,60,288,11.0,80.0
8493,42.0,0,288,12.0,80.0
8494,62.0,0,288,8.0,80.0
8495,57.0,0,288,10.0,80.0
8496,86.0,120,96,0.0,80.0
8497,69.0,0,96,6.0,80.0
8498,66.0,0,96,6.0,80.0
8499,86.0,0,96,6.0,80.0
8500,62.0,0,96,2.0,80.0
8501,74.0,0,96,7.0,80.0
8502,74.0,0,96,1.0,80.0
8503,73.0,0,96,1.0,80.0
8504,85.0,0,96,0.0,80.0
8505,61.0,0,96,2.0,80.0
8506,85.0,0,96,6.0,80.0
8507,73.0,120,96,7.0,80.0
8508,69.0,0,192,6.0,80.0
8509,64.0,0,192,6.0,80.0
8510,73.0,0,96,7.0,80.0
8511,85.0,0,96,0.0,80.0
8512,73.0,0,96,1.0,80.0
8513,61.0,0,96,2.0,80.0
8514,85.0,120,96,6.0,80.0
8515,73.0,0,48,7.0,80.0
8516,69.0,0,288,8.0,80.0
8517,73.0,0,48,1.0,80.0
8518,85.0,0,48,6.0,80.0
8519,64.0,0,288,10.0,80.0
8520,61.0,0,48,2.0,80.0
8521,85.0,120,48,0.0,80.0
8522,86.0,0,48,6.0,80.0
8523,62.0,0,48,2.0,80.0
8524,74.0,60,48,7.0,80.0
8525,74.0,0,48,1.0,80.0
8526,86.0,0,48,0.0,80.0
8527,83.0,0,96,6.0,80.0
8528,71.0,0,96,7.0,80.0
8529,71.0,0,96,1.0,80.0
8530,59.0,0,96,2.0,80.0
8531,83.0,0,96,0.0,80.0
8532,68.0,0,192,6.0,80.0
8533,74.0,0,192,6.0,80.0
8534,64.0,0,192,6.0,80.0
8535,71.0,0,96,1.0,80.0
8536,71.0,0,96,7.0,80.0
8537,83.0,0,96,0.0,80.0
8538,59.0,0,96,2.0,80.0
8539,83.0,120,96,6.0,80.0
8540,59.0,120,48,2.0,80.0
8541,62.0,0,288,10.0,80.0
8542,40.0,0,648,12.0,80.0
8543,83.0,0,48,6.0,80.0
8544,71.0,0,48,7.0,80.0
8545,83.0,0,48,0.0,80.0
8546,71.0,0,48,1.0,80.0
8547,52.0,0,648,11.0,80.0
8548,68.0,60,288,8.0,80.0
8549,73.0,60,48,7.0,80.0
8550,85.0,0,48,6.0,80.0
8551,61.0,0,48,2.0,80.0
8552,73.0,0,48,1.0,80.0
8553,85.0,0,48,0.0,80.0
8554,81.0,0,48,6.0,80.0
8555,80.0,60,48,6.0,80.0
8556,79.0,60,48,6.0,80.0
8557,69.0,0,192,6.0,80.0
8558,57.0,0,192,2.0,80.0
8559,69.0,0,192,1.0,80.0
8560,69.0,0,192,7.0,80.0
8561,73.0,0,192,6.0,80.0
8562,81.0,60,192,0.0,80.0
8563,78.0,60,48,6.0,80.0
8564,77.0,60,48,6.0,80.0
8565,69.0,0,288,8.0,80.0
8566,33.0,0,288,12.0,80.0
8567,61.0,0,288,10.0,80.0
8568,45.0,0,288,11.0,80.0
8569,76.0,60,48,6.0,80.0
8570,59.0,0,96,6.0,80.0
8571,62.0,0,96,6.0,80.0
8572,62.0,60,192,7.0,80.0
8573,86.0,0,192,0.0,80.0
8574,74.0,0,192,6.0,80.0
8575,74.0,0,192,1.0,80.0
8576,62.0,0,192,2.0,80.0
8577,50.0,0,192,2.0,80.0
8578,62.0,0,96,6.0,80.0
8579,59.0,120,96,6.0,80.0
8580,35.0,0,288,12.0,80.0
8581,50.0,0,288,10.0,80.0
8582,47.0,0,288,11.0,80.0
8583,55.0,0,288,8.0,80.0
8584,79.0,0,96,6.0,80.0
8585,59.0,0,96,6.0,80.0
8586,67.0,120,96,7.0,80.0
8587,91.0,0,96,0.0,80.0
8588,67.0,0,96,2.0,80.0
8589,55.0,0,96,2.0,80.0
8590,62.0,0,96,6.0,80.0
8591,79.0,0,96,1.0,80.0
8592,90.0,0,96,0.0,80.0
8593,78.0,120,96,1.0,80.0
8594,66.0,0,96,7.0,80.0
8595,54.0,0,96,2.0,80.0
8596,66.0,0,96,2.0,80.0
8597,78.0,0,96,6.0,80.0
8598,57.0,0,192,6.0,80.0
8599,62.0,0,192,6.0,80.0
8600,66.0,0,96,7.0,80.0
8601,90.0,0,96,0.0,80.0
8602,78.0,0,96,6.0,80.0
8603,66.0,0,96,2.0,80.0
8604,54.0,120,96,2.0,80.0
8605,78.0,0,96,1.0,80.0
8606,54.0,0,48,2.0,80.0
8607,78.0,0,48,6.0,80.0
8608,66.0,120,48,7.0,80.0
8609,66.0,0,48,2.0,80.0
8610,62.0,0,288,8.0,80.0
8611,78.0,0,48,1.0,80.0
8612,57.0,0,288,10.0,80.0
8613,90.0,0,96,0.0,80.0
8614,67.0,0,48,7.0,80.0
8615,79.0,0,48,1.0,80.0
8616,67.0,60,48,2.0,80.0
8617,55.0,0,48,2.0,80.0
8618,79.0,0,48,6.0,80.0
8619,76.0,0,96,6.0,80.0
8620,64.0,60,96,7.0,80.0
8621,76.0,0,96,1.0,80.0
8622,88.0,0,96,0.0,80.0
8623,52.0,0,96,2.0,80.0
8624,64.0,0,96,2.0,80.0
8625,61.0,0,192,6.0,80.0
8626,67.0,0,192,6.0,80.0
8627,57.0,0,192,6.0,80.0
8628,76.0,0,96,6.0,80.0
8629,88.0,0,96,0.0,80.0
8630,64.0,0,96,7.0,80.0
8631,76.0,120,96,1.0,80.0
8632,52.0,0,96,2.0,80.0
8633,64.0,0,96,2.0,80.0
8634,61.0,0,288,8.0,80.0
8635,52.0,0,48,2.0,80.0
8636,33.0,0,648,12.0,80.0
8637,64.0,0,48,2.0,80.0
8638,76.0,0,48,6.0,80.0
8639,64.0,0,48,7.0,80.0
8640,45.0,0,648,11.0,80.0
8641,76.0,0,48,1.0,80.0
8642,88.0,120,96,0.0,80.0
8643,66.0,12,48,2.0,80.0
8644,78.0,0,48,1.0,80.0
8645,54.0,0,48,2.0,80.0
8646,78.0,0,48,6.0,80.0
8647,66.0,0,48,7.0,80.0
8648,62.0,0,48,6.0,80.0
8649,74.0,60,48,6.0,80.0
8650,69.0,0,48,6.0,80.0
8651,57.0,60,48,6.0,80.0
8652,54.0,0,48,6.0,80.0
8653,66.0,60,48,6.0,80.0
8654,54.0,0,192,10.0,80.0
8655,62.0,0,192,2.0,80.0
8656,38.0,0,192,12.0,80.0
8657,50.0,0,192,2.0,80.0
8658,62.0,0,192,8.0,80.0
8659,74.0,0,192,1.0,80.0
8660,50.0,0,192,11.0,80.0
8661,62.0,0,192,7.0,80.0
8662,86.0,0,192,0.0,80.0
8663,57.0,0,48,6.0,80.0
8664,69.0,60,48,6.0,80.0
8665,62.0,0,48,6.0,80.0
8666,74.0,60,48,6.0,80.0
8667,69.0,60,48,6.0,80.0
8668,57.0,0,48,6.0,80.0
8669,78.0,60,48,6.0,80.0
8670,66.0,0,48,6.0,80.0
8671,74.0,0,48,6.0,80.0
8672,62.0,60,48,6.0,80.0
8673,81.0,60,48,6.0,80.0
8674,69.0,0,48,6.0,80.0
8675,66.0,0,48,6.0,80.0
8676,78.0,60,48,6.0,80.0
8677,74.0,0,48,6.0,80.0
8678,86.0,0,48,6.0,80.0
8679,78.0,0,96,1.0,80.0
8680,50.0,0,96,5.0,80.0
8681,38.0,0,96,12.0,80.0
8682,78.0,0,96,8.0,80.0
8683,69.0,0,96,8.0,80.0
8684,62.0,0,96,8.0,80.0
8685,62.0,0,96,4.0,80.0
8686,74.0,0,96,4.0,80.0
8687,81.0,0,96,0.0,80.0
8688,69.0,0,96,1.0,80.0
8689,62.0,0,96,10.0,80.0
8690,62.0,0,96,3.0,80.0
8691,50.0,60,96,2.0,80.0
8692,50.0,0,96,11.0,80.0
8693,50.0,0,96,3.0,80.0
8694,74.0,0,96,7.0,80.0
8695,62.0,0,96,7.0,80.0
8696,81.0,0,96,7.0,80.0
8697,81.0,0,48,6.0,80.0
8698,69.0,60,48,6.0,80.0
8699,71.0,0,48,6.0,80.0
8700,83.0,0,48,6.0,80.0
8701,86.0,60,48,6.0,80.0
8702,74.0,0,48,6.0,80.0
8703,79.0,60,48,6.0,80.0
8704,67.0,0,48,6.0,80.0
8705,62.0,0,192,3.0,80.0
8706,50.0,0,192,3.0,80.0
8707,79.0,0,192,8.0,80.0
8708,74.0,0,192,4.0,80.0
8709,83.0,0,192,0.0,80.0
8710,50.0,0,192,5.0,80.0
8711,62.0,0,192,8.0,80.0
8712,71.0,0,192,8.0,80.0
8713,43.0,60,192,12.0,80.0
8714,71.0,0,192,1.0,80.0
8715,79.0,0,192,1.0,80.0
8716,55.0,0,192,11.0,80.0
8717,74.0,0,192,7.0,80.0
8718,62.0,0,192,7.0,80.0
8719,83.0,0,192,7.0,80.0
8720,67.0,0,192,10.0,80.0
8721,62.0,0,192,4.0,80.0
8722,55.0,0,192,2.0,80.0
8723,71.0,60,48,6.0,80.0
8724,83.0,0,48,6.0,80.0
8725,76.0,60,48,6.0,80.0
8726,64.0,0,48,6.0,80.0
8727,67.0,0,48,6.0,80.0
8728,79.0,60,48,6.0,80.0
8729,61.0,0,48,6.0,80.0
8730,73.0,60,48,6.0,80.0
8731,76.0,60,48,6.0,80.0
8732,64.0,0,48,6.0,80.0
8733,55.0,60,48,6.0,80.0
8734,67.0,0,48,6.0,80.0
8735,59.0,60,48,6.0,80.0
8736,71.0,0,48,6.0,80.0
8737,61.0,0,48,6.0,80.0
8738,73.0,0,48,6.0,80.0
8739,69.0,0,96,10.0,80.0
8740,76.0,0,96,1.0,80.0
8741,73.0,0,96,1.0,80.0
8742,45.0,0,96,12.0,80.0
8743,64.0,0,96,3.0,80.0
8744,73.0,0,96,8.0,80.0
8745,76.0,0,96,8.0,80.0
8746,57.0,0,96,3.0,80.0
8747,81.0,0,96,7.0,80.0
8748,57.0,0,96,2.0,80.0
8749,64.0,60,96,7.0,80.0
8750,73.0,0,96,7.0,80.0
8751,69.0,0,96,4.0,80.0
8752,81.0,0,96,0.0,80.0
8753,57.0,0,96,11.0,80.0
8754,45.0,0,96,5.0,80.0
8755,69.0,0,96,8.0,80.0
8756,76.0,0,96,4.0,80.0
8757,69.0,0,48,6.0,80.0
8758,57.0,60,48,6.0,80.0
8759,62.0,60,48,6.0,80.0
8760,74.0,0,48,6.0,80.0
8761,69.0,60,48,6.0,80.0
8762,57.0,0,48,6.0,80.0
8763,54.0,60,48,6.0,80.0
8764,66.0,0,48,6.0,80.0
8765,50.0,0,192,2.0,80.0
8766,74.0,0,192,4.0,80.0
8767,78.0,0,192,4.0,80.0
8768,78.0,0,192,0.0,80.0
8769,50.0,0,192,11.0,80.0
8770,50.0,0,192,5.0,80.0
8771,69.0,0,192,1.0,80.0
8772,38.0,0,192,12.0,80.0
8773,78.0,0,192,7.0,80.0
8774,74.0,0,192,8.0,80.0
8775,62.0,0,192,10.0,80.0
8776,78.0,0,192,1.0,80.0
8777,62.0,0,192,8.0,80.0
8778,78.0,0,192,8.0,80.0
8779,66.0,0,192,3.0,80.0
8780,69.0,0,192,7.0,80.0
8781,62.0,0,192,3.0,80.0
8782,62.0,0,192,7.0,80.0
8783,57.0,0,48,6.0,80.0
8784,69.0,60,48,6.0,80.0
8785,62.0,60,48,6.0,80.0
8786,74.0,0,48,6.0,80.0
8787,69.0,60,48,6.0,80.0
8788,57.0,0,48,6.0,80.0
8789,78.0,60,48,6.0,80.0
8790,66.0,0,48,6.0,80.0
8791,74.0,0,48,6.0,80.0
8792,62.0,60,48,6.0,80.0
8793,69.0,0,48,6.0,80.0
8794,81.0,60,48,6.0,80.0
8795,66.0,60,48,6.0,80.0
8796,78.0,0,48,6.0,80.0
8797,74.0,0,48,6.0,80.0
8798,86.0,0,48,6.0,80.0
8799,38.0,0,96,12.0,80.0
8800,78.0,0,96,8.0,80.0
8801,69.0,0,96,8.0,80.0
8802,78.0,0,96,1.0,80.0
8803,69.0,0,96,1.0,80.0
8804,81.0,0,96,0.0,80.0
8805,62.0,0,96,8.0,80.0
8806,74.0,0,96,7.0,80.0
8807,62.0,0,96,4.0,80.0
8808,81.0,60,96,7.0,80.0
8809,50.0,0,96,11.0,80.0
8810,62.0,0,96,7.0,80.0
8811,50.0,0,96,2.0,80.0
8812,74.0,0,96,4.0,80.0
8813,50.0,0,96,5.0,80.0
8814,62.0,0,96,3.0,80.0
8815,50.0,0,96,3.0,80.0
8816,62.0,0,96,10.0,80.0
8817,69.0,0,48,6.0,80.0
8818,81.0,60,48,6.0,80.0
8819,83.0,0,48,6.0,80.0
8820,71.0,0,48,6.0,80.0
8821,74.0,0,48,6.0,80.0
8822,86.0,60,48,6.0,80.0
8823,67.0,60,48,6.0,80.0
8824,79.0,0,48,6.0,80.0
8825,50.0,0,192,5.0,80.0
8826,55.0,0,192,2.0,80.0
8827,67.0,0,192,10.0,80.0
8828,74.0,0,192,4.0,80.0
8829,62.0,0,192,4.0,80.0
8830,71.0,0,192,8.0,80.0
8831,43.0,0,192,12.0,80.0
8832,62.0,0,192,3.0,80.0
8833,50.0,0,192,3.0,80.0
8834,83.0,0,192,0.0,80.0
8835,62.0,0,192,8.0,80.0
8836,79.0,0,192,8.0,80.0
8837,55.0,0,192,11.0,80.0
8838,74.0,0,192,7.0,80.0
8839,79.0,0,192,1.0,80.0
8840,71.0,0,192,1.0,80.0
8841,83.0,0,192,7.0,80.0
8842,62.0,60,192,7.0,80.0
8843,71.0,0,48,6.0,80.0
8844,83.0,60,48,6.0,80.0
8845,76.0,60,48,6.0,80.0
8846,64.0,0,48,6.0,80.0
8847,79.0,60,48,6.0,80.0
8848,67.0,0,48,6.0,80.0
8849,61.0,0,48,6.0,80.0
8850,73.0,60,48,6.0,80.0
8851,64.0,0,48,6.0,80.0
8852,76.0,60,48,6.0,80.0
8853,67.0,60,48,6.0,80.0
8854,55.0,0,48,6.0,80.0
8855,71.0,60,48,6.0,80.0
8856,59.0,0,48,6.0,80.0
8857,61.0,0,48,6.0,80.0
8858,73.0,0,48,6.0,80.0
8859,64.0,0,96,7.0,80.0
8860,73.0,0,96,1.0,80.0
8861,64.0,60,96,3.0,80.0
8862,81.0,0,96,7.0,80.0
8863,73.0,0,96,7.0,80.0
8864,76.0,0,96,1.0,80.0
8865,57.0,0,96,3.0,80.0
8866,57.0,0,96,11.0,80.0
8867,76.0,0,96,8.0,80.0
8868,81.0,0,96,0.0,80.0
8869,73.0,0,96,8.0,80.0
8870,69.0,0,96,10.0,80.0
8871,76.0,0,96,4.0,80.0
8872,45.0,0,96,5.0,80.0
8873,57.0,0,96,2.0,80.0
8874,69.0,0,96,8.0,80.0
8875,45.0,0,96,12.0,80.0
8876,69.0,0,96,4.0,80.0
8877,57.0,0,48,6.0,80.0
8878,69.0,60,48,6.0,80.0
8879,50.0,0,96,3.0,80.0
8880,62.0,0,96,3.0,80.0
8881,38.0,0,96,12.0,80.0
8882,50.0,0,96,2.0,80.0
8883,62.0,0,96,7.0,80.0
8884,74.0,0,96,7.0,80.0
8885,62.0,0,96,4.0,80.0
8886,74.0,0,96,0.0,80.0
8887,74.0,0,96,4.0,80.0
8888,50.0,0,96,11.0,80.0
8889,74.0,0,96,1.0,80.0
8890,62.0,60,96,8.0,80.0
8891,74.0,0,96,8.0,80.0
8892,62.0,0,96,10.0,80.0
8893,50.0,0,192,5.0,80.0
8894,74.0,0,192,6.0,80.0
8895,62.0,0,192,6.0,80.0
8896,62.0,0,96,10.0,80.0
8897,62.0,120,96,4.0,80.0
8898,50.0,0,96,3.0,80.0
8899,74.0,0,96,0.0,80.0
8900,50.0,0,96,2.0,80.0
8901,74.0,0,96,7.0,80.0
8902,50.0,0,96,11.0,80.0
8903,38.0,0,96,12.0,80.0
8904,74.0,0,96,1.0,80.0
8905,74.0,0,96,8.0,80.0
8906,42.0,0,96,12.0,80.0
8907,54.0,0,96,11.0,80.0
8908,54.0,0,96,3.0,80.0
8909,78.0,0,96,1.0,80.0
8910,54.0,120,96,2.0,80.0
8911,78.0,0,96,8.0,80.0
8912,78.0,0,96,7.0,80.0
8913,78.0,0,96,0.0,80.0
8914,66.0,0,96,4.0,80.0
8915,66.0,0,96,10.0,80.0
8916,57.0,0,96,2.0,80.0
8917,57.0,0,96,11.0,80.0
8918,81.0,0,96,1.0,80.0
8919,81.0,0,96,8.0,80.0
8920,81.0,0,96,7.0,80.0
8921,69.0,0,96,10.0,80.0
8922,69.0,0,96,4.0,80.0
8923,81.0,0,96,0.0,80.0
8924,45.0,0,96,12.0,80.0
8925,57.0,0,96,3.0,80.0
8926,50.0,120,192,5.0,80.0
8927,57.0,0,96,11.0,80.0
8928,57.0,0,96,2.0,80.0
8929,45.0,0,96,12.0,80.0
8930,81.0,0,96,0.0,80.0
8931,81.0,0,96,1.0,80.0
8932,69.0,120,96,10.0,80.0
8933,57.0,0,96,3.0,80.0
8934,69.0,0,96,4.0,80.0
8935,81.0,0,96,8.0,80.0
8936,81.0,0,96,7.0,80.0
8937,74.0,0,96,4.0,80.0
8938,86.0,120,96,7.0,80.0
8939,62.0,0,96,11.0,80.0
8940,62.0,0,96,2.0,80.0
8941,86.0,0,96,1.0,80.0
8942,74.0,0,96,10.0,80.0
8943,86.0,0,96,8.0,80.0
8944,50.0,0,96,12.0,80.0
8945,62.0,0,96,3.0,80.0
8946,86.0,0,96,0.0,80.0
8947,86.0,0,48,8.0,80.0
8948,62.0,0,48,11.0,80.0
8949,86.0,0,48,7.0,80.0
8950,74.0,0,48,10.0,80.0
8951,86.0,120,48,1.0,80.0
8952,62.0,0,48,2.0,80.0
8953,50.0,0,48,12.0,80.0
8954,86.0,0,48,0.0,80.0
8955,57.0,0,96,3.0,80.0
8956,69.0,0,96,4.0,80.0
8957,45.0,0,96,5.0,80.0
8958,85.0,0,48,0.0,80.0
8959,61.0,0,48,2.0,80.0
8960,85.0,0,48,1.0,80.0
8961,49.0,0,48,12.0,80.0
8962,61.0,60,48,11.0,80.0
8963,85.0,0,48,7.0,80.0
8964,73.0,0,48,10.0,80.0
8965,85.0,0,48,8.0,80.0
8966,59.0,0,48,11.0,80.0
8967,83.0,0,48,7.0,80.0
8968,83.0,0,48,8.0,80.0
8969,59.0,0,48,2.0,80.0
8970,71.0,0,48,10.0,80.0
8971,47.0,0,48,12.0,80.0
8972,83.0,60,48,1.0,80.0
8973,83.0,0,48,0.0,80.0
8974,57.0,0,96,3.0,80.0
8975,69.0,0,96,4.0,80.0
8976,45.0,0,96,5.0,80.0
8977,81.0,0,48,0.0,80.0
8978,69.0,0,48,10.0,80.0
8979,57.0,0,48,2.0,80.0
8980,57.0,0,48,11.0,80.0
8981,81.0,0,48,8.0,80.0
8982,45.0,0,48,12.0,80.0
8983,81.0,0,48,1.0,80.0
8984,81.0,60,48,7.0,80.0
8985,59.0,0,48,2.0,80.0
8986,83.0,0,48,7.0,80.0
8987,59.0,0,48,11.0,80.0
8988,47.0,0,48,12.0,80.0
8989,83.0,0,48,1.0,80.0
8990,83.0,0,48,8.0,80.0
8991,71.0,60,48,10.0,80.0
8992,83.0,0,48,0.0,80.0
8993,57.0,0,96,3.0,80.0
8994,69.0,0,96,4.0,80.0
8995,45.0,0,96,5.0,80.0
8996,49.0,0,48,12.0,80.0
8997,85.0,0,48,7.0,80.0
8998,85.0,0,48,0.0,80.0
8999,85.0,0,48,1.0,80.0
9000,73.0,0,48,10.0,80.0
9001,61.0,60,48,11.0,80.0
9002,61.0,0,48,2.0,80.0
9003,85.0,0,48,8.0,80.0
9004,74.0,0,96,10.0,80.0
9005,62.0,0,96,3.0,80.0
9006,62.0,60,96,2.0,80.0
9007,62.0,0,96,11.0,80.0
9008,86.0,0,96,8.0,80.0
9009,86.0,0,96,7.0,80.0
9010,86.0,0,96,1.0,80.0
9011,74.0,0,96,4.0,80.0
9012,86.0,0,96,0.0,80.0
9013,50.0,0,96,12.0,80.0
9014,50.0,0,192,5.0,80.0
9015,50.0,0,96,12.0,80.0
9016,74.0,0,96,10.0,80.0
9017,62.0,0,96,3.0,80.0
9018,86.0,0,96,8.0,80.0
9019,86.0,0,96,1.0,80.0
9020,62.0,0,96,11.0,80.0
9021,86.0,120,96,0.0,80.0
9022,62.0,0,96,2.0,80.0
9023,74.0,0,96,4.0,80.0
9024,86.0,0,96,7.0,80.0
9025,86.0,0,96,0.0,80.0
9026,74.0,0,96,10.0,80.0
9027,62.0,0,96,11.0,80.0
9028,62.0,0,96,2.0,80.0
9029,86.0,0,96,8.0,80.0
9030,62.0,0,96,3.0,80.0
9031,86.0,0,96,7.0,80.0
9032,50.0,120,96,12.0,80.0
9033,86.0,0,96,1.0,80.0
9034,74.0,0,96,4.0,80.0
9035,86.0,0,48,0.0,80.0
9036,86.0,0,48,8.0,80.0
9037,86.0,0,48,7.0,80.0
9038,62.0,0,48,2.0,80.0
9039,50.0,0,48,12.0,80.0
9040,74.0,0,48,10.0,80.0
9041,62.0,0,48,11.0,80.0
9042,86.0,0,48,1.0,80.0
9043,69.0,120,96,4.0,80.0
9044,45.0,0,96,5.0,80.0
9045,57.0,0,96,3.0,80.0
9046,49.0,0,48,12.0,80.0
9047,85.0,0,48,1.0,80.0
9048,85.0,0,48,0.0,80.0
9049,73.0,0,48,10.0,80.0
9050,85.0,0,48,8.0,80.0
9051,61.0,0,48,2.0,80.0
9052,61.0,60,48,11.0,80.0
9053,85.0,0,48,7.0,80.0
9054,83.0,0,48,7.0,80.0
9055,71.0,0,48,10.0,80.0
9056,83.0,0,48,1.0,80.0
9057,83.0,0,48,8.0,80.0
9058,59.0,0,48,11.0,80.0
9059,59.0,0,48,2.0,80.0
9060,47.0,0,48,12.0,80.0
9061,83.0,0,48,0.0,80.0
9062,69.0,0,96,4.0,80.0
9063,45.0,60,96,5.0,80.0
9064,57.0,0,96,3.0,80.0
9065,69.0,0,48,10.0,80.0
9066,57.0,60,48,11.0,80.0
9067,57.0,0,48,2.0,80.0
9068,81.0,0,48,0.0,80.0
9069,45.0,0,48,12.0,80.0
9070,81.0,0,48,7.0,80.0
9071,81.0,0,48,8.0,80.0
9072,81.0,0,48,1.0,80.0
9073,71.0,0,48,10.0,80.0
9074,59.0,0,48,11.0,80.0
9075,59.0,60,48,2.0,80.0
9076,83.0,0,48,1.0,80.0
9077,47.0,0,48,12.0,80.0
9078,83.0,0,48,7.0,80.0
9079,83.0,0,48,0.0,80.0
9080,83.0,0,48,8.0,80.0
9081,69.0,0,96,4.0,80.0
9082,45.0,0,96,5.0,80.0
9083,57.0,0,96,3.0,80.0
9084,85.0,0,48,8.0,80.0
9085,73.0,0,48,10.0,80.0
9086,85.0,0,48,0.0,80.0
9087,85.0,0,48,1.0,80.0
9088,61.0,60,48,2.0,80.0
9089,49.0,0,48,12.0,80.0
9090,85.0,0,48,7.0,80.0
9091,61.0,0,48,11.0,80.0
9092,50.0,0,96,12.0,80.0
9093,86.0,0,96,7.0,80.0
9094,86.0,0,96,1.0,80.0
9095,62.0,0,96,11.0,80.0
9096,62.0,0,96,2.0,80.0
9097,86.0,0,96,0.0,80.0
9098,74.0,0,96,10.0,80.0
9099,62.0,0,96,4.0,80.0
9100,50.0,0,96,5.0,80.0
9101,50.0,0,96,3.0,80.0
9102,62.0,0,96,3.0,80.0
9103,74.0,60,96,4.0,80.0
9104,86.0,0,96,8.0,80.0
9105,54.0,0,96,11.0,80.0
9106,54.0,0,96,2.0,80.0
9107,66.0,0,96,4.0,80.0
9108,42.0,0,96,12.0,80.0
9109,81.0,0,96,0.0,80.0
9110,66.0,0,96,10.0,80.0
9111,54.0,120,96,3.0,80.0
9112,81.0,0,96,1.0,80.0
9113,78.0,0,96,1.0,80.0
9114,86.0,0,24,0.0,80.0
9115,85.0,30,24,0.0,80.0
9116,86.0,30,24,0.0,80.0
9117,79.0,0,96,8.0,80.0
9118,69.0,0,96,8.0,80.0
9119,69.0,0,96,10.0,80.0
9120,45.0,0,96,12.0,80.0
9121,85.0,0,96,7.0,80.0
9122,76.0,0,96,7.0,80.0
9123,57.0,0,96,2.0,80.0
9124,69.0,0,96,7.0,80.0
9125,57.0,0,96,3.0,80.0
9126,69.0,120,96,4.0,80.0
9127,45.0,0,96,5.0,80.0
9128,79.0,0,96,1.0,80.0
9129,76.0,0,96,1.0,80.0
9130,57.0,0,96,11.0,80.0
9131,85.0,30,24,0.0,80.0
9132,50.0,0,96,11.0,80.0
9133,86.0,0,96,7.0,80.0
9134,78.0,0,96,7.0,80.0
9135,62.0,0,96,7.0,80.0
9136,62.0,0,96,10.0,80.0
9137,50.0,0,96,2.0,80.0
9138,86.0,0,96,0.0,80.0
9139,78.0,0,96,1.0,80.0
9140,78.0,0,96,8.0,80.0
9141,69.0,0,96,8.0,80.0
9142,62.0,0,96,8.0,80.0
9143,54.0,0,96,3.0,80.0
9144,66.0,30,96,4.0,80.0
9145,50.0,0,96,5.0,80.0
9146,38.0,0,96,12.0,80.0
9147,74.0,0,96,1.0,80.0
9148,54.0,0,96,11.0,80.0
9149,78.0,0,96,1.0,80.0
9150,42.0,0,96,12.0,80.0
9151,81.0,0,96,1.0,80.0
9152,66.0,0,96,10.0,80.0
9153,54.0,0,96,2.0,80.0
9154,81.0,0,96,0.0,80.0
9155,62.0,120,96,4.0,80.0
9156,50.0,0,96,3.0,80.0
9157,86.0,0,24,0.0,80.0
9158,85.0,30,24,0.0,80.0
9159,86.0,30,24,0.0,80.0
9160,69.0,0,96,7.0,80.0
9161,69.0,0,96,8.0,80.0
9162,76.0,0,96,1.0,80.0
9163,57.0,0,96,2.0,80.0
9164,85.0,0,96,7.0,80.0
9165,79.0,0,96,1.0,80.0
9166,79.0,0,96,8.0,80.0
9167,69.0,0,96,4.0,80.0
9168,45.0,0,96,12.0,80.0
9169,69.0,0,96,10.0,80.0
9170,76.0,0,96,7.0,80.0
9171,57.0,0,96,11.0,80.0
9172,45.0,0,96,5.0,80.0
9173,57.0,120,96,3.0,80.0
9174,85.0,30,24,0.0,80.0
9175,78.0,0,96,1.0,80.0
9176,50.0,0,96,3.0,80.0
9177,62.0,0,96,8.0,80.0
9178,78.0,0,96,7.0,80.0
9179,62.0,0,96,7.0,80.0
9180,74.0,0,96,1.0,80.0
9181,62.0,0,96,4.0,80.0
9182,69.0,0,96,8.0,80.0
9183,86.0,0,96,0.0,80.0
9184,86.0,30,96,7.0,80.0
9185,78.0,0,96,8.0,80.0
9186,50.0,0,192,11.0,80.0
9187,62.0,0,192,10.0,80.0
9188,38.0,0,192,12.0,80.0
9189,50.0,0,192,5.0,80.0
9190,50.0,0,192,2.0,80.0
9191,86.0,360,96,0.0,80.0
9192,69.0,0,96,8.0,80.0
9193,66.0,0,96,4.0,80.0
9194,74.0,0,96,4.0,80.0
9195,78.0,0,96,1.0,80.0
9196,69.0,0,96,1.0,80.0
9197,78.0,0,96,7.0,80.0
9198,62.0,0,96,7.0,80.0
9199,62.0,0,96,3.0,80.0
9200,78.0,0,96,8.0,80.0
9201,62.0,0,96,8.0,80.0
9202,54.0,0,96,3.0,80.0
9203,86.0,0,96,7.0,80.0
9204,50.0,0,192,5.0,80.0
9205,62.0,0,192,10.0,80.0
9206,50.0,0,192,2.0,80.0
9207,50.0,0,192,11.0,80.0
9208,38.0,0,192,12.0,80.0
9209,74.0,0,96,4.0,80.0
9210,66.0,0,96,4.0,80.0
9211,86.0,0,96,0.0,80.0
9212,62.0,0,96,3.0,80.0
9213,54.0,0,96,3.0,80.0
9214,78.0,0,96,8.0,80.0
9215,62.0,0,96,8.0,80.0
9216,78.0,0,96,1.0,80.0
9217,69.0,360,96,1.0,80.0
9218,78.0,0,96,7.0,80.0
9219,86.0,0,96,7.0,80.0
9220,69.0,0,96,8.0,80.0
9221,62.0,0,96,7.0,80.0
9222,50.0,0,192,2.0,80.0
9223,50.0,0,192,11.0,80.0
9224,62.0,0,192,10.0,80.0
9225,50.0,0,192,5.0,80.0
9226,38.0,0,192,12.0,80.0
