,note,step,duration,channel,velocity
0,58.0,0,180,6.0,58.0
1,55.0,0,180,6.0,58.0
2,43.0,0,384,7.0,58.0
3,31.0,0,384,8.0,58.0
4,55.0,240,180,6.0,58.0
5,58.0,0,180,6.0,58.0
6,67.0,240,180,6.0,58.0
7,58.0,0,180,6.0,58.0
8,67.0,240,180,6.0,58.0
9,58.0,0,180,6.0,58.0
10,58.0,0,180,6.0,58.0
11,55.0,240,180,6.0,58.0
12,58.0,0,180,6.0,58.0
13,55.0,240,180,6.0,58.0
14,58.0,0,180,6.0,58.0
15,67.0,240,180,6.0,58.0
16,75.0,0,240,4.0,70.0
17,63.0,0,240,5.0,70.0
18,67.0,0,180,6.0,58.0
19,58.0,0,180,6.0,58.0
20,62.0,240,192,5.0,70.0
21,74.0,0,192,4.0,70.0
22,55.0,0,180,6.0,58.0
23,58.0,0,180,6.0,58.0
24,55.0,0,384,7.0,58.0
25,62.0,0,384,5.0,70.0
26,74.0,240,384,4.0,70.0
27,43.0,0,384,8.0,58.0
28,55.0,240,180,6.0,58.0
29,58.0,0,180,6.0,58.0
30,58.0,0,180,6.0,58.0
31,67.0,0,180,6.0,58.0
32,63.0,240,240,5.0,70.0
33,75.0,0,240,4.0,70.0
34,67.0,0,180,6.0,58.0
35,58.0,0,180,6.0,58.0
36,62.0,240,192,5.0,70.0
37,74.0,0,192,4.0,70.0
38,58.0,0,180,6.0,58.0
39,55.0,0,180,6.0,58.0
40,74.0,240,384,4.0,70.0
41,62.0,0,384,5.0,70.0
42,55.0,240,180,6.0,58.0
43,58.0,0,180,6.0,58.0
44,58.0,240,180,6.0,58.0
45,67.0,0,180,6.0,58.0
46,75.0,0,240,4.0,70.0
47,63.0,0,240,5.0,70.0
48,67.0,0,180,6.0,58.0
49,58.0,0,180,6.0,58.0
50,74.0,240,192,4.0,70.0
51,62.0,0,192,5.0,70.0
52,58.0,0,180,6.0,58.0
53,55.0,0,180,6.0,58.0
54,43.0,0,384,7.0,58.0
55,31.0,0,384,8.0,58.0
56,58.0,0,180,6.0,58.0
57,55.0,240,180,6.0,58.0
58,62.0,0,480,5.0,70.0
59,74.0,240,480,4.0,70.0
60,67.0,0,180,6.0,58.0
61,58.0,0,180,6.0,58.0
62,82.0,0,384,4.0,70.0
63,70.0,240,384,5.0,70.0
64,58.0,240,180,6.0,58.0
65,67.0,0,180,6.0,58.0
66,58.0,0,180,6.0,58.0
67,55.0,240,180,6.0,58.0
68,58.0,0,180,6.0,58.0
69,55.0,240,180,6.0,58.0
70,67.0,0,180,6.0,58.0
71,58.0,240,180,6.0,58.0
72,82.0,0,240,4.0,70.0
73,70.0,0,240,5.0,70.0
74,67.0,0,180,6.0,58.0
75,58.0,0,180,6.0,58.0
76,81.0,240,192,4.0,70.0
77,69.0,0,192,5.0,70.0
78,55.0,0,180,6.0,58.0
79,58.0,0,180,6.0,58.0
80,43.0,0,384,8.0,58.0
81,55.0,0,384,7.0,58.0
82,79.0,0,384,4.0,70.0
83,67.0,240,384,5.0,70.0
84,55.0,0,180,6.0,58.0
85,58.0,240,180,6.0,58.0
86,58.0,0,180,6.0,58.0
87,62.0,240,180,6.0,58.0
88,79.0,0,240,4.0,70.0
89,67.0,0,240,5.0,70.0
90,58.0,0,180,6.0,58.0
91,62.0,240,180,6.0,58.0
92,65.0,0,192,5.0,70.0
93,77.0,0,192,4.0,70.0
94,55.0,0,180,6.0,58.0
95,58.0,0,180,6.0,58.0
96,75.0,240,384,4.0,70.0
97,63.0,0,384,5.0,70.0
98,58.0,0,180,6.0,58.0
99,55.0,240,180,6.0,58.0
100,67.0,0,180,6.0,58.0
101,58.0,0,180,6.0,58.0
102,63.0,0,240,5.0,70.0
103,75.0,240,240,4.0,70.0
104,67.0,240,180,6.0,58.0
105,58.0,0,180,6.0,58.0
106,62.0,0,192,5.0,70.0
107,74.0,0,192,4.0,70.0
108,63.0,240,180,6.0,58.0
109,57.0,0,180,6.0,58.0
110,72.0,0,384,4.0,70.0
111,31.0,0,384,8.0,58.0
112,60.0,0,384,5.0,70.0
113,43.0,0,384,7.0,58.0
114,63.0,0,180,6.0,58.0
115,57.0,240,180,6.0,58.0
116,69.0,0,180,6.0,58.0
117,63.0,0,180,6.0,58.0
118,60.0,0,384,5.0,70.0
119,72.0,240,384,4.0,70.0
120,69.0,240,180,6.0,58.0
121,63.0,0,180,6.0,58.0
122,57.0,0,180,6.0,58.0
123,63.0,240,180,6.0,58.0
124,57.0,0,180,6.0,58.0
125,63.0,240,180,6.0,58.0
126,63.0,0,180,6.0,58.0
127,69.0,240,180,6.0,58.0
128,62.0,0,240,5.0,70.0
129,74.0,0,240,4.0,70.0
130,63.0,0,180,6.0,58.0
131,69.0,0,180,6.0,58.0
132,60.0,240,192,5.0,70.0
133,72.0,0,192,4.0,70.0
134,57.0,0,180,6.0,58.0
135,63.0,0,180,6.0,58.0
136,55.0,240,384,7.0,58.0
137,72.0,0,384,4.0,70.0
138,60.0,0,384,5.0,70.0
139,43.0,0,384,8.0,58.0
140,57.0,240,180,6.0,58.0
141,63.0,0,180,6.0,58.0
142,69.0,0,180,6.0,58.0
143,63.0,240,180,6.0,58.0
144,74.0,0,240,4.0,70.0
145,62.0,0,240,5.0,70.0
146,69.0,0,180,6.0,58.0
147,63.0,0,180,6.0,58.0
148,72.0,240,192,4.0,70.0
149,60.0,0,192,5.0,70.0
150,57.0,0,180,6.0,58.0
151,63.0,0,180,6.0,58.0
152,72.0,0,384,4.0,70.0
153,60.0,240,384,5.0,70.0
154,63.0,240,180,6.0,58.0
155,57.0,0,180,6.0,58.0
156,69.0,0,180,6.0,58.0
157,63.0,0,180,6.0,58.0
158,74.0,240,240,4.0,70.0
159,62.0,0,240,5.0,70.0
160,69.0,0,180,6.0,58.0
161,63.0,240,180,6.0,58.0
162,60.0,0,192,5.0,70.0
163,72.0,0,192,4.0,70.0
164,57.0,0,180,6.0,58.0
165,62.0,0,180,6.0,58.0
166,42.0,0,384,7.0,58.0
167,30.0,0,384,8.0,58.0
168,57.0,0,180,6.0,58.0
169,62.0,240,180,6.0,58.0
170,60.0,240,480,5.0,70.0
171,72.0,0,480,4.0,70.0
172,62.0,0,180,6.0,58.0
173,72.0,240,180,6.0,58.0
174,69.0,0,384,5.0,70.0
175,81.0,0,384,4.0,70.0
176,72.0,0,180,6.0,58.0
177,62.0,240,180,6.0,58.0
178,62.0,240,180,6.0,58.0
179,57.0,0,180,6.0,58.0
180,62.0,240,180,6.0,58.0
181,57.0,0,180,6.0,58.0
182,62.0,0,180,6.0,58.0
183,72.0,240,180,6.0,58.0
184,81.0,0,240,4.0,70.0
185,69.0,0,240,5.0,70.0
186,72.0,0,180,6.0,58.0
187,62.0,240,180,6.0,58.0
188,79.0,0,192,4.0,70.0
189,67.0,0,192,5.0,70.0
190,57.0,240,180,6.0,58.0
191,60.0,0,180,6.0,58.0
192,78.0,0,384,4.0,70.0
193,50.0,0,384,7.0,58.0
194,66.0,0,384,5.0,70.0
195,38.0,0,384,8.0,58.0
196,57.0,240,180,6.0,58.0
197,60.0,0,180,6.0,58.0
198,69.0,0,180,6.0,58.0
199,60.0,240,180,6.0,58.0
200,66.0,0,240,5.0,70.0
201,78.0,0,240,4.0,70.0
202,69.0,0,180,6.0,58.0
203,60.0,240,180,6.0,58.0
204,63.0,0,192,5.0,70.0
205,75.0,0,192,4.0,70.0
206,57.0,0,180,6.0,58.0
207,66.0,0,180,6.0,58.0
208,62.0,0,384,5.0,70.0
209,74.0,240,384,4.0,70.0
210,66.0,0,180,6.0,58.0
211,57.0,240,180,6.0,58.0
212,66.0,0,180,6.0,58.0
213,69.0,240,180,6.0,58.0
214,62.0,0,240,5.0,70.0
215,74.0,0,240,4.0,70.0
216,69.0,240,180,6.0,58.0
217,66.0,0,180,6.0,58.0
218,72.0,0,192,4.0,70.0
219,60.0,0,192,5.0,70.0
220,55.0,0,180,6.0,58.0
221,58.0,0,180,6.0,58.0
222,43.0,0,384,7.0,58.0
223,31.0,0,384,8.0,58.0
224,58.0,240,384,5.0,70.0
225,70.0,0,384,4.0,70.0
226,58.0,240,180,6.0,58.0
227,55.0,0,180,6.0,58.0
228,58.0,0,180,6.0,58.0
229,67.0,0,180,6.0,58.0
230,70.0,0,384,4.0,70.0
231,58.0,240,384,5.0,70.0
232,58.0,0,180,6.0,58.0
233,67.0,240,180,6.0,58.0
234,58.0,240,180,6.0,58.0
235,55.0,0,180,6.0,58.0
236,55.0,0,180,6.0,58.0
237,58.0,240,180,6.0,58.0
238,67.0,0,180,6.0,58.0
239,58.0,240,180,6.0,58.0
240,82.0,0,240,4.0,70.0
241,70.0,0,240,5.0,70.0
242,58.0,240,180,6.0,58.0
243,67.0,0,180,6.0,58.0
244,69.0,0,192,5.0,70.0
245,81.0,0,192,4.0,70.0
246,57.0,0,180,6.0,58.0
247,63.0,240,180,6.0,58.0
248,63.0,240,180,6.0,58.0
249,57.0,0,180,6.0,58.0
250,69.0,0,480,5.0,70.0
251,81.0,0,480,4.0,70.0
252,66.0,0,180,6.0,58.0
253,63.0,0,180,6.0,58.0
254,66.0,240,180,6.0,58.0
255,63.0,0,180,6.0,58.0
256,84.0,0,480,4.0,70.0
257,72.0,240,480,5.0,70.0
258,63.0,0,180,6.0,58.0
259,57.0,0,180,6.0,58.0
260,57.0,0,180,6.0,58.0
261,63.0,240,180,6.0,58.0
262,78.0,0,480,4.0,70.0
263,66.0,240,480,5.0,70.0
264,66.0,0,180,6.0,58.0
265,63.0,0,180,6.0,58.0
266,81.0,240,384,4.0,70.0
267,69.0,0,384,5.0,70.0
268,63.0,0,180,6.0,58.0
269,66.0,240,180,6.0,58.0
270,36.0,0,1920,8.0,58.0
271,48.0,0,1920,7.0,58.0
272,55.0,0,180,6.0,58.0
273,58.0,0,180,6.0,58.0
274,58.0,240,180,6.0,58.0
275,55.0,0,180,6.0,58.0
276,67.0,240,480,5.0,70.0
277,79.0,0,480,4.0,70.0
278,58.0,0,180,6.0,58.0
279,67.0,0,180,6.0,58.0
280,62.0,240,384,5.0,70.0
281,74.0,0,384,4.0,70.0
282,67.0,240,180,6.0,58.0
283,58.0,0,180,6.0,58.0
284,55.0,240,180,6.0,58.0
285,58.0,0,180,6.0,58.0
286,58.0,0,180,6.0,58.0
287,55.0,240,180,6.0,58.0
288,67.0,0,180,6.0,58.0
289,58.0,0,180,6.0,58.0
290,70.0,240,240,5.0,70.0
291,82.0,0,240,4.0,70.0
292,58.0,0,180,6.0,58.0
293,67.0,0,180,6.0,58.0
294,81.0,0,192,4.0,70.0
295,69.0,240,192,5.0,70.0
296,34.0,0,1920,8.0,58.0
297,46.0,0,1920,7.0,58.0
298,57.0,0,180,6.0,58.0
299,63.0,0,180,6.0,58.0
300,57.0,240,180,6.0,58.0
301,63.0,0,180,6.0,58.0
302,69.0,0,480,5.0,70.0
303,81.0,0,480,4.0,70.0
304,63.0,0,180,6.0,58.0
305,66.0,0,180,6.0,58.0
306,66.0,240,180,6.0,58.0
307,63.0,0,180,6.0,58.0
308,72.0,240,480,5.0,70.0
309,84.0,0,480,4.0,70.0
310,57.0,0,180,6.0,58.0
311,63.0,0,180,6.0,58.0
312,57.0,0,180,6.0,58.0
313,63.0,240,180,6.0,58.0
314,78.0,0,480,4.0,70.0
315,66.0,240,480,5.0,70.0
316,63.0,240,180,6.0,58.0
317,66.0,0,180,6.0,58.0
318,81.0,0,384,4.0,70.0
319,69.0,0,384,5.0,70.0
320,63.0,240,180,6.0,58.0
321,66.0,0,180,6.0,58.0
322,36.0,240,1920,8.0,58.0
323,48.0,0,1920,7.0,58.0
324,67.0,240,480,5.0,70.0
325,79.0,0,480,4.0,70.0
326,82.0,480,384,4.0,70.0
327,70.0,0,384,5.0,70.0
328,69.0,480,240,5.0,70.0
329,81.0,0,240,4.0,70.0
330,67.0,240,240,5.0,70.0
331,79.0,0,240,4.0,70.0
332,77.0,0,240,4.0,70.0
333,65.0,240,240,5.0,70.0
334,55.0,0,1824,6.0,58.0
335,62.0,0,1824,6.0,58.0
336,46.0,0,1824,7.0,58.0
337,34.0,0,1824,8.0,58.0
338,75.0,240,192,4.0,70.0
339,63.0,0,192,5.0,70.0
340,54.0,0,480,2.0,80.0
341,66.0,480,480,1.0,70.0
342,78.0,0,480,0.0,70.0
343,79.0,0,480,0.0,70.0
344,55.0,0,480,2.0,70.0
345,58.0,0,1440,6.0,58.0
346,67.0,480,480,1.0,70.0
347,62.0,0,1920,5.0,58.0
348,69.0,0,480,1.0,70.0
349,40.0,0,1920,8.0,58.0
350,52.0,0,1920,7.0,58.0
351,74.0,240,1920,4.0,70.0
352,57.0,0,480,6.0,58.0
353,57.0,480,480,2.0,70.0
354,81.0,0,480,0.0,70.0
355,70.0,480,480,1.0,70.0
356,58.0,0,480,2.0,70.0
357,82.0,0,480,0.0,70.0
358,84.0,0,240,0.0,70.0
359,72.0,0,240,1.0,70.0
360,60.0,480,240,2.0,70.0
361,82.0,0,240,0.0,70.0
362,58.0,0,240,2.0,70.0
363,70.0,240,240,1.0,70.0
364,55.0,0,960,6.0,58.0
365,57.0,0,480,2.0,70.0
366,81.0,240,480,0.0,70.0
367,69.0,0,480,1.0,70.0
368,54.0,0,480,6.0,58.0
369,55.0,0,384,6.0,58.0
370,73.0,0,1824,4.0,70.0
371,61.0,0,1824,5.0,58.0
372,39.0,0,1824,8.0,58.0
373,51.0,0,1824,7.0,58.0
374,55.0,0,456,2.0,70.0
375,67.0,480,456,1.0,70.0
376,79.0,0,456,0.0,70.0
377,66.0,0,384,1.0,70.0
378,54.0,0,384,2.0,70.0
379,78.0,480,384,0.0,70.0
380,57.0,0,768,6.0,58.0
381,74.0,0,768,4.0,70.0
382,38.0,0,768,8.0,58.0
383,50.0,0,768,7.0,58.0
384,62.0,0,768,5.0,58.0
385,38.0,480,180,8.0,58.0
386,62.0,0,180,6.0,105.0
387,62.0,0,180,5.0,105.0
388,50.0,0,180,7.0,105.0
389,62.0,0,180,4.0,105.0
390,50.0,0,180,7.0,105.0
391,62.0,240,180,4.0,105.0
392,62.0,0,180,6.0,105.0
393,62.0,0,180,5.0,105.0
394,38.0,0,180,8.0,105.0
395,82.0,960,960,1.0,105.0
396,79.0,0,960,1.0,105.0
397,55.0,0,960,3.0,105.0
398,85.0,0,960,0.0,105.0
399,70.0,0,960,3.0,105.0
400,64.0,0,960,2.0,105.0
401,58.0,0,960,2.0,105.0
402,81.0,0,384,1.0,105.0
403,74.0,0,384,3.0,105.0
404,57.0,0,384,3.0,105.0
405,86.0,0,384,0.0,105.0
406,57.0,0,384,2.0,105.0
407,66.0,0,384,2.0,105.0
408,78.0,0,384,1.0,105.0
409,38.0,240,768,8.0,105.0
410,62.0,0,768,6.0,105.0
411,62.0,0,768,4.0,105.0
412,62.0,0,768,5.0,105.0
413,50.0,0,768,7.0,105.0
414,50.0,0,180,7.0,105.0
415,38.0,0,180,8.0,105.0
416,62.0,480,180,5.0,105.0
417,62.0,0,180,4.0,105.0
418,62.0,0,180,6.0,105.0
419,62.0,0,180,6.0,105.0
420,62.0,0,180,5.0,105.0
421,38.0,0,180,8.0,105.0
422,62.0,240,180,4.0,105.0
423,50.0,0,180,7.0,105.0
424,55.0,0,960,3.0,105.0
425,70.0,960,960,3.0,105.0
426,85.0,0,960,0.0,105.0
427,79.0,0,960,1.0,105.0
428,82.0,0,960,1.0,105.0
429,58.0,0,960,2.0,105.0
430,64.0,0,960,2.0,105.0
431,57.0,0,384,2.0,105.0
432,86.0,0,384,0.0,105.0
433,81.0,0,384,1.0,105.0
434,74.0,0,384,3.0,105.0
435,66.0,0,384,2.0,105.0
436,78.0,0,384,1.0,105.0
437,57.0,240,384,3.0,105.0
438,62.0,0,768,4.0,105.0
439,38.0,0,768,8.0,105.0
440,62.0,0,768,6.0,105.0
441,62.0,0,768,5.0,105.0
442,50.0,0,768,7.0,105.0
443,62.0,0,180,4.0,105.0
444,50.0,0,180,7.0,105.0
445,62.0,0,180,6.0,105.0
446,62.0,0,180,5.0,105.0
447,38.0,480,180,8.0,105.0
448,38.0,0,180,8.0,105.0
449,62.0,0,180,5.0,105.0
450,62.0,0,180,4.0,105.0
451,62.0,240,180,6.0,105.0
452,50.0,0,180,7.0,105.0
453,64.0,0,960,2.0,105.0
454,58.0,0,960,2.0,105.0
455,79.0,0,960,1.0,105.0
456,82.0,0,960,1.0,105.0
457,55.0,960,960,3.0,105.0
458,70.0,0,960,3.0,105.0
459,85.0,0,960,0.0,105.0
460,74.0,0,288,3.0,105.0
461,66.0,0,288,2.0,105.0
462,57.0,0,288,2.0,105.0
463,81.0,0,288,1.0,105.0
464,78.0,0,288,1.0,105.0
465,57.0,0,288,3.0,105.0
466,86.0,0,288,0.0,105.0
467,62.0,0,360,4.0,105.0
468,38.0,0,360,8.0,105.0
469,50.0,0,360,7.0,105.0
470,62.0,240,360,6.0,105.0
471,62.0,0,360,5.0,105.0
472,62.0,0,180,6.0,105.0
473,62.0,0,180,4.0,105.0
474,38.0,0,180,8.0,105.0
475,50.0,0,180,7.0,105.0
476,62.0,0,180,5.0,105.0
477,85.0,480,288,0.0,105.0
478,55.0,0,288,3.0,105.0
479,70.0,0,288,3.0,105.0
480,82.0,0,288,1.0,105.0
481,79.0,0,288,1.0,105.0
482,64.0,0,288,2.0,105.0
483,58.0,0,288,2.0,105.0
484,62.0,0,180,5.0,105.0
485,62.0,0,180,6.0,105.0
486,38.0,0,180,8.0,105.0
487,50.0,240,180,7.0,105.0
488,62.0,0,180,4.0,105.0
489,86.0,0,288,0.0,105.0
490,74.0,0,288,3.0,105.0
491,57.0,0,288,3.0,105.0
492,81.0,0,288,1.0,105.0
493,57.0,0,288,2.0,105.0
494,66.0,0,288,2.0,105.0
495,78.0,0,288,1.0,105.0
496,62.0,0,360,5.0,105.0
497,62.0,0,360,4.0,105.0
498,38.0,0,360,8.0,105.0
499,62.0,240,360,6.0,105.0
500,50.0,0,360,7.0,105.0
501,50.0,0,180,7.0,105.0
502,38.0,0,180,8.0,105.0
503,62.0,0,180,5.0,105.0
504,62.0,480,180,4.0,105.0
505,62.0,0,180,6.0,105.0
506,70.0,0,288,3.0,105.0
507,55.0,0,288,3.0,105.0
508,82.0,0,288,1.0,105.0
509,79.0,0,288,1.0,105.0
510,85.0,0,288,0.0,105.0
511,58.0,0,288,2.0,105.0
512,64.0,0,288,2.0,105.0
513,62.0,0,180,4.0,105.0
514,62.0,0,180,5.0,105.0
515,38.0,240,180,8.0,105.0
516,50.0,0,180,7.0,105.0
517,62.0,0,180,6.0,105.0
518,57.0,0,768,3.0,105.0
519,38.0,0,768,8.0,105.0
520,81.0,0,768,1.0,105.0
521,62.0,0,768,5.0,105.0
522,62.0,0,768,4.0,105.0
523,86.0,240,768,0.0,105.0
524,62.0,0,768,6.0,105.0
525,74.0,0,768,3.0,105.0
526,50.0,0,768,7.0,105.0
527,78.0,0,768,1.0,105.0
528,66.0,0,960,2.0,105.0
529,57.0,0,960,2.0,105.0
530,75.0,480,240,4.0,70.0
531,63.0,0,240,5.0,70.0
532,62.0,0,192,5.0,70.0
533,74.0,240,192,4.0,70.0
534,60.0,960,960,2.0,70.0
535,57.0,0,960,2.0,70.0
536,74.0,240,384,4.0,70.0
537,62.0,0,384,5.0,70.0
538,63.0,480,240,5.0,70.0
539,75.0,0,240,4.0,70.0
540,62.0,240,192,5.0,70.0
541,74.0,0,192,4.0,70.0
542,55.0,0,960,2.0,70.0
543,58.0,0,960,2.0,70.0
544,74.0,0,384,4.0,70.0
545,62.0,0,384,5.0,70.0
546,75.0,0,240,4.0,70.0
547,63.0,480,240,5.0,70.0
548,62.0,240,192,5.0,70.0
549,74.0,0,192,4.0,70.0
550,57.0,0,960,2.0,70.0
551,54.0,240,960,2.0,70.0
552,55.0,0,180,6.0,58.0
553,58.0,0,180,6.0,58.0
554,58.0,0,384,2.0,70.0
555,31.0,0,384,8.0,58.0
556,55.0,0,384,2.0,70.0
557,43.0,0,384,7.0,58.0
558,55.0,0,180,6.0,58.0
559,58.0,240,180,6.0,58.0
560,74.0,0,480,4.0,70.0
561,62.0,0,480,5.0,70.0
562,67.0,240,180,6.0,58.0
563,58.0,0,180,6.0,58.0
564,70.0,0,384,5.0,70.0
565,82.0,0,384,4.0,70.0
566,58.0,0,180,6.0,58.0
567,67.0,240,180,6.0,58.0
568,55.0,240,180,6.0,58.0
569,58.0,0,180,6.0,58.0
570,58.0,0,180,6.0,58.0
571,55.0,240,180,6.0,58.0
572,67.0,0,180,6.0,58.0
573,58.0,240,180,6.0,58.0
574,82.0,0,240,4.0,70.0
575,70.0,0,240,5.0,70.0
576,58.0,0,180,6.0,58.0
577,67.0,0,180,6.0,58.0
578,81.0,0,192,4.0,70.0
579,69.0,240,192,5.0,70.0
580,58.0,0,180,6.0,58.0
581,55.0,0,180,6.0,58.0
582,43.0,0,384,8.0,58.0
583,55.0,0,384,7.0,58.0
584,79.0,0,384,4.0,70.0
585,67.0,240,384,5.0,70.0
586,55.0,240,180,6.0,58.0
587,58.0,0,180,6.0,58.0
588,62.0,0,180,6.0,58.0
589,58.0,0,180,6.0,58.0
590,79.0,0,240,4.0,70.0
591,67.0,240,240,5.0,70.0
592,58.0,0,180,6.0,58.0
593,62.0,0,180,6.0,58.0
594,65.0,240,192,5.0,70.0
595,77.0,0,192,4.0,70.0
596,55.0,0,180,6.0,58.0
597,58.0,0,180,6.0,58.0
598,63.0,240,384,5.0,70.0
599,75.0,0,384,4.0,70.0
600,58.0,0,180,6.0,58.0
601,55.0,240,180,6.0,58.0
602,58.0,0,180,6.0,58.0
603,67.0,240,180,6.0,58.0
604,63.0,0,240,5.0,70.0
605,75.0,0,240,4.0,70.0
606,74.0,0,3744,1.0,70.0
607,67.0,0,180,6.0,58.0
608,58.0,240,180,6.0,58.0
609,74.0,0,192,4.0,70.0
610,62.0,0,192,5.0,70.0
611,58.0,0,180,6.0,58.0
612,55.0,240,180,6.0,58.0
613,39.0,0,384,7.0,58.0
614,27.0,0,384,8.0,58.0
615,72.0,0,384,4.0,70.0
616,60.0,0,384,5.0,70.0
617,58.0,240,180,6.0,58.0
618,55.0,0,180,6.0,58.0
619,67.0,0,180,6.0,58.0
620,58.0,240,180,6.0,58.0
621,72.0,0,384,4.0,70.0
622,60.0,0,384,5.0,70.0
623,67.0,0,180,6.0,58.0
624,58.0,240,180,6.0,58.0
625,55.0,240,180,6.0,58.0
626,58.0,0,180,6.0,58.0
627,58.0,0,180,6.0,58.0
628,55.0,240,180,6.0,58.0
629,67.0,240,180,6.0,58.0
630,58.0,0,180,6.0,58.0
631,65.0,0,240,5.0,70.0
632,77.0,0,240,4.0,70.0
633,58.0,0,180,6.0,58.0
634,67.0,0,180,6.0,58.0
635,75.0,0,192,4.0,70.0
636,63.0,240,192,5.0,70.0
637,55.0,0,180,6.0,58.0
638,58.0,0,180,6.0,58.0
639,48.0,0,384,7.0,58.0
640,63.0,0,384,5.0,70.0
641,36.0,240,384,8.0,58.0
642,75.0,0,384,4.0,70.0
643,55.0,0,180,6.0,58.0
644,58.0,240,180,6.0,58.0
645,58.0,240,180,6.0,58.0
646,67.0,0,180,6.0,58.0
647,65.0,0,240,5.0,70.0
648,77.0,0,240,4.0,70.0
649,67.0,240,180,6.0,58.0
650,58.0,0,180,6.0,58.0
651,75.0,0,192,4.0,70.0
652,63.0,0,192,5.0,70.0
653,55.0,240,180,6.0,58.0
654,58.0,0,180,6.0,58.0
655,75.0,0,384,4.0,70.0
656,63.0,0,384,5.0,70.0
657,58.0,0,180,6.0,58.0
658,55.0,240,180,6.0,58.0
659,67.0,0,180,6.0,58.0
660,58.0,0,180,6.0,58.0
661,77.0,0,240,4.0,70.0
662,65.0,240,240,5.0,70.0
663,67.0,0,3744,2.0,58.0
664,82.0,240,7584,1.0,70.0
665,67.0,0,180,6.0,58.0
666,58.0,240,180,6.0,58.0
667,75.0,0,192,4.0,70.0
668,63.0,0,192,5.0,70.0
669,57.0,0,180,6.0,58.0
670,60.0,0,180,6.0,58.0
671,53.0,240,384,7.0,58.0
672,41.0,0,384,8.0,58.0
673,57.0,0,180,6.0,58.0
674,60.0,240,180,6.0,58.0
675,75.0,0,480,4.0,70.0
676,63.0,0,480,5.0,70.0
677,63.0,240,180,6.0,58.0
678,69.0,0,180,6.0,58.0
679,84.0,0,384,4.0,70.0
680,72.0,0,384,5.0,70.0
681,69.0,0,180,6.0,58.0
682,63.0,240,180,6.0,58.0
683,57.0,240,180,6.0,58.0
684,60.0,0,180,6.0,58.0
685,60.0,240,180,6.0,58.0
686,57.0,0,180,6.0,58.0
687,63.0,0,180,6.0,58.0
688,69.0,0,180,6.0,58.0
689,84.0,0,240,4.0,70.0
690,72.0,240,240,5.0,70.0
691,63.0,0,180,6.0,58.0
692,69.0,0,180,6.0,58.0
693,82.0,0,192,4.0,70.0
694,70.0,240,192,5.0,70.0
695,63.0,240,180,6.0,58.0
696,60.0,0,180,6.0,58.0
697,69.0,0,384,5.0,70.0
698,53.0,0,384,7.0,58.0
699,81.0,0,384,4.0,70.0
700,41.0,0,384,8.0,58.0
701,60.0,0,180,6.0,58.0
702,63.0,240,180,6.0,58.0
703,63.0,0,180,6.0,58.0
704,72.0,0,180,6.0,58.0
705,81.0,0,240,4.0,70.0
706,69.0,240,240,5.0,70.0
707,72.0,0,180,6.0,58.0
708,63.0,0,180,6.0,58.0
709,67.0,240,192,5.0,70.0
710,79.0,0,192,4.0,70.0
711,60.0,0,180,6.0,58.0
712,57.0,0,180,6.0,58.0
713,65.0,0,384,5.0,70.0
714,77.0,240,384,4.0,70.0
715,60.0,0,180,6.0,58.0
716,57.0,240,180,6.0,58.0
717,69.0,0,180,6.0,58.0
718,60.0,240,180,6.0,58.0
719,65.0,0,240,5.0,70.0
720,77.0,0,240,4.0,70.0
721,72.0,0,7584,1.0,70.0
722,63.0,0,7584,2.0,58.0
723,65.0,0,3744,2.0,70.0
724,81.0,0,3744,1.0,70.0
725,60.0,0,180,6.0,58.0
726,69.0,0,180,6.0,58.0
727,63.0,0,192,5.0,70.0
728,75.0,240,192,4.0,70.0
729,58.0,0,192,7.0,105.0
730,70.0,0,192,6.0,105.0
731,62.0,0,192,6.0,105.0
732,46.0,0,192,8.0,58.0
733,62.0,0,384,2.0,70.0
734,65.0,0,384,2.0,70.0
735,50.0,0,192,8.0,105.0
736,70.0,0,192,6.0,105.0
737,62.0,240,192,7.0,105.0
738,46.0,0,192,8.0,105.0
739,58.0,240,192,7.0,105.0
740,74.0,0,192,6.0,105.0
741,58.0,0,192,2.0,105.0
742,70.0,240,192,6.0,105.0
743,62.0,0,192,2.0,105.0
744,62.0,0,192,7.0,105.0
745,50.0,0,192,8.0,105.0
746,58.0,0,192,7.0,105.0
747,58.0,0,192,2.0,105.0
748,46.0,0,192,8.0,105.0
749,74.0,240,192,6.0,105.0
750,62.0,0,192,2.0,105.0
751,50.0,0,192,8.0,105.0
752,70.0,0,192,6.0,105.0
753,62.0,240,192,7.0,105.0
754,82.0,0,1536,4.0,105.0
755,70.0,0,1536,5.0,105.0
756,82.0,0,1536,0.0,105.0
757,70.0,0,1536,3.0,105.0
758,62.0,0,1536,5.0,105.0
759,70.0,0,1536,4.0,105.0
760,74.0,0,1536,1.0,70.0
761,82.0,240,1536,1.0,70.0
762,58.0,0,192,2.0,105.0
763,46.0,0,192,8.0,105.0
764,58.0,240,192,7.0,105.0
765,74.0,0,192,6.0,105.0
766,62.0,0,192,7.0,105.0
767,70.0,0,192,6.0,105.0
768,50.0,240,192,8.0,105.0
769,62.0,0,192,2.0,105.0
770,57.0,0,192,2.0,105.0
771,45.0,0,192,8.0,105.0
772,57.0,0,192,7.0,105.0
773,72.0,0,192,6.0,105.0
774,69.0,0,192,6.0,105.0
775,60.0,0,192,7.0,105.0
776,48.0,0,192,8.0,105.0
777,60.0,240,192,2.0,105.0
778,57.0,0,192,7.0,105.0
779,45.0,0,192,8.0,105.0
780,57.0,240,192,2.0,105.0
781,72.0,0,192,6.0,105.0
782,60.0,0,192,2.0,105.0
783,60.0,0,192,7.0,105.0
784,48.0,240,192,8.0,105.0
785,69.0,0,192,6.0,105.0
786,72.0,240,192,6.0,105.0
787,57.0,0,192,2.0,105.0
788,69.0,0,1152,5.0,105.0
789,77.0,0,1152,5.0,105.0
790,57.0,0,192,7.0,105.0
791,45.0,0,192,8.0,105.0
792,77.0,0,1152,4.0,105.0
793,69.0,0,192,6.0,105.0
794,60.0,240,192,7.0,105.0
795,48.0,0,192,8.0,105.0
796,60.0,0,192,2.0,105.0
797,77.0,0,1536,1.0,105.0
798,65.0,0,1536,3.0,105.0
799,89.0,240,1536,0.0,105.0
800,45.0,0,192,8.0,105.0
801,57.0,240,192,7.0,105.0
802,72.0,0,192,6.0,105.0
803,57.0,0,192,2.0,105.0
804,77.0,0,132,4.0,105.0
805,77.0,0,132,5.0,105.0
806,69.0,0,192,6.0,105.0
807,60.0,0,192,7.0,105.0
808,48.0,0,192,8.0,105.0
809,60.0,240,192,2.0,105.0
810,55.0,0,192,2.0,105.0
811,43.0,240,192,8.0,105.0
812,55.0,0,192,7.0,105.0
813,70.0,0,192,6.0,105.0
814,75.0,0,264,5.0,105.0
815,75.0,0,264,4.0,105.0
816,46.0,0,192,8.0,105.0
817,58.0,0,192,7.0,105.0
818,67.0,0,192,6.0,105.0
819,58.0,240,192,2.0,105.0
820,43.0,0,192,8.0,105.0
821,55.0,0,192,2.0,105.0
822,70.0,0,192,6.0,105.0
823,55.0,0,192,7.0,105.0
824,79.0,240,264,4.0,105.0
825,79.0,0,264,5.0,105.0
826,58.0,0,768,3.0,105.0
827,58.0,0,192,7.0,105.0
828,46.0,0,192,8.0,105.0
829,58.0,240,192,2.0,105.0
830,67.0,0,192,6.0,105.0
831,55.0,240,192,2.0,105.0
832,55.0,0,192,7.0,105.0
833,43.0,0,192,8.0,105.0
834,70.0,0,192,6.0,105.0
835,82.0,0,264,5.0,105.0
836,82.0,0,264,4.0,105.0
837,46.0,0,192,8.0,105.0
838,58.0,0,192,7.0,105.0
839,58.0,240,192,2.0,105.0
840,67.0,0,192,6.0,105.0
841,87.0,0,1536,0.0,105.0
842,75.0,0,1536,1.0,105.0
843,58.0,0,576,3.0,105.0
844,55.0,0,192,2.0,105.0
845,70.0,0,192,6.0,105.0
846,43.0,0,192,8.0,105.0
847,55.0,240,192,7.0,105.0
848,67.0,0,192,6.0,105.0
849,58.0,0,192,2.0,105.0
850,46.0,240,192,8.0,105.0
851,58.0,0,192,7.0,105.0
852,58.0,0,192,3.0,105.0
853,53.0,0,192,2.0,105.0
854,53.0,0,192,7.0,105.0
855,41.0,240,192,8.0,105.0
856,70.0,0,192,6.0,105.0
857,74.0,0,264,4.0,105.0
858,74.0,0,264,5.0,105.0
859,58.0,0,192,7.0,105.0
860,65.0,0,192,6.0,105.0
861,58.0,240,192,2.0,105.0
862,46.0,0,192,8.0,105.0
863,53.0,0,192,7.0,105.0
864,70.0,240,192,6.0,105.0
865,53.0,0,192,2.0,105.0
866,41.0,0,192,8.0,105.0
867,77.0,0,264,5.0,105.0
868,77.0,0,264,4.0,105.0
869,65.0,0,192,6.0,105.0
870,46.0,0,192,8.0,105.0
871,58.0,240,192,7.0,105.0
872,58.0,0,192,2.0,105.0
873,70.0,0,192,6.0,105.0
874,41.0,0,192,8.0,105.0
875,53.0,0,192,2.0,105.0
876,53.0,240,192,7.0,105.0
877,82.0,0,264,5.0,105.0
878,82.0,0,264,4.0,105.0
879,58.0,0,192,2.0,105.0
880,65.0,0,192,6.0,105.0
881,58.0,0,192,7.0,105.0
882,46.0,240,192,8.0,105.0
883,86.0,0,1536,0.0,105.0
884,74.0,0,1536,1.0,105.0
885,58.0,0,1536,3.0,105.0
886,70.0,240,192,6.0,105.0
887,53.0,0,192,2.0,105.0
888,53.0,0,192,7.0,105.0
889,41.0,0,192,8.0,105.0
890,74.0,0,132,4.0,105.0
891,74.0,0,132,5.0,105.0
892,65.0,0,192,6.0,105.0
893,46.0,0,192,8.0,105.0
894,58.0,240,192,2.0,105.0
895,58.0,0,192,7.0,105.0
896,51.0,0,192,2.0,105.0
897,67.0,0,192,6.0,105.0
898,51.0,0,192,7.0,105.0
899,39.0,240,192,8.0,105.0
900,72.0,0,264,4.0,105.0
901,72.0,0,264,5.0,105.0
902,55.0,0,192,2.0,105.0
903,55.0,0,192,7.0,105.0
904,63.0,0,192,6.0,105.0
905,43.0,240,192,8.0,105.0
906,39.0,240,192,8.0,105.0
907,67.0,0,192,6.0,105.0
908,51.0,0,192,7.0,105.0
909,51.0,0,192,2.0,105.0
910,75.0,0,264,4.0,105.0
911,75.0,0,264,5.0,105.0
912,55.0,0,192,7.0,105.0
913,55.0,240,192,2.0,105.0
914,63.0,0,192,6.0,105.0
915,43.0,0,192,8.0,105.0
916,51.0,0,192,2.0,105.0
917,67.0,240,192,6.0,105.0
918,51.0,0,192,7.0,105.0
919,39.0,0,192,8.0,105.0
920,79.0,0,264,4.0,105.0
921,79.0,0,264,5.0,105.0
922,43.0,0,192,8.0,105.0
923,55.0,0,192,2.0,105.0
924,63.0,0,192,6.0,105.0
925,55.0,240,192,7.0,105.0
926,84.0,0,1536,0.0,105.0
927,72.0,0,1536,1.0,105.0
928,51.0,240,192,2.0,105.0
929,67.0,0,192,6.0,105.0
930,39.0,0,192,8.0,105.0
931,51.0,0,192,7.0,105.0
932,72.0,0,264,5.0,105.0
933,72.0,0,264,4.0,105.0
934,63.0,0,192,6.0,105.0
935,55.0,0,192,2.0,105.0
936,55.0,0,192,7.0,105.0
937,43.0,240,192,8.0,105.0
938,38.0,0,192,8.0,105.0
939,50.0,0,192,2.0,105.0
940,65.0,0,192,6.0,105.0
941,50.0,240,192,7.0,105.0
942,70.0,0,264,4.0,105.0
943,70.0,0,264,5.0,105.0
944,53.0,0,192,2.0,105.0
945,41.0,0,192,8.0,105.0
946,62.0,0,192,6.0,105.0
947,53.0,240,192,7.0,105.0
948,50.0,0,192,7.0,105.0
949,50.0,0,192,2.0,105.0
950,65.0,0,192,6.0,105.0
951,38.0,0,192,8.0,105.0
952,74.0,0,264,5.0,105.0
953,74.0,240,264,4.0,105.0
954,41.0,0,192,8.0,105.0
955,53.0,240,192,7.0,105.0
956,53.0,0,192,2.0,105.0
957,62.0,0,192,6.0,105.0
958,38.0,0,192,8.0,105.0
959,65.0,240,192,6.0,105.0
960,50.0,0,192,2.0,105.0
961,50.0,0,192,7.0,105.0
962,77.0,0,264,4.0,105.0
963,77.0,0,264,5.0,105.0
964,62.0,240,192,6.0,105.0
965,41.0,0,192,8.0,105.0
966,53.0,0,192,7.0,105.0
967,53.0,0,192,2.0,105.0
968,70.0,0,1536,1.0,105.0
969,82.0,0,1536,0.0,105.0
970,50.0,240,192,7.0,105.0
971,65.0,0,192,6.0,105.0
972,38.0,0,192,8.0,105.0
973,50.0,0,192,2.0,105.0
974,65.0,0,132,5.0,105.0
975,77.0,240,132,4.0,105.0
976,62.0,0,192,6.0,105.0
977,53.0,0,192,7.0,105.0
978,41.0,0,192,8.0,105.0
979,53.0,0,192,2.0,105.0
980,76.0,0,192,4.0,125.0
981,64.0,0,192,5.0,125.0
982,77.0,240,192,4.0,105.0
983,65.0,0,192,5.0,105.0
984,79.0,240,192,4.0,105.0
985,67.0,0,192,5.0,105.0
986,69.0,240,192,5.0,105.0
987,81.0,0,192,4.0,105.0
988,82.0,240,192,4.0,105.0
989,70.0,0,192,5.0,105.0
990,72.0,0,192,5.0,105.0
991,84.0,240,192,4.0,105.0
992,36.0,0,1536,8.0,112.0
993,82.0,0,1536,1.0,112.0
994,79.0,0,1536,1.0,92.0
995,88.0,0,1536,0.0,112.0
996,48.0,240,1536,7.0,112.0
997,60.0,0,1536,6.0,112.0
998,64.0,0,1536,2.0,112.0
999,58.0,0,1536,3.0,92.0
1000,55.0,0,1536,3.0,112.0
1001,73.0,240,192,5.0,105.0
1002,85.0,0,192,4.0,105.0
1003,77.0,0,192,4.0,105.0
1004,65.0,240,192,2.0,92.0
1005,55.0,0,1872,2.0,92.0
1006,89.0,0,192,0.0,92.0
1007,65.0,0,192,5.0,105.0
1008,76.0,0,192,4.0,125.0
1009,64.0,0,192,5.0,125.0
1010,77.0,240,192,4.0,105.0
1011,65.0,0,192,5.0,105.0
1012,79.0,0,192,4.0,105.0
1013,67.0,240,192,5.0,105.0
1014,48.0,0,768,7.0,112.0
1015,55.0,0,768,3.0,112.0
1016,36.0,0,768,8.0,112.0
1017,58.0,240,768,3.0,92.0
1018,60.0,0,768,6.0,112.0
1019,81.0,240,192,4.0,105.0
1020,69.0,0,192,5.0,105.0
1021,70.0,0,192,5.0,105.0
1022,82.0,0,192,4.0,105.0
1023,84.0,240,192,4.0,105.0
1024,72.0,0,192,5.0,105.0
1025,82.0,0,1536,1.0,112.0
1026,79.0,0,1536,1.0,92.0
1027,88.0,0,1536,0.0,112.0
1028,64.0,0,1536,2.0,112.0
1029,73.0,240,192,5.0,105.0
1030,85.0,0,192,4.0,105.0
1031,49.0,0,768,7.0,112.0
1032,61.0,0,768,6.0,112.0
1033,55.0,0,768,3.0,112.0
1034,58.0,0,768,3.0,92.0
1035,37.0,240,768,8.0,112.0
1036,65.0,0,192,5.0,105.0
1037,77.0,0,192,4.0,105.0
1038,89.0,0,192,0.0,92.0
1039,55.0,0,1872,2.0,92.0
1040,65.0,240,192,2.0,92.0
1041,64.0,0,192,5.0,125.0
1042,76.0,0,192,4.0,125.0
1043,77.0,0,192,4.0,105.0
1044,65.0,240,192,5.0,105.0
1045,79.0,0,192,4.0,105.0
1046,67.0,240,192,5.0,105.0
1047,48.0,0,768,7.0,112.0
1048,55.0,0,768,3.0,112.0
1049,36.0,0,768,8.0,112.0
1050,58.0,0,768,3.0,92.0
1051,60.0,0,768,6.0,112.0
1052,69.0,240,192,5.0,105.0
1053,81.0,0,192,4.0,105.0
1054,70.0,0,192,5.0,105.0
1055,82.0,0,192,4.0,105.0
1056,84.0,240,192,4.0,105.0
1057,72.0,0,192,5.0,105.0
1058,64.0,0,1536,2.0,112.0
1059,82.0,0,1536,1.0,112.0
1060,79.0,240,1536,1.0,92.0
1061,88.0,0,1536,0.0,112.0
1062,85.0,0,192,4.0,105.0
1063,73.0,240,192,5.0,105.0
1064,49.0,0,768,7.0,112.0
1065,58.0,0,768,3.0,92.0
1066,55.0,0,768,3.0,112.0
1067,61.0,0,768,6.0,112.0
1068,37.0,240,768,8.0,112.0
1069,65.0,0,192,2.0,92.0
1070,65.0,0,192,5.0,105.0
1071,77.0,240,192,4.0,105.0
1072,55.0,0,1872,2.0,92.0
1073,89.0,0,192,0.0,92.0
1074,76.0,0,192,4.0,125.0
1075,64.0,0,192,5.0,125.0
1076,77.0,240,192,4.0,105.0
1077,65.0,0,192,5.0,105.0
1078,67.0,0,192,5.0,105.0
1079,79.0,240,192,4.0,105.0
1080,60.0,0,768,6.0,112.0
1081,36.0,0,768,8.0,112.0
1082,48.0,0,768,7.0,112.0
1083,69.0,240,192,5.0,105.0
1084,81.0,0,192,4.0,105.0
1085,70.0,0,192,5.0,105.0
1086,82.0,240,192,4.0,105.0
1087,72.0,0,192,5.0,105.0
1088,84.0,240,192,4.0,105.0
1089,88.0,0,1536,0.0,92.0
1090,64.0,0,1536,2.0,112.0
1091,55.0,240,1536,3.0,112.0
1092,55.0,0,1536,2.0,92.0
1093,79.0,0,1536,1.0,92.0
1094,82.0,0,1536,1.0,112.0
1095,58.0,0,1536,3.0,92.0
1096,85.0,240,192,4.0,105.0
1097,73.0,0,192,5.0,105.0
1098,76.0,0,192,4.0,105.0
1099,64.0,0,192,5.0,105.0
1100,36.0,0,192,8.0,92.0
1101,60.0,240,192,6.0,105.0
1102,48.0,0,192,7.0,92.0
1103,65.0,0,180,6.0,105.0
1104,65.0,0,180,5.0,105.0
1105,53.0,0,180,2.0,92.0
1106,53.0,0,180,7.0,105.0
1107,41.0,0,180,8.0,105.0
1108,65.0,0,180,2.0,92.0
1109,53.0,0,180,2.0,105.0
1110,41.0,0,180,8.0,105.0
1111,53.0,0,180,7.0,105.0
1112,65.0,240,180,6.0,105.0
1113,77.0,0,180,5.0,105.0
1114,41.0,0,180,8.0,105.0
1115,65.0,0,180,6.0,105.0
1116,53.0,0,180,2.0,105.0
1117,77.0,0,180,5.0,105.0
1118,53.0,240,180,7.0,105.0
1119,77.0,0,768,4.0,116.0
1120,89.0,0,768,0.0,92.0
1121,77.0,0,180,5.0,105.0
1122,53.0,240,180,2.0,105.0
1123,53.0,0,180,7.0,105.0
1124,65.0,0,180,6.0,105.0
1125,41.0,0,180,8.0,105.0
1126,69.0,0,180,6.0,105.0
1127,53.0,0,180,2.0,105.0
1128,41.0,0,180,8.0,105.0
1129,53.0,0,180,7.0,105.0
1130,75.0,240,180,5.0,105.0
1131,84.0,0,288,4.0,116.0
1132,75.0,0,180,5.0,105.0
1133,41.0,0,180,8.0,105.0
1134,53.0,0,180,2.0,105.0
1135,69.0,0,180,6.0,105.0
1136,53.0,240,180,7.0,105.0
1137,81.0,0,1536,1.0,92.0
1138,65.0,0,1536,3.0,92.0
1139,72.0,0,180,6.0,105.0
1140,53.0,0,180,7.0,105.0
1141,75.0,0,180,5.0,105.0
1142,41.0,240,180,8.0,105.0
1143,53.0,0,180,2.0,105.0
1144,87.0,0,768,0.0,105.0
1145,81.0,0,288,4.0,116.0
1146,53.0,0,180,2.0,105.0
1147,41.0,0,180,8.0,105.0
1148,72.0,0,180,6.0,105.0
1149,53.0,0,180,7.0,105.0
1150,75.0,240,180,5.0,105.0
1151,53.0,0,180,2.0,105.0
1152,73.0,0,180,5.0,105.0
1153,70.0,0,180,6.0,105.0
1154,53.0,0,180,7.0,105.0
1155,41.0,0,180,8.0,105.0
1156,73.0,0,180,5.0,105.0
1157,53.0,0,180,2.0,105.0
1158,53.0,0,180,7.0,105.0
1159,70.0,240,180,6.0,105.0
1160,41.0,0,180,8.0,105.0
1161,70.0,0,180,6.0,105.0
1162,73.0,240,180,5.0,105.0
1163,53.0,0,180,2.0,105.0
1164,53.0,0,180,7.0,105.0
1165,41.0,0,180,8.0,105.0
1166,82.0,0,768,1.0,105.0
1167,65.0,0,768,3.0,105.0
1168,77.0,240,2688,1.0,92.0
1169,85.0,240,768,0.0,105.0
1170,85.0,0,768,4.0,116.0
1171,41.0,0,180,8.0,105.0
1172,53.0,0,180,7.0,105.0
1173,73.0,0,180,5.0,105.0
1174,70.0,240,180,6.0,105.0
1175,53.0,0,180,2.0,105.0
1176,73.0,0,180,5.0,105.0
1177,53.0,0,180,7.0,105.0
1178,41.0,0,180,8.0,105.0
1179,53.0,240,180,2.0,105.0
1180,70.0,0,180,6.0,105.0
1181,76.0,0,288,4.0,116.0
1182,53.0,240,180,2.0,105.0
1183,53.0,0,180,7.0,105.0
1184,41.0,0,180,8.0,105.0
1185,70.0,0,180,6.0,105.0
1186,73.0,0,180,5.0,105.0
1187,41.0,0,180,8.0,105.0
1188,53.0,0,180,7.0,105.0
1189,73.0,240,180,5.0,105.0
1190,53.0,0,180,2.0,105.0
1191,70.0,0,180,6.0,105.0
1192,76.0,0,768,1.0,105.0
1193,65.0,0,768,3.0,105.0
1194,79.0,0,768,1.0,105.0
1195,79.0,0,288,4.0,116.0
1196,88.0,0,768,0.0,105.0
1197,53.0,0,180,2.0,105.0
1198,70.0,0,180,6.0,105.0
1199,73.0,0,180,5.0,105.0
1200,53.0,240,180,7.0,105.0
1201,41.0,0,180,8.0,105.0
1202,72.0,0,180,5.0,105.0
1203,53.0,0,180,2.0,105.0
1204,41.0,0,180,8.0,105.0
1205,69.0,0,180,6.0,105.0
1206,53.0,0,180,7.0,105.0
1207,53.0,0,180,7.0,105.0
1208,69.0,0,180,6.0,105.0
1209,41.0,0,180,8.0,105.0
1210,53.0,0,180,2.0,105.0
1211,72.0,240,180,5.0,105.0
1212,53.0,240,180,7.0,105.0
1213,41.0,0,180,8.0,105.0
1214,72.0,0,180,5.0,105.0
1215,53.0,0,180,2.0,105.0
1216,69.0,0,180,6.0,105.0
1217,77.0,0,768,4.0,116.0
1218,89.0,0,768,0.0,105.0
1219,65.0,0,768,3.0,105.0
1220,69.0,0,180,6.0,105.0
1221,53.0,0,180,2.0,105.0
1222,72.0,240,180,5.0,105.0
1223,41.0,0,180,8.0,105.0
1224,53.0,0,180,7.0,105.0
1225,53.0,0,180,2.0,105.0
1226,53.0,0,180,7.0,105.0
1227,69.0,0,180,6.0,105.0
1228,41.0,240,180,8.0,105.0
1229,75.0,0,180,5.0,105.0
1230,84.0,0,192,4.0,116.0
1231,65.0,0,384,3.0,105.0
1232,72.0,0,180,6.0,105.0
1233,53.0,0,180,7.0,105.0
1234,41.0,0,180,8.0,105.0
1235,75.0,0,180,5.0,105.0
1236,53.0,0,180,2.0,105.0
1237,81.0,240,192,4.0,116.0
1238,81.0,0,1536,1.0,105.0
1239,53.0,0,180,7.0,105.0
1240,69.0,0,180,6.0,105.0
1241,53.0,0,180,2.0,105.0
1242,75.0,240,180,5.0,105.0
1243,41.0,0,180,8.0,105.0
1244,84.0,0,192,4.0,116.0
1245,87.0,0,768,0.0,105.0
1246,65.0,0,384,3.0,105.0
1247,75.0,0,180,5.0,105.0
1248,53.0,0,180,7.0,105.0
1249,53.0,0,180,2.0,105.0
1250,72.0,240,180,6.0,105.0
1251,41.0,0,180,8.0,105.0
1252,81.0,0,192,4.0,116.0
1253,73.0,0,180,5.0,105.0
1254,53.0,0,180,2.0,105.0
1255,53.0,0,180,7.0,105.0
1256,70.0,0,180,6.0,105.0
1257,41.0,0,180,8.0,105.0
1258,85.0,0,192,4.0,116.0
1259,65.0,240,384,3.0,105.0
1260,53.0,0,180,2.0,105.0
1261,70.0,240,180,6.0,105.0
1262,41.0,0,180,8.0,105.0
1263,73.0,0,180,5.0,105.0
1264,53.0,0,180,7.0,105.0
1265,82.0,0,192,4.0,116.0
1266,41.0,0,180,8.0,105.0
1267,53.0,0,180,2.0,105.0
1268,73.0,0,180,5.0,105.0
1269,53.0,0,180,7.0,105.0
1270,70.0,240,180,6.0,105.0
1271,85.0,0,192,4.0,116.0
1272,82.0,0,768,1.0,105.0
1273,85.0,0,768,0.0,105.0
1274,77.0,240,2688,1.0,105.0
1275,65.0,0,384,3.0,105.0
1276,53.0,0,180,7.0,105.0
1277,73.0,0,180,5.0,105.0
1278,53.0,0,180,2.0,105.0
1279,41.0,0,180,8.0,105.0
1280,70.0,240,180,6.0,105.0
1281,82.0,0,192,4.0,116.0
1282,53.0,0,180,7.0,105.0
1283,53.0,0,180,2.0,105.0
1284,70.0,0,180,5.0,105.0
1285,67.0,0,180,6.0,105.0
1286,41.0,0,180,8.0,105.0
1287,76.0,0,192,4.0,116.0
1288,65.0,0,384,3.0,105.0
1289,64.0,240,180,6.0,105.0
1290,53.0,0,180,2.0,105.0
1291,70.0,0,180,5.0,105.0
1292,53.0,0,180,7.0,105.0
1293,41.0,0,180,8.0,105.0
1294,79.0,0,192,4.0,116.0
1295,70.0,240,180,5.0,105.0
1296,53.0,0,180,2.0,105.0
1297,67.0,0,180,6.0,105.0
1298,41.0,0,180,8.0,105.0
1299,53.0,0,180,7.0,105.0
1300,76.0,0,192,4.0,116.0
1301,79.0,0,768,1.0,105.0
1302,88.0,0,768,0.0,105.0
1303,76.0,240,768,1.0,105.0
1304,41.0,240,180,8.0,105.0
1305,53.0,0,180,2.0,105.0
1306,53.0,0,180,7.0,105.0
1307,70.0,0,180,5.0,105.0
1308,64.0,0,180,6.0,105.0
1309,79.0,0,192,4.0,116.0
1310,69.0,0,384,5.0,105.0
1311,53.0,0,384,2.0,105.0
1312,65.0,0,384,6.0,105.0
1313,81.0,0,384,1.0,105.0
1314,41.0,0,384,8.0,105.0
1315,77.0,0,384,1.0,105.0
1316,53.0,0,384,7.0,105.0
1317,89.0,240,384,0.0,105.0
1318,77.0,0,384,4.0,116.0
1319,65.0,0,384,3.0,105.0
1320,77.0,0,384,0.0,92.0
1321,65.0,0,384,3.0,92.0
1322,57.0,960,384,4.0,92.0
1323,41.0,0,384,2.0,92.0
1324,57.0,0,384,5.0,92.0
1325,65.0,0,384,5.0,92.0
1326,65.0,0,384,4.0,92.0
1327,53.0,0,384,6.0,92.0
1328,29.0,0,384,8.0,92.0
1329,69.0,0,384,1.0,92.0
1330,41.0,0,384,7.0,92.0
1331,72.0,0,384,1.0,92.0
1332,62.0,0,1440,7.0,58.0
1333,50.0,0,1440,8.0,58.0
1334,62.0,0,1440,6.0,58.0
1335,65.0,2880,1440,5.0,58.0
1336,77.0,0,1440,4.0,70.0
1337,64.0,0,480,5.0,58.0
1338,60.0,1440,480,6.0,58.0
1339,76.0,0,480,4.0,70.0
1340,60.0,0,480,7.0,58.0
1341,48.0,0,480,8.0,58.0
1342,63.0,0,384,5.0,58.0
1343,53.0,0,384,7.0,58.0
1344,75.0,0,384,4.0,70.0
1345,57.0,480,384,6.0,58.0
1346,41.0,0,384,8.0,58.0
1347,75.0,0,1440,1.0,70.0
1348,63.0,0,1440,2.0,70.0
1349,77.0,1440,120,1.0,70.0
1350,65.0,0,120,2.0,70.0
1351,63.0,0,120,2.0,70.0
1352,75.0,120,120,1.0,70.0
1353,62.0,0,120,2.0,70.0
1354,74.0,120,120,1.0,70.0
1355,60.0,120,120,2.0,70.0
1356,72.0,0,120,1.0,70.0
1357,70.0,120,384,1.0,70.0
1358,58.0,0,384,2.0,70.0
1359,70.0,480,312,4.0,70.0
1360,43.0,0,312,8.0,58.0
1361,62.0,0,312,6.0,58.0
1362,58.0,0,312,5.0,58.0
1363,55.0,0,312,7.0,58.0
1364,58.0,0,480,5.0,58.0
1365,43.0,0,480,8.0,58.0
1366,62.0,480,480,6.0,58.0
1367,55.0,0,480,7.0,58.0
1368,70.0,0,480,4.0,70.0
1369,39.0,480,384,8.0,58.0
1370,51.0,0,384,7.0,58.0
1371,67.0,0,384,6.0,58.0
1372,60.0,0,384,5.0,58.0
1373,72.0,0,384,4.0,70.0
1374,58.0,0,720,5.0,58.0
1375,74.0,480,720,4.0,70.0
1376,53.0,0,768,7.0,58.0
1377,65.0,0,768,6.0,58.0
1378,41.0,0,768,8.0,58.0
1379,75.0,0,240,4.0,70.0
1380,60.0,720,240,5.0,58.0
1381,57.0,0,384,5.0,58.0
1382,72.0,240,384,4.0,70.0
1383,51.0,0,1440,7.0,58.0
1384,67.0,0,1440,5.0,58.0
1385,55.0,0,1440,6.0,58.0
1386,79.0,960,1440,4.0,70.0
1387,39.0,0,1440,8.0,58.0
1388,57.0,0,480,6.0,58.0
1389,38.0,0,480,8.0,58.0
1390,50.0,0,480,7.0,58.0
1391,78.0,1440,480,4.0,70.0
1392,66.0,0,480,5.0,58.0
1393,43.0,0,480,8.0,58.0
1394,59.0,0,480,6.0,58.0
1395,55.0,0,480,7.0,58.0
1396,65.0,480,480,5.0,58.0
1397,77.0,0,480,4.0,70.0
1398,64.0,0,480,5.0,58.0
1399,48.0,0,480,7.0,58.0
1400,36.0,480,480,8.0,58.0
1401,60.0,0,480,6.0,58.0
1402,76.0,0,480,4.0,70.0
1403,57.0,0,480,6.0,58.0
1404,53.0,480,480,7.0,58.0
1405,63.0,0,480,5.0,58.0
1406,41.0,0,480,8.0,58.0
1407,75.0,0,480,4.0,70.0
1408,62.0,0,384,5.0,58.0
1409,34.0,0,384,8.0,58.0
1410,74.0,0,384,4.0,70.0
1411,58.0,480,384,6.0,58.0
1412,46.0,0,384,7.0,58.0
1413,55.0,0,384,6.0,58.0
1414,51.0,0,384,7.0,58.0
1415,39.0,0,384,8.0,58.0
1416,72.0,0,480,4.0,70.0
1417,60.0,480,480,5.0,58.0
1418,63.0,480,768,5.0,58.0
1419,75.0,0,768,4.0,70.0
1420,48.0,0,384,6.0,58.0
1421,41.0,480,384,8.0,58.0
1422,53.0,0,384,7.0,58.0
1423,69.0,0,384,4.0,70.0
1424,57.0,480,384,5.0,58.0
1425,58.0,0,240,2.0,70.0
1426,70.0,0,240,1.0,70.0
1427,46.0,0,384,7.0,58.0
1428,58.0,0,384,5.0,58.0
1429,50.0,480,384,6.0,58.0
1430,70.0,0,384,4.0,70.0
1431,34.0,0,384,8.0,58.0
1432,69.0,240,240,1.0,70.0
1433,57.0,0,240,2.0,70.0
1434,60.0,0,240,2.0,70.0
1435,72.0,240,240,1.0,70.0
1436,70.0,240,240,1.0,70.0
1437,58.0,0,240,2.0,70.0
1438,62.0,240,240,2.0,70.0
1439,74.0,0,240,1.0,70.0
1440,60.0,0,240,2.0,70.0
1441,72.0,240,240,1.0,70.0
1442,75.0,0,240,1.0,70.0
1443,63.0,240,240,2.0,70.0
1444,62.0,0,192,2.0,70.0
1445,74.0,240,192,1.0,70.0
1446,89.0,0,1440,0.0,70.0
1447,77.0,0,1440,1.0,70.0
1448,62.0,0,1440,2.0,70.0
1449,65.0,240,1440,2.0,70.0
1450,76.0,0,480,1.0,70.0
1451,64.0,1440,480,2.0,70.0
1452,60.0,0,480,2.0,70.0
1453,88.0,0,480,0.0,70.0
1454,53.0,0,384,2.0,70.0
1455,63.0,0,384,2.0,70.0
1456,75.0,480,384,1.0,70.0
1457,87.0,0,384,0.0,70.0
1458,63.0,0,1440,5.0,58.0
1459,75.0,0,1440,4.0,58.0
1460,77.0,1440,120,4.0,58.0
1461,65.0,0,120,5.0,58.0
1462,63.0,120,120,5.0,58.0
1463,75.0,0,120,4.0,58.0
1464,62.0,0,120,5.0,58.0
1465,74.0,120,120,4.0,58.0
1466,72.0,120,120,4.0,58.0
1467,60.0,0,120,5.0,58.0
1468,70.0,0,384,4.0,58.0
1469,58.0,120,384,5.0,58.0
1470,82.0,0,312,0.0,70.0
1471,55.0,0,312,2.0,70.0
1472,62.0,0,312,2.0,70.0
1473,70.0,480,312,1.0,70.0
1474,55.0,480,480,2.0,70.0
1475,62.0,0,480,2.0,70.0
1476,82.0,0,480,0.0,70.0
1477,67.0,480,384,2.0,70.0
1478,84.0,0,384,0.0,70.0
1479,70.0,0,864,1.0,70.0
1480,52.0,0,384,2.0,70.0
1481,72.0,0,384,1.0,70.0
1482,70.0,0,720,1.0,70.0
1483,86.0,480,720,0.0,70.0
1484,74.0,0,720,1.0,70.0
1485,75.0,720,240,1.0,70.0
1486,72.0,0,240,1.0,70.0
1487,65.0,0,960,2.0,70.0
1488,53.0,0,960,2.0,70.0
1489,87.0,0,240,0.0,70.0
1490,84.0,0,384,0.0,70.0
1491,69.0,0,384,1.0,70.0
1492,72.0,240,384,1.0,70.0
1493,79.0,960,1152,1.0,70.0
1494,63.0,0,1440,7.0,70.0
1495,55.0,0,1440,6.0,70.0
1496,67.0,0,1440,4.0,70.0
1497,51.0,0,1440,8.0,58.0
1498,78.0,0,384,1.0,70.0
1499,62.0,1440,480,7.0,70.0
1500,57.0,0,480,6.0,70.0
1501,50.0,0,480,8.0,70.0
1502,66.0,0,480,4.0,70.0
1503,60.0,0,1920,5.0,70.0
1504,77.0,0,384,1.0,70.0
1505,43.0,0,480,8.0,70.0
1506,65.0,0,480,4.0,70.0
1507,55.0,0,480,7.0,70.0
1508,59.0,0,480,5.0,70.0
1509,76.0,0,384,1.0,70.0
1510,58.0,0,480,5.0,70.0
1511,60.0,480,480,7.0,70.0
1512,55.0,480,960,6.0,58.0
1513,64.0,0,480,4.0,70.0
1514,48.0,0,480,8.0,70.0
1515,75.0,0,384,1.0,70.0
1516,53.0,0,480,7.0,70.0
1517,63.0,0,480,4.0,70.0
1518,57.0,480,480,5.0,70.0
1519,41.0,0,480,8.0,70.0
1520,56.0,0,384,5.0,70.0
1521,46.0,0,384,8.0,70.0
1522,62.0,0,384,4.0,70.0
1523,58.0,480,384,7.0,70.0
1524,74.0,0,384,1.0,70.0
1525,53.0,0,960,6.0,58.0
1526,58.0,0,240,5.0,58.0
1527,58.0,0,240,6.0,58.0
1528,55.0,0,240,5.0,58.0
1529,55.0,240,240,6.0,58.0
1530,58.0,0,240,5.0,58.0
1531,58.0,0,240,6.0,58.0
1532,55.0,240,240,6.0,58.0
1533,55.0,0,240,5.0,58.0
1534,58.0,0,240,5.0,58.0
1535,58.0,240,240,6.0,58.0
1536,61.0,240,960,2.0,58.0
1537,73.0,0,1440,1.0,58.0
1538,55.0,0,240,5.0,58.0
1539,70.0,0,1440,1.0,58.0
1540,79.0,0,960,0.0,70.0
1541,55.0,240,240,6.0,58.0
1542,58.0,0,960,2.0,58.0
1543,61.0,480,1440,4.0,58.0
1544,56.0,0,240,6.0,58.0
1545,56.0,0,240,5.0,58.0
1546,56.0,0,384,2.0,58.0
1547,72.0,0,384,1.0,58.0
1548,68.0,0,384,1.0,58.0
1549,60.0,0,384,2.0,58.0
1550,60.0,0,384,4.0,58.0
1551,80.0,240,384,0.0,58.0
1552,60.0,0,192,6.0,58.0
1553,60.0,240,192,5.0,58.0
1554,58.0,0,240,5.0,58.0
1555,58.0,0,240,6.0,58.0
1556,55.0,0,240,5.0,58.0
1557,55.0,240,240,6.0,58.0
1558,58.0,0,240,5.0,58.0
1559,58.0,0,240,6.0,58.0
1560,55.0,0,240,6.0,58.0
1561,55.0,240,240,5.0,58.0
1562,58.0,240,240,6.0,58.0
1563,58.0,0,240,5.0,58.0
1564,55.0,240,240,6.0,58.0
1565,73.0,240,1440,1.0,58.0
1566,70.0,0,1440,1.0,58.0
1567,58.0,0,960,2.0,58.0
1568,61.0,0,960,2.0,58.0
1569,79.0,240,960,0.0,58.0
1570,61.0,0,1440,4.0,58.0
1571,55.0,0,240,5.0,58.0
1572,56.0,0,240,5.0,58.0
1573,56.0,0,240,6.0,58.0
1574,80.0,240,384,0.0,58.0
1575,60.0,0,384,4.0,58.0
1576,72.0,0,384,1.0,58.0
1577,68.0,0,384,1.0,58.0
1578,60.0,0,384,2.0,58.0
1579,56.0,0,384,2.0,58.0
1580,60.0,0,192,6.0,58.0
1581,60.0,240,192,5.0,58.0
1582,58.0,0,240,5.0,58.0
1583,58.0,0,240,6.0,58.0
1584,55.0,0,240,6.0,58.0
1585,55.0,240,240,5.0,58.0
1586,58.0,240,240,6.0,58.0
1587,58.0,0,240,5.0,58.0
1588,55.0,0,240,5.0,58.0
1589,55.0,240,240,6.0,58.0
1590,58.0,0,240,5.0,58.0
1591,58.0,240,240,6.0,58.0
1592,55.0,240,240,6.0,58.0
1593,79.0,0,960,0.0,58.0
1594,73.0,0,1440,1.0,58.0
1595,70.0,240,1440,1.0,58.0
1596,61.0,0,960,2.0,58.0
1597,58.0,0,960,2.0,58.0
1598,55.0,0,240,5.0,58.0
1599,61.0,0,1440,4.0,58.0
1600,56.0,0,240,5.0,58.0
1601,56.0,0,240,6.0,58.0
1602,60.0,0,384,2.0,58.0
1603,56.0,0,384,2.0,58.0
1604,68.0,240,384,1.0,58.0
1605,72.0,0,384,1.0,58.0
1606,60.0,0,384,4.0,58.0
1607,80.0,0,384,0.0,58.0
1608,60.0,240,192,5.0,58.0
1609,60.0,0,192,6.0,58.0
1610,58.0,0,240,5.0,58.0
1611,58.0,240,240,6.0,58.0
1612,55.0,0,240,6.0,58.0
1613,55.0,240,240,5.0,58.0
1614,58.0,0,240,5.0,58.0
1615,58.0,0,240,6.0,58.0
1616,55.0,240,240,6.0,58.0
1617,55.0,0,240,5.0,58.0
1618,58.0,240,240,5.0,58.0
1619,58.0,0,240,6.0,58.0
1620,58.0,0,960,2.0,58.0
1621,61.0,0,960,2.0,58.0
1622,79.0,240,960,0.0,58.0
1623,55.0,240,240,5.0,58.0
1624,70.0,0,1440,1.0,58.0
1625,61.0,0,1440,4.0,58.0
1626,73.0,0,1440,1.0,58.0
1627,55.0,0,240,6.0,58.0
1628,51.0,0,7296,7.0,58.0
1629,39.0,0,7296,8.0,58.0
1630,56.0,0,240,6.0,58.0
1631,56.0,0,240,5.0,58.0
1632,72.0,0,384,1.0,58.0
1633,56.0,240,384,2.0,58.0
1634,68.0,0,384,1.0,58.0
1635,60.0,0,384,4.0,58.0
1636,80.0,0,384,0.0,58.0
1637,60.0,0,384,2.0,58.0
1638,60.0,240,192,6.0,58.0
1639,60.0,0,192,5.0,58.0
1640,51.0,0,192,2.0,58.0
1641,55.0,0,216,6.0,58.0
1642,51.0,0,216,7.0,58.0
1643,61.0,0,216,4.0,58.0
1644,58.0,0,216,5.0,58.0
1645,39.0,0,216,8.0,58.0
1646,51.0,0,192,2.0,73.0
1647,39.0,0,216,8.0,72.0
1648,70.0,0,216,5.0,70.0
1649,73.0,240,216,4.0,70.0
1650,51.0,0,216,7.0,73.0
1651,55.0,0,216,6.0,70.0
1652,51.0,0,192,2.0,76.0
1653,73.0,0,216,4.0,72.0
1654,51.0,0,216,7.0,76.0
1655,70.0,240,216,5.0,73.0
1656,55.0,0,216,6.0,72.0
1657,39.0,0,216,8.0,75.0
1658,51.0,0,192,2.0,79.0
1659,39.0,0,216,8.0,77.0
1660,55.0,0,216,6.0,75.0
1661,51.0,240,216,7.0,79.0
1662,70.0,0,216,5.0,77.0
1663,73.0,0,216,4.0,75.0
1664,51.0,0,192,2.0,82.0
1665,39.0,0,216,8.0,80.0
1666,55.0,0,216,6.0,78.0
1667,70.0,0,216,5.0,80.0
1668,51.0,0,216,7.0,83.0
1669,73.0,240,216,4.0,78.0
1670,51.0,0,192,2.0,85.0
1671,70.0,0,216,5.0,84.0
1672,51.0,0,216,7.0,86.0
1673,39.0,0,216,8.0,82.0
1674,55.0,0,216,6.0,80.0
1675,73.0,240,216,4.0,80.0
1676,58.0,0,1536,3.0,70.0
1677,79.0,0,1536,1.0,58.0
1678,82.0,0,1536,0.0,58.0
1679,55.0,0,1536,3.0,70.0
1680,51.0,0,192,2.0,88.0
1681,73.0,240,216,4.0,83.0
1682,70.0,0,216,5.0,87.0
1683,39.0,0,216,8.0,85.0
1684,55.0,0,216,6.0,83.0
1685,51.0,0,216,7.0,89.0
1686,51.0,0,192,2.0,92.0
1687,51.0,240,216,7.0,92.0
1688,73.0,0,216,4.0,86.0
1689,39.0,0,216,8.0,88.0
1690,70.0,0,216,5.0,91.0
1691,55.0,0,216,6.0,86.0
1692,52.0,0,192,2.0,95.0
1693,70.0,240,216,5.0,94.0
1694,40.0,0,216,8.0,90.0
1695,55.0,0,216,6.0,88.0
1696,73.0,0,216,4.0,88.0
1697,52.0,0,216,7.0,96.0
1698,52.0,0,192,2.0,98.0
1699,40.0,0,216,8.0,93.0
1700,85.0,0,216,4.0,91.0
1701,82.0,0,216,5.0,98.0
1702,52.0,0,216,7.0,99.0
1703,67.0,240,216,6.0,91.0
1704,52.0,0,192,2.0,101.0
1705,52.0,0,216,7.0,102.0
1706,85.0,0,216,4.0,94.0
1707,82.0,0,216,5.0,101.0
1708,67.0,240,216,6.0,94.0
1709,40.0,0,216,8.0,95.0
1710,52.0,0,192,2.0,104.0
1711,67.0,0,216,6.0,96.0
1712,40.0,240,216,8.0,98.0
1713,52.0,0,216,7.0,106.0
1714,85.0,0,216,4.0,96.0
1715,82.0,0,216,5.0,105.0
1716,52.0,0,192,2.0,107.0
1717,82.0,0,216,5.0,108.0
1718,52.0,0,216,7.0,109.0
1719,85.0,0,216,4.0,99.0
1720,67.0,0,216,6.0,99.0
1721,40.0,240,216,8.0,100.0
1722,52.0,0,192,2.0,109.0
1723,82.0,0,216,5.0,109.0
1724,40.0,240,216,8.0,103.0
1725,85.0,0,216,4.0,102.0
1726,52.0,0,216,7.0,109.0
1727,67.0,0,216,6.0,102.0
1728,67.0,0,1536,3.0,92.0
1729,91.0,0,1536,0.0,70.0
1730,73.0,240,3456,1.0,58.0
1731,58.0,0,1536,3.0,92.0
1732,82.0,0,1536,1.0,70.0
1733,52.0,0,192,2.0,109.0
1734,52.0,240,216,7.0,109.0
1735,40.0,0,216,8.0,106.0
1736,82.0,0,216,5.0,109.0
1737,67.0,0,216,6.0,105.0
1738,85.0,0,216,4.0,105.0
1739,52.0,0,192,2.0,109.0
1740,85.0,0,216,4.0,107.0
1741,67.0,0,216,6.0,107.0
1742,82.0,240,216,5.0,109.0
1743,52.0,0,216,7.0,109.0
1744,40.0,0,216,8.0,108.0
1745,53.0,0,192,2.0,109.0
1746,41.0,240,192,8.0,109.0
1747,53.0,0,192,7.0,109.0
1748,65.0,0,192,6.0,108.0
1749,82.0,0,384,5.0,105.0
1750,41.0,0,192,8.0,105.0
1751,53.0,0,192,2.0,105.0
1752,53.0,240,192,7.0,105.0
1753,65.0,0,192,6.0,105.0
1754,53.0,0,192,2.0,105.0
1755,65.0,0,192,6.0,105.0
1756,53.0,0,192,7.0,105.0
1757,41.0,240,192,8.0,105.0
1758,65.0,0,768,3.0,92.0
1759,53.0,0,192,2.0,105.0
1760,65.0,0,192,6.0,105.0
1761,53.0,0,192,7.0,105.0
1762,41.0,240,192,8.0,105.0
1763,53.0,240,192,2.0,105.0
1764,65.0,0,192,6.0,105.0
1765,53.0,0,192,7.0,105.0
1766,41.0,0,192,8.0,105.0
1767,74.0,0,768,5.0,105.0
1768,77.0,0,768,5.0,105.0
1769,53.0,0,192,2.0,105.0
1770,41.0,240,192,8.0,105.0
1771,65.0,0,192,6.0,105.0
1772,53.0,0,192,7.0,105.0
1773,65.0,0,648,3.0,105.0
1774,65.0,0,192,6.0,105.0
1775,41.0,0,192,8.0,105.0
1776,53.0,0,192,2.0,105.0
1777,53.0,0,192,7.0,105.0
1778,65.0,0,144,3.0,105.0
1779,89.0,0,1824,0.0,92.0
1780,82.0,0,1824,1.0,92.0
1781,86.0,0,1824,4.0,105.0
1782,74.0,0,1824,1.0,92.0
1783,53.0,0,192,2.0,105.0
1784,41.0,0,192,8.0,105.0
1785,53.0,0,192,7.0,105.0
1786,65.0,240,192,6.0,105.0
1787,74.0,0,480,5.0,105.0
1788,82.0,0,120,1.0,105.0
1789,82.0,0,120,4.0,105.0
1790,86.0,0,120,0.0,105.0
1791,41.0,0,192,2.0,105.0
1792,41.0,0,192,7.0,105.0
1793,53.0,0,192,6.0,105.0
1794,29.0,240,192,8.0,105.0
1795,81.0,0,120,4.0,105.0
1796,84.0,0,120,0.0,105.0
1797,81.0,120,120,1.0,105.0
1798,82.0,0,120,4.0,105.0
1799,86.0,0,120,0.0,105.0
1800,82.0,0,120,1.0,105.0
1801,77.0,240,864,5.0,105.0
1802,75.0,0,384,5.0,105.0
1803,41.0,0,192,7.0,105.0
1804,53.0,0,192,6.0,105.0
1805,29.0,120,192,8.0,105.0
1806,41.0,0,192,2.0,105.0
1807,84.0,120,120,0.0,105.0
1808,81.0,0,120,1.0,105.0
1809,81.0,0,120,4.0,105.0
1810,86.0,0,120,0.0,105.0
1811,82.0,0,120,4.0,105.0
1812,82.0,0,120,1.0,105.0
1813,29.0,0,192,8.0,105.0
1814,41.0,0,192,2.0,105.0
1815,41.0,0,192,7.0,105.0
1816,53.0,0,192,6.0,105.0
1817,81.0,0,120,1.0,105.0
1818,81.0,0,120,4.0,105.0
1819,84.0,120,120,0.0,105.0
1820,65.0,0,768,3.0,105.0
1821,86.0,0,120,0.0,105.0
1822,82.0,0,120,4.0,105.0
1823,82.0,120,120,1.0,105.0
1824,41.0,0,192,7.0,105.0
1825,53.0,0,192,6.0,105.0
1826,41.0,0,192,2.0,105.0
1827,29.0,0,192,8.0,105.0
1828,81.0,0,120,1.0,105.0
1829,81.0,0,120,4.0,105.0
1830,84.0,120,120,0.0,105.0
1831,82.0,0,120,1.0,105.0
1832,82.0,0,120,4.0,105.0
1833,86.0,0,120,0.0,105.0
1834,29.0,0,192,8.0,105.0
1835,53.0,0,192,6.0,105.0
1836,41.0,120,192,2.0,105.0
1837,41.0,0,192,7.0,105.0
1838,84.0,0,120,0.0,105.0
1839,81.0,0,120,4.0,105.0
1840,81.0,120,120,1.0,105.0
1841,75.0,120,768,5.0,105.0
1842,77.0,0,768,5.0,105.0
1843,82.0,0,120,4.0,105.0
1844,86.0,0,120,0.0,105.0
1845,82.0,0,120,1.0,105.0
1846,41.0,0,192,2.0,105.0
1847,29.0,120,192,8.0,105.0
1848,53.0,0,192,6.0,105.0
1849,41.0,0,192,7.0,105.0
1850,84.0,0,120,0.0,105.0
1851,81.0,120,120,4.0,105.0
1852,81.0,0,120,1.0,105.0
1853,82.0,0,120,4.0,105.0
1854,86.0,0,120,0.0,105.0
1855,82.0,0,120,1.0,105.0
1856,29.0,0,192,8.0,105.0
1857,41.0,0,192,2.0,105.0
1858,53.0,0,192,6.0,105.0
1859,41.0,0,192,7.0,105.0
1860,81.0,120,120,1.0,105.0
1861,81.0,0,120,4.0,105.0
1862,84.0,0,120,0.0,105.0
1863,65.0,0,768,3.0,105.0
1864,82.0,0,120,0.0,105.0
1865,79.0,0,120,4.0,105.0
1866,79.0,0,120,1.0,105.0
1867,75.0,120,384,5.0,105.0
1868,77.0,0,384,5.0,105.0
1869,41.0,120,192,2.0,105.0
1870,41.0,0,192,7.0,105.0
1871,53.0,0,192,6.0,105.0
1872,29.0,0,192,8.0,105.0
1873,84.0,120,120,0.0,105.0
1874,81.0,0,120,1.0,105.0
1875,75.0,0,1920,1.0,105.0
1876,81.0,0,120,4.0,105.0
1877,34.0,0,384,8.0,105.0
1878,58.0,0,384,3.0,105.0
1879,46.0,0,384,2.0,92.0
1880,77.0,0,384,5.0,92.0
1881,82.0,120,384,0.0,92.0
1882,74.0,0,384,5.0,92.0
1883,74.0,0,384,1.0,105.0
1884,82.0,0,384,1.0,105.0
1885,58.0,0,384,6.0,92.0
1886,46.0,0,384,7.0,92.0
1887,82.0,0,384,4.0,92.0
1888,62.0,0,192,5.0,125.0
1889,62.0,0,192,4.0,125.0
1890,62.0,0,192,5.0,105.0
1891,62.0,240,192,4.0,105.0
1892,62.0,240,192,5.0,105.0
1893,62.0,0,192,4.0,105.0
1894,50.0,0,768,7.0,125.0
1895,50.0,0,768,2.0,125.0
1896,50.0,0,768,6.0,125.0
1897,38.0,480,768,8.0,112.0
1898,62.0,240,192,5.0,105.0
1899,62.0,0,192,4.0,105.0
1900,63.0,0,192,4.0,105.0
1901,63.0,240,192,5.0,105.0
1902,51.0,0,288,7.0,105.0
1903,51.0,0,288,6.0,105.0
1904,51.0,0,288,2.0,105.0
1905,39.0,0,288,8.0,105.0
1906,63.0,0,192,5.0,105.0
1907,63.0,240,192,4.0,105.0
1908,64.0,0,192,4.0,105.0
1909,64.0,0,192,5.0,105.0
1910,40.0,0,288,8.0,105.0
1911,52.0,0,288,2.0,105.0
1912,52.0,0,288,7.0,105.0
1913,52.0,240,288,6.0,105.0
1914,64.0,0,192,5.0,105.0
1915,64.0,240,192,4.0,105.0
1916,65.0,0,192,4.0,105.0
1917,65.0,240,192,5.0,105.0
1918,53.0,0,288,6.0,105.0
1919,41.0,0,288,8.0,105.0
1920,53.0,0,288,2.0,105.0
1921,53.0,0,288,7.0,105.0
1922,65.0,240,192,4.0,105.0
1923,65.0,0,192,5.0,105.0
1924,66.0,0,192,4.0,105.0
1925,66.0,0,192,5.0,105.0
1926,42.0,240,288,8.0,105.0
1927,54.0,0,288,7.0,105.0
1928,54.0,0,288,6.0,105.0
1929,54.0,0,288,2.0,105.0
1930,66.0,0,192,5.0,105.0
1931,66.0,240,192,4.0,105.0
1932,67.0,0,192,4.0,105.0
1933,67.0,0,192,5.0,105.0
1934,43.0,0,288,8.0,105.0
1935,55.0,0,288,7.0,105.0
1936,55.0,0,288,6.0,105.0
1937,55.0,240,288,2.0,105.0
1938,67.0,240,192,5.0,105.0
1939,67.0,0,192,4.0,105.0
1940,56.0,0,384,6.0,105.0
1941,68.0,240,384,5.0,105.0
1942,70.0,0,384,3.0,105.0
1943,68.0,0,384,4.0,105.0
1944,56.0,0,384,7.0,105.0
1945,56.0,0,384,2.0,105.0
1946,74.0,0,384,1.0,105.0
1947,77.0,0,384,1.0,92.0
1948,44.0,0,384,8.0,105.0
1949,56.0,0,96,6.0,105.0
1950,44.0,0,96,8.0,105.0
1951,68.0,840,96,4.0,105.0
1952,68.0,0,96,5.0,105.0
1953,56.0,0,96,7.0,105.0
1954,43.0,0,384,8.0,105.0
1955,79.0,0,384,1.0,105.0
1956,75.0,120,384,1.0,105.0
1957,70.0,0,384,3.0,105.0
1958,55.0,0,384,7.0,105.0
1959,55.0,0,384,2.0,105.0
1960,67.0,0,384,5.0,105.0
1961,55.0,0,384,6.0,105.0
1962,67.0,0,384,4.0,105.0
1963,43.0,840,96,8.0,105.0
1964,55.0,0,96,7.0,105.0
1965,55.0,0,96,6.0,105.0
1966,67.0,0,96,5.0,105.0
1967,67.0,0,96,4.0,105.0
1968,65.0,0,384,3.0,105.0
1969,81.0,0,384,1.0,105.0
1970,77.0,0,384,1.0,105.0
1971,57.0,0,384,2.0,105.0
1972,75.0,0,384,5.0,105.0
1973,84.0,0,384,0.0,105.0
1974,60.0,0,384,2.0,105.0
1975,75.0,120,384,4.0,105.0
1976,63.0,0,384,6.0,105.0
1977,51.0,0,384,8.0,105.0
1978,63.0,0,384,7.0,105.0
1979,75.0,0,96,5.0,105.0
1980,63.0,0,96,7.0,105.0
1981,75.0,0,96,4.0,105.0
1982,63.0,840,96,6.0,105.0
1983,51.0,0,96,8.0,105.0
1984,82.0,0,384,1.0,105.0
1985,74.0,0,384,4.0,105.0
1986,58.0,0,384,2.0,105.0
1987,50.0,0,384,8.0,105.0
1988,86.0,0,384,0.0,105.0
1989,62.0,120,384,6.0,105.0
1990,77.0,0,384,1.0,105.0
1991,65.0,0,384,3.0,105.0
1992,62.0,0,384,2.0,105.0
1993,74.0,0,384,5.0,105.0
1994,62.0,0,384,7.0,105.0
1995,74.0,0,96,4.0,105.0
1996,50.0,0,96,8.0,105.0
1997,62.0,0,96,6.0,105.0
1998,74.0,840,96,5.0,105.0
1999,62.0,0,96,7.0,105.0
2000,51.0,0,384,7.0,105.0
2001,51.0,0,384,6.0,105.0
2002,39.0,0,384,8.0,105.0
2003,79.0,0,1104,5.0,105.0
2004,79.0,0,1104,4.0,105.0
2005,67.0,0,1104,2.0,105.0
2006,91.0,120,1104,0.0,105.0
2007,89.0,0,144,0.0,105.0
2008,77.0,0,144,5.0,58.0
2009,65.0,0,144,2.0,70.0
2010,77.0,1200,144,4.0,70.0
2011,87.0,0,144,0.0,70.0
2012,75.0,0,144,4.0,70.0
2013,63.0,240,144,2.0,70.0
2014,75.0,0,144,5.0,58.0
2015,74.0,0,144,5.0,58.0
2016,74.0,0,144,4.0,70.0
2017,86.0,0,144,0.0,70.0
2018,62.0,240,144,2.0,70.0
2019,84.0,0,144,0.0,70.0
2020,60.0,0,144,2.0,70.0
2021,72.0,0,144,5.0,58.0
2022,72.0,0,144,4.0,70.0
2023,70.0,0,144,4.0,70.0
2024,58.0,0,144,2.0,70.0
2025,82.0,0,144,0.0,70.0
2026,53.0,240,384,7.0,58.0
2027,70.0,240,144,5.0,58.0
2028,53.0,0,384,6.0,58.0
2029,41.0,0,384,8.0,58.0
2030,81.0,0,144,0.0,70.0
2031,57.0,0,144,2.0,70.0
2032,69.0,0,144,5.0,58.0
2033,69.0,240,144,4.0,70.0
2034,55.0,240,144,2.0,70.0
2035,67.0,0,144,5.0,58.0
2036,79.0,0,144,0.0,70.0
2037,67.0,0,144,4.0,70.0
2038,65.0,0,144,4.0,70.0
2039,53.0,240,144,2.0,70.0
2040,77.0,0,144,0.0,70.0
2041,65.0,0,144,5.0,58.0
2042,51.0,240,144,2.0,70.0
2043,75.0,0,144,0.0,70.0
2044,63.0,0,144,5.0,58.0
2045,63.0,0,144,4.0,70.0
2046,74.0,0,144,0.0,70.0
2047,62.0,0,144,4.0,70.0
2048,62.0,240,144,5.0,58.0
2049,50.0,0,144,2.0,70.0
2050,60.0,240,144,4.0,70.0
2051,60.0,0,144,5.0,58.0
2052,48.0,0,144,2.0,70.0
2053,72.0,0,144,0.0,70.0
2054,62.0,0,240,5.0,58.0
2055,46.0,240,384,2.0,70.0
2056,70.0,0,384,0.0,70.0
2057,58.0,0,384,4.0,70.0
2058,65.0,240,240,5.0,58.0
2059,62.0,240,240,5.0,58.0
2060,65.0,240,240,5.0,58.0
2061,62.0,240,240,5.0,58.0
2062,65.0,240,240,5.0,58.0
2063,62.0,240,240,5.0,58.0
2064,79.0,0,240,1.0,105.0
2065,77.0,0,192,1.0,80.0
2066,65.0,240,192,5.0,58.0
2067,63.0,0,240,5.0,58.0
2068,77.0,240,384,1.0,80.0
2069,65.0,240,240,5.0,58.0
2070,63.0,240,240,5.0,58.0
2071,79.0,0,240,1.0,80.0
2072,77.0,240,192,1.0,80.0
2073,82.0,0,1920,4.0,70.0
2074,65.0,0,240,5.0,58.0
2075,60.0,0,240,5.0,58.0
2076,77.0,0,384,1.0,80.0
2077,65.0,240,240,5.0,58.0
2078,60.0,0,240,5.0,58.0
2079,67.0,240,240,2.0,70.0
2080,81.0,0,768,4.0,70.0
2081,65.0,240,192,5.0,58.0
2082,65.0,0,192,2.0,80.0
2083,58.0,240,240,5.0,58.0
2084,65.0,0,384,2.0,80.0
2085,65.0,240,240,5.0,58.0
2086,67.0,240,240,2.0,80.0
2087,58.0,0,240,5.0,58.0
2088,65.0,240,192,2.0,80.0
2089,39.0,0,1920,8.0,58.0
2090,51.0,240,1920,7.0,58.0
2091,51.0,0,1920,6.0,58.0
2092,65.0,0,240,5.0,58.0
2093,58.0,0,240,5.0,58.0
2094,50.0,0,384,6.0,58.0
2095,65.0,0,384,2.0,80.0
2096,38.0,0,384,8.0,58.0
2097,50.0,0,384,7.0,58.0
2098,65.0,240,240,5.0,58.0
2099,62.0,240,240,5.0,58.0
2100,79.0,0,240,1.0,80.0
2101,65.0,240,192,5.0,58.0
2102,77.0,0,192,1.0,80.0
2103,63.0,0,240,5.0,58.0
2104,77.0,240,384,1.0,80.0
2105,65.0,240,240,5.0,58.0
2106,79.0,240,240,1.0,80.0
2107,63.0,0,240,5.0,58.0
2108,77.0,240,192,1.0,80.0
2109,65.0,0,240,5.0,58.0
2110,82.0,240,1920,4.0,70.0
2111,60.0,0,240,5.0,58.0
2112,77.0,0,384,1.0,80.0
2113,65.0,240,240,5.0,58.0
2114,60.0,0,240,5.0,58.0
2115,67.0,240,240,2.0,80.0
2116,81.0,0,768,4.0,70.0
2117,65.0,240,192,5.0,58.0
2118,65.0,0,192,2.0,80.0
2119,58.0,240,240,5.0,58.0
2120,65.0,0,384,2.0,80.0
2121,65.0,240,240,5.0,58.0
2122,58.0,240,240,5.0,58.0
2123,67.0,0,240,2.0,80.0
2124,65.0,0,192,2.0,80.0
2125,51.0,240,1920,7.0,58.0
2126,39.0,0,1920,8.0,58.0
2127,65.0,240,240,5.0,58.0
2128,51.0,0,1920,6.0,58.0
2129,58.0,0,240,5.0,58.0
2130,38.0,0,384,8.0,58.0
2131,65.0,240,384,2.0,80.0
2132,50.0,0,384,6.0,58.0
2133,50.0,0,384,7.0,58.0
2134,65.0,240,240,5.0,58.0
2135,74.0,0,240,5.0,58.0
2136,87.0,240,240,4.0,116.0
2137,65.0,0,192,5.0,58.0
2138,86.0,240,192,4.0,116.0
2139,50.0,0,192,7.0,105.0
2140,38.0,0,192,8.0,105.0
2141,62.0,0,192,6.0,105.0
2142,72.0,0,192,5.0,105.0
2143,78.0,0,192,5.0,105.0
2144,50.0,0,192,2.0,105.0
2145,86.0,0,384,4.0,116.0
2146,78.0,0,192,5.0,105.0
2147,62.0,0,192,6.0,105.0
2148,38.0,0,192,8.0,105.0
2149,72.0,240,192,5.0,105.0
2150,50.0,0,192,7.0,105.0
2151,50.0,0,192,2.0,105.0
2152,72.0,0,192,5.0,105.0
2153,78.0,0,192,5.0,105.0
2154,50.0,0,192,7.0,105.0
2155,38.0,240,192,8.0,105.0
2156,62.0,0,192,6.0,105.0
2157,50.0,0,192,2.0,105.0
2158,87.0,0,240,4.0,116.0
2159,50.0,0,192,7.0,105.0
2160,62.0,0,192,6.0,105.0
2161,38.0,0,192,8.0,105.0
2162,86.0,0,192,4.0,116.0
2163,72.0,240,192,5.0,105.0
2164,78.0,0,192,5.0,105.0
2165,50.0,0,192,2.0,105.0
2166,62.0,0,192,6.0,105.0
2167,50.0,0,192,7.0,105.0
2168,72.0,0,192,5.0,105.0
2169,78.0,0,192,5.0,105.0
2170,50.0,0,192,2.0,105.0
2171,38.0,240,192,8.0,105.0
2172,86.0,0,384,4.0,116.0
2173,50.0,0,192,2.0,105.0
2174,62.0,0,192,6.0,105.0
2175,72.0,240,192,5.0,105.0
2176,38.0,0,192,8.0,105.0
2177,78.0,0,192,5.0,105.0
2178,50.0,0,192,7.0,105.0
2179,69.0,240,1536,3.0,105.0
2180,62.0,0,1536,3.0,105.0
2181,81.0,0,1536,1.0,105.0
2182,90.0,0,1536,0.0,105.0
2183,84.0,0,1536,1.0,105.0
2184,78.0,0,192,5.0,105.0
2185,50.0,0,192,7.0,105.0
2186,72.0,0,192,5.0,105.0
2187,38.0,0,192,8.0,105.0
2188,62.0,240,192,6.0,105.0
2189,50.0,0,192,2.0,105.0
2190,87.0,0,240,4.0,116.0
2191,72.0,240,192,5.0,105.0
2192,78.0,0,192,5.0,105.0
2193,86.0,0,192,4.0,116.0
2194,62.0,0,192,6.0,105.0
2195,50.0,0,192,2.0,105.0
2196,38.0,0,192,8.0,105.0
2197,50.0,0,192,7.0,105.0
2198,43.0,0,192,8.0,105.0
2199,55.0,240,192,2.0,105.0
2200,67.0,0,192,6.0,105.0
2201,55.0,0,192,7.0,105.0
2202,43.0,0,192,8.0,105.0
2203,55.0,0,192,7.0,105.0
2204,67.0,0,192,6.0,105.0
2205,55.0,240,192,2.0,105.0
2206,55.0,0,192,2.0,105.0
2207,43.0,0,192,8.0,105.0
2208,67.0,0,192,6.0,105.0
2209,55.0,240,192,7.0,105.0
2210,55.0,0,768,3.0,105.0
2211,91.0,0,768,0.0,105.0
2212,86.0,0,768,4.0,116.0
2213,58.0,0,768,3.0,105.0
2214,82.0,0,768,1.0,105.0
2215,70.0,0,768,5.0,105.0
2216,79.0,0,768,5.0,105.0
2217,43.0,240,192,8.0,105.0
2218,55.0,0,192,2.0,105.0
2219,55.0,0,192,7.0,105.0
2220,67.0,0,192,6.0,105.0
2221,51.0,0,192,7.0,105.0
2222,51.0,0,192,2.0,105.0
2223,39.0,0,192,8.0,105.0
2224,63.0,0,192,6.0,105.0
2225,63.0,0,192,6.0,105.0
2226,51.0,0,192,7.0,105.0
2227,39.0,240,192,8.0,105.0
2228,51.0,0,192,2.0,105.0
2229,91.0,0,576,0.0,105.0
2230,63.0,240,192,6.0,105.0
2231,51.0,0,192,7.0,105.0
2232,39.0,0,192,8.0,105.0
2233,51.0,0,192,2.0,105.0
2234,87.0,0,720,4.0,116.0
2235,79.0,240,720,5.0,105.0
2236,84.0,0,768,1.0,105.0
2237,79.0,0,1728,1.0,105.0
2238,39.0,0,192,8.0,105.0
2239,75.0,0,192,5.0,105.0
2240,87.0,0,192,0.0,105.0
2241,63.0,240,192,6.0,105.0
2242,51.0,0,192,2.0,105.0
2243,84.0,0,192,4.0,116.0
2244,51.0,0,192,7.0,105.0
2245,53.0,0,192,7.0,105.0
2246,65.0,0,192,6.0,105.0
2247,53.0,0,192,2.0,105.0
2248,41.0,0,192,8.0,105.0
2249,53.0,240,192,7.0,105.0
2250,41.0,0,192,8.0,105.0
2251,65.0,0,192,6.0,105.0
2252,53.0,0,192,2.0,105.0
2253,53.0,240,192,7.0,105.0
2254,65.0,0,192,6.0,105.0
2255,53.0,0,192,2.0,105.0
2256,41.0,0,192,8.0,105.0
2257,82.0,0,720,4.0,116.0
2258,74.0,0,720,5.0,105.0
2259,86.0,0,768,0.0,105.0
2260,77.0,240,768,1.0,105.0
2261,82.0,0,768,1.0,105.0
2262,41.0,0,192,8.0,105.0
2263,77.0,0,192,5.0,105.0
2264,86.0,0,192,4.0,116.0
2265,65.0,0,192,6.0,105.0
2266,53.0,240,192,7.0,105.0
2267,53.0,0,192,2.0,105.0
2268,53.0,0,192,6.0,105.0
2269,41.0,0,192,7.0,105.0
2270,41.0,0,192,2.0,105.0
2271,29.0,0,192,8.0,105.0
2272,65.0,0,384,3.0,105.0
2273,41.0,0,192,2.0,105.0
2274,41.0,240,192,7.0,105.0
2275,29.0,0,192,8.0,105.0
2276,53.0,0,192,6.0,105.0
2277,41.0,240,192,7.0,105.0
2278,29.0,0,192,8.0,105.0
2279,53.0,0,192,6.0,105.0
2280,41.0,0,192,2.0,105.0
2281,84.0,0,720,4.0,116.0
2282,75.0,240,720,5.0,105.0
2283,81.0,0,768,1.0,105.0
2284,75.0,0,768,1.0,105.0
2285,84.0,0,768,0.0,105.0
2286,41.0,0,192,2.0,105.0
2287,72.0,0,192,5.0,105.0
2288,81.0,0,192,4.0,116.0
2289,41.0,0,192,7.0,105.0
2290,53.0,240,192,6.0,105.0
2291,29.0,0,192,8.0,105.0
2292,74.0,0,192,5.0,92.0
2293,82.0,0,384,1.0,92.0
2294,46.0,240,384,7.0,105.0
2295,34.0,0,384,8.0,105.0
2296,65.0,0,384,3.0,105.0
2297,58.0,0,384,6.0,92.0
2298,46.0,0,384,2.0,92.0
2299,82.0,0,384,0.0,92.0
2300,82.0,0,384,4.0,92.0
2301,74.0,0,384,1.0,92.0
2302,62.0,0,384,3.0,105.0
2303,65.0,240,240,5.0,70.0
2304,62.0,240,240,5.0,70.0
2305,65.0,240,240,5.0,70.0
2306,62.0,0,240,5.0,58.0
2307,65.0,240,240,5.0,58.0
2308,67.0,240,240,2.0,80.0
2309,62.0,0,240,5.0,58.0
2310,65.0,0,192,5.0,58.0
2311,65.0,240,192,2.0,80.0
2312,60.0,0,240,5.0,58.0
2313,65.0,240,384,2.0,80.0
2314,63.0,240,240,5.0,58.0
2315,67.0,0,240,2.0,80.0
2316,60.0,240,240,5.0,58.0
2317,65.0,240,192,2.0,80.0
2318,70.0,0,1920,6.0,58.0
2319,46.0,240,1920,8.0,58.0
2320,58.0,0,1920,7.0,58.0
2321,63.0,0,240,5.0,58.0
2322,60.0,0,240,5.0,58.0
2323,69.0,0,384,6.0,58.0
2324,45.0,240,384,8.0,58.0
2325,65.0,0,384,2.0,80.0
2326,57.0,0,384,7.0,58.0
2327,65.0,240,240,5.0,58.0
2328,57.0,0,240,5.0,58.0
2329,79.0,240,240,1.0,80.0
2330,77.0,240,192,1.0,80.0
2331,65.0,0,192,5.0,58.0
2332,58.0,0,240,5.0,58.0
2333,77.0,240,384,1.0,80.0
2334,65.0,240,240,5.0,58.0
2335,79.0,240,240,1.0,80.0
2336,58.0,0,240,5.0,58.0
2337,77.0,240,192,1.0,80.0
2338,87.0,0,1920,4.0,70.0
2339,65.0,0,240,5.0,58.0
2340,58.0,0,240,5.0,58.0
2341,86.0,0,384,4.0,70.0
2342,77.0,0,384,1.0,80.0
2343,65.0,240,240,5.0,58.0
2344,67.0,0,240,2.0,80.0
2345,62.0,240,240,5.0,58.0
2346,65.0,240,192,2.0,80.0
2347,65.0,0,192,5.0,58.0
2348,60.0,0,240,5.0,58.0
2349,65.0,240,384,2.0,80.0
2350,63.0,240,240,5.0,58.0
2351,67.0,0,240,2.0,80.0
2352,60.0,240,240,5.0,58.0
2353,65.0,240,192,2.0,80.0
2354,46.0,0,1920,7.0,58.0
2355,63.0,0,240,5.0,58.0
2356,58.0,240,1920,6.0,58.0
2357,34.0,0,1920,8.0,58.0
2358,60.0,0,240,5.0,58.0
2359,65.0,0,384,2.0,80.0
2360,45.0,240,384,7.0,58.0
2361,33.0,0,384,8.0,58.0
2362,57.0,0,384,6.0,58.0
2363,65.0,240,240,5.0,58.0
2364,57.0,0,240,5.0,58.0
2365,79.0,240,240,1.0,80.0
2366,77.0,240,192,1.0,80.0
2367,65.0,0,192,5.0,58.0
2368,58.0,240,240,5.0,58.0
2369,77.0,0,384,1.0,80.0
2370,65.0,240,240,5.0,58.0
2371,58.0,0,240,5.0,58.0
2372,79.0,240,240,1.0,80.0
2373,77.0,0,192,1.0,80.0
2374,65.0,240,240,5.0,58.0
2375,75.0,0,1920,4.0,70.0
2376,58.0,0,240,5.0,58.0
2377,77.0,240,384,1.0,80.0
2378,74.0,0,384,4.0,58.0
2379,65.0,240,240,5.0,58.0
2380,74.0,240,240,5.0,58.0
2381,87.0,0,240,4.0,116.0
2382,86.0,240,192,4.0,116.0
2383,65.0,0,192,5.0,58.0
2384,50.0,0,192,7.0,105.0
2385,62.0,0,192,6.0,105.0
2386,50.0,0,192,2.0,80.0
2387,72.0,0,192,5.0,105.0
2388,78.0,0,192,5.0,58.0
2389,38.0,0,192,8.0,105.0
2390,86.0,0,384,4.0,116.0
2391,72.0,0,192,5.0,105.0
2392,38.0,0,192,8.0,105.0
2393,62.0,0,192,6.0,105.0
2394,50.0,0,192,2.0,105.0
2395,50.0,240,192,7.0,105.0
2396,78.0,0,192,5.0,105.0
2397,50.0,0,192,2.0,105.0
2398,50.0,0,192,7.0,105.0
2399,78.0,0,192,5.0,105.0
2400,62.0,0,192,6.0,105.0
2401,38.0,0,192,8.0,105.0
2402,72.0,240,192,5.0,105.0
2403,87.0,0,240,4.0,116.0
2404,62.0,0,192,6.0,105.0
2405,78.0,240,192,5.0,105.0
2406,38.0,0,192,8.0,105.0
2407,50.0,0,192,7.0,105.0
2408,50.0,0,192,2.0,105.0
2409,72.0,0,192,5.0,105.0
2410,86.0,0,192,4.0,116.0
2411,62.0,0,192,6.0,105.0
2412,50.0,0,192,7.0,105.0
2413,78.0,0,192,5.0,105.0
2414,38.0,0,192,8.0,105.0
2415,50.0,0,192,2.0,105.0
2416,72.0,0,192,5.0,105.0
2417,86.0,240,384,4.0,116.0
2418,78.0,0,192,5.0,105.0
2419,50.0,0,192,2.0,105.0
2420,62.0,0,192,6.0,105.0
2421,50.0,240,192,7.0,105.0
2422,72.0,0,192,5.0,105.0
2423,38.0,0,192,8.0,105.0
2424,90.0,240,1536,0.0,92.0
2425,84.0,0,1536,1.0,80.0
2426,81.0,0,1536,1.0,80.0
2427,69.0,0,1536,3.0,92.0
2428,62.0,0,1536,3.0,92.0
2429,78.0,0,192,5.0,105.0
2430,62.0,240,192,6.0,105.0
2431,50.0,0,192,7.0,105.0
2432,72.0,0,192,5.0,105.0
2433,38.0,0,192,8.0,105.0
2434,50.0,0,192,2.0,105.0
2435,87.0,0,240,4.0,116.0
2436,86.0,0,192,4.0,116.0
2437,62.0,0,192,6.0,105.0
2438,38.0,240,192,8.0,105.0
2439,50.0,0,192,2.0,105.0
2440,72.0,0,192,5.0,105.0
2441,78.0,0,192,5.0,105.0
2442,50.0,0,192,7.0,105.0
2443,55.0,0,192,7.0,105.0
2444,43.0,0,192,8.0,105.0
2445,55.0,0,192,2.0,105.0
2446,67.0,0,192,6.0,105.0
2447,67.0,0,192,6.0,105.0
2448,55.0,240,192,7.0,105.0
2449,55.0,0,192,2.0,105.0
2450,43.0,0,192,8.0,105.0
2451,67.0,240,192,6.0,105.0
2452,43.0,0,192,8.0,105.0
2453,55.0,0,192,2.0,105.0
2454,55.0,0,192,7.0,105.0
2455,91.0,0,768,0.0,105.0
2456,86.0,0,768,4.0,116.0
2457,79.0,0,768,5.0,105.0
2458,70.0,0,768,5.0,105.0
2459,55.0,0,768,3.0,105.0
2460,58.0,240,768,3.0,105.0
2461,82.0,0,768,1.0,105.0
2462,55.0,240,192,2.0,105.0
2463,55.0,0,192,7.0,105.0
2464,67.0,0,192,6.0,105.0
2465,43.0,0,192,8.0,105.0
2466,39.0,0,192,8.0,105.0
2467,51.0,0,192,7.0,105.0
2468,51.0,240,192,2.0,105.0
2469,63.0,0,192,6.0,105.0
2470,63.0,0,192,6.0,105.0
2471,51.0,0,192,7.0,105.0
2472,51.0,0,192,2.0,105.0
2473,39.0,240,192,8.0,105.0
2474,91.0,0,576,0.0,105.0
2475,51.0,240,192,7.0,105.0
2476,39.0,0,192,8.0,105.0
2477,51.0,0,192,2.0,105.0
2478,63.0,0,192,6.0,105.0
2479,79.0,0,720,5.0,105.0
2480,87.0,0,720,4.0,116.0
2481,79.0,0,1728,1.0,105.0
2482,84.0,0,768,1.0,105.0
2483,87.0,240,192,0.0,105.0
2484,84.0,0,192,4.0,116.0
2485,39.0,0,192,8.0,105.0
2486,51.0,0,192,7.0,105.0
2487,63.0,0,192,6.0,105.0
2488,75.0,0,192,5.0,105.0
2489,51.0,0,192,2.0,105.0
2490,53.0,0,192,2.0,105.0
2491,65.0,0,192,6.0,105.0
2492,41.0,0,192,8.0,105.0
2493,53.0,0,192,7.0,105.0
2494,41.0,0,192,8.0,105.0
2495,53.0,0,192,7.0,105.0
2496,53.0,240,192,2.0,105.0
2497,65.0,0,192,6.0,105.0
2498,53.0,0,192,7.0,105.0
2499,53.0,0,192,2.0,105.0
2500,41.0,0,192,8.0,105.0
2501,65.0,240,192,6.0,105.0
2502,74.0,0,720,5.0,105.0
2503,82.0,0,720,4.0,116.0
2504,86.0,0,768,0.0,105.0
2505,82.0,0,768,1.0,105.0
2506,77.0,240,768,1.0,105.0
2507,86.0,240,192,4.0,116.0
2508,77.0,0,192,5.0,105.0
2509,65.0,0,192,6.0,105.0
2510,53.0,0,192,2.0,105.0
2511,41.0,0,192,8.0,105.0
2512,53.0,0,192,7.0,105.0
2513,53.0,0,192,6.0,105.0
2514,41.0,0,192,7.0,105.0
2515,29.0,240,192,8.0,105.0
2516,41.0,0,192,2.0,105.0
2517,65.0,0,384,3.0,105.0
2518,29.0,0,192,8.0,105.0
2519,53.0,0,192,6.0,105.0
2520,41.0,240,192,7.0,105.0
2521,41.0,0,192,2.0,105.0
2522,29.0,0,192,8.0,105.0
2523,53.0,240,192,6.0,105.0
2524,41.0,0,192,7.0,105.0
2525,41.0,0,192,2.0,105.0
2526,75.0,0,720,5.0,105.0
2527,84.0,0,720,4.0,116.0
2528,84.0,0,768,0.0,105.0
2529,75.0,0,768,1.0,105.0
2530,81.0,0,768,1.0,105.0
2531,41.0,0,192,2.0,105.0
2532,53.0,0,192,6.0,105.0
2533,29.0,0,192,8.0,105.0
2534,41.0,0,192,7.0,105.0
2535,72.0,240,192,5.0,105.0
2536,81.0,0,192,4.0,116.0
2537,82.0,0,192,4.0,116.0
2538,74.0,0,384,5.0,105.0
2539,62.0,0,384,3.0,105.0
2540,65.0,0,384,3.0,105.0
2541,77.0,240,192,4.0,116.0
2542,86.0,240,192,4.0,105.0
2543,86.0,0,192,5.0,105.0
2544,46.0,0,768,2.0,105.0
2545,82.0,240,768,0.0,105.0
2546,74.0,0,768,1.0,105.0
2547,82.0,0,768,1.0,105.0
2548,34.0,0,768,8.0,105.0
2549,46.0,0,768,7.0,105.0
2550,58.0,0,768,6.0,105.0
2551,84.0,0,192,4.0,105.0
2552,84.0,240,192,5.0,105.0
2553,82.0,0,192,5.0,105.0
2554,82.0,240,192,4.0,105.0
2555,81.0,0,192,5.0,105.0
2556,81.0,240,192,4.0,105.0
2557,79.0,240,192,4.0,105.0
2558,79.0,0,192,5.0,105.0
2559,77.0,0,192,1.0,105.0
2560,65.0,0,192,2.0,105.0
2561,89.0,0,192,0.0,105.0
2562,65.0,0,192,7.0,105.0
2563,77.0,0,192,6.0,105.0
2564,77.0,0,192,5.0,105.0
2565,53.0,0,192,8.0,105.0
2566,77.0,240,192,4.0,105.0
2567,87.0,0,192,0.0,105.0
2568,75.0,240,192,5.0,105.0
2569,63.0,0,192,7.0,105.0
2570,75.0,0,192,1.0,105.0
2571,51.0,0,192,8.0,105.0
2572,75.0,0,192,4.0,105.0
2573,63.0,0,192,2.0,105.0
2574,75.0,0,192,6.0,105.0
2575,74.0,240,192,1.0,105.0
2576,86.0,0,192,0.0,105.0
2577,74.0,0,192,6.0,105.0
2578,74.0,0,192,4.0,105.0
2579,74.0,0,192,5.0,105.0
2580,50.0,0,192,8.0,105.0
2581,62.0,0,192,7.0,105.0
2582,62.0,0,192,2.0,105.0
2583,72.0,0,192,6.0,105.0
2584,72.0,240,192,4.0,105.0
2585,48.0,0,192,8.0,105.0
2586,60.0,0,192,7.0,105.0
2587,72.0,0,192,5.0,105.0
2588,60.0,0,192,2.0,105.0
2589,72.0,0,192,1.0,105.0
2590,84.0,0,192,0.0,105.0
2591,70.0,0,192,1.0,105.0
2592,46.0,0,192,8.0,105.0
2593,58.0,240,192,2.0,105.0
2594,70.0,0,192,6.0,105.0
2595,70.0,0,192,4.0,105.0
2596,58.0,0,192,7.0,105.0
2597,82.0,0,192,0.0,105.0
2598,70.0,0,192,5.0,105.0
2599,69.0,0,192,4.0,105.0
2600,57.0,0,192,2.0,105.0
2601,69.0,240,192,6.0,105.0
2602,69.0,0,192,1.0,105.0
2603,45.0,0,192,8.0,105.0
2604,81.0,0,192,0.0,105.0
2605,69.0,0,192,5.0,105.0
2606,57.0,0,192,7.0,105.0
2607,55.0,0,192,7.0,105.0
2608,67.0,0,192,6.0,105.0
2609,43.0,0,192,8.0,105.0
2610,67.0,0,192,5.0,105.0
2611,67.0,0,192,4.0,105.0
2612,67.0,0,192,1.0,105.0
2613,79.0,240,192,0.0,105.0
2614,55.0,0,192,2.0,105.0
2615,65.0,0,192,5.0,105.0
2616,65.0,0,192,4.0,105.0
2617,77.0,0,192,0.0,105.0
2618,41.0,0,192,8.0,105.0
2619,65.0,0,192,6.0,105.0
2620,53.0,0,192,7.0,105.0
2621,53.0,240,192,2.0,105.0
2622,65.0,0,192,1.0,105.0
2623,75.0,0,192,0.0,105.0
2624,39.0,0,192,8.0,105.0
2625,51.0,0,192,7.0,105.0
2626,63.0,240,192,6.0,105.0
2627,63.0,0,192,4.0,105.0
2628,63.0,0,192,1.0,105.0
2629,51.0,0,192,2.0,105.0
2630,63.0,0,192,5.0,105.0
2631,50.0,240,336,2.0,105.0
2632,62.0,0,336,5.0,105.0
2633,38.0,0,336,8.0,105.0
2634,62.0,0,336,1.0,105.0
2635,62.0,0,336,4.0,105.0
2636,50.0,0,336,7.0,105.0
2637,74.0,0,336,0.0,105.0
2638,62.0,0,336,6.0,105.0
2639,77.0,0,336,1.0,105.0
2640,70.0,0,336,5.0,125.0
2641,77.0,480,336,4.0,125.0
2642,50.0,0,336,7.0,105.0
2643,62.0,0,336,6.0,105.0
2644,38.0,0,336,8.0,105.0
2645,58.0,0,336,3.0,105.0
2646,77.0,0,336,0.0,105.0
2647,50.0,0,336,2.0,105.0
2648,70.0,0,336,5.0,125.0
2649,79.0,0,336,0.0,105.0
2650,51.0,0,336,2.0,105.0
2651,58.0,480,336,3.0,105.0
2652,39.0,0,336,8.0,105.0
2653,79.0,0,336,4.0,125.0
2654,70.0,0,816,1.0,105.0
2655,79.0,0,336,1.0,105.0
2656,51.0,0,336,7.0,105.0
2657,63.0,0,336,6.0,105.0
2658,41.0,0,336,8.0,105.0
2659,53.0,480,336,7.0,105.0
2660,63.0,0,336,5.0,105.0
2661,81.0,0,336,0.0,105.0
2662,60.0,0,336,5.0,105.0
2663,69.0,0,336,4.0,125.0
2664,53.0,0,336,2.0,105.0
2665,75.0,0,336,1.0,105.0
2666,81.0,0,336,1.0,105.0
2667,65.0,0,336,6.0,105.0
2668,65.0,0,336,3.0,105.0
2669,70.0,0,192,4.0,105.0
2670,46.0,0,192,8.0,105.0
2671,58.0,0,192,2.0,105.0
2672,58.0,0,192,7.0,105.0
2673,82.0,0,192,1.0,105.0
2674,82.0,0,192,0.0,105.0
2675,70.0,0,192,6.0,105.0
2676,62.0,0,384,3.0,105.0
2677,62.0,0,384,5.0,105.0
2678,58.0,480,384,5.0,105.0
2679,65.0,0,384,3.0,105.0
2680,77.0,0,192,1.0,105.0
2681,65.0,0,192,6.0,105.0
2682,65.0,240,192,4.0,105.0
2683,41.0,0,192,8.0,105.0
2684,53.0,0,192,7.0,105.0
2685,77.0,0,192,0.0,105.0
2686,53.0,0,192,2.0,105.0
2687,74.0,0,432,1.0,105.0
2688,74.0,0,192,4.0,105.0
2689,74.0,0,192,6.0,105.0
2690,62.0,0,192,7.0,105.0
2691,50.0,0,192,8.0,105.0
2692,86.0,0,192,0.0,105.0
2693,86.0,240,192,1.0,105.0
2694,74.0,0,192,5.0,105.0
2695,62.0,0,192,2.0,105.0
2696,72.0,0,192,5.0,105.0
2697,72.0,240,192,4.0,105.0
2698,60.0,0,192,2.0,105.0
2699,60.0,0,192,7.0,105.0
2700,84.0,0,192,0.0,105.0
2701,84.0,0,192,1.0,105.0
2702,48.0,0,192,8.0,105.0
2703,72.0,0,192,6.0,105.0
2704,70.0,0,192,5.0,105.0
2705,58.0,0,192,2.0,105.0
2706,82.0,240,192,1.0,105.0
2707,82.0,0,192,0.0,105.0
2708,70.0,0,192,6.0,105.0
2709,70.0,0,192,4.0,105.0
2710,58.0,0,192,7.0,105.0
2711,46.0,0,192,8.0,105.0
2712,81.0,0,192,1.0,105.0
2713,57.0,240,192,7.0,105.0
2714,57.0,0,192,2.0,105.0
2715,69.0,0,192,6.0,105.0
2716,69.0,0,192,4.0,105.0
2717,45.0,0,192,8.0,105.0
2718,69.0,0,192,5.0,105.0
2719,81.0,0,192,0.0,105.0
2720,67.0,0,192,5.0,105.0
2721,55.0,0,192,7.0,105.0
2722,43.0,0,192,8.0,105.0
2723,79.0,0,192,0.0,105.0
2724,67.0,0,192,4.0,105.0
2725,67.0,0,192,6.0,105.0
2726,79.0,0,192,1.0,105.0
2727,55.0,240,192,2.0,105.0
2728,65.0,0,192,4.0,105.0
2729,53.0,0,192,7.0,105.0
2730,65.0,240,192,5.0,105.0
2731,65.0,0,192,6.0,105.0
2732,41.0,0,192,8.0,105.0
2733,77.0,0,192,0.0,105.0
2734,53.0,0,192,2.0,105.0
2735,77.0,0,192,1.0,105.0
2736,63.0,0,192,6.0,105.0
2737,63.0,0,192,4.0,105.0
2738,75.0,0,192,1.0,105.0
2739,51.0,0,192,2.0,105.0
2740,87.0,0,192,0.0,105.0
2741,39.0,240,192,8.0,105.0
2742,51.0,0,192,7.0,105.0
2743,63.0,0,192,5.0,105.0
2744,86.0,240,192,0.0,105.0
2745,50.0,0,192,2.0,105.0
2746,50.0,0,192,7.0,105.0
2747,74.0,0,192,1.0,105.0
2748,38.0,0,192,8.0,105.0
2749,62.0,0,192,6.0,105.0
2750,62.0,0,192,5.0,105.0
2751,62.0,0,192,4.0,105.0
2752,36.0,0,192,8.0,105.0
2753,48.0,0,192,7.0,105.0
2754,72.0,0,192,1.0,105.0
2755,60.0,0,192,5.0,105.0
2756,60.0,0,192,4.0,105.0
2757,60.0,0,192,6.0,105.0
2758,84.0,240,192,0.0,105.0
2759,48.0,0,192,2.0,105.0
2760,34.0,0,192,8.0,105.0
2761,58.0,0,192,5.0,105.0
2762,46.0,240,192,7.0,105.0
2763,46.0,0,192,2.0,105.0
2764,58.0,0,192,6.0,105.0
2765,58.0,0,192,4.0,105.0
2766,82.0,0,192,0.0,105.0
2767,70.0,0,192,1.0,105.0
2768,57.0,0,192,5.0,105.0
2769,45.0,0,192,7.0,105.0
2770,57.0,0,192,6.0,105.0
2771,69.0,0,192,1.0,105.0
2772,57.0,240,192,4.0,105.0
2773,33.0,0,192,8.0,105.0
2774,45.0,0,192,2.0,105.0
2775,81.0,0,192,0.0,105.0
2776,60.0,0,192,6.0,105.0
2777,60.0,0,192,4.0,105.0
2778,48.0,0,192,2.0,105.0
2779,36.0,0,192,8.0,105.0
2780,48.0,0,192,7.0,105.0
2781,84.0,0,192,0.0,105.0
2782,60.0,240,192,5.0,105.0
2783,72.0,0,192,1.0,105.0
2784,53.0,0,192,7.0,105.0
2785,65.0,0,192,4.0,105.0
2786,53.0,0,192,2.0,105.0
2787,65.0,0,192,6.0,105.0
2788,77.0,0,192,1.0,105.0
2789,65.0,0,192,5.0,105.0
2790,41.0,0,192,8.0,105.0
2791,89.0,240,192,0.0,105.0
2792,63.0,0,192,6.0,105.0
2793,63.0,0,192,4.0,105.0
2794,51.0,0,192,7.0,105.0
2795,87.0,240,192,0.0,105.0
2796,51.0,0,192,2.0,105.0
2797,39.0,0,192,8.0,105.0
2798,63.0,0,192,5.0,105.0
2799,75.0,0,192,1.0,105.0
2800,62.0,0,336,4.0,105.0
2801,86.0,0,336,0.0,105.0
2802,38.0,0,336,8.0,105.0
2803,62.0,0,336,6.0,105.0
2804,62.0,240,336,5.0,105.0
2805,50.0,0,336,7.0,105.0
2806,50.0,0,336,2.0,105.0
2807,74.0,0,336,1.0,105.0
2808,50.0,0,336,7.0,105.0
2809,77.0,480,336,4.0,125.0
2810,70.0,0,336,5.0,125.0
2811,58.0,0,336,3.0,105.0
2812,38.0,0,336,8.0,105.0
2813,50.0,0,336,2.0,105.0
2814,70.0,0,336,1.0,105.0
2815,77.0,0,336,1.0,105.0
2816,62.0,0,336,6.0,105.0
2817,51.0,480,336,2.0,105.0
2818,75.0,0,336,1.0,105.0
2819,79.0,0,336,1.0,105.0
2820,39.0,0,336,8.0,105.0
2821,70.0,0,336,5.0,125.0
2822,63.0,0,336,6.0,105.0
2823,79.0,0,336,4.0,125.0
2824,58.0,0,336,3.0,105.0
2825,51.0,0,336,7.0,105.0
2826,81.0,0,336,1.0,105.0
2827,81.0,0,336,4.0,125.0
2828,41.0,0,336,8.0,105.0
2829,53.0,0,336,7.0,105.0
2830,53.0,0,336,2.0,105.0
2831,75.0,0,336,5.0,125.0
2832,84.0,0,336,1.0,105.0
2833,65.0,0,336,6.0,105.0
2834,65.0,0,336,3.0,105.0
2835,87.0,480,336,0.0,105.0
2836,55.0,0,336,7.0,105.0
2837,86.0,0,336,0.0,105.0
2838,55.0,0,336,2.0,105.0
2839,70.0,0,336,3.0,105.0
2840,67.0,0,336,6.0,105.0
2841,82.0,0,336,4.0,125.0
2842,43.0,0,336,8.0,105.0
2843,82.0,0,336,1.0,105.0
2844,74.0,480,336,5.0,125.0
2845,51.0,0,336,7.0,105.0
2846,51.0,0,336,2.0,105.0
2847,82.0,0,336,1.0,105.0
2848,75.0,0,336,1.0,105.0
2849,70.0,0,336,3.0,105.0
2850,75.0,0,336,5.0,125.0
2851,39.0,0,336,8.0,105.0
2852,63.0,0,336,6.0,105.0
2853,91.0,480,336,0.0,105.0
2854,79.0,0,336,4.0,125.0
2855,82.0,0,336,1.0,105.0
2856,74.0,0,336,1.0,105.0
2857,65.0,0,336,6.0,105.0
2858,41.0,0,336,8.0,105.0
2859,74.0,0,336,5.0,125.0
2860,77.0,480,336,4.0,125.0
2861,53.0,0,336,2.0,105.0
2862,53.0,0,336,7.0,105.0
2863,89.0,0,336,0.0,105.0
2864,70.0,0,336,3.0,105.0
2865,53.0,0,336,6.0,105.0
2866,69.0,0,336,4.0,125.0
2867,41.0,0,336,7.0,105.0
2868,60.0,0,336,5.0,105.0
2869,29.0,0,336,8.0,105.0
2870,63.0,0,336,5.0,105.0
2871,81.0,0,336,0.0,105.0
2872,65.0,480,336,3.0,105.0
2873,77.0,0,336,1.0,105.0
2874,41.0,0,336,2.0,105.0
2875,75.0,0,336,1.0,105.0
2876,70.0,0,240,4.0,105.0
2877,46.0,0,360,2.0,105.0
2878,58.0,0,360,5.0,105.0
2879,62.0,0,360,5.0,105.0
2880,65.0,0,360,3.0,105.0
2881,62.0,0,360,3.0,105.0
2882,74.0,480,360,1.0,105.0
2883,82.0,0,360,0.0,105.0
2884,77.0,0,360,1.0,105.0
2885,34.0,0,384,8.0,105.0
2886,46.0,0,384,7.0,105.0
2887,74.0,240,144,4.0,105.0
2888,58.0,0,384,6.0,105.0
2889,77.0,0,144,4.0,105.0
2890,74.0,240,180,1.0,105.0
2891,82.0,0,180,0.0,105.0
2892,62.0,0,180,2.0,105.0
2893,65.0,0,180,5.0,105.0
2894,65.0,0,180,3.0,105.0
2895,58.0,0,180,2.0,105.0
2896,70.0,0,180,1.0,105.0
2897,74.0,0,180,5.0,105.0
2898,82.0,0,144,4.0,105.0
2899,65.0,0,180,5.0,105.0
2900,82.0,0,180,0.0,105.0
2901,58.0,0,180,2.0,105.0
2902,65.0,0,180,3.0,105.0
2903,74.0,0,180,1.0,105.0
2904,70.0,0,180,1.0,105.0
2905,62.0,0,180,2.0,105.0
2906,74.0,240,180,5.0,105.0
2907,81.0,0,240,4.0,105.0
2908,75.0,0,360,5.0,105.0
2909,65.0,0,360,3.0,105.0
2910,65.0,0,360,5.0,105.0
2911,72.0,0,360,1.0,105.0
2912,81.0,240,360,0.0,105.0
2913,63.0,0,360,2.0,105.0
2914,60.0,0,360,2.0,105.0
2915,75.0,0,360,1.0,105.0
2916,41.0,0,384,8.0,105.0
2917,65.0,0,384,6.0,105.0
2918,77.0,240,144,4.0,105.0
2919,53.0,0,384,7.0,105.0
2920,84.0,0,144,4.0,105.0
2921,65.0,0,180,5.0,105.0
2922,75.0,0,180,1.0,105.0
2923,75.0,0,180,5.0,105.0
2924,65.0,0,180,3.0,105.0
2925,63.0,0,180,2.0,105.0
2926,72.0,240,180,1.0,105.0
2927,60.0,0,180,2.0,105.0
2928,81.0,0,180,0.0,105.0
2929,81.0,0,144,4.0,105.0
2930,60.0,0,180,2.0,105.0
2931,75.0,0,180,1.0,105.0
2932,81.0,240,180,0.0,105.0
2933,63.0,0,180,2.0,105.0
2934,72.0,0,180,1.0,105.0
2935,75.0,0,180,5.0,105.0
2936,65.0,0,180,3.0,105.0
2937,65.0,0,180,5.0,105.0
2938,82.0,0,240,4.0,105.0
2939,77.0,0,360,1.0,105.0
2940,74.0,0,360,1.0,105.0
2941,82.0,0,360,0.0,105.0
2942,62.0,0,360,3.0,105.0
2943,62.0,0,360,2.0,105.0
2944,58.0,0,360,2.0,105.0
2945,74.0,0,360,5.0,105.0
2946,65.0,0,360,5.0,105.0
2947,65.0,240,360,3.0,105.0
2948,77.0,240,144,4.0,105.0
2949,58.0,0,384,7.0,105.0
2950,46.0,0,384,8.0,105.0
2951,70.0,0,384,6.0,105.0
2952,86.0,0,144,4.0,105.0
2953,74.0,0,180,1.0,105.0
2954,70.0,0,180,1.0,105.0
2955,74.0,0,180,5.0,105.0
2956,65.0,0,180,5.0,105.0
2957,62.0,240,180,2.0,105.0
2958,58.0,0,180,2.0,105.0
2959,65.0,0,180,3.0,105.0
2960,82.0,0,180,0.0,105.0
2961,82.0,0,144,4.0,105.0
2962,82.0,240,180,0.0,105.0
2963,65.0,0,180,5.0,105.0
2964,74.0,0,180,1.0,105.0
2965,65.0,0,180,3.0,105.0
2966,58.0,0,180,2.0,105.0
2967,62.0,0,180,2.0,105.0
2968,70.0,0,180,1.0,105.0
2969,74.0,0,180,5.0,105.0
2970,81.0,0,240,4.0,105.0
2971,75.0,0,360,5.0,105.0
2972,75.0,0,360,1.0,105.0
2973,72.0,0,360,1.0,105.0
2974,65.0,0,360,3.0,105.0
2975,63.0,0,360,2.0,105.0
2976,81.0,0,360,0.0,105.0
2977,60.0,0,360,2.0,105.0
2978,65.0,0,360,5.0,105.0
2979,77.0,240,144,4.0,105.0
2980,65.0,0,384,6.0,105.0
2981,41.0,240,384,8.0,105.0
2982,53.0,0,384,7.0,105.0
2983,84.0,240,144,4.0,105.0
2984,65.0,0,180,3.0,105.0
2985,75.0,0,180,1.0,105.0
2986,81.0,0,180,0.0,105.0
2987,72.0,0,180,1.0,105.0
2988,60.0,0,180,2.0,105.0
2989,75.0,0,180,5.0,105.0
2990,63.0,0,180,2.0,105.0
2991,65.0,0,180,5.0,105.0
2992,81.0,0,144,4.0,105.0
2993,75.0,0,180,1.0,105.0
2994,81.0,0,180,0.0,105.0
2995,65.0,0,180,5.0,105.0
2996,60.0,0,180,2.0,105.0
2997,65.0,240,180,3.0,105.0
2998,72.0,0,180,1.0,105.0
2999,75.0,0,180,5.0,105.0
3000,63.0,0,180,2.0,105.0
3001,82.0,0,240,4.0,105.0
3002,74.0,0,360,1.0,105.0
3003,77.0,0,360,1.0,105.0
3004,82.0,0,360,0.0,105.0
3005,62.0,0,360,2.0,105.0
3006,58.0,0,360,2.0,105.0
3007,74.0,0,360,5.0,105.0
3008,65.0,0,360,5.0,105.0
3009,62.0,0,360,3.0,105.0
3010,65.0,240,360,3.0,105.0
3011,70.0,0,384,6.0,105.0
3012,77.0,240,144,4.0,105.0
3013,46.0,0,384,8.0,105.0
3014,58.0,0,384,7.0,105.0
3015,86.0,0,144,4.0,105.0
3016,70.0,0,180,1.0,105.0
3017,74.0,0,180,5.0,105.0
3018,74.0,0,180,1.0,105.0
3019,62.0,240,180,2.0,105.0
3020,65.0,0,180,3.0,105.0
3021,58.0,0,180,2.0,105.0
3022,65.0,0,180,5.0,105.0
3023,82.0,0,180,0.0,105.0
3024,82.0,0,144,4.0,105.0
3025,74.0,0,180,5.0,105.0
3026,62.0,0,180,2.0,105.0
3027,82.0,0,180,0.0,105.0
3028,58.0,240,180,2.0,105.0
3029,65.0,0,180,5.0,105.0
3030,70.0,0,180,1.0,105.0
3031,74.0,0,180,1.0,105.0
3032,65.0,0,180,3.0,105.0
3033,81.0,0,240,4.0,105.0
3034,75.0,0,360,1.0,105.0
3035,65.0,0,360,5.0,105.0
3036,72.0,0,360,1.0,105.0
3037,81.0,0,360,0.0,105.0
3038,65.0,0,360,3.0,105.0
3039,60.0,0,360,2.0,105.0
3040,63.0,0,360,2.0,105.0
3041,75.0,0,360,5.0,105.0
3042,41.0,0,384,8.0,105.0
3043,53.0,0,384,7.0,105.0
3044,77.0,240,144,4.0,105.0
3045,65.0,240,384,6.0,105.0
3046,84.0,240,144,4.0,105.0
3047,63.0,0,180,2.0,105.0
3048,65.0,0,180,3.0,105.0
3049,72.0,0,180,1.0,105.0
3050,75.0,0,180,1.0,105.0
3051,75.0,0,180,5.0,105.0
3052,81.0,0,180,0.0,105.0
3053,60.0,0,180,2.0,105.0
3054,65.0,0,180,5.0,105.0
3055,81.0,0,144,4.0,105.0
3056,65.0,0,180,3.0,105.0
3057,60.0,0,180,2.0,105.0
3058,75.0,0,180,1.0,105.0
3059,72.0,240,180,1.0,105.0
3060,81.0,0,180,0.0,105.0
3061,75.0,0,180,5.0,105.0
3062,65.0,0,180,5.0,105.0
3063,63.0,0,180,2.0,105.0
3064,82.0,0,240,4.0,105.0
3065,62.0,0,360,2.0,105.0
3066,74.0,0,360,5.0,105.0
3067,58.0,0,360,7.0,105.0
3068,70.0,0,360,6.0,105.0
3069,58.0,0,360,2.0,105.0
3070,82.0,0,360,0.0,105.0
3071,46.0,0,360,8.0,105.0
3072,74.0,0,360,1.0,105.0
3073,70.0,0,360,1.0,105.0
3074,65.0,240,360,3.0,105.0
3075,65.0,0,360,5.0,105.0
3076,86.0,240,144,4.0,105.0
3077,84.0,0,144,4.0,105.0
3078,65.0,0,360,3.0,105.0
3079,65.0,0,360,6.0,105.0
3080,72.0,0,360,1.0,105.0
3081,65.0,0,360,5.0,105.0
3082,75.0,0,360,5.0,105.0
3083,53.0,0,360,7.0,105.0
3084,63.0,240,360,2.0,105.0
3085,75.0,0,360,1.0,105.0
3086,60.0,0,360,2.0,105.0
3087,81.0,0,360,0.0,105.0
3088,41.0,0,360,8.0,105.0
3089,81.0,240,144,4.0,105.0
3090,82.0,0,240,4.0,105.0
3091,70.0,0,360,6.0,105.0
3092,62.0,0,360,2.0,105.0
3093,58.0,0,360,2.0,105.0
3094,58.0,240,360,7.0,105.0
3095,74.0,0,360,5.0,105.0
3096,82.0,0,360,0.0,105.0
3097,46.0,0,360,8.0,105.0
3098,65.0,0,360,5.0,105.0
3099,70.0,0,360,1.0,105.0
3100,74.0,0,360,1.0,105.0
3101,65.0,0,360,3.0,105.0
3102,86.0,240,144,4.0,105.0
3103,84.0,240,144,4.0,105.0
3104,41.0,0,360,8.0,105.0
3105,53.0,0,360,7.0,105.0
3106,63.0,0,360,2.0,105.0
3107,65.0,0,360,5.0,105.0
3108,65.0,0,360,6.0,105.0
3109,75.0,0,360,1.0,105.0
3110,72.0,0,360,1.0,105.0
3111,65.0,0,360,3.0,105.0
3112,81.0,0,360,0.0,105.0
3113,75.0,0,360,5.0,105.0
3114,60.0,0,360,2.0,105.0
3115,81.0,240,144,4.0,105.0
3116,82.0,0,384,0.0,105.0
3117,74.0,0,384,5.0,105.0
3118,65.0,0,384,5.0,105.0
3119,46.0,0,384,8.0,105.0
3120,65.0,240,384,3.0,105.0
3121,58.0,0,384,2.0,105.0
3122,70.0,0,384,1.0,105.0
3123,70.0,0,384,6.0,105.0
3124,74.0,0,384,1.0,105.0
3125,62.0,0,384,2.0,105.0
3126,82.0,0,384,4.0,105.0
3127,58.0,0,384,7.0,105.0
3128,69.0,0,384,6.0,105.0
3129,78.0,0,384,5.0,105.0
3130,57.0,0,384,2.0,105.0
3131,72.0,0,384,1.0,105.0
3132,78.0,1920,384,1.0,105.0
3133,62.0,0,384,4.0,105.0
3134,78.0,0,384,4.0,105.0
3135,62.0,0,384,3.0,105.0
3136,45.0,0,384,8.0,105.0
3137,72.0,0,384,4.0,105.0
3138,78.0,0,384,0.0,105.0
3139,62.0,0,384,5.0,105.0
3140,72.0,0,384,5.0,105.0
3141,57.0,0,384,7.0,105.0
3142,55.0,0,180,6.0,58.0
3143,58.0,0,180,6.0,58.0
3144,31.0,1920,384,8.0,58.0
3145,43.0,0,384,7.0,58.0
3146,58.0,0,180,6.0,58.0
3147,55.0,240,180,6.0,58.0
3148,58.0,0,180,6.0,58.0
3149,67.0,240,180,6.0,58.0
3150,67.0,0,180,6.0,58.0
3151,58.0,240,180,6.0,58.0
3152,58.0,0,180,6.0,58.0
3153,55.0,240,180,6.0,58.0
3154,55.0,0,180,6.0,58.0
3155,58.0,240,180,6.0,58.0
3156,67.0,0,180,6.0,58.0
3157,58.0,0,180,6.0,58.0
3158,63.0,0,240,5.0,70.0
3159,75.0,240,240,4.0,70.0
3160,58.0,0,180,6.0,58.0
3161,67.0,240,180,6.0,58.0
3162,62.0,0,192,5.0,70.0
3163,74.0,0,192,4.0,70.0
3164,58.0,0,180,6.0,58.0
3165,55.0,0,180,6.0,58.0
3166,55.0,0,384,7.0,58.0
3167,62.0,240,384,5.0,70.0
3168,74.0,0,384,4.0,70.0
3169,43.0,0,384,8.0,58.0
3170,55.0,0,180,6.0,58.0
3171,58.0,240,180,6.0,58.0
3172,58.0,0,180,6.0,58.0
3173,67.0,240,180,6.0,58.0
3174,75.0,0,240,4.0,70.0
3175,63.0,0,240,5.0,70.0
3176,67.0,0,180,6.0,58.0
3177,58.0,0,180,6.0,58.0
3178,74.0,240,192,4.0,70.0
3179,62.0,0,192,5.0,70.0
3180,58.0,0,180,6.0,58.0
3181,55.0,0,180,6.0,58.0
3182,74.0,240,384,4.0,70.0
3183,62.0,0,384,5.0,70.0
3184,58.0,240,180,6.0,58.0
3185,55.0,0,180,6.0,58.0
3186,58.0,0,180,6.0,58.0
3187,67.0,0,180,6.0,58.0
3188,63.0,0,240,5.0,70.0
3189,75.0,240,240,4.0,70.0
3190,58.0,240,180,6.0,58.0
3191,67.0,0,180,6.0,58.0
3192,74.0,0,192,4.0,70.0
3193,62.0,0,192,5.0,70.0
3194,55.0,0,180,6.0,58.0
3195,58.0,0,180,6.0,58.0
3196,31.0,0,384,8.0,58.0
3197,43.0,0,384,7.0,58.0
3198,55.0,0,180,6.0,58.0
3199,58.0,240,180,6.0,58.0
3200,62.0,0,480,5.0,70.0
3201,74.0,240,480,4.0,70.0
3202,67.0,0,180,6.0,58.0
3203,58.0,0,180,6.0,58.0
3204,70.0,0,384,5.0,70.0
3205,82.0,240,384,4.0,70.0
3206,67.0,0,180,6.0,58.0
3207,58.0,240,180,6.0,58.0
3208,55.0,0,180,6.0,58.0
3209,58.0,240,180,6.0,58.0
3210,58.0,0,180,6.0,58.0
3211,55.0,240,180,6.0,58.0
3212,58.0,0,180,6.0,58.0
3213,67.0,240,180,6.0,58.0
3214,70.0,0,240,5.0,70.0
3215,82.0,0,240,4.0,70.0
3216,58.0,0,180,6.0,58.0
3217,67.0,0,180,6.0,58.0
3218,81.0,0,192,4.0,70.0
3219,69.0,240,192,5.0,70.0
3220,58.0,0,180,6.0,58.0
3221,55.0,0,180,6.0,58.0
3222,67.0,240,384,5.0,70.0
3223,43.0,0,384,8.0,58.0
3224,79.0,0,384,4.0,70.0
3225,55.0,0,384,7.0,58.0
3226,58.0,0,180,6.0,58.0
3227,55.0,240,180,6.0,58.0
3228,62.0,0,180,6.0,58.0
3229,58.0,0,180,6.0,58.0
3230,67.0,0,240,5.0,70.0
3231,79.0,240,240,4.0,70.0
3232,62.0,0,180,6.0,58.0
3233,58.0,0,180,6.0,58.0
3234,77.0,0,192,4.0,70.0
3235,65.0,240,192,5.0,70.0
3236,58.0,0,180,6.0,58.0
3237,55.0,0,180,6.0,58.0
3238,63.0,0,384,5.0,70.0
3239,75.0,240,384,4.0,70.0
3240,58.0,240,180,6.0,58.0
3241,55.0,0,180,6.0,58.0
3242,58.0,0,180,6.0,58.0
3243,67.0,0,180,6.0,58.0
3244,75.0,0,240,4.0,70.0
3245,63.0,240,240,5.0,70.0
3246,58.0,240,180,6.0,58.0
3247,67.0,0,180,6.0,58.0
3248,74.0,0,192,4.0,70.0
3249,62.0,0,192,5.0,70.0
3250,57.0,0,180,6.0,58.0
3251,63.0,0,180,6.0,58.0
3252,72.0,0,384,4.0,70.0
3253,43.0,0,384,7.0,58.0
3254,60.0,0,384,5.0,70.0
3255,31.0,240,384,8.0,58.0
3256,63.0,0,180,6.0,58.0
3257,57.0,240,180,6.0,58.0
3258,63.0,0,180,6.0,58.0
3259,69.0,0,180,6.0,58.0
3260,72.0,0,384,4.0,70.0
3261,60.0,240,384,5.0,70.0
3262,69.0,0,180,6.0,58.0
3263,63.0,240,180,6.0,58.0
3264,57.0,240,180,6.0,58.0
3265,63.0,0,180,6.0,58.0
3266,63.0,240,180,6.0,58.0
3267,57.0,0,180,6.0,58.0
3268,69.0,0,180,6.0,58.0
3269,63.0,0,180,6.0,58.0
3270,62.0,240,240,5.0,70.0
3271,74.0,0,240,4.0,70.0
3272,63.0,0,180,6.0,58.0
3273,69.0,240,180,6.0,58.0
3274,72.0,0,192,4.0,70.0
3275,60.0,0,192,5.0,70.0
3276,63.0,0,180,6.0,58.0
3277,57.0,0,180,6.0,58.0
3278,72.0,0,384,4.0,70.0
3279,60.0,0,384,5.0,70.0
3280,43.0,0,384,8.0,58.0
3281,55.0,240,384,7.0,58.0
3282,63.0,0,180,6.0,58.0
3283,57.0,240,180,6.0,58.0
3284,69.0,0,180,6.0,58.0
3285,63.0,240,180,6.0,58.0
3286,62.0,0,240,5.0,70.0
3287,74.0,0,240,4.0,70.0
3288,63.0,0,180,6.0,58.0
3289,69.0,240,180,6.0,58.0
3290,72.0,0,192,4.0,70.0
3291,60.0,0,192,5.0,70.0
3292,63.0,0,180,6.0,58.0
3293,57.0,0,180,6.0,58.0
3294,72.0,0,384,4.0,70.0
3295,60.0,240,384,5.0,70.0
3296,57.0,240,180,6.0,58.0
3297,63.0,0,180,6.0,58.0
3298,63.0,240,180,6.0,58.0
3299,69.0,0,180,6.0,58.0
3300,74.0,0,240,4.0,70.0
3301,62.0,0,240,5.0,70.0
3302,63.0,0,180,6.0,58.0
3303,69.0,240,180,6.0,58.0
3304,72.0,0,192,4.0,70.0
3305,60.0,0,192,5.0,70.0
3306,62.0,0,180,6.0,58.0
3307,57.0,240,180,6.0,58.0
3308,42.0,0,384,7.0,58.0
3309,30.0,0,384,8.0,58.0
3310,57.0,240,180,6.0,58.0
3311,62.0,0,180,6.0,58.0
3312,72.0,0,480,4.0,70.0
3313,60.0,0,480,5.0,70.0
3314,62.0,240,180,6.0,58.0
3315,72.0,0,180,6.0,58.0
3316,81.0,0,384,4.0,70.0
3317,69.0,0,384,5.0,70.0
3318,62.0,240,180,6.0,58.0
3319,72.0,0,180,6.0,58.0
3320,62.0,240,180,6.0,58.0
3321,57.0,0,180,6.0,58.0
3322,62.0,0,180,6.0,58.0
3323,57.0,240,180,6.0,58.0
3324,62.0,0,180,6.0,58.0
3325,72.0,0,180,6.0,58.0
3326,69.0,240,240,5.0,70.0
3327,81.0,0,240,4.0,70.0
3328,72.0,0,180,6.0,58.0
3329,62.0,0,180,6.0,58.0
3330,79.0,240,192,4.0,70.0
3331,67.0,0,192,5.0,70.0
3332,60.0,0,180,6.0,58.0
3333,57.0,0,180,6.0,58.0
3334,38.0,0,384,8.0,58.0
3335,66.0,240,384,5.0,70.0
3336,50.0,0,384,7.0,58.0
3337,78.0,0,384,4.0,70.0
3338,60.0,0,180,6.0,58.0
3339,57.0,240,180,6.0,58.0
3340,60.0,0,180,6.0,58.0
3341,69.0,0,180,6.0,58.0
3342,78.0,240,240,4.0,70.0
3343,66.0,0,240,5.0,70.0
3344,60.0,0,180,6.0,58.0
3345,69.0,240,180,6.0,58.0
3346,75.0,0,192,4.0,70.0
3347,63.0,0,192,5.0,70.0
3348,66.0,0,180,6.0,58.0
3349,57.0,240,180,6.0,58.0
3350,74.0,0,384,4.0,70.0
3351,62.0,0,384,5.0,70.0
3352,57.0,0,180,6.0,58.0
3353,66.0,240,180,6.0,58.0
3354,69.0,0,180,6.0,58.0
3355,66.0,240,180,6.0,58.0
3356,62.0,0,240,5.0,70.0
3357,74.0,0,240,4.0,70.0
3358,69.0,0,180,6.0,58.0
3359,66.0,0,180,6.0,58.0
3360,72.0,0,192,4.0,70.0
3361,60.0,240,192,5.0,70.0
3362,55.0,240,180,6.0,58.0
3363,58.0,0,180,6.0,58.0
3364,43.0,0,384,7.0,58.0
3365,31.0,0,384,8.0,58.0
3366,70.0,0,384,4.0,70.0
3367,58.0,0,384,5.0,70.0
3368,58.0,0,180,6.0,58.0
3369,55.0,240,180,6.0,58.0
3370,67.0,240,180,6.0,58.0
3371,58.0,0,180,6.0,58.0
3372,70.0,0,384,4.0,70.0
3373,58.0,0,384,5.0,70.0
3374,67.0,0,180,6.0,58.0
3375,58.0,240,180,6.0,58.0
3376,55.0,240,180,6.0,58.0
3377,58.0,0,180,6.0,58.0
3378,55.0,240,180,6.0,58.0
3379,58.0,0,180,6.0,58.0
3380,67.0,240,180,6.0,58.0
3381,58.0,0,180,6.0,58.0
3382,82.0,0,240,4.0,70.0
3383,70.0,0,240,5.0,70.0
3384,67.0,0,180,6.0,58.0
3385,58.0,240,180,6.0,58.0
3386,81.0,0,192,4.0,70.0
3387,69.0,0,192,5.0,70.0
3388,57.0,0,180,6.0,58.0
3389,63.0,0,180,6.0,58.0
3390,63.0,240,180,6.0,58.0
3391,57.0,0,180,6.0,58.0
3392,81.0,240,480,4.0,70.0
3393,69.0,0,480,5.0,70.0
3394,66.0,0,180,6.0,58.0
3395,63.0,0,180,6.0,58.0
3396,66.0,240,180,6.0,58.0
3397,63.0,0,180,6.0,58.0
3398,84.0,240,480,4.0,70.0
3399,72.0,0,480,5.0,70.0
3400,57.0,240,180,6.0,58.0
3401,63.0,0,180,6.0,58.0
3402,57.0,0,180,6.0,58.0
3403,63.0,240,180,6.0,58.0
3404,78.0,0,480,4.0,70.0
3405,66.0,0,480,5.0,70.0
3406,66.0,240,180,6.0,58.0
3407,63.0,0,180,6.0,58.0
3408,81.0,0,384,4.0,70.0
3409,69.0,0,384,5.0,70.0
3410,63.0,0,180,6.0,58.0
3411,66.0,240,180,6.0,58.0
3412,48.0,0,1920,7.0,58.0
3413,36.0,0,1920,8.0,58.0
3414,58.0,0,180,6.0,58.0
3415,55.0,0,180,6.0,58.0
3416,58.0,0,180,6.0,58.0
3417,55.0,240,180,6.0,58.0
3418,67.0,0,480,5.0,70.0
3419,79.0,240,480,4.0,70.0
3420,67.0,0,180,6.0,58.0
3421,58.0,0,180,6.0,58.0
3422,62.0,0,384,5.0,70.0
3423,74.0,240,384,4.0,70.0
3424,58.0,240,180,6.0,58.0
3425,67.0,0,180,6.0,58.0
3426,55.0,240,180,6.0,58.0
3427,58.0,0,180,6.0,58.0
3428,58.0,240,180,6.0,58.0
3429,55.0,0,180,6.0,58.0
3430,58.0,240,180,6.0,58.0
3431,67.0,0,180,6.0,58.0
3432,82.0,0,240,4.0,70.0
3433,70.0,0,240,5.0,70.0
3434,67.0,0,180,6.0,58.0
3435,58.0,240,180,6.0,58.0
3436,69.0,0,192,5.0,70.0
3437,81.0,0,192,4.0,70.0
3438,46.0,0,1920,7.0,58.0
3439,34.0,0,1920,8.0,58.0
3440,63.0,0,180,6.0,58.0
3441,57.0,0,180,6.0,58.0
3442,57.0,0,180,6.0,58.0
3443,63.0,240,180,6.0,58.0
3444,81.0,0,480,4.0,70.0
3445,69.0,0,480,5.0,70.0
3446,66.0,240,180,6.0,58.0
3447,63.0,0,180,6.0,58.0
3448,63.0,0,180,6.0,58.0
3449,66.0,240,180,6.0,58.0
3450,72.0,0,480,5.0,70.0
3451,84.0,0,480,4.0,70.0
3452,57.0,0,180,6.0,58.0
3453,63.0,0,180,6.0,58.0
3454,63.0,0,180,6.0,58.0
3455,57.0,240,180,6.0,58.0
3456,78.0,240,480,4.0,70.0
3457,66.0,0,480,5.0,70.0
3458,63.0,0,180,6.0,58.0
3459,66.0,0,180,6.0,58.0
3460,81.0,0,384,4.0,70.0
3461,69.0,240,384,5.0,70.0
3462,66.0,0,180,6.0,58.0
3463,63.0,240,180,6.0,58.0
3464,48.0,240,1920,7.0,58.0
3465,36.0,0,1920,8.0,58.0
3466,67.0,0,480,5.0,70.0
3467,79.0,0,480,4.0,70.0
3468,70.0,480,384,5.0,70.0
3469,82.0,0,384,4.0,70.0
3470,69.0,480,240,5.0,70.0
3471,81.0,0,240,4.0,70.0
3472,79.0,240,240,4.0,70.0
3473,67.0,0,240,5.0,70.0
3474,65.0,240,240,5.0,70.0
3475,77.0,0,240,4.0,70.0
3476,34.0,0,1824,8.0,58.0
3477,55.0,0,1824,6.0,58.0
3478,62.0,240,1824,6.0,58.0
3479,46.0,0,1824,7.0,58.0
3480,63.0,0,192,5.0,70.0
3481,75.0,240,192,4.0,70.0
3482,54.0,0,480,2.0,105.0
3483,66.0,480,480,1.0,70.0
3484,78.0,0,480,0.0,70.0
3485,55.0,480,480,2.0,70.0
3486,79.0,0,480,0.0,70.0
3487,58.0,0,1440,6.0,58.0
3488,67.0,0,480,1.0,70.0
3489,40.0,0,1920,8.0,58.0
3490,81.0,480,480,0.0,70.0
3491,57.0,0,480,6.0,58.0
3492,62.0,0,1920,5.0,58.0
3493,74.0,240,1920,4.0,70.0
3494,52.0,0,1920,7.0,58.0
3495,69.0,0,480,1.0,70.0
3496,57.0,0,480,2.0,70.0
3497,58.0,0,480,2.0,70.0
3498,70.0,0,480,1.0,70.0
3499,82.0,0,480,0.0,70.0
3500,60.0,480,240,2.0,70.0
3501,84.0,0,240,0.0,70.0
3502,72.0,0,240,1.0,70.0
3503,58.0,240,240,2.0,70.0
3504,82.0,0,240,0.0,70.0
3505,70.0,0,240,1.0,70.0
3506,55.0,0,960,6.0,58.0
3507,81.0,0,480,0.0,70.0
3508,69.0,0,480,1.0,70.0
3509,57.0,240,480,2.0,70.0
3510,54.0,0,480,6.0,58.0
3511,51.0,0,1824,7.0,58.0
3512,61.0,480,1824,5.0,58.0
3513,55.0,0,384,6.0,58.0
3514,39.0,0,1824,8.0,58.0
3515,73.0,0,1824,4.0,70.0
3516,67.0,0,456,1.0,70.0
3517,79.0,0,456,0.0,70.0
3518,55.0,480,456,2.0,70.0
3519,66.0,0,384,1.0,70.0
3520,54.0,0,384,2.0,70.0
3521,78.0,0,384,0.0,70.0
3522,57.0,0,768,6.0,58.0
3523,38.0,0,768,8.0,58.0
3524,50.0,0,768,7.0,58.0
3525,74.0,480,768,4.0,70.0
3526,62.0,0,768,5.0,58.0
3527,62.0,0,180,4.0,105.0
3528,62.0,480,180,5.0,105.0
3529,50.0,0,180,7.0,105.0
3530,62.0,0,180,6.0,105.0
3531,38.0,0,180,8.0,58.0
3532,62.0,240,180,5.0,105.0
3533,62.0,0,180,4.0,105.0
3534,50.0,0,180,7.0,105.0
3535,62.0,0,180,6.0,105.0
3536,38.0,0,180,8.0,105.0
3537,70.0,0,960,3.0,105.0
3538,58.0,0,960,2.0,105.0
3539,64.0,0,960,2.0,105.0
3540,79.0,0,960,1.0,105.0
3541,82.0,0,960,1.0,105.0
3542,85.0,960,960,0.0,105.0
3543,55.0,0,960,3.0,105.0
3544,66.0,0,384,2.0,105.0
3545,86.0,0,384,0.0,105.0
3546,74.0,240,384,3.0,105.0
3547,57.0,0,384,2.0,105.0
3548,81.0,0,384,1.0,105.0
3549,57.0,0,384,3.0,105.0
3550,78.0,0,384,1.0,105.0
3551,50.0,0,768,7.0,105.0
3552,62.0,0,768,5.0,105.0
3553,62.0,0,768,4.0,105.0
3554,38.0,0,768,8.0,105.0
3555,62.0,0,768,6.0,105.0
3556,62.0,0,180,5.0,105.0
3557,62.0,0,180,6.0,105.0
3558,62.0,0,180,4.0,105.0
3559,50.0,0,180,7.0,105.0
3560,38.0,480,180,8.0,105.0
3561,50.0,240,180,7.0,105.0
3562,62.0,0,180,5.0,105.0
3563,62.0,0,180,6.0,105.0
3564,62.0,0,180,4.0,105.0
3565,38.0,0,180,8.0,105.0
3566,70.0,0,960,3.0,105.0
3567,64.0,0,960,2.0,105.0
3568,58.0,0,960,2.0,105.0
3569,55.0,0,960,3.0,105.0
3570,79.0,0,960,1.0,105.0
3571,82.0,960,960,1.0,105.0
3572,85.0,0,960,0.0,105.0
3573,86.0,0,384,0.0,105.0
3574,66.0,0,384,2.0,105.0
3575,57.0,0,384,2.0,105.0
3576,74.0,0,384,3.0,105.0
3577,78.0,0,384,1.0,105.0
3578,57.0,0,384,3.0,105.0
3579,81.0,0,384,1.0,105.0
3580,38.0,0,768,8.0,105.0
3581,50.0,0,768,7.0,105.0
3582,62.0,240,768,4.0,105.0
3583,62.0,0,768,6.0,105.0
3584,62.0,0,768,5.0,105.0
3585,50.0,0,180,7.0,105.0
3586,62.0,480,180,6.0,105.0
3587,38.0,0,180,8.0,105.0
3588,62.0,0,180,5.0,105.0
3589,62.0,0,180,4.0,105.0
3590,62.0,0,180,4.0,105.0
3591,62.0,0,180,5.0,105.0
3592,62.0,240,180,6.0,105.0
3593,38.0,0,180,8.0,105.0
3594,50.0,0,180,7.0,105.0
3595,85.0,0,960,0.0,105.0
3596,64.0,0,960,2.0,105.0
3597,79.0,0,960,1.0,105.0
3598,82.0,0,960,1.0,105.0
3599,58.0,960,960,2.0,105.0
3600,55.0,0,960,3.0,105.0
3601,70.0,0,960,3.0,105.0
3602,86.0,0,288,0.0,105.0
3603,57.0,0,288,3.0,105.0
3604,74.0,0,288,3.0,105.0
3605,78.0,0,288,1.0,105.0
3606,81.0,0,288,1.0,105.0
3607,66.0,0,288,2.0,105.0
3608,57.0,240,288,2.0,105.0
3609,62.0,0,360,4.0,105.0
3610,50.0,0,360,7.0,105.0
3611,62.0,0,360,6.0,105.0
3612,38.0,0,360,8.0,105.0
3613,62.0,0,360,5.0,105.0
3614,62.0,0,180,6.0,105.0
3615,62.0,0,180,4.0,105.0
3616,50.0,0,180,7.0,105.0
3617,62.0,480,180,5.0,105.0
3618,38.0,0,180,8.0,105.0
3619,58.0,0,288,2.0,105.0
3620,79.0,0,288,1.0,105.0
3621,82.0,0,288,1.0,105.0
3622,70.0,0,288,3.0,105.0
3623,55.0,0,288,3.0,105.0
3624,64.0,0,288,2.0,105.0
3625,85.0,0,288,0.0,105.0
3626,62.0,0,180,6.0,105.0
3627,62.0,0,180,4.0,105.0
3628,62.0,0,180,5.0,105.0
3629,38.0,0,180,8.0,105.0
3630,50.0,240,180,7.0,105.0
3631,78.0,0,288,1.0,105.0
3632,81.0,0,288,1.0,105.0
3633,57.0,0,288,2.0,105.0
3634,57.0,0,288,3.0,105.0
3635,74.0,0,288,3.0,105.0
3636,86.0,0,288,0.0,105.0
3637,66.0,240,288,2.0,105.0
3638,38.0,0,360,8.0,105.0
3639,62.0,0,360,5.0,105.0
3640,50.0,0,360,7.0,105.0
3641,62.0,0,360,4.0,105.0
3642,62.0,0,360,6.0,105.0
3643,62.0,0,180,5.0,105.0
3644,62.0,0,180,4.0,105.0
3645,38.0,480,180,8.0,105.0
3646,62.0,0,180,6.0,105.0
3647,50.0,0,180,7.0,105.0
3648,55.0,0,288,3.0,105.0
3649,70.0,0,288,3.0,105.0
3650,82.0,0,288,1.0,105.0
3651,85.0,0,288,0.0,105.0
3652,64.0,0,288,2.0,105.0
3653,79.0,0,288,1.0,105.0
3654,58.0,0,288,2.0,105.0
3655,62.0,0,180,6.0,105.0
3656,38.0,0,180,8.0,105.0
3657,62.0,0,180,5.0,105.0
3658,50.0,240,180,7.0,105.0
3659,62.0,0,180,4.0,105.0
3660,62.0,0,768,4.0,105.0
3661,38.0,0,768,8.0,105.0
3662,57.0,0,768,3.0,105.0
3663,74.0,240,768,3.0,105.0
3664,86.0,0,768,0.0,105.0
3665,50.0,0,768,7.0,105.0
3666,78.0,0,768,1.0,105.0
3667,81.0,0,768,1.0,105.0
3668,62.0,0,768,5.0,105.0
3669,62.0,0,768,6.0,105.0
3670,66.0,0,960,2.0,105.0
3671,57.0,960,0,2.0,70.0
3672,75.0,0,240,4.0,70.0
3673,63.0,480,240,5.0,70.0
3674,74.0,240,192,4.0,70.0
3675,62.0,0,192,5.0,70.0
3676,60.0,0,960,2.0,70.0
3677,74.0,0,384,4.0,70.0
3678,62.0,0,384,5.0,70.0
3679,75.0,480,240,4.0,70.0
3680,63.0,0,240,5.0,70.0
3681,74.0,240,192,4.0,70.0
3682,62.0,0,192,5.0,70.0
3683,55.0,0,960,2.0,70.0
3684,58.0,240,960,2.0,70.0
3685,74.0,0,384,4.0,70.0
3686,62.0,0,384,5.0,70.0
3687,75.0,0,240,4.0,70.0
3688,63.0,480,240,5.0,70.0
3689,74.0,0,192,4.0,70.0
3690,62.0,240,192,5.0,70.0
3691,54.0,0,960,2.0,70.0
3692,57.0,240,960,2.0,70.0
3693,55.0,0,180,6.0,58.0
3694,58.0,0,180,6.0,58.0
3695,58.0,240,384,2.0,70.0
3696,55.0,0,384,2.0,70.0
3697,43.0,0,384,7.0,58.0
3698,31.0,0,384,8.0,58.0
3699,58.0,240,180,6.0,58.0
3700,55.0,0,180,6.0,58.0
3701,74.0,0,480,4.0,70.0
3702,62.0,0,480,5.0,70.0
3703,58.0,0,180,6.0,58.0
3704,67.0,240,180,6.0,58.0
3705,82.0,0,384,4.0,70.0
3706,70.0,0,384,5.0,70.0
3707,67.0,0,180,6.0,58.0
3708,58.0,240,180,6.0,58.0
3709,55.0,240,180,6.0,58.0
3710,58.0,0,180,6.0,58.0
3711,55.0,0,180,6.0,58.0
3712,58.0,240,180,6.0,58.0
3713,58.0,0,180,6.0,58.0
3714,67.0,0,180,6.0,58.0
3715,70.0,0,240,5.0,70.0
3716,82.0,240,240,4.0,70.0
3717,58.0,0,180,6.0,58.0
3718,67.0,0,180,6.0,58.0
3719,81.0,0,192,4.0,70.0
3720,69.0,240,192,5.0,70.0
3721,58.0,240,180,6.0,58.0
3722,55.0,0,180,6.0,58.0
3723,43.0,0,384,8.0,58.0
3724,67.0,0,384,5.0,70.0
3725,55.0,0,384,7.0,58.0
3726,79.0,0,384,4.0,70.0
3727,55.0,0,180,6.0,58.0
3728,58.0,240,180,6.0,58.0
3729,62.0,0,180,6.0,58.0
3730,58.0,0,180,6.0,58.0
3731,67.0,0,240,5.0,70.0
3732,79.0,240,240,4.0,70.0
3733,58.0,240,180,6.0,58.0
3734,62.0,0,180,6.0,58.0
3735,77.0,0,192,4.0,70.0
3736,65.0,0,192,5.0,70.0
3737,55.0,0,180,6.0,58.0
3738,58.0,0,180,6.0,58.0
3739,75.0,240,384,4.0,70.0
3740,63.0,0,384,5.0,70.0
3741,55.0,0,180,6.0,58.0
3742,58.0,240,180,6.0,58.0
3743,58.0,0,180,6.0,58.0
3744,67.0,0,180,6.0,58.0
3745,75.0,240,240,4.0,70.0
3746,63.0,0,240,5.0,70.0
3747,74.0,0,3744,1.0,70.0
3748,58.0,240,180,6.0,58.0
3749,67.0,0,180,6.0,58.0
3750,74.0,0,192,4.0,70.0
3751,62.0,0,192,5.0,70.0
3752,55.0,0,180,6.0,58.0
3753,58.0,0,180,6.0,58.0
3754,72.0,0,384,4.0,70.0
3755,27.0,0,384,8.0,58.0
3756,60.0,240,384,5.0,70.0
3757,39.0,0,384,7.0,58.0
3758,55.0,240,180,6.0,58.0
3759,58.0,0,180,6.0,58.0
3760,67.0,240,180,6.0,58.0
3761,58.0,0,180,6.0,58.0
3762,60.0,0,384,5.0,70.0
3763,72.0,0,384,4.0,70.0
3764,67.0,0,180,6.0,58.0
3765,58.0,240,180,6.0,58.0
3766,55.0,240,180,6.0,58.0
3767,58.0,0,180,6.0,58.0
3768,55.0,240,180,6.0,58.0
3769,58.0,0,180,6.0,58.0
3770,67.0,0,180,6.0,58.0
3771,58.0,240,180,6.0,58.0
3772,77.0,0,240,4.0,70.0
3773,65.0,0,240,5.0,70.0
3774,58.0,0,180,6.0,58.0
3775,67.0,0,180,6.0,58.0
3776,75.0,0,192,4.0,70.0
3777,63.0,240,192,5.0,70.0
3778,58.0,0,180,6.0,58.0
3779,55.0,240,180,6.0,58.0
3780,63.0,0,384,5.0,70.0
3781,36.0,0,384,8.0,58.0
3782,48.0,0,384,7.0,58.0
3783,75.0,0,384,4.0,70.0
3784,58.0,240,180,6.0,58.0
3785,55.0,0,180,6.0,58.0
3786,58.0,0,180,6.0,58.0
3787,67.0,240,180,6.0,58.0
3788,65.0,0,240,5.0,70.0
3789,77.0,0,240,4.0,70.0
3790,67.0,0,180,6.0,58.0
3791,58.0,0,180,6.0,58.0
3792,75.0,0,192,4.0,70.0
3793,63.0,240,192,5.0,70.0
3794,55.0,0,180,6.0,58.0
3795,58.0,0,180,6.0,58.0
3796,63.0,0,384,5.0,70.0
3797,75.0,240,384,4.0,70.0
3798,58.0,0,180,6.0,58.0
3799,55.0,240,180,6.0,58.0
3800,67.0,0,180,6.0,58.0
3801,58.0,240,180,6.0,58.0
3802,65.0,0,240,5.0,70.0
3803,77.0,0,240,4.0,70.0
3804,82.0,0,7584,1.0,70.0
3805,67.0,0,3744,2.0,58.0
3806,58.0,0,180,6.0,58.0
3807,67.0,240,180,6.0,58.0
3808,63.0,0,192,5.0,70.0
3809,75.0,0,192,4.0,70.0
3810,60.0,0,180,6.0,58.0
3811,57.0,240,180,6.0,58.0
3812,53.0,0,384,7.0,58.0
3813,41.0,0,384,8.0,58.0
3814,60.0,0,180,6.0,58.0
3815,57.0,240,180,6.0,58.0
3816,75.0,0,480,4.0,70.0
3817,63.0,0,480,5.0,70.0
3818,63.0,0,180,6.0,58.0
3819,69.0,0,180,6.0,58.0
3820,72.0,0,384,5.0,70.0
3821,84.0,240,384,4.0,70.0
3822,69.0,240,180,6.0,58.0
3823,63.0,0,180,6.0,58.0
3824,57.0,0,180,6.0,58.0
3825,60.0,240,180,6.0,58.0
3826,57.0,240,180,6.0,58.0
3827,60.0,0,180,6.0,58.0
3828,63.0,0,180,6.0,58.0
3829,69.0,0,180,6.0,58.0
3830,72.0,240,240,5.0,70.0
3831,84.0,0,240,4.0,70.0
3832,63.0,240,180,6.0,58.0
3833,69.0,0,180,6.0,58.0
3834,70.0,0,192,5.0,70.0
3835,82.0,0,192,4.0,70.0
3836,63.0,0,180,6.0,58.0
3837,60.0,0,180,6.0,58.0
3838,69.0,0,384,5.0,70.0
3839,81.0,0,384,4.0,70.0
3840,41.0,240,384,8.0,58.0
3841,53.0,0,384,7.0,58.0
3842,63.0,0,180,6.0,58.0
3843,60.0,240,180,6.0,58.0
3844,72.0,0,180,6.0,58.0
3845,63.0,0,180,6.0,58.0
3846,81.0,240,240,4.0,70.0
3847,69.0,0,240,5.0,70.0
3848,72.0,0,180,6.0,58.0
3849,63.0,0,180,6.0,58.0
3850,79.0,0,192,4.0,70.0
3851,67.0,240,192,5.0,70.0
3852,57.0,240,180,6.0,58.0
3853,60.0,0,180,6.0,58.0
3854,65.0,0,384,5.0,70.0
3855,77.0,0,384,4.0,70.0
3856,57.0,0,180,6.0,58.0
3857,60.0,240,180,6.0,58.0
3858,69.0,240,180,6.0,58.0
3859,60.0,0,180,6.0,58.0
3860,77.0,0,240,4.0,70.0
3861,65.0,0,240,5.0,70.0
3862,81.0,0,3744,1.0,70.0
3863,63.0,0,7584,2.0,58.0
3864,65.0,0,3744,2.0,70.0
3865,72.0,0,7584,1.0,70.0
3866,69.0,0,180,6.0,58.0
3867,60.0,0,180,6.0,58.0
3868,63.0,0,192,5.0,70.0
3869,75.0,240,192,4.0,70.0
3870,58.0,0,192,7.0,105.0
3871,70.0,0,192,6.0,105.0
3872,62.0,0,192,6.0,105.0
3873,46.0,0,192,8.0,58.0
3874,65.0,240,384,2.0,70.0
3875,62.0,0,384,2.0,70.0
3876,50.0,240,192,8.0,105.0
3877,70.0,0,192,6.0,105.0
3878,62.0,0,192,7.0,105.0
3879,58.0,240,192,2.0,105.0
3880,58.0,0,192,7.0,105.0
3881,74.0,0,192,6.0,105.0
3882,46.0,0,192,8.0,105.0
3883,62.0,0,192,7.0,105.0
3884,62.0,240,192,2.0,105.0
3885,50.0,0,192,8.0,105.0
3886,70.0,0,192,6.0,105.0
3887,58.0,240,192,2.0,105.0
3888,58.0,0,192,7.0,105.0
3889,74.0,0,192,6.0,105.0
3890,46.0,0,192,8.0,105.0
3891,62.0,240,192,2.0,105.0
3892,50.0,0,192,8.0,105.0
3893,62.0,0,192,7.0,105.0
3894,70.0,0,192,6.0,105.0
3895,82.0,0,1536,0.0,105.0
3896,70.0,0,1536,3.0,105.0
3897,62.0,0,1536,5.0,105.0
3898,70.0,0,1536,4.0,105.0
3899,82.0,0,1536,4.0,105.0
3900,70.0,0,1536,5.0,105.0
3901,74.0,0,1536,1.0,70.0
3902,82.0,0,1536,1.0,70.0
3903,58.0,0,192,2.0,105.0
3904,74.0,0,192,6.0,105.0
3905,46.0,240,192,8.0,105.0
3906,58.0,0,192,7.0,105.0
3907,50.0,0,192,8.0,105.0
3908,62.0,0,192,2.0,105.0
3909,70.0,240,192,6.0,105.0
3910,62.0,0,192,7.0,105.0
3911,57.0,0,192,7.0,105.0
3912,72.0,0,192,6.0,105.0
3913,57.0,0,192,2.0,105.0
3914,45.0,0,192,8.0,105.0
3915,60.0,0,192,2.0,105.0
3916,69.0,0,192,6.0,105.0
3917,60.0,240,192,7.0,105.0
3918,48.0,0,192,8.0,105.0
3919,45.0,240,192,8.0,105.0
3920,57.0,0,192,7.0,105.0
3921,72.0,0,192,6.0,105.0
3922,57.0,0,192,2.0,105.0
3923,48.0,240,192,8.0,105.0
3924,60.0,0,192,7.0,105.0
3925,69.0,0,192,6.0,105.0
3926,60.0,0,192,2.0,105.0
3927,72.0,0,192,6.0,105.0
3928,45.0,0,192,8.0,105.0
3929,57.0,0,192,2.0,105.0
3930,69.0,0,1152,5.0,105.0
3931,77.0,0,1152,5.0,105.0
3932,77.0,0,1152,4.0,105.0
3933,57.0,240,192,7.0,105.0
3934,48.0,240,192,8.0,105.0
3935,69.0,0,192,6.0,105.0
3936,60.0,0,192,2.0,105.0
3937,60.0,0,192,7.0,105.0
3938,77.0,0,1536,1.0,105.0
3939,65.0,240,1536,3.0,105.0
3940,89.0,0,1536,0.0,105.0
3941,57.0,0,192,7.0,105.0
3942,72.0,0,192,6.0,105.0
3943,45.0,240,192,8.0,105.0
3944,57.0,0,192,2.0,105.0
3945,77.0,0,132,4.0,105.0
3946,77.0,0,132,5.0,105.0
3947,60.0,0,192,7.0,105.0
3948,69.0,240,192,6.0,105.0
3949,60.0,0,192,2.0,105.0
3950,48.0,0,192,8.0,105.0
3951,55.0,0,192,2.0,105.0
3952,55.0,0,192,7.0,105.0
3953,70.0,240,192,6.0,105.0
3954,43.0,0,192,8.0,105.0
3955,75.0,0,264,5.0,105.0
3956,75.0,0,264,4.0,105.0
3957,58.0,0,192,7.0,105.0
3958,58.0,0,192,2.0,105.0
3959,67.0,0,192,6.0,105.0
3960,46.0,240,192,8.0,105.0
3961,70.0,0,192,6.0,105.0
3962,55.0,0,192,7.0,105.0
3963,55.0,0,192,2.0,105.0
3964,43.0,0,192,8.0,105.0
3965,79.0,240,264,4.0,105.0
3966,79.0,0,264,5.0,105.0
3967,58.0,0,768,3.0,105.0
3968,58.0,0,192,2.0,105.0
3969,58.0,0,192,7.0,105.0
3970,46.0,0,192,8.0,105.0
3971,67.0,240,192,6.0,105.0
3972,55.0,0,192,2.0,105.0
3973,43.0,240,192,8.0,105.0
3974,55.0,0,192,7.0,105.0
3975,70.0,0,192,6.0,105.0
3976,82.0,0,264,5.0,105.0
3977,82.0,0,264,4.0,105.0
3978,58.0,240,192,7.0,105.0
3979,46.0,0,192,8.0,105.0
3980,67.0,0,192,6.0,105.0
3981,58.0,0,192,2.0,105.0
3982,87.0,0,1536,0.0,105.0
3983,75.0,0,1536,1.0,105.0
3984,58.0,0,576,3.0,105.0
3985,55.0,0,192,2.0,105.0
3986,55.0,0,192,7.0,105.0
3987,70.0,240,192,6.0,105.0
3988,43.0,0,192,8.0,105.0
3989,46.0,0,192,8.0,105.0
3990,58.0,240,192,7.0,105.0
3991,67.0,0,192,6.0,105.0
3992,58.0,0,192,3.0,105.0
3993,58.0,0,192,2.0,105.0
3994,53.0,0,192,2.0,105.0
3995,41.0,0,192,8.0,105.0
3996,53.0,0,192,7.0,105.0
3997,70.0,240,192,6.0,105.0
3998,74.0,0,264,4.0,105.0
3999,74.0,0,264,5.0,105.0
4000,65.0,240,192,6.0,105.0
4001,46.0,0,192,8.0,105.0
4002,58.0,0,192,2.0,105.0
4003,58.0,0,192,7.0,105.0
4004,41.0,0,192,8.0,105.0
4005,53.0,0,192,7.0,105.0
4006,53.0,0,192,2.0,105.0
4007,70.0,240,192,6.0,105.0
4008,77.0,0,264,4.0,105.0
4009,77.0,0,264,5.0,105.0
4010,65.0,0,192,6.0,105.0
4011,58.0,240,192,2.0,105.0
4012,46.0,0,192,8.0,105.0
4013,58.0,0,192,7.0,105.0
4014,53.0,0,192,7.0,105.0
4015,70.0,0,192,6.0,105.0
4016,41.0,0,192,8.0,105.0
4017,53.0,240,192,2.0,105.0
4018,82.0,0,264,4.0,105.0
4019,82.0,0,264,5.0,105.0
4020,58.0,0,192,2.0,105.0
4021,65.0,240,192,6.0,105.0
4022,58.0,0,192,7.0,105.0
4023,46.0,0,192,8.0,105.0
4024,86.0,0,1536,0.0,105.0
4025,74.0,0,1536,1.0,105.0
4026,58.0,0,1536,3.0,105.0
4027,41.0,0,192,8.0,105.0
4028,53.0,0,192,2.0,105.0
4029,53.0,0,192,7.0,105.0
4030,70.0,240,192,6.0,105.0
4031,74.0,0,132,5.0,105.0
4032,74.0,0,132,4.0,105.0
4033,46.0,0,192,8.0,105.0
4034,65.0,0,192,6.0,105.0
4035,58.0,0,192,7.0,105.0
4036,58.0,240,192,2.0,105.0
4037,39.0,240,192,8.0,105.0
4038,51.0,0,192,7.0,105.0
4039,51.0,0,192,2.0,105.0
4040,67.0,0,192,6.0,105.0
4041,72.0,0,264,4.0,105.0
4042,72.0,0,264,5.0,105.0
4043,55.0,0,192,2.0,105.0
4044,63.0,0,192,6.0,105.0
4045,43.0,240,192,8.0,105.0
4046,55.0,0,192,7.0,105.0
4047,51.0,0,192,2.0,105.0
4048,67.0,0,192,6.0,105.0
4049,39.0,0,192,8.0,105.0
4050,51.0,0,192,7.0,105.0
4051,75.0,0,264,5.0,105.0
4052,75.0,240,264,4.0,105.0
4053,55.0,0,192,2.0,105.0
4054,55.0,0,192,7.0,105.0
4055,63.0,240,192,6.0,105.0
4056,43.0,0,192,8.0,105.0
4057,67.0,0,192,6.0,105.0
4058,51.0,0,192,2.0,105.0
4059,51.0,0,192,7.0,105.0
4060,39.0,0,192,8.0,105.0
4061,79.0,240,264,5.0,105.0
4062,79.0,0,264,4.0,105.0
4063,55.0,0,192,2.0,105.0
4064,55.0,0,192,7.0,105.0
4065,63.0,240,192,6.0,105.0
4066,43.0,0,192,8.0,105.0
4067,84.0,0,1536,0.0,105.0
4068,72.0,0,1536,1.0,105.0
4069,51.0,0,192,2.0,105.0
4070,67.0,0,192,6.0,105.0
4071,51.0,0,192,7.0,105.0
4072,39.0,0,192,8.0,105.0
4073,72.0,240,264,4.0,105.0
4074,72.0,0,264,5.0,105.0
4075,63.0,240,192,6.0,105.0
4076,43.0,0,192,8.0,105.0
4077,55.0,0,192,2.0,105.0
4078,55.0,0,192,7.0,105.0
4079,50.0,0,192,7.0,105.0
4080,38.0,0,192,8.0,105.0
4081,50.0,0,192,2.0,105.0
4082,65.0,0,192,6.0,105.0
4083,70.0,0,264,4.0,105.0
4084,70.0,240,264,5.0,105.0
4085,53.0,240,192,2.0,105.0
4086,53.0,0,192,7.0,105.0
4087,62.0,0,192,6.0,105.0
4088,41.0,0,192,8.0,105.0
4089,50.0,0,192,7.0,105.0
4090,38.0,0,192,8.0,105.0
4091,65.0,0,192,6.0,105.0
4092,50.0,0,192,2.0,105.0
4093,74.0,0,264,5.0,105.0
4094,74.0,240,264,4.0,105.0
4095,53.0,240,192,2.0,105.0
4096,41.0,0,192,8.0,105.0
4097,62.0,0,192,6.0,105.0
4098,53.0,0,192,7.0,105.0
4099,65.0,0,192,6.0,105.0
4100,50.0,0,192,7.0,105.0
4101,50.0,240,192,2.0,105.0
4102,38.0,0,192,8.0,105.0
4103,77.0,0,264,4.0,105.0
4104,77.0,0,264,5.0,105.0
4105,41.0,0,192,8.0,105.0
4106,53.0,0,192,7.0,105.0
4107,62.0,240,192,6.0,105.0
4108,53.0,0,192,2.0,105.0
4109,82.0,0,1536,0.0,105.0
4110,70.0,0,1536,1.0,105.0
4111,50.0,0,192,7.0,105.0
4112,65.0,0,192,6.0,105.0
4113,38.0,0,192,8.0,105.0
4114,50.0,240,192,2.0,105.0
4115,77.0,0,132,4.0,105.0
4116,65.0,0,132,5.0,105.0
4117,62.0,0,192,6.0,105.0
4118,41.0,0,192,8.0,105.0
4119,53.0,240,192,2.0,105.0
4120,53.0,0,192,7.0,105.0
4121,76.0,0,192,4.0,125.0
4122,64.0,0,192,5.0,125.0
4123,77.0,240,192,4.0,105.0
4124,65.0,0,192,5.0,105.0
4125,67.0,0,192,5.0,105.0
4126,79.0,240,192,4.0,105.0
4127,69.0,240,192,5.0,105.0
4128,81.0,0,192,4.0,105.0
4129,82.0,0,192,4.0,105.0
4130,70.0,240,192,5.0,105.0
4131,84.0,240,192,4.0,105.0
4132,72.0,0,192,5.0,105.0
4133,82.0,0,1536,1.0,112.0
4134,48.0,0,1536,7.0,112.0
4135,58.0,0,1536,3.0,92.0
4136,79.0,0,1536,1.0,92.0
4137,88.0,0,1536,0.0,112.0
4138,36.0,0,1536,8.0,112.0
4139,60.0,0,1536,6.0,112.0
4140,64.0,240,1536,2.0,112.0
4141,55.0,0,1536,3.0,112.0
4142,73.0,0,192,5.0,105.0
4143,85.0,240,192,4.0,105.0
4144,55.0,0,1872,2.0,92.0
4145,65.0,0,192,2.0,92.0
4146,65.0,0,192,5.0,105.0
4147,77.0,240,192,4.0,105.0
4148,89.0,0,192,0.0,92.0
4149,64.0,0,192,5.0,125.0
4150,76.0,240,192,4.0,125.0
4151,65.0,0,192,5.0,105.0
4152,77.0,240,192,4.0,105.0
4153,67.0,0,192,5.0,105.0
4154,79.0,240,192,4.0,105.0
4155,55.0,0,768,3.0,112.0
4156,60.0,0,768,6.0,112.0
4157,36.0,0,768,8.0,112.0
4158,48.0,0,768,7.0,112.0
4159,58.0,0,768,3.0,92.0
4160,69.0,240,192,5.0,105.0
4161,81.0,0,192,4.0,105.0
4162,82.0,0,192,4.0,105.0
4163,70.0,0,192,5.0,105.0
4164,84.0,240,192,4.0,105.0
4165,72.0,0,192,5.0,105.0
4166,82.0,0,1536,1.0,112.0
4167,64.0,0,1536,2.0,112.0
4168,79.0,0,1536,1.0,92.0
4169,88.0,0,1536,0.0,112.0
4170,85.0,0,192,4.0,105.0
4171,73.0,240,192,5.0,105.0
4172,55.0,0,768,3.0,112.0
4173,49.0,0,768,7.0,112.0
4174,61.0,240,768,6.0,112.0
4175,58.0,0,768,3.0,92.0
4176,37.0,0,768,8.0,112.0
4177,89.0,0,192,0.0,92.0
4178,77.0,0,192,4.0,105.0
4179,65.0,0,192,5.0,105.0
4180,65.0,240,192,2.0,92.0
4181,55.0,0,1872,2.0,92.0
4182,64.0,0,192,5.0,125.0
4183,76.0,0,192,4.0,125.0
4184,77.0,240,192,4.0,105.0
4185,65.0,0,192,5.0,105.0
4186,67.0,0,192,5.0,105.0
4187,79.0,240,192,4.0,105.0
4188,60.0,0,768,6.0,112.0
4189,36.0,240,768,8.0,112.0
4190,58.0,0,768,3.0,92.0
4191,55.0,0,768,3.0,112.0
4192,48.0,0,768,7.0,112.0
4193,69.0,0,192,5.0,105.0
4194,81.0,240,192,4.0,105.0
4195,70.0,0,192,5.0,105.0
4196,82.0,0,192,4.0,105.0
4197,72.0,0,192,5.0,105.0
4198,84.0,240,192,4.0,105.0
4199,79.0,0,1536,1.0,92.0
4200,82.0,0,1536,1.0,112.0
4201,64.0,0,1536,2.0,112.0
4202,88.0,0,1536,0.0,112.0
4203,73.0,240,192,5.0,105.0
4204,85.0,0,192,4.0,105.0
4205,37.0,0,768,8.0,112.0
4206,58.0,0,768,3.0,92.0
4207,49.0,0,768,7.0,112.0
4208,55.0,0,768,3.0,112.0
4209,61.0,240,768,6.0,112.0
4210,65.0,0,192,5.0,105.0
4211,89.0,240,192,0.0,92.0
4212,77.0,0,192,4.0,105.0
4213,65.0,0,192,2.0,92.0
4214,55.0,0,1872,2.0,92.0
4215,64.0,0,192,5.0,125.0
4216,76.0,0,192,4.0,125.0
4217,65.0,240,192,5.0,105.0
4218,77.0,0,192,4.0,105.0
4219,79.0,0,192,4.0,105.0
4220,67.0,240,192,5.0,105.0
4221,60.0,0,768,6.0,112.0
4222,48.0,0,768,7.0,112.0
4223,36.0,0,768,8.0,112.0
4224,81.0,0,192,4.0,105.0
4225,69.0,240,192,5.0,105.0
4226,70.0,0,192,5.0,105.0
4227,82.0,240,192,4.0,105.0
4228,84.0,240,192,4.0,105.0
4229,72.0,0,192,5.0,105.0
4230,79.0,0,1536,1.0,92.0
4231,82.0,240,1536,1.0,112.0
4232,88.0,0,1536,0.0,92.0
4233,55.0,0,1536,3.0,112.0
4234,58.0,0,1536,3.0,92.0
4235,64.0,0,1536,2.0,112.0
4236,55.0,0,1536,2.0,92.0
4237,85.0,0,192,4.0,105.0
4238,73.0,240,192,5.0,105.0
4239,48.0,0,192,7.0,92.0
4240,76.0,0,192,4.0,105.0
4241,60.0,0,192,6.0,105.0
4242,36.0,240,192,8.0,92.0
4243,64.0,0,192,5.0,105.0
4244,41.0,0,180,8.0,105.0
4245,53.0,0,180,7.0,105.0
4246,65.0,240,180,6.0,105.0
4247,65.0,0,180,5.0,105.0
4248,65.0,0,180,2.0,92.0
4249,53.0,0,180,2.0,92.0
4250,53.0,0,180,2.0,105.0
4251,53.0,0,180,7.0,105.0
4252,41.0,0,180,8.0,105.0
4253,65.0,0,180,6.0,105.0
4254,77.0,240,180,5.0,105.0
4255,53.0,0,180,7.0,105.0
4256,65.0,240,180,6.0,105.0
4257,41.0,0,180,8.0,105.0
4258,53.0,0,180,2.0,105.0
4259,77.0,0,180,5.0,105.0
4260,89.0,0,768,0.0,92.0
4261,77.0,0,768,4.0,116.0
4262,65.0,0,180,6.0,105.0
4263,77.0,240,180,5.0,105.0
4264,53.0,0,180,2.0,105.0
4265,53.0,0,180,7.0,105.0
4266,41.0,0,180,8.0,105.0
4267,75.0,0,180,5.0,105.0
4268,53.0,0,180,7.0,105.0
4269,69.0,0,180,6.0,105.0
4270,53.0,0,180,2.0,105.0
4271,41.0,240,180,8.0,105.0
4272,84.0,0,288,4.0,116.0
4273,75.0,0,180,5.0,105.0
4274,41.0,0,180,8.0,105.0
4275,69.0,240,180,6.0,105.0
4276,53.0,0,180,2.0,105.0
4277,53.0,0,180,7.0,105.0
4278,81.0,0,1536,1.0,92.0
4279,65.0,0,1536,3.0,92.0
4280,53.0,0,180,7.0,105.0
4281,41.0,240,180,8.0,105.0
4282,72.0,0,180,6.0,105.0
4283,53.0,0,180,2.0,105.0
4284,75.0,0,180,5.0,105.0
4285,81.0,0,288,4.0,116.0
4286,87.0,0,768,0.0,105.0
4287,72.0,0,180,6.0,105.0
4288,53.0,0,180,2.0,105.0
4289,41.0,240,180,8.0,105.0
4290,53.0,0,180,7.0,105.0
4291,75.0,0,180,5.0,105.0
4292,53.0,0,180,2.0,105.0
4293,70.0,0,180,6.0,105.0
4294,73.0,0,180,5.0,105.0
4295,53.0,0,180,7.0,105.0
4296,41.0,0,180,8.0,105.0
4297,53.0,0,180,2.0,105.0
4298,53.0,240,180,7.0,105.0
4299,70.0,0,180,6.0,105.0
4300,73.0,0,180,5.0,105.0
4301,41.0,0,180,8.0,105.0
4302,41.0,0,180,8.0,105.0
4303,53.0,0,180,7.0,105.0
4304,70.0,240,180,6.0,105.0
4305,73.0,0,180,5.0,105.0
4306,53.0,0,180,2.0,105.0
4307,82.0,0,768,1.0,105.0
4308,65.0,240,768,3.0,105.0
4309,85.0,0,768,0.0,105.0
4310,85.0,0,768,4.0,116.0
4311,77.0,0,2688,1.0,92.0
4312,70.0,0,180,6.0,105.0
4313,41.0,0,180,8.0,105.0
4314,53.0,0,180,2.0,105.0
4315,73.0,240,180,5.0,105.0
4316,53.0,0,180,7.0,105.0
4317,73.0,0,180,5.0,105.0
4318,41.0,0,180,8.0,105.0
4319,70.0,0,180,6.0,105.0
4320,53.0,0,180,7.0,105.0
4321,53.0,0,180,2.0,105.0
4322,76.0,0,288,4.0,116.0
4323,70.0,0,180,6.0,105.0
4324,53.0,0,180,7.0,105.0
4325,41.0,0,180,8.0,105.0
4326,53.0,240,180,2.0,105.0
4327,73.0,0,180,5.0,105.0
4328,53.0,0,180,2.0,105.0
4329,41.0,0,180,8.0,105.0
4330,73.0,0,180,5.0,105.0
4331,53.0,0,180,7.0,105.0
4332,70.0,240,180,6.0,105.0
4333,65.0,240,768,3.0,105.0
4334,76.0,0,768,1.0,105.0
4335,79.0,0,768,1.0,105.0
4336,79.0,0,288,4.0,116.0
4337,88.0,0,768,0.0,105.0
4338,53.0,0,180,2.0,105.0
4339,41.0,240,180,8.0,105.0
4340,73.0,0,180,5.0,105.0
4341,53.0,0,180,7.0,105.0
4342,70.0,0,180,6.0,105.0
4343,53.0,0,180,7.0,105.0
4344,69.0,0,180,6.0,105.0
4345,72.0,0,180,5.0,105.0
4346,41.0,0,180,8.0,105.0
4347,53.0,0,180,2.0,105.0
4348,72.0,0,180,5.0,105.0
4349,53.0,0,180,2.0,105.0
4350,69.0,240,180,6.0,105.0
4351,53.0,0,180,7.0,105.0
4352,41.0,0,180,8.0,105.0
4353,69.0,240,180,6.0,105.0
4354,53.0,0,180,7.0,105.0
4355,41.0,0,180,8.0,105.0
4356,72.0,0,180,5.0,105.0
4357,53.0,0,180,2.0,105.0
4358,89.0,0,768,0.0,105.0
4359,77.0,0,768,4.0,116.0
4360,65.0,0,768,3.0,105.0
4361,69.0,0,180,6.0,105.0
4362,72.0,240,180,5.0,105.0
4363,41.0,0,180,8.0,105.0
4364,53.0,0,180,2.0,105.0
4365,53.0,0,180,7.0,105.0
4366,69.0,0,180,6.0,105.0
4367,53.0,0,180,2.0,105.0
4368,75.0,0,180,5.0,105.0
4369,41.0,240,180,8.0,105.0
4370,53.0,0,180,7.0,105.0
4371,84.0,0,192,4.0,116.0
4372,65.0,0,384,3.0,105.0
4373,41.0,0,180,8.0,105.0
4374,72.0,240,180,6.0,105.0
4375,75.0,0,180,5.0,105.0
4376,53.0,0,180,7.0,105.0
4377,53.0,0,180,2.0,105.0
4378,81.0,0,192,4.0,116.0
4379,81.0,240,1536,1.0,105.0
4380,41.0,0,180,8.0,105.0
4381,53.0,0,180,2.0,105.0
4382,75.0,240,180,5.0,105.0
4383,53.0,0,180,7.0,105.0
4384,69.0,0,180,6.0,105.0
4385,84.0,0,192,4.0,116.0
4386,87.0,0,768,0.0,105.0
4387,65.0,0,384,3.0,105.0
4388,41.0,0,180,8.0,105.0
4389,75.0,0,180,5.0,105.0
4390,53.0,0,180,2.0,105.0
4391,72.0,240,180,6.0,105.0
4392,53.0,0,180,7.0,105.0
4393,81.0,0,192,4.0,116.0
4394,73.0,240,180,5.0,105.0
4395,53.0,0,180,2.0,105.0
4396,70.0,0,180,6.0,105.0
4397,53.0,0,180,7.0,105.0
4398,41.0,0,180,8.0,105.0
4399,85.0,0,192,4.0,116.0
4400,65.0,0,384,3.0,105.0
4401,73.0,0,180,5.0,105.0
4402,41.0,0,180,8.0,105.0
4403,53.0,240,180,7.0,105.0
4404,53.0,0,180,2.0,105.0
4405,70.0,0,180,6.0,105.0
4406,82.0,0,192,4.0,116.0
4407,70.0,0,180,6.0,105.0
4408,53.0,0,180,7.0,105.0
4409,53.0,0,180,2.0,105.0
4410,73.0,240,180,5.0,105.0
4411,41.0,0,180,8.0,105.0
4412,85.0,0,192,4.0,116.0
4413,82.0,0,768,1.0,105.0
4414,77.0,0,2688,1.0,105.0
4415,85.0,0,768,0.0,105.0
4416,65.0,0,384,3.0,105.0
4417,73.0,0,180,5.0,105.0
4418,70.0,0,180,6.0,105.0
4419,53.0,0,180,7.0,105.0
4420,41.0,0,180,8.0,105.0
4421,53.0,0,180,2.0,105.0
4422,82.0,240,192,4.0,116.0
4423,53.0,0,180,2.0,105.0
4424,67.0,0,180,6.0,105.0
4425,53.0,0,180,7.0,105.0
4426,41.0,0,180,8.0,105.0
4427,70.0,0,180,5.0,105.0
4428,76.0,0,192,4.0,116.0
4429,65.0,0,384,3.0,105.0
4430,53.0,0,180,2.0,105.0
4431,41.0,0,180,8.0,105.0
4432,53.0,240,180,7.0,105.0
4433,64.0,0,180,6.0,105.0
4434,70.0,0,180,5.0,105.0
4435,79.0,0,192,4.0,116.0
4436,67.0,0,180,6.0,105.0
4437,53.0,0,180,2.0,105.0
4438,41.0,240,180,8.0,105.0
4439,53.0,0,180,7.0,105.0
4440,70.0,0,180,5.0,105.0
4441,76.0,0,192,4.0,116.0
4442,76.0,0,768,1.0,105.0
4443,79.0,0,768,1.0,105.0
4444,88.0,240,768,0.0,105.0
4445,53.0,240,180,2.0,105.0
4446,41.0,0,180,8.0,105.0
4447,53.0,0,180,7.0,105.0
4448,64.0,0,180,6.0,105.0
4449,70.0,0,180,5.0,105.0
4450,79.0,0,192,4.0,116.0
4451,77.0,0,384,4.0,116.0
4452,69.0,0,384,5.0,105.0
4453,41.0,0,384,8.0,105.0
4454,53.0,0,384,7.0,105.0
4455,65.0,0,384,6.0,105.0
4456,53.0,240,384,2.0,105.0
4457,77.0,0,384,1.0,105.0
4458,65.0,0,384,3.0,105.0
4459,89.0,0,384,0.0,105.0
4460,81.0,0,384,1.0,105.0
4461,41.0,0,384,2.0,92.0
4462,41.0,0,384,7.0,92.0
4463,72.0,0,384,1.0,92.0
4464,65.0,0,384,5.0,92.0
4465,57.0,0,384,5.0,92.0
4466,57.0,0,384,4.0,92.0
4467,53.0,960,384,6.0,92.0
4468,69.0,0,384,1.0,92.0
4469,77.0,0,384,0.0,92.0
4470,65.0,0,384,4.0,92.0
4471,29.0,0,384,8.0,92.0
4472,65.0,0,384,3.0,92.0
4473,62.0,2880,1440,6.0,58.0
4474,77.0,0,1440,4.0,70.0
4475,65.0,0,1440,5.0,58.0
4476,62.0,0,1440,7.0,58.0
4477,50.0,0,1440,8.0,58.0
4478,60.0,1440,480,7.0,58.0
4479,76.0,0,480,4.0,70.0
4480,60.0,0,480,6.0,58.0
4481,64.0,0,480,5.0,58.0
4482,48.0,0,480,8.0,58.0
4483,63.0,0,384,5.0,58.0
4484,57.0,480,384,6.0,58.0
4485,41.0,0,384,8.0,58.0
4486,53.0,0,384,7.0,58.0
4487,75.0,0,384,4.0,70.0
4488,63.0,0,1440,2.0,70.0
4489,75.0,0,1440,1.0,70.0
4490,65.0,1440,120,2.0,70.0
4491,77.0,0,120,1.0,70.0
4492,75.0,0,120,1.0,70.0
4493,63.0,120,120,2.0,70.0
4494,74.0,120,120,1.0,70.0
4495,62.0,0,120,2.0,70.0
4496,72.0,120,120,1.0,70.0
4497,60.0,0,120,2.0,70.0
4498,58.0,0,384,2.0,70.0
4499,70.0,120,384,1.0,70.0
4500,58.0,0,312,5.0,58.0
4501,55.0,0,312,7.0,58.0
4502,70.0,0,312,4.0,70.0
4503,62.0,0,312,6.0,58.0
4504,43.0,480,312,8.0,58.0
4505,62.0,0,480,6.0,58.0
4506,55.0,0,480,7.0,58.0
4507,58.0,0,480,5.0,58.0
4508,70.0,0,480,4.0,70.0
4509,43.0,480,480,8.0,58.0
4510,39.0,0,384,8.0,58.0
4511,60.0,0,384,5.0,58.0
4512,67.0,0,384,6.0,58.0
4513,72.0,0,384,4.0,70.0
4514,51.0,480,384,7.0,58.0
4515,58.0,480,720,5.0,58.0
4516,74.0,0,720,4.0,70.0
4517,65.0,0,768,6.0,58.0
4518,53.0,0,768,7.0,58.0
4519,41.0,0,768,8.0,58.0
4520,60.0,720,240,5.0,58.0
4521,75.0,0,240,4.0,70.0
4522,72.0,240,384,4.0,70.0
4523,57.0,0,384,5.0,58.0
4524,79.0,0,1440,4.0,70.0
4525,55.0,0,1440,6.0,58.0
4526,67.0,0,1440,5.0,58.0
4527,51.0,960,1440,7.0,58.0
4528,39.0,0,1440,8.0,58.0
4529,38.0,0,480,8.0,58.0
4530,57.0,0,480,6.0,58.0
4531,78.0,1440,480,4.0,70.0
4532,66.0,0,480,5.0,58.0
4533,50.0,0,480,7.0,58.0
4534,59.0,480,480,6.0,58.0
4535,43.0,0,480,8.0,58.0
4536,55.0,0,480,7.0,58.0
4537,77.0,0,480,4.0,70.0
4538,65.0,0,480,5.0,58.0
4539,76.0,0,480,4.0,70.0
4540,64.0,0,480,5.0,58.0
4541,36.0,0,480,8.0,58.0
4542,60.0,480,480,6.0,58.0
4543,48.0,0,480,7.0,58.0
4544,41.0,0,480,8.0,58.0
4545,75.0,480,480,4.0,70.0
4546,57.0,0,480,6.0,58.0
4547,63.0,0,480,5.0,58.0
4548,53.0,0,480,7.0,58.0
4549,74.0,0,384,4.0,70.0
4550,58.0,0,384,6.0,58.0
4551,46.0,0,384,7.0,58.0
4552,62.0,0,384,5.0,58.0
4553,34.0,480,384,8.0,58.0
4554,51.0,0,384,7.0,58.0
4555,55.0,0,384,6.0,58.0
4556,39.0,480,384,8.0,58.0
4557,72.0,0,480,4.0,70.0
4558,60.0,0,480,5.0,58.0
4559,75.0,480,768,4.0,70.0
4560,63.0,0,768,5.0,58.0
4561,48.0,480,384,6.0,58.0
4562,53.0,0,384,7.0,58.0
4563,41.0,0,384,8.0,58.0
4564,69.0,480,384,4.0,70.0
4565,57.0,0,384,5.0,58.0
4566,58.0,0,240,2.0,70.0
4567,70.0,480,240,1.0,70.0
4568,58.0,0,384,5.0,58.0
4569,70.0,0,384,4.0,70.0
4570,46.0,0,384,7.0,58.0
4571,34.0,0,384,8.0,58.0
4572,50.0,0,384,6.0,58.0
4573,69.0,0,240,1.0,70.0
4574,57.0,240,240,2.0,70.0
4575,60.0,0,240,2.0,70.0
4576,72.0,240,240,1.0,70.0
4577,58.0,0,240,2.0,70.0
4578,70.0,240,240,1.0,70.0
4579,62.0,240,240,2.0,70.0
4580,74.0,0,240,1.0,70.0
4581,60.0,240,240,2.0,70.0
4582,72.0,0,240,1.0,70.0
4583,75.0,0,240,1.0,70.0
4584,63.0,240,240,2.0,70.0
4585,74.0,240,192,1.0,70.0
4586,62.0,0,192,2.0,70.0
4587,89.0,0,1440,0.0,70.0
4588,65.0,0,1440,2.0,70.0
4589,77.0,0,1440,1.0,70.0
4590,62.0,240,1440,2.0,70.0
4591,76.0,0,480,1.0,70.0
4592,64.0,0,480,2.0,70.0
4593,88.0,1440,480,0.0,70.0
4594,60.0,0,480,2.0,70.0
4595,75.0,480,384,1.0,70.0
4596,53.0,0,384,2.0,70.0
4597,63.0,0,384,2.0,70.0
4598,87.0,0,384,0.0,70.0
4599,63.0,0,1440,5.0,58.0
4600,75.0,0,1440,4.0,58.0
4601,77.0,1440,120,4.0,58.0
4602,65.0,0,120,5.0,58.0
4603,75.0,120,120,4.0,58.0
4604,63.0,0,120,5.0,58.0
4605,62.0,120,120,5.0,58.0
4606,74.0,0,120,4.0,58.0
4607,60.0,120,120,5.0,58.0
4608,72.0,0,120,4.0,58.0
4609,58.0,120,384,5.0,58.0
4610,70.0,0,384,4.0,58.0
4611,70.0,480,312,1.0,70.0
4612,82.0,0,312,0.0,70.0
4613,62.0,0,312,2.0,70.0
4614,55.0,0,312,2.0,70.0
4615,55.0,480,480,2.0,70.0
4616,82.0,0,480,0.0,70.0
4617,62.0,0,480,2.0,70.0
4618,72.0,0,384,1.0,70.0
4619,84.0,0,384,0.0,70.0
4620,70.0,0,864,1.0,70.0
4621,67.0,480,384,2.0,70.0
4622,52.0,0,384,2.0,70.0
4623,74.0,0,720,1.0,70.0
4624,70.0,480,720,1.0,70.0
4625,86.0,0,720,0.0,70.0
4626,65.0,0,960,2.0,70.0
4627,53.0,0,960,2.0,70.0
4628,87.0,720,240,0.0,70.0
4629,75.0,0,240,1.0,70.0
4630,72.0,0,240,1.0,70.0
4631,69.0,240,384,1.0,70.0
4632,84.0,0,384,0.0,70.0
4633,72.0,0,384,1.0,70.0
4634,79.0,0,1152,1.0,70.0
4635,63.0,0,1440,7.0,70.0
4636,51.0,0,1440,8.0,58.0
4637,67.0,960,1440,4.0,70.0
4638,55.0,0,1440,6.0,70.0
4639,78.0,0,384,1.0,70.0
4640,62.0,1440,480,7.0,70.0
4641,60.0,0,1920,5.0,70.0
4642,50.0,0,480,8.0,70.0
4643,66.0,0,480,4.0,70.0
4644,57.0,0,480,6.0,70.0
4645,77.0,480,384,1.0,70.0
4646,55.0,0,480,7.0,70.0
4647,65.0,0,480,4.0,70.0
4648,59.0,0,480,5.0,70.0
4649,43.0,0,480,8.0,70.0
4650,76.0,0,384,1.0,70.0
4651,58.0,0,480,5.0,70.0
4652,55.0,0,960,6.0,58.0
4653,64.0,480,480,4.0,70.0
4654,48.0,0,480,8.0,70.0
4655,60.0,0,480,7.0,70.0
4656,75.0,480,384,1.0,70.0
4657,57.0,0,480,5.0,70.0
4658,41.0,0,480,8.0,70.0
4659,53.0,0,480,7.0,70.0
4660,63.0,0,480,4.0,70.0
4661,74.0,480,384,1.0,70.0
4662,58.0,0,384,7.0,70.0
4663,56.0,0,384,5.0,70.0
4664,62.0,0,384,4.0,70.0
4665,46.0,0,384,8.0,70.0
4666,53.0,0,960,6.0,58.0
4667,58.0,0,240,5.0,58.0
4668,58.0,480,240,6.0,58.0
4669,55.0,240,240,5.0,58.0
4670,55.0,0,240,6.0,58.0
4671,58.0,0,240,6.0,58.0
4672,58.0,0,240,5.0,58.0
4673,55.0,240,240,6.0,58.0
4674,55.0,0,240,5.0,58.0
4675,58.0,0,240,5.0,58.0
4676,58.0,240,240,6.0,58.0
4677,55.0,240,240,5.0,58.0
4678,55.0,0,240,6.0,58.0
4679,73.0,0,1440,1.0,58.0
4680,79.0,240,960,0.0,70.0
4681,70.0,0,1440,1.0,58.0
4682,61.0,0,1440,4.0,58.0
4683,61.0,0,960,2.0,58.0
4684,58.0,0,960,2.0,58.0
4685,56.0,0,240,5.0,58.0
4686,56.0,0,240,6.0,58.0
4687,56.0,0,384,2.0,58.0
4688,60.0,0,384,2.0,58.0
4689,68.0,0,384,1.0,58.0
4690,80.0,0,384,0.0,58.0
4691,60.0,0,384,4.0,58.0
4692,72.0,240,384,1.0,58.0
4693,60.0,240,192,5.0,58.0
4694,60.0,0,192,6.0,58.0
4695,58.0,0,240,5.0,58.0
4696,58.0,0,240,6.0,58.0
4697,55.0,240,240,6.0,58.0
4698,55.0,0,240,5.0,58.0
4699,58.0,0,240,5.0,58.0
4700,58.0,0,240,6.0,58.0
4701,55.0,240,240,5.0,58.0
4702,55.0,0,240,6.0,58.0
4703,58.0,240,240,6.0,58.0
4704,58.0,0,240,5.0,58.0
4705,61.0,0,960,2.0,58.0
4706,70.0,0,1440,1.0,58.0
4707,73.0,240,1440,1.0,58.0
4708,55.0,0,240,5.0,58.0
4709,58.0,0,960,2.0,58.0
4710,79.0,240,960,0.0,58.0
4711,61.0,0,1440,4.0,58.0
4712,55.0,240,240,6.0,58.0
4713,56.0,0,240,5.0,58.0
4714,56.0,0,240,6.0,58.0
4715,68.0,240,384,1.0,58.0
4716,60.0,0,384,4.0,58.0
4717,72.0,0,384,1.0,58.0
4718,80.0,0,384,0.0,58.0
4719,56.0,0,384,2.0,58.0
4720,60.0,0,384,2.0,58.0
4721,60.0,240,192,5.0,58.0
4722,60.0,0,192,6.0,58.0
4723,58.0,0,240,5.0,58.0
4724,58.0,0,240,6.0,58.0
4725,55.0,0,240,6.0,58.0
4726,55.0,240,240,5.0,58.0
4727,58.0,0,240,6.0,58.0
4728,58.0,240,240,5.0,58.0
4729,55.0,240,240,5.0,58.0
4730,55.0,0,240,6.0,58.0
4731,58.0,240,240,6.0,58.0
4732,58.0,0,240,5.0,58.0
4733,61.0,0,960,2.0,58.0
4734,58.0,0,960,2.0,58.0
4735,55.0,240,240,5.0,58.0
4736,70.0,240,1440,1.0,58.0
4737,73.0,0,1440,1.0,58.0
4738,61.0,0,1440,4.0,58.0
4739,79.0,0,960,0.0,58.0
4740,55.0,0,240,6.0,58.0
4741,56.0,0,240,5.0,58.0
4742,56.0,0,240,6.0,58.0
4743,60.0,0,384,2.0,58.0
4744,60.0,0,384,4.0,58.0
4745,56.0,240,384,2.0,58.0
4746,80.0,0,384,0.0,58.0
4747,72.0,0,384,1.0,58.0
4748,68.0,0,384,1.0,58.0
4749,60.0,0,192,6.0,58.0
4750,60.0,240,192,5.0,58.0
4751,58.0,0,240,5.0,58.0
4752,58.0,0,240,6.0,58.0
4753,55.0,240,240,6.0,58.0
4754,55.0,0,240,5.0,58.0
4755,58.0,240,240,6.0,58.0
4756,58.0,0,240,5.0,58.0
4757,55.0,0,240,5.0,58.0
4758,55.0,240,240,6.0,58.0
4759,58.0,0,240,5.0,58.0
4760,58.0,240,240,6.0,58.0
4761,79.0,0,960,0.0,58.0
4762,55.0,0,240,6.0,58.0
4763,61.0,0,960,2.0,58.0
4764,70.0,0,1440,1.0,58.0
4765,73.0,240,1440,1.0,58.0
4766,61.0,0,1440,4.0,58.0
4767,58.0,0,960,2.0,58.0
4768,55.0,240,240,5.0,58.0
4769,51.0,0,7296,7.0,58.0
4770,39.0,0,7296,8.0,58.0
4771,56.0,240,240,6.0,58.0
4772,56.0,0,240,5.0,58.0
4773,60.0,0,384,4.0,58.0
4774,80.0,0,384,0.0,58.0
4775,56.0,0,384,2.0,58.0
4776,60.0,0,384,2.0,58.0
4777,72.0,0,384,1.0,58.0
4778,68.0,0,384,1.0,58.0
4779,60.0,240,192,6.0,58.0
4780,60.0,0,192,5.0,58.0
4781,51.0,240,192,2.0,58.0
4782,58.0,0,216,5.0,58.0
4783,51.0,0,216,7.0,58.0
4784,55.0,0,216,6.0,58.0
4785,61.0,0,216,4.0,58.0
4786,39.0,0,216,8.0,58.0
4787,51.0,240,192,2.0,73.0
4788,55.0,0,216,6.0,70.0
4789,51.0,0,216,7.0,73.0
4790,73.0,0,216,4.0,70.0
4791,39.0,0,216,8.0,72.0
4792,70.0,0,216,5.0,70.0
4793,51.0,0,192,2.0,76.0
4794,70.0,0,216,5.0,73.0
4795,51.0,240,216,7.0,76.0
4796,55.0,0,216,6.0,72.0
4797,73.0,0,216,4.0,72.0
4798,39.0,0,216,8.0,75.0
4799,51.0,0,192,2.0,79.0
4800,55.0,0,216,6.0,75.0
4801,51.0,0,216,7.0,79.0
4802,70.0,0,216,5.0,77.0
4803,39.0,0,216,8.0,77.0
4804,73.0,240,216,4.0,75.0
4805,51.0,0,192,2.0,82.0
4806,70.0,0,216,5.0,80.0
4807,73.0,240,216,4.0,78.0
4808,55.0,0,216,6.0,78.0
4809,39.0,0,216,8.0,80.0
4810,51.0,0,216,7.0,83.0
4811,51.0,0,192,2.0,85.0
4812,73.0,0,216,4.0,80.0
4813,39.0,0,216,8.0,82.0
4814,70.0,0,216,5.0,84.0
4815,51.0,0,216,7.0,86.0
4816,55.0,240,216,6.0,80.0
4817,82.0,0,1536,0.0,58.0
4818,79.0,0,1536,1.0,58.0
4819,55.0,0,1536,3.0,70.0
4820,58.0,0,1536,3.0,70.0
4821,51.0,240,192,2.0,88.0
4822,39.0,0,216,8.0,85.0
4823,51.0,0,216,7.0,89.0
4824,73.0,0,216,4.0,83.0
4825,55.0,0,216,6.0,83.0
4826,70.0,0,216,5.0,87.0
4827,51.0,240,192,2.0,92.0
4828,51.0,0,216,7.0,92.0
4829,70.0,0,216,5.0,91.0
4830,55.0,0,216,6.0,86.0
4831,73.0,0,216,4.0,86.0
4832,39.0,0,216,8.0,88.0
4833,52.0,0,192,2.0,95.0
4834,73.0,0,216,4.0,88.0
4835,40.0,0,216,8.0,90.0
4836,52.0,0,216,7.0,96.0
4837,70.0,0,216,5.0,94.0
4838,55.0,0,216,6.0,88.0
4839,52.0,0,192,2.0,98.0
4840,67.0,0,216,6.0,91.0
4841,85.0,0,216,4.0,91.0
4842,52.0,0,216,7.0,99.0
4843,40.0,0,216,8.0,93.0
4844,82.0,240,216,5.0,98.0
4845,52.0,0,192,2.0,101.0
4846,82.0,0,216,5.0,101.0
4847,67.0,0,216,6.0,94.0
4848,85.0,0,216,4.0,94.0
4849,40.0,0,216,8.0,95.0
4850,52.0,240,216,7.0,102.0
4851,52.0,240,192,2.0,104.0
4852,67.0,0,216,6.0,96.0
4853,82.0,0,216,5.0,105.0
4854,40.0,0,216,8.0,98.0
4855,52.0,0,216,7.0,106.0
4856,85.0,0,216,4.0,96.0
4857,52.0,0,192,2.0,107.0
4858,40.0,0,216,8.0,100.0
4859,67.0,0,216,6.0,99.0
4860,85.0,0,216,4.0,99.0
4861,52.0,0,216,7.0,109.0
4862,82.0,240,216,5.0,108.0
4863,52.0,0,192,2.0,109.0
4864,85.0,240,216,4.0,102.0
4865,67.0,0,216,6.0,102.0
4866,40.0,0,216,8.0,103.0
4867,52.0,0,216,7.0,109.0
4868,82.0,0,216,5.0,109.0
4869,73.0,0,3456,1.0,58.0
4870,82.0,0,1536,1.0,70.0
4871,67.0,0,1536,3.0,92.0
4872,91.0,240,1536,0.0,70.0
4873,58.0,0,1536,3.0,92.0
4874,52.0,0,192,2.0,109.0
4875,40.0,240,216,8.0,106.0
4876,67.0,0,216,6.0,105.0
4877,82.0,0,216,5.0,109.0
4878,52.0,0,216,7.0,109.0
4879,85.0,0,216,4.0,105.0
4880,52.0,0,192,2.0,109.0
4881,85.0,0,216,4.0,107.0
4882,40.0,0,216,8.0,108.0
4883,52.0,240,216,7.0,109.0
4884,82.0,0,216,5.0,109.0
4885,67.0,0,216,6.0,107.0
4886,41.0,0,192,8.0,109.0
4887,65.0,0,192,6.0,108.0
4888,53.0,0,192,7.0,109.0
4889,53.0,240,192,2.0,109.0
4890,82.0,0,384,5.0,105.0
4891,41.0,0,192,8.0,105.0
4892,53.0,0,192,2.0,105.0
4893,65.0,240,192,6.0,105.0
4894,53.0,0,192,7.0,105.0
4895,65.0,0,192,6.0,105.0
4896,53.0,0,192,7.0,105.0
4897,41.0,0,192,8.0,105.0
4898,53.0,240,192,2.0,105.0
4899,65.0,0,768,3.0,92.0
4900,53.0,0,192,7.0,105.0
4901,41.0,0,192,8.0,105.0
4902,53.0,0,192,2.0,105.0
4903,65.0,240,192,6.0,105.0
4904,65.0,0,192,6.0,105.0
4905,53.0,240,192,2.0,105.0
4906,53.0,0,192,7.0,105.0
4907,41.0,0,192,8.0,105.0
4908,77.0,0,768,5.0,105.0
4909,74.0,0,768,5.0,105.0
4910,53.0,0,192,7.0,105.0
4911,53.0,0,192,2.0,105.0
4912,65.0,240,192,6.0,105.0
4913,41.0,0,192,8.0,105.0
4914,65.0,0,648,3.0,105.0
4915,53.0,0,192,7.0,105.0
4916,53.0,0,192,2.0,105.0
4917,41.0,0,192,8.0,105.0
4918,65.0,0,192,6.0,105.0
4919,89.0,0,1824,0.0,92.0
4920,82.0,0,1824,1.0,92.0
4921,65.0,0,144,3.0,105.0
4922,74.0,0,1824,1.0,92.0
4923,86.0,0,1824,4.0,105.0
4924,53.0,0,192,2.0,105.0
4925,41.0,0,192,8.0,105.0
4926,65.0,240,192,6.0,105.0
4927,53.0,0,192,7.0,105.0
4928,74.0,0,480,5.0,105.0
4929,82.0,0,120,4.0,105.0
4930,86.0,0,120,0.0,105.0
4931,82.0,0,120,1.0,105.0
4932,53.0,0,192,6.0,105.0
4933,41.0,240,192,2.0,105.0
4934,41.0,0,192,7.0,105.0
4935,29.0,0,192,8.0,105.0
4936,81.0,120,120,4.0,105.0
4937,84.0,0,120,0.0,105.0
4938,81.0,0,120,1.0,105.0
4939,82.0,120,120,4.0,105.0
4940,86.0,0,120,0.0,105.0
4941,82.0,0,120,1.0,105.0
4942,75.0,0,384,5.0,105.0
4943,77.0,240,864,5.0,105.0
4944,41.0,0,192,2.0,105.0
4945,53.0,0,192,6.0,105.0
4946,41.0,0,192,7.0,105.0
4947,29.0,0,192,8.0,105.0
4948,84.0,120,120,0.0,105.0
4949,81.0,0,120,4.0,105.0
4950,81.0,0,120,1.0,105.0
4951,86.0,0,120,0.0,105.0
4952,82.0,0,120,1.0,105.0
4953,82.0,0,120,4.0,105.0
4954,29.0,0,192,8.0,105.0
4955,53.0,0,192,6.0,105.0
4956,41.0,0,192,7.0,105.0
4957,41.0,0,192,2.0,105.0
4958,81.0,120,120,1.0,105.0
4959,84.0,0,120,0.0,105.0
4960,81.0,0,120,4.0,105.0
4961,65.0,0,768,3.0,105.0
4962,82.0,0,120,1.0,105.0
4963,82.0,0,120,4.0,105.0
4964,86.0,0,120,0.0,105.0
4965,29.0,120,192,8.0,105.0
4966,53.0,0,192,6.0,105.0
4967,41.0,0,192,7.0,105.0
4968,41.0,0,192,2.0,105.0
4969,84.0,0,120,0.0,105.0
4970,81.0,0,120,4.0,105.0
4971,81.0,120,120,1.0,105.0
4972,82.0,0,120,4.0,105.0
4973,82.0,0,120,1.0,105.0
4974,86.0,120,120,0.0,105.0
4975,41.0,0,192,7.0,105.0
4976,41.0,0,192,2.0,105.0
4977,53.0,0,192,6.0,105.0
4978,29.0,0,192,8.0,105.0
4979,84.0,0,120,0.0,105.0
4980,81.0,0,120,1.0,105.0
4981,81.0,120,120,4.0,105.0
4982,77.0,0,768,5.0,105.0
4983,75.0,120,768,5.0,105.0
4984,86.0,0,120,0.0,105.0
4985,82.0,0,120,4.0,105.0
4986,82.0,0,120,1.0,105.0
4987,41.0,0,192,2.0,105.0
4988,29.0,120,192,8.0,105.0
4989,41.0,0,192,7.0,105.0
4990,53.0,0,192,6.0,105.0
4991,81.0,0,120,4.0,105.0
4992,81.0,120,120,1.0,105.0
4993,84.0,0,120,0.0,105.0
4994,86.0,0,120,0.0,105.0
4995,82.0,0,120,4.0,105.0
4996,82.0,120,120,1.0,105.0
4997,41.0,0,192,7.0,105.0
4998,53.0,0,192,6.0,105.0
4999,41.0,0,192,2.0,105.0
5000,29.0,0,192,8.0,105.0
5001,81.0,0,120,4.0,105.0
5002,81.0,0,120,1.0,105.0
5003,84.0,120,120,0.0,105.0
5004,65.0,0,768,3.0,105.0
5005,79.0,0,120,4.0,105.0
5006,82.0,0,120,0.0,105.0
5007,79.0,0,120,1.0,105.0
5008,77.0,0,384,5.0,105.0
5009,75.0,0,384,5.0,105.0
5010,41.0,0,192,2.0,105.0
5011,53.0,0,192,6.0,105.0
5012,41.0,0,192,7.0,105.0
5013,29.0,120,192,8.0,105.0
5014,81.0,0,120,1.0,105.0
5015,75.0,0,1920,1.0,105.0
5016,84.0,120,120,0.0,105.0
5017,81.0,0,120,4.0,105.0
5018,34.0,0,384,8.0,105.0
5019,58.0,120,384,3.0,105.0
5020,58.0,0,384,6.0,92.0
5021,82.0,0,384,1.0,105.0
5022,74.0,0,384,1.0,105.0
5023,46.0,0,384,2.0,92.0
5024,46.0,0,384,7.0,92.0
5025,82.0,0,384,4.0,92.0
5026,82.0,0,384,0.0,92.0
5027,74.0,0,384,5.0,92.0
5028,77.0,0,384,5.0,92.0
5029,62.0,0,192,5.0,125.0
5030,62.0,0,192,4.0,125.0
5031,62.0,240,192,5.0,105.0
5032,62.0,0,192,4.0,105.0
5033,62.0,0,192,4.0,105.0
5034,62.0,240,192,5.0,105.0
5035,50.0,0,768,2.0,125.0
5036,50.0,0,768,6.0,125.0
5037,50.0,0,768,7.0,125.0
5038,38.0,480,768,8.0,112.0
5039,62.0,240,192,5.0,105.0
5040,62.0,0,192,4.0,105.0
5041,63.0,0,192,4.0,105.0
5042,63.0,0,192,5.0,105.0
5043,51.0,0,288,7.0,105.0
5044,51.0,240,288,6.0,105.0
5045,39.0,0,288,8.0,105.0
5046,51.0,0,288,2.0,105.0
5047,63.0,240,192,4.0,105.0
5048,63.0,0,192,5.0,105.0
5049,64.0,240,192,5.0,105.0
5050,64.0,0,192,4.0,105.0
5051,52.0,0,288,6.0,105.0
5052,40.0,0,288,8.0,105.0
5053,52.0,0,288,2.0,105.0
5054,52.0,0,288,7.0,105.0
5055,64.0,240,192,4.0,105.0
5056,64.0,0,192,5.0,105.0
5057,65.0,0,192,4.0,105.0
5058,65.0,0,192,5.0,105.0
5059,41.0,0,288,8.0,105.0
5060,53.0,240,288,2.0,105.0
5061,53.0,0,288,7.0,105.0
5062,53.0,0,288,6.0,105.0
5063,65.0,240,192,4.0,105.0
5064,65.0,0,192,5.0,105.0
5065,66.0,0,192,5.0,105.0
5066,66.0,0,192,4.0,105.0
5067,54.0,0,288,7.0,105.0
5068,54.0,0,288,6.0,105.0
5069,42.0,240,288,8.0,105.0
5070,54.0,0,288,2.0,105.0
5071,66.0,0,192,4.0,105.0
5072,66.0,240,192,5.0,105.0
5073,67.0,0,192,5.0,105.0
5074,67.0,240,192,4.0,105.0
5075,55.0,0,288,2.0,105.0
5076,55.0,0,288,6.0,105.0
5077,43.0,0,288,8.0,105.0
5078,55.0,0,288,7.0,105.0
5079,67.0,240,192,5.0,105.0
5080,67.0,0,192,4.0,105.0
5081,74.0,0,384,1.0,105.0
5082,56.0,0,384,7.0,105.0
5083,68.0,240,384,5.0,105.0
5084,70.0,0,384,3.0,105.0
5085,77.0,0,384,1.0,92.0
5086,44.0,0,384,8.0,105.0
5087,68.0,0,384,4.0,105.0
5088,56.0,0,384,6.0,105.0
5089,56.0,0,384,2.0,105.0
5090,56.0,0,96,7.0,105.0
5091,68.0,0,96,4.0,105.0
5092,44.0,840,96,8.0,105.0
5093,56.0,0,96,6.0,105.0
5094,68.0,0,96,5.0,105.0
5095,43.0,0,384,8.0,105.0
5096,79.0,0,384,1.0,105.0
5097,67.0,0,384,4.0,105.0
5098,75.0,0,384,1.0,105.0
5099,67.0,0,384,5.0,105.0
5100,55.0,120,384,2.0,105.0
5101,55.0,0,384,6.0,105.0
5102,55.0,0,384,7.0,105.0
5103,70.0,0,384,3.0,105.0
5104,67.0,0,96,4.0,105.0
5105,55.0,0,96,7.0,105.0
5106,67.0,0,96,5.0,105.0
5107,55.0,0,96,6.0,105.0
5108,43.0,840,96,8.0,105.0
5109,63.0,0,384,7.0,105.0
5110,60.0,0,384,2.0,105.0
5111,51.0,0,384,8.0,105.0
5112,65.0,0,384,3.0,105.0
5113,75.0,120,384,4.0,105.0
5114,75.0,0,384,5.0,105.0
5115,63.0,0,384,6.0,105.0
5116,77.0,0,384,1.0,105.0
5117,81.0,0,384,1.0,105.0
5118,57.0,0,384,2.0,105.0
5119,84.0,0,384,0.0,105.0
5120,63.0,840,96,6.0,105.0
5121,51.0,0,96,8.0,105.0
5122,63.0,0,96,7.0,105.0
5123,75.0,0,96,4.0,105.0
5124,75.0,0,96,5.0,105.0
5125,82.0,0,384,1.0,105.0
5126,62.0,0,384,6.0,105.0
5127,77.0,0,384,1.0,105.0
5128,74.0,0,384,4.0,105.0
5129,65.0,120,384,3.0,105.0
5130,74.0,0,384,5.0,105.0
5131,62.0,0,384,7.0,105.0
5132,86.0,0,384,0.0,105.0
5133,50.0,0,384,8.0,105.0
5134,62.0,0,384,2.0,105.0
5135,58.0,0,384,2.0,105.0
5136,62.0,0,96,6.0,105.0
5137,74.0,0,96,4.0,105.0
5138,74.0,0,96,5.0,105.0
5139,50.0,0,96,8.0,105.0
5140,62.0,840,96,7.0,105.0
5141,39.0,0,384,8.0,105.0
5142,51.0,120,384,7.0,105.0
5143,51.0,0,384,6.0,105.0
5144,79.0,0,1104,5.0,105.0
5145,91.0,0,1104,0.0,105.0
5146,79.0,0,1104,4.0,105.0
5147,67.0,0,1104,2.0,105.0
5148,77.0,0,144,5.0,58.0
5149,77.0,0,144,4.0,70.0
5150,65.0,0,144,2.0,70.0
5151,89.0,1200,144,0.0,105.0
5152,75.0,240,144,5.0,58.0
5153,75.0,0,144,4.0,70.0
5154,63.0,0,144,2.0,70.0
5155,87.0,0,144,0.0,70.0
5156,86.0,0,144,0.0,70.0
5157,74.0,240,144,4.0,70.0
5158,74.0,0,144,5.0,58.0
5159,62.0,0,144,2.0,70.0
5160,72.0,0,144,4.0,70.0
5161,72.0,240,144,5.0,58.0
5162,60.0,0,144,2.0,70.0
5163,84.0,0,144,0.0,70.0
5164,53.0,0,384,6.0,58.0
5165,53.0,0,384,7.0,58.0
5166,70.0,0,144,4.0,70.0
5167,70.0,0,144,5.0,58.0
5168,82.0,0,144,0.0,70.0
5169,41.0,0,384,8.0,58.0
5170,58.0,240,144,2.0,70.0
5171,69.0,0,144,4.0,70.0
5172,81.0,240,144,0.0,70.0
5173,57.0,0,144,2.0,70.0
5174,69.0,0,144,5.0,58.0
5175,79.0,240,144,0.0,70.0
5176,67.0,0,144,4.0,70.0
5177,67.0,0,144,5.0,58.0
5178,55.0,0,144,2.0,70.0
5179,65.0,0,144,4.0,70.0
5180,65.0,0,144,5.0,58.0
5181,77.0,240,144,0.0,70.0
5182,53.0,0,144,2.0,70.0
5183,75.0,0,144,0.0,70.0
5184,63.0,240,144,5.0,58.0
5185,51.0,0,144,2.0,70.0
5186,63.0,0,144,4.0,70.0
5187,50.0,0,144,2.0,70.0
5188,62.0,240,144,5.0,58.0
5189,74.0,0,144,0.0,70.0
5190,62.0,0,144,4.0,70.0
5191,60.0,0,144,4.0,70.0
5192,48.0,240,144,2.0,70.0
5193,72.0,0,144,0.0,70.0
5194,60.0,0,144,5.0,58.0
5195,62.0,0,240,5.0,58.0
5196,46.0,0,384,2.0,70.0
5197,58.0,0,384,4.0,70.0
5198,70.0,240,384,0.0,70.0
5199,65.0,240,240,5.0,58.0
5200,62.0,240,240,5.0,58.0
5201,65.0,240,240,5.0,58.0
5202,62.0,0,240,5.0,58.0
5203,65.0,240,240,5.0,58.0
5204,79.0,0,240,1.0,105.0
5205,62.0,240,240,5.0,58.0
5206,77.0,240,192,1.0,80.0
5207,65.0,0,192,5.0,58.0
5208,63.0,0,240,5.0,58.0
5209,77.0,240,384,1.0,80.0
5210,65.0,240,240,5.0,58.0
5211,63.0,0,240,5.0,58.0
5212,79.0,240,240,1.0,80.0
5213,77.0,0,192,1.0,80.0
5214,65.0,240,240,5.0,58.0
5215,82.0,240,1920,4.0,70.0
5216,60.0,240,240,5.0,58.0
5217,77.0,0,384,1.0,80.0
5218,65.0,240,240,5.0,58.0
5219,60.0,240,240,5.0,58.0
5220,67.0,0,240,2.0,70.0
5221,81.0,0,768,4.0,70.0
5222,65.0,240,192,5.0,58.0
5223,65.0,0,192,2.0,80.0
5224,58.0,0,240,5.0,58.0
5225,65.0,240,384,2.0,80.0
5226,65.0,240,240,5.0,58.0
5227,67.0,240,240,2.0,80.0
5228,58.0,0,240,5.0,58.0
5229,65.0,240,192,2.0,80.0
5230,65.0,0,240,5.0,58.0
5231,39.0,0,1920,8.0,58.0
5232,51.0,0,1920,7.0,58.0
5233,51.0,0,1920,6.0,58.0
5234,58.0,0,240,5.0,58.0
5235,38.0,0,384,8.0,58.0
5236,50.0,0,384,6.0,58.0
5237,50.0,0,384,7.0,58.0
5238,65.0,0,384,2.0,80.0
5239,65.0,240,240,5.0,58.0
5240,79.0,0,240,1.0,80.0
5241,62.0,240,240,5.0,58.0
5242,77.0,240,192,1.0,80.0
5243,65.0,0,192,5.0,58.0
5244,63.0,240,240,5.0,58.0
5245,77.0,0,384,1.0,80.0
5246,65.0,240,240,5.0,58.0
5247,63.0,240,240,5.0,58.0
5248,79.0,0,240,1.0,80.0
5249,77.0,0,192,1.0,80.0
5250,65.0,240,240,5.0,58.0
5251,82.0,240,1920,4.0,70.0
5252,60.0,240,240,5.0,58.0
5253,77.0,0,384,1.0,80.0
5254,65.0,240,240,5.0,58.0
5255,67.0,240,240,2.0,80.0
5256,60.0,0,240,5.0,58.0
5257,81.0,0,768,4.0,70.0
5258,65.0,240,192,5.0,58.0
5259,65.0,0,192,2.0,80.0
5260,58.0,0,240,5.0,58.0
5261,65.0,240,384,2.0,80.0
5262,65.0,240,240,5.0,58.0
5263,58.0,240,240,5.0,58.0
5264,67.0,0,240,2.0,80.0
5265,65.0,0,192,2.0,80.0
5266,39.0,0,1920,8.0,58.0
5267,65.0,240,240,5.0,58.0
5268,51.0,0,1920,7.0,58.0
5269,51.0,0,1920,6.0,58.0
5270,58.0,0,240,5.0,58.0
5271,50.0,0,384,6.0,58.0
5272,38.0,240,384,8.0,58.0
5273,65.0,0,384,2.0,80.0
5274,50.0,0,384,7.0,58.0
5275,65.0,240,240,5.0,58.0
5276,87.0,0,240,4.0,116.0
5277,74.0,240,240,5.0,58.0
5278,86.0,0,192,4.0,116.0
5279,65.0,240,192,5.0,58.0
5280,50.0,0,192,2.0,105.0
5281,38.0,0,192,8.0,105.0
5282,78.0,0,192,5.0,105.0
5283,62.0,0,192,6.0,105.0
5284,50.0,0,192,7.0,105.0
5285,72.0,0,192,5.0,105.0
5286,86.0,0,384,4.0,116.0
5287,72.0,0,192,5.0,105.0
5288,50.0,0,192,7.0,105.0
5289,50.0,0,192,2.0,105.0
5290,38.0,240,192,8.0,105.0
5291,78.0,0,192,5.0,105.0
5292,62.0,0,192,6.0,105.0
5293,50.0,0,192,2.0,105.0
5294,78.0,0,192,5.0,105.0
5295,72.0,0,192,5.0,105.0
5296,50.0,240,192,7.0,105.0
5297,62.0,0,192,6.0,105.0
5298,38.0,0,192,8.0,105.0
5299,87.0,0,240,4.0,116.0
5300,38.0,0,192,8.0,105.0
5301,86.0,0,192,4.0,116.0
5302,50.0,0,192,7.0,105.0
5303,62.0,0,192,6.0,105.0
5304,78.0,240,192,5.0,105.0
5305,72.0,0,192,5.0,105.0
5306,50.0,0,192,2.0,105.0
5307,78.0,240,192,5.0,105.0
5308,38.0,0,192,8.0,105.0
5309,62.0,0,192,6.0,105.0
5310,50.0,0,192,2.0,105.0
5311,50.0,0,192,7.0,105.0
5312,72.0,0,192,5.0,105.0
5313,86.0,0,384,4.0,116.0
5314,78.0,0,192,5.0,105.0
5315,50.0,0,192,7.0,105.0
5316,50.0,240,192,2.0,105.0
5317,38.0,0,192,8.0,105.0
5318,72.0,0,192,5.0,105.0
5319,62.0,0,192,6.0,105.0
5320,69.0,0,1536,3.0,105.0
5321,84.0,0,1536,1.0,105.0
5322,90.0,0,1536,0.0,105.0
5323,81.0,240,1536,1.0,105.0
5324,62.0,0,1536,3.0,105.0
5325,72.0,0,192,5.0,105.0
5326,78.0,0,192,5.0,105.0
5327,38.0,0,192,8.0,105.0
5328,50.0,240,192,2.0,105.0
5329,50.0,0,192,7.0,105.0
5330,62.0,0,192,6.0,105.0
5331,87.0,0,240,4.0,116.0
5332,50.0,0,192,2.0,105.0
5333,38.0,0,192,8.0,105.0
5334,50.0,0,192,7.0,105.0
5335,86.0,240,192,4.0,116.0
5336,78.0,0,192,5.0,105.0
5337,72.0,0,192,5.0,105.0
5338,62.0,0,192,6.0,105.0
5339,43.0,0,192,8.0,105.0
5340,67.0,0,192,6.0,105.0
5341,55.0,0,192,7.0,105.0
5342,55.0,0,192,2.0,105.0
5343,67.0,0,192,6.0,105.0
5344,55.0,240,192,2.0,105.0
5345,55.0,0,192,7.0,105.0
5346,43.0,0,192,8.0,105.0
5347,43.0,0,192,8.0,105.0
5348,67.0,0,192,6.0,105.0
5349,55.0,0,192,7.0,105.0
5350,55.0,240,192,2.0,105.0
5351,55.0,0,768,3.0,105.0
5352,58.0,0,768,3.0,105.0
5353,70.0,240,768,5.0,105.0
5354,91.0,0,768,0.0,105.0
5355,82.0,0,768,1.0,105.0
5356,79.0,0,768,5.0,105.0
5357,86.0,0,768,4.0,116.0
5358,55.0,0,192,7.0,105.0
5359,55.0,240,192,2.0,105.0
5360,43.0,0,192,8.0,105.0
5361,67.0,0,192,6.0,105.0
5362,51.0,0,192,2.0,105.0
5363,39.0,0,192,8.0,105.0
5364,51.0,0,192,7.0,105.0
5365,63.0,240,192,6.0,105.0
5366,39.0,0,192,8.0,105.0
5367,63.0,0,192,6.0,105.0
5368,51.0,240,192,2.0,105.0
5369,51.0,0,192,7.0,105.0
5370,91.0,0,576,0.0,105.0
5371,51.0,240,192,7.0,105.0
5372,63.0,0,192,6.0,105.0
5373,51.0,0,192,2.0,105.0
5374,39.0,0,192,8.0,105.0
5375,79.0,0,720,5.0,105.0
5376,87.0,0,720,4.0,116.0
5377,79.0,0,1728,1.0,105.0
5378,84.0,0,768,1.0,105.0
5379,84.0,0,192,4.0,116.0
5380,51.0,0,192,2.0,105.0
5381,39.0,0,192,8.0,105.0
5382,75.0,0,192,5.0,105.0
5383,63.0,0,192,6.0,105.0
5384,87.0,240,192,0.0,105.0
5385,51.0,0,192,7.0,105.0
5386,41.0,0,192,8.0,105.0
5387,65.0,0,192,6.0,105.0
5388,53.0,240,192,2.0,105.0
5389,53.0,0,192,7.0,105.0
5390,65.0,240,192,6.0,105.0
5391,53.0,0,192,2.0,105.0
5392,53.0,0,192,7.0,105.0
5393,41.0,0,192,8.0,105.0
5394,65.0,0,192,6.0,105.0
5395,41.0,0,192,8.0,105.0
5396,53.0,0,192,2.0,105.0
5397,53.0,240,192,7.0,105.0
5398,82.0,0,720,4.0,116.0
5399,74.0,0,720,5.0,105.0
5400,77.0,0,768,1.0,105.0
5401,82.0,0,768,1.0,105.0
5402,86.0,0,768,0.0,105.0
5403,53.0,0,192,7.0,105.0
5404,41.0,0,192,8.0,105.0
5405,77.0,0,192,5.0,105.0
5406,53.0,0,192,2.0,105.0
5407,65.0,0,192,6.0,105.0
5408,86.0,240,192,4.0,116.0
5409,41.0,0,192,7.0,105.0
5410,29.0,240,192,8.0,105.0
5411,53.0,0,192,6.0,105.0
5412,41.0,0,192,2.0,105.0
5413,65.0,0,384,3.0,105.0
5414,41.0,240,192,2.0,105.0
5415,29.0,0,192,8.0,105.0
5416,53.0,0,192,6.0,105.0
5417,41.0,0,192,7.0,105.0
5418,41.0,240,192,2.0,105.0
5419,41.0,0,192,7.0,105.0
5420,53.0,0,192,6.0,105.0
5421,29.0,0,192,8.0,105.0
5422,75.0,0,720,5.0,105.0
5423,84.0,0,720,4.0,116.0
5424,81.0,0,768,1.0,105.0
5425,75.0,0,768,1.0,105.0
5426,84.0,0,768,0.0,105.0
5427,29.0,0,192,8.0,105.0
5428,72.0,0,192,5.0,105.0
5429,53.0,0,192,6.0,105.0
5430,41.0,240,192,2.0,105.0
5431,41.0,0,192,7.0,105.0
5432,81.0,0,192,4.0,116.0
5433,74.0,0,192,5.0,92.0
5434,46.0,0,384,7.0,105.0
5435,46.0,0,384,2.0,92.0
5436,74.0,0,384,1.0,92.0
5437,62.0,0,384,3.0,105.0
5438,34.0,0,384,8.0,105.0
5439,82.0,0,384,1.0,92.0
5440,82.0,240,384,0.0,92.0
5441,58.0,0,384,6.0,92.0
5442,65.0,0,384,3.0,105.0
5443,82.0,0,384,4.0,92.0
5444,65.0,240,240,5.0,70.0
5445,62.0,240,240,5.0,70.0
5446,65.0,240,240,5.0,70.0
5447,62.0,0,240,5.0,58.0
5448,65.0,240,240,5.0,58.0
5449,67.0,240,240,2.0,80.0
5450,62.0,0,240,5.0,58.0
5451,65.0,0,192,5.0,58.0
5452,65.0,240,192,2.0,80.0
5453,60.0,240,240,5.0,58.0
5454,65.0,0,384,2.0,80.0
5455,63.0,240,240,5.0,58.0
5456,60.0,0,240,5.0,58.0
5457,67.0,240,240,2.0,80.0
5458,65.0,0,192,2.0,80.0
5459,63.0,240,240,5.0,58.0
5460,58.0,0,1920,7.0,58.0
5461,46.0,240,1920,8.0,58.0
5462,70.0,0,1920,6.0,58.0
5463,60.0,0,240,5.0,58.0
5464,65.0,0,384,2.0,80.0
5465,69.0,0,384,6.0,58.0
5466,45.0,0,384,8.0,58.0
5467,57.0,240,384,7.0,58.0
5468,65.0,240,240,5.0,58.0
5469,57.0,0,240,5.0,58.0
5470,79.0,240,240,1.0,80.0
5471,65.0,240,192,5.0,58.0
5472,77.0,0,192,1.0,80.0
5473,58.0,240,240,5.0,58.0
5474,77.0,0,384,1.0,80.0
5475,65.0,240,240,5.0,58.0
5476,79.0,0,240,1.0,80.0
5477,58.0,240,240,5.0,58.0
5478,77.0,240,192,1.0,80.0
5479,65.0,0,240,5.0,58.0
5480,87.0,0,1920,4.0,70.0
5481,58.0,0,240,5.0,58.0
5482,86.0,0,384,4.0,70.0
5483,77.0,240,384,1.0,80.0
5484,65.0,240,240,5.0,58.0
5485,67.0,240,240,2.0,80.0
5486,62.0,0,240,5.0,58.0
5487,65.0,240,192,5.0,58.0
5488,65.0,0,192,2.0,80.0
5489,60.0,0,240,5.0,58.0
5490,65.0,240,384,2.0,80.0
5491,63.0,240,240,5.0,58.0
5492,67.0,0,240,2.0,80.0
5493,60.0,240,240,5.0,58.0
5494,65.0,0,192,2.0,80.0
5495,34.0,0,1920,8.0,58.0
5496,58.0,0,1920,6.0,58.0
5497,46.0,0,1920,7.0,58.0
5498,63.0,240,240,5.0,58.0
5499,60.0,0,240,5.0,58.0
5500,57.0,240,384,6.0,58.0
5501,33.0,0,384,8.0,58.0
5502,45.0,0,384,7.0,58.0
5503,65.0,0,384,2.0,80.0
5504,65.0,240,240,5.0,58.0
5505,79.0,240,240,1.0,80.0
5506,57.0,0,240,5.0,58.0
5507,65.0,0,192,5.0,58.0
5508,77.0,240,192,1.0,80.0
5509,58.0,0,240,5.0,58.0
5510,77.0,240,384,1.0,80.0
5511,65.0,240,240,5.0,58.0
5512,58.0,240,240,5.0,58.0
5513,79.0,0,240,1.0,80.0
5514,77.0,0,192,1.0,80.0
5515,75.0,0,1920,4.0,70.0
5516,65.0,240,240,5.0,58.0
5517,58.0,0,240,5.0,58.0
5518,74.0,240,384,4.0,58.0
5519,77.0,0,384,1.0,80.0
5520,65.0,240,240,5.0,58.0
5521,74.0,240,240,5.0,58.0
5522,87.0,0,240,4.0,116.0
5523,65.0,0,192,5.0,58.0
5524,86.0,240,192,4.0,116.0
5525,50.0,0,192,2.0,80.0
5526,72.0,0,192,5.0,105.0
5527,78.0,0,192,5.0,58.0
5528,38.0,0,192,8.0,105.0
5529,62.0,0,192,6.0,105.0
5530,50.0,0,192,7.0,105.0
5531,86.0,0,384,4.0,116.0
5532,50.0,0,192,7.0,105.0
5533,62.0,0,192,6.0,105.0
5534,38.0,0,192,8.0,105.0
5535,78.0,0,192,5.0,105.0
5536,50.0,240,192,2.0,105.0
5537,72.0,0,192,5.0,105.0
5538,62.0,0,192,6.0,105.0
5539,38.0,0,192,8.0,105.0
5540,78.0,240,192,5.0,105.0
5541,50.0,0,192,2.0,105.0
5542,50.0,0,192,7.0,105.0
5543,72.0,0,192,5.0,105.0
5544,87.0,0,240,4.0,116.0
5545,38.0,0,192,8.0,105.0
5546,78.0,0,192,5.0,105.0
5547,72.0,0,192,5.0,105.0
5548,62.0,0,192,6.0,105.0
5549,50.0,0,192,2.0,105.0
5550,50.0,0,192,7.0,105.0
5551,86.0,240,192,4.0,116.0
5552,62.0,0,192,6.0,105.0
5553,72.0,0,192,5.0,105.0
5554,50.0,0,192,7.0,105.0
5555,78.0,0,192,5.0,105.0
5556,50.0,0,192,2.0,105.0
5557,38.0,0,192,8.0,105.0
5558,86.0,240,384,4.0,116.0
5559,50.0,0,192,7.0,105.0
5560,72.0,0,192,5.0,105.0
5561,78.0,0,192,5.0,105.0
5562,38.0,240,192,8.0,105.0
5563,62.0,0,192,6.0,105.0
5564,50.0,0,192,2.0,105.0
5565,90.0,0,1536,0.0,92.0
5566,81.0,240,1536,1.0,80.0
5567,84.0,0,1536,1.0,80.0
5568,62.0,0,1536,3.0,92.0
5569,69.0,0,1536,3.0,92.0
5570,78.0,0,192,5.0,105.0
5571,50.0,240,192,7.0,105.0
5572,50.0,0,192,2.0,105.0
5573,62.0,0,192,6.0,105.0
5574,38.0,0,192,8.0,105.0
5575,72.0,0,192,5.0,105.0
5576,87.0,0,240,4.0,116.0
5577,38.0,240,192,8.0,105.0
5578,72.0,0,192,5.0,105.0
5579,78.0,0,192,5.0,105.0
5580,50.0,0,192,7.0,105.0
5581,50.0,0,192,2.0,105.0
5582,62.0,0,192,6.0,105.0
5583,86.0,0,192,4.0,116.0
5584,67.0,0,192,6.0,105.0
5585,55.0,0,192,2.0,105.0
5586,43.0,240,192,8.0,105.0
5587,55.0,0,192,7.0,105.0
5588,67.0,0,192,6.0,105.0
5589,55.0,0,192,2.0,105.0
5590,43.0,240,192,8.0,105.0
5591,55.0,0,192,7.0,105.0
5592,43.0,0,192,8.0,105.0
5593,55.0,0,192,7.0,105.0
5594,55.0,240,192,2.0,105.0
5595,67.0,0,192,6.0,105.0
5596,82.0,0,768,1.0,105.0
5597,79.0,0,768,5.0,105.0
5598,91.0,0,768,0.0,105.0
5599,70.0,0,768,5.0,105.0
5600,55.0,0,768,3.0,105.0
5601,86.0,0,768,4.0,116.0
5602,58.0,0,768,3.0,105.0
5603,55.0,0,192,2.0,105.0
5604,55.0,0,192,7.0,105.0
5605,43.0,240,192,8.0,105.0
5606,67.0,0,192,6.0,105.0
5607,39.0,0,192,8.0,105.0
5608,51.0,0,192,7.0,105.0
5609,51.0,0,192,2.0,105.0
5610,63.0,0,192,6.0,105.0
5611,63.0,0,192,6.0,105.0
5612,51.0,0,192,2.0,105.0
5613,39.0,240,192,8.0,105.0
5614,51.0,0,192,7.0,105.0
5615,91.0,0,576,0.0,105.0
5616,39.0,240,192,8.0,105.0
5617,51.0,0,192,2.0,105.0
5618,51.0,0,192,7.0,105.0
5619,63.0,0,192,6.0,105.0
5620,87.0,0,720,4.0,116.0
5621,79.0,0,720,5.0,105.0
5622,79.0,0,1728,1.0,105.0
5623,84.0,240,768,1.0,105.0
5624,51.0,240,192,7.0,105.0
5625,87.0,0,192,0.0,105.0
5626,63.0,0,192,6.0,105.0
5627,51.0,0,192,2.0,105.0
5628,84.0,0,192,4.0,116.0
5629,39.0,0,192,8.0,105.0
5630,75.0,0,192,5.0,105.0
5631,53.0,0,192,7.0,105.0
5632,53.0,0,192,2.0,105.0
5633,65.0,0,192,6.0,105.0
5634,41.0,240,192,8.0,105.0
5635,53.0,0,192,2.0,105.0
5636,41.0,0,192,8.0,105.0
5637,65.0,240,192,6.0,105.0
5638,53.0,0,192,7.0,105.0
5639,65.0,0,192,6.0,105.0
5640,53.0,0,192,7.0,105.0
5641,41.0,240,192,8.0,105.0
5642,53.0,0,192,2.0,105.0
5643,82.0,0,720,4.0,116.0
5644,74.0,0,720,5.0,105.0
5645,86.0,0,768,0.0,105.0
5646,82.0,0,768,1.0,105.0
5647,77.0,0,768,1.0,105.0
5648,53.0,0,192,2.0,105.0
5649,77.0,0,192,5.0,105.0
5650,86.0,0,192,4.0,116.0
5651,41.0,0,192,8.0,105.0
5652,65.0,0,192,6.0,105.0
5653,53.0,240,192,7.0,105.0
5654,41.0,0,192,7.0,105.0
5655,41.0,0,192,2.0,105.0
5656,53.0,0,192,6.0,105.0
5657,29.0,0,192,8.0,105.0
5658,65.0,0,384,3.0,105.0
5659,53.0,0,192,6.0,105.0
5660,41.0,0,192,2.0,105.0
5661,29.0,240,192,8.0,105.0
5662,41.0,0,192,7.0,105.0
5663,53.0,0,192,6.0,105.0
5664,41.0,0,192,7.0,105.0
5665,41.0,240,192,2.0,105.0
5666,29.0,0,192,8.0,105.0
5667,75.0,0,720,5.0,105.0
5668,84.0,240,720,4.0,116.0
5669,75.0,0,768,1.0,105.0
5670,81.0,0,768,1.0,105.0
5671,84.0,0,768,0.0,105.0
5672,41.0,0,192,2.0,105.0
5673,53.0,0,192,6.0,105.0
5674,81.0,0,192,4.0,116.0
5675,41.0,0,192,7.0,105.0
5676,29.0,0,192,8.0,105.0
5677,72.0,240,192,5.0,105.0
5678,82.0,0,192,4.0,116.0
5679,65.0,0,384,3.0,105.0
5680,74.0,240,384,5.0,105.0
5681,62.0,0,384,3.0,105.0
5682,77.0,240,192,4.0,116.0
5683,86.0,0,192,4.0,105.0
5684,86.0,240,192,5.0,105.0
5685,82.0,0,768,1.0,105.0
5686,74.0,0,768,1.0,105.0
5687,58.0,0,768,6.0,105.0
5688,46.0,0,768,2.0,105.0
5689,82.0,0,768,0.0,105.0
5690,34.0,0,768,8.0,105.0
5691,46.0,0,768,7.0,105.0
5692,84.0,0,192,4.0,105.0
5693,84.0,240,192,5.0,105.0
5694,82.0,240,192,4.0,105.0
5695,82.0,0,192,5.0,105.0
5696,81.0,240,192,4.0,105.0
5697,81.0,0,192,5.0,105.0
5698,79.0,240,192,4.0,105.0
5699,79.0,0,192,5.0,105.0
5700,65.0,0,192,7.0,105.0
5701,77.0,0,192,6.0,105.0
5702,53.0,0,192,8.0,105.0
5703,77.0,0,192,1.0,105.0
5704,89.0,0,192,0.0,105.0
5705,77.0,240,192,5.0,105.0
5706,77.0,0,192,4.0,105.0
5707,65.0,0,192,2.0,105.0
5708,75.0,0,192,4.0,105.0
5709,75.0,0,192,5.0,105.0
5710,75.0,240,192,6.0,105.0
5711,63.0,0,192,2.0,105.0
5712,63.0,0,192,7.0,105.0
5713,75.0,0,192,1.0,105.0
5714,51.0,0,192,8.0,105.0
5715,87.0,0,192,0.0,105.0
5716,86.0,0,192,0.0,105.0
5717,74.0,0,192,1.0,105.0
5718,50.0,0,192,8.0,105.0
5719,74.0,0,192,4.0,105.0
5720,74.0,0,192,5.0,105.0
5721,62.0,240,192,7.0,105.0
5722,62.0,0,192,2.0,105.0
5723,74.0,0,192,6.0,105.0
5724,84.0,0,192,0.0,105.0
5725,48.0,0,192,8.0,105.0
5726,60.0,0,192,7.0,105.0
5727,72.0,0,192,6.0,105.0
5728,72.0,240,192,5.0,105.0
5729,72.0,0,192,4.0,105.0
5730,72.0,0,192,1.0,105.0
5731,60.0,0,192,2.0,105.0
5732,70.0,240,192,4.0,105.0
5733,70.0,0,192,1.0,105.0
5734,58.0,0,192,7.0,105.0
5735,70.0,0,192,5.0,105.0
5736,46.0,0,192,8.0,105.0
5737,70.0,0,192,6.0,105.0
5738,82.0,0,192,0.0,105.0
5739,58.0,0,192,2.0,105.0
5740,81.0,0,192,0.0,105.0
5741,57.0,0,192,7.0,105.0
5742,57.0,0,192,2.0,105.0
5743,69.0,0,192,6.0,105.0
5744,69.0,0,192,5.0,105.0
5745,69.0,0,192,4.0,105.0
5746,69.0,0,192,1.0,105.0
5747,45.0,240,192,8.0,105.0
5748,55.0,0,192,7.0,105.0
5749,67.0,0,192,5.0,105.0
5750,67.0,0,192,4.0,105.0
5751,67.0,0,192,6.0,105.0
5752,43.0,0,192,8.0,105.0
5753,67.0,0,192,1.0,105.0
5754,55.0,0,192,2.0,105.0
5755,79.0,240,192,0.0,105.0
5756,65.0,0,192,6.0,105.0
5757,77.0,0,192,0.0,105.0
5758,65.0,0,192,1.0,105.0
5759,53.0,240,192,2.0,105.0
5760,53.0,0,192,7.0,105.0
5761,65.0,0,192,4.0,105.0
5762,41.0,0,192,8.0,105.0
5763,65.0,0,192,5.0,105.0
5764,63.0,0,192,6.0,105.0
5765,39.0,0,192,8.0,105.0
5766,51.0,0,192,7.0,105.0
5767,63.0,0,192,4.0,105.0
5768,51.0,0,192,2.0,105.0
5769,63.0,0,192,1.0,105.0
5770,63.0,240,192,5.0,105.0
5771,75.0,0,192,0.0,105.0
5772,62.0,0,336,1.0,105.0
5773,50.0,0,336,2.0,105.0
5774,62.0,0,336,6.0,105.0
5775,62.0,0,336,4.0,105.0
5776,38.0,0,336,8.0,105.0
5777,50.0,0,336,7.0,105.0
5778,62.0,240,336,5.0,105.0
5779,74.0,0,336,0.0,105.0
5780,38.0,0,336,8.0,105.0
5781,50.0,0,336,7.0,105.0
5782,62.0,0,336,6.0,105.0
5783,50.0,0,336,2.0,105.0
5784,70.0,0,336,5.0,125.0
5785,77.0,0,336,4.0,125.0
5786,77.0,0,336,1.0,105.0
5787,58.0,0,336,3.0,105.0
5788,77.0,0,336,0.0,105.0
5789,51.0,0,336,7.0,105.0
5790,63.0,0,336,6.0,105.0
5791,70.0,0,336,5.0,125.0
5792,79.0,0,336,4.0,125.0
5793,51.0,480,336,2.0,105.0
5794,79.0,0,336,0.0,105.0
5795,58.0,0,336,3.0,105.0
5796,79.0,0,336,1.0,105.0
5797,70.0,480,816,1.0,105.0
5798,39.0,0,336,8.0,105.0
5799,63.0,0,336,5.0,105.0
5800,65.0,0,336,3.0,105.0
5801,53.0,0,336,7.0,105.0
5802,60.0,0,336,5.0,105.0
5803,53.0,0,336,2.0,105.0
5804,41.0,0,336,8.0,105.0
5805,65.0,0,336,6.0,105.0
5806,69.0,0,336,4.0,125.0
5807,75.0,480,336,1.0,105.0
5808,81.0,0,336,0.0,105.0
5809,81.0,0,336,1.0,105.0
5810,70.0,0,192,6.0,105.0
5811,82.0,0,192,1.0,105.0
5812,70.0,0,192,4.0,105.0
5813,82.0,0,192,0.0,105.0
5814,58.0,0,192,2.0,105.0
5815,46.0,0,192,8.0,105.0
5816,58.0,0,192,7.0,105.0
5817,62.0,480,384,3.0,105.0
5818,65.0,0,384,3.0,105.0
5819,62.0,0,384,5.0,105.0
5820,58.0,0,384,5.0,105.0
5821,74.0,0,432,1.0,105.0
5822,53.0,240,192,7.0,105.0
5823,41.0,0,192,8.0,105.0
5824,53.0,0,192,2.0,105.0
5825,65.0,0,192,4.0,105.0
5826,77.0,0,192,1.0,105.0
5827,65.0,0,192,6.0,105.0
5828,77.0,0,192,0.0,105.0
5829,74.0,0,192,5.0,105.0
5830,50.0,0,192,8.0,105.0
5831,74.0,0,192,4.0,105.0
5832,62.0,0,192,7.0,105.0
5833,62.0,0,192,2.0,105.0
5834,74.0,0,192,6.0,105.0
5835,86.0,0,192,1.0,105.0
5836,86.0,240,192,0.0,105.0
5837,84.0,0,192,0.0,105.0
5838,72.0,0,192,5.0,105.0
5839,60.0,0,192,2.0,105.0
5840,72.0,0,192,6.0,105.0
5841,60.0,0,192,7.0,105.0
5842,72.0,0,192,4.0,105.0
5843,48.0,240,192,8.0,105.0
5844,84.0,0,192,1.0,105.0
5845,82.0,240,192,0.0,105.0
5846,82.0,0,192,1.0,105.0
5847,58.0,0,192,7.0,105.0
5848,58.0,0,192,2.0,105.0
5849,46.0,0,192,8.0,105.0
5850,70.0,0,192,4.0,105.0
5851,70.0,0,192,5.0,105.0
5852,70.0,0,192,6.0,105.0
5853,81.0,240,192,1.0,105.0
5854,57.0,0,192,7.0,105.0
5855,57.0,0,192,2.0,105.0
5856,81.0,0,192,0.0,105.0
5857,69.0,0,192,4.0,105.0
5858,69.0,0,192,6.0,105.0
5859,69.0,0,192,5.0,105.0
5860,45.0,0,192,8.0,105.0
5861,79.0,0,192,0.0,105.0
5862,67.0,0,192,4.0,105.0
5863,55.0,0,192,2.0,105.0
5864,43.0,240,192,8.0,105.0
5865,55.0,0,192,7.0,105.0
5866,67.0,0,192,5.0,105.0
5867,67.0,0,192,6.0,105.0
5868,79.0,0,192,1.0,105.0
5869,53.0,0,192,2.0,105.0
5870,77.0,0,192,0.0,105.0
5871,77.0,0,192,1.0,105.0
5872,53.0,0,192,7.0,105.0
5873,41.0,240,192,8.0,105.0
5874,65.0,0,192,6.0,105.0
5875,65.0,0,192,5.0,105.0
5876,65.0,0,192,4.0,105.0
5877,75.0,0,192,1.0,105.0
5878,87.0,0,192,0.0,105.0
5879,63.0,240,192,6.0,105.0
5880,51.0,0,192,2.0,105.0
5881,63.0,0,192,5.0,105.0
5882,51.0,0,192,7.0,105.0
5883,63.0,0,192,4.0,105.0
5884,39.0,0,192,8.0,105.0
5885,62.0,0,192,5.0,105.0
5886,50.0,0,192,7.0,105.0
5887,62.0,0,192,6.0,105.0
5888,38.0,0,192,8.0,105.0
5889,50.0,0,192,2.0,105.0
5890,74.0,0,192,1.0,105.0
5891,62.0,240,192,4.0,105.0
5892,86.0,0,192,0.0,105.0
5893,60.0,0,192,5.0,105.0
5894,60.0,240,192,6.0,105.0
5895,72.0,0,192,1.0,105.0
5896,48.0,0,192,7.0,105.0
5897,36.0,0,192,8.0,105.0
5898,48.0,0,192,2.0,105.0
5899,84.0,0,192,0.0,105.0
5900,60.0,0,192,4.0,105.0
5901,58.0,0,192,4.0,105.0
5902,58.0,0,192,5.0,105.0
5903,58.0,0,192,6.0,105.0
5904,46.0,0,192,2.0,105.0
5905,70.0,240,192,1.0,105.0
5906,82.0,0,192,0.0,105.0
5907,46.0,0,192,7.0,105.0
5908,34.0,0,192,8.0,105.0
5909,57.0,0,192,5.0,105.0
5910,81.0,0,192,0.0,105.0
5911,57.0,240,192,6.0,105.0
5912,57.0,0,192,4.0,105.0
5913,33.0,0,192,8.0,105.0
5914,45.0,0,192,2.0,105.0
5915,45.0,0,192,7.0,105.0
5916,69.0,0,192,1.0,105.0
5917,36.0,240,192,8.0,105.0
5918,72.0,0,192,1.0,105.0
5919,60.0,0,192,6.0,105.0
5920,48.0,0,192,2.0,105.0
5921,48.0,0,192,7.0,105.0
5922,84.0,0,192,0.0,105.0
5923,60.0,0,192,4.0,105.0
5924,60.0,0,192,5.0,105.0
5925,65.0,240,192,6.0,105.0
5926,53.0,0,192,7.0,105.0
5927,89.0,0,192,0.0,105.0
5928,77.0,0,192,1.0,105.0
5929,41.0,0,192,8.0,105.0
5930,53.0,0,192,2.0,105.0
5931,65.0,0,192,4.0,105.0
5932,65.0,0,192,5.0,105.0
5933,39.0,0,192,8.0,105.0
5934,63.0,240,192,6.0,105.0
5935,63.0,0,192,5.0,105.0
5936,51.0,0,192,2.0,105.0
5937,51.0,0,192,7.0,105.0
5938,87.0,0,192,0.0,105.0
5939,63.0,0,192,4.0,105.0
5940,75.0,0,192,1.0,105.0
5941,86.0,240,336,0.0,105.0
5942,50.0,0,336,2.0,105.0
5943,62.0,0,336,6.0,105.0
5944,62.0,0,336,5.0,105.0
5945,74.0,0,336,1.0,105.0
5946,50.0,0,336,7.0,105.0
5947,38.0,0,336,8.0,105.0
5948,62.0,0,336,4.0,105.0
5949,77.0,0,336,1.0,105.0
5950,62.0,0,336,6.0,105.0
5951,77.0,0,336,4.0,125.0
5952,50.0,0,336,7.0,105.0
5953,58.0,0,336,3.0,105.0
5954,50.0,480,336,2.0,105.0
5955,70.0,0,336,5.0,125.0
5956,38.0,0,336,8.0,105.0
5957,70.0,0,336,1.0,105.0
5958,39.0,0,336,8.0,105.0
5959,63.0,0,336,6.0,105.0
5960,79.0,0,336,4.0,125.0
5961,79.0,0,336,1.0,105.0
5962,75.0,0,336,1.0,105.0
5963,51.0,480,336,7.0,105.0
5964,70.0,0,336,5.0,125.0
5965,51.0,0,336,2.0,105.0
5966,58.0,0,336,3.0,105.0
5967,81.0,0,336,4.0,125.0
5968,53.0,0,336,2.0,105.0
5969,41.0,0,336,8.0,105.0
5970,65.0,0,336,6.0,105.0
5971,75.0,0,336,5.0,125.0
5972,53.0,0,336,7.0,105.0
5973,81.0,0,336,1.0,105.0
5974,84.0,0,336,1.0,105.0
5975,87.0,0,336,0.0,105.0
5976,65.0,480,336,3.0,105.0
5977,55.0,0,336,7.0,105.0
5978,43.0,0,336,8.0,105.0
5979,82.0,480,336,4.0,125.0
5980,74.0,0,336,5.0,125.0
5981,70.0,0,336,3.0,105.0
5982,55.0,0,336,2.0,105.0
5983,82.0,0,336,1.0,105.0
5984,86.0,0,336,0.0,105.0
5985,67.0,0,336,6.0,105.0
5986,63.0,0,336,6.0,105.0
5987,39.0,480,336,8.0,105.0
5988,75.0,0,336,1.0,105.0
5989,82.0,0,336,1.0,105.0
5990,91.0,0,336,0.0,105.0
5991,75.0,0,336,5.0,125.0
5992,79.0,0,336,4.0,125.0
5993,70.0,0,336,3.0,105.0
5994,51.0,0,336,7.0,105.0
5995,51.0,0,336,2.0,105.0
5996,53.0,480,336,2.0,105.0
5997,77.0,0,336,4.0,125.0
5998,41.0,0,336,8.0,105.0
5999,89.0,0,336,0.0,105.0
6000,74.0,0,336,1.0,105.0
6001,53.0,0,336,7.0,105.0
6002,82.0,0,336,1.0,105.0
6003,74.0,0,336,5.0,125.0
6004,70.0,0,336,3.0,105.0
6005,65.0,0,336,6.0,105.0
6006,29.0,0,336,8.0,105.0
6007,41.0,0,336,7.0,105.0
6008,75.0,480,336,1.0,105.0
6009,53.0,0,336,6.0,105.0
6010,41.0,0,336,2.0,105.0
6011,60.0,0,336,5.0,105.0
6012,63.0,0,336,5.0,105.0
6013,77.0,0,336,1.0,105.0
6014,65.0,0,336,3.0,105.0
6015,81.0,0,336,0.0,105.0
6016,69.0,0,336,4.0,125.0
6017,70.0,0,240,4.0,105.0
6018,74.0,0,360,1.0,105.0
6019,46.0,0,360,2.0,105.0
6020,62.0,0,360,3.0,105.0
6021,65.0,0,360,3.0,105.0
6022,62.0,0,360,5.0,105.0
6023,58.0,0,360,5.0,105.0
6024,82.0,0,360,0.0,105.0
6025,77.0,0,360,1.0,105.0
6026,34.0,480,384,8.0,105.0
6027,58.0,0,384,6.0,105.0
6028,46.0,0,384,7.0,105.0
6029,74.0,240,144,4.0,105.0
6030,77.0,0,144,4.0,105.0
6031,62.0,0,180,2.0,105.0
6032,74.0,0,180,5.0,105.0
6033,65.0,0,180,3.0,105.0
6034,58.0,0,180,2.0,105.0
6035,65.0,0,180,5.0,105.0
6036,74.0,0,180,1.0,105.0
6037,82.0,240,180,0.0,105.0
6038,70.0,0,180,1.0,105.0
6039,82.0,0,144,4.0,105.0
6040,74.0,0,180,5.0,105.0
6041,65.0,0,180,5.0,105.0
6042,58.0,0,180,2.0,105.0
6043,70.0,0,180,1.0,105.0
6044,74.0,0,180,1.0,105.0
6045,82.0,240,180,0.0,105.0
6046,62.0,0,180,2.0,105.0
6047,65.0,0,180,3.0,105.0
6048,81.0,0,240,4.0,105.0
6049,65.0,0,360,5.0,105.0
6050,81.0,0,360,0.0,105.0
6051,63.0,0,360,2.0,105.0
6052,60.0,0,360,2.0,105.0
6053,65.0,0,360,3.0,105.0
6054,72.0,240,360,1.0,105.0
6055,75.0,0,360,1.0,105.0
6056,75.0,0,360,5.0,105.0
6057,77.0,240,144,4.0,105.0
6058,53.0,0,384,7.0,105.0
6059,65.0,0,384,6.0,105.0
6060,41.0,0,384,8.0,105.0
6061,84.0,0,144,4.0,105.0
6062,65.0,0,180,3.0,105.0
6063,81.0,0,180,0.0,105.0
6064,65.0,0,180,5.0,105.0
6065,72.0,240,180,1.0,105.0
6066,75.0,0,180,1.0,105.0
6067,60.0,0,180,2.0,105.0
6068,75.0,0,180,5.0,105.0
6069,63.0,0,180,2.0,105.0
6070,81.0,0,144,4.0,105.0
6071,72.0,240,180,1.0,105.0
6072,65.0,0,180,5.0,105.0
6073,75.0,0,180,5.0,105.0
6074,65.0,0,180,3.0,105.0
6075,63.0,0,180,2.0,105.0
6076,75.0,0,180,1.0,105.0
6077,60.0,0,180,2.0,105.0
6078,81.0,0,180,0.0,105.0
6079,82.0,0,240,4.0,105.0
6080,82.0,0,360,0.0,105.0
6081,77.0,0,360,1.0,105.0
6082,74.0,0,360,5.0,105.0
6083,74.0,0,360,1.0,105.0
6084,62.0,0,360,3.0,105.0
6085,62.0,0,360,2.0,105.0
6086,58.0,0,360,2.0,105.0
6087,65.0,0,360,3.0,105.0
6088,65.0,0,360,5.0,105.0
6089,46.0,240,384,8.0,105.0
6090,58.0,0,384,7.0,105.0
6091,70.0,0,384,6.0,105.0
6092,77.0,240,144,4.0,105.0
6093,86.0,0,144,4.0,105.0
6094,74.0,0,180,1.0,105.0
6095,62.0,0,180,2.0,105.0
6096,58.0,0,180,2.0,105.0
6097,70.0,0,180,1.0,105.0
6098,74.0,0,180,5.0,105.0
6099,65.0,0,180,5.0,105.0
6100,65.0,240,180,3.0,105.0
6101,82.0,0,180,0.0,105.0
6102,82.0,0,144,4.0,105.0
6103,58.0,0,180,2.0,105.0
6104,74.0,0,180,5.0,105.0
6105,65.0,0,180,3.0,105.0
6106,74.0,0,180,1.0,105.0
6107,70.0,0,180,1.0,105.0
6108,82.0,240,180,0.0,105.0
6109,62.0,0,180,2.0,105.0
6110,65.0,0,180,5.0,105.0
6111,81.0,0,240,4.0,105.0
6112,75.0,240,360,5.0,105.0
6113,81.0,0,360,0.0,105.0
6114,65.0,0,360,3.0,105.0
6115,60.0,0,360,2.0,105.0
6116,72.0,0,360,1.0,105.0
6117,75.0,0,360,1.0,105.0
6118,63.0,0,360,2.0,105.0
6119,65.0,0,360,5.0,105.0
6120,77.0,240,144,4.0,105.0
6121,41.0,0,384,8.0,105.0
6122,53.0,0,384,7.0,105.0
6123,65.0,0,384,6.0,105.0
6124,84.0,0,144,4.0,105.0
6125,63.0,0,180,2.0,105.0
6126,81.0,240,180,0.0,105.0
6127,65.0,0,180,3.0,105.0
6128,60.0,0,180,2.0,105.0
6129,72.0,0,180,1.0,105.0
6130,75.0,0,180,1.0,105.0
6131,75.0,0,180,5.0,105.0
6132,65.0,0,180,5.0,105.0
6133,81.0,0,144,4.0,105.0
6134,65.0,0,180,5.0,105.0
6135,75.0,240,180,1.0,105.0
6136,60.0,0,180,2.0,105.0
6137,72.0,0,180,1.0,105.0
6138,75.0,0,180,5.0,105.0
6139,65.0,0,180,3.0,105.0
6140,81.0,0,180,0.0,105.0
6141,63.0,0,180,2.0,105.0
6142,82.0,240,240,4.0,105.0
6143,82.0,0,360,0.0,105.0
6144,74.0,0,360,5.0,105.0
6145,65.0,0,360,5.0,105.0
6146,74.0,0,360,1.0,105.0
6147,77.0,0,360,1.0,105.0
6148,65.0,0,360,3.0,105.0
6149,62.0,0,360,3.0,105.0
6150,62.0,0,360,2.0,105.0
6151,58.0,0,360,2.0,105.0
6152,46.0,0,384,8.0,105.0
6153,77.0,240,144,4.0,105.0
6154,70.0,0,384,6.0,105.0
6155,58.0,0,384,7.0,105.0
6156,86.0,0,144,4.0,105.0
6157,58.0,0,180,2.0,105.0
6158,70.0,0,180,1.0,105.0
6159,74.0,0,180,1.0,105.0
6160,62.0,0,180,2.0,105.0
6161,74.0,0,180,5.0,105.0
6162,82.0,0,180,0.0,105.0
6163,65.0,240,180,5.0,105.0
6164,65.0,0,180,3.0,105.0
6165,82.0,0,144,4.0,105.0
6166,74.0,0,180,5.0,105.0
6167,65.0,0,180,5.0,105.0
6168,62.0,240,180,2.0,105.0
6169,58.0,0,180,2.0,105.0
6170,82.0,0,180,0.0,105.0
6171,74.0,0,180,1.0,105.0
6172,70.0,0,180,1.0,105.0
6173,65.0,0,180,3.0,105.0
6174,81.0,0,240,4.0,105.0
6175,65.0,0,360,3.0,105.0
6176,63.0,0,360,2.0,105.0
6177,60.0,0,360,2.0,105.0
6178,72.0,0,360,1.0,105.0
6179,75.0,0,360,5.0,105.0
6180,65.0,0,360,5.0,105.0
6181,81.0,0,360,0.0,105.0
6182,75.0,0,360,1.0,105.0
6183,65.0,240,384,6.0,105.0
6184,53.0,0,384,7.0,105.0
6185,41.0,0,384,8.0,105.0
6186,77.0,240,144,4.0,105.0
6187,84.0,0,144,4.0,105.0
6188,65.0,0,180,5.0,105.0
6189,75.0,0,180,1.0,105.0
6190,72.0,0,180,1.0,105.0
6191,75.0,0,180,5.0,105.0
6192,65.0,0,180,3.0,105.0
6193,81.0,240,180,0.0,105.0
6194,63.0,0,180,2.0,105.0
6195,60.0,0,180,2.0,105.0
6196,81.0,0,144,4.0,105.0
6197,65.0,0,180,5.0,105.0
6198,65.0,0,180,3.0,105.0
6199,60.0,0,180,2.0,105.0
6200,75.0,0,180,1.0,105.0
6201,72.0,0,180,1.0,105.0
6202,81.0,0,180,0.0,105.0
6203,75.0,240,180,5.0,105.0
6204,63.0,0,180,2.0,105.0
6205,82.0,0,240,4.0,105.0
6206,58.0,0,360,2.0,105.0
6207,65.0,240,360,3.0,105.0
6208,62.0,0,360,2.0,105.0
6209,70.0,0,360,6.0,105.0
6210,82.0,0,360,0.0,105.0
6211,46.0,0,360,8.0,105.0
6212,74.0,0,360,5.0,105.0
6213,70.0,0,360,1.0,105.0
6214,65.0,0,360,5.0,105.0
6215,58.0,0,360,7.0,105.0
6216,74.0,0,360,1.0,105.0
6217,86.0,240,144,4.0,105.0
6218,84.0,0,144,4.0,105.0
6219,65.0,0,360,3.0,105.0
6220,65.0,0,360,6.0,105.0
6221,65.0,0,360,5.0,105.0
6222,75.0,0,360,5.0,105.0
6223,63.0,240,360,2.0,105.0
6224,72.0,0,360,1.0,105.0
6225,81.0,0,360,0.0,105.0
6226,41.0,0,360,8.0,105.0
6227,53.0,0,360,7.0,105.0
6228,60.0,0,360,2.0,105.0
6229,75.0,0,360,1.0,105.0
6230,81.0,240,144,4.0,105.0
6231,82.0,0,240,4.0,105.0
6232,65.0,0,360,5.0,105.0
6233,70.0,240,360,6.0,105.0
6234,58.0,0,360,2.0,105.0
6235,62.0,0,360,2.0,105.0
6236,74.0,0,360,5.0,105.0
6237,82.0,0,360,0.0,105.0
6238,74.0,0,360,1.0,105.0
6239,65.0,0,360,3.0,105.0
6240,70.0,0,360,1.0,105.0
6241,46.0,0,360,8.0,105.0
6242,58.0,0,360,7.0,105.0
6243,86.0,240,144,4.0,105.0
6244,84.0,0,144,4.0,105.0
6245,72.0,0,360,1.0,105.0
6246,75.0,0,360,1.0,105.0
6247,41.0,0,360,8.0,105.0
6248,65.0,240,360,5.0,105.0
6249,81.0,0,360,0.0,105.0
6250,53.0,0,360,7.0,105.0
6251,75.0,0,360,5.0,105.0
6252,63.0,0,360,2.0,105.0
6253,65.0,0,360,3.0,105.0
6254,65.0,0,360,6.0,105.0
6255,60.0,0,360,2.0,105.0
6256,81.0,240,144,4.0,105.0
6257,74.0,0,384,5.0,105.0
6258,82.0,0,384,4.0,105.0
6259,74.0,0,384,1.0,105.0
6260,70.0,0,384,1.0,105.0
6261,65.0,0,384,3.0,105.0
6262,46.0,0,384,8.0,105.0
6263,70.0,0,384,6.0,105.0
6264,58.0,240,384,7.0,105.0
6265,62.0,0,384,2.0,105.0
6266,82.0,0,384,0.0,105.0
6267,58.0,0,384,2.0,105.0
6268,65.0,0,384,5.0,105.0
6269,78.0,0,384,0.0,105.0
6270,72.0,0,384,1.0,105.0
6271,78.0,0,384,1.0,105.0
6272,78.0,0,384,5.0,105.0
6273,45.0,0,384,8.0,105.0
6274,57.0,1920,384,2.0,105.0
6275,62.0,0,384,5.0,105.0
6276,78.0,0,384,4.0,105.0
6277,57.0,0,384,7.0,105.0
6278,69.0,0,384,6.0,105.0
6279,72.0,0,384,5.0,105.0
6280,62.0,0,384,3.0,105.0
6281,62.0,0,384,4.0,105.0
6282,72.0,0,384,4.0,105.0
6283,79.0,0,384,0.0,105.0
6284,70.0,0,384,5.0,105.0
6285,79.0,0,384,1.0,105.0
6286,79.0,0,384,5.0,105.0
6287,62.0,0,384,5.0,105.0
6288,58.0,0,384,3.0,105.0
6289,62.0,0,384,3.0,105.0
6290,67.0,0,384,6.0,105.0
6291,70.0,0,384,4.0,105.0
6292,55.0,0,384,2.0,105.0
6293,62.0,0,384,4.0,105.0
6294,55.0,1920,384,7.0,105.0
6295,43.0,0,384,8.0,105.0
6296,79.0,0,384,4.0,105.0
6297,41.0,0,384,8.0,105.0
6298,80.0,0,384,5.0,105.0
6299,62.0,0,384,5.0,105.0
6300,71.0,0,384,5.0,105.0
6301,53.0,0,384,7.0,105.0
6302,65.0,0,384,6.0,105.0
6303,80.0,0,384,0.0,105.0
6304,80.0,0,384,4.0,105.0
6305,71.0,0,384,4.0,105.0
6306,62.0,0,384,4.0,105.0
6307,53.0,0,384,2.0,105.0
6308,62.0,0,384,3.0,105.0
6309,65.0,0,384,3.0,105.0
6310,80.0,960,384,1.0,105.0
6311,86.0,960,1920,0.0,70.0
6312,62.0,0,1920,2.0,70.0
6313,59.0,0,1920,2.0,70.0
6314,83.0,0,1920,1.0,70.0
6315,57.0,1920,960,2.0,70.0
6316,85.0,0,960,0.0,70.0
6317,61.0,0,960,2.0,70.0
6318,81.0,0,960,1.0,70.0
6319,62.0,0,240,5.0,70.0
6320,74.0,480,240,4.0,70.0
6321,61.0,0,192,5.0,70.0
6322,73.0,240,192,4.0,70.0
6323,56.0,0,960,2.0,70.0
6324,59.0,0,960,2.0,70.0
6325,83.0,960,960,0.0,70.0
6326,80.0,0,960,1.0,70.0
6327,61.0,0,384,5.0,70.0
6328,73.0,0,384,4.0,70.0
6329,62.0,480,240,5.0,70.0
6330,74.0,0,240,4.0,70.0
6331,73.0,0,192,4.0,70.0
6332,61.0,240,192,5.0,70.0
6333,78.0,0,960,1.0,70.0
6334,81.0,0,960,0.0,70.0
6335,54.0,0,960,2.0,70.0
6336,57.0,240,960,2.0,70.0
6337,73.0,240,384,4.0,70.0
6338,61.0,0,384,5.0,70.0
6339,62.0,0,240,5.0,70.0
6340,74.0,480,240,4.0,70.0
6341,61.0,0,192,5.0,70.0
6342,73.0,240,192,4.0,70.0
6343,77.0,0,960,1.0,70.0
6344,56.0,0,960,2.0,70.0
6345,53.0,0,960,2.0,70.0
6346,80.0,0,960,0.0,70.0
6347,57.0,0,192,6.0,58.0
6348,54.0,0,192,6.0,58.0
6349,42.0,0,384,7.0,58.0
6350,78.0,0,384,1.0,70.0
6351,78.0,240,384,0.0,58.0
6352,30.0,0,384,8.0,58.0
6353,54.0,0,384,2.0,70.0
6354,54.0,0,192,6.0,58.0
6355,57.0,240,192,6.0,58.0
6356,73.0,0,480,4.0,70.0
6357,61.0,0,480,5.0,70.0
6358,61.0,0,192,6.0,58.0
6359,66.0,0,192,6.0,58.0
6360,69.0,0,384,5.0,70.0
6361,81.0,240,384,4.0,70.0
6362,61.0,240,192,6.0,58.0
6363,66.0,0,192,6.0,58.0
6364,54.0,240,192,6.0,58.0
6365,57.0,0,192,6.0,58.0
6366,54.0,240,192,6.0,58.0
6367,57.0,0,192,6.0,58.0
6368,66.0,0,192,6.0,58.0
6369,61.0,240,192,6.0,58.0
6370,69.0,0,240,5.0,70.0
6371,81.0,0,240,4.0,70.0
6372,80.0,0,192,4.0,70.0
6373,61.0,0,192,6.0,58.0
6374,66.0,240,192,6.0,58.0
6375,68.0,0,192,5.0,70.0
6376,54.0,0,192,6.0,58.0
6377,57.0,0,192,6.0,58.0
6378,54.0,240,384,7.0,58.0
6379,66.0,0,384,5.0,70.0
6380,78.0,0,384,4.0,70.0
6381,42.0,0,384,8.0,58.0
6382,57.0,0,192,6.0,58.0
6383,54.0,240,192,6.0,58.0
6384,61.0,0,192,6.0,58.0
6385,57.0,0,192,6.0,58.0
6386,78.0,0,240,4.0,70.0
6387,66.0,240,240,5.0,70.0
6388,64.0,0,192,5.0,70.0
6389,76.0,0,192,4.0,70.0
6390,57.0,240,192,6.0,58.0
6391,61.0,0,192,6.0,58.0
6392,54.0,0,192,6.0,58.0
6393,57.0,240,192,6.0,58.0
6394,62.0,0,384,5.0,70.0
6395,74.0,0,384,4.0,70.0
6396,57.0,240,192,6.0,58.0
6397,54.0,0,192,6.0,58.0
6398,66.0,0,192,6.0,58.0
6399,61.0,240,192,6.0,58.0
6400,62.0,0,240,5.0,70.0
6401,74.0,0,240,4.0,70.0
6402,61.0,0,192,5.0,70.0
6403,73.0,0,192,4.0,70.0
6404,66.0,240,192,6.0,58.0
6405,61.0,0,192,6.0,58.0
6406,56.0,240,192,6.0,58.0
6407,63.0,0,192,6.0,58.0
6408,60.0,0,384,5.0,70.0
6409,72.0,0,384,4.0,70.0
6410,30.0,0,384,8.0,58.0
6411,42.0,0,384,7.0,58.0
6412,56.0,240,192,6.0,58.0
6413,63.0,0,192,6.0,58.0
6414,63.0,0,192,6.0,58.0
6415,68.0,0,192,6.0,58.0
6416,72.0,0,384,4.0,70.0
6417,60.0,240,384,5.0,70.0
6418,68.0,0,192,6.0,58.0
6419,63.0,240,192,6.0,58.0
6420,56.0,0,192,6.0,58.0
6421,63.0,240,192,6.0,58.0
6422,63.0,0,192,6.0,58.0
6423,56.0,240,192,6.0,58.0
6424,63.0,0,192,6.0,58.0
6425,68.0,240,192,6.0,58.0
6426,73.0,0,240,4.0,70.0
6427,61.0,0,240,5.0,70.0
6428,59.0,0,192,5.0,70.0
6429,71.0,0,192,4.0,70.0
6430,63.0,240,192,6.0,58.0
6431,68.0,0,192,6.0,58.0
6432,63.0,0,1920,2.0,58.0
6433,56.0,0,192,6.0,58.0
6434,62.0,0,192,6.0,58.0
6435,42.0,0,384,8.0,58.0
6436,71.0,0,384,4.0,70.0
6437,54.0,0,384,7.0,58.0
6438,59.0,240,384,5.0,70.0
6439,62.0,0,192,6.0,58.0
6440,56.0,240,192,6.0,58.0
6441,68.0,0,192,6.0,58.0
6442,62.0,0,192,6.0,58.0
6443,61.0,0,240,5.0,70.0
6444,73.0,240,240,4.0,70.0
6445,71.0,0,192,4.0,70.0
6446,62.0,0,192,6.0,58.0
6447,68.0,240,192,6.0,58.0
6448,59.0,0,192,5.0,70.0
6449,56.0,0,192,6.0,58.0
6450,62.0,0,192,6.0,58.0
6451,71.0,0,384,4.0,70.0
6452,59.0,240,384,5.0,70.0
6453,62.0,0,192,6.0,58.0
6454,56.0,240,192,6.0,58.0
6455,62.0,0,1536,2.0,70.0
6456,54.0,0,3456,2.0,58.0
6457,62.0,0,192,6.0,58.0
6458,68.0,0,192,6.0,58.0
6459,61.0,0,240,5.0,70.0
6460,73.0,240,240,4.0,70.0
6461,68.0,0,192,6.0,58.0
6462,59.0,240,192,5.0,70.0
6463,71.0,0,192,4.0,70.0
6464,62.0,0,192,6.0,58.0
6465,61.0,0,192,6.0,58.0
6466,56.0,0,192,6.0,58.0
6467,41.0,240,384,7.0,58.0
6468,29.0,0,384,8.0,58.0
6469,56.0,0,192,6.0,58.0
6470,61.0,240,192,6.0,58.0
6471,71.0,0,480,4.0,70.0
6472,59.0,0,480,5.0,70.0
6473,61.0,0,192,6.0,58.0
6474,71.0,0,192,6.0,58.0
6475,80.0,240,384,4.0,70.0
6476,68.0,0,384,5.0,70.0
6477,71.0,0,192,6.0,58.0
6478,61.0,240,192,6.0,58.0
6479,61.0,240,192,6.0,58.0
6480,56.0,0,192,6.0,58.0
6481,56.0,0,192,6.0,58.0
6482,61.0,240,192,6.0,58.0
6483,71.0,0,192,6.0,58.0
6484,61.0,0,192,6.0,58.0
6485,68.0,0,240,5.0,70.0
6486,80.0,240,240,4.0,70.0
6487,61.0,0,192,6.0,58.0
6488,66.0,0,192,5.0,70.0
6489,71.0,240,192,6.0,58.0
6490,78.0,0,192,4.0,70.0
6491,61.0,240,192,6.0,58.0
6492,56.0,0,192,6.0,58.0
6493,41.0,0,384,8.0,58.0
6494,65.0,0,384,5.0,70.0
6495,77.0,0,384,4.0,70.0
6496,53.0,0,384,7.0,58.0
6497,56.0,240,192,6.0,58.0
6498,61.0,0,192,6.0,58.0
6499,68.0,0,192,6.0,58.0
6500,61.0,0,192,6.0,58.0
6501,77.0,0,240,4.0,70.0
6502,65.0,240,240,5.0,70.0
6503,68.0,0,192,6.0,58.0
6504,62.0,240,192,5.0,70.0
6505,61.0,0,192,6.0,58.0
6506,74.0,0,192,4.0,70.0
6507,56.0,0,192,6.0,58.0
6508,61.0,0,192,6.0,58.0
6509,73.0,240,384,4.0,70.0
6510,61.0,0,384,5.0,70.0
6511,56.0,0,192,6.0,58.0
6512,61.0,240,192,6.0,58.0
6513,68.0,0,192,6.0,58.0
6514,61.0,0,192,6.0,58.0
6515,73.0,0,240,4.0,70.0
6516,61.0,240,240,5.0,70.0
6517,68.0,240,192,6.0,58.0
6518,61.0,0,192,6.0,58.0
6519,59.0,0,192,5.0,70.0
6520,71.0,0,192,4.0,70.0
6521,53.0,0,3840,2.0,70.0
6522,61.0,0,192,6.0,58.0
6523,55.0,0,192,6.0,58.0
6524,28.0,240,384,8.0,58.0
6525,70.0,0,384,4.0,70.0
6526,58.0,0,384,5.0,70.0
6527,40.0,0,384,7.0,58.0
6528,55.0,0,192,6.0,58.0
6529,61.0,240,192,6.0,58.0
6530,61.0,0,192,6.0,58.0
6531,67.0,0,192,6.0,58.0
6532,70.0,240,384,4.0,70.0
6533,58.0,0,384,5.0,70.0
6534,67.0,240,192,6.0,58.0
6535,61.0,0,192,6.0,58.0
6536,55.0,0,192,6.0,58.0
6537,61.0,240,192,6.0,58.0
6538,61.0,0,192,6.0,58.0
6539,55.0,240,192,6.0,58.0
6540,61.0,0,192,6.0,58.0
6541,67.0,0,192,6.0,58.0
6542,71.0,240,240,4.0,70.0
6543,59.0,0,240,5.0,70.0
6544,61.0,0,5664,2.0,70.0
6545,57.0,240,192,5.0,70.0
6546,67.0,0,192,6.0,58.0
6547,61.0,0,192,6.0,58.0
6548,69.0,0,192,4.0,70.0
6549,54.0,0,192,6.0,58.0
6550,60.0,240,192,6.0,58.0
6551,57.0,0,384,5.0,70.0
6552,40.0,0,384,8.0,58.0
6553,69.0,0,384,4.0,70.0
6554,52.0,0,384,7.0,58.0
6555,54.0,240,192,6.0,58.0
6556,60.0,0,192,6.0,58.0
6557,60.0,0,192,6.0,58.0
6558,66.0,240,192,6.0,58.0
6559,71.0,0,240,4.0,70.0
6560,59.0,0,240,5.0,70.0
6561,57.0,0,192,5.0,70.0
6562,69.0,240,192,4.0,70.0
6563,60.0,0,192,6.0,58.0
6564,66.0,0,192,6.0,58.0
6565,54.0,0,192,6.0,58.0
6566,60.0,0,192,6.0,58.0
6567,69.0,0,384,4.0,70.0
6568,57.0,240,384,5.0,70.0
6569,54.0,240,192,6.0,58.0
6570,60.0,0,192,6.0,58.0
6571,60.0,0,192,6.0,58.0
6572,66.0,0,192,6.0,58.0
6573,71.0,240,240,4.0,70.0
6574,59.0,0,240,5.0,70.0
6575,60.0,0,1824,2.0,70.0
6576,52.0,0,3744,2.0,70.0
6577,69.0,240,192,4.0,70.0
6578,57.0,0,192,5.0,70.0
6579,66.0,0,192,6.0,58.0
6580,60.0,0,192,6.0,58.0
6581,59.0,0,192,6.0,58.0
6582,54.0,0,192,6.0,58.0
6583,27.0,0,384,8.0,58.0
6584,39.0,0,384,7.0,58.0
6585,59.0,0,192,6.0,58.0
6586,54.0,240,192,6.0,58.0
6587,69.0,0,480,4.0,70.0
6588,57.0,0,480,5.0,70.0
6589,59.0,0,192,6.0,58.0
6590,69.0,0,192,6.0,58.0
6591,66.0,240,384,5.0,70.0
6592,78.0,0,384,4.0,70.0
6593,59.0,0,192,6.0,58.0
6594,69.0,240,192,6.0,58.0
6595,54.0,240,192,6.0,58.0
6596,59.0,0,192,6.0,58.0
6597,54.0,0,192,6.0,58.0
6598,59.0,240,192,6.0,58.0
6599,59.0,240,192,6.0,58.0
6600,69.0,0,192,6.0,58.0
6601,66.0,0,240,5.0,70.0
6602,78.0,0,240,4.0,70.0
6603,64.0,0,192,5.0,70.0
6604,76.0,0,192,4.0,70.0
6605,69.0,240,192,6.0,58.0
6606,59.0,0,192,6.0,58.0
6607,57.0,0,192,6.0,58.0
6608,54.0,0,192,6.0,58.0
6609,75.0,0,384,4.0,70.0
6610,63.0,240,384,5.0,70.0
6611,47.0,0,384,7.0,58.0
6612,35.0,0,384,8.0,58.0
6613,57.0,0,192,6.0,58.0
6614,54.0,240,192,6.0,58.0
6615,66.0,0,192,6.0,58.0
6616,57.0,240,192,6.0,58.0
6617,75.0,0,240,4.0,70.0
6618,63.0,0,240,5.0,70.0
6619,72.0,0,192,4.0,70.0
6620,57.0,0,192,6.0,58.0
6621,66.0,240,192,6.0,58.0
6622,60.0,0,192,5.0,70.0
6623,71.0,0,144,4.0,70.0
6624,54.0,0,384,6.0,58.0
6625,63.0,240,384,6.0,58.0
6626,75.0,240,144,4.0,92.0
6627,59.0,0,384,5.0,70.0
6628,59.0,240,3288,2.0,70.0
6629,51.0,0,3288,2.0,70.0
6630,78.0,0,144,4.0,92.0
6631,78.0,0,144,5.0,92.0
6632,48.0,0,240,8.0,58.0
6633,60.0,0,240,6.0,105.0
6634,60.0,0,240,7.0,105.0
6635,60.0,0,240,2.0,70.0
6636,69.0,0,144,4.0,92.0
6637,69.0,0,144,5.0,92.0
6638,81.0,0,384,1.0,105.0
6639,59.0,240,192,6.0,105.0
6640,59.0,0,192,2.0,105.0
6641,47.0,0,192,8.0,105.0
6642,59.0,0,192,7.0,105.0
6643,67.0,0,144,4.0,92.0
6644,67.0,0,144,5.0,92.0
6645,71.0,240,144,5.0,92.0
6646,78.0,0,864,1.0,105.0
6647,59.0,0,384,7.0,105.0
6648,90.0,240,864,0.0,105.0
6649,47.0,0,384,8.0,105.0
6650,59.0,240,384,2.0,105.0
6651,59.0,0,384,6.0,105.0
6652,71.0,0,144,4.0,92.0
6653,76.0,240,144,5.0,92.0
6654,76.0,0,144,4.0,92.0
6655,60.0,0,240,6.0,105.0
6656,60.0,0,240,2.0,105.0
6657,48.0,0,240,8.0,105.0
6658,60.0,0,240,7.0,105.0
6659,59.0,0,768,3.0,105.0
6660,69.0,0,144,5.0,92.0
6661,79.0,0,864,1.0,105.0
6662,69.0,240,144,4.0,92.0
6663,47.0,0,192,8.0,105.0
6664,59.0,0,192,7.0,105.0
6665,59.0,0,192,2.0,105.0
6666,59.0,0,192,6.0,105.0
6667,66.0,0,144,4.0,92.0
6668,66.0,0,144,5.0,92.0
6669,88.0,0,768,0.0,105.0
6670,47.0,0,384,8.0,105.0
6671,69.0,240,144,5.0,92.0
6672,59.0,0,384,2.0,105.0
6673,69.0,0,144,4.0,92.0
6674,76.0,0,864,1.0,105.0
6675,59.0,0,384,7.0,105.0
6676,59.0,0,384,6.0,105.0
6677,59.0,240,576,3.0,105.0
6678,75.0,0,144,4.0,92.0
6679,75.0,0,144,5.0,92.0
6680,48.0,0,240,8.0,105.0
6681,60.0,0,240,7.0,105.0
6682,60.0,0,240,2.0,105.0
6683,60.0,0,240,6.0,105.0
6684,87.0,240,384,0.0,105.0
6685,66.0,0,144,4.0,92.0
6686,75.0,0,384,1.0,105.0
6687,78.0,0,864,1.0,105.0
6688,66.0,0,144,5.0,92.0
6689,59.0,240,192,3.0,105.0
6690,47.0,0,192,8.0,105.0
6691,59.0,0,192,7.0,105.0
6692,59.0,0,192,6.0,105.0
6693,59.0,0,192,2.0,105.0
6694,67.0,0,144,4.0,92.0
6695,67.0,0,144,5.0,92.0
6696,59.0,0,384,3.0,105.0
6697,88.0,0,384,0.0,105.0
6698,71.0,240,144,4.0,92.0
6699,76.0,0,384,1.0,105.0
6700,79.0,0,384,1.0,105.0
6701,71.0,0,144,5.0,92.0
6702,47.0,240,480,8.0,105.0
6703,59.0,0,480,7.0,105.0
6704,59.0,0,480,2.0,105.0
6705,59.0,0,480,6.0,105.0
6706,73.0,0,144,5.0,92.0
6707,73.0,0,144,4.0,92.0
6708,75.0,0,144,4.0,92.0
6709,75.0,240,144,5.0,92.0
6710,67.0,0,384,3.0,105.0
6711,55.0,0,384,8.0,105.0
6712,67.0,0,384,7.0,105.0
6713,67.0,240,384,2.0,105.0
6714,67.0,0,384,6.0,105.0
6715,76.0,0,144,4.0,92.0
6716,76.0,240,144,5.0,92.0
6717,71.0,0,144,4.0,92.0
6718,71.0,240,144,5.0,92.0
6719,76.0,0,144,4.0,92.0
6720,76.0,0,144,5.0,92.0
6721,67.0,0,240,7.0,105.0
6722,67.0,240,240,2.0,105.0
6723,67.0,0,240,6.0,105.0
6724,55.0,0,240,8.0,105.0
6725,78.0,0,144,4.0,92.0
6726,78.0,0,144,5.0,92.0
6727,66.0,0,192,7.0,105.0
6728,54.0,0,192,8.0,105.0
6729,66.0,0,192,2.0,105.0
6730,66.0,240,192,6.0,105.0
6731,79.0,0,144,4.0,92.0
6732,79.0,0,144,5.0,92.0
6733,76.0,240,144,4.0,92.0
6734,64.0,0,384,7.0,105.0
6735,64.0,240,384,6.0,105.0
6736,76.0,0,144,5.0,92.0
6737,64.0,0,384,2.0,105.0
6738,52.0,0,384,8.0,105.0
6739,78.0,0,144,5.0,92.0
6740,78.0,0,144,4.0,92.0
6741,64.0,240,240,7.0,105.0
6742,64.0,0,240,6.0,105.0
6743,52.0,0,240,8.0,105.0
6744,64.0,0,240,2.0,105.0
6745,80.0,0,144,5.0,92.0
6746,80.0,240,144,4.0,92.0
6747,62.0,0,192,2.0,105.0
6748,62.0,0,192,7.0,105.0
6749,50.0,0,192,8.0,105.0
6750,62.0,0,192,6.0,105.0
6751,81.0,0,144,4.0,92.0
6752,81.0,0,144,5.0,92.0
6753,60.0,0,384,7.0,105.0
6754,60.0,240,384,6.0,105.0
6755,60.0,0,384,2.0,105.0
6756,48.0,0,384,8.0,105.0
6757,76.0,240,144,4.0,92.0
6758,76.0,0,144,5.0,92.0
6759,81.0,0,144,5.0,92.0
6760,81.0,0,144,4.0,92.0
6761,60.0,0,240,7.0,105.0
6762,60.0,240,240,6.0,105.0
6763,48.0,0,240,8.0,105.0
6764,60.0,0,240,2.0,105.0
6765,83.0,0,144,5.0,92.0
6766,83.0,0,144,4.0,92.0
6767,47.0,0,192,8.0,105.0
6768,59.0,0,192,6.0,105.0
6769,59.0,0,192,2.0,105.0
6770,59.0,240,192,7.0,105.0
6771,57.0,0,144,6.0,105.0
6772,57.0,0,144,2.0,105.0
6773,57.0,0,144,7.0,105.0
6774,45.0,0,144,8.0,92.0
6775,84.0,0,336,4.0,105.0
6776,84.0,0,336,5.0,105.0
6777,59.0,0,144,2.0,105.0
6778,59.0,0,144,7.0,92.0
6779,47.0,0,144,8.0,92.0
6780,59.0,240,144,6.0,92.0
6781,60.0,0,144,6.0,92.0
6782,60.0,0,144,2.0,105.0
6783,48.0,0,144,8.0,92.0
6784,60.0,240,144,7.0,92.0
6785,69.0,0,336,5.0,105.0
6786,69.0,0,336,4.0,105.0
6787,59.0,0,144,7.0,92.0
6788,59.0,0,144,2.0,105.0
6789,47.0,240,144,8.0,92.0
6790,59.0,0,144,6.0,92.0
6791,45.0,0,144,8.0,92.0
6792,57.0,240,144,7.0,92.0
6793,57.0,0,144,2.0,105.0
6794,57.0,0,144,6.0,92.0
6795,46.0,0,144,8.0,92.0
6796,58.0,240,144,6.0,92.0
6797,58.0,0,144,7.0,92.0
6798,58.0,0,144,2.0,105.0
6799,69.0,240,1536,3.0,105.0
6800,55.0,240,144,7.0,92.0
6801,55.0,0,144,2.0,105.0
6802,55.0,0,144,6.0,92.0
6803,43.0,0,144,8.0,92.0
6804,70.0,0,240,5.0,105.0
6805,82.0,0,240,4.0,116.0
6806,45.0,0,144,8.0,92.0
6807,57.0,0,144,2.0,105.0
6808,57.0,0,144,6.0,92.0
6809,57.0,0,144,7.0,92.0
6810,81.0,0,192,4.0,116.0
6811,69.0,240,192,5.0,105.0
6812,53.0,0,144,6.0,92.0
6813,41.0,0,144,8.0,92.0
6814,53.0,0,144,2.0,105.0
6815,53.0,0,144,7.0,92.0
6816,57.0,240,144,2.0,105.0
6817,88.0,0,864,0.0,105.0
6818,45.0,0,144,8.0,92.0
6819,57.0,0,144,6.0,92.0
6820,57.0,0,144,7.0,92.0
6821,81.0,0,384,4.0,116.0
6822,76.0,0,864,1.0,105.0
6823,69.0,240,384,5.0,105.0
6824,62.0,0,144,6.0,92.0
6825,62.0,0,144,7.0,92.0
6826,50.0,0,144,8.0,92.0
6827,62.0,0,144,2.0,105.0
6828,82.0,0,240,4.0,116.0
6829,70.0,0,240,5.0,105.0
6830,69.0,0,768,3.0,105.0
6831,81.0,0,864,1.0,105.0
6832,53.0,240,144,2.0,105.0
6833,53.0,0,144,6.0,92.0
6834,41.0,0,144,8.0,92.0
6835,53.0,0,144,7.0,92.0
6836,69.0,0,192,5.0,105.0
6837,81.0,0,192,4.0,116.0
6838,52.0,0,144,2.0,105.0
6839,52.0,0,144,7.0,92.0
6840,40.0,0,144,8.0,92.0
6841,52.0,0,144,6.0,92.0
6842,86.0,240,768,0.0,105.0
6843,55.0,0,144,2.0,105.0
6844,81.0,0,384,4.0,116.0
6845,74.0,0,864,1.0,105.0
6846,43.0,240,144,8.0,92.0
6847,55.0,0,144,6.0,92.0
6848,69.0,0,384,5.0,105.0
6849,55.0,0,144,7.0,92.0
6850,61.0,0,144,7.0,92.0
6851,49.0,0,144,8.0,92.0
6852,61.0,0,144,6.0,92.0
6853,61.0,0,144,2.0,105.0
6854,82.0,240,240,4.0,116.0
6855,70.0,0,240,5.0,105.0
6856,69.0,0,768,3.0,105.0
6857,40.0,240,144,8.0,92.0
6858,85.0,0,384,0.0,105.0
6859,52.0,0,144,7.0,92.0
6860,52.0,0,144,6.0,92.0
6861,52.0,0,144,2.0,105.0
6862,73.0,0,384,1.0,105.0
6863,79.0,240,864,1.0,105.0
6864,81.0,0,192,4.0,116.0
6865,69.0,0,192,5.0,105.0
6866,38.0,0,144,8.0,92.0
6867,50.0,0,144,7.0,92.0
6868,50.0,0,144,6.0,92.0
6869,50.0,0,144,2.0,105.0
6870,45.0,240,144,7.0,92.0
6871,86.0,0,384,0.0,105.0
6872,57.0,0,144,6.0,92.0
6873,74.0,0,384,1.0,105.0
6874,45.0,0,144,2.0,105.0
6875,33.0,0,144,8.0,92.0
6876,77.0,0,384,1.0,105.0
6877,69.0,0,480,5.0,105.0
6878,81.0,0,480,4.0,116.0
6879,35.0,0,144,8.0,92.0
6880,47.0,240,144,2.0,105.0
6881,59.0,0,144,6.0,92.0
6882,47.0,0,144,7.0,92.0
6883,77.0,0,384,5.0,105.0
6884,89.0,0,384,4.0,116.0
6885,49.0,0,144,7.0,92.0
6886,49.0,240,144,2.0,105.0
6887,37.0,0,144,8.0,92.0
6888,61.0,0,144,6.0,92.0
6889,50.0,0,144,2.0,105.0
6890,62.0,0,144,6.0,92.0
6891,38.0,240,144,8.0,92.0
6892,50.0,0,144,7.0,92.0
6893,45.0,240,144,7.0,92.0
6894,57.0,0,144,6.0,92.0
6895,33.0,0,144,8.0,92.0
6896,45.0,0,144,2.0,105.0
6897,62.0,240,1536,3.0,105.0
6898,69.0,0,1536,3.0,105.0
6899,50.0,0,144,7.0,92.0
6900,62.0,0,144,6.0,92.0
6901,38.0,0,144,8.0,92.0
6902,50.0,0,144,2.0,105.0
6903,77.0,0,240,5.0,105.0
6904,89.0,240,240,4.0,116.0
6905,52.0,0,144,7.0,92.0
6906,64.0,0,144,6.0,92.0
6907,52.0,240,144,2.0,105.0
6908,40.0,0,144,8.0,92.0
6909,76.0,0,192,5.0,105.0
6910,88.0,0,192,4.0,116.0
6911,53.0,0,144,7.0,92.0
6912,65.0,0,144,6.0,92.0
6913,41.0,0,144,8.0,92.0
6914,53.0,0,144,2.0,105.0
6915,62.0,0,144,6.0,92.0
6916,74.0,0,384,5.0,105.0
6917,50.0,240,144,2.0,105.0
6918,86.0,0,384,4.0,116.0
6919,50.0,0,144,7.0,92.0
6920,38.0,0,144,8.0,92.0
6921,52.0,0,144,2.0,105.0
6922,52.0,0,144,7.0,92.0
6923,40.0,0,144,8.0,92.0
6924,64.0,0,144,6.0,92.0
6925,74.0,240,240,5.0,105.0
6926,86.0,0,240,4.0,116.0
6927,62.0,240,768,3.0,105.0
6928,50.0,0,768,3.0,105.0
6929,54.0,0,144,2.0,105.0
6930,42.0,0,144,8.0,92.0
6931,54.0,240,144,7.0,92.0
6932,66.0,0,144,6.0,92.0
6933,84.0,0,192,4.0,116.0
6934,72.0,0,192,5.0,105.0
6935,55.0,0,144,7.0,92.0
6936,43.0,0,144,8.0,92.0
6937,67.0,0,144,6.0,92.0
6938,55.0,240,144,2.0,105.0
6939,50.0,0,144,7.0,92.0
6940,62.0,0,144,6.0,92.0
6941,38.0,240,144,8.0,92.0
6942,50.0,0,144,2.0,105.0
6943,82.0,0,384,4.0,116.0
6944,70.0,0,384,5.0,105.0
6945,66.0,0,144,6.0,92.0
6946,42.0,0,144,8.0,92.0
6947,54.0,240,144,2.0,105.0
6948,54.0,0,144,7.0,92.0
6949,70.0,0,240,5.0,105.0
6950,82.0,0,240,4.0,116.0
6951,62.0,0,768,3.0,105.0
6952,50.0,0,768,3.0,105.0
6953,57.0,0,144,2.0,105.0
6954,69.0,0,144,6.0,92.0
6955,45.0,240,144,8.0,92.0
6956,57.0,0,144,7.0,92.0
6957,81.0,0,192,4.0,116.0
6958,69.0,0,192,5.0,105.0
6959,79.0,0,144,4.0,92.0
6960,70.0,0,336,6.0,105.0
6961,58.0,240,336,7.0,105.0
6962,46.0,0,336,8.0,105.0
6963,62.0,0,384,3.0,105.0
6964,67.0,0,384,5.0,92.0
6965,74.0,240,144,4.0,92.0
6966,58.0,0,384,2.0,105.0
6967,55.0,0,384,3.0,105.0
6968,70.0,0,144,5.0,92.0
6969,70.0,0,144,4.0,92.0
6970,31.0,0,336,8.0,105.0
6971,43.0,0,336,7.0,105.0
6972,55.0,0,336,6.0,105.0
6973,58.0,0,384,3.0,105.0
6974,72.0,240,144,4.0,92.0
6975,43.0,240,384,2.0,105.0
6976,55.0,0,384,3.0,105.0
6977,72.0,0,144,5.0,92.0
6978,74.0,240,144,5.0,92.0
6979,74.0,0,144,4.0,92.0
6980,67.0,0,1152,1.0,105.0
6981,71.0,240,144,5.0,92.0
6982,71.0,0,144,4.0,92.0
6983,74.0,0,144,4.0,92.0
6984,74.0,0,144,5.0,92.0
6985,57.0,0,240,7.0,105.0
6986,57.0,0,240,2.0,105.0
6987,57.0,0,240,6.0,105.0
6988,45.0,0,240,8.0,105.0
6989,77.0,240,384,1.0,105.0
6990,65.0,240,144,5.0,92.0
6991,65.0,0,144,4.0,92.0
6992,43.0,0,192,8.0,105.0
6993,55.0,0,192,6.0,105.0
6994,55.0,0,192,7.0,105.0
6995,55.0,0,192,2.0,105.0
6996,64.0,0,144,5.0,92.0
6997,64.0,240,144,4.0,92.0
6998,67.0,0,144,4.0,92.0
6999,86.0,0,864,0.0,105.0
7000,67.0,240,144,5.0,92.0
7001,43.0,0,384,8.0,105.0
7002,74.0,0,864,1.0,105.0
7003,55.0,0,384,7.0,105.0
7004,55.0,0,384,2.0,105.0
7005,55.0,0,384,6.0,105.0
7006,72.0,0,144,4.0,92.0
7007,72.0,0,144,5.0,92.0
7008,45.0,0,240,8.0,105.0
7009,57.0,240,240,6.0,105.0
7010,57.0,0,240,7.0,105.0
7011,57.0,0,240,2.0,105.0
7012,55.0,0,768,3.0,105.0
7013,64.0,0,144,4.0,92.0
7014,64.0,0,144,5.0,92.0
7015,76.0,0,864,1.0,105.0
7016,55.0,240,192,6.0,105.0
7017,55.0,0,192,2.0,105.0
7018,43.0,0,192,8.0,105.0
7019,55.0,0,192,7.0,105.0
7020,62.0,0,144,4.0,92.0
7021,62.0,0,144,5.0,92.0
7022,84.0,0,768,0.0,105.0
7023,65.0,0,144,5.0,92.0
7024,43.0,0,384,8.0,105.0
7025,55.0,0,384,6.0,105.0
7026,72.0,0,864,1.0,105.0
7027,55.0,0,384,7.0,105.0
7028,65.0,240,144,4.0,92.0
7029,55.0,0,384,2.0,105.0
7030,55.0,240,576,3.0,105.0
7031,71.0,0,144,5.0,92.0
7032,71.0,0,144,4.0,92.0
7033,45.0,0,240,8.0,105.0
7034,57.0,0,240,7.0,105.0
7035,57.0,0,240,2.0,105.0
7036,57.0,240,240,6.0,105.0
7037,71.0,0,384,1.0,105.0
7038,74.0,0,864,1.0,105.0
7039,62.0,0,144,4.0,92.0
7040,62.0,0,144,5.0,92.0
7041,83.0,0,384,0.0,105.0
7042,43.0,0,192,8.0,105.0
7043,55.0,240,192,6.0,105.0
7044,55.0,0,192,7.0,105.0
7045,55.0,0,192,3.0,105.0
7046,55.0,0,192,2.0,105.0
7047,64.0,0,144,4.0,92.0
7048,64.0,240,144,5.0,92.0
7049,84.0,0,384,0.0,105.0
7050,72.0,0,384,1.0,105.0
7051,67.0,240,144,5.0,92.0
7052,67.0,0,144,4.0,92.0
7053,76.0,0,384,1.0,105.0
7054,43.0,0,480,8.0,105.0
7055,55.0,0,480,2.0,105.0
7056,55.0,0,480,7.0,105.0
7057,55.0,0,480,6.0,105.0
7058,69.0,0,144,4.0,92.0
7059,69.0,0,144,5.0,92.0
7060,55.0,0,768,3.0,105.0
7061,64.0,240,384,2.0,105.0
7062,64.0,0,384,7.0,105.0
7063,64.0,0,384,6.0,105.0
7064,71.0,0,144,4.0,92.0
7065,52.0,0,384,8.0,105.0
7066,71.0,240,144,5.0,92.0
7067,72.0,240,144,5.0,92.0
7068,72.0,0,144,4.0,92.0
7069,67.0,240,144,4.0,92.0
7070,67.0,0,144,5.0,92.0
7071,72.0,0,144,5.0,92.0
7072,72.0,240,144,4.0,92.0
7073,64.0,0,240,6.0,105.0
7074,64.0,0,240,7.0,105.0
7075,64.0,0,240,2.0,105.0
7076,52.0,0,240,8.0,105.0
7077,72.0,0,1728,3.0,105.0
7078,74.0,0,144,5.0,92.0
7079,74.0,0,144,4.0,92.0
7080,62.0,0,192,6.0,105.0
7081,62.0,0,192,7.0,105.0
7082,50.0,240,192,8.0,105.0
7083,62.0,0,192,2.0,105.0
7084,76.0,0,144,4.0,92.0
7085,76.0,0,144,5.0,92.0
7086,48.0,0,384,8.0,105.0
7087,72.0,240,144,5.0,92.0
7088,60.0,0,384,2.0,105.0
7089,60.0,0,384,7.0,105.0
7090,72.0,0,144,4.0,92.0
7091,60.0,240,384,6.0,105.0
7092,74.0,240,144,5.0,92.0
7093,74.0,0,144,4.0,92.0
7094,48.0,0,240,8.0,105.0
7095,60.0,0,240,2.0,105.0
7096,60.0,0,240,6.0,105.0
7097,60.0,0,240,7.0,105.0
7098,72.0,0,768,3.0,105.0
7099,76.0,0,144,4.0,92.0
7100,76.0,0,144,5.0,92.0
7101,58.0,0,192,2.0,105.0
7102,58.0,0,192,6.0,105.0
7103,58.0,0,192,7.0,105.0
7104,46.0,240,192,8.0,105.0
7105,77.0,0,144,5.0,92.0
7106,77.0,0,144,4.0,92.0
7107,72.0,240,144,5.0,92.0
7108,57.0,0,384,6.0,105.0
7109,57.0,240,384,7.0,105.0
7110,45.0,0,384,8.0,105.0
7111,57.0,0,384,2.0,105.0
7112,72.0,0,144,4.0,92.0
7113,77.0,0,144,5.0,92.0
7114,77.0,0,144,4.0,92.0
7115,57.0,0,240,2.0,105.0
7116,57.0,0,240,6.0,105.0
7117,45.0,0,240,8.0,105.0
7118,57.0,240,240,7.0,105.0
7119,72.0,0,768,3.0,105.0
7120,79.0,0,144,4.0,92.0
7121,79.0,0,144,5.0,92.0
7122,55.0,0,192,6.0,105.0
7123,55.0,0,192,7.0,105.0
7124,55.0,240,192,2.0,105.0
7125,43.0,0,192,8.0,105.0
7126,41.0,0,144,8.0,105.0
7127,53.0,0,144,2.0,105.0
7128,53.0,0,144,7.0,105.0
7129,53.0,0,144,6.0,105.0
7130,81.0,0,336,5.0,92.0
7131,81.0,0,336,4.0,92.0
7132,43.0,0,144,8.0,105.0
7133,55.0,0,144,6.0,105.0
7134,55.0,0,144,7.0,105.0
7135,55.0,240,144,2.0,105.0
7136,57.0,0,144,2.0,105.0
7137,57.0,0,144,6.0,105.0
7138,57.0,0,144,7.0,105.0
7139,45.0,240,144,8.0,105.0
7140,65.0,0,336,4.0,105.0
7141,65.0,0,336,5.0,105.0
7142,55.0,240,144,2.0,105.0
7143,43.0,0,144,8.0,105.0
7144,55.0,0,144,7.0,105.0
7145,55.0,0,144,6.0,105.0
7146,41.0,0,144,8.0,105.0
7147,53.0,240,144,2.0,105.0
7148,53.0,0,144,6.0,105.0
7149,53.0,0,144,7.0,105.0
7150,77.0,240,1152,0.0,105.0
7151,77.0,0,1152,1.0,105.0
7152,65.0,0,1152,1.0,105.0
7153,55.0,0,144,2.0,105.0
7154,55.0,0,144,7.0,105.0
7155,55.0,240,144,6.0,105.0
7156,43.0,0,144,8.0,105.0
7157,65.0,0,1536,3.0,105.0
7158,51.0,0,144,7.0,105.0
7159,39.0,240,144,8.0,105.0
7160,51.0,0,144,2.0,105.0
7161,51.0,0,144,6.0,105.0
7162,67.0,0,240,5.0,105.0
7163,79.0,0,240,4.0,116.0
7164,53.0,0,144,6.0,105.0
7165,72.0,0,384,1.0,105.0
7166,84.0,0,384,1.0,105.0
7167,84.0,0,384,0.0,105.0
7168,41.0,0,144,8.0,105.0
7169,53.0,0,144,7.0,105.0
7170,53.0,0,144,2.0,105.0
7171,65.0,240,192,5.0,105.0
7172,77.0,0,192,4.0,116.0
7173,50.0,0,144,7.0,105.0
7174,50.0,0,144,2.0,105.0
7175,38.0,0,144,8.0,105.0
7176,50.0,0,144,6.0,105.0
7177,72.0,0,384,1.0,105.0
7178,84.0,0,384,1.0,105.0
7179,53.0,0,144,7.0,105.0
7180,53.0,0,144,2.0,105.0
7181,53.0,0,144,6.0,105.0
7182,77.0,0,384,4.0,116.0
7183,65.0,240,384,5.0,105.0
7184,41.0,240,144,8.0,105.0
7185,58.0,0,144,2.0,105.0
7186,58.0,0,144,6.0,105.0
7187,58.0,0,144,7.0,105.0
7188,46.0,240,144,8.0,105.0
7189,79.0,0,240,4.0,116.0
7190,67.0,0,240,5.0,105.0
7191,65.0,0,768,3.0,105.0
7192,89.0,0,768,0.0,105.0
7193,50.0,0,144,7.0,105.0
7194,50.0,0,144,2.0,105.0
7195,50.0,0,144,6.0,105.0
7196,38.0,0,144,8.0,105.0
7197,77.0,240,192,4.0,116.0
7198,65.0,0,192,5.0,105.0
7199,48.0,0,144,6.0,105.0
7200,48.0,0,144,2.0,105.0
7201,48.0,0,144,7.0,105.0
7202,36.0,0,144,8.0,105.0
7203,70.0,0,768,1.0,105.0
7204,82.0,0,768,1.0,105.0
7205,51.0,0,144,7.0,105.0
7206,77.0,0,384,4.0,116.0
7207,39.0,240,144,8.0,105.0
7208,65.0,240,384,5.0,105.0
7209,51.0,0,144,6.0,105.0
7210,51.0,0,144,2.0,105.0
7211,65.0,0,576,3.0,105.0
7212,57.0,0,144,6.0,105.0
7213,57.0,0,144,7.0,105.0
7214,57.0,0,144,2.0,105.0
7215,45.0,240,144,8.0,105.0
7216,79.0,0,240,4.0,116.0
7217,67.0,0,240,5.0,105.0
7218,87.0,0,768,0.0,105.0
7219,60.0,0,144,6.0,105.0
7220,72.0,0,384,1.0,105.0
7221,48.0,0,144,7.0,105.0
7222,36.0,240,144,8.0,105.0
7223,48.0,0,144,2.0,105.0
7224,81.0,0,384,1.0,105.0
7225,65.0,0,192,5.0,105.0
7226,65.0,0,192,3.0,105.0
7227,77.0,0,192,4.0,116.0
7228,46.0,0,144,2.0,105.0
7229,46.0,0,144,7.0,105.0
7230,34.0,0,144,8.0,105.0
7231,58.0,0,144,6.0,105.0
7232,53.0,240,144,6.0,105.0
7233,41.0,0,144,2.0,105.0
7234,41.0,0,144,7.0,105.0
7235,29.0,0,144,8.0,105.0
7236,77.0,0,480,4.0,116.0
7237,65.0,240,480,5.0,105.0
7238,55.0,0,144,6.0,105.0
7239,43.0,0,144,7.0,105.0
7240,43.0,0,144,2.0,105.0
7241,31.0,240,144,8.0,105.0
7242,82.0,0,768,1.0,105.0
7243,33.0,0,144,8.0,105.0
7244,45.0,240,144,2.0,105.0
7245,57.0,0,144,6.0,105.0
7246,74.0,0,384,5.0,105.0
7247,45.0,0,144,7.0,105.0
7248,86.0,0,384,4.0,116.0
7249,46.0,0,144,7.0,105.0
7250,46.0,0,144,2.0,105.0
7251,58.0,0,144,6.0,105.0
7252,34.0,240,144,8.0,105.0
7253,45.0,0,144,2.0,105.0
7254,33.0,0,144,8.0,105.0
7255,45.0,0,144,7.0,105.0
7256,57.0,240,144,6.0,105.0
7257,65.0,0,1536,3.0,105.0
7258,62.0,0,1536,3.0,105.0
7259,46.0,0,144,2.0,105.0
7260,46.0,0,144,7.0,105.0
7261,58.0,0,144,6.0,105.0
7262,34.0,0,144,8.0,105.0
7263,86.0,0,240,4.0,116.0
7264,74.0,240,240,5.0,105.0
7265,77.0,0,768,1.0,105.0
7266,70.0,0,1728,1.0,105.0
7267,60.0,0,144,6.0,105.0
7268,48.0,0,144,7.0,105.0
7269,48.0,240,144,2.0,105.0
7270,36.0,0,144,8.0,105.0
7271,84.0,0,192,4.0,116.0
7272,72.0,0,192,5.0,105.0
7273,38.0,0,144,8.0,105.0
7274,62.0,0,144,6.0,105.0
7275,50.0,0,144,2.0,105.0
7276,50.0,0,144,7.0,105.0
7277,58.0,0,144,6.0,105.0
7278,70.0,240,384,5.0,105.0
7279,46.0,0,144,7.0,105.0
7280,34.0,240,144,8.0,105.0
7281,46.0,0,144,2.0,105.0
7282,82.0,0,384,4.0,116.0
7283,58.0,0,384,3.0,105.0
7284,48.0,240,144,7.0,105.0
7285,48.0,0,144,2.0,105.0
7286,36.0,0,144,8.0,105.0
7287,60.0,0,144,6.0,105.0
7288,82.0,0,240,4.0,116.0
7289,70.0,0,240,5.0,105.0
7290,38.0,240,144,8.0,105.0
7291,50.0,0,144,2.0,105.0
7292,50.0,0,144,7.0,105.0
7293,62.0,0,144,6.0,105.0
7294,69.0,0,192,5.0,105.0
7295,81.0,0,192,4.0,116.0
7296,39.0,0,144,8.0,105.0
7297,51.0,0,144,2.0,105.0
7298,63.0,240,144,6.0,105.0
7299,51.0,0,144,7.0,105.0
7300,79.0,0,384,4.0,116.0
7301,67.0,0,384,5.0,105.0
7302,50.0,0,144,2.0,105.0
7303,58.0,0,384,3.0,105.0
7304,50.0,240,144,7.0,105.0
7305,38.0,0,144,8.0,105.0
7306,62.0,0,144,6.0,105.0
7307,63.0,0,144,6.0,105.0
7308,51.0,0,144,2.0,105.0
7309,39.0,0,144,8.0,105.0
7310,51.0,0,144,7.0,105.0
7311,79.0,0,240,4.0,116.0
7312,67.0,240,240,5.0,105.0
7313,53.0,0,144,2.0,105.0
7314,53.0,0,144,7.0,105.0
7315,65.0,240,144,6.0,105.0
7316,41.0,0,144,8.0,105.0
7317,77.0,0,192,4.0,116.0
7318,65.0,0,192,5.0,105.0
7319,55.0,240,144,2.0,105.0
7320,43.0,0,144,8.0,105.0
7321,67.0,0,144,6.0,105.0
7322,55.0,0,144,7.0,105.0
7323,74.0,0,2304,1.0,105.0
7324,51.0,0,144,7.0,105.0
7325,86.0,0,4224,0.0,105.0
7326,51.0,240,144,2.0,105.0
7327,86.0,0,2304,1.0,105.0
7328,39.0,0,144,8.0,105.0
7329,51.0,0,144,6.0,105.0
7330,75.0,0,480,4.0,116.0
7331,63.0,0,480,5.0,105.0
7332,53.0,0,144,7.0,105.0
7333,41.0,0,144,8.0,105.0
7334,53.0,0,144,6.0,105.0
7335,53.0,0,144,2.0,105.0
7336,84.0,0,216,1.0,105.0
7337,84.0,240,216,0.0,105.0
7338,72.0,0,216,1.0,105.0
7339,55.0,0,144,6.0,105.0
7340,72.0,0,384,5.0,105.0
7341,55.0,0,144,7.0,105.0
7342,43.0,240,144,8.0,105.0
7343,84.0,0,384,4.0,116.0
7344,55.0,0,144,2.0,105.0
7345,82.0,0,192,1.0,105.0
7346,70.0,0,192,1.0,105.0
7347,82.0,0,192,0.0,105.0
7348,57.0,0,144,6.0,105.0
7349,57.0,0,144,7.0,105.0
7350,57.0,0,144,2.0,105.0
7351,45.0,0,144,8.0,105.0
7352,55.0,0,144,2.0,105.0
7353,43.0,240,144,8.0,105.0
7354,55.0,0,144,6.0,105.0
7355,55.0,0,144,7.0,105.0
7356,57.0,0,144,6.0,105.0
7357,45.0,0,144,8.0,105.0
7358,57.0,240,144,2.0,105.0
7359,57.0,0,144,7.0,105.0
7360,84.0,0,240,4.0,116.0
7361,72.0,0,240,5.0,105.0
7362,58.0,240,144,7.0,105.0
7363,58.0,0,144,6.0,105.0
7364,46.0,0,144,8.0,105.0
7365,58.0,0,144,2.0,105.0
7366,82.0,0,192,4.0,116.0
7367,70.0,0,192,5.0,105.0
7368,60.0,0,144,7.0,105.0
7369,48.0,0,144,8.0,105.0
7370,60.0,0,144,2.0,105.0
7371,60.0,0,144,6.0,105.0
7372,57.0,0,144,7.0,105.0
7373,57.0,0,144,6.0,105.0
7374,69.0,0,384,3.0,105.0
7375,45.0,240,144,8.0,105.0
7376,57.0,0,144,2.0,105.0
7377,69.0,240,384,5.0,105.0
7378,81.0,0,384,4.0,116.0
7379,46.0,0,144,8.0,105.0
7380,58.0,0,144,7.0,105.0
7381,58.0,240,144,6.0,105.0
7382,58.0,0,144,2.0,105.0
7383,81.0,0,240,4.0,116.0
7384,69.0,0,240,5.0,105.0
7385,60.0,0,144,7.0,105.0
7386,60.0,0,144,2.0,105.0
7387,48.0,0,144,8.0,105.0
7388,60.0,0,144,6.0,105.0
7389,67.0,0,192,5.0,105.0
7390,79.0,240,192,4.0,116.0
7391,62.0,0,144,7.0,105.0
7392,50.0,0,144,8.0,105.0
7393,62.0,0,144,6.0,105.0
7394,62.0,0,144,2.0,105.0
7395,61.0,0,144,2.0,105.0
7396,69.0,0,384,3.0,105.0
7397,78.0,240,384,4.0,116.0
7398,62.0,0,384,3.0,105.0
7399,66.0,0,384,5.0,105.0
7400,49.0,0,144,8.0,105.0
7401,61.0,0,144,7.0,105.0
7402,61.0,240,144,6.0,105.0
7403,62.0,0,144,7.0,105.0
7404,50.0,0,144,8.0,105.0
7405,62.0,0,144,2.0,105.0
7406,62.0,0,144,6.0,105.0
7407,66.0,240,240,5.0,105.0
7408,78.0,0,240,4.0,116.0
7409,64.0,0,144,6.0,105.0
7410,64.0,0,144,7.0,105.0
7411,52.0,240,144,8.0,105.0
7412,64.0,0,144,2.0,105.0
7413,76.0,0,192,4.0,116.0
7414,64.0,0,192,5.0,105.0
7415,66.0,0,144,2.0,105.0
7416,66.0,0,144,6.0,105.0
7417,66.0,0,144,7.0,105.0
7418,54.0,0,144,8.0,105.0
7419,62.0,0,144,2.0,105.0
7420,50.0,240,144,8.0,105.0
7421,62.0,0,144,6.0,105.0
7422,84.0,240,3264,0.0,105.0
7423,84.0,0,3264,1.0,105.0
7424,62.0,0,144,7.0,105.0
7425,72.0,0,3264,1.0,105.0
7426,74.0,0,480,4.0,116.0
7427,62.0,0,480,5.0,105.0
7428,64.0,0,144,7.0,105.0
7429,52.0,0,144,8.0,105.0
7430,64.0,0,144,6.0,105.0
7431,64.0,0,144,2.0,105.0
7432,70.0,0,192,1.0,105.0
7433,82.0,240,192,1.0,105.0
7434,82.0,0,192,0.0,105.0
7435,70.0,0,384,5.0,105.0
7436,54.0,0,144,8.0,105.0
7437,66.0,0,144,6.0,105.0
7438,82.0,0,384,4.0,116.0
7439,66.0,0,144,7.0,105.0
7440,66.0,0,144,2.0,105.0
7441,81.0,0,192,1.0,105.0
7442,69.0,0,192,1.0,105.0
7443,81.0,240,192,0.0,105.0
7444,62.0,0,960,3.0,105.0
7445,67.0,0,144,2.0,105.0
7446,67.0,0,144,7.0,105.0
7447,55.0,0,144,8.0,105.0
7448,67.0,240,144,6.0,105.0
7449,51.0,0,144,8.0,105.0
7450,82.0,0,384,0.0,105.0
7451,63.0,240,144,7.0,105.0
7452,63.0,0,144,6.0,105.0
7453,74.0,240,1344,3.0,105.0
7454,67.0,0,384,3.0,105.0
7455,63.0,0,144,2.0,105.0
7456,82.0,0,384,1.0,105.0
7457,70.0,0,384,1.0,105.0
7458,62.0,0,144,7.0,105.0
7459,62.0,0,144,2.0,105.0
7460,50.0,0,144,8.0,105.0
7461,62.0,240,144,6.0,105.0
7462,82.0,0,240,4.0,116.0
7463,70.0,0,240,5.0,105.0
7464,60.0,0,144,6.0,105.0
7465,60.0,0,144,7.0,105.0
7466,60.0,0,144,2.0,105.0
7467,48.0,0,144,8.0,105.0
7468,81.0,0,192,4.0,116.0
7469,69.0,240,192,5.0,105.0
7470,58.0,0,144,6.0,105.0
7471,58.0,0,144,2.0,92.0
7472,46.0,0,144,8.0,105.0
7473,58.0,0,144,7.0,105.0
7474,60.0,240,144,7.0,105.0
7475,60.0,0,144,2.0,92.0
7476,48.0,0,144,8.0,105.0
7477,60.0,0,144,6.0,105.0
7478,79.0,0,384,4.0,116.0
7479,67.0,240,384,5.0,105.0
7480,79.0,0,576,1.0,105.0
7481,91.0,0,576,0.0,105.0
7482,58.0,0,144,6.0,105.0
7483,58.0,0,144,7.0,105.0
7484,46.0,0,144,8.0,105.0
7485,58.0,0,144,2.0,92.0
7486,67.0,240,240,5.0,105.0
7487,79.0,0,240,4.0,105.0
7488,57.0,0,144,2.0,92.0
7489,57.0,0,144,7.0,105.0
7490,57.0,0,144,6.0,105.0
7491,45.0,0,144,8.0,105.0
7492,77.0,240,192,1.0,105.0
7493,77.0,0,192,4.0,105.0
7494,89.0,0,192,0.0,105.0
7495,65.0,0,192,5.0,105.0
7496,55.0,0,144,7.0,105.0
7497,43.0,0,144,8.0,105.0
7498,55.0,0,144,2.0,92.0
7499,55.0,0,144,6.0,105.0
7500,53.0,0,144,7.0,105.0
7501,53.0,0,144,6.0,105.0
7502,53.0,240,144,2.0,92.0
7503,64.0,240,384,5.0,105.0
7504,41.0,0,144,8.0,105.0
7505,76.0,0,384,4.0,105.0
7506,88.0,0,576,0.0,105.0
7507,76.0,0,576,1.0,105.0
7508,55.0,240,144,7.0,105.0
7509,55.0,0,144,6.0,105.0
7510,55.0,0,144,2.0,92.0
7511,43.0,0,144,8.0,105.0
7512,64.0,0,240,5.0,105.0
7513,76.0,0,240,4.0,105.0
7514,56.0,0,144,7.0,105.0
7515,56.0,0,144,2.0,92.0
7516,56.0,0,144,6.0,105.0
7517,44.0,0,144,8.0,105.0
7518,74.0,240,192,1.0,105.0
7519,62.0,0,192,5.0,105.0
7520,74.0,0,192,4.0,105.0
7521,86.0,0,192,0.0,105.0
7522,64.0,0,192,5.0,105.0
7523,61.0,0,192,5.0,92.0
7524,57.0,240,192,7.0,105.0
7525,57.0,0,192,2.0,92.0
7526,45.0,0,192,8.0,105.0
7527,57.0,0,192,6.0,105.0
7528,61.0,0,192,5.0,92.0
7529,64.0,0,192,5.0,92.0
7530,57.0,0,192,7.0,105.0
7531,45.0,0,192,8.0,105.0
7532,57.0,0,192,6.0,105.0
7533,57.0,240,192,2.0,92.0
7534,73.0,0,480,4.0,105.0
7535,85.0,0,480,0.0,105.0
7536,45.0,0,192,8.0,105.0
7537,64.0,0,192,5.0,92.0
7538,61.0,0,192,5.0,92.0
7539,57.0,240,192,7.0,105.0
7540,57.0,0,192,2.0,92.0
7541,57.0,0,192,6.0,105.0
7542,81.0,0,384,4.0,105.0
7543,57.0,0,192,2.0,92.0
7544,45.0,0,192,8.0,105.0
7545,64.0,0,192,5.0,92.0
7546,57.0,0,192,7.0,105.0
7547,57.0,240,192,6.0,105.0
7548,61.0,0,192,5.0,92.0
7549,88.0,0,480,0.0,105.0
7550,73.0,0,960,1.0,105.0
7551,45.0,0,192,8.0,105.0
7552,65.0,240,192,5.0,92.0
7553,57.0,0,192,2.0,92.0
7554,62.0,0,192,5.0,92.0
7555,57.0,0,192,6.0,105.0
7556,57.0,0,192,7.0,105.0
7557,62.0,240,192,5.0,92.0
7558,65.0,0,192,5.0,92.0
7559,45.0,0,192,8.0,105.0
7560,57.0,0,192,2.0,92.0
7561,57.0,0,192,7.0,105.0
7562,57.0,0,192,6.0,105.0
7563,89.0,0,480,0.0,105.0
7564,69.0,0,1536,3.0,105.0
7565,65.0,0,192,5.0,92.0
7566,62.0,0,192,5.0,92.0
7567,45.0,240,192,8.0,105.0
7568,57.0,0,192,7.0,105.0
7569,57.0,0,192,2.0,92.0
7570,57.0,0,192,6.0,105.0
7571,82.0,0,240,4.0,105.0
7572,74.0,0,768,1.0,105.0
7573,77.0,0,768,1.0,105.0
7574,86.0,0,384,0.0,105.0
7575,81.0,0,192,4.0,116.0
7576,62.0,0,192,5.0,92.0
7577,57.0,0,192,6.0,105.0
7578,45.0,240,192,8.0,105.0
7579,57.0,0,192,2.0,92.0
7580,65.0,0,192,5.0,92.0
7581,57.0,0,192,7.0,105.0
7582,57.0,0,192,2.0,92.0
7583,64.0,0,192,5.0,92.0
7584,61.0,0,192,5.0,92.0
7585,57.0,0,192,6.0,105.0
7586,57.0,0,192,7.0,105.0
7587,45.0,0,192,8.0,105.0
7588,81.0,0,384,4.0,116.0
7589,45.0,0,192,8.0,105.0
7590,57.0,0,192,7.0,105.0
7591,57.0,240,192,2.0,92.0
7592,64.0,0,192,5.0,92.0
7593,61.0,0,192,5.0,92.0
7594,57.0,0,192,6.0,105.0
7595,85.0,240,480,0.0,105.0
7596,57.0,0,192,2.0,92.0
7597,57.0,0,192,6.0,105.0
7598,57.0,0,192,7.0,105.0
7599,61.0,0,192,5.0,92.0
7600,45.0,0,192,8.0,105.0
7601,64.0,0,192,5.0,92.0
7602,82.0,0,240,4.0,116.0
7603,69.0,0,768,3.0,105.0
7604,61.0,0,192,5.0,92.0
7605,57.0,0,192,6.0,105.0
7606,45.0,0,192,8.0,105.0
7607,57.0,0,192,7.0,105.0
7608,57.0,0,192,2.0,92.0
7609,81.0,240,192,4.0,116.0
7610,64.0,0,192,5.0,92.0
7611,88.0,240,480,0.0,105.0
7612,73.0,0,960,1.0,105.0
7613,57.0,0,192,2.0,92.0
7614,45.0,240,192,8.0,105.0
7615,57.0,0,192,6.0,105.0
7616,65.0,0,192,5.0,92.0
7617,62.0,0,192,5.0,92.0
7618,57.0,0,192,7.0,105.0
7619,81.0,0,384,4.0,116.0
7620,57.0,0,192,7.0,105.0
7621,57.0,0,192,6.0,105.0
7622,62.0,0,192,5.0,92.0
7623,65.0,0,192,5.0,92.0
7624,57.0,0,192,2.0,92.0
7625,45.0,240,192,8.0,105.0
7626,89.0,0,480,0.0,105.0
7627,45.0,0,192,8.0,105.0
7628,57.0,0,192,7.0,105.0
7629,57.0,240,192,6.0,105.0
7630,65.0,0,192,5.0,92.0
7631,62.0,0,192,5.0,92.0
7632,57.0,0,192,2.0,92.0
7633,82.0,0,240,4.0,116.0
7634,74.0,0,768,1.0,105.0
7635,77.0,0,768,1.0,105.0
7636,69.0,0,768,3.0,105.0
7637,86.0,0,384,0.0,105.0
7638,57.0,0,192,2.0,92.0
7639,45.0,240,192,8.0,105.0
7640,65.0,0,192,5.0,92.0
7641,62.0,0,192,5.0,92.0
7642,81.0,0,192,4.0,116.0
7643,57.0,0,192,7.0,105.0
7644,57.0,0,192,6.0,105.0
7645,61.0,0,192,5.0,92.0
7646,57.0,0,192,7.0,105.0
7647,57.0,0,192,2.0,92.0
7648,57.0,0,192,6.0,105.0
7649,64.0,0,192,5.0,92.0
7650,45.0,0,192,8.0,105.0
7651,81.0,0,384,4.0,116.0
7652,57.0,0,192,6.0,105.0
7653,45.0,0,192,8.0,105.0
7654,57.0,0,192,2.0,92.0
7655,57.0,240,192,7.0,105.0
7656,64.0,0,192,5.0,92.0
7657,61.0,0,192,5.0,92.0
7658,85.0,0,480,0.0,105.0
7659,57.0,0,192,2.0,92.0
7660,57.0,0,192,7.0,105.0
7661,45.0,0,192,8.0,105.0
7662,57.0,240,192,6.0,105.0
7663,64.0,0,192,5.0,92.0
7664,61.0,0,192,5.0,92.0
7665,81.0,0,384,4.0,116.0
7666,57.0,0,192,7.0,105.0
7667,45.0,240,192,8.0,105.0
7668,57.0,0,192,2.0,92.0
7669,61.0,0,192,5.0,92.0
7670,64.0,0,192,5.0,92.0
7671,57.0,0,192,6.0,105.0
7672,88.0,0,480,0.0,105.0
7673,73.0,240,960,1.0,105.0
7674,57.0,0,192,2.0,92.0
7675,57.0,0,192,7.0,105.0
7676,57.0,0,192,6.0,105.0
7677,45.0,240,192,8.0,105.0
7678,62.0,0,192,5.0,92.0
7679,65.0,0,192,5.0,92.0
7680,57.0,0,192,7.0,105.0
7681,57.0,240,192,6.0,105.0
7682,45.0,0,192,8.0,105.0
7683,62.0,0,192,5.0,92.0
7684,65.0,0,192,5.0,92.0
7685,57.0,0,192,2.0,92.0
7686,89.0,0,480,0.0,105.0
7687,69.0,0,1536,3.0,105.0
7688,57.0,0,192,2.0,92.0
7689,57.0,0,192,7.0,105.0
7690,65.0,0,192,5.0,92.0
7691,45.0,0,192,8.0,105.0
7692,57.0,240,192,6.0,105.0
7693,62.0,0,192,5.0,92.0
7694,82.0,0,240,4.0,116.0
7695,74.0,0,768,1.0,105.0
7696,77.0,0,768,1.0,105.0
7697,86.0,0,384,0.0,105.0
7698,81.0,0,192,4.0,116.0
7699,65.0,0,192,5.0,92.0
7700,62.0,0,192,5.0,92.0
7701,57.0,240,192,6.0,105.0
7702,57.0,0,192,7.0,105.0
7703,45.0,0,192,8.0,105.0
7704,57.0,0,192,2.0,92.0
7705,45.0,0,192,8.0,105.0
7706,64.0,0,192,5.0,92.0
7707,61.0,0,192,5.0,92.0
7708,57.0,0,192,2.0,92.0
7709,57.0,0,192,6.0,105.0
7710,57.0,0,192,7.0,105.0
7711,81.0,0,384,4.0,116.0
7712,45.0,0,192,8.0,105.0
7713,57.0,0,192,2.0,92.0
7714,61.0,240,192,5.0,92.0
7715,64.0,0,192,5.0,92.0
7716,57.0,0,192,7.0,105.0
7717,57.0,0,192,6.0,105.0
7718,85.0,0,480,0.0,105.0
7719,64.0,240,192,5.0,92.0
7720,61.0,0,192,5.0,92.0
7721,57.0,0,192,6.0,105.0
7722,45.0,0,192,8.0,105.0
7723,57.0,0,192,7.0,105.0
7724,57.0,0,192,2.0,92.0
7725,82.0,0,240,4.0,116.0
7726,69.0,0,768,3.0,105.0
7727,57.0,240,192,6.0,105.0
7728,57.0,0,192,2.0,92.0
7729,45.0,0,192,8.0,105.0
7730,61.0,0,192,5.0,92.0
7731,64.0,0,192,5.0,92.0
7732,57.0,0,192,7.0,105.0
7733,81.0,0,192,4.0,116.0
7734,88.0,0,480,0.0,105.0
7735,73.0,240,960,1.0,105.0
7736,57.0,0,192,6.0,105.0
7737,57.0,240,192,7.0,105.0
7738,65.0,0,192,5.0,92.0
7739,45.0,0,192,8.0,105.0
7740,57.0,0,192,2.0,92.0
7741,62.0,0,192,5.0,92.0
7742,81.0,0,384,4.0,116.0
7743,45.0,0,192,8.0,105.0
7744,57.0,0,192,7.0,105.0
7745,62.0,0,192,5.0,92.0
7746,65.0,0,192,5.0,92.0
7747,57.0,240,192,2.0,92.0
7748,57.0,0,192,6.0,105.0
7749,89.0,0,480,0.0,105.0
7750,62.0,0,192,5.0,92.0
7751,65.0,0,192,5.0,92.0
7752,45.0,0,192,8.0,105.0
7753,57.0,0,192,6.0,105.0
7754,57.0,0,192,2.0,92.0
7755,57.0,240,192,7.0,105.0
7756,82.0,0,240,4.0,116.0
7757,77.0,0,768,1.0,105.0
7758,74.0,0,768,1.0,105.0
7759,69.0,0,768,3.0,105.0
7760,86.0,0,384,0.0,105.0
7761,62.0,0,192,5.0,92.0
7762,65.0,0,192,5.0,92.0
7763,81.0,0,192,4.0,116.0
7764,57.0,0,192,7.0,105.0
7765,57.0,0,192,2.0,92.0
7766,45.0,240,192,8.0,105.0
7767,57.0,0,192,6.0,105.0
7768,81.0,0,408,4.0,116.0
7769,57.0,0,768,7.0,105.0
7770,61.0,0,768,5.0,92.0
7771,69.0,240,768,3.0,105.0
7772,64.0,0,768,5.0,92.0
7773,76.0,0,768,1.0,105.0
7774,45.0,0,768,8.0,105.0
7775,85.0,0,768,0.0,105.0
7776,57.0,0,768,2.0,92.0
7777,73.0,0,768,1.0,105.0
7778,57.0,0,768,6.0,105.0
7779,81.0,480,408,4.0,116.0
7780,82.0,960,240,4.0,70.0
7781,81.0,240,144,4.0,70.0
7782,81.0,240,288,4.0,70.0
7783,82.0,480,240,4.0,70.0
7784,81.0,240,144,4.0,70.0
7785,81.0,240,288,4.0,70.0
7786,73.0,480,240,1.0,70.0
7787,82.0,0,240,4.0,70.0
7788,77.0,0,240,0.0,70.0
7789,75.0,0,144,0.0,70.0
7790,72.0,0,144,1.0,70.0
7791,81.0,240,144,4.0,70.0
7792,75.0,240,288,0.0,70.0
7793,72.0,0,288,1.0,58.0
7794,81.0,0,288,4.0,70.0
7795,73.0,480,240,1.0,58.0
7796,77.0,0,240,0.0,70.0
7797,81.0,0,288,4.0,70.0
7798,72.0,0,144,1.0,58.0
7799,75.0,240,144,0.0,70.0
7800,72.0,240,288,1.0,58.0
7801,75.0,0,288,0.0,70.0
7802,84.0,0,240,4.0,70.0
7803,72.0,480,288,1.0,58.0
7804,75.0,0,288,0.0,70.0
7805,82.0,240,144,4.0,70.0
7806,82.0,240,288,4.0,70.0
7807,84.0,480,240,4.0,70.0
7808,82.0,240,144,4.0,70.0
7809,82.0,240,288,4.0,70.0
7810,75.0,480,240,1.0,58.0
7811,78.0,0,240,0.0,70.0
7812,84.0,0,240,4.0,70.0
7813,77.0,0,144,0.0,70.0
7814,82.0,0,144,4.0,70.0
7815,73.0,240,144,1.0,58.0
7816,82.0,0,288,4.0,70.0
7817,77.0,0,288,0.0,70.0
7818,73.0,240,288,1.0,58.0
7819,75.0,0,240,1.0,58.0
7820,78.0,0,240,0.0,70.0
7821,82.0,480,288,4.0,70.0
7822,73.0,0,144,1.0,58.0
7823,77.0,240,144,0.0,70.0
7824,73.0,0,288,1.0,58.0
7825,77.0,240,288,0.0,70.0
7826,84.0,480,240,4.0,70.0
7827,73.0,0,288,1.0,58.0
7828,77.0,0,288,0.0,70.0
7829,65.0,0,5664,2.0,58.0
7830,83.0,240,144,4.0,70.0
7831,65.0,0,5736,1.0,58.0
7832,83.0,240,288,4.0,70.0
7833,84.0,480,240,4.0,70.0
7834,83.0,240,144,4.0,70.0
7835,83.0,240,288,4.0,70.0
7836,79.0,0,240,0.0,70.0
7837,84.0,480,240,4.0,70.0
7838,75.0,0,240,1.0,58.0
7839,74.0,0,144,1.0,58.0
7840,77.0,240,144,0.0,70.0
7841,83.0,0,144,4.0,70.0
7842,77.0,0,288,0.0,70.0
7843,83.0,240,288,4.0,70.0
7844,72.0,0,288,1.0,58.0
7845,75.0,0,240,1.0,58.0
7846,79.0,0,240,0.0,70.0
7847,83.0,480,288,4.0,70.0
7848,74.0,0,144,1.0,58.0
7849,77.0,240,144,0.0,70.0
7850,74.0,240,288,1.0,58.0
7851,77.0,0,288,0.0,70.0
7852,86.0,0,240,4.0,70.0
7853,74.0,0,288,1.0,58.0
7854,77.0,480,288,0.0,70.0
7855,84.0,240,144,4.0,70.0
7856,84.0,240,288,4.0,70.0
7857,86.0,480,240,4.0,70.0
7858,84.0,240,144,4.0,70.0
7859,84.0,240,288,4.0,70.0
7860,80.0,0,240,0.0,70.0
7861,77.0,480,240,1.0,58.0
7862,86.0,0,240,4.0,70.0
7863,79.0,240,144,0.0,70.0
7864,84.0,0,144,4.0,70.0
7865,75.0,0,144,1.0,58.0
7866,84.0,0,288,4.0,70.0
7867,75.0,0,288,1.0,70.0
7868,79.0,240,288,0.0,70.0
7869,77.0,480,240,1.0,70.0
7870,80.0,0,240,0.0,70.0
7871,84.0,0,288,4.0,70.0
7872,75.0,0,144,1.0,70.0
7873,79.0,240,144,0.0,70.0
7874,67.0,0,6912,2.0,58.0
7875,75.0,0,288,1.0,70.0
7876,79.0,240,288,0.0,70.0
7877,67.0,0,7008,1.0,58.0
7878,82.0,480,240,4.0,70.0
7879,67.0,0,240,7.0,70.0
7880,75.0,0,288,1.0,70.0
7881,79.0,0,288,0.0,70.0
7882,81.0,240,144,4.0,70.0
7883,66.0,0,144,7.0,70.0
7884,81.0,240,288,4.0,70.0
7885,66.0,0,288,7.0,70.0
7886,75.0,0,864,5.0,58.0
7887,72.0,0,864,6.0,58.0
7888,67.0,0,240,7.0,70.0
7889,82.0,0,240,4.0,70.0
7890,66.0,240,144,7.0,70.0
7891,81.0,0,144,4.0,70.0
7892,66.0,240,288,7.0,70.0
7893,72.0,0,768,6.0,58.0
7894,75.0,480,768,5.0,58.0
7895,81.0,0,288,4.0,70.0
7896,82.0,0,240,4.0,70.0
7897,67.0,480,240,7.0,70.0
7898,81.0,240,144,4.0,70.0
7899,66.0,0,144,7.0,70.0
7900,81.0,240,288,4.0,70.0
7901,66.0,0,288,7.0,70.0
7902,75.0,0,864,5.0,58.0
7903,72.0,0,864,6.0,58.0
7904,80.0,480,240,1.0,70.0
7905,83.0,0,240,0.0,70.0
7906,65.0,0,240,2.0,70.0
7907,74.0,0,240,1.0,70.0
7908,81.0,0,192,1.0,70.0
7909,75.0,0,192,1.0,70.0
7910,66.0,0,192,2.0,70.0
7911,84.0,240,192,0.0,70.0
7912,81.0,240,384,1.0,70.0
7913,75.0,0,384,1.0,70.0
7914,66.0,0,384,2.0,70.0
7915,84.0,0,384,0.0,70.0
7916,79.0,0,240,4.0,70.0
7917,63.0,0,240,7.0,70.0
7918,62.0,0,144,7.0,70.0
7919,78.0,240,144,4.0,70.0
7920,62.0,0,288,7.0,70.0
7921,78.0,240,288,4.0,70.0
7922,69.0,0,864,6.0,58.0
7923,72.0,480,864,5.0,58.0
7924,79.0,0,240,4.0,70.0
7925,63.0,0,240,7.0,70.0
7926,62.0,0,144,7.0,70.0
7927,78.0,240,144,4.0,70.0
7928,62.0,240,288,7.0,70.0
7929,78.0,0,288,4.0,70.0
7930,69.0,0,768,6.0,58.0
7931,72.0,480,768,5.0,58.0
7932,79.0,0,240,4.0,70.0
7933,63.0,0,240,7.0,70.0
7934,78.0,240,144,4.0,70.0
7935,62.0,0,144,7.0,70.0
7936,62.0,0,288,7.0,70.0
7937,78.0,240,288,4.0,70.0
7938,72.0,0,864,5.0,58.0
7939,69.0,480,864,6.0,58.0
7940,71.0,0,240,1.0,70.0
7941,67.0,0,240,2.0,70.0
7942,87.0,0,240,0.0,70.0
7943,80.0,480,240,1.0,70.0
7944,66.0,0,192,2.0,70.0
7945,86.0,0,192,0.0,70.0
7946,81.0,0,192,1.0,70.0
7947,72.0,240,192,1.0,70.0
7948,81.0,0,384,1.0,70.0
7949,86.0,0,384,0.0,70.0
7950,72.0,0,384,1.0,70.0
7951,66.0,240,384,2.0,70.0
7952,55.0,0,240,7.0,58.0
7953,75.0,0,240,4.0,58.0
7954,54.0,240,144,7.0,58.0
7955,74.0,0,144,4.0,58.0
7956,54.0,240,288,7.0,58.0
7957,60.0,0,864,6.0,58.0
7958,69.0,480,864,5.0,58.0
7959,74.0,0,384,4.0,58.0
7960,75.0,480,192,4.0,58.0
7961,55.0,0,240,7.0,58.0
7962,54.0,240,144,7.0,58.0
7963,74.0,0,192,4.0,58.0
7964,54.0,0,288,7.0,58.0
7965,69.0,0,768,5.0,58.0
7966,60.0,0,768,6.0,58.0
7967,74.0,240,384,4.0,58.0
7968,75.0,0,192,4.0,58.0
7969,55.0,0,240,7.0,58.0
7970,54.0,0,144,7.0,58.0
7971,74.0,240,192,4.0,58.0
7972,54.0,0,288,7.0,58.0
7973,74.0,240,384,4.0,58.0
7974,60.0,0,864,6.0,58.0
7975,69.0,480,864,5.0,58.0
7976,83.0,0,240,1.0,70.0
7977,91.0,0,240,0.0,58.0
7978,80.0,480,240,1.0,70.0
7979,63.0,0,240,2.0,70.0
7980,84.0,0,192,1.0,58.0
7981,90.0,0,192,0.0,58.0
7982,62.0,240,192,2.0,58.0
7983,81.0,0,192,1.0,58.0
7984,90.0,240,384,0.0,58.0
7985,62.0,0,384,2.0,58.0
7986,81.0,0,384,1.0,58.0
7987,84.0,0,384,1.0,58.0
7988,70.0,0,240,6.0,116.0
7989,79.0,480,240,5.0,116.0
7990,86.0,0,240,4.0,116.0
7991,78.0,240,192,5.0,116.0
7992,87.0,0,192,4.0,116.0
7993,69.0,0,192,6.0,116.0
7994,87.0,0,384,4.0,116.0
7995,69.0,0,384,6.0,116.0
7996,78.0,0,384,5.0,116.0
7997,81.0,0,480,0.0,105.0
7998,78.0,240,480,1.0,105.0
7999,60.0,0,480,2.0,58.0
8000,72.0,0,480,1.0,105.0
8001,63.0,0,480,2.0,58.0
8002,51.0,0,240,8.0,116.0
8003,63.0,0,240,7.0,116.0
8004,62.0,0,192,7.0,116.0
8005,50.0,240,192,8.0,116.0
8006,78.0,0,480,1.0,105.0
8007,81.0,240,0,1.0,105.0
8008,60.0,0,480,2.0,105.0
8009,84.0,0,480,0.0,105.0
8010,57.0,0,0,2.0,105.0
8011,62.0,0,384,7.0,116.0
8012,84.0,0,384,1.0,105.0
8013,54.0,0,384,2.0,105.0
8014,50.0,0,384,8.0,116.0
8015,87.0,0,384,0.0,105.0
8016,78.0,0,240,5.0,116.0
8017,87.0,480,240,4.0,116.0
8018,69.0,0,240,6.0,116.0
8019,62.0,0,1804,3.0,105.0
8020,50.0,0,1804,3.0,105.0
8021,79.0,240,192,5.0,116.0
8022,70.0,0,192,6.0,116.0
8023,86.0,0,192,4.0,116.0
8024,79.0,0,384,5.0,116.0
8025,86.0,0,384,4.0,116.0
8026,70.0,0,384,6.0,116.0
8027,79.0,0,480,0.0,105.0
8028,62.0,0,480,2.0,105.0
8029,58.0,0,480,2.0,105.0
8030,70.0,240,480,1.0,105.0
8031,74.0,0,0,1.0,105.0
8032,63.0,0,240,7.0,116.0
8033,51.0,480,240,8.0,116.0
8034,62.0,240,192,7.0,116.0
8035,50.0,0,192,8.0,116.0
8036,82.0,0,480,0.0,105.0
8037,58.0,0,480,2.0,105.0
8038,55.0,0,0,2.0,105.0
8039,79.0,0,480,1.0,105.0
8040,50.0,0,384,2.0,105.0
8041,50.0,0,384,8.0,116.0
8042,62.0,0,384,7.0,116.0
8043,82.0,0,384,1.0,105.0
8044,79.0,0,384,1.0,105.0
8045,86.0,240,384,0.0,105.0
8046,70.0,0,240,6.0,116.0
8047,79.0,480,240,5.0,116.0
8048,86.0,0,240,4.0,116.0
8049,50.0,0,1804,3.0,105.0
8050,62.0,0,1804,3.0,105.0
8051,81.0,240,192,5.0,116.0
8052,69.0,0,192,6.0,116.0
8053,85.0,0,192,4.0,116.0
8054,85.0,0,384,4.0,116.0
8055,82.0,0,384,5.0,116.0
8056,67.0,240,384,6.0,116.0
8057,52.0,0,480,2.0,105.0
8058,55.0,0,480,2.0,105.0
8059,91.0,0,480,0.0,105.0
8060,82.0,0,480,1.0,105.0
8061,85.0,0,480,1.0,105.0
8062,63.0,0,240,7.0,116.0
8063,51.0,480,240,8.0,116.0
8064,62.0,240,192,7.0,116.0
8065,50.0,0,192,8.0,116.0
8066,55.0,0,480,2.0,105.0
8067,88.0,0,480,0.0,105.0
8068,82.0,0,480,1.0,105.0
8069,79.0,240,0,1.0,105.0
8070,58.0,0,0,2.0,105.0
8071,85.0,0,384,0.0,105.0
8072,50.0,0,384,8.0,116.0
8073,76.0,0,384,1.0,105.0
8074,64.0,0,384,2.0,105.0
8075,62.0,0,384,7.0,116.0
8076,67.0,0,240,6.0,116.0
8077,85.0,480,240,4.0,116.0
8078,82.0,0,240,5.0,116.0
8079,50.0,0,1804,3.0,105.0
8080,62.0,0,1804,3.0,105.0
8081,66.0,0,192,6.0,116.0
8082,86.0,0,192,4.0,116.0
8083,81.0,240,192,5.0,116.0
8084,86.0,0,384,4.0,116.0
8085,66.0,0,384,6.0,116.0
8086,81.0,0,384,5.0,116.0
8087,78.0,0,480,1.0,105.0
8088,81.0,0,480,1.0,105.0
8089,57.0,0,480,2.0,105.0
8090,86.0,240,480,0.0,105.0
8091,54.0,0,480,2.0,105.0
8092,51.0,0,240,8.0,116.0
8093,63.0,0,240,7.0,116.0
8094,62.0,0,192,7.0,116.0
8095,50.0,240,192,8.0,116.0
8096,81.0,0,480,0.0,105.0
8097,57.0,480,480,2.0,105.0
8098,78.0,0,480,1.0,105.0
8099,74.0,0,0,1.0,105.0
8100,62.0,0,0,2.0,105.0
8101,69.0,0,384,1.0,105.0
8102,66.0,0,384,2.0,105.0
8103,50.0,0,384,8.0,116.0
8104,62.0,0,384,7.0,116.0
8105,78.0,240,384,0.0,105.0
8106,83.0,480,240,4.0,116.0
8107,68.0,0,240,6.0,116.0
8108,77.0,0,240,5.0,116.0
8109,62.0,0,1804,3.0,105.0
8110,50.0,0,1804,3.0,105.0
8111,78.0,0,192,5.0,116.0
8112,69.0,0,192,6.0,116.0
8113,84.0,240,192,4.0,116.0
8114,69.0,0,384,6.0,116.0
8115,78.0,0,384,5.0,116.0
8116,84.0,0,384,4.0,116.0
8117,72.0,240,480,1.0,105.0
8118,78.0,0,480,1.0,105.0
8119,81.0,0,480,0.0,105.0
8120,60.0,0,480,2.0,105.0
8121,57.0,0,480,2.0,105.0
8122,63.0,0,240,7.0,116.0
8123,51.0,0,240,8.0,116.0
8124,62.0,240,192,7.0,116.0
8125,50.0,0,192,8.0,116.0
8126,57.0,0,480,2.0,105.0
8127,54.0,240,0,2.0,105.0
8128,78.0,0,480,1.0,105.0
8129,81.0,480,480,1.0,105.0
8130,84.0,0,480,0.0,105.0
8131,50.0,0,384,8.0,116.0
8132,62.0,0,384,7.0,116.0
8133,50.0,0,384,2.0,105.0
8134,90.0,0,384,0.0,105.0
8135,84.0,0,384,1.0,105.0
8136,81.0,0,384,1.0,105.0
8137,72.0,480,240,6.0,116.0
8138,78.0,0,240,5.0,116.0
8139,81.0,0,240,4.0,116.0
8140,50.0,0,1804,3.0,105.0
8141,62.0,0,1804,3.0,105.0
8142,70.0,0,192,6.0,116.0
8143,82.0,0,192,4.0,116.0
8144,79.0,240,192,5.0,116.0
8145,82.0,0,384,4.0,116.0
8146,79.0,0,384,5.0,116.0
8147,70.0,0,384,6.0,116.0
8148,79.0,0,480,1.0,105.0
8149,74.0,0,480,1.0,105.0
8150,58.0,0,480,2.0,105.0
8151,82.0,0,480,0.0,105.0
8152,62.0,0,480,2.0,105.0
8153,51.0,0,240,8.0,116.0
8154,63.0,0,240,7.0,116.0
8155,50.0,240,192,8.0,116.0
8156,62.0,0,192,7.0,116.0
8157,58.0,0,480,2.0,105.0
8158,79.0,480,480,1.0,105.0
8159,82.0,0,480,1.0,105.0
8160,55.0,0,0,2.0,105.0
8161,86.0,0,480,0.0,105.0
8162,50.0,240,1152,3.0,105.0
8163,62.0,0,1152,3.0,105.0
8164,50.0,0,384,2.0,105.0
8165,82.0,0,384,1.0,105.0
8166,50.0,240,384,8.0,116.0
8167,86.0,0,384,1.0,105.0
8168,91.0,0,384,0.0,105.0
8169,62.0,0,384,7.0,116.0
8170,74.0,0,240,5.0,116.0
8171,80.0,0,240,4.0,116.0
8172,71.0,0,240,6.0,116.0
8173,62.0,0,384,3.0,105.0
8174,50.0,480,384,3.0,105.0
8175,72.0,0,192,6.0,116.0
8176,81.0,0,192,4.0,116.0
8177,75.0,240,192,5.0,116.0
8178,50.0,240,336,3.0,105.0
8179,62.0,0,336,3.0,105.0
8180,72.0,0,384,6.0,116.0
8181,81.0,0,384,4.0,116.0
8182,75.0,0,384,5.0,116.0
8183,69.0,0,240,6.0,116.0
8184,51.0,480,240,8.0,116.0
8185,78.0,0,240,4.0,116.0
8186,72.0,0,240,5.0,116.0
8187,63.0,0,240,7.0,116.0
8188,62.0,0,336,3.0,105.0
8189,50.0,0,336,3.0,105.0
8190,62.0,0,192,7.0,116.0
8191,50.0,240,192,8.0,116.0
8192,79.0,0,192,4.0,116.0
8193,67.0,0,192,6.0,116.0
8194,70.0,0,192,5.0,116.0
8195,50.0,0,336,3.0,105.0
8196,62.0,0,336,3.0,105.0
8197,50.0,0,384,8.0,116.0
8198,79.0,240,384,4.0,116.0
8199,70.0,0,384,5.0,116.0
8200,67.0,0,384,6.0,116.0
8201,62.0,0,384,7.0,116.0
8202,63.0,0,240,7.0,116.0
8203,67.0,0,240,6.0,116.0
8204,51.0,0,240,8.0,116.0
8205,67.0,480,240,5.0,116.0
8206,73.0,0,240,4.0,116.0
8207,50.0,0,336,3.0,105.0
8208,62.0,0,336,3.0,105.0
8209,69.0,0,192,6.0,116.0
8210,74.0,0,192,4.0,116.0
8211,50.0,0,192,8.0,116.0
8212,62.0,0,192,7.0,116.0
8213,66.0,240,192,5.0,116.0
8214,66.0,0,384,5.0,105.0
8215,62.0,0,384,7.0,105.0
8216,50.0,0,384,8.0,105.0
8217,74.0,0,384,4.0,105.0
8218,69.0,0,384,6.0,105.0
8219,50.0,240,384,3.0,92.0
8220,62.0,0,384,3.0,92.0
8221,87.0,480,240,0.0,70.0
8222,86.0,240,192,0.0,70.0
8223,81.0,0,240,1.0,70.0
8224,78.0,480,240,1.0,70.0
8225,62.0,0,1786,2.0,70.0
8226,50.0,0,1786,2.0,70.0
8227,80.0,240,192,1.0,70.0
8228,77.0,0,192,1.0,70.0
8229,86.0,240,1344,0.0,70.0
8230,86.0,480,240,0.0,70.0
8231,85.0,240,192,0.0,70.0
8232,76.0,0,1152,1.0,70.0
8233,79.0,0,1152,1.0,70.0
8234,76.0,0,240,1.0,70.0
8235,79.0,480,240,1.0,70.0
8236,50.0,240,1786,2.0,70.0
8237,62.0,0,1786,2.0,70.0
8238,75.0,240,192,1.0,70.0
8239,78.0,0,192,1.0,70.0
8240,84.0,240,1344,0.0,70.0
8241,84.0,480,240,0.0,70.0
8242,83.0,240,240,0.0,70.0
8243,74.0,0,1152,1.0,70.0
8244,77.0,0,1152,1.0,70.0
8245,77.0,0,240,1.0,70.0
8246,74.0,480,240,1.0,70.0
8247,50.0,240,1786,2.0,70.0
8248,62.0,0,1786,2.0,70.0
8249,76.0,0,192,1.0,70.0
8250,73.0,240,192,1.0,70.0
8251,82.0,240,1344,0.0,70.0
8252,82.0,480,240,0.0,70.0
8253,81.0,240,192,0.0,70.0
8254,76.0,240,1152,1.0,70.0
8255,73.0,0,1152,1.0,70.0
8256,75.0,0,240,1.0,70.0
8257,72.0,480,240,1.0,70.0
8258,74.0,240,192,1.0,70.0
8259,71.0,0,192,1.0,70.0
8260,81.0,240,1344,0.0,70.0
8261,81.0,480,240,0.0,70.0
8262,50.0,0,2688,2.0,70.0
8263,62.0,0,2688,2.0,70.0
8264,80.0,240,192,0.0,70.0
8265,71.0,240,960,1.0,70.0
8266,74.0,0,960,1.0,70.0
8267,63.0,480,240,5.0,70.0
8268,75.0,0,240,4.0,70.0
8269,70.0,0,768,1.0,58.0
8270,73.0,0,768,1.0,58.0
8271,62.0,240,192,5.0,70.0
8272,74.0,0,192,4.0,70.0
8273,58.0,240,960,2.0,70.0
8274,74.0,240,384,4.0,70.0
8275,62.0,0,384,5.0,70.0
8276,63.0,0,240,5.0,70.0
8277,75.0,480,240,4.0,70.0
8278,74.0,240,192,4.0,70.0
8279,62.0,0,192,5.0,70.0
8280,79.0,0,1920,0.0,58.0
8281,67.0,0,1920,2.0,70.0
8282,62.0,0,384,5.0,70.0
8283,74.0,240,384,4.0,70.0
8284,75.0,480,240,4.0,70.0
8285,63.0,0,240,5.0,70.0
8286,74.0,240,192,4.0,70.0
8287,62.0,0,192,5.0,70.0
8288,72.0,0,1920,1.0,58.0
8289,50.0,0,3840,3.0,58.0
8290,57.0,0,1920,2.0,58.0
8291,78.0,0,960,0.0,58.0
8292,66.0,0,960,2.0,58.0
8293,69.0,0,1920,1.0,58.0
8294,58.0,0,192,6.0,58.0
8295,55.0,240,192,6.0,58.0
8296,55.0,0,384,3.0,58.0
8297,55.0,0,384,2.0,58.0
8298,67.0,0,384,2.0,58.0
8299,62.0,0,4224,3.0,58.0
8300,67.0,0,384,1.0,58.0
8301,79.0,0,384,0.0,58.0
8302,70.0,0,384,1.0,58.0
8303,31.0,0,384,8.0,58.0
8304,43.0,0,384,7.0,58.0
8305,58.0,240,192,6.0,58.0
8306,55.0,0,192,6.0,58.0
8307,62.0,0,480,5.0,70.0
8308,74.0,0,480,4.0,70.0
8309,62.0,0,192,6.0,58.0
8310,67.0,0,192,6.0,58.0
8311,82.0,0,384,4.0,70.0
8312,70.0,240,384,5.0,70.0
8313,62.0,240,192,6.0,58.0
8314,67.0,0,192,6.0,58.0
8315,55.0,0,192,6.0,58.0
8316,58.0,240,192,6.0,58.0
8317,55.0,240,192,6.0,58.0
8318,58.0,0,192,6.0,58.0
8319,62.0,0,192,6.0,58.0
8320,67.0,240,192,6.0,58.0
8321,82.0,0,240,4.0,70.0
8322,70.0,0,240,5.0,70.0
8323,69.0,0,192,5.0,70.0
8324,81.0,0,192,4.0,70.0
8325,62.0,240,192,6.0,58.0
8326,67.0,0,192,6.0,58.0
8327,55.0,0,192,6.0,58.0
8328,58.0,0,192,6.0,58.0
8329,79.0,0,384,4.0,70.0
8330,55.0,240,384,7.0,58.0
8331,43.0,0,384,8.0,58.0
8332,67.0,0,384,5.0,70.0
8333,55.0,240,192,6.0,58.0
8334,58.0,0,192,6.0,58.0
8335,62.0,0,192,6.0,58.0
8336,58.0,0,192,6.0,58.0
8337,79.0,0,240,4.0,70.0
8338,67.0,240,240,5.0,70.0
8339,65.0,240,192,5.0,70.0
8340,62.0,0,192,6.0,58.0
8341,77.0,0,192,4.0,70.0
8342,58.0,0,192,6.0,58.0
8343,55.0,0,192,6.0,58.0
8344,58.0,0,192,6.0,58.0
8345,63.0,0,384,5.0,70.0
8346,75.0,240,384,4.0,70.0
8347,58.0,0,192,6.0,58.0
8348,55.0,240,192,6.0,58.0
8349,58.0,0,192,6.0,58.0
8350,67.0,0,192,6.0,58.0
8351,75.0,0,240,4.0,70.0
8352,63.0,240,240,5.0,70.0
8353,58.0,0,192,6.0,58.0
8354,67.0,0,192,6.0,58.0
8355,74.0,240,192,4.0,70.0
8356,62.0,0,192,5.0,70.0
8357,63.0,0,192,6.0,58.0
8358,57.0,0,192,6.0,58.0
8359,72.0,0,384,4.0,70.0
8360,60.0,0,384,5.0,70.0
8361,31.0,0,384,8.0,58.0
8362,43.0,0,384,7.0,58.0
8363,57.0,0,192,6.0,58.0
8364,63.0,240,192,6.0,58.0
8365,63.0,0,192,6.0,58.0
8366,69.0,0,192,6.0,58.0
8367,72.0,0,384,4.0,70.0
8368,60.0,240,384,5.0,70.0
8369,63.0,240,192,6.0,58.0
8370,69.0,0,192,6.0,58.0
8371,63.0,240,192,6.0,58.0
8372,57.0,0,192,6.0,58.0
8373,63.0,0,192,6.0,58.0
8374,57.0,240,192,6.0,58.0
8375,63.0,0,192,6.0,58.0
8376,69.0,240,192,6.0,58.0
8377,74.0,0,240,4.0,70.0
8378,62.0,0,240,5.0,70.0
8379,63.0,0,192,6.0,58.0
8380,72.0,240,192,4.0,70.0
8381,60.0,0,192,5.0,70.0
8382,69.0,0,192,6.0,58.0
8383,57.0,0,192,6.0,58.0
8384,63.0,0,192,6.0,58.0
8385,55.0,0,384,7.0,58.0
8386,60.0,0,384,5.0,70.0
8387,72.0,240,384,4.0,70.0
8388,43.0,0,384,8.0,58.0
8389,57.0,0,192,6.0,58.0
8390,63.0,240,192,6.0,58.0
8391,69.0,240,192,6.0,58.0
8392,63.0,0,192,6.0,58.0
8393,62.0,0,240,5.0,70.0
8394,74.0,0,240,4.0,70.0
8395,63.0,0,192,6.0,58.0
8396,69.0,0,192,6.0,58.0
8397,72.0,0,192,4.0,70.0
8398,60.0,240,192,5.0,70.0
8399,57.0,0,192,6.0,58.0
8400,63.0,0,192,6.0,58.0
8401,60.0,0,384,5.0,70.0
8402,72.0,240,384,4.0,70.0
8403,57.0,240,192,6.0,58.0
8404,63.0,0,192,6.0,58.0
8405,63.0,0,192,6.0,58.0
8406,69.0,240,192,6.0,58.0
8407,74.0,0,240,4.0,70.0
8408,62.0,0,240,5.0,70.0
8409,63.0,240,3744,2.0,58.0
8410,72.0,0,192,4.0,70.0
8411,60.0,240,192,5.0,70.0
8412,69.0,0,192,6.0,58.0
8413,63.0,0,192,6.0,58.0
8414,62.0,0,192,6.0,58.0
8415,57.0,0,192,6.0,58.0
8416,42.0,0,384,7.0,58.0
8417,30.0,0,384,8.0,58.0
8418,57.0,240,192,6.0,58.0
8419,62.0,0,192,6.0,58.0
8420,72.0,240,480,4.0,70.0
8421,60.0,0,480,5.0,70.0
8422,72.0,0,192,6.0,58.0
8423,62.0,0,192,6.0,58.0
8424,69.0,240,384,5.0,70.0
8425,81.0,0,384,4.0,70.0
8426,62.0,0,192,6.0,58.0
8427,72.0,240,192,6.0,58.0
8428,62.0,0,912,2.0,70.0
8429,57.0,0,192,6.0,58.0
8430,62.0,240,192,6.0,58.0
8431,57.0,0,192,6.0,58.0
8432,62.0,240,192,6.0,58.0
8433,72.0,0,192,6.0,58.0
8434,62.0,0,192,6.0,58.0
8435,69.0,0,240,5.0,70.0
8436,81.0,240,240,4.0,70.0
8437,60.0,0,912,2.0,70.0
8438,72.0,0,192,6.0,58.0
8439,62.0,240,192,6.0,58.0
8440,67.0,0,192,5.0,70.0
8441,79.0,0,192,4.0,70.0
8442,60.0,0,192,6.0,58.0
8443,57.0,0,192,6.0,58.0
8444,78.0,0,384,4.0,70.0
8445,66.0,240,384,5.0,70.0
8446,50.0,0,384,7.0,58.0
8447,38.0,0,384,8.0,58.0
8448,57.0,0,192,6.0,58.0
8449,60.0,240,192,6.0,58.0
8450,60.0,0,192,6.0,58.0
8451,69.0,0,192,6.0,58.0
8452,78.0,240,240,4.0,70.0
8453,66.0,0,240,5.0,70.0
8454,75.0,240,192,4.0,70.0
8455,69.0,0,192,6.0,58.0
8456,57.0,0,912,2.0,70.0
8457,60.0,0,192,6.0,58.0
8458,63.0,0,192,5.0,70.0
8459,57.0,0,192,6.0,58.0
8460,66.0,0,192,6.0,58.0
8461,62.0,0,384,5.0,70.0
8462,74.0,0,384,4.0,70.0
8463,57.0,240,192,6.0,58.0
8464,66.0,0,192,6.0,58.0
8465,69.0,0,192,6.0,58.0
8466,66.0,0,192,6.0,58.0
8467,74.0,240,240,4.0,70.0
8468,62.0,0,240,5.0,70.0
8469,66.0,0,192,6.0,58.0
8470,69.0,0,192,6.0,58.0
8471,60.0,0,192,5.0,70.0
8472,54.0,240,912,2.0,70.0
8473,72.0,240,192,4.0,70.0
8474,58.0,0,192,6.0,58.0
8475,55.0,0,192,6.0,58.0
8476,43.0,240,384,7.0,58.0
8477,31.0,0,384,8.0,58.0
8478,58.0,0,384,5.0,70.0
8479,55.0,0,384,2.0,70.0
8480,70.0,0,384,4.0,70.0
8481,58.0,0,192,6.0,58.0
8482,55.0,240,192,6.0,58.0
8483,67.0,0,192,6.0,58.0
8484,62.0,240,192,6.0,58.0
8485,58.0,0,384,5.0,70.0
8486,70.0,0,384,4.0,70.0
8487,62.0,240,192,6.0,58.0
8488,67.0,0,192,6.0,58.0
8489,55.0,0,192,6.0,58.0
8490,58.0,240,192,6.0,58.0
8491,58.0,240,192,6.0,58.0
8492,55.0,0,192,6.0,58.0
8493,67.0,0,192,6.0,58.0
8494,62.0,0,192,6.0,58.0
8495,82.0,240,240,4.0,70.0
8496,70.0,0,240,5.0,70.0
8497,62.0,0,192,6.0,58.0
8498,67.0,240,192,6.0,58.0
8499,81.0,0,192,4.0,70.0
8500,69.0,0,192,5.0,70.0
8501,63.0,0,192,6.0,58.0
8502,57.0,0,192,6.0,58.0
8503,63.0,240,192,6.0,58.0
8504,57.0,0,192,6.0,58.0
8505,81.0,0,480,4.0,70.0
8506,69.0,240,480,5.0,70.0
8507,66.0,240,192,6.0,58.0
8508,63.0,0,192,6.0,58.0
8509,63.0,0,192,6.0,58.0
8510,66.0,240,192,6.0,58.0
8511,84.0,0,480,4.0,70.0
8512,72.0,0,480,5.0,70.0
8513,57.0,0,192,6.0,58.0
8514,63.0,0,192,6.0,58.0
8515,63.0,0,192,6.0,58.0
8516,57.0,240,192,6.0,58.0
8517,66.0,0,480,5.0,70.0
8518,78.0,240,480,4.0,70.0
8519,63.0,240,192,6.0,58.0
8520,66.0,0,192,6.0,58.0
8521,81.0,0,384,4.0,70.0
8522,69.0,0,384,5.0,70.0
8523,66.0,240,192,6.0,58.0
8524,63.0,0,192,6.0,58.0
8525,48.0,0,1920,7.0,58.0
8526,36.0,0,1920,8.0,58.0
8527,62.0,0,192,6.0,58.0
8528,55.0,240,192,6.0,58.0
8529,55.0,240,192,6.0,58.0
8530,62.0,0,192,6.0,58.0
8531,79.0,0,480,4.0,70.0
8532,67.0,0,480,5.0,70.0
8533,67.0,0,192,6.0,58.0
8534,62.0,0,192,6.0,58.0
8535,62.0,240,384,5.0,70.0
8536,74.0,0,384,4.0,70.0
8537,67.0,0,192,6.0,58.0
8538,62.0,240,192,6.0,58.0
8539,62.0,0,192,6.0,58.0
8540,55.0,240,192,6.0,58.0
8541,55.0,0,192,6.0,58.0
8542,62.0,240,192,6.0,58.0
8543,67.0,0,192,6.0,58.0
8544,62.0,0,192,6.0,58.0
8545,70.0,240,240,5.0,70.0
8546,82.0,0,240,4.0,70.0
8547,81.0,240,192,4.0,70.0
8548,69.0,0,192,5.0,70.0
8549,62.0,0,192,6.0,58.0
8550,67.0,0,192,6.0,58.0
8551,46.0,0,1920,7.0,58.0
8552,34.0,0,1920,8.0,58.0
8553,63.0,240,192,6.0,58.0
8554,57.0,0,192,6.0,58.0
8555,63.0,0,192,6.0,58.0
8556,57.0,240,192,6.0,58.0
8557,69.0,0,480,5.0,70.0
8558,81.0,0,480,4.0,70.0
8559,66.0,0,192,6.0,58.0
8560,63.0,0,192,6.0,58.0
8561,66.0,0,192,6.0,58.0
8562,63.0,240,192,6.0,58.0
8563,84.0,0,480,4.0,70.0
8564,72.0,240,480,5.0,70.0
8565,57.0,0,192,6.0,58.0
8566,63.0,240,192,6.0,58.0
8567,63.0,240,192,6.0,58.0
8568,57.0,0,192,6.0,58.0
8569,66.0,0,480,5.0,70.0
8570,78.0,0,480,4.0,70.0
8571,66.0,0,192,6.0,58.0
8572,63.0,0,192,6.0,58.0
8573,81.0,0,384,4.0,70.0
8574,69.0,240,384,5.0,70.0
8575,63.0,240,192,6.0,58.0
8576,66.0,0,192,6.0,58.0
8577,36.0,0,1920,8.0,58.0
8578,48.0,0,1920,7.0,58.0
8579,79.0,240,480,4.0,70.0
8580,67.0,0,480,5.0,70.0
8581,70.0,480,384,5.0,70.0
8582,82.0,0,384,4.0,70.0
8583,81.0,480,240,4.0,70.0
8584,69.0,0,240,5.0,70.0
8585,79.0,0,240,4.0,70.0
8586,67.0,240,240,5.0,70.0
8587,77.0,240,240,4.0,70.0
8588,65.0,0,240,5.0,70.0
8589,55.0,0,1824,6.0,58.0
8590,34.0,0,1824,8.0,58.0
8591,62.0,0,1824,6.0,58.0
8592,46.0,0,1824,7.0,58.0
8593,63.0,0,228,5.0,70.0
8594,75.0,240,228,4.0,70.0
8595,54.0,0,480,2.0,70.0
8596,78.0,480,480,0.0,70.0
8597,66.0,0,480,1.0,70.0
8598,55.0,480,480,2.0,70.0
8599,79.0,0,480,0.0,70.0
8600,58.0,240,1440,6.0,58.0
8601,67.0,0,480,1.0,70.0
8602,40.0,0,1920,8.0,58.0
8603,62.0,0,1920,5.0,58.0
8604,81.0,0,480,0.0,70.0
8605,57.0,0,480,2.0,70.0
8606,52.0,0,1920,7.0,58.0
8607,74.0,0,1920,4.0,70.0
8608,57.0,480,480,6.0,58.0
8609,69.0,0,480,1.0,70.0
8610,70.0,0,480,1.0,70.0
8611,82.0,0,480,0.0,70.0
8612,58.0,0,480,2.0,70.0
8613,84.0,0,240,0.0,70.0
8614,72.0,480,240,1.0,70.0
8615,60.0,0,240,2.0,70.0
8616,82.0,0,240,0.0,70.0
8617,55.0,0,960,6.0,58.0
8618,58.0,240,240,2.0,70.0
8619,70.0,0,240,1.0,70.0
8620,69.0,0,480,1.0,70.0
8621,54.0,0,480,6.0,58.0
8622,81.0,240,480,0.0,70.0
8623,57.0,0,480,2.0,70.0
8624,73.0,0,1824,4.0,70.0
8625,61.0,0,1824,5.0,58.0
8626,55.0,0,384,6.0,58.0
8627,67.0,0,480,1.0,70.0
8628,79.0,0,480,0.0,70.0
8629,39.0,480,1920,8.0,58.0
8630,51.0,0,1920,7.0,58.0
8631,55.0,480,480,2.0,70.0
8632,66.0,0,384,1.0,70.0
8633,54.0,0,384,2.0,70.0
8634,78.0,480,384,0.0,70.0
8635,50.0,0,768,7.0,58.0
8636,57.0,0,768,6.0,58.0
8637,74.0,0,768,4.0,58.0
8638,38.0,0,768,8.0,58.0
8639,62.0,0,768,5.0,58.0
8640,38.0,0,192,8.0,105.0
8641,50.0,0,192,7.0,105.0
8642,62.0,480,192,6.0,105.0
8643,62.0,0,192,5.0,105.0
8644,62.0,0,192,4.0,105.0
8645,62.0,0,192,6.0,105.0
8646,62.0,0,192,4.0,105.0
8647,62.0,0,192,5.0,105.0
8648,38.0,240,192,8.0,105.0
8649,50.0,0,192,7.0,105.0
8650,64.0,0,960,2.0,105.0
8651,58.0,0,960,2.0,105.0
8652,82.0,0,960,1.0,105.0
8653,79.0,960,960,1.0,105.0
8654,85.0,0,960,0.0,105.0
8655,57.0,0,384,2.0,105.0
8656,81.0,0,384,1.0,105.0
8657,86.0,0,384,0.0,105.0
8658,66.0,0,384,2.0,105.0
8659,78.0,0,384,1.0,105.0
8660,50.0,0,768,7.0,105.0
8661,38.0,0,768,8.0,105.0
8662,62.0,0,768,5.0,105.0
8663,62.0,240,768,6.0,105.0
8664,62.0,0,768,4.0,105.0
8665,62.0,0,192,6.0,105.0
8666,50.0,480,192,7.0,105.0
8667,62.0,0,192,5.0,105.0
8668,38.0,0,192,8.0,105.0
8669,62.0,0,192,4.0,105.0
8670,62.0,0,192,5.0,105.0
8671,62.0,240,192,4.0,105.0
8672,38.0,0,192,8.0,105.0
8673,50.0,0,192,7.0,105.0
8674,62.0,0,192,6.0,105.0
8675,79.0,0,960,1.0,105.0
8676,85.0,0,960,0.0,105.0
8677,82.0,960,960,1.0,105.0
8678,58.0,0,960,2.0,105.0
8679,64.0,0,960,2.0,105.0
8680,57.0,0,384,2.0,105.0
8681,86.0,0,384,0.0,105.0
8682,66.0,0,384,2.0,105.0
8683,78.0,0,384,1.0,105.0
8684,81.0,0,384,1.0,105.0
8685,62.0,0,768,6.0,105.0
8686,62.0,0,768,5.0,105.0
8687,38.0,240,768,8.0,105.0
8688,50.0,0,768,7.0,105.0
8689,62.0,0,768,4.0,105.0
8690,38.0,480,168,8.0,105.0
8691,62.0,0,168,5.0,105.0
8692,62.0,0,168,6.0,105.0
8693,50.0,0,168,7.0,105.0
8694,62.0,0,168,4.0,105.0
8695,38.0,0,168,8.0,105.0
8696,62.0,0,168,4.0,105.0
8697,62.0,240,168,6.0,105.0
8698,50.0,0,168,7.0,105.0
8699,62.0,0,168,5.0,105.0
8700,58.0,960,960,2.0,105.0
8701,64.0,0,960,2.0,105.0
8702,85.0,0,960,0.0,105.0
8703,82.0,0,960,1.0,105.0
8704,79.0,0,960,1.0,105.0
8705,86.0,0,288,0.0,105.0
8706,57.0,0,288,2.0,105.0
8707,78.0,0,288,1.0,105.0
8708,81.0,0,288,1.0,105.0
8709,66.0,240,288,2.0,105.0
8710,50.0,0,336,7.0,105.0
8711,62.0,0,336,6.0,105.0
8712,38.0,0,336,8.0,105.0
8713,62.0,0,336,4.0,105.0
8714,62.0,0,336,5.0,105.0
8715,62.0,0,168,5.0,105.0
8716,38.0,0,168,8.0,105.0
8717,62.0,480,168,6.0,105.0
8718,62.0,0,168,4.0,105.0
8719,50.0,0,168,7.0,105.0
8720,82.0,0,288,1.0,105.0
8721,64.0,0,288,2.0,105.0
8722,58.0,0,288,2.0,105.0
8723,85.0,0,288,0.0,105.0
8724,79.0,0,288,1.0,105.0
8725,38.0,240,168,8.0,105.0
8726,62.0,0,168,4.0,105.0
8727,62.0,0,168,5.0,105.0
8728,62.0,0,168,6.0,105.0
8729,50.0,0,168,7.0,105.0
8730,57.0,0,288,2.0,105.0
8731,81.0,0,288,1.0,105.0
8732,78.0,0,288,1.0,105.0
8733,86.0,240,288,0.0,105.0
8734,66.0,0,288,2.0,105.0
8735,62.0,0,336,4.0,105.0
8736,50.0,0,336,7.0,105.0
8737,62.0,0,336,6.0,105.0
8738,38.0,0,336,8.0,105.0
8739,62.0,0,336,5.0,105.0
8740,62.0,0,168,4.0,105.0
8741,50.0,0,168,7.0,105.0
8742,38.0,0,168,8.0,105.0
8743,62.0,0,168,5.0,105.0
8744,62.0,480,168,6.0,105.0
8745,64.0,0,288,2.0,105.0
8746,85.0,0,288,0.0,105.0
8747,79.0,0,288,1.0,105.0
8748,58.0,0,288,2.0,105.0
8749,82.0,0,288,1.0,105.0
8750,38.0,0,168,8.0,105.0
8751,62.0,0,168,4.0,105.0
8752,62.0,0,168,6.0,105.0
8753,62.0,240,168,5.0,105.0
8754,50.0,0,168,7.0,105.0
8755,81.0,0,768,1.0,105.0
8756,78.0,0,768,1.0,105.0
8757,50.0,0,768,7.0,105.0
8758,62.0,0,768,6.0,105.0
8759,38.0,0,768,8.0,105.0
8760,86.0,240,768,0.0,105.0
8761,62.0,0,768,4.0,105.0
8762,62.0,0,768,5.0,105.0
8763,66.0,0,960,2.0,70.0
8764,75.0,480,240,4.0,70.0
8765,63.0,0,240,5.0,70.0
8766,62.0,0,192,5.0,70.0
8767,74.0,240,192,4.0,70.0
8768,60.0,960,960,2.0,70.0
8769,57.0,0,1920,2.0,70.0
8770,62.0,0,384,5.0,70.0
8771,74.0,240,384,4.0,70.0
8772,75.0,0,240,4.0,70.0
8773,63.0,480,240,5.0,70.0
8774,62.0,240,192,5.0,70.0
8775,74.0,0,192,4.0,70.0
8776,58.0,0,960,2.0,70.0
8777,55.0,0,960,2.0,70.0
8778,74.0,0,384,4.0,70.0
8779,62.0,240,384,5.0,70.0
8780,75.0,0,240,4.0,70.0
8781,63.0,480,240,5.0,70.0
8782,74.0,240,192,4.0,70.0
8783,62.0,0,192,5.0,70.0
8784,54.0,0,960,2.0,70.0
8785,57.0,0,960,2.0,70.0
8786,58.0,0,192,6.0,58.0
8787,55.0,0,192,6.0,58.0
8788,58.0,0,384,2.0,70.0
8789,55.0,240,384,2.0,70.0
8790,43.0,0,384,7.0,58.0
8791,31.0,0,384,8.0,58.0
8792,55.0,240,192,6.0,58.0
8793,58.0,0,192,6.0,58.0
8794,74.0,0,480,4.0,70.0
8795,62.0,0,480,5.0,70.0
8796,62.0,0,192,6.0,58.0
8797,67.0,0,192,6.0,58.0
8798,70.0,240,384,5.0,70.0
8799,82.0,0,384,4.0,70.0
8800,67.0,240,192,6.0,58.0
8801,62.0,0,192,6.0,58.0
8802,55.0,0,192,6.0,58.0
8803,58.0,240,192,6.0,58.0
8804,55.0,0,192,6.0,58.0
8805,58.0,240,192,6.0,58.0
8806,67.0,0,192,6.0,58.0
8807,62.0,240,192,6.0,58.0
8808,82.0,0,240,4.0,70.0
8809,70.0,0,240,5.0,70.0
8810,80.0,0,192,4.0,70.0
8811,68.0,0,192,5.0,70.0
8812,62.0,0,192,6.0,58.0
8813,67.0,240,192,6.0,58.0
8814,63.0,0,192,6.0,58.0
8815,58.0,0,192,6.0,58.0
8816,67.0,0,384,5.0,70.0
8817,55.0,0,384,7.0,58.0
8818,43.0,0,384,8.0,58.0
8819,79.0,240,384,4.0,70.0
8820,58.0,0,192,6.0,58.0
8821,63.0,240,192,6.0,58.0
8822,67.0,0,192,6.0,58.0
8823,63.0,240,192,6.0,58.0
8824,79.0,0,240,4.0,70.0
8825,67.0,0,240,5.0,70.0
8826,63.0,0,192,6.0,58.0
8827,67.0,240,192,6.0,58.0
8828,77.0,0,192,4.0,70.0
8829,65.0,0,192,5.0,70.0
8830,63.0,0,192,6.0,58.0
8831,58.0,0,192,6.0,58.0
8832,63.0,0,384,5.0,70.0
8833,75.0,240,384,4.0,70.0
8834,58.0,0,192,6.0,58.0
8835,63.0,240,192,6.0,58.0
8836,67.0,0,192,6.0,58.0
8837,70.0,0,192,6.0,58.0
8838,77.0,0,240,4.0,70.0
8839,65.0,240,240,5.0,70.0
8840,63.0,240,192,5.0,70.0
8841,75.0,0,192,4.0,70.0
8842,70.0,0,192,6.0,58.0
8843,67.0,0,192,6.0,58.0
8844,56.0,0,192,6.0,58.0
8845,58.0,0,192,6.0,58.0
8846,53.0,0,384,7.0,58.0
8847,74.0,0,384,4.0,70.0
8848,41.0,0,384,8.0,58.0
8849,62.0,0,384,5.0,70.0
8850,58.0,0,192,6.0,58.0
8851,56.0,240,192,6.0,58.0
8852,58.0,0,192,6.0,58.0
8853,68.0,0,192,6.0,58.0
8854,74.0,0,384,4.0,70.0
8855,62.0,240,384,5.0,70.0
8856,58.0,0,192,6.0,58.0
8857,68.0,240,192,6.0,58.0
8858,58.0,0,192,6.0,58.0
8859,56.0,240,192,6.0,58.0
8860,56.0,240,192,6.0,58.0
8861,58.0,0,192,6.0,58.0
8862,62.0,0,192,6.0,58.0
8863,58.0,0,192,6.0,58.0
8864,82.0,0,240,4.0,70.0
8865,70.0,240,240,5.0,70.0
8866,82.0,0,1824,0.0,105.0
8867,80.0,240,192,4.0,70.0
8868,68.0,0,192,5.0,70.0
8869,62.0,0,192,6.0,58.0
8870,58.0,0,192,6.0,58.0
8871,62.0,0,1920,2.0,70.0
8872,59.0,0,192,6.0,58.0
8873,53.0,240,192,6.0,58.0
8874,51.0,0,384,7.0,58.0
8875,39.0,0,384,8.0,58.0
8876,68.0,0,384,5.0,70.0
8877,80.0,0,384,4.0,70.0
8878,59.0,0,192,6.0,58.0
8879,53.0,240,192,6.0,58.0
8880,59.0,0,192,6.0,58.0
8881,65.0,240,192,6.0,58.0
8882,82.0,0,240,4.0,70.0
8883,70.0,0,240,5.0,70.0
8884,80.0,0,192,4.0,70.0
8885,59.0,0,192,6.0,58.0
8886,68.0,240,192,5.0,70.0
8887,65.0,0,192,6.0,58.0
8888,59.0,0,192,6.0,58.0
8889,53.0,240,192,6.0,58.0
8890,68.0,0,384,5.0,70.0
8891,80.0,0,384,4.0,70.0
8892,59.0,0,192,6.0,58.0
8893,53.0,240,192,6.0,58.0
8894,65.0,0,192,6.0,58.0
8895,59.0,240,192,6.0,58.0
8896,82.0,0,240,4.0,70.0
8897,70.0,0,240,5.0,70.0
8898,63.0,0,1824,2.0,70.0
8899,83.0,0,1824,0.0,70.0
8900,80.0,0,192,4.0,70.0
8901,65.0,0,192,6.0,58.0
8902,59.0,240,192,6.0,58.0
8903,68.0,0,192,5.0,70.0
8904,58.0,0,192,6.0,58.0
8905,53.0,0,192,6.0,58.0
8906,50.0,0,384,7.0,58.0
8907,38.0,0,384,8.0,58.0
8908,53.0,240,192,6.0,58.0
8909,58.0,0,192,6.0,58.0
8910,80.0,240,480,4.0,70.0
8911,68.0,0,480,5.0,70.0
8912,68.0,240,192,6.0,58.0
8913,65.0,0,192,6.0,58.0
8914,58.0,0,384,5.0,70.0
8915,70.0,0,384,4.0,70.0
8916,68.0,240,192,6.0,58.0
8917,82.0,0,912,0.0,70.0
8918,65.0,0,192,6.0,58.0
8919,65.0,0,960,2.0,70.0
8920,58.0,0,192,6.0,58.0
8921,53.0,240,192,6.0,58.0
8922,53.0,240,192,6.0,58.0
8923,58.0,0,192,6.0,58.0
8924,65.0,240,192,6.0,58.0
8925,68.0,0,192,6.0,58.0
8926,65.0,0,240,5.0,70.0
8927,77.0,0,240,4.0,70.0
8928,68.0,0,192,6.0,58.0
8929,65.0,0,192,6.0,58.0
8930,75.0,0,192,4.0,70.0
8931,63.0,240,192,5.0,70.0
8932,62.0,0,960,2.0,70.0
8933,56.0,0,192,6.0,58.0
8934,53.0,0,192,6.0,58.0
8935,34.0,0,384,8.0,58.0
8936,74.0,240,384,4.0,70.0
8937,46.0,0,384,7.0,58.0
8938,62.0,0,384,5.0,70.0
8939,53.0,240,192,6.0,58.0
8940,56.0,0,192,6.0,58.0
8941,65.0,0,192,6.0,58.0
8942,56.0,240,192,6.0,58.0
8943,74.0,0,240,4.0,70.0
8944,62.0,0,240,5.0,70.0
8945,56.0,0,192,6.0,58.0
8946,86.0,0,1872,0.0,70.0
8947,65.0,0,192,6.0,58.0
8948,72.0,240,192,4.0,70.0
8949,60.0,0,192,5.0,70.0
8950,58.0,0,960,2.0,70.0
8951,80.0,240,6720,1.0,105.0
8952,62.0,0,192,6.0,58.0
8953,53.0,0,192,6.0,58.0
8954,58.0,0,384,5.0,70.0
8955,70.0,0,384,4.0,70.0
8956,53.0,0,192,6.0,58.0
8957,62.0,240,192,6.0,58.0
8958,65.0,0,192,6.0,58.0
8959,62.0,240,192,6.0,58.0
8960,58.0,0,240,5.0,70.0
8961,70.0,0,240,4.0,70.0
8962,77.0,0,768,1.0,70.0
8963,62.0,0,768,2.0,70.0
8964,65.0,0,192,6.0,58.0
8965,80.0,240,912,0.0,70.0
8966,62.0,0,192,6.0,58.0
8967,68.0,240,192,4.0,70.0
8968,56.0,0,192,5.0,70.0
8969,51.0,0,144,2.0,105.0
8970,51.0,240,144,7.0,105.0
8971,39.0,0,192,8.0,105.0
8972,55.0,0,144,7.0,105.0
8973,63.0,0,384,6.0,105.0
8974,63.0,0,384,2.0,105.0
8975,55.0,0,144,2.0,105.0
8976,43.0,240,192,8.0,105.0
8977,58.0,0,144,2.0,105.0
8978,58.0,0,144,6.0,105.0
8979,58.0,240,144,7.0,105.0
8980,46.0,0,192,8.0,105.0
8981,79.0,0,768,0.0,105.0
8982,63.0,0,144,6.0,105.0
8983,63.0,0,144,7.0,105.0
8984,63.0,240,144,2.0,105.0
8985,51.0,0,192,8.0,105.0
8986,67.0,0,144,6.0,105.0
8987,67.0,0,144,7.0,105.0
8988,67.0,0,144,2.0,105.0
8989,55.0,240,192,8.0,105.0
8990,65.0,0,144,7.0,105.0
8991,65.0,0,144,6.0,105.0
8992,65.0,240,144,2.0,105.0
8993,53.0,0,192,8.0,105.0
8994,67.0,0,1536,4.0,116.0
8995,55.0,0,1536,5.0,105.0
8996,58.0,0,1536,3.0,105.0
8997,63.0,0,1536,5.0,105.0
8998,75.0,0,1536,4.0,116.0
8999,75.0,0,1536,1.0,105.0
9000,55.0,0,1536,3.0,105.0
9001,67.0,0,144,6.0,105.0
9002,67.0,0,144,7.0,105.0
9003,67.0,0,144,2.0,105.0
9004,55.0,240,192,8.0,105.0
9005,75.0,0,768,0.0,105.0
9006,63.0,0,144,7.0,105.0
9007,63.0,0,144,6.0,105.0
9008,63.0,240,144,2.0,105.0
9009,51.0,0,192,8.0,105.0
9010,50.0,0,192,8.0,105.0
9011,62.0,0,192,6.0,105.0
9012,62.0,0,192,2.0,105.0
9013,62.0,0,192,7.0,105.0
9014,62.0,0,384,4.0,116.0
9015,70.0,0,384,4.0,116.0
9016,63.0,240,192,2.0,105.0
9017,63.0,0,192,7.0,105.0
9018,51.0,0,192,8.0,105.0
9019,63.0,0,192,6.0,105.0
9020,65.0,0,192,2.0,105.0
9021,65.0,0,192,6.0,105.0
9022,65.0,0,192,7.0,105.0
9023,53.0,240,192,8.0,105.0
9024,63.0,0,192,7.0,105.0
9025,51.0,0,192,8.0,105.0
9026,63.0,240,192,6.0,105.0
9027,63.0,0,192,2.0,105.0
9028,50.0,240,192,8.0,105.0
9029,62.0,0,192,6.0,105.0
9030,70.0,0,1152,5.0,105.0
9031,62.0,0,1152,5.0,105.0
9032,62.0,0,192,7.0,105.0
9033,62.0,0,192,2.0,105.0
9034,82.0,0,1248,4.0,116.0
9035,60.0,0,192,7.0,105.0
9036,60.0,0,192,6.0,105.0
9037,60.0,240,192,2.0,105.0
9038,48.0,0,192,8.0,105.0
9039,82.0,0,1536,1.0,105.0
9040,70.0,240,1536,1.0,105.0
9041,82.0,0,1536,0.0,105.0
9042,50.0,0,1536,3.0,105.0
9043,65.0,0,1536,3.0,105.0
9044,62.0,0,192,2.0,105.0
9045,50.0,0,192,8.0,105.0
9046,62.0,0,192,7.0,105.0
9047,62.0,240,192,6.0,105.0
9048,70.0,0,132,5.0,105.0
9049,82.0,0,132,4.0,116.0
9050,58.0,0,192,7.0,105.0
9051,46.0,0,192,8.0,105.0
9052,58.0,240,192,6.0,105.0
9053,58.0,0,192,2.0,105.0
9054,48.0,0,192,8.0,105.0
9055,60.0,0,192,2.0,105.0
9056,60.0,0,192,7.0,105.0
9057,63.0,0,192,6.0,105.0
9058,80.0,0,264,4.0,116.0
9059,68.0,0,264,5.0,105.0
9060,63.0,0,192,7.0,105.0
9061,51.0,240,192,8.0,105.0
9062,60.0,0,192,6.0,105.0
9063,63.0,0,192,2.0,105.0
9064,60.0,0,192,7.0,105.0
9065,63.0,240,192,6.0,105.0
9066,60.0,0,192,2.0,105.0
9067,48.0,0,192,8.0,105.0
9068,84.0,0,264,4.0,116.0
9069,72.0,0,264,5.0,105.0
9070,51.0,0,192,8.0,105.0
9071,63.0,240,192,7.0,105.0
9072,63.0,0,192,2.0,105.0
9073,60.0,0,192,6.0,105.0
9074,48.0,0,192,8.0,105.0
9075,60.0,240,192,7.0,105.0
9076,60.0,0,192,2.0,105.0
9077,63.0,0,192,6.0,105.0
9078,75.0,0,264,5.0,105.0
9079,87.0,0,264,4.0,116.0
9080,63.0,0,192,7.0,105.0
9081,63.0,0,192,2.0,105.0
9082,60.0,0,192,6.0,105.0
9083,51.0,240,192,8.0,105.0
9084,80.0,0,1536,1.0,105.0
9085,68.0,0,1536,1.0,105.0
9086,80.0,240,1536,0.0,105.0
9087,63.0,240,192,6.0,105.0
9088,60.0,0,192,7.0,105.0
9089,48.0,0,192,8.0,105.0
9090,60.0,0,192,2.0,105.0
9091,63.0,0,192,2.0,105.0
9092,63.0,0,192,7.0,105.0
9093,51.0,0,192,8.0,105.0
9094,60.0,240,192,6.0,105.0
9095,58.0,240,192,7.0,105.0
9096,58.0,0,192,2.0,105.0
9097,46.0,0,192,8.0,105.0
9098,63.0,0,192,6.0,105.0
9099,67.0,0,264,5.0,105.0
9100,79.0,0,264,4.0,116.0
9101,63.0,0,192,2.0,105.0
9102,63.0,240,192,7.0,105.0
9103,51.0,0,192,8.0,105.0
9104,58.0,0,192,6.0,105.0
9105,58.0,240,192,2.0,105.0
9106,58.0,0,192,7.0,105.0
9107,46.0,0,192,8.0,105.0
9108,63.0,0,192,6.0,105.0
9109,82.0,0,264,4.0,116.0
9110,70.0,0,264,5.0,105.0
9111,79.0,0,768,0.0,105.0
9112,58.0,0,192,6.0,105.0
9113,63.0,0,192,7.0,105.0
9114,63.0,240,192,2.0,105.0
9115,51.0,0,192,8.0,105.0
9116,58.0,0,192,2.0,105.0
9117,63.0,240,192,6.0,105.0
9118,46.0,0,192,8.0,105.0
9119,58.0,0,192,7.0,105.0
9120,87.0,0,264,4.0,116.0
9121,75.0,0,264,5.0,105.0
9122,63.0,0,192,2.0,105.0
9123,51.0,0,192,8.0,105.0
9124,58.0,240,192,6.0,105.0
9125,63.0,0,192,7.0,105.0
9126,79.0,0,1536,1.0,105.0
9127,67.0,0,1536,1.0,105.0
9128,58.0,0,192,2.0,105.0
9129,46.0,0,192,8.0,105.0
9130,63.0,0,192,6.0,105.0
9131,58.0,240,192,7.0,105.0
9132,91.0,0,768,0.0,105.0
9133,79.0,0,132,4.0,116.0
9134,67.0,0,132,5.0,105.0
9135,58.0,0,192,6.0,105.0
9136,63.0,240,192,2.0,105.0
9137,63.0,0,192,7.0,105.0
9138,51.0,0,192,8.0,105.0
9139,56.0,0,192,2.0,105.0
9140,56.0,0,192,7.0,105.0
9141,44.0,0,192,8.0,105.0
9142,60.0,0,192,6.0,105.0
9143,77.0,0,264,4.0,116.0
9144,65.0,0,264,5.0,105.0
9145,60.0,240,192,7.0,105.0
9146,68.0,0,192,6.0,105.0
9147,60.0,0,192,2.0,105.0
9148,48.0,0,192,8.0,105.0
9149,44.0,240,192,8.0,105.0
9150,56.0,0,192,2.0,105.0
9151,56.0,0,192,7.0,105.0
9152,72.0,0,192,6.0,105.0
9153,68.0,0,264,5.0,105.0
9154,80.0,0,264,4.0,116.0
9155,60.0,0,192,2.0,105.0
9156,48.0,240,192,8.0,105.0
9157,68.0,0,192,6.0,105.0
9158,60.0,0,192,7.0,105.0
9159,56.0,0,192,2.0,105.0
9160,72.0,0,192,6.0,105.0
9161,44.0,0,192,8.0,105.0
9162,56.0,240,192,7.0,105.0
9163,84.0,0,264,4.0,116.0
9164,72.0,0,264,5.0,105.0
9165,60.0,0,192,7.0,105.0
9166,60.0,240,192,2.0,105.0
9167,48.0,0,192,8.0,105.0
9168,68.0,0,192,6.0,105.0
9169,65.0,0,1536,1.0,105.0
9170,77.0,0,1536,1.0,105.0
9171,89.0,240,1536,0.0,105.0
9172,44.0,240,192,8.0,105.0
9173,56.0,0,192,7.0,105.0
9174,56.0,0,192,2.0,105.0
9175,72.0,0,192,6.0,105.0
9176,77.0,0,264,4.0,116.0
9177,65.0,0,264,5.0,105.0
9178,68.0,240,192,6.0,105.0
9179,48.0,0,192,8.0,105.0
9180,60.0,0,192,7.0,105.0
9181,60.0,0,192,2.0,105.0
9182,55.0,0,192,7.0,105.0
9183,55.0,240,192,2.0,105.0
9184,43.0,0,192,8.0,105.0
9185,70.0,0,192,6.0,105.0
9186,76.0,0,264,4.0,116.0
9187,64.0,0,264,5.0,105.0
9188,58.0,0,192,7.0,105.0
9189,46.0,0,192,8.0,105.0
9190,58.0,0,192,2.0,105.0
9191,67.0,240,192,6.0,105.0
9192,70.0,240,192,6.0,105.0
9193,43.0,0,192,8.0,105.0
9194,55.0,0,192,7.0,105.0
9195,55.0,0,192,2.0,105.0
9196,79.0,0,264,4.0,116.0
9197,67.0,0,264,5.0,105.0
9198,88.0,0,768,0.0,105.0
9199,76.0,0,768,1.0,105.0
9200,64.0,0,768,1.0,105.0
9201,58.0,0,192,7.0,105.0
9202,67.0,0,192,6.0,105.0
9203,58.0,0,192,2.0,105.0
9204,46.0,240,192,8.0,105.0
9205,53.0,0,192,2.0,105.0
9206,41.0,0,192,8.0,105.0
9207,68.0,240,192,6.0,105.0
9208,53.0,0,192,7.0,105.0
9209,82.0,0,264,4.0,116.0
9210,70.0,0,264,5.0,105.0
9211,44.0,0,192,8.0,105.0
9212,56.0,240,192,2.0,105.0
9213,65.0,0,192,6.0,105.0
9214,56.0,0,192,7.0,105.0
9215,58.0,0,1536,3.0,105.0
9216,41.0,0,192,8.0,105.0
9217,53.0,0,192,2.0,105.0
9218,53.0,0,192,7.0,105.0
9219,68.0,240,192,6.0,105.0
9220,61.0,0,264,5.0,105.0
9221,73.0,0,264,4.0,116.0
9222,73.0,0,768,1.0,105.0
9223,85.0,0,768,0.0,105.0
9224,61.0,0,768,1.0,105.0
9225,56.0,0,192,2.0,105.0
9226,56.0,0,192,7.0,105.0
9227,44.0,240,192,8.0,105.0
9228,65.0,0,192,6.0,105.0
9229,40.0,0,192,8.0,105.0
9230,67.0,0,192,6.0,105.0
9231,52.0,0,192,7.0,105.0
9232,52.0,0,192,2.0,105.0
9233,60.0,0,264,5.0,105.0
9234,72.0,0,264,4.0,116.0
9235,43.0,0,192,8.0,105.0
9236,55.0,0,192,2.0,105.0
9237,64.0,0,192,6.0,105.0
9238,55.0,240,192,7.0,105.0
9239,40.0,0,192,8.0,105.0
9240,52.0,240,192,2.0,105.0
9241,67.0,0,192,6.0,105.0
9242,52.0,0,192,7.0,105.0
9243,64.0,0,264,5.0,105.0
9244,76.0,0,264,4.0,116.0
9245,84.0,240,768,0.0,105.0
9246,72.0,0,768,1.0,105.0
9247,60.0,0,768,1.0,105.0
9248,55.0,0,768,3.0,105.0
9249,60.0,0,768,3.0,105.0
9250,55.0,0,192,2.0,105.0
9251,64.0,0,192,6.0,105.0
9252,43.0,240,192,8.0,105.0
9253,55.0,0,192,7.0,105.0
9254,64.0,240,192,6.0,105.0
9255,48.0,0,192,7.0,105.0
9256,36.0,0,192,8.0,105.0
9257,48.0,0,192,2.0,105.0
9258,67.0,0,264,5.0,105.0
9259,79.0,0,264,4.0,116.0
9260,52.0,0,192,2.0,105.0
9261,60.0,0,192,6.0,105.0
9262,40.0,0,192,8.0,105.0
9263,52.0,240,192,7.0,105.0
9264,48.0,0,192,7.0,105.0
9265,36.0,0,192,8.0,105.0
9266,48.0,0,192,2.0,105.0
9267,64.0,0,192,6.0,105.0
9268,60.0,240,264,5.0,105.0
9269,72.0,0,264,4.0,116.0
9270,60.0,0,768,3.0,105.0
9271,79.0,0,768,1.0,105.0
9272,76.0,0,768,1.0,105.0
9273,82.0,0,768,0.0,105.0
9274,55.0,0,768,3.0,105.0
9275,52.0,0,192,2.0,105.0
9276,60.0,0,192,6.0,105.0
9277,52.0,240,192,7.0,105.0
9278,40.0,0,192,8.0,105.0
9279,68.0,0,192,4.0,92.0
9280,68.0,0,192,5.0,92.0
9281,65.0,0,192,4.0,92.0
9282,65.0,240,192,5.0,92.0
9283,72.0,240,192,5.0,92.0
9284,72.0,0,192,4.0,92.0
9285,80.0,0,768,0.0,105.0
9286,68.0,0,192,5.0,92.0
9287,68.0,240,192,4.0,92.0
9288,77.0,0,192,4.0,92.0
9289,77.0,240,192,5.0,92.0
9290,72.0,240,192,4.0,92.0
9291,72.0,0,192,5.0,92.0
9292,41.0,0,1536,8.0,105.0
9293,53.0,0,1536,7.0,105.0
9294,65.0,0,1536,3.0,116.0
9295,53.0,0,1536,2.0,105.0
9296,65.0,0,1536,6.0,105.0
9297,80.0,0,192,5.0,92.0
9298,80.0,240,192,4.0,92.0
9299,77.0,0,768,0.0,105.0
9300,77.0,240,1728,1.0,105.0
9301,65.0,0,768,1.0,105.0
9302,77.0,0,192,4.0,92.0
9303,77.0,240,192,5.0,92.0
9304,76.0,240,192,4.0,92.0
9305,76.0,0,192,5.0,92.0
9306,79.0,0,192,4.0,92.0
9307,79.0,240,192,5.0,92.0
9308,84.0,0,192,5.0,92.0
9309,84.0,240,192,4.0,92.0
9310,82.0,240,192,4.0,92.0
9311,82.0,0,192,5.0,92.0
9312,48.0,0,1152,8.0,105.0
9313,80.0,240,192,4.0,92.0
9314,60.0,0,1152,7.0,105.0
9315,72.0,0,1152,6.0,105.0
9316,80.0,0,192,5.0,92.0
9317,60.0,0,1152,2.0,105.0
9318,79.0,240,192,4.0,92.0
9319,79.0,0,192,5.0,92.0
9320,72.0,0,1536,3.0,116.0
9321,72.0,0,1536,1.0,105.0
9322,84.0,0,1536,0.0,105.0
9323,77.0,0,192,5.0,92.0
9324,77.0,240,192,4.0,92.0
9325,60.0,0,144,7.0,105.0
9326,48.0,0,144,8.0,105.0
9327,60.0,0,144,6.0,105.0
9328,60.0,240,144,2.0,105.0
9329,75.0,0,192,4.0,92.0
9330,75.0,0,192,5.0,92.0
9331,73.0,0,192,5.0,92.0
9332,73.0,0,192,4.0,92.0
9333,58.0,240,288,6.0,105.0
9334,58.0,0,288,7.0,105.0
9335,58.0,0,288,2.0,105.0
9336,46.0,0,288,8.0,105.0
9337,77.0,240,192,5.0,92.0
9338,77.0,0,192,4.0,92.0
9339,82.0,240,192,4.0,92.0
9340,82.0,0,192,5.0,92.0
9341,61.0,0,288,7.0,105.0
9342,84.0,0,2688,1.0,105.0
9343,49.0,0,288,8.0,105.0
9344,61.0,0,288,2.0,105.0
9345,61.0,0,288,6.0,105.0
9346,80.0,240,192,5.0,92.0
9347,80.0,0,192,4.0,92.0
9348,79.0,0,192,5.0,92.0
9349,79.0,0,192,4.0,92.0
9350,67.0,240,288,2.0,105.0
9351,67.0,0,288,7.0,105.0
9352,55.0,0,288,8.0,105.0
9353,67.0,0,288,6.0,105.0
9354,77.0,240,192,5.0,92.0
9355,77.0,0,192,4.0,92.0
9356,85.0,0,1536,0.0,105.0
9357,75.0,240,192,5.0,92.0
9358,75.0,0,192,4.0,92.0
9359,73.0,0,1728,1.0,105.0
9360,73.0,0,192,4.0,92.0
9361,73.0,240,192,5.0,92.0
9362,72.0,0,192,5.0,92.0
9363,72.0,240,192,4.0,92.0
9364,56.0,0,288,2.0,105.0
9365,44.0,0,288,8.0,105.0
9366,56.0,0,288,6.0,105.0
9367,56.0,0,288,7.0,105.0
9368,75.0,240,192,4.0,92.0
9369,75.0,0,192,5.0,92.0
9370,80.0,0,192,4.0,92.0
9371,80.0,0,192,5.0,92.0
9372,48.0,0,288,8.0,105.0
9373,82.0,0,1728,1.0,105.0
9374,60.0,240,288,7.0,105.0
9375,60.0,0,288,2.0,105.0
9376,60.0,0,288,6.0,105.0
9377,79.0,240,192,4.0,92.0
9378,79.0,0,192,5.0,92.0
9379,77.0,0,192,4.0,92.0
9380,77.0,0,192,5.0,92.0
9381,53.0,0,288,8.0,105.0
9382,65.0,0,288,7.0,105.0
9383,65.0,240,288,2.0,105.0
9384,65.0,0,288,6.0,105.0
9385,75.0,240,192,4.0,92.0
9386,75.0,0,192,5.0,92.0
9387,84.0,0,1536,0.0,105.0
9388,73.0,240,192,5.0,92.0
9389,73.0,0,192,4.0,92.0
9390,72.0,0,1728,1.0,105.0
9391,44.0,0,144,8.0,105.0
9392,56.0,0,144,2.0,105.0
9393,56.0,0,144,6.0,105.0
9394,56.0,240,144,7.0,105.0
9395,72.0,0,192,5.0,92.0
9396,72.0,0,192,4.0,92.0
9397,70.0,0,192,4.0,92.0
9398,70.0,0,192,5.0,92.0
9399,55.0,0,288,7.0,105.0
9400,55.0,0,288,6.0,105.0
9401,55.0,0,288,2.0,105.0
9402,43.0,0,288,8.0,105.0
9403,73.0,0,192,4.0,92.0
9404,73.0,240,192,5.0,92.0
9405,79.0,0,192,4.0,92.0
9406,79.0,0,192,5.0,92.0
9407,80.0,0,1728,1.0,105.0
9408,58.0,0,288,7.0,105.0
9409,46.0,240,288,8.0,105.0
9410,58.0,0,288,2.0,105.0
9411,58.0,0,288,6.0,105.0
9412,77.0,0,192,4.0,92.0
9413,77.0,240,192,5.0,92.0
9414,76.0,0,192,4.0,92.0
9415,76.0,0,192,5.0,92.0
9416,52.0,0,288,8.0,105.0
9417,64.0,0,288,7.0,105.0
9418,64.0,0,288,6.0,105.0
9419,64.0,240,288,2.0,105.0
9420,73.0,240,192,5.0,92.0
9421,73.0,0,192,4.0,92.0
9422,82.0,240,1536,0.0,105.0
9423,72.0,0,192,5.0,92.0
9424,72.0,240,192,4.0,92.0
9425,70.0,0,1728,1.0,105.0
9426,79.0,0,768,1.0,105.0
9427,55.0,0,144,7.0,105.0
9428,55.0,0,144,6.0,105.0
9429,55.0,0,144,2.0,105.0
9430,43.0,0,144,8.0,105.0
9431,70.0,240,192,4.0,92.0
9432,70.0,0,192,5.0,92.0
9433,68.0,0,192,5.0,105.0
9434,41.0,0,288,8.0,105.0
9435,53.0,0,288,7.0,105.0
9436,53.0,0,288,2.0,105.0
9437,53.0,0,288,6.0,105.0
9438,77.0,0,384,1.0,105.0
9439,68.0,0,384,4.0,105.0
9440,80.0,0,384,0.0,105.0
9441,68.0,240,384,1.0,105.0
9442,65.0,240,192,5.0,105.0
9443,72.0,240,192,5.0,105.0
9444,65.0,0,768,3.0,105.0
9445,56.0,0,288,7.0,105.0
9446,56.0,0,288,2.0,105.0
9447,44.0,0,288,8.0,105.0
9448,56.0,0,288,6.0,105.0
9449,80.0,0,384,1.0,105.0
9450,77.0,0,384,1.0,105.0
9451,89.0,0,384,0.0,105.0
9452,72.0,0,144,4.0,116.0
9453,70.0,240,192,5.0,105.0
9454,68.0,0,192,5.0,105.0
9455,48.0,240,288,8.0,105.0
9456,77.0,0,288,4.0,116.0
9457,60.0,0,288,2.0,105.0
9458,60.0,0,288,6.0,105.0
9459,60.0,0,288,7.0,105.0
9460,77.0,0,384,1.0,105.0
9461,89.0,0,384,0.0,105.0
9462,65.0,0,384,3.0,105.0
9463,80.0,0,384,1.0,105.0
9464,67.0,240,192,5.0,105.0
9465,65.0,240,192,5.0,105.0
9466,80.0,0,288,4.0,116.0
9467,80.0,0,384,1.0,105.0
9468,53.0,0,144,6.0,105.0
9469,77.0,0,384,1.0,105.0
9470,41.0,0,144,7.0,105.0
9471,29.0,240,144,8.0,105.0
9472,89.0,0,384,0.0,105.0
9473,41.0,0,144,2.0,105.0
9474,65.0,0,384,3.0,105.0
9475,63.0,0,192,5.0,105.0
9476,62.0,0,192,5.0,105.0
9477,46.0,240,288,7.0,105.0
9478,58.0,0,288,6.0,105.0
9479,46.0,0,288,2.0,105.0
9480,34.0,0,288,8.0,105.0
9481,58.0,0,384,4.0,116.0
9482,70.0,240,192,5.0,105.0
9483,77.0,0,192,5.0,105.0
9484,62.0,0,288,6.0,105.0
9485,50.0,0,288,2.0,105.0
9486,58.0,0,768,3.0,105.0
9487,50.0,0,288,7.0,105.0
9488,38.0,240,288,8.0,105.0
9489,89.0,0,384,0.0,105.0
9490,77.0,240,144,4.0,116.0
9491,80.0,0,384,1.0,105.0
9492,74.0,0,384,1.0,105.0
9493,75.0,0,192,5.0,105.0
9494,74.0,240,192,5.0,105.0
9495,82.0,0,288,4.0,116.0
9496,53.0,0,288,2.0,105.0
9497,41.0,0,288,8.0,105.0
9498,53.0,0,288,7.0,105.0
9499,65.0,0,288,6.0,105.0
9500,80.0,0,384,1.0,105.0
9501,74.0,0,384,1.0,105.0
9502,58.0,0,384,3.0,105.0
9503,89.0,0,384,0.0,105.0
9504,72.0,240,192,5.0,105.0
9505,70.0,0,192,5.0,105.0
9506,86.0,0,288,4.0,116.0
9507,89.0,240,384,0.0,105.0
9508,58.0,0,384,3.0,105.0
9509,46.0,0,144,7.0,105.0
9510,46.0,240,144,2.0,105.0
9511,74.0,0,384,1.0,105.0
9512,58.0,0,144,6.0,105.0
9513,34.0,0,144,8.0,105.0
9514,80.0,0,384,1.0,105.0
9515,68.0,0,192,5.0,105.0
9516,67.0,0,192,5.0,105.0
9517,39.0,0,288,8.0,105.0
9518,51.0,0,288,7.0,105.0
9519,51.0,240,288,2.0,105.0
9520,63.0,0,288,6.0,105.0
9521,63.0,0,384,4.0,116.0
9522,63.0,240,192,5.0,105.0
9523,70.0,240,192,5.0,105.0
9524,67.0,0,288,6.0,105.0
9525,58.0,0,768,3.0,105.0
9526,67.0,0,768,3.0,105.0
9527,55.0,0,288,2.0,105.0
9528,55.0,0,288,7.0,105.0
9529,43.0,0,288,8.0,105.0
9530,70.0,0,144,4.0,116.0
9531,68.0,240,192,5.0,105.0
9532,89.0,0,480,0.0,105.0
9533,67.0,0,192,5.0,105.0
9534,58.0,0,288,7.0,105.0
9535,70.0,0,288,6.0,105.0
9536,58.0,0,288,2.0,105.0
9537,46.0,0,288,8.0,105.0
9538,79.0,0,768,1.0,105.0
9539,75.0,0,288,4.0,116.0
9540,74.0,0,768,1.0,105.0
9541,72.0,240,384,3.0,92.0
9542,87.0,0,384,0.0,105.0
9543,67.0,0,384,3.0,92.0
9544,65.0,240,192,5.0,105.0
9545,63.0,0,192,5.0,105.0
9546,79.0,0,288,4.0,116.0
9547,87.0,0,288,0.0,105.0
9548,74.0,240,384,1.0,105.0
9549,39.0,0,144,7.0,105.0
9550,79.0,0,384,1.0,105.0
9551,27.0,0,144,8.0,105.0
9552,67.0,0,384,3.0,92.0
9553,51.0,0,144,6.0,105.0
9554,39.0,240,144,2.0,105.0
9555,72.0,0,384,3.0,92.0
9556,62.0,0,192,5.0,105.0
9557,60.0,0,192,5.0,105.0
9558,56.0,0,288,6.0,105.0
9559,32.0,0,288,8.0,105.0
9560,44.0,0,288,7.0,105.0
9561,44.0,0,288,2.0,105.0
9562,56.0,240,384,4.0,116.0
9563,68.0,240,192,5.0,105.0
9564,75.0,0,192,5.0,105.0
9565,67.0,0,768,3.0,92.0
9566,72.0,0,768,3.0,92.0
9567,48.0,0,288,7.0,105.0
9568,60.0,0,288,6.0,105.0
9569,36.0,240,288,8.0,105.0
9570,48.0,0,288,2.0,105.0
9571,87.0,0,384,0.0,105.0
9572,75.0,240,144,4.0,116.0
9573,72.0,0,384,1.0,105.0
9574,79.0,0,384,1.0,105.0
9575,74.0,0,192,5.0,105.0
9576,72.0,0,192,5.0,105.0
9577,39.0,0,288,8.0,105.0
9578,51.0,0,288,7.0,105.0
9579,80.0,0,288,4.0,116.0
9580,51.0,0,288,2.0,105.0
9581,63.0,240,288,6.0,105.0
9582,72.0,0,384,1.0,105.0
9583,87.0,0,384,0.0,105.0
9584,79.0,0,384,1.0,105.0
9585,72.0,0,384,3.0,92.0
9586,70.0,240,192,5.0,105.0
9587,68.0,0,192,5.0,105.0
9588,84.0,0,288,4.0,116.0
9589,56.0,240,144,6.0,105.0
9590,79.0,0,384,1.0,105.0
9591,44.0,0,144,2.0,105.0
9592,32.0,0,144,8.0,105.0
9593,72.0,240,384,1.0,105.0
9594,87.0,0,384,0.0,105.0
9595,55.0,0,864,3.0,92.0
9596,72.0,0,384,3.0,92.0
9597,44.0,0,144,7.0,105.0
9598,67.0,0,192,5.0,105.0
9599,65.0,0,192,5.0,105.0
9600,50.0,240,288,7.0,105.0
9601,62.0,0,288,6.0,105.0
9602,38.0,0,288,8.0,105.0
9603,50.0,0,288,2.0,105.0
9604,62.0,0,384,4.0,116.0
9605,69.0,240,192,5.0,105.0
9606,74.0,0,192,5.0,105.0
9607,53.0,0,288,2.0,105.0
9608,65.0,0,288,6.0,105.0
9609,41.0,0,288,8.0,105.0
9610,53.0,240,288,7.0,105.0
9611,72.0,0,864,3.0,92.0
9612,81.0,0,144,4.0,116.0
9613,69.0,0,384,3.0,92.0
9614,75.0,240,192,5.0,105.0
9615,87.0,0,480,0.0,105.0
9616,77.0,0,192,5.0,105.0
9617,57.0,0,288,7.0,105.0
9618,86.0,0,288,4.0,116.0
9619,45.0,0,288,8.0,105.0
9620,72.0,0,768,1.0,105.0
9621,77.0,0,768,1.0,105.0
9622,69.0,0,288,6.0,105.0
9623,57.0,0,288,2.0,105.0
9624,86.0,0,384,0.0,105.0
9625,69.0,240,384,3.0,92.0
9626,75.0,240,192,5.0,105.0
9627,74.0,240,192,5.0,105.0
9628,86.0,0,288,0.0,105.0
9629,89.0,0,288,4.0,116.0
9630,50.0,0,144,2.0,105.0
9631,77.0,0,384,1.0,105.0
9632,38.0,0,144,8.0,105.0
9633,72.0,0,864,3.0,92.0
9634,69.0,0,384,3.0,92.0
9635,50.0,240,144,7.0,105.0
9636,72.0,0,384,1.0,105.0
9637,62.0,0,144,6.0,105.0
9638,72.0,0,192,5.0,105.0
9639,71.0,0,192,5.0,105.0
9640,55.0,0,288,2.0,105.0
9641,43.0,0,288,8.0,105.0
9642,55.0,0,288,7.0,105.0
9643,67.0,240,288,6.0,105.0
9644,55.0,0,384,4.0,116.0
9645,67.0,240,192,5.0,105.0
9646,74.0,0,192,5.0,105.0
9647,59.0,0,288,2.0,105.0
9648,59.0,0,288,7.0,105.0
9649,47.0,240,288,8.0,105.0
9650,74.0,0,768,3.0,92.0
9651,67.0,0,768,3.0,92.0
9652,71.0,0,288,6.0,105.0
9653,86.0,0,384,0.0,105.0
9654,71.0,0,384,1.0,105.0
9655,77.0,0,384,1.0,105.0
9656,74.0,240,144,4.0,116.0
9657,72.0,0,192,5.0,105.0
9658,71.0,0,192,5.0,105.0
9659,79.0,0,288,4.0,116.0
9660,74.0,0,288,6.0,105.0
9661,50.0,0,288,8.0,105.0
9662,62.0,0,288,7.0,105.0
9663,62.0,0,288,2.0,105.0
9664,67.0,0,384,3.0,92.0
9665,86.0,0,384,0.0,105.0
9666,77.0,0,384,1.0,105.0
9667,71.0,240,384,1.0,105.0
9668,74.0,0,384,3.0,92.0
9669,69.0,240,192,5.0,105.0
9670,67.0,0,192,5.0,105.0
9671,83.0,0,288,4.0,116.0
9672,71.0,0,384,1.0,105.0
9673,43.0,0,144,7.0,105.0
9674,74.0,0,384,3.0,92.0
9675,67.0,0,384,3.0,92.0
9676,31.0,0,144,8.0,105.0
9677,43.0,240,144,2.0,105.0
9678,55.0,0,144,6.0,105.0
9679,86.0,240,384,0.0,105.0
9680,77.0,0,384,1.0,105.0
9681,65.0,0,192,5.0,105.0
9682,63.0,0,192,5.0,105.0
9683,60.0,0,288,6.0,105.0
9684,48.0,0,288,2.0,105.0
9685,36.0,0,288,8.0,105.0
9686,48.0,0,288,7.0,105.0
9687,60.0,0,384,4.0,116.0
9688,60.0,240,192,5.0,105.0
9689,67.0,0,192,5.0,105.0
9690,51.0,0,288,7.0,105.0
9691,39.0,240,288,8.0,105.0
9692,63.0,0,288,6.0,105.0
9693,67.0,0,768,3.0,92.0
9694,72.0,240,768,3.0,92.0
9695,51.0,0,288,2.0,105.0
9696,67.0,0,144,4.0,116.0
9697,63.0,240,192,5.0,105.0
9698,86.0,0,480,0.0,105.0
9699,72.0,240,192,5.0,105.0
9700,57.0,0,288,7.0,105.0
9701,45.0,0,288,8.0,105.0
9702,57.0,0,288,2.0,105.0
9703,84.0,0,288,0.0,105.0
9704,72.0,0,768,1.0,105.0
9705,69.0,0,288,6.0,105.0
9706,75.0,0,768,1.0,105.0
9707,72.0,0,288,4.0,116.0
9708,55.0,0,384,3.0,92.0
9709,70.0,240,192,5.0,105.0
9710,69.0,0,192,5.0,105.0
9711,75.0,0,288,4.0,116.0
9712,84.0,0,288,0.0,105.0
9713,48.0,240,144,2.0,105.0
9714,72.0,0,864,3.0,92.0
9715,36.0,0,144,8.0,105.0
9716,48.0,0,144,7.0,105.0
9717,55.0,0,384,3.0,92.0
9718,60.0,0,144,6.0,105.0
9719,75.0,240,384,1.0,105.0
9720,72.0,0,384,1.0,105.0
9721,67.0,0,192,5.0,105.0
9722,66.0,0,192,5.0,105.0
9723,62.0,0,288,6.0,105.0
9724,38.0,0,288,8.0,105.0
9725,50.0,0,288,2.0,105.0
9726,50.0,0,288,7.0,105.0
9727,62.0,0,384,4.0,116.0
9728,67.0,240,192,5.0,105.0
9729,69.0,0,192,5.0,105.0
9730,54.0,0,288,7.0,105.0
9731,84.0,0,288,0.0,105.0
9732,42.0,0,288,8.0,105.0
9733,62.0,240,768,3.0,92.0
9734,72.0,0,768,3.0,92.0
9735,66.0,0,288,6.0,105.0
9736,54.0,240,288,2.0,105.0
9737,72.0,240,144,4.0,116.0
9738,67.0,0,192,5.0,105.0
9739,66.0,0,192,5.0,105.0
9740,78.0,0,768,1.0,105.0
9741,69.0,0,768,1.0,105.0
9742,45.0,0,288,8.0,105.0
9743,69.0,0,288,6.0,105.0
9744,57.0,0,288,7.0,105.0
9745,78.0,0,288,4.0,116.0
9746,57.0,0,288,2.0,105.0
9747,62.0,0,384,3.0,92.0
9748,72.0,0,384,3.0,92.0
9749,63.0,240,192,5.0,105.0
9750,84.0,240,480,0.0,105.0
9751,62.0,0,192,5.0,105.0
9752,81.0,0,288,4.0,116.0
9753,78.0,0,288,0.0,105.0
9754,72.0,0,384,3.0,92.0
9755,62.0,240,384,3.0,92.0
9756,74.0,0,384,1.0,105.0
9757,72.0,0,384,1.0,105.0
9758,60.0,240,192,5.0,105.0
9759,70.0,240,192,6.0,105.0
9760,55.0,0,192,7.0,105.0
9761,43.0,0,192,8.0,105.0
9762,55.0,0,192,2.0,105.0
9763,58.0,240,192,7.0,105.0
9764,58.0,0,192,2.0,105.0
9765,67.0,0,192,6.0,105.0
9766,46.0,0,192,8.0,105.0
9767,70.0,0,192,6.0,105.0
9768,43.0,0,192,8.0,105.0
9769,55.0,240,192,7.0,105.0
9770,55.0,0,192,2.0,105.0
9771,58.0,0,192,2.0,105.0
9772,46.0,240,192,8.0,105.0
9773,67.0,0,192,6.0,105.0
9774,58.0,0,192,7.0,105.0
9775,70.0,0,192,6.0,105.0
9776,43.0,0,192,8.0,105.0
9777,55.0,0,192,2.0,105.0
9778,55.0,240,192,7.0,105.0
9779,58.0,0,192,7.0,105.0
9780,46.0,0,192,8.0,105.0
9781,58.0,240,192,2.0,105.0
9782,67.0,0,192,6.0,105.0
9783,74.0,0,1536,1.0,105.0
9784,55.0,0,1536,4.0,116.0
9785,67.0,0,1536,5.0,105.0
9786,70.0,0,1536,1.0,105.0
9787,67.0,0,1536,4.0,116.0
9788,55.0,0,1536,5.0,105.0
9789,55.0,0,192,2.0,105.0
9790,43.0,0,192,8.0,105.0
9791,55.0,240,192,7.0,105.0
9792,70.0,0,192,6.0,105.0
9793,79.0,0,1728,0.0,105.0
9794,62.0,0,1824,3.0,105.0
9795,70.0,0,1824,3.0,92.0
9796,58.0,0,192,2.0,105.0
9797,67.0,240,192,6.0,105.0
9798,58.0,0,192,7.0,105.0
9799,46.0,0,192,8.0,105.0
9800,41.0,240,192,8.0,105.0
9801,53.0,0,192,2.0,105.0
9802,53.0,0,192,7.0,105.0
9803,69.0,0,192,6.0,105.0
9804,57.0,0,192,7.0,105.0
9805,57.0,0,192,2.0,105.0
9806,45.0,240,192,8.0,105.0
9807,65.0,0,192,6.0,105.0
9808,41.0,0,192,8.0,105.0
9809,53.0,0,192,7.0,105.0
9810,53.0,240,192,2.0,105.0
9811,69.0,0,192,6.0,105.0
9812,65.0,0,192,6.0,105.0
9813,57.0,240,192,2.0,105.0
9814,45.0,0,192,8.0,105.0
9815,57.0,0,192,7.0,105.0
9816,74.0,0,1152,5.0,105.0
9817,62.0,0,1152,5.0,105.0
9818,53.0,240,192,7.0,105.0
9819,69.0,0,192,6.0,105.0
9820,41.0,0,192,8.0,105.0
9821,53.0,0,192,2.0,105.0
9822,74.0,0,1152,4.0,105.0
9823,62.0,0,1152,4.0,105.0
9824,65.0,0,192,6.0,105.0
9825,57.0,0,192,2.0,105.0
9826,57.0,0,192,7.0,105.0
9827,45.0,240,192,8.0,105.0
9828,74.0,0,1536,1.0,105.0
9829,69.0,0,192,6.0,105.0
9830,53.0,0,192,7.0,105.0
9831,53.0,0,192,2.0,105.0
9832,41.0,240,192,8.0,105.0
9833,86.0,0,1728,0.0,105.0
9834,74.0,240,132,5.0,105.0
9835,74.0,0,132,4.0,105.0
9836,50.0,0,1824,3.0,105.0
9837,74.0,0,1824,3.0,105.0
9838,65.0,0,192,6.0,105.0
9839,45.0,0,192,8.0,105.0
9840,57.0,0,192,2.0,105.0
9841,57.0,0,192,7.0,105.0
9842,51.0,240,192,7.0,105.0
9843,67.0,0,192,6.0,105.0
9844,39.0,0,192,8.0,105.0
9845,51.0,0,192,2.0,105.0
9846,72.0,0,264,5.0,105.0
9847,72.0,0,264,4.0,105.0
9848,55.0,0,192,7.0,105.0
9849,55.0,0,192,2.0,105.0
9850,63.0,0,192,6.0,105.0
9851,43.0,240,192,8.0,105.0
9852,39.0,0,192,8.0,105.0
9853,67.0,0,192,6.0,105.0
9854,51.0,0,192,7.0,105.0
9855,51.0,240,192,2.0,105.0
9856,75.0,0,264,5.0,105.0
9857,75.0,0,264,4.0,105.0
9858,43.0,0,192,8.0,105.0
9859,55.0,0,192,2.0,105.0
9860,55.0,0,192,7.0,105.0
9861,63.0,240,192,6.0,105.0
9862,67.0,0,192,6.0,105.0
9863,51.0,0,192,7.0,105.0
9864,51.0,0,192,2.0,105.0
9865,39.0,0,192,8.0,105.0
9866,79.0,0,264,5.0,105.0
9867,79.0,240,264,4.0,105.0
9868,55.0,0,192,7.0,105.0
9869,43.0,0,192,8.0,105.0
9870,55.0,0,192,2.0,105.0
9871,63.0,240,192,6.0,105.0
9872,84.0,0,1536,1.0,105.0
9873,72.0,0,1536,1.0,105.0
9874,51.0,0,192,7.0,105.0
9875,39.0,0,192,8.0,105.0
9876,67.0,240,192,6.0,105.0
9877,51.0,0,192,2.0,105.0
9878,84.0,0,1728,0.0,105.0
9879,63.0,0,192,6.0,105.0
9880,55.0,240,192,7.0,105.0
9881,43.0,0,192,8.0,105.0
9882,55.0,0,192,2.0,105.0
9883,38.0,0,192,8.0,105.0
9884,50.0,0,192,7.0,105.0
9885,67.0,0,192,6.0,105.0
9886,50.0,0,192,2.0,105.0
9887,70.0,0,264,4.0,105.0
9888,70.0,0,264,5.0,105.0
9889,55.0,0,192,7.0,105.0
9890,62.0,0,192,6.0,105.0
9891,55.0,0,192,2.0,105.0
9892,43.0,240,192,8.0,105.0
9893,67.0,0,192,6.0,105.0
9894,50.0,0,192,2.0,105.0
9895,38.0,240,192,8.0,105.0
9896,50.0,0,192,7.0,105.0
9897,74.0,0,264,4.0,105.0
9898,74.0,0,264,5.0,105.0
9899,62.0,0,192,6.0,105.0
9900,55.0,240,192,7.0,105.0
9901,55.0,0,192,2.0,105.0
9902,43.0,0,192,8.0,105.0
9903,67.0,0,192,6.0,105.0
9904,50.0,0,192,7.0,105.0
9905,38.0,0,192,8.0,105.0
9906,50.0,240,192,2.0,105.0
9907,79.0,0,264,4.0,105.0
9908,79.0,0,264,5.0,105.0
9909,55.0,0,192,2.0,105.0
9910,43.0,0,192,8.0,105.0
9911,62.0,0,192,6.0,105.0
9912,55.0,240,192,7.0,105.0
9913,70.0,0,1536,1.0,105.0
9914,82.0,0,1536,1.0,105.0
9915,67.0,240,1536,3.0,105.0
9916,62.0,0,1536,3.0,105.0
9917,38.0,240,192,8.0,105.0
9918,67.0,0,192,6.0,105.0
9919,50.0,0,192,2.0,105.0
9920,50.0,0,192,7.0,105.0
9921,82.0,0,1728,0.0,105.0
9922,82.0,0,132,5.0,105.0
9923,82.0,0,132,4.0,105.0
9924,55.0,0,192,2.0,105.0
9925,62.0,0,192,6.0,105.0
9926,43.0,240,192,8.0,105.0
9927,55.0,0,192,7.0,105.0
9928,48.0,0,192,2.0,105.0
9929,63.0,0,192,6.0,105.0
9930,36.0,0,192,8.0,105.0
9931,48.0,240,192,7.0,105.0
9932,81.0,0,264,5.0,105.0
9933,81.0,0,264,4.0,105.0
9934,51.0,240,192,2.0,105.0
9935,51.0,0,192,7.0,105.0
9936,39.0,0,192,8.0,105.0
9937,60.0,0,192,6.0,105.0
9938,48.0,0,192,2.0,105.0
9939,36.0,0,192,8.0,105.0
9940,63.0,240,192,6.0,105.0
9941,48.0,0,192,7.0,105.0
9942,84.0,0,264,5.0,105.0
9943,84.0,0,264,4.0,105.0
9944,60.0,0,192,6.0,105.0
9945,39.0,0,192,8.0,105.0
9946,51.0,240,192,7.0,105.0
9947,51.0,0,192,2.0,105.0
9948,48.0,0,192,2.0,105.0
9949,48.0,0,192,7.0,105.0
9950,63.0,0,192,6.0,105.0
9951,36.0,0,192,8.0,105.0
9952,87.0,240,264,4.0,105.0
9953,87.0,0,264,5.0,105.0
9954,51.0,0,192,7.0,105.0
9955,60.0,0,192,6.0,105.0
9956,39.0,0,192,8.0,105.0
9957,51.0,240,192,2.0,105.0
9958,81.0,0,1440,0.0,105.0
9959,81.0,0,1440,1.0,105.0
9960,69.0,0,1440,1.0,105.0
9961,36.0,0,192,8.0,105.0
9962,48.0,0,192,7.0,105.0
9963,48.0,0,192,2.0,105.0
9964,63.0,240,192,6.0,105.0
9965,78.0,0,132,5.0,105.0
9966,78.0,0,132,4.0,105.0
9967,66.0,0,384,1.0,105.0
9968,78.0,0,384,0.0,105.0
9969,78.0,0,384,1.0,105.0
9970,51.0,240,192,7.0,105.0
9971,51.0,0,192,2.0,105.0
9972,39.0,0,192,8.0,105.0
9973,60.0,0,192,6.0,105.0
9974,46.0,240,192,7.0,105.0
9975,34.0,0,192,8.0,105.0
9976,46.0,0,192,2.0,105.0
9977,62.0,0,192,6.0,105.0
9978,79.0,0,264,4.0,105.0
9979,79.0,0,264,5.0,105.0
9980,38.0,0,192,8.0,105.0
9981,58.0,0,192,6.0,105.0
9982,50.0,0,192,2.0,105.0
9983,50.0,240,192,7.0,105.0
9984,46.0,240,192,7.0,105.0
9985,46.0,0,192,2.0,105.0
9986,62.0,0,192,6.0,105.0
9987,34.0,0,192,8.0,105.0
9988,82.0,0,264,5.0,105.0
9989,82.0,0,264,4.0,105.0
9990,38.0,240,192,8.0,105.0
9991,50.0,0,192,2.0,105.0
9992,50.0,0,192,7.0,105.0
9993,58.0,0,192,6.0,105.0
9994,62.0,0,192,6.0,105.0
9995,34.0,240,192,8.0,105.0
9996,46.0,0,192,7.0,105.0
9997,46.0,0,192,2.0,105.0
9998,86.0,0,264,5.0,105.0
9999,86.0,0,264,4.0,105.0
10000,79.0,0,1296,0.0,105.0
10001,79.0,0,1296,1.0,105.0
10002,67.0,0,1296,1.0,105.0
10003,50.0,0,192,7.0,105.0
10004,50.0,240,192,2.0,105.0
10005,58.0,0,192,6.0,105.0
10006,38.0,0,192,8.0,105.0
10007,62.0,0,1536,3.0,105.0
10008,55.0,0,1536,3.0,105.0
10009,46.0,0,192,2.0,105.0
10010,34.0,0,192,8.0,105.0
10011,46.0,240,192,7.0,105.0
10012,62.0,0,192,6.0,105.0
10013,62.0,0,132,5.0,105.0
10014,74.0,240,132,4.0,105.0
10015,74.0,0,384,1.0,105.0
10016,86.0,0,384,0.0,105.0
10017,50.0,0,192,7.0,105.0
10018,58.0,0,192,6.0,105.0
10019,38.0,0,192,8.0,105.0
10020,50.0,0,192,2.0,105.0
10021,73.0,0,192,4.0,125.0
10022,61.0,0,192,5.0,125.0
10023,74.0,240,192,4.0,105.0
10024,62.0,0,192,5.0,105.0
10025,64.0,240,192,5.0,105.0
10026,76.0,0,192,4.0,105.0
10027,65.0,240,192,5.0,105.0
10028,77.0,0,192,4.0,105.0
10029,67.0,240,192,5.0,105.0
10030,79.0,0,192,4.0,105.0
10031,81.0,0,192,4.0,105.0
10032,69.0,240,192,5.0,105.0
10033,76.0,0,1536,1.0,105.0
10034,85.0,0,1536,0.0,125.0
10035,55.0,0,1536,3.0,125.0
10036,45.0,0,1536,7.0,125.0
10037,57.0,0,1536,6.0,125.0
10038,79.0,0,1536,1.0,125.0
10039,33.0,0,1536,8.0,125.0
10040,61.0,240,1536,2.0,125.0
10041,82.0,240,192,4.0,105.0
10042,70.0,0,192,5.0,105.0
10043,74.0,240,192,4.0,105.0
10044,62.0,0,192,2.0,105.0
10045,62.0,0,192,5.0,105.0
10046,52.0,0,1872,2.0,105.0
10047,86.0,0,192,0.0,105.0
10048,61.0,0,192,5.0,125.0
10049,73.0,0,192,4.0,125.0
10050,74.0,0,192,4.0,105.0
10051,62.0,240,192,5.0,105.0
10052,64.0,240,192,5.0,105.0
10053,76.0,0,192,4.0,105.0
10054,55.0,0,768,3.0,125.0
10055,45.0,0,768,7.0,125.0
10056,57.0,0,768,6.0,125.0
10057,33.0,0,768,8.0,125.0
10058,77.0,0,192,4.0,105.0
10059,65.0,240,192,5.0,105.0
10060,67.0,0,192,5.0,105.0
10061,79.0,240,192,4.0,105.0
10062,69.0,240,192,5.0,105.0
10063,81.0,0,192,4.0,105.0
10064,85.0,240,1536,0.0,125.0
10065,61.0,0,1536,2.0,125.0
10066,79.0,0,1536,1.0,125.0
10067,76.0,0,1536,1.0,105.0
10068,82.0,0,192,4.0,105.0
10069,70.0,240,192,5.0,105.0
10070,34.0,0,768,8.0,125.0
10071,58.0,0,768,6.0,125.0
10072,46.0,0,768,7.0,125.0
10073,55.0,0,768,3.0,125.0
10074,74.0,240,192,4.0,105.0
10075,62.0,0,192,2.0,105.0
10076,52.0,0,1872,2.0,105.0
10077,62.0,0,192,5.0,105.0
10078,86.0,0,192,0.0,105.0
10079,61.0,0,192,5.0,125.0
10080,73.0,240,192,4.0,125.0
10081,62.0,0,192,5.0,105.0
10082,74.0,240,192,4.0,105.0
10083,64.0,0,192,5.0,105.0
10084,76.0,240,192,4.0,105.0
10085,45.0,0,768,7.0,125.0
10086,33.0,0,768,8.0,125.0
10087,57.0,0,768,6.0,125.0
10088,55.0,0,768,3.0,125.0
10089,77.0,0,192,4.0,105.0
10090,65.0,240,192,5.0,105.0
10091,79.0,0,192,4.0,105.0
10092,67.0,0,192,5.0,105.0
10093,69.0,0,192,5.0,105.0
10094,81.0,240,192,4.0,105.0
10095,85.0,0,1536,0.0,125.0
10096,61.0,0,1536,2.0,125.0
10097,79.0,0,1536,1.0,125.0
10098,76.0,0,1536,1.0,105.0
10099,82.0,0,192,4.0,105.0
10100,70.0,240,192,5.0,105.0
10101,55.0,240,768,3.0,125.0
10102,58.0,0,768,6.0,125.0
10103,34.0,0,768,8.0,125.0
10104,46.0,0,768,7.0,125.0
10105,62.0,0,192,5.0,105.0
10106,86.0,240,192,0.0,105.0
10107,52.0,0,1872,2.0,105.0
10108,62.0,0,192,2.0,105.0
10109,74.0,0,192,4.0,105.0
10110,61.0,0,192,5.0,125.0
10111,73.0,0,192,4.0,125.0
10112,74.0,240,192,4.0,105.0
10113,62.0,0,192,5.0,105.0
10114,64.0,240,192,5.0,105.0
10115,76.0,0,192,4.0,105.0
10116,45.0,0,768,7.0,125.0
10117,57.0,0,768,6.0,125.0
10118,55.0,0,768,3.0,125.0
10119,33.0,0,768,8.0,125.0
10120,65.0,0,192,5.0,105.0
10121,77.0,240,192,4.0,105.0
10122,67.0,240,192,5.0,105.0
10123,79.0,0,192,4.0,105.0
10124,81.0,0,192,4.0,105.0
10125,69.0,240,192,5.0,105.0
10126,76.0,240,1536,1.0,105.0
10127,79.0,0,1536,1.0,125.0
10128,85.0,0,1536,0.0,125.0
10129,52.0,0,1536,2.0,105.0
10130,61.0,0,1536,2.0,125.0
10131,82.0,0,192,4.0,105.0
10132,70.0,240,192,5.0,105.0
10133,55.0,0,768,3.0,125.0
10134,61.0,0,192,5.0,105.0
10135,33.0,240,192,8.0,105.0
10136,45.0,0,192,7.0,105.0
10137,57.0,0,192,6.0,105.0
10138,73.0,0,192,4.0,105.0
10139,62.0,0,192,6.0,105.0
10140,62.0,0,192,5.0,105.0
10141,50.0,0,192,7.0,105.0
10142,38.0,0,192,8.0,105.0
10143,50.0,0,192,2.0,105.0
10144,62.0,0,192,2.0,105.0
10145,69.0,0,192,5.0,105.0
10146,62.0,0,192,7.0,105.0
10147,50.0,0,192,8.0,105.0
10148,66.0,240,192,6.0,105.0
10149,50.0,0,192,2.0,105.0
10150,50.0,0,192,8.0,105.0
10151,50.0,0,192,2.0,105.0
10152,66.0,0,192,6.0,105.0
10153,69.0,0,192,5.0,105.0
10154,62.0,240,192,7.0,105.0
10155,74.0,0,768,4.0,105.0
10156,74.0,0,768,1.0,105.0
10157,86.0,0,768,0.0,105.0
10158,78.0,240,768,1.0,105.0
10159,66.0,0,192,6.0,105.0
10160,50.0,240,192,8.0,105.0
10161,62.0,0,192,7.0,105.0
10162,50.0,0,192,2.0,105.0
10163,69.0,0,192,5.0,105.0
10164,69.0,0,192,5.0,105.0
10165,62.0,240,192,7.0,105.0
10166,50.0,0,192,2.0,105.0
10167,50.0,0,192,8.0,105.0
10168,66.0,0,192,6.0,105.0
10169,81.0,0,288,4.0,105.0
10170,50.0,0,192,2.0,105.0
10171,69.0,0,192,5.0,105.0
10172,62.0,240,192,7.0,105.0
10173,66.0,0,192,6.0,105.0
10174,50.0,0,192,8.0,105.0
10175,50.0,0,1536,3.0,105.0
10176,62.0,0,1536,3.0,105.0
10177,69.0,0,192,5.0,105.0
10178,50.0,0,192,2.0,105.0
10179,62.0,0,192,7.0,105.0
10180,69.0,0,192,6.0,105.0
10181,50.0,240,192,8.0,105.0
10182,84.0,0,768,0.0,105.0
10183,81.0,0,768,1.0,105.0
10184,78.0,0,768,1.0,105.0
10185,78.0,0,288,4.0,105.0
10186,50.0,0,192,8.0,105.0
10187,50.0,0,192,2.0,105.0
10188,69.0,0,192,6.0,105.0
10189,62.0,240,192,7.0,105.0
10190,69.0,0,192,5.0,105.0
10191,70.0,0,192,5.0,105.0
10192,62.0,0,192,7.0,105.0
10193,50.0,0,192,2.0,105.0
10194,67.0,0,192,6.0,105.0
10195,50.0,0,192,8.0,105.0
10196,50.0,0,192,8.0,105.0
10197,67.0,240,192,6.0,105.0
10198,50.0,0,192,2.0,105.0
10199,62.0,0,192,7.0,105.0
10200,70.0,0,192,5.0,105.0
10201,50.0,0,192,8.0,105.0
10202,70.0,0,192,5.0,105.0
10203,67.0,240,192,6.0,105.0
10204,50.0,0,192,2.0,105.0
10205,62.0,0,192,7.0,105.0
10206,50.0,0,768,3.0,105.0
10207,82.0,0,768,4.0,105.0
10208,82.0,0,768,0.0,105.0
10209,79.0,0,768,1.0,105.0
10210,82.0,0,768,1.0,105.0
10211,62.0,240,768,3.0,105.0
10212,50.0,0,192,8.0,105.0
10213,70.0,0,192,5.0,105.0
10214,50.0,240,192,2.0,105.0
10215,67.0,0,192,6.0,105.0
10216,62.0,0,192,7.0,105.0
10217,67.0,0,192,6.0,105.0
10218,50.0,0,192,8.0,105.0
10219,62.0,240,192,7.0,105.0
10220,70.0,0,192,5.0,105.0
10221,50.0,0,192,2.0,105.0
10222,73.0,0,288,4.0,105.0
10223,70.0,0,192,5.0,105.0
10224,62.0,0,192,7.0,105.0
10225,67.0,240,192,6.0,105.0
10226,50.0,0,192,2.0,105.0
10227,50.0,0,192,8.0,105.0
10228,50.0,0,192,8.0,105.0
10229,50.0,0,192,2.0,105.0
10230,62.0,0,192,7.0,105.0
10231,67.0,240,192,6.0,105.0
10232,70.0,0,192,5.0,105.0
10233,85.0,0,768,0.0,105.0
10234,76.0,0,768,1.0,105.0
10235,50.0,0,768,3.0,105.0
10236,79.0,0,768,1.0,105.0
10237,76.0,0,288,4.0,105.0
10238,62.0,0,768,3.0,105.0
10239,62.0,0,192,7.0,105.0
10240,67.0,0,192,6.0,105.0
10241,50.0,0,192,2.0,105.0
10242,70.0,0,192,5.0,105.0
10243,50.0,240,192,8.0,105.0
10244,50.0,0,192,2.0,105.0
10245,66.0,0,192,6.0,105.0
10246,50.0,240,192,8.0,105.0
10247,69.0,0,192,5.0,105.0
10248,62.0,0,192,7.0,105.0
10249,50.0,240,192,8.0,105.0
10250,62.0,0,192,7.0,105.0
10251,69.0,0,192,5.0,105.0
10252,66.0,0,192,6.0,105.0
10253,50.0,0,192,2.0,105.0
10254,50.0,0,192,2.0,105.0
10255,66.0,0,192,6.0,105.0
10256,69.0,0,192,5.0,105.0
10257,50.0,240,192,8.0,105.0
10258,62.0,0,192,7.0,105.0
10259,62.0,0,768,3.0,105.0
10260,50.0,0,768,3.0,105.0
10261,74.0,0,768,4.0,105.0
10262,78.0,0,768,1.0,105.0
10263,74.0,0,768,1.0,105.0
10264,86.0,0,768,0.0,105.0
10265,50.0,240,192,8.0,105.0
10266,66.0,0,192,6.0,105.0
10267,69.0,0,192,5.0,105.0
10268,50.0,0,192,2.0,105.0
10269,62.0,0,192,7.0,105.0
10270,81.0,0,168,4.0,105.0
10271,62.0,0,192,7.0,105.0
10272,50.0,0,192,8.0,105.0
10273,72.0,0,192,5.0,105.0
10274,50.0,0,192,2.0,105.0
10275,66.0,0,192,6.0,105.0
10276,62.0,0,384,3.0,105.0
10277,50.0,0,384,3.0,105.0
10278,78.0,0,168,4.0,105.0
10279,50.0,240,192,8.0,105.0
10280,62.0,0,192,7.0,105.0
10281,72.0,0,192,5.0,105.0
10282,50.0,0,192,2.0,105.0
10283,69.0,0,192,6.0,105.0
10284,81.0,0,168,4.0,105.0
10285,66.0,0,192,6.0,105.0
10286,50.0,0,192,8.0,105.0
10287,50.0,0,192,2.0,105.0
10288,72.0,0,192,5.0,105.0
10289,62.0,240,192,7.0,105.0
10290,90.0,0,768,0.0,105.0
10291,85.0,240,768,1.0,105.0
10292,81.0,0,768,1.0,105.0
10293,62.0,0,384,3.0,105.0
10294,50.0,0,384,3.0,105.0
10295,78.0,240,168,4.0,105.0
10296,50.0,0,192,2.0,105.0
10297,69.0,0,192,6.0,105.0
10298,72.0,0,192,5.0,105.0
10299,62.0,0,192,7.0,105.0
10300,50.0,0,192,8.0,105.0
10301,67.0,0,192,6.0,105.0
10302,50.0,0,192,2.0,105.0
10303,50.0,0,192,8.0,105.0
10304,62.0,0,192,7.0,105.0
10305,82.0,0,192,4.0,105.0
10306,70.0,0,192,5.0,105.0
10307,50.0,0,384,3.0,105.0
10308,62.0,0,384,3.0,105.0
10309,70.0,0,192,5.0,105.0
10310,50.0,240,192,2.0,105.0
10311,67.0,0,192,6.0,105.0
10312,79.0,0,192,4.0,105.0
10313,50.0,0,192,8.0,105.0
10314,62.0,0,192,7.0,105.0
10315,62.0,0,192,7.0,105.0
10316,50.0,0,192,8.0,105.0
10317,82.0,0,192,4.0,105.0
10318,50.0,0,192,2.0,105.0
10319,67.0,0,192,6.0,105.0
10320,70.0,0,192,5.0,105.0
10321,79.0,240,768,1.0,105.0
10322,82.0,0,768,1.0,105.0
10323,91.0,0,768,0.0,105.0
10324,62.0,0,384,3.0,105.0
10325,50.0,240,384,3.0,105.0
10326,79.0,0,192,4.0,105.0
10327,70.0,0,192,5.0,105.0
10328,50.0,0,192,2.0,105.0
10329,62.0,0,192,7.0,105.0
10330,50.0,240,192,8.0,105.0
10331,67.0,0,192,6.0,105.0
10332,50.0,0,192,2.0,105.0
10333,73.0,0,192,4.0,105.0
10334,64.0,0,192,6.0,105.0
10335,62.0,0,192,7.0,105.0
10336,50.0,0,192,8.0,105.0
10337,67.0,0,192,5.0,105.0
10338,62.0,0,384,3.0,105.0
10339,50.0,240,384,3.0,105.0
10340,67.0,240,192,5.0,105.0
10341,50.0,0,192,8.0,105.0
10342,76.0,0,192,4.0,105.0
10343,50.0,0,192,2.0,105.0
10344,62.0,0,192,7.0,105.0
10345,61.0,0,192,6.0,105.0
10346,64.0,0,192,6.0,105.0
10347,62.0,0,192,7.0,105.0
10348,50.0,0,192,2.0,105.0
10349,67.0,240,192,5.0,105.0
10350,73.0,0,192,4.0,105.0
10351,50.0,0,192,8.0,105.0
10352,79.0,0,768,1.0,105.0
10353,85.0,0,768,0.0,105.0
10354,76.0,0,768,1.0,105.0
10355,62.0,0,384,3.0,105.0
10356,50.0,0,384,3.0,105.0
10357,50.0,0,192,8.0,105.0
10358,61.0,0,192,6.0,105.0
10359,76.0,240,192,4.0,105.0
10360,62.0,0,192,7.0,105.0
10361,67.0,0,192,5.0,105.0
10362,50.0,0,192,2.0,105.0
10363,66.0,0,384,5.0,105.0
10364,50.0,240,384,8.0,105.0
10365,50.0,0,384,2.0,105.0
10366,74.0,0,384,1.0,105.0
10367,78.0,0,384,1.0,105.0
10368,62.0,0,384,3.0,105.0
10369,74.0,0,384,4.0,105.0
10370,86.0,0,384,0.0,105.0
10371,62.0,0,384,6.0,105.0
10372,50.0,0,384,3.0,105.0
10373,62.0,0,384,7.0,105.0
10374,38.0,960,384,8.0,92.0
10375,69.0,0,384,5.0,92.0
10376,50.0,0,384,2.0,92.0
10377,78.0,0,384,5.0,92.0
10378,50.0,0,384,6.0,92.0
10379,62.0,0,384,4.0,92.0
10380,86.0,0,384,4.0,92.0
10381,74.0,0,384,4.0,92.0
10382,50.0,0,384,7.0,92.0
10383,69.0,0,384,1.0,92.0
10384,50.0,0,384,3.0,92.0
10385,62.0,0,384,3.0,92.0
10386,66.0,0,384,1.0,92.0
10387,74.0,0,384,0.0,92.0
10388,62.0,0,384,5.0,92.0
10389,58.0,0,1440,7.0,58.0
10390,46.0,2880,1440,8.0,58.0
10391,74.0,0,1440,4.0,70.0
10392,62.0,0,1440,5.0,92.0
10393,58.0,0,1440,6.0,58.0
10394,57.0,0,480,6.0,58.0
10395,45.0,1440,480,8.0,58.0
10396,57.0,0,480,7.0,58.0
10397,73.0,0,480,4.0,70.0
10398,61.0,0,480,5.0,58.0
10399,50.0,0,384,7.0,58.0
10400,38.0,0,384,8.0,58.0
10401,60.0,0,384,5.0,58.0
10402,72.0,0,384,4.0,70.0
10403,54.0,0,384,6.0,58.0
10404,60.0,0,1440,2.0,58.0
10405,72.0,480,1440,1.0,58.0
10406,84.0,0,1440,0.0,58.0
10407,86.0,0,120,0.0,58.0
10408,62.0,1440,120,2.0,58.0
10409,74.0,0,120,1.0,58.0
10410,72.0,120,120,1.0,58.0
10411,60.0,0,120,2.0,58.0
10412,84.0,0,120,0.0,58.0
10413,70.0,120,120,1.0,58.0
10414,58.0,0,120,2.0,58.0
10415,82.0,0,120,0.0,58.0
10416,57.0,0,120,2.0,58.0
10417,81.0,0,120,0.0,58.0
10418,69.0,120,120,1.0,58.0
10419,79.0,0,384,0.0,58.0
10420,67.0,0,384,1.0,58.0
10421,55.0,120,384,2.0,58.0
10422,67.0,0,432,4.0,70.0
10423,62.0,0,480,5.0,58.0
10424,59.0,0,480,6.0,58.0
10425,41.0,480,480,8.0,58.0
10426,53.0,0,480,7.0,58.0
10427,67.0,0,432,5.0,58.0
10428,67.0,0,480,4.0,70.0
10429,60.0,0,480,6.0,58.0
10430,52.0,480,480,7.0,58.0
10431,40.0,0,480,8.0,58.0
10432,69.0,0,432,4.0,70.0
10433,67.0,0,432,5.0,58.0
10434,61.0,480,480,6.0,58.0
10435,51.0,0,480,7.0,58.0
10436,39.0,0,480,8.0,58.0
10437,70.0,0,720,4.0,70.0
10438,67.0,480,720,5.0,58.0
10439,38.0,0,768,8.0,58.0
10440,50.0,0,768,7.0,58.0
10441,62.0,0,768,6.0,58.0
10442,72.0,720,240,4.0,70.0
10443,69.0,0,240,5.0,58.0
10444,69.0,240,384,4.0,70.0
10445,66.0,0,384,5.0,58.0
10446,66.0,0,1440,5.0,58.0
10447,57.0,960,1440,6.0,58.0
10448,48.0,0,1440,7.0,58.0
10449,75.0,0,1440,4.0,70.0
10450,36.0,0,1440,8.0,58.0
10451,58.0,0,384,6.0,58.0
10452,34.0,0,384,8.0,58.0
10453,46.0,0,384,7.0,58.0
10454,74.0,0,480,4.0,70.0
10455,45.0,0,480,7.0,58.0
10456,33.0,0,480,8.0,58.0
10457,73.0,0,480,4.0,70.0
10458,64.0,480,480,6.0,58.0
10459,67.0,1440,960,5.0,58.0
10460,66.0,0,480,5.0,58.0
10461,38.0,0,480,8.0,58.0
10462,50.0,0,480,7.0,58.0
10463,72.0,0,480,4.0,70.0
10464,71.0,0,480,4.0,70.0
10465,62.0,480,960,6.0,58.0
10466,31.0,480,480,8.0,58.0
10467,43.0,0,480,7.0,58.0
10468,67.0,0,768,5.0,58.0
10469,51.0,0,384,7.0,58.0
10470,70.0,480,384,4.0,70.0
10471,39.0,0,384,8.0,58.0
10472,55.0,0,384,6.0,58.0
10473,48.0,0,384,7.0,58.0
10474,36.0,0,384,8.0,58.0
10475,60.0,0,384,6.0,58.0
10476,63.0,480,384,5.0,58.0
10477,69.0,0,480,4.0,70.0
10478,72.0,480,768,4.0,70.0
10479,50.0,480,384,7.0,58.0
10480,57.0,0,384,6.0,58.0
10481,38.0,0,384,8.0,58.0
10482,60.0,0,384,5.0,58.0
10483,66.0,480,384,4.0,70.0
10484,67.0,0,240,1.0,70.0
10485,55.0,0,240,2.0,70.0
10486,79.0,0,240,0.0,70.0
10487,55.0,0,384,6.0,58.0
10488,31.0,480,384,8.0,58.0
10489,43.0,0,384,7.0,58.0
10490,58.0,0,384,5.0,58.0
10491,67.0,0,384,4.0,70.0
10492,54.0,0,240,2.0,70.0
10493,78.0,240,240,0.0,70.0
10494,66.0,0,240,1.0,70.0
10495,69.0,0,240,1.0,70.0
10496,81.0,240,240,0.0,70.0
10497,57.0,0,240,2.0,70.0
10498,79.0,240,240,0.0,70.0
10499,55.0,0,240,2.0,70.0
10500,67.0,0,240,1.0,70.0
10501,58.0,0,240,2.0,70.0
10502,82.0,0,240,0.0,70.0
10503,70.0,240,240,1.0,70.0
10504,57.0,240,240,2.0,70.0
10505,81.0,0,240,0.0,70.0
10506,69.0,0,240,1.0,70.0
10507,60.0,0,240,2.0,70.0
10508,84.0,240,240,0.0,70.0
10509,72.0,0,240,1.0,70.0
10510,70.0,0,192,1.0,70.0
10511,58.0,240,192,2.0,70.0
10512,82.0,0,192,0.0,70.0
10513,86.0,0,1440,0.0,70.0
10514,74.0,240,1440,1.0,70.0
10515,62.0,0,1440,2.0,70.0
10516,58.0,0,1440,2.0,70.0
10517,73.0,0,480,1.0,70.0
10518,57.0,1440,480,2.0,70.0
10519,64.0,0,480,2.0,70.0
10520,85.0,0,480,0.0,70.0
10521,66.0,0,384,2.0,70.0
10522,72.0,0,384,1.0,70.0
10523,62.0,0,384,2.0,70.0
10524,84.0,0,384,0.0,70.0
10525,72.0,0,1440,4.0,58.0
10526,60.0,480,1440,5.0,58.0
10527,62.0,0,120,5.0,58.0
10528,74.0,1440,120,4.0,58.0
10529,60.0,0,120,5.0,58.0
10530,72.0,120,120,4.0,58.0
10531,58.0,120,120,5.0,58.0
10532,70.0,0,120,4.0,58.0
10533,69.0,0,120,4.0,58.0
10534,57.0,120,120,5.0,58.0
10535,67.0,120,384,4.0,58.0
10536,55.0,0,384,5.0,58.0
10537,79.0,0,288,0.0,70.0
10538,53.0,0,480,2.0,70.0
10539,65.0,480,480,2.0,70.0
10540,71.0,0,480,1.0,70.0
10541,79.0,0,480,0.0,70.0
10542,64.0,480,480,2.0,70.0
10543,52.0,0,480,2.0,70.0
10544,72.0,0,480,1.0,70.0
10545,73.0,0,384,1.0,70.0
10546,63.0,0,384,2.0,70.0
10547,51.0,480,384,2.0,70.0
10548,81.0,0,384,0.0,70.0
10549,79.0,0,864,1.0,70.0
10550,82.0,0,720,0.0,70.0
10551,79.0,0,720,1.0,70.0
10552,62.0,480,768,2.0,70.0
10553,50.0,0,768,2.0,70.0
10554,74.0,0,912,1.0,70.0
10555,84.0,720,192,0.0,70.0
10556,81.0,0,192,1.0,70.0
10557,81.0,240,384,0.0,70.0
10558,78.0,0,384,1.0,70.0
10559,87.0,960,1152,0.0,58.0
10560,63.0,0,1152,2.0,58.0
10561,66.0,0,1440,5.0,58.0
10562,60.0,0,1440,7.0,58.0
10563,75.0,0,1440,4.0,58.0
10564,48.0,0,1440,8.0,58.0
10565,57.0,0,1440,6.0,58.0
10566,58.0,1440,384,7.0,58.0
10567,86.0,0,384,0.0,58.0
10568,46.0,0,384,8.0,58.0
10569,58.0,0,384,6.0,58.0
10570,62.0,0,384,2.0,58.0
10571,74.0,0,480,4.0,58.0
10572,85.0,0,384,0.0,58.0
10573,61.0,0,384,2.0,58.0
10574,64.0,0,480,6.0,58.0
10575,67.0,0,960,5.0,58.0
10576,73.0,0,480,4.0,58.0
10577,57.0,0,480,7.0,58.0
10578,45.0,480,480,8.0,58.0
10579,60.0,0,384,2.0,58.0
10580,84.0,0,384,0.0,58.0
10581,72.0,0,480,4.0,58.0
10582,38.0,480,480,8.0,58.0
10583,66.0,0,480,5.0,58.0
10584,50.0,0,480,7.0,58.0
10585,83.0,0,384,0.0,58.0
10586,59.0,0,384,2.0,58.0
10587,55.0,0,480,7.0,58.0
10588,62.0,0,960,6.0,58.0
10589,71.0,480,480,4.0,58.0
10590,43.0,0,480,8.0,58.0
10591,67.0,0,768,5.0,58.0
10592,55.0,0,384,6.0,58.0
10593,70.0,480,384,4.0,58.0
10594,58.0,0,384,2.0,58.0
10595,51.0,0,384,7.0,58.0
10596,82.0,0,384,0.0,58.0
10597,39.0,0,384,8.0,58.0
10598,65.0,0,240,5.0,58.0
10599,53.0,0,240,6.0,58.0
10600,62.0,0,240,5.0,58.0
10601,50.0,240,240,6.0,58.0
10602,65.0,0,240,5.0,58.0
10603,53.0,0,240,6.0,58.0
10604,62.0,240,240,5.0,58.0
10605,50.0,0,240,6.0,58.0
10606,53.0,0,240,6.0,58.0
10607,65.0,240,240,5.0,58.0
10608,80.0,480,1440,1.0,58.0
10609,77.0,0,1440,1.0,58.0
10610,62.0,0,240,5.0,58.0
10611,68.0,0,1440,4.0,58.0
10612,56.0,240,960,2.0,58.0
10613,53.0,0,960,2.0,58.0
10614,86.0,0,960,0.0,58.0
10615,50.0,240,240,6.0,58.0
10616,51.0,0,240,6.0,58.0
10617,63.0,240,240,5.0,58.0
10618,87.0,0,384,0.0,58.0
10619,67.0,0,384,4.0,58.0
10620,79.0,0,384,1.0,58.0
10621,75.0,0,384,1.0,58.0
10622,55.0,0,384,2.0,58.0
10623,51.0,0,384,2.0,58.0
10624,55.0,240,192,6.0,58.0
10625,67.0,0,192,5.0,58.0
10626,53.0,0,240,6.0,58.0
10627,65.0,0,240,5.0,58.0
10628,50.0,240,240,6.0,58.0
10629,62.0,0,240,5.0,58.0
10630,53.0,0,240,6.0,58.0
10631,65.0,0,240,5.0,58.0
10632,50.0,240,240,6.0,58.0
10633,62.0,0,240,5.0,58.0
10634,53.0,0,240,6.0,58.0
10635,65.0,240,240,5.0,58.0
10636,62.0,240,240,5.0,58.0
10637,56.0,0,960,2.0,58.0
10638,53.0,0,960,2.0,58.0
10639,50.0,0,240,6.0,58.0
10640,80.0,240,1440,1.0,58.0
10641,77.0,0,1440,1.0,58.0
10642,68.0,0,1440,4.0,58.0
10643,86.0,240,960,0.0,58.0
10644,51.0,0,240,6.0,58.0
10645,63.0,0,240,5.0,58.0
10646,79.0,0,384,1.0,58.0
10647,51.0,0,384,2.0,58.0
10648,55.0,240,384,2.0,58.0
10649,75.0,0,384,1.0,58.0
10650,67.0,0,384,4.0,58.0
10651,87.0,0,384,0.0,58.0
10652,67.0,240,192,5.0,58.0
10653,55.0,0,192,6.0,58.0
10654,53.0,0,240,6.0,58.0
10655,65.0,0,240,5.0,58.0
10656,62.0,0,240,5.0,58.0
10657,50.0,240,240,6.0,58.0
10658,53.0,0,240,6.0,58.0
10659,65.0,240,240,5.0,58.0
10660,62.0,0,240,5.0,58.0
10661,50.0,240,240,6.0,58.0
10662,53.0,0,240,6.0,58.0
10663,65.0,240,240,5.0,58.0
10664,62.0,240,240,5.0,58.0
10665,86.0,0,960,0.0,58.0
10666,50.0,0,240,6.0,58.0
10667,80.0,240,1440,1.0,58.0
10668,68.0,0,1440,4.0,58.0
10669,77.0,0,1440,1.0,58.0
10670,53.0,0,960,2.0,58.0
10671,56.0,0,960,2.0,58.0
10672,51.0,0,240,6.0,58.0
10673,63.0,0,240,5.0,58.0
10674,55.0,0,384,2.0,58.0
10675,67.0,0,384,4.0,58.0
10676,51.0,0,384,2.0,58.0
10677,87.0,0,384,0.0,58.0
10678,75.0,240,384,1.0,58.0
10679,79.0,0,384,1.0,58.0
10680,55.0,240,192,6.0,58.0
10681,67.0,0,192,5.0,58.0
10682,65.0,0,240,5.0,58.0
10683,53.0,0,240,6.0,58.0
10684,50.0,240,240,6.0,58.0
10685,62.0,0,240,5.0,58.0
10686,53.0,0,240,6.0,58.0
10687,65.0,0,240,5.0,58.0
10688,50.0,240,240,6.0,58.0
10689,62.0,0,240,5.0,58.0
10690,53.0,0,240,6.0,58.0
10691,65.0,240,240,5.0,58.0
10692,77.0,0,1440,1.0,58.0
10693,86.0,0,960,0.0,58.0
10694,80.0,0,1440,1.0,58.0
10695,68.0,240,1440,4.0,58.0
10696,56.0,0,960,2.0,58.0
10697,62.0,0,240,5.0,58.0
10698,53.0,240,960,2.0,58.0
10699,50.0,240,240,6.0,58.0
10700,51.0,0,240,6.0,58.0
10701,63.0,0,240,5.0,58.0
10702,87.0,0,384,0.0,58.0
10703,51.0,0,384,2.0,58.0
10704,75.0,240,384,1.0,58.0
10705,58.0,0,7584,3.0,58.0
10706,79.0,0,384,1.0,58.0
10707,67.0,0,384,4.0,58.0
10708,34.0,0,7584,8.0,58.0
10709,46.0,0,7584,7.0,58.0
10710,55.0,0,384,2.0,58.0
10711,67.0,0,192,5.0,58.0
10712,55.0,240,192,6.0,58.0
10713,65.0,0,192,5.0,70.0
10714,68.0,0,192,4.0,58.0
10715,34.0,0,192,8.0,58.0
10716,50.0,0,192,6.0,70.0
10717,46.0,0,192,7.0,70.0
10718,46.0,240,192,8.0,70.0
10719,80.0,0,192,4.0,72.0
10720,50.0,0,192,6.0,70.0
10721,58.0,0,192,7.0,70.0
10722,77.0,0,192,5.0,72.0
10723,77.0,240,192,5.0,74.0
10724,58.0,0,192,7.0,72.0
10725,50.0,0,192,6.0,72.0
10726,46.0,0,192,8.0,72.0
10727,80.0,0,192,4.0,74.0
10728,46.0,0,192,8.0,75.0
10729,50.0,0,192,6.0,75.0
10730,77.0,0,192,5.0,77.0
10731,58.0,240,192,7.0,75.0
10732,80.0,0,192,4.0,77.0
10733,46.0,0,192,8.0,78.0
10734,77.0,0,192,5.0,79.0
10735,50.0,0,192,6.0,78.0
10736,58.0,0,192,7.0,78.0
10737,80.0,240,192,4.0,79.0
10738,80.0,0,192,4.0,82.0
10739,50.0,0,192,6.0,80.0
10740,77.0,0,192,5.0,82.0
10741,46.0,240,192,8.0,80.0
10742,58.0,0,192,7.0,80.0
10743,53.0,240,1536,2.0,58.0
10744,56.0,0,1536,2.0,58.0
10745,46.0,0,192,8.0,83.0
10746,50.0,240,192,6.0,83.0
10747,77.0,0,192,5.0,84.0
10748,58.0,0,192,7.0,83.0
10749,80.0,0,192,4.0,84.0
10750,50.0,0,192,6.0,86.0
10751,80.0,240,192,4.0,87.0
10752,58.0,0,192,7.0,86.0
10753,46.0,0,192,8.0,86.0
10754,77.0,0,192,5.0,87.0
10755,62.0,0,1920,3.0,58.0
10756,65.0,240,0,3.0,70.0
10757,59.0,0,192,7.0,88.0
10758,77.0,0,192,5.0,89.0
10759,50.0,0,192,6.0,88.0
10760,47.0,0,192,8.0,88.0
10761,80.0,0,192,4.0,89.0
10762,80.0,240,192,4.0,92.0
10763,62.0,0,192,6.0,91.0
10764,77.0,0,192,5.0,92.0
10765,47.0,0,192,8.0,91.0
10766,59.0,0,192,7.0,91.0
10767,59.0,0,192,7.0,94.0
10768,80.0,0,192,4.0,94.0
10769,62.0,240,192,6.0,94.0
10770,77.0,0,192,5.0,94.0
10771,47.0,0,192,8.0,94.0
10772,77.0,0,2688,1.0,58.0
10773,80.0,0,2688,1.0,58.0
10774,77.0,0,192,5.0,97.0
10775,59.0,0,192,7.0,96.0
10776,47.0,0,192,8.0,96.0
10777,62.0,240,192,6.0,96.0
10778,80.0,0,192,4.0,97.0
10779,59.0,0,192,7.0,99.0
10780,62.0,0,192,6.0,99.0
10781,77.0,240,192,5.0,99.0
10782,47.0,0,192,8.0,99.0
10783,80.0,0,192,4.0,99.0
10784,77.0,240,192,5.0,101.0
10785,59.0,0,192,7.0,102.0
10786,62.0,0,192,6.0,102.0
10787,47.0,0,192,8.0,102.0
10788,80.0,0,192,4.0,101.0
10789,62.0,0,1536,3.0,70.0
10790,62.0,0,1536,2.0,70.0
10791,86.0,0,3456,0.0,58.0
10792,56.0,0,1536,2.0,70.0
10793,59.0,0,192,7.0,105.0
10794,47.0,240,192,8.0,105.0
10795,77.0,0,192,5.0,104.0
10796,62.0,0,192,6.0,105.0
10797,80.0,0,192,4.0,104.0
10798,68.0,0,768,1.0,92.0
10799,74.0,0,768,1.0,92.0
10800,59.0,0,192,7.0,107.0
10801,47.0,0,192,8.0,107.0
10802,62.0,0,192,6.0,107.0
10803,80.0,240,192,4.0,106.0
10804,77.0,0,192,5.0,106.0
10805,60.0,240,192,7.0,105.0
10806,78.0,0,192,5.0,105.0
10807,48.0,0,192,8.0,105.0
10808,63.0,0,192,6.0,105.0
10809,63.0,0,192,6.0,105.0
10810,60.0,0,192,7.0,105.0
10811,78.0,240,192,5.0,105.0
10812,48.0,0,192,8.0,105.0
10813,63.0,0,192,6.0,105.0
10814,48.0,240,192,8.0,105.0
10815,60.0,0,192,7.0,105.0
10816,78.0,0,192,5.0,105.0
10817,87.0,0,768,0.0,105.0
10818,57.0,0,768,2.0,105.0
10819,63.0,0,768,2.0,105.0
10820,75.0,0,768,1.0,105.0
10821,60.0,0,192,7.0,105.0
10822,48.0,240,192,8.0,105.0
10823,78.0,0,192,5.0,105.0
10824,63.0,0,192,6.0,105.0
10825,81.0,0,1152,4.0,116.0
10826,66.0,0,192,5.0,105.0
10827,60.0,0,192,7.0,105.0
10828,51.0,0,192,6.0,105.0
10829,48.0,0,192,8.0,105.0
10830,60.0,0,384,2.0,105.0
10831,72.0,0,384,1.0,105.0
10832,84.0,0,384,0.0,105.0
10833,48.0,240,192,8.0,105.0
10834,51.0,0,192,6.0,105.0
10835,66.0,0,192,5.0,105.0
10836,60.0,0,192,7.0,105.0
10837,82.0,0,60,4.0,116.0
10838,81.0,60,60,4.0,116.0
10839,82.0,60,60,4.0,116.0
10840,51.0,0,192,6.0,105.0
10841,48.0,0,192,8.0,105.0
10842,60.0,240,192,7.0,105.0
10843,66.0,0,192,5.0,105.0
10844,81.0,60,60,4.0,116.0
10845,82.0,0,60,4.0,116.0
10846,81.0,60,60,4.0,116.0
10847,51.0,240,864,2.0,105.0
10848,57.0,0,384,2.0,105.0
10849,69.0,0,384,1.0,105.0
10850,66.0,0,1824,1.0,105.0
10851,81.0,0,384,0.0,105.0
10852,79.0,60,60,4.0,116.0
10853,51.0,60,192,6.0,105.0
10854,48.0,0,192,8.0,105.0
10855,66.0,0,192,5.0,105.0
10856,60.0,0,192,7.0,105.0
10857,81.0,60,48,4.0,116.0
10858,49.0,0,192,8.0,105.0
10859,65.0,0,192,5.0,105.0
10860,49.0,60,192,6.0,105.0
10861,61.0,0,192,7.0,105.0
10862,49.0,0,192,6.0,105.0
10863,65.0,0,192,5.0,105.0
10864,61.0,0,192,7.0,105.0
10865,49.0,240,192,8.0,105.0
10866,82.0,0,480,0.0,105.0
10867,70.0,0,480,1.0,105.0
10868,58.0,0,480,2.0,105.0
10869,49.0,240,192,6.0,105.0
10870,65.0,0,192,5.0,105.0
10871,49.0,0,192,8.0,105.0
10872,61.0,0,192,7.0,105.0
10873,49.0,0,192,6.0,105.0
10874,61.0,0,192,7.0,105.0
10875,65.0,0,192,5.0,105.0
10876,49.0,240,192,8.0,105.0
10877,73.0,0,480,1.0,105.0
10878,85.0,0,480,0.0,105.0
10879,61.0,0,480,2.0,105.0
10880,49.0,0,960,2.0,105.0
10881,77.0,0,192,5.0,105.0
10882,82.0,0,1152,4.0,116.0
10883,61.0,0,192,7.0,105.0
10884,49.0,0,192,8.0,105.0
10885,61.0,0,192,6.0,105.0
10886,61.0,0,192,6.0,105.0
10887,49.0,0,192,8.0,105.0
10888,77.0,240,192,5.0,105.0
10889,61.0,0,192,7.0,105.0
10890,84.0,0,60,4.0,116.0
10891,65.0,0,1536,3.0,105.0
10892,82.0,60,60,4.0,116.0
10893,84.0,60,60,4.0,116.0
10894,61.0,0,192,6.0,105.0
10895,49.0,0,192,8.0,105.0
10896,61.0,240,192,7.0,105.0
10897,77.0,0,192,5.0,105.0
10898,82.0,60,60,4.0,116.0
10899,84.0,60,60,4.0,116.0
10900,82.0,60,60,4.0,116.0
10901,81.0,60,60,4.0,116.0
10902,77.0,0,192,5.0,105.0
10903,61.0,0,192,7.0,105.0
10904,61.0,0,192,6.0,105.0
10905,49.0,0,192,8.0,105.0
10906,82.0,60,48,4.0,116.0
10907,58.0,0,960,2.0,105.0
10908,65.0,0,1920,1.0,105.0
10909,62.0,0,192,7.0,105.0
10910,65.0,0,192,6.0,105.0
10911,50.0,60,192,8.0,105.0
10912,80.0,0,192,5.0,105.0
10913,50.0,240,192,8.0,105.0
10914,62.0,0,192,7.0,105.0
10915,65.0,0,192,6.0,105.0
10916,80.0,0,192,5.0,105.0
10917,62.0,0,192,7.0,105.0
10918,50.0,240,192,8.0,105.0
10919,80.0,0,192,5.0,105.0
10920,65.0,0,192,6.0,105.0
10921,65.0,0,192,6.0,105.0
10922,80.0,0,192,5.0,105.0
10923,50.0,240,192,8.0,105.0
10924,62.0,0,192,7.0,105.0
10925,59.0,0,960,2.0,105.0
10926,89.0,0,1920,0.0,105.0
10927,77.0,240,1920,1.0,105.0
10928,65.0,0,1920,2.0,105.0
10929,62.0,240,192,7.0,105.0
10930,53.0,0,192,6.0,105.0
10931,68.0,0,192,5.0,105.0
10932,83.0,0,1152,4.0,116.0
10933,50.0,0,192,8.0,105.0
10934,62.0,0,192,7.0,105.0
10935,53.0,0,192,6.0,105.0
10936,68.0,240,192,5.0,105.0
10937,50.0,0,192,8.0,105.0
10938,86.0,0,480,0.0,105.0
10939,62.0,0,480,2.0,105.0
10940,74.0,0,480,1.0,105.0
10941,84.0,240,60,4.0,116.0
10942,62.0,0,1536,3.0,105.0
10943,65.0,0,1536,3.0,105.0
10944,83.0,60,60,4.0,116.0
10945,84.0,60,60,4.0,116.0
10946,53.0,0,192,6.0,105.0
10947,68.0,0,192,5.0,105.0
10948,50.0,0,192,8.0,105.0
10949,62.0,0,192,7.0,105.0
10950,83.0,60,60,4.0,116.0
10951,84.0,0,60,4.0,116.0
10952,83.0,60,60,4.0,116.0
10953,53.0,0,864,2.0,105.0
10954,59.0,0,384,2.0,105.0
10955,83.0,0,384,0.0,105.0
10956,71.0,0,384,1.0,105.0
10957,68.0,0,1824,1.0,105.0
10958,81.0,60,60,4.0,116.0
10959,50.0,0,192,8.0,105.0
10960,62.0,60,192,7.0,105.0
10961,68.0,0,192,5.0,105.0
10962,53.0,0,192,6.0,105.0
10963,83.0,60,48,4.0,116.0
10964,67.0,0,192,5.0,105.0
10965,51.0,0,192,8.0,105.0
10966,51.0,0,192,6.0,105.0
10967,63.0,0,192,7.0,105.0
10968,63.0,240,192,7.0,105.0
10969,51.0,0,192,8.0,105.0
10970,67.0,0,192,5.0,105.0
10971,51.0,0,192,6.0,105.0
10972,84.0,0,480,0.0,105.0
10973,60.0,0,480,2.0,105.0
10974,72.0,0,480,1.0,105.0
10975,51.0,0,192,6.0,105.0
10976,63.0,0,192,7.0,105.0
10977,67.0,0,192,5.0,105.0
10978,51.0,240,192,8.0,105.0
10979,63.0,0,192,7.0,105.0
10980,67.0,0,192,5.0,105.0
10981,51.0,0,192,6.0,105.0
10982,51.0,240,192,8.0,105.0
10983,75.0,0,480,1.0,105.0
10984,63.0,0,480,2.0,105.0
10985,51.0,0,960,2.0,105.0
10986,87.0,0,480,0.0,105.0
10987,63.0,0,192,7.0,105.0
10988,79.0,0,192,5.0,105.0
10989,51.0,0,192,8.0,105.0
10990,63.0,240,192,6.0,105.0
10991,84.0,0,1152,4.0,116.0
10992,79.0,0,192,5.0,105.0
10993,51.0,240,192,8.0,105.0
10994,63.0,0,192,7.0,105.0
10995,63.0,0,192,6.0,105.0
10996,86.0,0,60,4.0,116.0
10997,72.0,0,1536,3.0,105.0
10998,67.0,0,1536,3.0,105.0
10999,84.0,60,60,4.0,116.0
11000,86.0,60,60,4.0,116.0
11001,63.0,0,192,6.0,105.0
11002,63.0,0,192,7.0,105.0
11003,79.0,240,192,5.0,105.0
11004,51.0,0,192,8.0,105.0
11005,84.0,60,60,4.0,116.0
11006,86.0,0,60,4.0,116.0
11007,84.0,60,60,4.0,116.0
11008,83.0,60,60,4.0,116.0
11009,51.0,0,192,8.0,105.0
11010,63.0,0,192,7.0,105.0
11011,79.0,0,192,5.0,105.0
11012,63.0,60,192,6.0,105.0
11013,84.0,60,48,4.0,116.0
11014,67.0,60,1920,1.0,105.0
11015,60.0,0,960,2.0,105.0
11016,67.0,0,192,6.0,105.0
11017,64.0,0,192,7.0,105.0
11018,82.0,60,192,5.0,105.0
11019,52.0,0,192,8.0,105.0
11020,85.0,0,336,4.0,116.0
11021,64.0,0,192,7.0,105.0
11022,67.0,240,192,6.0,105.0
11023,52.0,0,192,8.0,105.0
11024,82.0,0,192,5.0,105.0
11025,52.0,0,192,8.0,105.0
11026,82.0,0,192,5.0,105.0
11027,67.0,240,192,6.0,105.0
11028,64.0,0,192,7.0,105.0
11029,67.0,0,768,3.0,105.0
11030,70.0,0,768,3.0,105.0
11031,85.0,0,336,4.0,116.0
11032,82.0,0,192,5.0,105.0
11033,52.0,0,192,8.0,105.0
11034,67.0,240,192,6.0,105.0
11035,64.0,0,192,7.0,105.0
11036,79.0,0,1920,1.0,105.0
11037,91.0,0,1920,0.0,105.0
11038,67.0,0,1920,2.0,105.0
11039,61.0,0,960,2.0,105.0
11040,52.0,0,192,8.0,105.0
11041,70.0,0,192,5.0,105.0
11042,55.0,0,192,6.0,105.0
11043,64.0,240,192,7.0,105.0
11044,85.0,0,336,4.0,116.0
11045,55.0,0,384,3.0,105.0
11046,58.0,0,384,3.0,105.0
11047,70.0,0,192,5.0,105.0
11048,55.0,0,192,6.0,105.0
11049,52.0,0,192,8.0,105.0
11050,64.0,240,192,7.0,105.0
11051,76.0,0,480,1.0,105.0
11052,64.0,0,480,2.0,105.0
11053,88.0,0,480,0.0,105.0
11054,52.0,0,192,8.0,105.0
11055,55.0,0,192,6.0,105.0
11056,70.0,0,192,5.0,105.0
11057,64.0,0,192,7.0,105.0
11058,85.0,240,336,4.0,116.0
11059,73.0,0,384,1.0,105.0
11060,55.0,0,384,3.0,105.0
11061,55.0,0,864,2.0,105.0
11062,85.0,0,384,0.0,105.0
11063,61.0,0,384,2.0,105.0
11064,70.0,0,1824,1.0,105.0
11065,58.0,0,384,3.0,105.0
11066,64.0,0,192,7.0,105.0
11067,55.0,240,192,6.0,105.0
11068,70.0,0,192,5.0,105.0
11069,52.0,0,192,8.0,105.0
11070,62.0,0,120,4.0,116.0
11071,50.0,240,192,8.0,105.0
11072,62.0,0,192,2.0,105.0
11073,62.0,0,192,7.0,105.0
11074,62.0,0,192,6.0,105.0
11075,74.0,120,120,4.0,116.0
11076,70.0,0,384,5.0,105.0
11077,62.0,0,384,5.0,105.0
11078,62.0,0,192,2.0,105.0
11079,62.0,120,192,6.0,105.0
11080,62.0,0,192,7.0,105.0
11081,50.0,0,192,8.0,105.0
11082,62.0,0,192,7.0,105.0
11083,62.0,0,192,2.0,105.0
11084,62.0,0,192,6.0,105.0
11085,50.0,240,192,8.0,105.0
11086,58.0,0,768,3.0,105.0
11087,55.0,0,768,3.0,105.0
11088,62.0,0,192,7.0,105.0
11089,50.0,240,192,8.0,105.0
11090,62.0,0,192,2.0,105.0
11091,62.0,0,192,6.0,105.0
11092,50.0,0,192,8.0,105.0
11093,62.0,0,192,7.0,105.0
11094,62.0,240,192,2.0,105.0
11095,62.0,0,192,6.0,105.0
11096,62.0,0,768,5.0,105.0
11097,70.0,0,768,5.0,105.0
11098,62.0,0,192,7.0,105.0
11099,62.0,240,192,2.0,105.0
11100,62.0,0,192,6.0,105.0
11101,50.0,0,192,8.0,105.0
11102,70.0,0,1536,1.0,105.0
11103,86.0,0,1536,0.0,105.0
11104,74.0,0,1536,1.0,105.0
11105,50.0,0,192,8.0,105.0
11106,86.0,0,1392,4.0,116.0
11107,62.0,0,192,2.0,105.0
11108,62.0,240,192,6.0,105.0
11109,62.0,0,192,7.0,105.0
11110,67.0,0,768,3.0,105.0
11111,70.0,0,768,3.0,105.0
11112,62.0,0,192,6.0,105.0
11113,62.0,240,192,2.0,105.0
11114,62.0,0,192,7.0,105.0
11115,50.0,0,192,8.0,105.0
11116,70.0,0,480,5.0,105.0
11117,79.0,0,120,4.0,116.0
11118,82.0,0,120,0.0,105.0
11119,79.0,0,120,1.0,105.0
11120,50.0,240,192,6.0,105.0
11121,50.0,0,192,7.0,105.0
11122,50.0,0,192,2.0,105.0
11123,38.0,0,192,8.0,105.0
11124,78.0,120,120,4.0,116.0
11125,81.0,0,120,0.0,105.0
11126,78.0,0,120,1.0,105.0
11127,79.0,0,120,1.0,105.0
11128,79.0,120,120,4.0,116.0
11129,82.0,0,120,0.0,105.0
11130,62.0,0,864,5.0,105.0
11131,72.0,0,384,5.0,105.0
11132,50.0,0,192,2.0,105.0
11133,50.0,0,192,7.0,105.0
11134,38.0,0,192,8.0,105.0
11135,50.0,0,192,6.0,105.0
11136,78.0,120,120,1.0,105.0
11137,81.0,0,120,0.0,105.0
11138,78.0,0,120,4.0,116.0
11139,82.0,120,120,0.0,105.0
11140,79.0,0,120,1.0,105.0
11141,79.0,0,120,4.0,116.0
11142,50.0,0,192,6.0,105.0
11143,38.0,0,192,8.0,105.0
11144,50.0,0,192,2.0,105.0
11145,50.0,0,192,7.0,105.0
11146,78.0,0,120,1.0,105.0
11147,78.0,0,120,4.0,116.0
11148,81.0,120,120,0.0,105.0
11149,79.0,0,120,1.0,105.0
11150,79.0,0,120,4.0,116.0
11151,82.0,0,120,0.0,105.0
11152,38.0,120,192,8.0,105.0
11153,50.0,0,192,2.0,105.0
11154,50.0,0,192,6.0,105.0
11155,50.0,0,192,7.0,105.0
11156,78.0,0,120,4.0,116.0
11157,78.0,120,120,1.0,105.0
11158,81.0,0,120,0.0,105.0
11159,79.0,0,120,1.0,105.0
11160,82.0,0,120,0.0,105.0
11161,79.0,0,120,4.0,116.0
11162,50.0,0,192,6.0,105.0
11163,50.0,0,192,2.0,105.0
11164,50.0,0,192,7.0,105.0
11165,38.0,120,192,8.0,105.0
11166,78.0,0,120,4.0,116.0
11167,78.0,120,120,1.0,105.0
11168,81.0,0,120,0.0,105.0
11169,72.0,0,768,5.0,105.0
11170,62.0,0,768,5.0,105.0
11171,82.0,0,120,0.0,105.0
11172,79.0,120,120,4.0,116.0
11173,79.0,0,120,1.0,105.0
11174,50.0,0,192,2.0,105.0
11175,50.0,0,192,7.0,105.0
11176,50.0,0,192,6.0,105.0
11177,38.0,0,192,8.0,105.0
11178,81.0,0,120,0.0,105.0
11179,78.0,0,120,4.0,116.0
11180,78.0,120,120,1.0,105.0
11181,62.0,0,1536,3.0,105.0
11182,57.0,0,1536,3.0,105.0
11183,82.0,0,120,0.0,105.0
11184,79.0,0,120,1.0,105.0
11185,79.0,0,120,4.0,116.0
11186,50.0,0,192,2.0,105.0
11187,50.0,0,192,6.0,105.0
11188,38.0,0,192,8.0,105.0
11189,50.0,0,192,7.0,105.0
11190,78.0,0,120,1.0,105.0
11191,81.0,120,120,0.0,105.0
11192,78.0,0,120,4.0,116.0
11193,76.0,0,120,1.0,105.0
11194,79.0,0,120,0.0,105.0
11195,76.0,0,120,4.0,116.0
11196,72.0,0,384,5.0,105.0
11197,62.0,120,384,5.0,105.0
11198,38.0,0,192,8.0,105.0
11199,50.0,0,192,6.0,105.0
11200,50.0,120,192,7.0,105.0
11201,50.0,0,192,2.0,105.0
11202,78.0,0,120,4.0,116.0
11203,72.0,0,1920,1.0,105.0
11204,81.0,120,120,0.0,105.0
11205,78.0,0,120,1.0,105.0
11206,70.0,0,384,1.0,92.0
11207,67.0,0,384,3.0,105.0
11208,70.0,0,384,5.0,92.0
11209,55.0,0,384,7.0,92.0
11210,79.0,0,384,1.0,105.0
11211,55.0,120,384,6.0,92.0
11212,79.0,0,384,4.0,105.0
11213,43.0,0,384,8.0,92.0
11214,62.0,0,384,5.0,92.0
11215,79.0,0,384,0.0,92.0
11216,55.0,0,384,2.0,92.0
11217,58.0,0,384,3.0,105.0
11218,58.0,0,192,4.0,125.0
11219,58.0,480,192,5.0,125.0
11220,58.0,240,192,4.0,105.0
11221,58.0,0,192,5.0,105.0
11222,58.0,240,192,5.0,105.0
11223,58.0,0,192,4.0,105.0
11224,46.0,0,768,7.0,125.0
11225,34.0,0,768,8.0,125.0
11226,46.0,0,768,2.0,125.0
11227,58.0,0,768,6.0,125.0
11228,58.0,0,192,5.0,105.0
11229,58.0,240,192,4.0,105.0
11230,60.0,0,192,4.0,105.0
11231,60.0,0,192,5.0,105.0
11232,36.0,0,288,8.0,105.0
11233,48.0,0,288,2.0,105.0
11234,60.0,240,288,6.0,105.0
11235,48.0,0,288,7.0,105.0
11236,60.0,0,192,4.0,105.0
11237,60.0,240,192,5.0,105.0
11238,61.0,0,192,4.0,105.0
11239,61.0,0,192,5.0,105.0
11240,37.0,0,288,8.0,105.0
11241,49.0,0,288,2.0,105.0
11242,61.0,0,288,6.0,105.0
11243,49.0,240,288,7.0,105.0
11244,61.0,0,192,4.0,105.0
11245,61.0,240,192,5.0,105.0
11246,62.0,0,192,5.0,105.0
11247,62.0,0,192,4.0,105.0
11248,38.0,0,288,8.0,105.0
11249,50.0,0,288,7.0,105.0
11250,50.0,240,288,2.0,105.0
11251,62.0,0,288,6.0,105.0
11252,62.0,240,192,5.0,105.0
11253,62.0,0,192,4.0,105.0
11254,63.0,0,192,5.0,105.0
11255,63.0,0,192,4.0,105.0
11256,51.0,240,288,7.0,105.0
11257,63.0,0,288,6.0,105.0
11258,39.0,0,288,8.0,105.0
11259,51.0,0,288,2.0,105.0
11260,63.0,0,192,5.0,105.0
11261,63.0,240,192,4.0,105.0
11262,64.0,0,192,5.0,105.0
11263,64.0,0,192,4.0,105.0
11264,52.0,0,288,7.0,105.0
11265,40.0,0,288,8.0,105.0
11266,52.0,0,288,2.0,105.0
11267,64.0,240,288,6.0,105.0
11268,64.0,0,192,4.0,105.0
11269,64.0,240,192,5.0,105.0
11270,41.0,0,384,8.0,105.0
11271,53.0,0,384,2.0,105.0
11272,65.0,0,384,4.0,105.0
11273,53.0,0,384,7.0,105.0
11274,67.0,0,384,3.0,92.0
11275,65.0,0,384,5.0,105.0
11276,65.0,0,384,6.0,105.0
11277,71.0,0,384,1.0,92.0
11278,74.0,240,384,1.0,92.0
11279,65.0,840,96,5.0,105.0
11280,41.0,0,96,8.0,105.0
11281,53.0,0,96,7.0,105.0
11282,65.0,0,96,4.0,105.0
11283,65.0,0,96,6.0,105.0
11284,39.0,0,384,8.0,105.0
11285,55.0,0,384,3.0,105.0
11286,63.0,0,384,5.0,105.0
11287,63.0,0,384,6.0,105.0
11288,51.0,0,384,7.0,105.0
11289,55.0,0,384,2.0,105.0
11290,63.0,120,384,4.0,105.0
11291,75.0,0,384,1.0,105.0
11292,72.0,0,384,1.0,105.0
11293,63.0,0,96,4.0,105.0
11294,63.0,0,96,5.0,105.0
11295,39.0,840,96,8.0,105.0
11296,51.0,0,96,7.0,105.0
11297,63.0,0,96,6.0,105.0
11298,78.0,0,384,1.0,105.0
11299,57.0,0,384,2.0,105.0
11300,72.0,120,384,5.0,105.0
11301,72.0,0,384,6.0,105.0
11302,74.0,0,384,1.0,105.0
11303,60.0,0,384,7.0,105.0
11304,81.0,0,384,0.0,92.0
11305,72.0,0,384,4.0,105.0
11306,54.0,0,384,2.0,105.0
11307,48.0,0,384,8.0,105.0
11308,50.0,0,384,3.0,105.0
11309,62.0,0,384,3.0,105.0
11310,48.0,0,96,8.0,105.0
11311,72.0,0,96,5.0,105.0
11312,72.0,0,96,6.0,105.0
11313,72.0,840,96,4.0,105.0
11314,60.0,0,96,7.0,105.0
11315,79.0,0,384,1.0,105.0
11316,46.0,0,384,8.0,105.0
11317,70.0,0,384,5.0,105.0
11318,58.0,0,384,2.0,105.0
11319,70.0,120,384,4.0,105.0
11320,62.0,0,384,3.0,105.0
11321,74.0,0,384,1.0,105.0
11322,55.0,0,384,2.0,105.0
11323,58.0,0,384,7.0,105.0
11324,70.0,0,384,6.0,105.0
11325,82.0,0,384,0.0,105.0
11326,50.0,0,384,3.0,105.0
11327,70.0,0,96,5.0,105.0
11328,70.0,0,96,6.0,105.0
11329,58.0,0,96,7.0,105.0
11330,46.0,0,96,8.0,105.0
11331,70.0,840,96,4.0,105.0
11332,36.0,0,384,8.0,105.0
11333,60.0,120,384,6.0,105.0
11334,48.0,0,384,7.0,105.0
11335,75.0,0,1104,4.0,105.0
11336,63.0,0,1104,2.0,105.0
11337,87.0,0,1104,0.0,105.0
11338,75.0,0,1104,5.0,105.0
11339,74.0,0,144,5.0,70.0
11340,62.0,1200,144,2.0,105.0
11341,74.0,0,144,4.0,70.0
11342,86.0,0,144,0.0,70.0
11343,84.0,0,144,0.0,70.0
11344,72.0,0,144,5.0,70.0
11345,72.0,240,144,4.0,70.0
11346,60.0,0,144,2.0,70.0
11347,70.0,0,144,4.0,70.0
11348,82.0,0,144,0.0,70.0
11349,58.0,0,144,2.0,70.0
11350,70.0,240,144,5.0,70.0
11351,57.0,0,144,2.0,70.0
11352,69.0,0,144,5.0,70.0
11353,69.0,240,144,4.0,70.0
11354,81.0,0,144,0.0,70.0
11355,55.0,240,144,2.0,70.0
11356,50.0,0,384,6.0,70.0
11357,67.0,0,144,4.0,70.0
11358,38.0,0,384,8.0,70.0
11359,67.0,0,144,5.0,70.0
11360,50.0,0,384,7.0,70.0
11361,79.0,0,144,0.0,70.0
11362,66.0,240,144,4.0,70.0
11363,66.0,0,144,5.0,70.0
11364,54.0,0,144,2.0,70.0
11365,78.0,0,144,0.0,70.0
11366,75.0,240,144,0.0,70.0
11367,63.0,0,144,4.0,70.0
11368,63.0,0,144,5.0,70.0
11369,51.0,0,144,2.0,70.0
11370,62.0,0,144,4.0,70.0
11371,62.0,0,144,5.0,70.0
11372,74.0,240,144,0.0,70.0
11373,50.0,0,144,2.0,70.0
11374,60.0,0,144,4.0,70.0
11375,60.0,0,144,5.0,70.0
11376,48.0,240,144,2.0,70.0
11377,72.0,0,144,0.0,70.0
11378,58.0,0,144,4.0,70.0
11379,46.0,0,144,2.0,70.0
11380,58.0,240,144,5.0,70.0
11381,70.0,0,144,0.0,70.0
11382,57.0,0,144,4.0,70.0
11383,69.0,240,144,0.0,70.0
11384,57.0,0,144,5.0,70.0
11385,45.0,0,144,2.0,70.0
11386,58.0,0,240,5.0,58.0
11387,55.0,0,384,4.0,58.0
11388,67.0,0,384,0.0,58.0
11389,43.0,240,384,2.0,58.0
11390,62.0,240,240,5.0,58.0
11391,58.0,240,240,5.0,58.0
11392,62.0,240,240,5.0,58.0
11393,58.0,240,240,5.0,58.0
11394,62.0,240,240,5.0,58.0
11395,75.0,240,240,1.0,80.0
11396,58.0,0,240,5.0,58.0
11397,74.0,240,192,1.0,80.0
11398,62.0,0,192,5.0,58.0
11399,60.0,240,240,5.0,58.0
11400,74.0,0,384,1.0,80.0
11401,62.0,240,240,5.0,58.0
11402,60.0,0,240,5.0,58.0
11403,75.0,240,240,1.0,80.0
11404,74.0,240,192,1.0,80.0
11405,62.0,0,240,5.0,58.0
11406,79.0,0,1920,4.0,70.0
11407,57.0,240,240,5.0,58.0
11408,78.0,0,384,4.0,70.0
11409,74.0,0,384,1.0,80.0
11410,62.0,240,240,5.0,58.0
11411,57.0,240,240,5.0,58.0
11412,63.0,0,240,2.0,58.0
11413,62.0,240,192,5.0,58.0
11414,62.0,0,192,2.0,80.0
11415,55.0,0,240,5.0,58.0
11416,62.0,240,384,2.0,80.0
11417,62.0,240,240,5.0,58.0
11418,63.0,240,240,2.0,80.0
11419,55.0,0,240,5.0,58.0
11420,62.0,240,192,2.0,80.0
11421,60.0,0,1920,7.0,58.0
11422,60.0,0,1920,6.0,58.0
11423,62.0,0,240,5.0,58.0
11424,48.0,0,1920,8.0,58.0
11425,55.0,240,240,5.0,58.0
11426,58.0,0,384,6.0,58.0
11427,62.0,0,384,2.0,80.0
11428,46.0,0,384,8.0,58.0
11429,58.0,0,384,7.0,58.0
11430,62.0,240,240,5.0,58.0
11431,58.0,0,240,5.0,58.0
11432,87.0,240,240,0.0,70.0
11433,75.0,0,240,1.0,80.0
11434,74.0,0,192,1.0,70.0
11435,62.0,240,192,5.0,58.0
11436,86.0,0,192,0.0,70.0
11437,60.0,0,240,5.0,58.0
11438,74.0,0,384,1.0,70.0
11439,86.0,240,384,0.0,70.0
11440,62.0,240,240,5.0,58.0
11441,60.0,0,240,5.0,58.0
11442,87.0,240,240,0.0,70.0
11443,75.0,0,240,1.0,70.0
11444,74.0,0,192,1.0,70.0
11445,86.0,240,192,0.0,70.0
11446,62.0,0,240,5.0,58.0
11447,67.0,0,1920,4.0,70.0
11448,57.0,240,240,5.0,58.0
11449,74.0,0,384,1.0,70.0
11450,66.0,0,384,4.0,70.0
11451,86.0,0,384,0.0,70.0
11452,62.0,240,240,5.0,58.0
11453,63.0,0,240,2.0,70.0
11454,51.0,240,240,2.0,80.0
11455,57.0,0,240,5.0,58.0
11456,62.0,0,192,2.0,70.0
11457,50.0,240,192,2.0,70.0
11458,62.0,0,192,5.0,58.0
11459,55.0,0,240,5.0,58.0
11460,62.0,0,384,2.0,70.0
11461,50.0,240,384,2.0,70.0
11462,62.0,240,240,5.0,58.0
11463,63.0,0,240,2.0,70.0
11464,55.0,240,240,5.0,58.0
11465,51.0,0,240,2.0,70.0
11466,50.0,0,192,2.0,70.0
11467,62.0,0,192,2.0,70.0
11468,60.0,0,1920,6.0,58.0
11469,36.0,0,1920,8.0,58.0
11470,48.0,0,1920,7.0,58.0
11471,62.0,240,240,5.0,58.0
11472,55.0,0,240,5.0,58.0
11473,50.0,0,384,2.0,70.0
11474,62.0,240,384,2.0,70.0
11475,46.0,0,384,7.0,58.0
11476,58.0,0,384,6.0,58.0
11477,34.0,0,384,8.0,58.0
11478,62.0,240,240,5.0,58.0
11479,80.0,0,240,4.0,116.0
11480,67.0,240,240,5.0,58.0
11481,79.0,0,192,4.0,116.0
11482,62.0,240,192,5.0,58.0
11483,55.0,0,192,6.0,105.0
11484,71.0,0,192,5.0,58.0
11485,65.0,0,192,5.0,105.0
11486,43.0,0,192,8.0,105.0
11487,55.0,0,192,2.0,105.0
11488,55.0,0,192,7.0,105.0
11489,79.0,0,384,4.0,116.0
11490,43.0,0,192,8.0,105.0
11491,55.0,240,192,6.0,105.0
11492,71.0,0,192,5.0,105.0
11493,55.0,0,192,7.0,105.0
11494,55.0,0,192,2.0,105.0
11495,65.0,0,192,5.0,105.0
11496,65.0,0,192,5.0,105.0
11497,55.0,0,192,6.0,105.0
11498,71.0,240,192,5.0,105.0
11499,43.0,0,192,8.0,105.0
11500,55.0,0,192,2.0,105.0
11501,55.0,0,192,7.0,105.0
11502,80.0,0,240,4.0,116.0
11503,65.0,0,192,5.0,105.0
11504,43.0,240,192,8.0,105.0
11505,71.0,0,192,5.0,105.0
11506,79.0,0,192,4.0,116.0
11507,55.0,0,192,6.0,105.0
11508,55.0,0,192,2.0,105.0
11509,55.0,0,192,7.0,105.0
11510,65.0,0,192,5.0,105.0
11511,43.0,240,192,8.0,105.0
11512,71.0,0,192,5.0,105.0
11513,55.0,0,192,2.0,105.0
11514,55.0,0,192,7.0,105.0
11515,55.0,0,192,6.0,105.0
11516,79.0,0,384,4.0,116.0
11517,65.0,0,192,5.0,105.0
11518,71.0,0,192,5.0,105.0
11519,55.0,240,192,6.0,105.0
11520,43.0,0,192,8.0,105.0
11521,55.0,0,192,2.0,105.0
11522,55.0,0,192,7.0,105.0
11523,89.0,0,1536,0.0,105.0
11524,65.0,0,1536,3.0,105.0
11525,67.0,0,1536,3.0,105.0
11526,79.0,0,1536,1.0,105.0
11527,83.0,240,1536,1.0,105.0
11528,71.0,240,192,5.0,105.0
11529,55.0,0,192,7.0,105.0
11530,55.0,0,192,2.0,105.0
11531,55.0,0,192,6.0,105.0
11532,65.0,0,192,5.0,105.0
11533,43.0,0,192,8.0,105.0
11534,80.0,0,240,4.0,116.0
11535,55.0,0,192,2.0,105.0
11536,79.0,0,192,4.0,116.0
11537,65.0,0,192,5.0,105.0
11538,55.0,240,192,6.0,105.0
11539,71.0,0,192,5.0,105.0
11540,55.0,0,192,7.0,105.0
11541,43.0,0,192,8.0,105.0
11542,60.0,0,192,6.0,105.0
11543,60.0,0,192,2.0,105.0
11544,60.0,0,192,7.0,105.0
11545,48.0,0,216,8.0,105.0
11546,60.0,0,192,6.0,105.0
11547,60.0,0,192,2.0,105.0
11548,60.0,240,192,7.0,105.0
11549,48.0,0,216,8.0,105.0
11550,60.0,240,192,6.0,105.0
11551,60.0,0,192,2.0,105.0
11552,60.0,0,192,7.0,105.0
11553,48.0,0,216,8.0,105.0
11554,72.0,0,768,5.0,105.0
11555,63.0,0,768,5.0,105.0
11556,79.0,0,768,4.0,116.0
11557,60.0,0,192,6.0,105.0
11558,60.0,240,192,7.0,105.0
11559,60.0,0,192,2.0,105.0
11560,48.0,0,216,8.0,105.0
11561,60.0,0,192,7.0,105.0
11562,60.0,240,192,6.0,105.0
11563,60.0,0,192,2.0,105.0
11564,48.0,0,216,8.0,105.0
11565,60.0,240,192,6.0,105.0
11566,60.0,0,192,2.0,105.0
11567,60.0,0,192,7.0,105.0
11568,48.0,0,216,8.0,105.0
11569,60.0,0,1536,3.0,105.0
11570,87.0,240,1536,0.0,105.0
11571,67.0,0,1536,3.0,105.0
11572,84.0,0,1536,1.0,105.0
11573,79.0,0,1536,1.0,105.0
11574,60.0,240,192,2.0,105.0
11575,60.0,0,192,6.0,105.0
11576,60.0,0,192,7.0,105.0
11577,48.0,0,216,8.0,105.0
11578,87.0,0,720,4.0,116.0
11579,79.0,0,720,5.0,105.0
11580,60.0,240,192,2.0,105.0
11581,60.0,0,192,6.0,105.0
11582,60.0,0,192,7.0,105.0
11583,84.0,0,192,4.0,116.0
11584,75.0,0,192,5.0,105.0
11585,48.0,0,216,8.0,105.0
11586,62.0,0,192,2.0,105.0
11587,50.0,240,192,8.0,105.0
11588,62.0,0,192,6.0,105.0
11589,62.0,0,192,7.0,105.0
11590,62.0,240,192,2.0,105.0
11591,62.0,0,192,7.0,105.0
11592,50.0,0,192,8.0,105.0
11593,62.0,0,192,6.0,105.0
11594,50.0,0,192,8.0,105.0
11595,62.0,240,192,2.0,105.0
11596,62.0,0,192,7.0,105.0
11597,62.0,0,192,6.0,105.0
11598,74.0,0,720,5.0,105.0
11599,82.0,0,720,4.0,116.0
11600,82.0,0,768,1.0,105.0
11601,86.0,0,768,0.0,105.0
11602,79.0,0,768,1.0,105.0
11603,62.0,0,768,3.0,105.0
11604,70.0,0,192,5.0,105.0
11605,62.0,240,192,7.0,105.0
11606,86.0,0,192,4.0,116.0
11607,62.0,0,192,2.0,105.0
11608,62.0,0,192,6.0,105.0
11609,50.0,0,192,8.0,105.0
11610,38.0,0,192,8.0,105.0
11611,50.0,0,192,2.0,105.0
11612,50.0,0,192,7.0,105.0
11613,50.0,0,192,6.0,105.0
11614,50.0,240,192,2.0,105.0
11615,50.0,0,192,6.0,105.0
11616,38.0,0,192,8.0,105.0
11617,50.0,0,192,7.0,105.0
11618,50.0,240,192,6.0,105.0
11619,38.0,0,192,8.0,105.0
11620,50.0,0,192,2.0,105.0
11621,50.0,0,192,7.0,105.0
11622,78.0,0,720,4.0,116.0
11623,69.0,240,720,5.0,105.0
11624,62.0,0,768,3.0,105.0
11625,72.0,0,768,1.0,105.0
11626,78.0,0,768,1.0,105.0
11627,81.0,0,768,0.0,105.0
11628,81.0,0,192,4.0,116.0
11629,50.0,0,192,6.0,105.0
11630,50.0,0,192,2.0,105.0
11631,50.0,240,192,7.0,105.0
11632,72.0,0,192,5.0,105.0
11633,38.0,0,192,8.0,105.0
11634,70.0,0,144,5.0,92.0
11635,62.0,0,384,3.0,92.0
11636,79.0,0,384,4.0,92.0
11637,79.0,0,384,0.0,92.0
11638,43.0,0,384,8.0,105.0
11639,79.0,0,384,1.0,92.0
11640,70.0,240,384,1.0,92.0
11641,55.0,0,384,6.0,105.0
11642,58.0,0,384,3.0,92.0
11643,55.0,0,384,7.0,105.0
11644,55.0,0,384,2.0,92.0
11645,62.0,240,240,5.0,70.0
11646,58.0,240,240,5.0,70.0
11647,62.0,240,240,5.0,70.0
11648,58.0,0,240,5.0,70.0
11649,62.0,240,240,5.0,70.0
11650,63.0,240,240,2.0,80.0
11651,58.0,0,240,5.0,70.0
11652,62.0,0,192,5.0,70.0
11653,62.0,240,192,2.0,80.0
11654,57.0,240,240,5.0,70.0
11655,62.0,0,384,2.0,80.0
11656,60.0,240,240,5.0,70.0
11657,63.0,240,240,2.0,80.0
11658,57.0,0,240,5.0,70.0
11659,62.0,240,192,2.0,80.0
11660,43.0,0,1920,8.0,58.0
11661,55.0,0,1920,7.0,58.0
11662,67.0,240,1920,6.0,58.0
11663,60.0,0,240,5.0,70.0
11664,57.0,0,240,5.0,70.0
11665,66.0,0,384,6.0,58.0
11666,54.0,0,384,7.0,58.0
11667,62.0,240,384,2.0,80.0
11668,42.0,0,384,8.0,58.0
11669,62.0,240,240,5.0,70.0
11670,75.0,240,240,1.0,92.0
11671,66.0,0,240,5.0,70.0
11672,74.0,0,192,1.0,80.0
11673,62.0,240,192,5.0,70.0
11674,67.0,0,240,5.0,70.0
11675,74.0,240,384,1.0,80.0
11676,62.0,240,240,5.0,70.0
11677,55.0,240,240,5.0,70.0
11678,75.0,0,240,1.0,80.0
11679,74.0,0,192,1.0,80.0
11680,62.0,240,240,5.0,70.0
11681,84.0,0,1920,4.0,70.0
11682,55.0,0,240,5.0,70.0
11683,74.0,0,384,1.0,80.0
11684,82.0,240,384,4.0,70.0
11685,62.0,240,240,5.0,70.0
11686,58.0,0,240,5.0,70.0
11687,63.0,240,240,2.0,80.0
11688,51.0,0,240,2.0,80.0
11689,50.0,0,192,2.0,80.0
11690,62.0,0,192,5.0,70.0
11691,62.0,240,192,2.0,80.0
11692,57.0,0,240,5.0,70.0
11693,50.0,0,384,2.0,80.0
11694,62.0,240,384,2.0,80.0
11695,60.0,240,240,5.0,70.0
11696,63.0,0,240,2.0,80.0
11697,57.0,240,240,5.0,70.0
11698,51.0,0,240,2.0,80.0
11699,62.0,240,192,2.0,80.0
11700,50.0,0,192,2.0,80.0
11701,55.0,0,1920,6.0,58.0
11702,31.0,0,1920,8.0,58.0
11703,60.0,0,240,5.0,70.0
11704,43.0,0,1920,7.0,58.0
11705,57.0,0,240,5.0,70.0
11706,30.0,0,384,8.0,58.0
11707,50.0,240,384,2.0,80.0
11708,62.0,0,384,2.0,80.0
11709,42.0,0,384,7.0,58.0
11710,54.0,0,384,6.0,58.0
11711,62.0,240,240,5.0,70.0
11712,87.0,0,240,0.0,92.0
11713,66.0,240,240,5.0,70.0
11714,75.0,0,240,1.0,70.0
11715,86.0,0,192,0.0,70.0
11716,74.0,0,192,1.0,70.0
11717,62.0,240,192,5.0,70.0
11718,67.0,240,240,5.0,70.0
11719,86.0,0,384,0.0,70.0
11720,74.0,0,384,1.0,70.0
11721,62.0,240,240,5.0,70.0
11722,75.0,0,240,1.0,70.0
11723,87.0,0,240,0.0,70.0
11724,55.0,240,240,5.0,70.0
11725,74.0,0,192,1.0,70.0
11726,86.0,0,192,0.0,70.0
11727,72.0,0,1920,4.0,58.0
11728,62.0,240,240,5.0,70.0
11729,55.0,0,240,5.0,70.0
11730,70.0,240,384,4.0,58.0
11731,74.0,0,384,1.0,70.0
11732,86.0,0,384,0.0,70.0
11733,62.0,240,240,5.0,70.0
11734,50.0,0,7296,3.0,58.0
11735,62.0,0,7296,3.0,58.0
11736,80.0,240,240,4.0,116.0
11737,67.0,0,240,5.0,70.0
11738,79.0,240,192,4.0,116.0
11739,62.0,0,192,5.0,70.0
11740,55.0,0,192,2.0,105.0
11741,65.0,0,192,5.0,105.0
11742,43.0,0,192,8.0,105.0
11743,55.0,0,192,6.0,105.0
11744,55.0,0,192,7.0,105.0
11745,71.0,0,192,5.0,105.0
11746,79.0,0,384,4.0,116.0
11747,55.0,0,192,6.0,105.0
11748,55.0,0,192,2.0,105.0
11749,43.0,0,192,8.0,105.0
11750,65.0,0,192,5.0,105.0
11751,55.0,0,192,7.0,105.0
11752,71.0,240,192,5.0,105.0
11753,65.0,0,192,5.0,105.0
11754,43.0,0,192,8.0,105.0
11755,71.0,240,192,5.0,105.0
11756,55.0,0,192,2.0,105.0
11757,55.0,0,192,7.0,105.0
11758,55.0,0,192,6.0,105.0
11759,80.0,0,240,4.0,116.0
11760,62.0,0,768,3.0,58.0
11761,55.0,0,768,3.0,58.0
11762,43.0,240,192,8.0,105.0
11763,55.0,0,192,7.0,105.0
11764,65.0,0,192,5.0,105.0
11765,71.0,0,192,5.0,105.0
11766,55.0,0,192,2.0,105.0
11767,79.0,0,192,4.0,116.0
11768,55.0,0,192,6.0,105.0
11769,43.0,0,192,8.0,105.0
11770,55.0,0,192,6.0,105.0
11771,55.0,240,192,7.0,105.0
11772,65.0,0,192,5.0,105.0
11773,71.0,0,192,5.0,105.0
11774,55.0,0,192,2.0,105.0
11775,79.0,0,384,4.0,116.0
11776,65.0,0,192,5.0,105.0
11777,71.0,240,192,5.0,105.0
11778,55.0,0,192,6.0,105.0
11779,55.0,0,192,7.0,105.0
11780,55.0,0,192,2.0,105.0
11781,43.0,0,192,8.0,105.0
11782,83.0,0,1536,1.0,105.0
11783,89.0,240,1536,0.0,105.0
11784,79.0,0,1536,1.0,105.0
11785,55.0,240,192,2.0,105.0
11786,71.0,0,192,5.0,105.0
11787,55.0,0,192,6.0,105.0
11788,43.0,0,192,8.0,105.0
11789,55.0,0,192,7.0,105.0
11790,65.0,0,192,5.0,105.0
11791,80.0,0,240,4.0,116.0
11792,62.0,0,768,3.0,105.0
11793,67.0,0,768,3.0,105.0
11794,55.0,0,192,2.0,105.0
11795,65.0,0,192,5.0,105.0
11796,71.0,0,192,5.0,105.0
11797,55.0,0,192,7.0,105.0
11798,55.0,0,192,6.0,105.0
11799,43.0,0,192,8.0,105.0
11800,79.0,240,192,4.0,116.0
11801,60.0,0,192,7.0,105.0
11802,60.0,0,192,6.0,105.0
11803,60.0,0,192,2.0,105.0
11804,48.0,0,216,8.0,105.0
11805,60.0,0,192,7.0,105.0
11806,60.0,0,192,2.0,105.0
11807,60.0,240,192,6.0,105.0
11808,48.0,0,216,8.0,105.0
11809,60.0,240,192,7.0,105.0
11810,60.0,0,192,2.0,105.0
11811,60.0,0,192,6.0,105.0
11812,48.0,0,216,8.0,105.0
11813,79.0,0,768,4.0,116.0
11814,63.0,0,768,5.0,105.0
11815,72.0,0,768,5.0,105.0
11816,60.0,240,192,7.0,105.0
11817,60.0,0,192,2.0,105.0
11818,60.0,0,192,6.0,105.0
11819,48.0,0,216,8.0,105.0
11820,60.0,0,192,2.0,105.0
11821,60.0,0,192,6.0,105.0
11822,60.0,0,192,7.0,105.0
11823,48.0,240,216,8.0,105.0
11824,60.0,0,192,6.0,105.0
11825,60.0,0,192,7.0,105.0
11826,60.0,240,192,2.0,105.0
11827,48.0,0,216,8.0,105.0
11828,67.0,0,1536,3.0,105.0
11829,63.0,0,1536,3.0,105.0
11830,87.0,0,1536,0.0,105.0
11831,84.0,240,1536,1.0,105.0
11832,79.0,0,1536,1.0,105.0
11833,60.0,0,192,2.0,105.0
11834,60.0,0,192,7.0,105.0
11835,60.0,240,192,6.0,105.0
11836,48.0,0,216,8.0,105.0
11837,79.0,0,720,5.0,105.0
11838,87.0,0,720,4.0,116.0
11839,84.0,0,192,4.0,116.0
11840,60.0,0,192,2.0,105.0
11841,75.0,0,192,5.0,105.0
11842,60.0,240,192,6.0,105.0
11843,60.0,0,192,7.0,105.0
11844,48.0,0,216,8.0,105.0
11845,62.0,0,192,2.0,105.0
11846,62.0,240,192,7.0,105.0
11847,50.0,0,192,8.0,105.0
11848,62.0,0,192,6.0,105.0
11849,62.0,0,192,6.0,105.0
11850,62.0,0,192,7.0,105.0
11851,62.0,240,192,2.0,105.0
11852,50.0,0,192,8.0,105.0
11853,62.0,0,192,6.0,105.0
11854,50.0,240,192,8.0,105.0
11855,62.0,0,192,2.0,105.0
11856,62.0,0,192,7.0,105.0
11857,74.0,0,720,5.0,105.0
11858,82.0,0,720,4.0,116.0
11859,62.0,0,768,3.0,105.0
11860,62.0,0,192,2.0,105.0
11861,70.0,0,192,5.0,105.0
11862,62.0,240,192,7.0,105.0
11863,50.0,0,192,8.0,105.0
11864,62.0,0,192,6.0,105.0
11865,79.0,0,192,4.0,116.0
11866,79.0,0,960,1.0,105.0
11867,82.0,0,960,1.0,105.0
11868,86.0,0,960,0.0,105.0
11869,50.0,0,192,6.0,105.0
11870,50.0,0,192,2.0,105.0
11871,50.0,0,192,7.0,105.0
11872,38.0,0,192,8.0,105.0
11873,50.0,0,192,2.0,105.0
11874,38.0,0,192,8.0,105.0
11875,50.0,240,192,6.0,105.0
11876,50.0,0,192,7.0,105.0
11877,50.0,0,192,6.0,105.0
11878,50.0,240,192,2.0,105.0
11879,50.0,0,192,7.0,105.0
11880,38.0,0,192,8.0,105.0
11881,86.0,0,720,4.0,116.0
11882,66.0,240,720,5.0,105.0
11883,81.0,0,768,0.0,105.0
11884,62.0,0,768,3.0,105.0
11885,78.0,0,768,1.0,105.0
11886,72.0,0,768,1.0,105.0
11887,50.0,0,192,6.0,105.0
11888,69.0,240,192,5.0,105.0
11889,50.0,0,192,2.0,105.0
11890,50.0,0,192,7.0,105.0
11891,78.0,0,192,4.0,116.0
11892,38.0,0,192,8.0,105.0
11893,79.0,0,192,4.0,116.0
11894,67.0,240,192,5.0,105.0
11895,58.0,0,384,3.0,105.0
11896,62.0,0,384,3.0,105.0
11897,74.0,240,192,4.0,116.0
11898,74.0,0,192,5.0,105.0
11899,82.0,240,192,5.0,105.0
11900,82.0,0,192,4.0,116.0
11901,55.0,0,768,6.0,105.0
11902,55.0,0,768,2.0,105.0
11903,79.0,0,768,0.0,105.0
11904,70.0,0,768,1.0,105.0
11905,55.0,0,768,7.0,105.0
11906,43.0,0,768,8.0,105.0
11907,79.0,0,768,1.0,105.0
11908,81.0,0,192,4.0,116.0
11909,81.0,240,192,5.0,105.0
11910,79.0,240,192,4.0,116.0
11911,79.0,0,192,5.0,105.0
11912,77.0,240,192,5.0,105.0
11913,77.0,0,192,4.0,116.0
11914,75.0,0,192,5.0,105.0
11915,75.0,240,192,4.0,116.0
11916,62.0,0,192,7.0,105.0
11917,74.0,240,192,4.0,116.0
11918,86.0,0,192,1.0,105.0
11919,50.0,0,192,8.0,105.0
11920,74.0,0,192,5.0,105.0
11921,74.0,0,192,1.0,105.0
11922,74.0,0,192,6.0,105.0
11923,86.0,0,192,0.0,105.0
11924,62.0,0,192,2.0,105.0
11925,60.0,0,192,7.0,105.0
11926,84.0,0,192,1.0,105.0
11927,72.0,240,192,1.0,105.0
11928,60.0,0,192,2.0,105.0
11929,48.0,0,192,8.0,105.0
11930,84.0,0,192,0.0,105.0
11931,72.0,0,192,4.0,116.0
11932,72.0,0,192,5.0,105.0
11933,72.0,0,192,6.0,105.0
11934,58.0,0,192,2.0,105.0
11935,46.0,0,192,8.0,105.0
11936,70.0,0,192,5.0,105.0
11937,82.0,0,192,1.0,105.0
11938,70.0,0,192,1.0,105.0
11939,82.0,0,192,0.0,105.0
11940,58.0,0,192,7.0,105.0
11941,70.0,240,192,6.0,105.0
11942,70.0,0,192,4.0,116.0
11943,69.0,0,192,6.0,105.0
11944,45.0,240,192,8.0,105.0
11945,81.0,0,192,1.0,105.0
11946,69.0,0,192,1.0,105.0
11947,57.0,0,192,7.0,105.0
11948,69.0,0,192,5.0,105.0
11949,69.0,0,192,4.0,116.0
11950,57.0,0,192,2.0,105.0
11951,81.0,0,192,0.0,105.0
11952,55.0,0,192,7.0,105.0
11953,55.0,0,192,2.0,105.0
11954,67.0,240,192,1.0,105.0
11955,79.0,0,192,0.0,105.0
11956,67.0,0,192,4.0,116.0
11957,67.0,0,192,6.0,105.0
11958,79.0,0,192,1.0,105.0
11959,43.0,0,192,8.0,105.0
11960,67.0,0,192,5.0,105.0
11961,54.0,0,192,7.0,105.0
11962,78.0,0,192,0.0,105.0
11963,66.0,0,192,4.0,116.0
11964,66.0,0,192,1.0,105.0
11965,78.0,0,192,1.0,105.0
11966,66.0,240,192,6.0,105.0
11967,66.0,0,192,5.0,105.0
11968,42.0,0,192,8.0,105.0
11969,54.0,0,192,2.0,105.0
11970,39.0,0,192,8.0,105.0
11971,63.0,0,192,1.0,105.0
11972,63.0,0,192,6.0,105.0
11973,75.0,0,192,0.0,105.0
11974,75.0,0,192,1.0,105.0
11975,63.0,0,192,4.0,116.0
11976,63.0,0,192,5.0,105.0
11977,51.0,240,192,7.0,105.0
11978,51.0,0,192,2.0,105.0
11979,50.0,0,192,7.0,105.0
11980,62.0,0,192,4.0,116.0
11981,62.0,0,192,6.0,105.0
11982,50.0,240,192,2.0,105.0
11983,74.0,0,192,0.0,105.0
11984,62.0,0,192,5.0,105.0
11985,74.0,0,192,1.0,105.0
11986,62.0,0,192,1.0,105.0
11987,38.0,0,192,8.0,105.0
11988,60.0,0,192,5.0,105.0
11989,36.0,0,192,8.0,105.0
11990,48.0,240,192,7.0,105.0
11991,60.0,0,192,1.0,105.0
11992,72.0,0,192,1.0,105.0
11993,60.0,0,192,4.0,116.0
11994,72.0,0,192,0.0,105.0
11995,60.0,0,192,6.0,105.0
11996,48.0,0,192,2.0,105.0
11997,46.0,0,312,7.0,105.0
11998,58.0,0,312,4.0,116.0
11999,70.0,0,312,1.0,105.0
12000,74.0,240,312,1.0,105.0
12001,34.0,0,312,8.0,105.0
12002,70.0,0,312,0.0,105.0
12003,58.0,0,312,6.0,105.0
12004,58.0,0,312,5.0,105.0
12005,46.0,0,312,2.0,105.0
12006,74.0,0,312,1.0,105.0
12007,58.0,0,312,6.0,125.0
12008,79.0,0,312,1.0,105.0
12009,67.0,0,312,5.0,125.0
12010,67.0,0,312,3.0,105.0
12011,34.0,0,312,8.0,105.0
12012,86.0,480,312,0.0,105.0
12013,74.0,0,312,4.0,127.0
12014,46.0,0,312,2.0,105.0
12015,46.0,0,312,7.0,105.0
12016,36.0,0,312,8.0,105.0
12017,48.0,0,312,7.0,105.0
12018,87.0,0,312,0.0,105.0
12019,79.0,0,312,1.0,105.0
12020,72.0,0,312,1.0,105.0
12021,60.0,0,312,6.0,125.0
12022,48.0,0,312,2.0,105.0
12023,67.0,480,312,5.0,125.0
12024,67.0,0,312,3.0,105.0
12025,75.0,0,312,4.0,127.0
12026,38.0,0,312,8.0,105.0
12027,78.0,0,312,0.0,105.0
12028,62.0,0,312,3.0,105.0
12029,60.0,0,312,3.0,105.0
12030,69.0,480,312,1.0,105.0
12031,50.0,0,312,7.0,105.0
12032,50.0,0,312,2.0,105.0
12033,62.0,0,312,6.0,125.0
12034,60.0,0,312,5.0,125.0
12035,66.0,0,312,4.0,127.0
12036,72.0,0,312,1.0,105.0
12037,55.0,0,192,7.0,105.0
12038,70.0,0,192,1.0,105.0
12039,67.0,0,192,1.0,105.0
12040,55.0,0,192,2.0,105.0
12041,43.0,0,192,8.0,105.0
12042,67.0,0,192,6.0,105.0
12043,67.0,0,192,4.0,116.0
12044,58.0,0,192,5.0,105.0
12045,58.0,0,384,3.0,105.0
12046,62.0,480,384,3.0,105.0
12047,79.0,0,384,0.0,105.0
12048,62.0,0,192,5.0,105.0
12049,50.0,0,192,2.0,105.0
12050,74.0,240,192,1.0,105.0
12051,62.0,0,192,6.0,105.0
12052,62.0,0,192,4.0,116.0
12053,38.0,0,192,8.0,105.0
12054,50.0,0,192,7.0,105.0
12055,46.0,0,192,8.0,105.0
12056,70.0,0,192,5.0,105.0
12057,58.0,0,192,7.0,105.0
12058,82.0,0,192,1.0,105.0
12059,58.0,240,192,2.0,105.0
12060,70.0,0,192,6.0,105.0
12061,70.0,0,192,4.0,116.0
12062,69.0,0,192,6.0,105.0
12063,69.0,240,192,5.0,105.0
12064,57.0,0,192,2.0,105.0
12065,57.0,0,192,7.0,105.0
12066,69.0,0,192,4.0,116.0
12067,45.0,0,192,8.0,105.0
12068,81.0,0,192,1.0,105.0
12069,67.0,0,192,4.0,116.0
12070,55.0,0,192,2.0,105.0
12071,43.0,0,192,8.0,105.0
12072,55.0,0,192,7.0,105.0
12073,67.0,0,192,6.0,105.0
12074,79.0,240,192,1.0,105.0
12075,67.0,0,192,5.0,105.0
12076,53.0,240,192,7.0,105.0
12077,65.0,0,192,6.0,105.0
12078,41.0,0,192,8.0,105.0
12079,65.0,0,192,5.0,105.0
12080,65.0,0,192,4.0,116.0
12081,77.0,0,192,1.0,105.0
12082,53.0,0,192,2.0,105.0
12083,51.0,0,192,2.0,105.0
12084,63.0,0,192,4.0,116.0
12085,63.0,0,192,6.0,105.0
12086,75.0,0,192,1.0,105.0
12087,51.0,0,192,7.0,105.0
12088,63.0,0,192,5.0,105.0
12089,39.0,240,192,8.0,105.0
12090,62.0,0,192,6.0,105.0
12091,62.0,0,192,4.0,116.0
12092,50.0,0,192,7.0,105.0
12093,50.0,240,192,2.0,105.0
12094,38.0,0,192,8.0,105.0
12095,62.0,0,192,5.0,105.0
12096,74.0,0,192,1.0,105.0
12097,73.0,0,192,1.0,105.0
12098,49.0,0,192,7.0,105.0
12099,37.0,0,192,8.0,105.0
12100,61.0,240,192,6.0,105.0
12101,49.0,0,192,2.0,105.0
12102,61.0,0,192,4.0,116.0
12103,61.0,0,192,5.0,105.0
12104,40.0,0,192,8.0,105.0
12105,64.0,0,192,4.0,116.0
12106,52.0,0,192,7.0,105.0
12107,52.0,0,192,2.0,105.0
12108,64.0,0,192,5.0,105.0
12109,76.0,240,192,1.0,105.0
12110,64.0,0,192,6.0,105.0
12111,69.0,0,192,6.0,105.0
12112,81.0,0,192,1.0,105.0
12113,57.0,0,192,2.0,105.0
12114,69.0,0,192,4.0,116.0
12115,45.0,0,192,8.0,105.0
12116,69.0,0,192,5.0,105.0
12117,57.0,240,192,7.0,105.0
12118,67.0,0,192,6.0,105.0
12119,55.0,0,192,2.0,105.0
12120,43.0,0,192,8.0,105.0
12121,67.0,0,192,4.0,116.0
12122,55.0,0,192,7.0,105.0
12123,91.0,0,192,0.0,105.0
12124,79.0,240,192,1.0,105.0
12125,67.0,0,192,5.0,105.0
12126,78.0,0,192,1.0,105.0
12127,54.0,0,192,7.0,105.0
12128,42.0,0,192,8.0,105.0
12129,66.0,0,192,6.0,105.0
12130,66.0,0,192,5.0,105.0
12131,66.0,0,192,4.0,116.0
12132,54.0,0,192,2.0,105.0
12133,90.0,240,192,0.0,105.0
12134,51.0,0,192,7.0,105.0
12135,75.0,0,192,1.0,105.0
12136,87.0,240,192,0.0,105.0
12137,63.0,0,192,6.0,105.0
12138,51.0,0,192,2.0,105.0
12139,39.0,0,192,8.0,105.0
12140,63.0,0,192,5.0,105.0
12141,63.0,0,192,4.0,116.0
12142,62.0,0,192,4.0,116.0
12143,62.0,240,192,5.0,105.0
12144,62.0,0,192,6.0,105.0
12145,50.0,0,192,7.0,105.0
12146,74.0,0,192,1.0,105.0
12147,38.0,0,192,8.0,105.0
12148,50.0,0,192,2.0,105.0
12149,86.0,0,192,0.0,105.0
12150,60.0,0,192,5.0,105.0
12151,72.0,0,192,1.0,105.0
12152,48.0,0,192,2.0,105.0
12153,36.0,0,192,8.0,105.0
12154,60.0,240,192,4.0,116.0
12155,48.0,0,192,7.0,105.0
12156,84.0,0,192,0.0,105.0
12157,60.0,0,192,6.0,105.0
12158,46.0,0,384,2.0,105.0
12159,82.0,0,384,0.0,105.0
12160,58.0,0,384,4.0,105.0
12161,70.0,0,384,1.0,105.0
12162,34.0,0,384,8.0,105.0
12163,58.0,0,384,6.0,105.0
12164,58.0,0,384,5.0,105.0
12165,46.0,240,384,7.0,105.0
12166,55.0,0,768,3.0,125.0
12167,79.0,0,96,4.0,116.0
12168,47.0,360,96,7.0,105.0
12169,67.0,0,96,5.0,105.0
12170,35.0,0,96,8.0,105.0
12171,55.0,0,768,2.0,105.0
12172,79.0,0,768,0.0,105.0
12173,67.0,0,768,1.0,92.0
12174,79.0,0,768,1.0,92.0
12175,55.0,0,768,6.0,105.0
12176,67.0,480,768,6.0,105.0
12177,35.0,0,384,8.0,105.0
12178,67.0,0,384,5.0,105.0
12179,79.0,0,384,4.0,116.0
12180,47.0,120,384,7.0,105.0
12181,55.0,0,768,3.0,125.0
12182,48.0,0,96,7.0,105.0
12183,68.0,360,96,5.0,105.0
12184,36.0,0,96,8.0,105.0
12185,80.0,0,96,4.0,116.0
12186,80.0,0,384,4.0,116.0
12187,56.0,0,864,2.0,105.0
12188,80.0,0,864,1.0,92.0
12189,48.0,0,384,7.0,105.0
12190,68.0,0,864,1.0,92.0
12191,36.0,0,384,8.0,105.0
12192,80.0,0,864,0.0,105.0
12193,67.0,0,864,6.0,105.0
12194,68.0,120,384,5.0,105.0
12195,55.0,480,864,6.0,105.0
12196,55.0,0,768,3.0,125.0
12197,81.0,0,96,4.0,116.0
12198,37.0,0,96,8.0,105.0
12199,69.0,360,96,5.0,105.0
12200,49.0,0,96,7.0,105.0
12201,67.0,0,768,6.0,105.0
12202,69.0,480,768,1.0,92.0
12203,55.0,0,768,6.0,105.0
12204,81.0,0,768,0.0,105.0
12205,81.0,0,768,1.0,92.0
12206,57.0,0,768,2.0,105.0
12207,81.0,0,384,4.0,116.0
12208,69.0,0,384,5.0,105.0
12209,49.0,0,384,7.0,105.0
12210,37.0,0,384,8.0,105.0
12211,55.0,120,768,3.0,125.0
12212,82.0,360,96,4.0,116.0
12213,38.0,0,96,8.0,105.0
12214,50.0,0,96,7.0,105.0
12215,38.0,120,384,8.0,105.0
12216,82.0,0,864,1.0,92.0
12217,70.0,0,864,1.0,92.0
12218,58.0,0,864,2.0,105.0
12219,82.0,0,864,0.0,105.0
12220,70.0,0,384,5.0,105.0
12221,82.0,0,384,4.0,116.0
12222,50.0,0,384,7.0,105.0
12223,55.0,0,864,6.0,105.0
12224,67.0,480,864,6.0,105.0
12225,55.0,0,768,3.0,125.0
12226,41.0,0,96,8.0,105.0
12227,83.0,0,96,4.0,116.0
12228,53.0,0,96,7.0,105.0
12229,71.0,360,96,5.0,105.0
12230,67.0,0,768,6.0,105.0
12231,55.0,0,768,6.0,105.0
12232,71.0,0,768,1.0,92.0
12233,83.0,0,768,1.0,92.0
12234,59.0,480,768,2.0,105.0
12235,83.0,0,768,0.0,105.0
12236,53.0,0,384,7.0,105.0
12237,71.0,0,384,5.0,105.0
12238,41.0,0,384,8.0,105.0
12239,83.0,0,384,4.0,116.0
12240,55.0,120,768,3.0,125.0
12241,84.0,360,96,4.0,116.0
12242,52.0,0,96,7.0,105.0
12243,72.0,0,96,5.0,105.0
12244,40.0,0,96,8.0,105.0
12245,52.0,120,384,7.0,105.0
12246,84.0,480,864,0.0,105.0
12247,84.0,0,384,4.0,116.0
12248,72.0,0,864,1.0,92.0
12249,67.0,0,864,6.0,105.0
12250,84.0,0,864,1.0,92.0
12251,72.0,0,384,5.0,105.0
12252,55.0,0,864,6.0,105.0
12253,40.0,0,384,8.0,105.0
12254,60.0,0,864,2.0,105.0
12255,55.0,0,768,3.0,125.0
12256,39.0,0,96,8.0,105.0
12257,73.0,360,96,5.0,105.0
12258,85.0,0,96,4.0,116.0
12259,51.0,0,96,7.0,105.0
12260,73.0,0,768,1.0,92.0
12261,85.0,0,768,1.0,92.0
12262,85.0,0,768,0.0,105.0
12263,61.0,0,768,2.0,105.0
12264,55.0,0,768,6.0,105.0
12265,67.0,480,768,6.0,105.0
12266,55.0,0,384,3.0,105.0
12267,73.0,0,384,5.0,105.0
12268,85.0,0,384,4.0,116.0
12269,39.0,120,384,8.0,105.0
12270,51.0,0,384,7.0,105.0
12271,70.0,840,96,1.0,70.0
12272,50.0,0,96,2.0,70.0
12273,62.0,0,96,2.0,70.0
12274,86.0,0,96,0.0,70.0
12275,79.0,0,96,1.0,70.0
12276,75.0,1440,240,5.0,70.0
12277,70.0,0,1824,1.0,58.0
12278,86.0,120,1824,0.0,58.0
12279,79.0,0,1824,1.0,58.0
12280,74.0,240,192,5.0,70.0
12281,74.0,0,384,5.0,70.0
12282,75.0,480,240,5.0,70.0
12283,74.0,240,192,5.0,70.0
12284,74.0,240,384,5.0,70.0
12285,75.0,480,240,5.0,70.0
12286,50.0,0,3744,2.0,58.0
12287,72.0,0,1824,1.0,58.0
12288,69.0,240,1824,1.0,58.0
12289,78.0,0,1824,0.0,58.0
12290,74.0,240,192,5.0,70.0
12291,70.0,0,384,1.0,58.0
12292,67.0,0,384,1.0,58.0
12293,55.0,0,384,2.0,58.0
12294,62.0,0,4224,2.0,58.0
12295,79.0,0,384,0.0,58.0
12296,62.0,0,4224,3.0,58.0
12297,67.0,0,384,3.0,58.0
12298,74.0,0,480,5.0,70.0
12299,31.0,240,960,8.0,58.0
12300,43.0,0,960,7.0,58.0
12301,79.0,480,960,5.0,70.0
12302,80.0,480,240,4.0,70.0
12303,35.0,480,768,8.0,58.0
12304,79.0,240,192,4.0,70.0
12305,47.0,0,960,7.0,58.0
12306,79.0,0,384,4.0,70.0
12307,77.0,0,960,5.0,70.0
12308,80.0,480,240,4.0,70.0
12309,79.0,240,192,4.0,70.0
12310,50.0,240,960,7.0,58.0
12311,38.0,0,960,8.0,58.0
12312,79.0,0,384,4.0,70.0
12313,75.0,0,960,5.0,58.0
12314,80.0,0,240,4.0,70.0
12315,47.0,240,768,7.0,58.0
12316,35.0,0,768,8.0,58.0
12317,74.0,480,384,5.0,58.0
12318,79.0,240,192,4.0,70.0
12319,79.0,0,480,4.0,70.0
12320,31.0,0,960,8.0,58.0
12321,43.0,240,960,7.0,58.0
12322,84.0,480,960,4.0,70.0
12323,65.0,0,240,6.0,70.0
12324,63.0,240,192,6.0,70.0
12325,48.0,480,960,7.0,58.0
12326,36.0,0,960,8.0,58.0
12327,63.0,0,384,6.0,70.0
12328,82.0,480,960,4.0,70.0
12329,65.0,480,240,6.0,70.0
12330,63.0,240,192,6.0,70.0
12331,39.0,240,960,8.0,58.0
12332,51.0,0,960,7.0,58.0
12333,63.0,0,384,6.0,70.0
12334,81.0,0,960,4.0,58.0
12335,65.0,0,240,6.0,70.0
12336,48.0,240,768,7.0,58.0
12337,36.0,0,768,8.0,58.0
12338,55.0,0,3744,3.0,58.0
12339,79.0,480,384,4.0,58.0
12340,63.0,240,192,6.0,70.0
12341,62.0,0,480,6.0,80.0
12342,43.0,0,960,7.0,58.0
12343,31.0,0,960,8.0,58.0
12344,74.0,480,960,6.0,80.0
12345,63.0,0,240,2.0,58.0
12346,75.0,0,240,1.0,70.0
12347,87.0,480,240,0.0,58.0
12348,86.0,0,192,0.0,70.0
12349,62.0,240,192,2.0,70.0
12350,74.0,0,192,1.0,70.0
12351,36.0,0,960,8.0,58.0
12352,48.0,480,960,7.0,58.0
12353,62.0,0,384,2.0,70.0
12354,74.0,0,384,1.0,70.0
12355,86.0,240,384,0.0,70.0
12356,72.0,0,960,6.0,80.0
12357,75.0,0,240,1.0,70.0
12358,87.0,0,240,0.0,70.0
12359,63.0,480,240,2.0,70.0
12360,62.0,240,192,2.0,70.0
12361,74.0,0,192,1.0,70.0
12362,86.0,0,192,0.0,70.0
12363,54.0,0,960,7.0,58.0
12364,42.0,0,960,8.0,58.0
12365,86.0,0,384,0.0,70.0
12366,62.0,0,384,2.0,70.0
12367,74.0,240,384,1.0,70.0
12368,70.0,0,960,6.0,80.0
12369,75.0,0,240,1.0,70.0
12370,87.0,480,240,0.0,70.0
12371,63.0,0,240,2.0,70.0
12372,48.0,0,768,7.0,58.0
12373,36.0,0,768,8.0,58.0
12374,69.0,0,384,6.0,80.0
12375,78.0,0,3744,4.0,58.0
12376,72.0,0,7584,5.0,58.0
12377,50.0,240,3744,3.0,58.0
12378,74.0,0,192,1.0,70.0
12379,62.0,0,192,2.0,70.0
12380,86.0,240,192,0.0,70.0
12381,79.0,0,168,4.0,116.0
12382,55.0,0,336,3.0,105.0
12383,70.0,0,336,5.0,105.0
12384,50.0,240,336,2.0,105.0
12385,86.0,0,336,0.0,105.0
12386,62.0,0,336,5.0,105.0
12387,74.0,0,336,1.0,105.0
12388,70.0,0,336,1.0,105.0
12389,62.0,0,336,3.0,105.0
12390,62.0,0,336,2.0,105.0
12391,43.0,0,384,7.0,105.0
12392,67.0,0,384,6.0,105.0
12393,31.0,0,384,8.0,105.0
12394,74.0,240,168,4.0,116.0
12395,58.0,0,168,2.0,105.0
12396,55.0,0,168,2.0,105.0
12397,86.0,0,168,0.0,105.0
12398,62.0,0,168,3.0,105.0
12399,62.0,0,168,5.0,105.0
12400,70.0,0,168,5.0,105.0
12401,79.0,0,168,1.0,105.0
12402,82.0,0,168,4.0,116.0
12403,82.0,240,168,1.0,105.0
12404,79.0,0,168,4.0,116.0
12405,70.0,240,168,5.0,105.0
12406,86.0,0,168,0.0,105.0
12407,82.0,0,168,1.0,105.0
12408,62.0,0,168,5.0,105.0
12409,79.0,0,168,1.0,105.0
12410,55.0,0,168,2.0,105.0
12411,58.0,0,168,2.0,105.0
12412,62.0,0,168,3.0,105.0
12413,78.0,0,168,4.0,116.0
12414,86.0,0,336,0.0,105.0
12415,57.0,0,336,2.0,105.0
12416,72.0,0,336,5.0,105.0
12417,62.0,0,336,5.0,105.0
12418,62.0,0,336,3.0,105.0
12419,50.0,0,336,3.0,105.0
12420,81.0,0,336,1.0,105.0
12421,78.0,0,336,1.0,105.0
12422,60.0,240,336,2.0,105.0
12423,62.0,0,384,6.0,105.0
12424,50.0,0,384,7.0,105.0
12425,38.0,0,384,8.0,105.0
12426,74.0,240,168,4.0,116.0
12427,78.0,0,168,1.0,105.0
12428,81.0,0,168,1.0,105.0
12429,62.0,0,168,5.0,105.0
12430,72.0,0,168,5.0,105.0
12431,62.0,240,168,3.0,105.0
12432,86.0,0,168,0.0,105.0
12433,57.0,0,168,2.0,105.0
12434,81.0,0,168,4.0,116.0
12435,60.0,0,168,2.0,105.0
12436,81.0,0,168,1.0,105.0
12437,78.0,0,168,1.0,105.0
12438,62.0,0,168,5.0,105.0
12439,60.0,0,168,2.0,105.0
12440,57.0,0,168,2.0,105.0
12441,86.0,0,168,0.0,105.0
12442,62.0,240,168,3.0,105.0
12443,72.0,0,168,5.0,105.0
12444,78.0,0,168,4.0,116.0
12445,79.0,0,168,4.0,116.0
12446,62.0,0,336,3.0,105.0
12447,55.0,0,336,2.0,105.0
12448,82.0,240,336,1.0,105.0
12449,79.0,0,336,1.0,105.0
12450,86.0,0,336,0.0,105.0
12451,58.0,0,336,2.0,105.0
12452,55.0,0,336,3.0,105.0
12453,70.0,0,336,5.0,105.0
12454,62.0,0,336,5.0,105.0
12455,43.0,0,384,8.0,105.0
12456,55.0,0,384,7.0,105.0
12457,67.0,0,384,6.0,105.0
12458,74.0,240,168,4.0,116.0
12459,86.0,0,168,0.0,105.0
12460,82.0,0,168,4.0,116.0
12461,70.0,0,168,5.0,105.0
12462,82.0,0,168,1.0,105.0
12463,79.0,0,168,1.0,105.0
12464,58.0,0,168,2.0,105.0
12465,55.0,0,168,2.0,105.0
12466,62.0,240,168,3.0,105.0
12467,62.0,0,168,5.0,105.0
12468,79.0,0,168,1.0,105.0
12469,82.0,0,168,1.0,105.0
12470,62.0,240,168,5.0,105.0
12471,55.0,0,168,2.0,105.0
12472,62.0,0,168,3.0,105.0
12473,58.0,0,168,2.0,105.0
12474,79.0,0,168,4.0,116.0
12475,86.0,0,168,0.0,105.0
12476,70.0,0,168,5.0,105.0
12477,78.0,0,168,4.0,116.0
12478,57.0,0,336,2.0,105.0
12479,72.0,0,336,5.0,105.0
12480,62.0,0,336,5.0,105.0
12481,50.0,0,336,3.0,105.0
12482,78.0,0,336,1.0,105.0
12483,81.0,0,336,1.0,105.0
12484,62.0,0,336,3.0,105.0
12485,60.0,0,336,2.0,105.0
12486,86.0,0,336,0.0,105.0
12487,38.0,0,384,8.0,105.0
12488,50.0,0,384,7.0,105.0
12489,62.0,240,384,6.0,105.0
12490,74.0,240,168,4.0,116.0
12491,78.0,0,168,1.0,105.0
12492,72.0,0,168,5.0,105.0
12493,62.0,240,168,5.0,105.0
12494,62.0,0,168,3.0,105.0
12495,57.0,0,168,2.0,105.0
12496,60.0,0,168,2.0,105.0
12497,81.0,0,168,4.0,116.0
12498,86.0,0,168,0.0,105.0
12499,81.0,0,168,1.0,105.0
12500,72.0,0,168,5.0,105.0
12501,60.0,0,168,2.0,105.0
12502,62.0,0,168,3.0,105.0
12503,62.0,0,168,5.0,105.0
12504,78.0,0,168,1.0,105.0
12505,78.0,0,168,4.0,116.0
12506,86.0,0,168,0.0,105.0
12507,81.0,240,168,1.0,105.0
12508,57.0,0,168,2.0,105.0
12509,79.0,0,168,4.0,116.0
12510,55.0,0,336,3.0,105.0
12511,62.0,0,336,5.0,105.0
12512,86.0,0,336,0.0,105.0
12513,79.0,0,336,1.0,105.0
12514,62.0,240,336,3.0,105.0
12515,70.0,0,336,5.0,105.0
12516,58.0,0,336,2.0,105.0
12517,55.0,0,336,2.0,105.0
12518,82.0,0,336,1.0,105.0
12519,43.0,0,384,8.0,105.0
12520,67.0,0,384,6.0,105.0
12521,55.0,0,384,7.0,105.0
12522,74.0,240,168,4.0,116.0
12523,62.0,0,168,3.0,105.0
12524,86.0,0,168,0.0,105.0
12525,62.0,0,168,5.0,105.0
12526,82.0,0,168,4.0,116.0
12527,82.0,0,168,1.0,105.0
12528,70.0,0,168,5.0,105.0
12529,58.0,0,168,2.0,105.0
12530,55.0,240,168,2.0,105.0
12531,79.0,0,168,1.0,105.0
12532,86.0,0,168,0.0,105.0
12533,58.0,0,168,2.0,105.0
12534,82.0,0,168,1.0,105.0
12535,79.0,0,168,1.0,105.0
12536,62.0,0,168,5.0,105.0
12537,70.0,240,168,5.0,105.0
12538,79.0,0,168,4.0,116.0
12539,62.0,0,168,3.0,105.0
12540,55.0,0,168,2.0,105.0
12541,78.0,0,168,4.0,116.0
12542,86.0,0,336,0.0,105.0
12543,78.0,0,336,1.0,105.0
12544,72.0,0,336,5.0,105.0
12545,62.0,0,336,5.0,105.0
12546,57.0,0,336,2.0,105.0
12547,62.0,0,336,3.0,105.0
12548,50.0,0,336,3.0,105.0
12549,81.0,0,336,1.0,105.0
12550,60.0,0,336,2.0,105.0
12551,38.0,0,384,8.0,105.0
12552,50.0,0,384,7.0,105.0
12553,62.0,240,384,6.0,105.0
12554,74.0,240,168,4.0,116.0
12555,86.0,0,168,0.0,105.0
12556,62.0,0,168,3.0,105.0
12557,62.0,0,168,5.0,105.0
12558,72.0,0,168,5.0,105.0
12559,60.0,0,168,2.0,105.0
12560,81.0,240,168,4.0,116.0
12561,57.0,0,168,2.0,105.0
12562,78.0,0,168,1.0,105.0
12563,81.0,0,168,1.0,105.0
12564,62.0,0,168,3.0,105.0
12565,72.0,0,168,5.0,105.0
12566,62.0,0,168,5.0,105.0
12567,78.0,240,168,1.0,105.0
12568,81.0,0,168,1.0,105.0
12569,78.0,0,168,4.0,116.0
12570,57.0,0,168,2.0,105.0
12571,86.0,0,168,0.0,105.0
12572,60.0,0,168,2.0,105.0
12573,79.0,0,168,4.0,116.0
12574,82.0,0,336,1.0,105.0
12575,62.0,0,336,3.0,105.0
12576,79.0,0,336,1.0,105.0
12577,55.0,0,336,3.0,105.0
12578,55.0,240,336,2.0,105.0
12579,43.0,0,336,8.0,105.0
12580,67.0,0,336,6.0,105.0
12581,55.0,0,336,7.0,105.0
12582,86.0,0,336,0.0,105.0
12583,70.0,0,336,5.0,105.0
12584,62.0,0,336,5.0,105.0
12585,58.0,0,336,2.0,105.0
12586,82.0,240,168,4.0,116.0
12587,81.0,0,168,4.0,116.0
12588,72.0,0,336,5.0,105.0
12589,66.0,0,336,2.0,105.0
12590,57.0,0,336,2.0,105.0
12591,90.0,0,336,0.0,105.0
12592,50.0,0,336,7.0,105.0
12593,50.0,0,336,3.0,105.0
12594,62.0,240,336,3.0,105.0
12595,62.0,0,336,5.0,105.0
12596,81.0,0,336,1.0,105.0
12597,38.0,0,336,8.0,105.0
12598,62.0,0,336,6.0,105.0
12599,84.0,0,336,1.0,105.0
12600,78.0,240,168,4.0,116.0
12601,79.0,0,168,4.0,116.0
12602,43.0,0,336,8.0,105.0
12603,67.0,240,336,6.0,105.0
12604,67.0,0,336,2.0,105.0
12605,58.0,0,336,2.0,105.0
12606,55.0,0,336,3.0,105.0
12607,91.0,0,336,0.0,105.0
12608,62.0,0,336,5.0,105.0
12609,55.0,0,336,7.0,105.0
12610,82.0,0,336,1.0,105.0
12611,70.0,0,336,5.0,105.0
12612,62.0,0,336,3.0,105.0
12613,79.0,0,336,1.0,105.0
12614,82.0,240,168,4.0,116.0
12615,81.0,0,168,4.0,116.0
12616,50.0,0,336,3.0,105.0
12617,62.0,0,336,3.0,105.0
12618,81.0,0,336,1.0,105.0
12619,84.0,0,336,1.0,105.0
12620,66.0,0,336,2.0,105.0
12621,57.0,0,336,2.0,105.0
12622,72.0,0,336,5.0,105.0
12623,50.0,0,336,7.0,105.0
12624,62.0,0,336,5.0,105.0
12625,62.0,0,336,6.0,105.0
12626,38.0,240,336,8.0,105.0
12627,90.0,0,336,0.0,105.0
12628,78.0,240,168,4.0,116.0
12629,67.0,0,384,2.0,105.0
12630,82.0,0,384,1.0,105.0
12631,79.0,0,384,1.0,105.0
12632,43.0,240,384,8.0,105.0
12633,91.0,0,384,0.0,105.0
12634,79.0,0,384,4.0,116.0
12635,70.0,0,384,5.0,105.0
12636,67.0,0,384,6.0,105.0
12637,62.0,0,384,5.0,105.0
12638,55.0,0,384,7.0,105.0
12639,62.0,0,384,3.0,105.0
12640,55.0,0,384,3.0,105.0
12641,58.0,0,384,2.0,105.0
12642,62.0,0,384,2.0,105.0
12643,55.0,0,384,6.0,105.0
12644,70.0,0,384,5.0,105.0
12645,79.0,0,384,5.0,105.0
12646,79.0,0,384,4.0,116.0
12647,70.0,0,384,4.0,116.0
12648,62.0,0,384,4.0,116.0
12649,91.0,0,384,0.0,105.0
12650,62.0,0,384,5.0,105.0
12651,43.0,0,384,7.0,105.0
12652,55.0,0,384,2.0,105.0
12653,82.0,1920,384,1.0,105.0
12654,79.0,0,384,1.0,105.0
12655,31.0,0,384,8.0,105.0
12656,55.0,0,384,3.0,105.0
12657,58.0,0,384,3.0,105.0
12658,67.0,0,384,5.0,105.0
12659,55.0,0,384,7.0,105.0
12660,55.0,0,384,2.0,105.0
12661,91.0,0,384,0.0,105.0
12662,62.0,0,384,2.0,105.0
12663,55.0,0,384,3.0,105.0
12664,43.0,0,384,8.0,105.0
12665,82.0,0,384,1.0,105.0
12666,79.0,0,384,1.0,105.0
12667,58.0,960,384,3.0,105.0
12668,67.0,0,384,6.0,105.0
12669,82.0,0,384,4.0,116.0
12670,74.0,0,384,4.0,116.0
12671,67.0,0,384,4.0,116.0
12672,74.0,0,384,5.0,105.0
12673,82.0,0,384,5.0,105.0
12674,31.0,0,960,8.0,105.0
12675,55.0,0,960,6.0,105.0
12676,58.0,0,960,3.0,105.0
12677,91.0,0,960,0.0,105.0
12678,82.0,0,960,1.0,105.0
12679,79.0,0,960,1.0,105.0
12680,55.0,0,960,5.0,105.0
12681,43.0,960,960,7.0,105.0
12682,55.0,0,960,3.0,105.0
12683,55.0,0,960,4.0,116.0
12684,43.0,0,960,2.0,105.0
12685,62.0,0,960,2.0,105.0
12686,19.0,2880,768,8.0,1.0
