,note,step,duration,channel,velocity
0,62.0,0,480,4.0,70.0
1,67.0,0,288,4.0,70.0
2,58.0,0,288,6.0,58.0
3,67.0,0,288,5.0,58.0
4,55.0,480,768,7.0,58.0
5,70.0,480,288,4.0,70.0
6,55.0,0,768,2.0,70.0
7,43.0,0,768,8.0,58.0
8,74.0,0,288,4.0,70.0
9,58.0,0,288,6.0,58.0
10,67.0,480,288,5.0,58.0
11,58.0,480,288,6.0,58.0
12,67.0,0,288,5.0,58.0
13,79.0,0,288,4.0,70.0
14,55.0,0,768,7.0,58.0
15,61.0,0,288,6.0,58.0
16,55.0,0,768,2.0,70.0
17,43.0,480,768,8.0,58.0
18,64.0,480,288,5.0,58.0
19,82.0,0,960,4.0,70.0
20,64.0,480,288,5.0,58.0
21,61.0,0,288,6.0,58.0
22,81.0,0,288,4.0,70.0
23,73.0,0,144,5.0,58.0
24,73.0,0,144,4.0,105.0
25,85.0,0,288,0.0,105.0
26,76.0,0,288,1.0,105.0
27,81.0,480,288,1.0,105.0
28,55.0,0,288,2.0,105.0
29,69.0,0,288,3.0,80.0
30,76.0,240,144,5.0,92.0
31,55.0,0,384,7.0,105.0
32,43.0,0,384,8.0,105.0
33,76.0,0,144,4.0,105.0
34,74.0,0,240,4.0,105.0
35,74.0,0,240,5.0,92.0
36,86.0,0,288,0.0,105.0
37,74.0,0,288,1.0,105.0
38,81.0,0,288,1.0,105.0
39,62.0,0,288,3.0,105.0
40,69.0,0,288,3.0,105.0
41,54.0,0,288,2.0,105.0
42,78.0,240,144,4.0,105.0
43,42.0,0,384,8.0,105.0
44,78.0,0,144,5.0,92.0
45,54.0,240,384,7.0,105.0
46,69.0,0,864,6.0,58.0
47,76.0,240,144,5.0,92.0
48,76.0,0,144,4.0,105.0
49,81.0,0,288,1.0,105.0
50,55.0,0,288,2.0,105.0
51,69.0,0,288,3.0,105.0
52,85.0,0,288,0.0,105.0
53,76.0,0,288,1.0,105.0
54,73.0,0,144,4.0,105.0
55,73.0,240,144,5.0,92.0
56,55.0,0,384,7.0,105.0
57,43.0,0,384,8.0,105.0
58,74.0,0,240,4.0,105.0
59,74.0,0,240,5.0,92.0
60,54.0,0,288,2.0,105.0
61,69.0,0,768,6.0,105.0
62,86.0,0,288,0.0,105.0
63,69.0,240,288,3.0,105.0
64,62.0,0,288,3.0,105.0
65,74.0,0,288,1.0,105.0
66,81.0,0,288,1.0,105.0
67,78.0,240,144,5.0,92.0
68,54.0,0,384,7.0,105.0
69,78.0,0,144,4.0,105.0
70,42.0,0,384,8.0,105.0
71,76.0,0,144,5.0,92.0
72,76.0,0,144,4.0,105.0
73,76.0,0,288,1.0,105.0
74,81.0,0,288,1.0,105.0
75,85.0,0,288,0.0,105.0
76,55.0,240,288,2.0,105.0
77,69.0,0,288,3.0,105.0
78,43.0,0,384,8.0,105.0
79,55.0,0,384,7.0,105.0
80,73.0,240,144,5.0,92.0
81,69.0,0,384,6.0,105.0
82,73.0,0,144,4.0,105.0
83,62.0,0,768,3.0,105.0
84,42.0,0,768,8.0,105.0
85,81.0,0,768,1.0,105.0
86,74.0,240,768,1.0,105.0
87,54.0,0,768,2.0,105.0
88,74.0,0,768,5.0,92.0
89,69.0,0,768,6.0,105.0
90,74.0,0,768,4.0,105.0
91,86.0,0,768,0.0,105.0
92,54.0,0,768,7.0,105.0
93,69.0,0,768,3.0,105.0
94,74.0,1440,480,4.0,70.0
95,75.0,480,288,4.0,70.0
96,48.0,0,768,2.0,70.0
97,78.0,0,288,4.0,70.0
98,63.0,0,288,5.0,58.0
99,48.0,0,768,7.0,58.0
100,60.0,480,288,6.0,58.0
101,36.0,0,768,8.0,58.0
102,63.0,0,288,5.0,58.0
103,81.0,480,288,4.0,70.0
104,60.0,0,288,6.0,58.0
105,63.0,0,288,5.0,58.0
106,60.0,0,288,6.0,58.0
107,84.0,480,288,4.0,70.0
108,38.0,480,768,8.0,58.0
109,50.0,0,768,7.0,58.0
110,66.0,480,288,5.0,58.0
111,60.0,0,288,6.0,58.0
112,50.0,0,768,2.0,70.0
113,87.0,0,960,4.0,70.0
114,60.0,480,288,6.0,58.0
115,86.0,0,288,4.0,70.0
116,66.0,0,288,5.0,58.0
117,69.0,0,144,5.0,105.0
118,78.0,0,144,4.0,105.0
119,72.0,0,288,3.0,105.0
120,86.0,0,288,0.0,105.0
121,78.0,0,288,1.0,105.0
122,62.0,0,288,3.0,105.0
123,38.0,0,288,8.0,105.0
124,84.0,480,288,1.0,105.0
125,50.0,0,288,2.0,105.0
126,50.0,0,288,7.0,105.0
127,81.0,0,144,4.0,105.0
128,72.0,240,144,5.0,105.0
129,79.0,0,240,4.0,105.0
130,70.0,0,240,5.0,105.0
131,86.0,0,288,0.0,105.0
132,43.0,0,288,8.0,105.0
133,55.0,0,288,2.0,105.0
134,70.0,0,288,3.0,105.0
135,62.0,0,288,3.0,105.0
136,55.0,0,288,7.0,105.0
137,82.0,240,288,1.0,105.0
138,79.0,0,288,1.0,105.0
139,62.0,0,768,6.0,105.0
140,74.0,0,144,5.0,105.0
141,82.0,240,144,4.0,105.0
142,72.0,0,144,5.0,105.0
143,81.0,0,144,4.0,105.0
144,78.0,0,288,1.0,105.0
145,84.0,0,288,1.0,105.0
146,38.0,0,288,8.0,105.0
147,50.0,240,288,7.0,105.0
148,72.0,0,288,3.0,105.0
149,86.0,0,288,0.0,105.0
150,62.0,0,288,3.0,105.0
151,50.0,0,288,2.0,105.0
152,69.0,0,144,5.0,105.0
153,78.0,240,144,4.0,105.0
154,62.0,0,576,6.0,105.0
155,79.0,0,240,4.0,105.0
156,70.0,0,240,5.0,105.0
157,55.0,0,288,2.0,105.0
158,70.0,0,288,3.0,105.0
159,86.0,240,288,0.0,105.0
160,55.0,0,288,7.0,105.0
161,82.0,0,288,1.0,105.0
162,79.0,0,288,1.0,105.0
163,62.0,0,288,3.0,105.0
164,43.0,0,288,8.0,105.0
165,82.0,0,144,4.0,105.0
166,74.0,240,144,5.0,105.0
167,72.0,0,144,5.0,105.0
168,81.0,0,144,4.0,105.0
169,62.0,0,288,3.0,105.0
170,86.0,0,288,0.0,105.0
171,50.0,240,288,2.0,105.0
172,72.0,0,288,3.0,105.0
173,78.0,0,288,1.0,105.0
174,38.0,0,288,8.0,105.0
175,62.0,0,288,6.0,105.0
176,84.0,0,288,1.0,105.0
177,50.0,0,288,7.0,105.0
178,69.0,0,144,5.0,105.0
179,78.0,240,144,4.0,105.0
180,62.0,0,768,3.0,105.0
181,70.0,0,768,3.0,105.0
182,79.0,0,768,1.0,105.0
183,55.0,0,768,7.0,105.0
184,62.0,0,768,6.0,105.0
185,82.0,0,768,1.0,105.0
186,43.0,240,768,8.0,105.0
187,79.0,0,768,4.0,105.0
188,70.0,0,768,5.0,105.0
189,86.0,0,768,0.0,105.0
190,55.0,0,768,2.0,105.0
191,62.0,1440,480,4.0,70.0
192,67.0,480,288,4.0,70.0
193,55.0,0,768,7.0,58.0
194,43.0,0,768,8.0,58.0
195,58.0,0,288,6.0,58.0
196,55.0,0,768,2.0,70.0
197,67.0,0,288,5.0,58.0
198,70.0,480,288,4.0,70.0
199,67.0,480,288,5.0,58.0
200,58.0,0,288,6.0,58.0
201,74.0,0,288,4.0,70.0
202,67.0,480,288,5.0,58.0
203,79.0,0,288,4.0,70.0
204,58.0,0,288,6.0,58.0
205,64.0,0,288,5.0,58.0
206,55.0,0,768,7.0,58.0
207,55.0,0,768,2.0,70.0
208,61.0,480,288,6.0,58.0
209,43.0,0,768,8.0,58.0
210,82.0,480,960,4.0,70.0
211,64.0,480,288,5.0,58.0
212,61.0,0,288,6.0,58.0
213,81.0,0,288,4.0,70.0
214,73.0,0,144,4.0,105.0
215,73.0,0,144,5.0,92.0
216,81.0,0,288,1.0,105.0
217,76.0,0,288,1.0,105.0
218,55.0,0,288,2.0,70.0
219,85.0,0,288,0.0,105.0
220,69.0,0,288,3.0,105.0
221,55.0,0,384,7.0,105.0
222,76.0,0,144,5.0,92.0
223,43.0,480,384,8.0,105.0
224,76.0,240,144,4.0,105.0
225,74.0,0,240,4.0,105.0
226,74.0,0,240,5.0,92.0
227,74.0,0,288,1.0,105.0
228,81.0,0,288,1.0,105.0
229,54.0,0,288,2.0,105.0
230,86.0,240,288,0.0,105.0
231,69.0,0,288,3.0,105.0
232,62.0,0,288,3.0,105.0
233,78.0,0,144,5.0,92.0
234,54.0,0,384,7.0,105.0
235,42.0,0,384,8.0,105.0
236,69.0,0,864,6.0,105.0
237,78.0,240,144,4.0,105.0
238,76.0,0,144,5.0,92.0
239,76.0,0,144,4.0,105.0
240,55.0,0,288,2.0,105.0
241,85.0,240,288,0.0,105.0
242,81.0,0,288,1.0,105.0
243,76.0,0,288,1.0,105.0
244,69.0,0,288,3.0,105.0
245,55.0,0,384,7.0,105.0
246,73.0,240,144,5.0,92.0
247,73.0,0,144,4.0,105.0
248,43.0,0,384,8.0,105.0
249,74.0,0,240,4.0,105.0
250,74.0,0,240,5.0,92.0
251,86.0,0,288,0.0,105.0
252,62.0,0,288,3.0,105.0
253,54.0,0,288,2.0,105.0
254,69.0,0,768,6.0,105.0
255,74.0,0,288,1.0,105.0
256,69.0,0,288,3.0,105.0
257,81.0,0,288,1.0,105.0
258,42.0,240,384,8.0,105.0
259,78.0,240,144,4.0,105.0
260,54.0,0,384,7.0,105.0
261,78.0,0,144,5.0,92.0
262,76.0,0,144,5.0,92.0
263,76.0,0,144,4.0,105.0
264,76.0,240,288,1.0,105.0
265,81.0,0,288,1.0,105.0
266,85.0,0,288,0.0,105.0
267,55.0,0,288,2.0,105.0
268,69.0,0,288,3.0,105.0
269,73.0,240,144,4.0,105.0
270,73.0,0,144,5.0,92.0
271,55.0,0,384,7.0,105.0
272,43.0,0,384,8.0,105.0
273,69.0,0,384,6.0,105.0
274,86.0,0,768,0.0,105.0
275,81.0,0,768,1.0,105.0
276,69.0,0,768,6.0,105.0
277,42.0,0,768,8.0,105.0
278,74.0,0,768,5.0,92.0
279,54.0,0,768,7.0,105.0
280,74.0,0,768,1.0,105.0
281,54.0,240,768,2.0,105.0
282,62.0,0,768,3.0,105.0
283,74.0,0,768,4.0,105.0
284,69.0,0,768,3.0,105.0
285,74.0,1440,480,4.0,70.0
286,75.0,0,288,4.0,70.0
287,78.0,0,288,4.0,70.0
288,60.0,0,288,6.0,58.0
289,48.0,480,768,2.0,70.0
290,63.0,480,288,5.0,58.0
291,36.0,0,768,8.0,58.0
292,48.0,0,768,7.0,58.0
293,60.0,0,288,6.0,58.0
294,81.0,480,288,4.0,70.0
295,63.0,0,288,5.0,58.0
296,60.0,0,288,6.0,58.0
297,63.0,0,288,5.0,58.0
298,84.0,480,288,4.0,70.0
299,38.0,0,768,8.0,58.0
300,60.0,0,288,6.0,58.0
301,50.0,0,768,2.0,70.0
302,66.0,480,288,5.0,58.0
303,50.0,0,768,7.0,58.0
304,87.0,480,960,4.0,70.0
305,60.0,0,288,6.0,58.0
306,66.0,0,288,5.0,58.0
307,86.0,480,288,4.0,70.0
308,69.0,0,144,5.0,105.0
309,78.0,0,144,4.0,105.0
310,62.0,0,288,3.0,105.0
311,38.0,0,288,8.0,105.0
312,72.0,0,288,3.0,105.0
313,78.0,0,288,1.0,105.0
314,84.0,0,288,1.0,105.0
315,50.0,0,288,2.0,105.0
316,50.0,0,288,7.0,105.0
317,86.0,480,288,0.0,105.0
318,72.0,0,144,5.0,105.0
319,81.0,240,144,4.0,105.0
320,70.0,0,240,5.0,105.0
321,79.0,0,240,4.0,105.0
322,43.0,0,288,8.0,105.0
323,62.0,0,288,3.0,105.0
324,70.0,0,288,3.0,105.0
325,55.0,240,288,7.0,105.0
326,86.0,0,288,0.0,105.0
327,82.0,0,288,1.0,105.0
328,79.0,0,288,1.0,105.0
329,62.0,0,768,6.0,105.0
330,55.0,0,288,2.0,105.0
331,74.0,240,144,5.0,105.0
332,82.0,0,144,4.0,105.0
333,72.0,0,144,5.0,105.0
334,81.0,0,144,4.0,105.0
335,38.0,0,288,8.0,105.0
336,72.0,0,288,3.0,105.0
337,50.0,0,288,2.0,105.0
338,62.0,0,288,3.0,105.0
339,86.0,0,288,0.0,105.0
340,50.0,240,288,7.0,105.0
341,78.0,0,288,1.0,105.0
342,84.0,0,288,1.0,105.0
343,69.0,0,144,5.0,105.0
344,78.0,240,144,4.0,105.0
345,62.0,0,576,6.0,105.0
346,70.0,240,240,5.0,105.0
347,79.0,0,240,4.0,105.0
348,62.0,0,288,3.0,105.0
349,55.0,0,288,7.0,105.0
350,79.0,0,288,1.0,105.0
351,55.0,0,288,2.0,105.0
352,70.0,0,288,3.0,105.0
353,86.0,0,288,0.0,105.0
354,82.0,0,288,1.0,105.0
355,43.0,0,288,8.0,105.0
356,74.0,240,144,5.0,105.0
357,82.0,0,144,4.0,105.0
358,81.0,0,144,4.0,105.0
359,72.0,0,144,5.0,105.0
360,38.0,0,288,8.0,105.0
361,50.0,0,288,2.0,105.0
362,50.0,0,288,7.0,105.0
363,84.0,0,288,1.0,105.0
364,72.0,0,288,3.0,105.0
365,86.0,0,288,0.0,105.0
366,62.0,0,288,3.0,105.0
367,62.0,0,288,6.0,105.0
368,78.0,240,288,1.0,105.0
369,69.0,240,144,5.0,105.0
370,78.0,0,144,4.0,105.0
371,70.0,0,768,3.0,105.0
372,55.0,240,768,2.0,105.0
373,62.0,0,768,3.0,105.0
374,82.0,0,768,1.0,105.0
375,86.0,0,768,0.0,105.0
376,43.0,0,768,8.0,105.0
377,70.0,0,768,5.0,105.0
378,79.0,0,768,4.0,105.0
379,79.0,0,768,1.0,105.0
380,55.0,0,768,7.0,105.0
381,62.0,0,768,6.0,105.0
382,62.0,0,288,1.0,105.0
383,86.0,0,288,4.0,105.0
384,74.0,0,288,1.0,105.0
385,38.0,0,288,8.0,105.0
386,62.0,0,288,6.0,105.0
387,50.0,0,288,2.0,105.0
388,62.0,0,288,2.0,105.0
389,50.0,1440,288,3.0,105.0
390,62.0,0,288,3.0,105.0
391,86.0,0,288,0.0,105.0
392,74.0,0,288,5.0,105.0
393,50.0,0,288,7.0,105.0
394,50.0,0,288,7.0,105.0
395,74.0,480,288,5.0,105.0
396,62.0,0,288,6.0,105.0
397,62.0,0,288,7.0,105.0
398,38.0,0,768,8.0,105.0
399,62.0,0,768,1.0,105.0
400,86.0,0,768,0.0,105.0
401,74.0,0,768,1.0,105.0
402,69.0,0,288,5.0,70.0
403,62.0,0,768,2.0,105.0
404,50.0,0,768,2.0,105.0
405,62.0,0,768,3.0,105.0
406,50.0,0,768,3.0,105.0
407,66.0,480,288,6.0,70.0
408,86.0,0,1152,4.0,105.0
409,66.0,0,288,6.0,70.0
410,62.0,0,288,7.0,70.0
411,69.0,480,288,5.0,70.0
412,66.0,0,288,6.0,70.0
413,69.0,480,288,5.0,70.0
414,62.0,0,288,7.0,70.0
415,74.0,0,288,4.0,105.0
416,77.0,0,60,4.0,70.0
417,75.0,60,60,4.0,70.0
418,77.0,60,60,4.0,70.0
419,75.0,60,60,4.0,70.0
420,77.0,60,60,4.0,70.0
421,75.0,60,60,4.0,70.0
422,77.0,60,60,4.0,70.0
423,75.0,60,60,4.0,70.0
424,70.0,0,480,5.0,70.0
425,67.0,0,480,6.0,70.0
426,74.0,60,264,4.0,70.0
427,66.0,0,288,6.0,58.0
428,69.0,0,288,5.0,70.0
429,62.0,480,1152,7.0,70.0
430,74.0,0,264,4.0,70.0
431,66.0,480,288,6.0,58.0
432,69.0,0,288,5.0,58.0
433,86.0,0,288,0.0,105.0
434,86.0,0,288,4.0,105.0
435,74.0,0,288,1.0,105.0
436,62.0,0,288,3.0,105.0
437,62.0,0,288,1.0,105.0
438,38.0,0,288,8.0,105.0
439,50.0,0,288,7.0,105.0
440,62.0,0,288,6.0,105.0
441,74.0,480,288,5.0,105.0
442,50.0,0,288,2.0,105.0
443,62.0,0,288,2.0,105.0
444,50.0,0,288,3.0,105.0
445,62.0,0,288,6.0,105.0
446,50.0,0,288,7.0,105.0
447,74.0,0,288,5.0,105.0
448,62.0,480,288,7.0,105.0
449,50.0,0,768,3.0,105.0
450,62.0,0,768,3.0,105.0
451,86.0,0,768,0.0,105.0
452,38.0,0,768,8.0,105.0
453,69.0,0,288,5.0,70.0
454,66.0,0,288,6.0,70.0
455,74.0,0,768,1.0,105.0
456,62.0,0,768,1.0,105.0
457,50.0,0,768,2.0,105.0
458,62.0,480,768,2.0,105.0
459,86.0,0,1152,4.0,105.0
460,69.0,0,288,5.0,70.0
461,66.0,0,288,6.0,70.0
462,62.0,480,288,7.0,70.0
463,69.0,480,288,5.0,70.0
464,66.0,0,288,6.0,70.0
465,62.0,0,288,7.0,70.0
466,74.0,0,384,4.0,105.0
467,77.0,0,60,4.0,70.0
468,75.0,60,60,4.0,70.0
469,77.0,60,60,4.0,70.0
470,75.0,60,60,4.0,70.0
471,77.0,60,60,4.0,70.0
472,75.0,60,60,4.0,70.0
473,77.0,60,60,4.0,70.0
474,67.0,0,480,6.0,70.0
475,70.0,480,480,5.0,70.0
476,75.0,60,60,4.0,70.0
477,74.0,0,264,4.0,70.0
478,69.0,0,288,5.0,58.0
479,66.0,60,288,6.0,58.0
480,62.0,0,1152,7.0,70.0
481,66.0,0,288,6.0,58.0
482,69.0,0,288,5.0,58.0
483,74.0,480,384,4.0,70.0
484,74.0,480,480,4.0,70.0
485,75.0,0,288,4.0,70.0
486,78.0,0,288,4.0,70.0
487,48.0,480,768,2.0,70.0
488,36.0,0,768,8.0,58.0
489,48.0,0,768,7.0,58.0
490,63.0,0,288,5.0,58.0
491,60.0,480,288,6.0,58.0
492,60.0,0,288,6.0,58.0
493,63.0,480,288,5.0,58.0
494,81.0,0,288,4.0,70.0
495,63.0,0,288,5.0,58.0
496,84.0,480,288,4.0,70.0
497,60.0,0,288,6.0,58.0
498,50.0,0,768,2.0,70.0
499,38.0,0,768,8.0,58.0
500,50.0,0,768,7.0,58.0
501,66.0,480,288,5.0,58.0
502,60.0,0,384,6.0,58.0
503,87.0,480,960,4.0,70.0
504,66.0,480,288,5.0,58.0
505,86.0,0,288,4.0,70.0
506,60.0,0,384,6.0,58.0
507,78.0,0,144,4.0,105.0
508,69.0,0,144,5.0,105.0
509,50.0,0,288,2.0,105.0
510,50.0,0,288,7.0,105.0
511,38.0,0,288,8.0,105.0
512,78.0,0,288,1.0,105.0
513,86.0,0,288,0.0,105.0
514,62.0,0,288,3.0,105.0
515,72.0,0,288,3.0,105.0
516,84.0,0,288,1.0,105.0
517,72.0,0,144,5.0,105.0
518,81.0,240,144,4.0,105.0
519,79.0,0,240,4.0,105.0
520,70.0,0,240,5.0,105.0
521,82.0,240,288,1.0,105.0
522,79.0,0,288,1.0,105.0
523,62.0,0,288,3.0,105.0
524,55.0,0,288,2.0,105.0
525,55.0,0,288,7.0,105.0
526,86.0,0,288,0.0,105.0
527,70.0,0,288,3.0,105.0
528,43.0,0,288,8.0,105.0
529,62.0,480,864,6.0,105.0
530,74.0,0,144,5.0,105.0
531,82.0,240,144,4.0,105.0
532,72.0,240,144,5.0,105.0
533,81.0,0,144,4.0,105.0
534,84.0,0,288,1.0,105.0
535,78.0,0,288,1.0,105.0
536,62.0,0,288,3.0,105.0
537,38.0,0,288,8.0,105.0
538,50.0,0,288,7.0,105.0
539,72.0,0,288,3.0,105.0
540,86.0,0,288,0.0,105.0
541,50.0,0,288,2.0,105.0
542,69.0,0,144,5.0,105.0
543,78.0,240,144,4.0,105.0
544,79.0,0,240,4.0,105.0
545,70.0,0,240,5.0,105.0
546,82.0,0,288,1.0,105.0
547,55.0,0,288,7.0,105.0
548,79.0,0,288,1.0,105.0
549,62.0,0,288,3.0,105.0
550,62.0,0,768,6.0,105.0
551,70.0,0,288,3.0,105.0
552,55.0,240,288,2.0,105.0
553,86.0,0,288,0.0,105.0
554,43.0,0,288,8.0,105.0
555,82.0,0,144,4.0,105.0
556,74.0,240,144,5.0,105.0
557,72.0,0,144,5.0,105.0
558,81.0,0,144,4.0,105.0
559,72.0,0,288,3.0,105.0
560,62.0,0,288,3.0,105.0
561,78.0,0,288,1.0,105.0
562,38.0,0,288,8.0,105.0
563,84.0,0,288,1.0,105.0
564,50.0,0,288,2.0,105.0
565,50.0,240,288,7.0,105.0
566,86.0,0,288,0.0,105.0
567,62.0,0,384,6.0,105.0
568,69.0,240,144,5.0,105.0
569,78.0,0,144,4.0,105.0
570,55.0,240,768,7.0,105.0
571,55.0,0,768,2.0,105.0
572,70.0,0,768,3.0,105.0
573,62.0,0,768,3.0,105.0
574,79.0,0,768,4.0,105.0
575,70.0,0,768,5.0,105.0
576,82.0,0,768,1.0,105.0
577,79.0,0,768,1.0,105.0
578,86.0,0,768,0.0,105.0
579,62.0,0,768,6.0,105.0
580,43.0,0,768,8.0,105.0
581,74.0,0,288,1.0,105.0
582,74.0,0,288,5.0,105.0
583,62.0,0,288,6.0,105.0
584,86.0,0,288,4.0,105.0
585,62.0,0,288,3.0,105.0
586,38.0,0,288,8.0,105.0
587,86.0,1440,288,0.0,105.0
588,50.0,0,288,2.0,105.0
589,50.0,0,288,7.0,105.0
590,50.0,0,288,3.0,105.0
591,62.0,0,288,1.0,105.0
592,50.0,0,288,7.0,105.0
593,74.0,0,288,5.0,105.0
594,62.0,0,288,6.0,105.0
595,62.0,0,768,2.0,105.0
596,62.0,0,768,3.0,105.0
597,50.0,0,768,3.0,105.0
598,74.0,480,768,1.0,105.0
599,38.0,0,768,8.0,105.0
600,62.0,0,768,1.0,105.0
601,66.0,0,288,6.0,70.0
602,62.0,480,288,7.0,70.0
603,50.0,0,768,2.0,105.0
604,86.0,0,768,0.0,105.0
605,69.0,0,288,5.0,70.0
606,86.0,0,1152,4.0,105.0
607,62.0,0,288,7.0,70.0
608,66.0,480,288,6.0,70.0
609,69.0,0,288,5.0,70.0
610,74.0,480,288,4.0,105.0
611,66.0,0,288,6.0,70.0
612,69.0,0,288,5.0,70.0
613,62.0,0,288,7.0,70.0
614,77.0,0,60,4.0,70.0
615,75.0,60,60,4.0,70.0
616,77.0,60,60,4.0,70.0
617,75.0,60,60,4.0,70.0
618,77.0,60,60,4.0,70.0
619,75.0,60,60,4.0,70.0
620,77.0,60,60,4.0,70.0
621,70.0,0,480,5.0,70.0
622,75.0,60,60,4.0,70.0
623,67.0,0,480,6.0,70.0
624,74.0,0,264,4.0,70.0
625,69.0,60,288,5.0,58.0
626,66.0,0,288,6.0,70.0
627,62.0,480,1152,7.0,70.0
628,74.0,0,264,4.0,70.0
629,66.0,0,288,6.0,58.0
630,69.0,480,288,5.0,58.0
631,62.0,0,288,1.0,105.0
632,62.0,0,288,6.0,105.0
633,50.0,0,288,3.0,105.0
634,62.0,0,288,3.0,105.0
635,74.0,0,288,1.0,105.0
636,50.0,0,288,7.0,105.0
637,38.0,0,288,8.0,105.0
638,74.0,0,288,5.0,105.0
639,86.0,0,288,0.0,105.0
640,86.0,0,288,4.0,105.0
641,62.0,0,288,2.0,105.0
642,50.0,480,288,2.0,105.0
643,74.0,0,288,5.0,105.0
644,62.0,0,288,6.0,105.0
645,50.0,0,288,7.0,105.0
646,62.0,480,288,7.0,70.0
647,38.0,0,768,8.0,105.0
648,62.0,0,768,2.0,105.0
649,50.0,480,768,2.0,105.0
650,50.0,0,768,3.0,105.0
651,74.0,0,768,1.0,105.0
652,69.0,0,288,5.0,70.0
653,62.0,0,768,1.0,105.0
654,86.0,0,768,0.0,105.0
655,62.0,0,768,3.0,105.0
656,66.0,0,288,6.0,70.0
657,86.0,0,1152,4.0,105.0
658,66.0,0,288,6.0,70.0
659,69.0,0,288,5.0,70.0
660,62.0,480,288,7.0,70.0
661,66.0,480,288,6.0,70.0
662,62.0,0,288,7.0,70.0
663,69.0,0,288,5.0,70.0
664,74.0,0,384,4.0,105.0
665,77.0,0,60,4.0,70.0
666,75.0,60,60,4.0,70.0
667,77.0,60,60,4.0,70.0
668,75.0,60,60,4.0,70.0
669,77.0,60,60,4.0,70.0
670,75.0,60,60,4.0,70.0
671,77.0,60,60,4.0,70.0
672,75.0,60,60,4.0,70.0
673,67.0,480,480,6.0,70.0
674,70.0,0,480,5.0,70.0
675,74.0,0,264,4.0,70.0
676,66.0,0,288,6.0,58.0
677,69.0,60,288,5.0,70.0
678,62.0,0,1152,7.0,70.0
679,66.0,480,288,6.0,58.0
680,69.0,0,288,5.0,58.0
681,74.0,0,384,4.0,70.0
682,74.0,480,480,4.0,70.0
683,75.0,0,288,4.0,70.0
684,60.0,0,288,6.0,58.0
685,63.0,480,288,5.0,58.0
686,48.0,0,768,2.0,70.0
687,36.0,480,768,8.0,58.0
688,78.0,0,288,4.0,70.0
689,48.0,0,768,7.0,58.0
690,81.0,0,288,4.0,70.0
691,60.0,480,288,6.0,58.0
692,63.0,0,288,5.0,58.0
693,84.0,480,288,4.0,70.0
694,60.0,0,288,6.0,58.0
695,63.0,0,288,5.0,58.0
696,50.0,0,768,2.0,70.0
697,66.0,0,288,5.0,58.0
698,50.0,0,768,7.0,58.0
699,38.0,480,768,8.0,58.0
700,60.0,480,384,6.0,58.0
701,87.0,0,960,4.0,70.0
702,66.0,480,288,5.0,58.0
703,86.0,0,288,4.0,70.0
704,60.0,0,384,6.0,58.0
705,78.0,0,144,4.0,116.0
706,69.0,480,144,5.0,116.0
707,38.0,0,288,8.0,105.0
708,86.0,0,288,0.0,105.0
709,50.0,0,288,2.0,105.0
710,72.0,0,288,3.0,105.0
711,62.0,0,288,3.0,105.0
712,84.0,0,288,1.0,105.0
713,50.0,0,288,7.0,105.0
714,78.0,0,288,1.0,105.0
715,72.0,240,144,5.0,116.0
716,81.0,0,144,4.0,116.0
717,79.0,0,240,4.0,116.0
718,70.0,0,240,5.0,116.0
719,43.0,0,288,8.0,105.0
720,55.0,0,288,7.0,105.0
721,62.0,0,288,3.0,105.0
722,70.0,0,288,3.0,105.0
723,86.0,0,288,0.0,105.0
724,55.0,0,288,2.0,105.0
725,79.0,0,288,1.0,105.0
726,82.0,240,288,1.0,105.0
727,74.0,240,144,5.0,116.0
728,62.0,0,864,6.0,105.0
729,82.0,0,144,4.0,116.0
730,72.0,0,144,5.0,116.0
731,81.0,0,144,4.0,116.0
732,50.0,0,288,2.0,105.0
733,86.0,240,288,0.0,105.0
734,84.0,0,288,1.0,105.0
735,38.0,0,288,8.0,105.0
736,50.0,0,288,7.0,105.0
737,62.0,0,288,3.0,105.0
738,72.0,0,288,3.0,105.0
739,78.0,0,288,1.0,105.0
740,78.0,240,144,4.0,116.0
741,69.0,0,144,5.0,116.0
742,70.0,0,240,5.0,116.0
743,79.0,0,240,4.0,116.0
744,55.0,240,288,7.0,105.0
745,62.0,0,768,6.0,105.0
746,43.0,0,288,8.0,105.0
747,82.0,0,288,1.0,105.0
748,55.0,0,288,2.0,105.0
749,79.0,0,288,1.0,105.0
750,86.0,0,288,0.0,105.0
751,62.0,0,288,3.0,105.0
752,70.0,0,288,3.0,105.0
753,82.0,240,144,4.0,116.0
754,74.0,0,144,5.0,116.0
755,81.0,240,144,4.0,116.0
756,72.0,0,144,5.0,116.0
757,72.0,0,288,3.0,105.0
758,78.0,0,288,1.0,105.0
759,84.0,0,288,1.0,105.0
760,86.0,0,288,0.0,105.0
761,50.0,0,288,7.0,105.0
762,50.0,0,288,2.0,105.0
763,62.0,0,288,3.0,105.0
764,38.0,0,288,8.0,105.0
765,62.0,0,384,6.0,105.0
766,69.0,0,144,5.0,116.0
767,78.0,240,144,4.0,116.0
768,79.0,0,192,4.0,116.0
769,70.0,0,384,5.0,116.0
770,74.0,240,192,4.0,116.0
771,82.0,0,192,5.0,105.0
772,82.0,240,192,4.0,105.0
773,79.0,0,768,1.0,105.0
774,82.0,0,768,1.0,105.0
775,86.0,0,768,0.0,105.0
776,55.0,240,768,2.0,105.0
777,62.0,0,768,3.0,105.0
778,62.0,0,768,6.0,105.0
779,70.0,0,768,3.0,105.0
780,55.0,0,768,7.0,105.0
781,43.0,0,768,8.0,105.0
782,81.0,0,192,4.0,105.0
783,81.0,240,192,5.0,105.0
784,79.0,240,192,4.0,105.0
785,79.0,0,192,5.0,105.0
786,77.0,240,192,5.0,105.0
787,77.0,0,192,4.0,105.0
788,75.0,0,192,4.0,105.0
789,75.0,240,192,5.0,105.0
790,74.0,0,192,5.0,105.0
791,74.0,240,192,4.0,105.0
792,72.0,0,240,4.0,105.0
793,72.0,0,240,5.0,105.0
794,51.0,0,288,2.0,105.0
795,72.0,0,288,3.0,105.0
796,67.0,0,288,3.0,105.0
797,39.0,0,288,8.0,105.0
798,51.0,0,288,7.0,105.0
799,84.0,0,288,0.0,105.0
800,67.0,0,288,6.0,105.0
801,79.0,0,288,1.0,105.0
802,75.0,240,288,1.0,105.0
803,75.0,0,144,4.0,105.0
804,75.0,240,144,5.0,105.0
805,74.0,0,144,5.0,105.0
806,74.0,0,144,4.0,105.0
807,83.0,0,288,0.0,105.0
808,41.0,0,288,8.0,105.0
809,53.0,0,288,7.0,105.0
810,65.0,0,288,3.0,105.0
811,74.0,0,288,3.0,105.0
812,53.0,0,288,2.0,105.0
813,74.0,0,288,1.0,105.0
814,80.0,240,288,1.0,105.0
815,68.0,0,288,6.0,105.0
816,71.0,0,144,5.0,105.0
817,71.0,240,144,4.0,105.0
818,72.0,240,240,4.0,105.0
819,72.0,0,240,5.0,105.0
820,75.0,0,288,1.0,105.0
821,84.0,0,288,0.0,105.0
822,67.0,0,288,6.0,105.0
823,39.0,0,288,8.0,105.0
824,51.0,0,288,7.0,105.0
825,51.0,0,288,2.0,105.0
826,79.0,0,288,1.0,105.0
827,72.0,0,288,3.0,105.0
828,75.0,0,144,4.0,105.0
829,75.0,240,144,5.0,105.0
830,74.0,0,144,5.0,105.0
831,74.0,0,144,4.0,105.0
832,74.0,0,288,3.0,105.0
833,74.0,0,288,1.0,105.0
834,80.0,0,288,1.0,105.0
835,41.0,0,288,8.0,105.0
836,53.0,240,288,7.0,105.0
837,68.0,0,288,6.0,105.0
838,65.0,0,288,3.0,105.0
839,83.0,0,288,0.0,105.0
840,53.0,0,288,2.0,105.0
841,71.0,240,144,4.0,105.0
842,71.0,0,144,5.0,105.0
843,72.0,0,192,4.0,105.0
844,72.0,0,192,5.0,105.0
845,67.0,240,192,4.0,105.0
846,67.0,0,192,5.0,105.0
847,75.0,0,192,4.0,105.0
848,75.0,240,192,5.0,105.0
849,51.0,0,768,2.0,105.0
850,79.0,0,768,1.0,105.0
851,67.0,0,768,6.0,105.0
852,51.0,0,768,7.0,105.0
853,72.0,0,768,3.0,105.0
854,84.0,240,768,0.0,105.0
855,39.0,0,768,8.0,105.0
856,75.0,0,768,1.0,105.0
857,67.0,0,768,3.0,105.0
858,74.0,0,192,5.0,105.0
859,74.0,240,192,4.0,105.0
860,72.0,240,192,4.0,105.0
861,72.0,0,192,5.0,105.0
862,70.0,240,192,4.0,105.0
863,70.0,0,192,5.0,105.0
864,69.0,240,192,4.0,105.0
865,69.0,0,192,5.0,105.0
866,67.0,240,192,4.0,105.0
867,67.0,0,192,5.0,105.0
868,66.0,0,240,4.0,105.0
869,66.0,0,240,5.0,105.0
870,69.0,0,288,3.0,105.0
871,62.0,0,288,3.0,105.0
872,81.0,0,288,0.0,105.0
873,74.0,0,288,1.0,105.0
874,57.0,0,288,6.0,105.0
875,38.0,0,288,8.0,105.0
876,50.0,0,288,2.0,105.0
877,78.0,240,288,1.0,105.0
878,50.0,0,288,7.0,105.0
879,69.0,240,144,5.0,105.0
880,69.0,0,144,4.0,105.0
881,67.0,0,144,4.0,105.0
882,67.0,0,144,5.0,105.0
883,76.0,0,288,1.0,105.0
884,79.0,0,288,1.0,105.0
885,49.0,0,288,7.0,105.0
886,37.0,240,288,8.0,105.0
887,49.0,0,288,2.0,105.0
888,69.0,0,288,3.0,105.0
889,64.0,240,144,5.0,105.0
890,64.0,0,144,4.0,105.0
891,66.0,0,240,5.0,105.0
892,66.0,0,240,4.0,105.0
893,50.0,0,288,2.0,105.0
894,62.0,240,288,3.0,105.0
895,50.0,0,288,7.0,105.0
896,69.0,0,288,3.0,105.0
897,74.0,0,288,1.0,105.0
898,78.0,0,288,1.0,105.0
899,38.0,0,288,8.0,105.0
900,57.0,0,864,6.0,105.0
901,69.0,240,144,4.0,105.0
902,81.0,0,864,0.0,105.0
903,69.0,0,144,5.0,105.0
904,67.0,0,144,5.0,105.0
905,67.0,0,144,4.0,105.0
906,49.0,0,288,2.0,105.0
907,76.0,0,288,1.0,105.0
908,79.0,0,288,1.0,105.0
909,69.0,0,288,3.0,105.0
910,49.0,240,288,7.0,105.0
911,37.0,0,288,8.0,105.0
912,81.0,0,288,0.0,105.0
913,57.0,0,288,6.0,105.0
914,64.0,0,144,4.0,105.0
915,64.0,240,144,5.0,105.0
916,66.0,0,192,5.0,105.0
917,66.0,0,192,4.0,105.0
918,62.0,0,192,5.0,105.0
919,62.0,240,192,4.0,105.0
920,69.0,0,192,5.0,105.0
921,69.0,240,192,4.0,105.0
922,62.0,0,768,3.0,105.0
923,69.0,0,768,3.0,105.0
924,57.0,0,768,6.0,105.0
925,50.0,0,768,2.0,105.0
926,78.0,0,768,1.0,105.0
927,74.0,0,768,1.0,105.0
928,50.0,0,768,7.0,105.0
929,38.0,240,768,8.0,105.0
930,81.0,0,768,0.0,105.0
931,67.0,0,192,4.0,105.0
932,67.0,240,192,5.0,105.0
933,66.0,0,192,4.0,105.0
934,66.0,240,192,5.0,105.0
935,63.0,0,192,5.0,105.0
936,63.0,240,192,4.0,105.0
937,62.0,0,192,4.0,105.0
938,62.0,0,192,5.0,105.0
939,30.0,0,384,8.0,105.0
940,57.0,0,384,6.0,105.0
941,42.0,240,384,2.0,105.0
942,42.0,0,384,7.0,105.0
943,60.0,240,192,4.0,105.0
944,60.0,0,192,5.0,105.0
945,58.0,0,192,5.0,105.0
946,58.0,0,192,4.0,105.0
947,62.0,240,192,5.0,105.0
948,62.0,0,192,4.0,105.0
949,67.0,240,192,5.0,105.0
950,67.0,0,192,4.0,105.0
951,43.0,0,768,7.0,105.0
952,50.0,0,768,6.0,105.0
953,31.0,0,768,8.0,105.0
954,43.0,0,768,2.0,105.0
955,70.0,0,192,4.0,105.0
956,70.0,240,192,5.0,105.0
957,74.0,240,192,5.0,105.0
958,74.0,0,192,4.0,105.0
959,74.0,0,192,5.0,105.0
960,74.0,240,192,4.0,105.0
961,86.0,240,1536,0.0,105.0
962,67.0,0,1536,3.0,105.0
963,58.0,0,1536,3.0,105.0
964,62.0,0,1536,1.0,105.0
965,74.0,0,1536,1.0,105.0
966,74.0,0,192,4.0,105.0
967,74.0,240,192,5.0,105.0
968,46.0,0,384,7.0,105.0
969,34.0,0,384,8.0,105.0
970,46.0,0,384,2.0,105.0
971,74.0,240,192,5.0,105.0
972,74.0,0,192,4.0,105.0
973,72.0,240,192,5.0,105.0
974,84.0,0,192,0.0,105.0
975,72.0,0,192,4.0,105.0
976,45.0,0,384,2.0,105.0
977,45.0,0,384,7.0,105.0
978,33.0,0,384,8.0,105.0
979,55.0,0,864,6.0,105.0
980,82.0,0,192,0.0,105.0
981,70.0,240,192,4.0,105.0
982,70.0,0,192,5.0,105.0
983,69.0,0,192,4.0,105.0
984,81.0,0,192,0.0,105.0
985,69.0,0,192,5.0,105.0
986,48.0,0,384,7.0,105.0
987,36.0,0,384,8.0,105.0
988,48.0,240,384,2.0,105.0
989,63.0,0,384,6.0,105.0
990,67.0,240,192,4.0,105.0
991,79.0,0,192,0.0,105.0
992,67.0,0,192,5.0,105.0
993,75.0,0,960,1.0,105.0
994,72.0,0,0,1.0,105.0
995,66.0,0,192,4.0,105.0
996,66.0,0,192,5.0,105.0
997,74.0,0,384,1.0,105.0
998,50.0,0,384,7.0,105.0
999,50.0,0,384,2.0,105.0
1000,38.0,0,384,8.0,105.0
1001,78.0,0,384,0.0,105.0
1002,63.0,0,192,4.0,105.0
1003,63.0,240,192,5.0,105.0
1004,62.0,0,192,5.0,105.0
1005,62.0,0,192,4.0,105.0
1006,57.0,0,768,6.0,105.0
1007,69.0,240,768,3.0,105.0
1008,62.0,0,768,3.0,105.0
1009,54.0,0,384,2.0,105.0
1010,54.0,0,384,7.0,105.0
1011,42.0,240,384,8.0,105.0
1012,60.0,0,192,5.0,105.0
1013,60.0,240,192,4.0,105.0
1014,58.0,0,192,5.0,105.0
1015,58.0,0,192,4.0,105.0
1016,62.0,240,192,5.0,105.0
1017,62.0,0,192,4.0,105.0
1018,67.0,240,192,5.0,105.0
1019,67.0,0,192,4.0,105.0
1020,55.0,0,768,7.0,105.0
1021,43.0,0,768,8.0,105.0
1022,55.0,0,768,2.0,105.0
1023,50.0,0,768,6.0,105.0
1024,70.0,240,192,5.0,105.0
1025,70.0,0,192,4.0,105.0
1026,74.0,0,192,5.0,105.0
1027,74.0,240,192,4.0,105.0
1028,74.0,240,192,5.0,105.0
1029,74.0,0,192,4.0,105.0
1030,67.0,0,1536,3.0,105.0
1031,86.0,240,1536,0.0,105.0
1032,74.0,0,1536,1.0,105.0
1033,62.0,0,1536,1.0,105.0
1034,58.0,0,1536,3.0,105.0
1035,74.0,240,192,5.0,105.0
1036,74.0,0,192,4.0,105.0
1037,58.0,0,384,7.0,105.0
1038,58.0,0,384,2.0,105.0
1039,46.0,0,384,8.0,105.0
1040,74.0,240,192,5.0,105.0
1041,74.0,0,192,4.0,105.0
1042,72.0,0,192,4.0,105.0
1043,72.0,0,192,5.0,105.0
1044,84.0,0,192,0.0,105.0
1045,57.0,240,384,2.0,105.0
1046,45.0,0,384,8.0,105.0
1047,67.0,0,864,6.0,105.0
1048,57.0,0,384,7.0,105.0
1049,70.0,240,192,4.0,105.0
1050,82.0,0,192,0.0,105.0
1051,70.0,0,192,5.0,105.0
1052,69.0,0,192,5.0,105.0
1053,81.0,240,192,0.0,105.0
1054,69.0,0,192,4.0,105.0
1055,60.0,0,384,2.0,105.0
1056,60.0,0,384,7.0,105.0
1057,48.0,0,384,8.0,105.0
1058,63.0,0,384,6.0,105.0
1059,79.0,240,192,0.0,105.0
1060,67.0,0,192,5.0,105.0
1061,67.0,0,192,4.0,105.0
1062,72.0,0,0,1.0,105.0
1063,75.0,0,960,1.0,105.0
1064,66.0,0,192,4.0,105.0
1065,66.0,0,192,5.0,105.0
1066,74.0,0,384,1.0,105.0
1067,62.0,0,384,2.0,105.0
1068,50.0,0,384,8.0,105.0
1069,62.0,0,384,7.0,105.0
1070,78.0,0,384,0.0,105.0
1071,75.0,0,192,5.0,105.0
1072,75.0,240,192,4.0,105.0
1073,74.0,0,192,4.0,105.0
1074,74.0,0,192,5.0,105.0
1075,57.0,240,768,6.0,105.0
1076,69.0,0,768,3.0,105.0
1077,62.0,0,768,3.0,105.0
1078,42.0,0,384,8.0,105.0
1079,54.0,0,384,7.0,105.0
1080,54.0,240,384,2.0,105.0
1081,72.0,0,192,4.0,105.0
1082,72.0,240,192,5.0,105.0
1083,70.0,0,192,5.0,105.0
1084,70.0,0,192,4.0,105.0
1085,74.0,240,192,5.0,105.0
1086,74.0,0,192,4.0,105.0
1087,79.0,0,192,5.0,105.0
1088,79.0,240,192,4.0,105.0
1089,43.0,0,768,8.0,105.0
1090,62.0,240,768,6.0,105.0
1091,55.0,0,768,7.0,105.0
1092,55.0,0,768,2.0,105.0
1093,82.0,0,192,5.0,105.0
1094,82.0,240,192,4.0,105.0
1095,86.0,0,192,4.0,105.0
1096,86.0,240,192,5.0,105.0
1097,86.0,240,192,5.0,105.0
1098,86.0,0,192,4.0,105.0
1099,67.0,0,1536,3.0,105.0
1100,58.0,0,1536,3.0,105.0
1101,74.0,0,1536,1.0,105.0
1102,70.0,0,1536,1.0,105.0
1103,86.0,0,1536,0.0,105.0
1104,86.0,240,192,5.0,105.0
1105,86.0,0,192,4.0,105.0
1106,53.0,0,384,2.0,105.0
1107,53.0,0,384,7.0,105.0
1108,58.0,0,384,6.0,105.0
1109,41.0,0,384,8.0,105.0
1110,86.0,0,192,5.0,105.0
1111,86.0,240,192,4.0,105.0
1112,72.0,0,192,5.0,105.0
1113,72.0,240,192,4.0,105.0
1114,75.0,240,192,4.0,105.0
1115,75.0,0,192,5.0,105.0
1116,79.0,0,192,5.0,105.0
1117,79.0,240,192,4.0,105.0
1118,51.0,0,768,7.0,105.0
1119,39.0,0,768,8.0,105.0
1120,67.0,0,768,6.0,105.0
1121,51.0,0,768,2.0,105.0
1122,84.0,0,192,4.0,105.0
1123,84.0,240,192,5.0,105.0
1124,87.0,240,192,5.0,105.0
1125,87.0,0,192,4.0,105.0
1126,87.0,0,192,4.0,105.0
1127,87.0,240,192,5.0,105.0
1128,87.0,0,1536,0.0,105.0
1129,75.0,0,1536,1.0,105.0
1130,55.0,0,1536,3.0,105.0
1131,72.0,0,1536,1.0,105.0
1132,87.0,240,192,5.0,105.0
1133,87.0,0,192,4.0,105.0
1134,48.0,0,384,2.0,105.0
1135,48.0,0,384,7.0,105.0
1136,67.0,0,384,6.0,105.0
1137,36.0,0,384,8.0,105.0
1138,87.0,0,192,4.0,105.0
1139,87.0,240,192,5.0,105.0
1140,69.0,0,192,4.0,105.0
1141,69.0,0,192,5.0,105.0
1142,72.0,240,192,4.0,105.0
1143,72.0,0,192,5.0,105.0
1144,77.0,240,192,5.0,105.0
1145,77.0,0,192,4.0,105.0
1146,53.0,0,768,2.0,105.0
1147,41.0,0,768,8.0,105.0
1148,53.0,240,768,7.0,105.0
1149,60.0,0,768,6.0,105.0
1150,81.0,240,192,5.0,105.0
1151,81.0,0,192,4.0,105.0
1152,84.0,240,192,4.0,105.0
1153,84.0,0,192,5.0,105.0
1154,84.0,240,192,4.0,105.0
1155,84.0,0,192,5.0,105.0
1156,65.0,0,1536,3.0,105.0
1157,84.0,0,1536,0.0,105.0
1158,69.0,0,1536,1.0,105.0
1159,72.0,0,1536,1.0,105.0
1160,84.0,0,192,5.0,105.0
1161,84.0,0,192,4.0,105.0
1162,57.0,0,384,6.0,105.0
1163,39.0,240,384,8.0,105.0
1164,51.0,0,384,7.0,105.0
1165,51.0,0,384,2.0,105.0
1166,84.0,240,192,4.0,105.0
1167,84.0,0,192,5.0,105.0
1168,70.0,0,192,5.0,105.0
1169,70.0,0,192,4.0,105.0
1170,74.0,0,192,5.0,105.0
1171,74.0,240,192,4.0,105.0
1172,77.0,240,192,4.0,105.0
1173,77.0,0,192,5.0,105.0
1174,65.0,0,768,6.0,105.0
1175,50.0,0,768,2.0,105.0
1176,38.0,0,768,8.0,105.0
1177,50.0,0,768,7.0,105.0
1178,82.0,240,192,4.0,105.0
1179,82.0,0,192,5.0,105.0
1180,86.0,240,192,4.0,105.0
1181,86.0,0,192,5.0,105.0
1182,86.0,0,192,5.0,105.0
1183,86.0,240,192,4.0,105.0
1184,70.0,0,1536,1.0,105.0
1185,58.0,0,1536,3.0,105.0
1186,74.0,0,1536,1.0,105.0
1187,86.0,240,1536,0.0,105.0
1188,86.0,0,192,4.0,105.0
1189,86.0,0,192,5.0,105.0
1190,46.0,0,384,7.0,105.0
1191,65.0,240,384,6.0,105.0
1192,34.0,0,384,8.0,105.0
1193,46.0,0,384,2.0,105.0
1194,86.0,0,192,5.0,105.0
1195,86.0,240,192,4.0,105.0
1196,79.0,0,192,1.0,105.0
1197,79.0,0,192,5.0,105.0
1198,79.0,0,192,4.0,105.0
1199,81.0,0,192,5.0,105.0
1200,81.0,240,192,1.0,105.0
1201,81.0,0,192,4.0,105.0
1202,82.0,0,192,5.0,105.0
1203,82.0,240,192,4.0,105.0
1204,82.0,0,192,1.0,105.0
1205,58.0,0,768,6.0,105.0
1206,51.0,0,768,7.0,105.0
1207,51.0,0,768,2.0,105.0
1208,39.0,240,768,8.0,105.0
1209,81.0,240,192,1.0,105.0
1210,81.0,0,192,4.0,105.0
1211,81.0,0,192,5.0,105.0
1212,79.0,240,192,5.0,105.0
1213,79.0,0,192,4.0,105.0
1214,79.0,0,192,1.0,105.0
1215,77.0,0,192,4.0,105.0
1216,77.0,0,192,1.0,105.0
1217,77.0,240,192,5.0,105.0
1218,75.0,0,192,1.0,105.0
1219,75.0,0,192,4.0,105.0
1220,75.0,0,192,5.0,105.0
1221,53.0,0,384,7.0,105.0
1222,41.0,240,384,8.0,105.0
1223,53.0,0,384,2.0,105.0
1224,58.0,0,384,6.0,105.0
1225,74.0,0,192,1.0,105.0
1226,74.0,0,192,4.0,105.0
1227,74.0,240,192,5.0,105.0
1228,75.0,0,192,4.0,105.0
1229,75.0,0,192,5.0,105.0
1230,87.0,0,192,0.0,105.0
1231,75.0,0,192,1.0,105.0
1232,77.0,0,192,4.0,105.0
1233,77.0,0,192,5.0,105.0
1234,89.0,0,192,0.0,105.0
1235,77.0,240,192,1.0,105.0
1236,91.0,0,192,0.0,105.0
1237,79.0,240,192,1.0,105.0
1238,79.0,0,192,5.0,105.0
1239,79.0,0,192,4.0,105.0
1240,55.0,0,768,7.0,105.0
1241,55.0,0,768,2.0,105.0
1242,43.0,0,768,8.0,105.0
1243,70.0,240,768,6.0,105.0
1244,77.0,240,192,5.0,105.0
1245,77.0,0,192,4.0,105.0
1246,89.0,0,192,0.0,105.0
1247,77.0,0,192,1.0,105.0
1248,87.0,240,192,0.0,105.0
1249,75.0,0,192,5.0,105.0
1250,75.0,0,192,1.0,105.0
1251,75.0,0,192,4.0,105.0
1252,86.0,0,192,0.0,105.0
1253,74.0,0,192,4.0,105.0
1254,74.0,0,192,1.0,105.0
1255,74.0,240,192,5.0,105.0
1256,72.0,0,192,4.0,105.0
1257,84.0,0,192,0.0,105.0
1258,72.0,240,192,5.0,105.0
1259,72.0,0,192,1.0,105.0
1260,67.0,0,384,6.0,105.0
1261,52.0,0,384,7.0,105.0
1262,52.0,0,384,2.0,105.0
1263,40.0,0,384,8.0,105.0
1264,70.0,0,192,5.0,105.0
1265,70.0,0,192,1.0,105.0
1266,70.0,0,192,4.0,105.0
1267,82.0,240,192,0.0,105.0
1268,69.0,0,192,4.0,105.0
1269,69.0,0,192,5.0,105.0
1270,69.0,0,192,1.0,105.0
1271,81.0,240,192,0.0,105.0
1272,70.0,240,192,5.0,105.0
1273,70.0,0,192,1.0,105.0
1274,70.0,0,192,4.0,105.0
1275,82.0,0,192,0.0,105.0
1276,72.0,240,192,5.0,105.0
1277,72.0,0,192,4.0,105.0
1278,84.0,0,192,0.0,105.0
1279,72.0,0,192,1.0,105.0
1280,53.0,0,768,2.0,105.0
1281,53.0,0,768,7.0,105.0
1282,60.0,0,768,6.0,105.0
1283,41.0,0,768,8.0,105.0
1284,70.0,0,192,4.0,105.0
1285,70.0,240,192,1.0,105.0
1286,82.0,0,192,0.0,105.0
1287,70.0,0,192,5.0,105.0
1288,81.0,240,192,0.0,105.0
1289,69.0,0,192,1.0,105.0
1290,69.0,0,192,5.0,105.0
1291,69.0,0,192,4.0,105.0
1292,79.0,0,192,0.0,105.0
1293,67.0,240,192,1.0,105.0
1294,67.0,0,192,4.0,105.0
1295,67.0,0,192,5.0,105.0
1296,65.0,0,192,4.0,105.0
1297,65.0,0,192,1.0,105.0
1298,77.0,0,192,0.0,105.0
1299,65.0,240,192,5.0,105.0
1300,60.0,0,384,6.0,105.0
1301,55.0,0,384,7.0,105.0
1302,43.0,0,384,8.0,105.0
1303,55.0,0,384,2.0,105.0
1304,64.0,240,192,1.0,105.0
1305,76.0,0,192,0.0,105.0
1306,64.0,0,192,4.0,105.0
1307,64.0,0,192,5.0,105.0
1308,65.0,0,192,5.0,105.0
1309,60.0,0,384,6.0,105.0
1310,67.0,240,192,5.0,105.0
1311,65.0,240,192,5.0,105.0
1312,65.0,0,192,6.0,105.0
1313,77.0,0,768,0.0,105.0
1314,45.0,0,768,8.0,105.0
1315,65.0,0,768,4.0,105.0
1316,57.0,0,768,2.0,105.0
1317,65.0,0,768,1.0,105.0
1318,57.0,240,768,7.0,105.0
1319,67.0,240,192,5.0,105.0
1320,67.0,0,192,6.0,105.0
1321,65.0,240,192,5.0,105.0
1322,65.0,0,192,6.0,105.0
1323,63.0,240,192,5.0,105.0
1324,63.0,0,192,6.0,105.0
1325,62.0,0,192,6.0,105.0
1326,62.0,240,192,5.0,105.0
1327,60.0,0,192,5.0,105.0
1328,60.0,240,192,6.0,105.0
1329,58.0,0,240,7.0,105.0
1330,62.0,0,240,6.0,105.0
1331,46.0,0,240,8.0,105.0
1332,58.0,240,288,2.0,105.0
1333,62.0,0,288,2.0,105.0
1334,70.0,0,288,1.0,105.0
1335,65.0,0,288,5.0,105.0
1336,65.0,0,288,3.0,105.0
1337,62.0,0,288,3.0,105.0
1338,74.0,0,288,1.0,105.0
1339,77.0,0,288,4.0,116.0
1340,86.0,0,288,0.0,105.0
1341,50.0,0,144,8.0,105.0
1342,65.0,0,144,6.0,105.0
1343,62.0,240,144,7.0,105.0
1344,60.0,0,144,7.0,105.0
1345,48.0,0,144,8.0,105.0
1346,63.0,0,144,6.0,105.0
1347,75.0,0,288,1.0,105.0
1348,87.0,0,288,0.0,105.0
1349,65.0,0,288,3.0,105.0
1350,77.0,240,288,4.0,116.0
1351,72.0,0,288,1.0,105.0
1352,60.0,0,288,2.0,105.0
1353,63.0,0,288,2.0,105.0
1354,65.0,0,288,5.0,105.0
1355,57.0,0,144,7.0,105.0
1356,60.0,0,144,6.0,105.0
1357,45.0,240,144,8.0,105.0
1358,62.0,0,240,6.0,105.0
1359,58.0,0,240,7.0,105.0
1360,46.0,0,240,8.0,105.0
1361,58.0,0,288,2.0,105.0
1362,62.0,0,288,3.0,105.0
1363,62.0,0,288,2.0,105.0
1364,77.0,0,288,4.0,116.0
1365,65.0,0,288,5.0,105.0
1366,86.0,0,288,0.0,105.0
1367,70.0,0,288,1.0,105.0
1368,74.0,240,288,1.0,105.0
1369,65.0,0,288,3.0,105.0
1370,50.0,0,144,8.0,105.0
1371,65.0,240,144,6.0,105.0
1372,62.0,0,144,7.0,105.0
1373,63.0,0,144,6.0,105.0
1374,60.0,0,144,7.0,105.0
1375,48.0,0,144,8.0,105.0
1376,63.0,0,288,2.0,105.0
1377,60.0,0,288,2.0,105.0
1378,87.0,0,288,0.0,105.0
1379,77.0,0,288,4.0,116.0
1380,65.0,0,288,3.0,105.0
1381,72.0,0,288,1.0,105.0
1382,75.0,240,288,1.0,105.0
1383,65.0,0,288,5.0,105.0
1384,60.0,240,144,6.0,105.0
1385,45.0,0,144,8.0,105.0
1386,57.0,0,144,7.0,105.0
1387,46.0,0,192,8.0,105.0
1388,62.0,240,192,6.0,105.0
1389,58.0,0,192,7.0,105.0
1390,48.0,240,192,8.0,105.0
1391,60.0,0,192,7.0,105.0
1392,63.0,0,192,6.0,105.0
1393,65.0,0,192,6.0,105.0
1394,50.0,240,192,8.0,105.0
1395,62.0,0,192,7.0,105.0
1396,62.0,0,768,2.0,105.0
1397,58.0,0,768,2.0,105.0
1398,65.0,0,768,3.0,105.0
1399,62.0,0,768,3.0,105.0
1400,65.0,0,768,5.0,105.0
1401,77.0,0,768,4.0,116.0
1402,74.0,0,768,1.0,105.0
1403,86.0,0,768,0.0,105.0
1404,70.0,0,768,1.0,105.0
1405,63.0,240,192,6.0,105.0
1406,60.0,0,192,7.0,105.0
1407,48.0,0,192,8.0,105.0
1408,62.0,0,192,6.0,105.0
1409,46.0,0,192,8.0,105.0
1410,58.0,240,192,7.0,105.0
1411,45.0,240,192,8.0,105.0
1412,60.0,0,192,6.0,105.0
1413,57.0,0,192,7.0,105.0
1414,43.0,240,192,8.0,105.0
1415,55.0,0,192,7.0,105.0
1416,58.0,0,192,6.0,105.0
1417,57.0,240,192,6.0,105.0
1418,42.0,0,192,8.0,105.0
1419,54.0,0,192,7.0,105.0
1420,58.0,0,240,6.0,105.0
1421,55.0,0,240,7.0,105.0
1422,43.0,240,240,8.0,105.0
1423,58.0,0,288,3.0,105.0
1424,67.0,0,288,3.0,105.0
1425,58.0,0,288,2.0,105.0
1426,86.0,0,288,4.0,116.0
1427,74.0,0,288,5.0,105.0
1428,55.0,0,288,2.0,105.0
1429,70.0,0,288,1.0,105.0
1430,82.0,0,288,0.0,105.0
1431,67.0,0,288,1.0,105.0
1432,58.0,0,144,7.0,105.0
1433,62.0,240,144,6.0,105.0
1434,46.0,0,144,8.0,105.0
1435,45.0,0,144,8.0,105.0
1436,60.0,0,144,6.0,105.0
1437,57.0,0,144,7.0,105.0
1438,72.0,240,288,1.0,105.0
1439,69.0,0,288,1.0,105.0
1440,60.0,0,288,2.0,105.0
1441,74.0,0,288,5.0,105.0
1442,86.0,0,288,4.0,116.0
1443,57.0,0,288,2.0,105.0
1444,69.0,0,288,3.0,105.0
1445,84.0,0,288,0.0,105.0
1446,62.0,0,288,3.0,105.0
1447,42.0,0,144,8.0,105.0
1448,54.0,0,144,7.0,105.0
1449,57.0,240,144,6.0,105.0
1450,58.0,0,240,6.0,105.0
1451,55.0,0,240,7.0,105.0
1452,43.0,0,240,8.0,105.0
1453,86.0,0,288,4.0,116.0
1454,74.0,0,288,5.0,105.0
1455,58.0,0,288,3.0,105.0
1456,67.0,0,288,3.0,105.0
1457,58.0,0,288,2.0,105.0
1458,55.0,0,288,2.0,105.0
1459,67.0,0,288,1.0,105.0
1460,70.0,240,288,1.0,105.0
1461,82.0,0,288,0.0,105.0
1462,62.0,0,144,6.0,105.0
1463,46.0,0,144,8.0,105.0
1464,58.0,240,144,7.0,105.0
1465,57.0,0,144,7.0,105.0
1466,45.0,0,144,8.0,105.0
1467,60.0,240,144,6.0,105.0
1468,62.0,0,288,3.0,105.0
1469,69.0,0,288,1.0,105.0
1470,72.0,0,288,1.0,105.0
1471,74.0,0,288,5.0,105.0
1472,57.0,0,288,2.0,105.0
1473,60.0,0,288,2.0,105.0
1474,86.0,0,288,4.0,116.0
1475,84.0,0,288,0.0,105.0
1476,69.0,0,288,3.0,105.0
1477,54.0,240,144,7.0,105.0
1478,42.0,0,144,8.0,105.0
1479,57.0,0,144,6.0,105.0
1480,55.0,0,144,7.0,105.0
1481,43.0,0,144,8.0,105.0
1482,58.0,0,288,6.0,105.0
1483,45.0,240,144,8.0,105.0
1484,57.0,0,144,7.0,105.0
1485,74.0,0,144,6.0,105.0
1486,58.0,240,144,7.0,105.0
1487,46.0,0,144,8.0,105.0
1488,86.0,0,768,4.0,116.0
1489,58.0,0,768,2.0,105.0
1490,67.0,0,768,1.0,105.0
1491,67.0,0,768,3.0,105.0
1492,58.0,0,768,3.0,105.0
1493,74.0,0,768,5.0,105.0
1494,82.0,0,768,0.0,105.0
1495,55.0,0,768,2.0,105.0
1496,70.0,240,768,1.0,105.0
1497,57.0,0,144,7.0,105.0
1498,72.0,0,144,6.0,105.0
1499,45.0,240,144,8.0,105.0
1500,70.0,0,144,6.0,105.0
1501,43.0,0,144,8.0,105.0
1502,55.0,240,144,7.0,105.0
1503,53.0,0,144,7.0,105.0
1504,69.0,0,144,6.0,105.0
1505,41.0,240,144,8.0,105.0
1506,67.0,0,144,6.0,105.0
1507,51.0,0,144,7.0,105.0
1508,39.0,240,144,8.0,105.0
1509,65.0,0,144,6.0,105.0
1510,38.0,0,144,8.0,105.0
1511,50.0,240,144,7.0,105.0
1512,67.0,0,240,6.0,105.0
1513,51.0,0,240,7.0,105.0
1514,39.0,0,240,8.0,105.0
1515,72.0,240,288,5.0,105.0
1516,84.0,0,288,0.0,105.0
1517,84.0,0,288,4.0,116.0
1518,60.0,0,288,2.0,105.0
1519,75.0,0,288,1.0,105.0
1520,79.0,0,288,1.0,105.0
1521,67.0,0,288,3.0,105.0
1522,72.0,0,288,3.0,105.0
1523,55.0,0,288,2.0,105.0
1524,55.0,240,144,7.0,105.0
1525,63.0,0,144,6.0,105.0
1526,43.0,0,144,8.0,105.0
1527,41.0,0,144,8.0,105.0
1528,53.0,0,144,7.0,105.0
1529,68.0,0,144,6.0,105.0
1530,71.0,0,288,5.0,105.0
1531,65.0,0,288,3.0,105.0
1532,86.0,0,288,0.0,105.0
1533,80.0,0,288,1.0,105.0
1534,77.0,0,288,1.0,105.0
1535,56.0,0,288,2.0,105.0
1536,59.0,240,288,2.0,105.0
1537,74.0,0,288,3.0,105.0
1538,83.0,0,288,4.0,116.0
1539,65.0,0,144,6.0,105.0
1540,50.0,0,144,7.0,105.0
1541,38.0,240,144,8.0,105.0
1542,51.0,0,240,7.0,105.0
1543,39.0,0,240,8.0,105.0
1544,67.0,0,240,6.0,105.0
1545,75.0,0,288,1.0,105.0
1546,84.0,0,288,0.0,105.0
1547,72.0,0,288,3.0,105.0
1548,67.0,0,288,3.0,105.0
1549,60.0,0,288,2.0,105.0
1550,72.0,0,288,5.0,105.0
1551,84.0,240,288,4.0,116.0
1552,79.0,0,288,1.0,105.0
1553,55.0,0,288,2.0,105.0
1554,63.0,0,144,6.0,105.0
1555,43.0,0,144,8.0,105.0
1556,55.0,240,144,7.0,105.0
1557,53.0,240,144,7.0,105.0
1558,41.0,0,144,8.0,105.0
1559,68.0,0,144,6.0,105.0
1560,86.0,0,288,0.0,105.0
1561,56.0,0,288,2.0,105.0
1562,59.0,0,288,2.0,105.0
1563,65.0,0,288,3.0,105.0
1564,77.0,0,288,1.0,105.0
1565,74.0,0,288,3.0,105.0
1566,83.0,0,288,4.0,116.0
1567,80.0,0,288,1.0,105.0
1568,71.0,0,288,5.0,105.0
1569,38.0,0,144,8.0,105.0
1570,50.0,0,144,7.0,105.0
1571,65.0,240,144,6.0,105.0
1572,67.0,0,144,6.0,105.0
1573,51.0,0,144,7.0,105.0
1574,39.0,240,144,8.0,105.0
1575,53.0,0,144,7.0,105.0
1576,41.0,240,144,8.0,105.0
1577,65.0,0,144,6.0,105.0
1578,63.0,0,144,6.0,105.0
1579,43.0,0,144,8.0,105.0
1580,55.0,240,144,7.0,105.0
1581,84.0,0,768,4.0,116.0
1582,79.0,0,768,1.0,105.0
1583,75.0,0,768,1.0,105.0
1584,67.0,0,768,3.0,105.0
1585,84.0,0,768,0.0,105.0
1586,72.0,0,768,5.0,105.0
1587,60.0,0,768,2.0,105.0
1588,55.0,0,768,2.0,105.0
1589,72.0,0,768,3.0,105.0
1590,62.0,0,144,6.0,105.0
1591,53.0,240,144,7.0,105.0
1592,41.0,0,144,8.0,105.0
1593,39.0,240,144,8.0,105.0
1594,60.0,0,144,6.0,105.0
1595,51.0,0,144,7.0,105.0
1596,50.0,0,144,7.0,105.0
1597,58.0,0,144,6.0,105.0
1598,38.0,240,144,8.0,105.0
1599,48.0,0,144,7.0,105.0
1600,36.0,240,144,8.0,105.0
1601,57.0,0,144,6.0,105.0
1602,34.0,0,144,8.0,105.0
1603,58.0,240,144,6.0,105.0
1604,46.0,0,144,7.0,105.0
1605,45.0,0,240,7.0,105.0
1606,33.0,240,240,8.0,105.0
1607,60.0,0,240,6.0,105.0
1608,87.0,0,288,4.0,116.0
1609,75.0,0,288,5.0,105.0
1610,77.0,0,288,1.0,105.0
1611,60.0,0,288,3.0,105.0
1612,89.0,0,288,0.0,105.0
1613,53.0,0,288,2.0,105.0
1614,65.0,0,288,2.0,105.0
1615,34.0,0,144,8.0,105.0
1616,46.0,240,144,7.0,105.0
1617,58.0,0,144,6.0,105.0
1618,57.0,240,144,6.0,105.0
1619,36.0,0,144,8.0,105.0
1620,48.0,0,144,7.0,105.0
1621,75.0,0,288,5.0,105.0
1622,79.0,0,288,1.0,105.0
1623,90.0,0,288,0.0,105.0
1624,87.0,0,288,4.0,116.0
1625,54.0,0,288,2.0,105.0
1626,60.0,0,288,3.0,105.0
1627,66.0,0,288,2.0,105.0
1628,58.0,240,144,6.0,105.0
1629,34.0,0,144,8.0,105.0
1630,46.0,0,144,7.0,105.0
1631,60.0,0,240,6.0,105.0
1632,45.0,0,240,7.0,105.0
1633,33.0,0,240,8.0,105.0
1634,60.0,0,288,3.0,105.0
1635,89.0,0,288,0.0,105.0
1636,65.0,0,288,2.0,105.0
1637,53.0,0,288,2.0,105.0
1638,87.0,240,288,4.0,116.0
1639,75.0,0,288,5.0,105.0
1640,77.0,0,288,1.0,105.0
1641,34.0,240,144,8.0,105.0
1642,46.0,0,144,7.0,105.0
1643,58.0,0,144,6.0,105.0
1644,48.0,0,144,7.0,105.0
1645,36.0,0,144,8.0,105.0
1646,57.0,0,144,6.0,105.0
1647,60.0,0,288,3.0,105.0
1648,75.0,0,288,5.0,105.0
1649,90.0,240,288,0.0,105.0
1650,79.0,0,288,1.0,105.0
1651,54.0,0,288,2.0,105.0
1652,66.0,0,288,2.0,105.0
1653,87.0,0,288,4.0,116.0
1654,46.0,0,144,7.0,105.0
1655,58.0,0,144,6.0,105.0
1656,34.0,240,144,8.0,105.0
1657,75.0,0,192,5.0,125.0
1658,87.0,0,192,4.0,127.0
1659,74.0,0,192,5.0,105.0
1660,86.0,240,192,4.0,116.0
1661,72.0,240,192,5.0,105.0
1662,84.0,0,192,4.0,116.0
1663,89.0,0,768,0.0,105.0
1664,72.0,0,768,3.0,105.0
1665,77.0,0,768,1.0,105.0
1666,82.0,0,192,4.0,116.0
1667,70.0,240,192,5.0,105.0
1668,45.0,0,1152,2.0,105.0
1669,65.0,0,1152,2.0,105.0
1670,45.0,0,1152,7.0,105.0
1671,69.0,0,192,5.0,105.0
1672,33.0,240,1152,8.0,105.0
1673,81.0,240,192,4.0,116.0
1674,60.0,0,1152,6.0,105.0
1675,67.0,0,192,5.0,105.0
1676,79.0,240,192,4.0,116.0
1677,77.0,0,192,4.0,116.0
1678,65.0,240,192,5.0,105.0
1679,63.0,0,192,5.0,105.0
1680,69.0,240,192,6.0,105.0
1681,45.0,0,192,8.0,105.0
1682,57.0,0,192,2.0,105.0
1683,75.0,0,192,4.0,116.0
1684,57.0,0,192,7.0,105.0
1685,70.0,0,192,6.0,125.0
1686,58.0,0,192,2.0,125.0
1687,46.0,0,192,8.0,125.0
1688,58.0,240,192,7.0,125.0
1689,69.0,0,192,6.0,105.0
1690,57.0,0,192,7.0,105.0
1691,45.0,240,192,8.0,105.0
1692,57.0,0,192,2.0,105.0
1693,55.0,0,192,7.0,105.0
1694,43.0,240,192,8.0,105.0
1695,67.0,0,192,6.0,105.0
1696,55.0,0,192,2.0,105.0
1697,65.0,0,768,3.0,105.0
1698,62.0,0,768,3.0,105.0
1699,53.0,240,192,2.0,105.0
1700,65.0,0,192,6.0,105.0
1701,53.0,0,192,7.0,105.0
1702,41.0,0,192,8.0,105.0
1703,39.0,0,192,8.0,105.0
1704,51.0,240,192,7.0,105.0
1705,74.0,0,1152,4.0,116.0
1706,51.0,0,192,2.0,105.0
1707,63.0,0,192,6.0,105.0
1708,62.0,0,1152,5.0,105.0
1709,62.0,0,384,3.0,105.0
1710,62.0,0,192,6.0,105.0
1711,50.0,240,192,7.0,105.0
1712,38.0,0,192,8.0,105.0
1713,50.0,0,192,2.0,105.0
1714,77.0,0,1536,0.0,105.0
1715,77.0,0,1536,1.0,105.0
1716,65.0,0,1536,1.0,105.0
1717,48.0,0,192,7.0,105.0
1718,60.0,0,192,6.0,105.0
1719,36.0,0,192,8.0,105.0
1720,48.0,0,192,2.0,105.0
1721,62.0,240,384,3.0,105.0
1722,46.0,0,192,2.0,105.0
1723,74.0,0,192,5.0,105.0
1724,58.0,0,192,6.0,105.0
1725,86.0,0,192,4.0,116.0
1726,34.0,0,192,8.0,105.0
1727,46.0,240,192,7.0,105.0
1728,72.0,0,192,5.0,125.0
1729,84.0,0,192,4.0,127.0
1730,70.0,240,192,5.0,105.0
1731,82.0,0,192,4.0,116.0
1732,69.0,240,192,5.0,105.0
1733,81.0,0,192,4.0,116.0
1734,62.0,0,768,3.0,105.0
1735,72.0,0,768,3.0,105.0
1736,67.0,240,192,5.0,105.0
1737,79.0,0,192,4.0,116.0
1738,57.0,0,1152,6.0,105.0
1739,45.0,0,1152,2.0,105.0
1740,45.0,0,1152,7.0,105.0
1741,33.0,0,1152,8.0,105.0
1742,78.0,240,192,4.0,116.0
1743,66.0,0,192,5.0,105.0
1744,63.0,0,192,5.0,105.0
1745,75.0,240,192,4.0,116.0
1746,66.0,0,1536,1.0,105.0
1747,78.0,240,1536,1.0,105.0
1748,78.0,0,1536,0.0,105.0
1749,74.0,240,192,4.0,116.0
1750,62.0,0,192,5.0,105.0
1751,72.0,0,192,4.0,116.0
1752,57.0,0,192,2.0,105.0
1753,57.0,240,192,7.0,105.0
1754,60.0,0,192,5.0,105.0
1755,69.0,0,192,6.0,105.0
1756,45.0,0,192,8.0,105.0
1757,67.0,0,192,6.0,125.0
1758,55.0,0,192,7.0,125.0
1759,55.0,0,192,2.0,125.0
1760,43.0,0,192,8.0,125.0
1761,53.0,0,192,7.0,105.0
1762,65.0,0,192,6.0,105.0
1763,41.0,240,192,8.0,105.0
1764,53.0,0,192,2.0,105.0
1765,63.0,0,192,6.0,105.0
1766,51.0,240,192,2.0,105.0
1767,39.0,0,192,8.0,105.0
1768,51.0,0,192,7.0,105.0
1769,62.0,0,768,3.0,105.0
1770,58.0,0,768,3.0,105.0
1771,50.0,0,192,7.0,105.0
1772,50.0,0,192,2.0,105.0
1773,62.0,240,192,6.0,105.0
1774,38.0,0,192,8.0,105.0
1775,48.0,0,192,2.0,105.0
1776,36.0,0,192,8.0,105.0
1777,70.0,0,1152,4.0,116.0
1778,48.0,0,192,7.0,105.0
1779,58.0,0,1152,5.0,105.0
1780,60.0,240,192,6.0,105.0
1781,58.0,0,384,3.0,105.0
1782,46.0,240,192,7.0,105.0
1783,34.0,0,192,8.0,105.0
1784,46.0,0,192,2.0,105.0
1785,58.0,0,192,6.0,105.0
1786,67.0,240,1536,1.0,105.0
1787,79.0,0,1536,1.0,105.0
1788,79.0,0,1536,0.0,105.0
1789,45.0,0,192,7.0,105.0
1790,45.0,0,192,2.0,105.0
1791,33.0,0,192,8.0,105.0
1792,57.0,0,192,6.0,105.0
1793,58.0,240,384,3.0,105.0
1794,82.0,240,192,4.0,116.0
1795,43.0,0,192,7.0,105.0
1796,31.0,0,192,8.0,105.0
1797,70.0,0,192,5.0,105.0
1798,43.0,0,192,2.0,105.0
1799,55.0,0,192,6.0,105.0
1800,80.0,0,192,4.0,127.0
1801,68.0,0,192,5.0,125.0
1802,67.0,0,192,5.0,105.0
1803,79.0,240,192,4.0,116.0
1804,65.0,0,192,5.0,105.0
1805,77.0,240,192,4.0,116.0
1806,62.0,0,768,3.0,105.0
1807,58.0,0,768,3.0,105.0
1808,63.0,0,192,5.0,105.0
1809,75.0,240,192,4.0,116.0
1810,74.0,240,192,4.0,116.0
1811,62.0,0,192,5.0,105.0
1812,41.0,0,1152,7.0,105.0
1813,29.0,0,1152,8.0,105.0
1814,53.0,0,1152,6.0,105.0
1815,41.0,240,1152,2.0,105.0
1816,60.0,240,192,5.0,105.0
1817,72.0,0,192,4.0,116.0
1818,74.0,0,1536,1.0,105.0
1819,86.0,0,1536,0.0,105.0
1820,58.0,0,192,5.0,105.0
1821,70.0,240,192,4.0,116.0
1822,68.0,0,192,4.0,116.0
1823,65.0,240,192,7.0,105.0
1824,53.0,0,192,8.0,105.0
1825,56.0,0,192,5.0,105.0
1826,65.0,0,192,6.0,105.0
1827,65.0,0,192,2.0,105.0
1828,51.0,0,192,8.0,125.0
1829,63.0,0,192,7.0,125.0
1830,63.0,0,192,6.0,125.0
1831,63.0,0,192,2.0,125.0
1832,62.0,240,192,2.0,105.0
1833,62.0,0,192,6.0,105.0
1834,62.0,0,192,7.0,105.0
1835,50.0,0,192,8.0,105.0
1836,48.0,0,192,8.0,105.0
1837,60.0,240,192,6.0,105.0
1838,60.0,0,192,7.0,105.0
1839,60.0,0,192,2.0,105.0
1840,70.0,240,768,3.0,105.0
1841,67.0,0,768,3.0,105.0
1842,58.0,0,192,7.0,105.0
1843,58.0,0,192,2.0,105.0
1844,58.0,240,192,6.0,105.0
1845,46.0,0,192,8.0,105.0
1846,55.0,0,1152,5.0,105.0
1847,44.0,0,192,8.0,105.0
1848,67.0,0,1152,4.0,116.0
1849,56.0,0,192,7.0,105.0
1850,56.0,0,192,6.0,105.0
1851,56.0,240,192,2.0,105.0
1852,55.0,0,384,3.0,105.0
1853,55.0,0,192,2.0,105.0
1854,55.0,0,192,7.0,105.0
1855,55.0,240,192,6.0,105.0
1856,43.0,0,192,8.0,105.0
1857,75.0,0,1536,1.0,105.0
1858,87.0,0,1536,0.0,105.0
1859,53.0,240,192,7.0,105.0
1860,53.0,0,192,2.0,105.0
1861,53.0,0,192,6.0,105.0
1862,41.0,0,192,8.0,105.0
1863,55.0,0,384,3.0,105.0
1864,79.0,0,192,4.0,116.0
1865,79.0,0,192,5.0,105.0
1866,51.0,0,192,6.0,105.0
1867,51.0,240,192,2.0,105.0
1868,51.0,0,192,7.0,105.0
1869,39.0,0,192,8.0,105.0
1870,77.0,0,192,5.0,125.0
1871,77.0,0,192,4.0,127.0
1872,75.0,240,192,4.0,116.0
1873,75.0,0,192,5.0,105.0
1874,74.0,240,192,4.0,116.0
1875,74.0,0,192,5.0,105.0
1876,67.0,0,768,3.0,105.0
1877,74.0,0,768,3.0,105.0
1878,50.0,0,768,6.0,105.0
1879,50.0,0,768,2.0,105.0
1880,38.0,0,768,8.0,105.0
1881,50.0,0,768,7.0,105.0
1882,72.0,0,192,5.0,105.0
1883,72.0,240,192,4.0,116.0
1884,71.0,240,192,5.0,105.0
1885,71.0,0,192,4.0,116.0
1886,68.0,0,192,4.0,116.0
1887,68.0,240,192,5.0,105.0
1888,83.0,240,1536,0.0,105.0
1889,71.0,0,1536,1.0,105.0
1890,67.0,0,192,4.0,116.0
1891,67.0,240,192,5.0,105.0
1892,65.0,0,192,5.0,105.0
1893,65.0,240,192,4.0,116.0
1894,63.0,0,192,5.0,105.0
1895,63.0,0,192,4.0,116.0
1896,65.0,240,192,4.0,116.0
1897,65.0,0,192,5.0,105.0
1898,67.0,240,192,4.0,116.0
1899,67.0,0,192,5.0,105.0
1900,48.0,240,768,7.0,105.0
1901,72.0,0,768,1.0,105.0
1902,48.0,0,768,2.0,105.0
1903,84.0,0,768,0.0,105.0
1904,36.0,0,768,8.0,105.0
1905,51.0,0,768,6.0,105.0
1906,63.0,0,192,5.0,105.0
1907,63.0,240,192,4.0,116.0
1908,62.0,0,192,4.0,116.0
1909,62.0,0,192,5.0,105.0
1910,63.0,0,192,5.0,105.0
1911,63.0,240,192,4.0,116.0
1912,65.0,0,192,5.0,105.0
1913,65.0,240,192,4.0,116.0
1914,83.0,0,768,0.0,105.0
1915,50.0,240,768,2.0,105.0
1916,68.0,0,768,1.0,105.0
1917,38.0,0,768,8.0,105.0
1918,50.0,0,768,7.0,105.0
1919,77.0,0,768,1.0,105.0
1920,53.0,0,768,6.0,105.0
1921,62.0,0,192,4.0,116.0
1922,62.0,240,192,5.0,105.0
1923,60.0,0,192,4.0,116.0
1924,60.0,0,192,5.0,105.0
1925,62.0,240,192,5.0,105.0
1926,62.0,0,192,4.0,116.0
1927,63.0,240,192,4.0,116.0
1928,63.0,0,192,5.0,105.0
1929,67.0,0,768,1.0,105.0
1930,39.0,240,768,8.0,105.0
1931,51.0,0,768,7.0,105.0
1932,84.0,0,768,0.0,105.0
1933,51.0,0,768,2.0,105.0
1934,60.0,240,192,4.0,116.0
1935,60.0,0,192,5.0,105.0
1936,58.0,0,192,5.0,105.0
1937,58.0,0,192,4.0,116.0
1938,60.0,0,192,4.0,116.0
1939,60.0,240,192,5.0,105.0
1940,55.0,0,1536,6.0,105.0
1941,62.0,240,192,4.0,116.0
1942,62.0,0,192,5.0,105.0
1943,52.0,0,768,2.0,105.0
1944,52.0,0,768,7.0,105.0
1945,72.0,0,768,1.0,105.0
1946,79.0,0,1728,1.0,105.0
1947,82.0,240,768,0.0,105.0
1948,40.0,0,768,8.0,105.0
1949,58.0,0,192,5.0,105.0
1950,58.0,240,192,4.0,116.0
1951,57.0,0,192,5.0,125.0
1952,57.0,0,192,4.0,127.0
1953,53.0,0,384,2.0,105.0
1954,53.0,0,384,7.0,105.0
1955,48.0,0,384,6.0,105.0
1956,41.0,0,384,8.0,105.0
1957,60.0,240,192,5.0,105.0
1958,60.0,0,192,4.0,105.0
1959,65.0,0,192,4.0,105.0
1960,65.0,240,192,5.0,105.0
1961,41.0,0,384,8.0,105.0
1962,65.0,0,384,6.0,105.0
1963,53.0,0,384,7.0,105.0
1964,53.0,0,384,2.0,105.0
1965,69.0,0,192,5.0,105.0
1966,69.0,240,192,4.0,105.0
1967,72.0,240,192,4.0,105.0
1968,72.0,0,192,5.0,105.0
1969,41.0,0,384,8.0,105.0
1970,65.0,0,384,6.0,105.0
1971,53.0,0,384,2.0,105.0
1972,53.0,0,384,7.0,105.0
1973,72.0,240,192,4.0,105.0
1974,72.0,0,192,5.0,105.0
1975,81.0,0,1536,0.0,105.0
1976,72.0,0,1536,1.0,105.0
1977,65.0,0,1536,3.0,105.0
1978,77.0,240,1536,1.0,105.0
1979,72.0,240,192,5.0,105.0
1980,72.0,0,192,4.0,105.0
1981,41.0,0,384,8.0,105.0
1982,53.0,0,384,7.0,105.0
1983,53.0,0,384,2.0,105.0
1984,65.0,0,384,6.0,105.0
1985,72.0,0,192,5.0,105.0
1986,72.0,240,192,4.0,105.0
1987,55.0,240,192,5.0,125.0
1988,55.0,0,192,4.0,125.0
1989,41.0,0,384,8.0,105.0
1990,65.0,0,384,6.0,105.0
1991,53.0,0,384,2.0,105.0
1992,53.0,0,384,7.0,105.0
1993,58.0,0,192,5.0,105.0
1994,58.0,240,192,4.0,105.0
1995,64.0,0,192,4.0,105.0
1996,64.0,0,192,5.0,105.0
1997,53.0,0,384,7.0,105.0
1998,65.0,0,384,6.0,105.0
1999,53.0,0,384,2.0,105.0
2000,41.0,240,384,8.0,105.0
2001,67.0,0,192,5.0,105.0
2002,67.0,240,192,4.0,105.0
2003,70.0,240,192,5.0,105.0
2004,70.0,0,192,4.0,105.0
2005,65.0,0,384,6.0,105.0
2006,41.0,0,384,8.0,105.0
2007,53.0,0,384,7.0,105.0
2008,53.0,0,384,2.0,105.0
2009,70.0,240,192,4.0,105.0
2010,70.0,0,192,5.0,105.0
2011,79.0,0,1536,0.0,105.0
2012,70.0,0,1536,1.0,105.0
2013,65.0,0,1536,3.0,105.0
2014,76.0,0,1536,1.0,105.0
2015,70.0,0,192,4.0,105.0
2016,70.0,0,192,5.0,105.0
2017,53.0,0,384,7.0,105.0
2018,53.0,240,384,2.0,105.0
2019,41.0,0,384,8.0,105.0
2020,65.0,0,384,6.0,105.0
2021,70.0,0,192,5.0,105.0
2022,70.0,240,192,4.0,105.0
2023,69.0,0,192,5.0,125.0
2024,69.0,0,192,4.0,125.0
2025,53.0,0,384,2.0,105.0
2026,53.0,0,384,7.0,105.0
2027,41.0,0,384,8.0,105.0
2028,65.0,0,384,6.0,105.0
2029,72.0,240,192,5.0,105.0
2030,72.0,0,192,4.0,105.0
2031,77.0,0,192,4.0,105.0
2032,77.0,240,192,5.0,105.0
2033,65.0,0,768,3.0,105.0
2034,65.0,0,384,6.0,105.0
2035,53.0,0,384,7.0,105.0
2036,41.0,0,384,8.0,105.0
2037,53.0,0,384,2.0,105.0
2038,81.0,240,192,5.0,105.0
2039,81.0,0,192,4.0,105.0
2040,84.0,0,192,4.0,105.0
2041,84.0,0,192,5.0,105.0
2042,65.0,240,384,3.0,105.0
2043,41.0,0,384,8.0,105.0
2044,53.0,0,384,2.0,105.0
2045,53.0,0,384,7.0,105.0
2046,65.0,0,384,6.0,105.0
2047,84.0,240,192,5.0,105.0
2048,84.0,0,192,4.0,105.0
2049,84.0,0,1536,0.0,105.0
2050,69.0,240,1536,1.0,105.0
2051,77.0,0,1536,1.0,105.0
2052,84.0,0,192,5.0,105.0
2053,84.0,0,192,4.0,105.0
2054,41.0,0,384,8.0,105.0
2055,65.0,240,384,3.0,105.0
2056,53.0,0,384,2.0,105.0
2057,65.0,0,384,6.0,105.0
2058,53.0,0,384,7.0,105.0
2059,84.0,0,192,4.0,105.0
2060,84.0,240,192,5.0,105.0
2061,67.0,0,192,5.0,125.0
2062,67.0,240,192,4.0,125.0
2063,53.0,0,384,2.0,105.0
2064,65.0,0,384,6.0,105.0
2065,41.0,0,384,8.0,105.0
2066,53.0,0,384,7.0,105.0
2067,70.0,240,192,4.0,105.0
2068,70.0,0,192,5.0,105.0
2069,76.0,0,192,4.0,105.0
2070,76.0,0,192,5.0,105.0
2071,65.0,0,768,3.0,105.0
2072,53.0,0,384,7.0,105.0
2073,41.0,240,384,8.0,105.0
2074,53.0,0,384,2.0,105.0
2075,65.0,0,384,6.0,105.0
2076,79.0,240,192,4.0,105.0
2077,79.0,0,192,5.0,105.0
2078,82.0,240,192,5.0,105.0
2079,82.0,0,192,4.0,105.0
2080,53.0,0,384,7.0,105.0
2081,65.0,0,384,3.0,105.0
2082,53.0,0,384,2.0,105.0
2083,65.0,0,384,6.0,105.0
2084,41.0,0,384,8.0,105.0
2085,82.0,240,192,5.0,105.0
2086,82.0,0,192,4.0,105.0
2087,82.0,0,1536,1.0,105.0
2088,79.0,0,1536,1.0,105.0
2089,88.0,0,1536,0.0,105.0
2090,82.0,0,192,5.0,105.0
2091,82.0,0,192,4.0,105.0
2092,53.0,0,384,7.0,105.0
2093,41.0,240,384,8.0,105.0
2094,65.0,0,384,6.0,105.0
2095,65.0,0,384,3.0,105.0
2096,53.0,0,384,2.0,105.0
2097,82.0,0,192,5.0,105.0
2098,82.0,240,192,4.0,105.0
2099,81.0,0,384,1.0,105.0
2100,41.0,0,384,8.0,105.0
2101,89.0,0,384,0.0,105.0
2102,77.0,240,384,1.0,105.0
2103,53.0,0,384,7.0,105.0
2104,65.0,0,384,6.0,105.0
2105,81.0,0,384,5.0,105.0
2106,81.0,0,384,4.0,105.0
2107,65.0,0,384,3.0,105.0
2108,53.0,0,384,2.0,105.0
2109,65.0,0,384,3.0,105.0
2110,77.0,0,384,5.0,105.0
2111,69.0,0,384,5.0,105.0
2112,41.0,0,384,8.0,105.0
2113,81.0,0,384,1.0,105.0
2114,72.0,0,384,1.0,105.0
2115,69.0,0,384,4.0,105.0
2116,77.0,0,384,4.0,105.0
2117,53.0,0,384,2.0,105.0
2118,53.0,0,384,7.0,105.0
2119,65.0,0,384,6.0,105.0
2120,89.0,960,384,0.0,105.0
2121,72.0,0,768,1.0,92.0
2122,65.0,0,768,4.0,92.0
2123,41.0,0,768,2.0,105.0
2124,65.0,0,768,3.0,92.0
2125,69.0,960,768,1.0,92.0
2126,53.0,0,768,6.0,92.0
2127,57.0,0,768,5.0,92.0
2128,77.0,0,768,0.0,92.0
2129,29.0,0,768,8.0,92.0
2130,41.0,0,768,7.0,92.0
2131,57.0,0,768,4.0,92.0
2132,65.0,0,768,5.0,92.0
2133,77.0,1440,384,4.0,70.0
2134,70.0,480,384,6.0,58.0
2135,74.0,0,384,5.0,58.0
2136,70.0,0,384,6.0,58.0
2137,74.0,480,384,5.0,58.0
2138,70.0,480,384,6.0,58.0
2139,74.0,0,384,5.0,58.0
2140,77.0,0,1728,4.0,70.0
2141,74.0,0,384,5.0,58.0
2142,70.0,480,384,6.0,58.0
2143,76.0,0,120,4.0,70.0
2144,69.0,0,384,6.0,58.0
2145,72.0,480,384,5.0,58.0
2146,77.0,120,672,4.0,70.0
2147,69.0,360,384,6.0,58.0
2148,72.0,0,384,5.0,58.0
2149,76.0,0,120,4.0,70.0
2150,72.0,0,384,5.0,58.0
2151,69.0,480,384,6.0,58.0
2152,77.0,120,672,4.0,70.0
2153,69.0,0,384,6.0,58.0
2154,72.0,360,384,5.0,58.0
2155,67.0,480,384,6.0,58.0
2156,82.0,0,720,4.0,92.0
2157,67.0,480,384,6.0,58.0
2158,79.0,240,192,4.0,70.0
2159,67.0,240,384,6.0,58.0
2160,70.0,0,1536,5.0,80.0
2161,67.0,480,384,6.0,58.0
2162,65.0,0,384,6.0,58.0
2163,65.0,480,384,6.0,58.0
2164,75.0,0,1920,4.0,70.0
2165,65.0,0,384,6.0,58.0
2166,70.0,480,1536,5.0,70.0
2167,65.0,480,384,6.0,58.0
2168,74.0,480,1344,4.0,70.0
2169,71.0,720,240,4.0,70.0
2170,72.0,240,384,4.0,70.0
2171,74.0,720,240,4.0,70.0
2172,75.0,240,384,4.0,70.0
2173,63.0,0,2304,6.0,58.0
2174,67.0,480,2304,5.0,58.0
2175,77.0,720,240,4.0,70.0
2176,78.0,240,384,4.0,70.0
2177,79.0,720,192,4.0,70.0
2178,53.0,240,384,6.0,58.0
2179,53.0,480,384,6.0,58.0
2180,53.0,480,384,6.0,58.0
2181,70.0,0,1440,4.0,70.0
2182,62.0,0,1440,5.0,58.0
2183,58.0,0,240,5.0,58.0
2184,74.0,480,240,4.0,70.0
2185,53.0,0,384,6.0,58.0
2186,72.0,0,192,4.0,70.0
2187,57.0,240,240,5.0,58.0
2188,53.0,0,384,6.0,58.0
2189,57.0,0,384,5.0,58.0
2190,72.0,240,480,4.0,70.0
2191,74.0,480,480,4.0,70.0
2192,75.0,480,480,4.0,70.0
2193,76.0,480,384,4.0,70.0
2194,70.0,480,384,6.0,70.0
2195,74.0,0,384,5.0,70.0
2196,70.0,480,384,6.0,70.0
2197,74.0,0,384,5.0,70.0
2198,74.0,0,384,5.0,70.0
2199,70.0,480,384,6.0,70.0
2200,74.0,0,384,5.0,70.0
2201,70.0,480,384,6.0,70.0
2202,77.0,0,2304,4.0,70.0
2203,69.0,0,384,6.0,70.0
2204,72.0,480,384,5.0,70.0
2205,72.0,0,384,5.0,70.0
2206,69.0,0,384,6.0,70.0
2207,78.0,480,480,4.0,70.0
2208,69.0,0,384,6.0,70.0
2209,72.0,480,384,5.0,70.0
2210,79.0,0,480,4.0,70.0
2211,72.0,0,384,5.0,70.0
2212,69.0,480,384,6.0,70.0
2213,81.0,0,480,4.0,70.0
2214,82.0,0,480,4.0,70.0
2215,81.0,480,480,4.0,70.0
2216,79.0,480,480,4.0,70.0
2217,78.0,480,480,4.0,70.0
2218,77.0,480,480,4.0,70.0
2219,67.0,0,2832,6.0,58.0
2220,76.0,480,480,4.0,70.0
2221,75.0,0,480,4.0,70.0
2222,74.0,480,384,4.0,70.0
2223,65.0,480,912,6.0,58.0
2224,70.0,480,3840,5.0,58.0
2225,63.0,480,384,6.0,58.0
2226,67.0,0,384,5.0,58.0
2227,71.0,0,432,4.0,70.0
2228,72.0,480,480,4.0,70.0
2229,75.0,480,480,4.0,70.0
2230,79.0,480,384,4.0,70.0
2231,70.0,0,1440,4.0,70.0
2232,62.0,0,1440,5.0,58.0
2233,74.0,1440,240,4.0,70.0
2234,65.0,0,240,5.0,58.0
2235,63.0,0,240,5.0,58.0
2236,53.0,480,1920,6.0,58.0
2237,72.0,240,240,4.0,70.0
2238,70.0,240,384,4.0,58.0
2239,58.0,0,384,6.0,58.0
2240,62.0,0,384,5.0,58.0
2241,65.0,480,480,1.0,80.0
2242,70.0,480,480,1.0,80.0
2243,72.0,480,480,1.0,80.0
2244,74.0,480,384,1.0,80.0
2245,53.0,480,480,2.0,80.0
2246,70.0,0,480,1.0,80.0
2247,74.0,0,480,1.0,80.0
2248,58.0,480,480,2.0,80.0
2249,60.0,480,384,2.0,80.0
2250,75.0,0,384,1.0,80.0
2251,46.0,0,384,8.0,58.0
2252,58.0,0,384,7.0,58.0
2253,58.0,0,384,7.0,58.0
2254,46.0,480,384,8.0,58.0
2255,58.0,480,384,7.0,58.0
2256,46.0,0,384,8.0,58.0
2257,77.0,480,1536,1.0,80.0
2258,62.0,0,1536,2.0,80.0
2259,46.0,480,384,8.0,58.0
2260,58.0,0,384,7.0,58.0
2261,76.0,0,120,1.0,80.0
2262,57.0,0,384,7.0,58.0
2263,45.0,480,384,8.0,58.0
2264,77.0,120,672,1.0,80.0
2265,45.0,360,384,8.0,58.0
2266,57.0,0,384,7.0,58.0
2267,76.0,480,120,1.0,80.0
2268,57.0,0,384,7.0,58.0
2269,45.0,0,384,8.0,58.0
2270,60.0,0,1536,2.0,80.0
2271,77.0,120,672,1.0,80.0
2272,45.0,360,384,8.0,58.0
2273,57.0,0,384,7.0,58.0
2274,82.0,0,240,1.0,92.0
2275,81.0,240,240,1.0,92.0
2276,58.0,0,480,2.0,92.0
2277,79.0,240,240,1.0,92.0
2278,60.0,0,240,2.0,92.0
2279,77.0,240,192,1.0,92.0
2280,62.0,0,192,2.0,92.0
2281,75.0,0,240,4.0,58.0
2282,63.0,0,240,5.0,58.0
2283,74.0,240,240,4.0,58.0
2284,62.0,0,240,5.0,58.0
2285,55.0,480,1536,7.0,58.0
2286,43.0,0,1536,8.0,58.0
2287,72.0,240,240,4.0,58.0
2288,60.0,0,240,5.0,58.0
2289,58.0,240,192,5.0,58.0
2290,70.0,0,192,4.0,58.0
2291,63.0,240,1872,2.0,80.0
2292,75.0,0,1872,1.0,92.0
2293,42.0,0,960,8.0,58.0
2294,54.0,0,960,7.0,58.0
2295,69.0,0,960,4.0,58.0
2296,57.0,240,960,5.0,58.0
2297,55.0,960,768,7.0,58.0
2298,62.0,0,768,2.0,80.0
2299,70.0,0,768,4.0,58.0
2300,74.0,0,768,1.0,80.0
2301,43.0,0,768,8.0,58.0
2302,58.0,0,768,5.0,58.0
2303,72.0,960,720,1.0,80.0
2304,39.0,0,768,8.0,58.0
2305,51.0,0,768,7.0,58.0
2306,74.0,720,80,1.0,80.0
2307,72.0,80,80,1.0,80.0
2308,71.0,80,80,1.0,80.0
2309,72.0,80,384,1.0,80.0
2310,55.0,0,1440,2.0,80.0
2311,59.0,0,384,2.0,80.0
2312,74.0,480,384,1.0,80.0
2313,60.0,0,384,2.0,80.0
2314,75.0,480,384,1.0,80.0
2315,51.0,0,480,7.0,58.0
2316,75.0,0,480,1.0,80.0
2317,39.0,480,480,8.0,58.0
2318,60.0,0,480,2.0,80.0
2319,77.0,0,480,1.0,80.0
2320,38.0,0,480,8.0,58.0
2321,62.0,0,480,2.0,80.0
2322,50.0,480,480,7.0,58.0
2323,36.0,0,384,8.0,58.0
2324,48.0,480,384,7.0,58.0
2325,63.0,0,384,2.0,80.0
2326,79.0,0,384,1.0,80.0
2327,41.0,480,480,8.0,58.0
2328,53.0,0,480,7.0,58.0
2329,52.0,0,480,7.0,58.0
2330,40.0,480,480,8.0,58.0
2331,53.0,0,480,7.0,58.0
2332,41.0,480,480,8.0,58.0
2333,74.0,0,1440,1.0,80.0
2334,58.0,0,1440,2.0,80.0
2335,60.0,480,240,2.0,80.0
2336,75.0,0,240,1.0,80.0
2337,58.0,240,192,2.0,80.0
2338,74.0,0,192,1.0,80.0
2339,52.0,0,480,7.0,58.0
2340,40.0,0,480,8.0,58.0
2341,57.0,0,384,2.0,70.0
2342,41.0,240,480,8.0,58.0
2343,53.0,0,480,7.0,58.0
2344,72.0,0,480,1.0,80.0
2345,74.0,480,480,1.0,80.0
2346,75.0,480,480,1.0,80.0
2347,76.0,480,384,1.0,80.0
2348,34.0,0,384,8.0,58.0
2349,46.0,0,384,7.0,58.0
2350,34.0,0,384,8.0,58.0
2351,46.0,480,384,7.0,58.0
2352,74.0,0,960,1.0,70.0
2353,62.0,0,960,5.0,58.0
2354,46.0,0,384,8.0,58.0
2355,58.0,0,384,7.0,58.0
2356,58.0,0,1536,3.0,58.0
2357,46.0,480,384,8.0,58.0
2358,58.0,0,384,7.0,58.0
2359,73.0,480,960,1.0,70.0
2360,61.0,0,960,5.0,58.0
2361,45.0,0,384,8.0,58.0
2362,57.0,0,384,7.0,58.0
2363,45.0,480,384,8.0,58.0
2364,57.0,0,384,7.0,58.0
2365,60.0,0,960,5.0,58.0
2366,72.0,480,960,1.0,70.0
2367,44.0,0,384,8.0,58.0
2368,56.0,480,384,7.0,58.0
2369,53.0,0,1536,3.0,58.0
2370,56.0,0,384,7.0,58.0
2371,44.0,480,384,8.0,58.0
2372,53.0,0,3840,6.0,58.0
2373,59.0,0,960,5.0,58.0
2374,71.0,0,960,1.0,70.0
2375,43.0,0,384,8.0,58.0
2376,55.0,0,384,7.0,58.0
2377,55.0,0,864,6.0,58.0
2378,55.0,0,384,7.0,58.0
2379,43.0,480,384,8.0,58.0
2380,77.0,0,4800,1.0,70.0
2381,65.0,0,2880,2.0,70.0
2382,65.0,480,4800,4.0,58.0
2383,89.0,0,2880,0.0,70.0
2384,55.0,0,384,7.0,58.0
2385,43.0,480,384,8.0,58.0
2386,55.0,0,720,6.0,58.0
2387,43.0,480,384,8.0,58.0
2388,55.0,0,384,7.0,58.0
2389,76.0,0,960,1.0,70.0
2390,64.0,0,960,2.0,70.0
2391,88.0,0,960,0.0,70.0
2392,64.0,0,960,4.0,58.0
2393,57.0,240,240,6.0,58.0
2394,54.0,0,384,7.0,58.0
2395,42.0,0,384,8.0,58.0
2396,46.0,480,2688,3.0,58.0
2397,42.0,480,384,8.0,58.0
2398,54.0,0,384,7.0,58.0
2399,70.0,0,2880,1.0,70.0
2400,75.0,0,960,1.0,70.0
2401,58.0,0,960,6.0,58.0
2402,63.0,0,960,4.0,58.0
2403,58.0,0,2880,2.0,70.0
2404,58.0,0,2880,5.0,58.0
2405,87.0,0,960,0.0,70.0
2406,63.0,240,960,2.0,70.0
2407,41.0,0,384,8.0,58.0
2408,53.0,0,384,7.0,58.0
2409,86.0,0,768,0.0,70.0
2410,71.0,0,768,1.0,70.0
2411,74.0,480,768,1.0,70.0
2412,59.0,0,768,2.0,70.0
2413,62.0,0,768,4.0,58.0
2414,56.0,0,768,6.0,58.0
2415,62.0,0,768,2.0,70.0
2416,59.0,0,768,5.0,58.0
2417,41.0,480,384,8.0,58.0
2418,53.0,0,384,7.0,58.0
2419,51.0,0,384,7.0,58.0
2420,39.0,0,384,8.0,58.0
2421,39.0,0,384,8.0,58.0
2422,51.0,480,384,7.0,58.0
2423,51.0,480,384,7.0,58.0
2424,39.0,0,384,8.0,58.0
2425,63.0,0,1440,4.0,58.0
2426,72.0,0,1440,1.0,70.0
2427,75.0,480,1440,1.0,70.0
2428,60.0,0,1440,5.0,58.0
2429,55.0,0,1536,6.0,58.0
2430,62.0,480,240,5.0,58.0
2431,77.0,0,240,1.0,70.0
2432,74.0,0,240,1.0,70.0
2433,65.0,0,240,4.0,58.0
2434,39.0,0,384,8.0,58.0
2435,51.0,0,384,7.0,58.0
2436,75.0,0,192,1.0,70.0
2437,79.0,0,192,1.0,70.0
2438,67.0,240,192,4.0,58.0
2439,63.0,0,192,5.0,58.0
2440,63.0,0,1920,2.0,70.0
2441,60.0,0,1920,2.0,70.0
2442,87.0,0,1920,0.0,70.0
2443,41.0,0,384,8.0,58.0
2444,53.0,0,384,7.0,58.0
2445,58.0,240,576,5.0,58.0
2446,62.0,0,576,4.0,58.0
2447,53.0,0,624,6.0,58.0
2448,62.0,0,720,2.0,70.0
2449,86.0,0,720,0.0,70.0
2450,74.0,0,720,1.0,70.0
2451,58.0,0,720,2.0,70.0
2452,70.0,0,720,1.0,70.0
2453,41.0,0,384,8.0,58.0
2454,53.0,480,384,7.0,58.0
2455,41.0,0,384,7.0,58.0
2456,29.0,480,384,8.0,58.0
2457,60.0,0,576,4.0,58.0
2458,57.0,0,576,5.0,58.0
2459,51.0,0,624,6.0,58.0
2460,60.0,0,720,2.0,70.0
2461,72.0,0,720,1.0,70.0
2462,84.0,0,720,0.0,70.0
2463,57.0,0,720,2.0,70.0
2464,69.0,0,720,1.0,70.0
2465,41.0,480,384,7.0,58.0
2466,29.0,0,384,8.0,58.0
2467,58.0,0,192,4.0,105.0
2468,58.0,0,192,5.0,105.0
2469,77.0,240,192,4.0,105.0
2470,77.0,0,192,5.0,105.0
2471,77.0,0,192,4.0,105.0
2472,77.0,240,192,5.0,105.0
2473,50.0,0,768,6.0,92.0
2474,70.0,0,768,1.0,92.0
2475,58.0,0,768,2.0,92.0
2476,46.0,480,768,7.0,105.0
2477,34.0,0,768,8.0,105.0
2478,82.0,0,768,0.0,92.0
2479,77.0,240,192,4.0,105.0
2480,77.0,0,192,5.0,105.0
2481,77.0,0,192,5.0,105.0
2482,77.0,240,192,4.0,105.0
2483,77.0,240,192,5.0,105.0
2484,77.0,0,192,4.0,105.0
2485,77.0,240,192,5.0,105.0
2486,77.0,0,192,4.0,105.0
2487,77.0,0,192,4.0,105.0
2488,77.0,240,192,5.0,105.0
2489,82.0,240,240,4.0,105.0
2490,82.0,0,240,5.0,105.0
2491,86.0,0,288,0.0,105.0
2492,58.0,0,288,2.0,105.0
2493,82.0,0,288,1.0,105.0
2494,62.0,0,288,2.0,105.0
2495,65.0,0,288,3.0,105.0
2496,74.0,0,288,1.0,105.0
2497,50.0,0,384,8.0,105.0
2498,86.0,0,144,5.0,105.0
2499,62.0,0,384,7.0,105.0
2500,62.0,0,384,6.0,92.0
2501,86.0,240,144,4.0,105.0
2502,84.0,0,144,4.0,105.0
2503,84.0,0,144,5.0,105.0
2504,81.0,0,288,1.0,105.0
2505,84.0,0,288,0.0,105.0
2506,72.0,240,288,1.0,105.0
2507,65.0,0,288,3.0,105.0
2508,60.0,0,288,2.0,105.0
2509,57.0,0,288,2.0,105.0
2510,81.0,240,144,4.0,105.0
2511,81.0,0,144,5.0,105.0
2512,51.0,0,384,8.0,105.0
2513,63.0,0,384,6.0,105.0
2514,63.0,0,384,7.0,105.0
2515,82.0,0,240,4.0,105.0
2516,82.0,0,240,5.0,105.0
2517,82.0,240,288,1.0,105.0
2518,58.0,0,288,2.0,105.0
2519,74.0,0,288,1.0,105.0
2520,86.0,0,288,0.0,105.0
2521,65.0,0,288,3.0,105.0
2522,62.0,0,288,2.0,105.0
2523,86.0,240,144,4.0,105.0
2524,86.0,0,144,5.0,105.0
2525,50.0,0,384,8.0,105.0
2526,62.0,0,384,7.0,105.0
2527,62.0,0,384,6.0,105.0
2528,84.0,0,144,4.0,105.0
2529,84.0,240,144,5.0,105.0
2530,65.0,0,288,3.0,105.0
2531,81.0,0,288,1.0,105.0
2532,72.0,0,288,1.0,105.0
2533,57.0,0,288,2.0,105.0
2534,60.0,0,288,2.0,105.0
2535,84.0,0,288,0.0,105.0
2536,63.0,0,384,7.0,105.0
2537,81.0,240,144,4.0,105.0
2538,63.0,0,384,6.0,105.0
2539,81.0,0,144,5.0,105.0
2540,51.0,0,384,8.0,105.0
2541,82.0,0,192,4.0,105.0
2542,82.0,0,192,5.0,105.0
2543,77.0,0,192,5.0,105.0
2544,77.0,240,192,4.0,105.0
2545,77.0,240,192,5.0,105.0
2546,77.0,0,192,4.0,105.0
2547,62.0,0,768,2.0,105.0
2548,62.0,0,768,6.0,105.0
2549,65.0,0,768,3.0,105.0
2550,58.0,0,768,2.0,105.0
2551,62.0,0,768,7.0,105.0
2552,82.0,0,768,1.0,105.0
2553,50.0,0,768,8.0,105.0
2554,86.0,240,768,0.0,105.0
2555,74.0,0,768,1.0,105.0
2556,77.0,0,192,4.0,105.0
2557,77.0,240,192,5.0,105.0
2558,77.0,240,192,4.0,105.0
2559,77.0,0,192,5.0,105.0
2560,77.0,0,192,5.0,105.0
2561,77.0,240,192,4.0,105.0
2562,77.0,240,192,4.0,105.0
2563,77.0,0,192,5.0,105.0
2564,77.0,240,192,5.0,105.0
2565,77.0,0,192,4.0,105.0
2566,82.0,0,240,4.0,105.0
2567,82.0,240,240,5.0,105.0
2568,58.0,0,288,2.0,105.0
2569,62.0,0,288,2.0,105.0
2570,74.0,0,288,1.0,105.0
2571,82.0,0,288,1.0,105.0
2572,86.0,0,288,0.0,105.0
2573,65.0,0,288,3.0,105.0
2574,86.0,240,144,5.0,105.0
2575,86.0,0,144,4.0,105.0
2576,62.0,0,384,6.0,105.0
2577,62.0,0,384,7.0,105.0
2578,50.0,0,384,8.0,105.0
2579,84.0,0,144,4.0,105.0
2580,84.0,0,144,5.0,105.0
2581,72.0,0,288,1.0,105.0
2582,81.0,0,288,1.0,105.0
2583,65.0,0,288,3.0,105.0
2584,84.0,240,288,0.0,105.0
2585,57.0,0,288,2.0,105.0
2586,60.0,0,288,2.0,105.0
2587,81.0,0,144,5.0,105.0
2588,51.0,0,384,8.0,105.0
2589,81.0,240,144,4.0,105.0
2590,63.0,0,384,7.0,105.0
2591,63.0,0,384,6.0,105.0
2592,82.0,0,240,4.0,105.0
2593,82.0,0,240,5.0,105.0
2594,74.0,0,288,1.0,105.0
2595,65.0,0,288,3.0,105.0
2596,86.0,0,288,0.0,105.0
2597,62.0,0,288,2.0,105.0
2598,82.0,0,288,1.0,105.0
2599,58.0,0,288,2.0,105.0
2600,86.0,0,144,5.0,105.0
2601,62.0,0,384,7.0,105.0
2602,86.0,240,144,4.0,105.0
2603,50.0,240,384,8.0,105.0
2604,62.0,0,384,6.0,105.0
2605,84.0,0,144,4.0,105.0
2606,84.0,0,144,5.0,105.0
2607,65.0,0,288,3.0,105.0
2608,72.0,0,288,1.0,105.0
2609,81.0,0,288,1.0,105.0
2610,84.0,0,288,0.0,105.0
2611,60.0,0,288,2.0,105.0
2612,57.0,0,288,2.0,105.0
2613,81.0,0,144,5.0,105.0
2614,81.0,240,144,4.0,105.0
2615,63.0,0,384,7.0,105.0
2616,51.0,240,384,8.0,105.0
2617,63.0,0,384,6.0,105.0
2618,82.0,0,192,4.0,105.0
2619,82.0,0,192,5.0,105.0
2620,77.0,240,192,4.0,105.0
2621,77.0,0,192,5.0,105.0
2622,77.0,240,192,4.0,105.0
2623,77.0,0,192,5.0,105.0
2624,62.0,0,768,7.0,105.0
2625,74.0,0,768,1.0,105.0
2626,62.0,0,768,2.0,105.0
2627,58.0,0,768,2.0,105.0
2628,62.0,0,768,6.0,105.0
2629,82.0,240,768,1.0,105.0
2630,65.0,0,768,3.0,105.0
2631,50.0,0,768,8.0,105.0
2632,86.0,0,768,0.0,105.0
2633,77.0,240,192,5.0,105.0
2634,77.0,0,192,4.0,105.0
2635,77.0,240,192,4.0,105.0
2636,77.0,0,192,5.0,105.0
2637,77.0,240,192,5.0,105.0
2638,77.0,0,192,4.0,105.0
2639,77.0,0,192,4.0,105.0
2640,77.0,240,192,5.0,105.0
2641,77.0,240,192,4.0,105.0
2642,77.0,0,192,5.0,105.0
2643,82.0,0,240,5.0,105.0
2644,82.0,0,240,4.0,105.0
2645,65.0,240,288,3.0,105.0
2646,74.0,0,288,1.0,105.0
2647,82.0,0,288,1.0,105.0
2648,86.0,0,288,0.0,105.0
2649,58.0,0,288,2.0,105.0
2650,62.0,0,288,2.0,105.0
2651,62.0,0,384,6.0,105.0
2652,50.0,0,384,8.0,105.0
2653,62.0,0,384,7.0,105.0
2654,86.0,240,144,5.0,105.0
2655,86.0,0,144,4.0,105.0
2656,84.0,0,144,5.0,105.0
2657,84.0,0,144,4.0,105.0
2658,65.0,0,288,3.0,105.0
2659,84.0,0,288,0.0,105.0
2660,57.0,240,288,2.0,105.0
2661,81.0,0,288,1.0,105.0
2662,60.0,0,288,2.0,105.0
2663,72.0,0,288,1.0,105.0
2664,81.0,0,144,5.0,105.0
2665,63.0,0,384,6.0,105.0
2666,81.0,240,144,4.0,105.0
2667,51.0,0,384,8.0,105.0
2668,63.0,0,384,7.0,105.0
2669,82.0,240,240,5.0,105.0
2670,82.0,0,240,4.0,105.0
2671,58.0,0,288,2.0,105.0
2672,74.0,0,288,1.0,105.0
2673,82.0,0,288,1.0,105.0
2674,62.0,0,288,2.0,105.0
2675,65.0,0,288,3.0,105.0
2676,86.0,0,288,0.0,105.0
2677,50.0,0,384,8.0,105.0
2678,62.0,0,384,7.0,105.0
2679,86.0,0,144,4.0,105.0
2680,86.0,240,144,5.0,105.0
2681,62.0,0,384,6.0,105.0
2682,84.0,0,144,4.0,105.0
2683,84.0,0,144,5.0,105.0
2684,60.0,0,288,2.0,105.0
2685,84.0,0,288,0.0,105.0
2686,57.0,0,288,2.0,105.0
2687,81.0,0,288,1.0,105.0
2688,65.0,240,288,3.0,105.0
2689,72.0,0,288,1.0,105.0
2690,51.0,0,384,8.0,105.0
2691,81.0,0,144,5.0,105.0
2692,63.0,0,384,7.0,105.0
2693,63.0,0,384,6.0,105.0
2694,81.0,240,144,4.0,105.0
2695,82.0,240,192,4.0,105.0
2696,82.0,0,192,5.0,105.0
2697,50.0,0,384,8.0,105.0
2698,62.0,0,384,7.0,105.0
2699,62.0,0,384,6.0,105.0
2700,70.0,0,384,3.0,105.0
2701,77.0,240,192,5.0,105.0
2702,77.0,0,192,4.0,105.0
2703,77.0,240,192,5.0,105.0
2704,77.0,0,192,4.0,105.0
2705,74.0,0,768,1.0,105.0
2706,82.0,0,768,1.0,105.0
2707,62.0,0,768,2.0,105.0
2708,58.0,0,768,2.0,105.0
2709,89.0,0,768,0.0,105.0
2710,77.0,240,192,5.0,105.0
2711,77.0,0,192,4.0,105.0
2712,79.0,0,192,4.0,105.0
2713,79.0,0,192,5.0,105.0
2714,63.0,0,384,7.0,105.0
2715,51.0,0,384,8.0,105.0
2716,63.0,0,384,6.0,105.0
2717,58.0,0,384,3.0,105.0
2718,75.0,240,192,4.0,105.0
2719,75.0,0,192,5.0,105.0
2720,75.0,240,192,5.0,105.0
2721,75.0,0,192,4.0,105.0
2722,79.0,0,768,1.0,105.0
2723,63.0,240,768,2.0,105.0
2724,67.0,0,768,2.0,105.0
2725,84.0,0,768,1.0,105.0
2726,87.0,0,768,0.0,105.0
2727,75.0,240,192,5.0,105.0
2728,75.0,0,192,4.0,105.0
2729,74.0,0,192,4.0,105.0
2730,74.0,240,192,5.0,105.0
2731,65.0,0,384,7.0,105.0
2732,53.0,0,384,8.0,105.0
2733,65.0,0,384,6.0,105.0
2734,65.0,0,384,3.0,105.0
2735,70.0,0,192,5.0,105.0
2736,70.0,240,192,4.0,105.0
2737,70.0,240,192,5.0,105.0
2738,70.0,0,192,4.0,105.0
2739,62.0,0,768,2.0,105.0
2740,65.0,0,768,2.0,105.0
2741,86.0,0,768,0.0,105.0
2742,82.0,0,768,1.0,105.0
2743,77.0,0,768,1.0,105.0
2744,70.0,0,192,5.0,105.0
2745,70.0,240,192,4.0,105.0
2746,77.0,0,192,5.0,105.0
2747,77.0,0,192,4.0,105.0
2748,53.0,0,384,6.0,105.0
2749,53.0,0,384,7.0,105.0
2750,41.0,0,384,8.0,105.0
2751,65.0,0,384,3.0,105.0
2752,69.0,0,192,4.0,105.0
2753,69.0,240,192,5.0,105.0
2754,69.0,240,192,5.0,105.0
2755,69.0,0,192,4.0,105.0
2756,63.0,0,768,2.0,105.0
2757,60.0,0,768,2.0,105.0
2758,84.0,0,768,0.0,105.0
2759,75.0,0,768,1.0,105.0
2760,81.0,240,768,1.0,105.0
2761,69.0,240,192,5.0,105.0
2762,69.0,0,192,4.0,105.0
2763,70.0,240,144,4.0,92.0
2764,62.0,0,384,2.0,92.0
2765,70.0,0,384,5.0,80.0
2766,82.0,0,384,1.0,92.0
2767,82.0,0,384,0.0,92.0
2768,58.0,0,384,6.0,92.0
2769,58.0,0,384,2.0,92.0
2770,46.0,0,384,8.0,92.0
2771,74.0,0,384,1.0,92.0
2772,58.0,0,384,3.0,92.0
2773,58.0,0,384,7.0,105.0
2774,65.0,240,240,4.0,92.0
2775,64.0,240,240,4.0,70.0
2776,65.0,240,240,4.0,70.0
2777,64.0,240,240,4.0,70.0
2778,65.0,240,240,4.0,70.0
2779,67.0,240,240,4.0,70.0
2780,65.0,240,192,4.0,70.0
2781,70.0,0,240,4.0,70.0
2782,58.0,0,240,5.0,70.0
2783,50.0,0,384,7.0,58.0
2784,74.0,240,144,4.0,70.0
2785,62.0,0,144,5.0,70.0
2786,53.0,240,384,6.0,58.0
2787,38.0,0,384,8.0,58.0
2788,60.0,0,144,5.0,70.0
2789,72.0,240,144,4.0,70.0
2790,51.0,0,384,7.0,58.0
2791,57.0,0,144,5.0,70.0
2792,69.0,240,144,4.0,70.0
2793,39.0,0,384,8.0,58.0
2794,58.0,0,240,5.0,70.0
2795,70.0,0,240,4.0,70.0
2796,53.0,0,768,6.0,58.0
2797,38.0,240,384,8.0,58.0
2798,74.0,240,144,4.0,70.0
2799,50.0,0,384,7.0,58.0
2800,62.0,0,144,5.0,70.0
2801,60.0,240,144,5.0,70.0
2802,72.0,0,144,4.0,70.0
2803,39.0,0,384,8.0,58.0
2804,57.0,240,144,5.0,70.0
2805,51.0,0,384,7.0,58.0
2806,69.0,0,144,4.0,70.0
2807,70.0,0,144,4.0,70.0
2808,58.0,0,144,5.0,70.0
2809,38.0,0,384,8.0,58.0
2810,53.0,0,864,6.0,58.0
2811,50.0,240,384,7.0,58.0
2812,65.0,240,240,5.0,70.0
2813,77.0,0,240,4.0,70.0
2814,76.0,240,240,4.0,70.0
2815,64.0,0,240,5.0,70.0
2816,65.0,0,240,5.0,70.0
2817,77.0,240,240,4.0,70.0
2818,64.0,240,240,5.0,70.0
2819,76.0,0,240,4.0,70.0
2820,77.0,0,240,4.0,70.0
2821,65.0,240,240,5.0,70.0
2822,67.0,0,240,5.0,70.0
2823,79.0,240,240,4.0,70.0
2824,65.0,240,192,5.0,70.0
2825,77.0,0,192,4.0,70.0
2826,58.0,0,240,5.0,70.0
2827,70.0,0,240,4.0,70.0
2828,38.0,240,384,8.0,58.0
2829,50.0,0,384,7.0,58.0
2830,53.0,0,384,6.0,58.0
2831,74.0,0,144,4.0,70.0
2832,62.0,240,144,5.0,70.0
2833,72.0,0,144,4.0,70.0
2834,60.0,0,144,5.0,70.0
2835,51.0,240,384,7.0,58.0
2836,39.0,0,384,8.0,58.0
2837,57.0,0,144,5.0,70.0
2838,69.0,240,144,4.0,70.0
2839,58.0,0,240,5.0,70.0
2840,70.0,0,240,4.0,70.0
2841,53.0,0,768,6.0,58.0
2842,74.0,240,144,4.0,70.0
2843,38.0,240,384,8.0,58.0
2844,62.0,0,144,5.0,70.0
2845,50.0,0,384,7.0,58.0
2846,72.0,0,144,4.0,70.0
2847,60.0,0,144,5.0,70.0
2848,57.0,0,144,5.0,70.0
2849,69.0,240,144,4.0,70.0
2850,51.0,0,384,7.0,58.0
2851,39.0,0,384,8.0,58.0
2852,70.0,0,144,4.0,70.0
2853,38.0,0,384,8.0,58.0
2854,50.0,0,384,7.0,58.0
2855,58.0,240,384,5.0,58.0
2856,53.0,240,864,6.0,58.0
2857,65.0,240,240,4.0,70.0
2858,64.0,240,240,4.0,70.0
2859,65.0,240,240,4.0,70.0
2860,64.0,240,240,4.0,70.0
2861,65.0,240,240,4.0,70.0
2862,67.0,240,240,4.0,70.0
2863,65.0,240,192,4.0,70.0
2864,77.0,0,192,4.0,105.0
2865,70.0,0,192,5.0,105.0
2866,82.0,0,288,1.0,105.0
2867,62.0,0,288,2.0,105.0
2868,58.0,0,288,2.0,105.0
2869,65.0,0,288,3.0,105.0
2870,86.0,0,288,0.0,105.0
2871,74.0,0,288,1.0,105.0
2872,50.0,240,384,8.0,105.0
2873,62.0,0,384,7.0,105.0
2874,62.0,0,384,6.0,105.0
2875,74.0,0,192,5.0,105.0
2876,77.0,240,192,4.0,105.0
2877,77.0,0,192,4.0,105.0
2878,72.0,0,192,5.0,105.0
2879,84.0,0,288,0.0,105.0
2880,65.0,0,288,3.0,105.0
2881,72.0,0,288,1.0,105.0
2882,81.0,0,288,1.0,105.0
2883,60.0,0,288,2.0,105.0
2884,57.0,240,288,2.0,105.0
2885,63.0,0,384,6.0,105.0
2886,63.0,0,384,7.0,105.0
2887,51.0,0,384,8.0,105.0
2888,69.0,0,192,5.0,105.0
2889,77.0,240,192,4.0,105.0
2890,77.0,240,192,4.0,105.0
2891,70.0,0,192,5.0,105.0
2892,82.0,0,288,1.0,105.0
2893,74.0,0,288,1.0,105.0
2894,86.0,0,288,0.0,105.0
2895,65.0,0,288,3.0,105.0
2896,62.0,0,288,2.0,105.0
2897,58.0,0,288,2.0,105.0
2898,62.0,0,384,7.0,105.0
2899,62.0,0,384,6.0,105.0
2900,50.0,0,384,8.0,105.0
2901,77.0,0,192,4.0,105.0
2902,74.0,240,192,5.0,105.0
2903,72.0,0,192,5.0,105.0
2904,77.0,240,192,4.0,105.0
2905,72.0,0,288,1.0,105.0
2906,81.0,0,288,1.0,105.0
2907,65.0,0,288,3.0,105.0
2908,60.0,0,288,2.0,105.0
2909,57.0,0,288,2.0,105.0
2910,84.0,0,288,0.0,105.0
2911,63.0,0,384,6.0,105.0
2912,51.0,0,384,8.0,105.0
2913,63.0,0,384,7.0,105.0
2914,77.0,0,192,4.0,105.0
2915,69.0,240,192,5.0,105.0
2916,77.0,0,192,4.0,105.0
2917,77.0,0,192,5.0,105.0
2918,70.0,0,384,3.0,105.0
2919,62.0,0,384,7.0,105.0
2920,62.0,0,384,6.0,105.0
2921,50.0,0,384,8.0,105.0
2922,82.0,240,192,5.0,105.0
2923,82.0,0,192,4.0,105.0
2924,82.0,0,192,4.0,105.0
2925,82.0,0,192,5.0,105.0
2926,89.0,0,768,0.0,105.0
2927,82.0,0,768,1.0,105.0
2928,74.0,0,768,1.0,105.0
2929,62.0,0,768,2.0,105.0
2930,58.0,240,768,2.0,105.0
2931,50.0,0,384,8.0,105.0
2932,62.0,240,384,7.0,105.0
2933,62.0,0,384,6.0,105.0
2934,82.0,0,192,4.0,105.0
2935,82.0,240,192,5.0,105.0
2936,72.0,0,192,5.0,105.0
2937,72.0,0,192,4.0,105.0
2938,63.0,0,384,6.0,105.0
2939,51.0,0,384,8.0,105.0
2940,58.0,240,384,3.0,105.0
2941,63.0,0,384,7.0,105.0
2942,79.0,0,192,5.0,105.0
2943,79.0,240,192,4.0,105.0
2944,79.0,0,192,4.0,105.0
2945,79.0,0,192,5.0,105.0
2946,79.0,0,768,1.0,105.0
2947,67.0,0,768,2.0,105.0
2948,63.0,0,768,2.0,105.0
2949,84.0,0,768,1.0,105.0
2950,87.0,0,768,0.0,105.0
2951,51.0,0,384,8.0,105.0
2952,63.0,0,384,7.0,105.0
2953,63.0,240,384,6.0,105.0
2954,79.0,0,192,5.0,105.0
2955,79.0,240,192,4.0,105.0
2956,77.0,0,192,4.0,105.0
2957,77.0,240,192,5.0,105.0
2958,65.0,0,384,6.0,105.0
2959,65.0,0,384,3.0,105.0
2960,65.0,0,384,7.0,105.0
2961,53.0,0,384,8.0,105.0
2962,74.0,0,192,5.0,105.0
2963,74.0,240,192,4.0,105.0
2964,74.0,0,192,5.0,105.0
2965,74.0,0,192,4.0,105.0
2966,77.0,0,768,1.0,105.0
2967,62.0,0,768,2.0,105.0
2968,65.0,0,768,2.0,105.0
2969,86.0,0,768,0.0,105.0
2970,82.0,0,768,1.0,105.0
2971,53.0,240,384,8.0,105.0
2972,65.0,0,384,7.0,105.0
2973,65.0,0,384,6.0,105.0
2974,74.0,0,192,4.0,105.0
2975,74.0,240,192,5.0,105.0
2976,77.0,0,192,5.0,105.0
2977,77.0,0,192,4.0,105.0
2978,53.0,240,384,7.0,105.0
2979,53.0,0,384,6.0,105.0
2980,41.0,0,384,8.0,105.0
2981,65.0,0,384,3.0,105.0
2982,69.0,0,192,4.0,105.0
2983,69.0,240,192,5.0,105.0
2984,69.0,0,192,5.0,105.0
2985,69.0,240,192,4.0,105.0
2986,60.0,0,768,2.0,105.0
2987,63.0,0,768,2.0,105.0
2988,81.0,0,768,1.0,105.0
2989,75.0,0,768,1.0,105.0
2990,84.0,0,768,0.0,105.0
2991,53.0,0,384,6.0,105.0
2992,53.0,0,384,7.0,105.0
2993,41.0,0,384,8.0,105.0
2994,69.0,240,192,5.0,105.0
2995,69.0,0,192,4.0,105.0
2996,46.0,0,180,7.0,125.0
2997,34.0,0,180,8.0,125.0
2998,74.0,0,288,1.0,105.0
2999,70.0,0,384,5.0,105.0
3000,58.0,0,384,6.0,105.0
3001,36.0,240,180,8.0,105.0
3002,48.0,0,180,7.0,105.0
3003,50.0,0,180,7.0,105.0
3004,38.0,0,180,8.0,105.0
3005,82.0,0,768,1.0,105.0
3006,70.0,240,288,1.0,105.0
3007,62.0,240,768,3.0,105.0
3008,62.0,0,768,2.0,105.0
3009,58.0,0,768,2.0,105.0
3010,58.0,0,288,3.0,105.0
3011,70.0,0,768,4.0,105.0
3012,82.0,0,768,0.0,105.0
3013,39.0,0,180,8.0,105.0
3014,51.0,240,180,7.0,105.0
3015,41.0,0,180,8.0,105.0
3016,53.0,0,180,7.0,105.0
3017,77.0,0,288,1.0,105.0
3018,70.0,0,768,6.0,105.0
3019,65.0,240,288,3.0,105.0
3020,74.0,0,768,5.0,105.0
3021,65.0,0,768,5.0,105.0
3022,43.0,240,180,8.0,105.0
3023,55.0,0,180,7.0,105.0
3024,45.0,0,180,8.0,105.0
3025,57.0,240,180,7.0,105.0
3026,70.0,0,192,6.0,105.0
3027,65.0,0,288,3.0,105.0
3028,62.0,0,288,2.0,105.0
3029,82.0,0,288,0.0,105.0
3030,74.0,0,288,1.0,105.0
3031,77.0,0,288,1.0,105.0
3032,58.0,0,288,2.0,105.0
3033,65.0,0,384,5.0,105.0
3034,74.0,0,384,5.0,105.0
3035,58.0,0,180,7.0,105.0
3036,46.0,0,180,8.0,105.0
3037,82.0,240,192,4.0,116.0
3038,70.0,0,192,6.0,105.0
3039,75.0,0,192,5.0,105.0
3040,65.0,0,192,5.0,105.0
3041,72.0,0,192,6.0,105.0
3042,81.0,0,192,4.0,127.0
3043,60.0,0,288,2.0,105.0
3044,55.0,0,288,2.0,105.0
3045,72.0,0,288,1.0,105.0
3046,81.0,240,288,0.0,105.0
3047,65.0,0,192,5.0,105.0
3048,84.0,0,192,4.0,116.0
3049,72.0,0,192,6.0,105.0
3050,75.0,240,192,5.0,105.0
3051,75.0,0,192,5.0,105.0
3052,87.0,0,192,4.0,116.0
3053,65.0,0,192,5.0,105.0
3054,72.0,240,192,6.0,105.0
3055,57.0,0,288,2.0,105.0
3056,53.0,0,288,2.0,105.0
3057,41.0,0,768,8.0,105.0
3058,53.0,0,768,7.0,105.0
3059,69.0,0,288,1.0,105.0
3060,77.0,0,288,0.0,105.0
3061,75.0,0,192,5.0,105.0
3062,65.0,0,192,5.0,105.0
3063,84.0,0,192,4.0,116.0
3064,72.0,240,192,6.0,105.0
3065,75.0,0,192,5.0,105.0
3066,65.0,0,192,5.0,105.0
3067,72.0,0,192,6.0,105.0
3068,87.0,240,192,4.0,116.0
3069,65.0,0,1152,3.0,105.0
3070,89.0,0,288,0.0,105.0
3071,65.0,0,288,2.0,105.0
3072,81.0,0,288,1.0,105.0
3073,77.0,0,1248,1.0,105.0
3074,57.0,0,288,2.0,105.0
3075,84.0,240,192,4.0,116.0
3076,72.0,0,192,6.0,105.0
3077,65.0,0,192,5.0,105.0
3078,75.0,0,192,5.0,105.0
3079,65.0,0,192,5.0,105.0
3080,75.0,0,192,5.0,105.0
3081,72.0,0,192,6.0,105.0
3082,81.0,0,192,4.0,116.0
3083,77.0,240,288,1.0,105.0
3084,57.0,0,288,2.0,105.0
3085,65.0,0,288,2.0,105.0
3086,89.0,0,288,0.0,105.0
3087,65.0,0,288,3.0,105.0
3088,81.0,0,288,1.0,105.0
3089,29.0,0,180,8.0,105.0
3090,41.0,0,180,7.0,105.0
3091,84.0,240,192,4.0,116.0
3092,72.0,0,192,6.0,105.0
3093,65.0,0,192,5.0,105.0
3094,75.0,0,192,5.0,105.0
3095,34.0,0,180,8.0,125.0
3096,46.0,240,180,7.0,125.0
3097,70.0,0,192,6.0,105.0
3098,74.0,0,192,5.0,105.0
3099,65.0,0,192,5.0,105.0
3100,74.0,0,288,1.0,105.0
3101,48.0,0,180,7.0,105.0
3102,36.0,240,180,8.0,105.0
3103,74.0,0,192,5.0,105.0
3104,65.0,0,192,5.0,105.0
3105,70.0,0,192,6.0,105.0
3106,50.0,0,180,7.0,105.0
3107,38.0,0,180,8.0,105.0
3108,70.0,0,192,6.0,105.0
3109,65.0,0,192,5.0,105.0
3110,74.0,0,192,5.0,105.0
3111,82.0,0,768,4.0,116.0
3112,70.0,240,288,1.0,105.0
3113,58.0,0,288,3.0,105.0
3114,62.0,0,768,3.0,105.0
3115,39.0,0,180,8.0,105.0
3116,51.0,240,180,7.0,105.0
3117,65.0,0,192,5.0,105.0
3118,74.0,0,192,5.0,105.0
3119,70.0,0,192,6.0,105.0
3120,53.0,0,180,7.0,105.0
3121,41.0,0,180,8.0,105.0
3122,86.0,0,1152,0.0,105.0
3123,58.0,0,1152,2.0,105.0
3124,65.0,0,192,5.0,105.0
3125,74.0,0,192,5.0,105.0
3126,62.0,0,1152,2.0,105.0
3127,70.0,0,192,6.0,105.0
3128,65.0,0,288,3.0,105.0
3129,77.0,240,288,1.0,105.0
3130,82.0,0,1248,1.0,105.0
3131,43.0,0,180,8.0,105.0
3132,55.0,240,180,7.0,105.0
3133,70.0,0,192,6.0,105.0
3134,74.0,0,192,5.0,105.0
3135,65.0,0,192,5.0,105.0
3136,45.0,0,180,8.0,105.0
3137,57.0,0,180,7.0,105.0
3138,82.0,0,192,4.0,116.0
3139,74.0,0,192,5.0,105.0
3140,70.0,0,192,6.0,105.0
3141,65.0,0,192,5.0,105.0
3142,74.0,0,288,1.0,105.0
3143,58.0,0,288,2.0,105.0
3144,62.0,240,288,2.0,105.0
3145,65.0,0,288,3.0,105.0
3146,77.0,0,288,1.0,105.0
3147,82.0,0,288,0.0,105.0
3148,58.0,0,180,7.0,105.0
3149,46.0,0,180,8.0,105.0
3150,70.0,0,192,6.0,105.0
3151,74.0,240,192,5.0,105.0
3152,65.0,0,192,5.0,105.0
3153,81.0,0,192,4.0,127.0
3154,75.0,0,192,5.0,105.0
3155,72.0,0,192,6.0,105.0
3156,65.0,0,192,5.0,105.0
3157,81.0,0,288,0.0,105.0
3158,55.0,240,288,2.0,105.0
3159,60.0,0,288,2.0,105.0
3160,72.0,0,288,1.0,105.0
3161,65.0,0,192,5.0,105.0
3162,75.0,0,192,5.0,105.0
3163,72.0,0,192,6.0,105.0
3164,84.0,240,192,4.0,116.0
3165,72.0,0,192,6.0,105.0
3166,75.0,0,192,5.0,105.0
3167,65.0,0,192,5.0,105.0
3168,87.0,0,192,4.0,116.0
3169,41.0,0,768,8.0,105.0
3170,69.0,240,288,1.0,105.0
3171,53.0,0,288,2.0,105.0
3172,53.0,0,768,7.0,105.0
3173,77.0,0,288,0.0,105.0
3174,57.0,0,288,2.0,105.0
3175,84.0,0,192,4.0,116.0
3176,72.0,240,192,6.0,105.0
3177,65.0,0,192,5.0,105.0
3178,75.0,0,192,5.0,105.0
3179,75.0,0,192,5.0,105.0
3180,65.0,0,1152,3.0,105.0
3181,87.0,240,192,4.0,116.0
3182,65.0,0,192,5.0,105.0
3183,72.0,0,192,6.0,105.0
3184,81.0,0,288,1.0,105.0
3185,89.0,0,288,0.0,105.0
3186,57.0,0,288,2.0,105.0
3187,65.0,0,288,2.0,105.0
3188,77.0,0,1248,1.0,105.0
3189,72.0,0,192,6.0,105.0
3190,84.0,0,192,4.0,116.0
3191,65.0,0,192,5.0,105.0
3192,75.0,240,192,5.0,105.0
3193,81.0,0,192,4.0,116.0
3194,65.0,0,192,5.0,105.0
3195,75.0,0,192,5.0,105.0
3196,72.0,0,192,6.0,105.0
3197,81.0,0,288,1.0,105.0
3198,89.0,240,288,0.0,105.0
3199,77.0,0,288,1.0,105.0
3200,65.0,0,288,2.0,105.0
3201,57.0,0,288,2.0,105.0
3202,65.0,0,288,3.0,105.0
3203,29.0,0,180,8.0,105.0
3204,41.0,0,180,7.0,105.0
3205,65.0,0,192,5.0,105.0
3206,72.0,0,192,6.0,105.0
3207,84.0,0,192,4.0,116.0
3208,75.0,240,192,5.0,105.0
3209,46.0,0,180,7.0,125.0
3210,34.0,0,180,8.0,125.0
3211,70.0,0,192,6.0,105.0
3212,74.0,0,192,5.0,105.0
3213,65.0,0,192,5.0,105.0
3214,74.0,0,288,1.0,105.0
3215,36.0,0,180,8.0,105.0
3216,48.0,0,180,7.0,105.0
3217,74.0,240,192,5.0,105.0
3218,70.0,0,192,6.0,105.0
3219,65.0,0,192,5.0,105.0
3220,50.0,0,180,7.0,105.0
3221,38.0,0,180,8.0,105.0
3222,65.0,0,192,5.0,105.0
3223,74.0,0,192,5.0,105.0
3224,70.0,0,192,6.0,105.0
3225,82.0,0,768,4.0,116.0
3226,58.0,0,288,3.0,105.0
3227,70.0,240,288,1.0,105.0
3228,62.0,240,768,3.0,105.0
3229,51.0,0,180,7.0,105.0
3230,39.0,0,180,8.0,105.0
3231,70.0,0,192,6.0,105.0
3232,65.0,240,192,5.0,105.0
3233,74.0,0,192,5.0,105.0
3234,41.0,0,180,8.0,105.0
3235,53.0,0,180,7.0,105.0
3236,74.0,0,192,5.0,105.0
3237,86.0,0,1152,0.0,105.0
3238,70.0,0,192,6.0,105.0
3239,58.0,0,1152,2.0,105.0
3240,65.0,0,192,5.0,105.0
3241,62.0,0,1152,2.0,105.0
3242,77.0,240,288,1.0,105.0
3243,65.0,0,288,3.0,105.0
3244,82.0,0,1248,1.0,105.0
3245,43.0,0,180,8.0,105.0
3246,55.0,0,180,7.0,105.0
3247,65.0,0,192,5.0,105.0
3248,74.0,0,192,5.0,105.0
3249,70.0,240,192,6.0,105.0
3250,45.0,0,180,8.0,105.0
3251,57.0,0,180,7.0,105.0
3252,74.0,0,192,5.0,105.0
3253,65.0,0,192,5.0,105.0
3254,82.0,0,192,4.0,116.0
3255,70.0,0,192,6.0,105.0
3256,58.0,240,288,2.0,105.0
3257,62.0,0,288,2.0,105.0
3258,65.0,0,288,3.0,105.0
3259,82.0,0,288,0.0,105.0
3260,74.0,0,288,1.0,105.0
3261,77.0,0,288,1.0,105.0
3262,46.0,0,180,8.0,105.0
3263,58.0,240,180,7.0,105.0
3264,74.0,0,192,5.0,105.0
3265,65.0,0,192,5.0,105.0
3266,70.0,0,192,6.0,105.0
3267,81.0,0,192,4.0,127.0
3268,72.0,0,192,6.0,105.0
3269,65.0,0,192,5.0,105.0
3270,75.0,0,192,5.0,105.0
3271,60.0,0,288,2.0,105.0
3272,55.0,0,288,2.0,105.0
3273,81.0,0,288,0.0,105.0
3274,72.0,0,288,1.0,105.0
3275,75.0,240,192,5.0,105.0
3276,84.0,0,192,4.0,116.0
3277,65.0,0,192,5.0,105.0
3278,72.0,0,192,6.0,105.0
3279,72.0,0,192,6.0,105.0
3280,65.0,240,192,5.0,105.0
3281,75.0,0,192,5.0,105.0
3282,87.0,0,192,4.0,116.0
3283,69.0,0,288,1.0,105.0
3284,57.0,0,288,2.0,105.0
3285,77.0,0,288,0.0,105.0
3286,53.0,0,288,2.0,105.0
3287,53.0,240,768,7.0,105.0
3288,41.0,0,768,8.0,105.0
3289,75.0,240,192,5.0,105.0
3290,84.0,0,192,4.0,116.0
3291,65.0,0,192,5.0,105.0
3292,72.0,0,192,6.0,105.0
3293,75.0,0,192,5.0,105.0
3294,87.0,0,192,4.0,116.0
3295,72.0,0,192,6.0,105.0
3296,65.0,0,192,5.0,105.0
3297,65.0,0,1152,3.0,105.0
3298,89.0,240,288,0.0,105.0
3299,81.0,0,288,1.0,105.0
3300,65.0,0,288,2.0,105.0
3301,77.0,0,1248,1.0,105.0
3302,57.0,0,288,2.0,105.0
3303,75.0,240,192,5.0,105.0
3304,65.0,0,192,5.0,105.0
3305,72.0,0,192,6.0,105.0
3306,84.0,0,192,4.0,116.0
3307,65.0,0,192,5.0,105.0
3308,72.0,0,192,6.0,105.0
3309,81.0,0,192,4.0,116.0
3310,75.0,0,192,5.0,105.0
3311,89.0,0,288,0.0,105.0
3312,65.0,0,288,2.0,105.0
3313,65.0,0,288,3.0,105.0
3314,57.0,0,288,2.0,105.0
3315,81.0,240,288,1.0,105.0
3316,77.0,0,288,1.0,105.0
3317,75.0,0,192,5.0,105.0
3318,65.0,0,192,5.0,105.0
3319,29.0,0,192,8.0,105.0
3320,72.0,240,192,6.0,105.0
3321,84.0,0,192,4.0,116.0
3322,41.0,0,192,7.0,105.0
3323,82.0,0,384,0.0,105.0
3324,70.0,240,384,6.0,105.0
3325,74.0,0,384,5.0,105.0
3326,58.0,0,384,2.0,105.0
3327,62.0,0,384,2.0,105.0
3328,82.0,0,384,4.0,116.0
3329,82.0,0,384,1.0,105.0
3330,58.0,0,384,3.0,105.0
3331,46.0,0,384,7.0,105.0
3332,74.0,0,384,1.0,105.0
3333,62.0,0,384,3.0,105.0
3334,65.0,0,384,5.0,105.0
3335,34.0,0,384,8.0,105.0
3336,62.0,0,384,5.0,105.0
3337,46.0,960,384,8.0,105.0
3338,70.0,0,384,4.0,116.0
3339,62.0,0,384,4.0,116.0
3340,65.0,0,384,3.0,105.0
3341,62.0,0,384,3.0,105.0
3342,82.0,0,384,4.0,116.0
3343,70.0,0,384,5.0,105.0
3344,58.0,0,384,2.0,105.0
3345,74.0,0,384,1.0,105.0
3346,82.0,0,384,5.0,105.0
3347,58.0,0,384,7.0,105.0
3348,86.0,0,384,0.0,105.0
3349,70.0,0,384,6.0,105.0
3350,77.0,0,384,1.0,105.0
3351,74.0,0,768,1.0,105.0
3352,58.0,0,768,5.0,92.0
3353,62.0,960,768,3.0,105.0
3354,58.0,0,768,3.0,105.0
3355,70.0,0,768,1.0,105.0
3356,34.0,0,768,8.0,105.0
3357,58.0,0,768,4.0,105.0
3358,46.0,0,768,7.0,105.0
3359,46.0,0,768,2.0,105.0
3360,58.0,0,768,6.0,92.0
3361,82.0,0,768,0.0,105.0
3362,62.0,1440,384,4.0,70.0
3363,67.0,0,288,4.0,70.0
3364,55.0,480,768,7.0,58.0
3365,43.0,0,768,8.0,58.0
3366,67.0,480,288,5.0,58.0
3367,70.0,0,288,4.0,70.0
3368,58.0,0,288,6.0,58.0
3369,55.0,0,768,2.0,70.0
3370,67.0,480,288,5.0,58.0
3371,58.0,0,288,6.0,58.0
3372,74.0,0,288,4.0,70.0
3373,79.0,480,288,4.0,70.0
3374,67.0,0,288,5.0,58.0
3375,58.0,0,288,6.0,58.0
3376,43.0,480,768,8.0,58.0
3377,64.0,0,288,5.0,58.0
3378,55.0,0,768,2.0,70.0
3379,61.0,480,288,6.0,58.0
3380,55.0,0,768,7.0,58.0
3381,82.0,0,960,4.0,70.0
3382,61.0,480,288,6.0,58.0
3383,81.0,0,288,4.0,70.0
3384,64.0,0,288,5.0,58.0
3385,73.0,0,144,5.0,58.0
3386,73.0,480,144,4.0,105.0
3387,69.0,0,288,3.0,105.0
3388,85.0,0,288,0.0,105.0
3389,81.0,0,288,1.0,105.0
3390,55.0,0,288,2.0,105.0
3391,76.0,0,288,1.0,105.0
3392,43.0,0,384,8.0,105.0
3393,55.0,0,384,7.0,105.0
3394,76.0,0,144,5.0,92.0
3395,76.0,240,144,4.0,105.0
3396,74.0,240,240,4.0,105.0
3397,74.0,0,240,5.0,92.0
3398,81.0,0,288,1.0,105.0
3399,86.0,0,288,0.0,105.0
3400,69.0,0,288,3.0,105.0
3401,62.0,0,288,3.0,105.0
3402,74.0,0,288,1.0,105.0
3403,54.0,0,288,2.0,105.0
3404,42.0,0,384,8.0,105.0
3405,69.0,0,864,6.0,58.0
3406,54.0,0,384,7.0,105.0
3407,78.0,0,144,5.0,92.0
3408,78.0,240,144,4.0,105.0
3409,76.0,0,144,5.0,92.0
3410,76.0,0,144,4.0,105.0
3411,76.0,0,288,1.0,105.0
3412,81.0,0,288,1.0,105.0
3413,69.0,0,288,3.0,105.0
3414,55.0,0,288,2.0,105.0
3415,85.0,0,288,0.0,105.0
3416,73.0,0,144,5.0,92.0
3417,55.0,0,384,7.0,105.0
3418,43.0,0,384,8.0,105.0
3419,73.0,240,144,4.0,105.0
3420,74.0,0,240,4.0,105.0
3421,74.0,0,240,5.0,92.0
3422,74.0,0,288,1.0,105.0
3423,54.0,0,288,2.0,105.0
3424,69.0,240,768,6.0,105.0
3425,81.0,0,288,1.0,105.0
3426,62.0,0,288,3.0,105.0
3427,69.0,0,288,3.0,105.0
3428,86.0,0,288,0.0,105.0
3429,78.0,0,144,5.0,92.0
3430,78.0,240,144,4.0,105.0
3431,42.0,240,384,8.0,105.0
3432,54.0,0,384,7.0,105.0
3433,76.0,0,144,4.0,105.0
3434,76.0,0,144,5.0,92.0
3435,55.0,0,288,2.0,105.0
3436,69.0,0,288,3.0,105.0
3437,76.0,240,288,1.0,105.0
3438,81.0,0,288,1.0,105.0
3439,85.0,0,288,0.0,105.0
3440,43.0,0,384,8.0,105.0
3441,73.0,240,144,5.0,92.0
3442,69.0,0,384,6.0,105.0
3443,73.0,0,144,4.0,105.0
3444,55.0,0,384,7.0,105.0
3445,54.0,240,768,2.0,105.0
3446,42.0,0,768,8.0,105.0
3447,74.0,0,768,4.0,105.0
3448,86.0,0,768,0.0,105.0
3449,69.0,0,768,6.0,105.0
3450,74.0,0,768,5.0,92.0
3451,54.0,0,768,7.0,105.0
3452,74.0,0,768,1.0,105.0
3453,81.0,0,768,1.0,105.0
3454,62.0,0,768,3.0,105.0
3455,69.0,0,768,3.0,105.0
3456,74.0,1440,480,4.0,70.0
3457,75.0,0,288,4.0,70.0
3458,60.0,0,288,6.0,58.0
3459,48.0,480,768,2.0,70.0
3460,36.0,0,768,8.0,58.0
3461,63.0,0,288,5.0,58.0
3462,48.0,0,768,7.0,58.0
3463,78.0,480,288,4.0,70.0
3464,81.0,0,288,4.0,70.0
3465,63.0,480,288,5.0,58.0
3466,60.0,0,288,6.0,58.0
3467,60.0,480,288,6.0,58.0
3468,63.0,0,288,5.0,58.0
3469,84.0,0,288,4.0,70.0
3470,66.0,0,288,5.0,58.0
3471,50.0,0,768,7.0,58.0
3472,38.0,0,768,8.0,58.0
3473,60.0,480,288,6.0,58.0
3474,50.0,480,768,2.0,70.0
3475,87.0,0,960,4.0,70.0
3476,66.0,0,288,5.0,58.0
3477,60.0,480,288,6.0,58.0
3478,86.0,0,288,4.0,70.0
3479,78.0,0,144,4.0,105.0
3480,69.0,0,144,5.0,105.0
3481,84.0,0,288,1.0,105.0
3482,78.0,0,288,1.0,105.0
3483,50.0,0,288,2.0,105.0
3484,86.0,0,288,0.0,105.0
3485,62.0,0,288,3.0,105.0
3486,50.0,0,288,7.0,105.0
3487,38.0,0,288,8.0,105.0
3488,72.0,0,288,3.0,105.0
3489,81.0,240,144,4.0,105.0
3490,72.0,0,144,5.0,105.0
3491,70.0,0,240,5.0,105.0
3492,79.0,0,240,4.0,105.0
3493,62.0,0,288,3.0,105.0
3494,55.0,0,288,2.0,105.0
3495,82.0,0,288,1.0,105.0
3496,55.0,240,288,7.0,105.0
3497,79.0,0,288,1.0,105.0
3498,43.0,0,288,8.0,105.0
3499,62.0,480,768,6.0,105.0
3500,70.0,0,288,3.0,105.0
3501,86.0,0,288,0.0,105.0
3502,74.0,240,144,5.0,105.0
3503,82.0,0,144,4.0,105.0
3504,81.0,0,144,4.0,105.0
3505,72.0,0,144,5.0,105.0
3506,84.0,240,288,1.0,105.0
3507,62.0,0,288,3.0,105.0
3508,86.0,0,288,0.0,105.0
3509,78.0,0,288,1.0,105.0
3510,72.0,0,288,3.0,105.0
3511,38.0,0,288,8.0,105.0
3512,50.0,0,288,7.0,105.0
3513,50.0,0,288,2.0,105.0
3514,78.0,240,144,4.0,105.0
3515,69.0,0,144,5.0,105.0
3516,62.0,0,576,6.0,105.0
3517,70.0,0,240,5.0,105.0
3518,79.0,240,240,4.0,105.0
3519,55.0,0,288,2.0,105.0
3520,79.0,0,288,1.0,105.0
3521,86.0,0,288,0.0,105.0
3522,82.0,0,288,1.0,105.0
3523,62.0,0,288,3.0,105.0
3524,70.0,0,288,3.0,105.0
3525,43.0,0,288,8.0,105.0
3526,55.0,0,288,7.0,105.0
3527,74.0,240,144,5.0,105.0
3528,82.0,0,144,4.0,105.0
3529,81.0,0,144,4.0,105.0
3530,72.0,0,144,5.0,105.0
3531,38.0,240,288,8.0,105.0
3532,78.0,0,288,1.0,105.0
3533,50.0,0,288,7.0,105.0
3534,84.0,0,288,1.0,105.0
3535,72.0,0,288,3.0,105.0
3536,62.0,0,288,3.0,105.0
3537,62.0,0,288,6.0,105.0
3538,86.0,0,288,0.0,105.0
3539,50.0,0,288,2.0,105.0
3540,78.0,240,144,4.0,105.0
3541,69.0,0,144,5.0,105.0
3542,82.0,0,768,1.0,105.0
3543,70.0,0,768,3.0,105.0
3544,62.0,0,768,3.0,105.0
3545,79.0,0,768,4.0,105.0
3546,79.0,0,768,1.0,105.0
3547,55.0,0,768,2.0,105.0
3548,55.0,0,768,7.0,105.0
3549,43.0,240,768,8.0,105.0
3550,62.0,0,768,6.0,105.0
3551,70.0,0,768,5.0,105.0
3552,86.0,0,768,0.0,105.0
3553,62.0,1440,480,4.0,70.0
3554,67.0,0,288,4.0,70.0
3555,55.0,0,768,7.0,58.0
3556,67.0,0,288,5.0,58.0
3557,58.0,0,288,6.0,58.0
3558,43.0,0,768,8.0,58.0
3559,70.0,480,288,4.0,70.0
3560,55.0,480,768,2.0,70.0
3561,74.0,0,288,4.0,70.0
3562,67.0,0,288,5.0,58.0
3563,58.0,480,288,6.0,58.0
3564,58.0,0,288,6.0,58.0
3565,79.0,0,288,4.0,70.0
3566,67.0,480,288,5.0,58.0
3567,55.0,0,768,2.0,70.0
3568,43.0,0,768,8.0,58.0
3569,64.0,480,288,5.0,58.0
3570,61.0,0,288,6.0,58.0
3571,55.0,480,768,7.0,58.0
3572,82.0,0,960,4.0,70.0
3573,81.0,480,288,4.0,70.0
3574,61.0,0,288,6.0,58.0
3575,64.0,0,288,5.0,58.0
3576,73.0,480,144,5.0,92.0
3577,73.0,0,144,4.0,105.0
3578,85.0,0,288,0.0,105.0
3579,81.0,0,288,1.0,105.0
3580,55.0,0,288,2.0,70.0
3581,69.0,0,288,3.0,105.0
3582,76.0,0,288,1.0,105.0
3583,76.0,0,144,5.0,92.0
3584,76.0,240,144,4.0,105.0
3585,55.0,0,384,7.0,105.0
3586,43.0,0,384,8.0,105.0
3587,74.0,240,240,4.0,105.0
3588,74.0,0,240,5.0,92.0
3589,81.0,0,288,1.0,105.0
3590,54.0,0,288,2.0,105.0
3591,62.0,0,288,3.0,105.0
3592,74.0,0,288,1.0,105.0
3593,69.0,0,288,3.0,105.0
3594,86.0,0,288,0.0,105.0
3595,54.0,0,384,7.0,105.0
3596,42.0,0,384,8.0,105.0
3597,78.0,240,144,4.0,105.0
3598,78.0,0,144,5.0,92.0
3599,69.0,0,864,6.0,105.0
3600,76.0,0,144,5.0,92.0
3601,76.0,0,144,4.0,105.0
3602,85.0,0,288,0.0,105.0
3603,55.0,0,288,2.0,105.0
3604,76.0,0,288,1.0,105.0
3605,81.0,0,288,1.0,105.0
3606,69.0,0,288,3.0,105.0
3607,43.0,240,384,8.0,105.0
3608,73.0,0,144,4.0,105.0
3609,55.0,0,384,7.0,105.0
3610,73.0,240,144,5.0,92.0
3611,74.0,0,240,4.0,105.0
3612,74.0,0,240,5.0,92.0
3613,69.0,0,768,6.0,105.0
3614,74.0,0,288,1.0,105.0
3615,81.0,0,288,1.0,105.0
3616,54.0,0,288,2.0,105.0
3617,62.0,0,288,3.0,105.0
3618,86.0,0,288,0.0,105.0
3619,69.0,240,288,3.0,105.0
3620,78.0,0,144,4.0,105.0
3621,42.0,0,384,8.0,105.0
3622,54.0,0,384,7.0,105.0
3623,78.0,240,144,5.0,92.0
3624,76.0,0,144,5.0,92.0
3625,76.0,0,144,4.0,105.0
3626,55.0,0,288,2.0,105.0
3627,76.0,0,288,1.0,105.0
3628,81.0,0,288,1.0,105.0
3629,69.0,0,288,3.0,105.0
3630,85.0,240,288,0.0,105.0
3631,73.0,240,144,5.0,92.0
3632,55.0,0,384,7.0,105.0
3633,43.0,0,384,8.0,105.0
3634,73.0,0,144,4.0,105.0
3635,69.0,0,384,6.0,105.0
3636,69.0,0,768,6.0,105.0
3637,62.0,0,768,3.0,105.0
3638,81.0,240,768,1.0,105.0
3639,74.0,0,768,1.0,105.0
3640,42.0,0,768,8.0,105.0
3641,74.0,0,768,5.0,92.0
3642,54.0,0,768,7.0,105.0
3643,69.0,0,768,3.0,105.0
3644,86.0,0,768,0.0,105.0
3645,74.0,0,768,4.0,105.0
3646,54.0,0,768,2.0,105.0
3647,74.0,1440,480,4.0,70.0
3648,75.0,480,288,4.0,70.0
3649,63.0,0,288,5.0,58.0
3650,36.0,0,768,8.0,58.0
3651,48.0,0,768,2.0,70.0
3652,60.0,480,288,6.0,58.0
3653,48.0,0,768,7.0,58.0
3654,78.0,0,288,4.0,70.0
3655,63.0,0,288,5.0,58.0
3656,81.0,480,288,4.0,70.0
3657,60.0,0,288,6.0,58.0
3658,60.0,0,288,6.0,58.0
3659,63.0,480,288,5.0,58.0
3660,84.0,0,288,4.0,70.0
3661,50.0,0,768,7.0,58.0
3662,50.0,0,768,2.0,70.0
3663,38.0,480,768,8.0,58.0
3664,66.0,480,288,5.0,58.0
3665,60.0,0,288,6.0,58.0
3666,87.0,0,960,4.0,70.0
3667,60.0,480,288,6.0,58.0
3668,86.0,0,288,4.0,70.0
3669,66.0,0,288,5.0,58.0
3670,69.0,0,144,5.0,105.0
3671,78.0,0,144,4.0,105.0
3672,86.0,0,288,0.0,105.0
3673,50.0,0,288,2.0,105.0
3674,50.0,0,288,7.0,105.0
3675,78.0,0,288,1.0,105.0
3676,62.0,480,288,3.0,105.0
3677,38.0,0,288,8.0,105.0
3678,84.0,0,288,1.0,105.0
3679,72.0,0,288,3.0,105.0
3680,81.0,0,144,4.0,105.0
3681,72.0,240,144,5.0,105.0
3682,70.0,0,240,5.0,105.0
3683,79.0,0,240,4.0,105.0
3684,86.0,0,288,0.0,105.0
3685,55.0,0,288,7.0,105.0
3686,79.0,0,288,1.0,105.0
3687,62.0,0,288,3.0,105.0
3688,70.0,0,288,3.0,105.0
3689,55.0,0,288,2.0,105.0
3690,43.0,240,288,8.0,105.0
3691,82.0,0,288,1.0,105.0
3692,62.0,0,768,6.0,105.0
3693,82.0,0,144,4.0,105.0
3694,74.0,240,144,5.0,105.0
3695,81.0,0,144,4.0,105.0
3696,72.0,0,144,5.0,105.0
3697,50.0,0,288,7.0,105.0
3698,38.0,0,288,8.0,105.0
3699,72.0,0,288,3.0,105.0
3700,62.0,0,288,3.0,105.0
3701,86.0,0,288,0.0,105.0
3702,84.0,0,288,1.0,105.0
3703,78.0,0,288,1.0,105.0
3704,50.0,0,288,2.0,105.0
3705,78.0,0,144,4.0,105.0
3706,69.0,240,144,5.0,105.0
3707,62.0,240,576,6.0,105.0
3708,70.0,0,240,5.0,105.0
3709,79.0,240,240,4.0,105.0
3710,43.0,0,288,8.0,105.0
3711,70.0,0,288,3.0,105.0
3712,55.0,0,288,2.0,105.0
3713,86.0,0,288,0.0,105.0
3714,62.0,0,288,3.0,105.0
3715,55.0,0,288,7.0,105.0
3716,82.0,0,288,1.0,105.0
3717,79.0,0,288,1.0,105.0
3718,74.0,240,144,5.0,105.0
3719,82.0,0,144,4.0,105.0
3720,72.0,240,144,5.0,105.0
3721,81.0,0,144,4.0,105.0
3722,50.0,0,288,7.0,105.0
3723,38.0,0,288,8.0,105.0
3724,62.0,0,288,3.0,105.0
3725,72.0,0,288,3.0,105.0
3726,86.0,0,288,0.0,105.0
3727,84.0,0,288,1.0,105.0
3728,78.0,0,288,1.0,105.0
3729,62.0,0,288,6.0,105.0
3730,50.0,0,288,2.0,105.0
3731,69.0,0,144,5.0,105.0
3732,78.0,240,144,4.0,105.0
3733,62.0,0,768,3.0,105.0
3734,70.0,0,768,3.0,105.0
3735,70.0,240,768,5.0,105.0
3736,62.0,0,768,6.0,105.0
3737,55.0,0,768,2.0,105.0
3738,79.0,0,768,4.0,105.0
3739,82.0,0,768,1.0,105.0
3740,55.0,0,768,7.0,105.0
3741,86.0,0,768,0.0,105.0
3742,43.0,0,768,8.0,105.0
3743,79.0,0,768,1.0,105.0
3744,38.0,0,288,8.0,105.0
3745,50.0,1440,288,7.0,105.0
3746,62.0,0,288,1.0,105.0
3747,86.0,0,288,0.0,105.0
3748,62.0,0,288,2.0,105.0
3749,50.0,0,288,3.0,105.0
3750,86.0,0,288,4.0,105.0
3751,50.0,0,288,2.0,105.0
3752,74.0,0,288,1.0,105.0
3753,74.0,0,288,5.0,105.0
3754,62.0,0,288,3.0,105.0
3755,62.0,0,288,6.0,105.0
3756,62.0,480,288,6.0,105.0
3757,74.0,0,288,5.0,105.0
3758,50.0,0,288,7.0,105.0
3759,50.0,0,768,3.0,105.0
3760,62.0,0,768,3.0,105.0
3761,62.0,0,768,1.0,105.0
3762,38.0,0,768,8.0,105.0
3763,74.0,0,768,1.0,105.0
3764,50.0,0,768,2.0,105.0
3765,86.0,0,768,0.0,105.0
3766,66.0,0,288,6.0,70.0
3767,62.0,0,768,2.0,105.0
3768,62.0,0,288,7.0,105.0
3769,69.0,480,288,5.0,70.0
3770,86.0,0,1152,4.0,105.0
3771,69.0,0,288,5.0,70.0
3772,66.0,0,288,6.0,70.0
3773,62.0,480,288,7.0,70.0
3774,62.0,480,288,7.0,70.0
3775,74.0,0,288,4.0,105.0
3776,66.0,0,288,6.0,70.0
3777,69.0,0,288,5.0,70.0
3778,77.0,0,60,4.0,70.0
3779,75.0,60,60,4.0,70.0
3780,77.0,60,60,4.0,70.0
3781,75.0,60,60,4.0,70.0
3782,77.0,60,60,4.0,70.0
3783,75.0,60,60,4.0,70.0
3784,77.0,60,60,4.0,70.0
3785,67.0,480,480,6.0,70.0
3786,75.0,60,60,4.0,70.0
3787,70.0,0,480,5.0,70.0
3788,74.0,0,264,4.0,70.0
3789,66.0,60,288,6.0,58.0
3790,69.0,0,288,5.0,70.0
3791,62.0,0,1152,7.0,70.0
3792,74.0,0,264,4.0,70.0
3793,69.0,480,288,5.0,58.0
3794,66.0,0,288,6.0,58.0
3795,86.0,0,288,4.0,105.0
3796,62.0,0,288,3.0,105.0
3797,74.0,0,288,1.0,105.0
3798,62.0,0,288,1.0,105.0
3799,62.0,0,288,6.0,105.0
3800,74.0,0,288,5.0,105.0
3801,50.0,0,288,2.0,105.0
3802,62.0,0,288,2.0,105.0
3803,50.0,0,288,7.0,105.0
3804,38.0,0,288,8.0,105.0
3805,86.0,480,288,0.0,105.0
3806,50.0,0,288,3.0,105.0
3807,50.0,0,288,7.0,105.0
3808,74.0,0,288,5.0,105.0
3809,62.0,480,288,6.0,105.0
3810,62.0,0,288,7.0,105.0
3811,62.0,0,768,3.0,105.0
3812,50.0,0,768,3.0,105.0
3813,38.0,0,768,8.0,105.0
3814,62.0,0,768,1.0,105.0
3815,74.0,0,768,1.0,105.0
3816,50.0,0,768,2.0,105.0
3817,66.0,480,288,6.0,70.0
3818,86.0,0,768,0.0,105.0
3819,69.0,0,288,5.0,70.0
3820,62.0,0,768,2.0,105.0
3821,86.0,0,1152,4.0,105.0
3822,62.0,0,288,7.0,70.0
3823,66.0,480,288,6.0,70.0
3824,69.0,0,288,5.0,70.0
3825,69.0,480,288,5.0,70.0
3826,66.0,0,288,6.0,70.0
3827,62.0,0,288,7.0,70.0
3828,74.0,0,384,4.0,105.0
3829,77.0,0,60,4.0,70.0
3830,75.0,60,60,4.0,70.0
3831,77.0,60,60,4.0,70.0
3832,75.0,60,60,4.0,70.0
3833,77.0,60,60,4.0,70.0
3834,75.0,60,60,4.0,70.0
3835,77.0,60,60,4.0,70.0
3836,67.0,480,480,6.0,70.0
3837,75.0,60,60,4.0,70.0
3838,70.0,0,480,5.0,70.0
3839,74.0,0,264,4.0,70.0
3840,69.0,0,288,5.0,58.0
3841,66.0,60,288,6.0,58.0
3842,62.0,0,1152,7.0,70.0
3843,69.0,0,288,5.0,58.0
3844,66.0,0,288,6.0,58.0
3845,74.0,480,384,4.0,70.0
3846,74.0,480,480,4.0,70.0
3847,75.0,0,288,4.0,70.0
3848,36.0,0,768,8.0,58.0
3849,60.0,0,288,6.0,58.0
3850,48.0,480,768,7.0,58.0
3851,63.0,0,288,5.0,58.0
3852,78.0,480,288,4.0,70.0
3853,48.0,0,768,2.0,70.0
3854,63.0,0,288,5.0,58.0
3855,60.0,480,288,6.0,58.0
3856,81.0,0,288,4.0,70.0
3857,63.0,0,288,5.0,58.0
3858,60.0,480,288,6.0,58.0
3859,84.0,0,288,4.0,70.0
3860,66.0,480,288,5.0,58.0
3861,38.0,0,768,8.0,58.0
3862,50.0,0,768,2.0,70.0
3863,50.0,480,768,7.0,58.0
3864,60.0,0,384,6.0,58.0
3865,87.0,0,960,4.0,70.0
3866,86.0,0,288,4.0,70.0
3867,66.0,480,288,5.0,58.0
3868,60.0,0,384,6.0,58.0
3869,78.0,0,144,4.0,105.0
3870,69.0,0,144,5.0,105.0
3871,78.0,0,288,1.0,105.0
3872,62.0,0,288,3.0,105.0
3873,72.0,0,288,3.0,105.0
3874,38.0,480,288,8.0,105.0
3875,84.0,0,288,1.0,105.0
3876,50.0,0,288,7.0,105.0
3877,86.0,0,288,0.0,105.0
3878,50.0,0,288,2.0,105.0
3879,81.0,240,144,4.0,105.0
3880,72.0,0,144,5.0,105.0
3881,70.0,0,240,5.0,105.0
3882,79.0,0,240,4.0,105.0
3883,55.0,0,288,7.0,105.0
3884,62.0,0,288,3.0,105.0
3885,43.0,0,288,8.0,105.0
3886,70.0,0,288,3.0,105.0
3887,79.0,240,288,1.0,105.0
3888,82.0,0,288,1.0,105.0
3889,55.0,0,288,2.0,105.0
3890,86.0,0,288,0.0,105.0
3891,62.0,0,864,6.0,105.0
3892,74.0,0,144,5.0,105.0
3893,82.0,240,144,4.0,105.0
3894,72.0,0,144,5.0,105.0
3895,81.0,0,144,4.0,105.0
3896,78.0,0,288,1.0,105.0
3897,50.0,0,288,2.0,105.0
3898,86.0,0,288,0.0,105.0
3899,84.0,0,288,1.0,105.0
3900,62.0,0,288,3.0,105.0
3901,50.0,0,288,7.0,105.0
3902,72.0,0,288,3.0,105.0
3903,38.0,240,288,8.0,105.0
3904,69.0,0,144,5.0,105.0
3905,78.0,240,144,4.0,105.0
3906,79.0,0,240,4.0,105.0
3907,70.0,0,240,5.0,105.0
3908,55.0,0,288,2.0,105.0
3909,55.0,0,288,7.0,105.0
3910,43.0,0,288,8.0,105.0
3911,70.0,0,288,3.0,105.0
3912,62.0,0,768,6.0,105.0
3913,82.0,0,288,1.0,105.0
3914,79.0,0,288,1.0,105.0
3915,62.0,240,288,3.0,105.0
3916,86.0,0,288,0.0,105.0
3917,74.0,0,144,5.0,105.0
3918,82.0,240,144,4.0,105.0
3919,81.0,0,144,4.0,105.0
3920,72.0,0,144,5.0,105.0
3921,86.0,0,288,0.0,105.0
3922,84.0,0,288,1.0,105.0
3923,78.0,0,288,1.0,105.0
3924,72.0,0,288,3.0,105.0
3925,62.0,0,288,3.0,105.0
3926,50.0,0,288,7.0,105.0
3927,50.0,0,288,2.0,105.0
3928,38.0,0,288,8.0,105.0
3929,69.0,0,144,5.0,105.0
3930,62.0,240,384,6.0,105.0
3931,78.0,240,144,4.0,105.0
3932,86.0,0,768,0.0,105.0
3933,70.0,0,768,3.0,105.0
3934,62.0,0,768,3.0,105.0
3935,82.0,0,768,1.0,105.0
3936,79.0,0,768,4.0,105.0
3937,62.0,0,768,6.0,105.0
3938,55.0,0,768,7.0,105.0
3939,55.0,0,768,2.0,105.0
3940,70.0,0,768,5.0,105.0
3941,43.0,240,768,8.0,105.0
3942,79.0,0,768,1.0,105.0
3943,62.0,0,288,1.0,105.0
3944,50.0,0,288,3.0,105.0
3945,50.0,0,288,7.0,105.0
3946,86.0,0,288,0.0,105.0
3947,38.0,0,288,8.0,105.0
3948,74.0,1440,288,5.0,105.0
3949,50.0,0,288,2.0,105.0
3950,86.0,0,288,4.0,105.0
3951,62.0,0,288,6.0,105.0
3952,74.0,0,288,1.0,105.0
3953,62.0,0,288,3.0,105.0
3954,50.0,0,288,7.0,105.0
3955,62.0,0,288,6.0,105.0
3956,74.0,0,288,5.0,105.0
3957,62.0,0,768,3.0,105.0
3958,69.0,0,288,5.0,70.0
3959,74.0,0,768,1.0,105.0
3960,86.0,0,768,0.0,105.0
3961,50.0,0,768,2.0,105.0
3962,50.0,0,768,3.0,105.0
3963,66.0,0,288,6.0,70.0
3964,38.0,480,768,8.0,105.0
3965,62.0,480,288,7.0,70.0
3966,62.0,0,768,1.0,105.0
3967,62.0,0,768,2.0,105.0
3968,86.0,0,1152,4.0,105.0
3969,69.0,0,288,5.0,70.0
3970,66.0,0,288,6.0,70.0
3971,62.0,480,288,7.0,70.0
3972,66.0,0,288,6.0,70.0
3973,62.0,0,288,7.0,70.0
3974,74.0,0,288,4.0,105.0
3975,69.0,480,288,5.0,70.0
3976,77.0,0,60,4.0,70.0
3977,75.0,60,60,4.0,70.0
3978,77.0,60,60,4.0,70.0
3979,75.0,60,60,4.0,70.0
3980,77.0,60,60,4.0,70.0
3981,75.0,60,60,4.0,70.0
3982,77.0,60,60,4.0,70.0
3983,67.0,0,480,6.0,70.0
3984,70.0,0,480,5.0,70.0
3985,75.0,60,60,4.0,70.0
3986,74.0,0,264,4.0,70.0
3987,66.0,60,288,6.0,70.0
3988,69.0,0,288,5.0,58.0
3989,62.0,480,1152,7.0,70.0
3990,74.0,0,264,4.0,70.0
3991,66.0,480,288,6.0,58.0
3992,69.0,0,288,5.0,58.0
3993,86.0,0,288,0.0,105.0
3994,38.0,0,288,8.0,105.0
3995,62.0,0,288,6.0,105.0
3996,62.0,0,288,1.0,105.0
3997,74.0,0,288,5.0,105.0
3998,50.0,0,288,7.0,105.0
3999,86.0,0,288,4.0,105.0
4000,50.0,0,288,2.0,105.0
4001,74.0,0,288,1.0,105.0
4002,50.0,0,288,3.0,105.0
4003,62.0,0,288,3.0,105.0
4004,62.0,480,288,2.0,105.0
4005,50.0,0,288,7.0,105.0
4006,62.0,0,288,6.0,105.0
4007,74.0,0,288,5.0,105.0
4008,86.0,0,768,0.0,105.0
4009,62.0,0,768,3.0,105.0
4010,50.0,0,768,3.0,105.0
4011,66.0,0,288,6.0,70.0
4012,62.0,480,768,2.0,105.0
4013,38.0,0,768,8.0,105.0
4014,69.0,0,288,5.0,70.0
4015,62.0,0,768,1.0,105.0
4016,74.0,0,768,1.0,105.0
4017,62.0,480,288,7.0,70.0
4018,50.0,0,768,2.0,105.0
4019,86.0,0,1152,4.0,105.0
4020,66.0,480,288,6.0,70.0
4021,62.0,0,288,7.0,70.0
4022,69.0,0,288,5.0,70.0
4023,62.0,0,288,7.0,70.0
4024,66.0,480,288,6.0,70.0
4025,69.0,0,288,5.0,70.0
4026,74.0,0,384,4.0,105.0
4027,77.0,0,60,4.0,70.0
4028,75.0,60,60,4.0,70.0
4029,77.0,60,60,4.0,70.0
4030,75.0,60,60,4.0,70.0
4031,77.0,60,60,4.0,70.0
4032,75.0,60,60,4.0,70.0
4033,77.0,60,60,4.0,70.0
4034,67.0,0,480,6.0,70.0
4035,70.0,0,480,5.0,70.0
4036,75.0,60,60,4.0,70.0
4037,74.0,60,264,4.0,70.0
4038,69.0,0,288,5.0,70.0
4039,66.0,0,288,6.0,58.0
4040,62.0,480,1152,7.0,70.0
4041,66.0,480,288,6.0,58.0
4042,69.0,0,288,5.0,58.0
4043,74.0,0,384,4.0,70.0
4044,74.0,480,480,4.0,70.0
4045,75.0,480,288,4.0,70.0
4046,48.0,0,768,2.0,70.0
4047,48.0,0,768,7.0,58.0
4048,60.0,0,288,6.0,58.0
4049,63.0,0,288,5.0,58.0
4050,78.0,480,288,4.0,70.0
4051,36.0,0,768,8.0,58.0
4052,81.0,0,288,4.0,70.0
4053,60.0,0,288,6.0,58.0
4054,63.0,480,288,5.0,58.0
4055,84.0,480,288,4.0,70.0
4056,60.0,0,288,6.0,58.0
4057,63.0,0,288,5.0,58.0
4058,66.0,480,288,5.0,58.0
4059,50.0,0,768,2.0,70.0
4060,38.0,0,768,8.0,58.0
4061,50.0,0,768,7.0,58.0
4062,60.0,0,384,6.0,58.0
4063,87.0,480,960,4.0,70.0
4064,66.0,480,288,5.0,58.0
4065,86.0,0,288,4.0,70.0
4066,60.0,0,384,6.0,58.0
4067,69.0,0,144,5.0,116.0
4068,78.0,0,144,4.0,116.0
4069,86.0,0,288,0.0,105.0
4070,50.0,0,288,7.0,105.0
4071,78.0,0,288,1.0,105.0
4072,84.0,480,288,1.0,105.0
4073,38.0,0,288,8.0,105.0
4074,62.0,0,288,3.0,105.0
4075,50.0,0,288,2.0,105.0
4076,72.0,0,288,3.0,105.0
4077,72.0,0,144,5.0,116.0
4078,81.0,240,144,4.0,116.0
4079,70.0,0,240,5.0,116.0
4080,79.0,0,240,4.0,116.0
4081,55.0,240,288,2.0,105.0
4082,55.0,0,288,7.0,105.0
4083,86.0,0,288,0.0,105.0
4084,43.0,0,288,8.0,105.0
4085,70.0,0,288,3.0,105.0
4086,62.0,0,288,3.0,105.0
4087,79.0,0,288,1.0,105.0
4088,82.0,0,288,1.0,105.0
4089,62.0,0,864,6.0,105.0
4090,82.0,0,144,4.0,116.0
4091,74.0,240,144,5.0,116.0
4092,72.0,0,144,5.0,116.0
4093,81.0,0,144,4.0,116.0
4094,38.0,0,288,8.0,105.0
4095,78.0,0,288,1.0,105.0
4096,50.0,0,288,7.0,105.0
4097,50.0,0,288,2.0,105.0
4098,62.0,0,288,3.0,105.0
4099,72.0,0,288,3.0,105.0
4100,86.0,0,288,0.0,105.0
4101,84.0,240,288,1.0,105.0
4102,78.0,0,144,4.0,116.0
4103,69.0,240,144,5.0,116.0
4104,79.0,0,240,4.0,116.0
4105,70.0,240,240,5.0,116.0
4106,62.0,0,288,3.0,105.0
4107,70.0,0,288,3.0,105.0
4108,43.0,0,288,8.0,105.0
4109,86.0,0,288,0.0,105.0
4110,55.0,0,288,7.0,105.0
4111,79.0,0,288,1.0,105.0
4112,62.0,0,768,6.0,105.0
4113,55.0,0,288,2.0,105.0
4114,82.0,0,288,1.0,105.0
4115,74.0,0,144,5.0,116.0
4116,82.0,240,144,4.0,116.0
4117,72.0,0,144,5.0,116.0
4118,81.0,0,144,4.0,116.0
4119,50.0,0,288,7.0,105.0
4120,78.0,0,288,1.0,105.0
4121,72.0,0,288,3.0,105.0
4122,50.0,0,288,2.0,105.0
4123,86.0,0,288,0.0,105.0
4124,38.0,0,288,8.0,105.0
4125,84.0,240,288,1.0,105.0
4126,62.0,0,288,3.0,105.0
4127,78.0,0,144,4.0,116.0
4128,69.0,240,144,5.0,116.0
4129,62.0,0,384,6.0,105.0
4130,79.0,0,192,4.0,116.0
4131,70.0,0,384,5.0,116.0
4132,74.0,240,192,4.0,116.0
4133,82.0,240,192,5.0,105.0
4134,82.0,0,192,4.0,105.0
4135,82.0,0,768,1.0,105.0
4136,79.0,0,768,1.0,105.0
4137,70.0,240,768,3.0,105.0
4138,55.0,0,768,7.0,105.0
4139,86.0,0,768,0.0,105.0
4140,62.0,0,768,6.0,105.0
4141,55.0,0,768,2.0,105.0
4142,43.0,0,768,8.0,105.0
4143,62.0,0,768,3.0,105.0
4144,81.0,0,192,4.0,105.0
4145,81.0,240,192,5.0,105.0
4146,79.0,240,192,4.0,105.0
4147,79.0,0,192,5.0,105.0
4148,77.0,240,192,4.0,105.0
4149,77.0,0,192,5.0,105.0
4150,75.0,240,192,4.0,105.0
4151,75.0,0,192,5.0,105.0
4152,74.0,0,192,5.0,105.0
4153,74.0,240,192,4.0,105.0
4154,72.0,0,240,5.0,105.0
4155,72.0,0,240,4.0,105.0
4156,75.0,240,288,1.0,105.0
4157,51.0,0,288,7.0,105.0
4158,67.0,0,288,3.0,105.0
4159,72.0,0,288,3.0,105.0
4160,84.0,0,288,0.0,105.0
4161,51.0,0,288,2.0,105.0
4162,67.0,0,288,6.0,105.0
4163,39.0,0,288,8.0,105.0
4164,79.0,0,288,1.0,105.0
4165,75.0,0,144,4.0,105.0
4166,75.0,240,144,5.0,105.0
4167,74.0,0,144,5.0,105.0
4168,74.0,0,144,4.0,105.0
4169,53.0,0,288,2.0,105.0
4170,41.0,0,288,8.0,105.0
4171,83.0,0,288,0.0,105.0
4172,74.0,0,288,1.0,105.0
4173,80.0,240,288,1.0,105.0
4174,74.0,0,288,3.0,105.0
4175,53.0,0,288,7.0,105.0
4176,68.0,0,288,6.0,105.0
4177,65.0,0,288,3.0,105.0
4178,71.0,240,144,4.0,105.0
4179,71.0,0,144,5.0,105.0
4180,72.0,0,240,4.0,105.0
4181,72.0,0,240,5.0,105.0
4182,51.0,0,288,7.0,105.0
4183,75.0,240,288,1.0,105.0
4184,72.0,0,288,3.0,105.0
4185,84.0,0,288,0.0,105.0
4186,39.0,0,288,8.0,105.0
4187,79.0,0,288,1.0,105.0
4188,67.0,0,288,6.0,105.0
4189,51.0,0,288,2.0,105.0
4190,75.0,240,144,4.0,105.0
4191,75.0,0,144,5.0,105.0
4192,74.0,0,144,4.0,105.0
4193,74.0,0,144,5.0,105.0
4194,80.0,0,288,1.0,105.0
4195,68.0,0,288,6.0,105.0
4196,41.0,0,288,8.0,105.0
4197,74.0,0,288,1.0,105.0
4198,83.0,0,288,0.0,105.0
4199,74.0,0,288,3.0,105.0
4200,65.0,240,288,3.0,105.0
4201,53.0,0,288,7.0,105.0
4202,53.0,0,288,2.0,105.0
4203,71.0,0,144,4.0,105.0
4204,71.0,240,144,5.0,105.0
4205,72.0,0,192,4.0,105.0
4206,72.0,0,192,5.0,105.0
4207,67.0,240,192,5.0,105.0
4208,67.0,0,192,4.0,105.0
4209,75.0,240,192,5.0,105.0
4210,75.0,0,192,4.0,105.0
4211,67.0,0,768,3.0,105.0
4212,67.0,0,768,6.0,105.0
4213,84.0,0,768,0.0,105.0
4214,51.0,0,768,2.0,105.0
4215,51.0,0,768,7.0,105.0
4216,72.0,0,768,3.0,105.0
4217,39.0,240,768,8.0,105.0
4218,75.0,0,768,1.0,105.0
4219,79.0,0,768,1.0,105.0
4220,74.0,0,192,4.0,105.0
4221,74.0,240,192,5.0,105.0
4222,72.0,0,192,4.0,105.0
4223,72.0,240,192,5.0,105.0
4224,70.0,240,192,4.0,105.0
4225,70.0,0,192,5.0,105.0
4226,69.0,0,192,5.0,105.0
4227,69.0,240,192,4.0,105.0
4228,67.0,240,192,5.0,105.0
4229,67.0,0,192,4.0,105.0
4230,66.0,240,240,5.0,105.0
4231,66.0,0,240,4.0,105.0
4232,57.0,0,288,6.0,105.0
4233,74.0,0,288,1.0,105.0
4234,38.0,0,288,8.0,105.0
4235,81.0,0,288,0.0,105.0
4236,50.0,0,288,7.0,105.0
4237,50.0,0,288,2.0,105.0
4238,69.0,0,288,3.0,105.0
4239,62.0,0,288,3.0,105.0
4240,78.0,0,288,1.0,105.0
4241,69.0,0,144,4.0,105.0
4242,69.0,240,144,5.0,105.0
4243,67.0,0,144,5.0,105.0
4244,67.0,0,144,4.0,105.0
4245,37.0,0,288,8.0,105.0
4246,49.0,0,288,7.0,105.0
4247,76.0,0,288,1.0,105.0
4248,69.0,0,288,3.0,105.0
4249,79.0,240,288,1.0,105.0
4250,49.0,0,288,2.0,105.0
4251,64.0,0,144,4.0,105.0
4252,64.0,240,144,5.0,105.0
4253,66.0,0,240,5.0,105.0
4254,66.0,0,240,4.0,105.0
4255,50.0,0,288,7.0,105.0
4256,38.0,240,288,8.0,105.0
4257,78.0,0,288,1.0,105.0
4258,74.0,0,288,1.0,105.0
4259,50.0,0,288,2.0,105.0
4260,69.0,0,288,3.0,105.0
4261,62.0,0,288,3.0,105.0
4262,69.0,240,144,5.0,105.0
4263,81.0,0,864,0.0,105.0
4264,69.0,0,144,4.0,105.0
4265,57.0,0,864,6.0,105.0
4266,67.0,0,144,5.0,105.0
4267,67.0,0,144,4.0,105.0
4268,57.0,0,288,6.0,105.0
4269,49.0,0,288,2.0,105.0
4270,79.0,0,288,1.0,105.0
4271,49.0,0,288,7.0,105.0
4272,81.0,0,288,0.0,105.0
4273,37.0,240,288,8.0,105.0
4274,76.0,0,288,1.0,105.0
4275,69.0,0,288,3.0,105.0
4276,64.0,0,144,4.0,105.0
4277,64.0,240,144,5.0,105.0
4278,66.0,0,192,5.0,105.0
4279,66.0,0,192,4.0,105.0
4280,62.0,0,192,5.0,105.0
4281,62.0,240,192,4.0,105.0
4282,69.0,240,192,5.0,105.0
4283,69.0,0,192,4.0,105.0
4284,81.0,0,768,0.0,105.0
4285,50.0,0,768,2.0,105.0
4286,38.0,0,768,8.0,105.0
4287,62.0,240,768,3.0,105.0
4288,69.0,0,768,3.0,105.0
4289,78.0,0,768,1.0,105.0
4290,74.0,0,768,1.0,105.0
4291,50.0,0,768,7.0,105.0
4292,57.0,0,768,6.0,105.0
4293,67.0,0,192,4.0,105.0
4294,67.0,240,192,5.0,105.0
4295,66.0,0,192,4.0,105.0
4296,66.0,240,192,5.0,105.0
4297,63.0,0,192,5.0,105.0
4298,63.0,240,192,4.0,105.0
4299,62.0,240,192,5.0,105.0
4300,62.0,0,192,4.0,105.0
4301,57.0,0,384,6.0,105.0
4302,30.0,0,384,8.0,105.0
4303,42.0,0,384,2.0,105.0
4304,42.0,0,384,7.0,105.0
4305,60.0,240,192,4.0,105.0
4306,60.0,0,192,5.0,105.0
4307,58.0,0,192,4.0,105.0
4308,58.0,0,192,5.0,105.0
4309,62.0,0,192,5.0,105.0
4310,62.0,240,192,4.0,105.0
4311,67.0,240,192,5.0,105.0
4312,67.0,0,192,4.0,105.0
4313,31.0,0,768,8.0,105.0
4314,50.0,0,768,6.0,105.0
4315,43.0,0,768,2.0,105.0
4316,43.0,0,768,7.0,105.0
4317,70.0,240,192,4.0,105.0
4318,70.0,0,192,5.0,105.0
4319,74.0,0,192,5.0,105.0
4320,74.0,240,192,4.0,105.0
4321,74.0,0,192,4.0,105.0
4322,74.0,240,192,5.0,105.0
4323,62.0,0,1536,1.0,105.0
4324,58.0,0,1536,3.0,105.0
4325,67.0,0,1536,3.0,105.0
4326,74.0,240,1536,1.0,105.0
4327,86.0,0,1536,0.0,105.0
4328,74.0,0,192,5.0,105.0
4329,74.0,240,192,4.0,105.0
4330,34.0,0,384,8.0,105.0
4331,46.0,0,384,2.0,105.0
4332,46.0,0,384,7.0,105.0
4333,74.0,0,192,5.0,105.0
4334,74.0,240,192,4.0,105.0
4335,84.0,0,192,0.0,105.0
4336,72.0,0,192,4.0,105.0
4337,72.0,240,192,5.0,105.0
4338,55.0,0,864,6.0,105.0
4339,33.0,0,384,8.0,105.0
4340,45.0,0,384,2.0,105.0
4341,45.0,0,384,7.0,105.0
4342,70.0,240,192,4.0,105.0
4343,70.0,0,192,5.0,105.0
4344,82.0,0,192,0.0,105.0
4345,69.0,0,192,4.0,105.0
4346,81.0,0,192,0.0,105.0
4347,69.0,0,192,5.0,105.0
4348,48.0,0,384,2.0,105.0
4349,36.0,0,384,8.0,105.0
4350,63.0,240,384,6.0,105.0
4351,48.0,0,384,7.0,105.0
4352,79.0,0,192,0.0,105.0
4353,67.0,240,192,4.0,105.0
4354,67.0,0,192,5.0,105.0
4355,72.0,0,0,1.0,105.0
4356,75.0,0,960,1.0,105.0
4357,66.0,0,192,5.0,105.0
4358,66.0,0,192,4.0,105.0
4359,50.0,0,384,2.0,105.0
4360,78.0,0,384,0.0,105.0
4361,50.0,0,384,7.0,105.0
4362,74.0,0,384,1.0,105.0
4363,38.0,0,384,8.0,105.0
4364,63.0,240,192,5.0,105.0
4365,63.0,0,192,4.0,105.0
4366,62.0,0,192,5.0,105.0
4367,62.0,0,192,4.0,105.0
4368,69.0,0,768,3.0,105.0
4369,62.0,0,768,3.0,105.0
4370,57.0,240,768,6.0,105.0
4371,54.0,0,384,7.0,105.0
4372,42.0,0,384,8.0,105.0
4373,54.0,240,384,2.0,105.0
4374,60.0,240,192,5.0,105.0
4375,60.0,0,192,4.0,105.0
4376,58.0,0,192,4.0,105.0
4377,58.0,0,192,5.0,105.0
4378,62.0,240,192,4.0,105.0
4379,62.0,0,192,5.0,105.0
4380,67.0,0,192,5.0,105.0
4381,67.0,240,192,4.0,105.0
4382,50.0,0,768,6.0,105.0
4383,43.0,0,768,8.0,105.0
4384,55.0,0,768,2.0,105.0
4385,55.0,0,768,7.0,105.0
4386,70.0,240,192,5.0,105.0
4387,70.0,0,192,4.0,105.0
4388,74.0,0,192,4.0,105.0
4389,74.0,240,192,5.0,105.0
4390,74.0,240,192,4.0,105.0
4391,74.0,0,192,5.0,105.0
4392,58.0,0,1536,3.0,105.0
4393,67.0,0,1536,3.0,105.0
4394,74.0,0,1536,1.0,105.0
4395,62.0,0,1536,1.0,105.0
4396,86.0,240,1536,0.0,105.0
4397,74.0,0,192,4.0,105.0
4398,74.0,240,192,5.0,105.0
4399,58.0,0,384,2.0,105.0
4400,58.0,0,384,7.0,105.0
4401,46.0,0,384,8.0,105.0
4402,74.0,240,192,5.0,105.0
4403,74.0,0,192,4.0,105.0
4404,84.0,0,192,0.0,105.0
4405,72.0,240,192,5.0,105.0
4406,72.0,0,192,4.0,105.0
4407,45.0,0,384,8.0,105.0
4408,57.0,0,384,7.0,105.0
4409,57.0,0,384,2.0,105.0
4410,67.0,0,864,6.0,105.0
4411,82.0,0,192,0.0,105.0
4412,70.0,0,192,4.0,105.0
4413,70.0,240,192,5.0,105.0
4414,69.0,0,192,5.0,105.0
4415,69.0,0,192,4.0,105.0
4416,81.0,0,192,0.0,105.0
4417,60.0,0,384,7.0,105.0
4418,60.0,0,384,2.0,105.0
4419,48.0,240,384,8.0,105.0
4420,63.0,0,384,6.0,105.0
4421,67.0,0,192,4.0,105.0
4422,79.0,0,192,0.0,105.0
4423,67.0,240,192,5.0,105.0
4424,72.0,0,0,1.0,105.0
4425,75.0,0,960,1.0,105.0
4426,66.0,0,192,4.0,105.0
4427,66.0,0,192,5.0,105.0
4428,74.0,0,384,1.0,105.0
4429,50.0,0,384,8.0,105.0
4430,78.0,0,384,0.0,105.0
4431,62.0,0,384,7.0,105.0
4432,62.0,0,384,2.0,105.0
4433,75.0,240,192,5.0,105.0
4434,75.0,0,192,4.0,105.0
4435,74.0,0,192,5.0,105.0
4436,74.0,0,192,4.0,105.0
4437,57.0,0,768,6.0,105.0
4438,62.0,240,768,3.0,105.0
4439,69.0,0,768,3.0,105.0
4440,42.0,0,384,8.0,105.0
4441,54.0,0,384,2.0,105.0
4442,54.0,240,384,7.0,105.0
4443,72.0,0,192,4.0,105.0
4444,72.0,240,192,5.0,105.0
4445,70.0,0,192,5.0,105.0
4446,70.0,0,192,4.0,105.0
4447,74.0,240,192,5.0,105.0
4448,74.0,0,192,4.0,105.0
4449,79.0,0,192,4.0,105.0
4450,79.0,240,192,5.0,105.0
4451,55.0,0,768,7.0,105.0
4452,62.0,0,768,6.0,105.0
4453,55.0,0,768,2.0,105.0
4454,43.0,0,768,8.0,105.0
4455,82.0,240,192,4.0,105.0
4456,82.0,0,192,5.0,105.0
4457,86.0,240,192,4.0,105.0
4458,86.0,0,192,5.0,105.0
4459,86.0,240,192,5.0,105.0
4460,86.0,0,192,4.0,105.0
4461,67.0,0,1536,3.0,105.0
4462,74.0,0,1536,1.0,105.0
4463,70.0,0,1536,1.0,105.0
4464,86.0,240,1536,0.0,105.0
4465,58.0,0,1536,3.0,105.0
4466,86.0,0,192,4.0,105.0
4467,86.0,0,192,5.0,105.0
4468,53.0,0,384,7.0,105.0
4469,41.0,0,384,8.0,105.0
4470,58.0,0,384,6.0,105.0
4471,53.0,240,384,2.0,105.0
4472,86.0,0,192,5.0,105.0
4473,86.0,240,192,4.0,105.0
4474,72.0,0,192,5.0,105.0
4475,72.0,0,192,4.0,105.0
4476,75.0,0,192,5.0,105.0
4477,75.0,240,192,4.0,105.0
4478,79.0,240,192,4.0,105.0
4479,79.0,0,192,5.0,105.0
4480,51.0,0,768,7.0,105.0
4481,39.0,0,768,8.0,105.0
4482,67.0,240,768,6.0,105.0
4483,51.0,0,768,2.0,105.0
4484,84.0,0,192,4.0,105.0
4485,84.0,240,192,5.0,105.0
4486,87.0,240,192,4.0,105.0
4487,87.0,0,192,5.0,105.0
4488,87.0,240,192,5.0,105.0
4489,87.0,0,192,4.0,105.0
4490,87.0,0,1536,0.0,105.0
4491,55.0,0,1536,3.0,105.0
4492,72.0,0,1536,1.0,105.0
4493,75.0,0,1536,1.0,105.0
4494,87.0,0,192,5.0,105.0
4495,87.0,0,192,4.0,105.0
4496,48.0,0,384,7.0,105.0
4497,67.0,0,384,6.0,105.0
4498,48.0,240,384,2.0,105.0
4499,36.0,0,384,8.0,105.0
4500,87.0,240,192,4.0,105.0
4501,87.0,0,192,5.0,105.0
4502,69.0,0,192,4.0,105.0
4503,69.0,0,192,5.0,105.0
4504,72.0,0,192,5.0,105.0
4505,72.0,240,192,4.0,105.0
4506,77.0,240,192,5.0,105.0
4507,77.0,0,192,4.0,105.0
4508,53.0,0,768,2.0,105.0
4509,41.0,0,768,8.0,105.0
4510,60.0,0,768,6.0,105.0
4511,53.0,0,768,7.0,105.0
4512,81.0,240,192,5.0,105.0
4513,81.0,0,192,4.0,105.0
4514,84.0,240,192,4.0,105.0
4515,84.0,0,192,5.0,105.0
4516,84.0,240,192,4.0,105.0
4517,84.0,0,192,5.0,105.0
4518,69.0,240,1536,1.0,105.0
4519,65.0,0,1536,3.0,105.0
4520,72.0,0,1536,1.0,105.0
4521,84.0,0,1536,0.0,105.0
4522,84.0,0,192,5.0,105.0
4523,84.0,0,192,4.0,105.0
4524,51.0,0,384,7.0,105.0
4525,57.0,0,384,6.0,105.0
4526,39.0,0,384,8.0,105.0
4527,51.0,240,384,2.0,105.0
4528,84.0,240,192,4.0,105.0
4529,84.0,0,192,5.0,105.0
4530,70.0,0,192,4.0,105.0
4531,70.0,240,192,5.0,105.0
4532,74.0,240,192,5.0,105.0
4533,74.0,0,192,4.0,105.0
4534,77.0,0,192,4.0,105.0
4535,77.0,240,192,5.0,105.0
4536,38.0,0,768,8.0,105.0
4537,50.0,0,768,2.0,105.0
4538,50.0,0,768,7.0,105.0
4539,65.0,0,768,6.0,105.0
4540,82.0,240,192,4.0,105.0
4541,82.0,0,192,5.0,105.0
4542,86.0,0,192,4.0,105.0
4543,86.0,240,192,5.0,105.0
4544,86.0,240,192,4.0,105.0
4545,86.0,0,192,5.0,105.0
4546,70.0,0,1536,1.0,105.0
4547,86.0,0,1536,0.0,105.0
4548,58.0,0,1536,3.0,105.0
4549,74.0,0,1536,1.0,105.0
4550,86.0,0,192,5.0,105.0
4551,86.0,0,192,4.0,105.0
4552,46.0,0,384,2.0,105.0
4553,46.0,0,384,7.0,105.0
4554,34.0,0,384,8.0,105.0
4555,65.0,240,384,6.0,105.0
4556,86.0,0,192,4.0,105.0
4557,86.0,240,192,5.0,105.0
4558,79.0,0,192,4.0,105.0
4559,79.0,0,192,1.0,105.0
4560,79.0,0,192,5.0,105.0
4561,81.0,240,192,1.0,105.0
4562,81.0,0,192,5.0,105.0
4563,81.0,0,192,4.0,105.0
4564,82.0,240,192,1.0,105.0
4565,82.0,0,192,4.0,105.0
4566,82.0,0,192,5.0,105.0
4567,39.0,0,768,8.0,105.0
4568,51.0,0,768,7.0,105.0
4569,51.0,0,768,2.0,105.0
4570,58.0,240,768,6.0,105.0
4571,81.0,240,192,4.0,105.0
4572,81.0,0,192,1.0,105.0
4573,81.0,0,192,5.0,105.0
4574,79.0,0,192,5.0,105.0
4575,79.0,240,192,1.0,105.0
4576,79.0,0,192,4.0,105.0
4577,77.0,0,192,5.0,105.0
4578,77.0,0,192,1.0,105.0
4579,77.0,240,192,4.0,105.0
4580,75.0,0,192,1.0,105.0
4581,75.0,240,192,4.0,105.0
4582,75.0,0,192,5.0,105.0
4583,53.0,0,384,2.0,105.0
4584,58.0,0,384,6.0,105.0
4585,41.0,0,384,8.0,105.0
4586,53.0,0,384,7.0,105.0
4587,74.0,240,192,5.0,105.0
4588,74.0,0,192,4.0,105.0
4589,74.0,0,192,1.0,105.0
4590,75.0,0,192,5.0,105.0
4591,75.0,0,192,1.0,105.0
4592,75.0,0,192,4.0,105.0
4593,87.0,0,192,0.0,105.0
4594,77.0,0,192,5.0,105.0
4595,77.0,0,192,4.0,105.0
4596,77.0,240,192,1.0,105.0
4597,89.0,0,192,0.0,105.0
4598,79.0,0,192,4.0,105.0
4599,79.0,0,192,5.0,105.0
4600,79.0,240,192,1.0,105.0
4601,91.0,0,192,0.0,105.0
4602,55.0,0,768,2.0,105.0
4603,43.0,0,768,8.0,105.0
4604,55.0,240,768,7.0,105.0
4605,70.0,0,768,6.0,105.0
4606,77.0,0,192,5.0,105.0
4607,77.0,0,192,1.0,105.0
4608,89.0,0,192,0.0,105.0
4609,77.0,240,192,4.0,105.0
4610,87.0,0,192,0.0,105.0
4611,75.0,0,192,4.0,105.0
4612,75.0,0,192,5.0,105.0
4613,75.0,240,192,1.0,105.0
4614,74.0,0,192,4.0,105.0
4615,74.0,0,192,1.0,105.0
4616,86.0,0,192,0.0,105.0
4617,74.0,240,192,5.0,105.0
4618,72.0,0,192,1.0,105.0
4619,72.0,0,192,5.0,105.0
4620,84.0,0,192,0.0,105.0
4621,72.0,0,192,4.0,105.0
4622,40.0,240,384,8.0,105.0
4623,52.0,0,384,2.0,105.0
4624,67.0,0,384,6.0,105.0
4625,52.0,0,384,7.0,105.0
4626,70.0,0,192,1.0,105.0
4627,70.0,0,192,4.0,105.0
4628,82.0,0,192,0.0,105.0
4629,70.0,240,192,5.0,105.0
4630,81.0,0,192,0.0,105.0
4631,69.0,0,192,5.0,105.0
4632,69.0,0,192,1.0,105.0
4633,69.0,0,192,4.0,105.0
4634,82.0,240,192,0.0,105.0
4635,70.0,0,192,4.0,105.0
4636,70.0,0,192,1.0,105.0
4637,70.0,0,192,5.0,105.0
4638,72.0,0,192,1.0,105.0
4639,72.0,240,192,4.0,105.0
4640,72.0,0,192,5.0,105.0
4641,84.0,0,192,0.0,105.0
4642,41.0,240,768,8.0,105.0
4643,60.0,0,768,6.0,105.0
4644,53.0,0,768,7.0,105.0
4645,53.0,0,768,2.0,105.0
4646,70.0,240,192,5.0,105.0
4647,82.0,0,192,0.0,105.0
4648,70.0,0,192,4.0,105.0
4649,70.0,0,192,1.0,105.0
4650,69.0,0,192,1.0,105.0
4651,69.0,240,192,5.0,105.0
4652,69.0,0,192,4.0,105.0
4653,81.0,0,192,0.0,105.0
4654,67.0,0,192,1.0,105.0
4655,67.0,240,192,5.0,105.0
4656,67.0,0,192,4.0,105.0
4657,79.0,0,192,0.0,105.0
4658,77.0,0,192,0.0,105.0
4659,65.0,0,192,5.0,105.0
4660,65.0,0,192,4.0,105.0
4661,65.0,0,192,1.0,105.0
4662,55.0,0,384,2.0,105.0
4663,55.0,0,384,7.0,105.0
4664,43.0,0,384,8.0,105.0
4665,60.0,240,384,6.0,105.0
4666,64.0,0,192,1.0,105.0
4667,64.0,0,192,5.0,105.0
4668,64.0,0,192,4.0,105.0
4669,76.0,240,192,0.0,105.0
4670,65.0,0,192,5.0,105.0
4671,60.0,0,384,6.0,105.0
4672,67.0,240,192,5.0,105.0
4673,65.0,240,192,6.0,105.0
4674,65.0,0,192,5.0,105.0
4675,65.0,0,768,1.0,105.0
4676,57.0,0,768,2.0,105.0
4677,77.0,0,768,0.0,105.0
4678,57.0,0,768,7.0,105.0
4679,65.0,0,768,4.0,105.0
4680,45.0,240,768,8.0,105.0
4681,67.0,240,192,5.0,105.0
4682,67.0,0,192,6.0,105.0
4683,65.0,240,192,6.0,105.0
4684,65.0,0,192,5.0,105.0
4685,63.0,240,192,5.0,105.0
4686,63.0,0,192,6.0,105.0
4687,62.0,0,192,6.0,105.0
4688,62.0,240,192,5.0,105.0
4689,60.0,0,192,5.0,105.0
4690,60.0,240,192,6.0,105.0
4691,62.0,0,240,6.0,105.0
4692,58.0,0,240,7.0,105.0
4693,46.0,0,240,8.0,105.0
4694,70.0,240,288,1.0,105.0
4695,77.0,0,288,4.0,116.0
4696,58.0,0,288,2.0,105.0
4697,86.0,0,288,0.0,105.0
4698,62.0,0,288,3.0,105.0
4699,65.0,0,288,3.0,105.0
4700,62.0,0,288,2.0,105.0
4701,74.0,0,288,1.0,105.0
4702,65.0,0,288,5.0,105.0
4703,62.0,0,144,7.0,105.0
4704,65.0,240,144,6.0,105.0
4705,50.0,0,144,8.0,105.0
4706,60.0,0,144,7.0,105.0
4707,63.0,0,144,6.0,105.0
4708,48.0,240,144,8.0,105.0
4709,87.0,0,288,0.0,105.0
4710,75.0,0,288,1.0,105.0
4711,60.0,0,288,2.0,105.0
4712,72.0,0,288,1.0,105.0
4713,63.0,0,288,2.0,105.0
4714,65.0,0,288,5.0,105.0
4715,65.0,0,288,3.0,105.0
4716,77.0,0,288,4.0,116.0
4717,45.0,240,144,8.0,105.0
4718,60.0,0,144,6.0,105.0
4719,57.0,0,144,7.0,105.0
4720,46.0,0,240,8.0,105.0
4721,58.0,240,240,7.0,105.0
4722,62.0,0,240,6.0,105.0
4723,77.0,0,288,4.0,116.0
4724,86.0,0,288,0.0,105.0
4725,62.0,0,288,3.0,105.0
4726,62.0,0,288,2.0,105.0
4727,74.0,0,288,1.0,105.0
4728,70.0,0,288,1.0,105.0
4729,65.0,0,288,5.0,105.0
4730,65.0,0,288,3.0,105.0
4731,58.0,0,288,2.0,105.0
4732,50.0,0,144,8.0,105.0
4733,65.0,240,144,6.0,105.0
4734,62.0,0,144,7.0,105.0
4735,63.0,0,144,6.0,105.0
4736,60.0,0,144,7.0,105.0
4737,48.0,240,144,8.0,105.0
4738,87.0,0,288,0.0,105.0
4739,65.0,0,288,5.0,105.0
4740,60.0,0,288,2.0,105.0
4741,63.0,0,288,2.0,105.0
4742,72.0,0,288,1.0,105.0
4743,75.0,0,288,1.0,105.0
4744,65.0,0,288,3.0,105.0
4745,77.0,0,288,4.0,116.0
4746,45.0,0,144,8.0,105.0
4747,60.0,240,144,6.0,105.0
4748,57.0,0,144,7.0,105.0
4749,46.0,0,192,8.0,105.0
4750,58.0,0,192,7.0,105.0
4751,62.0,0,192,6.0,105.0
4752,63.0,0,192,6.0,105.0
4753,48.0,0,192,8.0,105.0
4754,60.0,240,192,7.0,105.0
4755,65.0,0,192,6.0,105.0
4756,50.0,0,192,8.0,105.0
4757,62.0,240,192,7.0,105.0
4758,86.0,0,768,0.0,105.0
4759,58.0,0,768,2.0,105.0
4760,62.0,0,768,3.0,105.0
4761,65.0,0,768,3.0,105.0
4762,70.0,0,768,1.0,105.0
4763,74.0,0,768,1.0,105.0
4764,62.0,240,768,2.0,105.0
4765,65.0,0,768,5.0,105.0
4766,77.0,0,768,4.0,116.0
4767,48.0,240,192,8.0,105.0
4768,63.0,0,192,6.0,105.0
4769,60.0,0,192,7.0,105.0
4770,58.0,0,192,7.0,105.0
4771,62.0,0,192,6.0,105.0
4772,46.0,240,192,8.0,105.0
4773,60.0,240,192,6.0,105.0
4774,57.0,0,192,7.0,105.0
4775,45.0,0,192,8.0,105.0
4776,55.0,240,192,7.0,105.0
4777,43.0,0,192,8.0,105.0
4778,58.0,0,192,6.0,105.0
4779,54.0,240,192,7.0,105.0
4780,42.0,0,192,8.0,105.0
4781,57.0,0,192,6.0,105.0
4782,58.0,0,240,6.0,105.0
4783,43.0,0,240,8.0,105.0
4784,55.0,0,240,7.0,105.0
4785,86.0,0,288,4.0,116.0
4786,58.0,0,288,3.0,105.0
4787,70.0,0,288,1.0,105.0
4788,67.0,240,288,1.0,105.0
4789,82.0,0,288,0.0,105.0
4790,55.0,0,288,2.0,105.0
4791,58.0,0,288,2.0,105.0
4792,74.0,0,288,5.0,105.0
4793,67.0,0,288,3.0,105.0
4794,62.0,240,144,6.0,105.0
4795,46.0,0,144,8.0,105.0
4796,58.0,0,144,7.0,105.0
4797,60.0,0,144,6.0,105.0
4798,45.0,0,144,8.0,105.0
4799,57.0,0,144,7.0,105.0
4800,69.0,0,288,1.0,105.0
4801,57.0,0,288,2.0,105.0
4802,60.0,0,288,2.0,105.0
4803,74.0,0,288,5.0,105.0
4804,69.0,0,288,3.0,105.0
4805,62.0,0,288,3.0,105.0
4806,84.0,0,288,0.0,105.0
4807,72.0,240,288,1.0,105.0
4808,86.0,0,288,4.0,116.0
4809,57.0,240,144,6.0,105.0
4810,42.0,0,144,8.0,105.0
4811,54.0,0,144,7.0,105.0
4812,55.0,0,240,7.0,105.0
4813,58.0,0,240,6.0,105.0
4814,43.0,0,240,8.0,105.0
4815,70.0,0,288,1.0,105.0
4816,67.0,0,288,1.0,105.0
4817,86.0,0,288,4.0,116.0
4818,67.0,0,288,3.0,105.0
4819,58.0,0,288,3.0,105.0
4820,55.0,0,288,2.0,105.0
4821,58.0,0,288,2.0,105.0
4822,74.0,0,288,5.0,105.0
4823,82.0,240,288,0.0,105.0
4824,46.0,0,144,8.0,105.0
4825,58.0,240,144,7.0,105.0
4826,62.0,0,144,6.0,105.0
4827,60.0,0,144,6.0,105.0
4828,45.0,240,144,8.0,105.0
4829,57.0,0,144,7.0,105.0
4830,62.0,0,288,3.0,105.0
4831,74.0,0,288,5.0,105.0
4832,72.0,0,288,1.0,105.0
4833,69.0,0,288,1.0,105.0
4834,60.0,0,288,2.0,105.0
4835,57.0,0,288,2.0,105.0
4836,86.0,0,288,4.0,116.0
4837,84.0,0,288,0.0,105.0
4838,69.0,0,288,3.0,105.0
4839,54.0,0,144,7.0,105.0
4840,57.0,240,144,6.0,105.0
4841,42.0,0,144,8.0,105.0
4842,55.0,0,144,7.0,105.0
4843,43.0,0,144,8.0,105.0
4844,58.0,0,288,6.0,105.0
4845,45.0,0,144,8.0,105.0
4846,57.0,240,144,7.0,105.0
4847,46.0,0,144,8.0,105.0
4848,74.0,240,144,6.0,105.0
4849,58.0,0,144,7.0,105.0
4850,82.0,240,768,0.0,105.0
4851,67.0,0,768,3.0,105.0
4852,86.0,0,768,4.0,116.0
4853,70.0,0,768,1.0,105.0
4854,55.0,0,768,2.0,105.0
4855,74.0,0,768,5.0,105.0
4856,58.0,0,768,2.0,105.0
4857,58.0,0,768,3.0,105.0
4858,67.0,0,768,1.0,105.0
4859,72.0,0,144,6.0,105.0
4860,45.0,0,144,8.0,105.0
4861,57.0,240,144,7.0,105.0
4862,70.0,240,144,6.0,105.0
4863,55.0,0,144,7.0,105.0
4864,43.0,0,144,8.0,105.0
4865,53.0,240,144,7.0,105.0
4866,41.0,0,144,8.0,105.0
4867,69.0,0,144,6.0,105.0
4868,51.0,0,144,7.0,105.0
4869,39.0,0,144,8.0,105.0
4870,67.0,240,144,6.0,105.0
4871,65.0,240,144,6.0,105.0
4872,38.0,0,144,8.0,105.0
4873,50.0,0,144,7.0,105.0
4874,39.0,0,240,8.0,105.0
4875,51.0,0,240,7.0,105.0
4876,67.0,0,240,6.0,105.0
4877,75.0,0,288,1.0,105.0
4878,67.0,0,288,3.0,105.0
4879,84.0,0,288,0.0,105.0
4880,79.0,0,288,1.0,105.0
4881,55.0,0,288,2.0,105.0
4882,60.0,240,288,2.0,105.0
4883,72.0,0,288,5.0,105.0
4884,72.0,0,288,3.0,105.0
4885,84.0,0,288,4.0,116.0
4886,43.0,0,144,8.0,105.0
4887,63.0,0,144,6.0,105.0
4888,55.0,240,144,7.0,105.0
4889,53.0,240,144,7.0,105.0
4890,68.0,0,144,6.0,105.0
4891,41.0,0,144,8.0,105.0
4892,83.0,0,288,4.0,116.0
4893,59.0,0,288,2.0,105.0
4894,77.0,0,288,1.0,105.0
4895,80.0,0,288,1.0,105.0
4896,56.0,0,288,2.0,105.0
4897,71.0,0,288,5.0,105.0
4898,74.0,0,288,3.0,105.0
4899,65.0,0,288,3.0,105.0
4900,86.0,0,288,0.0,105.0
4901,50.0,0,144,7.0,105.0
4902,65.0,0,144,6.0,105.0
4903,38.0,240,144,8.0,105.0
4904,67.0,0,240,6.0,105.0
4905,51.0,0,240,7.0,105.0
4906,39.0,0,240,8.0,105.0
4907,84.0,0,288,4.0,116.0
4908,67.0,0,288,3.0,105.0
4909,72.0,0,288,5.0,105.0
4910,72.0,0,288,3.0,105.0
4911,60.0,240,288,2.0,105.0
4912,55.0,0,288,2.0,105.0
4913,79.0,0,288,1.0,105.0
4914,75.0,0,288,1.0,105.0
4915,84.0,0,288,0.0,105.0
4916,63.0,240,144,6.0,105.0
4917,55.0,0,144,7.0,105.0
4918,43.0,0,144,8.0,105.0
4919,41.0,0,144,8.0,105.0
4920,53.0,0,144,7.0,105.0
4921,68.0,0,144,6.0,105.0
4922,77.0,0,288,1.0,105.0
4923,83.0,0,288,4.0,116.0
4924,80.0,0,288,1.0,105.0
4925,59.0,0,288,2.0,105.0
4926,71.0,0,288,5.0,105.0
4927,65.0,0,288,3.0,105.0
4928,74.0,0,288,3.0,105.0
4929,56.0,0,288,2.0,105.0
4930,86.0,240,288,0.0,105.0
4931,65.0,240,144,6.0,105.0
4932,38.0,0,144,8.0,105.0
4933,50.0,0,144,7.0,105.0
4934,51.0,0,144,7.0,105.0
4935,39.0,0,144,8.0,105.0
4936,67.0,0,144,6.0,105.0
4937,65.0,0,144,6.0,105.0
4938,53.0,240,144,7.0,105.0
4939,41.0,0,144,8.0,105.0
4940,55.0,0,144,7.0,105.0
4941,63.0,0,144,6.0,105.0
4942,43.0,240,144,8.0,105.0
4943,75.0,0,768,1.0,105.0
4944,79.0,0,768,1.0,105.0
4945,72.0,0,768,5.0,105.0
4946,84.0,240,768,0.0,105.0
4947,55.0,0,768,2.0,105.0
4948,84.0,0,768,4.0,116.0
4949,67.0,0,768,3.0,105.0
4950,60.0,0,768,2.0,105.0
4951,72.0,0,768,3.0,105.0
4952,62.0,240,144,6.0,105.0
4953,53.0,0,144,7.0,105.0
4954,41.0,0,144,8.0,105.0
4955,60.0,0,144,6.0,105.0
4956,51.0,240,144,7.0,105.0
4957,39.0,0,144,8.0,105.0
4958,58.0,240,144,6.0,105.0
4959,50.0,0,144,7.0,105.0
4960,38.0,0,144,8.0,105.0
4961,48.0,0,144,7.0,105.0
4962,57.0,240,144,6.0,105.0
4963,36.0,0,144,8.0,105.0
4964,58.0,0,144,6.0,105.0
4965,34.0,240,144,8.0,105.0
4966,46.0,0,144,7.0,105.0
4967,45.0,0,240,7.0,105.0
4968,33.0,0,240,8.0,105.0
4969,60.0,0,240,6.0,105.0
4970,75.0,240,288,5.0,105.0
4971,60.0,0,288,3.0,105.0
4972,65.0,0,288,2.0,105.0
4973,53.0,0,288,2.0,105.0
4974,89.0,0,288,0.0,105.0
4975,87.0,0,288,4.0,116.0
4976,77.0,0,288,1.0,105.0
4977,58.0,0,144,6.0,105.0
4978,46.0,240,144,7.0,105.0
4979,34.0,0,144,8.0,105.0
4980,57.0,0,144,6.0,105.0
4981,36.0,0,144,8.0,105.0
4982,48.0,0,144,7.0,105.0
4983,66.0,0,288,2.0,105.0
4984,79.0,240,288,1.0,105.0
4985,87.0,0,288,4.0,116.0
4986,90.0,0,288,0.0,105.0
4987,54.0,0,288,2.0,105.0
4988,75.0,0,288,5.0,105.0
4989,60.0,0,288,3.0,105.0
4990,46.0,0,144,7.0,105.0
4991,58.0,0,144,6.0,105.0
4992,34.0,240,144,8.0,105.0
4993,33.0,0,240,8.0,105.0
4994,60.0,0,240,6.0,105.0
4995,45.0,0,240,7.0,105.0
4996,77.0,0,288,1.0,105.0
4997,89.0,0,288,0.0,105.0
4998,60.0,240,288,3.0,105.0
4999,53.0,0,288,2.0,105.0
5000,65.0,0,288,2.0,105.0
5001,75.0,0,288,5.0,105.0
5002,87.0,0,288,4.0,116.0
5003,34.0,0,144,8.0,105.0
5004,58.0,0,144,6.0,105.0
5005,46.0,240,144,7.0,105.0
5006,48.0,0,144,7.0,105.0
5007,36.0,240,144,8.0,105.0
5008,57.0,0,144,6.0,105.0
5009,75.0,0,288,5.0,105.0
5010,87.0,0,288,4.0,116.0
5011,90.0,0,288,0.0,105.0
5012,60.0,0,288,3.0,105.0
5013,66.0,0,288,2.0,105.0
5014,54.0,0,288,2.0,105.0
5015,79.0,0,288,1.0,105.0
5016,58.0,0,144,6.0,105.0
5017,34.0,240,144,8.0,105.0
5018,46.0,0,144,7.0,105.0
5019,87.0,0,192,4.0,127.0
5020,75.0,0,192,5.0,125.0
5021,74.0,0,192,5.0,105.0
5022,86.0,240,192,4.0,116.0
5023,72.0,0,192,5.0,105.0
5024,84.0,240,192,4.0,116.0
5025,77.0,0,768,1.0,105.0
5026,72.0,0,768,3.0,105.0
5027,89.0,0,768,0.0,105.0
5028,82.0,0,192,4.0,116.0
5029,70.0,240,192,5.0,105.0
5030,60.0,0,1152,6.0,105.0
5031,69.0,0,192,5.0,105.0
5032,81.0,240,192,4.0,116.0
5033,33.0,0,1152,8.0,105.0
5034,45.0,0,1152,7.0,105.0
5035,65.0,0,1152,2.0,105.0
5036,45.0,240,1152,2.0,105.0
5037,67.0,240,192,5.0,105.0
5038,79.0,0,192,4.0,116.0
5039,77.0,240,192,4.0,116.0
5040,65.0,0,192,5.0,105.0
5041,45.0,0,192,8.0,105.0
5042,75.0,0,192,4.0,116.0
5043,57.0,0,192,2.0,105.0
5044,69.0,240,192,6.0,105.0
5045,63.0,0,192,5.0,105.0
5046,57.0,0,192,7.0,105.0
5047,46.0,0,192,8.0,125.0
5048,58.0,0,192,7.0,125.0
5049,58.0,0,192,2.0,125.0
5050,70.0,0,192,6.0,125.0
5051,57.0,0,192,2.0,105.0
5052,57.0,0,192,7.0,105.0
5053,69.0,240,192,6.0,105.0
5054,45.0,0,192,8.0,105.0
5055,67.0,0,192,6.0,105.0
5056,55.0,0,192,2.0,105.0
5057,55.0,240,192,7.0,105.0
5058,43.0,0,192,8.0,105.0
5059,65.0,240,768,3.0,105.0
5060,62.0,0,768,3.0,105.0
5061,53.0,0,192,7.0,105.0
5062,41.0,0,192,8.0,105.0
5063,65.0,0,192,6.0,105.0
5064,53.0,240,192,2.0,105.0
5065,39.0,0,192,8.0,105.0
5066,51.0,240,192,2.0,105.0
5067,62.0,0,1152,5.0,105.0
5068,51.0,0,192,7.0,105.0
5069,63.0,0,192,6.0,105.0
5070,74.0,0,1152,4.0,116.0
5071,62.0,0,384,3.0,105.0
5072,50.0,0,192,2.0,105.0
5073,38.0,0,192,8.0,105.0
5074,50.0,240,192,7.0,105.0
5075,62.0,0,192,6.0,105.0
5076,65.0,0,1536,1.0,105.0
5077,77.0,0,1536,0.0,105.0
5078,77.0,0,1536,1.0,105.0
5079,36.0,0,192,8.0,105.0
5080,48.0,0,192,7.0,105.0
5081,48.0,0,192,2.0,105.0
5082,60.0,0,192,6.0,105.0
5083,62.0,240,384,3.0,105.0
5084,58.0,0,192,6.0,105.0
5085,46.0,0,192,7.0,105.0
5086,74.0,0,192,5.0,105.0
5087,46.0,0,192,2.0,105.0
5088,86.0,0,192,4.0,116.0
5089,34.0,240,192,8.0,105.0
5090,72.0,0,192,5.0,125.0
5091,84.0,0,192,4.0,127.0
5092,70.0,240,192,5.0,105.0
5093,82.0,0,192,4.0,116.0
5094,69.0,240,192,5.0,105.0
5095,81.0,0,192,4.0,116.0
5096,72.0,240,768,3.0,105.0
5097,62.0,0,768,3.0,105.0
5098,67.0,0,192,5.0,105.0
5099,79.0,240,192,4.0,116.0
5100,66.0,0,192,5.0,105.0
5101,45.0,0,1152,7.0,105.0
5102,57.0,0,1152,6.0,105.0
5103,33.0,0,1152,8.0,105.0
5104,78.0,240,192,4.0,116.0
5105,45.0,0,1152,2.0,105.0
5106,75.0,240,192,4.0,116.0
5107,63.0,0,192,5.0,105.0
5108,78.0,0,1536,0.0,105.0
5109,78.0,0,1536,1.0,105.0
5110,66.0,0,1536,1.0,105.0
5111,62.0,0,192,5.0,105.0
5112,74.0,240,192,4.0,116.0
5113,72.0,0,192,4.0,116.0
5114,45.0,0,192,8.0,105.0
5115,60.0,0,192,5.0,105.0
5116,57.0,0,192,2.0,105.0
5117,69.0,0,192,6.0,105.0
5118,57.0,240,192,7.0,105.0
5119,55.0,0,192,7.0,125.0
5120,43.0,0,192,8.0,125.0
5121,67.0,0,192,6.0,125.0
5122,55.0,0,192,2.0,125.0
5123,65.0,240,192,6.0,105.0
5124,53.0,0,192,7.0,105.0
5125,41.0,0,192,8.0,105.0
5126,53.0,0,192,2.0,105.0
5127,39.0,0,192,8.0,105.0
5128,51.0,0,192,2.0,105.0
5129,51.0,240,192,7.0,105.0
5130,63.0,0,192,6.0,105.0
5131,62.0,0,768,3.0,105.0
5132,58.0,0,768,3.0,105.0
5133,62.0,240,192,6.0,105.0
5134,50.0,0,192,2.0,105.0
5135,38.0,0,192,8.0,105.0
5136,50.0,0,192,7.0,105.0
5137,48.0,0,192,7.0,105.0
5138,36.0,0,192,8.0,105.0
5139,48.0,240,192,2.0,105.0
5140,58.0,0,1152,5.0,105.0
5141,70.0,0,1152,4.0,116.0
5142,60.0,0,192,6.0,105.0
5143,58.0,0,384,3.0,105.0
5144,46.0,0,192,2.0,105.0
5145,46.0,0,192,7.0,105.0
5146,34.0,240,192,8.0,105.0
5147,58.0,0,192,6.0,105.0
5148,79.0,240,1536,0.0,105.0
5149,67.0,0,1536,1.0,105.0
5150,79.0,0,1536,1.0,105.0
5151,45.0,240,192,7.0,105.0
5152,57.0,0,192,6.0,105.0
5153,33.0,0,192,8.0,105.0
5154,45.0,0,192,2.0,105.0
5155,58.0,0,384,3.0,105.0
5156,31.0,0,192,8.0,105.0
5157,82.0,0,192,4.0,116.0
5158,43.0,0,192,7.0,105.0
5159,70.0,0,192,5.0,105.0
5160,43.0,0,192,2.0,105.0
5161,55.0,240,192,6.0,105.0
5162,68.0,0,192,5.0,125.0
5163,80.0,0,192,4.0,127.0
5164,79.0,0,192,4.0,116.0
5165,67.0,240,192,5.0,105.0
5166,77.0,240,192,4.0,116.0
5167,65.0,0,192,5.0,105.0
5168,58.0,0,768,3.0,105.0
5169,62.0,0,768,3.0,105.0
5170,75.0,240,192,4.0,116.0
5171,63.0,0,192,5.0,105.0
5172,29.0,0,1152,8.0,105.0
5173,74.0,240,192,4.0,116.0
5174,41.0,0,1152,2.0,105.0
5175,53.0,0,1152,6.0,105.0
5176,41.0,0,1152,7.0,105.0
5177,62.0,0,192,5.0,105.0
5178,60.0,240,192,5.0,105.0
5179,72.0,0,192,4.0,116.0
5180,86.0,240,1536,0.0,105.0
5181,74.0,0,1536,1.0,105.0
5182,70.0,0,192,4.0,116.0
5183,58.0,240,192,5.0,105.0
5184,65.0,0,192,7.0,105.0
5185,56.0,240,192,5.0,105.0
5186,53.0,0,192,8.0,105.0
5187,65.0,0,192,6.0,105.0
5188,65.0,0,192,2.0,105.0
5189,68.0,0,192,4.0,116.0
5190,63.0,0,192,2.0,125.0
5191,63.0,0,192,6.0,125.0
5192,51.0,0,192,8.0,125.0
5193,63.0,0,192,7.0,125.0
5194,62.0,240,192,2.0,105.0
5195,62.0,0,192,6.0,105.0
5196,62.0,0,192,7.0,105.0
5197,50.0,0,192,8.0,105.0
5198,60.0,0,192,6.0,105.0
5199,60.0,0,192,2.0,105.0
5200,60.0,0,192,7.0,105.0
5201,48.0,240,192,8.0,105.0
5202,70.0,240,768,3.0,105.0
5203,67.0,0,768,3.0,105.0
5204,58.0,0,192,2.0,105.0
5205,58.0,0,192,6.0,105.0
5206,46.0,0,192,8.0,105.0
5207,58.0,240,192,7.0,105.0
5208,56.0,0,192,2.0,105.0
5209,44.0,240,192,8.0,105.0
5210,67.0,0,1152,4.0,116.0
5211,55.0,0,1152,5.0,105.0
5212,56.0,0,192,7.0,105.0
5213,56.0,0,192,6.0,105.0
5214,55.0,0,384,3.0,105.0
5215,55.0,0,192,2.0,105.0
5216,55.0,0,192,7.0,105.0
5217,43.0,0,192,8.0,105.0
5218,55.0,240,192,6.0,105.0
5219,75.0,0,1536,1.0,105.0
5220,87.0,0,1536,0.0,105.0
5221,53.0,0,192,2.0,105.0
5222,53.0,0,192,7.0,105.0
5223,53.0,0,192,6.0,105.0
5224,41.0,0,192,8.0,105.0
5225,55.0,240,384,3.0,105.0
5226,51.0,0,192,7.0,105.0
5227,51.0,0,192,6.0,105.0
5228,79.0,240,192,4.0,116.0
5229,51.0,0,192,2.0,105.0
5230,39.0,0,192,8.0,105.0
5231,79.0,0,192,5.0,105.0
5232,77.0,240,192,4.0,127.0
5233,77.0,0,192,5.0,125.0
5234,75.0,0,192,4.0,116.0
5235,75.0,240,192,5.0,105.0
5236,74.0,240,192,5.0,105.0
5237,74.0,0,192,4.0,116.0
5238,38.0,0,768,8.0,105.0
5239,67.0,0,768,3.0,105.0
5240,50.0,0,768,6.0,105.0
5241,74.0,0,768,3.0,105.0
5242,50.0,0,768,7.0,105.0
5243,50.0,0,768,2.0,105.0
5244,72.0,0,192,4.0,116.0
5245,72.0,240,192,5.0,105.0
5246,71.0,240,192,4.0,116.0
5247,71.0,0,192,5.0,105.0
5248,68.0,240,192,5.0,105.0
5249,68.0,0,192,4.0,116.0
5250,71.0,0,1536,1.0,105.0
5251,83.0,0,1536,0.0,105.0
5252,67.0,0,192,4.0,116.0
5253,67.0,240,192,5.0,105.0
5254,65.0,0,192,4.0,116.0
5255,65.0,240,192,5.0,105.0
5256,63.0,0,192,4.0,116.0
5257,63.0,0,192,5.0,105.0
5258,65.0,240,192,4.0,116.0
5259,65.0,0,192,5.0,105.0
5260,67.0,0,192,4.0,116.0
5261,67.0,240,192,5.0,105.0
5262,36.0,0,768,8.0,105.0
5263,48.0,0,768,7.0,105.0
5264,84.0,0,768,0.0,105.0
5265,72.0,240,768,1.0,105.0
5266,48.0,0,768,2.0,105.0
5267,51.0,0,768,6.0,105.0
5268,63.0,0,192,4.0,116.0
5269,63.0,240,192,5.0,105.0
5270,62.0,240,192,4.0,116.0
5271,62.0,0,192,5.0,105.0
5272,63.0,240,192,4.0,116.0
5273,63.0,0,192,5.0,105.0
5274,65.0,0,192,4.0,116.0
5275,65.0,240,192,5.0,105.0
5276,83.0,0,768,0.0,105.0
5277,38.0,0,768,8.0,105.0
5278,53.0,0,768,6.0,105.0
5279,77.0,0,768,1.0,105.0
5280,50.0,0,768,7.0,105.0
5281,68.0,0,768,1.0,105.0
5282,50.0,0,768,2.0,105.0
5283,62.0,0,192,5.0,105.0
5284,62.0,240,192,4.0,116.0
5285,60.0,0,192,5.0,105.0
5286,60.0,0,192,4.0,116.0
5287,62.0,0,192,4.0,116.0
5288,62.0,240,192,5.0,105.0
5289,63.0,240,192,5.0,105.0
5290,63.0,0,192,4.0,116.0
5291,84.0,0,768,0.0,105.0
5292,51.0,0,768,7.0,105.0
5293,67.0,0,768,1.0,105.0
5294,51.0,0,768,2.0,105.0
5295,39.0,0,768,8.0,105.0
5296,60.0,240,192,4.0,116.0
5297,60.0,0,192,5.0,105.0
5298,58.0,0,192,5.0,105.0
5299,58.0,240,192,4.0,116.0
5300,60.0,240,192,5.0,105.0
5301,60.0,0,192,4.0,116.0
5302,55.0,240,1536,6.0,105.0
5303,62.0,0,192,4.0,116.0
5304,62.0,240,192,5.0,105.0
5305,72.0,0,768,1.0,105.0
5306,79.0,0,1728,1.0,105.0
5307,52.0,0,768,7.0,105.0
5308,52.0,0,768,2.0,105.0
5309,40.0,0,768,8.0,105.0
5310,82.0,0,768,0.0,105.0
5311,58.0,240,192,4.0,116.0
5312,58.0,0,192,5.0,105.0
5313,57.0,0,192,4.0,127.0
5314,57.0,0,192,5.0,125.0
5315,53.0,0,384,7.0,105.0
5316,41.0,240,384,8.0,105.0
5317,48.0,0,384,6.0,105.0
5318,53.0,0,384,2.0,105.0
5319,60.0,240,192,5.0,105.0
5320,60.0,0,192,4.0,105.0
5321,65.0,0,192,5.0,105.0
5322,65.0,240,192,4.0,105.0
5323,41.0,0,384,8.0,105.0
5324,53.0,0,384,2.0,105.0
5325,53.0,0,384,7.0,105.0
5326,65.0,0,384,6.0,105.0
5327,69.0,0,192,4.0,105.0
5328,69.0,240,192,5.0,105.0
5329,72.0,240,192,4.0,105.0
5330,72.0,0,192,5.0,105.0
5331,41.0,0,384,8.0,105.0
5332,65.0,0,384,6.0,105.0
5333,53.0,0,384,7.0,105.0
5334,53.0,0,384,2.0,105.0
5335,72.0,0,192,5.0,105.0
5336,72.0,240,192,4.0,105.0
5337,81.0,0,1536,0.0,105.0
5338,72.0,0,1536,1.0,105.0
5339,65.0,0,1536,3.0,105.0
5340,77.0,0,1536,1.0,105.0
5341,72.0,0,192,5.0,105.0
5342,72.0,0,192,4.0,105.0
5343,65.0,0,384,6.0,105.0
5344,53.0,0,384,2.0,105.0
5345,41.0,0,384,8.0,105.0
5346,53.0,240,384,7.0,105.0
5347,72.0,240,192,5.0,105.0
5348,72.0,0,192,4.0,105.0
5349,55.0,0,192,4.0,125.0
5350,55.0,0,192,5.0,125.0
5351,53.0,0,384,7.0,105.0
5352,53.0,0,384,2.0,105.0
5353,41.0,0,384,8.0,105.0
5354,65.0,0,384,6.0,105.0
5355,58.0,240,192,5.0,105.0
5356,58.0,0,192,4.0,105.0
5357,64.0,0,192,5.0,105.0
5358,64.0,0,192,4.0,105.0
5359,41.0,240,384,8.0,105.0
5360,65.0,0,384,6.0,105.0
5361,53.0,0,384,2.0,105.0
5362,53.0,0,384,7.0,105.0
5363,67.0,240,192,5.0,105.0
5364,67.0,0,192,4.0,105.0
5365,70.0,0,192,4.0,105.0
5366,70.0,0,192,5.0,105.0
5367,53.0,0,384,2.0,105.0
5368,53.0,240,384,7.0,105.0
5369,65.0,0,384,6.0,105.0
5370,41.0,0,384,8.0,105.0
5371,70.0,240,192,4.0,105.0
5372,70.0,0,192,5.0,105.0
5373,70.0,0,1536,1.0,105.0
5374,65.0,240,1536,3.0,105.0
5375,79.0,0,1536,0.0,105.0
5376,76.0,0,1536,1.0,105.0
5377,70.0,240,192,4.0,105.0
5378,70.0,0,192,5.0,105.0
5379,65.0,0,384,6.0,105.0
5380,41.0,0,384,8.0,105.0
5381,53.0,0,384,2.0,105.0
5382,53.0,0,384,7.0,105.0
5383,70.0,240,192,4.0,105.0
5384,70.0,0,192,5.0,105.0
5385,69.0,0,192,5.0,125.0
5386,69.0,0,192,4.0,125.0
5387,53.0,0,384,2.0,105.0
5388,65.0,0,384,6.0,105.0
5389,41.0,0,384,8.0,105.0
5390,53.0,0,384,7.0,105.0
5391,72.0,0,192,4.0,105.0
5392,72.0,240,192,5.0,105.0
5393,77.0,240,192,4.0,105.0
5394,77.0,0,192,5.0,105.0
5395,65.0,0,768,3.0,105.0
5396,53.0,0,384,2.0,105.0
5397,65.0,0,384,6.0,105.0
5398,53.0,0,384,7.0,105.0
5399,41.0,0,384,8.0,105.0
5400,81.0,0,192,5.0,105.0
5401,81.0,240,192,4.0,105.0
5402,84.0,0,192,4.0,105.0
5403,84.0,0,192,5.0,105.0
5404,53.0,0,384,2.0,105.0
5405,53.0,0,384,7.0,105.0
5406,65.0,0,384,6.0,105.0
5407,65.0,0,384,3.0,105.0
5408,41.0,240,384,8.0,105.0
5409,84.0,0,192,4.0,105.0
5410,84.0,240,192,5.0,105.0
5411,69.0,0,1536,1.0,105.0
5412,84.0,240,1536,0.0,105.0
5413,77.0,0,1536,1.0,105.0
5414,84.0,0,192,5.0,105.0
5415,84.0,0,192,4.0,105.0
5416,53.0,240,384,2.0,105.0
5417,65.0,0,384,6.0,105.0
5418,65.0,0,384,3.0,105.0
5419,53.0,0,384,7.0,105.0
5420,41.0,0,384,8.0,105.0
5421,84.0,0,192,4.0,105.0
5422,84.0,240,192,5.0,105.0
5423,67.0,240,192,4.0,125.0
5424,67.0,0,192,5.0,125.0
5425,65.0,0,384,6.0,105.0
5426,53.0,0,384,7.0,105.0
5427,41.0,0,384,8.0,105.0
5428,53.0,0,384,2.0,105.0
5429,70.0,0,192,5.0,105.0
5430,70.0,240,192,4.0,105.0
5431,76.0,240,192,5.0,105.0
5432,76.0,0,192,4.0,105.0
5433,65.0,0,768,3.0,105.0
5434,41.0,0,384,8.0,105.0
5435,65.0,0,384,6.0,105.0
5436,53.0,0,384,2.0,105.0
5437,53.0,0,384,7.0,105.0
5438,79.0,240,192,4.0,105.0
5439,79.0,0,192,5.0,105.0
5440,82.0,0,192,4.0,105.0
5441,82.0,0,192,5.0,105.0
5442,41.0,0,384,8.0,105.0
5443,53.0,240,384,2.0,105.0
5444,65.0,0,384,6.0,105.0
5445,53.0,0,384,7.0,105.0
5446,65.0,0,384,3.0,105.0
5447,82.0,0,192,5.0,105.0
5448,82.0,240,192,4.0,105.0
5449,88.0,0,1536,0.0,105.0
5450,82.0,0,1536,1.0,105.0
5451,79.0,0,1536,1.0,105.0
5452,82.0,0,192,5.0,105.0
5453,82.0,0,192,4.0,105.0
5454,65.0,0,384,3.0,105.0
5455,65.0,0,384,6.0,105.0
5456,41.0,240,384,8.0,105.0
5457,53.0,0,384,7.0,105.0
5458,53.0,0,384,2.0,105.0
5459,82.0,0,192,4.0,105.0
5460,82.0,240,192,5.0,105.0
5461,41.0,0,384,8.0,105.0
5462,65.0,0,384,3.0,105.0
5463,53.0,0,384,2.0,105.0
5464,81.0,0,384,4.0,105.0
5465,53.0,0,384,7.0,105.0
5466,81.0,0,384,1.0,105.0
5467,77.0,240,384,1.0,105.0
5468,65.0,0,384,6.0,105.0
5469,81.0,0,384,5.0,105.0
5470,89.0,0,384,0.0,105.0
5471,53.0,0,384,2.0,105.0
5472,53.0,0,384,7.0,105.0
5473,89.0,0,384,0.0,105.0
5474,41.0,0,384,8.0,105.0
5475,72.0,0,384,1.0,105.0
5476,81.0,0,384,1.0,105.0
5477,65.0,0,384,6.0,105.0
5478,69.0,960,384,4.0,105.0
5479,77.0,0,384,4.0,105.0
5480,65.0,0,384,3.0,105.0
5481,69.0,0,384,5.0,105.0
5482,77.0,0,384,5.0,105.0
5483,29.0,0,768,8.0,92.0
5484,69.0,0,768,1.0,92.0
5485,65.0,0,768,5.0,92.0
5486,41.0,0,768,2.0,105.0
5487,57.0,0,768,5.0,92.0
5488,77.0,0,768,0.0,92.0
5489,65.0,0,768,4.0,92.0
5490,53.0,0,768,6.0,92.0
5491,72.0,0,768,1.0,92.0
5492,57.0,0,768,4.0,92.0
5493,41.0,0,768,7.0,92.0
5494,65.0,960,768,3.0,92.0
5495,77.0,1440,384,4.0,70.0
5496,70.0,480,384,6.0,58.0
5497,74.0,0,384,5.0,58.0
5498,74.0,0,384,5.0,58.0
5499,70.0,480,384,6.0,58.0
5500,70.0,480,384,6.0,58.0
5501,74.0,0,384,5.0,58.0
5502,77.0,0,1728,4.0,70.0
5503,74.0,480,384,5.0,58.0
5504,70.0,0,384,6.0,58.0
5505,76.0,480,120,4.0,70.0
5506,69.0,0,384,6.0,58.0
5507,72.0,0,384,5.0,58.0
5508,77.0,120,672,4.0,70.0
5509,72.0,0,384,5.0,58.0
5510,69.0,360,384,6.0,58.0
5511,76.0,0,120,4.0,70.0
5512,72.0,0,384,5.0,58.0
5513,69.0,480,384,6.0,58.0
5514,77.0,120,672,4.0,70.0
5515,72.0,360,384,5.0,58.0
5516,69.0,0,384,6.0,58.0
5517,67.0,0,384,6.0,58.0
5518,82.0,0,720,4.0,92.0
5519,67.0,480,384,6.0,58.0
5520,79.0,240,192,4.0,70.0
5521,67.0,0,384,6.0,58.0
5522,70.0,480,1536,5.0,80.0
5523,67.0,480,384,6.0,58.0
5524,65.0,0,384,6.0,58.0
5525,65.0,480,384,6.0,58.0
5526,75.0,240,1920,4.0,70.0
5527,65.0,480,384,6.0,58.0
5528,70.0,480,1536,5.0,70.0
5529,65.0,480,384,6.0,58.0
5530,74.0,0,1344,4.0,70.0
5531,71.0,720,240,4.0,70.0
5532,72.0,240,384,4.0,70.0
5533,74.0,720,240,4.0,70.0
5534,75.0,240,384,4.0,70.0
5535,67.0,0,2304,5.0,58.0
5536,63.0,480,2304,6.0,58.0
5537,77.0,720,240,4.0,70.0
5538,78.0,240,384,4.0,70.0
5539,79.0,720,192,4.0,70.0
5540,53.0,0,384,6.0,58.0
5541,53.0,480,384,6.0,58.0
5542,53.0,480,384,6.0,58.0
5543,62.0,0,1440,5.0,58.0
5544,70.0,240,1440,4.0,70.0
5545,58.0,0,240,5.0,58.0
5546,74.0,0,240,4.0,70.0
5547,53.0,480,384,6.0,58.0
5548,72.0,0,192,4.0,70.0
5549,57.0,240,240,5.0,58.0
5550,53.0,0,384,6.0,58.0
5551,57.0,240,384,5.0,58.0
5552,72.0,0,480,4.0,70.0
5553,74.0,480,480,4.0,70.0
5554,75.0,480,480,4.0,70.0
5555,76.0,480,384,4.0,70.0
5556,70.0,480,384,6.0,70.0
5557,74.0,0,384,5.0,70.0
5558,70.0,480,384,6.0,70.0
5559,74.0,0,384,5.0,70.0
5560,74.0,0,384,5.0,70.0
5561,70.0,480,384,6.0,70.0
5562,74.0,0,384,5.0,70.0
5563,70.0,480,384,6.0,70.0
5564,72.0,0,384,5.0,70.0
5565,77.0,0,2304,4.0,70.0
5566,69.0,480,384,6.0,70.0
5567,69.0,0,384,6.0,70.0
5568,72.0,0,384,5.0,70.0
5569,78.0,480,480,4.0,70.0
5570,69.0,480,384,6.0,70.0
5571,72.0,0,384,5.0,70.0
5572,79.0,0,480,4.0,70.0
5573,69.0,480,384,6.0,70.0
5574,72.0,0,384,5.0,70.0
5575,81.0,0,480,4.0,70.0
5576,82.0,480,480,4.0,70.0
5577,81.0,480,480,4.0,70.0
5578,79.0,480,480,4.0,70.0
5579,78.0,480,480,4.0,70.0
5580,77.0,480,480,4.0,70.0
5581,67.0,0,2832,6.0,58.0
5582,76.0,480,480,4.0,70.0
5583,75.0,480,480,4.0,70.0
5584,74.0,480,384,4.0,70.0
5585,65.0,0,912,6.0,58.0
5586,70.0,0,3840,5.0,58.0
5587,67.0,0,384,5.0,58.0
5588,63.0,0,384,6.0,58.0
5589,71.0,480,432,4.0,70.0
5590,72.0,480,480,4.0,70.0
5591,75.0,480,480,4.0,70.0
5592,79.0,480,384,4.0,70.0
5593,70.0,0,1440,4.0,70.0
5594,62.0,480,1440,5.0,58.0
5595,74.0,1440,240,4.0,70.0
5596,65.0,0,240,5.0,58.0
5597,53.0,0,1920,6.0,58.0
5598,72.0,240,240,4.0,70.0
5599,63.0,0,240,5.0,58.0
5600,70.0,240,384,4.0,58.0
5601,62.0,0,384,5.0,58.0
5602,58.0,0,384,6.0,58.0
5603,65.0,480,480,1.0,80.0
5604,70.0,480,480,1.0,80.0
5605,72.0,480,480,1.0,80.0
5606,74.0,480,384,1.0,80.0
5607,53.0,0,480,2.0,80.0
5608,70.0,480,480,1.0,80.0
5609,58.0,480,480,2.0,80.0
5610,74.0,0,480,1.0,80.0
5611,60.0,0,384,2.0,80.0
5612,75.0,480,384,1.0,80.0
5613,46.0,480,384,8.0,58.0
5614,58.0,0,384,7.0,58.0
5615,58.0,0,384,7.0,58.0
5616,46.0,480,384,8.0,58.0
5617,46.0,0,384,8.0,58.0
5618,58.0,480,384,7.0,58.0
5619,77.0,0,1536,1.0,80.0
5620,62.0,0,1536,2.0,80.0
5621,58.0,480,384,7.0,58.0
5622,46.0,0,384,8.0,58.0
5623,76.0,0,120,1.0,80.0
5624,57.0,480,384,7.0,58.0
5625,45.0,0,384,8.0,58.0
5626,77.0,120,672,1.0,80.0
5627,57.0,0,384,7.0,58.0
5628,45.0,360,384,8.0,58.0
5629,76.0,0,120,1.0,80.0
5630,57.0,0,384,7.0,58.0
5631,45.0,480,384,8.0,58.0
5632,60.0,0,1536,2.0,80.0
5633,77.0,120,672,1.0,80.0
5634,57.0,0,384,7.0,58.0
5635,45.0,360,384,8.0,58.0
5636,82.0,0,240,1.0,92.0
5637,81.0,240,240,1.0,92.0
5638,58.0,480,480,2.0,92.0
5639,60.0,0,240,2.0,92.0
5640,79.0,240,240,1.0,92.0
5641,77.0,0,192,1.0,92.0
5642,62.0,240,192,2.0,92.0
5643,75.0,0,240,4.0,58.0
5644,63.0,0,240,5.0,58.0
5645,62.0,240,240,5.0,58.0
5646,74.0,0,240,4.0,58.0
5647,55.0,0,1536,7.0,58.0
5648,43.0,0,1536,8.0,58.0
5649,72.0,0,240,4.0,58.0
5650,60.0,240,240,5.0,58.0
5651,70.0,240,192,4.0,58.0
5652,58.0,0,192,5.0,58.0
5653,75.0,0,1872,1.0,92.0
5654,63.0,240,1872,2.0,80.0
5655,69.0,240,960,4.0,58.0
5656,54.0,0,960,7.0,58.0
5657,57.0,0,960,5.0,58.0
5658,42.0,0,960,8.0,58.0
5659,70.0,0,768,4.0,58.0
5660,55.0,960,768,7.0,58.0
5661,58.0,0,768,5.0,58.0
5662,62.0,0,768,2.0,80.0
5663,43.0,0,768,8.0,58.0
5664,74.0,0,768,1.0,80.0
5665,72.0,0,720,1.0,80.0
5666,51.0,0,768,7.0,58.0
5667,39.0,0,768,8.0,58.0
5668,74.0,720,80,1.0,80.0
5669,72.0,80,80,1.0,80.0
5670,71.0,80,80,1.0,80.0
5671,72.0,80,384,1.0,80.0
5672,55.0,960,1440,2.0,80.0
5673,74.0,480,384,1.0,80.0
5674,59.0,0,384,2.0,80.0
5675,60.0,480,384,2.0,80.0
5676,75.0,0,384,1.0,80.0
5677,39.0,480,480,8.0,58.0
5678,75.0,0,480,1.0,80.0
5679,60.0,0,480,2.0,80.0
5680,51.0,0,480,7.0,58.0
5681,50.0,0,480,7.0,58.0
5682,62.0,0,480,2.0,80.0
5683,77.0,480,480,1.0,80.0
5684,38.0,0,480,8.0,58.0
5685,36.0,480,384,8.0,58.0
5686,63.0,0,384,2.0,80.0
5687,79.0,0,384,1.0,80.0
5688,48.0,0,384,7.0,58.0
5689,53.0,0,480,7.0,58.0
5690,41.0,0,480,8.0,58.0
5691,40.0,0,480,8.0,58.0
5692,52.0,480,480,7.0,58.0
5693,58.0,0,1440,2.0,80.0
5694,53.0,0,480,7.0,58.0
5695,41.0,480,480,8.0,58.0
5696,74.0,480,1440,1.0,80.0
5697,60.0,0,240,2.0,80.0
5698,75.0,0,240,1.0,80.0
5699,74.0,240,192,1.0,80.0
5700,58.0,0,192,2.0,80.0
5701,52.0,480,480,7.0,58.0
5702,40.0,0,480,8.0,58.0
5703,57.0,240,384,2.0,70.0
5704,41.0,0,480,8.0,58.0
5705,53.0,0,480,7.0,58.0
5706,72.0,0,480,1.0,80.0
5707,74.0,480,480,1.0,80.0
5708,75.0,480,480,1.0,80.0
5709,76.0,480,384,1.0,80.0
5710,46.0,0,384,7.0,58.0
5711,34.0,0,384,8.0,58.0
5712,46.0,0,384,7.0,58.0
5713,34.0,480,384,8.0,58.0
5714,62.0,0,960,5.0,58.0
5715,74.0,0,960,1.0,70.0
5716,46.0,480,384,8.0,58.0
5717,58.0,0,384,7.0,58.0
5718,58.0,480,1536,3.0,58.0
5719,58.0,480,384,7.0,58.0
5720,46.0,0,384,8.0,58.0
5721,73.0,0,960,1.0,70.0
5722,61.0,0,960,5.0,58.0
5723,45.0,0,384,8.0,58.0
5724,57.0,480,384,7.0,58.0
5725,45.0,480,384,8.0,58.0
5726,57.0,0,384,7.0,58.0
5727,72.0,0,960,1.0,70.0
5728,60.0,0,960,5.0,58.0
5729,56.0,0,384,7.0,58.0
5730,44.0,0,384,8.0,58.0
5731,53.0,0,1536,3.0,58.0
5732,44.0,0,384,8.0,58.0
5733,56.0,480,384,7.0,58.0
5734,59.0,480,960,5.0,58.0
5735,53.0,0,3840,6.0,58.0
5736,71.0,0,960,1.0,70.0
5737,43.0,0,384,8.0,58.0
5738,55.0,0,384,7.0,58.0
5739,43.0,0,384,8.0,58.0
5740,55.0,480,384,7.0,58.0
5741,55.0,0,864,6.0,58.0
5742,89.0,0,2880,0.0,70.0
5743,77.0,0,4800,1.0,70.0
5744,65.0,0,4800,4.0,58.0
5745,65.0,0,2880,2.0,70.0
5746,43.0,0,384,8.0,58.0
5747,55.0,0,384,7.0,58.0
5748,55.0,0,720,6.0,58.0
5749,55.0,480,384,7.0,58.0
5750,43.0,0,384,8.0,58.0
5751,57.0,240,240,6.0,58.0
5752,64.0,0,960,2.0,70.0
5753,88.0,480,960,0.0,70.0
5754,76.0,0,960,1.0,70.0
5755,64.0,0,960,4.0,58.0
5756,54.0,0,384,7.0,58.0
5757,42.0,0,384,8.0,58.0
5758,46.0,480,2688,3.0,58.0
5759,54.0,480,384,7.0,58.0
5760,42.0,0,384,8.0,58.0
5761,58.0,0,2880,5.0,58.0
5762,70.0,0,2880,1.0,70.0
5763,75.0,0,960,1.0,70.0
5764,63.0,0,960,2.0,70.0
5765,58.0,240,960,6.0,58.0
5766,63.0,0,960,4.0,58.0
5767,87.0,0,960,0.0,70.0
5768,58.0,0,2880,2.0,70.0
5769,41.0,0,384,8.0,58.0
5770,53.0,0,384,7.0,58.0
5771,71.0,0,768,1.0,70.0
5772,62.0,480,768,2.0,70.0
5773,56.0,0,768,6.0,58.0
5774,74.0,0,768,1.0,70.0
5775,59.0,0,768,5.0,58.0
5776,62.0,0,768,4.0,58.0
5777,59.0,0,768,2.0,70.0
5778,86.0,0,768,0.0,70.0
5779,41.0,480,384,8.0,58.0
5780,53.0,0,384,7.0,58.0
5781,39.0,480,384,8.0,58.0
5782,51.0,0,384,7.0,58.0
5783,51.0,0,384,7.0,58.0
5784,39.0,480,384,8.0,58.0
5785,51.0,0,384,7.0,58.0
5786,39.0,480,384,8.0,58.0
5787,60.0,0,1440,5.0,58.0
5788,75.0,0,1440,1.0,70.0
5789,63.0,0,1440,4.0,58.0
5790,72.0,0,1440,1.0,70.0
5791,55.0,0,1536,6.0,58.0
5792,74.0,0,240,1.0,70.0
5793,77.0,0,240,1.0,70.0
5794,62.0,480,240,5.0,58.0
5795,65.0,0,240,4.0,58.0
5796,39.0,0,384,8.0,58.0
5797,51.0,0,384,7.0,58.0
5798,67.0,0,192,4.0,58.0
5799,75.0,0,192,1.0,70.0
5800,79.0,240,192,1.0,70.0
5801,63.0,0,192,5.0,58.0
5802,63.0,0,1920,2.0,70.0
5803,60.0,0,1920,2.0,70.0
5804,87.0,0,1920,0.0,70.0
5805,41.0,0,384,8.0,58.0
5806,53.0,0,384,7.0,58.0
5807,58.0,0,576,5.0,58.0
5808,62.0,0,576,4.0,58.0
5809,53.0,0,624,6.0,58.0
5810,70.0,0,720,1.0,70.0
5811,74.0,0,720,1.0,70.0
5812,58.0,240,720,2.0,70.0
5813,86.0,0,720,0.0,70.0
5814,62.0,0,720,2.0,70.0
5815,53.0,480,384,7.0,58.0
5816,41.0,0,384,8.0,58.0
5817,41.0,0,384,7.0,58.0
5818,29.0,0,384,8.0,58.0
5819,57.0,0,576,5.0,58.0
5820,60.0,0,576,4.0,58.0
5821,51.0,0,624,6.0,58.0
5822,57.0,0,720,2.0,70.0
5823,69.0,0,720,1.0,70.0
5824,60.0,0,720,2.0,70.0
5825,72.0,0,720,1.0,70.0
5826,84.0,480,720,0.0,70.0
5827,41.0,480,384,7.0,58.0
5828,29.0,0,384,8.0,58.0
5829,58.0,0,192,5.0,105.0
5830,58.0,0,192,4.0,105.0
5831,77.0,0,192,4.0,105.0
5832,77.0,240,192,5.0,105.0
5833,77.0,0,192,5.0,105.0
5834,77.0,240,192,4.0,105.0
5835,58.0,0,768,2.0,92.0
5836,82.0,0,768,0.0,92.0
5837,70.0,480,768,1.0,92.0
5838,50.0,0,768,6.0,92.0
5839,34.0,0,768,8.0,105.0
5840,46.0,0,768,7.0,105.0
5841,77.0,0,192,4.0,105.0
5842,77.0,240,192,5.0,105.0
5843,77.0,240,192,5.0,105.0
5844,77.0,0,192,4.0,105.0
5845,77.0,240,192,5.0,105.0
5846,77.0,0,192,4.0,105.0
5847,77.0,240,192,4.0,105.0
5848,77.0,0,192,5.0,105.0
5849,77.0,240,192,4.0,105.0
5850,77.0,0,192,5.0,105.0
5851,82.0,240,240,5.0,105.0
5852,82.0,0,240,4.0,105.0
5853,74.0,0,288,1.0,105.0
5854,82.0,0,288,1.0,105.0
5855,62.0,0,288,2.0,105.0
5856,58.0,0,288,2.0,105.0
5857,86.0,0,288,0.0,105.0
5858,65.0,0,288,3.0,105.0
5859,86.0,0,144,4.0,105.0
5860,86.0,240,144,5.0,105.0
5861,50.0,0,384,8.0,105.0
5862,62.0,0,384,7.0,105.0
5863,62.0,0,384,6.0,92.0
5864,84.0,0,144,5.0,105.0
5865,84.0,0,144,4.0,105.0
5866,65.0,0,288,3.0,105.0
5867,81.0,0,288,1.0,105.0
5868,84.0,0,288,0.0,105.0
5869,72.0,0,288,1.0,105.0
5870,57.0,0,288,2.0,105.0
5871,60.0,240,288,2.0,105.0
5872,63.0,0,384,7.0,105.0
5873,81.0,240,144,5.0,105.0
5874,81.0,0,144,4.0,105.0
5875,51.0,0,384,8.0,105.0
5876,63.0,0,384,6.0,105.0
5877,82.0,0,240,4.0,105.0
5878,82.0,0,240,5.0,105.0
5879,82.0,240,288,1.0,105.0
5880,58.0,0,288,2.0,105.0
5881,62.0,0,288,2.0,105.0
5882,65.0,0,288,3.0,105.0
5883,86.0,0,288,0.0,105.0
5884,74.0,0,288,1.0,105.0
5885,62.0,0,384,6.0,105.0
5886,86.0,0,144,4.0,105.0
5887,50.0,0,384,8.0,105.0
5888,86.0,240,144,5.0,105.0
5889,62.0,0,384,7.0,105.0
5890,84.0,0,144,5.0,105.0
5891,84.0,0,144,4.0,105.0
5892,65.0,240,288,3.0,105.0
5893,72.0,0,288,1.0,105.0
5894,57.0,0,288,2.0,105.0
5895,60.0,0,288,2.0,105.0
5896,81.0,0,288,1.0,105.0
5897,84.0,0,288,0.0,105.0
5898,63.0,0,384,6.0,105.0
5899,63.0,0,384,7.0,105.0
5900,81.0,0,144,4.0,105.0
5901,51.0,0,384,8.0,105.0
5902,81.0,240,144,5.0,105.0
5903,82.0,0,192,4.0,105.0
5904,82.0,0,192,5.0,105.0
5905,77.0,0,192,4.0,105.0
5906,77.0,240,192,5.0,105.0
5907,77.0,240,192,4.0,105.0
5908,77.0,0,192,5.0,105.0
5909,50.0,0,768,8.0,105.0
5910,62.0,0,768,7.0,105.0
5911,62.0,0,768,2.0,105.0
5912,65.0,240,768,3.0,105.0
5913,74.0,0,768,1.0,105.0
5914,82.0,0,768,1.0,105.0
5915,86.0,0,768,0.0,105.0
5916,62.0,0,768,6.0,105.0
5917,58.0,0,768,2.0,105.0
5918,77.0,0,192,5.0,105.0
5919,77.0,240,192,4.0,105.0
5920,77.0,0,192,5.0,105.0
5921,77.0,240,192,4.0,105.0
5922,77.0,240,192,5.0,105.0
5923,77.0,0,192,4.0,105.0
5924,77.0,240,192,5.0,105.0
5925,77.0,0,192,4.0,105.0
5926,77.0,0,192,4.0,105.0
5927,77.0,240,192,5.0,105.0
5928,82.0,0,240,5.0,105.0
5929,82.0,0,240,4.0,105.0
5930,62.0,0,288,2.0,105.0
5931,65.0,0,288,3.0,105.0
5932,58.0,0,288,2.0,105.0
5933,86.0,0,288,0.0,105.0
5934,74.0,0,288,1.0,105.0
5935,82.0,240,288,1.0,105.0
5936,86.0,0,144,4.0,105.0
5937,62.0,0,384,6.0,105.0
5938,50.0,0,384,8.0,105.0
5939,86.0,240,144,5.0,105.0
5940,62.0,0,384,7.0,105.0
5941,84.0,0,144,5.0,105.0
5942,84.0,0,144,4.0,105.0
5943,84.0,0,288,0.0,105.0
5944,57.0,0,288,2.0,105.0
5945,60.0,0,288,2.0,105.0
5946,65.0,0,288,3.0,105.0
5947,72.0,0,288,1.0,105.0
5948,81.0,0,288,1.0,105.0
5949,63.0,0,384,7.0,105.0
5950,81.0,0,144,4.0,105.0
5951,63.0,0,384,6.0,105.0
5952,81.0,240,144,5.0,105.0
5953,51.0,240,384,8.0,105.0
5954,82.0,0,240,5.0,105.0
5955,82.0,0,240,4.0,105.0
5956,65.0,0,288,3.0,105.0
5957,62.0,0,288,2.0,105.0
5958,58.0,0,288,2.0,105.0
5959,74.0,0,288,1.0,105.0
5960,82.0,240,288,1.0,105.0
5961,86.0,0,288,0.0,105.0
5962,50.0,0,384,8.0,105.0
5963,62.0,0,384,7.0,105.0
5964,86.0,240,144,5.0,105.0
5965,86.0,0,144,4.0,105.0
5966,62.0,0,384,6.0,105.0
5967,84.0,0,144,5.0,105.0
5968,84.0,0,144,4.0,105.0
5969,72.0,0,288,1.0,105.0
5970,65.0,240,288,3.0,105.0
5971,57.0,0,288,2.0,105.0
5972,81.0,0,288,1.0,105.0
5973,84.0,0,288,0.0,105.0
5974,60.0,0,288,2.0,105.0
5975,81.0,0,144,5.0,105.0
5976,81.0,240,144,4.0,105.0
5977,63.0,0,384,6.0,105.0
5978,51.0,0,384,8.0,105.0
5979,63.0,0,384,7.0,105.0
5980,82.0,0,192,4.0,105.0
5981,82.0,0,192,5.0,105.0
5982,77.0,0,192,4.0,105.0
5983,77.0,240,192,5.0,105.0
5984,77.0,240,192,4.0,105.0
5985,77.0,0,192,5.0,105.0
5986,65.0,0,768,3.0,105.0
5987,50.0,0,768,8.0,105.0
5988,62.0,0,768,6.0,105.0
5989,62.0,0,768,2.0,105.0
5990,58.0,0,768,2.0,105.0
5991,74.0,240,768,1.0,105.0
5992,62.0,0,768,7.0,105.0
5993,82.0,0,768,1.0,105.0
5994,86.0,0,768,0.0,105.0
5995,77.0,0,192,5.0,105.0
5996,77.0,240,192,4.0,105.0
5997,77.0,240,192,5.0,105.0
5998,77.0,0,192,4.0,105.0
5999,77.0,0,192,5.0,105.0
6000,77.0,240,192,4.0,105.0
6001,77.0,0,192,5.0,105.0
6002,77.0,240,192,4.0,105.0
6003,77.0,0,192,5.0,105.0
6004,77.0,240,192,4.0,105.0
6005,82.0,0,240,4.0,105.0
6006,82.0,0,240,5.0,105.0
6007,62.0,0,288,2.0,105.0
6008,58.0,0,288,2.0,105.0
6009,65.0,240,288,3.0,105.0
6010,82.0,0,288,1.0,105.0
6011,74.0,0,288,1.0,105.0
6012,86.0,0,288,0.0,105.0
6013,86.0,240,144,5.0,105.0
6014,50.0,0,384,8.0,105.0
6015,86.0,0,144,4.0,105.0
6016,62.0,0,384,6.0,105.0
6017,62.0,0,384,7.0,105.0
6018,84.0,0,144,5.0,105.0
6019,84.0,0,144,4.0,105.0
6020,60.0,0,288,2.0,105.0
6021,65.0,0,288,3.0,105.0
6022,57.0,0,288,2.0,105.0
6023,84.0,0,288,0.0,105.0
6024,72.0,0,288,1.0,105.0
6025,81.0,0,288,1.0,105.0
6026,81.0,240,144,5.0,105.0
6027,63.0,0,384,6.0,105.0
6028,63.0,0,384,7.0,105.0
6029,51.0,240,384,8.0,105.0
6030,81.0,0,144,4.0,105.0
6031,82.0,0,240,5.0,105.0
6032,82.0,0,240,4.0,105.0
6033,86.0,0,288,0.0,105.0
6034,65.0,0,288,3.0,105.0
6035,58.0,0,288,2.0,105.0
6036,62.0,0,288,2.0,105.0
6037,74.0,240,288,1.0,105.0
6038,82.0,0,288,1.0,105.0
6039,62.0,0,384,6.0,105.0
6040,62.0,0,384,7.0,105.0
6041,86.0,240,144,4.0,105.0
6042,50.0,0,384,8.0,105.0
6043,86.0,0,144,5.0,105.0
6044,84.0,0,144,5.0,105.0
6045,84.0,0,144,4.0,105.0
6046,65.0,0,288,3.0,105.0
6047,57.0,0,288,2.0,105.0
6048,84.0,240,288,0.0,105.0
6049,60.0,0,288,2.0,105.0
6050,81.0,0,288,1.0,105.0
6051,72.0,0,288,1.0,105.0
6052,63.0,0,384,7.0,105.0
6053,81.0,240,144,4.0,105.0
6054,81.0,0,144,5.0,105.0
6055,51.0,0,384,8.0,105.0
6056,63.0,0,384,6.0,105.0
6057,82.0,0,192,5.0,105.0
6058,82.0,0,192,4.0,105.0
6059,62.0,0,384,6.0,105.0
6060,62.0,0,384,7.0,105.0
6061,50.0,0,384,8.0,105.0
6062,70.0,0,384,3.0,105.0
6063,77.0,0,192,4.0,105.0
6064,77.0,240,192,5.0,105.0
6065,77.0,0,192,5.0,105.0
6066,77.0,240,192,4.0,105.0
6067,58.0,240,768,2.0,105.0
6068,89.0,0,768,0.0,105.0
6069,74.0,0,768,1.0,105.0
6070,82.0,0,768,1.0,105.0
6071,62.0,0,768,2.0,105.0
6072,77.0,0,192,4.0,105.0
6073,77.0,240,192,5.0,105.0
6074,79.0,0,192,4.0,105.0
6075,79.0,0,192,5.0,105.0
6076,63.0,0,384,6.0,105.0
6077,58.0,0,384,3.0,105.0
6078,51.0,0,384,8.0,105.0
6079,63.0,0,384,7.0,105.0
6080,75.0,240,192,5.0,105.0
6081,75.0,0,192,4.0,105.0
6082,75.0,0,192,5.0,105.0
6083,75.0,240,192,4.0,105.0
6084,87.0,240,768,0.0,105.0
6085,84.0,0,768,1.0,105.0
6086,67.0,0,768,2.0,105.0
6087,63.0,0,768,2.0,105.0
6088,79.0,0,768,1.0,105.0
6089,75.0,240,192,5.0,105.0
6090,75.0,0,192,4.0,105.0
6091,74.0,0,192,4.0,105.0
6092,74.0,0,192,5.0,105.0
6093,65.0,0,384,3.0,105.0
6094,53.0,0,384,8.0,105.0
6095,65.0,0,384,6.0,105.0
6096,65.0,0,384,7.0,105.0
6097,70.0,240,192,5.0,105.0
6098,70.0,0,192,4.0,105.0
6099,70.0,240,192,4.0,105.0
6100,70.0,0,192,5.0,105.0
6101,62.0,0,768,2.0,105.0
6102,65.0,0,768,2.0,105.0
6103,82.0,240,768,1.0,105.0
6104,77.0,0,768,1.0,105.0
6105,86.0,0,768,0.0,105.0
6106,70.0,0,192,5.0,105.0
6107,70.0,240,192,4.0,105.0
6108,77.0,0,192,4.0,105.0
6109,77.0,240,192,5.0,105.0
6110,53.0,0,384,7.0,105.0
6111,65.0,0,384,3.0,105.0
6112,53.0,0,384,6.0,105.0
6113,41.0,0,384,8.0,105.0
6114,69.0,240,192,4.0,105.0
6115,69.0,0,192,5.0,105.0
6116,69.0,240,192,5.0,105.0
6117,69.0,0,192,4.0,105.0
6118,81.0,0,768,1.0,105.0
6119,75.0,0,768,1.0,105.0
6120,84.0,0,768,0.0,105.0
6121,63.0,0,768,2.0,105.0
6122,60.0,0,768,2.0,105.0
6123,69.0,0,192,5.0,105.0
6124,69.0,240,192,4.0,105.0
6125,70.0,0,144,4.0,92.0
6126,58.0,240,384,7.0,105.0
6127,70.0,0,384,5.0,80.0
6128,58.0,0,384,3.0,92.0
6129,82.0,0,384,0.0,92.0
6130,58.0,0,384,6.0,92.0
6131,74.0,0,384,1.0,92.0
6132,82.0,0,384,1.0,92.0
6133,58.0,0,384,2.0,92.0
6134,62.0,0,384,2.0,92.0
6135,46.0,0,384,8.0,92.0
6136,65.0,240,240,4.0,92.0
6137,64.0,240,240,4.0,70.0
6138,65.0,240,240,4.0,70.0
6139,64.0,240,240,4.0,70.0
6140,65.0,240,240,4.0,70.0
6141,67.0,240,240,4.0,70.0
6142,65.0,240,192,4.0,70.0
6143,70.0,0,240,4.0,70.0
6144,58.0,0,240,5.0,70.0
6145,53.0,240,384,6.0,58.0
6146,62.0,0,144,5.0,70.0
6147,38.0,0,384,8.0,58.0
6148,50.0,0,384,7.0,58.0
6149,74.0,240,144,4.0,70.0
6150,72.0,0,144,4.0,70.0
6151,60.0,240,144,5.0,70.0
6152,51.0,0,384,7.0,58.0
6153,69.0,240,144,4.0,70.0
6154,39.0,0,384,8.0,58.0
6155,57.0,0,144,5.0,70.0
6156,58.0,0,240,5.0,70.0
6157,70.0,240,240,4.0,70.0
6158,53.0,0,768,6.0,58.0
6159,74.0,240,144,4.0,70.0
6160,62.0,0,144,5.0,70.0
6161,38.0,0,384,8.0,58.0
6162,50.0,0,384,7.0,58.0
6163,60.0,0,144,5.0,70.0
6164,72.0,0,144,4.0,70.0
6165,57.0,240,144,5.0,70.0
6166,51.0,0,384,7.0,58.0
6167,69.0,0,144,4.0,70.0
6168,39.0,240,384,8.0,58.0
6169,58.0,240,144,5.0,70.0
6170,70.0,0,144,4.0,70.0
6171,53.0,0,864,6.0,58.0
6172,50.0,0,384,7.0,58.0
6173,38.0,0,384,8.0,58.0
6174,65.0,240,240,5.0,70.0
6175,77.0,0,240,4.0,70.0
6176,64.0,240,240,5.0,70.0
6177,76.0,0,240,4.0,70.0
6178,65.0,0,240,5.0,70.0
6179,77.0,240,240,4.0,70.0
6180,64.0,240,240,5.0,70.0
6181,76.0,0,240,4.0,70.0
6182,65.0,240,240,5.0,70.0
6183,77.0,0,240,4.0,70.0
6184,67.0,240,240,5.0,70.0
6185,79.0,0,240,4.0,70.0
6186,65.0,240,192,5.0,70.0
6187,77.0,0,192,4.0,70.0
6188,70.0,0,240,4.0,70.0
6189,58.0,0,240,5.0,70.0
6190,38.0,0,384,8.0,58.0
6191,62.0,0,144,5.0,70.0
6192,53.0,0,384,6.0,58.0
6193,50.0,240,384,7.0,58.0
6194,74.0,240,144,4.0,70.0
6195,60.0,0,144,5.0,70.0
6196,72.0,240,144,4.0,70.0
6197,51.0,0,384,7.0,58.0
6198,57.0,0,144,5.0,70.0
6199,39.0,0,384,8.0,58.0
6200,69.0,240,144,4.0,70.0
6201,70.0,240,240,4.0,70.0
6202,58.0,0,240,5.0,70.0
6203,53.0,0,768,6.0,58.0
6204,50.0,0,384,7.0,58.0
6205,38.0,0,384,8.0,58.0
6206,62.0,240,144,5.0,70.0
6207,74.0,0,144,4.0,70.0
6208,60.0,0,144,5.0,70.0
6209,72.0,0,144,4.0,70.0
6210,69.0,0,144,4.0,70.0
6211,51.0,240,384,7.0,58.0
6212,57.0,240,144,5.0,70.0
6213,39.0,0,384,8.0,58.0
6214,70.0,0,144,4.0,70.0
6215,53.0,0,864,6.0,58.0
6216,50.0,0,384,7.0,58.0
6217,38.0,240,384,8.0,58.0
6218,58.0,0,384,5.0,58.0
6219,65.0,240,240,4.0,70.0
6220,64.0,240,240,4.0,70.0
6221,65.0,240,240,4.0,70.0
6222,64.0,240,240,4.0,70.0
6223,65.0,240,240,4.0,70.0
6224,67.0,240,240,4.0,70.0
6225,65.0,240,192,4.0,70.0
6226,77.0,0,192,4.0,105.0
6227,70.0,240,192,5.0,105.0
6228,65.0,0,288,3.0,105.0
6229,82.0,0,288,1.0,105.0
6230,74.0,0,288,1.0,105.0
6231,62.0,0,288,2.0,105.0
6232,86.0,0,288,0.0,105.0
6233,58.0,0,288,2.0,105.0
6234,62.0,0,384,6.0,105.0
6235,62.0,0,384,7.0,105.0
6236,50.0,0,384,8.0,105.0
6237,74.0,0,192,5.0,105.0
6238,77.0,240,192,4.0,105.0
6239,77.0,0,192,4.0,105.0
6240,72.0,0,192,5.0,105.0
6241,72.0,0,288,1.0,105.0
6242,84.0,0,288,0.0,105.0
6243,57.0,0,288,2.0,105.0
6244,81.0,0,288,1.0,105.0
6245,60.0,240,288,2.0,105.0
6246,65.0,0,288,3.0,105.0
6247,63.0,0,384,7.0,105.0
6248,63.0,0,384,6.0,105.0
6249,51.0,0,384,8.0,105.0
6250,69.0,0,192,5.0,105.0
6251,77.0,240,192,4.0,105.0
6252,77.0,0,192,4.0,105.0
6253,70.0,0,192,5.0,105.0
6254,65.0,0,288,3.0,105.0
6255,82.0,0,288,1.0,105.0
6256,74.0,240,288,1.0,105.0
6257,58.0,0,288,2.0,105.0
6258,86.0,0,288,0.0,105.0
6259,62.0,0,288,2.0,105.0
6260,50.0,0,384,8.0,105.0
6261,62.0,0,384,7.0,105.0
6262,62.0,0,384,6.0,105.0
6263,77.0,0,192,4.0,105.0
6264,74.0,240,192,5.0,105.0
6265,72.0,0,192,5.0,105.0
6266,77.0,0,192,4.0,105.0
6267,60.0,0,288,2.0,105.0
6268,81.0,0,288,1.0,105.0
6269,72.0,0,288,1.0,105.0
6270,84.0,0,288,0.0,105.0
6271,65.0,0,288,3.0,105.0
6272,57.0,0,288,2.0,105.0
6273,63.0,0,384,6.0,105.0
6274,63.0,0,384,7.0,105.0
6275,51.0,240,384,8.0,105.0
6276,77.0,240,192,4.0,105.0
6277,69.0,0,192,5.0,105.0
6278,77.0,0,192,4.0,105.0
6279,77.0,0,192,5.0,105.0
6280,62.0,0,384,7.0,105.0
6281,62.0,0,384,6.0,105.0
6282,70.0,0,384,3.0,105.0
6283,50.0,0,384,8.0,105.0
6284,82.0,240,192,4.0,105.0
6285,82.0,0,192,5.0,105.0
6286,82.0,0,192,4.0,105.0
6287,82.0,0,192,5.0,105.0
6288,58.0,0,768,2.0,105.0
6289,89.0,0,768,0.0,105.0
6290,82.0,0,768,1.0,105.0
6291,74.0,0,768,1.0,105.0
6292,62.0,240,768,2.0,105.0
6293,50.0,240,384,8.0,105.0
6294,62.0,0,384,7.0,105.0
6295,62.0,0,384,6.0,105.0
6296,82.0,0,192,4.0,105.0
6297,82.0,240,192,5.0,105.0
6298,72.0,0,192,5.0,105.0
6299,72.0,0,192,4.0,105.0
6300,63.0,0,384,6.0,105.0
6301,51.0,240,384,8.0,105.0
6302,58.0,0,384,3.0,105.0
6303,63.0,0,384,7.0,105.0
6304,79.0,0,192,4.0,105.0
6305,79.0,240,192,5.0,105.0
6306,79.0,0,192,4.0,105.0
6307,79.0,240,192,5.0,105.0
6308,67.0,0,768,2.0,105.0
6309,63.0,0,768,2.0,105.0
6310,84.0,0,768,1.0,105.0
6311,79.0,0,768,1.0,105.0
6312,87.0,0,768,0.0,105.0
6313,51.0,0,384,8.0,105.0
6314,63.0,0,384,6.0,105.0
6315,63.0,0,384,7.0,105.0
6316,79.0,0,192,5.0,105.0
6317,79.0,240,192,4.0,105.0
6318,77.0,0,192,5.0,105.0
6319,77.0,0,192,4.0,105.0
6320,65.0,0,384,3.0,105.0
6321,53.0,0,384,8.0,105.0
6322,65.0,0,384,6.0,105.0
6323,65.0,0,384,7.0,105.0
6324,74.0,240,192,5.0,105.0
6325,74.0,0,192,4.0,105.0
6326,74.0,0,192,4.0,105.0
6327,74.0,240,192,5.0,105.0
6328,77.0,240,768,1.0,105.0
6329,65.0,0,768,2.0,105.0
6330,86.0,0,768,0.0,105.0
6331,82.0,0,768,1.0,105.0
6332,62.0,0,768,2.0,105.0
6333,65.0,0,384,7.0,105.0
6334,65.0,0,384,6.0,105.0
6335,53.0,0,384,8.0,105.0
6336,74.0,240,192,4.0,105.0
6337,74.0,0,192,5.0,105.0
6338,77.0,0,192,4.0,105.0
6339,77.0,0,192,5.0,105.0
6340,65.0,240,384,3.0,105.0
6341,41.0,0,384,8.0,105.0
6342,53.0,0,384,7.0,105.0
6343,53.0,0,384,6.0,105.0
6344,69.0,0,192,4.0,105.0
6345,69.0,240,192,5.0,105.0
6346,69.0,0,192,4.0,105.0
6347,69.0,240,192,5.0,105.0
6348,75.0,0,768,1.0,105.0
6349,63.0,0,768,2.0,105.0
6350,60.0,0,768,2.0,105.0
6351,84.0,0,768,0.0,105.0
6352,81.0,0,768,1.0,105.0
6353,53.0,0,384,6.0,105.0
6354,53.0,0,384,7.0,105.0
6355,41.0,0,384,8.0,105.0
6356,69.0,240,192,4.0,105.0
6357,69.0,0,192,5.0,105.0
6358,34.0,0,180,8.0,125.0
6359,46.0,0,180,7.0,125.0
6360,74.0,240,288,1.0,105.0
6361,58.0,0,384,6.0,105.0
6362,70.0,0,384,5.0,105.0
6363,36.0,240,180,8.0,105.0
6364,48.0,0,180,7.0,105.0
6365,50.0,0,180,7.0,105.0
6366,38.0,0,180,8.0,105.0
6367,70.0,0,288,1.0,105.0
6368,70.0,0,768,4.0,105.0
6369,62.0,0,768,3.0,105.0
6370,62.0,0,768,2.0,105.0
6371,58.0,0,768,2.0,105.0
6372,82.0,0,768,1.0,105.0
6373,82.0,0,768,0.0,105.0
6374,58.0,0,288,3.0,105.0
6375,51.0,240,180,7.0,105.0
6376,39.0,0,180,8.0,105.0
6377,41.0,0,180,8.0,105.0
6378,53.0,0,180,7.0,105.0
6379,65.0,0,768,5.0,105.0
6380,65.0,240,288,3.0,105.0
6381,74.0,0,768,5.0,105.0
6382,70.0,240,768,6.0,105.0
6383,77.0,0,288,1.0,105.0
6384,55.0,0,180,7.0,105.0
6385,43.0,240,180,8.0,105.0
6386,57.0,0,180,7.0,105.0
6387,45.0,0,180,8.0,105.0
6388,70.0,0,192,6.0,105.0
6389,65.0,0,288,3.0,105.0
6390,82.0,0,288,0.0,105.0
6391,74.0,0,288,1.0,105.0
6392,58.0,0,288,2.0,105.0
6393,62.0,0,288,2.0,105.0
6394,77.0,0,288,1.0,105.0
6395,65.0,0,384,5.0,105.0
6396,74.0,240,384,5.0,105.0
6397,46.0,0,180,8.0,105.0
6398,58.0,0,180,7.0,105.0
6399,70.0,0,192,6.0,105.0
6400,82.0,240,192,4.0,116.0
6401,81.0,240,192,4.0,127.0
6402,75.0,0,192,5.0,105.0
6403,65.0,0,192,5.0,105.0
6404,72.0,0,192,6.0,105.0
6405,81.0,0,288,0.0,105.0
6406,72.0,0,288,1.0,105.0
6407,60.0,0,288,2.0,105.0
6408,55.0,0,288,2.0,105.0
6409,65.0,0,192,5.0,105.0
6410,72.0,0,192,6.0,105.0
6411,75.0,0,192,5.0,105.0
6412,84.0,240,192,4.0,116.0
6413,87.0,0,192,4.0,116.0
6414,65.0,0,192,5.0,105.0
6415,72.0,0,192,6.0,105.0
6416,75.0,0,192,5.0,105.0
6417,53.0,0,288,2.0,105.0
6418,57.0,0,288,2.0,105.0
6419,77.0,240,288,0.0,105.0
6420,69.0,0,288,1.0,105.0
6421,41.0,0,768,8.0,105.0
6422,53.0,0,768,7.0,105.0
6423,72.0,0,192,6.0,105.0
6424,75.0,0,192,5.0,105.0
6425,65.0,240,192,5.0,105.0
6426,84.0,0,192,4.0,116.0
6427,87.0,0,192,4.0,116.0
6428,72.0,240,192,6.0,105.0
6429,75.0,0,192,5.0,105.0
6430,65.0,0,192,5.0,105.0
6431,65.0,0,1152,3.0,105.0
6432,77.0,0,1248,1.0,105.0
6433,89.0,0,288,0.0,105.0
6434,65.0,0,288,2.0,105.0
6435,57.0,0,288,2.0,105.0
6436,81.0,0,288,1.0,105.0
6437,84.0,0,192,4.0,116.0
6438,72.0,240,192,6.0,105.0
6439,75.0,0,192,5.0,105.0
6440,65.0,0,192,5.0,105.0
6441,75.0,0,192,5.0,105.0
6442,72.0,0,192,6.0,105.0
6443,65.0,0,192,5.0,105.0
6444,81.0,0,192,4.0,116.0
6445,89.0,0,288,0.0,105.0
6446,65.0,0,288,3.0,105.0
6447,81.0,0,288,1.0,105.0
6448,65.0,0,288,2.0,105.0
6449,57.0,0,288,2.0,105.0
6450,77.0,240,288,1.0,105.0
6451,41.0,0,180,7.0,105.0
6452,29.0,240,180,8.0,105.0
6453,75.0,0,192,5.0,105.0
6454,65.0,0,192,5.0,105.0
6455,72.0,0,192,6.0,105.0
6456,84.0,0,192,4.0,116.0
6457,34.0,0,180,8.0,125.0
6458,46.0,240,180,7.0,125.0
6459,74.0,0,192,5.0,105.0
6460,70.0,0,192,6.0,105.0
6461,65.0,0,192,5.0,105.0
6462,74.0,0,288,1.0,105.0
6463,36.0,0,180,8.0,105.0
6464,48.0,0,180,7.0,105.0
6465,70.0,0,192,6.0,105.0
6466,74.0,0,192,5.0,105.0
6467,65.0,240,192,5.0,105.0
6468,50.0,0,180,7.0,105.0
6469,38.0,240,180,8.0,105.0
6470,74.0,0,192,5.0,105.0
6471,65.0,0,192,5.0,105.0
6472,70.0,0,192,6.0,105.0
6473,58.0,0,288,3.0,105.0
6474,82.0,0,768,4.0,116.0
6475,70.0,0,288,1.0,105.0
6476,62.0,0,768,3.0,105.0
6477,51.0,0,180,7.0,105.0
6478,39.0,0,180,8.0,105.0
6479,65.0,0,192,5.0,105.0
6480,74.0,0,192,5.0,105.0
6481,70.0,240,192,6.0,105.0
6482,41.0,0,180,8.0,105.0
6483,53.0,0,180,7.0,105.0
6484,70.0,240,192,6.0,105.0
6485,74.0,0,192,5.0,105.0
6486,65.0,0,192,5.0,105.0
6487,86.0,0,1152,0.0,105.0
6488,58.0,0,1152,2.0,105.0
6489,62.0,0,1152,2.0,105.0
6490,82.0,0,1248,1.0,105.0
6491,65.0,0,288,3.0,105.0
6492,77.0,0,288,1.0,105.0
6493,43.0,0,180,8.0,105.0
6494,55.0,240,180,7.0,105.0
6495,74.0,0,192,5.0,105.0
6496,65.0,0,192,5.0,105.0
6497,70.0,0,192,6.0,105.0
6498,45.0,0,180,8.0,105.0
6499,57.0,240,180,7.0,105.0
6500,65.0,0,192,5.0,105.0
6501,82.0,0,192,4.0,116.0
6502,70.0,0,192,6.0,105.0
6503,74.0,0,192,5.0,105.0
6504,82.0,0,288,0.0,105.0
6505,62.0,0,288,2.0,105.0
6506,65.0,0,288,3.0,105.0
6507,77.0,0,288,1.0,105.0
6508,74.0,0,288,1.0,105.0
6509,58.0,0,288,2.0,105.0
6510,46.0,240,180,8.0,105.0
6511,58.0,0,180,7.0,105.0
6512,65.0,0,192,5.0,105.0
6513,74.0,0,192,5.0,105.0
6514,70.0,0,192,6.0,105.0
6515,72.0,0,192,6.0,105.0
6516,81.0,0,192,4.0,127.0
6517,75.0,0,192,5.0,105.0
6518,65.0,240,192,5.0,105.0
6519,72.0,0,288,1.0,105.0
6520,55.0,0,288,2.0,105.0
6521,81.0,0,288,0.0,105.0
6522,60.0,0,288,2.0,105.0
6523,75.0,0,192,5.0,105.0
6524,72.0,0,192,6.0,105.0
6525,84.0,240,192,4.0,116.0
6526,65.0,0,192,5.0,105.0
6527,65.0,0,192,5.0,105.0
6528,75.0,0,192,5.0,105.0
6529,87.0,0,192,4.0,116.0
6530,72.0,0,192,6.0,105.0
6531,53.0,0,768,7.0,105.0
6532,41.0,0,768,8.0,105.0
6533,57.0,0,288,2.0,105.0
6534,53.0,0,288,2.0,105.0
6535,77.0,0,288,0.0,105.0
6536,69.0,240,288,1.0,105.0
6537,65.0,0,192,5.0,105.0
6538,72.0,0,192,6.0,105.0
6539,75.0,0,192,5.0,105.0
6540,84.0,240,192,4.0,116.0
6541,65.0,0,192,5.0,105.0
6542,75.0,0,192,5.0,105.0
6543,72.0,240,192,6.0,105.0
6544,87.0,0,192,4.0,116.0
6545,65.0,0,1152,3.0,105.0
6546,65.0,0,288,2.0,105.0
6547,81.0,0,288,1.0,105.0
6548,77.0,0,1248,1.0,105.0
6549,89.0,0,288,0.0,105.0
6550,57.0,0,288,2.0,105.0
6551,65.0,0,192,5.0,105.0
6552,75.0,0,192,5.0,105.0
6553,72.0,0,192,6.0,105.0
6554,84.0,240,192,4.0,116.0
6555,81.0,240,192,4.0,116.0
6556,65.0,0,192,5.0,105.0
6557,72.0,0,192,6.0,105.0
6558,75.0,0,192,5.0,105.0
6559,57.0,0,288,2.0,105.0
6560,65.0,0,288,2.0,105.0
6561,81.0,0,288,1.0,105.0
6562,65.0,0,288,3.0,105.0
6563,89.0,0,288,0.0,105.0
6564,77.0,0,288,1.0,105.0
6565,29.0,0,180,8.0,105.0
6566,41.0,0,180,7.0,105.0
6567,72.0,0,192,6.0,105.0
6568,84.0,0,192,4.0,116.0
6569,65.0,0,192,5.0,105.0
6570,75.0,240,192,5.0,105.0
6571,46.0,0,180,7.0,125.0
6572,34.0,0,180,8.0,125.0
6573,65.0,0,192,5.0,105.0
6574,74.0,0,192,5.0,105.0
6575,70.0,0,192,6.0,105.0
6576,74.0,0,288,1.0,105.0
6577,36.0,0,180,8.0,105.0
6578,48.0,0,180,7.0,105.0
6579,74.0,0,192,5.0,105.0
6580,70.0,0,192,6.0,105.0
6581,65.0,240,192,5.0,105.0
6582,50.0,240,180,7.0,105.0
6583,38.0,0,180,8.0,105.0
6584,65.0,0,192,5.0,105.0
6585,74.0,0,192,5.0,105.0
6586,70.0,0,192,6.0,105.0
6587,82.0,0,768,4.0,116.0
6588,58.0,0,288,3.0,105.0
6589,62.0,0,768,3.0,105.0
6590,70.0,0,288,1.0,105.0
6591,51.0,0,180,7.0,105.0
6592,39.0,0,180,8.0,105.0
6593,74.0,0,192,5.0,105.0
6594,65.0,0,192,5.0,105.0
6595,70.0,240,192,6.0,105.0
6596,41.0,240,180,8.0,105.0
6597,53.0,0,180,7.0,105.0
6598,62.0,0,1152,2.0,105.0
6599,70.0,0,192,6.0,105.0
6600,86.0,240,1152,0.0,105.0
6601,65.0,0,192,5.0,105.0
6602,58.0,0,1152,2.0,105.0
6603,74.0,0,192,5.0,105.0
6604,82.0,0,1248,1.0,105.0
6605,65.0,0,288,3.0,105.0
6606,77.0,0,288,1.0,105.0
6607,55.0,0,180,7.0,105.0
6608,43.0,240,180,8.0,105.0
6609,70.0,0,192,6.0,105.0
6610,65.0,0,192,5.0,105.0
6611,74.0,0,192,5.0,105.0
6612,57.0,0,180,7.0,105.0
6613,45.0,0,180,8.0,105.0
6614,74.0,0,192,5.0,105.0
6615,70.0,0,192,6.0,105.0
6616,82.0,0,192,4.0,116.0
6617,65.0,0,192,5.0,105.0
6618,77.0,0,288,1.0,105.0
6619,74.0,240,288,1.0,105.0
6620,62.0,0,288,2.0,105.0
6621,58.0,0,288,2.0,105.0
6622,65.0,0,288,3.0,105.0
6623,82.0,0,288,0.0,105.0
6624,58.0,0,180,7.0,105.0
6625,46.0,0,180,8.0,105.0
6626,74.0,0,192,5.0,105.0
6627,65.0,0,192,5.0,105.0
6628,70.0,240,192,6.0,105.0
6629,81.0,240,192,4.0,127.0
6630,72.0,0,192,6.0,105.0
6631,75.0,0,192,5.0,105.0
6632,65.0,0,192,5.0,105.0
6633,81.0,0,288,0.0,105.0
6634,72.0,0,288,1.0,105.0
6635,55.0,0,288,2.0,105.0
6636,60.0,0,288,2.0,105.0
6637,84.0,240,192,4.0,116.0
6638,65.0,0,192,5.0,105.0
6639,72.0,0,192,6.0,105.0
6640,75.0,0,192,5.0,105.0
6641,72.0,0,192,6.0,105.0
6642,65.0,0,192,5.0,105.0
6643,87.0,0,192,4.0,116.0
6644,75.0,0,192,5.0,105.0
6645,69.0,0,288,1.0,105.0
6646,53.0,0,768,7.0,105.0
6647,41.0,0,768,8.0,105.0
6648,77.0,0,288,0.0,105.0
6649,57.0,240,288,2.0,105.0
6650,53.0,0,288,2.0,105.0
6651,75.0,0,192,5.0,105.0
6652,84.0,0,192,4.0,116.0
6653,65.0,240,192,5.0,105.0
6654,72.0,0,192,6.0,105.0
6655,65.0,0,1152,3.0,105.0
6656,72.0,0,192,6.0,105.0
6657,65.0,0,192,5.0,105.0
6658,75.0,0,192,5.0,105.0
6659,87.0,0,192,4.0,116.0
6660,65.0,0,288,2.0,105.0
6661,81.0,0,288,1.0,105.0
6662,77.0,0,1248,1.0,105.0
6663,89.0,240,288,0.0,105.0
6664,57.0,0,288,2.0,105.0
6665,72.0,0,192,6.0,105.0
6666,75.0,0,192,5.0,105.0
6667,84.0,240,192,4.0,116.0
6668,65.0,0,192,5.0,105.0
6669,81.0,0,192,4.0,116.0
6670,75.0,0,192,5.0,105.0
6671,65.0,0,192,5.0,105.0
6672,72.0,0,192,6.0,105.0
6673,65.0,0,288,2.0,105.0
6674,77.0,0,288,1.0,105.0
6675,89.0,240,288,0.0,105.0
6676,65.0,0,288,3.0,105.0
6677,81.0,0,288,1.0,105.0
6678,57.0,0,288,2.0,105.0
6679,72.0,0,192,6.0,105.0
6680,29.0,240,192,8.0,105.0
6681,41.0,0,192,7.0,105.0
6682,75.0,0,192,5.0,105.0
6683,84.0,0,192,4.0,116.0
6684,65.0,0,192,5.0,105.0
6685,82.0,240,384,1.0,105.0
6686,74.0,0,384,1.0,105.0
6687,62.0,0,384,2.0,105.0
6688,58.0,0,384,2.0,105.0
6689,65.0,0,384,5.0,105.0
6690,74.0,0,384,5.0,105.0
6691,46.0,0,384,7.0,105.0
6692,82.0,0,384,0.0,105.0
6693,58.0,0,384,3.0,105.0
6694,62.0,0,384,3.0,105.0
6695,70.0,0,384,6.0,105.0
6696,82.0,0,384,4.0,116.0
6697,34.0,0,384,8.0,105.0
6698,62.0,0,384,5.0,105.0
6699,46.0,0,384,8.0,105.0
6700,77.0,0,384,1.0,105.0
6701,82.0,0,384,5.0,105.0
6702,70.0,0,384,5.0,105.0
6703,58.0,0,384,7.0,105.0
6704,74.0,0,384,1.0,105.0
6705,70.0,960,384,4.0,116.0
6706,65.0,0,384,3.0,105.0
6707,62.0,0,384,4.0,116.0
6708,86.0,0,384,0.0,105.0
6709,70.0,0,384,6.0,105.0
6710,58.0,0,384,2.0,105.0
6711,82.0,0,384,4.0,116.0
6712,62.0,0,384,3.0,105.0
6713,58.0,0,768,4.0,92.0
6714,74.0,0,768,1.0,92.0
6715,62.0,0,768,3.0,92.0
6716,58.0,0,768,3.0,92.0
6717,46.0,0,768,2.0,92.0
6718,70.0,0,768,1.0,92.0
6719,46.0,0,768,7.0,92.0
6720,82.0,0,768,0.0,92.0
6721,58.0,0,768,6.0,92.0
6722,58.0,0,768,5.0,92.0
6723,34.0,960,768,8.0,92.0
6724,58.0,0,480,6.0,112.0
6725,70.0,0,480,4.0,112.0
6726,70.0,0,480,5.0,112.0
6727,34.0,0,480,8.0,125.0
6728,70.0,1440,480,1.0,112.0
6729,46.0,0,480,2.0,112.0
6730,70.0,0,480,0.0,112.0
6731,46.0,0,480,7.0,112.0
6732,50.0,0,288,2.0,105.0
6733,62.0,0,288,6.0,105.0
6734,50.0,0,288,7.0,105.0
6735,74.0,0,288,0.0,105.0
6736,38.0,0,288,8.0,105.0
6737,74.0,0,288,4.0,105.0
6738,74.0,480,288,5.0,105.0
6739,74.0,0,288,1.0,105.0
6740,77.0,0,288,0.0,105.0
6741,77.0,0,288,1.0,105.0
6742,41.0,0,288,8.0,105.0
6743,65.0,480,288,6.0,105.0
6744,77.0,0,288,4.0,105.0
6745,53.0,0,288,7.0,105.0
6746,77.0,0,288,5.0,105.0
6747,53.0,0,288,2.0,105.0
6748,81.0,0,288,1.0,105.0
6749,81.0,0,288,0.0,105.0
6750,69.0,0,288,6.0,105.0
6751,81.0,480,288,5.0,105.0
6752,81.0,0,288,4.0,105.0
6753,57.0,0,288,7.0,105.0
6754,45.0,0,288,8.0,105.0
6755,57.0,0,288,2.0,105.0
6756,82.0,0,288,0.0,105.0
6757,58.0,0,288,7.0,105.0
6758,82.0,480,288,1.0,105.0
6759,70.0,0,288,6.0,105.0
6760,46.0,0,288,8.0,105.0
6761,82.0,0,288,4.0,105.0
6762,82.0,0,288,5.0,105.0
6763,58.0,0,288,2.0,105.0
6764,73.0,0,960,6.0,105.0
6765,85.0,0,960,4.0,105.0
6766,85.0,480,960,5.0,105.0
6767,61.0,0,960,7.0,105.0
6768,85.0,0,960,1.0,105.0
6769,61.0,0,960,2.0,105.0
6770,49.0,0,960,8.0,105.0
6771,85.0,0,960,0.0,105.0
6772,84.0,0,288,0.0,105.0
6773,84.0,0,288,1.0,105.0
6774,48.0,0,288,8.0,105.0
6775,84.0,960,288,5.0,105.0
6776,60.0,0,288,2.0,105.0
6777,84.0,0,288,4.0,105.0
6778,60.0,0,288,7.0,105.0
6779,72.0,0,288,6.0,105.0
6780,76.0,480,288,4.0,105.0
6781,76.0,0,288,1.0,105.0
6782,64.0,0,288,6.0,105.0
6783,52.0,0,288,7.0,105.0
6784,76.0,0,288,0.0,105.0
6785,76.0,0,288,5.0,105.0
6786,52.0,0,288,2.0,105.0
6787,40.0,0,288,8.0,105.0
6788,56.0,0,336,2.0,105.0
6789,68.0,0,336,6.0,105.0
6790,80.0,0,336,0.0,105.0
6791,80.0,0,336,5.0,105.0
6792,80.0,0,336,4.0,105.0
6793,56.0,0,336,7.0,105.0
6794,80.0,0,336,1.0,105.0
6795,44.0,480,336,8.0,105.0
6796,71.0,0,336,5.0,105.0
6797,47.0,0,336,2.0,105.0
6798,35.0,0,336,8.0,105.0
6799,71.0,0,336,0.0,105.0
6800,71.0,960,336,1.0,105.0
6801,47.0,0,336,7.0,105.0
6802,71.0,0,336,4.0,105.0
6803,59.0,0,336,6.0,105.0
6804,71.0,0,80,6.0,105.0
6805,59.0,2640,80,2.0,105.0
6806,71.0,0,80,5.0,105.0
6807,83.0,0,80,0.0,105.0
6808,59.0,0,80,7.0,105.0
6809,47.0,0,80,8.0,105.0
6810,71.0,0,80,4.0,105.0
6811,71.0,0,80,1.0,105.0
6812,72.0,0,80,4.0,105.0
6813,72.0,0,80,5.0,105.0
6814,60.0,80,80,2.0,105.0
6815,60.0,0,80,7.0,105.0
6816,72.0,0,80,1.0,105.0
6817,72.0,0,80,6.0,105.0
6818,48.0,0,80,8.0,105.0
6819,84.0,0,80,0.0,105.0
6820,50.0,0,80,8.0,105.0
6821,74.0,0,80,5.0,105.0
6822,86.0,0,80,0.0,105.0
6823,62.0,0,80,2.0,105.0
6824,74.0,0,80,6.0,105.0
6825,74.0,80,80,4.0,105.0
6826,74.0,0,80,1.0,105.0
6827,62.0,0,80,7.0,105.0
6828,63.0,0,336,2.0,105.0
6829,75.0,0,336,4.0,105.0
6830,63.0,0,336,7.0,105.0
6831,75.0,0,336,6.0,105.0
6832,75.0,80,336,1.0,105.0
6833,51.0,0,336,8.0,105.0
6834,87.0,0,336,0.0,105.0
6835,75.0,0,336,5.0,105.0
6836,66.0,0,336,6.0,105.0
6837,78.0,960,336,0.0,105.0
6838,66.0,0,336,1.0,105.0
6839,54.0,0,336,2.0,105.0
6840,66.0,0,336,4.0,105.0
6841,66.0,0,336,5.0,105.0
6842,54.0,0,336,7.0,105.0
6843,42.0,0,336,8.0,105.0
6844,58.0,960,336,2.0,105.0
6845,58.0,0,336,7.0,105.0
6846,70.0,0,336,6.0,105.0
6847,70.0,0,336,4.0,105.0
6848,82.0,0,336,1.0,105.0
6849,70.0,0,336,1.0,105.0
6850,46.0,0,336,8.0,105.0
6851,70.0,0,336,5.0,105.0
6852,82.0,0,336,0.0,105.0
6853,49.0,0,336,2.0,105.0
6854,37.0,0,336,8.0,105.0
6855,49.0,0,336,7.0,105.0
6856,61.0,0,336,6.0,105.0
6857,61.0,0,336,4.0,105.0
6858,73.0,0,336,1.0,105.0
6859,61.0,0,336,5.0,105.0
6860,73.0,1920,336,0.0,105.0
6861,77.0,0,336,1.0,105.0
6862,89.0,0,336,0.0,105.0
6863,65.0,0,336,2.0,105.0
6864,65.0,0,336,5.0,105.0
6865,41.0,0,336,8.0,105.0
6866,65.0,0,336,4.0,105.0
6867,65.0,0,336,6.0,105.0
6868,53.0,1920,336,7.0,105.0
6869,56.0,0,336,4.0,105.0
6870,44.0,960,336,7.0,105.0
6871,68.0,0,336,1.0,105.0
6872,80.0,0,336,0.0,105.0
6873,56.0,0,336,5.0,105.0
6874,56.0,0,336,6.0,105.0
6875,32.0,0,336,8.0,105.0
6876,56.0,0,336,2.0,105.0
6877,65.0,0,1920,2.0,70.0
6878,77.0,0,1920,1.0,70.0
6879,74.0,0,1920,1.0,70.0
6880,62.0,960,1920,2.0,70.0
6881,76.0,1920,960,1.0,70.0
6882,73.0,0,960,1.0,70.0
6883,61.0,0,960,2.0,70.0
6884,64.0,0,960,2.0,70.0
6885,59.0,0,960,2.0,70.0
6886,68.0,480,480,4.0,70.0
6887,62.0,0,960,2.0,70.0
6888,71.0,960,960,1.0,70.0
6889,74.0,0,960,1.0,70.0
6890,69.0,0,288,4.0,70.0
6891,57.0,0,384,2.0,58.0
6892,61.0,480,384,2.0,58.0
6893,69.0,0,384,1.0,58.0
6894,45.0,0,384,7.0,58.0
6895,73.0,0,384,1.0,58.0
6896,33.0,0,384,8.0,58.0
6897,73.0,480,288,4.0,70.0
6898,64.0,0,384,5.0,58.0
6899,61.0,0,384,5.0,58.0
6900,57.0,0,384,6.0,58.0
6901,76.0,0,288,4.0,70.0
6902,57.0,0,384,6.0,58.0
6903,61.0,480,384,5.0,58.0
6904,64.0,0,384,5.0,58.0
6905,79.0,0,288,4.0,70.0
6906,61.0,480,384,5.0,58.0
6907,64.0,0,384,5.0,58.0
6908,57.0,0,384,6.0,58.0
6909,57.0,0,384,7.0,58.0
6910,45.0,0,384,8.0,58.0
6911,61.0,0,384,5.0,58.0
6912,64.0,480,384,5.0,58.0
6913,57.0,0,384,6.0,58.0
6914,82.0,480,960,4.0,70.0
6915,81.0,480,288,4.0,70.0
6916,61.0,0,384,5.0,58.0
6917,64.0,0,384,5.0,58.0
6918,57.0,0,384,6.0,58.0
6919,79.0,0,288,4.0,70.0
6920,61.0,0,384,5.0,58.0
6921,64.0,0,384,5.0,58.0
6922,57.0,0,384,6.0,58.0
6923,73.0,480,480,0.0,80.0
6924,77.0,480,288,4.0,58.0
6925,74.0,0,288,0.0,80.0
6926,45.0,0,384,7.0,58.0
6927,33.0,0,384,8.0,58.0
6928,77.0,480,288,0.0,80.0
6929,57.0,0,384,6.0,58.0
6930,62.0,0,384,5.0,58.0
6931,65.0,0,384,5.0,58.0
6932,81.0,480,288,0.0,80.0
6933,57.0,0,384,6.0,58.0
6934,65.0,0,384,5.0,58.0
6935,62.0,0,384,5.0,58.0
6936,86.0,480,288,0.0,80.0
6937,65.0,0,384,5.0,58.0
6938,57.0,0,384,6.0,58.0
6939,62.0,0,384,5.0,58.0
6940,57.0,480,384,7.0,58.0
6941,45.0,0,384,8.0,58.0
6942,62.0,480,384,5.0,58.0
6943,65.0,0,384,5.0,58.0
6944,57.0,0,384,6.0,58.0
6945,89.0,0,960,0.0,80.0
6946,88.0,0,288,0.0,80.0
6947,65.0,0,384,5.0,58.0
6948,57.0,480,384,6.0,58.0
6949,62.0,0,384,5.0,58.0
6950,86.0,0,288,0.0,80.0
6951,65.0,0,384,5.0,58.0
6952,57.0,480,384,6.0,58.0
6953,62.0,0,384,5.0,58.0
6954,68.0,0,480,4.0,58.0
6955,85.0,0,288,0.0,58.0
6956,69.0,0,288,4.0,70.0
6957,45.0,0,384,7.0,58.0
6958,33.0,480,384,8.0,58.0
6959,73.0,0,288,4.0,70.0
6960,57.0,480,384,6.0,58.0
6961,64.0,0,384,5.0,58.0
6962,61.0,0,384,5.0,58.0
6963,76.0,0,288,4.0,70.0
6964,57.0,480,384,6.0,58.0
6965,64.0,0,384,5.0,58.0
6966,61.0,0,384,5.0,58.0
6967,79.0,480,288,4.0,70.0
6968,57.0,0,384,6.0,58.0
6969,61.0,0,384,5.0,58.0
6970,64.0,0,384,5.0,58.0
6971,57.0,480,384,7.0,58.0
6972,45.0,0,384,8.0,58.0
6973,57.0,0,384,6.0,58.0
6974,61.0,480,384,5.0,58.0
6975,64.0,0,384,5.0,58.0
6976,82.0,0,960,4.0,70.0
6977,81.0,480,288,4.0,70.0
6978,57.0,0,384,6.0,58.0
6979,64.0,0,384,5.0,58.0
6980,61.0,0,384,5.0,58.0
6981,79.0,0,288,4.0,70.0
6982,57.0,480,384,6.0,58.0
6983,64.0,0,384,5.0,58.0
6984,61.0,0,384,5.0,58.0
6985,49.0,0,480,2.0,80.0
6986,50.0,480,288,2.0,80.0
6987,78.0,0,288,4.0,58.0
6988,38.0,0,384,8.0,58.0
6989,38.0,0,384,7.0,58.0
6990,54.0,480,288,2.0,80.0
6991,60.0,0,384,6.0,58.0
6992,66.0,0,384,5.0,58.0
6993,57.0,0,384,5.0,58.0
6994,57.0,0,288,2.0,80.0
6995,57.0,0,384,5.0,58.0
6996,66.0,0,384,5.0,58.0
6997,60.0,480,384,6.0,58.0
6998,60.0,480,288,2.0,80.0
6999,60.0,0,384,6.0,58.0
7000,66.0,0,384,5.0,58.0
7001,57.0,0,384,5.0,58.0
7002,38.0,0,384,8.0,58.0
7003,50.0,0,384,7.0,58.0
7004,66.0,480,384,5.0,58.0
7005,57.0,0,384,5.0,58.0
7006,60.0,0,384,6.0,58.0
7007,63.0,480,960,2.0,80.0
7008,62.0,0,288,2.0,80.0
7009,57.0,0,384,5.0,58.0
7010,66.0,0,384,5.0,58.0
7011,60.0,480,384,6.0,58.0
7012,60.0,0,288,2.0,80.0
7013,60.0,0,384,6.0,58.0
7014,57.0,0,384,5.0,58.0
7015,66.0,0,384,5.0,58.0
7016,66.0,480,480,4.0,58.0
7017,59.0,0,288,2.0,58.0
7018,67.0,480,288,4.0,70.0
7019,31.0,0,384,8.0,58.0
7020,43.0,0,384,7.0,58.0
7021,71.0,0,288,4.0,70.0
7022,55.0,480,384,5.0,58.0
7023,59.0,0,384,6.0,58.0
7024,65.0,0,384,5.0,58.0
7025,74.0,0,288,4.0,70.0
7026,55.0,0,384,5.0,58.0
7027,59.0,480,384,6.0,58.0
7028,65.0,0,384,5.0,58.0
7029,77.0,480,288,4.0,70.0
7030,55.0,0,384,5.0,58.0
7031,59.0,0,384,6.0,58.0
7032,65.0,0,384,5.0,58.0
7033,55.0,0,384,7.0,70.0
7034,43.0,0,384,8.0,70.0
7035,55.0,480,384,5.0,58.0
7036,65.0,0,384,5.0,58.0
7037,59.0,0,384,6.0,58.0
7038,80.0,480,960,4.0,70.0
7039,79.0,0,288,4.0,70.0
7040,65.0,0,384,5.0,58.0
7041,55.0,0,384,5.0,58.0
7042,59.0,480,384,6.0,58.0
7043,77.0,0,288,4.0,70.0
7044,59.0,0,384,6.0,58.0
7045,55.0,0,384,5.0,58.0
7046,65.0,0,384,5.0,58.0
7047,71.0,480,480,0.0,58.0
7048,47.0,0,480,2.0,70.0
7049,72.0,0,288,0.0,70.0
7050,48.0,0,288,2.0,70.0
7051,76.0,0,288,4.0,70.0
7052,36.0,0,384,8.0,70.0
7053,36.0,480,384,7.0,70.0
7054,76.0,480,288,0.0,70.0
7055,52.0,0,288,2.0,70.0
7056,58.0,0,384,6.0,58.0
7057,64.0,0,384,5.0,58.0
7058,55.0,0,384,5.0,58.0
7059,55.0,480,288,2.0,70.0
7060,79.0,0,288,0.0,70.0
7061,58.0,0,384,6.0,58.0
7062,64.0,0,384,5.0,58.0
7063,55.0,0,384,5.0,58.0
7064,82.0,480,288,0.0,70.0
7065,58.0,0,288,2.0,70.0
7066,58.0,0,384,6.0,58.0
7067,64.0,0,384,5.0,58.0
7068,55.0,0,384,5.0,58.0
7069,48.0,480,384,7.0,70.0
7070,36.0,0,384,8.0,70.0
7071,64.0,480,384,4.0,70.0
7072,58.0,0,384,5.0,58.0
7073,61.0,0,960,2.0,70.0
7074,85.0,0,960,0.0,70.0
7075,60.0,0,288,2.0,70.0
7076,84.0,0,288,0.0,70.0
7077,64.0,480,384,4.0,70.0
7078,58.0,0,384,5.0,58.0
7079,82.0,0,288,0.0,70.0
7080,58.0,0,288,2.0,70.0
7081,64.0,0,384,4.0,70.0
7082,55.0,0,384,5.0,58.0
7083,48.0,480,480,6.0,58.0
7084,56.0,0,288,2.0,70.0
7085,80.0,480,288,0.0,70.0
7086,53.0,0,288,6.0,116.0
7087,56.0,0,768,5.0,58.0
7088,56.0,480,288,6.0,116.0
7089,65.0,0,768,4.0,70.0
7090,60.0,480,288,6.0,116.0
7091,65.0,480,288,6.0,116.0
7092,68.0,0,480,4.0,105.0
7093,71.0,480,288,4.0,105.0
7094,74.0,480,288,4.0,105.0
7095,68.0,0,960,6.0,116.0
7096,67.0,0,288,6.0,116.0
7097,77.0,480,288,4.0,105.0
7098,65.0,0,3456,3.0,105.0
7099,83.0,0,288,4.0,105.0
7100,65.0,480,288,6.0,116.0
7101,84.0,480,288,4.0,105.0
7102,72.0,0,768,3.0,105.0
7103,64.0,0,768,6.0,105.0
7104,79.0,480,288,4.0,105.0
7105,61.0,480,384,6.0,105.0
7106,82.0,480,1104,4.0,105.0
7107,80.0,240,144,4.0,105.0
7108,79.0,240,144,4.0,105.0
7109,60.0,480,768,6.0,105.0
7110,77.0,240,144,4.0,105.0
7111,76.0,240,144,4.0,105.0
7112,73.0,240,144,4.0,105.0
7113,72.0,240,144,4.0,105.0
7114,64.0,0,288,6.0,105.0
7115,70.0,240,144,4.0,105.0
7116,65.0,0,144,6.0,105.0
7117,68.0,0,288,4.0,105.0
7118,67.0,240,144,6.0,105.0
7119,68.0,240,144,6.0,105.0
7120,72.0,0,288,4.0,105.0
7121,67.0,240,144,6.0,105.0
7122,65.0,0,144,6.0,105.0
7123,67.0,240,144,6.0,105.0
7124,65.0,240,1536,3.0,105.0
7125,63.0,240,144,6.0,105.0
7126,65.0,240,144,6.0,105.0
7127,80.0,240,1152,4.0,105.0
7128,79.0,240,192,4.0,105.0
7129,77.0,240,192,4.0,105.0
7130,75.0,240,192,4.0,105.0
7131,74.0,240,192,4.0,105.0
7132,72.0,240,192,4.0,105.0
7133,70.0,0,1536,3.0,105.0
7134,62.0,240,1536,6.0,105.0
7135,70.0,240,192,4.0,105.0
7136,68.0,240,192,4.0,105.0
7137,58.0,0,480,5.0,105.0
7138,63.0,240,288,5.0,105.0
7139,67.0,480,288,5.0,105.0
7140,63.0,0,1152,6.0,105.0
7141,70.0,480,288,5.0,105.0
7142,67.0,0,1536,4.0,105.0
7143,75.0,0,288,5.0,105.0
7144,58.0,0,288,6.0,105.0
7145,31.0,480,480,8.0,105.0
7146,43.0,0,480,7.0,70.0
7147,34.0,0,288,8.0,105.0
7148,55.0,480,288,6.0,105.0
7149,46.0,0,288,7.0,105.0
7150,39.0,0,288,8.0,105.0
7151,51.0,0,288,7.0,105.0
7152,51.0,480,288,6.0,105.0
7153,79.0,0,960,5.0,105.0
7154,70.0,0,480,4.0,105.0
7155,43.0,0,288,8.0,105.0
7156,82.0,480,288,4.0,105.0
7157,77.0,0,288,5.0,105.0
7158,55.0,0,288,7.0,105.0
7159,84.0,480,288,4.0,105.0
7160,45.0,0,288,8.0,105.0
7161,57.0,0,288,7.0,105.0
7162,75.0,0,288,5.0,105.0
7163,58.0,480,288,7.0,105.0
7164,65.0,0,768,6.0,105.0
7165,46.0,0,288,8.0,105.0
7166,68.0,0,144,6.0,105.0
7167,74.0,0,768,5.0,105.0
7168,70.0,0,768,3.0,105.0
7169,41.0,0,288,8.0,105.0
7170,77.0,0,768,4.0,105.0
7171,53.0,480,288,7.0,105.0
7172,67.0,240,144,6.0,105.0
7173,65.0,240,144,6.0,105.0
7174,58.0,0,288,3.0,105.0
7175,63.0,240,144,6.0,105.0
7176,62.0,0,144,6.0,105.0
7177,77.0,240,288,5.0,105.0
7178,80.0,0,288,4.0,105.0
7179,58.0,0,288,3.0,105.0
7180,63.0,240,144,6.0,105.0
7181,56.0,0,1128,7.0,105.0
7182,44.0,0,1128,8.0,105.0
7183,65.0,0,288,6.0,105.0
7184,55.0,240,168,7.0,105.0
7185,43.0,0,168,8.0,105.0
7186,41.0,240,168,8.0,105.0
7187,53.0,0,168,7.0,105.0
7188,58.0,0,288,6.0,105.0
7189,70.0,0,768,5.0,105.0
7190,74.0,240,768,4.0,105.0
7191,39.0,240,168,8.0,105.0
7192,51.0,0,168,7.0,105.0
7193,38.0,0,168,8.0,105.0
7194,50.0,0,168,7.0,105.0
7195,36.0,0,168,8.0,105.0
7196,48.0,240,168,7.0,105.0
7197,58.0,0,1536,3.0,105.0
7198,46.0,240,168,7.0,105.0
7199,34.0,0,168,8.0,105.0
7200,74.0,0,288,5.0,105.0
7201,77.0,0,288,4.0,105.0
7202,44.0,240,168,7.0,105.0
7203,32.0,0,168,8.0,105.0
7204,75.0,0,192,5.0,105.0
7205,75.0,0,192,4.0,125.0
7206,70.0,240,1248,6.0,105.0
7207,79.0,0,192,5.0,105.0
7208,79.0,240,192,4.0,105.0
7209,82.0,240,192,5.0,105.0
7210,82.0,0,192,4.0,105.0
7211,31.0,0,768,8.0,105.0
7212,67.0,0,288,6.0,105.0
7213,43.0,240,768,7.0,105.0
7214,80.0,240,192,5.0,105.0
7215,80.0,0,192,4.0,105.0
7216,79.0,0,192,5.0,105.0
7217,79.0,0,192,4.0,105.0
7218,63.0,240,288,6.0,105.0
7219,77.0,240,192,5.0,105.0
7220,77.0,0,192,4.0,105.0
7221,67.0,0,1536,3.0,105.0
7222,75.0,240,192,4.0,105.0
7223,75.0,0,192,5.0,105.0
7224,58.0,0,384,7.0,105.0
7225,46.0,0,384,8.0,105.0
7226,74.0,240,192,5.0,105.0
7227,74.0,0,192,4.0,105.0
7228,44.0,240,192,8.0,125.0
7229,56.0,0,192,7.0,125.0
7230,67.0,0,864,6.0,105.0
7231,48.0,240,192,8.0,105.0
7232,60.0,0,192,7.0,105.0
7233,68.0,0,192,6.0,105.0
7234,63.0,0,192,7.0,105.0
7235,51.0,240,192,8.0,105.0
7236,72.0,0,768,5.0,105.0
7237,72.0,0,768,4.0,105.0
7238,70.0,0,192,6.0,105.0
7239,50.0,0,192,8.0,105.0
7240,62.0,240,192,7.0,105.0
7241,48.0,240,192,8.0,105.0
7242,60.0,0,192,7.0,105.0
7243,58.0,240,192,7.0,105.0
7244,46.0,0,192,8.0,105.0
7245,72.0,0,1536,3.0,105.0
7246,44.0,0,192,8.0,105.0
7247,56.0,0,192,7.0,105.0
7248,75.0,0,384,5.0,105.0
7249,75.0,240,384,4.0,105.0
7250,43.0,240,192,8.0,105.0
7251,55.0,0,192,7.0,105.0
7252,74.0,0,192,4.0,125.0
7253,74.0,240,192,5.0,105.0
7254,68.0,0,1344,6.0,105.0
7255,77.0,240,192,5.0,105.0
7256,77.0,0,192,4.0,105.0
7257,80.0,0,192,5.0,105.0
7258,80.0,0,192,4.0,105.0
7259,53.0,0,768,7.0,105.0
7260,41.0,0,768,8.0,105.0
7261,65.0,240,384,6.0,105.0
7262,79.0,240,192,5.0,105.0
7263,79.0,0,192,4.0,105.0
7264,77.0,0,192,5.0,105.0
7265,77.0,0,192,4.0,105.0
7266,62.0,240,384,6.0,105.0
7267,75.0,240,192,5.0,105.0
7268,75.0,0,192,4.0,105.0
7269,65.0,0,1536,3.0,105.0
7270,74.0,0,192,4.0,105.0
7271,74.0,0,192,5.0,105.0
7272,44.0,0,384,8.0,105.0
7273,56.0,0,384,7.0,105.0
7274,72.0,0,192,4.0,105.0
7275,72.0,240,192,5.0,105.0
7276,55.0,240,192,7.0,125.0
7277,43.0,0,192,8.0,125.0
7278,65.0,240,864,6.0,105.0
7279,47.0,0,192,8.0,105.0
7280,59.0,240,192,7.0,105.0
7281,67.0,0,192,6.0,105.0
7282,62.0,0,192,7.0,105.0
7283,50.0,240,192,8.0,105.0
7284,71.0,0,768,5.0,105.0
7285,71.0,0,768,4.0,105.0
7286,60.0,0,192,7.0,105.0
7287,48.0,240,192,8.0,105.0
7288,68.0,0,192,6.0,105.0
7289,67.0,240,192,6.0,105.0
7290,59.0,0,192,7.0,105.0
7291,47.0,0,192,8.0,105.0
7292,56.0,0,192,7.0,105.0
7293,65.0,0,192,6.0,105.0
7294,44.0,240,192,8.0,105.0
7295,67.0,0,1536,3.0,105.0
7296,74.0,0,1536,3.0,105.0
7297,55.0,0,192,7.0,105.0
7298,63.0,240,192,6.0,105.0
7299,43.0,0,192,8.0,105.0
7300,62.0,240,192,6.0,105.0
7301,41.0,0,192,8.0,105.0
7302,53.0,0,192,7.0,105.0
7303,67.0,0,480,4.0,127.0
7304,72.0,240,288,4.0,116.0
7305,60.0,0,768,6.0,92.0
7306,39.0,0,768,8.0,92.0
7307,72.0,0,768,3.0,92.0
7308,75.0,480,288,4.0,116.0
7309,67.0,0,768,3.0,92.0
7310,51.0,0,768,7.0,92.0
7311,79.0,480,288,4.0,116.0
7312,84.0,0,1536,1.0,92.0
7313,72.0,0,1536,1.0,92.0
7314,84.0,0,1536,0.0,92.0
7315,84.0,480,288,4.0,116.0
7316,63.0,0,480,5.0,127.0
7317,66.0,0,288,5.0,116.0
7318,69.0,480,288,5.0,116.0
7319,69.0,0,768,3.0,92.0
7320,72.0,0,768,3.0,92.0
7321,87.0,0,960,4.0,116.0
7322,74.0,480,288,5.0,116.0
7323,86.0,0,288,4.0,116.0
7324,78.0,480,1536,0.0,92.0
7325,66.0,0,1536,1.0,92.0
7326,78.0,0,1536,1.0,92.0
7327,78.0,0,288,5.0,116.0
7328,84.0,0,288,4.0,116.0
7329,50.0,480,480,6.0,125.0
7330,55.0,0,288,6.0,105.0
7331,79.0,480,288,5.0,116.0
7332,79.0,0,768,1.0,92.0
7333,58.0,480,288,6.0,105.0
7334,62.0,0,288,5.0,116.0
7335,82.0,0,768,4.0,116.0
7336,79.0,0,768,0.0,92.0
7337,62.0,480,288,6.0,105.0
7338,55.0,0,1536,2.0,70.0
7339,67.0,0,1536,2.0,105.0
7340,67.0,480,288,6.0,105.0
7341,67.0,0,1728,1.0,92.0
7342,46.0,0,384,7.0,112.0
7343,34.0,0,384,8.0,125.0
7344,67.0,0,1152,5.0,116.0
7345,49.0,0,384,7.0,105.0
7346,37.0,0,384,8.0,105.0
7347,65.0,240,192,5.0,116.0
7348,64.0,0,192,5.0,116.0
7349,52.0,240,384,7.0,105.0
7350,40.0,0,384,8.0,105.0
7351,62.0,240,192,5.0,116.0
7352,70.0,0,960,6.0,105.0
7353,69.0,0,288,6.0,105.0
7354,57.0,240,384,7.0,105.0
7355,45.0,0,384,8.0,105.0
7356,61.0,0,384,5.0,116.0
7357,61.0,0,1536,1.0,92.0
7358,61.0,0,1536,2.0,105.0
7359,49.0,480,1536,2.0,105.0
7360,67.0,0,288,6.0,105.0
7361,61.0,0,384,7.0,105.0
7362,64.0,480,384,5.0,116.0
7363,49.0,0,384,8.0,105.0
7364,69.0,0,480,4.0,127.0
7365,74.0,0,288,4.0,116.0
7366,62.0,0,768,2.0,105.0
7367,62.0,0,768,5.0,92.0
7368,50.0,0,768,2.0,105.0
7369,62.0,0,768,7.0,92.0
7370,77.0,480,288,4.0,116.0
7371,50.0,0,768,8.0,92.0
7372,65.0,0,768,6.0,92.0
7373,81.0,480,288,4.0,116.0
7374,62.0,0,1536,1.0,92.0
7375,74.0,0,1536,1.0,92.0
7376,86.0,480,1536,0.0,105.0
7377,86.0,0,288,4.0,116.0
7378,65.0,480,480,5.0,125.0
7379,68.0,480,288,5.0,105.0
7380,71.0,480,288,5.0,105.0
7381,89.0,0,960,4.0,116.0
7382,88.0,480,288,4.0,116.0
7383,76.0,0,288,5.0,105.0
7384,80.0,0,1536,0.0,105.0
7385,68.0,0,1536,1.0,92.0
7386,80.0,0,1536,1.0,92.0
7387,86.0,0,288,4.0,116.0
7388,80.0,0,288,5.0,105.0
7389,52.0,480,480,6.0,125.0
7390,57.0,480,288,6.0,105.0
7391,81.0,0,288,5.0,105.0
7392,60.0,0,288,6.0,105.0
7393,81.0,0,768,1.0,92.0
7394,84.0,0,768,4.0,92.0
7395,64.0,480,288,5.0,105.0
7396,81.0,0,768,0.0,105.0
7397,64.0,0,288,6.0,105.0
7398,57.0,0,1536,2.0,105.0
7399,69.0,0,1728,1.0,92.0
7400,69.0,480,288,6.0,105.0
7401,36.0,0,480,8.0,125.0
7402,48.0,0,480,7.0,125.0
7403,69.0,480,1104,5.0,105.0
7404,51.0,0,288,7.0,105.0
7405,39.0,0,288,8.0,105.0
7406,67.0,240,144,5.0,105.0
7407,66.0,240,144,5.0,105.0
7408,54.0,0,288,7.0,105.0
7409,42.0,0,288,8.0,105.0
7410,64.0,240,144,5.0,105.0
7411,72.0,480,960,6.0,105.0
7412,47.0,0,288,8.0,105.0
7413,63.0,0,288,5.0,105.0
7414,71.0,0,288,6.0,105.0
7415,59.0,240,288,7.0,105.0
7416,63.0,0,1536,1.0,92.0
7417,63.0,0,1536,2.0,105.0
7418,51.0,0,1536,2.0,105.0
7419,69.0,0,288,6.0,105.0
7420,66.0,0,288,5.0,105.0
7421,63.0,0,288,7.0,105.0
7422,51.0,480,288,8.0,105.0
7423,59.0,0,480,4.0,127.0
7424,64.0,0,288,4.0,116.0
7425,64.0,0,384,5.0,105.0
7426,67.0,0,288,4.0,116.0
7427,52.0,0,768,8.0,92.0
7428,64.0,480,768,7.0,92.0
7429,64.0,0,768,2.0,105.0
7430,67.0,0,768,6.0,92.0
7431,52.0,0,768,2.0,105.0
7432,71.0,480,384,5.0,105.0
7433,71.0,480,288,4.0,116.0
7434,64.0,0,1536,1.0,92.0
7435,88.0,0,1536,0.0,105.0
7436,76.0,0,1536,1.0,92.0
7437,76.0,0,288,4.0,116.0
7438,55.0,480,480,6.0,125.0
7439,76.0,0,1152,5.0,105.0
7440,58.0,0,288,6.0,105.0
7441,74.0,240,192,5.0,105.0
7442,73.0,240,192,5.0,105.0
7443,61.0,0,288,6.0,105.0
7444,71.0,240,192,5.0,105.0
7445,79.0,0,960,4.0,116.0
7446,66.0,240,288,6.0,105.0
7447,78.0,0,384,4.0,116.0
7448,70.0,0,384,5.0,105.0
7449,82.0,0,1536,1.0,92.0
7450,82.0,0,1536,0.0,105.0
7451,70.0,480,1536,1.0,92.0
7452,70.0,0,288,6.0,105.0
7453,73.0,480,384,5.0,105.0
7454,76.0,0,384,4.0,116.0
7455,42.0,0,480,7.0,125.0
7456,32.0,0,480,8.0,125.0
7457,47.0,0,288,7.0,105.0
7458,71.0,0,288,6.0,105.0
7459,35.0,0,336,8.0,105.0
7460,83.0,0,768,0.0,105.0
7461,83.0,0,768,1.0,92.0
7462,71.0,0,768,5.0,92.0
7463,50.0,480,288,7.0,105.0
7464,74.0,0,768,4.0,116.0
7465,66.0,0,288,6.0,105.0
7466,38.0,0,336,8.0,105.0
7467,54.0,480,288,7.0,105.0
7468,42.0,0,336,8.0,105.0
7469,47.0,0,1536,2.0,105.0
7470,59.0,0,1536,2.0,105.0
7471,71.0,480,1728,1.0,92.0
7472,59.0,0,288,7.0,105.0
7473,47.0,480,336,8.0,105.0
7474,62.0,0,480,5.0,125.0
7475,71.0,0,1104,6.0,105.0
7476,65.0,0,288,5.0,105.0
7477,69.0,240,144,6.0,105.0
7478,68.0,240,144,6.0,105.0
7479,68.0,0,288,5.0,105.0
7480,66.0,240,144,6.0,105.0
7481,50.0,480,960,8.0,105.0
7482,62.0,0,960,7.0,105.0
7483,61.0,0,288,7.0,105.0
7484,73.0,0,288,5.0,105.0
7485,65.0,240,288,6.0,105.0
7486,49.0,0,336,8.0,105.0
7487,41.0,0,1536,2.0,105.0
7488,53.0,0,1536,2.0,105.0
7489,65.0,0,1536,1.0,92.0
7490,59.0,480,288,7.0,105.0
7491,68.0,0,288,6.0,105.0
7492,47.0,0,336,8.0,105.0
7493,77.0,0,480,5.0,105.0
7494,68.0,0,480,4.0,127.0
7495,73.0,0,336,4.0,116.0
7496,78.0,0,384,5.0,105.0
7497,58.0,0,768,7.0,105.0
7498,46.0,480,768,8.0,105.0
7499,66.0,0,768,6.0,105.0
7500,78.0,0,336,4.0,116.0
7501,61.0,480,384,5.0,105.0
7502,82.0,480,336,4.0,116.0
7503,66.0,0,384,5.0,105.0
7504,66.0,0,1536,1.0,92.0
7505,54.0,0,1536,2.0,105.0
7506,90.0,0,1536,0.0,105.0
7507,42.0,0,1536,2.0,105.0
7508,78.0,0,1536,1.0,92.0
7509,85.0,0,336,4.0,116.0
7510,70.0,0,384,5.0,105.0
7511,66.0,0,384,6.0,105.0
7512,46.0,0,480,7.0,125.0
7513,34.0,480,480,8.0,125.0
7514,73.0,0,192,5.0,105.0
7515,33.0,0,384,8.0,105.0
7516,45.0,480,384,7.0,105.0
7517,72.0,240,192,5.0,105.0
7518,73.0,0,192,5.0,105.0
7519,88.0,0,768,4.0,116.0
7520,67.0,0,768,6.0,105.0
7521,40.0,240,384,8.0,105.0
7522,52.0,0,384,7.0,105.0
7523,75.0,240,192,5.0,105.0
7524,76.0,0,192,5.0,105.0
7525,43.0,0,1152,2.0,105.0
7526,67.0,0,1152,1.0,92.0
7527,79.0,0,1152,1.0,92.0
7528,91.0,0,1152,0.0,105.0
7529,55.0,0,1152,2.0,105.0
7530,57.0,0,384,7.0,105.0
7531,45.0,240,384,8.0,105.0
7532,75.0,240,192,5.0,105.0
7533,76.0,240,192,5.0,105.0
7534,79.0,0,768,4.0,116.0
7535,61.0,0,768,6.0,105.0
7536,33.0,0,384,8.0,105.0
7537,45.0,0,384,7.0,105.0
7538,73.0,240,192,5.0,105.0
7539,55.0,0,480,2.0,125.0
7540,67.0,0,480,1.0,112.0
7541,67.0,0,480,0.0,125.0
7542,80.0,0,192,4.0,105.0
7543,72.0,240,192,5.0,105.0
7544,68.0,0,288,0.0,105.0
7545,56.0,0,288,2.0,105.0
7546,68.0,0,288,1.0,105.0
7547,80.0,0,192,4.0,105.0
7548,68.0,240,192,5.0,105.0
7549,80.0,0,192,4.0,105.0
7550,68.0,240,192,5.0,105.0
7551,32.0,0,768,8.0,92.0
7552,68.0,0,288,1.0,105.0
7553,63.0,0,768,6.0,92.0
7554,68.0,0,288,0.0,105.0
7555,56.0,0,288,2.0,105.0
7556,44.0,0,768,7.0,92.0
7557,80.0,0,192,4.0,105.0
7558,68.0,240,192,5.0,105.0
7559,80.0,240,192,4.0,105.0
7560,68.0,0,192,5.0,105.0
7561,72.0,0,288,1.0,105.0
7562,72.0,0,288,0.0,105.0
7563,56.0,0,288,2.0,105.0
7564,68.0,0,288,1.0,105.0
7565,60.0,0,288,2.0,105.0
7566,80.0,240,192,4.0,105.0
7567,68.0,0,192,5.0,105.0
7568,80.0,0,192,4.0,105.0
7569,68.0,240,192,5.0,105.0
7570,60.0,0,288,2.0,105.0
7571,63.0,0,288,2.0,105.0
7572,75.0,0,288,0.0,105.0
7573,72.0,0,288,1.0,105.0
7574,75.0,0,288,1.0,105.0
7575,68.0,240,192,5.0,105.0
7576,80.0,0,192,4.0,105.0
7577,68.0,0,192,5.0,105.0
7578,80.0,0,192,4.0,105.0
7579,68.0,240,192,5.0,105.0
7580,80.0,0,192,4.0,105.0
7581,80.0,240,192,4.0,105.0
7582,68.0,0,192,5.0,105.0
7583,80.0,0,192,4.0,105.0
7584,68.0,240,192,5.0,105.0
7585,75.0,0,960,1.0,105.0
7586,78.0,0,960,1.0,105.0
7587,78.0,0,960,0.0,105.0
7588,60.0,0,960,2.0,105.0
7589,63.0,240,960,2.0,105.0
7590,68.0,0,192,5.0,105.0
7591,80.0,240,192,4.0,105.0
7592,76.0,0,288,1.0,105.0
7593,61.0,0,288,2.0,105.0
7594,76.0,0,288,0.0,105.0
7595,64.0,0,288,2.0,105.0
7596,73.0,0,288,1.0,105.0
7597,68.0,0,192,5.0,105.0
7598,80.0,240,192,4.0,105.0
7599,80.0,0,192,4.0,105.0
7600,68.0,0,192,5.0,105.0
7601,75.0,0,288,0.0,105.0
7602,75.0,0,288,1.0,105.0
7603,60.0,0,288,2.0,105.0
7604,63.0,0,288,2.0,105.0
7605,72.0,0,288,1.0,105.0
7606,68.0,0,192,5.0,105.0
7607,80.0,240,192,4.0,105.0
7608,32.0,240,480,8.0,112.0
7609,56.0,0,480,6.0,112.0
7610,44.0,0,480,7.0,112.0
7611,80.0,0,192,4.0,105.0
7612,68.0,0,192,5.0,105.0
7613,49.0,0,336,7.0,105.0
7614,52.0,240,336,6.0,105.0
7615,37.0,0,336,8.0,105.0
7616,68.0,0,192,5.0,105.0
7617,80.0,240,192,4.0,105.0
7618,68.0,0,192,5.0,105.0
7619,80.0,0,192,4.0,105.0
7620,76.0,0,768,0.0,105.0
7621,76.0,0,768,1.0,92.0
7622,64.0,0,768,2.0,92.0
7623,73.0,0,768,1.0,92.0
7624,61.0,0,768,2.0,92.0
7625,52.0,0,336,7.0,105.0
7626,56.0,240,336,6.0,105.0
7627,40.0,0,336,8.0,105.0
7628,68.0,240,192,5.0,105.0
7629,80.0,0,192,4.0,105.0
7630,68.0,0,192,5.0,105.0
7631,80.0,0,192,4.0,105.0
7632,44.0,240,336,8.0,105.0
7633,61.0,0,336,6.0,105.0
7634,56.0,0,336,7.0,105.0
7635,80.0,0,192,4.0,105.0
7636,68.0,240,192,5.0,105.0
7637,80.0,0,192,4.0,105.0
7638,68.0,0,192,5.0,105.0
7639,49.0,0,336,8.0,105.0
7640,61.0,240,336,7.0,105.0
7641,64.0,0,336,6.0,105.0
7642,80.0,240,192,4.0,105.0
7643,68.0,0,192,5.0,105.0
7644,80.0,240,192,4.0,105.0
7645,68.0,0,192,5.0,105.0
7646,80.0,240,192,4.0,105.0
7647,68.0,0,192,5.0,105.0
7648,68.0,240,192,5.0,105.0
7649,80.0,0,192,4.0,105.0
7650,68.0,240,192,5.0,105.0
7651,80.0,0,192,4.0,105.0
7652,68.0,0,960,6.0,105.0
7653,52.0,0,960,8.0,105.0
7654,64.0,0,960,7.0,105.0
7655,68.0,0,192,5.0,105.0
7656,80.0,0,192,4.0,105.0
7657,51.0,0,336,8.0,105.0
7658,66.0,240,336,6.0,105.0
7659,63.0,0,336,7.0,105.0
7660,80.0,0,192,4.0,105.0
7661,68.0,240,192,5.0,105.0
7662,80.0,0,192,4.0,105.0
7663,68.0,0,192,5.0,105.0
7664,61.0,0,336,7.0,105.0
7665,49.0,0,336,8.0,105.0
7666,64.0,0,336,6.0,105.0
7667,68.0,0,192,5.0,105.0
7668,80.0,240,192,4.0,105.0
7669,80.0,0,192,4.0,105.0
7670,68.0,240,192,5.0,105.0
7671,56.0,0,768,2.0,112.0
7672,68.0,0,768,1.0,112.0
7673,44.0,240,768,2.0,92.0
7674,68.0,0,768,0.0,125.0
7675,80.0,0,192,4.0,105.0
7676,68.0,240,192,5.0,105.0
7677,80.0,0,192,4.0,105.0
7678,68.0,0,192,5.0,105.0
7679,68.0,0,288,1.0,105.0
7680,72.0,0,288,1.0,105.0
7681,44.0,0,288,2.0,105.0
7682,48.0,240,288,2.0,105.0
7683,60.0,0,768,7.0,92.0
7684,48.0,0,768,8.0,92.0
7685,63.0,0,768,6.0,92.0
7686,72.0,0,288,0.0,105.0
7687,80.0,240,192,4.0,105.0
7688,68.0,0,192,5.0,105.0
7689,68.0,0,192,5.0,105.0
7690,80.0,0,192,4.0,105.0
7691,75.0,0,288,1.0,105.0
7692,72.0,240,288,1.0,105.0
7693,48.0,0,288,2.0,105.0
7694,51.0,0,288,2.0,105.0
7695,75.0,0,288,0.0,105.0
7696,68.0,240,192,5.0,105.0
7697,80.0,0,192,4.0,105.0
7698,80.0,0,192,4.0,105.0
7699,68.0,0,192,5.0,105.0
7700,78.0,240,288,0.0,105.0
7701,78.0,0,288,1.0,105.0
7702,75.0,0,288,1.0,105.0
7703,54.0,0,288,2.0,105.0
7704,51.0,0,288,2.0,105.0
7705,80.0,0,192,4.0,105.0
7706,68.0,240,192,5.0,105.0
7707,68.0,0,192,5.0,105.0
7708,80.0,0,192,4.0,105.0
7709,80.0,240,192,4.0,105.0
7710,68.0,0,192,5.0,105.0
7711,80.0,240,192,4.0,105.0
7712,68.0,0,192,5.0,105.0
7713,80.0,0,192,4.0,105.0
7714,68.0,240,192,5.0,105.0
7715,84.0,0,960,0.0,105.0
7716,57.0,0,960,2.0,105.0
7717,54.0,240,960,2.0,105.0
7718,81.0,0,960,1.0,105.0
7719,78.0,0,960,1.0,105.0
7720,68.0,0,192,5.0,105.0
7721,80.0,0,192,4.0,105.0
7722,85.0,0,288,0.0,105.0
7723,52.0,240,288,2.0,105.0
7724,56.0,0,288,2.0,105.0
7725,76.0,0,288,1.0,105.0
7726,80.0,0,288,1.0,105.0
7727,68.0,0,192,5.0,105.0
7728,80.0,240,192,4.0,105.0
7729,80.0,0,192,4.0,105.0
7730,68.0,0,192,5.0,105.0
7731,54.0,0,288,2.0,105.0
7732,75.0,0,288,1.0,105.0
7733,78.0,0,288,1.0,105.0
7734,51.0,240,288,2.0,105.0
7735,87.0,0,288,0.0,105.0
7736,44.0,0,384,7.0,112.0
7737,32.0,0,384,8.0,112.0
7738,56.0,0,384,6.0,112.0
7739,80.0,240,192,4.0,105.0
7740,68.0,0,192,5.0,105.0
7741,68.0,0,192,5.0,105.0
7742,80.0,0,192,4.0,105.0
7743,52.0,0,336,6.0,105.0
7744,49.0,0,336,7.0,105.0
7745,37.0,0,336,8.0,105.0
7746,68.0,240,192,5.0,105.0
7747,80.0,0,192,4.0,105.0
7748,80.0,240,192,4.0,105.0
7749,68.0,0,192,5.0,105.0
7750,52.0,240,768,2.0,92.0
7751,76.0,0,768,1.0,92.0
7752,88.0,0,768,0.0,92.0
7753,49.0,0,768,2.0,92.0
7754,73.0,0,768,1.0,92.0
7755,56.0,0,336,6.0,105.0
7756,52.0,0,336,7.0,105.0
7757,40.0,0,336,8.0,105.0
7758,80.0,240,192,4.0,105.0
7759,68.0,0,192,5.0,105.0
7760,80.0,0,192,4.0,105.0
7761,68.0,0,192,5.0,105.0
7762,44.0,240,336,8.0,105.0
7763,61.0,0,336,6.0,105.0
7764,56.0,0,336,7.0,105.0
7765,80.0,240,192,4.0,105.0
7766,68.0,0,192,5.0,105.0
7767,80.0,240,192,4.0,105.0
7768,68.0,0,192,5.0,105.0
7769,61.0,0,336,7.0,105.0
7770,64.0,0,336,6.0,105.0
7771,49.0,0,336,8.0,105.0
7772,68.0,0,192,5.0,105.0
7773,80.0,240,192,4.0,105.0
7774,69.0,0,192,5.0,105.0
7775,81.0,240,192,4.0,105.0
7776,69.0,240,192,5.0,105.0
7777,81.0,0,192,4.0,105.0
7778,81.0,240,192,4.0,105.0
7779,69.0,0,192,5.0,105.0
7780,52.0,0,768,8.0,105.0
7781,68.0,0,768,6.0,105.0
7782,64.0,0,768,7.0,105.0
7783,69.0,0,192,5.0,105.0
7784,81.0,240,192,4.0,105.0
7785,85.0,0,960,0.0,105.0
7786,64.0,0,960,2.0,92.0
7787,73.0,0,960,1.0,105.0
7788,68.0,0,960,2.0,92.0
7789,69.0,0,192,5.0,105.0
7790,81.0,0,192,4.0,105.0
7791,84.0,0,288,0.0,105.0
7792,63.0,0,288,2.0,105.0
7793,66.0,0,288,2.0,105.0
7794,72.0,0,288,1.0,105.0
7795,51.0,240,336,8.0,105.0
7796,63.0,0,336,7.0,105.0
7797,66.0,0,336,6.0,105.0
7798,69.0,240,192,5.0,105.0
7799,81.0,0,192,4.0,105.0
7800,69.0,0,192,5.0,105.0
7801,81.0,0,192,4.0,105.0
7802,73.0,0,288,1.0,105.0
7803,61.0,240,288,2.0,105.0
7804,64.0,0,288,2.0,105.0
7805,85.0,0,288,0.0,105.0
7806,61.0,0,336,7.0,105.0
7807,64.0,0,336,6.0,105.0
7808,49.0,0,336,8.0,105.0
7809,69.0,240,192,5.0,105.0
7810,81.0,0,192,4.0,105.0
7811,80.0,0,192,4.0,105.0
7812,68.0,240,192,5.0,105.0
7813,68.0,0,192,5.0,105.0
7814,80.0,240,192,4.0,105.0
7815,75.0,0,576,1.0,105.0
7816,60.0,0,576,7.0,105.0
7817,63.0,0,576,2.0,105.0
7818,60.0,0,576,2.0,105.0
7819,87.0,0,576,0.0,105.0
7820,66.0,0,576,6.0,105.0
7821,48.0,0,576,8.0,105.0
7822,80.0,240,192,4.0,105.0
7823,68.0,0,192,5.0,105.0
7824,80.0,240,192,4.0,105.0
7825,68.0,0,192,5.0,105.0
7826,68.0,0,192,5.0,105.0
7827,80.0,0,192,4.0,105.0
7828,68.0,240,192,5.0,105.0
7829,80.0,0,192,4.0,105.0
7830,64.0,0,576,2.0,105.0
7831,61.0,0,576,2.0,105.0
7832,61.0,0,576,7.0,105.0
7833,64.0,0,576,6.0,105.0
7834,49.0,240,576,8.0,105.0
7835,68.0,0,192,5.0,105.0
7836,80.0,240,192,4.0,105.0
7837,80.0,0,192,4.0,105.0
7838,68.0,240,192,5.0,105.0
7839,66.0,0,192,5.0,105.0
7840,78.0,0,192,4.0,105.0
7841,66.0,240,192,5.0,105.0
7842,78.0,0,192,4.0,105.0
7843,61.0,0,576,6.0,105.0
7844,46.0,0,576,8.0,105.0
7845,58.0,0,576,2.0,105.0
7846,61.0,240,576,2.0,105.0
7847,58.0,0,576,7.0,105.0
7848,66.0,240,192,5.0,105.0
7849,78.0,0,192,4.0,105.0
7850,66.0,240,192,5.0,105.0
7851,78.0,0,192,4.0,105.0
7852,76.0,0,1920,1.0,105.0
7853,88.0,0,1920,0.0,105.0
7854,66.0,240,192,5.0,105.0
7855,78.0,0,192,4.0,105.0
7856,78.0,0,192,4.0,105.0
7857,66.0,240,192,5.0,105.0
7858,60.0,0,576,2.0,105.0
7859,63.0,0,576,2.0,105.0
7860,60.0,0,576,7.0,105.0
7861,63.0,0,576,6.0,105.0
7862,48.0,0,576,8.0,105.0
7863,75.0,0,672,1.0,105.0
7864,78.0,0,192,4.0,105.0
7865,66.0,240,192,5.0,105.0
7866,87.0,0,672,0.0,105.0
7867,78.0,0,192,4.0,105.0
7868,66.0,240,192,5.0,105.0
7869,88.0,0,384,0.0,105.0
7870,64.0,0,384,2.0,105.0
7871,49.0,0,384,8.0,105.0
7872,61.0,0,384,7.0,105.0
7873,63.0,0,384,2.0,105.0
7874,76.0,240,384,4.0,105.0
7875,64.0,0,384,5.0,105.0
7876,68.0,0,384,6.0,105.0
7877,75.0,0,384,1.0,105.0
7878,76.0,0,384,1.0,105.0
7879,45.0,0,384,8.0,105.0
7880,85.0,0,384,4.0,105.0
7881,73.0,0,384,5.0,105.0
7882,76.0,960,384,1.0,105.0
7883,57.0,0,384,7.0,105.0
7884,69.0,0,384,6.0,105.0
7885,61.0,0,384,2.0,105.0
7886,64.0,0,384,2.0,105.0
7887,85.0,0,384,0.0,105.0
7888,73.0,0,384,1.0,105.0
7889,73.0,0,384,1.0,105.0
7890,75.0,0,384,4.0,105.0
7891,85.0,0,384,0.0,105.0
7892,42.0,0,384,8.0,105.0
7893,75.0,0,384,1.0,105.0
7894,63.0,0,384,5.0,105.0
7895,69.0,0,384,6.0,105.0
7896,61.0,0,384,2.0,105.0
7897,63.0,0,384,2.0,105.0
7898,54.0,960,384,7.0,105.0
7899,44.0,0,384,8.0,105.0
7900,66.0,960,384,6.0,105.0
7901,72.0,0,384,5.0,105.0
7902,84.0,0,384,0.0,105.0
7903,56.0,0,384,7.0,105.0
7904,63.0,0,384,2.0,105.0
7905,60.0,0,384,2.0,105.0
7906,75.0,0,384,1.0,105.0
7907,72.0,0,384,1.0,105.0
7908,84.0,0,384,4.0,105.0
7909,85.0,0,384,4.0,105.0
7910,61.0,0,384,2.0,105.0
7911,85.0,0,384,0.0,105.0
7912,73.0,0,384,1.0,105.0
7913,57.0,0,384,7.0,105.0
7914,64.0,960,384,6.0,105.0
7915,73.0,0,384,5.0,105.0
7916,45.0,0,384,8.0,105.0
7917,42.0,1440,480,2.0,80.0
7918,66.0,0,1920,4.0,58.0
7919,54.0,0,1920,7.0,58.0
7920,66.0,0,480,1.0,80.0
7921,57.0,1920,1920,6.0,58.0
7922,63.0,0,1920,5.0,58.0
7923,44.0,480,312,2.0,80.0
7924,68.0,0,312,1.0,80.0
7925,49.0,480,312,2.0,80.0
7926,73.0,0,312,1.0,80.0
7927,52.0,0,312,2.0,80.0
7928,76.0,480,312,1.0,80.0
7929,56.0,480,312,2.0,80.0
7930,80.0,0,312,1.0,80.0
7931,56.0,0,1920,6.0,58.0
7932,63.0,0,0,4.0,58.0
7933,61.0,0,1920,5.0,58.0
7934,56.0,0,1920,7.0,58.0
7935,81.0,0,960,1.0,80.0
7936,57.0,0,960,2.0,80.0
7937,60.0,0,1152,5.0,58.0
7938,80.0,960,288,1.0,70.0
7939,56.0,0,288,2.0,70.0
7940,54.0,480,1536,6.0,58.0
7941,44.0,0,1536,7.0,58.0
7942,56.0,0,480,5.0,125.0
7943,44.0,0,480,2.0,125.0
7944,68.0,480,480,4.0,127.0
7945,73.0,0,288,4.0,116.0
7946,49.0,0,288,2.0,105.0
7947,61.0,0,288,5.0,105.0
7948,61.0,0,384,7.0,58.0
7949,53.0,0,384,6.0,58.0
7950,77.0,0,384,1.0,70.0
7951,73.0,480,384,1.0,70.0
7952,49.0,0,384,8.0,105.0
7953,80.0,0,384,0.0,105.0
7954,77.0,480,288,4.0,116.0
7955,65.0,0,288,5.0,105.0
7956,53.0,0,288,2.0,105.0
7957,54.0,480,288,2.0,105.0
7958,78.0,0,288,4.0,116.0
7959,66.0,0,288,5.0,105.0
7960,45.0,0,384,8.0,105.0
7961,73.0,0,384,1.0,105.0
7962,81.0,0,384,0.0,105.0
7963,78.0,0,384,1.0,105.0
7964,61.0,0,384,6.0,105.0
7965,57.0,0,384,7.0,105.0
7966,81.0,0,288,4.0,116.0
7967,57.0,0,288,2.0,105.0
7968,69.0,480,288,5.0,105.0
7969,53.0,0,768,7.0,105.0
7970,83.0,480,768,0.0,105.0
7971,80.0,0,768,1.0,105.0
7972,68.0,0,768,6.0,105.0
7973,83.0,0,768,1.0,105.0
7974,41.0,0,768,8.0,105.0
7975,86.0,0,960,4.0,116.0
7976,62.0,0,960,2.0,105.0
7977,74.0,0,960,5.0,105.0
7978,85.0,0,288,4.0,116.0
7979,73.0,960,288,5.0,105.0
7980,61.0,0,384,2.0,105.0
7981,83.0,0,288,4.0,116.0
7982,71.0,0,288,5.0,105.0
7983,37.0,0,480,8.0,105.0
7984,49.0,0,480,7.0,105.0
7985,49.0,0,480,6.0,105.0
7986,73.0,480,480,1.0,105.0
7987,73.0,0,480,0.0,105.0
7988,42.0,480,288,8.0,105.0
7989,78.0,0,288,1.0,105.0
7990,66.0,0,288,1.0,105.0
7991,78.0,0,288,0.0,105.0
7992,54.0,0,288,6.0,105.0
7993,54.0,0,288,7.0,105.0
7994,61.0,0,384,2.0,105.0
7995,66.0,0,384,2.0,105.0
7996,82.0,0,384,4.0,116.0
7997,70.0,0,384,5.0,105.0
7998,58.0,0,288,7.0,105.0
7999,82.0,0,288,0.0,105.0
8000,58.0,480,288,6.0,105.0
8001,82.0,0,288,1.0,105.0
8002,46.0,0,288,8.0,105.0
8003,70.0,0,288,1.0,105.0
8004,59.0,0,288,6.0,105.0
8005,71.0,0,288,1.0,105.0
8006,83.0,0,288,0.0,105.0
8007,83.0,0,288,1.0,105.0
8008,59.0,0,288,7.0,105.0
8009,47.0,0,288,8.0,105.0
8010,66.0,0,384,5.0,105.0
8011,74.0,0,384,5.0,105.0
8012,78.0,0,384,4.0,116.0
8013,86.0,0,384,4.0,116.0
8014,62.0,480,384,2.0,105.0
8015,66.0,0,384,2.0,105.0
8016,86.0,0,288,0.0,105.0
8017,62.0,0,288,6.0,105.0
8018,62.0,0,288,7.0,105.0
8019,50.0,0,288,8.0,105.0
8020,74.0,480,288,1.0,105.0
8021,61.0,0,768,2.0,105.0
8022,61.0,0,768,5.0,105.0
8023,70.0,0,768,5.0,105.0
8024,58.0,0,768,2.0,105.0
8025,61.0,0,768,4.0,116.0
8026,70.0,0,768,4.0,116.0
8027,67.0,0,960,7.0,105.0
8028,55.0,0,960,8.0,105.0
8029,67.0,480,960,6.0,105.0
8030,79.0,0,960,1.0,105.0
8031,91.0,0,960,0.0,105.0
8032,54.0,0,288,8.0,105.0
8033,66.0,960,288,7.0,105.0
8034,66.0,0,288,6.0,105.0
8035,78.0,0,384,1.0,105.0
8036,90.0,0,384,0.0,105.0
8037,64.0,0,288,7.0,105.0
8038,52.0,0,288,8.0,105.0
8039,64.0,0,288,6.0,105.0
8040,42.0,480,480,2.0,105.0
8041,66.0,0,480,4.0,116.0
8042,66.0,0,480,5.0,105.0
8043,47.0,480,288,2.0,105.0
8044,59.0,0,288,5.0,105.0
8045,71.0,0,288,4.0,116.0
8046,63.0,0,384,6.0,105.0
8047,75.0,0,384,1.0,105.0
8048,78.0,0,384,0.0,105.0
8049,71.0,0,384,1.0,105.0
8050,63.0,0,384,7.0,105.0
8051,51.0,0,384,8.0,105.0
8052,63.0,0,288,5.0,105.0
8053,51.0,480,288,2.0,105.0
8054,75.0,0,288,4.0,116.0
8055,52.0,0,288,2.0,105.0
8056,76.0,0,288,4.0,116.0
8057,64.0,0,288,5.0,105.0
8058,43.0,0,384,8.0,105.0
8059,59.0,480,384,6.0,105.0
8060,76.0,0,384,1.0,105.0
8061,79.0,0,384,0.0,105.0
8062,71.0,0,384,1.0,105.0
8063,55.0,0,384,7.0,105.0
8064,67.0,480,288,5.0,105.0
8065,79.0,0,288,4.0,116.0
8066,55.0,0,288,2.0,105.0
8067,66.0,0,768,6.0,105.0
8068,39.0,0,768,8.0,105.0
8069,81.0,0,768,1.0,105.0
8070,78.0,0,768,1.0,105.0
8071,81.0,480,768,0.0,105.0
8072,51.0,0,768,7.0,105.0
8073,60.0,0,960,2.0,105.0
8074,72.0,0,960,5.0,105.0
8075,84.0,0,960,4.0,116.0
8076,83.0,0,288,4.0,116.0
8077,71.0,0,288,5.0,105.0
8078,59.0,960,384,2.0,105.0
8079,69.0,0,288,5.0,105.0
8080,81.0,480,288,4.0,116.0
8081,35.0,0,480,8.0,105.0
8082,47.0,0,480,7.0,105.0
8083,71.0,0,480,1.0,105.0
8084,71.0,0,480,0.0,105.0
8085,59.0,0,480,6.0,105.0
8086,52.0,0,288,7.0,105.0
8087,76.0,0,288,0.0,105.0
8088,64.0,0,288,1.0,105.0
8089,76.0,0,288,1.0,105.0
8090,40.0,0,288,8.0,105.0
8091,52.0,0,288,6.0,105.0
8092,64.0,480,384,2.0,105.0
8093,68.0,0,384,5.0,105.0
8094,80.0,0,384,4.0,116.0
8095,59.0,0,384,2.0,105.0
8096,80.0,0,288,0.0,105.0
8097,68.0,0,288,1.0,105.0
8098,56.0,0,288,7.0,105.0
8099,44.0,0,288,8.0,105.0
8100,56.0,0,288,6.0,105.0
8101,80.0,480,288,1.0,105.0
8102,81.0,0,288,0.0,105.0
8103,45.0,0,288,8.0,105.0
8104,81.0,0,288,1.0,105.0
8105,57.0,0,288,6.0,105.0
8106,57.0,0,288,7.0,105.0
8107,69.0,0,288,1.0,105.0
8108,76.0,0,384,4.0,116.0
8109,60.0,0,384,2.0,105.0
8110,64.0,0,384,2.0,105.0
8111,84.0,0,384,5.0,105.0
8112,76.0,480,384,5.0,105.0
8113,84.0,0,384,4.0,116.0
8114,84.0,0,288,0.0,105.0
8115,72.0,0,288,1.0,105.0
8116,48.0,0,288,8.0,105.0
8117,60.0,0,288,7.0,105.0
8118,60.0,480,288,6.0,105.0
8119,59.0,480,768,4.0,116.0
8120,68.0,0,768,5.0,105.0
8121,59.0,0,768,5.0,105.0
8122,68.0,0,768,4.0,116.0
8123,56.0,0,768,2.0,105.0
8124,59.0,0,768,2.0,105.0
8125,65.0,0,960,7.0,105.0
8126,53.0,0,960,8.0,105.0
8127,65.0,0,960,6.0,105.0
8128,89.0,0,960,0.0,105.0
8129,77.0,0,960,1.0,105.0
8130,64.0,0,288,7.0,105.0
8131,52.0,960,288,8.0,105.0
8132,64.0,0,288,6.0,105.0
8133,88.0,0,384,0.0,105.0
8134,76.0,0,384,1.0,105.0
8135,62.0,0,288,7.0,105.0
8136,50.0,0,288,8.0,105.0
8137,62.0,480,288,6.0,105.0
8138,64.0,0,480,5.0,105.0
8139,64.0,0,480,4.0,116.0
8140,40.0,0,480,2.0,105.0
8141,45.0,0,288,2.0,105.0
8142,57.0,480,288,5.0,105.0
8143,69.0,0,288,4.0,116.0
8144,76.0,0,384,0.0,105.0
8145,69.0,0,384,1.0,105.0
8146,49.0,0,384,8.0,105.0
8147,73.0,0,384,1.0,105.0
8148,61.0,0,384,7.0,105.0
8149,61.0,0,384,6.0,105.0
8150,61.0,0,288,5.0,105.0
8151,49.0,0,288,2.0,105.0
8152,73.0,480,288,4.0,116.0
8153,62.0,0,288,5.0,105.0
8154,50.0,0,288,2.0,105.0
8155,74.0,0,288,4.0,116.0
8156,41.0,0,384,8.0,105.0
8157,53.0,0,384,7.0,105.0
8158,57.0,480,384,6.0,105.0
8159,69.0,0,384,1.0,105.0
8160,77.0,0,384,0.0,105.0
8161,74.0,0,384,1.0,105.0
8162,65.0,480,288,5.0,105.0
8163,53.0,0,288,2.0,105.0
8164,77.0,0,288,4.0,116.0
8165,64.0,0,768,6.0,105.0
8166,37.0,0,768,8.0,105.0
8167,49.0,0,768,7.0,105.0
8168,76.0,480,768,1.0,105.0
8169,79.0,0,768,1.0,105.0
8170,79.0,0,768,0.0,105.0
8171,82.0,0,960,4.0,116.0
8172,70.0,0,960,5.0,105.0
8173,58.0,0,960,2.0,105.0
8174,69.0,0,288,5.0,105.0
8175,81.0,960,288,4.0,116.0
8176,57.0,0,384,2.0,105.0
8177,79.0,0,288,4.0,116.0
8178,67.0,480,288,5.0,105.0
8179,57.0,0,480,6.0,105.0
8180,69.0,0,480,1.0,105.0
8181,34.0,0,480,8.0,105.0
8182,45.0,0,480,7.0,105.0
8183,69.0,0,480,0.0,105.0
8184,74.0,0,288,0.0,105.0
8185,50.0,0,288,7.0,105.0
8186,50.0,0,288,6.0,105.0
8187,62.0,0,288,1.0,105.0
8188,74.0,0,288,1.0,105.0
8189,38.0,0,288,8.0,105.0
8190,66.0,0,384,5.0,105.0
8191,78.0,0,384,4.0,116.0
8192,57.0,0,384,2.0,105.0
8193,60.0,480,384,2.0,105.0
8194,78.0,0,288,1.0,105.0
8195,78.0,480,288,0.0,105.0
8196,54.0,0,288,7.0,105.0
8197,66.0,0,288,1.0,105.0
8198,42.0,0,288,8.0,105.0
8199,54.0,0,288,6.0,105.0
8200,55.0,0,288,6.0,105.0
8201,79.0,0,288,1.0,105.0
8202,55.0,0,288,7.0,105.0
8203,67.0,0,288,1.0,105.0
8204,79.0,0,288,0.0,105.0
8205,43.0,0,288,8.0,105.0
8206,82.0,0,384,4.0,105.0
8207,82.0,0,384,5.0,105.0
8208,74.0,0,384,5.0,105.0
8209,67.0,0,384,5.0,105.0
8210,58.0,0,384,2.0,105.0
8211,55.0,480,384,2.0,105.0
8212,74.0,0,384,4.0,105.0
8213,67.0,0,384,4.0,105.0
8214,70.0,0,288,1.0,105.0
8215,46.0,0,288,8.0,105.0
8216,82.0,0,288,0.0,105.0
8217,58.0,0,288,7.0,105.0
8218,58.0,0,288,6.0,105.0
8219,82.0,480,288,1.0,105.0
8220,51.0,0,1440,8.0,112.0
8221,63.0,0,1440,7.0,112.0
8222,75.0,0,1440,1.0,112.0
8223,87.0,0,1440,0.0,112.0
8224,66.0,480,1536,5.0,112.0
8225,60.0,0,1536,2.0,112.0
8226,57.0,0,1536,4.0,92.0
8227,57.0,0,1536,2.0,92.0
8228,60.0,0,1536,6.0,112.0
8229,57.0,0,1536,5.0,105.0
8230,66.0,0,1536,4.0,112.0
8231,72.0,0,1536,3.0,112.0
8232,69.0,0,1536,3.0,92.0
8233,62.0,1440,384,7.0,105.0
8234,50.0,0,384,8.0,105.0
8235,74.0,0,384,1.0,105.0
8236,86.0,0,384,0.0,105.0
8237,72.0,0,768,3.0,112.0
8238,69.0,0,768,3.0,92.0
8239,57.0,0,1152,4.0,92.0
8240,57.0,0,1152,5.0,92.0
8241,60.0,0,1152,6.0,112.0
8242,66.0,0,1152,4.0,112.0
8243,66.0,480,1152,5.0,112.0
8244,75.0,0,1440,1.0,112.0
8245,63.0,0,1440,7.0,112.0
8246,60.0,0,1440,2.0,112.0
8247,51.0,0,1440,8.0,112.0
8248,57.0,0,1440,2.0,92.0
8249,87.0,0,1440,0.0,112.0
8250,58.0,0,192,6.0,105.0
8251,67.0,0,192,4.0,105.0
8252,67.0,0,192,5.0,105.0
8253,86.0,0,384,0.0,105.0
8254,50.0,0,384,8.0,92.0
8255,62.0,1440,384,7.0,105.0
8256,74.0,0,384,1.0,105.0
8257,58.0,0,384,2.0,105.0
8258,62.0,0,384,2.0,105.0
8259,67.0,0,192,5.0,105.0
8260,58.0,240,192,6.0,105.0
8261,67.0,0,192,4.0,105.0
8262,63.0,0,192,6.0,105.0
8263,66.0,0,192,5.0,105.0
8264,69.0,0,192,4.0,105.0
8265,84.0,0,288,0.0,105.0
8266,48.0,240,288,8.0,105.0
8267,72.0,0,288,1.0,105.0
8268,57.0,0,288,2.0,105.0
8269,54.0,0,288,2.0,105.0
8270,60.0,0,288,7.0,105.0
8271,69.0,0,192,4.0,105.0
8272,63.0,0,192,6.0,105.0
8273,66.0,240,192,5.0,105.0
8274,70.0,0,192,4.0,105.0
8275,67.0,0,192,5.0,105.0
8276,62.0,0,192,6.0,105.0
8277,58.0,0,288,2.0,105.0
8278,58.0,240,288,7.0,105.0
8279,70.0,0,288,1.0,105.0
8280,55.0,0,288,2.0,105.0
8281,82.0,0,288,0.0,105.0
8282,46.0,0,288,8.0,105.0
8283,67.0,0,192,5.0,105.0
8284,62.0,0,192,6.0,105.0
8285,70.0,240,192,4.0,105.0
8286,60.0,0,192,6.0,105.0
8287,69.0,0,192,5.0,105.0
8288,72.0,0,192,4.0,105.0
8289,57.0,0,288,7.0,105.0
8290,81.0,0,288,0.0,105.0
8291,45.0,0,288,8.0,105.0
8292,57.0,0,288,2.0,105.0
8293,69.0,0,288,1.0,105.0
8294,60.0,240,288,2.0,105.0
8295,72.0,0,192,4.0,105.0
8296,69.0,0,192,5.0,105.0
8297,60.0,240,192,6.0,105.0
8298,70.0,0,192,5.0,105.0
8299,58.0,0,192,6.0,105.0
8300,74.0,0,192,4.0,105.0
8301,55.0,0,288,7.0,105.0
8302,62.0,0,288,2.0,105.0
8303,58.0,0,288,2.0,105.0
8304,67.0,0,288,1.0,105.0
8305,43.0,240,288,8.0,105.0
8306,79.0,0,288,0.0,105.0
8307,70.0,0,192,5.0,105.0
8308,58.0,240,192,6.0,105.0
8309,74.0,0,192,4.0,105.0
8310,66.0,0,384,1.0,105.0
8311,57.0,0,384,6.0,105.0
8312,54.0,0,384,7.0,105.0
8313,78.0,0,384,0.0,105.0
8314,72.0,0,384,5.0,105.0
8315,69.0,0,384,3.0,92.0
8316,42.0,0,384,8.0,105.0
8317,63.0,240,384,2.0,105.0
8318,60.0,0,384,2.0,105.0
8319,72.0,0,384,3.0,92.0
8320,75.0,0,384,4.0,105.0
8321,62.0,3360,480,4.0,70.0
8322,67.0,0,288,4.0,70.0
8323,70.0,480,288,4.0,70.0
8324,43.0,0,768,8.0,58.0
8325,55.0,0,768,2.0,70.0
8326,55.0,480,768,7.0,58.0
8327,67.0,0,384,5.0,58.0
8328,58.0,0,384,6.0,58.0
8329,74.0,0,288,4.0,70.0
8330,67.0,0,384,5.0,58.0
8331,58.0,480,384,6.0,58.0
8332,79.0,0,288,4.0,70.0
8333,67.0,480,384,5.0,58.0
8334,58.0,0,384,6.0,58.0
8335,55.0,0,768,7.0,58.0
8336,43.0,0,768,8.0,58.0
8337,55.0,480,768,2.0,70.0
8338,61.0,0,384,6.0,58.0
8339,64.0,480,384,5.0,58.0
8340,82.0,0,960,4.0,70.0
8341,81.0,480,288,4.0,70.0
8342,64.0,0,384,5.0,58.0
8343,61.0,0,384,6.0,58.0
8344,73.0,0,144,4.0,105.0
8345,73.0,0,192,5.0,92.0
8346,55.0,0,288,7.0,105.0
8347,55.0,0,288,2.0,105.0
8348,69.0,0,288,3.0,105.0
8349,43.0,0,288,8.0,105.0
8350,81.0,0,288,1.0,105.0
8351,76.0,0,288,1.0,105.0
8352,85.0,480,288,0.0,105.0
8353,76.0,240,144,4.0,105.0
8354,76.0,0,192,5.0,92.0
8355,74.0,0,240,4.0,105.0
8356,74.0,0,240,5.0,92.0
8357,69.0,0,288,3.0,105.0
8358,86.0,0,288,0.0,105.0
8359,81.0,0,288,1.0,105.0
8360,74.0,0,288,1.0,105.0
8361,54.0,240,288,2.0,105.0
8362,42.0,0,288,8.0,105.0
8363,62.0,0,288,3.0,105.0
8364,54.0,0,288,7.0,105.0
8365,78.0,0,144,5.0,92.0
8366,69.0,0,864,6.0,105.0
8367,78.0,240,144,4.0,105.0
8368,76.0,240,144,5.0,92.0
8369,76.0,0,144,4.0,105.0
8370,76.0,0,288,1.0,105.0
8371,81.0,0,288,1.0,105.0
8372,55.0,0,288,2.0,105.0
8373,69.0,0,288,3.0,105.0
8374,55.0,0,288,7.0,105.0
8375,43.0,0,288,8.0,105.0
8376,85.0,0,288,0.0,105.0
8377,73.0,0,144,5.0,92.0
8378,73.0,240,144,4.0,105.0
8379,74.0,0,240,4.0,105.0
8380,74.0,0,240,5.0,92.0
8381,86.0,0,288,0.0,105.0
8382,69.0,0,288,3.0,105.0
8383,62.0,0,288,3.0,105.0
8384,69.0,0,768,6.0,105.0
8385,54.0,0,288,2.0,105.0
8386,74.0,240,288,1.0,105.0
8387,42.0,0,288,8.0,105.0
8388,54.0,0,288,7.0,105.0
8389,81.0,0,288,1.0,105.0
8390,78.0,240,144,4.0,105.0
8391,78.0,0,144,5.0,92.0
8392,76.0,0,144,4.0,105.0
8393,76.0,0,144,5.0,92.0
8394,55.0,240,288,7.0,105.0
8395,85.0,0,288,0.0,105.0
8396,76.0,0,288,1.0,105.0
8397,81.0,0,288,1.0,105.0
8398,69.0,0,288,3.0,105.0
8399,55.0,0,288,2.0,105.0
8400,43.0,0,288,8.0,105.0
8401,73.0,0,144,5.0,92.0
8402,73.0,240,144,4.0,105.0
8403,69.0,0,384,6.0,105.0
8404,74.0,0,768,4.0,105.0
8405,42.0,240,768,8.0,105.0
8406,54.0,0,768,7.0,105.0
8407,86.0,0,768,0.0,105.0
8408,54.0,0,768,2.0,105.0
8409,69.0,0,768,3.0,105.0
8410,81.0,0,768,1.0,105.0
8411,74.0,0,768,1.0,105.0
8412,69.0,0,768,6.0,105.0
8413,74.0,0,768,5.0,92.0
8414,62.0,0,768,3.0,105.0
8415,74.0,1440,480,4.0,70.0
8416,75.0,480,288,4.0,70.0
8417,36.0,0,768,8.0,58.0
8418,78.0,0,288,4.0,70.0
8419,48.0,0,768,2.0,70.0
8420,48.0,0,768,7.0,58.0
8421,60.0,0,384,6.0,58.0
8422,63.0,480,384,5.0,58.0
8423,81.0,480,288,4.0,70.0
8424,63.0,0,384,5.0,58.0
8425,60.0,0,384,6.0,58.0
8426,84.0,480,288,4.0,70.0
8427,63.0,0,384,5.0,58.0
8428,60.0,0,384,6.0,58.0
8429,50.0,480,768,2.0,70.0
8430,38.0,0,768,8.0,58.0
8431,50.0,0,768,7.0,58.0
8432,66.0,480,384,5.0,58.0
8433,60.0,0,384,6.0,58.0
8434,87.0,0,960,4.0,70.0
8435,86.0,0,288,4.0,70.0
8436,66.0,480,384,5.0,58.0
8437,60.0,0,384,6.0,58.0
8438,69.0,0,144,5.0,105.0
8439,78.0,0,144,4.0,116.0
8440,84.0,0,288,1.0,105.0
8441,78.0,0,288,1.0,105.0
8442,38.0,0,288,8.0,105.0
8443,50.0,0,288,7.0,105.0
8444,62.0,0,288,3.0,105.0
8445,72.0,0,288,3.0,105.0
8446,50.0,0,288,2.0,105.0
8447,86.0,480,288,0.0,105.0
8448,72.0,240,144,5.0,105.0
8449,81.0,0,144,4.0,116.0
8450,79.0,0,240,4.0,116.0
8451,70.0,0,240,5.0,105.0
8452,70.0,0,288,3.0,105.0
8453,62.0,0,288,3.0,105.0
8454,55.0,0,288,2.0,105.0
8455,79.0,0,288,1.0,105.0
8456,82.0,0,288,1.0,105.0
8457,55.0,240,288,7.0,105.0
8458,86.0,0,288,0.0,105.0
8459,43.0,0,288,8.0,105.0
8460,74.0,240,144,5.0,105.0
8461,62.0,0,864,6.0,105.0
8462,82.0,0,144,4.0,116.0
8463,81.0,240,144,4.0,116.0
8464,72.0,0,144,5.0,105.0
8465,38.0,0,288,8.0,105.0
8466,84.0,0,288,1.0,105.0
8467,50.0,0,288,2.0,105.0
8468,86.0,0,288,0.0,105.0
8469,78.0,0,288,1.0,105.0
8470,72.0,0,288,3.0,105.0
8471,62.0,0,288,3.0,105.0
8472,50.0,0,288,7.0,105.0
8473,78.0,0,144,4.0,116.0
8474,69.0,240,144,5.0,105.0
8475,70.0,0,240,5.0,105.0
8476,79.0,240,240,4.0,116.0
8477,79.0,0,288,1.0,105.0
8478,62.0,0,288,3.0,105.0
8479,70.0,0,288,3.0,105.0
8480,55.0,0,288,2.0,105.0
8481,55.0,0,288,7.0,105.0
8482,82.0,0,288,1.0,105.0
8483,62.0,0,768,6.0,105.0
8484,43.0,0,288,8.0,105.0
8485,86.0,0,288,0.0,105.0
8486,82.0,240,144,4.0,116.0
8487,74.0,0,144,5.0,105.0
8488,81.0,0,144,4.0,116.0
8489,72.0,0,144,5.0,105.0
8490,62.0,0,288,3.0,105.0
8491,78.0,0,288,1.0,105.0
8492,84.0,0,288,1.0,105.0
8493,50.0,0,288,7.0,105.0
8494,38.0,0,288,8.0,105.0
8495,50.0,0,288,2.0,105.0
8496,86.0,240,288,0.0,105.0
8497,72.0,0,288,3.0,105.0
8498,78.0,0,144,4.0,116.0
8499,69.0,240,144,5.0,105.0
8500,62.0,0,384,6.0,105.0
8501,55.0,240,768,2.0,105.0
8502,79.0,0,768,4.0,116.0
8503,62.0,0,768,6.0,105.0
8504,55.0,0,768,7.0,105.0
8505,70.0,0,768,3.0,105.0
8506,43.0,0,768,8.0,105.0
8507,82.0,0,768,1.0,105.0
8508,79.0,0,768,1.0,105.0
8509,86.0,0,768,0.0,105.0
8510,70.0,0,768,5.0,105.0
8511,62.0,0,768,3.0,105.0
8512,50.0,0,288,2.0,105.0
8513,62.0,0,288,3.0,105.0
8514,50.0,0,288,3.0,105.0
8515,62.0,0,288,1.0,105.0
8516,62.0,0,288,6.0,105.0
8517,38.0,1440,288,8.0,105.0
8518,74.0,0,288,5.0,105.0
8519,62.0,0,288,2.0,105.0
8520,74.0,0,288,1.0,105.0
8521,50.0,0,288,7.0,105.0
8522,86.0,0,288,0.0,105.0
8523,86.0,0,288,4.0,116.0
8524,50.0,0,384,7.0,105.0
8525,74.0,0,384,5.0,105.0
8526,62.0,0,384,6.0,105.0
8527,50.0,0,768,3.0,105.0
8528,38.0,0,768,8.0,105.0
8529,86.0,0,768,0.0,105.0
8530,62.0,0,768,3.0,105.0
8531,62.0,480,768,2.0,105.0
8532,74.0,0,768,1.0,105.0
8533,62.0,0,768,1.0,105.0
8534,50.0,0,768,2.0,105.0
8535,66.0,480,384,6.0,70.0
8536,62.0,0,384,7.0,70.0
8537,69.0,0,384,5.0,70.0
8538,86.0,0,1152,4.0,116.0
8539,69.0,0,384,5.0,70.0
8540,66.0,480,384,6.0,70.0
8541,62.0,0,384,7.0,70.0
8542,62.0,0,384,7.0,70.0
8543,66.0,0,384,6.0,70.0
8544,74.0,0,384,4.0,70.0
8545,69.0,480,384,5.0,70.0
8546,77.0,0,60,4.0,70.0
8547,75.0,60,60,4.0,70.0
8548,77.0,60,60,4.0,70.0
8549,75.0,60,60,4.0,70.0
8550,77.0,60,60,4.0,70.0
8551,75.0,60,60,4.0,70.0
8552,77.0,60,60,4.0,70.0
8553,70.0,0,480,5.0,70.0
8554,67.0,480,480,6.0,70.0
8555,75.0,60,60,4.0,70.0
8556,74.0,0,288,4.0,70.0
8557,69.0,0,384,5.0,70.0
8558,66.0,60,384,6.0,70.0
8559,62.0,0,1152,7.0,70.0
8560,74.0,480,288,4.0,70.0
8561,66.0,0,384,6.0,70.0
8562,69.0,0,384,5.0,70.0
8563,50.0,0,288,2.0,105.0
8564,62.0,0,288,2.0,105.0
8565,50.0,0,288,3.0,105.0
8566,62.0,0,288,3.0,105.0
8567,62.0,480,288,6.0,70.0
8568,38.0,0,288,8.0,105.0
8569,86.0,0,288,4.0,116.0
8570,50.0,0,288,7.0,70.0
8571,74.0,0,288,5.0,105.0
8572,86.0,0,288,0.0,105.0
8573,74.0,0,288,1.0,105.0
8574,62.0,0,288,1.0,105.0
8575,62.0,480,384,6.0,105.0
8576,74.0,0,384,5.0,105.0
8577,50.0,0,384,7.0,105.0
8578,62.0,0,768,1.0,105.0
8579,50.0,0,768,2.0,105.0
8580,74.0,0,768,1.0,105.0
8581,86.0,0,768,0.0,105.0
8582,38.0,0,768,8.0,105.0
8583,50.0,0,768,3.0,105.0
8584,62.0,0,768,3.0,105.0
8585,62.0,0,768,2.0,105.0
8586,69.0,480,384,5.0,70.0
8587,66.0,0,384,6.0,70.0
8588,62.0,0,384,7.0,70.0
8589,86.0,0,1152,4.0,116.0
8590,66.0,480,384,6.0,70.0
8591,69.0,0,384,5.0,70.0
8592,62.0,0,384,7.0,70.0
8593,69.0,0,384,5.0,70.0
8594,74.0,0,384,4.0,70.0
8595,66.0,480,384,6.0,70.0
8596,62.0,0,384,7.0,70.0
8597,77.0,480,60,4.0,70.0
8598,75.0,60,60,4.0,70.0
8599,77.0,60,60,4.0,70.0
8600,75.0,60,60,4.0,70.0
8601,77.0,60,60,4.0,70.0
8602,75.0,60,60,4.0,70.0
8603,77.0,60,60,4.0,70.0
8604,67.0,0,480,6.0,70.0
8605,70.0,0,480,5.0,70.0
8606,75.0,60,60,4.0,70.0
8607,74.0,0,288,4.0,70.0
8608,69.0,0,384,5.0,70.0
8609,66.0,60,384,6.0,70.0
8610,62.0,0,1152,7.0,70.0
8611,74.0,0,288,4.0,70.0
8612,66.0,0,384,6.0,70.0
8613,69.0,480,384,5.0,70.0
8614,74.0,480,480,4.0,70.0
8615,75.0,480,288,4.0,70.0
8616,48.0,0,768,7.0,58.0
8617,36.0,0,768,8.0,58.0
8618,78.0,480,288,4.0,70.0
8619,48.0,0,768,2.0,70.0
8620,63.0,0,384,5.0,58.0
8621,60.0,0,384,6.0,70.0
8622,81.0,0,288,4.0,70.0
8623,60.0,480,384,6.0,58.0
8624,63.0,0,384,5.0,58.0
8625,84.0,0,288,4.0,70.0
8626,63.0,480,384,5.0,58.0
8627,60.0,0,384,6.0,58.0
8628,50.0,0,768,2.0,70.0
8629,50.0,0,768,7.0,58.0
8630,38.0,480,768,8.0,58.0
8631,66.0,480,384,5.0,58.0
8632,60.0,0,384,6.0,58.0
8633,87.0,0,960,4.0,70.0
8634,66.0,0,384,5.0,58.0
8635,60.0,480,384,6.0,58.0
8636,86.0,0,384,4.0,70.0
8637,78.0,0,144,4.0,116.0
8638,69.0,0,144,5.0,58.0
8639,38.0,0,288,8.0,105.0
8640,86.0,0,288,0.0,105.0
8641,78.0,0,288,1.0,105.0
8642,50.0,0,288,7.0,105.0
8643,50.0,0,288,2.0,105.0
8644,72.0,0,288,3.0,105.0
8645,84.0,480,288,1.0,105.0
8646,62.0,0,288,3.0,105.0
8647,72.0,240,144,5.0,105.0
8648,81.0,0,144,4.0,116.0
8649,70.0,0,240,5.0,105.0
8650,79.0,0,240,4.0,116.0
8651,70.0,0,288,3.0,105.0
8652,62.0,0,288,3.0,105.0
8653,79.0,0,288,1.0,105.0
8654,82.0,240,288,1.0,105.0
8655,55.0,0,288,2.0,105.0
8656,86.0,0,288,0.0,105.0
8657,55.0,0,288,7.0,105.0
8658,43.0,0,288,8.0,105.0
8659,82.0,0,144,4.0,116.0
8660,74.0,240,144,5.0,105.0
8661,62.0,0,864,6.0,105.0
8662,72.0,0,144,5.0,105.0
8663,81.0,0,144,4.0,116.0
8664,50.0,0,288,2.0,105.0
8665,50.0,240,288,7.0,105.0
8666,78.0,0,288,1.0,105.0
8667,84.0,0,288,1.0,105.0
8668,38.0,0,288,8.0,105.0
8669,86.0,0,288,0.0,105.0
8670,72.0,0,288,3.0,105.0
8671,62.0,0,288,3.0,105.0
8672,78.0,0,144,4.0,116.0
8673,69.0,240,144,5.0,105.0
8674,70.0,0,240,5.0,105.0
8675,79.0,0,240,4.0,116.0
8676,55.0,0,288,7.0,105.0
8677,62.0,0,288,3.0,105.0
8678,82.0,240,288,1.0,105.0
8679,70.0,0,288,3.0,105.0
8680,62.0,0,768,6.0,105.0
8681,86.0,0,288,0.0,105.0
8682,43.0,0,288,8.0,105.0
8683,79.0,0,288,1.0,105.0
8684,55.0,0,288,2.0,105.0
8685,82.0,240,144,4.0,116.0
8686,74.0,0,144,5.0,105.0
8687,72.0,0,144,5.0,105.0
8688,81.0,0,144,4.0,116.0
8689,38.0,0,288,8.0,105.0
8690,50.0,0,288,7.0,105.0
8691,78.0,0,288,1.0,105.0
8692,62.0,0,288,3.0,105.0
8693,72.0,0,288,3.0,105.0
8694,84.0,0,288,1.0,105.0
8695,50.0,0,288,2.0,105.0
8696,86.0,0,288,0.0,105.0
8697,62.0,240,384,6.0,105.0
8698,69.0,0,144,5.0,105.0
8699,78.0,240,144,4.0,116.0
8700,79.0,0,192,4.0,116.0
8701,70.0,0,384,5.0,105.0
8702,74.0,240,192,4.0,116.0
8703,82.0,240,192,4.0,116.0
8704,82.0,0,192,5.0,105.0
8705,62.0,0,768,6.0,105.0
8706,55.0,0,768,2.0,105.0
8707,82.0,0,768,1.0,105.0
8708,79.0,0,768,1.0,105.0
8709,55.0,0,768,7.0,105.0
8710,43.0,0,768,8.0,105.0
8711,62.0,240,768,3.0,105.0
8712,86.0,0,768,0.0,105.0
8713,70.0,0,768,3.0,105.0
8714,81.0,240,192,5.0,105.0
8715,81.0,0,192,4.0,116.0
8716,79.0,240,192,5.0,105.0
8717,79.0,0,192,4.0,116.0
8718,77.0,0,192,4.0,116.0
8719,77.0,240,192,5.0,105.0
8720,75.0,240,192,4.0,116.0
8721,75.0,0,192,5.0,105.0
8722,74.0,0,192,5.0,105.0
8723,74.0,240,192,4.0,116.0
8724,72.0,0,240,4.0,116.0
8725,72.0,0,240,5.0,105.0
8726,75.0,0,288,1.0,105.0
8727,84.0,240,288,0.0,105.0
8728,67.0,0,288,6.0,105.0
8729,51.0,0,288,7.0,105.0
8730,51.0,0,288,2.0,105.0
8731,79.0,0,288,1.0,105.0
8732,67.0,0,288,3.0,105.0
8733,72.0,0,288,3.0,105.0
8734,39.0,0,288,8.0,105.0
8735,75.0,240,144,5.0,105.0
8736,75.0,0,144,4.0,116.0
8737,74.0,0,144,4.0,116.0
8738,74.0,0,144,5.0,105.0
8739,41.0,0,288,8.0,105.0
8740,53.0,0,288,7.0,105.0
8741,83.0,0,288,0.0,105.0
8742,53.0,240,288,2.0,105.0
8743,65.0,0,288,3.0,105.0
8744,68.0,0,288,6.0,105.0
8745,74.0,0,288,3.0,105.0
8746,80.0,0,288,1.0,105.0
8747,74.0,0,288,1.0,105.0
8748,71.0,240,144,5.0,105.0
8749,71.0,0,144,4.0,116.0
8750,72.0,0,240,4.0,116.0
8751,72.0,0,240,5.0,105.0
8752,72.0,0,288,3.0,105.0
8753,67.0,0,288,3.0,105.0
8754,75.0,0,288,1.0,105.0
8755,79.0,240,288,1.0,105.0
8756,51.0,0,288,2.0,105.0
8757,39.0,0,288,8.0,105.0
8758,67.0,0,288,6.0,105.0
8759,84.0,0,288,0.0,105.0
8760,51.0,0,288,7.0,105.0
8761,75.0,240,144,4.0,116.0
8762,75.0,0,144,5.0,105.0
8763,74.0,0,144,5.0,105.0
8764,74.0,0,144,4.0,116.0
8765,74.0,0,288,1.0,105.0
8766,80.0,0,288,1.0,105.0
8767,53.0,0,288,7.0,105.0
8768,41.0,0,288,8.0,105.0
8769,53.0,0,288,2.0,105.0
8770,65.0,0,288,3.0,105.0
8771,74.0,0,288,3.0,105.0
8772,68.0,0,288,6.0,105.0
8773,83.0,240,288,0.0,105.0
8774,71.0,240,144,5.0,105.0
8775,71.0,0,144,4.0,116.0
8776,72.0,0,192,4.0,116.0
8777,72.0,0,192,5.0,105.0
8778,67.0,0,192,5.0,105.0
8779,67.0,240,192,4.0,116.0
8780,75.0,0,192,4.0,116.0
8781,75.0,240,192,5.0,105.0
8782,51.0,0,768,2.0,105.0
8783,51.0,0,768,7.0,105.0
8784,84.0,240,768,0.0,105.0
8785,67.0,0,768,6.0,105.0
8786,39.0,0,768,8.0,105.0
8787,75.0,0,768,1.0,105.0
8788,79.0,0,768,1.0,105.0
8789,67.0,0,768,3.0,105.0
8790,72.0,0,768,3.0,105.0
8791,74.0,0,192,4.0,116.0
8792,74.0,240,192,5.0,105.0
8793,72.0,240,192,4.0,116.0
8794,72.0,0,192,5.0,105.0
8795,70.0,0,192,5.0,105.0
8796,70.0,240,192,4.0,116.0
8797,69.0,0,192,5.0,105.0
8798,69.0,240,192,4.0,116.0
8799,67.0,0,192,4.0,116.0
8800,67.0,240,192,5.0,105.0
8801,65.0,0,240,4.0,116.0
8802,65.0,0,240,5.0,105.0
8803,50.0,0,288,2.0,105.0
8804,50.0,0,288,7.0,105.0
8805,38.0,0,288,8.0,105.0
8806,89.0,0,288,0.0,105.0
8807,62.0,0,288,3.0,105.0
8808,65.0,0,288,3.0,105.0
8809,59.0,240,288,6.0,105.0
8810,83.0,0,288,1.0,105.0
8811,80.0,0,288,1.0,105.0
8812,68.0,240,144,4.0,116.0
8813,68.0,0,144,5.0,105.0
8814,67.0,0,144,5.0,105.0
8815,67.0,0,144,4.0,116.0
8816,84.0,0,288,1.0,105.0
8817,51.0,0,288,2.0,105.0
8818,87.0,0,288,0.0,105.0
8819,60.0,240,288,6.0,105.0
8820,39.0,0,288,8.0,105.0
8821,72.0,0,288,3.0,105.0
8822,79.0,0,288,1.0,105.0
8823,51.0,0,288,7.0,105.0
8824,63.0,240,144,5.0,105.0
8825,63.0,0,144,4.0,116.0
8826,65.0,0,240,4.0,116.0
8827,65.0,0,240,5.0,105.0
8828,50.0,0,288,7.0,105.0
8829,50.0,0,288,2.0,105.0
8830,59.0,0,288,6.0,105.0
8831,83.0,0,288,1.0,105.0
8832,80.0,0,288,1.0,105.0
8833,65.0,240,288,3.0,105.0
8834,62.0,0,288,3.0,105.0
8835,89.0,0,288,0.0,105.0
8836,38.0,0,288,8.0,105.0
8837,68.0,0,144,5.0,105.0
8838,68.0,240,144,4.0,116.0
8839,67.0,0,144,5.0,105.0
8840,67.0,0,144,4.0,116.0
8841,84.0,0,288,1.0,105.0
8842,79.0,0,288,1.0,105.0
8843,39.0,0,288,8.0,105.0
8844,51.0,0,288,7.0,105.0
8845,72.0,240,288,3.0,105.0
8846,87.0,0,288,0.0,105.0
8847,51.0,0,288,2.0,105.0
8848,60.0,0,288,6.0,105.0
8849,63.0,240,144,4.0,116.0
8850,63.0,0,144,5.0,105.0
8851,65.0,0,192,4.0,116.0
8852,65.0,0,192,5.0,105.0
8853,62.0,0,192,4.0,116.0
8854,62.0,240,192,5.0,105.0
8855,68.0,240,192,5.0,105.0
8856,68.0,0,192,4.0,116.0
8857,50.0,0,768,7.0,105.0
8858,38.0,0,768,8.0,105.0
8859,62.0,0,768,3.0,105.0
8860,65.0,0,768,3.0,105.0
8861,89.0,0,768,0.0,105.0
8862,59.0,0,768,6.0,105.0
8863,83.0,0,768,1.0,105.0
8864,80.0,0,768,1.0,105.0
8865,50.0,240,768,2.0,105.0
8866,67.0,240,192,5.0,105.0
8867,67.0,0,192,4.0,116.0
8868,65.0,0,192,4.0,116.0
8869,65.0,240,192,5.0,105.0
8870,63.0,240,192,4.0,116.0
8871,63.0,0,192,5.0,105.0
8872,62.0,0,192,4.0,116.0
8873,62.0,240,192,5.0,105.0
8874,60.0,0,192,5.0,105.0
8875,60.0,240,192,4.0,116.0
8876,59.0,0,240,4.0,116.0
8877,59.0,0,240,5.0,105.0
8878,86.0,0,288,0.0,105.0
8879,43.0,0,288,2.0,105.0
8880,83.0,0,288,1.0,105.0
8881,79.0,0,288,1.0,105.0
8882,31.0,240,288,8.0,105.0
8883,43.0,0,288,7.0,105.0
8884,50.0,0,288,6.0,105.0
8885,62.0,0,288,3.0,105.0
8886,67.0,0,288,3.0,105.0
8887,62.0,240,144,4.0,116.0
8888,62.0,0,144,5.0,105.0
8889,60.0,0,144,5.0,105.0
8890,60.0,0,144,4.0,116.0
8891,42.0,0,288,7.0,105.0
8892,62.0,0,288,3.0,105.0
8893,69.0,0,288,3.0,105.0
8894,84.0,0,288,1.0,105.0
8895,30.0,0,288,8.0,105.0
8896,86.0,0,288,0.0,105.0
8897,42.0,0,288,2.0,105.0
8898,81.0,240,288,1.0,105.0
8899,57.0,0,144,4.0,116.0
8900,57.0,240,144,5.0,105.0
8901,50.0,0,576,6.0,105.0
8902,59.0,0,240,4.0,116.0
8903,59.0,0,240,5.0,105.0
8904,43.0,0,288,2.0,105.0
8905,62.0,0,288,3.0,105.0
8906,67.0,0,288,3.0,105.0
8907,86.0,0,288,0.0,105.0
8908,43.0,0,288,7.0,105.0
8909,83.0,0,288,1.0,105.0
8910,79.0,0,288,1.0,105.0
8911,31.0,240,288,8.0,105.0
8912,62.0,240,144,4.0,116.0
8913,62.0,0,144,5.0,105.0
8914,60.0,0,144,4.0,116.0
8915,60.0,240,144,5.0,105.0
8916,30.0,0,288,8.0,105.0
8917,50.0,0,288,6.0,105.0
8918,81.0,0,288,1.0,105.0
8919,42.0,0,288,7.0,105.0
8920,84.0,0,288,1.0,105.0
8921,69.0,0,288,3.0,105.0
8922,42.0,0,288,2.0,105.0
8923,86.0,0,288,0.0,105.0
8924,62.0,0,288,3.0,105.0
8925,57.0,240,144,5.0,105.0
8926,57.0,0,144,4.0,116.0
8927,59.0,0,192,4.0,116.0
8928,59.0,0,192,5.0,105.0
8929,62.0,0,192,5.0,105.0
8930,62.0,240,192,4.0,116.0
8931,67.0,0,192,5.0,105.0
8932,67.0,240,192,4.0,116.0
8933,43.0,240,768,2.0,105.0
8934,67.0,0,768,3.0,105.0
8935,62.0,0,768,3.0,105.0
8936,31.0,0,768,8.0,105.0
8937,86.0,0,768,0.0,105.0
8938,43.0,0,768,7.0,105.0
8939,83.0,0,768,1.0,105.0
8940,79.0,0,768,1.0,105.0
8941,50.0,0,768,6.0,105.0
8942,71.0,240,192,4.0,116.0
8943,71.0,0,192,5.0,105.0
8944,74.0,240,192,5.0,105.0
8945,74.0,0,192,4.0,116.0
8946,71.0,240,192,5.0,105.0
8947,71.0,0,192,4.0,116.0
8948,67.0,240,192,4.0,116.0
8949,67.0,0,192,5.0,105.0
8950,65.0,240,192,4.0,116.0
8951,65.0,0,192,5.0,105.0
8952,60.0,0,240,7.0,105.0
8953,48.0,0,240,8.0,105.0
8954,63.0,0,240,6.0,105.0
8955,63.0,0,288,5.0,105.0
8956,87.0,0,288,0.0,105.0
8957,72.0,0,288,1.0,105.0
8958,75.0,0,288,1.0,105.0
8959,63.0,0,288,4.0,116.0
8960,72.0,0,288,3.0,105.0
8961,67.0,0,288,3.0,105.0
8962,63.0,0,288,2.0,105.0
8963,60.0,240,288,2.0,105.0
8964,51.0,0,144,8.0,105.0
8965,63.0,0,144,7.0,105.0
8966,67.0,240,144,6.0,105.0
8967,62.0,0,144,7.0,105.0
8968,65.0,0,144,6.0,105.0
8969,50.0,240,144,8.0,105.0
8970,79.0,0,288,4.0,116.0
8971,67.0,0,288,5.0,105.0
8972,67.0,0,288,3.0,105.0
8973,89.0,0,288,0.0,105.0
8974,77.0,0,288,1.0,105.0
8975,74.0,0,288,3.0,105.0
8976,74.0,0,288,1.0,105.0
8977,62.0,0,288,2.0,105.0
8978,65.0,0,288,2.0,105.0
8979,62.0,240,144,6.0,105.0
8980,47.0,0,144,8.0,105.0
8981,59.0,0,144,7.0,105.0
8982,48.0,0,240,8.0,105.0
8983,60.0,0,240,7.0,105.0
8984,63.0,0,240,6.0,105.0
8985,87.0,0,288,0.0,105.0
8986,79.0,0,288,4.0,116.0
8987,67.0,0,288,5.0,105.0
8988,60.0,0,288,2.0,105.0
8989,63.0,0,288,2.0,105.0
8990,67.0,0,288,3.0,105.0
8991,72.0,0,288,3.0,105.0
8992,75.0,0,288,1.0,105.0
8993,72.0,240,288,1.0,105.0
8994,63.0,0,144,7.0,105.0
8995,51.0,240,144,8.0,105.0
8996,67.0,0,144,6.0,105.0
8997,62.0,0,144,7.0,105.0
8998,50.0,0,144,8.0,105.0
8999,65.0,0,144,6.0,105.0
9000,67.0,0,288,5.0,105.0
9001,89.0,0,288,0.0,105.0
9002,65.0,240,288,2.0,105.0
9003,62.0,0,288,2.0,105.0
9004,79.0,0,288,4.0,116.0
9005,74.0,0,288,1.0,105.0
9006,77.0,0,288,1.0,105.0
9007,74.0,0,288,3.0,105.0
9008,67.0,0,288,3.0,105.0
9009,62.0,240,144,6.0,105.0
9010,59.0,0,144,7.0,105.0
9011,47.0,0,144,8.0,105.0
9012,60.0,0,192,7.0,105.0
9013,63.0,0,192,6.0,105.0
9014,48.0,0,192,8.0,105.0
9015,63.0,0,192,7.0,105.0
9016,60.0,240,192,6.0,105.0
9017,51.0,0,192,8.0,105.0
9018,55.0,0,192,8.0,105.0
9019,63.0,0,192,6.0,105.0
9020,67.0,240,192,7.0,105.0
9021,87.0,0,768,0.0,105.0
9022,67.0,0,768,3.0,105.0
9023,72.0,0,768,3.0,105.0
9024,67.0,240,768,5.0,105.0
9025,60.0,0,768,2.0,105.0
9026,72.0,0,768,1.0,105.0
9027,75.0,0,768,1.0,105.0
9028,79.0,0,768,4.0,116.0
9029,63.0,0,768,2.0,105.0
9030,53.0,0,192,8.0,105.0
9031,65.0,240,192,6.0,105.0
9032,65.0,0,192,7.0,105.0
9033,51.0,240,192,8.0,105.0
9034,67.0,0,192,6.0,105.0
9035,63.0,0,192,7.0,105.0
9036,50.0,0,192,8.0,105.0
9037,62.0,0,192,7.0,105.0
9038,65.0,240,192,6.0,105.0
9039,63.0,0,192,6.0,105.0
9040,48.0,240,192,8.0,105.0
9041,60.0,0,192,7.0,105.0
9042,62.0,240,192,6.0,105.0
9043,58.0,0,192,7.0,105.0
9044,46.0,0,192,8.0,105.0
9045,57.0,0,240,7.0,105.0
9046,45.0,0,240,8.0,105.0
9047,60.0,0,240,6.0,105.0
9048,60.0,0,288,2.0,105.0
9049,63.0,0,288,1.0,105.0
9050,87.0,0,288,0.0,105.0
9051,69.0,0,288,3.0,105.0
9052,78.0,0,288,4.0,116.0
9053,66.0,0,288,5.0,105.0
9054,72.0,240,288,3.0,105.0
9055,75.0,0,288,1.0,105.0
9056,60.0,240,144,7.0,105.0
9057,63.0,0,144,6.0,105.0
9058,48.0,0,144,8.0,105.0
9059,46.0,0,144,8.0,105.0
9060,62.0,0,144,6.0,105.0
9061,58.0,0,144,7.0,105.0
9062,63.0,0,288,1.0,105.0
9063,70.0,0,288,3.0,105.0
9064,87.0,0,288,0.0,105.0
9065,75.0,0,288,1.0,105.0
9066,62.0,240,288,2.0,105.0
9067,67.0,0,288,5.0,105.0
9068,79.0,0,288,4.0,116.0
9069,48.0,0,144,8.0,105.0
9070,60.0,0,144,7.0,105.0
9071,63.0,240,144,6.0,105.0
9072,57.0,0,240,7.0,105.0
9073,45.0,0,240,8.0,105.0
9074,60.0,0,240,6.0,105.0
9075,60.0,0,288,2.0,105.0
9076,63.0,0,288,1.0,105.0
9077,75.0,0,288,1.0,105.0
9078,78.0,0,288,4.0,116.0
9079,72.0,0,288,3.0,105.0
9080,87.0,240,288,0.0,105.0
9081,66.0,0,288,5.0,105.0
9082,69.0,0,288,3.0,105.0
9083,60.0,0,144,7.0,105.0
9084,48.0,240,144,8.0,105.0
9085,63.0,0,144,6.0,105.0
9086,46.0,0,144,8.0,105.0
9087,58.0,0,144,7.0,105.0
9088,62.0,0,144,6.0,105.0
9089,87.0,0,288,0.0,105.0
9090,63.0,0,288,1.0,105.0
9091,62.0,0,288,2.0,105.0
9092,75.0,0,288,1.0,105.0
9093,67.0,0,288,5.0,105.0
9094,79.0,0,288,4.0,116.0
9095,70.0,240,288,3.0,105.0
9096,48.0,0,144,8.0,105.0
9097,60.0,240,144,7.0,105.0
9098,63.0,0,144,6.0,105.0
9099,57.0,0,192,7.0,105.0
9100,45.0,0,192,8.0,105.0
9101,60.0,0,192,6.0,105.0
9102,57.0,0,192,6.0,105.0
9103,48.0,240,192,8.0,105.0
9104,60.0,0,192,7.0,105.0
9105,63.0,0,192,7.0,105.0
9106,60.0,240,192,6.0,105.0
9107,51.0,0,192,8.0,105.0
9108,75.0,0,768,1.0,105.0
9109,87.0,0,768,0.0,105.0
9110,66.0,240,768,5.0,105.0
9111,63.0,0,768,1.0,105.0
9112,78.0,0,768,4.0,116.0
9113,69.0,0,768,3.0,105.0
9114,72.0,0,768,3.0,105.0
9115,60.0,0,768,2.0,105.0
9116,50.0,0,192,8.0,105.0
9117,62.0,0,192,7.0,105.0
9118,62.0,240,192,6.0,105.0
9119,48.0,0,192,8.0,105.0
9120,60.0,0,192,7.0,105.0
9121,63.0,240,192,6.0,105.0
9122,46.0,240,192,8.0,105.0
9123,62.0,0,192,6.0,105.0
9124,58.0,0,192,7.0,105.0
9125,45.0,0,192,8.0,105.0
9126,57.0,240,192,7.0,105.0
9127,60.0,0,192,6.0,105.0
9128,58.0,0,192,6.0,105.0
9129,55.0,240,192,7.0,105.0
9130,43.0,0,192,8.0,105.0
9131,54.0,0,240,7.0,105.0
9132,57.0,0,240,6.0,105.0
9133,42.0,0,240,8.0,105.0
9134,84.0,240,288,4.0,116.0
9135,74.0,0,288,4.0,116.0
9136,86.0,0,288,0.0,105.0
9137,72.0,0,288,3.0,105.0
9138,57.0,0,288,2.0,105.0
9139,62.0,0,288,3.0,105.0
9140,62.0,0,288,5.0,105.0
9141,72.0,0,288,5.0,105.0
9142,74.0,0,288,1.0,105.0
9143,84.0,0,288,1.0,105.0
9144,60.0,0,144,6.0,105.0
9145,57.0,0,144,7.0,105.0
9146,45.0,240,144,8.0,105.0
9147,55.0,0,144,7.0,105.0
9148,43.0,240,144,8.0,105.0
9149,58.0,0,144,6.0,105.0
9150,84.0,0,288,4.0,116.0
9151,75.0,0,288,4.0,116.0
9152,58.0,0,288,2.0,105.0
9153,72.0,0,288,3.0,105.0
9154,63.0,0,288,5.0,105.0
9155,75.0,0,288,1.0,105.0
9156,84.0,0,288,1.0,105.0
9157,72.0,0,288,5.0,105.0
9158,87.0,0,288,0.0,105.0
9159,45.0,0,144,8.0,105.0
9160,57.0,0,144,7.0,105.0
9161,60.0,240,144,6.0,105.0
9162,54.0,0,240,7.0,105.0
9163,42.0,0,240,8.0,105.0
9164,57.0,0,240,6.0,105.0
9165,62.0,0,288,3.0,105.0
9166,72.0,0,288,3.0,105.0
9167,84.0,0,288,1.0,105.0
9168,74.0,0,288,1.0,105.0
9169,84.0,0,288,4.0,116.0
9170,74.0,0,288,4.0,116.0
9171,86.0,0,288,0.0,105.0
9172,62.0,0,288,5.0,105.0
9173,72.0,240,288,5.0,105.0
9174,57.0,0,288,2.0,105.0
9175,45.0,240,144,8.0,105.0
9176,57.0,0,144,7.0,105.0
9177,60.0,0,144,6.0,105.0
9178,43.0,0,144,8.0,105.0
9179,55.0,0,144,7.0,105.0
9180,58.0,0,144,6.0,105.0
9181,87.0,0,288,0.0,105.0
9182,75.0,0,288,1.0,105.0
9183,84.0,0,288,1.0,105.0
9184,58.0,0,288,2.0,105.0
9185,75.0,240,288,4.0,116.0
9186,84.0,0,288,4.0,116.0
9187,63.0,0,288,5.0,105.0
9188,72.0,0,288,5.0,105.0
9189,72.0,0,288,3.0,105.0
9190,57.0,240,144,7.0,105.0
9191,60.0,0,144,6.0,105.0
9192,45.0,0,144,8.0,105.0
9193,42.0,0,192,8.0,105.0
9194,54.0,0,192,7.0,105.0
9195,57.0,0,192,6.0,105.0
9196,43.0,240,192,8.0,105.0
9197,55.0,0,192,7.0,105.0
9198,58.0,0,192,6.0,105.0
9199,57.0,0,192,7.0,105.0
9200,45.0,240,192,8.0,105.0
9201,60.0,0,192,6.0,105.0
9202,74.0,240,768,1.0,105.0
9203,84.0,0,768,1.0,105.0
9204,72.0,0,768,5.0,105.0
9205,84.0,0,768,4.0,116.0
9206,72.0,0,768,3.0,105.0
9207,62.0,0,768,3.0,105.0
9208,57.0,0,768,2.0,105.0
9209,74.0,0,768,4.0,116.0
9210,86.0,0,768,0.0,105.0
9211,62.0,0,768,5.0,105.0
9212,58.0,0,192,6.0,105.0
9213,43.0,240,192,8.0,105.0
9214,55.0,0,192,7.0,105.0
9215,57.0,240,192,6.0,105.0
9216,42.0,0,192,8.0,105.0
9217,54.0,0,192,7.0,105.0
9218,38.0,0,192,8.0,105.0
9219,50.0,240,192,7.0,105.0
9220,54.0,0,192,6.0,105.0
9221,55.0,0,192,6.0,105.0
9222,52.0,0,192,7.0,105.0
9223,40.0,240,192,8.0,105.0
9224,54.0,240,192,7.0,105.0
9225,42.0,0,192,8.0,105.0
9226,57.0,0,192,6.0,105.0
9227,82.0,0,240,4.0,116.0
9228,70.0,0,240,5.0,105.0
9229,43.0,240,288,8.0,105.0
9230,67.0,0,288,3.0,105.0
9231,74.0,0,288,3.0,105.0
9232,55.0,0,288,2.0,105.0
9233,86.0,0,288,0.0,105.0
9234,74.0,0,288,1.0,105.0
9235,55.0,0,288,7.0,105.0
9236,84.0,0,144,4.0,116.0
9237,50.0,0,384,6.0,105.0
9238,72.0,240,144,5.0,105.0
9239,69.0,240,144,5.0,105.0
9240,81.0,0,144,4.0,116.0
9241,54.0,0,288,7.0,105.0
9242,54.0,0,288,2.0,105.0
9243,74.0,0,288,1.0,105.0
9244,86.0,0,288,0.0,105.0
9245,42.0,0,288,8.0,105.0
9246,62.0,0,288,3.0,105.0
9247,74.0,0,288,3.0,105.0
9248,72.0,240,144,5.0,105.0
9249,84.0,0,144,4.0,116.0
9250,70.0,0,240,5.0,105.0
9251,82.0,0,240,4.0,116.0
9252,67.0,0,288,3.0,105.0
9253,74.0,240,288,3.0,105.0
9254,43.0,0,288,8.0,105.0
9255,62.0,0,768,6.0,105.0
9256,55.0,0,288,7.0,105.0
9257,55.0,0,288,2.0,105.0
9258,74.0,0,288,1.0,105.0
9259,86.0,0,288,0.0,105.0
9260,72.0,0,144,5.0,105.0
9261,84.0,240,144,4.0,116.0
9262,69.0,0,144,5.0,105.0
9263,81.0,0,144,4.0,116.0
9264,74.0,0,288,1.0,105.0
9265,86.0,0,288,0.0,105.0
9266,62.0,240,288,3.0,105.0
9267,74.0,0,288,3.0,105.0
9268,54.0,0,288,7.0,105.0
9269,42.0,0,288,8.0,105.0
9270,54.0,0,288,2.0,105.0
9271,84.0,0,144,4.0,116.0
9272,72.0,240,144,5.0,105.0
9273,62.0,0,384,6.0,105.0
9274,70.0,0,192,5.0,105.0
9275,82.0,0,192,4.0,116.0
9276,72.0,0,192,5.0,105.0
9277,84.0,240,192,4.0,116.0
9278,74.0,240,192,5.0,105.0
9279,86.0,0,192,4.0,116.0
9280,74.0,0,768,3.0,105.0
9281,67.0,0,768,3.0,105.0
9282,86.0,0,768,0.0,105.0
9283,43.0,0,768,8.0,105.0
9284,55.0,0,768,2.0,105.0
9285,74.0,0,768,1.0,105.0
9286,62.0,240,768,6.0,105.0
9287,55.0,0,768,7.0,105.0
9288,72.0,240,192,5.0,105.0
9289,84.0,0,192,4.0,116.0
9290,82.0,240,192,4.0,116.0
9291,70.0,0,192,5.0,105.0
9292,69.0,0,192,5.0,105.0
9293,81.0,240,192,4.0,116.0
9294,67.0,0,192,5.0,105.0
9295,79.0,0,192,4.0,116.0
9296,50.0,0,288,8.0,105.0
9297,62.0,0,288,7.0,105.0
9298,62.0,240,288,2.0,105.0
9299,78.0,240,192,4.0,116.0
9300,66.0,0,192,5.0,105.0
9301,67.0,0,240,5.0,105.0
9302,79.0,0,240,4.0,116.0
9303,63.0,0,288,7.0,105.0
9304,63.0,0,288,2.0,105.0
9305,70.0,0,288,1.0,105.0
9306,82.0,0,288,0.0,105.0
9307,67.0,0,288,3.0,105.0
9308,70.0,0,288,3.0,105.0
9309,51.0,240,288,8.0,105.0
9310,58.0,0,384,6.0,105.0
9311,81.0,0,144,4.0,116.0
9312,69.0,240,144,5.0,105.0
9313,66.0,0,144,5.0,105.0
9314,78.0,0,144,4.0,116.0
9315,58.0,240,288,3.0,105.0
9316,50.0,0,288,8.0,105.0
9317,62.0,0,288,2.0,105.0
9318,82.0,0,288,0.0,105.0
9319,70.0,0,288,1.0,105.0
9320,62.0,0,288,7.0,105.0
9321,69.0,240,144,5.0,105.0
9322,81.0,0,144,4.0,116.0
9323,67.0,0,240,5.0,105.0
9324,79.0,0,240,4.0,116.0
9325,63.0,0,288,2.0,105.0
9326,58.0,0,768,6.0,105.0
9327,67.0,0,288,3.0,105.0
9328,51.0,240,288,8.0,105.0
9329,63.0,0,288,7.0,105.0
9330,82.0,0,288,0.0,105.0
9331,70.0,0,288,1.0,105.0
9332,70.0,0,288,3.0,105.0
9333,81.0,0,144,4.0,116.0
9334,69.0,240,144,5.0,105.0
9335,66.0,0,144,5.0,105.0
9336,78.0,0,144,4.0,116.0
9337,82.0,0,288,0.0,105.0
9338,58.0,0,288,3.0,105.0
9339,50.0,240,288,8.0,105.0
9340,62.0,0,288,2.0,105.0
9341,70.0,0,288,1.0,105.0
9342,62.0,0,288,7.0,105.0
9343,81.0,0,144,4.0,116.0
9344,58.0,0,384,6.0,105.0
9345,69.0,240,144,5.0,105.0
9346,79.0,240,192,4.0,116.0
9347,67.0,0,192,5.0,105.0
9348,69.0,0,192,5.0,105.0
9349,81.0,240,192,4.0,116.0
9350,70.0,240,192,5.0,105.0
9351,82.0,0,192,4.0,116.0
9352,63.0,0,768,7.0,105.0
9353,63.0,0,768,2.0,105.0
9354,74.0,0,768,1.0,105.0
9355,58.0,0,768,6.0,105.0
9356,82.0,0,768,0.0,105.0
9357,51.0,0,768,8.0,105.0
9358,67.0,0,768,3.0,105.0
9359,70.0,0,768,3.0,105.0
9360,81.0,0,192,4.0,116.0
9361,69.0,240,192,5.0,105.0
9362,79.0,240,192,4.0,116.0
9363,67.0,0,192,5.0,105.0
9364,77.0,240,192,4.0,116.0
9365,65.0,0,192,5.0,105.0
9366,63.0,0,192,5.0,105.0
9367,75.0,0,192,4.0,116.0
9368,67.0,0,288,3.0,105.0
9369,55.0,240,288,6.0,105.0
9370,47.0,0,288,8.0,105.0
9371,59.0,0,288,7.0,105.0
9372,59.0,0,288,2.0,105.0
9373,74.0,0,192,4.0,116.0
9374,62.0,240,192,5.0,105.0
9375,63.0,0,192,5.0,105.0
9376,75.0,0,192,4.0,116.0
9377,65.0,0,192,5.0,105.0
9378,77.0,240,192,4.0,116.0
9379,79.0,0,192,4.0,116.0
9380,67.0,240,192,5.0,105.0
9381,60.0,0,768,2.0,105.0
9382,55.0,0,768,6.0,105.0
9383,67.0,0,768,3.0,105.0
9384,48.0,240,768,8.0,105.0
9385,60.0,0,768,7.0,105.0
9386,77.0,240,192,4.0,116.0
9387,65.0,0,192,5.0,105.0
9388,63.0,0,192,5.0,105.0
9389,75.0,240,192,4.0,116.0
9390,62.0,0,192,5.0,105.0
9391,74.0,240,192,4.0,116.0
9392,72.0,0,192,4.0,116.0
9393,60.0,0,192,5.0,105.0
9394,62.0,0,288,6.0,105.0
9395,55.0,0,288,3.0,105.0
9396,55.0,0,288,2.0,105.0
9397,55.0,240,288,7.0,105.0
9398,41.0,0,288,8.0,105.0
9399,71.0,240,192,4.0,116.0
9400,59.0,0,192,5.0,105.0
9401,60.0,0,192,5.0,105.0
9402,72.0,0,192,4.0,116.0
9403,62.0,240,192,5.0,105.0
9404,74.0,0,192,4.0,116.0
9405,75.0,0,192,4.0,116.0
9406,63.0,240,192,5.0,105.0
9407,55.0,0,768,3.0,105.0
9408,67.0,0,768,6.0,105.0
9409,51.0,0,768,7.0,105.0
9410,51.0,240,768,2.0,105.0
9411,39.0,0,768,8.0,105.0
9412,62.0,240,192,5.0,105.0
9413,74.0,0,192,4.0,116.0
9414,72.0,240,192,4.0,116.0
9415,60.0,0,192,5.0,105.0
9416,58.0,0,192,5.0,105.0
9417,70.0,240,192,4.0,116.0
9418,69.0,240,192,4.0,116.0
9419,57.0,0,192,5.0,105.0
9420,69.0,0,288,3.0,105.0
9421,64.0,0,384,6.0,105.0
9422,49.0,0,384,2.0,105.0
9423,49.0,0,384,7.0,105.0
9424,37.0,0,384,8.0,105.0
9425,67.0,0,192,4.0,116.0
9426,55.0,240,192,5.0,105.0
9427,62.0,0,192,5.0,105.0
9428,66.0,240,192,4.0,116.0
9429,50.0,0,384,2.0,105.0
9430,38.0,0,384,8.0,105.0
9431,50.0,0,384,7.0,105.0
9432,57.0,0,384,6.0,105.0
9433,66.0,240,192,5.0,105.0
9434,69.0,0,192,4.0,116.0
9435,74.0,0,192,5.0,105.0
9436,74.0,240,192,4.0,116.0
9437,69.0,0,768,3.0,105.0
9438,62.0,0,384,2.0,105.0
9439,50.0,0,384,8.0,105.0
9440,62.0,0,384,7.0,105.0
9441,62.0,0,384,6.0,105.0
9442,50.0,0,384,2.0,105.0
9443,78.0,0,192,4.0,116.0
9444,78.0,240,192,5.0,105.0
9445,81.0,0,192,4.0,105.0
9446,81.0,0,192,5.0,105.0
9447,62.0,0,384,7.0,105.0
9448,62.0,0,384,2.0,105.0
9449,50.0,0,384,2.0,105.0
9450,62.0,0,384,6.0,105.0
9451,50.0,240,384,8.0,105.0
9452,81.0,240,192,4.0,105.0
9453,81.0,0,192,5.0,105.0
9454,81.0,0,1536,0.0,105.0
9455,78.0,0,1536,1.0,105.0
9456,74.0,0,1536,1.0,105.0
9457,81.0,0,192,4.0,105.0
9458,81.0,0,192,5.0,105.0
9459,62.0,0,1728,3.0,105.0
9460,62.0,0,384,6.0,105.0
9461,50.0,0,384,2.0,105.0
9462,62.0,0,384,2.0,105.0
9463,62.0,0,384,7.0,105.0
9464,50.0,240,384,8.0,105.0
9465,81.0,0,192,5.0,105.0
9466,81.0,240,192,4.0,105.0
9467,64.0,0,192,5.0,105.0
9468,64.0,0,192,4.0,105.0
9469,62.0,240,384,7.0,105.0
9470,50.0,0,384,8.0,105.0
9471,62.0,0,384,2.0,105.0
9472,50.0,0,384,2.0,105.0
9473,62.0,0,384,6.0,105.0
9474,67.0,0,192,4.0,105.0
9475,67.0,240,192,5.0,105.0
9476,73.0,0,192,5.0,105.0
9477,73.0,0,192,4.0,105.0
9478,62.0,0,768,3.0,105.0
9479,62.0,0,384,7.0,105.0
9480,62.0,240,384,6.0,105.0
9481,62.0,0,384,2.0,105.0
9482,50.0,0,384,8.0,105.0
9483,50.0,0,384,2.0,105.0
9484,76.0,240,192,4.0,105.0
9485,76.0,0,192,5.0,105.0
9486,79.0,0,192,5.0,105.0
9487,79.0,0,192,4.0,105.0
9488,62.0,0,384,6.0,105.0
9489,62.0,0,384,2.0,105.0
9490,50.0,0,384,2.0,105.0
9491,62.0,0,384,7.0,105.0
9492,50.0,240,384,8.0,105.0
9493,79.0,0,192,4.0,105.0
9494,79.0,240,192,5.0,105.0
9495,79.0,0,1536,1.0,105.0
9496,76.0,0,1536,1.0,105.0
9497,85.0,0,1536,0.0,105.0
9498,79.0,0,192,4.0,105.0
9499,79.0,0,192,5.0,105.0
9500,62.0,0,768,3.0,105.0
9501,50.0,0,384,2.0,105.0
9502,62.0,0,384,2.0,105.0
9503,50.0,240,384,8.0,105.0
9504,62.0,0,384,6.0,105.0
9505,62.0,0,384,7.0,105.0
9506,79.0,240,192,5.0,105.0
9507,79.0,0,192,4.0,105.0
9508,66.0,0,192,5.0,105.0
9509,66.0,0,192,4.0,105.0
9510,62.0,0,384,2.0,105.0
9511,62.0,0,384,7.0,105.0
9512,50.0,0,384,2.0,105.0
9513,50.0,240,384,8.0,105.0
9514,62.0,0,384,6.0,105.0
9515,69.0,240,192,5.0,105.0
9516,69.0,0,192,4.0,105.0
9517,74.0,0,192,4.0,105.0
9518,74.0,0,192,5.0,105.0
9519,50.0,0,768,3.0,105.0
9520,62.0,0,768,3.0,105.0
9521,38.0,240,384,2.0,105.0
9522,62.0,0,384,6.0,105.0
9523,50.0,0,384,2.0,105.0
9524,50.0,0,384,8.0,105.0
9525,62.0,0,384,7.0,105.0
9526,78.0,0,192,4.0,105.0
9527,78.0,240,192,5.0,105.0
9528,81.0,0,192,4.0,105.0
9529,81.0,0,192,5.0,105.0
9530,38.0,0,384,2.0,105.0
9531,62.0,0,384,3.0,105.0
9532,62.0,0,384,7.0,105.0
9533,62.0,0,384,6.0,105.0
9534,50.0,0,384,8.0,105.0
9535,50.0,240,384,2.0,105.0
9536,50.0,0,384,3.0,105.0
9537,81.0,0,192,5.0,105.0
9538,81.0,240,192,4.0,105.0
9539,86.0,0,1536,0.0,105.0
9540,78.0,0,1536,1.0,105.0
9541,81.0,0,1536,1.0,105.0
9542,81.0,240,192,5.0,105.0
9543,81.0,0,192,4.0,105.0
9544,62.0,0,384,6.0,105.0
9545,50.0,0,384,2.0,105.0
9546,62.0,0,384,7.0,105.0
9547,62.0,0,384,3.0,105.0
9548,38.0,0,384,2.0,105.0
9549,50.0,0,384,3.0,105.0
9550,50.0,0,384,8.0,105.0
9551,81.0,0,192,4.0,105.0
9552,81.0,240,192,5.0,105.0
9553,69.0,240,192,4.0,105.0
9554,69.0,0,192,5.0,105.0
9555,62.0,0,384,3.0,105.0
9556,50.0,0,384,3.0,105.0
9557,62.0,0,384,6.0,105.0
9558,50.0,0,384,2.0,105.0
9559,62.0,0,384,7.0,105.0
9560,50.0,0,384,8.0,105.0
9561,38.0,0,384,2.0,105.0
9562,73.0,240,192,5.0,105.0
9563,73.0,0,192,4.0,105.0
9564,76.0,240,192,4.0,105.0
9565,76.0,0,192,5.0,105.0
9566,38.0,0,384,2.0,105.0
9567,50.0,0,384,2.0,105.0
9568,62.0,0,384,7.0,105.0
9569,50.0,0,384,3.0,105.0
9570,62.0,0,384,3.0,105.0
9571,62.0,0,384,6.0,105.0
9572,50.0,0,384,8.0,105.0
9573,79.0,0,192,4.0,105.0
9574,79.0,240,192,5.0,105.0
9575,85.0,0,192,5.0,105.0
9576,85.0,0,192,4.0,105.0
9577,62.0,0,384,3.0,105.0
9578,62.0,0,384,7.0,105.0
9579,50.0,0,384,2.0,105.0
9580,50.0,0,384,8.0,105.0
9581,38.0,240,384,2.0,105.0
9582,62.0,0,384,6.0,105.0
9583,50.0,0,384,3.0,105.0
9584,85.0,240,192,5.0,105.0
9585,85.0,0,192,4.0,105.0
9586,91.0,0,1536,0.0,105.0
9587,76.0,0,1536,1.0,105.0
9588,85.0,0,1536,1.0,105.0
9589,85.0,240,192,4.0,105.0
9590,85.0,0,192,5.0,105.0
9591,62.0,0,384,7.0,105.0
9592,38.0,0,384,2.0,105.0
9593,50.0,0,384,8.0,105.0
9594,62.0,0,384,6.0,105.0
9595,62.0,0,384,3.0,105.0
9596,50.0,0,384,3.0,105.0
9597,50.0,0,384,2.0,105.0
9598,85.0,240,192,4.0,105.0
9599,85.0,0,192,5.0,105.0
9600,50.0,0,384,8.0,105.0
9601,86.0,0,384,1.0,105.0
9602,74.0,0,384,1.0,105.0
9603,90.0,0,384,0.0,105.0
9604,50.0,0,384,3.0,105.0
9605,62.0,0,384,3.0,105.0
9606,62.0,0,384,6.0,105.0
9607,86.0,0,384,4.0,105.0
9608,50.0,0,384,2.0,105.0
9609,38.0,0,384,2.0,105.0
9610,62.0,240,384,7.0,105.0
9611,86.0,0,384,5.0,105.0
9612,62.0,0,384,7.0,105.0
9613,62.0,0,384,5.0,105.0
9614,50.0,0,384,8.0,105.0
9615,62.0,0,384,6.0,105.0
9616,69.0,960,384,5.0,105.0
9617,90.0,0,384,0.0,105.0
9618,50.0,0,384,3.0,105.0
9619,86.0,0,384,5.0,105.0
9620,62.0,0,384,2.0,105.0
9621,78.0,0,384,1.0,105.0
9622,81.0,0,384,1.0,105.0
9623,62.0,0,384,4.0,105.0
9624,69.0,0,384,4.0,105.0
9625,86.0,0,384,4.0,105.0
9626,50.0,0,384,2.0,105.0
9627,62.0,0,384,3.0,105.0
9628,38.0,0,768,2.0,105.0
9629,50.0,0,768,2.0,105.0
9630,66.0,0,768,1.0,105.0
9631,69.0,0,768,1.0,105.0
9632,62.0,960,768,5.0,105.0
9633,38.0,0,768,8.0,105.0
9634,62.0,0,768,4.0,105.0
9635,74.0,0,768,0.0,105.0
9636,50.0,0,768,3.0,105.0
9637,62.0,0,768,3.0,105.0
9638,50.0,0,768,7.0,105.0
9639,50.0,0,768,6.0,105.0
9640,74.0,1440,360,4.0,70.0
9641,70.0,0,384,5.0,58.0
9642,67.0,480,384,6.0,58.0
9643,70.0,480,384,5.0,58.0
9644,67.0,0,384,6.0,58.0
9645,70.0,0,384,5.0,58.0
9646,67.0,480,384,6.0,58.0
9647,74.0,0,1536,4.0,70.0
9648,67.0,0,384,6.0,58.0
9649,70.0,480,384,5.0,58.0
9650,73.0,480,120,4.0,70.0
9651,69.0,0,384,5.0,58.0
9652,65.0,0,384,6.0,58.0
9653,74.0,120,672,4.0,70.0
9654,65.0,0,384,6.0,58.0
9655,69.0,360,384,5.0,58.0
9656,73.0,480,120,4.0,70.0
9657,69.0,0,384,5.0,58.0
9658,65.0,0,384,6.0,58.0
9659,74.0,120,672,4.0,70.0
9660,65.0,360,384,6.0,58.0
9661,69.0,0,384,5.0,58.0
9662,63.0,0,384,6.0,58.0
9663,79.0,0,720,4.0,92.0
9664,63.0,480,384,6.0,58.0
9665,75.0,240,192,4.0,80.0
9666,63.0,240,384,6.0,58.0
9667,63.0,480,384,6.0,58.0
9668,62.0,480,384,6.0,58.0
9669,72.0,0,1728,4.0,70.0
9670,62.0,480,384,6.0,58.0
9671,62.0,480,384,6.0,58.0
9672,62.0,480,384,6.0,58.0
9673,67.0,480,3744,5.0,70.0
9674,70.0,0,1680,4.0,70.0
9675,69.0,720,240,4.0,70.0
9676,72.0,240,720,4.0,70.0
9677,70.0,720,192,4.0,70.0
9678,63.0,0,2304,5.0,58.0
9679,60.0,480,2304,6.0,58.0
9680,74.0,240,720,4.0,70.0
9681,72.0,720,240,4.0,70.0
9682,70.0,240,720,4.0,70.0
9683,69.0,720,192,4.0,70.0
9684,50.0,0,384,6.0,58.0
9685,50.0,480,384,6.0,58.0
9686,50.0,480,384,6.0,58.0
9687,58.0,0,1440,5.0,58.0
9688,67.0,240,1440,4.0,70.0
9689,60.0,480,240,5.0,58.0
9690,69.0,0,240,4.0,70.0
9691,50.0,0,384,6.0,58.0
9692,67.0,240,192,4.0,70.0
9693,58.0,0,240,5.0,58.0
9694,66.0,0,240,4.0,70.0
9695,57.0,240,384,5.0,58.0
9696,50.0,0,384,6.0,58.0
9697,67.0,240,240,4.0,70.0
9698,68.0,240,240,4.0,70.0
9699,69.0,240,240,4.0,70.0
9700,70.0,240,240,4.0,70.0
9701,71.0,240,240,4.0,70.0
9702,72.0,240,240,4.0,70.0
9703,73.0,240,192,4.0,70.0
9704,58.0,240,384,5.0,58.0
9705,55.0,0,384,6.0,58.0
9706,55.0,480,384,6.0,58.0
9707,58.0,0,384,5.0,58.0
9708,67.0,480,384,6.0,58.0
9709,70.0,0,384,5.0,58.0
9710,70.0,0,384,5.0,58.0
9711,67.0,480,384,6.0,58.0
9712,74.0,0,2304,4.0,70.0
9713,66.0,480,384,6.0,58.0
9714,69.0,0,384,5.0,58.0
9715,66.0,0,384,6.0,58.0
9716,69.0,0,384,5.0,58.0
9717,74.0,480,768,4.0,70.0
9718,68.0,480,384,5.0,58.0
9719,65.0,0,384,6.0,58.0
9720,68.0,0,384,5.0,58.0
9721,65.0,0,384,6.0,58.0
9722,74.0,480,864,4.0,70.0
9723,73.0,480,480,4.0,70.0
9724,79.0,480,480,4.0,70.0
9725,72.0,480,480,4.0,70.0
9726,64.0,0,1920,6.0,58.0
9727,79.0,0,480,4.0,70.0
9728,63.0,480,960,6.0,58.0
9729,71.0,480,480,4.0,70.0
9730,79.0,0,480,4.0,70.0
9731,62.0,480,768,6.0,58.0
9732,70.0,480,864,4.0,70.0
9733,67.0,480,4224,5.0,58.0
9734,60.0,480,384,6.0,58.0
9735,69.0,480,480,4.0,70.0
9736,72.0,480,480,4.0,70.0
9737,75.0,480,384,4.0,70.0
9738,58.0,0,1440,5.0,58.0
9739,67.0,0,1440,4.0,70.0
9740,70.0,1440,240,4.0,70.0
9741,62.0,0,240,5.0,58.0
9742,50.0,480,1824,6.0,58.0
9743,60.0,0,192,5.0,58.0
9744,69.0,240,192,4.0,70.0
9745,55.0,0,384,6.0,58.0
9746,58.0,240,384,5.0,58.0
9747,67.0,0,384,4.0,58.0
9748,66.0,480,480,1.0,80.0
9749,67.0,480,480,1.0,80.0
9750,66.0,0,480,1.0,80.0
9751,69.0,480,480,1.0,80.0
9752,70.0,480,480,1.0,80.0
9753,71.0,480,480,1.0,80.0
9754,65.0,0,480,2.0,70.0
9755,64.0,0,480,2.0,70.0
9756,72.0,480,480,1.0,80.0
9757,67.0,0,1920,1.0,80.0
9758,73.0,480,480,1.0,80.0
9759,63.0,0,480,2.0,70.0
9760,57.0,0,480,2.0,70.0
9761,55.0,0,384,3.0,70.0
9762,58.0,0,768,2.0,70.0
9763,62.0,0,768,2.0,70.0
9764,55.0,480,384,3.0,70.0
9765,55.0,480,384,3.0,70.0
9766,55.0,480,384,3.0,70.0
9767,55.0,0,960,2.0,70.0
9768,67.0,0,960,2.0,70.0
9769,55.0,0,384,3.0,70.0
9770,86.0,480,2688,0.0,70.0
9771,74.0,0,2688,1.0,80.0
9772,55.0,480,384,3.0,70.0
9773,66.0,0,960,2.0,70.0
9774,57.0,480,960,2.0,70.0
9775,55.0,0,384,3.0,70.0
9776,55.0,480,384,3.0,70.0
9777,59.0,0,960,2.0,70.0
9778,65.0,0,960,2.0,70.0
9779,55.0,0,384,3.0,70.0
9780,86.0,480,1440,0.0,70.0
9781,74.0,0,1440,1.0,80.0
9782,79.0,0,240,1.0,80.0
9783,43.0,0,384,3.0,70.0
9784,64.0,0,960,2.0,70.0
9785,76.0,240,240,1.0,80.0
9786,60.0,480,960,2.0,70.0
9787,79.0,480,480,0.0,70.0
9788,43.0,0,384,3.0,70.0
9789,43.0,480,384,3.0,70.0
9790,55.0,0,960,2.0,70.0
9791,67.0,0,5760,1.0,80.0
9792,43.0,0,384,3.0,70.0
9793,43.0,480,384,3.0,70.0
9794,72.0,240,1920,1.0,80.0
9795,66.0,0,960,1.0,80.0
9796,57.0,480,960,2.0,70.0
9797,63.0,0,1920,2.0,70.0
9798,84.0,0,1920,0.0,70.0
9799,43.0,0,384,3.0,70.0
9800,31.0,0,7584,8.0,58.0
9801,43.0,0,7584,7.0,58.0
9802,43.0,480,384,3.0,70.0
9803,70.0,480,960,1.0,80.0
9804,82.0,0,960,0.0,70.0
9805,58.0,0,960,2.0,70.0
9806,67.0,0,960,1.0,80.0
9807,62.0,0,960,2.0,70.0
9808,48.0,0,384,7.0,58.0
9809,63.0,0,384,2.0,70.0
9810,36.0,0,384,8.0,58.0
9811,60.0,480,384,2.0,70.0
9812,68.0,0,384,1.0,58.0
9813,80.0,0,384,0.0,70.0
9814,68.0,0,480,0.0,70.0
9815,44.0,480,480,2.0,70.0
9816,48.0,480,480,2.0,70.0
9817,72.0,0,480,0.0,70.0
9818,75.0,480,480,0.0,70.0
9819,51.0,0,480,2.0,70.0
9820,56.0,0,480,2.0,70.0
9821,80.0,480,480,0.0,70.0
9822,84.0,480,480,0.0,70.0
9823,60.0,0,480,2.0,70.0
9824,63.0,0,312,2.0,70.0
9825,87.0,480,312,0.0,70.0
9826,87.0,480,312,0.0,70.0
9827,63.0,0,312,2.0,70.0
9828,38.0,480,480,8.0,58.0
9829,50.0,0,480,7.0,58.0
9830,49.0,480,480,7.0,58.0
9831,37.0,0,480,8.0,58.0
9832,38.0,0,480,8.0,58.0
9833,50.0,480,480,7.0,58.0
9834,58.0,0,1920,2.0,70.0
9835,55.0,0,1920,2.0,70.0
9836,70.0,0,1920,1.0,70.0
9837,67.0,0,1920,1.0,70.0
9838,37.0,0,480,8.0,58.0
9839,79.0,0,1920,0.0,70.0
9840,49.0,480,480,7.0,58.0
9841,66.0,0,384,1.0,58.0
9842,38.0,0,384,8.0,58.0
9843,54.0,0,384,2.0,70.0
9844,57.0,0,384,2.0,70.0
9845,50.0,480,384,7.0,58.0
9846,69.0,0,384,1.0,58.0
9847,78.0,0,384,0.0,58.0
9848,73.0,480,480,1.0,70.0
9849,61.0,0,480,2.0,70.0
9850,85.0,0,480,0.0,70.0
9851,62.0,480,480,2.0,70.0
9852,86.0,0,480,0.0,70.0
9853,74.0,0,480,1.0,70.0
9854,61.0,480,384,2.0,70.0
9855,85.0,0,384,0.0,70.0
9856,73.0,0,384,1.0,70.0
9857,55.0,480,480,7.0,58.0
9858,43.0,0,480,8.0,58.0
9859,58.0,0,480,6.0,58.0
9860,45.0,480,480,8.0,58.0
9861,60.0,0,480,6.0,58.0
9862,57.0,0,480,7.0,58.0
9863,62.0,0,1824,3.0,70.0
9864,62.0,0,1824,2.0,70.0
9865,74.0,0,1824,1.0,70.0
9866,86.0,480,1824,0.0,70.0
9867,55.0,0,480,7.0,58.0
9868,43.0,0,480,8.0,58.0
9869,58.0,480,480,6.0,58.0
9870,73.0,480,120,1.0,70.0
9871,61.0,0,120,2.0,70.0
9872,85.0,0,120,0.0,70.0
9873,57.0,0,480,6.0,58.0
9874,54.0,0,480,7.0,58.0
9875,42.0,0,480,8.0,58.0
9876,86.0,0,672,0.0,70.0
9877,74.0,0,672,1.0,70.0
9878,62.0,120,672,2.0,70.0
9879,56.0,360,480,6.0,58.0
9880,53.0,0,480,7.0,58.0
9881,41.0,0,480,8.0,58.0
9882,61.0,0,120,2.0,70.0
9883,73.0,480,120,1.0,70.0
9884,85.0,0,120,0.0,70.0
9885,43.0,0,480,8.0,58.0
9886,55.0,0,480,7.0,58.0
9887,58.0,0,480,6.0,58.0
9888,74.0,120,672,1.0,70.0
9889,86.0,0,672,0.0,70.0
9890,62.0,0,672,2.0,70.0
9891,41.0,0,384,8.0,58.0
9892,50.0,0,1824,3.0,70.0
9893,53.0,360,384,7.0,58.0
9894,56.0,0,384,6.0,58.0
9895,86.0,0,480,0.0,70.0
9896,74.0,0,480,1.0,70.0
9897,62.0,0,480,2.0,70.0
9898,73.0,0,480,1.0,70.0
9899,61.0,480,480,2.0,70.0
9900,85.0,0,480,0.0,70.0
9901,86.0,0,480,0.0,70.0
9902,74.0,480,480,1.0,70.0
9903,62.0,0,480,2.0,70.0
9904,79.0,480,1536,4.0,58.0
9905,67.0,0,1536,5.0,58.0
9906,55.0,0,1536,6.0,58.0
9907,55.0,0,1824,3.0,70.0
9908,61.0,480,480,2.0,70.0
9909,85.0,0,480,0.0,70.0
9910,40.0,0,1920,8.0,58.0
9911,52.0,0,1920,7.0,58.0
9912,73.0,0,480,1.0,70.0
9913,66.0,0,120,5.0,58.0
9914,54.0,0,120,6.0,58.0
9915,78.0,0,120,4.0,58.0
9916,72.0,0,480,1.0,70.0
9917,84.0,0,480,0.0,70.0
9918,60.0,0,480,2.0,70.0
9919,55.0,0,672,6.0,58.0
9920,67.0,120,672,5.0,58.0
9921,79.0,0,672,4.0,58.0
9922,39.0,0,960,8.0,58.0
9923,71.0,360,480,1.0,70.0
9924,51.0,0,960,7.0,58.0
9925,83.0,0,480,0.0,70.0
9926,59.0,0,480,2.0,70.0
9927,54.0,0,120,6.0,58.0
9928,78.0,0,120,4.0,58.0
9929,66.0,0,120,5.0,58.0
9930,60.0,0,480,2.0,70.0
9931,84.0,0,480,0.0,70.0
9932,72.0,0,480,1.0,70.0
9933,50.0,0,768,7.0,58.0
9934,38.0,480,768,8.0,58.0
9935,79.0,0,672,4.0,58.0
9936,55.0,120,672,6.0,58.0
9937,67.0,0,672,5.0,58.0
9938,58.0,360,384,2.0,70.0
9939,70.0,0,384,1.0,70.0
9940,43.0,480,1824,3.0,70.0
9941,82.0,0,384,0.0,70.0
9942,36.0,0,384,8.0,58.0
9943,72.0,0,384,5.0,58.0
9944,75.0,0,384,4.0,58.0
9945,48.0,480,384,7.0,58.0
9946,60.0,0,384,6.0,58.0
9947,63.0,0,384,6.0,58.0
9948,48.0,480,384,7.0,58.0
9949,36.0,0,384,8.0,58.0
9950,69.0,480,384,5.0,58.0
9951,36.0,0,384,8.0,58.0
9952,60.0,0,384,6.0,58.0
9953,72.0,0,384,4.0,58.0
9954,48.0,0,384,7.0,58.0
9955,57.0,0,384,6.0,58.0
9956,57.0,0,1440,2.0,70.0
9957,69.0,0,1440,1.0,70.0
9958,81.0,0,1440,0.0,70.0
9959,72.0,0,240,1.0,70.0
9960,84.0,0,240,0.0,70.0
9961,60.0,480,240,2.0,70.0
9962,48.0,0,384,7.0,58.0
9963,36.0,0,384,8.0,58.0
9964,87.0,0,192,0.0,70.0
9965,75.0,240,192,1.0,70.0
9966,63.0,0,192,2.0,70.0
9967,70.0,0,384,4.0,58.0
9968,38.0,0,384,8.0,58.0
9969,58.0,0,384,6.0,58.0
9970,55.0,0,384,6.0,58.0
9971,67.0,0,384,5.0,58.0
9972,50.0,240,384,7.0,58.0
9973,79.0,0,720,0.0,70.0
9974,46.0,0,720,2.0,70.0
9975,55.0,0,720,2.0,70.0
9976,67.0,0,720,1.0,70.0
9977,70.0,0,720,1.0,70.0
9978,38.0,480,384,8.0,58.0
9979,50.0,0,384,7.0,58.0
9980,69.0,0,384,4.0,58.0
9981,54.0,0,384,6.0,58.0
9982,57.0,0,384,6.0,58.0
9983,66.0,0,384,5.0,58.0
9984,50.0,480,384,7.0,58.0
9985,38.0,0,384,8.0,58.0
9986,45.0,0,720,2.0,70.0
9987,78.0,0,720,0.0,70.0
9988,66.0,0,720,1.0,70.0
9989,54.0,0,720,2.0,70.0
9990,69.0,0,720,1.0,70.0
9991,50.0,480,384,7.0,58.0
9992,38.0,0,384,8.0,58.0
9993,67.0,0,192,4.0,105.0
9994,67.0,0,192,5.0,105.0
9995,74.0,240,192,4.0,105.0
9996,74.0,0,192,5.0,105.0
9997,74.0,0,192,4.0,105.0
9998,74.0,240,192,5.0,105.0
9999,55.0,0,768,6.0,105.0
10000,67.0,0,768,1.0,80.0
10001,43.0,0,768,7.0,105.0
10002,43.0,0,768,2.0,80.0
10003,31.0,480,768,8.0,105.0
10004,79.0,0,768,0.0,80.0
10005,55.0,0,768,2.0,80.0
10006,74.0,240,192,5.0,105.0
10007,74.0,0,192,4.0,105.0
10008,74.0,240,192,4.0,105.0
10009,74.0,0,192,5.0,105.0
10010,74.0,0,192,5.0,105.0
10011,74.0,240,192,4.0,105.0
10012,74.0,0,192,5.0,105.0
10013,74.0,240,192,4.0,105.0
10014,74.0,0,192,5.0,105.0
10015,74.0,240,192,4.0,105.0
10016,79.0,0,240,5.0,105.0
10017,79.0,0,240,4.0,105.0
10018,74.0,0,288,3.0,105.0
10019,62.0,0,288,3.0,105.0
10020,67.0,0,288,2.0,105.0
10021,79.0,240,288,1.0,105.0
10022,82.0,0,288,0.0,105.0
10023,58.0,0,288,2.0,105.0
10024,58.0,0,336,7.0,105.0
10025,58.0,0,336,6.0,105.0
10026,46.0,0,336,8.0,105.0
10027,82.0,0,144,5.0,105.0
10028,82.0,240,144,4.0,105.0
10029,81.0,240,144,4.0,105.0
10030,81.0,0,144,5.0,105.0
10031,74.0,0,288,3.0,105.0
10032,57.0,0,288,2.0,105.0
10033,81.0,0,288,0.0,105.0
10034,78.0,0,288,1.0,105.0
10035,62.0,0,288,3.0,105.0
10036,66.0,0,288,2.0,105.0
10037,48.0,0,336,8.0,105.0
10038,60.0,0,336,7.0,105.0
10039,60.0,0,336,6.0,105.0
10040,78.0,0,144,4.0,105.0
10041,78.0,240,144,5.0,105.0
10042,79.0,0,240,4.0,105.0
10043,79.0,0,240,5.0,105.0
10044,62.0,0,288,3.0,105.0
10045,74.0,0,288,3.0,105.0
10046,58.0,0,288,2.0,105.0
10047,67.0,0,288,2.0,105.0
10048,82.0,0,288,0.0,105.0
10049,79.0,0,288,1.0,105.0
10050,46.0,0,336,8.0,105.0
10051,58.0,0,336,7.0,105.0
10052,58.0,240,336,6.0,105.0
10053,82.0,0,144,5.0,105.0
10054,82.0,240,144,4.0,105.0
10055,81.0,0,144,5.0,105.0
10056,81.0,240,144,4.0,105.0
10057,81.0,0,288,0.0,105.0
10058,78.0,0,288,1.0,105.0
10059,57.0,0,288,2.0,105.0
10060,66.0,0,288,2.0,105.0
10061,62.0,0,288,3.0,105.0
10062,74.0,0,288,3.0,105.0
10063,60.0,0,336,6.0,105.0
10064,48.0,0,336,8.0,105.0
10065,60.0,0,336,7.0,105.0
10066,78.0,0,144,4.0,105.0
10067,78.0,240,144,5.0,105.0
10068,79.0,0,192,5.0,105.0
10069,79.0,0,192,4.0,105.0
10070,74.0,240,192,5.0,105.0
10071,74.0,0,192,4.0,105.0
10072,74.0,240,192,4.0,105.0
10073,74.0,0,192,5.0,105.0
10074,82.0,0,768,0.0,105.0
10075,74.0,0,768,3.0,105.0
10076,58.0,0,768,2.0,105.0
10077,67.0,240,768,2.0,105.0
10078,79.0,0,768,1.0,105.0
10079,62.0,0,768,3.0,105.0
10080,58.0,0,864,7.0,105.0
10081,58.0,0,864,6.0,105.0
10082,46.0,0,864,8.0,105.0
10083,74.0,0,192,5.0,105.0
10084,74.0,240,192,4.0,105.0
10085,74.0,0,192,4.0,105.0
10086,74.0,240,192,5.0,105.0
10087,74.0,0,192,5.0,105.0
10088,74.0,240,192,4.0,105.0
10089,74.0,240,192,5.0,105.0
10090,74.0,0,192,4.0,105.0
10091,74.0,240,192,5.0,105.0
10092,74.0,0,192,4.0,105.0
10093,79.0,0,240,5.0,105.0
10094,79.0,0,240,4.0,105.0
10095,82.0,0,288,0.0,105.0
10096,74.0,0,288,3.0,105.0
10097,62.0,0,288,3.0,105.0
10098,79.0,0,288,1.0,105.0
10099,67.0,0,288,2.0,105.0
10100,58.0,240,288,2.0,105.0
10101,46.0,0,336,8.0,105.0
10102,58.0,0,336,7.0,105.0
10103,58.0,0,336,6.0,105.0
10104,82.0,240,144,4.0,105.0
10105,82.0,0,144,5.0,105.0
10106,81.0,0,144,5.0,105.0
10107,81.0,240,144,4.0,105.0
10108,74.0,0,288,3.0,105.0
10109,81.0,0,288,0.0,105.0
10110,57.0,0,288,2.0,105.0
10111,66.0,0,288,2.0,105.0
10112,62.0,0,288,3.0,105.0
10113,78.0,0,288,1.0,105.0
10114,48.0,0,336,8.0,105.0
10115,60.0,0,336,7.0,105.0
10116,60.0,0,336,6.0,105.0
10117,78.0,0,144,4.0,105.0
10118,78.0,240,144,5.0,105.0
10119,79.0,0,240,5.0,105.0
10120,79.0,0,240,4.0,105.0
10121,79.0,0,288,1.0,105.0
10122,74.0,0,288,3.0,105.0
10123,62.0,240,288,3.0,105.0
10124,67.0,0,288,2.0,105.0
10125,58.0,0,288,2.0,105.0
10126,82.0,0,288,0.0,105.0
10127,58.0,0,336,7.0,105.0
10128,46.0,0,336,8.0,105.0
10129,58.0,0,336,6.0,105.0
10130,82.0,240,144,5.0,105.0
10131,82.0,0,144,4.0,105.0
10132,81.0,0,144,4.0,105.0
10133,81.0,0,144,5.0,105.0
10134,78.0,0,288,1.0,105.0
10135,74.0,0,288,3.0,105.0
10136,62.0,0,288,3.0,105.0
10137,57.0,0,288,2.0,105.0
10138,66.0,0,288,2.0,105.0
10139,81.0,0,288,0.0,105.0
10140,60.0,0,336,7.0,105.0
10141,48.0,240,336,8.0,105.0
10142,60.0,0,336,6.0,105.0
10143,78.0,0,144,4.0,105.0
10144,78.0,240,144,5.0,105.0
10145,79.0,0,192,5.0,105.0
10146,79.0,0,192,4.0,105.0
10147,86.0,240,192,5.0,105.0
10148,86.0,0,192,4.0,105.0
10149,86.0,240,192,5.0,105.0
10150,86.0,0,192,4.0,105.0
10151,67.0,0,768,2.0,105.0
10152,74.0,0,768,3.0,105.0
10153,62.0,0,768,3.0,105.0
10154,82.0,0,768,0.0,105.0
10155,79.0,240,768,1.0,105.0
10156,58.0,0,768,2.0,105.0
10157,58.0,0,864,6.0,105.0
10158,58.0,0,864,7.0,105.0
10159,46.0,0,864,8.0,105.0
10160,86.0,0,192,5.0,105.0
10161,86.0,240,192,4.0,105.0
10162,86.0,240,192,5.0,105.0
10163,86.0,0,192,4.0,105.0
10164,86.0,0,192,5.0,105.0
10165,86.0,240,192,4.0,105.0
10166,86.0,0,192,5.0,105.0
10167,86.0,240,192,4.0,105.0
10168,86.0,0,192,4.0,105.0
10169,86.0,240,192,5.0,105.0
10170,79.0,0,240,5.0,105.0
10171,79.0,240,240,4.0,105.0
10172,82.0,0,288,1.0,105.0
10173,67.0,0,288,2.0,105.0
10174,91.0,0,288,0.0,105.0
10175,79.0,0,288,1.0,105.0
10176,74.0,0,288,3.0,105.0
10177,58.0,0,288,2.0,105.0
10178,62.0,0,288,3.0,105.0
10179,58.0,0,336,6.0,105.0
10180,46.0,0,336,8.0,105.0
10181,58.0,0,336,7.0,105.0
10182,82.0,240,144,5.0,105.0
10183,82.0,0,144,4.0,105.0
10184,81.0,0,144,5.0,105.0
10185,81.0,0,144,4.0,105.0
10186,74.0,0,288,3.0,105.0
10187,62.0,0,288,3.0,105.0
10188,90.0,0,288,0.0,105.0
10189,81.0,0,288,1.0,105.0
10190,66.0,0,288,2.0,105.0
10191,78.0,0,288,1.0,105.0
10192,57.0,0,288,2.0,105.0
10193,48.0,240,336,8.0,105.0
10194,60.0,0,336,7.0,105.0
10195,60.0,0,336,6.0,105.0
10196,78.0,240,144,5.0,105.0
10197,78.0,0,144,4.0,105.0
10198,79.0,240,240,4.0,105.0
10199,79.0,0,240,5.0,105.0
10200,82.0,0,288,1.0,105.0
10201,91.0,0,288,0.0,105.0
10202,74.0,0,288,3.0,105.0
10203,58.0,0,288,2.0,105.0
10204,67.0,0,288,2.0,105.0
10205,62.0,0,288,3.0,105.0
10206,79.0,0,288,1.0,105.0
10207,58.0,0,336,6.0,105.0
10208,58.0,0,336,7.0,105.0
10209,46.0,0,336,8.0,105.0
10210,82.0,0,144,4.0,105.0
10211,82.0,240,144,5.0,105.0
10212,81.0,0,144,4.0,105.0
10213,81.0,240,144,5.0,105.0
10214,78.0,0,288,1.0,105.0
10215,81.0,0,288,1.0,105.0
10216,66.0,0,288,2.0,105.0
10217,57.0,0,288,2.0,105.0
10218,74.0,0,288,3.0,105.0
10219,90.0,0,288,0.0,105.0
10220,62.0,0,288,3.0,105.0
10221,60.0,0,336,7.0,105.0
10222,48.0,0,336,8.0,105.0
10223,60.0,0,336,6.0,105.0
10224,78.0,0,144,4.0,105.0
10225,78.0,240,144,5.0,105.0
10226,79.0,0,192,4.0,105.0
10227,79.0,0,192,5.0,105.0
10228,58.0,0,384,6.0,105.0
10229,58.0,0,384,7.0,105.0
10230,46.0,0,384,8.0,105.0
10231,74.0,0,192,4.0,105.0
10232,74.0,240,192,5.0,105.0
10233,74.0,0,192,4.0,105.0
10234,74.0,240,192,5.0,105.0
10235,62.0,0,768,2.0,105.0
10236,74.0,240,768,3.0,105.0
10237,91.0,0,768,0.0,105.0
10238,67.0,0,768,2.0,105.0
10239,86.0,0,768,1.0,105.0
10240,74.0,240,192,5.0,105.0
10241,74.0,0,192,4.0,105.0
10242,75.0,0,192,5.0,105.0
10243,75.0,0,192,4.0,105.0
10244,60.0,0,384,6.0,105.0
10245,60.0,0,384,7.0,105.0
10246,48.0,0,384,8.0,105.0
10247,72.0,240,192,4.0,105.0
10248,72.0,0,192,5.0,105.0
10249,72.0,0,192,4.0,105.0
10250,72.0,240,192,5.0,105.0
10251,60.0,0,768,2.0,105.0
10252,87.0,0,768,0.0,105.0
10253,63.0,0,768,2.0,105.0
10254,79.0,0,1728,1.0,105.0
10255,72.0,240,768,3.0,105.0
10256,84.0,0,768,1.0,105.0
10257,72.0,0,192,5.0,105.0
10258,72.0,240,192,4.0,105.0
10259,74.0,240,192,4.0,105.0
10260,74.0,0,192,5.0,105.0
10261,62.0,0,384,7.0,105.0
10262,62.0,0,384,6.0,105.0
10263,50.0,0,384,8.0,105.0
10264,67.0,240,192,4.0,105.0
10265,67.0,0,192,5.0,105.0
10266,67.0,0,192,4.0,105.0
10267,67.0,240,192,5.0,105.0
10268,82.0,0,768,1.0,105.0
10269,70.0,0,768,3.0,105.0
10270,55.0,0,768,2.0,105.0
10271,79.0,0,768,1.0,105.0
10272,58.0,0,768,2.0,105.0
10273,86.0,0,768,0.0,105.0
10274,67.0,240,192,5.0,105.0
10275,67.0,0,192,4.0,105.0
10276,74.0,0,192,5.0,105.0
10277,74.0,0,192,4.0,105.0
10278,38.0,240,384,8.0,105.0
10279,50.0,0,384,7.0,105.0
10280,50.0,0,384,6.0,105.0
10281,66.0,240,192,5.0,105.0
10282,66.0,0,192,4.0,105.0
10283,66.0,240,192,5.0,105.0
10284,66.0,0,192,4.0,105.0
10285,78.0,0,768,1.0,105.0
10286,62.0,0,768,3.0,105.0
10287,72.0,0,768,1.0,105.0
10288,81.0,0,768,0.0,105.0
10289,57.0,0,768,2.0,105.0
10290,54.0,0,768,2.0,105.0
10291,66.0,240,192,4.0,105.0
10292,66.0,0,192,5.0,105.0
10293,67.0,0,168,4.0,92.0
10294,55.0,0,384,2.0,92.0
10295,79.0,0,384,0.0,92.0
10296,55.0,0,384,7.0,92.0
10297,79.0,0,384,1.0,92.0
10298,62.0,0,384,3.0,92.0
10299,55.0,240,384,6.0,92.0
10300,43.0,0,384,8.0,92.0
10301,67.0,0,384,5.0,92.0
10302,70.0,0,384,1.0,92.0
10303,62.0,240,240,4.0,70.0
10304,61.0,240,240,4.0,70.0
10305,62.0,240,240,4.0,70.0
10306,61.0,240,240,4.0,70.0
10307,62.0,240,240,4.0,70.0
10308,63.0,240,240,4.0,70.0
10309,62.0,240,192,4.0,70.0
10310,55.0,0,240,6.0,70.0
10311,67.0,240,240,4.0,70.0
10312,62.0,0,384,5.0,70.0
10313,58.0,240,144,6.0,70.0
10314,70.0,0,144,4.0,70.0
10315,46.0,0,384,7.0,58.0
10316,34.0,0,384,8.0,58.0
10317,69.0,0,144,4.0,70.0
10318,57.0,0,144,6.0,70.0
10319,54.0,240,144,6.0,70.0
10320,48.0,0,384,7.0,58.0
10321,66.0,0,144,4.0,70.0
10322,36.0,0,384,8.0,58.0
10323,55.0,0,240,6.0,70.0
10324,67.0,240,240,4.0,70.0
10325,62.0,240,768,5.0,70.0
10326,46.0,0,384,7.0,58.0
10327,70.0,240,144,4.0,70.0
10328,34.0,0,384,8.0,58.0
10329,58.0,0,144,6.0,70.0
10330,57.0,0,144,6.0,70.0
10331,69.0,0,144,4.0,70.0
10332,66.0,0,144,4.0,70.0
10333,54.0,240,144,6.0,70.0
10334,36.0,0,384,8.0,58.0
10335,48.0,240,384,7.0,58.0
10336,55.0,0,192,6.0,70.0
10337,67.0,240,192,4.0,70.0
10338,62.0,0,864,5.0,70.0
10339,46.0,0,384,7.0,58.0
10340,34.0,0,384,8.0,58.0
10341,62.0,240,240,6.0,70.0
10342,74.0,0,240,4.0,70.0
10343,73.0,240,240,4.0,70.0
10344,61.0,0,240,6.0,70.0
10345,62.0,0,240,6.0,70.0
10346,74.0,240,240,4.0,70.0
10347,61.0,240,240,6.0,70.0
10348,73.0,0,240,4.0,70.0
10349,62.0,240,240,6.0,70.0
10350,74.0,0,240,4.0,70.0
10351,63.0,240,240,6.0,70.0
10352,75.0,0,240,4.0,70.0
10353,74.0,240,192,4.0,70.0
10354,62.0,0,192,6.0,70.0
10355,55.0,0,240,6.0,70.0
10356,67.0,0,240,4.0,70.0
10357,46.0,0,384,7.0,58.0
10358,62.0,0,384,5.0,70.0
10359,70.0,0,144,4.0,70.0
10360,34.0,240,384,8.0,58.0
10361,58.0,240,144,6.0,70.0
10362,57.0,0,144,6.0,70.0
10363,69.0,0,144,4.0,70.0
10364,54.0,240,144,6.0,70.0
10365,36.0,0,384,8.0,58.0
10366,48.0,240,384,7.0,58.0
10367,66.0,0,144,4.0,70.0
10368,55.0,0,240,6.0,70.0
10369,67.0,0,240,4.0,70.0
10370,62.0,0,768,5.0,70.0
10371,58.0,240,144,6.0,70.0
10372,34.0,240,384,8.0,58.0
10373,70.0,0,144,4.0,70.0
10374,46.0,0,384,7.0,58.0
10375,69.0,240,144,4.0,70.0
10376,57.0,0,144,6.0,70.0
10377,36.0,0,384,8.0,58.0
10378,48.0,0,384,7.0,58.0
10379,66.0,0,144,4.0,70.0
10380,54.0,240,144,6.0,70.0
10381,67.0,0,168,4.0,70.0
10382,34.0,0,384,8.0,58.0
10383,46.0,240,384,7.0,58.0
10384,62.0,0,864,5.0,70.0
10385,55.0,0,384,6.0,70.0
10386,62.0,240,240,4.0,70.0
10387,61.0,240,240,4.0,70.0
10388,62.0,240,240,4.0,70.0
10389,61.0,240,240,4.0,70.0
10390,62.0,240,240,4.0,70.0
10391,63.0,240,240,4.0,70.0
10392,62.0,240,192,4.0,70.0
10393,74.0,0,192,4.0,105.0
10394,67.0,0,240,5.0,105.0
10395,82.0,0,336,0.0,105.0
10396,46.0,240,336,7.0,105.0
10397,62.0,0,336,3.0,92.0
10398,50.0,0,336,3.0,92.0
10399,70.0,0,336,1.0,105.0
10400,79.0,0,336,1.0,92.0
10401,67.0,0,336,2.0,105.0
10402,34.0,0,336,8.0,105.0
10403,58.0,0,336,6.0,105.0
10404,58.0,0,336,2.0,105.0
10405,70.0,240,144,5.0,105.0
10406,74.0,0,192,4.0,105.0
10407,69.0,0,144,5.0,105.0
10408,74.0,0,192,4.0,105.0
10409,48.0,0,336,7.0,105.0
10410,78.0,0,336,1.0,105.0
10411,69.0,0,336,1.0,105.0
10412,66.0,0,336,2.0,105.0
10413,62.0,0,336,3.0,105.0
10414,60.0,0,336,6.0,105.0
10415,57.0,240,336,2.0,105.0
10416,81.0,0,336,0.0,105.0
10417,36.0,0,336,8.0,105.0
10418,50.0,0,336,3.0,105.0
10419,66.0,0,144,5.0,105.0
10420,74.0,240,192,4.0,105.0
10421,74.0,0,192,4.0,105.0
10422,67.0,0,240,5.0,105.0
10423,82.0,0,336,0.0,105.0
10424,34.0,0,336,8.0,105.0
10425,62.0,240,336,3.0,105.0
10426,58.0,0,336,6.0,105.0
10427,58.0,0,336,2.0,105.0
10428,67.0,0,336,2.0,105.0
10429,50.0,0,336,3.0,105.0
10430,70.0,0,336,1.0,105.0
10431,79.0,0,336,1.0,105.0
10432,46.0,0,336,7.0,105.0
10433,70.0,0,144,5.0,105.0
10434,74.0,240,192,4.0,105.0
10435,69.0,0,144,5.0,105.0
10436,74.0,0,192,4.0,105.0
10437,57.0,0,336,2.0,105.0
10438,66.0,0,336,2.0,105.0
10439,36.0,0,336,8.0,105.0
10440,60.0,240,336,6.0,105.0
10441,50.0,0,336,3.0,105.0
10442,62.0,0,336,3.0,105.0
10443,81.0,0,336,0.0,105.0
10444,78.0,0,336,1.0,105.0
10445,69.0,0,336,1.0,105.0
10446,48.0,0,336,7.0,105.0
10447,66.0,0,144,5.0,105.0
10448,74.0,240,192,4.0,105.0
10449,74.0,0,192,5.0,105.0
10450,79.0,0,240,4.0,105.0
10451,50.0,0,336,3.0,105.0
10452,34.0,0,336,8.0,105.0
10453,82.0,0,336,0.0,105.0
10454,62.0,0,336,3.0,105.0
10455,79.0,0,336,1.0,105.0
10456,70.0,0,336,1.0,105.0
10457,46.0,240,336,7.0,105.0
10458,58.0,0,336,6.0,105.0
10459,67.0,0,336,2.0,105.0
10460,58.0,0,336,2.0,105.0
10461,82.0,240,168,4.0,105.0
10462,74.0,0,192,5.0,105.0
10463,81.0,240,168,4.0,105.0
10464,74.0,0,192,5.0,105.0
10465,48.0,0,336,7.0,105.0
10466,36.0,0,336,8.0,105.0
10467,60.0,0,336,6.0,105.0
10468,78.0,0,336,1.0,105.0
10469,57.0,0,336,2.0,105.0
10470,69.0,0,336,1.0,105.0
10471,62.0,0,336,3.0,105.0
10472,81.0,0,336,0.0,105.0
10473,50.0,0,336,3.0,105.0
10474,66.0,0,336,2.0,105.0
10475,78.0,240,168,4.0,105.0
10476,74.0,0,192,5.0,105.0
10477,74.0,240,192,5.0,105.0
10478,79.0,0,240,4.0,105.0
10479,50.0,0,336,3.0,105.0
10480,58.0,0,336,6.0,105.0
10481,46.0,0,336,7.0,105.0
10482,62.0,0,336,3.0,105.0
10483,79.0,0,336,1.0,105.0
10484,82.0,0,336,0.0,105.0
10485,67.0,0,336,2.0,105.0
10486,58.0,0,336,2.0,105.0
10487,70.0,0,336,1.0,105.0
10488,34.0,0,336,8.0,105.0
10489,82.0,0,168,4.0,105.0
10490,74.0,240,192,5.0,105.0
10491,81.0,0,168,4.0,105.0
10492,74.0,0,192,5.0,105.0
10493,57.0,0,336,2.0,105.0
10494,69.0,240,336,1.0,105.0
10495,78.0,0,336,1.0,105.0
10496,48.0,0,336,7.0,105.0
10497,66.0,0,336,2.0,105.0
10498,62.0,0,336,3.0,105.0
10499,50.0,0,336,3.0,105.0
10500,81.0,0,336,0.0,105.0
10501,36.0,0,336,8.0,105.0
10502,60.0,0,336,6.0,105.0
10503,78.0,240,168,4.0,105.0
10504,74.0,0,192,5.0,105.0
10505,86.0,0,192,4.0,105.0
10506,79.0,0,240,5.0,105.0
10507,58.0,0,336,6.0,105.0
10508,67.0,240,336,2.0,105.0
10509,58.0,0,336,2.0,105.0
10510,34.0,0,336,8.0,105.0
10511,50.0,0,336,3.0,105.0
10512,82.0,0,336,0.0,105.0
10513,62.0,0,336,3.0,105.0
10514,70.0,0,336,1.0,105.0
10515,79.0,0,336,1.0,105.0
10516,46.0,0,336,7.0,105.0
10517,82.0,0,168,5.0,105.0
10518,86.0,240,192,4.0,105.0
10519,81.0,0,168,5.0,105.0
10520,86.0,0,192,4.0,105.0
10521,36.0,240,336,8.0,105.0
10522,69.0,0,336,1.0,105.0
10523,50.0,0,336,3.0,105.0
10524,62.0,0,336,3.0,105.0
10525,48.0,0,336,7.0,105.0
10526,81.0,0,336,0.0,105.0
10527,60.0,0,336,6.0,105.0
10528,78.0,0,336,1.0,105.0
10529,57.0,0,336,2.0,105.0
10530,66.0,0,336,2.0,105.0
10531,78.0,0,168,5.0,105.0
10532,86.0,240,192,4.0,105.0
10533,86.0,0,192,4.0,105.0
10534,79.0,0,240,5.0,105.0
10535,58.0,0,336,6.0,105.0
10536,79.0,0,336,1.0,105.0
10537,70.0,0,336,1.0,105.0
10538,58.0,0,336,2.0,105.0
10539,50.0,0,336,3.0,105.0
10540,46.0,0,336,7.0,105.0
10541,34.0,240,336,8.0,105.0
10542,82.0,0,336,0.0,105.0
10543,62.0,0,336,3.0,105.0
10544,67.0,0,336,2.0,105.0
10545,82.0,0,168,5.0,105.0
10546,86.0,240,192,4.0,105.0
10547,81.0,0,168,5.0,105.0
10548,86.0,0,192,4.0,105.0
10549,36.0,0,336,8.0,105.0
10550,81.0,0,336,0.0,105.0
10551,69.0,0,336,1.0,105.0
10552,78.0,0,336,1.0,105.0
10553,60.0,0,336,6.0,105.0
10554,48.0,240,336,7.0,105.0
10555,57.0,0,336,2.0,105.0
10556,66.0,0,336,2.0,105.0
10557,62.0,0,336,3.0,105.0
10558,50.0,0,336,3.0,105.0
10559,78.0,240,168,5.0,105.0
10560,86.0,0,192,4.0,105.0
10561,35.0,0,168,8.0,116.0
10562,47.0,0,168,7.0,116.0
10563,59.0,0,168,6.0,116.0
10564,77.0,240,192,5.0,116.0
10565,86.0,0,192,4.0,116.0
10566,36.0,0,168,8.0,116.0
10567,60.0,0,168,6.0,116.0
10568,48.0,240,168,7.0,116.0
10569,77.0,0,192,5.0,116.0
10570,86.0,0,192,4.0,116.0
10571,62.0,0,168,6.0,116.0
10572,50.0,0,168,7.0,116.0
10573,38.0,240,168,8.0,116.0
10574,77.0,0,192,5.0,116.0
10575,86.0,0,192,4.0,116.0
10576,51.0,240,168,7.0,116.0
10577,39.0,0,168,8.0,116.0
10578,63.0,0,168,6.0,116.0
10579,77.0,0,192,5.0,116.0
10580,86.0,0,192,4.0,116.0
10581,53.0,0,168,7.0,116.0
10582,65.0,0,168,6.0,116.0
10583,41.0,240,168,8.0,116.0
10584,77.0,0,192,5.0,116.0
10585,86.0,0,192,4.0,116.0
10586,55.0,0,168,7.0,116.0
10587,43.0,240,168,8.0,116.0
10588,67.0,0,168,6.0,116.0
10589,77.0,0,192,5.0,116.0
10590,86.0,0,192,4.0,116.0
10591,69.0,240,168,6.0,116.0
10592,45.0,0,168,8.0,116.0
10593,57.0,0,168,7.0,116.0
10594,77.0,0,192,5.0,116.0
10595,86.0,0,192,4.0,116.0
10596,67.0,0,1824,2.0,105.0
10597,77.0,0,1824,1.0,105.0
10598,79.0,0,1824,0.0,105.0
10599,74.0,0,1824,1.0,105.0
10600,62.0,0,1824,2.0,105.0
10601,55.0,0,1824,3.0,105.0
10602,65.0,0,1824,3.0,105.0
10603,47.0,0,168,8.0,116.0
10604,71.0,240,168,6.0,116.0
10605,59.0,0,168,7.0,116.0
10606,77.0,0,192,5.0,116.0
10607,86.0,0,192,4.0,116.0
10608,51.0,0,168,2.0,116.0
10609,75.0,0,168,0.0,116.0
10610,48.0,0,168,2.0,116.0
10611,72.0,0,168,1.0,116.0
10612,75.0,0,192,5.0,116.0
10613,86.0,0,192,4.0,116.0
10614,74.0,0,168,1.0,116.0
10615,50.0,0,168,2.0,116.0
10616,77.0,240,168,0.0,116.0
10617,53.0,0,168,2.0,116.0
10618,86.0,0,192,4.0,116.0
10619,75.0,0,192,5.0,116.0
10620,79.0,0,168,0.0,116.0
10621,75.0,0,168,1.0,116.0
10622,55.0,240,168,2.0,116.0
10623,51.0,0,168,2.0,116.0
10624,75.0,0,192,5.0,116.0
10625,86.0,0,192,4.0,116.0
10626,53.0,0,168,2.0,116.0
10627,77.0,240,168,1.0,116.0
10628,57.0,0,168,2.0,116.0
10629,81.0,0,168,0.0,116.0
10630,86.0,0,192,4.0,116.0
10631,75.0,0,192,5.0,116.0
10632,83.0,0,168,0.0,116.0
10633,79.0,240,168,1.0,116.0
10634,55.0,0,168,2.0,116.0
10635,59.0,0,168,2.0,116.0
10636,84.0,0,192,4.0,116.0
10637,75.0,0,192,5.0,116.0
10638,57.0,240,168,2.0,116.0
10639,60.0,0,168,2.0,116.0
10640,81.0,0,168,1.0,116.0
10641,84.0,0,168,0.0,116.0
10642,84.0,0,192,4.0,116.0
10643,75.0,0,192,5.0,116.0
10644,62.0,240,168,2.0,116.0
10645,59.0,0,168,2.0,116.0
10646,86.0,0,168,0.0,116.0
10647,83.0,0,168,1.0,116.0
10648,84.0,0,192,4.0,116.0
10649,75.0,0,192,5.0,116.0
10650,48.0,0,1824,8.0,116.0
10651,72.0,240,1824,6.0,116.0
10652,60.0,0,1824,7.0,116.0
10653,63.0,0,168,2.0,116.0
10654,84.0,240,168,1.0,116.0
10655,87.0,0,168,0.0,116.0
10656,60.0,0,168,2.0,116.0
10657,84.0,0,192,4.0,116.0
10658,75.0,0,192,5.0,116.0
10659,74.0,0,192,5.0,116.0
10660,84.0,0,192,4.0,116.0
10661,84.0,0,192,4.0,116.0
10662,74.0,240,192,5.0,116.0
10663,84.0,0,192,4.0,116.0
10664,38.0,0,672,8.0,116.0
10665,50.0,240,672,7.0,116.0
10666,62.0,0,672,6.0,116.0
10667,74.0,240,192,5.0,116.0
10668,78.0,0,768,1.0,116.0
10669,66.0,0,768,1.0,116.0
10670,62.0,0,768,3.0,116.0
10671,69.0,0,768,3.0,116.0
10672,78.0,0,768,0.0,116.0
10673,54.0,0,768,2.0,116.0
10674,74.0,240,192,5.0,116.0
10675,84.0,0,192,4.0,116.0
10676,79.0,0,192,5.0,116.0
10677,82.0,0,192,4.0,116.0
10678,82.0,240,192,4.0,116.0
10679,79.0,0,192,5.0,116.0
10680,39.0,240,672,8.0,116.0
10681,79.0,0,192,5.0,116.0
10682,82.0,240,192,4.0,116.0
10683,51.0,0,672,7.0,116.0
10684,63.0,0,672,6.0,116.0
10685,67.0,0,768,1.0,116.0
10686,79.0,0,768,1.0,116.0
10687,79.0,0,768,0.0,116.0
10688,55.0,0,768,2.0,116.0
10689,58.0,0,768,3.0,116.0
10690,67.0,0,768,3.0,116.0
10691,82.0,0,192,4.0,116.0
10692,79.0,240,192,5.0,116.0
10693,72.0,0,192,5.0,116.0
10694,81.0,0,192,4.0,116.0
10695,81.0,240,192,4.0,116.0
10696,72.0,0,192,5.0,116.0
10697,60.0,0,672,6.0,116.0
10698,81.0,240,192,4.0,116.0
10699,48.0,0,672,7.0,116.0
10700,36.0,0,672,8.0,116.0
10701,72.0,0,192,5.0,116.0
10702,57.0,0,768,2.0,116.0
10703,60.0,0,768,2.0,116.0
10704,84.0,240,768,0.0,116.0
10705,72.0,0,768,1.0,116.0
10706,81.0,0,768,1.0,116.0
10707,72.0,0,192,5.0,116.0
10708,81.0,240,192,4.0,116.0
10709,78.0,0,192,4.0,116.0
10710,69.0,0,192,5.0,116.0
10711,78.0,0,192,4.0,116.0
10712,69.0,240,192,5.0,116.0
10713,78.0,240,192,4.0,116.0
10714,50.0,0,672,7.0,116.0
10715,38.0,0,672,8.0,116.0
10716,69.0,0,192,5.0,116.0
10717,62.0,0,672,6.0,116.0
10718,69.0,0,768,1.0,116.0
10719,62.0,0,768,3.0,116.0
10720,78.0,0,768,1.0,116.0
10721,54.0,240,768,2.0,116.0
10722,57.0,0,768,2.0,116.0
10723,81.0,0,768,0.0,116.0
10724,50.0,0,768,3.0,116.0
10725,78.0,240,192,4.0,116.0
10726,69.0,0,192,5.0,116.0
10727,59.0,0,168,6.0,116.0
10728,47.0,240,168,7.0,116.0
10729,35.0,0,168,8.0,116.0
10730,86.0,0,192,4.0,116.0
10731,77.0,0,192,5.0,116.0
10732,36.0,0,168,8.0,116.0
10733,48.0,0,168,7.0,116.0
10734,60.0,240,168,6.0,116.0
10735,77.0,0,192,5.0,116.0
10736,86.0,0,192,4.0,116.0
10737,38.0,0,168,8.0,116.0
10738,62.0,0,168,6.0,116.0
10739,50.0,0,168,7.0,116.0
10740,77.0,240,192,5.0,116.0
10741,86.0,0,192,4.0,116.0
10742,39.0,0,168,8.0,116.0
10743,51.0,0,168,7.0,116.0
10744,63.0,240,168,6.0,116.0
10745,86.0,0,192,4.0,116.0
10746,77.0,0,192,5.0,116.0
10747,53.0,240,168,7.0,116.0
10748,65.0,0,168,6.0,116.0
10749,41.0,0,168,8.0,116.0
10750,77.0,0,192,5.0,116.0
10751,86.0,0,192,4.0,116.0
10752,43.0,240,168,8.0,116.0
10753,67.0,0,168,6.0,116.0
10754,55.0,0,168,7.0,116.0
10755,77.0,0,192,5.0,116.0
10756,86.0,0,192,4.0,116.0
10757,57.0,240,168,7.0,116.0
10758,69.0,0,168,6.0,116.0
10759,45.0,0,168,8.0,116.0
10760,86.0,0,192,4.0,116.0
10761,77.0,0,192,5.0,116.0
10762,79.0,0,1824,0.0,116.0
10763,55.0,0,1824,3.0,116.0
10764,77.0,0,1824,1.0,116.0
10765,74.0,0,1824,1.0,116.0
10766,65.0,0,1824,3.0,116.0
10767,62.0,0,1824,2.0,116.0
10768,67.0,0,1824,2.0,116.0
10769,47.0,0,168,8.0,116.0
10770,59.0,240,168,7.0,116.0
10771,71.0,0,168,6.0,116.0
10772,86.0,0,192,4.0,116.0
10773,77.0,0,192,5.0,116.0
10774,72.0,0,168,1.0,116.0
10775,75.0,0,168,0.0,116.0
10776,48.0,0,168,2.0,116.0
10777,51.0,240,168,2.0,116.0
10778,75.0,0,192,5.0,116.0
10779,86.0,0,192,4.0,116.0
10780,77.0,0,168,0.0,116.0
10781,74.0,240,168,1.0,116.0
10782,53.0,0,168,2.0,116.0
10783,50.0,0,168,2.0,116.0
10784,86.0,0,192,4.0,116.0
10785,75.0,0,192,5.0,116.0
10786,51.0,240,168,2.0,116.0
10787,55.0,0,168,2.0,116.0
10788,75.0,0,168,1.0,116.0
10789,79.0,0,168,0.0,116.0
10790,75.0,0,192,5.0,116.0
10791,86.0,0,192,4.0,116.0
10792,57.0,0,168,2.0,116.0
10793,53.0,0,168,2.0,116.0
10794,81.0,0,168,0.0,116.0
10795,77.0,0,168,1.0,116.0
10796,75.0,0,192,5.0,116.0
10797,86.0,240,192,4.0,116.0
10798,79.0,0,168,1.0,116.0
10799,83.0,240,168,0.0,116.0
10800,55.0,0,168,2.0,116.0
10801,59.0,0,168,2.0,116.0
10802,75.0,0,192,5.0,116.0
10803,84.0,0,192,4.0,116.0
10804,84.0,240,168,0.0,116.0
10805,60.0,0,168,2.0,116.0
10806,57.0,0,168,2.0,116.0
10807,81.0,0,168,1.0,116.0
10808,75.0,0,192,5.0,116.0
10809,84.0,0,192,4.0,116.0
10810,62.0,0,168,2.0,116.0
10811,86.0,0,168,0.0,116.0
10812,83.0,0,168,1.0,116.0
10813,59.0,0,168,2.0,116.0
10814,75.0,240,192,5.0,116.0
10815,84.0,0,192,4.0,116.0
10816,60.0,0,1824,7.0,116.0
10817,72.0,0,1824,6.0,116.0
10818,48.0,0,1824,8.0,116.0
10819,60.0,0,168,2.0,116.0
10820,87.0,0,168,0.0,116.0
10821,84.0,0,168,1.0,116.0
10822,63.0,240,168,2.0,116.0
10823,84.0,0,192,4.0,116.0
10824,75.0,0,192,5.0,116.0
10825,74.0,240,192,5.0,116.0
10826,84.0,0,192,4.0,116.0
10827,84.0,0,192,4.0,116.0
10828,74.0,240,192,5.0,116.0
10829,74.0,0,192,5.0,116.0
10830,50.0,0,672,7.0,116.0
10831,38.0,0,672,8.0,116.0
10832,62.0,0,672,6.0,116.0
10833,84.0,240,192,4.0,116.0
10834,66.0,0,768,1.0,116.0
10835,78.0,0,768,1.0,116.0
10836,62.0,0,768,3.0,116.0
10837,69.0,0,768,3.0,116.0
10838,54.0,0,768,2.0,116.0
10839,78.0,0,768,0.0,116.0
10840,84.0,0,192,4.0,116.0
10841,74.0,240,192,5.0,116.0
10842,82.0,0,192,4.0,116.0
10843,79.0,0,192,5.0,116.0
10844,82.0,240,192,4.0,116.0
10845,79.0,0,192,5.0,116.0
10846,79.0,0,192,5.0,116.0
10847,39.0,0,672,8.0,116.0
10848,63.0,0,672,6.0,116.0
10849,51.0,0,672,7.0,116.0
10850,82.0,240,192,4.0,116.0
10851,67.0,240,768,3.0,116.0
10852,79.0,0,768,0.0,116.0
10853,55.0,0,768,2.0,116.0
10854,58.0,0,768,3.0,116.0
10855,67.0,0,768,1.0,116.0
10856,79.0,0,768,1.0,116.0
10857,82.0,0,192,4.0,116.0
10858,79.0,240,192,5.0,116.0
10859,81.0,0,192,5.0,116.0
10860,84.0,0,192,4.0,116.0
10861,81.0,240,192,5.0,116.0
10862,84.0,0,192,4.0,116.0
10863,81.0,240,192,5.0,116.0
10864,36.0,0,672,8.0,116.0
10865,60.0,0,672,6.0,116.0
10866,48.0,0,672,7.0,116.0
10867,84.0,0,192,4.0,116.0
10868,57.0,240,768,2.0,116.0
10869,84.0,0,768,1.0,116.0
10870,72.0,0,768,1.0,116.0
10871,81.0,0,768,0.0,116.0
10872,60.0,0,768,2.0,116.0
10873,81.0,240,192,5.0,116.0
10874,84.0,0,192,4.0,116.0
10875,78.0,0,192,5.0,116.0
10876,81.0,0,192,4.0,116.0
10877,81.0,240,192,4.0,116.0
10878,78.0,0,192,5.0,116.0
10879,62.0,0,672,6.0,116.0
10880,78.0,240,192,5.0,116.0
10881,81.0,0,192,4.0,116.0
10882,38.0,0,672,8.0,116.0
10883,50.0,0,672,7.0,116.0
10884,78.0,0,768,1.0,116.0
10885,81.0,0,768,1.0,116.0
10886,90.0,240,768,0.0,116.0
10887,62.0,0,768,3.0,116.0
10888,57.0,0,768,2.0,116.0
10889,54.0,0,768,2.0,116.0
10890,81.0,0,192,4.0,116.0
10891,78.0,240,192,5.0,116.0
10892,31.0,0,168,8.0,127.0
10893,43.0,0,168,7.0,127.0
10894,55.0,0,384,6.0,116.0
10895,79.0,0,384,5.0,116.0
10896,45.0,0,168,7.0,116.0
10897,33.0,240,168,8.0,116.0
10898,46.0,240,168,7.0,116.0
10899,34.0,0,168,8.0,116.0
10900,91.0,0,768,0.0,116.0
10901,79.0,0,768,4.0,116.0
10902,55.0,240,768,2.0,116.0
10903,79.0,0,816,1.0,116.0
10904,55.0,0,336,3.0,116.0
10905,58.0,0,816,3.0,116.0
10906,67.0,0,336,1.0,116.0
10907,48.0,0,168,7.0,116.0
10908,36.0,240,168,8.0,116.0
10909,38.0,240,168,8.0,116.0
10910,50.0,0,168,7.0,116.0
10911,62.0,0,768,5.0,116.0
10912,70.0,0,768,5.0,116.0
10913,67.0,0,768,6.0,116.0
10914,74.0,0,336,1.0,116.0
10915,62.0,0,336,3.0,116.0
10916,52.0,240,168,7.0,116.0
10917,40.0,0,168,8.0,116.0
10918,54.0,0,168,7.0,116.0
10919,42.0,0,168,8.0,116.0
10920,62.0,0,336,3.0,116.0
10921,79.0,240,336,0.0,116.0
10922,58.0,0,336,2.0,116.0
10923,70.0,0,336,1.0,116.0
10924,74.0,0,336,1.0,116.0
10925,55.0,0,336,2.0,116.0
10926,67.0,0,384,6.0,116.0
10927,62.0,0,384,5.0,116.0
10928,70.0,0,384,5.0,116.0
10929,43.0,240,168,8.0,116.0
10930,55.0,0,168,7.0,116.0
10931,79.0,0,192,4.0,124.0
10932,62.0,240,192,5.0,116.0
10933,72.0,0,192,5.0,116.0
10934,69.0,0,192,6.0,116.0
10935,78.0,0,240,4.0,127.0
10936,54.0,0,336,2.0,116.0
10937,69.0,0,336,1.0,116.0
10938,57.0,0,336,2.0,116.0
10939,78.0,0,336,0.0,116.0
10940,81.0,240,168,4.0,124.0
10941,62.0,0,192,5.0,116.0
10942,72.0,0,192,5.0,116.0
10943,69.0,0,192,6.0,116.0
10944,84.0,240,168,4.0,124.0
10945,69.0,0,192,6.0,116.0
10946,72.0,0,192,5.0,116.0
10947,62.0,0,192,5.0,116.0
10948,38.0,0,768,8.0,116.0
10949,50.0,0,768,7.0,116.0
10950,54.0,0,336,2.0,116.0
10951,74.0,0,336,0.0,116.0
10952,66.0,0,336,1.0,116.0
10953,74.0,0,816,1.0,116.0
10954,50.0,0,336,2.0,116.0
10955,81.0,0,168,4.0,124.0
10956,62.0,0,192,5.0,116.0
10957,69.0,0,192,6.0,116.0
10958,72.0,240,192,5.0,116.0
10959,69.0,0,192,6.0,116.0
10960,62.0,0,1152,3.0,116.0
10961,62.0,240,192,5.0,116.0
10962,72.0,0,192,5.0,116.0
10963,84.0,0,240,4.0,124.0
10964,86.0,0,336,0.0,116.0
10965,62.0,0,336,2.0,116.0
10966,54.0,0,336,2.0,116.0
10967,78.0,0,336,1.0,116.0
10968,81.0,0,168,4.0,124.0
10969,69.0,240,192,6.0,116.0
10970,72.0,0,192,5.0,116.0
10971,62.0,0,192,5.0,116.0
10972,78.0,0,168,4.0,124.0
10973,72.0,0,192,5.0,116.0
10974,69.0,0,192,6.0,116.0
10975,62.0,0,192,5.0,116.0
10976,86.0,0,336,0.0,116.0
10977,62.0,0,336,2.0,116.0
10978,54.0,0,336,2.0,116.0
10979,74.0,240,336,1.0,116.0
10980,78.0,0,336,1.0,116.0
10981,62.0,0,384,3.0,116.0
10982,81.0,0,168,4.0,124.0
10983,69.0,0,192,6.0,116.0
10984,26.0,0,192,8.0,116.0
10985,72.0,0,192,5.0,116.0
10986,62.0,0,192,5.0,116.0
10987,38.0,240,192,7.0,116.0
10988,31.0,0,168,8.0,127.0
10989,43.0,0,168,7.0,127.0
10990,67.0,0,192,6.0,116.0
10991,62.0,0,192,5.0,116.0
10992,70.0,240,192,5.0,116.0
10993,70.0,0,336,1.0,116.0
10994,33.0,0,168,8.0,116.0
10995,45.0,0,168,7.0,116.0
10996,70.0,0,192,5.0,116.0
10997,62.0,0,192,5.0,116.0
10998,67.0,240,192,6.0,116.0
10999,34.0,0,168,8.0,116.0
11000,46.0,0,168,7.0,116.0
11001,67.0,0,192,6.0,116.0
11002,62.0,0,192,5.0,116.0
11003,70.0,240,192,5.0,116.0
11004,79.0,0,768,4.0,124.0
11005,55.0,0,336,3.0,116.0
11006,58.0,0,816,3.0,116.0
11007,67.0,0,336,1.0,116.0
11008,48.0,0,168,7.0,116.0
11009,36.0,0,168,8.0,116.0
11010,67.0,0,192,6.0,116.0
11011,62.0,240,192,5.0,116.0
11012,70.0,0,192,5.0,116.0
11013,50.0,0,168,7.0,116.0
11014,38.0,0,168,8.0,116.0
11015,58.0,0,1152,2.0,116.0
11016,62.0,0,192,5.0,116.0
11017,70.0,0,192,5.0,116.0
11018,82.0,0,1152,0.0,116.0
11019,67.0,0,192,6.0,116.0
11020,55.0,0,1152,2.0,116.0
11021,79.0,0,1296,1.0,116.0
11022,74.0,0,336,1.0,116.0
11023,62.0,240,336,3.0,116.0
11024,52.0,240,168,7.0,116.0
11025,40.0,0,168,8.0,116.0
11026,67.0,0,192,6.0,116.0
11027,62.0,0,192,5.0,116.0
11028,70.0,0,192,5.0,116.0
11029,42.0,0,168,8.0,116.0
11030,54.0,0,168,7.0,116.0
11031,67.0,0,192,6.0,116.0
11032,62.0,240,192,5.0,116.0
11033,70.0,0,192,5.0,116.0
11034,62.0,0,336,3.0,116.0
11035,58.0,0,336,2.0,116.0
11036,55.0,0,336,2.0,116.0
11037,70.0,0,336,1.0,116.0
11038,74.0,0,336,1.0,116.0
11039,79.0,0,336,0.0,116.0
11040,55.0,0,168,7.0,116.0
11041,43.0,0,168,8.0,116.0
11042,67.0,0,192,6.0,116.0
11043,62.0,0,192,5.0,116.0
11044,79.0,240,192,4.0,124.0
11045,70.0,0,192,5.0,116.0
11046,62.0,0,192,5.0,116.0
11047,72.0,0,192,5.0,116.0
11048,69.0,0,192,6.0,116.0
11049,78.0,0,240,4.0,127.0
11050,69.0,0,336,1.0,116.0
11051,78.0,0,336,0.0,116.0
11052,57.0,240,336,2.0,116.0
11053,54.0,0,336,2.0,116.0
11054,81.0,0,168,4.0,124.0
11055,72.0,0,192,5.0,116.0
11056,62.0,0,192,5.0,116.0
11057,69.0,240,192,6.0,116.0
11058,84.0,0,168,4.0,124.0
11059,72.0,0,192,5.0,116.0
11060,62.0,0,192,5.0,116.0
11061,69.0,240,192,6.0,116.0
11062,50.0,0,768,7.0,116.0
11063,38.0,0,768,8.0,116.0
11064,74.0,0,336,0.0,116.0
11065,54.0,0,336,2.0,116.0
11066,50.0,0,336,2.0,116.0
11067,66.0,0,336,1.0,116.0
11068,81.0,240,168,4.0,124.0
11069,62.0,0,192,5.0,116.0
11070,72.0,0,192,5.0,116.0
11071,69.0,0,192,6.0,116.0
11072,62.0,0,1152,3.0,116.0
11073,69.0,0,192,6.0,116.0
11074,72.0,0,192,5.0,116.0
11075,62.0,0,192,5.0,116.0
11076,84.0,240,240,4.0,124.0
11077,86.0,0,336,0.0,116.0
11078,78.0,0,336,1.0,116.0
11079,74.0,0,1296,1.0,116.0
11080,54.0,0,336,2.0,116.0
11081,62.0,0,336,2.0,116.0
11082,81.0,0,168,4.0,124.0
11083,72.0,0,192,5.0,116.0
11084,62.0,0,192,5.0,116.0
11085,69.0,240,192,6.0,116.0
11086,78.0,0,168,4.0,124.0
11087,69.0,0,192,6.0,116.0
11088,72.0,0,192,5.0,116.0
11089,62.0,240,192,5.0,116.0
11090,54.0,0,336,2.0,116.0
11091,86.0,0,336,0.0,116.0
11092,62.0,0,336,2.0,116.0
11093,78.0,0,336,1.0,116.0
11094,62.0,0,384,3.0,116.0
11095,81.0,0,168,4.0,124.0
11096,69.0,240,192,6.0,116.0
11097,62.0,0,192,5.0,116.0
11098,72.0,0,192,5.0,116.0
11099,26.0,0,192,8.0,116.0
11100,38.0,0,192,7.0,116.0
11101,43.0,0,168,7.0,127.0
11102,31.0,0,168,8.0,127.0
11103,67.0,0,192,6.0,116.0
11104,70.0,0,192,5.0,116.0
11105,62.0,0,192,5.0,116.0
11106,70.0,0,336,1.0,116.0
11107,33.0,0,168,8.0,116.0
11108,45.0,240,168,7.0,116.0
11109,62.0,0,192,5.0,116.0
11110,70.0,0,192,5.0,116.0
11111,67.0,0,192,6.0,116.0
11112,46.0,0,168,7.0,116.0
11113,34.0,0,168,8.0,116.0
11114,67.0,0,192,6.0,116.0
11115,70.0,0,192,5.0,116.0
11116,62.0,0,192,5.0,116.0
11117,79.0,0,768,4.0,124.0
11118,58.0,0,816,3.0,116.0
11119,55.0,240,336,3.0,116.0
11120,67.0,0,336,1.0,116.0
11121,48.0,240,168,7.0,116.0
11122,36.0,0,168,8.0,116.0
11123,67.0,0,192,6.0,116.0
11124,62.0,0,192,5.0,116.0
11125,70.0,0,192,5.0,116.0
11126,38.0,0,168,8.0,116.0
11127,50.0,0,168,7.0,116.0
11128,82.0,240,1152,0.0,116.0
11129,55.0,0,1152,2.0,116.0
11130,58.0,0,1152,2.0,116.0
11131,70.0,0,192,5.0,116.0
11132,62.0,0,192,5.0,116.0
11133,67.0,0,192,6.0,116.0
11134,62.0,240,336,3.0,116.0
11135,74.0,0,336,1.0,116.0
11136,79.0,0,1296,1.0,116.0
11137,52.0,0,168,7.0,116.0
11138,40.0,0,168,8.0,116.0
11139,67.0,0,192,6.0,116.0
11140,62.0,0,192,5.0,116.0
11141,70.0,240,192,5.0,116.0
11142,42.0,0,168,8.0,116.0
11143,54.0,0,168,7.0,116.0
11144,62.0,0,192,5.0,116.0
11145,70.0,0,192,5.0,116.0
11146,67.0,240,192,6.0,116.0
11147,55.0,0,336,2.0,116.0
11148,79.0,0,336,0.0,116.0
11149,70.0,0,336,1.0,116.0
11150,62.0,0,336,3.0,116.0
11151,58.0,0,336,2.0,116.0
11152,74.0,0,336,1.0,116.0
11153,43.0,240,168,8.0,116.0
11154,55.0,0,168,7.0,116.0
11155,79.0,0,192,4.0,124.0
11156,67.0,0,192,6.0,116.0
11157,62.0,0,192,5.0,116.0
11158,70.0,0,192,5.0,116.0
11159,62.0,0,192,5.0,116.0
11160,69.0,0,192,6.0,116.0
11161,72.0,0,192,5.0,116.0
11162,78.0,240,240,4.0,127.0
11163,54.0,0,336,2.0,116.0
11164,69.0,0,336,1.0,116.0
11165,78.0,0,336,0.0,116.0
11166,57.0,0,336,2.0,116.0
11167,81.0,240,168,4.0,124.0
11168,62.0,0,192,5.0,116.0
11169,72.0,0,192,5.0,116.0
11170,69.0,0,192,6.0,116.0
11171,84.0,0,168,4.0,124.0
11172,72.0,0,192,5.0,116.0
11173,62.0,240,192,5.0,116.0
11174,69.0,0,192,6.0,116.0
11175,50.0,0,768,7.0,116.0
11176,38.0,0,768,8.0,116.0
11177,66.0,0,336,1.0,116.0
11178,50.0,0,336,2.0,116.0
11179,74.0,0,336,0.0,116.0
11180,54.0,0,336,2.0,116.0
11181,81.0,240,168,4.0,124.0
11182,69.0,0,192,6.0,116.0
11183,72.0,0,192,5.0,116.0
11184,62.0,0,192,5.0,116.0
11185,62.0,0,1152,3.0,116.0
11186,69.0,0,192,6.0,116.0
11187,72.0,0,192,5.0,116.0
11188,62.0,0,192,5.0,116.0
11189,84.0,240,240,4.0,124.0
11190,62.0,0,336,2.0,116.0
11191,74.0,0,1296,1.0,116.0
11192,86.0,0,336,0.0,116.0
11193,54.0,0,336,2.0,116.0
11194,78.0,0,336,1.0,116.0
11195,81.0,0,168,4.0,124.0
11196,69.0,0,192,6.0,116.0
11197,62.0,0,192,5.0,116.0
11198,72.0,240,192,5.0,116.0
11199,78.0,0,168,4.0,124.0
11200,72.0,0,192,5.0,116.0
11201,62.0,0,192,5.0,116.0
11202,69.0,240,192,6.0,116.0
11203,86.0,0,336,0.0,116.0
11204,54.0,0,336,2.0,116.0
11205,78.0,0,336,1.0,116.0
11206,62.0,0,336,2.0,116.0
11207,62.0,0,384,3.0,116.0
11208,81.0,240,168,4.0,124.0
11209,69.0,0,192,6.0,116.0
11210,38.0,0,192,7.0,116.0
11211,62.0,0,192,5.0,116.0
11212,26.0,0,192,8.0,116.0
11213,72.0,0,192,5.0,116.0
11214,79.0,0,384,0.0,116.0
11215,55.0,0,384,3.0,116.0
11216,31.0,0,384,8.0,116.0
11217,58.0,0,384,3.0,116.0
11218,43.0,0,384,7.0,116.0
11219,70.0,240,384,5.0,116.0
11220,67.0,0,384,6.0,116.0
11221,79.0,0,384,1.0,116.0
11222,70.0,0,384,1.0,116.0
11223,79.0,0,384,4.0,124.0
11224,62.0,0,384,5.0,116.0
11225,55.0,0,384,2.0,116.0
11226,67.0,0,384,4.0,124.0
11227,82.0,0,384,4.0,124.0
11228,74.0,0,384,4.0,124.0
11229,62.0,960,384,3.0,116.0
11230,55.0,0,384,7.0,116.0
11231,70.0,0,384,5.0,116.0
11232,79.0,0,384,5.0,116.0
11233,62.0,0,384,5.0,116.0
11234,67.0,0,384,6.0,116.0
11235,43.0,0,384,8.0,116.0
11236,58.0,0,384,3.0,116.0
11237,91.0,0,384,0.0,116.0
11238,82.0,0,384,1.0,116.0
11239,55.0,0,384,2.0,116.0
11240,74.0,0,384,1.0,116.0
11241,31.0,0,960,8.0,116.0
11242,43.0,0,960,7.0,116.0
11243,67.0,0,960,5.0,116.0
11244,67.0,0,960,4.0,116.0
11245,55.0,0,960,4.0,116.0
11246,55.0,0,960,3.0,116.0
11247,55.0,0,960,5.0,116.0
11248,58.0,0,960,3.0,116.0
11249,43.0,0,960,2.0,116.0
11250,70.0,0,960,1.0,116.0
11251,79.0,0,960,1.0,116.0
11252,79.0,0,960,0.0,116.0
11253,55.0,960,960,6.0,116.0
11254,17.0,3840,768,8.0,1.0
