,note,step,duration,channel,velocity
0,70.0,0,288,0.0,105.0
1,63.0,0,288,0.0,105.0
2,70.0,0,96,0.0,105.0
3,63.0,360,96,0.0,105.0
4,63.0,120,192,0.0,105.0
5,70.0,0,192,0.0,105.0
6,72.0,0,288,0.0,105.0
7,68.0,240,288,0.0,105.0
8,70.0,0,96,0.0,105.0
9,63.0,360,96,0.0,105.0
10,68.0,0,192,0.0,105.0
11,60.0,120,192,0.0,105.0
12,63.0,0,24,0.0,105.0
13,70.0,240,24,0.0,105.0
14,75.0,30,1218,0.0,125.0
15,63.0,1410,288,0.0,72.0
16,70.0,0,288,0.0,72.0
17,63.0,0,96,0.0,72.0
18,70.0,360,96,0.0,72.0
19,63.0,120,192,0.0,72.0
20,70.0,0,192,0.0,72.0
21,72.0,0,288,0.0,72.0
22,68.0,240,288,0.0,72.0
23,63.0,360,96,0.0,72.0
24,70.0,0,96,0.0,72.0
25,68.0,0,192,0.0,72.0
26,60.0,120,192,0.0,72.0
27,70.0,240,24,0.0,72.0
28,63.0,0,24,0.0,72.0
29,75.0,30,1218,0.0,92.0
30,63.0,0,288,0.0,72.0
31,70.0,1410,288,0.0,72.0
32,63.0,360,96,0.0,72.0
33,70.0,0,96,0.0,72.0
34,63.0,0,192,0.0,72.0
35,70.0,120,192,0.0,72.0
36,68.0,240,288,0.0,72.0
37,72.0,0,288,0.0,72.0
38,70.0,360,96,0.0,72.0
39,63.0,0,96,0.0,72.0
40,68.0,0,192,0.0,72.0
41,60.0,120,192,0.0,72.0
42,70.0,240,288,0.0,85.0
43,63.0,0,288,0.0,85.0
44,70.0,0,96,0.0,85.0
45,63.0,360,96,0.0,85.0
46,63.0,0,192,0.0,85.0
47,70.0,120,192,0.0,85.0
48,72.0,0,288,0.0,85.0
49,68.0,240,288,0.0,85.0
50,70.0,360,96,0.0,85.0
51,63.0,0,96,0.0,85.0
52,68.0,0,192,0.0,85.0
53,60.0,120,192,0.0,85.0
54,51.0,0,192,0.0,94.0
55,70.0,240,192,0.0,94.0
56,61.0,0,192,0.0,94.0
57,58.0,0,192,0.0,94.0
58,67.0,0,192,0.0,94.0
59,63.0,0,192,0.0,94.0
60,58.0,0,192,0.0,94.0
61,51.0,0,192,0.0,94.0
62,61.0,0,192,0.0,94.0
63,63.0,0,192,0.0,94.0
64,70.0,0,192,0.0,94.0
65,67.0,480,192,0.0,94.0
66,51.0,0,192,0.0,94.0
67,58.0,240,192,0.0,94.0
68,61.0,0,192,0.0,94.0
69,63.0,0,192,0.0,94.0
70,70.0,0,192,0.0,94.0
71,67.0,0,192,0.0,94.0
72,51.0,480,192,0.0,94.0
73,58.0,0,192,0.0,94.0
74,61.0,0,192,0.0,94.0
75,63.0,0,192,0.0,94.0
76,67.0,0,192,0.0,94.0
77,70.0,0,192,0.0,94.0
78,39.0,0,192,0.0,105.0
79,51.0,0,192,0.0,105.0
80,67.0,0,192,0.0,105.0
81,63.0,0,192,0.0,105.0
82,61.0,0,192,0.0,105.0
83,70.0,240,192,0.0,105.0
84,39.0,480,192,0.0,105.0
85,51.0,0,192,0.0,105.0
86,61.0,0,192,0.0,105.0
87,63.0,0,192,0.0,105.0
88,67.0,0,192,0.0,105.0
89,71.0,0,192,0.0,105.0
90,51.0,240,192,0.0,105.0
91,39.0,0,192,0.0,105.0
92,67.0,0,384,0.0,105.0
93,61.0,0,384,0.0,105.0
94,63.0,0,384,0.0,105.0
95,72.0,0,384,0.0,105.0
96,51.0,240,192,0.0,105.0
97,39.0,0,192,0.0,105.0
98,51.0,0,192,0.0,105.0
99,70.0,240,192,0.0,105.0
100,61.0,0,192,0.0,105.0
101,67.0,0,192,0.0,105.0
102,63.0,0,192,0.0,105.0
103,39.0,0,192,0.0,105.0
104,44.0,0,192,0.0,116.0
105,60.0,240,384,0.0,116.0
106,68.0,0,384,0.0,116.0
107,56.0,240,192,0.0,116.0
108,51.0,240,192,0.0,116.0
109,63.0,0,192,0.0,116.0
110,60.0,240,192,0.0,72.0
111,44.0,0,192,0.0,72.0
112,63.0,240,96,0.0,72.0
113,56.0,0,192,0.0,72.0
114,63.0,120,96,0.0,72.0
115,63.0,0,192,0.0,72.0
116,51.0,120,192,0.0,72.0
117,60.0,0,192,0.0,72.0
118,44.0,240,192,0.0,72.0
119,56.0,0,192,0.0,72.0
120,65.0,240,192,0.0,72.0
121,51.0,0,192,0.0,72.0
122,63.0,240,192,0.0,72.0
123,44.0,0,192,0.0,85.0
124,60.0,240,192,0.0,85.0
125,63.0,240,96,0.0,85.0
126,56.0,0,192,0.0,85.0
127,63.0,120,96,0.0,85.0
128,51.0,0,192,0.0,85.0
129,63.0,120,192,0.0,85.0
130,44.0,0,192,0.0,94.0
131,60.0,240,192,0.0,94.0
132,63.0,0,96,0.0,94.0
133,56.0,240,192,0.0,94.0
134,63.0,120,96,0.0,94.0
135,63.0,120,192,0.0,94.0
136,51.0,0,192,0.0,94.0
137,68.0,0,192,0.0,105.0
138,60.0,240,192,0.0,105.0
139,44.0,0,192,0.0,105.0
140,56.0,0,192,0.0,105.0
141,63.0,240,192,0.0,105.0
142,51.0,0,192,0.0,105.0
143,72.0,240,192,0.0,105.0
144,44.0,0,192,0.0,116.0
145,70.0,240,192,0.0,116.0
146,61.0,0,192,0.0,116.0
147,55.0,0,192,0.0,116.0
148,63.0,240,192,0.0,116.0
149,51.0,0,192,0.0,116.0
150,75.0,240,192,0.0,116.0
151,44.0,0,192,0.0,116.0
152,63.0,0,384,0.0,127.0
153,72.0,0,384,0.0,127.0
154,75.0,240,384,0.0,127.0
155,56.0,240,192,0.0,116.0
156,63.0,0,192,0.0,116.0
157,51.0,240,192,0.0,116.0
158,60.0,240,192,0.0,72.0
159,44.0,0,192,0.0,72.0
160,56.0,240,192,0.0,72.0
161,65.0,0,192,0.0,72.0
162,51.0,0,192,0.0,72.0
163,63.0,240,192,0.0,72.0
164,44.0,240,192,0.0,72.0
165,60.0,0,192,0.0,72.0
166,63.0,240,96,0.0,72.0
167,56.0,0,192,0.0,72.0
168,63.0,120,96,0.0,72.0
169,51.0,0,192,0.0,72.0
170,63.0,120,192,0.0,72.0
171,44.0,0,192,0.0,85.0
172,60.0,240,192,0.0,85.0
173,56.0,0,192,0.0,85.0
174,65.0,240,192,0.0,85.0
175,51.0,0,192,0.0,85.0
176,63.0,240,192,0.0,85.0
177,44.0,240,192,0.0,94.0
178,60.0,0,192,0.0,94.0
179,63.0,240,96,0.0,94.0
180,56.0,0,192,0.0,94.0
181,63.0,120,96,0.0,94.0
182,63.0,120,192,0.0,94.0
183,51.0,0,192,0.0,94.0
184,44.0,0,192,0.0,105.0
185,60.0,240,192,0.0,105.0
186,63.0,240,96,0.0,105.0
187,56.0,0,192,0.0,105.0
188,63.0,120,96,0.0,105.0
189,63.0,120,192,0.0,105.0
190,51.0,0,192,0.0,105.0
191,44.0,0,192,0.0,116.0
192,60.0,0,192,0.0,116.0
193,68.0,240,192,0.0,116.0
194,56.0,0,192,0.0,116.0
195,63.0,240,192,0.0,116.0
196,72.0,240,192,0.0,116.0
197,51.0,0,192,0.0,116.0
198,70.0,0,192,0.0,105.0
199,44.0,240,192,0.0,105.0
200,61.0,0,192,0.0,105.0
201,56.0,0,192,0.0,105.0
202,63.0,240,192,0.0,105.0
203,51.0,0,192,0.0,105.0
204,72.0,240,192,0.0,105.0
205,44.0,0,192,0.0,94.0
206,70.0,0,192,0.0,94.0
207,61.0,240,192,0.0,94.0
208,63.0,0,192,0.0,94.0
209,56.0,240,192,0.0,94.0
210,51.0,0,192,0.0,85.0
211,72.0,240,192,0.0,85.0
212,44.0,240,192,0.0,85.0
213,68.0,0,192,0.0,85.0
214,60.0,0,192,0.0,85.0
215,68.0,0,384,1.0,85.0
216,56.0,0,192,0.0,85.0
217,63.0,240,192,0.0,85.0
218,72.0,0,192,0.0,85.0
219,68.0,0,192,1.0,85.0
220,51.0,240,192,0.0,85.0
221,68.0,0,192,0.0,85.0
222,61.0,0,192,0.0,85.0
223,49.0,0,192,0.0,85.0
224,67.0,240,384,1.0,85.0
225,65.0,0,192,0.0,85.0
226,56.0,240,192,0.0,85.0
227,73.0,0,192,0.0,85.0
228,53.0,240,192,0.0,85.0
229,65.0,0,192,1.0,85.0
230,61.0,240,192,0.0,94.0
231,70.0,0,192,0.0,94.0
232,46.0,0,192,0.0,94.0
233,70.0,0,384,1.0,94.0
234,65.0,0,192,0.0,94.0
235,58.0,240,192,0.0,94.0
236,70.0,0,192,1.0,94.0
237,73.0,0,192,0.0,94.0
238,53.0,240,192,0.0,94.0
239,70.0,0,192,0.0,94.0
240,51.0,240,192,0.0,94.0
241,63.0,0,192,0.0,94.0
242,68.0,0,384,1.0,94.0
243,67.0,0,192,0.0,94.0
244,58.0,240,192,0.0,94.0
245,67.0,0,192,1.0,94.0
246,55.0,240,192,0.0,94.0
247,75.0,0,192,0.0,94.0
248,48.0,240,192,0.0,105.0
249,72.0,0,192,0.0,105.0
250,63.0,0,192,0.0,105.0
251,72.0,0,384,1.0,105.0
252,60.0,0,192,0.0,105.0
253,67.0,240,192,0.0,105.0
254,55.0,0,192,0.0,105.0
255,75.0,240,192,0.0,105.0
256,72.0,0,192,1.0,105.0
257,53.0,0,192,0.0,116.0
258,65.0,0,192,0.0,116.0
259,72.0,240,192,0.0,116.0
260,70.0,0,384,1.0,116.0
261,60.0,0,192,0.0,116.0
262,68.0,240,192,0.0,116.0
263,68.0,0,192,1.0,116.0
264,56.0,0,192,0.0,116.0
265,77.0,240,192,0.0,116.0
266,70.0,0,576,0.0,116.0
267,68.0,240,576,0.0,116.0
268,76.0,0,576,0.0,116.0
269,64.0,0,576,0.0,116.0
270,46.0,0,576,0.0,116.0
271,56.0,0,576,0.0,116.0
272,61.0,0,576,0.0,116.0
273,73.0,0,576,1.0,116.0
274,52.0,0,576,0.0,116.0
275,70.0,0,384,1.0,72.0
276,51.0,1440,384,0.0,72.0
277,70.0,0,192,0.0,72.0
278,75.0,240,192,0.0,72.0
279,67.0,0,192,0.0,72.0
280,70.0,0,192,1.0,72.0
281,63.0,240,192,0.0,72.0
282,56.0,240,384,0.0,72.0
283,72.0,0,384,1.0,72.0
284,72.0,0,192,0.0,72.0
285,66.0,240,192,0.0,72.0
286,68.0,0,192,0.0,72.0
287,63.0,240,192,0.0,72.0
288,72.0,0,192,1.0,72.0
289,49.0,240,384,0.0,72.0
290,73.0,0,384,1.0,72.0
291,73.0,0,192,0.0,72.0
292,68.0,0,192,0.0,72.0
293,65.0,240,192,0.0,72.0
294,65.0,0,192,1.0,72.0
295,61.0,240,192,0.0,72.0
296,72.0,240,384,1.0,85.0
297,49.0,0,384,0.0,85.0
298,73.0,0,192,0.0,85.0
299,64.0,240,192,0.0,85.0
300,70.0,0,192,0.0,85.0
301,70.0,0,192,1.0,85.0
302,61.0,240,192,0.0,85.0
303,68.0,240,192,1.0,94.0
304,51.0,0,384,0.0,94.0
305,68.0,0,192,0.0,94.0
306,72.0,0,192,0.0,94.0
307,63.0,240,192,0.0,94.0
308,67.0,0,192,1.0,94.0
309,60.0,240,192,0.0,94.0
310,68.0,0,192,1.0,94.0
311,69.0,0,384,1.0,94.0
312,51.0,240,384,0.0,105.0
313,70.0,0,192,0.0,105.0
314,67.0,0,192,0.0,105.0
315,63.0,240,192,0.0,105.0
316,70.0,240,192,1.0,105.0
317,58.0,0,192,0.0,105.0
318,38.0,0,192,0.0,105.0
319,50.0,240,192,0.0,105.0
320,50.0,0,192,0.0,105.0
321,58.0,0,192,0.0,105.0
322,70.0,0,192,0.0,105.0
323,68.0,240,192,0.0,105.0
324,65.0,0,192,0.0,105.0
325,58.0,0,192,0.0,105.0
326,65.0,0,192,0.0,105.0
327,68.0,0,192,0.0,105.0
328,70.0,0,192,0.0,105.0
329,50.0,240,192,0.0,105.0
330,58.0,0,192,0.0,105.0
331,68.0,0,192,0.0,105.0
332,65.0,0,192,0.0,105.0
333,70.0,240,192,0.0,105.0
334,50.0,0,192,0.0,105.0
335,58.0,0,192,0.0,94.0
336,70.0,0,192,0.0,94.0
337,65.0,0,192,0.0,94.0
338,68.0,240,192,0.0,94.0
339,50.0,0,192,0.0,94.0
340,77.0,0,1152,1.0,116.0
341,68.0,0,192,0.0,94.0
342,65.0,0,192,0.0,94.0
343,70.0,0,192,0.0,94.0
344,58.0,0,192,0.0,94.0
345,50.0,240,192,0.0,94.0
346,70.0,0,384,1.0,72.0
347,51.0,240,384,0.0,72.0
348,63.0,0,192,0.0,72.0
349,67.0,0,192,0.0,72.0
350,70.0,240,192,0.0,72.0
351,61.0,240,192,0.0,72.0
352,70.0,0,192,1.0,72.0
353,44.0,240,384,0.0,72.0
354,72.0,0,384,1.0,72.0
355,66.0,240,192,0.0,72.0
356,72.0,0,192,0.0,72.0
357,68.0,0,192,0.0,72.0
358,72.0,0,192,1.0,72.0
359,63.0,240,192,0.0,72.0
360,73.0,240,384,1.0,72.0
361,73.0,0,192,0.0,72.0
362,68.0,240,192,0.0,72.0
363,65.0,0,192,0.0,72.0
364,49.0,0,576,0.0,72.0
365,61.0,240,192,0.0,72.0
366,65.0,0,192,1.0,72.0
367,72.0,240,384,1.0,85.0
368,73.0,240,192,0.0,85.0
369,68.0,0,192,0.0,85.0
370,64.0,0,192,0.0,85.0
371,49.0,0,576,0.0,85.0
372,61.0,0,192,0.0,85.0
373,70.0,240,192,1.0,85.0
374,68.0,240,192,1.0,94.0
375,68.0,0,192,0.0,94.0
376,72.0,0,192,0.0,94.0
377,63.0,0,192,0.0,94.0
378,67.0,240,192,1.0,94.0
379,51.0,0,576,0.0,94.0
380,60.0,240,192,0.0,94.0
381,68.0,0,192,1.0,94.0
382,72.0,0,384,1.0,94.0
383,63.0,0,192,0.0,94.0
384,67.0,240,192,0.0,94.0
385,72.0,0,192,0.0,94.0
386,51.0,240,576,0.0,94.0
387,61.0,240,192,0.0,94.0
388,70.0,0,192,1.0,94.0
389,51.0,0,192,0.0,105.0
390,63.0,0,192,0.0,105.0
391,60.0,0,192,0.0,105.0
392,68.0,0,192,0.0,105.0
393,51.0,0,192,0.0,105.0
394,60.0,240,192,0.0,105.0
395,68.0,0,192,0.0,105.0
396,63.0,0,192,0.0,105.0
397,51.0,0,192,0.0,105.0
398,60.0,0,192,0.0,105.0
399,63.0,0,192,0.0,105.0
400,68.0,240,192,0.0,105.0
401,51.0,0,192,0.0,105.0
402,63.0,0,192,0.0,116.0
403,60.0,0,192,0.0,116.0
404,69.0,0,192,0.0,116.0
405,66.0,240,192,0.0,116.0
406,60.0,240,192,0.0,116.0
407,66.0,0,192,0.0,116.0
408,51.0,0,192,0.0,116.0
409,63.0,0,192,0.0,116.0
410,69.0,0,192,0.0,116.0
411,75.0,240,1344,1.0,116.0
412,51.0,0,192,0.0,116.0
413,63.0,0,192,0.0,116.0
414,60.0,0,192,0.0,116.0
415,66.0,240,192,0.0,116.0
416,69.0,0,192,0.0,116.0
417,51.0,0,192,0.0,116.0
418,61.0,0,192,0.0,116.0
419,70.0,0,192,0.0,116.0
420,67.0,0,192,0.0,116.0
421,63.0,0,192,0.0,116.0
422,39.0,240,192,0.0,116.0
423,77.0,0,384,1.0,127.0
424,63.0,0,192,0.0,116.0
425,67.0,0,192,0.0,116.0
426,61.0,0,192,0.0,116.0
427,70.0,0,192,0.0,116.0
428,39.0,0,192,0.0,116.0
429,51.0,240,192,0.0,116.0
430,75.0,0,192,1.0,116.0
431,63.0,0,192,0.0,116.0
432,70.0,0,192,0.0,116.0
433,67.0,0,192,0.0,116.0
434,61.0,0,192,0.0,116.0
435,51.0,0,192,0.0,116.0
436,39.0,240,192,0.0,105.0
437,73.0,0,192,1.0,105.0
438,39.0,240,192,0.0,105.0
439,51.0,0,192,0.0,105.0
440,67.0,0,192,0.0,105.0
441,70.0,0,192,0.0,105.0
442,61.0,0,192,0.0,105.0
443,63.0,0,192,0.0,105.0
444,72.0,0,192,1.0,105.0
445,51.0,0,192,0.0,105.0
446,63.0,0,192,0.0,94.0
447,67.0,0,192,0.0,94.0
448,61.0,0,192,0.0,94.0
449,39.0,240,192,0.0,94.0
450,70.0,0,192,0.0,105.0
451,51.0,0,192,0.0,94.0
452,39.0,0,192,0.0,94.0
453,70.0,240,192,0.0,94.0
454,63.0,0,192,0.0,94.0
455,67.0,0,192,0.0,94.0
456,70.0,0,192,1.0,94.0
457,61.0,0,192,0.0,94.0
458,44.0,240,192,0.0,105.0
459,60.0,0,384,0.0,105.0
460,68.0,0,384,0.0,105.0
461,56.0,240,192,0.0,105.0
462,68.0,0,576,1.0,105.0
463,51.0,240,192,0.0,105.0
464,63.0,0,192,0.0,105.0
465,44.0,0,192,0.0,72.0
466,60.0,240,192,0.0,72.0
467,63.0,240,96,0.0,72.0
468,56.0,0,192,0.0,72.0
469,63.0,120,96,0.0,72.0
470,51.0,120,192,0.0,72.0
471,63.0,0,192,0.0,72.0
472,44.0,0,192,0.0,72.0
473,60.0,240,192,0.0,72.0
474,56.0,0,192,0.0,72.0
475,65.0,240,192,0.0,72.0
476,63.0,240,192,0.0,72.0
477,51.0,0,192,0.0,72.0
478,60.0,0,192,0.0,85.0
479,44.0,240,192,0.0,85.0
480,63.0,240,96,0.0,85.0
481,56.0,0,192,0.0,85.0
482,63.0,120,96,0.0,85.0
483,51.0,0,192,0.0,85.0
484,63.0,120,192,0.0,85.0
485,44.0,240,192,0.0,94.0
486,60.0,0,192,0.0,94.0
487,63.0,0,96,0.0,94.0
488,56.0,240,192,0.0,94.0
489,63.0,120,96,0.0,94.0
490,51.0,0,192,0.0,94.0
491,63.0,120,192,0.0,94.0
492,44.0,0,192,0.0,105.0
493,68.0,0,192,0.0,105.0
494,60.0,240,192,0.0,105.0
495,63.0,240,192,0.0,105.0
496,56.0,0,192,0.0,105.0
497,51.0,240,192,0.0,105.0
498,72.0,0,192,0.0,105.0
499,70.0,0,192,0.0,116.0
500,44.0,0,192,0.0,116.0
501,61.0,240,192,0.0,116.0
502,55.0,240,192,0.0,116.0
503,63.0,0,192,0.0,116.0
504,51.0,0,192,0.0,116.0
505,75.0,240,192,0.0,116.0
506,44.0,240,192,0.0,116.0
507,63.0,0,384,0.0,127.0
508,72.0,0,384,0.0,127.0
509,75.0,0,384,0.0,127.0
510,56.0,240,192,0.0,116.0
511,63.0,0,192,0.0,116.0
512,51.0,240,192,0.0,116.0
513,60.0,0,192,0.0,72.0
514,44.0,240,192,0.0,72.0
515,65.0,0,192,0.0,72.0
516,56.0,240,192,0.0,72.0
517,63.0,240,192,0.0,72.0
518,51.0,0,192,0.0,72.0
519,44.0,0,192,0.0,72.0
520,60.0,240,192,0.0,72.0
521,63.0,240,96,0.0,72.0
522,56.0,0,192,0.0,72.0
523,63.0,120,96,0.0,72.0
524,63.0,120,192,0.0,72.0
525,51.0,0,192,0.0,72.0
526,44.0,0,192,0.0,85.0
527,60.0,240,192,0.0,85.0
528,56.0,0,192,0.0,85.0
529,65.0,240,192,0.0,85.0
530,51.0,240,192,0.0,85.0
531,63.0,0,192,0.0,85.0
532,60.0,0,192,0.0,85.0
533,44.0,240,192,0.0,85.0
534,63.0,0,96,0.0,85.0
535,56.0,240,192,0.0,85.0
536,63.0,120,96,0.0,85.0
537,63.0,0,192,0.0,85.0
538,51.0,120,192,0.0,85.0
539,60.0,0,192,0.0,85.0
540,44.0,240,192,0.0,85.0
541,63.0,0,96,0.0,90.0
542,56.0,240,192,0.0,90.0
543,63.0,120,96,0.0,92.0
544,63.0,0,192,0.0,95.0
545,51.0,120,192,0.0,95.0
546,60.0,0,192,0.0,100.0
547,68.0,0,192,0.0,100.0
548,44.0,240,192,0.0,100.0
549,56.0,0,192,0.0,106.0
550,63.0,240,192,0.0,106.0
551,51.0,0,192,0.0,111.0
552,72.0,240,192,0.0,111.0
553,70.0,0,192,0.0,94.0
554,61.0,240,192,0.0,94.0
555,44.0,0,192,0.0,94.0
556,63.0,0,192,0.0,89.0
557,56.0,240,192,0.0,89.0
558,72.0,240,192,0.0,83.0
559,51.0,0,192,0.0,83.0
560,44.0,0,192,0.0,78.0
561,70.0,0,192,0.0,78.0
562,61.0,240,192,0.0,78.0
563,56.0,240,192,0.0,72.0
564,63.0,0,192,0.0,72.0
565,51.0,0,192,0.0,66.0
566,72.0,240,192,0.0,67.0
567,60.0,0,192,0.0,85.0
568,44.0,0,192,0.0,85.0
569,68.0,240,192,0.0,85.0
570,68.0,0,384,1.0,85.0
571,56.0,0,192,0.0,85.0
572,63.0,240,192,0.0,85.0
573,72.0,0,192,0.0,85.0
574,51.0,240,192,0.0,85.0
575,68.0,0,192,1.0,85.0
576,49.0,0,192,0.0,85.0
577,61.0,0,192,0.0,85.0
578,68.0,240,192,0.0,85.0
579,67.0,0,384,1.0,85.0
580,56.0,0,192,0.0,85.0
581,65.0,240,192,0.0,85.0
582,65.0,0,192,1.0,85.0
583,73.0,240,192,0.0,85.0
584,53.0,0,192,0.0,85.0
585,61.0,0,192,0.0,94.0
586,70.0,0,192,0.0,94.0
587,46.0,0,192,0.0,94.0
588,70.0,240,384,1.0,94.0
589,58.0,0,192,0.0,94.0
590,65.0,240,192,0.0,94.0
591,70.0,240,192,1.0,94.0
592,53.0,0,192,0.0,94.0
593,73.0,0,192,0.0,94.0
594,51.0,0,192,0.0,94.0
595,63.0,0,192,0.0,94.0
596,70.0,240,192,0.0,94.0
597,68.0,0,384,1.0,94.0
598,58.0,0,192,0.0,94.0
599,67.0,240,192,0.0,94.0
600,67.0,240,192,1.0,94.0
601,55.0,0,192,0.0,94.0
602,75.0,0,192,0.0,94.0
603,63.0,0,192,0.0,105.0
604,72.0,0,192,0.0,105.0
605,48.0,0,192,0.0,105.0
606,72.0,240,384,1.0,105.0
607,60.0,240,192,0.0,105.0
608,67.0,0,192,0.0,105.0
609,55.0,0,192,0.0,105.0
610,75.0,0,192,0.0,105.0
611,72.0,240,192,1.0,105.0
612,53.0,0,192,0.0,116.0
613,65.0,0,192,0.0,116.0
614,72.0,240,192,0.0,116.0
615,70.0,0,384,1.0,116.0
616,60.0,0,192,0.0,116.0
617,68.0,240,192,0.0,116.0
618,77.0,0,192,0.0,116.0
619,68.0,0,192,1.0,116.0
620,56.0,240,192,0.0,116.0
621,73.0,240,576,1.0,116.0
622,64.0,0,576,0.0,116.0
623,68.0,0,576,0.0,116.0
624,76.0,0,576,0.0,116.0
625,56.0,0,576,0.0,116.0
626,61.0,0,576,0.0,116.0
627,52.0,0,576,0.0,116.0
628,46.0,0,576,0.0,116.0
629,70.0,0,576,0.0,116.0
630,51.0,1440,384,0.0,72.0
631,70.0,0,384,1.0,72.0
632,67.0,0,192,0.0,72.0
633,75.0,0,192,0.0,72.0
634,70.0,240,192,0.0,72.0
635,70.0,0,192,1.0,72.0
636,63.0,240,192,0.0,72.0
637,56.0,240,384,0.0,72.0
638,72.0,0,384,1.0,72.0
639,72.0,0,192,0.0,72.0
640,66.0,0,192,0.0,72.0
641,68.0,240,192,0.0,72.0
642,72.0,240,192,1.0,72.0
643,63.0,0,192,0.0,72.0
644,73.0,240,384,1.0,72.0
645,49.0,0,384,0.0,72.0
646,68.0,240,192,0.0,72.0
647,73.0,0,192,0.0,72.0
648,65.0,0,192,0.0,72.0
649,65.0,0,192,1.0,72.0
650,61.0,240,192,0.0,72.0
651,72.0,0,384,1.0,85.0
652,49.0,240,384,0.0,85.0
653,73.0,0,192,0.0,85.0
654,64.0,0,192,0.0,85.0
655,70.0,240,192,0.0,85.0
656,70.0,0,192,1.0,85.0
657,61.0,240,192,0.0,85.0
658,68.0,240,192,1.0,94.0
659,51.0,0,384,0.0,94.0
660,67.0,0,192,1.0,94.0
661,68.0,0,192,0.0,94.0
662,72.0,0,192,0.0,94.0
663,63.0,240,192,0.0,94.0
664,68.0,240,192,1.0,94.0
665,60.0,0,192,0.0,94.0
666,51.0,0,384,0.0,105.0
667,69.0,240,384,1.0,94.0
668,70.0,240,192,0.0,105.0
669,67.0,0,192,0.0,105.0
670,63.0,0,192,0.0,105.0
671,58.0,240,192,0.0,105.0
672,70.0,0,192,1.0,105.0
673,50.0,0,192,0.0,105.0
674,38.0,240,192,0.0,105.0
675,58.0,240,192,0.0,105.0
676,50.0,0,192,0.0,105.0
677,70.0,0,192,0.0,105.0
678,65.0,0,192,0.0,105.0
679,68.0,0,192,0.0,105.0
680,70.0,0,192,0.0,105.0
681,65.0,0,192,0.0,105.0
682,68.0,0,192,0.0,105.0
683,50.0,0,192,0.0,105.0
684,58.0,240,192,0.0,105.0
685,50.0,240,192,0.0,105.0
686,58.0,0,192,0.0,105.0
687,68.0,0,192,0.0,105.0
688,65.0,0,192,0.0,105.0
689,70.0,0,192,0.0,105.0
690,77.0,0,1152,1.0,116.0
691,58.0,240,192,0.0,94.0
692,50.0,0,192,0.0,94.0
693,70.0,0,192,0.0,94.0
694,65.0,0,192,0.0,94.0
695,68.0,0,192,0.0,94.0
696,65.0,240,192,0.0,94.0
697,68.0,0,192,0.0,94.0
698,70.0,0,192,0.0,94.0
699,50.0,0,192,0.0,94.0
700,58.0,0,192,0.0,94.0
701,51.0,240,384,0.0,72.0
702,70.0,0,384,1.0,72.0
703,70.0,0,192,0.0,72.0
704,67.0,0,192,0.0,72.0
705,63.0,240,192,0.0,72.0
706,70.0,240,192,1.0,72.0
707,61.0,0,192,0.0,72.0
708,44.0,0,384,0.0,72.0
709,72.0,240,384,1.0,72.0
710,66.0,240,192,0.0,72.0
711,68.0,0,192,0.0,72.0
712,72.0,0,192,0.0,72.0
713,72.0,240,192,1.0,72.0
714,63.0,0,192,0.0,72.0
715,73.0,0,384,1.0,72.0
716,65.0,0,192,0.0,72.0
717,68.0,240,192,0.0,72.0
718,73.0,0,192,0.0,72.0
719,49.0,240,576,0.0,72.0
720,61.0,0,192,0.0,72.0
721,65.0,240,192,1.0,72.0
722,72.0,0,384,1.0,85.0
723,68.0,0,192,0.0,85.0
724,64.0,0,192,0.0,85.0
725,73.0,240,192,0.0,85.0
726,49.0,240,576,0.0,85.0
727,61.0,240,192,0.0,85.0
728,70.0,0,192,1.0,85.0
729,68.0,240,192,1.0,94.0
730,67.0,240,192,1.0,94.0
731,63.0,0,192,0.0,94.0
732,72.0,0,192,0.0,94.0
733,68.0,0,192,0.0,94.0
734,51.0,0,576,0.0,94.0
735,68.0,240,192,1.0,94.0
736,60.0,0,192,0.0,94.0
737,72.0,0,384,1.0,94.0
738,67.0,0,192,0.0,94.0
739,72.0,0,192,0.0,94.0
740,63.0,240,192,0.0,94.0
741,51.0,240,576,0.0,94.0
742,70.0,240,192,1.0,94.0
743,61.0,0,192,0.0,94.0
744,60.0,0,192,0.0,105.0
745,68.0,0,192,0.0,105.0
746,51.0,0,192,0.0,105.0
747,63.0,240,192,0.0,105.0
748,51.0,0,192,0.0,105.0
749,60.0,0,192,0.0,105.0
750,63.0,240,192,0.0,105.0
751,68.0,0,192,0.0,105.0
752,68.0,0,192,0.0,105.0
753,63.0,0,192,0.0,105.0
754,60.0,0,192,0.0,105.0
755,51.0,240,192,0.0,105.0
756,69.0,240,192,0.0,116.0
757,51.0,0,192,0.0,105.0
758,66.0,0,192,0.0,116.0
759,60.0,0,192,0.0,116.0
760,63.0,0,192,0.0,116.0
761,63.0,0,192,0.0,116.0
762,60.0,0,192,0.0,116.0
763,69.0,240,192,0.0,116.0
764,51.0,0,192,0.0,116.0
765,66.0,0,192,0.0,116.0
766,75.0,0,1344,1.0,116.0
767,51.0,0,192,0.0,116.0
768,63.0,0,192,0.0,116.0
769,69.0,0,192,0.0,116.0
770,60.0,0,192,0.0,116.0
771,66.0,240,192,0.0,116.0
772,63.0,0,192,0.0,116.0
773,39.0,0,192,0.0,116.0
774,51.0,0,192,0.0,116.0
775,61.0,0,192,0.0,116.0
776,67.0,0,192,0.0,116.0
777,70.0,0,192,0.0,116.0
778,77.0,240,384,1.0,127.0
779,67.0,0,192,0.0,116.0
780,39.0,240,192,0.0,116.0
781,61.0,0,192,0.0,116.0
782,51.0,0,192,0.0,116.0
783,70.0,0,192,0.0,116.0
784,63.0,0,192,0.0,116.0
785,39.0,0,192,0.0,105.0
786,51.0,0,192,0.0,116.0
787,61.0,0,192,0.0,116.0
788,67.0,0,192,0.0,116.0
789,63.0,0,192,0.0,116.0
790,70.0,0,192,0.0,116.0
791,75.0,240,192,1.0,116.0
792,73.0,240,192,1.0,105.0
793,61.0,0,192,0.0,105.0
794,63.0,0,192,0.0,105.0
795,70.0,0,192,0.0,105.0
796,67.0,0,192,0.0,105.0
797,51.0,0,192,0.0,105.0
798,39.0,0,192,0.0,105.0
799,51.0,0,192,0.0,105.0
800,39.0,0,192,0.0,94.0
801,70.0,240,192,0.0,105.0
802,63.0,0,192,0.0,94.0
803,61.0,0,192,0.0,94.0
804,67.0,0,192,0.0,94.0
805,72.0,0,192,1.0,105.0
806,70.0,0,192,0.0,94.0
807,63.0,0,192,0.0,94.0
808,67.0,0,192,0.0,94.0
809,51.0,0,192,0.0,94.0
810,39.0,0,192,0.0,94.0
811,61.0,0,192,0.0,94.0
812,70.0,240,192,1.0,94.0
813,44.0,0,192,0.0,105.0
814,60.0,0,384,0.0,105.0
815,68.0,0,384,0.0,105.0
816,56.0,240,192,0.0,105.0
817,68.0,240,576,1.0,105.0
818,51.0,0,192,0.0,105.0
819,63.0,240,192,0.0,105.0
820,60.0,0,192,0.0,72.0
821,44.0,240,192,0.0,72.0
822,63.0,0,96,0.0,72.0
823,56.0,240,192,0.0,72.0
824,63.0,120,96,0.0,72.0
825,51.0,0,192,0.0,72.0
826,63.0,120,192,0.0,72.0
827,60.0,240,192,0.0,72.0
828,44.0,0,192,0.0,72.0
829,56.0,0,192,0.0,72.0
830,65.0,240,192,0.0,72.0
831,51.0,0,192,0.0,72.0
832,63.0,240,192,0.0,72.0
833,44.0,240,192,0.0,85.0
834,60.0,0,192,0.0,85.0
835,63.0,240,96,0.0,85.0
836,56.0,0,192,0.0,85.0
837,63.0,120,96,0.0,85.0
838,51.0,120,192,0.0,85.0
839,63.0,0,192,0.0,85.0
840,44.0,0,192,0.0,94.0
841,60.0,240,192,0.0,94.0
842,63.0,0,96,0.0,94.0
843,56.0,240,192,0.0,94.0
844,63.0,120,96,0.0,94.0
845,51.0,0,192,0.0,94.0
846,63.0,120,192,0.0,94.0
847,44.0,240,192,0.0,105.0
848,68.0,0,192,0.0,105.0
849,60.0,0,192,0.0,105.0
850,56.0,0,192,0.0,105.0
851,63.0,240,192,0.0,105.0
852,51.0,0,192,0.0,105.0
853,72.0,240,192,0.0,105.0
854,44.0,0,192,0.0,116.0
855,70.0,0,192,0.0,116.0
856,61.0,240,192,0.0,116.0
857,63.0,240,192,0.0,116.0
858,55.0,0,192,0.0,116.0
859,75.0,0,192,0.0,116.0
860,51.0,240,192,0.0,116.0
861,44.0,0,192,0.0,116.0
862,72.0,240,384,0.0,127.0
863,63.0,0,384,0.0,127.0
864,75.0,0,384,0.0,127.0
865,56.0,240,192,0.0,116.0
866,63.0,240,192,0.0,116.0
867,51.0,0,192,0.0,116.0
868,44.0,0,192,0.0,72.0
869,60.0,240,192,0.0,72.0
870,56.0,240,192,0.0,72.0
871,65.0,0,192,0.0,72.0
872,51.0,0,192,0.0,72.0
873,63.0,240,192,0.0,72.0
874,44.0,0,192,0.0,72.0
875,60.0,240,192,0.0,72.0
876,63.0,0,96,0.0,72.0
877,56.0,240,192,0.0,72.0
878,63.0,120,96,0.0,72.0
879,51.0,0,192,0.0,72.0
880,63.0,120,192,0.0,72.0
881,44.0,240,192,0.0,85.0
882,60.0,0,192,0.0,85.0
883,56.0,0,192,0.0,85.0
884,65.0,240,192,0.0,85.0
885,63.0,240,192,0.0,85.0
886,51.0,0,192,0.0,85.0
887,60.0,0,192,0.0,85.0
888,44.0,240,192,0.0,85.0
889,63.0,0,96,0.0,85.0
890,56.0,240,192,0.0,85.0
891,63.0,120,96,0.0,85.0
892,63.0,0,192,0.0,85.0
893,51.0,120,192,0.0,85.0
894,44.0,240,192,0.0,85.0
895,60.0,0,192,0.0,85.0
896,63.0,240,96,0.0,90.0
897,56.0,0,192,0.0,90.0
898,63.0,120,96,0.0,92.0
899,51.0,0,192,0.0,95.0
900,63.0,120,192,0.0,95.0
901,44.0,0,192,0.0,100.0
902,60.0,0,192,0.0,100.0
903,68.0,240,192,0.0,100.0
904,56.0,0,192,0.0,106.0
905,63.0,240,192,0.0,106.0
906,51.0,0,192,0.0,111.0
907,72.0,240,192,0.0,111.0
908,61.0,240,192,0.0,94.0
909,70.0,0,192,0.0,94.0
910,44.0,0,192,0.0,94.0
911,56.0,0,192,0.0,89.0
912,63.0,240,192,0.0,89.0
913,51.0,0,192,0.0,83.0
914,72.0,240,192,0.0,83.0
915,44.0,0,192,0.0,78.0
916,70.0,0,192,0.0,78.0
917,61.0,240,192,0.0,78.0
918,56.0,0,192,0.0,72.0
919,63.0,240,192,0.0,72.0
920,72.0,240,192,0.0,67.0
921,51.0,0,192,0.0,66.0
922,44.0,240,192,0.0,85.0
923,60.0,0,192,0.0,85.0
924,68.0,0,192,0.0,85.0
925,68.0,0,384,1.0,85.0
926,56.0,240,192,0.0,85.0
927,63.0,0,192,0.0,85.0
928,68.0,240,192,1.0,85.0
929,72.0,0,192,0.0,85.0
930,51.0,0,192,0.0,85.0
931,49.0,240,192,0.0,85.0
932,61.0,0,192,0.0,85.0
933,68.0,0,192,0.0,85.0
934,67.0,0,384,1.0,85.0
935,65.0,240,192,0.0,85.0
936,56.0,0,192,0.0,85.0
937,65.0,240,192,1.0,85.0
938,53.0,0,192,0.0,85.0
939,73.0,0,192,0.0,85.0
940,61.0,0,192,0.0,94.0
941,46.0,240,192,0.0,94.0
942,70.0,0,192,0.0,94.0
943,70.0,0,384,1.0,94.0
944,65.0,240,192,0.0,94.0
945,58.0,0,192,0.0,94.0
946,70.0,0,192,1.0,94.0
947,73.0,240,192,0.0,94.0
948,53.0,0,192,0.0,94.0
949,51.0,0,192,0.0,94.0
950,63.0,240,192,0.0,94.0
951,70.0,0,192,0.0,94.0
952,68.0,0,384,1.0,94.0
953,58.0,240,192,0.0,94.0
954,67.0,0,192,0.0,94.0
955,55.0,0,192,0.0,94.0
956,67.0,240,192,1.0,94.0
957,75.0,0,192,0.0,94.0
958,72.0,0,192,0.0,105.0
959,63.0,0,192,0.0,105.0
960,48.0,0,192,0.0,105.0
961,72.0,240,384,1.0,105.0
962,67.0,0,192,0.0,105.0
963,60.0,240,192,0.0,105.0
964,55.0,0,192,0.0,105.0
965,75.0,0,192,0.0,105.0
966,72.0,240,192,1.0,105.0
967,65.0,0,192,0.0,116.0
968,53.0,0,192,0.0,116.0
969,72.0,240,192,0.0,116.0
970,70.0,0,384,1.0,116.0
971,68.0,240,192,0.0,116.0
972,60.0,0,192,0.0,116.0
973,77.0,0,192,0.0,116.0
974,56.0,240,192,0.0,116.0
975,68.0,0,192,1.0,116.0
976,73.0,0,576,1.0,116.0
977,46.0,0,576,0.0,116.0
978,61.0,0,576,0.0,116.0
979,52.0,240,576,0.0,116.0
980,56.0,0,576,0.0,116.0
981,70.0,0,576,0.0,116.0
982,68.0,0,576,0.0,116.0
983,76.0,0,576,0.0,116.0
984,64.0,0,576,0.0,116.0
985,51.0,1440,384,0.0,72.0
986,70.0,0,384,1.0,72.0
987,67.0,0,192,0.0,72.0
988,75.0,240,192,0.0,72.0
989,70.0,0,192,0.0,72.0
990,63.0,240,192,0.0,72.0
991,70.0,0,192,1.0,72.0
992,72.0,0,384,1.0,72.0
993,56.0,240,384,0.0,72.0
994,72.0,240,192,0.0,72.0
995,66.0,0,192,0.0,72.0
996,68.0,0,192,0.0,72.0
997,72.0,0,192,1.0,72.0
998,63.0,240,192,0.0,72.0
999,73.0,0,384,1.0,72.0
1000,49.0,240,384,0.0,72.0
1001,65.0,0,192,0.0,72.0
1002,73.0,0,192,0.0,72.0
1003,68.0,240,192,0.0,72.0
1004,65.0,240,192,1.0,72.0
1005,61.0,0,192,0.0,72.0
1006,72.0,240,384,1.0,85.0
1007,49.0,0,384,0.0,85.0
1008,64.0,0,192,0.0,85.0
1009,73.0,240,192,0.0,85.0
1010,70.0,0,192,0.0,85.0
1011,61.0,240,192,0.0,85.0
1012,70.0,0,192,1.0,85.0
1013,68.0,240,192,1.0,94.0
1014,51.0,0,384,0.0,94.0
1015,63.0,0,192,0.0,94.0
1016,67.0,240,192,1.0,94.0
1017,68.0,0,192,0.0,94.0
1018,72.0,0,192,0.0,94.0
1019,68.0,240,192,1.0,94.0
1020,60.0,0,192,0.0,94.0
1021,69.0,240,384,1.0,94.0
1022,51.0,0,384,0.0,105.0
1023,67.0,0,192,0.0,105.0
1024,70.0,240,192,0.0,105.0
1025,63.0,0,192,0.0,105.0
1026,70.0,240,192,1.0,105.0
1027,58.0,0,192,0.0,105.0
1028,38.0,0,192,0.0,105.0
1029,50.0,0,192,0.0,105.0
1030,50.0,0,192,0.0,105.0
1031,58.0,0,192,0.0,105.0
1032,70.0,0,192,0.0,105.0
1033,65.0,0,192,0.0,105.0
1034,68.0,240,192,0.0,105.0
1035,70.0,0,192,0.0,105.0
1036,68.0,0,192,0.0,105.0
1037,65.0,0,192,0.0,105.0
1038,58.0,240,192,0.0,105.0
1039,50.0,0,192,0.0,105.0
1040,70.0,0,192,0.0,105.0
1041,50.0,240,192,0.0,105.0
1042,65.0,0,192,0.0,105.0
1043,58.0,0,192,0.0,105.0
1044,68.0,0,192,0.0,105.0
1045,58.0,0,192,0.0,94.0
1046,50.0,0,192,0.0,94.0
1047,70.0,0,192,0.0,94.0
1048,65.0,0,192,0.0,94.0
1049,68.0,240,192,0.0,94.0
1050,77.0,240,1152,1.0,116.0
1051,68.0,0,192,0.0,94.0
1052,58.0,0,192,0.0,94.0
1053,50.0,240,192,0.0,94.0
1054,65.0,0,192,0.0,94.0
1055,70.0,0,192,0.0,94.0
1056,70.0,0,384,1.0,72.0
1057,51.0,240,384,0.0,72.0
1058,63.0,240,192,0.0,72.0
1059,70.0,0,192,0.0,72.0
1060,67.0,0,192,0.0,72.0
1061,61.0,240,192,0.0,72.0
1062,70.0,0,192,1.0,72.0
1063,72.0,240,384,1.0,72.0
1064,44.0,0,384,0.0,72.0
1065,66.0,240,192,0.0,72.0
1066,72.0,0,192,0.0,72.0
1067,68.0,0,192,0.0,72.0
1068,72.0,0,192,1.0,72.0
1069,63.0,240,192,0.0,72.0
1070,73.0,0,384,1.0,72.0
1071,68.0,0,192,0.0,72.0
1072,65.0,240,192,0.0,72.0
1073,73.0,0,192,0.0,72.0
1074,49.0,240,576,0.0,72.0
1075,61.0,240,192,0.0,72.0
1076,65.0,0,192,1.0,72.0
1077,72.0,0,384,1.0,85.0
1078,73.0,0,192,0.0,85.0
1079,64.0,240,192,0.0,85.0
1080,68.0,0,192,0.0,85.0
1081,49.0,240,576,0.0,85.0
1082,70.0,240,192,1.0,85.0
1083,61.0,0,192,0.0,85.0
1084,68.0,240,192,1.0,94.0
1085,68.0,0,192,0.0,94.0
1086,72.0,0,192,0.0,94.0
1087,63.0,0,192,0.0,94.0
1088,67.0,240,192,1.0,94.0
1089,51.0,0,576,0.0,94.0
1090,60.0,240,192,0.0,94.0
1091,68.0,0,192,1.0,94.0
1092,72.0,240,384,1.0,94.0
1093,72.0,0,192,0.0,94.0
1094,67.0,0,192,0.0,94.0
1095,63.0,240,192,0.0,94.0
1096,51.0,0,576,0.0,94.0
1097,61.0,0,192,0.0,94.0
1098,70.0,240,192,1.0,94.0
1099,68.0,240,192,0.0,105.0
1100,51.0,0,192,0.0,105.0
1101,63.0,0,192,0.0,105.0
1102,60.0,0,192,0.0,105.0
1103,51.0,0,192,0.0,105.0
1104,60.0,0,192,0.0,105.0
1105,68.0,0,192,0.0,105.0
1106,63.0,240,192,0.0,105.0
1107,68.0,240,192,0.0,105.0
1108,63.0,0,192,0.0,105.0
1109,60.0,0,192,0.0,105.0
1110,51.0,0,192,0.0,105.0
1111,66.0,0,192,0.0,116.0
1112,63.0,240,192,0.0,116.0
1113,60.0,0,192,0.0,116.0
1114,69.0,0,192,0.0,116.0
1115,51.0,0,192,0.0,105.0
1116,66.0,0,192,0.0,116.0
1117,60.0,0,192,0.0,116.0
1118,63.0,0,192,0.0,116.0
1119,69.0,0,192,0.0,116.0
1120,51.0,240,192,0.0,116.0
1121,75.0,0,1344,1.0,116.0
1122,51.0,0,192,0.0,116.0
1123,63.0,0,192,0.0,116.0
1124,69.0,240,192,0.0,116.0
1125,60.0,0,192,0.0,116.0
1126,66.0,0,192,0.0,116.0
1127,51.0,0,192,0.0,116.0
1128,70.0,0,192,0.0,116.0
1129,61.0,0,192,0.0,116.0
1130,39.0,0,192,0.0,116.0
1131,67.0,0,192,0.0,116.0
1132,63.0,0,192,0.0,116.0
1133,77.0,240,384,1.0,127.0
1134,51.0,0,192,0.0,116.0
1135,39.0,0,192,0.0,116.0
1136,63.0,0,192,0.0,116.0
1137,70.0,0,192,0.0,116.0
1138,61.0,0,192,0.0,116.0
1139,67.0,240,192,0.0,116.0
1140,39.0,0,192,0.0,105.0
1141,51.0,0,192,0.0,116.0
1142,61.0,0,192,0.0,116.0
1143,67.0,0,192,0.0,116.0
1144,63.0,0,192,0.0,116.0
1145,70.0,0,192,0.0,116.0
1146,75.0,240,192,1.0,116.0
1147,70.0,0,192,0.0,105.0
1148,73.0,240,192,1.0,105.0
1149,67.0,0,192,0.0,105.0
1150,39.0,0,192,0.0,105.0
1151,61.0,0,192,0.0,105.0
1152,51.0,0,192,0.0,105.0
1153,63.0,0,192,0.0,105.0
1154,72.0,0,192,1.0,105.0
1155,39.0,0,192,0.0,94.0
1156,51.0,240,192,0.0,105.0
1157,61.0,0,192,0.0,94.0
1158,63.0,0,192,0.0,94.0
1159,67.0,0,192,0.0,94.0
1160,70.0,0,192,0.0,105.0
1161,70.0,0,192,1.0,94.0
1162,61.0,0,192,0.0,94.0
1163,63.0,0,192,0.0,94.0
1164,70.0,0,192,0.0,94.0
1165,51.0,0,192,0.0,94.0
1166,39.0,240,192,0.0,94.0
1167,67.0,0,192,0.0,94.0
1168,44.0,0,192,0.0,105.0
1169,68.0,0,384,0.0,105.0
1170,60.0,240,384,0.0,105.0
1171,56.0,240,192,0.0,105.0
1172,68.0,0,576,1.0,105.0
1173,63.0,0,192,0.0,105.0
1174,51.0,240,192,0.0,105.0
1175,60.0,0,192,0.0,72.0
1176,44.0,240,192,0.0,72.0
1177,63.0,0,96,0.0,72.0
1178,56.0,240,192,0.0,72.0
1179,63.0,120,96,0.0,72.0
1180,63.0,120,192,0.0,72.0
1181,51.0,0,192,0.0,72.0
1182,60.0,240,192,0.0,72.0
1183,44.0,0,192,0.0,72.0
1184,56.0,0,192,0.0,72.0
1185,65.0,240,192,0.0,72.0
1186,51.0,0,192,0.0,72.0
1187,63.0,240,192,0.0,72.0
1188,60.0,240,192,0.0,85.0
1189,44.0,0,192,0.0,85.0
1190,63.0,0,96,0.0,85.0
1191,56.0,240,192,0.0,85.0
1192,63.0,120,96,0.0,85.0
1193,63.0,0,192,0.0,85.0
1194,51.0,120,192,0.0,85.0
1195,60.0,0,192,0.0,94.0
1196,44.0,240,192,0.0,94.0
1197,63.0,0,96,0.0,94.0
1198,56.0,240,192,0.0,94.0
1199,63.0,120,96,0.0,94.0
1200,63.0,0,192,0.0,94.0
1201,51.0,120,192,0.0,94.0
1202,60.0,0,192,0.0,105.0
1203,68.0,0,192,0.0,105.0
1204,44.0,240,192,0.0,105.0
1205,63.0,0,192,0.0,105.0
1206,56.0,240,192,0.0,105.0
1207,72.0,0,192,0.0,105.0
1208,51.0,240,192,0.0,105.0
1209,61.0,0,192,0.0,116.0
1210,70.0,0,192,0.0,116.0
1211,44.0,240,192,0.0,116.0
1212,55.0,0,192,0.0,116.0
1213,63.0,240,192,0.0,116.0
1214,75.0,240,192,0.0,116.0
1215,51.0,0,192,0.0,116.0
1216,44.0,0,192,0.0,116.0
1217,75.0,0,384,0.0,127.0
1218,72.0,0,384,0.0,127.0
1219,63.0,240,384,0.0,127.0
1220,56.0,240,192,0.0,116.0
1221,63.0,240,192,0.0,116.0
1222,51.0,0,192,0.0,116.0
1223,60.0,0,192,0.0,72.0
1224,44.0,240,192,0.0,72.0
1225,56.0,0,192,0.0,72.0
1226,65.0,240,192,0.0,72.0
1227,63.0,240,192,0.0,72.0
1228,51.0,0,192,0.0,72.0
1229,44.0,0,192,0.0,72.0
1230,60.0,240,192,0.0,72.0
1231,63.0,240,96,0.0,72.0
1232,56.0,0,192,0.0,72.0
1233,63.0,120,96,0.0,72.0
1234,63.0,120,192,0.0,72.0
1235,51.0,0,192,0.0,72.0
1236,44.0,0,192,0.0,85.0
1237,60.0,240,192,0.0,85.0
1238,56.0,0,192,0.0,85.0
1239,65.0,240,192,0.0,85.0
1240,51.0,0,192,0.0,85.0
1241,63.0,240,192,0.0,85.0
1242,44.0,0,192,0.0,85.0
1243,60.0,240,192,0.0,85.0
1244,63.0,240,96,0.0,85.0
1245,56.0,0,192,0.0,85.0
1246,63.0,120,96,0.0,85.0
1247,51.0,0,192,0.0,85.0
1248,63.0,120,192,0.0,85.0
1249,44.0,0,192,0.0,85.0
1250,60.0,240,192,0.0,85.0
1251,63.0,240,96,0.0,90.0
1252,56.0,0,192,0.0,90.0
1253,63.0,120,96,0.0,92.0
1254,63.0,120,192,0.0,95.0
1255,51.0,0,192,0.0,95.0
1256,44.0,240,192,0.0,100.0
1257,60.0,0,192,0.0,100.0
1258,68.0,0,192,0.0,100.0
1259,56.0,0,192,0.0,106.0
1260,63.0,240,192,0.0,106.0
1261,51.0,240,192,0.0,111.0
1262,72.0,0,192,0.0,111.0
1263,44.0,0,192,0.0,94.0
1264,70.0,0,192,0.0,94.0
1265,61.0,240,192,0.0,94.0
1266,56.0,0,192,0.0,89.0
1267,63.0,240,192,0.0,89.0
1268,51.0,0,192,0.0,83.0
1269,72.0,240,192,0.0,83.0
1270,44.0,0,192,0.0,78.0
1271,70.0,0,192,0.0,78.0
1272,61.0,240,192,0.0,78.0
1273,56.0,0,192,0.0,72.0
1274,63.0,240,192,0.0,72.0
1275,51.0,240,192,0.0,66.0
1276,72.0,0,192,0.0,67.0
1277,44.0,0,192,0.0,72.0
1278,68.0,0,192,0.0,72.0
1279,60.0,240,192,0.0,72.0
1280,68.0,0,384,1.0,72.0
1281,56.0,0,192,0.0,72.0
1282,63.0,240,192,0.0,72.0
1283,51.0,240,192,0.0,72.0
1284,72.0,0,192,0.0,72.0
1285,68.0,0,192,1.0,72.0
1286,68.0,0,192,0.0,72.0
1287,61.0,0,192,0.0,72.0
1288,49.0,0,192,0.0,72.0
1289,67.0,240,384,1.0,72.0
1290,65.0,0,192,0.0,72.0
1291,56.0,240,192,0.0,72.0
1292,53.0,0,192,0.0,72.0
1293,73.0,240,192,0.0,72.0
1294,65.0,0,192,1.0,72.0
1295,61.0,0,192,0.0,72.0
1296,70.0,0,192,0.0,72.0
1297,46.0,0,192,0.0,72.0
1298,70.0,240,384,1.0,72.0
1299,65.0,0,192,0.0,72.0
1300,58.0,240,192,0.0,72.0
1301,53.0,0,192,0.0,72.0
1302,73.0,240,192,0.0,72.0
1303,70.0,0,192,1.0,72.0
1304,70.0,0,192,0.0,85.0
1305,51.0,0,192,0.0,85.0
1306,63.0,0,192,0.0,85.0
1307,68.0,240,384,1.0,85.0
1308,58.0,0,192,0.0,85.0
1309,67.0,240,192,0.0,85.0
1310,55.0,0,192,0.0,85.0
1311,75.0,0,192,0.0,85.0
1312,67.0,240,192,1.0,85.0
1313,48.0,0,192,0.0,94.0
1314,72.0,0,192,0.0,94.0
1315,63.0,0,192,0.0,94.0
1316,72.0,240,384,1.0,94.0
1317,60.0,0,192,0.0,94.0
1318,67.0,240,192,0.0,94.0
1319,75.0,240,192,0.0,94.0
1320,72.0,0,192,1.0,94.0
1321,55.0,0,192,0.0,94.0
1322,53.0,240,192,0.0,105.0
1323,65.0,0,192,0.0,105.0
1324,72.0,0,192,0.0,105.0
1325,70.0,0,384,1.0,105.0
1326,60.0,0,192,0.0,105.0
1327,68.0,240,192,0.0,105.0
1328,56.0,0,192,0.0,105.0
1329,77.0,240,192,0.0,105.0
1330,68.0,0,192,1.0,105.0
1331,73.0,0,576,1.0,116.0
1332,46.0,0,576,0.0,116.0
1333,56.0,240,576,0.0,116.0
1334,52.0,0,576,0.0,116.0
1335,64.0,0,576,0.0,116.0
1336,70.0,0,576,0.0,116.0
1337,76.0,0,576,0.0,116.0
1338,61.0,0,576,0.0,116.0
1339,68.0,0,576,0.0,116.0
1340,72.0,0,192,1.0,116.0
1341,51.0,0,384,0.0,105.0
1342,73.0,0,384,0.0,105.0
1343,70.0,0,384,0.0,105.0
1344,67.0,0,384,0.0,105.0
1345,61.0,1440,384,0.0,105.0
1346,39.0,0,384,0.0,105.0
1347,70.0,240,192,1.0,116.0
1348,72.0,0,384,0.0,105.0
1349,72.0,0,384,1.0,116.0
1350,67.0,0,384,0.0,105.0
1351,52.0,0,384,0.0,105.0
1352,60.0,1920,384,0.0,105.0
1353,40.0,0,384,0.0,105.0
1354,72.0,480,192,1.0,116.0
1355,69.0,0,192,0.0,116.0
1356,65.0,0,192,0.0,116.0
1357,41.0,240,192,0.0,116.0
1358,72.0,0,192,0.0,116.0
1359,72.0,0,384,1.0,116.0
1360,57.0,0,192,0.0,116.0
1361,60.0,240,192,0.0,116.0
1362,72.0,0,192,0.0,116.0
1363,72.0,240,192,1.0,116.0
1364,65.0,0,192,0.0,116.0
1365,48.0,0,192,0.0,116.0
1366,69.0,0,192,0.0,116.0
1367,41.0,0,192,0.0,116.0
1368,65.0,0,192,0.0,116.0
1369,69.0,0,192,0.0,116.0
1370,72.0,240,192,0.0,116.0
1371,72.0,0,384,1.0,116.0
1372,57.0,0,192,0.0,116.0
1373,60.0,240,192,0.0,116.0
1374,48.0,0,192,0.0,116.0
1375,72.0,0,192,1.0,116.0
1376,72.0,240,192,0.0,116.0
1377,65.0,0,192,0.0,116.0
1378,69.0,0,192,0.0,116.0
1379,69.0,0,192,0.0,116.0
1380,72.0,0,192,0.0,116.0
1381,41.0,240,192,0.0,116.0
1382,65.0,0,192,0.0,116.0
1383,72.0,0,384,1.0,116.0
1384,57.0,0,192,0.0,116.0
1385,60.0,240,192,0.0,116.0
1386,48.0,0,192,0.0,116.0
1387,69.0,0,192,0.0,116.0
1388,65.0,240,192,0.0,116.0
1389,72.0,0,192,0.0,116.0
1390,72.0,0,192,1.0,116.0
1391,69.0,0,192,0.0,116.0
1392,41.0,0,192,0.0,116.0
1393,72.0,0,192,0.0,116.0
1394,65.0,0,192,0.0,116.0
1395,72.0,240,384,1.0,116.0
1396,60.0,0,192,0.0,116.0
1397,57.0,240,192,0.0,116.0
1398,72.0,0,192,1.0,116.0
1399,72.0,0,192,0.0,116.0
1400,48.0,0,192,0.0,116.0
1401,69.0,0,192,0.0,116.0
1402,65.0,240,192,0.0,116.0
1403,41.0,0,192,0.0,116.0
1404,69.0,0,192,0.0,116.0
1405,65.0,0,192,0.0,116.0
1406,72.0,240,192,0.0,116.0
1407,57.0,0,192,0.0,116.0
1408,60.0,240,192,0.0,116.0
1409,65.0,0,192,0.0,116.0
1410,69.0,0,192,0.0,116.0
1411,48.0,0,192,0.0,116.0
1412,72.0,240,192,0.0,116.0
1413,72.0,240,192,0.0,116.0
1414,65.0,0,192,0.0,116.0
1415,41.0,0,192,0.0,116.0
1416,69.0,0,192,0.0,116.0
1417,77.0,0,1152,1.0,127.0
1418,57.0,0,192,0.0,116.0
1419,60.0,240,192,0.0,116.0
1420,48.0,0,192,0.0,116.0
1421,69.0,0,192,0.0,116.0
1422,65.0,0,192,0.0,116.0
1423,72.0,240,192,0.0,116.0
1424,69.0,0,192,0.0,116.0
1425,41.0,0,192,0.0,116.0
1426,72.0,0,192,0.0,116.0
1427,65.0,0,192,0.0,116.0
1428,72.0,240,384,1.0,116.0
1429,57.0,240,192,0.0,116.0
1430,60.0,0,192,0.0,116.0
1431,72.0,0,192,0.0,116.0
1432,65.0,0,192,0.0,116.0
1433,72.0,240,192,1.0,116.0
1434,48.0,0,192,0.0,116.0
1435,69.0,0,192,0.0,116.0
1436,41.0,0,192,0.0,116.0
1437,69.0,0,192,0.0,116.0
1438,72.0,0,192,0.0,116.0
1439,65.0,240,192,0.0,116.0
1440,72.0,0,384,1.0,116.0
1441,60.0,0,192,0.0,116.0
1442,57.0,240,192,0.0,116.0
1443,69.0,0,192,0.0,116.0
1444,72.0,0,192,1.0,116.0
1445,48.0,0,192,0.0,116.0
1446,72.0,0,192,0.0,116.0
1447,65.0,240,192,0.0,116.0
1448,41.0,0,192,0.0,116.0
1449,69.0,0,192,0.0,116.0
1450,72.0,240,192,0.0,116.0
1451,65.0,0,192,0.0,116.0
1452,57.0,0,192,0.0,116.0
1453,60.0,240,192,0.0,116.0
1454,48.0,0,192,0.0,116.0
1455,72.0,0,192,0.0,116.0
1456,69.0,0,192,0.0,116.0
1457,65.0,240,192,0.0,116.0
1458,72.0,0,192,0.0,116.0
1459,65.0,0,192,0.0,116.0
1460,69.0,240,192,0.0,116.0
1461,41.0,0,192,0.0,116.0
1462,57.0,0,192,0.0,116.0
1463,60.0,240,192,0.0,116.0
1464,48.0,0,192,0.0,116.0
1465,69.0,240,192,0.0,116.0
1466,65.0,0,192,0.0,116.0
1467,72.0,0,192,0.0,116.0
1468,68.0,0,192,0.0,116.0
1469,65.0,0,192,0.0,116.0
1470,72.0,240,192,0.0,116.0
1471,41.0,0,192,0.0,116.0
1472,56.0,0,192,0.0,116.0
1473,60.0,240,192,0.0,116.0
1474,68.0,0,192,0.0,116.0
1475,48.0,240,192,0.0,116.0
1476,72.0,0,192,0.0,116.0
1477,65.0,0,192,0.0,116.0
1478,41.0,0,192,0.0,124.0
1479,70.0,240,192,0.0,124.0
1480,68.0,0,192,0.0,124.0
1481,74.0,0,192,0.0,124.0
1482,56.0,0,192,0.0,124.0
1483,60.0,240,192,0.0,124.0
1484,68.0,240,192,0.0,124.0
1485,74.0,0,192,0.0,124.0
1486,70.0,0,192,0.0,124.0
1487,46.0,0,192,0.0,124.0
1488,68.0,0,192,0.0,116.0
1489,75.0,0,192,0.0,116.0
1490,72.0,240,192,0.0,116.0
1491,39.0,0,192,0.0,116.0
1492,77.0,0,3264,1.0,127.0
1493,63.0,0,192,0.0,116.0
1494,60.0,240,192,0.0,116.0
1495,75.0,0,192,0.0,116.0
1496,51.0,0,192,0.0,116.0
1497,72.0,0,192,0.0,116.0
1498,68.0,0,192,0.0,116.0
1499,75.0,240,192,1.0,124.0
1500,75.0,0,192,1.0,124.0
1501,39.0,0,192,0.0,116.0
1502,73.0,0,192,0.0,116.0
1503,67.0,240,192,0.0,116.0
1504,70.0,0,192,0.0,116.0
1505,75.0,0,192,0.0,116.0
1506,73.0,0,192,1.0,124.0
1507,63.0,0,192,0.0,116.0
1508,61.0,240,192,0.0,116.0
1509,75.0,0,192,0.0,116.0
1510,70.0,240,192,1.0,124.0
1511,51.0,0,192,0.0,116.0
1512,70.0,0,192,0.0,116.0
1513,67.0,0,192,0.0,116.0
1514,73.0,0,192,0.0,116.0
1515,44.0,240,192,0.0,116.0
1516,68.0,0,384,0.0,116.0
1517,60.0,0,384,0.0,116.0
1518,56.0,240,192,0.0,116.0
1519,68.0,0,576,1.0,124.0
1520,63.0,240,192,0.0,116.0
1521,51.0,0,192,0.0,116.0
1522,44.0,0,192,0.0,116.0
1523,60.0,240,192,0.0,116.0
1524,63.0,240,96,0.0,116.0
1525,56.0,0,192,0.0,116.0
1526,63.0,120,96,0.0,116.0
1527,51.0,0,192,0.0,116.0
1528,63.0,120,192,0.0,116.0
1529,60.0,240,192,0.0,116.0
1530,44.0,0,192,0.0,116.0
1531,56.0,0,192,0.0,116.0
1532,65.0,240,192,0.0,116.0
1533,51.0,0,192,0.0,116.0
1534,63.0,240,192,0.0,116.0
1535,60.0,240,192,0.0,116.0
1536,44.0,0,192,0.0,116.0
1537,63.0,240,96,0.0,116.0
1538,56.0,0,192,0.0,116.0
1539,63.0,120,96,0.0,116.0
1540,51.0,120,192,0.0,116.0
1541,63.0,0,192,0.0,116.0
1542,44.0,240,192,0.0,116.0
1543,60.0,0,192,0.0,116.0
1544,63.0,240,96,0.0,116.0
1545,56.0,0,192,0.0,116.0
1546,63.0,120,96,0.0,116.0
1547,51.0,0,192,0.0,116.0
1548,63.0,120,192,0.0,116.0
1549,68.0,0,192,0.0,116.0
1550,60.0,0,192,0.0,116.0
1551,44.0,240,192,0.0,116.0
1552,56.0,0,192,0.0,116.0
1553,63.0,240,192,0.0,116.0
1554,72.0,0,192,0.0,116.0
1555,51.0,240,192,0.0,116.0
1556,70.0,0,192,0.0,116.0
1557,61.0,240,192,0.0,116.0
1558,44.0,0,192,0.0,116.0
1559,55.0,0,192,0.0,116.0
1560,63.0,240,192,0.0,116.0
1561,51.0,0,192,0.0,116.0
1562,75.0,240,192,0.0,116.0
1563,44.0,0,192,0.0,116.0
1564,63.0,240,384,0.0,127.0
1565,72.0,0,384,0.0,127.0
1566,75.0,0,384,0.0,127.0
1567,56.0,240,192,0.0,116.0
1568,63.0,240,192,0.0,116.0
1569,51.0,0,192,0.0,116.0
1570,60.0,0,192,0.0,116.0
1571,44.0,240,192,0.0,116.0
1572,56.0,0,192,0.0,116.0
1573,65.0,240,192,0.0,116.0
1574,63.0,240,192,0.0,116.0
1575,51.0,0,192,0.0,116.0
1576,44.0,0,192,0.0,116.0
1577,60.0,240,192,0.0,116.0
1578,63.0,240,96,0.0,116.0
1579,56.0,0,192,0.0,116.0
1580,63.0,120,96,0.0,116.0
1581,63.0,0,192,0.0,116.0
1582,51.0,120,192,0.0,116.0
1583,44.0,0,192,0.0,116.0
1584,60.0,240,192,0.0,116.0
1585,65.0,0,192,0.0,116.0
1586,56.0,240,192,0.0,116.0
1587,51.0,0,192,0.0,116.0
1588,63.0,240,192,0.0,116.0
1589,44.0,240,192,0.0,116.0
1590,60.0,0,192,0.0,116.0
1591,63.0,0,96,0.0,116.0
1592,56.0,240,192,0.0,116.0
1593,63.0,120,96,0.0,116.0
1594,63.0,0,192,0.0,116.0
1595,51.0,120,192,0.0,116.0
1596,44.0,240,192,0.0,116.0
1597,60.0,0,192,0.0,116.0
1598,63.0,240,96,0.0,116.0
1599,56.0,0,192,0.0,116.0
1600,63.0,120,96,0.0,116.0
1601,63.0,120,192,0.0,116.0
1602,51.0,0,192,0.0,116.0
1603,68.0,0,192,0.0,116.0
1604,60.0,240,192,0.0,116.0
1605,44.0,0,192,0.0,116.0
1606,56.0,0,192,0.0,116.0
1607,63.0,240,192,0.0,116.0
1608,51.0,0,192,0.0,116.0
1609,72.0,240,192,0.0,116.0
1610,44.0,0,192,0.0,116.0
1611,64.0,240,192,0.0,116.0
1612,70.0,0,192,0.0,116.0
1613,55.0,0,192,0.0,116.0
1614,67.0,240,192,0.0,116.0
1615,52.0,0,192,0.0,116.0
1616,76.0,240,192,0.0,116.0
1617,44.0,240,192,0.0,105.0
1618,64.0,0,384,0.0,125.0
1619,76.0,0,384,0.0,125.0
1620,58.0,240,192,0.0,105.0
1621,67.0,0,192,0.0,105.0
1622,61.0,240,192,0.0,105.0
1623,52.0,0,192,0.0,105.0
1624,44.0,240,192,0.0,105.0
1625,60.0,0,192,0.0,105.0
1626,68.0,0,192,0.0,105.0
1627,56.0,0,192,0.0,105.0
1628,63.0,240,192,0.0,105.0
1629,51.0,0,192,0.0,105.0
1630,76.0,240,192,0.0,105.0
1631,44.0,0,192,0.0,105.0
1632,64.0,0,384,0.0,125.0
1633,76.0,240,384,0.0,125.0
1634,58.0,240,192,0.0,105.0
1635,52.0,0,192,0.0,105.0
1636,61.0,0,192,0.0,105.0
1637,67.0,240,192,0.0,105.0
1638,68.0,240,192,0.0,105.0
1639,44.0,0,192,0.0,105.0
1640,60.0,0,192,0.0,105.0
1641,56.0,0,192,0.0,105.0
1642,63.0,240,192,0.0,105.0
1643,76.0,240,192,0.0,105.0
1644,51.0,0,192,0.0,105.0
1645,44.0,0,192,0.0,105.0
1646,76.0,240,384,0.0,125.0
1647,64.0,0,384,0.0,125.0
1648,58.0,240,192,0.0,105.0
1649,52.0,0,192,0.0,105.0
1650,61.0,240,192,0.0,105.0
1651,67.0,0,192,0.0,105.0
1652,60.0,0,192,0.0,105.0
1653,68.0,240,192,0.0,105.0
1654,44.0,0,192,0.0,105.0
1655,56.0,0,192,0.0,105.0
1656,63.0,240,192,0.0,105.0
1657,76.0,240,192,0.0,105.0
1658,51.0,0,192,0.0,105.0
1659,44.0,240,192,0.0,105.0
1660,76.0,0,384,0.0,125.0
1661,64.0,0,384,0.0,125.0
1662,58.0,240,192,0.0,105.0
1663,61.0,0,192,0.0,105.0
1664,67.0,240,192,0.0,105.0
1665,52.0,0,192,0.0,105.0
1666,44.0,0,192,0.0,105.0
1667,60.0,0,192,0.0,105.0
1668,68.0,240,192,0.0,105.0
1669,63.0,240,192,0.0,105.0
1670,56.0,0,192,0.0,105.0
1671,51.0,240,192,0.0,105.0
1672,76.0,0,192,0.0,105.0
1673,44.0,240,192,0.0,105.0
1674,76.0,0,384,0.0,125.0
1675,64.0,0,384,0.0,125.0
1676,58.0,240,192,0.0,105.0
1677,52.0,0,192,0.0,105.0
1678,67.0,0,192,0.0,105.0
1679,61.0,240,192,0.0,105.0
1680,44.0,0,192,0.0,105.0
1681,60.0,0,192,0.0,105.0
1682,68.0,240,192,0.0,105.0
1683,56.0,240,192,0.0,105.0
1684,63.0,0,192,0.0,105.0
1685,51.0,0,192,0.0,105.0
1686,72.0,240,192,0.0,105.0
1687,49.0,0,192,0.0,105.0
1688,68.0,0,192,0.0,105.0
1689,61.0,240,192,0.0,105.0
1690,56.0,240,192,0.0,105.0
1691,64.0,0,192,0.0,105.0
1692,52.0,0,192,0.0,105.0
1693,73.0,240,192,0.0,105.0
1694,44.0,0,192,0.0,94.0
1695,68.0,0,192,0.0,94.0
1696,60.0,240,192,0.0,94.0
1697,63.0,0,192,0.0,94.0
1698,56.0,240,192,0.0,94.0
1699,51.0,0,192,0.0,94.0
1700,72.0,240,192,0.0,94.0
1701,49.0,0,192,0.0,94.0
1702,68.0,0,192,0.0,94.0
1703,61.0,240,192,0.0,94.0
1704,64.0,240,192,0.0,94.0
1705,56.0,0,192,0.0,94.0
1706,52.0,0,192,0.0,94.0
1707,73.0,240,192,0.0,94.0
1708,44.0,0,192,0.0,85.0
1709,68.0,0,192,0.0,85.0
1710,60.0,240,192,0.0,85.0
1711,56.0,0,192,0.0,85.0
1712,63.0,240,192,0.0,85.0
1713,51.0,0,192,0.0,85.0
1714,72.0,240,192,0.0,85.0
1715,49.0,0,192,0.0,85.0
1716,68.0,0,192,0.0,85.0
1717,61.0,240,192,0.0,85.0
1718,56.0,0,192,0.0,85.0
1719,64.0,240,192,0.0,85.0
1720,52.0,240,192,0.0,85.0
1721,73.0,0,192,0.0,85.0
1722,44.0,0,192,0.0,72.0
1723,68.0,0,192,0.0,72.0
1724,60.0,240,192,0.0,72.0
1725,56.0,0,192,0.0,72.0
1726,63.0,240,192,0.0,72.0
1727,72.0,0,192,0.0,72.0
1728,51.0,240,192,0.0,72.0
1729,49.0,0,192,0.0,72.0
1730,68.0,0,192,0.0,72.0
1731,61.0,240,192,0.0,72.0
1732,64.0,240,192,0.0,72.0
1733,56.0,0,192,0.0,72.0
1734,52.0,0,192,0.0,72.0
1735,73.0,240,192,0.0,72.0
1736,44.0,240,1586,0.0,72.0
1737,32.0,0,1586,0.0,72.0
1738,80.0,0,1586,0.0,72.0
1739,75.0,0,1586,0.0,72.0
1740,72.0,0,1586,0.0,72.0
1741,68.0,0,1586,0.0,72.0
