,note,step,duration,channel,velocity
0,36.0,0,1199,0.0,74.0
1,48.0,0,1199,0.0,90.0
2,51.0,1199,240,0.0,79.0
3,39.0,0,240,0.0,66.0
4,44.0,240,240,0.0,70.0
5,56.0,0,240,0.0,83.0
6,58.0,0,240,0.0,76.0
7,46.0,240,240,0.0,64.0
8,48.0,0,240,0.0,70.0
9,60.0,240,240,0.0,83.0
10,56.0,0,240,0.0,75.0
11,44.0,240,240,0.0,63.0
12,51.0,240,240,0.0,63.0
13,63.0,0,240,0.0,76.0
14,58.0,240,240,0.0,55.0
15,70.0,0,240,0.0,72.0
16,60.0,0,240,0.0,58.0
17,72.0,240,240,0.0,73.0
18,56.0,240,240,0.0,54.0
19,68.0,0,240,0.0,68.0
20,75.0,0,240,0.0,76.0
21,63.0,240,240,0.0,62.0
22,70.0,0,240,0.0,54.0
23,82.0,240,240,0.0,68.0
24,84.0,0,240,0.0,69.0
25,72.0,240,240,0.0,57.0
26,67.0,0,240,0.0,48.0
27,79.0,240,240,0.0,58.0
28,82.0,0,240,0.0,59.0
29,70.0,240,240,0.0,53.0
30,80.0,240,240,0.0,53.0
31,68.0,0,240,0.0,35.0
32,79.0,240,480,0.0,49.0
33,67.0,0,480,0.0,32.0
34,66.0,480,240,0.0,27.0
35,78.0,0,240,0.0,44.0
36,78.0,0,240,0.0,48.0
37,66.0,720,240,0.0,40.0
38,79.0,0,240,0.0,52.0
39,67.0,240,240,0.0,44.0
40,78.0,240,240,0.0,49.0
41,66.0,0,240,0.0,41.0
42,65.0,240,240,0.0,44.0
43,77.0,0,240,0.0,52.0
44,66.0,0,240,0.0,41.0
45,78.0,240,240,0.0,49.0
46,81.0,0,160,0.0,53.0
47,69.0,240,160,0.0,45.0
48,79.0,160,160,0.0,49.0
49,67.0,0,160,0.0,41.0
50,75.0,0,160,0.0,52.0
51,63.0,160,0,0.0,43.0
52,75.0,0,360,0.0,51.0
53,74.0,0,120,0.0,46.0
54,62.0,360,120,0.0,39.0
55,77.0,120,160,0.0,48.0
56,65.0,0,160,0.0,40.0
57,63.0,160,160,0.0,39.0
58,75.0,0,160,0.0,46.0
59,62.0,160,0,0.0,29.0
60,74.0,0,0,0.0,37.0
61,72.0,1920,720,0.0,43.0
62,51.0,0,960,0.0,42.0
63,60.0,0,960,0.0,42.0
64,67.0,720,240,0.0,46.0
65,55.0,0,960,0.0,42.0
66,50.0,240,1920,0.0,44.0
67,63.0,120,1680,0.0,56.0
68,55.0,120,1800,0.0,48.0
69,70.0,0,3120,0.0,62.0
70,38.0,3120,240,0.0,46.0
71,66.0,240,240,0.0,44.0
72,70.0,240,240,0.0,49.0
73,60.0,240,1200,0.0,48.0
74,62.0,240,960,0.0,44.0
75,69.0,240,240,0.0,47.0
76,58.0,0,475,0.0,28.0
77,62.0,480,475,0.0,33.0
78,43.0,0,475,0.0,27.0
79,62.0,480,475,0.0,33.0
80,58.0,0,475,0.0,28.0
81,43.0,0,475,0.0,27.0
82,67.0,240,1440,0.0,44.0
83,58.0,480,475,0.0,25.0
84,62.0,0,475,0.0,28.0
85,67.0,0,475,0.0,33.0
86,67.0,480,475,0.0,33.0
87,62.0,0,475,0.0,28.0
88,58.0,0,475,0.0,25.0
89,74.0,480,1440,0.0,47.0
90,57.0,480,475,0.0,27.0
91,60.0,0,475,0.0,27.0
92,67.0,0,475,0.0,33.0
93,63.0,0,475,0.0,28.0
94,67.0,0,475,0.0,34.0
95,57.0,0,475,0.0,27.0
96,63.0,480,475,0.0,28.0
97,60.0,0,475,0.0,27.0
98,72.0,480,1440,0.0,47.0
99,38.0,0,240,0.0,46.0
100,66.0,240,240,0.0,44.0
101,70.0,240,240,0.0,49.0
102,38.0,0,240,0.0,46.0
103,69.0,240,240,0.0,47.0
104,62.0,240,960,0.0,44.0
105,60.0,720,1200,0.0,48.0
106,43.0,0,475,0.0,27.0
107,62.0,480,475,0.0,33.0
108,58.0,0,475,0.0,28.0
109,43.0,480,475,0.0,27.0
110,58.0,0,475,0.0,28.0
111,62.0,0,475,0.0,33.0
112,67.0,240,1440,0.0,44.0
113,45.0,0,475,0.0,25.0
114,61.0,0,475,0.0,33.0
115,55.0,0,475,0.0,28.0
116,57.0,480,475,0.0,28.0
117,61.0,0,475,0.0,33.0
118,57.0,480,475,0.0,28.0
119,55.0,0,475,0.0,28.0
120,45.0,0,475,0.0,25.0
121,64.0,480,1440,0.0,44.0
122,38.0,480,475,0.0,19.0
123,54.0,0,475,0.0,20.0
124,57.0,0,475,0.0,23.0
125,62.0,0,475,0.0,28.0
126,62.0,480,475,0.0,28.0
127,57.0,0,475,0.0,23.0
128,38.0,0,475,0.0,19.0
129,54.0,0,475,0.0,20.0
130,66.0,480,1440,0.0,44.0
131,50.0,240,475,0.0,46.0
132,66.0,240,240,0.0,44.0
133,70.0,0,240,0.0,49.0
134,50.0,240,475,0.0,46.0
135,60.0,720,1200,0.0,48.0
136,69.0,240,240,0.0,47.0
137,62.0,0,960,0.0,44.0
138,43.0,0,475,0.0,27.0
139,58.0,480,475,0.0,28.0
140,62.0,0,475,0.0,33.0
141,58.0,480,475,0.0,28.0
142,43.0,0,475,0.0,27.0
143,62.0,0,475,0.0,33.0
144,67.0,240,1440,0.0,44.0
145,70.0,0,475,0.0,28.0
146,73.0,0,475,0.0,33.0
147,67.0,0,475,0.0,28.0
148,64.0,480,475,0.0,25.0
149,64.0,480,475,0.0,25.0
150,67.0,0,475,0.0,28.0
151,73.0,0,475,0.0,33.0
152,70.0,0,475,0.0,28.0
153,79.0,480,1440,0.0,53.0
154,65.0,0,475,0.0,28.0
155,70.0,480,475,0.0,29.0
156,72.0,0,475,0.0,34.0
157,70.0,0,475,0.0,29.0
158,72.0,0,475,0.0,35.0
159,65.0,480,475,0.0,28.0
160,77.0,480,1440,0.0,50.0
161,65.0,240,240,0.0,48.0
162,41.0,0,475,0.0,46.0
163,75.0,240,240,0.0,46.0
164,74.0,0,240,0.0,51.0
165,41.0,240,475,0.0,46.0
166,73.0,360,120,0.0,49.0
167,63.0,480,1440,0.0,48.0
168,69.0,240,960,0.0,44.0
169,69.0,480,475,0.0,33.0
170,65.0,0,475,0.0,28.0
171,63.0,0,475,0.0,24.0
172,46.0,0,475,0.0,23.0
173,46.0,480,475,0.0,23.0
174,63.0,0,475,0.0,24.0
175,69.0,0,475,0.0,33.0
176,65.0,0,475,0.0,28.0
177,73.0,120,1440,0.0,46.0
178,70.0,0,475,0.0,33.0
179,62.0,0,475,0.0,23.0
180,58.0,480,475,0.0,25.0
181,65.0,0,475,0.0,28.0
182,62.0,480,475,0.0,22.0
183,58.0,0,475,0.0,25.0
184,70.0,0,475,0.0,33.0
185,65.0,0,475,0.0,28.0
186,74.0,480,1440,0.0,46.0
187,57.0,480,475,0.0,27.0
188,67.0,0,475,0.0,33.0
189,63.0,0,475,0.0,28.0
190,63.0,480,475,0.0,28.0
191,67.0,0,475,0.0,34.0
192,57.0,0,475,0.0,27.0
193,72.0,480,1440,0.0,47.0
194,38.0,0,475,0.0,46.0
195,66.0,240,240,0.0,44.0
196,70.0,240,240,0.0,49.0
197,38.0,0,475,0.0,46.0
198,60.0,720,1200,0.0,48.0
199,62.0,240,960,0.0,44.0
200,69.0,240,240,0.0,47.0
201,58.0,480,475,0.0,28.0
202,62.0,0,475,0.0,33.0
203,43.0,0,475,0.0,27.0
204,43.0,480,475,0.0,27.0
205,62.0,0,475,0.0,33.0
206,58.0,0,475,0.0,28.0
207,67.0,240,1440,0.0,44.0
208,67.0,0,475,0.0,33.0
209,62.0,0,475,0.0,28.0
210,58.0,480,475,0.0,25.0
211,58.0,480,475,0.0,25.0
212,62.0,0,475,0.0,28.0
213,67.0,0,475,0.0,33.0
214,74.0,480,1440,0.0,47.0
215,63.0,480,475,0.0,28.0
216,57.0,0,475,0.0,27.0
217,60.0,0,475,0.0,28.0
218,67.0,0,475,0.0,33.0
219,57.0,0,475,0.0,27.0
220,60.0,0,475,0.0,28.0
221,63.0,0,475,0.0,28.0
222,67.0,480,475,0.0,34.0
223,72.0,480,1440,0.0,47.0
224,38.0,0,475,0.0,46.0
225,66.0,240,240,0.0,44.0
226,70.0,240,240,0.0,49.0
227,38.0,0,475,0.0,46.0
228,60.0,720,1200,0.0,48.0
229,62.0,240,960,0.0,44.0
230,69.0,240,240,0.0,47.0
231,62.0,480,475,0.0,33.0
232,43.0,0,475,0.0,27.0
233,58.0,0,475,0.0,28.0
234,58.0,0,475,0.0,28.0
235,43.0,480,475,0.0,27.0
236,62.0,0,475,0.0,33.0
237,67.0,240,1440,0.0,44.0
238,57.0,0,475,0.0,28.0
239,55.0,0,475,0.0,28.0
240,61.0,480,475,0.0,33.0
241,45.0,0,475,0.0,25.0
242,57.0,0,475,0.0,28.0
243,45.0,480,475,0.0,25.0
244,61.0,0,475,0.0,33.0
245,55.0,0,475,0.0,28.0
246,64.0,480,1440,0.0,44.0
247,38.0,480,475,0.0,20.0
248,62.0,0,475,0.0,28.0
249,54.0,0,475,0.0,21.0
250,57.0,0,475,0.0,23.0
251,57.0,0,475,0.0,23.0
252,62.0,480,475,0.0,28.0
253,38.0,0,475,0.0,20.0
254,54.0,0,475,0.0,21.0
255,66.0,480,1440,0.0,44.0
256,50.0,0,475,0.0,46.0
257,66.0,240,240,0.0,44.0
258,70.0,240,240,0.0,49.0
259,50.0,0,475,0.0,46.0
260,60.0,720,1200,0.0,48.0
261,69.0,240,240,0.0,47.0
262,62.0,240,960,0.0,44.0
263,55.0,0,475,0.0,27.0
264,65.0,0,475,0.0,33.0
265,59.0,480,475,0.0,28.0
266,62.0,0,475,0.0,28.0
267,65.0,0,475,0.0,33.0
268,59.0,0,475,0.0,28.0
269,62.0,480,475,0.0,28.0
270,55.0,0,475,0.0,27.0
271,67.0,240,1440,0.0,44.0
272,74.0,0,475,0.0,36.0
273,71.0,480,475,0.0,31.0
274,67.0,0,475,0.0,31.0
275,43.0,0,475,0.0,28.0
276,65.0,0,475,0.0,28.0
277,43.0,0,475,0.0,28.0
278,74.0,480,475,0.0,37.0
279,71.0,0,475,0.0,32.0
280,65.0,0,475,0.0,32.0
281,67.0,0,475,0.0,28.0
282,79.0,480,1440,0.0,58.0
283,36.0,480,475,0.0,35.0
284,75.0,0,475,0.0,39.0
285,72.0,0,475,0.0,33.0
286,67.0,0,475,0.0,33.0
287,75.0,0,475,0.0,40.0
288,72.0,0,475,0.0,34.0
289,67.0,0,475,0.0,34.0
290,55.0,480,475,0.0,43.0
291,48.0,0,960,0.0,32.0
292,79.0,480,1440,0.0,62.0
293,62.0,0,475,0.0,35.0
294,67.0,0,475,0.0,41.0
295,38.0,480,475,0.0,34.0
296,67.0,0,475,0.0,42.0
297,55.0,480,475,0.0,44.0
298,62.0,0,475,0.0,36.0
299,50.0,0,960,0.0,31.0
300,74.0,480,1440,0.0,66.0
301,67.0,0,475,0.0,41.0
302,39.0,0,475,0.0,36.0
303,60.0,480,475,0.0,35.0
304,55.0,480,475,0.0,43.0
305,60.0,0,475,0.0,34.0
306,67.0,0,475,0.0,40.0
307,72.0,480,1440,0.0,58.0
308,51.0,0,960,0.0,33.0
309,62.0,0,475,0.0,37.0
310,58.0,0,475,0.0,31.0
311,38.0,0,475,0.0,31.0
312,62.0,480,475,0.0,36.0
313,58.0,0,475,0.0,30.0
314,55.0,0,475,0.0,36.0
315,67.0,480,1440,0.0,62.0
316,50.0,480,960,0.0,28.0
317,47.0,0,240,0.0,52.0
318,48.0,240,240,0.0,42.0
319,50.0,0,240,0.0,42.0
320,75.0,240,475,0.0,39.0
321,72.0,0,475,0.0,33.0
322,67.0,0,475,0.0,33.0
323,48.0,240,240,0.0,42.0
324,75.0,240,475,0.0,40.0
325,67.0,0,475,0.0,34.0
326,72.0,0,475,0.0,34.0
327,79.0,480,1440,0.0,62.0
328,55.0,0,480,0.0,51.0
329,49.0,480,240,0.0,53.0
330,50.0,240,240,0.0,43.0
331,51.0,240,240,0.0,47.0
332,62.0,0,475,0.0,35.0
333,67.0,0,475,0.0,41.0
334,50.0,240,240,0.0,42.0
335,67.0,240,475,0.0,42.0
336,62.0,0,475,0.0,36.0
337,55.0,0,480,0.0,52.0
338,74.0,0,1440,0.0,59.0
339,50.0,0,240,0.0,57.0
340,51.0,240,240,0.0,48.0
341,53.0,240,240,0.0,48.0
342,67.0,0,475,0.0,41.0
343,60.0,0,475,0.0,35.0
344,51.0,240,240,0.0,48.0
345,55.0,240,360,0.0,54.0
346,51.0,360,60,0.0,36.0
347,60.0,0,475,0.0,34.0
348,67.0,0,475,0.0,40.0
349,72.0,480,1440,0.0,64.0
350,52.0,60,60,0.0,36.0
351,53.0,0,60,0.0,35.0
352,52.0,60,60,0.0,35.0
353,53.0,60,60,0.0,36.0
354,52.0,60,60,0.0,36.0
355,53.0,60,60,0.0,37.0
356,52.0,60,60,0.0,37.0
357,53.0,60,60,0.0,38.0
358,52.0,60,60,0.0,38.0
359,53.0,60,60,0.0,39.0
360,52.0,60,60,0.0,39.0
361,53.0,60,60,0.0,39.0
362,52.0,60,60,0.0,40.0
363,53.0,60,60,0.0,40.0
364,52.0,60,60,0.0,42.0
365,53.0,60,60,0.0,42.0
366,61.0,0,475,0.0,37.0
367,58.0,0,475,0.0,31.0
368,52.0,60,60,0.0,43.0
369,53.0,60,60,0.0,43.0
370,52.0,60,60,0.0,44.0
371,53.0,60,60,0.0,44.0
372,52.0,60,60,0.0,46.0
373,53.0,60,60,0.0,46.0
374,52.0,60,60,0.0,47.0
375,51.0,60,60,0.0,47.0
376,61.0,0,475,0.0,36.0
377,58.0,0,475,0.0,30.0
378,67.0,60,1440,0.0,62.0
379,52.0,60,60,0.0,48.0
380,58.0,0,475,0.0,35.0
381,62.0,480,475,0.0,42.0
382,58.0,0,475,0.0,35.0
383,62.0,480,475,0.0,42.0
384,65.0,60,1440,0.0,57.0
385,53.0,0,1920,0.0,55.0
386,70.0,0,475,0.0,45.0
387,62.0,0,475,0.0,38.0
388,65.0,0,475,0.0,38.0
389,52.0,480,480,0.0,46.0
390,40.0,0,480,0.0,37.0
391,70.0,0,475,0.0,45.0
392,65.0,0,475,0.0,38.0
393,62.0,0,475,0.0,38.0
394,53.0,0,480,0.0,46.0
395,41.0,480,480,0.0,37.0
396,74.0,480,1860,0.0,60.0
397,63.0,60,0,0.0,48.0
398,74.0,420,60,0.0,55.0
399,69.0,0,0,0.0,48.0
400,72.0,0,480,0.0,62.0
401,63.0,480,0,0.0,45.0
402,71.0,0,480,0.0,58.0
403,69.0,480,0,0.0,50.0
404,72.0,0,480,0.0,65.0
405,54.0,0,1920,0.0,51.0
406,42.0,0,1920,0.0,42.0
407,63.0,0,480,0.0,50.0
408,41.0,480,480,0.0,34.0
409,53.0,0,480,0.0,40.0
410,69.0,0,480,0.0,49.0
411,63.0,0,480,0.0,49.0
412,74.0,0,480,0.0,64.0
413,42.0,0,480,0.0,37.0
414,63.0,0,480,0.0,51.0
415,54.0,480,480,0.0,44.0
416,75.0,0,480,0.0,66.0
417,69.0,0,480,0.0,51.0
418,63.0,480,480,0.0,49.0
419,70.0,0,480,0.0,49.0
420,75.0,480,1440,0.0,71.0
421,63.0,480,480,0.0,49.0
422,70.0,0,0,0.0,43.0
423,62.0,480,480,0.0,43.0
424,70.0,0,0,0.0,43.0
425,62.0,480,480,0.0,43.0
426,55.0,0,2880,0.0,48.0
427,43.0,0,2880,0.0,40.0
428,70.0,0,480,0.0,43.0
429,62.0,480,480,0.0,43.0
430,74.0,0,1440,0.0,56.0
431,70.0,420,60,0.0,50.0
432,66.0,0,480,0.0,51.0
433,60.0,0,480,0.0,51.0
434,60.0,60,480,0.0,48.0
435,66.0,0,0,0.0,43.0
436,69.0,0,480,0.0,57.0
437,68.0,480,480,0.0,54.0
438,60.0,0,480,0.0,43.0
439,69.0,0,480,0.0,57.0
440,66.0,480,480,0.0,48.0
441,60.0,0,480,0.0,48.0
442,66.0,0,480,0.0,47.0
443,70.0,480,480,0.0,56.0
444,60.0,0,480,0.0,47.0
445,60.0,0,480,0.0,49.0
446,66.0,0,480,0.0,49.0
447,72.0,480,0,0.0,67.0
448,38.0,480,2880,0.0,32.0
449,50.0,0,2880,0.0,38.0
450,67.0,0,480,0.0,49.0
451,60.0,480,0,0.0,49.0
452,67.0,480,0,0.0,43.0
453,58.0,0,480,0.0,43.0
454,67.0,480,0,0.0,43.0
455,58.0,0,480,0.0,43.0
456,67.0,0,0,0.0,43.0
457,58.0,480,480,0.0,43.0
458,70.0,0,1440,0.0,51.0
459,39.0,0,2880,0.0,33.0
460,51.0,0,2880,0.0,39.0
461,67.0,0,480,0.0,50.0
462,63.0,0,480,0.0,50.0
463,67.0,480,0,0.0,50.0
464,63.0,0,0,0.0,50.0
465,69.0,480,1440,0.0,56.0
466,36.0,0,1440,0.0,39.0
467,48.0,0,1440,0.0,39.0
468,66.0,0,480,0.0,42.0
469,62.0,480,480,0.0,42.0
470,62.0,0,0,0.0,42.0
471,66.0,480,0,0.0,42.0
472,69.0,0,1200,0.0,51.0
473,69.0,240,120,0.0,51.0
474,38.0,0,1440,0.0,33.0
475,50.0,0,1440,0.0,39.0
476,64.0,60,540,0.0,51.0
477,37.0,0,480,0.0,33.0
478,49.0,0,480,0.0,39.0
479,57.0,120,600,0.0,51.0
480,52.0,0,475,0.0,30.0
481,57.0,0,475,0.0,30.0
482,64.0,480,475,0.0,36.0
483,52.0,0,475,0.0,28.0
484,57.0,0,475,0.0,28.0
485,64.0,480,475,0.0,34.0
486,64.0,0,475,0.0,34.0
487,57.0,480,475,0.0,28.0
488,52.0,0,475,0.0,28.0
489,64.0,0,475,0.0,34.0
490,52.0,480,475,0.0,28.0
491,57.0,0,475,0.0,28.0
492,69.0,60,2400,0.0,51.0
493,52.0,0,475,0.0,29.0
494,57.0,0,475,0.0,29.0
495,64.0,480,475,0.0,35.0
496,69.0,0,600,0.0,66.0
497,70.0,120,120,0.0,56.0
498,69.0,120,120,0.0,56.0
499,36.0,480,480,0.0,36.0
500,48.0,0,480,0.0,42.0
501,68.0,120,120,0.0,57.0
502,69.0,0,120,0.0,58.0
503,79.0,120,120,0.0,60.0
504,76.0,120,120,0.0,61.0
505,65.0,120,475,0.0,39.0
506,63.0,0,475,0.0,33.0
507,53.0,0,475,0.0,33.0
508,57.0,0,475,0.0,33.0
509,77.0,0,0,0.0,63.0
510,91.0,120,120,0.0,64.0
511,89.0,120,120,0.0,66.0
512,53.0,120,475,0.0,33.0
513,57.0,0,475,0.0,33.0
514,63.0,0,475,0.0,33.0
515,65.0,0,475,0.0,39.0
516,88.0,120,120,0.0,66.0
517,87.0,120,80,0.0,67.0
518,84.0,80,80,0.0,58.0
519,81.0,80,80,0.0,58.0
520,82.0,80,80,0.0,62.0
521,86.0,80,80,0.0,58.0
522,57.0,0,475,0.0,33.0
523,63.0,0,475,0.0,33.0
524,65.0,0,475,0.0,39.0
525,53.0,0,475,0.0,33.0
526,84.0,80,80,0.0,58.0
527,82.0,80,80,0.0,66.0
528,79.0,80,80,0.0,58.0
529,77.0,80,80,0.0,58.0
530,74.0,80,80,0.0,62.0
531,75.0,80,80,0.0,58.0
532,57.0,0,475,0.0,33.0
533,63.0,0,475,0.0,33.0
534,53.0,0,475,0.0,33.0
535,65.0,0,475,0.0,39.0
536,76.0,80,80,0.0,58.0
537,77.0,80,80,0.0,63.0
538,78.0,80,80,0.0,58.0
539,81.0,80,80,0.0,58.0
540,79.0,80,80,0.0,58.0
541,77.0,80,80,0.0,56.0
542,63.0,0,475,0.0,33.0
543,57.0,0,475,0.0,33.0
544,53.0,0,475,0.0,33.0
545,65.0,0,475,0.0,39.0
546,75.0,80,80,0.0,56.0
547,73.0,80,240,0.0,64.0
548,34.0,0,480,0.0,38.0
549,46.0,0,480,0.0,45.0
550,58.0,480,480,0.0,39.0
551,53.0,0,480,0.0,31.0
552,50.0,0,480,0.0,31.0
553,62.0,0,480,0.0,39.0
554,58.0,0,480,0.0,33.0
555,53.0,480,480,0.0,33.0
556,74.0,0,1440,0.0,66.0
557,39.0,480,480,0.0,40.0
558,60.0,480,480,0.0,37.0
559,72.0,0,480,0.0,56.0
560,55.0,0,480,0.0,31.0
561,51.0,0,480,0.0,31.0
562,60.0,0,480,0.0,31.0
563,63.0,480,480,0.0,37.0
564,67.0,0,480,0.0,57.0
565,55.0,0,480,0.0,31.0
566,38.0,0,480,0.0,42.0
567,55.0,0,0,0.0,29.0
568,58.0,480,0,0.0,29.0
569,63.0,0,480,0.0,35.0
570,70.0,480,1440,0.0,62.0
571,62.0,0,960,0.0,35.0
572,61.0,0,480,0.0,35.0
573,58.0,480,480,0.0,29.0
574,60.0,0,480,0.0,36.0
575,57.0,480,480,0.0,30.0
576,50.0,0,1440,0.0,39.0
577,66.0,480,1440,0.0,53.0
578,43.0,480,240,0.0,36.0
579,67.0,0,480,0.0,47.0
580,82.0,480,240,0.0,50.0
581,70.0,0,240,0.0,28.0
582,65.0,0,480,0.0,28.0
583,74.0,240,240,0.0,45.0
584,77.0,240,240,0.0,48.0
585,58.0,0,960,0.0,19.0
586,55.0,0,960,0.0,19.0
587,63.0,0,480,0.0,29.0
588,42.0,240,240,0.0,38.0
589,75.0,240,720,0.0,45.0
590,69.0,0,240,0.0,31.0
591,81.0,0,240,0.0,50.0
592,63.0,0,480,0.0,28.0
593,73.0,240,240,0.0,44.0
594,75.0,0,240,0.0,49.0
595,54.0,0,960,0.0,19.0
596,57.0,480,960,0.0,19.0
597,62.0,240,480,0.0,29.0
598,43.0,240,240,0.0,38.0
599,74.0,240,720,0.0,45.0
600,82.0,0,240,0.0,50.0
601,70.0,0,240,0.0,30.0
602,65.0,0,480,0.0,30.0
603,74.0,240,240,0.0,48.0
604,77.0,240,240,0.0,50.0
605,63.0,0,480,0.0,30.0
606,55.0,0,960,0.0,20.0
607,58.0,480,960,0.0,20.0
608,41.0,240,240,0.0,40.0
609,75.0,240,720,0.0,47.0
610,80.0,480,240,0.0,51.0
611,68.0,0,240,0.0,32.0
612,63.0,0,480,0.0,30.0
613,73.0,240,240,0.0,47.0
614,75.0,0,240,0.0,52.0
615,62.0,240,480,0.0,30.0
616,56.0,0,960,0.0,20.0
617,53.0,0,960,0.0,20.0
618,59.0,0,960,0.0,20.0
619,39.0,240,240,0.0,41.0
620,74.0,240,720,0.0,47.0
621,79.0,0,240,0.0,53.0
622,67.0,480,240,0.0,32.0
623,71.0,240,240,0.0,50.0
624,62.0,0,480,0.0,32.0
625,74.0,240,240,0.0,53.0
626,60.0,0,480,0.0,32.0
627,51.0,0,960,0.0,21.0
628,55.0,0,960,0.0,21.0
629,36.0,240,240,0.0,42.0
630,72.0,240,720,0.0,49.0
631,72.0,0,240,0.0,54.0
632,60.0,0,240,0.0,41.0
633,68.0,240,240,0.0,49.0
634,58.0,480,480,0.0,31.0
635,70.0,240,240,0.0,55.0
636,57.0,0,480,0.0,32.0
637,51.0,0,960,0.0,26.0
638,38.0,240,240,0.0,43.0
639,69.0,240,720,0.0,49.0
640,63.0,0,240,0.0,43.0
641,75.0,0,240,0.0,55.0
642,55.0,480,480,0.0,33.0
643,71.0,240,240,0.0,53.0
644,74.0,0,240,0.0,56.0
645,54.0,240,480,0.0,33.0
646,50.0,0,960,0.0,28.0
647,60.0,0,960,0.0,28.0
648,38.0,240,240,0.0,44.0
649,72.0,240,720,0.0,52.0
650,63.0,480,240,0.0,48.0
651,57.0,0,480,0.0,37.0
652,62.0,240,240,0.0,51.0
653,67.0,0,480,0.0,57.0
654,61.0,0,240,0.0,52.0
655,60.0,240,240,0.0,52.0
656,50.0,240,480,0.0,38.0
657,69.0,0,480,0.0,57.0
658,66.0,0,480,0.0,47.0
659,55.0,0,240,0.0,59.0
660,43.0,0,240,0.0,59.0
661,70.0,0,480,0.0,71.0
662,58.0,240,480,0.0,60.0
663,67.0,0,480,0.0,60.0
664,65.0,0,480,0.0,43.0
665,74.0,240,240,0.0,67.0
666,77.0,0,240,0.0,71.0
667,70.0,480,960,0.0,52.0
668,82.0,0,960,0.0,71.0
669,58.0,0,480,0.0,36.0
670,55.0,0,960,0.0,36.0
671,63.0,240,480,0.0,43.0
672,42.0,0,240,0.0,62.0
673,54.0,240,240,0.0,62.0
674,75.0,240,720,0.0,66.0
675,63.0,0,480,0.0,41.0
676,73.0,240,240,0.0,65.0
677,75.0,0,240,0.0,72.0
678,54.0,0,960,0.0,35.0
679,57.0,0,480,0.0,35.0
680,62.0,240,480,0.0,42.0
681,81.0,0,960,0.0,71.0
682,69.0,480,960,0.0,57.0
683,55.0,0,240,0.0,61.0
684,43.0,240,240,0.0,61.0
685,74.0,240,720,0.0,66.0
686,65.0,0,480,0.0,44.0
687,74.0,240,240,0.0,69.0
688,77.0,240,240,0.0,73.0
689,63.0,0,480,0.0,44.0
690,75.0,240,240,0.0,67.0
691,82.0,0,960,0.0,72.0
692,70.0,0,960,0.0,56.0
693,58.0,0,480,0.0,37.0
694,55.0,480,960,0.0,36.0
695,53.0,0,240,0.0,63.0
696,41.0,240,240,0.0,63.0
697,73.0,240,240,0.0,67.0
698,63.0,0,480,0.0,43.0
699,75.0,240,240,0.0,74.0
700,80.0,0,960,0.0,74.0
701,74.0,240,240,0.0,67.0
702,62.0,0,480,0.0,43.0
703,53.0,0,960,0.0,36.0
704,56.0,0,480,0.0,36.0
705,59.0,0,480,0.0,36.0
706,68.0,480,960,0.0,57.0
707,39.0,240,240,0.0,62.0
708,51.0,0,240,0.0,62.0
709,71.0,240,240,0.0,71.0
710,62.0,0,480,0.0,45.0
711,74.0,0,240,0.0,75.0
712,72.0,240,240,0.0,70.0
713,67.0,480,960,0.0,57.0
714,79.0,0,960,0.0,75.0
715,51.0,0,960,0.0,38.0
716,55.0,240,480,0.0,38.0
717,60.0,0,480,0.0,45.0
718,36.0,0,240,0.0,66.0
719,48.0,240,240,0.0,66.0
720,58.0,0,480,0.0,44.0
721,68.0,240,240,0.0,69.0
722,70.0,0,240,0.0,76.0
723,57.0,0,480,0.0,44.0
724,51.0,240,480,0.0,37.0
725,48.0,480,960,0.0,37.0
726,60.0,0,960,0.0,57.0
727,72.0,0,960,0.0,75.0
728,69.0,240,240,0.0,69.0
729,38.0,240,240,0.0,64.0
730,71.0,240,240,0.0,73.0
731,45.0,480,480,0.0,46.0
732,55.0,0,480,0.0,46.0
733,74.0,240,240,0.0,77.0
734,75.0,0,960,0.0,76.0
735,63.0,0,960,0.0,59.0
736,72.0,240,240,0.0,71.0
737,48.0,0,480,0.0,39.0
738,54.0,0,480,0.0,47.0
739,38.0,240,240,0.0,67.0
740,61.0,240,240,0.0,71.0
741,51.0,0,480,0.0,51.0
742,45.0,0,480,0.0,51.0
743,63.0,240,240,0.0,71.0
744,54.0,0,960,0.0,78.0
745,66.0,480,960,0.0,78.0
746,62.0,240,240,0.0,71.0
747,48.0,0,480,0.0,51.0
748,43.0,0,240,0.0,51.0
749,50.0,0,720,0.0,51.0
750,67.0,240,240,0.0,79.0
751,58.0,0,240,0.0,67.0
752,60.0,0,120,0.0,78.0
753,55.0,0,120,0.0,53.0
754,43.0,0,240,0.0,38.0
755,58.0,120,120,0.0,65.0
756,31.0,240,240,0.0,32.0
757,57.0,120,120,0.0,64.0
758,55.0,120,120,0.0,65.0
759,50.0,120,240,0.0,51.0
760,67.0,0,240,0.0,77.0
761,58.0,0,240,0.0,77.0
762,43.0,0,0,0.0,32.0
763,51.0,0,120,0.0,43.0
764,60.0,240,120,0.0,77.0
765,55.0,0,120,0.0,52.0
766,58.0,0,120,0.0,64.0
767,50.0,120,120,0.0,45.0
768,57.0,120,120,0.0,64.0
769,55.0,120,120,0.0,63.0
770,43.0,0,0,0.0,43.0
771,65.0,120,120,0.0,69.0
772,60.0,120,120,0.0,52.0
773,63.0,0,120,0.0,54.0
774,54.0,120,120,0.0,55.0
775,60.0,120,120,0.0,57.0
776,63.0,120,120,0.0,58.0
777,66.0,120,120,0.0,60.0
778,57.0,120,720,0.0,49.0
779,48.0,0,960,0.0,43.0
780,51.0,0,960,0.0,51.0
781,72.0,120,120,0.0,62.0
782,77.0,0,120,0.0,63.0
783,75.0,120,120,0.0,65.0
784,43.0,120,240,0.0,43.0
785,55.0,0,240,0.0,51.0
786,74.0,120,120,0.0,67.0
787,63.0,0,240,0.0,55.0
788,51.0,0,240,0.0,46.0
789,72.0,120,120,0.0,68.0
790,50.0,0,120,0.0,46.0
791,62.0,120,120,0.0,51.0
792,79.0,0,120,0.0,79.0
793,70.0,0,120,0.0,67.0
794,72.0,0,120,0.0,78.0
795,67.0,0,120,0.0,53.0
796,70.0,120,120,0.0,65.0
797,69.0,120,120,0.0,64.0
798,43.0,0,480,0.0,32.0
799,55.0,120,0,0.0,38.0
800,67.0,120,120,0.0,65.0
801,79.0,0,240,0.0,77.0
802,70.0,0,240,0.0,69.0
803,55.0,0,0,0.0,32.0
804,62.0,0,240,0.0,45.0
805,72.0,0,120,0.0,77.0
806,63.0,0,120,0.0,43.0
807,67.0,240,120,0.0,52.0
808,62.0,120,120,0.0,45.0
809,70.0,0,120,0.0,64.0
810,69.0,120,120,0.0,64.0
811,67.0,120,120,0.0,63.0
812,55.0,0,0,0.0,43.0
813,77.0,0,120,0.0,69.0
814,72.0,120,120,0.0,52.0
815,75.0,0,120,0.0,54.0
816,66.0,120,120,0.0,55.0
817,72.0,120,120,0.0,57.0
818,75.0,120,120,0.0,58.0
819,78.0,120,120,0.0,60.0
820,84.0,120,120,0.0,62.0
821,63.0,120,960,0.0,51.0
822,55.0,0,0,0.0,43.0
823,60.0,0,960,0.0,43.0
824,69.0,120,720,0.0,49.0
825,89.0,120,120,0.0,63.0
826,87.0,120,120,0.0,65.0
827,67.0,0,240,0.0,51.0
828,86.0,120,120,0.0,67.0
829,75.0,0,240,0.0,55.0
830,63.0,0,240,0.0,46.0
831,84.0,120,120,0.0,68.0
832,67.0,0,120,0.0,55.0
833,74.0,0,120,0.0,55.0
834,91.0,0,120,0.0,76.0
835,82.0,120,120,0.0,64.0
836,96.0,360,120,0.0,75.0
837,91.0,0,120,0.0,63.0
838,94.0,120,120,0.0,68.0
839,86.0,120,120,0.0,68.0
840,94.0,0,120,0.0,73.0
841,90.0,0,120,0.0,62.0
842,69.0,0,240,0.0,48.0
843,66.0,120,240,0.0,38.0
844,93.0,120,120,0.0,67.0
845,63.0,0,240,0.0,38.0
846,75.0,0,240,0.0,66.0
847,86.0,120,120,0.0,66.0
848,74.0,0,240,0.0,52.0
849,78.0,120,120,0.0,60.0
850,82.0,0,120,0.0,71.0
851,81.0,120,120,0.0,64.0
852,62.0,0,240,0.0,52.0
853,74.0,120,120,0.0,64.0
854,79.0,0,120,0.0,56.0
855,84.0,0,120,0.0,66.0
856,55.0,120,120,0.0,55.0
857,82.0,120,120,0.0,60.0
858,86.0,0,120,0.0,60.0
859,91.0,0,120,0.0,62.0
860,96.0,120,120,0.0,74.0
861,94.0,120,120,0.0,68.0
862,86.0,120,120,0.0,69.0
863,62.0,120,480,0.0,51.0
864,74.0,0,240,0.0,51.0
865,90.0,0,120,0.0,60.0
866,94.0,120,120,0.0,71.0
867,93.0,120,120,0.0,64.0
868,69.0,0,240,0.0,48.0
869,75.0,0,240,0.0,66.0
870,63.0,0,240,0.0,38.0
871,66.0,0,240,0.0,38.0
872,86.0,0,120,0.0,63.0
873,78.0,120,120,0.0,56.0
874,82.0,0,120,0.0,66.0
875,74.0,120,240,0.0,50.0
876,81.0,120,120,0.0,60.0
877,74.0,120,120,0.0,60.0
878,62.0,0,240,0.0,53.0
879,84.0,0,120,0.0,66.0
880,79.0,120,120,0.0,56.0
881,55.0,0,240,0.0,55.0
882,82.0,120,120,0.0,60.0
883,86.0,120,120,0.0,60.0
884,91.0,120,120,0.0,62.0
885,96.0,0,120,0.0,74.0
886,94.0,120,120,0.0,68.0
887,50.0,0,240,0.0,51.0
888,86.0,120,120,0.0,69.0
889,90.0,0,120,0.0,60.0
890,94.0,0,120,0.0,71.0
891,93.0,120,120,0.0,64.0
892,57.0,0,240,0.0,48.0
893,51.0,120,240,0.0,38.0
894,54.0,0,240,0.0,38.0
895,63.0,0,240,0.0,66.0
896,86.0,120,120,0.0,63.0
897,78.0,0,120,0.0,56.0
898,62.0,0,240,0.0,50.0
899,82.0,120,120,0.0,66.0
900,81.0,120,120,0.0,60.0
901,50.0,0,240,0.0,53.0
902,74.0,120,120,0.0,60.0
903,67.0,0,120,0.0,50.0
904,72.0,120,120,0.0,59.0
905,43.0,0,120,0.0,49.0
906,70.0,120,120,0.0,54.0
907,74.0,0,120,0.0,54.0
908,79.0,0,120,0.0,55.0
909,84.0,120,120,0.0,66.0
910,82.0,0,120,0.0,61.0
911,74.0,120,120,0.0,62.0
912,62.0,120,240,0.0,45.0
913,50.0,120,480,0.0,45.0
914,82.0,0,120,0.0,63.0
915,78.0,0,120,0.0,54.0
916,63.0,0,240,0.0,57.0
917,51.0,120,240,0.0,34.0
918,54.0,0,240,0.0,34.0
919,81.0,120,120,0.0,57.0
920,57.0,0,240,0.0,42.0
921,74.0,0,120,0.0,56.0
922,70.0,0,120,0.0,59.0
923,66.0,120,120,0.0,50.0
924,62.0,120,240,0.0,45.0
925,69.0,120,120,0.0,54.0
926,50.0,0,240,0.0,47.0
927,62.0,120,120,0.0,54.0
928,72.0,0,120,0.0,59.0
929,67.0,0,120,0.0,50.0
930,70.0,120,120,0.0,54.0
931,43.0,120,240,0.0,58.0
932,74.0,120,120,0.0,54.0
933,79.0,0,120,0.0,49.0
934,84.0,120,120,0.0,59.0
935,58.0,0,240,0.0,45.0
936,50.0,0,240,0.0,45.0
937,82.0,120,120,0.0,54.0
938,74.0,120,120,0.0,55.0
939,81.0,120,120,0.0,56.0
940,74.0,0,120,0.0,48.0
941,37.0,0,240,0.0,46.0
942,49.0,0,240,0.0,58.0
943,79.0,120,120,0.0,51.0
944,70.0,0,120,0.0,50.0
945,75.0,0,120,0.0,53.0
946,70.0,120,120,0.0,45.0
947,50.0,120,240,0.0,45.0
948,38.0,0,240,0.0,39.0
949,74.0,120,120,0.0,48.0
950,67.0,120,120,0.0,48.0
951,67.0,0,120,0.0,38.0
952,72.0,0,120,0.0,45.0
953,43.0,0,240,0.0,49.0
954,70.0,120,120,0.0,40.0
955,31.0,120,240,0.0,49.0
956,62.0,120,120,0.0,40.0
957,69.0,120,120,0.0,50.0
958,62.0,0,120,0.0,41.0
959,46.0,0,240,0.0,38.0
960,67.0,120,120,0.0,45.0
961,58.0,120,120,0.0,46.0
962,58.0,0,120,0.0,40.0
963,63.0,0,120,0.0,47.0
964,62.0,120,120,0.0,43.0
965,37.0,120,240,0.0,49.0
966,55.0,0,120,0.0,42.0
967,60.0,0,120,0.0,45.0
968,55.0,120,120,0.0,38.0
969,38.0,120,240,0.0,38.0
970,58.0,120,120,0.0,40.0
971,50.0,120,120,0.0,40.0
972,60.0,0,120,0.0,53.0
973,55.0,0,120,0.0,45.0
974,43.0,120,240,0.0,49.0
975,31.0,0,240,0.0,49.0
976,58.0,120,120,0.0,48.0
977,50.0,120,120,0.0,48.0
978,55.0,0,120,0.0,46.0
979,62.0,120,120,0.0,55.0
980,60.0,120,120,0.0,50.0
981,51.0,120,120,0.0,51.0
982,36.0,0,240,0.0,45.0
983,55.0,120,120,0.0,45.0
984,60.0,0,120,0.0,54.0
985,31.0,0,240,0.0,49.0
986,58.0,120,120,0.0,50.0
987,43.0,0,240,0.0,49.0
988,50.0,120,120,0.0,50.0
989,62.0,120,120,0.0,53.0
990,55.0,0,120,0.0,45.0
991,60.0,0,120,0.0,48.0
992,36.0,120,240,0.0,45.0
993,51.0,120,120,0.0,48.0
994,60.0,0,120,0.0,53.0
995,55.0,0,120,0.0,45.0
996,43.0,0,240,0.0,49.0
997,31.0,120,240,0.0,49.0
998,58.0,120,120,0.0,48.0
999,50.0,120,120,0.0,48.0
1000,62.0,120,120,0.0,55.0
1001,55.0,0,120,0.0,46.0
1002,60.0,0,120,0.0,50.0
1003,51.0,120,120,0.0,51.0
1004,36.0,120,240,0.0,45.0
1005,55.0,120,120,0.0,45.0
1006,60.0,0,120,0.0,54.0
1007,31.0,0,240,0.0,49.0
1008,43.0,0,240,0.0,49.0
1009,58.0,120,120,0.0,50.0
1010,50.0,120,120,0.0,50.0
1011,62.0,0,120,0.0,53.0
1012,55.0,120,120,0.0,45.0
1013,60.0,0,120,0.0,48.0
1014,36.0,120,240,0.0,45.0
1015,51.0,120,120,0.0,48.0
1016,55.0,0,120,0.0,50.0
1017,62.0,120,120,0.0,51.0
1018,58.0,120,120,0.0,52.0
1019,62.0,120,120,0.0,53.0
1020,67.0,120,120,0.0,55.0
1021,43.0,120,720,0.0,49.0
1022,70.0,120,120,0.0,56.0
1023,31.0,0,720,0.0,41.0
1024,74.0,120,120,0.0,57.0
1025,79.0,120,120,0.0,58.0
1026,82.0,0,120,0.0,59.0
1027,67.0,120,220,0.0,57.0
1028,62.0,0,220,0.0,48.0
1029,86.0,120,120,0.0,61.0
1030,91.0,120,120,0.0,62.0
1031,62.0,0,220,0.0,53.0
1032,55.0,0,220,0.0,45.0
1033,98.0,120,120,0.0,63.0
1034,94.0,120,120,0.0,63.0
1035,98.0,120,120,0.0,60.0
1036,91.0,120,120,0.0,59.0
1037,62.0,0,480,0.0,48.0
1038,67.0,0,480,0.0,57.0
1039,86.0,120,120,0.0,58.0
1040,82.0,120,120,0.0,58.0
1041,79.0,120,120,0.0,57.0
1042,74.0,120,120,0.0,56.0
1043,70.0,120,120,0.0,56.0
1044,67.0,120,120,0.0,55.0
1045,62.0,120,120,0.0,54.0
1046,58.0,120,120,0.0,53.0
1047,38.0,0,240,0.0,49.0
1048,50.0,120,120,0.0,53.0
1049,55.0,0,120,0.0,49.0
1050,62.0,120,120,0.0,50.0
1051,58.0,120,120,0.0,52.0
1052,62.0,120,120,0.0,54.0
1053,67.0,120,120,0.0,55.0
1054,74.0,120,120,0.0,57.0
1055,70.0,120,120,0.0,57.0
1056,74.0,120,120,0.0,56.0
1057,67.0,120,120,0.0,54.0
1058,62.0,120,120,0.0,53.0
1059,43.0,0,1200,0.0,52.0
1060,31.0,120,1200,0.0,44.0
1061,58.0,120,120,0.0,51.0
1062,50.0,120,120,0.0,49.0
1063,38.0,0,240,0.0,47.0
1064,54.0,120,120,0.0,49.0
1065,62.0,120,120,0.0,50.0
1066,58.0,120,120,0.0,52.0
1067,62.0,120,120,0.0,54.0
1068,66.0,120,120,0.0,55.0
1069,74.0,120,120,0.0,57.0
1070,70.0,120,120,0.0,57.0
1071,74.0,120,120,0.0,56.0
1072,66.0,120,120,0.0,54.0
1073,42.0,0,1200,0.0,52.0
1074,30.0,0,1200,0.0,44.0
1075,62.0,120,120,0.0,53.0
1076,58.0,0,120,0.0,51.0
1077,50.0,120,120,0.0,49.0
1078,38.0,120,240,0.0,47.0
1079,55.0,0,120,0.0,50.0
1080,62.0,120,120,0.0,51.0
1081,58.0,120,120,0.0,52.0
1082,62.0,120,120,0.0,53.0
1083,67.0,120,120,0.0,55.0
1084,31.0,0,720,0.0,41.0
1085,43.0,120,720,0.0,49.0
1086,70.0,120,120,0.0,56.0
1087,74.0,120,120,0.0,57.0
1088,79.0,120,120,0.0,58.0
1089,82.0,120,120,0.0,59.0
1090,55.0,0,220,0.0,57.0
1091,50.0,0,220,0.0,48.0
1092,86.0,120,120,0.0,61.0
1093,91.0,120,120,0.0,62.0
1094,50.0,0,220,0.0,53.0
1095,43.0,0,220,0.0,45.0
1096,98.0,120,120,0.0,63.0
1097,94.0,120,120,0.0,63.0
1098,98.0,120,120,0.0,60.0
1099,91.0,120,120,0.0,59.0
1100,50.0,0,480,0.0,48.0
1101,55.0,0,480,0.0,57.0
1102,86.0,120,120,0.0,58.0
1103,82.0,120,120,0.0,58.0
1104,79.0,120,120,0.0,57.0
1105,74.0,120,120,0.0,56.0
1106,70.0,120,120,0.0,56.0
1107,67.0,120,120,0.0,55.0
1108,62.0,120,120,0.0,54.0
1109,58.0,120,120,0.0,53.0
1110,38.0,0,240,0.0,49.0
1111,50.0,120,120,0.0,53.0
1112,54.0,0,120,0.0,49.0
1113,62.0,120,120,0.0,50.0
1114,58.0,120,120,0.0,52.0
1115,62.0,120,120,0.0,54.0
1116,66.0,120,120,0.0,55.0
1117,74.0,120,120,0.0,57.0
1118,70.0,120,120,0.0,57.0
1119,74.0,120,120,0.0,56.0
1120,66.0,120,120,0.0,54.0
1121,62.0,120,120,0.0,53.0
1122,42.0,0,1200,0.0,52.0
1123,30.0,120,1200,0.0,44.0
1124,58.0,120,120,0.0,51.0
1125,38.0,0,240,0.0,47.0
1126,50.0,120,120,0.0,49.0
1127,53.0,0,120,0.0,49.0
1128,62.0,120,120,0.0,50.0
1129,58.0,120,120,0.0,52.0
1130,62.0,120,120,0.0,54.0
1131,65.0,120,120,0.0,55.0
1132,74.0,120,120,0.0,57.0
1133,70.0,120,120,0.0,57.0
1134,74.0,120,120,0.0,56.0
1135,65.0,120,120,0.0,54.0
1136,62.0,120,120,0.0,53.0
1137,41.0,120,1200,0.0,52.0
1138,58.0,120,120,0.0,51.0
1139,50.0,120,120,0.0,49.0
1140,43.0,0,240,0.0,47.0
1141,53.0,120,120,0.0,50.0
1142,60.0,120,120,0.0,51.0
1143,57.0,120,120,0.0,52.0
1144,60.0,120,120,0.0,53.0
1145,29.0,0,1920,0.0,44.0
1146,65.0,120,120,0.0,55.0
1147,45.0,0,720,0.0,49.0
1148,69.0,120,120,0.0,56.0
1149,72.0,120,120,0.0,57.0
1150,77.0,120,120,0.0,58.0
1151,81.0,120,120,0.0,59.0
1152,60.0,0,220,0.0,44.0
1153,65.0,0,220,0.0,52.0
1154,84.0,120,120,0.0,61.0
1155,89.0,120,120,0.0,62.0
1156,60.0,0,220,0.0,44.0
1157,53.0,0,220,0.0,36.0
1158,96.0,120,120,0.0,63.0
1159,101.0,0,240,0.0,63.0
1160,65.0,0,1200,0.0,52.0
1161,60.0,0,0,0.0,41.0
1162,53.0,1200,240,0.0,35.0
1163,65.0,240,1200,0.0,46.0
1164,60.0,0,1200,0.0,39.0
1165,53.0,1200,240,0.0,31.0
1166,60.0,0,240,0.0,36.0
1167,65.0,240,480,0.0,40.0
1168,60.0,480,0,0.0,34.0
1169,53.0,0,240,0.0,28.0
1170,60.0,240,240,0.0,31.0
1171,65.0,0,240,0.0,37.0
1172,53.0,240,240,0.0,30.0
1173,60.0,240,0,0.0,30.0
1174,34.0,240,480,0.0,36.0
1175,46.0,480,480,0.0,29.0
1176,65.0,0,1680,0.0,36.0
1177,56.0,480,480,0.0,29.0
1178,53.0,0,480,0.0,31.0
1179,60.0,480,480,0.0,31.0
1180,67.0,480,0,0.0,37.0
1181,62.0,0,1440,0.0,34.0
1182,58.0,0,480,0.0,31.0
1183,39.0,0,480,0.0,36.0
1184,46.0,480,480,0.0,30.0
1185,51.0,480,480,0.0,30.0
1186,63.0,480,1920,0.0,42.0
1187,55.0,480,480,0.0,31.0
1188,58.0,480,480,0.0,31.0
1189,75.0,0,720,0.0,50.0
1190,74.0,240,240,0.0,40.0
1191,63.0,480,480,0.0,31.0
1192,60.0,240,480,0.0,33.0
1193,63.0,480,480,0.0,30.0
1194,67.0,0,1440,0.0,33.0
1195,72.0,0,1440,0.0,49.0
1196,53.0,480,480,0.0,25.0
1197,63.0,0,480,0.0,33.0
1198,67.0,480,480,0.0,30.0
1199,74.0,0,0,0.0,37.0
1200,65.0,480,480,0.0,30.0
1201,69.0,480,1440,0.0,37.0
1202,46.0,0,480,0.0,36.0
1203,53.0,480,480,0.0,29.0
1204,58.0,480,480,0.0,29.0
1205,70.0,480,1440,0.0,40.0
1206,62.0,480,480,0.0,32.0
1207,65.0,480,480,0.0,32.0
1208,82.0,480,0,0.0,56.0
1209,70.0,0,480,0.0,32.0
1210,60.0,0,480,0.0,36.0
1211,63.0,480,480,0.0,30.0
1212,82.0,480,960,0.0,59.0
1213,53.0,0,480,0.0,30.0
1214,80.0,480,0,0.0,59.0
1215,58.0,0,480,0.0,33.0
1216,62.0,0,480,0.0,29.0
1217,79.0,480,480,0.0,56.0
1218,78.0,480,0,0.0,58.0
1219,68.0,480,480,0.0,29.0
1220,58.0,0,480,0.0,36.0
1221,62.0,480,480,0.0,29.0
1222,51.0,0,480,0.0,29.0
1223,56.0,480,480,0.0,28.0
1224,79.0,480,960,0.0,56.0
1225,60.0,0,480,0.0,29.0
1226,80.0,480,720,0.0,62.0
1227,67.0,480,480,0.0,29.0
1228,75.0,240,240,0.0,56.0
1229,56.0,240,480,0.0,36.0
1230,60.0,480,480,0.0,31.0
1231,79.0,0,960,0.0,59.0
1232,50.0,480,480,0.0,32.0
1233,77.0,0,960,0.0,50.0
1234,55.0,480,480,0.0,30.0
1235,59.0,0,480,0.0,36.0
1236,79.0,480,720,0.0,59.0
1237,65.0,480,480,0.0,30.0
1238,74.0,240,240,0.0,53.0
1239,77.0,240,480,0.0,59.0
1240,55.0,0,480,0.0,36.0
1241,60.0,0,480,0.0,31.0
1242,75.0,480,480,0.0,55.0
1243,74.0,480,480,0.0,55.0
1244,48.0,0,480,0.0,31.0
1245,72.0,480,160,0.0,55.0
1246,74.0,160,160,0.0,50.0
1247,72.0,160,160,0.0,50.0
1248,53.0,0,480,0.0,33.0
1249,71.0,160,240,0.0,53.0
1250,57.0,0,480,0.0,33.0
1251,72.0,240,240,0.0,50.0
1252,74.0,0,240,0.0,50.0
1253,75.0,240,180,0.0,50.0
1254,63.0,240,480,0.0,33.0
1255,53.0,60,480,0.0,36.0
1256,56.0,480,480,0.0,29.0
1257,65.0,0,1440,0.0,36.0
1258,60.0,180,1500,0.0,30.0
1259,46.0,480,480,0.0,29.0
1260,56.0,0,480,0.0,31.0
1261,67.0,0,960,0.0,42.0
1262,60.0,480,480,0.0,31.0
1263,58.0,0,480,0.0,31.0
1264,62.0,480,1440,0.0,34.0
1265,67.0,480,480,0.0,37.0
1266,39.0,480,480,0.0,36.0
1267,46.0,480,480,0.0,30.0
1268,51.0,480,480,0.0,30.0
1269,63.0,0,1920,0.0,42.0
1270,55.0,480,480,0.0,31.0
1271,58.0,0,480,0.0,31.0
1272,75.0,480,720,0.0,55.0
1273,74.0,240,240,0.0,44.0
1274,63.0,480,480,0.0,31.0
1275,60.0,0,480,0.0,30.0
1276,63.0,480,480,0.0,30.0
1277,67.0,0,1440,0.0,34.0
1278,72.0,240,1440,0.0,53.0
1279,53.0,480,480,0.0,25.0
1280,63.0,0,480,0.0,33.0
1281,67.0,480,480,0.0,30.0
1282,74.0,480,960,0.0,52.0
1283,65.0,0,480,0.0,30.0
1284,69.0,0,1440,0.0,40.0
1285,74.0,480,480,0.0,47.0
1286,46.0,480,480,0.0,36.0
1287,53.0,480,480,0.0,32.0
1288,70.0,0,1440,0.0,49.0
1289,58.0,480,480,0.0,32.0
1290,62.0,480,480,0.0,34.0
1291,82.0,0,0,0.0,60.0
1292,65.0,480,480,0.0,36.0
1293,82.0,0,0,0.0,68.0
1294,70.0,480,480,0.0,38.0
1295,36.0,480,480,0.0,44.0
1296,64.0,480,480,0.0,35.0
1297,58.0,480,480,0.0,36.0
1298,72.0,480,960,0.0,61.0
1299,64.0,480,480,0.0,31.0
1300,55.0,0,1440,0.0,36.0
1301,74.0,480,480,0.0,55.0
1302,58.0,0,480,0.0,31.0
1303,75.0,0,160,0.0,60.0
1304,77.0,160,160,0.0,53.0
1305,75.0,160,160,0.0,53.0
1306,74.0,160,480,0.0,52.0
1307,63.0,0,480,0.0,31.0
1308,75.0,480,480,0.0,55.0
1309,53.0,480,1440,0.0,36.0
1310,57.0,0,480,0.0,31.0
1311,46.0,0,480,0.0,36.0
1312,79.0,480,480,0.0,56.0
1313,62.0,480,480,0.0,31.0
1314,79.0,0,640,0.0,61.0
1315,77.0,160,160,0.0,48.0
1316,75.0,160,160,0.0,48.0
1317,56.0,480,480,0.0,31.0
1318,39.0,0,240,0.0,38.0
1319,46.0,240,240,0.0,26.0
1320,55.0,240,240,0.0,31.0
1321,51.0,240,240,0.0,27.0
1322,58.0,240,240,0.0,31.0
1323,55.0,240,240,0.0,27.0
1324,75.0,160,1440,0.0,50.0
1325,63.0,240,480,0.0,32.0
1326,67.0,480,240,0.0,36.0
1327,68.0,240,240,0.0,34.0
1328,70.0,240,160,0.0,37.0
1329,74.0,160,160,0.0,34.0
1330,72.0,160,160,0.0,34.0
1331,39.0,160,240,0.0,32.0
1332,46.0,240,240,0.0,22.0
1333,55.0,240,240,0.0,26.0
1334,51.0,240,240,0.0,22.0
1335,58.0,240,240,0.0,26.0
1336,55.0,240,240,0.0,22.0
1337,70.0,0,1440,0.0,42.0
1338,63.0,240,480,0.0,27.0
1339,67.0,480,240,0.0,36.0
1340,68.0,240,240,0.0,34.0
1341,70.0,240,160,0.0,37.0
1342,74.0,160,160,0.0,34.0
1343,72.0,160,160,0.0,34.0
1344,39.0,160,240,0.0,32.0
1345,46.0,240,240,0.0,22.0
1346,56.0,240,240,0.0,26.0
1347,53.0,240,240,0.0,22.0
1348,58.0,240,240,0.0,26.0
1349,56.0,240,240,0.0,22.0
1350,70.0,0,1440,0.0,42.0
1351,62.0,240,480,0.0,27.0
1352,65.0,480,240,0.0,36.0
1353,68.0,240,240,0.0,34.0
1354,70.0,240,160,0.0,37.0
1355,74.0,160,160,0.0,34.0
1356,72.0,160,160,0.0,34.0
1357,39.0,0,240,0.0,32.0
1358,46.0,240,240,0.0,25.0
1359,70.0,160,640,0.0,42.0
1360,63.0,160,160,0.0,34.0
1361,55.0,240,480,0.0,28.0
1362,61.0,160,480,0.0,34.0
1363,67.0,160,160,0.0,39.0
1364,72.0,160,160,0.0,34.0
1365,70.0,160,160,0.0,35.0
1366,39.0,0,240,0.0,32.0
1367,51.0,240,240,0.0,25.0
1368,68.0,160,720,0.0,38.0
1369,56.0,240,480,0.0,29.0
1370,63.0,240,240,0.0,38.0
1371,59.0,240,480,0.0,37.0
1372,65.0,240,240,0.0,35.0
1373,39.0,240,240,0.0,32.0
1374,46.0,240,240,0.0,22.0
1375,55.0,240,240,0.0,26.0
1376,51.0,240,240,0.0,22.0
1377,58.0,240,240,0.0,26.0
1378,67.0,0,1440,0.0,46.0
1379,55.0,240,240,0.0,22.0
1380,63.0,240,480,0.0,27.0
1381,67.0,480,240,0.0,36.0
1382,68.0,240,240,0.0,34.0
1383,70.0,240,160,0.0,37.0
1384,74.0,160,160,0.0,34.0
1385,72.0,160,160,0.0,34.0
1386,39.0,160,240,0.0,32.0
1387,70.0,0,480,0.0,42.0
1388,46.0,240,240,0.0,22.0
1389,55.0,0,240,0.0,26.0
1390,51.0,240,240,0.0,22.0
1391,58.0,240,240,0.0,26.0
1392,55.0,240,240,0.0,22.0
1393,82.0,240,1440,0.0,51.0
1394,63.0,240,480,0.0,27.0
1395,67.0,640,160,0.0,36.0
1396,68.0,160,160,0.0,34.0
1397,70.0,160,160,0.0,37.0
1398,74.0,160,160,0.0,34.0
1399,72.0,160,160,0.0,34.0
1400,39.0,0,240,0.0,32.0
1401,46.0,240,240,0.0,22.0
1402,70.0,160,480,0.0,42.0
1403,56.0,0,240,0.0,26.0
1404,53.0,240,240,0.0,22.0
1405,58.0,240,240,0.0,26.0
1406,56.0,240,240,0.0,22.0
1407,62.0,240,480,0.0,27.0
1408,82.0,240,1440,0.0,50.0
1409,65.0,640,160,0.0,36.0
1410,68.0,160,160,0.0,34.0
1411,70.0,160,160,0.0,37.0
1412,74.0,160,160,0.0,34.0
1413,72.0,160,160,0.0,34.0
1414,39.0,160,240,0.0,32.0
1415,46.0,240,240,0.0,25.0
1416,70.0,0,640,0.0,42.0
1417,55.0,240,480,0.0,28.0
1418,63.0,160,160,0.0,34.0
1419,61.0,160,480,0.0,34.0
1420,67.0,160,160,0.0,39.0
1421,72.0,160,160,0.0,34.0
1422,70.0,160,160,0.0,35.0
1423,39.0,160,240,0.0,32.0
1424,51.0,240,240,0.0,25.0
1425,68.0,0,720,0.0,38.0
1426,56.0,240,480,0.0,29.0
1427,63.0,240,240,0.0,38.0
1428,59.0,240,480,0.0,37.0
1429,65.0,240,240,0.0,35.0
1430,39.0,0,240,0.0,32.0
1431,46.0,240,240,0.0,22.0
1432,55.0,240,240,0.0,26.0
1433,51.0,240,240,0.0,22.0
1434,58.0,240,240,0.0,26.0
1435,55.0,240,240,0.0,22.0
1436,67.0,240,1680,0.0,46.0
1437,63.0,240,480,0.0,27.0
1438,67.0,240,240,0.0,34.0
1439,70.0,240,240,0.0,36.0
1440,79.0,240,240,0.0,37.0
1441,77.0,240,240,0.0,40.0
1442,75.0,240,240,0.0,37.0
1443,43.0,240,240,0.0,32.0
1444,50.0,240,240,0.0,22.0
1445,58.0,240,240,0.0,26.0
1446,55.0,240,240,0.0,22.0
1447,62.0,240,240,0.0,26.0
1448,58.0,240,240,0.0,22.0
1449,74.0,0,1680,0.0,46.0
1450,70.0,240,240,0.0,34.0
1451,67.0,240,480,0.0,27.0
1452,74.0,240,240,0.0,36.0
1453,82.0,240,240,0.0,37.0
1454,74.0,240,240,0.0,40.0
1455,75.0,240,240,0.0,37.0
1456,46.0,240,240,0.0,32.0
1457,76.0,0,480,0.0,46.0
1458,53.0,240,240,0.0,22.0
1459,62.0,0,240,0.0,26.0
1460,58.0,240,240,0.0,22.0
1461,65.0,240,240,0.0,26.0
1462,62.0,240,240,0.0,22.0
1463,77.0,240,1200,0.0,46.0
1464,70.0,240,480,0.0,27.0
1465,74.0,240,240,0.0,39.0
1466,77.0,240,240,0.0,43.0
1467,86.0,240,240,0.0,50.0
1468,84.0,240,240,0.0,46.0
1469,82.0,240,240,0.0,41.0
1470,50.0,240,240,0.0,31.0
1471,80.0,0,240,0.0,45.0
1472,57.0,0,240,0.0,26.0
1473,81.0,240,240,0.0,40.0
1474,65.0,240,240,0.0,31.0
1475,89.0,0,240,0.0,51.0
1476,88.0,0,240,0.0,46.0
1477,62.0,240,240,0.0,26.0
1478,69.0,0,240,0.0,31.0
1479,86.0,240,240,0.0,45.0
1480,65.0,0,240,0.0,26.0
1481,81.0,240,240,0.0,40.0
1482,74.0,240,240,0.0,40.0
1483,69.0,240,240,0.0,36.0
1484,65.0,240,240,0.0,39.0
1485,62.0,240,240,0.0,34.0
1486,64.0,240,180,0.0,39.0
1487,67.0,180,60,0.0,31.0
1488,65.0,60,240,0.0,36.0
1489,40.0,480,480,0.0,25.0
1490,52.0,240,1440,0.0,28.0
1491,40.0,480,480,0.0,25.0
1492,40.0,0,240,0.0,39.0
1493,68.0,240,240,0.0,37.0
1494,40.0,0,240,0.0,39.0
1495,72.0,240,240,0.0,41.0
1496,62.0,720,1200,0.0,38.0
1497,71.0,240,240,0.0,39.0
1498,64.0,240,960,0.0,37.0
1499,64.0,0,475,0.0,28.0
1500,40.0,0,475,0.0,22.0
1501,60.0,480,475,0.0,23.0
1502,64.0,0,475,0.0,28.0
1503,60.0,480,475,0.0,23.0
1504,40.0,0,475,0.0,22.0
1505,69.0,240,1440,0.0,37.0
1506,57.0,480,475,0.0,21.0
1507,69.0,0,475,0.0,28.0
1508,52.0,0,475,0.0,21.0
1509,57.0,0,475,0.0,21.0
1510,69.0,480,475,0.0,28.0
1511,52.0,0,475,0.0,21.0
1512,76.0,0,1440,0.0,41.0
1513,64.0,480,1440,0.0,34.0
1514,57.0,0,475,0.0,22.0
1515,52.0,480,475,0.0,22.0
1516,65.0,0,475,0.0,23.0
1517,69.0,0,475,0.0,28.0
1518,57.0,480,475,0.0,22.0
1519,65.0,0,475,0.0,23.0
1520,69.0,0,475,0.0,28.0
1521,52.0,0,475,0.0,22.0
1522,62.0,0,1440,0.0,34.0
1523,74.0,480,1440,0.0,39.0
1524,40.0,240,240,0.0,39.0
1525,68.0,240,240,0.0,37.0
1526,40.0,0,240,0.0,39.0
1527,72.0,240,240,0.0,41.0
1528,71.0,240,240,0.0,39.0
1529,64.0,0,960,0.0,37.0
1530,62.0,720,1200,0.0,40.0
1531,64.0,0,475,0.0,28.0
1532,60.0,0,475,0.0,23.0
1533,40.0,480,475,0.0,22.0
1534,64.0,0,475,0.0,28.0
1535,60.0,480,475,0.0,23.0
1536,40.0,0,475,0.0,22.0
1537,69.0,240,1440,0.0,37.0
1538,40.0,0,475,0.0,21.0
1539,64.0,480,475,0.0,28.0
1540,57.0,0,475,0.0,23.0
1541,60.0,0,475,0.0,23.0
1542,60.0,0,475,0.0,23.0
1543,57.0,0,475,0.0,23.0
1544,40.0,480,475,0.0,21.0
1545,64.0,0,475,0.0,28.0
1546,66.0,0,1440,0.0,37.0
1547,54.0,480,1440,0.0,31.0
1548,64.0,0,475,0.0,23.0
1549,59.0,0,475,0.0,19.0
1550,40.0,480,475,0.0,16.0
1551,64.0,0,475,0.0,23.0
1552,40.0,0,475,0.0,16.0
1553,59.0,480,475,0.0,19.0
1554,68.0,480,1440,0.0,37.0
1555,56.0,0,1440,0.0,31.0
1556,40.0,0,475,0.0,39.0
1557,68.0,240,240,0.0,37.0
1558,72.0,0,240,0.0,41.0
1559,40.0,240,475,0.0,39.0
1560,62.0,720,1200,0.0,40.0
1561,64.0,240,960,0.0,37.0
1562,71.0,240,240,0.0,39.0
1563,64.0,0,475,0.0,28.0
1564,60.0,480,475,0.0,23.0
1565,40.0,0,475,0.0,22.0
1566,64.0,0,475,0.0,28.0
1567,60.0,0,475,0.0,23.0
1568,40.0,480,475,0.0,22.0
1569,69.0,240,1440,0.0,37.0
1570,57.0,0,475,0.0,19.0
1571,52.0,0,475,0.0,19.0
1572,72.0,0,475,0.0,32.0
1573,69.0,480,475,0.0,26.0
1574,60.0,0,475,0.0,24.0
1575,69.0,0,475,0.0,26.0
1576,60.0,0,475,0.0,24.0
1577,57.0,0,475,0.0,19.0
1578,52.0,0,475,0.0,19.0
1579,72.0,480,475,0.0,32.0
1580,64.0,0,1440,0.0,41.0
1581,76.0,480,1440,0.0,53.0
1582,64.0,0,475,0.0,26.0
1583,69.0,0,475,0.0,26.0
1584,72.0,480,475,0.0,32.0
1585,57.0,0,475,0.0,19.0
1586,60.0,0,475,0.0,24.0
1587,52.0,0,475,0.0,19.0
1588,69.0,0,475,0.0,26.0
1589,72.0,0,475,0.0,32.0
1590,57.0,0,475,0.0,19.0
1591,60.0,0,475,0.0,24.0
1592,64.0,0,475,0.0,26.0
1593,52.0,480,475,0.0,19.0
1594,78.0,0,1440,0.0,53.0
1595,66.0,480,1440,0.0,41.0
1596,40.0,0,475,0.0,39.0
1597,68.0,240,240,0.0,37.0
1598,71.0,0,240,0.0,41.0
1599,40.0,240,475,0.0,39.0
1600,69.0,240,240,0.0,39.0
1601,60.0,720,1200,0.0,40.0
1602,64.0,240,960,0.0,37.0
1603,60.0,0,475,0.0,23.0
1604,64.0,0,475,0.0,28.0
1605,40.0,480,475,0.0,22.0
1606,40.0,0,475,0.0,22.0
1607,60.0,0,475,0.0,23.0
1608,64.0,480,475,0.0,28.0
1609,69.0,240,1440,0.0,37.0
1610,52.0,480,475,0.0,21.0
1611,64.0,0,475,0.0,28.0
1612,72.0,0,475,0.0,34.0
1613,57.0,0,475,0.0,21.0
1614,60.0,0,475,0.0,26.0
1615,69.0,0,475,0.0,28.0
1616,52.0,0,475,0.0,21.0
1617,57.0,0,475,0.0,21.0
1618,60.0,0,475,0.0,26.0
1619,64.0,480,475,0.0,28.0
1620,72.0,0,475,0.0,36.0
1621,69.0,0,475,0.0,28.0
1622,66.0,480,1440,0.0,45.0
1623,78.0,0,1440,0.0,55.0
1624,57.0,480,475,0.0,21.0
1625,72.0,0,475,0.0,30.0
1626,75.0,0,475,0.0,36.0
1627,52.0,0,475,0.0,21.0
1628,69.0,0,475,0.0,30.0
1629,60.0,0,475,0.0,28.0
1630,75.0,0,475,0.0,37.0
1631,60.0,480,475,0.0,28.0
1632,57.0,0,475,0.0,21.0
1633,52.0,0,475,0.0,21.0
1634,69.0,0,475,0.0,30.0
1635,72.0,0,475,0.0,30.0
1636,68.0,480,1440,0.0,47.0
1637,80.0,0,1440,0.0,58.0
1638,57.0,0,480,0.0,23.0
1639,52.0,0,480,0.0,23.0
1640,75.0,480,480,0.0,39.0
1641,66.0,480,960,0.0,50.0
1642,60.0,0,480,0.0,28.0
1643,72.0,0,480,0.0,31.0
1644,69.0,0,480,0.0,31.0
1645,78.0,0,960,0.0,62.0
1646,68.0,240,0,0.0,53.0
1647,80.0,0,0,0.0,66.0
1648,60.0,0,475,0.0,32.0
1649,57.0,0,475,0.0,25.0
1650,52.0,0,475,0.0,25.0
1651,75.0,0,475,0.0,45.0
1652,69.0,480,475,0.0,35.0
1653,72.0,0,475,0.0,35.0
1654,52.0,0,475,0.0,26.0
1655,60.0,0,475,0.0,33.0
1656,57.0,0,475,0.0,26.0
1657,72.0,0,475,0.0,35.0
1658,75.0,480,475,0.0,45.0
1659,69.0,0,475,0.0,35.0
1660,75.0,0,480,0.0,47.0
1661,66.0,480,960,0.0,57.0
1662,72.0,0,480,0.0,38.0
1663,69.0,0,480,0.0,38.0
1664,78.0,0,960,0.0,69.0
1665,60.0,0,480,0.0,34.0
1666,57.0,0,480,0.0,27.0
1667,52.0,480,480,0.0,27.0
1668,80.0,240,0,0.0,74.0
1669,68.0,0,240,0.0,59.0
1670,75.0,0,475,0.0,50.0
1671,69.0,0,475,0.0,39.0
1672,72.0,0,475,0.0,39.0
1673,57.0,0,475,0.0,29.0
1674,52.0,0,475,0.0,29.0
1675,60.0,480,475,0.0,36.0
1676,60.0,0,475,0.0,37.0
1677,57.0,0,475,0.0,29.0
1678,52.0,480,475,0.0,29.0
1679,75.0,0,475,0.0,50.0
1680,72.0,0,475,0.0,40.0
1681,69.0,0,475,0.0,40.0
1682,68.0,0,1440,0.0,59.0
1683,57.0,0,480,0.0,31.0
1684,52.0,0,480,0.0,31.0
1685,66.0,480,960,0.0,65.0
1686,60.0,0,480,0.0,39.0
1687,78.0,0,960,0.0,81.0
1688,69.0,480,480,0.0,42.0
1689,72.0,0,480,0.0,42.0
1690,75.0,0,480,0.0,53.0
1691,80.0,720,240,0.0,77.0
1692,68.0,0,240,0.0,61.0
1693,78.0,0,475,0.0,57.0
1694,72.0,0,475,0.0,47.0
1695,75.0,0,475,0.0,47.0
1696,60.0,480,475,0.0,41.0
1697,57.0,0,475,0.0,34.0
1698,52.0,0,475,0.0,34.0
1699,60.0,0,475,0.0,46.0
1700,75.0,0,475,0.0,48.0
1701,78.0,480,475,0.0,59.0
1702,57.0,0,475,0.0,34.0
1703,52.0,0,475,0.0,34.0
1704,72.0,0,475,0.0,48.0
1705,81.0,240,1440,0.0,78.0
1706,69.0,0,1440,0.0,63.0
1707,57.0,0,300,0.0,35.0
1708,52.0,300,0,0.0,35.0
1709,68.0,480,780,0.0,74.0
1710,60.0,480,300,0.0,46.0
1711,78.0,0,475,0.0,63.0
1712,72.0,0,475,0.0,50.0
1713,75.0,0,475,0.0,50.0
1714,80.0,0,960,0.0,94.0
1715,75.0,0,475,0.0,50.0
1716,72.0,0,475,0.0,50.0
1717,81.0,60,475,0.0,100.0
1718,78.0,0,475,0.0,61.0
1719,69.0,0,480,0.0,80.0
1720,57.0,60,600,0.0,36.0
1721,60.0,60,540,0.0,46.0
1722,28.0,0,480,0.0,70.0
1723,40.0,0,480,0.0,84.0
1724,62.0,0,480,0.0,72.0
1725,52.0,480,480,0.0,61.0
1726,56.0,0,0,0.0,61.0
1727,64.0,480,480,0.0,73.0
1728,62.0,0,0,0.0,70.0
1729,83.0,0,1440,0.0,99.0
1730,76.0,480,1440,0.0,82.0
1731,71.0,0,1440,0.0,82.0
1732,74.0,0,1440,0.0,82.0
1733,80.0,0,0,0.0,81.0
1734,59.0,0,480,0.0,70.0
1735,62.0,0,0,0.0,61.0
1736,68.0,480,480,0.0,84.0
1737,62.0,480,0,0.0,73.0
1738,64.0,0,480,0.0,72.0
1739,74.0,0,960,0.0,81.0
1740,76.0,0,960,0.0,81.0
1741,85.0,0,960,0.0,96.0
1742,56.0,0,0,0.0,61.0
1743,52.0,0,480,0.0,61.0
1744,80.0,0,480,0.0,77.0
1745,76.0,0,480,0.0,77.0
1746,74.0,0,480,0.0,77.0
1747,85.0,0,480,0.0,91.0
1748,45.0,0,480,0.0,84.0
1749,33.0,480,480,0.0,70.0
1750,52.0,0,480,0.0,61.0
1751,61.0,480,480,0.0,73.0
1752,69.0,0,1440,0.0,81.0
1753,57.0,0,480,0.0,62.0
1754,64.0,480,480,0.0,74.0
1755,73.0,0,1440,0.0,81.0
1756,81.0,0,0,0.0,89.0
1757,61.0,0,480,0.0,70.0
1758,69.0,0,480,0.0,84.0
1759,93.0,0,960,0.0,105.0
1760,85.0,480,960,0.0,89.0
1761,64.0,480,480,0.0,73.0
1762,57.0,0,480,0.0,61.0
1763,85.0,0,480,0.0,85.0
1764,80.0,480,480,0.0,85.0
1765,92.0,0,480,0.0,101.0
1766,61.0,0,480,0.0,73.0
1767,52.0,0,480,0.0,61.0
1768,47.0,0,480,0.0,84.0
1769,35.0,0,480,0.0,70.0
1770,54.0,480,480,0.0,61.0
1771,59.0,0,480,0.0,73.0
1772,57.0,480,480,0.0,61.0
1773,63.0,0,480,0.0,73.0
1774,90.0,0,1440,0.0,103.0
1775,85.0,0,1440,0.0,89.0
1776,78.0,480,1440,0.0,85.0
1777,66.0,0,480,0.0,84.0
1778,59.0,0,480,0.0,70.0
1779,87.0,480,960,0.0,86.0
1780,63.0,480,480,0.0,72.0
1781,83.0,0,960,0.0,86.0
1782,57.0,0,480,0.0,61.0
1783,92.0,0,0,0.0,93.0
1784,87.0,0,480,0.0,79.0
1785,81.0,0,480,0.0,79.0
1786,54.0,480,480,0.0,61.0
1787,59.0,0,480,0.0,72.0
1788,40.0,480,480,0.0,70.0
1789,52.0,480,0,0.0,62.0
1790,59.0,0,480,0.0,74.0
1791,88.0,0,1440,0.0,103.0
1792,64.0,0,480,0.0,74.0
1793,76.0,0,1440,0.0,88.0
1794,56.0,480,480,0.0,62.0
1795,80.0,0,1440,0.0,88.0
1796,68.0,0,480,0.0,84.0
1797,59.0,0,480,0.0,70.0
1798,64.0,0,480,0.0,74.0
1799,76.0,0,0,0.0,96.0
1800,88.0,0,960,0.0,113.0
1801,56.0,480,480,0.0,62.0
1802,88.0,0,0,0.0,113.0
1803,76.0,480,0,0.0,94.0
1804,59.0,480,480,0.0,74.0
1805,52.0,0,480,0.0,62.0
1806,42.0,0,480,0.0,70.0
1807,54.0,0,0,0.0,62.0
1808,62.0,480,480,0.0,74.0
1809,74.0,480,480,0.0,82.0
1810,81.0,0,1440,0.0,86.0
1811,69.0,0,480,0.0,74.0
1812,57.0,0,480,0.0,62.0
1813,86.0,0,0,0.0,95.0
1814,74.0,480,160,0.0,81.0
1815,76.0,0,160,0.0,79.0
1816,88.0,160,160,0.0,93.0
1817,74.0,0,160,0.0,75.0
1818,47.0,0,480,0.0,84.0
1819,35.0,0,480,0.0,70.0
1820,86.0,160,160,0.0,90.0
1821,85.0,0,240,0.0,97.0
1822,73.0,160,240,0.0,82.0
1823,74.0,0,240,0.0,79.0
1824,86.0,240,240,0.0,93.0
1825,54.0,0,480,0.0,62.0
1826,90.0,0,240,0.0,97.0
1827,78.0,0,240,0.0,82.0
1828,59.0,240,480,0.0,62.0
1829,69.0,0,480,0.0,74.0
1830,88.0,0,240,0.0,92.0
1831,76.0,240,240,0.0,78.0
1832,62.0,0,960,0.0,74.0
1833,52.0,0,480,0.0,84.0
1834,40.0,0,480,0.0,70.0
1835,86.0,0,960,0.0,113.0
1836,52.0,480,480,0.0,62.0
1837,74.0,0,960,0.0,94.0
1838,61.0,0,480,0.0,74.0
1839,68.0,480,480,0.0,74.0
1840,56.0,0,480,0.0,62.0
1841,85.0,0,0,0.0,95.0
1842,73.0,0,480,0.0,82.0
1843,80.0,240,1440,0.0,86.0
1844,73.0,0,160,0.0,81.0
1845,86.0,160,160,0.0,93.0
1846,74.0,0,160,0.0,79.0
1847,85.0,160,160,0.0,90.0
1848,73.0,0,160,0.0,75.0
1849,33.0,480,480,0.0,70.0
1850,45.0,0,480,0.0,84.0
1851,84.0,0,240,0.0,97.0
1852,72.0,160,240,0.0,82.0
1853,73.0,0,240,0.0,79.0
1854,85.0,240,240,0.0,93.0
1855,52.0,0,480,0.0,62.0
1856,76.0,0,240,0.0,82.0
1857,88.0,0,240,0.0,97.0
1858,74.0,240,240,0.0,78.0
1859,68.0,0,480,0.0,74.0
1860,61.0,0,960,0.0,74.0
1861,86.0,0,240,0.0,92.0
1862,57.0,240,480,0.0,62.0
1863,85.0,240,480,0.0,110.0
1864,73.0,0,480,0.0,94.0
1865,38.0,0,480,0.0,70.0
1866,50.0,0,0,0.0,62.0
1867,59.0,0,480,0.0,74.0
1868,83.0,480,720,0.0,97.0
1869,71.0,0,720,0.0,82.0
1870,70.0,0,240,0.0,82.0
1871,82.0,240,240,0.0,97.0
1872,54.0,480,480,0.0,62.0
1873,78.0,0,1440,0.0,86.0
1874,66.0,0,480,0.0,74.0
1875,83.0,0,360,0.0,97.0
1876,71.0,0,360,0.0,82.0
1877,49.0,0,480,0.0,84.0
1878,37.0,240,480,0.0,70.0
1879,84.0,0,360,0.0,93.0
1880,72.0,360,360,0.0,79.0
1881,56.0,120,480,0.0,62.0
1882,61.0,0,480,0.0,74.0
1883,73.0,0,360,0.0,82.0
1884,85.0,240,360,0.0,97.0
1885,65.0,0,480,0.0,74.0
1886,59.0,240,480,0.0,62.0
1887,68.0,0,360,0.0,78.0
1888,77.0,0,1440,0.0,86.0
1889,80.0,120,360,0.0,92.0
1890,71.0,0,480,0.0,94.0
1891,30.0,360,480,0.0,70.0
1892,42.0,0,480,0.0,84.0
1893,83.0,0,480,0.0,113.0
1894,73.0,0,960,0.0,77.0
1895,78.0,0,960,0.0,81.0
1896,61.0,0,480,0.0,74.0
1897,81.0,480,720,0.0,97.0
1898,80.0,240,120,0.0,97.0
1899,78.0,120,60,0.0,80.0
1900,54.0,0,960,0.0,62.0
1901,57.0,0,480,0.0,62.0
1902,66.0,480,480,0.0,74.0
1903,69.0,0,0,0.0,82.0
1904,80.0,60,60,0.0,79.0
1905,35.0,60,480,0.0,70.0
1906,78.0,0,480,0.0,97.0
1907,71.0,0,480,0.0,82.0
1908,47.0,0,480,0.0,84.0
1909,75.0,0,0,0.0,71.0
1910,77.0,0,220,0.0,84.0
1911,69.0,0,220,0.0,71.0
1912,71.0,480,220,0.0,71.0
1913,71.0,0,220,0.0,74.0
1914,75.0,0,220,0.0,74.0
1915,69.0,0,220,0.0,74.0
1916,78.0,240,220,0.0,88.0
1917,59.0,0,480,0.0,74.0
1918,75.0,0,220,0.0,77.0
1919,71.0,0,220,0.0,77.0
1920,69.0,0,220,0.0,77.0
1921,80.0,240,220,0.0,91.0
1922,75.0,240,220,0.0,80.0
1923,71.0,0,220,0.0,80.0
1924,69.0,0,220,0.0,80.0
1925,81.0,0,220,0.0,94.0
1926,57.0,0,480,0.0,62.0
1927,53.0,0,960,0.0,62.0
1928,63.0,0,480,0.0,74.0
1929,40.0,0,480,0.0,84.0
1930,28.0,240,480,0.0,70.0
1931,47.0,0,480,0.0,61.0
1932,56.0,480,480,0.0,72.0
1933,64.0,0,1440,0.0,82.0
1934,71.0,0,1440,0.0,99.0
1935,62.0,0,0,0.0,84.0
1936,52.0,480,480,0.0,61.0
1937,59.0,0,480,0.0,73.0
1938,68.0,0,0,0.0,81.0
1939,56.0,480,480,0.0,70.0
1940,52.0,0,480,0.0,61.0
1941,59.0,480,480,0.0,72.0
1942,76.0,0,960,0.0,96.0
1943,64.0,0,960,0.0,81.0
1944,73.0,480,0,0.0,77.0
1945,47.0,0,480,0.0,61.0
1946,62.0,0,480,0.0,77.0
1947,64.0,0,480,0.0,77.0
1948,56.0,0,480,0.0,73.0
1949,68.0,0,480,0.0,77.0
1950,76.0,0,480,0.0,91.0
1951,61.0,480,0,0.0,73.0
1952,69.0,0,480,0.0,96.0
1953,33.0,0,480,0.0,70.0
1954,45.0,0,480,0.0,84.0
1955,57.0,480,480,0.0,81.0
1956,52.0,0,480,0.0,61.0
1957,69.0,480,480,0.0,81.0
1958,64.0,0,480,0.0,74.0
1959,57.0,0,480,0.0,62.0
1960,81.0,480,0,0.0,89.0
1961,73.0,0,480,0.0,81.0
1962,69.0,0,480,0.0,84.0
1963,61.0,0,480,0.0,70.0
1964,93.0,0,960,0.0,105.0
1965,57.0,480,480,0.0,61.0
1966,85.0,0,960,0.0,89.0
1967,64.0,0,480,0.0,73.0
1968,85.0,0,480,0.0,85.0
1969,80.0,480,480,0.0,85.0
1970,52.0,0,480,0.0,61.0
1971,61.0,0,480,0.0,73.0
1972,92.0,0,480,0.0,101.0
1973,47.0,0,480,0.0,84.0
1974,35.0,0,480,0.0,70.0
1975,59.0,0,480,0.0,73.0
1976,54.0,480,480,0.0,61.0
1977,90.0,0,1440,0.0,103.0
1978,63.0,0,480,0.0,73.0
1979,85.0,0,1440,0.0,89.0
1980,78.0,480,1440,0.0,87.0
1981,57.0,480,480,0.0,61.0
1982,59.0,0,480,0.0,70.0
1983,66.0,480,480,0.0,84.0
1984,63.0,0,480,0.0,72.0
1985,92.0,0,960,0.0,102.0
1986,87.0,0,960,0.0,86.0
1987,83.0,0,960,0.0,86.0
1988,57.0,480,480,0.0,61.0
1989,59.0,0,480,0.0,72.0
1990,54.0,0,480,0.0,61.0
1991,81.0,480,480,0.0,79.0
1992,87.0,0,480,0.0,79.0
1993,92.0,0,480,0.0,93.0
1994,40.0,0,480,0.0,70.0
1995,52.0,0,480,0.0,84.0
1996,59.0,0,480,0.0,74.0
1997,52.0,480,480,0.0,62.0
1998,56.0,480,480,0.0,62.0
1999,64.0,0,480,0.0,74.0
2000,80.0,0,1440,0.0,88.0
2001,76.0,0,1440,0.0,88.0
2002,88.0,0,0,0.0,89.0
2003,59.0,0,480,0.0,70.0
2004,68.0,0,480,0.0,84.0
2005,56.0,0,480,0.0,62.0
2006,64.0,480,480,0.0,74.0
2007,100.0,480,1320,0.0,104.0
2008,100.0,0,120,0.0,104.0
2009,59.0,0,480,0.0,74.0
2010,52.0,0,0,0.0,84.0
2011,88.0,0,0,0.0,87.0
2012,100.0,120,240,0.0,104.0
2013,40.0,0,480,0.0,70.0
2014,52.0,480,0,0.0,62.0
2015,58.0,0,480,0.0,74.0
2016,61.0,0,480,0.0,74.0
2017,54.0,480,480,0.0,62.0
2018,64.0,0,480,0.0,84.0
2019,58.0,480,480,0.0,70.0
2020,54.0,0,480,0.0,62.0
2021,61.0,480,480,0.0,74.0
2022,52.0,0,480,0.0,62.0
2023,58.0,480,480,0.0,74.0
2024,78.0,0,1920,0.0,94.0
2025,66.0,0,1920,0.0,80.0
2026,40.0,0,480,0.0,84.0
2027,28.0,480,480,0.0,70.0
2028,66.0,0,120,0.0,67.0
2029,78.0,0,120,0.0,79.0
2030,68.0,0,120,0.0,67.0
2031,80.0,120,120,0.0,79.0
2032,78.0,0,240,0.0,83.0
2033,66.0,120,240,0.0,70.0
2034,58.0,480,480,0.0,74.0
2035,52.0,0,480,0.0,62.0
2036,77.0,0,240,0.0,77.0
2037,65.0,0,240,0.0,64.0
2038,61.0,240,480,0.0,74.0
2039,54.0,0,480,0.0,62.0
2040,78.0,0,240,0.0,79.0
2041,66.0,240,240,0.0,67.0
2042,68.0,0,240,0.0,68.0
2043,80.0,0,240,0.0,81.0
2044,82.0,0,240,0.0,84.0
2045,70.0,240,240,0.0,71.0
2046,64.0,0,480,0.0,84.0
2047,58.0,240,480,0.0,70.0
2048,83.0,0,240,0.0,86.0
2049,71.0,240,240,0.0,73.0
2050,61.0,0,480,0.0,74.0
2051,85.0,0,240,0.0,89.0
2052,73.0,240,240,0.0,74.0
2053,54.0,0,480,0.0,62.0
2054,74.0,0,240,0.0,77.0
2055,86.0,240,240,0.0,91.0
2056,88.0,0,240,0.0,94.0
2057,58.0,0,480,0.0,74.0
2058,52.0,0,480,0.0,62.0
2059,76.0,240,240,0.0,80.0
2060,90.0,0,240,0.0,113.0
2061,78.0,240,240,0.0,94.0
2062,40.0,0,480,0.0,70.0
2063,52.0,0,0,0.0,62.0
2064,60.0,480,480,0.0,74.0
2065,63.0,0,480,0.0,74.0
2066,56.0,480,480,0.0,62.0
2067,60.0,480,480,0.0,70.0
2068,66.0,0,480,0.0,84.0
2069,56.0,0,480,0.0,62.0
2070,63.0,480,480,0.0,74.0
2071,68.0,0,0,0.0,80.0
2072,80.0,480,0,0.0,94.0
2073,60.0,0,480,0.0,74.0
2074,52.0,0,480,0.0,62.0
2075,80.0,240,240,0.0,74.0
2076,40.0,0,480,0.0,84.0
2077,28.0,0,480,0.0,70.0
2078,81.0,240,240,0.0,79.0
2079,68.0,480,960,0.0,79.0
2080,52.0,0,480,0.0,62.0
2081,59.0,0,480,0.0,74.0
2082,80.0,240,240,0.0,74.0
2083,67.0,0,240,0.0,64.0
2084,79.0,0,240,0.0,77.0
2085,63.0,240,480,0.0,74.0
2086,80.0,0,240,0.0,79.0
2087,56.0,0,480,0.0,62.0
2088,68.0,240,240,0.0,67.0
2089,82.0,0,240,0.0,81.0
2090,70.0,0,240,0.0,68.0
2091,84.0,0,240,0.0,84.0
2092,66.0,0,480,0.0,84.0
2093,72.0,240,240,0.0,71.0
2094,60.0,240,480,0.0,70.0
2095,85.0,240,240,0.0,86.0
2096,73.0,0,240,0.0,73.0
2097,56.0,0,480,0.0,62.0
2098,63.0,0,480,0.0,74.0
2099,75.0,240,240,0.0,74.0
2100,87.0,0,240,0.0,89.0
2101,76.0,240,240,0.0,77.0
2102,88.0,0,240,0.0,91.0
2103,78.0,240,240,0.0,80.0
2104,90.0,0,240,0.0,94.0
2105,52.0,0,0,0.0,84.0
2106,60.0,0,480,0.0,74.0
2107,80.0,240,240,0.0,94.0
2108,92.0,0,240,0.0,113.0
2109,40.0,0,480,0.0,70.0
2110,61.0,480,480,0.0,62.0
2111,52.0,0,480,0.0,74.0
2112,56.0,480,480,0.0,62.0
2113,64.0,0,480,0.0,74.0
2114,51.0,0,480,0.0,84.0
2115,39.0,480,480,0.0,70.0
2116,68.0,0,0,0.0,80.0
2117,80.0,480,0,0.0,94.0
2118,51.0,480,480,0.0,62.0
2119,59.0,0,480,0.0,74.0
2120,68.0,0,0,0.0,68.0
2121,80.0,480,0,0.0,80.0
2122,56.0,0,480,0.0,62.0
2123,63.0,0,480,0.0,74.0
2124,70.0,120,120,0.0,62.0
2125,82.0,0,120,0.0,74.0
2126,49.0,0,480,0.0,84.0
2127,37.0,0,480,0.0,70.0
2128,68.0,120,240,0.0,62.0
2129,80.0,0,240,0.0,74.0
2130,79.0,0,240,0.0,77.0
2131,67.0,0,240,0.0,64.0
2132,80.0,0,240,0.0,79.0
2133,68.0,240,240,0.0,67.0
2134,56.0,0,480,0.0,74.0
2135,49.0,240,480,0.0,62.0
2136,82.0,0,240,0.0,82.0
2137,70.0,240,240,0.0,69.0
2138,71.0,0,240,0.0,72.0
2139,83.0,240,240,0.0,86.0
2140,52.0,0,480,0.0,63.0
2141,61.0,0,480,0.0,75.0
2142,85.0,240,240,0.0,90.0
2143,73.0,0,240,0.0,75.0
2144,44.0,0,480,0.0,88.0
2145,32.0,0,480,0.0,72.0
2146,87.0,0,240,0.0,93.0
2147,75.0,240,240,0.0,78.0
2148,77.0,240,240,0.0,81.0
2149,89.0,0,240,0.0,95.0
2150,79.0,240,240,0.0,85.0
2151,47.0,0,480,0.0,66.0
2152,56.0,0,480,0.0,79.0
2153,91.0,0,240,0.0,101.0
2154,92.0,240,240,0.0,101.0
2155,80.0,0,240,0.0,85.0
2156,59.0,0,480,0.0,80.0
2157,51.0,0,480,0.0,67.0
2158,82.0,240,240,0.0,86.0
2159,94.0,0,240,0.0,102.0
2160,95.0,0,120,0.0,112.0
2161,83.0,0,120,0.0,94.0
2162,41.0,0,240,0.0,88.0
2163,29.0,240,240,0.0,72.0
2164,92.0,0,120,0.0,85.0
2165,95.0,240,120,0.0,85.0
2166,89.0,120,120,0.0,79.0
2167,87.0,120,120,0.0,78.0
2168,83.0,120,120,0.0,77.0
2169,83.0,0,120,0.0,80.0
2170,80.0,30,120,0.0,80.0
2171,77.0,120,120,0.0,78.0
2172,75.0,120,120,0.0,73.0
2173,68.0,0,480,0.0,59.0
2174,53.0,30,570,0.0,52.0
2175,63.0,30,510,0.0,56.0
2176,59.0,30,540,0.0,54.0
2177,71.0,120,120,0.0,73.0
2178,68.0,120,120,0.0,74.0
2179,71.0,0,120,0.0,74.0
2180,65.0,120,120,0.0,64.0
2181,63.0,120,120,0.0,64.0
2182,59.0,120,120,0.0,63.0
2183,59.0,0,120,0.0,69.0
2184,56.0,120,120,0.0,69.0
2185,53.0,120,120,0.0,61.0
2186,51.0,120,120,0.0,60.0
2187,47.0,120,120,0.0,60.0
2188,59.0,0,120,0.0,60.0
2189,56.0,120,120,0.0,60.0
2190,53.0,120,120,0.0,62.0
2191,51.0,120,120,0.0,52.0
2192,47.0,120,120,0.0,52.0
2193,57.0,120,120,0.0,52.0
2194,53.0,120,120,0.0,51.0
2195,59.0,0,240,0.0,52.0
2196,58.0,120,130,0.0,52.0
2197,34.0,0,240,0.0,44.0
2198,56.0,120,130,0.0,48.0
2199,59.0,120,130,0.0,52.0
2200,50.0,0,240,0.0,34.0
2201,53.0,120,130,0.0,47.0
2202,58.0,120,130,0.0,47.0
2203,56.0,120,130,0.0,47.0
2204,59.0,0,130,0.0,52.0
2205,34.0,120,240,0.0,44.0
2206,53.0,120,130,0.0,47.0
2207,58.0,120,130,0.0,52.0
2208,50.0,0,240,0.0,34.0
2209,56.0,120,130,0.0,47.0
2210,59.0,120,130,0.0,47.0
2211,53.0,120,130,0.0,47.0
2212,58.0,120,130,0.0,52.0
2213,34.0,0,240,0.0,46.0
2214,56.0,120,130,0.0,48.0
2215,59.0,120,130,0.0,52.0
2216,50.0,0,240,0.0,34.0
2217,53.0,120,130,0.0,47.0
2218,58.0,120,130,0.0,47.0
2219,56.0,120,130,0.0,47.0
2220,59.0,120,130,0.0,52.0
2221,34.0,0,240,0.0,48.0
2222,53.0,120,130,0.0,47.0
2223,58.0,120,130,0.0,52.0
2224,50.0,0,240,0.0,34.0
2225,56.0,120,130,0.0,47.0
2226,59.0,120,130,0.0,47.0
2227,53.0,120,130,0.0,47.0
2228,58.0,0,130,0.0,52.0
2229,50.0,120,240,0.0,49.0
2230,56.0,120,130,0.0,48.0
2231,59.0,120,130,0.0,53.0
2232,65.0,0,240,0.0,34.0
2233,53.0,120,130,0.0,48.0
2234,58.0,120,130,0.0,48.0
2235,56.0,120,130,0.0,49.0
2236,59.0,120,130,0.0,55.0
2237,50.0,0,240,0.0,52.0
2238,53.0,120,130,0.0,50.0
2239,58.0,0,130,0.0,56.0
2240,65.0,120,240,0.0,36.0
2241,56.0,120,130,0.0,51.0
2242,59.0,120,130,0.0,51.0
2243,53.0,120,130,0.0,52.0
2244,58.0,120,130,0.0,58.0
2245,50.0,0,240,0.0,53.0
2246,56.0,120,130,0.0,54.0
2247,59.0,0,130,0.0,59.0
2248,65.0,120,240,0.0,38.0
2249,53.0,120,130,0.0,54.0
2250,58.0,120,130,0.0,54.0
2251,56.0,120,130,0.0,54.0
2252,59.0,0,130,0.0,61.0
2253,50.0,120,240,0.0,55.0
2254,53.0,120,130,0.0,55.0
2255,58.0,0,130,0.0,62.0
2256,65.0,120,240,0.0,40.0
2257,56.0,120,130,0.0,56.0
2258,59.0,120,130,0.0,57.0
2259,53.0,120,130,0.0,57.0
2260,58.0,0,240,0.0,65.0
2261,34.0,120,240,0.0,50.0
2262,58.0,240,130,0.0,65.0
2263,62.0,120,130,0.0,56.0
2264,59.0,120,130,0.0,65.0
2265,62.0,120,130,0.0,58.0
2266,61.0,0,130,0.0,65.0
2267,53.0,0,240,0.0,37.0
2268,56.0,120,240,0.0,45.0
2269,46.0,0,240,0.0,37.0
2270,65.0,120,130,0.0,58.0
2271,62.0,120,130,0.0,65.0
2272,68.0,120,130,0.0,58.0
2273,64.0,120,130,0.0,65.0
2274,68.0,120,130,0.0,58.0
2275,65.0,0,130,0.0,65.0
2276,56.0,120,240,0.0,37.0
2277,62.0,0,240,0.0,45.0
2278,53.0,0,240,0.0,37.0
2279,71.0,120,130,0.0,58.0
2280,67.0,120,130,0.0,65.0
2281,71.0,120,130,0.0,58.0
2282,68.0,120,130,0.0,64.0
2283,74.0,120,130,0.0,57.0
2284,70.0,0,130,0.0,63.0
2285,56.0,0,240,0.0,36.0
2286,62.0,0,240,0.0,36.0
2287,65.0,120,240,0.0,44.0
2288,74.0,120,130,0.0,56.0
2289,71.0,120,130,0.0,63.0
2290,74.0,120,130,0.0,57.0
2291,73.0,120,130,0.0,62.0
2292,77.0,120,130,0.0,56.0
2293,74.0,120,130,0.0,62.0
2294,65.0,0,240,0.0,36.0
2295,68.0,0,240,0.0,43.0
2296,58.0,0,240,0.0,36.0
2297,80.0,120,130,0.0,56.0
2298,76.0,120,130,0.0,62.0
2299,80.0,120,130,0.0,55.0
2300,77.0,120,130,0.0,61.0
2301,83.0,120,130,0.0,55.0
2302,79.0,0,130,0.0,61.0
2303,65.0,0,240,0.0,35.0
2304,68.0,0,240,0.0,35.0
2305,74.0,120,240,0.0,42.0
2306,83.0,120,130,0.0,54.0
2307,80.0,120,130,0.0,60.0
2308,86.0,120,130,0.0,54.0
2309,82.0,120,130,0.0,60.0
2310,86.0,120,130,0.0,54.0
2311,83.0,0,130,0.0,59.0
2312,68.0,0,240,0.0,39.0
2313,74.0,120,240,0.0,39.0
2314,77.0,0,240,0.0,46.0
2315,86.0,120,130,0.0,52.0
2316,85.0,120,130,0.0,59.0
2317,89.0,120,130,0.0,53.0
2318,86.0,120,130,0.0,59.0
2319,92.0,120,130,0.0,54.0
2320,88.0,0,130,0.0,58.0
2321,80.0,120,240,0.0,45.0
2322,70.0,0,240,0.0,38.0
2323,77.0,0,240,0.0,38.0
2324,92.0,120,130,0.0,54.0
2325,89.0,120,130,0.0,58.0
2326,95.0,120,130,0.0,53.0
2327,91.0,120,130,0.0,57.0
2328,95.0,120,130,0.0,54.0
2329,94.0,0,130,0.0,57.0
2330,92.0,120,130,0.0,51.0
2331,95.0,120,130,0.0,57.0
2332,89.0,120,130,0.0,51.0
2333,94.0,120,130,0.0,57.0
2334,92.0,120,130,0.0,51.0
2335,96.0,120,130,0.0,57.0
2336,89.0,120,130,0.0,50.0
2337,94.0,120,130,0.0,57.0
2338,92.0,120,130,0.0,52.0
2339,97.0,120,130,0.0,60.0
2340,89.0,120,130,0.0,51.0
2341,94.0,120,130,0.0,61.0
2342,92.0,120,130,0.0,51.0
2343,98.0,120,130,0.0,63.0
2344,89.0,120,130,0.0,51.0
2345,94.0,120,130,0.0,57.0
2346,86.0,0,2160,0.0,44.0
2347,80.0,0,2160,0.0,37.0
2348,77.0,120,2160,0.0,37.0
2349,92.0,120,130,0.0,52.0
2350,99.0,120,130,0.0,63.0
2351,89.0,120,130,0.0,52.0
2352,94.0,120,130,0.0,61.0
2353,92.0,120,130,0.0,52.0
2354,100.0,120,130,0.0,59.0
2355,80.0,0,720,0.0,37.0
2356,75.0,120,0,0.0,37.0
2357,84.0,0,0,0.0,44.0
2358,89.0,120,130,0.0,51.0
2359,101.0,0,130,0.0,63.0
2360,98.0,120,130,0.0,51.0
2361,97.0,120,130,0.0,52.0
2362,100.0,120,130,0.0,52.0
2363,99.0,120,130,0.0,57.0
2364,96.0,120,130,0.0,53.0
2365,95.0,0,130,0.0,57.0
2366,80.0,0,960,0.0,37.0
2367,74.0,0,240,0.0,37.0
2368,82.0,120,240,0.0,44.0
2369,98.0,120,130,0.0,52.0
2370,97.0,120,130,0.0,52.0
2371,94.0,120,130,0.0,52.0
2372,93.0,120,130,0.0,57.0
2373,96.0,120,130,0.0,52.0
2374,95.0,120,130,0.0,57.0
2375,92.0,120,130,0.0,52.0
2376,91.0,120,130,0.0,52.0
2377,94.0,120,130,0.0,53.0
2378,92.0,120,130,0.0,57.0
2379,89.0,120,130,0.0,55.0
2380,86.0,120,130,0.0,57.0
2381,82.0,120,130,0.0,52.0
2382,81.0,120,130,0.0,52.0
2383,82.0,120,130,0.0,52.0
2384,80.0,120,130,0.0,57.0
2385,82.0,120,130,0.0,52.0
2386,51.0,0,120,0.0,42.0
2387,78.0,120,130,0.0,56.0
2388,79.0,120,130,0.0,48.0
2389,91.0,120,130,0.0,47.0
2390,72.0,0,240,0.0,40.0
2391,86.0,120,130,0.0,47.0
2392,87.0,120,130,0.0,51.0
2393,70.0,0,240,0.0,35.0
2394,67.0,0,480,0.0,28.0
2395,63.0,0,480,0.0,28.0
2396,83.0,120,130,0.0,44.0
2397,46.0,0,120,0.0,41.0
2398,84.0,120,130,0.0,49.0
2399,79.0,120,130,0.0,46.0
2400,82.0,120,130,0.0,50.0
2401,57.0,0,240,0.0,33.0
2402,80.0,120,130,0.0,48.0
2403,79.0,120,130,0.0,47.0
2404,62.0,0,480,0.0,23.0
2405,77.0,120,120,0.0,48.0
2406,58.0,0,240,0.0,33.0
2407,68.0,0,480,0.0,23.0
2408,51.0,120,120,0.0,42.0
2409,78.0,0,130,0.0,52.0
2410,79.0,120,130,0.0,45.0
2411,91.0,0,130,0.0,47.0
2412,72.0,120,240,0.0,40.0
2413,86.0,120,130,0.0,45.0
2414,87.0,120,130,0.0,50.0
2415,67.0,0,480,0.0,28.0
2416,70.0,0,240,0.0,35.0
2417,63.0,0,480,0.0,28.0
2418,83.0,120,130,0.0,45.0
2419,46.0,120,120,0.0,41.0
2420,84.0,0,130,0.0,49.0
2421,79.0,120,130,0.0,46.0
2422,82.0,0,130,0.0,48.0
2423,57.0,0,240,0.0,33.0
2424,80.0,120,130,0.0,48.0
2425,79.0,120,130,0.0,47.0
2426,77.0,120,120,0.0,48.0
2427,68.0,0,480,0.0,23.0
2428,58.0,0,240,0.0,33.0
2429,62.0,120,480,0.0,23.0
2430,51.0,0,120,0.0,42.0
2431,78.0,120,130,0.0,52.0
2432,79.0,120,130,0.0,45.0
2433,91.0,0,130,0.0,47.0
2434,68.0,0,240,0.0,40.0
2435,86.0,120,130,0.0,46.0
2436,87.0,0,130,0.0,52.0
2437,63.0,0,480,0.0,28.0
2438,67.0,120,240,0.0,36.0
2439,58.0,120,480,0.0,28.0
2440,83.0,120,130,0.0,47.0
2441,44.0,120,120,0.0,43.0
2442,84.0,0,130,0.0,52.0
2443,79.0,120,130,0.0,49.0
2444,82.0,120,130,0.0,52.0
2445,67.0,0,240,0.0,42.0
2446,80.0,120,130,0.0,53.0
2447,79.0,120,130,0.0,52.0
2448,65.0,0,240,0.0,37.0
2449,56.0,0,480,0.0,29.0
2450,60.0,0,480,0.0,29.0
2451,77.0,120,120,0.0,54.0
2452,46.0,120,120,0.0,45.0
2453,75.0,0,240,0.0,64.0
2454,81.0,120,120,0.0,49.0
2455,77.0,120,120,0.0,48.0
2456,63.0,0,240,0.0,42.0
2457,74.0,120,240,0.0,58.0
2458,81.0,120,120,0.0,48.0
2459,62.0,0,240,0.0,36.0
2460,56.0,0,480,0.0,29.0
2461,53.0,0,480,0.0,29.0
2462,77.0,120,120,0.0,48.0
2463,46.0,120,120,0.0,41.0
2464,72.0,0,240,0.0,56.0
2465,81.0,120,120,0.0,48.0
2466,77.0,120,120,0.0,48.0
2467,60.0,0,240,0.0,39.0
2468,70.0,120,240,0.0,54.0
2469,81.0,120,120,0.0,47.0
2470,77.0,120,120,0.0,47.0
2471,53.0,0,480,0.0,27.0
2472,56.0,0,480,0.0,27.0
2473,58.0,0,240,0.0,34.0
2474,51.0,120,120,0.0,42.0
2475,78.0,0,130,0.0,56.0
2476,79.0,120,130,0.0,48.0
2477,91.0,120,130,0.0,47.0
2478,72.0,0,240,0.0,40.0
2479,86.0,120,130,0.0,47.0
2480,87.0,120,130,0.0,51.0
2481,67.0,0,480,0.0,28.0
2482,63.0,0,480,0.0,28.0
2483,70.0,0,240,0.0,35.0
2484,83.0,120,130,0.0,44.0
2485,46.0,120,120,0.0,41.0
2486,84.0,0,130,0.0,51.0
2487,79.0,120,130,0.0,46.0
2488,82.0,120,130,0.0,50.0
2489,57.0,0,240,0.0,33.0
2490,80.0,120,130,0.0,48.0
2491,79.0,0,130,0.0,47.0
2492,62.0,0,480,0.0,23.0
2493,68.0,0,480,0.0,23.0
2494,58.0,120,240,0.0,33.0
2495,77.0,120,120,0.0,48.0
2496,51.0,120,120,0.0,42.0
2497,78.0,0,130,0.0,52.0
2498,79.0,120,130,0.0,45.0
2499,91.0,120,130,0.0,47.0
2500,72.0,0,240,0.0,40.0
2501,86.0,120,130,0.0,45.0
2502,87.0,0,130,0.0,50.0
2503,67.0,0,480,0.0,28.0
2504,70.0,120,240,0.0,35.0
2505,63.0,0,480,0.0,28.0
2506,83.0,120,130,0.0,45.0
2507,46.0,120,120,0.0,41.0
2508,84.0,0,130,0.0,49.0
2509,79.0,120,130,0.0,46.0
2510,82.0,0,130,0.0,48.0
2511,57.0,0,240,0.0,33.0
2512,80.0,120,130,0.0,48.0
2513,79.0,0,130,0.0,47.0
2514,77.0,120,120,0.0,48.0
2515,58.0,120,240,0.0,33.0
2516,68.0,120,480,0.0,23.0
2517,62.0,0,480,0.0,23.0
2518,51.0,120,120,0.0,42.0
2519,78.0,0,130,0.0,52.0
2520,79.0,120,130,0.0,45.0
2521,91.0,0,130,0.0,47.0
2522,77.0,0,240,0.0,40.0
2523,86.0,120,130,0.0,46.0
2524,87.0,0,130,0.0,52.0
2525,70.0,0,480,0.0,28.0
2526,67.0,120,480,0.0,28.0
2527,75.0,120,240,0.0,36.0
2528,83.0,120,130,0.0,47.0
2529,44.0,120,120,0.0,43.0
2530,84.0,0,130,0.0,52.0
2531,79.0,120,130,0.0,49.0
2532,82.0,0,130,0.0,52.0
2533,67.0,0,240,0.0,42.0
2534,80.0,120,130,0.0,53.0
2535,79.0,120,130,0.0,52.0
2536,77.0,120,120,0.0,54.0
2537,65.0,0,240,0.0,37.0
2538,60.0,0,480,0.0,29.0
2539,56.0,120,480,0.0,29.0
2540,76.0,0,120,0.0,56.0
2541,46.0,120,240,0.0,48.0
2542,75.0,120,120,0.0,56.0
2543,74.0,120,120,0.0,55.0
2544,73.0,120,120,0.0,54.0
2545,72.0,0,120,0.0,52.0
2546,71.0,120,120,0.0,51.0
2547,53.0,120,240,0.0,38.0
2548,62.0,0,0,0.0,38.0
2549,56.0,0,0,0.0,38.0
2550,70.0,120,120,0.0,50.0
2551,69.0,120,120,0.0,49.0
2552,53.0,0,0,0.0,38.0
2553,56.0,0,0,0.0,38.0
2554,62.0,120,0,0.0,38.0
2555,72.0,0,120,0.0,50.0
2556,70.0,120,120,0.0,50.0
2557,53.0,0,0,0.0,38.0
2558,56.0,0,0,0.0,38.0
2559,69.0,120,120,0.0,48.0
2560,68.0,120,120,0.0,48.0
2561,62.0,0,240,0.0,38.0
2562,67.0,120,130,0.0,49.0
2563,61.0,0,240,0.0,58.0
2564,58.0,0,240,0.0,49.0
2565,51.0,0,240,0.0,49.0
2566,68.0,120,130,0.0,49.0
2567,69.0,120,130,0.0,50.0
2568,51.0,120,120,0.0,49.0
2569,39.0,0,120,0.0,41.0
2570,70.0,0,130,0.0,52.0
2571,39.0,0,120,0.0,41.0
2572,51.0,120,120,0.0,50.0
2573,72.0,0,130,0.0,52.0
2574,70.0,120,130,0.0,53.0
2575,60.0,0,120,0.0,51.0
2576,56.0,0,120,0.0,42.0
2577,68.0,120,130,0.0,52.0
2578,70.0,120,130,0.0,53.0
2579,55.0,120,120,0.0,51.0
2580,43.0,0,120,0.0,42.0
2581,71.0,0,130,0.0,56.0
2582,72.0,120,130,0.0,58.0
2583,54.0,0,120,0.0,52.0
2584,42.0,0,120,0.0,44.0
2585,73.0,120,130,0.0,59.0
2586,72.0,120,120,0.0,57.0
2587,69.0,0,130,0.0,49.0
2588,63.0,0,240,0.0,58.0
2589,57.0,120,240,0.0,49.0
2590,70.0,120,130,0.0,49.0
2591,71.0,120,130,0.0,50.0
2592,53.0,0,120,0.0,49.0
2593,41.0,120,0,0.0,41.0
2594,72.0,120,130,0.0,52.0
2595,53.0,0,120,0.0,50.0
2596,74.0,0,130,0.0,52.0
2597,72.0,120,130,0.0,53.0
2598,62.0,120,120,0.0,51.0
2599,58.0,0,120,0.0,42.0
2600,70.0,0,130,0.0,52.0
2601,72.0,120,130,0.0,53.0
2602,57.0,0,120,0.0,51.0
2603,45.0,0,120,0.0,42.0
2604,73.0,120,130,0.0,56.0
2605,74.0,120,130,0.0,58.0
2606,44.0,0,120,0.0,44.0
2607,56.0,120,120,0.0,52.0
2608,75.0,0,130,0.0,59.0
2609,74.0,120,130,0.0,57.0
2610,71.0,0,130,0.0,49.0
2611,65.0,120,240,0.0,58.0
2612,59.0,0,240,0.0,49.0
2613,72.0,120,130,0.0,49.0
2614,73.0,120,130,0.0,50.0
2615,55.0,120,120,0.0,49.0
2616,43.0,0,0,0.0,41.0
2617,74.0,0,130,0.0,52.0
2618,55.0,0,120,0.0,50.0
2619,75.0,120,130,0.0,52.0
2620,74.0,120,130,0.0,53.0
2621,63.0,120,120,0.0,51.0
2622,60.0,0,120,0.0,42.0
2623,72.0,0,130,0.0,52.0
2624,73.0,120,130,0.0,53.0
2625,74.0,120,130,0.0,56.0
2626,36.0,0,240,0.0,42.0
2627,48.0,0,240,0.0,51.0
2628,75.0,120,130,0.0,58.0
2629,76.0,120,130,0.0,59.0
2630,77.0,120,130,0.0,57.0
2631,79.0,0,130,0.0,65.0
2632,56.0,0,240,0.0,46.0
2633,63.0,120,240,0.0,53.0
2634,77.0,120,130,0.0,64.0
2635,76.0,0,130,0.0,62.0
2636,47.0,120,240,0.0,62.0
2637,75.0,120,130,0.0,61.0
2638,74.0,120,130,0.0,58.0
2639,73.0,120,130,0.0,56.0
2640,72.0,120,130,0.0,55.0
2641,56.0,0,240,0.0,42.0
2642,62.0,0,240,0.0,51.0
2643,71.0,120,130,0.0,53.0
2644,70.0,0,130,0.0,54.0
2645,46.0,120,240,0.0,60.0
2646,69.0,120,130,0.0,54.0
2647,70.0,120,130,0.0,51.0
2648,68.0,120,130,0.0,50.0
2649,67.0,0,240,0.0,53.0
2650,51.0,0,240,0.0,37.0
2651,39.0,120,240,0.0,31.0
2652,58.0,240,120,0.0,53.0
2653,70.0,120,120,0.0,49.0
2654,43.0,0,240,0.0,31.0
2655,55.0,0,240,0.0,37.0
2656,62.0,0,120,0.0,54.0
2657,44.0,120,240,0.0,32.0
2658,56.0,0,240,0.0,38.0
2659,71.0,120,120,0.0,50.0
2660,58.0,0,120,0.0,55.0
2661,70.0,120,120,0.0,51.0
2662,55.0,120,240,0.0,46.0
2663,43.0,0,240,0.0,38.0
2664,51.0,0,240,0.0,39.0
2665,39.0,0,240,0.0,33.0
2666,63.0,120,240,0.0,60.0
2667,67.0,120,120,0.0,54.0
2668,46.0,0,240,0.0,34.0
2669,58.0,120,240,0.0,41.0
2670,64.0,0,240,0.0,63.0
2671,73.0,120,120,0.0,53.0
2672,60.0,0,120,0.0,59.0
2673,57.0,120,240,0.0,49.0
2674,45.0,0,240,0.0,39.0
2675,72.0,120,120,0.0,52.0
2676,69.0,120,120,0.0,52.0
2677,65.0,0,240,0.0,66.0
2678,53.0,0,240,0.0,44.0
2679,41.0,120,240,0.0,36.0
2680,64.0,120,120,0.0,61.0
2681,73.0,120,120,0.0,55.0
2682,46.0,0,240,0.0,45.0
2683,58.0,0,240,0.0,45.0
2684,60.0,0,120,0.0,63.0
2685,57.0,120,240,0.0,53.0
2686,45.0,0,240,0.0,44.0
2687,72.0,120,120,0.0,56.0
2688,41.0,120,240,0.0,38.0
2689,53.0,0,240,0.0,47.0
2690,69.0,120,120,0.0,61.0
2691,65.0,0,240,0.0,70.0
2692,48.0,120,240,0.0,39.0
2693,60.0,0,240,0.0,49.0
2694,75.0,120,120,0.0,61.0
2695,66.0,0,240,0.0,68.0
2696,62.0,0,120,0.0,70.0
2697,74.0,120,120,0.0,61.0
2698,59.0,120,240,0.0,59.0
2699,47.0,0,240,0.0,52.0
2700,43.0,0,240,0.0,43.0
2701,55.0,0,240,0.0,52.0
2702,71.0,120,120,0.0,67.0
2703,67.0,120,240,0.0,75.0
2704,66.0,0,240,0.0,76.0
2705,75.0,120,120,0.0,68.0
2706,48.0,0,240,0.0,43.0
2707,60.0,120,240,0.0,53.0
2708,62.0,0,120,0.0,75.0
2709,47.0,0,240,0.0,54.0
2710,59.0,120,240,0.0,63.0
2711,74.0,120,120,0.0,68.0
2712,55.0,120,240,0.0,55.0
2713,43.0,0,240,0.0,46.0
2714,67.0,0,240,0.0,80.0
2715,70.0,120,120,0.0,69.0
2716,68.0,0,240,0.0,80.0
2717,77.0,120,120,0.0,71.0
2718,62.0,120,240,0.0,55.0
2719,50.0,0,240,0.0,47.0
2720,64.0,120,120,0.0,80.0
2721,76.0,120,120,0.0,75.0
2722,49.0,0,240,0.0,56.0
2723,61.0,0,240,0.0,68.0
2724,69.0,0,240,0.0,86.0
2725,57.0,0,240,0.0,57.0
2726,45.0,120,240,0.0,48.0
2727,73.0,120,120,0.0,73.0
2728,64.0,0,240,0.0,75.0
2729,52.0,0,240,0.0,62.0
2730,79.0,120,120,0.0,76.0
2731,70.0,120,240,0.0,89.0
2732,66.0,120,120,0.0,89.0
2733,51.0,0,240,0.0,50.0
2734,78.0,120,120,0.0,79.0
2735,63.0,0,240,0.0,59.0
2736,47.0,0,240,0.0,60.0
2737,71.0,120,240,0.0,91.0
2738,75.0,120,120,0.0,82.0
2739,59.0,0,240,0.0,74.0
2740,72.0,120,240,0.0,93.0
2741,62.0,0,240,0.0,62.0
2742,50.0,0,240,0.0,53.0
2743,37.0,0,240,0.0,61.0
2744,73.0,0,240,0.0,82.0
2745,85.0,0,240,0.0,98.0
2746,81.0,120,360,0.0,85.0
2747,78.0,0,240,0.0,82.0
2748,49.0,120,240,0.0,73.0
2749,72.0,240,120,0.0,64.0
2750,73.0,0,120,0.0,64.0
2751,66.0,0,0,0.0,55.0
2752,61.0,0,0,0.0,46.0
2753,57.0,0,0,0.0,46.0
2754,69.0,120,0,0.0,55.0
2755,75.0,0,120,0.0,65.0
2756,66.0,0,0,0.0,56.0
2757,57.0,0,0,0.0,47.0
2758,61.0,0,0,0.0,47.0
2759,77.0,120,120,0.0,66.0
2760,78.0,0,120,0.0,67.0
2761,80.0,120,120,0.0,67.0
2762,69.0,0,0,0.0,58.0
2763,57.0,120,0,0.0,49.0
2764,61.0,0,0,0.0,49.0
2765,66.0,0,0,0.0,58.0
2766,81.0,0,120,0.0,68.0
2767,83.0,120,120,0.0,69.0
2768,69.0,0,0,0.0,59.0
2769,57.0,120,0,0.0,50.0
2770,61.0,0,0,0.0,50.0
2771,66.0,0,0,0.0,59.0
2772,85.0,0,120,0.0,70.0
2773,87.0,120,120,0.0,71.0
2774,89.0,0,120,0.0,71.0
2775,90.0,120,120,0.0,72.0
2776,92.0,120,120,0.0,73.0
2777,93.0,120,120,0.0,74.0
2778,90.0,120,120,0.0,75.0
2779,85.0,120,120,0.0,75.0
2780,61.0,0,720,0.0,60.0
2781,57.0,120,720,0.0,60.0
2782,69.0,0,720,0.0,72.0
2783,66.0,0,720,0.0,72.0
2784,81.0,120,120,0.0,76.0
2785,78.0,120,120,0.0,76.0
2786,73.0,120,120,0.0,74.0
2787,69.0,120,120,0.0,72.0
2788,66.0,120,120,0.0,71.0
2789,49.0,0,240,0.0,69.0
2790,61.0,120,120,0.0,69.0
2791,37.0,0,240,0.0,58.0
2792,57.0,120,120,0.0,66.0
2793,36.0,0,240,0.0,64.0
2794,48.0,0,240,0.0,75.0
2795,66.0,120,120,0.0,67.0
2796,63.0,120,120,0.0,68.0
2797,54.0,120,120,0.0,45.0
2798,57.0,120,0,0.0,47.0
2799,69.0,0,0,0.0,70.0
2800,63.0,0,120,0.0,53.0
2801,78.0,120,120,0.0,72.0
2802,54.0,0,240,0.0,47.0
2803,63.0,120,0,0.0,65.0
2804,75.0,0,120,0.0,73.0
2805,57.0,0,240,0.0,54.0
2806,54.0,0,240,0.0,54.0
2807,81.0,120,0,0.0,75.0
2808,90.0,120,120,0.0,76.0
2809,87.0,0,120,0.0,77.0
2810,36.0,0,240,0.0,60.0
2811,93.0,120,120,0.0,79.0
2812,48.0,120,240,0.0,72.0
2813,90.0,120,120,0.0,80.0
2814,47.0,0,240,0.0,77.0
2815,35.0,0,240,0.0,65.0
2816,93.0,120,120,0.0,78.0
2817,87.0,120,120,0.0,77.0
2818,81.0,0,120,0.0,76.0
2819,54.0,120,0,0.0,49.0
2820,63.0,120,120,0.0,59.0
2821,57.0,0,0,0.0,49.0
2822,78.0,0,120,0.0,75.0
2823,63.0,0,240,0.0,58.0
2824,81.0,120,120,0.0,75.0
2825,75.0,0,120,0.0,74.0
2826,69.0,120,120,0.0,73.0
2827,63.0,0,240,0.0,57.0
2828,57.0,0,240,0.0,48.0
2829,54.0,120,240,0.0,48.0
2830,66.0,120,120,0.0,72.0
2831,69.0,120,120,0.0,72.0
2832,63.0,0,120,0.0,71.0
2833,57.0,120,120,0.0,70.0
2834,47.0,0,240,0.0,72.0
2835,35.0,120,240,0.0,60.0
2836,63.0,0,240,0.0,71.0
2837,67.0,0,240,0.0,71.0
2838,58.0,0,240,0.0,71.0
2839,46.0,120,240,0.0,77.0
2840,34.0,0,240,0.0,65.0
2841,70.0,0,240,0.0,71.0
2842,57.0,240,130,0.0,46.0
2843,58.0,120,130,0.0,46.0
2844,60.0,120,130,0.0,47.0
2845,62.0,120,130,0.0,47.0
2846,63.0,120,130,0.0,48.0
2847,64.0,120,130,0.0,49.0
2848,67.0,120,130,0.0,49.0
2849,63.0,0,240,0.0,44.0
2850,60.0,0,240,0.0,44.0
2851,57.0,0,240,0.0,44.0
2852,65.0,120,130,0.0,50.0
2853,67.0,0,130,0.0,50.0
2854,56.0,0,240,0.0,43.0
2855,62.0,120,240,0.0,43.0
2856,58.0,0,0,0.0,47.0
2857,65.0,120,130,0.0,51.0
2858,72.0,120,130,0.0,52.0
2859,63.0,0,240,0.0,47.0
2860,55.0,0,240,0.0,47.0
2861,70.0,120,130,0.0,52.0
2862,69.0,120,130,0.0,53.0
2863,70.0,120,130,0.0,53.0
2864,72.0,120,130,0.0,54.0
2865,74.0,120,130,0.0,54.0
2866,75.0,120,130,0.0,55.0
2867,76.0,120,130,0.0,56.0
2868,79.0,0,130,0.0,56.0
2869,75.0,0,240,0.0,46.0
2870,72.0,120,240,0.0,46.0
2871,69.0,0,240,0.0,46.0
2872,77.0,120,130,0.0,57.0
2873,79.0,120,130,0.0,57.0
2874,70.0,0,240,0.0,46.0
2875,74.0,0,240,0.0,46.0
2876,68.0,0,240,0.0,46.0
2877,77.0,120,130,0.0,58.0
2878,84.0,0,130,0.0,59.0
2879,75.0,0,240,0.0,46.0
2880,70.0,0,240,0.0,46.0
2881,67.0,120,240,0.0,46.0
2882,82.0,120,130,0.0,59.0
2883,81.0,120,130,0.0,60.0
2884,82.0,120,130,0.0,60.0
2885,84.0,120,130,0.0,61.0
2886,86.0,120,130,0.0,61.0
2887,87.0,120,130,0.0,62.0
2888,88.0,120,130,0.0,63.0
2889,91.0,120,130,0.0,63.0
2890,87.0,0,240,0.0,56.0
2891,81.0,0,240,0.0,56.0
2892,84.0,0,240,0.0,56.0
2893,89.0,120,130,0.0,64.0
2894,91.0,0,130,0.0,64.0
2895,80.0,120,240,0.0,56.0
2896,82.0,0,240,0.0,56.0
2897,86.0,0,240,0.0,56.0
2898,89.0,120,130,0.0,65.0
2899,79.0,0,240,0.0,57.0
2900,82.0,0,240,0.0,57.0
2901,87.0,0,240,0.0,57.0
2902,94.0,120,240,0.0,66.0
2903,81.0,240,130,0.0,64.0
2904,82.0,120,130,0.0,65.0
2905,84.0,120,130,0.0,65.0
2906,86.0,120,130,0.0,66.0
2907,87.0,120,130,0.0,67.0
2908,88.0,120,130,0.0,68.0
2909,91.0,0,130,0.0,71.0
2910,81.0,0,240,0.0,58.0
2911,84.0,0,240,0.0,58.0
2912,87.0,120,240,0.0,58.0
2913,89.0,120,130,0.0,68.0
2914,91.0,120,130,0.0,71.0
2915,82.0,0,240,0.0,58.0
2916,86.0,0,240,0.0,58.0
2917,80.0,0,240,0.0,58.0
2918,89.0,120,130,0.0,68.0
2919,94.0,0,120,0.0,68.0
2920,87.0,120,240,0.0,59.0
2921,79.0,0,240,0.0,59.0
2922,82.0,0,240,0.0,59.0
2923,89.0,660,60,0.0,77.0
2924,101.0,60,120,0.0,89.0
2925,63.0,0,240,0.0,72.0
2926,60.0,0,240,0.0,72.0
2927,100.0,120,120,0.0,84.0
2928,65.0,0,240,0.0,72.0
2929,69.0,0,240,0.0,72.0
2930,99.0,120,120,0.0,83.0
2931,98.0,120,120,0.0,82.0
2932,96.0,120,120,0.0,81.0
2933,94.0,120,120,0.0,79.0
2934,93.0,120,120,0.0,78.0
2935,91.0,120,120,0.0,77.0
2936,89.0,120,120,0.0,76.0
2937,88.0,120,120,0.0,75.0
2938,87.0,120,120,0.0,74.0
2939,86.0,120,120,0.0,73.0
2940,84.0,120,120,0.0,72.0
2941,82.0,120,120,0.0,71.0
2942,81.0,120,120,0.0,70.0
2943,79.0,120,120,0.0,69.0
2944,77.0,120,120,0.0,68.0
2945,76.0,120,120,0.0,67.0
2946,75.0,0,120,0.0,66.0
2947,63.0,30,240,0.0,70.0
2948,47.0,30,330,0.0,60.0
2949,51.0,30,300,0.0,64.0
2950,56.0,30,270,0.0,67.0
2951,73.0,120,120,0.0,65.0
2952,71.0,120,120,0.0,64.0
2953,70.0,120,120,0.0,63.0
2954,68.0,120,120,0.0,62.0
2955,66.0,120,120,0.0,61.0
2956,65.0,120,120,0.0,60.0
2957,63.0,120,120,0.0,59.0
2958,61.0,120,120,0.0,58.0
2959,59.0,120,120,0.0,57.0
2960,58.0,120,120,0.0,56.0
2961,56.0,120,120,0.0,55.0
2962,54.0,0,120,0.0,57.0
2963,35.0,120,240,0.0,85.0
2964,53.0,120,120,0.0,59.0
2965,51.0,120,120,0.0,62.0
2966,49.0,120,120,0.0,64.0
2967,47.0,120,120,0.0,66.0
2968,46.0,120,120,0.0,68.0
2969,44.0,120,120,0.0,70.0
2970,42.0,120,120,0.0,72.0
2971,41.0,120,120,0.0,75.0
2972,39.0,120,120,0.0,77.0
2973,37.0,120,120,0.0,79.0
2974,35.0,120,120,0.0,81.0
2975,34.0,120,240,0.0,80.0
2976,41.0,240,240,0.0,55.0
2977,46.0,240,240,0.0,55.0
2978,50.0,240,240,0.0,55.0
2979,46.0,240,240,0.0,55.0
2980,41.0,240,240,0.0,55.0
2981,34.0,0,240,0.0,66.0
2982,41.0,240,240,0.0,55.0
2983,46.0,240,240,0.0,55.0
2984,62.0,240,0,0.0,61.0
2985,67.0,240,960,0.0,78.0
2986,58.0,0,960,0.0,66.0
2987,53.0,240,240,0.0,55.0
2988,46.0,0,240,0.0,55.0
2989,41.0,240,240,0.0,55.0
2990,56.0,0,480,0.0,61.0
2991,67.0,0,480,0.0,73.0
2992,39.0,240,240,0.0,60.0
2993,55.0,0,480,0.0,65.0
2994,63.0,0,480,0.0,76.0
2995,46.0,240,240,0.0,54.0
2996,51.0,240,240,0.0,54.0
2997,55.0,240,240,0.0,54.0
2998,51.0,0,240,0.0,54.0
2999,46.0,240,240,0.0,53.0
3000,39.0,240,240,0.0,60.0
3001,48.0,240,240,0.0,53.0
3002,51.0,240,240,0.0,53.0
3003,63.0,240,1440,0.0,66.0
3004,58.0,240,240,0.0,53.0
3005,67.0,0,1440,0.0,66.0
3006,75.0,0,1440,0.0,78.0
3007,51.0,0,240,0.0,53.0
3008,48.0,240,240,0.0,53.0
3009,74.0,0,480,0.0,73.0
3010,70.0,0,480,0.0,61.0
3011,63.0,0,0,0.0,65.0
3012,41.0,240,240,0.0,60.0
3013,48.0,240,240,0.0,52.0
3014,51.0,240,240,0.0,52.0
3015,58.0,240,240,0.0,53.0
3016,51.0,240,240,0.0,53.0
3017,70.0,0,1440,0.0,65.0
3018,72.0,0,1440,0.0,77.0
3019,48.0,240,240,0.0,53.0
3020,41.0,0,240,0.0,60.0
3021,48.0,240,240,0.0,53.0
3022,51.0,240,240,0.0,53.0
3023,69.0,240,960,0.0,67.0
3024,74.0,0,960,0.0,79.0
3025,65.0,0,960,0.0,67.0
3026,57.0,240,240,0.0,54.0
3027,51.0,0,240,0.0,54.0
3028,63.0,240,480,0.0,63.0
3029,69.0,0,480,0.0,63.0
3030,74.0,0,480,0.0,74.0
3031,48.0,240,240,0.0,54.0
3032,46.0,0,240,0.0,59.0
3033,62.0,0,480,0.0,59.0
3034,70.0,240,480,0.0,71.0
3035,53.0,240,240,0.0,51.0
3036,58.0,240,240,0.0,51.0
3037,62.0,240,240,0.0,51.0
3038,58.0,240,240,0.0,51.0
3039,53.0,240,240,0.0,51.0
3040,46.0,0,240,0.0,54.0
3041,53.0,240,240,0.0,51.0
3042,58.0,240,240,0.0,51.0
3043,70.0,240,960,0.0,64.0
3044,82.0,0,960,0.0,75.0
3045,65.0,240,240,0.0,51.0
3046,58.0,0,240,0.0,51.0
3047,71.0,240,480,0.0,65.0
3048,83.0,0,480,0.0,77.0
3049,53.0,240,240,0.0,51.0
3050,72.0,240,180,0.0,65.0
3051,84.0,0,180,0.0,77.0
3052,46.0,0,240,0.0,58.0
3053,82.0,0,180,0.0,60.0
3054,85.0,48,180,0.0,72.0
3055,55.0,240,240,0.0,47.0
3056,60.0,192,240,0.0,48.0
3057,76.0,0,180,0.0,61.0
3058,84.0,96,180,0.0,73.0
3059,64.0,144,240,0.0,50.0
3060,82.0,144,180,0.0,63.0
3061,83.0,0,180,0.0,74.0
3062,60.0,96,240,0.0,51.0
3063,84.0,0,168,0.0,79.0
3064,76.0,192,168,0.0,67.0
3065,84.0,0,120,0.0,69.0
3066,55.0,48,240,0.0,53.0
3067,80.0,0,0,0.0,73.0
3068,92.0,0,240,0.0,87.0
3069,46.0,120,240,0.0,54.0
3070,56.0,240,240,0.0,51.0
3071,60.0,240,240,0.0,51.0
3072,65.0,240,240,0.0,51.0
3073,60.0,240,240,0.0,51.0
3074,84.0,0,240,0.0,81.0
3075,56.0,0,240,0.0,51.0
3076,75.0,240,240,0.0,69.0
3077,74.0,0,180,0.0,65.0
3078,82.0,240,180,0.0,77.0
3079,46.0,0,240,0.0,58.0
3080,80.0,0,180,0.0,60.0
3081,84.0,48,180,0.0,72.0
3082,53.0,240,240,0.0,47.0
3083,56.0,192,240,0.0,48.0
3084,74.0,0,180,0.0,61.0
3085,82.0,96,180,0.0,73.0
3086,62.0,144,240,0.0,50.0
3087,81.0,0,180,0.0,74.0
3088,80.0,144,180,0.0,63.0
3089,56.0,96,240,0.0,51.0
3090,74.0,192,168,0.0,67.0
3091,82.0,120,0,0.0,69.0
3092,79.0,0,120,0.0,57.0
3093,53.0,48,240,0.0,53.0
3094,79.0,0,240,0.0,73.0
3095,91.0,120,240,0.0,87.0
3096,46.0,0,240,0.0,54.0
3097,51.0,240,240,0.0,51.0
3098,55.0,240,240,0.0,51.0
3099,63.0,240,240,0.0,51.0
3100,55.0,240,240,0.0,51.0
3101,82.0,240,240,0.0,81.0
3102,74.0,0,240,0.0,69.0
3103,51.0,0,240,0.0,51.0
3104,72.0,0,180,0.0,65.0
3105,80.0,240,180,0.0,77.0
3106,46.0,0,240,0.0,58.0
3107,75.0,0,180,0.0,60.0
3108,82.0,48,180,0.0,72.0
3109,51.0,240,240,0.0,47.0
3110,56.0,192,240,0.0,48.0
3111,80.0,96,180,0.0,73.0
3112,72.0,0,180,0.0,61.0
3113,60.0,144,240,0.0,50.0
3114,79.0,144,180,0.0,74.0
3115,75.0,0,180,0.0,63.0
3116,56.0,96,240,0.0,51.0
3117,80.0,0,168,0.0,79.0
3118,72.0,192,168,0.0,67.0
3119,51.0,48,240,0.0,53.0
3120,77.0,0,120,0.0,57.0
3121,80.0,120,120,0.0,69.0
3122,89.0,0,240,0.0,87.0
3123,77.0,0,240,0.0,73.0
3124,46.0,120,240,0.0,54.0
3125,53.0,240,240,0.0,51.0
3126,56.0,240,240,0.0,51.0
3127,62.0,240,240,0.0,51.0
3128,56.0,0,240,0.0,51.0
3129,53.0,240,240,0.0,51.0
3130,77.0,240,480,0.0,78.0
3131,80.0,0,480,0.0,78.0
3132,47.0,240,240,0.0,54.0
3133,79.0,0,360,0.0,78.0
3134,77.0,0,360,0.0,66.0
3135,82.0,120,120,0.0,71.0
3136,53.0,240,240,0.0,48.0
3137,55.0,0,240,0.0,48.0
3138,62.0,240,240,0.0,48.0
3139,55.0,240,240,0.0,48.0
3140,77.0,240,0,0.0,64.0
3141,80.0,120,720,0.0,81.0
3142,79.0,240,0,0.0,74.0
3143,53.0,0,240,0.0,48.0
3144,48.0,0,240,0.0,54.0
3145,75.0,0,460,0.0,63.0
3146,51.0,240,240,0.0,46.0
3147,55.0,240,240,0.0,48.0
3148,75.0,0,460,0.0,67.0
3149,80.0,0,460,0.0,79.0
3150,63.0,240,240,0.0,51.0
3151,54.0,0,240,0.0,53.0
3152,75.0,0,460,0.0,71.0
3153,81.0,240,460,0.0,84.0
3154,51.0,240,240,0.0,49.0
3155,50.0,0,240,0.0,80.0
3156,56.0,240,240,0.0,55.0
3157,58.0,240,240,0.0,55.0
3158,65.0,240,240,0.0,55.0
3159,58.0,240,240,0.0,55.0
3160,70.0,0,1440,0.0,71.0
3161,56.0,240,240,0.0,55.0
3162,82.0,0,1440,0.0,84.0
3163,77.0,0,1440,0.0,71.0
3164,68.0,240,1440,0.0,71.0
3165,46.0,240,240,0.0,66.0
3166,53.0,240,240,0.0,55.0
3167,58.0,240,240,0.0,55.0
3168,70.0,0,960,0.0,66.0
3169,68.0,0,960,0.0,66.0
3170,74.0,0,960,0.0,66.0
3171,82.0,0,960,0.0,78.0
3172,79.0,0,0,0.0,61.0
3173,62.0,240,240,0.0,55.0
3174,58.0,0,240,0.0,55.0
3175,74.0,0,480,0.0,61.0
3176,53.0,240,240,0.0,55.0
3177,82.0,0,480,0.0,73.0
3178,68.0,0,480,0.0,61.0
3179,70.0,240,480,0.0,61.0
3180,39.0,240,240,0.0,60.0
3181,46.0,240,240,0.0,54.0
3182,75.0,0,480,0.0,76.0
3183,67.0,0,480,0.0,65.0
3184,51.0,240,240,0.0,54.0
3185,55.0,240,240,0.0,54.0
3186,58.0,240,240,0.0,54.0
3187,63.0,240,240,0.0,53.0
3188,67.0,0,240,0.0,60.0
3189,63.0,240,240,0.0,53.0
3190,58.0,240,240,0.0,53.0
3191,55.0,240,240,0.0,53.0
3192,87.0,240,960,0.0,86.0
3193,79.0,0,960,0.0,72.0
3194,75.0,0,960,0.0,72.0
3195,51.0,240,240,0.0,53.0
3196,46.0,240,240,0.0,53.0
3197,82.0,0,480,0.0,67.0
3198,75.0,0,480,0.0,67.0
3199,86.0,0,480,0.0,80.0
3200,41.0,240,240,0.0,60.0
3201,48.0,240,240,0.0,52.0
3202,51.0,240,240,0.0,52.0
3203,58.0,240,240,0.0,53.0
3204,51.0,240,240,0.0,53.0
3205,82.0,0,1440,0.0,71.0
3206,75.0,0,1440,0.0,71.0
3207,84.0,0,1440,0.0,85.0
3208,48.0,240,240,0.0,53.0
3209,41.0,0,240,0.0,60.0
3210,48.0,240,240,0.0,53.0
3211,51.0,240,240,0.0,53.0
3212,57.0,240,240,0.0,54.0
3213,81.0,0,0,0.0,69.0
3214,86.0,0,960,0.0,87.0
3215,77.0,0,960,0.0,73.0
3216,51.0,240,240,0.0,54.0
3217,48.0,240,240,0.0,54.0
3218,86.0,0,480,0.0,81.0
3219,75.0,0,480,0.0,69.0
3220,34.0,240,240,0.0,59.0
3221,82.0,0,480,0.0,77.0
3222,74.0,0,480,0.0,65.0
3223,46.0,240,240,0.0,53.0
3224,53.0,240,240,0.0,55.0
3225,58.0,240,240,0.0,57.0
3226,62.0,240,240,0.0,58.0
3227,65.0,240,240,0.0,60.0
3228,74.0,0,240,0.0,61.0
3229,70.0,240,240,0.0,59.0
3230,65.0,240,240,0.0,57.0
3231,82.0,240,960,0.0,78.0
3232,94.0,0,960,0.0,94.0
3233,62.0,240,240,0.0,55.0
3234,58.0,240,240,0.0,53.0
3235,82.0,0,0,0.0,78.0
3236,94.0,240,0,0.0,94.0
3237,53.0,0,240,0.0,51.0
3238,46.0,0,240,0.0,57.0
3239,52.0,240,240,0.0,49.0
3240,55.0,240,240,0.0,49.0
3241,60.0,240,240,0.0,49.0
3242,55.0,240,240,0.0,49.0
3243,52.0,240,240,0.0,49.0
3244,46.0,0,240,0.0,47.0
3245,52.0,240,240,0.0,47.0
3246,60.0,240,480,0.0,65.0
3247,55.0,240,240,0.0,53.0
3248,60.0,240,240,0.0,47.0
3249,72.0,0,960,0.0,77.0
3250,55.0,0,240,0.0,47.0
3251,74.0,0,480,0.0,73.0
3252,62.0,240,480,0.0,61.0
3253,52.0,240,240,0.0,47.0
3254,75.0,0,90,0.0,69.0
3255,77.0,90,90,0.0,69.0
3256,46.0,0,240,0.0,55.0
3257,75.0,90,180,0.0,69.0
3258,63.0,240,360,0.0,57.0
3259,53.0,60,240,0.0,46.0
3260,57.0,120,240,0.0,46.0
3261,74.0,0,360,0.0,64.0
3262,62.0,120,360,0.0,53.0
3263,60.0,0,240,0.0,46.0
3264,63.0,0,360,0.0,53.0
3265,75.0,240,360,0.0,64.0
3266,57.0,240,240,0.0,47.0
3267,53.0,120,240,0.0,47.0
3268,79.0,0,360,0.0,64.0
3269,67.0,120,360,0.0,53.0
3270,74.0,0,0,0.0,60.0
3271,46.0,240,240,0.0,52.0
3272,53.0,240,240,0.0,47.0
3273,68.0,0,480,0.0,66.0
3274,56.0,240,240,0.0,47.0
3275,62.0,240,240,0.0,47.0
3276,70.0,0,480,0.0,66.0
3277,79.0,0,1120,0.0,72.0
3278,56.0,240,240,0.0,47.0
3279,77.0,160,160,0.0,61.0
3280,75.0,80,160,0.0,61.0
3281,68.0,0,480,0.0,61.0
3282,53.0,80,240,0.0,47.0
3283,39.0,0,240,0.0,57.0
3284,46.0,240,240,0.0,40.0
3285,51.0,240,240,0.0,48.0
3286,55.0,240,240,0.0,42.0
3287,51.0,240,240,0.0,54.0
3288,67.0,160,1440,0.0,68.0
3289,75.0,0,1440,0.0,68.0
3290,46.0,240,240,0.0,50.0
3291,39.0,240,240,0.0,55.0
3292,46.0,240,240,0.0,45.0
3293,51.0,240,240,0.0,45.0
3294,67.0,160,160,0.0,61.0
3295,58.0,80,240,0.0,45.0
3296,68.0,80,160,0.0,57.0
3297,70.0,0,160,0.0,63.0
3298,51.0,160,240,0.0,45.0
3299,74.0,160,160,0.0,68.0
3300,72.0,80,160,0.0,63.0
3301,46.0,80,240,0.0,45.0
3302,39.0,160,240,0.0,50.0
3303,46.0,240,240,0.0,37.0
3304,51.0,240,240,0.0,51.0
3305,55.0,240,240,0.0,46.0
3306,51.0,240,240,0.0,55.0
3307,70.0,0,1440,0.0,70.0
3308,46.0,240,240,0.0,49.0
3309,39.0,240,240,0.0,50.0
3310,46.0,240,240,0.0,40.0
3311,51.0,240,240,0.0,40.0
3312,67.0,160,160,0.0,57.0
3313,58.0,80,240,0.0,40.0
3314,68.0,80,160,0.0,60.0
3315,70.0,0,160,0.0,65.0
3316,51.0,160,240,0.0,40.0
3317,74.0,160,160,0.0,68.0
3318,46.0,80,240,0.0,40.0
3319,72.0,80,160,0.0,61.0
3320,39.0,160,240,0.0,54.0
3321,46.0,240,240,0.0,37.0
3322,50.0,240,240,0.0,47.0
3323,56.0,240,240,0.0,37.0
3324,50.0,240,240,0.0,50.0
3325,46.0,240,240,0.0,46.0
3326,70.0,0,1440,0.0,70.0
3327,39.0,240,240,0.0,47.0
3328,46.0,240,240,0.0,40.0
3329,50.0,240,240,0.0,40.0
3330,65.0,160,160,0.0,54.0
3331,68.0,80,160,0.0,59.0
3332,58.0,80,240,0.0,40.0
3333,70.0,160,160,0.0,64.0
3334,50.0,0,240,0.0,40.0
3335,74.0,160,160,0.0,68.0
3336,46.0,80,240,0.0,40.0
3337,72.0,80,160,0.0,63.0
3338,39.0,160,240,0.0,54.0
3339,70.0,0,480,0.0,70.0
3340,46.0,240,240,0.0,42.0
3341,51.0,240,240,0.0,49.0
3342,55.0,80,240,0.0,42.0
3343,63.0,80,160,0.0,56.0
3344,67.0,0,160,0.0,60.0
3345,61.0,160,480,0.0,57.0
3346,51.0,160,240,0.0,42.0
3347,72.0,160,160,0.0,65.0
3348,70.0,80,160,0.0,59.0
3349,46.0,80,240,0.0,42.0
3350,39.0,160,240,0.0,46.0
3351,47.0,240,240,0.0,42.0
3352,68.0,0,720,0.0,65.0
3353,51.0,240,240,0.0,42.0
3354,56.0,240,240,0.0,42.0
3355,51.0,240,240,0.0,42.0
3356,59.0,0,480,0.0,60.0
3357,63.0,0,240,0.0,62.0
3358,65.0,0,240,0.0,57.0
3359,47.0,240,240,0.0,42.0
3360,39.0,240,240,0.0,54.0
3361,67.0,0,480,0.0,70.0
3362,46.0,240,240,0.0,37.0
3363,51.0,240,240,0.0,44.0
3364,55.0,240,240,0.0,37.0
3365,51.0,240,240,0.0,44.0
3366,46.0,240,240,0.0,37.0
3367,39.0,240,240,0.0,47.0
3368,46.0,240,240,0.0,37.0
3369,51.0,240,240,0.0,37.0
3370,67.0,160,160,0.0,61.0
3371,58.0,80,240,0.0,37.0
3372,68.0,80,160,0.0,58.0
3373,70.0,0,160,0.0,64.0
3374,51.0,160,240,0.0,37.0
3375,74.0,160,160,0.0,68.0
3376,72.0,80,160,0.0,58.0
3377,46.0,80,240,0.0,37.0
3378,70.0,160,120,0.0,72.0
3379,39.0,0,240,0.0,54.0
3380,82.0,0,120,0.0,72.0
3381,46.0,240,240,0.0,37.0
3382,51.0,240,240,0.0,44.0
3383,94.0,0,240,0.0,87.0
3384,55.0,240,240,0.0,37.0
3385,51.0,240,240,0.0,44.0
3386,46.0,240,240,0.0,37.0
3387,39.0,240,240,0.0,41.0
3388,46.0,240,240,0.0,29.0
3389,51.0,240,240,0.0,29.0
3390,67.0,160,160,0.0,38.0
3391,58.0,80,240,0.0,29.0
3392,68.0,80,160,0.0,42.0
3393,70.0,0,160,0.0,46.0
3394,51.0,160,240,0.0,29.0
3395,74.0,160,160,0.0,50.0
3396,72.0,80,160,0.0,45.0
3397,46.0,80,240,0.0,29.0
3398,70.0,160,120,0.0,56.0
3399,39.0,0,240,0.0,43.0
3400,82.0,240,120,0.0,56.0
3401,46.0,0,240,0.0,29.0
3402,50.0,240,240,0.0,35.0
3403,94.0,0,240,0.0,67.0
3404,56.0,240,240,0.0,29.0
3405,50.0,240,240,0.0,35.0
3406,46.0,240,240,0.0,29.0
3407,39.0,240,240,0.0,37.0
3408,46.0,240,240,0.0,29.0
3409,50.0,240,240,0.0,29.0
3410,65.0,160,160,0.0,39.0
3411,58.0,80,240,0.0,29.0
3412,68.0,80,160,0.0,42.0
3413,70.0,160,160,0.0,45.0
3414,50.0,0,240,0.0,29.0
3415,74.0,160,160,0.0,48.0
3416,72.0,80,160,0.0,45.0
3417,46.0,80,240,0.0,29.0
3418,39.0,0,240,0.0,43.0
3419,46.0,240,240,0.0,33.0
3420,70.0,160,640,0.0,56.0
3421,51.0,240,240,0.0,33.0
3422,63.0,80,160,0.0,43.0
3423,55.0,80,240,0.0,33.0
3424,67.0,160,160,0.0,46.0
3425,61.0,160,480,0.0,39.0
3426,51.0,0,240,0.0,33.0
3427,72.0,160,160,0.0,50.0
3428,70.0,80,160,0.0,46.0
3429,46.0,80,240,0.0,33.0
3430,39.0,0,240,0.0,38.0
3431,47.0,240,240,0.0,33.0
3432,51.0,240,240,0.0,33.0
3433,68.0,160,720,0.0,51.0
3434,56.0,0,240,0.0,33.0
3435,59.0,240,480,0.0,49.0
3436,51.0,240,240,0.0,33.0
3437,63.0,0,240,0.0,51.0
3438,65.0,240,240,0.0,46.0
3439,47.0,0,240,0.0,33.0
3440,39.0,0,240,0.0,43.0
3441,46.0,240,240,0.0,29.0
3442,51.0,240,240,0.0,35.0
3443,55.0,240,240,0.0,29.0
3444,51.0,240,240,0.0,35.0
3445,46.0,240,240,0.0,29.0
3446,39.0,240,240,0.0,41.0
3447,67.0,240,1680,0.0,62.0
3448,67.0,240,240,0.0,51.0
3449,46.0,0,240,0.0,33.0
3450,70.0,240,240,0.0,54.0
3451,51.0,0,240,0.0,33.0
3452,58.0,240,240,0.0,33.0
3453,79.0,0,240,0.0,55.0
3454,51.0,240,240,0.0,33.0
3455,77.0,0,240,0.0,60.0
3456,75.0,0,240,0.0,55.0
3457,46.0,240,240,0.0,33.0
3458,39.0,240,240,0.0,45.0
3459,46.0,240,240,0.0,33.0
3460,51.0,240,240,0.0,35.0
3461,55.0,240,240,0.0,35.0
3462,51.0,240,240,0.0,35.0
3463,46.0,240,240,0.0,33.0
3464,70.0,0,1680,0.0,66.0
3465,39.0,240,240,0.0,41.0
3466,46.0,240,240,0.0,33.0
3467,67.0,0,240,0.0,51.0
3468,51.0,240,240,0.0,33.0
3469,70.0,0,240,0.0,54.0
3470,79.0,0,240,0.0,55.0
3471,58.0,240,240,0.0,33.0
3472,51.0,0,240,0.0,33.0
3473,77.0,240,240,0.0,60.0
3474,46.0,240,240,0.0,33.0
3475,75.0,0,240,0.0,55.0
3476,43.0,240,240,0.0,48.0
3477,50.0,240,240,0.0,33.0
3478,55.0,240,240,0.0,36.0
3479,58.0,240,240,0.0,39.0
3480,62.0,240,240,0.0,41.0
3481,55.0,240,240,0.0,43.0
3482,67.0,240,240,0.0,45.0
3483,74.0,0,1680,0.0,66.0
3484,70.0,0,240,0.0,51.0
3485,62.0,240,240,0.0,40.0
3486,74.0,240,240,0.0,54.0
3487,58.0,0,240,0.0,39.0
3488,82.0,0,240,0.0,55.0
3489,55.0,240,240,0.0,38.0
3490,50.0,0,240,0.0,37.0
3491,81.0,240,240,0.0,60.0
3492,79.0,0,240,0.0,55.0
3493,43.0,240,240,0.0,35.0
3494,31.0,0,240,0.0,42.0
3495,43.0,240,240,0.0,32.0
3496,50.0,240,240,0.0,34.0
3497,55.0,240,240,0.0,37.0
3498,58.0,240,240,0.0,39.0
3499,62.0,240,240,0.0,41.0
3500,74.0,240,1680,0.0,69.0
3501,70.0,240,0,0.0,51.0
3502,67.0,0,240,0.0,41.0
3503,62.0,240,240,0.0,39.0
3504,74.0,0,240,0.0,54.0
3505,58.0,0,240,0.0,38.0
3506,82.0,240,240,0.0,55.0
3507,81.0,0,240,0.0,60.0
3508,55.0,240,240,0.0,36.0
3509,50.0,240,240,0.0,35.0
3510,79.0,0,240,0.0,55.0
3511,74.0,240,240,0.0,59.0
3512,43.0,0,240,0.0,37.0
3513,70.0,240,240,0.0,55.0
3514,50.0,0,240,0.0,33.0
3515,74.0,240,240,0.0,54.0
3516,82.0,240,240,0.0,53.0
3517,62.0,0,480,0.0,33.0
3518,81.0,240,240,0.0,56.0
3519,79.0,240,240,0.0,51.0
3520,74.0,240,240,0.0,56.0
3521,70.0,240,240,0.0,51.0
3522,74.0,240,240,0.0,51.0
3523,82.0,240,240,0.0,54.0
3524,81.0,240,240,0.0,50.0
3525,79.0,240,240,0.0,49.0
3526,74.0,240,240,0.0,48.0
3527,81.0,240,240,0.0,45.0
3528,84.0,240,240,0.0,52.0
3529,82.0,240,240,0.0,47.0
3530,79.0,240,240,0.0,50.0
3531,75.0,240,240,0.0,46.0
3532,70.0,240,240,0.0,45.0
3533,67.0,240,240,0.0,45.0
3534,60.0,240,240,0.0,43.0
3535,62.0,240,240,0.0,42.0
3536,65.0,240,240,0.0,41.0
3537,63.0,240,240,0.0,39.0
3538,38.0,480,475,0.0,25.0
3539,38.0,480,475,0.0,25.0
3540,50.0,240,1440,0.0,28.0
3541,38.0,240,475,0.0,39.0
3542,66.0,240,240,0.0,37.0
3543,70.0,240,240,0.0,41.0
3544,38.0,0,475,0.0,39.0
3545,69.0,240,240,0.0,39.0
3546,62.0,0,960,0.0,37.0
3547,60.0,720,1200,0.0,38.0
3548,38.0,0,475,0.0,22.0
3549,62.0,480,475,0.0,28.0
3550,58.0,0,475,0.0,23.0
3551,62.0,0,475,0.0,28.0
3552,58.0,0,475,0.0,23.0
3553,38.0,480,475,0.0,22.0
3554,67.0,240,1440,0.0,37.0
3555,55.0,480,475,0.0,21.0
3556,67.0,0,475,0.0,28.0
3557,50.0,0,475,0.0,21.0
3558,67.0,0,475,0.0,28.0
3559,55.0,480,475,0.0,21.0
3560,50.0,0,475,0.0,21.0
3561,62.0,0,1440,0.0,34.0
3562,74.0,480,1440,0.0,41.0
3563,63.0,480,475,0.0,23.0
3564,67.0,0,475,0.0,28.0
3565,50.0,0,475,0.0,22.0
3566,55.0,0,475,0.0,22.0
3567,67.0,0,475,0.0,28.0
3568,50.0,480,475,0.0,22.0
3569,55.0,0,475,0.0,22.0
3570,63.0,0,475,0.0,23.0
3571,72.0,0,1440,0.0,39.0
3572,60.0,480,1440,0.0,34.0
3573,38.0,240,475,0.0,39.0
3574,66.0,240,240,0.0,37.0
3575,70.0,240,240,0.0,41.0
3576,38.0,0,475,0.0,39.0
3577,62.0,0,960,0.0,37.0
3578,60.0,720,1200,0.0,40.0
3579,69.0,240,240,0.0,39.0
3580,38.0,480,475,0.0,22.0
3581,62.0,0,475,0.0,28.0
3582,58.0,0,475,0.0,23.0
3583,38.0,480,475,0.0,22.0
3584,58.0,0,475,0.0,23.0
3585,62.0,0,475,0.0,28.0
3586,67.0,240,1440,0.0,37.0
3587,38.0,0,475,0.0,21.0
3588,61.0,0,475,0.0,28.0
3589,55.0,0,475,0.0,23.0
3590,57.0,480,475,0.0,23.0
3591,55.0,0,475,0.0,23.0
3592,61.0,0,475,0.0,28.0
3593,57.0,0,475,0.0,23.0
3594,38.0,480,475,0.0,21.0
3595,64.0,480,1440,0.0,37.0
3596,38.0,0,475,0.0,16.0
3597,62.0,480,475,0.0,23.0
3598,57.0,0,475,0.0,19.0
3599,54.0,0,475,0.0,19.0
3600,54.0,480,475,0.0,19.0
3601,57.0,0,475,0.0,19.0
3602,62.0,0,475,0.0,23.0
3603,38.0,0,475,0.0,16.0
3604,66.0,480,1440,0.0,37.0
3605,38.0,240,475,0.0,39.0
3606,66.0,240,240,0.0,37.0
3607,70.0,240,240,0.0,41.0
3608,38.0,0,475,0.0,39.0
3609,62.0,0,960,0.0,37.0
3610,60.0,720,1200,0.0,40.0
3611,69.0,240,240,0.0,39.0
3612,58.0,0,475,0.0,23.0
3613,62.0,480,475,0.0,28.0
3614,38.0,0,475,0.0,22.0
3615,58.0,0,475,0.0,23.0
3616,62.0,0,475,0.0,28.0
3617,38.0,480,475,0.0,22.0
3618,67.0,240,1440,0.0,37.0
3619,50.0,0,475,0.0,21.0
3620,70.0,0,475,0.0,36.0
3621,67.0,480,475,0.0,29.0
3622,55.0,0,475,0.0,21.0
3623,58.0,0,475,0.0,27.0
3624,50.0,0,475,0.0,21.0
3625,70.0,0,475,0.0,36.0
3626,67.0,0,475,0.0,29.0
3627,58.0,480,475,0.0,27.0
3628,55.0,0,475,0.0,21.0
3629,74.0,0,1440,0.0,58.0
3630,62.0,480,1440,0.0,43.0
3631,70.0,0,475,0.0,36.0
3632,67.0,0,475,0.0,29.0
3633,50.0,480,475,0.0,21.0
3634,55.0,0,475,0.0,21.0
3635,58.0,0,475,0.0,27.0
3636,67.0,0,475,0.0,29.0
3637,55.0,480,475,0.0,21.0
3638,58.0,0,475,0.0,27.0
3639,50.0,0,475,0.0,21.0
3640,70.0,0,475,0.0,36.0
3641,64.0,0,1440,0.0,45.0
3642,76.0,480,1440,0.0,59.0
3643,38.0,0,475,0.0,39.0
3644,64.0,240,240,0.0,37.0
3645,69.0,240,240,0.0,41.0
3646,38.0,0,475,0.0,39.0
3647,67.0,240,240,0.0,39.0
3648,61.0,240,960,0.0,37.0
3649,58.0,720,1200,0.0,40.0
3650,64.0,480,475,0.0,33.0
3651,58.0,0,475,0.0,27.0
3652,61.0,0,475,0.0,27.0
3653,38.0,0,475,0.0,26.0
3654,38.0,0,475,0.0,26.0
3655,64.0,0,475,0.0,33.0
3656,58.0,0,475,0.0,27.0
3657,61.0,480,475,0.0,27.0
3658,67.0,240,1440,0.0,37.0
3659,67.0,0,475,0.0,32.0
3660,50.0,0,475,0.0,24.0
3661,55.0,0,475,0.0,24.0
3662,58.0,480,475,0.0,29.0
3663,70.0,0,475,0.0,32.0
3664,73.0,0,475,0.0,39.0
3665,50.0,480,475,0.0,24.0
3666,55.0,0,475,0.0,24.0
3667,58.0,0,475,0.0,29.0
3668,73.0,0,475,0.0,41.0
3669,70.0,0,475,0.0,32.0
3670,67.0,0,475,0.0,32.0
3671,76.0,0,1440,0.0,62.0
3672,64.0,480,1440,0.0,48.0
3673,73.0,0,475,0.0,41.0
3674,50.0,0,475,0.0,24.0
3675,55.0,480,475,0.0,24.0
3676,58.0,0,475,0.0,32.0
3677,70.0,0,475,0.0,35.0
3678,67.0,0,475,0.0,35.0
3679,55.0,480,475,0.0,24.0
3680,67.0,0,475,0.0,35.0
3681,58.0,0,475,0.0,32.0
3682,50.0,0,475,0.0,24.0
3683,70.0,0,475,0.0,35.0
3684,73.0,0,475,0.0,43.0
3685,78.0,0,1440,0.0,64.0
3686,66.0,480,1440,0.0,52.0
3687,55.0,0,475,0.0,26.0
3688,67.0,0,475,0.0,36.0
3689,70.0,0,475,0.0,36.0
3690,73.0,0,475,0.0,44.0
3691,58.0,0,475,0.0,32.0
3692,50.0,480,475,0.0,26.0
3693,64.0,0,960,0.0,51.0
3694,76.0,480,960,0.0,63.0
3695,66.0,720,240,0.0,53.0
3696,78.0,0,240,0.0,67.0
3697,73.0,0,475,0.0,47.0
3698,67.0,0,475,0.0,37.0
3699,70.0,0,475,0.0,37.0
3700,58.0,0,475,0.0,35.0
3701,50.0,480,475,0.0,26.0
3702,55.0,0,475,0.0,26.0
3703,73.0,0,475,0.0,47.0
3704,67.0,0,475,0.0,37.0
3705,70.0,0,475,0.0,37.0
3706,58.0,0,475,0.0,36.0
3707,50.0,480,475,0.0,27.0
3708,55.0,0,475,0.0,27.0
3709,78.0,0,1440,0.0,67.0
3710,66.0,240,1440,0.0,53.0
3711,64.0,0,960,0.0,56.0
3712,55.0,0,480,0.0,27.0
3713,73.0,480,480,0.0,50.0
3714,76.0,480,960,0.0,73.0
3715,67.0,0,480,0.0,40.0
3716,70.0,0,480,0.0,40.0
3717,50.0,0,480,0.0,27.0
3718,58.0,0,480,0.0,36.0
3719,66.0,720,240,0.0,56.0
3720,78.0,0,0,0.0,73.0
3721,58.0,0,475,0.0,37.0
3722,55.0,0,475,0.0,29.0
3723,50.0,480,475,0.0,29.0
3724,70.0,0,475,0.0,41.0
3725,73.0,0,475,0.0,52.0
3726,67.0,0,475,0.0,41.0
3727,67.0,480,475,0.0,43.0
3728,50.0,0,475,0.0,29.0
3729,70.0,0,475,0.0,43.0
3730,58.0,0,475,0.0,39.0
3731,55.0,0,475,0.0,29.0
3732,73.0,0,475,0.0,52.0
3733,66.0,240,1440,0.0,56.0
3734,76.0,0,960,0.0,75.0
3735,67.0,0,480,0.0,43.0
3736,55.0,0,480,0.0,32.0
3737,50.0,0,480,0.0,32.0
3738,64.0,480,960,0.0,60.0
3739,73.0,0,480,0.0,54.0
3740,70.0,0,480,0.0,43.0
3741,58.0,480,480,0.0,40.0
3742,78.0,720,240,0.0,77.0
3743,66.0,0,240,0.0,66.0
3744,58.0,0,475,0.0,42.0
3745,76.0,0,475,0.0,72.0
3746,73.0,0,475,0.0,58.0
3747,70.0,480,475,0.0,58.0
3748,61.0,0,475,0.0,42.0
3749,64.0,0,475,0.0,52.0
3750,70.0,480,475,0.0,58.0
3751,73.0,0,475,0.0,58.0
3752,76.0,0,475,0.0,73.0
3753,61.0,0,475,0.0,42.0
3754,64.0,0,475,0.0,55.0
3755,58.0,0,475,0.0,42.0
3756,81.0,0,1440,0.0,80.0
3757,69.0,240,1440,0.0,69.0
3758,73.0,0,480,0.0,62.0
3759,70.0,480,480,0.0,62.0
3760,79.0,480,960,0.0,85.0
3761,76.0,0,480,0.0,79.0
3762,67.0,0,960,0.0,68.0
3763,61.0,0,480,0.0,45.0
3764,58.0,0,480,0.0,45.0
3765,64.0,0,480,0.0,57.0
3766,69.0,0,480,0.0,75.0
3767,81.0,480,480,0.0,93.0
3768,82.0,0,480,0.0,101.0
3769,70.0,0,480,0.0,86.0
3770,38.0,480,480,0.0,82.0
3771,26.0,0,480,0.0,70.0
3772,74.0,0,480,0.0,86.0
3773,86.0,0,220,0.0,80.0
3774,94.0,240,220,0.0,95.0
3775,50.0,480,480,0.0,56.0
3776,58.0,0,480,0.0,66.0
3777,96.0,0,220,0.0,101.0
3778,87.0,0,220,0.0,86.0
3779,94.0,240,220,0.0,95.0
3780,86.0,0,220,0.0,80.0
3781,55.0,0,480,0.0,56.0
3782,62.0,240,480,0.0,66.0
3783,93.0,0,220,0.0,97.0
3784,84.0,240,220,0.0,82.0
3785,82.0,240,220,0.0,80.0
3786,91.0,0,220,0.0,95.0
3787,67.0,0,480,0.0,66.0
3788,58.0,0,480,0.0,56.0
3789,81.0,240,220,0.0,80.0
3790,90.0,0,220,0.0,94.0
3791,82.0,0,220,0.0,79.0
3792,91.0,240,220,0.0,93.0
3793,62.0,0,480,0.0,66.0
3794,55.0,0,480,0.0,56.0
3795,89.0,240,220,0.0,93.0
3796,81.0,0,220,0.0,79.0
3797,79.0,0,90,0.0,78.0
3798,87.0,360,90,0.0,92.0
3799,50.0,0,480,0.0,67.0
3800,58.0,0,480,0.0,79.0
3801,79.0,120,220,0.0,77.0
3802,87.0,0,220,0.0,91.0
3803,86.0,240,220,0.0,90.0
3804,78.0,0,220,0.0,75.0
3805,38.0,0,480,0.0,66.0
3806,26.0,0,480,0.0,56.0
3807,75.0,0,220,0.0,74.0
3808,84.0,240,220,0.0,89.0
3809,82.0,0,220,0.0,86.0
3810,74.0,240,220,0.0,73.0
3811,50.0,0,480,0.0,56.0
3812,54.0,0,0,0.0,49.0
3813,60.0,240,0,0.0,49.0
3814,72.0,0,220,0.0,72.0
3815,81.0,0,220,0.0,85.0
3816,79.0,0,220,0.0,83.0
3817,70.0,240,220,0.0,70.0
3818,62.0,0,480,0.0,59.0
3819,78.0,0,140,0.0,85.0
3820,69.0,240,140,0.0,72.0
3821,75.0,0,140,0.0,85.0
3822,72.0,160,140,0.0,72.0
3823,74.0,0,140,0.0,86.0
3824,72.0,160,140,0.0,73.0
3825,66.0,0,480,0.0,64.0
3826,60.0,0,480,0.0,55.0
3827,71.0,160,90,0.0,74.0
3828,74.0,0,90,0.0,88.0
3829,70.0,0,90,0.0,74.0
3830,74.0,96,90,0.0,88.0
3831,69.0,0,90,0.0,74.0
3832,74.0,96,90,0.0,88.0
3833,74.0,0,90,0.0,89.0
3834,68.0,96,90,0.0,74.0
3835,74.0,96,90,0.0,89.0
3836,69.0,0,90,0.0,74.0
3837,60.0,0,480,0.0,58.0
3838,54.0,0,480,0.0,58.0
3839,62.0,0,480,0.0,69.0
3840,70.0,0,100,0.0,75.0
3841,74.0,0,100,0.0,90.0
3842,74.0,120,100,0.0,90.0
3843,69.0,0,100,0.0,75.0
3844,74.0,0,100,0.0,91.0
3845,72.0,120,100,0.0,77.0
3846,74.0,0,100,0.0,91.0
3847,70.0,120,100,0.0,77.0
3848,54.0,0,480,0.0,61.0
3849,50.0,96,480,0.0,61.0
3850,60.0,0,480,0.0,73.0
3851,74.0,0,100,0.0,91.0
3852,67.0,0,100,0.0,85.0
3853,43.0,0,240,0.0,73.0
3854,31.0,120,240,0.0,73.0
3855,86.0,240,100,0.0,73.0
3856,91.0,0,100,0.0,73.0
3857,94.0,0,100,0.0,87.0
3858,81.0,120,100,0.0,76.0
3859,86.0,0,100,0.0,67.0
3860,82.0,0,100,0.0,67.0
3861,91.0,120,100,0.0,79.0
3862,58.0,0,240,0.0,55.0
3863,67.0,120,240,0.0,66.0
3864,62.0,0,240,0.0,55.0
3865,82.0,0,100,0.0,73.0
3866,86.0,120,100,0.0,73.0
3867,91.0,0,100,0.0,87.0
3868,46.0,0,120,0.0,53.0
3869,78.0,120,100,0.0,75.0
3870,79.0,0,100,0.0,67.0
3871,82.0,0,100,0.0,67.0
3872,86.0,120,100,0.0,79.0
3873,67.0,120,240,0.0,64.0
3874,62.0,0,240,0.0,53.0
3875,58.0,0,240,0.0,53.0
3876,82.0,0,100,0.0,73.0
3877,86.0,120,100,0.0,87.0
3878,79.0,0,100,0.0,73.0
3879,50.0,0,120,0.0,57.0
3880,73.0,120,100,0.0,78.0
3881,79.0,0,100,0.0,66.0
3882,74.0,120,100,0.0,66.0
3883,82.0,0,100,0.0,78.0
3884,58.0,120,240,0.0,53.0
3885,62.0,0,240,0.0,53.0
3886,67.0,0,240,0.0,64.0
3887,79.0,0,100,0.0,73.0
3888,74.0,0,100,0.0,73.0
3889,82.0,0,100,0.0,87.0
3890,55.0,120,120,0.0,54.0
3891,70.0,120,100,0.0,75.0
3892,75.0,0,100,0.0,66.0
3893,79.0,0,100,0.0,66.0
3894,84.0,120,100,0.0,78.0
3895,60.0,0,240,0.0,53.0
3896,63.0,0,240,0.0,53.0
3897,67.0,0,240,0.0,64.0
3898,57.0,120,240,0.0,53.0
3899,84.0,120,100,0.0,87.0
3900,79.0,0,100,0.0,73.0
3901,75.0,0,100,0.0,73.0
3902,45.0,0,120,0.0,55.0
3903,74.0,120,100,0.0,75.0
3904,73.0,0,100,0.0,75.0
3905,72.0,120,100,0.0,75.0
3906,67.0,0,240,0.0,64.0
3907,63.0,0,240,0.0,53.0
3908,60.0,120,240,0.0,53.0
3909,84.0,0,100,0.0,87.0
3910,79.0,0,100,0.0,73.0
3911,75.0,120,100,0.0,73.0
3912,57.0,0,120,0.0,55.0
3913,74.0,120,100,0.0,74.0
3914,73.0,0,100,0.0,76.0
3915,72.0,120,100,0.0,76.0
3916,60.0,0,240,0.0,53.0
3917,62.0,0,240,0.0,53.0
3918,66.0,120,240,0.0,64.0
3919,75.0,120,100,0.0,73.0
3920,84.0,0,100,0.0,87.0
3921,78.0,0,100,0.0,73.0
3922,50.0,0,120,0.0,56.0
3923,74.0,120,100,0.0,76.0
3924,73.0,120,100,0.0,76.0
3925,72.0,120,100,0.0,76.0
3926,60.0,0,240,0.0,53.0
3927,62.0,0,240,0.0,53.0
3928,66.0,0,240,0.0,63.0
3929,78.0,0,100,0.0,73.0
3930,81.0,0,100,0.0,87.0
3931,74.0,0,100,0.0,73.0
3932,57.0,120,120,0.0,56.0
3933,72.0,120,100,0.0,76.0
3934,70.0,120,240,0.0,73.0
3935,62.0,0,240,0.0,55.0
3936,82.0,0,240,0.0,87.0
3937,74.0,0,240,0.0,73.0
3938,79.0,0,240,0.0,73.0
3939,67.0,0,240,0.0,66.0
3940,55.0,0,240,0.0,55.0
3941,86.0,0,100,0.0,73.0
3942,91.0,0,100,0.0,73.0
3943,94.0,0,100,0.0,87.0
3944,43.0,240,120,0.0,53.0
3945,81.0,120,100,0.0,76.0
3946,91.0,0,100,0.0,79.0
3947,86.0,120,100,0.0,67.0
3948,82.0,0,100,0.0,67.0
3949,67.0,0,240,0.0,66.0
3950,62.0,120,240,0.0,55.0
3951,58.0,0,240,0.0,55.0
3952,91.0,120,100,0.0,87.0
3953,82.0,0,100,0.0,73.0
3954,86.0,0,100,0.0,73.0
3955,46.0,0,120,0.0,53.0
3956,78.0,120,100,0.0,75.0
3957,86.0,0,100,0.0,79.0
3958,82.0,0,100,0.0,67.0
3959,79.0,120,100,0.0,67.0
3960,67.0,0,240,0.0,64.0
3961,58.0,120,240,0.0,53.0
3962,62.0,0,240,0.0,53.0
3963,86.0,0,100,0.0,87.0
3964,82.0,120,100,0.0,73.0
3965,79.0,0,100,0.0,73.0
3966,50.0,0,120,0.0,57.0
3967,73.0,120,100,0.0,78.0
3968,82.0,0,100,0.0,78.0
3969,79.0,0,100,0.0,66.0
3970,74.0,120,100,0.0,66.0
3971,58.0,0,240,0.0,53.0
3972,62.0,0,240,0.0,53.0
3973,67.0,120,240,0.0,64.0
3974,82.0,120,100,0.0,87.0
3975,79.0,0,100,0.0,73.0
3976,74.0,0,100,0.0,73.0
3977,55.0,0,120,0.0,54.0
3978,70.0,120,100,0.0,75.0
3979,84.0,0,100,0.0,78.0
3980,79.0,0,100,0.0,66.0
3981,75.0,120,100,0.0,66.0
3982,57.0,120,240,0.0,53.0
3983,67.0,0,240,0.0,64.0
3984,63.0,0,240,0.0,53.0
3985,60.0,0,240,0.0,53.0
3986,75.0,0,100,0.0,73.0
3987,79.0,0,100,0.0,73.0
3988,84.0,0,100,0.0,87.0
3989,45.0,120,120,0.0,55.0
3990,74.0,120,100,0.0,75.0
3991,73.0,0,100,0.0,75.0
3992,72.0,120,100,0.0,75.0
3993,63.0,0,240,0.0,53.0
3994,60.0,0,240,0.0,53.0
3995,67.0,120,240,0.0,64.0
3996,84.0,0,100,0.0,87.0
3997,75.0,0,100,0.0,73.0
3998,79.0,120,100,0.0,73.0
3999,57.0,0,120,0.0,55.0
4000,74.0,120,100,0.0,74.0
4001,73.0,0,100,0.0,76.0
4002,72.0,120,100,0.0,76.0
4003,60.0,120,240,0.0,53.0
4004,62.0,0,240,0.0,53.0
4005,66.0,0,240,0.0,64.0
4006,84.0,120,100,0.0,87.0
4007,75.0,0,100,0.0,73.0
4008,78.0,0,100,0.0,73.0
4009,50.0,0,120,0.0,56.0
4010,74.0,120,100,0.0,76.0
4011,73.0,0,100,0.0,76.0
4012,72.0,120,100,0.0,76.0
4013,66.0,120,240,0.0,63.0
4014,62.0,0,240,0.0,53.0
4015,60.0,0,240,0.0,53.0
4016,74.0,0,100,0.0,73.0
4017,81.0,120,100,0.0,87.0
4018,78.0,0,100,0.0,73.0
4019,57.0,0,120,0.0,56.0
4020,72.0,120,100,0.0,76.0
4021,74.0,0,240,0.0,73.0
4022,67.0,0,240,0.0,63.0
4023,55.0,0,240,0.0,53.0
4024,62.0,0,240,0.0,53.0
4025,79.0,120,240,0.0,73.0
4026,70.0,0,240,0.0,73.0
4027,82.0,0,240,0.0,87.0
4028,80.0,240,120,0.0,70.0
4029,92.0,120,120,0.0,72.0
4030,87.0,0,120,0.0,60.0
4031,80.0,120,0,0.0,75.0
4032,75.0,0,120,0.0,63.0
4033,67.0,120,240,0.0,77.0
4034,56.0,0,240,0.0,47.0
4035,63.0,0,240,0.0,56.0
4036,48.0,0,720,0.0,65.0
4037,75.0,120,120,0.0,65.0
4038,79.0,0,120,0.0,77.0
4039,50.0,120,120,0.0,63.0
4040,69.0,0,120,0.0,65.0
4041,78.0,120,120,0.0,77.0
4042,66.0,0,240,0.0,87.0
4043,78.0,120,120,0.0,77.0
4044,90.0,0,120,0.0,77.0
4045,62.0,0,240,0.0,57.0
4046,60.0,0,240,0.0,48.0
4047,57.0,0,240,0.0,48.0
4048,81.0,120,120,0.0,65.0
4049,43.0,120,120,0.0,63.0
4050,82.0,0,120,0.0,64.0
4051,91.0,120,120,0.0,75.0
4052,79.0,0,240,0.0,87.0
4053,79.0,0,120,0.0,75.0
4054,58.0,0,240,0.0,47.0
4055,70.0,120,120,0.0,64.0
4056,79.0,0,120,0.0,75.0
4057,62.0,0,240,0.0,55.0
4058,55.0,120,240,0.0,47.0
4059,75.0,120,120,0.0,60.0
4060,80.0,0,0,0.0,74.0
4061,68.0,120,240,0.0,77.0
4062,87.0,0,120,0.0,65.0
4063,92.0,120,120,0.0,76.0
4064,80.0,120,0,0.0,78.0
4065,63.0,0,480,0.0,53.0
4066,56.0,120,0,0.0,47.0
4067,75.0,0,120,0.0,65.0
4068,75.0,0,120,0.0,65.0
4069,67.0,0,240,0.0,77.0
4070,79.0,120,120,0.0,77.0
4071,48.0,0,960,0.0,65.0
4072,63.0,0,240,0.0,56.0
4073,50.0,0,120,0.0,63.0
4074,66.0,120,240,0.0,87.0
4075,78.0,0,0,0.0,77.0
4076,69.0,0,120,0.0,65.0
4077,81.0,0,120,0.0,65.0
4078,90.0,120,120,0.0,77.0
4079,62.0,0,240,0.0,57.0
4080,60.0,120,240,0.0,48.0
4081,57.0,0,240,0.0,48.0
4082,43.0,0,120,0.0,63.0
4083,82.0,120,120,0.0,64.0
4084,91.0,0,120,0.0,75.0
4085,79.0,120,240,0.0,87.0
4086,79.0,120,0,0.0,75.0
4087,70.0,0,120,0.0,64.0
4088,62.0,0,240,0.0,55.0
4089,58.0,0,240,0.0,47.0
4090,55.0,120,240,0.0,47.0
4091,47.0,0,120,0.0,65.0
4092,65.0,120,240,0.0,77.0
4093,68.0,120,120,0.0,59.0
4094,77.0,0,0,0.0,70.0
4095,62.0,0,240,0.0,51.0
4096,89.0,0,120,0.0,71.0
4097,80.0,120,120,0.0,59.0
4098,53.0,120,240,0.0,43.0
4099,56.0,0,240,0.0,43.0
4100,77.0,120,120,0.0,68.0
4101,75.0,120,120,0.0,77.0
4102,68.0,0,120,0.0,66.0
4103,75.0,120,120,0.0,69.0
4104,48.0,0,480,0.0,60.0
4105,56.0,0,240,0.0,42.0
4106,60.0,120,240,0.0,50.0
4107,63.0,0,240,0.0,69.0
4108,51.0,0,240,0.0,42.0
4109,68.0,0,120,0.0,57.0
4110,68.0,0,120,0.0,57.0
4111,74.0,120,120,0.0,69.0
4112,62.0,0,240,0.0,77.0
4113,74.0,120,120,0.0,69.0
4114,86.0,120,120,0.0,69.0
4115,56.0,0,240,0.0,43.0
4116,50.0,120,480,0.0,56.0
4117,53.0,0,240,0.0,43.0
4118,59.0,0,240,0.0,51.0
4119,80.0,0,120,0.0,57.0
4120,74.0,0,120,0.0,77.0
4121,72.0,120,120,0.0,67.0
4122,68.0,0,120,0.0,56.0
4123,60.0,120,120,0.0,67.0
4124,51.0,120,480,0.0,56.0
4125,72.0,120,120,0.0,67.0
4126,68.0,0,120,0.0,56.0
4127,56.0,0,240,0.0,49.0
4128,42.0,0,120,0.0,56.0
4129,72.0,0,120,0.0,69.0
4130,60.0,0,0,0.0,43.0
4131,63.0,0,0,0.0,51.0
4132,54.0,120,240,0.0,43.0
4133,75.0,0,120,0.0,57.0
4134,84.0,120,120,0.0,69.0
4135,72.0,120,0,0.0,77.0
4136,62.0,0,240,0.0,53.0
4137,58.0,0,240,0.0,43.0
4138,55.0,0,240,0.0,43.0
4139,84.0,0,120,0.0,67.0
4140,75.0,120,120,0.0,56.0
4141,43.0,120,120,0.0,56.0
4142,82.0,120,120,0.0,67.0
4143,74.0,0,120,0.0,56.0
4144,70.0,120,0,0.0,77.0
4145,48.0,0,120,0.0,56.0
4146,74.0,0,120,0.0,57.0
4147,82.0,120,120,0.0,69.0
4148,67.0,0,238,0.0,51.0
4149,63.0,0,240,0.0,43.0
4150,57.0,0,240,0.0,43.0
4151,69.0,120,240,0.0,69.0
4152,81.0,120,120,0.0,69.0
4153,72.0,0,120,0.0,57.0
4154,70.0,0,120,0.0,56.0
4155,79.0,120,120,0.0,67.0
4156,67.0,0,240,0.0,77.0
4157,69.0,120,120,0.0,56.0
4158,78.0,0,120,0.0,67.0
4159,66.0,120,240,0.0,67.0
4160,62.0,0,240,0.0,51.0
4161,50.0,120,480,0.0,56.0
4162,57.0,0,240,0.0,43.0
4163,60.0,0,240,0.0,43.0
4164,70.0,0,120,0.0,73.0
4165,55.0,0,120,0.0,53.0
4166,62.0,0,120,0.0,63.0
4167,79.0,0,120,0.0,87.0
4168,67.0,120,120,0.0,73.0
4169,58.0,6,120,0.0,53.0
4170,92.0,120,120,0.0,72.0
4171,87.0,0,120,0.0,60.0
4172,80.0,234,240,0.0,70.0
4173,80.0,120,120,0.0,72.0
4174,80.0,0,120,0.0,75.0
4175,75.0,120,120,0.0,63.0
4176,63.0,0,240,0.0,56.0
4177,75.0,0,120,0.0,65.0
4178,79.0,120,120,0.0,77.0
4179,67.0,0,240,0.0,77.0
4180,48.0,0,720,0.0,65.0
4181,56.0,120,240,0.0,47.0
4182,50.0,0,120,0.0,63.0
4183,78.0,0,120,0.0,77.0
4184,66.0,120,240,0.0,87.0
4185,69.0,120,120,0.0,65.0
4186,78.0,120,120,0.0,77.0
4187,57.0,0,240,0.0,48.0
4188,60.0,0,240,0.0,48.0
4189,62.0,0,240,0.0,57.0
4190,81.0,0,120,0.0,65.0
4191,90.0,120,120,0.0,77.0
4192,43.0,120,120,0.0,63.0
4193,82.0,120,120,0.0,64.0
4194,79.0,120,0,0.0,75.0
4195,91.0,0,120,0.0,75.0
4196,79.0,120,0,0.0,75.0
4197,70.0,0,120,0.0,64.0
4198,62.0,0,240,0.0,55.0
4199,58.0,0,240,0.0,47.0
4200,55.0,0,240,0.0,47.0
4201,80.0,120,120,0.0,72.0
4202,68.0,120,240,0.0,77.0
4203,75.0,0,120,0.0,60.0
4204,92.0,120,120,0.0,76.0
4205,87.0,0,120,0.0,65.0
4206,80.0,120,0,0.0,76.0
4207,50.0,0,240,0.0,72.0
4208,80.0,0,120,0.0,78.0
4209,75.0,120,120,0.0,65.0
4210,51.0,120,240,0.0,72.0
4211,67.0,0,240,0.0,77.0
4212,79.0,120,120,0.0,77.0
4213,72.0,0,120,0.0,65.0
4214,48.0,0,960,0.0,65.0
4215,63.0,120,720,0.0,53.0
4216,56.0,0,720,0.0,44.0
4217,50.0,0,120,0.0,63.0
4218,78.0,120,0,0.0,77.0
4219,66.0,120,240,0.0,87.0
4220,69.0,0,120,0.0,65.0
4221,81.0,0,120,0.0,65.0
4222,90.0,120,120,0.0,77.0
4223,62.0,0,240,0.0,57.0
4224,60.0,0,240,0.0,48.0
4225,57.0,0,240,0.0,48.0
4226,43.0,120,120,0.0,63.0
4227,82.0,0,120,0.0,64.0
4228,91.0,120,120,0.0,75.0
4229,79.0,0,240,0.0,87.0
4230,79.0,0,0,0.0,75.0
4231,58.0,0,240,0.0,47.0
4232,55.0,120,240,0.0,47.0
4233,70.0,120,120,0.0,64.0
4234,62.0,0,240,0.0,55.0
4235,35.0,120,120,0.0,54.0
4236,47.0,0,120,0.0,65.0
4237,65.0,0,240,0.0,77.0
4238,68.0,0,120,0.0,59.0
4239,77.0,120,0,0.0,70.0
4240,80.0,0,120,0.0,59.0
4241,89.0,120,120,0.0,71.0
4242,62.0,0,240,0.0,51.0
4243,56.0,0,240,0.0,43.0
4244,53.0,0,240,0.0,43.0
4245,36.0,120,120,0.0,51.0
4246,48.0,0,120,0.0,60.0
4247,77.0,0,120,0.0,68.0
4248,67.0,0,120,0.0,66.0
4249,75.0,120,120,0.0,77.0
4250,63.0,0,240,0.0,69.0
4251,51.0,120,240,0.0,42.0
4252,60.0,0,240,0.0,50.0
4253,55.0,0,240,0.0,42.0
4254,67.0,120,120,0.0,57.0
4255,75.0,0,120,0.0,69.0
4256,38.0,0,120,0.0,54.0
4257,50.0,0,120,0.0,65.0
4258,62.0,120,240,0.0,77.0
4259,66.0,0,120,0.0,59.0
4260,74.0,0,0,0.0,70.0
4261,86.0,120,120,0.0,71.0
4262,78.0,0,120,0.0,59.0
4263,54.0,0,240,0.0,43.0
4264,57.0,120,240,0.0,51.0
4265,40.0,0,120,0.0,51.0
4266,52.0,0,120,0.0,60.0
4267,74.0,120,120,0.0,68.0
4268,64.0,120,120,0.0,66.0
4269,73.0,0,120,0.0,77.0
4270,64.0,120,120,0.0,57.0
4271,73.0,0,120,0.0,69.0
4272,58.0,0,240,0.0,50.0
4273,55.0,0,240,0.0,42.0
4274,61.0,120,240,0.0,69.0
4275,54.0,0,120,0.0,65.0
4276,42.0,0,120,0.0,54.0
4277,60.0,120,240,0.0,77.0
4278,63.0,0,120,0.0,59.0
4279,72.0,120,120,0.0,71.0
4280,72.0,120,240,0.0,70.0
4281,54.0,0,240,0.0,43.0
4282,60.0,0,240,0.0,43.0
4283,63.0,0,240,0.0,51.0
4284,75.0,120,120,0.0,59.0
4285,84.0,0,120,0.0,71.0
4286,71.0,0,240,0.0,68.0
4287,63.0,0,240,0.0,51.0
4288,60.0,0,240,0.0,43.0
4289,55.0,120,240,0.0,43.0
4290,75.0,0,120,0.0,64.0
4291,83.0,120,120,0.0,73.0
4292,43.0,0,120,0.0,48.0
4293,55.0,0,120,0.0,58.0
4294,72.0,0,0,0.0,79.0
4295,84.0,120,120,0.0,70.0
4296,75.0,0,120,0.0,58.0
4297,56.0,120,120,0.0,66.0
4298,44.0,0,120,0.0,55.0
4299,75.0,0,120,0.0,61.0
4300,84.0,120,120,0.0,73.0
4301,75.0,0,240,0.0,72.0
4302,78.0,120,120,0.0,61.0
4303,87.0,0,120,0.0,74.0
4304,56.0,0,240,0.0,44.0
4305,63.0,0,0,0.0,45.0
4306,67.0,0,0,0.0,53.0
4307,57.0,0,240,0.0,45.0
4308,74.0,120,240,0.0,71.0
4309,78.0,120,120,0.0,69.0
4310,86.0,0,120,0.0,81.0
4311,45.0,0,120,0.0,50.0
4312,57.0,0,120,0.0,60.0
4313,78.0,0,120,0.0,60.0
4314,87.0,120,120,0.0,73.0
4315,75.0,120,240,0.0,72.0
4316,46.0,120,120,0.0,57.0
4317,58.0,0,120,0.0,69.0
4318,78.0,120,120,0.0,63.0
4319,75.0,0,240,0.0,82.0
4320,87.0,0,120,0.0,75.0
4321,90.0,0,120,0.0,76.0
4322,82.0,120,120,0.0,64.0
4323,78.0,0,240,0.0,75.0
4324,58.0,0,240,0.0,46.0
4325,63.0,0,0,0.0,46.0
4326,66.0,120,240,0.0,54.0
4327,77.0,0,240,0.0,73.0
4328,80.0,0,120,0.0,71.0
4329,89.0,120,120,0.0,84.0
4330,59.0,0,240,0.0,46.0
4331,69.0,120,240,0.0,55.0
4332,59.0,0,120,0.0,63.0
4333,47.0,120,120,0.0,52.0
4334,90.0,120,120,0.0,75.0
4335,81.0,0,120,0.0,63.0
4336,78.0,120,0,0.0,86.0
4337,60.0,0,120,0.0,71.0
4338,48.0,0,120,0.0,59.0
4339,81.0,0,0,0.0,78.0
4340,90.0,120,120,0.0,78.0
4341,93.0,0,120,0.0,79.0
4342,84.0,120,120,0.0,66.0
4343,94.0,0,120,0.0,87.0
4344,60.0,120,480,0.0,47.0
4345,69.0,0,480,0.0,56.0
4346,66.0,0,0,0.0,48.0
4347,62.0,0,0,0.0,57.0
4348,86.0,120,120,0.0,74.0
4349,82.0,120,240,0.0,76.0
4350,96.0,0,120,0.0,78.0
4351,60.0,0,240,0.0,57.0
4352,69.0,0,240,0.0,57.0
4353,84.0,0,0,0.0,89.0
4354,87.0,120,120,0.0,65.0
4355,46.0,0,120,0.0,61.0
4356,58.0,120,120,0.0,74.0
4357,87.0,120,120,0.0,68.0
4358,96.0,0,120,0.0,81.0
4359,94.0,120,120,0.0,81.0
4360,86.0,0,120,0.0,68.0
4361,82.0,120,240,0.0,80.0
4362,67.0,0,240,0.0,58.0
4363,55.0,0,240,0.0,49.0
4364,62.0,0,240,0.0,49.0
4365,48.0,0,120,0.0,54.0
4366,60.0,0,120,0.0,66.0
4367,82.0,120,240,0.0,77.0
4368,86.0,0,120,0.0,75.0
4369,94.0,120,120,0.0,89.0
4370,57.0,0,240,0.0,54.0
4371,63.0,0,240,0.0,54.0
4372,67.0,0,240,0.0,66.0
4373,84.0,0,120,0.0,66.0
4374,93.0,120,120,0.0,78.0
4375,81.0,120,240,0.0,78.0
4376,50.0,0,120,0.0,61.0
4377,62.0,120,120,0.0,74.0
4378,93.0,120,120,0.0,81.0
4379,84.0,0,120,0.0,68.0
4380,81.0,0,240,0.0,89.0
4381,79.0,120,0,0.0,77.0
4382,82.0,120,120,0.0,68.0
4383,70.0,0,240,0.0,58.0
4384,67.0,0,240,0.0,49.0
4385,62.0,0,240,0.0,49.0
4386,91.0,0,120,0.0,81.0
4387,60.0,0,120,0.0,66.0
4388,48.0,0,120,0.0,54.0
4389,82.0,120,120,0.0,75.0
4390,91.0,0,120,0.0,89.0
4391,62.0,0,240,0.0,54.0
4392,69.0,0,240,0.0,66.0
4393,66.0,0,240,0.0,54.0
4394,60.0,120,240,0.0,54.0
4395,74.0,0,240,0.0,78.0
4396,86.0,120,120,0.0,78.0
4397,78.0,0,120,0.0,66.0
4398,58.0,120,120,0.0,61.0
4399,46.0,0,120,0.0,52.0
4400,82.0,120,120,0.0,77.0
4401,86.0,0,120,0.0,71.0
4402,94.0,0,120,0.0,84.0
4403,55.0,0,240,0.0,46.0
4404,62.0,120,240,0.0,46.0
4405,67.0,0,240,0.0,54.0
4406,82.0,120,120,0.0,80.0
4407,85.0,0,120,0.0,70.0
4408,60.0,0,120,0.0,58.0
4409,48.0,120,120,0.0,48.0
4410,94.0,0,120,0.0,82.0
4411,82.0,120,120,0.0,79.0
4412,84.0,0,120,0.0,72.0
4413,93.0,0,120,0.0,85.0
4414,57.0,0,240,0.0,48.0
4415,81.0,120,120,0.0,81.0
4416,67.0,0,240,0.0,57.0
4417,63.0,120,240,0.0,48.0
4418,50.0,120,120,0.0,56.0
4419,62.0,0,120,0.0,68.0
4420,93.0,0,120,0.0,88.0
4421,84.0,0,120,0.0,74.0
4422,81.0,120,120,0.0,79.0
4423,91.0,0,120,0.0,87.0
4424,82.0,0,120,0.0,74.0
4425,67.0,0,240,0.0,49.0
4426,62.0,0,240,0.0,49.0
4427,79.0,120,120,0.0,80.0
4428,70.0,120,240,0.0,58.0
4429,82.0,0,120,0.0,75.0
4430,91.0,120,120,0.0,89.0
4431,48.0,0,120,0.0,51.0
4432,60.0,0,120,0.0,60.0
4433,79.0,120,120,0.0,79.0
4434,86.0,120,120,0.0,89.0
4435,78.0,0,120,0.0,75.0
4436,69.0,0,240,0.0,49.0
4437,62.0,0,240,0.0,49.0
4438,60.0,0,240,0.0,49.0
4439,66.0,0,240,0.0,49.0
4440,74.0,120,120,0.0,81.0
4441,58.0,0,120,0.0,87.0
4442,46.0,120,120,0.0,73.0
4443,86.0,120,120,0.0,87.0
4444,91.0,0,120,0.0,80.0
4445,94.0,0,120,0.0,80.0
4446,98.0,120,120,0.0,95.0
4447,86.0,120,120,0.0,86.0
4448,86.0,0,120,0.0,86.0
4449,82.0,0,120,0.0,73.0
4450,79.0,120,120,0.0,73.0
4451,74.0,120,120,0.0,78.0
4452,79.0,0,120,0.0,74.0
4453,82.0,120,120,0.0,74.0
4454,86.0,0,120,0.0,88.0
4455,74.0,0,0,0.0,81.0
4456,67.0,120,120,0.0,69.0
4457,70.0,0,120,0.0,69.0
4458,62.0,120,120,0.0,77.0
4459,74.0,120,120,0.0,82.0
4460,70.0,0,120,0.0,70.0
4461,67.0,0,120,0.0,70.0
4462,62.0,120,120,0.0,76.0
4463,55.0,120,120,0.0,70.0
4464,62.0,0,120,0.0,82.0
4465,58.0,0,120,0.0,70.0
4466,50.0,120,120,0.0,74.0
4467,58.0,0,120,0.0,70.0
4468,62.0,0,120,0.0,82.0
4469,55.0,120,120,0.0,70.0
4470,50.0,120,120,0.0,64.0
4471,42.0,0,120,0.0,93.0
4472,30.0,120,120,0.0,78.0
4473,43.0,120,120,0.0,81.0
4474,31.0,0,120,0.0,69.0
4475,55.0,0,120,0.0,75.0
4476,58.0,0,120,0.0,75.0
4477,64.0,120,120,0.0,90.0
4478,50.0,120,120,0.0,77.0
4479,37.0,0,120,0.0,78.0
4480,49.0,120,120,0.0,93.0
4481,50.0,0,120,0.0,85.0
4482,38.0,120,120,0.0,72.0
4483,55.0,120,120,0.0,75.0
4484,58.0,0,120,0.0,75.0
4485,64.0,0,120,0.0,90.0
4486,50.0,120,120,0.0,81.0
4487,30.0,120,120,0.0,78.0
4488,42.0,0,120,0.0,93.0
4489,43.0,120,120,0.0,81.0
4490,31.0,0,120,0.0,69.0
4491,64.0,0,120,0.0,90.0
4492,55.0,120,120,0.0,75.0
4493,58.0,0,120,0.0,75.0
4494,50.0,120,120,0.0,77.0
4495,49.0,120,120,0.0,93.0
4496,37.0,0,120,0.0,78.0
4497,38.0,0,120,0.0,72.0
4498,50.0,120,120,0.0,85.0
4499,64.0,0,120,0.0,90.0
4500,55.0,0,120,0.0,75.0
4501,58.0,120,120,0.0,75.0
4502,50.0,120,120,0.0,81.0
4503,26.0,120,480,0.0,81.0
4504,38.0,0,480,0.0,97.0
4505,55.0,480,80,0.0,54.0
4506,56.0,80,80,0.0,54.0
4507,57.0,80,80,0.0,55.0
4508,58.0,80,80,0.0,55.0
4509,59.0,80,80,0.0,56.0
4510,60.0,80,80,0.0,56.0
4511,61.0,80,80,0.0,56.0
4512,62.0,80,80,0.0,57.0
4513,63.0,80,80,0.0,57.0
4514,64.0,80,80,0.0,58.0
4515,65.0,80,80,0.0,58.0
4516,66.0,80,80,0.0,58.0
4517,67.0,0,80,0.0,59.0
4518,68.0,80,80,0.0,59.0
4519,69.0,80,80,0.0,60.0
4520,70.0,80,80,0.0,60.0
4521,58.0,40,0,0.0,62.0
4522,64.0,0,0,0.0,62.0
4523,55.0,0,360,0.0,69.0
4524,61.0,0,0,0.0,62.0
4525,71.0,80,80,0.0,60.0
4526,58.0,80,0,0.0,69.0
4527,61.0,0,0,0.0,69.0
4528,55.0,0,120,0.0,62.0
4529,72.0,40,80,0.0,61.0
4530,73.0,0,80,0.0,61.0
4531,74.0,80,80,0.0,63.0
4532,75.0,80,80,0.0,63.0
4533,76.0,80,80,0.0,64.0
4534,77.0,80,80,0.0,64.0
4535,66.0,0,480,0.0,69.0
4536,58.0,0,0,0.0,69.0
4537,55.0,0,0,0.0,69.0
4538,61.0,80,0,0.0,69.0
4539,78.0,80,80,0.0,64.0
4540,79.0,0,80,0.0,65.0
4541,80.0,80,80,0.0,65.0
4542,81.0,80,80,0.0,66.0
4543,82.0,80,80,0.0,66.0
4544,64.0,0,360,0.0,69.0
4545,58.0,0,0,0.0,62.0
4546,55.0,0,0,0.0,62.0
4547,61.0,40,0,0.0,62.0
4548,83.0,80,80,0.0,66.0
4549,64.0,0,120,0.0,62.0
4550,84.0,40,80,0.0,67.0
4551,85.0,0,80,0.0,67.0
4552,86.0,80,80,0.0,68.0
4553,87.0,80,80,0.0,68.0
4554,88.0,80,80,0.0,68.0
4555,89.0,80,80,0.0,69.0
4556,90.0,80,80,0.0,69.0
4557,55.0,0,0,0.0,69.0
4558,66.0,80,480,0.0,69.0
4559,58.0,0,0,0.0,69.0
4560,61.0,0,0,0.0,69.0
4561,91.0,0,80,0.0,70.0
4562,92.0,80,80,0.0,70.0
4563,93.0,80,80,0.0,70.0
4564,64.0,80,300,0.0,69.0
4565,94.0,80,80,0.0,71.0
4566,95.0,20,80,0.0,71.0
4567,97.0,40,80,0.0,72.0
4568,99.0,0,120,0.0,88.0
4569,98.0,120,120,0.0,80.0
4570,101.0,120,120,0.0,80.0
4571,99.0,120,120,0.0,81.0
4572,98.0,120,120,0.0,79.0
4573,96.0,120,120,0.0,79.0
4574,95.0,120,120,0.0,79.0
4575,98.0,120,120,0.0,79.0
4576,96.0,120,120,0.0,79.0
4577,94.0,120,120,0.0,79.0
4578,93.0,120,120,0.0,79.0
4579,91.0,120,120,0.0,79.0
4580,90.0,120,120,0.0,79.0
4581,93.0,120,120,0.0,79.0
4582,91.0,120,120,0.0,79.0
4583,90.0,120,120,0.0,84.0
4584,87.0,120,120,0.0,80.0
4585,86.0,120,120,0.0,80.0
4586,87.0,120,120,0.0,80.0
4587,86.0,120,120,0.0,79.0
4588,89.0,120,120,0.0,79.0
4589,87.0,120,120,0.0,79.0
4590,86.0,120,120,0.0,78.0
4591,84.0,120,120,0.0,77.0
4592,83.0,120,120,0.0,77.0
4593,86.0,120,120,0.0,76.0
4594,84.0,120,120,0.0,76.0
4595,82.0,120,120,0.0,75.0
4596,81.0,120,120,0.0,75.0
4597,67.0,60,3480,0.0,78.0
4598,79.0,120,120,0.0,75.0
4599,78.0,120,120,0.0,75.0
4600,81.0,120,120,0.0,75.0
4601,79.0,120,120,0.0,75.0
4602,78.0,120,120,0.0,75.0
4603,75.0,120,120,0.0,75.0
4604,74.0,120,120,0.0,75.0
4605,75.0,120,120,0.0,74.0
4606,74.0,120,120,0.0,74.0
4607,77.0,120,120,0.0,74.0
4608,75.0,120,120,0.0,74.0
4609,74.0,120,120,0.0,74.0
4610,72.0,120,120,0.0,74.0
4611,71.0,120,120,0.0,74.0
4612,74.0,120,120,0.0,73.0
4613,72.0,120,120,0.0,73.0
4614,70.0,120,120,0.0,73.0
4615,69.0,120,120,0.0,73.0
4616,66.0,0,2278,0.0,80.0
4617,57.0,40,5880,0.0,68.0
4618,60.0,20,5820,0.0,70.0
4619,50.0,60,5940,0.0,67.0
4620,67.0,120,120,0.0,73.0
4621,66.0,120,120,0.0,73.0
4622,63.0,120,120,0.0,74.0
4623,62.0,120,120,0.0,75.0
4624,60.0,120,120,0.0,76.0
4625,58.0,120,120,0.0,77.0
4626,57.0,120,120,0.0,78.0
4627,55.0,120,120,0.0,79.0
4628,54.0,120,120,0.0,79.0
4629,51.0,120,120,0.0,81.0
4630,50.0,120,120,0.0,82.0
4631,48.0,120,120,0.0,84.0
4632,46.0,120,120,0.0,85.0
4633,45.0,120,120,0.0,86.0
4634,43.0,120,120,0.0,87.0
4635,42.0,120,120,0.0,88.0
4636,39.0,120,120,0.0,89.0
4637,38.0,120,120,0.0,90.0
4638,36.0,120,120,0.0,91.0
4639,34.0,120,120,0.0,92.0
4640,33.0,120,120,0.0,93.0
4641,31.0,120,1080,0.0,98.0
4642,33.0,0,120,0.0,65.0
4643,45.0,1080,120,0.0,75.0
4644,46.0,0,120,0.0,75.0
4645,34.0,120,120,0.0,65.0
4646,36.0,120,120,0.0,66.0
4647,48.0,0,120,0.0,76.0
4648,50.0,120,120,0.0,77.0
4649,38.0,0,120,0.0,67.0
4650,52.0,0,120,0.0,77.0
4651,40.0,120,120,0.0,67.0
4652,42.0,0,120,0.0,68.0
4653,54.0,120,120,0.0,78.0
4654,43.0,120,120,0.0,68.0
4655,55.0,0,120,0.0,78.0
4656,57.0,120,120,0.0,79.0
4657,45.0,0,120,0.0,69.0
4658,58.0,0,120,0.0,80.0
4659,46.0,120,120,0.0,69.0
4660,48.0,0,120,0.0,70.0
4661,60.0,120,120,0.0,80.0
4662,62.0,120,120,0.0,81.0
4663,50.0,0,120,0.0,70.0
4664,64.0,0,120,0.0,81.0
4665,52.0,120,120,0.0,71.0
4666,66.0,120,120,0.0,82.0
4667,54.0,0,120,0.0,72.0
4668,67.0,120,120,0.0,83.0
4669,55.0,0,120,0.0,72.0
4670,57.0,120,120,0.0,73.0
4671,69.0,0,120,0.0,83.0
4672,70.0,120,120,0.0,84.0
4673,58.0,0,120,0.0,73.0
4674,60.0,120,120,0.0,74.0
4675,72.0,0,120,0.0,84.0
4676,74.0,0,120,0.0,85.0
4677,62.0,120,120,0.0,74.0
4678,64.0,0,120,0.0,75.0
4679,76.0,120,120,0.0,86.0
4680,78.0,0,120,0.0,86.0
4681,66.0,120,120,0.0,76.0
4682,67.0,0,120,0.0,83.0
4683,79.0,120,120,0.0,89.0
4684,43.0,0,360,0.0,31.0
4685,55.0,0,0,0.0,37.0
4686,31.0,0,0,0.0,31.0
4687,50.0,0,0,0.0,37.0
4688,58.0,360,0,0.0,45.0
4689,43.0,0,120,0.0,31.0
4690,58.0,0,480,0.0,45.0
4691,50.0,0,480,0.0,37.0
4692,31.0,120,480,0.0,31.0
4693,43.0,0,480,0.0,31.0
4694,55.0,0,480,0.0,37.0
4695,50.0,560,80,0.0,84.0
4696,38.0,0,80,0.0,75.0
4697,55.0,80,80,0.0,80.0
4698,43.0,0,80,0.0,71.0
4699,45.0,80,80,0.0,77.0
4700,57.0,0,80,0.0,85.0
4701,60.0,80,80,0.0,89.0
4702,48.0,0,80,0.0,79.0
4703,58.0,0,80,0.0,83.0
4704,46.0,80,0,0.0,82.0
4705,58.0,0,120,0.0,92.0
4706,31.0,0,600,0.0,79.0
4707,46.0,480,600,0.0,85.0
4708,33.0,0,120,0.0,52.0
4709,48.0,600,120,0.0,71.0
4710,50.0,120,120,0.0,71.0
4711,34.0,0,120,0.0,52.0
4712,52.0,120,120,0.0,71.0
4713,36.0,0,120,0.0,53.0
4714,54.0,120,120,0.0,72.0
4715,38.0,0,120,0.0,53.0
4716,40.0,120,120,0.0,54.0
4717,55.0,0,120,0.0,72.0
4718,42.0,0,120,0.0,54.0
4719,57.0,120,120,0.0,72.0
4720,43.0,0,120,0.0,55.0
4721,58.0,120,120,0.0,73.0
4722,45.0,0,120,0.0,55.0
4723,60.0,120,120,0.0,73.0
4724,46.0,120,120,0.0,56.0
4725,62.0,0,120,0.0,73.0
4726,48.0,0,120,0.0,56.0
4727,64.0,120,120,0.0,74.0
4728,66.0,120,120,0.0,74.0
4729,50.0,0,120,0.0,57.0
4730,67.0,120,120,0.0,74.0
4731,52.0,0,120,0.0,57.0
4732,69.0,120,120,0.0,75.0
4733,54.0,0,120,0.0,58.0
4734,70.0,120,120,0.0,75.0
4735,55.0,0,120,0.0,58.0
4736,57.0,0,120,0.0,59.0
4737,72.0,120,120,0.0,75.0
4738,58.0,0,120,0.0,60.0
4739,74.0,120,120,0.0,76.0
4740,60.0,0,120,0.0,60.0
4741,76.0,120,120,0.0,76.0
4742,62.0,0,120,0.0,61.0
4743,77.0,120,120,0.0,76.0
4744,64.0,120,120,0.0,61.0
4745,79.0,0,120,0.0,77.0
4746,66.0,120,120,0.0,62.0
4747,81.0,0,120,0.0,77.0
4748,67.0,0,120,0.0,62.0
4749,82.0,120,120,0.0,77.0
4750,69.0,120,120,0.0,63.0
4751,84.0,0,120,0.0,78.0
4752,86.0,0,120,0.0,78.0
4753,70.0,120,120,0.0,63.0
4754,72.0,0,120,0.0,64.0
4755,88.0,120,120,0.0,78.0
4756,90.0,0,120,0.0,79.0
4757,74.0,120,120,0.0,64.0
4758,76.0,120,120,0.0,65.0
4759,91.0,0,120,0.0,79.0
4760,93.0,120,120,0.0,79.0
4761,78.0,0,120,0.0,65.0
4762,94.0,120,120,0.0,87.0
4763,79.0,0,120,0.0,70.0
4764,43.0,0,360,0.0,31.0
4765,31.0,0,360,0.0,31.0
4766,62.0,0,360,0.0,45.0
4767,50.0,0,360,0.0,37.0
4768,55.0,360,0,0.0,37.0
4769,58.0,0,0,0.0,37.0
4770,62.0,0,120,0.0,45.0
4771,50.0,0,120,0.0,37.0
4772,31.0,0,0,0.0,31.0
4773,43.0,0,0,0.0,31.0
4774,62.0,0,480,0.0,45.0
4775,58.0,0,480,0.0,37.0
4776,55.0,0,480,0.0,37.0
4777,50.0,120,480,0.0,37.0
4778,62.0,0,80,0.0,94.0
4779,50.0,560,80,0.0,86.0
4780,55.0,80,80,0.0,86.0
4781,67.0,0,80,0.0,94.0
4782,58.0,80,80,0.0,89.0
4783,70.0,0,80,0.0,99.0
4784,75.0,0,80,0.0,100.0
4785,63.0,80,80,0.0,90.0
4786,62.0,80,80,0.0,86.0
4787,74.0,80,0,0.0,94.0
4788,62.0,0,120,0.0,86.0
4789,46.0,30,100,0.0,77.0
4790,100.0,0,130,0.0,104.0
4791,88.0,0,100,0.0,109.0
4792,34.0,450,161,0.0,74.0
4793,87.0,30,100,0.0,108.0
4794,99.0,0,130,0.0,106.0
4795,35.0,130,130,0.0,76.0
4796,47.0,0,100,0.0,76.0
4797,98.0,0,130,0.0,104.0
4798,86.0,30,100,0.0,107.0
4799,48.0,0,100,0.0,75.0
4800,36.0,130,130,0.0,75.0
4801,37.0,0,130,0.0,74.0
4802,49.0,0,100,0.0,74.0
4803,85.0,30,100,0.0,106.0
4804,97.0,130,130,0.0,100.0
4805,96.0,0,130,0.0,102.0
4806,84.0,0,100,0.0,103.0
4807,38.0,130,130,0.0,73.0
4808,50.0,30,100,0.0,73.0
4809,95.0,0,130,0.0,103.0
4810,51.0,0,100,0.0,72.0
4811,39.0,130,130,0.0,75.0
4812,83.0,30,100,0.0,102.0
4813,40.0,0,130,0.0,74.0
4814,82.0,30,100,0.0,101.0
4815,94.0,130,130,0.0,102.0
4816,52.0,0,100,0.0,73.0
4817,81.0,0,100,0.0,100.0
4818,41.0,130,130,0.0,72.0
4819,53.0,30,100,0.0,72.0
4820,93.0,0,130,0.0,101.0
4821,42.0,130,130,0.0,72.0
4822,80.0,0,100,0.0,99.0
4823,92.0,0,130,0.0,99.0
4824,54.0,30,100,0.0,72.0
4825,55.0,0,120,0.0,72.0
4826,43.0,0,120,0.0,66.0
4827,79.0,0,120,0.0,88.0
4828,91.0,160,120,0.0,98.0
4829,90.0,0,120,0.0,97.0
4830,78.0,160,120,0.0,87.0
4831,42.0,0,120,0.0,66.0
4832,54.0,0,120,0.0,72.0
4833,89.0,0,120,0.0,97.0
4834,77.0,0,120,0.0,87.0
4835,53.0,160,120,0.0,71.0
4836,41.0,0,120,0.0,65.0
4837,52.0,160,120,0.0,70.0
4838,88.0,0,120,0.0,96.0
4839,76.0,0,120,0.0,86.0
4840,40.0,0,120,0.0,64.0
4841,75.0,0,120,0.0,85.0
4842,39.0,0,120,0.0,63.0
4843,87.0,0,120,0.0,95.0
4844,51.0,160,120,0.0,69.0
4845,86.0,0,120,0.0,94.0
4846,74.0,160,120,0.0,84.0
4847,38.0,0,120,0.0,61.0
4848,50.0,0,120,0.0,67.0
4849,49.0,0,120,0.0,66.0
4850,37.0,0,120,0.0,60.0
4851,73.0,0,120,0.0,83.0
4852,85.0,160,120,0.0,93.0
4853,72.0,0,120,0.0,81.0
4854,84.0,160,120,0.0,91.0
4855,36.0,0,120,0.0,60.0
4856,48.0,0,120,0.0,66.0
4857,83.0,0,120,0.0,95.0
4858,71.0,160,120,0.0,85.0
4859,35.0,0,120,0.0,60.0
4860,47.0,0,120,0.0,66.0
4861,82.0,0,120,0.0,99.0
4862,34.0,160,120,0.0,67.0
4863,70.0,0,120,0.0,89.0
4864,46.0,0,120,0.0,73.0
4865,45.0,0,120,0.0,79.0
4866,33.0,0,120,0.0,72.0
4867,81.0,160,120,0.0,103.0
4868,69.0,0,120,0.0,92.0
4869,80.0,0,120,0.0,108.0
4870,32.0,0,120,0.0,77.0
4871,44.0,0,120,0.0,84.0
4872,68.0,160,120,0.0,97.0
4873,43.0,0,480,0.0,83.0
4874,31.0,0,480,0.0,71.0
4875,67.0,0,480,0.0,96.0
4876,79.0,160,480,0.0,113.0
4877,67.0,0,960,0.0,95.0
4878,86.0,960,960,0.0,92.0
4879,94.0,0,960,0.0,108.0
4880,62.0,0,960,0.0,80.0
4881,55.0,0,960,0.0,80.0
4882,91.0,0,960,0.0,108.0
4883,82.0,0,960,0.0,92.0
4884,55.0,0,960,0.0,117.0
4885,31.0,0,960,0.0,80.0
4886,43.0,960,960,0.0,95.0
