,note,step,duration,channel,velocity
0,72.0,0,34,0.0,48.0
1,60.0,2,33,0.0,29.0
2,60.0,3,52,0.0,38.0
3,72.0,97,57,0.0,62.0
4,60.0,1,25,0.0,36.0
5,72.0,152,32,0.0,62.0
6,60.0,6,30,0.0,50.0
7,72.0,86,40,0.0,64.0
8,60.0,152,23,0.0,41.0
9,72.0,0,30,0.0,67.0
10,60.0,0,31,0.0,38.0
11,72.0,91,40,0.0,66.0
12,60.0,0,25,0.0,35.0
13,72.0,186,34,0.0,56.0
14,60.0,0,69,0.0,24.0
15,53.0,0,70,0.0,24.0
16,69.0,126,70,0.0,44.0
17,72.0,0,72,0.0,60.0
18,53.0,0,21,0.0,36.0
19,69.0,168,30,0.0,43.0
20,60.0,0,32,0.0,28.0
21,72.0,0,40,0.0,67.0
22,53.0,0,77,0.0,44.0
23,60.0,0,86,0.0,39.0
24,70.0,0,105,0.0,54.0
25,72.0,104,110,0.0,68.0
26,53.0,168,23,0.0,40.0
27,60.0,0,27,0.0,44.0
28,70.0,0,30,0.0,50.0
29,72.0,0,50,0.0,73.0
30,53.0,0,71,0.0,36.0
31,60.0,0,76,0.0,33.0
32,76.0,99,100,0.0,72.0
33,70.0,0,100,0.0,43.0
34,74.0,134,24,0.0,68.0
35,53.0,0,32,0.0,39.0
36,60.0,0,34,0.0,33.0
37,70.0,32,39,0.0,54.0
38,72.0,0,45,0.0,69.0
39,77.0,0,61,0.0,70.0
40,53.0,0,62,0.0,44.0
41,69.0,0,63,0.0,52.0
42,60.0,102,75,0.0,43.0
43,74.0,170,41,0.0,72.0
44,65.0,0,46,0.0,45.0
45,58.0,0,50,0.0,39.0
46,57.0,0,70,0.0,28.0
47,72.0,105,83,0.0,68.0
48,65.0,0,88,0.0,45.0
49,57.0,0,43,0.0,42.0
50,48.0,0,54,0.0,40.0
51,64.0,177,64,0.0,57.0
52,69.0,0,66,0.0,68.0
53,57.0,109,74,0.0,41.0
54,50.0,0,76,0.0,43.0
55,60.0,0,86,0.0,44.0
56,65.0,0,95,0.0,62.0
57,50.0,0,43,0.0,43.0
58,65.0,0,50,0.0,50.0
59,43.0,0,57,0.0,48.0
60,58.0,0,65,0.0,42.0
61,67.0,179,108,0.0,60.0
62,48.0,0,89,0.0,44.0
63,58.0,0,109,0.0,43.0
64,64.0,116,111,0.0,55.0
65,67.0,0,229,0.0,63.0
66,48.0,0,48,0.0,39.0
67,58.0,0,50,0.0,42.0
68,62.0,186,65,0.0,41.0
69,41.0,0,67,0.0,45.0
70,53.0,109,85,0.0,28.0
71,69.0,0,99,0.0,63.0
72,60.0,0,110,0.0,44.0
73,53.0,0,31,0.0,34.0
74,46.0,0,38,0.0,36.0
75,62.0,181,49,0.0,53.0
76,70.0,0,58,0.0,65.0
77,48.0,101,64,0.0,38.0
78,53.0,0,84,0.0,42.0
79,60.0,0,133,0.0,52.0
80,69.0,0,142,0.0,63.0
81,53.0,0,38,0.0,31.0
82,62.0,0,39,0.0,40.0
83,46.0,0,44,0.0,33.0
84,65.0,169,69,0.0,58.0
85,60.0,0,75,0.0,46.0
86,53.0,105,76,0.0,31.0
87,48.0,0,83,0.0,44.0
88,69.0,0,89,0.0,69.0
89,58.0,158,27,0.0,40.0
90,53.0,0,32,0.0,35.0
91,50.0,0,37,0.0,38.0
92,70.0,0,63,0.0,68.0
93,53.0,107,81,0.0,31.0
94,69.0,0,91,0.0,70.0
95,48.0,0,96,0.0,47.0
96,60.0,0,106,0.0,41.0
97,67.0,131,25,0.0,60.0
98,46.0,38,37,0.0,35.0
99,62.0,0,37,0.0,52.0
100,53.0,10,30,0.0,33.0
101,65.0,0,57,0.0,60.0
102,60.0,0,82,0.0,43.0
103,53.0,0,84,0.0,34.0
104,48.0,0,86,0.0,34.0
105,69.0,95,96,0.0,63.0
106,53.0,0,31,0.0,37.0
107,50.0,0,38,0.0,44.0
108,58.0,0,39,0.0,47.0
109,70.0,161,53,0.0,65.0
110,48.0,0,59,0.0,53.0
111,53.0,106,74,0.0,43.0
112,69.0,0,98,0.0,67.0
113,60.0,0,110,0.0,55.0
114,67.0,135,25,0.0,63.0
115,48.0,0,37,0.0,47.0
116,57.0,0,40,0.0,36.0
117,65.0,38,57,0.0,66.0
118,60.0,0,71,0.0,49.0
119,48.0,0,84,0.0,46.0
120,58.0,0,98,0.0,49.0
121,62.0,112,115,0.0,56.0
122,48.0,0,33,0.0,51.0
123,58.0,0,42,0.0,26.0
124,60.0,0,55,0.0,27.0
125,64.0,172,56,0.0,43.0
126,67.0,0,247,0.0,68.0
127,57.0,0,75,0.0,43.0
128,53.0,0,83,0.0,39.0
129,60.0,113,95,0.0,43.0
130,53.0,174,24,0.0,42.0
131,57.0,13,17,0.0,34.0
132,60.0,0,30,0.0,37.0
133,65.0,0,217,0.0,54.0
134,53.0,0,65,0.0,33.0
135,60.0,0,69,0.0,25.0
136,65.0,0,74,0.0,44.0
137,69.0,0,77,0.0,53.0
138,53.0,0,25,0.0,24.0
139,60.0,0,31,0.0,30.0
140,65.0,0,37,0.0,39.0
141,69.0,158,42,0.0,42.0
142,65.0,101,71,0.0,29.0
143,53.0,0,84,0.0,35.0
144,69.0,0,94,0.0,38.0
145,60.0,0,94,0.0,34.0
146,72.0,113,354,0.0,74.0
147,69.0,0,20,0.0,54.0
148,65.0,0,20,0.0,48.0
149,60.0,0,29,0.0,32.0
150,53.0,166,34,0.0,41.0
151,72.0,0,42,0.0,74.0
152,53.0,0,96,0.0,36.0
153,60.0,10,91,0.0,27.0
154,67.0,104,105,0.0,46.0
155,72.0,0,119,0.0,74.0
156,70.0,0,120,0.0,53.0
157,53.0,0,34,0.0,49.0
158,60.0,8,32,0.0,38.0
159,67.0,0,42,0.0,54.0
160,70.0,156,49,0.0,56.0
161,72.0,0,55,0.0,82.0
162,53.0,0,73,0.0,36.0
163,60.0,0,83,0.0,36.0
164,76.0,94,88,0.0,86.0
165,67.0,0,92,0.0,55.0
166,70.0,0,98,0.0,56.0
167,74.0,121,21,0.0,63.0
168,70.0,35,25,0.0,50.0
169,53.0,0,26,0.0,45.0
170,67.0,0,35,0.0,47.0
171,60.0,10,30,0.0,40.0
172,72.0,0,45,0.0,80.0
173,53.0,0,87,0.0,39.0
174,77.0,0,88,0.0,80.0
175,60.0,0,99,0.0,30.0
176,69.0,92,104,0.0,55.0
177,65.0,0,107,0.0,44.0
178,65.0,0,50,0.0,48.0
179,58.0,173,51,0.0,28.0
180,74.0,0,52,0.0,73.0
181,57.0,0,66,0.0,38.0
182,72.0,101,83,0.0,69.0
183,65.0,0,89,0.0,41.0
184,57.0,0,39,0.0,46.0
185,48.0,170,55,0.0,52.0
186,64.0,0,61,0.0,52.0
187,69.0,0,70,0.0,69.0
188,50.0,0,74,0.0,40.0
189,57.0,0,74,0.0,45.0
190,60.0,0,89,0.0,38.0
191,65.0,104,102,0.0,64.0
192,50.0,0,42,0.0,45.0
193,65.0,0,52,0.0,55.0
194,43.0,177,59,0.0,44.0
195,58.0,0,62,0.0,44.0
196,67.0,0,64,0.0,70.0
197,48.0,0,103,0.0,59.0
198,58.0,0,107,0.0,34.0
199,64.0,0,115,0.0,58.0
200,67.0,117,231,0.0,63.0
201,48.0,186,51,0.0,48.0
202,58.0,0,57,0.0,27.0
203,62.0,0,70,0.0,39.0
204,41.0,0,66,0.0,39.0
205,53.0,111,89,0.0,37.0
206,69.0,0,96,0.0,65.0
207,60.0,0,115,0.0,44.0
208,53.0,0,35,0.0,40.0
209,46.0,170,40,0.0,39.0
210,62.0,0,49,0.0,43.0
211,70.0,0,58,0.0,62.0
212,53.0,0,76,0.0,33.0
213,48.0,0,82,0.0,41.0
214,60.0,0,113,0.0,45.0
215,69.0,103,117,0.0,63.0
216,53.0,0,30,0.0,33.0
217,62.0,0,39,0.0,41.0
218,46.0,162,43,0.0,39.0
219,65.0,0,66,0.0,61.0
220,60.0,0,72,0.0,45.0
221,69.0,0,80,0.0,60.0
222,48.0,0,83,0.0,37.0
223,53.0,103,92,0.0,33.0
224,53.0,0,36,0.0,29.0
225,50.0,0,39,0.0,43.0
226,58.0,167,41,0.0,34.0
227,70.0,0,59,0.0,59.0
228,48.0,108,102,0.0,33.0
229,53.0,0,106,0.0,29.0
230,69.0,0,127,0.0,59.0
231,60.0,0,136,0.0,41.0
232,67.0,143,34,0.0,54.0
233,53.0,0,41,0.0,24.0
234,46.0,0,55,0.0,35.0
235,62.0,33,70,0.0,44.0
236,65.0,0,72,0.0,57.0
237,60.0,97,74,0.0,49.0
238,69.0,0,90,0.0,67.0
239,48.0,0,95,0.0,55.0
240,53.0,0,97,0.0,35.0
241,58.0,3,35,0.0,40.0
242,53.0,8,32,0.0,41.0
243,50.0,1,35,0.0,42.0
244,70.0,162,58,0.0,67.0
245,48.0,95,59,0.0,51.0
246,53.0,0,71,0.0,37.0
247,69.0,0,98,0.0,72.0
248,60.0,0,111,0.0,51.0
249,67.0,126,28,0.0,60.0
250,57.0,0,41,0.0,42.0
251,48.0,0,42,0.0,47.0
252,65.0,37,57,0.0,72.0
253,60.0,0,72,0.0,53.0
254,48.0,107,81,0.0,49.0
255,58.0,0,95,0.0,34.0
256,62.0,0,119,0.0,60.0
257,48.0,0,44,0.0,53.0
258,58.0,0,59,0.0,27.0
259,64.0,181,63,0.0,41.0
260,60.0,0,64,0.0,36.0
261,67.0,0,251,0.0,70.0
262,53.0,120,85,0.0,39.0
263,57.0,0,88,0.0,28.0
264,60.0,0,98,0.0,36.0
265,53.0,188,35,0.0,24.0
266,60.0,0,36,0.0,26.0
267,57.0,0,36,0.0,22.0
268,65.0,0,234,0.0,52.0
269,48.0,152,60,0.0,40.0
270,57.0,0,65,0.0,31.0
271,64.0,0,75,0.0,56.0
272,57.0,167,26,0.0,26.0
273,48.0,0,30,0.0,46.0
274,64.0,0,37,0.0,54.0
275,64.0,98,90,0.0,47.0
276,72.0,0,357,0.0,82.0
277,57.0,0,118,0.0,35.0
278,48.0,0,123,0.0,37.0
279,62.0,0,31,0.0,40.0
280,50.0,0,41,0.0,44.0
281,65.0,154,48,0.0,47.0
282,71.0,0,66,0.0,70.0
283,71.0,17,30,0.0,64.0
284,52.0,3,146,0.0,42.0
285,60.0,85,155,0.0,58.0
286,64.0,23,155,0.0,58.0
287,69.0,30,121,0.0,79.0
288,59.0,165,40,0.0,52.0
289,40.0,0,46,0.0,41.0
290,52.0,12,39,0.0,39.0
291,64.0,0,56,0.0,53.0
292,68.0,0,78,0.0,65.0
293,45.0,0,70,0.0,41.0
294,60.0,0,76,0.0,47.0
295,52.0,8,72,0.0,33.0
296,64.0,100,80,0.0,51.0
297,69.0,0,89,0.0,71.0
298,45.0,0,12,0.0,45.0
299,60.0,0,12,0.0,60.0
300,64.0,166,12,0.0,64.0
301,57.0,0,29,0.0,47.0
302,72.0,0,34,0.0,89.0
303,48.0,0,65,0.0,50.0
304,55.0,0,75,0.0,47.0
305,64.0,0,88,0.0,58.0
306,67.0,104,106,0.0,63.0
307,76.0,0,108,0.0,87.0
308,48.0,0,21,0.0,46.0
309,64.0,161,25,0.0,58.0
310,55.0,0,26,0.0,30.0
311,60.0,0,32,0.0,29.0
312,67.0,0,34,0.0,64.0
313,76.0,0,60,0.0,89.0
314,67.0,0,76,0.0,69.0
315,52.0,0,90,0.0,47.0
316,60.0,0,96,0.0,40.0
317,76.0,101,101,0.0,89.0
318,65.0,150,38,0.0,47.0
319,69.0,0,54,0.0,62.0
320,53.0,0,55,0.0,53.0
321,74.0,0,71,0.0,79.0
322,74.0,16,31,0.0,72.0
323,64.0,78,152,0.0,66.0
324,55.0,0,167,0.0,52.0
325,67.0,30,150,0.0,66.0
326,72.0,30,132,0.0,81.0
327,62.0,165,41,0.0,39.0
328,43.0,0,42,0.0,47.0
329,67.0,0,47,0.0,41.0
330,55.0,12,40,0.0,39.0
331,71.0,0,89,0.0,69.0
332,48.0,100,69,0.0,40.0
333,64.0,0,88,0.0,44.0
334,55.0,0,90,0.0,30.0
335,67.0,0,109,0.0,41.0
336,64.0,179,26,0.0,36.0
337,48.0,0,30,0.0,32.0
338,55.0,0,34,0.0,34.0
339,72.0,0,220,0.0,64.0
340,60.0,138,27,0.0,1.0
341,48.0,0,57,0.0,38.0
342,76.0,0,72,0.0,55.0
343,67.0,0,81,0.0,32.0
344,53.0,0,32,0.0,35.0
345,60.0,0,37,0.0,31.0
346,77.0,163,40,0.0,70.0
347,69.0,0,64,0.0,51.0
348,60.0,0,85,0.0,36.0
349,55.0,102,88,0.0,36.0
350,67.0,0,110,0.0,36.0
351,76.0,0,120,0.0,62.0
352,53.0,0,34,0.0,44.0
353,60.0,0,35,0.0,35.0
354,69.0,0,39,0.0,52.0
355,72.0,167,56,0.0,66.0
356,67.0,0,75,0.0,40.0
357,55.0,0,89,0.0,49.0
358,60.0,101,95,0.0,39.0
359,76.0,0,139,0.0,65.0
360,65.0,0,36,0.0,43.0
361,57.0,0,37,0.0,36.0
362,77.0,167,45,0.0,71.0
363,60.0,12,36,0.0,27.0
364,60.0,90,81,0.0,25.0
365,55.0,0,94,0.0,31.0
366,76.0,0,100,0.0,65.0
367,67.0,0,130,0.0,44.0
368,74.0,129,31,0.0,68.0
369,53.0,0,35,0.0,39.0
370,69.0,0,39,0.0,43.0
371,60.0,0,41,0.0,39.0
372,72.0,36,65,0.0,70.0
373,67.0,103,67,0.0,53.0
374,55.0,0,73,0.0,29.0
375,60.0,0,80,0.0,35.0
376,76.0,0,123,0.0,74.0
377,57.0,0,31,0.0,37.0
378,60.0,0,34,0.0,34.0
379,65.0,0,41,0.0,52.0
380,77.0,152,53,0.0,77.0
381,55.0,103,48,0.0,36.0
382,60.0,0,67,0.0,37.0
383,76.0,0,88,0.0,73.0
384,67.0,0,100,0.0,51.0
385,74.0,121,24,0.0,66.0
386,55.0,36,24,0.0,33.0
387,64.0,0,39,0.0,50.0
388,72.0,0,56,0.0,78.0
389,67.0,0,63,0.0,48.0
390,65.0,0,62,0.0,41.0
391,55.0,0,68,0.0,33.0
392,69.0,0,74,0.0,63.0
393,74.0,106,202,0.0,79.0
394,55.0,0,30,0.0,49.0
395,67.0,0,51,0.0,39.0
396,65.0,173,54,0.0,37.0
397,71.0,0,79,0.0,50.0
398,64.0,0,88,0.0,41.0
399,48.0,0,90,0.0,39.0
400,67.0,0,208,0.0,54.0
401,72.0,122,220,0.0,69.0
402,48.0,175,54,0.0,43.0
403,64.0,0,67,0.0,41.0
404,62.0,0,64,0.0,55.0
405,50.0,128,82,0.0,44.0
406,65.0,0,96,0.0,47.0
407,61.0,0,71,0.0,30.0
408,70.0,0,249,0.0,64.0
409,52.0,159,96,0.0,42.0
410,53.0,0,49,0.0,32.0
411,60.0,0,64,0.0,31.0
412,67.0,0,200,0.0,45.0
413,69.0,118,88,0.0,65.0
414,53.0,0,27,0.0,41.0
415,60.0,0,36,0.0,36.0
416,69.0,0,38,0.0,42.0
417,65.0,0,45,0.0,41.0
418,72.0,167,58,0.0,76.0
419,60.0,103,70,0.0,33.0
420,69.0,0,70,0.0,48.0
421,53.0,0,72,0.0,37.0
422,65.0,0,74,0.0,49.0
423,72.0,0,92,0.0,80.0
424,69.0,0,27,0.0,63.0
425,53.0,0,30,0.0,33.0
426,60.0,168,34,0.0,29.0
427,72.0,0,35,0.0,76.0
428,53.0,0,57,0.0,29.0
429,60.0,109,62,0.0,40.0
430,76.0,0,97,0.0,76.0
431,70.0,0,100,0.0,46.0
432,74.0,120,25,0.0,70.0
433,53.0,0,30,0.0,39.0
434,60.0,0,34,0.0,34.0
435,70.0,0,41,0.0,58.0
436,72.0,36,57,0.0,81.0
437,53.0,0,65,0.0,40.0
438,77.0,0,72,0.0,81.0
439,69.0,0,72,0.0,56.0
440,60.0,104,73,0.0,36.0
441,74.0,171,52,0.0,74.0
442,58.0,0,55,0.0,43.0
443,65.0,0,56,0.0,54.0
444,57.0,102,77,0.0,40.0
445,72.0,0,79,0.0,70.0
446,65.0,0,90,0.0,44.0
447,57.0,167,45,0.0,31.0
448,48.0,0,46,0.0,52.0
449,64.0,0,70,0.0,53.0
450,69.0,0,71,0.0,68.0
451,60.0,0,72,0.0,38.0
452,50.0,0,73,0.0,47.0
453,57.0,105,75,0.0,36.0
454,65.0,0,83,0.0,65.0
455,50.0,0,45,0.0,41.0
456,65.0,0,58,0.0,59.0
457,43.0,0,61,0.0,49.0
458,58.0,0,69,0.0,39.0
459,67.0,172,71,0.0,67.0
460,48.0,0,100,0.0,42.0
461,64.0,0,114,0.0,57.0
462,58.0,124,116,0.0,42.0
463,67.0,0,221,0.0,62.0
464,48.0,0,42,0.0,47.0
465,58.0,0,49,0.0,30.0
466,62.0,180,77,0.0,43.0
467,41.0,0,64,0.0,33.0
468,53.0,107,78,0.0,29.0
469,69.0,0,87,0.0,64.0
470,60.0,0,93,0.0,46.0
471,53.0,158,36,0.0,38.0
472,46.0,0,41,0.0,40.0
473,62.0,0,52,0.0,47.0
474,70.0,0,62,0.0,62.0
475,46.0,0,36,0.0,36.0
476,53.0,0,69,0.0,43.0
477,60.0,0,111,0.0,52.0
478,69.0,105,124,0.0,70.0
479,53.0,159,35,0.0,36.0
480,62.0,0,37,0.0,40.0
481,46.0,0,37,0.0,38.0
482,65.0,0,62,0.0,60.0
483,60.0,101,65,0.0,46.0
484,53.0,0,82,0.0,31.0
485,48.0,0,84,0.0,37.0
486,69.0,0,89,0.0,65.0
487,58.0,0,38,0.0,34.0
488,53.0,157,40,0.0,33.0
489,50.0,0,45,0.0,36.0
490,70.0,0,65,0.0,62.0
491,53.0,0,78,0.0,42.0
492,48.0,0,83,0.0,41.0
493,69.0,110,92,0.0,65.0
494,60.0,0,110,0.0,39.0
495,67.0,122,26,0.0,55.0
496,53.0,0,45,0.0,32.0
497,46.0,0,45,0.0,31.0
498,62.0,36,46,0.0,45.0
499,65.0,0,67,0.0,59.0
500,53.0,104,73,0.0,44.0
501,60.0,0,77,0.0,49.0
502,69.0,0,87,0.0,62.0
503,48.0,0,90,0.0,41.0
504,53.0,161,29,0.0,40.0
505,50.0,0,31,0.0,42.0
506,58.0,0,37,0.0,44.0
507,70.0,0,52,0.0,62.0
508,48.0,0,46,0.0,37.0
509,53.0,0,56,0.0,33.0
510,69.0,0,87,0.0,69.0
511,60.0,100,97,0.0,46.0
512,67.0,125,24,0.0,61.0
513,48.0,0,14,0.0,45.0
514,57.0,0,40,0.0,46.0
515,65.0,35,57,0.0,65.0
516,60.0,0,71,0.0,46.0
517,48.0,0,71,0.0,42.0
518,58.0,0,92,0.0,35.0
519,62.0,114,118,0.0,57.0
520,60.0,186,42,0.0,29.0
521,48.0,0,46,0.0,38.0
522,64.0,0,55,0.0,43.0
523,58.0,0,59,0.0,25.0
524,67.0,0,248,0.0,70.0
525,48.0,0,70,0.0,45.0
526,57.0,0,77,0.0,38.0
527,64.0,145,80,0.0,55.0
528,48.0,0,22,0.0,43.0
529,57.0,0,32,0.0,33.0
530,64.0,157,34,0.0,44.0
531,48.0,0,46,0.0,40.0
532,57.0,0,51,0.0,36.0
533,72.0,0,332,0.0,80.0
534,64.0,97,101,0.0,46.0
535,57.0,0,38,0.0,39.0
536,50.0,0,41,0.0,39.0
537,65.0,0,46,0.0,55.0
538,69.0,147,79,0.0,71.0
539,57.0,0,78,0.0,41.0
540,52.0,100,83,0.0,41.0
541,64.0,0,123,0.0,42.0
542,72.0,0,129,0.0,75.0
543,50.0,0,36,0.0,42.0
544,57.0,158,37,0.0,40.0
545,65.0,0,43,0.0,54.0
546,69.0,0,70,0.0,70.0
547,64.0,0,70,0.0,47.0
548,52.0,0,77,0.0,36.0
549,57.0,0,86,0.0,33.0
550,72.0,95,117,0.0,74.0
551,62.0,0,33,0.0,51.0
552,57.0,155,33,0.0,43.0
553,53.0,0,35,0.0,42.0
554,74.0,0,48,0.0,79.0
555,57.0,93,88,0.0,43.0
556,52.0,0,98,0.0,42.0
557,72.0,0,102,0.0,76.0
558,64.0,0,134,0.0,49.0
559,71.0,127,31,0.0,66.0
560,50.0,0,45,0.0,42.0
561,57.0,41,47,0.0,30.0
562,65.0,0,52,0.0,48.0
563,69.0,0,75,0.0,62.0
564,64.0,0,79,0.0,39.0
565,52.0,0,87,0.0,43.0
566,57.0,0,89,0.0,43.0
567,72.0,110,112,0.0,63.0
568,57.0,0,28,0.0,42.0
569,62.0,0,29,0.0,60.0
570,53.0,157,33,0.0,41.0
571,74.0,0,45,0.0,75.0
572,52.0,0,58,0.0,42.0
573,57.0,0,70,0.0,41.0
574,72.0,97,82,0.0,74.0
575,64.0,0,103,0.0,54.0
576,71.0,120,23,0.0,62.0
577,60.0,0,33,0.0,40.0
578,52.0,37,35,0.0,40.0
579,64.0,0,36,0.0,47.0
580,69.0,0,40,0.0,74.0
581,52.0,0,76,0.0,44.0
582,62.0,0,97,0.0,42.0
583,64.0,108,102,0.0,53.0
584,69.0,0,107,0.0,59.0
585,52.0,0,32,0.0,53.0
586,62.0,0,53,0.0,37.0
587,64.0,0,55,0.0,36.0
588,68.0,173,67,0.0,45.0
589,71.0,0,250,0.0,65.0
590,52.0,117,32,0.0,44.0
591,45.0,0,71,0.0,50.0
592,64.0,0,81,0.0,45.0
593,60.0,0,90,0.0,43.0
594,45.0,0,15,0.0,34.0
595,60.0,0,36,0.0,36.0
596,64.0,182,36,0.0,38.0
597,69.0,0,231,0.0,61.0
598,42.0,0,67,0.0,43.0
599,69.0,0,70,0.0,54.0
600,63.0,0,72,0.0,40.0
601,72.0,153,211,0.0,78.0
602,63.0,177,46,0.0,40.0
603,42.0,0,46,0.0,42.0
604,67.0,0,56,0.0,44.0
605,70.0,113,78,0.0,63.0
606,62.0,0,81,0.0,40.0
607,43.0,0,96,0.0,45.0
608,66.0,0,16,0.0,40.0
609,60.0,145,16,0.0,51.0
610,69.0,0,25,0.0,68.0
611,45.0,0,30,0.0,42.0
612,62.0,0,62,0.0,56.0
613,67.0,43,75,0.0,68.0
614,46.0,0,90,0.0,50.0
615,64.0,0,95,0.0,51.0
616,58.0,0,108,0.0,39.0
617,48.0,110,134,0.0,44.0
618,64.0,175,47,0.0,51.0
619,36.0,0,55,0.0,40.0
620,58.0,0,58,0.0,39.0
621,48.0,15,59,0.0,42.0
622,69.0,0,254,0.0,71.0
623,41.0,0,71,0.0,42.0
624,57.0,0,74,0.0,43.0
625,48.0,14,80,0.0,42.0
626,57.0,170,26,0.0,38.0
627,41.0,0,38,0.0,34.0
628,65.0,103,222,0.0,56.0
629,42.0,0,75,0.0,51.0
630,63.0,158,85,0.0,34.0
631,69.0,0,94,0.0,49.0
632,42.0,179,28,0.0,36.0
633,63.0,0,34,0.0,39.0
634,72.0,0,220,0.0,62.0
635,72.0,24,39,0.0,66.0
636,67.0,25,102,0.0,53.0
637,70.0,36,80,0.0,65.0
638,62.0,98,170,0.0,51.0
639,43.0,3,208,0.0,45.0
640,45.0,0,29,0.0,44.0
641,66.0,148,30,0.0,48.0
642,60.0,0,30,0.0,49.0
643,69.0,0,35,0.0,63.0
644,62.0,0,50,0.0,59.0
645,67.0,45,66,0.0,64.0
646,46.0,0,96,0.0,42.0
647,64.0,0,79,0.0,44.0
648,48.0,0,94,0.0,43.0
649,58.0,107,103,0.0,32.0
650,48.0,0,37,0.0,45.0
651,36.0,0,38,0.0,47.0
652,64.0,167,42,0.0,44.0
653,58.0,0,50,0.0,39.0
654,69.0,0,237,0.0,62.0
655,48.0,0,70,0.0,35.0
656,41.0,0,76,0.0,39.0
657,57.0,0,86,0.0,37.0
658,48.0,9,10,0.0,26.0
659,40.0,127,23,0.0,52.0
660,38.0,33,25,0.0,51.0
661,48.0,0,28,0.0,48.0
662,57.0,0,37,0.0,55.0
663,65.0,106,241,0.0,54.0
664,64.0,113,72,0.0,51.0
665,58.0,0,83,0.0,29.0
666,36.0,164,18,0.0,42.0
667,48.0,0,194,0.0,40.0
668,64.0,0,30,0.0,29.0
669,58.0,0,46,0.0,28.0
670,69.0,0,223,0.0,55.0
671,41.0,0,81,0.0,33.0
672,48.0,0,95,0.0,35.0
673,57.0,105,99,0.0,38.0
674,40.0,121,20,0.0,48.0
675,48.0,38,19,0.0,36.0
676,57.0,0,26,0.0,42.0
677,38.0,0,27,0.0,49.0
678,65.0,0,216,0.0,55.0
679,64.0,0,72,0.0,42.0
680,58.0,109,78,0.0,26.0
681,36.0,0,5,0.0,40.0
682,48.0,0,181,0.0,40.0
683,64.0,162,35,0.0,29.0
684,69.0,0,210,0.0,55.0
685,58.0,0,50,0.0,27.0
686,57.0,0,60,0.0,33.0
687,48.0,0,71,0.0,32.0
688,41.0,0,73,0.0,29.0
689,65.0,105,86,0.0,53.0
690,64.0,0,41,0.0,45.0
691,36.0,0,56,0.0,38.0
692,58.0,0,63,0.0,32.0
693,48.0,175,63,0.0,43.0
694,69.0,0,78,0.0,62.0
695,57.0,0,72,0.0,41.0
696,48.0,0,79,0.0,38.0
697,41.0,0,83,0.0,40.0
698,65.0,111,103,0.0,57.0
699,64.0,0,51,0.0,40.0
700,36.0,0,56,0.0,34.0
701,48.0,0,60,0.0,30.0
702,58.0,0,60,0.0,22.0
703,69.0,193,75,0.0,41.0
704,57.0,115,50,0.0,31.0
705,48.0,0,66,0.0,26.0
706,41.0,0,80,0.0,26.0
707,65.0,0,94,0.0,47.0
708,64.0,0,48,0.0,27.0
709,36.0,0,52,0.0,36.0
710,58.0,0,59,0.0,25.0
711,48.0,10,53,0.0,33.0
712,69.0,197,67,0.0,47.0
713,57.0,0,74,0.0,30.0
714,48.0,0,85,0.0,30.0
715,41.0,110,98,0.0,31.0
716,65.0,0,109,0.0,46.0
717,64.0,0,74,0.0,32.0
718,58.0,0,78,0.0,28.0
719,69.0,0,84,0.0,42.0
720,48.0,279,136,0.0,26.0
721,36.0,0,161,0.0,28.0
722,29.0,469,186,0.0,35.0
723,41.0,174,32,0.0,33.0
724,57.0,86,175,0.0,43.0
725,60.0,97,146,0.0,54.0
726,65.0,100,56,0.0,48.0
727,69.0,133,97,0.0,58.0
728,69.0,165,45,0.0,48.0
729,48.0,116,839,0.0,40.0
730,53.0,101,743,0.0,51.0
731,69.0,178,30,0.0,38.0
732,69.0,202,27,0.0,29.0
733,69.0,199,55,0.0,21.0
734,69.0,303,68,0.0,12.0
735,33.0,326,15,0.0,73.0
736,45.0,0,17,0.0,100.0
737,93.0,1,38,0.0,109.0
738,89.0,1,39,0.0,92.0
739,88.0,42,36,0.0,92.0
740,40.0,1,6,0.0,61.0
741,52.0,5,15,0.0,72.0
742,84.0,35,35,0.0,82.0
743,81.0,27,17,0.0,79.0
744,81.0,37,18,0.0,70.0
745,77.0,1,19,0.0,74.0
746,47.0,4,15,0.0,69.0
747,59.0,2,25,0.0,61.0
748,76.0,25,33,0.0,86.0
749,72.0,33,37,0.0,89.0
750,69.0,31,19,0.0,82.0
751,48.0,2,52,0.0,90.0
752,60.0,3,57,0.0,87.0
753,65.0,2,13,0.0,48.0
754,69.0,39,16,0.0,60.0
755,64.0,30,25,0.0,78.0
756,60.0,38,30,0.0,57.0
757,57.0,37,11,0.0,46.0
758,53.0,34,17,0.0,58.0
759,56.0,2,20,0.0,62.0
760,59.0,5,9,0.0,36.0
761,68.0,33,22,0.0,61.0
762,50.0,2,24,0.0,63.0
763,45.0,4,7,0.0,64.0
764,59.0,28,20,0.0,60.0
765,62.0,33,9,0.0,64.0
766,71.0,3,15,0.0,65.0
767,56.0,0,24,0.0,55.0
768,62.0,32,18,0.0,84.0
769,53.0,4,23,0.0,56.0
770,45.0,5,11,0.0,64.0
771,66.0,2,18,0.0,58.0
772,74.0,31,22,0.0,88.0
773,65.0,26,24,0.0,81.0
774,59.0,9,20,0.0,64.0
775,68.0,26,16,0.0,62.0
776,77.0,4,13,0.0,82.0
777,76.0,6,7,0.0,43.0
778,45.0,4,6,0.0,72.0
779,62.0,4,7,0.0,67.0
780,68.0,26,17,0.0,95.0
781,71.0,2,15,0.0,83.0
782,80.0,28,27,0.0,88.0
783,71.0,35,21,0.0,78.0
784,74.0,0,7,0.0,81.0
785,83.0,35,16,0.0,89.0
786,33.0,1,15,0.0,72.0
787,45.0,2,17,0.0,100.0
788,93.0,67,26,0.0,103.0
789,89.0,0,29,0.0,94.0
790,88.0,36,31,0.0,88.0
791,40.0,2,7,0.0,64.0
792,52.0,8,17,0.0,82.0
793,84.0,34,32,0.0,84.0
794,81.0,22,20,0.0,81.0
795,81.0,38,21,0.0,72.0
796,77.0,2,19,0.0,80.0
797,47.0,1,16,0.0,71.0
798,59.0,4,20,0.0,76.0
799,76.0,26,32,0.0,89.0
800,72.0,30,38,0.0,85.0
801,69.0,30,20,0.0,75.0
802,48.0,3,70,0.0,82.0
803,60.0,5,75,0.0,82.0
804,69.0,40,20,0.0,56.0
805,65.0,2,23,0.0,59.0
806,64.0,32,23,0.0,74.0
807,60.0,33,27,0.0,53.0
808,57.0,39,13,0.0,48.0
809,59.0,40,19,0.0,70.0
810,56.0,4,25,0.0,38.0
811,62.0,3,7,0.0,29.0
812,71.0,37,17,0.0,65.0
813,53.0,1,14,0.0,46.0
814,45.0,7,9,0.0,63.0
815,62.0,28,18,0.0,73.0
816,74.0,4,12,0.0,58.0
817,65.0,29,17,0.0,69.0
818,59.0,1,21,0.0,53.0
819,65.0,26,25,0.0,88.0
820,53.0,5,33,0.0,54.0
821,68.0,2,7,0.0,46.0
822,77.0,31,18,0.0,88.0
823,45.0,2,15,0.0,72.0
824,68.0,30,19,0.0,88.0
825,62.0,5,15,0.0,70.0
826,71.0,2,7,0.0,68.0
827,45.0,7,8,0.0,66.0
828,80.0,31,20,0.0,84.0
829,65.0,2,10,0.0,70.0
830,71.0,26,22,0.0,99.0
831,74.0,32,14,0.0,81.0
832,83.0,1,23,0.0,87.0
833,74.0,37,20,0.0,96.0
834,77.0,31,7,0.0,81.0
835,86.0,2,13,0.0,92.0
836,33.0,0,17,0.0,77.0
837,45.0,0,20,0.0,90.0
838,100.0,70,33,0.0,100.0
839,93.0,0,35,0.0,100.0
840,96.0,47,28,0.0,84.0
841,40.0,1,12,0.0,68.0
842,52.0,6,19,0.0,77.0
843,93.0,36,27,0.0,87.0
844,88.0,28,24,0.0,83.0
845,56.0,0,20,0.0,81.0
846,44.0,3,20,0.0,76.0
847,88.0,37,27,0.0,71.0
848,96.0,2,26,0.0,89.0
849,93.0,34,30,0.0,86.0
850,47.0,2,16,0.0,70.0
851,59.0,4,20,0.0,74.0
852,88.0,34,29,0.0,84.0
853,84.0,29,21,0.0,83.0
854,45.0,2,16,0.0,68.0
855,93.0,34,25,0.0,89.0
856,84.0,1,24,0.0,81.0
857,57.0,2,27,0.0,74.0
858,88.0,33,29,0.0,82.0
859,47.0,0,13,0.0,68.0
860,59.0,4,21,0.0,70.0
861,84.0,30,32,0.0,82.0
862,81.0,33,22,0.0,66.0
863,50.0,2,17,0.0,75.0
864,81.0,0,21,0.0,77.0
865,62.0,32,25,0.0,80.0
866,88.0,1,24,0.0,82.0
867,84.0,35,32,0.0,80.0
868,48.0,2,20,0.0,90.0
869,81.0,28,28,0.0,77.0
870,60.0,5,24,0.0,90.0
871,76.0,25,26,0.0,79.0
872,64.0,6,8,0.0,38.0
873,63.0,0,15,0.0,92.0
874,51.0,41,15,0.0,88.0
875,76.0,0,20,0.0,68.0
876,84.0,1,24,0.0,73.0
877,81.0,32,27,0.0,74.0
878,53.0,1,25,0.0,81.0
879,76.0,25,36,0.0,69.0
880,65.0,7,38,0.0,99.0
881,72.0,34,24,0.0,74.0
882,72.0,2,23,0.0,69.0
883,81.0,0,26,0.0,78.0
884,64.0,36,63,0.0,93.0
885,76.0,38,33,0.0,79.0
886,52.0,0,72,0.0,86.0
887,72.0,35,30,0.0,80.0
888,69.0,35,25,0.0,71.0
889,33.0,2,14,0.0,77.0
890,72.0,3,19,0.0,83.0
891,45.0,0,20,0.0,90.0
892,78.0,40,29,0.0,80.0
893,75.0,32,36,0.0,75.0
894,36.0,33,17,0.0,68.0
895,48.0,0,17,0.0,75.0
896,72.0,2,26,0.0,83.0
897,69.0,30,17,0.0,77.0
898,38.0,3,14,0.0,74.0
899,50.0,33,19,0.0,83.0
900,72.0,1,20,0.0,78.0
901,66.0,1,24,0.0,70.0
902,69.0,33,34,0.0,84.0
903,66.0,29,30,0.0,72.0
904,60.0,31,22,0.0,71.0
905,60.0,36,15,0.0,68.0
906,69.0,3,16,0.0,42.0
907,66.0,31,26,0.0,64.0
908,60.0,25,27,0.0,55.0
909,57.0,34,20,0.0,69.0
910,57.0,2,20,0.0,73.0
911,66.0,31,26,0.0,74.0
912,60.0,35,30,0.0,64.0
913,57.0,33,20,0.0,64.0
914,39.0,3,293,0.0,79.0
915,51.0,2,300,0.0,99.0
916,54.0,30,25,0.0,54.0
917,50.0,0,23,0.0,61.0
918,62.0,5,28,0.0,66.0
919,38.0,3,25,0.0,55.0
920,66.0,32,43,0.0,59.0
921,54.0,30,35,0.0,64.0
922,36.0,3,12,0.0,49.0
923,48.0,2,22,0.0,62.0
924,66.0,42,33,0.0,67.0
925,63.0,3,34,0.0,66.0
926,54.0,27,30,0.0,71.0
927,34.0,1,26,0.0,60.0
928,66.0,0,32,0.0,79.0
929,62.0,0,32,0.0,80.0
930,46.0,37,43,0.0,64.0
931,54.0,30,32,0.0,75.0
932,33.0,2,13,0.0,59.0
933,45.0,1,19,0.0,76.0
934,62.0,40,29,0.0,82.0
935,60.0,3,25,0.0,77.0
936,66.0,0,33,0.0,79.0
937,54.0,26,12,0.0,79.0
938,31.0,1,17,0.0,70.0
939,43.0,4,23,0.0,85.0
940,91.0,1,38,0.0,99.0
941,87.0,99,43,0.0,83.0
942,86.0,38,51,0.0,80.0
943,38.0,1,9,0.0,59.0
944,50.0,9,19,0.0,81.0
945,82.0,36,34,0.0,74.0
946,79.0,21,17,0.0,80.0
947,45.0,5,8,0.0,63.0
948,57.0,1,20,0.0,69.0
949,79.0,34,25,0.0,68.0
950,74.0,29,34,0.0,81.0
951,70.0,31,37,0.0,77.0
952,67.0,26,18,0.0,74.0
953,58.0,4,65,0.0,75.0
954,46.0,4,67,0.0,70.0
955,67.0,35,20,0.0,63.0
956,63.0,1,23,0.0,64.0
957,62.0,33,27,0.0,74.0
958,58.0,34,31,0.0,61.0
959,55.0,36,16,0.0,68.0
960,54.0,2,20,0.0,73.0
961,51.0,42,23,0.0,53.0
962,57.0,2,8,0.0,50.0
963,66.0,35,22,0.0,62.0
964,48.0,1,22,0.0,46.0
965,43.0,30,15,0.0,62.0
966,57.0,3,16,0.0,66.0
967,69.0,4,16,0.0,68.0
968,54.0,31,23,0.0,52.0
969,60.0,29,21,0.0,83.0
970,63.0,2,16,0.0,59.0
971,43.0,28,19,0.0,63.0
972,72.0,1,24,0.0,82.0
973,51.0,5,60,0.0,58.0
974,63.0,29,25,0.0,85.0
975,57.0,6,19,0.0,66.0
976,75.0,26,20,0.0,86.0
977,43.0,18,8,0.0,36.0
978,60.0,5,15,0.0,82.0
979,66.0,15,22,0.0,86.0
980,69.0,0,7,0.0,65.0
981,78.0,31,20,0.0,84.0
982,69.0,32,23,0.0,84.0
983,72.0,25,9,0.0,73.0
984,81.0,5,14,0.0,87.0
985,31.0,67,17,0.0,74.0
986,43.0,0,20,0.0,88.0
987,91.0,0,28,0.0,100.0
988,87.0,1,35,0.0,84.0
989,86.0,37,37,0.0,85.0
990,38.0,1,10,0.0,56.0
991,50.0,10,19,0.0,80.0
992,82.0,34,34,0.0,84.0
993,79.0,20,19,0.0,87.0
994,45.0,2,8,0.0,72.0
995,57.0,35,18,0.0,76.0
996,79.0,2,22,0.0,74.0
997,75.0,1,20,0.0,58.0
998,74.0,30,35,0.0,82.0
999,70.0,32,36,0.0,79.0
1000,67.0,29,19,0.0,79.0
1001,58.0,0,68,0.0,80.0
1002,46.0,3,72,0.0,72.0
1003,67.0,38,20,0.0,53.0
1004,63.0,7,13,0.0,34.0
1005,62.0,31,27,0.0,75.0
1006,58.0,30,28,0.0,61.0
1007,55.0,33,16,0.0,76.0
1008,57.0,41,19,0.0,74.0
1009,54.0,1,23,0.0,54.0
1010,69.0,38,19,0.0,64.0
1011,51.0,1,21,0.0,62.0
1012,43.0,6,10,0.0,60.0
1013,60.0,30,21,0.0,76.0
1014,63.0,4,7,0.0,38.0
1015,72.0,28,17,0.0,84.0
1016,57.0,0,21,0.0,53.0
1017,63.0,26,25,0.0,85.0
1018,51.0,5,27,0.0,62.0
1019,43.0,27,15,0.0,71.0
1020,75.0,0,20,0.0,81.0
1021,60.0,5,15,0.0,68.0
1022,66.0,28,22,0.0,80.0
1023,43.0,3,7,0.0,80.0
1024,69.0,1,8,0.0,64.0
1025,78.0,32,22,0.0,86.0
1026,63.0,31,15,0.0,84.0
1027,69.0,0,23,0.0,94.0
1028,72.0,37,8,0.0,82.0
1029,81.0,0,20,0.0,89.0
1030,72.0,33,25,0.0,102.0
1031,75.0,29,13,0.0,81.0
1032,84.0,3,20,0.0,85.0
1033,31.0,0,7,0.0,66.0
1034,43.0,75,15,0.0,88.0
1035,98.0,0,26,0.0,96.0
1036,91.0,0,26,0.0,97.0
1037,94.0,37,34,0.0,85.0
1038,38.0,0,15,0.0,64.0
1039,50.0,6,18,0.0,83.0
1040,91.0,39,26,0.0,93.0
1041,86.0,28,22,0.0,75.0
1042,42.0,1,11,0.0,77.0
1043,54.0,30,13,0.0,85.0
1044,86.0,2,14,0.0,75.0
1045,94.0,0,21,0.0,80.0
1046,91.0,33,26,0.0,82.0
1047,45.0,5,18,0.0,80.0
1048,86.0,26,25,0.0,69.0
1049,57.0,0,33,0.0,78.0
1050,82.0,18,26,0.0,69.0
1051,43.0,1,16,0.0,79.0
1052,91.0,40,23,0.0,83.0
1053,82.0,0,28,0.0,71.0
1054,55.0,6,31,0.0,88.0
1055,86.0,29,37,0.0,83.0
1056,45.0,2,14,0.0,80.0
1057,57.0,1,26,0.0,82.0
1058,82.0,34,31,0.0,71.0
1059,79.0,27,23,0.0,79.0
1060,48.0,5,16,0.0,55.0
1061,60.0,1,21,0.0,77.0
1062,79.0,36,24,0.0,90.0
1063,86.0,0,27,0.0,87.0
1064,82.0,31,33,0.0,76.0
1065,46.0,0,19,0.0,82.0
1066,58.0,29,24,0.0,79.0
1067,79.0,1,28,0.0,83.0
1068,74.0,34,29,0.0,80.0
1069,49.0,3,18,0.0,68.0
1070,61.0,30,26,0.0,88.0
1071,74.0,2,23,0.0,58.0
1072,82.0,1,25,0.0,77.0
1073,79.0,34,33,0.0,84.0
1074,74.0,29,29,0.0,79.0
1075,51.0,2,28,0.0,80.0
1076,63.0,0,42,0.0,85.0
1077,70.0,29,25,0.0,76.0
1078,70.0,0,25,0.0,63.0
1079,79.0,4,21,0.0,80.0
1080,62.0,0,43,0.0,90.0
1081,50.0,36,59,0.0,85.0
1082,74.0,34,40,0.0,81.0
1083,70.0,31,28,0.0,73.0
1084,67.0,35,25,0.0,63.0
1085,28.0,2,16,0.0,75.0
1086,67.0,41,22,0.0,67.0
1087,74.0,0,24,0.0,81.0
1088,40.0,2,22,0.0,86.0
1089,70.0,33,30,0.0,74.0
1090,43.0,2,19,0.0,78.0
1091,31.0,3,17,0.0,72.0
1092,67.0,30,25,0.0,70.0
1093,62.0,2,8,0.0,58.0
1094,60.0,31,20,0.0,58.0
1095,33.0,3,7,0.0,68.0
1096,68.0,1,13,0.0,35.0
1097,45.0,30,18,0.0,85.0
1098,69.0,8,7,0.0,34.0
1099,70.0,1,20,0.0,48.0
1100,62.0,0,22,0.0,65.0
1101,67.0,25,29,0.0,75.0
1102,62.0,0,33,0.0,74.0
1103,58.0,25,22,0.0,73.0
1104,67.0,0,21,0.0,81.0
1105,62.0,39,21,0.0,75.0
1106,46.0,32,110,0.0,82.0
1107,34.0,3,122,0.0,69.0
1108,64.0,32,28,0.0,77.0
1109,62.0,31,25,0.0,74.0
1110,57.0,5,10,0.0,44.0
1111,55.0,30,20,0.0,70.0
1112,28.0,2,19,0.0,68.0
1113,70.0,37,23,0.0,77.0
1114,62.0,1,22,0.0,68.0
1115,40.0,0,25,0.0,79.0
1116,67.0,32,27,0.0,74.0
1117,31.0,1,14,0.0,64.0
1118,43.0,8,16,0.0,60.0
1119,62.0,27,33,0.0,64.0
1120,58.0,24,20,0.0,73.0
1121,61.0,0,7,0.0,26.0
1122,33.0,3,10,0.0,24.0
1123,45.0,40,15,0.0,70.0
1124,62.0,1,20,0.0,77.0
1125,67.0,1,24,0.0,73.0
1126,64.0,30,25,0.0,76.0
1127,62.0,2,28,0.0,73.0
1128,55.0,31,23,0.0,74.0
1129,62.0,38,24,0.0,69.0
1130,67.0,2,27,0.0,79.0
1131,64.0,34,36,0.0,73.0
1132,34.0,2,161,0.0,62.0
1133,62.0,35,26,0.0,69.0
1134,46.0,28,173,0.0,73.0
1135,55.0,36,20,0.0,64.0
1136,33.0,1,30,0.0,44.0
1137,45.0,12,43,0.0,43.0
1138,55.0,0,80,0.0,51.0
1139,44.0,57,12,0.0,55.0
1140,57.0,2,83,0.0,50.0
1141,64.0,0,103,0.0,57.0
1142,45.0,25,20,0.0,68.0
1143,61.0,3,126,0.0,46.0
1144,69.0,70,144,0.0,68.0
1145,47.0,33,24,0.0,66.0
1146,49.0,30,27,0.0,67.0
1147,50.0,39,33,0.0,71.0
1148,57.0,1,56,0.0,55.0
1149,69.0,5,72,0.0,71.0
1150,65.0,2,74,0.0,58.0
1151,62.0,2,72,0.0,56.0
1152,52.0,30,58,0.0,62.0
1153,53.0,36,25,0.0,68.0
1154,57.0,2,8,0.0,59.0
1155,69.0,6,10,0.0,76.0
1156,52.0,36,26,0.0,63.0
1157,50.0,27,31,0.0,51.0
1158,69.0,0,37,0.0,77.0
1159,57.0,1,40,0.0,60.0
1160,46.0,29,13,0.0,60.0
1161,33.0,8,32,0.0,50.0
1162,45.0,6,51,0.0,40.0
1163,55.0,4,93,0.0,50.0
1164,44.0,59,23,0.0,62.0
1165,57.0,0,96,0.0,50.0
1166,64.0,1,113,0.0,63.0
1167,61.0,0,118,0.0,49.0
1168,45.0,31,21,0.0,68.0
1169,69.0,55,148,0.0,77.0
1170,47.0,30,31,0.0,74.0
1171,49.0,32,33,0.0,82.0
1172,50.0,38,29,0.0,83.0
1173,57.0,1,44,0.0,68.0
1174,62.0,1,52,0.0,67.0
1175,69.0,1,59,0.0,82.0
1176,65.0,2,56,0.0,65.0
1177,52.0,30,32,0.0,68.0
1178,53.0,36,25,0.0,80.0
1179,52.0,35,44,0.0,80.0
1180,50.0,40,36,0.0,70.0
1181,59.0,0,35,0.0,75.0
1182,65.0,0,39,0.0,68.0
1183,67.0,2,37,0.0,66.0
1184,49.0,35,7,0.0,76.0
1185,71.0,1,48,0.0,81.0
1186,66.0,26,9,0.0,35.0
1187,36.0,0,34,0.0,62.0
1188,48.0,10,45,0.0,73.0
1189,47.0,72,17,0.0,74.0
1190,48.0,36,20,0.0,84.0
1191,67.0,1,139,0.0,74.0
1192,64.0,1,146,0.0,74.0
1193,60.0,0,158,0.0,84.0
1194,70.0,0,162,0.0,67.0
1195,72.0,30,167,0.0,96.0
1196,50.0,31,24,0.0,81.0
1197,52.0,34,29,0.0,66.0
1198,53.0,4,26,0.0,74.0
1199,60.0,2,64,0.0,81.0
1200,55.0,33,31,0.0,69.0
1201,72.0,39,72,0.0,94.0
1202,65.0,1,78,0.0,73.0
1203,68.0,0,84,0.0,70.0
1204,56.0,35,33,0.0,71.0
1205,60.0,10,13,0.0,82.0
1206,72.0,0,15,0.0,90.0
1207,55.0,35,38,0.0,69.0
1208,53.0,26,32,0.0,68.0
1209,49.0,30,10,0.0,67.0
1210,60.0,0,45,0.0,85.0
1211,72.0,2,45,0.0,92.0
1212,36.0,13,23,0.0,51.0
1213,48.0,3,36,0.0,50.0
1214,47.0,61,19,0.0,74.0
1215,47.0,2,10,0.0,54.0
1216,67.0,2,126,0.0,63.0
1217,48.0,36,17,0.0,59.0
1218,64.0,0,132,0.0,68.0
1219,60.0,0,138,0.0,76.0
1220,70.0,0,153,0.0,63.0
1221,72.0,55,157,0.0,84.0
1222,50.0,28,22,0.0,82.0
1223,52.0,32,27,0.0,74.0
1224,53.0,2,25,0.0,73.0
1225,60.0,0,39,0.0,73.0
1226,72.0,38,57,0.0,86.0
1227,65.0,1,54,0.0,69.0
1228,55.0,31,28,0.0,70.0
1229,68.0,0,62,0.0,65.0
1230,56.0,36,25,0.0,67.0
1231,55.0,33,39,0.0,78.0
1232,62.0,39,23,0.0,90.0
1233,74.0,0,35,0.0,89.0
1234,68.0,0,35,0.0,70.0
1235,70.0,1,36,0.0,71.0
1236,53.0,0,37,0.0,64.0
1237,52.0,34,8,0.0,74.0
1238,39.0,0,29,0.0,65.0
1239,51.0,10,36,0.0,77.0
1240,50.0,66,20,0.0,78.0
1241,67.0,0,129,0.0,76.0
1242,70.0,2,132,0.0,76.0
1243,51.0,33,24,0.0,71.0
1244,63.0,0,150,0.0,85.0
1245,73.0,2,156,0.0,71.0
1246,75.0,53,163,0.0,90.0
1247,53.0,32,25,0.0,79.0
1248,55.0,33,35,0.0,72.0
1249,56.0,37,30,0.0,65.0
1250,63.0,2,56,0.0,76.0
1251,58.0,31,28,0.0,67.0
1252,75.0,0,68,0.0,87.0
1253,71.0,1,75,0.0,74.0
1254,68.0,1,82,0.0,64.0
1255,59.0,33,32,0.0,70.0
1256,75.0,1,12,0.0,85.0
1257,63.0,17,15,0.0,79.0
1258,58.0,32,37,0.0,67.0
1259,56.0,15,44,0.0,56.0
1260,52.0,26,17,0.0,64.0
1261,63.0,11,51,0.0,82.0
1262,75.0,0,53,0.0,84.0
1263,39.0,3,15,0.0,72.0
1264,51.0,5,19,0.0,77.0
1265,50.0,70,23,0.0,55.0
1266,67.0,0,108,0.0,77.0
1267,70.0,2,108,0.0,69.0
1268,51.0,27,25,0.0,71.0
1269,63.0,0,151,0.0,92.0
1270,73.0,0,160,0.0,69.0
1271,53.0,33,28,0.0,72.0
1272,75.0,52,168,0.0,93.0
1273,55.0,35,47,0.0,76.0
1274,63.0,0,31,0.0,82.0
1275,56.0,40,38,0.0,65.0
1276,68.0,0,36,0.0,71.0
1277,71.0,2,43,0.0,76.0
1278,75.0,5,53,0.0,89.0
1279,58.0,34,32,0.0,69.0
1280,59.0,35,32,0.0,74.0
1281,58.0,32,37,0.0,74.0
1282,56.0,35,55,0.0,71.0
1283,51.0,38,17,0.0,71.0
1284,75.0,0,64,0.0,92.0
1285,80.0,10,69,0.0,91.0
1286,87.0,0,75,0.0,103.0
1287,40.0,0,20,0.0,85.0
1288,75.0,89,106,0.0,89.0
1289,80.0,1,110,0.0,85.0
1290,87.0,1,131,0.0,105.0
1291,47.0,103,30,0.0,66.0
1292,51.0,35,27,0.0,75.0
1293,56.0,37,29,0.0,80.0
1294,59.0,33,42,0.0,72.0
1295,56.0,21,33,0.0,61.0
1296,51.0,28,30,0.0,72.0
1297,47.0,31,16,0.0,57.0
1298,63.0,39,7,0.0,69.0
1299,92.0,1,144,0.0,88.0
1300,87.0,2,148,0.0,100.0
1301,99.0,18,155,0.0,106.0
1302,40.0,3,22,0.0,88.0
1303,92.0,0,35,0.0,86.0
1304,98.0,108,39,0.0,100.0
1305,86.0,0,47,0.0,93.0
1306,95.0,104,35,0.0,103.0
1307,83.0,1,33,0.0,84.0
1308,86.0,2,36,0.0,90.0
1309,47.0,30,30,0.0,71.0
1310,94.0,40,30,0.0,93.0
1311,86.0,2,31,0.0,84.0
1312,50.0,1,38,0.0,63.0
1313,82.0,2,42,0.0,86.0
1314,56.0,40,37,0.0,68.0
1315,86.0,1,37,0.0,86.0
1316,59.0,10,35,0.0,59.0
1317,80.0,0,47,0.0,86.0
1318,92.0,27,50,0.0,100.0
1319,56.0,29,55,0.0,64.0
1320,86.0,1,23,0.0,85.0
1321,90.0,32,30,0.0,90.0
1322,78.0,0,36,0.0,88.0
1323,50.0,12,25,0.0,51.0
1324,47.0,21,16,0.0,55.0
1325,62.0,39,16,0.0,51.0
1326,76.0,1,40,0.0,88.0
1327,88.0,5,42,0.0,99.0
1328,80.0,0,52,0.0,85.0
1329,51.0,8,56,0.0,73.0
1330,39.0,2,56,0.0,71.0
1331,75.0,2,91,0.0,76.0
1332,79.0,2,89,0.0,85.0
1333,87.0,97,95,0.0,88.0
1334,38.0,76,32,0.0,63.0
1335,39.0,34,28,0.0,63.0
1336,41.0,38,25,0.0,59.0
1337,43.0,38,47,0.0,63.0
1338,44.0,1,26,0.0,50.0
1339,46.0,36,22,0.0,65.0
1340,47.0,28,27,0.0,56.0
1341,83.0,0,130,0.0,87.0
1342,49.0,32,32,0.0,62.0
1343,71.0,3,139,0.0,59.0
1344,75.0,40,145,0.0,61.0
1345,51.0,34,35,0.0,63.0
1346,52.0,39,11,0.0,70.0
1347,39.0,8,59,0.0,54.0
1348,38.0,67,30,0.0,63.0
1349,39.0,32,29,0.0,64.0
1350,82.0,46,156,0.0,81.0
1351,73.0,3,158,0.0,62.0
1352,41.0,38,26,0.0,56.0
1353,70.0,0,175,0.0,58.0
1354,43.0,37,44,0.0,60.0
1355,44.0,1,30,0.0,56.0
1356,46.0,34,34,0.0,60.0
1357,47.0,40,29,0.0,50.0
1358,49.0,31,33,0.0,59.0
1359,51.0,38,20,0.0,57.0
1360,71.0,1,169,0.0,68.0
1361,80.0,39,186,0.0,81.0
1362,52.0,36,10,0.0,52.0
1363,68.0,4,197,0.0,52.0
1364,39.0,4,66,0.0,52.0
1365,38.0,73,29,0.0,62.0
1366,70.0,1,145,0.0,57.0
1367,39.0,33,37,0.0,58.0
1368,66.0,5,171,0.0,47.0
1369,41.0,40,25,0.0,44.0
1370,78.0,39,223,0.0,77.0
1371,43.0,36,41,0.0,57.0
1372,44.0,40,29,0.0,58.0
1373,46.0,32,31,0.0,61.0
1374,47.0,38,27,0.0,53.0
1375,80.0,3,103,0.0,73.0
1376,71.0,2,101,0.0,60.0
1377,68.0,3,117,0.0,45.0
1378,49.0,33,28,0.0,61.0
1379,51.0,35,33,0.0,56.0
1380,52.0,40,9,0.0,62.0
1381,39.0,2,69,0.0,47.0
1382,38.0,75,35,0.0,56.0
1383,61.0,2,136,0.0,47.0
1384,39.0,35,37,0.0,57.0
1385,70.0,4,165,0.0,48.0
1386,41.0,39,28,0.0,62.0
1387,73.0,47,206,0.0,68.0
1388,43.0,38,45,0.0,64.0
1389,44.0,2,31,0.0,57.0
1390,46.0,35,33,0.0,61.0
1391,47.0,40,30,0.0,52.0
1392,49.0,30,27,0.0,58.0
1393,76.0,40,170,0.0,81.0
1394,64.0,2,171,0.0,56.0
1395,51.0,33,40,0.0,59.0
1396,68.0,1,187,0.0,57.0
1397,52.0,44,9,0.0,65.0
1398,39.0,6,70,0.0,47.0
1399,67.0,2,86,0.0,56.0
1400,38.0,82,27,0.0,53.0
1401,39.0,33,27,0.0,56.0
1402,63.0,3,166,0.0,46.0
1403,41.0,35,23,0.0,60.0
1404,75.0,55,200,0.0,69.0
1405,43.0,33,34,0.0,64.0
1406,44.0,41,29,0.0,54.0
1407,46.0,35,35,0.0,58.0
1408,47.0,39,29,0.0,55.0
1409,49.0,34,25,0.0,55.0
1410,68.0,1,169,0.0,46.0
1411,51.0,34,35,0.0,57.0
1412,63.0,0,184,0.0,36.0
1413,52.0,42,10,0.0,32.0
1414,71.0,0,225,0.0,66.0
1415,39.0,9,54,0.0,51.0
1416,38.0,65,25,0.0,56.0
1417,39.0,34,26,0.0,51.0
1418,41.0,35,22,0.0,59.0
1419,61.0,2,189,0.0,47.0
1420,43.0,36,37,0.0,60.0
1421,70.0,43,222,0.0,73.0
1422,44.0,37,30,0.0,53.0
1423,46.0,25,30,0.0,58.0
1424,47.0,38,33,0.0,55.0
1425,49.0,32,28,0.0,59.0
1426,63.0,0,126,0.0,48.0
1427,59.0,7,160,0.0,55.0
1428,51.0,33,37,0.0,60.0
1429,52.0,40,10,0.0,66.0
1430,68.0,5,217,0.0,68.0
1431,39.0,7,58,0.0,44.0
1432,38.0,71,27,0.0,55.0
1433,39.0,31,36,0.0,56.0
1434,41.0,35,23,0.0,45.0
1435,58.0,5,178,0.0,43.0
1436,61.0,1,197,0.0,44.0
1437,66.0,49,208,0.0,64.0
1438,43.0,33,38,0.0,62.0
1439,44.0,42,31,0.0,51.0
1440,46.0,30,30,0.0,58.0
1441,47.0,37,32,0.0,52.0
1442,49.0,31,30,0.0,58.0
1443,59.0,3,142,0.0,46.0
1444,51.0,34,27,0.0,60.0
1445,52.0,36,10,0.0,58.0
1446,63.0,3,188,0.0,49.0
1447,68.0,0,228,0.0,67.0
1448,39.0,8,49,0.0,50.0
1449,38.0,61,21,0.0,45.0
1450,39.0,31,33,0.0,42.0
1451,41.0,38,24,0.0,51.0
1452,58.0,3,182,0.0,38.0
1453,61.0,49,191,0.0,67.0
1454,43.0,41,39,0.0,45.0
1455,44.0,39,40,0.0,44.0
1456,46.0,34,38,0.0,46.0
1457,47.0,44,27,0.0,48.0
1458,49.0,31,30,0.0,54.0
1459,51.0,39,37,0.0,49.0
1460,59.0,2,205,0.0,55.0
1461,52.0,49,11,0.0,41.0
1462,56.0,3,226,0.0,48.0
1463,64.0,7,252,0.0,68.0
1464,58.0,5,82,0.0,33.0
1465,55.0,4,83,0.0,39.0
1466,39.0,5,88,0.0,31.0
1467,63.0,58,115,0.0,59.0
1468,62.0,158,30,0.0,57.0
1469,63.0,33,27,0.0,61.0
1470,64.0,37,37,0.0,64.0
1471,66.0,25,32,0.0,62.0
1472,68.0,38,32,0.0,62.0
1473,70.0,32,35,0.0,65.0
1474,71.0,33,27,0.0,68.0
1475,59.0,10,196,0.0,41.0
1476,56.0,0,201,0.0,31.0
1477,64.0,37,36,0.0,60.0
1478,55.0,13,89,0.0,30.0
1479,58.0,4,106,0.0,30.0
1480,63.0,46,114,0.0,60.0
1481,62.0,153,26,0.0,55.0
1482,63.0,31,24,0.0,59.0
1483,64.0,35,33,0.0,64.0
1484,66.0,28,27,0.0,64.0
1485,68.0,34,26,0.0,64.0
1486,70.0,31,51,0.0,64.0
1487,71.0,37,27,0.0,66.0
1488,59.0,4,200,0.0,40.0
1489,64.0,35,34,0.0,68.0
1490,56.0,2,202,0.0,41.0
1491,63.0,49,113,0.0,60.0
1492,58.0,8,113,0.0,42.0
1493,55.0,7,106,0.0,48.0
1494,61.0,173,25,0.0,56.0
1495,62.0,37,33,0.0,58.0
1496,64.0,41,29,0.0,64.0
1497,66.0,28,27,0.0,63.0
1498,67.0,34,26,0.0,63.0
1499,68.0,35,26,0.0,67.0
1500,69.0,41,27,0.0,64.0
1501,54.0,2,212,0.0,35.0
1502,62.0,42,38,0.0,60.0
1503,57.0,3,222,0.0,42.0
1504,53.0,8,122,0.0,37.0
1505,56.0,4,131,0.0,36.0
1506,61.0,58,176,0.0,57.0
1507,59.0,189,35,0.0,41.0
1508,61.0,40,44,0.0,50.0
1509,62.0,54,49,0.0,56.0
1510,64.0,42,29,0.0,58.0
1511,65.0,45,24,0.0,54.0
1512,66.0,44,50,0.0,54.0
1513,52.0,0,188,0.0,34.0
1514,67.0,67,48,0.0,58.0
1515,55.0,4,257,0.0,28.0
1516,48.0,13,55,0.0,42.0
1517,58.0,55,35,0.0,54.0
1518,41.0,13,77,0.0,46.0
1519,57.0,101,95,0.0,50.0
1520,72.0,196,60,0.0,54.0
1521,60.0,24,61,0.0,43.0
1522,53.0,2,99,0.0,33.0
1523,60.0,4,105,0.0,31.0
1524,69.0,1,110,0.0,45.0
1525,72.0,126,130,0.0,57.0
1526,69.0,9,33,0.0,40.0
1527,60.0,0,36,0.0,36.0
1528,53.0,1,35,0.0,42.0
1529,72.0,198,49,0.0,73.0
1530,53.0,1,83,0.0,39.0
1531,60.0,7,98,0.0,32.0
1532,76.0,117,113,0.0,74.0
1533,70.0,2,126,0.0,46.0
1534,74.0,130,37,0.0,74.0
1535,53.0,4,39,0.0,47.0
1536,60.0,2,40,0.0,40.0
1537,70.0,2,45,0.0,51.0
1538,72.0,54,54,0.0,82.0
1539,53.0,3,73,0.0,43.0
1540,77.0,115,82,0.0,82.0
1541,69.0,5,82,0.0,56.0
1542,60.0,0,79,0.0,42.0
1543,74.0,192,51,0.0,75.0
1544,65.0,2,45,0.0,54.0
1545,58.0,5,50,0.0,39.0
1546,57.0,5,72,0.0,42.0
1547,72.0,116,85,0.0,76.0
1548,65.0,3,91,0.0,52.0
1549,57.0,7,48,0.0,32.0
1550,48.0,0,53,0.0,46.0
1551,64.0,6,70,0.0,52.0
1552,69.0,191,81,0.0,69.0
1553,57.0,1,87,0.0,25.0
1554,50.0,13,92,0.0,42.0
1555,65.0,112,109,0.0,68.0
1556,60.0,0,97,0.0,38.0
1557,50.0,3,34,0.0,43.0
1558,65.0,7,41,0.0,54.0
1559,58.0,3,57,0.0,43.0
1560,67.0,194,61,0.0,70.0
1561,43.0,2,48,0.0,49.0
1562,48.0,5,113,0.0,56.0
1563,64.0,3,127,0.0,59.0
1564,58.0,2,130,0.0,39.0
1565,67.0,118,269,0.0,73.0
1566,48.0,3,52,0.0,43.0
1567,58.0,209,61,0.0,30.0
1568,62.0,0,71,0.0,41.0
1569,41.0,6,89,0.0,44.0
1570,69.0,137,101,0.0,66.0
1571,53.0,0,104,0.0,34.0
1572,60.0,4,116,0.0,39.0
1573,53.0,2,40,0.0,45.0
1574,46.0,8,47,0.0,47.0
1575,62.0,3,57,0.0,48.0
1576,70.0,190,69,0.0,63.0
1577,53.0,0,97,0.0,38.0
1578,48.0,0,117,0.0,53.0
1579,69.0,113,137,0.0,68.0
1580,60.0,10,149,0.0,45.0
1581,62.0,10,40,0.0,39.0
1582,46.0,2,49,0.0,34.0
1583,53.0,3,50,0.0,35.0
1584,65.0,203,74,0.0,59.0
1585,60.0,13,85,0.0,34.0
1586,69.0,117,99,0.0,61.0
1587,48.0,1,96,0.0,40.0
1588,53.0,1,99,0.0,31.0
1589,53.0,0,40,0.0,30.0
1590,50.0,14,41,0.0,40.0
1591,58.0,4,55,0.0,35.0
1592,70.0,195,70,0.0,54.0
1593,53.0,2,130,0.0,27.0
1594,48.0,1,135,0.0,38.0
1595,69.0,136,155,0.0,58.0
1596,60.0,8,265,0.0,36.0
1597,67.0,220,47,0.0,54.0
1598,53.0,3,273,0.0,29.0
1599,46.0,3,280,0.0,32.0
1600,62.0,9,313,0.0,39.0
1601,65.0,105,327,0.0,48.0
1602,48.0,5,63,0.0,34.0
1603,57.0,1,64,0.0,22.0
1604,72.0,954,109,0.0,68.0
1605,64.0,10,120,0.0,33.0
1606,65.0,2,36,0.0,52.0
1607,57.0,1,37,0.0,33.0
1608,50.0,3,40,0.0,46.0
1609,69.0,197,77,0.0,69.0
1610,64.0,1,63,0.0,51.0
1611,52.0,5,85,0.0,44.0
1612,57.0,7,93,0.0,34.0
1613,72.0,114,118,0.0,77.0
1614,62.0,3,42,0.0,58.0
1615,74.0,177,48,0.0,79.0
1616,57.0,5,40,0.0,36.0
1617,53.0,3,40,0.0,44.0
1618,57.0,6,102,0.0,29.0
1619,72.0,109,113,0.0,74.0
1620,52.0,1,117,0.0,38.0
1621,64.0,1,139,0.0,52.0
1622,71.0,144,35,0.0,71.0
1623,65.0,0,45,0.0,56.0
1624,57.0,4,50,0.0,38.0
1625,50.0,1,51,0.0,46.0
1626,69.0,50,71,0.0,71.0
1627,64.0,1,75,0.0,50.0
1628,57.0,5,88,0.0,39.0
1629,52.0,1,89,0.0,47.0
1630,72.0,118,107,0.0,77.0
1631,57.0,0,38,0.0,41.0
1632,53.0,3,42,0.0,43.0
1633,74.0,179,52,0.0,77.0
1634,62.0,4,48,0.0,55.0
1635,52.0,1,71,0.0,50.0
1636,57.0,0,79,0.0,40.0
1637,72.0,112,101,0.0,80.0
1638,64.0,5,137,0.0,56.0
1639,71.0,137,38,0.0,72.0
1640,52.0,2,16,0.0,43.0
1641,69.0,57,33,0.0,82.0
1642,60.0,5,28,0.0,46.0
1643,64.0,3,38,0.0,60.0
1644,52.0,5,102,0.0,42.0
1645,64.0,0,141,0.0,62.0
1646,62.0,4,145,0.0,59.0
1647,69.0,3,161,0.0,64.0
1648,52.0,1,45,0.0,48.0
1649,62.0,7,77,0.0,41.0
1650,68.0,213,89,0.0,50.0
1651,64.0,2,84,0.0,45.0
1652,71.0,118,318,0.0,75.0
1653,45.0,21,72,0.0,33.0
1654,64.0,5,111,0.0,43.0
1655,60.0,0,119,0.0,43.0
1656,60.0,0,46,0.0,43.0
1657,64.0,202,47,0.0,40.0
1658,45.0,3,47,0.0,39.0
1659,69.0,134,289,0.0,68.0
1660,42.0,9,95,0.0,43.0
1661,69.0,6,114,0.0,52.0
1662,63.0,1,113,0.0,36.0
1663,42.0,5,36,0.0,36.0
1664,63.0,1,43,0.0,38.0
1665,69.0,210,62,0.0,44.0
1666,72.0,177,312,0.0,77.0
1667,72.0,18,45,0.0,64.0
1668,67.0,17,123,0.0,54.0
1669,70.0,45,86,0.0,71.0
1670,62.0,103,191,0.0,54.0
1671,43.0,15,185,0.0,43.0
1672,66.0,0,21,0.0,40.0
1673,60.0,0,23,0.0,47.0
1674,69.0,0,42,0.0,63.0
1675,45.0,180,43,0.0,47.0
1676,62.0,4,71,0.0,51.0
1677,67.0,62,96,0.0,66.0
1678,46.0,6,118,0.0,50.0
1679,48.0,1,94,0.0,55.0
1680,64.0,5,99,0.0,40.0
1681,58.0,5,106,0.0,32.0
1682,64.0,207,40,0.0,44.0
1683,36.0,0,50,0.0,37.0
1684,58.0,2,58,0.0,34.0
1685,69.0,123,280,0.0,68.0
1686,48.0,5,60,0.0,41.0
1687,41.0,4,82,0.0,31.0
1688,48.0,8,79,0.0,33.0
1689,57.0,3,96,0.0,38.0
1690,57.0,207,36,0.0,42.0
1691,41.0,3,42,0.0,39.0
1692,65.0,143,273,0.0,59.0
1693,42.0,0,109,0.0,40.0
1694,63.0,3,121,0.0,29.0
1695,69.0,7,139,0.0,48.0
1696,42.0,5,42,0.0,26.0
1697,63.0,207,56,0.0,37.0
1698,69.0,1,98,0.0,39.0
1699,72.0,197,326,0.0,66.0
1700,72.0,28,41,0.0,62.0
1701,67.0,36,95,0.0,53.0
1702,70.0,43,89,0.0,59.0
1703,62.0,114,220,0.0,55.0
1704,43.0,4,231,0.0,41.0
1705,60.0,0,27,0.0,41.0
1706,66.0,0,37,0.0,38.0
1707,45.0,190,40,0.0,47.0
1708,69.0,0,44,0.0,58.0
1709,67.0,65,75,0.0,61.0
1710,62.0,7,73,0.0,56.0
1711,46.0,1,127,0.0,44.0
1712,64.0,8,92,0.0,47.0
1713,58.0,2,104,0.0,34.0
1714,48.0,1,110,0.0,54.0
1715,69.0,130,236,0.0,65.0
1716,64.0,208,63,0.0,41.0
1717,58.0,2,68,0.0,26.0
1718,48.0,0,72,0.0,74.0
1719,48.0,150,178,0.0,66.0
1720,46.0,161,53,0.0,55.0
1721,57.0,0,314,0.0,39.0
1722,45.0,59,115,0.0,74.0
1723,63.0,4,351,0.0,48.0
1724,51.0,5,90,0.0,57.0
1725,66.0,5,580,0.0,57.0
1726,60.0,127,260,0.0,42.0
1727,51.0,193,71,0.0,65.0
1728,48.0,7,135,0.0,62.0
1729,46.0,143,43,0.0,48.0
1730,45.0,54,115,0.0,66.0
1731,57.0,5,330,0.0,46.0
1732,63.0,1,348,0.0,50.0
1733,51.0,129,97,0.0,50.0
1734,66.0,126,555,0.0,57.0
1735,60.0,1,270,0.0,48.0
1736,51.0,203,86,0.0,56.0
1737,48.0,8,157,0.0,55.0
1738,46.0,200,53,0.0,43.0
1739,56.0,1,284,0.0,46.0
1740,63.0,1,349,0.0,46.0
1741,58.0,193,142,0.0,38.0
1742,60.0,5,141,0.0,25.0
1743,58.0,207,54,0.0,42.0
1744,66.0,155,891,0.0,58.0
1745,58.0,12,96,0.0,37.0
1746,61.0,108,208,0.0,48.0
1747,65.0,179,67,0.0,63.0
1748,56.0,1,85,0.0,42.0
1749,54.0,5,75,0.0,46.0
1750,70.0,115,101,0.0,62.0
1751,60.0,0,204,0.0,41.0
1752,54.0,6,45,0.0,46.0
1753,70.0,169,57,0.0,73.0
1754,63.0,9,261,0.0,44.0
1755,70.0,102,140,0.0,71.0
1756,54.0,0,131,0.0,38.0
1757,44.0,87,1304,0.0,39.0
1758,61.0,12,201,0.0,39.0
1759,68.0,163,43,0.0,74.0
1760,53.0,15,42,0.0,47.0
1761,66.0,39,90,0.0,72.0
1762,58.0,4,97,0.0,39.0
1763,60.0,7,164,0.0,56.0
1764,66.0,165,49,0.0,73.0
1765,58.0,11,51,0.0,34.0
1766,58.0,3,72,0.0,37.0
1767,66.0,96,135,0.0,76.0
1768,61.0,10,173,0.0,47.0
1769,56.0,5,34,0.0,48.0
1770,65.0,160,51,0.0,79.0
1771,70.0,107,77,0.0,78.0
1772,54.0,5,95,0.0,37.0
1773,63.0,1,192,0.0,46.0
1774,59.0,4,213,0.0,53.0
1775,70.0,1,50,0.0,74.0
1776,54.0,177,60,0.0,40.0
1777,54.0,4,146,0.0,29.0
1778,70.0,144,166,0.0,61.0
1779,59.0,0,234,0.0,40.0
1780,62.0,6,259,0.0,47.0
1781,44.0,63,1227,0.0,35.0
1782,53.0,16,67,0.0,42.0
1783,68.0,202,190,0.0,55.0
1784,59.0,2,123,0.0,58.0
1785,62.0,158,299,0.0,37.0
1786,59.0,189,129,0.0,68.0
1787,56.0,129,120,0.0,60.0
1788,54.0,127,41,0.0,61.0
1789,71.0,3,215,0.0,51.0
1790,65.0,1,221,0.0,38.0
1791,53.0,51,114,0.0,67.0
1792,59.0,0,106,0.0,73.0
1793,62.0,9,292,0.0,49.0
1794,59.0,202,128,0.0,58.0
1795,68.0,113,340,0.0,55.0
1796,65.0,1,140,0.0,38.0
1797,56.0,154,150,0.0,42.0
1798,63.0,120,89,0.0,65.0
1799,63.0,170,71,0.0,68.0
1800,71.0,4,620,0.0,39.0
1801,63.0,6,88,0.0,53.0
1802,66.0,115,186,0.0,50.0
1803,61.0,5,50,0.0,48.0
1804,70.0,160,93,0.0,77.0
1805,75.0,106,90,0.0,79.0
1806,59.0,9,86,0.0,52.0
1807,65.0,3,161,0.0,53.0
1808,68.0,0,188,0.0,55.0
1809,59.0,12,21,0.0,42.0
1810,75.0,155,46,0.0,82.0
1811,59.0,4,103,0.0,43.0
1812,75.0,100,123,0.0,72.0
1813,49.0,220,1122,0.0,54.0
1814,66.0,9,175,0.0,53.0
1815,73.0,2,42,0.0,80.0
1816,58.0,148,49,0.0,38.0
1817,71.0,53,70,0.0,80.0
1818,63.0,5,80,0.0,56.0
1819,65.0,0,153,0.0,60.0
1820,71.0,157,41,0.0,82.0
1821,63.0,3,39,0.0,61.0
1822,63.0,4,53,0.0,49.0
1823,71.0,105,150,0.0,75.0
1824,66.0,3,166,0.0,54.0
1825,61.0,10,40,0.0,48.0
1826,70.0,161,52,0.0,75.0
1827,75.0,106,76,0.0,83.0
1828,59.0,2,68,0.0,57.0
1829,68.0,6,162,0.0,55.0
1830,65.0,1,189,0.0,58.0
1831,59.0,7,38,0.0,55.0
1832,75.0,165,56,0.0,89.0
1833,75.0,109,170,0.0,85.0
1834,67.0,1,179,0.0,64.0
1835,59.0,12,172,0.0,46.0
1836,49.0,65,1096,0.0,46.0
1837,64.0,8,197,0.0,67.0
1838,73.0,0,35,0.0,79.0
1839,58.0,165,62,0.0,51.0
1840,70.0,4,10,0.0,50.0
1841,67.0,0,25,0.0,75.0
1842,52.0,7,18,0.0,42.0
1843,79.0,0,38,0.0,87.0
1844,73.0,114,40,0.0,72.0
1845,64.0,5,95,0.0,60.0
1846,73.0,110,10,0.0,47.0
1847,80.0,0,17,0.0,84.0
1848,68.0,0,22,0.0,76.0
1849,69.0,0,12,0.0,74.0
1850,73.0,37,23,0.0,67.0
1851,64.0,2,18,0.0,68.0
1852,81.0,3,25,0.0,85.0
1853,52.0,10,15,0.0,41.0
1854,76.0,3,12,0.0,69.0
1855,61.0,92,24,0.0,73.0
1856,49.0,0,25,0.0,75.0
1857,79.0,3,46,0.0,76.0
1858,82.0,0,51,0.0,81.0
1859,70.0,0,51,0.0,72.0
1860,83.0,103,10,0.0,73.0
1861,79.0,0,11,0.0,61.0
1862,71.0,2,13,0.0,48.0
1863,59.0,4,10,0.0,60.0
1864,76.0,3,11,0.0,40.0
1865,47.0,5,11,0.0,44.0
1866,76.0,3,10,0.0,81.0
1867,71.0,0,11,0.0,68.0
1868,46.0,2,11,0.0,76.0
1869,72.0,0,15,0.0,66.0
1870,79.0,0,23,0.0,72.0
1871,58.0,2,20,0.0,68.0
1872,84.0,23,34,0.0,89.0
1873,55.0,1,31,0.0,77.0
1874,73.0,1,52,0.0,89.0
1875,82.0,2,51,0.0,75.0
1876,85.0,87,56,0.0,96.0
1877,67.0,6,72,0.0,81.0
1878,86.0,101,12,0.0,74.0
1879,82.0,2,11,0.0,48.0
1880,74.0,1,12,0.0,55.0
1881,55.0,4,11,0.0,71.0
1882,67.0,31,20,0.0,82.0
1883,75.0,0,40,0.0,90.0
1884,87.0,1,67,0.0,97.0
1885,52.0,2,32,0.0,72.0
1886,64.0,3,34,0.0,81.0
1887,76.0,1,37,0.0,89.0
1888,88.0,93,52,0.0,102.0
1889,85.0,0,70,0.0,84.0
1890,82.0,2,68,0.0,77.0
1891,77.0,0,12,0.0,73.0
1892,62.0,2,15,0.0,67.0
1893,89.0,93,20,0.0,94.0
1894,50.0,9,10,0.0,58.0
1895,49.0,24,20,0.0,82.0
1896,92.0,9,11,0.0,32.0
1897,61.0,1,12,0.0,36.0
1898,78.0,1,28,0.0,95.0
1899,90.0,1,60,0.0,93.0
1900,61.0,2,11,0.0,76.0
1901,73.0,2,15,0.0,99.0
1902,79.0,1,22,0.0,97.0
1903,91.0,84,46,0.0,105.0
1904,87.0,0,46,0.0,79.0
1905,80.0,2,10,0.0,81.0
1906,87.0,2,11,0.0,65.0
1907,92.0,104,16,0.0,102.0
1908,87.0,1,12,0.0,71.0
1909,55.0,0,23,0.0,92.0
1910,81.0,1,24,0.0,95.0
1911,43.0,3,22,0.0,85.0
1912,93.0,36,47,0.0,100.0
1913,55.0,6,20,0.0,93.0
1914,94.0,94,32,0.0,100.0
1915,43.0,3,22,0.0,83.0
1916,87.0,2,31,0.0,85.0
1917,82.0,0,33,0.0,92.0
1918,53.0,2,11,0.0,74.0
1919,65.0,1,13,0.0,80.0
1920,41.0,2,16,0.0,79.0
1921,77.0,121,23,0.0,96.0
1922,51.0,7,15,0.0,97.0
1923,63.0,38,22,0.0,102.0
1924,39.0,0,19,0.0,81.0
1925,75.0,0,37,0.0,95.0
1926,58.0,5,62,0.0,85.0
1927,70.0,0,69,0.0,85.0
1928,46.0,5,69,0.0,71.0
1929,82.0,129,87,0.0,103.0
1930,91.0,219,73,0.0,105.0
1931,79.0,2,81,0.0,90.0
1932,86.0,1,93,0.0,88.0
1933,86.0,3,64,0.0,82.0
1934,89.0,126,74,0.0,105.0
1935,77.0,1,80,0.0,94.0
1936,34.0,1,210,0.0,74.0
1937,46.0,7,212,0.0,85.0
1938,38.0,6,10,0.0,63.0
1939,77.0,3,25,0.0,77.0
1940,82.0,2,30,0.0,76.0
1941,50.0,0,22,0.0,80.0
1942,86.0,169,35,0.0,93.0
1943,74.0,0,37,0.0,82.0
1944,74.0,3,64,0.0,84.0
1945,43.0,1,66,0.0,73.0
1946,70.0,2,80,0.0,82.0
1947,55.0,5,74,0.0,79.0
1948,82.0,105,96,0.0,93.0
1949,53.0,3,20,0.0,83.0
1950,77.0,1,24,0.0,84.0
1951,72.0,0,26,0.0,92.0
1952,81.0,3,27,0.0,83.0
1953,41.0,0,23,0.0,76.0
1954,84.0,156,49,0.0,97.0
1955,46.0,2,11,0.0,70.0
1956,34.0,4,27,0.0,76.0
1957,86.0,1,37,0.0,99.0
1958,77.0,0,41,0.0,90.0
1959,82.0,95,45,0.0,83.0
1960,74.0,0,50,0.0,92.0
1961,45.0,108,12,0.0,80.0
1962,33.0,3,18,0.0,62.0
1963,31.0,3,8,0.0,81.0
1964,43.0,4,19,0.0,90.0
1965,74.0,4,28,0.0,86.0
1966,79.0,1,28,0.0,84.0
1967,70.0,2,40,0.0,89.0
1968,82.0,33,45,0.0,91.0
1969,70.0,0,52,0.0,71.0
1970,67.0,0,60,0.0,81.0
1971,75.0,3,62,0.0,72.0
1972,79.0,93,74,0.0,92.0
1973,39.0,2,74,0.0,78.0
1974,51.0,4,87,0.0,91.0
1975,69.0,1,24,0.0,85.0
1976,50.0,2,20,0.0,83.0
1977,38.0,1,21,0.0,78.0
1978,74.0,2,33,0.0,82.0
1979,78.0,3,40,0.0,78.0
1980,81.0,150,49,0.0,94.0
1981,43.0,2,20,0.0,93.0
1982,31.0,3,17,0.0,78.0
1983,74.0,1,28,0.0,84.0
1984,79.0,1,29,0.0,74.0
1985,82.0,92,45,0.0,87.0
1986,70.0,3,42,0.0,80.0
1987,41.0,100,13,0.0,79.0
1988,29.0,9,10,0.0,52.0
1989,39.0,3,15,0.0,86.0
1990,27.0,2,20,0.0,85.0
1991,67.0,0,25,0.0,84.0
1992,75.0,3,27,0.0,77.0
1993,79.0,25,30,0.0,97.0
1994,70.0,1,35,0.0,80.0
1995,68.0,1,76,0.0,76.0
1996,75.0,97,89,0.0,96.0
1997,63.0,3,86,0.0,83.0
1998,48.0,6,83,0.0,87.0
1999,36.0,4,84,0.0,70.0
2000,65.0,0,59,0.0,76.0
2001,34.0,1,57,0.0,80.0
2002,70.0,0,64,0.0,69.0
2003,74.0,4,66,0.0,75.0
2004,77.0,175,76,0.0,96.0
2005,46.0,4,68,0.0,89.0
2006,33.0,0,51,0.0,68.0
2007,45.0,3,55,0.0,78.0
2008,59.0,188,40,0.0,74.0
2009,71.0,1,370,0.0,70.0
2010,75.0,5,374,0.0,68.0
2011,59.0,110,78,0.0,68.0
2012,78.0,155,394,0.0,88.0
2013,66.0,0,406,0.0,75.0
2014,59.0,165,44,0.0,69.0
2015,59.0,4,68,0.0,46.0
2016,59.0,161,53,0.0,54.0
2017,59.0,113,51,0.0,53.0
2018,66.0,0,366,0.0,44.0
2019,63.0,2,452,0.0,43.0
2020,59.0,174,150,0.0,68.0
2021,63.0,123,154,0.0,67.0
2022,61.0,116,37,0.0,61.0
2023,71.0,108,784,0.0,66.0
2024,45.0,24,185,0.0,54.0
2025,59.0,40,48,0.0,77.0
2026,64.0,3,100,0.0,65.0
2027,59.0,1,195,0.0,49.0
2028,61.0,165,59,0.0,65.0
2029,44.0,11,262,0.0,42.0
2030,71.0,125,284,0.0,62.0
2031,59.0,1,105,0.0,61.0
2032,57.0,174,201,0.0,60.0
2033,63.0,2,451,0.0,52.0
2034,54.0,112,172,0.0,64.0
2035,42.0,6,464,0.0,42.0
2036,47.0,195,103,0.0,65.0
2037,69.0,125,787,0.0,68.0
2038,68.0,179,73,0.0,58.0
2039,64.0,130,298,0.0,52.0
2040,40.0,7,455,0.0,42.0
2041,59.0,3,519,0.0,36.0
2042,41.0,191,43,0.0,51.0
2043,67.0,110,235,0.0,65.0
2044,43.0,149,79,0.0,53.0
2045,43.0,174,40,0.0,70.0
2046,43.0,122,50,0.0,56.0
2047,65.0,0,493,0.0,44.0
2048,59.0,0,494,0.0,40.0
2049,55.0,0,501,0.0,45.0
2050,62.0,0,510,0.0,45.0
2051,67.0,0,510,0.0,41.0
2052,43.0,178,50,0.0,69.0
2053,47.0,6,108,0.0,61.0
2054,45.0,131,49,0.0,63.0
2055,65.0,3,201,0.0,55.0
2056,62.0,2,230,0.0,46.0
2057,55.0,3,232,0.0,58.0
2058,67.0,117,248,0.0,55.0
2059,43.0,52,106,0.0,68.0
2060,48.0,132,154,0.0,73.0
2061,45.0,188,107,0.0,66.0
2062,43.0,122,131,0.0,55.0
2063,40.0,196,64,0.0,45.0
2064,36.0,138,115,0.0,47.0
2065,64.0,2,855,0.0,48.0
2066,60.0,0,889,0.0,47.0
2067,33.0,236,48,0.0,36.0
2068,55.0,0,1249,0.0,40.0
2069,31.0,0,205,0.0,33.0
2070,59.0,189,237,0.0,28.0
2071,65.0,0,281,0.0,33.0
2072,67.0,3,1367,0.0,37.0
2073,57.0,312,149,0.0,43.0
2074,57.0,167,62,0.0,57.0
2075,57.0,2,81,0.0,54.0
2076,60.0,118,152,0.0,35.0
2077,55.0,5,26,0.0,44.0
2078,64.0,124,45,0.0,66.0
2079,69.0,82,80,0.0,68.0
2080,53.0,0,73,0.0,41.0
2081,59.0,5,141,0.0,42.0
2082,53.0,8,17,0.0,44.0
2083,62.0,3,150,0.0,46.0
2084,69.0,125,37,0.0,80.0
2085,69.0,79,108,0.0,67.0
2086,53.0,4,120,0.0,30.0
2087,43.0,11,567,0.0,55.0
2088,67.0,128,20,0.0,63.0
2089,60.0,4,155,0.0,42.0
2090,52.0,3,27,0.0,47.0
2091,65.0,33,65,0.0,73.0
2092,57.0,8,67,0.0,44.0
2093,59.0,2,133,0.0,46.0
2094,65.0,125,37,0.0,79.0
2095,57.0,9,30,0.0,48.0
2096,57.0,1,54,0.0,44.0
2097,65.0,78,118,0.0,74.0
2098,60.0,7,141,0.0,54.0
2099,64.0,120,34,0.0,78.0
2100,55.0,9,38,0.0,50.0
2101,69.0,86,75,0.0,76.0
2102,53.0,1,67,0.0,40.0
2103,62.0,5,92,0.0,47.0
2104,58.0,4,183,0.0,40.0
2105,69.0,142,39,0.0,74.0
2106,53.0,7,32,0.0,39.0
2107,69.0,95,86,0.0,54.0
2108,61.0,2,104,0.0,38.0
2109,53.0,5,155,0.0,36.0
2110,43.0,57,948,0.0,40.0
2111,52.0,0,47,0.0,36.0
2112,67.0,176,67,0.0,41.0
2113,58.0,5,251,0.0,23.0
2114,61.0,3,71,0.0,10.0
2115,58.0,111,93,0.0,49.0
2116,61.0,3,190,0.0,44.0
2117,58.0,147,46,0.0,58.0
2118,55.0,1,94,0.0,75.0
2119,53.0,104,30,0.0,65.0
2120,58.0,90,173,0.0,43.0
2121,61.0,24,50,0.0,1.0
2122,52.0,11,61,0.0,69.0
2123,58.0,103,85,0.0,53.0
2124,67.0,3,190,0.0,39.0
2125,61.0,3,254,0.0,25.0
2126,58.0,149,111,0.0,46.0
2127,64.0,4,71,0.0,34.0
2128,70.0,122,86,0.0,39.0
2129,55.0,6,174,0.0,45.0
2130,62.0,113,88,0.0,60.0
2131,62.0,137,50,0.0,68.0
2132,62.0,1,73,0.0,56.0
2133,65.0,87,139,0.0,63.0
2134,69.0,122,47,0.0,74.0
2135,60.0,10,65,0.0,39.0
2136,74.0,78,74,0.0,77.0
2137,58.0,1,72,0.0,32.0
2138,64.0,0,149,0.0,41.0
2139,67.0,7,163,0.0,49.0
2140,58.0,7,28,0.0,32.0
2141,74.0,129,43,0.0,82.0
2142,58.0,2,72,0.0,36.0
2143,74.0,80,101,0.0,79.0
2144,48.0,173,907,0.0,56.0
2145,65.0,6,139,0.0,51.0
2146,72.0,121,25,0.0,84.0
2147,57.0,5,39,0.0,56.0
2148,70.0,36,69,0.0,69.0
2149,62.0,5,75,0.0,58.0
2150,64.0,5,151,0.0,56.0
2151,62.0,5,32,0.0,55.0
2152,70.0,125,46,0.0,76.0
2153,62.0,2,46,0.0,54.0
2154,70.0,79,105,0.0,73.0
2155,65.0,5,131,0.0,60.0
2156,69.0,118,30,0.0,82.0
2157,60.0,5,35,0.0,56.0
2158,74.0,85,63,0.0,82.0
2159,58.0,8,59,0.0,43.0
2160,67.0,1,92,0.0,59.0
2161,64.0,2,148,0.0,53.0
2162,58.0,10,25,0.0,50.0
2163,74.0,121,36,0.0,90.0
2164,48.0,59,740,0.0,51.0
2165,66.0,0,77,0.0,63.0
2166,74.0,84,102,0.0,90.0
2167,58.0,1,120,0.0,60.0
2168,63.0,5,137,0.0,59.0
2169,72.0,124,22,0.0,88.0
2170,57.0,0,25,0.0,61.0
2171,69.0,2,5,0.0,67.0
2172,51.0,3,10,0.0,59.0
2173,72.0,3,20,0.0,76.0
2174,66.0,1,24,0.0,71.0
2175,78.0,95,36,0.0,85.0
2176,63.0,1,62,0.0,67.0
2177,79.0,84,8,0.0,83.0
2178,72.0,3,9,0.0,70.0
2179,67.0,3,11,0.0,39.0
2180,63.0,20,12,0.0,62.0
2181,51.0,5,9,0.0,44.0
2182,72.0,1,19,0.0,82.0
2183,68.0,0,24,0.0,70.0
2184,80.0,1,32,0.0,86.0
2185,69.0,4,17,0.0,78.0
2186,60.0,2,19,0.0,77.0
2187,48.0,0,23,0.0,74.0
2188,81.0,73,30,0.0,90.0
2189,75.0,1,29,0.0,67.0
2190,78.0,0,33,0.0,68.0
2191,78.0,0,9,0.0,56.0
2192,46.0,0,9,0.0,61.0
2193,75.0,0,9,0.0,52.0
2194,58.0,0,10,0.0,55.0
2195,82.0,78,16,0.0,78.0
2196,70.0,0,16,0.0,71.0
2197,45.0,4,7,0.0,69.0
2198,57.0,6,11,0.0,70.0
2199,71.0,3,17,0.0,89.0
2200,75.0,0,35,0.0,65.0
2201,83.0,0,33,0.0,97.0
2202,78.0,26,46,0.0,77.0
2203,72.0,0,12,0.0,85.0
2204,81.0,3,19,0.0,75.0
2205,75.0,63,23,0.0,86.0
2206,54.0,7,17,0.0,69.0
2207,66.0,0,18,0.0,77.0
2208,84.0,0,30,0.0,93.0
2209,73.0,0,11,0.0,69.0
2210,81.0,2,14,0.0,72.0
2211,85.0,77,17,0.0,81.0
2212,54.0,3,17,0.0,73.0
2213,66.0,21,20,0.0,71.0
2214,74.0,1,17,0.0,84.0
2215,81.0,2,18,0.0,78.0
2216,86.0,2,28,0.0,92.0
2217,51.0,3,21,0.0,76.0
2218,63.0,4,24,0.0,85.0
2219,75.0,0,45,0.0,84.0
2220,81.0,1,50,0.0,82.0
2221,87.0,66,54,0.0,92.0
2222,61.0,4,9,0.0,65.0
2223,76.0,0,9,0.0,66.0
2224,81.0,0,9,0.0,62.0
2225,88.0,67,16,0.0,86.0
2226,49.0,4,8,0.0,51.0
2227,88.0,3,7,0.0,82.0
2228,77.0,1,10,0.0,70.0
2229,76.0,0,12,0.0,62.0
2230,81.0,23,17,0.0,71.0
2231,48.0,1,8,0.0,81.0
2232,89.0,0,28,0.0,94.0
2233,60.0,5,21,0.0,84.0
2234,60.0,3,9,0.0,75.0
2235,72.0,3,13,0.0,88.0
2236,78.0,1,35,0.0,95.0
2237,90.0,68,49,0.0,95.0
2238,87.0,0,56,0.0,78.0
2239,79.0,4,9,0.0,77.0
2240,87.0,3,8,0.0,46.0
2241,91.0,70,15,0.0,89.0
2242,54.0,26,12,0.0,85.0
2243,42.0,1,13,0.0,80.0
2244,80.0,0,23,0.0,96.0
2245,92.0,1,39,0.0,103.0
2246,87.0,3,50,0.0,55.0
2247,83.0,2,9,0.0,62.0
2248,92.0,1,9,0.0,40.0
2249,54.0,4,12,0.0,95.0
2250,81.0,1,16,0.0,88.0
2251,93.0,74,18,0.0,105.0
2252,42.0,0,16,0.0,89.0
2253,87.0,0,25,0.0,77.0
2254,65.0,92,8,0.0,82.0
2255,53.0,0,8,0.0,78.0
2256,77.0,0,8,0.0,96.0
2257,73.0,2,7,0.0,45.0
2258,41.0,3,12,0.0,75.0
2259,63.0,26,16,0.0,99.0
2260,73.0,3,7,0.0,44.0
2261,51.0,2,13,0.0,89.0
2262,39.0,3,16,0.0,83.0
2263,75.0,1,24,0.0,95.0
2264,57.0,9,51,0.0,84.0
2265,69.0,88,65,0.0,102.0
2266,45.0,0,59,0.0,86.0
2267,81.0,0,79,0.0,107.0
2268,81.0,0,30,0.0,85.0
2269,30.0,1,35,0.0,75.0
2270,84.0,0,45,0.0,86.0
2271,74.0,1,49,0.0,92.0
2272,86.0,168,51,0.0,99.0
2273,42.0,1,55,0.0,90.0
2274,79.0,2,51,0.0,84.0
2275,31.0,1,50,0.0,80.0
2276,86.0,89,60,0.0,99.0
2277,82.0,3,62,0.0,76.0
2278,43.0,4,57,0.0,86.0
2279,74.0,0,70,0.0,88.0
2280,74.0,4,8,0.0,77.0
2281,79.0,0,11,0.0,69.0
2282,38.0,1,10,0.0,71.0
2283,82.0,123,28,0.0,83.0
2284,50.0,2,21,0.0,78.0
2285,70.0,1,31,0.0,82.0
2286,70.0,1,40,0.0,73.0
2287,67.0,3,38,0.0,82.0
2288,43.0,2,40,0.0,75.0
2289,55.0,3,45,0.0,79.0
2290,79.0,78,55,0.0,99.0
2291,69.0,4,19,0.0,83.0
2292,53.0,1,19,0.0,82.0
2293,41.0,2,18,0.0,74.0
2294,74.0,1,23,0.0,83.0
2295,81.0,112,35,0.0,94.0
2296,52.0,3,19,0.0,82.0
2297,74.0,0,22,0.0,83.0
2298,79.0,3,22,0.0,80.0
2299,40.0,2,20,0.0,74.0
2300,82.0,73,35,0.0,89.0
2301,70.0,4,40,0.0,85.0
2302,50.0,77,9,0.0,68.0
2303,38.0,10,8,0.0,26.0
2304,49.0,1,15,0.0,87.0
2305,37.0,19,17,0.0,85.0
2306,76.0,2,18,0.0,75.0
2307,67.0,0,26,0.0,85.0
2308,79.0,0,27,0.0,97.0
2309,70.0,1,35,0.0,77.0
2310,64.0,1,26,0.0,82.0
2311,70.0,1,32,0.0,70.0
2312,46.0,1,30,0.0,85.0
2313,76.0,75,40,0.0,96.0
2314,73.0,1,44,0.0,75.0
2315,58.0,3,52,0.0,88.0
2316,45.0,4,9,0.0,73.0
2317,57.0,2,16,0.0,71.0
2318,66.0,2,23,0.0,85.0
2319,72.0,2,28,0.0,79.0
2320,78.0,113,40,0.0,90.0
2321,75.0,1,40,0.0,74.0
2322,34.0,0,9,0.0,67.0
2323,46.0,66,10,0.0,71.0
2324,79.0,0,25,0.0,92.0
2325,74.0,0,25,0.0,86.0
2326,67.0,0,31,0.0,82.0
2327,45.0,0,10,0.0,86.0
2328,33.0,80,10,0.0,75.0
2329,64.0,1,20,0.0,88.0
2330,31.0,4,9,0.0,69.0
2331,43.0,10,15,0.0,87.0
2332,70.0,0,26,0.0,83.0
2333,76.0,29,30,0.0,99.0
2334,61.0,0,44,0.0,88.0
2335,40.0,8,46,0.0,68.0
2336,73.0,69,58,0.0,93.0
2337,52.0,0,55,0.0,76.0
2338,70.0,1,66,0.0,81.0
2339,67.0,2,73,0.0,82.0
2340,62.0,3,22,0.0,84.0
2341,38.0,1,22,0.0,71.0
2342,50.0,1,23,0.0,86.0
2343,74.0,109,33,0.0,94.0
2344,67.0,3,32,0.0,77.0
2345,70.0,0,38,0.0,75.0
2346,63.0,0,34,0.0,84.0
2347,69.0,1,35,0.0,84.0
2348,75.0,74,46,0.0,91.0
2349,67.0,2,46,0.0,76.0
2350,37.0,1,68,0.0,77.0
2351,49.0,2,85,0.0,89.0
2352,65.0,2,10,0.0,45.0
2353,48.0,43,17,0.0,86.0
2354,36.0,3,19,0.0,70.0
2355,64.0,2,86,0.0,66.0
2356,67.0,2,103,0.0,53.0
2357,69.0,1,101,0.0,74.0
2358,70.0,4,108,0.0,34.0
2359,35.0,3,13,0.0,71.0
2360,47.0,57,18,0.0,80.0
2361,76.0,68,154,0.0,94.0
2362,46.0,57,21,0.0,84.0
2363,34.0,1,25,0.0,74.0
2364,33.0,2,46,0.0,79.0
2365,45.0,59,53,0.0,94.0
2366,33.0,0,13,0.0,75.0
2367,45.0,0,16,0.0,89.0
2368,93.0,69,35,0.0,105.0
2369,89.0,1,36,0.0,90.0
2370,88.0,36,35,0.0,92.0
2371,38.0,2,15,0.0,61.0
2372,50.0,7,22,0.0,74.0
2373,86.0,30,32,0.0,82.0
2374,81.0,24,15,0.0,81.0
2375,79.0,2,8,0.0,40.0
2376,81.0,1,9,0.0,80.0
2377,40.0,1,13,0.0,65.0
2378,77.0,1,19,0.0,72.0
2379,52.0,35,22,0.0,72.0
2380,76.0,26,26,0.0,78.0
2381,74.0,31,32,0.0,79.0
2382,69.0,24,15,0.0,80.0
2383,69.0,2,8,0.0,73.0
2384,65.0,36,18,0.0,59.0
2385,41.0,2,105,0.0,73.0
2386,64.0,26,24,0.0,76.0
2387,53.0,8,122,0.0,82.0
2388,62.0,32,23,0.0,72.0
2389,57.0,32,16,0.0,72.0
2390,58.0,40,17,0.0,79.0
2391,55.0,5,22,0.0,62.0
2392,61.0,4,10,0.0,57.0
2393,70.0,27,20,0.0,71.0
2394,52.0,1,21,0.0,62.0
2395,45.0,30,9,0.0,66.0
2396,61.0,0,18,0.0,67.0
2397,64.0,4,8,0.0,53.0
2398,73.0,33,20,0.0,75.0
2399,58.0,3,24,0.0,44.0
2400,64.0,4,18,0.0,75.0
2401,55.0,21,28,0.0,60.0
2402,67.0,33,6,0.0,77.0
2403,45.0,0,7,0.0,55.0
2404,76.0,1,11,0.0,51.0
2405,67.0,28,18,0.0,96.0
2406,61.0,6,16,0.0,65.0
2407,55.0,1,56,0.0,25.0
2408,70.0,26,13,0.0,67.0
2409,79.0,1,14,0.0,90.0
2410,47.0,18,7,0.0,32.0
2411,64.0,6,8,0.0,72.0
2412,70.0,15,19,0.0,97.0
2413,73.0,2,7,0.0,75.0
2414,82.0,26,20,0.0,86.0
2415,73.0,31,21,0.0,89.0
2416,76.0,4,6,0.0,82.0
2417,85.0,31,19,0.0,84.0
2418,33.0,2,10,0.0,66.0
2419,45.0,1,19,0.0,86.0
2420,93.0,64,30,0.0,102.0
2421,89.0,2,29,0.0,89.0
2422,88.0,33,30,0.0,88.0
2423,38.0,1,17,0.0,66.0
2424,86.0,32,32,0.0,83.0
2425,50.0,5,27,0.0,79.0
2426,81.0,25,15,0.0,85.0
2427,81.0,30,19,0.0,71.0
2428,77.0,1,21,0.0,82.0
2429,40.0,1,19,0.0,66.0
2430,52.0,3,30,0.0,82.0
2431,76.0,26,30,0.0,83.0
2432,74.0,30,34,0.0,80.0
2433,69.0,30,17,0.0,83.0
2434,69.0,34,18,0.0,71.0
2435,65.0,3,17,0.0,64.0
2436,41.0,1,111,0.0,72.0
2437,64.0,28,26,0.0,75.0
2438,53.0,3,138,0.0,84.0
2439,62.0,32,23,0.0,75.0
2440,57.0,32,13,0.0,64.0
2441,61.0,38,19,0.0,85.0
2442,58.0,4,24,0.0,58.0
2443,64.0,4,6,0.0,63.0
2444,73.0,30,20,0.0,77.0
2445,55.0,1,18,0.0,64.0
2446,45.0,5,9,0.0,63.0
2447,64.0,29,17,0.0,86.0
2448,67.0,30,7,0.0,76.0
2449,76.0,1,15,0.0,56.0
2450,61.0,10,23,0.0,58.0
2451,67.0,20,19,0.0,92.0
2452,55.0,9,16,0.0,64.0
2453,70.0,22,15,0.0,77.0
2454,45.0,9,8,0.0,63.0
2455,79.0,0,17,0.0,90.0
2456,70.0,25,18,0.0,95.0
2457,64.0,5,14,0.0,70.0
2458,73.0,28,15,0.0,85.0
2459,45.0,10,7,0.0,64.0
2460,82.0,0,17,0.0,72.0
2461,85.0,4,8,0.0,42.0
2462,67.0,5,13,0.0,80.0
2463,73.0,23,19,0.0,91.0
2464,76.0,4,13,0.0,89.0
2465,85.0,21,24,0.0,72.0
2466,76.0,31,23,0.0,89.0
2467,79.0,30,10,0.0,83.0
2468,88.0,3,16,0.0,96.0
2469,33.0,1,15,0.0,69.0
2470,45.0,0,18,0.0,82.0
2471,98.0,1,29,0.0,97.0
2472,89.0,65,32,0.0,99.0
2473,93.0,40,28,0.0,83.0
2474,38.0,5,15,0.0,58.0
2475,50.0,0,20,0.0,66.0
2476,89.0,32,28,0.0,84.0
2477,86.0,27,19,0.0,65.0
2478,86.0,1,16,0.0,73.0
2479,93.0,31,20,0.0,90.0
2480,40.0,0,19,0.0,59.0
2481,52.0,0,27,0.0,72.0
2482,89.0,31,30,0.0,72.0
2483,55.0,3,23,0.0,80.0
2484,43.0,4,19,0.0,69.0
2485,86.0,28,28,0.0,81.0
2486,81.0,25,20,0.0,81.0
2487,41.0,1,15,0.0,63.0
2488,53.0,5,17,0.0,74.0
2489,89.0,31,27,0.0,93.0
2490,81.0,2,27,0.0,80.0
2491,86.0,29,27,0.0,78.0
2492,44.0,1,13,0.0,68.0
2493,56.0,27,15,0.0,74.0
2494,81.0,0,25,0.0,81.0
2495,77.0,28,20,0.0,84.0
2496,47.0,2,18,0.0,66.0
2497,77.0,34,23,0.0,77.0
2498,86.0,0,26,0.0,83.0
2499,59.0,1,25,0.0,74.0
2500,83.0,30,33,0.0,77.0
2501,45.0,1,15,0.0,77.0
2502,57.0,5,16,0.0,74.0
2503,77.0,28,25,0.0,83.0
2504,74.0,24,21,0.0,82.0
2505,49.0,1,13,0.0,82.0
2506,61.0,30,16,0.0,86.0
2507,74.0,3,17,0.0,79.0
2508,83.0,0,25,0.0,86.0
2509,77.0,30,30,0.0,81.0
2510,52.0,1,16,0.0,82.0
2511,64.0,25,22,0.0,84.0
2512,74.0,1,27,0.0,82.0
2513,69.0,31,20,0.0,65.0
2514,69.0,3,20,0.0,46.0
2515,77.0,1,25,0.0,80.0
2516,62.0,30,58,0.0,86.0
2517,50.0,3,67,0.0,89.0
2518,74.0,32,31,0.0,74.0
2519,69.0,30,24,0.0,75.0
2520,65.0,31,24,0.0,68.0
2521,32.0,0,13,0.0,75.0
2522,44.0,42,16,0.0,91.0
2523,65.0,1,18,0.0,68.0
2524,74.0,1,25,0.0,85.0
2525,71.0,31,30,0.0,66.0
2526,38.0,3,12,0.0,73.0
2527,50.0,2,20,0.0,80.0
2528,65.0,30,25,0.0,77.0
2529,62.0,27,20,0.0,77.0
2530,40.0,1,15,0.0,77.0
2531,52.0,30,25,0.0,84.0
2532,62.0,0,23,0.0,72.0
2533,71.0,2,25,0.0,77.0
2534,65.0,33,30,0.0,76.0
2535,62.0,1,33,0.0,79.0
2536,59.0,32,23,0.0,76.0
2537,59.0,3,9,0.0,65.0
2538,65.0,38,16,0.0,80.0
2539,53.0,30,107,0.0,84.0
2540,41.0,3,118,0.0,82.0
2541,62.0,25,28,0.0,80.0
2542,59.0,30,25,0.0,73.0
2543,53.0,30,22,0.0,82.0
2544,59.0,2,23,0.0,78.0
2545,64.0,38,26,0.0,82.0
2546,62.0,29,31,0.0,70.0
2547,59.0,29,26,0.0,71.0
2548,52.0,28,20,0.0,70.0
2549,59.0,33,20,0.0,85.0
2550,65.0,2,25,0.0,83.0
2551,32.0,1,159,0.0,60.0
2552,44.0,3,170,0.0,72.0
2553,62.0,33,42,0.0,82.0
2554,59.0,31,23,0.0,76.0
2555,52.0,29,21,0.0,78.0
2556,64.0,34,26,0.0,89.0
2557,56.0,0,27,0.0,76.0
2558,36.0,3,28,0.0,68.0
2559,48.0,0,32,0.0,78.0
2560,35.0,3,19,0.0,70.0
2561,62.0,29,60,0.0,73.0
2562,47.0,1,25,0.0,85.0
2563,56.0,35,34,0.0,73.0
2564,52.0,31,6,0.0,88.0
2565,33.0,0,17,0.0,81.0
2566,45.0,74,25,0.0,105.0
2567,89.0,2,22,0.0,71.0
2568,93.0,2,27,0.0,90.0
2569,88.0,33,29,0.0,92.0
2570,40.0,0,16,0.0,74.0
2571,52.0,0,20,0.0,81.0
2572,84.0,34,31,0.0,82.0
2573,81.0,30,19,0.0,78.0
2574,81.0,0,17,0.0,63.0
2575,59.0,0,18,0.0,84.0
2576,47.0,0,19,0.0,78.0
2577,77.0,41,20,0.0,74.0
2578,76.0,29,26,0.0,76.0
2579,72.0,28,33,0.0,79.0
2580,69.0,35,13,0.0,78.0
2581,48.0,0,48,0.0,83.0
2582,60.0,0,51,0.0,87.0
2583,69.0,31,17,0.0,67.0
2584,65.0,0,19,0.0,66.0
2585,64.0,35,20,0.0,70.0
2586,60.0,27,28,0.0,70.0
2587,57.0,32,17,0.0,70.0
2588,56.0,37,18,0.0,77.0
2589,53.0,4,24,0.0,60.0
2590,59.0,0,7,0.0,56.0
2591,50.0,0,16,0.0,64.0
2592,68.0,30,21,0.0,61.0
2593,45.0,1,6,0.0,68.0
2594,59.0,30,19,0.0,73.0
2595,62.0,0,9,0.0,73.0
2596,71.0,1,19,0.0,79.0
2597,56.0,29,29,0.0,54.0
2598,62.0,31,19,0.0,87.0
2599,65.0,26,11,0.0,76.0
2600,45.0,2,14,0.0,54.0
2601,74.0,0,17,0.0,49.0
2602,53.0,7,61,0.0,54.0
2603,59.0,0,10,0.0,64.0
2604,65.0,28,20,0.0,87.0
2605,53.0,31,8,0.0,62.0
2606,77.0,0,13,0.0,80.0
2607,68.0,0,25,0.0,75.0
2608,68.0,29,19,0.0,97.0
2609,45.0,0,25,0.0,75.0
2610,62.0,0,14,0.0,80.0
2611,80.0,32,22,0.0,87.0
2612,71.0,0,25,0.0,75.0
2613,71.0,34,25,0.0,90.0
2614,74.0,33,7,0.0,75.0
2615,83.0,0,12,0.0,75.0
2616,33.0,1,15,0.0,66.0
2617,45.0,1,15,0.0,87.0
2618,93.0,61,22,0.0,105.0
2619,89.0,0,24,0.0,93.0
2620,88.0,34,29,0.0,84.0
2621,40.0,1,14,0.0,64.0
2622,52.0,4,18,0.0,78.0
2623,84.0,31,34,0.0,86.0
2624,81.0,27,16,0.0,74.0
2625,47.0,3,12,0.0,73.0
2626,59.0,1,18,0.0,76.0
2627,81.0,30,21,0.0,69.0
2628,77.0,2,20,0.0,82.0
2629,76.0,27,28,0.0,80.0
2630,72.0,24,35,0.0,85.0
2631,69.0,25,18,0.0,75.0
2632,48.0,2,43,0.0,82.0
2633,60.0,8,48,0.0,83.0
2634,69.0,33,18,0.0,66.0
2635,65.0,5,18,0.0,66.0
2636,64.0,27,25,0.0,65.0
2637,60.0,28,22,0.0,54.0
2638,57.0,30,11,0.0,60.0
2639,59.0,37,16,0.0,69.0
2640,56.0,3,20,0.0,44.0
2641,62.0,6,9,0.0,44.0
2642,71.0,27,19,0.0,72.0
2643,53.0,5,12,0.0,49.0
2644,45.0,5,8,0.0,63.0
2645,62.0,22,17,0.0,72.0
2646,65.0,28,7,0.0,77.0
2647,74.0,2,16,0.0,81.0
2648,59.0,1,16,0.0,58.0
2649,65.0,26,19,0.0,85.0
2650,53.0,4,34,0.0,58.0
2651,68.0,21,14,0.0,71.0
2652,77.0,1,15,0.0,85.0
2653,45.0,0,17,0.0,69.0
2654,68.0,32,15,0.0,92.0
2655,62.0,1,16,0.0,76.0
2656,45.0,7,8,0.0,75.0
2657,80.0,29,20,0.0,88.0
2658,65.0,2,11,0.0,74.0
2659,71.0,26,18,0.0,97.0
2660,74.0,28,15,0.0,90.0
2661,83.0,0,22,0.0,94.0
2662,74.0,33,20,0.0,90.0
2663,77.0,4,6,0.0,68.0
2664,86.0,27,17,0.0,85.0
2665,95.0,5,6,0.0,44.0
2666,33.0,0,16,0.0,70.0
2667,45.0,1,20,0.0,85.0
2668,93.0,3,22,0.0,99.0
2669,100.0,65,29,0.0,96.0
2670,96.0,32,28,0.0,90.0
2671,40.0,1,16,0.0,64.0
2672,52.0,2,18,0.0,74.0
2673,93.0,35,25,0.0,99.0
2674,88.0,29,22,0.0,84.0
2675,56.0,30,15,0.0,73.0
2676,44.0,0,16,0.0,70.0
2677,88.0,0,20,0.0,77.0
2678,96.0,2,23,0.0,86.0
2679,93.0,33,26,0.0,87.0
2680,47.0,5,10,0.0,72.0
2681,59.0,25,21,0.0,74.0
2682,88.0,1,26,0.0,86.0
2683,84.0,30,22,0.0,79.0
2684,86.0,0,6,0.0,44.0
2685,45.0,0,17,0.0,52.0
2686,93.0,2,19,0.0,78.0
2687,84.0,3,19,0.0,75.0
2688,57.0,30,32,0.0,73.0
2689,88.0,29,26,0.0,83.0
2690,47.0,2,18,0.0,60.0
2691,59.0,4,26,0.0,70.0
2692,84.0,31,30,0.0,85.0
2693,81.0,23,23,0.0,80.0
2694,50.0,1,16,0.0,74.0
2695,88.0,31,26,0.0,88.0
2696,62.0,2,23,0.0,80.0
2697,81.0,2,27,0.0,79.0
2698,84.0,29,33,0.0,84.0
2699,48.0,5,7,0.0,66.0
2700,60.0,1,21,0.0,72.0
2701,81.0,30,26,0.0,82.0
2702,76.0,22,24,0.0,81.0
2703,63.0,0,16,0.0,90.0
2704,51.0,29,16,0.0,86.0
2705,76.0,2,17,0.0,73.0
2706,84.0,6,23,0.0,76.0
2707,81.0,28,30,0.0,76.0
2708,53.0,4,17,0.0,70.0
2709,76.0,0,28,0.0,82.0
2710,65.0,29,31,0.0,87.0
2711,72.0,29,23,0.0,83.0
2712,72.0,6,13,0.0,50.0
2713,81.0,5,25,0.0,78.0
2714,64.0,28,57,0.0,94.0
2715,52.0,3,64,0.0,89.0
2716,76.0,25,35,0.0,81.0
2717,72.0,28,25,0.0,80.0
2718,69.0,30,25,0.0,72.0
2719,69.0,1,23,0.0,60.0
2720,76.0,40,27,0.0,80.0
2721,72.0,32,33,0.0,73.0
2722,69.0,27,23,0.0,76.0
2723,64.0,28,18,0.0,70.0
2724,64.0,33,17,0.0,69.0
2725,72.0,2,16,0.0,78.0
2726,69.0,31,37,0.0,70.0
2727,64.0,30,25,0.0,79.0
2728,60.0,31,19,0.0,76.0
2729,60.0,3,15,0.0,66.0
2730,69.0,30,18,0.0,75.0
2731,64.0,28,30,0.0,74.0
2732,31.0,0,306,0.0,81.0
2733,43.0,2,311,0.0,99.0
2734,60.0,30,25,0.0,74.0
2735,57.0,27,17,0.0,68.0
2736,57.0,0,20,0.0,69.0
2737,64.0,1,22,0.0,77.0
2738,60.0,29,29,0.0,69.0
2739,57.0,30,18,0.0,60.0
2740,52.0,21,15,0.0,79.0
2741,60.0,39,6,0.0,73.0
2742,69.0,1,15,0.0,70.0
2743,30.0,2,157,0.0,70.0
2744,42.0,30,161,0.0,62.0
2745,64.0,30,42,0.0,82.0
2746,60.0,30,29,0.0,79.0
2747,57.0,28,18,0.0,74.0
2748,57.0,1,18,0.0,64.0
2749,64.0,32,21,0.0,80.0
2750,60.0,32,27,0.0,66.0
2751,29.0,4,131,0.0,65.0
2752,41.0,0,137,0.0,65.0
2753,57.0,32,19,0.0,61.0
2754,52.0,29,9,0.0,61.0
2755,60.0,3,28,0.0,58.0
2756,64.0,51,45,0.0,66.0
2757,59.0,35,25,0.0,46.0
2758,65.0,2,26,0.0,63.0
2759,60.0,2,26,0.0,61.0
2760,64.0,33,35,0.0,69.0
2761,28.0,3,105,0.0,60.0
2762,40.0,0,122,0.0,53.0
2763,57.0,0,24,0.0,60.0
2764,65.0,33,27,0.0,72.0
2765,60.0,2,23,0.0,54.0
2766,64.0,35,32,0.0,67.0
2767,65.0,31,25,0.0,70.0
2768,59.0,1,25,0.0,58.0
2769,60.0,38,25,0.0,63.0
2770,64.0,0,31,0.0,70.0
2771,65.0,30,25,0.0,70.0
2772,57.0,3,25,0.0,55.0
2773,60.0,0,23,0.0,55.0
2774,64.0,34,32,0.0,66.0
2775,40.0,1,99,0.0,51.0
2776,52.0,2,108,0.0,63.0
2777,65.0,32,24,0.0,68.0
2778,59.0,1,29,0.0,54.0
2779,52.0,34,23,0.0,68.0
2780,60.0,0,22,0.0,64.0
2781,40.0,1,22,0.0,53.0
2782,64.0,3,28,0.0,70.0
2783,65.0,31,25,0.0,68.0
2784,57.0,1,27,0.0,55.0
2785,60.0,0,25,0.0,58.0
2786,64.0,37,30,0.0,64.0
2787,36.0,2,42,0.0,60.0
2788,65.0,29,25,0.0,68.0
2789,59.0,3,25,0.0,58.0
2790,48.0,1,71,0.0,80.0
2791,60.0,0,25,0.0,63.0
2792,64.0,37,33,0.0,68.0
2793,47.0,33,13,0.0,81.0
2794,35.0,2,15,0.0,67.0
2795,65.0,1,20,0.0,69.0
2796,57.0,2,22,0.0,58.0
2797,33.0,1,10,0.0,66.0
2798,45.0,0,17,0.0,84.0
2799,60.0,30,25,0.0,68.0
2800,64.0,0,32,0.0,71.0
2801,65.0,34,26,0.0,74.0
2802,59.0,2,28,0.0,60.0
2803,60.0,39,24,0.0,66.0
2804,64.0,0,31,0.0,77.0
2805,65.0,30,22,0.0,68.0
2806,57.0,1,25,0.0,60.0
2807,52.0,4,70,0.0,78.0
2808,40.0,1,77,0.0,66.0
2809,60.0,3,18,0.0,62.0
2810,64.0,35,26,0.0,68.0
2811,65.0,31,24,0.0,67.0
2812,59.0,1,25,0.0,64.0
2813,60.0,34,15,0.0,56.0
2814,64.0,0,29,0.0,68.0
2815,65.0,34,25,0.0,70.0
2816,57.0,5,23,0.0,58.0
2817,60.0,6,12,0.0,46.0
2818,63.0,37,35,0.0,73.0
2819,59.0,1,20,0.0,62.0
2820,66.0,34,29,0.0,64.0
2821,28.0,0,80,0.0,70.0
2822,60.0,2,11,0.0,60.0
2823,40.0,0,99,0.0,66.0
2824,63.0,35,29,0.0,64.0
2825,57.0,0,10,0.0,53.0
2826,66.0,30,23,0.0,59.0
2827,60.0,4,11,0.0,43.0
2828,63.0,36,29,0.0,58.0
2829,59.0,2,19,0.0,55.0
2830,66.0,25,27,0.0,60.0
2831,60.0,1,17,0.0,58.0
2832,63.0,35,33,0.0,65.0
2833,57.0,29,20,0.0,59.0
2834,66.0,0,28,0.0,58.0
2835,60.0,4,14,0.0,56.0
2836,40.0,2,91,0.0,59.0
2837,63.0,38,29,0.0,67.0
2838,52.0,1,104,0.0,75.0
2839,59.0,2,21,0.0,53.0
2840,66.0,26,29,0.0,63.0
2841,52.0,35,17,0.0,82.0
2842,40.0,0,19,0.0,68.0
2843,60.0,1,21,0.0,71.0
2844,63.0,1,32,0.0,69.0
2845,57.0,3,24,0.0,60.0
2846,66.0,33,35,0.0,65.0
2847,60.0,2,20,0.0,61.0
2848,36.0,3,26,0.0,68.0
2849,48.0,0,30,0.0,85.0
2850,63.0,37,33,0.0,67.0
2851,59.0,0,27,0.0,57.0
2852,66.0,28,33,0.0,59.0
2853,60.0,3,20,0.0,64.0
2854,63.0,39,34,0.0,64.0
2855,35.0,3,12,0.0,63.0
2856,47.0,27,15,0.0,79.0
2857,57.0,4,22,0.0,59.0
2858,66.0,1,29,0.0,64.0
2859,33.0,1,6,0.0,59.0
2860,45.0,26,21,0.0,81.0
2861,60.0,2,22,0.0,64.0
2862,63.0,4,37,0.0,71.0
2863,59.0,2,24,0.0,63.0
2864,66.0,33,30,0.0,69.0
2865,60.0,3,27,0.0,66.0
2866,63.0,2,40,0.0,69.0
2867,57.0,5,23,0.0,60.0
2868,66.0,31,29,0.0,65.0
2869,60.0,3,13,0.0,53.0
2870,52.0,32,93,0.0,81.0
2871,40.0,1,104,0.0,67.0
2872,63.0,33,33,0.0,60.0
2873,59.0,0,22,0.0,60.0
2874,66.0,30,24,0.0,61.0
2875,60.0,4,14,0.0,44.0
2876,63.0,34,31,0.0,53.0
2877,57.0,7,10,0.0,53.0
2878,66.0,27,25,0.0,61.0
2879,60.0,40,27,0.0,61.0
2880,64.0,1,34,0.0,68.0
2881,59.0,31,23,0.0,50.0
2882,69.0,4,30,0.0,69.0
2883,60.0,2,14,0.0,56.0
2884,28.0,0,85,0.0,70.0
2885,64.0,33,25,0.0,64.0
2886,40.0,1,94,0.0,65.0
2887,57.0,29,19,0.0,55.0
2888,69.0,2,18,0.0,57.0
2889,60.0,0,16,0.0,48.0
2890,64.0,33,21,0.0,61.0
2891,59.0,29,22,0.0,54.0
2892,69.0,3,22,0.0,64.0
2893,60.0,1,20,0.0,53.0
2894,64.0,2,28,0.0,62.0
2895,57.0,30,22,0.0,54.0
2896,69.0,3,21,0.0,64.0
2897,40.0,3,78,0.0,70.0
2898,60.0,3,14,0.0,58.0
2899,52.0,34,91,0.0,83.0
2900,64.0,34,26,0.0,68.0
2901,59.0,27,23,0.0,48.0
2902,69.0,2,24,0.0,64.0
2903,60.0,1,19,0.0,62.0
2904,64.0,3,27,0.0,67.0
2905,40.0,2,39,0.0,69.0
2906,52.0,33,51,0.0,82.0
2907,57.0,31,28,0.0,56.0
2908,69.0,1,28,0.0,64.0
2909,60.0,2,22,0.0,59.0
2910,64.0,38,30,0.0,64.0
2911,40.0,3,42,0.0,70.0
2912,59.0,29,23,0.0,49.0
2913,69.0,1,24,0.0,63.0
2914,52.0,2,58,0.0,81.0
2915,60.0,2,20,0.0,55.0
2916,64.0,33,32,0.0,66.0
2917,38.0,2,8,0.0,65.0
2918,50.0,30,18,0.0,85.0
2919,69.0,5,24,0.0,68.0
2920,57.0,1,25,0.0,57.0
2921,36.0,2,16,0.0,77.0
2922,48.0,29,22,0.0,89.0
2923,60.0,1,24,0.0,64.0
2924,64.0,0,31,0.0,69.0
2925,59.0,33,27,0.0,59.0
2926,69.0,1,33,0.0,72.0
2927,60.0,6,18,0.0,40.0
2928,64.0,0,36,0.0,62.0
2929,57.0,35,20,0.0,51.0
2930,69.0,1,22,0.0,64.0
2931,45.0,1,76,0.0,87.0
2932,60.0,4,14,0.0,43.0
2933,64.0,34,28,0.0,63.0
2934,59.0,30,22,0.0,51.0
2935,69.0,0,25,0.0,57.0
2936,60.0,5,14,0.0,46.0
2937,41.0,4,29,0.0,66.0
2938,64.0,1,28,0.0,59.0
2939,53.0,37,37,0.0,79.0
2940,57.0,2,20,0.0,42.0
2941,69.0,28,25,0.0,59.0
2942,60.0,1,22,0.0,55.0
2943,64.0,35,37,0.0,59.0
2944,52.0,2,43,0.0,75.0
2945,40.0,1,44,0.0,52.0
2946,69.0,36,22,0.0,64.0
2947,59.0,2,20,0.0,55.0
2948,60.0,2,20,0.0,49.0
2949,64.0,33,28,0.0,63.0
2950,57.0,1,20,0.0,55.0
2951,69.0,30,25,0.0,66.0
2952,48.0,30,17,0.0,72.0
2953,36.0,1,20,0.0,63.0
2954,60.0,2,19,0.0,55.0
2955,64.0,3,27,0.0,65.0
2956,59.0,1,20,0.0,51.0
2957,69.0,29,24,0.0,71.0
2958,60.0,2,25,0.0,65.0
2959,64.0,36,30,0.0,66.0
2960,33.0,2,24,0.0,60.0
2961,45.0,5,41,0.0,75.0
2962,57.0,26,25,0.0,59.0
2963,69.0,2,25,0.0,72.0
2964,60.0,1,22,0.0,62.0
2965,64.0,35,30,0.0,70.0
2966,59.0,0,20,0.0,60.0
2967,69.0,32,25,0.0,72.0
2968,35.0,3,20,0.0,62.0
2969,60.0,0,23,0.0,64.0
2970,47.0,34,28,0.0,71.0
2971,64.0,0,28,0.0,74.0
2972,57.0,27,23,0.0,63.0
2973,69.0,3,28,0.0,69.0
2974,60.0,0,22,0.0,65.0
2975,64.0,37,33,0.0,68.0
2976,59.0,31,21,0.0,56.0
2977,69.0,1,24,0.0,60.0
2978,60.0,37,18,0.0,55.0
2979,64.0,1,25,0.0,63.0
2980,57.0,30,22,0.0,55.0
2981,69.0,0,25,0.0,61.0
2982,60.0,2,15,0.0,55.0
2983,64.0,34,26,0.0,67.0
2984,59.0,0,20,0.0,58.0
2985,69.0,29,25,0.0,70.0
2986,60.0,2,20,0.0,66.0
2987,64.0,35,27,0.0,73.0
2988,57.0,28,21,0.0,59.0
2989,69.0,1,29,0.0,66.0
2990,60.0,3,15,0.0,53.0
2991,64.0,36,27,0.0,69.0
2992,59.0,0,20,0.0,53.0
2993,69.0,30,25,0.0,71.0
2994,60.0,0,21,0.0,63.0
2995,64.0,35,27,0.0,65.0
2996,57.0,2,20,0.0,59.0
2997,69.0,32,25,0.0,70.0
2998,39.0,31,6,0.0,28.0
2999,40.0,3,13,0.0,62.0
3000,62.0,0,23,0.0,55.0
3001,41.0,18,7,0.0,33.0
3002,65.0,4,41,0.0,57.0
3003,40.0,11,13,0.0,46.0
3004,41.0,6,10,0.0,37.0
3005,60.0,2,26,0.0,43.0
3006,69.0,8,32,0.0,65.0
3007,40.0,15,12,0.0,55.0
3008,48.0,0,486,0.0,78.0
3009,36.0,4,494,0.0,68.0
3010,41.0,5,13,0.0,48.0
3011,62.0,1,29,0.0,60.0
3012,40.0,13,15,0.0,45.0
3013,65.0,9,38,0.0,66.0
3014,41.0,1,12,0.0,41.0
3015,59.0,2,29,0.0,54.0
3016,40.0,18,12,0.0,41.0
3017,69.0,14,33,0.0,75.0
3018,41.0,4,9,0.0,43.0
3019,40.0,13,12,0.0,40.0
3020,62.0,1,30,0.0,66.0
3021,65.0,11,36,0.0,68.0
3022,41.0,15,11,0.0,51.0
3023,40.0,10,15,0.0,44.0
3024,60.0,2,28,0.0,64.0
3025,69.0,1,32,0.0,76.0
3026,41.0,19,9,0.0,46.0
3027,40.0,7,14,0.0,48.0
3028,62.0,3,25,0.0,67.0
3029,65.0,1,34,0.0,73.0
3030,41.0,17,12,0.0,52.0
3031,40.0,6,18,0.0,52.0
3032,59.0,2,24,0.0,59.0
3033,69.0,5,30,0.0,76.0
3034,41.0,19,13,0.0,54.0
3035,40.0,8,15,0.0,53.0
3036,62.0,1,26,0.0,73.0
3037,65.0,4,34,0.0,74.0
3038,41.0,17,14,0.0,56.0
3039,40.0,8,18,0.0,57.0
3040,60.0,3,27,0.0,64.0
3041,69.0,5,33,0.0,79.0
3042,41.0,20,14,0.0,51.0
3043,62.0,1,24,0.0,68.0
3044,40.0,12,13,0.0,55.0
3045,65.0,2,32,0.0,74.0
3046,41.0,17,15,0.0,47.0
3047,59.0,2,23,0.0,62.0
3048,40.0,13,15,0.0,55.0
3049,69.0,1,31,0.0,77.0
3050,41.0,0,14,0.0,54.0
3051,62.0,2,26,0.0,72.0
3052,40.0,12,15,0.0,46.0
3053,65.0,17,38,0.0,76.0
3054,41.0,18,13,0.0,49.0
3055,60.0,3,17,0.0,62.0
3056,69.0,3,24,0.0,76.0
3057,40.0,12,18,0.0,47.0
3058,62.0,1,15,0.0,64.0
3059,41.0,6,14,0.0,45.0
3060,65.0,13,29,0.0,73.0
3061,40.0,17,17,0.0,51.0
3062,59.0,1,17,0.0,64.0
3063,69.0,7,24,0.0,78.0
3064,41.0,14,15,0.0,32.0
3065,40.0,15,16,0.0,53.0
3066,62.0,2,16,0.0,69.0
3067,41.0,17,10,0.0,49.0
3068,65.0,1,32,0.0,74.0
3069,40.0,0,15,0.0,53.0
3070,60.0,3,17,0.0,68.0
3071,69.0,11,22,0.0,81.0
3072,41.0,19,13,0.0,39.0
3073,40.0,2,13,0.0,59.0
3074,62.0,1,23,0.0,70.0
3075,65.0,12,31,0.0,70.0
3076,41.0,17,14,0.0,49.0
3077,40.0,2,15,0.0,56.0
3078,59.0,0,17,0.0,63.0
3079,69.0,14,24,0.0,77.0
3080,41.0,19,15,0.0,44.0
3081,62.0,1,19,0.0,70.0
3082,40.0,4,15,0.0,58.0
3083,65.0,10,31,0.0,71.0
3084,41.0,19,16,0.0,45.0
3085,60.0,3,19,0.0,68.0
3086,69.0,7,23,0.0,82.0
3087,40.0,7,19,0.0,47.0
3088,41.0,0,12,0.0,49.0
3089,62.0,2,18,0.0,54.0
3090,65.0,22,31,0.0,68.0
3091,40.0,14,16,0.0,51.0
3092,69.0,17,8,0.0,81.0
3093,41.0,3,6,0.0,43.0
3094,59.0,1,8,0.0,62.0
3095,40.0,1,21,0.0,75.0
3096,52.0,34,25,0.0,88.0
3097,41.0,24,11,0.0,42.0
3098,53.0,1,14,0.0,70.0
3099,40.0,13,12,0.0,54.0
3100,52.0,3,13,0.0,67.0
3101,41.0,12,8,0.0,49.0
3102,53.0,2,13,0.0,66.0
3103,40.0,9,11,0.0,47.0
3104,52.0,4,8,0.0,54.0
3105,41.0,8,10,0.0,49.0
3106,53.0,2,12,0.0,61.0
3107,40.0,8,14,0.0,47.0
3108,52.0,4,11,0.0,59.0
3109,41.0,11,10,0.0,49.0
3110,53.0,0,12,0.0,49.0
3111,52.0,2,11,0.0,64.0
3112,40.0,10,13,0.0,49.0
3113,41.0,11,10,0.0,54.0
3114,53.0,2,13,0.0,57.0
3115,40.0,9,11,0.0,53.0
3116,52.0,3,10,0.0,47.0
3117,41.0,11,7,0.0,55.0
3118,53.0,1,14,0.0,57.0
3119,41.0,8,6,0.0,33.0
3120,40.0,9,24,0.0,54.0
3121,52.0,7,20,0.0,56.0
3122,38.0,15,19,0.0,78.0
3123,50.0,1,24,0.0,85.0
3124,40.0,19,11,0.0,58.0
3125,52.0,6,14,0.0,47.0
3126,38.0,10,10,0.0,59.0
3127,50.0,5,10,0.0,72.0
3128,40.0,6,12,0.0,47.0
3129,52.0,7,13,0.0,65.0
3130,38.0,6,11,0.0,56.0
3131,50.0,7,10,0.0,63.0
3132,40.0,4,11,0.0,51.0
3133,52.0,8,12,0.0,60.0
3134,38.0,5,11,0.0,42.0
3135,50.0,8,12,0.0,58.0
3136,40.0,4,11,0.0,48.0
3137,52.0,8,12,0.0,60.0
3138,38.0,2,13,0.0,54.0
3139,50.0,10,11,0.0,59.0
3140,40.0,4,11,0.0,52.0
3141,52.0,6,13,0.0,61.0
3142,38.0,5,11,0.0,55.0
3143,50.0,10,6,0.0,35.0
3144,40.0,3,13,0.0,58.0
3145,52.0,6,11,0.0,59.0
3146,38.0,7,19,0.0,57.0
3147,50.0,3,20,0.0,56.0
3148,36.0,22,20,0.0,62.0
3149,48.0,2,27,0.0,92.0
3150,38.0,20,13,0.0,56.0
3151,50.0,8,12,0.0,58.0
3152,36.0,7,12,0.0,58.0
3153,48.0,6,11,0.0,68.0
3154,38.0,9,10,0.0,56.0
3155,50.0,5,12,0.0,63.0
3156,36.0,6,12,0.0,44.0
3157,48.0,6,11,0.0,64.0
3158,38.0,8,8,0.0,49.0
3159,50.0,3,13,0.0,59.0
3160,36.0,7,13,0.0,48.0
3161,48.0,7,11,0.0,62.0
3162,38.0,6,12,0.0,54.0
3163,50.0,5,13,0.0,68.0
3164,36.0,7,12,0.0,52.0
3165,48.0,7,9,0.0,62.0
3166,38.0,5,11,0.0,55.0
3167,50.0,4,14,0.0,63.0
3168,36.0,7,12,0.0,56.0
3169,48.0,8,7,0.0,39.0
3170,38.0,6,11,0.0,59.0
3171,36.0,10,6,0.0,51.0
3172,50.0,4,16,0.0,55.0
3173,38.0,11,9,0.0,58.0
3174,36.0,9,20,0.0,70.0
3175,48.0,1,23,0.0,24.0
3176,35.0,25,23,0.0,66.0
3177,47.0,1,25,0.0,85.0
3178,36.0,23,12,0.0,59.0
3179,48.0,2,14,0.0,75.0
3180,35.0,12,12,0.0,55.0
3181,47.0,6,9,0.0,59.0
3182,36.0,7,10,0.0,57.0
3183,48.0,3,12,0.0,69.0
3184,35.0,10,12,0.0,60.0
3185,47.0,4,10,0.0,65.0
3186,36.0,8,13,0.0,51.0
3187,48.0,3,12,0.0,64.0
3188,35.0,10,12,0.0,51.0
3189,47.0,4,10,0.0,60.0
3190,36.0,0,11,0.0,51.0
3191,48.0,10,12,0.0,63.0
3192,35.0,12,13,0.0,51.0
3193,47.0,1,13,0.0,55.0
3194,36.0,1,11,0.0,53.0
3195,48.0,12,12,0.0,64.0
3196,35.0,11,13,0.0,51.0
3197,36.0,15,8,0.0,55.0
3198,48.0,1,9,0.0,46.0
3199,35.0,13,19,0.0,54.0
3200,47.0,4,18,0.0,39.0
3201,33.0,0,30,0.0,53.0
3202,45.0,48,39,0.0,59.0
3203,65.0,58,14,0.0,65.0
3204,60.0,1,13,0.0,58.0
3205,60.0,35,23,0.0,55.0
3206,65.0,0,24,0.0,68.0
3207,57.0,3,10,0.0,62.0
3208,63.0,28,20,0.0,68.0
3209,45.0,5,55,0.0,53.0
3210,53.0,3,60,0.0,46.0
3211,52.0,1,6,0.0,51.0
3212,48.0,3,7,0.0,54.0
3213,57.0,1,19,0.0,60.0
3214,63.0,30,25,0.0,54.0
3215,60.0,1,8,0.0,54.0
3216,64.0,35,15,0.0,74.0
3217,29.0,41,14,0.0,64.0
3218,41.0,2,17,0.0,68.0
3219,63.0,33,18,0.0,61.0
3220,71.0,0,18,0.0,78.0
3221,71.0,34,20,0.0,66.0
3222,63.0,1,22,0.0,55.0
3223,59.0,2,14,0.0,62.0
3224,68.0,24,18,0.0,69.0
3225,47.0,3,44,0.0,51.0
3226,55.0,10,53,0.0,59.0
3227,53.0,33,5,0.0,64.0
3228,59.0,2,16,0.0,64.0
3229,68.0,0,23,0.0,71.0
3230,69.0,34,14,0.0,82.0
3231,40.0,0,7,0.0,58.0
3232,52.0,39,15,0.0,73.0
3233,74.0,1,13,0.0,70.0
3234,77.0,31,16,0.0,81.0
3235,74.0,3,17,0.0,74.0
3236,65.0,0,7,0.0,40.0
3237,77.0,30,21,0.0,74.0
3238,68.0,1,12,0.0,56.0
3239,64.0,11,40,0.0,52.0
3240,75.0,24,17,0.0,82.0
3241,68.0,0,18,0.0,73.0
3242,75.0,31,23,0.0,77.0
3243,62.0,3,25,0.0,64.0
3244,59.0,7,25,0.0,38.0
3245,74.0,1,6,0.0,73.0
3246,76.0,24,16,0.0,79.0
3247,74.0,3,20,0.0,70.0
3248,76.0,1,24,0.0,78.0
3249,52.0,29,49,0.0,65.0
3250,68.0,0,15,0.0,65.0
3251,77.0,32,16,0.0,87.0
3252,64.0,0,51,0.0,61.0
3253,68.0,1,16,0.0,62.0
3254,77.0,34,17,0.0,82.0
3255,62.0,3,22,0.0,51.0
3256,59.0,1,25,0.0,46.0
3257,74.0,1,12,0.0,77.0
3258,75.0,29,17,0.0,74.0
3259,64.0,0,8,0.0,62.0
3260,52.0,1,10,0.0,58.0
3261,74.0,4,11,0.0,82.0
3262,75.0,32,25,0.0,76.0
3263,68.0,1,12,0.0,61.0
3264,76.0,34,19,0.0,85.0
3265,45.0,45,14,0.0,75.0
3266,57.0,2,21,0.0,72.0
3267,74.0,1,15,0.0,74.0
3268,76.0,40,16,0.0,76.0
3269,57.0,0,9,0.0,55.0
3270,64.0,1,10,0.0,57.0
3271,74.0,1,15,0.0,68.0
3272,76.0,34,17,0.0,76.0
3273,72.0,4,8,0.0,66.0
3274,77.0,31,19,0.0,82.0
3275,62.0,30,8,0.0,61.0
3276,50.0,1,7,0.0,64.0
3277,77.0,3,11,0.0,83.0
3278,72.0,0,12,0.0,77.0
3279,72.0,3,11,0.0,74.0
3280,78.0,27,17,0.0,76.0
3281,43.0,0,9,0.0,64.0
3282,72.0,0,14,0.0,82.0
3283,55.0,1,16,0.0,65.0
3284,78.0,34,21,0.0,79.0
3285,71.0,2,10,0.0,63.0
3286,79.0,32,14,0.0,82.0
3287,62.0,35,8,0.0,62.0
3288,71.0,0,11,0.0,70.0
3289,55.0,0,11,0.0,64.0
3290,79.0,0,13,0.0,89.0
3291,70.0,1,12,0.0,70.0
3292,74.0,30,17,0.0,87.0
3293,60.0,1,6,0.0,66.0
3294,70.0,3,13,0.0,69.0
3295,48.0,1,14,0.0,70.0
3296,74.0,31,20,0.0,74.0
3297,70.0,30,14,0.0,64.0
3298,76.0,0,18,0.0,76.0
3299,41.0,4,10,0.0,60.0
3300,70.0,0,17,0.0,63.0
3301,76.0,36,20,0.0,72.0
3302,53.0,1,17,0.0,63.0
3303,69.0,30,13,0.0,75.0
3304,77.0,0,17,0.0,88.0
3305,77.0,34,13,0.0,82.0
3306,69.0,1,13,0.0,75.0
3307,53.0,2,18,0.0,53.0
3308,60.0,2,20,0.0,56.0
3309,69.0,0,7,0.0,70.0
3310,72.0,28,12,0.0,84.0
3311,69.0,2,6,0.0,76.0
3312,53.0,0,10,0.0,52.0
3313,72.0,35,16,0.0,87.0
3314,59.0,1,18,0.0,45.0
3315,69.0,1,6,0.0,71.0
3316,74.0,32,18,0.0,83.0
3317,76.0,39,21,0.0,83.0
3318,52.0,2,25,0.0,53.0
3319,60.0,3,28,0.0,54.0
3320,69.0,0,32,0.0,81.0
3321,72.0,32,16,0.0,80.0
3322,72.0,35,23,0.0,74.0
3323,63.0,0,29,0.0,65.0
3324,52.0,1,29,0.0,59.0
3325,54.0,3,45,0.0,53.0
3326,71.0,32,20,0.0,74.0
3327,52.0,1,21,0.0,50.0
3328,56.0,4,22,0.0,45.0
3329,62.0,1,27,0.0,58.0
3330,71.0,47,36,0.0,72.0
3331,64.0,37,8,0.0,68.0
3332,45.0,0,12,0.0,74.0
3333,57.0,45,20,0.0,73.0
3334,72.0,2,11,0.0,68.0
3335,77.0,37,18,0.0,79.0
3336,72.0,2,15,0.0,70.0
3337,77.0,33,18,0.0,70.0
3338,69.0,5,8,0.0,57.0
3339,75.0,30,19,0.0,77.0
3340,65.0,0,51,0.0,60.0
3341,57.0,1,52,0.0,51.0
3342,64.0,27,6,0.0,61.0
3343,60.0,3,8,0.0,52.0
3344,75.0,0,20,0.0,69.0
3345,69.0,4,19,0.0,61.0
3346,76.0,26,13,0.0,80.0
3347,53.0,37,15,0.0,75.0
3348,75.0,1,11,0.0,69.0
3349,83.0,31,14,0.0,83.0
3350,83.0,30,19,0.0,68.0
3351,75.0,3,18,0.0,68.0
3352,71.0,3,15,0.0,62.0
3353,80.0,26,18,0.0,74.0
3354,67.0,5,61,0.0,66.0
3355,59.0,2,63,0.0,60.0
3356,65.0,30,6,0.0,62.0
3357,71.0,4,16,0.0,67.0
3358,80.0,2,24,0.0,83.0
3359,81.0,30,16,0.0,87.0
3360,52.0,38,6,0.0,66.0
3361,64.0,0,15,0.0,73.0
3362,89.0,31,12,0.0,76.0
3363,86.0,1,11,0.0,71.0
3364,89.0,29,19,0.0,81.0
3365,86.0,1,18,0.0,78.0
3366,64.0,0,20,0.0,65.0
3367,76.0,5,28,0.0,71.0
3368,80.0,29,12,0.0,70.0
3369,87.0,0,17,0.0,83.0
3370,80.0,34,17,0.0,73.0
3371,87.0,0,20,0.0,78.0
3372,71.0,1,25,0.0,62.0
3373,74.0,0,30,0.0,66.0
3374,86.0,1,14,0.0,73.0
3375,88.0,30,19,0.0,80.0
3376,86.0,2,16,0.0,81.0
3377,88.0,0,21,0.0,75.0
3378,64.0,2,32,0.0,54.0
3379,76.0,31,38,0.0,65.0
3380,80.0,2,13,0.0,73.0
3381,89.0,31,17,0.0,86.0
3382,80.0,1,16,0.0,77.0
3383,89.0,1,17,0.0,82.0
3384,71.0,0,19,0.0,48.0
3385,74.0,30,22,0.0,59.0
3386,86.0,2,13,0.0,74.0
3387,87.0,31,18,0.0,73.0
3388,86.0,1,5,0.0,65.0
3389,76.0,3,8,0.0,61.0
3390,64.0,2,10,0.0,62.0
3391,87.0,30,26,0.0,71.0
3392,80.0,1,15,0.0,75.0
3393,88.0,31,26,0.0,88.0
3394,57.0,43,15,0.0,71.0
3395,69.0,0,25,0.0,82.0
3396,86.0,1,14,0.0,68.0
3397,88.0,45,16,0.0,74.0
3398,69.0,30,10,0.0,68.0
3399,76.0,0,11,0.0,68.0
3400,86.0,0,18,0.0,68.0
3401,88.0,1,18,0.0,73.0
3402,84.0,3,12,0.0,66.0
3403,89.0,32,18,0.0,82.0
3404,74.0,32,7,0.0,70.0
3405,62.0,1,11,0.0,62.0
3406,89.0,0,12,0.0,79.0
3407,84.0,0,14,0.0,73.0
3408,84.0,2,9,0.0,77.0
3409,90.0,30,17,0.0,76.0
3410,55.0,33,12,0.0,74.0
3411,84.0,1,13,0.0,81.0
3412,67.0,0,18,0.0,77.0
3413,90.0,1,24,0.0,77.0
3414,83.0,1,9,0.0,72.0
3415,91.0,34,14,0.0,82.0
3416,74.0,0,8,0.0,69.0
3417,67.0,0,10,0.0,64.0
3418,83.0,1,12,0.0,74.0
3419,91.0,32,16,0.0,86.0
3420,82.0,1,11,0.0,68.0
3421,86.0,30,17,0.0,82.0
3422,72.0,3,5,0.0,70.0
3423,60.0,2,10,0.0,63.0
3424,82.0,1,15,0.0,69.0
3425,86.0,30,20,0.0,69.0
3426,82.0,1,15,0.0,69.0
3427,88.0,28,19,0.0,80.0
3428,53.0,31,12,0.0,69.0
3429,82.0,0,14,0.0,79.0
3430,65.0,2,17,0.0,73.0
3431,88.0,1,19,0.0,74.0
3432,89.0,35,14,0.0,89.0
3433,81.0,1,13,0.0,75.0
3434,81.0,0,12,0.0,75.0
3435,89.0,31,12,0.0,82.0
3436,72.0,2,16,0.0,64.0
3437,65.0,0,18,0.0,54.0
3438,81.0,0,9,0.0,73.0
3439,84.0,28,13,0.0,82.0
3440,65.0,0,9,0.0,59.0
3441,71.0,1,9,0.0,60.0
3442,81.0,2,13,0.0,78.0
3443,84.0,34,19,0.0,90.0
3444,86.0,31,21,0.0,82.0
3445,52.0,0,14,0.0,66.0
3446,64.0,2,16,0.0,68.0
3447,88.0,36,20,0.0,84.0
3448,81.0,1,24,0.0,81.0
3449,84.0,32,16,0.0,92.0
3450,84.0,0,17,0.0,85.0
3451,75.0,1,21,0.0,72.0
3452,64.0,4,26,0.0,51.0
3453,66.0,38,32,0.0,53.0
3454,83.0,30,17,0.0,83.0
3455,64.0,1,9,0.0,46.0
3456,68.0,37,15,0.0,48.0
3457,74.0,4,19,0.0,60.0
3458,83.0,0,28,0.0,79.0
3459,76.0,31,14,0.0,78.0
3460,45.0,0,21,0.0,75.0
3461,57.0,52,31,0.0,76.0
3462,81.0,2,18,0.0,74.0
3463,84.0,43,22,0.0,81.0
3464,84.0,1,14,0.0,78.0
3465,80.0,41,21,0.0,80.0
3466,79.0,0,14,0.0,73.0
3467,84.0,31,18,0.0,79.0
3468,57.0,0,52,0.0,63.0
3469,69.0,4,55,0.0,68.0
3470,65.0,0,6,0.0,58.0
3471,60.0,4,8,0.0,49.0
3472,84.0,1,14,0.0,75.0
3473,78.0,35,18,0.0,77.0
3474,84.0,30,13,0.0,81.0
3475,77.0,0,16,0.0,84.0
3476,44.0,1,14,0.0,59.0
3477,77.0,1,16,0.0,81.0
3478,56.0,1,16,0.0,61.0
3479,83.0,38,18,0.0,87.0
3480,76.0,2,13,0.0,79.0
3481,83.0,35,17,0.0,88.0
3482,75.0,0,15,0.0,81.0
3483,83.0,32,16,0.0,80.0
3484,56.0,3,32,0.0,53.0
3485,68.0,3,38,0.0,65.0
3486,83.0,28,16,0.0,83.0
3487,76.0,1,16,0.0,82.0
3488,64.0,29,7,0.0,70.0
3489,59.0,0,11,0.0,54.0
3490,77.0,0,13,0.0,88.0
3491,83.0,4,16,0.0,82.0
3492,83.0,31,11,0.0,76.0
3493,76.0,1,11,0.0,82.0
3494,88.0,5,5,0.0,53.0
3495,43.0,0,15,0.0,70.0
3496,87.0,51,24,0.0,85.0
3497,82.0,2,22,0.0,79.0
3498,55.0,0,23,0.0,77.0
3499,79.0,1,14,0.0,84.0
3500,82.0,36,17,0.0,85.0
3501,82.0,0,15,0.0,77.0
3502,78.0,34,16,0.0,73.0
3503,77.0,0,14,0.0,81.0
3504,82.0,25,16,0.0,74.0
3505,67.0,2,49,0.0,66.0
3506,55.0,3,50,0.0,63.0
3507,63.0,34,13,0.0,57.0
3508,82.0,0,14,0.0,86.0
3509,76.0,1,14,0.0,81.0
3510,58.0,1,16,0.0,45.0
3511,75.0,3,12,0.0,78.0
3512,82.0,30,16,0.0,79.0
3513,42.0,0,13,0.0,57.0
3514,54.0,3,13,0.0,73.0
3515,81.0,35,16,0.0,80.0
3516,75.0,0,17,0.0,73.0
3517,74.0,1,12,0.0,83.0
3518,81.0,29,18,0.0,85.0
3519,73.0,34,14,0.0,77.0
3520,81.0,0,18,0.0,77.0
3521,54.0,1,31,0.0,59.0
3522,66.0,3,33,0.0,63.0
3523,81.0,1,16,0.0,80.0
3524,74.0,29,17,0.0,82.0
3525,62.0,32,8,0.0,68.0
3526,57.0,0,10,0.0,53.0
3527,75.0,2,17,0.0,78.0
3528,81.0,1,19,0.0,79.0
3529,74.0,31,21,0.0,85.0
3530,41.0,7,12,0.0,69.0
3531,80.0,41,24,0.0,75.0
3532,85.0,0,25,0.0,85.0
3533,53.0,1,20,0.0,76.0
3534,77.0,4,12,0.0,79.0
3535,80.0,31,20,0.0,78.0
3536,76.0,2,14,0.0,73.0
3537,80.0,29,18,0.0,77.0
3538,80.0,25,17,0.0,79.0
3539,75.0,0,17,0.0,84.0
3540,53.0,1,44,0.0,66.0
3541,65.0,5,46,0.0,66.0
3542,61.0,34,9,0.0,59.0
3543,74.0,1,6,0.0,70.0
3544,56.0,1,13,0.0,51.0
3545,80.0,2,16,0.0,88.0
3546,40.0,35,6,0.0,63.0
3547,73.0,2,46,0.0,80.0
3548,52.0,1,12,0.0,71.0
3549,80.0,32,62,0.0,88.0
3550,52.0,0,10,0.0,59.0
3551,79.0,35,42,0.0,94.0
3552,64.0,31,14,0.0,73.0
3553,72.0,2,18,0.0,71.0
3554,79.0,34,24,0.0,84.0
3555,50.0,10,14,0.0,71.0
3556,65.0,22,12,0.0,74.0
3557,71.0,3,18,0.0,67.0
3558,48.0,20,8,0.0,55.0
3559,64.0,13,12,0.0,82.0
3560,80.0,32,54,0.0,85.0
3561,81.0,34,11,0.0,81.0
3562,69.0,1,17,0.0,73.0
3563,38.0,0,5,0.0,55.0
3564,69.0,1,15,0.0,70.0
3565,50.0,5,15,0.0,69.0
3566,71.0,39,23,0.0,82.0
3567,65.0,3,11,0.0,58.0
3568,77.0,34,26,0.0,87.0
3569,57.0,0,6,0.0,66.0
3570,59.0,32,8,0.0,64.0
3571,50.0,3,13,0.0,60.0
3572,65.0,3,16,0.0,77.0
3573,77.0,32,21,0.0,87.0
3574,38.0,0,7,0.0,67.0
3575,69.0,1,8,0.0,66.0
3576,50.0,1,10,0.0,54.0
3577,71.0,35,22,0.0,79.0
3578,77.0,30,20,0.0,85.0
3579,65.0,3,20,0.0,72.0
3580,52.0,35,13,0.0,82.0
3581,40.0,0,17,0.0,68.0
3582,68.0,1,24,0.0,62.0
3583,71.0,1,27,0.0,76.0
3584,64.0,3,12,0.0,66.0
3585,76.0,31,17,0.0,84.0
3586,33.0,0,11,0.0,70.0
3587,45.0,35,19,0.0,89.0
3588,69.0,2,14,0.0,70.0
3589,72.0,35,19,0.0,82.0
3590,72.0,33,14,0.0,68.0
3591,68.0,0,19,0.0,71.0
3592,67.0,0,14,0.0,70.0
3593,72.0,26,16,0.0,72.0
3594,45.0,2,43,0.0,63.0
3595,57.0,2,48,0.0,59.0
3596,53.0,34,5,0.0,52.0
3597,48.0,2,7,0.0,55.0
3598,72.0,0,12,0.0,74.0
3599,66.0,1,15,0.0,71.0
3600,72.0,1,12,0.0,82.0
3601,65.0,29,13,0.0,79.0
3602,65.0,0,13,0.0,71.0
3603,71.0,35,17,0.0,82.0
3604,32.0,0,16,0.0,72.0
3605,44.0,2,17,0.0,80.0
3606,64.0,1,16,0.0,70.0
3607,71.0,31,19,0.0,68.0
3608,63.0,0,14,0.0,68.0
3609,71.0,35,14,0.0,66.0
3610,44.0,0,36,0.0,61.0
3611,71.0,0,12,0.0,67.0
3612,56.0,5,40,0.0,62.0
3613,64.0,28,13,0.0,74.0
3614,52.0,0,7,0.0,66.0
3615,47.0,2,9,0.0,51.0
3616,65.0,2,12,0.0,68.0
3617,71.0,33,20,0.0,79.0
3618,64.0,29,20,0.0,75.0
3619,31.0,45,12,0.0,70.0
3620,70.0,0,20,0.0,77.0
3621,43.0,0,21,0.0,82.0
3622,75.0,0,26,0.0,86.0
3623,67.0,44,15,0.0,73.0
3624,70.0,0,17,0.0,69.0
3625,65.0,2,13,0.0,60.0
3626,70.0,33,18,0.0,73.0
3627,64.0,5,5,0.0,61.0
3628,66.0,3,6,0.0,44.0
3629,55.0,3,48,0.0,76.0
3630,70.0,28,18,0.0,73.0
3631,43.0,2,47,0.0,64.0
3632,51.0,22,12,0.0,71.0
3633,46.0,4,14,0.0,57.0
3634,64.0,1,15,0.0,78.0
3635,70.0,0,15,0.0,86.0
3636,70.0,0,18,0.0,73.0
3637,63.0,30,19,0.0,78.0
3638,69.0,37,17,0.0,90.0
3639,30.0,1,16,0.0,60.0
3640,63.0,1,15,0.0,56.0
3641,42.0,1,18,0.0,72.0
3642,62.0,30,14,0.0,72.0
3643,69.0,0,18,0.0,73.0
3644,61.0,34,16,0.0,75.0
3645,69.0,3,15,0.0,71.0
3646,42.0,5,33,0.0,51.0
3647,54.0,2,38,0.0,55.0
3648,69.0,1,15,0.0,72.0
3649,62.0,24,16,0.0,77.0
3650,50.0,30,5,0.0,68.0
3651,45.0,0,6,0.0,57.0
3652,63.0,1,16,0.0,71.0
3653,69.0,4,19,0.0,77.0
3654,62.0,30,20,0.0,75.0
3655,29.0,0,10,0.0,62.0
3656,68.0,1,21,0.0,72.0
3657,73.0,38,22,0.0,85.0
3658,41.0,5,19,0.0,74.0
3659,65.0,1,14,0.0,75.0
3660,68.0,30,20,0.0,75.0
3661,64.0,2,15,0.0,70.0
3662,68.0,31,22,0.0,64.0
3663,68.0,17,18,0.0,72.0
3664,63.0,1,18,0.0,75.0
3665,41.0,4,37,0.0,56.0
3666,53.0,11,41,0.0,66.0
3667,49.0,33,9,0.0,55.0
3668,44.0,3,6,0.0,39.0
3669,62.0,1,6,0.0,60.0
3670,68.0,1,19,0.0,81.0
3671,28.0,35,7,0.0,67.0
3672,40.0,2,12,0.0,82.0
3673,61.0,2,59,0.0,69.0
3674,68.0,30,62,0.0,73.0
3675,52.0,32,13,0.0,82.0
3676,67.0,35,46,0.0,86.0
3677,40.0,1,13,0.0,64.0
3678,60.0,3,15,0.0,66.0
3679,67.0,34,21,0.0,73.0
3680,38.0,8,17,0.0,72.0
3681,53.0,24,13,0.0,87.0
3682,59.0,3,17,0.0,68.0
3683,36.0,19,11,0.0,74.0
3684,68.0,33,33,0.0,78.0
3685,52.0,19,11,0.0,82.0
3686,69.0,35,14,0.0,80.0
3687,57.0,4,16,0.0,59.0
3688,26.0,2,8,0.0,58.0
3689,57.0,0,18,0.0,66.0
3690,38.0,0,18,0.0,67.0
3691,59.0,50,27,0.0,71.0
3692,53.0,5,11,0.0,55.0
3693,65.0,38,26,0.0,73.0
3694,47.0,0,6,0.0,70.0
3695,38.0,31,12,0.0,56.0
3696,53.0,4,14,0.0,62.0
3697,65.0,31,24,0.0,73.0
3698,26.0,1,11,0.0,59.0
3699,38.0,1,13,0.0,58.0
3700,57.0,0,17,0.0,63.0
3701,59.0,35,26,0.0,67.0
3702,53.0,5,12,0.0,64.0
3703,65.0,33,22,0.0,74.0
3704,28.0,1,9,0.0,45.0
3705,40.0,2,17,0.0,59.0
3706,56.0,37,25,0.0,57.0
3707,59.0,0,32,0.0,64.0
3708,52.0,6,10,0.0,51.0
3709,64.0,35,21,0.0,70.0
3710,29.0,3,10,0.0,49.0
3711,41.0,1,16,0.0,55.0
3712,57.0,2,25,0.0,45.0
3713,59.0,43,28,0.0,56.0
3714,51.0,1,7,0.0,54.0
3715,63.0,31,11,0.0,77.0
3716,69.0,2,20,0.0,63.0
3717,41.0,2,19,0.0,54.0
3718,71.0,55,27,0.0,68.0
3719,53.0,0,23,0.0,57.0
3720,63.0,2,15,0.0,57.0
3721,75.0,31,24,0.0,76.0
3722,68.0,35,17,0.0,54.0
3723,42.0,2,20,0.0,49.0
3724,72.0,0,25,0.0,73.0
3725,54.0,0,27,0.0,58.0
3726,63.0,3,21,0.0,62.0
3727,75.0,30,25,0.0,71.0
3728,55.0,32,8,0.0,75.0
3729,43.0,0,11,0.0,64.0
3730,67.0,3,16,0.0,79.0
3731,71.0,1,32,0.0,82.0
3732,63.0,2,18,0.0,52.0
3733,75.0,35,25,0.0,71.0
3734,31.0,32,8,0.0,56.0
3735,43.0,1,15,0.0,59.0
3736,67.0,2,10,0.0,40.0
3737,71.0,4,22,0.0,64.0
3738,63.0,4,18,0.0,51.0
3739,75.0,29,26,0.0,70.0
3740,55.0,36,5,0.0,58.0
3741,43.0,1,13,0.0,58.0
3742,67.0,1,15,0.0,46.0
3743,71.0,0,22,0.0,64.0
3744,74.0,30,5,0.0,70.0
3745,62.0,3,9,0.0,60.0
3746,31.0,41,13,0.0,66.0
3747,60.0,1,6,0.0,44.0
3748,43.0,0,18,0.0,74.0
3749,59.0,7,11,0.0,45.0
3750,61.0,1,27,0.0,67.0
3751,53.0,25,6,0.0,67.0
3752,65.0,1,14,0.0,82.0
3753,71.0,3,6,0.0,70.0
3754,43.0,1,16,0.0,63.0
3755,55.0,0,19,0.0,66.0
3756,73.0,41,25,0.0,86.0
3757,65.0,1,19,0.0,82.0
3758,77.0,30,25,0.0,96.0
3759,44.0,1,14,0.0,58.0
3760,70.0,2,20,0.0,65.0
3761,74.0,33,29,0.0,84.0
3762,56.0,2,37,0.0,79.0
3763,65.0,1,22,0.0,79.0
3764,77.0,29,26,0.0,89.0
3765,57.0,1,11,0.0,83.0
3766,45.0,1,14,0.0,72.0
3767,69.0,2,20,0.0,84.0
3768,73.0,37,30,0.0,84.0
3769,65.0,2,18,0.0,73.0
3770,77.0,31,24,0.0,90.0
3771,33.0,1,5,0.0,53.0
3772,45.0,1,16,0.0,68.0
3773,69.0,0,17,0.0,70.0
3774,73.0,35,27,0.0,73.0
3775,77.0,30,23,0.0,82.0
3776,65.0,3,25,0.0,63.0
3777,57.0,0,5,0.0,65.0
3778,45.0,3,8,0.0,56.0
3779,69.0,2,21,0.0,66.0
3780,73.0,35,27,0.0,72.0
3781,76.0,27,15,0.0,82.0
3782,64.0,3,15,0.0,70.0
3783,33.0,0,13,0.0,53.0
3784,45.0,1,21,0.0,64.0
3785,61.0,0,23,0.0,62.0
3786,63.0,51,25,0.0,65.0
3787,55.0,0,5,0.0,59.0
3788,67.0,33,15,0.0,77.0
3789,73.0,1,19,0.0,70.0
3790,75.0,46,25,0.0,84.0
3791,45.0,3,16,0.0,57.0
3792,57.0,5,29,0.0,55.0
3793,67.0,1,20,0.0,74.0
3794,79.0,25,23,0.0,87.0
3795,72.0,0,15,0.0,81.0
3796,46.0,2,17,0.0,59.0
3797,76.0,34,26,0.0,87.0
3798,58.0,1,35,0.0,67.0
3799,67.0,1,17,0.0,66.0
3800,79.0,32,20,0.0,87.0
3801,47.0,0,16,0.0,62.0
3802,71.0,2,18,0.0,76.0
3803,76.0,0,23,0.0,81.0
3804,59.0,32,24,0.0,71.0
3805,67.0,0,9,0.0,74.0
3806,79.0,28,18,0.0,83.0
3807,76.0,1,14,0.0,83.0
3808,48.0,1,15,0.0,62.0
3809,78.0,37,25,0.0,86.0
3810,60.0,5,27,0.0,66.0
3811,70.0,3,13,0.0,77.0
3812,82.0,30,18,0.0,84.0
3813,75.0,0,18,0.0,75.0
3814,49.0,1,20,0.0,67.0
3815,79.0,2,26,0.0,85.0
3816,61.0,28,32,0.0,76.0
3817,70.0,2,16,0.0,71.0
3818,82.0,32,23,0.0,77.0
3819,50.0,0,8,0.0,68.0
3820,74.0,1,18,0.0,76.0
3821,62.0,0,19,0.0,73.0
3822,78.0,32,29,0.0,81.0
3823,71.0,2,14,0.0,66.0
3824,83.0,33,26,0.0,81.0
3825,51.0,33,19,0.0,67.0
3826,57.0,3,13,0.0,38.0
3827,77.0,1,20,0.0,85.0
3828,60.0,2,20,0.0,60.0
3829,81.0,1,25,0.0,84.0
3830,63.0,0,40,0.0,68.0
3831,72.0,2,14,0.0,74.0
3832,84.0,27,23,0.0,87.0
3833,76.0,1,10,0.0,66.0
3834,52.0,0,12,0.0,55.0
3835,60.0,1,22,0.0,62.0
3836,57.0,1,20,0.0,53.0
3837,81.0,33,27,0.0,79.0
3838,64.0,0,28,0.0,67.0
3839,72.0,1,19,0.0,77.0
3840,84.0,33,24,0.0,87.0
3841,53.0,1,7,0.0,60.0
3842,65.0,0,17,0.0,75.0
3843,57.0,0,18,0.0,58.0
3844,60.0,0,19,0.0,74.0
3845,75.0,1,24,0.0,77.0
3846,81.0,34,25,0.0,82.0
3847,72.0,0,9,0.0,82.0
3848,84.0,33,17,0.0,99.0
3849,81.0,3,16,0.0,81.0
3850,54.0,0,24,0.0,58.0
3851,83.0,0,28,0.0,88.0
3852,59.0,1,30,0.0,68.0
3853,57.0,1,31,0.0,64.0
3854,66.0,44,42,0.0,84.0
3855,75.0,35,20,0.0,85.0
3856,87.0,0,25,0.0,90.0
3857,65.0,0,16,0.0,86.0
3858,53.0,0,16,0.0,71.0
3859,60.0,0,17,0.0,51.0
3860,81.0,0,16,0.0,78.0
3861,57.0,1,19,0.0,64.0
3862,84.0,41,35,0.0,85.0
3863,75.0,43,10,0.0,87.0
3864,87.0,0,16,0.0,89.0
3865,28.0,1,26,0.0,68.0
3866,40.0,1,33,0.0,69.0
3867,96.0,0,37,0.0,96.0
3868,89.0,0,40,0.0,83.0
3869,93.0,51,41,0.0,88.0
3870,88.0,40,28,0.0,93.0
3871,33.0,1,18,0.0,53.0
3872,45.0,1,23,0.0,67.0
3873,93.0,0,27,0.0,89.0
3874,86.0,42,30,0.0,82.0
3875,89.0,1,31,0.0,84.0
3876,84.0,32,22,0.0,87.0
3877,85.0,22,5,0.0,25.0
3878,35.0,1,11,0.0,65.0
3879,47.0,5,16,0.0,60.0
3880,83.0,1,27,0.0,86.0
3881,89.0,13,28,0.0,94.0
3882,86.0,0,30,0.0,89.0
3883,81.0,28,21,0.0,84.0
3884,38.0,1,10,0.0,66.0
3885,50.0,0,14,0.0,80.0
3886,86.0,33,25,0.0,86.0
3887,79.0,2,28,0.0,83.0
3888,83.0,0,31,0.0,82.0
3889,77.0,32,19,0.0,83.0
3890,41.0,0,17,0.0,69.0
3891,53.0,2,20,0.0,82.0
3892,83.0,35,23,0.0,84.0
3893,76.0,0,22,0.0,77.0
3894,80.0,0,30,0.0,77.0
3895,74.0,33,17,0.0,78.0
3896,52.0,37,11,0.0,74.0
3897,40.0,1,14,0.0,66.0
3898,72.0,2,19,0.0,62.0
3899,80.0,0,27,0.0,78.0
3900,76.0,0,27,0.0,64.0
3901,71.0,29,9,0.0,81.0
3902,28.0,50,16,0.0,78.0
3903,40.0,0,24,0.0,86.0
3904,89.0,1,28,0.0,89.0
3905,96.0,0,28,0.0,103.0
3906,93.0,0,32,0.0,93.0
3907,88.0,34,24,0.0,86.0
3908,33.0,1,10,0.0,66.0
3909,45.0,2,15,0.0,82.0
3910,93.0,36,24,0.0,96.0
3911,86.0,0,25,0.0,85.0
3912,89.0,0,27,0.0,81.0
3913,84.0,30,19,0.0,82.0
3914,35.0,35,10,0.0,70.0
3915,47.0,0,14,0.0,82.0
3916,89.0,1,23,0.0,90.0
3917,83.0,0,25,0.0,82.0
3918,86.0,1,28,0.0,79.0
3919,81.0,33,17,0.0,81.0
3920,38.0,1,11,0.0,65.0
3921,50.0,0,18,0.0,79.0
3922,86.0,34,25,0.0,85.0
3923,79.0,1,25,0.0,81.0
3924,83.0,0,26,0.0,74.0
3925,77.0,31,19,0.0,81.0
3926,83.0,35,23,0.0,85.0
3927,41.0,1,21,0.0,67.0
3928,76.0,0,23,0.0,74.0
3929,53.0,2,25,0.0,80.0
3930,80.0,0,27,0.0,70.0
3931,74.0,30,16,0.0,72.0
3932,40.0,1,15,0.0,58.0
3933,52.0,2,16,0.0,70.0
3934,72.0,0,23,0.0,79.0
3935,76.0,1,30,0.0,76.0
3936,80.0,36,33,0.0,83.0
3937,71.0,32,18,0.0,87.0
3938,39.0,1,10,0.0,63.0
3939,51.0,1,11,0.0,71.0
3940,71.0,37,27,0.0,94.0
3941,78.0,30,5,0.0,38.0
3942,83.0,0,8,0.0,78.0
3943,81.0,3,7,0.0,63.0
3944,57.0,0,7,0.0,44.0
3945,83.0,31,27,0.0,96.0
3946,66.0,1,55,0.0,73.0
3947,59.0,4,55,0.0,51.0
3948,95.0,30,26,0.0,85.0
3949,57.0,1,26,0.0,1.0
3950,93.0,1,27,0.0,77.0
3951,90.0,0,28,0.0,64.0
3952,83.0,29,8,0.0,86.0
3953,83.0,30,18,0.0,74.0
3954,78.0,4,22,0.0,57.0
3955,39.0,2,8,0.0,63.0
3956,51.0,2,8,0.0,71.0
3957,72.0,30,26,0.0,100.0
3958,78.0,25,10,0.0,52.0
3959,81.0,3,5,0.0,60.0
3960,84.0,2,10,0.0,80.0
3961,84.0,31,30,0.0,107.0
3962,96.0,32,26,0.0,96.0
3963,90.0,0,31,0.0,74.0
3964,93.0,1,31,0.0,87.0
3965,57.0,1,65,0.0,66.0
3966,66.0,0,67,0.0,69.0
3967,60.0,1,67,0.0,62.0
3968,84.0,31,10,0.0,87.0
3969,81.0,3,15,0.0,62.0
3970,84.0,31,19,0.0,83.0
3971,78.0,0,27,0.0,74.0
3972,40.0,4,5,0.0,64.0
3973,52.0,1,12,0.0,68.0
3974,72.0,32,28,0.0,102.0
3975,76.0,29,9,0.0,63.0
3976,81.0,0,11,0.0,70.0
3977,84.0,3,15,0.0,86.0
3978,84.0,0,26,0.0,102.0
3979,69.0,31,51,0.0,73.0
3980,60.0,0,53,0.0,55.0
3981,64.0,1,56,0.0,66.0
3982,96.0,0,25,0.0,85.0
3983,88.0,33,27,0.0,78.0
3984,92.0,20,7,0.0,32.0
3985,93.0,1,30,0.0,79.0
3986,84.0,11,8,0.0,75.0
3987,76.0,2,11,0.0,83.0
3988,84.0,31,17,0.0,84.0
3989,81.0,2,18,0.0,66.0
3990,40.0,1,13,0.0,65.0
3991,52.0,4,14,0.0,63.0
3992,71.0,34,24,0.0,97.0
3993,76.0,25,6,0.0,33.0
3994,80.0,0,12,0.0,63.0
3995,83.0,2,12,0.0,82.0
3996,83.0,32,25,0.0,97.0
3997,95.0,0,28,0.0,88.0
3998,88.0,30,32,0.0,74.0
3999,64.0,1,63,0.0,59.0
4000,68.0,1,66,0.0,65.0
4001,92.0,0,35,0.0,77.0
4002,59.0,1,69,0.0,62.0
4003,83.0,37,8,0.0,80.0
4004,76.0,1,9,0.0,82.0
4005,80.0,1,13,0.0,73.0
4006,83.0,40,16,0.0,84.0
4007,33.0,51,13,0.0,78.0
4008,45.0,1,16,0.0,82.0
4009,100.0,0,30,0.0,94.0
4010,93.0,2,32,0.0,87.0
4011,96.0,0,36,0.0,89.0
4012,91.0,39,23,0.0,90.0
4013,36.0,0,12,0.0,70.0
4014,48.0,0,16,0.0,81.0
4015,89.0,0,25,0.0,84.0
4016,96.0,32,29,0.0,88.0
4017,93.0,3,26,0.0,82.0
4018,88.0,31,19,0.0,80.0
4019,38.0,32,10,0.0,68.0
4020,50.0,0,15,0.0,82.0
4021,86.0,0,26,0.0,75.0
4022,93.0,0,29,0.0,89.0
4023,89.0,3,27,0.0,78.0
4024,84.0,31,21,0.0,84.0
4025,41.0,0,5,0.0,66.0
4026,81.0,3,5,0.0,64.0
4027,53.0,1,12,0.0,82.0
4028,89.0,33,26,0.0,81.0
4029,83.0,1,26,0.0,63.0
4030,86.0,0,28,0.0,73.0
4031,81.0,28,22,0.0,83.0
4032,53.0,34,23,0.0,75.0
4033,65.0,0,24,0.0,81.0
4034,86.0,0,25,0.0,83.0
4035,79.0,0,26,0.0,83.0
4036,83.0,1,27,0.0,71.0
4037,77.0,32,20,0.0,82.0
4038,64.0,35,11,0.0,80.0
4039,52.0,0,15,0.0,66.0
4040,76.0,1,24,0.0,80.0
4041,80.0,1,26,0.0,65.0
4042,83.0,0,31,0.0,83.0
4043,74.0,29,7,0.0,81.0
4044,33.0,0,10,0.0,73.0
4045,45.0,1,15,0.0,83.0
4046,100.0,50,30,0.0,93.0
4047,93.0,1,30,0.0,84.0
4048,96.0,0,32,0.0,76.0
4049,91.0,35,20,0.0,86.0
4050,36.0,0,12,0.0,73.0
4051,48.0,0,19,0.0,84.0
4052,89.0,0,24,0.0,86.0
4053,96.0,33,29,0.0,93.0
4054,93.0,2,28,0.0,84.0
4055,88.0,32,21,0.0,82.0
4056,38.0,0,10,0.0,68.0
4057,50.0,0,13,0.0,80.0
4058,93.0,33,27,0.0,92.0
4059,86.0,0,26,0.0,77.0
4060,89.0,2,28,0.0,73.0
4061,84.0,33,20,0.0,87.0
4062,41.0,1,7,0.0,65.0
4063,53.0,0,13,0.0,75.0
4064,89.0,33,26,0.0,85.0
4065,83.0,0,28,0.0,78.0
4066,86.0,1,29,0.0,74.0
4067,81.0,33,20,0.0,75.0
4068,53.0,1,23,0.0,68.0
4069,65.0,0,25,0.0,75.0
4070,79.0,0,25,0.0,69.0
4071,83.0,2,26,0.0,66.0
4072,86.0,31,29,0.0,76.0
4073,77.0,31,17,0.0,76.0
4074,64.0,0,12,0.0,76.0
4075,52.0,3,13,0.0,59.0
4076,76.0,0,24,0.0,66.0
4077,83.0,35,29,0.0,78.0
4078,80.0,1,30,0.0,70.0
4079,71.0,30,17,0.0,76.0
4080,51.0,1,7,0.0,78.0
4081,39.0,2,10,0.0,67.0
4082,71.0,38,27,0.0,93.0
4083,78.0,26,10,0.0,51.0
4084,83.0,4,9,0.0,80.0
4085,81.0,0,10,0.0,58.0
4086,51.0,16,14,0.0,71.0
4087,57.0,8,21,0.0,57.0
4088,66.0,10,9,0.0,73.0
4089,59.0,3,19,0.0,52.0
4090,83.0,2,28,0.0,93.0
4091,95.0,35,27,0.0,83.0
4092,93.0,1,31,0.0,76.0
4093,90.0,0,36,0.0,65.0
4094,83.0,32,12,0.0,76.0
4095,77.0,6,4,0.0,28.0
4096,79.0,2,16,0.0,69.0
4097,83.0,32,20,0.0,77.0
4098,51.0,0,9,0.0,85.0
4099,39.0,2,9,0.0,68.0
4100,72.0,27,31,0.0,100.0
4101,78.0,29,6,0.0,56.0
4102,81.0,3,3,0.0,64.0
4103,84.0,1,13,0.0,83.0
4104,51.0,17,13,0.0,76.0
4105,57.0,6,17,0.0,60.0
4106,94.0,2,6,0.0,40.0
4107,60.0,4,16,0.0,59.0
4108,66.0,4,11,0.0,69.0
4109,84.0,4,25,0.0,92.0
4110,96.0,28,30,0.0,88.0
4111,93.0,2,33,0.0,81.0
4112,90.0,0,35,0.0,75.0
4113,84.0,30,11,0.0,82.0
4114,81.0,4,9,0.0,49.0
4115,78.0,1,9,0.0,60.0
4116,84.0,31,17,0.0,86.0
4117,40.0,4,11,0.0,65.0
4118,52.0,1,12,0.0,74.0
4119,73.0,33,32,0.0,95.0
4120,79.0,29,5,0.0,56.0
4121,82.0,0,11,0.0,65.0
4122,85.0,1,11,0.0,78.0
4123,85.0,32,24,0.0,102.0
4124,91.0,2,24,0.0,75.0
4125,97.0,30,27,0.0,87.0
4126,94.0,0,28,0.0,65.0
4127,67.0,0,66,0.0,78.0
4128,85.0,28,9,0.0,87.0
4129,61.0,2,77,0.0,62.0
4130,58.0,1,79,0.0,56.0
4131,79.0,5,4,0.0,51.0
4132,85.0,1,19,0.0,83.0
4133,82.0,1,19,0.0,67.0
4134,41.0,4,11,0.0,77.0
4135,53.0,1,15,0.0,73.0
4136,74.0,29,28,0.0,103.0
4137,80.0,29,6,0.0,63.0
4138,83.0,0,8,0.0,83.0
4139,86.0,1,11,0.0,88.0
4140,86.0,31,29,0.0,105.0
4141,98.0,0,30,0.0,99.0
4142,95.0,32,32,0.0,87.0
4143,92.0,0,33,0.0,84.0
4144,86.0,33,13,0.0,90.0
4145,84.0,10,5,0.0,29.0
4146,59.0,0,96,0.0,65.0
4147,62.0,2,95,0.0,68.0
4148,68.0,3,99,0.0,75.0
4149,83.0,28,4,0.0,66.0
4150,80.0,0,5,0.0,64.0
4151,86.0,0,12,0.0,93.0
4152,53.0,36,15,0.0,68.0
4153,57.0,4,15,0.0,64.0
4154,59.0,2,19,0.0,67.0
4155,75.0,4,21,0.0,92.0
4156,63.0,1,22,0.0,65.0
4157,81.0,0,11,0.0,62.0
4158,83.0,15,11,0.0,61.0
4159,87.0,0,11,0.0,79.0
4160,87.0,27,61,0.0,97.0
4161,99.0,45,18,0.0,104.0
4162,69.0,12,111,0.0,66.0
4163,69.0,639,50,0.0,45.0
4164,57.0,9,42,0.0,34.0
4165,57.0,111,81,0.0,38.0
4166,69.0,0,86,0.0,55.0
4167,57.0,6,49,0.0,38.0
4168,69.0,200,61,0.0,58.0
4169,57.0,7,75,0.0,39.0
4170,69.0,101,88,0.0,58.0
4171,69.0,190,46,0.0,51.0
4172,57.0,5,42,0.0,32.0
4173,57.0,6,103,0.0,27.0
4174,69.0,121,112,0.0,44.0
4175,57.0,12,34,0.0,33.0
4176,69.0,224,50,0.0,47.0
4177,57.0,1,101,0.0,24.0
4178,52.0,20,89,0.0,24.0
4179,72.0,142,140,0.0,63.0
4180,64.0,5,148,0.0,44.0
4181,65.0,6,35,0.0,53.0
4182,57.0,6,33,0.0,26.0
4183,50.0,0,50,0.0,45.0
4184,69.0,184,83,0.0,65.0
4185,64.0,4,77,0.0,44.0
4186,57.0,6,107,0.0,36.0
4187,52.0,1,109,0.0,42.0
4188,72.0,108,117,0.0,77.0
4189,62.0,4,31,0.0,52.0
4190,74.0,182,45,0.0,76.0
4191,53.0,3,40,0.0,47.0
4192,57.0,2,38,0.0,32.0
4193,57.0,5,91,0.0,40.0
4194,52.0,4,91,0.0,41.0
4195,72.0,104,109,0.0,75.0
4196,64.0,1,122,0.0,57.0
4197,71.0,137,37,0.0,74.0
4198,50.0,0,40,0.0,28.0
4199,65.0,10,45,0.0,45.0
4200,57.0,1,46,0.0,28.0
4201,69.0,47,68,0.0,79.0
4202,64.0,7,54,0.0,53.0
4203,72.0,120,74,0.0,78.0
4204,52.0,6,69,0.0,29.0
4205,57.0,3,77,0.0,36.0
4206,53.0,1,30,0.0,42.0
4207,62.0,3,36,0.0,40.0
4208,57.0,1,35,0.0,33.0
4209,69.0,7,44,0.0,53.0
4210,74.0,199,62,0.0,66.0
4211,52.0,0,289,0.0,26.0
4212,60.0,5,293,0.0,29.0
4213,64.0,6,327,0.0,44.0
4214,76.0,149,338,0.0,61.0
4215,69.0,4,330,0.0,49.0
4216,59.0,0,73,0.0,22.0
4217,52.0,0,83,0.0,24.0
4218,62.0,855,233,0.0,25.0
4219,64.0,0,265,0.0,44.0
4220,56.0,314,16,0.0,42.0
4221,40.0,51,31,0.0,40.0
4222,68.0,0,424,0.0,47.0
4223,56.0,0,63,0.0,50.0
4224,62.0,63,63,0.0,69.0
4225,64.0,63,28,0.0,66.0
4226,28.0,0,275,0.0,42.0
4227,71.0,159,345,0.0,74.0
4228,33.0,648,121,0.0,40.0
4229,45.0,123,28,0.0,26.0
4230,57.0,78,22,0.0,31.0
4231,60.0,52,79,0.0,38.0
4232,52.0,84,404,0.0,39.0
4233,64.0,74,336,0.0,39.0
4234,69.0,141,215,0.0,47.0
