,note,step,duration,channel,velocity
0,75.0,0,225,0.0,79.0
1,56.0,2,47,1.0,79.0
2,63.0,58,47,1.0,78.0
3,60.0,60,47,1.0,76.0
4,63.0,62,47,1.0,78.0
5,56.0,62,47,1.0,78.0
6,75.0,238,338,0.0,76.0
7,63.0,60,47,1.0,81.0
8,60.0,56,47,1.0,76.0
9,63.0,61,47,1.0,77.0
10,75.0,3,112,0.0,80.0
11,56.0,56,47,1.0,76.0
12,63.0,56,47,1.0,77.0
13,60.0,61,47,1.0,79.0
14,63.0,60,47,1.0,80.0
15,75.0,4,225,0.0,81.0
16,56.0,2,47,1.0,80.0
17,63.0,61,47,1.0,76.0
18,60.0,59,47,1.0,77.0
19,75.0,60,225,0.0,76.0
20,63.0,61,47,1.0,79.0
21,56.0,3,47,1.0,75.0
22,63.0,56,47,1.0,80.0
23,60.0,61,47,1.0,75.0
24,77.0,57,225,0.0,75.0
25,63.0,62,47,1.0,76.0
26,56.0,1,47,1.0,79.0
27,63.0,60,47,1.0,79.0
28,60.0,59,47,1.0,76.0
29,75.0,59,225,0.0,78.0
30,63.0,60,47,1.0,79.0
31,56.0,59,47,1.0,79.0
32,63.0,56,47,1.0,80.0
33,60.0,61,47,1.0,79.0
34,63.0,60,47,1.0,82.0
35,56.0,59,47,1.0,81.0
36,75.0,3,338,0.0,82.0
37,63.0,63,47,1.0,79.0
38,60.0,57,47,1.0,79.0
39,63.0,59,47,1.0,79.0
40,75.0,2,112,0.0,82.0
41,55.0,1,47,1.0,79.0
42,61.0,58,47,1.0,82.0
43,58.0,64,47,1.0,81.0
44,75.0,60,225,0.0,79.0
45,61.0,60,47,1.0,82.0
46,55.0,1,47,1.0,81.0
47,61.0,60,47,1.0,85.0
48,58.0,59,47,1.0,81.0
49,75.0,58,225,0.0,80.0
50,61.0,61,47,1.0,83.0
51,55.0,57,47,1.0,85.0
52,61.0,60,47,1.0,85.0
53,58.0,57,47,1.0,81.0
54,77.0,3,225,0.0,84.0
55,61.0,62,47,1.0,85.0
56,55.0,58,47,1.0,81.0
57,61.0,58,47,1.0,81.0
58,58.0,64,47,1.0,81.0
59,75.0,2,225,0.0,84.0
60,61.0,57,47,1.0,81.0
61,56.0,59,47,1.0,86.0
62,63.0,57,47,1.0,84.0
63,60.0,61,47,1.0,84.0
64,63.0,61,47,1.0,86.0
65,56.0,57,47,1.0,85.0
66,82.0,4,338,0.0,84.0
67,63.0,62,47,1.0,84.0
68,60.0,1,47,1.0,88.0
69,63.0,61,47,1.0,86.0
70,80.0,60,112,0.0,87.0
71,56.0,59,47,1.0,86.0
72,64.0,58,47,1.0,83.0
73,60.0,60,47,1.0,88.0
74,64.0,60,47,1.0,86.0
75,80.0,1,225,0.0,86.0
76,56.0,0,47,1.0,88.0
77,64.0,61,47,1.0,85.0
78,60.0,56,47,1.0,86.0
79,80.0,61,225,0.0,87.0
80,64.0,64,47,1.0,86.0
81,56.0,56,47,1.0,87.0
82,65.0,56,47,1.0,92.0
83,61.0,62,47,1.0,85.0
84,65.0,58,47,1.0,85.0
85,56.0,64,47,1.0,85.0
86,80.0,4,338,0.0,90.0
87,65.0,56,47,1.0,89.0
88,61.0,0,47,1.0,87.0
89,65.0,61,47,1.0,84.0
90,80.0,62,112,0.0,85.0
91,56.0,3,47,1.0,89.0
92,65.0,57,47,1.0,85.0
93,61.0,59,47,1.0,85.0
94,80.0,58,225,0.0,84.0
95,65.0,60,47,1.0,86.0
96,56.0,0,47,1.0,84.0
97,65.0,59,47,1.0,87.0
98,58.0,61,47,1.0,81.0
99,82.0,61,225,0.0,81.0
100,65.0,59,47,1.0,80.0
101,55.0,60,47,1.0,80.0
102,65.0,59,47,1.0,83.0
103,60.0,63,47,1.0,85.0
104,65.0,60,47,1.0,79.0
105,55.0,57,47,1.0,79.0
106,84.0,2,338,0.0,86.0
107,64.0,61,47,1.0,83.0
108,60.0,1,47,1.0,84.0
109,64.0,59,47,1.0,78.0
110,82.0,58,112,0.0,78.0
111,56.0,60,47,1.0,82.0
112,65.0,59,47,1.0,77.0
113,60.0,60,47,1.0,82.0
114,65.0,58,47,1.0,80.0
115,80.0,3,225,0.0,82.0
116,59.0,1,47,1.0,80.0
117,65.0,62,47,1.0,77.0
118,53.0,57,47,1.0,80.0
119,77.0,60,225,0.0,79.0
120,63.0,64,47,1.0,76.0
121,53.0,0,47,1.0,78.0
122,63.0,61,47,1.0,80.0
123,56.0,59,47,1.0,76.0
124,63.0,61,47,1.0,73.0
125,53.0,62,47,1.0,78.0
126,77.0,56,338,0.0,74.0
127,63.0,57,47,1.0,74.0
128,56.0,0,47,1.0,73.0
129,63.0,61,47,1.0,72.0
130,79.0,63,112,0.0,73.0
131,53.0,58,47,1.0,71.0
132,62.0,57,47,1.0,74.0
133,56.0,64,47,1.0,76.0
134,62.0,57,47,1.0,75.0
135,80.0,1,225,0.0,75.0
136,53.0,59,47,1.0,70.0
137,62.0,63,47,1.0,72.0
138,56.0,59,47,1.0,70.0
139,70.0,1,225,0.0,72.0
140,62.0,57,47,1.0,72.0
141,51.0,3,47,1.0,73.0
142,61.0,56,47,1.0,73.0
143,58.0,60,47,1.0,70.0
144,70.0,61,225,0.0,70.0
145,61.0,62,47,1.0,71.0
146,56.0,0,47,1.0,72.0
147,63.0,59,47,1.0,68.0
148,58.0,60,47,1.0,70.0
149,68.0,62,225,0.0,67.0
150,63.0,60,47,1.0,69.0
151,55.0,1,47,1.0,67.0
152,63.0,60,47,1.0,67.0
153,58.0,59,47,1.0,65.0
154,63.0,60,47,1.0,66.0
155,55.0,58,47,1.0,68.0
156,73.0,60,338,0.0,71.0
157,63.0,61,47,1.0,63.0
158,58.0,0,47,1.0,67.0
159,63.0,61,47,1.0,66.0
160,63.0,61,112,0.0,67.0
161,56.0,0,47,1.0,63.0
162,63.0,62,47,1.0,64.0
163,60.0,60,47,1.0,63.0
164,75.0,57,225,0.0,62.0
165,63.0,60,47,1.0,64.0
166,56.0,59,47,1.0,67.0
167,63.0,57,47,1.0,66.0
168,60.0,62,47,1.0,70.0
169,63.0,59,47,1.0,66.0
170,75.0,2,225,0.0,66.0
171,56.0,3,47,1.0,70.0
172,63.0,59,47,1.0,66.0
173,60.0,59,47,1.0,64.0
174,63.0,60,47,1.0,67.0
175,56.0,63,47,1.0,71.0
176,75.0,58,338,0.0,67.0
177,63.0,59,47,1.0,71.0
178,60.0,57,47,1.0,65.0
179,63.0,59,47,1.0,69.0
180,75.0,3,112,0.0,67.0
181,56.0,2,47,1.0,66.0
182,63.0,58,47,1.0,67.0
183,60.0,63,47,1.0,69.0
184,77.0,58,225,0.0,70.0
185,63.0,60,47,1.0,73.0
186,56.0,3,47,1.0,73.0
187,63.0,59,47,1.0,71.0
188,60.0,59,47,1.0,69.0
189,75.0,57,225,0.0,69.0
190,63.0,62,47,1.0,73.0
191,56.0,58,47,1.0,73.0
192,63.0,59,47,1.0,72.0
193,60.0,61,47,1.0,68.0
194,63.0,58,47,1.0,74.0
195,75.0,2,225,0.0,74.0
196,56.0,0,47,1.0,72.0
197,63.0,63,47,1.0,70.0
198,60.0,56,47,1.0,71.0
199,75.0,60,225,0.0,74.0
200,63.0,60,47,1.0,73.0
201,55.0,60,47,1.0,71.0
202,61.0,62,47,1.0,72.0
203,58.0,61,47,1.0,74.0
204,61.0,57,47,1.0,77.0
205,55.0,62,47,1.0,74.0
206,75.0,1,338,0.0,71.0
207,61.0,57,47,1.0,73.0
208,58.0,4,47,1.0,72.0
209,61.0,57,47,1.0,74.0
210,82.0,60,112,0.0,78.0
211,55.0,0,47,1.0,73.0
212,61.0,59,47,1.0,74.0
213,58.0,62,47,1.0,76.0
214,84.0,61,225,0.0,74.0
215,61.0,61,47,1.0,73.0
216,55.0,56,47,1.0,78.0
217,61.0,63,47,1.0,79.0
218,58.0,57,47,1.0,76.0
219,79.0,1,225,0.0,74.0
220,61.0,61,47,1.0,79.0
221,56.0,2,47,1.0,77.0
222,63.0,59,47,1.0,76.0
223,60.0,62,47,1.0,77.0
224,82.0,58,225,0.0,74.0
225,63.0,59,47,1.0,81.0
226,56.0,2,47,1.0,79.0
227,63.0,57,47,1.0,82.0
228,60.0,62,47,1.0,80.0
229,80.0,60,225,0.0,76.0
230,63.0,58,47,1.0,80.0
231,56.0,60,47,1.0,79.0
232,64.0,61,47,1.0,78.0
233,60.0,61,47,1.0,77.0
234,80.0,1,225,0.0,78.0
235,64.0,60,47,1.0,77.0
236,56.0,1,47,1.0,80.0
237,64.0,62,47,1.0,79.0
238,60.0,61,47,1.0,81.0
239,80.0,56,225,0.0,79.0
240,64.0,60,47,1.0,81.0
241,56.0,56,47,1.0,80.0
242,65.0,59,47,1.0,83.0
243,61.0,61,47,1.0,85.0
244,65.0,61,47,1.0,83.0
245,56.0,60,47,1.0,83.0
246,80.0,3,338,0.0,81.0
247,65.0,58,47,1.0,84.0
248,61.0,59,47,1.0,82.0
249,65.0,60,47,1.0,84.0
250,80.0,1,112,0.0,83.0
251,56.0,4,47,1.0,84.0
252,65.0,58,47,1.0,85.0
253,61.0,59,47,1.0,81.0
254,80.0,58,225,0.0,86.0
255,65.0,61,47,1.0,80.0
256,55.0,1,47,1.0,81.0
257,65.0,61,47,1.0,81.0
258,55.0,60,47,1.0,82.0
259,82.0,58,225,0.0,83.0
260,61.0,62,47,1.0,87.0
261,55.0,3,47,1.0,82.0
262,65.0,59,47,1.0,88.0
263,60.0,62,47,1.0,87.0
264,84.0,56,225,0.0,85.0
265,65.0,56,47,1.0,88.0
266,55.0,62,47,1.0,83.0
267,65.0,58,47,1.0,85.0
268,60.0,59,47,1.0,85.0
269,79.0,2,225,0.0,85.0
270,65.0,63,47,1.0,85.0
271,55.0,1,47,1.0,85.0
272,64.0,59,47,1.0,86.0
273,60.0,57,47,1.0,88.0
274,64.0,61,47,1.0,87.0
275,79.0,59,225,0.0,86.0
276,55.0,59,47,1.0,90.0
277,64.0,62,47,1.0,90.0
278,60.0,57,47,1.0,86.0
279,79.0,2,225,0.0,86.0
280,64.0,62,47,1.0,90.0
281,50.0,2,47,1.0,86.0
282,59.0,60,47,1.0,91.0
283,55.0,60,47,1.0,86.0
284,79.0,58,225,0.0,88.0
285,59.0,57,47,1.0,84.0
286,50.0,60,47,1.0,85.0
287,59.0,59,47,1.0,86.0
288,55.0,60,47,1.0,86.0
289,79.0,1,225,0.0,90.0
290,59.0,60,47,1.0,86.0
291,55.0,60,47,1.0,89.0
292,62.0,56,47,1.0,86.0
293,59.0,62,47,1.0,83.0
294,62.0,58,47,1.0,84.0
295,79.0,4,225,0.0,88.0
296,55.0,2,47,1.0,81.0
297,62.0,60,47,1.0,86.0
298,59.0,61,47,1.0,85.0
299,79.0,61,225,0.0,85.0
300,62.0,56,47,1.0,85.0
301,55.0,60,47,1.0,80.0
302,65.0,59,47,1.0,79.0
303,60.0,60,47,1.0,80.0
304,65.0,59,47,1.0,78.0
305,55.0,60,47,1.0,80.0
306,74.0,4,338,0.0,81.0
307,64.0,62,47,1.0,80.0
308,60.0,1,47,1.0,83.0
309,64.0,63,47,1.0,76.0
310,72.0,56,112,0.0,81.0
311,55.0,2,47,1.0,77.0
312,62.0,60,47,1.0,82.0
313,60.0,56,47,1.0,82.0
314,72.0,58,225,0.0,80.0
315,62.0,63,47,1.0,75.0
316,55.0,58,47,1.0,80.0
317,64.0,61,47,1.0,80.0
318,60.0,58,47,1.0,78.0
319,72.0,2,225,0.0,81.0
320,64.0,61,47,1.0,75.0
321,52.0,2,47,1.0,78.0
322,60.0,58,47,1.0,79.0
323,58.0,59,47,1.0,73.0
324,60.0,63,47,1.0,79.0
325,52.0,57,47,1.0,75.0
326,72.0,58,338,0.0,75.0
327,60.0,60,47,1.0,77.0
328,58.0,60,47,1.0,79.0
329,60.0,59,47,1.0,79.0
330,72.0,3,112,0.0,74.0
331,52.0,1,47,1.0,73.0
332,60.0,59,47,1.0,77.0
333,58.0,61,47,1.0,73.0
334,73.0,59,225,0.0,73.0
335,60.0,58,47,1.0,74.0
336,52.0,1,47,1.0,75.0
337,60.0,61,47,1.0,78.0
338,58.0,59,47,1.0,77.0
339,72.0,60,225,0.0,79.0
340,60.0,61,47,1.0,79.0
341,53.0,3,47,1.0,79.0
342,60.0,57,47,1.0,73.0
343,58.0,60,47,1.0,73.0
344,72.0,59,225,0.0,73.0
345,60.0,61,47,1.0,79.0
346,53.0,59,47,1.0,78.0
347,60.0,58,47,1.0,77.0
348,57.0,59,47,1.0,77.0
349,74.0,3,225,0.0,79.0
350,60.0,63,47,1.0,78.0
351,53.0,57,47,1.0,75.0
352,60.0,59,47,1.0,79.0
353,55.0,60,47,1.0,74.0
354,76.0,3,225,0.0,78.0
355,60.0,60,47,1.0,74.0
356,53.0,3,47,1.0,78.0
357,60.0,57,47,1.0,76.0
358,53.0,63,47,1.0,78.0
359,77.0,57,225,0.0,79.0
360,60.0,60,47,1.0,76.0
361,51.0,58,47,1.0,86.0
362,61.0,60,47,1.0,87.0
363,55.0,57,47,1.0,87.0
364,61.0,64,47,1.0,90.0
365,51.0,56,47,1.0,90.0
366,75.0,2,338,0.0,91.0
367,61.0,64,47,1.0,88.0
368,55.0,57,47,1.0,87.0
369,61.0,59,47,1.0,86.0
370,75.0,3,112,0.0,86.0
371,51.0,2,47,1.0,91.0
372,61.0,58,47,1.0,92.0
373,55.0,60,47,1.0,89.0
374,77.0,57,225,0.0,89.0
375,61.0,62,47,1.0,89.0
376,51.0,1,47,1.0,92.0
377,61.0,60,47,1.0,88.0
378,55.0,63,47,1.0,86.0
379,75.0,58,225,0.0,86.0
380,61.0,60,47,1.0,86.0
381,51.0,3,47,1.0,87.0
382,61.0,58,47,1.0,86.0
383,56.0,58,47,1.0,92.0
384,75.0,57,225,0.0,87.0
385,61.0,63,47,1.0,91.0
386,51.0,60,47,1.0,91.0
387,60.0,60,47,1.0,86.0
388,56.0,58,47,1.0,87.0
389,60.0,60,47,1.0,88.0
390,77.0,1,225,0.0,90.0
391,51.0,1,47,1.0,91.0
392,58.0,57,47,1.0,87.0
393,55.0,60,47,1.0,92.0
394,79.0,60,225,0.0,86.0
395,58.0,62,47,1.0,88.0
396,51.0,60,47,1.0,86.0
397,56.0,58,47,1.0,89.0
398,51.0,61,47,1.0,87.0
399,56.0,59,47,1.0,91.0
400,80.0,1,225,0.0,90.0
401,52.0,0,47,1.0,67.0
402,60.0,59,47,1.0,66.0
403,55.0,60,47,1.0,69.0
404,60.0,59,47,1.0,65.0
405,50.0,62,47,1.0,69.0
406,79.0,61,338,0.0,65.0
407,59.0,59,47,1.0,66.0
408,56.0,0,47,1.0,66.0
409,59.0,63,47,1.0,66.0
410,79.0,59,112,0.0,68.0
411,53.0,1,47,1.0,64.0
412,62.0,62,47,1.0,68.0
413,55.0,57,47,1.0,66.0
414,80.0,58,225,0.0,66.0
415,62.0,63,47,1.0,70.0
416,52.0,2,47,1.0,68.0
417,61.0,60,47,1.0,65.0
418,55.0,57,47,1.0,69.0
419,77.0,58,225,0.0,65.0
420,61.0,60,47,1.0,72.0
421,52.0,59,47,1.0,71.0
422,61.0,63,47,1.0,70.0
423,57.0,59,47,1.0,68.0
424,61.0,59,47,1.0,70.0
425,53.0,60,47,1.0,70.0
426,76.0,1,338,0.0,66.0
427,59.0,61,47,1.0,69.0
428,57.0,3,47,1.0,68.0
429,59.0,59,47,1.0,74.0
430,74.0,57,112,0.0,68.0
431,53.0,2,47,1.0,73.0
432,62.0,59,47,1.0,72.0
433,57.0,60,47,1.0,74.0
434,62.0,60,47,1.0,69.0
435,52.0,61,47,1.0,72.0
436,77.0,60,338,0.0,70.0
437,62.0,57,47,1.0,72.0
438,56.0,2,47,1.0,70.0
439,62.0,58,47,1.0,73.0
440,76.0,60,112,0.0,73.0
441,52.0,3,47,1.0,73.0
442,60.0,59,47,1.0,76.0
443,55.0,58,47,1.0,73.0
444,60.0,62,47,1.0,76.0
445,53.0,57,47,1.0,76.0
446,76.0,60,338,0.0,71.0
447,59.0,64,47,1.0,73.0
448,56.0,0,47,1.0,73.0
449,59.0,58,47,1.0,74.0
450,74.0,58,112,0.0,76.0
451,53.0,63,47,1.0,75.0
452,62.0,57,47,1.0,73.0
453,55.0,63,47,1.0,73.0
454,62.0,58,47,1.0,75.0
455,52.0,60,47,1.0,75.0
456,77.0,1,338,0.0,74.0
457,62.0,59,47,1.0,75.0
458,55.0,3,47,1.0,73.0
459,62.0,59,47,1.0,79.0
460,76.0,59,112,0.0,76.0
461,52.0,61,47,1.0,76.0
462,61.0,56,47,1.0,75.0
463,57.0,60,47,1.0,77.0
464,61.0,62,47,1.0,76.0
465,54.0,59,47,1.0,76.0
466,76.0,1,338,0.0,76.0
467,59.0,63,47,1.0,78.0
468,57.0,2,47,1.0,79.0
469,59.0,57,47,1.0,76.0
470,74.0,57,112,0.0,78.0
471,54.0,62,47,1.0,78.0
472,62.0,61,47,1.0,80.0
473,57.0,57,47,1.0,79.0
474,62.0,60,47,1.0,82.0
475,52.0,62,47,1.0,83.0
476,78.0,1,338,0.0,77.0
477,62.0,60,47,1.0,83.0
478,56.0,1,47,1.0,81.0
479,62.0,59,47,1.0,78.0
480,76.0,59,112,0.0,82.0
481,52.0,2,47,1.0,83.0
482,61.0,60,47,1.0,78.0
483,57.0,58,47,1.0,79.0
484,61.0,62,47,1.0,85.0
485,52.0,57,47,1.0,82.0
486,76.0,59,338,0.0,84.0
487,61.0,60,47,1.0,82.0
488,57.0,2,47,1.0,81.0
489,61.0,59,47,1.0,80.0
490,81.0,62,112,0.0,84.0
491,51.0,60,47,1.0,83.0
492,60.0,59,47,1.0,85.0
493,54.0,59,47,1.0,84.0
494,60.0,61,47,1.0,85.0
495,51.0,60,47,1.0,87.0
496,83.0,1,338,0.0,84.0
497,60.0,58,47,1.0,84.0
498,54.0,1,47,1.0,87.0
499,60.0,60,47,1.0,88.0
500,84.0,60,112,0.0,83.0
501,56.0,59,47,1.0,83.0
502,61.0,62,47,1.0,87.0
503,58.0,57,47,1.0,83.0
504,61.0,62,47,1.0,88.0
505,56.0,60,47,1.0,84.0
506,84.0,1,338,0.0,88.0
507,61.0,61,47,1.0,88.0
508,58.0,56,47,1.0,88.0
509,61.0,60,47,1.0,85.0
510,82.0,4,112,0.0,84.0
511,56.0,57,47,1.0,89.0
512,61.0,60,47,1.0,86.0
513,58.0,62,47,1.0,89.0
514,85.0,1,225,0.0,84.0
515,61.0,60,47,1.0,87.0
516,56.0,57,47,1.0,87.0
517,61.0,60,47,1.0,87.0
518,58.0,57,47,1.0,90.0
519,61.0,60,47,1.0,88.0
520,77.0,2,225,0.0,89.0
521,51.0,61,47,1.0,60.0
522,60.0,58,47,1.0,58.0
523,56.0,60,47,1.0,60.0
524,60.0,61,47,1.0,63.0
525,51.0,60,47,1.0,59.0
526,82.0,2,338,0.0,70.0
527,60.0,61,47,1.0,59.0
528,56.0,58,47,1.0,58.0
529,60.0,61,47,1.0,58.0
530,80.0,1,112,0.0,67.0
531,51.0,0,47,1.0,61.0
532,60.0,62,47,1.0,62.0
533,56.0,58,47,1.0,59.0
534,84.0,59,225,0.0,71.0
535,60.0,60,47,1.0,62.0
536,51.0,58,47,1.0,63.0
537,60.0,61,47,1.0,61.0
538,56.0,57,47,1.0,62.0
539,60.0,59,47,1.0,59.0
540,75.0,3,225,0.0,65.0
541,51.0,3,47,1.0,74.0
542,63.0,58,47,1.0,73.0
543,55.0,58,47,1.0,74.0
544,75.0,61,225,0.0,78.0
545,63.0,63,47,1.0,73.0
546,51.0,57,47,1.0,73.0
547,63.0,61,47,1.0,75.0
548,55.0,59,47,1.0,73.0
549,63.0,57,47,1.0,74.0
550,76.0,3,225,0.0,75.0
551,51.0,62,47,1.0,76.0
552,63.0,60,47,1.0,75.0
553,55.0,59,47,1.0,76.0
554,63.0,58,47,1.0,76.0
555,77.0,2,225,0.0,77.0
556,51.0,1,47,1.0,79.0
557,63.0,58,47,1.0,75.0
558,55.0,60,47,1.0,77.0
559,75.0,60,225,0.0,77.0
560,63.0,62,47,1.0,78.0
561,53.0,58,47,1.0,86.0
562,65.0,61,47,1.0,87.0
563,56.0,60,47,1.0,83.0
564,65.0,57,47,1.0,85.0
565,73.0,3,225,0.0,88.0
566,53.0,2,47,1.0,84.0
567,65.0,62,47,1.0,85.0
568,56.0,57,47,1.0,77.0
569,72.0,59,225,0.0,82.0
570,65.0,60,47,1.0,79.0
571,53.0,61,47,1.0,80.0
572,65.0,61,47,1.0,78.0
573,57.0,56,47,1.0,73.0
574,72.0,1,225,0.0,75.0
575,65.0,62,47,1.0,75.0
576,53.0,1,47,1.0,71.0
577,65.0,59,47,1.0,67.0
578,57.0,59,47,1.0,70.0
579,84.0,61,225,0.0,74.0
580,65.0,61,47,1.0,64.0
581,53.0,59,47,1.0,75.0
582,61.0,59,47,1.0,77.0
583,58.0,61,47,1.0,78.0
584,61.0,57,47,1.0,77.0
585,84.0,1,225,0.0,76.0
586,53.0,3,47,1.0,79.0
587,61.0,58,47,1.0,79.0
588,58.0,61,47,1.0,75.0
589,82.0,61,225,0.0,78.0
590,61.0,60,47,1.0,76.0
591,52.0,1,47,1.0,75.0
592,61.0,60,47,1.0,74.0
593,56.0,58,47,1.0,79.0
594,61.0,59,47,1.0,78.0
595,52.0,62,47,1.0,77.0
596,85.0,59,338,0.0,78.0
597,61.0,61,47,1.0,74.0
598,56.0,4,47,1.0,75.0
599,61.0,58,47,1.0,78.0
600,76.0,57,112,0.0,74.0
601,56.0,58,47,1.0,76.0
602,63.0,60,47,1.0,75.0
603,60.0,60,47,1.0,79.0
604,82.0,1,225,0.0,74.0
605,63.0,61,47,1.0,75.0
606,56.0,59,47,1.0,74.0
607,63.0,61,47,1.0,75.0
608,60.0,61,47,1.0,78.0
609,80.0,1,225,0.0,78.0
610,63.0,57,47,1.0,77.0
611,56.0,59,47,1.0,77.0
612,63.0,59,47,1.0,73.0
613,60.0,59,47,1.0,76.0
614,63.0,59,47,1.0,78.0
615,56.0,59,47,1.0,77.0
616,84.0,4,338,0.0,78.0
617,63.0,64,47,1.0,74.0
618,60.0,4,47,1.0,77.0
619,63.0,57,47,1.0,78.0
620,75.0,56,112,0.0,78.0
621,57.0,61,47,1.0,77.0
622,63.0,59,47,1.0,74.0
623,60.0,59,47,1.0,76.0
624,63.0,60,47,1.0,76.0
625,57.0,62,47,1.0,77.0
626,75.0,1,338,0.0,74.0
627,63.0,60,47,1.0,77.0
628,60.0,1,47,1.0,79.0
629,63.0,58,47,1.0,79.0
630,77.0,60,112,0.0,79.0
631,57.0,2,47,1.0,78.0
632,63.0,62,47,1.0,76.0
633,60.0,60,47,1.0,78.0
634,78.0,58,225,0.0,79.0
635,63.0,56,47,1.0,73.0
636,57.0,61,47,1.0,76.0
637,63.0,59,47,1.0,79.0
638,61.0,59,47,1.0,75.0
639,77.0,1,225,0.0,76.0
640,63.0,62,47,1.0,79.0
641,58.0,59,47,1.0,90.0
642,65.0,60,47,1.0,89.0
643,63.0,57,47,1.0,89.0
644,65.0,60,47,1.0,90.0
645,77.0,3,225,0.0,87.0
646,51.0,62,47,1.0,87.0
647,61.0,56,47,1.0,86.0
648,58.0,63,47,1.0,87.0
649,79.0,1,225,0.0,91.0
650,61.0,60,47,1.0,90.0
651,55.0,59,47,1.0,90.0
652,62.0,58,47,1.0,92.0
653,59.0,59,47,1.0,86.0
654,80.0,2,225,0.0,86.0
655,62.0,63,47,1.0,87.0
656,55.0,2,47,1.0,92.0
657,62.0,60,47,1.0,88.0
658,59.0,60,47,1.0,88.0
659,79.0,58,225,0.0,86.0
660,62.0,57,47,1.0,91.0
661,55.0,1,47,1.0,87.0
662,63.0,59,47,1.0,89.0
663,60.0,62,47,1.0,87.0
664,63.0,58,47,1.0,90.0
665,55.0,62,47,1.0,88.0
666,79.0,61,338,0.0,86.0
667,63.0,58,47,1.0,89.0
668,60.0,1,47,1.0,88.0
669,63.0,56,47,1.0,90.0
670,80.0,61,112,0.0,86.0
671,57.0,4,47,1.0,88.0
672,63.0,60,47,1.0,91.0
673,60.0,59,47,1.0,92.0
674,81.0,60,225,0.0,89.0
675,63.0,59,47,1.0,90.0
676,57.0,59,47,1.0,90.0
677,65.0,59,47,1.0,90.0
678,60.0,59,47,1.0,89.0
679,90.0,2,225,0.0,86.0
680,65.0,62,47,1.0,89.0
681,56.0,58,47,1.0,86.0
682,61.0,58,47,1.0,88.0
683,59.0,58,47,1.0,89.0
684,61.0,61,47,1.0,82.0
685,89.0,3,225,0.0,86.0
686,51.0,0,47,1.0,81.0
687,61.0,57,47,1.0,79.0
688,58.0,63,47,1.0,77.0
689,61.0,58,47,1.0,79.0
690,82.0,62,225,0.0,85.0
691,51.0,1,47,1.0,75.0
692,61.0,61,47,1.0,78.0
693,58.0,59,47,1.0,74.0
694,61.0,61,47,1.0,71.0
695,51.0,58,47,1.0,71.0
696,85.0,61,338,0.0,80.0
697,61.0,62,47,1.0,69.0
698,58.0,57,47,1.0,70.0
699,61.0,58,47,1.0,67.0
700,79.0,2,112,0.0,70.0
701,51.0,1,47,1.0,62.0
702,60.0,57,47,1.0,67.0
703,56.0,63,47,1.0,64.0
704,60.0,59,47,1.0,63.0
705,51.0,59,47,1.0,68.0
706,80.0,62,338,0.0,66.0
707,60.0,58,47,1.0,65.0
708,56.0,2,47,1.0,70.0
709,60.0,60,47,1.0,65.0
710,75.0,62,112,0.0,66.0
711,51.0,56,47,1.0,66.0
712,60.0,63,47,1.0,69.0
713,56.0,56,47,1.0,68.0
714,75.0,1,225,0.0,69.0
715,60.0,62,47,1.0,72.0
716,51.0,1,47,1.0,67.0
717,60.0,58,47,1.0,72.0
718,56.0,63,47,1.0,72.0
719,60.0,56,47,1.0,69.0
720,75.0,60,225,0.0,73.0
721,51.0,61,47,1.0,69.0
722,61.0,57,47,1.0,72.0
723,55.0,59,47,1.0,71.0
724,77.0,3,225,0.0,69.0
725,61.0,63,47,1.0,75.0
726,51.0,1,47,1.0,72.0
727,61.0,63,47,1.0,72.0
728,55.0,60,47,1.0,72.0
729,75.0,57,225,0.0,75.0
730,61.0,56,47,1.0,71.0
731,51.0,0,47,1.0,72.0
732,61.0,61,47,1.0,74.0
733,55.0,61,47,1.0,76.0
734,84.0,60,225,0.0,76.0
735,61.0,61,47,1.0,74.0
736,51.0,3,47,1.0,75.0
737,61.0,58,47,1.0,73.0
738,55.0,62,47,1.0,78.0
739,79.0,57,225,0.0,72.0
740,61.0,59,47,1.0,79.0
741,51.0,60,47,1.0,77.0
742,60.0,57,47,1.0,76.0
743,56.0,60,47,1.0,81.0
744,60.0,60,47,1.0,79.0
745,51.0,59,47,1.0,77.0
746,80.0,2,338,0.0,75.0
747,60.0,63,47,1.0,78.0
748,56.0,59,47,1.0,82.0
749,60.0,58,47,1.0,78.0
750,75.0,2,112,0.0,80.0
751,51.0,0,47,1.0,81.0
752,60.0,58,47,1.0,80.0
753,56.0,58,47,1.0,81.0
754,60.0,60,47,1.0,81.0
755,75.0,62,225,0.0,80.0
756,51.0,2,47,1.0,81.0
757,60.0,61,47,1.0,79.0
758,56.0,58,47,1.0,80.0
759,75.0,61,225,0.0,81.0
760,60.0,62,47,1.0,86.0
761,51.0,57,47,1.0,81.0
762,61.0,61,47,1.0,83.0
763,55.0,59,47,1.0,86.0
764,61.0,57,47,1.0,82.0
765,77.0,2,225,0.0,84.0
766,51.0,62,47,1.0,81.0
767,61.0,57,47,1.0,84.0
768,55.0,60,47,1.0,85.0
769,75.0,1,225,0.0,81.0
770,61.0,64,47,1.0,88.0
771,51.0,2,47,1.0,83.0
772,61.0,57,47,1.0,84.0
773,55.0,61,47,1.0,85.0
774,61.0,60,47,1.0,85.0
775,51.0,62,47,1.0,87.0
776,89.0,58,338,0.0,89.0
777,61.0,56,47,1.0,85.0
778,55.0,2,47,1.0,87.0
779,61.0,58,47,1.0,92.0
780,79.0,60,112,0.0,86.0
781,51.0,0,47,1.0,89.0
782,60.0,62,47,1.0,88.0
783,56.0,59,47,1.0,86.0
784,60.0,61,47,1.0,85.0
785,51.0,56,47,1.0,87.0
786,80.0,62,338,0.0,87.0
787,60.0,63,47,1.0,89.0
788,56.0,3,47,1.0,86.0
789,60.0,57,47,1.0,84.0
790,75.0,58,112,0.0,87.0
791,51.0,59,47,1.0,86.0
792,60.0,57,47,1.0,88.0
793,56.0,62,47,1.0,84.0
794,77.0,3,225,0.0,90.0
795,60.0,62,47,1.0,85.0
796,51.0,1,47,1.0,84.0
797,60.0,58,47,1.0,88.0
798,56.0,60,47,1.0,86.0
799,75.0,58,225,0.0,86.0
800,60.0,62,47,1.0,81.0
801,51.0,0,47,1.0,85.0
802,56.0,58,47,1.0,84.0
803,51.0,61,47,1.0,86.0
804,56.0,62,47,1.0,83.0
805,51.0,61,47,1.0,81.0
806,73.0,59,338,0.0,86.0
807,56.0,58,47,1.0,81.0
808,51.0,3,47,1.0,80.0
809,56.0,60,47,1.0,83.0
810,72.0,58,112,0.0,81.0
811,51.0,1,47,1.0,85.0
812,56.0,58,47,1.0,82.0
813,51.0,61,47,1.0,79.0
814,73.0,60,225,0.0,81.0
815,56.0,59,47,1.0,78.0
816,51.0,2,47,1.0,77.0
817,56.0,56,47,1.0,83.0
818,51.0,62,47,1.0,83.0
819,56.0,58,47,1.0,81.0
820,72.0,60,225,0.0,81.0
821,51.0,2,47,1.0,77.0
822,58.0,59,47,1.0,78.0
823,51.0,58,47,1.0,80.0
824,58.0,64,47,1.0,76.0
825,51.0,56,47,1.0,75.0
826,70.0,61,338,0.0,79.0
827,58.0,61,47,1.0,77.0
828,51.0,4,47,1.0,81.0
829,58.0,56,47,1.0,78.0
830,68.0,59,112,0.0,79.0
831,51.0,2,47,1.0,77.0
832,58.0,61,47,1.0,80.0
833,51.0,60,47,1.0,74.0
834,70.0,60,225,0.0,77.0
835,58.0,57,47,1.0,76.0
836,51.0,0,47,1.0,75.0
837,58.0,62,47,1.0,75.0
838,51.0,62,47,1.0,77.0
839,68.0,60,225,0.0,75.0
840,58.0,59,47,1.0,77.0
841,51.0,3,47,1.0,73.0
842,61.0,57,47,1.0,77.0
843,55.0,62,47,1.0,76.0
844,61.0,57,47,1.0,73.0
845,51.0,60,47,1.0,74.0
846,67.0,58,338,0.0,76.0
847,61.0,63,47,1.0,74.0
848,55.0,1,47,1.0,71.0
849,61.0,60,47,1.0,73.0
850,65.0,60,112,0.0,75.0
851,51.0,57,47,1.0,73.0
852,61.0,57,47,1.0,74.0
853,55.0,63,47,1.0,72.0
854,61.0,56,47,1.0,73.0
855,67.0,3,225,0.0,69.0
856,51.0,4,47,1.0,69.0
857,61.0,56,47,1.0,68.0
858,55.0,62,47,1.0,71.0
859,75.0,60,225,0.0,68.0
860,61.0,61,47,1.0,67.0
861,56.0,0,760,1.0,73.0
862,51.0,57,760,1.0,70.0
863,48.0,1,760,1.0,67.0
864,44.0,2,760,1.0,67.0
865,68.0,1,902,0.0,70.0
866,32.0,956,95,1.0,58.0
867,51.0,63,47,0.0,76.0
868,56.0,59,47,0.0,81.0
869,39.0,1,95,1.0,77.0
870,59.0,60,47,0.0,79.0
871,63.0,57,47,0.0,80.0
872,32.0,2,95,1.0,78.0
873,56.0,60,47,0.0,81.0
874,59.0,2,47,0.0,82.0
875,39.0,58,95,1.0,81.0
876,63.0,58,47,0.0,78.0
877,68.0,1,47,0.0,82.0
878,32.0,63,95,1.0,84.0
879,59.0,57,47,0.0,77.0
880,63.0,60,47,0.0,83.0
881,39.0,3,95,1.0,84.0
882,68.0,59,47,0.0,83.0
883,71.0,58,47,0.0,92.0
884,32.0,0,95,1.0,82.0
885,63.0,60,47,0.0,78.0
886,68.0,60,47,0.0,79.0
887,39.0,1,95,1.0,80.0
888,71.0,59,47,0.0,83.0
889,75.0,61,47,0.0,89.0
890,32.0,0,95,1.0,85.0
891,68.0,58,47,0.0,76.0
892,71.0,2,47,0.0,86.0
893,39.0,62,95,1.0,89.0
894,75.0,60,47,0.0,79.0
895,80.0,56,47,0.0,86.0
896,32.0,1,95,1.0,79.0
897,71.0,63,47,0.0,91.0
898,75.0,58,47,0.0,83.0
899,39.0,0,95,1.0,106.0
900,80.0,60,47,0.0,83.0
901,83.0,2,47,0.0,85.0
902,32.0,59,95,1.0,80.0
903,75.0,59,47,0.0,83.0
904,80.0,61,47,0.0,79.0
905,39.0,1,95,1.0,82.0
906,83.0,60,47,0.0,93.0
907,75.0,0,95,0.0,123.0
908,87.0,56,95,0.0,121.0
909,83.0,1,95,0.0,120.0
910,32.0,0,95,1.0,122.0
911,44.0,1,95,1.0,118.0
912,80.0,2,95,0.0,121.0
913,39.0,116,95,1.0,118.0
914,87.0,1,95,0.0,119.0
915,75.0,0,95,0.0,123.0
916,83.0,1,95,0.0,123.0
917,80.0,1,95,0.0,119.0
918,31.0,117,95,1.0,80.0
919,55.0,60,47,0.0,71.0
920,58.0,60,47,0.0,81.0
921,39.0,4,95,1.0,84.0
922,61.0,58,47,0.0,76.0
923,67.0,1,47,0.0,85.0
924,31.0,61,95,1.0,83.0
925,58.0,59,47,0.0,82.0
926,61.0,57,47,0.0,78.0
927,39.0,2,95,1.0,83.0
928,67.0,60,47,0.0,85.0
929,70.0,2,47,0.0,78.0
930,31.0,58,95,1.0,83.0
931,61.0,58,47,0.0,79.0
932,67.0,60,47,0.0,82.0
933,39.0,2,95,1.0,81.0
934,70.0,58,47,0.0,83.0
935,73.0,60,47,0.0,84.0
936,31.0,3,95,1.0,80.0
937,67.0,61,47,0.0,79.0
938,70.0,3,47,0.0,82.0
939,39.0,57,95,1.0,80.0
940,73.0,60,47,0.0,83.0
941,79.0,1,47,0.0,85.0
942,31.0,59,95,1.0,80.0
943,70.0,60,47,0.0,78.0
944,73.0,1,47,0.0,72.0
945,39.0,57,95,1.0,76.0
946,79.0,59,47,0.0,87.0
947,82.0,61,47,0.0,88.0
948,31.0,1,95,1.0,81.0
949,73.0,57,47,0.0,81.0
950,79.0,61,47,0.0,91.0
951,39.0,1,95,1.0,78.0
952,82.0,61,47,0.0,82.0
953,85.0,61,47,0.0,88.0
954,31.0,0,95,1.0,86.0
955,79.0,60,47,0.0,90.0
956,82.0,58,47,0.0,82.0
957,39.0,2,95,1.0,84.0
958,85.0,57,47,0.0,81.0
959,79.0,0,95,0.0,123.0
960,82.0,60,95,0.0,119.0
961,87.0,1,95,0.0,123.0
962,43.0,0,95,1.0,124.0
963,85.0,1,95,0.0,122.0
964,31.0,0,95,1.0,123.0
965,75.0,1,95,0.0,121.0
966,39.0,0,95,1.0,122.0
967,82.0,116,95,0.0,124.0
968,75.0,2,95,0.0,123.0
969,79.0,0,95,0.0,118.0
970,85.0,0,95,0.0,119.0
971,87.0,1,95,0.0,123.0
972,30.0,120,95,1.0,76.0
973,54.0,58,47,0.0,103.0
974,57.0,59,47,0.0,84.0
975,39.0,0,95,1.0,80.0
976,60.0,61,47,0.0,77.0
977,66.0,61,47,0.0,89.0
978,30.0,1,95,1.0,76.0
979,57.0,61,47,0.0,89.0
980,60.0,56,47,0.0,89.0
981,39.0,3,95,1.0,74.0
982,66.0,60,47,0.0,82.0
983,69.0,3,47,0.0,88.0
984,30.0,57,95,1.0,75.0
985,60.0,59,47,0.0,87.0
986,66.0,61,47,0.0,79.0
987,39.0,1,95,1.0,80.0
988,69.0,59,47,0.0,88.0
989,72.0,4,47,0.0,87.0
990,30.0,57,95,1.0,77.0
991,66.0,59,47,0.0,86.0
992,69.0,1,47,0.0,90.0
993,39.0,59,95,1.0,81.0
994,72.0,61,47,0.0,89.0
995,78.0,57,47,0.0,107.0
996,30.0,1,95,1.0,80.0
997,69.0,61,47,0.0,71.0
998,72.0,1,47,0.0,78.0
999,39.0,59,95,1.0,84.0
1000,78.0,58,47,0.0,85.0
1001,81.0,1,47,0.0,88.0
1002,30.0,61,95,1.0,81.0
1003,72.0,60,47,0.0,76.0
1004,78.0,3,47,0.0,85.0
1005,39.0,57,95,1.0,82.0
1006,81.0,57,47,0.0,92.0
1007,84.0,3,47,0.0,94.0
1008,30.0,61,95,1.0,81.0
1009,78.0,59,47,0.0,81.0
1010,81.0,58,47,0.0,86.0
1011,39.0,1,95,1.0,84.0
1012,84.0,61,47,0.0,90.0
1013,42.0,0,95,1.0,118.0
1014,78.0,0,95,0.0,118.0
1015,81.0,0,95,0.0,122.0
1016,84.0,57,95,0.0,123.0
1017,30.0,1,95,1.0,123.0
1018,90.0,3,95,0.0,124.0
1019,78.0,0,95,0.0,124.0
1020,84.0,0,95,0.0,118.0
1021,90.0,117,95,0.0,123.0
1022,39.0,1,95,1.0,121.0
1023,81.0,2,95,0.0,124.0
1024,31.0,119,95,1.0,83.0
1025,55.0,60,47,0.0,86.0
1026,58.0,58,47,0.0,80.0
1027,38.0,3,95,1.0,89.0
1028,62.0,60,47,0.0,81.0
1029,67.0,57,47,0.0,82.0
1030,31.0,1,95,1.0,82.0
1031,67.0,58,47,0.0,83.0
1032,70.0,60,47,0.0,81.0
1033,38.0,0,95,1.0,89.0
1034,74.0,61,47,0.0,82.0
1035,79.0,59,47,0.0,94.0
1036,31.0,1,95,1.0,85.0
1037,79.0,63,47,0.0,82.0
1038,82.0,57,47,0.0,77.0
1039,38.0,2,95,1.0,92.0
1040,86.0,59,47,0.0,85.0
1041,31.0,58,95,1.0,123.0
1042,86.0,1,95,0.0,119.0
1043,82.0,1,95,0.0,123.0
1044,79.0,0,95,0.0,121.0
1045,91.0,1,95,0.0,122.0
1046,43.0,1,95,1.0,122.0
1047,86.0,116,95,0.0,122.0
1048,38.0,0,95,1.0,120.0
1049,82.0,0,95,0.0,123.0
1050,91.0,3,95,0.0,123.0
1051,79.0,1,95,0.0,123.0
1052,31.0,120,95,1.0,90.0
1053,55.0,60,47,0.0,83.0
1054,58.0,59,47,0.0,78.0
1055,37.0,0,95,1.0,88.0
1056,61.0,59,47,0.0,86.0
1057,67.0,62,47,0.0,86.0
1058,31.0,0,95,1.0,84.0
1059,67.0,59,47,0.0,88.0
1060,70.0,1,47,0.0,86.0
1061,37.0,59,95,1.0,92.0
1062,73.0,61,47,0.0,80.0
1063,79.0,2,47,0.0,91.0
1064,31.0,57,95,1.0,81.0
1065,79.0,59,47,0.0,90.0
1066,82.0,58,47,0.0,84.0
1067,37.0,1,95,1.0,88.0
1068,85.0,62,47,0.0,87.0
1069,82.0,57,95,0.0,118.0
1070,31.0,1,95,1.0,118.0
1071,79.0,0,95,0.0,124.0
1072,85.0,1,95,0.0,120.0
1073,91.0,1,95,0.0,124.0
1074,43.0,1,95,1.0,124.0
1075,85.0,116,95,0.0,119.0
1076,91.0,2,95,0.0,123.0
1077,37.0,1,95,1.0,123.0
1078,79.0,0,95,0.0,119.0
1079,82.0,1,95,0.0,122.0
1080,91.0,116,23,0.0,99.0
1081,92.0,30,23,0.0,97.0
1082,91.0,33,23,0.0,98.0
1083,92.0,29,23,0.0,96.0
1084,91.0,32,23,0.0,98.0
1085,92.0,27,23,0.0,93.0
1086,91.0,32,23,0.0,97.0
1087,92.0,30,23,0.0,95.0
1088,91.0,27,23,0.0,92.0
1089,92.0,30,23,0.0,92.0
1090,91.0,27,23,0.0,90.0
1091,92.0,31,23,0.0,95.0
1092,91.0,32,23,0.0,92.0
1093,92.0,28,23,0.0,89.0
1094,67.0,1,190,1.0,114.0
1095,55.0,2,190,1.0,112.0
1096,91.0,33,23,0.0,90.0
1097,92.0,30,23,0.0,88.0
1098,91.0,26,23,0.0,92.0
1099,92.0,28,23,0.0,88.0
1100,91.0,31,23,0.0,86.0
1101,92.0,28,23,0.0,87.0
1102,91.0,32,23,0.0,87.0
1103,92.0,32,23,0.0,87.0
1104,68.0,1,190,1.0,110.0
1105,56.0,2,190,1.0,111.0
1106,91.0,29,23,0.0,85.0
1107,92.0,27,23,0.0,87.0
1108,91.0,1,23,0.0,87.0
1109,92.0,30,23,0.0,83.0
1110,91.0,29,23,0.0,85.0
1111,92.0,29,23,0.0,87.0
1112,91.0,33,23,0.0,81.0
1113,92.0,26,23,0.0,81.0
1114,49.0,30,190,1.0,102.0
1115,61.0,2,190,1.0,102.0
1116,91.0,32,23,0.0,85.0
1117,92.0,31,23,0.0,80.0
1118,91.0,2,47,0.0,96.0
1119,89.0,62,47,0.0,99.0
1120,87.0,60,47,0.0,95.0
1121,60.0,27,190,1.0,99.0
1122,48.0,0,190,1.0,97.0
1123,85.0,60,47,0.0,95.0
1124,87.0,59,47,0.0,92.0
1125,85.0,60,47,0.0,92.0
1126,84.0,57,47,0.0,93.0
1127,43.0,0,190,1.0,93.0
1128,55.0,1,190,1.0,90.0
1129,82.0,62,47,0.0,91.0
1130,84.0,1,47,0.0,89.0
1131,82.0,60,47,0.0,85.0
1132,80.0,60,47,0.0,87.0
1133,42.0,58,190,1.0,87.0
1134,54.0,0,190,1.0,90.0
1135,79.0,60,47,0.0,85.0
1136,80.0,3,47,0.0,80.0
1137,79.0,58,47,0.0,78.0
1138,77.0,58,47,0.0,81.0
1139,41.0,59,190,1.0,80.0
1140,53.0,0,190,1.0,81.0
1141,76.0,61,47,0.0,77.0
1142,77.0,1,47,0.0,63.0
1143,84.0,59,47,0.0,62.0
1144,81.0,59,47,0.0,63.0
1145,84.0,60,47,0.0,64.0
1146,77.0,62,47,0.0,61.0
1147,84.0,58,47,0.0,61.0
1148,60.0,60,349,1.0,75.0
1149,81.0,2,47,0.0,62.0
1150,84.0,60,47,0.0,64.0
1151,60.0,62,116,1.0,77.0
1152,77.0,60,47,0.0,64.0
1153,84.0,56,47,0.0,64.0
1154,81.0,60,47,0.0,62.0
1155,84.0,64,47,0.0,60.0
1156,60.0,0,232,1.0,76.0
1157,77.0,1,47,0.0,61.0
1158,84.0,57,47,0.0,63.0
1159,81.0,63,47,0.0,61.0
1160,84.0,56,47,0.0,58.0
1161,60.0,59,232,1.0,75.0
1162,77.0,60,47,0.0,63.0
1163,84.0,59,47,0.0,61.0
1164,81.0,59,47,0.0,61.0
1165,84.0,60,47,0.0,62.0
1166,62.0,3,232,1.0,77.0
1167,77.0,59,47,0.0,59.0
1168,84.0,61,47,0.0,64.0
1169,81.0,58,47,0.0,64.0
1170,84.0,61,47,0.0,61.0
1171,60.0,1,232,1.0,73.0
1172,77.0,3,47,0.0,62.0
1173,84.0,58,47,0.0,62.0
1174,81.0,61,47,0.0,61.0
1175,84.0,62,47,0.0,63.0
1176,77.0,57,47,0.0,61.0
1177,60.0,59,349,1.0,79.0
1178,84.0,63,47,0.0,62.0
1179,81.0,56,47,0.0,64.0
1180,84.0,57,47,0.0,62.0
1181,60.0,3,116,1.0,75.0
1182,76.0,61,47,0.0,60.0
1183,82.0,63,47,0.0,62.0
1184,79.0,59,47,0.0,59.0
1185,82.0,59,47,0.0,60.0
1186,60.0,0,232,1.0,77.0
1187,76.0,59,47,0.0,59.0
1188,82.0,56,47,0.0,60.0
1189,79.0,64,47,0.0,62.0
1190,82.0,58,47,0.0,62.0
1191,60.0,3,232,1.0,77.0
1192,76.0,3,47,0.0,64.0
1193,82.0,58,47,0.0,59.0
1194,79.0,62,47,0.0,62.0
1195,82.0,58,47,0.0,61.0
1196,62.0,59,232,1.0,73.0
1197,76.0,4,47,0.0,62.0
1198,82.0,60,47,0.0,63.0
1199,79.0,60,47,0.0,62.0
1200,82.0,58,47,0.0,60.0
1201,60.0,58,232,1.0,73.0
1202,77.0,60,47,0.0,61.0
1203,84.0,59,47,0.0,62.0
1204,81.0,60,47,0.0,60.0
1205,84.0,61,47,0.0,58.0
1206,77.0,59,47,0.0,61.0
1207,84.0,58,47,0.0,64.0
1208,67.0,2,349,1.0,76.0
1209,81.0,61,47,0.0,58.0
1210,84.0,57,47,0.0,61.0
1211,65.0,2,116,1.0,79.0
1212,77.0,60,47,0.0,58.0
1213,85.0,57,47,0.0,60.0
1214,81.0,62,47,0.0,64.0
1215,85.0,60,47,0.0,59.0
1216,65.0,3,232,1.0,75.0
1217,77.0,58,47,0.0,58.0
1218,85.0,56,47,0.0,63.0
1219,81.0,61,47,0.0,60.0
1220,85.0,62,47,0.0,62.0
1221,65.0,3,232,1.0,78.0
1222,77.0,1,47,0.0,62.0
1223,86.0,58,47,0.0,58.0
1224,82.0,61,47,0.0,60.0
1225,86.0,60,47,0.0,64.0
1226,77.0,60,47,0.0,59.0
1227,86.0,61,47,0.0,63.0
1228,65.0,59,349,1.0,73.0
1229,82.0,2,47,0.0,63.0
1230,86.0,59,47,0.0,63.0
1231,65.0,57,116,1.0,75.0
1232,77.0,60,47,0.0,60.0
1233,86.0,58,47,0.0,58.0
1234,82.0,59,47,0.0,60.0
1235,86.0,62,47,0.0,58.0
1236,65.0,3,232,1.0,76.0
1237,77.0,59,47,0.0,61.0
1238,86.0,58,47,0.0,62.0
1239,79.0,61,47,0.0,60.0
1240,86.0,62,47,0.0,58.0
1241,67.0,1,232,1.0,74.0
1242,76.0,59,47,0.0,59.0
1243,86.0,60,47,0.0,60.0
1244,81.0,58,47,0.0,64.0
1245,86.0,60,47,0.0,60.0
1246,76.0,60,47,0.0,64.0
1247,85.0,59,47,0.0,61.0
1248,69.0,1,349,1.0,75.0
1249,81.0,59,47,0.0,64.0
1250,85.0,59,47,0.0,64.0
1251,67.0,3,116,1.0,79.0
1252,77.0,2,47,0.0,61.0
1253,86.0,60,47,0.0,64.0
1254,81.0,57,47,0.0,63.0
1255,86.0,62,47,0.0,63.0
1256,65.0,59,232,1.0,74.0
1257,80.0,2,47,0.0,59.0
1258,86.0,60,47,0.0,61.0
1259,74.0,60,47,0.0,61.0
1260,84.0,57,47,0.0,63.0
1261,62.0,59,232,1.0,77.0
1262,77.0,61,47,0.0,75.0
1263,84.0,57,47,0.0,76.0
1264,81.0,62,47,0.0,79.0
1265,84.0,59,47,0.0,74.0
1266,77.0,63,47,0.0,77.0
1267,84.0,58,47,0.0,75.0
1268,48.0,2,349,1.0,76.0
1269,81.0,1,47,0.0,78.0
1270,84.0,59,47,0.0,81.0
1271,48.0,61,116,1.0,77.0
1272,77.0,59,47,0.0,80.0
1273,84.0,60,47,0.0,78.0
1274,81.0,60,47,0.0,79.0
1275,84.0,60,47,0.0,78.0
1276,48.0,2,232,1.0,76.0
1277,77.0,2,47,0.0,82.0
1278,84.0,61,47,0.0,77.0
1279,81.0,56,47,0.0,77.0
1280,84.0,62,47,0.0,76.0
1281,48.0,57,232,1.0,77.0
1282,77.0,3,47,0.0,77.0
1283,84.0,57,47,0.0,79.0
1284,81.0,60,47,0.0,78.0
1285,84.0,62,47,0.0,77.0
1286,50.0,58,232,1.0,76.0
1287,77.0,1,47,0.0,77.0
1288,84.0,59,47,0.0,83.0
1289,81.0,64,47,0.0,81.0
1290,84.0,57,47,0.0,79.0
1291,48.0,58,232,1.0,82.0
1292,77.0,4,47,0.0,79.0
1293,84.0,57,47,0.0,81.0
1294,81.0,62,47,0.0,79.0
1295,84.0,58,47,0.0,80.0
1296,77.0,61,47,0.0,80.0
1297,48.0,59,349,1.0,80.0
1298,84.0,61,47,0.0,84.0
1299,81.0,4,47,0.0,80.0
1300,84.0,56,47,0.0,82.0
1301,48.0,57,116,1.0,84.0
1302,76.0,3,47,0.0,82.0
1303,82.0,57,47,0.0,80.0
1304,79.0,64,47,0.0,84.0
1305,82.0,60,47,0.0,83.0
1306,48.0,60,232,1.0,81.0
1307,76.0,56,47,0.0,82.0
1308,82.0,57,47,0.0,80.0
1309,79.0,60,47,0.0,83.0
1310,82.0,61,47,0.0,85.0
1311,48.0,4,232,1.0,85.0
1312,76.0,58,47,0.0,83.0
1313,82.0,58,47,0.0,81.0
1314,79.0,61,47,0.0,88.0
1315,82.0,58,47,0.0,85.0
1316,50.0,3,232,1.0,81.0
1317,76.0,60,47,0.0,85.0
1318,82.0,63,47,0.0,88.0
1319,79.0,56,47,0.0,84.0
1320,82.0,61,47,0.0,88.0
1321,48.0,1,232,1.0,82.0
1322,77.0,62,47,0.0,88.0
1323,84.0,58,47,0.0,83.0
1324,81.0,62,47,0.0,90.0
1325,84.0,59,47,0.0,89.0
1326,77.0,61,47,0.0,88.0
1327,84.0,59,47,0.0,89.0
1328,55.0,1,349,1.0,87.0
1329,81.0,2,47,0.0,87.0
1330,84.0,60,47,0.0,89.0
1331,53.0,58,116,1.0,84.0
1332,77.0,2,47,0.0,84.0
1333,85.0,58,47,0.0,86.0
1334,81.0,60,47,0.0,86.0
1335,85.0,63,47,0.0,86.0
1336,53.0,58,232,1.0,88.0
1337,77.0,57,47,0.0,86.0
1338,85.0,59,47,0.0,90.0
1339,81.0,59,47,0.0,91.0
1340,85.0,60,47,0.0,91.0
1341,53.0,1,232,1.0,89.0
1342,77.0,61,47,0.0,92.0
1343,86.0,61,47,0.0,92.0
1344,82.0,62,47,0.0,91.0
1345,86.0,56,47,0.0,87.0
1346,77.0,61,47,0.0,88.0
1347,86.0,62,47,0.0,92.0
1348,53.0,0,349,1.0,92.0
1349,82.0,59,47,0.0,90.0
1350,86.0,58,47,0.0,93.0
1351,53.0,0,116,1.0,90.0
1352,77.0,4,47,0.0,93.0
1353,86.0,60,47,0.0,89.0
1354,82.0,58,47,0.0,89.0
1355,86.0,60,47,0.0,90.0
1356,53.0,60,232,1.0,89.0
1357,77.0,1,47,0.0,91.0
1358,86.0,59,47,0.0,88.0
1359,79.0,63,47,0.0,90.0
1360,86.0,60,47,0.0,91.0
1361,55.0,58,232,1.0,91.0
1362,76.0,2,47,0.0,89.0
1363,86.0,57,47,0.0,93.0
1364,81.0,62,47,0.0,92.0
1365,86.0,60,47,0.0,92.0
1366,76.0,60,47,0.0,93.0
1367,85.0,59,47,0.0,91.0
1368,57.0,59,349,1.0,94.0
1369,81.0,1,47,0.0,92.0
1370,85.0,60,47,0.0,93.0
1371,55.0,58,116,1.0,93.0
1372,77.0,59,47,0.0,97.0
1373,86.0,60,47,0.0,92.0
1374,81.0,61,47,0.0,93.0
1375,86.0,60,47,0.0,98.0
1376,53.0,3,232,1.0,96.0
1377,80.0,56,47,0.0,98.0
1378,86.0,62,47,0.0,93.0
1379,74.0,57,47,0.0,94.0
1380,84.0,60,47,0.0,98.0
1381,50.0,1,232,1.0,97.0
1382,74.0,4,47,0.0,93.0
1383,83.0,57,47,0.0,97.0
1384,79.0,59,47,0.0,94.0
1385,83.0,60,47,0.0,98.0
1386,74.0,62,47,0.0,94.0
1387,50.0,60,349,1.0,94.0
1388,83.0,61,47,0.0,97.0
1389,79.0,1,47,0.0,99.0
1390,83.0,57,47,0.0,95.0
1391,50.0,60,116,1.0,97.0
1392,74.0,59,47,0.0,100.0
1393,83.0,62,47,0.0,100.0
1394,79.0,58,47,0.0,98.0
1395,83.0,63,47,0.0,95.0
1396,50.0,0,232,1.0,98.0
1397,74.0,60,47,0.0,96.0
1398,83.0,58,47,0.0,96.0
1399,76.0,61,47,0.0,102.0
1400,83.0,62,47,0.0,98.0
1401,52.0,0,232,1.0,101.0
1402,73.0,60,47,0.0,101.0
1403,83.0,58,47,0.0,97.0
1404,78.0,62,47,0.0,96.0
1405,83.0,59,47,0.0,102.0
1406,73.0,57,47,0.0,100.0
1407,82.0,61,47,0.0,98.0
1408,54.0,0,349,1.0,101.0
1409,78.0,59,47,0.0,97.0
1410,82.0,60,47,0.0,100.0
1411,52.0,0,116,1.0,103.0
1412,74.0,60,47,0.0,98.0
1413,83.0,59,47,0.0,99.0
1414,78.0,60,47,0.0,103.0
1415,83.0,62,47,0.0,103.0
1416,50.0,3,232,1.0,100.0
1417,77.0,57,47,0.0,101.0
1418,83.0,59,47,0.0,98.0
1419,71.0,64,47,0.0,99.0
1420,81.0,59,47,0.0,101.0
1421,47.0,0,232,1.0,102.0
1422,71.0,57,47,0.0,101.0
1423,80.0,62,47,0.0,104.0
1424,76.0,61,47,0.0,103.0
1425,80.0,59,47,0.0,104.0
1426,71.0,58,47,0.0,106.0
1427,80.0,60,47,0.0,105.0
1428,47.0,1,349,1.0,99.0
1429,76.0,59,47,0.0,105.0
1430,80.0,60,47,0.0,101.0
1431,47.0,4,116,1.0,106.0
1432,71.0,1,47,0.0,104.0
1433,80.0,61,47,0.0,102.0
1434,76.0,61,47,0.0,105.0
1435,80.0,57,47,0.0,106.0
1436,47.0,56,232,1.0,106.0
1437,71.0,1,47,0.0,104.0
1438,80.0,58,47,0.0,106.0
1439,73.0,59,47,0.0,106.0
1440,80.0,64,47,0.0,104.0
1441,49.0,62,232,1.0,106.0
1442,70.0,59,47,0.0,104.0
1443,80.0,57,47,0.0,108.0
1444,75.0,60,47,0.0,105.0
1445,80.0,60,47,0.0,107.0
1446,70.0,63,47,0.0,103.0
1447,79.0,59,47,0.0,105.0
1448,51.0,0,349,1.0,108.0
1449,75.0,58,47,0.0,106.0
1450,79.0,56,47,0.0,107.0
1451,49.0,4,116,1.0,110.0
1452,71.0,61,47,0.0,107.0
1453,80.0,62,47,0.0,110.0
1454,75.0,58,47,0.0,104.0
1455,80.0,59,47,0.0,110.0
1456,47.0,0,232,1.0,108.0
1457,74.0,1,47,0.0,108.0
1458,80.0,57,47,0.0,110.0
1459,68.0,62,47,0.0,107.0
1460,78.0,59,47,0.0,105.0
1461,44.0,62,232,1.0,107.0
1462,68.0,3,47,0.0,111.0
1463,77.0,57,47,0.0,109.0
1464,73.0,61,47,0.0,108.0
1465,77.0,62,47,0.0,106.0
1466,68.0,59,47,0.0,107.0
1467,44.0,59,349,1.0,111.0
1468,77.0,61,47,0.0,107.0
1469,73.0,4,47,0.0,111.0
1470,77.0,56,47,0.0,112.0
1471,44.0,57,116,1.0,111.0
1472,68.0,60,47,0.0,109.0
1473,77.0,63,47,0.0,113.0
1474,73.0,57,47,0.0,109.0
1475,77.0,61,47,0.0,110.0
1476,44.0,1,232,1.0,113.0
1477,68.0,1,47,0.0,108.0
1478,77.0,59,47,0.0,111.0
1479,70.0,61,47,0.0,109.0
1480,77.0,59,47,0.0,110.0
1481,46.0,61,232,1.0,108.0
1482,67.0,3,47,0.0,114.0
1483,77.0,56,47,0.0,113.0
1484,72.0,62,47,0.0,109.0
1485,77.0,61,47,0.0,109.0
1486,67.0,57,47,0.0,109.0
1487,76.0,61,47,0.0,112.0
1488,48.0,58,349,1.0,109.0
1489,72.0,59,47,0.0,116.0
1490,76.0,59,47,0.0,116.0
1491,46.0,1,116,1.0,114.0
1492,68.0,61,47,0.0,113.0
1493,77.0,59,47,0.0,114.0
1494,72.0,61,47,0.0,115.0
1495,77.0,60,47,0.0,111.0
1496,44.0,2,232,1.0,112.0
1497,71.0,57,47,0.0,113.0
1498,77.0,62,47,0.0,113.0
1499,65.0,62,47,0.0,113.0
1500,75.0,59,47,0.0,115.0
1501,41.0,0,232,1.0,115.0
1502,49.0,57,190,1.0,123.0
1503,37.0,1,190,1.0,118.0
1504,73.0,2,190,0.0,122.0
1505,65.0,239,570,0.0,118.0
1506,29.0,0,570,1.0,120.0
1507,41.0,1,570,1.0,122.0
1508,53.0,0,190,1.0,123.0
1509,41.0,718,190,1.0,120.0
1510,65.0,3,190,0.0,120.0
1511,44.0,0,570,1.0,121.0
1512,56.0,236,570,0.0,121.0
1513,32.0,1,570,1.0,124.0
1514,41.0,719,190,1.0,90.0
1515,53.0,0,190,1.0,89.0
1516,65.0,2,190,0.0,85.0
1517,56.0,239,190,0.0,96.0
1518,32.0,2,190,1.0,90.0
1519,44.0,1,190,1.0,90.0
1520,53.0,236,190,1.0,96.0
1521,41.0,0,190,1.0,98.0
1522,65.0,3,190,0.0,90.0
1523,32.0,0,997,1.0,83.0
1524,56.0,238,997,0.0,90.0
1525,44.0,3,997,1.0,87.0
1526,32.0,1200,95,1.0,59.0
1527,51.0,56,47,0.0,76.0
1528,56.0,62,47,0.0,84.0
1529,39.0,2,95,1.0,82.0
1530,59.0,56,47,0.0,81.0
1531,63.0,2,47,0.0,85.0
1532,32.0,62,95,1.0,80.0
1533,56.0,60,47,0.0,83.0
1534,59.0,56,47,0.0,84.0
1535,39.0,2,95,1.0,77.0
1536,63.0,58,47,0.0,82.0
1537,68.0,1,47,0.0,80.0
1538,32.0,63,95,1.0,82.0
1539,59.0,59,47,0.0,78.0
1540,63.0,57,47,0.0,83.0
1541,39.0,2,95,1.0,84.0
1542,68.0,62,47,0.0,81.0
1543,71.0,58,47,0.0,90.0
1544,32.0,2,95,1.0,76.0
1545,63.0,57,47,0.0,78.0
1546,68.0,62,47,0.0,78.0
1547,39.0,1,95,1.0,78.0
1548,71.0,58,47,0.0,83.0
1549,75.0,3,47,0.0,87.0
1550,32.0,59,95,1.0,86.0
1551,68.0,60,47,0.0,78.0
1552,71.0,59,47,0.0,85.0
1553,39.0,0,95,1.0,88.0
1554,75.0,58,47,0.0,83.0
1555,80.0,1,47,0.0,89.0
1556,32.0,62,95,1.0,83.0
1557,71.0,60,47,0.0,90.0
1558,75.0,2,47,0.0,79.0
1559,39.0,58,95,1.0,107.0
1560,80.0,59,47,0.0,81.0
1561,83.0,57,47,0.0,88.0
1562,32.0,3,95,1.0,78.0
1563,75.0,60,47,0.0,81.0
1564,80.0,59,47,0.0,82.0
1565,39.0,2,95,1.0,86.0
1566,83.0,56,47,0.0,93.0
1567,75.0,0,95,0.0,122.0
1568,83.0,60,95,0.0,124.0
1569,32.0,1,95,1.0,123.0
1570,44.0,1,95,1.0,119.0
1571,87.0,1,95,0.0,119.0
1572,80.0,1,95,0.0,122.0
1573,39.0,116,95,1.0,121.0
1574,87.0,1,95,0.0,119.0
1575,75.0,0,95,0.0,119.0
1576,80.0,0,95,0.0,122.0
1577,83.0,3,95,0.0,118.0
1578,31.0,117,95,1.0,83.0
1579,55.0,62,47,0.0,72.0
1580,58.0,57,47,0.0,84.0
1581,39.0,2,95,1.0,84.0
1582,61.0,58,47,0.0,78.0
1583,67.0,63,47,0.0,83.0
1584,31.0,0,95,1.0,85.0
1585,58.0,57,47,0.0,84.0
1586,61.0,61,47,0.0,81.0
1587,39.0,1,95,1.0,78.0
1588,67.0,61,47,0.0,88.0
1589,70.0,60,47,0.0,79.0
1590,31.0,1,95,1.0,83.0
1591,61.0,59,47,0.0,81.0
1592,67.0,2,47,0.0,82.0
1593,39.0,59,95,1.0,80.0
1594,70.0,58,47,0.0,82.0
1595,73.0,59,47,0.0,83.0
1596,31.0,2,95,1.0,81.0
1597,67.0,60,47,0.0,82.0
1598,70.0,57,47,0.0,79.0
1599,39.0,1,95,1.0,82.0
1600,73.0,60,47,0.0,84.0
1601,79.0,61,47,0.0,80.0
1602,31.0,0,95,1.0,84.0
1603,70.0,58,47,0.0,81.0
1604,73.0,2,47,0.0,77.0
1605,39.0,60,95,1.0,82.0
1606,79.0,58,47,0.0,89.0
1607,82.0,61,47,0.0,86.0
1608,31.0,3,95,1.0,82.0
1609,73.0,56,47,0.0,77.0
1610,79.0,62,47,0.0,86.0
1611,39.0,1,95,1.0,81.0
1612,82.0,59,47,0.0,85.0
1613,85.0,3,47,0.0,87.0
1614,31.0,58,95,1.0,84.0
1615,79.0,60,47,0.0,89.0
1616,82.0,58,47,0.0,84.0
1617,39.0,1,95,1.0,83.0
1618,85.0,59,47,0.0,82.0
1619,43.0,59,95,1.0,122.0
1620,85.0,1,95,0.0,120.0
1621,31.0,0,95,1.0,123.0
1622,87.0,1,95,0.0,120.0
1623,79.0,1,95,0.0,120.0
1624,75.0,0,95,0.0,121.0
1625,82.0,1,95,0.0,118.0
1626,75.0,116,95,0.0,122.0
1627,79.0,0,95,0.0,122.0
1628,85.0,2,95,0.0,120.0
1629,39.0,0,95,1.0,123.0
1630,87.0,1,95,0.0,122.0
1631,82.0,1,95,0.0,119.0
1632,30.0,120,95,1.0,75.0
1633,54.0,59,47,0.0,103.0
1634,57.0,58,47,0.0,79.0
1635,39.0,2,95,1.0,81.0
1636,60.0,58,47,0.0,72.0
1637,66.0,1,47,0.0,86.0
1638,30.0,60,95,1.0,74.0
1639,57.0,60,47,0.0,93.0
1640,60.0,60,47,0.0,94.0
1641,39.0,0,95,1.0,72.0
1642,66.0,58,47,0.0,82.0
1643,69.0,61,47,0.0,92.0
1644,30.0,0,95,1.0,76.0
1645,60.0,63,47,0.0,88.0
1646,66.0,58,47,0.0,78.0
1647,39.0,1,95,1.0,78.0
1648,69.0,59,47,0.0,87.0
1649,72.0,58,47,0.0,92.0
1650,30.0,3,95,1.0,75.0
1651,66.0,57,47,0.0,89.0
1652,69.0,3,47,0.0,93.0
1653,39.0,60,95,1.0,75.0
1654,72.0,60,47,0.0,89.0
1655,78.0,1,47,0.0,108.0
1656,30.0,60,95,1.0,81.0
1657,69.0,60,47,0.0,73.0
1658,72.0,3,47,0.0,79.0
1659,39.0,57,95,1.0,79.0
1660,78.0,59,47,0.0,82.0
1661,81.0,59,47,0.0,92.0
1662,30.0,1,95,1.0,83.0
1663,72.0,58,47,0.0,76.0
1664,78.0,4,47,0.0,85.0
1665,39.0,59,95,1.0,83.0
1666,81.0,59,47,0.0,91.0
1667,84.0,2,47,0.0,93.0
1668,30.0,58,95,1.0,85.0
1669,78.0,60,47,0.0,84.0
1670,81.0,57,47,0.0,85.0
1671,39.0,4,95,1.0,80.0
1672,84.0,57,47,0.0,91.0
1673,81.0,0,95,0.0,120.0
1674,84.0,59,95,0.0,119.0
1675,90.0,1,95,0.0,123.0
1676,30.0,2,95,1.0,123.0
1677,42.0,0,95,1.0,118.0
1678,78.0,1,95,0.0,119.0
1679,78.0,117,95,0.0,122.0
1680,39.0,0,95,1.0,121.0
1681,81.0,0,95,0.0,122.0
1682,84.0,1,95,0.0,120.0
1683,90.0,1,95,0.0,120.0
1684,31.0,119,95,1.0,84.0
1685,55.0,60,47,0.0,86.0
1686,58.0,1,47,0.0,82.0
1687,38.0,59,95,1.0,85.0
1688,62.0,62,47,0.0,85.0
1689,67.0,57,47,0.0,85.0
1690,31.0,0,95,1.0,79.0
1691,67.0,62,47,0.0,80.0
1692,70.0,59,47,0.0,85.0
1693,38.0,1,95,1.0,88.0
1694,74.0,61,47,0.0,85.0
1695,79.0,2,47,0.0,91.0
1696,31.0,57,95,1.0,80.0
1697,79.0,57,47,0.0,87.0
1698,82.0,61,47,0.0,76.0
1699,38.0,0,95,1.0,89.0
1700,86.0,59,47,0.0,87.0
1701,82.0,61,95,0.0,124.0
1702,43.0,0,95,1.0,123.0
1703,79.0,1,95,0.0,119.0
1704,86.0,0,95,0.0,121.0
1705,91.0,1,95,0.0,120.0
1706,31.0,1,95,1.0,120.0
1707,79.0,0,95,0.0,121.0
1708,86.0,116,95,0.0,119.0
1709,82.0,0,95,0.0,118.0
1710,91.0,3,95,0.0,119.0
1711,38.0,1,95,1.0,121.0
1712,31.0,116,95,1.0,88.0
1713,55.0,60,47,0.0,87.0
1714,58.0,64,47,0.0,81.0
1715,37.0,0,95,1.0,90.0
1716,61.0,56,47,0.0,84.0
1717,67.0,60,47,0.0,90.0
1718,31.0,4,95,1.0,82.0
1719,67.0,57,47,0.0,91.0
1720,70.0,4,47,0.0,87.0
1721,37.0,59,95,1.0,93.0
1722,73.0,56,47,0.0,82.0
1723,79.0,3,47,0.0,89.0
1724,31.0,60,95,1.0,86.0
1725,79.0,60,47,0.0,88.0
1726,82.0,1,47,0.0,81.0
1727,37.0,59,95,1.0,89.0
1728,85.0,57,47,0.0,86.0
1729,79.0,0,95,0.0,123.0
1730,82.0,60,95,0.0,118.0
1731,43.0,0,95,1.0,124.0
1732,85.0,1,95,0.0,121.0
1733,31.0,0,95,1.0,124.0
1734,91.0,1,95,0.0,119.0
1735,37.0,0,95,1.0,120.0
1736,91.0,118,95,0.0,121.0
1737,82.0,1,95,0.0,121.0
1738,85.0,2,95,0.0,119.0
1739,79.0,1,95,0.0,118.0
1740,38.0,117,95,1.0,88.0
1741,50.0,62,47,0.0,84.0
1742,54.0,60,47,0.0,95.0
1743,50.0,0,95,1.0,90.0
1744,60.0,57,47,0.0,90.0
1745,62.0,63,47,0.0,89.0
1746,42.0,0,95,1.0,91.0
1747,54.0,61,47,0.0,93.0
1748,60.0,58,47,0.0,96.0
1749,50.0,1,95,1.0,81.0
1750,62.0,61,47,0.0,94.0
1751,66.0,2,47,0.0,88.0
1752,38.0,58,95,1.0,85.0
1753,60.0,59,47,0.0,92.0
1754,62.0,61,47,0.0,93.0
1755,50.0,0,95,1.0,87.0
1756,66.0,56,47,0.0,80.0
1757,72.0,3,47,0.0,87.0
1758,42.0,60,95,1.0,88.0
1759,62.0,60,47,0.0,94.0
1760,66.0,3,47,0.0,80.0
1761,50.0,58,95,1.0,88.0
1762,72.0,59,47,0.0,84.0
1763,74.0,58,47,0.0,88.0
1764,38.0,3,95,1.0,84.0
1765,66.0,58,47,0.0,88.0
1766,72.0,1,47,0.0,90.0
1767,50.0,61,95,1.0,87.0
1768,74.0,57,47,0.0,93.0
1769,78.0,1,47,0.0,100.0
1770,42.0,61,95,1.0,87.0
1771,72.0,59,47,0.0,88.0
1772,74.0,2,47,0.0,93.0
1773,50.0,60,95,1.0,93.0
1774,78.0,60,47,0.0,78.0
1775,84.0,58,47,0.0,95.0
1776,38.0,0,95,1.0,89.0
1777,74.0,59,47,0.0,84.0
1778,78.0,60,47,0.0,83.0
1779,50.0,0,95,1.0,88.0
1780,84.0,61,47,0.0,84.0
1781,86.0,58,47,0.0,87.0
1782,42.0,4,95,1.0,89.0
1783,84.0,56,47,0.0,86.0
1784,78.0,2,47,0.0,85.0
1785,50.0,60,95,1.0,87.0
1786,74.0,62,47,0.0,81.0
1787,84.0,1,47,0.0,81.0
1788,42.0,57,95,1.0,85.0
1789,78.0,59,47,0.0,80.0
1790,74.0,1,47,0.0,93.0
1791,50.0,61,95,1.0,92.0
1792,72.0,57,47,0.0,82.0
1793,78.0,61,47,0.0,88.0
1794,42.0,2,95,1.0,84.0
1795,74.0,59,47,0.0,90.0
1796,72.0,59,47,0.0,92.0
1797,50.0,3,95,1.0,85.0
1798,66.0,60,47,0.0,77.0
1799,74.0,56,47,0.0,88.0
1800,42.0,3,95,1.0,84.0
1801,72.0,58,47,0.0,90.0
1802,66.0,59,47,0.0,86.0
1803,50.0,2,95,1.0,91.0
1804,62.0,58,47,0.0,83.0
1805,72.0,62,47,0.0,89.0
1806,42.0,0,95,1.0,97.0
1807,66.0,58,47,0.0,81.0
1808,62.0,1,47,0.0,87.0
1809,50.0,61,95,1.0,92.0
1810,60.0,59,47,0.0,90.0
1811,55.0,1,47,1.0,78.0
1812,62.0,61,47,1.0,80.0
1813,62.0,59,118,0.0,78.0
1814,59.0,0,47,1.0,80.0
1815,62.0,58,47,1.0,80.0
1816,55.0,59,47,1.0,79.0
1817,62.0,61,47,1.0,81.0
1818,62.0,62,237,0.0,90.0
1819,59.0,0,47,1.0,84.0
1820,62.0,58,47,1.0,83.0
1821,62.0,62,118,0.0,84.0
1822,55.0,4,47,1.0,81.0
1823,64.0,58,47,1.0,83.0
1824,59.0,60,47,1.0,83.0
1825,64.0,58,47,1.0,80.0
1826,64.0,58,237,0.0,88.0
1827,55.0,60,47,1.0,83.0
1828,62.0,61,47,1.0,79.0
1829,59.0,56,47,1.0,82.0
1830,62.0,62,47,1.0,81.0
1831,62.0,3,237,0.0,80.0
1832,55.0,58,47,1.0,83.0
1833,60.0,59,47,1.0,87.0
1834,57.0,60,47,1.0,84.0
1835,60.0,61,47,1.0,86.0
1836,69.0,2,237,0.0,84.0
1837,55.0,59,47,1.0,86.0
1838,62.0,61,47,1.0,84.0
1839,59.0,56,47,1.0,88.0
1840,62.0,60,47,1.0,86.0
1841,67.0,2,237,0.0,78.0
1842,55.0,63,47,1.0,81.0
1843,62.0,58,47,1.0,80.0
1844,59.0,60,47,1.0,85.0
1845,62.0,60,47,1.0,86.0
1846,67.0,1,237,0.0,86.0
1847,55.0,1,47,1.0,86.0
1848,62.0,59,47,1.0,81.0
1849,59.0,59,47,1.0,87.0
1850,62.0,60,47,1.0,83.0
1851,67.0,60,237,0.0,89.0
1852,55.0,0,47,1.0,76.0
1853,62.0,57,47,1.0,82.0
1854,60.0,64,47,1.0,86.0
1855,62.0,57,47,1.0,78.0
1856,67.0,62,237,0.0,89.0
1857,55.0,1,47,1.0,80.0
1858,62.0,59,47,1.0,83.0
1859,60.0,61,47,1.0,75.0
1860,62.0,61,47,1.0,86.0
1861,67.0,60,237,0.0,89.0
1862,55.0,58,47,1.0,85.0
1863,62.0,60,47,1.0,86.0
1864,60.0,61,47,1.0,79.0
1865,62.0,59,47,1.0,80.0
1866,67.0,1,237,0.0,83.0
1867,55.0,3,47,1.0,81.0
1868,60.0,58,47,1.0,83.0
1869,57.0,62,47,1.0,74.0
1870,60.0,58,47,1.0,83.0
1871,69.0,59,237,0.0,79.0
1872,55.0,2,47,1.0,83.0
1873,62.0,59,47,1.0,76.0
1874,59.0,59,47,1.0,85.0
1875,62.0,59,47,1.0,79.0
1876,71.0,60,237,0.0,86.0
1877,55.0,1,47,1.0,86.0
1878,62.0,62,47,1.0,80.0
1879,57.0,58,47,1.0,84.0
1880,62.0,62,47,1.0,84.0
1881,69.0,59,237,0.0,86.0
1882,55.0,58,47,1.0,85.0
1883,62.0,61,47,1.0,83.0
1884,59.0,61,47,1.0,82.0
1885,64.0,58,47,1.0,72.0
1886,67.0,1,237,0.0,79.0
1887,55.0,59,47,1.0,89.0
1888,64.0,57,47,1.0,83.0
1889,60.0,60,47,1.0,86.0
1890,64.0,59,47,1.0,84.0
1891,64.0,3,237,0.0,89.0
1892,55.0,0,47,1.0,78.0
1893,64.0,63,47,1.0,81.0
1894,60.0,56,47,1.0,86.0
1895,64.0,64,47,1.0,84.0
1896,64.0,61,237,0.0,87.0
1897,54.0,0,47,1.0,80.0
1898,64.0,59,47,1.0,82.0
1899,60.0,59,47,1.0,81.0
1900,64.0,62,47,1.0,84.0
1901,66.0,59,237,0.0,82.0
1902,55.0,0,47,1.0,84.0
1903,64.0,60,47,1.0,80.0
1904,60.0,58,47,1.0,71.0
1905,64.0,64,47,1.0,86.0
1906,67.0,59,237,0.0,81.0
1907,54.0,56,47,1.0,82.0
1908,60.0,58,47,1.0,80.0
1909,57.0,59,47,1.0,81.0
1910,60.0,63,47,1.0,83.0
1911,57.0,4,237,0.0,82.0
1912,54.0,56,47,1.0,90.0
1913,57.0,60,47,1.0,85.0
1914,55.0,61,47,1.0,88.0
1915,57.0,61,47,1.0,86.0
1916,69.0,2,237,0.0,77.0
1917,54.0,0,47,1.0,78.0
1918,60.0,62,47,1.0,85.0
1919,54.0,58,47,1.0,82.0
1920,57.0,61,47,1.0,86.0
1921,67.0,56,237,0.0,83.0
1922,55.0,0,47,1.0,84.0
1923,62.0,58,47,1.0,87.0
1924,59.0,62,47,1.0,84.0
1925,62.0,59,47,1.0,87.0
1926,72.0,61,237,0.0,77.0
1927,55.0,60,47,1.0,74.0
1928,62.0,58,47,1.0,82.0
1929,59.0,61,47,1.0,80.0
1930,62.0,62,47,1.0,86.0
1931,74.0,1,237,0.0,78.0
1932,56.0,60,47,1.0,78.0
1933,63.0,60,47,1.0,76.0
1934,60.0,58,47,1.0,76.0
1935,63.0,59,47,1.0,75.0
1936,56.0,63,47,1.0,76.0
1937,63.0,58,47,1.0,75.0
1938,75.0,1,356,0.0,78.0
1939,60.0,59,47,1.0,73.0
1940,63.0,58,47,1.0,75.0
1941,75.0,2,118,0.0,79.0
1942,56.0,60,47,1.0,75.0
1943,63.0,56,47,1.0,75.0
1944,60.0,63,47,1.0,78.0
1945,63.0,61,47,1.0,77.0
1946,75.0,3,237,0.0,75.0
1947,56.0,1,47,1.0,76.0
1948,63.0,56,47,1.0,75.0
1949,60.0,60,47,1.0,75.0
1950,63.0,63,47,1.0,79.0
1951,75.0,59,237,0.0,75.0
1952,56.0,58,47,1.0,74.0
1953,63.0,56,47,1.0,76.0
1954,60.0,64,47,1.0,79.0
1955,63.0,59,47,1.0,73.0
1956,77.0,3,237,0.0,75.0
1957,56.0,58,47,1.0,75.0
1958,63.0,58,47,1.0,75.0
1959,60.0,61,47,1.0,77.0
1960,63.0,60,47,1.0,76.0
1961,75.0,2,237,0.0,75.0
1962,56.0,2,47,1.0,76.0
1963,63.0,61,47,1.0,75.0
1964,60.0,58,47,1.0,76.0
1965,63.0,59,47,1.0,75.0
1966,56.0,60,47,1.0,76.0
1967,63.0,60,47,1.0,78.0
1968,75.0,58,356,0.0,77.0
1969,60.0,0,47,1.0,78.0
1970,63.0,63,47,1.0,76.0
1971,75.0,60,118,0.0,74.0
1972,55.0,58,47,1.0,74.0
1973,61.0,62,47,1.0,73.0
1974,58.0,58,47,1.0,79.0
1975,61.0,61,47,1.0,78.0
1976,75.0,1,237,0.0,75.0
1977,55.0,59,47,1.0,79.0
1978,61.0,60,47,1.0,74.0
1979,58.0,58,47,1.0,76.0
1980,61.0,60,47,1.0,79.0
1981,75.0,2,237,0.0,79.0
1982,55.0,60,47,1.0,73.0
1983,61.0,56,47,1.0,75.0
1984,58.0,64,47,1.0,75.0
1985,61.0,60,47,1.0,75.0
1986,77.0,2,237,0.0,78.0
1987,55.0,4,47,1.0,73.0
1988,61.0,59,47,1.0,78.0
1989,58.0,57,47,1.0,77.0
1990,61.0,62,47,1.0,77.0
1991,75.0,56,237,0.0,77.0
1992,56.0,1,47,1.0,76.0
1993,63.0,58,47,1.0,75.0
1994,60.0,59,47,1.0,73.0
1995,63.0,60,47,1.0,76.0
1996,56.0,61,47,1.0,76.0
1997,63.0,59,47,1.0,76.0
1998,82.0,60,356,0.0,74.0
1999,60.0,0,47,1.0,77.0
2000,63.0,58,47,1.0,75.0
2001,80.0,63,118,0.0,76.0
2002,56.0,0,47,1.0,78.0
2003,64.0,58,47,1.0,76.0
2004,60.0,61,47,1.0,75.0
2005,64.0,62,47,1.0,74.0
2006,80.0,61,237,0.0,80.0
2007,56.0,58,47,1.0,79.0
2008,64.0,60,47,1.0,79.0
2009,60.0,59,47,1.0,80.0
2010,64.0,57,47,1.0,79.0
2011,80.0,3,237,0.0,80.0
2012,56.0,0,47,1.0,76.0
2013,65.0,59,47,1.0,81.0
2014,61.0,59,47,1.0,78.0
2015,65.0,59,47,1.0,80.0
2016,56.0,63,47,1.0,77.0
2017,65.0,61,47,1.0,76.0
2018,80.0,63,356,0.0,78.0
2019,61.0,2,47,1.0,80.0
2020,65.0,58,47,1.0,77.0
2021,80.0,58,118,0.0,76.0
2022,56.0,61,47,1.0,81.0
2023,65.0,60,47,1.0,81.0
2024,61.0,56,47,1.0,80.0
2025,65.0,61,47,1.0,77.0
2026,80.0,1,237,0.0,77.0
2027,56.0,62,47,1.0,82.0
2028,65.0,56,47,1.0,77.0
2029,58.0,60,47,1.0,77.0
2030,65.0,61,47,1.0,77.0
2031,82.0,1,237,0.0,77.0
2032,55.0,60,47,1.0,77.0
2033,65.0,61,47,1.0,82.0
2034,60.0,58,47,1.0,81.0
2035,65.0,58,47,1.0,80.0
2036,55.0,62,47,1.0,83.0
2037,64.0,61,47,1.0,80.0
2038,84.0,2,356,0.0,78.0
2039,60.0,60,47,1.0,79.0
2040,64.0,58,47,1.0,78.0
2041,82.0,1,118,0.0,78.0
2042,56.0,59,47,1.0,82.0
2043,65.0,60,47,1.0,81.0
2044,60.0,56,47,1.0,81.0
2045,65.0,63,47,1.0,80.0
2046,80.0,3,237,0.0,82.0
2047,59.0,59,47,1.0,84.0
2048,65.0,58,47,1.0,83.0
2049,53.0,61,47,1.0,83.0
2050,63.0,57,47,1.0,81.0
2051,77.0,2,237,0.0,78.0
2052,53.0,1,47,1.0,82.0
2053,63.0,58,47,1.0,80.0
2054,56.0,58,47,1.0,82.0
2055,63.0,63,47,1.0,81.0
2056,53.0,59,47,1.0,85.0
2057,63.0,58,47,1.0,83.0
2058,77.0,63,356,0.0,82.0
2059,56.0,1,47,1.0,79.0
2060,63.0,60,47,1.0,79.0
2061,79.0,61,118,0.0,81.0
2062,53.0,3,47,1.0,84.0
2063,62.0,56,47,1.0,83.0
2064,56.0,63,47,1.0,80.0
2065,62.0,61,47,1.0,81.0
2066,80.0,59,237,0.0,85.0
2067,53.0,0,47,1.0,80.0
2068,62.0,58,47,1.0,83.0
2069,56.0,59,47,1.0,86.0
2070,62.0,60,47,1.0,86.0
2071,70.0,59,237,0.0,82.0
2072,51.0,60,47,1.0,80.0
2073,61.0,63,47,1.0,83.0
2074,58.0,59,47,1.0,82.0
2075,61.0,57,47,1.0,81.0
2076,70.0,1,237,0.0,82.0
2077,56.0,2,47,1.0,85.0
2078,63.0,58,47,1.0,82.0
2079,58.0,62,47,1.0,80.0
2080,63.0,58,47,1.0,83.0
2081,68.0,62,237,0.0,85.0
2082,55.0,2,47,1.0,82.0
2083,63.0,58,47,1.0,85.0
2084,58.0,60,47,1.0,86.0
2085,63.0,59,47,1.0,81.0
2086,55.0,61,47,1.0,82.0
2087,63.0,60,47,1.0,84.0
2088,73.0,59,356,0.0,83.0
2089,58.0,59,47,1.0,87.0
2090,63.0,60,47,1.0,81.0
2091,63.0,3,118,0.0,82.0
2092,56.0,1,47,1.0,82.0
2093,75.0,60,59,0.0,86.0
2094,63.0,0,47,1.0,84.0
2095,77.0,56,59,0.0,85.0
2096,60.0,61,47,1.0,81.0
2097,79.0,1,59,0.0,84.0
2098,63.0,3,47,1.0,85.0
2099,80.0,59,59,0.0,81.0
2100,56.0,56,47,1.0,82.0
2101,79.0,4,59,0.0,88.0
2102,63.0,59,47,1.0,86.0
2103,80.0,1,59,0.0,83.0
2104,60.0,59,47,1.0,85.0
2105,82.0,1,59,0.0,88.0
2106,63.0,0,47,1.0,86.0
2107,84.0,56,59,0.0,86.0
2108,56.0,2,47,1.0,84.0
2109,82.0,60,59,0.0,84.0
2110,63.0,0,47,1.0,87.0
2111,84.0,60,59,0.0,82.0
2112,60.0,59,47,1.0,82.0
2113,85.0,2,59,0.0,83.0
2114,63.0,3,47,1.0,88.0
2115,87.0,58,59,0.0,85.0
2116,56.0,56,47,1.0,89.0
2117,85.0,2,59,0.0,85.0
2118,63.0,1,47,1.0,85.0
2119,87.0,61,59,0.0,89.0
2120,60.0,0,47,1.0,83.0
2121,89.0,58,59,0.0,88.0
2122,63.0,1,47,1.0,83.0
2123,91.0,60,59,0.0,85.0
2124,56.0,57,47,1.0,89.0
2125,63.0,61,47,1.0,88.0
2126,60.0,59,47,1.0,89.0
2127,63.0,61,47,1.0,85.0
2128,77.0,2,237,0.0,86.0
2129,56.0,2,47,1.0,86.0
2130,63.0,59,47,1.0,86.0
2131,60.0,60,47,1.0,85.0
2132,63.0,62,47,1.0,86.0
2133,75.0,57,237,0.0,90.0
2134,56.0,58,47,1.0,85.0
2135,63.0,58,47,1.0,86.0
2136,60.0,60,47,1.0,88.0
2137,63.0,60,47,1.0,84.0
2138,75.0,1,237,0.0,89.0
2139,56.0,62,47,1.0,88.0
2140,63.0,59,47,1.0,87.0
2141,60.0,59,47,1.0,86.0
2142,63.0,61,47,1.0,86.0
2143,75.0,1,237,0.0,88.0
2144,55.0,3,47,1.0,87.0
2145,75.0,59,59,0.0,85.0
2146,61.0,56,47,1.0,85.0
2147,77.0,4,59,0.0,89.0
2148,58.0,57,47,1.0,85.0
2149,79.0,3,59,0.0,86.0
2150,61.0,56,47,1.0,86.0
2151,80.0,1,59,0.0,85.0
2152,55.0,59,47,1.0,88.0
2153,79.0,4,59,0.0,88.0
2154,61.0,56,47,1.0,87.0
2155,80.0,3,59,0.0,89.0
2156,58.0,0,47,1.0,88.0
2157,82.0,57,59,0.0,91.0
2158,61.0,3,47,1.0,86.0
2159,84.0,61,59,0.0,87.0
2160,55.0,57,47,1.0,88.0
2161,82.0,1,59,0.0,87.0
2162,61.0,58,47,1.0,89.0
2163,84.0,1,59,0.0,85.0
2164,58.0,62,47,1.0,85.0
2165,85.0,1,59,0.0,88.0
2166,61.0,2,47,1.0,88.0
2167,87.0,56,59,0.0,89.0
2168,55.0,0,47,1.0,89.0
2169,85.0,61,59,0.0,88.0
2170,61.0,59,47,1.0,92.0
2171,87.0,1,59,0.0,89.0
2172,58.0,59,47,1.0,90.0
2173,89.0,1,59,0.0,91.0
2174,61.0,2,47,1.0,91.0
2175,91.0,58,59,0.0,90.0
2176,56.0,2,47,1.0,90.0
2177,63.0,59,47,1.0,86.0
2178,60.0,60,47,1.0,87.0
2179,82.0,59,190,0.0,89.0
2180,63.0,60,47,1.0,88.0
2181,56.0,1,47,1.0,92.0
2182,63.0,57,47,1.0,92.0
2183,60.0,61,47,1.0,87.0
2184,80.0,59,190,0.0,87.0
2185,63.0,59,47,1.0,91.0
2186,56.0,2,47,1.0,91.0
2187,64.0,59,47,1.0,88.0
2188,60.0,60,47,1.0,93.0
2189,80.0,62,190,0.0,89.0
2190,64.0,57,47,1.0,92.0
2191,56.0,62,47,1.0,88.0
2192,64.0,59,47,1.0,88.0
2193,60.0,57,47,1.0,93.0
2194,80.0,2,190,0.0,90.0
2195,64.0,61,47,1.0,91.0
2196,56.0,60,47,1.0,91.0
2197,80.0,3,59,0.0,91.0
2198,65.0,2,47,1.0,93.0
2199,82.0,58,59,0.0,90.0
2200,61.0,1,47,1.0,91.0
2201,84.0,57,59,0.0,92.0
2202,65.0,2,47,1.0,94.0
2203,85.0,58,59,0.0,92.0
2204,56.0,2,47,1.0,92.0
2205,84.0,58,59,0.0,91.0
2206,65.0,0,47,1.0,93.0
2207,85.0,62,59,0.0,94.0
2208,61.0,58,47,1.0,92.0
2209,87.0,2,59,0.0,91.0
2210,65.0,56,47,1.0,88.0
2211,89.0,2,59,0.0,91.0
2212,56.0,2,47,1.0,89.0
2213,87.0,59,59,0.0,88.0
2214,65.0,2,47,1.0,90.0
2215,89.0,58,59,0.0,89.0
2216,61.0,1,47,1.0,90.0
2217,91.0,59,59,0.0,94.0
2218,65.0,0,47,1.0,91.0
2219,92.0,61,59,0.0,94.0
2220,55.0,0,47,1.0,89.0
2221,91.0,58,59,0.0,95.0
2222,65.0,58,47,1.0,93.0
2223,92.0,1,59,0.0,89.0
2224,55.0,2,47,1.0,94.0
2225,94.0,61,59,0.0,89.0
2226,61.0,2,47,1.0,91.0
2227,96.0,57,59,0.0,91.0
2228,55.0,58,47,1.0,93.0
2229,65.0,61,47,1.0,90.0
2230,60.0,58,47,1.0,95.0
2231,65.0,62,47,1.0,92.0
2232,84.0,2,232,0.0,90.0
2233,55.0,3,47,1.0,92.0
2234,65.0,59,47,1.0,92.0
2235,60.0,58,47,1.0,95.0
2236,65.0,63,47,1.0,91.0
2237,79.0,56,232,0.0,92.0
2238,55.0,1,47,1.0,94.0
2239,64.0,61,47,1.0,91.0
2240,60.0,57,47,1.0,90.0
2241,64.0,62,47,1.0,90.0
2242,79.0,59,232,0.0,96.0
2243,55.0,1,47,1.0,94.0
2244,64.0,61,47,1.0,96.0
2245,60.0,60,47,1.0,95.0
2246,64.0,57,47,1.0,91.0
2247,79.0,58,232,0.0,97.0
2248,50.0,0,47,1.0,97.0
2249,79.0,63,59,0.0,91.0
2250,59.0,1,47,1.0,95.0
2251,80.0,60,59,0.0,93.0
2252,55.0,0,47,1.0,93.0
2253,82.0,60,59,0.0,91.0
2254,59.0,57,47,1.0,95.0
2255,84.0,1,59,0.0,94.0
2256,50.0,3,47,1.0,92.0
2257,82.0,58,59,0.0,94.0
2258,59.0,57,47,1.0,94.0
2259,84.0,2,59,0.0,96.0
2260,55.0,58,47,1.0,93.0
2261,85.0,2,59,0.0,97.0
2262,59.0,0,47,1.0,92.0
2263,87.0,58,59,0.0,93.0
2264,55.0,60,47,1.0,98.0
2265,85.0,1,59,0.0,97.0
2266,62.0,60,47,1.0,95.0
2267,87.0,1,59,0.0,94.0
2268,59.0,4,47,1.0,92.0
2269,89.0,58,59,0.0,95.0
2270,62.0,3,47,1.0,92.0
2271,91.0,56,59,0.0,96.0
2272,55.0,1,47,1.0,94.0
2273,89.0,57,59,0.0,94.0
2274,62.0,60,47,1.0,97.0
2275,91.0,1,59,0.0,95.0
2276,59.0,60,47,1.0,92.0
2277,92.0,2,59,0.0,95.0
2278,62.0,56,47,1.0,98.0
2279,94.0,4,59,0.0,95.0
2280,55.0,1,47,1.0,94.0
2281,65.0,59,47,1.0,94.0
2282,60.0,61,47,1.0,92.0
2283,65.0,56,47,1.0,96.0
2284,55.0,62,47,1.0,95.0
2285,64.0,58,47,1.0,95.0
2286,74.0,59,349,0.0,95.0
2287,60.0,60,47,1.0,95.0
2288,64.0,58,47,1.0,93.0
2289,72.0,2,116,0.0,93.0
2290,55.0,0,47,1.0,98.0
2291,62.0,59,47,1.0,95.0
2292,60.0,59,47,1.0,93.0
2293,62.0,62,47,1.0,99.0
2294,72.0,64,232,0.0,93.0
2295,55.0,56,47,1.0,94.0
2296,64.0,60,47,1.0,94.0
2297,60.0,62,47,1.0,97.0
2298,64.0,60,47,1.0,94.0
2299,72.0,1,232,0.0,100.0
2300,52.0,0,47,1.0,99.0
2301,72.0,57,47,0.0,100.0
2302,60.0,60,47,1.0,95.0
2303,84.0,4,47,0.0,97.0
2304,58.0,0,47,1.0,94.0
2305,72.0,56,47,0.0,94.0
2306,60.0,0,47,1.0,95.0
2307,84.0,63,47,0.0,95.0
2308,72.0,58,47,0.0,98.0
2309,52.0,2,47,1.0,97.0
2310,84.0,58,47,0.0,96.0
2311,60.0,3,47,1.0,97.0
2312,58.0,56,47,1.0,96.0
2313,72.0,1,47,0.0,96.0
2314,84.0,59,47,0.0,100.0
2315,60.0,2,47,1.0,98.0
2316,52.0,0,47,1.0,95.0
2317,73.0,58,47,0.0,96.0
2318,85.0,62,47,0.0,99.0
2319,60.0,1,47,1.0,99.0
2320,58.0,58,47,1.0,99.0
2321,73.0,3,47,0.0,100.0
2322,60.0,0,47,1.0,96.0
2323,85.0,59,47,0.0,99.0
2324,72.0,57,47,0.0,96.0
2325,52.0,4,47,1.0,97.0
2326,60.0,58,47,1.0,100.0
2327,84.0,1,47,0.0,97.0
2328,58.0,0,47,1.0,96.0
2329,72.0,59,47,0.0,96.0
2330,84.0,58,47,0.0,99.0
2331,60.0,4,47,1.0,98.0
2332,53.0,56,47,1.0,96.0
2333,72.0,3,47,0.0,98.0
2334,84.0,58,47,0.0,102.0
2335,60.0,1,47,1.0,97.0
2336,72.0,60,47,0.0,102.0
2337,58.0,2,47,1.0,97.0
2338,60.0,57,47,1.0,102.0
2339,84.0,1,47,0.0,96.0
2340,74.0,60,47,0.0,101.0
2341,53.0,2,47,1.0,98.0
2342,86.0,58,47,0.0,100.0
2343,60.0,2,47,1.0,102.0
2344,57.0,56,47,1.0,98.0
2345,74.0,1,47,0.0,96.0
2346,60.0,0,47,1.0,99.0
2347,86.0,62,47,0.0,98.0
2348,53.0,59,47,1.0,96.0
2349,76.0,2,47,0.0,102.0
2350,60.0,57,47,1.0,97.0
2351,88.0,3,47,0.0,98.0
2352,55.0,56,47,1.0,98.0
2353,76.0,2,47,0.0,100.0
2354,60.0,0,47,1.0,100.0
2355,88.0,60,47,0.0,102.0
2356,53.0,0,47,1.0,98.0
2357,77.0,58,47,0.0,101.0
2358,60.0,62,47,1.0,99.0
2359,89.0,1,47,0.0,98.0
2360,53.0,57,47,1.0,99.0
2361,77.0,3,47,0.0,100.0
2362,89.0,58,47,0.0,102.0
2363,60.0,3,47,1.0,103.0
2364,51.0,0,47,1.0,102.0
2365,61.0,57,47,1.0,103.0
2366,55.0,61,47,1.0,101.0
2367,61.0,62,47,1.0,101.0
2368,51.0,59,47,1.0,99.0
2369,61.0,62,47,1.0,101.0
2370,75.0,59,349,0.0,100.0
2371,55.0,1,47,1.0,101.0
2372,61.0,61,47,1.0,99.0
2373,75.0,57,116,0.0,98.0
2374,51.0,1,47,1.0,101.0
2375,61.0,57,47,1.0,104.0
2376,55.0,60,47,1.0,98.0
2377,61.0,60,47,1.0,99.0
2378,77.0,59,232,0.0,100.0
2379,51.0,61,47,1.0,101.0
2380,61.0,62,47,1.0,100.0
2381,55.0,56,47,1.0,105.0
2382,61.0,63,47,1.0,102.0
2383,75.0,1,232,0.0,103.0
2384,51.0,1,47,1.0,100.0
2385,61.0,58,47,1.0,100.0
2386,56.0,60,47,1.0,104.0
2387,61.0,61,47,1.0,99.0
2388,75.0,59,232,0.0,105.0
2389,51.0,1,47,1.0,102.0
2390,60.0,60,47,1.0,105.0
2391,56.0,62,47,1.0,102.0
2392,60.0,59,47,1.0,103.0
2393,77.0,58,232,0.0,106.0
2394,51.0,2,47,1.0,106.0
2395,58.0,57,47,1.0,106.0
2396,55.0,62,47,1.0,103.0
2397,58.0,62,47,1.0,106.0
2398,79.0,59,232,0.0,101.0
2399,51.0,3,47,1.0,103.0
2400,56.0,61,47,1.0,106.0
2401,51.0,57,47,1.0,101.0
2402,56.0,62,47,1.0,103.0
2403,80.0,56,232,0.0,101.0
2404,79.0,59,47,0.0,102.0
2405,52.0,2,47,1.0,106.0
2406,91.0,58,47,0.0,106.0
2407,60.0,2,47,1.0,100.0
2408,79.0,57,47,0.0,100.0
2409,55.0,2,47,1.0,105.0
2410,91.0,60,47,0.0,106.0
2411,60.0,1,47,1.0,100.0
2412,79.0,56,47,0.0,107.0
2413,50.0,1,47,1.0,101.0
2414,91.0,59,47,0.0,104.0
2415,59.0,1,47,1.0,107.0
2416,79.0,59,47,0.0,103.0
2417,56.0,4,47,1.0,106.0
2418,59.0,56,47,1.0,105.0
2419,91.0,1,47,0.0,103.0
2420,80.0,59,47,0.0,102.0
2421,53.0,3,47,1.0,107.0
2422,62.0,58,47,1.0,107.0
2423,92.0,2,47,0.0,103.0
2424,55.0,57,47,1.0,103.0
2425,80.0,1,47,0.0,104.0
2426,62.0,60,47,1.0,107.0
2427,92.0,1,47,0.0,106.0
2428,52.0,0,47,1.0,102.0
2429,77.0,62,47,0.0,105.0
2430,89.0,57,47,0.0,106.0
2431,61.0,1,47,1.0,108.0
2432,55.0,59,47,1.0,108.0
2433,77.0,1,47,0.0,102.0
2434,61.0,0,47,1.0,103.0
2435,89.0,62,47,0.0,106.0
2436,52.0,3,47,1.0,103.0
2437,61.0,58,47,1.0,107.0
2438,57.0,60,47,1.0,106.0
2439,61.0,62,47,1.0,103.0
2440,53.0,60,47,1.0,105.0
2441,59.0,58,47,1.0,104.0
2442,76.0,57,349,0.0,103.0
2443,57.0,0,47,1.0,105.0
2444,59.0,62,47,1.0,105.0
2445,74.0,58,116,0.0,106.0
2446,53.0,0,47,1.0,107.0
2447,62.0,61,47,1.0,109.0
2448,57.0,57,47,1.0,109.0
2449,62.0,63,47,1.0,103.0
2450,52.0,56,47,1.0,106.0
2451,62.0,63,47,1.0,109.0
2452,77.0,61,349,0.0,105.0
2453,56.0,59,47,1.0,107.0
2454,62.0,59,47,1.0,104.0
2455,76.0,1,116,0.0,110.0
2456,52.0,4,47,1.0,106.0
2457,60.0,56,47,1.0,105.0
2458,55.0,60,47,1.0,104.0
2459,60.0,63,47,1.0,110.0
2460,53.0,58,47,1.0,109.0
2461,59.0,59,47,1.0,105.0
2462,76.0,58,349,0.0,109.0
2463,56.0,60,47,1.0,106.0
2464,59.0,57,47,1.0,110.0
2465,74.0,3,116,0.0,105.0
2466,53.0,0,47,1.0,106.0
2467,62.0,60,47,1.0,104.0
2468,55.0,57,47,1.0,105.0
2469,62.0,64,47,1.0,104.0
2470,52.0,58,47,1.0,108.0
2471,62.0,58,47,1.0,108.0
2472,77.0,63,349,0.0,107.0
2473,55.0,0,47,1.0,110.0
2474,62.0,56,47,1.0,105.0
2475,76.0,64,116,0.0,106.0
2476,52.0,0,47,1.0,109.0
2477,61.0,58,47,1.0,107.0
2478,57.0,61,47,1.0,107.0
2479,61.0,58,47,1.0,111.0
2480,54.0,63,47,1.0,107.0
2481,59.0,57,47,1.0,108.0
2482,76.0,64,349,0.0,110.0
2483,57.0,60,47,1.0,110.0
2484,59.0,59,47,1.0,109.0
2485,74.0,1,116,0.0,109.0
2486,54.0,60,47,1.0,109.0
2487,62.0,60,47,1.0,107.0
2488,57.0,57,47,1.0,109.0
2489,62.0,63,47,1.0,107.0
2490,52.0,60,47,1.0,107.0
2491,62.0,58,47,1.0,108.0
2492,78.0,2,349,0.0,112.0
2493,56.0,1,47,1.0,107.0
2494,62.0,57,47,1.0,109.0
2495,76.0,62,116,0.0,109.0
2496,52.0,2,47,1.0,111.0
2497,61.0,61,47,1.0,112.0
2498,57.0,61,47,1.0,107.0
2499,61.0,58,47,1.0,113.0
2500,52.0,62,47,1.0,114.0
2501,61.0,57,47,1.0,111.0
2502,76.0,59,349,0.0,107.0
2503,57.0,61,47,1.0,110.0
2504,61.0,57,47,1.0,111.0
2505,81.0,1,116,0.0,108.0
2506,51.0,1,47,1.0,109.0
2507,60.0,62,47,1.0,111.0
2508,54.0,58,47,1.0,113.0
2509,60.0,59,47,1.0,112.0
2510,51.0,61,47,1.0,112.0
2511,83.0,60,349,0.0,111.0
2512,60.0,62,47,1.0,109.0
2513,54.0,4,47,1.0,114.0
2514,60.0,59,47,1.0,114.0
2515,84.0,57,116,0.0,113.0
2516,56.0,1,47,1.0,113.0
2517,61.0,59,47,1.0,113.0
2518,58.0,62,47,1.0,109.0
2519,61.0,59,47,1.0,112.0
2520,56.0,59,47,1.0,113.0
2521,61.0,60,47,1.0,115.0
2522,84.0,57,349,0.0,113.0
2523,58.0,60,47,1.0,109.0
2524,61.0,58,47,1.0,110.0
2525,82.0,4,116,0.0,111.0
2526,56.0,1,47,1.0,115.0
2527,61.0,61,47,1.0,112.0
2528,58.0,58,47,1.0,115.0
2529,61.0,61,47,1.0,115.0
2530,85.0,58,232,0.0,110.0
2531,56.0,3,47,1.0,114.0
2532,61.0,61,47,1.0,115.0
2533,58.0,56,47,1.0,116.0
2534,61.0,61,47,1.0,110.0
2535,77.0,59,232,0.0,110.0
2536,51.0,4,47,1.0,111.0
2537,60.0,56,47,1.0,115.0
2538,56.0,62,47,1.0,114.0
2539,60.0,60,47,1.0,116.0
2540,51.0,62,47,1.0,113.0
2541,60.0,56,47,1.0,112.0
2542,82.0,59,349,0.0,116.0
2543,56.0,60,47,1.0,116.0
2544,60.0,59,47,1.0,117.0
2545,80.0,4,116,0.0,115.0
2546,51.0,59,47,1.0,117.0
2547,60.0,61,47,1.0,115.0
2548,56.0,59,47,1.0,113.0
2549,60.0,60,47,1.0,111.0
2550,84.0,1,232,0.0,111.0
2551,51.0,1,47,1.0,116.0
2552,60.0,60,47,1.0,112.0
2553,56.0,61,47,1.0,118.0
2554,60.0,57,47,1.0,118.0
2555,75.0,58,232,0.0,113.0
2556,75.0,62,47,0.0,93.0
2557,51.0,2,47,1.0,114.0
2558,87.0,56,47,0.0,111.0
2559,63.0,3,47,1.0,117.0
2560,55.0,58,47,1.0,118.0
2561,75.0,1,47,0.0,109.0
2562,63.0,0,47,1.0,112.0
2563,87.0,61,47,0.0,108.0
2564,51.0,0,47,1.0,112.0
2565,76.0,58,47,0.0,107.0
2566,88.0,60,47,0.0,109.0
2567,63.0,2,47,1.0,114.0
2568,76.0,59,47,0.0,108.0
2569,55.0,1,47,1.0,112.0
2570,88.0,58,47,0.0,112.0
2571,63.0,2,47,1.0,118.0
2572,51.0,0,47,1.0,113.0
2573,77.0,58,47,0.0,114.0
2574,63.0,0,47,1.0,118.0
2575,89.0,62,47,0.0,113.0
2576,55.0,0,47,1.0,113.0
2577,77.0,61,47,0.0,112.0
2578,63.0,57,47,1.0,112.0
2579,89.0,2,47,0.0,122.0
2580,51.0,58,47,1.0,117.0
2581,75.0,3,47,0.0,114.0
2582,63.0,56,47,1.0,114.0
2583,87.0,2,47,0.0,98.0
2584,55.0,58,47,1.0,115.0
2585,75.0,1,47,0.0,101.0
2586,63.0,60,47,1.0,119.0
2587,87.0,1,47,0.0,108.0
2588,73.0,61,47,0.0,101.0
2589,53.0,1,47,1.0,119.0
2590,65.0,57,47,1.0,118.0
2591,85.0,2,47,0.0,103.0
2592,73.0,58,47,0.0,107.0
2593,56.0,2,47,1.0,113.0
2594,85.0,57,47,0.0,107.0
2595,65.0,3,47,1.0,119.0
2596,53.0,0,47,1.0,119.0
2597,72.0,61,47,0.0,112.0
2598,84.0,57,47,0.0,127.0
2599,65.0,3,47,1.0,119.0
2600,56.0,0,47,1.0,115.0
2601,72.0,56,47,0.0,110.0
2602,84.0,62,47,0.0,114.0
2603,65.0,2,47,1.0,117.0
2604,72.0,57,47,0.0,114.0
2605,53.0,2,47,1.0,115.0
2606,65.0,0,47,1.0,115.0
2607,84.0,61,47,0.0,105.0
2608,72.0,58,47,0.0,117.0
2609,57.0,2,47,1.0,114.0
2610,84.0,56,47,0.0,119.0
2611,65.0,2,47,1.0,120.0
2612,53.0,0,47,1.0,116.0
2613,84.0,58,47,0.0,108.0
2614,65.0,60,47,1.0,115.0
2615,96.0,2,47,0.0,119.0
2616,57.0,0,47,1.0,116.0
2617,84.0,59,47,0.0,115.0
2618,96.0,60,47,0.0,121.0
2619,65.0,2,47,1.0,120.0
2620,53.0,2,47,1.0,115.0
2621,61.0,58,47,1.0,116.0
2622,58.0,60,47,1.0,119.0
2623,61.0,61,47,1.0,119.0
2624,84.0,57,232,0.0,118.0
2625,53.0,59,47,1.0,118.0
2626,61.0,60,47,1.0,119.0
2627,58.0,56,47,1.0,116.0
2628,61.0,63,47,1.0,120.0
2629,82.0,4,232,0.0,116.0
2630,52.0,59,47,1.0,116.0
2631,61.0,56,47,1.0,119.0
2632,56.0,64,47,1.0,118.0
2633,61.0,59,47,1.0,121.0
2634,52.0,59,47,1.0,118.0
2635,61.0,61,47,1.0,117.0
2636,85.0,2,349,0.0,122.0
2637,56.0,2,47,1.0,121.0
2638,61.0,59,47,1.0,121.0
2639,76.0,59,116,0.0,121.0
2640,56.0,0,47,1.0,121.0
2641,63.0,60,47,1.0,118.0
2642,60.0,59,47,1.0,119.0
2643,63.0,63,47,1.0,120.0
2644,82.0,58,232,0.0,120.0
2645,56.0,1,47,1.0,118.0
2646,63.0,63,47,1.0,121.0
2647,60.0,59,47,1.0,121.0
2648,63.0,59,47,1.0,122.0
2649,80.0,57,232,0.0,117.0
2650,56.0,3,47,1.0,117.0
2651,63.0,59,47,1.0,117.0
2652,60.0,61,47,1.0,122.0
2653,63.0,56,47,1.0,117.0
2654,56.0,61,47,1.0,122.0
2655,63.0,60,47,1.0,119.0
2656,84.0,59,349,0.0,119.0
2657,60.0,59,47,1.0,119.0
2658,63.0,62,47,1.0,120.0
2659,75.0,2,116,0.0,123.0
2660,57.0,1,47,1.0,118.0
2661,63.0,56,47,1.0,123.0
2662,60.0,62,47,1.0,123.0
2663,63.0,59,47,1.0,121.0
2664,57.0,61,47,1.0,121.0
2665,63.0,60,47,1.0,124.0
2666,75.0,59,349,0.0,124.0
2667,60.0,2,47,1.0,119.0
2668,63.0,60,47,1.0,121.0
2669,77.0,59,116,0.0,122.0
2670,57.0,58,47,1.0,123.0
2671,63.0,61,47,1.0,122.0
2672,60.0,57,47,1.0,121.0
2673,63.0,59,47,1.0,124.0
2674,78.0,2,232,0.0,119.0
2675,57.0,2,47,1.0,122.0
2676,63.0,58,47,1.0,123.0
2677,61.0,62,47,1.0,119.0
2678,63.0,59,47,1.0,124.0
2679,77.0,62,232,0.0,118.0
2680,58.0,59,47,1.0,118.0
2681,77.0,1,47,0.0,121.0
2682,65.0,0,47,1.0,120.0
2683,89.0,59,47,0.0,118.0
2684,63.0,0,47,1.0,124.0
2685,77.0,59,47,0.0,122.0
2686,65.0,59,47,1.0,120.0
2687,89.0,1,47,0.0,122.0
2688,51.0,60,47,1.0,124.0
2689,79.0,3,47,0.0,121.0
2690,91.0,58,47,0.0,121.0
2691,61.0,1,47,1.0,122.0
2692,79.0,58,47,0.0,123.0
2693,58.0,2,47,1.0,122.0
2694,61.0,0,47,1.0,124.0
2695,91.0,58,47,0.0,120.0
2696,80.0,60,47,0.0,118.0
2697,55.0,2,47,1.0,120.0
2698,62.0,60,47,1.0,123.0
2699,92.0,1,47,0.0,118.0
2700,80.0,57,47,0.0,119.0
2701,59.0,2,47,1.0,122.0
2702,62.0,58,47,1.0,121.0
2703,92.0,3,47,0.0,122.0
2704,55.0,0,47,1.0,124.0
2705,79.0,57,47,0.0,124.0
2706,91.0,59,47,0.0,120.0
2707,62.0,3,47,1.0,118.0
2708,79.0,57,47,0.0,118.0
2709,59.0,1,47,1.0,119.0
2710,62.0,60,47,1.0,121.0
2711,91.0,3,47,0.0,119.0
2712,55.0,59,47,1.0,120.0
2713,63.0,58,47,1.0,120.0
2714,60.0,58,47,1.0,123.0
2715,63.0,63,47,1.0,124.0
2716,55.0,61,47,1.0,122.0
2717,63.0,56,47,1.0,119.0
2718,79.0,1,349,0.0,122.0
2719,60.0,61,47,1.0,121.0
2720,63.0,61,47,1.0,119.0
2721,80.0,2,116,0.0,123.0
2722,57.0,57,47,1.0,124.0
2723,63.0,62,47,1.0,122.0
2724,60.0,60,47,1.0,124.0
2725,63.0,60,47,1.0,121.0
2726,81.0,1,232,0.0,123.0
2727,57.0,2,47,1.0,120.0
2728,65.0,57,47,1.0,123.0
2729,60.0,63,47,1.0,123.0
2730,65.0,57,47,1.0,123.0
2731,90.0,57,232,0.0,118.0
2732,89.0,62,47,0.0,123.0
2733,56.0,2,47,1.0,123.0
2734,61.0,0,47,1.0,120.0
2735,77.0,60,47,0.0,120.0
2736,59.0,0,47,1.0,120.0
2737,89.0,60,47,0.0,124.0
2738,77.0,58,47,0.0,123.0
2739,61.0,1,47,1.0,118.0
2740,82.0,59,47,0.0,121.0
2741,51.0,1,47,1.0,121.0
2742,70.0,59,47,0.0,123.0
2743,61.0,1,47,1.0,122.0
2744,58.0,59,47,1.0,124.0
2745,82.0,1,47,0.0,124.0
2746,61.0,58,47,1.0,118.0
2747,70.0,3,47,0.0,121.0
2748,85.0,56,47,0.0,123.0
2749,51.0,2,47,1.0,120.0
2750,61.0,58,47,1.0,122.0
2751,73.0,2,47,0.0,120.0
2752,58.0,58,47,1.0,121.0
2753,85.0,4,47,0.0,120.0
2754,61.0,58,47,1.0,121.0
2755,73.0,2,47,0.0,123.0
2756,51.0,56,47,1.0,120.0
2757,79.0,4,47,0.0,121.0
2758,61.0,0,47,1.0,121.0
2759,67.0,59,47,0.0,123.0
2760,58.0,58,47,1.0,119.0
2761,79.0,2,47,0.0,119.0
2762,61.0,58,47,1.0,124.0
2763,67.0,2,47,0.0,123.0
2764,51.0,1,47,1.0,121.0
2765,60.0,59,47,1.0,121.0
2766,56.0,58,47,1.0,122.0
2767,60.0,60,47,1.0,119.0
2768,51.0,60,47,1.0,122.0
2769,60.0,63,47,1.0,116.0
2770,80.0,60,349,0.0,119.0
2771,56.0,3,47,1.0,119.0
2772,60.0,58,47,1.0,121.0
2773,75.0,56,116,0.0,116.0
2774,51.0,60,47,1.0,116.0
2775,60.0,58,47,1.0,119.0
2776,56.0,62,47,1.0,121.0
2777,60.0,61,47,1.0,120.0
2778,75.0,2,232,0.0,120.0
2779,51.0,57,47,1.0,118.0
2780,60.0,61,47,1.0,119.0
2781,56.0,60,47,1.0,118.0
2782,60.0,59,47,1.0,117.0
2783,75.0,1,232,0.0,119.0
2784,51.0,58,47,1.0,112.0
2785,77.0,3,47,0.0,118.0
2786,61.0,0,47,1.0,112.0
2787,89.0,58,47,0.0,116.0
2788,77.0,60,47,0.0,115.0
2789,55.0,3,47,1.0,117.0
2790,61.0,58,47,1.0,112.0
2791,89.0,1,47,0.0,113.0
2792,51.0,58,47,1.0,113.0
2793,75.0,1,47,0.0,111.0
2794,61.0,58,47,1.0,115.0
2795,87.0,1,47,0.0,115.0
2796,75.0,60,47,0.0,115.0
2797,55.0,1,47,1.0,110.0
2798,61.0,60,47,1.0,110.0
2799,87.0,1,47,0.0,113.0
2800,84.0,60,47,0.0,114.0
2801,51.0,1,47,1.0,115.0
2802,61.0,57,47,1.0,114.0
2803,96.0,3,47,0.0,110.0
2804,55.0,59,47,1.0,115.0
2805,84.0,1,47,0.0,115.0
2806,61.0,56,47,1.0,111.0
2807,96.0,2,47,0.0,110.0
2808,51.0,58,47,1.0,112.0
2809,79.0,2,47,0.0,109.0
2810,91.0,61,47,0.0,113.0
2811,61.0,1,47,1.0,112.0
2812,55.0,0,47,1.0,114.0
2813,79.0,60,47,0.0,109.0
2814,91.0,56,47,0.0,110.0
2815,61.0,4,47,1.0,112.0
2816,51.0,56,47,1.0,107.0
2817,60.0,57,47,1.0,107.0
2818,56.0,63,47,1.0,110.0
2819,60.0,59,47,1.0,108.0
2820,51.0,59,47,1.0,108.0
2821,60.0,58,47,1.0,107.0
2822,80.0,4,349,0.0,108.0
2823,56.0,61,47,1.0,109.0
2824,60.0,61,47,1.0,110.0
2825,75.0,1,116,0.0,110.0
2826,51.0,57,47,1.0,109.0
2827,60.0,58,47,1.0,104.0
2828,56.0,61,47,1.0,107.0
2829,60.0,62,47,1.0,104.0
2830,75.0,2,232,0.0,104.0
2831,51.0,58,47,1.0,103.0
2832,60.0,57,47,1.0,102.0
2833,56.0,60,47,1.0,102.0
2834,60.0,60,47,1.0,107.0
2835,75.0,2,232,0.0,105.0
2836,77.0,60,47,0.0,102.0
2837,51.0,1,47,1.0,103.0
2838,61.0,60,47,1.0,107.0
2839,89.0,1,47,0.0,101.0
2840,77.0,58,47,0.0,101.0
2841,55.0,1,47,1.0,102.0
2842,89.0,60,47,0.0,102.0
2843,61.0,3,47,1.0,100.0
2844,51.0,0,47,1.0,104.0
2845,75.0,57,47,0.0,101.0
2846,61.0,59,47,1.0,106.0
2847,79.0,1,47,0.0,101.0
2848,82.0,60,47,0.0,100.0
2849,55.0,1,47,1.0,103.0
2850,61.0,0,47,1.0,100.0
2851,87.0,61,47,0.0,101.0
2852,89.0,58,47,0.0,104.0
2853,51.0,1,47,1.0,99.0
2854,61.0,58,47,1.0,102.0
2855,77.0,3,47,0.0,102.0
2856,55.0,60,47,1.0,99.0
2857,89.0,1,47,0.0,99.0
2858,61.0,58,47,1.0,100.0
2859,77.0,1,47,0.0,100.0
2860,51.0,58,47,1.0,100.0
2861,89.0,3,47,0.0,103.0
2862,87.0,58,47,0.0,101.0
2863,61.0,2,47,1.0,96.0
2864,55.0,56,47,1.0,97.0
2865,85.0,1,47,0.0,98.0
2866,61.0,62,47,1.0,101.0
2867,82.0,1,47,0.0,101.0
2868,51.0,0,47,1.0,102.0
2869,60.0,63,47,1.0,99.0
2870,56.0,58,47,1.0,96.0
2871,60.0,62,47,1.0,97.0
2872,51.0,56,47,1.0,98.0
2873,60.0,63,47,1.0,94.0
2874,80.0,57,349,0.0,100.0
2875,56.0,0,47,1.0,99.0
2876,60.0,60,47,1.0,95.0
2877,75.0,58,116,0.0,98.0
2878,51.0,0,47,1.0,96.0
2879,60.0,61,47,1.0,98.0
2880,56.0,61,47,1.0,94.0
2881,60.0,62,47,1.0,97.0
2882,77.0,59,232,0.0,92.0
2883,51.0,57,47,1.0,98.0
2884,60.0,60,47,1.0,93.0
2885,56.0,58,47,1.0,93.0
2886,60.0,59,47,1.0,94.0
2887,75.0,3,232,0.0,96.0
2888,51.0,61,47,1.0,95.0
2889,56.0,59,47,1.0,96.0
2890,51.0,62,47,1.0,91.0
2891,56.0,60,47,1.0,91.0
2892,51.0,57,47,1.0,94.0
2893,56.0,63,47,1.0,93.0
2894,73.0,1,349,0.0,94.0
2895,51.0,57,47,1.0,90.0
2896,56.0,61,47,1.0,89.0
2897,72.0,1,116,0.0,92.0
2898,51.0,0,47,1.0,88.0
2899,56.0,62,47,1.0,93.0
2900,51.0,60,47,1.0,92.0
2901,56.0,62,47,1.0,88.0
2902,73.0,57,232,0.0,91.0
2903,51.0,3,47,1.0,90.0
2904,56.0,57,47,1.0,89.0
2905,51.0,60,47,1.0,85.0
2906,56.0,61,47,1.0,84.0
2907,72.0,56,232,0.0,88.0
2908,51.0,1,47,1.0,89.0
2909,58.0,57,47,1.0,85.0
2910,51.0,62,47,1.0,88.0
2911,58.0,61,47,1.0,90.0
2912,51.0,59,47,1.0,86.0
2913,70.0,62,342,0.0,87.0
2914,58.0,59,47,1.0,86.0
2915,51.0,3,47,1.0,85.0
2916,58.0,61,47,1.0,86.0
2917,68.0,58,113,0.0,84.0
2918,51.0,57,47,1.0,82.0
2919,58.0,61,47,1.0,84.0
2920,51.0,61,47,1.0,81.0
2921,70.0,1,227,0.0,86.0
2922,58.0,60,47,1.0,86.0
2923,51.0,59,47,1.0,85.0
2924,58.0,59,47,1.0,80.0
2925,51.0,61,47,1.0,81.0
2926,58.0,56,47,1.0,85.0
2927,68.0,1,227,0.0,86.0
2928,51.0,63,47,1.0,83.0
2929,61.0,59,47,1.0,79.0
2930,55.0,57,47,1.0,79.0
2931,61.0,64,47,1.0,81.0
2932,51.0,58,47,1.0,82.0
2933,67.0,1,285,0.0,82.0
2934,61.0,60,47,1.0,83.0
2935,55.0,59,47,1.0,77.0
2936,65.0,1,95,0.0,81.0
2937,61.0,60,47,1.0,82.0
2938,51.0,3,47,1.0,79.0
2939,61.0,59,47,1.0,76.0
2940,55.0,60,47,1.0,77.0
2941,67.0,59,190,0.0,77.0
2942,61.0,59,47,1.0,77.0
2943,51.0,58,47,1.0,81.0
2944,61.0,61,47,1.0,76.0
2945,55.0,57,47,1.0,74.0
2946,75.0,3,190,0.0,75.0
2947,61.0,59,47,1.0,75.0
2948,63.0,60,95,0.0,78.0
2949,60.0,1,95,0.0,78.0
2950,68.0,2,95,0.0,74.0
2951,56.0,1,95,0.0,77.0
2952,56.0,116,95,0.0,77.0
2953,60.0,0,95,0.0,77.0
2954,63.0,2,95,0.0,79.0
2955,68.0,2,95,0.0,77.0
2956,68.0,118,95,0.0,77.0
2957,60.0,1,95,0.0,79.0
2958,56.0,0,95,0.0,80.0
2959,63.0,1,95,0.0,78.0
2960,60.0,116,95,0.0,76.0
2961,63.0,0,95,0.0,79.0
2962,68.0,2,95,0.0,82.0
2963,56.0,1,95,0.0,79.0
2964,56.0,0,95,0.0,80.0
2965,60.0,0,95,0.0,79.0
2966,65.0,0,95,0.0,77.0
2967,68.0,119,95,0.0,76.0
2968,56.0,119,95,0.0,83.0
2969,68.0,1,95,0.0,80.0
2970,63.0,1,95,0.0,83.0
2971,60.0,1,95,0.0,77.0
2972,63.0,116,95,0.0,78.0
2973,60.0,1,95,0.0,84.0
2974,56.0,0,95,0.0,81.0
2975,68.0,2,95,0.0,79.0
2976,56.0,0,95,0.0,82.0
2977,63.0,117,95,0.0,84.0
2978,60.0,0,95,0.0,79.0
2979,68.0,4,95,0.0,81.0
2980,56.0,116,95,0.0,85.0
2981,68.0,0,95,0.0,81.0
2982,63.0,2,95,0.0,82.0
2983,60.0,2,95,0.0,85.0
2984,56.0,0,95,0.0,86.0
2985,60.0,0,95,0.0,83.0
2986,68.0,117,95,0.0,82.0
2987,63.0,3,95,0.0,81.0
2988,65.0,0,95,0.0,84.0
2989,68.0,116,95,0.0,83.0
2990,56.0,0,95,0.0,82.0
2991,60.0,3,95,0.0,87.0
2992,56.0,0,95,0.0,84.0
2993,63.0,117,95,0.0,87.0
2994,68.0,1,95,0.0,84.0
2995,60.0,2,95,0.0,84.0
2996,56.0,0,95,0.0,85.0
2997,70.0,118,95,0.0,88.0
2998,58.0,3,95,0.0,86.0
2999,68.0,117,95,0.0,86.0
3000,60.0,1,95,0.0,89.0
3001,56.0,1,95,0.0,88.0
3002,68.0,117,95,0.0,86.0
3003,56.0,0,95,0.0,89.0
3004,60.0,2,95,0.0,90.0
3005,56.0,119,95,0.0,86.0
3006,60.0,0,95,0.0,85.0
3007,68.0,1,95,0.0,86.0
3008,56.0,0,95,0.0,92.0
3009,60.0,0,95,0.0,92.0
3010,68.0,122,95,0.0,87.0
3011,60.0,116,95,0.0,88.0
3012,68.0,1,95,0.0,87.0
3013,56.0,3,95,0.0,92.0
3014,68.0,116,95,0.0,90.0
3015,60.0,1,95,0.0,91.0
3016,56.0,2,95,0.0,89.0
3017,56.0,0,95,0.0,88.0
3018,58.0,119,95,0.0,93.0
3019,70.0,2,95,0.0,94.0
3020,60.0,117,95,0.0,95.0
3021,55.0,2,95,0.0,89.0
3022,64.0,0,95,0.0,90.0
3023,72.0,1,95,0.0,94.0
3024,55.0,117,95,0.0,90.0
3025,60.0,0,95,0.0,90.0
3026,64.0,0,95,0.0,96.0
3027,70.0,1,95,0.0,93.0
3028,65.0,0,95,0.0,92.0
3029,68.0,120,95,0.0,93.0
3030,56.0,0,95,0.0,96.0
3031,60.0,1,95,0.0,94.0
3032,65.0,118,95,0.0,95.0
3033,53.0,0,95,0.0,93.0
3034,60.0,2,95,0.0,98.0
3035,56.0,1,95,0.0,97.0
3036,62.0,117,95,0.0,97.0
3037,59.0,1,95,0.0,96.0
3038,56.0,1,95,0.0,94.0
3039,65.0,1,95,0.0,96.0
3040,65.0,116,95,0.0,94.0
3041,62.0,2,95,0.0,94.0
3042,56.0,0,95,0.0,96.0
3043,59.0,1,95,0.0,95.0
3044,60.0,117,95,0.0,99.0
3045,63.0,2,95,0.0,94.0
3046,66.0,1,95,0.0,97.0
3047,57.0,1,95,0.0,100.0
3048,39.0,0,95,0.0,100.0
3049,51.0,117,95,0.0,96.0
3050,57.0,0,95,0.0,97.0
3051,60.0,120,95,0.0,100.0
3052,63.0,1,95,0.0,98.0
3053,66.0,2,95,0.0,100.0
3054,60.0,0,95,0.0,98.0
3055,66.0,116,95,0.0,96.0
3056,57.0,1,95,0.0,96.0
3057,63.0,2,95,0.0,101.0
3058,64.0,117,95,0.0,103.0
3059,61.0,1,95,0.0,102.0
3060,67.0,1,95,0.0,102.0
3061,58.0,2,95,0.0,102.0
3062,39.0,0,95,0.0,98.0
3063,51.0,116,95,0.0,101.0
3064,58.0,120,95,0.0,105.0
3065,64.0,0,95,0.0,103.0
3066,61.0,1,95,0.0,103.0
3067,67.0,2,95,0.0,101.0
3068,67.0,117,95,0.0,105.0
3069,64.0,1,95,0.0,102.0
3070,58.0,1,95,0.0,104.0
3071,61.0,2,95,0.0,102.0
3072,59.0,116,95,0.0,104.0
3073,65.0,2,95,0.0,102.0
3074,62.0,1,95,0.0,104.0
3075,68.0,1,95,0.0,101.0
3076,51.0,117,95,0.0,105.0
3077,39.0,3,95,0.0,107.0
3078,59.0,0,95,0.0,103.0
3079,62.0,0,95,0.0,107.0
3080,65.0,0,95,0.0,108.0
3081,68.0,116,95,0.0,104.0
3082,59.0,120,95,0.0,105.0
3083,62.0,3,95,0.0,109.0
3084,65.0,0,95,0.0,107.0
3085,68.0,1,95,0.0,109.0
3086,63.0,0,95,0.0,109.0
3087,66.0,118,95,0.0,108.0
3088,69.0,1,95,0.0,105.0
3089,60.0,1,95,0.0,105.0
3090,39.0,116,95,0.0,108.0
3091,51.0,2,95,0.0,110.0
3092,66.0,0,190,0.0,111.0
3093,63.0,0,190,0.0,108.0
3094,60.0,118,190,0.0,111.0
3095,69.0,3,190,0.0,105.0
3096,39.0,0,104,1.0,123.0
3097,51.0,118,104,1.0,119.0
3098,66.0,119,190,0.0,107.0
3099,60.0,0,190,0.0,109.0
3100,63.0,1,190,0.0,112.0
3101,69.0,3,190,0.0,112.0
3102,39.0,117,104,1.0,124.0
3103,51.0,1,104,1.0,123.0
3104,67.0,118,190,0.0,113.0
3105,61.0,1,190,0.0,114.0
3106,70.0,1,190,0.0,110.0
3107,64.0,2,190,0.0,110.0
3108,38.0,117,104,1.0,118.0
3109,50.0,1,104,1.0,120.0
3110,68.0,119,190,0.0,113.0
3111,71.0,1,190,0.0,110.0
3112,62.0,0,190,0.0,114.0
3113,65.0,2,190,0.0,112.0
3114,49.0,117,104,1.0,122.0
3115,37.0,2,104,1.0,118.0
3116,69.0,117,190,0.0,116.0
3117,66.0,0,190,0.0,115.0
3118,72.0,1,190,0.0,117.0
3119,63.0,2,190,0.0,118.0
3120,36.0,117,104,1.0,124.0
3121,48.0,4,104,1.0,120.0
3122,73.0,117,190,0.0,116.0
3123,70.0,1,190,0.0,115.0
3124,64.0,0,190,0.0,114.0
3125,67.0,2,190,0.0,118.0
3126,46.0,117,104,1.0,120.0
3127,34.0,1,104,1.0,120.0
3128,71.0,118,190,0.0,118.0
3129,65.0,2,190,0.0,120.0
3130,68.0,0,190,0.0,118.0
3131,74.0,2,190,0.0,119.0
3132,33.0,0,104,1.0,120.0
3133,45.0,119,104,1.0,119.0
3134,72.0,0,190,0.0,121.0
3135,75.0,117,190,0.0,119.0
3136,66.0,1,190,0.0,122.0
3137,69.0,2,190,0.0,116.0
3138,32.0,0,104,1.0,121.0
3139,44.0,117,104,1.0,118.0
3140,32.0,0,111,1.0,85.0
3141,44.0,123,111,1.0,80.0
3142,51.0,61,54,0.0,110.0
3143,56.0,60,54,0.0,107.0
3144,60.0,56,54,0.0,111.0
3145,39.0,0,111,1.0,104.0
3146,63.0,61,54,0.0,109.0
3147,32.0,0,111,1.0,105.0
3148,56.0,60,54,0.0,109.0
3149,60.0,59,54,0.0,112.0
3150,39.0,4,111,1.0,110.0
3151,63.0,59,54,0.0,111.0
3152,68.0,2,54,0.0,114.0
3153,32.0,58,111,1.0,112.0
3154,60.0,59,54,0.0,114.0
3155,63.0,1,54,0.0,113.0
3156,39.0,58,111,1.0,114.0
3157,68.0,60,54,0.0,112.0
3158,72.0,2,54,0.0,112.0
3159,32.0,59,111,1.0,109.0
3160,63.0,60,54,0.0,116.0
3161,68.0,1,54,0.0,116.0
3162,39.0,60,111,1.0,110.0
3163,72.0,58,54,0.0,118.0
3164,75.0,63,54,0.0,118.0
3165,32.0,0,111,1.0,108.0
3166,68.0,59,54,0.0,115.0
3167,72.0,57,54,0.0,118.0
3168,39.0,2,111,1.0,120.0
3169,75.0,60,54,0.0,114.0
3170,80.0,58,54,0.0,116.0
3171,32.0,2,111,1.0,114.0
3172,72.0,61,54,0.0,118.0
3173,75.0,60,54,0.0,116.0
3174,39.0,0,111,1.0,125.0
3175,80.0,58,54,0.0,120.0
3176,84.0,63,54,0.0,117.0
3177,32.0,0,111,1.0,107.0
3178,75.0,58,54,0.0,116.0
3179,80.0,59,54,0.0,117.0
3180,39.0,3,111,1.0,113.0
3181,84.0,59,54,0.0,121.0
3182,80.0,1,108,0.0,116.0
3183,75.0,0,108,0.0,118.0
3184,84.0,0,108,0.0,121.0
3185,87.0,1,108,0.0,120.0
3186,32.0,0,111,1.0,127.0
3187,44.0,58,111,1.0,125.0
3188,80.0,117,108,0.0,118.0
3189,84.0,0,108,0.0,119.0
3190,87.0,1,108,0.0,122.0
3191,75.0,2,108,0.0,117.0
3192,39.0,0,111,1.0,127.0
3193,31.0,117,111,1.0,109.0
3194,55.0,60,54,0.0,74.0
3195,58.0,3,54,0.0,78.0
3196,39.0,61,111,1.0,114.0
3197,61.0,58,54,0.0,79.0
3198,67.0,60,54,0.0,83.0
3199,31.0,1,111,1.0,111.0
3200,58.0,60,54,0.0,84.0
3201,61.0,59,54,0.0,80.0
3202,67.0,56,54,0.0,89.0
3203,39.0,2,111,1.0,110.0
3204,70.0,64,54,0.0,83.0
3205,61.0,56,54,0.0,82.0
3206,31.0,0,111,1.0,112.0
3207,67.0,61,54,0.0,81.0
3208,39.0,0,111,1.0,107.0
3209,70.0,59,54,0.0,80.0
3210,73.0,60,54,0.0,79.0
3211,31.0,4,111,1.0,107.0
3212,67.0,59,54,0.0,81.0
3213,70.0,59,54,0.0,76.0
3214,39.0,1,111,1.0,107.0
3215,73.0,60,54,0.0,83.0
3216,79.0,58,54,0.0,80.0
3217,31.0,0,111,1.0,112.0
3218,70.0,60,54,0.0,78.0
3219,73.0,1,54,0.0,76.0
3220,39.0,60,111,1.0,104.0
3221,79.0,60,54,0.0,90.0
3222,82.0,58,54,0.0,87.0
3223,31.0,1,111,1.0,107.0
3224,73.0,59,54,0.0,80.0
3225,79.0,60,54,0.0,87.0
3226,39.0,2,111,1.0,104.0
3227,82.0,60,54,0.0,81.0
3228,85.0,59,54,0.0,85.0
3229,79.0,57,54,0.0,88.0
3230,31.0,2,111,1.0,112.0
3231,82.0,62,54,0.0,84.0
3232,39.0,0,111,1.0,111.0
3233,85.0,60,54,0.0,81.0
3234,75.0,0,108,0.0,118.0
3235,79.0,0,108,0.0,123.0
3236,87.0,58,108,0.0,122.0
3237,82.0,0,108,0.0,118.0
3238,85.0,1,108,0.0,122.0
3239,43.0,0,111,1.0,127.0
3240,31.0,2,111,1.0,127.0
3241,75.0,0,108,0.0,124.0
3242,85.0,1,108,0.0,123.0
3243,87.0,1,108,0.0,124.0
3244,79.0,1,108,0.0,120.0
3245,39.0,117,111,1.0,125.0
3246,82.0,1,108,0.0,124.0
3247,30.0,118,111,1.0,96.0
3248,54.0,62,54,0.0,105.0
3249,57.0,56,54,0.0,85.0
3250,39.0,1,111,1.0,111.0
3251,60.0,60,54,0.0,77.0
3252,66.0,1,54,0.0,88.0
3253,30.0,61,111,1.0,97.0
3254,57.0,57,54,0.0,87.0
3255,60.0,3,54,0.0,93.0
3256,39.0,61,111,1.0,103.0
3257,66.0,57,54,0.0,82.0
3258,69.0,1,54,0.0,92.0
3259,30.0,60,111,1.0,106.0
3260,60.0,61,54,0.0,84.0
3261,66.0,1,54,0.0,77.0
3262,39.0,60,111,1.0,104.0
3263,69.0,60,54,0.0,90.0
3264,72.0,57,54,0.0,89.0
3265,30.0,2,111,1.0,104.0
3266,66.0,60,54,0.0,89.0
3267,69.0,1,54,0.0,91.0
3268,39.0,59,111,1.0,106.0
3269,72.0,61,54,0.0,89.0
3270,78.0,58,54,0.0,105.0
3271,30.0,1,111,1.0,104.0
3272,69.0,58,54,0.0,71.0
3273,72.0,62,54,0.0,78.0
3274,39.0,1,111,1.0,113.0
3275,78.0,60,54,0.0,86.0
3276,81.0,1,54,0.0,89.0
3277,30.0,58,111,1.0,111.0
3278,72.0,61,54,0.0,77.0
3279,78.0,59,54,0.0,83.0
3280,81.0,57,54,0.0,94.0
3281,39.0,1,111,1.0,108.0
3282,84.0,60,54,0.0,90.0
3283,30.0,1,111,1.0,108.0
3284,78.0,62,54,0.0,83.0
3285,81.0,1,54,0.0,87.0
3286,39.0,57,111,1.0,108.0
3287,84.0,60,54,0.0,93.0
3288,81.0,58,108,0.0,119.0
3289,84.0,2,108,0.0,122.0
3290,78.0,1,108,0.0,121.0
3291,42.0,0,111,1.0,127.0
3292,90.0,1,108,0.0,124.0
3293,30.0,0,111,1.0,125.0
3294,81.0,0,108,0.0,120.0
3295,84.0,119,108,0.0,124.0
3296,78.0,0,108,0.0,118.0
3297,90.0,1,108,0.0,122.0
3298,39.0,0,111,1.0,127.0
3299,31.0,118,111,1.0,108.0
3300,55.0,60,54,0.0,85.0
3301,58.0,58,54,0.0,85.0
3302,38.0,3,111,1.0,117.0
3303,62.0,60,54,0.0,84.0
3304,67.0,1,54,0.0,83.0
3305,31.0,58,111,1.0,108.0
3306,67.0,61,54,0.0,82.0
3307,70.0,57,54,0.0,85.0
3308,38.0,2,111,1.0,123.0
3309,74.0,58,54,0.0,85.0
3310,79.0,2,54,0.0,88.0
3311,31.0,61,111,1.0,111.0
3312,79.0,57,54,0.0,85.0
3313,82.0,3,54,0.0,82.0
3314,38.0,60,111,1.0,119.0
3315,86.0,59,54,0.0,85.0
3316,79.0,58,108,0.0,123.0
3317,82.0,3,108,0.0,122.0
3318,86.0,0,108,0.0,124.0
3319,91.0,1,108,0.0,118.0
3320,43.0,0,111,1.0,126.0
3321,31.0,0,111,1.0,126.0
3322,79.0,116,108,0.0,121.0
3323,86.0,1,108,0.0,121.0
3324,82.0,0,108,0.0,123.0
3325,91.0,2,108,0.0,121.0
3326,38.0,0,111,1.0,127.0
3327,31.0,118,111,1.0,121.0
3328,55.0,60,54,0.0,87.0
3329,58.0,60,54,0.0,79.0
3330,37.0,3,111,1.0,122.0
3331,61.0,59,54,0.0,88.0
3332,67.0,4,54,0.0,89.0
3333,31.0,57,111,1.0,111.0
3334,67.0,57,54,0.0,85.0
3335,70.0,60,54,0.0,90.0
3336,37.0,2,111,1.0,124.0
3337,73.0,61,54,0.0,81.0
3338,79.0,1,54,0.0,90.0
3339,31.0,56,111,1.0,112.0
3340,79.0,63,54,0.0,92.0
3341,82.0,57,54,0.0,81.0
3342,37.0,3,111,1.0,119.0
3343,85.0,59,54,0.0,84.0
3344,79.0,57,108,0.0,122.0
3345,85.0,1,108,0.0,118.0
3346,91.0,1,108,0.0,121.0
3347,82.0,1,108,0.0,120.0
3348,43.0,0,111,1.0,125.0
3349,31.0,0,111,1.0,125.0
3350,79.0,118,108,0.0,120.0
3351,82.0,1,108,0.0,118.0
3352,91.0,1,108,0.0,122.0
3353,85.0,1,108,0.0,119.0
3354,37.0,0,111,1.0,127.0
3355,31.0,0,95,1.0,119.0
3356,91.0,120,190,0.0,120.0
3357,37.0,117,95,1.0,121.0
3358,91.0,120,31,0.0,119.0
3359,92.0,39,31,0.0,119.0
3360,31.0,1,95,1.0,117.0
3361,91.0,41,31,0.0,113.0
3362,89.0,1,31,0.0,114.0
3363,85.0,38,31,0.0,113.0
3364,41.0,41,95,1.0,118.0
3365,82.0,39,31,0.0,118.0
3366,89.0,43,31,0.0,111.0
3367,91.0,40,31,0.0,115.0
3368,31.0,0,95,1.0,112.0
3369,89.0,40,31,0.0,112.0
3370,85.0,37,31,0.0,113.0
3371,82.0,41,31,0.0,114.0
3372,37.0,0,95,1.0,111.0
3373,79.0,38,31,0.0,110.0
3374,85.0,40,31,0.0,111.0
3375,87.0,43,31,0.0,108.0
3376,31.0,0,95,1.0,109.0
3377,85.0,37,31,0.0,112.0
3378,82.0,4,31,0.0,108.0
3379,79.0,39,31,0.0,109.0
3380,46.0,40,95,1.0,112.0
3381,77.0,39,31,0.0,108.0
3382,82.0,39,31,0.0,110.0
3383,84.0,41,31,0.0,109.0
3384,31.0,0,95,1.0,106.0
3385,82.0,42,31,0.0,105.0
3386,79.0,38,31,0.0,109.0
3387,75.0,42,31,0.0,106.0
3388,43.0,0,95,1.0,108.0
3389,73.0,39,31,0.0,105.0
3390,79.0,40,31,0.0,106.0
3391,80.0,40,31,0.0,104.0
3392,31.0,0,95,1.0,101.0
3393,79.0,39,31,0.0,100.0
3394,75.0,40,31,0.0,104.0
3395,73.0,39,31,0.0,104.0
3396,39.0,0,95,1.0,100.0
3397,70.0,40,31,0.0,101.0
3398,75.0,41,31,0.0,98.0
3399,77.0,40,31,0.0,101.0
3400,31.0,0,95,1.0,102.0
3401,75.0,39,31,0.0,97.0
3402,73.0,4,31,0.0,101.0
3403,70.0,37,31,0.0,101.0
3404,37.0,39,95,1.0,99.0
3405,67.0,39,31,0.0,100.0
3406,73.0,40,31,0.0,99.0
3407,75.0,43,31,0.0,98.0
3408,31.0,0,95,1.0,99.0
3409,73.0,38,31,0.0,96.0
3410,70.0,43,31,0.0,95.0
3411,67.0,39,31,0.0,93.0
3412,46.0,0,95,1.0,94.0
3413,63.0,40,31,0.0,92.0
3414,70.0,38,31,0.0,93.0
3415,72.0,42,31,0.0,93.0
3416,31.0,1,95,1.0,91.0
3417,70.0,37,31,0.0,95.0
3418,67.0,1,31,0.0,92.0
3419,63.0,37,31,0.0,91.0
3420,43.0,42,95,1.0,94.0
3421,61.0,42,31,0.0,92.0
3422,67.0,39,31,0.0,88.0
3423,68.0,40,31,0.0,89.0
3424,31.0,0,95,1.0,88.0
3425,67.0,42,31,0.0,87.0
3426,63.0,4,31,0.0,85.0
3427,61.0,37,31,0.0,84.0
3428,39.0,36,95,1.0,87.0
3429,58.0,40,31,0.0,86.0
3430,63.0,39,31,0.0,84.0
3431,65.0,39,31,0.0,85.0
3432,31.0,4,95,1.0,90.0
3433,63.0,37,31,0.0,83.0
3434,61.0,1,31,0.0,82.0
3435,58.0,40,31,0.0,81.0
3436,37.0,41,95,1.0,84.0
3437,55.0,41,31,0.0,80.0
3438,61.0,39,31,0.0,81.0
3439,63.0,41,31,0.0,86.0
3440,31.0,1,95,1.0,80.0
3441,61.0,38,31,0.0,80.0
3442,58.0,3,31,0.0,79.0
3443,55.0,37,31,0.0,83.0
3444,46.0,38,95,1.0,81.0
3445,51.0,44,31,0.0,80.0
3446,58.0,1,31,0.0,79.0
3447,60.0,39,31,0.0,79.0
3448,31.0,39,95,1.0,81.0
3449,58.0,40,31,0.0,79.0
3450,55.0,38,31,0.0,76.0
3451,51.0,37,31,0.0,78.0
3452,43.0,2,95,1.0,77.0
3453,49.0,42,31,0.0,76.0
3454,50.0,38,31,0.0,73.0
3455,51.0,36,31,0.0,78.0
3456,31.0,4,95,1.0,79.0
3457,52.0,41,31,0.0,82.0
3458,53.0,4,31,0.0,80.0
3459,54.0,36,31,0.0,80.0
3460,41.0,39,95,1.0,82.0
3461,55.0,42,31,0.0,85.0
3462,56.0,40,31,0.0,81.0
3463,57.0,36,31,0.0,83.0
3464,31.0,2,95,1.0,80.0
3465,58.0,40,31,0.0,88.0
3466,59.0,40,31,0.0,89.0
3467,60.0,39,31,0.0,85.0
3468,35.0,3,95,1.0,85.0
3469,61.0,40,31,0.0,88.0
3470,62.0,41,31,0.0,87.0
3471,63.0,40,31,0.0,88.0
3472,31.0,1,95,1.0,91.0
3473,64.0,40,31,0.0,93.0
3474,65.0,4,31,0.0,95.0
3475,66.0,40,31,0.0,90.0
3476,41.0,36,95,1.0,92.0
3477,67.0,36,31,0.0,92.0
3478,68.0,3,31,0.0,97.0
3479,69.0,41,31,0.0,99.0
3480,31.0,40,95,1.0,94.0
3481,70.0,36,31,0.0,97.0
3482,71.0,40,31,0.0,101.0
3483,72.0,42,31,0.0,97.0
3484,35.0,2,95,1.0,102.0
3485,73.0,40,31,0.0,102.0
3486,74.0,3,31,0.0,99.0
3487,75.0,37,31,0.0,106.0
3488,31.0,36,95,1.0,103.0
3489,76.0,41,31,0.0,106.0
3490,77.0,43,31,0.0,106.0
3491,78.0,37,31,0.0,105.0
3492,41.0,0,95,1.0,108.0
3493,79.0,39,31,0.0,110.0
3494,80.0,1,31,0.0,107.0
3495,81.0,43,31,0.0,107.0
3496,31.0,40,95,1.0,107.0
3497,82.0,40,31,0.0,107.0
3498,83.0,39,31,0.0,112.0
3499,84.0,38,31,0.0,111.0
3500,35.0,1,95,1.0,109.0
3501,85.0,38,31,0.0,116.0
3502,86.0,1,31,0.0,115.0
3503,87.0,40,31,0.0,115.0
3504,31.0,40,95,1.0,116.0
3505,88.0,42,31,0.0,114.0
3506,89.0,1,31,0.0,119.0
3507,90.0,40,31,0.0,119.0
3508,41.0,38,95,1.0,116.0
3509,91.0,39,31,0.0,120.0
3510,44.0,40,55,1.0,118.0
3511,92.0,2,54,0.0,121.0
3512,63.0,57,54,0.0,118.0
3513,51.0,1,55,1.0,117.0
3514,68.0,62,54,0.0,119.0
3515,56.0,1,55,1.0,117.0
3516,60.0,58,55,1.0,120.0
3517,72.0,2,54,0.0,118.0
3518,75.0,57,54,0.0,116.0
3519,63.0,2,55,1.0,122.0
3520,68.0,1,54,0.0,116.0
3521,56.0,57,55,1.0,115.0
3522,72.0,60,54,0.0,120.0
3523,60.0,0,55,1.0,119.0
3524,75.0,62,54,0.0,116.0
3525,63.0,0,55,1.0,117.0
3526,68.0,59,55,1.0,113.0
3527,80.0,2,54,0.0,116.0
3528,72.0,57,54,0.0,117.0
3529,60.0,1,55,1.0,115.0
3530,75.0,61,54,0.0,113.0
3531,63.0,1,55,1.0,113.0
3532,68.0,56,55,1.0,111.0
3533,80.0,4,54,0.0,114.0
3534,84.0,56,54,0.0,110.0
3535,72.0,2,55,1.0,111.0
3536,75.0,1,54,0.0,115.0
3537,63.0,61,55,1.0,114.0
3538,80.0,58,54,0.0,113.0
3539,68.0,2,55,1.0,108.0
3540,84.0,59,54,0.0,113.0
3541,72.0,1,55,1.0,113.0
3542,87.0,1,54,0.0,113.0
3543,75.0,58,55,1.0,112.0
3544,80.0,1,54,0.0,107.0
3545,68.0,59,55,1.0,109.0
3546,72.0,58,55,1.0,110.0
3547,84.0,3,54,0.0,111.0
3548,87.0,56,54,0.0,109.0
3549,75.0,0,55,1.0,105.0
3550,80.0,61,55,1.0,109.0
3551,92.0,2,54,0.0,107.0
3552,87.0,58,54,0.0,105.0
3553,75.0,1,55,1.0,104.0
3554,72.0,58,55,1.0,108.0
3555,84.0,4,54,0.0,108.0
3556,68.0,56,55,1.0,107.0
3557,80.0,2,54,0.0,105.0
3558,75.0,59,55,1.0,104.0
3559,87.0,2,54,0.0,107.0
3560,84.0,58,54,0.0,102.0
3561,72.0,3,55,1.0,107.0
3562,80.0,56,54,0.0,105.0
3563,68.0,3,55,1.0,105.0
3564,75.0,58,54,0.0,104.0
3565,63.0,1,55,1.0,105.0
3566,84.0,58,54,0.0,104.0
3567,72.0,2,55,1.0,101.0
3568,68.0,59,55,1.0,100.0
3569,80.0,3,54,0.0,99.0
3570,75.0,56,54,0.0,98.0
3571,63.0,3,55,1.0,102.0
3572,72.0,58,54,0.0,101.0
3573,60.0,2,55,1.0,101.0
3574,68.0,57,55,1.0,96.0
3575,80.0,4,54,0.0,101.0
3576,75.0,60,54,0.0,99.0
3577,63.0,0,55,1.0,96.0
3578,72.0,58,54,0.0,98.0
3579,60.0,0,55,1.0,98.0
3580,68.0,60,54,0.0,97.0
3581,56.0,2,55,1.0,96.0
3582,75.0,57,54,0.0,94.0
3583,63.0,2,55,1.0,96.0
3584,60.0,59,55,1.0,95.0
3585,72.0,2,54,0.0,96.0
3586,68.0,56,54,0.0,96.0
3587,56.0,3,55,1.0,95.0
3588,51.0,57,55,1.0,98.0
3589,63.0,4,54,0.0,97.0
3590,72.0,56,54,0.0,92.0
3591,60.0,0,55,1.0,95.0
3592,68.0,1,54,0.0,96.0
3593,56.0,60,55,1.0,93.0
3594,51.0,59,55,1.0,94.0
3595,63.0,4,54,0.0,94.0
3596,48.0,58,55,1.0,91.0
3597,60.0,2,54,0.0,90.0
3598,68.0,1,54,0.0,93.0
3599,56.0,56,55,1.0,94.0
3600,63.0,1,54,0.0,89.0
3601,51.0,61,55,1.0,94.0
3602,60.0,61,54,0.0,90.0
3603,48.0,0,55,1.0,93.0
3604,56.0,56,54,0.0,89.0
3605,44.0,3,55,1.0,88.0
3606,63.0,59,47,0.0,91.0
3607,51.0,1,55,1.0,87.0
3608,60.0,60,47,0.0,91.0
3609,48.0,0,55,1.0,88.0
3610,56.0,2,47,0.0,85.0
3611,44.0,58,55,1.0,90.0
3612,51.0,57,47,0.0,90.0
3613,39.0,3,55,1.0,88.0
3614,63.0,4,47,0.0,85.0
3615,51.0,57,55,1.0,83.0
3616,61.0,3,47,0.0,84.0
3617,49.0,56,55,1.0,86.0
3618,58.0,58,47,0.0,85.0
3619,46.0,3,55,1.0,82.0
3620,55.0,3,47,0.0,86.0
3621,43.0,56,55,1.0,82.0
3622,63.0,57,47,0.0,81.0
3623,51.0,1,55,1.0,81.0
3624,55.0,61,47,0.0,84.0
3625,43.0,0,55,1.0,83.0
3626,58.0,58,47,0.0,84.0
3627,46.0,4,55,1.0,84.0
3628,61.0,57,47,0.0,83.0
3629,49.0,0,55,1.0,78.0
3630,60.0,4,47,0.0,77.0
3631,48.0,59,55,1.0,78.0
3632,55.0,57,47,0.0,82.0
3633,43.0,0,55,1.0,81.0
3634,51.0,62,47,0.0,79.0
3635,39.0,1,55,1.0,81.0
3636,55.0,1,47,0.0,79.0
3637,43.0,57,55,1.0,79.0
3638,56.0,1,218,0.0,79.0
3639,44.0,59,223,1.0,77.0
3640,75.0,0,218,0.0,119.0
3641,80.0,0,218,0.0,124.0
3642,84.0,478,218,0.0,123.0
3643,72.0,2,218,0.0,118.0
3644,56.0,1,223,1.0,124.0
3645,48.0,0,223,1.0,121.0
3646,60.0,1,223,1.0,119.0
3647,51.0,0,223,1.0,122.0
3648,80.0,0,218,0.0,121.0
3649,72.0,1,218,0.0,118.0
3650,75.0,1,218,0.0,118.0
3651,68.0,1,218,0.0,121.0
3652,48.0,476,223,1.0,122.0
3653,51.0,0,223,1.0,120.0
3654,56.0,1,223,1.0,123.0
3655,44.0,0,223,1.0,120.0
