,note,step,duration,channel,velocity
0,82.0,16,106,0.0,0.0
1,70.0,28,18,0.0,0.0
2,79.0,47,51,0.0,0.0
3,39.0,13,11,0.0,0.0
4,87.0,40,42,0.0,0.0
5,51.0,32,25,0.0,0.0
6,58.0,7,59,0.0,0.0
7,70.0,6,22,0.0,0.0
8,67.0,17,12,0.0,0.0
9,79.0,48,29,0.0,0.0
10,82.0,12,78,0.0,0.0
11,51.0,1,30,0.0,0.0
12,70.0,9,19,0.0,0.0
13,58.0,19,45,0.0,0.0
14,79.0,5,28,0.0,0.0
15,67.0,10,8,0.0,0.0
16,81.0,10,40,0.0,0.0
17,51.0,15,12,0.0,0.0
18,70.0,15,21,0.0,0.0
19,58.0,23,44,0.0,0.0
20,79.0,4,26,0.0,0.0
21,67.0,11,8,0.0,0.0
22,82.0,6,43,0.0,0.0
23,51.0,2,12,0.0,0.0
24,70.0,30,12,0.0,0.0
25,58.0,8,41,0.0,0.0
26,79.0,6,24,0.0,0.0
27,67.0,4,8,0.0,0.0
28,84.0,26,24,0.0,0.0
29,51.0,12,14,0.0,0.0
30,70.0,0,14,0.0,0.0
31,58.0,19,12,0.0,0.0
32,79.0,42,22,0.0,0.0
33,67.0,12,9,0.0,0.0
34,82.0,4,68,0.0,0.0
35,50.0,12,34,0.0,0.0
36,70.0,5,13,0.0,0.0
37,58.0,33,16,0.0,0.0
38,80.0,2,10,0.0,0.0
39,68.0,5,14,0.0,0.0
40,89.0,47,7,0.0,0.0
41,50.0,27,9,0.0,0.0
42,70.0,1,18,0.0,0.0
43,58.0,22,15,0.0,0.0
44,80.0,22,26,0.0,0.0
45,68.0,7,13,0.0,0.0
46,82.0,11,34,0.0,0.0
47,50.0,12,10,0.0,0.0
48,70.0,7,12,0.0,0.0
49,58.0,22,8,0.0,0.0
50,80.0,4,25,0.0,0.0
51,81.0,21,56,0.0,0.0
52,68.0,33,10,0.0,0.0
53,50.0,9,11,0.0,0.0
54,70.0,1,18,0.0,0.0
55,58.0,12,13,0.0,0.0
56,80.0,29,27,0.0,0.0
57,68.0,2,8,0.0,0.0
58,82.0,0,44,0.0,0.0
59,50.0,6,9,0.0,0.0
60,70.0,15,14,0.0,0.0
61,58.0,16,14,0.0,0.0
62,80.0,10,30,0.0,0.0
63,68.0,6,8,0.0,0.0
64,84.0,26,23,0.0,0.0
65,50.0,8,12,0.0,0.0
66,70.0,6,14,0.0,0.0
67,58.0,14,12,0.0,0.0
68,80.0,34,23,0.0,0.0
69,82.0,8,54,0.0,0.0
70,68.0,4,7,0.0,0.0
71,51.0,4,18,0.0,0.0
72,70.0,4,13,0.0,0.0
73,79.0,16,10,0.0,0.0
74,58.0,16,22,0.0,0.0
75,67.0,8,12,0.0,0.0
76,91.0,50,7,0.0,0.0
77,53.0,6,20,0.0,0.0
78,74.0,12,12,0.0,0.0
79,58.0,14,22,0.0,0.0
80,82.0,4,22,0.0,0.0
81,86.0,4,7,0.0,0.0
82,62.0,4,14,0.0,0.0
83,68.0,28,15,0.0,0.0
84,70.0,36,8,0.0,0.0
85,55.0,38,65,0.0,0.0
86,58.0,1,48,0.0,0.0
87,63.0,7,21,0.0,0.0
88,82.0,5,12,0.0,0.0
89,67.0,4,10,0.0,0.0
90,87.0,5,8,0.0,0.0
91,43.0,6,12,0.0,0.0
92,71.0,12,10,0.0,0.0
93,51.0,12,12,0.0,0.0
94,75.0,2,8,0.0,0.0
95,59.0,10,10,0.0,0.0
96,86.0,44,14,0.0,0.0
97,44.0,6,36,0.0,0.0
98,72.0,6,17,0.0,0.0
99,51.0,23,28,0.0,0.0
100,75.0,12,11,0.0,0.0
101,84.0,11,35,0.0,0.0
102,60.0,2,8,0.0,0.0
103,72.0,1,18,0.0,0.0
104,45.0,9,13,0.0,0.0
105,77.0,5,8,0.0,0.0
106,53.0,23,11,0.0,0.0
107,63.0,41,11,0.0,0.0
108,89.0,1,8,0.0,0.0
109,46.0,36,20,0.0,0.0
110,70.0,2,12,0.0,0.0
111,55.0,3,44,0.0,0.0
112,79.0,11,46,0.0,0.0
113,63.0,13,16,0.0,0.0
114,87.0,2,28,0.0,0.0
115,46.0,7,8,0.0,0.0
116,72.0,19,8,0.0,0.0
117,54.0,7,26,0.0,0.0
118,78.0,7,10,0.0,0.0
119,57.0,5,12,0.0,0.0
120,81.0,17,31,0.0,0.0
121,87.0,11,15,0.0,0.0
122,63.0,3,8,0.0,0.0
123,46.0,8,11,0.0,0.0
124,70.0,12,12,0.0,0.0
125,53.0,2,16,0.0,0.0
126,77.0,20,8,0.0,0.0
127,82.0,23,30,0.0,0.0
128,58.0,1,26,0.0,0.0
129,86.0,0,14,0.0,0.0
130,62.0,12,11,0.0,0.0
131,48.0,2,10,0.0,0.0
132,70.0,16,10,0.0,0.0
133,55.0,7,25,0.0,0.0
134,76.0,10,9,0.0,0.0
135,79.0,1,31,0.0,0.0
136,85.0,12,19,0.0,0.0
137,58.0,16,30,0.0,0.0
138,64.0,3,9,0.0,0.0
139,48.0,20,14,0.0,0.0
140,68.0,2,10,0.0,0.0
141,56.0,11,49,0.0,0.0
142,77.0,18,9,0.0,0.0
143,80.0,6,21,0.0,0.0
144,84.0,4,40,0.0,0.0
145,65.0,13,16,0.0,0.0
146,72.0,14,10,0.0,0.0
147,48.0,23,14,0.0,0.0
148,79.0,9,29,0.0,0.0
149,82.0,3,74,0.0,0.0
150,60.0,10,12,0.0,0.0
151,88.0,9,18,0.0,0.0
152,67.0,31,9,0.0,0.0
153,72.0,65,21,0.0,0.0
154,80.0,40,84,0.0,0.0
155,41.0,12,36,0.0,0.0
156,89.0,10,25,0.0,0.0
157,53.0,7,14,0.0,0.0
158,72.0,11,12,0.0,0.0
159,60.0,28,13,0.0,0.0
160,80.0,21,58,0.0,0.0
161,68.0,21,11,0.0,0.0
162,84.0,9,32,0.0,0.0
163,71.0,18,10,0.0,0.0
164,60.0,12,17,0.0,0.0
165,80.0,23,27,0.0,0.0
166,83.0,12,40,0.0,0.0
167,68.0,0,15,0.0,0.0
168,53.0,6,14,0.0,0.0
169,72.0,28,10,0.0,0.0
170,60.0,1,29,0.0,0.0
171,80.0,28,27,0.0,0.0
172,84.0,6,48,0.0,0.0
173,68.0,4,12,0.0,0.0
174,53.0,3,10,0.0,0.0
175,73.0,22,12,0.0,0.0
176,60.0,6,24,0.0,0.0
177,80.0,3,25,0.0,0.0
178,85.0,8,43,0.0,0.0
179,68.0,28,13,0.0,0.0
180,53.0,9,14,0.0,0.0
181,72.0,16,9,0.0,0.0
182,60.0,3,18,0.0,0.0
183,80.0,41,18,0.0,0.0
184,68.0,6,9,0.0,0.0
185,84.0,5,69,0.0,0.0
186,52.0,16,26,0.0,0.0
187,72.0,3,16,0.0,0.0
188,58.0,4,22,0.0,0.0
189,79.0,1,13,0.0,0.0
190,82.0,7,10,0.0,0.0
191,60.0,29,11,0.0,0.0
192,67.0,44,12,0.0,0.0
193,91.0,0,11,0.0,0.0
194,52.0,14,18,0.0,0.0
195,58.0,9,16,0.0,0.0
196,72.0,11,11,0.0,0.0
197,60.0,4,14,0.0,0.0
198,79.0,10,13,0.0,0.0
199,82.0,14,17,0.0,0.0
200,67.0,0,11,0.0,0.0
201,84.0,22,22,0.0,0.0
202,52.0,12,13,0.0,0.0
203,58.0,2,12,0.0,0.0
204,71.0,22,12,0.0,0.0
205,82.0,0,18,0.0,0.0
206,60.0,6,14,0.0,0.0
207,79.0,2,12,0.0,0.0
208,83.0,8,40,0.0,0.0
209,67.0,26,11,0.0,0.0
210,52.0,12,11,0.0,0.0
211,72.0,4,12,0.0,0.0
212,58.0,11,12,0.0,0.0
213,79.0,6,11,0.0,0.0
214,60.0,5,14,0.0,0.0
215,82.0,27,18,0.0,0.0
216,84.0,9,43,0.0,0.0
217,67.0,2,8,0.0,0.0
218,73.0,7,13,0.0,0.0
219,52.0,4,8,0.0,0.0
220,79.0,20,14,0.0,0.0
221,58.0,3,11,0.0,0.0
222,82.0,27,23,0.0,0.0
223,85.0,10,44,0.0,0.0
224,67.0,1,8,0.0,0.0
225,52.0,9,10,0.0,0.0
226,58.0,12,20,0.0,0.0
227,72.0,5,13,0.0,0.0
228,79.0,8,12,0.0,0.0
229,82.0,8,12,0.0,0.0
230,84.0,0,54,0.0,0.0
231,67.0,25,14,0.0,0.0
232,53.0,14,24,0.0,0.0
233,72.0,11,12,0.0,0.0
234,56.0,4,27,0.0,0.0
235,80.0,6,12,0.0,0.0
236,84.0,12,10,0.0,0.0
237,60.0,22,13,0.0,0.0
238,68.0,46,14,0.0,0.0
239,92.0,6,6,0.0,0.0
240,55.0,9,43,0.0,0.0
241,75.0,24,10,0.0,0.0
242,58.0,22,83,0.0,0.0
243,82.0,23,23,0.0,0.0
244,63.0,0,35,0.0,0.0
245,87.0,13,42,0.0,0.0
246,91.0,6,18,0.0,0.0
247,70.0,4,18,0.0,0.0
248,56.0,9,26,0.0,0.0
249,75.0,7,13,0.0,0.0
250,63.0,1,18,0.0,0.0
251,84.0,17,11,0.0,0.0
252,87.0,24,42,0.0,0.0
253,89.0,9,23,0.0,0.0
254,72.0,8,7,0.0,0.0
255,75.0,17,10,0.0,0.0
256,56.0,6,16,0.0,0.0
257,83.0,9,13,0.0,0.0
258,87.0,3,31,0.0,0.0
259,65.0,12,14,0.0,0.0
260,89.0,36,24,0.0,0.0
261,71.0,4,14,0.0,0.0
262,58.0,1,46,0.0,0.0
263,74.0,26,14,0.0,0.0
264,82.0,21,41,0.0,0.0
265,65.0,4,22,0.0,0.0
266,70.0,7,24,0.0,0.0
267,89.0,7,9,0.0,0.0
268,58.0,20,76,0.0,0.0
269,74.0,12,10,0.0,0.0
270,80.0,8,10,0.0,0.0
271,65.0,14,12,0.0,0.0
272,68.0,6,29,0.0,0.0
273,91.0,20,6,0.0,0.0
274,63.0,28,16,0.0,0.0
275,75.0,8,63,0.0,0.0
276,79.0,5,54,0.0,0.0
277,67.0,28,16,0.0,0.0
278,87.0,35,43,0.0,0.0
279,57.0,4,66,0.0,0.0
280,66.0,0,69,0.0,0.0
281,75.0,1,47,0.0,0.0
282,72.0,20,22,0.0,0.0
283,78.0,1,33,0.0,0.0
284,87.0,36,21,0.0,0.0
285,58.0,5,22,0.0,0.0
286,74.0,5,11,0.0,0.0
287,65.0,2,15,0.0,0.0
288,70.0,10,11,0.0,0.0
289,77.0,9,44,0.0,0.0
290,86.0,25,8,0.0,0.0
291,52.0,20,11,0.0,0.0
292,70.0,22,11,0.0,0.0
293,61.0,3,32,0.0,0.0
294,79.0,28,40,0.0,0.0
295,67.0,6,18,0.0,0.0
296,85.0,11,16,0.0,0.0
297,53.0,11,41,0.0,0.0
298,68.0,20,11,0.0,0.0
299,60.0,11,31,0.0,0.0
300,80.0,4,38,0.0,0.0
301,65.0,2,9,0.0,0.0
302,84.0,46,18,0.0,0.0
303,46.0,1,44,0.0,0.0
304,68.0,16,9,0.0,0.0
305,53.0,8,46,0.0,0.0
306,77.0,25,9,0.0,0.0
307,56.0,50,56,0.0,0.0
308,86.0,14,14,0.0,0.0
309,62.0,12,13,0.0,0.0
310,67.0,26,32,0.0,0.0
311,39.0,53,41,0.0,0.0
312,75.0,9,25,0.0,0.0
313,87.0,55,31,0.0,0.0
314,51.0,35,31,0.0,0.0
315,58.0,4,44,0.0,0.0
316,70.0,7,32,0.0,0.0
317,75.0,8,16,0.0,0.0
318,67.0,40,10,0.0,0.0
319,82.0,8,44,0.0,0.0
320,51.0,6,12,0.0,0.0
321,70.0,10,14,0.0,0.0
322,58.0,10,12,0.0,0.0
323,75.0,12,14,0.0,0.0
324,81.0,12,58,0.0,0.0
325,67.0,36,10,0.0,0.0
326,70.0,8,12,0.0,0.0
327,51.0,0,11,0.0,0.0
328,58.0,12,18,0.0,0.0
329,75.0,2,16,0.0,0.0
330,82.0,0,56,0.0,0.0
331,67.0,30,10,0.0,0.0
332,70.0,14,10,0.0,0.0
333,51.0,8,12,0.0,0.0
334,75.0,1,10,0.0,0.0
335,58.0,21,11,0.0,0.0
336,84.0,26,24,0.0,0.0
337,67.0,8,10,0.0,0.0
338,51.0,12,12,0.0,0.0
339,70.0,8,13,0.0,0.0
340,58.0,8,12,0.0,0.0
341,75.0,14,12,0.0,0.0
342,67.0,46,12,0.0,0.0
343,82.0,28,80,0.0,0.0
344,50.0,4,26,0.0,0.0
345,70.0,14,12,0.0,0.0
346,58.0,6,12,0.0,0.0
347,80.0,0,8,0.0,0.0
348,68.0,18,12,0.0,0.0
349,89.0,34,16,0.0,0.0
350,50.0,26,12,0.0,0.0
351,70.0,20,24,0.0,0.0
352,58.0,4,8,0.0,0.0
353,80.0,32,22,0.0,0.0
354,68.0,4,12,0.0,0.0
355,82.0,8,38,0.0,0.0
356,50.0,10,14,0.0,0.0
357,70.0,25,19,0.0,0.0
358,58.0,5,9,0.0,0.0
359,80.0,42,25,0.0,0.0
360,68.0,0,12,0.0,0.0
361,81.0,1,51,0.0,0.0
362,70.0,24,22,0.0,0.0
363,50.0,7,12,0.0,0.0
364,58.0,2,10,0.0,0.0
365,80.0,32,32,0.0,0.0
366,82.0,8,50,0.0,0.0
367,68.0,4,9,0.0,0.0
368,70.0,2,12,0.0,0.0
369,50.0,2,12,0.0,0.0
370,58.0,26,9,0.0,0.0
371,80.0,0,26,0.0,0.0
372,68.0,16,12,0.0,0.0
373,84.0,20,26,0.0,0.0
374,50.0,18,11,0.0,0.0
375,70.0,2,14,0.0,0.0
376,58.0,18,14,0.0,0.0
377,80.0,8,16,0.0,0.0
378,68.0,36,14,0.0,0.0
379,82.0,12,56,0.0,0.0
380,51.0,8,16,0.0,0.0
381,70.0,2,20,0.0,0.0
382,58.0,4,12,0.0,0.0
383,79.0,12,16,0.0,0.0
384,82.0,14,10,0.0,0.0
385,67.0,18,12,0.0,0.0
386,91.0,34,8,0.0,0.0
387,53.0,20,12,0.0,0.0
388,58.0,10,14,0.0,0.0
389,74.0,12,20,0.0,0.0
390,82.0,0,24,0.0,0.0
391,62.0,10,11,0.0,0.0
392,86.0,5,64,0.0,0.0
393,68.0,40,10,0.0,0.0
394,55.0,10,20,0.0,0.0
395,75.0,1,23,0.0,0.0
396,58.0,1,12,0.0,0.0
397,63.0,3,11,0.0,0.0
398,82.0,20,9,0.0,0.0
399,87.0,1,8,0.0,0.0
400,70.0,42,9,0.0,0.0
401,71.0,11,11,0.0,0.0
402,43.0,6,12,0.0,0.0
403,75.0,12,10,0.0,0.0
404,51.0,8,12,0.0,0.0
405,86.0,50,10,0.0,0.0
406,59.0,2,8,0.0,0.0
407,44.0,2,30,0.0,0.0
408,72.0,12,14,0.0,0.0
409,51.0,14,30,0.0,0.0
410,75.0,10,16,0.0,0.0
411,60.0,2,12,0.0,0.0
412,84.0,18,26,0.0,0.0
413,45.0,5,14,0.0,0.0
414,72.0,5,19,0.0,0.0
415,77.0,14,6,0.0,0.0
416,53.0,10,13,0.0,0.0
417,89.0,6,7,0.0,0.0
418,63.0,42,12,0.0,0.0
419,46.0,14,22,0.0,0.0
420,70.0,4,14,0.0,0.0
421,55.0,8,16,0.0,0.0
422,79.0,2,52,0.0,0.0
423,63.0,28,8,0.0,0.0
424,87.0,4,32,0.0,0.0
425,46.0,20,10,0.0,0.0
426,72.0,12,14,0.0,0.0
427,54.0,4,31,0.0,0.0
428,78.0,6,10,0.0,0.0
429,81.0,17,34,0.0,0.0
430,57.0,10,9,0.0,0.0
431,87.0,10,17,0.0,0.0
432,63.0,4,12,0.0,0.0
433,46.0,3,13,0.0,0.0
434,70.0,14,8,0.0,0.0
435,53.0,2,18,0.0,0.0
436,77.0,18,7,0.0,0.0
437,58.0,14,24,0.0,0.0
438,62.0,0,12,0.0,0.0
439,82.0,18,34,0.0,0.0
440,86.0,8,8,0.0,0.0
441,48.0,2,12,0.0,0.0
442,70.0,16,12,0.0,0.0
443,55.0,4,34,0.0,0.0
444,76.0,12,10,0.0,0.0
445,79.0,10,38,0.0,0.0
446,58.0,0,36,0.0,0.0
447,85.0,10,24,0.0,0.0
448,64.0,10,10,0.0,0.0
449,48.0,6,8,0.0,0.0
450,68.0,24,10,0.0,0.0
451,56.0,38,34,0.0,0.0
452,77.0,9,12,0.0,0.0
453,80.0,3,17,0.0,0.0
454,65.0,4,10,0.0,0.0
455,84.0,4,50,0.0,0.0
456,48.0,11,18,0.0,0.0
457,72.0,7,11,0.0,0.0
458,79.0,20,18,0.0,0.0
459,55.0,6,11,0.0,0.0
460,82.0,2,74,0.0,0.0
461,60.0,4,12,0.0,0.0
462,88.0,12,8,0.0,0.0
463,67.0,36,8,0.0,0.0
464,72.0,54,22,0.0,0.0
465,80.0,6,62,0.0,0.0
466,41.0,12,30,0.0,0.0
467,89.0,42,17,0.0,0.0
468,53.0,24,12,0.0,0.0
469,72.0,3,20,0.0,0.0
470,60.0,21,17,0.0,0.0
471,80.0,24,37,0.0,0.0
472,68.0,10,12,0.0,0.0
473,84.0,6,18,0.0,0.0
474,53.0,10,12,0.0,0.0
475,71.0,14,12,0.0,0.0
476,60.0,14,13,0.0,0.0
477,80.0,24,28,0.0,0.0
478,68.0,4,11,0.0,0.0
479,83.0,8,36,0.0,0.0
480,53.0,10,10,0.0,0.0
481,72.0,24,14,0.0,0.0
482,80.0,21,28,0.0,0.0
483,60.0,4,20,0.0,0.0
484,68.0,2,11,0.0,0.0
485,84.0,13,33,0.0,0.0
486,53.0,14,12,0.0,0.0
487,73.0,16,20,0.0,0.0
488,60.0,4,22,0.0,0.0
489,80.0,24,24,0.0,0.0
490,85.0,6,38,0.0,0.0
491,68.0,2,11,0.0,0.0
492,53.0,20,10,0.0,0.0
493,60.0,8,32,0.0,0.0
494,72.0,16,12,0.0,0.0
495,68.0,2,10,0.0,0.0
496,80.0,40,18,0.0,0.0
497,84.0,0,65,0.0,0.0
498,52.0,2,36,0.0,0.0
499,72.0,15,21,0.0,0.0
500,79.0,5,13,0.0,0.0
501,58.0,5,30,0.0,0.0
502,82.0,15,9,0.0,0.0
503,60.0,12,18,0.0,0.0
504,91.0,5,7,0.0,0.0
505,67.0,40,9,0.0,0.0
506,52.0,15,13,0.0,0.0
507,72.0,8,22,0.0,0.0
508,58.0,4,12,0.0,0.0
509,79.0,13,11,0.0,0.0
510,60.0,0,21,0.0,0.0
511,82.0,7,22,0.0,0.0
512,84.0,18,23,0.0,0.0
513,67.0,8,8,0.0,0.0
514,52.0,16,9,0.0,0.0
515,71.0,18,21,0.0,0.0
516,58.0,5,14,0.0,0.0
517,79.0,7,32,0.0,0.0
518,82.0,15,31,0.0,0.0
519,67.0,12,8,0.0,0.0
520,83.0,1,41,0.0,0.0
521,52.0,12,10,0.0,0.0
522,72.0,6,11,0.0,0.0
523,58.0,20,15,0.0,0.0
524,79.0,0,20,0.0,0.0
525,60.0,5,29,0.0,0.0
526,82.0,4,25,0.0,0.0
527,84.0,18,30,0.0,0.0
528,67.0,10,10,0.0,0.0
529,52.0,11,11,0.0,0.0
530,73.0,4,26,0.0,0.0
531,58.0,4,11,0.0,0.0
532,79.0,12,11,0.0,0.0
533,82.0,20,28,0.0,0.0
534,85.0,6,41,0.0,0.0
535,67.0,12,8,0.0,0.0
536,52.0,11,9,0.0,0.0
537,72.0,5,14,0.0,0.0
538,58.0,14,18,0.0,0.0
539,79.0,6,16,0.0,0.0
540,84.0,6,54,0.0,0.0
541,67.0,4,10,0.0,0.0
542,82.0,36,12,0.0,0.0
543,53.0,9,34,0.0,0.0
544,72.0,4,20,0.0,0.0
545,56.0,2,32,0.0,0.0
546,80.0,9,21,0.0,0.0
547,84.0,5,10,0.0,0.0
548,60.0,27,11,0.0,0.0
549,92.0,4,15,0.0,0.0
550,68.0,52,16,0.0,0.0
551,55.0,20,35,0.0,0.0
552,58.0,7,80,0.0,0.0
553,82.0,4,12,0.0,0.0
554,87.0,3,39,0.0,0.0
555,63.0,1,32,0.0,0.0
556,91.0,14,16,0.0,0.0
557,70.0,21,20,0.0,0.0
558,75.0,4,11,0.0,0.0
559,56.0,11,13,0.0,0.0
560,84.0,1,12,0.0,0.0
561,87.0,18,47,0.0,0.0
562,63.0,18,11,0.0,0.0
563,89.0,10,22,0.0,0.0
564,72.0,8,8,0.0,0.0
565,75.0,5,10,0.0,0.0
566,56.0,20,11,0.0,0.0
567,87.0,39,40,0.0,0.0
568,65.0,7,12,0.0,0.0
569,83.0,4,19,0.0,0.0
570,89.0,4,21,0.0,0.0
571,71.0,8,13,0.0,0.0
572,58.0,12,47,0.0,0.0
573,74.0,15,12,0.0,0.0
574,65.0,2,41,0.0,0.0
575,82.0,6,30,0.0,0.0
576,70.0,23,27,0.0,0.0
577,89.0,1,20,0.0,0.0
578,74.0,15,10,0.0,0.0
579,58.0,5,141,0.0,0.0
580,80.0,25,9,0.0,0.0
581,91.0,24,8,0.0,0.0
582,68.0,46,30,0.0,0.0
583,75.0,11,69,0.0,0.0
584,63.0,24,19,0.0,0.0
585,79.0,4,59,0.0,0.0
586,67.0,12,17,0.0,0.0
587,87.0,60,34,0.0,0.0
588,51.0,6,54,0.0,0.0
589,58.0,7,42,0.0,0.0
590,75.0,6,31,0.0,0.0
591,78.0,0,32,0.0,0.0
592,66.0,4,14,0.0,0.0
593,87.0,57,10,0.0,0.0
594,51.0,5,66,0.0,0.0
595,71.0,10,20,0.0,0.0
596,59.0,4,48,0.0,0.0
597,78.0,14,7,0.0,0.0
598,66.0,5,12,0.0,0.0
599,87.0,65,8,0.0,0.0
600,52.0,58,66,0.0,0.0
601,61.0,12,24,0.0,0.0
602,76.0,1,9,0.0,0.0
603,64.0,7,13,0.0,0.0
604,85.0,11,8,0.0,0.0
605,54.0,5,59,0.0,0.0
606,66.0,4,31,0.0,0.0
607,59.0,6,39,0.0,0.0
608,75.0,16,29,0.0,0.0
609,63.0,21,43,0.0,0.0
610,78.0,0,70,0.0,0.0
611,54.0,13,75,0.0,0.0
612,66.0,19,18,0.0,0.0
613,61.0,15,20,0.0,0.0
614,73.0,12,46,0.0,0.0
615,64.0,9,12,0.0,0.0
616,82.0,39,22,0.0,0.0
617,66.0,28,14,0.0,0.0
618,47.0,42,41,0.0,0.0
619,75.0,2,50,0.0,0.0
620,54.0,14,49,0.0,0.0
621,83.0,65,21,0.0,0.0
622,63.0,1,12,0.0,0.0
623,47.0,31,12,0.0,0.0
624,66.0,6,36,0.0,0.0
625,75.0,5,16,0.0,0.0
626,54.0,17,18,0.0,0.0
627,63.0,35,12,0.0,0.0
628,78.0,14,45,0.0,0.0
629,47.0,8,10,0.0,0.0
630,65.0,24,12,0.0,0.0
631,54.0,20,17,0.0,0.0
632,75.0,37,34,0.0,0.0
633,77.0,9,51,0.0,0.0
634,63.0,1,10,0.0,0.0
635,66.0,16,20,0.0,0.0
636,47.0,3,9,0.0,0.0
637,75.0,15,17,0.0,0.0
638,54.0,2,16,0.0,0.0
639,78.0,12,98,0.0,0.0
640,63.0,80,7,0.0,0.0
641,66.0,20,75,0.0,0.0
642,45.0,1,30,0.0,0.0
643,75.0,15,180,0.0,0.0
644,54.0,41,32,0.0,0.0
645,80.0,37,31,0.0,0.0
646,63.0,5,24,0.0,0.0
647,66.0,4,16,0.0,0.0
648,45.0,28,13,0.0,0.0
649,73.0,36,66,0.0,0.0
650,54.0,4,14,0.0,0.0
651,61.0,22,20,0.0,0.0
652,81.0,7,11,0.0,0.0
653,44.0,20,44,0.0,0.0
654,66.0,12,27,0.0,0.0
655,54.0,20,61,0.0,0.0
656,72.0,24,31,0.0,0.0
657,81.0,5,40,0.0,0.0
658,60.0,41,35,0.0,0.0
659,44.0,6,9,0.0,0.0
660,66.0,18,14,0.0,0.0
661,72.0,10,14,0.0,0.0
662,54.0,6,22,0.0,0.0
663,80.0,21,30,0.0,0.0
664,60.0,15,10,0.0,0.0
665,44.0,3,8,0.0,0.0
666,66.0,29,10,0.0,0.0
667,72.0,2,26,0.0,0.0
668,54.0,4,16,0.0,0.0
669,79.0,18,30,0.0,0.0
670,60.0,16,8,0.0,0.0
671,66.0,2,10,0.0,0.0
672,44.0,12,9,0.0,0.0
673,72.0,14,9,0.0,0.0
674,54.0,14,16,0.0,0.0
675,80.0,5,58,0.0,0.0
676,60.0,25,12,0.0,0.0
677,48.0,8,23,0.0,0.0
678,68.0,6,10,0.0,0.0
679,56.0,0,11,0.0,0.0
680,78.0,27,9,0.0,0.0
681,85.0,26,17,0.0,0.0
682,66.0,1,13,0.0,0.0
683,68.0,10,9,0.0,0.0
684,48.0,12,11,0.0,0.0
685,56.0,3,10,0.0,0.0
686,78.0,18,10,0.0,0.0
687,87.0,6,6,0.0,0.0
688,66.0,40,10,0.0,0.0
689,68.0,14,15,0.0,0.0
690,49.0,10,92,0.0,0.0
691,76.0,70,8,0.0,0.0
692,56.0,34,80,0.0,0.0
693,88.0,2,34,0.0,0.0
694,64.0,0,32,0.0,0.0
695,49.0,20,22,0.0,0.0
696,68.0,2,30,0.0,0.0
697,56.0,10,14,0.0,0.0
698,76.0,8,14,0.0,0.0
699,64.0,32,10,0.0,0.0
700,80.0,14,34,0.0,0.0
701,49.0,14,12,0.0,0.0
702,67.0,2,12,0.0,0.0
703,56.0,16,12,0.0,0.0
704,76.0,0,12,0.0,0.0
705,64.0,46,8,0.0,0.0
706,79.0,10,44,0.0,0.0
707,49.0,2,16,0.0,0.0
708,68.0,14,18,0.0,0.0
709,56.0,2,10,0.0,0.0
710,76.0,6,16,0.0,0.0
711,64.0,46,8,0.0,0.0
712,80.0,8,64,0.0,0.0
713,68.0,6,30,0.0,0.0
714,47.0,6,16,0.0,0.0
715,56.0,52,16,0.0,0.0
716,76.0,37,117,0.0,0.0
717,82.0,1,40,0.0,0.0
718,64.0,37,27,0.0,0.0
719,68.0,15,14,0.0,0.0
720,75.0,45,84,0.0,0.0
721,56.0,10,28,0.0,0.0
722,83.0,14,22,0.0,0.0
723,63.0,22,22,0.0,0.0
724,68.0,5,47,0.0,0.0
725,46.0,25,40,0.0,0.0
726,74.0,5,47,0.0,0.0
727,56.0,22,50,0.0,0.0
728,83.0,46,36,0.0,0.0
729,62.0,2,28,0.0,0.0
730,68.0,4,18,0.0,0.0
731,46.0,16,16,0.0,0.0
732,74.0,22,18,0.0,0.0
733,56.0,14,48,0.0,0.0
734,82.0,10,30,0.0,0.0
735,62.0,6,10,0.0,0.0
736,68.0,12,13,0.0,0.0
737,46.0,14,16,0.0,0.0
738,74.0,24,22,0.0,0.0
739,81.0,2,32,0.0,0.0
740,56.0,16,32,0.0,0.0
741,62.0,2,15,0.0,0.0
742,68.0,4,16,0.0,0.0
743,46.0,12,12,0.0,0.0
744,74.0,34,10,0.0,0.0
745,82.0,8,60,0.0,0.0
746,62.0,18,12,0.0,0.0
747,70.0,12,12,0.0,0.0
748,50.0,0,23,0.0,0.0
749,80.0,16,18,0.0,0.0
750,58.0,4,10,0.0,0.0
751,87.0,18,6,0.0,0.0
752,68.0,18,10,0.0,0.0
753,70.0,18,8,0.0,0.0
754,50.0,2,8,0.0,0.0
755,80.0,14,8,0.0,0.0
756,58.0,8,10,0.0,0.0
757,89.0,18,6,0.0,0.0
758,68.0,20,10,0.0,0.0
759,70.0,27,10,0.0,0.0
760,51.0,6,74,0.0,0.0
761,78.0,53,11,0.0,0.0
762,58.0,2,60,0.0,0.0
763,90.0,26,38,0.0,0.0
764,66.0,4,28,0.0,0.0
765,51.0,16,16,0.0,0.0
766,70.0,24,14,0.0,0.0
767,58.0,4,34,0.0,0.0
768,78.0,28,32,0.0,0.0
769,66.0,6,12,0.0,0.0
770,82.0,10,40,0.0,0.0
771,51.0,12,14,0.0,0.0
772,70.0,16,18,0.0,0.0
773,58.0,10,26,0.0,0.0
774,78.0,34,28,0.0,0.0
775,66.0,4,14,0.0,0.0
776,81.0,28,49,0.0,0.0
777,51.0,1,14,0.0,0.0
778,70.0,1,13,0.0,0.0
779,58.0,36,35,0.0,0.0
780,78.0,6,28,0.0,0.0
781,82.0,4,54,0.0,0.0
782,66.0,2,9,0.0,0.0
783,70.0,2,30,0.0,0.0
784,49.0,16,26,0.0,0.0
785,76.0,8,26,0.0,0.0
786,58.0,24,40,0.0,0.0
787,83.0,2,56,0.0,0.0
788,64.0,8,14,0.0,0.0
789,70.0,8,14,0.0,0.0
790,49.0,4,16,0.0,0.0
791,76.0,16,8,0.0,0.0
792,58.0,12,18,0.0,0.0
793,85.0,40,20,0.0,0.0
794,64.0,6,8,0.0,0.0
795,47.0,7,26,0.0,0.0
796,66.0,8,18,0.0,0.0
797,75.0,33,11,0.0,0.0
798,54.0,8,46,0.0,0.0
799,87.0,4,10,0.0,0.0
800,63.0,34,18,0.0,0.0
801,47.0,20,10,0.0,0.0
802,66.0,9,22,0.0,0.0
803,54.0,17,15,0.0,0.0
804,75.0,24,26,0.0,0.0
805,78.0,6,38,0.0,0.0
806,63.0,2,11,0.0,0.0
807,47.0,10,8,0.0,0.0
808,65.0,18,14,0.0,0.0
809,75.0,28,36,0.0,0.0
810,54.0,14,16,0.0,0.0
811,77.0,10,46,0.0,0.0
812,63.0,2,8,0.0,0.0
813,66.0,18,26,0.0,0.0
814,47.0,6,8,0.0,0.0
815,75.0,6,26,0.0,0.0
816,54.0,8,16,0.0,0.0
817,78.0,30,61,0.0,0.0
818,63.0,30,10,0.0,0.0
819,66.0,2,28,0.0,0.0
820,46.0,6,10,0.0,0.0
821,75.0,8,86,0.0,0.0
822,54.0,6,35,0.0,0.0
823,80.0,22,30,0.0,0.0
824,63.0,4,12,0.0,0.0
825,66.0,10,14,0.0,0.0
826,46.0,6,14,0.0,0.0
827,73.0,2,8,0.0,0.0
828,54.0,10,14,0.0,0.0
829,82.0,12,8,0.0,0.0
830,61.0,42,14,0.0,0.0
831,63.0,12,14,0.0,0.0
832,44.0,4,84,0.0,0.0
833,71.0,56,7,0.0,0.0
834,51.0,32,58,0.0,0.0
835,59.0,2,28,0.0,0.0
836,83.0,4,22,0.0,0.0
837,44.0,22,20,0.0,0.0
838,63.0,8,24,0.0,0.0
839,51.0,14,38,0.0,0.0
840,71.0,6,12,0.0,0.0
841,59.0,10,8,0.0,0.0
842,75.0,24,28,0.0,0.0
843,44.0,17,14,0.0,0.0
844,62.0,2,12,0.0,0.0
845,50.0,11,15,0.0,0.0
846,71.0,40,21,0.0,0.0
847,74.0,9,44,0.0,0.0
848,63.0,6,30,0.0,0.0
849,44.0,13,17,0.0,0.0
850,51.0,4,51,0.0,0.0
851,71.0,15,16,0.0,0.0
852,75.0,16,35,0.0,0.0
853,59.0,17,13,0.0,0.0
854,64.0,7,13,0.0,0.0
855,44.0,11,19,0.0,0.0
856,52.0,6,62,0.0,0.0
857,71.0,16,11,0.0,0.0
858,76.0,30,19,0.0,0.0
859,59.0,3,11,0.0,0.0
860,63.0,14,25,0.0,0.0
861,44.0,6,12,0.0,0.0
862,71.0,13,19,0.0,0.0
863,51.0,4,39,0.0,0.0
864,75.0,19,37,0.0,0.0
865,59.0,13,9,0.0,0.0
866,44.0,13,23,0.0,0.0
867,64.0,7,11,0.0,0.0
868,71.0,15,20,0.0,0.0
869,52.0,18,42,0.0,0.0
870,76.0,17,51,0.0,0.0
871,59.0,14,13,0.0,0.0
872,65.0,2,31,0.0,0.0
873,44.0,12,30,0.0,0.0
874,71.0,6,30,0.0,0.0
875,53.0,29,35,0.0,0.0
876,77.0,12,20,0.0,0.0
877,59.0,4,11,0.0,0.0
878,44.0,0,23,0.0,0.0
879,64.0,15,20,0.0,0.0
880,71.0,4,26,0.0,0.0
881,52.0,12,37,0.0,0.0
882,76.0,16,43,0.0,0.0
883,59.0,18,8,0.0,0.0
884,65.0,14,26,0.0,0.0
885,44.0,4,20,0.0,0.0
886,71.0,12,28,0.0,0.0
887,53.0,21,38,0.0,0.0
888,77.0,19,47,0.0,0.0
889,59.0,6,16,0.0,0.0
890,45.0,12,28,0.0,0.0
891,66.0,8,40,0.0,0.0
892,71.0,14,32,0.0,0.0
893,54.0,16,54,0.0,0.0
894,78.0,12,32,0.0,0.0
895,59.0,6,16,0.0,0.0
896,45.0,16,10,0.0,0.0
897,63.0,5,20,0.0,0.0
898,51.0,17,15,0.0,0.0
899,71.0,6,24,0.0,0.0
900,75.0,88,34,0.0,0.0
901,59.0,16,10,0.0,0.0
902,70.0,40,63,0.0,0.0
903,74.0,22,41,0.0,0.0
904,62.0,0,32,0.0,0.0
905,34.0,8,30,0.0,0.0
906,46.0,50,21,0.0,0.0
907,68.0,8,16,0.0,0.0
908,62.0,45,12,0.0,0.0
909,77.0,17,47,0.0,0.0
910,82.0,5,17,0.0,0.0
911,46.0,15,24,0.0,0.0
912,53.0,7,15,0.0,0.0
913,68.0,7,19,0.0,0.0
914,62.0,28,7,0.0,0.0
915,76.0,9,55,0.0,0.0
916,82.0,12,11,0.0,0.0
917,46.0,11,10,0.0,0.0
918,68.0,3,9,0.0,0.0
919,53.0,9,12,0.0,0.0
920,62.0,31,8,0.0,0.0
921,77.0,5,37,0.0,0.0
922,82.0,18,25,0.0,0.0
923,46.0,2,9,0.0,0.0
924,68.0,3,9,0.0,0.0
925,53.0,14,12,0.0,0.0
926,79.0,3,43,0.0,0.0
927,63.0,26,8,0.0,0.0
928,82.0,6,15,0.0,0.0
929,46.0,22,12,0.0,0.0
930,68.0,12,20,0.0,0.0
931,53.0,4,14,0.0,0.0
932,74.0,0,87,0.0,0.0
933,65.0,22,7,0.0,0.0
934,82.0,42,14,0.0,0.0
935,46.0,9,40,0.0,0.0
936,67.0,9,24,0.0,0.0
937,75.0,10,88,0.0,0.0
938,55.0,38,14,0.0,0.0
939,82.0,22,28,0.0,0.0
940,63.0,12,14,0.0,0.0
941,46.0,25,23,0.0,0.0
942,69.0,7,16,0.0,0.0
943,75.0,2,28,0.0,0.0
944,54.0,28,15,0.0,0.0
945,84.0,2,22,0.0,0.0
946,63.0,42,14,0.0,0.0
947,46.0,20,12,0.0,0.0
948,75.0,17,14,0.0,0.0
949,54.0,3,29,0.0,0.0
950,83.0,29,20,0.0,0.0
951,63.0,4,9,0.0,0.0
952,69.0,7,15,0.0,0.0
953,46.0,14,13,0.0,0.0
954,75.0,12,12,0.0,0.0
955,54.0,6,21,0.0,0.0
956,84.0,3,8,0.0,0.0
957,63.0,25,13,0.0,0.0
958,69.0,12,10,0.0,0.0
959,46.0,5,14,0.0,0.0
960,75.0,31,11,0.0,0.0
961,53.0,34,53,0.0,0.0
962,86.0,15,20,0.0,0.0
963,63.0,4,13,0.0,0.0
964,46.0,10,15,0.0,0.0
965,75.0,13,10,0.0,0.0
966,53.0,29,15,0.0,0.0
967,84.0,1,54,0.0,0.0
968,63.0,27,12,0.0,0.0
969,74.0,70,11,0.0,0.0
970,82.0,5,52,0.0,0.0
971,34.0,11,35,0.0,0.0
972,89.0,63,19,0.0,0.0
973,46.0,12,34,0.0,0.0
974,53.0,26,11,0.0,0.0
975,68.0,35,23,0.0,0.0
976,62.0,5,12,0.0,0.0
977,77.0,2,78,0.0,0.0
978,82.0,23,12,0.0,0.0
979,46.0,14,27,0.0,0.0
980,68.0,7,15,0.0,0.0
981,61.0,32,10,0.0,0.0
982,76.0,36,74,0.0,0.0
983,82.0,25,18,0.0,0.0
984,46.0,2,10,0.0,0.0
985,53.0,3,15,0.0,0.0
986,68.0,6,12,0.0,0.0
987,62.0,2,10,0.0,0.0
988,77.0,10,40,0.0,0.0
989,82.0,17,26,0.0,0.0
990,46.0,3,35,0.0,0.0
991,68.0,20,14,0.0,0.0
992,53.0,16,32,0.0,0.0
993,79.0,13,39,0.0,0.0
994,63.0,5,10,0.0,0.0
995,82.0,25,24,0.0,0.0
996,68.0,5,15,0.0,0.0
997,46.0,14,16,0.0,0.0
998,80.0,26,70,0.0,0.0
999,53.0,6,12,0.0,0.0
1000,82.0,26,12,0.0,0.0
1001,68.0,1,14,0.0,0.0
1002,65.0,11,11,0.0,0.0
1003,74.0,15,40,0.0,0.0
1004,82.0,12,14,0.0,0.0
1005,46.0,24,44,0.0,0.0
1006,67.0,27,13,0.0,0.0
1007,75.0,42,60,0.0,0.0
1008,55.0,22,24,0.0,0.0
1009,82.0,2,20,0.0,0.0
1010,63.0,2,12,0.0,0.0
1011,69.0,21,20,0.0,0.0
1012,46.0,21,27,0.0,0.0
1013,75.0,1,36,0.0,0.0
1014,54.0,15,17,0.0,0.0
1015,84.0,3,13,0.0,0.0
1016,63.0,43,10,0.0,0.0
1017,69.0,16,23,0.0,0.0
1018,46.0,5,12,0.0,0.0
1019,75.0,13,17,0.0,0.0
1020,54.0,5,25,0.0,0.0
1021,83.0,30,22,0.0,0.0
1022,63.0,4,8,0.0,0.0
1023,69.0,4,16,0.0,0.0
1024,46.0,8,12,0.0,0.0
1025,75.0,15,11,0.0,0.0
1026,54.0,29,36,0.0,0.0
1027,84.0,9,5,0.0,0.0
1028,63.0,6,11,0.0,0.0
1029,69.0,11,16,0.0,0.0
1030,46.0,1,15,0.0,0.0
1031,75.0,21,10,0.0,0.0
1032,53.0,6,22,0.0,0.0
1033,86.0,7,11,0.0,0.0
1034,63.0,37,10,0.0,0.0
1035,69.0,14,10,0.0,0.0
1036,46.0,4,14,0.0,0.0
1037,75.0,13,9,0.0,0.0
1038,53.0,22,13,0.0,0.0
1039,84.0,16,34,0.0,0.0
1040,63.0,14,10,0.0,0.0
1041,74.0,76,10,0.0,0.0
1042,82.0,6,55,0.0,0.0
1043,34.0,14,33,0.0,0.0
1044,89.0,64,19,0.0,0.0
1045,46.0,9,34,0.0,0.0
1046,53.0,27,13,0.0,0.0
1047,68.0,9,14,0.0,0.0
1048,62.0,44,11,0.0,0.0
1049,77.0,6,34,0.0,0.0
1050,82.0,15,19,0.0,0.0
1051,46.0,6,28,0.0,0.0
1052,53.0,14,12,0.0,0.0
1053,68.0,11,11,0.0,0.0
1054,61.0,30,13,0.0,0.0
1055,76.0,0,36,0.0,0.0
1056,82.0,6,15,0.0,0.0
1057,46.0,22,12,0.0,0.0
1058,53.0,6,12,0.0,0.0
1059,68.0,3,11,0.0,0.0
1060,62.0,38,8,0.0,0.0
1061,77.0,6,34,0.0,0.0
1062,82.0,21,30,0.0,0.0
1063,46.0,2,12,0.0,0.0
1064,53.0,15,19,0.0,0.0
1065,68.0,1,15,0.0,0.0
1066,79.0,5,43,0.0,0.0
1067,63.0,19,12,0.0,0.0
1068,82.0,12,13,0.0,0.0
1069,46.0,13,11,0.0,0.0
1070,68.0,15,13,0.0,0.0
1071,53.0,5,36,0.0,0.0
1072,77.0,14,32,0.0,0.0
1073,62.0,18,8,0.0,0.0
1074,82.0,21,27,0.0,0.0
1075,46.0,11,33,0.0,0.0
1076,69.0,25,26,0.0,0.0
1077,54.0,6,56,0.0,0.0
1078,78.0,6,46,0.0,0.0
1079,63.0,11,14,0.0,0.0
1080,83.0,15,30,0.0,0.0
1081,46.0,16,12,0.0,0.0
1082,69.0,27,13,0.0,0.0
1083,54.0,10,45,0.0,0.0
1084,78.0,4,53,0.0,0.0
1085,63.0,9,12,0.0,0.0
1086,83.0,14,22,0.0,0.0
1087,46.0,14,12,0.0,0.0
1088,69.0,10,20,0.0,0.0
1089,54.0,14,34,0.0,0.0
1090,62.0,12,10,0.0,0.0
1091,77.0,4,76,0.0,0.0
1092,83.0,11,18,0.0,0.0
1093,46.0,22,11,0.0,0.0
1094,69.0,7,19,0.0,0.0
1095,54.0,20,28,0.0,0.0
1096,78.0,4,66,0.0,0.0
1097,63.0,2,8,0.0,0.0
1098,83.0,10,22,0.0,0.0
1099,46.0,15,13,0.0,0.0
1100,69.0,28,24,0.0,0.0
1101,54.0,5,8,0.0,0.0
1102,80.0,8,71,0.0,0.0
1103,65.0,14,18,0.0,0.0
1104,83.0,17,24,0.0,0.0
1105,46.0,9,5,0.0,0.0
1106,69.0,24,18,0.0,0.0
1107,54.0,1,30,0.0,0.0
1108,78.0,34,30,0.0,0.0
1109,63.0,9,12,0.0,0.0
1110,83.0,2,49,0.0,0.0
1111,46.0,2,23,0.0,0.0
1112,70.0,5,22,0.0,0.0
1113,55.0,19,9,0.0,0.0
1114,79.0,9,33,0.0,0.0
1115,64.0,9,9,0.0,0.0
1116,84.0,23,24,0.0,0.0
1117,46.0,7,11,0.0,0.0
1118,70.0,12,11,0.0,0.0
1119,55.0,12,11,0.0,0.0
1120,79.0,5,31,0.0,0.0
1121,64.0,17,8,0.0,0.0
1122,84.0,16,22,0.0,0.0
1123,46.0,12,10,0.0,0.0
1124,70.0,19,16,0.0,0.0
1125,55.0,6,33,0.0,0.0
1126,78.0,6,30,0.0,0.0
1127,63.0,9,12,0.0,0.0
1128,84.0,14,20,0.0,0.0
1129,46.0,18,13,0.0,0.0
1130,70.0,9,18,0.0,0.0
1131,79.0,28,68,0.0,0.0
1132,55.0,12,19,0.0,0.0
1133,64.0,12,7,0.0,0.0
1134,84.0,24,19,0.0,0.0
1135,46.0,5,23,0.0,0.0
1136,70.0,2,21,0.0,0.0
1137,55.0,4,8,0.0,0.0
1138,81.0,4,69,0.0,0.0
1139,65.0,12,14,0.0,0.0
1140,84.0,26,22,0.0,0.0
1141,46.0,2,12,0.0,0.0
1142,70.0,22,18,0.0,0.0
1143,79.0,9,29,0.0,0.0
1144,55.0,11,11,0.0,0.0
1145,84.0,45,23,0.0,0.0
1146,64.0,9,11,0.0,0.0
1147,46.0,13,25,0.0,0.0
1148,72.0,8,54,0.0,0.0
1149,77.0,0,34,0.0,0.0
1150,53.0,17,12,0.0,0.0
1151,81.0,4,28,0.0,0.0
1152,57.0,4,12,0.0,0.0
1153,84.0,0,56,0.0,0.0
1154,63.0,40,13,0.0,0.0
1155,74.0,12,22,0.0,0.0
1156,46.0,1,14,0.0,0.0
1157,80.0,6,12,0.0,0.0
1158,53.0,18,14,0.0,0.0
1159,89.0,4,15,0.0,0.0
1160,56.0,31,25,0.0,0.0
1161,62.0,6,11,0.0,0.0
1162,73.0,11,23,0.0,0.0
1163,46.0,14,26,0.0,0.0
1164,53.0,1,26,0.0,0.0
1165,80.0,5,26,0.0,0.0
1166,56.0,22,32,0.0,0.0
1167,88.0,8,22,0.0,0.0
1168,62.0,8,8,0.0,0.0
1169,74.0,2,16,0.0,0.0
1170,46.0,18,9,0.0,0.0
1171,80.0,14,20,0.0,0.0
1172,53.0,4,13,0.0,0.0
1173,89.0,6,16,0.0,0.0
1174,56.0,1,21,0.0,0.0
1175,62.0,45,15,0.0,0.0
1176,74.0,18,22,0.0,0.0
1177,46.0,12,34,0.0,0.0
1178,53.0,21,27,0.0,0.0
1179,84.0,1,25,0.0,0.0
1180,56.0,18,17,0.0,0.0
1181,92.0,60,17,0.0,0.0
1182,74.0,12,12,0.0,0.0
1183,46.0,4,18,0.0,0.0
1184,82.0,30,10,0.0,0.0
1185,91.0,20,6,0.0,0.0
1186,56.0,26,16,0.0,0.0
1187,62.0,86,13,0.0,0.0
1188,70.0,13,81,0.0,0.0
1189,79.0,17,53,0.0,0.0
1190,39.0,59,49,0.0,0.0
1191,87.0,52,45,0.0,0.0
1192,51.0,18,43,0.0,0.0
1193,58.0,37,21,0.0,0.0
1194,70.0,23,41,0.0,0.0
1195,79.0,48,36,0.0,0.0
1196,67.0,12,18,0.0,0.0
1197,82.0,2,50,0.0,0.0
1198,51.0,10,18,0.0,0.0
1199,70.0,10,14,0.0,0.0
1200,58.0,16,12,0.0,0.0
1201,79.0,8,14,0.0,0.0
1202,67.0,26,12,0.0,0.0
1203,81.0,22,26,0.0,0.0
1204,51.0,3,14,0.0,0.0
1205,70.0,1,15,0.0,0.0
1206,58.0,26,12,0.0,0.0
1207,79.0,8,12,0.0,0.0
1208,82.0,6,10,0.0,0.0
1209,67.0,42,12,0.0,0.0
1210,70.0,10,12,0.0,0.0
1211,51.0,26,18,0.0,0.0
1212,79.0,14,28,0.0,0.0
1213,58.0,8,14,0.0,0.0
1214,86.0,10,16,0.0,0.0
1215,67.0,40,10,0.0,0.0
1216,84.0,23,32,0.0,0.0
1217,51.0,17,17,0.0,0.0
1218,58.0,12,12,0.0,0.0
1219,70.0,12,14,0.0,0.0
1220,67.0,2,14,0.0,0.0
1221,79.0,52,10,0.0,0.0
1222,82.0,6,62,0.0,0.0
1223,50.0,14,18,0.0,0.0
1224,70.0,0,12,0.0,0.0
1225,58.0,4,14,0.0,0.0
1226,80.0,32,12,0.0,0.0
1227,68.0,16,14,0.0,0.0
1228,89.0,44,12,0.0,0.0
1229,50.0,20,14,0.0,0.0
1230,70.0,27,16,0.0,0.0
1231,58.0,2,12,0.0,0.0
1232,80.0,3,21,0.0,0.0
1233,68.0,34,12,0.0,0.0
1234,82.0,6,38,0.0,0.0
1235,50.0,12,12,0.0,0.0
1236,70.0,11,17,0.0,0.0
1237,58.0,22,11,0.0,0.0
1238,80.0,26,32,0.0,0.0
1239,81.0,8,40,0.0,0.0
1240,68.0,3,10,0.0,0.0
1241,50.0,8,10,0.0,0.0
1242,70.0,12,17,0.0,0.0
1243,58.0,13,12,0.0,0.0
1244,80.0,9,23,0.0,0.0
1245,82.0,2,46,0.0,0.0
1246,68.0,30,10,0.0,0.0
1247,70.0,28,16,0.0,0.0
1248,50.0,0,10,0.0,0.0
1249,80.0,12,38,0.0,0.0
1250,58.0,16,12,0.0,0.0
1251,86.0,14,42,0.0,0.0
1252,68.0,22,10,0.0,0.0
1253,84.0,16,26,0.0,0.0
1254,50.0,14,14,0.0,0.0
1255,58.0,30,12,0.0,0.0
1256,70.0,2,22,0.0,0.0
1257,68.0,9,12,0.0,0.0
1258,80.0,53,13,0.0,0.0
1259,82.0,2,57,0.0,0.0
1260,51.0,6,26,0.0,0.0
1261,70.0,14,22,0.0,0.0
1262,58.0,8,26,0.0,0.0
1263,79.0,14,18,0.0,0.0
1264,63.0,4,16,0.0,0.0
1265,82.0,8,12,0.0,0.0
1266,67.0,20,10,0.0,0.0
1267,91.0,68,6,0.0,0.0
1268,53.0,6,46,0.0,0.0
1269,58.0,2,52,0.0,0.0
1270,74.0,12,26,0.0,0.0
1271,62.0,22,38,0.0,0.0
1272,82.0,4,18,0.0,0.0
1273,86.0,8,12,0.0,0.0
1274,68.0,6,8,0.0,0.0
1275,70.0,16,10,0.0,0.0
1276,55.0,10,36,0.0,0.0
1277,75.0,18,10,0.0,0.0
1278,58.0,14,42,0.0,0.0
1279,82.0,24,44,0.0,0.0
1280,63.0,4,16,0.0,0.0
1281,67.0,4,8,0.0,0.0
1282,87.0,2,7,0.0,0.0
1283,43.0,14,14,0.0,0.0
1284,71.0,4,8,0.0,0.0
1285,75.0,8,10,0.0,0.0
1286,51.0,12,12,0.0,0.0
1287,86.0,52,16,0.0,0.0
1288,59.0,8,8,0.0,0.0
1289,44.0,6,36,0.0,0.0
1290,72.0,2,20,0.0,0.0
1291,51.0,2,32,0.0,0.0
1292,75.0,16,12,0.0,0.0
1293,84.0,12,24,0.0,0.0
1294,60.0,12,8,0.0,0.0
1295,72.0,8,11,0.0,0.0
1296,45.0,4,12,0.0,0.0
1297,77.0,16,6,0.0,0.0
1298,53.0,10,12,0.0,0.0
1299,89.0,12,6,0.0,0.0
1300,63.0,36,8,0.0,0.0
1301,70.0,12,14,0.0,0.0
1302,46.0,22,24,0.0,0.0
1303,55.0,4,50,0.0,0.0
1304,79.0,6,27,0.0,0.0
1305,63.0,16,8,0.0,0.0
1306,87.0,2,27,0.0,0.0
1307,79.0,24,13,0.0,0.0
1308,46.0,12,26,0.0,0.0
1309,72.0,6,16,0.0,0.0
1310,54.0,1,47,0.0,0.0
1311,78.0,22,17,0.0,0.0
1312,57.0,8,30,0.0,0.0
1313,81.0,16,37,0.0,0.0
1314,87.0,4,16,0.0,0.0
1315,63.0,1,10,0.0,0.0
1316,70.0,5,8,0.0,0.0
1317,46.0,13,9,0.0,0.0
1318,53.0,16,20,0.0,0.0
1319,77.0,6,10,0.0,0.0
1320,82.0,23,36,0.0,0.0
1321,86.0,4,10,0.0,0.0
1322,62.0,4,12,0.0,0.0
1323,58.0,12,14,0.0,0.0
1324,48.0,2,22,0.0,0.0
1325,70.0,9,11,0.0,0.0
1326,55.0,6,34,0.0,0.0
1327,76.0,20,10,0.0,0.0
1328,79.0,18,38,0.0,0.0
1329,85.0,8,22,0.0,0.0
1330,58.0,2,29,0.0,0.0
1331,64.0,4,8,0.0,0.0
1332,48.0,1,8,0.0,0.0
1333,68.0,25,8,0.0,0.0
1334,56.0,18,52,0.0,0.0
1335,77.0,6,12,0.0,0.0
1336,80.0,14,14,0.0,0.0
1337,84.0,2,58,0.0,0.0
1338,65.0,18,10,0.0,0.0
1339,72.0,4,22,0.0,0.0
1340,48.0,16,10,0.0,0.0
1341,79.0,1,25,0.0,0.0
1342,55.0,25,11,0.0,0.0
1343,82.0,48,91,0.0,0.0
1344,88.0,20,16,0.0,0.0
1345,67.0,12,12,0.0,0.0
1346,72.0,26,10,0.0,0.0
1347,80.0,10,56,0.0,0.0
1348,41.0,8,38,0.0,0.0
1349,89.0,52,22,0.0,0.0
1350,53.0,7,24,0.0,0.0
1351,72.0,15,15,0.0,0.0
1352,60.0,22,16,0.0,0.0
1353,80.0,29,43,0.0,0.0
1354,84.0,0,27,0.0,0.0
1355,68.0,9,14,0.0,0.0
1356,53.0,1,16,0.0,0.0
1357,71.0,33,13,0.0,0.0
1358,80.0,1,28,0.0,0.0
1359,60.0,3,27,0.0,0.0
1360,83.0,6,42,0.0,0.0
1361,68.0,26,14,0.0,0.0
1362,72.0,6,12,0.0,0.0
1363,53.0,22,14,0.0,0.0
1364,80.0,7,24,0.0,0.0
1365,60.0,4,19,0.0,0.0
1366,84.0,30,18,0.0,0.0
1367,68.0,1,8,0.0,0.0
1368,73.0,3,13,0.0,0.0
1369,53.0,23,13,0.0,0.0
1370,80.0,3,83,0.0,0.0
1371,60.0,10,16,0.0,0.0
1372,87.0,14,48,0.0,0.0
1373,68.0,33,12,0.0,0.0
1374,85.0,36,38,0.0,0.0
1375,53.0,7,15,0.0,0.0
1376,60.0,3,25,0.0,0.0
1377,72.0,3,13,0.0,0.0
1378,68.0,18,10,0.0,0.0
1379,80.0,40,18,0.0,0.0
1380,84.0,14,51,0.0,0.0
1381,52.0,1,28,0.0,0.0
1382,72.0,6,14,0.0,0.0
1383,58.0,17,36,0.0,0.0
1384,79.0,7,14,0.0,0.0
1385,60.0,5,11,0.0,0.0
1386,82.0,3,8,0.0,0.0
1387,67.0,7,8,0.0,0.0
1388,91.0,40,7,0.0,0.0
1389,52.0,15,15,0.0,0.0
1390,72.0,12,19,0.0,0.0
1391,58.0,4,11,0.0,0.0
1392,60.0,14,22,0.0,0.0
1393,79.0,8,11,0.0,0.0
1394,82.0,4,28,0.0,0.0
1395,67.0,0,10,0.0,0.0
1396,84.0,18,24,0.0,0.0
1397,52.0,8,10,0.0,0.0
1398,71.0,10,10,0.0,0.0
1399,58.0,20,18,0.0,0.0
1400,79.0,4,28,0.0,0.0
1401,60.0,2,26,0.0,0.0
1402,82.0,22,26,0.0,0.0
1403,67.0,4,8,0.0,0.0
1404,83.0,7,38,0.0,0.0
1405,52.0,3,11,0.0,0.0
1406,72.0,15,10,0.0,0.0
1407,58.0,7,21,0.0,0.0
1408,79.0,6,12,0.0,0.0
1409,82.0,20,24,0.0,0.0
1410,60.0,4,16,0.0,0.0
1411,84.0,8,35,0.0,0.0
1412,67.0,4,8,0.0,0.0
1413,73.0,4,18,0.0,0.0
1414,52.0,14,7,0.0,0.0
1415,79.0,8,21,0.0,0.0
1416,58.0,14,26,0.0,0.0
1417,82.0,2,26,0.0,0.0
1418,60.0,18,28,0.0,0.0
1419,87.0,5,42,0.0,0.0
1420,67.0,8,11,0.0,0.0
1421,85.0,24,30,0.0,0.0
1422,52.0,3,11,0.0,0.0
1423,58.0,8,30,0.0,0.0
1424,72.0,2,14,0.0,0.0
1425,60.0,1,28,0.0,0.0
1426,79.0,12,22,0.0,0.0
1427,67.0,10,7,0.0,0.0
1428,82.0,24,21,0.0,0.0
1429,84.0,22,38,0.0,0.0
1430,53.0,0,32,0.0,0.0
1431,72.0,5,13,0.0,0.0
1432,56.0,2,33,0.0,0.0
1433,80.0,2,24,0.0,0.0
1434,84.0,3,10,0.0,0.0
1435,60.0,31,12,0.0,0.0
1436,68.0,4,19,0.0,0.0
1437,92.0,48,17,0.0,0.0
1438,55.0,27,38,0.0,0.0
1439,58.0,6,71,0.0,0.0
1440,82.0,1,13,0.0,0.0
1441,63.0,5,38,0.0,0.0
1442,87.0,12,36,0.0,0.0
1443,91.0,6,16,0.0,0.0
1444,70.0,1,19,0.0,0.0
1445,75.0,15,9,0.0,0.0
1446,56.0,3,24,0.0,0.0
1447,84.0,21,14,0.0,0.0
1448,63.0,3,11,0.0,0.0
1449,87.0,16,51,0.0,0.0
1450,89.0,17,23,0.0,0.0
1451,72.0,8,11,0.0,0.0
1452,75.0,12,22,0.0,0.0
1453,56.0,10,27,0.0,0.0
1454,83.0,3,27,0.0,0.0
1455,65.0,6,18,0.0,0.0
1456,87.0,1,22,0.0,0.0
1457,89.0,5,17,0.0,0.0
1458,71.0,36,15,0.0,0.0
1459,58.0,10,33,0.0,0.0
1460,74.0,10,23,0.0,0.0
1461,82.0,8,32,0.0,0.0
1462,65.0,8,23,0.0,0.0
1463,70.0,21,21,0.0,0.0
1464,89.0,9,41,0.0,0.0
1465,58.0,4,24,0.0,0.0
1466,77.0,16,22,0.0,0.0
1467,65.0,14,29,0.0,0.0
1468,86.0,22,96,0.0,0.0
1469,68.0,25,49,0.0,0.0
1470,74.0,23,7,0.0,0.0
1471,91.0,18,50,0.0,0.0
1472,58.0,2,39,0.0,0.0
1473,64.0,2,44,0.0,0.0
1474,76.0,26,20,0.0,0.0
1475,67.0,12,41,0.0,0.0
1476,86.0,38,72,0.0,0.0
1477,74.0,24,19,0.0,0.0
1478,91.0,11,28,0.0,0.0
1479,58.0,34,52,0.0,0.0
1480,76.0,9,21,0.0,0.0
1481,64.0,5,61,0.0,0.0
1482,85.0,24,73,0.0,0.0
1483,67.0,5,40,0.0,0.0
1484,91.0,20,26,0.0,0.0
1485,73.0,1,18,0.0,0.0
1486,57.0,29,23,0.0,0.0
1487,76.0,2,17,0.0,0.0
1488,64.0,15,30,0.0,0.0
1489,85.0,28,55,0.0,0.0
1490,67.0,1,23,0.0,0.0
1491,91.0,4,15,0.0,0.0
1492,73.0,14,10,0.0,0.0
1493,57.0,1,13,0.0,0.0
1494,75.0,10,12,0.0,0.0
1495,63.0,18,8,0.0,0.0
1496,85.0,11,41,0.0,0.0
1497,66.0,14,12,0.0,0.0
1498,90.0,18,28,0.0,0.0
1499,73.0,2,13,0.0,0.0
1500,57.0,9,10,0.0,0.0
1501,75.0,8,10,0.0,0.0
1502,63.0,29,12,0.0,0.0
1503,85.0,11,31,0.0,0.0
1504,66.0,2,26,0.0,0.0
1505,73.0,4,12,0.0,0.0
1506,90.0,23,26,0.0,0.0
1507,56.0,22,23,0.0,0.0
1508,75.0,7,8,0.0,0.0
1509,63.0,12,26,0.0,0.0
1510,84.0,0,32,0.0,0.0
1511,66.0,23,34,0.0,0.0
1512,72.0,8,14,0.0,0.0
1513,90.0,2,22,0.0,0.0
1514,75.0,1,11,0.0,0.0
1515,56.0,21,8,0.0,0.0
1516,63.0,14,20,0.0,0.0
1517,84.0,3,26,0.0,0.0
1518,66.0,27,27,0.0,0.0
1519,90.0,4,20,0.0,0.0
1520,72.0,5,9,0.0,0.0
1521,56.0,1,15,0.0,0.0
1522,74.0,20,8,0.0,0.0
1523,62.0,19,23,0.0,0.0
1524,65.0,5,35,0.0,0.0
1525,84.0,4,30,0.0,0.0
1526,72.0,5,13,0.0,0.0
1527,89.0,21,22,0.0,0.0
1528,56.0,6,12,0.0,0.0
1529,74.0,5,12,0.0,0.0
1530,62.0,23,13,0.0,0.0
1531,65.0,1,28,0.0,0.0
1532,84.0,32,28,0.0,0.0
1533,72.0,9,10,0.0,0.0
1534,89.0,1,10,0.0,0.0
1535,55.0,26,20,0.0,0.0
1536,74.0,3,13,0.0,0.0
1537,62.0,2,28,0.0,0.0
1538,83.0,6,22,0.0,0.0
1539,65.0,26,32,0.0,0.0
1540,71.0,4,7,0.0,0.0
1541,89.0,6,8,0.0,0.0
1542,55.0,10,12,0.0,0.0
1543,74.0,22,16,0.0,0.0
1544,62.0,5,28,0.0,0.0
1545,83.0,3,18,0.0,0.0
1546,65.0,2,18,0.0,0.0
1547,89.0,6,8,0.0,0.0
1548,71.0,34,10,0.0,0.0
1549,55.0,4,14,0.0,0.0
1550,73.0,23,12,0.0,0.0
1551,61.0,9,29,0.0,0.0
1552,83.0,4,24,0.0,0.0
1553,64.0,26,29,0.0,0.0
1554,71.0,4,11,0.0,0.0
1555,88.0,2,14,0.0,0.0
1556,73.0,2,10,0.0,0.0
1557,55.0,28,11,0.0,0.0
1558,61.0,8,24,0.0,0.0
1559,83.0,7,31,0.0,0.0
1560,64.0,25,27,0.0,0.0
1561,88.0,3,19,0.0,0.0
1562,71.0,3,7,0.0,0.0
1563,73.0,12,14,0.0,0.0
1564,54.0,21,25,0.0,0.0
1565,82.0,3,29,0.0,0.0
1566,61.0,6,30,0.0,0.0
1567,88.0,3,21,0.0,0.0
1568,64.0,20,22,0.0,0.0
1569,70.0,1,10,0.0,0.0
1570,73.0,8,10,0.0,0.0
1571,54.0,30,10,0.0,0.0
1572,82.0,4,36,0.0,0.0
1573,61.0,24,38,0.0,0.0
1574,88.0,6,8,0.0,0.0
1575,64.0,1,11,0.0,0.0
1576,70.0,1,13,0.0,0.0
1577,72.0,6,10,0.0,0.0
1578,54.0,26,12,0.0,0.0
1579,82.0,3,31,0.0,0.0
1580,60.0,8,20,0.0,0.0
1581,63.0,22,16,0.0,0.0
1582,87.0,1,12,0.0,0.0
1583,70.0,2,9,0.0,0.0
1584,72.0,10,8,0.0,0.0
1585,54.0,29,12,0.0,0.0
1586,60.0,7,27,0.0,0.0
1587,82.0,2,30,0.0,0.0
1588,63.0,1,15,0.0,0.0
1589,70.0,4,13,0.0,0.0
1590,87.0,38,14,0.0,0.0
1591,72.0,4,16,0.0,0.0
1592,53.0,21,22,0.0,0.0
1593,74.0,6,13,0.0,0.0
1594,81.0,3,29,0.0,0.0
1595,60.0,10,30,0.0,0.0
1596,63.0,9,37,0.0,0.0
1597,87.0,10,24,0.0,0.0
1598,69.0,2,9,0.0,0.0
1599,72.0,13,8,0.0,0.0
1600,53.0,22,10,0.0,0.0
1601,81.0,5,22,0.0,0.0
1602,60.0,3,23,0.0,0.0
1603,63.0,2,18,0.0,0.0
1604,87.0,2,10,0.0,0.0
1605,69.0,38,8,0.0,0.0
1606,69.0,14,11,0.0,0.0
1607,53.0,2,22,0.0,0.0
1608,75.0,12,10,0.0,0.0
1609,60.0,14,12,0.0,0.0
1610,65.0,1,10,0.0,0.0
1611,84.0,63,9,0.0,0.0
1612,46.0,2,36,0.0,0.0
1613,68.0,6,26,0.0,0.0
1614,53.0,14,40,0.0,0.0
1615,74.0,24,8,0.0,0.0
1616,56.0,44,44,0.0,0.0
1617,84.0,6,12,0.0,0.0
1618,62.0,2,8,0.0,0.0
1619,46.0,10,18,0.0,0.0
1620,68.0,8,24,0.0,0.0
1621,53.0,4,16,0.0,0.0
1622,74.0,20,12,0.0,0.0
1623,56.0,14,21,0.0,0.0
1624,82.0,24,28,0.0,0.0
1625,62.0,2,10,0.0,0.0
1626,68.0,12,24,0.0,0.0
1627,46.0,10,12,0.0,0.0
1628,74.0,6,14,0.0,0.0
1629,53.0,8,14,0.0,0.0
1630,80.0,0,98,0.0,0.0
1631,56.0,6,14,0.0,0.0
1632,62.0,38,12,0.0,0.0
1633,68.0,18,28,0.0,0.0
1634,46.0,4,12,0.0,0.0
1635,74.0,8,20,0.0,0.0
1636,53.0,8,12,0.0,0.0
1637,56.0,20,12,0.0,0.0
1638,77.0,60,60,0.0,0.0
1639,62.0,36,12,0.0,0.0
1640,39.0,32,48,0.0,0.0
1641,67.0,20,16,0.0,0.0
1642,75.0,24,60,0.0,0.0
1643,51.0,52,14,0.0,0.0
1644,58.0,0,348,0.0,0.0
1645,61.0,38,36,0.0,0.0
1646,67.0,10,10,0.0,0.0
1647,73.0,4,14,0.0,0.0
1648,82.0,22,91,0.0,0.0
1649,51.0,4,10,0.0,0.0
1650,87.0,32,14,0.0,0.0
1651,73.0,12,20,0.0,0.0
1652,61.0,0,16,0.0,0.0
1653,67.0,6,8,0.0,0.0
1654,81.0,20,46,0.0,0.0
1655,87.0,2,12,0.0,0.0
1656,51.0,10,10,0.0,0.0
1657,73.0,10,12,0.0,0.0
1658,67.0,0,10,0.0,0.0
1659,61.0,34,12,0.0,0.0
1660,82.0,10,100,0.0,0.0
1661,87.0,4,22,0.0,0.0
1662,51.0,19,16,0.0,0.0
1663,73.0,11,11,0.0,0.0
1664,67.0,4,12,0.0,0.0
1665,61.0,18,12,0.0,0.0
1666,84.0,16,62,0.0,0.0
1667,87.0,8,12,0.0,0.0
1668,51.0,16,14,0.0,0.0
1669,73.0,6,14,0.0,0.0
1670,61.0,2,16,0.0,0.0
1671,67.0,28,14,0.0,0.0
1672,79.0,14,60,0.0,0.0
1673,87.0,28,10,0.0,0.0
1674,51.0,2,38,0.0,0.0
1675,72.0,40,16,0.0,0.0
1676,60.0,10,55,0.0,0.0
1677,80.0,24,50,0.0,0.0
1678,68.0,6,14,0.0,0.0
1679,87.0,2,18,0.0,0.0
1680,74.0,14,12,0.0,0.0
1681,51.0,12,22,0.0,0.0
1682,80.0,22,14,0.0,0.0
1683,59.0,24,44,0.0,0.0
1684,68.0,8,10,0.0,0.0
1685,89.0,6,17,0.0,0.0
1686,51.0,4,12,0.0,0.0
1687,74.0,16,14,0.0,0.0
1688,80.0,20,12,0.0,0.0
1689,59.0,24,34,0.0,0.0
1690,88.0,2,18,0.0,0.0
1691,68.0,2,14,0.0,0.0
1692,51.0,2,12,0.0,0.0
1693,74.0,14,13,0.0,0.0
1694,80.0,21,10,0.0,0.0
1695,59.0,18,42,0.0,0.0
1696,68.0,7,13,0.0,0.0
1697,89.0,8,19,0.0,0.0
1698,74.0,12,14,0.0,0.0
1699,51.0,2,24,0.0,0.0
1700,80.0,24,8,0.0,0.0
1701,58.0,18,48,0.0,0.0
1702,91.0,10,8,0.0,0.0
1703,68.0,14,16,0.0,0.0
1704,74.0,10,12,0.0,0.0
1705,51.0,4,12,0.0,0.0
1706,80.0,36,8,0.0,0.0
1707,58.0,6,30,0.0,0.0
1708,89.0,6,43,0.0,0.0
1709,68.0,21,10,0.0,0.0
1710,79.0,0,17,0.0,0.0
1711,58.0,63,13,0.0,0.0
1712,87.0,16,48,0.0,0.0
1713,39.0,18,40,0.0,0.0
1714,94.0,44,30,0.0,0.0
1715,51.0,44,22,0.0,0.0
1716,58.0,34,311,0.0,0.0
1717,61.0,10,14,0.0,0.0
1718,67.0,8,12,0.0,0.0
1719,73.0,42,12,0.0,0.0
1720,82.0,7,69,0.0,0.0
1721,87.0,2,12,0.0,0.0
1722,51.0,29,12,0.0,0.0
1723,73.0,4,20,0.0,0.0
1724,61.0,26,20,0.0,0.0
1725,67.0,6,12,0.0,0.0
1726,81.0,14,50,0.0,0.0
1727,87.0,4,14,0.0,0.0
1728,51.0,8,10,0.0,0.0
1729,73.0,14,13,0.0,0.0
1730,67.0,6,12,0.0,0.0
1731,82.0,8,39,0.0,0.0
1732,61.0,14,12,0.0,0.0
1733,87.0,8,12,0.0,0.0
1734,51.0,16,12,0.0,0.0
1735,73.0,26,12,0.0,0.0
1736,84.0,8,22,0.0,0.0
1737,61.0,6,26,0.0,0.0
1738,67.0,2,12,0.0,0.0
1739,87.0,0,14,0.0,0.0
1740,51.0,0,14,0.0,0.0
1741,73.0,24,10,0.0,0.0
1742,58.0,2,55,0.0,0.0
1743,85.0,36,66,0.0,0.0
1744,87.0,14,10,0.0,0.0
1745,61.0,7,17,0.0,0.0
1746,67.0,1,10,0.0,0.0
1747,73.0,12,12,0.0,0.0
1748,79.0,16,42,0.0,0.0
1749,51.0,40,50,0.0,0.0
1750,72.0,16,14,0.0,0.0
1751,60.0,36,72,0.0,0.0
1752,80.0,12,92,0.0,0.0
1753,68.0,8,14,0.0,0.0
1754,87.0,4,12,0.0,0.0
1755,51.0,21,29,0.0,0.0
1756,74.0,5,22,0.0,0.0
1757,80.0,4,22,0.0,0.0
1758,59.0,16,22,0.0,0.0
1759,68.0,0,12,0.0,0.0
1760,89.0,38,9,0.0,0.0
1761,74.0,4,14,0.0,0.0
1762,51.0,22,14,0.0,0.0
1763,80.0,14,17,0.0,0.0
1764,59.0,22,38,0.0,0.0
1765,88.0,7,19,0.0,0.0
1766,68.0,7,11,0.0,0.0
1767,74.0,2,14,0.0,0.0
1768,51.0,13,12,0.0,0.0
1769,80.0,13,16,0.0,0.0
1770,59.0,19,47,0.0,0.0
1771,89.0,12,8,0.0,0.0
1772,68.0,11,14,0.0,0.0
1773,74.0,5,21,0.0,0.0
1774,51.0,3,11,0.0,0.0
1775,80.0,29,5,0.0,0.0
1776,58.0,31,43,0.0,0.0
1777,68.0,10,12,0.0,0.0
1778,91.0,2,9,0.0,0.0
1779,51.0,9,14,0.0,0.0
1780,74.0,3,10,0.0,0.0
1781,80.0,27,7,0.0,0.0
1782,58.0,25,39,0.0,0.0
1783,89.0,4,43,0.0,0.0
1784,68.0,8,10,0.0,0.0
1785,79.0,4,13,0.0,0.0
1786,51.0,28,11,0.0,0.0
1787,87.0,16,24,0.0,0.0
1788,58.0,15,37,0.0,0.0
1789,67.0,7,27,0.0,0.0
1790,94.0,22,33,0.0,0.0
1791,56.0,20,28,0.0,0.0
1792,80.0,4,13,0.0,0.0
1793,63.0,8,31,0.0,0.0
1794,87.0,2,22,0.0,0.0
1795,71.0,4,8,0.0,0.0
1796,95.0,28,18,0.0,0.0
1797,55.0,6,10,0.0,0.0
1798,79.0,26,14,0.0,0.0
1799,62.0,20,46,0.0,0.0
1800,86.0,4,27,0.0,0.0
1801,95.0,4,8,0.0,0.0
1802,65.0,8,18,0.0,0.0
1803,71.0,2,8,0.0,0.0
1804,79.0,10,14,0.0,0.0
1805,60.0,4,38,0.0,0.0
1806,88.0,16,6,0.0,0.0
1807,64.0,4,28,0.0,0.0
1808,70.0,2,8,0.0,0.0
1809,96.0,28,12,0.0,0.0
1810,53.0,6,10,0.0,0.0
1811,81.0,12,10,0.0,0.0
1812,87.0,8,8,0.0,0.0
1813,60.0,6,10,0.0,0.0
1814,63.0,10,14,0.0,0.0
1815,69.0,40,18,0.0,0.0
1816,96.0,4,8,0.0,0.0
1817,58.0,10,24,0.0,0.0
1818,82.0,10,30,0.0,0.0
1819,65.0,2,14,0.0,0.0
1820,86.0,20,50,0.0,0.0
1821,68.0,10,11,0.0,0.0
1822,94.0,12,22,0.0,0.0
1823,74.0,6,9,0.0,0.0
1824,63.0,30,56,0.0,0.0
1825,79.0,22,9,0.0,0.0
1826,67.0,5,29,0.0,0.0
1827,87.0,2,26,0.0,0.0
1828,75.0,3,8,0.0,0.0
1829,91.0,6,48,0.0,0.0
1830,80.0,9,16,0.0,0.0
1831,56.0,15,23,0.0,0.0
1832,87.0,4,27,0.0,0.0
1833,63.0,5,27,0.0,0.0
1834,95.0,0,17,0.0,0.0
1835,71.0,34,15,0.0,0.0
1836,79.0,16,22,0.0,0.0
1837,55.0,7,9,0.0,0.0
1838,86.0,8,21,0.0,0.0
1839,62.0,15,52,0.0,0.0
1840,65.0,9,28,0.0,0.0
1841,95.0,3,10,0.0,0.0
1842,71.0,11,6,0.0,0.0
1843,79.0,11,16,0.0,0.0
1844,60.0,3,45,0.0,0.0
1845,64.0,3,34,0.0,0.0
1846,88.0,22,6,0.0,0.0
1847,70.0,30,22,0.0,0.0
1848,96.0,1,16,0.0,0.0
1849,81.0,9,15,0.0,0.0
1850,53.0,3,10,0.0,0.0
1851,60.0,22,14,0.0,0.0
1852,87.0,6,7,0.0,0.0
1853,63.0,10,24,0.0,0.0
1854,69.0,30,28,0.0,0.0
1855,96.0,6,22,0.0,0.0
1856,58.0,3,30,0.0,0.0
1857,82.0,5,22,0.0,0.0
1858,65.0,19,14,0.0,0.0
1859,86.0,17,29,0.0,0.0
1860,68.0,0,17,0.0,0.0
1861,94.0,1,26,0.0,0.0
1862,74.0,80,21,0.0,0.0
1863,63.0,55,83,0.0,0.0
1864,67.0,8,52,0.0,0.0
1865,91.0,2,283,0.0,0.0
1866,79.0,10,286,0.0,0.0
1867,87.0,38,295,0.0,0.0
1868,75.0,5,18,0.0,0.0
1869,58.0,15,29,0.0,0.0
1870,67.0,8,13,0.0,0.0
1871,75.0,40,7,0.0,0.0
1872,57.0,32,10,0.0,0.0
1873,66.0,18,16,0.0,0.0
1874,75.0,44,10,0.0,0.0
1875,58.0,31,27,0.0,0.0
1876,67.0,2,34,0.0,0.0
1877,75.0,3,11,0.0,0.0
1878,59.0,22,32,0.0,0.0
1879,91.0,28,175,0.0,0.0
1880,80.0,2,167,0.0,0.0
1881,68.0,24,18,0.0,0.0
1882,75.0,51,9,0.0,0.0
1883,58.0,25,15,0.0,0.0
1884,68.0,24,11,0.0,0.0
1885,74.0,13,13,0.0,0.0
1886,89.0,36,37,0.0,0.0
1887,63.0,71,75,0.0,0.0
1888,87.0,6,243,0.0,0.0
1889,67.0,9,44,0.0,0.0
1890,79.0,3,159,0.0,0.0
1891,75.0,10,15,0.0,0.0
1892,46.0,39,12,0.0,0.0
1893,55.0,2,27,0.0,0.0
1894,63.0,33,11,0.0,0.0
1895,45.0,42,9,0.0,0.0
1896,54.0,2,34,0.0,0.0
1897,79.0,46,17,0.0,0.0
1898,63.0,4,8,0.0,0.0
1899,46.0,34,30,0.0,0.0
1900,55.0,6,28,0.0,0.0
1901,63.0,65,10,0.0,0.0
1902,79.0,28,214,0.0,0.0
1903,68.0,8,285,0.0,0.0
1904,47.0,26,31,0.0,0.0
1905,56.0,23,17,0.0,0.0
1906,63.0,90,10,0.0,0.0
1907,46.0,30,54,0.0,0.0
1908,56.0,12,42,0.0,0.0
1909,77.0,18,68,0.0,0.0
1910,62.0,26,16,0.0,0.0
1911,75.0,84,30,0.0,0.0
1912,75.0,10,152,0.0,0.0
1913,67.0,1,44,0.0,0.0
1914,39.0,65,43,0.0,0.0
1915,63.0,3,11,0.0,0.0
1916,43.0,17,10,0.0,0.0
1917,70.0,4,16,0.0,0.0
1918,51.0,13,13,0.0,0.0
1919,79.0,6,44,0.0,0.0
1920,58.0,32,11,0.0,0.0
1921,46.0,14,20,0.0,0.0
1922,67.0,5,10,0.0,0.0
1923,55.0,28,14,0.0,0.0
1924,75.0,5,9,0.0,0.0
1925,82.0,1,44,0.0,0.0
1926,63.0,21,18,0.0,0.0
1927,70.0,3,15,0.0,0.0
1928,51.0,15,13,0.0,0.0
1929,79.0,5,11,0.0,0.0
1930,58.0,16,13,0.0,0.0
1931,87.0,11,43,0.0,0.0
1932,67.0,23,10,0.0,0.0
1933,75.0,4,9,0.0,0.0
1934,82.0,4,7,0.0,0.0
1935,63.0,29,7,0.0,0.0
1936,91.0,12,24,0.0,0.0
1937,70.0,5,15,0.0,0.0
1938,79.0,12,10,0.0,0.0
1939,58.0,4,11,0.0,0.0
1940,87.0,36,8,0.0,0.0
1941,94.0,18,39,0.0,0.0
1942,75.0,14,15,0.0,0.0
1943,82.0,3,14,0.0,0.0
1944,63.0,1,18,0.0,0.0
1945,91.0,14,7,0.0,0.0
1946,70.0,31,12,0.0,0.0
1947,99.0,215,22,0.0,0.0
1948,79.0,7,10,0.0,0.0
1949,68.0,1,11,0.0,0.0
1950,82.0,2,25,0.0,0.0
1951,65.0,12,9,0.0,0.0
1952,74.0,1,8,0.0,0.0
1953,58.0,67,22,0.0,0.0
1954,94.0,71,85,0.0,0.0
1955,46.0,42,35,0.0,0.0
1956,51.0,8,24,0.0,0.0
1957,58.0,7,18,0.0,0.0
1958,87.0,79,28,0.0,0.0
1959,79.0,12,8,0.0,0.0
1960,67.0,4,8,0.0,0.0
1961,99.0,1,21,0.0,0.0
1962,39.0,436,14,0.0,0.0
