,note,step,duration,channel,velocity
0,69.0,0,720,0.0,0.0
1,50.0,240,240,0.0,0.0
2,73.0,0,240,0.0,0.0
3,74.0,240,240,0.0,0.0
4,66.0,240,0,0.0,0.0
5,76.0,0,240,0.0,0.0
6,78.0,120,240,0.0,0.0
7,66.0,0,480,0.0,0.0
8,57.0,240,0,0.0,0.0
9,62.0,0,0,0.0,0.0
10,50.0,0,0,0.0,0.0
11,79.0,60,120,0.0,0.0
12,78.0,60,60,0.0,0.0
13,79.0,0,60,0.0,0.0
14,78.0,240,480,0.0,0.0
15,45.0,240,240,0.0,0.0
16,76.0,240,240,0.0,0.0
17,52.0,0,480,0.0,0.0
18,61.0,0,480,0.0,0.0
19,57.0,0,480,0.0,0.0
20,74.0,0,240,0.0,0.0
21,73.0,240,240,0.0,0.0
22,67.0,240,0,0.0,0.0
23,52.0,240,480,0.0,0.0
24,57.0,0,480,0.0,0.0
25,61.0,0,480,0.0,0.0
26,71.0,0,240,0.0,0.0
27,69.0,240,240,0.0,0.0
28,38.0,0,240,0.0,0.0
29,74.0,160,0,0.0,0.0
30,66.0,0,480,0.0,0.0
31,57.0,0,480,0.0,0.0
32,62.0,0,480,0.0,0.0
33,76.0,160,160,0.0,0.0
34,74.0,0,160,0.0,0.0
35,66.0,0,480,0.0,0.0
36,73.0,240,240,0.0,0.0
37,50.0,240,0,0.0,0.0
38,57.0,0,480,0.0,0.0
39,62.0,0,480,0.0,0.0
40,71.0,240,240,0.0,0.0
41,73.0,240,1440,0.0,0.0
42,45.0,720,240,0.0,0.0
43,64.0,0,480,0.0,0.0
44,57.0,0,480,0.0,0.0
45,69.0,480,0,0.0,0.0
46,67.0,0,480,0.0,0.0
47,57.0,0,480,0.0,0.0
48,64.0,0,480,0.0,0.0
49,50.0,240,240,0.0,0.0
50,69.0,0,0,0.0,0.0
51,73.0,240,240,0.0,0.0
52,74.0,240,240,0.0,0.0
53,62.0,0,480,0.0,0.0
54,57.0,0,480,0.0,0.0
55,76.0,240,240,0.0,0.0
56,50.0,0,480,0.0,0.0
57,62.0,240,480,0.0,0.0
58,57.0,0,480,0.0,0.0
59,66.0,0,0,0.0,0.0
60,78.0,120,240,0.0,0.0
61,79.0,60,120,0.0,0.0
62,78.0,60,60,0.0,0.0
63,79.0,0,60,0.0,0.0
64,43.0,240,240,0.0,0.0
65,78.0,240,480,0.0,0.0
66,76.0,240,240,0.0,0.0
67,64.0,240,480,0.0,0.0
68,67.0,0,480,0.0,0.0
69,74.0,0,240,0.0,0.0
70,59.0,0,0,0.0,0.0
71,52.0,0,480,0.0,0.0
72,67.0,0,480,0.0,0.0
73,73.0,240,240,0.0,0.0
74,64.0,240,480,0.0,0.0
75,71.0,0,240,0.0,0.0
76,69.0,240,240,0.0,0.0
77,45.0,0,240,0.0,0.0
78,73.0,160,0,0.0,0.0
79,74.0,160,160,0.0,0.0
80,73.0,0,160,0.0,0.0
81,67.0,0,0,0.0,0.0
82,64.0,0,0,0.0,0.0
83,57.0,240,0,0.0,0.0
84,71.0,240,240,0.0,0.0
85,69.0,0,240,0.0,0.0
86,38.0,720,240,0.0,0.0
87,74.0,240,1440,0.0,0.0
88,62.0,0,480,0.0,0.0
89,50.0,0,480,0.0,0.0
90,57.0,0,0,0.0,0.0
91,62.0,0,960,0.0,0.0
92,66.0,480,0,0.0,0.0
93,69.0,240,240,0.0,0.0
94,73.0,0,240,0.0,0.0
95,74.0,240,240,0.0,0.0
96,66.0,0,480,0.0,0.0
97,50.0,240,0,0.0,0.0
98,76.0,0,240,0.0,0.0
99,62.0,240,0,0.0,0.0
100,78.0,120,240,0.0,0.0
101,57.0,0,0,0.0,0.0
102,50.0,0,0,0.0,0.0
103,66.0,240,480,0.0,0.0
104,79.0,60,120,0.0,0.0
105,78.0,60,60,0.0,0.0
106,79.0,0,60,0.0,0.0
107,45.0,240,240,0.0,0.0
108,78.0,240,480,0.0,0.0
109,76.0,240,240,0.0,0.0
110,52.0,0,480,0.0,0.0
111,61.0,0,480,0.0,0.0
112,74.0,0,240,0.0,0.0
113,67.0,0,0,0.0,0.0
114,52.0,240,480,0.0,0.0
115,57.0,240,0,0.0,0.0
116,61.0,0,480,0.0,0.0
117,73.0,240,240,0.0,0.0
118,71.0,0,240,0.0,0.0
119,69.0,0,240,0.0,0.0
120,38.0,240,240,0.0,0.0
121,74.0,160,240,0.0,0.0
122,62.0,0,480,0.0,0.0
123,74.0,160,160,0.0,0.0
124,76.0,160,160,0.0,0.0
125,74.0,0,160,0.0,0.0
126,62.0,0,480,0.0,0.0
127,57.0,240,0,0.0,0.0
128,73.0,240,240,0.0,0.0
129,66.0,0,0,0.0,0.0
130,50.0,0,0,0.0,0.0
131,71.0,0,240,0.0,0.0
132,73.0,0,1440,0.0,0.0
133,45.0,720,240,0.0,0.0
134,57.0,0,480,0.0,0.0
135,69.0,0,480,0.0,0.0
136,64.0,0,480,0.0,0.0
137,61.0,480,480,0.0,0.0
138,67.0,0,480,0.0,0.0
139,57.0,0,960,0.0,0.0
140,64.0,0,480,0.0,0.0
141,69.0,240,0,0.0,0.0
142,50.0,240,480,0.0,0.0
143,73.0,0,240,0.0,0.0
144,66.0,0,480,0.0,0.0
145,74.0,240,240,0.0,0.0
146,76.0,0,240,0.0,0.0
147,66.0,240,480,0.0,0.0
148,78.0,120,240,0.0,0.0
149,62.0,240,0,0.0,0.0
150,57.0,0,0,0.0,0.0
151,50.0,0,480,0.0,0.0
152,79.0,60,120,0.0,0.0
153,78.0,60,60,0.0,0.0
154,79.0,0,60,0.0,0.0
155,43.0,240,240,0.0,0.0
156,78.0,240,480,0.0,0.0
157,64.0,0,480,0.0,0.0
158,59.0,240,480,0.0,0.0
159,76.0,240,240,0.0,0.0
160,74.0,0,240,0.0,0.0
161,73.0,240,240,0.0,0.0
162,67.0,0,0,0.0,0.0
163,52.0,0,480,0.0,0.0
164,59.0,0,480,0.0,0.0
165,64.0,0,480,0.0,0.0
166,71.0,0,240,0.0,0.0
167,45.0,240,240,0.0,0.0
168,69.0,0,240,0.0,0.0
169,73.0,160,240,0.0,0.0
170,67.0,0,480,0.0,0.0
171,64.0,0,480,0.0,0.0
172,73.0,160,160,0.0,0.0
173,74.0,160,160,0.0,0.0
174,73.0,0,160,0.0,0.0
175,67.0,240,480,0.0,0.0
176,71.0,240,240,0.0,0.0
177,57.0,240,0,0.0,0.0
178,64.0,0,480,0.0,0.0
179,69.0,0,240,0.0,0.0
180,38.0,720,240,0.0,0.0
181,74.0,0,1440,0.0,0.0
182,66.0,0,480,0.0,0.0
183,57.0,0,480,0.0,0.0
184,50.0,0,480,0.0,0.0
185,50.0,240,480,0.0,0.0
186,57.0,0,480,0.0,0.0
187,62.0,480,0,0.0,0.0
188,66.0,0,480,0.0,0.0
189,64.0,0,240,0.0,0.0
190,45.0,240,240,0.0,0.0
191,68.0,240,240,0.0,0.0
192,57.0,0,480,0.0,0.0
193,69.0,240,240,0.0,0.0
194,61.0,0,480,0.0,0.0
195,45.0,240,480,0.0,0.0
196,71.0,0,240,0.0,0.0
197,61.0,240,480,0.0,0.0
198,73.0,120,240,0.0,0.0
199,52.0,0,0,0.0,0.0
200,45.0,0,480,0.0,0.0
201,57.0,0,480,0.0,0.0
202,74.0,60,120,0.0,0.0
203,73.0,60,60,0.0,0.0
204,74.0,0,60,0.0,0.0
205,40.0,240,240,0.0,0.0
206,73.0,240,480,0.0,0.0
207,71.0,240,240,0.0,0.0
208,62.0,240,480,0.0,0.0
209,69.0,0,240,0.0,0.0
210,59.0,0,0,0.0,0.0
211,52.0,0,0,0.0,0.0
212,62.0,0,480,0.0,0.0
213,68.0,240,240,0.0,0.0
214,66.0,0,240,0.0,0.0
215,33.0,0,240,0.0,0.0
216,64.0,240,240,0.0,0.0
217,69.0,160,0,0.0,0.0
218,57.0,0,480,0.0,0.0
219,52.0,0,480,0.0,0.0
220,45.0,0,480,0.0,0.0
221,71.0,160,160,0.0,0.0
222,69.0,240,160,0.0,0.0
223,61.0,0,0,0.0,0.0
224,68.0,240,240,0.0,0.0
225,45.0,0,480,0.0,0.0
226,52.0,0,480,0.0,0.0
227,57.0,0,480,0.0,0.0
228,66.0,0,240,0.0,0.0
229,40.0,720,240,0.0,0.0
230,68.0,0,1440,0.0,0.0
231,52.0,0,480,0.0,0.0
232,59.0,480,480,0.0,0.0
233,64.0,0,480,0.0,0.0
234,62.0,240,480,0.0,0.0
235,52.0,0,480,0.0,0.0
236,59.0,0,480,0.0,0.0
237,64.0,0,0,0.0,0.0
238,45.0,240,240,0.0,0.0
239,68.0,240,240,0.0,0.0
240,57.0,0,480,0.0,0.0
241,69.0,240,240,0.0,0.0
242,61.0,240,480,0.0,0.0
243,52.0,0,480,0.0,0.0
244,71.0,0,240,0.0,0.0
245,73.0,120,240,0.0,0.0
246,45.0,0,480,0.0,0.0
247,52.0,0,480,0.0,0.0
248,57.0,0,480,0.0,0.0
249,61.0,0,480,0.0,0.0
250,74.0,60,120,0.0,0.0
251,73.0,60,60,0.0,0.0
252,74.0,240,60,0.0,0.0
253,73.0,240,480,0.0,0.0
254,38.0,240,240,0.0,0.0
255,59.0,0,480,0.0,0.0
256,62.0,0,480,0.0,0.0
257,71.0,240,240,0.0,0.0
258,54.0,240,480,0.0,0.0
259,69.0,0,240,0.0,0.0
260,59.0,0,480,0.0,0.0
261,47.0,0,480,0.0,0.0
262,54.0,0,480,0.0,0.0
263,68.0,240,240,0.0,0.0
264,62.0,240,480,0.0,0.0
265,66.0,0,240,0.0,0.0
266,40.0,240,240,0.0,0.0
267,64.0,0,240,0.0,0.0
268,68.0,160,0,0.0,0.0
269,62.0,0,480,0.0,0.0
270,59.0,240,480,0.0,0.0
271,52.0,0,480,0.0,0.0
272,69.0,160,160,0.0,0.0
273,68.0,0,160,0.0,0.0
274,62.0,240,480,0.0,0.0
275,66.0,240,240,0.0,0.0
276,59.0,0,480,0.0,0.0
277,52.0,0,480,0.0,0.0
278,64.0,0,240,0.0,0.0
279,69.0,240,1440,0.0,0.0
280,33.0,720,240,0.0,0.0
281,61.0,0,480,0.0,0.0
282,52.0,0,480,0.0,0.0
283,57.0,480,0,0.0,0.0
284,61.0,0,960,0.0,0.0
285,45.0,0,0,0.0,0.0
286,64.0,240,240,0.0,0.0
287,68.0,0,240,0.0,0.0
288,69.0,240,240,0.0,0.0
289,61.0,0,480,0.0,0.0
290,52.0,0,0,0.0,0.0
291,45.0,0,0,0.0,0.0
292,57.0,240,0,0.0,0.0
293,71.0,0,240,0.0,0.0
294,45.0,0,0,0.0,0.0
295,52.0,240,0,0.0,0.0
296,73.0,120,240,0.0,0.0
297,61.0,0,480,0.0,0.0
298,57.0,0,0,0.0,0.0
299,74.0,60,120,0.0,0.0
300,73.0,60,60,0.0,0.0
301,74.0,0,60,0.0,0.0
302,40.0,240,240,0.0,0.0
303,73.0,240,480,0.0,0.0
304,62.0,0,480,0.0,0.0
305,71.0,240,240,0.0,0.0
306,69.0,0,240,0.0,0.0
307,59.0,0,0,0.0,0.0
308,52.0,240,0,0.0,0.0
309,68.0,240,240,0.0,0.0
310,62.0,240,480,0.0,0.0
311,66.0,0,240,0.0,0.0
312,33.0,0,240,0.0,0.0
313,64.0,240,240,0.0,0.0
314,69.0,160,240,0.0,0.0
315,61.0,0,480,0.0,0.0
316,69.0,160,160,0.0,0.0
317,71.0,160,160,0.0,0.0
318,69.0,240,160,0.0,0.0
319,57.0,0,0,0.0,0.0
320,52.0,0,0,0.0,0.0
321,45.0,0,0,0.0,0.0
322,61.0,0,480,0.0,0.0
323,68.0,240,240,0.0,0.0
324,66.0,240,240,0.0,0.0
325,40.0,720,240,0.0,0.0
326,68.0,0,1440,0.0,0.0
327,64.0,0,480,0.0,0.0
328,52.0,0,480,0.0,0.0
329,59.0,480,0,0.0,0.0
330,62.0,0,480,0.0,0.0
331,45.0,240,480,0.0,0.0
332,64.0,240,0,0.0,0.0
333,68.0,0,240,0.0,0.0
334,61.0,0,480,0.0,0.0
335,57.0,0,480,0.0,0.0
336,52.0,0,0,0.0,0.0
337,69.0,240,240,0.0,0.0
338,71.0,0,240,0.0,0.0
339,52.0,240,0,0.0,0.0
340,57.0,0,480,0.0,0.0
341,61.0,0,480,0.0,0.0
342,73.0,120,240,0.0,0.0
343,45.0,240,480,0.0,0.0
344,74.0,60,120,0.0,0.0
345,73.0,60,60,0.0,0.0
346,74.0,0,60,0.0,0.0
347,73.0,240,480,0.0,0.0
348,38.0,240,240,0.0,0.0
349,62.0,0,480,0.0,0.0
350,71.0,240,240,0.0,0.0
351,69.0,0,240,0.0,0.0
352,59.0,240,0,0.0,0.0
353,54.0,0,0,0.0,0.0
354,47.0,0,480,0.0,0.0
355,62.0,0,480,0.0,0.0
356,68.0,240,240,0.0,0.0
357,66.0,240,240,0.0,0.0
358,40.0,0,240,0.0,0.0
359,64.0,240,240,0.0,0.0
360,68.0,160,240,0.0,0.0
361,52.0,240,480,0.0,0.0
362,59.0,0,480,0.0,0.0
363,68.0,160,160,0.0,0.0
364,69.0,160,160,0.0,0.0
365,68.0,0,160,0.0,0.0
366,66.0,240,240,0.0,0.0
367,62.0,0,0,0.0,0.0
368,52.0,0,480,0.0,0.0
369,59.0,0,480,0.0,0.0
370,64.0,240,240,0.0,0.0
371,33.0,720,240,0.0,0.0
372,69.0,240,1680,0.0,0.0
373,61.0,0,0,0.0,0.0
374,64.0,0,0,0.0,0.0
375,57.0,480,0,0.0,0.0
376,67.0,240,480,0.0,0.0
377,50.0,0,240,0.0,0.0
378,66.0,240,480,0.0,0.0
379,73.0,0,240,0.0,0.0
380,50.0,0,480,0.0,0.0
381,74.0,240,240,0.0,0.0
382,66.0,0,480,0.0,0.0
383,57.0,0,480,0.0,0.0
384,76.0,0,240,0.0,0.0
385,50.0,0,480,0.0,0.0
386,57.0,0,480,0.0,0.0
387,62.0,240,0,0.0,0.0
388,78.0,120,240,0.0,0.0
389,66.0,0,480,0.0,0.0
390,79.0,60,120,0.0,0.0
391,78.0,60,60,0.0,0.0
392,79.0,0,60,0.0,0.0
393,45.0,240,240,0.0,0.0
394,78.0,240,480,0.0,0.0
395,76.0,240,240,0.0,0.0
396,67.0,240,480,0.0,0.0
397,74.0,0,240,0.0,0.0
398,61.0,0,0,0.0,0.0
399,57.0,0,0,0.0,0.0
400,52.0,0,0,0.0,0.0
401,67.0,0,480,0.0,0.0
402,73.0,240,240,0.0,0.0
403,71.0,240,240,0.0,0.0
404,69.0,0,240,0.0,0.0
405,38.0,240,240,0.0,0.0
406,66.0,240,480,0.0,0.0
407,74.0,160,0,0.0,0.0
408,57.0,0,480,0.0,0.0
409,50.0,0,480,0.0,0.0
410,76.0,160,160,0.0,0.0
411,74.0,0,160,0.0,0.0
412,62.0,0,0,0.0,0.0
413,50.0,0,480,0.0,0.0
414,73.0,240,240,0.0,0.0
415,57.0,0,480,0.0,0.0
416,66.0,240,480,0.0,0.0
417,71.0,0,240,0.0,0.0
418,73.0,0,1440,0.0,0.0
419,45.0,720,240,0.0,0.0
420,64.0,0,480,0.0,0.0
421,69.0,0,0,0.0,0.0
422,67.0,0,480,0.0,0.0
423,64.0,0,480,0.0,0.0
424,57.0,480,0,0.0,0.0
425,69.0,240,240,0.0,0.0
426,50.0,0,240,0.0,0.0
427,73.0,240,240,0.0,0.0
428,74.0,240,240,0.0,0.0
429,57.0,0,480,0.0,0.0
430,62.0,240,480,0.0,0.0
431,76.0,0,240,0.0,0.0
432,50.0,0,480,0.0,0.0
433,66.0,0,0,0.0,0.0
434,57.0,0,480,0.0,0.0
435,78.0,120,240,0.0,0.0
436,62.0,0,480,0.0,0.0
437,79.0,60,120,0.0,0.0
438,78.0,60,60,0.0,0.0
439,79.0,240,60,0.0,0.0
440,43.0,240,240,0.0,0.0
441,78.0,240,480,0.0,0.0
442,76.0,240,240,0.0,0.0
443,64.0,0,480,0.0,0.0
444,59.0,0,480,0.0,0.0
445,74.0,240,240,0.0,0.0
446,64.0,0,480,0.0,0.0
447,52.0,240,480,0.0,0.0
448,59.0,0,480,0.0,0.0
449,67.0,0,0,0.0,0.0
450,73.0,240,240,0.0,0.0
451,71.0,0,240,0.0,0.0
452,69.0,240,240,0.0,0.0
453,45.0,0,240,0.0,0.0
454,73.0,160,0,0.0,0.0
455,57.0,0,480,0.0,0.0
456,64.0,240,480,0.0,0.0
457,74.0,160,160,0.0,0.0
458,73.0,0,160,0.0,0.0
459,67.0,0,0,0.0,0.0
460,64.0,0,480,0.0,0.0
461,57.0,0,480,0.0,0.0
462,71.0,240,240,0.0,0.0
463,69.0,240,240,0.0,0.0
464,38.0,720,240,0.0,0.0
465,74.0,240,1440,0.0,0.0
466,50.0,0,480,0.0,0.0
467,57.0,0,480,0.0,0.0
468,62.0,0,480,0.0,0.0
469,66.0,480,0,0.0,0.0
470,57.0,0,960,0.0,0.0
471,50.0,240,960,0.0,0.0
472,69.0,240,240,0.0,0.0
473,73.0,0,240,0.0,0.0
474,66.0,0,0,0.0,0.0
475,74.0,240,240,0.0,0.0
476,62.0,0,0,0.0,0.0
477,57.0,0,480,0.0,0.0
478,76.0,0,240,0.0,0.0
479,66.0,240,0,0.0,0.0
480,62.0,0,480,0.0,0.0
481,57.0,0,480,0.0,0.0
482,50.0,0,0,0.0,0.0
483,78.0,120,240,0.0,0.0
484,79.0,60,120,0.0,0.0
485,78.0,60,60,0.0,0.0
486,79.0,0,60,0.0,0.0
487,78.0,240,480,0.0,0.0
488,45.0,240,240,0.0,0.0
489,76.0,240,240,0.0,0.0
490,67.0,0,480,0.0,0.0
491,74.0,0,240,0.0,0.0
492,52.0,240,0,0.0,0.0
493,57.0,0,0,0.0,0.0
494,67.0,0,480,0.0,0.0
495,73.0,240,240,0.0,0.0
496,61.0,0,0,0.0,0.0
497,71.0,0,240,0.0,0.0
498,69.0,240,240,0.0,0.0
499,38.0,0,240,0.0,0.0
500,74.0,160,240,0.0,0.0
501,74.0,160,160,0.0,0.0
502,57.0,0,480,0.0,0.0
503,50.0,240,480,0.0,0.0
504,62.0,0,480,0.0,0.0
505,76.0,160,160,0.0,0.0
506,74.0,0,160,0.0,0.0
507,66.0,0,0,0.0,0.0
508,73.0,240,240,0.0,0.0
509,62.0,0,480,0.0,0.0
510,50.0,0,480,0.0,0.0
511,57.0,0,480,0.0,0.0
512,71.0,240,240,0.0,0.0
513,45.0,720,240,0.0,0.0
514,73.0,240,1440,0.0,0.0
515,61.0,0,480,0.0,0.0
516,57.0,0,480,0.0,0.0
517,64.0,0,0,0.0,0.0
518,69.0,480,0,0.0,0.0
519,67.0,0,480,0.0,0.0
520,50.0,0,480,0.0,0.0
521,69.0,240,240,0.0,0.0
522,73.0,0,240,0.0,0.0
523,57.0,240,0,0.0,0.0
524,74.0,240,240,0.0,0.0
525,76.0,0,240,0.0,0.0
526,78.0,120,240,0.0,0.0
527,66.0,0,0,0.0,0.0
528,50.0,0,480,0.0,0.0
529,57.0,0,480,0.0,0.0
530,62.0,240,0,0.0,0.0
531,79.0,60,120,0.0,0.0
532,78.0,60,60,0.0,0.0
533,79.0,240,60,0.0,0.0
534,78.0,240,480,0.0,0.0
535,43.0,240,240,0.0,0.0
536,76.0,240,240,0.0,0.0
537,67.0,0,480,0.0,0.0
538,74.0,0,240,0.0,0.0
539,59.0,0,0,0.0,0.0
540,52.0,240,480,0.0,0.0
541,67.0,0,480,0.0,0.0
542,73.0,240,240,0.0,0.0
543,64.0,240,0,0.0,0.0
544,71.0,0,240,0.0,0.0
545,69.0,0,240,0.0,0.0
546,45.0,240,240,0.0,0.0
547,57.0,0,480,0.0,0.0
548,64.0,0,480,0.0,0.0
549,73.0,160,0,0.0,0.0
550,74.0,160,160,0.0,0.0
551,73.0,0,160,0.0,0.0
552,67.0,240,0,0.0,0.0
553,71.0,240,240,0.0,0.0
554,57.0,0,480,0.0,0.0
555,64.0,480,480,0.0,0.0
556,69.0,0,240,0.0,0.0
557,38.0,480,480,0.0,0.0
558,50.0,0,480,0.0,0.0
559,57.0,0,480,0.0,0.0
560,62.0,0,480,0.0,0.0
561,57.0,0,480,0.0,0.0
562,62.0,360,480,0.0,0.0
563,66.0,480,0,0.0,0.0
564,50.0,0,480,0.0,0.0
565,46.0,480,480,0.0,0.0
566,65.0,0,960,0.0,0.0
567,74.0,120,0,0.0,0.0
568,75.0,480,480,0.0,0.0
569,53.0,0,480,0.0,0.0
570,58.0,0,480,0.0,0.0
571,62.0,0,0,0.0,0.0
572,58.0,0,480,0.0,0.0
573,53.0,0,480,0.0,0.0
574,76.0,360,480,0.0,0.0
575,70.0,0,960,0.0,0.0
576,41.0,0,480,0.0,0.0
577,79.0,120,360,0.0,0.0
578,77.0,240,120,0.0,0.0
579,69.0,240,240,0.0,0.0
580,67.0,0,240,0.0,0.0
581,72.0,0,0,0.0,0.0
582,65.0,0,960,0.0,0.0
583,53.0,480,0,0.0,0.0
584,60.0,0,0,0.0,0.0
585,63.0,0,0,0.0,0.0
586,74.0,120,360,0.0,0.0
587,46.0,480,480,0.0,0.0
588,74.0,0,120,0.0,0.0
589,65.0,0,480,0.0,0.0
590,75.0,480,480,0.0,0.0
591,62.0,0,480,0.0,0.0
592,53.0,0,480,0.0,0.0
593,58.0,0,0,0.0,0.0
594,65.0,0,960,0.0,0.0
595,70.0,0,0,0.0,0.0
596,76.0,0,480,0.0,0.0
597,53.0,360,480,0.0,0.0
598,62.0,0,480,0.0,0.0
599,45.0,120,840,0.0,0.0
600,72.0,0,480,0.0,0.0
601,79.0,120,360,0.0,0.0
602,77.0,360,120,0.0,0.0
603,65.0,480,480,0.0,0.0
604,60.0,0,360,0.0,0.0
605,72.0,0,960,0.0,0.0
606,43.0,0,120,0.0,0.0
607,41.0,0,480,0.0,0.0
608,77.0,240,480,0.0,0.0
609,69.0,0,480,0.0,0.0
610,82.0,240,240,0.0,0.0
611,48.0,0,480,0.0,0.0
612,36.0,480,480,0.0,0.0
613,70.0,0,240,0.0,0.0
614,76.0,0,240,0.0,0.0
615,82.0,0,120,0.0,0.0
616,76.0,0,0,0.0,0.0
617,70.0,0,0,0.0,0.0
618,67.0,480,480,0.0,0.0
619,60.0,0,480,0.0,0.0
620,82.0,0,0,0.0,0.0
621,76.0,0,0,0.0,0.0
622,70.0,0,0,0.0,0.0
623,77.0,240,240,0.0,0.0
624,70.0,0,0,0.0,0.0
625,82.0,0,240,0.0,0.0
626,41.0,0,240,0.0,0.0
627,59.0,360,120,0.0,0.0
628,70.0,0,120,0.0,0.0
629,77.0,0,120,0.0,0.0
630,82.0,0,120,0.0,0.0
631,70.0,0,480,0.0,0.0
632,82.0,480,480,0.0,0.0
633,60.0,120,360,0.0,0.0
634,61.0,0,120,0.0,0.0
635,60.0,0,480,0.0,0.0
636,77.0,0,0,0.0,0.0
637,69.0,240,480,0.0,0.0
638,48.0,240,240,0.0,0.0
639,81.0,0,0,0.0,0.0
640,76.0,0,240,0.0,0.0
641,70.0,0,240,0.0,0.0
642,59.0,360,120,0.0,0.0
643,81.0,0,0,0.0,0.0
644,60.0,120,360,0.0,0.0
645,76.0,0,0,0.0,0.0
646,70.0,0,0,0.0,0.0
647,62.0,0,120,0.0,0.0
648,79.0,0,480,0.0,0.0
649,60.0,0,480,0.0,0.0
650,70.0,240,480,0.0,0.0
651,76.0,0,480,0.0,0.0
652,69.0,0,240,0.0,0.0
653,75.0,0,240,0.0,0.0
654,53.0,0,240,0.0,0.0
655,79.0,240,240,0.0,0.0
656,79.0,0,120,0.0,0.0
657,75.0,0,120,0.0,0.0
658,59.0,0,120,0.0,0.0
659,69.0,360,0,0.0,0.0
660,60.0,120,360,0.0,0.0
661,75.0,0,480,0.0,0.0
662,79.0,0,480,0.0,0.0
663,64.0,480,120,0.0,0.0
664,65.0,0,480,0.0,0.0
665,69.0,360,480,0.0,0.0
666,75.0,0,480,0.0,0.0
667,77.0,0,480,0.0,0.0
668,46.0,480,480,0.0,0.0
669,74.0,120,360,0.0,0.0
670,74.0,0,120,0.0,0.0
671,62.0,480,480,0.0,0.0
672,75.0,0,480,0.0,0.0
673,70.0,0,480,0.0,0.0
674,65.0,0,480,0.0,0.0
675,53.0,0,480,0.0,0.0
676,58.0,0,480,0.0,0.0
677,65.0,360,480,0.0,0.0
678,76.0,0,480,0.0,0.0
679,70.0,0,480,0.0,0.0
680,53.0,0,480,0.0,0.0
681,62.0,0,480,0.0,0.0
682,58.0,0,480,0.0,0.0
683,78.0,120,360,0.0,0.0
684,45.0,0,480,0.0,0.0
685,77.0,360,120,0.0,0.0
686,65.0,120,360,0.0,0.0
687,72.0,0,480,0.0,0.0
688,66.0,0,120,0.0,0.0
689,65.0,360,480,0.0,0.0
690,72.0,0,480,0.0,0.0
691,53.0,480,0,0.0,0.0
692,60.0,0,0,0.0,0.0
693,63.0,0,0,0.0,0.0
694,46.0,0,480,0.0,0.0
695,73.0,120,360,0.0,0.0
696,73.0,480,120,0.0,0.0
697,58.0,0,480,0.0,0.0
698,53.0,0,480,0.0,0.0
699,70.0,0,480,0.0,0.0
700,75.0,0,480,0.0,0.0
701,61.0,480,480,0.0,0.0
702,65.0,0,0,0.0,0.0
703,70.0,0,480,0.0,0.0
704,76.0,0,480,0.0,0.0
705,58.0,360,480,0.0,0.0
706,53.0,0,480,0.0,0.0
707,61.0,0,480,0.0,0.0
708,78.0,120,360,0.0,0.0
709,44.0,360,480,0.0,0.0
710,77.0,0,120,0.0,0.0
711,68.0,0,480,0.0,0.0
712,80.0,0,480,0.0,0.0
713,53.0,0,360,0.0,0.0
714,56.0,0,360,0.0,0.0
715,65.0,120,360,0.0,0.0
716,61.0,0,360,0.0,0.0
717,46.0,480,120,0.0,0.0
718,73.0,0,0,0.0,0.0
719,85.0,0,480,0.0,0.0
720,44.0,240,480,0.0,0.0
721,72.0,240,240,0.0,0.0
722,66.0,0,240,0.0,0.0
723,78.0,0,240,0.0,0.0
724,32.0,0,480,0.0,0.0
725,66.0,480,120,0.0,0.0
726,72.0,0,120,0.0,0.0
727,78.0,0,120,0.0,0.0
728,63.0,0,480,0.0,0.0
729,56.0,0,480,0.0,0.0
730,78.0,0,480,0.0,0.0
731,66.0,0,0,0.0,0.0
732,72.0,480,0,0.0,0.0
733,78.0,0,480,0.0,0.0
734,73.0,240,240,0.0,0.0
735,78.0,0,240,0.0,0.0
736,37.0,0,240,0.0,0.0
737,66.0,0,240,0.0,0.0
738,55.0,0,120,0.0,0.0
739,66.0,360,0,0.0,0.0
740,73.0,0,0,0.0,0.0
741,78.0,0,0,0.0,0.0
742,56.0,120,360,0.0,0.0
743,58.0,480,120,0.0,0.0
744,56.0,240,480,0.0,0.0
745,65.0,0,480,0.0,0.0
746,73.0,0,480,0.0,0.0
747,77.0,0,480,0.0,0.0
748,72.0,0,240,0.0,0.0
749,77.0,240,240,0.0,0.0
750,66.0,0,240,0.0,0.0
751,44.0,0,240,0.0,0.0
752,77.0,0,120,0.0,0.0
753,55.0,360,120,0.0,0.0
754,72.0,0,120,0.0,0.0
755,66.0,0,0,0.0,0.0
756,77.0,0,480,0.0,0.0
757,72.0,0,480,0.0,0.0
758,56.0,120,360,0.0,0.0
759,57.0,480,120,0.0,0.0
760,66.0,0,480,0.0,0.0
761,72.0,0,480,0.0,0.0
762,56.0,0,480,0.0,0.0
763,49.0,240,240,0.0,0.0
764,66.0,0,240,0.0,0.0
765,75.0,240,0,0.0,0.0
766,55.0,0,120,0.0,0.0
767,66.0,0,0,0.0,0.0
768,68.0,360,0,0.0,0.0
769,75.0,0,0,0.0,0.0
770,56.0,120,360,0.0,0.0
771,60.0,0,120,0.0,0.0
772,61.0,160,480,0.0,0.0
773,73.0,0,480,0.0,0.0
774,65.0,0,480,0.0,0.0
775,74.0,80,160,0.0,0.0
776,68.0,0,0,0.0,0.0
777,41.0,80,240,0.0,0.0
778,62.0,640,160,0.0,0.0
779,68.0,0,1120,0.0,0.0
780,53.0,0,480,0.0,0.0
781,59.0,0,480,0.0,0.0
782,74.0,480,0,0.0,0.0
783,62.0,0,0,0.0,0.0
784,53.0,160,480,0.0,0.0
785,59.0,0,480,0.0,0.0
786,69.0,0,160,0.0,0.0
787,74.0,80,160,0.0,0.0
788,42.0,80,240,0.0,0.0
789,62.0,640,160,0.0,0.0
790,74.0,0,880,0.0,0.0
791,69.0,0,1120,0.0,0.0
792,62.0,240,720,0.0,0.0
793,57.0,0,0,0.0,0.0
794,54.0,240,0,0.0,0.0
795,61.0,0,240,0.0,0.0
796,73.0,0,240,0.0,0.0
797,74.0,80,160,0.0,0.0
798,68.0,0,160,0.0,0.0
799,41.0,80,240,0.0,0.0
800,62.0,640,160,0.0,0.0
801,74.0,480,640,0.0,0.0
802,68.0,0,1120,0.0,0.0
803,62.0,0,480,0.0,0.0
804,53.0,0,480,0.0,0.0
805,59.0,0,480,0.0,0.0
806,53.0,160,480,0.0,0.0
807,59.0,0,480,0.0,0.0
808,62.0,0,480,0.0,0.0
809,74.0,0,480,0.0,0.0
810,74.0,80,160,0.0,0.0
811,69.0,0,160,0.0,0.0
812,42.0,80,240,0.0,0.0
813,62.0,640,160,0.0,0.0
814,74.0,0,880,0.0,0.0
815,69.0,0,1120,0.0,0.0
816,57.0,240,480,0.0,0.0
817,54.0,0,480,0.0,0.0
818,62.0,240,720,0.0,0.0
819,57.0,0,480,0.0,0.0
820,54.0,160,480,0.0,0.0
821,73.0,0,240,0.0,0.0
822,61.0,0,240,0.0,0.0
823,40.0,80,240,0.0,0.0
824,68.0,80,160,0.0,0.0
825,74.0,0,160,0.0,0.0
826,62.0,640,160,0.0,0.0
827,74.0,0,640,0.0,0.0
828,68.0,0,1120,0.0,0.0
829,52.0,0,480,0.0,0.0
830,62.0,0,480,0.0,0.0
831,59.0,480,480,0.0,0.0
832,62.0,0,480,0.0,0.0
833,52.0,0,480,0.0,0.0
834,59.0,0,480,0.0,0.0
835,69.0,80,160,0.0,0.0
836,45.0,80,240,0.0,0.0
837,74.0,160,0,0.0,0.0
838,62.0,640,160,0.0,0.0
839,74.0,240,880,0.0,0.0
840,69.0,0,1120,0.0,0.0
841,57.0,0,480,0.0,0.0
842,52.0,240,480,0.0,0.0
843,62.0,0,720,0.0,0.0
844,57.0,160,480,0.0,0.0
845,52.0,0,480,0.0,0.0
846,73.0,0,240,0.0,0.0
847,61.0,0,240,0.0,0.0
848,40.0,80,240,0.0,0.0
849,68.0,80,160,0.0,0.0
850,74.0,0,160,0.0,0.0
851,62.0,640,160,0.0,0.0
852,68.0,0,1120,0.0,0.0
853,59.0,0,480,0.0,0.0
854,62.0,0,0,0.0,0.0
855,74.0,0,0,0.0,0.0
856,52.0,480,0,0.0,0.0
857,59.0,0,480,0.0,0.0
858,45.0,80,240,0.0,0.0
859,69.0,0,160,0.0,0.0
860,74.0,80,160,0.0,0.0
861,62.0,640,160,0.0,0.0
862,69.0,0,1120,0.0,0.0
863,74.0,0,880,0.0,0.0
864,62.0,240,720,0.0,0.0
865,52.0,0,480,0.0,0.0
866,57.0,240,0,0.0,0.0
867,52.0,0,480,0.0,0.0
868,73.0,160,240,0.0,0.0
869,61.0,0,240,0.0,0.0
870,74.0,0,160,0.0,0.0
871,68.0,80,160,0.0,0.0
872,41.0,80,240,0.0,0.0
873,62.0,640,160,0.0,0.0
874,68.0,0,1120,0.0,0.0
875,74.0,0,640,0.0,0.0
876,53.0,0,480,0.0,0.0
877,53.0,160,480,0.0,0.0
878,59.0,0,0,0.0,0.0
879,62.0,480,0,0.0,0.0
880,74.0,0,480,0.0,0.0
881,69.0,0,160,0.0,0.0
882,42.0,80,240,0.0,0.0
883,74.0,80,160,0.0,0.0
884,62.0,640,160,0.0,0.0
885,69.0,0,1120,0.0,0.0
886,74.0,0,880,0.0,0.0
887,54.0,0,480,0.0,0.0
888,62.0,240,720,0.0,0.0
889,54.0,160,480,0.0,0.0
890,57.0,240,0,0.0,0.0
891,61.0,0,240,0.0,0.0
892,73.0,0,240,0.0,0.0
893,68.0,0,160,0.0,0.0
894,41.0,80,240,0.0,0.0
895,74.0,80,160,0.0,0.0
896,62.0,640,160,0.0,0.0
897,68.0,0,1120,0.0,0.0
898,62.0,0,480,0.0,0.0
899,62.0,0,480,0.0,0.0
900,74.0,480,0,0.0,0.0
901,59.0,0,0,0.0,0.0
902,53.0,0,0,0.0,0.0
903,42.0,80,240,0.0,0.0
904,74.0,160,0,0.0,0.0
905,69.0,80,160,0.0,0.0
906,62.0,640,160,0.0,0.0
907,69.0,0,1120,0.0,0.0
908,74.0,240,880,0.0,0.0
909,54.0,0,480,0.0,0.0
910,62.0,0,720,0.0,0.0
911,57.0,240,0,0.0,0.0
912,54.0,0,480,0.0,0.0
913,73.0,160,240,0.0,0.0
914,61.0,0,240,0.0,0.0
915,40.0,80,240,0.0,0.0
916,74.0,80,160,0.0,0.0
917,68.0,0,160,0.0,0.0
918,62.0,640,160,0.0,0.0
919,74.0,480,640,0.0,0.0
920,68.0,0,1120,0.0,0.0
921,59.0,0,480,0.0,0.0
922,52.0,0,480,0.0,0.0
923,62.0,0,480,0.0,0.0
924,52.0,0,480,0.0,0.0
925,59.0,160,480,0.0,0.0
926,62.0,0,480,0.0,0.0
927,74.0,0,480,0.0,0.0
928,45.0,80,240,0.0,0.0
929,69.0,80,160,0.0,0.0
930,74.0,0,160,0.0,0.0
931,62.0,640,160,0.0,0.0
932,74.0,240,880,0.0,0.0
933,69.0,0,1120,0.0,0.0
934,62.0,0,720,0.0,0.0
935,57.0,240,480,0.0,0.0
936,52.0,0,480,0.0,0.0
937,57.0,0,480,0.0,0.0
938,52.0,160,480,0.0,0.0
939,61.0,0,240,0.0,0.0
940,73.0,0,240,0.0,0.0
941,40.0,80,240,0.0,0.0
942,68.0,80,160,0.0,0.0
943,74.0,0,160,0.0,0.0
944,62.0,640,160,0.0,0.0
945,68.0,0,1120,0.0,0.0
946,74.0,0,640,0.0,0.0
947,62.0,0,480,0.0,0.0
948,52.0,0,0,0.0,0.0
949,59.0,480,0,0.0,0.0
950,62.0,160,480,0.0,0.0
951,74.0,0,480,0.0,0.0
952,45.0,80,240,0.0,0.0
953,74.0,80,160,0.0,0.0
954,67.0,0,160,0.0,0.0
955,62.0,640,160,0.0,0.0
956,67.0,0,1120,0.0,0.0
957,74.0,240,880,0.0,0.0
958,62.0,0,480,0.0,0.0
959,57.0,0,480,0.0,0.0
960,64.0,240,480,0.0,0.0
961,57.0,0,480,0.0,0.0
962,64.0,0,480,0.0,0.0
963,61.0,240,480,0.0,0.0
964,73.0,0,240,0.0,0.0
965,50.0,0,240,0.0,0.0
966,69.0,240,240,0.0,0.0
967,73.0,240,240,0.0,0.0
968,57.0,0,480,0.0,0.0
969,74.0,240,240,0.0,0.0
970,76.0,0,240,0.0,0.0
971,66.0,240,0,0.0,0.0
972,57.0,0,480,0.0,0.0
973,50.0,0,0,0.0,0.0
974,62.0,0,0,0.0,0.0
975,78.0,120,240,0.0,0.0
976,79.0,60,120,0.0,0.0
977,78.0,60,60,0.0,0.0
978,79.0,0,60,0.0,0.0
979,78.0,240,480,0.0,0.0
980,45.0,240,240,0.0,0.0
981,57.0,0,480,0.0,0.0
982,76.0,240,240,0.0,0.0
983,61.0,0,480,0.0,0.0
984,52.0,0,480,0.0,0.0
985,74.0,240,240,0.0,0.0
986,52.0,0,480,0.0,0.0
987,57.0,0,480,0.0,0.0
988,61.0,240,480,0.0,0.0
989,73.0,240,240,0.0,0.0
990,67.0,0,0,0.0,0.0
991,71.0,0,240,0.0,0.0
992,69.0,0,240,0.0,0.0
993,38.0,240,240,0.0,0.0
994,74.0,160,240,0.0,0.0
995,74.0,160,160,0.0,0.0
996,62.0,0,480,0.0,0.0
997,57.0,0,480,0.0,0.0
998,50.0,0,480,0.0,0.0
999,76.0,160,160,0.0,0.0
1000,74.0,240,160,0.0,0.0
1001,50.0,240,480,0.0,0.0
1002,62.0,0,480,0.0,0.0
1003,73.0,240,240,0.0,0.0
1004,66.0,0,0,0.0,0.0
1005,57.0,0,480,0.0,0.0
1006,71.0,0,240,0.0,0.0
1007,73.0,0,1440,0.0,0.0
1008,45.0,720,240,0.0,0.0
1009,64.0,0,480,0.0,0.0
1010,69.0,0,480,0.0,0.0
1011,64.0,0,480,0.0,0.0
1012,57.0,480,0,0.0,0.0
1013,69.0,0,480,0.0,0.0
1014,67.0,240,480,0.0,0.0
1015,69.0,240,240,0.0,0.0
1016,50.0,0,240,0.0,0.0
1017,73.0,240,240,0.0,0.0
1018,74.0,240,240,0.0,0.0
1019,66.0,240,480,0.0,0.0
1020,76.0,0,240,0.0,0.0
1021,62.0,0,0,0.0,0.0
1022,57.0,0,0,0.0,0.0
1023,50.0,0,480,0.0,0.0
1024,78.0,120,240,0.0,0.0
1025,66.0,0,480,0.0,0.0
1026,79.0,60,120,0.0,0.0
1027,78.0,60,60,0.0,0.0
1028,79.0,240,60,0.0,0.0
1029,43.0,240,240,0.0,0.0
1030,78.0,240,480,0.0,0.0
1031,76.0,240,240,0.0,0.0
1032,59.0,0,480,0.0,0.0
1033,64.0,0,480,0.0,0.0
1034,74.0,0,240,0.0,0.0
1035,52.0,240,480,0.0,0.0
1036,59.0,0,480,0.0,0.0
1037,64.0,0,480,0.0,0.0
1038,73.0,240,240,0.0,0.0
1039,67.0,240,0,0.0,0.0
1040,71.0,0,240,0.0,0.0
1041,69.0,240,240,0.0,0.0
1042,45.0,0,240,0.0,0.0
1043,57.0,0,480,0.0,0.0
1044,73.0,160,0,0.0,0.0
1045,74.0,160,160,0.0,0.0
1046,73.0,0,160,0.0,0.0
1047,57.0,0,480,0.0,0.0
1048,64.0,0,0,0.0,0.0
1049,67.0,240,0,0.0,0.0
1050,71.0,240,240,0.0,0.0
1051,69.0,240,240,0.0,0.0
1052,38.0,720,240,0.0,0.0
1053,74.0,240,1440,0.0,0.0
1054,57.0,0,480,0.0,0.0
1055,50.0,0,480,0.0,0.0
1056,62.0,480,480,0.0,0.0
1057,66.0,0,0,0.0,0.0
1058,50.0,0,960,0.0,0.0
1059,62.0,0,960,0.0,0.0
1060,57.0,0,960,0.0,0.0
1061,69.0,240,240,0.0,0.0
1062,73.0,0,240,0.0,0.0
1063,74.0,240,240,0.0,0.0
1064,66.0,240,0,0.0,0.0
1065,50.0,0,480,0.0,0.0
1066,76.0,240,240,0.0,0.0
1067,78.0,120,240,0.0,0.0
1068,66.0,240,480,0.0,0.0
1069,62.0,0,0,0.0,0.0
1070,57.0,0,0,0.0,0.0
1071,50.0,0,480,0.0,0.0
1072,79.0,60,120,0.0,0.0
1073,78.0,60,60,0.0,0.0
1074,79.0,0,60,0.0,0.0
1075,45.0,240,240,0.0,0.0
1076,78.0,240,480,0.0,0.0
1077,76.0,240,240,0.0,0.0
1078,61.0,0,480,0.0,0.0
1079,74.0,0,240,0.0,0.0
1080,52.0,240,0,0.0,0.0
1081,57.0,0,0,0.0,0.0
1082,61.0,0,480,0.0,0.0
1083,73.0,240,240,0.0,0.0
1084,67.0,0,0,0.0,0.0
1085,71.0,0,240,0.0,0.0
1086,69.0,0,240,0.0,0.0
1087,38.0,240,240,0.0,0.0
1088,74.0,160,0,0.0,0.0
1089,76.0,160,160,0.0,0.0
1090,74.0,0,160,0.0,0.0
1091,66.0,0,0,0.0,0.0
1092,73.0,240,240,0.0,0.0
1093,50.0,240,0,0.0,0.0
1094,57.0,0,0,0.0,0.0
1095,62.0,0,0,0.0,0.0
1096,71.0,0,240,0.0,0.0
1097,73.0,0,1440,0.0,0.0
1098,45.0,720,240,0.0,0.0
1099,61.0,480,480,0.0,0.0
1100,57.0,0,480,0.0,0.0
1101,69.0,0,480,0.0,0.0
1102,64.0,0,480,0.0,0.0
1103,67.0,0,480,0.0,0.0
1104,64.0,240,480,0.0,0.0
1105,69.0,0,0,0.0,0.0
1106,50.0,240,480,0.0,0.0
1107,73.0,0,240,0.0,0.0
1108,74.0,240,240,0.0,0.0
1109,66.0,0,480,0.0,0.0
1110,57.0,0,0,0.0,0.0
1111,76.0,0,240,0.0,0.0
1112,78.0,120,240,0.0,0.0
1113,66.0,0,480,0.0,0.0
1114,62.0,240,0,0.0,0.0
1115,57.0,0,0,0.0,0.0
1116,50.0,240,480,0.0,0.0
1117,79.0,60,120,0.0,0.0
1118,78.0,60,60,0.0,0.0
1119,79.0,0,60,0.0,0.0
1120,43.0,240,240,0.0,0.0
1121,78.0,240,480,0.0,0.0
1122,67.0,0,480,0.0,0.0
1123,76.0,240,240,0.0,0.0
1124,64.0,0,480,0.0,0.0
1125,59.0,240,480,0.0,0.0
1126,74.0,0,240,0.0,0.0
1127,73.0,240,240,0.0,0.0
1128,67.0,0,480,0.0,0.0
1129,52.0,0,480,0.0,0.0
1130,64.0,240,480,0.0,0.0
1131,59.0,0,480,0.0,0.0
1132,71.0,0,240,0.0,0.0
1133,69.0,0,240,0.0,0.0
1134,45.0,240,240,0.0,0.0
1135,73.0,160,240,0.0,0.0
1136,73.0,160,160,0.0,0.0
1137,74.0,160,160,0.0,0.0
1138,73.0,0,160,0.0,0.0
1139,71.0,240,240,0.0,0.0
1140,64.0,0,0,0.0,0.0
1141,57.0,0,0,0.0,0.0
1142,67.0,240,0,0.0,0.0
1143,69.0,0,240,0.0,0.0
1144,74.0,0,1440,0.0,0.0
1145,38.0,720,240,0.0,0.0
1146,50.0,0,480,0.0,0.0
1147,62.0,0,480,0.0,0.0
1148,57.0,0,0,0.0,0.0
1149,66.0,480,0,0.0,0.0
1150,50.0,240,480,0.0,0.0
1151,62.0,0,480,0.0,0.0
1152,64.0,240,240,0.0,0.0
1153,45.0,0,240,0.0,0.0
1154,68.0,240,240,0.0,0.0
1155,69.0,240,240,0.0,0.0
1156,61.0,0,480,0.0,0.0
1157,52.0,0,480,0.0,0.0
1158,71.0,240,240,0.0,0.0
1159,57.0,0,0,0.0,0.0
1160,52.0,0,480,0.0,0.0
1161,45.0,0,0,0.0,0.0
1162,61.0,240,480,0.0,0.0
1163,73.0,120,240,0.0,0.0
1164,74.0,60,120,0.0,0.0
1165,73.0,60,60,0.0,0.0
1166,74.0,0,60,0.0,0.0
1167,40.0,240,240,0.0,0.0
1168,73.0,240,480,0.0,0.0
1169,71.0,240,240,0.0,0.0
1170,59.0,240,480,0.0,0.0
1171,69.0,0,240,0.0,0.0
1172,68.0,240,240,0.0,0.0
1173,62.0,0,0,0.0,0.0
1174,52.0,0,0,0.0,0.0
1175,59.0,0,480,0.0,0.0
1176,66.0,0,240,0.0,0.0
1177,33.0,0,240,0.0,0.0
1178,64.0,240,240,0.0,0.0
1179,69.0,160,240,0.0,0.0
1180,69.0,160,160,0.0,0.0
1181,61.0,0,480,0.0,0.0
1182,45.0,0,480,0.0,0.0
1183,71.0,160,160,0.0,0.0
1184,69.0,0,160,0.0,0.0
1185,57.0,240,0,0.0,0.0
1186,52.0,0,0,0.0,0.0
1187,61.0,240,480,0.0,0.0
1188,68.0,240,240,0.0,0.0
1189,45.0,0,480,0.0,0.0
1190,66.0,0,240,0.0,0.0
1191,40.0,720,240,0.0,0.0
1192,68.0,0,1440,0.0,0.0
1193,59.0,0,480,0.0,0.0
1194,52.0,480,480,0.0,0.0
1195,64.0,0,0,0.0,0.0
1196,62.0,0,480,0.0,0.0
1197,59.0,240,480,0.0,0.0
1198,52.0,0,480,0.0,0.0
1199,64.0,0,0,0.0,0.0
1200,45.0,240,240,0.0,0.0
1201,68.0,240,240,0.0,0.0
1202,61.0,0,480,0.0,0.0
1203,69.0,240,240,0.0,0.0
1204,71.0,0,240,0.0,0.0
1205,73.0,120,240,0.0,0.0
1206,61.0,0,480,0.0,0.0
1207,57.0,240,0,0.0,0.0
1208,52.0,0,0,0.0,0.0
1209,45.0,0,480,0.0,0.0
1210,74.0,60,120,0.0,0.0
1211,73.0,60,60,0.0,0.0
1212,74.0,240,60,0.0,0.0
1213,38.0,240,240,0.0,0.0
1214,73.0,240,480,0.0,0.0
1215,71.0,240,240,0.0,0.0
1216,62.0,0,480,0.0,0.0
1217,59.0,0,480,0.0,0.0
1218,69.0,0,240,0.0,0.0
1219,54.0,240,0,0.0,0.0
1220,62.0,240,480,0.0,0.0
1221,68.0,240,240,0.0,0.0
1222,47.0,0,480,0.0,0.0
1223,59.0,0,480,0.0,0.0
1224,66.0,0,240,0.0,0.0
1225,40.0,240,240,0.0,0.0
1226,64.0,0,240,0.0,0.0
1227,68.0,160,240,0.0,0.0
1228,68.0,160,160,0.0,0.0
1229,69.0,160,160,0.0,0.0
1230,68.0,240,160,0.0,0.0
1231,52.0,0,0,0.0,0.0
1232,59.0,0,0,0.0,0.0
1233,66.0,240,240,0.0,0.0
1234,62.0,0,0,0.0,0.0
1235,64.0,0,240,0.0,0.0
1236,33.0,720,240,0.0,0.0
1237,69.0,240,1440,0.0,0.0
1238,61.0,480,480,0.0,0.0
1239,45.0,0,480,0.0,0.0
1240,52.0,0,480,0.0,0.0
1241,57.0,0,480,0.0,0.0
1242,52.0,0,960,0.0,0.0
1243,57.0,0,960,0.0,0.0
1244,64.0,240,240,0.0,0.0
1245,68.0,240,240,0.0,0.0
1246,61.0,0,0,0.0,0.0
1247,69.0,240,240,0.0,0.0
1248,45.0,0,0,0.0,0.0
1249,71.0,0,240,0.0,0.0
1250,45.0,0,480,0.0,0.0
1251,52.0,240,0,0.0,0.0
1252,57.0,0,0,0.0,0.0
1253,73.0,120,240,0.0,0.0
1254,61.0,0,480,0.0,0.0
1255,74.0,60,120,0.0,0.0
1256,73.0,60,60,0.0,0.0
1257,74.0,240,60,0.0,0.0
1258,40.0,240,240,0.0,0.0
1259,73.0,240,480,0.0,0.0
1260,62.0,0,480,0.0,0.0
1261,71.0,240,240,0.0,0.0
1262,52.0,240,480,0.0,0.0
1263,69.0,0,240,0.0,0.0
1264,59.0,0,0,0.0,0.0
1265,62.0,0,480,0.0,0.0
1266,68.0,240,240,0.0,0.0
1267,52.0,240,480,0.0,0.0
1268,66.0,0,240,0.0,0.0
1269,64.0,240,240,0.0,0.0
1270,33.0,0,240,0.0,0.0
1271,69.0,160,240,0.0,0.0
1272,52.0,0,480,0.0,0.0
1273,69.0,160,160,0.0,0.0
1274,71.0,160,160,0.0,0.0
1275,69.0,240,160,0.0,0.0
1276,61.0,0,0,0.0,0.0
1277,45.0,0,0,0.0,0.0
1278,57.0,0,0,0.0,0.0
1279,68.0,240,240,0.0,0.0
1280,52.0,0,480,0.0,0.0
1281,66.0,0,240,0.0,0.0
1282,68.0,0,1440,0.0,0.0
1283,40.0,720,240,0.0,0.0
1284,59.0,0,480,0.0,0.0
1285,52.0,480,480,0.0,0.0
1286,64.0,0,0,0.0,0.0
1287,62.0,240,480,0.0,0.0
1288,52.0,0,960,0.0,0.0
1289,59.0,0,480,0.0,0.0
1290,64.0,240,240,0.0,0.0
1291,45.0,0,480,0.0,0.0
1292,68.0,240,240,0.0,0.0
1293,52.0,0,480,0.0,0.0
1294,69.0,240,240,0.0,0.0
1295,61.0,240,480,0.0,0.0
1296,71.0,0,240,0.0,0.0
1297,57.0,0,0,0.0,0.0
1298,45.0,0,480,0.0,0.0
1299,73.0,120,240,0.0,0.0
1300,61.0,0,480,0.0,0.0
1301,52.0,0,480,0.0,0.0
1302,74.0,60,120,0.0,0.0
1303,73.0,60,60,0.0,0.0
1304,74.0,0,60,0.0,0.0
1305,38.0,240,240,0.0,0.0
1306,73.0,240,480,0.0,0.0
1307,54.0,0,480,0.0,0.0
1308,71.0,240,240,0.0,0.0
1309,59.0,0,480,0.0,0.0
1310,62.0,240,480,0.0,0.0
1311,69.0,0,240,0.0,0.0
1312,47.0,0,480,0.0,0.0
1313,54.0,0,480,0.0,0.0
1314,68.0,240,240,0.0,0.0
1315,62.0,0,480,0.0,0.0
1316,59.0,240,480,0.0,0.0
1317,66.0,0,240,0.0,0.0
1318,40.0,0,240,0.0,0.0
1319,64.0,240,240,0.0,0.0
1320,62.0,0,480,0.0,0.0
1321,68.0,160,0,0.0,0.0
1322,52.0,0,480,0.0,0.0
1323,69.0,160,160,0.0,0.0
1324,68.0,0,160,0.0,0.0
1325,59.0,240,0,0.0,0.0
1326,66.0,240,240,0.0,0.0
1327,52.0,240,480,0.0,0.0
1328,62.0,0,480,0.0,0.0
1329,64.0,0,240,0.0,0.0
1330,69.0,240,1680,0.0,0.0
1331,33.0,720,240,0.0,0.0
1332,64.0,480,480,0.0,0.0
1333,57.0,0,0,0.0,0.0
1334,61.0,0,0,0.0,0.0
1335,67.0,0,480,0.0,0.0
1336,64.0,240,480,0.0,0.0
1337,50.0,0,240,0.0,0.0
1338,73.0,240,240,0.0,0.0
1339,66.0,0,0,0.0,0.0
1340,62.0,0,480,0.0,0.0
1341,50.0,240,480,0.0,0.0
1342,57.0,0,480,0.0,0.0
1343,74.0,240,240,0.0,0.0
1344,76.0,0,240,0.0,0.0
1345,78.0,120,240,0.0,0.0
1346,66.0,0,480,0.0,0.0
1347,50.0,240,480,0.0,0.0
1348,57.0,0,480,0.0,0.0
1349,62.0,0,480,0.0,0.0
1350,79.0,60,120,0.0,0.0
1351,78.0,60,60,0.0,0.0
1352,79.0,0,60,0.0,0.0
1353,78.0,240,480,0.0,0.0
1354,45.0,240,240,0.0,0.0
1355,76.0,240,240,0.0,0.0
1356,67.0,0,480,0.0,0.0
1357,61.0,0,480,0.0,0.0
1358,57.0,0,480,0.0,0.0
1359,74.0,0,240,0.0,0.0
1360,67.0,240,480,0.0,0.0
1361,73.0,240,240,0.0,0.0
1362,61.0,0,480,0.0,0.0
1363,57.0,0,480,0.0,0.0
1364,52.0,240,0,0.0,0.0
1365,71.0,0,240,0.0,0.0
1366,38.0,0,240,0.0,0.0
1367,69.0,240,240,0.0,0.0
1368,74.0,160,0,0.0,0.0
1369,66.0,0,480,0.0,0.0
1370,57.0,0,480,0.0,0.0
1371,76.0,160,160,0.0,0.0
1372,74.0,240,160,0.0,0.0
1373,62.0,0,0,0.0,0.0
1374,57.0,240,480,0.0,0.0
1375,50.0,0,0,0.0,0.0
1376,73.0,240,240,0.0,0.0
1377,66.0,0,480,0.0,0.0
1378,71.0,0,240,0.0,0.0
1379,73.0,0,1440,0.0,0.0
1380,45.0,720,240,0.0,0.0
1381,57.0,480,480,0.0,0.0
1382,64.0,0,480,0.0,0.0
1383,69.0,0,480,0.0,0.0
1384,67.0,240,480,0.0,0.0
1385,69.0,0,480,0.0,0.0
1386,57.0,0,480,0.0,0.0
1387,64.0,0,480,0.0,0.0
1388,50.0,0,240,0.0,0.0
1389,69.0,240,240,0.0,0.0
1390,73.0,240,240,0.0,0.0
1391,62.0,240,480,0.0,0.0
1392,74.0,240,240,0.0,0.0
1393,66.0,0,480,0.0,0.0
1394,76.0,0,240,0.0,0.0
1395,57.0,0,0,0.0,0.0
1396,50.0,0,480,0.0,0.0
1397,78.0,120,240,0.0,0.0
1398,66.0,0,480,0.0,0.0
1399,62.0,240,480,0.0,0.0
1400,79.0,60,120,0.0,0.0
1401,78.0,60,60,0.0,0.0
1402,79.0,0,60,0.0,0.0
1403,43.0,240,240,0.0,0.0
1404,78.0,240,480,0.0,0.0
1405,76.0,240,240,0.0,0.0
1406,64.0,0,480,0.0,0.0
1407,59.0,240,480,0.0,0.0
1408,67.0,0,480,0.0,0.0
1409,74.0,0,240,0.0,0.0
1410,73.0,240,240,0.0,0.0
1411,67.0,0,480,0.0,0.0
1412,52.0,0,480,0.0,0.0
1413,59.0,0,480,0.0,0.0
1414,64.0,240,480,0.0,0.0
1415,71.0,0,240,0.0,0.0
1416,69.0,240,240,0.0,0.0
1417,45.0,0,240,0.0,0.0
1418,73.0,160,240,0.0,0.0
1419,73.0,160,160,0.0,0.0
1420,57.0,0,480,0.0,0.0
1421,64.0,0,480,0.0,0.0
1422,74.0,160,160,0.0,0.0
1423,73.0,240,160,0.0,0.0
1424,71.0,240,240,0.0,0.0
1425,57.0,0,480,0.0,0.0
1426,64.0,0,480,0.0,0.0
1427,67.0,0,0,0.0,0.0
1428,69.0,240,240,0.0,0.0
1429,38.0,720,240,0.0,0.0
1430,74.0,240,1440,0.0,0.0
1431,50.0,0,480,0.0,0.0
1432,57.0,0,0,0.0,0.0
1433,62.0,480,0,0.0,0.0
1434,66.0,0,0,0.0,0.0
1435,69.0,240,240,0.0,0.0
1436,73.0,0,240,0.0,0.0
1437,74.0,240,240,0.0,0.0
1438,50.0,0,0,0.0,0.0
1439,66.0,0,0,0.0,0.0
1440,62.0,240,0,0.0,0.0
1441,57.0,0,0,0.0,0.0
1442,76.0,0,240,0.0,0.0
1443,57.0,0,0,0.0,0.0
1444,62.0,0,0,0.0,0.0
1445,50.0,0,480,0.0,0.0
1446,78.0,120,240,0.0,0.0
1447,66.0,0,480,0.0,0.0
1448,79.0,60,120,0.0,0.0
1449,78.0,60,60,0.0,0.0
1450,79.0,0,60,0.0,0.0
1451,45.0,240,240,0.0,0.0
1452,78.0,240,480,0.0,0.0
1453,76.0,240,240,0.0,0.0
1454,57.0,0,480,0.0,0.0
1455,52.0,0,480,0.0,0.0
1456,74.0,240,240,0.0,0.0
1457,61.0,0,0,0.0,0.0
1458,52.0,0,480,0.0,0.0
1459,57.0,0,480,0.0,0.0
1460,73.0,240,240,0.0,0.0
1461,67.0,0,0,0.0,0.0
1462,71.0,0,240,0.0,0.0
1463,69.0,240,240,0.0,0.0
1464,38.0,0,240,0.0,0.0
1465,74.0,160,0,0.0,0.0
1466,66.0,240,480,0.0,0.0
1467,76.0,160,160,0.0,0.0
1468,74.0,0,160,0.0,0.0
1469,62.0,0,0,0.0,0.0
1470,57.0,0,0,0.0,0.0
1471,50.0,0,0,0.0,0.0
1472,73.0,240,240,0.0,0.0
1473,66.0,0,480,0.0,0.0
1474,71.0,0,240,0.0,0.0
1475,45.0,720,240,0.0,0.0
1476,73.0,0,1440,0.0,0.0
1477,69.0,0,480,0.0,0.0
1478,61.0,480,480,0.0,0.0
1479,69.0,0,480,0.0,0.0
1480,67.0,0,480,0.0,0.0
1481,64.0,0,0,0.0,0.0
1482,57.0,0,0,0.0,0.0
1483,69.0,240,240,0.0,0.0
1484,50.0,240,480,0.0,0.0
1485,73.0,0,240,0.0,0.0
1486,74.0,240,240,0.0,0.0
1487,57.0,0,0,0.0,0.0
1488,76.0,0,240,0.0,0.0
1489,62.0,0,0,0.0,0.0
1490,66.0,0,0,0.0,0.0
1491,78.0,120,240,0.0,0.0
1492,50.0,240,480,0.0,0.0
1493,57.0,0,480,0.0,0.0
1494,79.0,60,120,0.0,0.0
1495,78.0,60,60,0.0,0.0
1496,79.0,0,60,0.0,0.0
1497,78.0,240,480,0.0,0.0
1498,43.0,240,240,0.0,0.0
1499,76.0,240,240,0.0,0.0
1500,67.0,0,480,0.0,0.0
1501,74.0,240,240,0.0,0.0
1502,64.0,0,0,0.0,0.0
1503,59.0,0,0,0.0,0.0
1504,52.0,0,480,0.0,0.0
1505,67.0,0,480,0.0,0.0
1506,73.0,240,240,0.0,0.0
1507,71.0,0,240,0.0,0.0
1508,45.0,240,240,0.0,0.0
1509,69.0,0,240,0.0,0.0
1510,67.0,0,480,0.0,0.0
1511,73.0,160,0,0.0,0.0
1512,74.0,160,160,0.0,0.0
1513,73.0,240,160,0.0,0.0
1514,64.0,0,0,0.0,0.0
1515,57.0,0,0,0.0,0.0
1516,67.0,240,480,0.0,0.0
1517,71.0,240,240,0.0,0.0
1518,69.0,0,240,0.0,0.0
1519,38.0,720,240,0.0,0.0
1520,74.0,0,1440,0.0,0.0
1521,66.0,0,480,0.0,0.0
1522,57.0,0,480,0.0,0.0
1523,62.0,0,480,0.0,0.0
1524,50.0,480,0,0.0,0.0
1525,57.0,0,480,0.0,0.0
1526,62.0,0,480,0.0,0.0
1527,66.0,0,0,0.0,0.0
1528,57.0,0,480,0.0,0.0
1529,50.0,240,0,0.0,0.0
1530,60.0,0,480,0.0,0.0
1531,69.0,0,0,0.0,0.0
1532,71.0,240,60,0.0,0.0
1533,69.0,0,240,0.0,0.0
1534,68.0,240,240,0.0,0.0
1535,59.0,0,480,0.0,0.0
1536,50.0,240,0,0.0,0.0
1537,64.0,0,240,0.0,0.0
1538,55.0,0,480,0.0,0.0
1539,50.0,0,0,0.0,0.0
1540,74.0,240,0,0.0,0.0
1541,64.0,240,240,0.0,0.0
1542,50.0,0,0,0.0,0.0
1543,58.0,240,480,0.0,0.0
1544,67.0,180,0,0.0,0.0
1545,69.0,240,60,0.0,0.0
1546,67.0,0,240,0.0,0.0
1547,66.0,240,240,0.0,0.0
1548,57.0,0,480,0.0,0.0
1549,62.0,240,240,0.0,0.0
1550,50.0,0,0,0.0,0.0
1551,66.0,240,240,0.0,0.0
1552,74.0,0,0,0.0,0.0
1553,57.0,0,480,0.0,0.0
1554,69.0,180,240,0.0,0.0
1555,50.0,0,0,0.0,0.0
1556,60.0,0,480,0.0,0.0
1557,69.0,60,180,0.0,0.0
1558,71.0,240,60,0.0,0.0
1559,69.0,240,240,0.0,0.0
1560,50.0,0,0,0.0,0.0
1561,59.0,0,480,0.0,0.0
1562,68.0,240,240,0.0,0.0
1563,50.0,0,0,0.0,0.0
1564,64.0,240,0,0.0,0.0
1565,74.0,0,0,0.0,0.0
1566,55.0,0,480,0.0,0.0
1567,67.0,0,240,0.0,0.0
1568,50.0,180,0,0.0,0.0
1569,58.0,0,480,0.0,0.0
1570,67.0,60,180,0.0,0.0
1571,69.0,240,60,0.0,0.0
1572,67.0,0,240,0.0,0.0
1573,57.0,0,480,0.0,0.0
1574,50.0,240,0,0.0,0.0
1575,66.0,240,240,0.0,0.0
1576,69.0,0,1440,0.0,0.0
1577,62.0,240,0,0.0,0.0
1578,54.0,0,480,0.0,0.0
1579,50.0,0,0,0.0,0.0
1580,66.0,0,240,0.0,0.0
1581,50.0,180,0,0.0,0.0
1582,66.0,60,180,0.0,0.0
1583,57.0,0,480,0.0,0.0
1584,67.0,240,60,0.0,0.0
1585,66.0,240,240,0.0,0.0
1586,64.0,240,240,0.0,0.0
1587,56.0,0,480,0.0,0.0
1588,50.0,240,480,0.0,0.0
1589,59.0,0,240,0.0,0.0
1590,52.0,180,480,0.0,0.0
1591,61.0,240,240,0.0,0.0
1592,64.0,0,240,0.0,0.0
1593,64.0,60,180,0.0,0.0
1594,50.0,0,0,0.0,0.0
1595,55.0,240,480,0.0,0.0
1596,66.0,240,60,0.0,0.0
1597,64.0,0,240,0.0,0.0
1598,62.0,240,240,0.0,0.0
1599,50.0,240,480,0.0,0.0
1600,57.0,0,240,0.0,0.0
1601,54.0,0,0,0.0,0.0
1602,62.0,240,240,0.0,0.0
1603,69.0,0,0,0.0,0.0
1604,50.0,180,480,0.0,0.0
1605,66.0,0,240,0.0,0.0
1606,57.0,0,480,0.0,0.0
1607,66.0,60,180,0.0,0.0
1608,67.0,240,60,0.0,0.0
1609,66.0,0,240,0.0,0.0
1610,64.0,240,240,0.0,0.0
1611,50.0,240,0,0.0,0.0
1612,56.0,0,480,0.0,0.0
1613,59.0,0,240,0.0,0.0
1614,61.0,240,240,0.0,0.0
1615,69.0,240,0,0.0,0.0
1616,52.0,180,480,0.0,0.0
1617,50.0,0,0,0.0,0.0
1618,64.0,0,0,0.0,0.0
1619,55.0,0,480,0.0,0.0
1620,66.0,240,60,0.0,0.0
1621,64.0,0,240,0.0,0.0
1622,54.0,0,480,0.0,0.0
1623,50.0,240,0,0.0,0.0
1624,62.0,240,240,0.0,0.0
1625,57.0,0,240,0.0,0.0
1626,45.0,0,480,0.0,0.0
1627,38.0,180,480,0.0,0.0
1628,54.0,240,240,0.0,0.0
1629,57.0,0,0,0.0,0.0
1630,38.0,0,480,0.0,0.0
1631,48.0,240,480,0.0,0.0
1632,59.0,240,60,0.0,0.0
1633,57.0,0,240,0.0,0.0
1634,56.0,240,240,0.0,0.0
1635,38.0,240,480,0.0,0.0
1636,47.0,0,480,0.0,0.0
1637,43.0,180,480,0.0,0.0
1638,52.0,0,0,0.0,0.0
1639,62.0,0,0,0.0,0.0
1640,38.0,0,0,0.0,0.0
1641,55.0,0,0,0.0,0.0
1642,46.0,240,480,0.0,0.0
1643,57.0,240,60,0.0,0.0
1644,55.0,0,240,0.0,0.0
1645,54.0,240,240,0.0,0.0
1646,38.0,0,0,0.0,0.0
1647,45.0,0,480,0.0,0.0
1648,50.0,0,240,0.0,0.0
1649,45.0,0,480,0.0,0.0
1650,54.0,240,240,0.0,0.0
1651,57.0,180,0,0.0,0.0
1652,38.0,0,0,0.0,0.0
1653,48.0,240,480,0.0,0.0
1654,59.0,240,60,0.0,0.0
1655,57.0,0,240,0.0,0.0
1656,56.0,240,240,0.0,0.0
1657,47.0,0,480,0.0,0.0
1658,52.0,0,240,0.0,0.0
1659,43.0,0,480,0.0,0.0
1660,38.0,0,0,0.0,0.0
1661,52.0,240,240,0.0,0.0
1662,62.0,240,0,0.0,0.0
1663,55.0,180,240,0.0,0.0
1664,38.0,0,0,0.0,0.0
1665,46.0,240,480,0.0,0.0
1666,55.0,60,180,0.0,0.0
1667,57.0,240,60,0.0,0.0
1668,55.0,0,240,0.0,0.0
1669,38.0,480,480,0.0,0.0
1670,54.0,240,240,0.0,0.0
1671,45.0,0,480,0.0,0.0
1672,50.0,0,0,0.0,0.0
1673,38.0,0,480,0.0,0.0
1674,45.0,0,480,0.0,0.0
1675,50.0,480,0,0.0,0.0
1676,57.0,0,0,0.0,0.0
1677,62.0,0,0,0.0,0.0
1678,69.0,240,0,0.0,0.0
1679,74.0,240,240,0.0,0.0
1680,81.0,120,240,0.0,0.0
1681,86.0,240,120,0.0,0.0
1682,90.0,240,120,0.0,0.0
1683,92.0,240,120,0.0,0.0
1684,93.0,240,120,0.0,0.0
1685,95.0,240,120,0.0,0.0
1686,97.0,1560,120,0.0,0.0
1687,98.0,1442,1440,0.0,0.0
