,note,step,duration,channel,velocity
0,72.0,24,96,0.0,0.0
1,41.0,24,24,0.0,0.0
2,65.0,0,24,0.0,0.0
3,60.0,24,24,0.0,0.0
4,56.0,0,24,0.0,0.0
5,77.0,24,48,0.0,0.0
6,43.0,24,24,0.0,0.0
7,75.0,24,48,0.0,0.0
8,73.0,24,48,0.0,0.0
9,58.0,0,24,0.0,0.0
10,51.0,0,24,0.0,0.0
11,63.0,24,24,0.0,0.0
12,44.0,12,24,0.0,0.0
13,72.0,12,36,0.0,0.0
14,71.0,24,12,0.0,0.0
15,60.0,0,24,0.0,0.0
16,72.0,12,36,0.0,0.0
17,68.0,12,24,0.0,0.0
18,73.0,24,12,0.0,0.0
19,72.0,24,144,0.0,0.0
20,40.0,48,24,0.0,0.0
21,58.0,0,24,0.0,0.0
22,60.0,0,24,0.0,0.0
23,67.0,48,24,0.0,0.0
24,41.0,24,24,0.0,0.0
25,65.0,24,24,0.0,0.0
26,77.0,24,48,0.0,0.0
27,56.0,0,24,0.0,0.0
28,60.0,0,24,0.0,0.0
29,43.0,24,24,0.0,0.0
30,75.0,24,48,0.0,0.0
31,73.0,24,48,0.0,0.0
32,51.0,24,24,0.0,0.0
33,58.0,0,24,0.0,0.0
34,63.0,0,24,0.0,0.0
35,72.0,12,36,0.0,0.0
36,44.0,12,24,0.0,0.0
37,71.0,24,12,0.0,0.0
38,72.0,4,32,0.0,0.0
39,60.0,0,24,0.0,0.0
40,68.0,8,24,0.0,0.0
41,75.0,12,4,0.0,0.0
42,73.0,24,12,0.0,0.0
43,40.0,48,24,0.0,0.0
44,72.0,24,144,0.0,0.0
45,67.0,0,24,0.0,0.0
46,60.0,48,24,0.0,0.0
47,58.0,0,24,0.0,0.0
48,41.0,24,24,0.0,0.0
49,56.0,24,24,0.0,0.0
50,65.0,0,24,0.0,0.0
51,77.0,24,48,0.0,0.0
52,60.0,0,24,0.0,0.0
53,43.0,24,24,0.0,0.0
54,75.0,24,48,0.0,0.0
55,51.0,24,24,0.0,0.0
56,73.0,24,48,0.0,0.0
57,58.0,0,24,0.0,0.0
58,63.0,0,24,0.0,0.0
59,72.0,9,96,0.0,0.0
60,44.0,48,24,0.0,0.0
61,68.0,0,24,0.0,0.0
62,60.0,24,24,0.0,0.0
63,70.0,6,9,0.0,0.0
64,46.0,1,24,0.0,0.0
65,72.0,5,7,0.0,0.0
66,70.0,4,6,0.0,0.0
67,72.0,4,6,0.0,0.0
68,70.0,4,5,0.0,0.0
69,72.0,4,5,0.0,0.0
70,70.0,6,5,0.0,0.0
71,69.0,5,7,0.0,0.0
72,70.0,24,6,0.0,0.0
73,72.0,12,36,0.0,0.0
74,54.0,0,24,0.0,0.0
75,61.0,0,24,0.0,0.0
76,66.0,12,24,0.0,0.0
77,73.0,24,12,0.0,0.0
78,48.0,48,24,0.0,0.0
79,68.0,44,76,0.0,0.0
80,56.0,4,24,0.0,0.0
81,60.0,0,24,0.0,0.0
82,65.0,0,24,0.0,0.0
83,58.0,2,90,0.0,0.0
84,64.0,0,80,0.0,0.0
85,36.0,24,24,0.0,0.0
86,68.0,22,48,0.0,0.0
87,67.0,12,36,0.0,0.0
88,60.0,12,24,0.0,0.0
89,48.0,0,24,0.0,0.0
90,65.0,2,12,0.0,0.0
91,56.0,22,6,0.0,0.0
92,41.0,48,24,0.0,0.0
93,65.0,26,94,0.0,0.0
94,56.0,22,24,0.0,0.0
95,60.0,0,24,0.0,0.0
96,41.0,22,24,0.0,0.0
97,72.0,26,46,0.0,0.0
98,72.0,24,96,0.0,0.0
99,55.0,48,24,0.0,0.0
100,64.0,0,24,0.0,0.0
101,41.0,24,24,0.0,0.0
102,60.0,24,24,0.0,0.0
103,65.0,0,24,0.0,0.0
104,77.0,24,48,0.0,0.0
105,56.0,0,24,0.0,0.0
106,75.0,24,48,0.0,0.0
107,43.0,24,24,0.0,0.0
108,63.0,24,24,0.0,0.0
109,58.0,0,24,0.0,0.0
110,73.0,24,48,0.0,0.0
111,51.0,0,24,0.0,0.0
112,44.0,12,24,0.0,0.0
113,72.0,12,36,0.0,0.0
114,71.0,24,12,0.0,0.0
115,68.0,12,24,0.0,0.0
116,60.0,0,24,0.0,0.0
117,72.0,12,36,0.0,0.0
118,73.0,24,12,0.0,0.0
119,40.0,48,24,0.0,0.0
120,72.0,24,144,0.0,0.0
121,67.0,48,24,0.0,0.0
122,58.0,0,24,0.0,0.0
123,60.0,0,24,0.0,0.0
124,41.0,24,24,0.0,0.0
125,77.0,24,48,0.0,0.0
126,65.0,0,24,0.0,0.0
127,60.0,24,24,0.0,0.0
128,56.0,0,24,0.0,0.0
129,43.0,24,24,0.0,0.0
130,75.0,24,48,0.0,0.0
131,58.0,0,24,0.0,0.0
132,51.0,24,24,0.0,0.0
133,73.0,24,48,0.0,0.0
134,63.0,0,24,0.0,0.0
135,44.0,12,24,0.0,0.0
136,72.0,12,36,0.0,0.0
137,71.0,24,12,0.0,0.0
138,68.0,0,24,0.0,0.0
139,60.0,6,24,0.0,0.0
140,72.0,6,30,0.0,0.0
141,75.0,12,6,0.0,0.0
142,73.0,24,12,0.0,0.0
143,72.0,24,144,0.0,0.0
144,40.0,48,24,0.0,0.0
145,58.0,0,24,0.0,0.0
146,67.0,0,24,0.0,0.0
147,60.0,48,24,0.0,0.0
148,41.0,24,24,0.0,0.0
149,77.0,24,48,0.0,0.0
150,65.0,0,24,0.0,0.0
151,60.0,24,24,0.0,0.0
152,56.0,0,24,0.0,0.0
153,75.0,24,48,0.0,0.0
154,43.0,24,24,0.0,0.0
155,58.0,0,24,0.0,0.0
156,63.0,0,24,0.0,0.0
157,73.0,24,48,0.0,0.0
158,51.0,24,24,0.0,0.0
159,44.0,48,24,0.0,0.0
160,72.0,8,72,0.0,0.0
161,60.0,0,24,0.0,0.0
162,68.0,0,24,0.0,0.0
163,69.0,8,8,0.0,0.0
164,70.0,8,8,0.0,0.0
165,72.0,7,8,0.0,0.0
166,46.0,3,24,0.0,0.0
167,70.0,5,7,0.0,0.0
168,72.0,5,6,0.0,0.0
169,70.0,5,6,0.0,0.0
170,72.0,2,6,0.0,0.0
171,70.0,5,6,0.0,0.0
172,72.0,5,6,0.0,0.0
173,70.0,4,6,0.0,0.0
174,72.0,4,5,0.0,0.0
175,70.0,4,5,0.0,0.0
176,72.0,4,5,0.0,0.0
177,70.0,4,5,0.0,0.0
178,54.0,0,24,0.0,0.0
179,61.0,0,24,0.0,0.0
180,66.0,3,24,0.0,0.0
181,72.0,4,5,0.0,0.0
182,70.0,7,5,0.0,0.0
183,69.0,4,7,0.0,0.0
184,70.0,7,7,0.0,0.0
185,72.0,7,7,0.0,0.0
186,75.0,7,7,0.0,0.0
187,73.0,24,7,0.0,0.0
188,68.0,4,78,0.0,0.0
189,48.0,48,24,0.0,0.0
190,56.0,6,24,0.0,0.0
191,65.0,0,24,0.0,0.0
192,60.0,0,24,0.0,0.0
193,58.0,38,4,0.0,0.0
194,58.0,6,78,0.0,0.0
195,64.0,0,72,0.0,0.0
196,36.0,24,24,0.0,0.0
197,68.0,18,48,0.0,0.0
198,67.0,8,36,0.0,0.0
199,60.0,12,24,0.0,0.0
200,48.0,0,24,0.0,0.0
201,65.0,6,8,0.0,0.0
202,56.0,22,6,0.0,0.0
203,65.0,30,90,0.0,0.0
204,41.0,66,24,0.0,0.0
205,60.0,0,96,0.0,0.0
206,53.0,24,24,0.0,0.0
207,68.0,46,0,0.0,0.0
208,52.0,0,46,0.0,0.0
209,56.0,0,0,0.0,0.0
210,62.0,0,46,0.0,0.0
211,70.0,24,48,0.0,0.0
212,51.0,6,90,0.0,0.0
213,62.0,18,24,0.0,0.0
214,56.0,0,24,0.0,0.0
215,61.0,0,24,0.0,0.0
216,63.0,24,24,0.0,0.0
217,65.0,24,24,0.0,0.0
218,39.0,0,24,0.0,0.0
219,63.0,24,24,0.0,0.0
220,55.0,0,24,0.0,0.0
221,61.0,24,24,0.0,0.0
222,68.0,0,24,0.0,0.0
223,70.0,24,24,0.0,0.0
224,44.0,48,24,0.0,0.0
225,72.0,30,90,0.0,0.0
226,51.0,18,24,0.0,0.0
227,56.0,0,24,0.0,0.0
228,60.0,0,24,0.0,0.0
229,44.0,20,24,0.0,0.0
230,72.0,28,44,0.0,0.0
231,72.0,24,48,0.0,0.0
232,50.0,0,24,0.0,0.0
233,53.0,0,24,0.0,0.0
234,60.0,24,24,0.0,0.0
235,43.0,24,24,0.0,0.0
236,74.0,24,48,0.0,0.0
237,66.0,0,24,0.0,0.0
238,60.0,24,24,0.0,0.0
239,53.0,0,24,0.0,0.0
240,50.0,0,24,0.0,0.0
241,67.0,24,24,0.0,0.0
242,43.0,12,24,0.0,0.0
243,68.0,12,36,0.0,0.0
244,67.0,24,12,0.0,0.0
245,72.0,0,24,0.0,0.0
246,50.0,0,24,0.0,0.0
247,53.0,24,24,0.0,0.0
248,59.0,0,24,0.0,0.0
249,74.0,24,24,0.0,0.0
250,36.0,48,24,0.0,0.0
251,76.0,24,96,0.0,0.0
252,67.0,24,24,0.0,0.0
253,58.0,0,24,0.0,0.0
254,60.0,0,24,0.0,0.0
255,77.0,24,48,0.0,0.0
256,48.0,24,24,0.0,0.0
257,56.0,0,24,0.0,0.0
258,60.0,12,24,0.0,0.0
259,68.0,0,24,0.0,0.0
260,75.0,12,36,0.0,0.0
261,73.0,24,12,0.0,0.0
262,48.0,24,24,0.0,0.0
263,73.0,24,48,0.0,0.0
264,55.0,24,24,0.0,0.0
265,72.0,24,48,0.0,0.0
266,63.0,0,24,0.0,0.0
267,73.0,24,48,0.0,0.0
268,48.0,24,24,0.0,0.0
269,53.0,0,24,0.0,0.0
270,72.0,12,36,0.0,0.0
271,65.0,0,24,0.0,0.0
272,56.0,12,24,0.0,0.0
273,48.0,6,90,0.0,0.0
274,70.0,48,0,0.0,0.0
275,60.0,42,48,0.0,0.0
276,51.0,0,48,0.0,0.0
277,68.0,0,48,0.0,0.0
278,67.0,6,42,0.0,0.0
279,48.0,6,90,0.0,0.0
280,70.0,36,6,0.0,0.0
281,53.0,0,48,0.0,0.0
282,59.0,0,48,0.0,0.0
283,49.0,0,48,0.0,0.0
284,68.0,6,36,0.0,0.0
285,67.0,48,12,0.0,0.0
286,48.0,6,90,0.0,0.0
287,60.0,0,48,0.0,0.0
288,52.0,0,48,0.0,0.0
289,67.0,42,0,0.0,0.0
290,48.0,6,90,0.0,0.0
291,67.0,42,0,0.0,0.0
292,70.0,36,6,0.0,0.0
293,53.0,6,90,0.0,0.0
294,59.0,0,90,0.0,0.0
295,49.0,0,48,0.0,0.0
296,68.0,6,36,0.0,0.0
297,67.0,42,12,0.0,0.0
298,48.0,0,138,0.0,0.0
299,67.0,42,48,0.0,0.0
300,72.0,42,42,0.0,0.0
301,52.0,78,90,0.0,0.0
302,58.0,0,90,0.0,0.0
303,72.0,6,36,0.0,0.0
304,72.0,24,96,0.0,0.0
305,41.0,24,24,0.0,0.0
306,56.0,0,24,0.0,0.0
307,65.0,24,24,0.0,0.0
308,77.0,24,48,0.0,0.0
309,60.0,0,24,0.0,0.0
310,75.0,24,48,0.0,0.0
311,43.0,24,24,0.0,0.0
312,73.0,24,48,0.0,0.0
313,58.0,0,24,0.0,0.0
314,51.0,0,24,0.0,0.0
315,63.0,24,24,0.0,0.0
316,44.0,12,24,0.0,0.0
317,72.0,12,36,0.0,0.0
318,71.0,24,12,0.0,0.0
319,68.0,12,24,0.0,0.0
320,72.0,12,36,0.0,0.0
321,60.0,0,24,0.0,0.0
322,73.0,24,12,0.0,0.0
323,72.0,16,144,0.0,0.0
324,40.0,48,24,0.0,0.0
325,67.0,0,24,0.0,0.0
326,60.0,48,24,0.0,0.0
327,58.0,0,24,0.0,0.0
328,41.0,24,24,0.0,0.0
329,76.0,8,16,0.0,0.0
330,65.0,0,24,0.0,0.0
331,60.0,0,24,0.0,0.0
332,56.0,8,24,0.0,0.0
333,79.0,16,16,0.0,0.0
334,77.0,16,16,0.0,0.0
335,43.0,8,24,0.0,0.0
336,75.0,8,16,0.0,0.0
337,63.0,16,16,0.0,0.0
338,70.0,16,16,0.0,0.0
339,72.0,8,16,0.0,0.0
340,63.0,8,24,0.0,0.0
341,58.0,0,24,0.0,0.0
342,51.0,0,24,0.0,0.0
343,75.0,16,16,0.0,0.0
344,73.0,16,16,0.0,0.0
345,44.0,8,24,0.0,0.0
346,72.0,8,16,0.0,0.0
347,60.0,16,16,0.0,0.0
348,68.0,8,16,0.0,0.0
349,63.0,16,0,0.0,0.0
350,56.0,0,24,0.0,0.0
351,51.0,0,24,0.0,0.0
352,71.0,16,16,0.0,0.0
353,73.0,24,16,0.0,0.0
354,72.0,24,144,0.0,0.0
355,40.0,48,24,0.0,0.0
356,60.0,0,24,0.0,0.0
357,67.0,0,24,0.0,0.0
358,58.0,48,24,0.0,0.0
359,41.0,24,24,0.0,0.0
360,60.0,0,24,0.0,0.0
361,77.0,24,48,0.0,0.0
362,56.0,24,24,0.0,0.0
363,65.0,0,24,0.0,0.0
364,43.0,24,24,0.0,0.0
365,75.0,24,48,0.0,0.0
366,51.0,24,24,0.0,0.0
367,58.0,0,24,0.0,0.0
368,63.0,0,24,0.0,0.0
369,73.0,24,48,0.0,0.0
370,44.0,48,24,0.0,0.0
371,72.0,8,72,0.0,0.0
372,51.0,0,24,0.0,0.0
373,63.0,0,24,0.0,0.0
374,60.0,0,24,0.0,0.0
375,56.0,0,24,0.0,0.0
376,69.0,8,8,0.0,0.0
377,70.0,8,8,0.0,0.0
378,72.0,6,8,0.0,0.0
379,46.0,2,24,0.0,0.0
380,70.0,5,6,0.0,0.0
381,72.0,5,5,0.0,0.0
382,70.0,5,5,0.0,0.0
383,72.0,3,5,0.0,0.0
384,70.0,5,5,0.0,0.0
385,72.0,5,5,0.0,0.0
386,70.0,4,5,0.0,0.0
387,72.0,4,4,0.0,0.0
388,70.0,4,4,0.0,0.0
389,72.0,4,4,0.0,0.0
390,66.0,0,24,0.0,0.0
391,70.0,4,4,0.0,0.0
392,54.0,7,24,0.0,0.0
393,61.0,0,24,0.0,0.0
394,72.0,5,4,0.0,0.0
395,70.0,9,5,0.0,0.0
396,69.0,2,9,0.0,0.0
397,70.0,8,9,0.0,0.0
398,72.0,9,8,0.0,0.0
399,73.0,24,9,0.0,0.0
400,48.0,48,24,0.0,0.0
401,68.0,4,78,0.0,0.0
402,56.0,6,24,0.0,0.0
403,65.0,0,24,0.0,0.0
404,60.0,0,24,0.0,0.0
405,58.0,38,4,0.0,0.0
406,58.0,6,78,0.0,0.0
407,64.0,0,72,0.0,0.0
408,68.0,18,48,0.0,0.0
409,36.0,24,24,0.0,0.0
410,60.0,12,24,0.0,0.0
411,48.0,0,24,0.0,0.0
412,67.0,8,36,0.0,0.0
413,65.0,6,8,0.0,0.0
414,56.0,22,6,0.0,0.0
415,65.0,30,90,0.0,0.0
416,41.0,66,24,0.0,0.0
417,56.0,0,96,0.0,0.0
418,60.0,46,96,0.0,0.0
419,53.0,24,24,0.0,0.0
420,68.0,0,0,0.0,0.0
421,52.0,2,46,0.0,0.0
422,56.0,0,46,0.0,0.0
423,62.0,0,46,0.0,0.0
424,70.0,24,48,0.0,0.0
425,51.0,6,90,0.0,0.0
426,56.0,18,24,0.0,0.0
427,61.0,0,24,0.0,0.0
428,62.0,0,24,0.0,0.0
429,63.0,24,24,0.0,0.0
430,39.0,24,24,0.0,0.0
431,65.0,0,24,0.0,0.0
432,63.0,24,24,0.0,0.0
433,55.0,0,24,0.0,0.0
434,61.0,24,24,0.0,0.0
435,68.0,0,24,0.0,0.0
436,70.0,24,24,0.0,0.0
437,44.0,48,24,0.0,0.0
438,72.0,30,90,0.0,0.0
439,56.0,0,24,0.0,0.0
440,51.0,0,24,0.0,0.0
441,60.0,18,24,0.0,0.0
442,72.0,28,44,0.0,0.0
443,44.0,20,24,0.0,0.0
444,60.0,24,24,0.0,0.0
445,50.0,0,24,0.0,0.0
446,72.0,24,48,0.0,0.0
447,53.0,0,24,0.0,0.0
448,43.0,24,24,0.0,0.0
449,74.0,24,48,0.0,0.0
450,66.0,0,24,0.0,0.0
451,53.0,0,24,0.0,0.0
452,60.0,0,24,0.0,0.0
453,50.0,24,24,0.0,0.0
454,67.0,24,24,0.0,0.0
455,43.0,12,24,0.0,0.0
456,68.0,12,36,0.0,0.0
457,67.0,24,12,0.0,0.0
458,59.0,0,24,0.0,0.0
459,53.0,24,24,0.0,0.0
460,50.0,0,24,0.0,0.0
461,72.0,0,24,0.0,0.0
462,74.0,24,24,0.0,0.0
463,36.0,48,24,0.0,0.0
464,76.0,24,96,0.0,0.0
465,58.0,0,24,0.0,0.0
466,60.0,0,24,0.0,0.0
467,67.0,24,24,0.0,0.0
468,48.0,24,24,0.0,0.0
469,77.0,24,48,0.0,0.0
470,68.0,0,24,0.0,0.0
471,56.0,10,24,0.0,0.0
472,60.0,0,24,0.0,0.0
473,75.0,14,34,0.0,0.0
474,73.0,24,12,0.0,0.0
475,48.0,24,24,0.0,0.0
476,73.0,24,48,0.0,0.0
477,63.0,0,24,0.0,0.0
478,55.0,24,24,0.0,0.0
479,72.0,24,48,0.0,0.0
480,48.0,24,24,0.0,0.0
481,73.0,24,48,0.0,0.0
482,65.0,0,24,0.0,0.0
483,72.0,12,36,0.0,0.0
484,56.0,12,24,0.0,0.0
485,53.0,0,24,0.0,0.0
486,70.0,48,12,0.0,0.0
487,70.0,42,48,0.0,0.0
488,48.0,6,90,0.0,0.0
489,51.0,0,48,0.0,0.0
490,60.0,42,48,0.0,0.0
491,68.0,0,48,0.0,0.0
492,48.0,6,90,0.0,0.0
493,67.0,6,42,0.0,0.0
494,70.0,36,6,0.0,0.0
495,49.0,0,48,0.0,0.0
496,53.0,0,48,0.0,0.0
497,68.0,6,36,0.0,0.0
498,59.0,0,48,0.0,0.0
499,48.0,4,90,0.0,0.0
500,67.0,48,0,0.0,0.0
501,67.0,42,0,0.0,0.0
502,52.0,42,48,0.0,0.0
503,60.0,0,48,0.0,0.0
504,48.0,6,90,0.0,0.0
505,67.0,6,42,0.0,0.0
506,70.0,36,6,0.0,0.0
507,68.0,6,36,0.0,0.0
508,49.0,42,48,0.0,0.0
509,53.0,6,90,0.0,0.0
510,59.0,0,90,0.0,0.0
511,67.0,0,12,0.0,0.0
512,67.0,48,48,0.0,0.0
513,48.0,0,138,0.0,0.0
514,52.0,4,90,0.0,0.0
515,58.0,0,90,0.0,0.0
516,72.0,42,48,0.0,0.0
517,72.0,74,46,0.0,0.0
518,72.0,24,96,0.0,0.0
519,41.0,24,24,0.0,0.0
520,65.0,0,24,0.0,0.0
521,77.0,24,48,0.0,0.0
522,56.0,24,24,0.0,0.0
523,60.0,0,24,0.0,0.0
524,75.0,24,48,0.0,0.0
525,43.0,24,24,0.0,0.0
526,58.0,0,24,0.0,0.0
527,73.0,24,48,0.0,0.0
528,51.0,0,24,0.0,0.0
529,63.0,24,24,0.0,0.0
530,44.0,12,24,0.0,0.0
531,72.0,12,36,0.0,0.0
532,71.0,24,12,0.0,0.0
533,72.0,6,30,0.0,0.0
534,68.0,6,24,0.0,0.0
535,60.0,0,24,0.0,0.0
536,75.0,12,6,0.0,0.0
537,73.0,24,12,0.0,0.0
538,40.0,48,24,0.0,0.0
539,72.0,16,144,0.0,0.0
540,58.0,0,24,0.0,0.0
541,60.0,0,24,0.0,0.0
542,67.0,48,24,0.0,0.0
543,41.0,24,24,0.0,0.0
544,56.0,8,24,0.0,0.0
545,60.0,0,24,0.0,0.0
546,65.0,0,24,0.0,0.0
547,76.0,8,16,0.0,0.0
548,79.0,16,16,0.0,0.0
549,77.0,16,16,0.0,0.0
550,75.0,8,16,0.0,0.0
551,43.0,8,24,0.0,0.0
552,63.0,16,16,0.0,0.0
553,70.0,16,16,0.0,0.0
554,72.0,8,16,0.0,0.0
555,51.0,0,24,0.0,0.0
556,58.0,0,24,0.0,0.0
557,63.0,8,24,0.0,0.0
558,75.0,16,16,0.0,0.0
559,73.0,16,16,0.0,0.0
560,72.0,8,16,0.0,0.0
561,44.0,8,24,0.0,0.0
562,60.0,16,16,0.0,0.0
563,56.0,0,24,0.0,0.0
564,63.0,12,0,0.0,0.0
565,51.0,0,24,0.0,0.0
566,68.0,12,12,0.0,0.0
567,71.0,0,12,0.0,0.0
568,73.0,4,8,0.0,0.0
569,75.0,12,4,0.0,0.0
570,73.0,24,12,0.0,0.0
571,72.0,24,144,0.0,0.0
572,40.0,48,24,0.0,0.0
573,60.0,0,24,0.0,0.0
574,67.0,48,24,0.0,0.0
575,58.0,0,24,0.0,0.0
576,41.0,24,24,0.0,0.0
577,77.0,24,48,0.0,0.0
578,60.0,0,24,0.0,0.0
579,65.0,0,24,0.0,0.0
580,56.0,24,24,0.0,0.0
581,75.0,24,48,0.0,0.0
582,43.0,24,24,0.0,0.0
583,58.0,0,24,0.0,0.0
584,73.0,24,48,0.0,0.0
585,51.0,24,24,0.0,0.0
586,63.0,0,24,0.0,0.0
587,44.0,48,24,0.0,0.0
588,72.0,8,72,0.0,0.0
589,51.0,0,24,0.0,0.0
590,60.0,0,24,0.0,0.0
591,63.0,0,24,0.0,0.0
592,56.0,0,24,0.0,0.0
593,69.0,8,8,0.0,0.0
594,70.0,8,8,0.0,0.0
595,72.0,6,8,0.0,0.0
596,46.0,2,24,0.0,0.0
597,70.0,5,6,0.0,0.0
598,72.0,5,5,0.0,0.0
599,70.0,5,5,0.0,0.0
600,72.0,3,5,0.0,0.0
601,70.0,5,5,0.0,0.0
602,72.0,5,5,0.0,0.0
603,70.0,4,5,0.0,0.0
604,72.0,4,4,0.0,0.0
605,70.0,4,4,0.0,0.0
606,72.0,4,4,0.0,0.0
607,54.0,0,24,0.0,0.0
608,61.0,4,24,0.0,0.0
609,66.0,0,24,0.0,0.0
610,70.0,4,4,0.0,0.0
611,72.0,4,4,0.0,0.0
612,70.0,4,4,0.0,0.0
613,69.0,6,4,0.0,0.0
614,70.0,2,4,0.0,0.0
615,71.0,6,4,0.0,0.0
616,72.0,6,4,0.0,0.0
617,75.0,6,4,0.0,0.0
618,73.0,26,4,0.0,0.0
619,68.0,6,76,0.0,0.0
620,48.0,48,24,0.0,0.0
621,60.0,0,24,0.0,0.0
622,65.0,0,24,0.0,0.0
623,56.0,4,24,0.0,0.0
624,58.0,38,4,0.0,0.0
625,58.0,6,78,0.0,0.0
626,64.0,0,72,0.0,0.0
627,36.0,24,24,0.0,0.0
628,68.0,18,48,0.0,0.0
629,60.0,0,24,0.0,0.0
630,48.0,12,24,0.0,0.0
631,67.0,12,36,0.0,0.0
632,65.0,46,12,0.0,0.0
633,53.0,0,46,0.0,0.0
634,60.0,0,46,0.0,0.0
635,56.0,0,46,0.0,0.0
636,65.0,18,46,0.0,0.0
637,47.0,0,16,0.0,0.0
638,59.0,16,16,0.0,0.0
639,60.0,16,16,0.0,0.0
640,48.0,0,16,0.0,0.0
641,49.0,0,16,0.0,0.0
642,61.0,16,16,0.0,0.0
643,48.0,0,16,0.0,0.0
644,60.0,16,16,0.0,0.0
645,55.0,16,16,0.0,0.0
646,43.0,0,16,0.0,0.0
647,46.0,0,16,0.0,0.0
648,58.0,16,16,0.0,0.0
649,44.0,0,16,0.0,0.0
650,56.0,16,16,0.0,0.0
651,40.0,16,16,0.0,0.0
652,52.0,0,16,0.0,0.0
653,55.0,0,16,0.0,0.0
654,43.0,12,16,0.0,0.0
655,53.0,132,12,0.0,0.0
656,41.0,0,12,0.0,0.0
657,77.0,0,96,0.0,0.0
658,60.0,48,96,0.0,0.0
659,68.0,0,96,0.0,0.0
660,67.0,0,48,0.0,0.0
661,70.0,0,48,0.0,0.0
662,77.0,0,48,0.0,0.0
663,65.0,0,0,0.0,0.0
664,61.0,0,48,0.0,0.0
665,53.0,0,0,0.0,0.0
666,68.0,18,46,0.0,0.0
667,72.0,0,46,0.0,0.0
668,77.0,0,46,0.0,0.0
669,53.0,0,46,0.0,0.0
670,60.0,0,46,0.0,0.0
671,65.0,0,46,0.0,0.0
672,47.0,0,16,0.0,0.0
673,59.0,16,16,0.0,0.0
674,48.0,0,16,0.0,0.0
675,60.0,16,16,0.0,0.0
676,49.0,16,16,0.0,0.0
677,61.0,0,16,0.0,0.0
678,60.0,0,16,0.0,0.0
679,48.0,16,16,0.0,0.0
680,55.0,0,16,0.0,0.0
681,43.0,16,16,0.0,0.0
682,58.0,16,16,0.0,0.0
683,46.0,0,16,0.0,0.0
684,56.0,16,16,0.0,0.0
685,44.0,0,16,0.0,0.0
686,40.0,0,16,0.0,0.0
687,52.0,16,16,0.0,0.0
688,41.0,12,16,0.0,0.0
689,53.0,0,16,0.0,0.0
690,43.0,132,12,0.0,0.0
691,55.0,0,12,0.0,0.0
692,55.0,0,96,0.0,0.0
693,67.0,0,96,0.0,0.0
694,75.0,0,96,0.0,0.0
695,63.0,42,96,0.0,0.0
696,60.0,0,96,0.0,0.0
697,74.0,0,42,0.0,0.0
698,55.0,36,48,0.0,0.0
699,65.0,0,42,0.0,0.0
700,67.0,6,42,0.0,0.0
701,59.0,0,48,0.0,0.0
702,74.0,0,6,0.0,0.0
703,72.0,0,36,0.0,0.0
704,60.0,12,36,0.0,0.0
705,63.0,0,36,0.0,0.0
706,55.0,0,36,0.0,0.0
707,71.0,0,12,0.0,0.0
708,67.0,0,0,0.0,0.0
709,65.0,0,12,0.0,0.0
710,48.0,0,0,0.0,0.0
711,55.0,0,12,0.0,0.0
712,62.0,0,12,0.0,0.0
713,63.0,18,46,0.0,0.0
714,67.0,0,46,0.0,0.0
715,48.0,46,0,0.0,0.0
716,55.0,0,46,0.0,0.0
717,60.0,0,46,0.0,0.0
718,72.0,0,46,0.0,0.0
719,54.0,16,16,0.0,0.0
720,42.0,0,16,0.0,0.0
721,55.0,16,16,0.0,0.0
722,43.0,0,16,0.0,0.0
723,56.0,0,16,0.0,0.0
724,44.0,16,16,0.0,0.0
725,55.0,0,16,0.0,0.0
726,43.0,16,16,0.0,0.0
727,50.0,0,16,0.0,0.0
728,38.0,16,16,0.0,0.0
729,51.0,12,16,0.0,0.0
730,39.0,0,16,0.0,0.0
731,36.0,132,12,0.0,0.0
732,48.0,0,12,0.0,0.0
733,55.0,0,96,0.0,0.0
734,48.0,0,96,0.0,0.0
735,72.0,0,96,0.0,0.0
736,63.0,0,96,0.0,0.0
737,56.0,0,48,0.0,0.0
738,60.0,48,0,0.0,0.0
739,72.0,0,48,0.0,0.0
740,65.0,0,48,0.0,0.0
741,62.0,0,48,0.0,0.0
742,72.0,0,46,0.0,0.0
743,67.0,0,46,0.0,0.0
744,63.0,0,46,0.0,0.0
745,48.0,46,0,0.0,0.0
746,55.0,18,46,0.0,0.0
747,60.0,0,46,0.0,0.0
748,54.0,0,16,0.0,0.0
749,42.0,16,16,0.0,0.0
750,55.0,16,16,0.0,0.0
751,43.0,0,16,0.0,0.0
752,56.0,0,16,0.0,0.0
753,44.0,16,16,0.0,0.0
754,43.0,16,16,0.0,0.0
755,55.0,0,16,0.0,0.0
756,50.0,16,16,0.0,0.0
757,38.0,0,16,0.0,0.0
758,53.0,0,16,0.0,0.0
759,41.0,16,16,0.0,0.0
760,39.0,0,16,0.0,0.0
761,51.0,16,16,0.0,0.0
762,35.0,0,16,0.0,0.0
763,47.0,16,16,0.0,0.0
764,36.0,0,16,0.0,0.0
765,48.0,12,16,0.0,0.0
766,50.0,132,12,0.0,0.0
767,38.0,0,12,0.0,0.0
768,55.0,0,96,0.0,0.0
769,70.0,0,96,0.0,0.0
770,58.0,0,96,0.0,0.0
771,62.0,0,96,0.0,0.0
772,50.0,34,0,0.0,0.0
773,54.0,36,48,0.0,0.0
774,60.0,0,34,0.0,0.0
775,62.0,0,34,0.0,0.0
776,69.0,6,34,0.0,0.0
777,69.0,8,6,0.0,0.0
778,58.0,0,44,0.0,0.0
779,50.0,0,0,0.0,0.0
780,43.0,0,36,0.0,0.0
781,55.0,0,36,0.0,0.0
782,67.0,12,36,0.0,0.0
783,57.0,36,12,0.0,0.0
784,66.0,0,12,0.0,0.0
785,62.0,0,0,0.0,0.0
786,60.0,0,12,0.0,0.0
787,67.0,0,36,0.0,0.0
788,62.0,0,0,0.0,0.0
789,50.0,0,0,0.0,0.0
790,43.0,0,0,0.0,0.0
791,58.0,0,36,0.0,0.0
792,67.0,48,0,0.0,0.0
793,73.0,16,96,0.0,0.0
794,40.0,16,16,0.0,0.0
795,49.0,16,16,0.0,0.0
796,46.0,46,16,0.0,0.0
797,55.0,2,46,0.0,0.0
798,72.0,16,16,0.0,0.0
799,40.0,0,16,0.0,0.0
800,73.0,0,16,0.0,0.0
801,49.0,16,16,0.0,0.0
802,72.0,16,16,0.0,0.0
803,46.0,0,16,0.0,0.0
804,55.0,2,46,0.0,0.0
805,73.0,16,16,0.0,0.0
806,75.0,14,16,0.0,0.0
807,73.0,16,16,0.0,0.0
808,70.0,2,46,0.0,0.0
809,41.0,16,16,0.0,0.0
810,72.0,0,48,0.0,0.0
811,48.0,14,16,0.0,0.0
812,44.0,46,16,0.0,0.0
813,68.0,0,46,0.0,0.0
814,56.0,2,46,0.0,0.0
815,67.0,2,46,0.0,0.0
816,77.0,16,0,0.0,0.0
817,44.0,16,16,0.0,0.0
818,53.0,14,16,0.0,0.0
819,48.0,46,16,0.0,0.0
820,60.0,0,46,0.0,0.0
821,65.0,0,46,0.0,0.0
822,65.0,2,94,0.0,0.0
823,73.0,16,96,0.0,0.0
824,43.0,16,16,0.0,0.0
825,53.0,16,16,0.0,0.0
826,49.0,46,16,0.0,0.0
827,58.0,0,46,0.0,0.0
828,64.0,2,94,0.0,0.0
829,43.0,0,16,0.0,0.0
830,72.0,16,16,0.0,0.0
831,73.0,0,16,0.0,0.0
832,52.0,16,16,0.0,0.0
833,48.0,0,16,0.0,0.0
834,72.0,16,16,0.0,0.0
835,73.0,16,16,0.0,0.0
836,58.0,0,46,0.0,0.0
837,75.0,14,16,0.0,0.0
838,73.0,16,16,0.0,0.0
839,44.0,16,16,0.0,0.0
840,72.0,46,48,0.0,0.0
841,67.0,2,94,0.0,0.0
842,55.0,16,16,0.0,0.0
843,48.0,0,16,0.0,0.0
844,60.0,0,46,0.0,0.0
845,77.0,16,48,0.0,0.0
846,65.0,18,94,0.0,0.0
847,44.0,16,16,0.0,0.0
848,77.0,0,94,0.0,0.0
849,53.0,16,16,0.0,0.0
850,48.0,46,16,0.0,0.0
851,60.0,0,46,0.0,0.0
852,45.0,16,16,0.0,0.0
853,75.0,2,238,0.0,0.0
854,78.0,16,96,0.0,0.0
855,54.0,16,16,0.0,0.0
856,51.0,46,16,0.0,0.0
857,60.0,2,46,0.0,0.0
858,77.0,0,16,0.0,0.0
859,45.0,16,16,0.0,0.0
860,78.0,0,16,0.0,0.0
861,54.0,16,16,0.0,0.0
862,77.0,16,16,0.0,0.0
863,51.0,0,16,0.0,0.0
864,60.0,2,46,0.0,0.0
865,78.0,16,16,0.0,0.0
866,80.0,14,16,0.0,0.0
867,78.0,16,16,0.0,0.0
868,46.0,16,16,0.0,0.0
869,77.0,46,48,0.0,0.0
870,53.0,14,16,0.0,0.0
871,49.0,0,16,0.0,0.0
872,61.0,2,46,0.0,0.0
873,82.0,16,48,0.0,0.0
874,73.0,0,46,0.0,0.0
875,49.0,16,16,0.0,0.0
876,72.0,2,46,0.0,0.0
877,82.0,18,94,0.0,0.0
878,58.0,14,16,0.0,0.0
879,53.0,46,16,0.0,0.0
880,65.0,0,46,0.0,0.0
881,70.0,0,46,0.0,0.0
882,48.0,16,16,0.0,0.0
883,78.0,16,96,0.0,0.0
884,70.0,2,94,0.0,0.0
885,58.0,16,16,0.0,0.0
886,54.0,46,16,0.0,0.0
887,63.0,0,46,0.0,0.0
888,48.0,0,16,0.0,0.0
889,77.0,16,16,0.0,0.0
890,69.0,2,94,0.0,0.0
891,57.0,0,16,0.0,0.0
892,78.0,16,16,0.0,0.0
893,77.0,0,16,0.0,0.0
894,53.0,16,16,0.0,0.0
895,78.0,16,16,0.0,0.0
896,63.0,0,46,0.0,0.0
897,80.0,14,16,0.0,0.0
898,78.0,16,16,0.0,0.0
899,49.0,16,16,0.0,0.0
900,72.0,0,94,0.0,0.0
901,77.0,0,48,0.0,0.0
902,60.0,16,16,0.0,0.0
903,53.0,46,16,0.0,0.0
904,82.0,16,48,0.0,0.0
905,65.0,2,46,0.0,0.0
906,70.0,0,94,0.0,0.0
907,49.0,16,16,0.0,0.0
908,82.0,18,94,0.0,0.0
909,58.0,16,16,0.0,0.0
910,53.0,46,16,0.0,0.0
911,65.0,0,46,0.0,0.0
912,82.0,16,96,0.0,0.0
913,70.0,0,190,0.0,0.0
914,73.0,0,190,0.0,0.0
915,37.0,16,16,0.0,0.0
916,58.0,16,16,0.0,0.0
917,54.0,46,16,0.0,0.0
918,66.0,2,46,0.0,0.0
919,49.0,16,16,0.0,0.0
920,80.0,22,72,0.0,0.0
921,58.0,16,16,0.0,0.0
922,54.0,24,16,0.0,0.0
923,66.0,2,46,0.0,0.0
924,66.0,0,96,0.0,0.0
925,70.0,2,190,0.0,0.0
926,78.0,16,0,0.0,0.0
927,49.0,16,16,0.0,0.0
928,58.0,16,16,0.0,0.0
929,54.0,46,16,0.0,0.0
930,61.0,2,46,0.0,0.0
931,65.0,16,96,0.0,0.0
932,77.0,0,96,0.0,0.0
933,49.0,16,16,0.0,0.0
934,58.0,16,16,0.0,0.0
935,54.0,46,16,0.0,0.0
936,61.0,0,46,0.0,0.0
937,70.0,0,286,0.0,0.0
938,49.0,16,16,0.0,0.0
939,65.0,16,96,0.0,0.0
940,77.0,0,96,0.0,0.0
941,58.0,16,16,0.0,0.0
942,55.0,46,16,0.0,0.0
943,61.0,2,46,0.0,0.0
944,49.0,16,16,0.0,0.0
945,64.0,0,192,0.0,0.0
946,76.0,16,192,0.0,0.0
947,58.0,16,16,0.0,0.0
948,55.0,46,16,0.0,0.0
949,61.0,18,46,0.0,0.0
950,49.0,16,16,0.0,0.0
951,58.0,16,16,0.0,0.0
952,55.0,46,16,0.0,0.0
953,61.0,2,46,0.0,0.0
954,70.0,0,94,0.0,0.0
955,76.0,0,72,0.0,0.0
956,49.0,16,16,0.0,0.0
957,64.0,22,72,0.0,0.0
958,58.0,16,16,0.0,0.0
959,55.0,24,16,0.0,0.0
960,61.0,2,46,0.0,0.0
961,77.0,0,24,0.0,0.0
962,49.0,0,46,0.0,0.0
963,56.0,0,46,0.0,0.0
964,59.0,14,46,0.0,0.0
965,65.0,46,0,0.0,0.0
966,68.0,0,46,0.0,0.0
967,77.0,0,46,0.0,0.0
968,89.0,12,12,0.0,0.0
969,87.0,12,12,0.0,0.0
970,85.0,12,12,0.0,0.0
971,84.0,12,12,0.0,0.0
972,83.0,12,12,0.0,0.0
973,80.0,12,12,0.0,0.0
974,79.0,12,12,0.0,0.0
975,77.0,12,12,0.0,0.0
976,76.0,12,12,0.0,0.0
977,77.0,12,12,0.0,0.0
978,75.0,12,12,0.0,0.0
979,73.0,12,12,0.0,0.0
980,72.0,12,12,0.0,0.0
981,71.0,12,12,0.0,0.0
982,68.0,12,12,0.0,0.0
983,67.0,12,12,0.0,0.0
984,70.0,12,12,0.0,0.0
985,68.0,12,12,0.0,0.0
986,67.0,12,12,0.0,0.0
987,65.0,12,12,0.0,0.0
988,64.0,12,12,0.0,0.0
989,65.0,12,12,0.0,0.0
990,63.0,12,12,0.0,0.0
991,61.0,12,12,0.0,0.0
992,60.0,12,12,0.0,0.0
993,61.0,12,12,0.0,0.0
994,56.0,12,12,0.0,0.0
995,58.0,48,12,0.0,0.0
996,60.0,24,48,0.0,0.0
997,48.0,24,48,0.0,0.0
998,52.0,0,48,0.0,0.0
999,55.0,0,48,0.0,0.0
1000,61.0,24,48,0.0,0.0
1001,56.0,0,48,0.0,0.0
1002,53.0,24,48,0.0,0.0
1003,47.0,0,48,0.0,0.0
1004,65.0,24,48,0.0,0.0
1005,46.0,0,48,0.0,0.0
1006,64.0,24,48,0.0,0.0
1007,62.0,24,0,0.0,0.0
1008,56.0,0,0,0.0,0.0
1009,40.0,0,48,0.0,0.0
1010,64.0,24,48,0.0,0.0
1011,45.0,24,48,0.0,0.0
1012,61.0,0,48,0.0,0.0
1013,55.0,0,48,0.0,0.0
1014,65.0,24,48,0.0,0.0
1015,53.0,0,48,0.0,0.0
1016,60.0,24,48,0.0,0.0
1017,44.0,0,48,0.0,0.0
1018,68.0,24,48,0.0,0.0
1019,43.0,24,72,0.0,0.0
1020,65.0,24,48,0.0,0.0
1021,59.0,0,48,0.0,0.0
1022,67.0,22,72,0.0,0.0
1023,64.0,0,48,0.0,0.0
1024,58.0,72,48,0.0,0.0
1025,36.0,2,46,0.0,0.0
1026,72.0,24,96,0.0,0.0
1027,41.0,24,24,0.0,0.0
1028,77.0,24,48,0.0,0.0
1029,60.0,24,24,0.0,0.0
1030,65.0,0,24,0.0,0.0
1031,56.0,0,24,0.0,0.0
1032,75.0,24,48,0.0,0.0
1033,43.0,24,24,0.0,0.0
1034,63.0,0,24,0.0,0.0
1035,58.0,0,24,0.0,0.0
1036,51.0,24,24,0.0,0.0
1037,73.0,24,48,0.0,0.0
1038,44.0,12,24,0.0,0.0
1039,72.0,12,36,0.0,0.0
1040,71.0,24,12,0.0,0.0
1041,68.0,0,24,0.0,0.0
1042,72.0,12,36,0.0,0.0
1043,60.0,12,24,0.0,0.0
1044,73.0,24,12,0.0,0.0
1045,72.0,16,144,0.0,0.0
1046,40.0,48,24,0.0,0.0
1047,60.0,0,24,0.0,0.0
1048,58.0,0,24,0.0,0.0
1049,67.0,48,24,0.0,0.0
1050,41.0,24,24,0.0,0.0
1051,65.0,8,24,0.0,0.0
1052,60.0,0,24,0.0,0.0
1053,56.0,0,24,0.0,0.0
1054,76.0,8,16,0.0,0.0
1055,79.0,16,16,0.0,0.0
1056,77.0,16,16,0.0,0.0
1057,43.0,8,24,0.0,0.0
1058,75.0,8,16,0.0,0.0
1059,63.0,16,16,0.0,0.0
1060,70.0,16,16,0.0,0.0
1061,72.0,8,16,0.0,0.0
1062,51.0,0,24,0.0,0.0
1063,58.0,0,24,0.0,0.0
1064,63.0,8,24,0.0,0.0
1065,75.0,16,16,0.0,0.0
1066,73.0,16,16,0.0,0.0
1067,72.0,8,16,0.0,0.0
1068,44.0,8,24,0.0,0.0
1069,60.0,16,16,0.0,0.0
1070,63.0,16,16,0.0,0.0
1071,68.0,8,16,0.0,0.0
1072,51.0,0,24,0.0,0.0
1073,56.0,8,24,0.0,0.0
1074,63.0,0,24,0.0,0.0
1075,71.0,16,16,0.0,0.0
1076,73.0,24,16,0.0,0.0
1077,40.0,48,24,0.0,0.0
1078,72.0,18,142,0.0,0.0
1079,58.0,0,24,0.0,0.0
1080,60.0,0,24,0.0,0.0
1081,67.0,48,24,0.0,0.0
1082,41.0,22,24,0.0,0.0
1083,60.0,8,24,0.0,0.0
1084,68.0,0,24,0.0,0.0
1085,77.0,8,16,0.0,0.0
1086,89.0,16,16,0.0,0.0
1087,77.0,16,16,0.0,0.0
1088,88.0,8,16,0.0,0.0
1089,53.0,8,24,0.0,0.0
1090,79.0,16,16,0.0,0.0
1091,88.0,16,16,0.0,0.0
1092,72.0,8,24,0.0,0.0
1093,65.0,0,24,0.0,0.0
1094,60.0,0,24,0.0,0.0
1095,80.0,8,16,0.0,0.0
1096,87.0,16,16,0.0,0.0
1097,81.0,16,16,0.0,0.0
1098,86.0,8,16,0.0,0.0
1099,46.0,8,24,0.0,0.0
1100,82.0,16,16,0.0,0.0
1101,86.0,16,16,0.0,0.0
1102,65.0,0,24,0.0,0.0
1103,70.0,8,24,0.0,0.0
1104,61.0,0,24,0.0,0.0
1105,85.0,8,16,0.0,0.0
1106,73.0,16,16,0.0,0.0
1107,85.0,16,16,0.0,0.0
1108,48.0,8,24,0.0,0.0
1109,84.0,8,16,0.0,0.0
1110,74.0,16,16,0.0,0.0
1111,84.0,16,16,0.0,0.0
1112,75.0,8,16,0.0,0.0
1113,70.0,0,24,0.0,0.0
1114,67.0,0,24,0.0,0.0
1115,60.0,8,24,0.0,0.0
1116,82.0,16,16,0.0,0.0
1117,76.0,16,16,0.0,0.0
1118,81.0,8,16,0.0,0.0
1119,49.0,8,24,0.0,0.0
1120,77.0,16,16,0.0,0.0
1121,81.0,16,16,0.0,0.0
1122,65.0,8,24,0.0,0.0
1123,61.0,0,24,0.0,0.0
1124,80.0,8,16,0.0,0.0
1125,56.0,0,24,0.0,0.0
1126,68.0,16,16,0.0,0.0
1127,80.0,16,16,0.0,0.0
1128,46.0,8,24,0.0,0.0
1129,79.0,8,16,0.0,0.0
1130,73.0,16,16,0.0,0.0
1131,79.0,16,16,0.0,0.0
1132,78.0,8,16,0.0,0.0
1133,58.0,8,24,0.0,0.0
1134,61.0,0,24,0.0,0.0
1135,66.0,16,16,0.0,0.0
1136,78.0,16,16,0.0,0.0
1137,77.0,8,16,0.0,0.0
1138,48.0,8,24,0.0,0.0
1139,65.0,16,16,0.0,0.0
1140,68.0,16,16,0.0,0.0
1141,56.0,0,24,0.0,0.0
1142,72.0,8,16,0.0,0.0
1143,60.0,8,24,0.0,0.0
1144,75.0,16,16,0.0,0.0
1145,73.0,16,16,0.0,0.0
1146,72.0,8,16,0.0,0.0
1147,36.0,8,24,0.0,0.0
1148,64.0,16,16,0.0,0.0
1149,67.0,16,16,0.0,0.0
1150,71.0,8,16,0.0,0.0
1151,55.0,8,24,0.0,0.0
1152,60.0,0,24,0.0,0.0
1153,72.0,16,16,0.0,0.0
1154,70.0,16,16,0.0,0.0
1155,69.0,8,16,0.0,0.0
1156,41.0,8,24,0.0,0.0
1157,68.0,16,16,0.0,0.0
1158,65.0,16,16,0.0,0.0
1159,56.0,0,24,0.0,0.0
1160,48.0,0,24,0.0,0.0
1161,77.0,8,16,0.0,0.0
1162,60.0,8,24,0.0,0.0
1163,65.0,16,16,0.0,0.0
1164,77.0,16,16,0.0,0.0
1165,67.0,8,16,0.0,0.0
1166,41.0,8,24,0.0,0.0
1167,76.0,16,16,0.0,0.0
1168,68.0,16,16,0.0,0.0
1169,60.0,0,24,0.0,0.0
1170,53.0,0,24,0.0,0.0
1171,75.0,8,16,0.0,0.0
1172,65.0,8,24,0.0,0.0
1173,69.0,16,16,0.0,0.0
1174,75.0,16,16,0.0,0.0
1175,46.0,8,24,0.0,0.0
1176,74.0,8,16,0.0,0.0
1177,70.0,16,16,0.0,0.0
1178,74.0,16,16,0.0,0.0
1179,53.0,0,24,0.0,0.0
1180,58.0,0,24,0.0,0.0
1181,65.0,8,24,0.0,0.0
1182,73.0,8,16,0.0,0.0
1183,61.0,16,16,0.0,0.0
1184,73.0,16,16,0.0,0.0
1185,62.0,8,16,0.0,0.0
1186,48.0,8,24,0.0,0.0
1187,72.0,16,16,0.0,0.0
1188,63.0,16,16,0.0,0.0
1189,70.0,8,16,0.0,0.0
1190,55.0,0,24,0.0,0.0
1191,60.0,8,24,0.0,0.0
1192,64.0,16,16,0.0,0.0
1193,70.0,16,16,0.0,0.0
1194,37.0,8,24,0.0,0.0
1195,69.0,8,16,0.0,0.0
1196,65.0,16,16,0.0,0.0
1197,69.0,16,16,0.0,0.0
1198,68.0,16,16,0.0,0.0
1199,56.0,0,48,0.0,0.0
1200,49.0,0,48,0.0,0.0
1201,61.0,16,16,0.0,0.0
1202,68.0,16,16,0.0,0.0
1203,66.0,16,16,0.0,0.0
1204,46.0,0,48,0.0,0.0
1205,58.0,0,48,0.0,0.0
1206,61.0,16,16,0.0,0.0
1207,66.0,16,16,0.0,0.0
1208,47.0,16,48,0.0,0.0
1209,56.0,0,48,0.0,0.0
1210,65.0,16,16,0.0,0.0
1211,61.0,16,16,0.0,0.0
1212,65.0,0,16,0.0,0.0
1213,46.0,16,48,0.0,0.0
1214,58.0,0,48,0.0,0.0
1215,66.0,16,16,0.0,0.0
1216,61.0,16,16,0.0,0.0
1217,66.0,0,16,0.0,0.0
1218,47.0,0,48,0.0,0.0
1219,65.0,16,16,0.0,0.0
1220,61.0,16,16,0.0,0.0
1221,65.0,48,16,0.0,0.0
1222,56.0,0,0,0.0,0.0
1223,48.0,0,48,0.0,0.0
1224,72.0,16,48,0.0,0.0
1225,60.0,16,48,0.0,0.0
1226,65.0,0,16,0.0,0.0
1227,48.0,2,94,0.0,0.0
1228,64.0,0,48,0.0,0.0
1229,55.0,2,46,0.0,0.0
1230,58.0,14,16,0.0,0.0
1231,60.0,16,16,0.0,0.0
1232,65.0,16,16,0.0,0.0
1233,41.0,0,766,0.0,0.0
1234,56.0,14,16,0.0,0.0
1235,60.0,16,16,0.0,0.0
1236,54.0,16,48,0.0,0.0
1237,57.0,16,16,0.0,0.0
1238,60.0,16,16,0.0,0.0
1239,63.0,0,16,0.0,0.0
1240,66.0,16,16,0.0,0.0
1241,53.0,0,48,0.0,0.0
1242,69.0,16,16,0.0,0.0
1243,72.0,16,16,0.0,0.0
1244,75.0,16,16,0.0,0.0
1245,78.0,16,16,0.0,0.0
1246,81.0,0,16,0.0,0.0
1247,90.0,16,16,0.0,0.0
1248,51.0,16,0,0.0,0.0
1249,84.0,16,16,0.0,0.0
1250,87.0,16,16,0.0,0.0
1251,81.0,16,16,0.0,0.0
1252,78.0,16,16,0.0,0.0
1253,72.0,16,16,0.0,0.0
1254,53.0,0,48,0.0,0.0
1255,75.0,16,16,0.0,0.0
1256,69.0,16,16,0.0,0.0
1257,66.0,16,16,0.0,0.0
1258,60.0,16,16,0.0,0.0
1259,51.0,0,48,0.0,0.0
1260,63.0,16,16,0.0,0.0
1261,57.0,16,16,0.0,0.0
1262,58.0,16,16,0.0,0.0
1263,49.0,0,96,0.0,0.0
1264,53.0,16,16,0.0,0.0
1265,55.0,16,16,0.0,0.0
1266,58.0,16,16,0.0,0.0
1267,61.0,16,16,0.0,0.0
1268,65.0,16,16,0.0,0.0
1269,67.0,16,16,0.0,0.0
1270,48.0,8,72,0.0,0.0
1271,70.0,16,16,0.0,0.0
1272,73.0,16,16,0.0,0.0
1273,77.0,8,16,0.0,0.0
1274,79.0,14,16,0.0,0.0
1275,46.0,2,22,0.0,0.0
1276,82.0,16,16,0.0,0.0
1277,46.0,16,96,0.0,0.0
1278,85.0,16,16,0.0,0.0
1279,79.0,16,16,0.0,0.0
1280,82.0,16,16,0.0,0.0
1281,76.0,16,16,0.0,0.0
1282,73.0,16,16,0.0,0.0
1283,67.0,0,16,0.0,0.0
1284,70.0,16,16,0.0,0.0
1285,49.0,2,94,0.0,0.0
1286,64.0,16,16,0.0,0.0
1287,61.0,16,16,0.0,0.0
1288,55.0,16,16,0.0,0.0
1289,58.0,14,16,0.0,0.0
1290,52.0,16,16,0.0,0.0
1291,41.0,0,1582,0.0,0.0
1292,53.0,16,16,0.0,0.0
1293,48.0,0,1582,0.0,0.0
1294,57.0,16,16,0.0,0.0
1295,60.0,16,16,0.0,0.0
1296,65.0,16,16,0.0,0.0
1297,58.0,16,16,0.0,0.0
1298,60.0,32,16,0.0,0.0
1299,57.0,242,1486,0.0,0.0
1300,60.0,16,16,0.0,0.0
1301,65.0,16,16,0.0,0.0
1302,69.0,16,16,0.0,0.0
1303,62.0,16,16,0.0,0.0
1304,65.0,16,16,0.0,0.0
1305,60.0,16,16,0.0,0.0
1306,65.0,16,16,0.0,0.0
1307,69.0,16,16,0.0,0.0
1308,72.0,16,16,0.0,0.0
1309,67.0,16,16,0.0,0.0
1310,69.0,16,16,0.0,0.0
1311,65.0,16,16,0.0,0.0
1312,69.0,16,16,0.0,0.0
1313,72.0,16,16,0.0,0.0
1314,77.0,16,16,0.0,0.0
1315,70.0,16,16,0.0,0.0
1316,72.0,16,16,0.0,0.0
1317,69.0,16,16,0.0,0.0
1318,72.0,16,16,0.0,0.0
1319,77.0,16,16,0.0,0.0
1320,81.0,16,16,0.0,0.0
1321,74.0,16,16,0.0,0.0
1322,77.0,16,16,0.0,0.0
1323,72.0,16,16,0.0,0.0
1324,77.0,16,16,0.0,0.0
1325,81.0,16,16,0.0,0.0
1326,84.0,16,16,0.0,0.0
1327,79.0,16,16,0.0,0.0
1328,81.0,16,16,0.0,0.0
1329,77.0,16,16,0.0,0.0
1330,81.0,16,16,0.0,0.0
1331,84.0,16,16,0.0,0.0
1332,89.0,16,16,0.0,0.0
1333,82.0,16,16,0.0,0.0
1334,84.0,16,16,0.0,0.0
1335,81.0,16,16,0.0,0.0
1336,84.0,16,16,0.0,0.0
1337,89.0,16,16,0.0,0.0
1338,93.0,16,16,0.0,0.0
1339,86.0,16,16,0.0,0.0
1340,89.0,16,16,0.0,0.0
1341,84.0,16,16,0.0,0.0
1342,89.0,16,16,0.0,0.0
1343,93.0,16,16,0.0,0.0
1344,96.0,16,16,0.0,0.0
1345,91.0,16,16,0.0,0.0
1346,93.0,16,16,0.0,0.0
1347,89.0,16,16,0.0,0.0
1348,93.0,16,16,0.0,0.0
1349,96.0,16,16,0.0,0.0
1350,101.0,16,16,0.0,0.0
1351,91.0,16,16,0.0,0.0
1352,93.0,16,16,0.0,0.0
1353,89.0,16,16,0.0,0.0
1354,93.0,16,16,0.0,0.0
1355,96.0,16,16,0.0,0.0
1356,101.0,16,16,0.0,0.0
1357,91.0,16,16,0.0,0.0
1358,93.0,16,16,0.0,0.0
1359,89.0,16,16,0.0,0.0
1360,93.0,16,16,0.0,0.0
1361,96.0,16,16,0.0,0.0
1362,101.0,16,16,0.0,0.0
1363,91.0,16,16,0.0,0.0
1364,93.0,16,16,0.0,0.0
1365,89.0,16,16,0.0,0.0
1366,93.0,16,16,0.0,0.0
1367,96.0,16,16,0.0,0.0
1368,101.0,16,16,0.0,0.0
1369,91.0,16,16,0.0,0.0
1370,93.0,16,16,0.0,0.0
1371,89.0,16,16,0.0,0.0
1372,93.0,16,16,0.0,0.0
1373,96.0,16,16,0.0,0.0
1374,101.0,16,16,0.0,0.0
1375,91.0,16,16,0.0,0.0
1376,93.0,16,16,0.0,0.0
1377,89.0,16,16,0.0,0.0
1378,93.0,16,16,0.0,0.0
1379,96.0,16,16,0.0,0.0
1380,101.0,16,16,0.0,0.0
1381,91.0,16,16,0.0,0.0
1382,93.0,16,16,0.0,0.0
1383,89.0,16,16,0.0,0.0
1384,93.0,16,16,0.0,0.0
1385,96.0,16,16,0.0,0.0
1386,101.0,16,16,0.0,0.0
1387,91.0,16,16,0.0,0.0
1388,93.0,46,16,0.0,0.0
1389,89.0,0,46,0.0,0.0
1390,73.0,0,96,0.0,0.0
1391,34.0,0,96,0.0,0.0
1392,46.0,0,96,0.0,0.0
1393,61.0,0,96,0.0,0.0
1394,65.0,0,96,0.0,0.0
1395,67.0,58,96,0.0,0.0
1396,58.0,0,58,0.0,0.0
1397,36.0,0,58,0.0,0.0
1398,48.0,0,58,0.0,0.0
1399,64.0,0,58,0.0,0.0
1400,72.0,192,58,0.0,0.0
1401,41.0,0,190,0.0,0.0
1402,48.0,0,184,0.0,0.0
1403,53.0,0,178,0.0,0.0
1404,57.0,96,172,0.0,0.0
1405,60.0,0,166,0.0,0.0
1406,65.0,0,160,0.0,0.0
1407,69.0,0,154,0.0,0.0
1408,41.0,0,94,0.0,0.0
1409,48.0,0,88,0.0,0.0
1410,53.0,0,82,0.0,0.0
1411,57.0,0,76,0.0,0.0
1412,60.0,0,70,0.0,0.0
1413,65.0,0,64,0.0,0.0
1414,69.0,90,58,0.0,0.0
1415,41.0,0,88,0.0,0.0
1416,48.0,204,82,0.0,0.0
1417,53.0,0,76,0.0,0.0
1418,57.0,0,70,0.0,0.0
1419,60.0,0,64,0.0,0.0
1420,65.0,0,58,0.0,0.0
1421,69.0,0,52,0.0,0.0
1422,41.0,0,202,0.0,0.0
1423,48.0,32,196,0.0,0.0
1424,53.0,0,190,0.0,0.0
1425,57.0,0,184,0.0,0.0
1426,60.0,0,178,0.0,0.0
1427,65.0,0,172,0.0,0.0
1428,69.0,0,160,0.0,0.0
