,note,step,duration,channel,velocity
0,59.0,75,314,2.0,0.0
1,59.0,17,74,4.0,0.0
2,64.0,19,488,2.0,0.0
3,40.0,29,137,6.0,0.0
4,52.0,27,104,5.0,0.0
5,59.0,177,1021,14.0,0.0
6,55.0,40,61,3.0,0.0
7,55.0,3,901,14.0,0.0
8,52.0,31,271,15.0,0.0
9,64.0,1,858,7.0,0.0
10,40.0,56,137,1.0,0.0
11,41.0,49,66,1.0,0.0
12,40.0,17,63,1.0,0.0
13,41.0,34,57,1.0,0.0
14,55.0,4,59,3.0,0.0
15,59.0,5,89,4.0,0.0
16,40.0,30,52,1.0,0.0
17,43.0,11,102,6.0,0.0
18,55.0,11,111,5.0,0.0
19,55.0,6,223,15.0,0.0
20,41.0,16,48,1.0,0.0
21,40.0,41,39,1.0,0.0
22,41.0,14,45,1.0,0.0
23,40.0,31,40,1.0,0.0
24,63.0,36,172,2.0,0.0
25,41.0,31,43,1.0,0.0
26,40.0,39,39,1.0,0.0
27,41.0,28,44,1.0,0.0
28,64.0,19,301,13.0,0.0
29,40.0,5,40,1.0,0.0
30,55.0,13,112,4.0,0.0
31,59.0,6,99,3.0,0.0
32,52.0,3,89,5.0,0.0
33,40.0,17,117,6.0,0.0
34,52.0,3,276,15.0,0.0
35,64.0,7,297,15.0,0.0
36,64.0,12,138,2.0,0.0
37,41.0,16,44,1.0,0.0
38,40.0,6,37,1.0,0.0
39,41.0,18,39,1.0,0.0
40,40.0,42,34,1.0,0.0
41,67.0,12,169,2.0,0.0
42,41.0,59,41,1.0,0.0
43,40.0,3,69,1.0,0.0
44,41.0,9,38,1.0,0.0
45,47.0,1,44,1.0,0.0
46,54.0,8,356,14.0,0.0
47,51.0,22,565,15.0,0.0
48,66.0,18,58,3.0,0.0
49,71.0,7,1169,13.0,0.0
50,63.0,20,606,15.0,0.0
51,59.0,21,30,3.0,0.0
52,71.0,8,87,2.0,0.0
53,54.0,18,105,4.0,0.0
54,39.0,15,90,6.0,0.0
55,66.0,19,569,13.0,0.0
56,51.0,18,62,5.0,0.0
57,59.0,32,838,7.0,0.0
58,47.0,34,36,1.0,0.0
59,66.0,27,91,3.0,0.0
60,66.0,3,87,4.0,0.0
61,59.0,14,68,3.0,0.0
62,51.0,2,80,5.0,0.0
63,51.0,43,220,11.0,0.0
64,71.0,8,54,2.0,0.0
65,66.0,6,300,14.0,0.0
66,39.0,109,105,6.0,0.0
67,59.0,15,582,14.0,0.0
68,71.0,26,107,2.0,0.0
69,71.0,3,587,12.0,0.0
70,50.0,11,70,5.0,0.0
71,71.0,4,592,7.0,0.0
72,65.0,75,132,4.0,0.0
73,65.0,26,347,14.0,0.0
74,68.0,13,83,3.0,0.0
75,38.0,7,121,6.0,0.0
76,47.0,27,38,1.0,0.0
77,59.0,6,76,3.0,0.0
78,50.0,47,202,11.0,0.0
79,68.0,31,542,13.0,0.0
80,50.0,22,242,15.0,0.0
81,62.0,26,309,15.0,0.0
82,76.0,13,315,2.0,0.0
83,76.0,0,308,12.0,0.0
84,68.0,4,152,3.0,0.0
85,76.0,36,334,8.0,0.0
86,59.0,18,153,3.0,0.0
87,49.0,19,84,5.0,0.0
88,64.0,7,321,8.0,0.0
89,64.0,46,100,4.0,0.0
90,49.0,5,184,11.0,0.0
91,37.0,13,162,6.0,0.0
92,40.0,45,179,1.0,0.0
93,64.0,1,547,7.0,0.0
94,49.0,3,168,15.0,0.0
95,61.0,7,557,15.0,0.0
96,64.0,9,545,14.0,0.0
97,41.0,22,65,1.0,0.0
98,40.0,5,68,1.0,0.0
99,41.0,2,50,1.0,0.0
100,75.0,8,165,2.0,0.0
101,52.0,4,82,5.0,0.0
102,52.0,4,147,11.0,0.0
103,40.0,18,119,6.0,0.0
104,69.0,10,106,3.0,0.0
105,61.0,20,81,3.0,0.0
106,52.0,23,164,15.0,0.0
107,69.0,4,141,13.0,0.0
108,64.0,6,135,4.0,0.0
109,75.0,1,162,12.0,0.0
110,57.0,4,97,4.0,0.0
111,69.0,17,284,12.0,0.0
112,69.0,8,332,7.0,0.0
113,40.0,4,42,1.0,0.0
114,41.0,3,49,1.0,0.0
115,40.0,5,42,1.0,0.0
116,76.0,2,152,2.0,0.0
117,76.0,16,173,12.0,0.0
118,41.0,31,43,1.0,0.0
119,40.0,44,40,1.0,0.0
120,41.0,6,50,1.0,0.0
121,40.0,11,43,1.0,0.0
122,78.0,3,239,2.0,0.0
123,41.0,17,51,1.0,0.0
124,67.0,11,94,4.0,0.0
125,36.0,10,143,6.0,0.0
126,55.0,0,80,4.0,0.0
127,48.0,12,193,11.0,0.0
128,70.0,26,151,13.0,0.0
129,48.0,8,77,5.0,0.0
130,70.0,15,93,3.0,0.0
131,78.0,18,218,12.0,0.0
132,48.0,6,166,15.0,0.0
133,67.0,3,126,13.0,0.0
134,64.0,4,73,3.0,0.0
135,70.0,5,256,12.0,0.0
136,60.0,5,249,15.0,0.0
137,67.0,0,221,14.0,0.0
138,64.0,22,320,7.0,0.0
139,40.0,8,43,1.0,0.0
140,41.0,22,51,1.0,0.0
141,64.0,1,143,14.0,0.0
142,40.0,0,42,1.0,0.0
143,41.0,9,50,1.0,0.0
144,40.0,18,40,1.0,0.0
145,76.0,17,43,2.0,0.0
146,41.0,43,103,1.0,0.0
147,76.0,5,45,12.0,0.0
148,40.0,28,55,1.0,0.0
149,76.0,9,320,2.0,0.0
150,71.0,2,129,13.0,0.0
151,76.0,2,309,12.0,0.0
152,67.0,16,177,4.0,0.0
153,55.0,9,117,4.0,0.0
154,67.0,23,127,13.0,0.0
155,35.0,4,151,6.0,0.0
156,47.0,33,78,5.0,0.0
157,67.0,44,301,14.0,0.0
158,71.0,1,118,3.0,0.0
159,47.0,2,142,15.0,0.0
160,64.0,0,112,3.0,0.0
161,47.0,93,177,11.0,0.0
162,71.0,5,413,12.0,0.0
163,59.0,7,140,15.0,0.0
164,64.0,12,263,14.0,0.0
165,71.0,10,139,7.0,0.0
166,59.0,1,114,7.0,0.0
167,47.0,2,42,1.0,0.0
168,75.0,4,116,2.0,0.0
169,47.0,1,117,6.0,0.0
170,71.0,13,101,13.0,0.0
171,71.0,0,74,3.0,0.0
172,59.0,5,66,4.0,0.0
173,59.0,221,165,11.0,0.0
174,59.0,3,93,5.0,0.0
175,75.0,5,87,12.0,0.0
176,66.0,4,69,3.0,0.0
177,66.0,4,73,13.0,0.0
178,66.0,10,113,14.0,0.0
179,66.0,6,79,4.0,0.0
180,47.0,15,44,1.0,0.0
181,59.0,2,100,15.0,0.0
182,47.0,3,101,15.0,0.0
183,71.0,32,120,7.0,0.0
184,59.0,3,101,7.0,0.0
185,83.0,16,235,2.0,0.0
186,66.0,10,263,4.0,0.0
187,59.0,15,162,4.0,0.0
188,83.0,1,227,12.0,0.0
189,71.0,8,413,14.0,0.0
190,51.0,4,292,6.0,0.0
191,51.0,4,297,15.0,0.0
192,71.0,11,222,3.0,0.0
193,66.0,15,184,3.0,0.0
194,66.0,0,245,14.0,0.0
195,63.0,3,270,15.0,0.0
196,78.0,12,270,12.0,0.0
197,63.0,9,251,5.0,0.0
198,47.0,35,84,1.0,0.0
199,63.0,7,248,11.0,0.0
200,78.0,5,273,13.0,0.0
201,66.0,0,276,7.0,0.0
202,71.0,315,428,13.0,0.0
203,59.0,0,272,7.0,0.0
204,48.0,18,57,1.0,0.0
205,47.0,20,28,1.0,0.0
206,48.0,5,40,1.0,0.0
207,81.0,1,99,2.0,0.0
208,47.0,13,39,1.0,0.0
209,48.0,2,86,1.0,0.0
210,81.0,4,85,12.0,0.0
211,47.0,68,55,1.0,0.0
212,79.0,8,118,2.0,0.0
213,71.0,0,104,3.0,0.0
214,67.0,1,117,3.0,0.0
215,64.0,7,106,4.0,0.0
216,67.0,4,152,14.0,0.0
217,52.0,10,141,6.0,0.0
218,64.0,4,115,5.0,0.0
219,64.0,8,146,11.0,0.0
220,52.0,3,122,15.0,0.0
221,64.0,3,111,15.0,0.0
222,64.0,7,136,7.0,0.0
223,79.0,7,149,13.0,0.0
224,79.0,2,91,12.0,0.0
225,76.0,8,92,12.0,0.0
226,40.0,0,85,1.0,0.0
227,75.0,11,291,3.0,0.0
228,79.0,8,245,2.0,0.0
229,47.0,0,283,6.0,0.0
230,69.0,1,290,4.0,0.0
231,79.0,11,193,12.0,0.0
232,59.0,10,272,5.0,0.0
233,59.0,11,245,11.0,0.0
234,66.0,0,322,7.0,0.0
235,75.0,26,319,13.0,0.0
236,69.0,10,281,14.0,0.0
237,75.0,2,228,12.0,0.0
238,66.0,10,229,14.0,0.0
239,47.0,2,288,15.0,0.0
240,69.0,28,189,13.0,0.0
241,59.0,25,290,7.0,0.0
242,59.0,0,286,15.0,0.0
243,47.0,4,238,1.0,0.0
244,78.0,3,73,2.0,0.0
245,78.0,1,86,12.0,0.0
246,76.0,3,141,2.0,0.0
247,76.0,9,127,3.0,0.0
248,60.0,13,136,5.0,0.0
249,48.0,2,128,6.0,0.0
250,67.0,3,136,14.0,0.0
251,76.0,6,99,13.0,0.0
252,67.0,4,134,4.0,0.0
253,60.0,0,131,11.0,0.0
254,64.0,1,127,14.0,0.0
255,48.0,20,144,15.0,0.0
256,76.0,4,87,12.0,0.0
257,67.0,3,163,13.0,0.0
258,60.0,12,127,15.0,0.0
259,48.0,32,38,1.0,0.0
260,64.0,209,148,7.0,0.0
261,76.0,4,236,2.0,0.0
262,56.0,2,283,5.0,0.0
263,44.0,12,270,6.0,0.0
264,65.0,5,290,4.0,0.0
265,71.0,2,308,13.0,0.0
266,76.0,7,219,12.0,0.0
267,71.0,5,293,3.0,0.0
268,65.0,0,311,13.0,0.0
269,56.0,1,308,11.0,0.0
270,64.0,9,315,10.0,0.0
271,71.0,2,284,12.0,0.0
272,44.0,3,274,15.0,0.0
273,65.0,17,322,14.0,0.0
274,56.0,15,232,15.0,0.0
275,62.0,9,194,14.0,0.0
276,71.0,3,298,7.0,0.0
277,40.0,45,79,1.0,0.0
278,59.0,5,257,7.0,0.0
279,41.0,44,49,1.0,0.0
280,40.0,19,42,1.0,0.0
281,41.0,17,43,1.0,0.0
282,74.0,9,92,2.0,0.0
283,40.0,6,37,1.0,0.0
284,74.0,4,83,12.0,0.0
285,41.0,1,35,1.0,0.0
286,45.0,16,186,6.0,0.0
287,72.0,34,329,2.0,0.0
288,69.0,8,173,3.0,0.0
289,57.0,9,133,5.0,0.0
290,64.0,5,142,4.0,0.0
291,45.0,14,144,15.0,0.0
292,40.0,4,28,1.0,0.0
293,57.0,1,130,15.0,0.0
294,72.0,66,175,13.0,0.0
295,57.0,62,240,11.0,0.0
296,65.0,202,334,10.0,0.0
297,64.0,6,141,14.0,0.0
298,64.0,0,139,7.0,0.0
299,60.0,19,86,14.0,0.0
300,64.0,5,590,13.0,0.0
301,72.0,1,112,12.0,0.0
302,69.0,2,102,12.0,0.0
303,41.0,41,24,1.0,0.0
304,40.0,3,42,1.0,0.0
305,71.0,7,604,2.0,0.0
306,40.0,0,318,6.0,0.0
307,67.0,5,308,13.0,0.0
308,52.0,4,324,15.0,0.0
309,64.0,30,257,4.0,0.0
310,52.0,4,305,5.0,0.0
311,71.0,95,447,12.0,0.0
312,67.0,11,284,3.0,0.0
313,64.0,1,305,14.0,0.0
314,40.0,6,316,15.0,0.0
315,59.0,17,1108,14.0,0.0
316,52.0,4,279,7.0,0.0
317,67.0,0,277,12.0,0.0
318,64.0,92,312,7.0,0.0
319,64.0,7,278,10.0,0.0
320,66.0,28,266,3.0,0.0
321,66.0,10,297,13.0,0.0
322,39.0,2,331,6.0,0.0
323,51.0,17,306,5.0,0.0
324,66.0,5,292,14.0,0.0
325,66.0,0,296,7.0,0.0
326,51.0,5,314,15.0,0.0
327,59.0,4,267,7.0,0.0
328,39.0,93,313,15.0,0.0
329,59.0,23,117,4.0,0.0
330,72.0,133,181,2.0,0.0
331,67.0,9,908,14.0,0.0
332,67.0,70,928,13.0,0.0
333,52.0,6,286,5.0,0.0
334,67.0,69,340,3.0,0.0
335,64.0,7,906,13.0,0.0
336,64.0,1,877,7.0,0.0
337,40.0,27,308,6.0,0.0
338,40.0,2,303,15.0,0.0
339,52.0,3,276,15.0,0.0
340,59.0,35,92,4.0,0.0
341,71.0,22,173,2.0,0.0
342,67.0,22,229,2.0,0.0
343,55.0,51,244,5.0,0.0
344,55.0,7,294,15.0,0.0
345,43.0,272,307,6.0,0.0
346,43.0,7,290,15.0,0.0
347,64.0,4,599,3.0,0.0
348,59.0,87,92,4.0,0.0
349,64.0,1,85,2.0,0.0
350,67.0,3,304,2.0,0.0
351,58.0,1,301,5.0,0.0
352,46.0,6,308,6.0,0.0
353,46.0,1,332,15.0,0.0
354,58.0,2,296,15.0,0.0
355,61.0,2,287,4.0,0.0
356,61.0,7,278,14.0,0.0
357,66.0,31,127,2.0,0.0
358,59.0,3,191,5.0,0.0
359,47.0,1,179,6.0,0.0
360,59.0,1,590,15.0,0.0
361,47.0,16,130,15.0,0.0
362,63.0,7,171,4.0,0.0
363,66.0,16,150,14.0,0.0
364,63.0,79,182,3.0,0.0
365,63.0,8,172,14.0,0.0
366,66.0,55,292,7.0,0.0
367,66.0,6,133,13.0,0.0
368,59.0,34,251,7.0,0.0
369,63.0,3,127,13.0,0.0
370,52.0,15,260,15.0,0.0
371,68.0,47,93,2.0,0.0
372,64.0,14,68,10.0,0.0
373,52.0,1,63,10.0,0.0
374,62.0,6,292,14.0,0.0
375,64.0,4,229,4.0,0.0
376,59.0,2,244,4.0,0.0
377,68.0,10,292,14.0,0.0
378,52.0,1,130,5.0,0.0
379,52.0,3,151,11.0,0.0
380,62.0,0,319,3.0,0.0
381,40.0,0,211,6.0,0.0
382,68.0,7,320,13.0,0.0
383,64.0,1,100,7.0,0.0
384,62.0,20,289,13.0,0.0
385,40.0,11,98,1.0,0.0
386,69.0,26,61,2.0,0.0
387,41.0,8,60,1.0,0.0
388,68.0,38,48,2.0,0.0
389,40.0,14,47,1.0,0.0
390,69.0,5,56,2.0,0.0
391,41.0,11,45,1.0,0.0
392,68.0,26,51,2.0,0.0
393,40.0,2,37,1.0,0.0
394,66.0,6,50,2.0,0.0
395,45.0,1,154,15.0,0.0
396,41.0,5,47,1.0,0.0
397,45.0,1,134,5.0,0.0
398,64.0,4,134,4.0,0.0
399,69.0,23,321,14.0,0.0
400,57.0,12,136,4.0,0.0
401,60.0,0,614,14.0,0.0
402,45.0,29,147,11.0,0.0
403,69.0,28,532,13.0,0.0
404,68.0,17,50,2.0,0.0
405,57.0,35,220,15.0,0.0
406,64.0,0,1752,7.0,0.0
407,33.0,28,174,6.0,0.0
408,64.0,6,201,10.0,0.0
409,60.0,3,329,13.0,0.0
410,52.0,3,208,10.0,0.0
411,60.0,4,204,3.0,0.0
412,40.0,43,45,1.0,0.0
413,69.0,31,469,2.0,0.0
414,52.0,22,1734,7.0,0.0
415,41.0,15,46,1.0,0.0
416,40.0,2,43,1.0,0.0
417,41.0,5,28,1.0,0.0
418,40.0,3,38,1.0,0.0
419,41.0,51,42,1.0,0.0
420,40.0,5,45,1.0,0.0
421,48.0,3,159,15.0,0.0
422,48.0,14,100,5.0,0.0
423,60.0,2,151,15.0,0.0
424,57.0,8,111,4.0,0.0
425,41.0,45,43,1.0,0.0
426,64.0,5,595,14.0,0.0
427,48.0,2,150,11.0,0.0
428,64.0,1,92,3.0,0.0
429,36.0,31,141,6.0,0.0
430,40.0,8,49,1.0,0.0
431,41.0,32,46,1.0,0.0
432,40.0,3,36,1.0,0.0
433,41.0,5,42,1.0,0.0
434,68.0,3,140,2.0,0.0
435,40.0,6,38,1.0,0.0
436,41.0,32,39,1.0,0.0
437,40.0,16,34,1.0,0.0
438,45.0,17,110,5.0,0.0
439,45.0,4,131,15.0,0.0
440,60.0,23,24,4.0,0.0
441,64.0,3,129,3.0,0.0
442,41.0,27,44,1.0,0.0
443,45.0,9,133,11.0,0.0
444,57.0,9,114,15.0,0.0
445,69.0,24,242,13.0,0.0
446,33.0,33,131,6.0,0.0
447,69.0,3,117,2.0,0.0
448,40.0,23,37,1.0,0.0
449,41.0,4,39,1.0,0.0
450,40.0,0,43,1.0,0.0
451,72.0,33,133,2.0,0.0
452,41.0,31,35,1.0,0.0
453,40.0,39,49,1.0,0.0
454,41.0,3,42,1.0,0.0
455,40.0,8,100,1.0,0.0
456,41.0,23,37,1.0,0.0
457,44.0,39,81,5.0,0.0
458,76.0,17,64,2.0,0.0
459,32.0,67,147,6.0,0.0
460,71.0,29,555,14.0,0.0
461,44.0,92,210,11.0,0.0
462,76.0,12,1129,13.0,0.0
463,59.0,30,106,4.0,0.0
464,59.0,54,310,14.0,0.0
465,64.0,6,131,3.0,0.0
466,71.0,46,577,13.0,0.0
467,56.0,20,515,15.0,0.0
468,44.0,5,556,15.0,0.0
469,40.0,10,41,1.0,0.0
470,76.0,23,110,2.0,0.0
471,44.0,11,89,5.0,0.0
472,64.0,10,129,4.0,0.0
473,71.0,10,117,3.0,0.0
474,64.0,5,852,14.0,0.0
475,64.0,7,105,3.0,0.0
476,44.0,84,148,11.0,0.0
477,32.0,20,126,6.0,0.0
478,43.0,2,129,5.0,0.0
479,76.0,1,128,2.0,0.0
480,70.0,25,127,3.0,0.0
481,70.0,39,248,14.0,0.0
482,64.0,0,114,3.0,0.0
483,61.0,6,110,4.0,0.0
484,73.0,19,281,13.0,0.0
485,31.0,28,147,6.0,0.0
486,43.0,9,133,11.0,0.0
487,76.0,1,169,12.0,0.0
488,55.0,51,178,15.0,0.0
489,40.0,51,40,1.0,0.0
490,64.0,13,161,8.0,0.0
491,43.0,4,282,15.0,0.0
492,58.0,63,306,10.0,0.0
493,81.0,5,275,2.0,0.0
494,42.0,24,150,5.0,0.0
495,69.0,5,121,3.0,0.0
496,69.0,3,549,7.0,0.0
497,64.0,16,119,3.0,0.0
498,69.0,18,832,14.0,0.0
499,81.0,14,306,12.0,0.0
500,42.0,6,103,15.0,0.0
501,60.0,5,130,4.0,0.0
502,76.0,31,217,12.0,0.0
503,30.0,5,245,6.0,0.0
504,72.0,7,539,13.0,0.0
505,54.0,6,92,15.0,0.0
506,42.0,22,171,11.0,0.0
507,60.0,1,290,8.0,0.0
508,72.0,1,536,8.0,0.0
509,57.0,4,441,10.0,0.0
510,48.0,19,118,1.0,0.0
511,64.0,11,276,10.0,0.0
512,50.0,18,38,1.0,0.0
513,48.0,3,52,1.0,0.0
514,50.0,23,31,1.0,0.0
515,80.0,16,173,2.0,0.0
516,75.0,8,176,12.0,0.0
517,63.0,2,143,3.0,0.0
518,69.0,4,143,3.0,0.0
519,80.0,6,180,12.0,0.0
520,42.0,4,97,15.0,0.0
521,54.0,6,91,15.0,0.0
522,48.0,25,48,1.0,0.0
523,63.0,4,296,14.0,0.0
524,54.0,13,98,5.0,0.0
525,60.0,0,13,4.0,0.0
526,63.0,29,213,10.0,0.0
527,75.0,17,269,13.0,0.0
528,54.0,4,147,11.0,0.0
529,48.0,1,86,4.0,0.0
530,42.0,3,118,6.0,0.0
531,50.0,17,37,1.0,0.0
532,48.0,19,43,1.0,0.0
533,50.0,2,34,1.0,0.0
534,81.0,0,152,2.0,0.0
535,48.0,14,48,1.0,0.0
536,54.0,6,25,5.0,0.0
537,81.0,15,154,12.0,0.0
538,50.0,22,39,1.0,0.0
539,48.0,8,48,1.0,0.0
540,50.0,9,43,1.0,0.0
541,83.0,2,168,2.0,0.0
542,48.0,21,46,1.0,0.0
543,52.0,2,173,5.0,0.0
544,52.0,3,106,15.0,0.0
545,83.0,15,170,12.0,0.0
546,40.0,2,103,15.0,0.0
547,64.0,21,310,14.0,0.0
548,76.0,8,300,13.0,0.0
549,76.0,0,135,12.0,0.0
550,40.0,10,288,6.0,0.0
551,69.0,2,115,3.0,0.0
552,52.0,4,149,11.0,0.0
553,72.0,14,273,13.0,0.0
554,64.0,18,114,3.0,0.0
555,50.0,41,42,1.0,0.0
556,60.0,7,127,8.0,0.0
557,48.0,1,78,4.0,0.0
558,72.0,7,133,8.0,0.0
559,69.0,4,240,7.0,0.0
560,64.0,11,175,7.0,0.0
561,60.0,9,85,4.0,0.0
562,48.0,7,46,1.0,0.0
563,50.0,4,39,1.0,0.0
564,84.0,12,124,2.0,0.0
565,48.0,7,46,1.0,0.0
566,84.0,7,119,12.0,0.0
567,50.0,13,43,1.0,0.0
568,48.0,26,41,1.0,0.0
569,50.0,6,50,1.0,0.0
570,84.0,21,308,2.0,0.0
571,48.0,24,92,1.0,0.0
572,51.0,12,216,5.0,0.0
573,39.0,3,312,6.0,0.0
574,69.0,4,294,3.0,0.0
575,66.0,6,321,3.0,0.0
576,51.0,7,127,15.0,0.0
577,39.0,50,203,15.0,0.0
578,66.0,1,312,14.0,0.0
579,84.0,6,306,12.0,0.0
580,78.0,10,287,12.0,0.0
581,69.0,1,313,14.0,0.0
582,57.0,0,290,4.0,0.0
583,72.0,57,121,8.0,0.0
584,60.0,4,109,8.0,0.0
585,78.0,14,445,13.0,0.0
586,69.0,3,299,7.0,0.0
587,72.0,4,285,13.0,0.0
588,66.0,24,304,7.0,0.0
589,51.0,14,227,11.0,0.0
590,47.0,47,49,1.0,0.0
591,83.0,8,164,2.0,0.0
592,63.0,39,104,5.0,0.0
593,71.0,19,207,7.0,0.0
594,83.0,1,164,12.0,0.0
595,59.0,18,221,4.0,0.0
596,51.0,14,117,6.0,0.0
597,71.0,7,147,13.0,0.0
598,59.0,25,170,7.0,0.0
599,63.0,7,134,15.0,0.0
600,51.0,6,142,15.0,0.0
601,47.0,17,37,1.0,0.0
602,63.0,10,115,11.0,0.0
603,81.0,35,165,2.0,0.0
604,81.0,90,144,12.0,0.0
605,79.0,52,151,2.0,0.0
606,79.0,92,154,12.0,0.0
607,78.0,23,171,2.0,0.0
608,78.0,86,151,12.0,0.0
609,79.0,42,168,2.0,0.0
610,64.0,6,190,5.0,0.0
611,67.0,10,230,14.0,0.0
612,52.0,6,186,6.0,0.0
613,73.0,4,237,14.0,0.0
614,79.0,14,172,13.0,0.0
615,58.0,3,204,4.0,0.0
616,58.0,366,254,10.0,0.0
617,76.0,5,187,8.0,0.0
618,73.0,11,139,12.0,0.0
619,70.0,1,149,13.0,0.0
620,64.0,7,189,8.0,0.0
621,67.0,5,245,10.0,0.0
622,79.0,1,155,12.0,0.0
623,52.0,8,210,7.0,0.0
624,52.0,3,173,15.0,0.0
625,67.0,6,143,3.0,0.0
626,73.0,2,186,3.0,0.0
627,64.0,2,212,7.0,0.0
628,40.0,29,49,1.0,0.0
629,64.0,2,177,15.0,0.0
630,64.0,18,201,11.0,0.0
631,79.0,237,176,12.0,0.0
632,76.0,65,252,12.0,0.0
633,73.0,300,101,12.0,0.0
634,71.0,131,326,12.0,0.0
635,76.0,21,1185,3.0,0.0
636,61.0,21,1191,2.0,0.0
637,67.0,42,1209,4.0,0.0
638,70.0,208,151,12.0,0.0
639,67.0,206,214,15.0,0.0
640,64.0,72,266,15.0,0.0
641,61.0,245,120,15.0,0.0
642,59.0,119,377,15.0,0.0
643,58.0,95,199,15.0,0.0
644,67.0,13,150,2.0,0.0
645,55.0,193,156,5.0,0.0
646,52.0,5,208,5.0,0.0
647,64.0,84,213,2.0,0.0
648,61.0,1,90,2.0,0.0
649,49.0,69,85,5.0,0.0
650,47.0,16,97,5.0,0.0
651,59.0,240,101,2.0,0.0
652,46.0,3,87,5.0,0.0
653,79.0,2,76,2.0,0.0
654,64.0,7,94,7.0,0.0
655,46.0,1,90,11.0,0.0
656,61.0,9,61,14.0,0.0
657,79.0,6,79,12.0,0.0
658,64.0,1,73,14.0,0.0
659,76.0,3,70,12.0,0.0
660,34.0,2,91,6.0,0.0
661,73.0,0,89,3.0,0.0
662,40.0,8,44,1.0,0.0
663,61.0,2,76,4.0,0.0
664,67.0,1,67,13.0,0.0
665,73.0,1,86,13.0,0.0
666,46.0,244,86,15.0,0.0
667,58.0,2,80,15.0,0.0
668,66.0,4,103,7.0,0.0
669,78.0,5,96,2.0,0.0
670,45.0,1,88,5.0,0.0
671,66.0,8,96,14.0,0.0
672,63.0,3,82,14.0,0.0
673,45.0,0,105,11.0,0.0
674,72.0,6,110,13.0,0.0
675,33.0,2,76,6.0,0.0
676,45.0,238,114,15.0,0.0
677,48.0,14,47,1.0,0.0
678,75.0,7,94,12.0,0.0
679,72.0,1,73,3.0,0.0
680,78.0,3,90,12.0,0.0
681,63.0,6,57,4.0,0.0
682,57.0,5,101,15.0,0.0
683,85.0,6,129,2.0,0.0
684,76.0,2,230,8.0,0.0
685,64.0,430,230,8.0,0.0
686,76.0,7,108,12.0,0.0
687,43.0,1,106,5.0,0.0
688,31.0,18,87,6.0,0.0
689,79.0,6,118,12.0,0.0
690,67.0,10,123,14.0,0.0
691,70.0,1,132,3.0,0.0
692,64.0,1,101,14.0,0.0
693,58.0,6,161,10.0,0.0
694,55.0,4,106,4.0,0.0
695,73.0,3,146,13.0,0.0
696,43.0,3,150,11.0,0.0
697,64.0,5,151,7.0,0.0
698,43.0,1,119,15.0,0.0
699,67.0,2,158,10.0,0.0
700,40.0,21,43,1.0,0.0
701,70.0,18,120,13.0,0.0
702,52.0,1,133,7.0,0.0
703,55.0,43,144,15.0,0.0
704,64.0,2,99,4.0,0.0
705,91.0,18,175,12.0,0.0
706,79.0,207,189,12.0,0.0
707,76.0,0,233,12.0,0.0
708,88.0,81,230,12.0,0.0
709,85.0,334,106,12.0,0.0
710,73.0,12,77,12.0,0.0
711,83.0,17,356,12.0,0.0
712,71.0,134,364,12.0,0.0
713,67.0,78,1321,4.0,0.0
714,61.0,58,1221,2.0,0.0
715,76.0,20,1269,3.0,0.0
716,70.0,2,196,12.0,0.0
717,82.0,167,196,12.0,0.0
718,79.0,193,243,14.0,0.0
719,67.0,28,210,15.0,0.0
720,76.0,53,290,14.0,0.0
721,64.0,26,263,15.0,0.0
722,61.0,10,108,15.0,0.0
723,73.0,261,113,14.0,0.0
724,59.0,4,380,15.0,0.0
725,71.0,16,378,14.0,0.0
726,58.0,73,281,15.0,0.0
727,70.0,99,162,14.0,0.0
728,67.0,5,181,2.0,0.0
729,55.0,170,177,5.0,0.0
730,52.0,63,229,5.0,0.0
731,64.0,30,196,2.0,0.0
732,61.0,24,79,2.0,0.0
733,49.0,81,95,5.0,0.0
734,47.0,245,116,5.0,0.0
735,59.0,7,108,2.0,0.0
736,79.0,0,101,2.0,0.0
737,73.0,0,95,3.0,0.0
738,73.0,5,93,13.0,0.0
739,46.0,0,104,5.0,0.0
740,61.0,4,97,14.0,0.0
741,67.0,19,59,13.0,0.0
742,64.0,5,109,7.0,0.0
743,64.0,0,97,14.0,0.0
744,46.0,1,95,6.0,0.0
745,61.0,1,87,4.0,0.0
746,79.0,4,78,12.0,0.0
747,58.0,6,92,15.0,0.0
748,40.0,5,69,1.0,0.0
749,76.0,2,74,12.0,0.0
750,46.0,4,93,15.0,0.0
751,58.0,249,100,11.0,0.0
752,78.0,9,103,12.0,0.0
753,75.0,5,91,12.0,0.0
754,45.0,0,113,5.0,0.0
755,78.0,2,85,2.0,0.0
756,72.0,2,111,3.0,0.0
757,66.0,5,104,14.0,0.0
758,66.0,1,90,7.0,0.0
759,63.0,0,82,14.0,0.0
760,57.0,0,124,11.0,0.0
761,63.0,7,117,4.0,0.0
762,45.0,1,95,6.0,0.0
763,72.0,10,102,13.0,0.0
764,57.0,246,116,15.0,0.0
765,45.0,2,103,15.0,0.0
766,48.0,3,71,1.0,0.0
767,76.0,2,99,2.0,0.0
768,64.0,1,107,4.0,0.0
769,61.0,3,94,4.0,0.0
770,55.0,213,129,15.0,0.0
771,43.0,11,108,5.0,0.0
772,76.0,2,104,12.0,0.0
773,70.0,2,95,14.0,0.0
774,70.0,3,84,13.0,0.0
775,64.0,0,86,14.0,0.0
776,43.0,2,94,15.0,0.0
777,43.0,2,96,6.0,0.0
778,55.0,9,111,11.0,0.0
779,70.0,2,76,3.0,0.0
780,40.0,7,69,1.0,0.0
781,64.0,3,83,7.0,0.0
782,85.0,2,104,2.0,0.0
783,64.0,10,89,7.0,0.0
784,85.0,1,81,12.0,0.0
785,64.0,1,99,4.0,0.0
786,76.0,14,63,12.0,0.0
787,61.0,5,79,4.0,0.0
788,73.0,2,73,13.0,0.0
789,42.0,1,90,5.0,0.0
790,42.0,0,91,6.0,0.0
791,70.0,10,44,13.0,0.0
792,70.0,0,85,14.0,0.0
793,54.0,5,87,15.0,0.0
794,54.0,0,91,11.0,0.0
795,42.0,253,91,15.0,0.0
796,70.0,0,81,3.0,0.0
797,64.0,1,88,14.0,0.0
798,82.0,7,122,2.0,0.0
799,64.0,8,94,4.0,0.0
800,61.0,14,78,4.0,0.0
801,76.0,2,94,3.0,0.0
802,66.0,0,139,7.0,0.0
803,82.0,12,108,12.0,0.0
804,54.0,6,90,5.0,0.0
805,66.0,8,116,15.0,0.0
806,42.0,0,87,6.0,0.0
807,64.0,10,123,7.0,0.0
808,54.0,1,95,15.0,0.0
809,76.0,8,78,12.0,0.0
810,73.0,70,553,14.0,0.0
811,54.0,232,125,11.0,0.0
812,70.0,34,428,13.0,0.0
813,64.0,33,506,14.0,0.0
814,73.0,0,39,13.0,0.0
815,90.0,3,112,2.0,0.0
816,90.0,4,104,12.0,0.0
817,82.0,2,99,3.0,0.0
818,54.0,3,88,5.0,0.0
819,64.0,3,94,4.0,0.0
820,61.0,1,84,4.0,0.0
821,82.0,3,87,12.0,0.0
822,66.0,38,626,7.0,0.0
823,42.0,19,89,6.0,0.0
824,76.0,0,120,13.0,0.0
825,66.0,18,114,15.0,0.0
826,54.0,11,103,11.0,0.0
827,54.0,5,97,15.0,0.0
828,64.0,52,165,7.0,0.0
829,87.0,14,91,2.0,0.0
830,81.0,20,57,3.0,0.0
831,69.0,2,97,4.0,0.0
832,47.0,7,106,6.0,0.0
833,66.0,4,90,4.0,0.0
834,87.0,3,99,12.0,0.0
835,59.0,97,124,15.0,0.0
836,81.0,0,87,12.0,0.0
837,66.0,3,77,14.0,0.0
838,75.0,5,83,14.0,0.0
839,69.0,3,99,13.0,0.0
840,47.0,3,110,15.0,0.0
841,59.0,10,98,5.0,0.0
842,47.0,7,60,1.0,0.0
843,78.0,1,84,13.0,0.0
844,59.0,1,108,11.0,0.0
845,59.0,111,185,7.0,0.0
846,88.0,1,105,2.0,0.0
847,64.0,11,88,4.0,0.0
848,79.0,3,98,3.0,0.0
849,88.0,12,122,12.0,0.0
850,79.0,1,118,12.0,0.0
851,67.0,2,113,13.0,0.0
852,76.0,1,116,13.0,0.0
853,76.0,1,110,14.0,0.0
854,64.0,1,110,14.0,0.0
855,48.0,28,48,1.0,0.0
856,64.0,403,171,7.0,0.0
857,48.0,16,85,6.0,0.0
858,60.0,11,111,5.0,0.0
859,48.0,6,119,15.0,0.0
860,60.0,7,122,15.0,0.0
861,72.0,5,118,8.0,0.0
862,60.0,1,103,8.0,0.0
863,60.0,1,121,11.0,0.0
864,64.0,17,121,10.0,0.0
865,55.0,2,114,10.0,0.0
866,78.0,52,396,14.0,0.0
867,72.0,8,1981,14.0,0.0
868,66.0,7,735,3.0,0.0
869,76.0,11,760,13.0,0.0
870,84.0,13,652,2.0,0.0
871,76.0,20,734,3.0,0.0
872,66.0,1,755,13.0,0.0
873,48.0,62,165,1.0,0.0
874,69.0,5,759,4.0,0.0
875,64.0,9,761,4.0,0.0
876,57.0,0,737,5.0,0.0
877,57.0,0,664,15.0,0.0
878,84.0,341,1961,12.0,0.0
879,45.0,2,735,6.0,0.0
880,69.0,4,678,7.0,0.0
881,45.0,0,654,15.0,0.0
882,81.0,20,577,12.0,0.0
883,66.0,19,650,7.0,0.0
884,57.0,11,628,11.0,0.0
885,64.0,4,632,10.0,0.0
886,52.0,2,629,10.0,0.0
887,72.0,1,628,8.0,0.0
888,60.0,30,215,8.0,0.0
889,50.0,51,67,1.0,0.0
890,48.0,51,76,1.0,0.0
891,50.0,8,49,1.0,0.0
892,48.0,41,64,1.0,0.0
893,50.0,50,36,1.0,0.0
894,48.0,34,55,1.0,0.0
895,50.0,44,38,1.0,0.0
896,48.0,18,48,1.0,0.0
897,50.0,24,41,1.0,0.0
898,48.0,15,768,1.0,0.0
899,50.0,22,43,1.0,0.0
900,50.0,82,35,1.0,0.0
901,50.0,85,40,1.0,0.0
902,50.0,85,49,1.0,0.0
903,50.0,173,57,1.0,0.0
904,45.0,37,122,5.0,0.0
905,60.0,7,609,3.0,0.0
906,45.0,27,138,6.0,0.0
907,64.0,10,839,2.0,0.0
908,50.0,8,100,1.0,0.0
909,54.0,8,1303,4.0,0.0
910,47.0,28,68,5.0,0.0
911,47.0,28,78,6.0,0.0
912,45.0,26,54,5.0,0.0
913,45.0,25,65,6.0,0.0
914,47.0,6,54,5.0,0.0
915,47.0,24,58,6.0,0.0
916,45.0,20,45,5.0,0.0
917,45.0,27,48,6.0,0.0
918,47.0,20,49,5.0,0.0
919,47.0,25,55,6.0,0.0
920,45.0,20,46,5.0,0.0
921,45.0,7,45,6.0,0.0
922,47.0,33,28,5.0,0.0
923,47.0,13,44,6.0,0.0
924,45.0,35,37,5.0,0.0
925,45.0,2,52,6.0,0.0
926,47.0,34,43,5.0,0.0
927,47.0,36,35,6.0,0.0
928,45.0,16,64,5.0,0.0
929,45.0,32,58,6.0,0.0
930,43.0,29,51,5.0,0.0
931,43.0,96,54,6.0,0.0
932,45.0,64,131,5.0,0.0
933,45.0,15,89,6.0,0.0
934,59.0,16,449,3.0,0.0
935,47.0,76,493,6.0,0.0
936,63.0,6,551,2.0,0.0
937,47.0,29,445,5.0,0.0
938,75.0,203,568,12.0,0.0
939,63.0,32,509,14.0,0.0
940,40.0,5,371,5.0,0.0
941,64.0,10,328,2.0,0.0
942,40.0,34,449,6.0,0.0
943,59.0,6,311,3.0,0.0
944,76.0,9,451,12.0,0.0
945,64.0,10,453,14.0,0.0
946,55.0,15,263,4.0,0.0
947,64.0,51,142,3.0,0.0
948,55.0,21,87,3.0,0.0
949,59.0,32,96,4.0,0.0
950,59.0,27,66,4.0,0.0
951,55.0,23,69,3.0,0.0
952,64.0,115,90,3.0,0.0
953,59.0,24,62,4.0,0.0
954,55.0,5,64,3.0,0.0
955,64.0,135,63,3.0,0.0
956,71.0,5,182,2.0,0.0
957,59.0,18,56,4.0,0.0
958,55.0,8,64,3.0,0.0
959,64.0,132,65,3.0,0.0
960,67.0,149,189,2.0,0.0
961,59.0,12,60,4.0,0.0
962,55.0,1,66,3.0,0.0
963,64.0,3,57,3.0,0.0
964,69.0,149,185,2.0,0.0
965,59.0,5,63,4.0,0.0
966,64.0,1,68,3.0,0.0
967,55.0,1,66,3.0,0.0
968,71.0,75,397,2.0,0.0
969,55.0,133,74,3.0,0.0
970,64.0,2,65,3.0,0.0
971,59.0,8,57,4.0,0.0
972,55.0,52,73,3.0,0.0
973,59.0,9,56,4.0,0.0
974,64.0,8,61,3.0,0.0
975,59.0,18,57,4.0,0.0
976,76.0,6,183,2.0,0.0
977,64.0,3,64,3.0,0.0
978,55.0,114,66,3.0,0.0
979,59.0,22,52,4.0,0.0
980,64.0,14,64,3.0,0.0
981,78.0,0,186,2.0,0.0
982,55.0,109,71,3.0,0.0
983,59.0,37,59,4.0,0.0
984,64.0,7,71,3.0,0.0
985,79.0,34,185,2.0,0.0
986,55.0,108,71,3.0,0.0
987,59.0,1,58,4.0,0.0
988,78.0,23,173,2.0,0.0
989,55.0,8,67,3.0,0.0
990,64.0,97,74,3.0,0.0
991,59.0,23,61,4.0,0.0
992,55.0,1,49,3.0,0.0
993,76.0,14,177,2.0,0.0
994,64.0,107,66,3.0,0.0
995,59.0,20,56,4.0,0.0
996,64.0,112,74,3.0,0.0
997,55.0,13,60,3.0,0.0
998,71.0,5,171,2.0,0.0
999,59.0,36,61,4.0,0.0
1000,55.0,0,75,3.0,0.0
1001,64.0,47,75,3.0,0.0
1002,72.0,68,99,2.0,0.0
1003,74.0,6,105,2.0,0.0
1004,59.0,2,60,4.0,0.0
1005,55.0,10,48,3.0,0.0
1006,64.0,132,61,3.0,0.0
1007,40.0,2,355,5.0,0.0
1008,72.0,8,161,2.0,0.0
1009,59.0,9,56,4.0,0.0
1010,55.0,53,75,3.0,0.0
1011,64.0,4,65,3.0,0.0
1012,71.0,64,98,2.0,0.0
1013,64.0,1,65,3.0,0.0
1014,57.0,146,62,3.0,0.0
1015,60.0,31,28,4.0,0.0
1016,42.0,21,459,5.0,0.0
1017,71.0,9,331,2.0,0.0
1018,57.0,5,65,3.0,0.0
1019,64.0,2,66,3.0,0.0
1020,60.0,131,54,4.0,0.0
1021,57.0,20,67,3.0,0.0
1022,69.0,15,316,2.0,0.0
1023,64.0,2,55,3.0,0.0
1024,60.0,97,62,4.0,0.0
1025,64.0,16,70,3.0,0.0
1026,57.0,11,52,3.0,0.0
1027,41.0,19,181,5.0,0.0
1028,60.0,93,53,4.0,0.0
1029,57.0,8,67,3.0,0.0
1030,42.0,36,172,5.0,0.0
1031,64.0,16,63,3.0,0.0
1032,60.0,81,58,4.0,0.0
1033,45.0,64,156,5.0,0.0
1034,64.0,15,71,3.0,0.0
1035,57.0,11,59,3.0,0.0
1036,60.0,54,56,4.0,0.0
1037,57.0,7,60,3.0,0.0
1038,64.0,3,58,3.0,0.0
1039,54.0,11,60,5.0,0.0
1040,60.0,128,50,4.0,0.0
1041,57.0,7,58,3.0,0.0
1042,64.0,9,65,3.0,0.0
1043,60.0,137,53,4.0,0.0
1044,57.0,4,69,3.0,0.0
1045,64.0,2,66,3.0,0.0
1046,54.0,8,54,5.0,0.0
1047,60.0,121,54,4.0,0.0
1048,57.0,12,53,3.0,0.0
1049,64.0,14,63,3.0,0.0
1050,72.0,4,179,2.0,0.0
1051,60.0,114,53,4.0,0.0
1052,57.0,17,58,3.0,0.0
1053,64.0,12,69,3.0,0.0
1054,54.0,1,59,5.0,0.0
1055,69.0,9,177,2.0,0.0
1056,60.0,121,55,4.0,0.0
1057,57.0,8,69,3.0,0.0
1058,64.0,1,70,3.0,0.0
1059,60.0,129,51,4.0,0.0
1060,71.0,5,183,2.0,0.0
1061,57.0,6,60,3.0,0.0
1062,64.0,7,61,3.0,0.0
1063,60.0,124,55,4.0,0.0
1064,54.0,53,277,5.0,0.0
1065,72.0,50,412,2.0,0.0
1066,57.0,15,54,3.0,0.0
1067,64.0,5,63,3.0,0.0
1068,60.0,86,56,4.0,0.0
1069,57.0,1,64,3.0,0.0
1070,63.0,3,61,3.0,0.0
1071,60.0,89,53,4.0,0.0
1072,57.0,2,62,3.0,0.0
1073,63.0,4,61,3.0,0.0
1074,78.0,6,195,2.0,0.0
1075,60.0,136,54,4.0,0.0
1076,57.0,3,54,3.0,0.0
1077,63.0,1,51,3.0,0.0
1078,60.0,124,58,4.0,0.0
1079,79.0,59,189,2.0,0.0
1080,57.0,13,52,3.0,0.0
1081,63.0,5,43,3.0,0.0
1082,60.0,3,50,4.0,0.0
1083,81.0,66,95,2.0,0.0
1084,63.0,8,50,3.0,0.0
1085,57.0,9,56,3.0,0.0
1086,59.0,120,50,4.0,0.0
1087,81.0,45,250,2.0,0.0
1088,63.0,0,57,3.0,0.0
1089,57.0,32,51,3.0,0.0
1090,59.0,61,56,4.0,0.0
1091,75.0,24,153,2.0,0.0
1092,63.0,6,61,3.0,0.0
1093,57.0,11,48,3.0,0.0
1094,59.0,91,52,4.0,0.0
1095,78.0,14,141,2.0,0.0
1096,63.0,7,60,3.0,0.0
1097,57.0,23,49,3.0,0.0
1098,59.0,112,47,4.0,0.0
1099,72.0,10,155,2.0,0.0
1100,57.0,20,61,3.0,0.0
1101,66.0,3,71,3.0,0.0
1102,59.0,111,48,4.0,0.0
1103,71.0,18,158,2.0,0.0
1104,39.0,24,304,6.0,0.0
1105,51.0,3,298,5.0,0.0
1106,66.0,9,68,3.0,0.0
1107,69.0,52,119,2.0,0.0
1108,59.0,65,49,4.0,0.0
1109,66.0,131,87,3.0,0.0
1110,52.0,117,367,5.0,0.0
1111,59.0,10,52,4.0,0.0
1112,69.0,25,306,2.0,0.0
1113,40.0,6,458,6.0,0.0
1114,66.0,0,74,3.0,0.0
1115,59.0,120,48,4.0,0.0
1116,64.0,4,66,3.0,0.0
1117,59.0,23,48,4.0,0.0
1118,67.0,14,183,2.0,0.0
1119,51.0,41,172,5.0,0.0
1120,64.0,72,89,3.0,0.0
1121,39.0,18,173,6.0,0.0
1122,59.0,3,52,4.0,0.0
1123,52.0,1,157,5.0,0.0
1124,67.0,12,68,3.0,0.0
1125,40.0,63,131,6.0,0.0
1126,76.0,16,615,2.0,0.0
1127,59.0,74,45,4.0,0.0
1128,55.0,5,138,5.0,0.0
1129,67.0,2,76,3.0,0.0
1130,43.0,78,127,6.0,0.0
1131,59.0,56,50,4.0,0.0
1132,69.0,134,78,3.0,0.0
1133,43.0,10,312,6.0,0.0
1134,55.0,8,322,5.0,0.0
1135,60.0,7,42,4.0,0.0
1136,69.0,9,71,3.0,0.0
1137,60.0,111,48,4.0,0.0
1138,69.0,2,59,3.0,0.0
1139,54.0,35,82,5.0,0.0
1140,75.0,45,277,2.0,0.0
1141,42.0,56,111,6.0,0.0
1142,60.0,19,49,4.0,0.0
1143,69.0,108,54,3.0,0.0
1144,53.0,6,184,5.0,0.0
1145,41.0,120,179,6.0,0.0
1146,69.0,13,62,3.0,0.0
1147,63.0,3,58,4.0,0.0
1148,72.0,50,244,2.0,0.0
1149,54.0,8,165,5.0,0.0
1150,42.0,1,166,6.0,0.0
1151,66.0,28,67,3.0,0.0
1152,63.0,38,72,4.0,0.0
1153,45.0,28,151,6.0,0.0
1154,57.0,4,168,5.0,0.0
1155,64.0,24,64,3.0,0.0
1156,72.0,43,296,2.0,0.0
1157,64.0,53,69,4.0,0.0
1158,55.0,27,146,5.0,0.0
1159,43.0,42,101,6.0,0.0
1160,64.0,22,67,3.0,0.0
1161,64.0,79,58,4.0,0.0
1162,64.0,29,66,3.0,0.0
1163,59.0,5,60,3.0,0.0
1164,71.0,39,166,2.0,0.0
1165,43.0,1,58,6.0,0.0
1166,64.0,48,58,4.0,0.0
1167,55.0,27,102,5.0,0.0
1168,70.0,62,161,2.0,0.0
1169,64.0,17,74,3.0,0.0
1170,59.0,5,66,3.0,0.0
1171,64.0,67,47,4.0,0.0
1172,71.0,2,150,2.0,0.0
1173,64.0,53,88,3.0,0.0
1174,59.0,14,65,3.0,0.0
1175,43.0,1,84,6.0,0.0
1176,55.0,81,131,5.0,0.0
1177,59.0,3,51,4.0,0.0
1178,64.0,3,44,4.0,0.0
1179,76.0,23,124,2.0,0.0
1180,71.0,17,66,3.0,0.0
1181,59.0,3,63,4.0,0.0
1182,64.0,111,88,4.0,0.0
1183,42.0,37,443,6.0,0.0
1184,76.0,22,331,2.0,0.0
1185,54.0,5,462,5.0,0.0
1186,69.0,3,68,3.0,0.0
1187,60.0,128,69,4.0,0.0
1188,60.0,5,64,4.0,0.0
1189,69.0,106,63,3.0,0.0
1190,69.0,72,59,3.0,0.0
1191,75.0,5,309,2.0,0.0
1192,60.0,10,49,4.0,0.0
1193,41.0,5,186,6.0,0.0
1194,60.0,26,41,4.0,0.0
1195,53.0,13,155,5.0,0.0
1196,69.0,97,56,3.0,0.0
1197,42.0,32,177,6.0,0.0
1198,63.0,21,46,4.0,0.0
1199,54.0,34,129,5.0,0.0
1200,69.0,65,56,3.0,0.0
1201,72.0,15,242,2.0,0.0
1202,45.0,52,148,6.0,0.0
1203,63.0,30,54,4.0,0.0
1204,57.0,3,126,5.0,0.0
1205,66.0,32,75,3.0,0.0
1206,62.0,30,864,14.0,0.0
1207,65.0,0,893,14.0,0.0
1208,56.0,2,898,15.0,0.0
1209,44.0,44,91,6.0,0.0
1210,62.0,3,61,4.0,0.0
1211,56.0,23,38,5.0,0.0
1212,65.0,19,60,3.0,0.0
1213,44.0,57,120,15.0,0.0
1214,72.0,46,264,2.0,0.0
1215,56.0,8,41,5.0,0.0
1216,65.0,70,54,3.0,0.0
1217,44.0,7,43,6.0,0.0
1218,62.0,3,46,4.0,0.0
1219,44.0,12,44,6.0,0.0
1220,56.0,4,37,5.0,0.0
1221,65.0,38,69,3.0,0.0
1222,44.0,31,97,15.0,0.0
1223,62.0,14,39,4.0,0.0
1224,71.0,4,37,2.0,0.0
1225,71.0,46,43,2.0,0.0
1226,44.0,2,43,6.0,0.0
1227,71.0,11,55,3.0,0.0
1228,65.0,6,39,3.0,0.0
1229,62.0,6,38,4.0,0.0
1230,56.0,2,25,5.0,0.0
1231,77.0,62,34,2.0,0.0
1232,77.0,50,26,2.0,0.0
1233,44.0,11,93,15.0,0.0
1234,71.0,19,68,3.0,0.0
1235,44.0,6,32,6.0,0.0
1236,62.0,7,38,4.0,0.0
1237,65.0,4,42,3.0,0.0
1238,71.0,4,318,12.0,0.0
1239,56.0,1,26,5.0,0.0
1240,76.0,17,36,2.0,0.0
1241,76.0,69,21,2.0,0.0
1242,44.0,15,32,6.0,0.0
1243,65.0,16,44,3.0,0.0
1244,71.0,39,59,3.0,0.0
1245,74.0,3,38,2.0,0.0
1246,62.0,1,40,4.0,0.0
1247,56.0,1,27,5.0,0.0
1248,74.0,32,35,2.0,0.0
1249,45.0,3,34,6.0,0.0
1250,69.0,7,29,3.0,0.0
1251,64.0,5,44,3.0,0.0
1252,64.0,5,1697,14.0,0.0
1253,60.0,3,31,4.0,0.0
1254,57.0,0,713,15.0,0.0
1255,72.0,4,36,2.0,0.0
1256,45.0,2,706,15.0,0.0
1257,48.0,33,775,10.0,0.0
1258,60.0,41,108,14.0,0.0
1259,57.0,49,36,5.0,0.0
1260,69.0,8,148,13.0,0.0
1261,64.0,3,1671,7.0,0.0
1262,69.0,3,806,7.0,0.0
1263,72.0,6,152,12.0,0.0
1264,72.0,8,34,2.0,0.0
1265,69.0,11,44,3.0,0.0
1266,64.0,3,28,4.0,0.0
1267,45.0,1,33,6.0,0.0
1268,74.0,4,39,2.0,0.0
1269,71.0,6,33,3.0,0.0
1270,57.0,33,36,5.0,0.0
1271,64.0,1,33,4.0,0.0
1272,74.0,4,161,12.0,0.0
1273,71.0,3,134,13.0,0.0
1274,74.0,19,35,2.0,0.0
1275,71.0,49,40,3.0,0.0
1276,64.0,4,35,4.0,0.0
1277,76.0,1,33,2.0,0.0
1278,45.0,18,34,6.0,0.0
1279,72.0,17,463,13.0,0.0
1280,72.0,2,33,3.0,0.0
1281,57.0,33,34,5.0,0.0
1282,64.0,2,28,4.0,0.0
1283,76.0,3,481,12.0,0.0
1284,76.0,17,39,2.0,0.0
1285,64.0,3,30,4.0,0.0
1286,72.0,53,27,3.0,0.0
1287,45.0,9,33,6.0,0.0
1288,64.0,6,38,4.0,0.0
1289,84.0,2,34,2.0,0.0
1290,72.0,2,35,3.0,0.0
1291,57.0,46,32,5.0,0.0
1292,84.0,8,43,2.0,0.0
1293,64.0,11,28,4.0,0.0
1294,72.0,53,40,3.0,0.0
1295,83.0,0,40,2.0,0.0
1296,45.0,4,34,6.0,0.0
1297,64.0,5,33,4.0,0.0
1298,72.0,4,29,3.0,0.0
1299,57.0,35,33,5.0,0.0
1300,83.0,22,23,2.0,0.0
1301,72.0,49,38,3.0,0.0
1302,64.0,5,30,4.0,0.0
1303,72.0,5,34,3.0,0.0
1304,81.0,10,34,2.0,0.0
1305,45.0,4,34,6.0,0.0
1306,64.0,3,33,4.0,0.0
1307,57.0,29,35,5.0,0.0
1308,81.0,14,43,2.0,0.0
1309,72.0,3,39,3.0,0.0
1310,64.0,1,24,4.0,0.0
1311,74.0,13,32,3.0,0.0
1312,44.0,9,773,15.0,0.0
1313,76.0,8,36,2.0,0.0
1314,56.0,0,750,15.0,0.0
1315,62.0,1,813,14.0,0.0
1316,52.0,8,1014,10.0,0.0
1317,44.0,4,33,6.0,0.0
1318,64.0,10,31,4.0,0.0
1319,74.0,0,837,13.0,0.0
1320,56.0,30,32,5.0,0.0
1321,76.0,9,796,12.0,0.0
1322,71.0,5,771,13.0,0.0
1323,71.0,1,763,7.0,0.0
1324,74.0,5,35,3.0,0.0
1325,76.0,15,27,2.0,0.0
1326,64.0,36,30,4.0,0.0
1327,74.0,21,33,3.0,0.0
1328,77.0,5,34,2.0,0.0
1329,44.0,2,32,6.0,0.0
1330,64.0,13,30,4.0,0.0
1331,56.0,20,32,5.0,0.0
1332,74.0,7,38,3.0,0.0
1333,77.0,33,28,2.0,0.0
1334,64.0,21,33,4.0,0.0
1335,74.0,16,35,3.0,0.0
1336,76.0,19,31,2.0,0.0
1337,44.0,9,30,6.0,0.0
1338,56.0,10,32,5.0,0.0
1339,64.0,0,34,4.0,0.0
1340,74.0,8,28,3.0,0.0
1341,76.0,60,20,2.0,0.0
1342,64.0,26,31,4.0,0.0
1343,86.0,8,30,2.0,0.0
1344,76.0,1,25,3.0,0.0
1345,71.0,7,32,3.0,0.0
1346,44.0,9,29,6.0,0.0
1347,56.0,25,32,5.0,0.0
1348,64.0,22,32,4.0,0.0
1349,86.0,4,41,2.0,0.0
1350,76.0,44,41,3.0,0.0
1351,71.0,4,29,3.0,0.0
1352,64.0,16,39,4.0,0.0
1353,76.0,8,43,3.0,0.0
1354,84.0,3,35,2.0,0.0
1355,72.0,2,51,3.0,0.0
1356,44.0,7,31,6.0,0.0
1357,56.0,27,32,5.0,0.0
1358,64.0,5,35,4.0,0.0
1359,84.0,24,34,2.0,0.0
1360,76.0,0,48,3.0,0.0
1361,72.0,37,33,3.0,0.0
1362,64.0,14,40,4.0,0.0
1363,83.0,10,35,2.0,0.0
1364,74.0,12,44,3.0,0.0
1365,76.0,3,38,3.0,0.0
1366,44.0,1,35,6.0,0.0
1367,56.0,20,35,5.0,0.0
1368,64.0,14,38,4.0,0.0
1369,83.0,10,40,2.0,0.0
1370,76.0,16,43,3.0,0.0
1371,74.0,2,40,3.0,0.0
1372,64.0,19,30,4.0,0.0
1373,72.0,3,43,3.0,0.0
1374,76.0,14,27,3.0,0.0
1375,57.0,6,96,15.0,0.0
1376,64.0,25,260,10.0,0.0
1377,45.0,3,85,15.0,0.0
1378,84.0,1,34,2.0,0.0
1379,57.0,8,70,11.0,0.0
1380,45.0,9,40,6.0,0.0
1381,69.0,4,106,7.0,0.0
1382,60.0,5,123,14.0,0.0
1383,72.0,0,106,13.0,0.0
1384,69.0,1,96,13.0,0.0
1385,57.0,6,34,5.0,0.0
1386,64.0,12,34,4.0,0.0
1387,76.0,3,44,3.0,0.0
1388,72.0,5,28,3.0,0.0
1389,84.0,13,39,2.0,0.0
1390,64.0,10,32,4.0,0.0
1391,76.0,10,34,3.0,0.0
1392,72.0,6,40,3.0,0.0
1393,84.0,27,40,2.0,0.0
1394,64.0,15,35,4.0,0.0
1395,76.0,19,51,3.0,0.0
1396,72.0,14,20,3.0,0.0
1397,84.0,7,33,2.0,0.0
1398,64.0,11,37,4.0,0.0
1399,76.0,36,43,3.0,0.0
1400,76.0,1,573,8.0,0.0
1401,84.0,10,106,2.0,0.0
1402,64.0,2,568,8.0,0.0
1403,40.0,6,495,6.0,0.0
1404,68.0,1,312,7.0,0.0
1405,64.0,17,36,4.0,0.0
1406,68.0,5,296,13.0,0.0
1407,74.0,1,301,13.0,0.0
1408,88.0,0,498,12.0,0.0
1409,76.0,8,499,12.0,0.0
1410,62.0,2,290,10.0,0.0
1411,64.0,7,523,14.0,0.0
1412,52.0,1,508,5.0,0.0
1413,52.0,0,626,10.0,0.0
1414,52.0,3,504,15.0,0.0
1415,76.0,31,43,3.0,0.0
1416,64.0,3,616,7.0,0.0
1417,59.0,0,301,14.0,0.0
1418,40.0,4,501,15.0,0.0
1419,40.0,0,76,1.0,0.0
1420,52.0,6,515,11.0,0.0
1421,64.0,26,26,4.0,0.0
1422,74.0,28,42,3.0,0.0
1423,41.0,8,47,1.0,0.0
1424,64.0,12,37,4.0,0.0
1425,83.0,12,35,2.0,0.0
1426,74.0,15,43,3.0,0.0
1427,40.0,19,51,1.0,0.0
1428,83.0,13,29,2.0,0.0
1429,41.0,0,39,1.0,0.0
1430,64.0,18,36,4.0,0.0
1431,72.0,30,39,3.0,0.0
1432,40.0,6,51,1.0,0.0
1433,81.0,14,36,2.0,0.0
1434,41.0,9,38,1.0,0.0
1435,64.0,0,30,4.0,0.0
1436,72.0,22,43,3.0,0.0
1437,69.0,1,148,7.0,0.0
1438,60.0,7,114,10.0,0.0
1439,72.0,11,115,13.0,0.0
1440,69.0,2,111,13.0,0.0
1441,40.0,10,47,1.0,0.0
1442,60.0,3,137,14.0,0.0
1443,81.0,13,32,2.0,0.0
1444,71.0,9,33,3.0,0.0
1445,64.0,12,40,4.0,0.0
1446,41.0,24,44,1.0,0.0
1447,80.0,1,37,2.0,0.0
1448,40.0,5,46,1.0,0.0
1449,71.0,1,39,3.0,0.0
1450,64.0,5,36,4.0,0.0
1451,72.0,2,30,3.0,0.0
1452,71.0,6,150,7.0,0.0
1453,71.0,7,139,13.0,0.0
1454,62.0,5,171,10.0,0.0
1455,74.0,0,163,13.0,0.0
1456,41.0,27,44,1.0,0.0
1457,59.0,1,165,14.0,0.0
1458,80.0,15,18,2.0,0.0
1459,40.0,1,60,1.0,0.0
1460,64.0,10,36,4.0,0.0
1461,72.0,5,38,3.0,0.0
1462,81.0,7,35,2.0,0.0
1463,41.0,14,61,1.0,0.0
1464,45.0,0,81,6.0,0.0
1465,64.0,0,36,4.0,0.0
1466,72.0,3,34,3.0,0.0
1467,57.0,1,60,5.0,0.0
1468,45.0,1,87,15.0,0.0
1469,88.0,3,46,12.0,0.0
1470,57.0,7,84,15.0,0.0
1471,76.0,2,43,12.0,0.0
1472,72.0,1,89,13.0,0.0
1473,69.0,1,74,13.0,0.0
1474,57.0,0,94,11.0,0.0
1475,40.0,1,41,1.0,0.0
1476,64.0,3,65,14.0,0.0
1477,69.0,26,89,7.0,0.0
1478,81.0,23,38,2.0,0.0
1479,60.0,1,72,14.0,0.0
1480,60.0,2,66,10.0,0.0
1481,64.0,2,37,4.0,0.0
1482,76.0,4,31,3.0,0.0
1483,84.0,24,32,2.0,0.0
1484,64.0,17,35,4.0,0.0
1485,76.0,21,45,3.0,0.0
1486,84.0,32,32,2.0,0.0
1487,64.0,24,39,4.0,0.0
1488,76.0,39,49,3.0,0.0
1489,84.0,20,95,2.0,0.0
1490,40.0,12,507,6.0,0.0
1491,64.0,27,40,4.0,0.0
1492,52.0,13,468,5.0,0.0
1493,88.0,6,533,12.0,0.0
1494,68.0,3,279,13.0,0.0
1495,76.0,6,490,12.0,0.0
1496,74.0,13,291,13.0,0.0
1497,76.0,3,515,8.0,0.0
1498,64.0,2,512,8.0,0.0
1499,52.0,0,482,15.0,0.0
1500,40.0,9,77,1.0,0.0
1501,68.0,13,293,7.0,0.0
1502,40.0,4,495,15.0,0.0
1503,62.0,1,287,10.0,0.0
1504,76.0,3,44,3.0,0.0
1505,52.0,0,475,11.0,0.0
1506,52.0,3,490,10.0,0.0
1507,64.0,1,600,7.0,0.0
1508,64.0,6,549,14.0,0.0
1509,59.0,1,285,14.0,0.0
1510,64.0,31,31,4.0,0.0
1511,74.0,20,33,3.0,0.0
1512,83.0,12,37,2.0,0.0
1513,64.0,17,37,4.0,0.0
1514,40.0,21,45,1.0,0.0
1515,74.0,3,48,3.0,0.0
1516,83.0,5,28,2.0,0.0
1517,41.0,25,32,1.0,0.0
1518,64.0,15,41,4.0,0.0
1519,40.0,18,37,1.0,0.0
1520,72.0,8,37,3.0,0.0
1521,81.0,8,41,2.0,0.0
1522,41.0,9,41,1.0,0.0
1523,64.0,1,34,4.0,0.0
1524,69.0,7,142,7.0,0.0
1525,69.0,3,114,13.0,0.0
1526,40.0,5,34,1.0,0.0
1527,72.0,16,115,13.0,0.0
1528,72.0,24,40,3.0,0.0
1529,81.0,8,31,2.0,0.0
1530,60.0,25,60,10.0,0.0
1531,60.0,0,59,14.0,0.0
1532,41.0,1,39,1.0,0.0
1533,64.0,2,35,4.0,0.0
1534,71.0,8,33,3.0,0.0
1535,80.0,5,35,2.0,0.0
1536,40.0,7,125,1.0,0.0
1537,64.0,9,39,4.0,0.0
1538,41.0,5,36,1.0,0.0
1539,74.0,3,140,13.0,0.0
1540,71.0,3,105,13.0,0.0
1541,71.0,3,149,7.0,0.0
1542,59.0,2,181,14.0,0.0
1543,71.0,9,48,3.0,0.0
1544,80.0,19,27,2.0,0.0
1545,62.0,4,135,10.0,0.0
1546,64.0,5,31,4.0,0.0
1547,41.0,2,73,1.0,0.0
1548,72.0,1,35,3.0,0.0
1549,81.0,7,38,2.0,0.0
1550,57.0,2,53,5.0,0.0
1551,45.0,2,46,6.0,0.0
1552,64.0,2,33,4.0,0.0
1553,84.0,10,47,12.0,0.0
1554,72.0,2,40,12.0,0.0
1555,57.0,8,101,11.0,0.0
1556,57.0,18,114,15.0,0.0
1557,45.0,7,104,15.0,0.0
1558,69.0,11,379,13.0,0.0
1559,72.0,1,81,13.0,0.0
1560,40.0,11,29,1.0,0.0
1561,69.0,1,97,7.0,0.0
1562,69.0,2,97,14.0,0.0
1563,60.0,44,118,10.0,0.0
1564,60.0,4,82,14.0,0.0
1565,72.0,2,31,3.0,0.0
1566,81.0,24,37,2.0,0.0
1567,64.0,4,23,4.0,0.0
1568,69.0,3,30,3.0,0.0
1569,84.0,1,31,2.0,0.0
1570,69.0,14,72,4.0,0.0
1571,69.0,65,53,3.0,0.0
1572,84.0,13,35,2.0,0.0
1573,39.0,16,503,6.0,0.0
1574,69.0,25,40,3.0,0.0
1575,83.0,33,112,2.0,0.0
1576,51.0,6,485,5.0,0.0
1577,71.0,43,51,4.0,0.0
1578,71.0,4,525,7.0,0.0
1579,51.0,1,527,11.0,0.0
1580,59.0,4,602,7.0,0.0
1581,47.0,1,79,1.0,0.0
1582,71.0,1,594,14.0,0.0
1583,59.0,2,140,14.0,0.0
1584,51.0,13,495,15.0,0.0
1585,78.0,5,286,13.0,0.0
1586,71.0,11,229,12.0,0.0
1587,39.0,4,485,15.0,0.0
1588,83.0,5,563,12.0,0.0
1589,69.0,2,43,3.0,0.0
1590,71.0,6,23,4.0,0.0
1591,48.0,3,40,1.0,0.0
1592,66.0,11,32,3.0,0.0
1593,71.0,16,37,4.0,0.0
1594,47.0,33,47,1.0,0.0
1595,81.0,5,84,2.0,0.0
1596,66.0,0,150,14.0,0.0
1597,66.0,21,109,13.0,0.0
1598,81.0,5,158,12.0,0.0
1599,48.0,2,42,1.0,0.0
1600,66.0,6,43,3.0,0.0
1601,71.0,23,32,4.0,0.0
1602,47.0,8,37,1.0,0.0
1603,48.0,1,40,1.0,0.0
1604,67.0,2,37,3.0,0.0
1605,79.0,2,35,2.0,0.0
1606,71.0,20,32,4.0,0.0
1607,67.0,31,154,14.0,0.0
1608,67.0,11,129,13.0,0.0
1609,79.0,5,138,12.0,0.0
1610,47.0,27,34,1.0,0.0
1611,79.0,1,131,13.0,0.0
1612,79.0,4,37,2.0,0.0
1613,67.0,38,49,3.0,0.0
1614,71.0,11,34,4.0,0.0
1615,48.0,0,40,1.0,0.0
1616,47.0,8,39,1.0,0.0
1617,78.0,0,34,2.0,0.0
1618,71.0,2,37,4.0,0.0
1619,69.0,3,34,3.0,0.0
1620,78.0,2,148,12.0,0.0
1621,69.0,2,116,14.0,0.0
1622,48.0,5,101,1.0,0.0
1623,78.0,1,119,13.0,0.0
1624,69.0,1,93,13.0,0.0
1625,78.0,13,31,2.0,0.0
1626,71.0,4,37,4.0,0.0
1627,69.0,5,48,3.0,0.0
1628,47.0,6,82,1.0,0.0
1629,52.0,21,63,5.0,0.0
1630,79.0,16,38,2.0,0.0
1631,40.0,2,76,6.0,0.0
1632,79.0,10,77,12.0,0.0
1633,71.0,0,36,4.0,0.0
1634,67.0,6,88,7.0,0.0
1635,52.0,1,100,11.0,0.0
1636,67.0,2,36,3.0,0.0
1637,40.0,5,24,1.0,0.0
1638,52.0,2,83,15.0,0.0
1639,67.0,4,62,14.0,0.0
1640,67.0,6,86,13.0,0.0
1641,76.0,36,89,13.0,0.0
1642,40.0,0,66,15.0,0.0
1643,79.0,1,43,2.0,0.0
1644,71.0,4,31,4.0,0.0
1645,67.0,1,32,3.0,0.0
1646,83.0,23,31,2.0,0.0
1647,67.0,4,36,3.0,0.0
1648,71.0,34,35,4.0,0.0
1649,83.0,16,39,2.0,0.0
1650,67.0,62,43,3.0,0.0
1651,71.0,15,25,4.0,0.0
1652,83.0,25,97,2.0,0.0
1653,51.0,3,497,5.0,0.0
1654,39.0,8,466,6.0,0.0
1655,71.0,1,39,4.0,0.0
1656,71.0,4,602,14.0,0.0
1657,83.0,4,378,12.0,0.0
1658,66.0,29,33,3.0,0.0
1659,69.0,0,156,14.0,0.0
1660,59.0,3,520,7.0,0.0
1661,51.0,10,483,15.0,0.0
1662,78.0,5,106,12.0,0.0
1663,66.0,3,271,13.0,0.0
1664,78.0,1,294,13.0,0.0
1665,39.0,1,473,15.0,0.0
1666,71.0,10,572,7.0,0.0
1667,51.0,13,502,11.0,0.0
1668,47.0,11,48,1.0,0.0
1669,66.0,4,47,3.0,0.0
1670,71.0,9,35,4.0,0.0
1671,48.0,35,37,1.0,0.0
1672,47.0,7,42,1.0,0.0
1673,71.0,6,36,4.0,0.0
1674,81.0,29,37,2.0,0.0
1675,66.0,0,21,3.0,0.0
1676,81.0,3,160,12.0,0.0
1677,66.0,38,164,14.0,0.0
1678,48.0,25,47,1.0,0.0
1679,47.0,8,37,1.0,0.0
1680,81.0,4,33,2.0,0.0
1681,71.0,3,35,4.0,0.0
1682,66.0,35,37,3.0,0.0
1683,48.0,9,48,1.0,0.0
1684,79.0,11,36,2.0,0.0
1685,79.0,20,121,12.0,0.0
1686,71.0,5,35,4.0,0.0
1687,47.0,2,27,1.0,0.0
1688,67.0,6,35,3.0,0.0
1689,67.0,23,127,13.0,0.0
1690,79.0,3,122,13.0,0.0
1691,67.0,2,150,14.0,0.0
1692,48.0,4,49,1.0,0.0
1693,79.0,12,45,2.0,0.0
1694,71.0,12,38,4.0,0.0
1695,67.0,2,36,3.0,0.0
1696,47.0,1,30,1.0,0.0
1697,78.0,1,31,12.0,0.0
1698,78.0,1,33,2.0,0.0
1699,71.0,3,38,4.0,0.0
1700,69.0,24,34,3.0,0.0
1701,78.0,12,125,13.0,0.0
1702,69.0,5,132,13.0,0.0
1703,69.0,2,136,14.0,0.0
1704,48.0,6,67,1.0,0.0
1705,78.0,9,37,2.0,0.0
1706,71.0,2,33,4.0,0.0
1707,69.0,14,38,3.0,0.0
1708,47.0,2,86,1.0,0.0
1709,52.0,2,62,5.0,0.0
1710,40.0,7,69,6.0,0.0
1711,79.0,14,40,2.0,0.0
1712,79.0,4,112,12.0,0.0
1713,91.0,5,94,12.0,0.0
1714,71.0,3,38,4.0,0.0
1715,67.0,7,59,14.0,0.0
1716,64.0,2,89,7.0,0.0
1717,67.0,4,34,3.0,0.0
1718,40.0,3,35,1.0,0.0
1719,52.0,23,115,15.0,0.0
1720,40.0,11,71,15.0,0.0
1721,52.0,1,89,11.0,0.0
1722,67.0,4,81,13.0,0.0
1723,76.0,11,84,13.0,0.0
1724,79.0,3,27,2.0,0.0
1725,71.0,6,43,4.0,0.0
1726,67.0,2,23,3.0,0.0
1727,79.0,29,33,2.0,0.0
1728,71.0,0,25,4.0,0.0
1729,64.0,34,35,3.0,0.0
1730,79.0,2,36,2.0,0.0
1731,71.0,29,30,4.0,0.0
1732,64.0,56,42,3.0,0.0
1733,34.0,17,509,6.0,0.0
1734,46.0,18,50,5.0,0.0
1735,91.0,10,141,12.0,0.0
1736,79.0,17,110,2.0,0.0
1737,73.0,1,522,14.0,0.0
1738,73.0,4,34,4.0,0.0
1739,85.0,3,516,12.0,0.0
1740,64.0,6,141,14.0,0.0
1741,79.0,1,147,13.0,0.0
1742,46.0,4,547,11.0,0.0
1743,46.0,3,526,15.0,0.0
1744,64.0,13,494,7.0,0.0
1745,64.0,32,41,3.0,0.0
1746,64.0,3,135,13.0,0.0
1747,58.0,6,532,15.0,0.0
1748,64.0,3,248,10.0,0.0
1749,52.0,22,436,7.0,0.0
1750,40.0,6,77,1.0,0.0
1751,76.0,29,252,8.0,0.0
1752,64.0,2,248,8.0,0.0
1753,52.0,2,242,10.0,0.0
1754,73.0,9,33,4.0,0.0
1755,64.0,12,44,3.0,0.0
1756,41.0,3,32,1.0,0.0
1757,46.0,5,40,5.0,0.0
1758,90.0,1,89,12.0,0.0
1759,73.0,5,24,4.0,0.0
1760,78.0,21,67,13.0,0.0
1761,66.0,4,50,13.0,0.0
1762,78.0,10,32,2.0,0.0
1763,66.0,1,86,14.0,0.0
1764,40.0,12,44,1.0,0.0
1765,64.0,7,31,3.0,0.0
1766,41.0,11,41,1.0,0.0
1767,73.0,0,37,4.0,0.0
1768,78.0,2,47,2.0,0.0
1769,64.0,24,31,3.0,0.0
1770,40.0,8,36,1.0,0.0
1771,41.0,2,46,1.0,0.0
1772,46.0,0,42,5.0,0.0
1773,78.0,0,35,2.0,0.0
1774,90.0,12,98,12.0,0.0
1775,73.0,16,33,4.0,0.0
1776,66.0,2,128,14.0,0.0
1777,66.0,11,143,13.0,0.0
1778,78.0,9,125,13.0,0.0
1779,66.0,22,33,3.0,0.0
1780,40.0,14,32,1.0,0.0
1781,78.0,10,34,2.0,0.0
1782,73.0,1,31,4.0,0.0
1783,66.0,21,42,3.0,0.0
1784,41.0,7,64,1.0,0.0
1785,46.0,20,47,5.0,0.0
1786,67.0,2,160,13.0,0.0
1787,67.0,5,83,14.0,0.0
1788,88.0,1,159,12.0,0.0
1789,73.0,5,33,4.0,0.0
1790,76.0,1,158,13.0,0.0
1791,76.0,2,29,2.0,0.0
1792,40.0,7,123,1.0,0.0
1793,67.0,0,33,3.0,0.0
1794,76.0,4,45,2.0,0.0
1795,73.0,2,20,4.0,0.0
1796,67.0,15,40,3.0,0.0
1797,87.0,4,100,12.0,0.0
1798,71.0,6,33,4.0,0.0
1799,75.0,3,103,13.0,0.0
1800,47.0,0,37,1.0,0.0
1801,83.0,3,105,12.0,0.0
1802,47.0,24,65,11.0,0.0
1803,47.0,17,40,5.0,0.0
1804,35.0,0,40,6.0,0.0
1805,66.0,2,94,13.0,0.0
1806,59.0,3,83,7.0,0.0
1807,75.0,5,28,2.0,0.0
1808,71.0,21,106,14.0,0.0
1809,66.0,14,123,14.0,0.0
1810,47.0,10,85,15.0,0.0
1811,59.0,6,94,15.0,0.0
1812,66.0,7,32,3.0,0.0
1813,71.0,2,47,4.0,0.0
1814,75.0,1,34,2.0,0.0
1815,66.0,3,24,3.0,0.0
1816,71.0,5,43,4.0,0.0
1817,79.0,0,53,13.0,0.0
1818,64.0,5,52,13.0,0.0
1819,64.0,4,56,7.0,0.0
1820,35.0,4,33,6.0,0.0
1821,91.0,7,82,12.0,0.0
1822,85.0,13,85,12.0,0.0
1823,52.0,9,53,7.0,0.0
1824,47.0,8,36,5.0,0.0
1825,73.0,4,66,14.0,0.0
1826,64.0,0,46,14.0,0.0
1827,79.0,0,34,2.0,0.0
1828,64.0,10,35,3.0,0.0
1829,71.0,14,38,4.0,0.0
1830,79.0,11,30,2.0,0.0
1831,64.0,51,33,3.0,0.0
1832,46.0,13,48,5.0,0.0
1833,91.0,1,151,12.0,0.0
1834,85.0,16,428,12.0,0.0
1835,79.0,6,157,13.0,0.0
1836,34.0,17,53,6.0,0.0
1837,73.0,0,40,4.0,0.0
1838,76.0,1,283,8.0,0.0
1839,64.0,1,277,8.0,0.0
1840,64.0,7,142,13.0,0.0
1841,46.0,5,411,11.0,0.0
1842,64.0,3,269,10.0,0.0
1843,64.0,12,503,7.0,0.0
1844,52.0,25,545,7.0,0.0
1845,73.0,4,512,14.0,0.0
1846,79.0,14,99,2.0,0.0
1847,40.0,16,71,1.0,0.0
1848,52.0,2,268,10.0,0.0
1849,64.0,2,125,14.0,0.0
1850,58.0,5,467,15.0,0.0
1851,64.0,17,39,3.0,0.0
1852,46.0,4,451,15.0,0.0
1853,73.0,11,35,4.0,0.0
1854,41.0,10,52,1.0,0.0
1855,64.0,7,38,3.0,0.0
1856,90.0,16,76,12.0,0.0
1857,78.0,4,65,13.0,0.0
1858,66.0,12,53,13.0,0.0
1859,46.0,8,40,5.0,0.0
1860,34.0,2,45,6.0,0.0
1861,73.0,8,29,4.0,0.0
1862,40.0,1,37,1.0,0.0
1863,66.0,1,75,14.0,0.0
1864,78.0,2,31,2.0,0.0
1865,66.0,4,32,3.0,0.0
1866,41.0,1,37,1.0,0.0
1867,73.0,22,36,4.0,0.0
1868,78.0,7,44,2.0,0.0
1869,40.0,22,37,1.0,0.0
1870,66.0,8,28,3.0,0.0
1871,73.0,16,35,4.0,0.0
1872,41.0,7,39,1.0,0.0
1873,46.0,1,37,5.0,0.0
1874,90.0,11,88,12.0,0.0
1875,66.0,1,149,13.0,0.0
1876,66.0,9,129,14.0,0.0
1877,34.0,8,37,6.0,0.0
1878,78.0,1,115,13.0,0.0
1879,78.0,10,40,2.0,0.0
1880,66.0,11,34,3.0,0.0
1881,40.0,6,40,1.0,0.0
1882,73.0,13,34,4.0,0.0
1883,78.0,13,36,2.0,0.0
1884,41.0,8,33,1.0,0.0
1885,66.0,8,42,3.0,0.0
1886,73.0,11,29,4.0,0.0
1887,88.0,4,94,12.0,0.0
1888,40.0,0,121,1.0,0.0
1889,67.0,3,111,14.0,0.0
1890,76.0,5,91,13.0,0.0
1891,67.0,10,100,13.0,0.0
1892,34.0,17,36,6.0,0.0
1893,46.0,3,33,5.0,0.0
1894,76.0,6,65,2.0,0.0
1895,67.0,15,33,3.0,0.0
1896,73.0,2,39,4.0,0.0
1897,67.0,28,48,3.0,0.0
1898,75.0,14,101,13.0,0.0
1899,83.0,3,1374,12.0,0.0
1900,66.0,3,97,13.0,0.0
1901,47.0,3,360,11.0,0.0
1902,87.0,6,806,12.0,0.0
1903,47.0,8,106,1.0,0.0
1904,35.0,12,352,6.0,0.0
1905,71.0,7,1317,14.0,0.0
1906,59.0,4,1526,7.0,0.0
1907,47.0,8,368,15.0,0.0
1908,59.0,8,359,15.0,0.0
1909,47.0,8,336,5.0,0.0
1910,66.0,20,805,14.0,0.0
1911,71.0,7,34,4.0,0.0
1912,48.0,7,26,1.0,0.0
1913,66.0,3,32,3.0,0.0
1914,75.0,32,32,2.0,0.0
1915,66.0,11,41,3.0,0.0
1916,71.0,34,54,4.0,0.0
1917,75.0,4,36,2.0,0.0
1918,48.0,14,49,1.0,0.0
1919,66.0,11,33,3.0,0.0
1920,71.0,49,36,4.0,0.0
1921,75.0,1,34,2.0,0.0
1922,66.0,7,38,3.0,0.0
1923,75.0,6,36,2.0,0.0
1924,71.0,15,37,4.0,0.0
1925,47.0,35,34,1.0,0.0
1926,66.0,4,230,7.0,0.0
1927,78.0,5,543,13.0,0.0
1928,71.0,18,1098,13.0,0.0
1929,48.0,18,24,1.0,0.0
1930,71.0,9,38,4.0,0.0
1931,83.0,7,34,2.0,0.0
1932,47.0,10,41,1.0,0.0
1933,75.0,1,30,3.0,0.0
1934,48.0,2,439,1.0,0.0
1935,71.0,1,31,4.0,0.0
1936,83.0,61,39,2.0,0.0
1937,75.0,2,34,3.0,0.0
1938,47.0,3,172,1.0,0.0
1939,46.0,0,112,11.0,0.0
1940,83.0,5,45,2.0,0.0
1941,75.0,7,28,3.0,0.0
1942,71.0,36,34,4.0,0.0
1943,46.0,24,119,5.0,0.0
1944,58.0,3,98,15.0,0.0
1945,46.0,2,112,15.0,0.0
1946,34.0,12,100,6.0,0.0
1947,75.0,10,33,3.0,0.0
1948,83.0,2,38,2.0,0.0
1949,71.0,17,28,4.0,0.0
1950,47.0,5,97,11.0,0.0
1951,75.0,7,34,3.0,0.0
1952,83.0,13,36,2.0,0.0
1953,47.0,15,86,15.0,0.0
1954,47.0,22,112,5.0,0.0
1955,59.0,6,104,15.0,0.0
1956,71.0,5,212,7.0,0.0
1957,71.0,38,31,4.0,0.0
1958,35.0,20,129,6.0,0.0
1959,47.0,15,169,1.0,0.0
1960,75.0,4,35,3.0,0.0
1961,83.0,0,41,2.0,0.0
1962,71.0,7,28,4.0,0.0
1963,75.0,3,32,3.0,0.0
1964,54.0,5,91,11.0,0.0
1965,83.0,19,37,2.0,0.0
1966,54.0,1,99,5.0,0.0
1967,42.0,11,98,6.0,0.0
1968,66.0,1,103,15.0,0.0
1969,54.0,10,99,15.0,0.0
1970,71.0,6,32,4.0,0.0
1971,75.0,5,40,3.0,0.0
1972,83.0,9,34,2.0,0.0
1973,71.0,2,35,4.0,0.0
1974,47.0,2,51,1.0,0.0
1975,55.0,2,87,11.0,0.0
1976,76.0,2,34,3.0,0.0
1977,83.0,15,35,2.0,0.0
1978,55.0,6,70,5.0,0.0
1979,43.0,6,58,6.0,0.0
1980,40.0,13,34,1.0,0.0
1981,67.0,19,94,15.0,0.0
1982,88.0,8,776,12.0,0.0
1983,64.0,10,80,10.0,0.0
1984,55.0,3,65,15.0,0.0
1985,52.0,7,64,10.0,0.0
1986,71.0,10,34,4.0,0.0
1987,64.0,4,802,14.0,0.0
1988,71.0,3,492,7.0,0.0
1989,76.0,24,731,13.0,0.0
1990,83.0,0,39,2.0,0.0
1991,76.0,3,31,3.0,0.0
1992,71.0,29,41,4.0,0.0
1993,76.0,10,36,3.0,0.0
1994,83.0,33,40,2.0,0.0
1995,71.0,14,34,4.0,0.0
1996,83.0,42,43,2.0,0.0
1997,76.0,8,33,3.0,0.0
1998,71.0,14,40,4.0,0.0
1999,76.0,13,34,3.0,0.0
2000,83.0,26,41,2.0,0.0
2001,55.0,6,98,11.0,0.0
2002,43.0,12,59,6.0,0.0
2003,64.0,11,99,10.0,0.0
2004,55.0,4,86,15.0,0.0
2005,67.0,4,90,15.0,0.0
2006,52.0,10,72,10.0,0.0
2007,71.0,1,37,4.0,0.0
2008,55.0,2,85,5.0,0.0
2009,40.0,7,28,1.0,0.0
2010,76.0,10,36,3.0,0.0
2011,83.0,5,41,2.0,0.0
2012,71.0,12,41,4.0,0.0
2013,76.0,8,29,3.0,0.0
2014,83.0,37,34,2.0,0.0
2015,71.0,22,34,4.0,0.0
2016,76.0,4,35,3.0,0.0
2017,83.0,28,38,2.0,0.0
2018,71.0,20,34,4.0,0.0
2019,76.0,3,34,3.0,0.0
2020,82.0,25,31,2.0,0.0
2021,54.0,24,99,11.0,0.0
2022,73.0,2,32,4.0,0.0
2023,42.0,9,49,6.0,0.0
2024,73.0,12,221,13.0,0.0
2025,82.0,4,263,12.0,0.0
2026,73.0,4,258,14.0,0.0
2027,54.0,7,66,5.0,0.0
2028,66.0,10,102,15.0,0.0
2029,66.0,6,200,7.0,0.0
2030,40.0,0,36,1.0,0.0
2031,54.0,7,91,15.0,0.0
2032,82.0,16,41,2.0,0.0
2033,76.0,7,33,3.0,0.0
2034,73.0,1,31,4.0,0.0
2035,76.0,4,39,3.0,0.0
2036,82.0,52,38,2.0,0.0
2037,73.0,18,77,4.0,0.0
2038,82.0,8,37,2.0,0.0
2039,76.0,3,30,3.0,0.0
2040,75.0,2,36,3.0,0.0
2041,83.0,3,37,2.0,0.0
2042,35.0,18,372,6.0,0.0
2043,71.0,23,36,4.0,0.0
2044,71.0,4,1314,13.0,0.0
2045,78.0,9,805,13.0,0.0
2046,47.0,13,315,5.0,0.0
2047,66.0,2,749,14.0,0.0
2048,87.0,0,784,12.0,0.0
2049,83.0,9,1270,12.0,0.0
2050,71.0,7,1262,14.0,0.0
2051,47.0,18,356,11.0,0.0
2052,59.0,5,376,15.0,0.0
2053,59.0,2,1253,7.0,0.0
2054,71.0,2,1253,7.0,0.0
2055,48.0,19,17,11.0,0.0
2056,47.0,29,381,15.0,0.0
2057,47.0,1,105,1.0,0.0
2058,75.0,10,34,3.0,0.0
2059,83.0,0,41,2.0,0.0
2060,71.0,49,28,4.0,0.0
2061,75.0,12,32,3.0,0.0
2062,83.0,11,38,2.0,0.0
2063,71.0,31,26,4.0,0.0
2064,48.0,12,52,1.0,0.0
2065,75.0,11,36,3.0,0.0
2066,83.0,2,43,2.0,0.0
2067,71.0,13,28,4.0,0.0
2068,47.0,37,36,1.0,0.0
2069,48.0,6,43,1.0,0.0
2070,75.0,5,37,3.0,0.0
2071,83.0,12,37,2.0,0.0
2072,71.0,18,37,4.0,0.0
2073,47.0,11,45,1.0,0.0
2074,75.0,12,31,3.0,0.0
2075,48.0,8,44,1.0,0.0
2076,83.0,1,40,2.0,0.0
2077,71.0,11,40,4.0,0.0
2078,47.0,6,48,1.0,0.0
2079,75.0,1,32,3.0,0.0
2080,83.0,4,35,2.0,0.0
2081,48.0,3,40,1.0,0.0
2082,46.0,5,148,5.0,0.0
2083,71.0,4,28,4.0,0.0
2084,34.0,2,111,6.0,0.0
2085,47.0,0,47,1.0,0.0
2086,46.0,6,107,11.0,0.0
2087,75.0,20,41,3.0,0.0
2088,46.0,1,101,15.0,0.0
2089,58.0,5,120,15.0,0.0
2090,83.0,15,39,2.0,0.0
2091,48.0,17,41,1.0,0.0
2092,71.0,1,25,4.0,0.0
2093,75.0,11,32,3.0,0.0
2094,47.0,6,46,1.0,0.0
2095,83.0,17,37,2.0,0.0
2096,47.0,6,110,5.0,0.0
2097,48.0,1,46,1.0,0.0
2098,35.0,7,112,6.0,0.0
2099,71.0,10,36,4.0,0.0
2100,47.0,2,90,11.0,0.0
2101,75.0,23,31,3.0,0.0
2102,47.0,4,45,1.0,0.0
2103,59.0,0,105,15.0,0.0
2104,47.0,5,130,15.0,0.0
2105,83.0,13,38,2.0,0.0
2106,48.0,10,174,1.0,0.0
2107,71.0,11,24,4.0,0.0
2108,75.0,21,37,3.0,0.0
2109,47.0,5,44,1.0,0.0
2110,83.0,19,36,2.0,0.0
2111,54.0,4,98,5.0,0.0
2112,42.0,9,98,6.0,0.0
2113,71.0,1,32,4.0,0.0
2114,75.0,24,31,3.0,0.0
2115,54.0,1,90,11.0,0.0
2116,66.0,5,100,15.0,0.0
2117,54.0,2,93,15.0,0.0
2118,83.0,22,36,2.0,0.0
2119,47.0,2,84,1.0,0.0
2120,71.0,5,29,4.0,0.0
2121,76.0,2,32,3.0,0.0
2122,83.0,38,38,2.0,0.0
2123,55.0,5,64,5.0,0.0
2124,43.0,4,49,6.0,0.0
2125,71.0,1,36,4.0,0.0
2126,55.0,5,67,11.0,0.0
2127,83.0,3,40,2.0,0.0
2128,40.0,1,24,1.0,0.0
2129,67.0,10,68,15.0,0.0
2130,55.0,6,62,15.0,0.0
2131,76.0,16,34,3.0,0.0
2132,64.0,2,769,14.0,0.0
2133,64.0,9,78,10.0,0.0
2134,52.0,14,63,10.0,0.0
2135,76.0,2,753,13.0,0.0
2136,88.0,28,690,12.0,0.0
2137,71.0,1,35,4.0,0.0
2138,76.0,41,38,3.0,0.0
2139,83.0,1,36,2.0,0.0
2140,83.0,0,40,2.0,0.0
2141,71.0,15,23,4.0,0.0
2142,76.0,44,32,3.0,0.0
2143,71.0,20,44,4.0,0.0
2144,83.0,48,40,2.0,0.0
2145,76.0,2,35,3.0,0.0
2146,55.0,28,63,5.0,0.0
2147,43.0,1,46,6.0,0.0
2148,71.0,3,43,4.0,0.0
2149,83.0,3,38,2.0,0.0
2150,55.0,9,78,11.0,0.0
2151,76.0,10,37,3.0,0.0
2152,40.0,2,17,1.0,0.0
2153,67.0,10,272,15.0,0.0
2154,55.0,8,282,15.0,0.0
2155,64.0,22,89,10.0,0.0
2156,52.0,16,64,10.0,0.0
2157,71.0,13,39,4.0,0.0
2158,83.0,1,34,2.0,0.0
2159,76.0,4,32,3.0,0.0
2160,71.0,17,30,4.0,0.0
2161,83.0,5,41,2.0,0.0
2162,76.0,30,38,3.0,0.0
2163,71.0,22,28,4.0,0.0
2164,82.0,10,32,2.0,0.0
2165,76.0,27,36,3.0,0.0
2166,54.0,0,47,5.0,0.0
2167,73.0,2,36,4.0,0.0
2168,42.0,4,33,6.0,0.0
2169,82.0,0,40,2.0,0.0
2170,76.0,3,30,3.0,0.0
2171,73.0,0,211,13.0,0.0
2172,54.0,17,72,11.0,0.0
2173,40.0,11,45,1.0,0.0
2174,82.0,1,216,12.0,0.0
2175,73.0,6,251,14.0,0.0
2176,66.0,11,256,15.0,0.0
2177,66.0,4,168,7.0,0.0
2178,54.0,1,204,15.0,0.0
2179,73.0,16,27,4.0,0.0
2180,82.0,2,39,2.0,0.0
2181,76.0,17,37,3.0,0.0
2182,41.0,32,39,1.0,0.0
2183,40.0,5,37,1.0,0.0
2184,82.0,12,41,2.0,0.0
2185,73.0,22,67,4.0,0.0
2186,76.0,24,38,3.0,0.0
2187,41.0,1,42,1.0,0.0
2188,40.0,10,38,1.0,0.0
2189,83.0,30,235,2.0,0.0
2190,75.0,48,87,3.0,0.0
2191,41.0,10,43,1.0,0.0
2192,40.0,5,37,1.0,0.0
2193,71.0,313,239,4.0,0.0
2194,47.0,5,142,5.0,0.0
2195,87.0,8,173,12.0,0.0
2196,35.0,23,87,6.0,0.0
2197,83.0,11,122,12.0,0.0
2198,47.0,14,104,1.0,0.0
2199,66.0,1,216,14.0,0.0
2200,75.0,0,213,14.0,0.0
2201,47.0,29,122,11.0,0.0
2202,47.0,4,195,15.0,0.0
2203,71.0,5,176,7.0,0.0
2204,59.0,11,181,15.0,0.0
2205,59.0,2,174,7.0,0.0
2206,75.0,0,166,13.0,0.0
2207,83.0,0,181,13.0,0.0
2208,58.0,159,171,2.0,0.0
2209,46.0,8,138,5.0,0.0
2210,59.0,109,229,2.0,0.0
2211,47.0,46,158,5.0,0.0
2212,63.0,174,213,2.0,0.0
2213,51.0,28,177,5.0,0.0
2214,54.0,48,227,5.0,0.0
2215,66.0,463,255,2.0,0.0
2216,65.0,19,222,2.0,0.0
2217,53.0,115,235,5.0,0.0
2218,66.0,53,205,2.0,0.0
2219,54.0,163,224,5.0,0.0
2220,69.0,78,251,2.0,0.0
2221,57.0,599,289,5.0,0.0
2222,72.0,66,1364,2.0,0.0
2223,60.0,27,1537,5.0,0.0
2224,68.0,181,258,12.0,0.0
2225,56.0,19,229,14.0,0.0
2226,69.0,30,232,12.0,0.0
2227,57.0,67,259,14.0,0.0
2228,75.0,113,180,12.0,0.0
2229,63.0,21,140,14.0,0.0
2230,78.0,26,151,12.0,0.0
2231,66.0,114,152,14.0,0.0
2232,75.0,6,155,12.0,0.0
2233,63.0,68,155,14.0,0.0
2234,78.0,9,152,12.0,0.0
2235,66.0,135,151,14.0,0.0
2236,84.0,7,181,12.0,0.0
2237,72.0,116,173,14.0,0.0
2238,81.0,39,218,12.0,0.0
2239,60.0,68,148,2.0,0.0
2240,48.0,240,776,5.0,0.0
2241,69.0,128,246,14.0,0.0
2242,87.0,10,239,12.0,0.0
2243,75.0,384,231,14.0,0.0
2244,90.0,102,1655,12.0,0.0
2245,78.0,11,1623,14.0,0.0
2246,47.0,438,384,5.0,0.0
2247,59.0,50,333,2.0,0.0
2248,51.0,53,365,5.0,0.0
2249,69.0,7,185,2.0,0.0
2250,66.0,71,398,3.0,0.0
2251,59.0,168,163,4.0,0.0
2252,69.0,21,164,2.0,0.0
2253,52.0,19,436,5.0,0.0
2254,64.0,11,452,3.0,0.0
2255,59.0,146,171,4.0,0.0
2256,69.0,106,173,2.0,0.0
2257,59.0,17,152,4.0,0.0
2258,69.0,107,279,14.0,0.0
2259,81.0,12,256,12.0,0.0
2260,54.0,24,375,5.0,0.0
2261,63.0,252,392,3.0,0.0
2262,69.0,28,349,2.0,0.0
2263,59.0,82,727,4.0,0.0
2264,81.0,75,353,12.0,0.0
2265,52.0,31,473,5.0,0.0
2266,64.0,111,526,3.0,0.0
2267,69.0,50,411,14.0,0.0
2268,68.0,1,167,2.0,0.0
2269,80.0,29,182,12.0,0.0
2270,68.0,68,303,14.0,0.0
2271,57.0,62,183,5.0,0.0
2272,57.0,44,912,15.0,0.0
2273,64.0,154,265,3.0,0.0
2274,69.0,72,945,15.0,0.0
2275,73.0,33,226,2.0,0.0
2276,57.0,95,405,4.0,0.0
2277,73.0,170,219,2.0,0.0
2278,64.0,3,368,3.0,0.0
2279,57.0,6,187,5.0,0.0
2280,61.0,77,355,4.0,0.0
2281,73.0,63,150,2.0,0.0
2282,66.0,107,395,3.0,0.0
2283,57.0,20,201,5.0,0.0
2284,63.0,52,197,4.0,0.0
2285,73.0,78,210,2.0,0.0
2286,63.0,9,250,4.0,0.0
2287,57.0,27,258,5.0,0.0
2288,67.0,17,677,3.0,0.0
2289,57.0,33,687,15.0,0.0
2290,45.0,388,254,15.0,0.0
2291,73.0,1,384,2.0,0.0
2292,57.0,133,407,5.0,0.0
2293,63.0,244,722,4.0,0.0
2294,45.0,8,318,15.0,0.0
2295,68.0,30,746,3.0,0.0
2296,44.0,3,281,15.0,0.0
2297,71.0,65,215,2.0,0.0
2298,56.0,12,283,15.0,0.0
2299,56.0,107,294,5.0,0.0
2300,61.0,81,317,4.0,0.0
2301,61.0,303,420,5.0,0.0
2302,76.0,8,706,2.0,0.0
2303,69.0,28,1553,3.0,0.0
2304,61.0,290,383,4.0,0.0
2305,54.0,25,666,5.0,0.0
2306,59.0,379,382,4.0,0.0
2307,75.0,1,368,2.0,0.0
2308,51.0,201,572,5.0,0.0
2309,60.0,155,414,4.0,0.0
2310,78.0,67,701,2.0,0.0
2311,48.0,33,442,5.0,0.0
2312,63.0,246,481,4.0,0.0
2313,76.0,198,403,2.0,0.0
2314,49.0,14,373,5.0,0.0
2315,68.0,136,577,3.0,0.0
2316,64.0,96,701,4.0,0.0
2317,69.0,938,528,2.0,0.0
2318,61.0,2,1433,3.0,0.0
2319,42.0,43,405,6.0,0.0
2320,54.0,26,447,5.0,0.0
2321,64.0,13,1020,4.0,0.0
2322,45.0,9,1011,6.0,0.0
2323,57.0,423,1018,5.0,0.0
2324,66.0,79,1415,2.0,0.0
2325,57.0,22,640,3.0,0.0
2326,47.0,59,757,6.0,0.0
2327,59.0,114,879,5.0,0.0
2328,63.0,104,621,4.0,0.0
2329,64.0,73,160,2.0,0.0
2330,56.0,78,269,3.0,0.0
2331,64.0,55,555,4.0,0.0
2332,64.0,42,436,2.0,0.0
2333,52.0,24,477,5.0,0.0
2334,40.0,8,395,6.0,0.0
2335,59.0,45,226,3.0,0.0
2336,64.0,126,221,3.0,0.0
2337,68.0,35,371,2.0,0.0
2338,59.0,57,183,3.0,0.0
2339,66.0,200,120,3.0,0.0
2340,69.0,66,327,2.0,0.0
2341,59.0,39,174,3.0,0.0
2342,68.0,176,144,3.0,0.0
2343,71.0,64,321,2.0,0.0
2344,59.0,21,181,3.0,0.0
2345,68.0,58,113,3.0,0.0
2346,73.0,141,156,2.0,0.0
2347,59.0,156,177,3.0,0.0
2348,75.0,2,164,2.0,0.0
2349,76.0,11,177,2.0,0.0
2350,66.0,144,437,4.0,0.0
2351,69.0,95,184,3.0,0.0
2352,47.0,33,352,5.0,0.0
2353,78.0,60,189,2.0,0.0
2354,59.0,43,128,3.0,0.0
2355,80.0,68,329,2.0,0.0
2356,68.0,21,120,3.0,0.0
2357,52.0,11,696,5.0,0.0
2358,64.0,42,900,4.0,0.0
2359,59.0,28,149,3.0,0.0
2360,68.0,75,99,3.0,0.0
2361,78.0,119,163,2.0,0.0
2362,59.0,37,155,3.0,0.0
2363,76.0,53,178,2.0,0.0
2364,68.0,56,102,3.0,0.0
2365,75.0,122,160,2.0,0.0
2366,56.0,48,311,5.0,0.0
2367,59.0,42,153,3.0,0.0
2368,73.0,1,144,2.0,0.0
2369,75.0,82,937,2.0,0.0
2370,66.0,151,131,3.0,0.0
2371,66.0,45,1245,4.0,0.0
2372,47.0,34,605,5.0,0.0
2373,59.0,99,144,3.0,0.0
2374,66.0,229,86,3.0,0.0
2375,59.0,10,169,3.0,0.0
2376,66.0,248,77,3.0,0.0
2377,59.0,57,659,5.0,0.0
2378,59.0,33,176,3.0,0.0
2379,61.0,59,143,3.0,0.0
2380,73.0,146,167,2.0,0.0
2381,64.0,28,187,3.0,0.0
2382,63.0,73,507,4.0,0.0
2383,73.0,33,367,2.0,0.0
2384,63.0,122,161,3.0,0.0
2385,57.0,55,379,5.0,0.0
2386,66.0,81,144,3.0,0.0
2387,64.0,27,172,3.0,0.0
2388,71.0,29,244,2.0,0.0
2389,64.0,29,359,4.0,0.0
2390,56.0,8,337,5.0,0.0
2391,59.0,103,157,3.0,0.0
2392,61.0,180,156,3.0,0.0
2393,71.0,35,325,2.0,0.0
2394,57.0,113,493,4.0,0.0
2395,54.0,167,316,5.0,0.0
2396,64.0,12,191,3.0,0.0
2397,63.0,30,362,3.0,0.0
2398,69.0,19,445,2.0,0.0
2399,47.0,12,291,5.0,0.0
2400,59.0,56,217,4.0,0.0
2401,68.0,101,255,2.0,0.0
2402,56.0,103,137,4.0,0.0
2403,64.0,87,391,3.0,0.0
2404,52.0,33,334,5.0,0.0
2405,59.0,19,205,4.0,0.0
2406,68.0,13,487,2.0,0.0
2407,61.0,193,178,4.0,0.0
2408,61.0,106,981,3.0,0.0
2409,45.0,28,1199,5.0,0.0
2410,54.0,111,216,4.0,0.0
2411,61.0,114,182,4.0,0.0
2412,66.0,45,167,2.0,0.0
2413,54.0,113,184,4.0,0.0
2414,64.0,48,185,2.0,0.0
2415,61.0,156,187,4.0,0.0
2416,66.0,13,237,2.0,0.0
2417,54.0,42,181,4.0,0.0
2418,63.0,65,1250,2.0,0.0
2419,60.0,142,164,4.0,0.0
2420,60.0,156,547,3.0,0.0
2421,54.0,212,172,4.0,0.0
2422,44.0,28,417,5.0,0.0
2423,60.0,16,210,4.0,0.0
2424,56.0,159,254,4.0,0.0
2425,59.0,167,234,4.0,0.0
2426,42.0,27,490,5.0,0.0
2427,59.0,156,554,3.0,0.0
2428,57.0,98,228,4.0,0.0
2429,56.0,12,388,4.0,0.0
2430,64.0,113,313,2.0,0.0
2431,40.0,10,502,5.0,0.0
2432,59.0,131,238,3.0,0.0
2433,68.0,49,338,2.0,0.0
2434,64.0,134,191,3.0,0.0
2435,59.0,91,213,3.0,0.0
2436,69.0,19,311,2.0,0.0
2437,66.0,148,153,3.0,0.0
2438,59.0,162,181,3.0,0.0
2439,68.0,131,200,3.0,0.0
2440,71.0,15,322,2.0,0.0
2441,59.0,128,195,3.0,0.0
2442,68.0,131,192,3.0,0.0
2443,73.0,8,166,2.0,0.0
2444,59.0,140,199,3.0,0.0
2445,75.0,31,165,2.0,0.0
2446,76.0,10,203,2.0,0.0
2447,66.0,64,393,4.0,0.0
2448,47.0,44,441,7.0,0.0
2449,69.0,153,196,3.0,0.0
2450,47.0,10,331,5.0,0.0
2451,78.0,12,234,2.0,0.0
2452,59.0,5,199,3.0,0.0
2453,80.0,3,344,2.0,0.0
2454,68.0,155,187,3.0,0.0
2455,64.0,94,921,4.0,0.0
2456,52.0,2,628,5.0,0.0
2457,52.0,81,626,7.0,0.0
2458,59.0,108,200,3.0,0.0
2459,68.0,31,161,3.0,0.0
2460,78.0,137,172,2.0,0.0
2461,59.0,29,184,3.0,0.0
2462,76.0,10,192,2.0,0.0
2463,68.0,37,162,3.0,0.0
2464,75.0,104,171,2.0,0.0
2465,56.0,32,272,5.0,0.0
2466,56.0,1,299,7.0,0.0
2467,59.0,3,211,3.0,0.0
2468,73.0,25,167,2.0,0.0
2469,66.0,78,1296,4.0,0.0
2470,66.0,157,163,3.0,0.0
2471,75.0,99,925,2.0,0.0
2472,47.0,25,608,5.0,0.0
2473,47.0,77,620,7.0,0.0
2474,59.0,149,175,3.0,0.0
2475,66.0,146,183,3.0,0.0
2476,59.0,34,174,3.0,0.0
2477,66.0,166,166,3.0,0.0
2478,59.0,0,663,5.0,0.0
2479,47.0,12,581,6.0,0.0
2480,59.0,28,189,3.0,0.0
2481,61.0,23,164,3.0,0.0
2482,73.0,165,183,2.0,0.0
2483,64.0,45,211,3.0,0.0
2484,73.0,28,367,2.0,0.0
2485,63.0,135,183,3.0,0.0
2486,45.0,9,368,6.0,0.0
2487,63.0,26,304,4.0,0.0
2488,57.0,81,353,5.0,0.0
2489,66.0,14,174,3.0,0.0
2490,64.0,190,178,3.0,0.0
2491,64.0,0,357,4.0,0.0
2492,71.0,53,630,2.0,0.0
2493,56.0,215,692,5.0,0.0
2494,44.0,14,669,6.0,0.0
2495,59.0,136,222,3.0,0.0
2496,61.0,140,196,3.0,0.0
2497,57.0,54,615,4.0,0.0
2498,64.0,18,236,3.0,0.0
2499,69.0,112,429,2.0,0.0
2500,63.0,7,372,3.0,0.0
2501,42.0,12,346,6.0,0.0
2502,54.0,12,323,5.0,0.0
2503,59.0,1,199,4.0,0.0
2504,56.0,154,181,4.0,0.0
2505,68.0,191,530,2.0,0.0
2506,52.0,29,330,5.0,0.0
2507,40.0,131,370,6.0,0.0
2508,64.0,13,350,3.0,0.0
2509,59.0,12,205,4.0,0.0
2510,47.0,41,1079,5.0,0.0
2511,54.0,11,164,4.0,0.0
2512,63.0,1,949,3.0,0.0
2513,35.0,25,1088,6.0,0.0
2514,57.0,55,221,4.0,0.0
2515,66.0,54,260,2.0,0.0
2516,61.0,86,159,4.0,0.0
2517,75.0,95,214,2.0,0.0
2518,59.0,142,213,4.0,0.0
2519,73.0,6,300,2.0,0.0
2520,61.0,54,181,4.0,0.0
2521,69.0,117,193,2.0,0.0
2522,59.0,88,196,4.0,0.0
2523,63.0,11,232,2.0,0.0
2524,56.0,157,184,4.0,0.0
2525,64.0,31,1048,3.0,0.0
2526,64.0,32,552,2.0,0.0
2527,40.0,45,621,6.0,0.0
2528,52.0,110,714,5.0,0.0
2529,59.0,173,188,4.0,0.0
2530,56.0,101,200,4.0,0.0
2531,59.0,92,183,4.0,0.0
2532,56.0,55,167,4.0,0.0
2533,59.0,134,173,4.0,0.0
2534,54.0,180,152,4.0,0.0
2535,75.0,6,629,12.0,0.0
2536,63.0,14,691,3.0,0.0
2537,63.0,64,618,15.0,0.0
2538,47.0,15,1735,5.0,0.0
2539,47.0,83,305,6.0,0.0
2540,59.0,48,190,4.0,0.0
2541,54.0,150,171,4.0,0.0
2542,59.0,62,173,4.0,0.0
2543,55.0,160,162,4.0,0.0
2544,76.0,41,328,12.0,0.0
2545,64.0,8,360,3.0,0.0
2546,64.0,50,367,15.0,0.0
2547,59.0,32,185,4.0,0.0
2548,54.0,13,157,4.0,0.0
2549,63.0,113,514,3.0,0.0
2550,78.0,68,130,12.0,0.0
2551,66.0,102,188,15.0,0.0
2552,59.0,117,200,4.0,0.0
2553,54.0,20,161,4.0,0.0
2554,66.0,36,174,15.0,0.0
2555,78.0,24,137,12.0,0.0
2556,59.0,62,200,4.0,0.0
2557,54.0,17,229,4.0,0.0
2558,63.0,5,118,3.0,0.0
2559,66.0,51,224,15.0,0.0
2560,78.0,1,268,12.0,0.0
2561,75.0,12,83,2.0,0.0
2562,66.0,21,60,2.0,0.0
2563,47.0,88,84,6.0,0.0
2564,63.0,165,152,4.0,0.0
2565,46.0,46,956,5.0,0.0
2566,79.0,111,400,12.0,0.0
2567,46.0,8,127,6.0,0.0
2568,73.0,62,144,2.0,0.0
2569,52.0,27,267,4.0,0.0
2570,67.0,37,350,15.0,0.0
2571,64.0,44,211,3.0,0.0
2572,55.0,19,178,3.0,0.0
2573,64.0,11,94,2.0,0.0
2574,61.0,60,157,4.0,0.0
2575,55.0,2,205,4.0,0.0
2576,78.0,97,189,12.0,0.0
2577,66.0,2,186,15.0,0.0
2578,61.0,72,156,4.0,0.0
2579,64.0,92,220,15.0,0.0
2580,76.0,10,203,12.0,0.0
2581,55.0,86,177,4.0,0.0
2582,63.0,53,258,15.0,0.0
2583,75.0,8,234,12.0,0.0
2584,64.0,2,115,4.0,0.0
2585,61.0,152,315,15.0,0.0
2586,73.0,107,188,12.0,0.0
2587,54.0,10,175,4.0,0.0
2588,47.0,36,2750,5.0,0.0
2589,76.0,50,385,12.0,0.0
2590,64.0,105,478,15.0,0.0
2591,59.0,35,194,4.0,0.0
2592,54.0,55,171,4.0,0.0
2593,71.0,10,61,2.0,0.0
2594,63.0,6,70,3.0,0.0
2595,47.0,34,66,6.0,0.0
2596,75.0,71,369,12.0,0.0
2597,63.0,25,338,15.0,0.0
2598,59.0,54,188,4.0,0.0
2599,54.0,131,187,4.0,0.0
2600,63.0,6,82,3.0,0.0
2601,71.0,0,61,2.0,0.0
2602,47.0,8,59,6.0,0.0
2603,63.0,107,158,4.0,0.0
2604,54.0,151,181,4.0,0.0
2605,71.0,26,97,2.0,0.0
2606,47.0,1,1277,6.0,0.0
2607,63.0,58,113,3.0,0.0
2608,59.0,117,182,4.0,0.0
2609,75.0,84,396,12.0,0.0
2610,63.0,55,339,15.0,0.0
2611,54.0,150,155,4.0,0.0
2612,59.0,22,170,4.0,0.0
2613,64.0,15,342,15.0,0.0
2614,55.0,163,170,4.0,0.0
2615,76.0,0,323,12.0,0.0
2616,64.0,13,434,3.0,0.0
2617,59.0,126,198,4.0,0.0
2618,54.0,29,178,4.0,0.0
2619,78.0,30,206,12.0,0.0
2620,66.0,109,231,15.0,0.0
2621,63.0,107,344,3.0,0.0
2622,59.0,41,194,4.0,0.0
2623,54.0,44,190,4.0,0.0
2624,66.0,116,244,15.0,0.0
2625,78.0,18,225,12.0,0.0
2626,59.0,36,202,4.0,0.0
2627,78.0,44,372,12.0,0.0
2628,63.0,6,97,3.0,0.0
2629,54.0,85,199,4.0,0.0
2630,66.0,16,344,15.0,0.0
2631,75.0,6,66,2.0,0.0
2632,66.0,8,65,2.0,0.0
2633,47.0,99,58,6.0,0.0
2634,63.0,25,108,4.0,0.0
2635,67.0,26,361,15.0,0.0
2636,79.0,132,382,12.0,0.0
2637,73.0,11,89,2.0,0.0
2638,52.0,120,204,4.0,0.0
2639,46.0,14,69,6.0,0.0
2640,64.0,20,175,3.0,0.0
2641,64.0,76,90,2.0,0.0
2642,46.0,23,947,5.0,0.0
2643,55.0,9,150,3.0,0.0
2644,61.0,12,167,4.0,0.0
2645,66.0,114,207,15.0,0.0
2646,78.0,4,180,12.0,0.0
2647,55.0,5,182,4.0,0.0
2648,64.0,87,253,15.0,0.0
2649,61.0,59,168,4.0,0.0
2650,76.0,21,220,12.0,0.0
2651,55.0,51,176,4.0,0.0
2652,63.0,0,220,15.0,0.0
2653,75.0,105,204,12.0,0.0
2654,64.0,19,171,4.0,0.0
2655,61.0,22,320,15.0,0.0
2656,73.0,109,211,12.0,0.0
2657,54.0,187,204,4.0,0.0
2658,76.0,3,372,12.0,0.0
2659,47.0,19,988,5.0,0.0
2660,64.0,120,365,15.0,0.0
2661,63.0,26,1057,3.0,0.0
2662,59.0,16,258,4.0,0.0
2663,54.0,138,210,4.0,0.0
2664,75.0,20,397,12.0,0.0
2665,63.0,8,323,15.0,0.0
2666,71.0,48,404,2.0,0.0
2667,59.0,62,192,4.0,0.0
2668,54.0,158,186,4.0,0.0
2669,47.0,24,120,6.0,0.0
2670,71.0,66,530,7.0,0.0
2671,59.0,11,471,7.0,0.0
2672,76.0,39,291,12.0,0.0
2673,69.0,26,416,2.0,0.0
2674,59.0,64,238,4.0,0.0
2675,78.0,47,268,12.0,0.0
2676,52.0,29,359,4.0,0.0
2677,64.0,75,236,3.0,0.0
2678,68.0,20,665,2.0,0.0
2679,52.0,120,390,5.0,0.0
2680,68.0,24,722,7.0,0.0
2681,80.0,6,649,12.0,0.0
2682,64.0,8,628,7.0,0.0
2683,40.0,52,248,6.0,0.0
2684,59.0,31,204,3.0,0.0
2685,64.0,144,221,4.0,0.0
2686,64.0,3,198,3.0,0.0
2687,59.0,66,236,3.0,0.0
2688,59.0,1,196,4.0,0.0
2689,66.0,37,173,4.0,0.0
2690,66.0,120,194,3.0,0.0
2691,69.0,18,306,2.0,0.0
2692,81.0,14,315,12.0,0.0
2693,66.0,37,376,7.0,0.0
2694,59.0,15,409,7.0,0.0
2695,59.0,27,224,4.0,0.0
2696,59.0,52,229,3.0,0.0
2697,68.0,32,191,4.0,0.0
2698,71.0,11,331,2.0,0.0
2699,83.0,93,367,12.0,0.0
2700,68.0,126,186,3.0,0.0
2701,56.0,82,664,7.0,0.0
2702,64.0,26,634,7.0,0.0
2703,59.0,33,216,4.0,0.0
2704,59.0,1,228,3.0,0.0
2705,68.0,4,202,4.0,0.0
2706,73.0,12,166,2.0,0.0
2707,68.0,112,194,3.0,0.0
2708,85.0,15,155,12.0,0.0
2709,59.0,15,187,4.0,0.0
2710,75.0,4,168,2.0,0.0
2711,59.0,45,188,3.0,0.0
2712,87.0,9,171,12.0,0.0
2713,76.0,22,209,2.0,0.0
2714,47.0,11,312,5.0,0.0
2715,88.0,82,227,12.0,0.0
2716,69.0,15,211,3.0,0.0
2717,59.0,94,408,7.0,0.0
2718,66.0,3,383,4.0,0.0
2719,66.0,5,335,7.0,0.0
2720,69.0,16,299,13.0,0.0
2721,71.0,2,1224,14.0,0.0
2722,47.0,8,353,15.0,0.0
2723,78.0,18,202,2.0,0.0
2724,90.0,17,256,12.0,0.0
2725,59.0,28,212,3.0,0.0
2726,80.0,31,346,2.0,0.0
2727,68.0,0,379,13.0,0.0
2728,68.0,132,201,3.0,0.0
2729,52.0,13,656,5.0,0.0
2730,92.0,98,356,12.0,0.0
2731,68.0,2,941,7.0,0.0
2732,52.0,84,659,15.0,0.0
2733,64.0,6,934,7.0,0.0
2734,64.0,45,555,4.0,0.0
2735,59.0,10,212,3.0,0.0
2736,78.0,36,166,2.0,0.0
2737,68.0,3,200,3.0,0.0
2738,90.0,78,176,12.0,0.0
2739,76.0,27,190,2.0,0.0
2740,59.0,7,215,3.0,0.0
2741,88.0,2,188,12.0,0.0
2742,75.0,26,166,2.0,0.0
2743,68.0,98,179,3.0,0.0
2744,56.0,27,288,5.0,0.0
2745,87.0,6,166,12.0,0.0
2746,64.0,20,330,4.0,0.0
2747,56.0,16,305,15.0,0.0
2748,73.0,17,153,2.0,0.0
2749,85.0,2,176,12.0,0.0
2750,59.0,101,214,3.0,0.0
2751,75.0,19,965,2.0,0.0
2752,47.0,23,637,5.0,0.0
2753,87.0,24,965,12.0,0.0
2754,66.0,95,1328,4.0,0.0
2755,66.0,28,1206,7.0,0.0
2756,66.0,164,167,3.0,0.0
2757,47.0,32,577,15.0,0.0
2758,59.0,5,1065,7.0,0.0
2759,75.0,9,930,14.0,0.0
2760,59.0,129,185,3.0,0.0
2761,66.0,121,168,3.0,0.0
2762,59.0,127,200,3.0,0.0
2763,59.0,1,630,15.0,0.0
2764,66.0,161,174,3.0,0.0
2765,59.0,10,635,5.0,0.0
2766,47.0,6,585,6.0,0.0
2767,59.0,96,237,3.0,0.0
2768,76.0,22,350,14.0,0.0
2769,73.0,10,226,2.0,0.0
2770,61.0,50,172,3.0,0.0
2771,85.0,68,230,12.0,0.0
2772,64.0,46,216,3.0,0.0
2773,57.0,21,370,15.0,0.0
2774,45.0,2,348,6.0,0.0
2775,63.0,124,207,3.0,0.0
2776,78.0,1,372,14.0,0.0
2777,73.0,11,329,2.0,0.0
2778,57.0,3,371,5.0,0.0
2779,85.0,4,350,12.0,0.0
2780,63.0,145,347,4.0,0.0
2781,66.0,4,198,3.0,0.0
2782,71.0,47,677,2.0,0.0
2783,71.0,9,595,13.0,0.0
2784,59.0,4,363,15.0,0.0
2785,44.0,45,284,6.0,0.0
2786,80.0,0,328,14.0,0.0
2787,56.0,21,332,15.0,0.0
2788,64.0,80,195,3.0,0.0
2789,56.0,105,351,5.0,0.0
2790,83.0,1,629,12.0,0.0
2791,64.0,2,337,4.0,0.0
2792,64.0,5,603,7.0,0.0
2793,59.0,6,185,3.0,0.0
2794,61.0,117,174,3.0,0.0
2795,42.0,26,293,6.0,0.0
2796,73.0,15,324,14.0,0.0
2797,61.0,5,345,15.0,0.0
2798,54.0,1,319,15.0,0.0
2799,54.0,1,324,5.0,0.0
2800,57.0,7,308,4.0,0.0
2801,64.0,3,140,3.0,0.0
2802,69.0,3,284,13.0,0.0
2803,81.0,4,345,12.0,0.0
2804,75.0,9,334,14.0,0.0
2805,35.0,9,320,6.0,0.0
2806,63.0,7,36,3.0,0.0
2807,66.0,17,342,7.0,0.0
2808,47.0,5,325,15.0,0.0
2809,59.0,11,356,7.0,0.0
2810,69.0,22,380,2.0,0.0
2811,63.0,0,306,15.0,0.0
2812,47.0,0,297,5.0,0.0
2813,57.0,22,41,4.0,0.0
2814,63.0,65,45,3.0,0.0
2815,59.0,10,35,4.0,0.0
2816,63.0,44,39,3.0,0.0
2817,63.0,59,48,3.0,0.0
2818,59.0,13,27,4.0,0.0
2819,68.0,5,327,13.0,0.0
2820,71.0,1,322,13.0,0.0
2821,56.0,4,34,4.0,0.0
2822,76.0,22,232,14.0,0.0
2823,64.0,11,37,3.0,0.0
2824,80.0,23,318,12.0,0.0
2825,64.0,6,285,15.0,0.0
2826,52.0,11,229,15.0,0.0
2827,68.0,7,320,7.0,0.0
2828,64.0,5,267,7.0,0.0
2829,56.0,13,36,4.0,0.0
2830,40.0,4,317,6.0,0.0
2831,68.0,16,262,2.0,0.0
2832,52.0,14,310,5.0,0.0
2833,64.0,65,43,3.0,0.0
2834,59.0,15,34,4.0,0.0
2835,64.0,32,36,3.0,0.0
2836,59.0,2,38,4.0,0.0
2837,64.0,32,39,3.0,0.0
2838,61.0,5,32,4.0,0.0
2839,64.0,10,39,3.0,0.0
2840,67.0,6,473,10.0,0.0
2841,73.0,15,831,14.0,0.0
2842,76.0,7,615,10.0,0.0
2843,64.0,12,602,10.0,0.0
2844,67.0,1,432,13.0,0.0
2845,55.0,4,454,10.0,0.0
2846,76.0,2,459,11.0,0.0
2847,76.0,0,459,8.0,0.0
2848,67.0,38,36,2.0,0.0
2849,46.0,1,899,11.0,0.0
2850,64.0,0,451,8.0,0.0
2851,64.0,3,451,11.0,0.0
2852,46.0,48,948,15.0,0.0
2853,40.0,16,121,1.0,0.0
2854,46.0,13,95,5.0,0.0
2855,58.0,8,874,15.0,0.0
2856,73.0,2,866,13.0,0.0
2857,79.0,3,622,12.0,0.0
2858,34.0,24,53,6.0,0.0
2859,61.0,1,39,4.0,0.0
2860,64.0,8,840,7.0,0.0
2861,52.0,7,801,7.0,0.0
2862,64.0,5,46,3.0,0.0
2863,67.0,13,41,2.0,0.0
2864,61.0,31,34,4.0,0.0
2865,41.0,25,46,1.0,0.0
2866,64.0,1,34,3.0,0.0
2867,46.0,15,48,5.0,0.0
2868,61.0,8,35,4.0,0.0
2869,79.0,3,33,2.0,0.0
2870,40.0,11,44,1.0,0.0
2871,64.0,5,47,3.0,0.0
2872,34.0,26,41,6.0,0.0
2873,41.0,13,41,1.0,0.0
2874,79.0,1,41,2.0,0.0
2875,61.0,20,31,4.0,0.0
2876,40.0,15,28,1.0,0.0
2877,64.0,29,38,3.0,0.0
2878,46.0,1,38,5.0,0.0
2879,79.0,4,38,2.0,0.0
2880,61.0,23,41,4.0,0.0
2881,41.0,0,32,1.0,0.0
2882,64.0,33,46,3.0,0.0
2883,34.0,5,38,6.0,0.0
2884,40.0,1,28,1.0,0.0
2885,79.0,8,39,2.0,0.0
2886,41.0,23,30,1.0,0.0
2887,73.0,2,34,4.0,0.0
2888,40.0,2,26,1.0,0.0
2889,66.0,15,32,3.0,0.0
2890,79.0,15,36,2.0,0.0
2891,46.0,3,43,5.0,0.0
2892,64.0,3,151,13.0,0.0
2893,41.0,12,34,1.0,0.0
2894,34.0,17,38,6.0,0.0
2895,66.0,5,40,3.0,0.0
2896,40.0,8,27,1.0,0.0
2897,73.0,4,35,4.0,0.0
2898,79.0,29,40,2.0,0.0
2899,41.0,18,39,1.0,0.0
2900,40.0,0,34,1.0,0.0
2901,73.0,1,34,4.0,0.0
2902,78.0,6,33,2.0,0.0
2903,66.0,2,161,13.0,0.0
2904,66.0,21,28,3.0,0.0
2905,46.0,21,44,5.0,0.0
2906,41.0,1,42,1.0,0.0
2907,78.0,13,167,12.0,0.0
2908,34.0,7,46,6.0,0.0
2909,78.0,4,40,2.0,0.0
2910,40.0,3,35,1.0,0.0
2911,73.0,28,42,4.0,0.0
2912,66.0,1,35,3.0,0.0
2913,41.0,34,41,1.0,0.0
2914,40.0,7,37,1.0,0.0
2915,76.0,16,36,2.0,0.0
2916,67.0,6,142,13.0,0.0
2917,67.0,5,37,3.0,0.0
2918,41.0,5,42,1.0,0.0
2919,46.0,4,46,5.0,0.0
2920,73.0,4,35,4.0,0.0
2921,34.0,8,47,6.0,0.0
2922,40.0,8,35,1.0,0.0
2923,76.0,6,119,12.0,0.0
2924,76.0,3,40,2.0,0.0
2925,67.0,3,51,3.0,0.0
2926,73.0,1,37,4.0,0.0
2927,41.0,23,41,1.0,0.0
2928,40.0,13,102,1.0,0.0
2929,75.0,11,42,2.0,0.0
2930,41.0,12,40,1.0,0.0
2931,45.0,7,47,5.0,0.0
2932,71.0,2,40,4.0,0.0
2933,33.0,1,59,6.0,0.0
2934,66.0,0,1053,13.0,0.0
2935,66.0,6,36,3.0,0.0
2936,75.0,1,799,14.0,0.0
2937,71.0,5,879,13.0,0.0
2938,57.0,3,875,15.0,0.0
2939,45.0,4,881,15.0,0.0
2940,66.0,3,794,14.0,0.0
2941,66.0,5,822,7.0,0.0
2942,59.0,25,795,7.0,0.0
2943,75.0,5,149,12.0,0.0
2944,45.0,15,462,11.0,0.0
2945,47.0,36,88,1.0,0.0
2946,66.0,16,43,3.0,0.0
2947,71.0,1,36,4.0,0.0
2948,45.0,8,49,5.0,0.0
2949,76.0,8,56,2.0,0.0
2950,66.0,2,21,3.0,0.0
2951,71.0,16,26,4.0,0.0
2952,33.0,46,50,6.0,0.0
2953,76.0,28,74,12.0,0.0
2954,66.0,3,49,3.0,0.0
2955,78.0,14,78,2.0,0.0
2956,71.0,2,42,4.0,0.0
2957,78.0,7,82,12.0,0.0
2958,45.0,16,45,5.0,0.0
2959,80.0,9,65,2.0,0.0
2960,71.0,7,28,4.0,0.0
2961,33.0,31,43,6.0,0.0
2962,80.0,13,83,12.0,0.0
2963,81.0,23,74,2.0,0.0
2964,66.0,3,35,3.0,0.0
2965,71.0,15,36,4.0,0.0
2966,81.0,0,62,12.0,0.0
2967,83.0,12,74,2.0,0.0
2968,66.0,8,29,3.0,0.0
2969,71.0,14,37,4.0,0.0
2970,45.0,19,40,5.0,0.0
2971,83.0,21,81,12.0,0.0
2972,33.0,4,46,6.0,0.0
2973,66.0,3,37,3.0,0.0
2974,85.0,6,85,2.0,0.0
2975,71.0,13,29,4.0,0.0
2976,85.0,6,66,12.0,0.0
2977,66.0,6,58,3.0,0.0
2978,71.0,18,35,4.0,0.0
2979,87.0,16,56,2.0,0.0
2980,45.0,21,40,5.0,0.0
2981,33.0,12,46,6.0,0.0
2982,45.0,4,332,11.0,0.0
2983,83.0,12,289,12.0,0.0
2984,88.0,5,76,2.0,0.0
2985,66.0,33,32,4.0,0.0
2986,87.0,1,64,12.0,0.0
2987,71.0,15,37,3.0,0.0
2988,66.0,35,36,4.0,0.0
2989,88.0,6,82,12.0,0.0
2990,90.0,12,58,2.0,0.0
2991,45.0,2,42,5.0,0.0
2992,71.0,9,43,3.0,0.0
2993,33.0,16,41,6.0,0.0
2994,90.0,10,166,12.0,0.0
2995,91.0,2,97,2.0,0.0
2996,66.0,34,29,4.0,0.0
2997,71.0,22,39,3.0,0.0
2998,91.0,6,124,12.0,0.0
2999,66.0,4,42,4.0,0.0
3000,71.0,16,39,3.0,0.0
3001,44.0,14,195,5.0,0.0
3002,32.0,8,142,6.0,0.0
3003,68.0,8,153,7.0,0.0
3004,56.0,11,175,15.0,0.0
3005,92.0,23,396,12.0,0.0
3006,75.0,15,225,14.0,0.0
3007,84.0,1,222,12.0,0.0
3008,44.0,9,177,15.0,0.0
3009,66.0,2,183,14.0,0.0
3010,92.0,12,42,2.0,0.0
3011,56.0,10,118,7.0,0.0
3012,72.0,3,165,13.0,0.0
3013,44.0,2,171,11.0,0.0
3014,66.0,8,34,4.0,0.0
3015,72.0,47,40,3.0,0.0
3016,66.0,1,42,4.0,0.0
3017,92.0,5,39,2.0,0.0
3018,72.0,4,50,3.0,0.0
3019,66.0,11,44,4.0,0.0
3020,92.0,0,36,2.0,0.0
3021,72.0,18,45,3.0,0.0
3022,92.0,12,36,2.0,0.0
3023,66.0,27,38,4.0,0.0
3024,72.0,42,51,3.0,0.0
3025,49.0,8,280,5.0,0.0
3026,37.0,4,257,6.0,0.0
3027,76.0,3,188,14.0,0.0
3028,92.0,6,39,2.0,0.0
3029,64.0,3,168,14.0,0.0
3030,49.0,1,251,11.0,0.0
3031,64.0,15,40,4.0,0.0
3032,85.0,4,242,12.0,0.0
3033,73.0,3,514,13.0,0.0
3034,64.0,7,247,13.0,0.0
3035,49.0,7,280,15.0,0.0
3036,56.0,5,164,7.0,0.0
3037,68.0,9,205,7.0,0.0
3038,61.0,3,283,15.0,0.0
3039,73.0,41,36,3.0,0.0
3040,92.0,8,35,2.0,0.0
3041,64.0,3,41,4.0,0.0
3042,73.0,36,45,3.0,0.0
3043,88.0,9,167,12.0,0.0
3044,64.0,6,40,4.0,0.0
3045,88.0,13,31,2.0,0.0
3046,73.0,21,42,3.0,0.0
3047,64.0,9,30,4.0,0.0
3048,88.0,0,37,2.0,0.0
3049,73.0,21,41,3.0,0.0
3050,51.0,0,263,5.0,0.0
3051,66.0,32,32,4.0,0.0
3052,63.0,15,302,15.0,0.0
3053,66.0,1,230,7.0,0.0
3054,51.0,20,314,15.0,0.0
3055,85.0,2,188,12.0,0.0
3056,78.0,27,196,14.0,0.0
3057,66.0,9,275,13.0,0.0
3058,81.0,9,282,12.0,0.0
3059,51.0,10,261,11.0,0.0
3060,69.0,6,175,14.0,0.0
3061,39.0,14,214,6.0,0.0
3062,69.0,36,40,3.0,0.0
3063,85.0,4,34,2.0,0.0
3064,66.0,21,42,4.0,0.0
3065,85.0,4,42,2.0,0.0
3066,69.0,59,40,3.0,0.0
3067,66.0,8,26,4.0,0.0
3068,85.0,0,34,2.0,0.0
3069,69.0,5,39,3.0,0.0
3070,66.0,9,44,4.0,0.0
3071,69.0,10,45,3.0,0.0
3072,85.0,5,29,2.0,0.0
3073,83.0,21,299,12.0,0.0
3074,71.0,9,543,13.0,0.0
3075,80.0,2,237,12.0,0.0
3076,52.0,16,219,5.0,0.0
3077,59.0,0,189,7.0,0.0
3078,68.0,0,547,13.0,0.0
3079,76.0,17,585,14.0,0.0
3080,52.0,2,184,11.0,0.0
3081,64.0,12,229,15.0,0.0
3082,71.0,20,260,7.0,0.0
3083,68.0,32,485,14.0,0.0
3084,68.0,58,39,4.0,0.0
3085,68.0,4,34,3.0,0.0
3086,83.0,0,38,2.0,0.0
3087,52.0,8,196,15.0,0.0
3088,40.0,9,173,6.0,0.0
3089,68.0,10,39,4.0,0.0
3090,83.0,6,41,2.0,0.0
3091,68.0,61,47,3.0,0.0
3092,68.0,2,36,3.0,0.0
3093,83.0,11,41,2.0,0.0
3094,68.0,0,29,4.0,0.0
3095,68.0,1,44,3.0,0.0
3096,68.0,15,39,4.0,0.0
3097,83.0,4,40,2.0,0.0
3098,68.0,26,37,3.0,0.0
3099,80.0,23,347,12.0,0.0
3100,52.0,17,328,5.0,0.0
3101,76.0,3,281,12.0,0.0
3102,64.0,4,313,15.0,0.0
3103,80.0,1,34,2.0,0.0
3104,68.0,11,300,7.0,0.0
3105,64.0,43,34,4.0,0.0
3106,52.0,1,310,15.0,0.0
3107,40.0,0,26,1.0,0.0
3108,64.0,23,248,7.0,0.0
3109,52.0,1,272,11.0,0.0
3110,40.0,22,340,6.0,0.0
3111,68.0,31,50,3.0,0.0
3112,64.0,7,44,4.0,0.0
3113,80.0,31,48,2.0,0.0
3114,68.0,37,43,3.0,0.0
3115,80.0,0,40,2.0,0.0
3116,64.0,11,38,4.0,0.0
3117,68.0,10,57,3.0,0.0
3118,64.0,7,46,4.0,0.0
3119,80.0,4,46,2.0,0.0
3120,73.0,16,221,14.0,0.0
3121,78.0,4,40,2.0,0.0
3122,70.0,4,288,13.0,0.0
3123,64.0,7,228,14.0,0.0
3124,66.0,14,299,13.0,0.0
3125,64.0,1,39,4.0,0.0
3126,54.0,28,349,15.0,0.0
3127,70.0,1,37,3.0,0.0
3128,54.0,1,311,11.0,0.0
3129,66.0,8,337,15.0,0.0
3130,66.0,5,303,7.0,0.0
3131,40.0,1,30,1.0,0.0
3132,54.0,0,297,5.0,0.0
3133,78.0,2,297,12.0,0.0
3134,73.0,8,266,12.0,0.0
3135,42.0,4,288,6.0,0.0
3136,78.0,8,51,2.0,0.0
3137,64.0,7,41,4.0,0.0
3138,70.0,47,48,3.0,0.0
3139,70.0,17,26,3.0,0.0
3140,78.0,22,38,2.0,0.0
3141,64.0,4,31,4.0,0.0
3142,64.0,8,38,4.0,0.0
3143,70.0,37,52,3.0,0.0
3144,78.0,8,36,2.0,0.0
3145,64.0,2,38,4.0,0.0
3146,71.0,18,36,3.0,0.0
3147,71.0,0,327,13.0,0.0
3148,64.0,0,832,13.0,0.0
3149,73.0,6,602,14.0,0.0
3150,76.0,0,40,2.0,0.0
3151,64.0,26,877,14.0,0.0
3152,64.0,13,157,7.0,0.0
3153,55.0,1,331,11.0,0.0
3154,55.0,5,331,5.0,0.0
3155,67.0,1,329,15.0,0.0
3156,55.0,14,330,15.0,0.0
3157,76.0,13,546,12.0,0.0
3158,71.0,1,315,12.0,0.0
3159,40.0,32,105,1.0,0.0
3160,64.0,12,40,4.0,0.0
3161,43.0,4,322,6.0,0.0
3162,71.0,24,46,3.0,0.0
3163,76.0,16,42,2.0,0.0
3164,71.0,3,40,3.0,0.0
3165,64.0,0,37,4.0,0.0
3166,41.0,11,46,1.0,0.0
3167,76.0,25,39,2.0,0.0
3168,40.0,12,33,1.0,0.0
3169,64.0,22,40,4.0,0.0
3170,71.0,4,62,3.0,0.0
3171,76.0,6,42,2.0,0.0
3172,41.0,32,39,1.0,0.0
3173,40.0,11,31,1.0,0.0
3174,64.0,19,34,4.0,0.0
3175,76.0,10,41,2.0,0.0
3176,70.0,4,34,3.0,0.0
3177,70.0,25,553,13.0,0.0
3178,41.0,5,38,1.0,0.0
3179,66.0,0,547,7.0,0.0
3180,54.0,6,298,11.0,0.0
3181,66.0,3,326,15.0,0.0
3182,54.0,13,311,15.0,0.0
3183,54.0,1,303,5.0,0.0
3184,64.0,24,40,4.0,0.0
3185,70.0,2,295,12.0,0.0
3186,40.0,0,26,1.0,0.0
3187,76.0,6,43,2.0,0.0
3188,70.0,10,49,3.0,0.0
3189,42.0,7,291,6.0,0.0
3190,41.0,33,34,1.0,0.0
3191,40.0,9,34,1.0,0.0
3192,64.0,6,36,4.0,0.0
3193,70.0,11,33,3.0,0.0
3194,76.0,16,41,2.0,0.0
3195,41.0,28,42,1.0,0.0
3196,64.0,10,37,4.0,0.0
3197,40.0,3,33,1.0,0.0
3198,70.0,24,48,3.0,0.0
3199,76.0,5,34,2.0,0.0
3200,41.0,14,43,1.0,0.0
3201,40.0,12,35,1.0,0.0
3202,70.0,5,36,3.0,0.0
3203,64.0,4,33,4.0,0.0
3204,75.0,8,36,2.0,0.0
3205,41.0,2,43,1.0,0.0
3206,75.0,10,172,14.0,0.0
3207,40.0,18,37,1.0,0.0
3208,64.0,10,46,4.0,0.0
3209,70.0,7,49,3.0,0.0
3210,75.0,7,50,2.0,0.0
3211,75.0,7,204,12.0,0.0
3212,41.0,26,46,1.0,0.0
3213,40.0,41,38,1.0,0.0
3214,41.0,4,45,1.0,0.0
3215,64.0,1,38,4.0,0.0
3216,73.0,2,40,2.0,0.0
3217,70.0,8,40,3.0,0.0
3218,40.0,33,40,1.0,0.0
3219,73.0,2,153,14.0,0.0
3220,73.0,11,101,12.0,0.0
3221,41.0,9,46,1.0,0.0
3222,73.0,9,36,2.0,0.0
3223,64.0,2,44,4.0,0.0
3224,70.0,6,45,3.0,0.0
3225,40.0,1,42,1.0,0.0
3226,41.0,6,97,1.0,0.0
3227,40.0,17,59,1.0,0.0
3228,71.0,0,43,2.0,0.0
3229,63.0,3,33,4.0,0.0
3230,71.0,7,36,3.0,0.0
3231,71.0,3,880,13.0,0.0
3232,66.0,6,820,13.0,0.0
3233,47.0,17,52,5.0,0.0
3234,66.0,4,787,14.0,0.0
3235,75.0,2,790,14.0,0.0
3236,59.0,8,569,15.0,0.0
3237,47.0,2,579,15.0,0.0
3238,47.0,20,45,1.0,0.0
3239,71.0,2,145,12.0,0.0
3240,59.0,1,802,7.0,0.0
3241,66.0,4,977,7.0,0.0
3242,47.0,26,528,11.0,0.0
3243,71.0,7,46,3.0,0.0
3244,35.0,53,47,6.0,0.0
3245,78.0,7,79,12.0,0.0
3246,78.0,21,39,2.0,0.0
3247,71.0,9,37,3.0,0.0
3248,47.0,18,42,5.0,0.0
3249,35.0,23,50,6.0,0.0
3250,63.0,11,19,4.0,0.0
3251,77.0,3,77,12.0,0.0
3252,77.0,55,62,2.0,0.0
3253,71.0,13,45,3.0,0.0
3254,63.0,0,26,4.0,0.0
3255,78.0,9,77,12.0,0.0
3256,78.0,24,76,2.0,0.0
3257,47.0,1,39,5.0,0.0
3258,63.0,3,32,4.0,0.0
3259,35.0,3,46,6.0,0.0
3260,80.0,19,70,12.0,0.0
3261,71.0,10,28,3.0,0.0
3262,72.0,2,21,3.0,0.0
3263,80.0,3,53,2.0,0.0
3264,71.0,51,48,3.0,0.0
3265,63.0,5,42,4.0,0.0
3266,81.0,9,79,12.0,0.0
3267,81.0,5,63,2.0,0.0
3268,47.0,6,44,5.0,0.0
3269,63.0,6,33,4.0,0.0
3270,71.0,11,38,3.0,0.0
3271,35.0,32,49,6.0,0.0
3272,83.0,11,78,12.0,0.0
3273,83.0,11,69,2.0,0.0
3274,63.0,7,45,4.0,0.0
3275,71.0,5,52,3.0,0.0
3276,85.0,22,50,12.0,0.0
3277,85.0,1,90,2.0,0.0
3278,45.0,1,43,5.0,0.0
3279,71.0,4,44,3.0,0.0
3280,63.0,2,38,4.0,0.0
3281,33.0,28,47,6.0,0.0
3282,83.0,2,260,12.0,0.0
3283,57.0,24,343,15.0,0.0
3284,45.0,5,331,11.0,0.0
3285,87.0,12,65,12.0,0.0
3286,45.0,19,362,15.0,0.0
3287,87.0,16,60,2.0,0.0
3288,71.0,35,55,3.0,0.0
3289,63.0,11,41,4.0,0.0
3290,88.0,25,77,12.0,0.0
3291,88.0,1,71,2.0,0.0
3292,45.0,3,41,5.0,0.0
3293,90.0,21,73,12.0,0.0
3294,33.0,19,50,6.0,0.0
3295,71.0,6,102,3.0,0.0
3296,63.0,15,18,4.0,0.0
3297,90.0,6,65,2.0,0.0
3298,91.0,1,118,12.0,0.0
3299,63.0,3,40,4.0,0.0
3300,91.0,43,38,2.0,0.0
3301,89.0,3,17,2.0,0.0
3302,44.0,4,41,5.0,0.0
3303,92.0,5,392,12.0,0.0
3304,32.0,4,40,6.0,0.0
3305,72.0,8,43,3.0,0.0
3306,84.0,1,317,12.0,0.0
3307,44.0,9,146,11.0,0.0
3308,75.0,0,194,14.0,0.0
3309,63.0,5,53,4.0,0.0
3310,66.0,8,175,14.0,0.0
3311,92.0,1,33,2.0,0.0
3312,72.0,5,162,13.0,0.0
3313,66.0,9,34,3.0,0.0
3314,56.0,1,143,7.0,0.0
3315,66.0,9,289,13.0,0.0
3316,56.0,3,160,15.0,0.0
3317,44.0,23,171,15.0,0.0
3318,93.0,1,299,12.0,0.0
3319,72.0,5,48,3.0,0.0
3320,63.0,33,46,4.0,0.0
3321,92.0,0,46,2.0,0.0
3322,66.0,4,40,3.0,0.0
3323,44.0,2,40,5.0,0.0
3324,32.0,0,42,6.0,0.0
3325,66.0,8,32,3.0,0.0
3326,92.0,2,41,2.0,0.0
3327,72.0,1,37,3.0,0.0
3328,63.0,7,24,4.0,0.0
3329,66.0,11,33,3.0,0.0
3330,92.0,10,38,2.0,0.0
3331,72.0,5,45,3.0,0.0
3332,63.0,16,40,4.0,0.0
3333,66.0,34,21,3.0,0.0
3334,44.0,3,43,5.0,0.0
3335,32.0,7,36,6.0,0.0
3336,92.0,15,96,2.0,0.0
3337,73.0,17,36,3.0,0.0
3338,76.0,15,529,14.0,0.0
3339,64.0,7,273,14.0,0.0
3340,44.0,2,123,11.0,0.0
3341,64.0,1,665,7.0,0.0
3342,85.0,13,132,12.0,0.0
3343,64.0,31,41,3.0,0.0
3344,64.0,1,36,4.0,0.0
3345,56.0,1,226,15.0,0.0
3346,73.0,0,507,13.0,0.0
3347,44.0,2,221,15.0,0.0
3348,64.0,1,480,13.0,0.0
3349,73.0,18,49,3.0,0.0
3350,64.0,4,40,3.0,0.0
3351,64.0,15,44,4.0,0.0
3352,44.0,0,41,5.0,0.0
3353,32.0,18,41,6.0,0.0
3354,88.0,4,132,12.0,0.0
3355,73.0,5,33,3.0,0.0
3356,64.0,15,39,3.0,0.0
3357,88.0,2,35,2.0,0.0
3358,64.0,44,35,4.0,0.0
3359,73.0,2,44,3.0,0.0
3360,88.0,2,40,2.0,0.0
3361,64.0,19,42,3.0,0.0
3362,64.0,4,58,4.0,0.0
3363,45.0,11,39,5.0,0.0
3364,33.0,30,37,6.0,0.0
3365,85.0,1,245,12.0,0.0
3366,45.0,21,141,11.0,0.0
3367,81.0,6,198,12.0,0.0
3368,57.0,7,174,15.0,0.0
3369,85.0,53,46,2.0,0.0
3370,73.0,12,33,3.0,0.0
3371,45.0,14,196,15.0,0.0
3372,64.0,10,106,4.0,0.0
3373,69.0,19,198,14.0,0.0
3374,73.0,10,47,3.0,0.0
3375,85.0,7,39,2.0,0.0
3376,45.0,3,47,5.0,0.0
3377,33.0,20,46,6.0,0.0
3378,85.0,12,49,2.0,0.0
3379,64.0,3,89,4.0,0.0
3380,73.0,4,23,3.0,0.0
3381,85.0,4,39,2.0,0.0
3382,73.0,1,30,3.0,0.0
3383,46.0,22,41,5.0,0.0
3384,34.0,32,44,6.0,0.0
3385,84.0,10,295,12.0,0.0
3386,79.0,13,455,12.0,0.0
3387,58.0,15,304,15.0,0.0
3388,46.0,4,300,15.0,0.0
3389,72.0,7,268,13.0,0.0
3390,64.0,11,393,13.0,0.0
3391,84.0,19,36,2.0,0.0
3392,46.0,1,294,11.0,0.0
3393,67.0,3,99,4.0,0.0
3394,76.0,14,547,14.0,0.0
3395,76.0,51,38,3.0,0.0
3396,67.0,11,482,14.0,0.0
3397,84.0,3,39,2.0,0.0
3398,46.0,1,37,5.0,0.0
3399,76.0,17,38,3.0,0.0
3400,34.0,44,43,6.0,0.0
3401,84.0,58,37,2.0,0.0
3402,76.0,10,97,3.0,0.0
3403,67.0,0,76,4.0,0.0
3404,84.0,8,41,2.0,0.0
3405,47.0,9,41,5.0,0.0
3406,35.0,9,39,6.0,0.0
3407,83.0,8,244,12.0,0.0
3408,64.0,30,202,7.0,0.0
3409,47.0,2,111,15.0,0.0
3410,76.0,15,41,3.0,0.0
3411,59.0,0,111,15.0,0.0
3412,83.0,3,37,2.0,0.0
3413,71.0,24,143,13.0,0.0
3414,47.0,7,110,11.0,0.0
3415,67.0,50,44,4.0,0.0
3416,76.0,1,52,3.0,0.0
3417,83.0,3,44,2.0,0.0
3418,67.0,1,47,4.0,0.0
3419,47.0,1,37,5.0,0.0
3420,35.0,14,38,6.0,0.0
3421,76.0,10,41,3.0,0.0
3422,83.0,1,37,2.0,0.0
3423,67.0,6,97,4.0,0.0
3424,83.0,4,42,2.0,0.0
3425,76.0,12,53,3.0,0.0
3426,47.0,1,36,5.0,0.0
3427,35.0,29,43,6.0,0.0
3428,81.0,68,260,12.0,0.0
3429,75.0,9,215,12.0,0.0
3430,59.0,7,121,7.0,0.0
3431,71.0,2,131,7.0,0.0
3432,75.0,5,228,14.0,0.0
3433,59.0,0,112,15.0,0.0
3434,66.0,17,204,14.0,0.0
3435,63.0,1,121,13.0,0.0
3436,47.0,1,117,15.0,0.0
3437,78.0,6,109,13.0,0.0
3438,47.0,0,106,11.0,0.0
3439,81.0,1,35,2.0,0.0
3440,75.0,1,34,3.0,0.0
3441,66.0,9,32,4.0,0.0
3442,47.0,53,35,1.0,0.0
3443,75.0,1,50,3.0,0.0
3444,66.0,0,50,4.0,0.0
3445,81.0,0,43,2.0,0.0
3446,47.0,0,39,5.0,0.0
3447,35.0,38,38,6.0,0.0
3448,75.0,15,25,3.0,0.0
3449,81.0,19,37,2.0,0.0
3450,66.0,9,81,4.0,0.0
3451,75.0,1,41,3.0,0.0
3452,81.0,0,41,2.0,0.0
3453,36.0,0,353,6.0,0.0
3454,48.0,12,352,5.0,0.0
3455,76.0,7,133,12.0,0.0
3456,79.0,2,119,12.0,0.0
3457,64.0,0,143,13.0,0.0
3458,76.0,5,115,14.0,0.0
3459,64.0,15,126,14.0,0.0
3460,76.0,20,762,13.0,0.0
3461,67.0,3,95,7.0,0.0
3462,55.0,31,958,10.0,0.0
3463,67.0,23,1485,10.0,0.0
3464,64.0,23,69,7.0,0.0
3465,79.0,5,36,2.0,0.0
3466,48.0,22,350,15.0,0.0
3467,64.0,24,40,4.0,0.0
3468,76.0,2,37,3.0,0.0
3469,72.0,1,822,8.0,0.0
3470,48.0,10,118,1.0,0.0
3471,60.0,3,79,15.0,0.0
3472,60.0,0,78,8.0,0.0
3473,48.0,1,373,11.0,0.0
3474,72.0,1,38,3.0,0.0
3475,79.0,3,42,2.0,0.0
3476,76.0,2,42,3.0,0.0
3477,72.0,25,48,3.0,0.0
3478,64.0,1,29,4.0,0.0
3479,79.0,5,36,2.0,0.0
3480,50.0,3,37,1.0,0.0
3481,76.0,44,36,3.0,0.0
3482,72.0,41,96,3.0,0.0
3483,64.0,9,48,4.0,0.0
3484,79.0,3,38,2.0,0.0
3485,76.0,18,45,3.0,0.0
3486,48.0,2,33,1.0,0.0
3487,50.0,9,25,1.0,0.0
3488,88.0,8,1046,12.0,0.0
3489,48.0,2,263,1.0,0.0
3490,84.0,6,1035,12.0,0.0
3491,67.0,2,139,7.0,0.0
3492,64.0,4,134,7.0,0.0
3493,67.0,6,32,4.0,0.0
3494,76.0,4,32,2.0,0.0
3495,72.0,2,471,13.0,0.0
3496,76.0,3,33,3.0,0.0
3497,84.0,3,35,2.0,0.0
3498,79.0,5,1279,14.0,0.0
3499,72.0,7,41,3.0,0.0
3500,76.0,4,482,14.0,0.0
3501,55.0,15,39,4.0,0.0
3502,50.0,2,31,1.0,0.0
3503,67.0,0,43,4.0,0.0
3504,76.0,1,43,3.0,0.0
3505,84.0,2,39,2.0,0.0
3506,76.0,13,41,2.0,0.0
3507,72.0,8,48,3.0,0.0
3508,55.0,29,44,4.0,0.0
3509,47.0,20,110,5.0,0.0
3510,50.0,3,30,1.0,0.0
3511,47.0,17,154,15.0,0.0
3512,67.0,5,42,4.0,0.0
3513,35.0,7,162,6.0,0.0
3514,84.0,9,38,2.0,0.0
3515,76.0,1,31,3.0,0.0
3516,47.0,2,113,11.0,0.0
3517,76.0,10,32,2.0,0.0
3518,72.0,10,39,3.0,0.0
3519,55.0,2,40,4.0,0.0
3520,50.0,1,33,1.0,0.0
3521,76.0,9,44,3.0,0.0
3522,84.0,4,37,2.0,0.0
3523,67.0,1,30,4.0,0.0
3524,72.0,4,48,3.0,0.0
3525,76.0,11,34,2.0,0.0
3526,55.0,15,44,4.0,0.0
3527,48.0,6,141,5.0,0.0
3528,50.0,3,34,1.0,0.0
3529,48.0,4,157,15.0,0.0
3530,67.0,4,37,4.0,0.0
3531,48.0,5,51,1.0,0.0
3532,76.0,3,37,3.0,0.0
3533,36.0,10,128,6.0,0.0
3534,84.0,11,36,2.0,0.0
3535,72.0,3,92,3.0,0.0
3536,48.0,5,108,11.0,0.0
3537,55.0,11,38,4.0,0.0
3538,76.0,5,32,2.0,0.0
3539,50.0,17,32,1.0,0.0
3540,76.0,6,56,3.0,0.0
3541,84.0,6,38,2.0,0.0
3542,67.0,1,42,4.0,0.0
3543,48.0,6,49,1.0,0.0
3544,76.0,6,42,2.0,0.0
3545,55.0,2,42,4.0,0.0
3546,52.0,1,128,5.0,0.0
3547,50.0,5,36,1.0,0.0
3548,52.0,1,191,15.0,0.0
3549,40.0,3,144,6.0,0.0
3550,67.0,32,30,4.0,0.0
3551,76.0,5,148,3.0,0.0
3552,84.0,2,77,2.0,0.0
3553,48.0,10,46,1.0,0.0
3554,52.0,2,100,11.0,0.0
3555,72.0,1,35,3.0,0.0
3556,76.0,12,34,2.0,0.0
3557,50.0,3,39,1.0,0.0
3558,55.0,0,34,4.0,0.0
3559,67.0,5,41,4.0,0.0
3560,72.0,5,45,3.0,0.0
3561,48.0,5,49,1.0,0.0
3562,76.0,4,43,2.0,0.0
3563,55.0,14,43,4.0,0.0
3564,55.0,7,77,5.0,0.0
3565,67.0,13,40,4.0,0.0
3566,43.0,11,64,6.0,0.0
3567,84.0,3,38,2.0,0.0
3568,67.0,4,155,8.0,0.0
3569,67.0,4,898,7.0,0.0
3570,77.0,0,759,14.0,0.0
3571,77.0,4,764,13.0,0.0
3572,55.0,10,85,11.0,0.0
3573,55.0,8,75,15.0,0.0
3574,74.0,2,750,13.0,0.0
3575,67.0,1,37,3.0,0.0
3576,62.0,11,766,15.0,0.0
3577,74.0,13,31,2.0,0.0
3578,74.0,8,38,3.0,0.0
3579,55.0,3,39,4.0,0.0
3580,84.0,2,39,2.0,0.0
3581,67.0,5,29,4.0,0.0
3582,67.0,16,38,3.0,0.0
3583,74.0,11,38,2.0,0.0
3584,74.0,6,43,3.0,0.0
3585,55.0,3,38,4.0,0.0
3586,67.0,11,38,4.0,0.0
3587,84.0,0,37,2.0,0.0
3588,67.0,26,83,3.0,0.0
3589,74.0,3,35,3.0,0.0
3590,74.0,13,31,2.0,0.0
3591,67.0,10,42,4.0,0.0
3592,55.0,10,43,4.0,0.0
3593,84.0,1,39,2.0,0.0
3594,74.0,17,48,3.0,0.0
3595,74.0,1,41,2.0,0.0
3596,67.0,3,27,4.0,0.0
3597,55.0,11,48,5.0,0.0
3598,55.0,2,44,4.0,0.0
3599,55.0,1,116,10.0,0.0
3600,84.0,12,36,2.0,0.0
3601,79.0,9,121,8.0,0.0
3602,67.0,1,118,8.0,0.0
3603,43.0,4,57,6.0,0.0
3604,67.0,14,32,3.0,0.0
3605,55.0,5,111,15.0,0.0
3606,67.0,7,37,4.0,0.0
3607,55.0,5,69,11.0,0.0
3608,74.0,4,41,3.0,0.0
3609,84.0,3,44,2.0,0.0
3610,74.0,16,21,2.0,0.0
3611,55.0,5,40,4.0,0.0
3612,67.0,11,40,3.0,0.0
3613,67.0,10,38,4.0,0.0
3614,74.0,18,57,3.0,0.0
3615,74.0,1,40,2.0,0.0
3616,55.0,1,43,4.0,0.0
3617,84.0,5,42,2.0,0.0
3618,67.0,2,86,3.0,0.0
3619,67.0,38,21,4.0,0.0
3620,74.0,12,40,3.0,0.0
3621,84.0,19,57,2.0,0.0
3622,74.0,6,38,2.0,0.0
3623,55.0,4,43,4.0,0.0
3624,67.0,3,40,4.0,0.0
3625,74.0,11,45,3.0,0.0
3626,55.0,10,48,4.0,0.0
3627,74.0,5,42,2.0,0.0
3628,55.0,26,59,5.0,0.0
3629,67.0,3,41,4.0,0.0
3630,67.0,3,39,3.0,0.0
3631,83.0,5,258,12.0,0.0
3632,55.0,2,130,10.0,0.0
3633,86.0,5,265,12.0,0.0
3634,55.0,14,96,11.0,0.0
3635,74.0,1,127,8.0,0.0
3636,43.0,2,59,6.0,0.0
3637,67.0,3,125,8.0,0.0
3638,55.0,1,102,15.0,0.0
3639,83.0,6,40,2.0,0.0
3640,77.0,7,44,3.0,0.0
3641,74.0,1,38,2.0,0.0
3642,55.0,12,41,4.0,0.0
3643,67.0,6,18,4.0,0.0
3644,67.0,12,46,3.0,0.0
3645,83.0,6,45,2.0,0.0
3646,77.0,5,44,3.0,0.0
3647,74.0,4,46,2.0,0.0
3648,67.0,1,33,4.0,0.0
3649,55.0,21,45,4.0,0.0
3650,67.0,8,41,3.0,0.0
3651,83.0,10,93,2.0,0.0
3652,67.0,14,45,4.0,0.0
3653,77.0,3,95,3.0,0.0
3654,74.0,1,90,2.0,0.0
3655,55.0,20,41,4.0,0.0
3656,67.0,7,48,3.0,0.0
3657,67.0,2,15,4.0,0.0
3658,55.0,5,42,4.0,0.0
3659,48.0,18,359,5.0,0.0
3660,67.0,31,33,4.0,0.0
3661,64.0,7,104,7.0,0.0
3662,79.0,30,1601,14.0,0.0
3663,48.0,23,404,15.0,0.0
3664,84.0,4,38,2.0,0.0
3665,48.0,4,372,11.0,0.0
3666,76.0,14,798,13.0,0.0
3667,72.0,3,785,13.0,0.0
3668,72.0,7,39,3.0,0.0
3669,72.0,5,713,8.0,0.0
3670,76.0,2,710,8.0,0.0
3671,76.0,0,612,14.0,0.0
3672,36.0,2,353,6.0,0.0
3673,76.0,2,33,2.0,0.0
3674,88.0,2,1309,12.0,0.0
3675,84.0,1,1306,12.0,0.0
3676,55.0,21,898,10.0,0.0
3677,48.0,1,111,1.0,0.0
3678,55.0,21,43,4.0,0.0
3679,76.0,7,35,3.0,0.0
3680,67.0,0,1421,10.0,0.0
3681,60.0,3,636,15.0,0.0
3682,67.0,8,43,4.0,0.0
3683,84.0,8,38,2.0,0.0
3684,76.0,5,38,2.0,0.0
3685,72.0,3,41,3.0,0.0
3686,76.0,1,41,3.0,0.0
3687,55.0,11,39,4.0,0.0
3688,67.0,34,18,4.0,0.0
3689,50.0,6,44,1.0,0.0
3690,84.0,2,33,2.0,0.0
3691,76.0,4,33,2.0,0.0
3692,72.0,8,36,3.0,0.0
3693,76.0,8,36,3.0,0.0
3694,55.0,11,41,4.0,0.0
3695,67.0,18,37,4.0,0.0
3696,48.0,2,48,1.0,0.0
3697,84.0,7,37,2.0,0.0
3698,72.0,6,40,3.0,0.0
3699,76.0,6,40,2.0,0.0
3700,76.0,27,46,3.0,0.0
3701,55.0,4,40,4.0,0.0
3702,50.0,2,23,1.0,0.0
3703,67.0,13,43,4.0,0.0
3704,48.0,8,48,1.0,0.0
3705,84.0,14,31,2.0,0.0
3706,67.0,10,121,7.0,0.0
3707,72.0,1,34,3.0,0.0
3708,76.0,2,33,2.0,0.0
3709,55.0,5,42,4.0,0.0
3710,50.0,6,34,1.0,0.0
3711,64.0,2,100,7.0,0.0
3712,76.0,2,34,3.0,0.0
3713,67.0,10,26,4.0,0.0
3714,48.0,3,54,1.0,0.0
3715,84.0,10,37,2.0,0.0
3716,76.0,2,39,2.0,0.0
3717,72.0,4,39,3.0,0.0
3718,55.0,3,43,4.0,0.0
3719,76.0,8,43,3.0,0.0
3720,67.0,1,35,4.0,0.0
3721,50.0,3,30,1.0,0.0
3722,47.0,23,165,5.0,0.0
3723,48.0,10,49,1.0,0.0
3724,84.0,8,27,2.0,0.0
3725,55.0,7,42,4.0,0.0
3726,76.0,5,34,2.0,0.0
3727,67.0,28,47,4.0,0.0
3728,35.0,6,125,6.0,0.0
3729,47.0,5,89,11.0,0.0
3730,76.0,0,36,3.0,0.0
3731,72.0,2,31,3.0,0.0
3732,50.0,1,30,1.0,0.0
3733,47.0,1,167,15.0,0.0
3734,84.0,12,37,2.0,0.0
3735,48.0,5,53,1.0,0.0
3736,76.0,5,38,2.0,0.0
3737,55.0,0,43,4.0,0.0
3738,72.0,5,42,3.0,0.0
3739,76.0,14,48,3.0,0.0
3740,67.0,3,32,4.0,0.0
3741,50.0,1,31,1.0,0.0
3742,48.0,3,148,5.0,0.0
3743,48.0,9,49,1.0,0.0
3744,84.0,1,34,2.0,0.0
3745,67.0,3,33,4.0,0.0
3746,76.0,2,32,2.0,0.0
3747,55.0,12,40,4.0,0.0
3748,36.0,19,121,6.0,0.0
3749,48.0,9,98,11.0,0.0
3750,50.0,2,38,1.0,0.0
3751,72.0,1,36,3.0,0.0
3752,76.0,21,37,3.0,0.0
3753,48.0,6,154,15.0,0.0
3754,84.0,12,34,2.0,0.0
3755,76.0,9,39,2.0,0.0
3756,67.0,1,45,4.0,0.0
3757,48.0,5,46,1.0,0.0
3758,55.0,1,44,4.0,0.0
3759,72.0,6,47,3.0,0.0
3760,76.0,0,52,3.0,0.0
3761,50.0,1,41,1.0,0.0
3762,52.0,5,146,5.0,0.0
3763,84.0,5,37,2.0,0.0
3764,40.0,4,151,6.0,0.0
3765,48.0,0,169,1.0,0.0
3766,52.0,7,90,11.0,0.0
3767,76.0,9,37,2.0,0.0
3768,67.0,15,18,4.0,0.0
3769,55.0,1,40,4.0,0.0
3770,52.0,4,173,15.0,0.0
3771,72.0,3,41,3.0,0.0
3772,76.0,16,44,3.0,0.0
3773,50.0,4,99,1.0,0.0
3774,84.0,5,43,2.0,0.0
3775,67.0,6,41,4.0,0.0
3776,76.0,12,44,2.0,0.0
3777,55.0,4,42,4.0,0.0
3778,72.0,0,48,3.0,0.0
3779,76.0,4,49,3.0,0.0
3780,55.0,1,56,5.0,0.0
3781,84.0,13,38,2.0,0.0
3782,67.0,10,42,4.0,0.0
3783,43.0,6,57,6.0,0.0
3784,55.0,10,63,11.0,0.0
3785,67.0,15,279,8.0,0.0
3786,74.0,10,32,2.0,0.0
3787,77.0,3,783,14.0,0.0
3788,79.0,18,407,8.0,0.0
3789,77.0,17,860,13.0,0.0
3790,74.0,21,817,13.0,0.0
3791,55.0,1,106,15.0,0.0
3792,67.0,3,761,7.0,0.0
3793,74.0,4,42,3.0,0.0
3794,55.0,1,39,4.0,0.0
3795,67.0,1,33,3.0,0.0
3796,84.0,11,44,2.0,0.0
3797,62.0,6,782,15.0,0.0
3798,67.0,6,27,4.0,0.0
3799,74.0,18,29,2.0,0.0
3800,67.0,1,41,3.0,0.0
3801,55.0,4,42,4.0,0.0
3802,74.0,2,44,3.0,0.0
3803,67.0,10,37,4.0,0.0
3804,84.0,29,35,2.0,0.0
3805,74.0,23,35,2.0,0.0
3806,67.0,1,43,4.0,0.0
3807,74.0,3,42,3.0,0.0
3808,55.0,4,91,4.0,0.0
3809,84.0,24,42,2.0,0.0
3810,67.0,4,34,3.0,0.0
3811,74.0,15,38,2.0,0.0
3812,74.0,8,52,3.0,0.0
3813,67.0,5,42,3.0,0.0
3814,67.0,8,27,4.0,0.0
3815,55.0,12,41,5.0,0.0
3816,84.0,1,37,2.0,0.0
3817,55.0,2,70,11.0,0.0
3818,74.0,23,37,2.0,0.0
3819,43.0,19,76,6.0,0.0
3820,67.0,16,93,4.0,0.0
3821,55.0,8,42,4.0,0.0
3822,55.0,8,115,10.0,0.0
3823,55.0,2,82,15.0,0.0
3824,84.0,3,48,2.0,0.0
3825,74.0,4,44,3.0,0.0
3826,67.0,2,38,3.0,0.0
3827,74.0,6,39,2.0,0.0
3828,55.0,2,44,4.0,0.0
3829,67.0,11,43,3.0,0.0
3830,74.0,3,58,3.0,0.0
3831,84.0,7,41,2.0,0.0
3832,74.0,18,37,2.0,0.0
3833,67.0,2,24,4.0,0.0
3834,67.0,2,89,3.0,0.0
3835,55.0,12,41,4.0,0.0
3836,67.0,4,33,8.0,0.0
3837,74.0,9,43,3.0,0.0
3838,84.0,20,50,2.0,0.0
3839,74.0,11,48,2.0,0.0
3840,67.0,3,36,4.0,0.0
3841,55.0,1,43,4.0,0.0
3842,67.0,13,40,8.0,0.0
3843,74.0,20,52,3.0,0.0
3844,55.0,7,62,5.0,0.0
3845,83.0,10,37,2.0,0.0
3846,86.0,2,271,12.0,0.0
3847,83.0,9,242,12.0,0.0
3848,67.0,2,40,3.0,0.0
3849,43.0,7,55,6.0,0.0
3850,67.0,3,41,4.0,0.0
3851,55.0,11,61,11.0,0.0
3852,74.0,9,42,2.0,0.0
3853,67.0,1,38,8.0,0.0
3854,55.0,0,44,4.0,0.0
3855,62.0,7,80,10.0,0.0
3856,55.0,3,97,15.0,0.0
3857,74.0,1,40,8.0,0.0
3858,77.0,13,46,3.0,0.0
3859,83.0,6,47,2.0,0.0
3860,67.0,9,43,3.0,0.0
3861,74.0,6,49,2.0,0.0
3862,67.0,2,36,4.0,0.0
3863,55.0,9,48,4.0,0.0
3864,77.0,27,45,3.0,0.0
3865,83.0,11,39,2.0,0.0
3866,67.0,7,41,4.0,0.0
3867,74.0,6,99,2.0,0.0
3868,67.0,15,40,3.0,0.0
3869,55.0,5,41,4.0,0.0
3870,77.0,7,101,3.0,0.0
3871,74.0,4,42,8.0,0.0
3872,67.0,22,42,8.0,0.0
3873,83.0,3,46,2.0,0.0
3874,67.0,3,38,3.0,0.0
3875,67.0,5,39,4.0,0.0
3876,55.0,6,46,4.0,0.0
3877,48.0,17,147,5.0,0.0
3878,84.0,8,44,2.0,0.0
3879,36.0,1,204,6.0,0.0
3880,88.0,16,243,12.0,0.0
3881,67.0,2,120,4.0,0.0
3882,48.0,8,131,11.0,0.0
3883,55.0,11,47,4.0,0.0
3884,84.0,3,256,12.0,0.0
3885,48.0,15,192,15.0,0.0
3886,76.0,19,149,8.0,0.0
3887,72.0,1,129,8.0,0.0
3888,76.0,10,107,2.0,0.0
3889,64.0,7,163,7.0,0.0
3890,76.0,2,125,3.0,0.0
3891,67.0,1,182,7.0,0.0
3892,79.0,13,196,14.0,0.0
3893,76.0,14,161,14.0,0.0
3894,48.0,21,48,1.0,0.0
3895,67.0,22,69,3.0,0.0
3896,76.0,6,223,13.0,0.0
3897,67.0,40,2044,10.0,0.0
3898,72.0,12,189,13.0,0.0
3899,64.0,3,2347,10.0,0.0
3900,60.0,1816,122,15.0,0.0
3901,67.0,78,1233,15.0,0.0
3902,64.0,173,1058,15.0,0.0
3903,76.0,137,864,14.0,0.0
3904,79.0,216,997,14.0,0.0
3905,60.0,6,295,10.0,0.0
3906,60.0,18,234,15.0,0.0
3907,64.0,495,258,15.0,0.0
3908,76.0,44,275,14.0,0.0
3909,72.0,281,303,14.0,0.0
3910,64.0,14,1404,15.0,0.0
3911,67.0,27,1434,15.0,0.0
3912,67.0,183,1165,10.0,0.0
3913,64.0,9,1146,10.0,0.0
3914,60.0,359,293,4.0,0.0
3915,59.0,238,359,4.0,0.0
3916,58.0,182,618,4.0,0.0
3917,76.0,23,534,14.0,0.0
3918,79.0,35,478,14.0,0.0
3919,46.0,14,313,6.0,0.0
3920,66.0,2,346,15.0,0.0
3921,78.0,25,304,14.0,0.0
3922,75.0,13,286,14.0,0.0
3923,63.0,1,327,15.0,0.0
3924,47.0,12,283,6.0,0.0
3925,59.0,237,292,4.0,0.0
3926,77.0,4,314,14.0,0.0
3927,74.0,3,318,14.0,0.0
3928,56.0,218,317,4.0,0.0
3929,44.0,8,281,6.0,0.0
3930,65.0,2,290,15.0,0.0
3931,62.0,4,293,15.0,0.0
3932,57.0,23,700,4.0,0.0
3933,45.0,48,285,6.0,0.0
3934,76.0,244,343,14.0,0.0
3935,72.0,29,239,14.0,0.0
3936,60.0,1,232,15.0,0.0
3937,64.0,18,307,15.0,0.0
3938,33.0,29,298,6.0,0.0
3939,45.0,768,418,5.0,0.0
3940,72.0,29,351,14.0,0.0
3941,60.0,2,272,15.0,0.0
3942,69.0,9,367,14.0,0.0
3943,57.0,31,305,15.0,0.0
3944,64.0,4,296,7.0,0.0
3945,59.0,519,983,15.0,0.0
3946,59.0,201,1557,4.0,0.0
3947,35.0,12,1764,6.0,0.0
3948,71.0,16,1521,14.0,0.0
3949,67.0,3,1504,14.0,0.0
3950,47.0,49,1796,5.0,0.0
3951,71.0,39,1435,7.0,0.0
3952,64.0,108,798,7.0,0.0
3953,63.0,16,888,15.0,0.0
3954,47.0,30,905,15.0,0.0
3955,59.0,10,921,7.0,0.0
3956,66.0,11,381,14.0,0.0
3957,69.0,26,386,14.0,0.0
3958,69.0,12,312,7.0,0.0
3959,64.0,2,136,7.0,0.0
3960,67.0,1,130,7.0,0.0
3961,48.0,7,432,15.0,0.0
3962,48.0,1,113,1.0,0.0
3963,55.0,8,47,4.0,0.0
3964,48.0,5,408,5.0,0.0
3965,67.0,43,1532,10.0,0.0
3966,76.0,3,39,3.0,0.0
3967,36.0,3,371,6.0,0.0
3968,48.0,6,409,11.0,0.0
3969,55.0,0,1008,10.0,0.0
3970,64.0,15,129,15.0,0.0
3971,84.0,2,1389,12.0,0.0
3972,88.0,28,1390,12.0,0.0
3973,84.0,34,61,2.0,0.0
3974,67.0,15,36,4.0,0.0
3975,67.0,19,280,14.0,0.0
3976,64.0,12,267,14.0,0.0
3977,76.0,1,805,13.0,0.0
3978,60.0,13,232,8.0,0.0
3979,72.0,11,787,13.0,0.0
3980,72.0,4,778,8.0,0.0
3981,76.0,6,38,2.0,0.0
3982,76.0,9,46,3.0,0.0
3983,55.0,5,36,4.0,0.0
3984,67.0,1,43,4.0,0.0
3985,84.0,12,42,2.0,0.0
3986,76.0,1,45,2.0,0.0
3987,50.0,21,47,1.0,0.0
3988,76.0,9,40,3.0,0.0
3989,55.0,0,48,4.0,0.0
3990,67.0,15,40,4.0,0.0
3991,48.0,11,56,1.0,0.0
3992,84.0,2,38,2.0,0.0
3993,76.0,27,40,2.0,0.0
3994,50.0,2,44,1.0,0.0
3995,76.0,8,46,3.0,0.0
3996,55.0,2,35,4.0,0.0
3997,67.0,2,37,4.0,0.0
3998,84.0,1,42,2.0,0.0
3999,76.0,16,39,2.0,0.0
4000,48.0,2,52,1.0,0.0
4001,67.0,5,130,7.0,0.0
4002,64.0,3,117,7.0,0.0
4003,50.0,1,43,1.0,0.0
4004,76.0,9,41,3.0,0.0
4005,55.0,15,43,4.0,0.0
4006,67.0,2,85,4.0,0.0
4007,84.0,2,36,2.0,0.0
4008,64.0,2,632,15.0,0.0
4009,76.0,11,36,2.0,0.0
4010,48.0,17,45,1.0,0.0
4011,79.0,3,1337,14.0,0.0
4012,76.0,1,568,14.0,0.0
4013,84.0,4,38,2.0,0.0
4014,76.0,4,41,3.0,0.0
4015,50.0,7,41,1.0,0.0
4016,55.0,2,38,4.0,0.0
4017,76.0,6,38,2.0,0.0
4018,48.0,31,44,1.0,0.0
4019,76.0,2,42,3.0,0.0
4020,67.0,1,40,4.0,0.0
4021,50.0,6,40,1.0,0.0
4022,55.0,4,43,4.0,0.0
4023,84.0,1,36,2.0,0.0
4024,47.0,4,98,11.0,0.0
4025,76.0,26,35,2.0,0.0
4026,48.0,12,46,1.0,0.0
4027,35.0,14,117,6.0,0.0
4028,47.0,15,161,15.0,0.0
4029,47.0,6,121,5.0,0.0
4030,84.0,11,37,2.0,0.0
4031,67.0,1,36,4.0,0.0
4032,76.0,5,45,3.0,0.0
4033,55.0,2,40,4.0,0.0
4034,76.0,0,37,2.0,0.0
4035,50.0,34,38,1.0,0.0
4036,48.0,7,43,1.0,0.0
4037,67.0,8,41,4.0,0.0
4038,48.0,16,143,11.0,0.0
4039,84.0,2,38,2.0,0.0
4040,76.0,9,41,3.0,0.0
4041,50.0,0,40,1.0,0.0
4042,55.0,5,43,4.0,0.0
4043,76.0,6,40,2.0,0.0
4044,48.0,3,164,15.0,0.0
4045,48.0,10,44,1.0,0.0
4046,36.0,2,147,6.0,0.0
4047,48.0,19,153,5.0,0.0
4048,84.0,6,42,2.0,0.0
4049,67.0,17,37,4.0,0.0
4050,76.0,3,49,3.0,0.0
4051,76.0,1,44,2.0,0.0
4052,50.0,7,42,1.0,0.0
4053,55.0,16,41,4.0,0.0
4054,48.0,20,48,1.0,0.0
4055,52.0,22,158,11.0,0.0
4056,84.0,15,87,2.0,0.0
4057,67.0,11,36,4.0,0.0
4058,76.0,9,49,3.0,0.0
4059,52.0,1,170,15.0,0.0
4060,50.0,0,43,1.0,0.0
4061,76.0,0,41,2.0,0.0
4062,55.0,0,43,4.0,0.0
4063,40.0,22,175,6.0,0.0
4064,52.0,5,153,5.0,0.0
4065,48.0,7,134,1.0,0.0
4066,67.0,13,36,4.0,0.0
4067,76.0,1,48,2.0,0.0
4068,76.0,1,50,3.0,0.0
4069,55.0,2,41,4.0,0.0
4070,50.0,15,60,1.0,0.0
4071,55.0,8,58,11.0,0.0
4072,84.0,2,40,2.0,0.0
4073,55.0,0,45,4.0,0.0
4074,67.0,1,42,4.0,0.0
4075,74.0,3,43,3.0,0.0
4076,74.0,1,38,2.0,0.0
4077,67.0,6,163,8.0,0.0
4078,77.0,0,798,13.0,0.0
4079,55.0,8,68,15.0,0.0
4080,77.0,6,790,14.0,0.0
4081,74.0,1,775,13.0,0.0
4082,43.0,5,62,6.0,0.0
4083,55.0,16,64,5.0,0.0
4084,84.0,9,40,2.0,0.0
4085,62.0,6,810,15.0,0.0
4086,67.0,9,892,7.0,0.0
4087,74.0,1,44,2.0,0.0
4088,74.0,1,43,3.0,0.0
4089,67.0,1,41,4.0,0.0
4090,55.0,39,44,4.0,0.0
4091,84.0,19,37,2.0,0.0
4092,74.0,5,39,2.0,0.0
4093,74.0,11,100,3.0,0.0
4094,67.0,3,42,4.0,0.0
4095,55.0,26,43,4.0,0.0
4096,84.0,26,42,2.0,0.0
4097,74.0,2,44,2.0,0.0
4098,55.0,42,48,4.0,0.0
4099,67.0,3,44,4.0,0.0
4100,84.0,22,39,2.0,0.0
4101,79.0,9,164,8.0,0.0
4102,67.0,27,135,8.0,0.0
4103,55.0,2,75,11.0,0.0
4104,55.0,19,81,15.0,0.0
4105,74.0,16,38,2.0,0.0
4106,43.0,7,66,6.0,0.0
4107,74.0,13,101,3.0,0.0
4108,55.0,3,45,4.0,0.0
4109,67.0,10,42,4.0,0.0
4110,55.0,4,54,5.0,0.0
4111,55.0,8,85,10.0,0.0
4112,84.0,1,43,2.0,0.0
4113,74.0,2,44,2.0,0.0
4114,67.0,2,44,4.0,0.0
4115,55.0,2,45,4.0,0.0
4116,84.0,16,41,2.0,0.0
4117,74.0,3,36,3.0,0.0
4118,55.0,7,45,4.0,0.0
4119,74.0,6,39,2.0,0.0
4120,67.0,30,41,4.0,0.0
4121,84.0,15,43,2.0,0.0
4122,74.0,5,38,2.0,0.0
4123,74.0,11,42,3.0,0.0
4124,55.0,4,46,4.0,0.0
4125,67.0,18,44,4.0,0.0
4126,67.0,5,144,8.0,0.0
4127,74.0,1,137,8.0,0.0
4128,55.0,15,114,15.0,0.0
4129,55.0,8,93,10.0,0.0
4130,83.0,22,37,2.0,0.0
4131,86.0,19,276,12.0,0.0
4132,43.0,10,80,6.0,0.0
4133,55.0,5,73,11.0,0.0
4134,55.0,1,76,5.0,0.0
4135,83.0,1,246,12.0,0.0
4136,74.0,3,95,2.0,0.0
4137,55.0,3,44,4.0,0.0
4138,67.0,10,44,4.0,0.0
4139,77.0,3,39,3.0,0.0
4140,83.0,8,45,2.0,0.0
4141,55.0,5,45,4.0,0.0
4142,67.0,1,44,4.0,0.0
4143,77.0,4,46,3.0,0.0
4144,83.0,5,92,2.0,0.0
4145,74.0,6,39,2.0,0.0
4146,55.0,12,43,4.0,0.0
4147,67.0,34,46,4.0,0.0
4148,77.0,6,105,3.0,0.0
4149,74.0,10,42,2.0,0.0
4150,55.0,1,40,4.0,0.0
4151,67.0,7,47,4.0,0.0
4152,55.0,7,1024,10.0,0.0
4153,67.0,3,1439,10.0,0.0
4154,48.0,2,417,15.0,0.0
4155,84.0,2,1383,12.0,0.0
4156,76.0,11,842,14.0,0.0
4157,88.0,18,1400,12.0,0.0
4158,79.0,0,1954,14.0,0.0
4159,55.0,0,44,4.0,0.0
4160,64.0,9,100,7.0,0.0
4161,84.0,5,40,2.0,0.0
4162,48.0,32,410,11.0,0.0
4163,36.0,5,400,6.0,0.0
4164,76.0,8,43,2.0,0.0
4165,72.0,0,780,8.0,0.0
4166,76.0,15,814,8.0,0.0
4167,76.0,1,840,13.0,0.0
4168,60.0,27,4,15.0,0.0
4169,67.0,31,49,4.0,0.0
4170,76.0,8,41,3.0,0.0
4171,48.0,5,457,5.0,0.0
4172,72.0,1,819,13.0,0.0
4173,48.0,21,124,1.0,0.0
4174,55.0,3,42,4.0,0.0
4175,84.0,1,44,2.0,0.0
4176,76.0,7,23,2.0,0.0
4177,76.0,6,45,3.0,0.0
4178,67.0,25,45,4.0,0.0
4179,55.0,9,43,4.0,0.0
4180,84.0,12,90,2.0,0.0
4181,76.0,11,36,2.0,0.0
4182,50.0,40,48,1.0,0.0
4183,67.0,0,45,4.0,0.0
4184,76.0,1,38,3.0,0.0
4185,48.0,0,54,1.0,0.0
4186,55.0,1,51,4.0,0.0
4187,76.0,1,35,2.0,0.0
4188,76.0,12,41,3.0,0.0
4189,67.0,30,44,4.0,0.0
4190,50.0,21,49,1.0,0.0
4191,55.0,6,47,4.0,0.0
4192,76.0,10,36,2.0,0.0
4193,84.0,5,87,2.0,0.0
4194,48.0,29,52,1.0,0.0
4195,67.0,6,46,4.0,0.0
4196,76.0,0,39,3.0,0.0
4197,64.0,10,84,7.0,0.0
4198,67.0,3,101,7.0,0.0
4199,50.0,3,44,1.0,0.0
4200,76.0,7,46,2.0,0.0
4201,55.0,3,49,4.0,0.0
4202,76.0,3,42,3.0,0.0
4203,67.0,5,48,4.0,0.0
4204,48.0,2,49,1.0,0.0
4205,50.0,13,46,1.0,0.0
4206,84.0,0,38,2.0,0.0
4207,55.0,3,45,4.0,0.0
4208,67.0,2,39,4.0,0.0
4209,76.0,3,39,2.0,0.0
4210,76.0,7,38,3.0,0.0
4211,48.0,14,46,1.0,0.0
4212,47.0,4,163,15.0,0.0
4213,47.0,10,166,11.0,0.0
4214,35.0,3,174,6.0,0.0
4215,47.0,29,183,5.0,0.0
4216,84.0,27,39,2.0,0.0
4217,50.0,13,46,1.0,0.0
4218,55.0,1,48,4.0,0.0
4219,76.0,2,47,2.0,0.0
4220,76.0,1,44,3.0,0.0
4221,67.0,15,47,4.0,0.0
4222,48.0,38,45,1.0,0.0
4223,84.0,5,81,2.0,0.0
4224,50.0,7,40,1.0,0.0
4225,55.0,3,44,4.0,0.0
4226,67.0,5,44,4.0,0.0
4227,48.0,6,158,15.0,0.0
4228,76.0,1,42,2.0,0.0
4229,76.0,0,38,3.0,0.0
4230,48.0,0,151,11.0,0.0
4231,48.0,8,47,1.0,0.0
4232,36.0,6,140,6.0,0.0
4233,48.0,2,147,5.0,0.0
4234,50.0,9,42,1.0,0.0
4235,76.0,8,45,3.0,0.0
4236,55.0,0,44,4.0,0.0
4237,76.0,27,49,2.0,0.0
4238,67.0,0,47,4.0,0.0
4239,48.0,2,53,1.0,0.0
4240,84.0,12,39,2.0,0.0
4241,52.0,2,163,15.0,0.0
4242,55.0,7,43,4.0,0.0
4243,52.0,9,176,11.0,0.0
4244,40.0,1,153,6.0,0.0
4245,50.0,4,43,1.0,0.0
4246,52.0,1,149,5.0,0.0
4247,67.0,23,43,4.0,0.0
4248,76.0,0,43,2.0,0.0
4249,76.0,1,39,3.0,0.0
4250,84.0,15,41,2.0,0.0
4251,48.0,23,52,1.0,0.0
4252,55.0,6,46,4.0,0.0
4253,74.0,1,44,2.0,0.0
4254,76.0,0,44,3.0,0.0
4255,67.0,4,47,4.0,0.0
4256,50.0,2,53,1.0,0.0
4257,84.0,15,44,2.0,0.0
4258,48.0,7,56,1.0,0.0
4259,43.0,13,66,6.0,0.0
4260,55.0,2,45,4.0,0.0
4261,55.0,20,94,5.0,0.0
4262,55.0,1,73,11.0,0.0
4263,77.0,5,893,14.0,0.0
4264,67.0,3,44,4.0,0.0
4265,55.0,18,70,15.0,0.0
4266,74.0,3,39,3.0,0.0
4267,74.0,0,41,2.0,0.0
4268,67.0,12,822,7.0,0.0
4269,62.0,1,644,15.0,0.0
4270,84.0,7,39,2.0,0.0
4271,67.0,11,306,8.0,0.0
4272,77.0,52,873,13.0,0.0
4273,74.0,37,810,13.0,0.0
4274,79.0,13,430,8.0,0.0
4275,55.0,2,49,4.0,0.0
4276,67.0,28,51,4.0,0.0
4277,74.0,5,43,3.0,0.0
4278,74.0,2,39,2.0,0.0
4279,84.0,15,40,2.0,0.0
4280,55.0,9,42,4.0,0.0
4281,67.0,4,42,4.0,0.0
4282,74.0,21,42,3.0,0.0
4283,74.0,2,102,2.0,0.0
4284,84.0,38,44,2.0,0.0
4285,55.0,4,48,4.0,0.0
4286,67.0,4,45,4.0,0.0
4287,74.0,38,47,3.0,0.0
4288,84.0,15,42,2.0,0.0
4289,55.0,13,45,4.0,0.0
4290,43.0,2,50,6.0,0.0
4291,67.0,12,47,4.0,0.0
4292,55.0,3,57,5.0,0.0
4293,74.0,1,40,3.0,0.0
4294,55.0,2,74,15.0,0.0
4295,55.0,17,74,11.0,0.0
4296,74.0,2,46,2.0,0.0
4297,84.0,6,48,2.0,0.0
4298,55.0,23,110,10.0,0.0
4299,55.0,9,49,4.0,0.0
4300,74.0,3,45,3.0,0.0
4301,67.0,13,42,4.0,0.0
4302,74.0,17,47,2.0,0.0
4303,84.0,3,52,2.0,0.0
4304,55.0,10,48,4.0,0.0
4305,74.0,9,40,3.0,0.0
4306,67.0,6,49,4.0,0.0
4307,74.0,15,40,2.0,0.0
4308,84.0,7,48,2.0,0.0
4309,55.0,7,50,4.0,0.0
4310,67.0,7,37,8.0,0.0
4311,74.0,11,45,3.0,0.0
4312,67.0,10,47,4.0,0.0
4313,74.0,16,44,2.0,0.0
4314,67.0,5,49,8.0,0.0
4315,55.0,16,47,4.0,0.0
4316,83.0,3,39,2.0,0.0
4317,43.0,1,69,6.0,0.0
4318,55.0,6,77,11.0,0.0
4319,55.0,3,91,5.0,0.0
4320,62.0,5,108,10.0,0.0
4321,67.0,10,47,4.0,0.0
4322,55.0,2,101,15.0,0.0
4323,77.0,1,44,3.0,0.0
4324,86.0,8,335,12.0,0.0
4325,83.0,10,318,12.0,0.0
4326,74.0,8,36,2.0,0.0
4327,67.0,8,40,8.0,0.0
4328,83.0,8,48,2.0,0.0
4329,55.0,8,48,4.0,0.0
4330,74.0,1,38,8.0,0.0
4331,84.0,3,22,2.0,0.0
4332,77.0,1,40,3.0,0.0
4333,67.0,10,45,4.0,0.0
4334,74.0,40,41,2.0,0.0
4335,55.0,11,47,4.0,0.0
4336,83.0,5,38,2.0,0.0
4337,67.0,11,44,4.0,0.0
4338,77.0,4,96,3.0,0.0
4339,74.0,22,38,2.0,0.0
4340,74.0,7,38,8.0,0.0
4341,83.0,4,42,2.0,0.0
4342,67.0,1,38,8.0,0.0
4343,55.0,15,39,4.0,0.0
4344,67.0,1,38,4.0,0.0
4345,74.0,37,36,2.0,0.0
4346,55.0,50,131,4.0,0.0
4347,76.0,14,240,2.0,0.0
4348,76.0,5,216,3.0,0.0
4349,64.0,9,188,7.0,0.0
4350,67.0,7,189,7.0,0.0
4351,76.0,11,277,13.0,0.0
4352,72.0,3,246,13.0,0.0
4353,84.0,6,159,2.0,0.0
4354,76.0,8,234,14.0,0.0
4355,72.0,5,150,8.0,0.0
4356,76.0,6,159,8.0,0.0
4357,36.0,1815,274,6.0,0.0
4358,48.0,22,238,5.0,0.0
4359,48.0,7,118,1.0,0.0
4360,48.0,8,167,15.0,0.0
4361,48.0,0,207,11.0,0.0
4362,67.0,178,2298,10.0,0.0
4363,84.0,3,202,12.0,0.0
4364,88.0,1,212,12.0,0.0
4365,60.0,18,167,15.0,0.0
4366,67.0,15,104,4.0,0.0
4367,64.0,164,2054,10.0,0.0
4368,67.0,18,1108,15.0,0.0
4369,64.0,51,1035,15.0,0.0
4370,64.0,25,339,10.0,0.0
4371,60.0,40,273,10.0,0.0
4372,91.0,75,995,12.0,0.0
4373,79.0,114,1066,14.0,0.0
4374,88.0,33,844,12.0,0.0
4375,76.0,109,874,14.0,0.0
4376,64.0,515,269,15.0,0.0
4377,60.0,11,213,15.0,0.0
4378,88.0,12,267,12.0,0.0
4379,84.0,40,224,12.0,0.0
4380,67.0,404,985,10.0,0.0
4381,76.0,304,285,14.0,0.0
4382,64.0,215,1453,15.0,0.0
4383,67.0,4,1395,15.0,0.0
4384,64.0,6,956,10.0,0.0
4385,72.0,27,242,14.0,0.0
4386,72.0,39,321,2.0,0.0
4387,60.0,233,325,4.0,0.0
4388,71.0,88,329,2.0,0.0
4389,59.0,18,382,4.0,0.0
4390,91.0,5,585,12.0,0.0
4391,88.0,3,605,12.0,0.0
4392,79.0,3,566,14.0,0.0
4393,76.0,14,588,14.0,0.0
4394,70.0,0,569,2.0,0.0
4395,58.0,10,546,4.0,0.0
4396,46.0,37,317,6.0,0.0
4397,71.0,6,624,2.0,0.0
4398,59.0,198,413,4.0,0.0
4399,78.0,2,350,14.0,0.0
4400,75.0,29,312,14.0,0.0
4401,90.0,0,301,12.0,0.0
4402,87.0,3,298,12.0,0.0
4403,47.0,27,331,6.0,0.0
4404,66.0,20,357,15.0,0.0
4405,63.0,6,341,15.0,0.0
4406,77.0,1,346,14.0,0.0
4407,44.0,2,316,6.0,0.0
4408,74.0,11,296,14.0,0.0
4409,65.0,4,336,3.0,0.0
4410,89.0,165,346,12.0,0.0
4411,56.0,8,335,4.0,0.0
4412,86.0,11,302,12.0,0.0
4413,65.0,3,309,15.0,0.0
4414,62.0,6,301,15.0,0.0
4415,72.0,14,334,2.0,0.0
4416,45.0,3,321,6.0,0.0
4417,84.0,49,261,12.0,0.0
4418,64.0,249,391,3.0,0.0
4419,76.0,9,363,14.0,0.0
4420,88.0,1,320,12.0,0.0
4421,57.0,8,696,4.0,0.0
4422,64.0,17,363,15.0,0.0
4423,60.0,36,196,15.0,0.0
4424,72.0,4,279,14.0,0.0
4425,76.0,278,485,2.0,0.0
4426,84.0,18,365,12.0,0.0
4427,81.0,41,319,12.0,0.0
4428,57.0,2,398,15.0,0.0
4429,60.0,0,3,15.0,0.0
4430,60.0,40,2,3.0,0.0
4431,45.0,10,394,5.0,0.0
4432,33.0,2,365,6.0,0.0
4433,72.0,31,389,14.0,0.0
4434,69.0,11,360,14.0,0.0
4435,64.0,408,658,7.0,0.0
4436,83.0,680,1094,12.0,0.0
4437,79.0,76,949,12.0,0.0
4438,59.0,24,1069,4.0,0.0
4439,59.0,142,778,15.0,0.0
4440,71.0,22,2161,14.0,0.0
4441,35.0,13,2140,6.0,0.0
4442,47.0,6,2150,5.0,0.0
4443,55.0,26,997,3.0,0.0
4444,64.0,11,977,2.0,0.0
4445,67.0,7,962,14.0,0.0
4446,59.0,11,2012,7.0,0.0
4447,63.0,5,1257,2.0,0.0
4448,54.0,33,1241,4.0,0.0
4449,57.0,22,1153,3.0,0.0
4450,63.0,189,1293,14.0,0.0
4451,79.0,41,758,12.0,0.0
4452,71.0,325,774,12.0,0.0
4453,47.0,41,1216,7.0,0.0
4454,78.0,2,437,12.0,0.0
4455,69.0,9,427,12.0,0.0
4456,76.0,14,389,12.0,0.0
4457,52.0,10,371,4.0,0.0
4458,67.0,6,387,12.0,0.0
4459,52.0,3,564,5.0,0.0
4460,64.0,122,566,2.0,0.0
4461,40.0,90,1836,6.0,0.0
4462,55.0,55,487,3.0,0.0
4463,64.0,53,369,14.0,0.0
4464,52.0,65,384,7.0,0.0
4465,63.0,12,210,2.0,0.0
4466,54.0,163,205,5.0,0.0
4467,55.0,10,189,5.0,0.0
4468,64.0,128,197,2.0,0.0
4469,67.0,40,181,2.0,0.0
4470,64.0,104,191,5.0,0.0
4471,71.0,120,500,2.0,0.0
4472,68.0,42,135,3.0,0.0
4473,62.0,253,159,5.0,0.0
4474,68.0,32,128,3.0,0.0
4475,62.0,29,110,5.0,0.0
4476,70.0,99,169,2.0,0.0
4477,71.0,52,183,2.0,0.0
4478,68.0,34,106,3.0,0.0
4479,71.0,25,607,4.0,0.0
4480,62.0,38,110,5.0,0.0
4481,77.0,315,190,2.0,0.0
4482,76.0,143,528,2.0,0.0
4483,68.0,128,392,3.0,0.0
4484,62.0,37,333,5.0,0.0
4485,40.0,38,2251,6.0,0.0
4486,69.0,1,344,4.0,0.0
4487,69.0,10,1199,3.0,0.0
4488,60.0,158,319,5.0,0.0
4489,75.0,8,172,2.0,0.0
4490,76.0,136,181,2.0,0.0
4491,81.0,197,156,2.0,0.0
4492,75.0,220,180,2.0,0.0
4493,84.0,9,365,12.0,0.0
4494,75.0,27,196,2.0,0.0
4495,83.0,150,218,12.0,0.0
4496,60.0,123,41,5.0,0.0
4497,81.0,63,191,12.0,0.0
4498,60.0,85,113,5.0,0.0
4499,75.0,145,197,2.0,0.0
4500,69.0,167,367,3.0,0.0
4501,79.0,1,181,12.0,0.0
4502,78.0,27,182,12.0,0.0
4503,59.0,52,369,5.0,0.0
4504,79.0,9,215,12.0,0.0
4505,76.0,10,190,2.0,0.0
4506,67.0,74,208,3.0,0.0
4507,81.0,32,239,12.0,0.0
4508,69.0,71,263,3.0,0.0
4509,78.0,15,161,2.0,0.0
4510,57.0,107,175,5.0,0.0
4511,79.0,7,275,2.0,0.0
4512,83.0,47,304,12.0,0.0
4513,71.0,32,264,3.0,0.0
4514,55.0,130,213,5.0,0.0
4515,54.0,199,165,5.0,0.0
4516,71.0,20,495,2.0,0.0
4517,64.0,89,405,15.0,0.0
4518,67.0,23,329,3.0,0.0
4519,52.0,38,223,5.0,0.0
4520,68.0,160,191,3.0,0.0
4521,50.0,160,1048,5.0,0.0
4522,65.0,154,388,15.0,0.0
4523,72.0,30,181,2.0,0.0
4524,69.0,23,197,3.0,0.0
4525,74.0,155,363,2.0,0.0
4526,64.0,127,212,15.0,0.0
4527,71.0,6,327,3.0,0.0
4528,62.0,15,192,15.0,0.0
4529,60.0,14,199,15.0,0.0
4530,69.0,139,198,3.0,0.0
4531,77.0,14,364,2.0,0.0
4532,59.0,12,191,15.0,0.0
4533,68.0,23,178,3.0,0.0
4534,60.0,22,228,15.0,0.0
4535,76.0,42,379,2.0,0.0
4536,69.0,108,769,3.0,0.0
4537,48.0,165,198,5.0,0.0
4538,62.0,2,235,15.0,0.0
4539,47.0,151,246,5.0,0.0
4540,64.0,42,364,15.0,0.0
4541,74.0,52,197,2.0,0.0
4542,45.0,11,383,6.0,0.0
4543,45.0,71,238,5.0,0.0
4544,72.0,24,204,2.0,0.0
4545,71.0,196,182,2.0,0.0
4546,48.0,22,438,6.0,0.0
4547,48.0,103,425,5.0,0.0
4548,57.0,320,518,4.0,0.0
4549,64.0,71,815,3.0,0.0
4550,69.0,65,202,2.0,0.0
4551,71.0,30,598,2.0,0.0
4552,47.0,71,1095,6.0,0.0
4553,54.0,96,599,4.0,0.0
4554,47.0,2,1061,5.0,0.0
4555,63.0,97,791,3.0,0.0
4556,69.0,198,175,2.0,0.0
4557,60.0,12,30,4.0,0.0
4558,67.0,135,231,2.0,0.0
4559,59.0,39,144,4.0,0.0
4560,66.0,15,253,2.0,0.0
4561,57.0,408,354,4.0,0.0
4562,52.0,132,614,6.0,0.0
4563,52.0,31,566,5.0,0.0
4564,64.0,441,1205,2.0,0.0
4565,55.0,1,1139,4.0,0.0
4566,50.0,16,205,5.0,0.0
4567,50.0,155,189,6.0,0.0
4568,48.0,19,208,5.0,0.0
4569,48.0,183,199,6.0,0.0
4570,47.0,29,240,5.0,0.0
4571,47.0,80,250,6.0,0.0
4572,45.0,57,832,5.0,0.0
4573,45.0,32,768,6.0,0.0
4574,54.0,13,832,4.0,0.0
4575,60.0,222,460,3.0,0.0
4576,69.0,297,501,2.0,0.0
4577,47.0,53,484,6.0,0.0
4578,47.0,37,416,5.0,0.0
4579,66.0,20,504,2.0,0.0
4580,57.0,455,495,4.0,0.0
4581,63.0,12,400,3.0,0.0
4582,64.0,23,1165,3.0,0.0
4583,48.0,6,557,6.0,0.0
4584,55.0,353,1163,4.0,0.0
4585,48.0,133,542,5.0,0.0
4586,64.0,285,1572,2.0,0.0
4587,47.0,16,178,5.0,0.0
4588,47.0,190,190,6.0,0.0
4589,45.0,54,209,5.0,0.0
4590,45.0,181,246,6.0,0.0
4591,43.0,2,293,5.0,0.0
4592,43.0,4,224,6.0,0.0
4593,42.0,30,822,6.0,0.0
4594,60.0,82,423,3.0,0.0
4595,57.0,22,1185,4.0,0.0
4596,42.0,29,775,5.0,0.0
4597,69.0,237,457,2.0,0.0
4598,63.0,9,440,3.0,0.0
4599,47.0,99,327,6.0,0.0
4600,47.0,111,447,5.0,0.0
4601,66.0,586,528,2.0,0.0
4602,64.0,324,2201,3.0,0.0
4603,55.0,376,1294,4.0,0.0
4604,52.0,459,712,5.0,0.0
4605,40.0,68,1180,6.0,0.0
4606,64.0,16,1087,2.0,0.0
4607,55.0,325,862,5.0,0.0
4608,57.0,1356,2730,4.0,0.0
4609,69.0,1129,1356,2.0,0.0
4610,33.0,77,1277,6.0,0.0
4611,54.0,188,408,5.0,0.0
4612,60.0,156,1700,5.0,0.0
4613,35.0,85,2860,6.0,0.0
4614,66.0,47,1356,2.0,0.0
4615,63.0,23,2903,3.0,0.0
4616,59.0,38,1567,5.0,0.0
4617,67.0,26,1467,2.0,0.0
4618,59.0,8,1771,4.0,0.0
4619,76.0,10,235,0.0,0.0
4620,71.0,123,257,0.0,0.0
4621,52.0,3,55,0.0,0.0
4622,64.0,9,242,0.0,0.0
4623,40.0,2,56,0.0,0.0
4624,67.0,5,249,0.0,0.0
4625,64.0,2,365,2.0,0.0
4626,55.0,8,355,5.0,0.0
4627,40.0,35,320,6.0,0.0
4628,64.0,99,363,3.0,0.0
4629,55.0,26,291,4.0,0.0
4630,75.0,167,41,0.0,0.0
4631,63.0,9,29,0.0,0.0
4632,51.0,2,35,0.0,0.0
4633,39.0,0,33,0.0,0.0
4634,76.0,194,43,0.0,0.0
4635,64.0,3,33,0.0,0.0
4636,40.0,5,34,0.0,0.0
4637,52.0,1,33,0.0,0.0
4638,43.0,7,34,0.0,0.0
4639,79.0,48,37,0.0,0.0
4640,67.0,0,28,0.0,0.0
4641,55.0,3,19,0.0,0.0
4642,71.0,2,16,0.0,0.0
4643,83.0,3,16,0.0,0.0
4644,59.0,1,18,0.0,0.0
4645,47.0,228,15,0.0,0.0
4646,51.0,71,61,0.0,0.0
4647,57.0,15,105,0.0,0.0
4648,59.0,6,97,0.0,0.0
4649,51.0,3,55,5.0,0.0
4650,57.0,1,44,4.0,0.0
4651,71.0,2,36,2.0,0.0
4652,66.0,4,35,3.0,0.0
4653,71.0,5,49,0.0,0.0
4654,83.0,2,59,0.0,0.0
4655,78.0,169,61,0.0,0.0
4656,66.0,2,40,0.0,0.0
4657,55.0,105,75,0.0,0.0
4658,52.0,18,55,0.0,0.0
4659,59.0,1,68,0.0,0.0
4660,71.0,5,39,0.0,0.0
4661,67.0,6,28,0.0,0.0
4662,71.0,9,41,2.0,0.0
4663,52.0,359,65,5.0,0.0
4664,64.0,0,47,3.0,0.0
4665,76.0,4,31,0.0,0.0
4666,79.0,2,43,0.0,0.0
4667,83.0,8,41,0.0,0.0
4668,55.0,6,48,4.0,0.0
4669,47.0,10,1035,0.0,0.0
4670,40.0,8,1025,0.0,0.0
4671,76.0,2,74,2.0,0.0
4672,59.0,31,40,4.0,0.0
4673,40.0,20,35,5.0,0.0
4674,67.0,251,53,3.0,0.0
4675,51.0,94,133,0.0,0.0
4676,52.0,65,92,0.0,0.0
4677,55.0,41,67,0.0,0.0
4678,59.0,93,37,0.0,0.0
4679,64.0,56,46,0.0,0.0
4680,67.0,26,50,0.0,0.0
4681,71.0,95,18,0.0,0.0
4682,76.0,45,55,0.0,0.0
4683,79.0,18,46,0.0,0.0
4684,83.0,80,25,0.0,0.0
4685,88.0,52,47,0.0,0.0
4686,100.0,834,52,0.0,0.0
4687,83.0,64,166,0.0,0.0
4688,91.0,22,133,0.0,0.0
4689,95.0,3,95,0.0,0.0
4690,86.0,77,93,0.0,0.0
4691,93.0,15,74,0.0,0.0
4692,84.0,65,79,0.0,0.0
4693,90.0,9,79,0.0,0.0
4694,81.0,59,76,0.0,0.0
4695,79.0,77,83,0.0,0.0
4696,88.0,16,58,0.0,0.0
4697,91.0,44,88,0.0,0.0
4698,83.0,9,77,0.0,0.0
4699,90.0,9,59,0.0,0.0
4700,81.0,49,63,0.0,0.0
4701,78.0,50,73,0.0,0.0
4702,86.0,13,51,0.0,0.0
4703,76.0,65,62,0.0,0.0
4704,84.0,10,45,0.0,0.0
4705,88.0,12,68,0.0,0.0
4706,79.0,31,64,0.0,0.0
4707,86.0,30,51,0.0,0.0
4708,78.0,44,73,0.0,0.0
4709,83.0,20,68,0.0,0.0
4710,74.0,33,70,0.0,0.0
4711,72.0,50,62,0.0,0.0
4712,81.0,14,45,0.0,0.0
4713,84.0,7,57,0.0,0.0
4714,76.0,41,53,0.0,0.0
4715,83.0,13,51,0.0,0.0
4716,74.0,37,63,0.0,0.0
4717,79.0,28,45,0.0,0.0
4718,71.0,35,72,0.0,0.0
4719,69.0,61,64,0.0,0.0
4720,78.0,3,53,0.0,0.0
4721,81.0,40,69,0.0,0.0
4722,72.0,7,58,0.0,0.0
4723,71.0,40,73,0.0,0.0
4724,79.0,13,57,0.0,0.0
4725,76.0,17,58,0.0,0.0
4726,67.0,42,67,0.0,0.0
4727,66.0,48,73,0.0,0.0
4728,75.0,21,51,0.0,0.0
4729,78.0,23,75,0.0,0.0
4730,69.0,38,77,0.0,0.0
4731,76.0,5,63,0.0,0.0
4732,67.0,56,56,0.0,0.0
4733,72.0,20,68,0.0,0.0
4734,64.0,39,82,0.0,0.0
4735,71.0,6,61,0.0,0.0
4736,62.0,79,65,0.0,0.0
4737,74.0,42,106,0.0,0.0
4738,65.0,19,79,0.0,0.0
4739,64.0,12,119,0.0,0.0
4740,72.0,40,70,0.0,0.0
4741,60.0,8,46,0.0,0.0
4742,69.0,250,64,0.0,0.0
4743,69.0,278,203,0.0,0.0
4744,62.0,19,2220,0.0,0.0
4745,65.0,537,1674,0.0,0.0
4746,59.0,31,719,0.0,0.0
4747,68.0,61,103,0.0,0.0
4748,69.0,48,47,0.0,0.0
4749,68.0,49,42,0.0,0.0
4750,69.0,29,47,0.0,0.0
4751,68.0,58,42,0.0,0.0
4752,69.0,22,47,0.0,0.0
4753,68.0,65,59,0.0,0.0
4754,66.0,273,63,0.0,0.0
4755,68.0,100,296,0.0,0.0
4756,57.0,5,277,0.0,0.0
4757,69.0,466,92,0.0,0.0
4758,71.0,5,1040,0.0,0.0
4759,56.0,609,1032,0.0,0.0
4760,64.0,9,470,0.0,0.0
4761,69.0,343,194,0.0,0.0
4762,57.0,0,181,0.0,0.0
4763,45.0,4,177,0.0,0.0
4764,33.0,7,179,0.0,0.0
4765,68.0,3,43,0.0,0.0
4766,56.0,6,34,0.0,0.0
4767,44.0,2,35,0.0,0.0
4768,32.0,166,35,0.0,0.0
4769,57.0,2,33,0.0,0.0
4770,69.0,3,33,0.0,0.0
4771,45.0,188,34,0.0,0.0
4772,33.0,0,30,0.0,0.0
4773,36.0,3,30,0.0,0.0
4774,72.0,49,36,0.0,0.0
4775,60.0,5,21,0.0,0.0
4776,48.0,5,28,0.0,0.0
4777,66.0,9,16,0.0,0.0
4778,78.0,3,13,0.0,0.0
4779,42.0,235,23,0.0,0.0
4780,54.0,6,16,0.0,0.0
4781,51.0,42,63,0.0,0.0
4782,57.0,1,85,0.0,0.0
4783,69.0,4,38,3.0,0.0
4784,60.0,2,57,0.0,0.0
4785,60.0,3,26,4.0,0.0
4786,66.0,10,39,0.0,0.0
4787,51.0,5,26,5.0,0.0
4788,78.0,2,30,2.0,0.0
4789,69.0,5,40,0.0,0.0
4790,72.0,7,35,0.0,0.0
4791,63.0,11,33,0.0,0.0
4792,78.0,186,38,0.0,0.0
4793,52.0,49,55,0.0,0.0
4794,57.0,6,92,0.0,0.0
4795,60.0,14,72,0.0,0.0
4796,66.0,2,35,0.0,0.0
4797,64.0,9,37,0.0,0.0
4798,69.0,18,38,0.0,0.0
4799,76.0,0,40,0.0,0.0
4800,52.0,0,31,5.0,0.0
4801,69.0,3,37,3.0,0.0
4802,60.0,7,29,4.0,0.0
4803,76.0,2,34,2.0,0.0
4804,78.0,224,30,0.0,0.0
4805,54.0,1,87,0.0,0.0
4806,57.0,24,72,0.0,0.0
4807,60.0,25,62,0.0,0.0
4808,63.0,17,49,0.0,0.0
4809,69.0,9,48,0.0,0.0
4810,54.0,6,25,5.0,0.0
4811,75.0,10,29,2.0,0.0
4812,69.0,6,30,3.0,0.0
4813,60.0,13,29,4.0,0.0
4814,72.0,9,42,0.0,0.0
4815,75.0,17,31,0.0,0.0
4816,81.0,6,33,0.0,0.0
4817,66.0,431,29,0.0,0.0
4818,44.0,60,159,0.0,0.0
4819,45.0,40,83,0.0,0.0
4820,48.0,58,49,0.0,0.0
4821,51.0,23,42,0.0,0.0
4822,54.0,58,32,0.0,0.0
4823,57.0,51,23,0.0,0.0
4824,60.0,32,43,0.0,0.0
4825,63.0,11,39,0.0,0.0
4826,66.0,74,17,0.0,0.0
4827,69.0,34,43,0.0,0.0
4828,72.0,24,47,0.0,0.0
4829,75.0,14,37,0.0,0.0
4830,78.0,70,28,0.0,0.0
4831,81.0,249,50,0.0,0.0
4832,93.0,649,228,0.0,0.0
4833,93.0,0,143,0.0,0.0
4834,84.0,96,136,0.0,0.0
4835,88.0,29,108,0.0,0.0
4836,96.0,50,124,0.0,0.0
4837,86.0,77,94,0.0,0.0
4838,95.0,9,76,0.0,0.0
4839,91.0,11,90,0.0,0.0
4840,83.0,25,98,0.0,0.0
4841,81.0,60,78,0.0,0.0
4842,90.0,28,49,0.0,0.0
4843,93.0,40,89,0.0,0.0
4844,84.0,17,64,0.0,0.0
4845,83.0,40,78,0.0,0.0
4846,91.0,10,68,0.0,0.0
4847,88.0,38,57,0.0,0.0
4848,79.0,19,92,0.0,0.0
4849,87.0,25,59,0.0,0.0
4850,78.0,42,68,0.0,0.0
4851,90.0,7,65,0.0,0.0
4852,81.0,41,60,0.0,0.0
4853,88.0,8,55,0.0,0.0
4854,79.0,41,60,0.0,0.0
4855,84.0,27,58,0.0,0.0
4856,76.0,30,76,0.0,0.0
4857,83.0,4,54,0.0,0.0
4858,74.0,57,56,0.0,0.0
4859,77.0,25,57,0.0,0.0
4860,86.0,32,81,0.0,0.0
4861,76.0,51,75,0.0,0.0
4862,84.0,11,50,0.0,0.0
4863,72.0,43,81,0.0,0.0
4864,81.0,20,61,0.0,0.0
4865,71.0,59,72,0.0,0.0
4866,79.0,1,59,0.0,0.0
4867,83.0,59,71,0.0,0.0
4868,74.0,8,62,0.0,0.0
4869,72.0,62,77,0.0,0.0
4870,81.0,1,62,0.0,0.0
4871,69.0,52,90,0.0,0.0
4872,78.0,21,68,0.0,0.0
4873,67.0,1,78,0.0,0.0
4874,76.0,78,68,0.0,0.0
4875,71.0,61,87,0.0,0.0
4876,79.0,1,81,0.0,0.0
4877,78.0,10,71,0.0,0.0
4878,69.0,71,77,0.0,0.0
4879,66.0,87,119,0.0,0.0
4880,75.0,31,83,0.0,0.0
4881,72.0,54,136,0.0,0.0
4882,64.0,20,110,0.0,0.0
4883,66.0,76,463,3.0,0.0
4884,69.0,3,406,2.0,0.0
4885,59.0,89,513,5.0,0.0
4886,78.0,90,95,0.0,0.0
4887,69.0,36,205,0.0,0.0
4888,71.0,9,87,0.0,0.0
4889,63.0,21,79,0.0,0.0
4890,83.0,78,55,0.0,0.0
4891,59.0,53,124,0.0,0.0
4892,67.0,1,547,2.0,0.0
4893,64.0,42,1008,3.0,0.0
4894,64.0,78,513,5.0,0.0
4895,76.0,7,226,0.0,0.0
4896,71.0,35,186,0.0,0.0
4897,64.0,245,240,0.0,0.0
4898,67.0,14,224,0.0,0.0
4899,69.0,33,269,0.0,0.0
4900,76.0,9,125,0.0,0.0
4901,72.0,75,293,0.0,0.0
4902,57.0,13,364,0.0,0.0
4903,72.0,33,430,2.0,0.0
4904,57.0,122,425,5.0,0.0
4905,78.0,51,115,0.0,0.0
4906,76.0,1,105,0.0,0.0
4907,75.0,54,119,0.0,0.0
4908,59.0,6,655,5.0,0.0
4909,76.0,108,363,0.0,0.0
4910,63.0,11,251,0.0,0.0
4911,63.0,273,653,3.0,0.0
4912,71.0,30,614,2.0,0.0
4913,59.0,97,254,0.0,0.0
4914,71.0,11,186,0.0,0.0
4915,69.0,2,56,0.0,0.0
4916,78.0,152,58,0.0,0.0
4917,67.0,324,625,2.0,0.0
4918,64.0,10,610,3.0,0.0
4919,52.0,266,917,5.0,0.0
4920,79.0,25,368,0.0,0.0
4921,52.0,7,319,0.0,0.0
4922,67.0,177,384,0.0,0.0
4923,64.0,34,325,0.0,0.0
4924,47.0,218,340,5.0,0.0
4925,43.0,190,275,5.0,0.0
4926,42.0,136,233,5.0,0.0
4927,40.0,177,199,5.0,0.0
4928,40.0,74,85,0.0,0.0
4929,40.0,120,313,6.0,0.0
4930,59.0,10,81,0.0,0.0
4931,55.0,5,82,0.0,0.0
4932,64.0,239,82,0.0,0.0
4933,59.0,14,82,0.0,0.0
4934,55.0,184,93,0.0,0.0
4935,64.0,2,76,0.0,0.0
4936,59.0,9,88,0.0,0.0
4937,55.0,160,92,0.0,0.0
4938,64.0,5,74,0.0,0.0
4939,83.0,72,163,0.0,0.0
4940,59.0,4,115,0.0,0.0
4941,55.0,79,116,0.0,0.0
4942,64.0,2,108,0.0,0.0
4943,79.0,72,193,0.0,0.0
4944,59.0,12,75,0.0,0.0
4945,55.0,75,86,0.0,0.0
4946,64.0,3,70,0.0,0.0
4947,81.0,103,74,0.0,0.0
4948,59.0,2,100,0.0,0.0
4949,64.0,8,99,0.0,0.0
4950,55.0,162,104,0.0,0.0
4951,83.0,42,372,0.0,0.0
4952,64.0,6,89,0.0,0.0
4953,59.0,7,93,0.0,0.0
4954,55.0,104,100,0.0,0.0
4955,59.0,1,85,0.0,0.0
4956,64.0,5,84,0.0,0.0
4957,55.0,181,84,0.0,0.0
4958,59.0,3,110,0.0,0.0
4959,64.0,111,112,0.0,0.0
4960,88.0,67,218,0.0,0.0
4961,55.0,0,102,0.0,0.0
4962,59.0,1,99,0.0,0.0
4963,64.0,8,98,0.0,0.0
4964,90.0,72,196,0.0,0.0
4965,55.0,92,102,0.0,0.0
4966,91.0,69,199,0.0,0.0
4967,59.0,7,105,0.0,0.0
4968,64.0,4,100,0.0,0.0
4969,55.0,81,108,0.0,0.0
4970,90.0,59,196,0.0,0.0
4971,59.0,7,98,0.0,0.0
4972,55.0,84,102,0.0,0.0
4973,64.0,4,89,0.0,0.0
4974,55.0,164,777,3.0,0.0
4975,64.0,79,4662,2.0,0.0
4976,88.0,56,198,0.0,0.0
4977,64.0,4,89,0.0,0.0
4978,59.0,0,89,0.0,0.0
4979,55.0,100,90,0.0,0.0
4980,83.0,95,156,0.0,0.0
4981,59.0,6,93,0.0,0.0
4982,64.0,3,87,0.0,0.0
4983,55.0,52,94,0.0,0.0
4984,59.0,1,86,0.0,0.0
4985,64.0,8,86,0.0,0.0
4986,55.0,14,92,0.0,0.0
4987,84.0,117,80,0.0,0.0
4988,86.0,52,134,0.0,0.0
4989,59.0,9,111,0.0,0.0
4990,64.0,20,121,0.0,0.0
4991,55.0,3,117,0.0,0.0
4992,84.0,72,357,0.0,0.0
4993,59.0,137,505,3.0,0.0
4994,43.0,24,464,5.0,0.0
4995,59.0,18,69,0.0,0.0
4996,55.0,8,59,0.0,0.0
4997,64.0,33,79,0.0,0.0
4998,83.0,56,95,0.0,0.0
4999,57.0,126,4770,3.0,0.0
5000,42.0,33,604,5.0,0.0
5001,83.0,41,459,0.0,0.0
5002,57.0,3,169,0.0,0.0
5003,54.0,64,1123,0.0,0.0
5004,60.0,5,159,0.0,0.0
5005,64.0,135,149,0.0,0.0
5006,64.0,2,82,0.0,0.0
5007,60.0,5,59,0.0,0.0
5008,57.0,137,65,0.0,0.0
5009,64.0,5,85,0.0,0.0
5010,57.0,87,88,0.0,0.0
5011,81.0,41,208,0.0,0.0
5012,60.0,6,74,0.0,0.0
5013,41.0,5,258,5.0,0.0
5014,64.0,1,74,0.0,0.0
5015,60.0,16,61,0.0,0.0
5016,57.0,150,74,0.0,0.0
5017,57.0,138,80,0.0,0.0
5018,64.0,5,62,0.0,0.0
5019,60.0,2,65,0.0,0.0
5020,42.0,77,173,5.0,0.0
5021,45.0,111,242,5.0,0.0
5022,64.0,1,102,0.0,0.0
5023,60.0,6,100,0.0,0.0
5024,57.0,62,100,0.0,0.0
5025,42.0,51,533,0.0,0.0
5026,54.0,287,108,5.0,0.0
5027,64.0,83,138,0.0,0.0
5028,57.0,6,132,0.0,0.0
5029,60.0,2,128,0.0,0.0
5030,54.0,31,33,5.0,0.0
5031,64.0,4,75,0.0,0.0
5032,60.0,2,66,0.0,0.0
5033,57.0,172,63,0.0,0.0
5034,60.0,5,74,0.0,0.0
5035,64.0,3,78,0.0,0.0
5036,57.0,165,76,0.0,0.0
5037,84.0,27,125,0.0,0.0
5038,54.0,3,37,5.0,0.0
5039,60.0,53,45,0.0,0.0
5040,64.0,3,98,0.0,0.0
5041,81.0,97,143,0.0,0.0
5042,57.0,43,97,0.0,0.0
5043,57.0,83,71,0.0,0.0
5044,64.0,12,58,0.0,0.0
5045,60.0,3,54,0.0,0.0
5046,83.0,130,71,0.0,0.0
5047,57.0,114,146,0.0,0.0
5048,84.0,90,316,0.0,0.0
5049,60.0,0,134,0.0,0.0
5050,64.0,5,134,0.0,0.0
5051,54.0,116,895,0.0,0.0
5052,54.0,23,67,5.0,0.0
5053,64.0,8,74,0.0,0.0
5054,57.0,2,80,0.0,0.0
5055,60.0,51,78,0.0,0.0
5056,57.0,1,83,0.0,0.0
5057,64.0,0,81,0.0,0.0
5058,60.0,138,78,0.0,0.0
5059,64.0,7,71,0.0,0.0
5060,90.0,53,225,0.0,0.0
5061,57.0,148,74,0.0,0.0
5062,60.0,3,56,0.0,0.0
5063,57.0,0,104,0.0,0.0
5064,64.0,117,99,0.0,0.0
5065,60.0,1,95,0.0,0.0
5066,91.0,1,219,0.0,0.0
5067,64.0,15,43,0.0,0.0
5068,57.0,20,57,0.0,0.0
5069,93.0,59,192,0.0,0.0
5070,60.0,2,36,0.0,0.0
5071,63.0,15,1217,2.0,0.0
5072,47.0,39,1211,5.0,0.0
5073,47.0,49,112,0.0,0.0
5074,93.0,74,146,0.0,0.0
5075,87.0,90,60,0.0,0.0
5076,88.0,66,80,0.0,0.0
5077,63.0,10,57,0.0,0.0
5078,54.0,9,61,0.0,0.0
5079,57.0,2,68,0.0,0.0
5080,91.0,40,65,0.0,0.0
5081,90.0,58,54,0.0,0.0
5082,63.0,10,59,0.0,0.0
5083,54.0,40,71,0.0,0.0
5084,57.0,2,64,0.0,0.0
5085,88.0,2,60,0.0,0.0
5086,87.0,57,45,0.0,0.0
5087,84.0,38,50,0.0,0.0
5088,83.0,22,41,0.0,0.0
5089,63.0,8,55,0.0,0.0
5090,54.0,2,60,0.0,0.0
5091,57.0,19,54,0.0,0.0
5092,81.0,46,42,0.0,0.0
5093,79.0,41,43,0.0,0.0
5094,78.0,44,36,0.0,0.0
5095,63.0,8,54,0.0,0.0
5096,54.0,4,60,0.0,0.0
5097,57.0,25,57,0.0,0.0
5098,76.0,1,32,0.0,0.0
5099,75.0,68,28,0.0,0.0
5100,72.0,30,49,0.0,0.0
5101,71.0,20,39,0.0,0.0
5102,63.0,14,49,0.0,0.0
5103,57.0,8,59,0.0,0.0
5104,54.0,3,66,0.0,0.0
5105,69.0,47,43,0.0,0.0
5106,71.0,39,46,0.0,0.0
5107,69.0,46,49,0.0,0.0
5108,67.0,29,52,0.0,0.0
5109,64.0,64,483,2.0,0.0
5110,69.0,1,58,0.0,0.0
5111,52.0,173,701,0.0,0.0
5112,52.0,43,396,5.0,0.0
5113,55.0,1,489,3.0,0.0
5114,71.0,112,169,0.0,0.0
5115,64.0,4,87,0.0,0.0
5116,55.0,1,89,0.0,0.0
5117,59.0,67,88,0.0,0.0
5118,69.0,22,66,0.0,0.0
5119,67.0,5,50,0.0,0.0
5120,59.0,1,87,0.0,0.0
5121,55.0,1,85,0.0,0.0
5122,67.0,144,99,0.0,0.0
5123,64.0,14,81,0.0,0.0
5124,59.0,1,68,0.0,0.0
5125,55.0,3,75,0.0,0.0
5126,64.0,7,66,0.0,0.0
5127,64.0,6,89,0.0,0.0
5128,59.0,1,82,0.0,0.0
5129,55.0,270,83,0.0,0.0
5130,67.0,27,486,14.0,0.0
5131,71.0,310,512,14.0,0.0
5132,76.0,137,822,0.0,0.0
5133,59.0,159,75,0.0,0.0
5134,55.0,1,71,0.0,0.0
5135,64.0,2,66,0.0,0.0
5136,72.0,112,1832,14.0,0.0
5137,69.0,22,1806,14.0,0.0
5138,54.0,36,773,5.0,0.0
5139,54.0,140,827,0.0,0.0
5140,60.0,8,81,0.0,0.0
5141,57.0,7,83,0.0,0.0
5142,75.0,3,310,0.0,0.0
5143,60.0,21,53,0.0,0.0
5144,57.0,236,70,0.0,0.0
5145,60.0,26,150,0.0,0.0
5146,57.0,19,212,0.0,0.0
5147,52.0,284,393,5.0,0.0
5148,52.0,54,269,0.0,0.0
5149,76.0,58,308,0.0,0.0
5150,57.0,9,219,0.0,0.0
5151,60.0,44,60,0.0,0.0
5152,51.0,0,753,5.0,0.0
5153,51.0,45,652,0.0,0.0
5154,79.0,77,334,0.0,0.0
5155,57.0,1,80,0.0,0.0
5156,60.0,28,72,0.0,0.0
5157,57.0,150,61,0.0,0.0
5158,60.0,17,41,0.0,0.0
5159,78.0,48,83,0.0,0.0
5160,57.0,2,169,0.0,0.0
5161,60.0,15,57,0.0,0.0
5162,52.0,190,481,0.0,0.0
5163,52.0,3,425,5.0,0.0
5164,76.0,65,145,0.0,0.0
5165,74.0,43,90,0.0,0.0
5166,72.0,10,57,0.0,0.0
5167,57.0,10,77,0.0,0.0
5168,60.0,11,66,0.0,0.0
5169,71.0,55,43,0.0,0.0
5170,69.0,42,55,0.0,0.0
5171,67.0,39,50,0.0,0.0
5172,66.0,45,42,0.0,0.0
5173,54.0,66,764,5.0,0.0
5174,54.0,14,620,0.0,0.0
5175,64.0,109,276,0.0,0.0
5176,57.0,27,64,0.0,0.0
5177,60.0,18,46,0.0,0.0
5178,63.0,35,102,0.0,0.0
5179,60.0,14,43,0.0,0.0
5180,57.0,37,54,0.0,0.0
5181,66.0,72,34,0.0,0.0
5182,69.0,19,49,0.0,0.0
5183,57.0,64,131,0.0,0.0
5184,60.0,28,53,0.0,0.0
5185,72.0,27,40,0.0,0.0
5186,75.0,1,47,0.0,0.0
5187,78.0,28,56,0.0,0.0
5188,51.0,249,552,5.0,0.0
5189,66.0,5,483,3.0,0.0
5190,51.0,65,70,0.0,0.0
5191,81.0,173,131,0.0,0.0
5192,71.0,75,1957,2.0,0.0
5193,66.0,5,63,0.0,0.0
5194,59.0,165,54,0.0,0.0
5195,83.0,20,135,0.0,0.0
5196,67.0,126,774,3.0,0.0
5197,52.0,103,627,0.0,0.0
5198,52.0,39,724,5.0,0.0
5199,81.0,38,387,0.0,0.0
5200,59.0,7,61,0.0,0.0
5201,64.0,17,64,0.0,0.0
5202,55.0,101,77,0.0,0.0
5203,79.0,46,137,0.0,0.0
5204,59.0,6,47,0.0,0.0
5205,55.0,60,65,0.0,0.0
5206,64.0,15,42,0.0,0.0
5207,64.0,7,33,0.0,0.0
5208,59.0,52,39,0.0,0.0
5209,78.0,67,528,0.0,0.0
5210,50.0,12,265,0.0,0.0
5211,66.0,44,342,3.0,0.0
5212,50.0,82,372,5.0,0.0
5213,59.0,58,54,0.0,0.0
5214,54.0,71,120,0.0,0.0
5215,48.0,44,165,0.0,0.0
5216,64.0,11,1146,3.0,0.0
5217,48.0,14,1178,5.0,0.0
5218,54.0,19,58,0.0,0.0
5219,64.0,3,49,0.0,0.0
5220,76.0,52,45,0.0,0.0
5221,78.0,74,46,0.0,0.0
5222,76.0,49,79,0.0,0.0
5223,54.0,3,76,0.0,0.0
5224,64.0,22,75,0.0,0.0
5225,75.0,30,169,0.0,0.0
5226,70.0,19,771,2.0,0.0
5227,76.0,138,206,0.0,0.0
5228,54.0,23,50,0.0,0.0
5229,64.0,120,70,0.0,0.0
5230,54.0,17,209,0.0,0.0
5231,58.0,5,187,0.0,0.0
5232,64.0,2,177,0.0,0.0
5233,79.0,84,169,0.0,0.0
5234,58.0,4,48,0.0,0.0
5235,64.0,11,35,0.0,0.0
5236,54.0,153,43,0.0,0.0
5237,78.0,23,121,0.0,0.0
5238,71.0,5,201,2.0,0.0
5239,63.0,198,405,3.0,0.0
5240,47.0,118,76,0.0,0.0
5241,75.0,113,181,0.0,0.0
5242,47.0,42,1360,5.0,0.0
5243,59.0,17,68,0.0,0.0
5244,63.0,3,63,0.0,0.0
5245,54.0,70,78,0.0,0.0
5246,68.0,240,978,2.0,0.0
5247,65.0,48,535,3.0,0.0
5248,47.0,14,123,0.0,0.0
5249,74.0,105,135,0.0,0.0
5250,76.0,56,103,0.0,0.0
5251,74.0,6,88,0.0,0.0
5252,62.0,15,67,0.0,0.0
5253,56.0,2,84,0.0,0.0
5254,53.0,53,81,0.0,0.0
5255,73.0,118,80,0.0,0.0
5256,74.0,12,142,0.0,0.0
5257,47.0,36,140,0.0,0.0
5258,62.0,3,472,3.0,0.0
5259,52.0,79,958,4.0,0.0
5260,77.0,110,155,0.0,0.0
5261,56.0,7,59,0.0,0.0
5262,52.0,181,63,0.0,0.0
5263,62.0,6,49,0.0,0.0
5264,76.0,7,139,0.0,0.0
5265,64.0,51,836,3.0,0.0
5266,45.0,338,1268,5.0,0.0
5267,69.0,1,505,2.0,0.0
5268,45.0,32,281,0.0,0.0
5269,74.0,153,306,0.0,0.0
5270,52.0,73,308,0.0,0.0
5271,72.0,18,190,0.0,0.0
5272,54.0,61,236,0.0,0.0
5273,71.0,51,180,0.0,0.0
5274,64.0,47,1259,2.0,0.0
5275,54.0,32,1301,4.0,0.0
5276,69.0,112,211,0.0,0.0
5277,60.0,33,124,0.0,0.0
5278,60.0,8,451,3.0,0.0
5279,67.0,111,151,0.0,0.0
5280,52.0,93,253,0.0,0.0
5281,54.0,37,156,0.0,0.0
5282,69.0,49,107,0.0,0.0
5283,47.0,33,410,0.0,0.0
5284,59.0,112,921,3.0,0.0
5285,71.0,12,390,0.0,0.0
5286,47.0,29,600,5.0,0.0
5287,54.0,94,262,0.0,0.0
5288,63.0,72,470,2.0,0.0
5289,66.0,139,324,0.0,0.0
5290,57.0,30,254,0.0,0.0
5291,60.0,37,60,0.0,0.0
5292,55.0,325,198,0.0,0.0
5293,59.0,21,167,0.0,0.0
5294,54.0,240,235,0.0,0.0
5295,71.0,195,468,0.0,0.0
5296,57.0,30,195,0.0,0.0
5297,55.0,35,3352,3.0,0.0
5298,40.0,289,331,5.0,0.0
5299,64.0,79,4793,2.0,0.0
5300,40.0,65,197,0.0,0.0
5301,83.0,31,210,0.0,0.0
5302,59.0,3,95,0.0,0.0
5303,64.0,2,93,0.0,0.0
5304,55.0,259,85,0.0,0.0
5305,59.0,12,91,0.0,0.0
5306,55.0,138,101,0.0,0.0
5307,84.0,88,235,0.0,0.0
5308,64.0,3,93,0.0,0.0
5309,83.0,93,190,0.0,0.0
5310,59.0,1,81,0.0,0.0
5311,55.0,82,88,0.0,0.0
5312,64.0,10,76,0.0,0.0
5313,79.0,79,156,0.0,0.0
5314,59.0,2,86,0.0,0.0
5315,55.0,60,90,0.0,0.0
5316,64.0,8,79,0.0,0.0
5317,59.0,10,66,0.0,0.0
5318,64.0,9,73,0.0,0.0
5319,55.0,38,80,0.0,0.0
5320,81.0,171,54,0.0,0.0
5321,83.0,115,313,0.0,0.0
5322,64.0,4,128,0.0,0.0
5323,59.0,1,124,0.0,0.0
5324,59.0,12,1821,4.0,0.0
5325,55.0,123,125,0.0,0.0
5326,64.0,2,74,0.0,0.0
5327,59.0,15,75,0.0,0.0
5328,55.0,40,88,0.0,0.0
5329,64.0,9,102,0.0,0.0
5330,55.0,217,108,0.0,0.0
5331,59.0,5,94,0.0,0.0
5332,88.0,46,244,0.0,0.0
5333,55.0,92,294,0.0,0.0
5334,59.0,6,165,0.0,0.0
5335,64.0,62,168,0.0,0.0
5336,90.0,1,217,0.0,0.0
5337,59.0,11,82,0.0,0.0
5338,64.0,3,76,0.0,0.0
5339,64.0,1,26,0.0,0.0
5340,55.0,185,47,0.0,0.0
5341,59.0,21,21,0.0,0.0
5342,91.0,51,220,0.0,0.0
5343,40.0,13,2270,5.0,0.0
5344,40.0,104,191,6.0,0.0
5345,52.0,82,100,0.0,0.0
5346,90.0,99,284,0.0,0.0
5347,40.0,28,68,0.0,0.0
5348,88.0,73,168,0.0,0.0
5349,59.0,11,101,0.0,0.0
5350,64.0,52,113,0.0,0.0
5351,55.0,2,107,0.0,0.0
5352,83.0,89,125,0.0,0.0
5353,59.0,9,74,0.0,0.0
5354,64.0,1,71,0.0,0.0
5355,55.0,38,80,0.0,0.0
5356,59.0,82,202,0.0,0.0
5357,64.0,31,69,0.0,0.0
5358,55.0,8,178,0.0,0.0
5359,84.0,33,95,0.0,0.0
5360,86.0,13,124,0.0,0.0
5361,62.0,1,446,4.0,0.0
5362,56.0,83,138,0.0,0.0
5363,84.0,62,284,0.0,0.0
5364,62.0,0,133,0.0,0.0
5365,64.0,2,129,0.0,0.0
5366,56.0,19,427,3.0,0.0
5367,62.0,8,30,0.0,0.0
5368,64.0,2,26,0.0,0.0
5369,56.0,55,34,0.0,0.0
5370,83.0,88,83,0.0,0.0
5371,40.0,4,62,0.0,0.0
5372,60.0,10,695,4.0,0.0
5373,52.0,224,82,0.0,0.0
5374,83.0,60,375,0.0,0.0
5375,57.0,35,927,3.0,0.0
5376,64.0,2,101,0.0,0.0
5377,60.0,8,90,0.0,0.0
5378,57.0,61,97,0.0,0.0
5379,81.0,48,159,0.0,0.0
5380,64.0,3,80,0.0,0.0
5381,60.0,11,80,0.0,0.0
5382,57.0,60,88,0.0,0.0
5383,64.0,2,62,0.0,0.0
5384,60.0,13,64,0.0,0.0
5385,57.0,119,76,0.0,0.0
5386,64.0,6,65,0.0,0.0
5387,60.0,0,54,0.0,0.0
5388,57.0,29,68,0.0,0.0
5389,81.0,12,40,0.0,0.0
5390,83.0,82,33,0.0,0.0
5391,81.0,12,72,0.0,0.0
5392,80.0,29,175,0.0,0.0
5393,64.0,1,33,0.0,0.0
5394,57.0,83,52,0.0,0.0
5395,60.0,20,31,0.0,0.0
5396,81.0,46,45,0.0,0.0
5397,59.0,16,2250,4.0,0.0
5398,57.0,27,757,3.0,0.0
5399,39.0,1,778,5.0,0.0
5400,51.0,321,42,0.0,0.0
5401,39.0,4,37,0.0,0.0
5402,66.0,12,781,2.0,0.0
5403,96.0,115,372,0.0,0.0
5404,66.0,24,54,0.0,0.0
5405,59.0,16,75,0.0,0.0
5406,57.0,0,74,0.0,0.0
5407,66.0,17,52,0.0,0.0
5408,59.0,4,67,0.0,0.0
5409,57.0,81,64,0.0,0.0
5410,95.0,0,105,0.0,0.0
5411,66.0,10,24,0.0,0.0
5412,59.0,11,30,0.0,0.0
5413,57.0,66,35,0.0,0.0
5414,89.0,42,95,0.0,0.0
5415,90.0,7,92,0.0,0.0
5416,55.0,11,342,3.0,0.0
5417,67.0,15,504,2.0,0.0
5418,40.0,87,339,5.0,0.0
5419,40.0,17,15,0.0,0.0
5420,52.0,188,30,0.0,0.0
5421,93.0,2,219,0.0,0.0
5422,64.0,1,18,0.0,0.0
5423,55.0,52,40,0.0,0.0
5424,59.0,19,21,0.0,0.0
5425,91.0,56,273,0.0,0.0
5426,42.0,3,379,5.0,0.0
5427,71.0,7,642,2.0,0.0
5428,63.0,4,342,3.0,0.0
5429,42.0,6,28,0.0,0.0
5430,54.0,69,31,0.0,0.0
5431,90.0,15,81,0.0,0.0
5432,63.0,14,26,0.0,0.0
5433,57.0,41,39,0.0,0.0
5434,59.0,4,21,0.0,0.0
5435,86.0,77,73,0.0,0.0
5436,87.0,11,94,0.0,0.0
5437,90.0,39,135,0.0,0.0
5438,43.0,11,41,0.0,0.0
5439,55.0,76,52,0.0,0.0
5440,64.0,20,307,3.0,0.0
5441,43.0,1,328,5.0,0.0
5442,59.0,14,26,0.0,0.0
5443,64.0,2,21,0.0,0.0
5444,88.0,83,283,0.0,0.0
5445,55.0,77,34,0.0,0.0
5446,51.0,50,20,0.0,0.0
5447,62.0,142,512,3.0,0.0
5448,44.0,24,462,5.0,0.0
5449,44.0,93,33,0.0,0.0
5450,64.0,9,442,2.0,0.0
5451,86.0,23,105,0.0,0.0
5452,59.0,24,34,0.0,0.0
5453,62.0,10,24,0.0,0.0
5454,52.0,76,52,0.0,0.0
5455,82.0,67,125,0.0,0.0
5456,83.0,39,95,0.0,0.0
5457,45.0,20,519,0.0,0.0
5458,45.0,77,1202,5.0,0.0
5459,60.0,43,272,3.0,0.0
5460,57.0,15,813,4.0,0.0
5461,65.0,32,825,2.0,0.0
5462,86.0,70,174,0.0,0.0
5463,85.0,37,151,0.0,0.0
5464,48.0,19,351,0.0,0.0
5465,84.0,51,87,0.0,0.0
5466,83.0,64,59,0.0,0.0
5467,82.0,29,57,0.0,0.0
5468,53.0,42,177,0.0,0.0
5469,81.0,56,48,0.0,0.0
5470,80.0,32,51,0.0,0.0
5471,79.0,6,45,0.0,0.0
5472,57.0,57,117,0.0,0.0
5473,78.0,54,46,0.0,0.0
5474,77.0,0,44,0.0,0.0
5475,76.0,32,57,0.0,0.0
5476,48.0,118,322,0.0,0.0
5477,75.0,14,41,0.0,0.0
5478,69.0,14,380,2.0,0.0
5479,74.0,70,59,0.0,0.0
5480,53.0,1,363,4.0,0.0
5481,73.0,47,82,0.0,0.0
5482,72.0,99,354,0.0,0.0
5483,60.0,69,74,0.0,0.0
5484,47.0,278,818,0.0,0.0
5485,55.0,62,416,4.0,0.0
5486,64.0,0,405,2.0,0.0
5487,47.0,35,587,5.0,0.0
5488,59.0,29,594,3.0,0.0
5489,71.0,125,126,0.0,0.0
5490,64.0,56,134,0.0,0.0
5491,55.0,114,259,0.0,0.0
5492,66.0,7,149,0.0,0.0
5493,67.0,25,638,0.0,0.0
5494,52.0,141,217,0.0,0.0
5495,59.0,353,487,0.0,0.0
5496,47.0,24,968,5.0,0.0
5497,47.0,25,928,6.0,0.0
5498,63.0,1,963,2.0,0.0
5499,47.0,68,644,0.0,0.0
5500,57.0,177,921,3.0,0.0
5501,69.0,23,545,0.0,0.0
5502,66.0,99,360,0.0,0.0
5503,57.0,59,208,0.0,0.0
5504,59.0,55,232,0.0,0.0
5505,40.0,6,284,0.0,0.0
5506,52.0,230,2024,5.0,0.0
5507,40.0,276,369,6.0,0.0
5508,64.0,22,242,2.0,0.0
5509,55.0,11,208,3.0,0.0
5510,64.0,24,243,0.0,0.0
5511,47.0,63,93,0.0,0.0
5512,52.0,4,57,0.0,0.0
5513,55.0,27,324,0.0,0.0
5514,59.0,5,266,0.0,0.0
5515,71.0,15,368,2.0,0.0
5516,67.0,9,334,3.0,0.0
5517,64.0,63,82,0.0,0.0
5518,71.0,3,70,0.0,0.0
5519,67.0,68,47,0.0,0.0
5520,57.0,5,81,0.0,0.0
5521,60.0,18,54,0.0,0.0
5522,76.0,34,89,0.0,0.0
5523,69.0,57,196,3.0,0.0
5524,72.0,4,152,2.0,0.0
5525,66.0,72,45,0.0,0.0
5526,75.0,30,68,0.0,0.0
5527,69.0,106,89,0.0,0.0
5528,40.0,39,122,0.0,0.0
5529,67.0,36,148,0.0,0.0
5530,76.0,3,143,0.0,0.0
5531,40.0,0,94,6.0,0.0
5532,47.0,8,51,0.0,0.0
5533,52.0,200,39,0.0,0.0
5534,55.0,30,298,0.0,0.0
5535,67.0,5,306,3.0,0.0
5536,59.0,1,231,0.0,0.0
5537,71.0,20,298,2.0,0.0
5538,64.0,49,60,0.0,0.0
5539,71.0,27,65,0.0,0.0
5540,67.0,37,40,0.0,0.0
5541,60.0,15,47,0.0,0.0
5542,76.0,12,74,0.0,0.0
5543,57.0,7,60,0.0,0.0
5544,69.0,31,152,3.0,0.0
5545,72.0,10,132,2.0,0.0
5546,66.0,49,47,0.0,0.0
5547,75.0,21,48,0.0,0.0
5548,69.0,102,59,0.0,0.0
5549,40.0,9,88,0.0,0.0
5550,76.0,7,120,0.0,0.0
5551,67.0,26,79,0.0,0.0
5552,40.0,11,103,6.0,0.0
5553,59.0,115,1590,7.0,0.0
5554,47.0,14,47,0.0,0.0
5555,52.0,90,21,0.0,0.0
5556,59.0,28,431,0.0,0.0
5557,71.0,25,435,2.0,0.0
5558,67.0,19,351,3.0,0.0
5559,67.0,26,232,0.0,0.0
5560,71.0,66,49,0.0,0.0
5561,83.0,33,38,0.0,0.0
5562,71.0,17,43,0.0,0.0
5563,66.0,8,319,3.0,0.0
5564,66.0,5,22,0.0,0.0
5565,74.0,2,24,0.0,0.0
5566,72.0,13,46,0.0,0.0
5567,69.0,4,259,2.0,0.0
5568,71.0,60,47,0.0,0.0
5569,81.0,62,53,0.0,0.0
5570,71.0,33,68,0.0,0.0
5571,40.0,3,72,0.0,0.0
5572,74.0,20,45,0.0,0.0
5573,72.0,15,63,0.0,0.0
5574,67.0,24,264,2.0,0.0
5575,64.0,13,242,3.0,0.0
5576,47.0,24,51,0.0,0.0
5577,71.0,6,57,0.0,0.0
5578,52.0,52,23,0.0,0.0
5579,79.0,51,49,0.0,0.0
5580,59.0,8,390,0.0,0.0
5581,71.0,49,55,0.0,0.0
5582,73.0,2,55,0.0,0.0
5583,61.0,1,258,0.0,0.0
5584,71.0,42,58,0.0,0.0
5585,64.0,24,250,2.0,0.0
5586,61.0,3,273,3.0,0.0
5587,70.0,45,43,0.0,0.0
5588,79.0,56,46,0.0,0.0
5589,70.0,52,61,0.0,0.0
5590,59.0,12,544,4.0,0.0
5591,73.0,15,78,0.0,0.0
5592,63.0,8,55,0.0,0.0
5593,71.0,45,70,0.0,0.0
5594,59.0,31,272,5.0,0.0
5595,66.0,38,219,2.0,0.0
5596,63.0,7,253,3.0,0.0
5597,69.0,93,59,0.0,0.0
5598,78.0,22,79,0.0,0.0
5599,69.0,13,99,0.0,0.0
5600,67.0,22,216,2.0,0.0
5601,64.0,3,179,3.0,0.0
5602,40.0,17,157,0.0,0.0
5603,64.0,36,411,7.0,0.0
5604,52.0,2,1749,5.0,0.0
5605,76.0,19,181,0.0,0.0
5606,67.0,3,196,0.0,0.0
5607,40.0,2,156,6.0,0.0
5608,47.0,12,63,0.0,0.0
5609,52.0,172,44,0.0,0.0
5610,55.0,0,306,0.0,0.0
5611,67.0,23,261,3.0,0.0
5612,59.0,9,241,0.0,0.0
5613,71.0,1,273,2.0,0.0
5614,64.0,51,75,0.0,0.0
5615,71.0,23,71,0.0,0.0
5616,67.0,39,46,0.0,0.0
5617,57.0,14,66,0.0,0.0
5618,76.0,27,79,0.0,0.0
5619,60.0,14,49,0.0,0.0
5620,72.0,15,131,2.0,0.0
5621,69.0,44,142,3.0,0.0
5622,66.0,47,45,0.0,0.0
5623,75.0,9,44,0.0,0.0
5624,69.0,89,60,0.0,0.0
5625,40.0,44,92,0.0,0.0
5626,67.0,13,141,0.0,0.0
5627,76.0,8,133,0.0,0.0
5628,40.0,185,144,6.0,0.0
5629,47.0,21,53,0.0,0.0
5630,52.0,14,34,0.0,0.0
5631,55.0,15,284,0.0,0.0
5632,67.0,3,252,3.0,0.0
5633,59.0,13,217,0.0,0.0
5634,71.0,12,276,2.0,0.0
5635,64.0,48,65,0.0,0.0
5636,71.0,24,67,0.0,0.0
5637,67.0,29,40,0.0,0.0
5638,60.0,12,41,0.0,0.0
5639,57.0,22,51,0.0,0.0
5640,76.0,22,81,0.0,0.0
5641,72.0,38,272,2.0,0.0
5642,69.0,19,251,3.0,0.0
5643,66.0,51,47,0.0,0.0
5644,75.0,59,55,0.0,0.0
5645,69.0,60,54,0.0,0.0
5646,40.0,39,114,0.0,0.0
5647,71.0,179,295,2.0,0.0
5648,76.0,2,127,0.0,0.0
5649,67.0,7,80,0.0,0.0
5650,67.0,3,278,3.0,0.0
5651,71.0,5,933,7.0,0.0
5652,40.0,21,125,6.0,0.0
5653,47.0,12,56,0.0,0.0
5654,52.0,120,25,0.0,0.0
5655,59.0,35,271,0.0,0.0
5656,67.0,10,150,0.0,0.0
5657,71.0,10,47,0.0,0.0
5658,83.0,49,41,0.0,0.0
5659,53.0,11,40,0.0,0.0
5660,71.0,70,47,0.0,0.0
5661,62.0,5,79,0.0,0.0
5662,53.0,20,345,5.0,0.0
5663,53.0,14,315,4.0,0.0
5664,59.0,12,535,3.0,0.0
5665,62.0,6,563,2.0,0.0
5666,74.0,35,40,0.0,0.0
5667,68.0,3,30,0.0,0.0
5668,73.0,56,67,0.0,0.0
5669,71.0,56,60,0.0,0.0
5670,83.0,54,40,0.0,0.0
5671,71.0,54,38,0.0,0.0
5672,30.0,9,38,0.0,0.0
5673,69.0,2,40,0.0,0.0
5674,66.0,1,938,7.0,0.0
5675,42.0,5,33,0.0,0.0
5676,67.0,38,55,0.0,0.0
5677,54.0,35,1172,4.0,0.0
5678,54.0,17,235,5.0,0.0
5679,66.0,62,46,0.0,0.0
5680,47.0,23,247,0.0,0.0
5681,74.0,47,43,0.0,0.0
5682,54.0,75,582,0.0,0.0
5683,66.0,32,39,0.0,0.0
5684,59.0,10,264,2.0,0.0
5685,67.0,29,38,0.0,0.0
5686,56.0,16,269,3.0,0.0
5687,56.0,14,217,0.0,0.0
5688,66.0,37,49,0.0,0.0
5689,65.0,93,63,0.0,0.0
5690,74.0,27,109,0.0,0.0
5691,65.0,53,101,0.0,0.0
5692,61.0,7,349,2.0,0.0
5693,42.0,13,434,5.0,0.0
5694,58.0,33,341,3.0,0.0
5695,42.0,117,441,6.0,0.0
5696,67.0,33,70,0.0,0.0
5697,58.0,34,190,0.0,0.0
5698,66.0,55,51,0.0,0.0
5699,64.0,48,49,0.0,0.0
5700,73.0,1,60,0.0,0.0
5701,64.0,57,107,0.0,0.0
5702,62.0,26,226,2.0,0.0
5703,47.0,20,183,0.0,0.0
5704,59.0,0,190,3.0,0.0
5705,47.0,262,1832,5.0,0.0
5706,35.0,120,317,6.0,0.0
5707,71.0,23,198,0.0,0.0
5708,59.0,52,413,7.0,0.0
5709,62.0,2,145,0.0,0.0
5710,54.0,19,59,0.0,0.0
5711,59.0,38,35,0.0,0.0
5712,62.0,11,353,0.0,0.0
5713,62.0,16,275,3.0,0.0
5714,66.0,10,278,2.0,0.0
5715,66.0,1,259,0.0,0.0
5716,71.0,65,72,0.0,0.0
5717,78.0,24,82,0.0,0.0
5718,74.0,30,50,0.0,0.0
5719,83.0,34,106,0.0,0.0
5720,64.0,41,156,3.0,0.0
5721,67.0,15,44,0.0,0.0
5722,67.0,17,135,2.0,0.0
5723,64.0,39,55,0.0,0.0
5724,73.0,5,62,0.0,0.0
5725,82.0,80,64,0.0,0.0
5726,76.0,54,90,0.0,0.0
5727,47.0,51,76,0.0,0.0
5728,83.0,11,131,0.0,0.0
5729,35.0,3,139,6.0,0.0
5730,74.0,12,115,0.0,0.0
5731,54.0,4,45,0.0,0.0
5732,59.0,225,30,0.0,0.0
5733,62.0,5,313,0.0,0.0
5734,62.0,21,244,3.0,0.0
5735,66.0,3,204,0.0,0.0
5736,66.0,2,263,2.0,0.0
5737,71.0,49,78,0.0,0.0
5738,78.0,19,74,0.0,0.0
5739,74.0,33,44,0.0,0.0
5740,67.0,7,35,0.0,0.0
5741,83.0,44,78,0.0,0.0
5742,64.0,34,40,0.0,0.0
5743,64.0,33,174,3.0,0.0
5744,67.0,24,204,2.0,0.0
5745,73.0,54,60,0.0,0.0
5746,82.0,13,56,0.0,0.0
5747,76.0,72,80,0.0,0.0
5748,47.0,15,82,0.0,0.0
5749,62.0,32,154,3.0,0.0
5750,66.0,44,1742,7.0,0.0
5751,66.0,59,181,2.0,0.0
5752,83.0,20,118,0.0,0.0
5753,35.0,7,133,6.0,0.0
5754,74.0,30,62,0.0,0.0
5755,54.0,18,54,0.0,0.0
5756,59.0,0,30,0.0,0.0
5757,66.0,3,444,0.0,0.0
5758,74.0,17,440,2.0,0.0
5759,66.0,15,412,3.0,0.0
5760,74.0,6,285,0.0,0.0
5761,78.0,65,65,0.0,0.0
5762,90.0,50,44,0.0,0.0
5763,78.0,31,56,0.0,0.0
5764,64.0,13,324,3.0,0.0
5765,73.0,1,29,0.0,0.0
5766,81.0,11,37,0.0,0.0
5767,73.0,8,312,2.0,0.0
5768,79.0,39,50,0.0,0.0
5769,78.0,55,48,0.0,0.0
5770,88.0,48,45,0.0,0.0
5771,78.0,62,51,0.0,0.0
5772,47.0,18,62,0.0,0.0
5773,81.0,12,42,0.0,0.0
5774,79.0,5,55,0.0,0.0
5775,71.0,50,301,2.0,0.0
5776,62.0,6,283,3.0,0.0
5777,54.0,14,48,0.0,0.0
5778,78.0,33,50,0.0,0.0
5779,59.0,33,37,0.0,0.0
5780,86.0,29,54,0.0,0.0
5781,78.0,46,44,0.0,0.0
5782,66.0,13,384,0.0,0.0
5783,80.0,32,16,0.0,0.0
5784,79.0,20,35,0.0,0.0
5785,68.0,15,262,0.0,0.0
5786,78.0,9,50,0.0,0.0
5787,59.0,2,275,3.0,0.0
5788,68.0,2,280,2.0,0.0
5789,77.0,61,63,0.0,0.0
5790,86.0,49,63,0.0,0.0
5791,77.0,41,59,0.0,0.0
5792,79.0,8,42,0.0,0.0
5793,70.0,18,50,0.0,0.0
5794,54.0,26,271,5.0,0.0
5795,61.0,3,293,3.0,0.0
5796,54.0,75,546,4.0,0.0
5797,78.0,48,67,0.0,0.0
5798,70.0,73,262,2.0,0.0
5799,76.0,86,70,0.0,0.0
5800,85.0,57,59,0.0,0.0
5801,76.0,5,88,0.0,0.0
5802,71.0,1,216,2.0,0.0
5803,47.0,37,135,0.0,0.0
5804,62.0,16,174,3.0,0.0
5805,47.0,6,3085,5.0,0.0
5806,83.0,9,140,0.0,0.0
5807,74.0,8,142,0.0,0.0
5808,35.0,3,123,6.0,0.0
5809,71.0,77,284,7.0,0.0
5810,54.0,2,49,0.0,0.0
5811,59.0,57,35,0.0,0.0
5812,62.0,1,319,0.0,0.0
5813,66.0,52,212,0.0,0.0
5814,66.0,5,262,2.0,0.0
5815,62.0,17,261,3.0,0.0
5816,71.0,50,78,0.0,0.0
5817,78.0,29,74,0.0,0.0
5818,74.0,9,45,0.0,0.0
5819,83.0,56,70,0.0,0.0
5820,67.0,10,40,0.0,0.0
5821,64.0,1,48,0.0,0.0
5822,64.0,34,182,3.0,0.0
5823,67.0,9,142,2.0,0.0
5824,73.0,48,61,0.0,0.0
5825,82.0,21,60,0.0,0.0
5826,76.0,81,65,0.0,0.0
5827,47.0,44,84,0.0,0.0
5828,83.0,14,129,0.0,0.0
5829,74.0,2,121,0.0,0.0
5830,54.0,19,49,0.0,0.0
5831,59.0,233,33,0.0,0.0
5832,62.0,9,339,0.0,0.0
5833,62.0,14,291,3.0,0.0
5834,66.0,45,216,0.0,0.0
5835,66.0,12,256,2.0,0.0
5836,71.0,54,81,0.0,0.0
5837,78.0,15,82,0.0,0.0
5838,74.0,8,41,0.0,0.0
5839,67.0,6,51,0.0,0.0
5840,83.0,35,86,0.0,0.0
5841,64.0,16,69,0.0,0.0
5842,67.0,140,312,2.0,0.0
5843,64.0,60,1283,3.0,0.0
5844,73.0,93,51,0.0,0.0
5845,82.0,93,78,0.0,0.0
5846,76.0,16,103,0.0,0.0
5847,47.0,34,179,0.0,0.0
5848,54.0,14,1556,4.0,0.0
5849,69.0,3,1871,2.0,0.0
5850,81.0,11,170,0.0,0.0
5851,72.0,16,148,0.0,0.0
5852,54.0,40,71,0.0,0.0
5853,60.0,314,39,0.0,0.0
5854,64.0,10,576,0.0,0.0
5855,69.0,90,487,0.0,0.0
5856,72.0,69,90,0.0,0.0
5857,76.0,39,83,0.0,0.0
5858,78.0,25,62,0.0,0.0
5859,81.0,65,34,0.0,0.0
5860,84.0,89,45,0.0,0.0
5861,83.0,13,24,0.0,0.0
5862,96.0,28,150,0.0,0.0
5863,95.0,51,121,0.0,0.0
5864,63.0,27,539,3.0,0.0
5865,93.0,57,78,0.0,0.0
5866,69.0,28,536,0.0,0.0
5867,59.0,1,572,0.0,0.0
5868,63.0,11,561,0.0,0.0
5869,91.0,53,50,0.0,0.0
5870,90.0,85,32,0.0,0.0
5871,88.0,39,64,0.0,0.0
5872,87.0,61,47,0.0,0.0
5873,90.0,64,51,0.0,0.0
5874,81.0,27,57,0.0,0.0
5875,83.0,28,52,0.0,0.0
5876,84.0,35,85,0.0,0.0
5877,66.0,61,358,3.0,0.0
5878,51.0,28,314,5.0,0.0
5879,59.0,54,645,4.0,0.0
5880,78.0,114,47,0.0,0.0
5881,83.0,37,95,0.0,0.0
5882,81.0,28,99,0.0,0.0
5883,52.0,36,61,0.0,0.0
5884,59.0,3,234,0.0,0.0
5885,52.0,68,251,5.0,0.0
5886,79.0,2,46,0.0,0.0
5887,67.0,10,162,2.0,0.0
5888,67.0,57,90,0.0,0.0
5889,64.0,58,151,3.0,0.0
5890,91.0,45,157,0.0,0.0
5891,90.0,9,138,0.0,0.0
5892,89.0,71,118,0.0,0.0
5893,52.0,69,39,0.0,0.0
5894,52.0,29,724,5.0,0.0
5895,67.0,22,799,2.0,0.0
5896,61.0,17,640,0.0,0.0
5897,61.0,29,702,3.0,0.0
5898,88.0,89,78,0.0,0.0
5899,67.0,17,567,0.0,0.0
5900,87.0,85,75,0.0,0.0
5901,86.0,45,96,0.0,0.0
5902,85.0,63,74,0.0,0.0
5903,84.0,74,66,0.0,0.0
5904,83.0,33,81,0.0,0.0
5905,82.0,50,48,0.0,0.0
5906,81.0,62,51,0.0,0.0
5907,80.0,10,58,0.0,0.0
5908,79.0,35,52,0.0,0.0
5909,83.0,6,66,0.0,0.0
5910,78.0,36,48,0.0,0.0
5911,77.0,53,55,0.0,0.0
5912,71.0,17,196,2.0,0.0
5913,61.0,11,109,0.0,0.0
5914,64.0,2,119,0.0,0.0
5915,55.0,12,128,5.0,0.0
5916,55.0,9,118,0.0,0.0
5917,61.0,1,92,3.0,0.0
5918,76.0,18,53,0.0,0.0
5919,79.0,37,57,0.0,0.0
5920,75.0,57,56,0.0,0.0
5921,74.0,66,55,0.0,0.0
5922,71.0,20,232,2.0,0.0
5923,64.0,13,131,0.0,0.0
5924,61.0,5,109,0.0,0.0
5925,55.0,15,107,0.0,0.0
5926,64.0,47,335,4.0,0.0
5927,61.0,20,105,3.0,0.0
5928,73.0,7,64,0.0,0.0
5929,55.0,62,129,5.0,0.0
5930,76.0,5,66,0.0,0.0
5931,71.0,22,97,0.0,0.0
5932,70.0,72,37,0.0,0.0
5933,70.0,23,154,2.0,0.0
5934,61.0,7,174,0.0,0.0
5935,54.0,2,178,0.0,0.0
5936,64.0,8,173,0.0,0.0
5937,61.0,62,215,3.0,0.0
5938,54.0,42,142,5.0,0.0
5939,91.0,134,107,0.0,0.0
5940,90.0,27,118,0.0,0.0
5941,52.0,76,106,0.0,0.0
5942,89.0,63,112,0.0,0.0
5943,61.0,28,145,0.0,0.0
5944,67.0,7,73,0.0,0.0
5945,88.0,80,70,0.0,0.0
5946,87.0,62,69,0.0,0.0
5947,86.0,55,70,0.0,0.0
5948,85.0,53,60,0.0,0.0
5949,84.0,78,53,0.0,0.0
5950,83.0,37,76,0.0,0.0
5951,82.0,36,47,0.0,0.0
5952,55.0,34,47,0.0,0.0
5953,81.0,83,68,0.0,0.0
5954,61.0,28,526,0.0,0.0
5955,80.0,43,73,0.0,0.0
5956,71.0,7,92,0.0,0.0
5957,79.0,54,58,0.0,0.0
5958,83.0,40,61,0.0,0.0
5959,78.0,57,44,0.0,0.0
5960,70.0,37,60,0.0,0.0
5961,77.0,11,48,0.0,0.0
5962,76.0,62,45,0.0,0.0
5963,79.0,56,60,0.0,0.0
5964,75.0,41,59,0.0,0.0
5965,64.0,24,293,3.0,0.0
5966,74.0,46,66,0.0,0.0
5967,70.0,9,313,2.0,0.0
5968,54.0,19,451,5.0,0.0
5969,61.0,1,321,4.0,0.0
5970,54.0,105,469,0.0,0.0
5971,73.0,78,51,0.0,0.0
5972,76.0,84,81,0.0,0.0
5973,70.0,15,100,0.0,0.0
5974,63.0,12,167,3.0,0.0
5975,60.0,101,58,0.0,0.0
5976,69.0,16,170,2.0,0.0
5977,69.0,1,42,0.0,0.0
5978,60.0,0,36,4.0,0.0
5979,96.0,78,107,0.0,0.0
5980,95.0,10,89,0.0,0.0
5981,55.0,97,69,0.0,0.0
5982,94.0,67,116,0.0,0.0
5983,64.0,3,623,0.0,0.0
5984,60.0,26,364,4.0,0.0
5985,64.0,8,602,3.0,0.0
5986,55.0,1,601,5.0,0.0
5987,72.0,7,763,2.0,0.0
5988,72.0,28,511,0.0,0.0
5989,93.0,93,70,0.0,0.0
5990,92.0,66,78,0.0,0.0
5991,91.0,31,88,0.0,0.0
5992,90.0,25,56,0.0,0.0
5993,89.0,82,53,0.0,0.0
5994,88.0,28,83,0.0,0.0
5995,87.0,51,56,0.0,0.0
5996,86.0,31,58,0.0,0.0
5997,85.0,39,70,0.0,0.0
5998,57.0,10,207,0.0,0.0
5999,66.0,35,219,3.0,0.0
6000,57.0,43,251,5.0,0.0
6001,84.0,55,55,0.0,0.0
6002,88.0,54,65,0.0,0.0
6003,83.0,7,62,0.0,0.0
6004,82.0,12,66,0.0,0.0
6005,69.0,2,139,0.0,0.0
6006,76.0,30,184,2.0,0.0
6007,66.0,8,127,0.0,0.0
6008,60.0,26,135,0.0,0.0
6009,66.0,3,174,3.0,0.0
6010,81.0,19,58,0.0,0.0
6011,60.0,2,77,5.0,0.0
6012,84.0,18,59,0.0,0.0
6013,80.0,59,60,0.0,0.0
6014,79.0,33,56,0.0,0.0
6015,69.0,72,194,0.0,0.0
6016,60.0,0,82,0.0,0.0
6017,66.0,6,172,0.0,0.0
6018,76.0,9,258,2.0,0.0
6019,66.0,3,156,3.0,0.0
6020,69.0,7,170,4.0,0.0
6021,60.0,34,55,5.0,0.0
6022,78.0,54,60,0.0,0.0
6023,81.0,6,70,0.0,0.0
6024,76.0,20,107,0.0,0.0
6025,75.0,7,163,2.0,0.0
6026,59.0,3,166,0.0,0.0
6027,75.0,108,39,0.0,0.0
6028,66.0,9,185,3.0,0.0
6029,66.0,27,157,0.0,0.0
6030,69.0,4,148,0.0,0.0
6031,69.0,2,189,4.0,0.0
6032,59.0,62,181,5.0,0.0
6033,96.0,124,88,0.0,0.0
6034,95.0,33,90,0.0,0.0
6035,57.0,72,75,0.0,0.0
6036,94.0,77,101,0.0,0.0
6037,66.0,16,367,0.0,0.0
6038,93.0,81,61,0.0,0.0
6039,72.0,23,263,0.0,0.0
6040,92.0,83,75,0.0,0.0
6041,91.0,28,98,0.0,0.0
6042,90.0,12,62,0.0,0.0
6043,89.0,72,58,0.0,0.0
6044,88.0,37,73,0.0,0.0
6045,87.0,11,62,0.0,0.0
6046,60.0,38,54,0.0,0.0
6047,86.0,82,60,0.0,0.0
6048,66.0,5,405,0.0,0.0
6049,85.0,39,70,0.0,0.0
6050,76.0,14,109,0.0,0.0
6051,84.0,54,62,0.0,0.0
6052,88.0,53,66,0.0,0.0
6053,83.0,68,59,0.0,0.0
6054,75.0,37,78,0.0,0.0
6055,82.0,6,71,0.0,0.0
6056,81.0,60,68,0.0,0.0
6057,84.0,67,73,0.0,0.0
6058,80.0,32,82,0.0,0.0
6059,69.0,12,342,3.0,0.0
6060,78.0,4,290,13.0,0.0
6061,66.0,3,307,4.0,0.0
6062,69.0,1,288,13.0,0.0
6063,75.0,12,253,2.0,0.0
6064,87.0,9,295,12.0,0.0
6065,48.0,1,451,6.0,0.0
6066,69.0,0,261,0.0,0.0
6067,66.0,10,261,0.0,0.0
6068,75.0,7,320,12.0,0.0
6069,60.0,6,339,0.0,0.0
6070,48.0,41,38,1.0,0.0
6071,79.0,33,79,0.0,0.0
6072,60.0,12,266,5.0,0.0
6073,48.0,13,472,15.0,0.0
6074,60.0,6,464,15.0,0.0
6075,69.0,5,277,14.0,0.0
6076,66.0,2,286,14.0,0.0
6077,78.0,73,51,0.0,0.0
6078,81.0,42,68,0.0,0.0
6079,75.0,20,53,0.0,0.0
6080,79.0,15,163,13.0,0.0
6081,64.0,5,112,4.0,0.0
6082,67.0,20,1218,10.0,0.0
6083,64.0,6,1211,10.0,0.0
6084,76.0,5,38,0.0,0.0
6085,76.0,20,86,2.0,0.0
6086,70.0,1,155,13.0,0.0
6087,70.0,7,145,14.0,0.0
6088,67.0,2,40,0.0,0.0
6089,70.0,4,30,0.0,0.0
6090,79.0,3,40,0.0,0.0
6091,67.0,1,146,14.0,0.0
6092,60.0,4,60,5.0,0.0
6093,67.0,36,91,3.0,0.0
6094,76.0,7,144,12.0,0.0
6095,88.0,21,149,12.0,0.0
6096,48.0,9,38,1.0,0.0
6097,52.0,86,43,0.0,0.0
6098,55.0,120,43,0.0,0.0
6099,48.0,4,743,5.0,0.0
6100,60.0,20,656,2.0,0.0
6101,60.0,2,576,4.0,0.0
6102,36.0,5,715,6.0,0.0
6103,48.0,63,233,0.0,0.0
6104,36.0,14,201,0.0,0.0
6105,64.0,21,89,0.0,0.0
6106,67.0,17,71,0.0,0.0
6107,60.0,1,625,3.0,0.0
6108,58.0,49,44,0.0,0.0
6109,67.0,41,17,0.0,0.0
6110,67.0,16,32,0.0,0.0
6111,79.0,17,48,0.0,0.0
6112,76.0,20,65,0.0,0.0
6113,70.0,41,39,0.0,0.0
6114,79.0,55,27,0.0,0.0
6115,76.0,8,18,0.0,0.0
6116,79.0,67,28,0.0,0.0
6117,91.0,50,43,0.0,0.0
6118,88.0,8,35,0.0,0.0
6119,82.0,36,41,0.0,0.0
6120,79.0,39,23,0.0,0.0
6121,70.0,50,24,0.0,0.0
6122,60.0,7,30,0.0,0.0
6123,48.0,12,35,0.0,0.0
6124,79.0,5,45,0.0,0.0
6125,76.0,43,49,0.0,0.0
6126,70.0,32,40,0.0,0.0
6127,67.0,41,17,0.0,0.0
6128,58.0,62,27,0.0,0.0
6129,67.0,6,237,3.0,0.0
6130,60.0,4,34,0.0,0.0
6131,76.0,29,167,2.0,0.0
6132,60.0,1,271,5.0,0.0
6133,48.0,12,34,0.0,0.0
6134,67.0,5,44,0.0,0.0
6135,88.0,1,270,12.0,0.0
6136,70.0,10,252,13.0,0.0
6137,64.0,0,47,0.0,0.0
6138,76.0,0,265,12.0,0.0
6139,48.0,9,285,6.0,0.0
6140,79.0,0,262,13.0,0.0
6141,67.0,25,224,10.0,0.0
6142,70.0,2,213,4.0,0.0
6143,64.0,2,213,10.0,0.0
6144,48.0,39,40,1.0,0.0
6145,67.0,28,467,14.0,0.0
6146,70.0,0,257,14.0,0.0
6147,48.0,7,295,15.0,0.0
6148,60.0,8,285,15.0,0.0
6149,58.0,39,41,0.0,0.0
6150,67.0,2,22,0.0,0.0
6151,64.0,34,18,0.0,0.0
6152,67.0,27,32,0.0,0.0
6153,64.0,3,154,2.0,0.0
6154,59.0,1,76,5.0,0.0
6155,71.0,13,91,4.0,0.0
6156,71.0,1,23,0.0,0.0
6157,59.0,15,30,0.0,0.0
6158,76.0,2,23,0.0,0.0
6159,79.0,3,25,0.0,0.0
6160,47.0,2,44,0.0,0.0
6161,71.0,7,103,2.0,0.0
6162,47.0,41,100,6.0,0.0
6163,67.0,26,1015,10.0,0.0
6164,64.0,8,999,10.0,0.0
6165,76.0,0,89,3.0,0.0
6166,71.0,11,144,13.0,0.0
6167,79.0,0,64,2.0,0.0
6168,71.0,18,191,14.0,0.0
6169,76.0,15,126,13.0,0.0
6170,59.0,13,165,15.0,0.0
6171,47.0,18,42,1.0,0.0
6172,79.0,14,146,12.0,0.0
6173,47.0,6,177,15.0,0.0
6174,91.0,0,140,12.0,0.0
6175,52.0,5,61,0.0,0.0
6176,55.0,82,63,0.0,0.0
6177,47.0,3,587,0.0,0.0
6178,35.0,21,563,0.0,0.0
6179,67.0,19,61,0.0,0.0
6180,64.0,46,79,0.0,0.0
6181,59.0,0,696,2.0,0.0
6182,47.0,9,695,5.0,0.0
6183,59.0,4,672,4.0,0.0
6184,59.0,23,685,3.0,0.0
6185,35.0,3,675,6.0,0.0
6186,59.0,31,46,0.0,0.0
6187,67.0,80,25,0.0,0.0
6188,67.0,74,47,0.0,0.0
6189,79.0,10,56,0.0,0.0
6190,76.0,38,65,0.0,0.0
6191,71.0,26,49,0.0,0.0
6192,76.0,3,19,0.0,0.0
6193,79.0,69,21,0.0,0.0
6194,79.0,76,36,0.0,0.0
6195,91.0,26,50,0.0,0.0
6196,88.0,1,48,0.0,0.0
6197,83.0,49,36,0.0,0.0
6198,79.0,56,27,0.0,0.0
6199,71.0,7,31,0.0,0.0
6200,59.0,10,68,0.0,0.0
6201,47.0,1,64,0.0,0.0
6202,79.0,15,48,0.0,0.0
6203,76.0,32,72,0.0,0.0
6204,71.0,39,42,0.0,0.0
6205,67.0,54,28,0.0,0.0
6206,59.0,70,23,0.0,0.0
6207,67.0,0,266,3.0,0.0
6208,67.0,1,241,10.0,0.0
6209,47.0,2,286,6.0,0.0
6210,64.0,10,227,10.0,0.0
6211,71.0,1,249,4.0,0.0
6212,76.0,2,249,2.0,0.0
6213,59.0,1,277,5.0,0.0
6214,88.0,3,286,12.0,0.0
6215,47.0,15,46,0.0,0.0
6216,76.0,0,267,12.0,0.0
6217,59.0,5,291,15.0,0.0
6218,67.0,6,55,0.0,0.0
6219,47.0,7,277,15.0,0.0
6220,64.0,32,55,0.0,0.0
6221,79.0,9,231,13.0,0.0
6222,71.0,5,222,13.0,0.0
6223,71.0,8,278,14.0,0.0
6224,47.0,1,41,1.0,0.0
6225,67.0,1,412,14.0,0.0
6226,59.0,28,44,0.0,0.0
6227,64.0,8,14,0.0,0.0
6228,67.0,74,18,0.0,0.0
6229,67.0,5,54,0.0,0.0
6230,46.0,14,43,0.0,0.0
6231,52.0,12,51,0.0,0.0
6232,55.0,0,44,0.0,0.0
6233,64.0,8,118,2.0,0.0
6234,76.0,2,29,0.0,0.0
6235,79.0,3,29,0.0,0.0
6236,58.0,1,29,0.0,0.0
6237,72.0,7,16,0.0,0.0
6238,58.0,4,64,5.0,0.0
6239,46.0,1,47,6.0,0.0
6240,76.0,8,61,3.0,0.0
6241,72.0,17,74,4.0,0.0
6242,91.0,12,142,12.0,0.0
6243,67.0,3,1890,10.0,0.0
6244,72.0,6,167,13.0,0.0
6245,64.0,12,1875,10.0,0.0
6246,79.0,2,134,12.0,0.0
6247,76.0,6,171,13.0,0.0
6248,72.0,7,174,14.0,0.0
6249,46.0,18,135,15.0,0.0
6250,58.0,0,134,15.0,0.0
6251,40.0,8,41,1.0,0.0
6252,79.0,1,54,2.0,0.0
6253,72.0,40,61,2.0,0.0
6254,52.0,74,69,0.0,0.0
6255,55.0,80,79,0.0,0.0
6256,58.0,29,501,3.0,0.0
6257,46.0,11,490,5.0,0.0
6258,58.0,3,483,4.0,0.0
6259,46.0,2,482,0.0,0.0
6260,34.0,9,460,0.0,0.0
6261,64.0,41,87,0.0,0.0
6262,58.0,2,471,2.0,0.0
6263,67.0,15,70,0.0,0.0
6264,34.0,7,463,6.0,0.0
6265,60.0,18,58,0.0,0.0
6266,67.0,66,29,0.0,0.0
6267,64.0,7,15,0.0,0.0
6268,67.0,68,47,0.0,0.0
6269,79.0,7,56,0.0,0.0
6270,76.0,39,62,0.0,0.0
6271,72.0,26,54,0.0,0.0
6272,76.0,72,26,0.0,0.0
6273,79.0,1,21,0.0,0.0
6274,79.0,24,45,0.0,0.0
6275,88.0,30,78,0.0,0.0
6276,91.0,17,61,0.0,0.0
6277,84.0,38,42,0.0,0.0
6278,79.0,56,30,0.0,0.0
6279,72.0,60,30,0.0,0.0
6280,58.0,20,300,2.0,0.0
6281,58.0,6,286,3.0,0.0
6282,58.0,9,267,4.0,0.0
6283,46.0,1,264,5.0,0.0
6284,46.0,2,35,0.0,0.0
6285,79.0,16,65,0.0,0.0
6286,34.0,30,34,0.0,0.0
6287,76.0,25,78,0.0,0.0
6288,34.0,9,258,6.0,0.0
6289,72.0,45,44,0.0,0.0
6290,67.0,59,34,0.0,0.0
6291,60.0,42,35,0.0,0.0
6292,59.0,5,252,4.0,0.0
6293,47.0,17,268,5.0,0.0
6294,47.0,27,184,0.0,0.0
6295,67.0,14,62,0.0,0.0
6296,35.0,52,273,6.0,0.0
6297,64.0,36,74,0.0,0.0
6298,59.0,10,220,3.0,0.0
6299,35.0,22,159,0.0,0.0
6300,59.0,18,229,2.0,0.0
6301,59.0,34,55,0.0,0.0
6302,67.0,14,29,0.0,0.0
6303,64.0,2,26,0.0,0.0
6304,67.0,12,34,0.0,0.0
6305,36.0,40,841,6.0,0.0
6306,60.0,0,155,2.0,0.0
6307,60.0,0,145,3.0,0.0
6308,60.0,122,140,4.0,0.0
6309,48.0,27,431,5.0,0.0
6310,48.0,20,676,0.0,0.0
6311,36.0,25,649,0.0,0.0
6312,70.0,1,29,0.0,0.0
6313,79.0,72,31,0.0,0.0
6314,76.0,1,29,0.0,0.0
6315,52.0,114,31,0.0,0.0
6316,55.0,49,34,0.0,0.0
6317,67.0,63,46,0.0,0.0
6318,64.0,7,38,0.0,0.0
6319,58.0,47,38,0.0,0.0
6320,67.0,67,22,0.0,0.0
6321,64.0,1,20,0.0,0.0
6322,67.0,32,31,0.0,0.0
6323,79.0,19,47,0.0,0.0
6324,76.0,20,65,0.0,0.0
6325,70.0,38,37,0.0,0.0
6326,79.0,15,25,0.0,0.0
6327,76.0,5,19,0.0,0.0
6328,79.0,29,28,0.0,0.0
6329,48.0,92,57,0.0,0.0
6330,55.0,26,313,0.0,0.0
6331,91.0,22,57,0.0,0.0
6332,88.0,22,79,0.0,0.0
6333,58.0,7,278,0.0,0.0
6334,64.0,4,271,0.0,0.0
6335,82.0,43,35,0.0,0.0
6336,91.0,63,28,0.0,0.0
6337,88.0,7,20,0.0,0.0
6338,91.0,61,41,0.0,0.0
6339,100.0,24,100,0.0,0.0
6340,94.0,31,69,0.0,0.0
6341,91.0,89,53,0.0,0.0
6342,94.0,34,112,0.0,0.0
6343,100.0,44,67,0.0,0.0
6344,90.0,89,67,0.0,0.0
6345,60.0,0,122,4.0,0.0
6346,36.0,12,457,6.0,0.0
6347,48.0,26,224,0.0,0.0
6348,36.0,35,249,0.0,0.0
6349,60.0,25,415,2.0,0.0
6350,48.0,124,451,5.0,0.0
6351,94.0,58,111,0.0,0.0
6352,100.0,27,67,0.0,0.0
6353,60.0,13,82,3.0,0.0
6354,89.0,45,86,0.0,0.0
6355,94.0,29,99,0.0,0.0
6356,100.0,2,58,0.0,0.0
6357,88.0,105,42,0.0,0.0
6358,47.0,10,281,0.0,0.0
6359,95.0,68,184,0.0,0.0
6360,35.0,28,249,0.0,0.0
6361,59.0,42,2005,3.0,0.0
6362,59.0,1,1731,4.0,0.0
6363,47.0,9,1728,5.0,0.0
6364,59.0,15,3198,2.0,0.0
6365,35.0,11,1934,6.0,0.0
6366,87.0,35,136,0.0,0.0
6367,81.0,111,68,0.0,0.0
6368,90.0,74,88,0.0,0.0
6369,94.0,82,78,0.0,0.0
6370,59.0,6,69,0.0,0.0
6371,86.0,32,111,0.0,0.0
6372,65.0,33,66,0.0,0.0
6373,80.0,22,67,0.0,0.0
6374,68.0,3,56,0.0,0.0
6375,74.0,48,28,0.0,0.0
6376,89.0,43,69,0.0,0.0
6377,93.0,68,54,0.0,0.0
6378,59.0,0,49,0.0,0.0
6379,85.0,27,91,0.0,0.0
6380,64.0,21,56,0.0,0.0
6381,67.0,7,69,0.0,0.0
6382,79.0,14,55,0.0,0.0
6383,73.0,41,29,0.0,0.0
6384,88.0,48,53,0.0,0.0
6385,92.0,4,63,0.0,0.0
6386,59.0,56,59,0.0,0.0
6387,84.0,8,67,0.0,0.0
6388,63.0,42,65,0.0,0.0
6389,78.0,3,61,0.0,0.0
6390,66.0,8,57,0.0,0.0
6391,72.0,39,30,0.0,0.0
6392,87.0,49,59,0.0,0.0
6393,91.0,9,62,0.0,0.0
6394,59.0,1,57,0.0,0.0
6395,83.0,11,87,0.0,0.0
6396,89.0,39,26,0.0,0.0
6397,62.0,21,59,0.0,0.0
6398,77.0,20,46,0.0,0.0
6399,65.0,38,57,0.0,0.0
6400,71.0,6,49,0.0,0.0
6401,86.0,58,55,0.0,0.0
6402,90.0,14,66,0.0,0.0
6403,59.0,46,67,0.0,0.0
6404,82.0,0,68,0.0,0.0
6405,61.0,30,67,0.0,0.0
6406,76.0,17,47,0.0,0.0
6407,64.0,23,63,0.0,0.0
6408,70.0,22,41,0.0,0.0
6409,85.0,42,56,0.0,0.0
6410,89.0,27,49,0.0,0.0
6411,59.0,43,73,0.0,0.0
6412,81.0,26,66,0.0,0.0
6413,60.0,1,60,0.0,0.0
6414,63.0,20,63,0.0,0.0
6415,75.0,19,43,0.0,0.0
6416,69.0,14,49,0.0,0.0
6417,84.0,45,59,0.0,0.0
6418,88.0,88,58,0.0,0.0
6419,59.0,24,184,0.0,0.0
6420,80.0,17,91,0.0,0.0
6421,62.0,1,106,0.0,0.0
6422,74.0,22,50,0.0,0.0
6423,68.0,20,87,0.0,0.0
6424,83.0,18,65,0.0,0.0
6425,59.0,54,145,0.0,0.0
6426,87.0,71,72,0.0,0.0
6427,79.0,2,70,0.0,0.0
6428,67.0,37,107,0.0,0.0
6429,73.0,21,76,0.0,0.0
6430,82.0,45,79,0.0,0.0
6431,59.0,20,129,0.0,0.0
6432,86.0,64,60,0.0,0.0
6433,78.0,22,87,0.0,0.0
6434,66.0,60,62,0.0,0.0
6435,72.0,1,55,0.0,0.0
6436,81.0,38,60,0.0,0.0
6437,59.0,19,125,0.0,0.0
6438,85.0,50,54,0.0,0.0
6439,77.0,26,70,0.0,0.0
6440,65.0,9,118,0.0,0.0
6441,71.0,64,46,0.0,0.0
6442,80.0,55,62,0.0,0.0
6443,84.0,101,61,0.0,0.0
6444,59.0,12,150,0.0,0.0
6445,76.0,24,100,0.0,0.0
6446,64.0,10,150,0.0,0.0
6447,70.0,93,47,0.0,0.0
6448,79.0,105,82,0.0,0.0
6449,63.0,33,179,0.0,0.0
6450,83.0,66,109,0.0,0.0
6451,59.0,8,211,0.0,0.0
6452,75.0,3,71,0.0,0.0
6453,69.0,49,40,0.0,0.0
6454,66.0,75,43,0.0,0.0
6455,71.0,51,57,0.0,0.0
6456,63.0,41,40,0.0,0.0
6457,57.0,73,22,0.0,0.0
6458,54.0,63,44,0.0,0.0
6459,59.0,49,57,0.0,0.0
6460,54.0,34,57,0.0,0.0
6461,51.0,30,39,0.0,0.0
6462,45.0,95,34,0.0,0.0
6463,52.0,47,66,0.0,0.0
6464,36.0,4,493,0.0,0.0
6465,48.0,14,478,0.0,0.0
6466,36.0,5,680,6.0,0.0
6467,48.0,4,691,5.0,0.0
6468,64.0,20,691,3.0,0.0
6469,69.0,10,674,2.0,0.0
6470,54.0,13,2462,4.0,0.0
6471,57.0,26,54,0.0,0.0
6472,54.0,60,35,0.0,0.0
6473,57.0,80,45,0.0,0.0
6474,64.0,49,57,0.0,0.0
6475,69.0,23,59,0.0,0.0
6476,66.0,62,30,0.0,0.0
6477,69.0,67,38,0.0,0.0
6478,76.0,55,58,0.0,0.0
6479,81.0,37,62,0.0,0.0
6480,78.0,28,49,0.0,0.0
6481,81.0,74,34,0.0,0.0
6482,83.0,82,83,0.0,0.0
6483,47.0,20,357,0.0,0.0
6484,35.0,5,635,0.0,0.0
6485,71.0,36,730,2.0,0.0
6486,35.0,1,720,6.0,0.0
6487,63.0,11,672,3.0,0.0
6488,47.0,137,739,5.0,0.0
6489,75.0,42,54,0.0,0.0
6490,69.0,65,30,0.0,0.0
6491,66.0,66,40,0.0,0.0
6492,71.0,22,53,0.0,0.0
6493,63.0,44,41,0.0,0.0
6494,57.0,68,32,0.0,0.0
6495,54.0,83,48,0.0,0.0
6496,59.0,63,72,0.0,0.0
6497,54.0,35,81,0.0,0.0
6498,51.0,28,49,0.0,0.0
6499,45.0,20,38,0.0,0.0
6500,72.0,49,2226,2.0,0.0
6501,33.0,24,1113,6.0,0.0
6502,45.0,105,1105,5.0,0.0
6503,64.0,13,2014,3.0,0.0
6504,33.0,25,747,0.0,0.0
6505,45.0,49,697,0.0,0.0
6506,52.0,62,126,0.0,0.0
6507,60.0,35,67,0.0,0.0
6508,54.0,62,33,0.0,0.0
6509,57.0,69,40,0.0,0.0
6510,64.0,61,45,0.0,0.0
6511,72.0,38,49,0.0,0.0
6512,66.0,78,31,0.0,0.0
6513,69.0,72,46,0.0,0.0
6514,76.0,87,36,0.0,0.0
6515,84.0,7,43,0.0,0.0
6516,78.0,97,33,0.0,0.0
6517,81.0,162,34,0.0,0.0
6518,30.0,6,1028,6.0,0.0
6519,42.0,157,225,0.0,0.0
6520,30.0,39,185,0.0,0.0
6521,57.0,84,626,4.0,0.0
6522,42.0,30,1072,5.0,0.0
6523,100.0,29,137,0.0,0.0
6524,96.0,112,69,0.0,0.0
6525,93.0,50,89,0.0,0.0
6526,90.0,48,98,0.0,0.0
6527,54.0,36,43,0.0,0.0
6528,60.0,52,221,0.0,0.0
6529,88.0,33,133,0.0,0.0
6530,64.0,46,412,0.0,0.0
6531,69.0,41,223,0.0,0.0
6532,84.0,36,33,0.0,0.0
6533,81.0,26,49,0.0,0.0
6534,78.0,42,64,0.0,0.0
6535,76.0,27,44,0.0,0.0
6536,72.0,27,33,0.0,0.0
6537,69.0,27,52,0.0,0.0
6538,66.0,6,54,0.0,0.0
6539,64.0,48,51,0.0,0.0
6540,60.0,101,41,0.0,0.0
6541,57.0,59,68,0.0,0.0
6542,54.0,70,63,0.0,0.0
6543,52.0,113,61,0.0,0.0
6544,48.0,301,97,0.0,0.0
6545,45.0,114,336,0.0,0.0
6546,42.0,42,189,0.0,0.0
6547,40.0,42,274,0.0,0.0
6548,75.0,78,155,0.0,0.0
6549,76.0,10,107,0.0,0.0
6550,75.0,80,70,0.0,0.0
6551,73.0,79,96,0.0,0.0
6552,75.0,350,106,0.0,0.0
6553,36.0,85,419,0.0,0.0
6554,76.0,43,351,0.0,0.0
6555,78.0,570,127,0.0,0.0
6556,35.0,29,480,0.0,0.0
6557,78.0,419,503,0.0,0.0
6558,57.0,68,2376,3.0,0.0
6559,47.0,24,2492,5.0,0.0
6560,63.0,31,2306,2.0,0.0
6561,35.0,181,2438,6.0,0.0
6562,47.0,45,203,0.0,0.0
6563,54.0,25,159,0.0,0.0
6564,57.0,48,110,0.0,0.0
6565,63.0,1311,93,0.0,0.0
6566,69.0,59,1396,0.0,0.0
6567,68.0,207,301,0.0,0.0
6568,69.0,124,242,0.0,0.0
6569,68.0,126,176,0.0,0.0
6570,66.0,127,151,0.0,0.0
6571,68.0,185,139,0.0,0.0
6572,69.0,233,189,0.0,0.0
6573,40.0,50,323,0.0,0.0
6574,71.0,2,235,0.0,0.0
6575,52.0,319,50,0.0,0.0
6576,59.0,80,162,0.0,0.0
6577,71.0,6,153,0.0,0.0
6578,68.0,210,76,0.0,0.0
6579,73.0,95,226,0.0,0.0
6580,69.0,97,124,0.0,0.0
6581,59.0,118,215,0.0,0.0
6582,75.0,56,75,0.0,0.0
6583,52.0,36,164,0.0,0.0
6584,76.0,12,197,0.0,0.0
6585,59.0,234,59,0.0,0.0
6586,68.0,24,149,0.0,0.0
6587,76.0,102,170,0.0,0.0
6588,59.0,138,138,0.0,0.0
6589,78.0,29,163,0.0,0.0
6590,69.0,18,138,0.0,0.0
6591,59.0,344,52,0.0,0.0
6592,52.0,32,215,0.0,0.0
6593,80.0,177,259,0.0,0.0
6594,59.0,20,48,0.0,0.0
6595,78.0,138,183,0.0,0.0
6596,71.0,105,66,0.0,0.0
6597,59.0,134,156,0.0,0.0
6598,76.0,2,151,0.0,0.0
6599,75.0,2,149,0.0,0.0
6600,56.0,170,127,0.0,0.0
6601,59.0,183,185,0.0,0.0
6602,73.0,5,179,0.0,0.0
6603,75.0,18,625,0.0,0.0
6604,47.0,71,218,0.0,0.0
6605,54.0,105,144,0.0,0.0
6606,59.0,128,116,0.0,0.0
6607,54.0,103,110,0.0,0.0
6608,63.0,273,70,0.0,0.0
6609,51.0,226,185,0.0,0.0
6610,45.0,33,241,0.0,0.0
6611,73.0,57,219,0.0,0.0
6612,52.0,159,80,0.0,0.0
6613,73.0,209,99,0.0,0.0
6614,61.0,2,82,0.0,0.0
6615,51.0,171,203,0.0,0.0
6616,44.0,48,84,0.0,0.0
6617,71.0,14,268,0.0,0.0
6618,59.0,83,167,0.0,0.0
6619,52.0,101,78,0.0,0.0
6620,68.0,229,110,0.0,0.0
6621,42.0,89,251,0.0,0.0
6622,71.0,221,344,0.0,0.0
6623,49.0,16,158,0.0,0.0
6624,51.0,30,269,0.0,0.0
6625,69.0,157,336,0.0,0.0
6626,59.0,48,148,0.0,0.0
6627,52.0,191,381,0.0,0.0
6628,68.0,28,212,0.0,0.0
6629,59.0,138,82,0.0,0.0
6630,45.0,191,238,0.0,0.0
6631,68.0,56,556,0.0,0.0
6632,52.0,150,180,0.0,0.0
6633,54.0,35,241,0.0,0.0
6634,66.0,93,154,0.0,0.0
6635,52.0,7,131,0.0,0.0
6636,64.0,177,187,0.0,0.0
6637,61.0,82,96,0.0,0.0
6638,51.0,31,212,0.0,0.0
6639,66.0,377,241,0.0,0.0
6640,44.0,221,593,0.0,0.0
6641,63.0,115,1028,0.0,0.0
6642,51.0,56,260,0.0,0.0
6643,60.0,72,149,0.0,0.0
6644,51.0,112,243,0.0,0.0
6645,42.0,80,180,0.0,0.0
6646,57.0,150,804,3.0,0.0
6647,59.0,52,231,0.0,0.0
6648,59.0,74,717,2.0,0.0
6649,42.0,79,633,5.0,0.0
6650,59.0,132,1152,4.0,0.0
6651,57.0,191,111,0.0,0.0
6652,64.0,59,156,0.0,0.0
6653,56.0,40,401,3.0,0.0
6654,64.0,98,462,2.0,0.0
6655,40.0,9,432,5.0,0.0
6656,40.0,7,321,0.0,0.0
6657,59.0,121,2028,7.0,0.0
6658,64.0,7,375,0.0,0.0
6659,56.0,28,261,0.0,0.0
6660,59.0,28,64,0.0,0.0
6661,64.0,160,213,0.0,0.0
6662,68.0,63,125,0.0,0.0
6663,59.0,109,205,0.0,0.0
6664,66.0,44,288,0.0,0.0
6665,69.0,102,182,0.0,0.0
6666,59.0,44,195,0.0,0.0
6667,68.0,33,198,0.0,0.0
6668,71.0,54,117,0.0,0.0
6669,73.0,18,53,0.0,0.0
6670,59.0,54,346,0.0,0.0
6671,71.0,35,58,0.0,0.0
6672,70.0,83,46,0.0,0.0
6673,71.0,143,84,0.0,0.0
6674,69.0,82,278,0.0,0.0
6675,73.0,61,202,0.0,0.0
6676,59.0,2,152,0.0,0.0
6677,75.0,65,145,0.0,0.0
6678,76.0,147,165,0.0,0.0
6679,69.0,84,67,0.0,0.0
6680,59.0,13,191,0.0,0.0
6681,78.0,19,188,0.0,0.0
6682,52.0,35,239,0.0,0.0
6683,71.0,11,1921,7.0,0.0
6684,80.0,18,162,0.0,0.0
6685,59.0,218,51,0.0,0.0
6686,78.0,72,161,0.0,0.0
6687,71.0,62,86,0.0,0.0
6688,80.0,54,101,0.0,0.0
6689,78.0,56,75,0.0,0.0
6690,59.0,57,215,0.0,0.0
6691,76.0,55,57,0.0,0.0
6692,78.0,35,71,0.0,0.0
6693,80.0,8,44,0.0,0.0
6694,56.0,32,270,0.0,0.0
6695,76.0,45,55,0.0,0.0
6696,75.0,69,51,0.0,0.0
6697,76.0,44,57,0.0,0.0
6698,75.0,49,59,0.0,0.0
6699,59.0,29,307,0.0,0.0
6700,73.0,46,83,0.0,0.0
6701,75.0,63,69,0.0,0.0
6702,76.0,91,79,0.0,0.0
6703,73.0,246,129,0.0,0.0
6704,47.0,73,328,0.0,0.0
6705,75.0,35,1043,0.0,0.0
6706,54.0,108,156,0.0,0.0
6707,59.0,107,128,0.0,0.0
6708,54.0,84,106,0.0,0.0
6709,63.0,210,70,0.0,0.0
6710,66.0,128,294,7.0,0.0
6711,51.0,34,156,0.0,0.0
6712,45.0,40,165,0.0,0.0
6713,69.0,37,368,7.0,0.0
6714,52.0,123,101,0.0,0.0
6715,73.0,23,62,0.0,0.0
6716,64.0,116,242,7.0,0.0
6717,61.0,74,146,0.0,0.0
6718,75.0,89,42,0.0,0.0
6719,66.0,109,237,7.0,0.0
6720,51.0,49,313,0.0,0.0
6721,73.0,42,98,0.0,0.0
6722,71.0,30,47,0.0,0.0
6723,68.0,57,751,7.0,0.0
6724,59.0,64,164,0.0,0.0
6725,71.0,10,697,0.0,0.0
6726,52.0,363,66,0.0,0.0
6727,42.0,119,261,0.0,0.0
6728,49.0,140,242,0.0,0.0
6729,51.0,34,255,0.0,0.0
6730,69.0,62,286,0.0,0.0
6731,66.0,97,315,7.0,0.0
6732,59.0,9,149,0.0,0.0
6733,68.0,9,183,0.0,0.0
6734,52.0,161,217,0.0,0.0
6735,64.0,142,331,7.0,0.0
6736,59.0,25,34,0.0,0.0
6737,35.0,9,1111,6.0,0.0
6738,47.0,8,1048,5.0,0.0
6739,68.0,23,237,0.0,0.0
6740,57.0,31,1076,3.0,0.0
6741,63.0,2,695,2.0,0.0
6742,35.0,45,168,0.0,0.0
6743,59.0,1,1025,7.0,0.0
6744,66.0,159,154,0.0,0.0
6745,47.0,113,41,0.0,0.0
6746,54.0,110,206,0.0,0.0
6747,75.0,48,143,0.0,0.0
6748,73.0,112,176,0.0,0.0
6749,57.0,11,158,0.0,0.0
6750,69.0,70,180,0.0,0.0
6751,66.0,193,440,2.0,0.0
6752,61.0,39,133,0.0,0.0
6753,63.0,22,213,0.0,0.0
6754,59.0,123,69,0.0,0.0
6755,40.0,5,358,5.0,0.0
6756,40.0,63,269,0.0,0.0
6757,64.0,11,667,0.0,0.0
6758,56.0,116,356,3.0,0.0
6759,64.0,47,616,7.0,0.0
6760,64.0,96,518,2.0,0.0
6761,40.0,26,477,6.0,0.0
6762,47.0,24,159,0.0,0.0
6763,52.0,22,139,0.0,0.0
6764,56.0,289,203,0.0,0.0
6765,59.0,246,311,0.0,0.0
6766,52.0,261,339,0.0,0.0
6767,47.0,63,1309,0.0,0.0
6768,63.0,153,302,0.0,0.0
6769,54.0,60,244,0.0,0.0
6770,59.0,23,245,0.0,0.0
6771,75.0,97,140,0.0,0.0
6772,63.0,43,92,0.0,0.0
6773,54.0,181,79,0.0,0.0
6774,76.0,27,150,0.0,0.0
6775,55.0,138,172,0.0,0.0
6776,64.0,23,116,0.0,0.0
6777,59.0,174,185,0.0,0.0
6778,51.0,16,203,0.0,0.0
6779,78.0,1,211,0.0,0.0
6780,66.0,30,204,0.0,0.0
6781,54.0,5,171,0.0,0.0
6782,78.0,149,125,0.0,0.0
6783,54.0,7,34,4.0,0.0
6784,47.0,64,55,5.0,0.0
6785,59.0,1,116,0.0,0.0
6786,71.0,15,33,2.0,0.0
6787,66.0,2,113,0.0,0.0
6788,63.0,1,31,3.0,0.0
6789,54.0,56,139,0.0,0.0
6790,63.0,41,105,0.0,0.0
6791,78.0,154,159,0.0,0.0
6792,66.0,19,133,0.0,0.0
6793,63.0,2,39,3.0,0.0
6794,54.0,6,44,4.0,0.0
6795,47.0,29,49,5.0,0.0
6796,71.0,5,27,2.0,0.0
6797,51.0,96,173,0.0,0.0
6798,46.0,2,264,0.0,0.0
6799,52.0,8,250,0.0,0.0
6800,46.0,57,132,5.0,0.0
6801,55.0,20,92,4.0,0.0
6802,79.0,27,178,0.0,0.0
6803,64.0,5,105,3.0,0.0
6804,67.0,10,165,0.0,0.0
6805,73.0,9,91,2.0,0.0
6806,55.0,184,34,0.0,0.0
6807,78.0,26,50,0.0,0.0
6808,66.0,5,42,0.0,0.0
6809,61.0,126,73,0.0,0.0
6810,55.0,51,134,0.0,0.0
6811,76.0,8,52,0.0,0.0
6812,64.0,66,52,0.0,0.0
6813,52.0,11,148,0.0,0.0
6814,75.0,82,54,0.0,0.0
6815,63.0,4,42,0.0,0.0
6816,73.0,116,38,0.0,0.0
6817,61.0,13,20,0.0,0.0
6818,55.0,294,127,0.0,0.0
6819,47.0,71,810,0.0,0.0
6820,76.0,27,330,0.0,0.0
6821,64.0,45,346,0.0,0.0
6822,54.0,30,152,0.0,0.0
6823,59.0,178,122,0.0,0.0
6824,54.0,5,171,0.0,0.0
6825,47.0,0,42,5.0,0.0
6826,75.0,3,359,0.0,0.0
6827,47.0,7,36,6.0,0.0
6828,63.0,15,357,0.0,0.0
6829,54.0,1,29,4.0,0.0
6830,63.0,0,27,2.0,0.0
6831,59.0,43,182,0.0,0.0
6832,59.0,144,37,3.0,0.0
6833,54.0,41,166,0.0,0.0
6834,59.0,334,81,3.0,0.0
6835,54.0,11,45,4.0,0.0
6836,47.0,40,820,0.0,0.0
6837,63.0,2,49,2.0,0.0
6838,35.0,2,69,6.0,0.0
6839,47.0,3,62,5.0,0.0
6840,54.0,84,211,0.0,0.0
6841,75.0,42,160,0.0,0.0
6842,59.0,20,184,0.0,0.0
6843,63.0,15,121,0.0,0.0
6844,54.0,102,73,0.0,0.0
6845,76.0,32,87,0.0,0.0
6846,55.0,80,106,0.0,0.0
6847,64.0,33,41,0.0,0.0
6848,59.0,229,124,0.0,0.0
6849,51.0,20,294,0.0,0.0
6850,78.0,41,221,0.0,0.0
6851,47.0,27,260,0.0,0.0
6852,66.0,3,207,0.0,0.0
6853,54.0,73,175,0.0,0.0
6854,78.0,71,143,0.0,0.0
6855,66.0,4,137,0.0,0.0
6856,59.0,28,108,0.0,0.0
6857,54.0,71,97,0.0,0.0
6858,78.0,203,123,0.0,0.0
6859,47.0,6,346,5.0,0.0
6860,63.0,62,58,0.0,0.0
6861,66.0,27,29,0.0,0.0
6862,54.0,22,347,4.0,0.0
6863,71.0,119,375,2.0,0.0
6864,63.0,7,360,3.0,0.0
6865,51.0,22,180,0.0,0.0
6866,46.0,17,237,0.0,0.0
6867,52.0,7,228,0.0,0.0
6868,46.0,21,690,5.0,0.0
6869,64.0,2,625,3.0,0.0
6870,73.0,30,649,2.0,0.0
6871,55.0,23,699,4.0,0.0
6872,79.0,10,182,0.0,0.0
6873,67.0,5,168,0.0,0.0
6874,55.0,158,35,0.0,0.0
6875,78.0,6,42,0.0,0.0
6876,66.0,14,41,0.0,0.0
6877,61.0,119,51,0.0,0.0
6878,55.0,22,128,0.0,0.0
6879,76.0,6,43,0.0,0.0
6880,64.0,79,43,0.0,0.0
6881,52.0,14,132,0.0,0.0
6882,75.0,9,48,0.0,0.0
6883,63.0,17,25,0.0,0.0
6884,73.0,100,35,0.0,0.0
6885,61.0,4,27,0.0,0.0
6886,55.0,179,120,0.0,0.0
6887,47.0,26,722,0.0,0.0
6888,76.0,24,175,0.0,0.0
6889,64.0,109,193,0.0,0.0
6890,54.0,156,178,0.0,0.0
6891,71.0,51,381,2.0,0.0
6892,47.0,10,791,5.0,0.0
6893,54.0,11,337,4.0,0.0
6894,75.0,116,221,0.0,0.0
6895,59.0,9,210,0.0,0.0
6896,63.0,14,346,3.0,0.0
6897,63.0,16,192,0.0,0.0
6898,54.0,4,208,0.0,0.0
6899,57.0,65,224,0.0,0.0
6900,59.0,71,413,4.0,0.0
6901,69.0,149,491,2.0,0.0
6902,76.0,59,150,0.0,0.0
6903,64.0,20,125,0.0,0.0
6904,59.0,41,765,3.0,0.0
6905,47.0,93,47,0.0,0.0
6906,78.0,9,78,0.0,0.0
6907,66.0,28,48,0.0,0.0
6908,40.0,41,226,0.0,0.0
6909,80.0,242,384,0.0,0.0
6910,68.0,40,629,2.0,0.0
6911,68.0,44,294,0.0,0.0
6912,59.0,2,1733,4.0,0.0
6913,52.0,24,1107,5.0,0.0
6914,52.0,58,37,0.0,0.0
6915,64.0,47,385,3.0,0.0
6916,59.0,13,321,0.0,0.0
6917,64.0,8,137,0.0,0.0
6918,81.0,156,152,0.0,0.0
6919,69.0,8,307,2.0,0.0
6920,69.0,14,128,0.0,0.0
6921,66.0,7,132,0.0,0.0
6922,66.0,28,292,3.0,0.0
6923,59.0,47,219,0.0,0.0
6924,68.0,101,177,0.0,0.0
6925,83.0,10,165,0.0,0.0
6926,71.0,21,140,0.0,0.0
6927,71.0,1,287,2.0,0.0
6928,68.0,88,275,3.0,0.0
6929,59.0,19,256,0.0,0.0
6930,66.0,7,356,3.0,0.0
6931,47.0,3,622,5.0,0.0
6932,69.0,158,663,2.0,0.0
6933,69.0,28,200,0.0,0.0
6934,85.0,61,127,0.0,0.0
6935,73.0,9,114,0.0,0.0
6936,59.0,12,148,0.0,0.0
6937,87.0,95,46,0.0,0.0
6938,75.0,9,36,0.0,0.0
6939,47.0,9,318,6.0,0.0
6940,59.0,21,320,7.0,0.0
6941,88.0,23,32,0.0,0.0
6942,69.0,139,52,0.0,0.0
6943,76.0,9,18,0.0,0.0
6944,63.0,2,274,3.0,0.0
6945,59.0,9,175,0.0,0.0
6946,78.0,51,73,0.0,0.0
6947,90.0,40,124,0.0,0.0
6948,52.0,12,260,0.0,0.0
6949,40.0,6,916,5.0,0.0
6950,64.0,6,945,3.0,0.0
6951,64.0,15,671,7.0,0.0
6952,68.0,17,922,2.0,0.0
6953,92.0,5,213,0.0,0.0
6954,80.0,1,210,0.0,0.0
6955,40.0,13,900,6.0,0.0
6956,59.0,44,1804,4.0,0.0
6957,59.0,183,41,0.0,0.0
6958,71.0,2,55,0.0,0.0
6959,90.0,138,57,0.0,0.0
6960,78.0,4,50,0.0,0.0
6961,59.0,7,159,0.0,0.0
6962,88.0,14,40,0.0,0.0
6963,76.0,97,52,0.0,0.0
6964,68.0,102,311,7.0,0.0
6965,87.0,1,46,0.0,0.0
6966,75.0,75,40,0.0,0.0
6967,56.0,33,115,0.0,0.0
6968,85.0,87,53,0.0,0.0
6969,73.0,15,36,0.0,0.0
6970,59.0,10,132,0.0,0.0
6971,66.0,42,643,2.0,0.0
6972,47.0,107,334,6.0,0.0
6973,47.0,110,217,0.0,0.0
6974,63.0,4,936,3.0,0.0
6975,47.0,1,937,5.0,0.0
6976,87.0,23,131,0.0,0.0
6977,59.0,75,418,7.0,0.0
6978,75.0,27,144,0.0,0.0
6979,54.0,4,110,0.0,0.0
6980,59.0,25,89,0.0,0.0
6981,54.0,93,67,0.0,0.0
6982,68.0,78,416,2.0,0.0
6983,63.0,241,71,0.0,0.0
6984,51.0,25,172,0.0,0.0
6985,45.0,64,221,0.0,0.0
6986,49.0,2,22,0.0,0.0
6987,61.0,8,380,3.0,0.0
6988,61.0,148,446,4.0,0.0
6989,45.0,16,367,5.0,0.0
6990,85.0,8,145,0.0,0.0
6991,69.0,13,264,2.0,0.0
6992,73.0,20,118,0.0,0.0
6993,52.0,50,61,0.0,0.0
6994,87.0,48,23,0.0,0.0
6995,75.0,2,18,0.0,0.0
6996,73.0,22,32,0.0,0.0
6997,61.0,21,50,0.0,0.0
6998,85.0,1,26,0.0,0.0
6999,51.0,13,157,0.0,0.0
7000,71.0,9,34,0.0,0.0
7001,83.0,14,42,0.0,0.0
7002,44.0,37,55,0.0,0.0
7003,83.0,62,48,0.0,0.0
7004,59.0,22,208,3.0,0.0
7005,71.0,8,36,0.0,0.0
7006,44.0,136,241,5.0,0.0
7007,64.0,17,162,2.0,0.0
7008,59.0,63,95,0.0,0.0
7009,52.0,21,43,0.0,0.0
7010,68.0,4,30,0.0,0.0
7011,80.0,12,34,0.0,0.0
7012,42.0,147,262,0.0,0.0
7013,83.0,23,160,0.0,0.0
7014,71.0,17,178,0.0,0.0
7015,80.0,122,22,0.0,0.0
7016,49.0,83,162,0.0,0.0
7017,51.0,4,293,5.0,0.0
7018,66.0,84,294,2.0,0.0
7019,81.0,2,122,0.0,0.0
7020,69.0,4,121,0.0,0.0
7021,51.0,144,121,0.0,0.0
7022,59.0,100,597,3.0,0.0
7023,59.0,17,141,0.0,0.0
7024,52.0,43,141,0.0,0.0
7025,80.0,5,118,0.0,0.0
7026,68.0,10,118,0.0,0.0
7027,52.0,84,276,5.0,0.0
7028,64.0,4,620,2.0,0.0
7029,59.0,105,37,0.0,0.0
7030,67.0,26,394,0.0,0.0
7031,73.0,0,384,0.0,0.0
7032,76.0,28,369,0.0,0.0
7033,79.0,5,267,0.0,0.0
7034,55.0,44,339,4.0,0.0
7035,46.0,141,832,5.0,0.0
7036,46.0,101,157,0.0,0.0
7037,61.0,9,312,3.0,0.0
7038,52.0,1,139,0.0,0.0
7039,55.0,50,112,0.0,0.0
7040,52.0,100,69,0.0,0.0
7041,66.0,5,38,0.0,0.0
7042,78.0,36,43,0.0,0.0
7043,61.0,117,68,0.0,0.0
7044,52.0,123,45,0.0,0.0
7045,76.0,11,33,0.0,0.0
7046,64.0,11,18,0.0,0.0
7047,45.0,74,312,0.0,0.0
7048,45.0,25,993,5.0,0.0
7049,63.0,209,1101,2.0,0.0
7050,54.0,84,1011,4.0,0.0
7051,59.0,0,981,3.0,0.0
7052,75.0,92,149,0.0,0.0
7053,63.0,13,134,0.0,0.0
7054,51.0,40,206,0.0,0.0
7055,76.0,6,47,0.0,0.0
7056,64.0,8,50,0.0,0.0
7057,54.0,21,264,0.0,0.0
7058,75.0,114,56,0.0,0.0
7059,63.0,4,48,0.0,0.0
7060,51.0,56,169,0.0,0.0
7061,61.0,23,49,0.0,0.0
7062,73.0,40,71,0.0,0.0
7063,59.0,117,191,0.0,0.0
7064,75.0,67,72,0.0,0.0
7065,63.0,9,62,0.0,0.0
7066,76.0,4,46,0.0,0.0
7067,64.0,15,28,0.0,0.0
7068,51.0,4,231,0.0,0.0
7069,78.0,98,80,0.0,0.0
7070,66.0,32,47,0.0,0.0
7071,44.0,85,385,0.0,0.0
7072,51.0,46,6752,4.0,0.0
7073,44.0,251,1053,5.0,0.0
7074,66.0,148,6022,2.0,0.0
7075,60.0,63,954,3.0,0.0
7076,80.0,34,567,0.0,0.0
7077,68.0,37,386,0.0,0.0
7078,51.0,142,177,0.0,0.0
7079,54.0,50,213,0.0,0.0
7080,51.0,98,133,0.0,0.0
7081,60.0,152,97,0.0,0.0
7082,51.0,9,230,0.0,0.0
7083,78.0,22,60,0.0,0.0
7084,66.0,6,47,0.0,0.0
7085,45.0,92,297,0.0,0.0
7086,61.0,41,958,3.0,0.0
7087,45.0,141,995,5.0,0.0
7088,75.0,26,517,0.0,0.0
7089,63.0,59,376,0.0,0.0
7090,51.0,65,161,0.0,0.0
7091,54.0,75,156,0.0,0.0
7092,51.0,185,135,0.0,0.0
7093,61.0,168,177,0.0,0.0
7094,51.0,246,364,0.0,0.0
7095,44.0,238,1147,5.0,0.0
7096,60.0,50,1090,3.0,0.0
7097,44.0,98,363,0.0,0.0
7098,80.0,61,538,0.0,0.0
7099,68.0,35,497,0.0,0.0
7100,51.0,128,168,0.0,0.0
7101,54.0,7,257,0.0,0.0
7102,51.0,158,144,0.0,0.0
7103,60.0,132,149,0.0,0.0
7104,51.0,2,241,0.0,0.0
7105,78.0,13,52,0.0,0.0
7106,66.0,41,51,0.0,0.0
7107,61.0,58,1071,3.0,0.0
7108,45.0,94,288,0.0,0.0
7109,45.0,6,1112,5.0,0.0
7110,75.0,129,491,0.0,0.0
7111,63.0,98,371,0.0,0.0
7112,51.0,34,179,0.0,0.0
7113,54.0,13,186,0.0,0.0
7114,51.0,191,198,0.0,0.0
7115,61.0,221,223,0.0,0.0
7116,51.0,341,321,0.0,0.0
7117,44.0,122,427,0.0,0.0
7118,44.0,15,988,6.0,0.0
7119,60.0,65,900,3.0,0.0
7120,44.0,68,979,5.0,0.0
7121,92.0,21,1018,0.0,0.0
7122,80.0,112,1035,0.0,0.0
7123,51.0,218,205,0.0,0.0
7124,54.0,10,268,0.0,0.0
7125,51.0,104,148,0.0,0.0
7126,60.0,53,138,0.0,0.0
7127,51.0,8,152,0.0,0.0
7128,45.0,8,880,6.0,0.0
7129,45.0,11,266,0.0,0.0
7130,45.0,5,865,5.0,0.0
7131,59.0,20,1595,3.0,0.0
7132,51.0,4,252,0.0,0.0
7133,90.0,8,71,0.0,0.0
7134,78.0,110,89,0.0,0.0
7135,54.0,6,220,0.0,0.0
7136,76.0,161,53,0.0,0.0
7137,88.0,12,40,0.0,0.0
7138,87.0,84,76,0.0,0.0
7139,51.0,16,157,0.0,0.0
7140,75.0,4,68,0.0,0.0
7141,59.0,31,120,0.0,0.0
7142,85.0,57,59,0.0,0.0
7143,73.0,9,49,0.0,0.0
7144,83.0,0,41,0.0,0.0
7145,51.0,63,158,0.0,0.0
7146,71.0,107,36,0.0,0.0
7147,44.0,13,261,0.0,0.0
7148,44.0,14,1699,6.0,0.0
7149,44.0,9,1684,5.0,0.0
7150,64.0,157,1697,2.0,0.0
7151,81.0,17,239,0.0,0.0
7152,69.0,110,254,0.0,0.0
7153,51.0,3,130,0.0,0.0
7154,52.0,118,134,0.0,0.0
7155,51.0,43,151,0.0,0.0
7156,80.0,34,95,0.0,0.0
7157,68.0,36,58,0.0,0.0
7158,59.0,150,125,0.0,0.0
7159,51.0,114,207,0.0,0.0
7160,44.0,47,298,0.0,0.0
7161,49.0,3,927,4.0,0.0
7162,57.0,45,852,3.0,0.0
7163,90.0,14,110,0.0,0.0
7164,78.0,107,124,0.0,0.0
7165,49.0,67,175,0.0,0.0
7166,76.0,70,63,0.0,0.0
7167,88.0,3,59,0.0,0.0
7168,52.0,2,282,0.0,0.0
7169,87.0,110,65,0.0,0.0
7170,75.0,7,57,0.0,0.0
7171,49.0,24,129,0.0,0.0
7172,73.0,69,56,0.0,0.0
7173,85.0,3,52,0.0,0.0
7174,57.0,35,100,0.0,0.0
7175,83.0,55,45,0.0,0.0
7176,71.0,7,36,0.0,0.0
7177,49.0,1,167,0.0,0.0
7178,81.0,62,33,0.0,0.0
7179,69.0,7,21,0.0,0.0
7180,63.0,129,1693,2.0,0.0
7181,42.0,53,212,0.0,0.0
7182,80.0,17,255,0.0,0.0
7183,42.0,7,1656,5.0,0.0
7184,68.0,5,270,0.0,0.0
7185,61.0,105,697,4.0,0.0
7186,57.0,19,799,3.0,0.0
7187,42.0,15,1652,6.0,0.0
7188,49.0,101,131,0.0,0.0
7189,51.0,93,128,0.0,0.0
7190,49.0,1,139,0.0,0.0
7191,78.0,135,32,0.0,0.0
7192,66.0,4,27,0.0,0.0
7193,57.0,89,161,0.0,0.0
7194,49.0,111,242,0.0,0.0
7195,88.0,2,311,0.0,0.0
7196,76.0,75,310,0.0,0.0
7197,60.0,56,425,4.0,0.0
7198,56.0,46,1419,3.0,0.0
7199,42.0,39,234,0.0,0.0
7200,48.0,26,202,0.0,0.0
7201,87.0,52,72,0.0,0.0
7202,75.0,8,59,0.0,0.0
7203,51.0,18,157,0.0,0.0
7204,85.0,83,58,0.0,0.0
7205,73.0,12,43,0.0,0.0
7206,84.0,4,34,0.0,0.0
7207,48.0,13,128,0.0,0.0
7208,72.0,91,36,0.0,0.0
7209,81.0,18,34,0.0,0.0
7210,56.0,90,49,0.0,0.0
7211,69.0,12,19,0.0,0.0
7212,48.0,38,120,0.0,0.0
7213,80.0,75,39,0.0,0.0
7214,68.0,11,22,0.0,0.0
7215,40.0,82,205,0.0,0.0
7216,68.0,8,776,2.0,0.0
7217,61.0,25,492,4.0,0.0
7218,40.0,15,464,5.0,0.0
7219,40.0,15,446,6.0,0.0
7220,78.0,3,246,0.0,0.0
7221,66.0,14,245,0.0,0.0
7222,44.0,121,131,0.0,0.0
7223,49.0,51,142,0.0,0.0
7224,44.0,7,116,0.0,0.0
7225,76.0,7,65,0.0,0.0
7226,64.0,27,33,0.0,0.0
7227,56.0,78,110,0.0,0.0
7228,49.0,354,288,5.0,0.0
7229,64.0,3,943,3.0,0.0
7230,56.0,8,264,4.0,0.0
7231,49.0,91,41,0.0,0.0
7232,69.0,235,1130,2.0,0.0
7233,54.0,16,668,4.0,0.0
7234,48.0,137,659,6.0,0.0
7235,48.0,4,650,5.0,0.0
7236,48.0,70,453,0.0,0.0
7237,78.0,1,513,0.0,0.0
7238,76.0,51,392,0.0,0.0
7239,69.0,49,339,0.0,0.0
7240,66.0,36,297,0.0,0.0
7241,52.0,54,351,0.0,0.0
7242,54.0,15,275,0.0,0.0
7243,57.0,11,146,0.0,0.0
7244,47.0,2,210,0.0,0.0
7245,63.0,33,434,3.0,0.0
7246,47.0,16,366,5.0,0.0
7247,59.0,13,409,4.0,0.0
7248,78.0,4,192,0.0,0.0
7249,47.0,36,367,6.0,0.0
7250,66.0,6,173,0.0,0.0
7251,75.0,6,178,0.0,0.0
7252,71.0,143,177,0.0,0.0
7253,59.0,14,185,0.0,0.0
7254,68.0,44,2458,7.0,0.0
7255,52.0,113,416,4.0,0.0
7256,52.0,112,765,5.0,0.0
7257,52.0,24,341,0.0,0.0
7258,52.0,327,871,15.0,0.0
7259,68.0,0,648,2.0,0.0
7260,40.0,76,642,6.0,0.0
7261,64.0,9,717,3.0,0.0
7262,59.0,26,1178,14.0,0.0
7263,80.0,9,727,0.0,0.0
7264,78.0,32,334,0.0,0.0
7265,64.0,10,2410,14.0,0.0
7266,68.0,79,487,0.0,0.0
7267,71.0,54,549,0.0,0.0
7268,56.0,15,178,0.0,0.0
7269,76.0,5,381,0.0,0.0
7270,59.0,1,138,0.0,0.0
7271,56.0,4,140,0.0,0.0
7272,51.0,8,558,15.0,0.0
7273,64.0,0,55,0.0,0.0
7274,51.0,110,330,0.0,0.0
7275,49.0,55,1254,15.0,0.0
7276,57.0,9,1151,14.0,0.0
7277,49.0,194,204,0.0,0.0
7278,90.0,31,116,0.0,0.0
7279,78.0,1,144,0.0,0.0
7280,56.0,159,159,0.0,0.0
7281,76.0,14,81,0.0,0.0
7282,88.0,21,59,0.0,0.0
7283,57.0,3,239,0.0,0.0
7284,87.0,12,67,0.0,0.0
7285,75.0,125,76,0.0,0.0
7286,85.0,5,52,0.0,0.0
7287,73.0,94,59,0.0,0.0
7288,56.0,32,197,0.0,0.0
7289,83.0,59,43,0.0,0.0
7290,71.0,4,36,0.0,0.0
7291,69.0,5,29,0.0,0.0
7292,81.0,82,41,0.0,0.0
7293,64.0,7,33,0.0,0.0
7294,83.0,81,39,0.0,0.0
7295,71.0,7,29,0.0,0.0
7296,49.0,15,57,0.0,0.0
7297,73.0,4,39,0.0,0.0
7298,85.0,77,49,0.0,0.0
7299,85.0,17,143,0.0,0.0
7300,51.0,34,254,0.0,0.0
7301,73.0,96,151,0.0,0.0
7302,63.0,53,2132,14.0,0.0
7303,51.0,21,594,15.0,0.0
7304,57.0,51,910,14.0,0.0
7305,66.0,25,2102,7.0,0.0
7306,54.0,17,142,0.0,0.0
7307,66.0,29,39,0.0,0.0
7308,78.0,49,65,0.0,0.0
7309,57.0,143,109,0.0,0.0
7310,54.0,91,131,0.0,0.0
7311,63.0,269,111,0.0,0.0
7312,49.0,36,434,15.0,0.0
7313,88.0,6,448,0.0,0.0
7314,76.0,61,452,0.0,0.0
7315,49.0,27,183,0.0,0.0
7316,48.0,98,214,0.0,0.0
7317,56.0,233,935,14.0,0.0
7318,48.0,7,1176,15.0,0.0
7319,54.0,80,192,0.0,0.0
7320,87.0,65,46,0.0,0.0
7321,75.0,4,36,0.0,0.0
7322,56.0,1,164,0.0,0.0
7323,85.0,85,71,0.0,0.0
7324,73.0,7,64,0.0,0.0
7325,72.0,7,37,0.0,0.0
7326,84.0,71,41,0.0,0.0
7327,54.0,64,133,0.0,0.0
7328,85.0,22,39,0.0,0.0
7329,73.0,13,21,0.0,0.0
7330,87.0,8,35,0.0,0.0
7331,63.0,111,42,0.0,0.0
7332,75.0,2,31,0.0,0.0
7333,81.0,92,29,0.0,0.0
7334,69.0,5,21,0.0,0.0
7335,48.0,44,237,0.0,0.0
7336,80.0,17,155,0.0,0.0
7337,68.0,3,170,0.0,0.0
7338,56.0,97,855,14.0,0.0
7339,61.0,10,2142,14.0,0.0
7340,49.0,58,475,0.0,0.0
7341,64.0,0,2050,7.0,0.0
7342,49.0,108,561,15.0,0.0
7343,78.0,94,48,0.0,0.0
7344,66.0,3,44,0.0,0.0
7345,52.0,97,129,0.0,0.0
7346,76.0,73,43,0.0,0.0
7347,64.0,6,33,0.0,0.0
7348,56.0,14,125,0.0,0.0
7349,76.0,86,766,0.0,0.0
7350,64.0,34,729,0.0,0.0
7351,52.0,84,80,0.0,0.0
7352,61.0,16,39,0.0,0.0
7353,47.0,128,350,15.0,0.0
7354,47.0,103,57,0.0,0.0
7355,46.0,8,1027,5.0,0.0
7356,55.0,33,1054,3.0,0.0
7357,46.0,69,372,0.0,0.0
7358,55.0,3,1016,14.0,0.0
7359,64.0,65,1221,2.0,0.0
7360,61.0,5,1016,4.0,0.0
7361,46.0,15,1009,15.0,0.0
7362,52.0,10,154,0.0,0.0
7363,55.0,41,106,0.0,0.0
7364,79.0,14,37,0.0,0.0
7365,67.0,13,21,0.0,0.0
7366,52.0,171,44,0.0,0.0
7367,61.0,17,50,0.0,0.0
7368,82.0,107,61,0.0,0.0
7369,70.0,6,34,0.0,0.0
7370,85.0,95,50,0.0,0.0
7371,73.0,15,35,0.0,0.0
7372,52.0,57,132,0.0,0.0
7373,87.0,21,58,0.0,0.0
7374,75.0,19,37,0.0,0.0
7375,49.0,28,131,0.0,0.0
7376,58.0,10,332,14.0,0.0
7377,49.0,9,177,5.0,0.0
7378,49.0,21,207,15.0,0.0
7379,58.0,12,288,4.0,0.0
7380,88.0,25,110,0.0,0.0
7381,76.0,34,133,0.0,0.0
7382,55.0,24,30,0.0,0.0
7383,82.0,28,258,0.0,0.0
7384,70.0,16,239,0.0,0.0
7385,58.0,97,48,0.0,0.0
7386,55.0,91,42,0.0,0.0
7387,64.0,126,57,0.0,0.0
7388,55.0,106,83,0.0,0.0
7389,49.0,35,75,0.0,0.0
7390,88.0,18,108,0.0,0.0
7391,76.0,54,124,0.0,0.0
7392,58.0,13,248,3.0,0.0
7393,49.0,20,164,5.0,0.0
7394,64.0,1,237,2.0,0.0
7395,55.0,41,245,4.0,0.0
7396,55.0,55,50,0.0,0.0
7397,58.0,138,43,0.0,0.0
7398,70.0,12,27,0.0,0.0
7399,82.0,2,37,0.0,0.0
7400,55.0,96,76,0.0,0.0
7401,64.0,95,51,0.0,0.0
7402,55.0,185,48,0.0,0.0
7403,91.0,2,179,0.0,0.0
7404,79.0,35,178,0.0,0.0
7405,48.0,71,103,0.0,0.0
7406,48.0,5,798,5.0,0.0
7407,55.0,11,787,4.0,0.0
7408,36.0,2,759,6.0,0.0
7409,64.0,5,1022,3.0,0.0
7410,76.0,15,754,2.0,0.0
7411,55.0,98,66,0.0,0.0
7412,58.0,140,55,0.0,0.0
7413,55.0,61,93,0.0,0.0
7414,82.0,9,50,0.0,0.0
7415,70.0,17,30,0.0,0.0
7416,64.0,105,56,0.0,0.0
7417,55.0,132,32,0.0,0.0
7418,71.0,12,286,2.0,0.0
7419,35.0,93,303,6.0,0.0
7420,47.0,3,30,0.0,0.0
7421,56.0,122,137,4.0,0.0
7422,47.0,6,263,5.0,0.0
7423,83.0,5,63,0.0,0.0
7424,52.0,8,38,0.0,0.0
7425,80.0,57,68,0.0,0.0
7426,71.0,6,54,0.0,0.0
7427,76.0,3,64,0.0,0.0
7428,56.0,1,25,0.0,0.0
7429,59.0,11,32,0.0,0.0
7430,35.0,7,97,0.0,0.0
7431,47.0,21,103,0.0,0.0
7432,59.0,28,67,0.0,0.0
7433,64.0,34,62,0.0,0.0
7434,66.0,26,49,0.0,0.0
7435,68.0,72,33,0.0,0.0
7436,71.0,64,44,0.0,0.0
7437,80.0,50,51,0.0,0.0
7438,78.0,31,63,0.0,0.0
7439,76.0,43,40,0.0,0.0
7440,83.0,60,30,0.0,0.0
7441,71.0,53,48,0.0,0.0
7442,73.0,50,31,0.0,0.0
7443,71.0,37,44,0.0,0.0
7444,64.0,5,37,3.0,0.0
7445,68.0,1,113,0.0,0.0
7446,64.0,4,116,0.0,0.0
7447,59.0,1,40,4.0,0.0
7448,59.0,51,117,0.0,0.0
7449,68.0,9,20,2.0,0.0
7450,47.0,64,29,5.0,0.0
7451,71.0,9,62,0.0,0.0
7452,76.0,42,73,0.0,0.0
7453,78.0,17,65,0.0,0.0
7454,68.0,4,108,0.0,0.0
7455,59.0,59,118,0.0,0.0
7456,80.0,9,33,0.0,0.0
7457,64.0,4,112,0.0,0.0
7458,64.0,7,37,3.0,0.0
7459,68.0,5,28,2.0,0.0
7460,59.0,49,38,4.0,0.0
7461,47.0,0,30,5.0,0.0
7462,83.0,6,47,0.0,0.0
7463,88.0,42,62,0.0,0.0
7464,90.0,22,63,0.0,0.0
7465,92.0,2,34,0.0,0.0
7466,68.0,11,28,2.0,0.0
7467,59.0,2,44,4.0,0.0
7468,59.0,4,35,0.0,0.0
7469,68.0,244,48,0.0,0.0
7470,64.0,3,37,0.0,0.0
7471,64.0,4,42,3.0,0.0
7472,47.0,1,34,5.0,0.0
7473,71.0,57,63,0.0,0.0
7474,76.0,37,72,0.0,0.0
7475,78.0,20,61,0.0,0.0
7476,80.0,70,33,0.0,0.0
7477,83.0,71,39,0.0,0.0
7478,92.0,42,64,0.0,0.0
7479,90.0,7,50,0.0,0.0
7480,59.0,34,55,0.0,0.0
7481,64.0,25,57,0.0,0.0
7482,88.0,8,46,0.0,0.0
7483,68.0,65,42,0.0,0.0
7484,76.0,6,31,0.0,0.0
7485,97.0,227,34,0.0,0.0
7486,95.0,36,65,0.0,0.0
7487,93.0,32,61,0.0,0.0
7488,92.0,55,44,0.0,0.0
7489,59.0,52,57,0.0,0.0
7490,90.0,4,45,0.0,0.0
7491,64.0,18,96,0.0,0.0
7492,88.0,35,48,0.0,0.0
7493,67.0,3,84,0.0,0.0
7494,87.0,7,47,0.0,0.0
7495,73.0,32,43,0.0,0.0
7496,88.0,64,34,0.0,0.0
7497,100.0,42,50,0.0,0.0
7498,94.0,6,47,0.0,0.0
7499,59.0,86,50,0.0,0.0
7500,64.0,76,210,0.0,0.0
7501,68.0,26,145,0.0,0.0
7502,97.0,59,45,0.0,0.0
7503,71.0,25,94,0.0,0.0
7504,95.0,47,42,0.0,0.0
7505,93.0,52,45,0.0,0.0
7506,59.0,41,62,0.0,0.0
7507,92.0,14,43,0.0,0.0
7508,64.0,7,147,0.0,0.0
7509,90.0,47,50,0.0,0.0
7510,67.0,36,110,0.0,0.0
7511,88.0,42,44,0.0,0.0
7512,73.0,0,46,0.0,0.0
7513,87.0,3,43,0.0,0.0
7514,88.0,59,35,0.0,0.0
7515,100.0,36,47,0.0,0.0
7516,59.0,7,53,0.0,0.0
7517,94.0,104,48,0.0,0.0
7518,64.0,40,224,0.0,0.0
7519,68.0,11,176,0.0,0.0
7520,97.0,69,68,0.0,0.0
7521,71.0,4,126,0.0,0.0
7522,99.0,13,70,0.0,0.0
7523,97.0,42,82,0.0,0.0
7524,95.0,22,74,0.0,0.0
7525,93.0,52,41,0.0,0.0
7526,92.0,49,45,0.0,0.0
7527,90.0,15,48,0.0,0.0
7528,59.0,30,46,0.0,0.0
7529,88.0,59,47,0.0,0.0
7530,64.0,57,145,0.0,0.0
7531,67.0,3,76,0.0,0.0
7532,87.0,1,48,0.0,0.0
7533,73.0,35,40,0.0,0.0
7534,88.0,1,38,0.0,0.0
7535,100.0,33,47,0.0,0.0
7536,59.0,68,52,0.0,0.0
7537,94.0,9,28,0.0,0.0
7538,64.0,14,531,0.0,0.0
7539,68.0,12,492,0.0,0.0
7540,64.0,1,46,3.0,0.0
7541,56.0,2,46,4.0,0.0
7542,71.0,6,30,2.0,0.0
7543,71.0,16,444,0.0,0.0
7544,47.0,34,35,5.0,0.0
7545,97.0,67,64,0.0,0.0
7546,99.0,61,74,0.0,0.0
7547,97.0,29,80,0.0,0.0
7548,95.0,33,58,0.0,0.0
7549,93.0,84,33,0.0,0.0
7550,95.0,56,64,0.0,0.0
7551,93.0,44,63,0.0,0.0
7552,92.0,2,72,0.0,0.0
7553,90.0,52,50,0.0,0.0
7554,88.0,63,52,0.0,0.0
7555,87.0,34,64,0.0,0.0
7556,85.0,52,48,0.0,0.0
7557,83.0,53,50,0.0,0.0
7558,82.0,48,49,0.0,0.0
7559,81.0,76,46,0.0,0.0
7560,80.0,42,65,0.0,0.0
7561,78.0,51,50,0.0,0.0
7562,76.0,73,50,0.0,0.0
7563,75.0,26,67,0.0,0.0
7564,73.0,61,38,0.0,0.0
7565,59.0,79,432,4.0,0.0
7566,63.0,20,346,2.0,0.0
7567,59.0,52,36,0.0,0.0
7568,57.0,8,378,3.0,0.0
7569,47.0,30,203,0.0,0.0
7570,47.0,15,325,6.0,0.0
7571,47.0,9,358,5.0,0.0
7572,71.0,35,79,0.0,0.0
7573,68.0,63,51,0.0,0.0
7574,57.0,20,35,0.0,0.0
7575,71.0,68,82,0.0,0.0
7576,66.0,25,77,0.0,0.0
7577,64.0,7,43,0.0,0.0
7578,56.0,7,58,0.0,0.0
7579,52.0,30,64,0.0,0.0
7580,40.0,20,180,6.0,0.0
7581,40.0,42,190,5.0,0.0
7582,64.0,1,153,2.0,0.0
7583,56.0,14,153,3.0,0.0
7584,56.0,35,38,0.0,0.0
7585,52.0,29,69,0.0,0.0
7586,57.0,19,41,0.0,0.0
7587,54.0,47,54,0.0,0.0
7588,59.0,12,46,0.0,0.0
7589,56.0,59,52,0.0,0.0
7590,64.0,0,65,0.0,0.0
7591,52.0,53,60,0.0,0.0
7592,54.0,2,57,0.0,0.0
7593,63.0,40,57,0.0,0.0
7594,61.0,11,47,0.0,0.0
7595,57.0,40,51,0.0,0.0
7596,56.0,67,53,0.0,0.0
7597,59.0,6,37,0.0,0.0
7598,52.0,41,67,0.0,0.0
7599,68.0,0,62,0.0,0.0
7600,57.0,7,68,0.0,0.0
7601,66.0,8,56,0.0,0.0
7602,64.0,9,24,0.0,0.0
7603,61.0,74,31,0.0,0.0
7604,71.0,13,35,2.0,0.0
7605,54.0,2,30,0.0,0.0
7606,63.0,3,27,0.0,0.0
7607,59.0,5,21,0.0,0.0
7608,47.0,12,47,5.0,0.0
7609,71.0,6,35,0.0,0.0
7610,63.0,4,71,3.0,0.0
7611,54.0,131,63,4.0,0.0
7612,78.0,1,22,0.0,0.0
7613,47.0,17,16,0.0,0.0
7614,59.0,34,56,0.0,0.0
7615,63.0,20,32,0.0,0.0
7616,61.0,38,53,0.0,0.0
7617,64.0,13,39,0.0,0.0
7618,66.0,11,38,0.0,0.0
7619,63.0,69,44,0.0,0.0
7620,71.0,32,75,0.0,0.0
7621,59.0,13,61,0.0,0.0
7622,61.0,8,51,0.0,0.0
7623,69.0,26,50,0.0,0.0
7624,68.0,17,34,0.0,0.0
7625,64.0,43,49,0.0,0.0
7626,63.0,68,53,0.0,0.0
7627,66.0,16,30,0.0,0.0
7628,59.0,12,70,0.0,0.0
7629,73.0,25,77,0.0,0.0
7630,63.0,10,52,0.0,0.0
7631,71.0,10,56,0.0,0.0
7632,66.0,1,24,0.0,0.0
7633,69.0,71,25,0.0,0.0
7634,64.0,3,18,0.0,0.0
7635,68.0,12,21,0.0,0.0
7636,59.0,18,33,0.0,0.0
7637,76.0,20,36,0.0,0.0
7638,64.0,30,82,3.0,0.0
7639,56.0,20,54,4.0,0.0
7640,71.0,1,39,2.0,0.0
7641,83.0,0,24,0.0,0.0
7642,40.0,94,80,5.0,0.0
7643,52.0,8,20,0.0,0.0
7644,68.0,16,35,0.0,0.0
7645,64.0,36,49,0.0,0.0
7646,69.0,12,46,0.0,0.0
7647,66.0,49,53,0.0,0.0
7648,68.0,3,54,0.0,0.0
7649,71.0,56,55,0.0,0.0
7650,76.0,56,65,0.0,0.0
7651,64.0,1,63,0.0,0.0
7652,66.0,1,65,0.0,0.0
7653,75.0,28,62,0.0,0.0
7654,69.0,27,68,0.0,0.0
7655,73.0,23,45,0.0,0.0
7656,68.0,63,66,0.0,0.0
7657,71.0,19,41,0.0,0.0
7658,64.0,4,70,0.0,0.0
7659,80.0,34,74,0.0,0.0
7660,69.0,10,65,0.0,0.0
7661,78.0,7,54,0.0,0.0
7662,73.0,76,30,0.0,0.0
7663,76.0,7,21,0.0,0.0
7664,63.0,125,115,3.0,0.0
7665,47.0,8,70,5.0,0.0
7666,66.0,18,35,0.0,0.0
7667,71.0,4,27,0.0,0.0
7668,75.0,2,29,0.0,0.0
7669,83.0,11,41,0.0,0.0
7670,54.0,22,59,4.0,0.0
7671,71.0,13,35,2.0,0.0
7672,90.0,3,12,0.0,0.0
7673,59.0,1,21,0.0,0.0
7674,75.0,23,42,0.0,0.0
7675,71.0,32,59,0.0,0.0
7676,76.0,21,53,0.0,0.0
7677,73.0,24,64,0.0,0.0
7678,78.0,18,46,0.0,0.0
7679,75.0,61,51,0.0,0.0
7680,83.0,35,84,0.0,0.0
7681,71.0,15,66,0.0,0.0
7682,73.0,20,68,0.0,0.0
7683,81.0,6,58,0.0,0.0
7684,80.0,33,43,0.0,0.0
7685,76.0,36,72,0.0,0.0
7686,75.0,60,60,0.0,0.0
7687,78.0,8,50,0.0,0.0
7688,71.0,8,73,0.0,0.0
7689,85.0,37,73,0.0,0.0
7690,75.0,15,61,0.0,0.0
7691,83.0,11,63,0.0,0.0
7692,78.0,24,35,0.0,0.0
7693,81.0,33,53,0.0,0.0
7694,80.0,4,28,0.0,0.0
7695,76.0,153,26,0.0,0.0
7696,59.0,75,158,7.0,0.0
7697,93.0,12,119,0.0,0.0
7698,56.0,1,178,7.0,0.0
7699,64.0,29,173,7.0,0.0
7700,88.0,49,53,0.0,0.0
7701,59.0,12,432,7.0,0.0
7702,66.0,8,469,7.0,0.0
7703,47.0,2,35,0.0,0.0
7704,92.0,40,63,0.0,0.0
7705,87.0,55,43,0.0,0.0
7706,90.0,42,40,0.0,0.0
7707,83.0,85,38,0.0,0.0
7708,69.0,7,261,2.0,0.0
7709,69.0,8,60,0.0,0.0
7710,63.0,2,66,0.0,0.0
7711,47.0,3,238,5.0,0.0
7712,59.0,8,109,4.0,0.0
7713,63.0,9,257,3.0,0.0
7714,80.0,8,57,0.0,0.0
7715,59.0,38,52,0.0,0.0
7716,78.0,30,58,0.0,0.0
7717,75.0,25,35,0.0,0.0
7718,52.0,16,32,0.0,0.0
7719,71.0,4,37,0.0,0.0
7720,59.0,26,31,0.0,0.0
7721,76.0,34,52,0.0,0.0
7722,68.0,10,25,0.0,0.0
7723,68.0,17,157,2.0,0.0
7724,59.0,3,171,4.0,0.0
7725,59.0,2,135,7.0,0.0
7726,52.0,27,162,5.0,0.0
7727,64.0,23,183,3.0,0.0
7728,80.0,61,29,0.0,0.0
7729,83.0,14,35,0.0,0.0
7730,64.0,46,156,7.0,0.0
7731,56.0,3,145,7.0,0.0
7732,93.0,32,72,0.0,0.0
7733,92.0,5,64,0.0,0.0
7734,47.0,13,42,0.0,0.0
7735,66.0,4,460,7.0,0.0
7736,59.0,11,420,7.0,0.0
7737,87.0,36,61,0.0,0.0
7738,90.0,43,40,0.0,0.0
7739,83.0,66,37,0.0,0.0
7740,59.0,17,184,4.0,0.0
7741,63.0,11,61,0.0,0.0
7742,69.0,16,42,0.0,0.0
7743,47.0,5,230,5.0,0.0
7744,69.0,1,229,2.0,0.0
7745,80.0,5,57,0.0,0.0
7746,63.0,25,238,3.0,0.0
7747,59.0,60,61,0.0,0.0
7748,78.0,28,76,0.0,0.0
7749,75.0,16,50,0.0,0.0
7750,71.0,39,41,0.0,0.0
7751,68.0,7,156,2.0,0.0
7752,52.0,38,115,0.0,0.0
7753,64.0,12,205,3.0,0.0
7754,83.0,40,45,0.0,0.0
7755,80.0,7,82,0.0,0.0
7756,52.0,3,172,5.0,0.0
7757,68.0,8,187,7.0,0.0
7758,59.0,3,143,4.0,0.0
7759,64.0,0,163,7.0,0.0
7760,71.0,12,30,0.0,0.0
7761,56.0,16,40,0.0,0.0
7762,81.0,15,58,0.0,0.0
7763,64.0,4,35,0.0,0.0
7764,78.0,2,27,0.0,0.0
7765,59.0,1,29,0.0,0.0
7766,76.0,1,31,0.0,0.0
7767,80.0,79,42,0.0,0.0
7768,78.0,7,65,0.0,0.0
7769,66.0,4,67,0.0,0.0
7770,59.0,10,77,0.0,0.0
7771,57.0,64,93,0.0,0.0
7772,75.0,8,58,0.0,0.0
7773,71.0,10,455,7.0,0.0
7774,59.0,20,425,7.0,0.0
7775,71.0,12,38,0.0,0.0
7776,78.0,19,68,0.0,0.0
7777,75.0,9,53,0.0,0.0
7778,80.0,72,40,0.0,0.0
7779,76.0,1,35,0.0,0.0
7780,81.0,22,50,0.0,0.0
7781,78.0,24,68,0.0,0.0
7782,71.0,36,48,0.0,0.0
7783,47.0,20,60,5.0,0.0
7784,35.0,6,23,0.0,0.0
7785,47.0,2,27,0.0,0.0
7786,78.0,4,31,0.0,0.0
7787,81.0,6,25,0.0,0.0
7788,59.0,19,67,4.0,0.0
7789,47.0,4,38,6.0,0.0
7790,71.0,9,28,2.0,0.0
7791,63.0,4,79,3.0,0.0
7792,85.0,35,33,0.0,0.0
7793,68.0,7,133,7.0,0.0
7794,64.0,36,129,7.0,0.0
7795,71.0,8,89,2.0,0.0
7796,64.0,63,234,3.0,0.0
7797,52.0,16,149,5.0,0.0
7798,40.0,7,30,0.0,0.0
7799,56.0,26,181,4.0,0.0
7800,52.0,44,40,0.0,0.0
7801,83.0,5,32,0.0,0.0
7802,40.0,2,95,6.0,0.0
7803,80.0,0,35,0.0,0.0
7804,63.0,6,14,3.0,0.0
7805,71.0,8,26,0.0,0.0
7806,56.0,11,35,0.0,0.0
7807,78.0,2,28,0.0,0.0
7808,81.0,7,70,0.0,0.0
7809,64.0,4,29,0.0,0.0
7810,59.0,3,20,0.0,0.0
7811,76.0,12,29,0.0,0.0
7812,80.0,3,35,0.0,0.0
7813,78.0,27,48,0.0,0.0
7814,66.0,14,92,0.0,0.0
7815,59.0,17,105,0.0,0.0
7816,57.0,58,115,0.0,0.0
7817,75.0,16,63,0.0,0.0
7818,71.0,29,933,7.0,0.0
7819,59.0,13,915,7.0,0.0
7820,71.0,2,36,0.0,0.0
7821,78.0,15,74,0.0,0.0
7822,75.0,4,63,0.0,0.0
7823,76.0,10,38,0.0,0.0
7824,80.0,83,43,0.0,0.0
7825,81.0,15,67,0.0,0.0
7826,78.0,58,88,0.0,0.0
7827,71.0,22,96,0.0,0.0
7828,75.0,8,16,0.0,0.0
7829,59.0,43,771,4.0,0.0
7830,69.0,207,187,2.0,0.0
7831,66.0,9,736,3.0,0.0
7832,35.0,65,47,0.0,0.0
7833,81.0,5,37,0.0,0.0
7834,78.0,2,41,0.0,0.0
7835,47.0,19,151,5.0,0.0
7836,85.0,47,27,0.0,0.0
7837,50.0,0,534,5.0,0.0
7838,68.0,22,531,2.0,0.0
7839,38.0,49,173,0.0,0.0
7840,83.0,13,382,0.0,0.0
7841,80.0,3,401,0.0,0.0
7842,71.0,25,404,0.0,0.0
7843,78.0,6,391,0.0,0.0
7844,42.0,23,74,0.0,0.0
7845,44.0,47,42,0.0,0.0
7846,50.0,71,42,0.0,0.0
7847,54.0,0,52,0.0,0.0
7848,56.0,2,64,0.0,0.0
7849,62.0,48,43,0.0,0.0
7850,50.0,17,41,0.0,0.0
7851,49.0,12,282,5.0,0.0
7852,71.0,1,155,0.0,0.0
7853,83.0,5,138,0.0,0.0
7854,77.0,12,143,0.0,0.0
7855,65.0,49,274,3.0,0.0
7856,49.0,61,49,0.0,0.0
7857,71.0,55,195,2.0,0.0
7858,48.0,16,56,0.0,0.0
7859,49.0,40,41,0.0,0.0
7860,61.0,15,27,0.0,0.0
7861,71.0,29,528,2.0,0.0
7862,55.0,83,89,0.0,0.0
7863,83.0,5,382,0.0,0.0
7864,71.0,14,385,0.0,0.0
7865,76.0,33,399,0.0,0.0
7866,64.0,7,716,3.0,0.0
7867,55.0,18,476,5.0,0.0
7868,67.0,44,63,0.0,0.0
7869,61.0,18,46,0.0,0.0
7870,59.0,92,25,0.0,0.0
7871,55.0,56,56,0.0,0.0
7872,49.0,3,58,0.0,0.0
7873,47.0,37,60,0.0,0.0
7874,43.0,33,50,0.0,0.0
7875,70.0,186,260,2.0,0.0
7876,54.0,5,242,5.0,0.0
7877,82.0,1,124,0.0,0.0
7878,76.0,40,127,0.0,0.0
7879,70.0,3,124,0.0,0.0
7880,42.0,66,55,0.0,0.0
7881,41.0,1,68,0.0,0.0
7882,42.0,34,53,0.0,0.0
7883,54.0,27,26,0.0,0.0
7884,69.0,74,1259,2.0,0.0
7885,64.0,35,558,3.0,0.0
7886,48.0,54,499,5.0,0.0
7887,81.0,16,192,0.0,0.0
7888,36.0,39,146,0.0,0.0
7889,69.0,2,185,0.0,0.0
7890,76.0,5,206,0.0,0.0
7891,40.0,4,72,0.0,0.0
7892,42.0,41,38,0.0,0.0
7893,48.0,100,41,0.0,0.0
7894,52.0,27,80,0.0,0.0
7895,54.0,27,55,0.0,0.0
7896,60.0,44,31,0.0,0.0
7897,78.0,14,69,0.0,0.0
7898,48.0,8,35,0.0,0.0
7899,76.0,9,40,0.0,0.0
7900,47.0,36,284,5.0,0.0
7901,81.0,6,147,0.0,0.0
7902,47.0,40,74,0.0,0.0
7903,75.0,23,156,0.0,0.0
7904,63.0,28,278,3.0,0.0
7905,69.0,3,149,0.0,0.0
7906,46.0,32,50,0.0,0.0
7907,47.0,2,41,0.0,0.0
7908,59.0,47,32,0.0,0.0
7909,57.0,16,14,0.0,0.0
7910,81.0,8,346,0.0,0.0
7911,53.0,43,84,0.0,0.0
7912,69.0,19,354,0.0,0.0
7913,74.0,31,373,0.0,0.0
7914,62.0,24,460,3.0,0.0
7915,53.0,3,446,5.0,0.0
7916,65.0,63,55,0.0,0.0
7917,59.0,14,57,0.0,0.0
7918,57.0,88,29,0.0,0.0
7919,53.0,53,59,0.0,0.0
7920,47.0,2,64,0.0,0.0
7921,45.0,25,63,0.0,0.0
7922,41.0,46,42,0.0,0.0
7923,80.0,10,188,0.0,0.0
7924,71.0,3,169,0.0,0.0
7925,74.0,28,201,0.0,0.0
7926,68.0,5,196,2.0,0.0
7927,40.0,7,44,0.0,0.0
7928,52.0,7,263,5.0,0.0
7929,62.0,97,269,15.0,0.0
7930,59.0,16,215,3.0,0.0
7931,39.0,38,57,0.0,0.0
7932,40.0,7,48,0.0,0.0
7933,41.0,8,37,0.0,0.0
7934,52.0,28,53,0.0,0.0
7935,68.0,33,567,2.0,0.0
7936,63.0,7,305,15.0,0.0
7937,60.0,32,214,3.0,0.0
7938,51.0,1,501,5.0,0.0
7939,39.0,31,103,0.0,0.0
7940,80.0,0,386,0.0,0.0
7941,72.0,14,383,0.0,0.0
7942,75.0,59,397,0.0,0.0
7943,51.0,55,26,0.0,0.0
7944,56.0,57,44,0.0,0.0
7945,60.0,50,55,0.0,0.0
7946,68.0,14,273,15.0,0.0
7947,63.0,45,38,0.0,0.0
7948,51.0,6,28,0.0,0.0
7949,65.0,22,52,0.0,0.0
7950,63.0,33,25,0.0,0.0
7951,61.0,11,317,3.0,0.0
7952,58.0,8,281,5.0,0.0
7953,67.0,81,314,15.0,0.0
7954,67.0,14,282,2.0,0.0
7955,79.0,3,91,0.0,0.0
7956,58.0,46,44,0.0,0.0
7957,67.0,4,93,0.0,0.0
7958,73.0,51,110,0.0,0.0
7959,51.0,14,48,0.0,0.0
7960,57.0,40,48,0.0,0.0
7961,58.0,36,41,0.0,0.0
7962,59.0,14,25,0.0,0.0
7963,71.0,13,378,0.0,0.0
7964,80.0,24,326,0.0,0.0
7965,68.0,7,368,0.0,0.0
7966,59.0,5,462,3.0,0.0
7967,68.0,19,406,2.0,0.0
7968,59.0,12,453,5.0,0.0
7969,68.0,4,253,15.0,0.0
7970,40.0,25,75,0.0,0.0
7971,47.0,49,34,0.0,0.0
7972,52.0,60,38,0.0,0.0
7973,56.0,41,45,0.0,0.0
7974,64.0,65,264,15.0,0.0
7975,52.0,18,226,6.0,0.0
7976,52.0,21,61,0.0,0.0
7977,61.0,26,42,0.0,0.0
7978,59.0,33,30,0.0,0.0
7979,69.0,9,289,2.0,0.0
7980,61.0,1,283,3.0,0.0
7981,73.0,10,535,12.0,0.0
7982,78.0,55,181,0.0,0.0
7983,69.0,8,242,0.0,0.0
7984,73.0,2,258,0.0,0.0
7985,57.0,19,42,0.0,0.0
7986,57.0,10,262,5.0,0.0
7987,66.0,60,265,15.0,0.0
7988,45.0,8,231,6.0,0.0
7989,45.0,47,75,0.0,0.0
7990,49.0,5,56,0.0,0.0
7991,54.0,8,48,0.0,0.0
7992,68.0,16,258,2.0,0.0
7993,59.0,25,443,3.0,0.0
7994,47.0,56,101,0.0,0.0
7995,78.0,46,353,0.0,0.0
7996,68.0,19,535,0.0,0.0
7997,68.0,12,699,14.0,0.0
7998,64.0,10,708,14.0,0.0
7999,47.0,24,255,6.0,0.0
8000,59.0,3,1483,15.0,0.0
8001,59.0,8,242,5.0,0.0
8002,49.0,26,90,0.0,0.0
8003,51.0,59,51,0.0,0.0
8004,52.0,4,69,0.0,0.0
8005,54.0,38,78,0.0,0.0
8006,71.0,24,324,0.0,0.0
8007,71.0,3,673,12.0,0.0
8008,56.0,14,56,0.0,0.0
8009,57.0,30,66,0.0,0.0
8010,58.0,66,71,0.0,0.0
8011,76.0,8,164,0.0,0.0
8012,59.0,15,68,0.0,0.0
8013,61.0,29,72,0.0,0.0
8014,63.0,22,58,0.0,0.0
8015,64.0,30,75,0.0,0.0
8016,73.0,36,26,0.0,0.0
8017,71.0,16,68,0.0,0.0
8018,69.0,31,82,0.0,0.0
8019,66.0,4,61,0.0,0.0
8020,69.0,13,862,14.0,0.0
8021,66.0,4,832,14.0,0.0
8022,68.0,8,59,0.0,0.0
8023,65.0,47,64,0.0,0.0
8024,69.0,54,67,0.0,0.0
8025,66.0,16,48,0.0,0.0
8026,68.0,31,92,0.0,0.0
8027,64.0,19,65,0.0,0.0
8028,63.0,12,64,0.0,0.0
8029,66.0,33,73,0.0,0.0
8030,80.0,9,437,12.0,0.0
8031,65.0,10,56,0.0,0.0
8032,62.0,46,63,0.0,0.0
8033,63.0,15,50,0.0,0.0
8034,66.0,48,59,0.0,0.0
8035,64.0,10,53,0.0,0.0
8036,61.0,47,60,0.0,0.0
8037,59.0,59,455,4.0,0.0
8038,69.0,3,401,3.0,0.0
8039,47.0,14,341,6.0,0.0
8040,59.0,34,71,0.0,0.0
8041,63.0,28,41,0.0,0.0
8042,75.0,14,322,2.0,0.0
8043,47.0,10,295,5.0,0.0
8044,66.0,16,41,0.0,0.0
8045,58.0,56,56,0.0,0.0
8046,57.0,52,67,0.0,0.0
8047,61.0,23,33,0.0,0.0
8048,78.0,12,178,12.0,0.0
8049,63.0,49,35,0.0,0.0
8050,47.0,5,29,0.0,0.0
8051,40.0,24,51,0.0,0.0
8052,40.0,58,263,6.0,0.0
8053,52.0,26,170,5.0,0.0
8054,68.0,7,162,3.0,0.0
8055,76.0,11,215,12.0,0.0
8056,47.0,19,35,0.0,0.0
8057,76.0,16,141,2.0,0.0
8058,52.0,12,181,15.0,0.0
8059,68.0,8,187,14.0,0.0
8060,64.0,14,206,14.0,0.0
8061,64.0,4,29,0.0,0.0
8062,56.0,2,22,0.0,0.0
8063,71.0,12,22,0.0,0.0
8064,76.0,1,27,0.0,0.0
8065,52.0,48,60,0.0,0.0
8066,56.0,20,33,0.0,0.0
8067,54.0,57,60,0.0,0.0
8068,57.0,13,39,0.0,0.0
8069,59.0,57,54,0.0,0.0
8070,56.0,5,48,0.0,0.0
8071,52.0,8,60,0.0,0.0
8072,64.0,40,68,0.0,0.0
8073,54.0,28,54,0.0,0.0
8074,63.0,37,72,0.0,0.0
8075,57.0,2,63,0.0,0.0
8076,61.0,44,49,0.0,0.0
8077,56.0,3,53,0.0,0.0
8078,59.0,69,39,0.0,0.0
8079,52.0,14,74,0.0,0.0
8080,68.0,33,68,0.0,0.0
8081,57.0,15,62,0.0,0.0
8082,66.0,14,65,0.0,0.0
8083,61.0,77,38,0.0,0.0
8084,64.0,2,25,0.0,0.0
8085,71.0,8,39,2.0,0.0
8086,54.0,6,45,0.0,0.0
8087,59.0,2,38,0.0,0.0
8088,54.0,1,36,4.0,0.0
8089,63.0,11,68,3.0,0.0
8090,63.0,21,33,0.0,0.0
8091,71.0,8,37,0.0,0.0
8092,47.0,100,105,5.0,0.0
8093,78.0,3,11,0.0,0.0
8094,47.0,53,24,0.0,0.0
8095,59.0,48,59,0.0,0.0
8096,63.0,13,38,0.0,0.0
8097,61.0,47,65,0.0,0.0
8098,64.0,7,50,0.0,0.0
8099,63.0,58,62,0.0,0.0
8100,66.0,7,49,0.0,0.0
8101,59.0,0,60,0.0,0.0
8102,71.0,46,59,0.0,0.0
8103,61.0,18,49,0.0,0.0
8104,69.0,26,51,0.0,0.0
8105,68.0,18,37,0.0,0.0
8106,64.0,40,51,0.0,0.0
8107,63.0,63,56,0.0,0.0
8108,66.0,15,34,0.0,0.0
8109,59.0,14,65,0.0,0.0
8110,73.0,33,69,0.0,0.0
8111,63.0,8,60,0.0,0.0
8112,71.0,14,54,0.0,0.0
8113,66.0,76,28,0.0,0.0
8114,69.0,1,25,0.0,0.0
8115,68.0,24,26,0.0,0.0
8116,64.0,3,18,0.0,0.0
8117,59.0,11,42,0.0,0.0
8118,76.0,1,35,0.0,0.0
8119,64.0,26,82,3.0,0.0
8120,71.0,11,34,2.0,0.0
8121,56.0,9,49,4.0,0.0
8122,40.0,115,93,5.0,0.0
8123,83.0,7,23,0.0,0.0
8124,52.0,15,31,0.0,0.0
8125,64.0,39,55,0.0,0.0
8126,68.0,10,38,0.0,0.0
8127,66.0,48,51,0.0,0.0
8128,69.0,5,44,0.0,0.0
8129,68.0,11,44,0.0,0.0
8130,71.0,54,52,0.0,0.0
8131,76.0,46,65,0.0,0.0
8132,64.0,3,60,0.0,0.0
8133,66.0,10,57,0.0,0.0
8134,75.0,35,53,0.0,0.0
8135,73.0,18,44,0.0,0.0
8136,69.0,43,58,0.0,0.0
8137,68.0,73,63,0.0,0.0
8138,71.0,8,45,0.0,0.0
8139,64.0,35,81,0.0,0.0
8140,80.0,5,70,0.0,0.0
8141,69.0,4,65,0.0,0.0
8142,78.0,15,57,0.0,0.0
8143,73.0,91,31,0.0,0.0
8144,76.0,2,25,0.0,0.0
8145,71.0,1,31,0.0,0.0
8146,66.0,15,31,0.0,0.0
8147,75.0,1,28,0.0,0.0
8148,83.0,18,30,0.0,0.0
8149,63.0,25,102,3.0,0.0
8150,47.0,89,123,5.0,0.0
8151,54.0,37,59,4.0,0.0
8152,71.0,2,36,2.0,0.0
8153,90.0,12,22,0.0,0.0
8154,59.0,4,28,0.0,0.0
8155,75.0,12,46,0.0,0.0
8156,71.0,34,56,0.0,0.0
8157,73.0,29,73,0.0,0.0
8158,76.0,24,46,0.0,0.0
8159,78.0,12,44,0.0,0.0
8160,75.0,54,52,0.0,0.0
8161,83.0,37,76,0.0,0.0
8162,71.0,19,55,0.0,0.0
8163,73.0,4,66,0.0,0.0
8164,81.0,26,55,0.0,0.0
8165,76.0,32,65,0.0,0.0
8166,80.0,25,39,0.0,0.0
8167,75.0,73,53,0.0,0.0
8168,78.0,19,33,0.0,0.0
8169,71.0,10,74,0.0,0.0
8170,85.0,43,72,0.0,0.0
8171,75.0,10,72,0.0,0.0
8172,83.0,10,66,0.0,0.0
8173,78.0,35,33,0.0,0.0
8174,81.0,23,66,0.0,0.0
8175,80.0,8,27,0.0,0.0
8176,76.0,186,30,0.0,0.0
8177,59.0,67,177,7.0,0.0
8178,64.0,36,191,7.0,0.0
8179,56.0,6,224,7.0,0.0
8180,93.0,33,108,0.0,0.0
8181,88.0,35,61,0.0,0.0
8182,66.0,8,497,7.0,0.0
8183,59.0,6,455,7.0,0.0
8184,92.0,40,62,0.0,0.0
8185,47.0,8,96,0.0,0.0
8186,87.0,50,49,0.0,0.0
8187,90.0,46,41,0.0,0.0
8188,83.0,91,37,0.0,0.0
8189,63.0,3,78,0.0,0.0
8190,69.0,11,65,0.0,0.0
8191,59.0,16,216,4.0,0.0
8192,69.0,11,253,2.0,0.0
8193,47.0,5,244,5.0,0.0
8194,63.0,27,260,3.0,0.0
8195,59.0,1,58,0.0,0.0
8196,80.0,65,60,0.0,0.0
8197,78.0,24,72,0.0,0.0
8198,75.0,35,49,0.0,0.0
8199,52.0,9,47,0.0,0.0
8200,71.0,2,41,0.0,0.0
8201,59.0,11,38,0.0,0.0
8202,68.0,10,265,2.0,0.0
8203,76.0,35,66,0.0,0.0
8204,59.0,10,166,7.0,0.0
8205,64.0,14,139,3.0,0.0
8206,68.0,1,25,0.0,0.0
8207,59.0,4,157,4.0,0.0
8208,52.0,60,167,5.0,0.0
8209,80.0,50,35,0.0,0.0
8210,64.0,34,198,7.0,0.0
8211,83.0,5,38,0.0,0.0
8212,56.0,3,191,7.0,0.0
8213,93.0,44,76,0.0,0.0
8214,47.0,2,64,0.0,0.0
8215,92.0,20,61,0.0,0.0
8216,59.0,14,425,7.0,0.0
8217,66.0,1,442,7.0,0.0
8218,87.0,34,63,0.0,0.0
8219,90.0,45,40,0.0,0.0
8220,83.0,46,35,0.0,0.0
8221,59.0,36,210,4.0,0.0
8222,69.0,4,26,0.0,0.0
8223,59.0,42,35,0.0,0.0
8224,63.0,7,27,0.0,0.0
8225,80.0,57,66,0.0,0.0
8226,69.0,5,249,2.0,0.0
8227,47.0,2,245,5.0,0.0
8228,63.0,0,244,3.0,0.0
8229,78.0,47,70,0.0,0.0
8230,75.0,17,69,0.0,0.0
8231,71.0,9,39,0.0,0.0
8232,68.0,5,205,2.0,0.0
8233,52.0,1,37,0.0,0.0
8234,83.0,18,42,0.0,0.0
8235,68.0,2,124,7.0,0.0
8236,80.0,28,57,0.0,0.0
8237,59.0,18,122,4.0,0.0
8238,64.0,5,110,7.0,0.0
8239,64.0,6,189,3.0,0.0
8240,52.0,1,135,5.0,0.0
8241,71.0,32,28,0.0,0.0
8242,81.0,0,40,0.0,0.0
8243,56.0,6,32,0.0,0.0
8244,64.0,2,29,0.0,0.0
8245,59.0,41,40,0.0,0.0
8246,78.0,4,32,0.0,0.0
8247,76.0,1,34,0.0,0.0
8248,80.0,56,35,0.0,0.0
8249,78.0,10,63,0.0,0.0
8250,66.0,13,40,0.0,0.0
8251,59.0,8,51,0.0,0.0
8252,57.0,6,65,0.0,0.0
8253,71.0,5,470,7.0,0.0
8254,59.0,32,425,7.0,0.0
8255,75.0,16,51,0.0,0.0
8256,71.0,59,41,0.0,0.0
8257,78.0,16,72,0.0,0.0
8258,75.0,29,34,0.0,0.0
8259,76.0,1,34,0.0,0.0
8260,80.0,74,33,0.0,0.0
8261,81.0,17,52,0.0,0.0
8262,78.0,20,67,0.0,0.0
8263,71.0,36,46,0.0,0.0
8264,35.0,4,22,0.0,0.0
8265,47.0,2,25,0.0,0.0
8266,81.0,3,24,0.0,0.0
8267,47.0,14,39,6.0,0.0
8268,71.0,15,54,2.0,0.0
8269,78.0,13,25,0.0,0.0
8270,54.0,13,67,4.0,0.0
8271,63.0,6,68,3.0,0.0
8272,47.0,2,38,5.0,0.0
8273,85.0,31,34,0.0,0.0
8274,68.0,1,102,7.0,0.0
8275,64.0,35,99,7.0,0.0
8276,40.0,2,25,0.0,0.0
8277,52.0,4,26,0.0,0.0
8278,71.0,1,160,2.0,0.0
8279,80.0,35,42,0.0,0.0
8280,83.0,11,30,0.0,0.0
8281,64.0,3,184,3.0,0.0
8282,56.0,7,187,4.0,0.0
8283,40.0,25,114,6.0,0.0
8284,52.0,24,151,5.0,0.0
8285,71.0,6,31,0.0,0.0
8286,64.0,10,34,0.0,0.0
8287,56.0,2,45,0.0,0.0
8288,81.0,3,73,0.0,0.0
8289,78.0,2,26,0.0,0.0
8290,59.0,3,25,0.0,0.0
8291,76.0,12,34,0.0,0.0
8292,80.0,80,39,0.0,0.0
8293,66.0,2,71,0.0,0.0
8294,59.0,8,82,0.0,0.0
8295,78.0,7,63,0.0,0.0
8296,57.0,82,99,0.0,0.0
8297,75.0,9,60,0.0,0.0
8298,59.0,34,837,7.0,0.0
8299,71.0,0,837,7.0,0.0
8300,71.0,12,41,0.0,0.0
8301,78.0,0,75,0.0,0.0
8302,75.0,17,72,0.0,0.0
8303,80.0,80,41,0.0,0.0
8304,76.0,2,36,0.0,0.0
8305,81.0,23,56,0.0,0.0
8306,78.0,25,76,0.0,0.0
8307,71.0,55,52,0.0,0.0
8308,66.0,22,728,4.0,0.0
8309,69.0,109,228,2.0,0.0
8310,35.0,65,41,0.0,0.0
8311,59.0,35,1399,3.0,0.0
8312,81.0,7,29,0.0,0.0
8313,78.0,1,34,0.0,0.0
8314,47.0,33,179,5.0,0.0
8315,85.0,87,30,0.0,0.0
8316,68.0,9,511,2.0,0.0
8317,38.0,40,148,0.0,0.0
8318,38.0,7,515,5.0,0.0
8319,80.0,6,349,0.0,0.0
8320,83.0,6,334,0.0,0.0
8321,71.0,14,353,0.0,0.0
8322,78.0,5,341,0.0,0.0
8323,57.0,5,92,3.0,0.0
8324,42.0,24,65,0.0,0.0
8325,44.0,49,35,0.0,0.0
8326,50.0,49,41,0.0,0.0
8327,54.0,2,74,0.0,0.0
8328,56.0,36,46,0.0,0.0
8329,62.0,39,37,0.0,0.0
8330,50.0,51,35,0.0,0.0
8331,52.0,8,18,0.0,0.0
8332,77.0,14,136,0.0,0.0
8333,71.0,5,150,0.0,0.0
8334,83.0,3,133,0.0,0.0
8335,73.0,69,195,2.0,0.0
8336,49.0,59,52,0.0,0.0
8337,37.0,13,258,5.0,0.0
8338,65.0,34,242,4.0,0.0
8339,48.0,8,58,0.0,0.0
8340,49.0,41,38,0.0,0.0
8341,61.0,10,29,0.0,0.0
8342,73.0,22,529,2.0,0.0
8343,83.0,15,349,0.0,0.0
8344,71.0,11,363,0.0,0.0
8345,55.0,79,86,0.0,0.0
8346,76.0,0,373,0.0,0.0
8347,64.0,38,689,4.0,0.0
8348,43.0,7,436,5.0,0.0
8349,67.0,48,52,0.0,0.0
8350,61.0,19,46,0.0,0.0
8351,59.0,87,24,0.0,0.0
8352,55.0,29,53,0.0,0.0
8353,49.0,50,56,0.0,0.0
8354,47.0,29,54,0.0,0.0
8355,43.0,30,47,0.0,0.0
8356,58.0,169,292,3.0,0.0
8357,42.0,2,283,5.0,0.0
8358,66.0,6,232,2.0,0.0
8359,76.0,5,125,0.0,0.0
8360,82.0,6,90,0.0,0.0
8361,70.0,28,95,0.0,0.0
8362,42.0,27,54,0.0,0.0
8363,41.0,48,64,0.0,0.0
8364,42.0,36,53,0.0,0.0
8365,54.0,3,26,0.0,0.0
8366,66.0,68,596,2.0,0.0
8367,64.0,11,568,4.0,0.0
8368,48.0,24,532,5.0,0.0
8369,57.0,2,1222,3.0,0.0
8370,36.0,29,141,0.0,0.0
8371,81.0,6,191,0.0,0.0
8372,69.0,20,147,0.0,0.0
8373,76.0,34,194,0.0,0.0
8374,40.0,22,69,0.0,0.0
8375,42.0,0,34,0.0,0.0
8376,48.0,90,37,0.0,0.0
8377,52.0,34,72,0.0,0.0
8378,54.0,28,54,0.0,0.0
8379,78.0,4,75,0.0,0.0
8380,60.0,36,37,0.0,0.0
8381,48.0,13,33,0.0,0.0
8382,76.0,41,40,0.0,0.0
8383,47.0,10,56,0.0,0.0
8384,75.0,48,139,0.0,0.0
8385,81.0,5,132,0.0,0.0
8386,47.0,57,224,5.0,0.0
8387,69.0,2,134,0.0,0.0
8388,71.0,5,213,2.0,0.0
8389,63.0,51,274,4.0,0.0
8390,46.0,2,49,0.0,0.0
8391,47.0,31,54,0.0,0.0
8392,59.0,2,32,0.0,0.0
8393,81.0,17,372,0.0,0.0
8394,69.0,21,388,0.0,0.0
8395,53.0,20,476,5.0,0.0
8396,74.0,29,412,0.0,0.0
8397,71.0,57,510,2.0,0.0
8398,53.0,24,83,0.0,0.0
8399,62.0,76,767,4.0,0.0
8400,65.0,71,41,0.0,0.0
8401,59.0,15,47,0.0,0.0
8402,57.0,93,25,0.0,0.0
8403,53.0,59,58,0.0,0.0
8404,47.0,15,61,0.0,0.0
8405,45.0,4,60,0.0,0.0
8406,41.0,33,49,0.0,0.0
8407,59.0,26,281,3.0,0.0
8408,62.0,3,302,15.0,0.0
8409,52.0,22,301,5.0,0.0
8410,40.0,42,104,0.0,0.0
8411,68.0,43,211,2.0,0.0
8412,80.0,22,174,0.0,0.0
8413,74.0,14,196,0.0,0.0
8414,71.0,10,142,0.0,0.0
8415,39.0,20,16,0.0,0.0
8416,39.0,20,66,0.0,0.0
8417,40.0,1,58,0.0,0.0
8418,52.0,8,54,0.0,0.0
8419,68.0,18,572,2.0,0.0
8420,63.0,4,361,15.0,0.0
8421,60.0,2,478,3.0,0.0
8422,51.0,10,580,5.0,0.0
8423,63.0,10,291,4.0,0.0
8424,39.0,43,100,0.0,0.0
8425,80.0,18,374,0.0,0.0
8426,75.0,46,388,0.0,0.0
8427,72.0,0,353,0.0,0.0
8428,51.0,82,32,0.0,0.0
8429,56.0,53,45,0.0,0.0
8430,60.0,34,58,0.0,0.0
8431,68.0,5,305,15.0,0.0
8432,63.0,37,42,0.0,0.0
8433,51.0,16,25,0.0,0.0
8434,65.0,25,48,0.0,0.0
8435,63.0,58,27,0.0,0.0
8436,67.0,64,306,2.0,0.0
8437,61.0,6,283,3.0,0.0
8438,67.0,8,281,15.0,0.0
8439,58.0,53,52,0.0,0.0
8440,79.0,2,105,0.0,0.0
8441,58.0,0,274,5.0,0.0
8442,67.0,1,102,0.0,0.0
8443,73.0,47,121,0.0,0.0
8444,51.0,17,57,0.0,0.0
8445,57.0,46,59,0.0,0.0
8446,58.0,31,55,0.0,0.0
8447,59.0,21,30,0.0,0.0
8448,71.0,11,360,0.0,0.0
8449,80.0,16,309,0.0,0.0
8450,68.0,6,350,0.0,0.0
8451,68.0,10,450,2.0,0.0
8452,68.0,39,260,15.0,0.0
8453,59.0,5,469,3.0,0.0
8454,59.0,1,461,5.0,0.0
8455,40.0,36,62,0.0,0.0
8456,47.0,49,33,0.0,0.0
8457,52.0,55,37,0.0,0.0
8458,56.0,4,42,0.0,0.0
8459,52.0,4,251,6.0,0.0
8460,64.0,10,240,15.0,0.0
8461,52.0,28,56,0.0,0.0
8462,61.0,56,31,0.0,0.0
8463,59.0,33,36,0.0,0.0
8464,57.0,72,39,0.0,0.0
8465,78.0,12,556,0.0,0.0
8466,61.0,14,240,3.0,0.0
8467,73.0,13,490,0.0,0.0
8468,57.0,20,282,5.0,0.0
8469,69.0,16,135,0.0,0.0
8470,66.0,12,261,15.0,0.0
8471,69.0,3,271,2.0,0.0
8472,45.0,14,235,6.0,0.0
8473,45.0,28,60,0.0,0.0
8474,49.0,45,45,0.0,0.0
8475,54.0,42,38,0.0,0.0
8476,47.0,66,88,0.0,0.0
8477,68.0,0,297,2.0,0.0
8478,59.0,15,277,3.0,0.0
8479,59.0,6,271,5.0,0.0
8480,68.0,3,545,0.0,0.0
8481,59.0,28,1107,15.0,0.0
8482,68.0,11,660,14.0,0.0
8483,64.0,27,667,14.0,0.0
8484,47.0,3,264,6.0,0.0
8485,49.0,25,88,0.0,0.0
8486,51.0,66,47,0.0,0.0
8487,52.0,31,70,0.0,0.0
8488,54.0,28,87,0.0,0.0
8489,71.0,45,335,0.0,0.0
8490,56.0,60,63,0.0,0.0
8491,57.0,47,72,0.0,0.0
8492,58.0,61,71,0.0,0.0
8493,59.0,45,67,0.0,0.0
8494,76.0,7,114,0.0,0.0
8495,61.0,1,71,0.0,0.0
8496,63.0,59,64,0.0,0.0
8497,64.0,11,79,0.0,0.0
8498,66.0,46,70,0.0,0.0
8499,76.0,21,112,0.0,0.0
8500,69.0,10,430,0.0,0.0
8501,71.0,8,495,0.0,0.0
8502,69.0,11,503,14.0,0.0
8503,66.0,1,494,14.0,0.0
8504,65.0,44,79,0.0,0.0
8505,75.0,30,134,0.0,0.0
8506,66.0,69,59,0.0,0.0
8507,64.0,3,75,0.0,0.0
8508,63.0,59,51,0.0,0.0
8509,78.0,40,293,0.0,0.0
8510,62.0,66,65,0.0,0.0
8511,63.0,30,70,0.0,0.0
8512,61.0,29,54,0.0,0.0
8513,59.0,17,279,5.0,0.0
8514,66.0,3,275,4.0,0.0
8515,71.0,40,505,2.0,0.0
8516,59.0,1,64,0.0,0.0
8517,63.0,6,308,3.0,0.0
8518,57.0,68,63,0.0,0.0
8519,56.0,20,77,0.0,0.0
8520,54.0,67,48,0.0,0.0
8521,68.0,29,147,4.0,0.0
8522,53.0,2,27,0.0,0.0
8523,61.0,5,21,0.0,0.0
8524,61.0,19,652,3.0,0.0
8525,65.0,13,25,0.0,0.0
8526,53.0,24,204,5.0,0.0
8527,68.0,90,40,0.0,0.0
8528,80.0,3,72,0.0,0.0
8529,73.0,33,46,0.0,0.0
8530,71.0,9,31,0.0,0.0
8531,69.0,10,433,2.0,0.0
8532,66.0,4,24,0.0,0.0
8533,81.0,43,165,0.0,0.0
8534,54.0,126,39,0.0,0.0
8535,61.0,4,25,0.0,0.0
8536,69.0,9,29,0.0,0.0
8537,54.0,52,422,5.0,0.0
8538,66.0,43,467,4.0,0.0
8539,73.0,46,58,0.0,0.0
8540,77.0,19,67,0.0,0.0
8541,78.0,3,33,0.0,0.0
8542,54.0,51,33,0.0,0.0
8543,42.0,8,23,0.0,0.0
8544,42.0,5,123,6.0,0.0
8545,81.0,46,35,0.0,0.0
8546,85.0,15,33,0.0,0.0
8547,93.0,1,27,0.0,0.0
8548,63.0,7,668,3.0,0.0
8549,55.0,35,295,5.0,0.0
8550,73.0,9,285,2.0,0.0
8551,70.0,52,134,4.0,0.0
8552,67.0,1,51,0.0,0.0
8553,55.0,4,44,0.0,0.0
8554,70.0,6,49,0.0,0.0
8555,63.0,41,53,0.0,0.0
8556,82.0,21,35,0.0,0.0
8557,75.0,31,46,0.0,0.0
8558,73.0,65,25,0.0,0.0
8559,71.0,23,440,2.0,0.0
8560,56.0,16,470,5.0,0.0
8561,68.0,132,476,4.0,0.0
8562,68.0,20,58,0.0,0.0
8563,71.0,13,43,0.0,0.0
8564,83.0,19,182,0.0,0.0
8565,63.0,20,75,0.0,0.0
8566,56.0,86,93,0.0,0.0
8567,75.0,55,43,0.0,0.0
8568,79.0,21,63,0.0,0.0
8569,80.0,11,29,0.0,0.0
8570,44.0,11,126,6.0,0.0
8571,56.0,62,28,0.0,0.0
8572,44.0,4,22,0.0,0.0
8573,83.0,23,43,0.0,0.0
8574,87.0,13,35,0.0,0.0
8575,95.0,19,21,0.0,0.0
8576,65.0,11,341,4.0,0.0
8577,74.0,2,349,2.0,0.0
8578,58.0,128,350,5.0,0.0
8579,68.0,8,314,3.0,0.0
8580,74.0,41,101,0.0,0.0
8581,68.0,29,67,0.0,0.0
8582,70.0,4,61,0.0,0.0
8583,58.0,1,64,0.0,0.0
8584,86.0,43,68,0.0,0.0
8585,82.0,28,46,0.0,0.0
8586,80.0,48,34,0.0,0.0
8587,71.0,1,32,0.0,0.0
8588,69.0,4,33,0.0,0.0
8589,59.0,2,51,0.0,0.0
8590,66.0,1,36,0.0,0.0
8591,87.0,1,30,0.0,0.0
8592,75.0,1,27,0.0,0.0
8593,63.0,13,162,4.0,0.0
8594,59.0,21,414,5.0,0.0
8595,75.0,24,429,2.0,0.0
8596,66.0,18,340,3.0,0.0
8597,78.0,65,55,0.0,0.0
8598,81.0,2,65,0.0,0.0
8599,47.0,7,27,0.0,0.0
8600,59.0,6,32,0.0,0.0
8601,47.0,81,257,6.0,0.0
8602,83.0,64,26,0.0,0.0
8603,69.0,4,215,4.0,0.0
8604,87.0,36,30,0.0,0.0
8605,90.0,26,36,0.0,0.0
8606,99.0,16,9,0.0,0.0
8607,60.0,17,26,0.0,0.0
8608,76.0,1,306,2.0,0.0
8609,67.0,7,301,4.0,0.0
8610,48.0,1,327,6.0,0.0
8611,60.0,87,325,5.0,0.0
8612,70.0,8,269,3.0,0.0
8613,72.0,8,57,0.0,0.0
8614,76.0,16,190,0.0,0.0
8615,70.0,100,63,0.0,0.0
8616,88.0,26,81,0.0,0.0
8617,84.0,6,65,0.0,0.0
8618,61.0,9,49,0.0,0.0
8619,82.0,16,39,0.0,0.0
8620,68.0,7,29,0.0,0.0
8621,71.0,10,46,0.0,0.0
8622,77.0,28,152,0.0,0.0
8623,73.0,22,19,0.0,0.0
8624,77.0,3,258,2.0,0.0
8625,68.0,7,188,3.0,0.0
8626,49.0,2,197,6.0,0.0
8627,65.0,7,189,4.0,0.0
8628,61.0,10,251,5.0,0.0
8629,89.0,21,64,0.0,0.0
8630,85.0,17,54,0.0,0.0
8631,61.0,0,49,0.0,0.0
8632,83.0,44,32,0.0,0.0
8633,67.0,7,50,0.0,0.0
8634,79.0,18,387,2.0,0.0
8635,70.0,9,27,0.0,0.0
8636,70.0,32,268,3.0,0.0
8637,79.0,105,60,0.0,0.0
8638,76.0,37,21,0.0,0.0
8639,49.0,8,317,5.0,0.0
8640,64.0,15,225,4.0,0.0
8641,37.0,22,314,6.0,0.0
8642,91.0,77,88,0.0,0.0
8643,88.0,2,85,0.0,0.0
8644,85.0,5,26,0.0,0.0
8645,59.0,19,38,0.0,0.0
8646,64.0,11,37,0.0,0.0
8647,68.0,1,22,0.0,0.0
8648,71.0,9,26,0.0,0.0
8649,80.0,5,173,2.0,0.0
8650,71.0,44,174,3.0,0.0
8651,47.0,19,256,5.0,0.0
8652,64.0,12,201,4.0,0.0
8653,35.0,40,291,6.0,0.0
8654,76.0,4,19,0.0,0.0
8655,80.0,7,20,0.0,0.0
8656,92.0,49,26,0.0,0.0
8657,36.0,64,73,6.0,0.0
8658,80.0,4,19,0.0,0.0
8659,95.0,29,25,0.0,0.0
8660,88.0,6,19,0.0,0.0
8661,85.0,13,15,0.0,0.0
8662,79.0,14,17,0.0,0.0
8663,78.0,3,27,0.0,0.0
8664,95.0,5,19,0.0,0.0
8665,87.0,46,26,0.0,0.0
8666,83.0,12,25,0.0,0.0
8667,77.0,50,32,0.0,0.0
8668,76.0,19,23,0.0,0.0
8669,85.0,41,38,0.0,0.0
8670,81.0,108,25,0.0,0.0
8671,47.0,7,282,5.0,0.0
8672,59.0,59,324,3.0,0.0
8673,69.0,7,277,2.0,0.0
8674,83.0,20,60,0.0,0.0
8675,69.0,40,76,0.0,0.0
8676,78.0,9,46,0.0,0.0
8677,59.0,1,244,0.0,0.0
8678,76.0,28,68,0.0,0.0
8679,75.0,73,33,0.0,0.0
8680,78.0,33,50,0.0,0.0
8681,68.0,44,125,2.0,0.0
8682,68.0,28,28,0.0,0.0
8683,71.0,2,25,0.0,0.0
8684,64.0,7,14,0.0,0.0
8685,52.0,20,184,5.0,0.0
8686,80.0,2,22,0.0,0.0
8687,88.0,26,26,0.0,0.0
8688,95.0,4,20,0.0,0.0
8689,85.0,5,26,0.0,0.0
8690,79.0,52,26,0.0,0.0
8691,78.0,3,29,0.0,0.0
8692,95.0,3,21,0.0,0.0
8693,87.0,45,26,0.0,0.0
8694,83.0,13,27,0.0,0.0
8695,77.0,44,39,0.0,0.0
8696,76.0,21,24,0.0,0.0
8697,85.0,36,44,0.0,0.0
8698,95.0,3,15,0.0,0.0
8699,81.0,93,31,0.0,0.0
8700,69.0,18,271,2.0,0.0
8701,47.0,3,289,5.0,0.0
8702,67.0,28,65,2.0,0.0
8703,59.0,91,298,3.0,0.0
8704,59.0,3,240,0.0,0.0
8705,69.0,46,83,0.0,0.0
8706,83.0,73,163,0.0,0.0
8707,78.0,19,59,0.0,0.0
8708,76.0,18,75,0.0,0.0
8709,75.0,17,33,0.0,0.0
8710,78.0,1,73,0.0,0.0
8711,68.0,10,148,2.0,0.0
8712,68.0,3,33,0.0,0.0
8713,64.0,1,23,0.0,0.0
8714,71.0,7,28,0.0,0.0
8715,52.0,1,173,5.0,0.0
8716,68.0,16,25,0.0,0.0
8717,76.0,31,43,0.0,0.0
8718,83.0,6,35,0.0,0.0
8719,73.0,5,26,0.0,0.0
8720,67.0,58,26,0.0,0.0
8721,66.0,29,32,0.0,0.0
8722,75.0,14,57,0.0,0.0
8723,83.0,3,23,0.0,0.0
8724,65.0,39,46,0.0,0.0
8725,71.0,17,29,0.0,0.0
8726,72.0,5,18,0.0,0.0
8727,64.0,17,30,0.0,0.0
8728,73.0,43,46,0.0,0.0
8729,83.0,11,16,0.0,0.0
8730,69.0,144,32,0.0,0.0
8731,66.0,14,356,2.0,0.0
8732,35.0,27,1308,6.0,0.0
8733,57.0,13,314,3.0,0.0
8734,63.0,7,317,4.0,0.0
8735,47.0,29,1471,5.0,0.0
8736,57.0,47,86,0.0,0.0
8737,47.0,13,337,0.0,0.0
8738,71.0,33,193,0.0,0.0
8739,66.0,19,63,0.0,0.0
8740,64.0,32,85,0.0,0.0
8741,63.0,29,39,0.0,0.0
8742,66.0,57,40,0.0,0.0
8743,58.0,21,276,3.0,0.0
8744,58.0,17,125,0.0,0.0
8745,73.0,20,60,0.0,0.0
8746,64.0,9,254,4.0,0.0
8747,67.0,31,291,2.0,0.0
8748,67.0,21,89,0.0,0.0
8749,66.0,35,78,0.0,0.0
8750,64.0,34,54,0.0,0.0
8751,67.0,55,36,0.0,0.0
8752,68.0,31,103,0.0,0.0
8753,68.0,1,290,2.0,0.0
8754,59.0,8,58,0.0,0.0
8755,65.0,28,259,4.0,0.0
8756,74.0,5,94,0.0,0.0
8757,59.0,13,243,3.0,0.0
8758,57.0,9,82,0.0,0.0
8759,66.0,36,86,0.0,0.0
8760,56.0,4,62,0.0,0.0
8761,65.0,23,61,0.0,0.0
8762,59.0,14,65,0.0,0.0
8763,68.0,27,35,0.0,0.0
8764,75.0,22,64,0.0,0.0
8765,60.0,2,60,0.0,0.0
8766,69.0,50,85,0.0,0.0
8767,66.0,9,236,4.0,0.0
8768,69.0,5,266,2.0,0.0
8769,60.0,10,246,3.0,0.0
8770,59.0,2,84,0.0,0.0
8771,67.0,20,83,0.0,0.0
8772,57.0,12,75,0.0,0.0
8773,66.0,27,41,0.0,0.0
8774,60.0,25,80,0.0,0.0
8775,69.0,41,29,0.0,0.0
8776,67.0,8,257,4.0,0.0
8777,61.0,31,60,0.0,0.0
8778,70.0,14,89,0.0,0.0
8779,76.0,33,99,0.0,0.0
8780,70.0,5,245,2.0,0.0
8781,61.0,4,253,3.0,0.0
8782,59.0,30,94,0.0,0.0
8783,68.0,11,82,0.0,0.0
8784,67.0,17,62,0.0,0.0
8785,58.0,2,78,0.0,0.0
8786,70.0,35,33,0.0,0.0
8787,61.0,20,64,0.0,0.0
8788,62.0,23,53,0.0,0.0
8789,71.0,25,70,0.0,0.0
8790,77.0,7,34,0.0,0.0
8791,71.0,1,228,2.0,0.0
8792,68.0,21,206,4.0,0.0
8793,62.0,9,220,3.0,0.0
8794,69.0,9,41,0.0,0.0
8795,60.0,19,75,0.0,0.0
8796,59.0,21,68,0.0,0.0
8797,68.0,27,33,0.0,0.0
8798,62.0,32,80,0.0,0.0
8799,71.0,11,35,0.0,0.0
8800,63.0,10,56,0.0,0.0
8801,72.0,39,90,0.0,0.0
8802,78.0,3,47,0.0,0.0
8803,62.0,7,93,0.0,0.0
8804,71.0,15,75,0.0,0.0
8805,69.0,30,43,0.0,0.0
8806,60.0,7,70,0.0,0.0
8807,72.0,48,30,0.0,0.0
8808,63.0,39,75,0.0,0.0
8809,64.0,1,73,0.0,0.0
8810,73.0,25,73,0.0,0.0
8811,79.0,15,56,0.0,0.0
8812,71.0,41,45,0.0,0.0
8813,62.0,22,80,0.0,0.0
8814,61.0,22,65,0.0,0.0
8815,70.0,18,35,0.0,0.0
8816,64.0,56,54,0.0,0.0
8817,73.0,13,31,0.0,0.0
8818,65.0,33,59,0.0,0.0
8819,74.0,33,88,0.0,0.0
8820,80.0,15,38,0.0,0.0
8821,64.0,5,75,0.0,0.0
8822,72.0,27,73,0.0,0.0
8823,62.0,5,73,0.0,0.0
8824,71.0,21,46,0.0,0.0
8825,65.0,41,77,0.0,0.0
8826,74.0,51,26,0.0,0.0
8827,75.0,12,94,0.0,0.0
8828,81.0,30,103,0.0,0.0
8829,66.0,27,60,0.0,0.0
8830,73.0,13,82,0.0,0.0
8831,64.0,31,87,0.0,0.0
8832,72.0,14,69,0.0,0.0
8833,63.0,18,76,0.0,0.0
8834,75.0,58,35,0.0,0.0
8835,66.0,83,92,0.0,0.0
8836,67.0,18,57,0.0,0.0
8837,76.0,41,74,0.0,0.0
8838,82.0,6,114,0.0,0.0
8839,64.0,61,67,0.0,0.0
8840,73.0,19,45,0.0,0.0
8841,68.0,8,49,0.0,0.0
8842,77.0,40,49,0.0,0.0
8843,83.0,1,85,0.0,0.0
8844,65.0,51,52,0.0,0.0
8845,74.0,19,29,0.0,0.0
8846,69.0,13,56,0.0,0.0
8847,78.0,25,67,0.0,0.0
8848,84.0,28,24,0.0,0.0
8849,75.0,35,36,0.0,0.0
8850,66.0,30,66,0.0,0.0
8851,70.0,16,50,0.0,0.0
8852,85.0,16,33,0.0,0.0
8853,79.0,29,63,0.0,0.0
8854,67.0,48,64,0.0,0.0
8855,76.0,26,37,0.0,0.0
8856,71.0,1,68,0.0,0.0
8857,86.0,21,65,0.0,0.0
8858,80.0,19,39,0.0,0.0
8859,77.0,40,33,0.0,0.0
8860,68.0,38,69,0.0,0.0
8861,81.0,7,51,0.0,0.0
8862,72.0,21,57,0.0,0.0
8863,87.0,4,78,0.0,0.0
8864,78.0,40,34,0.0,0.0
8865,69.0,59,69,0.0,0.0
8866,73.0,2,67,0.0,0.0
8867,82.0,11,65,0.0,0.0
8868,88.0,6,75,0.0,0.0
8869,79.0,26,35,0.0,0.0
8870,70.0,60,54,0.0,0.0
8871,74.0,3,53,0.0,0.0
8872,83.0,25,67,0.0,0.0
8873,89.0,12,53,0.0,0.0
8874,80.0,36,36,0.0,0.0
8875,71.0,44,71,0.0,0.0
8876,75.0,14,53,0.0,0.0
8877,84.0,16,65,0.0,0.0
8878,90.0,7,80,0.0,0.0
8879,71.0,64,53,0.0,0.0
8880,81.0,12,33,0.0,0.0
8881,76.0,18,56,0.0,0.0
8882,91.0,5,64,0.0,0.0
8883,85.0,16,66,0.0,0.0
8884,82.0,21,37,0.0,0.0
8885,71.0,59,58,0.0,0.0
8886,77.0,11,57,0.0,0.0
8887,86.0,9,66,0.0,0.0
8888,92.0,7,74,0.0,0.0
8889,71.0,33,79,0.0,0.0
8890,83.0,45,33,0.0,0.0
8891,78.0,28,50,0.0,0.0
8892,87.0,1,73,0.0,0.0
8893,93.0,12,74,0.0,0.0
8894,71.0,64,59,0.0,0.0
8895,84.0,20,29,0.0,0.0
8896,79.0,10,61,0.0,0.0
8897,94.0,54,80,0.0,0.0
8898,88.0,16,61,0.0,0.0
8899,85.0,2,31,0.0,0.0
8900,71.0,27,85,0.0,0.0
8901,80.0,7,49,0.0,0.0
8902,89.0,18,54,0.0,0.0
8903,95.0,4,71,0.0,0.0
8904,86.0,31,29,0.0,0.0
8905,71.0,45,56,0.0,0.0
8906,81.0,23,43,0.0,0.0
8907,96.0,6,59,0.0,0.0
8908,90.0,18,65,0.0,0.0
8909,71.0,54,41,0.0,0.0
8910,87.0,7,33,0.0,0.0
8911,82.0,18,31,0.0,0.0
8912,97.0,25,58,0.0,0.0
8913,91.0,9,48,0.0,0.0
8914,71.0,65,29,0.0,0.0
8915,83.0,37,34,0.0,0.0
8916,98.0,13,69,0.0,0.0
8917,92.0,3,65,0.0,0.0
8918,71.0,9,27,0.0,0.0
8919,89.0,67,32,0.0,0.0
8920,84.0,42,34,0.0,0.0
8921,93.0,18,74,0.0,0.0
8922,99.0,5,92,0.0,0.0
8923,90.0,98,37,0.0,0.0
8924,71.0,8,25,0.0,0.0
8925,100.0,12,112,0.0,0.0
8926,94.0,4,124,0.0,0.0
8927,85.0,74,33,0.0,0.0
8928,71.0,13,24,0.0,0.0
8929,91.0,66,34,0.0,0.0
8930,84.0,31,31,0.0,0.0
8931,99.0,13,67,0.0,0.0
8932,93.0,8,57,0.0,0.0
8933,90.0,1,36,0.0,0.0
8934,71.0,60,22,0.0,0.0
8935,83.0,35,32,0.0,0.0
8936,98.0,18,66,0.0,0.0
8937,92.0,3,62,0.0,0.0
8938,71.0,15,80,0.0,0.0
8939,89.0,43,34,0.0,0.0
8940,91.0,15,73,0.0,0.0
8941,97.0,8,63,0.0,0.0
8942,82.0,29,33,0.0,0.0
8943,88.0,6,35,0.0,0.0
8944,71.0,67,38,0.0,0.0
8945,81.0,32,50,0.0,0.0
8946,96.0,1,41,0.0,0.0
8947,90.0,16,72,0.0,0.0
8948,87.0,71,34,0.0,0.0
8949,71.0,30,100,0.0,0.0
8950,89.0,14,93,0.0,0.0
8951,95.0,14,107,0.0,0.0
8952,80.0,40,50,0.0,0.0
8953,86.0,152,33,0.0,0.0
8954,71.0,33,193,0.0,0.0
8955,81.0,8,30,0.0,0.0
8956,95.0,67,69,0.0,0.0
8957,92.0,22,134,0.0,0.0
8958,59.0,16,676,7.0,0.0
8959,90.0,53,67,0.0,0.0
8960,83.0,14,42,0.0,0.0
8961,81.0,4,36,0.0,0.0
8962,92.0,20,75,0.0,0.0
8963,95.0,30,41,0.0,0.0
8964,90.0,5,72,0.0,0.0
8965,83.0,22,42,0.0,0.0
8966,81.0,8,33,0.0,0.0
8967,47.0,39,25,0.0,0.0
8968,92.0,13,88,0.0,0.0
8969,35.0,0,22,0.0,0.0
8970,95.0,27,54,0.0,0.0
8971,90.0,37,57,0.0,0.0
8972,83.0,17,30,0.0,0.0
8973,81.0,7,18,0.0,0.0
8974,92.0,1,74,0.0,0.0
8975,95.0,30,36,0.0,0.0
8976,34.0,18,28,0.0,0.0
8977,46.0,3,25,0.0,0.0
8978,90.0,4,66,0.0,0.0
8979,83.0,2,53,0.0,0.0
8980,81.0,19,34,0.0,0.0
8981,92.0,17,84,0.0,0.0
8982,47.0,4,13,0.0,0.0
8983,95.0,29,49,0.0,0.0
8984,35.0,33,15,0.0,0.0
8985,90.0,34,66,0.0,0.0
8986,83.0,16,35,0.0,0.0
8987,81.0,11,24,0.0,0.0
8988,92.0,2,75,0.0,0.0
8989,95.0,15,43,0.0,0.0
8990,51.0,2,20,0.0,0.0
8991,39.0,9,22,0.0,0.0
8992,90.0,23,62,0.0,0.0
8993,83.0,21,36,0.0,0.0
8994,81.0,3,33,0.0,0.0
8995,69.0,0,631,3.0,0.0
8996,54.0,7,44,0.0,0.0
8997,42.0,1,42,0.0,0.0
8998,66.0,4,1332,7.0,0.0
8999,92.0,19,80,0.0,0.0
9000,95.0,33,43,0.0,0.0
9001,59.0,8,2797,7.0,0.0
9002,71.0,6,623,2.0,0.0
9003,90.0,28,62,0.0,0.0
9004,83.0,18,36,0.0,0.0
9005,81.0,4,32,0.0,0.0
9006,92.0,24,72,0.0,0.0
9007,95.0,31,34,0.0,0.0
9008,90.0,13,66,0.0,0.0
9009,81.0,4,35,0.0,0.0
9010,83.0,18,39,0.0,0.0
9011,92.0,19,86,0.0,0.0
9012,59.0,19,36,0.0,0.0
9013,47.0,8,27,0.0,0.0
9014,95.0,30,51,0.0,0.0
9015,90.0,30,67,0.0,0.0
9016,83.0,23,35,0.0,0.0
9017,81.0,4,30,0.0,0.0
9018,92.0,22,70,0.0,0.0
9019,95.0,27,37,0.0,0.0
9020,90.0,26,70,0.0,0.0
9021,83.0,9,52,0.0,0.0
9022,81.0,16,35,0.0,0.0
9023,92.0,23,84,0.0,0.0
9024,95.0,15,51,0.0,0.0
9025,66.0,13,63,0.0,0.0
9026,54.0,13,33,0.0,0.0
9027,90.0,32,69,0.0,0.0
9028,81.0,3,35,0.0,0.0
9029,83.0,21,37,0.0,0.0
9030,92.0,23,76,0.0,0.0
9031,95.0,31,39,0.0,0.0
9032,90.0,13,85,0.0,0.0
9033,83.0,27,44,0.0,0.0
9034,81.0,1,37,0.0,0.0
9035,59.0,5,39,0.0,0.0
9036,75.0,4,47,2.0,0.0
9037,92.0,13,88,0.0,0.0
9038,71.0,3,49,0.0,0.0
9039,95.0,5,46,0.0,0.0
9040,47.0,0,839,5.0,0.0
9041,69.0,3,30,3.0,0.0
9042,66.0,30,31,4.0,0.0
9043,90.0,27,65,0.0,0.0
9044,69.0,14,85,3.0,0.0
9045,83.0,13,36,0.0,0.0
9046,81.0,4,31,0.0,0.0
9047,66.0,9,39,4.0,0.0
9048,92.0,15,70,0.0,0.0
9049,95.0,0,37,0.0,0.0
9050,66.0,14,32,4.0,0.0
9051,75.0,4,187,2.0,0.0
9052,90.0,35,70,0.0,0.0
9053,83.0,13,39,0.0,0.0
9054,81.0,6,32,0.0,0.0
9055,69.0,8,43,3.0,0.0
9056,66.0,1,37,4.0,0.0
9057,92.0,3,93,0.0,0.0
9058,71.0,15,90,0.0,0.0
9059,95.0,4,44,0.0,0.0
9060,76.0,4,81,0.0,0.0
9061,69.0,10,33,3.0,0.0
9062,66.0,25,32,4.0,0.0
9063,90.0,26,66,0.0,0.0
9064,69.0,0,42,3.0,0.0
9065,83.0,3,34,0.0,0.0
9066,81.0,2,28,0.0,0.0
9067,75.0,2,37,0.0,0.0
9068,66.0,15,38,4.0,0.0
9069,92.0,15,66,0.0,0.0
9070,95.0,7,36,0.0,0.0
9071,76.0,15,43,0.0,0.0
9072,69.0,3,37,3.0,0.0
9073,75.0,5,195,2.0,0.0
9074,66.0,1,33,4.0,0.0
9075,75.0,0,27,0.0,0.0
9076,90.0,2,54,0.0,0.0
9077,81.0,2,26,0.0,0.0
9078,83.0,18,27,0.0,0.0
9079,69.0,5,41,3.0,0.0
9080,66.0,12,37,4.0,0.0
9081,76.0,8,41,0.0,0.0
9082,92.0,0,58,0.0,0.0
9083,95.0,4,34,0.0,0.0
9084,75.0,17,24,0.0,0.0
9085,69.0,15,36,3.0,0.0
9086,90.0,14,54,0.0,0.0
9087,76.0,3,46,0.0,0.0
9088,66.0,12,34,4.0,0.0
9089,83.0,4,28,0.0,0.0
9090,81.0,3,24,0.0,0.0
9091,69.0,0,89,3.0,0.0
9092,75.0,6,29,0.0,0.0
9093,92.0,21,61,0.0,0.0
9094,95.0,13,35,0.0,0.0
9095,66.0,8,38,4.0,0.0
9096,76.0,19,53,0.0,0.0
9097,90.0,1,60,0.0,0.0
9098,83.0,1,36,0.0,0.0
9099,81.0,6,29,0.0,0.0
9100,75.0,2,81,2.0,0.0
9101,75.0,19,41,0.0,0.0
9102,66.0,4,35,4.0,0.0
9103,92.0,14,61,0.0,0.0
9104,95.0,14,37,0.0,0.0
9105,69.0,2,51,3.0,0.0
9106,76.0,20,63,0.0,0.0
9107,66.0,4,46,4.0,0.0
9108,90.0,5,60,0.0,0.0
9109,83.0,3,21,0.0,0.0
9110,81.0,1,20,0.0,0.0
9111,71.0,16,1812,7.0,0.0
9112,69.0,1,41,3.0,0.0
9113,66.0,17,791,15.0,0.0
9114,71.0,7,41,0.0,0.0
9115,35.0,1,797,6.0,0.0
9116,92.0,14,53,0.0,0.0
9117,75.0,1,795,14.0,0.0
9118,95.0,8,34,0.0,0.0
9119,69.0,0,792,14.0,0.0
9120,78.0,6,38,2.0,0.0
9121,66.0,2,37,4.0,0.0
9122,76.0,2,42,0.0,0.0
9123,69.0,2,96,3.0,0.0
9124,90.0,19,49,0.0,0.0
9125,81.0,0,25,0.0,0.0
9126,83.0,14,25,0.0,0.0
9127,75.0,7,22,0.0,0.0
9128,66.0,12,94,4.0,0.0
9129,92.0,7,45,0.0,0.0
9130,95.0,13,32,0.0,0.0
9131,76.0,3,39,0.0,0.0
9132,78.0,13,116,2.0,0.0
9133,90.0,1,62,0.0,0.0
9134,83.0,1,26,0.0,0.0
9135,81.0,4,20,0.0,0.0
9136,75.0,22,19,0.0,0.0
9137,69.0,1,44,3.0,0.0
9138,92.0,8,42,0.0,0.0
9139,95.0,12,26,0.0,0.0
9140,76.0,1,38,0.0,0.0
9141,66.0,7,28,4.0,0.0
9142,75.0,3,22,0.0,0.0
9143,81.0,2,26,0.0,0.0
9144,83.0,15,28,0.0,0.0
9145,76.0,8,35,0.0,0.0
9146,90.0,1,31,0.0,0.0
9147,92.0,6,34,0.0,0.0
9148,95.0,3,19,0.0,0.0
9149,47.0,5,200,5.0,0.0
9150,75.0,9,31,3.0,0.0
9151,75.0,0,25,0.0,0.0
9152,69.0,20,35,4.0,0.0
9153,83.0,2,28,0.0,0.0
9154,81.0,3,25,0.0,0.0
9155,76.0,5,34,0.0,0.0
9156,90.0,11,38,0.0,0.0
9157,92.0,4,31,0.0,0.0
9158,75.0,2,24,0.0,0.0
9159,75.0,7,38,3.0,0.0
9160,95.0,2,18,0.0,0.0
9161,69.0,14,42,4.0,0.0
9162,83.0,1,28,0.0,0.0
9163,81.0,1,27,0.0,0.0
9164,76.0,10,33,0.0,0.0
9165,78.0,11,208,2.0,0.0
9166,90.0,17,35,0.0,0.0
9167,75.0,1,24,0.0,0.0
9168,92.0,4,25,0.0,0.0
9169,95.0,6,16,0.0,0.0
9170,69.0,4,81,4.0,0.0
9171,83.0,0,29,0.0,0.0
9172,81.0,2,26,0.0,0.0
9173,75.0,9,28,3.0,0.0
9174,76.0,9,35,0.0,0.0
9175,75.0,7,25,0.0,0.0
9176,90.0,4,33,0.0,0.0
9177,92.0,1,29,0.0,0.0
9178,95.0,9,16,0.0,0.0
9179,75.0,5,39,3.0,0.0
9180,76.0,10,38,0.0,0.0
9181,83.0,3,32,0.0,0.0
9182,81.0,4,27,0.0,0.0
9183,75.0,13,25,0.0,0.0
9184,90.0,9,35,0.0,0.0
9185,92.0,3,30,0.0,0.0
9186,69.0,7,38,4.0,0.0
9187,95.0,7,17,0.0,0.0
9188,76.0,2,40,0.0,0.0
9189,83.0,21,31,0.0,0.0
9190,81.0,1,27,0.0,0.0
9191,75.0,14,90,3.0,0.0
9192,75.0,2,38,0.0,0.0
9193,90.0,0,141,0.0,0.0
9194,69.0,8,51,4.0,0.0
9195,92.0,41,97,0.0,0.0
9196,95.0,18,15,0.0,0.0
9197,76.0,20,131,0.0,0.0
9198,47.0,8,154,5.0,0.0
9199,81.0,3,55,0.0,0.0
9200,83.0,18,58,0.0,0.0
9201,75.0,4,54,0.0,0.0
9202,69.0,7,93,4.0,0.0
9203,78.0,1,151,2.0,0.0
9204,75.0,15,94,3.0,0.0
9205,88.0,31,81,0.0,0.0
9206,73.0,8,69,0.0,0.0
9207,75.0,0,62,0.0,0.0
9208,90.0,4,58,0.0,0.0
9209,69.0,28,19,4.0,0.0
9210,75.0,29,35,3.0,0.0
9211,83.0,0,1020,13.0,0.0
9212,77.0,3,1022,13.0,0.0
9213,92.0,2,1002,12.0,0.0
9214,86.0,1,1026,12.0,0.0
9215,47.0,11,40,5.0,0.0
9216,47.0,4,2876,11.0,0.0
9217,74.0,0,35,3.0,0.0
9218,80.0,2,31,2.0,0.0
9219,74.0,1,137,0.0,0.0
9220,71.0,5,138,0.0,0.0
9221,92.0,13,81,0.0,0.0
9222,77.0,8,128,0.0,0.0
9223,83.0,15,54,0.0,0.0
9224,80.0,1,126,0.0,0.0
9225,71.0,11,972,14.0,0.0
9226,95.0,11,67,0.0,0.0
9227,47.0,13,2841,15.0,0.0
9228,74.0,19,1029,14.0,0.0
9229,65.0,5,34,4.0,0.0
9230,65.0,1,981,15.0,0.0
9231,47.0,11,106,1.0,0.0
9232,49.0,10,17,1.0,0.0
9233,74.0,10,39,3.0,0.0
9234,80.0,3,81,2.0,0.0
9235,65.0,13,41,4.0,0.0
9236,47.0,8,33,5.0,0.0
9237,48.0,39,46,1.0,0.0
9238,74.0,4,35,3.0,0.0
9239,65.0,4,34,4.0,0.0
9240,35.0,1,32,6.0,0.0
9241,47.0,5,48,1.0,0.0
9242,80.0,1,40,2.0,0.0
9243,74.0,12,35,3.0,0.0
9244,65.0,10,40,4.0,0.0
9245,48.0,35,37,1.0,0.0
9246,47.0,8,45,1.0,0.0
9247,74.0,10,38,3.0,0.0
9248,80.0,0,33,2.0,0.0
9249,35.0,2,35,6.0,0.0
9250,47.0,3,31,5.0,0.0
9251,48.0,37,42,1.0,0.0
9252,65.0,9,33,4.0,0.0
9253,47.0,2,50,1.0,0.0
9254,80.0,7,41,2.0,0.0
9255,74.0,0,38,3.0,0.0
9256,65.0,24,33,4.0,0.0
9257,48.0,28,41,1.0,0.0
9258,80.0,6,37,2.0,0.0
9259,47.0,8,45,1.0,0.0
9260,35.0,1,35,6.0,0.0
9261,74.0,1,33,3.0,0.0
9262,47.0,2,34,5.0,0.0
9263,65.0,23,32,4.0,0.0
9264,48.0,12,43,1.0,0.0
9265,80.0,11,35,2.0,0.0
9266,74.0,18,35,3.0,0.0
9267,47.0,27,50,1.0,0.0
9268,65.0,2,26,4.0,0.0
9269,48.0,7,39,1.0,0.0
9270,80.0,7,34,2.0,0.0
9271,35.0,2,37,6.0,0.0
9272,47.0,8,36,5.0,0.0
9273,74.0,10,35,3.0,0.0
9274,47.0,20,53,1.0,0.0
9275,65.0,10,39,4.0,0.0
9276,80.0,11,38,2.0,0.0
9277,48.0,10,48,1.0,0.0
9278,65.0,4,38,4.0,0.0
9279,74.0,36,38,3.0,0.0
9280,47.0,11,198,1.0,0.0
9281,35.0,6,36,6.0,0.0
9282,80.0,1,37,2.0,0.0
9283,47.0,8,35,5.0,0.0
9284,48.0,30,46,1.0,0.0
9285,65.0,6,30,4.0,0.0
9286,74.0,2,36,3.0,0.0
9287,80.0,17,32,2.0,0.0
9288,65.0,9,39,4.0,0.0
9289,74.0,34,41,3.0,0.0
9290,48.0,17,258,1.0,0.0
9291,35.0,5,35,6.0,0.0
9292,80.0,9,38,2.0,0.0
9293,47.0,1,35,5.0,0.0
9294,65.0,4,44,4.0,0.0
9295,74.0,37,39,3.0,0.0
9296,68.0,1,237,7.0,0.0
9297,80.0,9,43,2.0,0.0
9298,47.0,24,482,1.0,0.0
9299,65.0,13,38,4.0,0.0
9300,74.0,27,38,3.0,0.0
9301,35.0,11,37,6.0,0.0
9302,80.0,7,41,2.0,0.0
9303,47.0,5,38,5.0,0.0
9304,65.0,1,35,4.0,0.0
9305,74.0,40,34,3.0,0.0
9306,80.0,6,39,2.0,0.0
9307,65.0,1,38,4.0,0.0
9308,74.0,19,36,3.0,0.0
9309,35.0,3,39,6.0,0.0
9310,81.0,10,33,2.0,0.0
9311,48.0,10,338,1.0,0.0
9312,66.0,6,31,4.0,0.0
9313,47.0,1,37,5.0,0.0
9314,73.0,5,29,3.0,0.0
9315,66.0,2,503,15.0,0.0
9316,73.0,1,470,14.0,0.0
9317,69.0,5,456,14.0,0.0
9318,85.0,1,482,12.0,0.0
9319,93.0,4,263,12.0,0.0
9320,78.0,7,388,13.0,0.0
9321,81.0,0,430,13.0,0.0
9322,69.0,12,563,7.0,0.0
9323,66.0,22,424,7.0,0.0
9324,81.0,15,42,2.0,0.0
9325,66.0,4,30,4.0,0.0
9326,73.0,26,39,3.0,0.0
9327,35.0,14,37,6.0,0.0
9328,81.0,6,30,2.0,0.0
9329,47.0,33,40,5.0,0.0
9330,66.0,12,20,4.0,0.0
9331,73.0,50,78,3.0,0.0
9332,81.0,11,45,2.0,0.0
9333,66.0,4,36,4.0,0.0
9334,35.0,17,39,6.0,0.0
9335,78.0,4,32,2.0,0.0
9336,47.0,3,40,5.0,0.0
9337,73.0,3,33,4.0,0.0
9338,69.0,8,33,3.0,0.0
9339,90.0,7,225,12.0,0.0
9340,78.0,10,40,2.0,0.0
9341,69.0,27,38,3.0,0.0
9342,73.0,15,82,4.0,0.0
9343,47.0,6,197,1.0,0.0
9344,78.0,10,28,2.0,0.0
9345,35.0,7,37,6.0,0.0
9346,48.0,14,50,1.0,0.0
9347,47.0,0,39,5.0,0.0
9348,69.0,4,36,3.0,0.0
9349,78.0,7,34,2.0,0.0
9350,73.0,19,36,4.0,0.0
9351,69.0,10,31,3.0,0.0
9352,48.0,12,121,1.0,0.0
9353,77.0,14,35,2.0,0.0
9354,35.0,2,36,6.0,0.0
9355,47.0,2,38,5.0,0.0
9356,74.0,22,38,4.0,0.0
9357,68.0,10,485,14.0,0.0
9358,83.0,14,461,13.0,0.0
9359,80.0,8,453,13.0,0.0
9360,68.0,4,30,3.0,0.0
9361,74.0,2,495,14.0,0.0
9362,68.0,5,516,15.0,0.0
9363,89.0,16,424,12.0,0.0
9364,86.0,0,460,12.0,0.0
9365,59.0,5,463,7.0,0.0
9366,77.0,16,42,2.0,0.0
9367,68.0,1,443,7.0,0.0
9368,47.0,13,47,1.0,0.0
9369,68.0,6,35,3.0,0.0
9370,74.0,2,37,4.0,0.0
9371,48.0,5,47,1.0,0.0
9372,77.0,8,34,2.0,0.0
9373,35.0,15,38,6.0,0.0
9374,68.0,2,25,3.0,0.0
9375,74.0,6,36,4.0,0.0
9376,47.0,13,36,5.0,0.0
9377,47.0,29,46,1.0,0.0
9378,77.0,10,87,2.0,0.0
9379,68.0,7,39,3.0,0.0
9380,48.0,33,42,1.0,0.0
9381,74.0,2,37,4.0,0.0
9382,47.0,9,48,1.0,0.0
9383,35.0,20,39,6.0,0.0
9384,68.0,2,34,3.0,0.0
9385,74.0,12,83,4.0,0.0
9386,48.0,6,34,1.0,0.0
9387,47.0,23,37,5.0,0.0
9388,77.0,7,43,2.0,0.0
9389,68.0,0,36,3.0,0.0
9390,47.0,30,52,1.0,0.0
9391,77.0,12,40,2.0,0.0
9392,48.0,3,193,1.0,0.0
9393,68.0,8,30,3.0,0.0
9394,35.0,26,38,6.0,0.0
9395,74.0,8,86,4.0,0.0
9396,47.0,1,52,1.0,0.0
9397,47.0,12,40,5.0,0.0
9398,77.0,4,37,2.0,0.0
9399,68.0,7,30,3.0,0.0
9400,47.0,1,47,1.0,0.0
9401,78.0,2,32,2.0,0.0
9402,69.0,2,35,3.0,0.0
9403,73.0,2,34,4.0,0.0
9404,35.0,20,36,6.0,0.0
9405,69.0,1,521,7.0,0.0
9406,66.0,19,463,7.0,0.0
9407,85.0,1,493,12.0,0.0
9408,90.0,0,510,12.0,0.0
9409,73.0,17,211,14.0,0.0
9410,81.0,5,486,13.0,0.0
9411,69.0,4,504,14.0,0.0
9412,66.0,5,264,15.0,0.0
9413,78.0,9,407,13.0,0.0
9414,47.0,18,37,5.0,0.0
9415,78.0,4,46,2.0,0.0
9416,47.0,41,43,1.0,0.0
9417,73.0,3,34,4.0,0.0
9418,69.0,4,36,3.0,0.0
9419,48.0,12,48,1.0,0.0
9420,78.0,2,33,2.0,0.0
9421,69.0,2,26,3.0,0.0
9422,73.0,1,23,4.0,0.0
9423,35.0,23,34,6.0,0.0
9424,47.0,5,52,1.0,0.0
9425,47.0,14,35,5.0,0.0
9426,73.0,8,34,4.0,0.0
9427,78.0,10,43,2.0,0.0
9428,69.0,5,38,3.0,0.0
9429,48.0,17,45,1.0,0.0
9430,47.0,19,50,1.0,0.0
9431,73.0,3,37,4.0,0.0
9432,78.0,7,37,2.0,0.0
9433,69.0,3,34,3.0,0.0
9434,35.0,7,37,6.0,0.0
9435,48.0,5,48,1.0,0.0
9436,75.0,2,268,14.0,0.0
9437,47.0,17,35,5.0,0.0
9438,63.0,4,243,15.0,0.0
9439,73.0,9,37,4.0,0.0
9440,47.0,9,48,1.0,0.0
9441,78.0,35,46,2.0,0.0
9442,69.0,6,30,3.0,0.0
9443,48.0,19,45,1.0,0.0
9444,73.0,7,87,4.0,0.0
9445,69.0,9,39,3.0,0.0
9446,78.0,1,34,2.0,0.0
9447,35.0,7,41,6.0,0.0
9448,47.0,7,47,1.0,0.0
9449,47.0,14,35,5.0,0.0
9450,69.0,5,39,3.0,0.0
9451,48.0,8,40,1.0,0.0
9452,78.0,12,44,2.0,0.0
9453,47.0,15,45,1.0,0.0
9454,80.0,3,467,13.0,0.0
9455,80.0,0,37,2.0,0.0
9456,68.0,6,30,3.0,0.0
9457,71.0,3,35,4.0,0.0
9458,76.0,0,455,13.0,0.0
9459,68.0,10,494,7.0,0.0
9460,35.0,0,38,6.0,0.0
9461,48.0,9,39,1.0,0.0
9462,64.0,4,465,7.0,0.0
9463,83.0,6,444,12.0,0.0
9464,92.0,2,254,12.0,0.0
9465,68.0,1,459,14.0,0.0
9466,47.0,30,35,5.0,0.0
9467,76.0,16,456,14.0,0.0
9468,64.0,5,440,15.0,0.0
9469,47.0,5,44,1.0,0.0
9470,68.0,1,40,3.0,0.0
9471,71.0,13,40,4.0,0.0
9472,80.0,26,44,2.0,0.0
9473,48.0,15,49,1.0,0.0
9474,71.0,3,36,4.0,0.0
9475,68.0,3,33,3.0,0.0
9476,35.0,12,38,6.0,0.0
9477,47.0,7,47,1.0,0.0
9478,80.0,16,94,2.0,0.0
9479,47.0,32,36,5.0,0.0
9480,48.0,9,44,1.0,0.0
9481,71.0,1,38,4.0,0.0
9482,68.0,10,40,3.0,0.0
9483,47.0,28,48,1.0,0.0
9484,48.0,9,45,1.0,0.0
9485,71.0,2,79,4.0,0.0
9486,35.0,2,39,6.0,0.0
9487,68.0,5,32,3.0,0.0
9488,76.0,2,35,2.0,0.0
9489,47.0,24,36,5.0,0.0
9490,88.0,11,268,12.0,0.0
9491,47.0,16,45,1.0,0.0
9492,68.0,17,39,3.0,0.0
9493,76.0,28,40,2.0,0.0
9494,48.0,4,32,1.0,0.0
9495,71.0,0,35,4.0,0.0
9496,47.0,5,46,1.0,0.0
9497,68.0,12,23,3.0,0.0
9498,35.0,0,38,6.0,0.0
9499,76.0,18,36,2.0,0.0
9500,47.0,11,35,5.0,0.0
9501,48.0,9,37,1.0,0.0
9502,68.0,2,30,3.0,0.0
9503,71.0,7,43,4.0,0.0
9504,76.0,0,25,2.0,0.0
9505,47.0,2,44,1.0,0.0
9506,48.0,4,33,1.0,0.0
9507,75.0,2,33,2.0,0.0
9508,69.0,13,34,3.0,0.0
9509,47.0,26,360,15.0,0.0
9510,66.0,14,502,15.0,0.0
9511,66.0,0,74,4.0,0.0
9512,47.0,31,42,1.0,0.0
9513,78.0,8,455,14.0,0.0
9514,47.0,6,374,11.0,0.0
9515,69.0,4,445,14.0,0.0
9516,87.0,5,462,12.0,0.0
9517,81.0,3,459,13.0,0.0
9518,66.0,6,483,7.0,0.0
9519,83.0,1,709,12.0,0.0
9520,78.0,0,401,13.0,0.0
9521,35.0,5,288,6.0,0.0
9522,59.0,3,466,7.0,0.0
9523,47.0,5,320,5.0,0.0
9524,69.0,36,40,3.0,0.0
9525,48.0,6,32,1.0,0.0
9526,75.0,5,82,2.0,0.0
9527,47.0,14,41,1.0,0.0
9528,69.0,1,29,3.0,0.0
9529,48.0,37,39,1.0,0.0
9530,66.0,12,27,4.0,0.0
9531,47.0,15,39,1.0,0.0
9532,66.0,1,33,4.0,0.0
9533,69.0,9,38,3.0,0.0
9534,75.0,10,46,2.0,0.0
9535,48.0,31,44,1.0,0.0
9536,47.0,2,48,1.0,0.0
9537,75.0,27,33,2.0,0.0
9538,66.0,8,22,4.0,0.0
9539,69.0,5,73,3.0,0.0
9540,48.0,13,41,1.0,0.0
9541,66.0,9,32,4.0,0.0
9542,47.0,24,41,1.0,0.0
9543,75.0,2,88,2.0,0.0
9544,48.0,1,38,1.0,0.0
9545,47.0,2,38,1.0,0.0
9546,66.0,0,26,4.0,0.0
9547,69.0,22,29,3.0,0.0
9548,46.0,9,104,15.0,0.0
9549,48.0,18,36,1.0,0.0
9550,46.0,8,59,5.0,0.0
9551,34.0,1,107,6.0,0.0
9552,46.0,6,101,11.0,0.0
9553,47.0,2,24,15.0,0.0
9554,66.0,9,38,4.0,0.0
9555,75.0,3,35,2.0,0.0
9556,69.0,1,40,3.0,0.0
9557,47.0,3,44,1.0,0.0
9558,40.0,0,42,1.0,0.0
9559,76.0,4,421,14.0,0.0
9560,64.0,12,34,4.0,0.0
9561,67.0,19,431,14.0,0.0
9562,79.0,6,556,13.0,0.0
9563,76.0,3,38,2.0,0.0
9564,76.0,10,533,13.0,0.0
9565,67.0,46,35,3.0,0.0
9566,47.0,10,111,15.0,0.0
9567,64.0,2,466,7.0,0.0
9568,88.0,13,574,12.0,0.0
9569,47.0,10,111,11.0,0.0
9570,47.0,6,93,5.0,0.0
9571,35.0,7,68,6.0,0.0
9572,64.0,17,227,15.0,0.0
9573,64.0,7,35,4.0,0.0
9574,67.0,13,40,3.0,0.0
9575,76.0,1,38,2.0,0.0
9576,64.0,13,75,4.0,0.0
9577,67.0,22,19,3.0,0.0
9578,52.0,6,164,11.0,0.0
9579,76.0,26,36,2.0,0.0
9580,52.0,26,98,15.0,0.0
9581,40.0,1,51,6.0,0.0
9582,52.0,2,88,5.0,0.0
9583,67.0,7,40,3.0,0.0
9584,76.0,20,36,2.0,0.0
9585,64.0,13,39,4.0,0.0
9586,40.0,13,52,1.0,0.0
9587,85.0,7,285,12.0,0.0
9588,67.0,14,133,15.0,0.0
9589,58.0,12,176,15.0,0.0
9590,58.0,2,149,11.0,0.0
9591,88.0,26,36,2.0,0.0
9592,79.0,11,89,3.0,0.0
9593,46.0,1,133,6.0,0.0
9594,58.0,2,109,5.0,0.0
9595,64.0,32,36,4.0,0.0
9596,88.0,7,40,2.0,0.0
9597,64.0,13,30,4.0,0.0
9598,79.0,1,33,3.0,0.0
9599,88.0,3,33,2.0,0.0
9600,64.0,21,49,4.0,0.0
9601,79.0,4,39,3.0,0.0
9602,88.0,52,42,2.0,0.0
9603,47.0,24,58,1.0,0.0
9604,59.0,27,155,15.0,0.0
9605,78.0,0,33,3.0,0.0
9606,78.0,17,259,14.0,0.0
9607,87.0,5,35,2.0,0.0
9608,66.0,5,143,15.0,0.0
9609,59.0,0,147,11.0,0.0
9610,71.0,3,530,14.0,0.0
9611,71.0,1,72,7.0,0.0
9612,78.0,18,271,13.0,0.0
9613,59.0,22,69,7.0,0.0
9614,75.0,4,240,13.0,0.0
9615,83.0,22,479,12.0,0.0
9616,59.0,3,113,5.0,0.0
9617,71.0,1,37,4.0,0.0
9618,47.0,4,110,6.0,0.0
9619,87.0,27,269,12.0,0.0
9620,78.0,1,28,3.0,0.0
9621,87.0,24,46,2.0,0.0
9622,71.0,10,39,4.0,0.0
9623,78.0,28,82,3.0,0.0
9624,87.0,8,92,2.0,0.0
9625,71.0,16,35,4.0,0.0
9626,71.0,27,41,4.0,0.0
9627,56.0,13,196,15.0,0.0
9628,77.0,5,33,3.0,0.0
9629,71.0,24,94,7.0,0.0
9630,59.0,8,82,7.0,0.0
9631,71.0,2,85,4.0,0.0
9632,65.0,14,166,15.0,0.0
9633,86.0,3,38,2.0,0.0
9634,56.0,11,117,5.0,0.0
9635,44.0,3,111,6.0,0.0
9636,77.0,0,183,13.0,0.0
9637,77.0,0,260,14.0,0.0
9638,86.0,14,213,12.0,0.0
9639,74.0,14,263,13.0,0.0
9640,77.0,2,39,3.0,0.0
9641,86.0,13,39,2.0,0.0
9642,77.0,32,32,3.0,0.0
9643,71.0,35,83,4.0,0.0
9644,86.0,2,87,2.0,0.0
9645,77.0,1,41,3.0,0.0
9646,76.0,8,36,3.0,0.0
9647,69.0,7,85,7.0,0.0
9648,72.0,5,43,4.0,0.0
9649,57.0,7,198,15.0,0.0
9650,64.0,31,83,7.0,0.0
9651,64.0,16,740,15.0,0.0
9652,57.0,7,112,5.0,0.0
9653,81.0,25,223,12.0,0.0
9654,84.0,9,281,12.0,0.0
9655,45.0,7,110,6.0,0.0
9656,72.0,15,202,14.0,0.0
9657,76.0,0,742,13.0,0.0
9658,84.0,21,35,2.0,0.0
9659,76.0,11,238,14.0,0.0
9660,72.0,23,239,13.0,0.0
9661,76.0,1,36,3.0,0.0
9662,72.0,0,33,4.0,0.0
9663,84.0,4,37,2.0,0.0
9664,76.0,42,26,3.0,0.0
9665,72.0,3,80,4.0,0.0
9666,84.0,16,35,2.0,0.0
9667,76.0,19,41,3.0,0.0
9668,84.0,0,39,2.0,0.0
9669,52.0,13,79,7.0,0.0
9670,59.0,19,95,5.0,0.0
9671,59.0,17,162,15.0,0.0
9672,64.0,3,72,7.0,0.0
9673,76.0,1,42,4.0,0.0
9674,68.0,1,86,3.0,0.0
9675,74.0,11,268,14.0,0.0
9676,68.0,11,216,14.0,0.0
9677,47.0,5,100,6.0,0.0
9678,80.0,2,222,12.0,0.0
9679,83.0,18,37,2.0,0.0
9680,69.0,1,27,3.0,0.0
9681,83.0,0,266,12.0,0.0
9682,68.0,0,253,13.0,0.0
9683,76.0,2,26,4.0,0.0
9684,83.0,45,43,2.0,0.0
9685,68.0,12,78,3.0,0.0
9686,76.0,0,34,4.0,0.0
9687,83.0,20,39,2.0,0.0
9688,76.0,14,36,4.0,0.0
9689,83.0,37,45,2.0,0.0
9690,60.0,16,74,5.0,0.0
9691,64.0,27,90,7.0,0.0
9692,64.0,15,36,4.0,0.0
9693,69.0,1,35,3.0,0.0
9694,52.0,1,80,7.0,0.0
9695,60.0,23,113,15.0,0.0
9696,48.0,1,109,6.0,0.0
9697,81.0,15,38,2.0,0.0
9698,69.0,4,174,14.0,0.0
9699,69.0,1,426,13.0,0.0
9700,81.0,4,491,12.0,0.0
9701,72.0,15,241,14.0,0.0
9702,64.0,3,34,4.0,0.0
9703,69.0,2,30,3.0,0.0
9704,81.0,1,45,2.0,0.0
9705,69.0,32,30,3.0,0.0
9706,64.0,37,84,4.0,0.0
9707,81.0,16,36,2.0,0.0
9708,69.0,5,35,3.0,0.0
9709,81.0,11,43,2.0,0.0
9710,51.0,2,95,5.0,0.0
9711,71.0,0,34,3.0,0.0
9712,39.0,2,107,6.0,0.0
9713,66.0,23,29,4.0,0.0
9714,59.0,20,139,7.0,0.0
9715,66.0,3,129,7.0,0.0
9716,81.0,28,42,2.0,0.0
9717,51.0,5,119,15.0,0.0
9718,78.0,2,210,13.0,0.0
9719,78.0,6,203,12.0,0.0
9720,66.0,25,217,14.0,0.0
9721,66.0,10,103,15.0,0.0
9722,71.0,8,515,14.0,0.0
9723,71.0,1,34,3.0,0.0
9724,66.0,22,31,4.0,0.0
9725,81.0,16,41,2.0,0.0
9726,71.0,6,34,3.0,0.0
9727,81.0,27,37,2.0,0.0
9728,66.0,1,41,4.0,0.0
9729,71.0,24,41,3.0,0.0
9730,81.0,7,46,2.0,0.0
9731,71.0,15,39,3.0,0.0
9732,52.0,3,96,5.0,0.0
9733,64.0,10,40,4.0,0.0
9734,40.0,3,106,6.0,0.0
9735,79.0,5,254,12.0,0.0
9736,76.0,19,514,12.0,0.0
9737,79.0,36,38,2.0,0.0
9738,76.0,0,510,13.0,0.0
9739,67.0,14,229,13.0,0.0
9740,52.0,28,100,15.0,0.0
9741,67.0,6,194,14.0,0.0
9742,64.0,3,83,15.0,0.0
9743,64.0,0,122,7.0,0.0
9744,59.0,12,126,7.0,0.0
9745,71.0,9,46,3.0,0.0
9746,64.0,8,43,4.0,0.0
9747,79.0,7,43,2.0,0.0
9748,71.0,2,41,3.0,0.0
9749,79.0,42,37,2.0,0.0
9750,64.0,2,22,4.0,0.0
9751,64.0,0,43,4.0,0.0
9752,71.0,11,40,3.0,0.0
9753,79.0,22,46,2.0,0.0
9754,70.0,13,31,3.0,0.0
9755,48.0,0,100,5.0,0.0
9756,64.0,3,39,4.0,0.0
9757,36.0,8,104,6.0,0.0
9758,78.0,21,33,2.0,0.0
9759,78.0,14,229,12.0,0.0
9760,60.0,0,92,15.0,0.0
9761,66.0,18,207,13.0,0.0
9762,48.0,23,97,15.0,0.0
9763,64.0,17,143,14.0,0.0
9764,48.0,13,40,1.0,0.0
9765,70.0,1,229,14.0,0.0
9766,66.0,11,77,7.0,0.0
9767,48.0,4,107,11.0,0.0
9768,70.0,9,35,3.0,0.0
9769,64.0,10,41,4.0,0.0
9770,78.0,0,46,2.0,0.0
9771,50.0,3,17,1.0,0.0
9772,48.0,17,95,1.0,0.0
9773,70.0,1,40,3.0,0.0
9774,64.0,8,103,4.0,0.0
9775,78.0,8,87,2.0,0.0
9776,50.0,20,27,1.0,0.0
9777,70.0,5,32,3.0,0.0
9778,50.0,4,37,1.0,0.0
9779,48.0,9,51,1.0,0.0
9780,71.0,14,37,3.0,0.0
9781,47.0,4,70,5.0,0.0
9782,78.0,1,44,2.0,0.0
9783,35.0,11,113,6.0,0.0
9784,63.0,49,46,4.0,0.0
9785,66.0,41,219,13.0,0.0
9786,63.0,15,153,14.0,0.0
9787,75.0,4,107,12.0,0.0
9788,78.0,0,107,12.0,0.0
9789,59.0,2,135,15.0,0.0
9790,75.0,2,209,13.0,0.0
9791,66.0,11,107,7.0,0.0
9792,59.0,9,94,7.0,0.0
9793,47.0,14,118,1.0,0.0
9794,47.0,10,137,15.0,0.0
9795,71.0,44,158,14.0,0.0
9796,47.0,4,127,11.0,0.0
9797,59.0,10,37,2.0,0.0
9798,47.0,7,147,5.0,0.0
9799,59.0,30,30,3.0,0.0
9800,59.0,9,46,4.0,0.0
9801,59.0,28,38,2.0,0.0
9802,59.0,9,27,3.0,0.0
9803,59.0,33,37,4.0,0.0
9804,58.0,2,37,2.0,0.0
9805,46.0,23,139,5.0,0.0
9806,58.0,45,30,3.0,0.0
9807,58.0,51,73,4.0,0.0
9808,58.0,2,32,3.0,0.0
9809,58.0,5,34,2.0,0.0
9810,47.0,3,97,5.0,0.0
9811,59.0,7,36,2.0,0.0
9812,59.0,36,51,4.0,0.0
9813,59.0,12,39,3.0,0.0
9814,59.0,0,38,3.0,0.0
9815,59.0,58,41,2.0,0.0
9816,59.0,3,37,4.0,0.0
9817,51.0,20,90,5.0,0.0
9818,63.0,1,96,4.0,0.0
9819,63.0,14,28,2.0,0.0
9820,63.0,22,33,3.0,0.0
9821,63.0,13,35,2.0,0.0
9822,63.0,216,35,3.0,0.0
9823,54.0,30,203,5.0,0.0
9824,66.0,45,263,4.0,0.0
9825,66.0,44,209,2.0,0.0
9826,66.0,3,230,3.0,0.0
9827,55.0,4,87,5.0,0.0
9828,67.0,192,95,2.0,0.0
9829,67.0,18,69,4.0,0.0
9830,67.0,1,54,3.0,0.0
9831,52.0,5,51,5.0,0.0
9832,40.0,2,72,6.0,0.0
9833,52.0,2,72,15.0,0.0
9834,76.0,0,64,14.0,0.0
9835,59.0,4,79,4.0,0.0
9836,67.0,1,63,14.0,0.0
9837,64.0,1,66,15.0,0.0
9838,76.0,2,77,13.0,0.0
9839,79.0,2,48,2.0,0.0
9840,64.0,9,39,4.0,0.0
9841,64.0,1,55,10.0,0.0
9842,71.0,1,74,13.0,0.0
9843,71.0,5,30,2.0,0.0
9844,55.0,4,48,10.0,0.0
9845,71.0,1,72,7.0,0.0
9846,67.0,0,50,8.0,0.0
9847,40.0,2,41,1.0,0.0
9848,79.0,1,61,8.0,0.0
9849,64.0,6,55,3.0,0.0
9850,52.0,20,97,11.0,0.0
9851,59.0,4,67,7.0,0.0
9852,79.0,6,70,12.0,0.0
9853,71.0,2,43,3.0,0.0
9854,76.0,9,70,12.0,0.0
9855,41.0,9,36,1.0,0.0
9856,40.0,44,38,1.0,0.0
9857,41.0,20,44,1.0,0.0
9858,40.0,45,36,1.0,0.0
9859,41.0,24,44,1.0,0.0
9860,40.0,24,45,1.0,0.0
9861,47.0,11,60,5.0,0.0
9862,35.0,2,93,6.0,0.0
9863,76.0,0,95,14.0,0.0
9864,67.0,1,92,14.0,0.0
9865,64.0,1,99,4.0,0.0
9866,47.0,1,90,15.0,0.0
9867,64.0,3,91,15.0,0.0
9868,59.0,2,99,4.0,0.0
9869,64.0,3,65,3.0,0.0
9870,71.0,2,95,13.0,0.0
9871,76.0,25,101,13.0,0.0
9872,71.0,3,91,7.0,0.0
9873,59.0,1,79,7.0,0.0
9874,71.0,4,43,3.0,0.0
9875,67.0,0,60,8.0,0.0
9876,79.0,3,75,8.0,0.0
9877,79.0,8,59,2.0,0.0
9878,71.0,12,42,2.0,0.0
9879,55.0,0,54,10.0,0.0
9880,79.0,2,88,12.0,0.0
9881,76.0,0,90,12.0,0.0
9882,47.0,168,112,11.0,0.0
9883,64.0,1,52,10.0,0.0
9884,47.0,5,58,1.0,0.0
9885,47.0,15,131,5.0,0.0
9886,59.0,6,37,3.0,0.0
9887,59.0,10,40,2.0,0.0
9888,59.0,38,40,4.0,0.0
9889,59.0,9,41,3.0,0.0
9890,59.0,2,35,2.0,0.0
9891,59.0,35,43,4.0,0.0
9892,46.0,4,120,5.0,0.0
9893,58.0,8,36,3.0,0.0
9894,58.0,6,41,2.0,0.0
9895,58.0,29,41,4.0,0.0
9896,58.0,9,35,3.0,0.0
9897,58.0,54,33,2.0,0.0
9898,58.0,5,21,4.0,0.0
9899,47.0,32,100,5.0,0.0
9900,59.0,12,36,3.0,0.0
9901,59.0,4,32,4.0,0.0
9902,59.0,6,35,2.0,0.0
9903,59.0,16,38,3.0,0.0
9904,52.0,7,86,5.0,0.0
9905,59.0,1,37,2.0,0.0
9906,59.0,48,37,4.0,0.0
9907,64.0,17,36,3.0,0.0
9908,64.0,11,77,4.0,0.0
9909,64.0,25,30,2.0,0.0
9910,64.0,10,34,3.0,0.0
9911,64.0,195,35,2.0,0.0
9912,55.0,79,213,5.0,0.0
9913,67.0,3,260,4.0,0.0
9914,67.0,7,246,3.0,0.0
9915,67.0,21,250,2.0,0.0
9916,56.0,5,67,5.0,0.0
9917,68.0,20,66,3.0,0.0
9918,68.0,14,45,4.0,0.0
9919,68.0,168,71,2.0,0.0
9920,53.0,16,44,5.0,0.0
9921,41.0,0,62,6.0,0.0
9922,65.0,0,76,3.0,0.0
9923,71.0,3,37,3.0,0.0
9924,80.0,5,55,2.0,0.0
9925,71.0,2,63,14.0,0.0
9926,71.0,7,33,2.0,0.0
9927,68.0,2,57,14.0,0.0
9928,71.0,2,58,13.0,0.0
9929,65.0,9,39,4.0,0.0
9930,59.0,3,47,4.0,0.0
9931,53.0,4,66,15.0,0.0
9932,65.0,4,72,15.0,0.0
9933,74.0,4,57,13.0,0.0
9934,71.0,1,72,12.0,0.0
9935,71.0,2,65,7.0,0.0
9936,80.0,2,62,12.0,0.0
9937,47.0,0,44,1.0,0.0
9938,59.0,1,53,7.0,0.0
9939,62.0,2,51,10.0,0.0
9940,53.0,10,83,11.0,0.0
9941,48.0,22,32,1.0,0.0
9942,47.0,14,39,1.0,0.0
9943,48.0,46,22,1.0,0.0
9944,47.0,22,42,1.0,0.0
9945,48.0,39,38,1.0,0.0
9946,47.0,17,42,1.0,0.0
9947,47.0,2,49,5.0,0.0
9948,35.0,5,84,6.0,0.0
9949,48.0,38,41,1.0,0.0
9950,80.0,1,66,2.0,0.0
9951,65.0,3,54,4.0,0.0
9952,71.0,2,65,2.0,0.0
9953,59.0,10,67,4.0,0.0
9954,71.0,1,63,3.0,0.0
9955,65.0,2,52,3.0,0.0
9956,65.0,2,84,15.0,0.0
9957,47.0,0,76,15.0,0.0
9958,71.0,9,87,14.0,0.0
9959,68.0,0,75,14.0,0.0
9960,71.0,2,79,12.0,0.0
9961,80.0,4,73,12.0,0.0
9962,71.0,3,79,13.0,0.0
9963,62.0,9,61,10.0,0.0
9964,74.0,0,75,13.0,0.0
9965,71.0,3,87,7.0,0.0
9966,47.0,18,87,1.0,0.0
9967,59.0,0,72,7.0,0.0
9968,47.0,160,102,11.0,0.0
9969,47.0,19,111,5.0,0.0
9970,59.0,6,38,2.0,0.0
9971,59.0,29,37,4.0,0.0
9972,59.0,0,37,3.0,0.0
9973,59.0,13,42,2.0,0.0
9974,59.0,22,42,3.0,0.0
9975,46.0,17,103,5.0,0.0
9976,59.0,21,37,4.0,0.0
9977,58.0,7,38,2.0,0.0
9978,58.0,18,36,3.0,0.0
9979,58.0,2,37,4.0,0.0
9980,58.0,61,30,3.0,0.0
9981,58.0,5,25,2.0,0.0
9982,47.0,3,59,5.0,0.0
9983,59.0,1,37,2.0,0.0
9984,59.0,8,39,4.0,0.0
9985,59.0,40,37,3.0,0.0
9986,59.0,6,39,2.0,0.0
9987,59.0,65,37,3.0,0.0
9988,53.0,9,87,5.0,0.0
9989,65.0,4,41,4.0,0.0
9990,65.0,9,38,2.0,0.0
9991,65.0,226,40,3.0,0.0
9992,56.0,57,206,5.0,0.0
9993,68.0,36,219,2.0,0.0
9994,68.0,14,194,4.0,0.0
9995,68.0,29,257,3.0,0.0
9996,57.0,23,79,5.0,0.0
9997,69.0,20,77,2.0,0.0
9998,69.0,14,77,4.0,0.0
9999,69.0,149,90,3.0,0.0
10000,35.0,4,84,6.0,0.0
10001,47.0,31,44,5.0,0.0
10002,69.0,4,100,2.0,0.0
10003,71.0,1,91,7.0,0.0
10004,47.0,4,124,11.0,0.0
10005,81.0,1,72,2.0,0.0
10006,59.0,1,67,7.0,0.0
10007,59.0,5,105,15.0,0.0
10008,69.0,3,82,14.0,0.0
10009,75.0,9,89,13.0,0.0
10010,78.0,15,62,14.0,0.0
10011,71.0,3,79,13.0,0.0
10012,47.0,1,56,1.0,0.0
10013,47.0,296,115,15.0,0.0
10014,78.0,4,96,12.0,0.0
10015,81.0,4,103,12.0,0.0
10016,66.0,0,96,3.0,0.0
10017,75.0,3,77,3.0,0.0
10018,66.0,1,76,4.0,0.0
10019,57.0,88,201,5.0,0.0
10020,69.0,9,261,2.0,0.0
10021,69.0,4,271,3.0,0.0
10022,69.0,15,247,4.0,0.0
10023,58.0,0,67,5.0,0.0
10024,70.0,11,51,2.0,0.0
10025,70.0,51,42,3.0,0.0
10026,70.0,156,93,4.0,0.0
10027,46.0,17,64,5.0,0.0
10028,34.0,0,95,6.0,0.0
10029,78.0,5,65,12.0,0.0
10030,82.0,4,73,12.0,0.0
10031,46.0,3,114,15.0,0.0
10032,46.0,274,115,11.0,0.0
10033,70.0,2,62,13.0,0.0
10034,82.0,2,63,2.0,0.0
10035,75.0,3,71,13.0,0.0
10036,70.0,1,74,2.0,0.0
10037,58.0,13,95,15.0,0.0
10038,66.0,5,72,7.0,0.0
10039,78.0,6,61,14.0,0.0
10040,70.0,1,70,14.0,0.0
10041,66.0,0,57,4.0,0.0
10042,75.0,11,70,3.0,0.0
10043,66.0,5,65,3.0,0.0
10044,68.0,1,33,7.0,0.0
10045,67.0,2,30,7.0,0.0
10046,58.0,68,182,5.0,0.0
10047,70.0,25,245,2.0,0.0
10048,70.0,23,200,4.0,0.0
10049,70.0,16,248,3.0,0.0
10050,59.0,1,64,5.0,0.0
10051,71.0,22,53,2.0,0.0
10052,71.0,207,63,3.0,0.0
10053,71.0,3,54,4.0,0.0
10054,45.0,2,70,15.0,0.0
10055,57.0,1,69,15.0,0.0
10056,66.0,9,132,2.0,0.0
10057,33.0,7,79,6.0,0.0
10058,45.0,12,191,5.0,0.0
10059,75.0,7,125,2.0,0.0
10060,78.0,0,47,12.0,0.0
10061,83.0,8,47,12.0,0.0
10062,75.0,20,74,3.0,0.0
10063,78.0,2,62,14.0,0.0
10064,66.0,2,57,14.0,0.0
10065,45.0,6,111,11.0,0.0
10066,75.0,9,61,13.0,0.0
10067,71.0,2,54,13.0,0.0
10068,66.0,5,84,7.0,0.0
10069,66.0,40,115,4.0,0.0
10070,59.0,5,80,7.0,0.0
10071,83.0,79,147,2.0,0.0
10072,45.0,10,36,5.0,0.0
10073,83.0,29,34,2.0,0.0
10074,33.0,1,48,6.0,0.0
10075,78.0,7,66,14.0,0.0
10076,66.0,15,49,7.0,0.0
10077,66.0,2,61,14.0,0.0
10078,59.0,6,68,7.0,0.0
10079,75.0,11,126,13.0,0.0
10080,71.0,9,108,13.0,0.0
10081,57.0,20,80,15.0,0.0
10082,45.0,4,97,15.0,0.0
10083,75.0,1,32,3.0,0.0
10084,83.0,24,232,12.0,0.0
10085,78.0,9,161,12.0,0.0
10086,83.0,13,40,2.0,0.0
10087,66.0,0,31,4.0,0.0
10088,45.0,1,39,5.0,0.0
10089,75.0,0,20,3.0,0.0
10090,83.0,6,34,2.0,0.0
10091,66.0,13,25,4.0,0.0
10092,75.0,23,24,3.0,0.0
10093,83.0,3,35,2.0,0.0
10094,66.0,22,28,4.0,0.0
10095,75.0,28,34,3.0,0.0
10096,45.0,7,38,5.0,0.0
10097,66.0,2,35,4.0,0.0
10098,84.0,23,117,2.0,0.0
10099,75.0,31,34,3.0,0.0
10100,33.0,4,687,6.0,0.0
10101,60.0,14,272,8.0,0.0
10102,72.0,2,740,8.0,0.0
10103,84.0,13,723,12.0,0.0
10104,66.0,5,675,14.0,0.0
10105,72.0,12,689,14.0,0.0
10106,66.0,26,760,7.0,0.0
10107,45.0,24,226,11.0,0.0
10108,78.0,9,656,12.0,0.0
10109,60.0,0,263,10.0,0.0
10110,75.0,12,739,13.0,0.0
10111,72.0,2,655,13.0,0.0
10112,57.0,3,666,15.0,0.0
10113,66.0,25,32,4.0,0.0
10114,48.0,3,729,10.0,0.0
10115,45.0,7,660,15.0,0.0
10116,75.0,7,34,3.0,0.0
10117,45.0,1,39,5.0,0.0
10118,66.0,29,36,4.0,0.0
10119,75.0,32,33,3.0,0.0
10120,84.0,29,70,2.0,0.0
10121,66.0,16,32,4.0,0.0
10122,75.0,11,24,3.0,0.0
10123,45.0,2,38,5.0,0.0
10124,66.0,7,36,4.0,0.0
10125,75.0,15,31,3.0,0.0
10126,84.0,1,37,2.0,0.0
10127,66.0,27,33,4.0,0.0
10128,45.0,23,212,11.0,0.0
10129,75.0,0,38,3.0,0.0
10130,84.0,22,30,2.0,0.0
10131,45.0,18,38,5.0,0.0
10132,66.0,4,28,4.0,0.0
10133,75.0,32,21,3.0,0.0
10134,84.0,20,69,2.0,0.0
10135,66.0,31,20,4.0,0.0
10136,75.0,6,37,3.0,0.0
10137,66.0,20,34,4.0,0.0
10138,45.0,16,41,5.0,0.0
10139,75.0,36,74,3.0,0.0
10140,66.0,15,36,4.0,0.0
10141,84.0,16,40,2.0,0.0
10142,66.0,10,32,4.0,0.0
10143,84.0,1,29,2.0,0.0
10144,45.0,39,39,5.0,0.0
10145,75.0,19,76,3.0,0.0
10146,84.0,1,25,2.0,0.0
10147,66.0,20,19,4.0,0.0
10148,84.0,1,36,2.0,0.0
10149,66.0,2,77,4.0,0.0
10150,45.0,32,258,6.0,0.0
10151,57.0,19,41,5.0,0.0
10152,78.0,3,273,12.0,0.0
10153,72.0,2,271,12.0,0.0
10154,72.0,1,35,3.0,0.0
10155,78.0,8,34,2.0,0.0
10156,78.0,11,254,13.0,0.0
10157,72.0,4,271,13.0,0.0
10158,57.0,1,238,15.0,0.0
10159,45.0,8,259,15.0,0.0
10160,66.0,7,283,14.0,0.0
10161,57.0,12,269,11.0,0.0
10162,72.0,5,239,14.0,0.0
10163,78.0,36,33,2.0,0.0
10164,72.0,8,76,3.0,0.0
10165,66.0,34,70,4.0,0.0
10166,57.0,17,37,5.0,0.0
10167,78.0,18,68,2.0,0.0
10168,72.0,16,42,3.0,0.0
10169,46.0,27,260,6.0,0.0
10170,58.0,12,43,5.0,0.0
10171,76.0,5,222,12.0,0.0
10172,73.0,2,34,3.0,0.0
10173,76.0,0,36,2.0,0.0
10174,67.0,1,40,4.0,0.0
10175,73.0,2,256,12.0,0.0
10176,58.0,3,244,15.0,0.0
10177,46.0,35,265,15.0,0.0
10178,58.0,10,212,11.0,0.0
10179,76.0,9,231,13.0,0.0
10180,67.0,2,242,14.0,0.0
10181,64.0,0,218,7.0,0.0
10182,73.0,15,332,14.0,0.0
10183,73.0,4,230,13.0,0.0
10184,73.0,8,34,3.0,0.0
10185,67.0,4,28,4.0,0.0
10186,76.0,53,27,2.0,0.0
10187,58.0,35,65,5.0,0.0
10188,67.0,15,97,4.0,0.0
10189,76.0,6,86,2.0,0.0
10190,73.0,10,76,3.0,0.0
10191,59.0,0,60,5.0,0.0
10192,47.0,1,109,6.0,0.0
10193,75.0,4,204,12.0,0.0
10194,75.0,1,31,2.0,0.0
10195,71.0,1,37,3.0,0.0
10196,66.0,3,29,4.0,0.0
10197,75.0,1,118,13.0,0.0
10198,47.0,55,193,15.0,0.0
10199,71.0,4,109,13.0,0.0
10200,59.0,6,177,15.0,0.0
10201,59.0,0,161,11.0,0.0
10202,66.0,2,165,14.0,0.0
10203,71.0,2,97,7.0,0.0
10204,59.0,3,99,7.0,0.0
10205,75.0,39,39,2.0,0.0
10206,66.0,1,33,4.0,0.0
10207,71.0,1,29,3.0,0.0
10208,59.0,1,60,5.0,0.0
10209,71.0,5,34,3.0,0.0
10210,66.0,3,24,4.0,0.0
10211,75.0,29,46,2.0,0.0
10212,66.0,6,33,4.0,0.0
10213,71.0,1,39,3.0,0.0
10214,47.0,56,47,5.0,0.0
10215,83.0,1,36,2.0,0.0
10216,75.0,2,33,3.0,0.0
10217,35.0,10,191,6.0,0.0
10218,66.0,1,34,4.0,0.0
10219,83.0,15,223,12.0,0.0
10220,78.0,21,155,12.0,0.0
10221,66.0,11,227,14.0,0.0
10222,75.0,17,186,13.0,0.0
10223,47.0,9,225,15.0,0.0
10224,66.0,32,71,7.0,0.0
10225,71.0,4,177,13.0,0.0
10226,75.0,24,254,14.0,0.0
10227,59.0,23,109,7.0,0.0
10228,59.0,0,225,15.0,0.0
10229,47.0,12,232,11.0,0.0
10230,66.0,13,37,4.0,0.0
10231,75.0,6,81,3.0,0.0
10232,83.0,0,83,2.0,0.0
10233,47.0,3,46,5.0,0.0
10234,66.0,1,34,4.0,0.0
10235,83.0,1,32,2.0,0.0
10236,75.0,2,36,3.0,0.0
10237,66.0,7,38,4.0,0.0
10238,45.0,7,44,5.0,0.0
10239,75.0,1,34,3.0,0.0
10240,33.0,3,488,6.0,0.0
10241,66.0,1,83,4.0,0.0
10242,84.0,1,36,2.0,0.0
10243,84.0,2,382,12.0,0.0
10244,75.0,8,733,13.0,0.0
10245,72.0,9,753,13.0,0.0
10246,78.0,23,274,12.0,0.0
10247,72.0,5,488,8.0,0.0
10248,60.0,0,46,8.0,0.0
10249,66.0,5,454,7.0,0.0
10250,60.0,9,35,10.0,0.0
10251,72.0,0,405,14.0,0.0
10252,66.0,7,404,14.0,0.0
10253,57.0,3,378,15.0,0.0
10254,45.0,3,458,15.0,0.0
10255,75.0,13,36,3.0,0.0
10256,48.0,6,454,10.0,0.0
10257,45.0,1,459,11.0,0.0
10258,84.0,46,39,2.0,0.0
10259,45.0,45,47,5.0,0.0
10260,75.0,6,33,3.0,0.0
10261,66.0,0,84,4.0,0.0
10262,84.0,12,70,2.0,0.0
10263,75.0,62,39,3.0,0.0
10264,45.0,7,42,5.0,0.0
10265,66.0,11,34,4.0,0.0
10266,75.0,1,32,3.0,0.0
10267,84.0,8,37,2.0,0.0
10268,75.0,7,230,12.0,0.0
10269,75.0,16,29,3.0,0.0
10270,66.0,2,38,4.0,0.0
10271,84.0,31,34,2.0,0.0
10272,45.0,22,39,5.0,0.0
10273,66.0,6,35,4.0,0.0
10274,75.0,18,68,3.0,0.0
10275,84.0,23,30,2.0,0.0
10276,84.0,4,34,2.0,0.0
10277,66.0,31,39,4.0,0.0
10278,57.0,5,42,5.0,0.0
10279,45.0,8,48,6.0,0.0
10280,66.0,2,36,4.0,0.0
10281,75.0,11,72,3.0,0.0
10282,78.0,32,33,2.0,0.0
10283,78.0,3,231,12.0,0.0
10284,84.0,16,209,12.0,0.0
10285,66.0,30,275,14.0,0.0
10286,57.0,3,262,15.0,0.0
10287,57.0,1,259,11.0,0.0
10288,72.0,5,226,14.0,0.0
10289,69.0,6,230,15.0,0.0
10290,66.0,43,39,4.0,0.0
10291,78.0,5,19,2.0,0.0
10292,45.0,9,55,6.0,0.0
10293,57.0,9,42,5.0,0.0
10294,66.0,41,39,4.0,0.0
10295,78.0,10,65,2.0,0.0
10296,75.0,19,83,3.0,0.0
10297,66.0,8,41,4.0,0.0
10298,43.0,4,36,6.0,0.0
10299,55.0,3,42,5.0,0.0
10300,76.0,8,35,2.0,0.0
10301,72.0,0,39,3.0,0.0
10302,67.0,1,36,4.0,0.0
10303,76.0,1,260,13.0,0.0
10304,79.0,11,283,12.0,0.0
10305,67.0,26,254,14.0,0.0
10306,55.0,2,243,11.0,0.0
10307,55.0,0,248,15.0,0.0
10308,84.0,1,478,12.0,0.0
10309,72.0,34,174,14.0,0.0
10310,67.0,1,228,15.0,0.0
10311,76.0,9,35,2.0,0.0
10312,72.0,33,37,3.0,0.0
10313,67.0,3,82,4.0,0.0
10314,43.0,5,52,6.0,0.0
10315,55.0,12,50,5.0,0.0
10316,76.0,48,32,2.0,0.0
10317,72.0,0,84,3.0,0.0
10318,76.0,7,36,2.0,0.0
10319,67.0,12,41,4.0,0.0
10320,42.0,6,49,6.0,0.0
10321,54.0,6,36,5.0,0.0
10322,74.0,8,32,2.0,0.0
10323,69.0,2,37,4.0,0.0
10324,62.0,1,720,10.0,0.0
10325,72.0,0,36,3.0,0.0
10326,74.0,0,718,13.0,0.0
10327,74.0,5,718,14.0,0.0
10328,72.0,3,259,13.0,0.0
10329,69.0,1,214,14.0,0.0
10330,54.0,7,223,15.0,0.0
10331,54.0,4,195,11.0,0.0
10332,66.0,6,193,15.0,0.0
10333,81.0,11,193,12.0,0.0
10334,74.0,10,39,2.0,0.0
10335,69.0,7,33,4.0,0.0
10336,72.0,37,35,3.0,0.0
10337,42.0,2,72,6.0,0.0
10338,54.0,12,37,5.0,0.0
10339,74.0,2,40,2.0,0.0
10340,69.0,42,41,4.0,0.0
10341,72.0,13,84,3.0,0.0
10342,74.0,13,38,2.0,0.0
10343,69.0,3,46,4.0,0.0
10344,43.0,17,43,6.0,0.0
10345,55.0,4,39,5.0,0.0
10346,83.0,2,89,2.0,0.0
10347,67.0,44,44,4.0,0.0
10348,71.0,2,40,3.0,0.0
10349,55.0,8,265,11.0,0.0
10350,71.0,42,722,7.0,0.0
10351,71.0,49,413,14.0,0.0
10352,71.0,15,693,13.0,0.0
10353,83.0,2,634,12.0,0.0
10354,79.0,18,613,12.0,0.0
10355,55.0,23,255,15.0,0.0
10356,67.0,6,624,15.0,0.0
10357,67.0,50,37,4.0,0.0
10358,71.0,1,33,3.0,0.0
10359,43.0,9,53,6.0,0.0
10360,83.0,3,40,2.0,0.0
10361,55.0,2,42,5.0,0.0
10362,67.0,31,93,4.0,0.0
10363,71.0,43,33,3.0,0.0
10364,83.0,7,49,2.0,0.0
10365,71.0,2,34,3.0,0.0
10366,42.0,21,37,6.0,0.0
10367,54.0,3,38,5.0,0.0
10368,74.0,6,35,2.0,0.0
10369,71.0,13,39,3.0,0.0
10370,67.0,41,83,4.0,0.0
10371,54.0,1,250,11.0,0.0
10372,54.0,2,222,15.0,0.0
10373,74.0,6,36,2.0,0.0
10374,71.0,5,37,3.0,0.0
10375,42.0,11,54,6.0,0.0
10376,54.0,7,34,5.0,0.0
10377,74.0,18,67,2.0,0.0
10378,71.0,26,34,3.0,0.0
10379,67.0,4,72,4.0,0.0
10380,71.0,2,36,3.0,0.0
10381,40.0,8,43,6.0,0.0
10382,67.0,15,240,14.0,0.0
10383,72.0,1,34,2.0,0.0
10384,72.0,0,739,13.0,0.0
10385,52.0,3,36,5.0,0.0
10386,67.0,38,38,4.0,0.0
10387,71.0,1,37,3.0,0.0
10388,72.0,4,727,14.0,0.0
10389,60.0,24,562,10.0,0.0
10390,52.0,2,186,11.0,0.0
10391,52.0,23,174,15.0,0.0
10392,72.0,10,31,2.0,0.0
10393,71.0,44,38,3.0,0.0
10394,67.0,9,72,4.0,0.0
10395,40.0,2,66,6.0,0.0
10396,72.0,2,31,2.0,0.0
10397,52.0,9,37,5.0,0.0
10398,71.0,23,36,3.0,0.0
10399,72.0,1,33,2.0,0.0
10400,67.0,0,42,4.0,0.0
10401,71.0,2,41,3.0,0.0
10402,81.0,12,761,12.0,0.0
10403,78.0,29,732,12.0,0.0
10404,42.0,3,52,6.0,0.0
10405,81.0,4,30,2.0,0.0
10406,54.0,4,37,5.0,0.0
10407,69.0,4,39,3.0,0.0
10408,69.0,21,478,14.0,0.0
10409,66.0,14,84,4.0,0.0
10410,69.0,10,590,13.0,0.0
10411,69.0,25,436,7.0,0.0
10412,54.0,11,247,15.0,0.0
10413,54.0,3,236,11.0,0.0
10414,66.0,5,560,15.0,0.0
10415,81.0,24,64,2.0,0.0
10416,69.0,15,40,3.0,0.0
10417,42.0,33,64,6.0,0.0
10418,66.0,10,34,4.0,0.0
10419,69.0,7,35,3.0,0.0
10420,54.0,2,35,5.0,0.0
10421,81.0,11,54,2.0,0.0
10422,66.0,1,34,4.0,0.0
10423,69.0,49,40,3.0,0.0
10424,72.0,2,37,2.0,0.0
10425,40.0,2,43,6.0,0.0
10426,66.0,4,34,4.0,0.0
10427,69.0,5,38,3.0,0.0
10428,52.0,9,44,5.0,0.0
10429,64.0,6,208,7.0,0.0
10430,52.0,0,262,11.0,0.0
10431,40.0,12,41,1.0,0.0
10432,52.0,7,279,15.0,0.0
10433,72.0,4,39,2.0,0.0
10434,66.0,5,34,4.0,0.0
10435,69.0,29,38,3.0,0.0
10436,41.0,10,43,1.0,0.0
10437,40.0,1,43,1.0,0.0
10438,72.0,12,72,2.0,0.0
10439,40.0,14,42,6.0,0.0
10440,66.0,1,80,4.0,0.0
10441,69.0,11,89,3.0,0.0
10442,52.0,15,45,5.0,0.0
10443,41.0,10,48,1.0,0.0
10444,40.0,12,41,1.0,0.0
10445,41.0,7,76,1.0,0.0
10446,71.0,2,50,2.0,0.0
10447,40.0,1,61,1.0,0.0
10448,71.0,11,86,7.0,0.0
10449,39.0,3,82,6.0,0.0
10450,66.0,1,42,4.0,0.0
10451,71.0,1,94,14.0,0.0
10452,69.0,13,42,3.0,0.0
10453,66.0,6,65,7.0,0.0
10454,66.0,15,100,14.0,0.0
10455,71.0,6,117,13.0,0.0
10456,51.0,0,44,5.0,0.0
10457,51.0,13,83,11.0,0.0
10458,51.0,101,124,15.0,0.0
10459,47.0,4,37,1.0,0.0
10460,64.0,16,237,2.0,0.0
10461,71.0,11,183,2.0,0.0
10462,71.0,1,178,13.0,0.0
10463,71.0,10,121,7.0,0.0
10464,67.0,1,171,13.0,0.0
10465,67.0,3,117,3.0,0.0
10466,64.0,4,101,7.0,0.0
10467,67.0,0,138,14.0,0.0
10468,40.0,2,171,6.0,0.0
10469,79.0,4,174,12.0,0.0
10470,76.0,2,178,12.0,0.0
10471,52.0,6,151,11.0,0.0
10472,71.0,8,135,14.0,0.0
10473,64.0,12,84,4.0,0.0
10474,75.0,17,21,12.0,0.0
10475,40.0,44,36,1.0,0.0
10476,52.0,9,118,15.0,0.0
10477,52.0,11,94,5.0,0.0
10478,79.0,6,135,2.0,0.0
10479,64.0,1,134,15.0,0.0
10480,64.0,180,169,10.0,0.0
10481,52.0,2,136,10.0,0.0
10482,64.0,3,120,10.0,0.0
10483,52.0,130,117,10.0,0.0
10484,64.0,631,41,10.0,0.0
10485,52.0,8,29,10.0,0.0
10486,64.0,0,2227,10.0,0.0
10487,52.0,34,2223,10.0,0.0
10488,91.0,33,193,12.0,0.0
10489,79.0,160,222,12.0,0.0
10490,88.0,51,236,12.0,0.0
10491,76.0,13,222,12.0,0.0
10492,73.0,283,86,12.0,0.0
10493,85.0,0,78,12.0,0.0
10494,83.0,21,301,12.0,0.0
10495,71.0,106,319,12.0,0.0
10496,76.0,21,1158,2.0,0.0
10497,61.0,36,1114,3.0,0.0
10498,67.0,56,1243,4.0,0.0
10499,82.0,2,160,12.0,0.0
10500,70.0,209,140,12.0,0.0
10501,79.0,8,235,14.0,0.0
10502,67.0,149,216,15.0,0.0
10503,76.0,23,240,14.0,0.0
10504,64.0,42,243,15.0,0.0
10505,73.0,9,107,14.0,0.0
10506,61.0,276,92,15.0,0.0
10507,71.0,4,352,14.0,0.0
10508,59.0,76,353,15.0,0.0
10509,70.0,30,232,14.0,0.0
10510,58.0,26,252,15.0,0.0
10511,91.0,8,181,12.0,0.0
10512,79.0,55,185,12.0,0.0
10513,64.0,135,104,10.0,0.0
10514,52.0,7,91,10.0,0.0
10515,88.0,22,232,12.0,0.0
10516,76.0,4,223,12.0,0.0
10517,85.0,28,95,12.0,0.0
10518,73.0,258,114,12.0,0.0
10519,64.0,34,37,10.0,0.0
10520,52.0,7,24,10.0,0.0
10521,61.0,4,1174,3.0,0.0
10522,67.0,14,1173,4.0,0.0
10523,83.0,22,302,12.0,0.0
10524,76.0,28,1181,2.0,0.0
10525,52.0,1,1266,10.0,0.0
10526,71.0,139,301,12.0,0.0
10527,64.0,35,1261,10.0,0.0
10528,82.0,142,192,12.0,0.0
10529,70.0,7,180,12.0,0.0
10530,67.0,34,186,15.0,0.0
10531,79.0,191,214,14.0,0.0
10532,64.0,19,253,15.0,0.0
10533,76.0,44,262,14.0,0.0
10534,61.0,17,95,15.0,0.0
10535,73.0,251,108,14.0,0.0
10536,59.0,58,343,15.0,0.0
10537,71.0,15,327,14.0,0.0
10538,58.0,5,169,15.0,0.0
10539,70.0,143,158,14.0,0.0
10540,58.0,3,236,5.0,0.0
10541,58.0,0,222,11.0,0.0
10542,76.0,7,37,2.0,0.0
10543,64.0,36,154,7.0,0.0
10544,73.0,0,220,12.0,0.0
10545,76.0,1,223,12.0,0.0
10546,46.0,1,215,15.0,0.0
10547,67.0,2,212,14.0,0.0
10548,73.0,3,214,14.0,0.0
10549,58.0,6,222,15.0,0.0
10550,76.0,19,229,13.0,0.0
10551,67.0,2,203,13.0,0.0
10552,40.0,44,45,1.0,0.0
10553,46.0,9,245,6.0,0.0
10554,73.0,3,34,4.0,0.0
10555,67.0,5,34,3.0,0.0
10556,41.0,46,27,1.0,0.0
10557,73.0,5,79,4.0,0.0
10558,76.0,5,71,2.0,0.0
10559,67.0,1,64,3.0,0.0
10560,40.0,2,56,1.0,0.0
10561,41.0,19,55,1.0,0.0
10562,67.0,3,47,3.0,0.0
10563,73.0,0,41,4.0,0.0
10564,40.0,3,45,1.0,0.0
10565,76.0,1,34,2.0,0.0
10566,41.0,15,42,1.0,0.0
10567,66.0,1,35,3.0,0.0
10568,71.0,3,189,12.0,0.0
10569,40.0,4,43,1.0,0.0
10570,75.0,0,161,12.0,0.0
10571,71.0,3,158,14.0,0.0
10572,47.0,34,229,6.0,0.0
10573,75.0,9,32,2.0,0.0
10574,59.0,2,191,15.0,0.0
10575,66.0,4,156,14.0,0.0
10576,47.0,22,160,15.0,0.0
10577,75.0,2,203,13.0,0.0
10578,59.0,10,213,11.0,0.0
10579,59.0,39,266,5.0,0.0
10580,71.0,13,811,7.0,0.0
10581,71.0,1,180,13.0,0.0
10582,59.0,2,820,7.0,0.0
10583,71.0,37,34,4.0,0.0
10584,47.0,14,92,1.0,0.0
10585,66.0,41,30,3.0,0.0
10586,75.0,6,72,2.0,0.0
10587,71.0,8,77,4.0,0.0
10588,66.0,6,32,3.0,0.0
10589,66.0,4,34,3.0,0.0
10590,75.0,12,31,2.0,0.0
10591,71.0,8,38,4.0,0.0
10592,71.0,7,36,4.0,0.0
10593,63.0,3,30,3.0,0.0
10594,75.0,21,222,12.0,0.0
10595,78.0,0,30,2.0,0.0
10596,78.0,2,244,12.0,0.0
10597,57.0,2,251,5.0,0.0
10598,45.0,10,237,6.0,0.0
10599,57.0,0,202,11.0,0.0
10600,66.0,1,202,14.0,0.0
10601,71.0,3,204,14.0,0.0
10602,59.0,3,444,15.0,0.0
10603,75.0,3,219,13.0,0.0
10604,71.0,2,192,13.0,0.0
10605,57.0,15,259,15.0,0.0
10606,47.0,3,33,1.0,0.0
10607,63.0,8,32,3.0,0.0
10608,71.0,6,37,4.0,0.0
10609,78.0,36,33,2.0,0.0
10610,63.0,3,22,3.0,0.0
10611,71.0,39,37,4.0,0.0
10612,78.0,13,22,2.0,0.0
10613,63.0,10,35,3.0,0.0
10614,71.0,20,35,4.0,0.0
10615,78.0,1,32,2.0,0.0
10616,71.0,6,33,4.0,0.0
10617,76.0,5,34,2.0,0.0
10618,64.0,19,35,3.0,0.0
10619,43.0,1,267,6.0,0.0
10620,76.0,6,222,12.0,0.0
10621,55.0,23,226,5.0,0.0
10622,76.0,3,213,13.0,0.0
10623,71.0,7,185,13.0,0.0
10624,55.0,37,147,11.0,0.0
10625,71.0,16,192,14.0,0.0
10626,67.0,2,189,14.0,0.0
10627,55.0,7,229,15.0,0.0
10628,47.0,11,37,1.0,0.0
10629,71.0,14,37,4.0,0.0
10630,64.0,39,40,3.0,0.0
10631,76.0,10,72,2.0,0.0
10632,71.0,4,37,4.0,0.0
10633,64.0,11,34,3.0,0.0
10634,71.0,0,42,4.0,0.0
10635,64.0,2,39,3.0,0.0
10636,76.0,1,35,2.0,0.0
10637,71.0,2,37,4.0,0.0
10638,81.0,0,32,2.0,0.0
10639,63.0,28,30,3.0,0.0
10640,42.0,2,241,6.0,0.0
10641,71.0,33,194,13.0,0.0
10642,54.0,1,154,11.0,0.0
10643,81.0,1,237,13.0,0.0
10644,71.0,3,154,14.0,0.0
10645,69.0,23,150,14.0,0.0
10646,75.0,8,233,12.0,0.0
10647,54.0,11,217,5.0,0.0
10648,81.0,28,258,12.0,0.0
10649,47.0,20,37,1.0,0.0
10650,54.0,1,214,15.0,0.0
10651,63.0,2,215,15.0,0.0
10652,71.0,4,39,4.0,0.0
10653,63.0,27,35,3.0,0.0
10654,81.0,7,75,2.0,0.0
10655,71.0,10,34,4.0,0.0
10656,63.0,17,30,3.0,0.0
10657,81.0,1,38,2.0,0.0
10658,71.0,1,35,4.0,0.0
10659,63.0,10,35,3.0,0.0
10660,71.0,4,85,4.0,0.0
10661,79.0,17,37,2.0,0.0
10662,40.0,0,261,6.0,0.0
10663,64.0,46,74,3.0,0.0
10664,52.0,3,254,5.0,0.0
10665,71.0,5,174,7.0,0.0
10666,71.0,15,184,13.0,0.0
10667,79.0,5,265,13.0,0.0
10668,59.0,2,161,7.0,0.0
10669,67.0,0,193,14.0,0.0
10670,76.0,4,230,14.0,0.0
10671,76.0,18,118,12.0,0.0
10672,52.0,1,172,11.0,0.0
10673,79.0,6,165,12.0,0.0
10674,52.0,1,148,15.0,0.0
10675,40.0,0,40,1.0,0.0
10676,64.0,1,210,15.0,0.0
10677,79.0,18,67,2.0,0.0
10678,71.0,0,86,4.0,0.0
10679,76.0,23,33,3.0,0.0
10680,79.0,2,39,2.0,0.0
10681,76.0,37,37,3.0,0.0
10682,71.0,22,38,4.0,0.0
10683,83.0,2,32,2.0,0.0
10684,51.0,5,235,5.0,0.0
10685,39.0,5,242,6.0,0.0
10686,78.0,16,196,13.0,0.0
10687,71.0,5,129,13.0,0.0
10688,78.0,13,33,3.0,0.0
10689,78.0,30,127,12.0,0.0
10690,83.0,17,95,12.0,0.0
10691,66.0,8,225,14.0,0.0
10692,71.0,11,207,14.0,0.0
10693,51.0,5,180,11.0,0.0
10694,47.0,9,35,1.0,0.0
10695,66.0,4,151,7.0,0.0
10696,71.0,3,147,7.0,0.0
10697,71.0,13,37,4.0,0.0
10698,51.0,8,249,15.0,0.0
10699,63.0,1,202,15.0,0.0
10700,83.0,13,36,2.0,0.0
10701,78.0,18,31,3.0,0.0
10702,71.0,0,82,4.0,0.0
10703,83.0,9,36,2.0,0.0
10704,78.0,2,77,3.0,0.0
10705,83.0,17,37,2.0,0.0
10706,83.0,11,37,2.0,0.0
10707,40.0,6,72,6.0,0.0
10708,71.0,10,33,4.0,0.0
10709,52.0,13,101,5.0,0.0
10710,79.0,4,70,12.0,0.0
10711,79.0,3,80,3.0,0.0
10712,79.0,6,80,13.0,0.0
10713,76.0,3,72,13.0,0.0
10714,83.0,1,60,12.0,0.0
10715,52.0,27,94,11.0,0.0
10716,51.0,10,18,5.0,0.0
10717,71.0,1,116,7.0,0.0
10718,71.0,1,115,14.0,0.0
10719,83.0,6,37,2.0,0.0
10720,64.0,5,118,7.0,0.0
10721,67.0,1,109,14.0,0.0
10722,52.0,16,117,15.0,0.0
10723,40.0,7,36,1.0,0.0
10724,64.0,0,100,15.0,0.0
10725,71.0,4,28,4.0,0.0
10726,91.0,1,34,2.0,0.0
10727,71.0,4,37,4.0,0.0
10728,91.0,18,66,12.0,0.0
10729,83.0,17,34,3.0,0.0
10730,91.0,4,28,2.0,0.0
10731,71.0,11,42,4.0,0.0
10732,83.0,68,29,3.0,0.0
10733,91.0,6,79,2.0,0.0
10734,35.0,1,414,6.0,0.0
10735,91.0,7,154,12.0,0.0
10736,47.0,6,442,5.0,0.0
10737,83.0,19,422,12.0,0.0
10738,75.0,7,255,13.0,0.0
10739,83.0,37,84,3.0,0.0
10740,81.0,2,258,13.0,0.0
10741,71.0,44,37,4.0,0.0
10742,71.0,1,426,14.0,0.0
10743,47.0,12,422,11.0,0.0
10744,47.0,17,95,1.0,0.0
10745,47.0,3,453,15.0,0.0
10746,59.0,1,435,15.0,0.0
10747,71.0,4,404,7.0,0.0
10748,59.0,9,417,7.0,0.0
10749,90.0,3,76,2.0,0.0
10750,71.0,5,70,4.0,0.0
10751,48.0,43,41,1.0,0.0
10752,81.0,11,78,3.0,0.0
10753,90.0,3,139,12.0,0.0
10754,66.0,0,137,14.0,0.0
10755,47.0,1,97,1.0,0.0
10756,71.0,8,38,4.0,0.0
10757,48.0,37,34,1.0,0.0
10758,88.0,7,81,2.0,0.0
10759,71.0,0,35,4.0,0.0
10760,79.0,5,72,3.0,0.0
10761,67.0,10,142,14.0,0.0
10762,88.0,2,140,12.0,0.0
10763,48.0,32,32,1.0,0.0
10764,79.0,15,137,13.0,0.0
10765,76.0,0,124,13.0,0.0
10766,47.0,6,40,1.0,0.0
10767,71.0,17,32,4.0,0.0
10768,48.0,36,38,1.0,0.0
10769,87.0,3,70,2.0,0.0
10770,47.0,7,43,1.0,0.0
10771,78.0,7,65,3.0,0.0
10772,71.0,3,71,4.0,0.0
10773,87.0,1,98,12.0,0.0
10774,48.0,0,97,1.0,0.0
10775,78.0,16,134,13.0,0.0
10776,66.0,6,148,14.0,0.0
10777,81.0,3,145,13.0,0.0
10778,47.0,11,78,1.0,0.0
10779,88.0,1,31,2.0,0.0
10780,40.0,0,79,6.0,0.0
10781,52.0,7,74,5.0,0.0
10782,71.0,3,37,4.0,0.0
10783,79.0,0,34,3.0,0.0
10784,83.0,4,65,12.0,0.0
10785,88.0,4,60,12.0,0.0
10786,67.0,2,107,14.0,0.0
10787,88.0,0,39,2.0,0.0
10788,71.0,10,64,14.0,0.0
10789,79.0,7,68,13.0,0.0
10790,76.0,8,83,13.0,0.0
10791,52.0,0,95,11.0,0.0
10792,52.0,15,92,15.0,0.0
10793,64.0,1,88,15.0,0.0
10794,79.0,1,34,3.0,0.0
10795,40.0,6,34,1.0,0.0
10796,71.0,8,53,7.0,0.0
10797,59.0,4,67,7.0,0.0
10798,71.0,1,29,4.0,0.0
10799,91.0,5,34,2.0,0.0
10800,71.0,1,22,4.0,0.0
10801,83.0,26,31,3.0,0.0
10802,91.0,7,56,12.0,0.0
10803,71.0,47,34,4.0,0.0
10804,91.0,7,23,2.0,0.0
10805,91.0,31,37,2.0,0.0
10806,35.0,17,436,6.0,0.0
10807,91.0,17,158,12.0,0.0
10808,83.0,1,40,3.0,0.0
10809,71.0,24,41,4.0,0.0
10810,83.0,7,419,12.0,0.0
10811,47.0,9,444,5.0,0.0
10812,75.0,7,231,13.0,0.0
10813,47.0,5,421,11.0,0.0
10814,81.0,2,238,13.0,0.0
10815,71.0,1,442,14.0,0.0
10816,91.0,18,36,2.0,0.0
10817,47.0,3,464,15.0,0.0
10818,59.0,10,443,15.0,0.0
10819,71.0,8,421,7.0,0.0
10820,47.0,6,102,1.0,0.0
10821,71.0,11,33,4.0,0.0
10822,59.0,3,437,7.0,0.0
10823,83.0,29,35,3.0,0.0
10824,90.0,21,33,2.0,0.0
10825,71.0,5,38,4.0,0.0
10826,81.0,2,34,3.0,0.0
10827,90.0,0,136,12.0,0.0
10828,66.0,9,142,14.0,0.0
10829,90.0,6,34,2.0,0.0
10830,48.0,12,39,1.0,0.0
10831,71.0,11,33,4.0,0.0
10832,81.0,13,36,3.0,0.0
10833,47.0,20,35,1.0,0.0
10834,48.0,4,28,1.0,0.0
10835,88.0,14,32,2.0,0.0
10836,79.0,4,34,3.0,0.0
10837,71.0,5,35,4.0,0.0
10838,88.0,6,129,12.0,0.0
10839,47.0,10,42,1.0,0.0
10840,67.0,7,124,14.0,0.0
10841,88.0,11,40,2.0,0.0
10842,76.0,0,115,13.0,0.0
10843,79.0,7,102,13.0,0.0
10844,48.0,11,38,1.0,0.0
10845,79.0,1,35,3.0,0.0
10846,71.0,32,36,4.0,0.0
10847,47.0,9,211,1.0,0.0
10848,87.0,4,34,2.0,0.0
10849,48.0,11,26,1.0,0.0
10850,87.0,1,79,12.0,0.0
10851,78.0,5,72,3.0,0.0
10852,71.0,15,37,4.0,0.0
10853,78.0,10,106,13.0,0.0
10854,66.0,3,151,14.0,0.0
10855,81.0,16,157,13.0,0.0
10856,87.0,16,33,2.0,0.0
10857,48.0,1,34,1.0,0.0
10858,71.0,2,30,4.0,0.0
10859,88.0,0,33,2.0,0.0
10860,48.0,4,40,1.0,0.0
10861,34.0,5,114,6.0,0.0
10862,46.0,6,197,5.0,0.0
10863,79.0,8,40,3.0,0.0
10864,88.0,0,84,12.0,0.0
10865,85.0,3,77,12.0,0.0
10866,58.0,1,122,15.0,0.0
10867,46.0,1,120,15.0,0.0
10868,76.0,4,90,13.0,0.0
10869,46.0,3,174,11.0,0.0
10870,76.0,1,483,8.0,0.0
10871,64.0,2,34,4.0,0.0
10872,79.0,0,93,13.0,0.0
10873,64.0,1,481,8.0,0.0
10874,67.0,8,112,14.0,0.0
10875,73.0,15,86,14.0,0.0
10876,52.0,6,363,10.0,0.0
10877,64.0,2,359,10.0,0.0
10878,88.0,5,78,2.0,0.0
10879,64.0,26,310,7.0,0.0
10880,79.0,17,33,3.0,0.0
10881,40.0,1,39,1.0,0.0
10882,64.0,2,35,4.0,0.0
10883,79.0,19,39,3.0,0.0
10884,64.0,14,36,4.0,0.0
10885,88.0,11,40,2.0,0.0
10886,79.0,19,38,3.0,0.0
10887,64.0,34,38,4.0,0.0
10888,79.0,25,31,2.0,0.0
10889,46.0,11,192,6.0,0.0
10890,58.0,4,218,5.0,0.0
10891,79.0,6,222,12.0,0.0
10892,76.0,6,227,12.0,0.0
10893,46.0,6,194,15.0,0.0
10894,58.0,10,168,15.0,0.0
10895,73.0,10,29,3.0,0.0
10896,76.0,4,208,13.0,0.0
10897,64.0,18,35,4.0,0.0
10898,73.0,26,226,13.0,0.0
10899,58.0,2,191,11.0,0.0
10900,67.0,3,183,14.0,0.0
10901,73.0,2,179,14.0,0.0
10902,79.0,26,35,2.0,0.0
10903,73.0,11,30,3.0,0.0
10904,64.0,2,37,4.0,0.0
10905,79.0,7,22,2.0,0.0
10906,73.0,17,22,3.0,0.0
10907,64.0,2,32,4.0,0.0
10908,79.0,10,36,2.0,0.0
10909,73.0,4,36,3.0,0.0
10910,64.0,1,42,4.0,0.0
10911,78.0,5,31,2.0,0.0
10912,45.0,16,179,6.0,0.0
10913,57.0,2,197,5.0,0.0
10914,60.0,10,252,10.0,0.0
10915,75.0,27,32,3.0,0.0
10916,78.0,7,154,12.0,0.0
10917,75.0,7,178,12.0,0.0
10918,57.0,2,189,15.0,0.0
10919,45.0,1,175,15.0,0.0
10920,72.0,1,198,14.0,0.0
10921,78.0,1,178,13.0,0.0
10922,66.0,2,193,14.0,0.0
10923,66.0,0,429,7.0,0.0
10924,78.0,9,39,2.0,0.0
10925,75.0,8,176,13.0,0.0
10926,72.0,14,39,4.0,0.0
10927,57.0,24,181,11.0,0.0
10928,75.0,20,31,3.0,0.0
10929,78.0,16,23,2.0,0.0
10930,72.0,22,35,4.0,0.0
10931,75.0,13,23,3.0,0.0
10932,78.0,8,30,2.0,0.0
10933,72.0,1,34,4.0,0.0
10934,75.0,1,33,3.0,0.0
10935,72.0,3,37,4.0,0.0
10936,84.0,14,32,2.0,0.0
10937,45.0,2,230,6.0,0.0
10938,75.0,12,34,3.0,0.0
10939,57.0,1,213,5.0,0.0
10940,75.0,15,191,12.0,0.0
10941,84.0,4,206,12.0,0.0
10942,66.0,37,29,4.0,0.0
10943,45.0,0,199,15.0,0.0
10944,78.0,3,200,13.0,0.0
10945,57.0,4,201,15.0,0.0
10946,57.0,6,203,11.0,0.0
10947,75.0,3,214,13.0,0.0
10948,84.0,24,64,2.0,0.0
10949,72.0,11,200,14.0,0.0
10950,66.0,1,172,14.0,0.0
10951,75.0,16,35,3.0,0.0
10952,66.0,7,25,4.0,0.0
10953,75.0,46,23,3.0,0.0
10954,66.0,13,64,4.0,0.0
10955,84.0,1,40,2.0,0.0
10956,75.0,9,33,3.0,0.0
10957,83.0,5,34,2.0,0.0
10958,55.0,5,189,5.0,0.0
10959,43.0,6,197,6.0,0.0
10960,76.0,2,203,12.0,0.0
10961,76.0,14,34,3.0,0.0
10962,83.0,11,218,12.0,0.0
10963,67.0,41,37,4.0,0.0
10964,64.0,2,119,7.0,0.0
10965,52.0,18,85,10.0,0.0
10966,64.0,32,120,10.0,0.0
10967,55.0,1,182,11.0,0.0
10968,55.0,13,181,15.0,0.0
10969,43.0,6,150,15.0,0.0
10970,76.0,2,159,13.0,0.0
10971,79.0,3,169,13.0,0.0
10972,71.0,20,203,14.0,0.0
10973,67.0,6,185,14.0,0.0
10974,83.0,11,82,2.0,0.0
10975,76.0,12,35,3.0,0.0
10976,67.0,7,64,4.0,0.0
10977,76.0,1,32,3.0,0.0
10978,83.0,2,39,2.0,0.0
10979,76.0,1,36,3.0,0.0
10980,67.0,4,34,4.0,0.0
10981,88.0,8,36,2.0,0.0
10982,79.0,11,36,3.0,0.0
10983,76.0,0,85,8.0,0.0
10984,48.0,12,211,5.0,0.0
10985,88.0,0,193,12.0,0.0
10986,64.0,8,67,8.0,0.0
10987,64.0,2,114,10.0,0.0
10988,76.0,0,183,12.0,0.0
10989,52.0,15,97,10.0,0.0
10990,76.0,22,33,4.0,0.0
10991,36.0,3,258,6.0,0.0
10992,48.0,12,213,11.0,0.0
10993,64.0,12,234,7.0,0.0
10994,48.0,10,222,15.0,0.0
10995,76.0,9,151,14.0,0.0
10996,79.0,2,112,13.0,0.0
10997,48.0,10,42,1.0,0.0
10998,67.0,12,174,14.0,0.0
10999,76.0,4,109,13.0,0.0
11000,88.0,6,39,2.0,0.0
11001,79.0,1,36,3.0,0.0
11002,50.0,17,23,1.0,0.0
11003,76.0,7,70,4.0,0.0
11004,48.0,9,38,1.0,0.0
11005,79.0,0,37,3.0,0.0
11006,88.0,5,75,2.0,0.0
11007,50.0,26,33,1.0,0.0
11008,48.0,6,41,1.0,0.0
11009,79.0,5,39,3.0,0.0
11010,76.0,3,37,4.0,0.0
11011,50.0,2,47,1.0,0.0
11012,48.0,1,47,1.0,0.0
11013,79.0,0,82,3.0,0.0
11014,88.0,8,37,2.0,0.0
11015,47.0,3,69,5.0,0.0
11016,79.0,1,85,12.0,0.0
11017,76.0,30,38,4.0,0.0
11018,76.0,0,94,14.0,0.0
11019,52.0,2,90,10.0,0.0
11020,67.0,2,90,14.0,0.0
11021,35.0,8,70,6.0,0.0
11022,47.0,1,78,11.0,0.0
11023,64.0,10,88,10.0,0.0
11024,64.0,55,251,8.0,0.0
11025,88.0,0,86,12.0,0.0
11026,76.0,1,249,8.0,0.0
11027,79.0,1,84,13.0,0.0
11028,76.0,5,73,13.0,0.0
11029,47.0,5,91,15.0,0.0
11030,47.0,3,59,1.0,0.0
11031,71.0,9,86,7.0,0.0
11032,59.0,15,93,7.0,0.0
11033,88.0,5,26,2.0,0.0
11034,76.0,11,78,4.0,0.0
11035,83.0,40,34,3.0,0.0
11036,91.0,57,87,2.0,0.0
11037,91.0,2,71,12.0,0.0
11038,76.0,6,38,4.0,0.0
11039,83.0,8,23,3.0,0.0
11040,91.0,8,84,2.0,0.0
11041,83.0,3,85,3.0,0.0
11042,83.0,6,442,12.0,0.0
11043,71.0,30,85,4.0,0.0
11044,91.0,2,157,12.0,0.0
11045,75.0,8,260,13.0,0.0
11046,47.0,16,473,11.0,0.0
11047,47.0,1,471,5.0,0.0
11048,71.0,1,442,14.0,0.0
11049,81.0,18,282,13.0,0.0
11050,35.0,14,455,6.0,0.0
11051,59.0,5,436,15.0,0.0
11052,47.0,0,432,15.0,0.0
11053,47.0,34,93,1.0,0.0
11054,71.0,1,419,7.0,0.0
11055,59.0,2,415,7.0,0.0
11056,71.0,9,40,4.0,0.0
11057,90.0,2,62,2.0,0.0
11058,48.0,1,25,1.0,0.0
11059,90.0,7,148,12.0,0.0
11060,81.0,24,32,3.0,0.0
11061,66.0,26,83,14.0,0.0
11062,47.0,14,33,1.0,0.0
11063,71.0,12,38,4.0,0.0
11064,81.0,4,33,3.0,0.0
11065,48.0,12,35,1.0,0.0
11066,47.0,9,36,1.0,0.0
11067,71.0,1,36,4.0,0.0
11068,79.0,9,80,3.0,0.0
11069,88.0,2,32,2.0,0.0
11070,48.0,11,37,1.0,0.0
11071,76.0,8,124,13.0,0.0
11072,88.0,2,131,12.0,0.0
11073,67.0,5,138,14.0,0.0
11074,79.0,22,138,13.0,0.0
11075,71.0,5,37,4.0,0.0
11076,47.0,8,44,1.0,0.0
11077,88.0,13,40,2.0,0.0
11078,48.0,23,39,1.0,0.0
11079,71.0,7,37,4.0,0.0
11080,47.0,6,43,1.0,0.0
11081,87.0,3,42,2.0,0.0
11082,87.0,2,95,12.0,0.0
11083,78.0,6,74,3.0,0.0
11084,78.0,7,140,13.0,0.0
11085,81.0,13,163,13.0,0.0
11086,48.0,6,91,1.0,0.0
11087,66.0,2,136,14.0,0.0
11088,71.0,6,41,4.0,0.0
11089,87.0,7,35,2.0,0.0
11090,47.0,2,43,1.0,0.0
11091,71.0,1,34,4.0,0.0
11092,40.0,4,56,6.0,0.0
11093,79.0,6,36,3.0,0.0
11094,52.0,2,101,15.0,0.0
11095,52.0,7,106,11.0,0.0
11096,88.0,14,34,2.0,0.0
11097,88.0,5,76,12.0,0.0
11098,76.0,3,90,13.0,0.0
11099,64.0,2,101,15.0,0.0
11100,71.0,0,93,14.0,0.0
11101,83.0,6,78,12.0,0.0
11102,67.0,1,89,14.0,0.0
11103,71.0,5,104,7.0,0.0
11104,52.0,0,86,5.0,0.0
11105,79.0,4,78,13.0,0.0
11106,59.0,7,108,7.0,0.0
11107,40.0,8,42,1.0,0.0
11108,71.0,3,37,4.0,0.0
11109,79.0,1,35,3.0,0.0
11110,88.0,6,39,2.0,0.0
11111,71.0,25,34,4.0,0.0
11112,91.0,14,68,12.0,0.0
11113,83.0,13,33,3.0,0.0
11114,91.0,18,32,2.0,0.0
11115,71.0,3,36,4.0,0.0
11116,83.0,28,24,3.0,0.0
11117,91.0,57,35,2.0,0.0
11118,71.0,13,79,4.0,0.0
11119,91.0,4,169,12.0,0.0
11120,83.0,1,378,12.0,0.0
11121,75.0,2,259,13.0,0.0
11122,83.0,17,45,3.0,0.0
11123,81.0,7,283,13.0,0.0
11124,59.0,0,462,15.0,0.0
11125,91.0,3,37,2.0,0.0
11126,35.0,8,453,6.0,0.0
11127,47.0,0,459,5.0,0.0
11128,47.0,0,469,11.0,0.0
11129,47.0,6,410,15.0,0.0
11130,47.0,14,64,1.0,0.0
11131,71.0,15,410,14.0,0.0
11132,71.0,2,456,7.0,0.0
11133,59.0,15,463,7.0,0.0
11134,83.0,12,35,3.0,0.0
11135,91.0,14,40,2.0,0.0
11136,48.0,14,41,1.0,0.0
11137,71.0,22,33,4.0,0.0
11138,47.0,6,40,1.0,0.0
11139,81.0,1,33,3.0,0.0
11140,90.0,5,33,2.0,0.0
11141,66.0,0,129,14.0,0.0
11142,90.0,9,156,12.0,0.0
11143,48.0,19,22,1.0,0.0
11144,71.0,18,37,4.0,0.0
11145,81.0,7,33,3.0,0.0
11146,90.0,4,39,2.0,0.0
11147,47.0,23,38,1.0,0.0
11148,48.0,20,38,1.0,0.0
11149,79.0,18,34,3.0,0.0
11150,71.0,5,75,4.0,0.0
11151,47.0,5,41,1.0,0.0
11152,67.0,0,137,14.0,0.0
11153,76.0,15,111,13.0,0.0
11154,88.0,1,32,2.0,0.0
11155,79.0,12,122,13.0,0.0
11156,48.0,4,39,1.0,0.0
11157,88.0,2,122,12.0,0.0
11158,79.0,24,36,3.0,0.0
11159,88.0,3,40,2.0,0.0
11160,47.0,17,42,1.0,0.0
11161,48.0,7,35,1.0,0.0
11162,71.0,5,69,4.0,0.0
11163,78.0,3,78,3.0,0.0
11164,78.0,10,114,13.0,0.0
11165,66.0,4,86,14.0,0.0
11166,47.0,5,31,1.0,0.0
11167,87.0,15,34,2.0,0.0
11168,81.0,35,133,13.0,0.0
11169,48.0,4,40,1.0,0.0
11170,87.0,7,99,12.0,0.0
11171,47.0,7,42,1.0,0.0
11172,87.0,5,34,2.0,0.0
11173,71.0,7,179,14.0,0.0
11174,67.0,5,162,14.0,0.0
11175,71.0,38,66,4.0,0.0
11176,79.0,3,57,3.0,0.0
11177,40.0,9,123,6.0,0.0
11178,52.0,1,121,5.0,0.0
11179,52.0,0,168,11.0,0.0
11180,79.0,9,148,13.0,0.0
11181,76.0,8,131,13.0,0.0
11182,40.0,230,193,15.0,0.0
11183,88.0,8,35,2.0,0.0
11184,40.0,2,41,1.0,0.0
11185,52.0,15,160,15.0,0.0
11186,52.0,18,79,10.0,0.0
11187,64.0,11,91,10.0,0.0
11188,52.0,1,165,7.0,0.0
11189,64.0,1,161,7.0,0.0
11190,64.0,0,138,8.0,0.0
11191,76.0,2,136,8.0,0.0
11192,83.0,3,118,12.0,0.0
11193,88.0,4,97,12.0,0.0
11194,64.0,12,43,4.0,0.0
11195,64.0,99,149,4.0,0.0
11196,62.0,12,130,4.0,0.0
11197,40.0,10,53,5.0,0.0
11198,68.0,83,62,2.0,0.0
11199,62.0,23,39,3.0,0.0
11200,60.0,106,138,4.0,0.0
11201,59.0,12,134,4.0,0.0
11202,45.0,55,43,5.0,0.0
11203,60.0,7,4,3.0,0.0
11204,60.0,75,66,4.0,0.0
11205,69.0,27,127,2.0,0.0
11206,64.0,193,55,4.0,0.0
11207,64.0,111,122,4.0,0.0
11208,62.0,38,125,4.0,0.0
11209,60.0,178,130,4.0,0.0
11210,68.0,15,31,3.0,0.0
11211,52.0,76,38,5.0,0.0
11212,71.0,6,280,2.0,0.0
11213,59.0,6,202,4.0,0.0
11214,57.0,86,153,4.0,0.0
11215,45.0,17,44,5.0,0.0
11216,69.0,50,52,3.0,0.0
11217,72.0,35,100,2.0,0.0
11218,72.0,214,75,2.0,0.0
11219,72.0,37,175,2.0,0.0
11220,71.0,80,95,2.0,0.0
11221,47.0,12,57,5.0,0.0
11222,71.0,96,137,2.0,0.0
11223,57.0,75,57,4.0,0.0
11224,63.0,4,38,3.0,0.0
11225,69.0,70,124,2.0,0.0
11226,64.0,5,53,3.0,0.0
11227,67.0,97,116,2.0,0.0
11228,52.0,3,52,5.0,0.0
11229,55.0,55,43,4.0,0.0
11230,72.0,205,84,2.0,0.0
11231,72.0,42,150,2.0,0.0
11232,71.0,75,78,2.0,0.0
11233,59.0,106,57,5.0,0.0
11234,66.0,6,39,3.0,0.0
11235,63.0,11,31,4.0,0.0
11236,71.0,130,145,2.0,0.0
11237,69.0,11,149,2.0,0.0
11238,64.0,24,40,4.0,0.0
11239,67.0,17,55,3.0,0.0
11240,52.0,81,57,5.0,0.0
11241,67.0,45,132,2.0,0.0
11242,88.0,4,63,12.0,0.0
11243,76.0,237,62,12.0,0.0
11244,88.0,110,178,12.0,0.0
11245,76.0,14,157,12.0,0.0
11246,86.0,72,214,12.0,0.0
11247,74.0,47,152,12.0,0.0
11248,52.0,18,326,5.0,0.0
11249,76.0,102,1119,2.0,0.0
11250,72.0,8,152,12.0,0.0
11251,68.0,33,349,3.0,0.0
11252,62.0,14,330,4.0,0.0
11253,84.0,129,142,12.0,0.0
11254,71.0,2,175,12.0,0.0
11255,83.0,27,169,12.0,0.0
11256,72.0,9,122,12.0,0.0
11257,84.0,56,126,12.0,0.0
11258,57.0,0,548,5.0,0.0
11259,60.0,37,510,4.0,0.0
11260,69.0,60,407,3.0,0.0
11261,88.0,183,66,12.0,0.0
11262,76.0,2,53,12.0,0.0
11263,76.0,22,127,12.0,0.0
11264,88.0,40,140,12.0,0.0
11265,86.0,86,191,12.0,0.0
11266,74.0,25,124,12.0,0.0
11267,56.0,57,331,5.0,0.0
11268,72.0,4,153,12.0,0.0
11269,84.0,115,143,12.0,0.0
11270,64.0,210,516,4.0,0.0
11271,71.0,11,173,12.0,0.0
11272,83.0,27,141,12.0,0.0
11273,57.0,1,266,5.0,0.0
11274,81.0,41,202,12.0,0.0
11275,72.0,0,254,2.0,0.0
11276,69.0,8,182,12.0,0.0
11277,60.0,15,89,15.0,0.0
11278,72.0,3,94,14.0,0.0
11279,72.0,55,185,14.0,0.0
11280,60.0,20,158,15.0,0.0
11281,71.0,4,91,14.0,0.0
11282,59.0,217,93,15.0,0.0
11283,51.0,28,337,5.0,0.0
11284,71.0,16,183,14.0,0.0
11285,39.0,10,291,6.0,0.0
11286,59.0,84,186,15.0,0.0
11287,66.0,17,257,2.0,0.0
11288,59.0,6,641,3.0,0.0
11289,69.0,2,175,14.0,0.0
11290,57.0,250,193,15.0,0.0
11291,40.0,55,356,6.0,0.0
11292,52.0,20,319,5.0,0.0
11293,67.0,12,393,2.0,0.0
11294,67.0,26,410,14.0,0.0
11295,55.0,221,404,15.0,0.0
11296,45.0,55,363,6.0,0.0
11297,69.0,7,421,14.0,0.0
11298,45.0,5,410,5.0,0.0
11299,60.0,2,21,3.0,0.0
11300,66.0,6,397,2.0,0.0
11301,57.0,319,394,15.0,0.0
11302,47.0,28,467,6.0,0.0
11303,66.0,8,479,14.0,0.0
11304,54.0,5,445,15.0,0.0
11305,57.0,242,481,3.0,0.0
11306,47.0,18,409,5.0,0.0
11307,63.0,1,409,2.0,0.0
11308,52.0,110,372,15.0,0.0
11309,64.0,514,473,14.0,0.0
11310,40.0,21,949,6.0,0.0
11311,64.0,43,4035,2.0,0.0
11312,52.0,437,1029,5.0,0.0
11313,55.0,62,963,3.0,0.0
11314,45.0,50,706,6.0,0.0
11315,57.0,9,1042,3.0,0.0
11316,60.0,147,524,4.0,0.0
11317,45.0,288,697,5.0,0.0
11318,47.0,26,422,6.0,0.0
11319,47.0,958,422,5.0,0.0
11320,48.0,53,1047,5.0,0.0
11321,48.0,980,1085,6.0,0.0
11322,55.0,14,2058,3.0,0.0
11323,55.0,933,1175,5.0,0.0
11324,40.0,44,1038,6.0,0.0
11325,41.0,1,2445,6.0,0.0
11326,62.0,180,3729,3.0,0.0
11327,57.0,185,1062,3.0,0.0
11328,62.0,64,1186,2.0,0.0
11329,57.0,1089,1235,5.0,0.0
11330,69.0,1124,1208,2.0,0.0
11331,53.0,15,1173,5.0,0.0
11332,43.0,1267,1581,6.0,0.0
11333,67.0,174,1170,2.0,0.0
11334,55.0,24,2802,5.0,0.0
11335,64.0,5,246,3.0,0.0
11336,67.0,11,199,2.0,0.0
11337,59.0,9,1363,4.0,0.0
11338,62.0,111,1355,3.0,0.0
11339,31.0,73,1746,6.0,0.0
11340,65.0,45,1424,2.0,0.0
11341,60.0,61,254,4.0,0.0
11342,60.0,60,165,3.0,0.0
11343,64.0,148,280,2.0,0.0
11344,55.0,91,423,3.0,0.0
11345,60.0,72,320,4.0,0.0
11346,64.0,70,450,2.0,0.0
11347,36.0,100,490,6.0,0.0
11348,48.0,43,165,0.0,0.0
11349,36.0,38,115,0.0,0.0
11350,55.0,275,101,0.0,0.0
11351,64.0,2,97,0.0,0.0
11352,60.0,10,85,0.0,0.0
11353,64.0,10,102,0.0,0.0
11354,55.0,186,110,0.0,0.0
11355,60.0,14,85,0.0,0.0
11356,55.0,235,96,0.0,0.0
11357,60.0,12,72,0.0,0.0
11358,64.0,5,84,0.0,0.0
11359,79.0,6,212,0.0,0.0
11360,55.0,73,132,0.0,0.0
11361,60.0,49,63,0.0,0.0
11362,64.0,15,109,0.0,0.0
11363,76.0,116,184,0.0,0.0
11364,55.0,52,105,0.0,0.0
11365,64.0,14,87,0.0,0.0
11366,60.0,3,81,0.0,0.0
11367,77.0,157,68,0.0,0.0
11368,55.0,171,143,0.0,0.0
11369,79.0,13,420,0.0,0.0
11370,60.0,10,120,0.0,0.0
11371,64.0,8,130,0.0,0.0
11372,55.0,86,138,0.0,0.0
11373,64.0,17,117,0.0,0.0
11374,60.0,7,106,0.0,0.0
11375,55.0,182,89,0.0,0.0
11376,64.0,13,72,0.0,0.0
11377,60.0,4,66,0.0,0.0
11378,84.0,41,267,0.0,0.0
11379,55.0,133,132,0.0,0.0
11380,60.0,8,103,0.0,0.0
11381,64.0,13,110,0.0,0.0
11382,55.0,126,115,0.0,0.0
11383,60.0,10,90,0.0,0.0
11384,64.0,8,97,0.0,0.0
11385,86.0,41,231,0.0,0.0
11386,88.0,52,226,0.0,0.0
11387,55.0,118,89,0.0,0.0
11388,60.0,4,62,0.0,0.0
11389,64.0,14,66,0.0,0.0
11390,55.0,78,131,0.0,0.0
11391,64.0,17,109,0.0,0.0
11392,60.0,6,100,0.0,0.0
11393,86.0,53,193,0.0,0.0
11394,48.0,44,2752,5.0,0.0
11395,55.0,28,1155,3.0,0.0
11396,60.0,52,676,4.0,0.0
11397,64.0,141,1166,2.0,0.0
11398,84.0,65,217,0.0,0.0
11399,55.0,94,105,0.0,0.0
11400,64.0,10,75,0.0,0.0
11401,60.0,18,81,0.0,0.0
11402,55.0,106,140,0.0,0.0
11403,64.0,13,121,0.0,0.0
11404,60.0,2,116,0.0,0.0
11405,79.0,1,237,0.0,0.0
11406,55.0,128,83,0.0,0.0
11407,64.0,8,71,0.0,0.0
11408,60.0,3,64,0.0,0.0
11409,81.0,23,73,0.0,0.0
11410,55.0,170,91,0.0,0.0
11411,60.0,0,13,0.0,0.0
11412,64.0,1,85,0.0,0.0
11413,55.0,145,70,0.0,0.0
11414,60.0,10,45,0.0,0.0
11415,64.0,9,52,0.0,0.0
11416,76.0,64,111,0.0,0.0
11417,48.0,84,246,0.0,0.0
11418,65.0,23,1617,2.0,0.0
11419,57.0,93,1693,3.0,0.0
11420,79.0,30,302,0.0,0.0
11421,62.0,12,1622,4.0,0.0
11422,57.0,199,81,0.0,0.0
11423,62.0,3,75,0.0,0.0
11424,53.0,5,63,0.0,0.0
11425,57.0,65,402,15.0,0.0
11426,57.0,1,99,0.0,0.0
11427,62.0,12,86,0.0,0.0
11428,53.0,163,90,0.0,0.0
11429,77.0,7,242,0.0,0.0
11430,57.0,96,88,0.0,0.0
11431,62.0,8,75,0.0,0.0
11432,53.0,3,78,0.0,0.0
11433,62.0,11,73,0.0,0.0
11434,57.0,178,85,0.0,0.0
11435,53.0,2,75,0.0,0.0
11436,57.0,53,436,15.0,0.0
11437,62.0,12,94,0.0,0.0
11438,57.0,166,109,0.0,0.0
11439,53.0,6,97,0.0,0.0
11440,36.0,32,74,0.0,0.0
11441,36.0,189,158,6.0,0.0
11442,65.0,43,1263,15.0,0.0
11443,62.0,2,111,0.0,0.0
11444,57.0,9,112,0.0,0.0
11445,53.0,53,105,0.0,0.0
11446,57.0,167,100,0.0,0.0
11447,53.0,1,95,0.0,0.0
11448,62.0,2,91,0.0,0.0
11449,62.0,13,73,0.0,0.0
11450,57.0,160,85,0.0,0.0
11451,53.0,1,74,0.0,0.0
11452,81.0,50,155,0.0,0.0
11453,57.0,0,81,0.0,0.0
11454,77.0,85,141,0.0,0.0
11455,62.0,3,73,0.0,0.0
11456,53.0,63,75,0.0,0.0
11457,62.0,3,73,0.0,0.0
11458,57.0,58,72,0.0,0.0
11459,53.0,0,65,0.0,0.0
11460,79.0,124,58,0.0,0.0
11461,62.0,7,131,0.0,0.0
11462,57.0,1,134,0.0,0.0
11463,81.0,115,273,0.0,0.0
11464,53.0,117,126,0.0,0.0
11465,57.0,19,77,0.0,0.0
11466,62.0,10,66,0.0,0.0
11467,53.0,1,70,0.0,0.0
11468,57.0,135,77,0.0,0.0
11469,62.0,10,63,0.0,0.0
11470,53.0,3,68,0.0,0.0
11471,62.0,7,60,0.0,0.0
11472,57.0,0,69,0.0,0.0
11473,53.0,41,60,0.0,0.0
11474,86.0,4,54,0.0,0.0
11475,88.0,38,35,0.0,0.0
11476,86.0,43,52,0.0,0.0
11477,85.0,57,39,0.0,0.0
11478,86.0,16,68,0.0,0.0
11479,57.0,181,73,0.0,0.0
11480,62.0,5,64,0.0,0.0
11481,53.0,1,67,0.0,0.0
11482,88.0,4,229,0.0,0.0
11483,62.0,2,45,0.0,0.0
11484,57.0,19,48,0.0,0.0
11485,53.0,107,63,0.0,0.0
11486,89.0,200,145,0.0,0.0
11487,47.0,18,136,0.0,0.0
11488,55.0,205,2428,3.0,0.0
11489,62.0,7,1339,4.0,0.0
11490,47.0,17,1321,5.0,0.0
11491,65.0,120,1379,2.0,0.0
11492,79.0,277,93,0.0,0.0
11493,55.0,10,84,0.0,0.0
11494,62.0,3,80,0.0,0.0
11495,65.0,15,86,0.0,0.0
11496,101.0,14,93,0.0,0.0
11497,98.0,52,101,0.0,0.0
11498,96.0,99,43,0.0,0.0
11499,98.0,2,59,0.0,0.0
11500,95.0,39,60,0.0,0.0
11501,93.0,38,41,0.0,0.0
11502,55.0,23,64,0.0,0.0
11503,62.0,1,55,0.0,0.0
11504,65.0,2,54,0.0,0.0
11505,95.0,19,37,0.0,0.0
11506,91.0,34,52,0.0,0.0
11507,89.0,66,38,0.0,0.0
11508,91.0,15,50,0.0,0.0
11509,88.0,3,52,0.0,0.0
11510,55.0,17,51,0.0,0.0
11511,62.0,7,43,0.0,0.0
11512,65.0,0,37,0.0,0.0
11513,86.0,65,37,0.0,0.0
11514,88.0,11,52,0.0,0.0
11515,84.0,33,53,0.0,0.0
11516,65.0,2,54,0.0,0.0
11517,55.0,43,65,0.0,0.0
11518,62.0,12,52,0.0,0.0
11519,83.0,8,41,0.0,0.0
11520,84.0,17,52,0.0,0.0
11521,81.0,32,60,0.0,0.0
11522,79.0,50,40,0.0,0.0
11523,65.0,4,36,0.0,0.0
11524,55.0,9,68,0.0,0.0
11525,62.0,27,38,0.0,0.0
11526,81.0,2,62,0.0,0.0
11527,77.0,43,65,0.0,0.0
11528,76.0,122,51,0.0,0.0
11529,74.0,4,127,0.0,0.0
11530,77.0,33,129,0.0,0.0
11531,60.0,3,459,4.0,0.0
11532,48.0,75,1049,5.0,0.0
11533,64.0,18,2541,2.0,0.0
11534,48.0,179,163,0.0,0.0
11535,71.0,228,376,0.0,0.0
11536,75.0,4,369,0.0,0.0
11537,55.0,41,112,0.0,0.0
11538,64.0,1,95,0.0,0.0
11539,52.0,103,464,10.0,0.0
11540,64.0,93,186,0.0,0.0
11541,55.0,7,177,0.0,0.0
11542,76.0,10,275,0.0,0.0
11543,72.0,29,229,0.0,0.0
11544,55.0,104,68,0.0,0.0
11545,64.0,27,38,0.0,0.0
11546,47.0,26,410,0.0,0.0
11547,47.0,7,583,5.0,0.0
11548,62.0,107,607,4.0,0.0
11549,52.0,34,567,10.0,0.0
11550,56.0,60,469,3.0,0.0
11551,62.0,109,195,0.0,0.0
11552,52.0,1,125,0.0,0.0
11553,56.0,27,124,0.0,0.0
11554,57.0,140,1002,3.0,0.0
11555,45.0,1,1203,5.0,0.0
11556,60.0,0,391,10.0,0.0
11557,60.0,127,388,4.0,0.0
11558,33.0,40,329,6.0,0.0
11559,45.0,145,170,0.0,0.0
11560,57.0,219,90,0.0,0.0
11561,60.0,4,83,0.0,0.0
11562,52.0,0,82,0.0,0.0
11563,57.0,4,80,0.0,0.0
11564,60.0,5,73,0.0,0.0
11565,52.0,162,80,0.0,0.0
11566,57.0,3,77,0.0,0.0
11567,60.0,8,67,0.0,0.0
11568,52.0,12,77,0.0,0.0
11569,76.0,18,171,0.0,0.0
11570,57.0,3,93,0.0,0.0
11571,52.0,10,95,0.0,0.0
11572,60.0,56,34,0.0,0.0
11573,72.0,167,86,0.0,0.0
11574,57.0,4,82,0.0,0.0
11575,52.0,59,85,0.0,0.0
11576,60.0,8,72,0.0,0.0
11577,74.0,220,48,0.0,0.0
11578,57.0,4,162,0.0,0.0
11579,60.0,1,159,0.0,0.0
11580,52.0,187,164,0.0,0.0
11581,76.0,126,501,0.0,0.0
11582,52.0,106,136,0.0,0.0
11583,57.0,11,124,0.0,0.0
11584,60.0,9,114,0.0,0.0
11585,60.0,10,69,0.0,0.0
11586,52.0,13,79,0.0,0.0
11587,57.0,1,77,0.0,0.0
11588,52.0,67,278,15.0,0.0
11589,81.0,40,226,0.0,0.0
11590,52.0,4,80,0.0,0.0
11591,57.0,64,83,0.0,0.0
11592,60.0,3,76,0.0,0.0
11593,83.0,18,204,0.0,0.0
11594,60.0,11,69,0.0,0.0
11595,52.0,5,79,0.0,0.0
11596,57.0,91,84,0.0,0.0
11597,52.0,105,395,15.0,0.0
11598,60.0,9,25,0.0,0.0
11599,84.0,43,188,0.0,0.0
11600,57.0,12,33,0.0,0.0
11601,52.0,125,56,0.0,0.0
11602,44.0,16,64,0.0,0.0
11603,64.0,65,1416,2.0,0.0
11604,59.0,15,1485,3.0,0.0
11605,76.0,104,170,0.0,0.0
11606,62.0,84,1511,4.0,0.0
11607,44.0,5,1463,5.0,0.0
11608,62.0,51,901,15.0,0.0
11609,52.0,4,73,0.0,0.0
11610,59.0,40,74,0.0,0.0
11611,62.0,5,63,0.0,0.0
11612,77.0,71,42,0.0,0.0
11613,79.0,60,77,0.0,0.0
11614,77.0,64,82,0.0,0.0
11615,62.0,2,107,0.0,0.0
11616,59.0,2,106,0.0,0.0
11617,52.0,9,105,0.0,0.0
11618,76.0,178,109,0.0,0.0
11619,62.0,3,103,0.0,0.0
11620,59.0,1,105,0.0,0.0
11621,52.0,67,104,0.0,0.0
11622,76.0,71,171,0.0,0.0
11623,71.0,45,117,0.0,0.0
11624,62.0,7,79,0.0,0.0
11625,59.0,0,85,0.0,0.0
11626,52.0,27,84,0.0,0.0
11627,75.0,13,62,0.0,0.0
11628,52.0,220,83,0.0,0.0
11629,62.0,4,72,0.0,0.0
11630,59.0,5,75,0.0,0.0
11631,76.0,34,257,0.0,0.0
11632,62.0,3,145,0.0,0.0
11633,59.0,3,147,0.0,0.0
11634,52.0,102,150,0.0,0.0
11635,59.0,3,82,0.0,0.0
11636,62.0,8,72,0.0,0.0
11637,52.0,34,82,0.0,0.0
11638,59.0,3,75,0.0,0.0
11639,62.0,4,71,0.0,0.0
11640,52.0,19,76,0.0,0.0
11641,52.0,59,304,15.0,0.0
11642,83.0,16,54,0.0,0.0
11643,62.0,1,66,0.0,0.0
11644,59.0,6,67,0.0,0.0
11645,52.0,114,68,0.0,0.0
11646,62.0,1,70,0.0,0.0
11647,59.0,10,70,0.0,0.0
11648,84.0,80,183,0.0,0.0
11649,52.0,108,75,0.0,0.0
11650,52.0,7,574,15.0,0.0
11651,62.0,4,43,0.0,0.0
11652,59.0,31,46,0.0,0.0
11653,52.0,147,71,0.0,0.0
11654,86.0,139,124,0.0,0.0
11655,58.0,12,2104,3.0,0.0
11656,64.0,0,1924,2.0,0.0
11657,43.0,100,110,0.0,0.0
11658,43.0,12,2131,6.0,0.0
11659,58.0,10,2404,15.0,0.0
11660,43.0,30,2005,5.0,0.0
11661,86.0,273,183,0.0,0.0
11662,61.0,14,2030,4.0,0.0
11663,58.0,0,185,0.0,0.0
11664,61.0,2,183,0.0,0.0
11665,64.0,8,183,0.0,0.0
11666,55.0,294,187,0.0,0.0
11667,85.0,48,38,0.0,0.0
11668,85.0,120,317,0.0,0.0
11669,58.0,67,351,0.0,0.0
11670,61.0,2,344,0.0,0.0
11671,55.0,3,343,0.0,0.0
11672,64.0,2,339,0.0,0.0
11673,94.0,105,287,0.0,0.0
11674,61.0,1,101,0.0,0.0
11675,58.0,3,97,0.0,0.0
11676,64.0,158,105,0.0,0.0
11677,55.0,8,87,0.0,0.0
11678,61.0,4,90,0.0,0.0
11679,58.0,3,83,0.0,0.0
11680,64.0,7,94,0.0,0.0
11681,87.0,82,97,0.0,0.0
11682,55.0,5,79,0.0,0.0
11683,88.0,58,74,0.0,0.0
11684,89.0,52,61,0.0,0.0
11685,90.0,65,63,0.0,0.0
11686,93.0,18,69,0.0,0.0
11687,61.0,6,80,0.0,0.0
11688,58.0,1,74,0.0,0.0
11689,64.0,0,72,0.0,0.0
11690,55.0,15,76,0.0,0.0
11691,91.0,26,54,0.0,0.0
11692,89.0,28,45,0.0,0.0
11693,88.0,53,34,0.0,0.0
11694,84.0,20,52,0.0,0.0
11695,61.0,5,65,0.0,0.0
11696,64.0,5,59,0.0,0.0
11697,58.0,4,66,0.0,0.0
11698,55.0,12,62,0.0,0.0
11699,85.0,37,47,0.0,0.0
11700,86.0,18,47,0.0,0.0
11701,87.0,71,36,0.0,0.0
11702,89.0,17,62,0.0,0.0
11703,61.0,2,64,0.0,0.0
11704,58.0,7,69,0.0,0.0
11705,64.0,4,62,0.0,0.0
11706,55.0,1,59,0.0,0.0
11707,88.0,27,55,0.0,0.0
11708,86.0,28,36,0.0,0.0
11709,85.0,45,35,0.0,0.0
11710,58.0,6,113,0.0,0.0
11711,61.0,4,103,0.0,0.0
11712,64.0,5,104,0.0,0.0
11713,78.0,17,68,0.0,0.0
11714,55.0,15,110,0.0,0.0
11715,79.0,45,66,0.0,0.0
11716,80.0,11,77,0.0,0.0
11717,81.0,51,38,0.0,0.0
11718,61.0,3,65,0.0,0.0
11719,64.0,10,65,0.0,0.0
11720,58.0,12,73,0.0,0.0
11721,55.0,29,81,0.0,0.0
11722,84.0,2,46,0.0,0.0
11723,82.0,29,65,0.0,0.0
11724,81.0,19,51,0.0,0.0
11725,79.0,50,43,0.0,0.0
11726,80.0,21,14,0.0,0.0
11727,61.0,5,66,0.0,0.0
11728,58.0,15,83,0.0,0.0
11729,64.0,13,67,0.0,0.0
11730,55.0,92,92,0.0,0.0
11731,75.0,1,49,0.0,0.0
11732,49.0,78,648,15.0,0.0
11733,76.0,68,74,0.0,0.0
11734,77.0,49,79,0.0,0.0
11735,78.0,31,64,0.0,0.0
11736,61.0,25,76,0.0,0.0
11737,58.0,18,100,0.0,0.0
11738,64.0,1,68,0.0,0.0
11739,55.0,14,105,0.0,0.0
11740,81.0,58,95,0.0,0.0
11741,79.0,70,100,0.0,0.0
11742,77.0,39,110,0.0,0.0
11743,76.0,128,90,0.0,0.0
11744,41.0,259,234,0.0,0.0
11745,41.0,34,674,5.0,0.0
11746,57.0,103,689,3.0,0.0
11747,50.0,79,823,15.0,0.0
11748,41.0,11,625,6.0,0.0
11749,76.0,26,552,0.0,0.0
11750,62.0,0,570,2.0,0.0
11751,57.0,8,82,0.0,0.0
11752,62.0,8,88,0.0,0.0
11753,53.0,117,91,0.0,0.0
11754,62.0,4,86,0.0,0.0
11755,57.0,5,88,0.0,0.0
11756,53.0,17,89,0.0,0.0
11757,74.0,9,57,0.0,0.0
11758,53.0,7,98,0.0,0.0
11759,57.0,0,92,0.0,0.0
11760,62.0,39,88,0.0,0.0
11761,69.0,98,141,0.0,0.0
11762,70.0,58,117,0.0,0.0
11763,69.0,28,93,0.0,0.0
11764,57.0,2,84,0.0,0.0
11765,62.0,13,86,0.0,0.0
11766,53.0,3,92,0.0,0.0
11767,68.0,67,70,0.0,0.0
11768,69.0,55,72,0.0,0.0
11769,71.0,42,66,0.0,0.0
11770,62.0,1,268,0.0,0.0
11771,57.0,190,268,0.0,0.0
11772,53.0,17,241,0.0,0.0
11773,73.0,62,53,0.0,0.0
11774,74.0,96,65,0.0,0.0
11775,76.0,19,107,0.0,0.0
11776,50.0,5,305,0.0,0.0
11777,77.0,34,262,0.0,0.0
11778,58.0,17,70,0.0,0.0
11779,62.0,7,56,0.0,0.0
11780,53.0,169,76,0.0,0.0
11781,58.0,1,81,0.0,0.0
11782,53.0,27,84,0.0,0.0
11783,62.0,8,76,0.0,0.0
11784,70.0,144,103,0.0,0.0
11785,62.0,16,97,0.0,0.0
11786,58.0,0,94,0.0,0.0
11787,53.0,105,102,0.0,0.0
11788,69.0,116,85,0.0,0.0
11789,62.0,8,56,0.0,0.0
11790,58.0,11,60,0.0,0.0
11791,58.0,84,444,3.0,0.0
11792,53.0,6,67,0.0,0.0
11793,50.0,134,1358,5.0,0.0
11794,65.0,18,1321,2.0,0.0
11795,62.0,8,51,0.0,0.0
11796,58.0,16,57,0.0,0.0
11797,53.0,231,68,0.0,0.0
11798,50.0,13,301,0.0,0.0
11799,59.0,2,998,3.0,0.0
11800,66.0,72,158,0.0,0.0
11801,68.0,63,104,0.0,0.0
11802,62.0,8,60,0.0,0.0
11803,69.0,7,71,0.0,0.0
11804,59.0,4,63,0.0,0.0
11805,53.0,38,63,0.0,0.0
11806,68.0,42,42,0.0,0.0
11807,69.0,38,36,0.0,0.0
11808,68.0,37,31,0.0,0.0
11809,69.0,31,41,0.0,0.0
11810,68.0,7,33,0.0,0.0
11811,62.0,10,36,0.0,0.0
11812,59.0,7,45,0.0,0.0
11813,53.0,22,35,0.0,0.0
11814,69.0,22,50,0.0,0.0
11815,68.0,56,38,0.0,0.0
11816,68.0,47,32,0.0,0.0
11817,69.0,43,55,0.0,0.0
11818,68.0,30,47,0.0,0.0
11819,59.0,14,70,0.0,0.0
11820,62.0,10,58,0.0,0.0
11821,53.0,73,81,0.0,0.0
11822,66.0,6,52,0.0,0.0
11823,68.0,58,85,0.0,0.0
11824,69.0,33,78,0.0,0.0
11825,64.0,31,533,2.0,0.0
11826,71.0,18,70,0.0,0.0
11827,60.0,3,28,3.0,0.0
11828,48.0,94,516,5.0,0.0
11829,48.0,34,164,0.0,0.0
11830,69.0,101,172,0.0,0.0
11831,57.0,3,70,0.0,0.0
11832,52.0,151,72,0.0,0.0
11833,60.0,9,54,0.0,0.0
11834,50.0,20,110,0.0,0.0
11835,70.0,100,84,0.0,0.0
11836,72.0,39,61,0.0,0.0
11837,70.0,46,49,0.0,0.0
11838,69.0,9,46,0.0,0.0
11839,58.0,3,55,0.0,0.0
11840,53.0,61,64,0.0,0.0
11841,65.0,2,44,0.0,0.0
11842,70.0,11,28,0.0,0.0
11843,74.0,42,47,0.0,0.0
11844,77.0,37,47,0.0,0.0
11845,82.0,24,45,0.0,0.0
11846,58.0,8,59,0.0,0.0
11847,65.0,1,58,0.0,0.0
11848,53.0,202,51,0.0,0.0
11849,86.0,8,36,0.0,0.0
11850,65.0,219,101,0.0,0.0
11851,58.0,34,325,0.0,0.0
11852,53.0,7,86,0.0,0.0
11853,53.0,5,190,0.0,0.0
11854,65.0,1,177,0.0,0.0
11855,65.0,15,1368,2.0,0.0
11856,58.0,116,468,3.0,0.0
11857,50.0,52,1304,5.0,0.0
11858,69.0,71,166,0.0,0.0
11859,58.0,18,52,0.0,0.0
11860,65.0,8,42,0.0,0.0
11861,53.0,42,59,0.0,0.0
11862,68.0,138,35,0.0,0.0
11863,50.0,63,156,0.0,0.0
11864,59.0,78,933,3.0,0.0
11865,89.0,168,145,0.0,0.0
11866,59.0,6,102,0.0,0.0
11867,53.0,47,113,0.0,0.0
11868,65.0,8,100,0.0,0.0
11869,88.0,3,71,0.0,0.0
11870,86.0,8,34,0.0,0.0
11871,88.0,53,18,0.0,0.0
11872,86.0,42,33,0.0,0.0
11873,84.0,24,48,0.0,0.0
11874,65.0,3,72,0.0,0.0
11875,53.0,40,72,0.0,0.0
11876,59.0,2,69,0.0,0.0
11877,83.0,6,43,0.0,0.0
11878,84.0,50,17,0.0,0.0
11879,83.0,21,38,0.0,0.0
11880,65.0,27,41,0.0,0.0
11881,59.0,2,31,0.0,0.0
11882,81.0,76,78,0.0,0.0
11883,53.0,20,51,0.0,0.0
11884,80.0,58,43,0.0,0.0
11885,48.0,149,630,5.0,0.0
11886,48.0,112,177,0.0,0.0
11887,64.0,12,610,2.0,0.0
11888,60.0,36,277,3.0,0.0
11889,81.0,26,229,0.0,0.0
11890,57.0,3,88,0.0,0.0
11891,64.0,260,74,0.0,0.0
11892,67.0,1,1117,2.0,0.0
11893,62.0,14,1051,3.0,0.0
11894,55.0,12,1091,3.0,0.0
11895,47.0,41,1027,5.0,0.0
11896,47.0,106,174,0.0,0.0
11897,79.0,31,359,0.0,0.0
11898,72.0,87,223,0.0,0.0
11899,74.0,45,126,0.0,0.0
11900,55.0,47,112,0.0,0.0
11901,76.0,17,86,0.0,0.0
11902,74.0,36,49,0.0,0.0
11903,62.0,6,138,0.0,0.0
11904,76.0,46,37,0.0,0.0
11905,65.0,5,97,0.0,0.0
11906,74.0,24,36,0.0,0.0
11907,76.0,20,26,0.0,0.0
11908,71.0,12,50,0.0,0.0
11909,74.0,26,28,0.0,0.0
11910,76.0,37,33,0.0,0.0
11911,74.0,26,29,0.0,0.0
11912,76.0,49,32,0.0,0.0
11913,74.0,31,38,0.0,0.0
11914,55.0,33,71,0.0,0.0
11915,69.0,0,44,0.0,0.0
11916,76.0,25,39,0.0,0.0
11917,74.0,63,94,0.0,0.0
11918,76.0,38,33,0.0,0.0
11919,72.0,12,47,0.0,0.0
11920,64.0,116,540,2.0,0.0
11921,74.0,90,80,0.0,0.0
11922,48.0,72,648,5.0,0.0
11923,60.0,17,159,3.0,0.0
11924,48.0,106,124,0.0,0.0
11925,76.0,73,329,0.0,0.0
11926,67.0,71,172,0.0,0.0
11927,55.0,61,109,0.0,0.0
11928,64.0,1,43,0.0,0.0
11929,74.0,35,70,0.0,0.0
11930,57.0,153,1452,3.0,0.0
11931,64.0,91,947,2.0,0.0
11932,41.0,90,127,0.0,0.0
11933,41.0,5,893,6.0,0.0
11934,53.0,25,865,5.0,0.0
11935,77.0,61,184,0.0,0.0
11936,71.0,21,158,0.0,0.0
11937,72.0,46,81,0.0,0.0
11938,74.0,42,32,0.0,0.0
11939,53.0,2,69,0.0,0.0
11940,72.0,27,34,0.0,0.0
11941,74.0,44,25,0.0,0.0
11942,60.0,6,108,0.0,0.0
11943,72.0,27,28,0.0,0.0
11944,64.0,15,78,0.0,0.0
11945,74.0,27,34,0.0,0.0
11946,69.0,17,50,0.0,0.0
11947,72.0,4,37,0.0,0.0
11948,74.0,45,36,0.0,0.0
11949,72.0,24,31,0.0,0.0
11950,74.0,67,36,0.0,0.0
11951,53.0,7,59,0.0,0.0
11952,67.0,8,41,0.0,0.0
11953,74.0,51,39,0.0,0.0
11954,72.0,61,52,0.0,0.0
11955,71.0,55,50,0.0,0.0
11956,72.0,24,86,0.0,0.0
11957,62.0,8,561,2.0,0.0
11958,47.0,4,549,6.0,0.0
11959,47.0,15,554,5.0,0.0
11960,47.0,79,129,0.0,0.0
11961,65.0,78,172,0.0,0.0
11962,74.0,51,249,0.0,0.0
11963,59.0,123,57,0.0,0.0
11964,62.0,8,46,0.0,0.0
11965,72.0,41,61,0.0,0.0
11966,59.0,21,1121,3.0,0.0
11967,62.0,67,1173,2.0,0.0
11968,40.0,37,1128,6.0,0.0
11969,52.0,1,1154,5.0,0.0
11970,40.0,119,100,0.0,0.0
11971,76.0,51,187,0.0,0.0
11972,69.0,26,151,0.0,0.0
11973,71.0,73,74,0.0,0.0
11974,52.0,38,53,0.0,0.0
11975,72.0,61,53,0.0,0.0
11976,71.0,46,42,0.0,0.0
11977,72.0,53,34,0.0,0.0
11978,59.0,6,85,0.0,0.0
11979,62.0,17,80,0.0,0.0
11980,71.0,33,31,0.0,0.0
11981,68.0,25,47,0.0,0.0
11982,72.0,1,26,0.0,0.0
11983,71.0,29,28,0.0,0.0
11984,72.0,47,23,0.0,0.0
11985,71.0,27,38,0.0,0.0
11986,72.0,33,37,0.0,0.0
11987,71.0,34,27,0.0,0.0
11988,72.0,36,27,0.0,0.0
11989,52.0,28,56,0.0,0.0
11990,71.0,4,37,0.0,0.0
11991,72.0,44,35,0.0,0.0
11992,71.0,77,43,0.0,0.0
11993,69.0,50,69,0.0,0.0
11994,71.0,26,62,0.0,0.0
11995,57.0,14,569,3.0,0.0
11996,45.0,98,148,0.0,0.0
11997,45.0,8,540,6.0,0.0
11998,45.0,206,603,5.0,0.0
11999,72.0,61,243,0.0,0.0
12000,69.0,24,218,0.0,0.0
12001,60.0,31,513,2.0,0.0
12002,57.0,205,61,0.0,0.0
12003,60.0,4,56,0.0,0.0
12004,76.0,6,176,0.0,0.0
12005,64.0,25,179,0.0,0.0
12006,57.0,28,2100,3.0,0.0
12007,41.0,35,2154,5.0,0.0
12008,69.0,21,2118,2.0,0.0
12009,41.0,8,2122,6.0,0.0
12010,53.0,8,2164,4.0,0.0
12011,41.0,234,186,0.0,0.0
12012,76.0,34,502,0.0,0.0
12013,64.0,53,526,0.0,0.0
12014,69.0,20,828,0.0,0.0
12015,53.0,124,78,0.0,0.0
12016,57.0,238,76,0.0,0.0
12017,74.0,392,84,0.0,0.0
12018,53.0,20,34,0.0,0.0
12019,62.0,4,71,0.0,0.0
12020,72.0,255,189,0.0,0.0
12021,41.0,14,138,0.0,0.0
12022,60.0,27,149,0.0,0.0
12023,57.0,3,50,0.0,0.0
12024,74.0,429,61,0.0,0.0
12025,62.0,14,46,0.0,0.0
12026,64.0,14,309,2.0,0.0
12027,64.0,42,221,3.0,0.0
12028,40.0,12,305,6.0,0.0
12029,40.0,40,246,5.0,0.0
12030,52.0,28,170,4.0,0.0
12031,76.0,102,41,0.0,0.0
12032,40.0,1,35,0.0,0.0
12033,68.0,1,33,0.0,0.0
12034,52.0,3,26,0.0,0.0
12035,71.0,2,31,0.0,0.0
12036,64.0,1,25,0.0,0.0
12037,56.0,2,28,0.0,0.0
12038,59.0,7,29,0.0,0.0
12039,64.0,96,36,0.0,0.0
12040,56.0,50,66,0.0,0.0
12041,64.0,19,46,0.0,0.0
12042,59.0,5,36,0.0,0.0
12043,57.0,55,65,0.0,0.0
12044,65.0,13,35,0.0,0.0
12045,60.0,14,46,0.0,0.0
12046,58.0,38,65,0.0,0.0
12047,66.0,5,46,0.0,0.0
12048,61.0,12,41,0.0,0.0
12049,59.0,52,64,0.0,0.0
12050,67.0,28,33,0.0,0.0
12051,62.0,1,55,0.0,0.0
12052,68.0,1,51,0.0,0.0
12053,63.0,22,50,0.0,0.0
12054,60.0,32,71,0.0,0.0
12055,61.0,38,66,0.0,0.0
12056,69.0,29,36,0.0,0.0
12057,64.0,1,31,0.0,0.0
12058,62.0,30,73,0.0,0.0
12059,70.0,2,38,0.0,0.0
12060,65.0,29,39,0.0,0.0
12061,63.0,27,55,0.0,0.0
12062,66.0,6,28,0.0,0.0
12063,71.0,1,33,0.0,0.0
12064,69.0,3,31,2.0,0.0
12065,47.0,9,33,5.0,0.0
12066,66.0,1,24,4.0,0.0
12067,59.0,4,31,3.0,0.0
12068,71.0,2,32,0.0,0.0
12069,59.0,66,27,0.0,0.0
12070,69.0,9,15,0.0,0.0
12071,52.0,5,23,0.0,0.0
12072,64.0,5,26,0.0,0.0
12073,52.0,20,33,5.0,0.0
12074,76.0,9,23,0.0,0.0
12075,68.0,1,17,0.0,0.0
12076,68.0,7,33,2.0,0.0
12077,59.0,8,34,3.0,0.0
12078,64.0,93,32,4.0,0.0
12079,71.0,86,25,0.0,0.0
12080,68.0,1,22,0.0,0.0
12081,76.0,1,19,0.0,0.0
12082,76.0,6,54,0.0,0.0
12083,71.0,19,55,0.0,0.0
12084,68.0,35,70,0.0,0.0
12085,69.0,5,62,0.0,0.0
12086,77.0,27,34,0.0,0.0
12087,72.0,52,64,0.0,0.0
12088,78.0,9,63,0.0,0.0
12089,70.0,30,69,0.0,0.0
12090,73.0,5,55,0.0,0.0
12091,79.0,37,37,0.0,0.0
12092,71.0,38,74,0.0,0.0
12093,74.0,3,70,0.0,0.0
12094,80.0,17,69,0.0,0.0
12095,75.0,16,52,0.0,0.0
12096,72.0,15,79,0.0,0.0
12097,73.0,23,74,0.0,0.0
12098,81.0,36,36,0.0,0.0
12099,76.0,1,31,0.0,0.0
12100,74.0,17,86,0.0,0.0
12101,82.0,5,29,0.0,0.0
12102,77.0,42,32,0.0,0.0
12103,83.0,3,34,0.0,0.0
12104,75.0,47,47,0.0,0.0
12105,66.0,6,25,4.0,0.0
12106,78.0,1,30,0.0,0.0
12107,47.0,8,33,5.0,0.0
12108,69.0,1,39,2.0,0.0
12109,59.0,2,38,3.0,0.0
12110,83.0,56,40,0.0,0.0
12111,71.0,12,101,0.0,0.0
12112,81.0,3,31,0.0,0.0
12113,76.0,4,36,0.0,0.0
12114,80.0,2,10,0.0,0.0
12115,88.0,6,11,0.0,0.0
12116,52.0,11,25,5.0,0.0
12117,68.0,8,34,2.0,0.0
12118,59.0,4,32,3.0,0.0
12119,64.0,203,35,4.0,0.0
12120,58.0,80,77,0.0,0.0
12121,59.0,96,70,0.0,0.0
12122,40.0,2,375,0.0,0.0
12123,69.0,48,110,0.0,0.0
12124,59.0,31,76,0.0,0.0
12125,64.0,22,76,0.0,0.0
12126,68.0,54,33,0.0,0.0
12127,71.0,136,27,0.0,0.0
12128,81.0,18,104,0.0,0.0
12129,52.0,45,121,0.0,0.0
12130,76.0,3,54,0.0,0.0
12131,80.0,60,31,0.0,0.0
12132,83.0,168,31,0.0,0.0
12133,93.0,39,117,0.0,0.0
12134,59.0,17,195,0.0,0.0
12135,68.0,35,159,0.0,0.0
12136,88.0,5,57,0.0,0.0
12137,92.0,29,49,0.0,0.0
12138,83.0,130,19,0.0,0.0
12139,81.0,24,85,0.0,0.0
12140,76.0,71,41,0.0,0.0
12141,80.0,32,47,0.0,0.0
12142,71.0,182,23,0.0,0.0
12143,52.0,5,331,5.0,0.0
12144,40.0,6,334,6.0,0.0
12145,52.0,16,133,0.0,0.0
12146,69.0,1,129,0.0,0.0
12147,40.0,2,328,0.0,0.0
12148,64.0,90,81,0.0,0.0
12149,68.0,82,104,0.0,0.0
12150,59.0,6,163,0.0,0.0
12151,38.0,37,189,6.0,0.0
12152,68.0,0,44,2.0,0.0
12153,59.0,6,39,3.0,0.0
12154,50.0,39,214,5.0,0.0
12155,65.0,23,42,4.0,0.0
12156,38.0,4,64,0.0,0.0
12157,50.0,7,67,0.0,0.0
12158,71.0,79,72,0.0,0.0
12159,68.0,9,53,0.0,0.0
12160,65.0,1,48,0.0,0.0
12161,71.0,2,35,0.0,0.0
12162,68.0,4,27,0.0,0.0
12163,65.0,67,20,0.0,0.0
12164,65.0,67,79,0.0,0.0
12165,68.0,17,37,0.0,0.0
12166,71.0,19,52,0.0,0.0
12167,64.0,11,63,0.0,0.0
12168,72.0,38,68,0.0,0.0
12169,63.0,83,56,0.0,0.0
12170,73.0,12,44,0.0,0.0
12171,74.0,49,78,0.0,0.0
12172,62.0,6,69,0.0,0.0
12173,75.0,41,75,0.0,0.0
12174,61.0,5,63,0.0,0.0
12175,60.0,63,75,0.0,0.0
12176,76.0,26,48,0.0,0.0
12177,79.0,2,96,0.0,0.0
12178,59.0,11,72,0.0,0.0
12179,59.0,1,36,3.0,0.0
12180,65.0,1,34,4.0,0.0
12181,50.0,8,21,5.0,0.0
12182,68.0,8,32,2.0,0.0
12183,50.0,10,78,0.0,0.0
12184,77.0,39,36,0.0,0.0
12185,77.0,17,32,0.0,0.0
12186,53.0,50,42,0.0,0.0
12187,65.0,1,23,0.0,0.0
12188,71.0,11,24,0.0,0.0
12189,68.0,4,19,0.0,0.0
12190,50.0,20,29,5.0,0.0
12191,68.0,9,39,2.0,0.0
12192,65.0,129,44,4.0,0.0
12193,59.0,2,35,3.0,0.0
12194,80.0,1,44,0.0,0.0
12195,83.0,0,45,0.0,0.0
12196,77.0,79,44,0.0,0.0
12197,77.0,81,84,0.0,0.0
12198,80.0,13,55,0.0,0.0
12199,83.0,13,67,0.0,0.0
12200,76.0,2,80,0.0,0.0
12201,84.0,42,72,0.0,0.0
12202,75.0,77,57,0.0,0.0
12203,85.0,9,46,0.0,0.0
12204,74.0,49,78,0.0,0.0
12205,86.0,5,72,0.0,0.0
12206,87.0,3,69,0.0,0.0
12207,73.0,36,66,0.0,0.0
12208,88.0,35,42,0.0,0.0
12209,72.0,57,76,0.0,0.0
12210,91.0,11,95,0.0,0.0
12211,71.0,2,72,0.0,0.0
12212,50.0,14,31,5.0,0.0
12213,62.0,18,79,0.0,0.0
12214,89.0,10,38,0.0,0.0
12215,68.0,3,28,2.0,0.0
12216,65.0,1,32,4.0,0.0
12217,59.0,25,31,3.0,0.0
12218,89.0,12,35,0.0,0.0
12219,65.0,57,42,0.0,0.0
12220,77.0,3,24,0.0,0.0
12221,83.0,2,25,0.0,0.0
12222,80.0,3,26,0.0,0.0
12223,50.0,6,28,5.0,0.0
12224,68.0,23,25,2.0,0.0
12225,65.0,13,45,4.0,0.0
12226,59.0,231,36,3.0,0.0
12227,58.0,79,101,0.0,0.0
12228,59.0,117,83,0.0,0.0
12229,38.0,0,372,0.0,0.0
12230,69.0,46,104,0.0,0.0
12231,65.0,34,64,0.0,0.0
12232,68.0,55,29,0.0,0.0
12233,71.0,126,26,0.0,0.0
12234,81.0,32,80,0.0,0.0
12235,50.0,7,110,0.0,0.0
12236,77.0,49,53,0.0,0.0
12237,80.0,62,33,0.0,0.0
12238,83.0,147,32,0.0,0.0
12239,93.0,61,99,0.0,0.0
12240,65.0,13,177,0.0,0.0
12241,59.0,15,210,0.0,0.0
12242,89.0,19,75,0.0,0.0
12243,92.0,21,38,0.0,0.0
12244,83.0,118,29,0.0,0.0
12245,81.0,82,72,0.0,0.0
12246,77.0,40,97,0.0,0.0
12247,80.0,24,57,0.0,0.0
12248,71.0,174,27,0.0,0.0
12249,50.0,0,340,5.0,0.0
12250,68.0,35,275,2.0,0.0
12251,69.0,31,121,0.0,0.0
12252,50.0,91,165,0.0,0.0
12253,38.0,3,289,0.0,0.0
12254,64.0,29,926,3.0,0.0
12255,64.0,15,75,0.0,0.0
12256,68.0,11,153,0.0,0.0
12257,59.0,66,106,0.0,0.0
12258,71.0,6,507,2.0,0.0
12259,36.0,14,111,0.0,0.0
12260,48.0,2,233,5.0,0.0
12261,64.0,0,58,0.0,0.0
12262,71.0,8,71,0.0,0.0
12263,48.0,127,78,0.0,0.0
12264,64.0,65,28,0.0,0.0
12265,64.0,103,35,0.0,0.0
12266,60.0,54,268,5.0,0.0
12267,64.0,14,60,0.0,0.0
12268,60.0,43,59,0.0,0.0
12269,71.0,54,78,0.0,0.0
12270,48.0,11,42,0.0,0.0
12271,69.0,37,228,2.0,0.0
12272,76.0,35,54,0.0,0.0
12273,60.0,0,44,0.0,0.0
12274,69.0,24,38,0.0,0.0
12275,64.0,1,26,0.0,0.0
12276,51.0,2,307,5.0,0.0
12277,72.0,8,174,2.0,0.0
12278,66.0,4,70,0.0,0.0
12279,63.0,5,63,0.0,0.0
12280,66.0,7,270,3.0,0.0
12281,72.0,28,81,0.0,0.0
12282,51.0,33,42,0.0,0.0
12283,63.0,8,60,0.0,0.0
12284,71.0,31,163,2.0,0.0
12285,78.0,46,58,0.0,0.0
12286,71.0,13,78,0.0,0.0
12287,66.0,32,36,0.0,0.0
12288,52.0,53,230,5.0,0.0
12289,64.0,14,59,0.0,0.0
12290,59.0,36,277,3.0,0.0
12291,67.0,29,71,0.0,0.0
12292,67.0,7,184,2.0,0.0
12293,72.0,37,70,0.0,0.0
12294,52.0,33,34,0.0,0.0
12295,64.0,31,41,0.0,0.0
12296,79.0,0,36,0.0,0.0
12297,71.0,15,25,0.0,0.0
12298,67.0,1,22,0.0,0.0
12299,66.0,48,63,0.0,0.0
12300,66.0,27,257,15.0,0.0
12301,70.0,4,46,0.0,0.0
12302,78.0,36,82,0.0,0.0
12303,54.0,32,45,0.0,0.0
12304,66.0,39,50,0.0,0.0
12305,85.0,2,46,0.0,0.0
12306,73.0,12,148,14.0,0.0
12307,70.0,15,188,14.0,0.0
12308,76.0,21,52,0.0,0.0
12309,70.0,21,21,0.0,0.0
12310,74.0,28,34,0.0,0.0
12311,71.0,71,69,0.0,0.0
12312,74.0,65,154,14.0,0.0
12313,54.0,1,234,15.0,0.0
12314,71.0,0,148,14.0,0.0
12315,83.0,0,94,0.0,0.0
12316,66.0,25,91,0.0,0.0
12317,76.0,16,126,0.0,0.0
12318,73.0,3,132,0.0,0.0
12319,76.0,4,154,14.0,0.0
12320,73.0,7,147,14.0,0.0
12321,82.0,1,78,0.0,0.0
12322,66.0,42,77,0.0,0.0
12323,74.0,15,76,0.0,0.0
12324,83.0,19,55,0.0,0.0
12325,71.0,95,88,0.0,0.0
12326,78.0,3,47,0.0,0.0
12327,59.0,75,274,15.0,0.0
12328,74.0,1,190,14.0,0.0
12329,71.0,58,186,14.0,0.0
12330,78.0,35,28,0.0,0.0
12331,78.0,9,66,0.0,0.0
12332,83.0,5,563,12.0,0.0
12333,71.0,23,564,13.0,0.0
12334,74.0,14,70,0.0,0.0
12335,71.0,35,74,0.0,0.0
12336,79.0,2,51,0.0,0.0
12337,59.0,68,43,0.0,0.0
12338,86.0,2,47,0.0,0.0
12339,71.0,34,43,0.0,0.0
12340,78.0,87,42,0.0,0.0
12341,74.0,12,25,0.0,0.0
12342,77.0,6,57,0.0,0.0
12343,73.0,51,62,0.0,0.0
12344,85.0,18,81,0.0,0.0
12345,61.0,30,46,0.0,0.0
12346,92.0,42,47,0.0,0.0
12347,73.0,14,32,0.0,0.0
12348,77.0,15,34,0.0,0.0
12349,83.0,54,42,0.0,0.0
12350,69.0,16,362,13.0,0.0
12351,81.0,1,361,12.0,0.0
12352,81.0,45,72,0.0,0.0
12353,78.0,10,62,0.0,0.0
12354,86.0,7,51,0.0,0.0
12355,66.0,43,53,0.0,0.0
12356,78.0,16,30,0.0,0.0
12357,93.0,48,39,0.0,0.0
12358,85.0,2,31,0.0,0.0
12359,81.0,79,29,0.0,0.0
12360,84.0,16,45,0.0,0.0
12361,80.0,29,59,0.0,0.0
12362,80.0,8,439,12.0,0.0
12363,68.0,13,445,13.0,0.0
12364,92.0,6,45,0.0,0.0
12365,68.0,60,40,0.0,0.0
12366,99.0,64,42,0.0,0.0
12367,80.0,7,31,0.0,0.0
12368,84.0,5,36,0.0,0.0
12369,90.0,45,37,0.0,0.0
12370,44.0,31,28,5.0,0.0
12371,85.0,27,77,0.0,0.0
12372,88.0,17,100,0.0,0.0
12373,44.0,29,32,6.0,0.0
12374,97.0,12,60,0.0,0.0
12375,80.0,20,72,0.0,0.0
12376,90.0,30,65,0.0,0.0
12377,72.0,13,26,2.0,0.0
12378,78.0,1,173,12.0,0.0
12379,87.0,2,59,0.0,0.0
12380,66.0,3,186,13.0,0.0
12381,63.0,3,24,3.0,0.0
12382,96.0,44,38,0.0,0.0
12383,80.0,21,79,0.0,0.0
12384,97.0,1,25,0.0,0.0
12385,88.0,8,24,0.0,0.0
12386,85.0,8,29,0.0,0.0
12387,92.0,0,19,0.0,0.0
12388,64.0,6,39,3.0,0.0
12389,73.0,10,26,2.0,0.0
12390,49.0,3,30,5.0,0.0
12391,76.0,118,259,12.0,0.0
12392,49.0,163,25,6.0,0.0
12393,64.0,3,249,13.0,0.0
12394,68.0,62,50,0.0,0.0
12395,68.0,37,144,0.0,0.0
12396,76.0,24,348,2.0,0.0
12397,49.0,39,367,5.0,0.0
12398,69.0,40,262,3.0,0.0
12399,64.0,16,98,0.0,0.0
12400,61.0,42,106,0.0,0.0
12401,69.0,32,81,0.0,0.0
12402,49.0,13,60,0.0,0.0
12403,61.0,19,39,0.0,0.0
12404,76.0,1,56,0.0,0.0
12405,68.0,4,202,3.0,0.0
12406,68.0,28,41,0.0,0.0
12407,64.0,6,32,0.0,0.0
12408,51.0,11,279,5.0,0.0
12409,75.0,9,191,2.0,0.0
12410,67.0,10,57,0.0,0.0
12411,63.0,62,69,0.0,0.0
12412,67.0,27,250,3.0,0.0
12413,75.0,14,87,0.0,0.0
12414,51.0,24,55,0.0,0.0
12415,82.0,28,64,0.0,0.0
12416,63.0,25,37,0.0,0.0
12417,73.0,47,162,2.0,0.0
12418,67.0,25,28,0.0,0.0
12419,73.0,11,88,0.0,0.0
12420,56.0,22,234,5.0,0.0
12421,68.0,73,269,3.0,0.0
12422,71.0,15,191,2.0,0.0
12423,71.0,1,71,0.0,0.0
12424,68.0,57,72,0.0,0.0
12425,76.0,22,77,0.0,0.0
12426,56.0,22,52,0.0,0.0
12427,68.0,10,31,0.0,0.0
12428,83.0,8,53,0.0,0.0
12429,71.0,19,28,0.0,0.0
12430,75.0,1,41,0.0,0.0
12431,70.0,54,62,0.0,0.0
12432,74.0,18,43,0.0,0.0
12433,70.0,20,266,15.0,0.0
12434,82.0,8,44,0.0,0.0
12435,58.0,49,51,0.0,0.0
12436,77.0,29,146,14.0,0.0
12437,74.0,32,174,14.0,0.0
12438,70.0,5,27,0.0,0.0
12439,89.0,69,29,0.0,0.0
12440,74.0,1,29,0.0,0.0
12441,80.0,20,30,0.0,0.0
12442,58.0,9,283,15.0,0.0
12443,78.0,19,143,14.0,0.0
12444,75.0,32,159,14.0,0.0
12445,75.0,54,68,0.0,0.0
12446,78.0,7,56,0.0,0.0
12447,70.0,5,64,0.0,0.0
12448,87.0,13,60,0.0,0.0
12449,77.0,10,62,0.0,0.0
12450,80.0,40,71,0.0,0.0
12451,80.0,0,175,14.0,0.0
12452,77.0,7,151,14.0,0.0
12453,70.0,21,92,0.0,0.0
12454,86.0,25,49,0.0,0.0
12455,63.0,54,263,15.0,0.0
12456,87.0,4,33,0.0,0.0
12457,78.0,16,36,0.0,0.0
12458,75.0,133,51,0.0,0.0
12459,82.0,1,28,0.0,0.0
12460,66.0,15,567,3.0,0.0
12461,70.0,36,316,2.0,0.0
12462,78.0,14,188,14.0,0.0
12463,75.0,43,195,14.0,0.0
12464,63.0,37,565,4.0,0.0
12465,82.0,14,28,0.0,0.0
12466,82.0,9,101,0.0,0.0
12467,75.0,2,69,0.0,0.0
12468,78.0,51,69,0.0,0.0
12469,71.0,36,334,2.0,0.0
12470,63.0,31,55,0.0,0.0
12471,83.0,36,84,0.0,0.0
12472,75.0,4,51,0.0,0.0
12473,90.0,30,53,0.0,0.0
12474,82.0,25,60,0.0,0.0
12475,78.0,36,22,0.0,0.0
12476,64.0,14,322,4.0,0.0
12477,68.0,40,281,3.0,0.0
12478,76.0,3,67,0.0,0.0
12479,80.0,3,68,0.0,0.0
12480,73.0,12,318,2.0,0.0
12481,64.0,26,38,0.0,0.0
12482,85.0,50,62,0.0,0.0
12483,76.0,37,53,0.0,0.0
12484,92.0,3,48,0.0,0.0
12485,83.0,42,37,0.0,0.0
12486,80.0,10,23,0.0,0.0
12487,70.0,2,299,3.0,0.0
12488,66.0,0,291,4.0,0.0
12489,75.0,5,285,2.0,0.0
12490,78.0,42,72,0.0,0.0
12491,82.0,3,66,0.0,0.0
12492,87.0,44,76,0.0,0.0
12493,66.0,30,46,0.0,0.0
12494,94.0,35,56,0.0,0.0
12495,78.0,2,54,0.0,0.0
12496,85.0,46,93,0.0,0.0
12497,82.0,58,23,0.0,0.0
12498,71.0,33,273,3.0,0.0
12499,76.0,22,616,2.0,0.0
12500,68.0,32,303,4.0,0.0
12501,83.0,50,76,0.0,0.0
12502,80.0,4,68,0.0,0.0
12503,88.0,0,56,0.0,0.0
12504,68.0,43,52,0.0,0.0
12505,80.0,13,32,0.0,0.0
12506,95.0,43,44,0.0,0.0
12507,87.0,2,28,0.0,0.0
12508,83.0,34,26,0.0,0.0
12509,66.0,9,278,3.0,0.0
12510,82.0,4,64,0.0,0.0
12511,61.0,17,293,4.0,0.0
12512,85.0,48,65,0.0,0.0
12513,54.0,2,254,5.0,0.0
12514,70.0,17,262,12.0,0.0
12515,42.0,5,33,6.0,0.0
12516,90.0,42,72,0.0,0.0
12517,70.0,24,44,0.0,0.0
12518,97.0,5,51,0.0,0.0
12519,82.0,23,56,0.0,0.0
12520,88.0,49,26,0.0,0.0
12521,85.0,8,12,0.0,0.0
12522,47.0,21,938,5.0,0.0
12523,75.0,11,956,2.0,0.0
12524,71.0,12,525,12.0,0.0
12525,66.0,3,3488,3.0,0.0
12526,83.0,3,13,0.0,0.0
12527,99.0,17,22,0.0,0.0
12528,71.0,1,12,0.0,0.0
12529,63.0,2,3485,4.0,0.0
12530,87.0,6,14,0.0,0.0
12531,35.0,239,49,6.0,0.0
12532,59.0,62,111,0.0,0.0
12533,75.0,21,84,0.0,0.0
12534,61.0,39,101,0.0,0.0
12535,76.0,15,83,0.0,0.0
12536,63.0,9,64,0.0,0.0
12537,78.0,65,72,0.0,0.0
12538,64.0,40,88,0.0,0.0
12539,80.0,0,86,0.0,0.0
12540,70.0,10,163,12.0,0.0
12541,66.0,66,77,0.0,0.0
12542,82.0,17,59,0.0,0.0
12543,68.0,53,91,0.0,0.0
12544,83.0,1,76,0.0,0.0
12545,71.0,49,155,12.0,0.0
12546,70.0,11,71,0.0,0.0
12547,85.0,59,81,0.0,0.0
12548,71.0,7,81,0.0,0.0
12549,87.0,4,76,0.0,0.0
12550,73.0,22,74,0.0,0.0
12551,88.0,2,68,0.0,0.0
12552,75.0,5,178,12.0,0.0
12553,90.0,38,34,0.0,0.0
12554,75.0,18,72,0.0,0.0
12555,73.0,224,868,2.0,0.0
12556,45.0,20,807,5.0,0.0
12557,93.0,26,95,0.0,0.0
12558,69.0,21,73,0.0,0.0
12559,78.0,1,43,0.0,0.0
12560,73.0,13,59,0.0,0.0
12561,85.0,15,38,0.0,0.0
12562,78.0,52,97,12.0,0.0
12563,90.0,32,91,0.0,0.0
12564,85.0,30,52,0.0,0.0
12565,81.0,90,33,0.0,0.0
12566,57.0,36,65,0.0,0.0
12567,78.0,4,58,0.0,0.0
12568,45.0,0,98,0.0,0.0
12569,85.0,6,46,0.0,0.0
12570,78.0,48,82,12.0,0.0
12571,81.0,45,80,0.0,0.0
12572,78.0,19,59,0.0,0.0
12573,73.0,119,17,0.0,0.0
12574,45.0,19,138,0.0,0.0
12575,57.0,2,260,15.0,0.0
12576,73.0,16,59,0.0,0.0
12577,33.0,63,156,0.0,0.0
12578,66.0,17,73,0.0,0.0
12579,78.0,42,88,12.0,0.0
12580,69.0,3,93,0.0,0.0
12581,66.0,2,87,0.0,0.0
12582,61.0,37,38,0.0,0.0
12583,66.0,1,23,0.0,0.0
12584,72.0,4,24,0.0,0.0
12585,44.0,2,1688,5.0,0.0
12586,32.0,3,19,0.0,0.0
12587,44.0,27,26,0.0,0.0
12588,72.0,20,1702,2.0,0.0
12589,78.0,8,1174,12.0,0.0
12590,56.0,51,444,15.0,0.0
12591,44.0,18,1673,6.0,0.0
12592,51.0,5,167,0.0,0.0
12593,60.0,46,113,0.0,0.0
12594,66.0,2,92,0.0,0.0
12595,54.0,44,91,0.0,0.0
12596,68.0,9,57,0.0,0.0
12597,60.0,71,66,0.0,0.0
12598,54.0,3,72,0.0,0.0
12599,66.0,3,74,0.0,0.0
12600,55.0,11,165,15.0,0.0
12601,68.0,15,61,0.0,0.0
12602,60.0,46,75,0.0,0.0
12603,72.0,0,58,0.0,0.0
12604,63.0,29,58,0.0,0.0
12605,56.0,18,191,15.0,0.0
12606,66.0,8,33,0.0,0.0
12607,78.0,86,37,0.0,0.0
12608,63.0,40,85,0.0,0.0
12609,72.0,23,59,0.0,0.0
12610,78.0,23,74,0.0,0.0
12611,66.0,1,67,0.0,0.0
12612,63.0,3,176,15.0,0.0
12613,80.0,64,32,0.0,0.0
12614,72.0,27,93,0.0,0.0
12615,56.0,12,809,15.0,0.0
12616,84.0,75,99,0.0,0.0
12617,75.0,61,38,0.0,0.0
12618,92.0,43,85,0.0,0.0
12619,90.0,43,62,0.0,0.0
12620,99.0,60,39,0.0,0.0
12621,80.0,21,303,12.0,0.0
12622,68.0,2,26,0.0,0.0
12623,56.0,109,45,0.0,0.0
12624,84.0,12,31,0.0,0.0
12625,80.0,40,76,0.0,0.0
12626,78.0,44,48,0.0,0.0
12627,87.0,42,31,0.0,0.0
12628,75.0,31,322,12.0,0.0
12629,56.0,9,23,0.0,0.0
12630,44.0,141,32,0.0,0.0
12631,72.0,1,30,0.0,0.0
12632,68.0,46,88,0.0,0.0
12633,66.0,12,68,0.0,0.0
12634,75.0,6,34,0.0,0.0
12635,73.0,10,982,2.0,0.0
12636,64.0,13,351,4.0,0.0
12637,37.0,39,456,6.0,0.0
12638,76.0,12,1706,12.0,0.0
12639,61.0,12,1271,15.0,0.0
12640,49.0,12,488,5.0,0.0
12641,68.0,1,22,0.0,0.0
12642,37.0,10,33,0.0,0.0
12643,49.0,250,43,0.0,0.0
12644,76.0,6,27,0.0,0.0
12645,73.0,0,24,0.0,0.0
12646,64.0,2,16,0.0,0.0
12647,64.0,3,3627,3.0,0.0
12648,73.0,2,92,0.0,0.0
12649,64.0,42,93,0.0,0.0
12650,66.0,45,98,0.0,0.0
12651,75.0,20,72,0.0,0.0
12652,68.0,6,100,0.0,0.0
12653,76.0,22,66,0.0,0.0
12654,78.0,64,86,0.0,0.0
12655,70.0,2,83,0.0,0.0
12656,36.0,2,175,6.0,0.0
12657,48.0,52,160,5.0,0.0
12658,80.0,1,81,0.0,0.0
12659,72.0,31,77,0.0,0.0
12660,82.0,39,50,0.0,0.0
12661,73.0,3,86,0.0,0.0
12662,37.0,39,178,6.0,0.0
12663,75.0,43,83,0.0,0.0
12664,49.0,30,124,5.0,0.0
12665,84.0,8,73,0.0,0.0
12666,76.0,4,100,0.0,0.0
12667,85.0,7,93,0.0,0.0
12668,87.0,26,79,0.0,0.0
12669,40.0,7,178,6.0,0.0
12670,72.0,5,65,0.0,0.0
12671,52.0,6,156,5.0,0.0
12672,88.0,31,78,0.0,0.0
12673,73.0,31,45,0.0,0.0
12674,67.0,22,46,0.0,0.0
12675,76.0,3,32,0.0,0.0
12676,71.0,4,33,0.0,0.0
12677,91.0,26,90,0.0,0.0
12678,83.0,11,61,0.0,0.0
12679,55.0,4,83,5.0,0.0
12680,71.0,2,920,2.0,0.0
12681,43.0,2,54,6.0,0.0
12682,88.0,53,84,0.0,0.0
12683,83.0,54,19,0.0,0.0
12684,83.0,26,67,0.0,0.0
12685,79.0,90,31,0.0,0.0
12686,55.0,1,123,5.0,0.0
12687,43.0,9,102,6.0,0.0
12688,55.0,11,65,0.0,0.0
12689,43.0,62,100,0.0,0.0
12690,83.0,4,86,0.0,0.0
12691,76.0,21,42,0.0,0.0
12692,79.0,40,92,0.0,0.0
12693,60.0,16,206,15.0,0.0
12694,76.0,28,60,0.0,0.0
12695,71.0,97,29,0.0,0.0
12696,43.0,26,98,6.0,0.0
12697,43.0,5,89,0.0,0.0
12698,55.0,4,118,5.0,0.0
12699,31.0,43,121,0.0,0.0
12700,64.0,16,59,0.0,0.0
12701,71.0,8,73,0.0,0.0
12702,61.0,35,177,15.0,0.0
12703,67.0,25,97,0.0,0.0
12704,64.0,3,81,0.0,0.0
12705,64.0,17,170,15.0,0.0
12706,59.0,89,41,0.0,0.0
12707,70.0,3,1889,2.0,0.0
12708,54.0,3,1857,5.0,0.0
12709,64.0,10,71,0.0,0.0
12710,42.0,214,81,0.0,0.0
12711,30.0,5,63,0.0,0.0
12712,70.0,9,54,0.0,0.0
12713,58.0,6,43,0.0,0.0
12714,76.0,51,490,12.0,0.0
12715,42.0,8,1845,6.0,0.0
12716,54.0,12,1102,15.0,0.0
12717,58.0,51,95,0.0,0.0
12718,49.0,17,125,0.0,0.0
12719,61.0,3,88,0.0,0.0
12720,52.0,26,80,0.0,0.0
12721,64.0,53,52,0.0,0.0
12722,58.0,16,35,0.0,0.0
12723,61.0,9,43,0.0,0.0
12724,52.0,30,30,0.0,0.0
12725,75.0,18,174,12.0,0.0
12726,64.0,3,63,0.0,0.0
12727,58.0,54,62,0.0,0.0
12728,61.0,15,60,0.0,0.0
12729,70.0,21,71,0.0,0.0
12730,64.0,78,55,0.0,0.0
12731,73.0,7,37,0.0,0.0
12732,76.0,25,167,12.0,0.0
12733,70.0,42,60,0.0,0.0
12734,61.0,4,101,0.0,0.0
12735,73.0,13,66,0.0,0.0
12736,64.0,20,70,0.0,0.0
12737,85.0,75,194,12.0,0.0
12738,76.0,30,34,0.0,0.0
12739,70.0,58,53,0.0,0.0
12740,61.0,7,942,4.0,0.0
12741,82.0,74,121,0.0,0.0
12742,73.0,17,25,0.0,0.0
12743,76.0,75,301,12.0,0.0
12744,92.0,28,93,0.0,0.0
12745,90.0,49,55,0.0,0.0
12746,97.0,42,32,0.0,0.0
12747,78.0,54,305,12.0,0.0
12748,82.0,25,64,0.0,0.0
12749,66.0,42,83,0.0,0.0
12750,54.0,37,122,0.0,0.0
12751,80.0,53,80,0.0,0.0
12752,78.0,31,63,0.0,0.0
12753,85.0,17,36,0.0,0.0
12754,73.0,7,335,12.0,0.0
12755,54.0,47,50,0.0,0.0
12756,42.0,63,93,0.0,0.0
12757,70.0,23,19,0.0,0.0
12758,68.0,57,89,0.0,0.0
12759,66.0,34,73,0.0,0.0
12760,73.0,45,51,0.0,0.0
12761,47.0,13,191,5.0,0.0
12762,75.0,95,302,12.0,0.0
12763,47.0,122,59,0.0,0.0
12764,66.0,5,34,0.0,0.0
12765,75.0,2,50,0.0,0.0
12766,35.0,2,41,0.0,0.0
12767,71.0,5,51,0.0,0.0
12768,63.0,7,42,0.0,0.0
12769,59.0,1,286,4.0,0.0
12770,35.0,23,186,6.0,0.0
12771,63.0,24,200,3.0,0.0
12772,71.0,23,219,2.0,0.0
12773,63.0,6,40,0.0,0.0
12774,71.0,10,47,0.0,0.0
12775,66.0,13,33,0.0,0.0
12776,63.0,8,80,0.0,0.0
12777,66.0,32,93,0.0,0.0
12778,71.0,11,81,0.0,0.0
12779,64.0,63,85,0.0,0.0
12780,72.0,32,45,0.0,0.0
12781,67.0,2,75,0.0,0.0
12782,73.0,15,76,0.0,0.0
12783,65.0,17,88,0.0,0.0
12784,68.0,1,69,0.0,0.0
12785,74.0,26,40,0.0,0.0
12786,66.0,52,71,0.0,0.0
12787,69.0,7,61,0.0,0.0
12788,67.0,6,87,0.0,0.0
12789,75.0,17,88,0.0,0.0
12790,70.0,27,54,0.0,0.0
12791,68.0,13,89,0.0,0.0
12792,71.0,5,35,0.0,0.0
12793,76.0,46,40,0.0,0.0
12794,69.0,2,93,0.0,0.0
12795,77.0,42,41,0.0,0.0
12796,72.0,5,30,0.0,0.0
12797,61.0,8,21,3.0,0.0
12798,54.0,3,29,4.0,0.0
12799,70.0,11,30,2.0,0.0
12800,78.0,33,38,0.0,0.0
12801,70.0,20,71,0.0,0.0
12802,73.0,6,32,0.0,0.0
12803,42.0,0,30,5.0,0.0
12804,78.0,2,35,0.0,0.0
12805,66.0,69,36,0.0,0.0
12806,76.0,12,15,0.0,0.0
12807,71.0,1,34,2.0,0.0
12808,83.0,4,26,0.0,0.0
12809,47.0,21,31,5.0,0.0
12810,71.0,1,23,0.0,0.0
12811,75.0,2,19,0.0,0.0
12812,59.0,1,21,0.0,0.0
12813,63.0,1,20,3.0,0.0
12814,54.0,126,41,4.0,0.0
12815,75.0,0,28,0.0,0.0
12816,83.0,90,31,0.0,0.0
12817,78.0,12,16,0.0,0.0
12818,83.0,12,70,0.0,0.0
12819,78.0,2,62,0.0,0.0
12820,75.0,34,75,0.0,0.0
12821,76.0,40,81,0.0,0.0
12822,79.0,7,71,0.0,0.0
12823,84.0,36,34,0.0,0.0
12824,85.0,21,71,0.0,0.0
12825,77.0,21,91,0.0,0.0
12826,80.0,17,50,0.0,0.0
12827,78.0,5,78,0.0,0.0
12828,86.0,33,45,0.0,0.0
12829,81.0,47,79,0.0,0.0
12830,79.0,21,91,0.0,0.0
12831,87.0,17,68,0.0,0.0
12832,82.0,6,60,0.0,0.0
12833,88.0,47,40,0.0,0.0
12834,83.0,1,36,0.0,0.0
12835,80.0,10,84,0.0,0.0
12836,81.0,16,83,0.0,0.0
12837,89.0,0,33,0.0,0.0
12838,84.0,47,31,0.0,0.0
12839,82.0,31,69,0.0,0.0
12840,61.0,1,27,3.0,0.0
12841,85.0,3,26,0.0,0.0
12842,90.0,28,38,0.0,0.0
12843,54.0,5,29,4.0,0.0
12844,42.0,2,31,5.0,0.0
12845,70.0,2,27,2.0,0.0
12846,90.0,55,45,0.0,0.0
12847,88.0,11,33,0.0,0.0
12848,78.0,11,112,0.0,0.0
12849,83.0,201,56,0.0,0.0
12850,95.0,9,20,0.0,0.0
12851,87.0,5,12,0.0,0.0
12852,47.0,3,33,5.0,0.0
12853,54.0,4,40,4.0,0.0
12854,71.0,3,29,2.0,0.0
12855,63.0,2,25,3.0,0.0
12856,54.0,126,60,0.0,0.0
12857,54.0,109,87,0.0,0.0
12858,35.0,34,114,0.0,0.0
12859,64.0,6,106,0.0,0.0
12860,59.0,24,67,0.0,0.0
12861,63.0,82,25,0.0,0.0
12862,66.0,85,48,0.0,0.0
12863,76.0,36,79,0.0,0.0
12864,54.0,15,63,0.0,0.0
12865,71.0,48,57,0.0,0.0
12866,75.0,70,29,0.0,0.0
12867,78.0,117,36,0.0,0.0
12868,59.0,34,160,0.0,0.0
12869,63.0,14,133,0.0,0.0
12870,71.0,33,98,0.0,0.0
12871,88.0,12,84,0.0,0.0
12872,83.0,8,70,0.0,0.0
12873,87.0,23,43,0.0,0.0
12874,78.0,149,14,0.0,0.0
12875,76.0,39,91,0.0,0.0
12876,71.0,48,66,0.0,0.0
12877,75.0,40,46,0.0,0.0
12878,66.0,166,25,0.0,0.0
12879,35.0,30,327,6.0,0.0
12880,47.0,2,350,5.0,0.0
12881,47.0,38,120,0.0,0.0
12882,64.0,11,108,0.0,0.0
12883,35.0,5,294,0.0,0.0
12884,59.0,65,79,0.0,0.0
12885,63.0,73,78,0.0,0.0
12886,54.0,1,194,0.0,0.0
12887,33.0,55,257,6.0,0.0
12888,33.0,4,112,0.0,0.0
12889,45.0,24,214,5.0,0.0
12890,72.0,22,45,2.0,0.0
12891,45.0,90,117,0.0,0.0
12892,54.0,26,64,4.0,0.0
12893,66.0,12,102,0.0,0.0
12894,63.0,1,97,0.0,0.0
12895,60.0,9,85,0.0,0.0
12896,63.0,10,25,3.0,0.0
12897,63.0,72,50,0.0,0.0
12898,66.0,2,46,0.0,0.0
12899,60.0,1,48,0.0,0.0
12900,60.0,68,87,0.0,0.0
12901,63.0,35,44,0.0,0.0
12902,66.0,6,73,0.0,0.0
12903,59.0,4,71,0.0,0.0
12904,67.0,47,70,0.0,0.0
12905,58.0,2,55,0.0,0.0
12906,68.0,73,56,0.0,0.0
12907,57.0,51,81,0.0,0.0
12908,69.0,16,64,0.0,0.0
12909,70.0,46,94,0.0,0.0
12910,56.0,23,65,0.0,0.0
12911,71.0,10,72,0.0,0.0
12912,55.0,43,82,0.0,0.0
12913,74.0,0,104,0.0,0.0
12914,54.0,35,65,0.0,0.0
12915,45.0,13,31,5.0,0.0
12916,54.0,0,27,4.0,0.0
12917,63.0,3,24,3.0,0.0
12918,72.0,1,39,2.0,0.0
12919,45.0,19,68,0.0,0.0
12920,72.0,28,38,0.0,0.0
12921,72.0,37,30,0.0,0.0
12922,48.0,42,63,0.0,0.0
12923,63.0,1,20,0.0,0.0
12924,60.0,7,18,0.0,0.0
12925,66.0,12,23,0.0,0.0
12926,45.0,8,31,5.0,0.0
12927,63.0,0,34,3.0,0.0
12928,54.0,139,36,4.0,0.0
12929,72.0,2,30,2.0,0.0
12930,72.0,0,37,0.0,0.0
12931,78.0,89,30,0.0,0.0
12932,75.0,12,15,0.0,0.0
12933,78.0,58,94,0.0,0.0
12934,72.0,1,93,0.0,0.0
12935,75.0,28,58,0.0,0.0
12936,79.0,3,81,0.0,0.0
12937,71.0,22,79,0.0,0.0
12938,80.0,18,43,0.0,0.0
12939,70.0,77,55,0.0,0.0
12940,81.0,1,80,0.0,0.0
12941,69.0,54,78,0.0,0.0
12942,82.0,27,94,0.0,0.0
12943,68.0,23,65,0.0,0.0
12944,67.0,43,83,0.0,0.0
12945,83.0,31,49,0.0,0.0
12946,86.0,0,105,0.0,0.0
12947,66.0,40,62,0.0,0.0
12948,54.0,2,37,4.0,0.0
12949,63.0,2,35,3.0,0.0
12950,72.0,8,37,2.0,0.0
12951,45.0,1,35,5.0,0.0
12952,84.0,35,37,0.0,0.0
12953,57.0,24,71,0.0,0.0
12954,84.0,9,35,0.0,0.0
12955,60.0,66,40,0.0,0.0
12956,72.0,1,25,0.0,0.0
12957,78.0,8,24,0.0,0.0
12958,75.0,0,23,0.0,0.0
12959,72.0,3,28,2.0,0.0
12960,45.0,7,30,5.0,0.0
12961,54.0,283,37,4.0,0.0
12962,63.0,3,33,3.0,0.0
12963,59.0,45,100,0.0,0.0
12964,60.0,203,33,0.0,0.0
12965,39.0,32,375,0.0,0.0
12966,71.0,35,124,0.0,0.0
12967,66.0,24,66,0.0,0.0
12968,69.0,54,30,0.0,0.0
12969,72.0,109,31,0.0,0.0
12970,83.0,13,128,0.0,0.0
12971,51.0,30,94,0.0,0.0
12972,78.0,39,69,0.0,0.0
12973,81.0,60,35,0.0,0.0
12974,84.0,116,31,0.0,0.0
12975,95.0,35,147,0.0,0.0
12976,66.0,1,52,0.0,0.0
12977,59.0,93,49,0.0,0.0
12978,90.0,66,77,0.0,0.0
12979,93.0,25,77,0.0,0.0
12980,84.0,151,32,0.0,0.0
12981,83.0,37,107,0.0,0.0
12982,78.0,59,74,0.0,0.0
12983,81.0,29,69,0.0,0.0
12984,72.0,79,27,0.0,0.0
12985,51.0,77,375,5.0,0.0
12986,59.0,19,343,3.0,0.0
12987,66.0,10,355,2.0,0.0
12988,39.0,160,28,6.0,0.0
12989,71.0,37,185,0.0,0.0
12990,51.0,1,164,0.0,0.0
12991,39.0,8,173,0.0,0.0
12992,66.0,10,69,0.0,0.0
12993,69.0,80,64,0.0,0.0
12994,59.0,9,207,0.0,0.0
12995,40.0,11,137,0.0,0.0
12996,67.0,56,785,2.0,0.0
12997,52.0,22,752,5.0,0.0
12998,59.0,76,344,3.0,0.0
12999,52.0,5,114,0.0,0.0
13000,40.0,150,116,6.0,0.0
13001,67.0,11,78,0.0,0.0
13002,64.0,4,71,0.0,0.0
13003,59.0,73,30,0.0,0.0
13004,60.0,63,266,3.0,0.0
13005,59.0,107,100,0.0,0.0
13006,52.0,4,103,0.0,0.0
13007,55.0,26,106,0.0,0.0
13008,60.0,3,63,0.0,0.0
13009,40.0,16,42,0.0,0.0
13010,59.0,8,230,3.0,0.0
13011,52.0,5,55,0.0,0.0
13012,67.0,27,58,0.0,0.0
13013,55.0,19,23,0.0,0.0
13014,59.0,37,41,0.0,0.0
13015,58.0,28,339,3.0,0.0
13016,66.0,7,201,2.0,0.0
13017,54.0,2,296,5.0,0.0
13018,54.0,44,87,0.0,0.0
13019,58.0,2,83,0.0,0.0
13020,66.0,49,144,0.0,0.0
13021,42.0,63,51,0.0,0.0
13022,64.0,13,162,2.0,0.0
13023,54.0,10,50,0.0,0.0
13024,73.0,7,56,0.0,0.0
13025,64.0,11,79,0.0,0.0
13026,58.0,25,48,0.0,0.0
13027,59.0,13,284,3.0,0.0
13028,62.0,51,70,0.0,0.0
13029,47.0,49,291,5.0,0.0
13030,59.0,11,54,0.0,0.0
13031,62.0,8,219,2.0,0.0
13032,47.0,36,50,0.0,0.0
13033,67.0,44,82,0.0,0.0
13034,74.0,1,54,0.0,0.0
13035,59.0,29,52,0.0,0.0
13036,66.0,7,60,0.0,0.0
13037,62.0,34,25,0.0,0.0
13038,61.0,10,311,15.0,0.0
13039,65.0,26,54,0.0,0.0
13040,61.0,51,80,0.0,0.0
13041,73.0,3,138,0.0,0.0
13042,49.0,55,52,0.0,0.0
13043,68.0,22,164,14.0,0.0
13044,65.0,31,204,14.0,0.0
13045,80.0,48,58,0.0,0.0
13046,61.0,24,30,0.0,0.0
13047,71.0,16,83,0.0,0.0
13048,65.0,8,36,0.0,0.0
13049,69.0,5,174,14.0,0.0
13050,66.0,0,173,14.0,0.0
13051,49.0,17,307,15.0,0.0
13052,69.0,81,71,0.0,0.0
13053,66.0,20,51,0.0,0.0
13054,78.0,38,102,0.0,0.0
13055,61.0,24,77,0.0,0.0
13056,71.0,1,156,14.0,0.0
13057,68.0,12,153,14.0,0.0
13058,71.0,39,77,0.0,0.0
13059,68.0,17,55,0.0,0.0
13060,61.0,36,101,0.0,0.0
13061,77.0,11,55,0.0,0.0
13062,69.0,50,264,14.0,0.0
13063,66.0,6,253,14.0,0.0
13064,54.0,35,297,15.0,0.0
13065,69.0,28,93,0.0,0.0
13066,78.0,46,46,0.0,0.0
13067,66.0,78,116,0.0,0.0
13068,73.0,1,36,0.0,0.0
13069,73.0,40,35,0.0,0.0
13070,73.0,58,108,0.0,0.0
13071,69.0,5,88,0.0,0.0
13072,78.0,29,593,12.0,0.0
13073,90.0,12,579,12.0,0.0
13074,66.0,48,80,0.0,0.0
13075,74.0,27,79,0.0,0.0
13076,54.0,16,60,0.0,0.0
13077,81.0,40,51,0.0,0.0
13078,66.0,17,33,0.0,0.0
13079,73.0,87,50,0.0,0.0
13080,69.0,17,25,0.0,0.0
13081,72.0,14,65,0.0,0.0
13082,68.0,56,78,0.0,0.0
13083,80.0,20,96,0.0,0.0
13084,56.0,28,56,0.0,0.0
13085,87.0,31,64,0.0,0.0
13086,68.0,22,39,0.0,0.0
13087,78.0,8,92,0.0,0.0
13088,72.0,58,29,0.0,0.0
13089,88.0,6,345,12.0,0.0
13090,76.0,11,70,0.0,0.0
13091,73.0,67,73,0.0,0.0
13092,76.0,12,332,12.0,0.0
13093,81.0,28,97,0.0,0.0
13094,61.0,13,64,0.0,0.0
13095,88.0,39,58,0.0,0.0
13096,73.0,18,37,0.0,0.0
13097,80.0,79,44,0.0,0.0
13098,76.0,14,30,0.0,0.0
13099,87.0,24,426,12.0,0.0
13100,75.0,2,422,12.0,0.0
13101,79.0,9,67,0.0,0.0
13102,75.0,58,75,0.0,0.0
13103,87.0,19,99,0.0,0.0
13104,63.0,32,56,0.0,0.0
13105,94.0,35,70,0.0,0.0
13106,75.0,27,38,0.0,0.0
13107,85.0,14,93,0.0,0.0
13108,79.0,59,31,0.0,0.0
13109,51.0,3,46,5.0,0.0
13110,83.0,45,77,0.0,0.0
13111,80.0,23,53,0.0,0.0
13112,39.0,13,38,6.0,0.0
13113,75.0,1,74,0.0,0.0
13114,92.0,12,54,0.0,0.0
13115,85.0,6,204,12.0,0.0
13116,73.0,6,232,12.0,0.0
13117,85.0,22,45,0.0,0.0
13118,67.0,12,22,2.0,0.0
13119,61.0,10,31,3.0,0.0
13120,82.0,44,63,0.0,0.0
13121,75.0,18,99,0.0,0.0
13122,91.0,42,48,0.0,0.0
13123,83.0,121,264,12.0,0.0
13124,92.0,2,26,0.0,0.0
13125,59.0,10,45,3.0,0.0
13126,83.0,3,35,0.0,0.0
13127,80.0,7,36,0.0,0.0
13128,68.0,3,29,2.0,0.0
13129,87.0,0,23,0.0,0.0
13130,44.0,121,57,5.0,0.0
13131,71.0,63,177,12.0,0.0
13132,44.0,1,39,6.0,0.0
13133,63.0,15,44,0.0,0.0
13134,63.0,86,105,0.0,0.0
13135,71.0,9,373,2.0,0.0
13136,64.0,15,227,3.0,0.0
13137,59.0,5,106,0.0,0.0
13138,44.0,65,310,5.0,0.0
13139,56.0,56,102,0.0,0.0
13140,44.0,33,79,0.0,0.0
13141,64.0,9,67,0.0,0.0
13142,63.0,39,219,3.0,0.0
13143,71.0,34,61,0.0,0.0
13144,56.0,9,31,0.0,0.0
13145,63.0,35,37,0.0,0.0
13146,59.0,5,29,0.0,0.0
13147,70.0,1,206,2.0,0.0
13148,46.0,21,348,5.0,0.0
13149,62.0,5,73,0.0,0.0
13150,58.0,3,70,0.0,0.0
13151,62.0,6,298,3.0,0.0
13152,70.0,14,46,0.0,0.0
13153,46.0,40,53,0.0,0.0
13154,68.0,9,181,2.0,0.0
13155,77.0,48,34,0.0,0.0
13156,58.0,4,27,0.0,0.0
13157,68.0,53,62,0.0,0.0
13158,62.0,3,17,0.0,0.0
13159,60.0,28,19,0.0,0.0
13160,66.0,62,85,0.0,0.0
13161,63.0,10,69,0.0,0.0
13162,63.0,46,295,3.0,0.0
13163,66.0,21,227,2.0,0.0
13164,51.0,3,244,5.0,0.0
13165,71.0,52,87,0.0,0.0
13166,51.0,12,68,0.0,0.0
13167,63.0,17,64,0.0,0.0
13168,78.0,8,80,0.0,0.0
13169,70.0,19,70,0.0,0.0
13170,66.0,23,39,0.0,0.0
13171,65.0,33,271,15.0,0.0
13172,69.0,9,66,0.0,0.0
13173,65.0,54,74,0.0,0.0
13174,53.0,21,57,0.0,0.0
13175,77.0,40,78,0.0,0.0
13176,84.0,7,49,0.0,0.0
13177,65.0,34,50,0.0,0.0
13178,72.0,32,152,14.0,0.0
13179,69.0,13,172,14.0,0.0
13180,75.0,3,29,0.0,0.0
13181,69.0,34,23,0.0,0.0
13182,70.0,30,66,0.0,0.0
13183,73.0,37,94,0.0,0.0
13184,53.0,28,261,15.0,0.0
13185,73.0,16,155,14.0,0.0
13186,70.0,17,166,14.0,0.0
13187,65.0,23,230,0.0,0.0
13188,82.0,37,62,0.0,0.0
13189,72.0,44,73,0.0,0.0
13190,75.0,6,63,0.0,0.0
13191,75.0,12,177,14.0,0.0
13192,72.0,1,156,14.0,0.0
13193,81.0,17,53,0.0,0.0
13194,65.0,75,342,2.0,0.0
13195,61.0,9,580,3.0,0.0
13196,58.0,2,611,4.0,0.0
13197,58.0,5,305,15.0,0.0
13198,82.0,0,45,0.0,0.0
13199,73.0,1,43,0.0,0.0
13200,70.0,139,55,0.0,0.0
13201,77.0,7,35,0.0,0.0
13202,73.0,15,191,14.0,0.0
13203,70.0,52,198,14.0,0.0
13204,77.0,10,31,0.0,0.0
13205,77.0,31,54,0.0,0.0
13206,70.0,15,81,0.0,0.0
13207,73.0,48,94,0.0,0.0
13208,66.0,46,306,2.0,0.0
13209,78.0,29,102,0.0,0.0
13210,58.0,43,58,0.0,0.0
13211,70.0,35,59,0.0,0.0
13212,85.0,6,52,0.0,0.0
13213,77.0,26,60,0.0,0.0
13214,73.0,14,40,0.0,0.0
13215,59.0,30,352,4.0,0.0
13216,63.0,9,306,3.0,0.0
13217,68.0,35,305,2.0,0.0
13218,71.0,17,64,0.0,0.0
13219,75.0,36,78,0.0,0.0
13220,59.0,24,43,0.0,0.0
13221,80.0,54,65,0.0,0.0
13222,71.0,12,52,0.0,0.0
13223,87.0,29,61,0.0,0.0
13224,78.0,24,53,0.0,0.0
13225,75.0,24,24,0.0,0.0
13226,61.0,39,335,4.0,0.0
13227,65.0,10,323,3.0,0.0
13228,70.0,36,278,2.0,0.0
13229,77.0,11,78,0.0,0.0
13230,73.0,20,89,0.0,0.0
13231,61.0,51,45,0.0,0.0
13232,82.0,16,25,0.0,0.0
13233,73.0,10,33,0.0,0.0
13234,89.0,46,41,0.0,0.0
13235,77.0,3,30,0.0,0.0
13236,80.0,36,32,0.0,0.0
13237,66.0,17,339,3.0,0.0
13238,63.0,5,327,4.0,0.0
13239,71.0,63,592,2.0,0.0
13240,75.0,51,80,0.0,0.0
13241,78.0,3,75,0.0,0.0
13242,83.0,55,66,0.0,0.0
13243,63.0,7,48,0.0,0.0
13244,75.0,22,46,0.0,0.0
13245,90.0,28,65,0.0,0.0
13246,78.0,32,30,0.0,0.0
13247,82.0,44,61,0.0,0.0
13248,49.0,8,289,5.0,0.0
13249,61.0,30,248,4.0,0.0
13250,68.0,14,290,3.0,0.0
13251,80.0,29,81,0.0,0.0
13252,77.0,23,55,0.0,0.0
13253,37.0,11,260,6.0,0.0
13254,65.0,32,43,0.0,0.0
13255,85.0,50,69,0.0,0.0
13256,77.0,19,70,0.0,0.0
13257,92.0,12,50,0.0,0.0
13258,80.0,3,24,0.0,0.0
13259,84.0,0,24,0.0,0.0
13260,83.0,15,23,0.0,0.0
13261,70.0,4,963,2.0,0.0
13262,42.0,32,425,5.0,0.0
13263,78.0,3,133,0.0,0.0
13264,90.0,24,134,0.0,0.0
13265,82.0,53,72,0.0,0.0
13266,61.0,4,2993,4.0,0.0
13267,66.0,2,2141,3.0,0.0
13268,42.0,14,431,6.0,0.0
13269,82.0,5,37,0.0,0.0
13270,85.0,83,65,0.0,0.0
13271,78.0,30,82,0.0,0.0
13272,94.0,11,69,0.0,0.0
13273,73.0,14,90,0.0,0.0
13274,82.0,57,32,0.0,0.0
13275,70.0,59,20,0.0,0.0
13276,78.0,6,78,0.0,0.0
13277,66.0,62,67,0.0,0.0
13278,73.0,3,45,0.0,0.0
13279,41.0,36,145,6.0,0.0
13280,41.0,37,177,5.0,0.0
13281,61.0,15,81,0.0,0.0
13282,82.0,18,62,0.0,0.0
13283,70.0,4,26,0.0,0.0
13284,58.0,38,29,0.0,0.0
13285,54.0,20,72,0.0,0.0
13286,42.0,5,166,5.0,0.0
13287,42.0,20,170,6.0,0.0
13288,66.0,50,81,0.0,0.0
13289,49.0,6,94,0.0,0.0
13290,61.0,21,64,0.0,0.0
13291,46.0,18,168,5.0,0.0
13292,70.0,27,87,0.0,0.0
13293,42.0,45,42,0.0,0.0
13294,46.0,43,177,6.0,0.0
13295,58.0,43,30,0.0,0.0
13296,68.0,0,2514,2.0,0.0
13297,49.0,72,80,5.0,0.0
13298,49.0,9,132,6.0,0.0
13299,37.0,4,126,0.0,0.0
13300,56.0,21,101,0.0,0.0
13301,68.0,51,125,0.0,0.0
13302,61.0,79,53,0.0,0.0
13303,66.0,32,63,0.0,0.0
13304,68.0,111,29,0.0,0.0
13305,49.0,34,115,6.0,0.0
13306,49.0,34,127,5.0,0.0
13307,61.0,40,161,0.0,0.0
13308,73.0,17,89,0.0,0.0
13309,66.0,16,58,0.0,0.0
13310,68.0,64,44,0.0,0.0
13311,73.0,128,37,0.0,0.0
13312,49.0,10,117,5.0,0.0
13313,66.0,36,174,0.0,0.0
13314,78.0,19,91,0.0,0.0
13315,49.0,22,120,6.0,0.0
13316,68.0,26,67,0.0,0.0
13317,73.0,51,46,0.0,0.0
13318,78.0,120,39,0.0,0.0
13319,49.0,22,1057,5.0,0.0
13320,80.0,2,87,0.0,0.0
13321,68.0,46,87,0.0,0.0
13322,56.0,8,393,15.0,0.0
13323,49.0,27,1109,6.0,0.0
13324,67.0,55,86,0.0,0.0
13325,73.0,21,54,0.0,0.0
13326,78.0,20,69,0.0,0.0
13327,66.0,6,61,0.0,0.0
13328,65.0,40,66,0.0,0.0
13329,80.0,31,30,0.0,0.0
13330,64.0,26,88,0.0,0.0
13331,64.0,68,925,3.0,0.0
13332,85.0,48,36,0.0,0.0
13333,73.0,12,19,0.0,0.0
13334,63.0,58,68,0.0,0.0
13335,76.0,18,43,0.0,0.0
13336,62.0,22,84,0.0,0.0
13337,55.0,1,168,15.0,0.0
13338,80.0,23,41,0.0,0.0
13339,81.0,0,38,0.0,0.0
13340,61.0,26,78,0.0,0.0
13341,85.0,40,28,0.0,0.0
13342,60.0,32,83,0.0,0.0
13343,88.0,38,36,0.0,0.0
13344,56.0,21,167,15.0,0.0
13345,76.0,8,18,0.0,0.0
13346,77.0,6,15,0.0,0.0
13347,59.0,11,92,0.0,0.0
13348,80.0,50,37,0.0,0.0
13349,85.0,19,54,0.0,0.0
13350,58.0,21,72,0.0,0.0
13351,61.0,17,131,15.0,0.0
13352,57.0,43,97,0.0,0.0
13353,88.0,46,32,0.0,0.0
13354,56.0,44,81,0.0,0.0
13355,92.0,38,122,0.0,0.0
13356,80.0,21,56,0.0,0.0
13357,64.0,9,282,15.0,0.0
13358,55.0,35,96,0.0,0.0
13359,85.0,2,91,0.0,0.0
13360,54.0,9,75,0.0,0.0
13361,88.0,17,84,0.0,0.0
13362,52.0,54,97,0.0,0.0
13363,92.0,24,28,0.0,0.0
13364,51.0,35,648,5.0,0.0
13365,63.0,6,281,15.0,0.0
13366,59.0,78,381,4.0,0.0
13367,51.0,1,286,6.0,0.0
13368,63.0,4,367,3.0,0.0
13369,51.0,12,119,0.0,0.0
13370,95.0,42,150,0.0,0.0
13371,83.0,31,118,0.0,0.0
13372,87.0,5,93,0.0,0.0
13373,50.0,43,98,0.0,0.0
13374,52.0,5,72,0.0,0.0
13375,92.0,7,78,0.0,0.0
13376,51.0,5,28,0.0,0.0
13377,95.0,73,33,0.0,0.0
13378,61.0,21,353,3.0,0.0
13379,51.0,5,343,15.0,0.0
13380,58.0,17,365,4.0,0.0
13381,39.0,4,271,6.0,0.0
13382,67.0,6,284,2.0,0.0
13383,39.0,41,180,0.0,0.0
13384,94.0,53,104,0.0,0.0
13385,85.0,6,94,0.0,0.0
13386,87.0,17,80,0.0,0.0
13387,91.0,35,72,0.0,0.0
13388,94.0,13,41,0.0,0.0
13389,68.0,122,981,2.0,0.0
13390,59.0,33,538,3.0,0.0
13391,56.0,6,590,4.0,0.0
13392,40.0,46,477,6.0,0.0
13393,40.0,124,57,0.0,0.0
13394,92.0,34,181,0.0,0.0
13395,52.0,2,519,5.0,0.0
13396,52.0,10,355,15.0,0.0
13397,88.0,7,113,0.0,0.0
13398,76.0,14,111,0.0,0.0
13399,95.0,28,81,0.0,0.0
13400,92.0,58,15,0.0,0.0
13401,71.0,16,96,0.0,0.0
13402,83.0,54,28,0.0,0.0
13403,68.0,58,27,0.0,0.0
13404,80.0,16,74,0.0,0.0
13405,64.0,5,75,0.0,0.0
13406,76.0,5,79,0.0,0.0
13407,39.0,23,148,6.0,0.0
13408,51.0,48,169,5.0,0.0
13409,59.0,15,81,0.0,0.0
13410,83.0,21,47,0.0,0.0
13411,71.0,39,35,0.0,0.0
13412,56.0,6,28,0.0,0.0
13413,59.0,4,2420,4.0,0.0
13414,64.0,13,1604,3.0,0.0
13415,40.0,19,165,6.0,0.0
13416,52.0,12,152,5.0,0.0
13417,52.0,4,71,0.0,0.0
13418,68.0,60,71,0.0,0.0
13419,47.0,3,88,0.0,0.0
13420,64.0,13,69,0.0,0.0
13421,56.0,18,128,5.0,0.0
13422,71.0,47,50,0.0,0.0
13423,40.0,6,43,0.0,0.0
13424,44.0,36,125,6.0,0.0
13425,59.0,25,25,0.0,0.0
13426,66.0,115,2506,2.0,0.0
13427,59.0,2,153,5.0,0.0
13428,35.0,50,169,0.0,0.0
13429,66.0,3,141,0.0,0.0
13430,54.0,19,145,0.0,0.0
13431,47.0,7,118,6.0,0.0
13432,59.0,67,97,0.0,0.0
13433,64.0,19,77,0.0,0.0
13434,66.0,87,30,0.0,0.0
13435,47.0,43,76,6.0,0.0
13436,59.0,43,116,5.0,0.0
13437,59.0,14,138,0.0,0.0
13438,71.0,12,81,0.0,0.0
13439,64.0,51,72,0.0,0.0
13440,66.0,42,57,0.0,0.0
13441,71.0,132,29,0.0,0.0
13442,59.0,7,123,5.0,0.0
13443,47.0,25,86,6.0,0.0
13444,64.0,1,197,0.0,0.0
13445,76.0,8,108,0.0,0.0
13446,66.0,74,57,0.0,0.0
13447,71.0,75,52,0.0,0.0
13448,76.0,105,64,0.0,0.0
13449,66.0,12,94,0.0,0.0
13450,78.0,45,105,0.0,0.0
13451,59.0,2,1100,5.0,0.0
13452,47.0,1,1091,6.0,0.0
13453,54.0,23,442,15.0,0.0
13454,65.0,5,81,0.0,0.0
13455,71.0,63,72,0.0,0.0
13456,64.0,19,84,0.0,0.0
13457,76.0,3,71,0.0,0.0
13458,63.0,34,66,0.0,0.0
13459,78.0,29,28,0.0,0.0
13460,62.0,28,86,0.0,0.0
13461,83.0,6,23,0.0,0.0
13462,71.0,41,25,0.0,0.0
13463,62.0,5,852,3.0,0.0
13464,61.0,32,73,0.0,0.0
13465,74.0,37,35,0.0,0.0
13466,78.0,7,43,0.0,0.0
13467,60.0,19,66,0.0,0.0
13468,53.0,30,160,15.0,0.0
13469,59.0,9,97,0.0,0.0
13470,83.0,64,30,0.0,0.0
13471,58.0,24,87,0.0,0.0
13472,86.0,15,40,0.0,0.0
13473,74.0,11,26,0.0,0.0
13474,54.0,6,124,15.0,0.0
13475,57.0,46,89,0.0,0.0
13476,78.0,45,35,0.0,0.0
13477,83.0,16,62,0.0,0.0
13478,56.0,16,75,0.0,0.0
13479,59.0,65,166,15.0,0.0
13480,55.0,22,97,0.0,0.0
13481,86.0,66,29,0.0,0.0
13482,54.0,30,103,0.0,0.0
13483,90.0,12,129,0.0,0.0
13484,78.0,27,139,0.0,0.0
13485,62.0,1,295,15.0,0.0
13486,53.0,10,86,0.0,0.0
13487,83.0,60,90,0.0,0.0
13488,52.0,3,84,0.0,0.0
13489,86.0,14,79,0.0,0.0
13490,50.0,48,90,0.0,0.0
13491,90.0,47,24,0.0,0.0
13492,61.0,7,410,3.0,0.0
13493,57.0,35,402,4.0,0.0
13494,61.0,8,323,5.0,0.0
13495,61.0,18,327,15.0,0.0
13496,49.0,15,288,6.0,0.0
13497,49.0,48,142,0.0,0.0
13498,93.0,19,185,0.0,0.0
13499,81.0,37,45,0.0,0.0
13500,90.0,19,14,0.0,0.0
13501,83.0,54,68,0.0,0.0
13502,48.0,3,89,0.0,0.0
13503,85.0,49,88,0.0,0.0
13504,90.0,20,133,0.0,0.0
13505,50.0,3,71,0.0,0.0
13506,49.0,3,26,0.0,0.0
13507,93.0,23,46,0.0,0.0
13508,56.0,4,403,4.0,0.0
13509,59.0,11,353,3.0,0.0
13510,49.0,19,291,5.0,0.0
13511,37.0,26,310,6.0,0.0
13512,49.0,7,345,15.0,0.0
13513,65.0,31,333,2.0,0.0
13514,37.0,0,165,0.0,0.0
13515,92.0,49,200,0.0,0.0
13516,83.0,35,164,0.0,0.0
13517,85.0,2,89,0.0,0.0
13518,89.0,20,101,0.0,0.0
13519,92.0,73,150,0.0,0.0
13520,57.0,20,369,3.0,0.0
13521,66.0,11,349,2.0,0.0
13522,54.0,8,370,4.0,0.0
13523,38.0,1,557,6.0,0.0
13524,38.0,33,125,0.0,0.0
13525,90.0,88,156,0.0,0.0
13526,50.0,2,355,15.0,0.0
13527,50.0,10,520,5.0,0.0
13528,86.0,59,122,0.0,0.0
13529,74.0,0,118,0.0,0.0
13530,93.0,14,72,0.0,0.0
13531,69.0,15,84,0.0,0.0
13532,81.0,45,39,0.0,0.0
13533,66.0,66,24,0.0,0.0
13534,78.0,53,77,0.0,0.0
13535,62.0,36,84,0.0,0.0
13536,74.0,6,75,0.0,0.0
13537,49.0,37,199,5.0,0.0
13538,37.0,30,161,6.0,0.0
13539,57.0,16,82,0.0,0.0
13540,81.0,31,43,0.0,0.0
13541,69.0,34,37,0.0,0.0
13542,54.0,7,29,0.0,0.0
13543,66.0,16,359,3.0,0.0
13544,74.0,24,270,2.0,0.0
13545,50.0,16,66,0.0,0.0
13546,50.0,17,155,5.0,0.0
13547,38.0,1,171,6.0,0.0
13548,66.0,62,68,0.0,0.0
13549,45.0,4,84,0.0,0.0
13550,62.0,13,76,0.0,0.0
13551,38.0,7,42,0.0,0.0
13552,69.0,60,37,0.0,0.0
13553,54.0,58,138,5.0,0.0
13554,42.0,81,209,6.0,0.0
13555,57.0,23,36,0.0,0.0
13556,44.0,7,165,5.0,0.0
13557,43.0,52,165,0.0,0.0
13558,62.0,1,211,0.0,0.0
13559,74.0,37,694,2.0,0.0
13560,64.0,69,975,3.0,0.0
13561,44.0,6,128,6.0,0.0
13562,59.0,18,115,0.0,0.0
13563,44.0,10,104,0.0,0.0
13564,56.0,10,30,0.0,0.0
13565,64.0,73,36,0.0,0.0
13566,64.0,116,44,0.0,0.0
13567,44.0,6,361,6.0,0.0
13568,44.0,26,364,5.0,0.0
13569,55.0,50,93,0.0,0.0
13570,74.0,28,138,0.0,0.0
13571,56.0,17,107,0.0,0.0
13572,71.0,6,56,0.0,0.0
13573,68.0,116,37,0.0,0.0
13574,76.0,9,27,0.0,0.0
13575,76.0,3,92,0.0,0.0
13576,46.0,22,324,6.0,0.0
13577,46.0,11,341,5.0,0.0
13578,73.0,5,274,2.0,0.0
13579,66.0,19,270,4.0,0.0
13580,57.0,45,86,0.0,0.0
13581,85.0,42,144,0.0,0.0
13582,58.0,57,134,0.0,0.0
13583,78.0,17,56,0.0,0.0
13584,88.0,5,50,0.0,0.0
13585,70.0,9,37,0.0,0.0
13586,76.0,19,72,0.0,0.0
13587,62.0,108,930,3.0,0.0
13588,59.0,4,263,0.0,0.0
13589,73.0,2,593,2.0,0.0
13590,85.0,27,113,0.0,0.0
13591,47.0,16,399,6.0,0.0
13592,47.0,6,421,5.0,0.0
13593,66.0,27,870,4.0,0.0
13594,78.0,40,71,0.0,0.0
13595,86.0,31,43,0.0,0.0
13596,71.0,24,71,0.0,0.0
13597,74.0,26,30,0.0,0.0
13598,66.0,39,58,0.0,0.0
13599,62.0,61,19,0.0,0.0
13600,73.0,37,78,0.0,0.0
13601,66.0,8,65,0.0,0.0
13602,59.0,40,76,0.0,0.0
13603,46.0,20,201,6.0,0.0
13604,46.0,28,173,5.0,0.0
13605,54.0,29,61,0.0,0.0
13606,74.0,12,43,0.0,0.0
13607,62.0,73,35,0.0,0.0
13608,50.0,7,23,0.0,0.0
13609,71.0,13,267,2.0,0.0
13610,47.0,53,84,0.0,0.0
13611,59.0,26,143,0.0,0.0
13612,47.0,19,165,5.0,0.0
13613,47.0,4,172,6.0,0.0
13614,42.0,11,66,0.0,0.0
13615,54.0,4,64,0.0,0.0
13616,35.0,0,41,0.0,0.0
13617,62.0,59,39,0.0,0.0
13618,50.0,21,181,6.0,0.0
13619,50.0,1,152,5.0,0.0
13620,50.0,43,47,0.0,0.0
13621,71.0,8,682,2.0,0.0
13622,40.0,8,180,5.0,0.0
13623,67.0,12,615,4.0,0.0
13624,60.0,14,646,3.0,0.0
13625,39.0,31,139,0.0,0.0
13626,40.0,20,197,6.0,0.0
13627,59.0,8,216,0.0,0.0
13628,40.0,21,55,0.0,0.0
13629,55.0,18,103,0.0,0.0
13630,52.0,5,33,0.0,0.0
13631,60.0,78,31,0.0,0.0
13632,60.0,113,47,0.0,0.0
13633,40.0,15,319,6.0,0.0
13634,71.0,0,126,0.0,0.0
13635,51.0,36,90,0.0,0.0
13636,40.0,50,305,5.0,0.0
13637,67.0,35,68,0.0,0.0
13638,52.0,11,54,0.0,0.0
13639,64.0,71,40,0.0,0.0
13640,72.0,14,26,0.0,0.0
13641,72.0,19,60,0.0,0.0
13642,69.0,80,396,4.0,0.0
13643,62.0,11,276,4.0,0.0
13644,53.0,31,96,0.0,0.0
13645,81.0,35,159,0.0,0.0
13646,69.0,30,235,2.0,0.0
13647,42.0,17,293,6.0,0.0
13648,42.0,21,303,5.0,0.0
13649,74.0,34,54,0.0,0.0
13650,54.0,2,124,0.0,0.0
13651,84.0,29,40,0.0,0.0
13652,66.0,2,35,0.0,0.0
13653,72.0,36,51,0.0,0.0
13654,69.0,13,625,2.0,0.0
13655,55.0,37,276,0.0,0.0
13656,81.0,49,159,0.0,0.0
13657,43.0,8,423,6.0,0.0
13658,43.0,32,454,5.0,0.0
13659,62.0,18,890,4.0,0.0
13660,59.0,6,906,3.0,0.0
13661,74.0,27,67,0.0,0.0
13662,67.0,35,70,0.0,0.0
13663,83.0,16,54,0.0,0.0
13664,71.0,9,28,0.0,0.0
13665,62.0,26,68,0.0,0.0
13666,59.0,93,21,0.0,0.0
13667,69.0,4,144,0.0,0.0
13668,62.0,19,58,0.0,0.0
13669,55.0,4,76,0.0,0.0
13670,42.0,28,184,5.0,0.0
13671,42.0,22,147,6.0,0.0
13672,71.0,33,43,0.0,0.0
13673,50.0,3,69,0.0,0.0
13674,59.0,15,16,0.0,0.0
13675,47.0,50,28,0.0,0.0
13676,43.0,55,71,0.0,0.0
13677,55.0,36,139,0.0,0.0
13678,67.0,18,214,2.0,0.0
13679,43.0,2,165,5.0,0.0
13680,43.0,34,169,6.0,0.0
13681,50.0,13,61,0.0,0.0
13682,38.0,4,74,0.0,0.0
13683,31.0,5,49,0.0,0.0
13684,59.0,2,37,0.0,0.0
13685,47.0,2,159,6.0,0.0
13686,47.0,98,168,5.0,0.0
13687,47.0,72,42,0.0,0.0
13688,36.0,16,148,0.0,0.0
13689,57.0,1,942,3.0,0.0
13690,55.0,14,221,0.0,0.0
13691,37.0,34,157,6.0,0.0
13692,37.0,14,142,5.0,0.0
13693,67.0,38,648,2.0,0.0
13694,64.0,21,619,4.0,0.0
13695,37.0,3,93,0.0,0.0
13696,52.0,9,93,0.0,0.0
13697,49.0,7,29,0.0,0.0
13698,57.0,71,35,0.0,0.0
13699,57.0,125,44,0.0,0.0
13700,37.0,24,307,6.0,0.0
13701,48.0,26,103,0.0,0.0
13702,67.0,30,141,0.0,0.0
13703,37.0,7,302,5.0,0.0
13704,49.0,61,109,0.0,0.0
13705,64.0,12,47,0.0,0.0
13706,69.0,6,19,0.0,0.0
13707,61.0,38,87,0.0,0.0
13708,51.0,2,15,0.0,0.0
13709,69.0,3,71,0.0,0.0
13710,59.0,59,649,4.0,0.0
13711,39.0,31,291,6.0,0.0
13712,66.0,9,323,7.0,0.0
13713,78.0,10,156,0.0,0.0
13714,50.0,55,84,0.0,0.0
13715,66.0,72,340,2.0,0.0
13716,39.0,12,324,5.0,0.0
13717,51.0,26,98,0.0,0.0
13718,71.0,16,68,0.0,0.0
13719,81.0,4,42,0.0,0.0
13720,63.0,70,41,0.0,0.0
13721,69.0,23,57,0.0,0.0
13722,64.0,4,1242,7.0,0.0
13723,40.0,7,322,6.0,0.0
13724,59.0,1,318,0.0,0.0
13725,55.0,5,311,3.0,0.0
13726,64.0,1,310,0.0,0.0
13727,52.0,16,287,0.0,0.0
13728,55.0,1,309,0.0,0.0
13729,67.0,52,115,0.0,0.0
13730,64.0,6,293,2.0,0.0
13731,40.0,12,373,5.0,0.0
13732,71.0,91,56,0.0,0.0
13733,79.0,24,73,0.0,0.0
13734,78.0,1,60,0.0,0.0
13735,76.0,27,73,0.0,0.0
13736,79.0,121,37,0.0,0.0
13737,91.0,71,85,0.0,0.0
13738,90.0,51,90,0.0,0.0
13739,59.0,0,157,0.0,0.0
13740,55.0,13,162,0.0,0.0
13741,64.0,5,156,0.0,0.0
13742,88.0,74,74,0.0,0.0
13743,71.0,3,316,2.0,0.0
13744,55.0,17,310,5.0,0.0
13745,59.0,12,325,3.0,0.0
13746,86.0,73,95,0.0,0.0
13747,85.0,52,85,0.0,0.0
13748,83.0,29,76,0.0,0.0
13749,61.0,5,292,3.0,0.0
13750,85.0,16,68,0.0,0.0
13751,61.0,7,356,0.0,0.0
13752,64.0,9,334,0.0,0.0
13753,54.0,48,391,0.0,0.0
13754,82.0,56,81,0.0,0.0
13755,70.0,2,282,2.0,0.0
13756,54.0,8,325,5.0,0.0
13757,79.0,91,58,0.0,0.0
13758,78.0,56,66,0.0,0.0
13759,76.0,42,61,0.0,0.0
13760,66.0,31,326,7.0,0.0
13761,74.0,29,65,0.0,0.0
13762,73.0,68,78,0.0,0.0
13763,71.0,77,80,0.0,0.0
13764,70.0,30,92,0.0,0.0
13765,54.0,3,81,0.0,0.0
13766,78.0,3,83,0.0,0.0
13767,46.0,16,86,0.0,0.0
13768,73.0,54,101,0.0,0.0
13769,54.0,1,521,4.0,0.0
13770,64.0,15,328,3.0,0.0
13771,61.0,19,303,7.0,0.0
13772,73.0,2,296,2.0,0.0
13773,46.0,1,297,5.0,0.0
13774,70.0,59,83,0.0,0.0
13775,67.0,65,63,0.0,0.0
13776,66.0,44,61,0.0,0.0
13777,59.0,27,198,0.0,0.0
13778,47.0,15,235,0.0,0.0
13779,54.0,16,251,0.0,0.0
13780,62.0,46,70,0.0,0.0
13781,62.0,12,260,3.0,0.0
13782,71.0,15,1180,14.0,0.0
13783,47.0,68,284,5.0,0.0
13784,71.0,12,199,2.0,0.0
13785,62.0,17,487,7.0,0.0
13786,66.0,73,41,0.0,0.0
13787,74.0,1,79,0.0,0.0
13788,73.0,18,64,0.0,0.0
13789,71.0,36,71,0.0,0.0
13790,74.0,126,39,0.0,0.0
13791,86.0,67,103,0.0,0.0
13792,85.0,53,96,0.0,0.0
13793,50.0,9,321,5.0,0.0
13794,59.0,1,574,3.0,0.0
13795,66.0,15,351,2.0,0.0
13796,54.0,13,325,4.0,0.0
13797,83.0,58,74,0.0,0.0
13798,59.0,18,129,0.0,0.0
13799,54.0,2,158,0.0,0.0
13800,50.0,11,146,0.0,0.0
13801,81.0,65,94,0.0,0.0
13802,80.0,63,84,0.0,0.0
13803,78.0,24,103,0.0,0.0
13804,49.0,46,272,5.0,0.0
13805,80.0,10,77,0.0,0.0
13806,59.0,6,315,0.0,0.0
13807,56.0,22,336,0.0,0.0
13808,49.0,17,358,0.0,0.0
13809,77.0,59,85,0.0,0.0
13810,56.0,14,206,4.0,0.0
13811,65.0,0,177,2.0,0.0
13812,74.0,67,63,0.0,0.0
13813,73.0,37,65,0.0,0.0
13814,71.0,5,42,0.0,0.0
13815,73.0,27,330,14.0,0.0
13816,69.0,70,84,0.0,0.0
13817,68.0,60,91,0.0,0.0
13818,66.0,73,91,0.0,0.0
13819,65.0,36,105,0.0,0.0
13820,41.0,19,268,5.0,0.0
13821,49.0,98,132,0.0,0.0
13822,41.0,15,110,0.0,0.0
13823,73.0,23,291,2.0,0.0
13824,73.0,15,91,0.0,0.0
13825,56.0,2,313,4.0,0.0
13826,41.0,3,310,6.0,0.0
13827,68.0,8,79,0.0,0.0
13828,61.0,18,266,3.0,0.0
13829,68.0,50,298,14.0,0.0
13830,65.0,6,43,0.0,0.0
13831,62.0,28,65,0.0,0.0
13832,61.0,117,148,0.0,0.0
13833,69.0,4,327,2.0,0.0
13834,42.0,56,271,6.0,0.0
13835,42.0,1,327,5.0,0.0
13836,61.0,36,172,3.0,0.0
13837,69.0,1,4816,14.0,0.0
13838,66.0,2,4810,14.0,0.0
13839,57.0,36,187,0.0,0.0
13840,54.0,4,238,4.0,0.0
13841,54.0,6,361,0.0,0.0
13842,42.0,16,364,0.0,0.0
13843,61.0,15,79,0.0,0.0
13844,69.0,59,82,0.0,0.0
13845,68.0,16,91,0.0,0.0
13846,66.0,69,36,0.0,0.0
13847,69.0,83,47,0.0,0.0
13848,81.0,90,73,0.0,0.0
13849,53.0,0,54,0.0,0.0
13850,41.0,18,52,0.0,0.0
13851,80.0,7,93,0.0,0.0
13852,54.0,7,27,0.0,0.0
13853,78.0,65,33,0.0,0.0
13854,42.0,2,23,0.0,0.0
13855,81.0,61,42,0.0,0.0
13856,57.0,13,26,0.0,0.0
13857,93.0,123,76,0.0,0.0
13858,45.0,40,36,0.0,0.0
13859,92.0,104,131,0.0,0.0
13860,69.0,8,250,2.0,0.0
13861,61.0,55,191,3.0,0.0
13862,52.0,70,302,5.0,0.0
13863,57.0,20,229,4.0,0.0
13864,40.0,39,245,6.0,0.0
13865,90.0,35,123,0.0,0.0
13866,52.0,4,358,0.0,0.0
13867,40.0,1,361,0.0,0.0
13868,81.0,1,41,0.0,0.0
13869,81.0,8,79,0.0,0.0
13870,80.0,27,96,0.0,0.0
13871,78.0,36,49,0.0,0.0
13872,69.0,86,33,0.0,0.0
13873,69.0,74,75,0.0,0.0
13874,39.0,33,41,0.0,0.0
13875,51.0,3,38,0.0,0.0
13876,68.0,22,84,0.0,0.0
13877,66.0,66,40,0.0,0.0
13878,52.0,5,33,0.0,0.0
13879,40.0,6,25,0.0,0.0
13880,57.0,107,44,0.0,0.0
13881,57.0,112,102,0.0,0.0
13882,45.0,38,63,0.0,0.0
13883,56.0,90,130,0.0,0.0
13884,81.0,3,2924,12.0,0.0
13885,78.0,5,2916,12.0,0.0
13886,69.0,10,311,2.0,0.0
13887,50.0,15,370,5.0,0.0
13888,38.0,6,295,6.0,0.0
13889,57.0,5,245,4.0,0.0
13890,54.0,54,112,0.0,0.0
13891,66.0,34,218,3.0,0.0
13892,38.0,27,303,0.0,0.0
13893,50.0,27,276,0.0,0.0
13894,57.0,56,50,0.0,0.0
13895,69.0,11,68,0.0,0.0
13896,68.0,2,88,0.0,0.0
13897,66.0,61,37,0.0,0.0
13898,69.0,84,35,0.0,0.0
13899,81.0,92,74,0.0,0.0
13900,49.0,12,41,0.0,0.0
13901,37.0,14,50,0.0,0.0
13902,80.0,7,104,0.0,0.0
13903,50.0,8,29,0.0,0.0
13904,38.0,3,24,0.0,0.0
13905,78.0,53,33,0.0,0.0
13906,79.0,10,20,0.0,0.0
13907,81.0,82,29,0.0,0.0
13908,57.0,19,23,0.0,0.0
13909,45.0,58,39,0.0,0.0
13910,93.0,89,88,0.0,0.0
13911,92.0,91,99,0.0,0.0
13912,57.0,9,953,4.0,0.0
13913,66.0,15,958,3.0,0.0
13914,49.0,72,994,6.0,0.0
13915,69.0,7,1998,2.0,0.0
13916,49.0,2,137,0.0,0.0
13917,37.0,118,138,0.0,0.0
13918,90.0,29,103,0.0,0.0
13919,49.0,39,870,5.0,0.0
13920,81.0,1,34,0.0,0.0
13921,81.0,67,77,0.0,0.0
13922,80.0,34,82,0.0,0.0
13923,49.0,82,143,0.0,0.0
13924,37.0,8,132,0.0,0.0
13925,78.0,47,45,0.0,0.0
13926,69.0,35,28,0.0,0.0
13927,69.0,79,76,0.0,0.0
13928,68.0,33,94,0.0,0.0
13929,49.0,2,139,0.0,0.0
13930,37.0,147,138,0.0,0.0
13931,66.0,52,48,0.0,0.0
13932,57.0,32,23,0.0,0.0
13933,57.0,17,109,0.0,0.0
13934,56.0,27,106,0.0,0.0
13935,54.0,32,1088,4.0,0.0
13936,48.0,95,1350,5.0,0.0
13937,48.0,16,1333,6.0,0.0
13938,63.0,2,1011,3.0,0.0
13939,48.0,62,464,0.0,0.0
13940,54.0,99,96,0.0,0.0
13941,36.0,25,437,0.0,0.0
13942,57.0,96,76,0.0,0.0
13943,63.0,70,79,0.0,0.0
13944,69.0,77,70,0.0,0.0
13945,66.0,0,53,0.0,0.0
13946,69.0,58,66,0.0,0.0
13947,75.0,77,49,0.0,0.0
13948,81.0,53,58,0.0,0.0
13949,63.0,62,71,0.0,0.0
13950,78.0,28,34,0.0,0.0
13951,81.0,72,62,0.0,0.0
13952,87.0,65,59,0.0,0.0
13953,48.0,18,54,0.0,0.0
13954,93.0,29,73,0.0,0.0
13955,67.0,106,2172,2.0,0.0
13956,64.0,28,1013,3.0,0.0
13957,55.0,36,2017,4.0,0.0
13958,76.0,7,1918,12.0,0.0
13959,79.0,61,1924,12.0,0.0
13960,67.0,1,2012,14.0,0.0
13961,64.0,3,2000,14.0,0.0
13962,64.0,74,35,0.0,0.0
13963,91.0,85,104,0.0,0.0
13964,88.0,42,96,0.0,0.0
13965,84.0,26,61,0.0,0.0
13966,79.0,12,30,0.0,0.0
13967,48.0,8,352,5.0,0.0
13968,48.0,34,124,0.0,0.0
13969,76.0,40,81,0.0,0.0
13970,36.0,71,159,0.0,0.0
13971,48.0,23,321,6.0,0.0
13972,72.0,2,49,0.0,0.0
13973,67.0,3,19,0.0,0.0
13974,64.0,76,29,0.0,0.0
13975,47.0,13,28,0.0,0.0
13976,35.0,6,39,0.0,0.0
13977,59.0,61,75,0.0,0.0
13978,47.0,25,316,5.0,0.0
13979,47.0,16,340,6.0,0.0
13980,55.0,36,67,0.0,0.0
13981,52.0,53,44,0.0,0.0
13982,47.0,84,33,0.0,0.0
13983,46.0,23,48,0.0,0.0
13984,34.0,12,36,0.0,0.0
13985,46.0,18,1058,5.0,0.0
13986,46.0,2,1074,6.0,0.0
13987,61.0,0,1060,3.0,0.0
13988,52.0,47,60,0.0,0.0
13989,55.0,83,38,0.0,0.0
13990,64.0,46,60,0.0,0.0
13991,61.0,74,32,0.0,0.0
13992,64.0,57,41,0.0,0.0
13993,67.0,86,28,0.0,0.0
13994,76.0,44,58,0.0,0.0
13995,58.0,4,32,0.0,0.0
13996,73.0,76,32,0.0,0.0
13997,76.0,65,43,0.0,0.0
13998,79.0,98,32,0.0,0.0
13999,88.0,33,77,0.0,0.0
14000,73.0,2,121,0.0,0.0
14001,85.0,78,34,0.0,0.0
14002,88.0,69,49,0.0,0.0
14003,91.0,19,43,0.0,0.0
14004,100.0,5,64,0.0,0.0
14005,97.0,30,88,0.0,0.0
14006,64.0,19,29,2.0,0.0
14007,91.0,57,44,0.0,0.0
14008,88.0,7,31,0.0,0.0
14009,85.0,38,80,0.0,0.0
14010,46.0,7,347,5.0,0.0
14011,55.0,37,382,4.0,0.0
14012,64.0,2,417,3.0,0.0
14013,79.0,57,45,0.0,0.0
14014,46.0,7,179,0.0,0.0
14015,34.0,4,172,0.0,0.0
14016,34.0,31,330,6.0,0.0
14017,76.0,74,37,0.0,0.0
14018,73.0,58,40,0.0,0.0
14019,64.0,83,33,0.0,0.0
14020,35.0,3,98,0.0,0.0
14021,47.0,217,103,0.0,0.0
14022,71.0,5,85,0.0,0.0
14023,54.0,3,962,4.0,0.0
14024,35.0,0,4210,6.0,0.0
14025,47.0,30,4050,5.0,0.0
14026,63.0,8,998,3.0,0.0
14027,71.0,27,829,2.0,0.0
14028,58.0,127,91,0.0,0.0
14029,59.0,85,118,0.0,0.0
14030,63.0,6,111,0.0,0.0
14031,54.0,14,110,0.0,0.0
14032,59.0,22,53,0.0,0.0
14033,51.0,39,69,0.0,0.0
14034,47.0,24,113,0.0,0.0
14035,71.0,69,36,0.0,0.0
14036,59.0,86,83,0.0,0.0
14037,51.0,4,68,0.0,0.0
14038,57.0,11,121,0.0,0.0
14039,66.0,22,92,0.0,0.0
14040,59.0,51,67,0.0,0.0
14041,51.0,1,60,0.0,0.0
14042,47.0,48,72,0.0,0.0
14043,71.0,27,39,0.0,0.0
14044,59.0,18,64,0.0,0.0
14045,51.0,15,73,0.0,0.0
14046,55.0,18,835,4.0,0.0
14047,72.0,13,815,2.0,0.0
14048,62.0,3,55,0.0,0.0
14049,54.0,56,58,0.0,0.0
14050,64.0,7,803,3.0,0.0
14051,52.0,56,55,0.0,0.0
14052,60.0,5,47,0.0,0.0
14053,47.0,45,89,0.0,0.0
14054,72.0,36,43,0.0,0.0
14055,52.0,61,70,0.0,0.0
14056,60.0,4,66,0.0,0.0
14057,55.0,52,73,0.0,0.0
14058,64.0,9,62,0.0,0.0
14059,60.0,15,59,0.0,0.0
14060,52.0,55,70,0.0,0.0
14061,47.0,25,103,0.0,0.0
14062,72.0,42,51,0.0,0.0
14063,60.0,5,65,0.0,0.0
14064,52.0,72,67,0.0,0.0
14065,59.0,1,75,0.0,0.0
14066,67.0,58,75,0.0,0.0
14067,52.0,2,73,0.0,0.0
14068,60.0,47,74,0.0,0.0
14069,47.0,0,179,0.0,0.0
14070,72.0,59,42,0.0,0.0
14071,60.0,18,48,0.0,0.0
14072,52.0,25,64,0.0,0.0
14073,65.0,10,859,3.0,0.0
14074,73.0,21,885,2.0,0.0
14075,62.0,1,45,0.0,0.0
14076,54.0,62,59,0.0,0.0
14077,56.0,7,817,4.0,0.0
14078,53.0,53,89,0.0,0.0
14079,61.0,22,62,0.0,0.0
14080,47.0,22,165,0.0,0.0
14081,73.0,49,62,0.0,0.0
14082,61.0,20,63,0.0,0.0
14083,53.0,32,74,0.0,0.0
14084,56.0,55,67,0.0,0.0
14085,65.0,3,60,0.0,0.0
14086,61.0,18,63,0.0,0.0
14087,53.0,64,77,0.0,0.0
14088,47.0,4,116,0.0,0.0
14089,73.0,47,66,0.0,0.0
14090,61.0,9,65,0.0,0.0
14091,53.0,70,68,0.0,0.0
14092,59.0,3,69,0.0,0.0
14093,68.0,53,68,0.0,0.0
14094,53.0,51,84,0.0,0.0
14095,61.0,19,60,0.0,0.0
14096,47.0,7,175,0.0,0.0
14097,73.0,36,58,0.0,0.0
14098,61.0,24,43,0.0,0.0
14099,53.0,46,60,0.0,0.0
14100,74.0,44,939,2.0,0.0
14101,55.0,4,83,0.0,0.0
14102,66.0,94,1584,3.0,0.0
14103,64.0,20,58,0.0,0.0
14104,57.0,1,1674,4.0,0.0
14105,54.0,37,67,0.0,0.0
14106,62.0,24,41,0.0,0.0
14107,47.0,32,207,0.0,0.0
14108,74.0,66,38,0.0,0.0
14109,62.0,15,55,0.0,0.0
14110,54.0,68,56,0.0,0.0
14111,57.0,16,137,0.0,0.0
14112,66.0,18,60,0.0,0.0
14113,62.0,23,55,0.0,0.0
14114,54.0,28,91,0.0,0.0
14115,74.0,40,43,0.0,0.0
14116,47.0,23,75,0.0,0.0
14117,62.0,25,55,0.0,0.0
14118,54.0,66,60,0.0,0.0
14119,69.0,23,84,0.0,0.0
14120,60.0,17,66,0.0,0.0
14121,54.0,43,80,0.0,0.0
14122,62.0,23,55,0.0,0.0
14123,47.0,117,94,0.0,0.0
14124,74.0,35,49,0.0,0.0
14125,62.0,5,31,0.0,0.0
14126,54.0,15,186,0.0,0.0
14127,47.0,35,91,0.0,0.0
14128,81.0,69,906,12.0,0.0
14129,75.0,11,784,2.0,0.0
14130,75.0,0,903,12.0,0.0
14131,69.0,5,888,14.0,0.0
14132,66.0,3,880,14.0,0.0
14133,57.0,22,96,0.0,0.0
14134,63.0,4,88,0.0,0.0
14135,66.0,56,81,0.0,0.0
14136,69.0,19,68,0.0,0.0
14137,72.0,70,31,0.0,0.0
14138,69.0,3,227,0.0,0.0
14139,66.0,3,229,0.0,0.0
14140,75.0,95,19,0.0,0.0
14141,78.0,80,39,0.0,0.0
14142,81.0,13,67,0.0,0.0
14143,84.0,113,31,0.0,0.0
14144,87.0,53,75,0.0,0.0
14145,90.0,49,57,0.0,0.0
14146,93.0,19,66,0.0,0.0
14147,81.0,2,145,0.0,0.0
14148,96.0,4,133,0.0,0.0
14149,95.0,53,127,0.0,0.0
14150,80.0,22,100,0.0,0.0
14151,94.0,16,79,0.0,0.0
14152,79.0,13,94,0.0,0.0
14153,93.0,13,32,0.0,0.0
14154,78.0,88,41,0.0,0.0
14155,93.0,67,91,0.0,0.0
14156,78.0,22,68,0.0,0.0
14157,92.0,28,110,0.0,0.0
14158,77.0,24,83,0.0,0.0
14159,91.0,10,68,0.0,0.0
14160,76.0,19,72,0.0,0.0
14161,90.0,16,27,0.0,0.0
14162,75.0,78,39,0.0,0.0
14163,90.0,47,87,0.0,0.0
14164,75.0,23,60,0.0,0.0
14165,89.0,48,76,0.0,0.0
14166,74.0,7,67,0.0,0.0
14167,73.0,24,73,0.0,0.0
14168,88.0,9,59,0.0,0.0
14169,87.0,12,28,0.0,0.0
14170,72.0,101,39,0.0,0.0
14171,72.0,8,80,0.0,0.0
14172,87.0,6,88,0.0,0.0
14173,47.0,6,47,5.0,0.0
14174,86.0,48,90,0.0,0.0
14175,71.0,15,74,0.0,0.0
14176,54.0,5,44,4.0,0.0
14177,63.0,12,31,3.0,0.0
14178,35.0,7,43,6.0,0.0
14179,69.0,14,34,2.0,0.0
14180,70.0,23,80,0.0,0.0
14181,85.0,4,69,0.0,0.0
14182,69.0,107,41,0.0,0.0
14183,84.0,6,33,0.0,0.0
14184,69.0,0,91,0.0,0.0
14185,84.0,51,88,0.0,0.0
14186,68.0,22,76,0.0,0.0
14187,83.0,40,93,0.0,0.0
14188,67.0,5,69,0.0,0.0
14189,82.0,24,71,0.0,0.0
14190,66.0,83,48,0.0,0.0
14191,81.0,10,32,0.0,0.0
14192,66.0,17,68,0.0,0.0
14193,81.0,57,83,0.0,0.0
14194,65.0,23,78,0.0,0.0
14195,80.0,27,99,0.0,0.0
14196,79.0,8,62,0.0,0.0
14197,64.0,21,68,0.0,0.0
14198,63.0,83,45,0.0,0.0
14199,78.0,16,28,0.0,0.0
14200,78.0,47,99,0.0,0.0
14201,63.0,27,66,0.0,0.0
14202,77.0,59,83,0.0,0.0
14203,62.0,1,73,0.0,0.0
14204,76.0,11,72,0.0,0.0
14205,61.0,16,81,0.0,0.0
14206,60.0,92,33,0.0,0.0
14207,75.0,2,30,0.0,0.0
14208,60.0,23,70,0.0,0.0
14209,75.0,48,90,0.0,0.0
14210,59.0,16,77,0.0,0.0
14211,74.0,47,91,0.0,0.0
14212,58.0,1,79,0.0,0.0
14213,73.0,22,72,0.0,0.0
14214,57.0,112,44,0.0,0.0
14215,72.0,3,35,0.0,0.0
14216,57.0,51,94,0.0,0.0
14217,72.0,2,90,0.0,0.0
14218,56.0,15,76,0.0,0.0
14219,71.0,44,91,0.0,0.0
14220,55.0,2,68,0.0,0.0
14221,70.0,29,69,0.0,0.0
14222,54.0,69,54,0.0,0.0
14223,69.0,12,34,0.0,0.0
14224,69.0,27,80,0.0,0.0
14225,54.0,25,54,0.0,0.0
14226,68.0,33,97,0.0,0.0
14227,53.0,14,78,0.0,0.0
14228,59.0,4,37,4.0,0.0
14229,66.0,0,39,3.0,0.0
14230,69.0,9,39,2.0,0.0
14231,47.0,19,42,5.0,0.0
14232,35.0,5,33,6.0,0.0
14233,52.0,17,77,0.0,0.0
14234,67.0,12,63,0.0,0.0
14235,51.0,89,80,0.0,0.0
14236,66.0,46,30,0.0,0.0
14237,72.0,1,106,0.0,0.0
14238,57.0,47,106,0.0,0.0
14239,71.0,43,100,0.0,0.0
14240,56.0,19,68,0.0,0.0
14241,70.0,28,72,0.0,0.0
14242,55.0,5,66,0.0,0.0
14243,54.0,89,56,0.0,0.0
14244,69.0,13,34,0.0,0.0
14245,69.0,58,87,0.0,0.0
14246,54.0,9,72,0.0,0.0
14247,68.0,35,100,0.0,0.0
14248,53.0,21,73,0.0,0.0
14249,52.0,26,72,0.0,0.0
14250,67.0,3,64,0.0,0.0
14251,51.0,65,50,0.0,0.0
14252,66.0,17,29,0.0,0.0
14253,66.0,2,86,0.0,0.0
14254,51.0,19,53,0.0,0.0
14255,59.0,12,42,4.0,0.0
14256,63.0,11,27,3.0,0.0
14257,69.0,1,32,2.0,0.0
14258,47.0,29,42,5.0,0.0
14259,50.0,49,71,0.0,0.0
14260,35.0,0,22,6.0,0.0
14261,65.0,4,65,0.0,0.0
14262,49.0,15,91,0.0,0.0
14263,64.0,26,52,0.0,0.0
14264,48.0,95,71,0.0,0.0
14265,63.0,33,29,0.0,0.0
14266,57.0,6,95,0.0,0.0
14267,72.0,46,99,0.0,0.0
14268,71.0,35,102,0.0,0.0
14269,56.0,20,69,0.0,0.0
14270,70.0,25,80,0.0,0.0
14271,55.0,12,60,0.0,0.0
14272,54.0,69,59,0.0,0.0
14273,69.0,13,35,0.0,0.0
14274,69.0,63,85,0.0,0.0
14275,54.0,25,55,0.0,0.0
14276,68.0,36,96,0.0,0.0
14277,53.0,10,80,0.0,0.0
14278,67.0,11,64,0.0,0.0
14279,52.0,15,70,0.0,0.0
14280,66.0,23,27,0.0,0.0
14281,51.0,76,50,0.0,0.0
14282,66.0,4,107,0.0,0.0
14283,51.0,25,58,0.0,0.0
14284,69.0,9,35,2.0,0.0
14285,65.0,32,76,0.0,0.0
14286,47.0,1,42,5.0,0.0
14287,47.0,9,54,1.0,0.0
14288,54.0,2,41,4.0,0.0
14289,59.0,3,58,3.0,0.0
14290,50.0,4,60,0.0,0.0
14291,35.0,10,31,6.0,0.0
14292,49.0,13,96,0.0,0.0
14293,48.0,23,46,1.0,0.0
14294,64.0,20,63,0.0,0.0
14295,47.0,0,44,1.0,0.0
14296,48.0,26,67,0.0,0.0
14297,63.0,8,32,0.0,0.0
14298,48.0,23,29,1.0,0.0
14299,47.0,21,50,1.0,0.0
14300,48.0,50,35,1.0,0.0
14301,57.0,4,129,0.0,0.0
14302,72.0,14,128,0.0,0.0
14303,47.0,18,50,1.0,0.0
14304,48.0,34,30,1.0,0.0
14305,71.0,8,111,0.0,0.0
14306,47.0,26,45,1.0,0.0
14307,56.0,18,90,0.0,0.0
14308,48.0,19,39,1.0,0.0
14309,47.0,27,46,1.0,0.0
14310,70.0,6,84,0.0,0.0
14311,55.0,13,88,0.0,0.0
14312,48.0,19,43,1.0,0.0
14313,54.0,10,57,0.0,0.0
14314,47.0,14,43,1.0,0.0
14315,69.0,4,35,0.0,0.0
14316,48.0,45,37,1.0,0.0
14317,60.0,8,80,0.0,0.0
14318,69.0,40,87,0.0,0.0
14319,47.0,25,46,1.0,0.0
14320,48.0,3,42,1.0,0.0
14321,68.0,30,93,0.0,0.0
14322,59.0,6,81,0.0,0.0
14323,47.0,23,49,1.0,0.0
14324,48.0,1,43,1.0,0.0
14325,58.0,0,90,0.0,0.0
14326,67.0,15,65,0.0,0.0
14327,47.0,11,43,1.0,0.0
14328,48.0,9,40,1.0,0.0
14329,57.0,25,42,0.0,0.0
14330,66.0,14,27,0.0,0.0
14331,47.0,26,45,1.0,0.0
14332,48.0,43,44,1.0,0.0
14333,66.0,1,98,0.0,0.0
14334,57.0,5,97,0.0,0.0
14335,47.0,19,43,1.0,0.0
14336,48.0,43,42,1.0,0.0
14337,65.0,27,86,0.0,0.0
14338,56.0,5,76,0.0,0.0
14339,47.0,1,43,1.0,0.0
14340,55.0,1,74,0.0,0.0
14341,48.0,26,44,1.0,0.0
14342,64.0,12,68,0.0,0.0
14343,47.0,18,40,1.0,0.0
14344,54.0,32,134,0.0,0.0
14345,63.0,11,32,0.0,0.0
14346,48.0,44,40,1.0,0.0
14347,47.0,26,43,1.0,0.0
14348,63.0,5,100,0.0,0.0
14349,48.0,10,43,1.0,0.0
14350,47.0,27,47,1.0,0.0
14351,53.0,18,72,0.0,0.0
14352,62.0,13,90,0.0,0.0
14353,48.0,7,43,1.0,0.0
14354,47.0,31,45,1.0,0.0
14355,52.0,0,82,0.0,0.0
14356,61.0,19,79,0.0,0.0
14357,48.0,10,45,1.0,0.0
14358,47.0,14,49,1.0,0.0
14359,51.0,15,62,0.0,0.0
14360,60.0,13,35,0.0,0.0
14361,48.0,16,47,1.0,0.0
14362,60.0,21,34,0.0,0.0
14363,47.0,11,45,1.0,0.0
14364,51.0,17,55,0.0,0.0
14365,48.0,11,42,1.0,0.0
14366,59.0,10,39,4.0,0.0
14367,59.0,21,38,3.0,0.0
14368,59.0,7,95,0.0,0.0
14369,47.0,3,48,1.0,0.0
14370,50.0,2,72,0.0,0.0
14371,60.0,0,39,3.0,0.0
14372,59.0,23,38,2.0,0.0
14373,60.0,2,35,4.0,0.0
14374,48.0,3,44,1.0,0.0
14375,59.0,7,43,4.0,0.0
14376,59.0,5,40,3.0,0.0
14377,60.0,10,42,2.0,0.0
14378,58.0,4,75,0.0,0.0
14379,49.0,14,87,0.0,0.0
14380,47.0,13,45,1.0,0.0
14381,59.0,10,47,2.0,0.0
14382,60.0,3,60,4.0,0.0
14383,60.0,1,57,3.0,0.0
14384,48.0,8,42,1.0,0.0
14385,59.0,4,57,4.0,0.0
14386,59.0,0,61,3.0,0.0
14387,57.0,5,51,0.0,0.0
14388,60.0,1,54,2.0,0.0
14389,48.0,1,82,0.0,0.0
14390,47.0,31,40,1.0,0.0
14391,59.0,41,66,2.0,0.0
14392,58.0,0,60,4.0,0.0
14393,58.0,3,49,3.0,0.0
14394,48.0,4,42,1.0,0.0
14395,63.0,9,70,0.0,0.0
14396,59.0,12,79,4.0,0.0
14397,58.0,10,69,2.0,0.0
14398,47.0,4,99,0.0,0.0
14399,47.0,7,130,1.0,0.0
14400,59.0,30,79,3.0,0.0
14401,48.0,9,54,1.0,0.0
14402,59.0,26,96,2.0,0.0
14403,52.0,46,166,15.0,0.0
14404,64.0,9,226,0.0,0.0
14405,59.0,20,205,0.0,0.0
14406,40.0,5,133,6.0,0.0
14407,40.0,5,127,0.0,0.0
14408,55.0,3,198,0.0,0.0
14409,59.0,41,79,4.0,0.0
14410,64.0,5,840,7.0,0.0
14411,55.0,7,122,3.0,0.0
14412,52.0,4,115,5.0,0.0
14413,55.0,0,821,14.0,0.0
14414,59.0,3,820,14.0,0.0
14415,64.0,4,400,2.0,0.0
14416,40.0,32,189,1.0,0.0
14417,41.0,5,49,1.0,0.0
14418,41.0,40,39,1.0,0.0
14419,55.0,1,148,15.0,0.0
14420,40.0,28,43,1.0,0.0
14421,43.0,15,113,6.0,0.0
14422,59.0,3,116,4.0,0.0
14423,55.0,18,121,3.0,0.0
14424,41.0,35,39,1.0,0.0
14425,55.0,57,128,5.0,0.0
14426,40.0,13,43,1.0,0.0
14427,41.0,12,42,1.0,0.0
14428,40.0,19,227,1.0,0.0
14429,63.0,17,172,2.0,0.0
14430,41.0,95,63,1.0,0.0
14431,41.0,8,95,1.0,0.0
14432,64.0,11,301,13.0,0.0
14433,55.0,13,112,4.0,0.0
14434,59.0,6,99,3.0,0.0
14435,40.0,17,117,6.0,0.0
14436,52.0,3,89,5.0,0.0
14437,52.0,3,276,15.0,0.0
14438,64.0,7,297,15.0,0.0
14439,64.0,12,138,2.0,0.0
14440,41.0,16,44,1.0,0.0
14441,40.0,6,37,1.0,0.0
14442,41.0,18,39,1.0,0.0
14443,40.0,42,34,1.0,0.0
14444,67.0,12,169,2.0,0.0
14445,41.0,59,41,1.0,0.0
14446,40.0,3,69,1.0,0.0
14447,41.0,10,38,1.0,0.0
14448,47.0,4,44,1.0,0.0
14449,54.0,8,356,14.0,0.0
14450,51.0,22,565,15.0,0.0
14451,71.0,7,1169,13.0,0.0
14452,66.0,18,58,3.0,0.0
14453,63.0,20,606,15.0,0.0
14454,59.0,21,30,3.0,0.0
14455,71.0,8,87,2.0,0.0
14456,54.0,195,105,4.0,0.0
14457,39.0,15,90,6.0,0.0
14458,66.0,19,569,13.0,0.0
14459,51.0,18,62,5.0,0.0
14460,59.0,32,838,7.0,0.0
14461,47.0,34,36,1.0,0.0
14462,66.0,27,91,3.0,0.0
14463,66.0,3,87,4.0,0.0
14464,59.0,14,68,3.0,0.0
14465,51.0,2,80,5.0,0.0
14466,51.0,43,220,11.0,0.0
14467,71.0,8,54,2.0,0.0
14468,66.0,6,300,14.0,0.0
14469,39.0,109,105,6.0,0.0
14470,59.0,15,582,14.0,0.0
14471,71.0,26,107,2.0,0.0
14472,71.0,3,587,12.0,0.0
14473,71.0,4,592,7.0,0.0
14474,50.0,11,70,5.0,0.0
14475,65.0,75,132,4.0,0.0
14476,65.0,26,347,14.0,0.0
14477,68.0,13,83,3.0,0.0
14478,59.0,6,76,3.0,0.0
14479,38.0,7,121,6.0,0.0
14480,47.0,27,38,1.0,0.0
14481,50.0,47,202,11.0,0.0
14482,68.0,31,542,13.0,0.0
14483,50.0,22,242,15.0,0.0
14484,62.0,26,309,15.0,0.0
14485,76.0,13,315,2.0,0.0
14486,76.0,0,308,12.0,0.0
14487,76.0,36,334,8.0,0.0
14488,68.0,4,152,3.0,0.0
14489,59.0,18,153,3.0,0.0
14490,49.0,19,84,5.0,0.0
14491,64.0,7,321,8.0,0.0
14492,64.0,46,100,4.0,0.0
14493,49.0,5,184,11.0,0.0
14494,37.0,13,162,6.0,0.0
14495,40.0,45,179,1.0,0.0
14496,64.0,1,547,7.0,0.0
14497,49.0,3,168,15.0,0.0
14498,61.0,7,557,15.0,0.0
14499,64.0,9,545,14.0,0.0
14500,41.0,22,65,1.0,0.0
14501,40.0,5,68,1.0,0.0
14502,41.0,2,50,1.0,0.0
14503,75.0,8,165,2.0,0.0
14504,52.0,4,82,5.0,0.0
14505,69.0,10,106,3.0,0.0
14506,52.0,4,147,11.0,0.0
14507,40.0,18,119,6.0,0.0
14508,52.0,23,164,15.0,0.0
14509,61.0,20,81,3.0,0.0
14510,75.0,1,162,12.0,0.0
14511,69.0,4,141,13.0,0.0
14512,64.0,6,135,4.0,0.0
14513,57.0,4,97,4.0,0.0
14514,69.0,17,284,12.0,0.0
14515,69.0,8,332,7.0,0.0
14516,40.0,4,42,1.0,0.0
14517,41.0,3,49,1.0,0.0
14518,40.0,5,42,1.0,0.0
14519,76.0,2,152,2.0,0.0
14520,76.0,16,173,12.0,0.0
14521,41.0,31,43,1.0,0.0
14522,40.0,44,40,1.0,0.0
14523,41.0,6,50,1.0,0.0
14524,40.0,11,43,1.0,0.0
14525,78.0,3,239,2.0,0.0
14526,41.0,17,51,1.0,0.0
14527,67.0,11,94,4.0,0.0
14528,36.0,10,143,6.0,0.0
14529,55.0,0,80,4.0,0.0
14530,48.0,12,193,11.0,0.0
14531,70.0,26,151,13.0,0.0
14532,48.0,8,77,5.0,0.0
14533,78.0,18,218,12.0,0.0
14534,70.0,15,93,3.0,0.0
14535,48.0,6,166,15.0,0.0
14536,67.0,3,126,13.0,0.0
14537,64.0,4,73,3.0,0.0
14538,70.0,5,256,12.0,0.0
14539,60.0,5,249,15.0,0.0
14540,67.0,17,221,14.0,0.0
14541,64.0,22,320,7.0,0.0
14542,40.0,8,43,1.0,0.0
14543,41.0,22,51,1.0,0.0
14544,64.0,1,143,14.0,0.0
14545,40.0,0,42,1.0,0.0
14546,41.0,9,50,1.0,0.0
14547,40.0,18,40,1.0,0.0
14548,41.0,43,103,1.0,0.0
14549,76.0,0,43,2.0,0.0
14550,76.0,5,45,12.0,0.0
14551,40.0,28,55,1.0,0.0
14552,76.0,9,320,2.0,0.0
14553,76.0,2,309,12.0,0.0
14554,71.0,0,129,13.0,0.0
14555,67.0,16,177,4.0,0.0
14556,55.0,9,117,4.0,0.0
14557,67.0,23,127,13.0,0.0
14558,35.0,4,151,6.0,0.0
14559,47.0,33,78,5.0,0.0
14560,67.0,44,301,14.0,0.0
14561,71.0,1,118,3.0,0.0
14562,47.0,2,142,15.0,0.0
14563,64.0,2,112,3.0,0.0
14564,47.0,93,177,11.0,0.0
14565,71.0,5,413,12.0,0.0
14566,59.0,7,140,15.0,0.0
14567,64.0,12,263,14.0,0.0
14568,71.0,10,139,7.0,0.0
14569,47.0,2,42,1.0,0.0
14570,59.0,1,114,7.0,0.0
14571,75.0,4,116,2.0,0.0
14572,47.0,1,117,6.0,0.0
14573,71.0,13,101,13.0,0.0
14574,71.0,4,74,3.0,0.0
14575,59.0,5,66,4.0,0.0
14576,59.0,3,93,5.0,0.0
14577,59.0,221,165,11.0,0.0
14578,66.0,0,69,3.0,0.0
14579,75.0,5,87,12.0,0.0
14580,66.0,4,73,13.0,0.0
14581,66.0,10,113,14.0,0.0
14582,66.0,6,79,4.0,0.0
14583,47.0,15,44,1.0,0.0
14584,59.0,2,100,15.0,0.0
14585,47.0,3,101,15.0,0.0
14586,71.0,32,120,7.0,0.0
14587,59.0,3,101,7.0,0.0
14588,83.0,16,235,2.0,0.0
14589,66.0,0,263,4.0,0.0
14590,59.0,15,162,4.0,0.0
14591,83.0,1,227,12.0,0.0
14592,71.0,0,413,14.0,0.0
14593,51.0,4,292,6.0,0.0
14594,51.0,4,297,15.0,0.0
14595,71.0,11,222,3.0,0.0
14596,66.0,15,184,3.0,0.0
14597,66.0,10,245,14.0,0.0
14598,63.0,3,270,15.0,0.0
14599,78.0,12,270,12.0,0.0
14600,63.0,9,251,5.0,0.0
14601,47.0,35,84,1.0,0.0
14602,63.0,7,248,11.0,0.0
14603,78.0,5,273,13.0,0.0
14604,66.0,0,276,7.0,0.0
14605,71.0,315,428,13.0,0.0
14606,59.0,4,272,7.0,0.0
14607,48.0,18,57,1.0,0.0
14608,47.0,20,28,1.0,0.0
14609,48.0,5,40,1.0,0.0
14610,81.0,1,99,2.0,0.0
14611,47.0,13,39,1.0,0.0
14612,48.0,2,86,1.0,0.0
14613,81.0,0,85,12.0,0.0
14614,47.0,68,55,1.0,0.0
14615,79.0,0,118,2.0,0.0
14616,71.0,8,104,3.0,0.0
14617,67.0,1,117,3.0,0.0
14618,64.0,7,106,4.0,0.0
14619,67.0,4,152,14.0,0.0
14620,64.0,4,115,5.0,0.0
14621,52.0,10,141,6.0,0.0
14622,64.0,3,111,15.0,0.0
14623,52.0,3,122,15.0,0.0
14624,64.0,8,146,11.0,0.0
14625,64.0,7,136,7.0,0.0
14626,79.0,7,149,13.0,0.0
14627,79.0,2,91,12.0,0.0
14628,76.0,8,92,12.0,0.0
14629,40.0,8,85,1.0,0.0
14630,75.0,11,291,3.0,0.0
14631,79.0,8,245,2.0,0.0
14632,47.0,0,283,6.0,0.0
14633,69.0,1,290,4.0,0.0
14634,79.0,11,193,12.0,0.0
14635,59.0,10,272,5.0,0.0
14636,59.0,11,245,11.0,0.0
14637,66.0,26,322,7.0,0.0
14638,69.0,10,281,14.0,0.0
14639,75.0,0,319,13.0,0.0
14640,75.0,2,228,12.0,0.0
14641,66.0,10,229,14.0,0.0
14642,47.0,0,288,15.0,0.0
14643,69.0,28,189,13.0,0.0
14644,59.0,25,290,7.0,0.0
14645,59.0,2,286,15.0,0.0
14646,47.0,4,238,1.0,0.0
14647,78.0,3,73,2.0,0.0
14648,78.0,1,86,12.0,0.0
14649,76.0,3,141,2.0,0.0
14650,76.0,9,127,3.0,0.0
14651,60.0,13,136,5.0,0.0
14652,48.0,2,128,6.0,0.0
14653,67.0,3,136,14.0,0.0
14654,76.0,6,99,13.0,0.0
14655,60.0,0,131,11.0,0.0
14656,67.0,4,134,4.0,0.0
14657,64.0,1,127,14.0,0.0
14658,76.0,4,87,12.0,0.0
14659,48.0,20,144,15.0,0.0
14660,67.0,3,163,13.0,0.0
14661,60.0,12,127,15.0,0.0
14662,48.0,32,38,1.0,0.0
14663,64.0,209,148,7.0,0.0
14664,76.0,4,236,2.0,0.0
14665,56.0,2,283,5.0,0.0
14666,44.0,12,270,6.0,0.0
14667,65.0,5,290,4.0,0.0
14668,71.0,2,308,13.0,0.0
14669,76.0,7,219,12.0,0.0
14670,71.0,5,293,3.0,0.0
14671,65.0,1,311,13.0,0.0
14672,56.0,0,308,11.0,0.0
14673,64.0,9,315,10.0,0.0
14674,71.0,2,284,12.0,0.0
14675,44.0,3,274,15.0,0.0
14676,65.0,17,322,14.0,0.0
14677,56.0,15,232,15.0,0.0
14678,62.0,9,194,14.0,0.0
14679,71.0,3,298,7.0,0.0
14680,40.0,45,79,1.0,0.0
14681,59.0,5,257,7.0,0.0
14682,41.0,44,49,1.0,0.0
14683,40.0,19,42,1.0,0.0
14684,41.0,17,43,1.0,0.0
14685,74.0,9,92,2.0,0.0
14686,40.0,6,37,1.0,0.0
14687,74.0,4,83,12.0,0.0
14688,41.0,1,35,1.0,0.0
14689,45.0,16,186,6.0,0.0
14690,72.0,34,329,2.0,0.0
14691,69.0,8,173,3.0,0.0
14692,57.0,9,133,5.0,0.0
14693,64.0,5,142,4.0,0.0
14694,45.0,14,144,15.0,0.0
14695,40.0,4,28,1.0,0.0
14696,57.0,1,130,15.0,0.0
14697,72.0,66,175,13.0,0.0
14698,57.0,62,240,11.0,0.0
14699,65.0,202,334,10.0,0.0
14700,64.0,6,141,14.0,0.0
14701,64.0,0,139,7.0,0.0
14702,60.0,19,86,14.0,0.0
14703,64.0,5,590,13.0,0.0
14704,72.0,1,112,12.0,0.0
14705,69.0,2,102,12.0,0.0
14706,41.0,41,24,1.0,0.0
14707,40.0,3,42,1.0,0.0
14708,71.0,7,604,2.0,0.0
14709,40.0,0,318,6.0,0.0
14710,67.0,5,308,13.0,0.0
14711,52.0,4,324,15.0,0.0
14712,64.0,30,257,4.0,0.0
14713,52.0,4,305,5.0,0.0
14714,71.0,95,447,12.0,0.0
14715,67.0,11,284,3.0,0.0
14716,64.0,1,305,14.0,0.0
14717,40.0,6,316,15.0,0.0
14718,59.0,17,1108,14.0,0.0
14719,52.0,0,279,7.0,0.0
14720,67.0,4,277,12.0,0.0
14721,64.0,92,312,7.0,0.0
14722,64.0,7,278,10.0,0.0
14723,66.0,28,266,3.0,0.0
14724,66.0,10,297,13.0,0.0
14725,39.0,2,331,6.0,0.0
14726,51.0,0,306,5.0,0.0
14727,66.0,5,292,14.0,0.0
14728,66.0,17,296,7.0,0.0
14729,51.0,5,314,15.0,0.0
14730,59.0,4,267,7.0,0.0
14731,59.0,23,117,4.0,0.0
14732,39.0,93,313,15.0,0.0
14733,72.0,133,181,2.0,0.0
14734,67.0,9,908,14.0,0.0
14735,67.0,70,928,13.0,0.0
14736,52.0,6,286,5.0,0.0
14737,67.0,69,340,3.0,0.0
14738,64.0,1,877,7.0,0.0
14739,64.0,7,906,13.0,0.0
14740,40.0,27,308,6.0,0.0
14741,40.0,2,303,15.0,0.0
14742,52.0,3,276,15.0,0.0
14743,59.0,35,92,4.0,0.0
14744,71.0,22,173,2.0,0.0
14745,67.0,22,229,2.0,0.0
14746,55.0,51,244,5.0,0.0
14747,55.0,7,294,15.0,0.0
14748,43.0,272,307,6.0,0.0
14749,43.0,7,290,15.0,0.0
14750,64.0,4,599,3.0,0.0
14751,59.0,87,92,4.0,0.0
14752,64.0,1,85,2.0,0.0
14753,67.0,3,304,2.0,0.0
14754,58.0,1,301,5.0,0.0
14755,46.0,6,308,6.0,0.0
14756,46.0,1,332,15.0,0.0
14757,58.0,2,296,15.0,0.0
14758,61.0,2,287,4.0,0.0
14759,61.0,7,278,14.0,0.0
14760,66.0,31,127,2.0,0.0
14761,59.0,3,191,5.0,0.0
14762,47.0,1,179,6.0,0.0
14763,59.0,1,590,15.0,0.0
14764,47.0,16,130,15.0,0.0
14765,63.0,7,171,4.0,0.0
14766,66.0,16,150,14.0,0.0
14767,63.0,79,182,3.0,0.0
14768,63.0,8,172,14.0,0.0
14769,66.0,55,292,7.0,0.0
14770,66.0,6,133,13.0,0.0
14771,59.0,34,251,7.0,0.0
14772,63.0,3,127,13.0,0.0
14773,52.0,15,260,15.0,0.0
14774,68.0,47,93,2.0,0.0
14775,64.0,14,68,10.0,0.0
14776,52.0,1,63,10.0,0.0
14777,62.0,6,292,14.0,0.0
14778,64.0,4,229,4.0,0.0
14779,59.0,2,244,4.0,0.0
14780,68.0,10,292,14.0,0.0
14781,52.0,1,130,5.0,0.0
14782,52.0,3,151,11.0,0.0
14783,62.0,0,319,3.0,0.0
14784,40.0,0,211,6.0,0.0
14785,68.0,7,320,13.0,0.0
14786,64.0,1,100,7.0,0.0
14787,62.0,20,289,13.0,0.0
14788,40.0,11,98,1.0,0.0
14789,69.0,26,61,2.0,0.0
14790,41.0,8,60,1.0,0.0
14791,68.0,38,48,2.0,0.0
14792,40.0,14,47,1.0,0.0
14793,69.0,5,56,2.0,0.0
14794,41.0,11,45,1.0,0.0
14795,68.0,26,51,2.0,0.0
14796,40.0,2,37,1.0,0.0
14797,66.0,6,50,2.0,0.0
14798,45.0,1,154,15.0,0.0
14799,45.0,1,134,5.0,0.0
14800,41.0,5,47,1.0,0.0
14801,64.0,4,134,4.0,0.0
14802,69.0,23,321,14.0,0.0
14803,57.0,12,136,4.0,0.0
14804,60.0,23,614,14.0,0.0
14805,45.0,29,147,11.0,0.0
14806,69.0,28,532,13.0,0.0
14807,68.0,17,50,2.0,0.0
14808,57.0,35,220,15.0,0.0
14809,64.0,0,1752,7.0,0.0
14810,33.0,28,174,6.0,0.0
14811,64.0,6,201,10.0,0.0
14812,60.0,3,329,13.0,0.0
14813,52.0,3,208,10.0,0.0
14814,60.0,4,204,3.0,0.0
14815,40.0,43,45,1.0,0.0
14816,69.0,31,469,2.0,0.0
14817,52.0,22,1734,7.0,0.0
14818,41.0,15,46,1.0,0.0
14819,40.0,2,43,1.0,0.0
14820,41.0,5,28,1.0,0.0
14821,40.0,3,38,1.0,0.0
14822,41.0,51,42,1.0,0.0
14823,40.0,5,45,1.0,0.0
14824,48.0,3,159,15.0,0.0
14825,48.0,14,100,5.0,0.0
14826,57.0,8,111,4.0,0.0
14827,60.0,2,151,15.0,0.0
14828,41.0,45,43,1.0,0.0
14829,48.0,2,150,11.0,0.0
14830,64.0,5,595,14.0,0.0
14831,64.0,1,92,3.0,0.0
14832,36.0,31,141,6.0,0.0
14833,40.0,8,49,1.0,0.0
14834,41.0,32,46,1.0,0.0
14835,40.0,3,36,1.0,0.0
14836,41.0,5,42,1.0,0.0
14837,68.0,3,140,2.0,0.0
14838,40.0,6,38,1.0,0.0
14839,41.0,32,39,1.0,0.0
14840,40.0,16,34,1.0,0.0
14841,45.0,17,110,5.0,0.0
14842,45.0,4,131,15.0,0.0
14843,60.0,0,24,4.0,0.0
14844,64.0,3,129,3.0,0.0
14845,41.0,27,44,1.0,0.0
14846,45.0,9,133,11.0,0.0
14847,57.0,9,114,15.0,0.0
14848,69.0,24,242,13.0,0.0
14849,33.0,0,131,6.0,0.0
14850,69.0,3,117,2.0,0.0
14851,40.0,23,37,1.0,0.0
14852,41.0,4,39,1.0,0.0
14853,40.0,33,43,1.0,0.0
14854,72.0,33,133,2.0,0.0
14855,41.0,31,35,1.0,0.0
14856,40.0,39,49,1.0,0.0
14857,41.0,3,42,1.0,0.0
14858,40.0,8,100,1.0,0.0
14859,41.0,23,37,1.0,0.0
14860,76.0,17,64,2.0,0.0
14861,44.0,39,81,5.0,0.0
14862,71.0,29,555,14.0,0.0
14863,32.0,67,147,6.0,0.0
14864,44.0,92,210,11.0,0.0
14865,76.0,12,1129,13.0,0.0
14866,59.0,30,106,4.0,0.0
14867,59.0,54,310,14.0,0.0
14868,64.0,6,131,3.0,0.0
14869,71.0,46,577,13.0,0.0
14870,56.0,20,515,15.0,0.0
14871,44.0,5,556,15.0,0.0
14872,40.0,10,41,1.0,0.0
14873,76.0,23,110,2.0,0.0
14874,44.0,11,89,5.0,0.0
14875,64.0,10,129,4.0,0.0
14876,71.0,10,117,3.0,0.0
14877,64.0,5,852,14.0,0.0
14878,64.0,7,105,3.0,0.0
14879,44.0,84,148,11.0,0.0
14880,32.0,20,126,6.0,0.0
14881,43.0,2,129,5.0,0.0
14882,76.0,1,128,2.0,0.0
14883,70.0,25,127,3.0,0.0
14884,70.0,39,248,14.0,0.0
14885,64.0,0,114,3.0,0.0
14886,61.0,6,110,4.0,0.0
14887,73.0,19,281,13.0,0.0
14888,31.0,28,147,6.0,0.0
14889,43.0,9,133,11.0,0.0
14890,76.0,1,169,12.0,0.0
14891,55.0,51,178,15.0,0.0
14892,40.0,51,40,1.0,0.0
14893,64.0,13,161,8.0,0.0
14894,43.0,4,282,15.0,0.0
14895,58.0,63,306,10.0,0.0
14896,81.0,5,275,2.0,0.0
14897,42.0,24,150,5.0,0.0
14898,69.0,5,121,3.0,0.0
14899,69.0,3,549,7.0,0.0
14900,64.0,16,119,3.0,0.0
14901,69.0,18,832,14.0,0.0
14902,81.0,14,306,12.0,0.0
14903,60.0,5,130,4.0,0.0
14904,42.0,6,103,15.0,0.0
14905,76.0,31,217,12.0,0.0
14906,30.0,5,245,6.0,0.0
14907,54.0,6,92,15.0,0.0
14908,72.0,0,539,13.0,0.0
14909,42.0,22,171,11.0,0.0
14910,60.0,1,290,8.0,0.0
14911,72.0,1,536,8.0,0.0
14912,57.0,4,441,10.0,0.0
14913,48.0,19,118,1.0,0.0
14914,64.0,11,276,10.0,0.0
14915,50.0,18,38,1.0,0.0
14916,48.0,3,52,1.0,0.0
14917,50.0,23,31,1.0,0.0
14918,80.0,16,173,2.0,0.0
14919,75.0,8,176,12.0,0.0
14920,63.0,2,143,3.0,0.0
14921,69.0,4,143,3.0,0.0
14922,80.0,6,180,12.0,0.0
14923,42.0,4,97,15.0,0.0
14924,54.0,6,91,15.0,0.0
14925,48.0,25,48,1.0,0.0
14926,63.0,4,296,14.0,0.0
14927,54.0,13,98,5.0,0.0
14928,60.0,0,13,4.0,0.0
14929,63.0,29,213,10.0,0.0
14930,75.0,17,269,13.0,0.0
14931,54.0,4,147,11.0,0.0
14932,48.0,1,86,4.0,0.0
14933,42.0,3,118,6.0,0.0
14934,50.0,17,37,1.0,0.0
14935,48.0,19,43,1.0,0.0
14936,50.0,2,34,1.0,0.0
14937,81.0,7,152,2.0,0.0
14938,48.0,14,48,1.0,0.0
14939,54.0,6,25,5.0,0.0
14940,81.0,15,154,12.0,0.0
14941,50.0,22,39,1.0,0.0
14942,48.0,8,48,1.0,0.0
14943,50.0,9,43,1.0,0.0
14944,83.0,2,168,2.0,0.0
14945,48.0,21,46,1.0,0.0
14946,52.0,2,173,5.0,0.0
14947,52.0,3,106,15.0,0.0
14948,83.0,15,170,12.0,0.0
14949,40.0,2,103,15.0,0.0
14950,64.0,21,310,14.0,0.0
14951,76.0,8,300,13.0,0.0
14952,40.0,10,288,6.0,0.0
14953,52.0,4,149,11.0,0.0
14954,76.0,7,135,12.0,0.0
14955,69.0,2,115,3.0,0.0
14956,72.0,14,273,13.0,0.0
14957,64.0,18,114,3.0,0.0
14958,50.0,41,42,1.0,0.0
14959,60.0,0,127,8.0,0.0
14960,48.0,1,78,4.0,0.0
14961,72.0,7,133,8.0,0.0
14962,69.0,4,240,7.0,0.0
14963,60.0,9,85,4.0,0.0
14964,64.0,11,175,7.0,0.0
14965,48.0,7,46,1.0,0.0
14966,50.0,4,39,1.0,0.0
14967,84.0,12,124,2.0,0.0
14968,48.0,7,46,1.0,0.0
14969,84.0,7,119,12.0,0.0
14970,50.0,13,43,1.0,0.0
14971,48.0,26,41,1.0,0.0
14972,50.0,6,50,1.0,0.0
14973,84.0,21,308,2.0,0.0
14974,48.0,24,92,1.0,0.0
14975,51.0,12,216,5.0,0.0
14976,39.0,0,312,6.0,0.0
14977,69.0,4,294,3.0,0.0
14978,66.0,6,321,3.0,0.0
14979,51.0,7,127,15.0,0.0
14980,39.0,50,203,15.0,0.0
14981,66.0,1,312,14.0,0.0
14982,84.0,6,306,12.0,0.0
14983,78.0,10,287,12.0,0.0
14984,69.0,1,313,14.0,0.0
14985,57.0,3,290,4.0,0.0
14986,72.0,57,121,8.0,0.0
14987,60.0,4,109,8.0,0.0
14988,78.0,14,445,13.0,0.0
14989,69.0,3,299,7.0,0.0
14990,72.0,4,285,13.0,0.0
14991,66.0,24,304,7.0,0.0
14992,51.0,14,227,11.0,0.0
14993,47.0,47,49,1.0,0.0
14994,83.0,8,164,2.0,0.0
14995,63.0,39,104,5.0,0.0
14996,71.0,19,207,7.0,0.0
14997,83.0,1,164,12.0,0.0
14998,59.0,18,221,4.0,0.0
14999,51.0,14,117,6.0,0.0
15000,71.0,7,147,13.0,0.0
15001,59.0,25,170,7.0,0.0
15002,63.0,7,134,15.0,0.0
15003,51.0,6,142,15.0,0.0
15004,47.0,17,37,1.0,0.0
15005,63.0,10,115,11.0,0.0
15006,81.0,35,165,2.0,0.0
15007,81.0,90,144,12.0,0.0
15008,79.0,52,151,2.0,0.0
15009,79.0,92,154,12.0,0.0
15010,78.0,23,171,2.0,0.0
15011,78.0,86,151,12.0,0.0
15012,79.0,42,168,2.0,0.0
15013,64.0,6,190,5.0,0.0
15014,67.0,10,230,14.0,0.0
15015,52.0,6,186,6.0,0.0
15016,73.0,4,237,14.0,0.0
15017,79.0,14,172,13.0,0.0
15018,58.0,366,254,10.0,0.0
15019,58.0,3,204,4.0,0.0
15020,76.0,5,187,8.0,0.0
15021,73.0,11,139,12.0,0.0
15022,70.0,1,149,13.0,0.0
15023,67.0,5,245,10.0,0.0
15024,64.0,7,189,8.0,0.0
15025,79.0,1,155,12.0,0.0
15026,52.0,8,210,7.0,0.0
15027,52.0,3,173,15.0,0.0
15028,67.0,6,143,3.0,0.0
15029,73.0,2,186,3.0,0.0
15030,64.0,2,212,7.0,0.0
15031,40.0,29,49,1.0,0.0
15032,64.0,2,177,15.0,0.0
15033,64.0,18,201,11.0,0.0
15034,79.0,237,176,12.0,0.0
15035,76.0,65,252,12.0,0.0
15036,73.0,300,101,12.0,0.0
15037,71.0,131,326,12.0,0.0
15038,76.0,21,1185,3.0,0.0
15039,61.0,21,1191,2.0,0.0
15040,67.0,42,1209,4.0,0.0
15041,70.0,208,151,12.0,0.0
15042,67.0,206,214,15.0,0.0
15043,64.0,72,266,15.0,0.0
15044,61.0,245,120,15.0,0.0
15045,59.0,119,377,15.0,0.0
15046,58.0,95,199,15.0,0.0
15047,67.0,13,150,2.0,0.0
15048,55.0,193,156,5.0,0.0
15049,52.0,5,208,5.0,0.0
15050,64.0,84,213,2.0,0.0
15051,61.0,1,90,2.0,0.0
15052,49.0,69,85,5.0,0.0
15053,47.0,16,97,5.0,0.0
15054,59.0,240,101,2.0,0.0
15055,46.0,3,87,5.0,0.0
15056,79.0,2,76,2.0,0.0
15057,64.0,7,94,7.0,0.0
15058,46.0,1,90,11.0,0.0
15059,61.0,9,61,14.0,0.0
15060,79.0,6,79,12.0,0.0
15061,64.0,1,73,14.0,0.0
15062,76.0,3,70,12.0,0.0
15063,34.0,0,91,6.0,0.0
15064,73.0,2,89,3.0,0.0
15065,40.0,8,44,1.0,0.0
15066,61.0,2,76,4.0,0.0
15067,67.0,1,67,13.0,0.0
15068,73.0,1,86,13.0,0.0
15069,46.0,244,86,15.0,0.0
15070,58.0,2,80,15.0,0.0
15071,66.0,4,103,7.0,0.0
15072,78.0,5,96,2.0,0.0
15073,45.0,1,88,5.0,0.0
15074,66.0,8,96,14.0,0.0
15075,63.0,3,82,14.0,0.0
15076,45.0,7,105,11.0,0.0
15077,72.0,6,110,13.0,0.0
15078,33.0,2,76,6.0,0.0
15079,45.0,238,114,15.0,0.0
15080,72.0,1,73,3.0,0.0
15081,48.0,14,47,1.0,0.0
15082,75.0,0,94,12.0,0.0
15083,78.0,3,90,12.0,0.0
15084,63.0,6,57,4.0,0.0
15085,57.0,5,101,15.0,0.0
15086,85.0,6,129,2.0,0.0
15087,76.0,2,230,8.0,0.0
15088,64.0,430,230,8.0,0.0
15089,76.0,7,108,12.0,0.0
15090,43.0,1,106,5.0,0.0
15091,31.0,18,87,6.0,0.0
15092,79.0,6,118,12.0,0.0
15093,67.0,10,123,14.0,0.0
15094,70.0,1,132,3.0,0.0
15095,64.0,1,101,14.0,0.0
15096,58.0,6,161,10.0,0.0
15097,55.0,4,106,4.0,0.0
15098,43.0,3,150,11.0,0.0
15099,73.0,3,146,13.0,0.0
15100,64.0,5,151,7.0,0.0
15101,43.0,1,119,15.0,0.0
15102,67.0,2,158,10.0,0.0
15103,40.0,21,43,1.0,0.0
15104,70.0,18,120,13.0,0.0
15105,52.0,1,133,7.0,0.0
15106,55.0,43,144,15.0,0.0
15107,64.0,2,99,4.0,0.0
15108,91.0,18,175,12.0,0.0
15109,79.0,207,189,12.0,0.0
15110,76.0,0,233,12.0,0.0
15111,88.0,81,230,12.0,0.0
15112,85.0,334,106,12.0,0.0
15113,73.0,12,77,12.0,0.0
15114,83.0,17,356,12.0,0.0
15115,71.0,134,364,12.0,0.0
15116,67.0,78,1321,4.0,0.0
15117,61.0,58,1221,2.0,0.0
15118,76.0,20,1269,3.0,0.0
15119,70.0,2,196,12.0,0.0
15120,82.0,167,196,12.0,0.0
15121,79.0,193,243,14.0,0.0
15122,67.0,28,210,15.0,0.0
15123,76.0,53,290,14.0,0.0
15124,64.0,26,263,15.0,0.0
15125,61.0,10,108,15.0,0.0
15126,73.0,261,113,14.0,0.0
15127,59.0,4,380,15.0,0.0
15128,71.0,16,378,14.0,0.0
15129,58.0,73,281,15.0,0.0
15130,70.0,99,162,14.0,0.0
15131,67.0,5,181,2.0,0.0
15132,55.0,170,177,5.0,0.0
15133,52.0,63,229,5.0,0.0
15134,64.0,30,196,2.0,0.0
15135,61.0,24,79,2.0,0.0
15136,49.0,81,95,5.0,0.0
15137,47.0,245,116,5.0,0.0
15138,59.0,7,108,2.0,0.0
15139,79.0,0,101,2.0,0.0
15140,73.0,0,95,3.0,0.0
15141,46.0,0,104,5.0,0.0
15142,73.0,5,93,13.0,0.0
15143,61.0,4,97,14.0,0.0
15144,67.0,19,59,13.0,0.0
15145,64.0,5,109,7.0,0.0
15146,64.0,1,97,14.0,0.0
15147,46.0,0,95,6.0,0.0
15148,61.0,1,87,4.0,0.0
15149,79.0,4,78,12.0,0.0
15150,58.0,6,92,15.0,0.0
15151,40.0,5,69,1.0,0.0
15152,76.0,2,74,12.0,0.0
15153,46.0,4,93,15.0,0.0
15154,58.0,249,100,11.0,0.0
15155,78.0,9,103,12.0,0.0
15156,75.0,0,91,12.0,0.0
15157,45.0,0,113,5.0,0.0
15158,78.0,2,85,2.0,0.0
15159,72.0,2,111,3.0,0.0
15160,66.0,5,104,14.0,0.0
15161,66.0,1,90,7.0,0.0
15162,63.0,5,82,14.0,0.0
15163,63.0,7,117,4.0,0.0
15164,57.0,0,124,11.0,0.0
15165,45.0,1,95,6.0,0.0
15166,72.0,10,102,13.0,0.0
15167,57.0,246,116,15.0,0.0
15168,45.0,2,103,15.0,0.0
15169,48.0,3,71,1.0,0.0
15170,76.0,2,99,2.0,0.0
15171,64.0,1,107,4.0,0.0
15172,61.0,3,94,4.0,0.0
15173,55.0,213,129,15.0,0.0
15174,43.0,11,108,5.0,0.0
15175,76.0,2,104,12.0,0.0
15176,70.0,2,95,14.0,0.0
15177,70.0,3,84,13.0,0.0
15178,43.0,2,96,6.0,0.0
15179,43.0,2,94,15.0,0.0
15180,64.0,0,86,14.0,0.0
15181,55.0,9,111,11.0,0.0
15182,70.0,2,76,3.0,0.0
15183,40.0,7,69,1.0,0.0
15184,64.0,3,83,7.0,0.0
15185,85.0,2,104,2.0,0.0
15186,64.0,10,89,7.0,0.0
15187,85.0,1,81,12.0,0.0
15188,64.0,1,99,4.0,0.0
15189,76.0,14,63,12.0,0.0
15190,61.0,5,79,4.0,0.0
15191,73.0,2,73,13.0,0.0
15192,42.0,1,90,5.0,0.0
15193,42.0,0,91,6.0,0.0
15194,70.0,10,44,13.0,0.0
15195,70.0,0,85,14.0,0.0
15196,54.0,5,87,15.0,0.0
15197,54.0,0,91,11.0,0.0
15198,42.0,253,91,15.0,0.0
15199,70.0,0,81,3.0,0.0
15200,64.0,1,88,14.0,0.0
15201,82.0,7,122,2.0,0.0
15202,64.0,8,94,4.0,0.0
15203,61.0,0,78,4.0,0.0
15204,76.0,0,94,3.0,0.0
15205,66.0,0,139,7.0,0.0
15206,82.0,12,108,12.0,0.0
15207,66.0,8,116,15.0,0.0
15208,54.0,6,90,5.0,0.0
15209,54.0,1,95,15.0,0.0
15210,42.0,2,87,6.0,0.0
15211,64.0,10,123,7.0,0.0
15212,76.0,8,78,12.0,0.0
15213,73.0,70,553,14.0,0.0
15214,54.0,232,125,11.0,0.0
15215,70.0,34,428,13.0,0.0
15216,64.0,33,506,14.0,0.0
15217,73.0,14,39,13.0,0.0
15218,90.0,3,112,2.0,0.0
15219,90.0,4,104,12.0,0.0
15220,82.0,2,99,3.0,0.0
15221,54.0,3,88,5.0,0.0
15222,64.0,3,94,4.0,0.0
15223,61.0,1,84,4.0,0.0
15224,82.0,3,87,12.0,0.0
15225,66.0,38,626,7.0,0.0
15226,42.0,19,89,6.0,0.0
15227,76.0,18,120,13.0,0.0
15228,54.0,11,103,11.0,0.0
15229,66.0,0,114,15.0,0.0
15230,64.0,52,165,7.0,0.0
15231,54.0,5,97,15.0,0.0
15232,87.0,14,91,2.0,0.0
15233,81.0,20,57,3.0,0.0
15234,69.0,2,97,4.0,0.0
15235,47.0,7,106,6.0,0.0
15236,66.0,4,90,4.0,0.0
15237,87.0,3,99,12.0,0.0
15238,59.0,97,124,15.0,0.0
15239,81.0,0,87,12.0,0.0
15240,66.0,3,77,14.0,0.0
15241,69.0,3,99,13.0,0.0
15242,75.0,5,83,14.0,0.0
15243,47.0,3,110,15.0,0.0
15244,59.0,10,98,5.0,0.0
15245,59.0,1,108,11.0,0.0
15246,78.0,1,84,13.0,0.0
15247,47.0,7,60,1.0,0.0
15248,59.0,111,185,7.0,0.0
15249,88.0,1,105,2.0,0.0
15250,64.0,11,88,4.0,0.0
15251,79.0,3,98,3.0,0.0
15252,88.0,12,122,12.0,0.0
15253,79.0,1,118,12.0,0.0
15254,67.0,2,113,13.0,0.0
15255,76.0,1,116,13.0,0.0
15256,76.0,1,110,14.0,0.0
15257,48.0,28,48,1.0,0.0
15258,64.0,1,110,14.0,0.0
15259,64.0,403,171,7.0,0.0
15260,48.0,16,85,6.0,0.0
15261,60.0,11,111,5.0,0.0
15262,48.0,6,119,15.0,0.0
15263,60.0,7,122,15.0,0.0
15264,72.0,5,118,8.0,0.0
15265,60.0,1,103,8.0,0.0
15266,60.0,1,121,11.0,0.0
15267,64.0,17,121,10.0,0.0
15268,55.0,2,114,10.0,0.0
15269,78.0,52,396,14.0,0.0
15270,72.0,8,1981,14.0,0.0
15271,66.0,7,735,3.0,0.0
15272,76.0,11,760,13.0,0.0
15273,84.0,13,652,2.0,0.0
15274,76.0,20,734,3.0,0.0
15275,48.0,62,165,1.0,0.0
15276,66.0,1,755,13.0,0.0
15277,69.0,5,759,4.0,0.0
15278,64.0,9,761,4.0,0.0
15279,57.0,2,737,5.0,0.0
15280,57.0,0,664,15.0,0.0
15281,84.0,341,1961,12.0,0.0
15282,45.0,0,735,6.0,0.0
15283,69.0,4,678,7.0,0.0
15284,45.0,19,654,15.0,0.0
15285,81.0,20,577,12.0,0.0
15286,66.0,0,650,7.0,0.0
15287,57.0,11,628,11.0,0.0
15288,64.0,4,632,10.0,0.0
15289,52.0,2,629,10.0,0.0
15290,72.0,1,628,8.0,0.0
15291,60.0,30,215,8.0,0.0
15292,50.0,51,67,1.0,0.0
15293,48.0,51,76,1.0,0.0
15294,50.0,8,49,1.0,0.0
15295,48.0,41,64,1.0,0.0
15296,50.0,50,36,1.0,0.0
15297,48.0,34,55,1.0,0.0
15298,50.0,44,38,1.0,0.0
15299,48.0,18,48,1.0,0.0
15300,50.0,24,41,1.0,0.0
15301,48.0,15,768,1.0,0.0
15302,50.0,22,43,1.0,0.0
15303,50.0,82,35,1.0,0.0
15304,50.0,85,40,1.0,0.0
15305,50.0,85,49,1.0,0.0
15306,50.0,173,57,1.0,0.0
15307,45.0,37,122,5.0,0.0
15308,60.0,7,609,3.0,0.0
15309,45.0,27,138,6.0,0.0
15310,64.0,10,839,2.0,0.0
15311,50.0,8,100,1.0,0.0
15312,54.0,8,1303,4.0,0.0
15313,47.0,28,68,5.0,0.0
15314,47.0,28,78,6.0,0.0
15315,45.0,26,54,5.0,0.0
15316,45.0,25,65,6.0,0.0
15317,47.0,6,54,5.0,0.0
15318,47.0,24,58,6.0,0.0
15319,45.0,20,45,5.0,0.0
15320,45.0,27,48,6.0,0.0
15321,47.0,20,49,5.0,0.0
15322,47.0,25,55,6.0,0.0
15323,45.0,20,46,5.0,0.0
15324,45.0,7,45,6.0,0.0
15325,47.0,33,28,5.0,0.0
15326,47.0,13,44,6.0,0.0
15327,45.0,35,37,5.0,0.0
15328,45.0,2,52,6.0,0.0
15329,47.0,34,43,5.0,0.0
15330,47.0,36,35,6.0,0.0
15331,45.0,16,64,5.0,0.0
15332,45.0,32,58,6.0,0.0
15333,43.0,29,51,5.0,0.0
15334,43.0,96,54,6.0,0.0
15335,45.0,64,131,5.0,0.0
15336,45.0,15,89,6.0,0.0
15337,59.0,16,449,3.0,0.0
15338,47.0,76,493,6.0,0.0
15339,63.0,6,551,2.0,0.0
15340,47.0,29,445,5.0,0.0
15341,75.0,82,568,12.0,0.0
15342,63.0,32,509,14.0,0.0
15343,40.0,109,371,5.0,0.0
15344,64.0,10,328,2.0,0.0
15345,40.0,34,449,6.0,0.0
15346,59.0,6,311,3.0,0.0
15347,76.0,9,451,12.0,0.0
15348,64.0,13,453,14.0,0.0
15349,40.0,121,147,0.0,0.0
15350,55.0,15,263,4.0,0.0
15351,59.0,6,66,0.0,0.0
15352,55.0,7,71,0.0,0.0
15353,64.0,239,77,0.0,0.0
15354,59.0,1,91,0.0,0.0
15355,64.0,3,88,0.0,0.0
15356,55.0,124,86,0.0,0.0
15357,59.0,5,62,0.0,0.0
15358,64.0,13,66,0.0,0.0
15359,55.0,163,73,0.0,0.0
15360,83.0,38,158,0.0,0.0
15361,59.0,8,97,0.0,0.0
15362,55.0,35,104,0.0,0.0
15363,64.0,3,97,0.0,0.0
15364,79.0,130,111,0.0,0.0
15365,64.0,6,79,0.0,0.0
15366,59.0,13,83,0.0,0.0
15367,55.0,23,91,0.0,0.0
15368,81.0,263,46,0.0,0.0
15369,59.0,2,207,0.0,0.0
15370,64.0,10,207,0.0,0.0
15371,83.0,167,348,0.0,0.0
15372,55.0,110,211,0.0,0.0
15373,64.0,2,79,0.0,0.0
15374,59.0,6,72,0.0,0.0
15375,55.0,14,76,0.0,0.0
15376,64.0,6,110,0.0,0.0
15377,59.0,1,107,0.0,0.0
15378,55.0,172,110,0.0,0.0
15379,88.0,76,261,0.0,0.0
15380,59.0,4,129,0.0,0.0
15381,64.0,5,129,0.0,0.0
15382,55.0,123,132,0.0,0.0
15383,64.0,0,120,0.0,0.0
15384,90.0,36,220,0.0,0.0
15385,59.0,17,117,0.0,0.0
15386,55.0,85,133,0.0,0.0
15387,59.0,11,90,0.0,0.0
15388,55.0,119,99,0.0,0.0
15389,64.0,3,82,0.0,0.0
15390,91.0,47,214,0.0,0.0
15391,55.0,97,115,0.0,0.0
15392,59.0,5,108,0.0,0.0
15393,55.0,5,739,3.0,0.0
15394,64.0,1,105,0.0,0.0
15395,90.0,40,192,0.0,0.0
15396,64.0,16,4583,2.0,0.0
15397,88.0,52,166,0.0,0.0
15398,59.0,8,75,0.0,0.0
15399,64.0,79,85,0.0,0.0
15400,55.0,2,79,0.0,0.0
15401,83.0,16,64,0.0,0.0
15402,64.0,11,82,0.0,0.0
15403,59.0,11,69,0.0,0.0
15404,55.0,148,86,0.0,0.0
15405,84.0,1,68,0.0,0.0
15406,59.0,5,62,0.0,0.0
15407,64.0,10,66,0.0,0.0
15408,55.0,97,75,0.0,0.0
15409,86.0,49,115,0.0,0.0
15410,84.0,5,76,0.0,0.0
15411,59.0,2,63,0.0,0.0
15412,64.0,13,67,0.0,0.0
15413,59.0,13,511,3.0,0.0
15414,55.0,185,75,0.0,0.0
15415,43.0,146,522,5.0,0.0
15416,59.0,2,60,0.0,0.0
15417,64.0,144,60,0.0,0.0
15418,55.0,4,50,0.0,0.0
15419,83.0,64,100,0.0,0.0
15420,42.0,33,666,5.0,0.0
15421,57.0,14,4394,3.0,0.0
15422,57.0,20,218,0.0,0.0
15423,54.0,29,234,0.0,0.0
15424,60.0,36,4,0.0,0.0
15425,64.0,10,198,0.0,0.0
15426,83.0,80,250,0.0,0.0
15427,57.0,172,79,0.0,0.0
15428,64.0,7,58,0.0,0.0
15429,60.0,3,53,0.0,0.0
15430,57.0,7,79,0.0,0.0
15431,81.0,77,116,0.0,0.0
15432,64.0,40,74,0.0,0.0
15433,60.0,4,59,0.0,0.0
15434,41.0,7,236,5.0,0.0
15435,57.0,3,74,0.0,0.0
15436,64.0,150,75,0.0,0.0
15437,60.0,5,66,0.0,0.0
15438,64.0,6,64,0.0,0.0
15439,57.0,134,76,0.0,0.0
15440,60.0,1,57,0.0,0.0
15441,42.0,104,197,5.0,0.0
15442,45.0,8,151,5.0,0.0
15443,57.0,97,156,0.0,0.0
15444,60.0,5,131,0.0,0.0
15445,64.0,8,142,0.0,0.0
15446,54.0,226,102,5.0,0.0
15447,42.0,9,293,0.0,0.0
15448,57.0,20,88,0.0,0.0
15449,60.0,23,56,0.0,0.0
15450,64.0,158,92,0.0,0.0
15451,54.0,6,81,5.0,0.0
15452,64.0,1,76,0.0,0.0
15453,57.0,141,72,0.0,0.0
15454,60.0,2,62,0.0,0.0
15455,64.0,120,79,0.0,0.0
15456,57.0,1,72,0.0,0.0
15457,60.0,5,66,0.0,0.0
15458,84.0,37,125,0.0,0.0
15459,54.0,13,68,5.0,0.0
15460,81.0,102,107,0.0,0.0
15461,57.0,17,84,0.0,0.0
15462,64.0,7,74,0.0,0.0
15463,60.0,6,64,0.0,0.0
15464,57.0,2,73,0.0,0.0
15465,60.0,38,68,0.0,0.0
15466,64.0,13,53,0.0,0.0
15467,83.0,199,57,0.0,0.0
15468,84.0,35,237,0.0,0.0
15469,57.0,17,168,0.0,0.0
15470,64.0,1,153,0.0,0.0
15471,60.0,4,152,0.0,0.0
15472,54.0,44,177,0.0,0.0
15473,54.0,5,139,5.0,0.0
15474,57.0,1,70,0.0,0.0
15475,64.0,6,62,0.0,0.0
15476,60.0,128,63,0.0,0.0
15477,57.0,2,79,0.0,0.0
15478,60.0,6,71,0.0,0.0
15479,64.0,153,77,0.0,0.0
15480,90.0,91,130,0.0,0.0
15481,57.0,5,93,0.0,0.0
15482,64.0,27,98,0.0,0.0
15483,60.0,4,82,0.0,0.0
15484,91.0,8,69,0.0,0.0
15485,64.0,10,64,0.0,0.0
15486,57.0,142,74,0.0,0.0
15487,60.0,40,6,0.0,0.0
15488,57.0,96,64,0.0,0.0
15489,64.0,22,42,0.0,0.0
15490,60.0,2,36,0.0,0.0
15491,93.0,126,61,0.0,0.0
15492,35.0,21,1116,6.0,0.0
15493,47.0,8,1113,5.0,0.0
15494,47.0,79,58,0.0,0.0
15495,93.0,43,135,0.0,0.0
15496,63.0,44,1100,2.0,0.0
15497,87.0,82,59,0.0,0.0
15498,88.0,35,80,0.0,0.0
15499,63.0,2,66,0.0,0.0
15500,54.0,6,62,0.0,0.0
15501,57.0,16,63,0.0,0.0
15502,91.0,45,69,0.0,0.0
15503,90.0,65,52,0.0,0.0
15504,88.0,30,57,0.0,0.0
15505,63.0,14,54,0.0,0.0
15506,54.0,5,66,0.0,0.0
15507,57.0,1,59,0.0,0.0
15508,87.0,55,45,0.0,0.0
15509,84.0,41,43,0.0,0.0
15510,83.0,38,36,0.0,0.0
15511,63.0,6,52,0.0,0.0
15512,54.0,50,63,0.0,0.0
15513,57.0,0,48,0.0,0.0
15514,81.0,9,39,0.0,0.0
15515,79.0,27,51,0.0,0.0
15516,78.0,48,35,0.0,0.0
15517,54.0,37,57,0.0,0.0
15518,76.0,3,54,0.0,0.0
15519,63.0,6,42,0.0,0.0
15520,57.0,6,40,0.0,0.0
15521,75.0,45,46,0.0,0.0
15522,72.0,30,41,0.0,0.0
15523,54.0,15,72,0.0,0.0
15524,63.0,2,41,0.0,0.0
15525,71.0,17,39,0.0,0.0
15526,57.0,11,54,0.0,0.0
15527,69.0,47,41,0.0,0.0
15528,67.0,55,47,0.0,0.0
15529,69.0,30,72,0.0,0.0
15530,52.0,57,155,0.0,0.0
15531,71.0,6,196,0.0,0.0
15532,40.0,17,345,6.0,0.0
15533,55.0,2,369,3.0,0.0
15534,64.0,21,233,2.0,0.0
15535,52.0,68,251,5.0,0.0
15536,64.0,2,50,0.0,0.0
15537,55.0,40,69,0.0,0.0
15538,59.0,15,53,0.0,0.0
15539,69.0,2,58,0.0,0.0
15540,67.0,8,41,0.0,0.0
15541,67.0,16,61,0.0,0.0
15542,55.0,155,83,0.0,0.0
15543,59.0,11,70,0.0,0.0
15544,64.0,0,69,0.0,0.0
15545,64.0,6,81,0.0,0.0
15546,59.0,4,76,0.0,0.0
15547,55.0,173,85,0.0,0.0
15548,55.0,212,109,0.0,0.0
15549,59.0,3,101,0.0,0.0
15550,64.0,4,99,0.0,0.0
15551,67.0,299,479,14.0,0.0
15552,71.0,25,451,14.0,0.0
15553,76.0,133,772,0.0,0.0
15554,59.0,2,64,0.0,0.0
15555,55.0,138,71,0.0,0.0
15556,64.0,6,61,0.0,0.0
15557,54.0,8,737,5.0,0.0
15558,69.0,94,1646,14.0,0.0
15559,72.0,2,1644,14.0,0.0
15560,54.0,150,727,0.0,0.0
15561,57.0,10,77,0.0,0.0
15562,60.0,8,66,0.0,0.0
15563,75.0,5,48,0.0,0.0
15564,57.0,215,59,0.0,0.0
15565,60.0,16,40,0.0,0.0
15566,57.0,2,175,0.0,0.0
15567,60.0,23,143,0.0,0.0
15568,52.0,74,297,0.0,0.0
15569,52.0,194,364,5.0,0.0
15570,76.0,68,221,0.0,0.0
15571,57.0,22,66,0.0,0.0
15572,60.0,10,53,0.0,0.0
15573,51.0,90,346,0.0,0.0
15574,51.0,3,644,5.0,0.0
15575,79.0,2,257,0.0,0.0
15576,57.0,33,84,0.0,0.0
15577,60.0,15,68,0.0,0.0
15578,60.0,15,55,0.0,0.0
15579,57.0,123,70,0.0,0.0
15580,78.0,23,62,0.0,0.0
15581,57.0,42,109,0.0,0.0
15582,60.0,36,69,0.0,0.0
15583,52.0,15,358,5.0,0.0
15584,76.0,51,125,0.0,0.0
15585,52.0,7,222,0.0,0.0
15586,74.0,11,55,0.0,0.0
15587,57.0,45,88,0.0,0.0
15588,60.0,18,29,0.0,0.0
15589,72.0,19,42,0.0,0.0
15590,71.0,7,36,0.0,0.0
15591,69.0,43,50,0.0,0.0
15592,67.0,23,49,0.0,0.0
15593,54.0,9,709,5.0,0.0
15594,66.0,169,40,0.0,0.0
15595,54.0,1,220,0.0,0.0
15596,64.0,45,167,0.0,0.0
15597,60.0,12,59,0.0,0.0
15598,57.0,131,70,0.0,0.0
15599,63.0,36,97,0.0,0.0
15600,60.0,5,42,0.0,0.0
15601,57.0,41,44,0.0,0.0
15602,66.0,74,34,0.0,0.0
15603,57.0,12,90,0.0,0.0
15604,69.0,14,50,0.0,0.0
15605,60.0,25,58,0.0,0.0
15606,72.0,47,38,0.0,0.0
15607,75.0,52,52,0.0,0.0
15608,78.0,83,47,0.0,0.0
15609,51.0,10,522,5.0,0.0
15610,51.0,52,81,0.0,0.0
15611,66.0,247,482,3.0,0.0
15612,71.0,31,2035,2.0,0.0
15613,81.0,168,109,0.0,0.0
15614,59.0,106,57,0.0,0.0
15615,66.0,7,37,0.0,0.0
15616,83.0,68,53,0.0,0.0
15617,52.0,13,744,5.0,0.0
15618,67.0,185,756,3.0,0.0
15619,52.0,0,290,0.0,0.0
15620,81.0,54,213,0.0,0.0
15621,55.0,139,82,0.0,0.0
15622,59.0,8,74,0.0,0.0
15623,64.0,2,68,0.0,0.0
15624,59.0,12,71,0.0,0.0
15625,79.0,32,147,0.0,0.0
15626,64.0,6,59,0.0,0.0
15627,55.0,65,77,0.0,0.0
15628,64.0,0,36,0.0,0.0
15629,59.0,23,35,0.0,0.0
15630,55.0,113,56,0.0,0.0
15631,66.0,101,412,3.0,0.0
15632,50.0,50,346,5.0,0.0
15633,50.0,85,255,0.0,0.0
15634,78.0,161,487,0.0,0.0
15635,54.0,19,63,0.0,0.0
15636,59.0,12,51,0.0,0.0
15637,48.0,18,1235,5.0,0.0
15638,48.0,6,153,0.0,0.0
15639,64.0,119,1225,3.0,0.0
15640,54.0,1,74,0.0,0.0
15641,76.0,7,56,0.0,0.0
15642,64.0,40,62,0.0,0.0
15643,78.0,72,48,0.0,0.0
15644,76.0,44,76,0.0,0.0
15645,54.0,61,66,0.0,0.0
15646,64.0,1,64,0.0,0.0
15647,75.0,48,148,0.0,0.0
15648,70.0,39,702,2.0,0.0
15649,76.0,151,159,0.0,0.0
15650,54.0,0,59,0.0,0.0
15651,64.0,93,53,0.0,0.0
15652,54.0,125,153,0.0,0.0
15653,58.0,4,148,0.0,0.0
15654,64.0,1,144,0.0,0.0
15655,79.0,1,132,0.0,0.0
15656,58.0,11,48,0.0,0.0
15657,54.0,110,57,0.0,0.0
15658,64.0,6,33,0.0,0.0
15659,78.0,39,80,0.0,0.0
15660,71.0,54,303,2.0,0.0
15661,47.0,5,69,0.0,0.0
15662,75.0,82,182,0.0,0.0
15663,63.0,252,425,3.0,0.0
15664,47.0,18,1415,5.0,0.0
15665,59.0,5,77,0.0,0.0
15666,63.0,10,74,0.0,0.0
15667,54.0,92,79,0.0,0.0
15668,65.0,61,547,3.0,0.0
15669,68.0,19,935,2.0,0.0
15670,47.0,41,144,0.0,0.0
15671,74.0,99,180,0.0,0.0
15672,76.0,22,129,0.0,0.0
15673,74.0,62,90,0.0,0.0
15674,62.0,3,37,0.0,0.0
15675,56.0,38,40,0.0,0.0
15676,73.0,40,78,0.0,0.0
15677,74.0,80,125,0.0,0.0
15678,62.0,192,484,3.0,0.0
15679,52.0,103,790,4.0,0.0
15680,47.0,43,130,0.0,0.0
15681,77.0,77,161,0.0,0.0
15682,62.0,1,37,0.0,0.0
15683,56.0,8,35,0.0,0.0
15684,52.0,128,41,0.0,0.0
15685,76.0,18,111,0.0,0.0
15686,69.0,71,306,2.0,0.0
15687,60.0,17,1019,3.0,0.0
15688,74.0,55,227,0.0,0.0
15689,45.0,7,1065,5.0,0.0
15690,45.0,1,219,0.0,0.0
15691,72.0,28,164,0.0,0.0
15692,52.0,156,300,0.0,0.0
15693,54.0,31,334,0.0,0.0
15694,71.0,14,140,0.0,0.0
15695,54.0,353,1505,4.0,0.0
15696,64.0,139,1160,2.0,0.0
15697,69.0,18,172,0.0,0.0
15698,60.0,120,214,0.0,0.0
15699,67.0,47,172,0.0,0.0
15700,52.0,141,202,0.0,0.0
15701,54.0,289,234,0.0,0.0
15702,69.0,38,104,0.0,0.0
15703,59.0,24,797,3.0,0.0
15704,47.0,109,676,5.0,0.0
15705,47.0,39,353,0.0,0.0
15706,71.0,25,324,0.0,0.0
15707,54.0,41,199,0.0,0.0
15708,66.0,61,67,0.0,0.0
15709,63.0,37,417,2.0,0.0
15710,57.0,11,42,0.0,0.0
15711,60.0,24,55,0.0,0.0
15712,59.0,94,370,0.0,0.0
15713,55.0,4,365,0.0,0.0
15714,54.0,112,127,0.0,0.0
15715,71.0,498,227,0.0,0.0
15716,57.0,17,93,0.0,0.0
15717,40.0,237,343,5.0,0.0
15718,40.0,59,268,0.0,0.0
15719,64.0,1,4961,2.0,0.0
15720,55.0,2,3282,3.0,0.0
15721,83.0,115,665,0.0,0.0
15722,59.0,4,83,0.0,0.0
15723,55.0,174,88,0.0,0.0
15724,64.0,3,84,0.0,0.0
15725,59.0,6,133,0.0,0.0
15726,84.0,66,255,0.0,0.0
15727,55.0,2,136,0.0,0.0
15728,64.0,115,128,0.0,0.0
15729,83.0,59,201,0.0,0.0
15730,59.0,7,85,0.0,0.0
15731,64.0,0,84,0.0,0.0
15732,55.0,107,88,0.0,0.0
15733,79.0,94,150,0.0,0.0
15734,59.0,5,78,0.0,0.0
15735,64.0,2,82,0.0,0.0
15736,55.0,58,82,0.0,0.0
15737,59.0,2,74,0.0,0.0
15738,64.0,14,75,0.0,0.0
15739,55.0,42,86,0.0,0.0
15740,81.0,223,53,0.0,0.0
15741,59.0,23,1785,4.0,0.0
15742,59.0,2,174,0.0,0.0
15743,64.0,6,176,0.0,0.0
15744,83.0,2,329,0.0,0.0
15745,55.0,136,180,0.0,0.0
15746,64.0,11,78,0.0,0.0
15747,59.0,1,77,0.0,0.0
15748,55.0,142,88,0.0,0.0
15749,64.0,0,84,0.0,0.0
15750,59.0,11,84,0.0,0.0
15751,55.0,139,93,0.0,0.0
15752,88.0,40,214,0.0,0.0
15753,64.0,10,82,0.0,0.0
15754,59.0,5,76,0.0,0.0
15755,55.0,117,89,0.0,0.0
15756,59.0,3,76,0.0,0.0
15757,90.0,6,189,0.0,0.0
15758,55.0,81,89,0.0,0.0
15759,64.0,11,78,0.0,0.0
15760,64.0,18,24,0.0,0.0
15761,55.0,172,46,0.0,0.0
15762,59.0,1,21,0.0,0.0
15763,91.0,44,217,0.0,0.0
15764,40.0,23,709,6.0,0.0
15765,40.0,165,93,0.0,0.0
15766,90.0,92,247,0.0,0.0
15767,40.0,9,2427,5.0,0.0
15768,59.0,14,103,0.0,0.0
15769,88.0,65,179,0.0,0.0
15770,64.0,64,113,0.0,0.0
15771,55.0,1,110,0.0,0.0
15772,83.0,112,98,0.0,0.0
15773,64.0,9,79,0.0,0.0
15774,59.0,5,74,0.0,0.0
15775,55.0,6,86,0.0,0.0
15776,55.0,13,155,0.0,0.0
15777,59.0,7,191,0.0,0.0
15778,64.0,44,52,0.0,0.0
15779,84.0,32,92,0.0,0.0
15780,86.0,103,127,0.0,0.0
15781,56.0,4,160,0.0,0.0
15782,62.0,25,508,4.0,0.0
15783,84.0,20,134,0.0,0.0
15784,62.0,93,155,0.0,0.0
15785,64.0,1,153,0.0,0.0
15786,56.0,39,457,3.0,0.0
15787,62.0,1,37,0.0,0.0
15788,56.0,138,45,0.0,0.0
15789,64.0,9,36,0.0,0.0
15790,83.0,67,94,0.0,0.0
15791,40.0,118,108,0.0,0.0
15792,57.0,2,2014,3.0,0.0
15793,83.0,99,389,0.0,0.0
15794,60.0,123,205,4.0,0.0
15795,64.0,2,86,0.0,0.0
15796,60.0,9,75,0.0,0.0
15797,57.0,45,83,0.0,0.0
15798,64.0,12,78,0.0,0.0
15799,81.0,71,125,0.0,0.0
15800,60.0,4,69,0.0,0.0
15801,57.0,36,82,0.0,0.0
15802,64.0,4,54,0.0,0.0
15803,57.0,113,69,0.0,0.0
15804,60.0,12,57,0.0,0.0
15805,57.0,40,59,0.0,0.0
15806,64.0,1,44,0.0,0.0
15807,60.0,13,44,0.0,0.0
15808,81.0,21,41,0.0,0.0
15809,83.0,85,38,0.0,0.0
15810,81.0,6,76,0.0,0.0
15811,64.0,9,34,0.0,0.0
15812,57.0,229,50,0.0,0.0
15813,80.0,11,39,0.0,0.0
15814,60.0,2,28,0.0,0.0
15815,81.0,105,54,0.0,0.0
15816,39.0,9,124,0.0,0.0
15817,39.0,14,772,5.0,0.0
15818,51.0,28,44,0.0,0.0
15819,59.0,12,2607,4.0,0.0
15820,66.0,11,733,2.0,0.0
15821,96.0,247,41,0.0,0.0
15822,66.0,20,55,0.0,0.0
15823,59.0,3,70,0.0,0.0
15824,57.0,113,71,0.0,0.0
15825,66.0,13,54,0.0,0.0
15826,59.0,19,64,0.0,0.0
15827,57.0,110,78,0.0,0.0
15828,95.0,1,119,0.0,0.0
15829,66.0,9,19,0.0,0.0
15830,59.0,18,22,0.0,0.0
15831,57.0,63,40,0.0,0.0
15832,89.0,70,99,0.0,0.0
15833,90.0,10,116,0.0,0.0
15834,40.0,2,471,5.0,0.0
15835,67.0,20,526,2.0,0.0
15836,55.0,40,425,3.0,0.0
15837,40.0,21,14,0.0,0.0
15838,52.0,106,32,0.0,0.0
15839,93.0,110,135,0.0,0.0
15840,64.0,20,26,0.0,0.0
15841,59.0,0,25,0.0,0.0
15842,55.0,118,44,0.0,0.0
15843,91.0,68,275,0.0,0.0
15844,42.0,140,348,5.0,0.0
15845,71.0,17,840,2.0,0.0
15846,42.0,10,27,0.0,0.0
15847,63.0,2,335,3.0,0.0
15848,54.0,44,35,0.0,0.0
15849,90.0,13,91,0.0,0.0
15850,63.0,16,26,0.0,0.0
15851,59.0,1,25,0.0,0.0
15852,57.0,25,40,0.0,0.0
15853,86.0,105,61,0.0,0.0
15854,87.0,7,108,0.0,0.0
15855,43.0,59,552,5.0,0.0
15856,43.0,30,166,0.0,0.0
15857,64.0,10,537,3.0,0.0
15858,55.0,131,193,0.0,0.0
15859,90.0,34,247,0.0,0.0
15860,64.0,22,47,0.0,0.0
15861,55.0,136,68,0.0,0.0
15862,59.0,3,41,0.0,0.0
15863,88.0,147,329,0.0,0.0
15864,62.0,190,672,3.0,0.0
15865,44.0,24,625,5.0,0.0
15866,64.0,3,619,2.0,0.0
15867,44.0,61,88,0.0,0.0
15868,86.0,28,153,0.0,0.0
15869,52.0,48,111,0.0,0.0
15870,59.0,32,77,0.0,0.0
15871,62.0,14,60,0.0,0.0
15872,82.0,116,151,0.0,0.0
15873,83.0,63,130,0.0,0.0
15874,57.0,43,896,4.0,0.0
15875,60.0,33,1216,3.0,0.0
15876,45.0,7,1266,5.0,0.0
15877,45.0,48,469,0.0,0.0
15878,65.0,10,917,2.0,0.0
15879,86.0,99,191,0.0,0.0
15880,85.0,56,143,0.0,0.0
15881,48.0,25,351,0.0,0.0
15882,84.0,59,82,0.0,0.0
15883,83.0,10,57,0.0,0.0
15884,82.0,56,51,0.0,0.0
15885,53.0,21,167,0.0,0.0
15886,81.0,55,44,0.0,0.0
15887,80.0,2,45,0.0,0.0
15888,79.0,46,44,0.0,0.0
15889,57.0,57,138,0.0,0.0
15890,78.0,61,35,0.0,0.0
15891,77.0,1,56,0.0,0.0
15892,48.0,88,331,0.0,0.0
15893,76.0,31,57,0.0,0.0
15894,69.0,59,444,2.0,0.0
15895,53.0,21,404,4.0,0.0
15896,75.0,2,39,0.0,0.0
15897,74.0,38,47,0.0,0.0
15898,73.0,130,51,0.0,0.0
15899,60.0,17,126,0.0,0.0
15900,72.0,122,348,0.0,0.0
15901,59.0,34,453,3.0,0.0
15902,64.0,16,389,2.0,0.0
15903,47.0,247,792,0.0,0.0
15904,55.0,18,458,4.0,0.0
15905,47.0,34,374,5.0,0.0
15906,71.0,112,131,0.0,0.0
15907,64.0,11,133,0.0,0.0
15908,55.0,162,292,0.0,0.0
15909,66.0,48,139,0.0,0.0
15910,52.0,93,237,0.0,0.0
15911,67.0,102,568,0.0,0.0
15912,59.0,104,503,0.0,0.0
15913,47.0,4,850,5.0,0.0
15914,47.0,44,609,0.0,0.0
15915,57.0,4,834,3.0,0.0
15916,63.0,115,834,2.0,0.0
15917,69.0,174,211,0.0,0.0
15918,66.0,65,294,0.0,0.0
15919,57.0,58,192,0.0,0.0
15920,59.0,122,160,0.0,0.0
15921,40.0,30,205,0.0,0.0
15922,40.0,124,437,6.0,0.0
15923,52.0,150,1969,5.0,0.0
15924,64.0,96,321,2.0,0.0
15925,55.0,37,230,3.0,0.0
15926,64.0,20,157,0.0,0.0
15927,47.0,16,60,0.0,0.0
15928,52.0,53,41,0.0,0.0
15929,55.0,3,321,0.0,0.0
15930,71.0,1,303,2.0,0.0
15931,67.0,7,300,3.0,0.0
15932,59.0,2,216,0.0,0.0
15933,64.0,47,56,0.0,0.0
15934,71.0,27,55,0.0,0.0
15935,67.0,58,29,0.0,0.0
15936,57.0,14,38,0.0,0.0
15937,60.0,5,30,0.0,0.0
15938,76.0,52,55,0.0,0.0
15939,72.0,22,150,2.0,0.0
15940,69.0,31,168,3.0,0.0
15941,66.0,58,39,0.0,0.0
15942,75.0,10,50,0.0,0.0
15943,69.0,143,63,0.0,0.0
15944,40.0,19,531,6.0,0.0
15945,40.0,46,113,0.0,0.0
15946,76.0,0,156,0.0,0.0
15947,67.0,40,153,0.0,0.0
15948,47.0,9,53,0.0,0.0
15949,52.0,205,42,0.0,0.0
15950,55.0,1,265,0.0,0.0
15951,71.0,31,301,2.0,0.0
15952,67.0,1,267,3.0,0.0
15953,59.0,28,204,0.0,0.0
15954,64.0,40,60,0.0,0.0
15955,71.0,25,56,0.0,0.0
15956,67.0,17,32,0.0,0.0
15957,57.0,16,49,0.0,0.0
15958,76.0,8,64,0.0,0.0
15959,60.0,6,40,0.0,0.0
15960,69.0,0,171,3.0,0.0
15961,72.0,105,176,2.0,0.0
15962,66.0,56,40,0.0,0.0
15963,75.0,49,55,0.0,0.0
15964,69.0,18,51,0.0,0.0
15965,40.0,7,96,0.0,0.0
15966,67.0,22,94,0.0,0.0
15967,76.0,17,124,0.0,0.0
15968,40.0,11,569,6.0,0.0
15969,59.0,21,1610,7.0,0.0
15970,47.0,10,39,0.0,0.0
15971,52.0,160,23,0.0,0.0
15972,59.0,7,404,0.0,0.0
15973,71.0,2,380,2.0,0.0
15974,67.0,15,380,3.0,0.0
15975,67.0,9,235,0.0,0.0
15976,71.0,59,47,0.0,0.0
15977,83.0,46,39,0.0,0.0
15978,71.0,14,39,0.0,0.0
15979,69.0,15,279,2.0,0.0
15980,66.0,5,293,3.0,0.0
15981,66.0,13,18,0.0,0.0
15982,74.0,4,27,0.0,0.0
15983,72.0,40,30,0.0,0.0
15984,71.0,59,40,0.0,0.0
15985,81.0,51,47,0.0,0.0
15986,71.0,45,51,0.0,0.0
15987,40.0,0,73,0.0,0.0
15988,74.0,15,32,0.0,0.0
15989,67.0,59,265,2.0,0.0
15990,72.0,27,50,0.0,0.0
15991,64.0,8,232,3.0,0.0
15992,47.0,23,35,0.0,0.0
15993,71.0,11,54,0.0,0.0
15994,52.0,52,25,0.0,0.0
15995,79.0,45,49,0.0,0.0
15996,59.0,3,388,0.0,0.0
15997,71.0,35,49,0.0,0.0
15998,64.0,12,306,2.0,0.0
15999,61.0,17,276,3.0,0.0
16000,61.0,6,301,0.0,0.0
16001,71.0,53,39,0.0,0.0
16002,70.0,47,57,0.0,0.0
16003,79.0,50,52,0.0,0.0
16004,70.0,35,54,0.0,0.0
16005,66.0,12,289,2.0,0.0
16006,73.0,23,75,0.0,0.0
16007,63.0,17,33,0.0,0.0
16008,63.0,29,280,3.0,0.0
16009,59.0,15,307,5.0,0.0
16010,71.0,40,71,0.0,0.0
16011,59.0,48,555,4.0,0.0
16012,69.0,62,56,0.0,0.0
16013,78.0,69,56,0.0,0.0
16014,69.0,15,73,0.0,0.0
16015,40.0,32,94,0.0,0.0
16016,64.0,106,212,3.0,0.0
16017,67.0,24,186,2.0,0.0
16018,67.0,18,155,0.0,0.0
16019,40.0,11,524,6.0,0.0
16020,64.0,34,354,7.0,0.0
16021,76.0,12,126,0.0,0.0
16022,52.0,1,1638,5.0,0.0
16023,47.0,27,37,0.0,0.0
16024,52.0,6,30,0.0,0.0
16025,55.0,7,261,0.0,0.0
16026,59.0,38,216,0.0,0.0
16027,71.0,3,245,2.0,0.0
16028,67.0,3,218,3.0,0.0
16029,64.0,12,64,0.0,0.0
16030,71.0,28,56,0.0,0.0
16031,67.0,14,38,0.0,0.0
16032,57.0,14,52,0.0,0.0
16033,60.0,6,41,0.0,0.0
16034,76.0,20,63,0.0,0.0
16035,69.0,34,153,3.0,0.0
16036,72.0,6,118,2.0,0.0
16037,66.0,51,30,0.0,0.0
16038,75.0,27,40,0.0,0.0
16039,69.0,95,57,0.0,0.0
16040,40.0,40,83,0.0,0.0
16041,40.0,15,441,6.0,0.0
16042,67.0,4,106,0.0,0.0
16043,76.0,33,115,0.0,0.0
16044,47.0,7,46,0.0,0.0
16045,52.0,224,37,0.0,0.0
16046,55.0,4,318,0.0,0.0
16047,71.0,2,290,2.0,0.0
16048,67.0,14,275,3.0,0.0
16049,59.0,5,255,0.0,0.0
16050,64.0,53,74,0.0,0.0
16051,71.0,13,72,0.0,0.0
16052,67.0,37,50,0.0,0.0
16053,72.0,1,300,2.0,0.0
16054,69.0,20,282,3.0,0.0
16055,76.0,40,64,0.0,0.0
16056,57.0,16,43,0.0,0.0
16057,60.0,4,37,0.0,0.0
16058,66.0,60,30,0.0,0.0
16059,75.0,57,50,0.0,0.0
16060,69.0,55,53,0.0,0.0
16061,40.0,16,80,0.0,0.0
16062,67.0,72,272,3.0,0.0
16063,76.0,26,72,0.0,0.0
16064,71.0,14,253,2.0,0.0
16065,67.0,6,46,0.0,0.0
16066,40.0,1,248,6.0,0.0
16067,71.0,54,872,7.0,0.0
16068,47.0,28,45,0.0,0.0
16069,52.0,129,24,0.0,0.0
16070,59.0,53,180,0.0,0.0
16071,67.0,14,35,0.0,0.0
16072,71.0,54,31,0.0,0.0
16073,83.0,33,38,0.0,0.0
16074,53.0,23,23,0.0,0.0
16075,71.0,57,39,0.0,0.0
16076,74.0,19,37,0.0,0.0
16077,62.0,4,516,2.0,0.0
16078,41.0,19,250,6.0,0.0
16079,62.0,1,47,0.0,0.0
16080,59.0,5,517,3.0,0.0
16081,53.0,4,264,5.0,0.0
16082,53.0,8,266,4.0,0.0
16083,73.0,43,44,0.0,0.0
16084,68.0,16,17,0.0,0.0
16085,71.0,45,44,0.0,0.0
16086,83.0,40,28,0.0,0.0
16087,71.0,58,28,0.0,0.0
16088,30.0,7,31,0.0,0.0
16089,69.0,1,33,0.0,0.0
16090,54.0,27,286,5.0,0.0
16091,54.0,3,1174,4.0,0.0
16092,67.0,39,41,0.0,0.0
16093,42.0,6,250,6.0,0.0
16094,42.0,14,20,0.0,0.0
16095,66.0,84,854,7.0,0.0
16096,66.0,7,36,0.0,0.0
16097,47.0,27,277,0.0,0.0
16098,74.0,56,37,0.0,0.0
16099,66.0,53,39,0.0,0.0
16100,54.0,35,430,0.0,0.0
16101,59.0,31,312,2.0,0.0
16102,67.0,6,51,0.0,0.0
16103,56.0,76,183,0.0,0.0
16104,56.0,10,318,3.0,0.0
16105,66.0,45,46,0.0,0.0
16106,65.0,32,51,0.0,0.0
16107,74.0,21,138,0.0,0.0
16108,65.0,11,96,0.0,0.0
16109,61.0,57,340,2.0,0.0
16110,42.0,82,252,6.0,0.0
16111,58.0,1,326,3.0,0.0
16112,42.0,15,371,5.0,0.0
16113,58.0,0,95,0.0,0.0
16114,67.0,35,49,0.0,0.0
16115,66.0,16,43,0.0,0.0
16116,64.0,76,44,0.0,0.0
16117,73.0,4,66,0.0,0.0
16118,64.0,3,90,0.0,0.0
16119,59.0,23,222,3.0,0.0
16120,62.0,130,249,2.0,0.0
16121,47.0,24,166,0.0,0.0
16122,59.0,48,414,7.0,0.0
16123,35.0,65,342,6.0,0.0
16124,47.0,128,1719,5.0,0.0
16125,71.0,4,182,0.0,0.0
16126,62.0,17,126,0.0,0.0
16127,54.0,7,45,0.0,0.0
16128,59.0,3,32,0.0,0.0
16129,62.0,29,281,0.0,0.0
16130,62.0,10,266,3.0,0.0
16131,66.0,9,216,0.0,0.0
16132,66.0,1,212,2.0,0.0
16133,71.0,6,64,0.0,0.0
16134,78.0,21,66,0.0,0.0
16135,74.0,21,40,0.0,0.0
16136,64.0,27,57,0.0,0.0
16137,67.0,5,51,0.0,0.0
16138,83.0,37,81,0.0,0.0
16139,64.0,40,168,3.0,0.0
16140,67.0,7,143,2.0,0.0
16141,73.0,44,53,0.0,0.0
16142,82.0,10,56,0.0,0.0
16143,76.0,101,51,0.0,0.0
16144,47.0,42,97,0.0,0.0
16145,83.0,14,144,0.0,0.0
16146,35.0,40,330,6.0,0.0
16147,74.0,8,131,0.0,0.0
16148,54.0,16,47,0.0,0.0
16149,59.0,173,35,0.0,0.0
16150,62.0,28,263,0.0,0.0
16151,62.0,17,267,3.0,0.0
16152,66.0,1,247,2.0,0.0
16153,66.0,30,154,0.0,0.0
16154,71.0,17,75,0.0,0.0
16155,78.0,23,71,0.0,0.0
16156,74.0,8,46,0.0,0.0
16157,67.0,2,251,2.0,0.0
16158,64.0,53,249,3.0,0.0
16159,64.0,45,33,0.0,0.0
16160,83.0,40,76,0.0,0.0
16161,67.0,4,25,0.0,0.0
16162,73.0,46,49,0.0,0.0
16163,82.0,67,58,0.0,0.0
16164,76.0,6,72,0.0,0.0
16165,47.0,20,75,0.0,0.0
16166,83.0,15,72,0.0,0.0
16167,74.0,5,45,0.0,0.0
16168,35.0,29,399,6.0,0.0
16169,62.0,6,264,3.0,0.0
16170,66.0,9,252,2.0,0.0
16171,66.0,4,1570,7.0,0.0
16172,54.0,37,46,0.0,0.0
16173,59.0,135,27,0.0,0.0
16174,66.0,20,391,0.0,0.0
16175,74.0,4,325,2.0,0.0
16176,66.0,14,368,3.0,0.0
16177,74.0,19,246,0.0,0.0
16178,78.0,66,44,0.0,0.0
16179,90.0,43,49,0.0,0.0
16180,78.0,4,54,0.0,0.0
16181,73.0,4,292,2.0,0.0
16182,73.0,6,33,0.0,0.0
16183,81.0,17,39,0.0,0.0
16184,64.0,14,265,3.0,0.0
16185,79.0,34,58,0.0,0.0
16186,78.0,52,41,0.0,0.0
16187,88.0,45,40,0.0,0.0
16188,78.0,60,47,0.0,0.0
16189,81.0,8,50,0.0,0.0
16190,47.0,3,50,0.0,0.0
16191,79.0,14,61,0.0,0.0
16192,71.0,35,230,2.0,0.0
16193,62.0,11,264,3.0,0.0
16194,54.0,22,42,0.0,0.0
16195,78.0,13,45,0.0,0.0
16196,59.0,62,28,0.0,0.0
16197,86.0,24,58,0.0,0.0
16198,66.0,13,382,0.0,0.0
16199,78.0,44,44,0.0,0.0
16200,68.0,9,297,2.0,0.0
16201,79.0,25,43,0.0,0.0
16202,68.0,3,270,0.0,0.0
16203,59.0,0,281,3.0,0.0
16204,78.0,45,50,0.0,0.0
16205,77.0,64,49,0.0,0.0
16206,86.0,47,58,0.0,0.0
16207,77.0,45,52,0.0,0.0
16208,79.0,1,37,0.0,0.0
16209,54.0,8,546,4.0,0.0
16210,70.0,9,34,0.0,0.0
16211,54.0,17,254,5.0,0.0
16212,61.0,40,267,3.0,0.0
16213,70.0,3,242,2.0,0.0
16214,78.0,35,50,0.0,0.0
16215,76.0,70,42,0.0,0.0
16216,85.0,47,54,0.0,0.0
16217,76.0,36,56,0.0,0.0
16218,47.0,47,87,0.0,0.0
16219,71.0,15,170,2.0,0.0
16220,35.0,3,489,6.0,0.0
16221,74.0,14,146,0.0,0.0
16222,83.0,14,123,0.0,0.0
16223,62.0,116,166,3.0,0.0
16224,47.0,10,2863,5.0,0.0
16225,71.0,66,266,7.0,0.0
16226,54.0,16,35,0.0,0.0
16227,59.0,3,36,0.0,0.0
16228,62.0,8,288,0.0,0.0
16229,62.0,3,252,3.0,0.0
16230,66.0,13,188,0.0,0.0
16231,66.0,35,262,2.0,0.0
16232,71.0,46,70,0.0,0.0
16233,78.0,12,67,0.0,0.0
16234,74.0,38,42,0.0,0.0
16235,64.0,5,42,0.0,0.0
16236,83.0,26,80,0.0,0.0
16237,67.0,8,31,0.0,0.0
16238,64.0,1,164,3.0,0.0
16239,67.0,54,144,2.0,0.0
16240,73.0,58,45,0.0,0.0
16241,82.0,4,53,0.0,0.0
16242,76.0,94,60,0.0,0.0
16243,35.0,36,363,6.0,0.0
16244,47.0,40,82,0.0,0.0
16245,83.0,24,129,0.0,0.0
16246,74.0,5,118,0.0,0.0
16247,54.0,15,50,0.0,0.0
16248,59.0,193,37,0.0,0.0
16249,62.0,7,300,0.0,0.0
16250,66.0,65,260,2.0,0.0
16251,62.0,13,235,3.0,0.0
16252,66.0,14,196,0.0,0.0
16253,71.0,40,80,0.0,0.0
16254,78.0,10,65,0.0,0.0
16255,74.0,14,43,0.0,0.0
16256,67.0,114,338,2.0,0.0
16257,64.0,8,199,3.0,0.0
16258,64.0,3,97,0.0,0.0
16259,67.0,22,71,0.0,0.0
16260,83.0,28,95,0.0,0.0
16261,73.0,56,55,0.0,0.0
16262,82.0,62,58,0.0,0.0
16263,76.0,66,71,0.0,0.0
16264,64.0,4,998,3.0,0.0
16265,69.0,8,1693,2.0,0.0
16266,47.0,17,159,0.0,0.0
16267,54.0,22,1397,4.0,0.0
16268,81.0,29,124,0.0,0.0
16269,72.0,9,111,0.0,0.0
16270,54.0,34,50,0.0,0.0
16271,60.0,252,33,0.0,0.0
16272,64.0,7,372,0.0,0.0
16273,69.0,22,303,0.0,0.0
16274,72.0,63,67,0.0,0.0
16275,76.0,33,81,0.0,0.0
16276,78.0,14,60,0.0,0.0
16277,81.0,49,23,0.0,0.0
16278,84.0,148,41,0.0,0.0
16279,96.0,89,100,0.0,0.0
16280,95.0,47,92,0.0,0.0
16281,63.0,64,609,3.0,0.0
16282,93.0,4,60,0.0,0.0
16283,59.0,73,51,0.0,0.0
16284,69.0,0,46,0.0,0.0
16285,63.0,7,38,0.0,0.0
16286,91.0,70,63,0.0,0.0
16287,90.0,57,61,0.0,0.0
16288,88.0,44,60,0.0,0.0
16289,87.0,55,48,0.0,0.0
16290,90.0,52,46,0.0,0.0
16291,81.0,61,45,0.0,0.0
16292,83.0,12,50,0.0,0.0
16293,84.0,56,49,0.0,0.0
16294,66.0,8,291,3.0,0.0
16295,51.0,4,280,5.0,0.0
16296,59.0,155,474,4.0,0.0
16297,78.0,12,41,0.0,0.0
16298,83.0,37,67,0.0,0.0
16299,52.0,16,63,0.0,0.0
16300,81.0,49,78,0.0,0.0
16301,59.0,0,105,0.0,0.0
16302,67.0,45,118,2.0,0.0
16303,79.0,2,27,0.0,0.0
16304,67.0,61,45,0.0,0.0
16305,64.0,22,147,3.0,0.0
16306,52.0,61,166,5.0,0.0
16307,91.0,59,230,0.0,0.0
16308,90.0,2,159,0.0,0.0
16309,52.0,85,87,0.0,0.0
16310,89.0,88,134,0.0,0.0
16311,52.0,19,793,5.0,0.0
16312,61.0,72,601,0.0,0.0
16313,61.0,21,769,3.0,0.0
16314,67.0,12,845,2.0,0.0
16315,88.0,86,93,0.0,0.0
16316,67.0,49,454,0.0,0.0
16317,87.0,84,82,0.0,0.0
16318,86.0,42,97,0.0,0.0
16319,85.0,53,66,0.0,0.0
16320,84.0,72,52,0.0,0.0
16321,83.0,32,72,0.0,0.0
16322,82.0,0,51,0.0,0.0
16323,81.0,3,51,0.0,0.0
16324,80.0,37,79,0.0,0.0
16325,79.0,61,62,0.0,0.0
16326,83.0,0,69,0.0,0.0
16327,78.0,48,54,0.0,0.0
16328,55.0,10,158,5.0,0.0
16329,71.0,29,222,2.0,0.0
16330,61.0,6,130,0.0,0.0
16331,61.0,18,155,3.0,0.0
16332,64.0,12,142,0.0,0.0
16333,55.0,3,138,0.0,0.0
16334,77.0,51,57,0.0,0.0
16335,76.0,13,52,0.0,0.0
16336,79.0,28,61,0.0,0.0
16337,75.0,64,58,0.0,0.0
16338,61.0,17,106,0.0,0.0
16339,55.0,1,121,0.0,0.0
16340,64.0,15,119,0.0,0.0
16341,61.0,8,439,3.0,0.0
16342,71.0,31,260,2.0,0.0
16343,74.0,34,62,0.0,0.0
16344,64.0,5,432,4.0,0.0
16345,55.0,18,258,5.0,0.0
16346,73.0,73,69,0.0,0.0
16347,76.0,58,78,0.0,0.0
16348,71.0,13,96,0.0,0.0
16349,70.0,10,186,2.0,0.0
16350,61.0,5,165,0.0,0.0
16351,54.0,5,190,0.0,0.0
16352,64.0,1,170,0.0,0.0
16353,70.0,112,43,0.0,0.0
16354,54.0,136,189,5.0,0.0
16355,91.0,50,121,0.0,0.0
16356,90.0,76,104,0.0,0.0
16357,52.0,43,53,0.0,0.0
16358,89.0,76,89,0.0,0.0
16359,61.0,64,332,0.0,0.0
16360,67.0,39,258,0.0,0.0
16361,88.0,65,65,0.0,0.0
16362,87.0,62,65,0.0,0.0
16363,86.0,43,68,0.0,0.0
16364,85.0,7,51,0.0,0.0
16365,84.0,0,44,0.0,0.0
16366,83.0,48,60,0.0,0.0
16367,82.0,57,55,0.0,0.0
16368,55.0,8,40,0.0,0.0
16369,61.0,48,576,0.0,0.0
16370,81.0,80,54,0.0,0.0
16371,71.0,3,119,0.0,0.0
16372,80.0,40,73,0.0,0.0
16373,79.0,54,56,0.0,0.0
16374,83.0,44,65,0.0,0.0
16375,78.0,57,50,0.0,0.0
16376,70.0,33,75,0.0,0.0
16377,77.0,21,53,0.0,0.0
16378,76.0,59,51,0.0,0.0
16379,79.0,57,60,0.0,0.0
16380,75.0,55,63,0.0,0.0
16381,74.0,15,54,0.0,0.0
16382,54.0,36,411,5.0,0.0
16383,64.0,37,275,3.0,0.0
16384,54.0,38,451,0.0,0.0
16385,70.0,6,261,2.0,0.0
16386,61.0,12,307,4.0,0.0
16387,73.0,86,68,0.0,0.0
16388,76.0,64,93,0.0,0.0
16389,70.0,5,100,0.0,0.0
16390,69.0,3,176,2.0,0.0
16391,63.0,6,205,3.0,0.0
16392,60.0,12,67,0.0,0.0
16393,69.0,70,71,0.0,0.0
16394,60.0,0,48,4.0,0.0
16395,96.0,86,141,0.0,0.0
16396,95.0,19,118,0.0,0.0
16397,55.0,65,92,0.0,0.0
16398,94.0,85,113,0.0,0.0
16399,55.0,47,585,5.0,0.0
16400,64.0,17,612,3.0,0.0
16401,64.0,24,692,0.0,0.0
16402,72.0,6,751,2.0,0.0
16403,60.0,9,423,4.0,0.0
16404,93.0,82,90,0.0,0.0
16405,72.0,20,362,0.0,0.0
16406,92.0,69,86,0.0,0.0
16407,91.0,30,91,0.0,0.0
16408,90.0,76,60,0.0,0.0
16409,89.0,23,79,0.0,0.0
16410,88.0,30,79,0.0,0.0
16411,87.0,53,57,0.0,0.0
16412,86.0,5,60,0.0,0.0
16413,57.0,1,133,0.0,0.0
16414,57.0,5,222,5.0,0.0
16415,66.0,2,219,3.0,0.0
16416,85.0,42,65,0.0,0.0
16417,84.0,24,50,0.0,0.0
16418,88.0,49,52,0.0,0.0
16419,83.0,58,59,0.0,0.0
16420,82.0,53,65,0.0,0.0
16421,76.0,19,201,2.0,0.0
16422,66.0,0,168,0.0,0.0
16423,69.0,13,168,0.0,0.0
16424,60.0,2,156,0.0,0.0
16425,66.0,53,204,3.0,0.0
16426,60.0,7,165,5.0,0.0
16427,81.0,64,56,0.0,0.0
16428,84.0,1,64,0.0,0.0
16429,80.0,8,50,0.0,0.0
16430,79.0,37,54,0.0,0.0
16431,76.0,86,273,2.0,0.0
16432,66.0,0,87,0.0,0.0
16433,69.0,13,96,0.0,0.0
16434,60.0,10,72,0.0,0.0
16435,60.0,60,151,5.0,0.0
16436,69.0,12,330,4.0,0.0
16437,66.0,17,402,3.0,0.0
16438,78.0,56,59,0.0,0.0
16439,81.0,12,59,0.0,0.0
16440,76.0,33,71,0.0,0.0
16441,59.0,10,151,0.0,0.0
16442,66.0,5,159,0.0,0.0
16443,69.0,47,152,0.0,0.0
16444,75.0,2,35,0.0,0.0
16445,75.0,7,182,2.0,0.0
16446,59.0,6,175,5.0,0.0
16447,96.0,156,82,0.0,0.0
16448,95.0,66,87,0.0,0.0
16449,57.0,35,92,0.0,0.0
16450,94.0,97,97,0.0,0.0
16451,66.0,0,360,0.0,0.0
16452,93.0,75,84,0.0,0.0
16453,72.0,29,299,0.0,0.0
16454,92.0,59,84,0.0,0.0
16455,91.0,31,78,0.0,0.0
16456,90.0,61,48,0.0,0.0
16457,89.0,33,59,0.0,0.0
16458,88.0,34,68,0.0,0.0
16459,87.0,9,57,0.0,0.0
16460,60.0,46,62,0.0,0.0
16461,86.0,78,64,0.0,0.0
16462,66.0,49,482,0.0,0.0
16463,85.0,43,77,0.0,0.0
16464,76.0,53,165,0.0,0.0
16465,84.0,56,58,0.0,0.0
16466,88.0,6,62,0.0,0.0
16467,83.0,66,62,0.0,0.0
16468,82.0,49,69,0.0,0.0
16469,81.0,63,57,0.0,0.0
16470,84.0,11,58,0.0,0.0
16471,80.0,75,57,0.0,0.0
16472,79.0,71,71,0.0,0.0
16473,78.0,67,73,0.0,0.0
16474,81.0,42,69,0.0,0.0
16475,76.0,169,42,0.0,0.0
16476,60.0,1,362,5.0,0.0
16477,60.0,23,224,0.0,0.0
16478,62.0,2,208,0.0,0.0
16479,66.0,3,193,0.0,0.0
16480,66.0,6,327,4.0,0.0
16481,62.0,10,795,3.0,0.0
16482,69.0,46,325,2.0,0.0
16483,69.0,8,161,0.0,0.0
16484,74.0,31,37,0.0,0.0
16485,76.0,50,24,0.0,0.0
16486,74.0,21,40,0.0,0.0
16487,76.0,1,35,0.0,0.0
16488,74.0,32,40,0.0,0.0
16489,73.0,63,38,0.0,0.0
16490,74.0,6,56,0.0,0.0
16491,67.0,45,508,4.0,0.0
16492,59.0,1,764,5.0,0.0
16493,76.0,43,57,0.0,0.0
16494,67.0,11,750,2.0,0.0
16495,59.0,15,219,0.0,0.0
16496,62.0,9,232,0.0,0.0
16497,67.0,0,222,0.0,0.0
16498,78.0,101,48,0.0,0.0
16499,79.0,22,92,0.0,0.0
16500,81.0,7,60,0.0,0.0
16501,83.0,93,45,0.0,0.0
16502,84.0,11,84,0.0,0.0
16503,86.0,45,40,0.0,0.0
16504,95.0,73,34,0.0,0.0
16505,60.0,31,834,3.0,0.0
16506,59.0,36,123,0.0,0.0
16507,60.0,10,112,0.0,0.0
16508,64.0,2,317,4.0,0.0
16509,64.0,0,76,0.0,0.0
16510,67.0,6,65,0.0,0.0
16511,72.0,14,37,0.0,0.0
16512,74.0,5,25,0.0,0.0
16513,72.0,20,36,0.0,0.0
16514,74.0,46,34,0.0,0.0
16515,72.0,39,43,0.0,0.0
16516,71.0,23,42,0.0,0.0
16517,57.0,16,342,0.0,0.0
16518,60.0,29,38,0.0,0.0
16519,72.0,59,65,0.0,0.0
16520,64.0,8,302,0.0,0.0
16521,66.0,17,806,2.0,0.0
16522,66.0,58,494,4.0,0.0
16523,57.0,29,765,5.0,0.0
16524,66.0,6,279,0.0,0.0
16525,74.0,55,67,0.0,0.0
16526,76.0,34,70,0.0,0.0
16527,78.0,64,46,0.0,0.0
16528,79.0,25,62,0.0,0.0
16529,81.0,32,64,0.0,0.0
16530,83.0,60,46,0.0,0.0
16531,84.0,36,54,0.0,0.0
16532,93.0,51,28,0.0,0.0
16533,57.0,24,200,0.0,0.0
16534,59.0,18,165,0.0,0.0
16535,63.0,44,362,4.0,0.0
16536,59.0,3,854,3.0,0.0
16537,63.0,7,132,0.0,0.0
16538,66.0,5,104,0.0,0.0
16539,71.0,24,37,0.0,0.0
16540,72.0,22,27,0.0,0.0
16541,71.0,34,101,0.0,0.0
16542,72.0,35,26,0.0,0.0
16543,70.0,16,40,0.0,0.0
16544,64.0,20,594,2.0,0.0
16545,71.0,32,54,0.0,0.0
16546,55.0,2,578,5.0,0.0
16547,64.0,31,441,4.0,0.0
16548,59.0,2,292,0.0,0.0
16549,55.0,10,292,0.0,0.0
16550,73.0,39,75,0.0,0.0
16551,64.0,65,290,0.0,0.0
16552,75.0,68,60,0.0,0.0
16553,76.0,57,66,0.0,0.0
16554,78.0,39,60,0.0,0.0
16555,79.0,1,54,0.0,0.0
16556,81.0,57,57,0.0,0.0
16557,83.0,7,54,0.0,0.0
16558,91.0,72,34,0.0,0.0
16559,57.0,4,62,0.0,0.0
16560,61.0,79,570,3.0,0.0
16561,61.0,3,57,0.0,0.0
16562,67.0,37,57,0.0,0.0
16563,57.0,38,983,4.0,0.0
16564,57.0,41,929,5.0,0.0
16565,67.0,124,1016,2.0,0.0
16566,45.0,58,870,6.0,0.0
16567,76.0,69,82,0.0,0.0
16568,78.0,69,82,0.0,0.0
16569,79.0,37,90,0.0,0.0
16570,80.0,75,59,0.0,0.0
16571,81.0,67,72,0.0,0.0
16572,83.0,39,76,0.0,0.0
16573,85.0,71,52,0.0,0.0
16574,86.0,37,61,0.0,0.0
16575,64.0,9,437,3.0,0.0
16576,33.0,46,162,0.0,0.0
16577,45.0,44,207,0.0,0.0
16578,88.0,60,83,0.0,0.0
16579,90.0,13,64,0.0,0.0
16580,91.0,68,86,0.0,0.0
16581,97.0,10,55,0.0,0.0
16582,38.0,7,1830,6.0,0.0
16583,50.0,23,1827,5.0,0.0
16584,50.0,1,240,0.0,0.0
16585,98.0,24,214,0.0,0.0
16586,38.0,6,208,0.0,0.0
16587,62.0,7,299,4.0,0.0
16588,62.0,47,234,3.0,0.0
16589,66.0,10,208,2.0,0.0
16590,90.0,10,154,0.0,0.0
16591,86.0,93,74,0.0,0.0
16592,93.0,35,89,0.0,0.0
16593,62.0,49,92,0.0,0.0
16594,97.0,37,48,0.0,0.0
16595,89.0,24,62,0.0,0.0
16596,68.0,40,78,0.0,0.0
16597,71.0,53,47,0.0,0.0
16598,83.0,2,41,0.0,0.0
16599,77.0,12,31,0.0,0.0
16600,92.0,63,40,0.0,0.0
16601,62.0,69,71,0.0,0.0
16602,96.0,33,37,0.0,0.0
16603,88.0,21,98,0.0,0.0
16604,67.0,22,66,0.0,0.0
16605,70.0,0,48,0.0,0.0
16606,82.0,37,46,0.0,0.0
16607,76.0,33,30,0.0,0.0
16608,91.0,42,60,0.0,0.0
16609,95.0,15,50,0.0,0.0
16610,62.0,56,64,0.0,0.0
16611,66.0,12,59,0.0,0.0
16612,87.0,31,66,0.0,0.0
16613,69.0,36,51,0.0,0.0
16614,81.0,7,42,0.0,0.0
16615,75.0,44,32,0.0,0.0
16616,90.0,50,68,0.0,0.0
16617,62.0,58,84,0.0,0.0
16618,94.0,12,61,0.0,0.0
16619,86.0,0,79,0.0,0.0
16620,65.0,20,70,0.0,0.0
16621,80.0,29,45,0.0,0.0
16622,68.0,23,67,0.0,0.0
16623,89.0,39,65,0.0,0.0
16624,74.0,20,45,0.0,0.0
16625,93.0,14,51,0.0,0.0
16626,62.0,57,58,0.0,0.0
16627,85.0,14,85,0.0,0.0
16628,64.0,14,64,0.0,0.0
16629,79.0,10,48,0.0,0.0
16630,67.0,33,51,0.0,0.0
16631,88.0,51,63,0.0,0.0
16632,73.0,19,33,0.0,0.0
16633,62.0,57,69,0.0,0.0
16634,92.0,11,55,0.0,0.0
16635,63.0,2,73,0.0,0.0
16636,84.0,24,70,0.0,0.0
16637,78.0,12,43,0.0,0.0
16638,66.0,38,51,0.0,0.0
16639,72.0,12,47,0.0,0.0
16640,87.0,18,64,0.0,0.0
16641,91.0,39,53,0.0,0.0
16642,62.0,36,90,0.0,0.0
16643,83.0,12,72,0.0,0.0
16644,65.0,21,65,0.0,0.0
16645,77.0,43,48,0.0,0.0
16646,71.0,18,42,0.0,0.0
16647,86.0,40,50,0.0,0.0
16648,90.0,85,66,0.0,0.0
16649,62.0,33,32,0.0,0.0
16650,82.0,11,82,0.0,0.0
16651,76.0,96,42,0.0,0.0
16652,70.0,5,34,0.0,0.0
16653,85.0,39,75,0.0,0.0
16654,62.0,51,154,0.0,0.0
16655,89.0,74,44,0.0,0.0
16656,81.0,24,67,0.0,0.0
16657,69.0,36,113,0.0,0.0
16658,75.0,11,43,0.0,0.0
16659,84.0,1,61,0.0,0.0
16660,88.0,86,49,0.0,0.0
16661,62.0,14,123,0.0,0.0
16662,80.0,41,97,0.0,0.0
16663,74.0,5,48,0.0,0.0
16664,68.0,37,85,0.0,0.0
16665,83.0,40,78,0.0,0.0
16666,87.0,90,58,0.0,0.0
16667,62.0,25,146,0.0,0.0
16668,79.0,1,85,0.0,0.0
16669,67.0,30,125,0.0,0.0
16670,73.0,67,55,0.0,0.0
16671,82.0,95,95,0.0,0.0
16672,38.0,48,716,6.0,0.0
16673,66.0,17,153,0.0,0.0
16674,62.0,26,179,0.0,0.0
16675,86.0,41,111,0.0,0.0
16676,50.0,71,750,5.0,0.0
16677,78.0,10,56,0.0,0.0
16678,72.0,74,28,0.0,0.0
16679,69.0,50,49,0.0,0.0
16680,74.0,49,49,0.0,0.0
16681,66.0,41,37,0.0,0.0
16682,60.0,73,27,0.0,0.0
16683,57.0,51,58,0.0,0.0
16684,62.0,44,56,0.0,0.0
16685,57.0,39,53,0.0,0.0
16686,54.0,55,39,0.0,0.0
16687,48.0,23,49,0.0,0.0
16688,57.0,7,2467,4.0,0.0
16689,67.0,27,791,3.0,0.0
16690,55.0,50,108,0.0,0.0
16691,72.0,12,774,2.0,0.0
16692,51.0,32,740,5.0,0.0
16693,51.0,8,551,0.0,0.0
16694,39.0,3,730,6.0,0.0
16695,39.0,37,557,0.0,0.0
16696,60.0,27,60,0.0,0.0
16697,57.0,63,31,0.0,0.0
16698,60.0,82,41,0.0,0.0
16699,67.0,51,62,0.0,0.0
16700,72.0,20,64,0.0,0.0
16701,69.0,52,34,0.0,0.0
16702,72.0,105,24,0.0,0.0
16703,79.0,3,74,0.0,0.0
16704,84.0,50,63,0.0,0.0
16705,81.0,18,69,0.0,0.0
16706,84.0,66,35,0.0,0.0
16707,50.0,12,397,0.0,0.0
16708,86.0,56,101,0.0,0.0
16709,50.0,4,745,5.0,0.0
16710,38.0,5,542,0.0,0.0
16711,66.0,19,725,3.0,0.0
16712,74.0,76,763,2.0,0.0
16713,38.0,18,744,6.0,0.0
16714,78.0,38,46,0.0,0.0
16715,72.0,58,18,0.0,0.0
16716,69.0,65,38,0.0,0.0
16717,74.0,49,55,0.0,0.0
16718,66.0,30,39,0.0,0.0
16719,60.0,71,27,0.0,0.0
16720,57.0,66,45,0.0,0.0
16721,62.0,37,61,0.0,0.0
16722,57.0,74,45,0.0,0.0
16723,54.0,25,59,0.0,0.0
16724,48.0,43,33,0.0,0.0
16725,67.0,55,1057,3.0,0.0
16726,75.0,6,2099,2.0,0.0
16727,36.0,11,1017,6.0,0.0
16728,48.0,10,1003,5.0,0.0
16729,55.0,45,123,0.0,0.0
16730,48.0,29,746,0.0,0.0
16731,36.0,52,772,0.0,0.0
16732,63.0,41,67,0.0,0.0
16733,57.0,56,38,0.0,0.0
16734,60.0,88,27,0.0,0.0
16735,67.0,59,53,0.0,0.0
16736,75.0,33,57,0.0,0.0
16737,69.0,66,33,0.0,0.0
16738,72.0,97,40,0.0,0.0
16739,79.0,66,62,0.0,0.0
16740,87.0,62,54,0.0,0.0
16741,81.0,19,35,0.0,0.0
16742,84.0,167,34,0.0,0.0
16743,42.0,5,895,6.0,0.0
16744,42.0,9,914,5.0,0.0
16745,42.0,188,140,0.0,0.0
16746,30.0,16,113,0.0,0.0
16747,99.0,9,128,0.0,0.0
16748,60.0,37,315,4.0,0.0
16749,69.0,5,1225,3.0,0.0
16750,96.0,105,86,0.0,0.0
16751,93.0,9,91,0.0,0.0
16752,54.0,86,50,0.0,0.0
16753,90.0,74,112,0.0,0.0
16754,60.0,79,465,0.0,0.0
16755,63.0,13,409,0.0,0.0
16756,87.0,26,97,0.0,0.0
16757,69.0,67,259,0.0,0.0
16758,84.0,122,32,0.0,0.0
16759,81.0,16,76,0.0,0.0
16760,78.0,20,86,0.0,0.0
16761,75.0,15,46,0.0,0.0
16762,72.0,7,29,0.0,0.0
16763,69.0,42,50,0.0,0.0
16764,66.0,51,43,0.0,0.0
16765,63.0,41,43,0.0,0.0
16766,60.0,81,36,0.0,0.0
16767,57.0,51,56,0.0,0.0
16768,54.0,74,53,0.0,0.0
16769,51.0,63,57,0.0,0.0
16770,48.0,126,59,0.0,0.0
16771,45.0,161,106,0.0,0.0
16772,43.0,105,184,0.0,0.0
16773,42.0,311,437,0.0,0.0
16774,69.0,68,137,0.0,0.0
16775,70.0,50,95,0.0,0.0
16776,69.0,43,70,0.0,0.0
16777,68.0,121,52,0.0,0.0
16778,69.0,11,120,0.0,0.0
16779,39.0,19,367,0.0,0.0
16780,70.0,126,372,0.0,0.0
16781,72.0,290,156,0.0,0.0
16782,38.0,281,2205,6.0,0.0
16783,38.0,23,263,0.0,0.0
16784,57.0,10,2500,4.0,0.0
16785,50.0,54,2430,5.0,0.0
16786,72.0,512,241,0.0,0.0
16787,60.0,583,1107,3.0,0.0
16788,66.0,1010,2444,2.0,0.0
16789,50.0,23,172,0.0,0.0
16790,57.0,11,118,0.0,0.0
16791,60.0,208,68,0.0,0.0
16792,66.0,113,192,0.0,0.0
16793,76.0,412,100,0.0,0.0
16794,75.0,42,78,0.0,0.0
16795,74.0,781,801,0.0,0.0
16796,62.0,840,212,0.0,0.0
16797,43.0,41,425,0.0,0.0
16798,74.0,101,384,0.0,0.0
16799,50.0,297,158,0.0,0.0
16800,74.0,148,358,0.0,0.0
16801,59.0,91,265,0.0,0.0
16802,50.0,2,63,0.0,0.0
16803,76.0,65,122,0.0,0.0
16804,60.0,50,176,0.0,0.0
16805,50.0,115,48,0.0,0.0
16806,78.0,234,92,0.0,0.0
16807,43.0,52,229,0.0,0.0
16808,79.0,27,271,0.0,0.0
16809,50.0,194,96,0.0,0.0
16810,59.0,5,157,0.0,0.0
16811,79.0,144,159,0.0,0.0
16812,50.0,77,163,0.0,0.0
16813,81.0,214,102,0.0,0.0
16814,60.0,6,92,0.0,0.0
16815,50.0,164,172,0.0,0.0
16816,43.0,31,203,0.0,0.0
16817,83.0,244,226,0.0,0.0
16818,50.0,21,46,0.0,0.0
16819,81.0,138,186,0.0,0.0
16820,62.0,71,108,0.0,0.0
16821,79.0,133,164,0.0,0.0
16822,50.0,21,140,0.0,0.0
16823,78.0,44,151,0.0,0.0
16824,59.0,4,141,0.0,0.0
16825,76.0,209,179,0.0,0.0
16826,50.0,127,44,0.0,0.0
16827,78.0,144,689,0.0,0.0
16828,38.0,77,193,0.0,0.0
16829,50.0,346,88,0.0,0.0
16830,57.0,39,272,0.0,0.0
16831,54.0,18,143,0.0,0.0
16832,62.0,247,150,0.0,0.0
16833,50.0,226,241,0.0,0.0
16834,48.0,24,246,0.0,0.0
16835,76.0,54,228,0.0,0.0
16836,55.0,175,74,0.0,0.0
16837,78.0,69,96,0.0,0.0
16838,64.0,16,114,0.0,0.0
16839,76.0,157,85,0.0,0.0
16840,54.0,35,96,0.0,0.0
16841,74.0,14,51,0.0,0.0
16842,47.0,149,62,0.0,0.0
16843,74.0,6,127,0.0,0.0
16844,62.0,73,110,0.0,0.0
16845,55.0,139,30,0.0,0.0
16846,71.0,255,106,0.0,0.0
16847,45.0,37,405,0.0,0.0
16848,74.0,86,308,0.0,0.0
16849,52.0,44,118,0.0,0.0
16850,54.0,178,158,0.0,0.0
16851,72.0,138,321,0.0,0.0
16852,50.0,0,178,0.0,0.0
16853,43.0,290,203,0.0,0.0
16854,71.0,1,183,0.0,0.0
16855,55.0,11,43,0.0,0.0
16856,36.0,75,165,0.0,0.0
16857,71.0,136,474,0.0,0.0
16858,48.0,238,51,0.0,0.0
16859,54.0,15,290,0.0,0.0
16860,69.0,19,171,0.0,0.0
16861,57.0,91,176,0.0,0.0
16862,67.0,184,195,0.0,0.0
16863,64.0,83,93,0.0,0.0
16864,54.0,284,220,0.0,0.0
16865,69.0,14,204,0.0,0.0
16866,47.0,283,712,0.0,0.0
16867,66.0,34,1000,0.0,0.0
16868,54.0,195,137,0.0,0.0
16869,63.0,51,181,0.0,0.0
16870,54.0,137,88,0.0,0.0
16871,60.0,15,631,3.0,0.0
16872,45.0,33,632,5.0,0.0
16873,45.0,154,354,0.0,0.0
16874,62.0,214,638,2.0,0.0
16875,62.0,15,289,0.0,0.0
16876,50.0,11,328,0.0,0.0
16877,60.0,31,234,0.0,0.0
16878,67.0,45,151,0.0,0.0
16879,59.0,10,500,3.0,0.0
16880,43.0,8,499,5.0,0.0
16881,43.0,51,391,0.0,0.0
16882,62.0,47,3979,15.0,0.0
16883,67.0,2,455,2.0,0.0
16884,59.0,30,230,0.0,0.0
16885,67.0,63,257,0.0,0.0
16886,50.0,40,162,0.0,0.0
16887,55.0,121,57,0.0,0.0
16888,71.0,63,149,0.0,0.0
16889,62.0,224,60,0.0,0.0
16890,72.0,12,146,0.0,0.0
16891,69.0,190,150,0.0,0.0
16892,62.0,27,214,0.0,0.0
16893,74.0,32,127,0.0,0.0
16894,71.0,34,152,0.0,0.0
16895,76.0,25,26,0.0,0.0
16896,62.0,20,44,0.0,0.0
16897,74.0,41,44,0.0,0.0
16898,73.0,74,39,0.0,0.0
16899,74.0,188,74,0.0,0.0
16900,72.0,39,172,0.0,0.0
16901,76.0,43,209,0.0,0.0
16902,62.0,107,38,0.0,0.0
16903,78.0,128,141,0.0,0.0
16904,79.0,38,133,0.0,0.0
16905,60.0,7,124,0.0,0.0
16906,81.0,263,125,0.0,0.0
16907,50.0,79,41,0.0,0.0
16908,43.0,16,235,0.0,0.0
16909,83.0,26,210,0.0,0.0
16910,50.0,299,40,0.0,0.0
16911,62.0,46,143,0.0,0.0
16912,81.0,15,120,0.0,0.0
16913,83.0,63,67,0.0,0.0
16914,81.0,62,52,0.0,0.0
16915,50.0,24,247,0.0,0.0
16916,79.0,68,44,0.0,0.0
16917,81.0,47,60,0.0,0.0
16918,83.0,41,47,0.0,0.0
16919,79.0,57,54,0.0,0.0
16920,59.0,55,178,0.0,0.0
16921,78.0,63,49,0.0,0.0
16922,79.0,35,47,0.0,0.0
16923,78.0,5,49,0.0,0.0
16924,76.0,39,59,0.0,0.0
16925,50.0,11,44,0.0,0.0
16926,78.0,51,51,0.0,0.0
16927,79.0,56,57,0.0,0.0
16928,76.0,136,55,0.0,0.0
16929,38.0,21,155,0.0,0.0
16930,78.0,48,163,0.0,0.0
16931,50.0,295,45,0.0,0.0
16932,57.0,92,203,0.0,0.0
16933,54.0,53,160,0.0,0.0
16934,57.0,234,351,15.0,0.0
16935,62.0,238,105,0.0,0.0
16936,50.0,7,203,0.0,0.0
16937,48.0,38,275,0.0,0.0
16938,60.0,19,296,15.0,0.0
16939,76.0,62,128,0.0,0.0
16940,55.0,66,184,0.0,0.0
16941,55.0,70,274,15.0,0.0
16942,64.0,169,77,0.0,0.0
16943,78.0,24,44,0.0,0.0
16944,57.0,110,231,15.0,0.0
16945,54.0,32,120,0.0,0.0
16946,76.0,16,88,0.0,0.0
16947,74.0,12,66,0.0,0.0
16948,47.0,51,60,0.0,0.0
16949,74.0,44,636,0.0,0.0
16950,62.0,54,124,0.0,0.0
16951,59.0,244,653,15.0,0.0
16952,55.0,309,26,0.0,0.0
16953,45.0,22,195,0.0,0.0
16954,52.0,111,50,0.0,0.0
16955,54.0,4,314,0.0,0.0
16956,72.0,8,329,0.0,0.0
16957,57.0,166,330,15.0,0.0
16958,62.0,19,165,0.0,0.0
16959,71.0,184,223,0.0,0.0
16960,55.0,5,208,0.0,0.0
16961,55.0,219,385,15.0,0.0
16962,62.0,5,35,0.0,0.0
16963,38.0,4,1173,6.0,0.0
16964,66.0,84,850,2.0,0.0
16965,60.0,21,1126,3.0,0.0
16966,71.0,24,245,0.0,0.0
16967,50.0,37,1161,5.0,0.0
16968,38.0,13,225,0.0,0.0
16969,50.0,187,1182,15.0,0.0
16970,50.0,180,39,0.0,0.0
16971,69.0,164,213,0.0,0.0
16972,54.0,13,335,0.0,0.0
16973,78.0,139,172,0.0,0.0
16974,76.0,70,162,0.0,0.0
16975,60.0,7,127,0.0,0.0
16976,69.0,16,394,2.0,0.0
16977,72.0,38,170,0.0,0.0
16978,64.0,11,148,0.0,0.0
16979,66.0,12,187,0.0,0.0
16980,62.0,136,47,0.0,0.0
16981,59.0,67,457,3.0,0.0
16982,67.0,38,395,2.0,0.0
16983,43.0,2,372,6.0,0.0
16984,43.0,12,371,5.0,0.0
16985,43.0,68,257,0.0,0.0
16986,67.0,8,1127,0.0,0.0
16987,55.0,10,392,15.0,0.0
16988,50.0,32,136,0.0,0.0
16989,55.0,194,140,0.0,0.0
16990,59.0,305,180,0.0,0.0
16991,62.0,147,312,0.0,0.0
16992,55.0,242,261,0.0,0.0
16993,50.0,2,1514,0.0,0.0
16994,66.0,266,225,0.0,0.0
16995,57.0,159,244,0.0,0.0
16996,78.0,45,201,0.0,0.0
16997,62.0,16,238,0.0,0.0
16998,66.0,17,166,0.0,0.0
16999,57.0,254,52,0.0,0.0
17000,58.0,103,203,0.0,0.0
17001,79.0,33,167,0.0,0.0
17002,67.0,19,131,0.0,0.0
17003,62.0,177,150,0.0,0.0
17004,81.0,5,221,0.0,0.0
17005,54.0,31,188,0.0,0.0
17006,69.0,93,215,0.0,0.0
17007,57.0,11,166,0.0,0.0
17008,81.0,6,153,0.0,0.0
17009,69.0,20,153,0.0,0.0
17010,57.0,3,50,4.0,0.0
17011,62.0,24,122,0.0,0.0
17012,50.0,7,31,5.0,0.0
17013,66.0,3,32,3.0,0.0
17014,74.0,69,29,2.0,0.0
17015,57.0,146,47,0.0,0.0
17016,66.0,49,70,0.0,0.0
17017,81.0,114,118,0.0,0.0
17018,69.0,4,43,0.0,0.0
17019,57.0,7,43,4.0,0.0
17020,66.0,2,29,3.0,0.0
17021,50.0,0,27,5.0,0.0
17022,74.0,10,36,2.0,0.0
17023,57.0,200,75,0.0,0.0
17024,76.0,1,88,2.0,0.0
17025,55.0,62,344,0.0,0.0
17026,67.0,0,74,3.0,0.0
17027,58.0,17,74,4.0,0.0
17028,49.0,144,87,5.0,0.0
17029,49.0,24,227,0.0,0.0
17030,82.0,73,256,0.0,0.0
17031,70.0,7,223,0.0,0.0
17032,58.0,56,160,0.0,0.0
17033,81.0,42,61,0.0,0.0
17034,69.0,51,97,0.0,0.0
17035,64.0,50,140,0.0,0.0
17036,58.0,39,150,0.0,0.0
17037,79.0,10,39,0.0,0.0
17038,67.0,93,42,0.0,0.0
17039,78.0,0,48,0.0,0.0
17040,66.0,103,42,0.0,0.0
17041,55.0,10,134,0.0,0.0
17042,76.0,31,49,0.0,0.0
17043,64.0,10,36,0.0,0.0
17044,58.0,324,63,0.0,0.0
17045,50.0,7,752,0.0,0.0
17046,79.0,50,274,0.0,0.0
17047,67.0,37,234,0.0,0.0
17048,57.0,97,147,0.0,0.0
17049,62.0,177,127,0.0,0.0
17050,57.0,6,172,0.0,0.0
17051,78.0,27,515,0.0,0.0
17052,66.0,9,494,0.0,0.0
17053,62.0,35,124,0.0,0.0
17054,50.0,7,26,5.0,0.0
17055,62.0,10,30,4.0,0.0
17056,57.0,0,27,3.0,0.0
17057,66.0,75,32,2.0,0.0
17058,57.0,173,29,0.0,0.0
17059,50.0,17,33,5.0,0.0
17060,57.0,6,47,3.0,0.0
17061,38.0,51,213,0.0,0.0
17062,62.0,2,45,4.0,0.0
17063,66.0,129,45,2.0,0.0
17064,50.0,224,41,0.0,0.0
17065,57.0,120,165,0.0,0.0
17066,78.0,28,122,0.0,0.0
17067,66.0,33,89,0.0,0.0
17068,62.0,58,125,0.0,0.0
17069,67.0,34,61,0.0,0.0
17070,79.0,61,94,0.0,0.0
17071,58.0,114,152,0.0,0.0
17072,62.0,211,135,0.0,0.0
17073,54.0,2,438,0.0,0.0
17074,81.0,3,220,0.0,0.0
17075,69.0,88,222,0.0,0.0
17076,57.0,95,170,0.0,0.0
17077,81.0,17,143,0.0,0.0
17078,62.0,8,135,0.0,0.0
17079,69.0,50,160,0.0,0.0
17080,57.0,103,89,0.0,0.0
17081,81.0,176,119,0.0,0.0
17082,69.0,23,94,0.0,0.0
17083,66.0,20,60,0.0,0.0
17084,74.0,41,299,2.0,0.0
17085,50.0,2,329,5.0,0.0
17086,66.0,150,316,3.0,0.0
17087,57.0,25,151,0.0,0.0
17088,76.0,91,680,2.0,0.0
17089,49.0,21,234,0.0,0.0
17090,55.0,64,319,0.0,0.0
17091,49.0,163,924,5.0,0.0
17092,67.0,37,597,3.0,0.0
17093,82.0,0,206,0.0,0.0
17094,70.0,67,204,0.0,0.0
17095,58.0,29,154,0.0,0.0
17096,81.0,12,45,0.0,0.0
17097,69.0,75,52,0.0,0.0
17098,64.0,40,117,0.0,0.0
17099,58.0,3,129,0.0,0.0
17100,79.0,80,47,0.0,0.0
17101,67.0,4,36,0.0,0.0
17102,55.0,7,152,0.0,0.0
17103,78.0,7,47,0.0,0.0
17104,66.0,6,40,0.0,0.0
17105,76.0,55,36,0.0,0.0
17106,64.0,5,22,0.0,0.0
17107,58.0,95,83,0.0,0.0
17108,50.0,26,826,0.0,0.0
17109,79.0,15,178,0.0,0.0
17110,67.0,23,187,0.0,0.0
17111,57.0,306,48,0.0,0.0
17112,57.0,1,430,4.0,0.0
17113,50.0,66,929,5.0,0.0
17114,66.0,66,414,3.0,0.0
17115,74.0,18,381,2.0,0.0
17116,62.0,11,179,0.0,0.0
17117,78.0,170,179,0.0,0.0
17118,66.0,11,153,0.0,0.0
17119,57.0,1,278,0.0,0.0
17120,60.0,50,238,0.0,0.0
17121,79.0,40,176,0.0,0.0
17122,67.0,22,153,0.0,0.0
17123,72.0,82,484,2.0,0.0
17124,62.0,235,791,3.0,0.0
17125,62.0,97,376,4.0,0.0
17126,50.0,101,42,0.0,0.0
17127,81.0,15,72,0.0,0.0
17128,69.0,12,59,0.0,0.0
17129,43.0,38,247,0.0,0.0
17130,71.0,29,348,0.0,0.0
17131,83.0,30,609,0.0,0.0
17132,62.0,24,3814,4.0,0.0
17133,55.0,60,1182,5.0,0.0
17134,71.0,3,619,2.0,0.0
17135,55.0,97,51,0.0,0.0
17136,67.0,61,324,3.0,0.0
17137,62.0,9,284,0.0,0.0
17138,67.0,1,173,0.0,0.0
17139,84.0,0,167,0.0,0.0
17140,72.0,42,119,0.0,0.0
17141,69.0,108,161,0.0,0.0
17142,72.0,27,265,2.0,0.0
17143,69.0,50,276,3.0,0.0
17144,62.0,56,215,0.0,0.0
17145,74.0,13,346,2.0,0.0
17146,71.0,133,183,0.0,0.0
17147,86.0,24,157,0.0,0.0
17148,71.0,15,314,3.0,0.0
17149,74.0,13,142,0.0,0.0
17150,62.0,59,305,0.0,0.0
17151,69.0,11,405,3.0,0.0
17152,72.0,211,760,2.0,0.0
17153,50.0,11,677,5.0,0.0
17154,76.0,10,93,0.0,0.0
17155,88.0,32,103,0.0,0.0
17156,72.0,41,190,0.0,0.0
17157,90.0,111,49,0.0,0.0
17158,78.0,16,30,0.0,0.0
17159,62.0,8,159,0.0,0.0
17160,66.0,9,341,3.0,0.0
17161,50.0,57,330,6.0,0.0
17162,91.0,58,38,0.0,0.0
17163,79.0,10,27,0.0,0.0
17164,72.0,73,93,0.0,0.0
17165,62.0,6,40,0.0,0.0
17166,93.0,122,40,0.0,0.0
17167,81.0,3,29,0.0,0.0
17168,71.0,249,1233,2.0,0.0
17169,67.0,5,1183,3.0,0.0
17170,55.0,52,727,5.0,0.0
17171,55.0,21,302,0.0,0.0
17172,43.0,8,1151,6.0,0.0
17173,95.0,29,225,0.0,0.0
17174,83.0,69,273,0.0,0.0
17175,62.0,53,116,0.0,0.0
17176,93.0,11,41,0.0,0.0
17177,71.0,78,94,0.0,0.0
17178,81.0,45,45,0.0,0.0
17179,91.0,14,32,0.0,0.0
17180,62.0,10,212,0.0,0.0
17181,79.0,117,38,0.0,0.0
17182,59.0,23,514,5.0,0.0
17183,86.0,175,58,0.0,0.0
17184,74.0,18,40,0.0,0.0
17185,59.0,1,226,0.0,0.0
17186,62.0,90,25,0.0,0.0
17187,88.0,87,57,0.0,0.0
17188,76.0,14,37,0.0,0.0
17189,66.0,10,943,3.0,0.0
17190,50.0,24,362,0.0,0.0
17191,50.0,25,330,6.0,0.0
17192,50.0,9,886,5.0,0.0
17193,69.0,226,633,2.0,0.0
17194,90.0,30,1167,0.0,0.0
17195,78.0,18,1186,0.0,0.0
17196,57.0,86,169,0.0,0.0
17197,62.0,62,108,0.0,0.0
17198,57.0,117,56,0.0,0.0
17199,66.0,14,48,0.0,0.0
17200,71.0,266,322,2.0,0.0
17201,50.0,3,193,0.0,0.0
17202,64.0,8,1136,3.0,0.0
17203,72.0,3,681,2.0,0.0
17204,48.0,14,454,0.0,0.0
17205,48.0,219,908,5.0,0.0
17206,55.0,46,1931,4.0,0.0
17207,55.0,90,142,0.0,0.0
17208,60.0,19,100,0.0,0.0
17209,88.0,21,15,0.0,0.0
17210,76.0,70,35,0.0,0.0
17211,55.0,103,90,0.0,0.0
17212,67.0,153,528,2.0,0.0
17213,64.0,154,49,0.0,0.0
17214,79.0,5,24,0.0,0.0
17215,67.0,18,23,0.0,0.0
17216,52.0,35,62,0.0,0.0
17217,81.0,5,46,0.0,0.0
17218,69.0,8,34,0.0,0.0
17219,71.0,149,1118,2.0,0.0
17220,43.0,61,455,0.0,0.0
17221,62.0,36,1035,3.0,0.0
17222,83.0,49,610,0.0,0.0
17223,71.0,95,511,0.0,0.0
17224,43.0,4,952,5.0,0.0
17225,50.0,120,152,0.0,0.0
17226,55.0,11,132,0.0,0.0
17227,50.0,19,58,0.0,0.0
17228,59.0,193,47,0.0,0.0
17229,43.0,113,76,0.0,0.0
17230,45.0,22,638,0.0,0.0
17231,83.0,8,99,0.0,0.0
17232,64.0,81,1421,2.0,0.0
17233,45.0,17,1374,5.0,0.0
17234,60.0,4,1391,3.0,0.0
17235,52.0,26,1393,4.0,0.0
17236,71.0,34,58,0.0,0.0
17237,84.0,42,82,0.0,0.0
17238,52.0,28,419,0.0,0.0
17239,83.0,91,40,0.0,0.0
17240,69.0,75,43,0.0,0.0
17241,81.0,71,49,0.0,0.0
17242,71.0,24,30,0.0,0.0
17243,83.0,62,49,0.0,0.0
17244,86.0,205,35,0.0,0.0
17245,74.0,3,29,0.0,0.0
17246,57.0,32,234,0.0,0.0
17247,52.0,15,199,0.0,0.0
17248,84.0,14,18,0.0,0.0
17249,72.0,137,27,0.0,0.0
17250,60.0,41,128,0.0,0.0
17251,64.0,13,22,0.0,0.0
17252,76.0,90,31,0.0,0.0
17253,52.0,24,22,0.0,0.0
17254,78.0,108,63,0.0,0.0
17255,66.0,25,33,0.0,0.0
17256,40.0,40,175,0.0,0.0
17257,67.0,132,1053,2.0,0.0
17258,40.0,84,370,5.0,0.0
17259,59.0,59,875,3.0,0.0
17260,79.0,67,662,0.0,0.0
17261,67.0,17,583,0.0,0.0
17262,64.0,44,898,4.0,0.0
17263,52.0,157,20,0.0,0.0
17264,59.0,30,48,0.0,0.0
17265,52.0,61,295,5.0,0.0
17266,55.0,154,33,0.0,0.0
17267,64.0,2,48,0.0,0.0
17268,50.0,57,395,5.0,0.0
17269,52.0,120,28,0.0,0.0
17270,57.0,69,509,4.0,0.0
17271,69.0,47,325,0.0,0.0
17272,49.0,12,486,5.0,0.0
17273,67.0,18,446,3.0,0.0
17274,76.0,15,279,0.0,0.0
17275,79.0,2,251,0.0,0.0
17276,76.0,42,519,2.0,0.0
17277,49.0,53,189,0.0,0.0
17278,81.0,11,238,0.0,0.0
17279,55.0,73,99,0.0,0.0
17280,57.0,25,27,0.0,0.0
17281,55.0,23,35,0.0,0.0
17282,69.0,57,54,0.0,0.0
17283,71.0,53,32,0.0,0.0
17284,69.0,35,54,0.0,0.0
17285,68.0,30,35,0.0,0.0
17286,64.0,30,59,0.0,0.0
17287,69.0,36,51,0.0,0.0
17288,71.0,31,46,0.0,0.0
17289,73.0,13,35,0.0,0.0
17290,57.0,45,26,0.0,0.0
17291,74.0,27,48,0.0,0.0
17292,76.0,35,34,0.0,0.0
17293,78.0,60,39,0.0,0.0
17294,79.0,117,58,0.0,0.0
17295,80.0,54,128,0.0,0.0
17296,48.0,13,856,0.0,0.0
17297,76.0,26,717,2.0,0.0
17298,48.0,192,1218,5.0,0.0
17299,57.0,41,1143,4.0,0.0
17300,66.0,26,1939,3.0,0.0
17301,81.0,38,67,0.0,0.0
17302,80.0,59,47,0.0,0.0
17303,54.0,122,176,0.0,0.0
17304,79.0,60,64,0.0,0.0
17305,80.0,20,85,0.0,0.0
17306,83.0,73,165,0.0,0.0
17307,57.0,33,357,0.0,0.0
17308,81.0,77,104,0.0,0.0
17309,54.0,20,187,0.0,0.0
17310,79.0,25,98,0.0,0.0
17311,74.0,91,440,2.0,0.0
17312,78.0,6,51,0.0,0.0
17313,62.0,19,151,0.0,0.0
17314,79.0,10,35,0.0,0.0
17315,78.0,33,45,0.0,0.0
17316,76.0,41,49,0.0,0.0
17317,78.0,17,58,0.0,0.0
17318,79.0,19,39,0.0,0.0
17319,54.0,152,45,0.0,0.0
17320,81.0,19,31,0.0,0.0
17321,47.0,47,330,0.0,0.0
17322,81.0,31,106,0.0,0.0
17323,74.0,31,1412,2.0,0.0
17324,55.0,73,1909,4.0,0.0
17325,74.0,31,421,0.0,0.0
17326,47.0,81,1797,5.0,0.0
17327,54.0,112,168,0.0,0.0
17328,55.0,77,177,0.0,0.0
17329,54.0,103,140,0.0,0.0
17330,62.0,200,117,0.0,0.0
17331,54.0,148,222,0.0,0.0
17332,47.0,27,343,0.0,0.0
17333,64.0,39,1924,3.0,0.0
17334,81.0,77,215,0.0,0.0
17335,52.0,35,193,0.0,0.0
17336,79.0,9,142,0.0,0.0
17337,78.0,87,76,0.0,0.0
17338,55.0,14,345,0.0,0.0
17339,76.0,33,47,0.0,0.0
17340,52.0,8,241,0.0,0.0
17341,78.0,51,42,0.0,0.0
17342,76.0,35,47,0.0,0.0
17343,75.0,34,33,0.0,0.0
17344,72.0,36,436,2.0,0.0
17345,60.0,45,200,0.0,0.0
17346,76.0,94,79,0.0,0.0
17347,78.0,23,119,0.0,0.0
17348,52.0,88,25,0.0,0.0
17349,79.0,71,57,0.0,0.0
17350,79.0,10,90,0.0,0.0
17351,45.0,80,238,0.0,0.0
17352,45.0,46,1925,5.0,0.0
17353,54.0,78,1955,4.0,0.0
17354,72.0,63,258,0.0,0.0
17355,72.0,39,1524,2.0,0.0
17356,52.0,121,165,0.0,0.0
17357,54.0,84,167,0.0,0.0
17358,52.0,100,139,0.0,0.0
17359,79.0,96,449,0.0,0.0
17360,60.0,193,110,0.0,0.0
17361,52.0,102,162,0.0,0.0
17362,45.0,37,323,0.0,0.0
17363,63.0,13,1070,3.0,0.0
17364,78.0,58,132,0.0,0.0
17365,51.0,63,194,0.0,0.0
17366,76.0,15,109,0.0,0.0
17367,54.0,46,216,0.0,0.0
17368,75.0,62,88,0.0,0.0
17369,76.0,38,53,0.0,0.0
17370,75.0,22,47,0.0,0.0
17371,51.0,42,212,0.0,0.0
17372,73.0,40,63,0.0,0.0
17373,75.0,55,62,0.0,0.0
17374,76.0,6,80,0.0,0.0
17375,71.0,43,795,2.0,0.0
17376,59.0,30,190,0.0,0.0
17377,78.0,58,101,0.0,0.0
17378,71.0,71,91,0.0,0.0
17379,51.0,45,88,0.0,0.0
17380,74.0,14,68,0.0,0.0
17381,72.0,17,68,0.0,0.0
17382,71.0,78,41,0.0,0.0
17383,43.0,94,201,0.0,0.0
17384,71.0,24,306,0.0,0.0
17385,64.0,31,300,3.0,0.0
17386,43.0,28,326,5.0,0.0
17387,55.0,2,217,4.0,0.0
17388,47.0,18,138,0.0,0.0
17389,52.0,12,60,0.0,0.0
17390,59.0,182,47,0.0,0.0
17391,39.0,27,478,5.0,0.0
17392,59.0,37,1492,3.0,0.0
17393,54.0,5,503,4.0,0.0
17394,69.0,9,460,2.0,0.0
17395,69.0,58,115,0.0,0.0
17396,39.0,47,68,0.0,0.0
17397,71.0,57,36,0.0,0.0
17398,69.0,24,31,0.0,0.0
17399,71.0,15,30,0.0,0.0
17400,59.0,36,43,0.0,0.0
17401,69.0,43,41,0.0,0.0
17402,67.0,47,41,0.0,0.0
17403,69.0,26,61,0.0,0.0
17404,71.0,34,33,0.0,0.0
17405,69.0,2,42,0.0,0.0
17406,67.0,140,1154,2.0,0.0
17407,67.0,229,41,0.0,0.0
17408,40.0,0,1052,5.0,0.0
17409,52.0,31,1247,4.0,0.0
17410,40.0,26,321,0.0,0.0
17411,67.0,113,199,0.0,0.0
17412,47.0,79,142,0.0,0.0
17413,64.0,147,270,7.0,0.0
17414,52.0,185,79,0.0,0.0
17415,47.0,186,309,0.0,0.0
17416,59.0,14,139,0.0,0.0
17417,64.0,3,295,7.0,0.0
17418,52.0,61,210,0.0,0.0
17419,45.0,131,277,0.0,0.0
17420,60.0,75,534,3.0,0.0
17421,45.0,24,415,5.0,0.0
17422,66.0,69,418,2.0,0.0
17423,66.0,103,587,0.0,0.0
17424,64.0,122,1691,7.0,0.0
17425,52.0,45,166,0.0,0.0
17426,54.0,31,263,0.0,0.0
17427,52.0,9,297,0.0,0.0
17428,64.0,93,172,0.0,0.0
17429,60.0,17,137,0.0,0.0
17430,54.0,0,119,0.0,0.0
17431,66.0,174,50,0.0,0.0
17432,47.0,26,271,0.0,0.0
17433,47.0,33,349,5.0,0.0
17434,62.0,17,411,3.0,0.0
17435,66.0,84,133,0.0,0.0
17436,64.0,26,315,4.0,0.0
17437,68.0,31,411,2.0,0.0
17438,68.0,48,78,0.0,0.0
17439,52.0,19,146,0.0,0.0
17440,69.0,8,59,0.0,0.0
17441,68.0,3,40,0.0,0.0
17442,59.0,0,105,0.0,0.0
17443,69.0,30,32,0.0,0.0
17444,68.0,3,37,0.0,0.0
17445,52.0,9,250,0.0,0.0
17446,69.0,42,36,0.0,0.0
17447,68.0,46,38,0.0,0.0
17448,69.0,33,51,0.0,0.0
17449,68.0,48,43,0.0,0.0
17450,65.0,250,1388,7.0,0.0
17451,62.0,19,98,0.0,0.0
17452,69.0,20,47,0.0,0.0
17453,68.0,43,51,0.0,0.0
17454,53.0,13,40,0.0,0.0
17455,66.0,65,51,0.0,0.0
17456,68.0,112,84,0.0,0.0
17457,69.0,76,223,0.0,0.0
17458,48.0,56,824,0.0,0.0
17459,60.0,25,355,3.0,0.0
17460,65.0,38,292,4.0,0.0
17461,48.0,349,2300,6.0,0.0
17462,48.0,6,327,5.0,0.0
17463,69.0,22,357,2.0,0.0
17464,53.0,26,154,0.0,0.0
17465,57.0,2,353,0.0,0.0
17466,70.0,15,88,0.0,0.0
17467,69.0,41,76,0.0,0.0
17468,70.0,70,54,0.0,0.0
17469,53.0,78,207,0.0,0.0
17470,71.0,54,60,0.0,0.0
17471,74.0,32,62,0.0,0.0
17472,60.0,11,189,0.0,0.0
17473,72.0,76,105,0.0,0.0
17474,76.0,39,107,0.0,0.0
17475,77.0,34,111,0.0,0.0
17476,53.0,96,243,0.0,0.0
17477,81.0,105,54,0.0,0.0
17478,48.0,18,387,0.0,0.0
17479,48.0,28,398,5.0,0.0
17480,55.0,23,429,3.0,0.0
17481,64.0,10,406,4.0,0.0
17482,70.0,19,495,2.0,0.0
17483,82.0,7,979,0.0,0.0
17484,70.0,12,339,0.0,0.0
17485,64.0,241,3902,7.0,0.0
17486,55.0,77,201,0.0,0.0
17487,75.0,105,137,0.0,0.0
17488,58.0,94,458,0.0,0.0
17489,76.0,79,119,0.0,0.0
17490,55.0,62,248,0.0,0.0
17491,78.0,33,104,0.0,0.0
17492,76.0,50,58,0.0,0.0
17493,64.0,43,249,0.0,0.0
17494,76.0,45,170,0.0,0.0
17495,74.0,38,165,0.0,0.0
17496,54.0,43,33,0.0,0.0
17497,72.0,189,49,0.0,0.0
17498,47.0,23,645,0.0,0.0
17499,47.0,34,1175,6.0,0.0
17500,64.0,84,1571,3.0,0.0
17501,71.0,130,1200,2.0,0.0
17502,47.0,9,1140,5.0,0.0
17503,83.0,2,475,0.0,0.0
17504,55.0,16,1174,4.0,0.0
17505,71.0,92,378,0.0,0.0
17506,55.0,117,207,0.0,0.0
17507,59.0,33,187,0.0,0.0
17508,79.0,26,999,0.0,0.0
17509,55.0,182,37,0.0,0.0
17510,64.0,115,73,0.0,0.0
17511,55.0,188,27,0.0,0.0
17512,54.0,13,431,4.0,0.0
17513,45.0,37,390,6.0,0.0
17514,72.0,3,424,2.0,0.0
17515,45.0,5,436,5.0,0.0
17516,45.0,127,207,0.0,0.0
17517,52.0,23,174,0.0,0.0
17518,54.0,57,225,0.0,0.0
17519,78.0,25,93,0.0,0.0
17520,76.0,53,79,0.0,0.0
17521,52.0,148,257,0.0,0.0
17522,72.0,79,55,0.0,0.0
17523,69.0,49,67,0.0,0.0
17524,66.0,46,182,0.0,0.0
17525,60.0,4,210,0.0,0.0
17526,67.0,39,38,0.0,0.0
17527,66.0,60,42,0.0,0.0
17528,64.0,47,43,0.0,0.0
17529,66.0,35,52,0.0,0.0
17530,52.0,87,348,0.0,0.0
17531,67.0,216,40,0.0,0.0
17532,69.0,65,45,0.0,0.0
17533,69.0,22,358,0.0,0.0
17534,47.0,143,940,0.0,0.0
17535,59.0,16,3058,7.0,0.0
17536,52.0,126,171,0.0,0.0
17537,64.0,79,253,0.0,0.0
17538,55.0,90,153,0.0,0.0
17539,52.0,268,179,0.0,0.0
17540,59.0,219,674,0.0,0.0
17541,72.0,62,404,0.0,0.0
17542,52.0,158,270,0.0,0.0
17543,47.0,263,1576,0.0,0.0
17544,47.0,3,1997,6.0,0.0
17545,71.0,4,1192,0.0,0.0
17546,47.0,2,1996,5.0,0.0
17547,54.0,2,1987,4.0,0.0
17548,64.0,72,487,3.0,0.0
17549,71.0,48,1114,2.0,0.0
17550,64.0,13,281,0.0,0.0
17551,54.0,58,239,0.0,0.0
17552,63.0,156,157,0.0,0.0
17553,57.0,2,306,0.0,0.0
17554,63.0,30,679,3.0,0.0
17555,64.0,110,151,0.0,0.0
17556,54.0,91,321,0.0,0.0
17557,63.0,89,139,0.0,0.0
17558,61.0,72,102,0.0,0.0
17559,63.0,4,132,0.0,0.0
17560,59.0,10,117,0.0,0.0
17561,63.0,0,895,2.0,0.0
17562,64.0,148,97,0.0,0.0
17563,57.0,2,874,3.0,0.0
17564,67.0,85,105,0.0,0.0
17565,57.0,68,115,0.0,0.0
17566,66.0,59,28,0.0,0.0
17567,64.0,118,47,0.0,0.0
17568,40.0,29,49,0.0,0.0
17569,47.0,22,44,0.0,0.0
17570,55.0,3,26,0.0,0.0
17571,64.0,1,25,0.0,0.0
17572,40.0,9,81,6.0,0.0
17573,64.0,47,89,2.0,0.0
17574,76.0,24,27,0.0,0.0
17575,55.0,9,63,3.0,0.0
17576,52.0,42,154,4.0,0.0
17577,40.0,159,194,5.0,0.0
17578,52.0,27,112,7.0,0.0
17579,59.0,8,292,2.0,0.0
17580,55.0,4,214,3.0,0.0
17581,59.0,23,73,0.0,0.0
17582,71.0,16,53,0.0,0.0
17583,52.0,4,236,5.0,0.0
17584,60.0,36,21,0.0,0.0
17585,79.0,17,54,0.0,0.0
17586,59.0,12,32,0.0,0.0
17587,55.0,3,50,3.0,0.0
17588,60.0,5,40,0.0,0.0
17589,67.0,20,22,0.0,0.0
17590,59.0,8,41,0.0,0.0
17591,78.0,23,45,0.0,0.0
17592,58.0,41,34,0.0,0.0
17593,76.0,18,52,0.0,0.0
17594,59.0,22,59,0.0,0.0
17595,59.0,8,117,2.0,0.0
17596,47.0,14,96,5.0,0.0
17597,47.0,31,101,0.0,0.0
17598,71.0,43,34,0.0,0.0
17599,83.0,25,71,0.0,0.0
17600,67.0,20,115,2.0,0.0
17601,76.0,24,29,0.0,0.0
17602,81.0,31,71,0.0,0.0
17603,79.0,55,38,0.0,0.0
17604,71.0,17,36,0.0,0.0
17605,40.0,59,47,6.0,0.0
17606,52.0,5,98,0.0,0.0
17607,40.0,22,93,0.0,0.0
17608,79.0,21,80,0.0,0.0
17609,78.0,38,72,0.0,0.0
17610,59.0,22,189,2.0,0.0
17611,67.0,30,35,0.0,0.0
17612,55.0,6,161,3.0,0.0
17613,76.0,44,38,0.0,0.0
17614,71.0,15,31,0.0,0.0
17615,52.0,2,242,5.0,0.0
17616,59.0,18,37,0.0,0.0
17617,60.0,28,35,0.0,0.0
17618,79.0,13,80,0.0,0.0
17619,59.0,21,35,0.0,0.0
17620,55.0,1,78,3.0,0.0
17621,59.0,12,135,2.0,0.0
17622,60.0,8,37,0.0,0.0
17623,78.0,5,57,0.0,0.0
17624,67.0,14,34,0.0,0.0
17625,59.0,31,32,0.0,0.0
17626,76.0,5,72,0.0,0.0
17627,58.0,24,33,0.0,0.0
17628,59.0,10,44,0.0,0.0
17629,71.0,50,32,0.0,0.0
17630,64.0,27,79,2.0,0.0
17631,47.0,11,179,5.0,0.0
17632,47.0,32,94,0.0,0.0
17633,83.0,14,84,0.0,0.0
17634,81.0,1,79,0.0,0.0
17635,76.0,37,28,0.0,0.0
17636,79.0,57,33,0.0,0.0
17637,42.0,30,19,0.0,0.0
17638,72.0,1,809,14.0,0.0
17639,84.0,2,38,0.0,0.0
17640,64.0,1,805,14.0,0.0
17641,42.0,112,34,6.0,0.0
17642,96.0,1,88,0.0,0.0
17643,60.0,16,33,2.0,0.0
17644,57.0,1,27,3.0,0.0
17645,54.0,12,22,5.0,0.0
17646,95.0,15,86,0.0,0.0
17647,88.0,54,26,0.0,0.0
17648,93.0,42,34,0.0,0.0
17649,54.0,7,29,5.0,0.0
17650,57.0,8,33,3.0,0.0
17651,81.0,11,36,0.0,0.0
17652,64.0,7,30,2.0,0.0
17653,54.0,50,37,0.0,0.0
17654,93.0,1,86,0.0,0.0
17655,55.0,25,38,0.0,0.0
17656,54.0,21,30,0.0,0.0
17657,84.0,3,33,0.0,0.0
17658,91.0,0,68,0.0,0.0
17659,60.0,5,49,2.0,0.0
17660,54.0,16,21,5.0,0.0
17661,55.0,7,36,0.0,0.0
17662,57.0,13,48,3.0,0.0
17663,54.0,22,45,0.0,0.0
17664,90.0,15,35,0.0,0.0
17665,53.0,39,43,0.0,0.0
17666,54.0,2,43,0.0,0.0
17667,78.0,11,33,0.0,0.0
17668,66.0,23,118,0.0,0.0
17669,60.0,13,24,3.0,0.0
17670,69.0,62,43,2.0,0.0
17671,45.0,7,31,5.0,0.0
17672,90.0,6,87,0.0,0.0
17673,81.0,42,31,0.0,0.0
17674,88.0,30,72,0.0,0.0
17675,87.0,50,40,0.0,0.0
17676,71.0,20,503,14.0,0.0
17677,75.0,18,32,0.0,0.0
17678,47.0,77,52,0.0,0.0
17679,63.0,5,518,14.0,0.0
17680,35.0,9,33,6.0,0.0
17681,87.0,13,76,0.0,0.0
17682,59.0,12,36,3.0,0.0
17683,63.0,7,43,2.0,0.0
17684,84.0,29,80,0.0,0.0
17685,78.0,3,41,0.0,0.0
17686,57.0,29,35,5.0,0.0
17687,83.0,46,46,0.0,0.0
17688,71.0,3,38,0.0,0.0
17689,59.0,11,35,3.0,0.0
17690,66.0,14,33,2.0,0.0
17691,59.0,2,31,0.0,0.0
17692,57.0,14,46,5.0,0.0
17693,60.0,33,29,0.0,0.0
17694,83.0,9,80,0.0,0.0
17695,59.0,21,36,0.0,0.0
17696,60.0,16,36,0.0,0.0
17697,82.0,4,77,0.0,0.0
17698,75.0,6,35,0.0,0.0
17699,59.0,3,38,3.0,0.0
17700,63.0,11,47,2.0,0.0
17701,59.0,7,27,0.0,0.0
17702,57.0,10,32,5.0,0.0
17703,58.0,28,38,0.0,0.0
17704,81.0,6,47,0.0,0.0
17705,59.0,27,36,0.0,0.0
17706,51.0,50,83,0.0,0.0
17707,69.0,6,77,0.0,0.0
17708,69.0,4,298,14.0,0.0
17709,66.0,46,297,14.0,0.0
17710,59.0,7,24,3.0,0.0
17711,71.0,13,42,2.0,0.0
17712,51.0,10,23,5.0,0.0
17713,81.0,41,72,0.0,0.0
17714,79.0,34,87,0.0,0.0
17715,71.0,42,39,0.0,0.0
17716,78.0,47,55,0.0,0.0
17717,52.0,24,89,0.0,0.0
17718,40.0,2,85,0.0,0.0
17719,40.0,2,26,6.0,0.0
17720,71.0,63,103,0.0,0.0
17721,67.0,7,248,14.0,0.0
17722,64.0,47,254,14.0,0.0
17723,79.0,37,91,0.0,0.0
17724,59.0,1,212,2.0,0.0
17725,55.0,19,212,3.0,0.0
17726,78.0,38,74,0.0,0.0
17727,67.0,17,50,0.0,0.0
17728,76.0,2,47,0.0,0.0
17729,52.0,13,271,5.0,0.0
17730,59.0,19,37,0.0,0.0
17731,71.0,20,84,0.0,0.0
17732,60.0,9,30,0.0,0.0
17733,79.0,17,91,0.0,0.0
17734,59.0,41,35,0.0,0.0
17735,55.0,1,79,3.0,0.0
17736,59.0,1,155,2.0,0.0
17737,60.0,5,41,0.0,0.0
17738,78.0,19,59,0.0,0.0
17739,67.0,1,69,0.0,0.0
17740,59.0,9,37,0.0,0.0
17741,58.0,45,33,0.0,0.0
17742,76.0,14,72,0.0,0.0
17743,59.0,2,49,0.0,0.0
17744,71.0,45,44,0.0,0.0
17745,47.0,41,78,0.0,0.0
17746,47.0,15,140,5.0,0.0
17747,67.0,16,105,2.0,0.0
17748,83.0,11,80,0.0,0.0
17749,81.0,26,90,0.0,0.0
17750,76.0,37,43,0.0,0.0
17751,79.0,32,54,0.0,0.0
17752,52.0,5,31,0.0,0.0
17753,40.0,8,34,0.0,0.0
17754,71.0,95,48,0.0,0.0
17755,40.0,12,21,6.0,0.0
17756,79.0,35,84,0.0,0.0
17757,78.0,32,87,0.0,0.0
17758,59.0,13,194,2.0,0.0
17759,55.0,5,180,3.0,0.0
17760,67.0,23,52,0.0,0.0
17761,76.0,41,50,0.0,0.0
17762,52.0,2,249,5.0,0.0
17763,59.0,12,31,0.0,0.0
17764,71.0,18,41,0.0,0.0
17765,60.0,35,27,0.0,0.0
17766,79.0,2,85,0.0,0.0
17767,59.0,33,37,0.0,0.0
17768,59.0,24,118,2.0,0.0
17769,60.0,18,38,0.0,0.0
17770,55.0,16,138,3.0,0.0
17771,78.0,2,60,0.0,0.0
17772,67.0,17,50,0.0,0.0
17773,59.0,10,26,0.0,0.0
17774,58.0,24,35,0.0,0.0
17775,76.0,4,47,0.0,0.0
17776,59.0,2,51,0.0,0.0
17777,71.0,63,38,0.0,0.0
17778,47.0,40,93,0.0,0.0
17779,47.0,35,193,5.0,0.0
17780,64.0,1,122,2.0,0.0
17781,83.0,6,80,0.0,0.0
17782,81.0,3,87,0.0,0.0
17783,76.0,60,26,0.0,0.0
17784,79.0,33,56,0.0,0.0
17785,72.0,1,848,14.0,0.0
17786,42.0,63,36,0.0,0.0
17787,42.0,15,20,6.0,0.0
17788,64.0,5,852,14.0,0.0
17789,84.0,82,74,0.0,0.0
17790,96.0,17,101,0.0,0.0
17791,60.0,10,42,2.0,0.0
17792,57.0,3,50,3.0,0.0
17793,54.0,20,42,5.0,0.0
17794,95.0,26,91,0.0,0.0
17795,88.0,54,37,0.0,0.0
17796,93.0,9,58,0.0,0.0
17797,64.0,5,33,2.0,0.0
17798,54.0,12,30,5.0,0.0
17799,57.0,25,35,3.0,0.0
17800,81.0,46,36,0.0,0.0
17801,54.0,1,27,0.0,0.0
17802,55.0,22,28,0.0,0.0
17803,93.0,0,96,0.0,0.0
17804,54.0,20,21,0.0,0.0
17805,57.0,18,38,3.0,0.0
17806,60.0,1,34,2.0,0.0
17807,54.0,1,24,5.0,0.0
17808,55.0,14,32,0.0,0.0
17809,91.0,29,83,0.0,0.0
17810,84.0,7,29,0.0,0.0
17811,54.0,35,31,0.0,0.0
17812,53.0,11,38,0.0,0.0
17813,90.0,35,50,0.0,0.0
17814,54.0,3,72,0.0,0.0
17815,45.0,7,40,5.0,0.0
17816,60.0,7,32,3.0,0.0
17817,66.0,73,76,0.0,0.0
17818,78.0,3,42,0.0,0.0
17819,69.0,31,39,2.0,0.0
17820,90.0,11,89,0.0,0.0
17821,81.0,40,39,0.0,0.0
17822,88.0,30,78,0.0,0.0
17823,87.0,26,46,0.0,0.0
17824,71.0,13,513,14.0,0.0
17825,47.0,15,29,0.0,0.0
17826,63.0,21,524,14.0,0.0
17827,75.0,105,40,0.0,0.0
17828,35.0,8,25,6.0,0.0
17829,87.0,1,89,0.0,0.0
17830,59.0,5,41,3.0,0.0
17831,63.0,17,47,2.0,0.0
17832,57.0,2,36,5.0,0.0
17833,84.0,29,84,0.0,0.0
17834,78.0,41,41,0.0,0.0
17835,83.0,35,52,0.0,0.0
17836,71.0,17,49,0.0,0.0
17837,59.0,2,35,0.0,0.0
17838,66.0,10,33,2.0,0.0
17839,57.0,0,35,5.0,0.0
17840,59.0,8,43,3.0,0.0
17841,60.0,31,34,0.0,0.0
17842,83.0,8,79,0.0,0.0
17843,59.0,31,32,0.0,0.0
17844,60.0,17,41,0.0,0.0
17845,82.0,37,75,0.0,0.0
17846,63.0,6,42,2.0,0.0
17847,75.0,1,36,0.0,0.0
17848,59.0,16,37,3.0,0.0
17849,59.0,4,19,0.0,0.0
17850,57.0,4,28,5.0,0.0
17851,58.0,7,38,0.0,0.0
17852,81.0,19,50,0.0,0.0
17853,59.0,2,66,0.0,0.0
17854,69.0,10,335,14.0,0.0
17855,66.0,34,667,14.0,0.0
17856,69.0,16,61,0.0,0.0
17857,51.0,40,82,0.0,0.0
17858,51.0,11,30,5.0,0.0
17859,71.0,16,56,2.0,0.0
17860,59.0,1,25,3.0,0.0
17861,81.0,34,73,0.0,0.0
17862,79.0,32,82,0.0,0.0
17863,71.0,43,30,0.0,0.0
17864,78.0,65,48,0.0,0.0
17865,68.0,1,377,14.0,0.0
17866,38.0,15,21,6.0,0.0
17867,78.0,124,57,0.0,0.0
17868,38.0,1,39,0.0,0.0
17869,50.0,13,39,0.0,0.0
17870,83.0,2,97,0.0,0.0
17871,66.0,16,211,2.0,0.0
17872,62.0,3,221,3.0,0.0
17873,71.0,51,32,0.0,0.0
17874,81.0,33,79,0.0,0.0
17875,80.0,52,51,0.0,0.0
17876,78.0,19,41,0.0,0.0
17877,59.0,22,263,5.0,0.0
17878,62.0,15,43,0.0,0.0
17879,83.0,4,97,0.0,0.0
17880,64.0,1,27,0.0,0.0
17881,62.0,25,33,0.0,0.0
17882,66.0,10,150,2.0,0.0
17883,71.0,22,42,0.0,0.0
17884,81.0,10,78,0.0,0.0
17885,62.0,5,126,3.0,0.0
17886,64.0,2,29,0.0,0.0
17887,62.0,16,19,0.0,0.0
17888,61.0,8,32,0.0,0.0
17889,80.0,31,37,0.0,0.0
17890,62.0,8,42,0.0,0.0
17891,78.0,49,50,0.0,0.0
17892,50.0,24,88,0.0,0.0
17893,50.0,13,107,5.0,0.0
17894,71.0,7,116,2.0,0.0
17895,90.0,23,80,0.0,0.0
17896,83.0,49,40,0.0,0.0
17897,88.0,15,75,0.0,0.0
17898,86.0,50,34,0.0,0.0
17899,38.0,8,22,6.0,0.0
17900,78.0,115,45,0.0,0.0
17901,38.0,19,25,0.0,0.0
17902,83.0,16,90,0.0,0.0
17903,66.0,1,186,2.0,0.0
17904,62.0,19,194,3.0,0.0
17905,81.0,29,82,0.0,0.0
17906,71.0,36,42,0.0,0.0
17907,80.0,51,51,0.0,0.0
17908,78.0,7,42,0.0,0.0
17909,59.0,26,259,5.0,0.0
17910,62.0,19,35,0.0,0.0
17911,64.0,33,35,0.0,0.0
17912,83.0,12,102,0.0,0.0
17913,62.0,35,42,0.0,0.0
17914,66.0,5,144,2.0,0.0
17915,62.0,6,128,3.0,0.0
17916,64.0,1,40,0.0,0.0
17917,81.0,18,74,0.0,0.0
17918,71.0,6,41,0.0,0.0
17919,62.0,22,29,0.0,0.0
17920,61.0,0,27,0.0,0.0
17921,80.0,20,34,0.0,0.0
17922,62.0,14,41,0.0,0.0
17923,78.0,19,44,0.0,0.0
17924,71.0,35,96,2.0,0.0
17925,50.0,38,53,0.0,0.0
17926,50.0,17,141,5.0,0.0
17927,90.0,15,76,0.0,0.0
17928,83.0,41,44,0.0,0.0
17929,88.0,26,80,0.0,0.0
17930,86.0,52,50,0.0,0.0
17931,37.0,7,23,0.0,0.0
17932,37.0,37,26,6.0,0.0
17933,80.0,103,58,0.0,0.0
17934,74.0,6,835,14.0,0.0
17935,65.0,87,1609,14.0,0.0
17936,89.0,31,94,0.0,0.0
17937,59.0,8,40,3.0,0.0
17938,59.0,20,45,2.0,0.0
17939,56.0,5,26,5.0,0.0
17940,83.0,53,43,0.0,0.0
17941,86.0,38,88,0.0,0.0
17942,85.0,14,57,0.0,0.0
17943,59.0,1,39,3.0,0.0
17944,65.0,3,51,2.0,0.0
17945,56.0,26,35,5.0,0.0
17946,49.0,6,21,0.0,0.0
17947,77.0,15,42,0.0,0.0
17948,50.0,25,29,0.0,0.0
17949,49.0,39,24,0.0,0.0
17950,86.0,17,91,0.0,0.0
17951,59.0,5,48,2.0,0.0
17952,59.0,1,49,3.0,0.0
17953,50.0,14,28,0.0,0.0
17954,49.0,6,39,0.0,0.0
17955,56.0,8,28,5.0,0.0
17956,85.0,28,81,0.0,0.0
17957,80.0,13,38,0.0,0.0
17958,48.0,22,42,0.0,0.0
17959,49.0,11,83,0.0,0.0
17960,83.0,32,50,0.0,0.0
17961,68.0,1,47,2.0,0.0
17962,61.0,82,78,0.0,0.0
17963,49.0,12,31,5.0,0.0
17964,74.0,31,44,0.0,0.0
17965,59.0,3,35,3.0,0.0
17966,83.0,3,98,0.0,0.0
17967,77.0,45,37,0.0,0.0
17968,81.0,31,79,0.0,0.0
17969,80.0,18,53,0.0,0.0
17970,37.0,13,18,6.0,0.0
17971,73.0,34,480,14.0,0.0
17972,71.0,110,37,0.0,0.0
17973,37.0,8,15,0.0,0.0
17974,80.0,11,82,0.0,0.0
17975,59.0,14,43,3.0,0.0
17976,74.0,3,33,0.0,0.0
17977,56.0,2,28,5.0,0.0
17978,78.0,22,78,0.0,0.0
17979,59.0,31,45,2.0,0.0
17980,77.0,31,38,0.0,0.0
17981,49.0,23,22,0.0,0.0
17982,68.0,9,38,0.0,0.0
17983,59.0,14,38,3.0,0.0
17984,56.0,4,27,5.0,0.0
17985,65.0,26,46,2.0,0.0
17986,50.0,3,39,0.0,0.0
17987,77.0,5,79,0.0,0.0
17988,49.0,37,33,0.0,0.0
17989,50.0,6,34,0.0,0.0
17990,71.0,10,28,0.0,0.0
17991,74.0,3,77,0.0,0.0
17992,49.0,18,30,0.0,0.0
17993,59.0,11,42,3.0,0.0
17994,59.0,11,47,2.0,0.0
17995,56.0,4,23,5.0,0.0
17996,48.0,27,48,0.0,0.0
17997,73.0,3,47,0.0,0.0
17998,49.0,17,64,0.0,0.0
17999,71.0,49,271,14.0,0.0
18000,65.0,2,40,0.0,0.0
18001,61.0,4,32,0.0,0.0
18002,68.0,59,44,2.0,0.0
18003,49.0,14,20,5.0,0.0
18004,59.0,10,33,3.0,0.0
18005,74.0,33,70,0.0,0.0
18006,73.0,26,72,0.0,0.0
18007,68.0,24,33,0.0,0.0
18008,71.0,33,38,0.0,0.0
18009,71.0,9,43,0.0,0.0
18010,43.0,2,30,0.0,0.0
18011,71.0,8,1550,14.0,0.0
18012,64.0,37,1821,14.0,0.0
18013,43.0,17,19,6.0,0.0
18014,76.0,18,86,0.0,0.0
18015,59.0,16,202,2.0,0.0
18016,74.0,25,76,0.0,0.0
18017,55.0,25,214,3.0,0.0
18018,64.0,36,34,0.0,0.0
18019,73.0,50,44,0.0,0.0
18020,71.0,28,32,0.0,0.0
18021,55.0,18,50,0.0,0.0
18022,49.0,9,255,5.0,0.0
18023,76.0,12,85,0.0,0.0
18024,57.0,3,33,0.0,0.0
18025,55.0,13,35,0.0,0.0
18026,59.0,50,175,2.0,0.0
18027,64.0,1,31,0.0,0.0
18028,57.0,21,30,0.0,0.0
18029,74.0,2,70,0.0,0.0
18030,55.0,3,107,3.0,0.0
18031,55.0,23,21,0.0,0.0
18032,54.0,32,33,0.0,0.0
18033,73.0,4,48,0.0,0.0
18034,55.0,36,36,0.0,0.0
18035,43.0,44,101,0.0,0.0
18036,71.0,10,38,0.0,0.0
18037,64.0,48,150,2.0,0.0
18038,43.0,15,124,5.0,0.0
18039,83.0,6,95,0.0,0.0
18040,76.0,15,76,0.0,0.0
18041,81.0,22,83,0.0,0.0
18042,79.0,93,46,0.0,0.0
18043,43.0,7,30,6.0,0.0
18044,31.0,7,73,0.0,0.0
18045,71.0,72,73,0.0,0.0
18046,76.0,42,79,0.0,0.0
18047,59.0,2,195,2.0,0.0
18048,74.0,25,93,0.0,0.0
18049,55.0,14,201,3.0,0.0
18050,64.0,23,43,0.0,0.0
18051,73.0,48,52,0.0,0.0
18052,49.0,44,287,5.0,0.0
18053,71.0,14,41,0.0,0.0
18054,55.0,21,45,0.0,0.0
18055,76.0,14,104,0.0,0.0
18056,57.0,32,34,0.0,0.0
18057,55.0,29,38,0.0,0.0
18058,59.0,24,155,2.0,0.0
18059,55.0,7,77,3.0,0.0
18060,57.0,7,36,0.0,0.0
18061,74.0,2,67,0.0,0.0
18062,64.0,12,100,0.0,0.0
18063,55.0,14,22,0.0,0.0
18064,54.0,9,31,0.0,0.0
18065,73.0,23,33,0.0,0.0
18066,55.0,7,40,0.0,0.0
18067,71.0,20,79,0.0,0.0
18068,43.0,44,93,0.0,0.0
18069,64.0,46,138,2.0,0.0
18070,43.0,35,178,5.0,0.0
18071,83.0,3,80,0.0,0.0
18072,81.0,23,104,0.0,0.0
18073,76.0,15,81,0.0,0.0
18074,79.0,50,56,0.0,0.0
18075,79.0,18,865,12.0,0.0
18076,70.0,5,1539,12.0,0.0
18077,70.0,7,295,14.0,0.0
18078,42.0,62,28,6.0,0.0
18079,82.0,75,92,0.0,0.0
18080,42.0,12,59,0.0,0.0
18081,91.0,11,100,0.0,0.0
18082,61.0,25,20,3.0,0.0
18083,64.0,9,42,2.0,0.0
18084,90.0,1,100,0.0,0.0
18085,85.0,44,52,0.0,0.0
18086,54.0,21,26,5.0,0.0
18087,88.0,16,72,0.0,0.0
18088,61.0,0,31,3.0,0.0
18089,70.0,4,44,2.0,0.0
18090,54.0,2,19,0.0,0.0
18091,54.0,27,35,5.0,0.0
18092,79.0,10,58,0.0,0.0
18093,55.0,11,22,0.0,0.0
18094,54.0,45,27,0.0,0.0
18095,88.0,0,93,0.0,0.0
18096,55.0,4,38,0.0,0.0
18097,54.0,19,19,0.0,0.0
18098,61.0,10,25,3.0,0.0
18099,64.0,6,42,2.0,0.0
18100,53.0,9,47,0.0,0.0
18101,54.0,9,29,5.0,0.0
18102,82.0,47,40,0.0,0.0
18103,86.0,16,84,0.0,0.0
18104,54.0,14,74,0.0,0.0
18105,85.0,10,51,0.0,0.0
18106,66.0,14,32,0.0,0.0
18107,73.0,18,43,2.0,0.0
18108,49.0,4,29,5.0,0.0
18109,64.0,6,25,3.0,0.0
18110,76.0,113,46,0.0,0.0
18111,85.0,8,98,0.0,0.0
18112,79.0,35,40,0.0,0.0
18113,83.0,38,73,0.0,0.0
18114,82.0,20,47,0.0,0.0
18115,78.0,35,535,12.0,0.0
18116,42.0,1,29,6.0,0.0
18117,42.0,16,26,0.0,0.0
18118,73.0,90,40,0.0,0.0
18119,82.0,23,75,0.0,0.0
18120,76.0,0,35,0.0,0.0
18121,79.0,30,82,0.0,0.0
18122,61.0,9,33,3.0,0.0
18123,54.0,9,37,5.0,0.0
18124,64.0,31,40,2.0,0.0
18125,78.0,38,50,0.0,0.0
18126,70.0,8,40,0.0,0.0
18127,54.0,8,31,0.0,0.0
18128,70.0,1,45,2.0,0.0
18129,61.0,24,35,3.0,0.0
18130,54.0,7,27,5.0,0.0
18131,55.0,26,47,0.0,0.0
18132,79.0,2,73,0.0,0.0
18133,54.0,31,38,0.0,0.0
18134,55.0,13,36,0.0,0.0
18135,78.0,9,73,0.0,0.0
18136,73.0,12,30,0.0,0.0
18137,54.0,9,28,0.0,0.0
18138,64.0,6,45,2.0,0.0
18139,61.0,5,29,3.0,0.0
18140,54.0,9,28,5.0,0.0
18141,53.0,32,30,0.0,0.0
18142,76.0,2,49,0.0,0.0
18143,54.0,12,37,0.0,0.0
18144,64.0,16,47,0.0,0.0
18145,76.0,4,328,12.0,0.0
18146,42.0,37,87,0.0,0.0
18147,73.0,20,46,2.0,0.0
18148,49.0,10,29,5.0,0.0
18149,64.0,7,25,3.0,0.0
18150,76.0,29,74,0.0,0.0
18151,74.0,64,94,0.0,0.0
18152,70.0,49,35,0.0,0.0
18153,73.0,26,86,0.0,0.0
18154,47.0,12,33,0.0,0.0
18155,66.0,99,52,0.0,0.0
18156,35.0,3,23,0.0,0.0
18157,35.0,3,26,6.0,0.0
18158,74.0,11,276,12.0,0.0
18159,71.0,27,248,12.0,0.0
18160,74.0,57,76,0.0,0.0
18161,73.0,51,75,0.0,0.0
18162,62.0,9,63,0.0,0.0
18163,62.0,3,208,3.0,0.0
18164,66.0,9,175,2.0,0.0
18165,71.0,3,69,0.0,0.0
18166,54.0,24,371,4.0,0.0
18167,66.0,36,42,0.0,0.0
18168,54.0,2,33,0.0,0.0
18169,47.0,36,281,5.0,0.0
18170,55.0,26,44,0.0,0.0
18171,74.0,25,83,0.0,0.0
18172,54.0,29,36,0.0,0.0
18173,55.0,4,30,0.0,0.0
18174,66.0,18,153,2.0,0.0
18175,62.0,7,56,0.0,0.0
18176,62.0,2,162,3.0,0.0
18177,73.0,36,53,0.0,0.0
18178,54.0,0,32,0.0,0.0
18179,53.0,22,36,0.0,0.0
18180,71.0,4,55,0.0,0.0
18181,54.0,26,31,0.0,0.0
18182,66.0,6,47,0.0,0.0
18183,74.0,16,169,2.0,0.0
18184,42.0,37,78,0.0,0.0
18185,66.0,12,165,3.0,0.0
18186,42.0,10,120,5.0,0.0
18187,78.0,8,94,0.0,0.0
18188,76.0,34,85,0.0,0.0
18189,71.0,9,41,0.0,0.0
18190,74.0,36,59,0.0,0.0
18191,66.0,55,79,0.0,0.0
18192,47.0,26,28,0.0,0.0
18193,35.0,0,27,0.0,0.0
18194,35.0,21,30,6.0,0.0
18195,74.0,40,82,0.0,0.0
18196,73.0,32,90,0.0,0.0
18197,66.0,1,182,2.0,0.0
18198,62.0,25,48,0.0,0.0
18199,62.0,22,188,3.0,0.0
18200,71.0,40,59,0.0,0.0
18201,54.0,13,377,4.0,0.0
18202,54.0,28,38,0.0,0.0
18203,66.0,24,57,0.0,0.0
18204,47.0,41,252,5.0,0.0
18205,55.0,3,46,0.0,0.0
18206,74.0,18,88,0.0,0.0
18207,54.0,28,37,0.0,0.0
18208,66.0,8,133,2.0,0.0
18209,55.0,10,31,0.0,0.0
18210,73.0,4,64,0.0,0.0
18211,62.0,2,114,3.0,0.0
18212,62.0,19,57,0.0,0.0
18213,54.0,16,31,0.0,0.0
18214,53.0,19,35,0.0,0.0
18215,71.0,29,66,0.0,0.0
18216,54.0,9,35,0.0,0.0
18217,71.0,6,151,2.0,0.0
18218,66.0,8,75,0.0,0.0
18219,42.0,48,75,0.0,0.0
18220,42.0,24,180,5.0,0.0
18221,78.0,36,88,0.0,0.0
18222,71.0,3,26,0.0,0.0
18223,76.0,12,88,0.0,0.0
18224,74.0,68,36,0.0,0.0
18225,37.0,10,19,0.0,0.0
18226,37.0,61,28,6.0,0.0
18227,79.0,70,87,0.0,0.0
18228,67.0,1,777,15.0,0.0
18229,59.0,86,812,15.0,0.0
18230,91.0,11,107,0.0,0.0
18231,64.0,4,36,2.0,0.0
18232,59.0,12,36,3.0,0.0
18233,55.0,12,30,5.0,0.0
18234,55.0,5,34,4.0,0.0
18235,83.0,67,39,0.0,0.0
18236,90.0,23,98,0.0,0.0
18237,88.0,11,57,0.0,0.0
18238,55.0,8,29,4.0,0.0
18239,67.0,11,31,2.0,0.0
18240,59.0,18,39,3.0,0.0
18241,49.0,1,23,0.0,0.0
18242,55.0,5,46,5.0,0.0
18243,76.0,14,46,0.0,0.0
18244,50.0,21,33,0.0,0.0
18245,49.0,39,27,0.0,0.0
18246,88.0,3,98,0.0,0.0
18247,50.0,23,33,0.0,0.0
18248,49.0,11,37,0.0,0.0
18249,79.0,2,38,0.0,0.0
18250,59.0,5,36,3.0,0.0
18251,64.0,0,35,2.0,0.0
18252,86.0,22,83,0.0,0.0
18253,55.0,26,36,5.0,0.0
18254,55.0,1,26,4.0,0.0
18255,48.0,18,48,0.0,0.0
18256,49.0,13,45,0.0,0.0
18257,85.0,30,58,0.0,0.0
18258,73.0,105,54,0.0,0.0
18259,61.0,5,28,0.0,0.0
18260,71.0,8,31,2.0,0.0
18261,49.0,2,37,5.0,0.0
18262,64.0,5,36,3.0,0.0
18263,55.0,2,25,4.0,0.0
18264,85.0,10,100,0.0,0.0
18265,83.0,33,79,0.0,0.0
18266,76.0,30,40,0.0,0.0
18267,82.0,34,45,0.0,0.0
18268,66.0,35,499,15.0,0.0
18269,42.0,21,29,0.0,0.0
18270,42.0,0,24,6.0,0.0
18271,70.0,18,43,0.0,0.0
18272,58.0,15,521,15.0,0.0
18273,82.0,6,88,0.0,0.0
18274,64.0,4,36,2.0,0.0
18275,61.0,1,33,3.0,0.0
18276,79.0,36,86,0.0,0.0
18277,73.0,49,36,0.0,0.0
18278,54.0,1,29,5.0,0.0
18279,54.0,4,27,4.0,0.0
18280,78.0,28,57,0.0,0.0
18281,54.0,8,45,0.0,0.0
18282,61.0,2,37,3.0,0.0
18283,70.0,1,46,2.0,0.0
18284,66.0,3,39,0.0,0.0
18285,54.0,1,30,5.0,0.0
18286,54.0,38,28,4.0,0.0
18287,55.0,22,45,0.0,0.0
18288,79.0,16,80,0.0,0.0
18289,54.0,34,34,0.0,0.0
18290,55.0,5,36,0.0,0.0
18291,61.0,2,29,3.0,0.0
18292,78.0,28,76,0.0,0.0
18293,64.0,3,45,2.0,0.0
18294,70.0,0,35,0.0,0.0
18295,54.0,4,28,0.0,0.0
18296,54.0,5,26,5.0,0.0
18297,54.0,25,21,4.0,0.0
18298,53.0,2,33,0.0,0.0
18299,76.0,5,48,0.0,0.0
18300,54.0,7,35,0.0,0.0
18301,64.0,14,287,15.0,0.0
18302,61.0,1,294,15.0,0.0
18303,46.0,46,93,0.0,0.0
18304,64.0,24,67,0.0,0.0
18305,73.0,12,44,2.0,0.0
18306,46.0,1,24,5.0,0.0
18307,64.0,8,30,3.0,0.0
18308,54.0,1,20,4.0,0.0
18309,76.0,41,76,0.0,0.0
18310,74.0,50,85,0.0,0.0
18311,66.0,31,48,0.0,0.0
18312,73.0,14,71,0.0,0.0
18313,66.0,64,69,0.0,0.0
18314,59.0,29,269,15.0,0.0
18315,62.0,3,261,15.0,0.0
18316,47.0,4,128,0.0,0.0
18317,35.0,36,19,6.0,0.0
18318,35.0,18,123,0.0,0.0
18319,74.0,45,79,0.0,0.0
18320,66.0,12,191,2.0,0.0
18321,62.0,11,205,3.0,0.0
18322,73.0,36,90,0.0,0.0
18323,62.0,29,48,0.0,0.0
18324,71.0,4,61,0.0,0.0
18325,54.0,12,38,0.0,0.0
18326,47.0,15,263,5.0,0.0
18327,66.0,18,56,0.0,0.0
18328,54.0,10,367,4.0,0.0
18329,55.0,14,44,0.0,0.0
18330,74.0,15,85,0.0,0.0
18331,54.0,37,30,0.0,0.0
18332,66.0,12,130,2.0,0.0
18333,55.0,11,37,0.0,0.0
18334,62.0,4,149,3.0,0.0
18335,73.0,1,58,0.0,0.0
18336,62.0,27,54,0.0,0.0
18337,54.0,14,33,0.0,0.0
18338,53.0,11,38,0.0,0.0
18339,71.0,28,49,0.0,0.0
18340,54.0,1,36,0.0,0.0
18341,74.0,18,133,2.0,0.0
18342,66.0,45,44,0.0,0.0
18343,42.0,38,88,0.0,0.0
18344,66.0,3,105,3.0,0.0
18345,42.0,50,134,5.0,0.0
18346,78.0,4,99,0.0,0.0
18347,76.0,30,99,0.0,0.0
18348,71.0,4,38,0.0,0.0
18349,74.0,39,64,0.0,0.0
18350,66.0,17,58,0.0,0.0
18351,47.0,3,71,0.0,0.0
18352,35.0,66,67,0.0,0.0
18353,35.0,16,16,6.0,0.0
18354,74.0,33,90,0.0,0.0
18355,66.0,19,179,2.0,0.0
18356,73.0,22,102,0.0,0.0
18357,62.0,8,190,3.0,0.0
18358,62.0,37,50,0.0,0.0
18359,71.0,29,62,0.0,0.0
18360,54.0,23,365,4.0,0.0
18361,54.0,20,36,0.0,0.0
18362,66.0,3,47,0.0,0.0
18363,47.0,24,251,5.0,0.0
18364,55.0,22,48,0.0,0.0
18365,74.0,4,91,0.0,0.0
18366,54.0,32,36,0.0,0.0
18367,55.0,23,33,0.0,0.0
18368,66.0,15,109,2.0,0.0
18369,62.0,2,116,3.0,0.0
18370,73.0,9,58,0.0,0.0
18371,62.0,9,63,0.0,0.0
18372,54.0,21,32,0.0,0.0
18373,53.0,11,36,0.0,0.0
18374,71.0,26,60,0.0,0.0
18375,54.0,12,34,0.0,0.0
18376,66.0,45,58,0.0,0.0
18377,71.0,12,126,2.0,0.0
18378,42.0,12,86,0.0,0.0
18379,42.0,49,129,5.0,0.0
18380,78.0,1,96,0.0,0.0
18381,71.0,7,30,0.0,0.0
18382,76.0,12,81,0.0,0.0
18383,74.0,89,37,0.0,0.0
18384,78.0,51,92,0.0,0.0
18385,63.0,25,835,15.0,0.0
18386,60.0,31,856,15.0,0.0
18387,33.0,48,28,6.0,0.0
18388,45.0,7,147,0.0,0.0
18389,33.0,26,119,0.0,0.0
18390,93.0,18,114,0.0,0.0
18391,66.0,25,43,2.0,0.0
18392,60.0,4,31,3.0,0.0
18393,57.0,1,35,5.0,0.0
18394,57.0,5,36,4.0,0.0
18395,84.0,53,48,0.0,0.0
18396,91.0,42,96,0.0,0.0
18397,90.0,23,71,0.0,0.0
18398,69.0,1,46,2.0,0.0
18399,81.0,20,60,0.0,0.0
18400,57.0,2,35,4.0,0.0
18401,60.0,8,36,3.0,0.0
18402,57.0,2,30,0.0,0.0
18403,57.0,11,31,5.0,0.0
18404,59.0,29,41,0.0,0.0
18405,90.0,5,96,0.0,0.0
18406,57.0,34,36,0.0,0.0
18407,59.0,12,33,0.0,0.0
18408,84.0,8,41,0.0,0.0
18409,88.0,0,80,0.0,0.0
18410,57.0,6,42,0.0,0.0
18411,66.0,9,64,2.0,0.0
18412,60.0,1,26,3.0,0.0
18413,57.0,1,30,4.0,0.0
18414,57.0,17,30,5.0,0.0
18415,56.0,33,41,0.0,0.0
18416,87.0,48,55,0.0,0.0
18417,57.0,1,84,0.0,0.0
18418,78.0,4,62,0.0,0.0
18419,69.0,72,78,0.0,0.0
18420,45.0,10,32,5.0,0.0
18421,60.0,4,26,3.0,0.0
18422,54.0,2,22,4.0,0.0
18423,72.0,18,39,2.0,0.0
18424,87.0,10,97,0.0,0.0
18425,86.0,26,88,0.0,0.0
18426,81.0,44,40,0.0,0.0
18427,84.0,49,52,0.0,0.0
18428,75.0,2,71,0.0,0.0
18429,47.0,3,93,0.0,0.0
18430,35.0,50,92,0.0,0.0
18431,35.0,3,28,6.0,0.0
18432,66.0,36,773,15.0,0.0
18433,59.0,4,477,15.0,0.0
18434,84.0,0,102,0.0,0.0
18435,83.0,18,111,0.0,0.0
18436,59.0,0,34,3.0,0.0
18437,78.0,10,32,0.0,0.0
18438,57.0,3,40,4.0,0.0
18439,63.0,5,43,2.0,0.0
18440,57.0,58,42,5.0,0.0
18441,81.0,15,73,0.0,0.0
18442,69.0,13,126,0.0,0.0
18443,71.0,12,24,0.0,0.0
18444,59.0,2,33,0.0,0.0
18445,59.0,7,34,3.0,0.0
18446,57.0,18,44,5.0,0.0
18447,66.0,6,36,2.0,0.0
18448,57.0,0,36,4.0,0.0
18449,60.0,30,35,0.0,0.0
18450,81.0,3,98,0.0,0.0
18451,59.0,17,39,0.0,0.0
18452,60.0,20,36,0.0,0.0
18453,75.0,9,39,0.0,0.0
18454,79.0,22,87,0.0,0.0
18455,58.0,7,38,0.0,0.0
18456,63.0,3,43,2.0,0.0
18457,59.0,5,36,3.0,0.0
18458,57.0,23,34,5.0,0.0
18459,57.0,1,28,4.0,0.0
18460,59.0,8,59,0.0,0.0
18461,78.0,37,60,0.0,0.0
18462,47.0,9,56,0.0,0.0
18463,57.0,14,357,15.0,0.0
18464,69.0,7,65,0.0,0.0
18465,63.0,5,25,3.0,0.0
18466,71.0,7,28,2.0,0.0
18467,57.0,6,26,4.0,0.0
18468,47.0,80,35,5.0,0.0
18469,78.0,33,113,0.0,0.0
18470,71.0,18,30,0.0,0.0
18471,76.0,26,74,0.0,0.0
18472,75.0,43,47,0.0,0.0
18473,67.0,8,269,2.0,0.0
18474,64.0,2,262,3.0,0.0
18475,52.0,19,264,5.0,0.0
18476,67.0,30,34,0.0,0.0
18477,59.0,9,25,0.0,0.0
18478,64.0,5,17,0.0,0.0
18479,52.0,2,19,0.0,0.0
18480,59.0,22,297,4.0,0.0
18481,55.0,9,194,15.0,0.0
18482,64.0,8,181,15.0,0.0
18483,79.0,84,46,0.0,0.0
18484,71.0,14,63,0.0,0.0
18485,78.0,4,77,0.0,0.0
18486,76.0,18,45,0.0,0.0
18487,66.0,4,188,2.0,0.0
18488,61.0,85,240,3.0,0.0
18489,54.0,2,232,5.0,0.0
18490,70.0,59,77,0.0,0.0
18491,64.0,1,26,0.0,0.0
18492,61.0,11,24,0.0,0.0
18493,54.0,15,35,0.0,0.0
18494,58.0,4,205,4.0,0.0
18495,78.0,35,67,0.0,0.0
18496,76.0,33,45,0.0,0.0
18497,85.0,18,24,0.0,0.0
18498,82.0,73,71,0.0,0.0
18499,90.0,44,74,0.0,0.0
18500,88.0,35,58,0.0,0.0
18501,97.0,104,38,0.0,0.0
18502,48.0,4,499,5.0,0.0
18503,69.0,48,427,0.0,0.0
18504,60.0,50,367,0.0,0.0
18505,96.0,72,78,0.0,0.0
18506,64.0,56,497,0.0,0.0
18507,64.0,14,468,3.0,0.0
18508,69.0,22,730,2.0,0.0
18509,93.0,55,77,0.0,0.0
18510,90.0,36,67,0.0,0.0
18511,88.0,36,48,0.0,0.0
18512,84.0,87,28,0.0,0.0
18513,81.0,2,54,0.0,0.0
18514,78.0,10,46,0.0,0.0
18515,76.0,5,57,0.0,0.0
18516,66.0,15,256,3.0,0.0
18517,47.0,11,268,5.0,0.0
18518,75.0,18,70,0.0,0.0
18519,69.0,2,67,0.0,0.0
18520,66.0,10,86,0.0,0.0
18521,59.0,5,91,0.0,0.0
18522,59.0,46,375,4.0,0.0
18523,78.0,48,50,0.0,0.0
18524,83.0,44,41,0.0,0.0
18525,71.0,36,26,0.0,0.0
18526,67.0,67,297,2.0,0.0
18527,64.0,7,110,0.0,0.0
18528,59.0,18,115,0.0,0.0
18529,52.0,11,97,0.0,0.0
18530,64.0,25,234,3.0,0.0
18531,67.0,61,30,0.0,0.0
18532,52.0,24,248,5.0,0.0
18533,79.0,16,71,0.0,0.0
18534,78.0,12,96,0.0,0.0
18535,71.0,28,63,0.0,0.0
18536,76.0,4,52,0.0,0.0
18537,66.0,19,293,2.0,0.0
18538,58.0,23,209,4.0,0.0
18539,70.0,48,106,0.0,0.0
18540,64.0,86,299,0.0,0.0
18541,61.0,1,291,0.0,0.0
18542,54.0,4,268,0.0,0.0
18543,61.0,0,291,3.0,0.0
18544,54.0,23,242,5.0,0.0
18545,78.0,27,66,0.0,0.0
18546,76.0,13,32,0.0,0.0
18547,85.0,31,22,0.0,0.0
18548,64.0,9,331,2.0,0.0
18549,82.0,6,41,0.0,0.0
18550,90.0,44,70,0.0,0.0
18551,88.0,37,51,0.0,0.0
18552,97.0,95,37,0.0,0.0
18553,69.0,78,795,2.0,0.0
18554,54.0,24,474,4.0,0.0
18555,64.0,2,493,3.0,0.0
18556,48.0,10,494,5.0,0.0
18557,69.0,41,423,0.0,0.0
18558,64.0,2,500,0.0,0.0
18559,60.0,30,331,0.0,0.0
18560,96.0,64,74,0.0,0.0
18561,93.0,62,67,0.0,0.0
18562,90.0,38,68,0.0,0.0
18563,88.0,35,51,0.0,0.0
18564,84.0,58,29,0.0,0.0
18565,81.0,54,54,0.0,0.0
18566,78.0,7,53,0.0,0.0
18567,76.0,44,84,0.0,0.0
18568,66.0,32,190,3.0,0.0
18569,59.0,28,205,4.0,0.0
18570,47.0,5,165,5.0,0.0
18571,66.0,27,126,0.0,0.0
18572,69.0,3,122,0.0,0.0
18573,75.0,20,59,0.0,0.0
18574,59.0,32,87,0.0,0.0
18575,78.0,10,27,0.0,0.0
18576,83.0,8,31,0.0,0.0
18577,95.0,67,46,0.0,0.0
18578,71.0,87,1662,2.0,0.0
18579,66.0,13,496,3.0,0.0
18580,59.0,35,1614,4.0,0.0
18581,50.0,21,506,5.0,0.0
18582,71.0,0,369,0.0,0.0
18583,66.0,27,508,0.0,0.0
18584,62.0,41,325,0.0,0.0
18585,92.0,56,100,0.0,0.0
18586,95.0,60,79,0.0,0.0
18587,92.0,35,73,0.0,0.0
18588,90.0,33,57,0.0,0.0
18589,86.0,40,31,0.0,0.0
18590,83.0,57,52,0.0,0.0
18591,80.0,49,48,0.0,0.0
18592,78.0,2,46,0.0,0.0
18593,68.0,142,258,3.0,0.0
18594,49.0,2,238,5.0,0.0
18595,68.0,57,158,0.0,0.0
18596,71.0,5,152,0.0,0.0
18597,77.0,52,53,0.0,0.0
18598,61.0,6,144,0.0,0.0
18599,80.0,41,51,0.0,0.0
18600,85.0,0,25,0.0,0.0
18601,97.0,4,34,0.0,0.0
18602,66.0,5,502,3.0,0.0
18603,50.0,19,514,5.0,0.0
18604,71.0,27,405,0.0,0.0
18605,62.0,8,394,0.0,0.0
18606,66.0,31,516,0.0,0.0
18607,92.0,58,87,0.0,0.0
18608,95.0,61,72,0.0,0.0
18609,92.0,36,72,0.0,0.0
18610,90.0,34,54,0.0,0.0
18611,86.0,86,28,0.0,0.0
18612,83.0,28,47,0.0,0.0
18613,80.0,44,48,0.0,0.0
18614,78.0,19,48,0.0,0.0
18615,68.0,66,262,3.0,0.0
18616,49.0,4,174,5.0,0.0
18617,77.0,60,63,0.0,0.0
18618,68.0,63,166,0.0,0.0
18619,61.0,3,143,0.0,0.0
18620,71.0,5,160,0.0,0.0
18621,80.0,29,58,0.0,0.0
18622,85.0,10,16,0.0,0.0
18623,97.0,17,101,0.0,0.0
18624,61.0,23,62,0.0,0.0
18625,67.0,8,403,3.0,0.0
18626,67.0,33,497,0.0,0.0
18627,37.0,13,29,6.0,0.0
18628,49.0,1,349,5.0,0.0
18629,70.0,14,449,0.0,0.0
18630,58.0,9,333,4.0,0.0
18631,76.0,8,303,2.0,0.0
18632,76.0,29,382,0.0,0.0
18633,100.0,91,121,0.0,0.0
18634,97.0,52,74,0.0,0.0
18635,94.0,27,57,0.0,0.0
18636,91.0,50,56,0.0,0.0
18637,88.0,14,42,0.0,0.0
18638,85.0,29,67,0.0,0.0
18639,82.0,36,38,0.0,0.0
18640,79.0,113,30,0.0,0.0
18641,73.0,78,71,0.0,0.0
18642,79.0,18,81,0.0,0.0
18643,85.0,67,44,0.0,0.0
18644,76.0,69,59,0.0,0.0
18645,70.0,84,63,0.0,0.0
18646,76.0,29,84,0.0,0.0
18647,82.0,53,53,0.0,0.0
18648,73.0,88,52,0.0,0.0
18649,67.0,34,76,0.0,0.0
18650,73.0,36,47,0.0,0.0
18651,79.0,55,30,0.0,0.0
18652,70.0,125,36,0.0,0.0
18653,66.0,20,99,0.0,0.0
18654,60.0,30,121,0.0,0.0
18655,48.0,4,114,0.0,0.0
18656,63.0,43,429,3.0,0.0
18657,66.0,12,476,4.0,0.0
18658,69.0,24,482,2.0,0.0
18659,60.0,32,272,5.0,0.0
18660,75.0,23,79,0.0,0.0
18661,78.0,55,49,0.0,0.0
18662,69.0,63,51,0.0,0.0
18663,59.0,0,122,0.0,0.0
18664,63.0,11,84,0.0,0.0
18665,51.0,12,118,0.0,0.0
18666,47.0,26,91,0.0,0.0
18667,54.0,15,127,0.0,0.0
18668,59.0,42,267,5.0,0.0
18669,69.0,33,90,0.0,0.0
18670,75.0,18,52,0.0,0.0
18671,66.0,1,65,0.0,0.0
18672,46.0,5,50,0.0,0.0
18673,50.0,35,127,0.0,0.0
18674,67.0,56,265,2.0,0.0
18675,62.0,34,682,3.0,0.0
18676,55.0,12,100,0.0,0.0
18677,62.0,5,82,0.0,0.0
18678,58.0,39,294,5.0,0.0
18679,67.0,19,457,4.0,0.0
18680,58.0,5,78,0.0,0.0
18681,70.0,48,64,0.0,0.0
18682,74.0,29,59,0.0,0.0
18683,67.0,26,36,0.0,0.0
18684,70.0,12,212,2.0,0.0
18685,55.0,5,127,0.0,0.0
18686,43.0,34,132,0.0,0.0
18687,67.0,35,89,0.0,0.0
18688,55.0,117,222,5.0,0.0
18689,74.0,3,63,0.0,0.0
18690,79.0,31,37,0.0,0.0
18691,70.0,7,30,0.0,0.0
18692,71.0,17,327,2.0,0.0
18693,71.0,15,113,0.0,0.0
18694,53.0,10,127,0.0,0.0
18695,68.0,12,288,4.0,0.0
18696,41.0,5,134,0.0,0.0
18697,53.0,40,236,5.0,0.0
18698,80.0,34,61,0.0,0.0
18699,83.0,10,43,0.0,0.0
18700,74.0,29,37,0.0,0.0
18701,72.0,3,425,2.0,0.0
18702,63.0,12,409,3.0,0.0
18703,72.0,28,78,0.0,0.0
18704,51.0,15,105,0.0,0.0
18705,39.0,8,118,0.0,0.0
18706,51.0,17,237,5.0,0.0
18707,67.0,36,745,4.0,0.0
18708,79.0,28,66,0.0,0.0
18709,84.0,59,30,0.0,0.0
18710,75.0,31,47,0.0,0.0
18711,72.0,40,33,0.0,0.0
18712,48.0,1,101,0.0,0.0
18713,36.0,31,67,0.0,0.0
18714,48.0,0,153,5.0,0.0
18715,67.0,53,44,0.0,0.0
18716,72.0,28,55,0.0,0.0
18717,63.0,105,28,0.0,0.0
18718,64.0,13,291,3.0,0.0
18719,70.0,10,285,2.0,0.0
18720,48.0,17,110,0.0,0.0
18721,55.0,1,125,0.0,0.0
18722,64.0,14,94,0.0,0.0
18723,60.0,5,256,5.0,0.0
18724,60.0,35,56,0.0,0.0
18725,52.0,8,122,0.0,0.0
18726,70.0,35,66,0.0,0.0
18727,76.0,34,41,0.0,0.0
18728,67.0,37,31,0.0,0.0
18729,47.0,16,47,0.0,0.0
18730,59.0,87,255,5.0,0.0
18731,68.0,29,220,2.0,0.0
18732,63.0,61,531,3.0,0.0
18733,51.0,24,115,0.0,0.0
18734,63.0,0,79,0.0,0.0
18735,68.0,16,341,4.0,0.0
18736,59.0,13,70,0.0,0.0
18737,56.0,18,81,0.0,0.0
18738,71.0,41,78,0.0,0.0
18739,75.0,21,57,0.0,0.0
18740,68.0,8,29,0.0,0.0
18741,71.0,32,229,2.0,0.0
18742,56.0,2,133,0.0,0.0
18743,68.0,30,84,0.0,0.0
18744,44.0,16,148,0.0,0.0
18745,56.0,29,249,5.0,0.0
18746,75.0,17,67,0.0,0.0
18747,80.0,23,43,0.0,0.0
18748,71.0,35,14,0.0,0.0
18749,72.0,25,278,2.0,0.0
18750,69.0,28,288,4.0,0.0
18751,54.0,8,254,5.0,0.0
18752,72.0,29,124,0.0,0.0
18753,54.0,9,105,0.0,0.0
18754,42.0,2,112,0.0,0.0
18755,81.0,1,59,0.0,0.0
18756,84.0,42,39,0.0,0.0
18757,75.0,54,32,0.0,0.0
18758,64.0,42,430,3.0,0.0
18759,73.0,7,394,2.0,0.0
18760,73.0,31,85,0.0,0.0
18761,52.0,6,261,5.0,0.0
18762,52.0,19,114,0.0,0.0
18763,40.0,15,129,0.0,0.0
18764,68.0,32,757,4.0,0.0
18765,80.0,33,83,0.0,0.0
18766,85.0,50,57,0.0,0.0
18767,76.0,29,49,0.0,0.0
18768,73.0,45,27,0.0,0.0
18769,49.0,29,96,0.0,0.0
18770,37.0,27,67,0.0,0.0
18771,49.0,19,145,5.0,0.0
18772,68.0,16,60,0.0,0.0
18773,73.0,6,48,0.0,0.0
18774,64.0,171,36,0.0,0.0
18775,61.0,5,316,5.0,0.0
18776,71.0,15,328,2.0,0.0
18777,65.0,2,316,3.0,0.0
18778,49.0,27,123,0.0,0.0
18779,65.0,2,107,0.0,0.0
18780,56.0,4,109,0.0,0.0
18781,53.0,5,97,0.0,0.0
18782,61.0,3,103,0.0,0.0
18783,71.0,26,57,0.0,0.0
18784,77.0,45,32,0.0,0.0
18785,68.0,30,33,0.0,0.0
18786,69.0,16,414,4.0,0.0
18787,48.0,12,118,0.0,0.0
18788,52.0,5,112,0.0,0.0
18789,57.0,23,88,0.0,0.0
18790,69.0,22,144,2.0,0.0
18791,60.0,11,73,0.0,0.0
18792,64.0,18,51,0.0,0.0
18793,64.0,65,418,3.0,0.0
18794,60.0,7,153,5.0,0.0
18795,72.0,19,61,0.0,0.0
18796,76.0,24,58,0.0,0.0
18797,69.0,113,27,0.0,0.0
18798,57.0,11,118,0.0,0.0
18799,69.0,11,80,0.0,0.0
18800,45.0,26,88,0.0,0.0
18801,57.0,24,120,5.0,0.0
18802,72.0,51,246,2.0,0.0
18803,76.0,1,72,0.0,0.0
18804,81.0,21,34,0.0,0.0
18805,72.0,8,34,0.0,0.0
18806,70.0,41,280,4.0,0.0
18807,67.0,12,262,3.0,0.0
18808,73.0,11,250,2.0,0.0
18809,67.0,37,88,0.0,0.0
18810,52.0,4,121,0.0,0.0
18811,64.0,5,265,5.0,0.0
18812,64.0,6,123,0.0,0.0
18813,55.0,24,143,0.0,0.0
18814,58.0,0,143,0.0,0.0
18815,73.0,15,64,0.0,0.0
18816,79.0,60,48,0.0,0.0
18817,70.0,13,57,0.0,0.0
18818,71.0,9,107,2.0,0.0
18819,59.0,7,93,0.0,0.0
18820,54.0,27,104,0.0,0.0
18821,66.0,115,431,3.0,0.0
18822,62.0,1,83,0.0,0.0
18823,50.0,4,99,0.0,0.0
18824,62.0,5,129,5.0,0.0
18825,71.0,87,940,4.0,0.0
18826,66.0,5,71,0.0,0.0
18827,74.0,39,66,0.0,0.0
18828,78.0,33,57,0.0,0.0
18829,71.0,78,39,0.0,0.0
18830,74.0,18,191,2.0,0.0
18831,59.0,7,84,0.0,0.0
18832,71.0,1,82,0.0,0.0
18833,47.0,26,56,0.0,0.0
18834,59.0,39,79,5.0,0.0
18835,78.0,34,64,0.0,0.0
18836,83.0,17,41,0.0,0.0
18837,74.0,3,31,0.0,0.0
18838,75.0,33,134,2.0,0.0
18839,66.0,4,101,0.0,0.0
18840,69.0,14,87,0.0,0.0
18841,59.0,0,108,0.0,0.0
18842,57.0,4,102,0.0,0.0
18843,54.0,13,105,0.0,0.0
18844,69.0,7,235,3.0,0.0
18845,54.0,47,236,5.0,0.0
18846,75.0,5,47,0.0,0.0
18847,81.0,43,28,0.0,0.0
18848,71.0,38,28,0.0,0.0
18849,67.0,20,64,0.0,0.0
18850,64.0,12,81,0.0,0.0
18851,59.0,14,93,0.0,0.0
18852,52.0,7,114,0.0,0.0
18853,67.0,15,484,3.0,0.0
18854,55.0,8,105,0.0,0.0
18855,76.0,6,1558,2.0,0.0
18856,52.0,3,116,5.0,0.0
18857,76.0,33,66,0.0,0.0
18858,79.0,40,43,0.0,0.0
18859,71.0,51,30,0.0,0.0
18860,70.0,24,306,4.0,0.0
18861,48.0,7,260,6.0,0.0
18862,48.0,71,103,0.0,0.0
18863,60.0,1,90,0.0,0.0
18864,48.0,28,208,5.0,0.0
18865,70.0,12,82,0.0,0.0
18866,79.0,24,95,0.0,0.0
18867,82.0,13,62,0.0,0.0
18868,76.0,17,79,0.0,0.0
18869,47.0,4,68,0.0,0.0
18870,52.0,33,122,0.0,0.0
18871,55.0,13,98,0.0,0.0
18872,59.0,5,72,0.0,0.0
18873,71.0,15,71,0.0,0.0
18874,71.0,10,267,4.0,0.0
18875,67.0,21,1063,3.0,0.0
18876,47.0,1,249,6.0,0.0
18877,47.0,5,243,5.0,0.0
18878,79.0,31,78,0.0,0.0
18879,83.0,14,57,0.0,0.0
18880,46.0,7,34,0.0,0.0
18881,76.0,77,31,0.0,0.0
18882,52.0,71,116,0.0,0.0
18883,55.0,8,89,0.0,0.0
18884,61.0,2,43,0.0,0.0
18885,73.0,5,30,0.0,0.0
18886,46.0,66,884,5.0,0.0
18887,46.0,4,842,6.0,0.0
18888,73.0,30,828,4.0,0.0
18889,76.0,70,73,0.0,0.0
18890,79.0,34,78,0.0,0.0
18891,85.0,104,40,0.0,0.0
18892,34.0,22,239,0.0,0.0
18893,46.0,302,233,0.0,0.0
18894,100.0,180,22,0.0,0.0
18895,58.0,4,220,0.0,0.0
18896,35.0,6,141,0.0,0.0
18897,64.0,6,216,2.0,0.0
18898,47.0,0,245,6.0,0.0
18899,59.0,4,127,3.0,0.0
18900,59.0,35,148,0.0,0.0
18901,47.0,21,125,0.0,0.0
18902,47.0,43,262,5.0,0.0
18903,71.0,17,319,4.0,0.0
18904,64.0,19,76,3.0,0.0
18905,71.0,32,149,2.0,0.0
18906,79.0,10,182,2.0,0.0
18907,71.0,17,162,3.0,0.0
18908,76.0,31,179,3.0,0.0
18909,59.0,19,68,0.0,0.0
18910,51.0,76,103,0.0,0.0
18911,52.0,53,76,0.0,0.0
18912,54.0,73,61,0.0,0.0
18913,64.0,6,54,0.0,0.0
18914,55.0,45,70,0.0,0.0
18915,58.0,52,66,0.0,0.0
18916,67.0,18,41,0.0,0.0
18917,59.0,51,55,0.0,0.0
18918,63.0,49,58,0.0,0.0
18919,71.0,24,34,0.0,0.0
18920,64.0,64,54,0.0,0.0
18921,66.0,5,55,0.0,0.0
18922,76.0,65,60,0.0,0.0
18923,67.0,62,76,0.0,0.0
18924,70.0,1,67,0.0,0.0
18925,79.0,47,61,0.0,0.0
18926,71.0,85,57,0.0,0.0
18927,75.0,21,70,0.0,0.0
18928,83.0,38,91,0.0,0.0
18929,76.0,54,76,0.0,0.0
18930,88.0,23,94,0.0,0.0
18931,78.0,30,61,0.0,0.0
18932,79.0,44,60,0.0,0.0
18933,91.0,25,35,0.0,0.0
18934,82.0,70,58,0.0,0.0
18935,83.0,22,76,0.0,0.0
18936,95.0,15,29,0.0,0.0
18937,87.0,44,39,0.0,0.0
18938,88.0,73,26,0.0,0.0
18939,90.0,53,45,0.0,0.0
18940,100.0,6,89,0.0,0.0
18941,91.0,57,37,0.0,0.0
18942,90.0,8,69,0.0,0.0
18943,100.0,5,54,0.0,0.0
18944,59.0,14,23,4.0,0.0
18945,67.0,4,40,3.0,0.0
18946,76.0,6,36,2.0,0.0
18947,47.0,10,38,5.0,0.0
18948,91.0,114,41,0.0,0.0
18949,46.0,6,100,0.0,0.0
18950,100.0,11,86,0.0,0.0
18951,90.0,16,69,0.0,0.0
18952,47.0,20,96,0.0,0.0
18953,91.0,46,38,0.0,0.0
18954,51.0,4,72,0.0,0.0
18955,100.0,16,38,0.0,0.0
18956,90.0,12,50,0.0,0.0
18957,91.0,56,26,0.0,0.0
18958,52.0,22,80,0.0,0.0
18959,54.0,37,64,0.0,0.0
18960,87.0,30,30,0.0,0.0
18961,95.0,6,23,0.0,0.0
18962,55.0,58,66,0.0,0.0
18963,88.0,19,14,0.0,0.0
18964,58.0,19,74,0.0,0.0
18965,90.0,1,69,0.0,0.0
18966,100.0,19,46,0.0,0.0
18967,91.0,23,38,0.0,0.0
18968,59.0,60,57,0.0,0.0
18969,63.0,15,67,0.0,0.0
18970,90.0,2,61,0.0,0.0
18971,100.0,18,43,0.0,0.0
18972,91.0,52,29,0.0,0.0
18973,64.0,26,76,0.0,0.0
18974,66.0,43,65,0.0,0.0
18975,95.0,29,30,0.0,0.0
18976,87.0,4,14,0.0,0.0
18977,67.0,43,67,0.0,0.0
18978,88.0,17,13,0.0,0.0
18979,70.0,6,64,0.0,0.0
18980,90.0,28,67,0.0,0.0
18981,100.0,18,36,0.0,0.0
18982,91.0,16,46,0.0,0.0
18983,71.0,57,56,0.0,0.0
18984,75.0,2,73,0.0,0.0
18985,100.0,19,42,0.0,0.0
18986,90.0,9,59,0.0,0.0
18987,91.0,37,29,0.0,0.0
18988,76.0,43,57,0.0,0.0
18989,87.0,15,48,0.0,0.0
18990,78.0,50,65,0.0,0.0
18991,95.0,13,33,0.0,0.0
18992,86.0,3,19,0.0,0.0
18993,79.0,50,65,0.0,0.0
18994,82.0,21,66,0.0,0.0
18995,90.0,22,75,0.0,0.0
18996,100.0,12,41,0.0,0.0
18997,98.0,11,15,0.0,0.0
18998,91.0,15,45,0.0,0.0
18999,83.0,74,59,0.0,0.0
19000,87.0,20,89,0.0,0.0
19001,100.0,32,52,0.0,0.0
19002,90.0,2,50,0.0,0.0
19003,88.0,141,41,0.0,0.0
19004,91.0,7,28,0.0,0.0
19005,91.0,145,89,0.0,0.0
19006,95.0,5,77,0.0,0.0
19007,100.0,3,82,0.0,0.0
19008,99.0,36,71,0.0,0.0
19009,90.0,35,107,0.0,0.0
19010,94.0,29,41,0.0,0.0
19011,93.0,6,28,0.0,0.0
19012,89.0,49,63,0.0,0.0
19013,93.0,14,25,0.0,0.0
19014,98.0,19,38,0.0,0.0
19015,88.0,53,49,0.0,0.0
19016,92.0,14,25,0.0,0.0
19017,97.0,8,39,0.0,0.0
19018,87.0,46,43,0.0,0.0
19019,91.0,4,25,0.0,0.0
19020,96.0,12,28,0.0,0.0
19021,86.0,47,42,0.0,0.0
19022,95.0,6,31,0.0,0.0
19023,90.0,8,22,0.0,0.0
19024,89.0,5,26,0.0,0.0
19025,94.0,8,31,0.0,0.0
19026,85.0,48,37,0.0,0.0
19027,84.0,43,42,0.0,0.0
19028,88.0,3,25,0.0,0.0
19029,93.0,10,28,0.0,0.0
19030,92.0,3,30,0.0,0.0
19031,87.0,15,31,0.0,0.0
19032,83.0,44,43,0.0,0.0
19033,86.0,1,28,0.0,0.0
19034,82.0,32,54,0.0,0.0
19035,91.0,25,29,0.0,0.0
19036,81.0,27,65,0.0,0.0
19037,90.0,5,30,0.0,0.0
19038,85.0,29,33,0.0,0.0
19039,89.0,30,30,0.0,0.0
19040,84.0,2,27,0.0,0.0
19041,80.0,28,59,0.0,0.0
19042,79.0,17,73,0.0,0.0
19043,83.0,4,29,0.0,0.0
19044,88.0,35,33,0.0,0.0
19045,82.0,3,29,0.0,0.0
19046,87.0,36,32,0.0,0.0
19047,78.0,17,66,0.0,0.0
19048,86.0,46,31,0.0,0.0
19049,77.0,19,76,0.0,0.0
19050,81.0,1,29,0.0,0.0
19051,85.0,9,33,0.0,0.0
19052,76.0,12,79,0.0,0.0
19053,80.0,40,38,0.0,0.0
19054,75.0,28,74,0.0,0.0
19055,84.0,42,30,0.0,0.0
19056,79.0,3,27,0.0,0.0
19057,74.0,6,91,0.0,0.0
19058,83.0,43,41,0.0,0.0
19059,78.0,0,24,0.0,0.0
19060,77.0,4,19,0.0,0.0
19061,73.0,93,103,0.0,0.0
19062,77.0,11,25,0.0,0.0
19063,83.0,3,13,0.0,0.0
19064,82.0,64,34,0.0,0.0
19065,78.0,7,12,0.0,0.0
19066,81.0,48,130,0.0,0.0
19067,72.0,20,109,0.0,0.0
19068,76.0,27,177,0.0,0.0
19069,71.0,21,109,0.0,0.0
19070,79.0,3,103,0.0,0.0
19071,78.0,36,37,0.0,0.0
19072,70.0,69,70,0.0,0.0
19073,71.0,30,33,0.0,0.0
19074,79.0,255,59,0.0,0.0
19075,47.0,23,300,0.0,0.0
19076,35.0,8,287,0.0,0.0
19077,79.0,10,169,0.0,0.0
19078,83.0,50,118,0.0,0.0
19079,59.0,4,1465,7.0,0.0
19080,78.0,36,107,0.0,0.0
19081,71.0,52,49,0.0,0.0
19082,69.0,19,29,0.0,0.0
19083,79.0,22,91,0.0,0.0
19084,83.0,3,61,0.0,0.0
19085,78.0,37,77,0.0,0.0
19086,71.0,27,40,0.0,0.0
19087,69.0,4,36,0.0,0.0
19088,79.0,26,73,0.0,0.0
19089,83.0,23,45,0.0,0.0
19090,78.0,14,79,0.0,0.0
19091,71.0,1,68,0.0,0.0
19092,69.0,26,41,0.0,0.0
19093,79.0,29,83,0.0,0.0
19094,46.0,0,31,0.0,0.0
19095,34.0,22,29,0.0,0.0
19096,83.0,30,48,0.0,0.0
19097,78.0,36,94,0.0,0.0
19098,71.0,9,76,0.0,0.0
19099,69.0,28,47,0.0,0.0
19100,47.0,15,75,0.0,0.0
19101,79.0,20,89,0.0,0.0
19102,35.0,5,57,0.0,0.0
19103,83.0,11,60,0.0,0.0
19104,78.0,38,72,0.0,0.0
19105,69.0,8,33,0.0,0.0
19106,71.0,22,41,0.0,0.0
19107,79.0,19,73,0.0,0.0
19108,83.0,13,48,0.0,0.0
19109,51.0,7,21,0.0,0.0
19110,39.0,3,16,0.0,0.0
19111,78.0,26,73,0.0,0.0
19112,71.0,13,54,0.0,0.0
19113,69.0,19,35,0.0,0.0
19114,79.0,28,82,0.0,0.0
19115,83.0,7,47,0.0,0.0
19116,42.0,7,52,0.0,0.0
19117,54.0,18,59,0.0,0.0
19118,78.0,30,76,0.0,0.0
19119,69.0,2,43,0.0,0.0
19120,71.0,26,45,0.0,0.0
19121,79.0,26,77,0.0,0.0
19122,83.0,30,46,0.0,0.0
19123,78.0,32,87,0.0,0.0
19124,71.0,16,59,0.0,0.0
19125,69.0,14,45,0.0,0.0
19126,59.0,20,74,0.0,0.0
19127,47.0,2,55,0.0,0.0
19128,79.0,25,91,0.0,0.0
19129,83.0,16,52,0.0,0.0
19130,78.0,31,79,0.0,0.0
19131,69.0,3,38,0.0,0.0
19132,71.0,25,41,0.0,0.0
19133,79.0,22,77,0.0,0.0
19134,83.0,29,46,0.0,0.0
19135,78.0,1,82,0.0,0.0
19136,71.0,15,73,0.0,0.0
19137,69.0,29,41,0.0,0.0
19138,79.0,16,95,0.0,0.0
19139,83.0,36,54,0.0,0.0
19140,66.0,24,30,0.0,0.0
19141,54.0,3,25,0.0,0.0
19142,78.0,58,68,0.0,0.0
19143,71.0,6,51,0.0,0.0
19144,69.0,13,38,0.0,0.0
19145,79.0,5,71,0.0,0.0
19146,83.0,3,61,0.0,0.0
19147,78.0,123,42,0.0,0.0
19148,69.0,4,23,0.0,0.0
19149,71.0,0,23,0.0,0.0
19150,59.0,3,2109,7.0,0.0
19151,87.0,5,2041,12.0,0.0
19152,81.0,62,2045,12.0,0.0
19153,71.0,4,2108,7.0,0.0
19154,71.0,12,120,0.0,0.0
19155,59.0,18,102,0.0,0.0
19156,91.0,27,131,0.0,0.0
19157,95.0,33,66,0.0,0.0
19158,90.0,46,101,0.0,0.0
19159,81.0,2,46,0.0,0.0
19160,83.0,46,48,0.0,0.0
19161,91.0,46,104,0.0,0.0
19162,95.0,36,66,0.0,0.0
19163,90.0,53,120,0.0,0.0
19164,81.0,29,69,0.0,0.0
19165,83.0,11,98,0.0,0.0
19166,91.0,34,123,0.0,0.0
19167,76.0,4,118,0.0,0.0
19168,71.0,2,116,0.0,0.0
19169,95.0,34,74,0.0,0.0
19170,90.0,34,113,0.0,0.0
19171,83.0,38,66,0.0,0.0
19172,81.0,5,58,0.0,0.0
19173,75.0,3,60,0.0,0.0
19174,76.0,6,61,0.0,0.0
19175,91.0,22,101,0.0,0.0
19176,95.0,25,62,0.0,0.0
19177,75.0,11,39,0.0,0.0
19178,90.0,29,86,0.0,0.0
19179,81.0,6,42,0.0,0.0
19180,83.0,22,48,0.0,0.0
19181,76.0,9,53,0.0,0.0
19182,91.0,25,92,0.0,0.0
19183,95.0,33,58,0.0,0.0
19184,75.0,9,38,0.0,0.0
19185,76.0,33,64,0.0,0.0
19186,90.0,2,91,0.0,0.0
19187,81.0,4,46,0.0,0.0
19188,83.0,2,49,0.0,0.0
19189,75.0,34,36,0.0,0.0
19190,95.0,32,61,0.0,0.0
19191,91.0,6,89,0.0,0.0
19192,76.0,15,66,0.0,0.0
19193,90.0,28,85,0.0,0.0
19194,83.0,9,43,0.0,0.0
19195,81.0,3,40,0.0,0.0
19196,75.0,24,40,0.0,0.0
19197,95.0,7,53,0.0,0.0
19198,91.0,0,81,0.0,0.0
19199,76.0,23,58,0.0,0.0
19200,75.0,21,39,0.0,0.0
19201,90.0,30,84,0.0,0.0
19202,81.0,4,42,0.0,0.0
19203,83.0,29,46,0.0,0.0
19204,47.0,33,1109,5.0,0.0
19205,35.0,0,1109,6.0,0.0
19206,76.0,12,114,0.0,0.0
19207,71.0,22,65,0.0,0.0
19208,91.0,8,82,0.0,0.0
19209,95.0,6,54,0.0,0.0
19210,90.0,24,78,0.0,0.0
19211,83.0,1,47,0.0,0.0
19212,81.0,9,37,0.0,0.0
19213,75.0,21,35,0.0,0.0
19214,91.0,3,73,0.0,0.0
19215,95.0,14,45,0.0,0.0
19216,76.0,14,53,0.0,0.0
19217,90.0,0,80,0.0,0.0
19218,75.0,14,28,0.0,0.0
19219,81.0,3,37,0.0,0.0
19220,83.0,35,40,0.0,0.0
19221,76.0,16,46,0.0,0.0
19222,95.0,3,44,0.0,0.0
19223,91.0,22,58,0.0,0.0
19224,75.0,20,29,0.0,0.0
19225,83.0,5,43,0.0,0.0
19226,76.0,15,48,0.0,0.0
19227,81.0,4,38,0.0,0.0
19228,90.0,11,162,0.0,0.0
19229,75.0,20,29,0.0,0.0
19230,95.0,15,39,0.0,0.0
19231,91.0,13,46,0.0,0.0
19232,76.0,6,47,0.0,0.0
19233,83.0,5,42,0.0,0.0
19234,81.0,5,36,0.0,0.0
19235,75.0,18,33,0.0,0.0
19236,95.0,23,24,0.0,0.0
19237,91.0,5,44,0.0,0.0
19238,76.0,1,47,0.0,0.0
19239,81.0,3,39,0.0,0.0
19240,83.0,34,42,0.0,0.0
19241,75.0,7,30,0.0,0.0
19242,76.0,5,109,0.0,0.0
19243,90.0,16,53,0.0,0.0
19244,91.0,6,44,0.0,0.0
19245,95.0,9,31,0.0,0.0
19246,75.0,3,27,0.0,0.0
19247,83.0,29,46,0.0,0.0
19248,81.0,4,42,0.0,0.0
19249,90.0,41,51,0.0,0.0
19250,91.0,0,38,0.0,0.0
19251,95.0,5,31,0.0,0.0
19252,75.0,11,33,0.0,0.0
19253,83.0,21,89,0.0,0.0
19254,81.0,4,82,0.0,0.0
19255,76.0,17,50,0.0,0.0
19256,75.0,19,108,0.0,0.0
19257,91.0,14,122,0.0,0.0
19258,90.0,52,135,0.0,0.0
19259,95.0,41,50,0.0,0.0
19260,73.0,49,113,0.0,0.0
19261,88.0,37,60,0.0,0.0
19262,90.0,17,40,0.0,0.0
19263,75.0,105,55,0.0,0.0
19264,64.0,2,136,7.0,0.0
19265,67.0,1,130,7.0,0.0
19266,48.0,20,450,15.0,0.0
19267,76.0,5,124,0.0,0.0
19268,72.0,2,139,0.0,0.0
19269,48.0,1,113,1.0,0.0
19270,55.0,8,47,4.0,0.0
19271,91.0,3,144,0.0,0.0
19272,79.0,2,120,0.0,0.0
19273,48.0,0,408,5.0,0.0
19274,36.0,5,408,6.0,0.0
19275,100.0,1,136,0.0,0.0
19276,88.0,1,143,0.0,0.0
19277,67.0,43,1532,10.0,0.0
19278,96.0,9,143,0.0,0.0
19279,76.0,3,39,3.0,0.0
19280,48.0,13,409,11.0,0.0
19281,55.0,6,1008,10.0,0.0
19282,60.0,2,912,15.0,0.0
19283,79.0,2,1389,12.0,0.0
19284,84.0,34,61,2.0,0.0
19285,88.0,28,1390,12.0,0.0
19286,67.0,15,36,4.0,0.0
19287,76.0,1,805,13.0,0.0
19288,60.0,13,232,8.0,0.0
19289,72.0,11,787,13.0,0.0
19290,72.0,4,778,8.0,0.0
19291,76.0,6,38,2.0,0.0
19292,76.0,2,46,3.0,0.0
19293,55.0,5,36,4.0,0.0
19294,67.0,1,43,4.0,0.0
19295,84.0,9,42,2.0,0.0
19296,76.0,3,45,2.0,0.0
19297,50.0,21,47,1.0,0.0
19298,76.0,9,40,3.0,0.0
19299,55.0,0,48,4.0,0.0
19300,67.0,15,40,4.0,0.0
19301,48.0,11,56,1.0,0.0
19302,84.0,2,38,2.0,0.0
19303,76.0,27,40,2.0,0.0
19304,50.0,2,44,1.0,0.0
19305,76.0,8,46,3.0,0.0
19306,55.0,2,35,4.0,0.0
19307,67.0,2,37,4.0,0.0
19308,84.0,1,42,2.0,0.0
19309,76.0,16,39,2.0,0.0
19310,48.0,33,52,1.0,0.0
19311,67.0,5,130,7.0,0.0
19312,64.0,3,117,7.0,0.0
19313,50.0,1,43,1.0,0.0
19314,76.0,9,41,3.0,0.0
19315,55.0,15,43,4.0,0.0
19316,67.0,5,85,4.0,0.0
19317,84.0,2,36,2.0,0.0
19318,76.0,11,36,2.0,0.0
19319,48.0,17,45,1.0,0.0
19320,79.0,0,1337,14.0,0.0
19321,76.0,1,568,14.0,0.0
19322,84.0,4,38,2.0,0.0
19323,76.0,4,41,3.0,0.0
19324,50.0,7,41,1.0,0.0
19325,55.0,2,38,4.0,0.0
19326,76.0,6,38,2.0,0.0
19327,48.0,11,44,1.0,0.0
19328,76.0,2,42,3.0,0.0
19329,67.0,1,40,4.0,0.0
19330,50.0,6,40,1.0,0.0
19331,84.0,1,36,2.0,0.0
19332,55.0,4,43,4.0,0.0
19333,47.0,4,98,11.0,0.0
19334,76.0,26,35,2.0,0.0
19335,48.0,12,46,1.0,0.0
19336,47.0,15,161,15.0,0.0
19337,35.0,6,121,6.0,0.0
19338,47.0,0,121,5.0,0.0
19339,67.0,1,36,4.0,0.0
19340,84.0,11,37,2.0,0.0
19341,76.0,5,45,3.0,0.0
19342,55.0,2,40,4.0,0.0
19343,76.0,0,37,2.0,0.0
19344,50.0,34,38,1.0,0.0
19345,48.0,21,43,1.0,0.0
19346,67.0,8,41,4.0,0.0
19347,84.0,2,38,2.0,0.0
19348,48.0,16,143,11.0,0.0
19349,76.0,9,41,3.0,0.0
19350,50.0,0,40,1.0,0.0
19351,55.0,5,43,4.0,0.0
19352,84.0,9,820,12.0,0.0
19353,76.0,6,40,2.0,0.0
19354,48.0,3,164,15.0,0.0
19355,48.0,10,44,1.0,0.0
19356,36.0,0,153,6.0,0.0
19357,48.0,19,153,5.0,0.0
19358,84.0,6,42,2.0,0.0
19359,67.0,17,37,4.0,0.0
19360,76.0,3,49,3.0,0.0
19361,76.0,1,44,2.0,0.0
19362,50.0,7,42,1.0,0.0
19363,55.0,16,41,4.0,0.0
19364,48.0,20,48,1.0,0.0
19365,52.0,22,158,11.0,0.0
19366,84.0,15,87,2.0,0.0
19367,67.0,11,36,4.0,0.0
19368,76.0,0,49,3.0,0.0
19369,52.0,1,170,15.0,0.0
19370,76.0,2,41,2.0,0.0
19371,50.0,0,43,1.0,0.0
19372,55.0,9,43,4.0,0.0
19373,52.0,0,153,5.0,0.0
19374,40.0,5,153,6.0,0.0
19375,48.0,7,134,1.0,0.0
19376,67.0,13,36,4.0,0.0
19377,76.0,1,48,2.0,0.0
19378,76.0,1,50,3.0,0.0
19379,55.0,2,41,4.0,0.0
19380,50.0,15,60,1.0,0.0
19381,55.0,8,58,11.0,0.0
19382,84.0,2,40,2.0,0.0
19383,55.0,25,45,4.0,0.0
19384,67.0,1,42,4.0,0.0
19385,74.0,0,43,3.0,0.0
19386,74.0,1,38,2.0,0.0
19387,67.0,0,163,8.0,0.0
19388,77.0,3,798,13.0,0.0
19389,55.0,13,68,15.0,0.0
19390,77.0,6,790,14.0,0.0
19391,74.0,1,775,13.0,0.0
19392,84.0,9,40,2.0,0.0
19393,55.0,0,64,5.0,0.0
19394,43.0,16,64,6.0,0.0
19395,62.0,6,810,15.0,0.0
19396,67.0,9,892,7.0,0.0
19397,74.0,1,43,3.0,0.0
19398,74.0,1,44,2.0,0.0
19399,55.0,39,44,4.0,0.0
19400,67.0,1,41,4.0,0.0
19401,84.0,19,37,2.0,0.0
19402,74.0,5,39,2.0,0.0
19403,74.0,11,100,3.0,0.0
19404,67.0,3,42,4.0,0.0
19405,55.0,26,43,4.0,0.0
19406,84.0,26,42,2.0,0.0
19407,74.0,2,44,2.0,0.0
19408,55.0,42,48,4.0,0.0
19409,67.0,3,44,4.0,0.0
19410,84.0,22,39,2.0,0.0
19411,79.0,9,164,8.0,0.0
19412,55.0,2,75,11.0,0.0
19413,67.0,27,135,8.0,0.0
19414,55.0,19,81,15.0,0.0
19415,74.0,16,38,2.0,0.0
19416,55.0,3,45,4.0,0.0
19417,74.0,13,101,3.0,0.0
19418,67.0,10,42,4.0,0.0
19419,55.0,0,54,5.0,0.0
19420,43.0,11,54,6.0,0.0
19421,55.0,8,85,10.0,0.0
19422,84.0,1,43,2.0,0.0
19423,74.0,2,44,2.0,0.0
19424,67.0,2,44,4.0,0.0
19425,55.0,2,45,4.0,0.0
19426,84.0,16,41,2.0,0.0
19427,74.0,6,39,2.0,0.0
19428,74.0,3,36,3.0,0.0
19429,55.0,7,45,4.0,0.0
19430,67.0,30,41,4.0,0.0
19431,84.0,15,43,2.0,0.0
19432,74.0,5,38,2.0,0.0
19433,74.0,11,42,3.0,0.0
19434,55.0,4,46,4.0,0.0
19435,67.0,9,44,4.0,0.0
19436,67.0,5,144,8.0,0.0
19437,74.0,1,137,8.0,0.0
19438,55.0,15,114,15.0,0.0
19439,55.0,8,93,10.0,0.0
19440,83.0,22,37,2.0,0.0
19441,86.0,19,276,12.0,0.0
19442,55.0,5,73,11.0,0.0
19443,55.0,11,76,5.0,0.0
19444,43.0,0,76,6.0,0.0
19445,83.0,1,246,12.0,0.0
19446,74.0,3,95,2.0,0.0
19447,55.0,3,44,4.0,0.0
19448,67.0,10,44,4.0,0.0
19449,77.0,3,39,3.0,0.0
19450,83.0,8,45,2.0,0.0
19451,55.0,5,45,4.0,0.0
19452,67.0,1,44,4.0,0.0
19453,77.0,4,46,3.0,0.0
19454,83.0,5,92,2.0,0.0
19455,74.0,6,39,2.0,0.0
19456,55.0,12,43,4.0,0.0
19457,67.0,34,46,4.0,0.0
19458,77.0,6,105,3.0,0.0
19459,74.0,10,42,2.0,0.0
19460,55.0,1,40,4.0,0.0
19461,67.0,7,47,4.0,0.0
19462,55.0,7,1024,10.0,0.0
19463,67.0,3,1439,10.0,0.0
19464,48.0,2,417,15.0,0.0
19465,84.0,2,1383,12.0,0.0
19466,76.0,11,842,14.0,0.0
19467,88.0,18,1400,12.0,0.0
19468,79.0,0,1954,14.0,0.0
19469,55.0,0,44,4.0,0.0
19470,64.0,9,100,7.0,0.0
19471,84.0,5,40,2.0,0.0
19472,48.0,32,410,11.0,0.0
19473,76.0,8,43,2.0,0.0
19474,72.0,0,780,8.0,0.0
19475,76.0,15,814,8.0,0.0
19476,76.0,2,840,13.0,0.0
19477,60.0,27,4,15.0,0.0
19478,67.0,31,49,4.0,0.0
19479,76.0,8,41,3.0,0.0
19480,48.0,5,457,5.0,0.0
19481,36.0,0,457,6.0,0.0
19482,72.0,1,819,13.0,0.0
19483,48.0,21,124,1.0,0.0
19484,55.0,3,42,4.0,0.0
19485,84.0,1,44,2.0,0.0
19486,76.0,7,23,2.0,0.0
19487,76.0,6,45,3.0,0.0
19488,67.0,25,45,4.0,0.0
19489,55.0,9,43,4.0,0.0
19490,84.0,12,90,2.0,0.0
19491,50.0,40,48,1.0,0.0
19492,76.0,11,36,2.0,0.0
19493,67.0,0,45,4.0,0.0
19494,76.0,1,38,3.0,0.0
19495,48.0,12,54,1.0,0.0
19496,55.0,1,51,4.0,0.0
19497,76.0,1,35,2.0,0.0
19498,76.0,0,41,3.0,0.0
19499,67.0,30,44,4.0,0.0
19500,50.0,21,49,1.0,0.0
19501,55.0,0,47,4.0,0.0
19502,76.0,10,36,2.0,0.0
19503,84.0,5,87,2.0,0.0
19504,67.0,6,46,4.0,0.0
19505,48.0,29,52,1.0,0.0
19506,76.0,6,39,3.0,0.0
19507,64.0,10,84,7.0,0.0
19508,67.0,3,101,7.0,0.0
19509,50.0,3,44,1.0,0.0
19510,76.0,7,46,2.0,0.0
19511,55.0,3,49,4.0,0.0
19512,76.0,3,42,3.0,0.0
19513,67.0,10,48,4.0,0.0
19514,48.0,2,49,1.0,0.0
19515,50.0,0,46,1.0,0.0
19516,84.0,13,38,2.0,0.0
19517,55.0,3,45,4.0,0.0
19518,67.0,2,39,4.0,0.0
19519,76.0,3,39,2.0,0.0
19520,76.0,7,38,3.0,0.0
19521,48.0,14,46,1.0,0.0
19522,47.0,4,163,15.0,0.0
19523,47.0,13,166,11.0,0.0
19524,35.0,0,183,6.0,0.0
19525,47.0,29,183,5.0,0.0
19526,84.0,27,39,2.0,0.0
19527,50.0,13,46,1.0,0.0
19528,55.0,1,48,4.0,0.0
19529,76.0,2,47,2.0,0.0
19530,67.0,15,47,4.0,0.0
19531,76.0,1,44,3.0,0.0
19532,48.0,38,45,1.0,0.0
19533,84.0,5,81,2.0,0.0
19534,50.0,7,40,1.0,0.0
19535,55.0,3,44,4.0,0.0
19536,67.0,5,44,4.0,0.0
19537,48.0,6,158,15.0,0.0
19538,76.0,0,42,2.0,0.0
19539,76.0,1,38,3.0,0.0
19540,48.0,6,151,11.0,0.0
19541,48.0,8,47,1.0,0.0
19542,48.0,2,147,5.0,0.0
19543,36.0,0,147,6.0,0.0
19544,50.0,9,42,1.0,0.0
19545,76.0,0,45,3.0,0.0
19546,55.0,8,44,4.0,0.0
19547,76.0,0,49,2.0,0.0
19548,67.0,27,47,4.0,0.0
19549,48.0,2,53,1.0,0.0
19550,84.0,12,39,2.0,0.0
19551,52.0,2,163,15.0,0.0
19552,55.0,7,43,4.0,0.0
19553,52.0,9,176,11.0,0.0
19554,50.0,4,43,1.0,0.0
19555,40.0,0,149,6.0,0.0
19556,52.0,1,149,5.0,0.0
19557,76.0,23,43,2.0,0.0
19558,67.0,0,43,4.0,0.0
19559,76.0,1,39,3.0,0.0
19560,84.0,15,41,2.0,0.0
19561,48.0,23,52,1.0,0.0
19562,55.0,6,46,4.0,0.0
19563,74.0,1,44,2.0,0.0
19564,76.0,0,44,3.0,0.0
19565,67.0,4,47,4.0,0.0
19566,50.0,2,53,1.0,0.0
19567,84.0,15,44,2.0,0.0
19568,48.0,7,56,1.0,0.0
19569,55.0,2,45,4.0,0.0
19570,55.0,0,94,5.0,0.0
19571,43.0,20,94,6.0,0.0
19572,55.0,1,73,11.0,0.0
19573,77.0,5,893,14.0,0.0
19574,67.0,3,44,4.0,0.0
19575,55.0,18,70,15.0,0.0
19576,74.0,3,39,3.0,0.0
19577,74.0,13,41,2.0,0.0
19578,67.0,12,822,7.0,0.0
19579,62.0,1,644,15.0,0.0
19580,84.0,7,39,2.0,0.0
19581,67.0,11,306,8.0,0.0
19582,77.0,52,873,13.0,0.0
19583,74.0,37,810,13.0,0.0
19584,79.0,13,430,8.0,0.0
19585,55.0,2,49,4.0,0.0
19586,67.0,28,51,4.0,0.0
19587,74.0,5,43,3.0,0.0
19588,74.0,2,39,2.0,0.0
19589,84.0,15,40,2.0,0.0
19590,55.0,9,42,4.0,0.0
19591,67.0,4,42,4.0,0.0
19592,74.0,21,42,3.0,0.0
19593,74.0,2,102,2.0,0.0
19594,84.0,38,44,2.0,0.0
19595,55.0,4,48,4.0,0.0
19596,67.0,4,45,4.0,0.0
19597,74.0,38,47,3.0,0.0
19598,84.0,15,42,2.0,0.0
19599,55.0,13,45,4.0,0.0
19600,67.0,12,47,4.0,0.0
19601,43.0,3,57,6.0,0.0
19602,55.0,0,57,5.0,0.0
19603,74.0,3,40,3.0,0.0
19604,55.0,2,74,15.0,0.0
19605,55.0,17,74,11.0,0.0
19606,74.0,2,46,2.0,0.0
19607,84.0,6,48,2.0,0.0
19608,55.0,23,110,10.0,0.0
19609,55.0,9,49,4.0,0.0
19610,74.0,3,45,3.0,0.0
19611,67.0,13,42,4.0,0.0
19612,74.0,17,47,2.0,0.0
19613,84.0,3,52,2.0,0.0
19614,55.0,10,48,4.0,0.0
19615,67.0,6,49,4.0,0.0
19616,74.0,9,40,3.0,0.0
19617,74.0,15,40,2.0,0.0
19618,84.0,7,48,2.0,0.0
19619,55.0,7,50,4.0,0.0
19620,67.0,7,37,8.0,0.0
19621,74.0,11,45,3.0,0.0
19622,67.0,10,47,4.0,0.0
19623,74.0,16,44,2.0,0.0
19624,67.0,5,49,8.0,0.0
19625,55.0,16,47,4.0,0.0
19626,83.0,3,39,2.0,0.0
19627,55.0,6,77,11.0,0.0
19628,43.0,0,91,6.0,0.0
19629,55.0,4,91,5.0,0.0
19630,62.0,5,108,10.0,0.0
19631,67.0,11,47,4.0,0.0
19632,77.0,1,44,3.0,0.0
19633,55.0,2,101,15.0,0.0
19634,86.0,8,335,12.0,0.0
19635,83.0,10,318,12.0,0.0
19636,74.0,8,36,2.0,0.0
19637,67.0,8,40,8.0,0.0
19638,83.0,8,48,2.0,0.0
19639,55.0,8,48,4.0,0.0
19640,84.0,3,22,2.0,0.0
19641,77.0,1,40,3.0,0.0
19642,67.0,10,45,4.0,0.0
19643,74.0,40,41,2.0,0.0
19644,55.0,11,47,4.0,0.0
19645,83.0,5,38,2.0,0.0
19646,67.0,11,44,4.0,0.0
19647,77.0,4,96,3.0,0.0
19648,74.0,29,38,2.0,0.0
19649,83.0,4,42,2.0,0.0
19650,67.0,1,38,8.0,0.0
19651,55.0,15,39,4.0,0.0
19652,67.0,1,38,4.0,0.0
19653,74.0,37,36,2.0,0.0
19654,55.0,50,131,4.0,0.0
19655,76.0,14,240,2.0,0.0
19656,76.0,5,216,3.0,0.0
19657,64.0,9,188,7.0,0.0
19658,67.0,7,189,7.0,0.0
19659,76.0,1826,277,13.0,0.0
19660,72.0,3,246,13.0,0.0
19661,84.0,6,159,2.0,0.0
19662,76.0,8,234,14.0,0.0
19663,72.0,5,150,8.0,0.0
19664,76.0,6,159,8.0,0.0
19665,36.0,0,238,6.0,0.0
19666,48.0,22,238,5.0,0.0
19667,48.0,7,118,1.0,0.0
19668,48.0,8,167,15.0,0.0
19669,48.0,3,207,11.0,0.0
19670,84.0,0,202,12.0,0.0
19671,67.0,178,2298,10.0,0.0
19672,88.0,1,212,12.0,0.0
19673,60.0,18,167,15.0,0.0
19674,67.0,15,104,4.0,0.0
19675,64.0,164,2054,10.0,0.0
19676,67.0,18,1108,15.0,0.0
19677,64.0,51,1035,15.0,0.0
19678,64.0,25,339,10.0,0.0
19679,60.0,40,273,10.0,0.0
19680,91.0,75,995,12.0,0.0
19681,79.0,114,1066,14.0,0.0
19682,88.0,33,844,12.0,0.0
19683,76.0,109,874,14.0,0.0
19684,64.0,515,269,15.0,0.0
19685,60.0,11,213,15.0,0.0
19686,88.0,12,267,12.0,0.0
19687,84.0,40,224,12.0,0.0
19688,67.0,404,985,10.0,0.0
19689,76.0,304,285,14.0,0.0
19690,67.0,4,1395,15.0,0.0
19691,64.0,215,1453,15.0,0.0
19692,64.0,6,956,10.0,0.0
19693,72.0,27,242,14.0,0.0
19694,72.0,39,321,2.0,0.0
19695,60.0,233,325,4.0,0.0
19696,71.0,88,329,2.0,0.0
19697,59.0,18,382,4.0,0.0
19698,91.0,5,585,12.0,0.0
19699,88.0,3,605,12.0,0.0
19700,76.0,14,588,14.0,0.0
19701,79.0,3,566,14.0,0.0
19702,70.0,0,569,2.0,0.0
19703,58.0,10,546,4.0,0.0
19704,46.0,37,317,6.0,0.0
19705,71.0,6,624,2.0,0.0
19706,59.0,198,413,4.0,0.0
19707,78.0,2,350,14.0,0.0
19708,75.0,0,312,14.0,0.0
19709,90.0,29,301,12.0,0.0
19710,87.0,3,298,12.0,0.0
19711,47.0,27,331,6.0,0.0
19712,66.0,20,357,15.0,0.0
19713,63.0,6,341,15.0,0.0
19714,77.0,1,346,14.0,0.0
19715,44.0,2,316,6.0,0.0
19716,74.0,11,296,14.0,0.0
19717,65.0,4,336,3.0,0.0
19718,89.0,165,346,12.0,0.0
19719,56.0,8,335,4.0,0.0
19720,86.0,11,302,12.0,0.0
19721,65.0,3,309,15.0,0.0
19722,62.0,6,301,15.0,0.0
19723,72.0,14,334,2.0,0.0
19724,45.0,3,321,6.0,0.0
19725,84.0,49,261,12.0,0.0
19726,64.0,249,391,3.0,0.0
19727,76.0,9,363,14.0,0.0
19728,88.0,1,320,12.0,0.0
19729,57.0,8,696,4.0,0.0
19730,64.0,17,363,15.0,0.0
19731,60.0,36,196,15.0,0.0
19732,72.0,4,279,14.0,0.0
19733,76.0,278,485,2.0,0.0
19734,84.0,18,365,12.0,0.0
19735,81.0,41,319,12.0,0.0
19736,60.0,40,3,15.0,0.0
19737,57.0,2,398,15.0,0.0
19738,60.0,0,2,3.0,0.0
19739,45.0,10,394,5.0,0.0
19740,33.0,2,365,6.0,0.0
19741,72.0,31,389,14.0,0.0
19742,69.0,11,360,14.0,0.0
19743,64.0,408,658,7.0,0.0
19744,83.0,680,1094,12.0,0.0
19745,79.0,76,949,12.0,0.0
19746,59.0,24,1069,4.0,0.0
19747,59.0,142,778,15.0,0.0
19748,71.0,22,2161,14.0,0.0
19749,35.0,13,2140,6.0,0.0
19750,55.0,26,997,3.0,0.0
19751,47.0,6,2150,5.0,0.0
19752,64.0,11,977,2.0,0.0
19753,67.0,7,962,14.0,0.0
19754,59.0,11,2012,7.0,0.0
19755,63.0,5,1257,2.0,0.0
19756,54.0,33,1241,4.0,0.0
19757,57.0,22,1153,3.0,0.0
19758,63.0,189,1293,14.0,0.0
19759,79.0,41,758,12.0,0.0
19760,71.0,325,774,12.0,0.0
19761,47.0,41,1216,7.0,0.0
19762,78.0,2,437,12.0,0.0
19763,69.0,9,427,12.0,0.0
19764,55.0,9,1057,3.0,0.0
19765,76.0,14,389,12.0,0.0
19766,64.0,253,1444,2.0,0.0
19767,52.0,10,371,4.0,0.0
19768,67.0,6,387,12.0,0.0
19769,52.0,14,547,6.0,0.0
19770,55.0,8,1022,4.0,0.0
19771,64.0,53,369,14.0,0.0
19772,52.0,171,534,5.0,0.0
19773,52.0,106,384,7.0,0.0
19774,50.0,95,248,6.0,0.0
19775,50.0,22,224,5.0,0.0
19776,48.0,24,184,5.0,0.0
19777,48.0,137,188,6.0,0.0
19778,47.0,15,201,5.0,0.0
19779,47.0,386,203,6.0,0.0
19780,45.0,0,694,5.0,0.0
19781,45.0,27,661,6.0,0.0
19782,60.0,40,678,3.0,0.0
19783,54.0,44,708,4.0,0.0
19784,69.0,268,423,2.0,0.0
19785,47.0,56,466,5.0,0.0
19786,47.0,17,409,6.0,0.0
19787,57.0,3,469,4.0,0.0
19788,63.0,465,464,3.0,0.0
19789,66.0,32,350,2.0,0.0
19790,48.0,13,591,6.0,0.0
19791,64.0,286,1523,2.0,0.0
19792,48.0,142,567,5.0,0.0
19793,55.0,1,1062,4.0,0.0
19794,64.0,385,1071,3.0,0.0
19795,47.0,115,216,6.0,0.0
19796,47.0,16,190,5.0,0.0
19797,45.0,49,149,6.0,0.0
19798,45.0,184,189,5.0,0.0
19799,43.0,8,233,6.0,0.0
19800,43.0,24,216,5.0,0.0
19801,42.0,14,743,6.0,0.0
19802,57.0,41,800,4.0,0.0
19803,60.0,314,836,3.0,0.0
19804,42.0,33,714,5.0,0.0
19805,69.0,17,398,2.0,0.0
19806,47.0,28,518,5.0,0.0
19807,47.0,57,455,6.0,0.0
19808,57.0,225,540,3.0,0.0
19809,59.0,54,847,4.0,0.0
19810,63.0,64,462,2.0,0.0
19811,40.0,25,418,6.0,0.0
19812,40.0,24,356,5.0,0.0
19813,64.0,36,362,2.0,0.0
19814,55.0,901,444,3.0,0.0
19815,52.0,9,282,5.0,0.0
19816,55.0,7,284,2.0,0.0
19817,55.0,11,311,4.0,0.0
19818,40.0,9,296,6.0,0.0
19819,55.0,4,373,3.0,0.0
19820,64.0,25,227,2.0,0.0
19821,64.0,6,407,15.0,0.0
19822,71.0,7,214,2.0,0.0
19823,52.0,769,410,15.0,0.0
19824,52.0,9,367,10.0,0.0
19825,76.0,1,219,2.0,0.0
19826,64.0,5,361,10.0,0.0
19827,59.0,4,340,7.0,0.0
19828,64.0,44,275,4.0,0.0
19829,52.0,0,338,7.0,0.0
19830,71.0,13,256,4.0,0.0
19831,76.0,4,312,12.0,0.0
19832,52.0,7,354,11.0,0.0
19833,64.0,1,314,3.0,0.0
19834,79.0,11,365,14.0,0.0
19835,71.0,5,359,14.0,0.0
19836,88.0,11,295,12.0,0.0
19837,76.0,4,368,13.0,0.0
19838,64.0,5,316,8.0,0.0
19839,83.0,1,369,13.0,0.0
19840,76.0,6,316,8.0,0.0
19841,71.0,4,291,3.0,0.0
19842,40.0,22,119,1.0,0.0
19843,76.0,1,290,3.0,0.0
19844,40.0,22,172,6.0,0.0
19845,52.0,10,207,7.0,0.0
19846,64.0,7,216,7.0,0.0
19847,52.0,2,189,10.0,0.0
19848,64.0,6,190,10.0,0.0
19849,40.0,62,42,1.0,0.0
19850,64.0,3,183,14.0,0.0
19851,64.0,7,163,13.0,0.0
19852,64.0,27,114,2.0,0.0
19853,64.0,1,177,8.0,0.0
19854,52.0,1,184,11.0,0.0
19855,64.0,4,168,3.0,0.0
19856,52.0,20,67,5.0,0.0
19857,52.0,30,168,4.0,0.0
19858,52.0,11,200,15.0,0.0
19859,40.0,2,196,15.0,0.0
19860,64.0,135,187,12.0,0.0
19861,52.0,8,1987,5.0,0.0
19862,64.0,5,1943,2.0,0.0
19863,40.0,11,1935,6.0,0.0
19864,64.0,5,1863,14.0,0.0
19865,64.0,33,1955,13.0,0.0
19866,64.0,10,1863,10.0,0.0
19867,64.0,1,1887,3.0,0.0
19868,52.0,3,1870,10.0,0.0
19869,40.0,62,162,1.0,0.0
19870,64.0,8,2047,7.0,0.0
19871,52.0,1,2045,7.0,0.0
19872,52.0,5,2050,4.0,0.0
19873,64.0,12,1782,8.0,0.0
19874,52.0,1,2020,11.0,0.0
19875,64.0,9,1965,12.0,0.0
19876,52.0,27,1967,15.0,0.0
19877,40.0,2,1955,15.0,0.0
19878,41.0,61,64,1.0,0.0
19879,40.0,40,42,1.0,0.0
19880,41.0,41,50,1.0,0.0
19881,40.0,31,51,1.0,0.0
19882,41.0,37,46,1.0,0.0
19883,40.0,28,43,1.0,0.0
19884,41.0,36,41,1.0,0.0
19885,40.0,29,36,1.0,0.0
19886,41.0,38,43,1.0,0.0
19887,40.0,24,39,1.0,0.0
19888,41.0,39,39,1.0,0.0
19889,40.0,26,42,1.0,0.0
19890,41.0,43,43,1.0,0.0
19891,40.0,22,42,1.0,0.0
19892,41.0,40,42,1.0,0.0
19893,40.0,29,41,1.0,0.0
19894,41.0,36,46,1.0,0.0
19895,40.0,28,39,1.0,0.0
19896,41.0,41,42,1.0,0.0
19897,40.0,26,44,1.0,0.0
19898,41.0,44,45,1.0,0.0
19899,40.0,26,44,1.0,0.0
19900,41.0,38,46,1.0,0.0
19901,40.0,28,43,1.0,0.0
19902,41.0,44,44,1.0,0.0
19903,40.0,25,45,1.0,0.0
19904,41.0,39,43,1.0,0.0
19905,40.0,28,43,1.0,0.0
19906,41.0,49,44,1.0,0.0
19907,40.0,26,49,1.0,0.0
19908,41.0,35,46,1.0,0.0
19909,40.0,33,41,1.0,0.0
19910,41.0,45,45,1.0,0.0
19911,40.0,25,47,1.0,0.0
19912,41.0,39,46,1.0,0.0
19913,40.0,30,43,1.0,0.0
19914,41.0,44,45,1.0,0.0
19915,40.0,28,45,1.0,0.0
19916,41.0,44,49,1.0,0.0
19917,40.0,29,44,1.0,0.0
19918,41.0,46,49,1.0,0.0
19919,40.0,27,48,1.0,0.0
19920,41.0,34,48,1.0,0.0
19921,40.0,33,38,1.0,0.0
19922,41.0,31,42,1.0,0.0
19923,40.0,28,45,1.0,0.0
19924,41.0,23,46,1.0,0.0
19925,40.0,7,50,1.0,0.0
19926,41.0,43,48,1.0,0.0
19927,40.0,124,168,1.0,0.0
19928,41.0,31,54,1.0,0.0
