,note,step,duration,channel,velocity
0,56.0,0,640,2.0,52.0
1,56.0,0,640,4.0,48.0
2,68.0,0,640,1.0,48.0
3,53.0,548,528,2.0,49.0
4,65.0,0,528,1.0,47.0
5,53.0,0,528,4.0,48.0
6,51.0,492,252,2.0,48.0
7,51.0,0,252,4.0,48.0
8,63.0,0,252,1.0,46.0
9,53.0,236,280,2.0,51.0
10,65.0,0,280,1.0,48.0
11,53.0,0,280,4.0,49.0
12,50.0,0,584,4.0,57.0
13,62.0,0,584,1.0,55.0
14,50.0,284,584,2.0,58.0
15,82.0,0,552,5.0,84.0
16,70.0,0,552,5.0,77.0
17,71.0,520,456,5.0,83.0
18,83.0,0,456,5.0,100.0
19,62.0,0,1176,8.0,71.0
20,68.0,0,1320,7.0,75.0
21,77.0,0,272,6.0,63.0
22,71.0,0,456,5.0,83.0
23,67.0,264,260,7.0,69.0
24,83.0,528,564,5.0,77.0
25,61.0,0,564,8.0,66.0
26,72.0,0,456,5.0,83.0
27,84.0,0,564,5.0,84.0
28,67.0,0,564,7.0,75.0
29,60.0,268,564,8.0,71.0
30,76.0,0,564,6.0,68.0
31,48.0,544,572,4.0,51.0
32,60.0,0,572,1.0,49.0
33,48.0,0,572,2.0,52.0
34,58.0,0,564,1.0,41.0
35,46.0,556,564,4.0,43.0
36,46.0,0,564,2.0,43.0
37,60.0,0,324,1.0,45.0
38,48.0,516,332,2.0,46.0
39,48.0,0,340,4.0,46.0
40,49.0,0,324,2.0,51.0
41,61.0,0,328,1.0,49.0
42,49.0,260,332,4.0,50.0
43,51.0,272,568,4.0,46.0
44,51.0,0,608,2.0,46.0
45,63.0,0,624,1.0,44.0
46,63.0,548,260,8.0,64.0
47,73.0,0,268,6.0,61.0
48,79.0,0,268,5.0,75.0
49,70.0,0,268,7.0,67.0
50,68.0,0,320,7.0,81.0
51,65.0,0,320,8.0,77.0
52,80.0,260,320,5.0,90.0
53,72.0,0,320,6.0,73.0
54,58.0,280,556,8.0,70.0
55,82.0,0,556,5.0,83.0
56,73.0,0,556,7.0,74.0
57,77.0,0,556,6.0,67.0
58,84.0,0,316,5.0,81.0
59,75.0,0,316,6.0,66.0
60,82.0,288,356,5.0,81.0
61,73.0,0,356,6.0,66.0
62,63.0,0,700,8.0,69.0
63,67.0,528,700,7.0,73.0
64,72.0,332,1272,6.0,62.0
65,80.0,0,1272,5.0,76.0
66,68.0,0,1272,7.0,68.0
67,56.0,0,1272,8.0,65.0
68,51.0,1260,636,2.0,39.0
69,68.0,0,636,1.0,38.0
70,60.0,0,636,1.0,36.0
71,44.0,0,676,3.0,42.0
72,68.0,688,596,1.0,47.0
73,51.0,0,596,2.0,49.0
74,60.0,0,636,1.0,36.0
75,44.0,0,4,3.0,42.0
76,32.0,208,456,0.0,60.0
77,44.0,500,292,0.0,65.0
78,51.0,288,188,0.0,70.0
79,60.0,672,1444,1.0,36.0
80,51.0,0,1460,2.0,45.0
81,68.0,0,1460,1.0,43.0
82,56.0,0,1460,4.0,40.0
83,60.0,240,228,0.0,73.0
84,56.0,236,164,0.0,70.0
85,60.0,212,308,0.0,71.0
86,63.0,328,940,0.0,67.0
87,62.0,912,164,0.0,58.0
88,63.0,160,124,0.0,67.0
89,65.0,120,100,0.0,66.0
90,63.0,96,80,0.0,64.0
91,62.0,72,80,0.0,74.0
92,63.0,72,64,0.0,69.0
93,65.0,84,88,0.0,67.0
94,67.0,84,80,0.0,64.0
95,68.0,60,112,0.0,67.0
96,70.0,84,44,0.0,67.0
97,72.0,100,108,0.0,76.0
98,32.0,24,96,0.0,42.0
99,75.0,68,92,0.0,70.0
100,80.0,88,92,0.0,68.0
101,51.0,152,180,0.0,37.0
102,87.0,116,620,0.0,86.0
103,56.0,12,380,0.0,32.0
104,51.0,276,104,0.0,42.0
105,60.0,4,396,0.0,33.0
106,63.0,296,440,0.0,27.0
107,86.0,152,68,0.0,66.0
108,87.0,64,56,0.0,71.0
109,89.0,68,48,0.0,73.0
110,87.0,0,40,0.0,73.0
111,89.0,40,44,0.0,68.0
112,68.0,52,104,0.0,45.0
113,60.0,4,104,0.0,42.0
114,56.0,4,112,0.0,35.0
115,87.0,44,44,0.0,70.0
116,89.0,48,48,0.0,70.0
117,87.0,48,40,0.0,67.0
118,89.0,40,48,0.0,73.0
119,87.0,48,40,0.0,67.0
120,89.0,36,48,0.0,70.0
121,87.0,52,32,0.0,65.0
122,89.0,32,52,0.0,76.0
123,87.0,56,40,0.0,67.0
124,89.0,36,48,0.0,70.0
125,51.0,4,264,0.0,54.0
126,87.0,48,40,0.0,64.0
127,89.0,4,52,0.0,73.0
128,87.0,52,40,0.0,61.0
129,89.0,40,40,0.0,66.0
130,87.0,44,36,0.0,51.0
131,89.0,40,20,0.0,58.0
132,87.0,12,56,0.0,42.0
133,86.0,56,76,0.0,70.0
134,87.0,68,96,0.0,83.0
135,63.0,8,516,0.0,19.0
136,60.0,8,516,0.0,33.0
137,92.0,104,104,0.0,83.0
138,51.0,32,100,0.0,38.0
139,56.0,16,572,0.0,35.0
140,89.0,96,92,0.0,79.0
141,87.0,100,84,0.0,76.0
142,84.0,96,144,0.0,74.0
143,41.0,52,136,0.0,45.0
144,48.0,324,232,0.0,45.0
145,82.0,0,676,0.0,75.0
146,53.0,4,244,0.0,35.0
147,48.0,268,64,0.0,48.0
148,56.0,0,392,0.0,34.0
149,60.0,24,404,0.0,35.0
150,80.0,284,656,0.0,60.0
151,65.0,0,116,0.0,32.0
152,53.0,4,120,0.0,31.0
153,56.0,300,148,0.0,32.0
154,80.0,152,60,0.0,72.0
155,53.0,0,1536,2.0,44.0
156,80.0,96,100,0.0,63.0
157,82.0,96,80,0.0,63.0
158,48.0,20,252,0.0,58.0
159,80.0,84,104,0.0,79.0
160,60.0,0,1828,1.0,40.0
161,56.0,148,1828,1.0,40.0
162,41.0,0,1920,3.0,37.0
163,79.0,104,120,0.0,82.0
164,60.0,4,768,2.0,44.0
165,80.0,100,120,0.0,87.0
166,60.0,8,292,0.0,34.0
167,53.0,8,320,0.0,27.0
168,56.0,8,340,0.0,30.0
169,48.0,40,56,0.0,38.0
170,82.0,140,128,0.0,76.0
171,84.0,104,76,0.0,81.0
172,34.0,0,96,0.0,42.0
173,73.0,116,480,0.0,52.0
174,85.0,0,348,0.0,85.0
175,77.0,72,460,0.0,75.0
176,53.0,268,208,0.0,40.0
177,70.0,156,56,0.0,56.0
178,77.0,56,72,0.0,77.0
179,65.0,0,1828,1.0,37.0
180,85.0,20,204,0.0,90.0
181,58.0,0,768,2.0,38.0
182,65.0,32,264,0.0,34.0
183,58.0,4,280,0.0,33.0
184,53.0,236,32,0.0,51.0
185,61.0,8,292,0.0,33.0
186,85.0,96,60,0.0,80.0
187,69.0,96,56,0.0,51.0
188,61.0,0,1060,1.0,37.0
189,75.0,40,56,0.0,62.0
190,78.0,16,68,0.0,67.0
191,46.0,24,104,0.0,50.0
192,84.0,76,56,0.0,92.0
193,85.0,172,84,0.0,86.0
194,84.0,104,84,0.0,96.0
195,83.0,96,92,0.0,87.0
196,54.0,4,296,0.0,40.0
197,84.0,92,116,0.0,100.0
198,63.0,0,768,2.0,40.0
199,87.0,116,184,0.0,90.0
200,66.0,0,324,0.0,45.0
201,57.0,12,332,0.0,48.0
202,63.0,12,348,0.0,50.0
203,85.0,156,204,0.0,90.0
204,54.0,104,120,0.0,49.0
205,84.0,88,76,0.0,88.0
206,57.0,0,1060,1.0,36.0
207,66.0,0,1060,1.0,41.0
208,34.0,40,104,0.0,56.0
209,46.0,72,2688,3.0,37.0
210,53.0,288,228,0.0,54.0
211,65.0,4,316,0.0,34.0
212,53.0,252,100,0.0,48.0
213,61.0,4,352,0.0,48.0
214,58.0,272,372,0.0,27.0
215,82.0,8,108,0.0,75.0
216,84.0,0,980,0.0,84.0
217,65.0,0,1060,1.0,40.0
218,79.0,124,76,0.0,68.0
219,80.0,92,76,0.0,78.0
220,82.0,84,64,0.0,69.0
221,80.0,0,48,0.0,71.0
222,82.0,72,44,0.0,71.0
223,80.0,64,44,0.0,69.0
224,82.0,48,44,0.0,71.0
225,80.0,56,40,0.0,71.0
226,82.0,16,44,0.0,55.0
227,52.0,24,88,0.0,57.0
228,80.0,44,40,0.0,70.0
229,82.0,48,44,0.0,70.0
230,80.0,40,44,0.0,70.0
231,82.0,44,48,0.0,70.0
232,80.0,52,52,0.0,70.0
233,82.0,12,44,0.0,65.0
234,68.0,16,104,0.0,55.0
235,80.0,56,24,0.0,69.0
236,82.0,32,56,0.0,69.0
237,80.0,44,64,0.0,68.0
238,79.0,60,64,0.0,70.0
239,80.0,64,72,0.0,73.0
240,58.0,0,2212,1.0,36.0
241,61.0,4,440,0.0,47.0
242,58.0,12,464,0.0,34.0
243,52.0,8,108,0.0,41.0
244,61.0,216,2304,2.0,38.0
245,68.0,0,1060,1.0,45.0
246,40.0,88,1060,0.0,50.0
247,84.0,84,224,0.0,79.0
248,40.0,0,1152,3.0,44.0
249,82.0,260,92,0.0,71.0
250,39.0,28,128,0.0,36.0
251,51.0,300,100,0.0,47.0
252,80.0,0,460,0.0,69.0
253,79.0,108,112,0.0,71.0
254,79.0,16,60,0.0,68.0
255,67.0,152,96,0.0,48.0
256,80.0,68,52,0.0,70.0
257,79.0,56,40,0.0,55.0
258,80.0,40,40,0.0,64.0
259,79.0,52,36,0.0,66.0
260,58.0,4,320,0.0,30.0
261,61.0,4,316,0.0,33.0
262,80.0,40,68,0.0,61.0
263,51.0,0,84,0.0,46.0
264,79.0,52,68,0.0,68.0
265,77.0,80,48,0.0,71.0
266,67.0,100,1060,1.0,42.0
267,58.0,0,1060,1.0,42.0
268,79.0,68,56,0.0,78.0
269,82.0,68,76,0.0,65.0
270,80.0,60,80,0.0,75.0
271,39.0,48,84,0.0,39.0
272,51.0,248,128,0.0,48.0
273,79.0,0,436,0.0,78.0
274,77.0,120,76,0.0,71.0
275,77.0,0,48,0.0,73.0
276,79.0,64,40,0.0,68.0
277,65.0,136,148,0.0,41.0
278,77.0,44,40,0.0,68.0
279,79.0,44,40,0.0,68.0
280,60.0,0,768,2.0,38.0
281,77.0,36,40,0.0,74.0
282,79.0,56,36,0.0,63.0
283,60.0,4,356,0.0,42.0
284,77.0,28,56,0.0,64.0
285,56.0,8,404,0.0,32.0
286,51.0,60,108,0.0,44.0
287,76.0,64,48,0.0,70.0
288,56.0,88,1060,1.0,42.0
289,65.0,0,1060,1.0,42.0
290,77.0,64,52,0.0,69.0
291,80.0,60,84,0.0,71.0
292,79.0,84,84,0.0,70.0
293,39.0,4,92,0.0,46.0
294,77.0,0,404,0.0,78.0
295,75.0,84,80,0.0,71.0
296,55.0,280,212,0.0,47.0
297,39.0,0,3072,3.0,38.0
298,75.0,156,48,0.0,69.0
299,77.0,52,44,0.0,68.0
300,75.0,44,44,0.0,65.0
301,77.0,56,32,0.0,62.0
302,75.0,32,36,0.0,54.0
303,58.0,92,768,2.0,37.0
304,77.0,48,56,0.0,70.0
305,55.0,28,44,0.0,38.0
306,75.0,16,64,0.0,57.0
307,63.0,8,348,0.0,39.0
308,58.0,0,380,0.0,34.0
309,74.0,64,76,0.0,80.0
310,75.0,80,68,0.0,78.0
311,63.0,0,1060,1.0,42.0
312,55.0,0,1060,1.0,42.0
313,79.0,88,68,0.0,77.0
314,77.0,84,108,0.0,80.0
315,41.0,4,68,0.0,47.0
316,75.0,104,124,0.0,78.0
317,73.0,108,84,0.0,75.0
318,75.0,88,88,0.0,77.0
319,73.0,96,120,0.0,75.0
320,61.0,24,108,0.0,36.0
321,56.0,0,444,1.0,42.0
322,56.0,8,120,0.0,37.0
323,72.0,84,104,0.0,79.0
324,73.0,112,136,0.0,82.0
325,41.0,0,768,3.0,41.0
326,43.0,32,92,0.0,48.0
327,72.0,0,140,0.0,80.0
328,73.0,112,112,0.0,80.0
329,61.0,0,996,1.0,42.0
330,77.0,116,264,0.0,82.0
331,63.0,4,164,0.0,29.0
332,58.0,0,192,0.0,36.0
333,51.0,112,200,0.0,47.0
334,75.0,144,148,0.0,76.0
335,58.0,132,676,1.0,42.0
336,43.0,0,768,3.0,42.0
337,51.0,0,768,2.0,37.0
338,73.0,144,168,0.0,75.0
339,32.0,28,128,0.0,50.0
340,72.0,0,488,0.0,77.0
341,51.0,328,276,0.0,50.0
342,60.0,0,676,1.0,42.0
343,51.0,0,768,2.0,37.0
344,60.0,260,56,0.0,59.0
345,72.0,236,348,0.0,79.0
346,56.0,20,332,0.0,40.0
347,72.0,104,92,0.0,80.0
348,44.0,196,1152,3.0,45.0
349,37.0,32,120,0.0,40.0
350,53.0,8,32,0.0,36.0
351,58.0,4,32,0.0,33.0
352,61.0,300,68,0.0,36.0
353,72.0,0,400,0.0,83.0
354,65.0,0,16,0.0,38.0
355,70.0,0,96,0.0,79.0
356,73.0,80,44,0.0,83.0
357,61.0,84,144,0.0,38.0
358,58.0,0,144,0.0,38.0
359,77.0,84,68,0.0,85.0
360,82.0,0,72,0.0,80.0
361,61.0,0,160,0.0,42.0
362,70.0,0,160,0.0,42.0
363,65.0,84,160,0.0,42.0
364,91.0,128,192,0.0,84.0
365,89.0,436,116,0.0,83.0
366,53.0,164,1432,2.0,37.0
367,58.0,0,1432,1.0,36.0
368,37.0,0,1432,3.0,42.0
369,61.0,0,1432,1.0,42.0
370,27.0,8,76,0.0,36.0
371,39.0,16,96,0.0,34.0
372,55.0,12,32,0.0,38.0
373,63.0,288,60,0.0,32.0
374,58.0,4,56,0.0,33.0
375,58.0,240,80,0.0,37.0
376,63.0,12,80,0.0,31.0
377,67.0,0,80,0.0,44.0
378,39.0,0,768,3.0,44.0
379,55.0,0,768,2.0,38.0
380,58.0,0,768,1.0,42.0
381,82.0,152,872,0.0,72.0
382,81.0,8,88,0.0,68.0
383,70.0,288,104,0.0,27.0
384,67.0,4,112,0.0,32.0
385,63.0,4,140,0.0,28.0
386,82.0,84,72,0.0,75.0
387,85.0,80,72,0.0,72.0
388,84.0,76,96,0.0,82.0
389,75.0,4,88,0.0,39.0
390,67.0,16,100,0.0,39.0
391,70.0,20,84,0.0,25.0
392,67.0,12,56,0.0,39.0
393,63.0,12,76,0.0,35.0
394,70.0,264,100,0.0,37.0
395,82.0,100,692,0.0,71.0
396,67.0,4,108,0.0,38.0
397,63.0,8,120,0.0,27.0
398,58.0,260,140,0.0,37.0
399,55.0,4,120,0.0,42.0
400,63.0,16,128,0.0,27.0
401,61.0,8,120,0.0,29.0
402,71.0,4,152,0.0,62.0
403,83.0,308,360,0.0,74.0
404,32.0,36,100,0.0,48.0
405,44.0,24,84,0.0,22.0
406,72.0,0,392,0.0,64.0
407,84.0,0,516,0.0,68.0
408,51.0,260,228,0.0,44.0
409,60.0,16,204,0.0,31.0
410,56.0,12,240,0.0,30.0
411,73.0,8,280,0.0,61.0
412,85.0,0,292,0.0,85.0
413,63.0,240,316,0.0,25.0
414,72.0,8,48,0.0,74.0
415,84.0,108,84,0.0,89.0
416,60.0,0,1060,1.0,44.0
417,51.0,224,272,0.0,49.0
418,56.0,352,1152,4.0,50.0
419,44.0,0,1152,3.0,44.0
420,56.0,4,252,0.0,42.0
421,70.0,12,292,0.0,60.0
422,82.0,164,504,0.0,77.0
423,55.0,248,260,0.0,56.0
424,63.0,0,1828,1.0,44.0
425,53.0,28,200,0.0,43.0
426,61.0,0,744,0.0,47.0
427,51.0,0,768,4.0,50.0
428,39.0,0,768,3.0,44.0
429,87.0,248,296,0.0,82.0
430,75.0,0,316,0.0,70.0
431,63.0,8,896,0.0,39.0
432,55.0,240,204,0.0,51.0
433,61.0,0,1060,1.0,44.0
434,60.0,4,240,0.0,39.0
435,56.0,12,264,0.0,28.0
436,63.0,4,336,0.0,26.0
437,68.0,8,360,0.0,55.0
438,80.0,244,372,0.0,80.0
439,44.0,0,384,3.0,44.0
440,60.0,0,384,1.0,44.0
441,56.0,0,384,4.0,50.0
442,51.0,252,224,0.0,50.0
443,61.0,16,232,0.0,28.0
444,58.0,4,252,0.0,39.0
445,67.0,8,284,0.0,48.0
446,79.0,220,356,0.0,80.0
447,51.0,0,3072,2.0,38.0
448,65.0,148,56,0.0,59.0
449,77.0,0,120,0.0,80.0
450,56.0,12,116,0.0,43.0
451,51.0,232,380,0.0,57.0
452,58.0,0,228,0.0,43.0
453,63.0,0,760,0.0,28.0
454,51.0,236,220,0.0,49.0
455,61.0,0,1152,1.0,45.0
456,51.0,4,1152,4.0,50.0
457,58.0,12,336,0.0,40.0
458,63.0,248,356,0.0,44.0
459,61.0,0,380,0.0,46.0
460,67.0,4,880,0.0,59.0
461,51.0,272,124,0.0,44.0
462,79.0,128,912,0.0,78.0
463,44.0,32,104,0.0,43.0
464,39.0,0,1920,3.0,44.0
465,68.0,4,372,0.0,57.0
466,80.0,0,392,0.0,81.0
467,51.0,236,192,0.0,51.0
468,79.0,240,248,0.0,82.0
469,56.0,284,768,4.0,50.0
470,51.0,0,768,2.0,38.0
471,60.0,0,768,1.0,41.0
472,67.0,4,268,0.0,50.0
473,63.0,0,280,0.0,36.0
474,60.0,16,260,0.0,39.0
475,56.0,8,292,0.0,29.0
476,51.0,224,84,0.0,50.0
477,65.0,8,40,0.0,64.0
478,77.0,120,72,0.0,85.0
479,39.0,24,88,0.0,44.0
480,67.0,8,288,0.0,60.0
481,79.0,128,344,0.0,79.0
482,58.0,0,384,1.0,41.0
483,72.0,96,48,0.0,82.0
484,44.0,0,1632,3.0,44.0
485,51.0,0,768,4.0,50.0
486,72.0,80,388,0.0,83.0
487,84.0,4,344,0.0,87.0
488,61.0,256,124,0.0,54.0
489,61.0,0,384,1.0,45.0
490,63.0,116,448,0.0,55.0
491,70.0,0,68,0.0,55.0
492,82.0,128,128,0.0,71.0
493,39.0,0,1152,3.0,44.0
494,60.0,24,224,0.0,48.0
495,80.0,168,296,0.0,73.0
496,68.0,4,320,0.0,50.0
497,60.0,0,384,1.0,42.0
498,56.0,0,384,4.0,50.0
499,51.0,0,384,2.0,38.0
500,44.0,0,384,3.0,44.0
501,63.0,0,448,1.0,44.0
502,63.0,228,276,0.0,35.0
503,67.0,240,128,0.0,59.0
504,79.0,0,212,0.0,74.0
505,58.0,0,260,1.0,42.0
506,58.0,20,260,0.0,32.0
507,65.0,8,84,0.0,53.0
508,55.0,0,384,2.0,38.0
509,77.0,252,204,0.0,76.0
510,56.0,16,232,0.0,35.0
511,60.0,0,260,1.0,41.0
512,56.0,0,384,2.0,40.0
513,58.0,4,252,0.0,34.0
514,51.0,216,2172,0.0,49.0
515,55.0,0,384,2.0,37.0
516,63.0,252,240,0.0,49.0
517,51.0,0,1152,4.0,50.0
518,51.0,0,1152,3.0,44.0
519,56.0,256,212,0.0,47.0
520,79.0,0,744,0.0,73.0
521,67.0,240,748,0.0,51.0
522,55.0,300,68,0.0,46.0
523,58.0,0,1028,1.0,40.0
524,37.0,92,96,0.0,50.0
525,77.0,0,468,0.0,81.0
526,68.0,64,644,0.0,62.0
527,56.0,0,492,1.0,34.0
528,75.0,220,244,0.0,79.0
529,65.0,156,968,0.0,52.0
530,53.0,32,288,0.0,48.0
531,56.0,264,552,0.0,50.0
532,73.0,220,84,0.0,78.0
533,61.0,40,48,0.0,48.0
534,65.0,0,1028,1.0,39.0
535,68.0,40,148,0.0,58.0
536,44.0,0,84,0.0,42.0
537,49.0,72,1152,3.0,44.0
538,49.0,0,1152,4.0,50.0
539,73.0,44,324,0.0,69.0
540,63.0,120,436,0.0,46.0
541,75.0,0,408,0.0,85.0
542,63.0,120,48,0.0,48.0
543,56.0,260,176,0.0,42.0
544,68.0,44,40,0.0,61.0
545,72.0,32,28,0.0,74.0
546,61.0,0,1152,1.0,35.0
547,80.0,0,116,0.0,89.0
548,60.0,248,24,0.0,49.0
549,51.0,12,368,0.0,34.0
550,41.0,32,80,0.0,46.0
551,44.0,0,1152,3.0,44.0
552,44.0,68,1152,4.0,50.0
553,68.0,12,116,0.0,64.0
554,53.0,16,204,0.0,34.0
555,60.0,72,768,1.0,36.0
556,63.0,196,400,0.0,58.0
557,56.0,224,72,0.0,29.0
558,68.0,0,1536,1.0,38.0
559,75.0,0,460,0.0,85.0
560,53.0,0,508,4.0,50.0
561,70.0,60,76,0.0,59.0
562,43.0,20,60,0.0,49.0
563,41.0,88,540,3.0,44.0
564,63.0,168,156,0.0,45.0
565,73.0,0,68,0.0,68.0
566,55.0,0,116,0.0,32.0
567,75.0,64,56,0.0,75.0
568,73.0,72,44,0.0,68.0
569,61.0,0,768,1.0,38.0
570,75.0,56,68,0.0,70.0
571,58.0,36,36,0.0,31.0
572,73.0,20,60,0.0,62.0
573,72.0,56,68,0.0,84.0
574,70.0,48,384,1.0,39.0
575,75.0,72,68,0.0,81.0
576,55.0,0,520,4.0,50.0
577,43.0,0,536,3.0,46.0
578,73.0,64,116,0.0,69.0
579,72.0,92,44,0.0,81.0
580,44.0,20,104,0.0,26.0
581,56.0,4,148,0.0,20.0
582,68.0,8,236,0.0,34.0
583,63.0,16,284,0.0,57.0
584,60.0,244,72,0.0,45.0
585,63.0,0,384,1.0,39.0
586,60.0,0,384,1.0,39.0
587,72.0,0,444,0.0,77.0
588,56.0,0,520,4.0,50.0
589,44.0,88,524,3.0,47.0
590,45.0,8,84,0.0,49.0
591,57.0,12,132,0.0,35.0
592,63.0,288,80,0.0,45.0
593,69.0,8,396,0.0,45.0
594,72.0,8,412,0.0,62.0
595,66.0,4,464,0.0,51.0
596,75.0,0,464,0.0,64.0
597,78.0,292,532,0.0,73.0
598,45.0,0,624,3.0,49.0
599,72.0,0,624,1.0,41.0
600,63.0,0,624,1.0,41.0
601,57.0,0,628,4.0,52.0
602,46.0,12,144,0.0,43.0
603,70.0,4,208,0.0,46.0
604,67.0,4,236,0.0,46.0
605,75.0,4,252,0.0,47.0
606,79.0,0,284,0.0,71.0
607,63.0,0,384,1.0,41.0
608,70.0,332,384,1.0,44.0
609,46.0,0,384,3.0,52.0
610,58.0,0,520,4.0,54.0
611,91.0,4,72,0.0,77.0
612,87.0,112,80,0.0,63.0
613,86.0,116,64,0.0,77.0
614,89.0,0,76,0.0,82.0
615,58.0,312,336,0.0,46.0
616,82.0,104,64,0.0,74.0
617,84.0,12,52,0.0,76.0
618,87.0,76,68,0.0,73.0
619,86.0,88,68,0.0,76.0
620,82.0,4,64,0.0,69.0
621,63.0,20,304,0.0,30.0
622,55.0,8,296,0.0,39.0
623,58.0,4,32,0.0,37.0
624,79.0,92,72,0.0,72.0
625,84.0,4,56,0.0,71.0
626,80.0,88,72,0.0,69.0
627,79.0,0,44,0.0,74.0
628,82.0,96,76,0.0,70.0
629,75.0,0,92,0.0,71.0
630,34.0,20,96,0.0,50.0
631,80.0,88,64,0.0,69.0
632,77.0,8,60,0.0,71.0
633,75.0,0,60,0.0,70.0
634,79.0,88,64,0.0,73.0
635,72.0,100,64,0.0,76.0
636,77.0,4,48,0.0,64.0
637,74.0,76,52,0.0,65.0
638,72.0,12,20,0.0,65.0
639,75.0,88,68,0.0,72.0
640,58.0,16,280,0.0,34.0
641,68.0,100,68,0.0,59.0
642,70.0,4,64,0.0,67.0
643,74.0,84,76,0.0,74.0
644,72.0,92,80,0.0,71.0
645,67.0,4,20,0.0,59.0
646,65.0,12,340,0.0,43.0
647,70.0,112,68,0.0,75.0
648,58.0,32,76,0.0,28.0
649,66.0,76,52,0.0,50.0
650,69.0,32,20,0.0,26.0
651,72.0,0,72,0.0,77.0
652,56.0,0,1152,1.0,35.0
653,46.0,116,1152,3.0,52.0
654,62.0,0,1152,2.0,48.0
655,70.0,0,1152,1.0,39.0
656,68.0,0,64,0.0,65.0
657,65.0,0,68,0.0,56.0
658,74.0,88,68,0.0,79.0
659,39.0,20,96,0.0,36.0
660,63.0,4,276,0.0,47.0
661,67.0,12,332,0.0,53.0
662,63.0,0,368,2.0,48.0
663,63.0,0,404,1.0,40.0
664,55.0,0,404,1.0,40.0
665,51.0,276,216,0.0,47.0
666,75.0,160,584,0.0,77.0
667,39.0,0,768,3.0,47.0
668,56.0,8,256,0.0,48.0
669,59.0,4,284,0.0,47.0
670,80.0,88,76,0.0,83.0
671,51.0,28,92,0.0,38.0
672,64.0,0,376,0.0,48.0
673,76.0,148,252,0.0,75.0
674,83.0,72,72,0.0,86.0
675,76.0,4,64,0.0,24.0
676,88.0,88,84,0.0,87.0
677,87.0,84,108,0.0,85.0
678,64.0,0,640,1.0,40.0
679,86.0,100,56,0.0,94.0
680,65.0,8,80,0.0,47.0
681,56.0,0,160,0.0,42.0
682,101.0,144,56,0.0,81.0
683,98.0,84,84,0.0,88.0
684,51.0,36,68,0.0,48.0
685,59.0,8,348,0.0,47.0
686,95.0,56,96,0.0,92.0
687,65.0,0,468,1.0,41.0
688,92.0,92,108,0.0,93.0
689,89.0,100,52,0.0,92.0
690,59.0,0,1236,2.0,45.0
691,62.0,8,68,0.0,47.0
692,86.0,0,64,0.0,84.0
693,68.0,92,84,0.0,43.0
694,59.0,0,92,0.0,37.0
695,56.0,268,1408,1.0,40.0
696,83.0,104,72,0.0,82.0
697,80.0,92,96,0.0,71.0
698,77.0,104,60,0.0,82.0
699,51.0,32,76,0.0,38.0
700,74.0,72,56,0.0,79.0
701,62.0,0,468,2.0,45.0
702,79.0,92,80,0.0,80.0
703,68.0,8,640,1.0,45.0
704,59.0,0,644,1.0,45.0
705,67.0,24,100,0.0,42.0
706,63.0,4,104,0.0,33.0
707,77.0,140,136,0.0,82.0
708,58.0,4,108,0.0,34.0
709,75.0,88,44,0.0,77.0
710,51.0,80,64,0.0,42.0
711,82.0,12,88,0.0,71.0
712,79.0,116,272,0.0,74.0
713,87.0,96,100,0.0,76.0
714,91.0,96,48,0.0,85.0
715,67.0,0,592,1.0,41.0
716,58.0,0,592,1.0,41.0
717,69.0,4,68,0.0,44.0
718,60.0,12,56,0.0,34.0
719,63.0,4,76,0.0,43.0
720,78.0,124,88,0.0,73.0
721,77.0,80,92,0.0,76.0
722,81.0,112,76,0.0,77.0
723,84.0,100,72,0.0,79.0
724,63.0,0,1060,2.0,44.0
725,51.0,36,88,0.0,43.0
726,89.0,64,76,0.0,85.0
727,93.0,104,44,0.0,92.0
728,60.0,0,588,1.0,44.0
729,69.0,0,592,1.0,46.0
730,78.0,0,116,0.0,75.0
731,65.0,8,100,0.0,47.0
732,70.0,12,108,0.0,44.0
733,61.0,4,116,0.0,38.0
734,77.0,100,100,0.0,89.0
735,82.0,100,112,0.0,73.0
736,85.0,4,48,0.0,74.0
737,51.0,100,76,0.0,40.0
738,89.0,116,52,0.0,85.0
739,61.0,132,600,1.0,48.0
740,70.0,0,604,1.0,48.0
741,94.0,100,124,0.0,89.0
742,70.0,8,108,0.0,35.0
743,68.0,8,104,0.0,36.0
744,62.0,0,112,0.0,45.0
745,92.0,128,132,0.0,92.0
746,89.0,84,108,0.0,84.0
747,86.0,112,44,0.0,78.0
748,65.0,0,1060,2.0,48.0
749,51.0,4,76,0.0,37.0
750,82.0,104,92,0.0,80.0
751,80.0,104,92,0.0,69.0
752,62.0,0,584,1.0,45.0
753,70.0,0,584,1.0,45.0
754,77.0,104,84,0.0,83.0
755,51.0,36,60,0.0,53.0
756,58.0,64,96,0.0,38.0
757,63.0,56,60,0.0,25.0
758,67.0,24,36,0.0,38.0
759,79.0,0,92,0.0,82.0
760,70.0,104,120,0.0,77.0
761,75.0,116,96,0.0,74.0
762,63.0,0,396,1.0,44.0
763,70.0,8,396,1.0,44.0
764,67.0,104,48,0.0,80.0
765,67.0,0,400,2.0,40.0
766,63.0,124,56,0.0,65.0
767,58.0,84,88,0.0,77.0
768,67.0,112,76,0.0,81.0
769,58.0,108,128,0.0,73.0
770,63.0,104,104,0.0,71.0
771,55.0,104,56,0.0,82.0
772,51.0,116,100,0.0,80.0
773,39.0,108,60,0.0,80.0
774,49.0,144,176,0.0,71.0
775,34.0,0,336,0.0,78.0
776,53.0,112,40,0.0,64.0
777,65.0,12,128,0.0,79.0
778,58.0,104,132,0.0,73.0
779,61.0,140,68,0.0,76.0
780,65.0,0,260,0.0,79.0
781,77.0,120,156,0.0,83.0
782,77.0,0,1024,5.0,61.0
783,70.0,120,1028,7.0,50.0
784,70.0,108,168,0.0,83.0
785,73.0,144,64,0.0,84.0
786,77.0,132,176,0.0,87.0
787,89.0,144,32,0.0,91.0
788,85.0,0,1688,5.0,61.0
789,46.0,108,1024,3.0,52.0
790,46.0,0,1024,4.0,49.0
791,65.0,0,1024,2.0,54.0
792,51.0,4,184,0.0,84.0
793,58.0,4,188,0.0,69.0
794,31.0,8,164,0.0,69.0
795,61.0,8,212,0.0,71.0
796,43.0,20,188,0.0,67.0
797,63.0,0,232,0.0,90.0
798,43.0,0,640,4.0,49.0
799,43.0,0,640,3.0,52.0
800,63.0,0,640,2.0,52.0
801,79.0,232,640,5.0,61.0
802,82.0,0,644,5.0,75.0
803,43.0,8,300,0.0,71.0
804,55.0,4,340,0.0,69.0
805,46.0,0,356,0.0,68.0
806,51.0,4,372,0.0,68.0
807,61.0,0,1792,1.0,51.0
808,73.0,0,2560,6.0,50.0
809,73.0,4,472,0.0,74.0
810,70.0,0,484,0.0,72.0
811,63.0,0,1024,7.0,50.0
812,67.0,0,492,0.0,74.0
813,75.0,480,508,0.0,97.0
814,63.0,4,520,0.0,86.0
815,70.0,0,2688,1.0,51.0
816,62.0,656,128,0.0,68.0
817,63.0,112,96,0.0,76.0
818,65.0,108,108,0.0,75.0
819,63.0,104,96,0.0,75.0
820,65.0,100,60,0.0,62.0
821,63.0,68,44,0.0,60.0
822,65.0,52,48,0.0,55.0
823,63.0,52,44,0.0,59.0
824,65.0,44,48,0.0,56.0
825,63.0,52,40,0.0,54.0
826,65.0,40,48,0.0,55.0
827,63.0,44,44,0.0,54.0
828,65.0,44,48,0.0,62.0
829,63.0,56,36,0.0,59.0
830,65.0,32,48,0.0,62.0
831,63.0,52,44,0.0,60.0
832,65.0,40,48,0.0,58.0
833,63.0,44,48,0.0,58.0
834,65.0,48,44,0.0,61.0
835,63.0,52,40,0.0,56.0
836,65.0,48,80,0.0,60.0
837,63.0,64,80,0.0,46.0
838,62.0,88,68,0.0,68.0
839,63.0,76,60,0.0,62.0
840,65.0,84,76,0.0,70.0
841,67.0,80,80,0.0,64.0
842,68.0,64,88,0.0,61.0
843,70.0,72,28,0.0,69.0
844,72.0,92,104,0.0,72.0
845,32.0,12,76,0.0,38.0
846,44.0,48,120,0.0,37.0
847,75.0,32,100,0.0,67.0
848,80.0,100,52,0.0,67.0
849,51.0,136,180,0.0,39.0
850,56.0,4,360,0.0,42.0
851,51.0,300,68,0.0,46.0
852,60.0,12,380,0.0,41.0
853,63.0,256,412,0.0,27.0
854,87.0,96,916,0.0,83.0
855,68.0,268,140,0.0,42.0
856,89.0,76,72,0.0,74.0
857,60.0,0,168,0.0,39.0
858,56.0,12,180,0.0,32.0
859,87.0,64,48,0.0,69.0
860,86.0,64,56,0.0,71.0
861,87.0,56,44,0.0,71.0
862,89.0,64,56,0.0,77.0
863,51.0,28,76,0.0,48.0
864,91.0,32,48,0.0,74.0
865,92.0,56,56,0.0,77.0
866,94.0,56,60,0.0,73.0
867,96.0,60,56,0.0,75.0
868,91.0,56,48,0.0,78.0
869,94.0,48,72,0.0,73.0
870,92.0,56,68,0.0,85.0
871,60.0,0,60,0.0,38.0
872,56.0,28,60,0.0,40.0
873,63.0,0,60,0.0,40.0
874,91.0,28,52,0.0,82.0
875,89.0,60,44,0.0,82.0
876,87.0,56,64,0.0,68.0
877,85.0,64,56,0.0,69.0
878,84.0,56,60,0.0,78.0
879,85.0,60,56,0.0,72.0
880,84.0,56,56,0.0,76.0
881,82.0,64,44,0.0,75.0
882,84.0,56,52,0.0,82.0
883,51.0,4,60,0.0,47.0
884,85.0,48,60,0.0,71.0
885,87.0,64,96,0.0,72.0
886,91.0,76,60,0.0,76.0
887,89.0,76,64,0.0,77.0
888,87.0,72,68,0.0,71.0
889,85.0,76,68,0.0,72.0
890,84.0,80,124,0.0,75.0
891,29.0,24,92,0.0,46.0
892,82.0,0,504,0.0,65.0
893,60.0,0,584,1.0,48.0
894,56.0,0,584,1.0,48.0
895,41.0,0,584,3.0,50.0
896,53.0,128,596,2.0,50.0
897,48.0,308,296,0.0,45.0
898,53.0,12,312,0.0,33.0
899,48.0,268,64,0.0,45.0
900,80.0,312,372,0.0,71.0
901,56.0,12,384,0.0,34.0
902,60.0,4,384,0.0,41.0
903,80.0,160,76,0.0,68.0
904,65.0,4,96,0.0,54.0
905,80.0,0,100,0.0,73.0
906,53.0,8,108,0.0,44.0
907,56.0,148,136,0.0,32.0
908,82.0,92,56,0.0,65.0
909,80.0,68,44,0.0,62.0
910,82.0,52,44,0.0,64.0
911,80.0,48,36,0.0,65.0
912,82.0,32,44,0.0,54.0
913,80.0,48,40,0.0,65.0
914,82.0,48,52,0.0,54.0
915,80.0,52,36,0.0,65.0
916,48.0,12,252,0.0,45.0
917,82.0,44,56,0.0,54.0
918,80.0,8,28,0.0,60.0
919,82.0,32,52,0.0,59.0
920,80.0,64,32,0.0,59.0
921,82.0,36,44,0.0,58.0
922,80.0,52,24,0.0,58.0
923,82.0,48,64,0.0,57.0
924,60.0,0,320,0.0,28.0
925,56.0,4,376,0.0,25.0
926,53.0,44,388,0.0,43.0
927,48.0,32,108,0.0,48.0
928,80.0,32,88,0.0,58.0
929,79.0,72,64,0.0,67.0
930,80.0,80,72,0.0,71.0
931,41.0,0,584,3.0,50.0
932,56.0,0,584,1.0,48.0
933,65.0,8,584,1.0,48.0
934,60.0,0,584,2.0,50.0
935,82.0,84,104,0.0,70.0
936,84.0,84,64,0.0,79.0
937,34.0,24,104,0.0,40.0
938,77.0,36,96,0.0,77.0
939,73.0,100,200,0.0,60.0
940,85.0,0,180,0.0,86.0
941,65.0,72,24,0.0,63.0
942,65.0,80,72,0.0,66.0
943,73.0,48,68,0.0,67.0
944,77.0,64,16,0.0,75.0
945,53.0,268,288,0.0,55.0
946,85.0,16,84,0.0,89.0
947,61.0,60,312,0.0,30.0
948,58.0,8,316,0.0,32.0
949,53.0,4,32,0.0,38.0
950,85.0,268,68,0.0,87.0
951,85.0,168,52,0.0,86.0
952,69.0,52,56,0.0,75.0
953,61.0,0,1212,1.0,48.0
954,65.0,0,1212,1.0,48.0
955,58.0,0,1212,2.0,50.0
956,75.0,52,52,0.0,62.0
957,34.0,4,64,0.0,49.0
958,78.0,28,44,0.0,65.0
959,84.0,0,40,0.0,87.0
960,85.0,80,64,0.0,65.0
961,84.0,68,64,0.0,76.0
962,83.0,64,48,0.0,74.0
963,84.0,60,72,0.0,81.0
964,85.0,60,68,0.0,79.0
965,54.0,16,60,0.0,47.0
966,87.0,64,80,0.0,79.0
967,89.0,44,80,0.0,83.0
968,92.0,76,64,0.0,81.0
969,90.0,64,60,0.0,76.0
970,87.0,64,56,0.0,76.0
971,84.0,56,56,0.0,76.0
972,81.0,64,64,0.0,69.0
973,57.0,0,60,0.0,50.0
974,66.0,0,60,0.0,53.0
975,63.0,16,60,0.0,50.0
976,78.0,44,88,0.0,67.0
977,75.0,72,60,0.0,65.0
978,72.0,64,52,0.0,74.0
979,69.0,64,60,0.0,71.0
980,70.0,68,48,0.0,64.0
981,69.0,60,52,0.0,72.0
982,68.0,64,56,0.0,59.0
983,54.0,16,60,0.0,50.0
984,69.0,44,64,0.0,66.0
985,70.0,64,52,0.0,71.0
986,71.0,64,64,0.0,73.0
987,57.0,64,1536,1.0,50.0
988,66.0,0,1536,1.0,54.0
989,63.0,0,1536,2.0,53.0
990,72.0,72,84,0.0,73.0
991,75.0,84,104,0.0,65.0
992,73.0,88,84,0.0,57.0
993,72.0,84,84,0.0,71.0
994,46.0,16,128,0.0,50.0
995,46.0,60,3516,3.0,50.0
996,65.0,0,544,1.0,38.0
997,61.0,0,544,2.0,50.0
998,58.0,0,544,1.0,36.0
999,53.0,328,232,0.0,40.0
1000,72.0,88,896,0.0,69.0
1001,65.0,12,260,0.0,39.0
1002,61.0,4,324,0.0,41.0
1003,58.0,280,348,0.0,38.0
1004,53.0,20,84,0.0,41.0
1005,70.0,240,160,0.0,57.0
1006,67.0,128,64,0.0,61.0
1007,68.0,72,68,0.0,62.0
1008,70.0,68,68,0.0,63.0
1009,68.0,0,64,0.0,69.0
1010,40.0,44,116,0.0,45.0
1011,70.0,72,52,0.0,72.0
1012,68.0,52,56,0.0,59.0
1013,70.0,48,56,0.0,59.0
1014,68.0,60,44,0.0,53.0
1015,70.0,40,56,0.0,54.0
1016,68.0,32,44,0.0,55.0
1017,70.0,36,56,0.0,56.0
1018,68.0,56,48,0.0,51.0
1019,70.0,44,52,0.0,61.0
1020,68.0,60,40,0.0,56.0
1021,52.0,32,276,0.0,51.0
1022,70.0,36,40,0.0,51.0
1023,68.0,32,24,0.0,33.0
1024,70.0,24,60,0.0,53.0
1025,68.0,36,60,0.0,56.0
1026,68.0,16,768,1.0,56.0
1027,67.0,68,72,0.0,68.0
1028,52.0,0,888,3.0,54.0
1029,68.0,64,88,0.0,65.0
1030,61.0,4,364,0.0,38.0
1031,56.0,16,360,0.0,37.0
1032,52.0,4,60,0.0,33.0
1033,72.0,88,116,0.0,78.0
1034,70.0,80,84,0.0,70.0
1035,68.0,84,76,0.0,76.0
1036,39.0,48,92,0.0,40.0
1037,68.0,0,424,0.0,67.0
1038,51.0,248,160,0.0,49.0
1039,51.0,0,532,3.0,50.0
1040,67.0,120,544,1.0,48.0
1041,61.0,0,1920,2.0,50.0
1042,58.0,0,1920,1.0,49.0
1043,67.0,156,284,0.0,59.0
1044,68.0,72,80,0.0,62.0
1045,70.0,84,48,0.0,63.0
1046,72.0,76,56,0.0,75.0
1047,73.0,64,64,0.0,73.0
1048,61.0,180,384,0.0,34.0
1049,58.0,8,384,0.0,32.0
1050,75.0,36,44,0.0,71.0
1051,51.0,24,108,0.0,25.0
1052,77.0,60,72,0.0,74.0
1053,79.0,64,68,0.0,83.0
1054,80.0,72,68,0.0,78.0
1055,79.0,68,72,0.0,85.0
1056,82.0,72,100,0.0,76.0
1057,80.0,68,80,0.0,79.0
1058,79.0,72,52,0.0,84.0
1059,39.0,8,84,0.0,32.0
1060,51.0,256,128,0.0,58.0
1061,79.0,0,444,0.0,85.0
1062,77.0,160,96,0.0,76.0
1063,56.0,0,544,1.0,48.0
1064,65.0,92,544,1.0,48.0
1065,51.0,0,544,3.0,50.0
1066,77.0,8,60,0.0,77.0
1067,79.0,68,44,0.0,74.0
1068,65.0,156,132,0.0,48.0
1069,77.0,52,48,0.0,70.0
1070,60.0,0,768,2.0,50.0
1071,79.0,52,44,0.0,66.0
1072,79.0,84,48,0.0,69.0
1073,77.0,36,60,0.0,66.0
1074,60.0,0,376,0.0,39.0
1075,56.0,8,400,0.0,34.0
1076,76.0,56,64,0.0,77.0
1077,51.0,12,140,0.0,32.0
1078,77.0,68,68,0.0,83.0
1079,80.0,72,120,0.0,71.0
1080,79.0,84,68,0.0,76.0
1081,77.0,72,52,0.0,83.0
1082,39.0,12,92,0.0,40.0
1083,77.0,0,424,0.0,84.0
1084,75.0,116,72,0.0,65.0
1085,55.0,276,212,0.0,49.0
1086,51.0,0,544,3.0,50.0
1087,55.0,0,544,1.0,48.0
1088,63.0,88,544,1.0,48.0
1089,58.0,0,568,2.0,50.0
1090,75.0,140,52,0.0,70.0
1091,77.0,32,52,0.0,70.0
1092,75.0,52,48,0.0,60.0
1093,77.0,52,36,0.0,55.0
1094,77.0,36,28,0.0,39.0
1095,75.0,52,104,0.0,36.0
1096,63.0,20,336,0.0,35.0
1097,58.0,4,344,0.0,33.0
1098,74.0,16,72,0.0,67.0
1099,55.0,44,92,0.0,33.0
1100,75.0,72,72,0.0,69.0
1101,79.0,84,92,0.0,75.0
1102,77.0,80,72,0.0,69.0
1103,75.0,68,52,0.0,70.0
1104,41.0,40,56,0.0,42.0
1105,75.0,0,108,0.0,72.0
1106,73.0,60,60,0.0,62.0
1107,75.0,72,48,0.0,65.0
1108,73.0,48,48,0.0,77.0
1109,75.0,56,60,0.0,69.0
1110,68.0,12,52,0.0,44.0
1111,56.0,0,60,0.0,37.0
1112,61.0,4,60,0.0,44.0
1113,73.0,52,104,0.0,69.0
1114,72.0,100,88,0.0,85.0
1115,41.0,0,544,3.0,54.0
1116,73.0,104,52,0.0,80.0
1117,73.0,88,60,0.0,78.0
1118,56.0,96,768,1.0,48.0
1119,43.0,128,116,0.0,44.0
1120,89.0,48,128,0.0,92.0
1121,87.0,136,100,0.0,77.0
1122,85.0,88,108,0.0,82.0
1123,61.0,0,1152,1.0,50.0
1124,82.0,68,68,0.0,71.0
1125,79.0,68,40,0.0,85.0
1126,77.0,68,48,0.0,77.0
1127,43.0,0,544,3.0,56.0
1128,75.0,68,72,0.0,77.0
1129,73.0,88,68,0.0,73.0
1130,58.0,8,84,0.0,37.0
1131,61.0,8,100,0.0,32.0
1132,51.0,4,104,0.0,38.0
1133,70.0,56,60,0.0,74.0
1134,63.0,80,80,0.0,70.0
1135,65.0,96,72,0.0,70.0
1136,67.0,88,76,0.0,68.0
1137,68.0,88,100,0.0,67.0
1138,58.0,0,1152,1.0,51.0
1139,70.0,104,80,0.0,65.0
1140,32.0,36,100,0.0,42.0
1141,72.0,0,176,0.0,74.0
1142,72.0,244,84,0.0,79.0
1143,56.0,84,72,0.0,46.0
1144,48.0,16,64,0.0,44.0
1145,72.0,104,92,0.0,83.0
1146,51.0,140,68,0.0,48.0
1147,72.0,24,60,0.0,84.0
1148,60.0,0,92,0.0,42.0
1149,72.0,140,48,0.0,81.0
1150,75.0,56,72,0.0,77.0
1151,73.0,60,128,0.0,82.0
1152,63.0,76,72,0.0,48.0
1153,56.0,8,84,0.0,42.0
1154,60.0,0,1152,1.0,51.0
1155,51.0,140,1280,2.0,50.0
1156,72.0,244,48,0.0,78.0
1157,44.0,0,1312,3.0,56.0
1158,37.0,52,80,0.0,43.0
1159,72.0,0,412,0.0,70.0
1160,53.0,16,60,0.0,43.0
1161,58.0,304,96,0.0,33.0
1162,65.0,68,72,0.0,69.0
1163,72.0,92,80,0.0,84.0
1164,56.0,0,32,0.0,27.0
1165,65.0,0,64,0.0,48.0
1166,58.0,0,64,0.0,30.0
1167,70.0,88,88,0.0,76.0
1168,73.0,80,40,0.0,78.0
1169,77.0,72,68,0.0,94.0
1170,82.0,84,88,0.0,81.0
1171,68.0,0,132,0.0,40.0
1172,58.0,0,144,0.0,38.0
1173,61.0,0,156,0.0,38.0
1174,58.0,0,1152,1.0,48.0
1175,61.0,100,1152,1.0,51.0
1176,53.0,0,1304,2.0,53.0
1177,91.0,156,292,0.0,94.0
1178,37.0,0,1312,3.0,56.0
1179,89.0,372,84,0.0,74.0
1180,39.0,32,108,0.0,37.0
1181,55.0,20,28,0.0,31.0
1182,58.0,4,44,0.0,25.0
1183,63.0,320,84,0.0,34.0
1184,58.0,0,524,1.0,48.0
1185,55.0,0,544,2.0,53.0
1186,39.0,0,544,3.0,50.0
1187,63.0,0,44,0.0,25.0
1188,58.0,244,72,0.0,29.0
1189,67.0,4,68,0.0,24.0
1190,82.0,148,712,0.0,71.0
1191,81.0,104,84,0.0,66.0
1192,82.0,80,76,0.0,75.0
1193,67.0,16,44,0.0,28.0
1194,84.0,84,76,0.0,74.0
1195,70.0,16,68,0.0,36.0
1196,63.0,8,68,0.0,14.0
1197,82.0,40,64,0.0,71.0
1198,85.0,68,80,0.0,73.0
1199,84.0,76,92,0.0,85.0
1200,75.0,4,56,0.0,42.0
1201,70.0,16,68,0.0,38.0
1202,67.0,4,88,0.0,37.0
1203,70.0,272,76,0.0,47.0
1204,63.0,12,80,0.0,32.0
1205,82.0,92,624,0.0,79.0
1206,67.0,16,112,0.0,43.0
1207,63.0,4,132,0.0,29.0
1208,58.0,8,164,0.0,29.0
1209,55.0,16,36,0.0,41.0
1210,63.0,284,76,0.0,37.0
1211,61.0,8,56,0.0,32.0
1212,32.0,12,72,0.0,52.0
1213,84.0,0,332,0.0,89.0
1214,72.0,8,356,0.0,63.0
1215,63.0,0,524,1.0,49.0
1216,60.0,0,524,1.0,49.0
1217,75.0,296,1184,0.0,78.0
1218,56.0,276,240,0.0,48.0
1219,66.0,12,176,0.0,39.0
1220,51.0,8,176,0.0,44.0
1221,70.0,8,248,0.0,63.0
1222,82.0,0,280,0.0,82.0
1223,60.0,8,260,0.0,49.0
1224,56.0,228,56,0.0,55.0
1225,44.0,324,928,3.0,50.0
1226,75.0,0,356,0.0,55.0
1227,56.0,0,932,4.0,50.0
1228,68.0,0,64,0.0,75.0
1229,80.0,120,88,0.0,88.0
1230,66.0,0,524,1.0,53.0
1231,37.0,32,92,0.0,56.0
1232,68.0,4,256,0.0,69.0
1233,63.0,268,908,1.0,53.0
1234,56.0,276,204,0.0,60.0
1235,80.0,0,524,0.0,81.0
1236,80.0,0,20,0.0,46.0
1237,53.0,4,268,0.0,46.0
1238,65.0,12,300,0.0,46.0
1239,61.0,4,320,0.0,44.0
1240,49.0,0,904,4.0,50.0
1241,56.0,272,64,0.0,46.0
1242,65.0,0,908,1.0,51.0
1243,49.0,140,928,3.0,55.0
1244,73.0,8,408,0.0,69.0
1245,85.0,0,424,0.0,88.0
1246,61.0,228,524,1.0,48.0
1247,80.0,24,212,0.0,1.0
1248,32.0,4,60,0.0,58.0
1249,72.0,8,88,0.0,73.0
1250,84.0,0,108,0.0,88.0
1251,78.0,8,180,0.0,63.0
1252,73.0,8,92,0.0,76.0
1253,85.0,188,100,0.0,88.0
1254,72.0,8,44,0.0,82.0
1255,84.0,76,72,0.0,94.0
1256,56.0,68,204,0.0,61.0
1257,70.0,12,48,0.0,77.0
1258,82.0,120,96,0.0,85.0
1259,66.0,12,132,0.0,37.0
1260,72.0,4,40,0.0,84.0
1261,84.0,92,64,0.0,93.0
1262,51.0,8,160,0.0,38.0
1263,60.0,0,220,0.0,54.0
1264,73.0,4,48,0.0,85.0
1265,56.0,104,76,0.0,42.0
1266,85.0,8,76,0.0,90.0
1267,87.0,100,44,0.0,97.0
1268,75.0,4,48,0.0,91.0
1269,56.0,0,904,4.0,50.0
1270,44.0,0,928,3.0,50.0
1271,37.0,28,88,0.0,38.0
1272,66.0,256,1292,1.0,55.0
1273,63.0,0,1292,1.0,55.0
1274,75.0,8,284,0.0,51.0
1275,78.0,4,420,0.0,71.0
1276,56.0,260,224,0.0,48.0
1277,56.0,0,3840,2.0,57.0
1278,68.0,4,624,0.0,78.0
1279,80.0,200,660,0.0,85.0
1280,77.0,236,248,0.0,55.0
1281,73.0,4,248,0.0,35.0
1282,53.0,4,248,0.0,49.0
1283,65.0,8,264,0.0,38.0
1284,61.0,4,308,0.0,37.0
1285,70.0,248,64,0.0,67.0
1286,56.0,4,80,0.0,40.0
1287,49.0,0,904,4.0,50.0
1288,82.0,0,116,0.0,73.0
1289,49.0,0,928,3.0,55.0
1290,65.0,0,524,1.0,48.0
1291,61.0,0,524,1.0,48.0
1292,75.0,44,116,0.0,69.0
1293,80.0,72,92,0.0,62.0
1294,32.0,12,100,0.0,35.0
1295,44.0,48,132,0.0,32.0
1296,84.0,0,156,0.0,85.0
1297,72.0,192,524,0.0,63.0
1298,75.0,72,48,0.0,76.0
1299,51.0,284,148,0.0,44.0
1300,77.0,56,32,0.0,70.0
1301,60.0,0,188,0.0,51.0
1302,75.0,52,20,0.0,57.0
1303,56.0,0,520,4.0,50.0
1304,63.0,0,524,1.0,48.0
1305,60.0,32,524,1.0,48.0
1306,44.0,0,544,3.0,55.0
1307,77.0,32,56,0.0,66.0
1308,56.0,0,556,2.0,53.0
1309,75.0,44,64,0.0,71.0
1310,60.0,0,32,0.0,45.0
1311,56.0,4,32,0.0,35.0
1312,63.0,4,40,0.0,32.0
1313,74.0,64,84,0.0,86.0
1314,75.0,80,72,0.0,80.0
1315,77.0,92,68,0.0,90.0
1316,79.0,104,64,0.0,77.0
1317,63.0,8,32,0.0,33.0
1318,68.0,32,40,0.0,45.0
1319,60.0,8,32,0.0,35.0
1320,80.0,52,48,0.0,86.0
1321,82.0,96,68,0.0,88.0
1322,68.0,84,64,0.0,63.0
1323,40.0,4,80,0.0,51.0
1324,74.0,64,252,0.0,81.0
1325,62.0,0,48,0.0,47.0
1326,52.0,280,52,0.0,47.0
1327,56.0,4,60,0.0,38.0
1328,83.0,80,560,0.0,92.0
1329,58.0,20,76,0.0,40.0
1330,62.0,4,84,0.0,46.0
1331,52.0,0,88,0.0,54.0
1332,62.0,284,52,0.0,48.0
1333,59.0,0,56,0.0,49.0
1334,52.0,8,76,0.0,41.0
1335,82.0,276,404,0.0,84.0
1336,80.0,128,56,0.0,77.0
1337,52.0,0,1088,3.0,57.0
1338,52.0,0,1088,4.0,50.0
1339,68.0,0,1104,1.0,57.0
1340,56.0,0,1108,2.0,53.0
1341,62.0,0,1108,1.0,57.0
1342,70.0,44,96,0.0,57.0
1343,39.0,36,92,0.0,44.0
1344,75.0,16,80,0.0,73.0
1345,63.0,292,84,0.0,38.0
1346,55.0,16,72,0.0,46.0
1347,58.0,0,76,0.0,28.0
1348,67.0,116,648,0.0,47.0
1349,51.0,0,520,4.0,47.0
1350,63.0,0,524,1.0,49.0
1351,67.0,60,524,1.0,49.0
1352,58.0,0,524,2.0,53.0
1353,51.0,0,544,3.0,50.0
1354,79.0,0,600,0.0,74.0
1355,58.0,20,36,0.0,25.0
1356,63.0,20,76,0.0,35.0
1357,55.0,4,72,0.0,49.0
1358,75.0,268,256,0.0,85.0
1359,58.0,20,32,0.0,22.0
1360,55.0,8,52,0.0,43.0
1361,63.0,216,68,0.0,50.0
1362,75.0,80,68,0.0,93.0
1363,52.0,36,224,0.0,60.0
1364,75.0,116,360,0.0,86.0
1365,56.0,4,84,0.0,42.0
1366,61.0,264,120,0.0,36.0
1367,68.0,84,80,0.0,73.0
1368,73.0,0,36,0.0,73.0
1369,76.0,68,72,0.0,93.0
1370,56.0,4,84,0.0,39.0
1371,61.0,4,104,0.0,43.0
1372,80.0,64,88,0.0,75.0
1373,85.0,68,84,0.0,72.0
1374,88.0,60,36,0.0,76.0
1375,52.0,0,384,3.0,54.0
1376,92.0,16,48,0.0,108.0
1377,56.0,4,68,0.0,42.0
1378,61.0,72,76,0.0,40.0
1379,61.0,0,524,1.0,59.0
1380,92.0,208,40,0.0,105.0
1381,56.0,72,908,1.0,57.0
1382,92.0,80,292,0.0,91.0
1383,83.0,240,64,0.0,88.0
1384,59.0,4,92,0.0,49.0
1385,56.0,20,108,0.0,38.0
1386,59.0,0,524,1.0,52.0
1387,51.0,0,544,3.0,49.0
1388,59.0,12,72,0.0,36.0
1389,71.0,240,100,0.0,82.0
1390,56.0,12,92,0.0,38.0
1391,51.0,28,640,0.0,50.0
1392,59.0,8,60,0.0,56.0
1393,56.0,228,80,0.0,45.0
1394,71.0,120,64,0.0,93.0
1395,49.0,40,192,0.0,46.0
1396,55.0,8,28,0.0,51.0
1397,71.0,124,308,0.0,84.0
1398,58.0,216,76,0.0,46.0
1399,64.0,64,92,0.0,79.0
1400,67.0,0,72,0.0,82.0
1401,70.0,68,32,0.0,80.0
1402,55.0,4,32,0.0,48.0
1403,58.0,0,72,0.0,35.0
1404,64.0,16,84,0.0,44.0
1405,76.0,52,76,0.0,93.0
1406,79.0,76,76,0.0,87.0
1407,82.0,60,68,0.0,82.0
1408,64.0,16,52,0.0,56.0
1409,55.0,0,56,0.0,46.0
1410,58.0,4,80,0.0,40.0
1411,88.0,96,108,0.0,97.0
1412,58.0,80,524,1.0,52.0
1413,55.0,0,524,1.0,52.0
1414,49.0,0,544,3.0,54.0
1415,88.0,200,64,0.0,100.0
1416,47.0,36,100,0.0,60.0
1417,51.0,272,84,0.0,43.0
1418,63.0,0,100,0.0,33.0
1419,56.0,8,92,0.0,32.0
1420,63.0,0,88,0.0,33.0
1421,56.0,4,96,0.0,32.0
1422,51.0,8,100,0.0,43.0
1423,88.0,120,712,0.0,96.0
1424,63.0,20,56,0.0,36.0
1425,56.0,8,60,0.0,34.0
1426,63.0,0,908,1.0,54.0
1427,51.0,0,84,0.0,45.0
1428,47.0,0,928,3.0,50.0
1429,87.0,240,184,0.0,91.0
1430,80.0,240,504,0.0,53.0
1431,46.0,32,72,0.0,47.0
1432,87.0,0,396,0.0,85.0
1433,86.0,72,72,0.0,84.0
1434,53.0,20,160,0.0,41.0
1435,62.0,0,184,0.0,39.0
1436,56.0,280,204,0.0,32.0
1437,82.0,80,76,0.0,71.0
1438,56.0,0,1676,1.0,54.0
1439,83.0,72,60,0.0,81.0
1440,85.0,64,52,0.0,72.0
1441,83.0,12,52,0.0,82.0
1442,85.0,48,52,0.0,70.0
1443,62.0,4,124,0.0,47.0
1444,53.0,8,120,0.0,47.0
1445,56.0,32,172,0.0,42.0
1446,83.0,48,60,0.0,70.0
1447,85.0,48,60,0.0,72.0
1448,62.0,268,908,1.0,50.0
1449,46.0,0,928,3.0,50.0
1450,83.0,52,92,0.0,72.0
1451,85.0,56,88,0.0,70.0
1452,83.0,4,72,0.0,63.0
1453,82.0,64,88,0.0,78.0
1454,53.0,8,176,0.0,41.0
1455,56.0,48,264,0.0,42.0
1456,62.0,4,284,0.0,43.0
1457,80.0,108,120,0.0,75.0
1458,79.0,128,120,0.0,81.0
1459,80.0,76,64,0.0,82.0
1460,79.0,68,68,0.0,81.0
1461,78.0,72,72,0.0,80.0
1462,79.0,76,80,0.0,81.0
1463,52.0,32,424,0.0,46.0
1464,61.0,8,76,0.0,42.0
1465,56.0,0,92,0.0,41.0
1466,80.0,68,112,0.0,82.0
1467,52.0,0,544,3.0,54.0
1468,83.0,84,84,0.0,84.0
1469,82.0,84,100,0.0,82.0
1470,80.0,84,100,0.0,79.0
1471,79.0,88,76,0.0,82.0
1472,43.0,56,100,0.0,49.0
1473,76.0,28,72,0.0,82.0
1474,61.0,0,908,1.0,50.0
1475,75.0,88,60,0.0,71.0
1476,76.0,80,68,0.0,80.0
1477,75.0,80,68,0.0,79.0
1478,74.0,80,68,0.0,76.0
1479,75.0,64,72,0.0,79.0
1480,58.0,0,524,1.0,48.0
1481,43.0,0,544,3.0,54.0
1482,76.0,84,72,0.0,82.0
1483,63.0,12,76,0.0,32.0
1484,58.0,16,68,0.0,28.0
1485,51.0,4,120,0.0,42.0
1486,70.0,56,76,0.0,72.0
1487,76.0,100,68,0.0,75.0
1488,43.0,0,768,2.0,53.0
1489,75.0,80,84,0.0,74.0
1490,73.0,96,52,0.0,73.0
1491,44.0,40,100,0.0,49.0
1492,51.0,4,152,0.0,28.0
1493,73.0,116,520,0.0,74.0
1494,59.0,0,524,1.0,49.0
1495,44.0,0,544,3.0,54.0
1496,59.0,300,260,0.0,34.0
1497,56.0,16,288,0.0,29.0
1498,71.0,148,148,0.0,68.0
1499,69.0,192,116,0.0,66.0
1500,71.0,100,68,0.0,68.0
1501,69.0,88,80,0.0,66.0
1502,49.0,24,356,0.0,47.0
1503,68.0,88,80,0.0,67.0
1504,69.0,32,72,0.0,70.0
1505,57.0,4,116,0.0,38.0
1506,52.0,60,124,0.0,42.0
1507,49.0,0,544,3.0,54.0
1508,71.0,100,76,0.0,74.0
1509,64.0,0,672,1.0,52.0
1510,73.0,92,112,0.0,81.0
1511,39.0,40,180,0.0,46.0
1512,71.0,0,484,0.0,69.0
1513,51.0,0,544,3.0,56.0
1514,59.0,0,600,1.0,49.0
1515,63.0,140,600,1.0,49.0
1516,56.0,0,624,2.0,49.0
1517,70.0,124,160,0.0,78.0
1518,51.0,308,364,0.0,42.0
1519,59.0,4,248,0.0,34.0
1520,63.0,12,328,0.0,38.0
1521,51.0,244,268,0.0,46.0
1522,59.0,16,216,0.0,35.0
1523,63.0,260,280,0.0,35.0
1524,68.0,152,908,0.0,67.0
1525,67.0,120,64,0.0,66.0
1526,51.0,248,280,0.0,38.0
1527,67.0,0,88,0.0,63.0
1528,68.0,72,72,0.0,67.0
1529,67.0,88,68,0.0,70.0
1530,65.0,76,72,0.0,65.0
1531,67.0,76,76,0.0,69.0
1532,51.0,20,92,0.0,40.0
1533,68.0,64,96,0.0,71.0
1534,51.0,0,544,3.0,48.0
1535,61.0,0,748,0.0,30.0
1536,58.0,28,760,0.0,32.0
1537,70.0,104,372,0.0,69.0
1538,58.0,132,908,2.0,49.0
1539,67.0,0,908,1.0,49.0
1540,61.0,0,908,1.0,49.0
1541,68.0,428,60,0.0,57.0
1542,59.0,40,184,0.0,37.0
1543,56.0,0,184,0.0,35.0
1544,52.0,0,184,0.0,38.0
1545,68.0,0,228,0.0,59.0
1546,59.0,0,524,2.0,46.0
1547,59.0,0,524,1.0,45.0
1548,68.0,136,524,1.0,45.0
1549,52.0,0,544,3.0,52.0
1550,73.0,0,432,1.0,86.0
1551,45.0,0,436,3.0,70.0
1552,45.0,0,436,4.0,72.0
1553,64.0,616,632,1.0,67.0
1554,71.0,432,212,1.0,76.0
1555,47.0,0,228,3.0,66.0
1556,47.0,0,228,4.0,67.0
1557,49.0,0,404,3.0,63.0
1558,49.0,192,404,4.0,64.0
1559,61.0,0,52,1.0,67.0
1560,69.0,0,656,1.0,64.0
1561,39.0,0,68,0.0,61.0
1562,51.0,0,96,0.0,77.0
1563,52.0,0,60,0.0,85.0
1564,40.0,84,68,0.0,63.0
1565,42.0,0,76,0.0,61.0
1566,54.0,60,96,0.0,67.0
1567,40.0,0,80,0.0,67.0
1568,52.0,80,88,0.0,81.0
1569,51.0,64,72,0.0,82.0
1570,39.0,0,72,0.0,62.0
1571,49.0,68,56,0.0,79.0
1572,37.0,0,64,0.0,57.0
1573,51.0,0,484,4.0,66.0
1574,51.0,604,484,3.0,66.0
1575,47.0,80,88,0.0,82.0
1576,35.0,0,132,0.0,74.0
1577,67.0,0,588,1.0,74.0
1578,34.0,80,100,0.0,72.0
1579,46.0,0,104,0.0,80.0
1580,32.0,0,304,0.0,71.0
1581,44.0,96,308,0.0,84.0
1582,59.0,0,484,1.0,59.0
1583,44.0,0,484,4.0,66.0
1584,44.0,0,484,3.0,66.0
1585,68.0,0,484,1.0,63.0
1586,73.0,0,512,1.0,86.0
1587,43.0,0,516,4.0,65.0
1588,43.0,0,516,3.0,66.0
1589,44.0,0,200,4.0,68.0
1590,71.0,472,200,1.0,76.0
1591,44.0,0,208,3.0,68.0
1592,64.0,676,788,1.0,62.0
1593,49.0,0,468,4.0,70.0
1594,49.0,180,476,3.0,70.0
1595,61.0,0,552,1.0,62.0
1596,69.0,0,608,1.0,66.0
1597,39.0,0,52,0.0,70.0
1598,51.0,0,52,0.0,72.0
1599,58.0,60,48,0.0,74.0
1600,46.0,0,48,0.0,72.0
1601,61.0,0,48,0.0,76.0
1602,49.0,60,48,0.0,72.0
1603,64.0,60,48,0.0,78.0
1604,52.0,0,48,0.0,72.0
1605,51.0,0,48,0.0,72.0
1606,63.0,60,48,0.0,77.0
1607,61.0,60,48,0.0,76.0
1608,49.0,0,48,0.0,72.0
1609,47.0,0,48,0.0,72.0
1610,59.0,60,48,0.0,75.0
1611,58.0,60,48,0.0,74.0
1612,46.0,0,48,0.0,72.0
1613,44.0,0,48,0.0,72.0
1614,56.0,60,48,0.0,73.0
1615,43.0,0,48,0.0,69.0
1616,55.0,60,48,0.0,73.0
1617,40.0,0,48,0.0,69.0
1618,52.0,60,48,0.0,72.0
1619,39.0,0,48,0.0,72.0
1620,51.0,60,48,0.0,71.0
1621,37.0,60,48,0.0,68.0
1622,49.0,0,48,0.0,70.0
1623,47.0,0,48,0.0,70.0
1624,35.0,0,48,0.0,68.0
1625,51.0,0,860,4.0,72.0
1626,46.0,0,48,0.0,70.0
1627,34.0,60,48,0.0,68.0
1628,67.0,0,892,1.0,76.0
1629,61.0,0,892,1.0,66.0
1630,51.0,664,896,3.0,72.0
1631,44.0,0,280,0.0,77.0
1632,32.0,0,280,0.0,72.0
1633,44.0,60,476,3.0,65.0
1634,68.0,60,476,1.0,60.0
1635,59.0,0,476,1.0,54.0
1636,44.0,0,860,4.0,64.0
1637,73.0,0,548,1.0,86.0
1638,85.0,0,560,5.0,94.0
1639,73.0,772,560,6.0,72.0
1640,43.0,0,564,4.0,70.0
1641,55.0,0,564,8.0,72.0
1642,43.0,0,568,3.0,59.0
1643,71.0,0,216,1.0,77.0
1644,44.0,512,224,4.0,72.0
1645,83.0,0,224,5.0,88.0
1646,44.0,0,224,3.0,60.0
1647,71.0,0,224,6.0,70.0
1648,56.0,0,224,8.0,74.0
1649,64.0,0,768,1.0,69.0
1650,64.0,0,948,7.0,72.0
1651,76.0,0,948,7.0,72.0
1652,69.0,0,648,1.0,67.0
1653,49.0,0,768,4.0,74.0
1654,61.0,0,28,1.0,69.0
1655,69.0,0,768,6.0,70.0
1656,49.0,0,768,3.0,63.0
1657,61.0,0,768,8.0,76.0
1658,81.0,180,768,5.0,88.0
1659,51.0,0,48,0.0,71.0
1660,39.0,0,48,0.0,71.0
1661,55.0,0,48,0.0,72.0
1662,43.0,60,48,0.0,72.0
1663,46.0,0,48,0.0,73.0
1664,58.0,60,48,0.0,73.0
1665,49.0,0,48,0.0,74.0
1666,61.0,60,48,0.0,74.0
1667,63.0,0,48,0.0,75.0
1668,51.0,60,48,0.0,75.0
1669,55.0,60,48,0.0,76.0
1670,67.0,0,48,0.0,76.0
1671,58.0,60,48,0.0,77.0
1672,70.0,0,48,0.0,77.0
1673,61.0,0,48,0.0,78.0
1674,73.0,60,48,0.0,78.0
1675,75.0,60,48,0.0,79.0
1676,63.0,0,48,0.0,79.0
1677,79.0,0,48,0.0,80.0
1678,67.0,60,48,0.0,80.0
1679,70.0,0,48,0.0,81.0
1680,82.0,60,48,0.0,81.0
1681,85.0,60,48,0.0,82.0
1682,73.0,0,48,0.0,82.0
1683,75.0,0,48,0.0,83.0
1684,87.0,60,48,0.0,83.0
1685,79.0,0,768,5.0,91.0
1686,51.0,0,768,4.0,76.0
1687,63.0,0,768,8.0,76.0
1688,73.0,0,768,7.0,74.0
1689,63.0,0,768,7.0,74.0
1690,70.0,0,768,6.0,72.0
1691,51.0,740,768,3.0,66.0
1692,91.0,60,68,0.0,84.0
1693,79.0,0,68,0.0,84.0
1694,67.0,0,860,1.0,76.0
1695,59.0,0,88,1.0,72.0
1696,68.0,88,88,1.0,76.0
1697,51.0,0,32,1.0,49.0
1698,44.0,88,32,1.0,49.0
1699,59.0,0,32,1.0,53.0
1700,56.0,0,32,1.0,49.0
1701,44.0,0,32,1.0,49.0
1702,56.0,0,32,1.0,49.0
1703,51.0,0,32,1.0,49.0
1704,59.0,48,32,1.0,53.0
1705,44.0,0,32,1.0,49.0
1706,59.0,48,32,1.0,53.0
1707,56.0,0,32,1.0,49.0
1708,51.0,0,32,1.0,49.0
1709,44.0,0,32,1.0,49.0
1710,59.0,48,32,1.0,53.0
1711,56.0,0,32,1.0,49.0
1712,51.0,0,32,1.0,49.0
1713,71.0,0,300,7.0,76.0
1714,71.0,0,300,6.0,75.0
1715,80.0,0,300,5.0,96.0
1716,56.0,0,300,8.0,78.0
1717,56.0,0,32,1.0,49.0
1718,44.0,0,32,1.0,49.0
1719,59.0,48,32,1.0,53.0
1720,51.0,0,32,1.0,49.0
1721,51.0,48,32,1.0,49.0
1722,44.0,0,32,1.0,49.0
1723,59.0,0,32,1.0,53.0
1724,56.0,0,32,1.0,49.0
1725,44.0,0,32,1.0,49.0
1726,59.0,0,32,1.0,53.0
1727,51.0,0,32,1.0,49.0
1728,56.0,48,32,1.0,49.0
1729,51.0,0,32,1.0,49.0
1730,44.0,0,32,1.0,49.0
1731,59.0,0,32,1.0,53.0
1732,56.0,48,32,1.0,49.0
1733,56.0,0,32,1.0,49.0
1734,44.0,0,32,1.0,49.0
1735,51.0,0,32,1.0,49.0
1736,59.0,48,32,1.0,53.0
1737,44.0,0,32,1.0,49.0
1738,59.0,48,32,1.0,53.0
1739,56.0,0,32,1.0,49.0
1740,51.0,0,32,1.0,49.0
1741,44.0,0,560,4.0,78.0
1742,44.0,0,564,3.0,70.0
1743,44.0,0,32,1.0,49.0
1744,59.0,48,32,1.0,53.0
1745,56.0,0,32,1.0,49.0
1746,51.0,0,32,1.0,49.0
1747,44.0,0,32,1.0,49.0
1748,59.0,48,32,1.0,53.0
1749,51.0,0,32,1.0,49.0
1750,56.0,0,32,1.0,49.0
1751,44.0,48,32,1.0,49.0
1752,59.0,0,32,1.0,53.0
1753,56.0,0,32,1.0,49.0
1754,51.0,0,32,1.0,49.0
1755,92.0,0,712,0.0,91.0
1756,80.0,0,712,0.0,91.0
1757,44.0,48,32,1.0,49.0
1758,59.0,0,32,1.0,53.0
1759,56.0,0,32,1.0,49.0
1760,51.0,0,32,1.0,49.0
1761,51.0,0,32,1.0,49.0
1762,44.0,0,32,1.0,49.0
1763,59.0,48,32,1.0,53.0
1764,56.0,0,32,1.0,49.0
1765,44.0,48,32,1.0,49.0
1766,59.0,0,32,1.0,53.0
1767,56.0,0,32,1.0,49.0
1768,51.0,0,32,1.0,49.0
1769,44.0,0,32,1.0,49.0
1770,59.0,0,32,1.0,53.0
1771,56.0,48,32,1.0,49.0
1772,51.0,0,32,1.0,49.0
1773,44.0,0,32,1.0,49.0
1774,59.0,48,32,1.0,53.0
1775,56.0,0,32,1.0,49.0
1776,51.0,0,32,1.0,49.0
1777,51.0,0,32,1.0,49.0
1778,44.0,0,32,1.0,49.0
1779,59.0,48,32,1.0,53.0
1780,56.0,0,32,1.0,49.0
1781,56.0,0,32,1.0,49.0
1782,51.0,0,32,1.0,49.0
1783,44.0,0,32,1.0,49.0
1784,59.0,48,32,1.0,53.0
1785,44.0,0,32,1.0,49.0
1786,59.0,48,32,1.0,53.0
1787,56.0,0,32,1.0,49.0
1788,51.0,0,32,1.0,49.0
1789,44.0,0,32,1.0,49.0
1790,59.0,0,32,1.0,53.0
1791,56.0,0,32,1.0,49.0
1792,51.0,48,32,1.0,49.0
1793,59.0,48,32,1.0,53.0
1794,51.0,0,32,1.0,49.0
1795,44.0,0,32,1.0,49.0
1796,56.0,0,32,1.0,49.0
1797,59.0,48,32,1.0,53.0
1798,56.0,0,32,1.0,49.0
1799,51.0,0,32,1.0,49.0
1800,44.0,0,32,1.0,49.0
1801,44.0,0,32,1.0,49.0
1802,59.0,48,32,1.0,53.0
1803,56.0,0,32,1.0,49.0
1804,51.0,0,32,1.0,49.0
1805,51.0,0,32,1.0,49.0
1806,59.0,48,32,1.0,53.0
1807,56.0,0,32,1.0,49.0
1808,44.0,0,32,1.0,49.0
1809,44.0,0,32,1.0,49.0
1810,59.0,0,32,1.0,53.0
1811,56.0,0,32,1.0,49.0
1812,51.0,48,32,1.0,49.0
1813,44.0,0,32,1.0,49.0
1814,59.0,48,32,1.0,53.0
1815,56.0,0,32,1.0,49.0
1816,51.0,0,32,1.0,49.0
1817,51.0,0,32,1.0,49.0
1818,56.0,0,32,1.0,49.0
1819,44.0,48,32,1.0,49.0
1820,59.0,0,32,1.0,53.0
1821,44.0,0,32,1.0,49.0
1822,59.0,48,32,1.0,53.0
1823,56.0,0,32,1.0,49.0
1824,51.0,0,32,1.0,49.0
1825,44.0,0,32,1.0,49.0
1826,59.0,0,32,1.0,53.0
1827,56.0,0,32,1.0,49.0
1828,51.0,48,32,1.0,49.0
1829,51.0,0,32,1.0,49.0
1830,56.0,0,32,1.0,49.0
1831,59.0,48,32,1.0,53.0
1832,44.0,0,32,1.0,49.0
1833,59.0,48,32,1.0,53.0
1834,56.0,0,32,1.0,49.0
1835,51.0,0,32,1.0,49.0
1836,44.0,0,32,1.0,49.0
1837,44.0,0,32,1.0,49.0
1838,59.0,48,32,1.0,53.0
1839,56.0,0,32,1.0,49.0
1840,51.0,0,32,1.0,49.0
1841,59.0,48,32,1.0,53.0
1842,56.0,0,32,1.0,49.0
1843,51.0,0,32,1.0,49.0
1844,44.0,0,32,1.0,49.0
1845,87.0,0,132,0.0,85.0
1846,75.0,0,140,0.0,76.0
1847,59.0,8,32,1.0,53.0
1848,44.0,0,32,1.0,49.0
1849,56.0,0,32,1.0,49.0
1850,51.0,0,32,1.0,49.0
1851,51.0,0,32,1.0,49.0
1852,59.0,0,32,1.0,53.0
1853,56.0,0,32,1.0,49.0
1854,44.0,48,32,1.0,49.0
1855,44.0,0,32,1.0,49.0
1856,59.0,48,32,1.0,53.0
1857,56.0,0,32,1.0,49.0
1858,51.0,0,32,1.0,49.0
1859,44.0,0,32,1.0,49.0
1860,59.0,0,32,1.0,53.0
1861,56.0,0,32,1.0,49.0
1862,51.0,48,32,1.0,49.0
1863,44.0,0,32,1.0,49.0
1864,59.0,48,32,1.0,53.0
1865,56.0,0,32,1.0,49.0
1866,51.0,0,32,1.0,49.0
1867,44.0,48,32,1.0,49.0
1868,59.0,0,32,1.0,53.0
1869,56.0,0,32,1.0,49.0
1870,51.0,0,32,1.0,49.0
1871,51.0,0,32,1.0,49.0
1872,44.0,0,32,1.0,49.0
1873,59.0,48,32,1.0,53.0
1874,56.0,0,32,1.0,49.0
1875,82.0,0,340,0.0,81.0
1876,70.0,40,356,0.0,69.0
1877,56.0,0,32,1.0,49.0
1878,59.0,16,32,1.0,53.0
1879,44.0,0,32,1.0,49.0
1880,51.0,0,32,1.0,49.0
1881,83.0,0,68,0.0,88.0
1882,71.0,32,80,0.0,63.0
1883,44.0,0,32,1.0,49.0
1884,56.0,0,32,1.0,49.0
1885,51.0,0,32,1.0,49.0
1886,59.0,48,32,1.0,53.0
1887,44.0,0,32,1.0,49.0
1888,59.0,40,32,1.0,53.0
1889,56.0,0,32,1.0,49.0
1890,51.0,0,32,1.0,49.0
1891,73.0,0,84,0.0,63.0
1892,85.0,8,104,0.0,75.0
1893,44.0,0,32,1.0,49.0
1894,59.0,0,32,1.0,53.0
1895,56.0,0,32,1.0,49.0
1896,51.0,8,32,1.0,49.0
1897,83.0,0,88,0.0,84.0
1898,51.0,0,32,1.0,49.0
1899,44.0,0,32,1.0,49.0
1900,59.0,0,32,1.0,53.0
1901,56.0,48,32,1.0,49.0
1902,71.0,40,104,0.0,66.0
1903,44.0,12,32,1.0,49.0
1904,51.0,0,32,1.0,49.0
1905,59.0,0,32,1.0,53.0
1906,56.0,0,32,1.0,49.0
1907,44.0,0,32,1.0,49.0
1908,59.0,0,32,1.0,53.0
1909,56.0,48,32,1.0,49.0
1910,51.0,0,32,1.0,49.0
1911,44.0,48,32,1.0,49.0
1912,59.0,0,32,1.0,53.0
1913,56.0,0,32,1.0,49.0
1914,51.0,0,32,1.0,49.0
1915,44.0,0,156,4.0,75.0
1916,44.0,0,32,1.0,49.0
1917,56.0,0,32,1.0,49.0
1918,51.0,0,32,1.0,49.0
1919,59.0,48,32,1.0,53.0
1920,44.0,0,32,1.0,49.0
1921,59.0,48,32,1.0,53.0
1922,56.0,0,32,1.0,49.0
1923,51.0,0,32,1.0,49.0
1924,44.0,0,32,1.0,49.0
1925,59.0,48,32,1.0,53.0
1926,56.0,0,32,1.0,49.0
1927,51.0,0,32,1.0,49.0
1928,82.0,36,312,0.0,82.0
1929,44.0,0,32,1.0,49.0
1930,59.0,48,32,1.0,53.0
1931,56.0,0,32,1.0,49.0
1932,51.0,0,32,1.0,49.0
1933,70.0,0,336,0.0,78.0
1934,51.0,0,32,1.0,49.0
1935,56.0,0,32,1.0,49.0
1936,44.0,0,32,1.0,49.0
1937,59.0,12,32,1.0,53.0
1938,44.0,0,32,1.0,49.0
1939,59.0,48,32,1.0,53.0
1940,51.0,0,32,1.0,49.0
1941,56.0,0,32,1.0,49.0
1942,44.0,0,32,1.0,49.0
1943,59.0,48,32,1.0,53.0
1944,56.0,0,32,1.0,49.0
1945,51.0,0,32,1.0,49.0
1946,51.0,0,32,1.0,49.0
1947,56.0,0,32,1.0,49.0
1948,44.0,0,32,1.0,49.0
1949,59.0,48,32,1.0,53.0
1950,51.0,0,32,1.0,49.0
1951,44.0,0,32,1.0,49.0
1952,59.0,48,32,1.0,53.0
1953,56.0,0,32,1.0,49.0
1954,56.0,0,32,1.0,49.0
1955,44.0,0,32,1.0,49.0
1956,59.0,48,32,1.0,53.0
1957,51.0,0,32,1.0,49.0
1958,56.0,0,32,1.0,49.0
1959,59.0,48,32,1.0,53.0
1960,44.0,0,32,1.0,49.0
1961,51.0,0,32,1.0,49.0
1962,44.0,48,32,1.0,49.0
1963,59.0,0,32,1.0,53.0
1964,56.0,0,32,1.0,49.0
1965,51.0,0,32,1.0,49.0
1966,68.0,36,416,0.0,43.0
1967,44.0,0,32,1.0,49.0
1968,59.0,0,32,1.0,53.0
1969,56.0,0,32,1.0,49.0
1970,51.0,48,32,1.0,49.0
1971,80.0,0,472,0.0,65.0
1972,44.0,0,32,1.0,49.0
1973,59.0,0,32,1.0,53.0
1974,56.0,0,32,1.0,49.0
1975,51.0,48,32,1.0,49.0
1976,44.0,0,32,1.0,49.0
1977,59.0,44,32,1.0,53.0
1978,56.0,0,32,1.0,49.0
1979,51.0,0,32,1.0,49.0
1980,79.0,4,104,0.0,69.0
1981,67.0,0,116,0.0,61.0
1982,44.0,0,32,1.0,49.0
1983,51.0,0,32,1.0,49.0
1984,56.0,0,32,1.0,49.0
1985,59.0,48,32,1.0,53.0
1986,44.0,0,32,1.0,49.0
1987,59.0,0,32,1.0,53.0
1988,56.0,0,32,1.0,49.0
1989,51.0,20,32,1.0,49.0
1990,80.0,28,88,0.0,69.0
1991,59.0,48,32,1.0,53.0
1992,44.0,0,32,1.0,49.0
1993,56.0,0,32,1.0,49.0
1994,51.0,0,32,1.0,49.0
1995,68.0,0,128,0.0,60.0
1996,59.0,12,32,1.0,53.0
1997,44.0,0,32,1.0,49.0
1998,51.0,0,32,1.0,49.0
1999,56.0,0,32,1.0,49.0
2000,70.0,36,88,0.0,54.0
2001,59.0,0,32,1.0,53.0
2002,44.0,48,32,1.0,49.0
2003,56.0,0,32,1.0,49.0
2004,51.0,0,32,1.0,49.0
2005,82.0,0,104,0.0,69.0
2006,44.0,0,32,1.0,49.0
2007,59.0,4,32,1.0,53.0
2008,56.0,0,32,1.0,49.0
2009,51.0,0,32,1.0,49.0
2010,83.0,44,68,0.0,78.0
2011,71.0,0,80,0.0,68.0
2012,51.0,0,32,1.0,49.0
2013,56.0,0,32,1.0,49.0
2014,59.0,48,32,1.0,53.0
2015,44.0,0,32,1.0,49.0
2016,44.0,0,32,1.0,49.0
2017,51.0,0,32,1.0,49.0
2018,56.0,0,32,1.0,49.0
2019,59.0,16,32,1.0,53.0
2020,51.0,0,32,1.0,49.0
2021,56.0,0,32,1.0,49.0
2022,59.0,48,32,1.0,53.0
2023,44.0,0,32,1.0,49.0
2024,70.0,32,104,0.0,63.0
2025,82.0,0,108,0.0,79.0
2026,44.0,0,32,1.0,49.0
2027,59.0,24,32,1.0,53.0
2028,56.0,0,32,1.0,49.0
2029,51.0,0,32,1.0,49.0
2030,68.0,0,84,0.0,62.0
2031,44.0,0,32,1.0,49.0
2032,59.0,48,32,1.0,53.0
2033,56.0,0,32,1.0,49.0
2034,51.0,0,32,1.0,49.0
2035,80.0,24,116,0.0,77.0
2036,59.0,0,32,1.0,53.0
2037,44.0,36,32,1.0,49.0
2038,51.0,0,32,1.0,49.0
2039,56.0,0,32,1.0,49.0
2040,66.0,0,68,0.0,61.0
2041,78.0,12,80,0.0,72.0
2042,51.0,0,32,1.0,49.0
2043,56.0,0,32,1.0,49.0
2044,59.0,0,32,1.0,53.0
2045,44.0,48,32,1.0,49.0
2046,51.0,0,32,1.0,49.0
2047,59.0,0,32,1.0,53.0
2048,44.0,48,32,1.0,49.0
2049,56.0,0,32,1.0,49.0
2050,64.0,0,84,0.0,61.0
2051,76.0,0,96,0.0,74.0
2052,44.0,0,32,1.0,49.0
2053,59.0,28,32,1.0,53.0
2054,56.0,0,32,1.0,49.0
2055,51.0,0,32,1.0,49.0
2056,75.0,20,88,0.0,73.0
2057,63.0,0,92,0.0,61.0
2058,56.0,0,32,1.0,49.0
2059,59.0,0,32,1.0,53.0
2060,51.0,0,32,1.0,49.0
2061,44.0,48,32,1.0,49.0
2062,51.0,0,32,1.0,49.0
2063,56.0,0,32,1.0,49.0
2064,59.0,40,32,1.0,53.0
2065,44.0,0,32,1.0,49.0
2066,61.0,8,76,0.0,64.0
2067,73.0,0,88,0.0,70.0
2068,59.0,0,32,1.0,53.0
2069,56.0,4,32,1.0,49.0
2070,51.0,0,32,1.0,49.0
2071,44.0,0,32,1.0,49.0
2072,59.0,0,72,0.0,60.0
2073,44.0,0,32,1.0,49.0
2074,59.0,48,32,1.0,53.0
2075,56.0,0,32,1.0,49.0
2076,51.0,0,32,1.0,49.0
2077,71.0,44,96,0.0,69.0
2078,59.0,0,32,1.0,53.0
2079,44.0,0,32,1.0,49.0
2080,56.0,12,32,1.0,49.0
2081,51.0,0,32,1.0,49.0
2082,73.0,0,80,0.0,64.0
2083,61.0,36,88,0.0,64.0
2084,44.0,0,32,1.0,49.0
2085,56.0,48,32,1.0,49.0
2086,51.0,0,32,1.0,49.0
2087,59.0,0,32,1.0,53.0
2088,59.0,0,32,1.0,53.0
2089,51.0,24,32,1.0,49.0
2090,56.0,0,32,1.0,49.0
2091,44.0,0,32,1.0,49.0
2092,71.0,0,84,0.0,70.0
2093,59.0,24,92,0.0,60.0
2094,56.0,0,32,1.0,49.0
2095,44.0,48,32,1.0,49.0
2096,59.0,0,32,1.0,53.0
2097,51.0,0,32,1.0,49.0
2098,51.0,0,32,1.0,49.0
2099,56.0,0,32,1.0,49.0
2100,59.0,36,32,1.0,53.0
2101,44.0,0,32,1.0,49.0
2102,70.0,12,88,0.0,65.0
2103,58.0,0,92,0.0,58.0
2104,44.0,0,32,1.0,49.0
2105,59.0,48,32,1.0,53.0
2106,56.0,0,32,1.0,49.0
2107,51.0,0,32,1.0,49.0
2108,51.0,0,32,1.0,49.0
2109,56.0,0,32,1.0,49.0
2110,59.0,44,32,1.0,53.0
2111,44.0,0,32,1.0,49.0
2112,71.0,4,84,0.0,74.0
2113,59.0,0,92,0.0,63.0
2114,44.0,0,32,1.0,49.0
2115,56.0,0,32,1.0,49.0
2116,51.0,4,32,1.0,49.0
2117,59.0,0,32,1.0,53.0
2118,44.0,0,32,1.0,49.0
2119,59.0,48,32,1.0,53.0
2120,56.0,0,32,1.0,49.0
2121,51.0,0,32,1.0,49.0
2122,44.0,0,32,1.0,49.0
2123,59.0,0,32,1.0,53.0
2124,56.0,0,32,1.0,49.0
2125,51.0,48,32,1.0,49.0
2126,59.0,48,32,1.0,53.0
2127,56.0,0,32,1.0,49.0
2128,51.0,0,32,1.0,49.0
2129,44.0,0,32,1.0,49.0
2130,44.0,48,32,1.0,49.0
2131,51.0,0,32,1.0,49.0
2132,59.0,0,32,1.0,53.0
2133,56.0,0,32,1.0,49.0
2134,44.0,0,32,1.0,49.0
2135,59.0,48,32,1.0,53.0
2136,56.0,0,32,1.0,49.0
2137,51.0,0,32,1.0,49.0
2138,61.0,44,288,0.0,59.0
2139,73.0,0,292,0.0,68.0
2140,56.0,0,32,1.0,49.0
2141,51.0,48,32,1.0,49.0
2142,59.0,0,32,1.0,53.0
2143,44.0,0,32,1.0,49.0
2144,75.0,4,40,0.0,69.0
2145,63.0,0,44,0.0,61.0
2146,51.0,0,32,1.0,49.0
2147,59.0,44,32,1.0,53.0
2148,56.0,0,32,1.0,49.0
2149,44.0,0,32,1.0,49.0
2150,56.0,0,32,1.0,49.0
2151,44.0,0,32,1.0,49.0
2152,59.0,16,32,1.0,53.0
2153,51.0,0,32,1.0,49.0
2154,59.0,0,32,1.0,53.0
2155,56.0,0,32,1.0,49.0
2156,51.0,48,32,1.0,49.0
2157,44.0,0,32,1.0,49.0
2158,44.0,0,32,1.0,49.0
2159,59.0,48,32,1.0,53.0
2160,56.0,0,32,1.0,49.0
2161,51.0,0,32,1.0,49.0
2162,51.0,0,32,1.0,49.0
2163,56.0,48,32,1.0,49.0
2164,59.0,0,32,1.0,53.0
2165,44.0,0,32,1.0,49.0
2166,56.0,0,32,1.0,49.0
2167,59.0,0,32,1.0,53.0
2168,51.0,0,32,1.0,49.0
2169,44.0,48,32,1.0,49.0
2170,44.0,0,32,1.0,49.0
2171,59.0,48,32,1.0,53.0
2172,56.0,0,32,1.0,49.0
2173,51.0,0,32,1.0,49.0
2174,44.0,0,32,1.0,49.0
2175,59.0,48,32,1.0,53.0
2176,56.0,0,32,1.0,49.0
2177,51.0,0,32,1.0,49.0
2178,44.0,0,32,1.0,49.0
2179,56.0,0,32,1.0,49.0
2180,59.0,48,32,1.0,53.0
2181,51.0,0,32,1.0,49.0
2182,51.0,0,32,1.0,49.0
2183,56.0,0,32,1.0,49.0
2184,59.0,0,32,1.0,53.0
2185,44.0,48,32,1.0,49.0
2186,75.0,0,480,0.0,73.0
2187,59.0,0,32,1.0,53.0
2188,56.0,48,32,1.0,49.0
2189,51.0,0,32,1.0,49.0
2190,44.0,0,32,1.0,49.0
2191,63.0,32,524,0.0,68.0
2192,44.0,0,32,1.0,49.0
2193,56.0,0,32,1.0,49.0
2194,51.0,48,32,1.0,49.0
2195,59.0,0,32,1.0,53.0
2196,59.0,4,32,1.0,53.0
2197,44.0,0,32,1.0,49.0
2198,51.0,0,32,1.0,49.0
2199,56.0,0,32,1.0,49.0
2200,56.0,48,32,1.0,49.0
2201,51.0,0,32,1.0,49.0
2202,44.0,0,32,1.0,49.0
2203,59.0,0,32,1.0,53.0
2204,44.0,0,32,1.0,49.0
2205,59.0,48,32,1.0,53.0
2206,56.0,0,32,1.0,49.0
2207,51.0,0,32,1.0,49.0
2208,59.0,0,32,1.0,53.0
2209,56.0,48,32,1.0,49.0
2210,51.0,0,32,1.0,49.0
2211,44.0,0,32,1.0,49.0
2212,56.0,0,32,1.0,49.0
2213,51.0,0,32,1.0,49.0
2214,44.0,0,32,1.0,49.0
2215,59.0,48,32,1.0,53.0
2216,44.0,0,32,1.0,49.0
2217,56.0,0,32,1.0,49.0
2218,51.0,0,32,1.0,49.0
2219,59.0,48,32,1.0,53.0
2220,44.0,0,32,1.0,49.0
2221,59.0,48,32,1.0,53.0
2222,51.0,0,32,1.0,49.0
2223,56.0,0,32,1.0,49.0
2224,59.0,0,32,1.0,53.0
2225,56.0,0,32,1.0,49.0
2226,51.0,0,32,1.0,49.0
2227,44.0,48,32,1.0,49.0
2228,44.0,0,32,1.0,49.0
2229,59.0,48,32,1.0,53.0
2230,51.0,0,32,1.0,49.0
2231,56.0,0,32,1.0,49.0
2232,59.0,0,32,1.0,53.0
2233,56.0,0,32,1.0,49.0
2234,51.0,0,32,1.0,49.0
2235,44.0,48,32,1.0,49.0
2236,56.0,0,476,0.0,39.0
2237,44.0,0,32,1.0,49.0
2238,59.0,48,32,1.0,53.0
2239,56.0,0,32,1.0,49.0
2240,51.0,0,32,1.0,49.0
2241,68.0,44,520,0.0,49.0
2242,44.0,0,32,1.0,49.0
2243,59.0,48,32,1.0,53.0
2244,56.0,0,32,1.0,49.0
2245,51.0,0,32,1.0,49.0
2246,44.0,0,32,1.0,49.0
2247,59.0,0,32,1.0,53.0
2248,56.0,0,32,1.0,49.0
2249,51.0,48,32,1.0,49.0
2250,44.0,0,32,1.0,49.0
2251,59.0,48,32,1.0,53.0
2252,56.0,0,32,1.0,49.0
2253,51.0,0,32,1.0,49.0
2254,44.0,0,32,1.0,49.0
2255,59.0,0,32,1.0,53.0
2256,56.0,0,32,1.0,49.0
2257,51.0,0,32,1.0,49.0
2258,56.0,0,32,1.0,49.0
2259,44.0,0,32,1.0,49.0
2260,51.0,0,32,1.0,49.0
2261,59.0,48,32,1.0,53.0
2262,68.0,0,120,0.0,42.0
2263,56.0,48,124,0.0,43.0
2264,44.0,0,32,1.0,49.0
2265,59.0,48,32,1.0,53.0
2266,56.0,0,32,1.0,49.0
2267,51.0,0,32,1.0,49.0
2268,44.0,16,32,1.0,49.0
2269,59.0,0,32,1.0,53.0
2270,56.0,0,32,1.0,49.0
2271,51.0,0,32,1.0,49.0
2272,67.0,0,80,0.0,58.0
2273,55.0,32,92,0.0,59.0
2274,44.0,0,32,1.0,49.0
2275,59.0,48,32,1.0,53.0
2276,56.0,0,32,1.0,49.0
2277,51.0,0,32,1.0,49.0
2278,51.0,24,32,1.0,49.0
2279,56.0,0,32,1.0,49.0
2280,59.0,0,32,1.0,53.0
2281,44.0,0,32,1.0,49.0
2282,68.0,0,100,0.0,60.0
2283,44.0,48,32,1.0,49.0
2284,59.0,0,32,1.0,53.0
2285,56.0,0,32,1.0,49.0
2286,51.0,0,32,1.0,49.0
2287,56.0,24,128,0.0,53.0
2288,44.0,0,32,1.0,49.0
2289,59.0,16,32,1.0,53.0
2290,56.0,0,32,1.0,49.0
2291,51.0,0,32,1.0,49.0
2292,70.0,0,92,0.0,62.0
2293,44.0,0,32,1.0,49.0
2294,59.0,48,32,1.0,53.0
2295,56.0,0,32,1.0,49.0
2296,51.0,0,32,1.0,49.0
2297,58.0,32,100,0.0,50.0
2298,51.0,0,32,1.0,49.0
2299,56.0,0,32,1.0,49.0
2300,59.0,0,32,1.0,53.0
2301,44.0,4,32,1.0,49.0
2302,51.0,0,32,1.0,49.0
2303,56.0,0,32,1.0,49.0
2304,59.0,48,32,1.0,53.0
2305,44.0,0,32,1.0,49.0
2306,71.0,44,88,0.0,68.0
2307,59.0,0,112,0.0,54.0
2308,59.0,0,32,1.0,53.0
2309,56.0,0,32,1.0,49.0
2310,51.0,0,32,1.0,49.0
2311,44.0,48,32,1.0,49.0
2312,59.0,0,32,1.0,53.0
2313,56.0,28,32,1.0,49.0
2314,51.0,0,32,1.0,49.0
2315,44.0,0,32,1.0,49.0
2316,70.0,0,92,0.0,62.0
2317,58.0,20,104,0.0,49.0
2318,51.0,0,32,1.0,49.0
2319,59.0,0,32,1.0,53.0
2320,44.0,48,32,1.0,49.0
2321,56.0,0,32,1.0,49.0
2322,44.0,0,32,1.0,49.0
2323,59.0,20,32,1.0,53.0
2324,56.0,0,32,1.0,49.0
2325,51.0,0,32,1.0,49.0
2326,44.0,48,32,1.0,49.0
2327,56.0,0,32,1.0,49.0
2328,59.0,0,32,1.0,53.0
2329,51.0,0,32,1.0,49.0
2330,59.0,48,32,1.0,53.0
2331,44.0,0,32,1.0,49.0
2332,51.0,0,32,1.0,49.0
2333,56.0,0,32,1.0,49.0
2334,59.0,0,156,0.0,59.0
2335,71.0,28,176,0.0,74.0
2336,44.0,0,32,1.0,48.0
2337,61.0,48,32,1.0,48.0
2338,56.0,0,32,1.0,48.0
2339,52.0,0,32,1.0,48.0
2340,52.0,0,32,1.0,48.0
2341,44.0,0,32,1.0,48.0
2342,61.0,48,32,1.0,48.0
2343,56.0,0,32,1.0,48.0
2344,44.0,0,32,1.0,48.0
2345,61.0,48,32,1.0,48.0
2346,56.0,0,32,1.0,48.0
2347,52.0,0,32,1.0,48.0
2348,44.0,0,32,1.0,48.0
2349,61.0,0,32,1.0,48.0
2350,56.0,48,32,1.0,48.0
2351,52.0,0,32,1.0,48.0
2352,44.0,0,32,1.0,48.0
2353,61.0,0,32,1.0,48.0
2354,56.0,0,32,1.0,48.0
2355,52.0,48,32,1.0,48.0
2356,44.0,0,240,4.0,75.0
2357,52.0,0,32,1.0,48.0
2358,61.0,48,32,1.0,48.0
2359,56.0,0,32,1.0,48.0
2360,44.0,0,32,1.0,48.0
2361,44.0,0,32,1.0,48.0
2362,61.0,48,32,1.0,48.0
2363,56.0,0,32,1.0,48.0
2364,52.0,0,32,1.0,48.0
2365,44.0,48,32,1.0,48.0
2366,61.0,0,32,1.0,48.0
2367,56.0,0,32,1.0,48.0
2368,52.0,0,32,1.0,48.0
2369,52.0,0,32,1.0,48.0
2370,44.0,0,32,1.0,48.0
2371,61.0,48,32,1.0,48.0
2372,56.0,0,32,1.0,48.0
2373,44.0,0,32,1.0,48.0
2374,61.0,48,32,1.0,48.0
2375,56.0,0,32,1.0,48.0
2376,52.0,0,32,1.0,48.0
2377,44.0,48,32,1.0,48.0
2378,61.0,0,32,1.0,48.0
2379,56.0,0,32,1.0,48.0
2380,52.0,0,32,1.0,48.0
2381,75.0,0,536,0.0,73.0
2382,44.0,0,32,1.0,48.0
2383,61.0,0,32,1.0,48.0
2384,56.0,0,32,1.0,48.0
2385,52.0,0,32,1.0,48.0
2386,63.0,0,564,0.0,53.0
2387,52.0,0,32,1.0,48.0
2388,61.0,48,32,1.0,48.0
2389,44.0,0,32,1.0,48.0
2390,56.0,0,32,1.0,48.0
2391,56.0,0,32,1.0,48.0
2392,44.0,0,32,1.0,48.0
2393,61.0,0,32,1.0,48.0
2394,52.0,48,32,1.0,48.0
2395,61.0,48,32,1.0,48.0
2396,52.0,0,32,1.0,48.0
2397,56.0,0,32,1.0,48.0
2398,44.0,0,32,1.0,48.0
2399,56.0,0,32,1.0,48.0
2400,44.0,0,32,1.0,48.0
2401,61.0,0,32,1.0,48.0
2402,52.0,48,32,1.0,48.0
2403,61.0,0,32,1.0,48.0
2404,44.0,0,32,1.0,48.0
2405,56.0,0,32,1.0,48.0
2406,52.0,48,32,1.0,48.0
2407,44.0,0,32,1.0,48.0
2408,61.0,0,32,1.0,48.0
2409,56.0,0,32,1.0,48.0
2410,52.0,48,32,1.0,48.0
2411,56.0,48,32,1.0,48.0
2412,52.0,0,32,1.0,48.0
2413,44.0,0,32,1.0,48.0
2414,61.0,0,32,1.0,48.0
2415,61.0,48,32,1.0,48.0
2416,56.0,0,32,1.0,48.0
2417,44.0,0,32,1.0,48.0
2418,52.0,0,32,1.0,48.0
2419,61.0,0,32,1.0,48.0
2420,52.0,48,32,1.0,48.0
2421,44.0,0,32,1.0,48.0
2422,56.0,0,32,1.0,48.0
2423,73.0,0,476,0.0,46.0
2424,61.0,48,504,0.0,40.0
2425,52.0,0,32,1.0,48.0
2426,56.0,0,32,1.0,48.0
2427,44.0,0,32,1.0,48.0
2428,61.0,48,32,1.0,48.0
2429,44.0,0,32,1.0,48.0
2430,61.0,48,32,1.0,48.0
2431,56.0,0,32,1.0,48.0
2432,52.0,0,32,1.0,48.0
2433,56.0,0,32,1.0,48.0
2434,61.0,0,32,1.0,48.0
2435,44.0,48,32,1.0,48.0
2436,52.0,0,32,1.0,48.0
2437,44.0,0,32,1.0,48.0
2438,61.0,0,32,1.0,48.0
2439,56.0,0,32,1.0,48.0
2440,52.0,0,32,1.0,48.0
2441,52.0,0,32,1.0,48.0
2442,56.0,0,32,1.0,48.0
2443,61.0,48,32,1.0,48.0
2444,44.0,0,32,1.0,48.0
2445,73.0,0,88,0.0,45.0
2446,61.0,48,108,0.0,35.0
2447,52.0,48,32,1.0,48.0
2448,44.0,0,32,1.0,48.0
2449,61.0,0,32,1.0,48.0
2450,56.0,0,32,1.0,48.0
2451,75.0,0,56,0.0,52.0
2452,63.0,0,64,0.0,37.0
2453,44.0,0,32,1.0,48.0
2454,61.0,0,32,1.0,48.0
2455,56.0,0,32,1.0,48.0
2456,52.0,48,32,1.0,48.0
2457,44.0,0,32,1.0,48.0
2458,61.0,48,32,1.0,48.0
2459,56.0,0,32,1.0,48.0
2460,52.0,0,32,1.0,48.0
2461,76.0,0,64,0.0,54.0
2462,64.0,0,64,0.0,46.0
2463,61.0,0,32,1.0,48.0
2464,56.0,0,32,1.0,48.0
2465,52.0,0,32,1.0,48.0
2466,44.0,48,32,1.0,48.0
2467,52.0,0,32,1.0,48.0
2468,61.0,0,32,1.0,48.0
2469,44.0,20,32,1.0,48.0
2470,56.0,0,32,1.0,48.0
2471,78.0,0,52,0.0,52.0
2472,66.0,28,76,0.0,42.0
2473,44.0,48,32,1.0,48.0
2474,61.0,0,32,1.0,48.0
2475,56.0,0,32,1.0,48.0
2476,52.0,0,32,1.0,48.0
2477,61.0,0,32,1.0,48.0
2478,56.0,0,32,1.0,48.0
2479,52.0,0,32,1.0,48.0
2480,44.0,32,32,1.0,48.0
2481,80.0,16,92,0.0,57.0
2482,68.0,0,100,0.0,43.0
2483,44.0,4,32,1.0,48.0
2484,56.0,0,32,1.0,48.0
2485,61.0,0,32,1.0,48.0
2486,52.0,0,32,1.0,48.0
2487,70.0,44,64,0.0,44.0
2488,44.0,0,32,1.0,48.0
2489,61.0,48,32,1.0,48.0
2490,56.0,0,32,1.0,48.0
2491,52.0,0,32,1.0,48.0
2492,82.0,0,112,0.0,57.0
2493,56.0,0,32,1.0,48.0
2494,61.0,0,32,1.0,48.0
2495,83.0,0,44,0.0,69.0
2496,52.0,0,32,1.0,48.0
2497,44.0,12,32,1.0,48.0
2498,71.0,36,76,0.0,53.0
2499,44.0,0,32,1.0,48.0
2500,61.0,0,32,1.0,48.0
2501,56.0,48,32,1.0,48.0
2502,52.0,0,32,1.0,48.0
2503,56.0,0,32,1.0,48.0
2504,52.0,0,32,1.0,48.0
2505,44.0,24,32,1.0,48.0
2506,61.0,0,32,1.0,48.0
2507,75.0,0,84,0.0,47.0
2508,52.0,0,32,1.0,48.0
2509,87.0,24,104,0.0,59.0
2510,61.0,0,32,1.0,48.0
2511,56.0,48,32,1.0,48.0
2512,44.0,0,32,1.0,48.0
2513,44.0,0,32,1.0,48.0
2514,61.0,0,32,1.0,48.0
2515,56.0,28,32,1.0,48.0
2516,52.0,0,32,1.0,48.0
2517,73.0,0,84,0.0,54.0
2518,85.0,20,104,0.0,69.0
2519,44.0,48,32,1.0,48.0
2520,61.0,0,32,1.0,48.0
2521,52.0,0,32,1.0,48.0
2522,56.0,0,32,1.0,48.0
2523,71.0,20,48,0.0,55.0
2524,44.0,0,32,1.0,48.0
2525,56.0,0,32,1.0,48.0
2526,52.0,28,32,1.0,48.0
2527,61.0,0,32,1.0,48.0
2528,83.0,0,64,0.0,70.0
2529,44.0,48,32,1.0,48.0
2530,61.0,0,32,1.0,48.0
2531,56.0,0,32,1.0,48.0
2532,52.0,0,32,1.0,48.0
2533,44.0,0,32,1.0,48.0
2534,61.0,24,32,1.0,48.0
2535,56.0,0,32,1.0,48.0
2536,52.0,0,32,1.0,48.0
2537,52.0,0,32,1.0,48.0
2538,44.0,0,32,1.0,48.0
2539,61.0,48,32,1.0,48.0
2540,56.0,0,32,1.0,48.0
2541,44.0,0,32,1.0,48.0
2542,61.0,0,32,1.0,48.0
2543,56.0,48,32,1.0,48.0
2544,52.0,0,32,1.0,48.0
2545,44.0,0,32,1.0,48.0
2546,61.0,0,32,1.0,48.0
2547,56.0,0,32,1.0,48.0
2548,52.0,48,32,1.0,48.0
2549,61.0,48,32,1.0,48.0
2550,44.0,0,32,1.0,48.0
2551,56.0,0,32,1.0,48.0
2552,52.0,0,32,1.0,48.0
2553,44.0,0,32,1.0,48.0
2554,61.0,0,32,1.0,48.0
2555,56.0,48,32,1.0,48.0
2556,52.0,0,32,1.0,48.0
2557,44.0,48,32,1.0,48.0
2558,61.0,0,32,1.0,48.0
2559,56.0,0,32,1.0,48.0
2560,52.0,0,32,1.0,48.0
2561,61.0,0,32,1.0,48.0
2562,52.0,0,32,1.0,48.0
2563,44.0,48,32,1.0,48.0
2564,56.0,0,32,1.0,48.0
2565,44.0,48,32,1.0,48.0
2566,61.0,0,32,1.0,48.0
2567,56.0,0,32,1.0,48.0
2568,52.0,0,32,1.0,48.0
2569,44.0,0,32,1.0,48.0
2570,61.0,48,32,1.0,48.0
2571,56.0,0,32,1.0,48.0
2572,52.0,0,32,1.0,48.0
2573,44.0,48,32,1.0,48.0
2574,61.0,0,32,1.0,48.0
2575,56.0,0,32,1.0,48.0
2576,52.0,0,32,1.0,48.0
2577,83.0,0,576,0.0,65.0
2578,52.0,0,32,1.0,48.0
2579,61.0,48,32,1.0,48.0
2580,44.0,0,32,1.0,48.0
2581,56.0,0,32,1.0,48.0
2582,71.0,24,592,0.0,53.0
2583,52.0,0,32,1.0,48.0
2584,44.0,0,32,1.0,48.0
2585,56.0,0,32,1.0,48.0
2586,61.0,28,32,1.0,48.0
2587,56.0,0,32,1.0,48.0
2588,44.0,0,32,1.0,48.0
2589,61.0,0,32,1.0,48.0
2590,52.0,48,32,1.0,48.0
2591,61.0,48,32,1.0,48.0
2592,56.0,0,32,1.0,48.0
2593,52.0,0,32,1.0,48.0
2594,44.0,0,32,1.0,48.0
2595,44.0,20,200,4.0,55.0
2596,52.0,48,32,1.0,48.0
2597,44.0,0,32,1.0,48.0
2598,56.0,0,32,1.0,48.0
2599,61.0,0,32,1.0,48.0
2600,56.0,0,32,1.0,48.0
2601,44.0,0,32,1.0,48.0
2602,61.0,0,32,1.0,48.0
2603,52.0,48,32,1.0,48.0
2604,56.0,0,32,1.0,49.0
2605,61.0,48,32,1.0,49.0
2606,44.0,0,32,1.0,49.0
2607,52.0,0,32,1.0,49.0
2608,44.0,0,32,1.0,49.0
2609,61.0,48,32,1.0,49.0
2610,56.0,0,32,1.0,49.0
2611,52.0,0,32,1.0,49.0
2612,61.0,0,32,1.0,49.0
2613,44.0,0,32,1.0,49.0
2614,56.0,48,32,1.0,49.0
2615,52.0,0,32,1.0,49.0
2616,56.0,0,32,1.0,49.0
2617,44.0,0,32,1.0,49.0
2618,52.0,0,32,1.0,49.0
2619,61.0,0,32,1.0,49.0
2620,82.0,0,488,0.0,45.0
2621,52.0,0,32,1.0,49.0
2622,56.0,0,32,1.0,49.0
2623,61.0,48,32,1.0,49.0
2624,44.0,0,32,1.0,49.0
2625,70.0,0,520,0.0,44.0
2626,44.0,0,32,1.0,50.0
2627,56.0,0,32,1.0,50.0
2628,52.0,48,32,1.0,50.0
2629,61.0,0,32,1.0,50.0
2630,44.0,48,160,4.0,55.0
2631,61.0,0,32,1.0,50.0
2632,44.0,0,32,1.0,50.0
2633,56.0,48,32,1.0,50.0
2634,52.0,0,32,1.0,50.0
2635,52.0,28,32,1.0,50.0
2636,56.0,0,32,1.0,50.0
2637,61.0,0,32,1.0,50.0
2638,44.0,0,32,1.0,50.0
2639,44.0,0,32,1.0,50.0
2640,61.0,48,32,1.0,50.0
2641,56.0,0,32,1.0,50.0
2642,52.0,0,32,1.0,50.0
2643,61.0,0,32,1.0,50.0
2644,44.0,48,32,1.0,50.0
2645,56.0,0,32,1.0,50.0
2646,52.0,0,32,1.0,50.0
2647,56.0,0,32,1.0,51.0
2648,61.0,0,32,1.0,51.0
2649,44.0,48,32,1.0,51.0
2650,52.0,0,32,1.0,51.0
2651,44.0,48,32,1.0,51.0
2652,52.0,0,32,1.0,51.0
2653,56.0,0,32,1.0,51.0
2654,61.0,0,32,1.0,51.0
2655,44.0,20,280,4.0,54.0
2656,52.0,0,32,1.0,51.0
2657,56.0,0,32,1.0,51.0
2658,44.0,48,32,1.0,51.0
2659,61.0,0,32,1.0,51.0
2660,52.0,0,32,1.0,51.0
2661,56.0,0,32,1.0,51.0
2662,61.0,0,32,1.0,51.0
2663,44.0,48,32,1.0,51.0
2664,52.0,48,32,1.0,51.0
2665,44.0,0,32,1.0,51.0
2666,61.0,0,32,1.0,51.0
2667,56.0,0,32,1.0,51.0
2668,44.0,0,32,1.0,52.0
2669,56.0,0,32,1.0,52.0
2670,52.0,0,32,1.0,52.0
2671,61.0,48,32,1.0,52.0
2672,52.0,0,32,1.0,52.0
2673,56.0,48,32,1.0,52.0
2674,61.0,0,32,1.0,52.0
2675,44.0,0,32,1.0,52.0
2676,44.0,0,32,1.0,52.0
2677,61.0,0,32,1.0,52.0
2678,56.0,48,32,1.0,52.0
2679,52.0,0,32,1.0,52.0
2680,44.0,0,32,1.0,52.0
2681,61.0,16,32,1.0,52.0
2682,56.0,0,32,1.0,52.0
2683,52.0,0,32,1.0,52.0
2684,52.0,0,32,1.0,52.0
2685,56.0,48,32,1.0,52.0
2686,61.0,0,32,1.0,52.0
2687,44.0,0,32,1.0,52.0
2688,44.0,0,32,1.0,52.0
2689,52.0,0,32,1.0,52.0
2690,56.0,0,32,1.0,52.0
2691,61.0,48,32,1.0,52.0
2692,61.0,0,32,1.0,53.0
2693,52.0,0,32,1.0,53.0
2694,56.0,0,32,1.0,53.0
2695,44.0,48,32,1.0,53.0
2696,56.0,0,32,1.0,53.0
2697,44.0,48,32,1.0,53.0
2698,52.0,0,32,1.0,53.0
2699,61.0,0,32,1.0,53.0
2700,44.0,32,280,4.0,55.0
2701,44.0,48,32,1.0,53.0
2702,61.0,0,32,1.0,53.0
2703,56.0,0,32,1.0,53.0
2704,52.0,0,32,1.0,53.0
2705,44.0,0,32,1.0,53.0
2706,61.0,48,32,1.0,53.0
2707,56.0,0,32,1.0,53.0
2708,52.0,0,32,1.0,53.0
2709,52.0,0,32,1.0,53.0
2710,56.0,0,32,1.0,53.0
2711,61.0,0,32,1.0,53.0
2712,44.0,48,32,1.0,53.0
2713,52.0,48,32,1.0,54.0
2714,56.0,0,32,1.0,54.0
2715,61.0,0,32,1.0,54.0
2716,44.0,0,32,1.0,54.0
2717,52.0,0,32,1.0,54.0
2718,56.0,0,32,1.0,54.0
2719,61.0,0,32,1.0,54.0
2720,44.0,48,32,1.0,54.0
2721,52.0,48,32,1.0,54.0
2722,56.0,0,32,1.0,54.0
2723,61.0,0,32,1.0,54.0
2724,44.0,0,32,1.0,54.0
2725,52.0,0,32,1.0,54.0
2726,56.0,0,32,1.0,54.0
2727,61.0,48,32,1.0,54.0
2728,44.0,0,32,1.0,54.0
2729,52.0,8,32,1.0,54.0
2730,56.0,0,32,1.0,54.0
2731,61.0,0,32,1.0,54.0
2732,44.0,0,32,1.0,54.0
2733,56.0,0,32,1.0,55.0
2734,61.0,0,32,1.0,55.0
2735,44.0,48,32,1.0,55.0
2736,52.0,0,32,1.0,55.0
2737,52.0,0,32,1.0,55.0
2738,56.0,0,32,1.0,55.0
2739,61.0,0,32,1.0,55.0
2740,44.0,48,32,1.0,55.0
2741,56.0,0,32,1.0,55.0
2742,61.0,0,32,1.0,55.0
2743,44.0,0,32,1.0,55.0
2744,52.0,48,32,1.0,55.0
2745,52.0,0,32,1.0,55.0
2746,44.0,48,32,1.0,55.0
2747,61.0,0,32,1.0,55.0
2748,56.0,0,32,1.0,55.0
2749,52.0,48,32,1.0,55.0
2750,44.0,40,280,4.0,55.0
2751,44.0,0,32,1.0,55.0
2752,61.0,0,32,1.0,55.0
2753,56.0,0,32,1.0,55.0
2754,44.0,0,32,1.0,56.0
2755,61.0,48,32,1.0,56.0
2756,56.0,0,32,1.0,56.0
2757,52.0,0,32,1.0,56.0
2758,52.0,0,32,1.0,56.0
2759,44.0,0,32,1.0,56.0
2760,61.0,48,32,1.0,56.0
2761,56.0,0,32,1.0,56.0
2762,52.0,0,32,1.0,56.0
2763,56.0,0,32,1.0,56.0
2764,61.0,0,32,1.0,56.0
2765,44.0,48,32,1.0,56.0
2766,52.0,0,32,1.0,56.0
2767,56.0,0,32,1.0,56.0
2768,61.0,0,32,1.0,56.0
2769,44.0,48,32,1.0,56.0
2770,44.0,0,32,1.0,56.0
2771,61.0,0,32,1.0,56.0
2772,56.0,48,32,1.0,56.0
2773,52.0,0,32,1.0,56.0
2774,44.0,0,32,1.0,57.0
2775,61.0,0,32,1.0,57.0
2776,56.0,48,32,1.0,57.0
2777,52.0,0,32,1.0,57.0
2778,44.0,0,32,1.0,57.0
2779,52.0,0,32,1.0,57.0
2780,56.0,0,32,1.0,57.0
2781,61.0,48,32,1.0,57.0
2782,52.0,0,32,1.0,57.0
2783,56.0,48,32,1.0,57.0
2784,61.0,0,32,1.0,57.0
2785,44.0,0,32,1.0,57.0
2786,44.0,0,32,1.0,57.0
2787,61.0,0,32,1.0,57.0
2788,56.0,48,32,1.0,57.0
2789,52.0,0,32,1.0,57.0
2790,44.0,0,32,1.0,57.0
2791,61.0,48,32,1.0,57.0
2792,56.0,0,32,1.0,57.0
2793,52.0,0,32,1.0,57.0
2794,56.0,0,32,1.0,58.0
2795,44.0,0,32,1.0,58.0
2796,52.0,48,32,1.0,58.0
2797,61.0,0,32,1.0,58.0
2798,52.0,0,32,1.0,58.0
2799,56.0,0,32,1.0,58.0
2800,61.0,0,32,1.0,58.0
2801,44.0,48,32,1.0,58.0
2802,52.0,0,32,1.0,58.0
2803,44.0,48,32,1.0,58.0
2804,61.0,0,32,1.0,58.0
2805,56.0,0,32,1.0,58.0
2806,44.0,0,32,1.0,58.0
2807,61.0,48,32,1.0,58.0
2808,56.0,0,32,1.0,58.0
2809,52.0,0,32,1.0,58.0
2810,44.0,48,32,1.0,58.0
2811,61.0,0,32,1.0,58.0
2812,56.0,0,32,1.0,58.0
2813,52.0,0,32,1.0,58.0
2814,44.0,0,32,1.0,58.0
2815,61.0,0,32,1.0,58.0
2816,56.0,48,32,1.0,58.0
2817,52.0,0,32,1.0,58.0
2818,52.0,0,32,1.0,59.0
2819,44.0,0,32,1.0,59.0
2820,61.0,48,32,1.0,59.0
2821,56.0,0,32,1.0,59.0
2822,52.0,0,32,1.0,59.0
2823,44.0,0,32,1.0,59.0
2824,61.0,48,32,1.0,59.0
2825,56.0,0,32,1.0,59.0
2826,44.0,0,32,1.0,59.0
2827,56.0,0,32,1.0,59.0
2828,52.0,0,32,1.0,59.0
2829,61.0,48,32,1.0,59.0
2830,61.0,48,32,1.0,59.0
2831,44.0,0,32,1.0,59.0
2832,52.0,0,32,1.0,59.0
2833,56.0,0,32,1.0,59.0
2834,56.0,0,32,1.0,59.0
2835,52.0,0,32,1.0,59.0
2836,44.0,0,32,1.0,59.0
2837,61.0,48,32,1.0,59.0
2838,44.0,0,32,1.0,60.0
2839,61.0,0,32,1.0,60.0
2840,56.0,0,32,1.0,60.0
2841,52.0,32,32,1.0,60.0
2842,76.0,16,92,0.0,93.0
2843,88.0,0,112,0.0,74.0
2844,61.0,0,32,1.0,60.0
2845,56.0,48,32,1.0,60.0
2846,52.0,0,32,1.0,60.0
2847,44.0,0,32,1.0,60.0
2848,56.0,8,32,1.0,60.0
2849,61.0,0,32,1.0,60.0
2850,44.0,0,32,1.0,60.0
2851,52.0,0,32,1.0,60.0
2852,52.0,0,32,1.0,60.0
2853,44.0,0,32,1.0,60.0
2854,61.0,0,32,1.0,60.0
2855,56.0,48,32,1.0,60.0
2856,56.0,48,32,1.0,60.0
2857,61.0,0,32,1.0,60.0
2858,44.0,0,32,1.0,60.0
2859,52.0,0,32,1.0,60.0
2860,44.0,0,32,1.0,60.0
2861,56.0,0,32,1.0,60.0
2862,61.0,48,32,1.0,60.0
2863,52.0,0,32,1.0,60.0
2864,44.0,0,32,1.0,60.0
2865,61.0,0,32,1.0,60.0
2866,56.0,48,32,1.0,60.0
2867,52.0,0,32,1.0,60.0
2868,44.0,0,32,1.0,60.0
2869,61.0,0,32,1.0,60.0
2870,56.0,48,32,1.0,60.0
2871,52.0,0,32,1.0,60.0
2872,61.0,0,32,1.0,60.0
2873,56.0,0,32,1.0,60.0
2874,52.0,0,32,1.0,60.0
2875,44.0,48,32,1.0,60.0
2876,84.0,40,332,0.0,93.0
2877,72.0,0,356,0.0,81.0
2878,56.0,0,32,1.0,60.0
2879,52.0,0,32,1.0,60.0
2880,44.0,0,32,1.0,60.0
2881,61.0,48,32,1.0,60.0
2882,44.0,0,32,1.0,60.0
2883,61.0,0,32,1.0,60.0
2884,56.0,0,32,1.0,60.0
2885,52.0,32,32,1.0,60.0
2886,85.0,12,92,0.0,81.0
2887,73.0,4,88,0.0,77.0
2888,56.0,0,32,1.0,60.0
2889,52.0,0,32,1.0,60.0
2890,44.0,0,32,1.0,60.0
2891,61.0,48,32,1.0,60.0
2892,56.0,0,32,1.0,60.0
2893,44.0,36,32,1.0,60.0
2894,61.0,0,32,1.0,60.0
2895,52.0,0,32,1.0,60.0
2896,75.0,8,92,0.0,76.0
2897,61.0,48,32,1.0,60.0
2898,56.0,0,32,1.0,60.0
2899,52.0,0,32,1.0,60.0
2900,87.0,4,116,0.0,83.0
2901,44.0,0,32,1.0,60.0
2902,73.0,4,56,0.0,79.0
2903,85.0,8,64,0.0,93.0
2904,56.0,0,32,1.0,60.0
2905,61.0,36,32,1.0,60.0
2906,58.0,0,32,1.0,60.0
2907,52.0,0,32,1.0,60.0
2908,43.0,0,32,1.0,60.0
2909,61.0,56,32,1.0,60.0
2910,58.0,0,32,1.0,60.0
2911,43.0,48,32,1.0,60.0
2912,61.0,0,32,1.0,60.0
2913,52.0,0,32,1.0,60.0
2914,43.0,0,32,1.0,60.0
2915,61.0,48,32,1.0,60.0
2916,58.0,0,32,1.0,60.0
2917,52.0,0,32,1.0,60.0
2918,43.0,48,32,1.0,60.0
2919,61.0,0,32,1.0,60.0
2920,58.0,0,32,1.0,60.0
2921,52.0,0,32,1.0,60.0
2922,43.0,0,200,4.0,80.0
2923,43.0,48,32,1.0,60.0
2924,61.0,0,32,1.0,60.0
2925,58.0,0,32,1.0,60.0
2926,52.0,0,32,1.0,60.0
2927,58.0,0,32,1.0,60.0
2928,52.0,0,32,1.0,60.0
2929,43.0,0,32,1.0,60.0
2930,61.0,48,32,1.0,60.0
2931,52.0,0,32,1.0,60.0
2932,43.0,0,32,1.0,60.0
2933,61.0,48,32,1.0,60.0
2934,58.0,0,32,1.0,60.0
2935,43.0,0,32,1.0,60.0
2936,61.0,0,32,1.0,60.0
2937,58.0,0,32,1.0,60.0
2938,52.0,48,32,1.0,60.0
2939,52.0,0,32,1.0,60.0
2940,58.0,0,32,1.0,60.0
2941,43.0,0,32,1.0,60.0
2942,61.0,48,32,1.0,60.0
2943,43.0,0,32,1.0,60.0
2944,61.0,48,32,1.0,60.0
2945,58.0,0,32,1.0,60.0
2946,52.0,0,32,1.0,60.0
2947,85.0,0,488,0.0,90.0
2948,73.0,0,508,0.0,80.0
2949,52.0,0,32,1.0,60.0
2950,58.0,0,32,1.0,60.0
2951,61.0,48,32,1.0,60.0
2952,43.0,0,32,1.0,60.0
2953,43.0,0,32,1.0,60.0
2954,61.0,40,32,1.0,60.0
2955,58.0,0,32,1.0,60.0
2956,52.0,0,32,1.0,60.0
2957,43.0,0,32,1.0,60.0
2958,61.0,0,32,1.0,60.0
2959,58.0,48,32,1.0,60.0
2960,52.0,0,32,1.0,60.0
2961,61.0,0,32,1.0,60.0
2962,58.0,0,32,1.0,60.0
2963,52.0,48,32,1.0,60.0
2964,43.0,0,32,1.0,60.0
2965,43.0,48,32,1.0,60.0
2966,58.0,0,32,1.0,60.0
2967,52.0,0,32,1.0,60.0
2968,61.0,0,32,1.0,60.0
2969,43.0,48,32,1.0,60.0
2970,58.0,0,32,1.0,60.0
2971,52.0,0,32,1.0,60.0
2972,61.0,0,32,1.0,60.0
2973,43.0,48,32,1.0,60.0
2974,61.0,0,32,1.0,60.0
2975,58.0,0,32,1.0,60.0
2976,52.0,0,32,1.0,60.0
2977,43.0,0,32,1.0,60.0
2978,61.0,0,32,1.0,60.0
2979,58.0,48,32,1.0,60.0
2980,52.0,0,32,1.0,60.0
2981,52.0,48,32,1.0,60.0
2982,58.0,0,32,1.0,60.0
2983,61.0,0,32,1.0,60.0
2984,43.0,0,32,1.0,60.0
2985,43.0,48,32,1.0,60.0
2986,61.0,0,32,1.0,60.0
2987,58.0,0,32,1.0,60.0
2988,52.0,0,32,1.0,60.0
2989,52.0,0,32,1.0,60.0
2990,58.0,48,32,1.0,60.0
2991,43.0,0,32,1.0,60.0
2992,61.0,0,32,1.0,60.0
2993,67.0,8,548,0.0,67.0
2994,43.0,48,32,1.0,60.0
2995,61.0,0,32,1.0,60.0
2996,58.0,0,32,1.0,60.0
2997,52.0,0,32,1.0,60.0
2998,79.0,0,572,0.0,80.0
2999,43.0,0,32,1.0,60.0
3000,61.0,0,32,1.0,60.0
3001,58.0,48,32,1.0,60.0
3002,52.0,0,32,1.0,60.0
3003,43.0,0,32,1.0,60.0
3004,61.0,0,32,1.0,60.0
3005,58.0,0,32,1.0,60.0
3006,52.0,48,32,1.0,60.0
3007,43.0,0,32,1.0,60.0
3008,61.0,16,32,1.0,60.0
3009,58.0,0,32,1.0,60.0
3010,52.0,0,32,1.0,60.0
3011,43.0,0,32,1.0,60.0
3012,61.0,0,32,1.0,60.0
3013,58.0,0,32,1.0,60.0
3014,52.0,48,32,1.0,60.0
3015,79.0,4,108,0.0,90.0
3016,67.0,28,128,0.0,79.0
3017,52.0,0,32,1.0,60.0
3018,58.0,0,32,1.0,60.0
3019,61.0,0,32,1.0,60.0
3020,43.0,48,32,1.0,60.0
3021,61.0,32,32,1.0,60.0
3022,43.0,0,32,1.0,60.0
3023,52.0,0,32,1.0,60.0
3024,58.0,0,32,1.0,60.0
3025,68.0,8,96,0.0,64.0
3026,80.0,8,100,0.0,78.0
3027,43.0,0,32,1.0,60.0
3028,61.0,48,32,1.0,60.0
3029,58.0,0,32,1.0,60.0
3030,52.0,0,32,1.0,60.0
3031,43.0,0,32,1.0,60.0
3032,61.0,24,32,1.0,60.0
3033,58.0,0,32,1.0,60.0
3034,52.0,0,32,1.0,60.0
3035,69.0,20,96,0.0,75.0
3036,61.0,48,32,1.0,60.0
3037,58.0,0,32,1.0,60.0
3038,52.0,0,32,1.0,60.0
3039,43.0,0,32,1.0,60.0
3040,81.0,4,112,0.0,82.0
3041,52.0,4,32,1.0,60.0
3042,58.0,0,32,1.0,60.0
3043,61.0,0,32,1.0,60.0
3044,43.0,0,32,1.0,60.0
3045,43.0,0,32,1.0,60.0
3046,58.0,0,32,1.0,60.0
3047,52.0,0,32,1.0,60.0
3048,61.0,48,32,1.0,60.0
3049,70.0,0,80,0.0,61.0
3050,52.0,0,32,1.0,60.0
3051,58.0,0,32,1.0,60.0
3052,43.0,0,32,1.0,60.0
3053,61.0,0,32,1.0,60.0
3054,82.0,44,148,0.0,83.0
3055,43.0,0,32,1.0,60.0
3056,58.0,0,32,1.0,60.0
3057,52.0,0,32,1.0,60.0
3058,61.0,36,32,1.0,60.0
3059,61.0,48,100,0.0,55.0
3060,43.0,0,32,1.0,60.0
3061,61.0,0,32,1.0,60.0
3062,58.0,48,32,1.0,60.0
3063,52.0,0,32,1.0,60.0
3064,73.0,12,132,0.0,76.0
3065,61.0,24,32,1.0,60.0
3066,52.0,0,32,1.0,60.0
3067,58.0,0,32,1.0,60.0
3068,43.0,0,32,1.0,60.0
3069,63.0,8,92,0.0,61.0
3070,75.0,16,100,0.0,81.0
3071,61.0,0,32,1.0,60.0
3072,52.0,0,32,1.0,60.0
3073,58.0,48,32,1.0,60.0
3074,43.0,0,32,1.0,60.0
3075,52.0,20,32,1.0,60.0
3076,58.0,0,32,1.0,60.0
3077,61.0,0,32,1.0,60.0
3078,43.0,0,32,1.0,60.0
3079,61.0,0,32,1.0,60.0
3080,43.0,48,32,1.0,60.0
3081,58.0,0,32,1.0,60.0
3082,52.0,0,32,1.0,60.0
3083,78.0,4,120,0.0,79.0
3084,66.0,24,128,0.0,65.0
3085,52.0,0,32,1.0,60.0
3086,61.0,4,32,1.0,60.0
3087,43.0,0,32,1.0,60.0
3088,58.0,0,32,1.0,60.0
3089,43.0,0,32,1.0,60.0
3090,61.0,40,32,1.0,60.0
3091,58.0,0,32,1.0,60.0
3092,52.0,0,32,1.0,60.0
3093,64.0,8,92,0.0,63.0
3094,76.0,44,116,0.0,83.0
3095,52.0,0,32,1.0,60.0
3096,58.0,0,32,1.0,60.0
3097,61.0,48,32,1.0,60.0
3098,43.0,0,32,1.0,60.0
3099,43.0,40,32,1.0,60.0
3100,61.0,0,32,1.0,60.0
3101,52.0,0,32,1.0,60.0
3102,58.0,0,32,1.0,60.0
3103,75.0,0,116,0.0,81.0
3104,61.0,48,32,1.0,60.0
3105,52.0,0,32,1.0,60.0
3106,58.0,0,32,1.0,60.0
3107,43.0,0,32,1.0,60.0
3108,63.0,8,132,0.0,60.0
3109,43.0,0,32,1.0,60.0
3110,61.0,0,32,1.0,60.0
3111,58.0,36,32,1.0,60.0
3112,52.0,0,32,1.0,60.0
3113,61.0,8,76,0.0,56.0
3114,73.0,4,108,0.0,77.0
3115,52.0,0,32,1.0,60.0
3116,61.0,48,32,1.0,60.0
3117,43.0,0,32,1.0,60.0
3118,58.0,0,32,1.0,60.0
3119,52.0,0,32,1.0,60.0
3120,43.0,32,32,1.0,60.0
3121,61.0,0,32,1.0,60.0
3122,58.0,0,32,1.0,60.0
3123,71.0,4,108,0.0,81.0
3124,59.0,12,124,0.0,70.0
3125,58.0,80,32,1.0,60.0
3126,43.0,0,32,1.0,60.0
3127,61.0,0,32,1.0,60.0
3128,51.0,0,32,1.0,60.0
3129,61.0,0,32,1.0,60.0
3130,58.0,44,32,1.0,60.0
3131,51.0,0,32,1.0,60.0
3132,43.0,0,32,1.0,60.0
3133,70.0,0,100,0.0,78.0
3134,58.0,4,112,0.0,71.0
3135,51.0,0,32,1.0,60.0
3136,61.0,48,32,1.0,60.0
3137,43.0,0,32,1.0,60.0
3138,58.0,0,32,1.0,60.0
3139,58.0,20,32,1.0,60.0
3140,61.0,0,32,1.0,60.0
3141,43.0,0,32,1.0,60.0
3142,51.0,0,32,1.0,60.0
3143,59.0,16,76,0.0,71.0
3144,71.0,12,104,0.0,85.0
3145,43.0,0,32,1.0,60.0
3146,51.0,0,32,1.0,60.0
3147,61.0,48,32,1.0,60.0
3148,58.0,0,32,1.0,60.0
3149,43.0,0,32,1.0,60.0
3150,61.0,0,32,1.0,60.0
3151,58.0,28,32,1.0,60.0
3152,51.0,0,32,1.0,60.0
3153,70.0,8,88,0.0,81.0
3154,58.0,12,96,0.0,62.0
3155,51.0,0,32,1.0,60.0
3156,58.0,0,32,1.0,60.0
3157,61.0,48,32,1.0,60.0
3158,43.0,0,32,1.0,60.0
3159,43.0,0,32,1.0,60.0
3160,61.0,20,32,1.0,60.0
3161,58.0,0,32,1.0,60.0
3162,51.0,0,32,1.0,60.0
3163,69.0,20,92,0.0,80.0
3164,57.0,8,88,0.0,65.0
3165,43.0,0,32,1.0,60.0
3166,51.0,0,32,1.0,60.0
3167,58.0,48,32,1.0,60.0
3168,61.0,0,32,1.0,60.0
3169,61.0,0,32,1.0,60.0
3170,58.0,0,32,1.0,60.0
3171,51.0,24,32,1.0,60.0
3172,43.0,0,32,1.0,60.0
3173,70.0,12,80,0.0,74.0
3174,58.0,12,84,0.0,71.0
3175,43.0,0,32,1.0,60.0
3176,61.0,0,32,1.0,60.0
3177,58.0,48,32,1.0,60.0
3178,51.0,0,32,1.0,60.0
3179,43.0,0,32,1.0,60.0
3180,61.0,24,32,1.0,60.0
3181,58.0,0,32,1.0,60.0
3182,51.0,0,32,1.0,60.0
3183,61.0,48,32,1.0,60.0
3184,58.0,0,32,1.0,60.0
3185,51.0,0,32,1.0,60.0
3186,43.0,0,32,1.0,60.0
3187,71.0,16,140,0.0,83.0
3188,59.0,8,136,0.0,76.0
3189,61.0,0,32,1.0,60.0
3190,58.0,0,32,1.0,60.0
3191,51.0,0,32,1.0,60.0
3192,43.0,48,32,1.0,60.0
3193,43.0,0,32,1.0,60.0
3194,61.0,0,32,1.0,60.0
3195,58.0,44,32,1.0,60.0
3196,51.0,0,32,1.0,60.0
3197,61.0,0,32,1.0,60.0
3198,58.0,0,32,1.0,60.0
3199,43.0,48,32,1.0,60.0
3200,51.0,0,32,1.0,60.0
3201,63.0,0,140,0.0,65.0
3202,75.0,4,140,0.0,81.0
3203,43.0,0,32,1.0,60.0
3204,61.0,12,32,1.0,60.0
3205,58.0,0,32,1.0,60.0
3206,51.0,0,32,1.0,60.0
3207,58.0,0,32,1.0,60.0
3208,61.0,48,32,1.0,60.0
3209,51.0,0,32,1.0,60.0
3210,43.0,0,32,1.0,60.0
3211,61.0,8,92,0.0,67.0
3212,73.0,28,128,0.0,75.0
3213,43.0,0,32,1.0,60.0
3214,61.0,4,32,1.0,60.0
3215,58.0,0,32,1.0,60.0
3216,51.0,0,32,1.0,60.0
3217,43.0,0,32,1.0,60.0
3218,61.0,48,32,1.0,60.0
3219,58.0,0,32,1.0,60.0
3220,51.0,0,32,1.0,60.0
3221,59.0,0,108,0.0,70.0
3222,71.0,44,108,0.0,80.0
3223,51.0,0,32,1.0,60.0
3224,58.0,0,32,1.0,60.0
3225,61.0,0,32,1.0,60.0
3226,43.0,4,32,1.0,60.0
3227,43.0,0,32,1.0,60.0
3228,61.0,0,32,1.0,60.0
3229,58.0,0,32,1.0,60.0
3230,51.0,48,32,1.0,60.0
3231,70.0,40,96,0.0,80.0
3232,58.0,4,100,0.0,61.0
3233,43.0,4,32,1.0,60.0
3234,61.0,0,32,1.0,60.0
3235,51.0,0,32,1.0,60.0
3236,58.0,0,32,1.0,60.0
3237,68.0,0,80,0.0,73.0
3238,61.0,0,32,1.0,60.0
3239,58.0,0,32,1.0,60.0
3240,51.0,0,32,1.0,60.0
3241,43.0,48,32,1.0,60.0
3242,56.0,44,92,0.0,63.0
3243,51.0,0,32,1.0,60.0
3244,58.0,0,32,1.0,60.0
3245,43.0,0,32,1.0,60.0
3246,61.0,48,32,1.0,60.0
3247,43.0,0,32,1.0,60.0
3248,61.0,40,32,1.0,60.0
3249,58.0,0,32,1.0,60.0
3250,51.0,0,32,1.0,60.0
3251,67.0,8,88,0.0,74.0
3252,55.0,0,112,0.0,74.0
3253,43.0,0,32,1.0,60.0
3254,51.0,0,32,1.0,60.0
3255,61.0,48,32,1.0,60.0
3256,58.0,0,32,1.0,60.0
3257,43.0,0,32,1.0,60.0
3258,61.0,0,32,1.0,60.0
3259,58.0,0,32,1.0,60.0
3260,51.0,40,32,1.0,60.0
3261,56.0,4,88,0.0,79.0
3262,58.0,0,32,1.0,60.0
3263,51.0,48,32,1.0,60.0
3264,61.0,0,32,1.0,60.0
3265,43.0,0,32,1.0,60.0
3266,68.0,4,136,0.0,80.0
3267,61.0,0,32,1.0,60.0
3268,58.0,0,32,1.0,60.0
3269,51.0,0,32,1.0,60.0
3270,43.0,24,32,1.0,60.0
3271,70.0,20,96,0.0,75.0
3272,58.0,4,96,0.0,62.0
3273,58.0,0,32,1.0,60.0
3274,43.0,0,32,1.0,60.0
3275,61.0,0,32,1.0,60.0
3276,51.0,48,32,1.0,60.0
3277,51.0,20,32,1.0,60.0
3278,58.0,0,32,1.0,60.0
3279,43.0,0,32,1.0,60.0
3280,61.0,0,32,1.0,60.0
3281,61.0,20,100,0.0,70.0
3282,49.0,8,92,0.0,65.0
3283,43.0,48,32,1.0,60.0
3284,61.0,0,32,1.0,60.0
3285,58.0,0,32,1.0,60.0
3286,51.0,0,32,1.0,60.0
3287,43.0,0,32,1.0,60.0
3288,61.0,0,32,1.0,60.0
3289,58.0,0,32,1.0,60.0
3290,51.0,20,32,1.0,60.0
3291,63.0,4,92,0.0,71.0
3292,51.0,24,100,0.0,68.0
3293,61.0,48,32,1.0,60.0
3294,58.0,0,32,1.0,60.0
3295,51.0,0,32,1.0,60.0
3296,43.0,0,32,1.0,60.0
3297,43.0,0,32,1.0,60.0
3298,61.0,8,32,1.0,60.0
3299,58.0,0,32,1.0,60.0
3300,51.0,0,32,1.0,60.0
3301,43.0,0,32,1.0,60.0
3302,64.0,36,92,0.0,79.0
3303,61.0,48,32,1.0,60.0
3304,51.0,0,32,1.0,60.0
3305,58.0,0,32,1.0,60.0
3306,52.0,4,112,0.0,77.0
3307,58.0,0,32,1.0,60.0
3308,51.0,48,32,1.0,60.0
3309,43.0,0,32,1.0,60.0
3310,61.0,0,32,1.0,60.0
3311,43.0,0,32,1.0,60.0
3312,61.0,36,32,1.0,60.0
3313,58.0,0,32,1.0,60.0
3314,51.0,0,32,1.0,60.0
3315,58.0,4,108,0.0,75.0
3316,58.0,0,32,1.0,60.0
3317,51.0,0,32,1.0,60.0
3318,61.0,0,32,1.0,60.0
3319,43.0,48,32,1.0,60.0
3320,46.0,8,120,0.0,69.0
3321,43.0,0,32,1.0,60.0
3322,58.0,24,32,1.0,60.0
3323,51.0,0,32,1.0,60.0
3324,61.0,0,32,1.0,60.0
3325,64.0,24,100,0.0,83.0
3326,52.0,0,104,0.0,74.0
3327,43.0,0,32,1.0,60.0
3328,61.0,48,32,1.0,60.0
3329,51.0,0,32,1.0,60.0
3330,58.0,0,32,1.0,60.0
3331,43.0,0,32,1.0,60.0
3332,61.0,4,32,1.0,60.0
3333,58.0,0,32,1.0,60.0
3334,51.0,0,32,1.0,60.0
3335,51.0,0,32,1.0,60.0
3336,43.0,0,32,1.0,60.0
3337,61.0,44,32,1.0,60.0
3338,58.0,0,32,1.0,60.0
3339,43.0,0,32,1.0,60.0
3340,61.0,48,32,1.0,60.0
3341,58.0,0,32,1.0,60.0
3342,51.0,0,32,1.0,60.0
3343,58.0,0,32,1.0,60.0
3344,61.0,0,32,1.0,60.0
3345,51.0,0,32,1.0,60.0
3346,43.0,48,32,1.0,60.0
3347,58.0,0,32,1.0,60.0
3348,51.0,0,32,1.0,60.0
3349,43.0,0,32,1.0,60.0
3350,61.0,48,32,1.0,60.0
3351,51.0,4,240,0.0,78.0
3352,51.0,0,32,1.0,60.0
3353,61.0,0,32,1.0,60.0
3354,58.0,0,32,1.0,60.0
3355,43.0,48,32,1.0,60.0
3356,61.0,48,32,1.0,60.0
3357,63.0,44,324,0.0,78.0
3358,43.0,0,32,1.0,60.0
3359,51.0,0,32,1.0,60.0
3360,58.0,0,32,1.0,60.0
3361,43.0,0,32,1.0,60.0
3362,51.0,48,32,1.0,60.0
3363,58.0,0,32,1.0,60.0
3364,61.0,0,32,1.0,60.0
3365,61.0,0,48,0.0,77.0
3366,49.0,4,44,0.0,85.0
3367,42.0,76,32,1.0,60.0
3368,57.0,0,32,1.0,60.0
3369,51.0,0,32,1.0,60.0
3370,61.0,0,32,1.0,60.0
3371,51.0,36,32,1.0,60.0
3372,42.0,0,32,1.0,60.0
3373,61.0,0,32,1.0,60.0
3374,57.0,0,32,1.0,60.0
3375,42.0,0,32,1.0,60.0
3376,57.0,0,32,1.0,60.0
3377,51.0,0,32,1.0,60.0
3378,61.0,48,32,1.0,60.0
3379,51.0,0,32,1.0,60.0
3380,57.0,0,32,1.0,60.0
3381,42.0,0,32,1.0,60.0
3382,61.0,48,32,1.0,60.0
3383,42.0,48,32,1.0,60.0
3384,61.0,0,32,1.0,60.0
3385,57.0,0,32,1.0,60.0
3386,51.0,0,32,1.0,60.0
3387,42.0,0,32,1.0,60.0
3388,61.0,0,32,1.0,60.0
3389,57.0,48,32,1.0,60.0
3390,51.0,0,32,1.0,60.0
3391,54.0,0,280,4.0,85.0
3392,42.0,0,32,1.0,60.0
3393,61.0,0,32,1.0,60.0
3394,57.0,48,32,1.0,60.0
3395,51.0,0,32,1.0,60.0
3396,42.0,0,32,1.0,60.0
3397,61.0,0,32,1.0,60.0
3398,57.0,0,32,1.0,60.0
3399,51.0,48,32,1.0,60.0
3400,42.0,0,32,1.0,60.0
3401,61.0,48,32,1.0,60.0
3402,57.0,0,32,1.0,60.0
3403,51.0,0,32,1.0,60.0
3404,49.0,12,408,0.0,79.0
3405,61.0,0,424,0.0,88.0
3406,60.0,0,32,1.0,60.0
3407,51.0,0,32,1.0,60.0
3408,57.0,0,32,1.0,60.0
3409,42.0,12,32,1.0,60.0
3410,42.0,0,32,1.0,60.0
3411,60.0,44,32,1.0,60.0
3412,57.0,0,32,1.0,60.0
3413,51.0,0,32,1.0,60.0
3414,57.0,0,32,1.0,60.0
3415,51.0,0,32,1.0,60.0
3416,42.0,0,32,1.0,60.0
3417,60.0,48,32,1.0,60.0
3418,42.0,0,32,1.0,60.0
3419,60.0,48,32,1.0,60.0
3420,57.0,0,32,1.0,60.0
3421,51.0,0,32,1.0,60.0
3422,48.0,4,200,0.0,76.0
3423,60.0,36,216,0.0,83.0
3424,42.0,16,32,1.0,60.0
3425,60.0,0,32,1.0,60.0
3426,57.0,0,32,1.0,60.0
3427,51.0,0,32,1.0,60.0
3428,54.0,0,280,4.0,85.0
3429,42.0,0,32,1.0,60.0
3430,60.0,0,32,1.0,60.0
3431,51.0,0,32,1.0,60.0
3432,57.0,48,32,1.0,60.0
3433,51.0,32,116,0.0,69.0
3434,63.0,0,128,0.0,72.0
3435,42.0,0,32,1.0,60.0
3436,60.0,0,32,1.0,60.0
3437,57.0,28,32,1.0,60.0
3438,51.0,0,32,1.0,60.0
3439,66.0,12,100,0.0,71.0
3440,54.0,8,96,0.0,58.0
3441,51.0,0,32,1.0,60.0
3442,57.0,0,32,1.0,60.0
3443,42.0,0,32,1.0,60.0
3444,60.0,12,32,1.0,60.0
3445,69.0,0,80,0.0,76.0
3446,57.0,36,84,0.0,66.0
3447,51.0,0,32,1.0,60.0
3448,57.0,0,32,1.0,60.0
3449,60.0,48,32,1.0,60.0
3450,42.0,0,32,1.0,60.0
3451,60.0,12,44,0.0,58.0
3452,51.0,0,32,1.0,60.0
3453,57.0,0,32,1.0,60.0
3454,60.0,0,32,1.0,60.0
3455,42.0,36,32,1.0,60.0
3456,72.0,0,68,0.0,86.0
3457,42.0,0,32,1.0,60.0
3458,60.0,16,32,1.0,60.0
3459,57.0,0,32,1.0,60.0
3460,51.0,0,32,1.0,60.0
3461,63.0,32,64,0.0,61.0
3462,75.0,0,80,0.0,77.0
3463,42.0,0,32,1.0,60.0
3464,60.0,48,32,1.0,60.0
3465,57.0,0,32,1.0,60.0
3466,51.0,0,32,1.0,60.0
3467,66.0,0,72,0.0,67.0
3468,57.0,0,32,1.0,60.0
3469,60.0,48,32,1.0,60.0
3470,51.0,0,32,1.0,60.0
3471,42.0,0,32,1.0,60.0
3472,78.0,0,92,0.0,71.0
3473,57.0,0,32,1.0,60.0
3474,60.0,16,32,1.0,60.0
3475,42.0,0,32,1.0,60.0
3476,51.0,0,32,1.0,60.0
3477,42.0,0,32,1.0,60.0
3478,60.0,48,32,1.0,60.0
3479,57.0,0,32,1.0,60.0
3480,51.0,0,32,1.0,60.0
3481,60.0,0,32,1.0,60.0
3482,57.0,0,32,1.0,60.0
3483,51.0,48,32,1.0,60.0
3484,42.0,0,32,1.0,60.0
3485,42.0,0,32,1.0,60.0
3486,60.0,48,32,1.0,60.0
3487,57.0,0,32,1.0,60.0
3488,51.0,0,32,1.0,60.0
3489,42.0,48,32,1.0,60.0
3490,60.0,0,32,1.0,60.0
3491,57.0,0,32,1.0,60.0
3492,51.0,0,32,1.0,60.0
3493,54.0,0,280,4.0,85.0
3494,42.0,48,32,1.0,60.0
3495,60.0,0,32,1.0,60.0
3496,57.0,0,32,1.0,60.0
3497,51.0,0,32,1.0,60.0
3498,81.0,0,304,0.0,92.0
3499,69.0,32,324,0.0,79.0
3500,51.0,0,32,1.0,60.0
3501,42.0,0,32,1.0,60.0
3502,57.0,4,32,1.0,60.0
3503,60.0,0,32,1.0,60.0
3504,42.0,48,32,1.0,60.0
3505,60.0,0,32,1.0,60.0
3506,57.0,0,32,1.0,60.0
3507,51.0,0,32,1.0,60.0
3508,68.0,20,128,0.0,60.0
3509,80.0,24,148,0.0,84.0
3510,42.0,0,32,1.0,60.0
3511,57.0,0,32,1.0,60.0
3512,60.0,48,32,1.0,60.0
3513,51.0,0,32,1.0,60.0
3514,60.0,20,32,1.0,60.0
3515,42.0,0,32,1.0,60.0
3516,51.0,0,32,1.0,60.0
3517,57.0,0,32,1.0,60.0
3518,66.0,12,92,0.0,58.0
3519,60.0,0,32,1.0,60.0
3520,51.0,0,32,1.0,60.0
3521,57.0,48,32,1.0,60.0
3522,42.0,0,32,1.0,60.0
3523,78.0,16,116,0.0,77.0
3524,51.0,48,32,1.0,60.0
3525,57.0,0,32,1.0,60.0
3526,60.0,0,32,1.0,60.0
3527,42.0,0,32,1.0,60.0
3528,64.0,8,68,0.0,62.0
3529,42.0,0,32,1.0,60.0
3530,60.0,0,32,1.0,60.0
3531,57.0,0,32,1.0,60.0
3532,51.0,36,32,1.0,60.0
3533,76.0,4,92,0.0,84.0
3534,57.0,0,32,1.0,60.0
3535,42.0,0,32,1.0,60.0
3536,60.0,48,32,1.0,60.0
3537,51.0,0,32,1.0,60.0
3538,42.0,0,32,1.0,60.0
3539,60.0,8,32,1.0,60.0
3540,57.0,0,32,1.0,60.0
3541,51.0,0,32,1.0,60.0
3542,75.0,28,80,0.0,75.0
3543,63.0,12,72,0.0,62.0
3544,42.0,0,32,1.0,60.0
3545,51.0,48,32,1.0,60.0
3546,57.0,0,32,1.0,60.0
3547,60.0,0,32,1.0,60.0
3548,51.0,48,32,1.0,60.0
3549,57.0,0,32,1.0,60.0
3550,60.0,0,32,1.0,60.0
3551,42.0,0,32,1.0,60.0
3552,54.0,0,280,4.0,85.0
3553,42.0,0,32,1.0,60.0
3554,60.0,24,32,1.0,60.0
3555,57.0,0,32,1.0,60.0
3556,51.0,0,32,1.0,60.0
3557,61.0,12,84,0.0,61.0
3558,42.0,48,32,1.0,60.0
3559,57.0,0,32,1.0,60.0
3560,51.0,0,32,1.0,60.0
3561,60.0,0,32,1.0,60.0
3562,73.0,12,120,0.0,77.0
3563,57.0,0,32,1.0,60.0
3564,60.0,0,32,1.0,60.0
3565,42.0,0,32,1.0,60.0
3566,51.0,48,32,1.0,60.0
3567,60.0,0,32,1.0,60.0
3568,42.0,0,32,1.0,60.0
3569,57.0,36,32,1.0,60.0
3570,51.0,0,32,1.0,60.0
3571,60.0,8,104,0.0,69.0
3572,42.0,0,24,1.0,60.0
3573,60.0,0,24,1.0,60.0
3574,57.0,0,24,1.0,60.0
3575,51.0,48,24,1.0,60.0
3576,72.0,4,128,0.0,88.0
3577,42.0,40,32,1.0,60.0
3578,57.0,0,32,1.0,60.0
3579,60.0,0,32,1.0,60.0
3580,51.0,0,32,1.0,60.0
3581,61.0,24,32,1.0,70.0
3582,40.0,0,32,1.0,70.0
3583,56.0,0,32,1.0,70.0
3584,52.0,0,32,1.0,70.0
3585,40.0,0,32,1.0,70.0
3586,61.0,36,32,1.0,70.0
3587,52.0,0,32,1.0,70.0
3588,56.0,0,32,1.0,70.0
3589,56.0,48,32,1.0,70.0
3590,40.0,0,32,1.0,70.0
3591,61.0,0,32,1.0,70.0
3592,52.0,0,32,1.0,70.0
3593,61.0,48,32,1.0,70.0
3594,40.0,0,32,1.0,70.0
3595,56.0,0,32,1.0,70.0
3596,52.0,0,32,1.0,70.0
3597,56.0,0,32,1.0,70.0
3598,40.0,48,32,1.0,70.0
3599,61.0,0,32,1.0,70.0
3600,52.0,0,32,1.0,70.0
3601,56.0,0,32,1.0,70.0
3602,40.0,0,32,1.0,70.0
3603,61.0,0,32,1.0,70.0
3604,52.0,48,32,1.0,70.0
3605,52.0,0,280,4.0,85.0
3606,40.0,0,32,1.0,70.0
3607,61.0,48,32,1.0,70.0
3608,56.0,0,32,1.0,70.0
3609,52.0,0,32,1.0,70.0
3610,40.0,0,32,1.0,70.0
3611,61.0,48,32,1.0,70.0
3612,56.0,0,32,1.0,70.0
3613,52.0,0,32,1.0,70.0
3614,40.0,0,32,1.0,70.0
3615,61.0,48,32,1.0,70.0
3616,56.0,0,32,1.0,70.0
3617,52.0,0,32,1.0,70.0
3618,61.0,48,32,1.0,70.0
3619,56.0,0,32,1.0,70.0
3620,52.0,0,32,1.0,70.0
3621,40.0,0,32,1.0,70.0
3622,52.0,0,32,1.0,70.0
3623,61.0,48,32,1.0,70.0
3624,40.0,0,32,1.0,70.0
3625,56.0,0,32,1.0,70.0
3626,40.0,48,32,1.0,70.0
3627,61.0,0,32,1.0,70.0
3628,56.0,0,32,1.0,70.0
3629,52.0,0,32,1.0,70.0
3630,75.0,8,556,0.0,85.0
3631,63.0,4,556,0.0,68.0
3632,52.0,0,32,1.0,70.0
3633,56.0,16,32,1.0,70.0
3634,61.0,0,32,1.0,70.0
3635,61.0,0,32,1.0,70.0
3636,56.0,48,32,1.0,70.0
3637,52.0,0,32,1.0,70.0
3638,52.0,0,32,1.0,70.0
3639,56.0,48,32,1.0,70.0
3640,61.0,0,32,1.0,70.0
3641,52.0,0,32,1.0,70.0
3642,56.0,0,32,1.0,70.0
3643,61.0,48,32,1.0,70.0
3644,56.0,0,32,1.0,70.0
3645,61.0,48,32,1.0,70.0
3646,52.0,0,32,1.0,70.0
3647,52.0,0,32,1.0,70.0
3648,56.0,0,32,1.0,70.0
3649,61.0,48,32,1.0,70.0
3650,61.0,28,296,0.0,58.0
3651,73.0,4,316,0.0,69.0
3652,61.0,48,32,1.0,70.0
3653,52.0,0,32,1.0,70.0
3654,56.0,0,32,1.0,70.0
3655,52.0,48,32,1.0,70.0
3656,56.0,0,32,1.0,70.0
3657,61.0,0,32,1.0,70.0
3658,52.0,0,32,1.0,70.0
3659,56.0,0,32,1.0,70.0
3660,61.0,0,32,1.0,70.0
3661,61.0,0,32,1.0,70.0
3662,56.0,28,32,1.0,70.0
3663,52.0,0,32,1.0,70.0
3664,61.0,0,32,1.0,70.0
3665,56.0,0,32,1.0,70.0
3666,52.0,48,32,1.0,70.0
3667,68.0,48,144,0.0,77.0
3668,56.0,20,128,0.0,64.0
3669,54.0,0,32,1.0,75.0
3670,56.0,0,32,1.0,75.0
3671,48.0,0,32,1.0,75.0
3672,63.0,64,32,1.0,75.0
3673,56.0,44,32,1.0,75.0
3674,54.0,0,32,1.0,75.0
3675,63.0,0,32,1.0,75.0
3676,48.0,0,32,1.0,75.0
3677,54.0,0,32,1.0,75.0
3678,56.0,0,32,1.0,75.0
3679,63.0,0,32,1.0,75.0
3680,48.0,48,32,1.0,75.0
3681,48.0,48,32,1.0,75.0
3682,63.0,0,32,1.0,75.0
3683,56.0,0,32,1.0,75.0
3684,54.0,0,32,1.0,75.0
3685,63.0,48,32,1.0,75.0
3686,48.0,0,32,1.0,75.0
3687,56.0,0,32,1.0,75.0
3688,54.0,0,32,1.0,75.0
3689,54.0,0,32,1.0,75.0
3690,48.0,48,32,1.0,75.0
3691,63.0,0,32,1.0,75.0
3692,56.0,0,32,1.0,75.0
3693,48.0,0,280,4.0,85.0
3694,56.0,0,32,1.0,75.0
3695,48.0,0,32,1.0,75.0
3696,54.0,48,32,1.0,75.0
3697,63.0,0,32,1.0,75.0
3698,54.0,0,32,1.0,75.0
3699,56.0,0,32,1.0,75.0
3700,63.0,48,32,1.0,75.0
3701,48.0,0,32,1.0,75.0
3702,56.0,0,32,1.0,75.0
3703,54.0,48,32,1.0,75.0
3704,63.0,0,32,1.0,75.0
3705,48.0,0,32,1.0,75.0
3706,64.0,0,428,0.0,77.0
3707,76.0,4,448,0.0,89.0
3708,63.0,48,32,1.0,75.0
3709,54.0,0,32,1.0,75.0
3710,56.0,0,32,1.0,75.0
3711,48.0,0,32,1.0,75.0
3712,63.0,4,64,0.0,65.0
3713,54.0,44,32,1.0,75.0
3714,56.0,0,32,1.0,75.0
3715,63.0,0,32,1.0,75.0
3716,48.0,0,32,1.0,75.0
3717,75.0,0,88,0.0,76.0
3718,63.0,0,32,1.0,75.0
3719,48.0,0,32,1.0,75.0
3720,56.0,0,32,1.0,75.0
3721,54.0,0,32,1.0,75.0
3722,64.0,48,64,0.0,72.0
3723,76.0,0,80,0.0,79.0
3724,48.0,0,32,1.0,75.0
3725,63.0,0,32,1.0,75.0
3726,56.0,0,32,1.0,75.0
3727,54.0,48,32,1.0,75.0
3728,63.0,0,60,0.0,55.0
3729,75.0,16,60,0.0,67.0
3730,54.0,32,32,1.0,75.0
3731,48.0,0,32,1.0,75.0
3732,63.0,0,32,1.0,75.0
3733,56.0,0,32,1.0,75.0
3734,54.0,0,32,1.0,75.0
3735,56.0,0,32,1.0,75.0
3736,63.0,0,32,1.0,75.0
3737,48.0,28,32,1.0,75.0
3738,73.0,0,76,0.0,70.0
3739,61.0,20,80,0.0,58.0
3740,48.0,0,32,1.0,75.0
3741,63.0,12,32,1.0,75.0
3742,56.0,0,32,1.0,75.0
3743,54.0,0,32,1.0,75.0
3744,63.0,0,60,0.0,57.0
3745,75.0,36,84,0.0,71.0
3746,48.0,0,32,1.0,75.0
3747,63.0,48,32,1.0,75.0
3748,56.0,0,32,1.0,75.0
3749,54.0,0,32,1.0,75.0
3750,48.0,40,32,1.0,75.0
3751,54.0,0,32,1.0,75.0
3752,56.0,0,32,1.0,75.0
3753,63.0,0,32,1.0,75.0
3754,76.0,0,80,0.0,76.0
3755,64.0,8,84,0.0,71.0
3756,48.0,0,32,1.0,75.0
3757,63.0,44,32,1.0,75.0
3758,56.0,0,32,1.0,75.0
3759,54.0,0,32,1.0,75.0
3760,66.0,4,80,0.0,65.0
3761,78.0,0,92,0.0,78.0
3762,54.0,0,32,1.0,75.0
3763,56.0,16,32,1.0,75.0
3764,63.0,0,32,1.0,75.0
3765,48.0,0,32,1.0,75.0
3766,48.0,48,32,1.0,75.0
3767,63.0,0,32,1.0,75.0
3768,56.0,0,32,1.0,75.0
3769,54.0,0,32,1.0,75.0
3770,48.0,0,32,1.0,75.0
3771,63.0,0,32,1.0,75.0
3772,56.0,48,32,1.0,75.0
3773,54.0,0,32,1.0,75.0
3774,48.0,0,32,1.0,75.0
3775,54.0,0,32,1.0,75.0
3776,56.0,0,32,1.0,75.0
3777,63.0,48,32,1.0,75.0
3778,48.0,0,32,1.0,75.0
3779,56.0,0,32,1.0,75.0
3780,54.0,48,32,1.0,75.0
3781,63.0,0,32,1.0,75.0
3782,68.0,32,264,0.0,73.0
3783,54.0,48,32,1.0,75.0
3784,48.0,0,32,1.0,75.0
3785,63.0,0,32,1.0,75.0
3786,56.0,0,32,1.0,75.0
3787,54.0,0,32,1.0,75.0
3788,56.0,48,32,1.0,75.0
3789,48.0,0,32,1.0,75.0
3790,63.0,0,32,1.0,75.0
3791,80.0,0,368,0.0,82.0
3792,56.0,0,32,1.0,75.0
3793,63.0,16,32,1.0,75.0
3794,48.0,0,32,1.0,75.0
3795,54.0,0,32,1.0,75.0
3796,75.0,0,88,0.0,82.0
3797,63.0,32,108,0.0,71.0
3798,56.0,0,32,1.0,75.0
3799,64.0,0,32,1.0,75.0
3800,49.0,16,32,1.0,75.0
3801,52.0,0,32,1.0,75.0
3802,49.0,0,32,1.0,75.0
3803,64.0,0,32,1.0,75.0
3804,56.0,48,32,1.0,75.0
3805,52.0,0,32,1.0,75.0
3806,49.0,0,32,1.0,75.0
3807,64.0,0,32,1.0,75.0
3808,56.0,0,32,1.0,75.0
3809,52.0,48,32,1.0,75.0
3810,56.0,0,32,1.0,75.0
3811,52.0,0,32,1.0,75.0
3812,49.0,0,32,1.0,75.0
3813,64.0,48,32,1.0,75.0
3814,49.0,48,32,1.0,75.0
3815,64.0,0,32,1.0,75.0
3816,56.0,0,32,1.0,75.0
3817,52.0,0,32,1.0,75.0
3818,49.0,0,280,4.0,86.0
3819,64.0,0,32,1.0,75.0
3820,56.0,0,32,1.0,75.0
3821,52.0,0,32,1.0,75.0
3822,49.0,48,32,1.0,75.0
3823,49.0,0,32,1.0,75.0
3824,64.0,48,32,1.0,75.0
3825,56.0,0,32,1.0,75.0
3826,52.0,0,32,1.0,75.0
3827,52.0,0,32,1.0,75.0
3828,56.0,0,32,1.0,75.0
3829,49.0,0,32,1.0,75.0
3830,64.0,48,32,1.0,75.0
3831,56.0,0,32,1.0,75.0
3832,52.0,0,32,1.0,75.0
3833,49.0,48,32,1.0,75.0
3834,64.0,0,32,1.0,75.0
3835,49.0,0,32,1.0,75.0
3836,64.0,48,32,1.0,75.0
3837,56.0,0,32,1.0,75.0
3838,52.0,0,32,1.0,75.0
3839,49.0,48,32,1.0,75.0
3840,64.0,0,32,1.0,75.0
3841,56.0,0,32,1.0,75.0
3842,52.0,0,32,1.0,75.0
3843,64.0,0,32,1.0,75.0
3844,49.0,0,32,1.0,75.0
3845,56.0,0,32,1.0,75.0
3846,52.0,48,32,1.0,75.0
3847,78.0,72,600,0.0,80.0
3848,64.0,0,32,1.0,75.0
3849,56.0,0,32,1.0,75.0
3850,52.0,0,32,1.0,75.0
3851,49.0,48,32,1.0,75.0
3852,66.0,0,608,0.0,74.0
3853,64.0,24,32,1.0,75.0
3854,52.0,0,32,1.0,75.0
3855,56.0,0,32,1.0,75.0
3856,49.0,0,32,1.0,75.0
3857,56.0,48,32,1.0,75.0
3858,49.0,0,32,1.0,75.0
3859,64.0,0,32,1.0,75.0
3860,52.0,0,32,1.0,75.0
3861,56.0,48,32,1.0,75.0
3862,52.0,0,32,1.0,75.0
3863,49.0,0,32,1.0,75.0
3864,64.0,0,32,1.0,75.0
3865,52.0,0,32,1.0,75.0
3866,64.0,48,32,1.0,75.0
3867,56.0,0,32,1.0,75.0
3868,49.0,0,32,1.0,75.0
3869,64.0,0,32,1.0,75.0
3870,49.0,48,32,1.0,75.0
3871,52.0,0,32,1.0,75.0
3872,56.0,0,32,1.0,75.0
3873,52.0,0,32,1.0,75.0
3874,56.0,0,32,1.0,75.0
3875,64.0,0,32,1.0,75.0
3876,49.0,48,32,1.0,75.0
3877,64.0,4,300,0.0,61.0
3878,56.0,0,32,1.0,75.0
3879,49.0,48,32,1.0,75.0
3880,64.0,0,32,1.0,75.0
3881,52.0,0,32,1.0,75.0
3882,76.0,20,392,0.0,68.0
3883,52.0,0,32,1.0,75.0
3884,56.0,0,32,1.0,75.0
3885,64.0,0,32,1.0,75.0
3886,49.0,48,32,1.0,75.0
3887,52.0,48,32,1.0,75.0
3888,56.0,0,32,1.0,75.0
3889,64.0,0,32,1.0,75.0
3890,49.0,0,32,1.0,75.0
3891,49.0,48,32,1.0,75.0
3892,64.0,0,32,1.0,75.0
3893,56.0,0,32,1.0,75.0
3894,52.0,0,32,1.0,75.0
3895,52.0,0,32,1.0,75.0
3896,56.0,0,32,1.0,75.0
3897,64.0,0,32,1.0,75.0
3898,49.0,48,32,1.0,75.0
3899,49.0,0,32,1.0,80.0
3900,64.0,0,32,1.0,80.0
3901,56.0,0,32,1.0,80.0
3902,58.0,48,32,1.0,80.0
3903,67.0,0,68,0.0,63.0
3904,58.0,0,32,1.0,80.0
3905,56.0,0,32,1.0,80.0
3906,64.0,0,32,1.0,80.0
3907,49.0,48,32,1.0,80.0
3908,79.0,0,104,0.0,81.0
3909,49.0,0,32,1.0,80.0
3910,58.0,0,32,1.0,80.0
3911,56.0,0,32,1.0,80.0
3912,64.0,12,32,1.0,80.0
3913,68.0,20,92,0.0,59.0
3914,56.0,0,32,1.0,80.0
3915,49.0,4,32,1.0,80.0
3916,58.0,0,32,1.0,80.0
3917,80.0,16,92,0.0,83.0
3918,64.0,0,32,1.0,80.0
3919,70.0,44,80,0.0,60.0
3920,56.0,0,32,1.0,80.0
3921,58.0,0,32,1.0,80.0
3922,49.0,0,32,1.0,80.0
3923,64.0,40,32,1.0,80.0
3924,82.0,8,96,0.0,71.0
3925,64.0,0,32,1.0,80.0
3926,49.0,0,32,1.0,80.0
3927,56.0,4,32,1.0,80.0
3928,58.0,0,32,1.0,80.0
3929,83.0,36,56,0.0,86.0
3930,71.0,8,72,0.0,65.0
3931,58.0,0,32,1.0,80.0
3932,49.0,48,32,1.0,80.0
3933,64.0,0,32,1.0,80.0
3934,56.0,0,32,1.0,80.0
3935,58.0,0,32,1.0,80.0
3936,56.0,0,32,1.0,80.0
3937,64.0,0,32,1.0,80.0
3938,49.0,28,32,1.0,80.0
3939,70.0,12,68,0.0,64.0
3940,82.0,8,108,0.0,69.0
3941,49.0,4,32,1.0,80.0
3942,56.0,0,32,1.0,80.0
3943,58.0,0,32,1.0,80.0
3944,64.0,0,32,1.0,80.0
3945,49.0,0,32,1.0,80.0
3946,64.0,44,32,1.0,80.0
3947,56.0,0,32,1.0,80.0
3948,58.0,0,32,1.0,80.0
3949,71.0,4,80,0.0,68.0
3950,83.0,44,88,0.0,85.0
3951,64.0,0,32,1.0,80.0
3952,56.0,0,32,1.0,80.0
3953,58.0,20,32,1.0,80.0
3954,49.0,0,32,1.0,80.0
3955,73.0,4,84,0.0,71.0
3956,85.0,24,100,0.0,65.0
3957,64.0,48,32,1.0,80.0
3958,49.0,0,32,1.0,80.0
3959,56.0,0,32,1.0,80.0
3960,58.0,0,32,1.0,80.0
3961,49.0,0,32,1.0,80.0
3962,64.0,32,32,1.0,80.0
3963,58.0,0,32,1.0,80.0
3964,56.0,0,32,1.0,80.0
3965,87.0,0,88,0.0,69.0
3966,75.0,16,80,0.0,77.0
3967,49.0,0,32,1.0,80.0
3968,64.0,16,32,1.0,80.0
3969,56.0,0,32,1.0,80.0
3970,58.0,0,32,1.0,80.0
3971,49.0,0,32,1.0,80.0
3972,56.0,48,32,1.0,80.0
3973,58.0,0,32,1.0,80.0
3974,64.0,0,32,1.0,80.0
3975,58.0,0,32,1.0,80.0
3976,56.0,0,32,1.0,80.0
3977,64.0,48,32,1.0,80.0
3978,49.0,0,32,1.0,80.0
3979,49.0,0,32,1.0,80.0
3980,64.0,0,32,1.0,80.0
3981,56.0,0,32,1.0,80.0
3982,58.0,48,32,1.0,80.0
3983,58.0,0,32,1.0,80.0
3984,56.0,0,32,1.0,80.0
3985,64.0,0,32,1.0,80.0
3986,49.0,48,32,1.0,80.0
3987,64.0,48,32,1.0,80.0
3988,49.0,0,32,1.0,80.0
3989,58.0,0,32,1.0,80.0
3990,56.0,0,32,1.0,80.0
3991,64.0,48,32,1.0,80.0
3992,56.0,0,32,1.0,80.0
3993,58.0,0,32,1.0,80.0
3994,49.0,0,32,1.0,80.0
3995,58.0,0,32,1.0,80.0
3996,56.0,0,32,1.0,80.0
3997,64.0,48,32,1.0,80.0
3998,49.0,0,32,1.0,80.0
3999,88.0,32,424,0.0,97.0
4000,76.0,0,412,0.0,85.0
4001,49.0,0,32,1.0,80.0
4002,64.0,48,32,1.0,80.0
4003,56.0,0,32,1.0,80.0
4004,58.0,0,32,1.0,80.0
4005,58.0,0,32,1.0,80.0
4006,56.0,12,32,1.0,80.0
4007,64.0,0,32,1.0,80.0
4008,49.0,0,32,1.0,80.0
4009,49.0,0,32,1.0,80.0
4010,64.0,0,32,1.0,80.0
4011,56.0,48,32,1.0,80.0
4012,58.0,0,32,1.0,80.0
4013,67.0,0,92,0.0,75.0
4014,79.0,36,120,0.0,79.0
4015,59.0,0,32,1.0,90.0
4016,56.0,0,32,1.0,90.0
4017,65.0,0,32,1.0,90.0
4018,50.0,0,32,1.0,90.0
4019,59.0,0,32,1.0,90.0
4020,65.0,0,32,1.0,90.0
4021,50.0,48,32,1.0,90.0
4022,56.0,0,32,1.0,90.0
4023,65.0,0,32,1.0,90.0
4024,50.0,0,32,1.0,90.0
4025,59.0,48,32,1.0,90.0
4026,56.0,0,32,1.0,90.0
4027,50.0,0,32,1.0,90.0
4028,65.0,48,32,1.0,90.0
4029,56.0,0,32,1.0,90.0
4030,59.0,0,32,1.0,90.0
4031,50.0,48,32,1.0,90.0
4032,65.0,0,32,1.0,90.0
4033,56.0,0,32,1.0,90.0
4034,59.0,0,32,1.0,90.0
4035,59.0,0,32,1.0,90.0
4036,56.0,0,32,1.0,90.0
4037,65.0,48,32,1.0,90.0
4038,50.0,0,32,1.0,90.0
4039,59.0,0,32,1.0,90.0
4040,56.0,0,32,1.0,90.0
4041,65.0,0,32,1.0,90.0
4042,50.0,48,32,1.0,90.0
4043,50.0,0,32,1.0,90.0
4044,56.0,48,32,1.0,90.0
4045,59.0,0,32,1.0,90.0
4046,65.0,0,32,1.0,90.0
4047,80.0,44,400,0.0,95.0
4048,68.0,0,412,0.0,83.0
4049,50.0,0,32,1.0,90.0
4050,65.0,48,32,1.0,90.0
4051,56.0,0,32,1.0,90.0
4052,59.0,0,32,1.0,90.0
4053,50.0,0,32,1.0,90.0
4054,65.0,0,32,1.0,90.0
4055,56.0,48,32,1.0,90.0
4056,59.0,0,32,1.0,90.0
4057,56.0,0,32,1.0,90.0
4058,65.0,48,32,1.0,90.0
4059,59.0,0,32,1.0,90.0
4060,50.0,0,32,1.0,90.0
4061,50.0,0,32,1.0,90.0
4062,65.0,48,32,1.0,90.0
4063,56.0,0,32,1.0,90.0
4064,59.0,0,32,1.0,90.0
4065,50.0,48,32,1.0,90.0
4066,65.0,0,32,1.0,90.0
4067,59.0,0,32,1.0,90.0
4068,56.0,0,32,1.0,90.0
4069,50.0,0,32,1.0,90.0
4070,65.0,4,32,1.0,90.0
4071,59.0,0,32,1.0,90.0
4072,56.0,0,32,1.0,90.0
4073,59.0,0,32,1.0,90.0
4074,56.0,0,32,1.0,90.0
4075,65.0,0,32,1.0,90.0
4076,50.0,48,32,1.0,90.0
4077,56.0,0,32,1.0,90.0
4078,50.0,48,32,1.0,90.0
4079,65.0,0,32,1.0,90.0
4080,59.0,0,32,1.0,90.0
4081,56.0,0,32,1.0,90.0
4082,59.0,0,32,1.0,90.0
4083,65.0,0,32,1.0,90.0
4084,50.0,48,32,1.0,90.0
4085,50.0,0,204,4.0,80.0
4086,50.0,0,32,1.0,90.0
4087,59.0,0,32,1.0,90.0
4088,65.0,48,32,1.0,90.0
4089,56.0,0,32,1.0,90.0
4090,50.0,0,32,1.0,90.0
4091,65.0,48,32,1.0,90.0
4092,56.0,0,32,1.0,90.0
4093,59.0,0,32,1.0,90.0
4094,59.0,0,32,1.0,90.0
4095,56.0,48,32,1.0,90.0
4096,50.0,0,32,1.0,90.0
4097,65.0,0,32,1.0,90.0
4098,50.0,0,32,1.0,90.0
4099,56.0,48,32,1.0,90.0
4100,59.0,0,32,1.0,90.0
4101,65.0,0,32,1.0,90.0
4102,50.0,0,32,1.0,90.0
4103,65.0,40,32,1.0,90.0
4104,56.0,0,32,1.0,90.0
4105,59.0,0,32,1.0,90.0
4106,83.0,8,432,0.0,77.0
4107,95.0,36,444,0.0,99.0
4108,50.0,8,100,4.0,80.0
4109,50.0,0,32,1.0,90.0
4110,65.0,48,32,1.0,90.0
4111,56.0,0,32,1.0,90.0
4112,59.0,0,32,1.0,90.0
4113,59.0,0,32,1.0,90.0
4114,56.0,0,32,1.0,90.0
4115,65.0,48,32,1.0,90.0
4116,50.0,0,32,1.0,90.0
4117,50.0,0,32,1.0,90.0
4118,65.0,0,32,1.0,90.0
4119,56.0,44,32,1.0,90.0
4120,59.0,0,32,1.0,90.0
4121,59.0,0,32,1.0,90.0
4122,65.0,48,32,1.0,90.0
4123,56.0,0,32,1.0,90.0
4124,50.0,0,32,1.0,90.0
4125,50.0,0,32,1.0,90.0
4126,65.0,0,32,1.0,90.0
4127,56.0,0,32,1.0,90.0
4128,59.0,12,32,1.0,90.0
4129,79.0,12,76,0.0,62.0
4130,91.0,24,92,0.0,88.0
4131,50.0,0,32,1.0,90.0
4132,65.0,48,32,1.0,90.0
4133,56.0,0,32,1.0,90.0
4134,59.0,0,32,1.0,90.0
4135,50.0,12,32,1.0,90.0
4136,65.0,0,32,1.0,90.0
4137,56.0,0,32,1.0,90.0
4138,59.0,0,32,1.0,90.0
4139,50.0,4,288,4.0,80.0
4140,92.0,8,84,0.0,85.0
4141,80.0,28,96,0.0,71.0
4142,59.0,0,32,1.0,90.0
4143,65.0,48,32,1.0,90.0
4144,50.0,0,32,1.0,90.0
4145,56.0,0,32,1.0,90.0
4146,56.0,0,32,1.0,90.0
4147,65.0,16,32,1.0,90.0
4148,50.0,0,32,1.0,90.0
4149,59.0,0,32,1.0,90.0
4150,94.0,0,64,0.0,71.0
4151,82.0,32,88,0.0,62.0
4152,59.0,0,32,1.0,90.0
4153,56.0,0,32,1.0,90.0
4154,65.0,0,32,1.0,90.0
4155,50.0,48,32,1.0,90.0
4156,56.0,0,32,1.0,90.0
4157,65.0,0,32,1.0,90.0
4158,50.0,16,32,1.0,90.0
4159,59.0,0,32,1.0,90.0
4160,92.0,0,68,0.0,83.0
4161,80.0,32,76,0.0,61.0
4162,65.0,48,32,1.0,90.0
4163,56.0,0,32,1.0,90.0
4164,59.0,0,32,1.0,90.0
4165,50.0,0,32,1.0,90.0
4166,50.0,0,32,1.0,90.0
4167,65.0,24,32,1.0,90.0
4168,56.0,0,32,1.0,90.0
4169,59.0,0,32,1.0,90.0
4170,89.0,4,72,0.0,74.0
4171,77.0,20,92,0.0,68.0
4172,56.0,0,32,1.0,90.0
4173,59.0,48,32,1.0,90.0
4174,50.0,0,32,1.0,90.0
4175,65.0,0,32,1.0,90.0
4176,74.0,12,52,0.0,63.0
4177,50.0,0,32,1.0,90.0
4178,65.0,32,32,1.0,90.0
4179,56.0,0,32,1.0,90.0
4180,59.0,0,32,1.0,90.0
4181,86.0,4,96,0.0,79.0
4182,59.0,0,32,1.0,90.0
4183,56.0,0,32,1.0,90.0
4184,65.0,48,32,1.0,90.0
4185,50.0,0,32,1.0,90.0
4186,50.0,0,32,1.0,90.0
4187,65.0,0,32,1.0,90.0
4188,56.0,0,32,1.0,90.0
4189,59.0,44,32,1.0,90.0
4190,71.0,0,80,0.0,61.0
4191,83.0,4,116,0.0,84.0
4192,50.0,0,32,1.0,90.0
4193,65.0,0,32,1.0,90.0
4194,56.0,48,32,1.0,90.0
4195,59.0,0,32,1.0,90.0
4196,59.0,40,32,1.0,90.0
4197,56.0,0,32,1.0,90.0
4198,65.0,0,32,1.0,90.0
4199,50.0,0,32,1.0,90.0
4200,67.0,0,84,0.0,54.0
4201,79.0,8,88,0.0,82.0
4202,50.0,0,32,1.0,90.0
4203,65.0,0,32,1.0,90.0
4204,56.0,0,32,1.0,90.0
4205,59.0,48,32,1.0,90.0
4206,50.0,0,32,1.0,90.0
4207,65.0,36,32,1.0,90.0
4208,56.0,0,32,1.0,90.0
4209,59.0,0,32,1.0,90.0
4210,80.0,12,92,0.0,85.0
4211,68.0,0,96,0.0,77.0
4212,56.0,0,32,1.0,90.0
4213,59.0,0,32,1.0,90.0
4214,50.0,0,32,1.0,90.0
4215,65.0,48,32,1.0,90.0
4216,50.0,0,32,1.0,90.0
4217,59.0,0,32,1.0,90.0
4218,65.0,36,32,1.0,90.0
4219,56.0,0,32,1.0,90.0
4220,70.0,4,96,0.0,69.0
4221,82.0,8,104,0.0,74.0
4222,50.0,0,32,1.0,90.0
4223,59.0,0,32,1.0,90.0
4224,56.0,48,32,1.0,90.0
4225,65.0,0,32,1.0,90.0
4226,59.0,0,32,1.0,90.0
4227,56.0,44,32,1.0,90.0
4228,65.0,0,32,1.0,90.0
4229,50.0,0,32,1.0,90.0
4230,68.0,4,80,0.0,64.0
4231,80.0,0,84,0.0,75.0
4232,65.0,0,32,1.0,90.0
4233,50.0,0,32,1.0,90.0
4234,56.0,0,32,1.0,90.0
4235,59.0,8,32,1.0,90.0
4236,77.0,4,80,0.0,81.0
4237,59.0,0,32,1.0,90.0
4238,56.0,0,32,1.0,90.0
4239,65.0,0,32,1.0,90.0
4240,50.0,48,32,1.0,90.0
4241,65.0,32,104,0.0,65.0
4242,56.0,0,32,1.0,90.0
4243,65.0,0,32,1.0,90.0
4244,50.0,12,32,1.0,90.0
4245,59.0,0,32,1.0,90.0
4246,62.0,8,56,0.0,65.0
4247,74.0,28,84,0.0,82.0
4248,50.0,0,32,1.0,90.0
4249,65.0,48,32,1.0,90.0
4250,56.0,0,32,1.0,90.0
4251,59.0,0,32,1.0,90.0
4252,50.0,12,32,1.0,90.0
4253,65.0,0,32,1.0,90.0
4254,56.0,0,32,1.0,90.0
4255,59.0,0,32,1.0,90.0
4256,59.0,0,32,1.0,90.0
4257,56.0,0,32,1.0,90.0
4258,65.0,48,32,1.0,90.0
4259,50.0,0,32,1.0,90.0
4260,71.0,24,112,0.0,71.0
4261,59.0,12,100,0.0,73.0
4262,50.0,0,32,1.0,90.0
4263,65.0,28,32,1.0,90.0
4264,56.0,0,32,1.0,90.0
4265,59.0,0,32,1.0,90.0
4266,68.0,20,96,0.0,69.0
4267,56.0,0,104,0.0,59.0
4268,50.0,0,32,1.0,90.0
4269,65.0,48,32,1.0,90.0
4270,56.0,0,32,1.0,90.0
4271,59.0,0,32,1.0,90.0
4272,56.0,24,32,1.0,90.0
4273,65.0,0,32,1.0,90.0
4274,50.0,0,32,1.0,90.0
4275,59.0,0,32,1.0,90.0
4276,70.0,12,104,0.0,67.0
4277,58.0,12,100,0.0,58.0
4278,50.0,4,508,4.0,75.0
4279,50.0,0,32,1.0,90.0
4280,65.0,48,32,1.0,90.0
4281,56.0,0,32,1.0,90.0
4282,59.0,0,32,1.0,90.0
4283,59.0,0,32,1.0,90.0
4284,56.0,0,32,1.0,90.0
4285,65.0,36,32,1.0,90.0
4286,50.0,0,32,1.0,90.0
4287,56.0,12,96,0.0,62.0
4288,68.0,0,104,0.0,69.0
4289,59.0,0,32,1.0,90.0
4290,50.0,48,32,1.0,90.0
4291,65.0,0,32,1.0,90.0
4292,56.0,0,32,1.0,90.0
4293,56.0,0,28,1.0,64.0
4294,59.0,0,28,1.0,64.0
4295,50.0,4,28,1.0,64.0
4296,65.0,0,28,1.0,64.0
4297,55.0,4,92,0.0,68.0
4298,67.0,12,116,0.0,72.0
4299,50.0,0,32,1.0,90.0
4300,65.0,0,32,1.0,90.0
4301,56.0,0,32,1.0,90.0
4302,59.0,44,32,1.0,90.0
4303,59.0,32,32,1.0,90.0
4304,56.0,0,32,1.0,90.0
4305,65.0,0,32,1.0,90.0
4306,50.0,0,32,1.0,90.0
4307,56.0,0,32,1.0,90.0
4308,65.0,0,32,1.0,90.0
4309,59.0,48,32,1.0,90.0
4310,50.0,0,32,1.0,90.0
4311,68.0,4,120,0.0,74.0
4312,56.0,12,136,0.0,69.0
4313,51.0,0,32,1.0,80.0
4314,63.0,0,32,1.0,80.0
4315,56.0,0,32,1.0,80.0
4316,59.0,4,32,1.0,80.0
4317,51.0,0,32,1.0,80.0
4318,63.0,48,32,1.0,80.0
4319,56.0,0,32,1.0,80.0
4320,59.0,0,32,1.0,80.0
4321,63.0,0,32,1.0,80.0
4322,56.0,0,32,1.0,80.0
4323,59.0,0,32,1.0,80.0
4324,51.0,48,32,1.0,80.0
4325,51.0,48,32,1.0,80.0
4326,59.0,0,32,1.0,80.0
4327,63.0,0,32,1.0,80.0
4328,56.0,0,32,1.0,80.0
4329,63.0,48,32,1.0,80.0
4330,51.0,0,32,1.0,80.0
4331,59.0,0,32,1.0,80.0
4332,56.0,0,32,1.0,80.0
4333,56.0,0,32,1.0,80.0
4334,63.0,0,32,1.0,80.0
4335,59.0,48,32,1.0,80.0
4336,51.0,0,32,1.0,80.0
4337,59.0,0,32,1.0,80.0
4338,51.0,0,32,1.0,80.0
4339,63.0,48,32,1.0,80.0
4340,56.0,0,32,1.0,80.0
4341,51.0,0,32,1.0,80.0
4342,56.0,0,32,1.0,80.0
4343,63.0,48,32,1.0,80.0
4344,59.0,0,32,1.0,80.0
4345,51.0,0,32,1.0,80.0
4346,63.0,0,32,1.0,80.0
4347,59.0,0,32,1.0,80.0
4348,56.0,48,32,1.0,80.0
4349,51.0,0,32,1.0,80.0
4350,63.0,0,32,1.0,80.0
4351,59.0,48,32,1.0,80.0
4352,56.0,0,32,1.0,80.0
4353,51.0,24,504,4.0,75.0
4354,51.0,0,32,1.0,80.0
4355,63.0,48,32,1.0,80.0
4356,59.0,0,32,1.0,80.0
4357,56.0,0,32,1.0,80.0
4358,56.0,0,32,1.0,80.0
4359,59.0,0,32,1.0,80.0
4360,63.0,0,32,1.0,80.0
4361,51.0,48,32,1.0,80.0
4362,63.0,0,32,1.0,80.0
4363,56.0,44,32,1.0,80.0
4364,59.0,0,32,1.0,80.0
4365,51.0,0,32,1.0,80.0
4366,63.0,0,32,1.0,70.0
4367,58.0,0,32,1.0,70.0
4368,55.0,0,32,1.0,70.0
4369,59.0,16,652,0.0,67.0
4370,51.0,0,32,1.0,70.0
4371,71.0,0,652,0.0,68.0
4372,58.0,0,32,1.0,70.0
4373,55.0,0,32,1.0,70.0
4374,63.0,48,32,1.0,70.0
4375,51.0,0,32,1.0,70.0
4376,58.0,48,32,1.0,70.0
4377,51.0,0,32,1.0,70.0
4378,55.0,0,32,1.0,70.0
4379,63.0,0,32,1.0,70.0
4380,63.0,48,32,1.0,70.0
4381,58.0,0,32,1.0,70.0
4382,55.0,0,32,1.0,70.0
4383,51.0,0,32,1.0,70.0
4384,51.0,0,32,1.0,70.0
4385,63.0,48,32,1.0,70.0
4386,58.0,0,32,1.0,70.0
4387,55.0,0,32,1.0,70.0
4388,51.0,0,32,1.0,70.0
4389,58.0,0,32,1.0,70.0
4390,55.0,0,32,1.0,70.0
4391,63.0,48,32,1.0,70.0
4392,55.0,0,32,1.0,70.0
4393,51.0,0,32,1.0,70.0
4394,63.0,48,32,1.0,70.0
4395,58.0,0,32,1.0,70.0
4396,51.0,0,32,1.0,70.0
4397,63.0,48,32,1.0,70.0
4398,58.0,0,32,1.0,70.0
4399,55.0,0,32,1.0,70.0
4400,58.0,0,32,1.0,70.0
4401,51.0,0,32,1.0,70.0
4402,63.0,48,32,1.0,70.0
4403,55.0,0,32,1.0,70.0
4404,63.0,48,32,1.0,70.0
4405,58.0,0,32,1.0,70.0
4406,55.0,0,32,1.0,70.0
4407,51.0,0,32,1.0,70.0
4408,51.0,0,32,1.0,70.0
4409,63.0,48,32,1.0,70.0
4410,58.0,0,32,1.0,70.0
4411,55.0,0,32,1.0,70.0
4412,51.0,48,32,1.0,70.0
4413,55.0,0,32,1.0,70.0
4414,58.0,0,32,1.0,70.0
4415,63.0,0,32,1.0,70.0
4416,63.0,0,32,1.0,70.0
4417,58.0,0,32,1.0,70.0
4418,51.0,0,32,1.0,70.0
4419,55.0,0,32,1.0,70.0
4420,51.0,0,32,1.0,70.0
4421,63.0,48,32,1.0,70.0
4422,58.0,0,32,1.0,70.0
4423,55.0,0,32,1.0,70.0
4424,51.0,0,32,1.0,70.0
4425,63.0,48,32,1.0,70.0
4426,58.0,0,32,1.0,70.0
4427,55.0,0,32,1.0,70.0
4428,51.0,0,32,1.0,70.0
4429,63.0,48,32,1.0,70.0
4430,58.0,0,32,1.0,70.0
4431,55.0,0,32,1.0,70.0
4432,58.0,0,32,1.0,70.0
4433,55.0,48,32,1.0,70.0
4434,51.0,0,32,1.0,70.0
4435,63.0,0,32,1.0,70.0
4436,58.0,0,32,1.0,70.0
4437,63.0,48,32,1.0,70.0
4438,55.0,0,32,1.0,70.0
4439,51.0,0,32,1.0,70.0
4440,51.0,0,32,1.0,70.0
4441,63.0,48,32,1.0,70.0
4442,55.0,0,32,1.0,70.0
4443,58.0,0,32,1.0,70.0
4444,51.0,0,32,1.0,70.0
4445,63.0,48,32,1.0,70.0
4446,58.0,0,32,1.0,70.0
4447,55.0,0,32,1.0,70.0
4448,51.0,0,32,1.0,70.0
4449,63.0,0,32,1.0,70.0
4450,58.0,48,32,1.0,70.0
4451,55.0,0,32,1.0,70.0
4452,70.0,0,1012,0.0,47.0
4453,58.0,44,1020,0.0,46.0
4454,51.0,0,32,1.0,70.0
4455,63.0,0,32,1.0,70.0
4456,58.0,48,32,1.0,70.0
4457,55.0,0,32,1.0,70.0
4458,51.0,48,504,4.0,65.0
4459,58.0,0,32,1.0,70.0
4460,55.0,0,32,1.0,70.0
4461,51.0,0,32,1.0,70.0
4462,63.0,48,32,1.0,70.0
4463,51.0,48,32,1.0,70.0
4464,55.0,0,32,1.0,70.0
4465,63.0,0,32,1.0,70.0
4466,58.0,0,32,1.0,70.0
4467,58.0,0,32,1.0,70.0
4468,54.0,0,32,1.0,70.0
4469,49.0,0,32,1.0,70.0
4470,64.0,100,32,1.0,70.0
4471,49.0,0,32,1.0,70.0
4472,64.0,40,32,1.0,70.0
4473,58.0,0,32,1.0,70.0
4474,54.0,0,32,1.0,70.0
4475,64.0,0,32,1.0,70.0
4476,58.0,0,32,1.0,70.0
4477,54.0,0,32,1.0,70.0
4478,49.0,48,32,1.0,70.0
4479,49.0,0,32,1.0,70.0
4480,64.0,48,32,1.0,70.0
4481,58.0,0,32,1.0,70.0
4482,54.0,0,32,1.0,70.0
4483,64.0,0,32,1.0,70.0
4484,58.0,0,32,1.0,70.0
4485,54.0,0,32,1.0,70.0
4486,49.0,48,32,1.0,70.0
4487,49.0,48,32,1.0,70.0
4488,58.0,0,32,1.0,70.0
4489,54.0,0,32,1.0,70.0
4490,64.0,0,32,1.0,70.0
4491,58.0,0,32,1.0,70.0
4492,49.0,0,32,1.0,70.0
4493,64.0,48,32,1.0,70.0
4494,54.0,0,32,1.0,70.0
4495,66.0,0,336,0.0,60.0
4496,54.0,8,332,0.0,51.0
4497,58.0,0,32,1.0,70.0
4498,64.0,48,32,1.0,70.0
4499,49.0,0,32,1.0,70.0
4500,54.0,0,32,1.0,70.0
4501,49.0,0,32,1.0,70.0
4502,64.0,0,32,1.0,70.0
4503,58.0,48,32,1.0,70.0
4504,54.0,0,32,1.0,70.0
4505,49.0,0,32,1.0,70.0
4506,64.0,48,32,1.0,70.0
4507,58.0,0,32,1.0,70.0
4508,54.0,0,32,1.0,70.0
4509,49.0,0,504,4.0,70.0
4510,64.0,48,32,1.0,70.0
4511,58.0,0,32,1.0,70.0
4512,54.0,0,32,1.0,70.0
4513,49.0,0,32,1.0,70.0
4514,58.0,0,32,1.0,70.0
4515,54.0,0,32,1.0,70.0
4516,49.0,0,32,1.0,70.0
4517,64.0,36,32,1.0,70.0
4518,54.0,12,84,0.0,49.0
4519,66.0,0,92,0.0,55.0
4520,49.0,48,32,1.0,70.0
4521,64.0,0,32,1.0,70.0
4522,58.0,0,32,1.0,70.0
4523,54.0,0,32,1.0,70.0
4524,58.0,0,32,1.0,70.0
4525,54.0,0,32,1.0,70.0
4526,49.0,48,32,1.0,70.0
4527,64.0,0,32,1.0,70.0
4528,54.0,0,32,1.0,65.0
4529,63.0,0,32,1.0,65.0
4530,47.0,48,32,1.0,65.0
4531,59.0,0,32,1.0,65.0
4532,59.0,0,32,1.0,65.0
4533,54.0,0,32,1.0,65.0
4534,63.0,48,32,1.0,65.0
4535,47.0,0,32,1.0,65.0
4536,47.0,0,32,1.0,65.0
4537,63.0,48,32,1.0,65.0
4538,59.0,0,32,1.0,65.0
4539,54.0,0,32,1.0,65.0
4540,54.0,0,32,1.0,65.0
4541,59.0,0,32,1.0,65.0
4542,47.0,0,32,1.0,65.0
4543,63.0,48,32,1.0,65.0
4544,47.0,0,32,1.0,65.0
4545,63.0,48,32,1.0,65.0
4546,59.0,0,32,1.0,65.0
4547,54.0,0,32,1.0,65.0
4548,54.0,0,32,1.0,65.0
4549,59.0,0,32,1.0,65.0
4550,63.0,0,32,1.0,65.0
4551,47.0,48,32,1.0,65.0
4552,54.0,0,32,1.0,65.0
4553,63.0,0,32,1.0,65.0
4554,47.0,48,32,1.0,65.0
4555,59.0,0,32,1.0,65.0
4556,47.0,0,32,1.0,65.0
4557,63.0,48,32,1.0,65.0
4558,59.0,0,32,1.0,65.0
4559,54.0,0,32,1.0,65.0
4560,47.0,48,32,1.0,65.0
4561,63.0,0,32,1.0,65.0
4562,59.0,0,32,1.0,65.0
4563,54.0,0,32,1.0,65.0
4564,54.0,0,32,1.0,65.0
4565,59.0,0,32,1.0,65.0
4566,47.0,0,32,1.0,65.0
4567,63.0,48,32,1.0,65.0
4568,47.0,0,32,1.0,65.0
4569,63.0,48,32,1.0,65.0
4570,59.0,0,32,1.0,65.0
4571,54.0,0,32,1.0,65.0
4572,54.0,0,32,1.0,65.0
4573,59.0,0,32,1.0,65.0
4574,47.0,0,32,1.0,65.0
4575,63.0,48,32,1.0,65.0
4576,47.0,48,32,1.0,65.0
4577,59.0,0,32,1.0,65.0
4578,54.0,0,32,1.0,65.0
4579,63.0,0,32,1.0,65.0
4580,47.0,0,628,4.0,65.0
4581,63.0,48,32,1.0,65.0
4582,59.0,0,32,1.0,65.0
4583,54.0,0,32,1.0,65.0
4584,47.0,0,32,1.0,65.0
4585,59.0,48,32,1.0,65.0
4586,47.0,0,32,1.0,65.0
4587,63.0,0,32,1.0,65.0
4588,54.0,0,32,1.0,65.0
4589,54.0,0,748,0.0,46.0
4590,47.0,0,32,1.0,65.0
4591,63.0,0,32,1.0,65.0
4592,59.0,48,32,1.0,65.0
4593,54.0,0,32,1.0,65.0
4594,66.0,0,788,0.0,58.0
4595,47.0,0,32,1.0,65.0
4596,54.0,0,32,1.0,65.0
4597,59.0,20,32,1.0,65.0
4598,63.0,0,32,1.0,65.0
4599,63.0,0,32,1.0,65.0
4600,47.0,48,32,1.0,65.0
4601,59.0,0,32,1.0,65.0
4602,54.0,0,32,1.0,65.0
4603,47.0,0,32,1.0,65.0
4604,63.0,48,32,1.0,65.0
4605,59.0,0,32,1.0,65.0
4606,54.0,0,32,1.0,65.0
4607,56.0,28,160,0.0,56.0
4608,68.0,0,164,0.0,65.0
4609,54.0,0,32,1.0,65.0
4610,59.0,0,32,1.0,65.0
4611,63.0,4,32,1.0,65.0
4612,47.0,0,32,1.0,65.0
4613,59.0,48,32,1.0,65.0
4614,54.0,0,32,1.0,65.0
4615,47.0,0,32,1.0,65.0
4616,63.0,0,32,1.0,65.0
4617,54.0,0,32,1.0,65.0
4618,47.0,0,32,1.0,65.0
4619,63.0,48,32,1.0,65.0
4620,59.0,0,32,1.0,65.0
4621,70.0,44,156,0.0,67.0
4622,58.0,0,152,0.0,46.0
4623,47.0,48,32,1.0,65.0
4624,63.0,0,32,1.0,65.0
4625,59.0,0,32,1.0,65.0
4626,54.0,0,32,1.0,65.0
4627,59.0,0,32,1.0,65.0
4628,47.0,0,32,1.0,65.0
4629,63.0,36,32,1.0,65.0
4630,54.0,0,32,1.0,65.0
4631,47.0,0,32,1.0,65.0
4632,63.0,0,32,1.0,65.0
4633,59.0,0,32,1.0,65.0
4634,54.0,48,32,1.0,65.0
4635,71.0,12,152,0.0,69.0
4636,59.0,0,160,0.0,56.0
4637,63.0,48,32,1.0,65.0
4638,54.0,0,32,1.0,65.0
4639,59.0,0,32,1.0,65.0
4640,47.0,0,32,1.0,65.0
4641,59.0,0,32,1.0,65.0
4642,54.0,0,32,1.0,65.0
4643,47.0,0,32,1.0,65.0
4644,63.0,32,32,1.0,65.0
4645,54.0,0,32,1.0,65.0
4646,63.0,0,32,1.0,65.0
4647,47.0,48,32,1.0,65.0
4648,59.0,0,32,1.0,65.0
4649,61.0,4,140,0.0,56.0
4650,73.0,12,148,0.0,73.0
4651,59.0,0,32,1.0,65.0
4652,63.0,48,32,1.0,65.0
4653,47.0,0,32,1.0,65.0
4654,54.0,0,32,1.0,65.0
4655,47.0,0,32,1.0,65.0
4656,63.0,36,32,1.0,65.0
4657,59.0,0,32,1.0,65.0
4658,54.0,0,32,1.0,65.0
4659,59.0,0,32,1.0,65.0
4660,47.0,0,32,1.0,65.0
4661,63.0,48,32,1.0,65.0
4662,54.0,0,32,1.0,65.0
4663,63.0,4,160,0.0,46.0
4664,75.0,8,164,0.0,73.0
4665,54.0,0,32,1.0,65.0
4666,59.0,0,32,1.0,65.0
4667,63.0,48,32,1.0,65.0
4668,47.0,0,32,1.0,65.0
4669,59.0,0,32,1.0,65.0
4670,47.0,0,32,1.0,65.0
4671,63.0,40,32,1.0,65.0
4672,54.0,0,32,1.0,65.0
4673,61.0,0,120,0.0,57.0
4674,54.0,0,32,1.0,65.0
4675,47.0,0,32,1.0,65.0
4676,63.0,0,32,1.0,65.0
4677,59.0,48,32,1.0,65.0
4678,73.0,8,124,0.0,69.0
4679,59.0,0,32,1.0,65.0
4680,54.0,0,32,1.0,65.0
4681,63.0,8,32,1.0,65.0
4682,47.0,0,32,1.0,65.0
4683,47.0,0,32,1.0,65.0
4684,63.0,40,32,1.0,65.0
4685,54.0,0,32,1.0,65.0
4686,59.0,0,32,1.0,65.0
4687,71.0,40,92,0.0,69.0
4688,59.0,8,100,0.0,57.0
4689,54.0,0,32,1.0,65.0
4690,59.0,48,32,1.0,65.0
4691,63.0,0,32,1.0,65.0
4692,47.0,0,32,1.0,65.0
4693,63.0,0,32,1.0,65.0
4694,47.0,0,32,1.0,65.0
4695,59.0,12,32,1.0,65.0
4696,54.0,0,32,1.0,65.0
4697,63.0,48,32,1.0,65.0
4698,59.0,0,32,1.0,65.0
4699,54.0,0,32,1.0,65.0
4700,47.0,0,32,1.0,65.0
4701,63.0,32,120,0.0,61.0
4702,51.0,4,120,0.0,58.0
4703,54.0,0,32,1.0,65.0
4704,47.0,0,32,1.0,65.0
4705,63.0,48,32,1.0,65.0
4706,59.0,0,32,1.0,65.0
4707,63.0,0,32,1.0,65.0
4708,59.0,0,32,1.0,65.0
4709,54.0,0,32,1.0,65.0
4710,47.0,4,32,1.0,65.0
4711,54.0,0,32,1.0,65.0
4712,47.0,0,32,1.0,65.0
4713,63.0,0,32,1.0,65.0
4714,59.0,48,32,1.0,65.0
4715,64.0,0,128,0.0,72.0
4716,47.0,0,32,1.0,65.0
4717,63.0,48,32,1.0,65.0
4718,59.0,0,32,1.0,65.0
4719,54.0,0,32,1.0,65.0
4720,52.0,44,136,0.0,54.0
4721,54.0,0,32,1.0,65.0
4722,58.0,0,32,1.0,65.0
4723,64.0,0,32,1.0,65.0
4724,42.0,0,32,1.0,65.0
4725,42.0,0,32,1.0,65.0
4726,64.0,0,32,1.0,65.0
4727,58.0,48,32,1.0,65.0
4728,54.0,0,32,1.0,65.0
4729,54.0,48,32,1.0,65.0
4730,58.0,0,32,1.0,65.0
4731,64.0,0,32,1.0,65.0
4732,42.0,0,32,1.0,65.0
4733,54.0,0,168,0.0,55.0
4734,42.0,48,32,1.0,65.0
4735,64.0,0,32,1.0,65.0
4736,58.0,0,32,1.0,65.0
4737,54.0,0,32,1.0,65.0
4738,66.0,40,208,0.0,68.0
4739,42.0,0,32,1.0,65.0
4740,64.0,0,32,1.0,65.0
4741,58.0,0,32,1.0,65.0
4742,54.0,4,32,1.0,65.0
4743,64.0,44,32,1.0,65.0
4744,42.0,0,32,1.0,65.0
4745,58.0,0,32,1.0,65.0
4746,54.0,0,32,1.0,65.0
4747,58.0,0,32,1.0,65.0
4748,64.0,0,32,1.0,65.0
4749,54.0,0,32,1.0,65.0
4750,42.0,48,32,1.0,65.0
4751,67.0,44,156,0.0,70.0
4752,55.0,4,168,0.0,54.0
4753,54.0,0,32,1.0,65.0
4754,42.0,0,32,1.0,65.0
4755,64.0,48,32,1.0,65.0
4756,58.0,0,32,1.0,65.0
4757,54.0,0,32,1.0,65.0
4758,42.0,32,32,1.0,65.0
4759,64.0,0,32,1.0,65.0
4760,58.0,0,32,1.0,65.0
4761,64.0,8,104,0.0,68.0
4762,52.0,8,100,0.0,49.0
4763,54.0,0,32,1.0,65.0
4764,58.0,0,32,1.0,65.0
4765,64.0,0,32,1.0,65.0
4766,42.0,48,32,1.0,65.0
4767,42.0,0,32,1.0,65.0
4768,64.0,0,32,1.0,65.0
4769,58.0,0,32,1.0,65.0
4770,54.0,16,32,1.0,65.0
4771,64.0,48,32,1.0,65.0
4772,58.0,0,32,1.0,65.0
4773,54.0,0,32,1.0,65.0
4774,61.0,32,96,0.0,67.0
4775,42.0,0,32,1.0,65.0
4776,49.0,0,116,0.0,56.0
4777,54.0,0,32,1.0,65.0
4778,64.0,48,32,1.0,65.0
4779,58.0,0,32,1.0,65.0
4780,42.0,0,32,1.0,65.0
4781,42.0,0,32,1.0,65.0
4782,64.0,28,32,1.0,65.0
4783,58.0,0,32,1.0,65.0
4784,54.0,0,32,1.0,65.0
4785,58.0,0,96,0.0,65.0
4786,58.0,0,32,1.0,65.0
4787,54.0,48,32,1.0,65.0
4788,42.0,0,32,1.0,65.0
4789,64.0,0,32,1.0,65.0
4790,46.0,20,132,0.0,55.0
4791,64.0,48,32,1.0,65.0
4792,42.0,0,32,1.0,65.0
4793,58.0,0,32,1.0,65.0
4794,54.0,0,32,1.0,65.0
4795,52.0,0,32,1.0,65.0
4796,58.0,0,32,1.0,65.0
4797,43.0,0,32,1.0,65.0
4798,64.0,0,32,1.0,65.0
4799,43.0,0,32,1.0,65.0
4800,64.0,48,32,1.0,65.0
4801,58.0,0,32,1.0,65.0
4802,52.0,0,32,1.0,65.0
4803,52.0,0,32,1.0,65.0
4804,58.0,0,32,1.0,65.0
4805,43.0,0,32,1.0,65.0
4806,64.0,48,32,1.0,65.0
4807,43.0,48,32,1.0,65.0
4808,58.0,0,32,1.0,65.0
4809,52.0,0,32,1.0,65.0
4810,64.0,0,32,1.0,65.0
4811,64.0,0,32,1.0,65.0
4812,58.0,0,32,1.0,65.0
4813,52.0,48,32,1.0,65.0
4814,43.0,0,32,1.0,65.0
4815,52.0,48,32,1.0,65.0
4816,58.0,0,32,1.0,65.0
4817,43.0,0,32,1.0,65.0
4818,64.0,0,32,1.0,65.0
4819,43.0,0,32,1.0,65.0
4820,52.0,0,32,1.0,65.0
4821,58.0,0,32,1.0,65.0
4822,64.0,48,32,1.0,65.0
4823,52.0,48,32,1.0,65.0
4824,58.0,0,32,1.0,65.0
4825,64.0,0,32,1.0,65.0
4826,43.0,0,32,1.0,65.0
4827,58.0,0,32,1.0,65.0
4828,64.0,48,32,1.0,65.0
4829,43.0,0,32,1.0,65.0
4830,52.0,0,32,1.0,65.0
4831,64.0,48,32,1.0,65.0
4832,43.0,0,32,1.0,65.0
4833,58.0,0,32,1.0,65.0
4834,52.0,0,32,1.0,65.0
4835,52.0,0,32,1.0,65.0
4836,58.0,0,32,1.0,65.0
4837,64.0,0,32,1.0,65.0
4838,43.0,48,32,1.0,65.0
4839,43.0,0,32,1.0,65.0
4840,64.0,48,32,1.0,65.0
4841,58.0,0,32,1.0,65.0
4842,52.0,0,32,1.0,65.0
4843,43.0,44,576,0.0,45.0
4844,64.0,48,32,1.0,65.0
4845,52.0,0,32,1.0,65.0
4846,58.0,0,32,1.0,65.0
4847,43.0,0,32,1.0,65.0
4848,55.0,0,628,0.0,63.0
4849,58.0,0,32,1.0,65.0
4850,42.0,44,32,1.0,65.0
4851,64.0,0,32,1.0,65.0
4852,54.0,0,32,1.0,65.0
4853,42.0,48,32,1.0,65.0
4854,64.0,0,32,1.0,65.0
4855,58.0,0,32,1.0,65.0
4856,54.0,0,32,1.0,65.0
4857,54.0,0,32,1.0,65.0
4858,58.0,0,32,1.0,65.0
4859,42.0,0,32,1.0,65.0
4860,64.0,48,32,1.0,65.0
4861,58.0,0,32,1.0,65.0
4862,42.0,0,32,1.0,65.0
4863,64.0,48,32,1.0,65.0
4864,54.0,0,32,1.0,65.0
4865,58.0,0,32,1.0,65.0
4866,64.0,0,32,1.0,65.0
4867,42.0,48,32,1.0,65.0
4868,54.0,0,32,1.0,65.0
4869,54.0,0,244,0.0,47.0
4870,58.0,0,32,1.0,65.0
4871,64.0,48,32,1.0,65.0
4872,54.0,0,32,1.0,65.0
4873,42.0,0,32,1.0,65.0
4874,58.0,0,32,1.0,65.0
4875,64.0,0,32,1.0,65.0
4876,54.0,0,32,1.0,65.0
4877,42.0,48,32,1.0,65.0
4878,42.0,0,324,0.0,29.0
4879,42.0,0,32,1.0,65.0
4880,64.0,48,32,1.0,65.0
4881,58.0,0,32,1.0,65.0
4882,54.0,0,32,1.0,65.0
4883,54.0,0,32,1.0,65.0
4884,58.0,0,32,1.0,65.0
4885,42.0,0,32,1.0,65.0
4886,64.0,48,32,1.0,65.0
4887,64.0,48,32,1.0,65.0
4888,54.0,0,32,1.0,65.0
4889,58.0,0,32,1.0,65.0
4890,42.0,0,32,1.0,65.0
4891,42.0,48,32,1.0,65.0
4892,64.0,0,32,1.0,65.0
4893,58.0,0,32,1.0,65.0
4894,54.0,0,32,1.0,65.0
4895,42.0,0,32,1.0,65.0
4896,64.0,48,32,1.0,65.0
4897,58.0,0,32,1.0,65.0
4898,54.0,0,32,1.0,65.0
4899,42.0,48,32,1.0,65.0
4900,64.0,0,32,1.0,65.0
4901,58.0,0,32,1.0,65.0
4902,54.0,0,32,1.0,65.0
4903,58.0,0,32,1.0,65.0
4904,54.0,0,32,1.0,65.0
4905,42.0,48,32,1.0,65.0
4906,64.0,0,32,1.0,65.0
4907,42.0,0,32,1.0,65.0
4908,64.0,12,32,1.0,65.0
4909,61.0,0,32,1.0,65.0
4910,54.0,0,32,1.0,65.0
4911,64.0,0,32,1.0,65.0
4912,61.0,0,32,1.0,65.0
4913,54.0,0,32,1.0,65.0
4914,42.0,48,32,1.0,65.0
4915,64.0,0,32,1.0,65.0
4916,42.0,0,32,1.0,65.0
4917,61.0,0,32,1.0,65.0
4918,54.0,48,32,1.0,65.0
4919,42.0,0,32,1.0,65.0
4920,64.0,48,32,1.0,65.0
4921,61.0,0,32,1.0,65.0
4922,54.0,0,32,1.0,65.0
4923,64.0,48,32,1.0,65.0
4924,42.0,0,32,1.0,65.0
4925,54.0,0,32,1.0,65.0
4926,61.0,0,32,1.0,65.0
4927,61.0,0,32,1.0,65.0
4928,64.0,0,32,1.0,65.0
4929,42.0,48,32,1.0,65.0
4930,54.0,0,32,1.0,65.0
4931,54.0,48,32,1.0,65.0
4932,61.0,0,32,1.0,65.0
4933,64.0,0,32,1.0,65.0
4934,42.0,0,32,1.0,65.0
4935,61.0,0,32,1.0,65.0
4936,54.0,0,32,1.0,65.0
4937,64.0,0,32,1.0,65.0
4938,42.0,48,32,1.0,65.0
4939,54.0,0,32,1.0,65.0
4940,64.0,0,32,1.0,65.0
4941,42.0,48,32,1.0,65.0
4942,61.0,0,32,1.0,65.0
4943,42.0,0,32,1.0,65.0
4944,54.0,0,32,1.0,65.0
4945,61.0,48,32,1.0,65.0
4946,64.0,0,32,1.0,65.0
4947,64.0,0,32,1.0,65.0
4948,61.0,0,32,1.0,65.0
4949,54.0,0,32,1.0,65.0
4950,42.0,48,32,1.0,65.0
4951,42.0,0,32,1.0,65.0
4952,64.0,48,32,1.0,65.0
4953,61.0,0,32,1.0,65.0
4954,54.0,0,32,1.0,65.0
4955,54.0,0,32,1.0,65.0
4956,59.0,0,32,1.0,65.0
4957,63.0,0,32,1.0,65.0
4958,47.0,0,32,1.0,65.0
4959,73.0,0,640,7.0,45.0
4960,66.0,0,640,7.0,45.0
4961,54.0,36,640,4.0,55.0
4962,76.0,0,640,5.0,48.0
4963,82.0,0,640,5.0,50.0
4964,47.0,0,32,1.0,65.0
4965,63.0,0,32,1.0,65.0
4966,54.0,48,32,1.0,65.0
4967,59.0,0,32,1.0,65.0
4968,47.0,0,32,1.0,65.0
4969,63.0,0,32,1.0,65.0
4970,59.0,48,32,1.0,65.0
4971,54.0,0,32,1.0,65.0
4972,47.0,0,32,1.0,65.0
4973,54.0,0,32,1.0,65.0
4974,59.0,0,32,1.0,65.0
4975,63.0,48,32,1.0,65.0
4976,47.0,48,32,1.0,65.0
4977,54.0,0,32,1.0,65.0
4978,59.0,0,32,1.0,65.0
4979,63.0,0,32,1.0,65.0
4980,63.0,0,32,1.0,65.0
4981,47.0,48,32,1.0,65.0
4982,54.0,0,32,1.0,65.0
4983,59.0,0,32,1.0,65.0
4984,47.0,0,32,1.0,65.0
4985,54.0,0,32,1.0,65.0
4986,59.0,0,32,1.0,65.0
4987,63.0,48,32,1.0,65.0
4988,54.0,0,32,1.0,65.0
4989,59.0,48,32,1.0,65.0
4990,63.0,0,32,1.0,65.0
4991,47.0,0,32,1.0,65.0
4992,54.0,0,32,1.0,65.0
4993,47.0,0,32,1.0,65.0
4994,63.0,36,32,1.0,65.0
4995,59.0,0,32,1.0,65.0
4996,47.0,48,32,1.0,65.0
4997,63.0,0,32,1.0,65.0
4998,59.0,0,32,1.0,65.0
4999,54.0,0,32,1.0,65.0
5000,63.0,48,32,1.0,65.0
5001,54.0,0,32,1.0,65.0
5002,47.0,0,32,1.0,65.0
5003,59.0,0,32,1.0,65.0
5004,47.0,0,32,1.0,65.0
5005,63.0,48,32,1.0,65.0
5006,59.0,0,32,1.0,65.0
5007,54.0,0,32,1.0,65.0
5008,59.0,0,32,1.0,65.0
5009,54.0,0,32,1.0,65.0
5010,63.0,0,32,1.0,65.0
5011,47.0,48,32,1.0,65.0
5012,75.0,60,640,5.0,47.0
5013,47.0,0,640,4.0,50.0
5014,71.0,0,640,7.0,46.0
5015,59.0,0,640,7.0,45.0
5016,83.0,0,640,5.0,52.0
5017,47.0,0,32,1.0,65.0
5018,63.0,48,32,1.0,65.0
5019,59.0,0,32,1.0,65.0
5020,54.0,0,32,1.0,65.0
5021,47.0,0,32,1.0,65.0
5022,63.0,0,32,1.0,65.0
5023,59.0,48,32,1.0,65.0
5024,54.0,0,32,1.0,65.0
5025,66.0,0,356,0.0,62.0
5026,54.0,12,380,0.0,39.0
5027,47.0,0,32,1.0,65.0
5028,63.0,24,32,1.0,65.0
5029,59.0,0,32,1.0,65.0
5030,54.0,0,32,1.0,65.0
5031,47.0,0,32,1.0,65.0
5032,63.0,48,32,1.0,65.0
5033,59.0,0,32,1.0,65.0
5034,54.0,0,32,1.0,65.0
5035,56.0,4,148,0.0,42.0
5036,59.0,0,32,1.0,65.0
5037,63.0,48,32,1.0,65.0
5038,54.0,0,32,1.0,65.0
5039,47.0,0,32,1.0,65.0
5040,68.0,20,168,0.0,58.0
5041,47.0,0,32,1.0,65.0
5042,54.0,0,32,1.0,65.0
5043,63.0,0,32,1.0,65.0
5044,59.0,0,32,1.0,65.0
5045,47.0,0,32,1.0,65.0
5046,63.0,0,32,1.0,65.0
5047,59.0,48,32,1.0,65.0
5048,54.0,0,32,1.0,65.0
5049,54.0,0,32,1.0,65.0
5050,59.0,48,32,1.0,65.0
5051,63.0,0,32,1.0,65.0
5052,47.0,0,32,1.0,65.0
5053,70.0,0,128,0.0,64.0
5054,58.0,48,140,0.0,47.0
5055,63.0,0,32,1.0,65.0
5056,47.0,4,32,1.0,65.0
5057,59.0,0,32,1.0,65.0
5058,54.0,0,32,1.0,65.0
5059,47.0,0,32,1.0,65.0
5060,63.0,0,32,1.0,65.0
5061,59.0,40,32,1.0,65.0
5062,54.0,0,32,1.0,65.0
5063,47.0,0,32,1.0,65.0
5064,59.0,0,32,1.0,65.0
5065,54.0,0,32,1.0,65.0
5066,63.0,48,32,1.0,65.0
5067,59.0,8,128,0.0,62.0
5068,71.0,44,148,0.0,74.0
5069,59.0,0,32,1.0,65.0
5070,47.0,24,32,1.0,65.0
5071,54.0,0,32,1.0,65.0
5072,63.0,0,32,1.0,65.0
5073,54.0,48,32,1.0,65.0
5074,59.0,0,32,1.0,65.0
5075,63.0,0,32,1.0,65.0
5076,47.0,0,32,1.0,65.0
5077,61.0,0,128,0.0,61.0
5078,47.0,0,32,1.0,65.0
5079,63.0,48,32,1.0,65.0
5080,59.0,0,32,1.0,65.0
5081,54.0,0,32,1.0,65.0
5082,73.0,24,168,0.0,77.0
5083,54.0,0,32,1.0,65.0
5084,63.0,28,32,1.0,65.0
5085,47.0,0,32,1.0,65.0
5086,59.0,0,32,1.0,65.0
5087,47.0,0,32,1.0,65.0
5088,63.0,0,32,1.0,65.0
5089,59.0,0,32,1.0,65.0
5090,54.0,48,32,1.0,65.0
5091,64.0,16,140,0.0,66.0
5092,76.0,4,148,0.0,77.0
5093,59.0,0,32,1.0,65.0
5094,54.0,0,32,1.0,65.0
5095,63.0,0,32,1.0,65.0
5096,47.0,48,32,1.0,65.0
5097,47.0,40,32,1.0,65.0
5098,63.0,0,32,1.0,65.0
5099,59.0,0,32,1.0,65.0
5100,54.0,0,32,1.0,65.0
5101,63.0,4,108,0.0,55.0
5102,63.0,48,32,1.0,65.0
5103,54.0,0,32,1.0,65.0
5104,59.0,0,32,1.0,65.0
5105,47.0,0,32,1.0,65.0
5106,75.0,4,132,0.0,82.0
5107,54.0,0,32,1.0,65.0
5108,63.0,0,32,1.0,65.0
5109,47.0,0,32,1.0,65.0
5110,59.0,24,32,1.0,65.0
5111,61.0,24,88,0.0,47.0
5112,63.0,48,32,1.0,65.0
5113,59.0,0,32,1.0,65.0
5114,47.0,0,32,1.0,65.0
5115,54.0,0,32,1.0,65.0
5116,73.0,0,116,0.0,69.0
5117,54.0,0,32,1.0,65.0
5118,47.0,0,32,1.0,65.0
5119,63.0,8,32,1.0,65.0
5120,59.0,0,32,1.0,65.0
5121,59.0,0,32,1.0,65.0
5122,63.0,48,32,1.0,65.0
5123,47.0,0,32,1.0,65.0
5124,54.0,0,32,1.0,65.0
5125,71.0,40,112,0.0,77.0
5126,59.0,0,112,0.0,61.0
5127,54.0,0,32,1.0,65.0
5128,59.0,48,32,1.0,65.0
5129,63.0,0,32,1.0,65.0
5130,47.0,0,32,1.0,65.0
5131,47.0,36,32,1.0,65.0
5132,63.0,0,32,1.0,65.0
5133,59.0,0,32,1.0,65.0
5134,54.0,0,32,1.0,65.0
5135,70.0,8,104,0.0,71.0
5136,58.0,4,104,0.0,51.0
5137,47.0,0,32,1.0,65.0
5138,59.0,0,32,1.0,65.0
5139,54.0,0,32,1.0,65.0
5140,63.0,48,32,1.0,65.0
5141,54.0,0,32,1.0,65.0
5142,59.0,0,32,1.0,65.0
5143,63.0,8,32,1.0,65.0
5144,47.0,0,32,1.0,65.0
5145,47.0,0,32,1.0,65.0
5146,59.0,0,32,1.0,65.0
5147,63.0,0,32,1.0,65.0
5148,54.0,48,32,1.0,65.0
5149,71.0,32,100,0.0,79.0
5150,59.0,8,108,0.0,64.0
5151,47.0,0,32,1.0,65.0
5152,63.0,0,32,1.0,65.0
5153,59.0,48,32,1.0,65.0
5154,54.0,0,32,1.0,65.0
5155,54.0,0,32,1.0,65.0
5156,63.0,0,32,1.0,65.0
5157,59.0,0,32,1.0,65.0
5158,47.0,28,32,1.0,65.0
5159,63.0,4,96,0.0,68.0
5160,51.0,16,100,0.0,54.0
5161,47.0,0,32,1.0,65.0
5162,63.0,48,32,1.0,65.0
5163,54.0,0,32,1.0,65.0
5164,59.0,0,32,1.0,65.0
5165,59.0,0,32,1.0,65.0
5166,47.0,0,32,1.0,65.0
5167,63.0,48,32,1.0,65.0
5168,54.0,0,32,1.0,65.0
5169,54.0,0,32,1.0,65.0
5170,47.0,0,32,1.0,65.0
5171,59.0,48,32,1.0,65.0
5172,63.0,0,32,1.0,65.0
5173,64.0,0,116,0.0,70.0
5174,52.0,0,120,0.0,59.0
5175,59.0,0,32,1.0,65.0
5176,54.0,48,32,1.0,65.0
5177,63.0,0,32,1.0,65.0
5178,47.0,0,32,1.0,65.0
5179,47.0,16,32,1.0,65.0
5180,63.0,0,32,1.0,65.0
5181,54.0,0,32,1.0,65.0
5182,59.0,0,32,1.0,65.0
5183,47.0,0,32,1.0,65.0
5184,54.0,0,32,1.0,65.0
5185,63.0,48,32,1.0,65.0
5186,59.0,0,32,1.0,65.0
5187,47.0,48,32,1.0,65.0
5188,63.0,0,32,1.0,65.0
5189,59.0,0,32,1.0,65.0
5190,54.0,0,32,1.0,65.0
5191,54.0,8,144,0.0,54.0
5192,66.0,24,200,0.0,69.0
5193,47.0,0,32,1.0,65.0
5194,63.0,48,32,1.0,65.0
5195,59.0,0,32,1.0,65.0
5196,54.0,0,32,1.0,65.0
5197,57.0,0,32,1.0,70.0
5198,48.0,32,32,1.0,70.0
5199,63.0,0,32,1.0,70.0
5200,54.0,0,32,1.0,70.0
5201,54.0,0,32,1.0,70.0
5202,57.0,0,32,1.0,70.0
5203,63.0,48,32,1.0,70.0
5204,48.0,0,32,1.0,70.0
5205,63.0,48,32,1.0,70.0
5206,57.0,0,32,1.0,70.0
5207,54.0,0,32,1.0,70.0
5208,48.0,0,32,1.0,70.0
5209,48.0,0,32,1.0,70.0
5210,57.0,48,32,1.0,70.0
5211,54.0,0,32,1.0,70.0
5212,63.0,0,32,1.0,70.0
5213,69.0,12,252,0.0,68.0
5214,57.0,0,32,1.0,70.0
5215,48.0,0,32,1.0,70.0
5216,54.0,0,32,1.0,70.0
5217,63.0,48,32,1.0,70.0
5218,57.0,0,268,0.0,54.0
5219,54.0,0,32,1.0,70.0
5220,57.0,0,32,1.0,70.0
5221,63.0,0,32,1.0,70.0
5222,48.0,24,32,1.0,70.0
5223,48.0,0,32,1.0,70.0
5224,63.0,0,32,1.0,70.0
5225,57.0,48,32,1.0,70.0
5226,54.0,0,32,1.0,70.0
5227,56.0,12,152,0.0,53.0
5228,48.0,0,32,1.0,70.0
5229,63.0,48,32,1.0,70.0
5230,57.0,0,32,1.0,70.0
5231,54.0,0,32,1.0,70.0
5232,68.0,12,180,0.0,62.0
5233,63.0,0,32,1.0,70.0
5234,57.0,0,32,1.0,70.0
5235,54.0,0,32,1.0,70.0
5236,48.0,20,32,1.0,70.0
5237,63.0,48,32,1.0,70.0
5238,48.0,0,32,1.0,70.0
5239,54.0,0,32,1.0,70.0
5240,57.0,0,32,1.0,70.0
5241,66.0,28,116,0.0,64.0
5242,48.0,0,32,1.0,70.0
5243,57.0,4,32,1.0,70.0
5244,54.0,0,32,1.0,70.0
5245,63.0,0,32,1.0,70.0
5246,54.0,0,156,0.0,53.0
5247,48.0,0,32,1.0,70.0
5248,63.0,0,32,1.0,70.0
5249,57.0,28,32,1.0,70.0
5250,54.0,0,32,1.0,70.0
5251,51.0,20,64,0.0,49.0
5252,63.0,44,112,0.0,63.0
5253,54.0,0,32,1.0,70.0
5254,48.0,0,32,1.0,70.0
5255,63.0,48,32,1.0,70.0
5256,57.0,0,32,1.0,70.0
5257,54.0,0,32,1.0,70.0
5258,63.0,12,32,1.0,70.0
5259,57.0,0,32,1.0,70.0
5260,48.0,0,32,1.0,70.0
5261,57.0,0,32,1.0,70.0
5262,63.0,48,32,1.0,70.0
5263,48.0,0,32,1.0,70.0
5264,54.0,0,32,1.0,70.0
5265,60.0,20,152,0.0,74.0
5266,63.0,0,32,1.0,70.0
5267,57.0,0,32,1.0,70.0
5268,54.0,48,32,1.0,70.0
5269,48.0,0,32,1.0,70.0
5270,48.0,16,144,0.0,71.0
5271,57.0,0,32,1.0,70.0
5272,48.0,48,32,1.0,70.0
5273,54.0,0,32,1.0,70.0
5274,63.0,0,32,1.0,70.0
5275,48.0,0,32,1.0,70.0
5276,63.0,0,32,1.0,70.0
5277,57.0,44,32,1.0,70.0
5278,54.0,0,32,1.0,70.0
5279,48.0,0,32,1.0,70.0
5280,63.0,48,32,1.0,70.0
5281,57.0,0,32,1.0,70.0
5282,54.0,0,32,1.0,70.0
5283,54.0,0,32,1.0,70.0
5284,63.0,48,32,1.0,70.0
5285,48.0,0,32,1.0,70.0
5286,57.0,0,32,1.0,70.0
5287,48.0,0,32,1.0,70.0
5288,63.0,48,32,1.0,70.0
5289,57.0,0,32,1.0,70.0
5290,54.0,0,32,1.0,70.0
5291,54.0,0,32,1.0,70.0
5292,48.0,48,32,1.0,70.0
5293,63.0,0,32,1.0,70.0
5294,57.0,0,32,1.0,70.0
5295,57.0,0,32,1.0,70.0
5296,54.0,0,32,1.0,70.0
5297,63.0,48,32,1.0,70.0
5298,48.0,0,32,1.0,70.0
5299,54.0,48,32,1.0,70.0
5300,57.0,0,32,1.0,70.0
5301,48.0,0,32,1.0,70.0
5302,63.0,0,32,1.0,70.0
5303,48.0,0,32,1.0,70.0
5304,63.0,0,32,1.0,70.0
5305,57.0,0,32,1.0,70.0
5306,54.0,48,32,1.0,70.0
5307,54.0,48,32,1.0,70.0
5308,57.0,0,32,1.0,70.0
5309,63.0,0,32,1.0,70.0
5310,48.0,0,32,1.0,70.0
5311,57.0,0,32,1.0,70.0
5312,54.0,0,32,1.0,70.0
5313,48.0,48,32,1.0,70.0
5314,63.0,0,32,1.0,70.0
5315,48.0,0,32,1.0,70.0
5316,63.0,48,32,1.0,70.0
5317,57.0,0,32,1.0,70.0
5318,54.0,0,32,1.0,70.0
5319,57.0,4,588,0.0,67.0
5320,54.0,48,32,1.0,70.0
5321,57.0,0,32,1.0,70.0
5322,48.0,0,32,1.0,70.0
5323,63.0,0,32,1.0,70.0
5324,45.0,0,628,0.0,55.0
5325,57.0,16,32,1.0,70.0
5326,63.0,0,32,1.0,70.0
5327,54.0,0,32,1.0,70.0
5328,48.0,0,32,1.0,70.0
5329,63.0,0,32,1.0,70.0
5330,48.0,0,32,1.0,70.0
5331,54.0,0,32,1.0,70.0
5332,57.0,48,32,1.0,70.0
5333,54.0,0,32,1.0,70.0
5334,63.0,0,32,1.0,70.0
5335,48.0,48,32,1.0,70.0
5336,57.0,0,32,1.0,70.0
5337,48.0,0,32,1.0,70.0
5338,63.0,48,32,1.0,70.0
5339,57.0,0,32,1.0,70.0
5340,54.0,0,32,1.0,70.0
5341,48.0,0,32,1.0,70.0
5342,63.0,48,32,1.0,70.0
5343,56.0,0,32,1.0,70.0
5344,54.0,0,32,1.0,70.0
5345,56.0,32,256,0.0,40.0
5346,44.0,0,256,0.0,32.0
5347,48.0,0,32,1.0,70.0
5348,63.0,48,32,1.0,70.0
5349,56.0,0,32,1.0,70.0
5350,54.0,0,32,1.0,70.0
5351,54.0,0,32,1.0,70.0
5352,56.0,0,32,1.0,70.0
5353,63.0,48,32,1.0,70.0
5354,48.0,0,32,1.0,70.0
5355,48.0,0,32,1.0,70.0
5356,63.0,48,32,1.0,70.0
5357,56.0,0,32,1.0,70.0
5358,54.0,0,32,1.0,70.0
5359,54.0,0,32,1.0,70.0
5360,56.0,0,32,1.0,70.0
5361,48.0,0,32,1.0,70.0
5362,63.0,48,32,1.0,70.0
5363,48.0,0,32,1.0,70.0
5364,63.0,48,32,1.0,70.0
5365,56.0,0,32,1.0,70.0
5366,54.0,0,32,1.0,70.0
5367,48.0,48,32,1.0,70.0
5368,63.0,0,32,1.0,70.0
5369,56.0,0,32,1.0,70.0
5370,54.0,0,32,1.0,70.0
5371,48.0,0,32,1.0,70.0
5372,63.0,48,32,1.0,70.0
5373,56.0,0,32,1.0,70.0
5374,54.0,0,32,1.0,70.0
5375,63.0,0,32,1.0,70.0
5376,48.0,0,32,1.0,70.0
5377,56.0,0,32,1.0,70.0
5378,54.0,48,32,1.0,70.0
5379,56.0,0,32,1.0,70.0
5380,63.0,48,32,1.0,70.0
5381,48.0,0,32,1.0,70.0
5382,54.0,0,32,1.0,70.0
5383,48.0,0,32,1.0,70.0
5384,63.0,0,32,1.0,70.0
5385,54.0,0,32,1.0,70.0
5386,56.0,48,32,1.0,70.0
5387,48.0,0,32,1.0,70.0
5388,63.0,48,32,1.0,70.0
5389,54.0,0,32,1.0,70.0
5390,56.0,0,32,1.0,70.0
5391,63.0,0,32,1.0,70.0
5392,44.0,0,32,1.0,70.0
5393,54.0,0,32,1.0,70.0
5394,56.0,48,32,1.0,70.0
5395,44.0,44,32,1.0,70.0
5396,63.0,0,32,1.0,70.0
5397,56.0,0,32,1.0,70.0
5398,54.0,0,32,1.0,70.0
5399,54.0,48,32,1.0,70.0
5400,56.0,0,32,1.0,70.0
5401,44.0,0,32,1.0,70.0
5402,63.0,0,32,1.0,70.0
5403,54.0,0,32,1.0,70.0
5404,56.0,0,32,1.0,70.0
5405,44.0,0,32,1.0,70.0
5406,63.0,48,32,1.0,70.0
5407,44.0,0,32,1.0,70.0
5408,63.0,48,32,1.0,70.0
5409,56.0,0,32,1.0,70.0
5410,54.0,0,32,1.0,70.0
5411,54.0,0,32,1.0,70.0
5412,56.0,0,32,1.0,70.0
5413,63.0,48,32,1.0,70.0
5414,44.0,0,32,1.0,70.0
5415,44.0,0,32,1.0,70.0
5416,63.0,48,32,1.0,70.0
5417,56.0,0,32,1.0,70.0
5418,54.0,0,32,1.0,70.0
5419,56.0,0,32,1.0,70.0
5420,54.0,0,32,1.0,70.0
5421,44.0,0,32,1.0,70.0
5422,63.0,48,32,1.0,70.0
5423,54.0,0,32,1.0,70.0
5424,56.0,0,32,1.0,70.0
5425,63.0,48,32,1.0,70.0
5426,44.0,0,32,1.0,70.0
5427,63.0,0,32,1.0,70.0
5428,44.0,0,32,1.0,70.0
5429,56.0,0,32,1.0,70.0
5430,54.0,48,32,1.0,70.0
5431,54.0,0,32,1.0,70.0
5432,56.0,48,32,1.0,70.0
5433,44.0,0,32,1.0,70.0
5434,63.0,0,32,1.0,70.0
5435,44.0,0,32,1.0,70.0
5436,63.0,0,32,1.0,70.0
5437,54.0,0,32,1.0,70.0
5438,56.0,48,32,1.0,70.0
5439,44.0,48,32,1.0,70.0
5440,63.0,0,32,1.0,70.0
5441,56.0,0,32,1.0,70.0
5442,54.0,0,32,1.0,70.0
5443,56.0,0,32,1.0,70.0
5444,52.0,0,32,1.0,70.0
5445,64.0,32,32,1.0,70.0
5446,49.0,0,32,1.0,70.0
5447,78.0,0,640,5.0,50.0
5448,84.0,0,640,5.0,50.0
5449,75.0,0,640,7.0,50.0
5450,68.0,0,640,7.0,50.0
5451,56.0,4,640,4.0,60.0
5452,49.0,0,32,1.0,70.0
5453,64.0,0,32,1.0,70.0
5454,56.0,44,32,1.0,70.0
5455,52.0,0,32,1.0,70.0
5456,49.0,48,32,1.0,70.0
5457,64.0,0,32,1.0,70.0
5458,56.0,0,32,1.0,70.0
5459,52.0,0,32,1.0,70.0
5460,52.0,0,32,1.0,70.0
5461,56.0,0,32,1.0,70.0
5462,49.0,0,32,1.0,70.0
5463,64.0,48,32,1.0,70.0
5464,49.0,0,32,1.0,70.0
5465,64.0,48,32,1.0,70.0
5466,56.0,0,32,1.0,70.0
5467,52.0,0,32,1.0,70.0
5468,49.0,0,32,1.0,70.0
5469,52.0,48,32,1.0,70.0
5470,56.0,0,32,1.0,70.0
5471,64.0,0,32,1.0,70.0
5472,49.0,0,32,1.0,70.0
5473,64.0,0,32,1.0,70.0
5474,56.0,0,32,1.0,70.0
5475,52.0,48,32,1.0,70.0
5476,49.0,48,32,1.0,70.0
5477,64.0,0,32,1.0,70.0
5478,56.0,0,32,1.0,70.0
5479,52.0,0,32,1.0,70.0
5480,49.0,0,32,1.0,70.0
5481,64.0,48,32,1.0,70.0
5482,52.0,0,32,1.0,70.0
5483,56.0,0,32,1.0,70.0
5484,52.0,0,32,1.0,70.0
5485,56.0,0,32,1.0,70.0
5486,64.0,0,32,1.0,70.0
5487,49.0,40,32,1.0,70.0
5488,61.0,8,92,0.0,63.0
5489,49.0,0,116,0.0,45.0
5490,49.0,0,32,1.0,70.0
5491,64.0,0,32,1.0,70.0
5492,56.0,0,32,1.0,70.0
5493,52.0,48,32,1.0,70.0
5494,63.0,0,56,0.0,61.0
5495,51.0,8,64,0.0,62.0
5496,49.0,0,32,1.0,70.0
5497,56.0,40,32,1.0,70.0
5498,52.0,0,32,1.0,70.0
5499,64.0,0,32,1.0,70.0
5500,49.0,0,32,1.0,70.0
5501,64.0,0,32,1.0,70.0
5502,56.0,8,32,1.0,70.0
5503,52.0,0,32,1.0,70.0
5504,64.0,0,64,0.0,62.0
5505,49.0,0,640,4.0,55.0
5506,85.0,4,640,5.0,50.0
5507,61.0,0,640,7.0,50.0
5508,73.0,0,640,7.0,50.0
5509,76.0,0,640,5.0,50.0
5510,52.0,40,84,0.0,66.0
5511,49.0,0,32,1.0,70.0
5512,64.0,0,32,1.0,70.0
5513,56.0,0,32,1.0,70.0
5514,52.0,48,32,1.0,70.0
5515,49.0,0,32,1.0,70.0
5516,56.0,0,32,1.0,70.0
5517,64.0,28,32,1.0,70.0
5518,52.0,0,32,1.0,70.0
5519,54.0,0,84,0.0,53.0
5520,52.0,0,32,1.0,70.0
5521,49.0,4,32,1.0,70.0
5522,64.0,0,32,1.0,70.0
5523,56.0,0,32,1.0,70.0
5524,66.0,20,112,0.0,68.0
5525,56.0,0,32,1.0,70.0
5526,64.0,0,32,1.0,70.0
5527,49.0,48,32,1.0,70.0
5528,52.0,0,32,1.0,70.0
5529,68.0,44,88,0.0,70.0
5530,56.0,0,88,0.0,56.0
5531,70.0,0,40,0.0,73.0
5532,58.0,16,56,0.0,62.0
5533,52.0,0,32,1.0,70.0
5534,56.0,32,32,1.0,70.0
5535,64.0,0,32,1.0,70.0
5536,49.0,0,32,1.0,70.0
5537,49.0,0,32,1.0,70.0
5538,64.0,0,32,1.0,70.0
5539,56.0,8,32,1.0,70.0
5540,52.0,0,32,1.0,70.0
5541,72.0,40,52,0.0,76.0
5542,60.0,0,80,0.0,70.0
5543,64.0,0,32,1.0,70.0
5544,52.0,0,32,1.0,70.0
5545,56.0,48,32,1.0,70.0
5546,49.0,0,32,1.0,70.0
5547,61.0,0,76,0.0,59.0
5548,56.0,0,32,1.0,70.0
5549,49.0,0,32,1.0,70.0
5550,64.0,32,32,1.0,70.0
5551,52.0,0,32,1.0,70.0
5552,73.0,16,88,0.0,77.0
5553,49.0,0,32,1.0,70.0
5554,64.0,0,32,1.0,70.0
5555,56.0,0,32,1.0,70.0
5556,52.0,16,32,1.0,70.0
5557,75.0,32,68,0.0,79.0
5558,63.0,0,84,0.0,67.0
5559,49.0,0,32,1.0,70.0
5560,64.0,48,32,1.0,70.0
5561,56.0,0,32,1.0,70.0
5562,52.0,0,32,1.0,70.0
5563,64.0,0,32,1.0,70.0
5564,56.0,0,32,1.0,70.0
5565,52.0,0,32,1.0,70.0
5566,49.0,28,32,1.0,70.0
5567,47.0,44,32,4.0,60.0
5568,49.0,0,32,1.0,70.0
5569,64.0,4,32,1.0,70.0
5570,56.0,0,32,1.0,70.0
5571,52.0,0,32,1.0,70.0
5572,47.0,44,32,4.0,60.0
5573,49.0,0,32,1.0,70.0
5574,52.0,0,32,1.0,70.0
5575,64.0,4,32,1.0,70.0
5576,56.0,0,32,1.0,70.0
5577,47.0,44,32,4.0,60.0
5578,47.0,0,32,1.0,85.0
5579,64.0,4,32,1.0,85.0
5580,56.0,0,32,1.0,85.0
5581,52.0,0,32,1.0,85.0
5582,47.0,44,32,4.0,60.0
5583,64.0,0,32,1.0,85.0
5584,52.0,0,32,1.0,85.0
5585,56.0,0,32,1.0,85.0
5586,47.0,4,32,1.0,85.0
5587,47.0,44,32,4.0,60.0
5588,47.0,0,32,1.0,85.0
5589,64.0,0,32,1.0,85.0
5590,56.0,4,32,1.0,85.0
5591,52.0,0,32,1.0,85.0
5592,47.0,44,32,4.0,60.0
5593,56.0,4,32,1.0,85.0
5594,52.0,0,32,1.0,85.0
5595,64.0,0,32,1.0,85.0
5596,47.0,0,32,1.0,85.0
5597,47.0,44,32,4.0,60.0
5598,64.0,0,32,1.0,85.0
5599,52.0,4,32,1.0,85.0
5600,56.0,0,32,1.0,85.0
5601,47.0,0,32,1.0,85.0
5602,47.0,44,32,4.0,60.0
5603,64.0,0,32,1.0,85.0
5604,56.0,0,32,1.0,85.0
5605,52.0,4,32,1.0,85.0
5606,47.0,0,32,1.0,85.0
5607,47.0,44,32,4.0,60.0
5608,56.0,0,32,1.0,85.0
5609,47.0,0,32,1.0,85.0
5610,64.0,4,32,1.0,85.0
5611,52.0,0,32,1.0,85.0
5612,64.0,0,504,0.0,82.0
5613,76.0,20,516,0.0,85.0
5614,47.0,4,32,4.0,60.0
5615,47.0,4,32,1.0,85.0
5616,64.0,0,32,1.0,85.0
5617,56.0,0,32,1.0,85.0
5618,52.0,0,32,1.0,85.0
5619,73.0,0,72,0.0,60.0
5620,47.0,44,32,4.0,60.0
5621,56.0,0,32,1.0,85.0
5622,47.0,0,32,1.0,85.0
5623,52.0,0,32,1.0,85.0
5624,64.0,4,32,1.0,85.0
5625,61.0,40,100,0.0,47.0
5626,47.0,0,32,4.0,60.0
5627,47.0,0,32,1.0,85.0
5628,64.0,0,32,1.0,85.0
5629,56.0,4,32,1.0,85.0
5630,52.0,0,32,1.0,85.0
5631,47.0,44,32,4.0,60.0
5632,47.0,0,32,1.0,85.0
5633,76.0,0,84,0.0,68.0
5634,64.0,4,32,1.0,85.0
5635,56.0,0,32,1.0,85.0
5636,52.0,0,32,1.0,85.0
5637,64.0,44,92,0.0,60.0
5638,47.0,8,32,4.0,60.0
5639,56.0,0,32,1.0,85.0
5640,52.0,4,32,1.0,85.0
5641,64.0,0,32,1.0,85.0
5642,47.0,0,32,1.0,85.0
5643,66.0,0,76,0.0,53.0
5644,47.0,44,32,4.0,60.0
5645,52.0,0,32,1.0,85.0
5646,47.0,0,32,1.0,85.0
5647,64.0,4,32,1.0,85.0
5648,56.0,0,32,1.0,85.0
5649,78.0,36,100,0.0,70.0
5650,47.0,24,32,4.0,60.0
5651,52.0,4,32,1.0,85.0
5652,56.0,0,32,1.0,85.0
5653,47.0,0,32,1.0,85.0
5654,64.0,0,32,1.0,85.0
5655,80.0,0,76,0.0,74.0
5656,68.0,20,76,0.0,59.0
5657,82.0,0,36,0.0,76.0
5658,47.0,12,32,4.0,60.0
5659,52.0,0,32,1.0,90.0
5660,56.0,0,32,1.0,90.0
5661,47.0,0,32,1.0,90.0
5662,64.0,4,32,1.0,90.0
5663,70.0,32,60,0.0,67.0
5664,47.0,44,32,4.0,60.0
5665,47.0,0,32,1.0,90.0
5666,52.0,4,32,1.0,90.0
5667,56.0,0,32,1.0,90.0
5668,64.0,0,32,1.0,90.0
5669,84.0,0,48,0.0,82.0
5670,72.0,0,76,0.0,73.0
5671,47.0,44,32,4.0,60.0
5672,56.0,0,32,1.0,90.0
5673,52.0,0,32,1.0,90.0
5674,64.0,0,32,1.0,90.0
5675,47.0,4,32,1.0,90.0
5676,47.0,28,32,4.0,60.0
5677,47.0,0,32,1.0,90.0
5678,64.0,0,32,1.0,90.0
5679,56.0,0,32,1.0,90.0
5680,52.0,4,32,1.0,90.0
5681,85.0,16,72,0.0,83.0
5682,47.0,12,32,4.0,60.0
5683,47.0,0,32,1.0,90.0
5684,64.0,4,32,1.0,90.0
5685,56.0,0,32,1.0,90.0
5686,52.0,0,32,1.0,90.0
5687,73.0,0,136,0.0,68.0
5688,87.0,0,76,0.0,80.0
5689,75.0,32,80,0.0,72.0
5690,47.0,44,32,4.0,60.0
5691,47.0,0,32,1.0,90.0
5692,64.0,4,32,1.0,90.0
5693,56.0,0,32,1.0,90.0
5694,52.0,0,32,1.0,90.0
5695,47.0,24,32,4.0,60.0
5696,47.0,0,32,1.0,90.0
5697,64.0,0,32,1.0,90.0
5698,56.0,0,32,1.0,90.0
5699,52.0,4,32,1.0,90.0
5700,45.0,40,32,4.0,70.0
5701,56.0,8,32,1.0,90.0
5702,64.0,0,32,1.0,90.0
5703,52.0,0,32,1.0,90.0
5704,47.0,0,32,1.0,90.0
5705,45.0,40,32,4.0,70.0
5706,56.0,0,32,1.0,90.0
5707,64.0,0,32,1.0,90.0
5708,47.0,8,32,1.0,90.0
5709,52.0,0,32,1.0,90.0
5710,45.0,40,32,4.0,70.0
5711,88.0,0,212,0.0,86.0
5712,61.0,0,32,1.0,95.0
5713,52.0,0,32,1.0,95.0
5714,64.0,0,32,1.0,95.0
5715,45.0,20,32,1.0,95.0
5716,76.0,20,216,0.0,86.0
5717,45.0,28,32,4.0,70.0
5718,52.0,0,32,1.0,95.0
5719,64.0,0,32,1.0,95.0
5720,61.0,20,32,1.0,95.0
5721,45.0,0,32,1.0,95.0
5722,45.0,0,32,4.0,70.0
5723,45.0,0,32,1.0,95.0
5724,61.0,0,32,1.0,95.0
5725,64.0,20,32,1.0,95.0
5726,52.0,0,32,1.0,95.0
5727,45.0,28,32,4.0,70.0
5728,52.0,0,32,1.0,95.0
5729,61.0,0,32,1.0,95.0
5730,64.0,0,32,1.0,95.0
5731,45.0,20,32,1.0,95.0
5732,85.0,28,104,0.0,73.0
5733,73.0,0,120,0.0,64.0
5734,45.0,28,32,4.0,70.0
5735,45.0,0,32,1.0,95.0
5736,64.0,8,32,1.0,95.0
5737,61.0,0,32,1.0,95.0
5738,52.0,0,32,1.0,95.0
5739,45.0,28,32,4.0,70.0
5740,81.0,12,84,0.0,70.0
5741,45.0,0,32,1.0,95.0
5742,64.0,20,32,1.0,95.0
5743,61.0,0,32,1.0,95.0
5744,52.0,0,32,1.0,95.0
5745,45.0,28,32,4.0,70.0
5746,69.0,0,116,0.0,60.0
5747,61.0,4,32,1.0,95.0
5748,64.0,0,32,1.0,95.0
5749,45.0,0,32,1.0,95.0
5750,52.0,0,32,1.0,95.0
5751,76.0,16,60,0.0,82.0
5752,64.0,0,60,0.0,67.0
5753,45.0,28,32,4.0,70.0
5754,45.0,20,32,1.0,95.0
5755,64.0,0,32,1.0,95.0
5756,61.0,0,32,1.0,95.0
5757,52.0,0,32,1.0,95.0
5758,45.0,28,32,4.0,70.0
5759,52.0,0,32,1.0,95.0
5760,61.0,0,32,1.0,95.0
5761,64.0,20,32,1.0,95.0
5762,45.0,0,32,1.0,95.0
5763,45.0,16,32,4.0,70.0
5764,52.0,0,32,1.0,95.0
5765,61.0,0,32,1.0,95.0
5766,45.0,20,32,1.0,95.0
5767,64.0,0,32,1.0,95.0
5768,61.0,12,88,0.0,69.0
5769,73.0,0,92,0.0,77.0
5770,45.0,28,32,4.0,70.0
5771,52.0,0,32,1.0,95.0
5772,61.0,0,32,1.0,95.0
5773,64.0,0,32,1.0,95.0
5774,45.0,20,32,1.0,95.0
5775,45.0,16,32,4.0,70.0
5776,64.0,0,32,1.0,95.0
5777,45.0,20,32,1.0,95.0
5778,61.0,0,32,1.0,95.0
5779,52.0,0,32,1.0,95.0
5780,69.0,12,76,0.0,74.0
5781,57.0,0,92,0.0,62.0
5782,45.0,28,32,4.0,70.0
5783,64.0,20,32,1.0,95.0
5784,61.0,0,32,1.0,95.0
5785,52.0,0,32,1.0,95.0
5786,45.0,0,32,1.0,95.0
5787,45.0,20,32,4.0,70.0
5788,52.0,8,56,0.0,74.0
5789,45.0,20,32,1.0,95.0
5790,64.0,0,32,1.0,95.0
5791,61.0,0,32,1.0,95.0
5792,52.0,0,32,1.0,95.0
5793,45.0,28,32,4.0,70.0
5794,64.0,0,104,0.0,71.0
5795,64.0,20,32,1.0,95.0
5796,61.0,0,32,1.0,95.0
5797,52.0,0,32,1.0,95.0
5798,45.0,0,32,1.0,95.0
5799,45.0,28,32,4.0,70.0
5800,64.0,20,32,1.0,95.0
5801,45.0,0,32,1.0,95.0
5802,61.0,0,32,1.0,95.0
5803,52.0,0,32,1.0,95.0
5804,45.0,28,32,4.0,70.0
5805,61.0,0,84,0.0,71.0
5806,49.0,0,88,0.0,58.0
5807,45.0,0,32,1.0,95.0
5808,64.0,20,32,1.0,95.0
5809,61.0,0,32,1.0,95.0
5810,52.0,0,32,1.0,95.0
5811,45.0,28,32,4.0,70.0
5812,45.0,0,32,1.0,95.0
5813,64.0,20,32,1.0,95.0
5814,61.0,0,32,1.0,95.0
5815,52.0,0,32,1.0,95.0
5816,45.0,28,32,4.0,70.0
5817,50.0,0,84,0.0,73.0
5818,62.0,0,92,0.0,82.0
5819,61.0,0,32,1.0,95.0
5820,45.0,0,32,1.0,95.0
5821,64.0,0,32,1.0,95.0
5822,52.0,20,32,1.0,95.0
5823,45.0,0,32,4.0,70.0
5824,45.0,0,32,1.0,95.0
5825,64.0,20,32,1.0,95.0
5826,61.0,0,32,1.0,95.0
5827,52.0,0,32,1.0,95.0
5828,45.0,28,32,4.0,70.0
5829,45.0,0,32,1.0,95.0
5830,64.0,0,32,1.0,95.0
5831,61.0,0,32,1.0,95.0
5832,52.0,20,32,1.0,95.0
5833,64.0,0,104,0.0,76.0
5834,52.0,28,104,0.0,76.0
5835,45.0,28,32,4.0,70.0
5836,45.0,0,32,1.0,95.0
5837,64.0,4,32,1.0,95.0
5838,61.0,0,32,1.0,95.0
5839,52.0,0,32,1.0,95.0
5840,45.0,28,32,4.0,70.0
5841,52.0,0,32,1.0,95.0
5842,61.0,0,32,1.0,95.0
5843,45.0,20,32,1.0,95.0
5844,64.0,0,32,1.0,95.0
5845,45.0,28,32,4.0,70.0
5846,52.0,0,32,1.0,95.0
5847,45.0,0,32,1.0,95.0
5848,64.0,0,32,1.0,95.0
5849,61.0,20,32,1.0,95.0
5850,45.0,28,32,4.0,70.0
5851,45.0,20,32,1.0,95.0
5852,64.0,0,32,1.0,95.0
5853,61.0,0,32,1.0,95.0
5854,52.0,0,32,1.0,95.0
5855,45.0,28,32,4.0,70.0
5856,61.0,0,32,1.0,95.0
5857,64.0,20,32,1.0,95.0
5858,52.0,0,32,1.0,95.0
5859,45.0,0,32,1.0,95.0
5860,45.0,28,32,4.0,70.0
5861,45.0,0,32,1.0,95.0
5862,64.0,0,32,1.0,95.0
5863,61.0,20,32,1.0,95.0
5864,52.0,0,32,1.0,95.0
5865,45.0,28,32,4.0,70.0
5866,45.0,20,32,1.0,95.0
5867,64.0,0,32,1.0,95.0
5868,61.0,0,32,1.0,95.0
5869,52.0,0,32,1.0,95.0
5870,45.0,28,32,4.0,70.0
5871,64.0,0,32,1.0,95.0
5872,61.0,0,32,1.0,95.0
5873,52.0,0,32,1.0,95.0
5874,45.0,20,32,1.0,95.0
5875,45.0,28,32,4.0,70.0
5876,64.0,20,32,1.0,95.0
5877,45.0,0,32,1.0,95.0
5878,52.0,0,32,1.0,95.0
5879,61.0,0,32,1.0,95.0
5880,45.0,28,32,4.0,70.0
5881,52.0,20,32,1.0,95.0
5882,61.0,0,32,1.0,95.0
5883,64.0,0,32,1.0,95.0
5884,45.0,0,32,1.0,95.0
5885,45.0,28,32,4.0,70.0
5886,61.0,0,32,1.0,95.0
5887,52.0,0,32,1.0,95.0
5888,64.0,0,32,1.0,95.0
5889,45.0,20,32,1.0,95.0
5890,45.0,28,32,4.0,70.0
5891,64.0,0,32,1.0,95.0
5892,61.0,0,32,1.0,95.0
5893,52.0,0,32,1.0,95.0
5894,45.0,20,32,1.0,95.0
5895,45.0,28,32,4.0,70.0
5896,57.0,0,608,0.0,82.0
5897,45.0,16,608,0.0,88.0
5898,64.0,0,32,1.0,95.0
5899,61.0,0,32,1.0,95.0
5900,52.0,20,32,1.0,95.0
5901,45.0,0,32,1.0,95.0
5902,45.0,12,32,4.0,70.0
5903,45.0,0,32,1.0,95.0
5904,61.0,0,32,1.0,95.0
5905,64.0,20,32,1.0,95.0
5906,52.0,0,32,1.0,95.0
5907,43.0,16,72,0.0,74.0
5908,45.0,28,32,4.0,70.0
5909,55.0,0,96,0.0,72.0
5910,45.0,0,32,1.0,95.0
5911,64.0,0,32,1.0,95.0
5912,61.0,4,32,1.0,95.0
5913,52.0,0,32,1.0,95.0
5914,45.0,28,32,4.0,70.0
5915,44.0,0,68,0.0,74.0
5916,56.0,16,80,0.0,74.0
5917,45.0,20,32,1.0,95.0
5918,64.0,0,32,1.0,95.0
5919,61.0,0,32,1.0,95.0
5920,52.0,0,32,1.0,95.0
5921,45.0,28,32,4.0,70.0
5922,61.0,16,32,1.0,95.0
5923,64.0,0,32,1.0,95.0
5924,45.0,0,32,1.0,95.0
5925,52.0,0,32,1.0,95.0
5926,45.0,0,60,0.0,70.0
5927,57.0,4,72,0.0,70.0
5928,45.0,28,32,4.0,70.0
5929,52.0,0,32,1.0,95.0
5930,61.0,20,32,1.0,95.0
5931,64.0,0,32,1.0,95.0
5932,45.0,0,32,1.0,95.0
5933,45.0,24,32,4.0,70.0
5934,44.0,0,60,0.0,58.0
5935,56.0,4,72,0.0,73.0
5936,45.0,48,32,4.0,70.0
5937,61.0,0,32,1.0,95.0
5938,64.0,0,32,1.0,95.0
5939,52.0,0,32,1.0,95.0
5940,44.0,8,32,1.0,95.0
5941,45.0,4,60,0.0,58.0
5942,57.0,0,68,0.0,74.0
5943,45.0,36,32,4.0,70.0
5944,64.0,0,32,1.0,95.0
5945,61.0,0,32,1.0,95.0
5946,52.0,12,32,1.0,95.0
5947,44.0,0,32,1.0,95.0
5948,44.0,0,56,0.0,65.0
5949,45.0,32,32,4.0,70.0
5950,56.0,4,64,0.0,73.0
5951,52.0,0,32,1.0,95.0
5952,61.0,12,32,1.0,95.0
5953,64.0,0,32,1.0,95.0
5954,44.0,0,32,1.0,95.0
5955,45.0,12,32,4.0,70.0
5956,64.0,0,32,1.0,95.0
5957,61.0,0,32,1.0,95.0
5958,52.0,0,32,1.0,95.0
5959,44.0,12,32,1.0,95.0
5960,45.0,24,60,0.0,66.0
5961,57.0,0,84,0.0,70.0
5962,45.0,36,32,4.0,70.0
5963,52.0,0,32,1.0,95.0
5964,61.0,0,32,1.0,95.0
5965,64.0,0,32,1.0,95.0
5966,44.0,4,32,1.0,95.0
5967,45.0,36,32,4.0,70.0
5968,64.0,0,32,1.0,95.0
5969,61.0,12,32,1.0,95.0
5970,52.0,0,32,1.0,95.0
5971,44.0,0,32,1.0,95.0
5972,56.0,0,88,0.0,70.0
5973,44.0,8,92,0.0,62.0
5974,45.0,8,32,4.0,70.0
5975,44.0,0,32,1.0,95.0
5976,64.0,12,32,1.0,95.0
5977,61.0,0,32,1.0,95.0
5978,52.0,0,32,1.0,95.0
5979,45.0,36,32,4.0,70.0
5980,55.0,28,92,0.0,73.0
5981,64.0,0,32,1.0,95.0
5982,52.0,0,32,1.0,95.0
5983,44.0,12,32,1.0,95.0
5984,61.0,0,32,1.0,95.0
5985,43.0,0,104,0.0,66.0
5986,45.0,32,32,4.0,70.0
5987,61.0,0,32,1.0,95.0
5988,64.0,12,32,1.0,95.0
5989,44.0,0,32,1.0,95.0
5990,52.0,0,32,1.0,95.0
5991,44.0,0,100,0.0,71.0
5992,56.0,4,104,0.0,74.0
5993,45.0,36,32,4.0,70.0
5994,61.0,12,32,1.0,95.0
5995,52.0,0,32,1.0,95.0
5996,64.0,0,32,1.0,95.0
5997,44.0,0,32,1.0,95.0
5998,45.0,16,32,4.0,70.0
5999,44.0,0,32,1.0,95.0
6000,64.0,0,32,1.0,95.0
6001,61.0,0,32,1.0,95.0
6002,52.0,12,32,1.0,95.0
6003,44.0,0,32,1.0,95.0
6004,64.0,48,32,1.0,95.0
6005,61.0,0,32,1.0,95.0
6006,52.0,0,32,1.0,95.0
6007,51.0,0,32,1.0,95.0
6008,58.0,0,32,1.0,95.0
6009,63.0,84,32,1.0,95.0
6010,43.0,0,32,1.0,95.0
6011,51.0,0,32,1.0,95.0
6012,58.0,0,32,1.0,95.0
6013,63.0,0,32,1.0,95.0
6014,43.0,48,32,1.0,95.0
6015,43.0,0,32,1.0,95.0
6016,63.0,0,32,1.0,95.0
6017,58.0,0,32,1.0,95.0
6018,51.0,48,32,1.0,95.0
6019,63.0,48,32,1.0,95.0
6020,58.0,0,32,1.0,95.0
6021,43.0,0,32,1.0,95.0
6022,51.0,0,32,1.0,95.0
6023,43.0,0,32,1.0,95.0
6024,63.0,0,32,1.0,95.0
6025,58.0,48,32,1.0,95.0
6026,51.0,0,32,1.0,95.0
6027,43.0,0,32,1.0,95.0
6028,63.0,48,32,1.0,95.0
6029,58.0,0,32,1.0,95.0
6030,51.0,0,32,1.0,95.0
6031,51.0,0,32,1.0,95.0
6032,58.0,0,32,1.0,95.0
6033,63.0,0,32,1.0,95.0
6034,43.0,48,32,1.0,95.0
6035,55.0,8,496,0.0,75.0
6036,43.0,12,524,0.0,69.0
6037,43.0,0,32,1.0,95.0
6038,63.0,0,32,1.0,95.0
6039,58.0,0,32,1.0,95.0
6040,51.0,48,32,1.0,95.0
6041,43.0,48,32,1.0,95.0
6042,63.0,0,32,1.0,95.0
6043,58.0,0,32,1.0,95.0
6044,51.0,0,32,1.0,95.0
6045,63.0,0,32,1.0,95.0
6046,58.0,0,32,1.0,95.0
6047,51.0,0,32,1.0,95.0
6048,43.0,48,32,1.0,95.0
6049,43.0,48,32,1.0,95.0
6050,63.0,0,32,1.0,95.0
6051,58.0,0,32,1.0,95.0
6052,51.0,0,32,1.0,95.0
6053,43.0,36,32,1.0,95.0
6054,63.0,0,32,1.0,95.0
6055,58.0,0,32,1.0,95.0
6056,51.0,0,32,1.0,95.0
6057,56.0,0,80,0.0,55.0
6058,43.0,0,32,1.0,95.0
6059,63.0,0,32,1.0,95.0
6060,58.0,48,32,1.0,95.0
6061,51.0,0,32,1.0,95.0
6062,44.0,12,120,0.0,47.0
6063,58.0,0,44,0.0,56.0
6064,46.0,0,48,0.0,51.0
6065,51.0,0,32,1.0,95.0
6066,58.0,0,32,1.0,95.0
6067,63.0,48,32,1.0,95.0
6068,43.0,0,32,1.0,95.0
6069,47.0,20,60,0.0,58.0
6070,63.0,28,32,1.0,95.0
6071,58.0,0,32,1.0,95.0
6072,43.0,0,32,1.0,95.0
6073,51.0,0,32,1.0,95.0
6074,59.0,0,64,0.0,58.0
6075,51.0,0,32,1.0,95.0
6076,58.0,0,32,1.0,95.0
6077,63.0,12,32,1.0,95.0
6078,43.0,0,32,1.0,95.0
6079,49.0,36,72,0.0,67.0
6080,61.0,0,72,0.0,60.0
6081,51.0,0,32,1.0,95.0
6082,63.0,48,32,1.0,95.0
6083,43.0,0,32,1.0,95.0
6084,58.0,0,32,1.0,95.0
6085,63.0,4,44,0.0,62.0
6086,51.0,0,48,0.0,69.0
6087,51.0,0,32,1.0,95.0
6088,43.0,0,32,1.0,95.0
6089,58.0,44,32,1.0,95.0
6090,63.0,0,32,1.0,95.0
6091,43.0,0,32,1.0,95.0
6092,63.0,32,32,1.0,95.0
6093,58.0,0,32,1.0,95.0
6094,51.0,0,32,1.0,95.0
6095,65.0,0,68,0.0,71.0
6096,53.0,16,68,0.0,60.0
6097,51.0,12,32,1.0,95.0
6098,63.0,0,32,1.0,95.0
6099,58.0,0,32,1.0,95.0
6100,43.0,0,32,1.0,95.0
6101,55.0,0,48,0.0,74.0
6102,67.0,36,80,0.0,74.0
6103,51.0,4,32,1.0,95.0
6104,58.0,0,32,1.0,95.0
6105,63.0,0,32,1.0,95.0
6106,43.0,0,32,1.0,95.0
6107,56.0,0,72,0.0,71.0
6108,68.0,44,84,0.0,69.0
6109,63.0,0,32,1.0,95.0
6110,43.0,0,32,1.0,95.0
6111,58.0,48,32,1.0,95.0
6112,51.0,0,32,1.0,95.0
6113,70.0,12,36,0.0,73.0
6114,58.0,0,40,0.0,68.0
6115,58.0,36,32,1.0,95.0
6116,63.0,0,32,1.0,95.0
6117,43.0,0,32,1.0,95.0
6118,51.0,0,32,1.0,95.0
6119,71.0,16,44,0.0,65.0
6120,58.0,0,32,1.0,95.0
6121,43.0,0,32,1.0,95.0
6122,63.0,32,32,1.0,95.0
6123,51.0,0,32,1.0,95.0
6124,59.0,0,76,0.0,74.0
6125,61.0,0,52,0.0,60.0
6126,51.0,0,32,1.0,95.0
6127,58.0,0,32,1.0,95.0
6128,63.0,24,32,1.0,95.0
6129,43.0,0,32,1.0,95.0
6130,73.0,24,64,0.0,76.0
6131,51.0,0,32,1.0,95.0
6132,58.0,0,32,1.0,95.0
6133,43.0,0,32,1.0,95.0
6134,63.0,4,32,1.0,95.0
6135,43.0,0,32,1.0,95.0
6136,63.0,0,32,1.0,95.0
6137,58.0,0,32,1.0,95.0
6138,51.0,48,32,1.0,95.0
6139,43.0,0,32,1.0,95.0
6140,58.0,0,32,1.0,95.0
6141,63.0,48,32,1.0,95.0
6142,51.0,0,32,1.0,95.0
6143,44.0,0,32,1.0,100.0
6144,63.0,0,32,1.0,100.0
6145,59.0,64,32,1.0,100.0
6146,51.0,0,32,1.0,100.0
6147,63.0,48,32,1.0,100.0
6148,51.0,0,32,1.0,100.0
6149,44.0,0,32,1.0,100.0
6150,59.0,0,32,1.0,100.0
6151,44.0,0,32,1.0,100.0
6152,63.0,48,32,1.0,100.0
6153,59.0,0,32,1.0,100.0
6154,51.0,0,32,1.0,100.0
6155,44.0,0,32,1.0,100.0
6156,59.0,0,32,1.0,100.0
6157,51.0,0,32,1.0,100.0
6158,63.0,48,32,1.0,100.0
6159,63.0,48,32,1.0,100.0
6160,59.0,0,32,1.0,100.0
6161,51.0,0,32,1.0,100.0
6162,44.0,0,32,1.0,100.0
6163,44.0,0,32,1.0,100.0
6164,63.0,48,32,1.0,100.0
6165,59.0,0,32,1.0,100.0
6166,51.0,0,32,1.0,100.0
6167,75.0,8,460,0.0,91.0
6168,63.0,36,472,0.0,78.0
6169,44.0,48,32,1.0,100.0
6170,59.0,0,32,1.0,100.0
6171,51.0,0,32,1.0,100.0
6172,63.0,0,32,1.0,100.0
6173,44.0,0,32,1.0,100.0
6174,63.0,48,32,1.0,100.0
6175,59.0,0,32,1.0,100.0
6176,51.0,0,32,1.0,100.0
6177,51.0,0,32,1.0,100.0
6178,59.0,0,32,1.0,100.0
6179,44.0,0,32,1.0,100.0
6180,63.0,48,32,1.0,100.0
6181,51.0,0,32,1.0,100.0
6182,63.0,8,32,1.0,100.0
6183,59.0,0,32,1.0,100.0
6184,44.0,0,32,1.0,100.0
6185,63.0,48,32,1.0,100.0
6186,44.0,0,32,1.0,100.0
6187,59.0,0,32,1.0,100.0
6188,51.0,0,32,1.0,100.0
6189,59.0,40,92,0.0,56.0
6190,71.0,0,92,0.0,59.0
6191,75.0,12,52,0.0,69.0
6192,63.0,0,60,0.0,59.0
6193,51.0,0,32,1.0,100.0
6194,59.0,0,32,1.0,100.0
6195,44.0,36,32,1.0,100.0
6196,63.0,0,32,1.0,100.0
6197,65.0,36,44,0.0,64.0
6198,51.0,0,32,1.0,105.0
6199,59.0,0,32,1.0,105.0
6200,63.0,0,32,1.0,105.0
6201,42.0,20,32,1.0,105.0
6202,77.0,0,56,0.0,76.0
6203,51.0,0,32,1.0,105.0
6204,59.0,48,32,1.0,105.0
6205,63.0,0,32,1.0,105.0
6206,42.0,0,32,1.0,105.0
6207,67.0,0,60,0.0,60.0
6208,51.0,0,32,1.0,105.0
6209,59.0,0,32,1.0,105.0
6210,63.0,48,32,1.0,105.0
6211,42.0,0,32,1.0,105.0
6212,79.0,0,92,0.0,74.0
6213,59.0,0,32,1.0,105.0
6214,51.0,0,32,1.0,105.0
6215,63.0,0,32,1.0,105.0
6216,42.0,32,32,1.0,105.0
6217,68.0,16,68,0.0,64.0
6218,80.0,0,76,0.0,77.0
6219,82.0,32,24,0.0,62.0
6220,70.0,0,40,0.0,61.0
6221,63.0,0,32,1.0,105.0
6222,59.0,0,32,1.0,105.0
6223,42.0,0,32,1.0,105.0
6224,51.0,16,32,1.0,105.0
6225,63.0,0,32,1.0,105.0
6226,51.0,16,32,1.0,105.0
6227,59.0,0,32,1.0,105.0
6228,42.0,0,32,1.0,105.0
6229,83.0,32,56,0.0,77.0
6230,71.0,0,76,0.0,64.0
6231,59.0,0,32,1.0,105.0
6232,63.0,8,32,1.0,105.0
6233,42.0,0,32,1.0,105.0
6234,51.0,0,32,1.0,105.0
6235,73.0,0,68,0.0,67.0
6236,85.0,40,80,0.0,76.0
6237,42.0,0,32,1.0,105.0
6238,63.0,48,32,1.0,105.0
6239,59.0,0,32,1.0,105.0
6240,51.0,0,32,1.0,105.0
6241,63.0,24,32,1.0,105.0
6242,51.0,0,32,1.0,105.0
6243,42.0,0,32,1.0,105.0
6244,59.0,0,32,1.0,105.0
6245,63.0,0,32,1.0,105.0
6246,42.0,0,32,1.0,105.0
6247,59.0,12,32,1.0,105.0
6248,51.0,0,32,1.0,105.0
6249,59.0,0,32,1.0,105.0
6250,63.0,0,32,1.0,105.0
6251,42.0,48,32,1.0,105.0
6252,51.0,0,32,1.0,105.0
6253,59.0,0,32,1.0,105.0
6254,56.0,0,32,1.0,105.0
6255,40.0,0,32,1.0,105.0
6256,63.0,40,32,1.0,105.0
6257,87.0,24,200,0.0,86.0
6258,75.0,0,240,0.0,67.0
6259,40.0,0,32,1.0,105.0
6260,63.0,12,32,1.0,105.0
6261,56.0,0,32,1.0,105.0
6262,59.0,0,32,1.0,105.0
6263,59.0,0,32,1.0,105.0
6264,56.0,48,32,1.0,105.0
6265,63.0,0,32,1.0,105.0
6266,40.0,0,32,1.0,105.0
6267,83.0,0,108,0.0,70.0
6268,71.0,36,116,0.0,60.0
6269,56.0,0,32,1.0,105.0
6270,40.0,0,32,1.0,105.0
6271,59.0,0,32,1.0,105.0
6272,63.0,0,32,1.0,105.0
6273,68.0,44,80,0.0,49.0
6274,56.0,0,32,1.0,105.0
6275,59.0,0,32,1.0,105.0
6276,63.0,48,32,1.0,105.0
6277,40.0,0,32,1.0,105.0
6278,80.0,4,92,0.0,74.0
6279,40.0,0,32,1.0,105.0
6280,63.0,0,32,1.0,105.0
6281,56.0,0,32,1.0,105.0
6282,59.0,8,32,1.0,105.0
6283,52.0,36,384,4.0,65.0
6284,63.0,0,56,0.0,46.0
6285,75.0,40,76,0.0,70.0
6286,40.0,0,32,1.0,105.0
6287,59.0,0,32,1.0,105.0
6288,56.0,48,32,1.0,105.0
6289,63.0,0,32,1.0,105.0
6290,59.0,8,32,1.0,105.0
6291,56.0,0,32,1.0,105.0
6292,63.0,0,32,1.0,105.0
6293,40.0,0,32,1.0,105.0
6294,71.0,40,84,0.0,68.0
6295,56.0,0,32,1.0,105.0
6296,59.0,0,32,1.0,105.0
6297,63.0,48,32,1.0,105.0
6298,40.0,0,32,1.0,105.0
6299,83.0,0,92,0.0,75.0
6300,40.0,0,32,1.0,105.0
6301,63.0,16,32,1.0,105.0
6302,56.0,0,32,1.0,105.0
6303,59.0,0,32,1.0,105.0
6304,40.0,0,32,1.0,105.0
6305,63.0,0,32,1.0,105.0
6306,56.0,0,32,1.0,105.0
6307,59.0,48,32,1.0,105.0
6308,68.0,0,96,0.0,54.0
6309,80.0,28,108,0.0,77.0
6310,63.0,12,64,0.0,52.0
6311,59.0,0,32,1.0,105.0
6312,56.0,0,32,1.0,105.0
6313,40.0,0,32,1.0,105.0
6314,63.0,36,32,1.0,105.0
6315,75.0,0,76,0.0,78.0
6316,59.0,8,32,1.0,105.0
6317,40.0,0,32,1.0,105.0
6318,63.0,0,32,1.0,105.0
6319,56.0,0,32,1.0,105.0
6320,71.0,0,60,0.0,78.0
6321,59.0,40,72,0.0,65.0
6322,59.0,0,32,1.0,105.0
6323,56.0,0,32,1.0,105.0
6324,63.0,0,32,1.0,105.0
6325,40.0,48,32,1.0,105.0
6326,40.0,0,32,1.0,105.0
6327,63.0,12,32,1.0,105.0
6328,56.0,0,32,1.0,105.0
6329,59.0,0,32,1.0,105.0
6330,56.0,36,92,0.0,56.0
6331,63.0,0,32,1.0,105.0
6332,56.0,0,32,1.0,105.0
6333,59.0,0,32,1.0,105.0
6334,40.0,48,32,1.0,105.0
6335,68.0,0,112,0.0,61.0
6336,52.0,4,384,4.0,65.0
6337,59.0,0,32,1.0,105.0
6338,56.0,0,32,1.0,105.0
6339,40.0,16,32,1.0,105.0
6340,63.0,0,32,1.0,105.0
6341,51.0,32,60,0.0,62.0
6342,63.0,0,88,0.0,63.0
6343,40.0,4,32,1.0,105.0
6344,63.0,0,32,1.0,105.0
6345,56.0,0,32,1.0,105.0
6346,59.0,0,32,1.0,105.0
6347,59.0,0,32,1.0,105.0
6348,56.0,0,32,1.0,105.0
6349,63.0,0,32,1.0,105.0
6350,40.0,16,32,1.0,105.0
6351,47.0,0,84,0.0,53.0
6352,59.0,48,32,1.0,105.0
6353,56.0,0,32,1.0,105.0
6354,63.0,0,32,1.0,105.0
6355,40.0,0,32,1.0,105.0
6356,59.0,32,96,0.0,69.0
6357,56.0,0,32,1.0,105.0
6358,40.0,24,32,1.0,105.0
6359,63.0,0,32,1.0,105.0
6360,59.0,0,32,1.0,105.0
6361,52.0,44,216,4.0,65.0
6362,44.0,0,100,0.0,60.0
6363,56.0,24,100,0.0,65.0
6364,63.0,48,32,1.0,105.0
6365,56.0,0,32,1.0,105.0
6366,59.0,0,32,1.0,105.0
6367,40.0,0,32,1.0,105.0
6368,40.0,0,32,1.0,105.0
6369,63.0,0,32,1.0,105.0
6370,59.0,0,32,1.0,105.0
6371,56.0,48,32,1.0,105.0
6372,40.0,0,32,1.0,105.0
6373,63.0,40,32,1.0,105.0
6374,56.0,0,32,1.0,105.0
6375,59.0,0,32,1.0,105.0
6376,50.0,0,100,0.0,55.0
6377,62.0,0,104,0.0,74.0
6378,44.0,32,68,0.0,58.0
6379,40.0,0,32,1.0,95.0
6380,62.0,60,32,1.0,95.0
6381,56.0,0,32,1.0,95.0
6382,59.0,0,32,1.0,95.0
6383,56.0,0,92,0.0,76.0
6384,59.0,0,32,1.0,95.0
6385,40.0,0,32,1.0,95.0
6386,62.0,12,32,1.0,95.0
6387,56.0,0,32,1.0,95.0
6388,45.0,36,68,0.0,66.0
6389,57.0,0,88,0.0,77.0
6390,59.0,0,32,1.0,95.0
6391,56.0,0,32,1.0,95.0
6392,62.0,48,32,1.0,95.0
6393,40.0,0,32,1.0,95.0
6394,59.0,0,32,1.0,95.0
6395,56.0,0,32,1.0,95.0
6396,62.0,20,32,1.0,95.0
6397,40.0,0,32,1.0,95.0
6398,58.0,0,76,0.0,78.0
6399,46.0,28,80,0.0,67.0
6400,40.0,0,32,1.0,95.0
6401,62.0,0,32,1.0,95.0
6402,56.0,48,32,1.0,95.0
6403,59.0,0,32,1.0,95.0
6404,52.0,8,384,0.0,65.0
6405,59.0,0,32,1.0,95.0
6406,56.0,0,32,1.0,95.0
6407,40.0,32,32,1.0,95.0
6408,62.0,0,32,1.0,95.0
6409,52.0,20,384,4.0,65.0
6410,47.0,0,100,0.0,71.0
6411,59.0,16,100,0.0,80.0
6412,40.0,0,32,1.0,95.0
6413,62.0,0,32,1.0,95.0
6414,56.0,48,32,1.0,95.0
6415,59.0,0,32,1.0,95.0
6416,56.0,0,32,1.0,95.0
6417,40.0,32,32,1.0,95.0
6418,62.0,0,32,1.0,95.0
6419,59.0,0,32,1.0,95.0
6420,49.0,0,84,0.0,82.0
6421,61.0,0,92,0.0,61.0
6422,59.0,0,32,1.0,95.0
6423,56.0,0,32,1.0,95.0
6424,40.0,20,32,1.0,95.0
6425,62.0,0,32,1.0,95.0
6426,59.0,0,32,1.0,95.0
6427,56.0,0,32,1.0,95.0
6428,62.0,36,32,1.0,95.0
6429,40.0,0,32,1.0,95.0
6430,59.0,0,84,0.0,78.0
6431,47.0,12,96,0.0,66.0
6432,59.0,0,32,1.0,95.0
6433,62.0,0,32,1.0,95.0
6434,40.0,8,32,1.0,95.0
6435,56.0,0,32,1.0,95.0
6436,46.0,40,72,0.0,58.0
6437,40.0,48,32,1.0,95.0
6438,62.0,0,32,1.0,95.0
6439,56.0,0,32,1.0,95.0
6440,59.0,0,32,1.0,95.0
6441,58.0,0,92,0.0,76.0
6442,40.0,0,32,1.0,95.0
6443,56.0,0,32,1.0,95.0
6444,59.0,12,32,1.0,95.0
6445,62.0,0,32,1.0,95.0
6446,40.0,0,32,1.0,95.0
6447,62.0,48,32,1.0,95.0
6448,44.0,0,92,0.0,61.0
6449,56.0,0,32,1.0,95.0
6450,59.0,0,32,1.0,95.0
6451,56.0,36,108,0.0,73.0
6452,52.0,16,384,0.0,65.0
6453,62.0,0,32,1.0,90.0
6454,40.0,0,32,1.0,90.0
6455,56.0,0,32,1.0,90.0
6456,52.0,28,384,4.0,65.0
6457,62.0,0,32,1.0,90.0
6458,56.0,0,32,1.0,90.0
6459,40.0,0,32,1.0,90.0
6460,43.0,0,96,0.0,70.0
6461,55.0,44,96,0.0,66.0
6462,62.0,12,32,1.0,90.0
6463,56.0,0,32,1.0,90.0
6464,40.0,0,32,1.0,90.0
6465,62.0,0,32,1.0,90.0
6466,56.0,0,32,1.0,90.0
6467,40.0,0,32,1.0,90.0
6468,56.0,0,100,0.0,72.0
6469,44.0,36,108,0.0,56.0
6470,56.0,0,32,1.0,90.0
6471,62.0,12,32,1.0,90.0
6472,40.0,0,32,1.0,90.0
6473,42.0,0,76,0.0,63.0
6474,62.0,48,32,1.0,90.0
6475,56.0,0,32,1.0,90.0
6476,40.0,0,32,1.0,90.0
6477,54.0,36,128,0.0,70.0
6478,40.0,0,32,1.0,90.0
6479,62.0,0,32,1.0,90.0
6480,56.0,0,32,1.0,90.0
6481,62.0,0,32,1.0,90.0
6482,56.0,0,32,1.0,90.0
6483,40.0,36,32,1.0,90.0
6484,62.0,48,32,1.0,90.0
6485,56.0,0,32,1.0,90.0
6486,40.0,0,32,1.0,90.0
6487,56.0,0,32,1.0,90.0
6488,52.0,0,164,0.0,63.0
6489,62.0,0,32,1.0,90.0
6490,40.0,0,32,1.0,90.0
6491,40.0,12,172,0.0,67.0
6492,56.0,0,32,1.0,90.0
6493,62.0,0,32,1.0,90.0
6494,40.0,24,32,1.0,90.0
6495,56.0,0,32,1.0,90.0
6496,62.0,0,32,1.0,90.0
6497,40.0,0,32,1.0,90.0
6498,51.0,0,32,1.0,80.0
6499,63.0,0,32,1.0,80.0
6500,39.0,72,32,1.0,80.0
6501,51.0,0,32,1.0,80.0
6502,63.0,0,32,1.0,80.0
6503,39.0,48,32,1.0,80.0
6504,63.0,48,32,1.0,80.0
6505,39.0,0,32,1.0,80.0
6506,51.0,0,32,1.0,80.0
6507,39.0,0,32,1.0,80.0
6508,51.0,48,32,1.0,80.0
6509,63.0,0,32,1.0,80.0
6510,63.0,0,32,1.0,80.0
6511,51.0,0,32,1.0,80.0
6512,39.0,48,32,1.0,80.0
6513,63.0,0,32,1.0,80.0
6514,51.0,0,32,1.0,80.0
6515,39.0,48,32,1.0,80.0
6516,39.0,0,432,0.0,57.0
6517,51.0,36,384,4.0,60.0
6518,51.0,24,444,0.0,62.0
6519,51.0,48,32,1.0,80.0
6520,39.0,0,32,1.0,80.0
6521,63.0,0,32,1.0,80.0
6522,63.0,0,32,1.0,80.0
6523,51.0,0,32,1.0,80.0
6524,39.0,48,32,1.0,80.0
6525,51.0,0,32,1.0,80.0
6526,63.0,0,32,1.0,80.0
6527,39.0,48,32,1.0,80.0
6528,39.0,0,32,1.0,80.0
6529,51.0,0,32,1.0,80.0
6530,63.0,48,32,1.0,80.0
6531,39.0,0,32,1.0,80.0
6532,63.0,48,32,1.0,80.0
6533,51.0,0,32,1.0,80.0
6534,63.0,0,32,1.0,80.0
6535,51.0,0,32,1.0,80.0
6536,39.0,48,32,1.0,80.0
6537,51.0,0,32,1.0,80.0
6538,63.0,44,32,1.0,80.0
6539,39.0,0,32,1.0,80.0
6540,51.0,0,32,1.0,75.0
6541,58.0,0,32,1.0,75.0
6542,55.0,0,32,1.0,75.0
6543,63.0,40,32,1.0,75.0
6544,55.0,0,32,1.0,75.0
6545,58.0,0,32,1.0,75.0
6546,63.0,0,32,1.0,75.0
6547,51.0,48,32,1.0,75.0
6548,55.0,48,32,1.0,75.0
6549,58.0,0,32,1.0,75.0
6550,63.0,0,32,1.0,75.0
6551,51.0,0,32,1.0,75.0
6552,55.0,48,32,1.0,75.0
6553,58.0,0,32,1.0,75.0
6554,51.0,0,32,1.0,75.0
6555,63.0,0,32,1.0,75.0
6556,55.0,0,32,1.0,75.0
6557,63.0,48,32,1.0,75.0
6558,51.0,0,32,1.0,75.0
6559,58.0,0,32,1.0,75.0
6560,63.0,48,32,1.0,75.0
6561,55.0,0,32,1.0,75.0
6562,51.0,0,32,1.0,75.0
6563,58.0,0,32,1.0,75.0
6564,51.0,0,32,1.0,75.0
6565,63.0,0,32,1.0,75.0
6566,58.0,48,32,1.0,75.0
6567,55.0,0,32,1.0,75.0
6568,51.0,48,32,1.0,75.0
6569,63.0,0,32,1.0,75.0
6570,58.0,0,32,1.0,75.0
6571,55.0,0,32,1.0,75.0
6572,55.0,0,32,1.0,75.0
6573,58.0,0,32,1.0,75.0
6574,51.0,0,32,1.0,75.0
6575,63.0,48,32,1.0,75.0
6576,58.0,0,32,1.0,75.0
6577,63.0,0,32,1.0,75.0
6578,51.0,0,32,1.0,75.0
6579,55.0,48,32,1.0,75.0
6580,55.0,0,32,1.0,75.0
6581,58.0,0,32,1.0,75.0
6582,63.0,48,32,1.0,75.0
6583,51.0,0,32,1.0,75.0
6584,55.0,0,32,1.0,75.0
6585,58.0,0,32,1.0,75.0
6586,63.0,0,32,1.0,75.0
6587,51.0,48,32,1.0,75.0
6588,63.0,0,32,1.0,75.0
6589,55.0,48,32,1.0,75.0
6590,58.0,0,32,1.0,75.0
6591,51.0,0,32,1.0,75.0
6592,61.0,0,32,1.0,75.0
6593,56.0,0,32,1.0,75.0
6594,52.0,40,32,1.0,75.0
6595,52.0,0,32,1.0,75.0
6596,56.0,48,32,1.0,75.0
6597,61.0,0,32,1.0,75.0
6598,56.0,0,32,1.0,75.0
6599,61.0,48,32,1.0,75.0
6600,52.0,0,32,1.0,75.0
6601,52.0,0,32,1.0,75.0
6602,56.0,0,32,1.0,75.0
6603,61.0,48,32,1.0,75.0
6604,61.0,0,32,1.0,75.0
6605,52.0,0,32,1.0,75.0
6606,56.0,48,32,1.0,75.0
6607,52.0,0,32,1.0,75.0
6608,56.0,0,32,1.0,75.0
6609,61.0,48,32,1.0,75.0
6610,52.0,0,32,1.0,75.0
6611,56.0,0,32,1.0,75.0
6612,61.0,48,32,1.0,75.0
6613,52.0,48,32,1.0,75.0
6614,56.0,0,32,1.0,75.0
6615,61.0,0,32,1.0,75.0
6616,52.0,0,32,1.0,75.0
6617,56.0,0,32,1.0,75.0
6618,61.0,48,32,1.0,75.0
6619,56.0,0,32,1.0,75.0
6620,52.0,0,32,1.0,75.0
6621,61.0,48,32,1.0,75.0
6622,52.0,48,32,1.0,75.0
6623,56.0,0,32,1.0,75.0
6624,61.0,0,32,1.0,75.0
6625,52.0,0,32,1.0,75.0
6626,56.0,0,32,1.0,75.0
6627,61.0,20,32,1.0,75.0
6628,49.0,0,32,1.0,75.0
6629,64.0,8,32,1.0,75.0
6630,61.0,0,32,1.0,75.0
6631,56.0,0,32,1.0,75.0
6632,49.0,48,32,1.0,75.0
6633,64.0,0,32,1.0,75.0
6634,61.0,0,32,1.0,75.0
6635,56.0,0,32,1.0,75.0
6636,75.0,28,156,0.0,58.0
6637,63.0,0,156,0.0,45.0
6638,61.0,0,32,1.0,75.0
6639,56.0,0,32,1.0,75.0
6640,49.0,4,32,1.0,75.0
6641,64.0,0,32,1.0,75.0
6642,61.0,48,32,1.0,75.0
6643,49.0,0,32,1.0,75.0
6644,64.0,0,32,1.0,75.0
6645,56.0,0,32,1.0,75.0
6646,56.0,0,32,1.0,75.0
6647,61.0,0,32,1.0,75.0
6648,64.0,48,32,1.0,75.0
6649,49.0,0,32,1.0,75.0
6650,73.0,44,152,0.0,67.0
6651,61.0,0,156,0.0,45.0
6652,64.0,0,32,1.0,75.0
6653,61.0,0,32,1.0,75.0
6654,56.0,0,32,1.0,75.0
6655,49.0,20,32,1.0,75.0
6656,49.0,48,32,1.0,75.0
6657,64.0,0,32,1.0,75.0
6658,61.0,0,32,1.0,75.0
6659,56.0,0,32,1.0,75.0
6660,75.0,28,132,0.0,74.0
6661,63.0,0,132,0.0,58.0
6662,56.0,0,32,1.0,75.0
6663,64.0,48,32,1.0,75.0
6664,61.0,0,32,1.0,75.0
6665,49.0,0,32,1.0,75.0
6666,49.0,40,384,4.0,60.0
6667,56.0,0,32,1.0,75.0
6668,61.0,0,32,1.0,75.0
6669,49.0,24,32,1.0,75.0
6670,64.0,0,32,1.0,75.0
6671,64.0,48,32,1.0,75.0
6672,61.0,0,32,1.0,75.0
6673,49.0,0,32,1.0,75.0
6674,56.0,0,32,1.0,75.0
6675,76.0,0,136,0.0,82.0
6676,56.0,0,32,1.0,75.0
6677,61.0,0,32,1.0,75.0
6678,64.0,0,32,1.0,75.0
6679,64.0,24,152,0.0,62.0
6680,49.0,48,32,1.0,75.0
6681,56.0,0,32,1.0,75.0
6682,61.0,0,32,1.0,75.0
6683,64.0,0,32,1.0,75.0
6684,49.0,28,32,1.0,75.0
6685,64.0,0,32,1.0,75.0
6686,61.0,0,32,1.0,75.0
6687,56.0,0,32,1.0,75.0
6688,49.0,48,32,1.0,75.0
6689,73.0,20,148,0.0,76.0
6690,61.0,0,152,0.0,60.0
6691,56.0,0,32,1.0,75.0
6692,61.0,0,32,1.0,75.0
6693,64.0,48,32,1.0,75.0
6694,49.0,0,32,1.0,75.0
6695,56.0,44,32,1.0,75.0
6696,49.0,0,32,1.0,75.0
6697,64.0,0,32,1.0,75.0
6698,61.0,0,32,1.0,75.0
6699,49.0,0,32,1.0,75.0
6700,56.0,0,32,1.0,75.0
6701,61.0,0,32,1.0,75.0
6702,64.0,48,32,1.0,75.0
6703,49.0,0,32,1.0,75.0
6704,56.0,40,32,1.0,75.0
6705,61.0,0,32,1.0,75.0
6706,64.0,0,32,1.0,75.0
6707,70.0,0,180,0.0,71.0
6708,58.0,4,192,0.0,50.0
6709,49.0,8,112,4.0,60.0
6710,61.0,0,32,1.0,75.0
6711,49.0,0,32,1.0,75.0
6712,64.0,0,32,1.0,75.0
6713,56.0,12,32,1.0,75.0
6714,61.0,0,32,1.0,75.0
6715,56.0,48,32,1.0,75.0
6716,49.0,0,32,1.0,75.0
6717,64.0,0,32,1.0,75.0
6718,51.0,0,32,1.0,70.0
6719,63.0,64,32,1.0,70.0
6720,58.0,0,32,1.0,70.0
6721,55.0,0,32,1.0,70.0
6722,51.0,0,32,1.0,70.0
6723,63.0,48,32,1.0,70.0
6724,58.0,0,32,1.0,70.0
6725,55.0,0,32,1.0,70.0
6726,51.0,0,32,1.0,70.0
6727,63.0,0,32,1.0,70.0
6728,58.0,48,32,1.0,70.0
6729,55.0,0,32,1.0,70.0
6730,51.0,0,32,1.0,70.0
6731,63.0,48,32,1.0,70.0
6732,58.0,0,32,1.0,70.0
6733,55.0,0,32,1.0,70.0
6734,55.0,0,32,1.0,70.0
6735,58.0,48,32,1.0,70.0
6736,63.0,0,32,1.0,70.0
6737,51.0,0,32,1.0,70.0
6738,51.0,0,32,1.0,70.0
6739,63.0,0,32,1.0,70.0
6740,58.0,48,32,1.0,70.0
6741,55.0,0,32,1.0,70.0
6742,51.0,0,32,1.0,70.0
6743,63.0,0,32,1.0,70.0
6744,58.0,0,32,1.0,70.0
6745,55.0,48,32,1.0,70.0
6746,63.0,48,32,1.0,70.0
6747,51.0,0,32,1.0,70.0
6748,58.0,0,32,1.0,70.0
6749,55.0,0,32,1.0,70.0
6750,51.0,0,32,1.0,70.0
6751,63.0,0,32,1.0,70.0
6752,58.0,0,32,1.0,70.0
6753,55.0,48,32,1.0,70.0
6754,51.0,0,32,1.0,70.0
6755,63.0,48,32,1.0,70.0
6756,58.0,0,32,1.0,70.0
6757,55.0,0,32,1.0,70.0
6758,51.0,0,544,4.0,59.0
6759,51.0,48,32,1.0,70.0
6760,63.0,0,32,1.0,70.0
6761,58.0,0,32,1.0,70.0
6762,55.0,0,32,1.0,70.0
6763,56.0,0,664,0.0,51.0
6764,68.0,36,676,0.0,65.0
6765,55.0,0,32,1.0,70.0
6766,51.0,0,32,1.0,70.0
6767,63.0,48,32,1.0,70.0
6768,58.0,0,32,1.0,70.0
6769,51.0,0,32,1.0,70.0
6770,63.0,0,32,1.0,70.0
6771,55.0,0,32,1.0,70.0
6772,58.0,44,32,1.0,70.0
6773,58.0,0,32,1.0,70.0
6774,51.0,0,32,1.0,70.0
6775,55.0,0,32,1.0,70.0
6776,63.0,48,32,1.0,70.0
6777,55.0,0,32,1.0,70.0
6778,58.0,0,32,1.0,70.0
6779,63.0,0,32,1.0,70.0
6780,51.0,48,32,1.0,70.0
6781,51.0,0,32,1.0,70.0
6782,63.0,0,32,1.0,70.0
6783,58.0,0,32,1.0,70.0
6784,55.0,48,32,1.0,70.0
6785,58.0,0,32,1.0,70.0
6786,51.0,0,32,1.0,70.0
6787,63.0,48,32,1.0,70.0
6788,55.0,0,32,1.0,70.0
6789,51.0,0,32,1.0,70.0
6790,63.0,48,32,1.0,70.0
6791,58.0,0,32,1.0,70.0
6792,55.0,0,32,1.0,70.0
6793,55.0,0,32,1.0,70.0
6794,58.0,0,32,1.0,70.0
6795,63.0,0,32,1.0,70.0
6796,51.0,48,32,1.0,70.0
6797,58.0,0,32,1.0,70.0
6798,51.0,48,32,1.0,70.0
6799,63.0,0,32,1.0,70.0
6800,55.0,0,32,1.0,70.0
6801,55.0,0,440,0.0,42.0
6802,51.0,0,32,1.0,70.0
6803,63.0,0,32,1.0,70.0
6804,58.0,48,32,1.0,70.0
6805,55.0,0,32,1.0,70.0
6806,51.0,0,32,1.0,70.0
6807,63.0,0,32,1.0,70.0
6808,58.0,0,32,1.0,70.0
6809,55.0,48,32,1.0,70.0
6810,67.0,4,524,0.0,43.0
6811,58.0,0,32,1.0,70.0
6812,51.0,0,32,1.0,70.0
6813,63.0,48,32,1.0,70.0
6814,55.0,0,32,1.0,70.0
6815,63.0,48,32,1.0,70.0
6816,51.0,0,32,1.0,70.0
6817,55.0,0,32,1.0,70.0
6818,58.0,0,32,1.0,70.0
6819,55.0,16,32,1.0,70.0
6820,51.0,0,32,1.0,70.0
6821,63.0,0,32,1.0,70.0
6822,58.0,0,32,1.0,70.0
6823,51.0,0,32,1.0,70.0
6824,63.0,0,32,1.0,70.0
6825,58.0,48,32,1.0,70.0
6826,55.0,0,32,1.0,70.0
6827,63.0,0,100,0.0,46.0
6828,75.0,32,104,0.0,69.0
6829,51.0,48,32,1.0,70.0
6830,63.0,0,32,1.0,70.0
6831,58.0,0,32,1.0,70.0
6832,55.0,0,32,1.0,70.0
6833,63.0,0,32,1.0,70.0
6834,51.0,0,32,1.0,70.0
6835,58.0,48,32,1.0,70.0
6836,55.0,0,32,1.0,70.0
6837,58.0,0,32,1.0,70.0
6838,55.0,0,32,1.0,70.0
6839,51.0,0,32,1.0,70.0
6840,63.0,28,32,1.0,70.0
6841,55.0,0,32,1.0,70.0
6842,58.0,0,32,1.0,70.0
6843,63.0,48,32,1.0,70.0
6844,51.0,0,32,1.0,70.0
6845,75.0,0,144,0.0,69.0
6846,61.0,0,32,1.0,70.0
6847,63.0,20,156,0.0,46.0
6848,52.0,48,32,1.0,70.0
6849,56.0,0,32,1.0,70.0
6850,52.0,0,32,1.0,70.0
6851,56.0,24,32,1.0,70.0
6852,61.0,0,32,1.0,70.0
6853,64.0,0,92,0.0,62.0
6854,56.0,0,32,1.0,70.0
6855,61.0,48,32,1.0,70.0
6856,52.0,0,32,1.0,70.0
6857,76.0,24,112,0.0,77.0
6858,61.0,48,32,1.0,70.0
6859,56.0,0,32,1.0,70.0
6860,52.0,0,32,1.0,70.0
6861,61.0,0,32,1.0,70.0
6862,52.0,40,32,1.0,70.0
6863,56.0,0,32,1.0,70.0
6864,75.0,0,100,0.0,75.0
6865,63.0,8,104,0.0,57.0
6866,52.0,48,32,1.0,70.0
6867,56.0,0,32,1.0,70.0
6868,61.0,0,32,1.0,70.0
6869,52.0,0,32,1.0,70.0
6870,56.0,0,32,1.0,70.0
6871,61.0,16,32,1.0,70.0
6872,56.0,48,32,1.0,70.0
6873,61.0,0,32,1.0,70.0
6874,52.0,0,32,1.0,70.0
6875,73.0,0,112,0.0,72.0
6876,56.0,0,32,1.0,70.0
6877,61.0,4,32,1.0,70.0
6878,52.0,0,32,1.0,70.0
6879,61.0,32,156,0.0,45.0
6880,52.0,0,32,1.0,70.0
6881,56.0,0,32,1.0,70.0
6882,61.0,48,32,1.0,70.0
6883,52.0,0,32,1.0,70.0
6884,56.0,48,32,1.0,70.0
6885,61.0,0,32,1.0,70.0
6886,63.0,44,172,0.0,64.0
6887,52.0,0,32,1.0,70.0
6888,56.0,0,32,1.0,70.0
6889,61.0,48,32,1.0,70.0
6890,75.0,0,212,0.0,82.0
6891,52.0,12,32,1.0,70.0
6892,56.0,0,32,1.0,70.0
6893,61.0,0,32,1.0,70.0
6894,52.0,48,32,1.0,70.0
6895,56.0,0,32,1.0,70.0
6896,61.0,0,32,1.0,70.0
6897,49.0,0,32,1.0,70.0
6898,64.0,0,32,1.0,70.0
6899,61.0,0,32,1.0,70.0
6900,56.0,60,32,1.0,70.0
6901,49.0,0,32,1.0,70.0
6902,64.0,0,32,1.0,70.0
6903,61.0,0,32,1.0,70.0
6904,56.0,48,32,1.0,70.0
6905,66.0,36,244,0.0,50.0
6906,49.0,0,32,1.0,70.0
6907,64.0,48,32,1.0,70.0
6908,61.0,0,32,1.0,70.0
6909,56.0,0,32,1.0,70.0
6910,78.0,0,248,0.0,70.0
6911,49.0,0,32,1.0,70.0
6912,64.0,12,32,1.0,70.0
6913,61.0,0,32,1.0,70.0
6914,56.0,0,32,1.0,70.0
6915,61.0,0,32,1.0,70.0
6916,64.0,0,32,1.0,70.0
6917,49.0,48,32,1.0,70.0
6918,56.0,0,32,1.0,70.0
6919,49.0,0,32,1.0,70.0
6920,64.0,48,32,1.0,70.0
6921,61.0,0,32,1.0,70.0
6922,56.0,0,32,1.0,70.0
6923,64.0,36,152,0.0,63.0
6924,76.0,0,180,0.0,74.0
6925,49.0,48,32,1.0,70.0
6926,61.0,0,32,1.0,70.0
6927,56.0,0,32,1.0,70.0
6928,64.0,0,32,1.0,70.0
6929,49.0,0,384,4.0,60.0
6930,56.0,28,32,1.0,70.0
6931,49.0,0,32,1.0,70.0
6932,61.0,0,32,1.0,70.0
6933,64.0,0,32,1.0,70.0
6934,64.0,48,32,1.0,70.0
6935,56.0,0,32,1.0,70.0
6936,49.0,0,32,1.0,70.0
6937,61.0,0,32,1.0,70.0
6938,56.0,0,32,1.0,70.0
6939,61.0,0,32,1.0,70.0
6940,64.0,24,32,1.0,70.0
6941,49.0,0,32,1.0,70.0
6942,73.0,20,176,0.0,67.0
6943,61.0,0,196,0.0,55.0
6944,49.0,0,32,1.0,70.0
6945,56.0,0,32,1.0,70.0
6946,61.0,0,32,1.0,70.0
6947,64.0,48,32,1.0,70.0
6948,49.0,24,120,4.0,60.0
6949,56.0,0,32,1.0,70.0
6950,61.0,0,32,1.0,70.0
6951,64.0,0,32,1.0,70.0
6952,49.0,28,32,1.0,70.0
6953,49.0,0,32,1.0,70.0
6954,64.0,16,32,1.0,70.0
6955,61.0,0,32,1.0,70.0
6956,56.0,0,32,1.0,70.0
6957,63.0,0,32,1.0,75.0
6958,58.0,0,32,1.0,75.0
6959,51.0,40,32,1.0,75.0
6960,55.0,0,32,1.0,75.0
6961,55.0,0,32,1.0,75.0
6962,58.0,0,32,1.0,75.0
6963,63.0,48,32,1.0,75.0
6964,51.0,0,32,1.0,75.0
6965,51.0,0,32,1.0,75.0
6966,63.0,48,32,1.0,75.0
6967,58.0,0,32,1.0,75.0
6968,55.0,0,32,1.0,75.0
6969,51.0,48,32,1.0,75.0
6970,63.0,0,32,1.0,75.0
6971,58.0,0,32,1.0,75.0
6972,55.0,0,32,1.0,75.0
6973,71.0,0,320,0.0,64.0
6974,59.0,20,328,0.0,57.0
6975,51.0,0,32,1.0,75.0
6976,63.0,0,32,1.0,75.0
6977,58.0,8,32,1.0,75.0
6978,55.0,0,32,1.0,75.0
6979,51.0,48,32,1.0,75.0
6980,63.0,0,32,1.0,75.0
6981,58.0,0,32,1.0,75.0
6982,55.0,0,32,1.0,75.0
6983,51.0,0,32,1.0,75.0
6984,63.0,48,32,1.0,75.0
6985,58.0,0,32,1.0,75.0
6986,55.0,0,32,1.0,75.0
6987,58.0,0,32,1.0,75.0
6988,63.0,0,32,1.0,75.0
6989,51.0,48,32,1.0,75.0
6990,55.0,0,32,1.0,75.0
6991,58.0,0,204,0.0,54.0
6992,51.0,48,32,1.0,75.0
6993,63.0,0,32,1.0,75.0
6994,55.0,0,32,1.0,75.0
6995,58.0,0,32,1.0,75.0
6996,70.0,40,240,0.0,61.0
6997,51.0,32,504,4.0,60.0
6998,63.0,0,32,1.0,75.0
6999,58.0,48,32,1.0,75.0
7000,55.0,0,32,1.0,75.0
7001,51.0,0,32,1.0,75.0
7002,55.0,0,32,1.0,75.0
7003,51.0,0,32,1.0,75.0
7004,63.0,16,32,1.0,75.0
7005,58.0,0,32,1.0,75.0
7006,58.0,0,32,1.0,75.0
7007,51.0,48,32,1.0,75.0
7008,55.0,0,32,1.0,75.0
7009,63.0,0,32,1.0,75.0
7010,51.0,12,32,1.0,75.0
7011,58.0,0,32,1.0,75.0
7012,55.0,0,32,1.0,75.0
7013,63.0,0,32,1.0,75.0
7014,58.0,0,148,0.0,58.0
7015,70.0,32,160,0.0,73.0
7016,55.0,0,32,1.0,75.0
7017,63.0,48,32,1.0,75.0
7018,51.0,0,32,1.0,75.0
7019,58.0,0,32,1.0,75.0
7020,51.0,0,32,1.0,75.0
7021,63.0,0,32,1.0,75.0
7022,58.0,8,32,1.0,75.0
7023,55.0,0,32,1.0,75.0
7024,55.0,0,32,1.0,75.0
7025,58.0,0,32,1.0,75.0
7026,63.0,48,32,1.0,75.0
7027,51.0,0,32,1.0,75.0
7028,70.0,0,104,0.0,77.0
7029,58.0,40,108,0.0,56.0
7030,51.0,0,32,1.0,75.0
7031,55.0,48,32,1.0,75.0
7032,58.0,0,32,1.0,75.0
7033,63.0,0,32,1.0,75.0
7034,63.0,0,32,1.0,75.0
7035,55.0,0,32,1.0,75.0
7036,58.0,0,32,1.0,75.0
7037,51.0,48,32,1.0,75.0
7038,58.0,44,32,1.0,75.0
7039,51.0,0,32,1.0,75.0
7040,55.0,0,32,1.0,75.0
7041,63.0,0,32,1.0,75.0
7042,58.0,0,100,0.0,62.0
7043,70.0,4,116,0.0,71.0
7044,51.0,0,32,1.0,75.0
7045,63.0,0,32,1.0,75.0
7046,58.0,0,32,1.0,75.0
7047,55.0,48,32,1.0,75.0
7048,63.0,36,384,10.0,50.0
7049,51.0,0,384,10.0,50.0
7050,63.0,0,32,1.0,75.0
7051,58.0,0,32,1.0,75.0
7052,55.0,0,32,1.0,75.0
7053,51.0,0,32,1.0,75.0
7054,51.0,16,32,1.0,75.0
7055,63.0,0,32,1.0,75.0
7056,55.0,0,32,1.0,75.0
7057,58.0,0,32,1.0,75.0
7058,63.0,0,124,10.0,50.0
7059,51.0,0,32,1.0,75.0
7060,58.0,0,32,1.0,75.0
7061,63.0,0,32,1.0,75.0
7062,51.0,48,128,10.0,50.0
7063,55.0,4,32,1.0,75.0
7064,63.0,0,32,1.0,70.0
7065,59.0,0,32,1.0,70.0
7066,44.0,12,32,1.0,70.0
7067,56.0,0,32,1.0,70.0
7068,56.0,0,32,1.0,70.0
7069,59.0,0,32,1.0,70.0
7070,63.0,0,32,1.0,70.0
7071,44.0,48,32,1.0,70.0
7072,59.0,0,32,1.0,70.0
7073,63.0,0,32,1.0,70.0
7074,56.0,48,32,1.0,70.0
7075,44.0,0,32,1.0,70.0
7076,44.0,0,32,1.0,70.0
7077,63.0,0,32,1.0,70.0
7078,59.0,48,32,1.0,70.0
7079,56.0,0,32,1.0,70.0
7080,58.0,0,316,0.0,56.0
7081,63.0,48,32,1.0,70.0
7082,44.0,0,32,1.0,70.0
7083,59.0,0,32,1.0,70.0
7084,56.0,0,32,1.0,70.0
7085,70.0,32,336,0.0,63.0
7086,56.0,0,32,1.0,70.0
7087,59.0,0,32,1.0,70.0
7088,44.0,40,32,1.0,70.0
7089,63.0,0,32,1.0,70.0
7090,56.0,0,32,1.0,70.0
7091,59.0,48,32,1.0,70.0
7092,63.0,0,32,1.0,70.0
7093,44.0,0,32,1.0,70.0
7094,56.0,0,164,0.0,51.0
7095,44.0,48,32,1.0,70.0
7096,56.0,0,32,1.0,70.0
7097,59.0,0,32,1.0,70.0
7098,63.0,0,32,1.0,70.0
7099,68.0,8,172,0.0,64.0
7100,56.0,0,32,1.0,70.0
7101,63.0,0,32,1.0,70.0
7102,44.0,12,32,1.0,70.0
7103,59.0,0,32,1.0,70.0
7104,56.0,44,504,4.0,63.0
7105,59.0,0,32,1.0,70.0
7106,44.0,48,32,1.0,70.0
7107,63.0,0,32,1.0,70.0
7108,56.0,0,32,1.0,70.0
7109,63.0,0,32,1.0,70.0
7110,44.0,48,32,1.0,70.0
7111,56.0,0,32,1.0,70.0
7112,59.0,0,32,1.0,70.0
7113,56.0,0,32,1.0,70.0
7114,63.0,48,32,1.0,70.0
7115,59.0,0,32,1.0,70.0
7116,44.0,0,32,1.0,70.0
7117,58.0,0,192,0.0,53.0
7118,70.0,36,220,0.0,67.0
7119,56.0,8,32,1.0,70.0
7120,44.0,0,32,1.0,70.0
7121,63.0,0,32,1.0,70.0
7122,59.0,0,32,1.0,70.0
7123,63.0,0,32,1.0,70.0
7124,56.0,0,32,1.0,70.0
7125,59.0,48,32,1.0,70.0
7126,44.0,0,32,1.0,70.0
7127,59.0,0,32,1.0,70.0
7128,44.0,0,32,1.0,70.0
7129,63.0,48,32,1.0,70.0
7130,56.0,0,32,1.0,70.0
7131,59.0,0,32,1.0,70.0
7132,63.0,48,32,1.0,70.0
7133,56.0,0,32,1.0,70.0
7134,44.0,0,32,1.0,70.0
7135,71.0,0,188,0.0,73.0
7136,59.0,40,212,0.0,52.0
7137,63.0,0,32,1.0,70.0
7138,44.0,0,32,1.0,70.0
7139,56.0,0,32,1.0,70.0
7140,59.0,12,32,1.0,70.0
7141,44.0,0,32,1.0,70.0
7142,63.0,0,32,1.0,70.0
7143,59.0,48,32,1.0,70.0
7144,56.0,0,32,1.0,70.0
7145,56.0,0,32,1.0,70.0
7146,59.0,0,32,1.0,70.0
7147,63.0,48,32,1.0,70.0
7148,44.0,0,32,1.0,70.0
7149,70.0,0,148,0.0,67.0
7150,58.0,36,152,0.0,54.0
7151,44.0,0,32,1.0,70.0
7152,63.0,8,32,1.0,70.0
7153,59.0,0,32,1.0,70.0
7154,56.0,0,32,1.0,70.0
7155,59.0,48,32,1.0,70.0
7156,56.0,0,32,1.0,70.0
7157,63.0,0,32,1.0,70.0
7158,44.0,0,32,1.0,70.0
7159,44.0,0,32,1.0,70.0
7160,63.0,48,32,1.0,70.0
7161,59.0,0,32,1.0,70.0
7162,56.0,0,32,1.0,70.0
7163,56.0,40,164,0.0,53.0
7164,68.0,0,184,0.0,64.0
7165,59.0,0,32,1.0,70.0
7166,63.0,48,32,1.0,70.0
7167,44.0,0,32,1.0,70.0
7168,56.0,0,32,1.0,70.0
7169,44.0,0,32,1.0,70.0
7170,63.0,12,32,1.0,70.0
7171,59.0,0,32,1.0,70.0
7172,56.0,0,32,1.0,70.0
7173,59.0,0,32,1.0,70.0
7174,56.0,0,32,1.0,70.0
7175,44.0,0,32,1.0,70.0
7176,63.0,48,32,1.0,70.0
7177,56.0,0,32,1.0,70.0
7178,59.0,0,32,1.0,70.0
7179,63.0,48,32,1.0,70.0
7180,44.0,0,32,1.0,70.0
7181,47.0,0,172,0.0,54.0
7182,59.0,0,32,1.0,70.0
7183,56.0,0,32,1.0,70.0
7184,63.0,0,32,1.0,70.0
7185,44.0,48,32,1.0,70.0
7186,59.0,36,220,0.0,52.0
7187,56.0,0,32,1.0,70.0
7188,59.0,12,32,1.0,70.0
7189,63.0,0,32,1.0,70.0
7190,44.0,0,32,1.0,70.0
7191,59.0,0,32,1.0,70.0
7192,44.0,0,32,1.0,70.0
7193,63.0,0,32,1.0,70.0
7194,56.0,48,32,1.0,70.0
7195,56.0,0,32,1.0,70.0
7196,59.0,0,32,1.0,70.0
7197,63.0,0,32,1.0,70.0
7198,44.0,48,32,1.0,70.0
7199,63.0,0,32,1.0,70.0
7200,59.0,48,32,1.0,70.0
7201,44.0,0,32,1.0,70.0
7202,56.0,0,32,1.0,70.0
7203,56.0,0,32,1.0,70.0
7204,59.0,0,32,1.0,70.0
7205,63.0,0,32,1.0,70.0
7206,44.0,48,32,1.0,70.0
7207,61.0,0,240,0.0,56.0
7208,49.0,36,248,0.0,51.0
7209,51.0,0,1544,10.0,50.0
7210,63.0,36,1548,10.0,50.0
7211,59.0,4,32,1.0,70.0
7212,56.0,0,32,1.0,70.0
7213,63.0,0,32,1.0,70.0
7214,44.0,0,32,1.0,70.0
7215,59.0,0,32,1.0,70.0
7216,44.0,48,32,1.0,70.0
7217,56.0,0,32,1.0,70.0
7218,63.0,0,32,1.0,70.0
7219,63.0,0,32,1.0,70.0
7220,58.0,32,32,1.0,70.0
7221,55.0,0,32,1.0,70.0
7222,51.0,0,32,1.0,70.0
7223,58.0,0,32,1.0,70.0
7224,55.0,0,32,1.0,70.0
7225,63.0,48,32,1.0,70.0
7226,51.0,0,32,1.0,70.0
7227,55.0,0,32,1.0,70.0
7228,51.0,0,32,1.0,70.0
7229,58.0,0,32,1.0,70.0
7230,63.0,48,32,1.0,70.0
7231,63.0,48,32,1.0,70.0
7232,58.0,0,32,1.0,70.0
7233,55.0,0,32,1.0,70.0
7234,51.0,0,32,1.0,70.0
7235,58.0,0,32,1.0,70.0
7236,55.0,0,32,1.0,70.0
7237,63.0,48,32,1.0,70.0
7238,51.0,0,32,1.0,70.0
7239,63.0,48,32,1.0,70.0
7240,51.0,0,32,1.0,70.0
7241,58.0,0,32,1.0,70.0
7242,55.0,0,32,1.0,70.0
7243,55.0,0,32,1.0,70.0
7244,58.0,0,32,1.0,70.0
7245,63.0,48,32,1.0,70.0
7246,51.0,0,32,1.0,70.0
7247,51.0,0,376,10.0,60.0
7248,63.0,12,376,10.0,60.0
7249,58.0,48,32,1.0,70.0
7250,55.0,0,32,1.0,70.0
7251,51.0,0,32,1.0,70.0
7252,63.0,0,32,1.0,70.0
7253,51.0,0,32,1.0,70.0
7254,55.0,0,32,1.0,70.0
7255,58.0,0,32,1.0,70.0
7256,63.0,48,32,1.0,70.0
7257,51.0,8,504,4.0,60.0
7258,55.0,0,32,1.0,70.0
7259,58.0,0,32,1.0,70.0
7260,63.0,0,32,1.0,70.0
7261,51.0,48,32,1.0,70.0
7262,55.0,0,32,1.0,70.0
7263,51.0,0,32,1.0,70.0
7264,63.0,0,32,1.0,70.0
7265,58.0,48,32,1.0,70.0
7266,51.0,0,32,1.0,70.0
7267,58.0,16,32,1.0,70.0
7268,63.0,0,32,1.0,70.0
7269,55.0,0,32,1.0,70.0
7270,51.0,0,32,1.0,70.0
7271,63.0,48,32,1.0,70.0
7272,58.0,0,32,1.0,70.0
7273,55.0,0,32,1.0,70.0
7274,55.0,0,32,1.0,70.0
7275,58.0,0,32,1.0,70.0
7276,63.0,0,32,1.0,70.0
7277,51.0,48,32,1.0,70.0
7278,51.0,48,32,1.0,70.0
7279,63.0,0,32,1.0,70.0
7280,58.0,0,32,1.0,70.0
7281,55.0,0,32,1.0,70.0
7282,55.0,48,32,1.0,70.0
7283,51.0,0,32,1.0,70.0
7284,63.0,0,32,1.0,70.0
7285,58.0,0,32,1.0,70.0
7286,63.0,44,868,0.0,54.0
7287,63.0,0,256,10.0,65.0
7288,51.0,32,256,10.0,65.0
7289,51.0,0,880,0.0,49.0
7290,55.0,0,32,1.0,70.0
7291,51.0,0,32,1.0,70.0
7292,58.0,0,32,1.0,70.0
7293,63.0,48,32,1.0,70.0
7294,51.0,0,32,1.0,70.0
7295,63.0,0,32,1.0,70.0
7296,58.0,0,32,1.0,70.0
7297,55.0,48,32,1.0,70.0
7298,63.0,16,32,1.0,70.0
7299,55.0,0,32,1.0,70.0
7300,58.0,0,32,1.0,70.0
7301,51.0,0,32,1.0,70.0
7302,51.0,0,32,1.0,70.0
7303,63.0,0,32,1.0,70.0
7304,58.0,0,32,1.0,70.0
7305,55.0,48,32,1.0,70.0
7306,51.0,32,120,10.0,65.0
7307,63.0,0,120,10.0,65.0
7308,58.0,48,32,1.0,70.0
7309,51.0,0,32,1.0,70.0
7310,63.0,0,32,1.0,70.0
7311,55.0,0,32,1.0,70.0
7312,58.0,0,32,1.0,70.0
7313,55.0,0,32,1.0,70.0
7314,51.0,48,32,1.0,70.0
7315,63.0,0,32,1.0,70.0
7316,59.0,0,32,1.0,65.0
7317,56.0,0,32,1.0,65.0
7318,63.0,48,32,1.0,65.0
7319,44.0,0,32,1.0,65.0
7320,44.0,0,32,1.0,65.0
7321,56.0,16,32,1.0,65.0
7322,59.0,0,32,1.0,65.0
7323,63.0,0,32,1.0,65.0
7324,62.0,32,80,0.0,39.0
7325,50.0,0,80,0.0,39.0
7326,44.0,0,32,1.0,65.0
7327,63.0,0,32,1.0,65.0
7328,59.0,0,32,1.0,65.0
7329,56.0,48,32,1.0,65.0
7330,44.0,0,32,1.0,65.0
7331,56.0,0,32,1.0,65.0
7332,59.0,0,32,1.0,65.0
7333,63.0,24,32,1.0,65.0
7334,51.0,0,60,0.0,43.0
7335,63.0,24,60,0.0,43.0
7336,44.0,0,32,1.0,65.0
7337,63.0,0,32,1.0,65.0
7338,59.0,48,32,1.0,65.0
7339,56.0,0,32,1.0,65.0
7340,65.0,0,68,0.0,43.0
7341,53.0,8,68,0.0,43.0
7342,44.0,0,32,1.0,65.0
7343,63.0,40,32,1.0,65.0
7344,59.0,0,32,1.0,65.0
7345,56.0,0,32,1.0,65.0
7346,56.0,0,32,1.0,65.0
7347,44.0,0,32,1.0,65.0
7348,63.0,0,32,1.0,65.0
7349,59.0,4,32,1.0,65.0
7350,67.0,0,80,0.0,36.0
7351,55.0,44,80,0.0,36.0
7352,44.0,0,32,1.0,65.0
7353,63.0,48,32,1.0,65.0
7354,59.0,0,32,1.0,65.0
7355,56.0,0,32,1.0,65.0
7356,63.0,0,32,1.0,65.0
7357,59.0,0,32,1.0,65.0
7358,56.0,0,32,1.0,65.0
7359,44.0,24,32,1.0,65.0
7360,56.0,0,100,0.0,45.0
7361,68.0,24,100,0.0,45.0
7362,56.0,0,32,1.0,65.0
7363,44.0,0,32,1.0,65.0
7364,63.0,48,32,1.0,65.0
7365,59.0,0,32,1.0,65.0
7366,58.0,8,40,0.0,45.0
7367,70.0,0,40,0.0,45.0
7368,44.0,0,32,1.0,65.0
7369,56.0,0,32,1.0,65.0
7370,59.0,0,32,1.0,65.0
7371,63.0,40,32,1.0,65.0
7372,44.0,0,32,1.0,65.0
7373,63.0,0,32,1.0,65.0
7374,59.0,8,32,1.0,65.0
7375,56.0,0,32,1.0,65.0
7376,71.0,0,60,0.0,44.0
7377,59.0,40,60,0.0,44.0
7378,59.0,0,32,1.0,65.0
7379,56.0,0,32,1.0,65.0
7380,44.0,48,32,1.0,65.0
7381,63.0,0,32,1.0,65.0
7382,63.0,0,32,1.0,65.0
7383,44.0,28,32,1.0,65.0
7384,56.0,0,32,1.0,65.0
7385,59.0,0,32,1.0,65.0
7386,61.0,0,92,0.0,43.0
7387,73.0,20,92,0.0,43.0
7388,44.0,8,32,1.0,65.0
7389,63.0,0,32,1.0,65.0
7390,59.0,0,32,1.0,65.0
7391,56.0,0,32,1.0,65.0
7392,63.0,0,56,0.0,51.0
7393,75.0,40,56,0.0,51.0
7394,44.0,0,32,1.0,65.0
7395,63.0,0,32,1.0,65.0
7396,59.0,48,32,1.0,65.0
7397,56.0,0,32,1.0,65.0
7398,63.0,32,32,1.0,65.0
7399,56.0,0,32,1.0,65.0
7400,44.0,0,32,1.0,65.0
7401,59.0,0,32,1.0,65.0
7402,65.0,0,72,0.0,53.0
7403,77.0,16,72,0.0,53.0
7404,59.0,0,32,1.0,65.0
7405,56.0,0,32,1.0,65.0
7406,63.0,12,32,1.0,65.0
7407,44.0,0,32,1.0,65.0
7408,67.0,0,72,0.0,60.0
7409,79.0,36,72,0.0,60.0
7410,56.0,0,32,1.0,65.0
7411,59.0,0,32,1.0,65.0
7412,44.0,48,32,1.0,65.0
7413,63.0,0,32,1.0,65.0
7414,63.0,0,32,1.0,65.0
7415,59.0,0,32,1.0,65.0
7416,56.0,24,32,1.0,65.0
7417,44.0,0,32,1.0,65.0
7418,68.0,24,84,0.0,56.0
7419,80.0,0,84,0.0,56.0
7420,44.0,48,32,1.0,65.0
7421,63.0,0,32,1.0,65.0
7422,59.0,0,32,1.0,65.0
7423,56.0,0,32,1.0,65.0
7424,44.0,0,32,1.0,65.0
7425,59.0,0,32,1.0,65.0
7426,56.0,0,32,1.0,65.0
7427,63.0,36,32,1.0,65.0
7428,83.0,0,80,0.0,57.0
7429,71.0,12,80,0.0,57.0
7430,56.0,0,32,1.0,65.0
7431,59.0,0,32,1.0,65.0
7432,44.0,0,32,1.0,65.0
7433,63.0,0,32,1.0,65.0
7434,56.0,0,32,1.0,65.0
7435,59.0,0,32,1.0,65.0
7436,63.0,0,32,1.0,65.0
7437,44.0,48,32,1.0,65.0
7438,70.0,24,100,0.0,48.0
7439,82.0,0,100,0.0,48.0
7440,44.0,16,32,1.0,65.0
7441,63.0,0,32,1.0,65.0
7442,59.0,0,32,1.0,65.0
7443,56.0,0,32,1.0,65.0
7444,80.0,0,68,0.0,49.0
7445,68.0,32,68,0.0,49.0
7446,63.0,48,32,1.0,65.0
7447,59.0,0,32,1.0,65.0
7448,56.0,0,32,1.0,65.0
7449,44.0,0,32,1.0,65.0
7450,44.0,0,32,1.0,65.0
7451,63.0,16,32,1.0,65.0
7452,56.0,0,32,1.0,65.0
7453,59.0,0,32,1.0,65.0
7454,59.0,32,84,0.0,42.0
7455,71.0,0,84,0.0,42.0
7456,63.0,0,32,1.0,65.0
7457,59.0,0,32,1.0,65.0
7458,44.0,0,32,1.0,65.0
7459,56.0,48,32,1.0,65.0
7460,56.0,32,32,1.0,65.0
7461,44.0,0,32,1.0,65.0
7462,59.0,0,32,1.0,65.0
7463,63.0,0,32,1.0,65.0
7464,61.0,0,88,0.0,42.0
7465,73.0,16,88,0.0,42.0
7466,44.0,0,32,1.0,65.0
7467,63.0,48,32,1.0,65.0
7468,59.0,0,32,1.0,65.0
7469,56.0,0,32,1.0,65.0
7470,44.0,0,32,1.0,65.0
7471,63.0,44,32,1.0,65.0
7472,59.0,0,32,1.0,65.0
7473,56.0,0,32,1.0,65.0
7474,63.0,4,100,0.0,44.0
7475,75.0,0,100,0.0,44.0
7476,44.0,0,32,1.0,65.0
7477,63.0,48,32,1.0,65.0
7478,59.0,0,32,1.0,65.0
7479,56.0,0,32,1.0,65.0
7480,56.0,24,504,4.0,50.0
7481,66.0,0,76,0.0,36.0
7482,78.0,0,76,0.0,44.0
7483,59.0,0,32,1.0,65.0
7484,63.0,48,32,1.0,65.0
7485,56.0,0,32,1.0,65.0
7486,44.0,0,32,1.0,65.0
7487,44.0,4,32,1.0,65.0
7488,59.0,0,32,1.0,65.0
7489,56.0,0,32,1.0,65.0
7490,63.0,0,32,1.0,65.0
7491,63.0,0,32,1.0,65.0
7492,59.0,0,32,1.0,65.0
7493,56.0,0,32,1.0,65.0
7494,44.0,48,32,1.0,65.0
7495,76.0,44,100,0.0,40.0
7496,64.0,0,100,0.0,49.0
7497,44.0,0,32,1.0,65.0
7498,59.0,0,32,1.0,65.0
7499,56.0,0,32,1.0,65.0
7500,63.0,48,32,1.0,65.0
7501,56.0,0,32,1.0,65.0
7502,59.0,0,32,1.0,65.0
7503,63.0,0,32,1.0,65.0
7504,44.0,36,32,1.0,65.0
7505,51.0,0,24,10.0,65.0
7506,63.0,0,24,10.0,65.0
7507,55.0,0,32,1.0,65.0
7508,63.0,12,32,1.0,65.0
7509,58.0,0,32,1.0,65.0
7510,51.0,0,32,1.0,65.0
7511,58.0,0,32,1.0,65.0
7512,63.0,48,32,1.0,65.0
7513,55.0,0,32,1.0,65.0
7514,51.0,0,32,1.0,65.0
7515,55.0,0,32,1.0,65.0
7516,51.0,0,32,1.0,65.0
7517,63.0,48,32,1.0,65.0
7518,58.0,0,32,1.0,65.0
7519,51.0,0,32,1.0,65.0
7520,63.0,0,32,1.0,65.0
7521,58.0,0,32,1.0,65.0
7522,55.0,48,32,1.0,65.0
7523,63.0,48,32,1.0,65.0
7524,51.0,0,32,1.0,65.0
7525,58.0,0,32,1.0,65.0
7526,55.0,0,32,1.0,65.0
7527,55.0,0,32,1.0,65.0
7528,51.0,48,32,1.0,65.0
7529,63.0,0,32,1.0,65.0
7530,58.0,0,32,1.0,65.0
7531,51.0,0,32,1.0,65.0
7532,63.0,0,32,1.0,65.0
7533,58.0,0,32,1.0,65.0
7534,55.0,48,32,1.0,65.0
7535,58.0,0,32,1.0,65.0
7536,55.0,0,32,1.0,65.0
7537,51.0,0,32,1.0,65.0
7538,63.0,48,32,1.0,65.0
7539,58.0,0,32,1.0,65.0
7540,51.0,0,32,1.0,65.0
7541,63.0,48,32,1.0,65.0
7542,55.0,0,32,1.0,65.0
7543,75.0,12,532,0.0,47.0
7544,63.0,0,532,0.0,45.0
7545,51.0,0,32,1.0,65.0
7546,63.0,48,32,1.0,65.0
7547,58.0,0,32,1.0,65.0
7548,55.0,0,32,1.0,65.0
7549,51.0,0,32,1.0,65.0
7550,63.0,48,32,1.0,65.0
7551,58.0,0,32,1.0,65.0
7552,55.0,0,32,1.0,65.0
7553,51.0,0,32,1.0,65.0
7554,55.0,0,32,1.0,65.0
7555,58.0,48,32,1.0,65.0
7556,63.0,0,32,1.0,65.0
7557,55.0,0,32,1.0,65.0
7558,51.0,0,32,1.0,65.0
7559,63.0,48,32,1.0,65.0
7560,58.0,0,32,1.0,65.0
7561,51.0,48,32,1.0,65.0
7562,63.0,0,32,1.0,65.0
7563,58.0,0,32,1.0,65.0
7564,55.0,0,32,1.0,65.0
7565,55.0,0,32,1.0,65.0
7566,58.0,0,32,1.0,65.0
7567,63.0,0,32,1.0,65.0
7568,51.0,48,32,1.0,65.0
7569,55.0,0,32,1.0,65.0
7570,63.0,48,32,1.0,65.0
7571,51.0,0,32,1.0,65.0
7572,58.0,0,32,1.0,65.0
7573,55.0,0,32,1.0,65.0
7574,58.0,0,32,1.0,65.0
7575,63.0,0,32,1.0,65.0
7576,51.0,48,32,1.0,65.0
7577,55.0,4,32,1.0,65.0
7578,58.0,0,32,1.0,65.0
7579,63.0,0,32,1.0,65.0
7580,51.0,0,32,1.0,65.0
7581,74.0,0,60,0.0,36.0
7582,62.0,44,60,0.0,36.0
7583,55.0,0,32,1.0,65.0
7584,58.0,48,32,1.0,65.0
7585,63.0,0,32,1.0,65.0
7586,51.0,0,32,1.0,65.0
7587,58.0,0,32,1.0,65.0
7588,55.0,32,32,1.0,65.0
7589,63.0,0,32,1.0,65.0
7590,51.0,0,32,1.0,65.0
7591,63.0,16,68,0.0,56.0
7592,75.0,0,68,0.0,56.0
7593,55.0,0,32,1.0,65.0
7594,63.0,4,32,1.0,65.0
7595,51.0,0,32,1.0,65.0
7596,58.0,0,32,1.0,65.0
7597,77.0,44,56,0.0,55.0
7598,65.0,0,56,0.0,55.0
7599,55.0,0,32,1.0,65.0
7600,58.0,0,32,1.0,65.0
7601,63.0,48,32,1.0,65.0
7602,51.0,0,32,1.0,65.0
7603,63.0,0,56,0.0,59.0
7604,75.0,8,56,0.0,59.0
7605,77.0,0,44,0.0,56.0
7606,65.0,64,44,0.0,56.0
7607,55.0,0,32,1.0,65.0
7608,58.0,24,32,1.0,65.0
7609,63.0,0,32,1.0,65.0
7610,51.0,0,32,1.0,65.0
7611,63.0,0,56,0.0,49.0
7612,75.0,28,56,0.0,49.0
7613,77.0,64,44,0.0,58.0
7614,65.0,0,44,0.0,58.0
7615,63.0,56,48,0.0,47.0
7616,75.0,0,48,0.0,47.0
7617,51.0,0,32,1.0,65.0
7618,63.0,0,32,1.0,65.0
7619,58.0,0,32,1.0,65.0
7620,55.0,44,32,1.0,65.0
7621,77.0,0,56,0.0,60.0
7622,65.0,8,56,0.0,60.0
7623,63.0,0,48,0.0,57.0
7624,75.0,64,48,0.0,57.0
7625,58.0,0,32,1.0,65.0
7626,63.0,24,32,1.0,65.0
7627,51.0,0,32,1.0,65.0
7628,55.0,0,32,1.0,65.0
7629,77.0,28,52,0.0,55.0
7630,65.0,0,52,0.0,55.0
7631,63.0,0,32,1.0,65.0
7632,51.0,8,32,1.0,65.0
7633,55.0,0,32,1.0,65.0
7634,58.0,0,32,1.0,65.0
7635,75.0,0,56,0.0,43.0
7636,63.0,60,56,0.0,43.0
7637,65.0,52,48,0.0,55.0
7638,77.0,0,48,0.0,55.0
7639,63.0,0,32,1.0,65.0
7640,55.0,0,32,1.0,65.0
7641,51.0,0,32,1.0,65.0
7642,58.0,44,32,1.0,65.0
7643,75.0,0,44,0.0,51.0
7644,63.0,12,44,0.0,51.0
7645,77.0,0,56,0.0,61.0
7646,65.0,48,56,0.0,61.0
7647,51.0,0,32,1.0,65.0
7648,58.0,0,32,1.0,65.0
7649,55.0,0,32,1.0,65.0
7650,63.0,36,32,1.0,65.0
7651,63.0,0,48,0.0,51.0
7652,75.0,24,48,0.0,51.0
7653,65.0,0,48,0.0,62.0
7654,77.0,52,48,0.0,62.0
7655,51.0,0,32,1.0,65.0
7656,55.0,0,32,1.0,65.0
7657,58.0,0,32,1.0,65.0
7658,63.0,20,32,1.0,65.0
7659,75.0,0,20,0.0,42.0
7660,63.0,36,20,0.0,42.0
7661,77.0,0,56,0.0,49.0
7662,65.0,32,56,0.0,49.0
7663,51.0,0,32,1.0,65.0
7664,55.0,0,32,1.0,65.0
7665,63.0,0,32,1.0,65.0
7666,58.0,28,32,1.0,65.0
7667,63.0,20,72,0.0,54.0
7668,75.0,0,72,0.0,54.0
7669,51.0,0,32,1.0,65.0
7670,55.0,4,32,1.0,65.0
7671,58.0,0,32,1.0,65.0
7672,63.0,0,32,1.0,65.0
7673,51.0,24,2040,4.0,55.0
7674,75.0,0,2068,5.0,60.0
7675,79.0,0,2068,5.0,60.0
7676,63.0,12,2068,7.0,65.0
7677,67.0,0,2068,7.0,65.0
7678,74.0,0,92,0.0,73.0
7679,62.0,80,92,0.0,73.0
7680,58.0,8,32,1.0,75.0
7681,51.0,0,32,1.0,75.0
7682,56.0,0,32,1.0,75.0
7683,65.0,0,32,1.0,75.0
7684,75.0,8,56,0.0,69.0
7685,63.0,0,56,0.0,69.0
7686,51.0,0,32,1.0,75.0
7687,58.0,0,32,1.0,75.0
7688,56.0,16,32,1.0,75.0
7689,65.0,0,32,1.0,75.0
7690,74.0,72,52,0.0,54.0
7691,62.0,0,52,0.0,54.0
7692,75.0,36,56,0.0,65.0
7693,63.0,0,56,0.0,65.0
7694,58.0,0,32,1.0,75.0
7695,65.0,0,32,1.0,75.0
7696,51.0,60,32,1.0,75.0
7697,56.0,0,32,1.0,75.0
7698,62.0,0,48,0.0,59.0
7699,74.0,12,48,0.0,59.0
7700,75.0,0,52,0.0,65.0
7701,63.0,48,52,0.0,65.0
7702,51.0,36,32,1.0,75.0
7703,65.0,0,32,1.0,75.0
7704,58.0,0,32,1.0,75.0
7705,56.0,0,32,1.0,75.0
7706,74.0,28,56,0.0,56.0
7707,62.0,0,56,0.0,56.0
7708,63.0,56,44,0.0,62.0
7709,75.0,0,44,0.0,62.0
7710,51.0,0,32,1.0,75.0
7711,65.0,0,32,1.0,75.0
7712,58.0,12,32,1.0,75.0
7713,56.0,0,32,1.0,75.0
7714,62.0,0,52,0.0,51.0
7715,74.0,44,52,0.0,51.0
7716,65.0,0,32,1.0,75.0
7717,56.0,0,32,1.0,75.0
7718,58.0,0,32,1.0,75.0
7719,51.0,0,32,1.0,75.0
7720,63.0,0,44,0.0,60.0
7721,75.0,52,44,0.0,60.0
7722,62.0,0,48,0.0,48.0
7723,74.0,60,48,0.0,48.0
7724,56.0,0,32,1.0,75.0
7725,65.0,0,32,1.0,75.0
7726,51.0,36,32,1.0,75.0
7727,58.0,0,32,1.0,75.0
7728,75.0,0,56,0.0,52.0
7729,63.0,8,56,0.0,52.0
7730,51.0,16,32,1.0,75.0
7731,58.0,0,32,1.0,75.0
7732,74.0,72,48,0.0,49.0
7733,62.0,0,48,0.0,49.0
7734,56.0,0,32,1.0,75.0
7735,63.0,28,56,0.0,52.0
7736,75.0,0,56,0.0,52.0
7737,56.0,0,32,1.0,75.0
7738,51.0,0,32,1.0,75.0
7739,65.0,4,32,1.0,75.0
7740,58.0,0,32,1.0,75.0
7741,62.0,64,44,0.0,48.0
7742,74.0,0,44,0.0,48.0
7743,75.0,0,56,0.0,44.0
7744,63.0,32,56,0.0,44.0
7745,65.0,0,32,1.0,75.0
7746,58.0,0,32,1.0,75.0
7747,56.0,0,32,1.0,75.0
7748,51.0,64,32,1.0,75.0
7749,74.0,0,48,0.0,48.0
7750,62.0,0,48,0.0,48.0
7751,63.0,0,48,0.0,46.0
7752,75.0,44,48,0.0,46.0
7753,65.0,52,32,1.0,75.0
7754,56.0,0,32,1.0,75.0
7755,58.0,0,32,1.0,75.0
7756,51.0,0,32,1.0,75.0
7757,74.0,12,48,0.0,51.0
7758,62.0,0,48,0.0,51.0
7759,63.0,0,52,0.0,59.0
7760,75.0,48,52,0.0,59.0
7761,58.0,0,32,1.0,75.0
7762,65.0,0,32,1.0,75.0
7763,51.0,36,32,1.0,75.0
7764,56.0,0,32,1.0,75.0
7765,62.0,0,48,0.0,46.0
7766,74.0,28,48,0.0,46.0
7767,63.0,44,44,0.0,46.0
7768,75.0,0,44,0.0,46.0
7769,51.0,0,32,1.0,75.0
7770,65.0,0,32,1.0,75.0
7771,58.0,24,32,1.0,75.0
7772,56.0,0,32,1.0,75.0
7773,74.0,32,48,0.0,58.0
7774,62.0,0,48,0.0,58.0
7775,65.0,0,32,1.0,75.0
7776,56.0,0,32,1.0,75.0
7777,58.0,0,32,1.0,75.0
7778,51.0,16,32,1.0,75.0
7779,63.0,48,48,0.0,56.0
7780,75.0,0,48,0.0,56.0
7781,74.0,0,48,0.0,58.0
7782,62.0,36,48,0.0,58.0
7783,51.0,12,32,1.0,75.0
7784,63.0,48,44,0.0,56.0
7785,65.0,0,32,1.0,75.0
7786,58.0,0,32,1.0,75.0
7787,56.0,0,32,1.0,75.0
7788,75.0,0,44,0.0,56.0
7789,62.0,36,52,0.0,61.0
7790,74.0,0,52,0.0,61.0
7791,51.0,0,32,1.0,75.0
7792,65.0,8,32,1.0,75.0
7793,58.0,0,32,1.0,75.0
7794,56.0,0,32,1.0,75.0
7795,75.0,52,44,0.0,56.0
7796,63.0,0,44,0.0,56.0
7797,74.0,0,24,0.0,57.0
7798,62.0,48,24,0.0,57.0
7799,51.0,0,32,1.0,75.0
7800,65.0,12,32,1.0,75.0
7801,58.0,0,32,1.0,75.0
7802,56.0,0,32,1.0,75.0
7803,63.0,36,52,0.0,57.0
7804,75.0,0,52,0.0,57.0
7805,62.0,0,56,0.0,54.0
7806,74.0,40,56,0.0,54.0
7807,51.0,56,32,1.0,75.0
7808,58.0,0,32,1.0,75.0
7809,65.0,0,32,1.0,75.0
7810,56.0,0,32,1.0,75.0
7811,80.0,0,1684,5.0,65.0
7812,77.0,0,1684,5.0,65.0
7813,68.0,12,1684,7.0,70.0
7814,65.0,0,1684,7.0,70.0
7815,61.0,0,104,0.0,77.0
7816,73.0,8,104,0.0,77.0
7817,51.0,0,32,1.0,80.0
7818,61.0,0,32,1.0,80.0
7819,58.0,0,32,1.0,80.0
7820,67.0,0,32,1.0,80.0
7821,75.0,0,56,0.0,61.0
7822,63.0,28,56,0.0,61.0
7823,51.0,68,32,1.0,80.0
7824,61.0,0,32,1.0,80.0
7825,58.0,0,32,1.0,80.0
7826,67.0,0,32,1.0,80.0
7827,61.0,0,52,0.0,58.0
7828,73.0,0,52,0.0,58.0
7829,63.0,0,48,0.0,52.0
7830,75.0,60,48,0.0,52.0
7831,67.0,0,32,1.0,80.0
7832,61.0,36,32,1.0,80.0
7833,51.0,0,32,1.0,80.0
7834,58.0,0,32,1.0,80.0
7835,61.0,24,40,0.0,46.0
7836,73.0,0,40,0.0,46.0
7837,51.0,60,320,4.0,70.0
7838,75.0,0,48,0.0,52.0
7839,63.0,48,48,0.0,52.0
7840,58.0,0,32,1.0,80.0
7841,61.0,24,32,1.0,80.0
7842,51.0,0,32,1.0,80.0
7843,67.0,0,32,1.0,80.0
7844,73.0,0,44,0.0,49.0
7845,61.0,36,44,0.0,49.0
7846,67.0,0,32,1.0,80.0
7847,58.0,0,32,1.0,80.0
7848,61.0,0,32,1.0,80.0
7849,51.0,8,32,1.0,80.0
7850,63.0,52,44,0.0,48.0
7851,75.0,0,44,0.0,48.0
7852,61.0,48,44,0.0,52.0
7853,73.0,0,44,0.0,52.0
7854,67.0,0,32,1.0,80.0
7855,61.0,0,32,1.0,80.0
7856,58.0,0,32,1.0,80.0
7857,51.0,48,32,1.0,80.0
7858,63.0,0,56,0.0,51.0
7859,75.0,4,56,0.0,51.0
7860,61.0,0,20,0.0,26.0
7861,73.0,68,20,0.0,26.0
7862,51.0,0,32,1.0,80.0
7863,67.0,0,32,1.0,80.0
7864,58.0,0,32,1.0,80.0
7865,61.0,24,32,1.0,80.0
7866,63.0,12,52,0.0,46.0
7867,75.0,0,52,0.0,46.0
7868,61.0,60,44,0.0,36.0
7869,73.0,0,44,0.0,36.0
7870,61.0,0,32,1.0,80.0
7871,67.0,0,32,1.0,80.0
7872,51.0,0,32,1.0,80.0
7873,58.0,24,32,1.0,80.0
7874,63.0,0,48,0.0,53.0
7875,75.0,28,48,0.0,53.0
7876,73.0,60,36,0.0,44.0
7877,61.0,0,36,0.0,44.0
7878,61.0,0,32,1.0,80.0
7879,67.0,8,32,1.0,80.0
7880,51.0,0,32,1.0,80.0
7881,58.0,0,32,1.0,80.0
7882,75.0,32,52,0.0,38.0
7883,63.0,0,52,0.0,38.0
7884,51.0,0,32,1.0,80.0
7885,61.0,0,32,1.0,80.0
7886,58.0,64,32,1.0,80.0
7887,67.0,0,32,1.0,80.0
7888,61.0,0,40,0.0,49.0
7889,73.0,0,40,0.0,49.0
7890,75.0,44,56,0.0,48.0
7891,63.0,0,56,0.0,48.0
7892,58.0,52,32,1.0,80.0
7893,67.0,0,32,1.0,80.0
7894,51.0,0,32,1.0,80.0
7895,61.0,0,32,1.0,80.0
7896,73.0,16,44,0.0,53.0
7897,61.0,0,44,0.0,53.0
7898,75.0,0,56,0.0,39.0
7899,63.0,48,56,0.0,39.0
7900,51.0,32,32,1.0,80.0
7901,61.0,0,32,1.0,80.0
7902,58.0,0,32,1.0,80.0
7903,67.0,0,32,1.0,80.0
7904,73.0,0,48,0.0,53.0
7905,61.0,32,48,0.0,53.0
7906,58.0,0,32,1.0,80.0
7907,67.0,8,32,1.0,80.0
7908,61.0,0,32,1.0,80.0
7909,51.0,0,32,1.0,80.0
7910,63.0,0,52,0.0,57.0
7911,75.0,56,52,0.0,57.0
7912,73.0,0,32,0.0,52.0
7913,61.0,56,32,0.0,52.0
7914,51.0,0,32,1.0,80.0
7915,61.0,0,32,1.0,80.0
7916,58.0,0,32,1.0,80.0
7917,67.0,40,32,1.0,80.0
7918,63.0,0,56,0.0,51.0
7919,75.0,8,56,0.0,51.0
7920,61.0,56,52,0.0,47.0
7921,73.0,0,52,0.0,47.0
7922,58.0,0,32,1.0,80.0
7923,67.0,0,32,1.0,80.0
7924,61.0,32,32,1.0,80.0
7925,51.0,0,32,1.0,80.0
7926,67.0,0,1440,7.0,75.0
7927,70.0,12,1440,7.0,75.0
7928,60.0,0,44,0.0,51.0
7929,72.0,20,44,0.0,51.0
7930,79.0,0,1452,5.0,75.0
7931,82.0,0,1452,5.0,75.0
7932,51.0,0,32,1.0,80.0
7933,61.0,36,32,1.0,80.0
7934,58.0,0,32,1.0,80.0
7935,67.0,0,32,1.0,80.0
7936,73.0,0,44,0.0,50.0
7937,61.0,12,44,0.0,50.0
7938,75.0,0,40,0.0,55.0
7939,63.0,52,40,0.0,55.0
7940,77.0,0,52,0.0,56.0
7941,65.0,64,52,0.0,56.0
7942,79.0,0,56,0.0,42.0
7943,67.0,68,56,0.0,42.0
7944,68.0,0,88,0.0,54.0
7945,80.0,52,88,0.0,54.0
7946,70.0,68,28,0.0,51.0
7947,82.0,0,28,0.0,51.0
7948,84.0,68,48,0.0,50.0
7949,72.0,0,48,0.0,50.0
7950,73.0,0,56,0.0,54.0
7951,85.0,52,56,0.0,54.0
7952,75.0,0,48,0.0,57.0
7953,87.0,60,48,0.0,57.0
7954,89.0,0,52,0.0,52.0
7955,77.0,72,52,0.0,52.0
7956,91.0,0,64,0.0,44.0
7957,79.0,64,64,0.0,44.0
7958,92.0,0,96,0.0,51.0
7959,80.0,68,96,0.0,51.0
7960,94.0,0,260,0.0,41.0
7961,82.0,84,260,0.0,41.0
7962,89.0,1116,112,0.0,26.0
7963,85.0,0,148,0.0,33.0
7964,94.0,0,164,0.0,43.0
7965,92.0,188,92,0.0,62.0
7966,87.0,0,128,0.0,42.0
7967,84.0,0,156,0.0,36.0
7968,99.0,0,92,0.0,62.0
7969,91.0,200,100,0.0,42.0
7970,82.0,0,144,0.0,33.0
7971,89.0,176,32,0.0,44.0
7972,96.0,0,96,0.0,71.0
7973,80.0,0,144,0.0,33.0
7974,87.0,0,56,0.0,36.0
7975,92.0,172,96,0.0,69.0
7976,84.0,0,156,0.0,36.0
7977,85.0,176,48,0.0,46.0
7978,91.0,0,84,0.0,66.0
7979,82.0,0,140,0.0,42.0
7980,97.0,176,80,0.0,60.0
7981,89.0,0,96,0.0,61.0
7982,80.0,0,176,0.0,45.0
7983,87.0,0,56,0.0,47.0
7984,94.0,172,116,0.0,62.0
7985,79.0,0,136,0.0,52.0
7986,85.0,0,84,0.0,42.0
7987,91.0,0,120,0.0,63.0
7988,82.0,180,164,0.0,42.0
7989,84.0,0,68,0.0,36.0
7990,89.0,168,68,0.0,65.0
7991,80.0,0,144,0.0,51.0
7992,96.0,0,56,0.0,58.0
7993,87.0,12,148,0.0,59.0
7994,79.0,188,168,0.0,36.0
7995,85.0,0,72,0.0,37.0
7996,92.0,172,128,0.0,62.0
7997,77.0,0,128,0.0,42.0
7998,84.0,0,76,0.0,40.0
7999,89.0,192,140,0.0,64.0
8000,80.0,0,168,0.0,43.0
8001,87.0,176,84,0.0,63.0
8002,82.0,0,104,0.0,35.0
8003,79.0,0,124,0.0,38.0
8004,94.0,0,80,0.0,57.0
8005,85.0,0,108,0.0,56.0
8006,77.0,192,152,0.0,41.0
8007,84.0,0,32,0.0,45.0
8008,91.0,168,88,0.0,68.0
8009,75.0,0,144,0.0,46.0
8010,82.0,0,76,0.0,37.0
8011,87.0,0,152,0.0,61.0
8012,79.0,172,164,0.0,46.0
8013,80.0,180,76,0.0,45.0
8014,85.0,0,76,0.0,62.0
8015,77.0,0,128,0.0,35.0
8016,84.0,0,80,0.0,49.0
8017,92.0,180,84,0.0,60.0
8018,75.0,0,184,0.0,44.0
8019,82.0,184,60,0.0,44.0
8020,89.0,0,100,0.0,63.0
8021,73.0,0,144,0.0,37.0
8022,80.0,0,80,0.0,44.0
8023,85.0,176,116,0.0,60.0
8024,77.0,0,124,0.0,45.0
8025,79.0,0,48,0.0,40.0
8026,84.0,176,64,0.0,64.0
8027,75.0,0,148,0.0,45.0
8028,91.0,192,56,0.0,56.0
8029,82.0,0,132,0.0,55.0
8030,73.0,0,160,0.0,39.0
8031,80.0,0,52,0.0,39.0
8032,72.0,0,128,0.0,47.0
8033,87.0,172,140,0.0,62.0
8034,79.0,200,64,0.0,52.0
8035,84.0,0,136,0.0,66.0
8036,75.0,0,172,0.0,45.0
8037,77.0,176,44,0.0,49.0
8038,82.0,0,88,0.0,61.0
8039,73.0,0,140,0.0,35.0
8040,89.0,192,80,0.0,70.0
8041,80.0,0,164,0.0,57.0
8042,72.0,0,168,0.0,44.0
8043,79.0,0,44,0.0,48.0
8044,70.0,200,168,0.0,40.0
8045,85.0,0,172,0.0,65.0
8046,77.0,0,60,0.0,56.0
8047,73.0,0,172,0.0,34.0
8048,82.0,212,268,0.0,57.0
8049,75.0,0,132,0.0,40.0
8050,72.0,228,212,0.0,39.0
8051,74.0,0,176,0.0,34.0
8052,77.0,0,184,0.0,52.0
8053,71.0,256,316,0.0,38.0
8054,76.0,0,160,0.0,45.0
8055,80.0,8,1052,0.0,57.0
8056,70.0,0,508,0.0,28.0
8057,73.0,372,952,0.0,29.0
8058,63.0,620,412,0.0,26.0
8059,75.0,0,460,0.0,30.0
8060,79.0,0,484,0.0,38.0
8061,72.0,624,52,0.0,56.0
8062,32.0,12,68,0.0,47.0
8063,72.0,108,56,0.0,71.0
8064,75.0,88,76,0.0,67.0
8065,80.0,92,108,0.0,70.0
8066,51.0,8,256,0.0,33.0
8067,60.0,4,140,0.0,36.0
8068,56.0,4,168,0.0,33.0
8069,51.0,356,68,0.0,38.0
8070,63.0,372,432,0.0,23.0
8071,87.0,144,976,0.0,74.0
8072,68.0,360,88,0.0,38.0
8073,60.0,4,88,0.0,44.0
8074,56.0,4,132,0.0,35.0
8075,89.0,88,56,0.0,73.0
8076,87.0,88,64,0.0,69.0
8077,86.0,80,72,0.0,65.0
8078,87.0,68,52,0.0,71.0
8079,89.0,84,72,0.0,74.0
8080,91.0,72,60,0.0,70.0
8081,51.0,12,172,0.0,45.0
8082,92.0,84,60,0.0,72.0
8083,94.0,80,76,0.0,71.0
8084,96.0,80,88,0.0,73.0
8085,91.0,80,68,0.0,73.0
8086,94.0,68,96,0.0,68.0
8087,92.0,76,76,0.0,78.0
8088,56.0,28,108,0.0,26.0
8089,60.0,20,92,0.0,22.0
8090,91.0,24,72,0.0,78.0
8091,63.0,4,156,0.0,19.0
8092,89.0,80,60,0.0,78.0
8093,87.0,68,76,0.0,68.0
8094,85.0,88,84,0.0,65.0
8095,84.0,84,80,0.0,71.0
8096,85.0,84,72,0.0,62.0
8097,84.0,84,76,0.0,75.0
8098,82.0,80,60,0.0,55.0
8099,84.0,76,76,0.0,67.0
8100,51.0,0,164,0.0,45.0
8101,85.0,76,72,0.0,67.0
8102,87.0,88,136,0.0,70.0
8103,91.0,104,88,0.0,74.0
8104,89.0,108,92,0.0,78.0
8105,87.0,96,88,0.0,70.0
8106,85.0,100,84,0.0,71.0
8107,84.0,88,128,0.0,75.0
8108,41.0,44,120,0.0,45.0
8109,48.0,368,284,0.0,38.0
8110,82.0,124,712,0.0,60.0
8111,60.0,0,1024,1.0,55.0
8112,56.0,4,1024,1.0,55.0
8113,53.0,0,1024,2.0,50.0
8114,41.0,0,1024,3.0,50.0
8115,53.0,16,396,0.0,30.0
8116,48.0,352,72,0.0,37.0
8117,60.0,16,464,0.0,26.0
8118,56.0,16,456,0.0,25.0
8119,80.0,372,844,0.0,62.0
8120,65.0,0,144,0.0,33.0
8121,53.0,12,160,0.0,33.0
8122,56.0,388,192,0.0,28.0
8123,80.0,140,60,0.0,62.0
8124,80.0,128,60,0.0,77.0
8125,80.0,116,60,0.0,68.0
8126,80.0,88,52,0.0,69.0
8127,80.0,112,60,0.0,68.0
8128,79.0,88,76,0.0,67.0
8129,48.0,32,400,0.0,44.0
8130,80.0,72,96,0.0,68.0
8131,82.0,20,72,0.0,64.0
8132,80.0,64,64,0.0,71.0
8133,82.0,72,72,0.0,65.0
8134,80.0,68,64,0.0,62.0
8135,82.0,64,68,0.0,64.0
8136,80.0,68,76,0.0,60.0
8137,82.0,76,88,0.0,60.0
8138,80.0,64,96,0.0,60.0
8139,60.0,0,680,0.0,22.0
8140,41.0,16,640,3.0,50.0
8141,60.0,0,640,2.0,50.0
8142,53.0,12,712,0.0,22.0
8143,48.0,12,256,0.0,43.0
8144,56.0,64,732,0.0,26.0
8145,79.0,112,104,0.0,68.0
8146,80.0,80,92,0.0,77.0
8147,82.0,84,128,0.0,68.0
8148,84.0,100,44,0.0,70.0
8149,70.0,0,52,0.0,47.0
8150,56.0,0,1024,1.0,55.0
8151,65.0,0,1024,1.0,57.0
8152,73.0,56,48,0.0,56.0
8153,34.0,108,124,0.0,45.0
8154,77.0,8,44,0.0,67.0
8155,85.0,92,508,0.0,84.0
8156,73.0,188,120,0.0,66.0
8157,53.0,344,356,0.0,45.0
8158,77.0,68,124,0.0,70.0
8159,85.0,4,256,0.0,90.0
8160,65.0,8,496,0.0,44.0
8161,85.0,388,116,0.0,92.0
8162,61.0,0,520,0.0,44.0
8163,58.0,124,544,0.0,44.0
8164,53.0,20,124,0.0,43.0
8165,85.0,236,88,0.0,80.0
8166,57.0,192,64,0.0,77.0
8167,34.0,0,96,0.0,46.0
8168,61.0,48,1792,1.0,55.0
8169,65.0,0,1792,1.0,57.0
8170,58.0,0,1792,2.0,50.0
8171,57.0,64,92,0.0,70.0
8172,58.0,96,72,0.0,73.0
8173,57.0,80,72,0.0,77.0
8174,56.0,76,52,0.0,69.0
8175,57.0,68,68,0.0,71.0
8176,60.0,92,68,0.0,79.0
8177,63.0,76,108,0.0,68.0
8178,66.0,80,48,0.0,69.0
8179,69.0,96,52,0.0,73.0
8180,54.0,0,96,0.0,50.0
8181,72.0,84,80,0.0,82.0
8182,75.0,68,104,0.0,76.0
8183,78.0,72,48,0.0,71.0
8184,81.0,84,60,0.0,75.0
8185,84.0,72,76,0.0,82.0
8186,85.0,72,60,0.0,82.0
8187,86.0,68,76,0.0,86.0
8188,87.0,72,76,0.0,81.0
8189,88.0,76,92,0.0,88.0
8190,63.0,8,160,0.0,56.0
8191,57.0,0,160,0.0,54.0
8192,66.0,0,160,0.0,58.0
8193,89.0,72,104,0.0,93.0
8194,92.0,76,96,0.0,90.0
8195,90.0,96,96,0.0,75.0
8196,87.0,84,112,0.0,83.0
8197,84.0,80,80,0.0,81.0
8198,81.0,72,52,0.0,78.0
8199,78.0,80,104,0.0,73.0
8200,75.0,84,88,0.0,76.0
8201,72.0,84,72,0.0,78.0
8202,69.0,76,88,0.0,72.0
8203,70.0,60,76,0.0,65.0
8204,54.0,24,160,0.0,53.0
8205,69.0,80,72,0.0,76.0
8206,68.0,80,88,0.0,62.0
8207,69.0,84,80,0.0,77.0
8208,70.0,88,68,0.0,65.0
8209,71.0,88,84,0.0,70.0
8210,72.0,108,96,0.0,77.0
8211,63.0,48,2944,2.0,55.0
8212,57.0,0,2944,1.0,55.0
8213,66.0,0,2944,1.0,59.0
8214,75.0,96,116,0.0,74.0
8215,73.0,100,88,0.0,73.0
8216,46.0,0,4864,3.0,50.0
8217,72.0,100,80,0.0,84.0
8218,34.0,20,120,0.0,45.0
8219,53.0,332,268,0.0,37.0
8220,65.0,28,704,1.0,50.0
8221,58.0,0,704,1.0,50.0
8222,61.0,0,712,2.0,50.0
8223,72.0,60,904,0.0,26.0
8224,65.0,332,392,0.0,37.0
8225,61.0,4,448,0.0,36.0
8226,58.0,0,456,0.0,35.0
8227,53.0,20,88,0.0,38.0
8228,70.0,352,156,0.0,54.0
8229,67.0,196,68,0.0,47.0
8230,68.0,84,84,0.0,58.0
8231,70.0,88,72,0.0,60.0
8232,68.0,20,68,0.0,67.0
8233,40.0,56,108,0.0,43.0
8234,70.0,24,64,0.0,59.0
8235,68.0,68,64,0.0,56.0
8236,70.0,68,64,0.0,48.0
8237,68.0,68,60,0.0,53.0
8238,70.0,52,68,0.0,47.0
8239,68.0,72,56,0.0,53.0
8240,70.0,44,68,0.0,51.0
8241,68.0,76,64,0.0,50.0
8242,70.0,56,64,0.0,50.0
8243,52.0,8,316,0.0,52.0
8244,68.0,76,60,0.0,46.0
8245,70.0,44,80,0.0,55.0
8246,68.0,60,80,0.0,53.0
8247,67.0,96,104,0.0,59.0
8248,68.0,92,108,0.0,54.0
8249,61.0,12,456,0.0,37.0
8250,56.0,4,488,0.0,53.0
8251,52.0,12,100,0.0,33.0
8252,72.0,108,128,0.0,68.0
8253,70.0,108,88,0.0,61.0
8254,68.0,116,72,0.0,64.0
8255,58.0,0,1352,1.0,50.0
8256,68.0,0,1408,1.0,53.0
8257,52.0,48,1416,3.0,55.0
8258,39.0,8,88,0.0,35.0
8259,68.0,148,152,0.0,51.0
8260,67.0,112,96,0.0,60.0
8261,68.0,100,144,0.0,67.0
8262,70.0,4,56,0.0,70.0
8263,51.0,128,92,0.0,51.0
8264,72.0,108,104,0.0,80.0
8265,73.0,104,132,0.0,79.0
8266,75.0,0,72,0.0,77.0
8267,67.0,96,108,0.0,54.0
8268,77.0,76,88,0.0,86.0
8269,79.0,108,56,0.0,77.0
8270,79.0,92,120,0.0,82.0
8271,58.0,48,1128,1.0,50.0
8272,61.0,8,512,0.0,36.0
8273,58.0,8,524,0.0,37.0
8274,51.0,12,124,0.0,43.0
8275,61.0,0,2828,2.0,52.0
8276,39.0,380,112,0.0,43.0
8277,91.0,124,508,0.0,90.0
8278,67.0,48,1024,1.0,55.0
8279,89.0,108,116,0.0,75.0
8280,87.0,144,128,0.0,73.0
8281,85.0,128,104,0.0,73.0
8282,51.0,36,116,0.0,56.0
8283,84.0,76,56,0.0,79.0
8284,82.0,116,88,0.0,71.0
8285,80.0,120,100,0.0,75.0
8286,65.0,4,120,0.0,40.0
8287,79.0,60,72,0.0,74.0
8288,77.0,148,56,0.0,66.0
8289,77.0,84,84,0.0,75.0
8290,56.0,20,420,0.0,22.0
8291,60.0,8,420,0.0,40.0
8292,56.0,48,1232,1.0,52.0
8293,51.0,108,128,0.0,42.0
8294,65.0,4,208,0.0,70.0
8295,65.0,20,800,1.0,52.0
8296,60.0,0,1676,2.0,52.0
8297,39.0,424,124,0.0,46.0
8298,63.0,104,96,0.0,46.0
8299,66.0,116,88,0.0,58.0
8300,67.0,124,100,0.0,58.0
8301,68.0,48,80,0.0,57.0
8302,69.0,96,92,0.0,74.0
8303,55.0,68,304,0.0,32.0
8304,70.0,100,64,0.0,65.0
8305,71.0,4,76,0.0,76.0
8306,55.0,0,876,1.0,52.0
8307,72.0,72,68,0.0,79.0
8308,73.0,72,68,0.0,65.0
8309,74.0,68,80,0.0,79.0
8310,75.0,76,92,0.0,69.0
8311,51.0,0,2828,3.0,55.0
8312,79.0,76,100,0.0,74.0
8313,77.0,68,96,0.0,77.0
8314,75.0,84,68,0.0,81.0
8315,58.0,48,1408,2.0,52.0
8316,63.0,80,732,0.0,31.0
8317,58.0,8,748,0.0,32.0
8318,75.0,104,152,0.0,79.0
8319,55.0,0,96,0.0,49.0
8320,41.0,352,84,0.0,46.0
8321,53.0,4,124,0.0,42.0
8322,63.0,4,1064,1.0,52.0
8323,87.0,104,496,0.0,90.0
8324,86.0,72,84,0.0,83.0
8325,85.0,112,56,0.0,84.0
8326,85.0,120,48,0.0,68.0
8327,87.0,64,56,0.0,69.0
8328,56.0,4,80,0.0,34.0
8329,68.0,12,88,0.0,42.0
8330,61.0,8,80,0.0,40.0
8331,85.0,32,140,0.0,70.0
8332,84.0,136,100,0.0,84.0
8333,85.0,168,60,0.0,78.0
8334,85.0,80,72,0.0,78.0
8335,53.0,0,908,3.0,55.0
8336,87.0,76,28,0.0,30.0
8337,56.0,44,992,1.0,52.0
8338,43.0,4,96,0.0,34.0
8339,55.0,36,112,0.0,44.0
8340,101.0,8,100,0.0,84.0
8341,99.0,120,104,0.0,79.0
8342,97.0,92,136,0.0,77.0
8343,94.0,68,84,0.0,75.0
8344,91.0,84,40,0.0,79.0
8345,89.0,88,76,0.0,78.0
8346,61.0,16,44,0.0,34.0
8347,70.0,0,60,0.0,34.0
8348,63.0,0,72,0.0,36.0
8349,87.0,88,100,0.0,68.0
8350,85.0,76,84,0.0,68.0
8351,82.0,76,60,0.0,61.0
8352,79.0,76,60,0.0,61.0
8353,77.0,80,32,0.0,69.0
8354,75.0,80,88,0.0,61.0
8355,73.0,100,56,0.0,47.0
8356,70.0,76,60,0.0,47.0
8357,63.0,96,88,0.0,45.0
8358,51.0,80,1408,2.0,52.0
8359,58.0,0,1408,1.0,52.0
8360,65.0,120,68,0.0,48.0
8361,67.0,96,68,0.0,49.0
8362,61.0,0,2528,1.0,52.0
8363,68.0,92,96,0.0,50.0
8364,55.0,0,1676,3.0,55.0
8365,70.0,108,72,0.0,51.0
8366,32.0,32,180,0.0,45.0
8367,44.0,0,188,0.0,44.0
8368,72.0,160,236,0.0,56.0
8369,72.0,280,176,0.0,71.0
8370,56.0,192,112,0.0,36.0
8371,48.0,20,112,0.0,44.0
8372,60.0,16,640,1.0,52.0
8373,72.0,140,96,0.0,79.0
8374,51.0,0,908,2.0,52.0
8375,56.0,0,912,3.0,55.0
8376,56.0,16,44,0.0,22.0
8377,51.0,8,64,0.0,34.0
8378,72.0,220,96,0.0,85.0
8379,60.0,0,108,0.0,35.0
8380,72.0,188,64,0.0,72.0
8381,75.0,64,104,0.0,76.0
8382,73.0,80,84,0.0,79.0
8383,63.0,100,96,0.0,39.0
8384,56.0,12,100,0.0,35.0
8385,72.0,352,52,0.0,74.0
8386,37.0,44,112,0.0,41.0
8387,49.0,0,120,0.0,44.0
8388,53.0,28,40,0.0,40.0
8389,58.0,372,80,0.0,38.0
8390,72.0,112,584,0.0,81.0
8391,64.0,220,68,0.0,63.0
8392,56.0,20,108,0.0,43.0
8393,65.0,132,164,0.0,68.0
8394,72.0,104,92,0.0,76.0
8395,70.0,100,120,0.0,71.0
8396,73.0,104,56,0.0,79.0
8397,77.0,112,76,0.0,87.0
8398,61.0,4,136,0.0,37.0
8399,58.0,0,144,0.0,30.0
8400,68.0,0,156,0.0,33.0
8401,82.0,100,192,0.0,74.0
8402,91.0,172,416,0.0,88.0
8403,53.0,4,2028,2.0,52.0
8404,61.0,0,2028,1.0,55.0
8405,58.0,0,2028,1.0,55.0
8406,89.0,456,116,0.0,74.0
8407,49.0,0,2160,3.0,55.0
8408,39.0,24,116,0.0,38.0
8409,51.0,0,128,0.0,35.0
8410,58.0,0,48,0.0,37.0
8411,55.0,376,60,0.0,42.0
8412,63.0,0,96,0.0,40.0
8413,55.0,24,512,2.0,50.0
8414,51.0,0,512,3.0,50.0
8415,58.0,0,624,1.0,50.0
8416,67.0,400,80,0.0,44.0
8417,63.0,0,84,0.0,39.0
8418,58.0,0,84,0.0,38.0
8419,82.0,196,932,0.0,73.0
8420,81.0,124,104,0.0,73.0
8421,82.0,96,104,0.0,77.0
8422,67.0,16,40,0.0,32.0
8423,70.0,4,64,0.0,46.0
8424,63.0,0,60,0.0,39.0
8425,84.0,112,92,0.0,82.0
8426,82.0,76,88,0.0,79.0
8427,85.0,88,104,0.0,77.0
8428,84.0,96,88,0.0,85.0
8429,67.0,12,40,0.0,39.0
8430,70.0,0,56,0.0,38.0
8431,75.0,0,72,0.0,47.0
8432,67.0,0,40,0.0,38.0
8433,70.0,384,84,0.0,41.0
8434,63.0,0,96,0.0,36.0
8435,82.0,100,812,0.0,82.0
8436,67.0,0,68,0.0,39.0
8437,58.0,36,108,0.0,37.0
8438,63.0,4,108,0.0,40.0
8439,61.0,368,88,0.0,41.0
8440,63.0,0,88,0.0,40.0
8441,55.0,0,92,0.0,41.0
8442,75.0,376,536,0.0,72.0
8443,51.0,8,640,3.0,55.0
8444,58.0,0,640,1.0,50.0
8445,55.0,0,640,2.0,50.0
8446,32.0,4,100,0.0,42.0
8447,44.0,20,116,0.0,33.0
8448,72.0,8,488,0.0,70.0
8449,84.0,444,640,0.0,82.0
8450,51.0,344,316,0.0,48.0
8451,73.0,8,228,0.0,63.0
8452,85.0,332,252,0.0,86.0
8453,60.0,12,336,0.0,48.0
8454,56.0,0,344,0.0,32.0
8455,72.0,12,136,0.0,74.0
8456,63.0,8,560,0.0,27.0
8457,84.0,324,244,0.0,92.0
8458,60.0,0,1360,1.0,50.0
8459,44.0,0,1408,3.0,55.0
8460,51.0,16,368,0.0,44.0
8461,56.0,8,316,0.0,26.0
8462,70.0,8,388,0.0,62.0
8463,55.0,320,324,0.0,52.0
8464,82.0,356,712,0.0,79.0
8465,53.0,28,212,0.0,42.0
8466,61.0,12,980,0.0,37.0
8467,87.0,332,384,0.0,80.0
8468,75.0,12,384,0.0,62.0
8469,63.0,16,1176,0.0,40.0
8470,55.0,312,292,0.0,51.0
8471,51.0,4,680,8.0,67.0
8472,61.0,0,1408,1.0,50.0
8473,39.0,4,1408,3.0,55.0
8474,63.0,0,3740,1.0,50.0
8475,56.0,0,304,0.0,35.0
8476,60.0,12,316,0.0,45.0
8477,68.0,8,440,0.0,56.0
8478,63.0,12,444,0.0,32.0
8479,80.0,332,472,0.0,79.0
8480,60.0,4,640,1.0,50.0
8481,44.0,8,640,3.0,55.0
8482,51.0,320,320,0.0,44.0
8483,60.0,0,668,8.0,70.0
8484,58.0,4,352,0.0,42.0
8485,67.0,8,392,0.0,58.0
8486,61.0,20,384,8.0,75.0
8487,79.0,312,460,0.0,79.0
8488,65.0,4,64,0.0,62.0
8489,77.0,124,132,0.0,84.0
8490,56.0,300,380,0.0,46.0
8491,63.0,8,764,0.0,29.0
8492,60.0,44,384,8.0,73.0
8493,58.0,16,312,0.0,39.0
8494,51.0,304,300,0.0,50.0
8495,58.0,20,656,8.0,72.0
8496,63.0,308,408,0.0,39.0
8497,58.0,8,416,0.0,29.0
8498,61.0,8,436,0.0,37.0
8499,67.0,8,1124,0.0,64.0
8500,61.0,4,1792,1.0,50.0
8501,39.0,0,1792,3.0,55.0
8502,51.0,336,124,0.0,40.0
8503,79.0,164,1184,0.0,85.0
8504,63.0,28,768,8.0,75.0
8505,44.0,344,96,0.0,44.0
8506,68.0,0,416,0.0,58.0
8507,51.0,364,252,0.0,44.0
8508,80.0,0,676,0.0,79.0
8509,56.0,0,668,8.0,72.0
8510,70.0,16,224,0.0,60.0
8511,82.0,276,268,0.0,77.0
8512,63.0,4,320,0.0,18.0
8513,60.0,4,336,0.0,38.0
8514,55.0,8,340,8.0,72.0
8515,56.0,8,364,0.0,33.0
8516,51.0,20,76,0.0,44.0
8517,68.0,4,116,0.0,65.0
8518,80.0,288,120,0.0,85.0
8519,53.0,20,344,8.0,72.0
8520,60.0,24,1408,1.0,50.0
8521,44.0,20,1408,3.0,55.0
8522,39.0,16,108,0.0,43.0
8523,67.0,4,368,0.0,61.0
8524,79.0,304,456,0.0,81.0
8525,72.0,136,64,0.0,77.0
8526,58.0,20,640,1.0,50.0
8527,55.0,0,884,8.0,74.0
8528,84.0,148,356,0.0,89.0
8529,72.0,124,532,0.0,81.0
8530,61.0,328,172,0.0,47.0
8531,70.0,12,68,0.0,59.0
8532,63.0,12,584,0.0,50.0
8533,82.0,144,116,0.0,73.0
8534,61.0,20,640,1.0,50.0
8535,39.0,4,1408,3.0,55.0
8536,60.0,12,332,0.0,47.0
8537,56.0,0,340,8.0,72.0
8538,80.0,176,408,0.0,73.0
8539,68.0,8,424,0.0,54.0
8540,60.0,16,640,1.0,50.0
8541,60.0,44,284,8.0,70.0
8542,44.0,8,640,3.0,55.0
8543,63.0,304,352,0.0,34.0
8544,67.0,8,136,0.0,53.0
8545,79.0,272,236,0.0,75.0
8546,51.0,304,2020,0.0,42.0
8547,58.0,8,236,1.0,50.0
8548,58.0,8,328,0.0,40.0
8549,65.0,8,100,0.0,44.0
8550,77.0,300,240,0.0,76.0
8551,60.0,16,240,1.0,50.0
8552,56.0,8,316,0.0,34.0
8553,58.0,4,328,0.0,42.0
8554,63.0,312,332,0.0,44.0
8555,63.0,0,1344,8.0,74.0
8556,67.0,4,756,0.0,59.0
8557,58.0,16,768,1.0,50.0
8558,79.0,320,800,0.0,77.0
8559,51.0,16,10624,2.0,50.0
8560,56.0,372,268,0.0,43.0
8561,58.0,44,352,8.0,70.0
8562,51.0,20,1792,3.0,55.0
8563,55.0,300,116,0.0,40.0
8564,60.0,44,404,8.0,70.0
8565,37.0,0,116,0.0,44.0
8566,77.0,388,480,0.0,80.0
8567,61.0,20,680,8.0,70.0
8568,68.0,0,820,0.0,46.0
8569,65.0,0,960,1.0,58.0
8570,56.0,24,960,1.0,58.0
8571,75.0,320,276,0.0,77.0
8572,49.0,0,960,3.0,60.0
8573,65.0,0,1012,0.0,42.0
8574,63.0,8,340,8.0,70.0
8575,53.0,36,368,0.0,39.0
8576,61.0,4,76,0.0,46.0
8577,56.0,344,736,0.0,37.0
8578,73.0,284,168,0.0,83.0
8579,63.0,164,192,0.0,50.0
8580,70.0,52,156,0.0,66.0
8581,73.0,56,112,0.0,65.0
8582,43.0,44,92,0.0,53.0
8583,65.0,60,416,8.0,70.0
8584,75.0,36,80,0.0,88.0
8585,58.0,308,64,0.0,54.0
8586,63.0,144,84,0.0,54.0
8587,68.0,60,56,0.0,57.0
8588,72.0,40,72,0.0,81.0
8589,61.0,24,688,1.0,60.0
8590,70.0,0,688,1.0,60.0
8591,43.0,20,688,3.0,60.0
8592,63.0,0,704,8.0,70.0
8593,44.0,44,112,0.0,53.0
8594,80.0,96,48,0.0,89.0
8595,60.0,280,56,0.0,65.0
8596,60.0,20,596,8.0,70.0
8597,44.0,0,640,3.0,60.0
8598,41.0,4,48,0.0,45.0
8599,53.0,20,108,0.0,42.0
8600,68.0,92,168,0.0,71.0
8601,63.0,244,468,0.0,55.0
8602,56.0,244,72,0.0,48.0
8603,75.0,92,520,0.0,89.0
8604,53.0,44,576,3.0,60.0
8605,68.0,24,1408,1.0,60.0
8606,60.0,0,1408,1.0,60.0
8607,70.0,76,104,0.0,58.0
8608,43.0,8,32,0.0,51.0
8609,56.0,0,632,8.0,70.0
8610,73.0,8,76,0.0,74.0
8611,55.0,76,120,0.0,59.0
8612,75.0,40,84,0.0,77.0
8613,73.0,88,56,0.0,65.0
8614,75.0,88,64,0.0,79.0
8615,58.0,36,52,0.0,45.0
8616,73.0,48,40,0.0,64.0
8617,75.0,76,68,0.0,69.0
8618,73.0,64,56,0.0,61.0
8619,63.0,192,724,0.0,39.0
8620,72.0,68,80,0.0,74.0
8621,58.0,0,640,1.0,60.0
8622,75.0,100,92,0.0,79.0
8623,55.0,0,708,3.0,63.0
8624,73.0,84,96,0.0,74.0
8625,72.0,112,64,0.0,74.0
8626,58.0,20,908,8.0,70.0
8627,44.0,0,96,0.0,41.0
8628,56.0,12,136,0.0,25.0
8629,63.0,4,280,0.0,39.0
8630,60.0,332,76,0.0,43.0
8631,72.0,112,452,0.0,75.0
8632,68.0,4,488,0.0,43.0
8633,56.0,0,560,3.0,65.0
8634,63.0,24,1564,1.0,60.0
8635,60.0,12,640,1.0,60.0
8636,60.0,12,772,8.0,70.0
8637,38.0,0,92,0.0,36.0
8638,50.0,428,144,0.0,24.0
8639,77.0,0,444,0.0,79.0
8640,71.0,0,476,0.0,56.0
8641,68.0,0,524,0.0,42.0
8642,59.0,416,92,0.0,47.0
8643,65.0,0,560,0.0,47.0
8644,50.0,0,520,3.0,65.0
8645,65.0,0,792,1.0,64.0
8646,59.0,24,800,1.0,64.0
8647,50.0,20,824,8.0,70.0
8648,39.0,0,104,0.0,46.0
8649,60.0,0,116,0.0,48.0
8650,63.0,400,176,0.0,59.0
8651,61.0,176,32,0.0,58.0
8652,65.0,0,48,0.0,65.0
8653,63.0,200,96,0.0,56.0
8654,67.0,0,104,0.0,71.0
8655,65.0,184,20,0.0,66.0
8656,51.0,0,244,0.0,45.0
8657,68.0,0,72,0.0,67.0
8658,67.0,0,68,0.0,70.0
8659,70.0,196,132,0.0,74.0
8660,68.0,0,64,0.0,68.0
8661,72.0,168,64,0.0,81.0
8662,73.0,12,20,0.0,56.0
8663,56.0,8,424,0.0,38.0
8664,70.0,0,76,0.0,75.0
8665,60.0,8,496,0.0,44.0
8666,63.0,20,520,0.0,43.0
8667,71.0,0,60,0.0,72.0
8668,74.0,176,68,0.0,82.0
8669,51.0,172,264,0.0,45.0
8670,68.0,188,120,0.0,53.0
8671,60.0,0,120,0.0,50.0
8672,72.0,0,136,0.0,72.0
8673,75.0,0,148,0.0,77.0
8674,56.0,0,152,0.0,43.0
8675,77.0,0,48,0.0,88.0
8676,73.0,192,56,0.0,77.0
8677,75.0,0,68,0.0,70.0
8678,79.0,0,124,0.0,86.0
8679,51.0,180,228,0.0,49.0
8680,77.0,0,48,0.0,88.0
8681,80.0,180,76,0.0,85.0
8682,79.0,0,88,0.0,78.0
8683,82.0,0,136,0.0,84.0
8684,80.0,180,48,0.0,75.0
8685,84.0,0,68,0.0,85.0
8686,60.0,200,464,0.0,49.0
8687,63.0,0,464,0.0,44.0
8688,56.0,0,500,0.0,39.0
8689,51.0,0,116,0.0,47.0
8690,82.0,208,116,0.0,80.0
8691,85.0,0,152,0.0,87.0
8692,60.0,24,2944,1.0,64.0
8693,63.0,0,2944,1.0,64.0
8694,84.0,0,64,0.0,80.0
8695,60.0,0,2944,10.0,55.0
8696,68.0,4,2944,10.0,55.0
8697,87.0,224,140,0.0,85.0
8698,39.0,268,144,0.0,56.0
8699,88.0,0,168,0.0,82.0
8700,85.0,0,192,0.0,73.0
8701,88.0,240,84,0.0,88.0
8702,82.0,0,100,0.0,82.0
8703,81.0,204,56,0.0,74.0
8704,85.0,0,108,0.0,82.0
8705,51.0,0,248,0.0,55.0
8706,80.0,0,76,0.0,83.0
8707,85.0,204,84,0.0,85.0
8708,79.0,0,76,0.0,83.0
8709,82.0,0,104,0.0,77.0
8710,67.0,208,112,0.0,49.0
8711,82.0,0,64,0.0,88.0
8712,76.0,200,100,0.0,64.0
8713,51.0,0,4480,3.0,67.0
8714,61.0,0,464,0.0,49.0
8715,58.0,4,472,0.0,45.0
8716,79.0,208,72,0.0,77.0
8717,75.0,0,92,0.0,73.0
8718,51.0,28,120,0.0,43.0
8719,74.0,0,60,0.0,78.0
8720,79.0,192,60,0.0,79.0
8721,76.0,216,108,0.0,75.0
8722,39.0,0,108,0.0,54.0
8723,73.0,0,156,0.0,64.0
8724,76.0,232,80,0.0,80.0
8725,70.0,0,96,0.0,69.0
8726,69.0,0,60,0.0,66.0
8727,73.0,208,96,0.0,73.0
8728,68.0,232,76,0.0,65.0
8729,73.0,0,76,0.0,69.0
8730,51.0,0,444,0.0,46.0
8731,67.0,0,112,0.0,70.0
8732,70.0,0,152,0.0,65.0
8733,67.0,248,56,0.0,75.0
8734,64.0,0,92,0.0,67.0
8735,61.0,236,344,0.0,41.0
8736,67.0,0,96,0.0,74.0
8737,63.0,0,148,0.0,59.0
8738,58.0,0,680,0.0,41.0
8739,51.0,280,168,0.0,44.0
8740,70.0,0,3328,10.0,55.0
8741,63.0,20,3328,10.0,55.0
8742,61.0,0,84,0.0,59.0
8743,67.0,300,112,0.0,70.0
8744,67.0,24,3596,1.0,64.0
8745,61.0,0,3596,1.0,64.0
8746,51.0,16,6788,8.0,67.0
8747,44.0,380,340,0.0,39.0
8748,56.0,0,356,0.0,40.0
8749,60.0,0,368,0.0,56.0
8750,68.0,0,420,0.0,63.0
8751,68.0,24,640,1.0,60.0
8752,60.0,0,640,1.0,60.0
8753,44.0,0,672,8.0,60.0
8754,60.0,20,724,10.0,50.0
8755,68.0,0,724,10.0,50.0
8756,68.0,644,640,1.0,48.0
8757,56.0,0,640,4.0,48.0
8758,56.0,8,640,2.0,52.0
8759,65.0,540,528,1.0,47.0
8760,53.0,0,528,2.0,49.0
8761,53.0,8,528,4.0,48.0
8762,63.0,484,252,1.0,46.0
8763,51.0,0,252,2.0,48.0
8764,51.0,8,252,4.0,48.0
8765,65.0,228,280,1.0,48.0
8766,53.0,8,280,2.0,51.0
8767,53.0,0,280,4.0,49.0
8768,62.0,276,584,1.0,55.0
8769,50.0,8,584,4.0,57.0
8770,50.0,0,584,2.0,58.0
8771,70.0,0,552,5.0,77.0
8772,82.0,0,552,5.0,84.0
8773,71.0,520,456,5.0,83.0
8774,83.0,0,456,5.0,100.0
8775,62.0,0,1176,8.0,71.0
8776,68.0,552,1320,7.0,75.0
8777,77.0,0,272,6.0,63.0
8778,71.0,0,456,5.0,83.0
8779,67.0,264,260,7.0,69.0
8780,61.0,528,564,8.0,66.0
8781,83.0,0,564,5.0,77.0
8782,72.0,0,456,5.0,83.0
8783,67.0,0,564,7.0,75.0
8784,84.0,0,564,5.0,84.0
8785,60.0,0,564,8.0,71.0
8786,76.0,268,564,6.0,68.0
8787,60.0,536,572,1.0,49.0
8788,48.0,0,572,4.0,51.0
8789,48.0,8,572,2.0,52.0
8790,58.0,548,564,1.0,41.0
8791,46.0,8,564,2.0,43.0
8792,46.0,0,564,4.0,43.0
8793,60.0,508,324,1.0,45.0
8794,48.0,8,332,2.0,46.0
8795,48.0,0,340,4.0,46.0
8796,61.0,252,328,1.0,49.0
8797,49.0,0,324,2.0,51.0
8798,49.0,8,332,4.0,50.0
8799,51.0,0,568,4.0,46.0
8800,51.0,8,608,2.0,46.0
8801,63.0,264,624,1.0,44.0
8802,63.0,0,260,8.0,64.0
8803,79.0,0,268,5.0,75.0
8804,70.0,0,268,7.0,67.0
8805,73.0,548,268,6.0,61.0
8806,80.0,0,320,5.0,90.0
8807,72.0,0,320,6.0,73.0
8808,65.0,260,320,8.0,77.0
8809,68.0,0,320,7.0,81.0
8810,82.0,0,556,5.0,83.0
8811,77.0,280,556,6.0,67.0
8812,58.0,0,556,8.0,70.0
8813,73.0,0,556,7.0,74.0
8814,75.0,0,316,6.0,66.0
8815,84.0,528,316,5.0,81.0
8816,73.0,0,356,6.0,66.0
8817,82.0,288,356,5.0,81.0
8818,67.0,0,700,7.0,73.0
8819,63.0,0,700,8.0,69.0
8820,56.0,0,1272,8.0,65.0
8821,72.0,332,1272,6.0,62.0
8822,68.0,0,1272,7.0,68.0
8823,80.0,0,1272,5.0,76.0
8824,60.0,1252,636,1.0,36.0
8825,68.0,0,636,1.0,38.0
8826,51.0,8,636,2.0,39.0
8827,44.0,0,676,3.0,42.0
8828,68.0,0,596,1.0,47.0
8829,51.0,0,596,2.0,49.0
8830,60.0,680,636,1.0,36.0
8831,44.0,8,4,3.0,42.0
8832,51.0,416,288,0.0,46.0
8833,32.0,640,836,0.0,46.0
8834,60.0,380,340,0.0,59.0
8835,56.0,356,304,0.0,54.0
8836,60.0,348,308,0.0,60.0
8837,63.0,328,268,0.0,56.0
8838,72.0,328,328,0.0,67.0
8839,68.0,360,144,0.0,58.0
8840,72.0,348,364,0.0,59.0
8841,75.0,392,400,0.0,62.0
8842,80.0,400,124,0.0,60.0
8843,84.0,460,300,0.0,59.0
8844,92.0,644,580,0.0,67.0
8845,60.0,0,5668,1.0,36.0
8846,68.0,24,5684,1.0,43.0
8847,56.0,0,5684,4.0,40.0
8848,51.0,0,5684,2.0,45.0
