,note,step,duration,channel,velocity
0,69.0,0,128,0.0,125.0
1,57.0,0,128,1.0,118.0
2,45.0,0,128,1.0,118.0
3,33.0,0,128,1.0,118.0
4,61.0,0,128,1.0,118.0
5,52.0,0,64,1.0,118.0
6,45.0,0,64,1.0,118.0
7,64.0,0,64,0.0,125.0
8,57.0,0,64,1.0,118.0
9,61.0,288,64,0.0,125.0
10,61.0,0,64,0.0,125.0
11,57.0,0,128,1.0,118.0
12,52.0,96,128,1.0,118.0
13,45.0,0,128,1.0,118.0
14,64.0,0,128,0.0,125.0
15,52.0,0,64,1.0,118.0
16,61.0,0,64,0.0,125.0
17,64.0,0,64,0.0,125.0
18,45.0,288,64,1.0,118.0
19,57.0,0,64,1.0,118.0
20,59.0,0,64,1.0,118.0
21,66.0,96,64,0.0,125.0
22,52.0,0,64,1.0,118.0
23,45.0,0,64,1.0,118.0
24,62.0,0,64,0.0,125.0
25,59.0,96,64,1.0,118.0
26,62.0,0,64,0.0,125.0
27,68.0,0,64,0.0,125.0
28,52.0,0,64,1.0,118.0
29,45.0,0,64,1.0,118.0
30,62.0,0,64,0.0,125.0
31,59.0,0,64,1.0,118.0
32,52.0,0,64,1.0,118.0
33,69.0,0,64,0.0,125.0
34,45.0,96,64,1.0,118.0
35,59.0,96,64,1.0,118.0
36,52.0,0,64,1.0,118.0
37,62.0,0,64,0.0,125.0
38,71.0,0,64,0.0,125.0
39,45.0,0,64,1.0,118.0
40,45.0,0,192,1.0,118.0
41,52.0,0,192,1.0,118.0
42,57.0,0,192,1.0,118.0
43,73.0,96,192,0.0,125.0
44,61.0,0,192,0.0,125.0
45,57.0,0,64,1.0,118.0
46,52.0,288,64,1.0,118.0
47,45.0,0,64,1.0,118.0
48,69.0,0,64,0.0,125.0
49,61.0,0,64,0.0,125.0
50,45.0,0,128,1.0,118.0
51,61.0,0,128,0.0,125.0
52,69.0,0,128,0.0,125.0
53,57.0,96,128,1.0,118.0
54,52.0,0,128,1.0,118.0
55,56.0,192,64,1.0,118.0
56,44.0,0,64,1.0,118.0
57,57.0,96,64,1.0,118.0
58,45.0,0,64,1.0,118.0
59,59.0,0,64,1.0,118.0
60,47.0,96,64,1.0,118.0
61,45.0,0,128,1.0,118.0
62,57.0,96,128,1.0,118.0
63,52.0,0,128,1.0,118.0
64,40.0,192,128,1.0,118.0
65,45.0,0,128,1.0,118.0
66,33.0,0,128,1.0,118.0
67,73.0,0,128,0.0,125.0
68,61.0,96,128,0.0,125.0
69,45.0,288,64,1.0,118.0
70,52.0,0,64,1.0,118.0
71,57.0,0,64,1.0,118.0
72,61.0,0,64,0.0,125.0
73,69.0,0,64,0.0,125.0
74,52.0,96,128,1.0,118.0
75,45.0,0,128,1.0,118.0
76,57.0,0,128,1.0,118.0
77,69.0,0,128,0.0,125.0
78,61.0,0,128,0.0,125.0
79,68.0,0,64,0.0,125.0
80,57.0,0,64,1.0,118.0
81,52.0,0,64,1.0,118.0
82,45.0,0,64,1.0,118.0
83,61.0,288,64,0.0,125.0
84,69.0,0,64,0.0,125.0
85,45.0,0,64,1.0,118.0
86,52.0,0,64,1.0,118.0
87,57.0,0,64,1.0,118.0
88,61.0,96,64,0.0,125.0
89,45.0,96,64,1.0,118.0
90,69.0,0,64,0.0,125.0
91,71.0,0,64,0.0,125.0
92,61.0,0,64,0.0,125.0
93,57.0,0,64,1.0,118.0
94,52.0,0,64,1.0,118.0
95,52.0,0,64,1.0,118.0
96,45.0,0,64,1.0,118.0
97,69.0,0,64,0.0,125.0
98,73.0,0,64,0.0,125.0
99,61.0,96,64,0.0,125.0
100,57.0,0,64,1.0,118.0
101,52.0,0,64,1.0,118.0
102,59.0,0,64,1.0,118.0
103,45.0,96,64,1.0,118.0
104,62.0,0,64,0.0,125.0
105,69.0,0,64,0.0,125.0
106,74.0,0,64,0.0,125.0
107,54.0,0,192,1.0,118.0
108,60.0,0,192,1.0,118.0
109,51.0,96,192,1.0,118.0
110,45.0,0,192,1.0,118.0
111,63.0,0,192,0.0,125.0
112,69.0,0,192,0.0,125.0
113,78.0,0,192,0.0,125.0
114,57.0,0,64,1.0,118.0
115,52.0,0,64,1.0,118.0
116,61.0,0,64,1.0,118.0
117,64.0,288,64,0.0,125.0
118,69.0,0,64,0.0,125.0
119,76.0,0,64,0.0,125.0
120,69.0,96,128,0.0,125.0
121,57.0,0,128,1.0,118.0
122,61.0,0,128,1.0,118.0
123,64.0,0,128,0.0,125.0
124,76.0,0,128,0.0,125.0
125,52.0,0,128,1.0,118.0
126,56.0,192,64,1.0,118.0
127,44.0,0,64,1.0,118.0
128,45.0,96,64,1.0,118.0
129,57.0,0,64,1.0,118.0
130,59.0,96,64,1.0,118.0
131,47.0,0,64,1.0,118.0
132,57.0,96,128,1.0,118.0
133,45.0,0,128,1.0,118.0
134,40.0,0,128,1.0,118.0
135,77.0,0,128,0.0,125.0
136,85.0,0,128,0.0,125.0
137,73.0,0,128,0.0,125.0
138,44.0,0,128,1.0,118.0
139,32.0,96,128,1.0,118.0
140,56.0,0,64,1.0,118.0
141,65.0,192,64,1.0,118.0
142,68.0,0,64,0.0,125.0
143,53.0,0,64,1.0,118.0
144,61.0,0,64,1.0,118.0
145,80.0,0,32,0.0,125.0
146,73.0,0,32,0.0,125.0
147,68.0,96,64,0.0,125.0
148,61.0,0,64,1.0,118.0
149,53.0,0,64,1.0,118.0
150,65.0,0,64,1.0,118.0
151,56.0,0,64,1.0,118.0
152,73.0,0,32,0.0,125.0
153,80.0,96,32,0.0,125.0
154,68.0,0,64,0.0,125.0
155,61.0,0,64,1.0,118.0
156,65.0,0,64,1.0,118.0
157,53.0,0,64,1.0,118.0
158,56.0,0,64,1.0,118.0
159,80.0,0,32,0.0,125.0
160,73.0,0,32,0.0,125.0
161,68.0,0,128,0.0,125.0
162,56.0,0,128,1.0,118.0
163,65.0,0,128,1.0,118.0
164,53.0,96,128,1.0,118.0
165,61.0,0,128,1.0,118.0
166,80.0,192,128,0.0,125.0
167,73.0,0,128,0.0,125.0
168,68.0,0,128,0.0,125.0
169,61.0,0,128,1.0,118.0
170,53.0,0,128,1.0,118.0
171,65.0,0,128,1.0,118.0
172,56.0,0,128,1.0,118.0
173,75.0,96,64,0.0,125.0
174,82.0,0,64,0.0,125.0
175,70.0,0,128,0.0,125.0
176,84.0,0,64,0.0,125.0
177,54.0,0,128,1.0,118.0
178,56.0,0,128,1.0,118.0
179,60.0,0,128,1.0,118.0
180,63.0,0,128,1.0,118.0
181,72.0,96,128,0.0,125.0
182,85.0,96,64,0.0,125.0
183,80.0,0,64,0.0,125.0
184,44.0,0,128,1.0,118.0
185,32.0,0,128,1.0,118.0
186,73.0,0,128,0.0,125.0
187,75.0,96,128,0.0,125.0
188,87.0,0,128,0.0,125.0
189,89.0,0,192,0.0,125.0
190,25.0,96,192,1.0,118.0
191,37.0,0,192,1.0,118.0
192,77.0,0,192,0.0,125.0
193,85.0,0,192,0.0,125.0
194,49.0,0,64,1.0,118.0
195,61.0,0,64,1.0,118.0
196,73.0,0,64,0.0,125.0
197,85.0,288,64,0.0,125.0
198,49.0,0,128,1.0,118.0
199,73.0,96,128,0.0,125.0
200,85.0,0,128,0.0,125.0
201,61.0,0,128,1.0,118.0
202,49.0,0,64,1.0,118.0
203,61.0,0,64,1.0,118.0
204,85.0,0,64,0.0,125.0
205,73.0,192,64,0.0,125.0
206,85.0,0,64,0.0,125.0
207,49.0,0,64,1.0,118.0
208,73.0,96,64,0.0,125.0
209,61.0,0,64,1.0,118.0
210,49.0,0,64,1.0,118.0
211,61.0,96,64,1.0,118.0
212,73.0,0,64,0.0,125.0
213,85.0,0,64,0.0,125.0
214,85.0,96,64,0.0,125.0
215,73.0,0,64,0.0,125.0
216,61.0,0,64,1.0,118.0
217,49.0,0,64,1.0,118.0
218,85.0,96,64,0.0,125.0
219,49.0,0,64,1.0,118.0
220,61.0,0,64,1.0,118.0
221,73.0,0,64,0.0,125.0
222,73.0,0,64,0.0,125.0
223,49.0,96,64,1.0,118.0
224,61.0,0,64,1.0,118.0
225,85.0,0,64,0.0,125.0
226,49.0,0,128,1.0,118.0
227,85.0,0,128,0.0,125.0
228,73.0,0,128,0.0,125.0
229,61.0,96,128,1.0,118.0
230,50.0,192,96,1.0,118.0
231,54.0,0,0,1.0,118.0
232,83.0,96,0,0.0,125.0
233,78.0,0,0,0.0,125.0
234,71.0,0,0,0.0,125.0
235,59.0,0,0,1.0,118.0
236,50.0,0,64,1.0,118.0
237,78.0,0,128,0.0,125.0
238,71.0,0,128,0.0,125.0
239,59.0,0,128,1.0,118.0
240,83.0,0,128,0.0,125.0
241,54.0,0,128,1.0,118.0
242,50.0,96,128,1.0,118.0
243,52.0,0,128,1.0,118.0
244,73.0,0,128,0.0,125.0
245,56.0,192,128,1.0,118.0
246,85.0,0,128,0.0,125.0
247,61.0,0,128,1.0,118.0
248,76.0,0,128,0.0,125.0
249,81.0,192,128,0.0,125.0
250,88.0,0,128,0.0,125.0
251,64.0,0,128,1.0,118.0
252,54.0,0,256,1.0,118.0
253,57.0,0,256,1.0,118.0
254,86.0,0,64,0.0,125.0
255,74.0,0,64,0.0,125.0
256,62.0,192,128,1.0,118.0
257,85.0,96,64,0.0,125.0
258,73.0,0,64,0.0,125.0
259,52.0,0,128,1.0,118.0
260,71.0,96,128,0.0,125.0
261,62.0,0,128,1.0,118.0
262,56.0,0,128,1.0,118.0
263,83.0,0,128,0.0,125.0
264,71.0,0,96,0.0,125.0
265,76.0,192,96,0.0,125.0
266,83.0,0,96,0.0,125.0
267,64.0,0,128,1.0,118.0
268,62.0,0,128,1.0,118.0
269,56.0,0,128,1.0,118.0
270,52.0,0,128,1.0,118.0
271,73.0,96,64,0.0,125.0
272,85.0,0,64,0.0,125.0
273,64.0,0,256,1.0,118.0
274,52.0,0,256,1.0,118.0
275,56.0,0,256,1.0,118.0
276,62.0,96,256,1.0,118.0
277,76.0,0,256,0.0,125.0
278,83.0,0,256,0.0,125.0
279,71.0,0,256,0.0,125.0
280,81.0,384,128,0.0,125.0
281,57.0,0,128,1.0,118.0
282,61.0,0,128,1.0,118.0
283,64.0,0,128,1.0,118.0
284,69.0,0,128,0.0,125.0
285,57.0,0,128,1.0,118.0
286,61.0,0,128,1.0,118.0
287,45.0,0,128,1.0,118.0
288,33.0,0,128,1.0,118.0
289,69.0,384,128,0.0,125.0
290,57.0,0,64,1.0,118.0
291,45.0,0,64,1.0,118.0
292,64.0,0,64,0.0,125.0
293,61.0,288,64,0.0,125.0
294,52.0,0,64,1.0,118.0
295,61.0,0,64,0.0,125.0
296,64.0,96,128,0.0,125.0
297,57.0,0,128,1.0,118.0
298,45.0,0,128,1.0,118.0
299,52.0,0,128,1.0,118.0
300,64.0,0,64,0.0,125.0
301,61.0,0,64,0.0,125.0
302,52.0,0,64,1.0,118.0
303,45.0,288,64,1.0,118.0
304,57.0,0,64,1.0,118.0
305,59.0,0,64,1.0,118.0
306,52.0,0,64,1.0,118.0
307,62.0,0,64,0.0,125.0
308,66.0,96,64,0.0,125.0
309,45.0,0,64,1.0,118.0
310,62.0,96,64,0.0,125.0
311,68.0,0,64,0.0,125.0
312,59.0,0,64,1.0,118.0
313,52.0,0,64,1.0,118.0
314,45.0,0,64,1.0,118.0
315,59.0,0,64,1.0,118.0
316,52.0,0,64,1.0,118.0
317,62.0,96,64,0.0,125.0
318,69.0,0,64,0.0,125.0
319,45.0,0,64,1.0,118.0
320,45.0,0,64,1.0,118.0
321,62.0,0,64,0.0,125.0
322,71.0,0,64,0.0,125.0
323,59.0,96,64,1.0,118.0
324,52.0,0,64,1.0,118.0
325,45.0,0,192,1.0,118.0
326,57.0,0,192,1.0,118.0
327,52.0,0,192,1.0,118.0
328,73.0,96,192,0.0,125.0
329,61.0,0,192,0.0,125.0
330,45.0,0,64,1.0,118.0
331,57.0,288,64,1.0,118.0
332,52.0,0,64,1.0,118.0
333,69.0,0,64,0.0,125.0
334,61.0,0,64,0.0,125.0
335,45.0,0,128,1.0,118.0
336,52.0,0,128,1.0,118.0
337,61.0,0,128,0.0,125.0
338,69.0,96,128,0.0,125.0
339,57.0,0,128,1.0,118.0
340,44.0,0,64,1.0,118.0
341,56.0,192,64,1.0,118.0
342,45.0,96,64,1.0,118.0
343,57.0,0,64,1.0,118.0
344,59.0,0,64,1.0,118.0
345,47.0,96,64,1.0,118.0
346,45.0,96,128,1.0,118.0
347,57.0,0,128,1.0,118.0
348,52.0,192,128,1.0,118.0
349,40.0,0,128,1.0,118.0
350,73.0,0,128,0.0,125.0
351,61.0,0,128,0.0,125.0
352,45.0,96,128,1.0,118.0
353,33.0,0,128,1.0,118.0
354,61.0,0,64,0.0,125.0
355,69.0,288,64,0.0,125.0
356,57.0,0,64,1.0,118.0
357,45.0,0,64,1.0,118.0
358,52.0,0,64,1.0,118.0
359,52.0,0,128,1.0,118.0
360,61.0,0,128,0.0,125.0
361,69.0,0,128,0.0,125.0
362,45.0,96,128,1.0,118.0
363,57.0,0,128,1.0,118.0
364,61.0,0,64,0.0,125.0
365,68.0,288,64,0.0,125.0
366,52.0,0,64,1.0,118.0
367,57.0,0,64,1.0,118.0
368,45.0,0,64,1.0,118.0
369,61.0,0,64,0.0,125.0
370,69.0,0,64,0.0,125.0
371,45.0,96,64,1.0,118.0
372,52.0,0,64,1.0,118.0
373,57.0,0,64,1.0,118.0
374,52.0,0,64,1.0,118.0
375,61.0,96,64,0.0,125.0
376,45.0,0,64,1.0,118.0
377,69.0,0,64,0.0,125.0
378,57.0,0,64,1.0,118.0
379,71.0,0,64,0.0,125.0
380,45.0,0,64,1.0,118.0
381,69.0,0,64,0.0,125.0
382,73.0,0,64,0.0,125.0
383,61.0,96,64,0.0,125.0
384,52.0,0,64,1.0,118.0
385,57.0,0,64,1.0,118.0
386,45.0,96,64,1.0,118.0
387,62.0,0,64,0.0,125.0
388,69.0,0,64,0.0,125.0
389,74.0,0,64,0.0,125.0
390,59.0,0,64,1.0,118.0
391,52.0,0,64,1.0,118.0
392,78.0,0,192,0.0,125.0
393,63.0,0,192,0.0,125.0
394,45.0,96,192,1.0,118.0
395,51.0,0,192,1.0,118.0
396,54.0,0,192,1.0,118.0
397,60.0,0,192,1.0,118.0
398,69.0,0,192,0.0,125.0
399,69.0,0,64,0.0,125.0
400,76.0,288,64,0.0,125.0
401,61.0,0,64,1.0,118.0
402,57.0,0,64,1.0,118.0
403,52.0,0,64,1.0,118.0
404,64.0,0,64,0.0,125.0
405,76.0,0,128,0.0,125.0
406,64.0,96,128,0.0,125.0
407,52.0,0,128,1.0,118.0
408,57.0,0,128,1.0,118.0
409,61.0,0,128,1.0,118.0
410,69.0,0,128,0.0,125.0
411,56.0,192,64,1.0,118.0
412,44.0,0,64,1.0,118.0
413,57.0,96,64,1.0,118.0
414,45.0,0,64,1.0,118.0
415,59.0,96,64,1.0,118.0
416,47.0,0,64,1.0,118.0
417,57.0,0,128,1.0,118.0
418,45.0,96,128,1.0,118.0
419,52.0,0,100,1.0,118.0
420,40.0,192,128,1.0,118.0
421,44.0,96,128,1.0,118.0
422,32.0,0,128,1.0,118.0
423,73.0,0,128,0.0,125.0
424,85.0,0,128,0.0,125.0
425,77.0,0,128,0.0,125.0
426,68.0,0,64,0.0,125.0
427,65.0,192,64,1.0,118.0
428,53.0,0,64,1.0,118.0
429,56.0,0,64,1.0,118.0
430,61.0,0,64,1.0,118.0
431,80.0,0,32,0.0,125.0
432,73.0,0,32,0.0,125.0
433,53.0,0,64,1.0,118.0
434,61.0,0,64,1.0,118.0
435,56.0,0,64,1.0,118.0
436,68.0,0,64,0.0,125.0
437,65.0,96,64,1.0,118.0
438,80.0,0,32,0.0,125.0
439,73.0,0,32,0.0,125.0
440,68.0,0,64,0.0,125.0
441,53.0,0,64,1.0,118.0
442,56.0,0,64,1.0,118.0
443,61.0,0,64,1.0,118.0
444,65.0,96,64,1.0,118.0
445,73.0,0,32,0.0,125.0
446,80.0,0,32,0.0,125.0
447,61.0,0,128,1.0,118.0
448,53.0,96,128,1.0,118.0
449,65.0,0,128,1.0,118.0
450,68.0,0,128,0.0,125.0
451,56.0,0,128,1.0,118.0
452,56.0,0,128,1.0,118.0
453,68.0,0,128,0.0,125.0
454,53.0,0,128,1.0,118.0
455,80.0,0,128,0.0,125.0
456,61.0,192,128,1.0,118.0
457,65.0,0,128,1.0,118.0
458,73.0,0,128,0.0,125.0
459,75.0,96,64,0.0,125.0
460,82.0,0,64,0.0,125.0
461,70.0,0,128,0.0,125.0
462,84.0,0,64,0.0,125.0
463,54.0,0,128,1.0,118.0
464,56.0,0,128,1.0,118.0
465,63.0,0,128,1.0,118.0
466,72.0,0,128,0.0,125.0
467,60.0,96,128,1.0,118.0
468,85.0,0,64,0.0,125.0
469,80.0,0,64,0.0,125.0
470,73.0,0,128,0.0,125.0
471,44.0,0,128,1.0,118.0
472,32.0,96,128,1.0,118.0
473,87.0,0,128,0.0,125.0
474,75.0,96,128,0.0,125.0
475,37.0,0,192,1.0,118.0
476,77.0,0,192,0.0,125.0
477,85.0,0,192,0.0,125.0
478,89.0,96,192,0.0,125.0
479,25.0,0,192,1.0,118.0
480,61.0,0,64,1.0,118.0
481,73.0,0,64,0.0,125.0
482,85.0,0,64,0.0,125.0
483,49.0,288,64,1.0,118.0
484,49.0,0,128,1.0,118.0
485,61.0,0,128,1.0,118.0
486,73.0,0,128,0.0,125.0
487,85.0,96,128,0.0,125.0
488,73.0,192,64,0.0,125.0
489,85.0,0,64,0.0,125.0
490,61.0,0,64,1.0,118.0
491,49.0,0,64,1.0,118.0
492,73.0,96,64,0.0,125.0
493,61.0,0,64,1.0,118.0
494,85.0,0,64,0.0,125.0
495,49.0,0,64,1.0,118.0
496,85.0,0,64,0.0,125.0
497,73.0,0,64,0.0,125.0
498,61.0,96,64,1.0,118.0
499,49.0,0,64,1.0,118.0
500,61.0,96,64,1.0,118.0
501,49.0,0,64,1.0,118.0
502,85.0,0,64,0.0,125.0
503,73.0,0,64,0.0,125.0
504,61.0,0,64,1.0,118.0
505,85.0,0,64,0.0,125.0
506,73.0,96,64,0.0,125.0
507,49.0,0,64,1.0,118.0
508,73.0,96,64,0.0,125.0
509,49.0,0,64,1.0,118.0
510,85.0,0,64,0.0,125.0
511,61.0,0,64,1.0,118.0
512,49.0,0,128,1.0,118.0
513,85.0,0,128,0.0,125.0
514,73.0,0,128,0.0,125.0
515,61.0,96,128,1.0,118.0
516,59.0,96,0,1.0,118.0
517,54.0,0,0,1.0,118.0
518,71.0,0,96,0.0,125.0
519,78.0,0,96,0.0,125.0
520,83.0,0,96,0.0,125.0
521,50.0,0,0,1.0,118.0
522,71.0,0,64,0.0,125.0
523,78.0,0,64,0.0,125.0
524,83.0,0,64,0.0,125.0
525,71.0,0,128,0.0,125.0
526,59.0,0,128,1.0,118.0
527,54.0,0,128,1.0,118.0
528,50.0,0,128,1.0,118.0
529,83.0,96,128,0.0,125.0
530,78.0,0,128,0.0,125.0
531,52.0,0,128,1.0,118.0
532,61.0,0,128,1.0,118.0
533,56.0,0,128,1.0,118.0
534,73.0,192,128,0.0,125.0
535,85.0,0,128,0.0,125.0
536,88.0,0,128,0.0,125.0
537,81.0,0,128,0.0,125.0
538,64.0,0,128,1.0,118.0
539,76.0,0,128,0.0,125.0
540,74.0,192,64,0.0,125.0
541,86.0,0,64,0.0,125.0
542,57.0,0,256,1.0,118.0
543,54.0,192,256,1.0,118.0
544,62.0,0,128,1.0,118.0
545,85.0,96,64,0.0,125.0
546,73.0,0,64,0.0,125.0
547,71.0,0,128,0.0,125.0
548,83.0,0,128,0.0,125.0
549,62.0,96,128,1.0,118.0
550,56.0,0,128,1.0,118.0
551,52.0,0,128,1.0,118.0
552,83.0,192,96,0.0,125.0
553,76.0,0,96,0.0,125.0
554,71.0,0,96,0.0,125.0
555,56.0,0,128,1.0,118.0
556,52.0,0,128,1.0,118.0
557,62.0,0,128,1.0,118.0
558,64.0,0,128,1.0,118.0
559,73.0,0,64,0.0,125.0
560,85.0,96,64,0.0,125.0
561,76.0,0,256,0.0,125.0
562,71.0,0,256,0.0,125.0
563,52.0,0,256,1.0,118.0
564,56.0,0,256,1.0,118.0
565,62.0,0,256,1.0,118.0
566,83.0,96,256,0.0,125.0
567,64.0,0,256,1.0,118.0
568,69.0,0,128,0.0,125.0
569,81.0,0,128,0.0,125.0
570,61.0,0,128,1.0,118.0
571,57.0,384,128,1.0,118.0
572,64.0,0,128,1.0,118.0
573,75.0,0,128,0.0,125.0
574,83.0,0,128,0.0,125.0
575,78.0,0,128,0.0,125.0
576,47.0,0,128,1.0,118.0
577,71.0,384,128,0.0,125.0
578,69.0,0,128,0.0,125.0
579,35.0,0,128,1.0,118.0
580,47.0,288,64,1.0,118.0
581,78.0,0,64,0.0,125.0
582,59.0,0,64,1.0,118.0
583,71.0,0,64,0.0,125.0
584,75.0,0,64,0.0,125.0
585,69.0,0,64,0.0,125.0
586,59.0,0,128,1.0,118.0
587,47.0,96,128,1.0,118.0
588,69.0,0,128,0.0,125.0
589,78.0,0,128,0.0,125.0
590,71.0,0,128,0.0,125.0
591,75.0,0,128,0.0,125.0
592,46.0,96,64,1.0,118.0
593,58.0,0,64,1.0,118.0
594,59.0,0,64,1.0,118.0
595,47.0,96,64,1.0,118.0
596,49.0,96,64,1.0,118.0
597,61.0,0,64,1.0,118.0
598,47.0,96,128,1.0,118.0
599,59.0,0,128,1.0,118.0
600,52.0,0,128,1.0,118.0
601,80.0,192,128,0.0,125.0
602,68.0,0,128,0.0,125.0
603,40.0,0,128,1.0,118.0
604,76.0,0,128,0.0,125.0
605,47.0,0,128,1.0,118.0
606,83.0,192,128,0.0,125.0
607,78.0,0,128,0.0,125.0
608,75.0,0,128,0.0,125.0
609,71.0,0,128,0.0,125.0
610,69.0,0,128,0.0,125.0
611,35.0,0,128,1.0,118.0
612,78.0,0,64,0.0,125.0
613,75.0,0,64,0.0,125.0
614,47.0,192,64,1.0,118.0
615,59.0,0,64,1.0,118.0
616,69.0,0,64,0.0,125.0
617,71.0,0,64,0.0,125.0
618,47.0,96,64,1.0,118.0
619,59.0,0,64,1.0,118.0
620,78.0,0,64,0.0,125.0
621,69.0,0,64,0.0,125.0
622,75.0,0,64,0.0,125.0
623,71.0,0,64,0.0,125.0
624,78.0,0,64,0.0,125.0
625,75.0,0,64,0.0,125.0
626,71.0,96,64,0.0,125.0
627,69.0,0,64,0.0,125.0
628,59.0,0,64,1.0,118.0
629,47.0,0,64,1.0,118.0
630,69.0,96,128,0.0,125.0
631,59.0,0,128,1.0,118.0
632,47.0,0,128,1.0,118.0
633,58.0,0,64,1.0,118.0
634,46.0,192,64,1.0,118.0
635,59.0,96,64,1.0,118.0
636,47.0,0,64,1.0,118.0
637,61.0,96,64,1.0,118.0
638,49.0,0,64,1.0,118.0
639,47.0,96,32,1.0,118.0
640,59.0,96,128,1.0,118.0
641,68.0,0,32,0.0,125.0
642,80.0,0,128,0.0,125.0
643,75.0,0,128,0.0,125.0
644,35.0,0,128,1.0,118.0
645,62.0,0,64,0.0,125.0
646,73.0,0,128,0.0,125.0
647,49.0,96,128,1.0,118.0
648,37.0,0,128,1.0,118.0
649,64.0,0,128,0.0,125.0
650,76.0,0,128,0.0,125.0
651,64.0,0,64,0.0,125.0
652,68.0,0,64,0.0,125.0
653,73.0,0,64,0.0,125.0
654,76.0,0,64,0.0,125.0
655,37.0,0,64,1.0,118.0
656,49.0,192,64,1.0,118.0
657,37.0,0,64,1.0,118.0
658,68.0,96,64,0.0,125.0
659,64.0,0,64,0.0,125.0
660,73.0,0,64,0.0,125.0
661,49.0,0,64,1.0,118.0
662,76.0,0,64,0.0,125.0
663,81.0,0,128,0.0,125.0
664,73.0,0,128,0.0,125.0
665,69.0,96,128,0.0,125.0
666,42.0,0,128,1.0,118.0
667,30.0,0,128,1.0,118.0
668,32.0,192,128,1.0,118.0
669,44.0,0,128,1.0,118.0
670,73.0,0,128,0.0,125.0
671,80.0,0,128,0.0,125.0
672,68.0,0,128,0.0,125.0
673,78.0,0,128,0.0,125.0
674,45.0,0,128,1.0,118.0
675,66.0,0,128,0.0,125.0
676,33.0,0,128,1.0,118.0
677,73.0,192,128,0.0,125.0
678,32.0,0,128,1.0,118.0
679,44.0,0,128,1.0,118.0
680,75.0,0,128,0.0,125.0
681,72.0,0,128,0.0,125.0
682,68.0,192,128,0.0,125.0
683,66.0,0,128,0.0,125.0
684,80.0,0,128,0.0,125.0
685,64.0,0,128,0.0,125.0
686,68.0,0,128,0.0,125.0
687,73.0,192,128,0.0,125.0
688,76.0,0,128,0.0,125.0
689,49.0,0,128,1.0,118.0
690,37.0,0,128,1.0,118.0
691,51.0,0,128,1.0,118.0
692,75.0,0,128,0.0,125.0
693,39.0,192,128,1.0,118.0
694,70.0,0,128,0.0,125.0
695,73.0,0,128,0.0,125.0
696,61.0,0,128,0.0,125.0
697,63.0,0,128,0.0,125.0
698,67.0,0,128,0.0,125.0
699,63.0,0,128,0.0,125.0
700,60.0,0,128,0.0,125.0
701,56.0,0,128,1.0,118.0
702,44.0,0,128,1.0,118.0
703,68.0,0,128,0.0,125.0
704,72.0,192,128,0.0,125.0
705,51.0,0,64,1.0,118.0
706,39.0,192,64,1.0,118.0
707,75.0,0,64,0.0,125.0
708,63.0,0,64,0.0,125.0
709,39.0,96,64,1.0,118.0
710,51.0,0,64,1.0,118.0
711,75.0,0,64,0.0,125.0
712,63.0,0,64,0.0,125.0
713,75.0,0,64,0.0,125.0
714,63.0,96,64,0.0,125.0
715,39.0,0,64,1.0,118.0
716,51.0,0,64,1.0,118.0
717,75.0,96,64,0.0,125.0
718,63.0,0,64,0.0,125.0
719,39.0,0,64,1.0,118.0
720,51.0,0,64,1.0,118.0
721,63.0,0,64,0.0,125.0
722,51.0,0,64,1.0,118.0
723,39.0,0,64,1.0,118.0
724,75.0,96,64,0.0,125.0
725,51.0,96,64,1.0,118.0
726,39.0,0,64,1.0,118.0
727,63.0,0,64,0.0,125.0
728,75.0,0,64,0.0,125.0
729,39.0,0,128,1.0,118.0
730,27.0,0,128,1.0,118.0
731,75.0,0,128,0.0,125.0
732,79.0,0,128,0.0,125.0
733,82.0,0,128,0.0,125.0
734,87.0,0,128,0.0,125.0
735,73.0,96,128,0.0,125.0
736,58.0,0,64,1.0,118.0
737,61.0,288,64,1.0,118.0
738,55.0,0,64,1.0,118.0
739,73.0,0,64,0.0,125.0
740,75.0,0,64,0.0,125.0
741,82.0,0,64,0.0,125.0
742,70.0,0,64,0.0,125.0
743,67.0,0,64,1.0,118.0
744,63.0,0,64,1.0,118.0
745,73.0,0,128,0.0,125.0
746,70.0,0,128,0.0,125.0
747,82.0,0,128,0.0,125.0
748,75.0,0,128,0.0,125.0
749,67.0,0,128,1.0,118.0
750,63.0,0,128,1.0,118.0
751,61.0,96,128,1.0,118.0
752,58.0,0,128,1.0,118.0
753,55.0,0,128,1.0,118.0
754,62.0,0,64,0.0,125.0
755,50.0,96,64,1.0,118.0
756,63.0,0,64,0.0,125.0
757,51.0,96,64,1.0,118.0
758,65.0,96,64,0.0,125.0
759,53.0,0,64,1.0,118.0
760,63.0,96,128,0.0,125.0
761,51.0,0,128,1.0,118.0
762,44.0,0,128,1.0,118.0
763,72.0,0,128,0.0,125.0
764,75.0,0,128,0.0,125.0
765,80.0,192,128,0.0,125.0
766,84.0,0,128,0.0,125.0
767,32.0,0,128,1.0,118.0
768,27.0,192,128,1.0,118.0
769,82.0,0,32,0.0,125.0
770,79.0,0,128,0.0,125.0
771,75.0,0,32,0.0,125.0
772,73.0,0,32,0.0,125.0
773,39.0,0,128,1.0,118.0
774,87.0,0,128,0.0,125.0
775,70.0,96,64,0.0,125.0
776,55.0,0,64,1.0,118.0
777,58.0,0,64,1.0,118.0
778,61.0,0,64,1.0,118.0
779,63.0,0,64,1.0,118.0
780,67.0,0,64,1.0,118.0
781,63.0,0,64,1.0,118.0
782,67.0,0,64,1.0,118.0
783,61.0,0,64,1.0,118.0
784,70.0,0,64,0.0,125.0
785,73.0,0,64,0.0,125.0
786,82.0,0,64,0.0,125.0
787,75.0,0,64,0.0,125.0
788,58.0,0,64,1.0,118.0
789,55.0,0,64,1.0,118.0
790,61.0,0,64,1.0,118.0
791,73.0,0,64,0.0,125.0
792,70.0,0,64,0.0,125.0
793,67.0,0,64,1.0,118.0
794,75.0,96,64,0.0,125.0
795,82.0,0,64,0.0,125.0
796,63.0,0,64,1.0,118.0
797,58.0,0,64,1.0,118.0
798,55.0,0,64,1.0,118.0
799,70.0,0,128,0.0,125.0
800,75.0,0,128,0.0,125.0
801,61.0,0,128,1.0,118.0
802,82.0,0,128,0.0,125.0
803,67.0,0,128,1.0,118.0
804,63.0,0,128,1.0,118.0
805,73.0,0,128,0.0,125.0
806,58.0,0,128,1.0,118.0
807,55.0,96,128,1.0,118.0
808,62.0,0,64,0.0,125.0
809,50.0,96,64,1.0,118.0
810,63.0,0,64,0.0,125.0
811,51.0,96,64,1.0,118.0
812,65.0,96,64,0.0,125.0
813,53.0,0,64,1.0,118.0
814,51.0,0,128,1.0,118.0
815,63.0,96,128,0.0,125.0
816,72.0,0,128,0.0,125.0
817,80.0,0,128,0.0,125.0
818,75.0,0,128,0.0,125.0
819,44.0,0,128,1.0,118.0
820,32.0,192,128,1.0,118.0
821,84.0,0,128,0.0,125.0
822,85.0,0,128,0.0,125.0
823,45.0,0,32,1.0,118.0
824,33.0,0,128,1.0,118.0
825,73.0,0,32,0.0,125.0
826,78.0,96,32,0.0,125.0
827,66.0,0,64,0.0,125.0
828,57.0,0,64,1.0,118.0
829,45.0,0,64,1.0,118.0
830,66.0,0,64,0.0,125.0
831,57.0,96,64,1.0,118.0
832,78.0,0,64,0.0,125.0
833,73.0,0,64,0.0,125.0
834,78.0,96,64,0.0,125.0
835,73.0,0,64,0.0,125.0
836,66.0,0,64,0.0,125.0
837,45.0,0,64,1.0,118.0
838,57.0,0,64,1.0,118.0
839,57.0,0,128,1.0,118.0
840,66.0,0,128,0.0,125.0
841,73.0,0,128,0.0,125.0
842,45.0,96,128,1.0,118.0
843,78.0,0,128,0.0,125.0
844,80.0,192,128,0.0,125.0
845,76.0,0,128,0.0,125.0
846,73.0,0,128,0.0,125.0
847,68.0,0,128,0.0,125.0
848,56.0,0,128,1.0,118.0
849,44.0,0,128,1.0,118.0
850,81.0,0,128,0.0,125.0
851,76.0,0,128,0.0,125.0
852,73.0,0,128,0.0,125.0
853,69.0,192,128,0.0,125.0
854,42.0,0,128,1.0,118.0
855,54.0,0,128,1.0,118.0
856,71.0,0,128,0.0,125.0
857,75.0,0,128,0.0,125.0
858,83.0,0,128,0.0,125.0
859,35.0,0,128,1.0,118.0
860,47.0,192,128,1.0,118.0
861,69.0,0,128,0.0,125.0
862,76.0,0,128,0.0,125.0
863,68.0,192,128,0.0,125.0
864,64.0,0,128,0.0,125.0
865,40.0,0,128,1.0,118.0
866,52.0,0,128,1.0,118.0
867,76.0,0,0,0.0,125.0
868,69.0,192,96,0.0,125.0
869,64.0,96,0,0.0,125.0
870,37.0,0,128,1.0,118.0
871,49.0,0,128,1.0,118.0
872,76.0,96,32,0.0,125.0
873,69.0,96,128,0.0,125.0
874,64.0,0,128,0.0,125.0
875,54.0,0,128,1.0,118.0
876,42.0,0,128,1.0,118.0
877,74.0,0,64,0.0,125.0
878,62.0,0,64,0.0,125.0
879,35.0,96,128,1.0,118.0
880,69.0,0,128,0.0,125.0
881,47.0,0,128,1.0,118.0
882,73.0,0,64,0.0,125.0
883,61.0,96,64,0.0,125.0
884,52.0,96,128,1.0,118.0
885,40.0,0,128,1.0,118.0
886,64.0,0,128,0.0,125.0
887,74.0,96,32,0.0,125.0
888,68.0,0,128,0.0,125.0
889,62.0,0,128,0.0,125.0
890,73.0,0,64,0.0,125.0
891,64.0,0,128,0.0,125.0
892,62.0,0,128,0.0,125.0
893,40.0,0,128,1.0,118.0
894,68.0,96,128,0.0,125.0
895,28.0,0,128,1.0,118.0
896,71.0,96,64,0.0,125.0
897,69.0,0,128,0.0,125.0
898,33.0,0,128,1.0,118.0
899,45.0,0,128,1.0,118.0
900,57.0,0,128,1.0,118.0
901,61.0,96,128,1.0,118.0
902,52.0,0,64,1.0,118.0
903,64.0,0,64,0.0,125.0
904,57.0,0,64,1.0,118.0
905,45.0,288,64,1.0,118.0
906,61.0,0,64,0.0,125.0
907,64.0,0,128,0.0,125.0
908,61.0,0,128,0.0,125.0
909,52.0,96,128,1.0,118.0
910,57.0,0,128,1.0,118.0
911,45.0,0,128,1.0,118.0
912,57.0,288,64,1.0,118.0
913,64.0,0,64,0.0,125.0
914,61.0,0,64,0.0,125.0
915,45.0,0,64,1.0,118.0
916,52.0,0,64,1.0,118.0
917,59.0,0,64,1.0,118.0
918,52.0,0,64,1.0,118.0
919,45.0,96,64,1.0,118.0
920,66.0,0,64,0.0,125.0
921,62.0,0,64,0.0,125.0
922,45.0,0,64,1.0,118.0
923,52.0,96,64,1.0,118.0
924,59.0,0,64,1.0,118.0
925,62.0,0,64,0.0,125.0
926,68.0,0,64,0.0,125.0
927,59.0,0,64,1.0,118.0
928,45.0,0,64,1.0,118.0
929,69.0,0,64,0.0,125.0
930,62.0,96,64,0.0,125.0
931,52.0,0,64,1.0,118.0
932,62.0,0,64,0.0,125.0
933,59.0,0,64,1.0,118.0
934,52.0,0,64,1.0,118.0
935,45.0,96,64,1.0,118.0
936,71.0,0,64,0.0,125.0
937,73.0,0,192,0.0,125.0
938,61.0,0,192,0.0,125.0
939,45.0,0,192,1.0,118.0
940,57.0,96,192,1.0,118.0
941,52.0,0,192,1.0,118.0
942,57.0,0,64,1.0,118.0
943,61.0,288,64,0.0,125.0
944,69.0,0,64,0.0,125.0
945,45.0,0,64,1.0,118.0
946,52.0,0,64,1.0,118.0
947,52.0,0,128,1.0,118.0
948,45.0,0,128,1.0,118.0
949,61.0,0,128,0.0,125.0
950,69.0,0,128,0.0,125.0
951,57.0,96,128,1.0,118.0
952,44.0,0,64,1.0,118.0
953,56.0,192,64,1.0,118.0
954,45.0,96,64,1.0,118.0
955,57.0,0,64,1.0,118.0
956,47.0,96,64,1.0,118.0
957,59.0,0,64,1.0,118.0
958,45.0,0,128,1.0,118.0
959,57.0,96,128,1.0,118.0
960,40.0,192,128,1.0,118.0
961,52.0,0,128,1.0,118.0
962,33.0,96,128,1.0,118.0
963,45.0,0,128,1.0,118.0
964,73.0,0,128,0.0,125.0
965,61.0,0,128,0.0,125.0
966,61.0,0,64,0.0,125.0
967,69.0,0,64,0.0,125.0
968,45.0,0,64,1.0,118.0
969,52.0,0,64,1.0,118.0
970,57.0,288,64,1.0,118.0
971,45.0,0,128,1.0,118.0
972,52.0,0,128,1.0,118.0
973,61.0,0,128,0.0,125.0
974,69.0,0,128,0.0,125.0
975,57.0,96,128,1.0,118.0
976,68.0,0,64,0.0,125.0
977,52.0,0,64,1.0,118.0
978,57.0,0,64,1.0,118.0
979,45.0,288,64,1.0,118.0
980,61.0,0,64,0.0,125.0
981,68.0,0,64,0.0,125.0
982,61.0,0,64,0.0,125.0
983,52.0,96,64,1.0,118.0
984,45.0,0,64,1.0,118.0
985,57.0,0,64,1.0,118.0
986,61.0,0,64,0.0,125.0
987,71.0,0,64,0.0,125.0
988,69.0,0,64,0.0,125.0
989,57.0,0,64,1.0,118.0
990,52.0,0,64,1.0,118.0
991,45.0,96,64,1.0,118.0
992,69.0,0,64,0.0,125.0
993,61.0,0,64,0.0,125.0
994,57.0,0,64,1.0,118.0
995,52.0,0,64,1.0,118.0
996,45.0,0,64,1.0,118.0
997,73.0,96,64,0.0,125.0
998,45.0,0,64,1.0,118.0
999,59.0,0,64,1.0,118.0
1000,61.0,96,64,0.0,125.0
1001,69.0,0,64,0.0,125.0
1002,52.0,0,64,1.0,118.0
1003,74.0,0,64,0.0,125.0
1004,63.0,0,192,0.0,125.0
1005,69.0,0,192,0.0,125.0
1006,45.0,96,192,1.0,118.0
1007,51.0,0,192,1.0,118.0
1008,54.0,0,192,1.0,118.0
1009,60.0,0,192,1.0,118.0
1010,78.0,0,192,0.0,125.0
1011,64.0,0,64,0.0,125.0
1012,69.0,0,64,0.0,125.0
1013,76.0,0,64,0.0,125.0
1014,61.0,0,64,1.0,118.0
1015,57.0,0,64,1.0,118.0
1016,52.0,288,64,1.0,118.0
1017,76.0,0,128,0.0,125.0
1018,69.0,0,128,0.0,125.0
1019,64.0,0,128,0.0,125.0
1020,61.0,0,128,1.0,118.0
1021,57.0,96,128,1.0,118.0
1022,52.0,0,128,1.0,118.0
1023,56.0,192,64,1.0,118.0
1024,44.0,0,64,1.0,118.0
1025,57.0,0,64,1.0,118.0
1026,45.0,96,64,1.0,118.0
1027,47.0,96,64,1.0,118.0
1028,59.0,0,64,1.0,118.0
1029,45.0,96,128,1.0,118.0
1030,57.0,0,128,1.0,118.0
1031,40.0,192,128,1.0,118.0
1032,73.0,0,128,0.0,125.0
1033,85.0,0,128,0.0,125.0
1034,44.0,0,128,1.0,118.0
1035,32.0,0,128,1.0,118.0
1036,77.0,96,128,0.0,125.0
1037,53.0,0,64,1.0,118.0
1038,80.0,0,64,0.0,125.0
1039,65.0,0,64,1.0,118.0
1040,56.0,0,64,1.0,118.0
1041,61.0,0,64,1.0,118.0
1042,68.0,0,64,0.0,125.0
1043,73.0,192,64,0.0,125.0
1044,73.0,96,64,0.0,125.0
1045,80.0,0,64,0.0,125.0
1046,65.0,0,64,1.0,118.0
1047,61.0,0,64,1.0,118.0
1048,56.0,0,64,1.0,118.0
1049,68.0,0,64,0.0,125.0
1050,53.0,0,64,1.0,118.0
1051,80.0,0,64,0.0,125.0
1052,73.0,0,64,0.0,125.0
1053,53.0,0,64,1.0,118.0
1054,56.0,0,64,1.0,118.0
1055,61.0,0,64,1.0,118.0
1056,65.0,0,64,1.0,118.0
1057,68.0,96,64,0.0,125.0
1058,53.0,0,128,1.0,118.0
1059,56.0,0,128,1.0,118.0
1060,80.0,0,128,0.0,125.0
1061,73.0,0,128,0.0,125.0
1062,68.0,0,128,0.0,125.0
1063,61.0,96,128,1.0,118.0
1064,65.0,0,128,1.0,118.0
1065,61.0,0,128,1.0,118.0
1066,56.0,0,32,1.0,118.0
1067,53.0,192,128,1.0,118.0
1068,68.0,0,128,0.0,125.0
1069,73.0,0,128,0.0,125.0
1070,80.0,0,128,0.0,125.0
1071,65.0,0,128,1.0,118.0
1072,82.0,96,64,0.0,125.0
1073,70.0,0,64,0.0,125.0
1074,75.0,0,64,0.0,125.0
1075,60.0,0,128,1.0,118.0
1076,63.0,0,128,1.0,118.0
1077,54.0,0,128,1.0,118.0
1078,72.0,0,64,0.0,125.0
1079,84.0,96,64,0.0,125.0
1080,85.0,0,64,0.0,125.0
1081,80.0,96,64,0.0,125.0
1082,73.0,0,64,0.0,125.0
1083,32.0,0,128,1.0,118.0
1084,44.0,0,128,1.0,118.0
1085,87.0,96,64,0.0,125.0
1086,75.0,0,64,0.0,125.0
1087,37.0,96,192,1.0,118.0
1088,25.0,0,192,1.0,118.0
1089,89.0,0,192,0.0,125.0
1090,85.0,0,192,0.0,125.0
1091,77.0,0,192,0.0,125.0
1092,85.0,288,64,0.0,125.0
1093,49.0,0,64,1.0,118.0
1094,61.0,0,64,1.0,118.0
1095,73.0,0,64,0.0,125.0
1096,61.0,0,128,1.0,118.0
1097,85.0,96,128,0.0,125.0
1098,49.0,0,128,1.0,118.0
1099,73.0,0,128,0.0,125.0
1100,61.0,192,64,1.0,118.0
1101,85.0,0,64,0.0,125.0
1102,73.0,0,64,0.0,125.0
1103,49.0,0,64,1.0,118.0
1104,49.0,0,64,1.0,118.0
1105,61.0,96,64,1.0,118.0
1106,85.0,0,64,0.0,125.0
1107,73.0,0,64,0.0,125.0
1108,61.0,0,64,1.0,118.0
1109,85.0,96,64,0.0,125.0
1110,73.0,0,64,0.0,125.0
1111,49.0,0,64,1.0,118.0
1112,85.0,96,64,0.0,125.0
1113,61.0,0,64,1.0,118.0
1114,73.0,0,64,0.0,125.0
1115,49.0,0,64,1.0,118.0
1116,49.0,0,64,1.0,118.0
1117,61.0,0,64,1.0,118.0
1118,85.0,96,64,0.0,125.0
1119,73.0,0,64,0.0,125.0
1120,49.0,0,64,1.0,118.0
1121,61.0,96,64,1.0,118.0
1122,85.0,0,64,0.0,125.0
1123,73.0,0,64,0.0,125.0
1124,85.0,0,128,0.0,125.0
1125,73.0,0,128,0.0,125.0
1126,61.0,96,128,1.0,118.0
1127,49.0,0,128,1.0,118.0
1128,50.0,0,96,1.0,118.0
1129,78.0,0,0,0.0,125.0
1130,83.0,0,0,0.0,125.0
1131,71.0,0,0,0.0,125.0
1132,54.0,96,0,1.0,118.0
1133,59.0,0,0,1.0,118.0
1134,50.0,0,64,1.0,118.0
1135,83.0,0,128,0.0,125.0
1136,78.0,0,128,0.0,125.0
1137,71.0,0,128,0.0,125.0
1138,50.0,0,128,1.0,118.0
1139,54.0,0,128,1.0,118.0
1140,59.0,96,128,1.0,118.0
1141,56.0,0,128,1.0,118.0
1142,61.0,0,128,1.0,118.0
1143,85.0,0,128,0.0,125.0
1144,73.0,192,128,0.0,125.0
1145,52.0,0,128,1.0,118.0
1146,64.0,192,128,1.0,118.0
1147,81.0,0,128,0.0,125.0
1148,76.0,0,128,0.0,125.0
1149,88.0,0,128,0.0,125.0
1150,74.0,192,64,0.0,125.0
1151,86.0,0,64,0.0,125.0
1152,57.0,0,256,1.0,118.0
1153,54.0,0,256,1.0,118.0
1154,62.0,0,128,1.0,118.0
1155,73.0,96,64,0.0,125.0
1156,85.0,0,64,0.0,125.0
1157,56.0,0,128,1.0,118.0
1158,83.0,0,128,0.0,125.0
1159,71.0,0,128,0.0,125.0
1160,52.0,96,128,1.0,118.0
1161,62.0,0,128,1.0,118.0
1162,76.0,0,96,0.0,125.0
1163,83.0,192,96,0.0,125.0
1164,71.0,0,96,0.0,125.0
1165,64.0,0,128,1.0,118.0
1166,62.0,0,128,1.0,118.0
1167,56.0,0,128,1.0,118.0
1168,52.0,0,128,1.0,118.0
1169,85.0,0,64,0.0,125.0
1170,73.0,96,64,0.0,125.0
1171,76.0,0,256,0.0,125.0
1172,83.0,96,256,0.0,125.0
1173,64.0,0,256,1.0,118.0
1174,62.0,0,256,1.0,118.0
1175,56.0,0,256,1.0,118.0
1176,52.0,0,256,1.0,118.0
1177,71.0,0,256,0.0,125.0
1178,69.0,0,128,0.0,125.0
1179,64.0,0,128,1.0,118.0
1180,81.0,0,128,0.0,125.0
1181,57.0,384,128,1.0,118.0
1182,61.0,0,128,1.0,118.0
1183,83.0,0,128,0.0,125.0
1184,69.0,0,128,0.0,125.0
1185,35.0,384,128,1.0,118.0
1186,47.0,0,128,1.0,118.0
1187,78.0,0,128,0.0,125.0
1188,71.0,0,128,0.0,125.0
1189,75.0,0,128,0.0,125.0
1190,59.0,0,64,1.0,118.0
1191,47.0,0,64,1.0,118.0
1192,71.0,0,64,0.0,125.0
1193,75.0,0,64,0.0,125.0
1194,78.0,288,64,0.0,125.0
1195,69.0,0,64,0.0,125.0
1196,69.0,0,128,0.0,125.0
1197,59.0,0,128,1.0,118.0
1198,47.0,96,128,1.0,118.0
1199,75.0,0,128,0.0,125.0
1200,78.0,0,128,0.0,125.0
1201,71.0,0,128,0.0,125.0
1202,46.0,96,64,1.0,118.0
1203,58.0,0,64,1.0,118.0
1204,47.0,96,64,1.0,118.0
1205,59.0,0,64,1.0,118.0
1206,49.0,0,64,1.0,118.0
1207,61.0,96,64,1.0,118.0
1208,47.0,96,128,1.0,118.0
1209,59.0,0,128,1.0,118.0
1210,40.0,0,128,1.0,118.0
1211,52.0,0,128,1.0,118.0
1212,68.0,0,128,0.0,125.0
1213,76.0,0,128,0.0,125.0
1214,80.0,192,128,0.0,125.0
1215,35.0,0,128,1.0,118.0
1216,47.0,192,128,1.0,118.0
1217,69.0,0,128,0.0,125.0
1218,71.0,0,128,0.0,125.0
1219,75.0,0,128,0.0,125.0
1220,78.0,0,128,0.0,125.0
1221,83.0,0,128,0.0,125.0
1222,75.0,0,64,0.0,125.0
1223,71.0,0,64,0.0,125.0
1224,69.0,192,64,0.0,125.0
1225,78.0,0,64,0.0,125.0
1226,47.0,0,64,1.0,118.0
1227,59.0,0,64,1.0,118.0
1228,47.0,0,64,1.0,118.0
1229,59.0,0,64,1.0,118.0
1230,78.0,0,64,0.0,125.0
1231,75.0,0,64,0.0,125.0
1232,71.0,0,64,0.0,125.0
1233,69.0,96,64,0.0,125.0
1234,69.0,0,64,0.0,125.0
1235,47.0,0,64,1.0,118.0
1236,59.0,0,64,1.0,118.0
1237,78.0,0,64,0.0,125.0
1238,75.0,0,64,0.0,125.0
1239,71.0,96,64,0.0,125.0
1240,47.0,96,128,1.0,118.0
1241,59.0,0,128,1.0,118.0
1242,69.0,0,128,0.0,125.0
1243,58.0,0,64,1.0,118.0
1244,46.0,192,64,1.0,118.0
1245,59.0,96,64,1.0,118.0
1246,47.0,0,64,1.0,118.0
1247,61.0,0,64,1.0,118.0
1248,49.0,96,64,1.0,118.0
1249,59.0,96,128,1.0,118.0
1250,47.0,0,32,1.0,118.0
1251,68.0,0,32,0.0,125.0
1252,75.0,0,128,0.0,125.0
1253,80.0,96,128,0.0,125.0
1254,35.0,0,128,1.0,118.0
1255,62.0,96,64,0.0,125.0
1256,49.0,0,128,1.0,118.0
1257,64.0,0,128,0.0,125.0
1258,73.0,0,128,0.0,125.0
1259,76.0,0,128,0.0,125.0
1260,37.0,0,128,1.0,118.0
1261,49.0,0,64,1.0,118.0
1262,64.0,0,64,0.0,125.0
1263,68.0,0,64,0.0,125.0
1264,73.0,0,64,0.0,125.0
1265,76.0,192,64,0.0,125.0
1266,37.0,0,64,1.0,118.0
1267,76.0,0,64,0.0,125.0
1268,68.0,0,64,0.0,125.0
1269,73.0,96,64,0.0,125.0
1270,37.0,0,64,1.0,118.0
1271,49.0,0,64,1.0,118.0
1272,64.0,0,64,0.0,125.0
1273,69.0,96,128,0.0,125.0
1274,73.0,0,128,0.0,125.0
1275,81.0,0,128,0.0,125.0
1276,30.0,0,128,1.0,118.0
1277,42.0,0,128,1.0,118.0
1278,80.0,0,128,0.0,125.0
1279,73.0,0,128,0.0,125.0
1280,68.0,0,128,0.0,125.0
1281,32.0,192,128,1.0,118.0
1282,44.0,0,128,1.0,118.0
1283,33.0,0,128,1.0,118.0
1284,45.0,192,128,1.0,118.0
1285,73.0,0,128,0.0,125.0
1286,78.0,0,128,0.0,125.0
1287,66.0,0,128,0.0,125.0
1288,80.0,192,128,0.0,125.0
1289,75.0,0,128,0.0,125.0
1290,72.0,0,128,0.0,125.0
1291,68.0,0,128,0.0,125.0
1292,66.0,0,128,0.0,125.0
1293,32.0,0,128,1.0,118.0
1294,44.0,0,128,1.0,118.0
1295,49.0,0,128,1.0,118.0
1296,37.0,192,128,1.0,118.0
1297,64.0,0,128,0.0,125.0
1298,76.0,0,128,0.0,125.0
1299,73.0,0,128,0.0,125.0
1300,68.0,0,128,0.0,125.0
1301,61.0,192,128,0.0,125.0
1302,63.0,0,128,0.0,125.0
1303,51.0,0,128,1.0,118.0
1304,39.0,0,128,1.0,118.0
1305,70.0,0,128,0.0,125.0
1306,73.0,0,128,0.0,125.0
1307,75.0,0,128,0.0,125.0
1308,67.0,0,128,0.0,125.0
1309,72.0,0,128,0.0,125.0
1310,63.0,192,128,0.0,125.0
1311,44.0,0,128,1.0,118.0
1312,56.0,0,128,1.0,118.0
1313,68.0,0,128,0.0,125.0
1314,60.0,0,128,0.0,125.0
1315,63.0,192,64,0.0,125.0
1316,75.0,0,64,0.0,125.0
1317,51.0,0,64,1.0,118.0
1318,39.0,0,64,1.0,118.0
1319,63.0,96,64,0.0,125.0
1320,75.0,0,64,0.0,125.0
1321,39.0,0,64,1.0,118.0
1322,51.0,0,64,1.0,118.0
1323,75.0,0,64,0.0,125.0
1324,63.0,96,64,0.0,125.0
1325,39.0,0,64,1.0,118.0
1326,51.0,0,64,1.0,118.0
1327,63.0,0,64,0.0,125.0
1328,75.0,96,64,0.0,125.0
1329,51.0,0,64,1.0,118.0
1330,39.0,0,64,1.0,118.0
1331,63.0,0,64,0.0,125.0
1332,75.0,0,64,0.0,125.0
1333,39.0,0,64,1.0,118.0
1334,51.0,96,64,1.0,118.0
1335,63.0,0,64,0.0,125.0
1336,75.0,0,64,0.0,125.0
1337,51.0,96,64,1.0,118.0
1338,39.0,0,64,1.0,118.0
1339,87.0,96,128,0.0,125.0
1340,82.0,0,128,0.0,125.0
1341,79.0,0,128,0.0,125.0
1342,75.0,0,128,0.0,125.0
1343,73.0,0,128,0.0,125.0
1344,39.0,0,128,1.0,118.0
1345,27.0,0,128,1.0,118.0
1346,67.0,0,64,1.0,118.0
1347,82.0,0,64,0.0,125.0
1348,75.0,0,64,0.0,125.0
1349,61.0,0,64,1.0,118.0
1350,70.0,0,64,0.0,125.0
1351,63.0,288,64,1.0,118.0
1352,55.0,0,64,1.0,118.0
1353,58.0,0,64,1.0,118.0
1354,73.0,0,64,0.0,125.0
1355,70.0,0,128,0.0,125.0
1356,63.0,96,128,1.0,118.0
1357,67.0,0,128,1.0,118.0
1358,55.0,0,128,1.0,118.0
1359,73.0,0,128,0.0,125.0
1360,75.0,0,128,0.0,125.0
1361,61.0,0,128,1.0,118.0
1362,82.0,0,128,0.0,125.0
1363,58.0,0,128,1.0,118.0
1364,62.0,96,64,0.0,125.0
1365,50.0,0,64,1.0,118.0
1366,63.0,96,64,0.0,125.0
1367,51.0,0,64,1.0,118.0
1368,53.0,0,64,1.0,118.0
1369,65.0,96,64,0.0,125.0
1370,51.0,0,128,1.0,118.0
1371,63.0,96,128,0.0,125.0
1372,75.0,0,128,0.0,125.0
1373,80.0,0,128,0.0,125.0
1374,72.0,0,128,0.0,125.0
1375,84.0,0,128,0.0,125.0
1376,44.0,0,128,1.0,118.0
1377,32.0,192,128,1.0,118.0
1378,27.0,192,128,1.0,118.0
1379,39.0,0,128,1.0,118.0
1380,73.0,0,32,0.0,125.0
1381,75.0,0,32,0.0,125.0
1382,79.0,0,128,0.0,125.0
1383,82.0,0,32,0.0,125.0
1384,87.0,0,128,0.0,125.0
1385,61.0,0,64,1.0,118.0
1386,58.0,0,64,1.0,118.0
1387,70.0,96,64,0.0,125.0
1388,55.0,0,64,1.0,118.0
1389,67.0,0,64,1.0,118.0
1390,63.0,0,64,1.0,118.0
1391,61.0,0,64,1.0,118.0
1392,73.0,0,64,0.0,125.0
1393,82.0,0,64,0.0,125.0
1394,75.0,0,64,0.0,125.0
1395,63.0,0,64,1.0,118.0
1396,58.0,0,64,1.0,118.0
1397,55.0,0,64,1.0,118.0
1398,67.0,0,64,1.0,118.0
1399,70.0,96,64,0.0,125.0
1400,82.0,0,64,0.0,125.0
1401,73.0,0,64,0.0,125.0
1402,70.0,0,64,0.0,125.0
1403,75.0,0,64,0.0,125.0
1404,67.0,0,64,1.0,118.0
1405,58.0,0,64,1.0,118.0
1406,61.0,0,64,1.0,118.0
1407,63.0,0,64,1.0,118.0
1408,55.0,96,64,1.0,118.0
1409,63.0,0,128,1.0,118.0
1410,61.0,0,128,1.0,118.0
1411,58.0,0,128,1.0,118.0
1412,55.0,96,128,1.0,118.0
1413,82.0,0,128,0.0,125.0
1414,75.0,0,128,0.0,125.0
1415,73.0,0,128,0.0,125.0
1416,70.0,0,128,0.0,125.0
1417,67.0,0,128,1.0,118.0
1418,50.0,0,64,1.0,118.0
1419,62.0,96,64,0.0,125.0
1420,51.0,96,64,1.0,118.0
1421,63.0,0,64,0.0,125.0
1422,53.0,0,64,1.0,118.0
1423,65.0,96,64,0.0,125.0
1424,63.0,96,128,0.0,125.0
1425,51.0,0,128,1.0,118.0
1426,32.0,192,128,1.0,118.0
1427,44.0,0,128,1.0,118.0
1428,72.0,0,128,0.0,125.0
1429,75.0,0,128,0.0,125.0
1430,80.0,0,128,0.0,125.0
1431,84.0,0,128,0.0,125.0
1432,78.0,0,32,0.0,125.0
1433,73.0,0,32,0.0,125.0
1434,45.0,0,32,1.0,118.0
1435,33.0,192,128,1.0,118.0
1436,85.0,0,128,0.0,125.0
1437,66.0,0,64,0.0,125.0
1438,57.0,96,64,1.0,118.0
1439,66.0,0,64,0.0,125.0
1440,78.0,0,64,0.0,125.0
1441,73.0,0,64,0.0,125.0
1442,57.0,0,64,1.0,118.0
1443,45.0,96,64,1.0,118.0
1444,66.0,0,64,0.0,125.0
1445,73.0,0,64,0.0,125.0
1446,78.0,96,64,0.0,125.0
1447,45.0,0,64,1.0,118.0
1448,57.0,0,64,1.0,118.0
1449,45.0,0,128,1.0,118.0
1450,57.0,0,128,1.0,118.0
1451,66.0,0,128,0.0,125.0
1452,78.0,0,128,0.0,125.0
1453,73.0,96,128,0.0,125.0
1454,68.0,0,128,0.0,125.0
1455,73.0,0,128,0.0,125.0
1456,76.0,0,128,0.0,125.0
1457,80.0,0,128,0.0,125.0
1458,44.0,192,128,1.0,118.0
1459,56.0,0,128,1.0,118.0
1460,76.0,0,128,0.0,125.0
1461,81.0,192,128,0.0,125.0
1462,54.0,0,128,1.0,118.0
1463,42.0,0,128,1.0,118.0
1464,69.0,0,128,0.0,125.0
1465,73.0,0,128,0.0,125.0
1466,47.0,0,128,1.0,118.0
1467,83.0,0,128,0.0,125.0
1468,69.0,0,128,0.0,125.0
1469,35.0,192,128,1.0,118.0
1470,75.0,0,128,0.0,125.0
1471,71.0,0,128,0.0,125.0
1472,40.0,192,128,1.0,118.0
1473,52.0,0,128,1.0,118.0
1474,68.0,0,128,0.0,125.0
1475,64.0,0,128,0.0,125.0
1476,76.0,0,128,0.0,125.0
1477,69.0,0,96,0.0,125.0
1478,76.0,96,0,0.0,125.0
1479,64.0,0,0,0.0,125.0
1480,49.0,0,128,1.0,118.0
1481,37.0,192,128,1.0,118.0
1482,54.0,0,128,1.0,118.0
1483,42.0,0,128,1.0,118.0
1484,64.0,0,128,0.0,125.0
1485,76.0,96,32,0.0,125.0
1486,69.0,96,128,0.0,125.0
1487,62.0,0,64,0.0,125.0
1488,74.0,96,64,0.0,125.0
1489,47.0,0,128,1.0,118.0
1490,35.0,0,128,1.0,118.0
1491,69.0,0,128,0.0,125.0
1492,73.0,96,64,0.0,125.0
1493,61.0,0,64,0.0,125.0
1494,40.0,0,128,1.0,118.0
1495,52.0,0,128,1.0,118.0
1496,64.0,0,128,0.0,125.0
1497,62.0,0,128,0.0,125.0
1498,68.0,96,128,0.0,125.0
1499,74.0,96,32,0.0,125.0
1500,73.0,96,64,0.0,125.0
1501,64.0,0,128,0.0,125.0
1502,68.0,0,128,0.0,125.0
1503,62.0,0,128,0.0,125.0
1504,28.0,0,128,1.0,118.0
1505,40.0,0,128,1.0,118.0
1506,71.0,96,64,0.0,125.0
1507,69.0,96,128,0.0,125.0
1508,61.0,0,128,1.0,118.0
1509,57.0,0,128,1.0,118.0
1510,45.0,0,128,1.0,118.0
1511,33.0,0,128,1.0,118.0
1512,45.0,0,64,1.0,118.0
1513,52.0,0,64,1.0,118.0
1514,57.0,0,64,1.0,118.0
1515,64.0,288,64,0.0,125.0
1516,61.0,0,64,0.0,125.0
1517,57.0,0,128,1.0,118.0
1518,64.0,0,128,0.0,125.0
1519,45.0,0,128,1.0,118.0
1520,61.0,0,128,0.0,125.0
1521,52.0,96,128,1.0,118.0
1522,45.0,0,64,1.0,118.0
1523,52.0,0,64,1.0,118.0
1524,57.0,0,64,1.0,118.0
1525,61.0,0,64,0.0,125.0
1526,64.0,288,64,0.0,125.0
1527,59.0,0,64,1.0,118.0
1528,52.0,0,64,1.0,118.0
1529,62.0,0,64,0.0,125.0
1530,45.0,0,64,1.0,118.0
1531,66.0,96,64,0.0,125.0
1532,62.0,0,64,0.0,125.0
1533,68.0,0,64,0.0,125.0
1534,45.0,96,64,1.0,118.0
1535,52.0,0,64,1.0,118.0
1536,59.0,0,64,1.0,118.0
1537,62.0,0,64,0.0,125.0
1538,52.0,0,64,1.0,118.0
1539,45.0,0,64,1.0,118.0
1540,59.0,0,64,1.0,118.0
1541,69.0,96,64,0.0,125.0
1542,45.0,0,64,1.0,118.0
1543,59.0,96,64,1.0,118.0
1544,62.0,0,64,0.0,125.0
1545,71.0,0,64,0.0,125.0
1546,52.0,0,64,1.0,118.0
1547,57.0,0,192,1.0,118.0
1548,52.0,0,192,1.0,118.0
1549,45.0,0,192,1.0,118.0
1550,73.0,96,192,0.0,125.0
1551,61.0,0,192,0.0,125.0
1552,69.0,288,64,0.0,125.0
1553,61.0,0,64,0.0,125.0
1554,45.0,0,64,1.0,118.0
1555,52.0,0,64,1.0,118.0
1556,57.0,0,64,1.0,118.0
1557,69.0,96,128,0.0,125.0
1558,52.0,0,128,1.0,118.0
1559,57.0,0,128,1.0,118.0
1560,61.0,0,128,0.0,125.0
1561,45.0,0,128,1.0,118.0
1562,44.0,192,64,1.0,118.0
1563,56.0,0,64,1.0,118.0
1564,45.0,96,64,1.0,118.0
1565,57.0,0,64,1.0,118.0
1566,47.0,96,64,1.0,118.0
1567,59.0,0,64,1.0,118.0
1568,45.0,96,128,1.0,118.0
1569,57.0,0,128,1.0,118.0
1570,40.0,0,128,1.0,118.0
1571,52.0,192,128,1.0,118.0
1572,73.0,0,128,0.0,125.0
1573,33.0,96,128,1.0,118.0
1574,45.0,0,128,1.0,118.0
1575,61.0,0,128,0.0,125.0
1576,45.0,0,64,1.0,118.0
1577,52.0,0,64,1.0,118.0
1578,57.0,288,64,1.0,118.0
1579,61.0,0,64,0.0,125.0
1580,69.0,0,64,0.0,125.0
1581,52.0,0,128,1.0,118.0
1582,45.0,0,128,1.0,118.0
1583,57.0,0,128,1.0,118.0
1584,61.0,0,128,0.0,125.0
1585,69.0,96,128,0.0,125.0
1586,68.0,0,64,0.0,125.0
1587,45.0,0,64,1.0,118.0
1588,52.0,0,64,1.0,118.0
1589,61.0,288,64,0.0,125.0
1590,57.0,0,64,1.0,118.0
1591,61.0,96,64,0.0,125.0
1592,68.0,0,64,0.0,125.0
1593,45.0,0,64,1.0,118.0
1594,52.0,0,64,1.0,118.0
1595,57.0,0,64,1.0,118.0
1596,71.0,0,64,0.0,125.0
1597,57.0,0,64,1.0,118.0
1598,52.0,0,64,1.0,118.0
1599,45.0,0,64,1.0,118.0
1600,69.0,96,64,0.0,125.0
1601,61.0,0,64,0.0,125.0
1602,52.0,0,64,1.0,118.0
1603,69.0,96,64,0.0,125.0
1604,73.0,0,64,0.0,125.0
1605,61.0,0,64,0.0,125.0
1606,57.0,0,64,1.0,118.0
1607,45.0,0,64,1.0,118.0
1608,52.0,0,64,1.0,118.0
1609,59.0,96,64,1.0,118.0
1610,74.0,0,64,0.0,125.0
1611,69.0,0,64,0.0,125.0
1612,61.0,0,64,0.0,125.0
1613,45.0,0,64,1.0,118.0
1614,78.0,0,192,0.0,125.0
1615,45.0,96,192,1.0,118.0
1616,60.0,0,192,1.0,118.0
1617,54.0,0,192,1.0,118.0
1618,63.0,0,192,0.0,125.0
1619,69.0,0,192,0.0,125.0
1620,51.0,0,192,1.0,118.0
1621,76.0,0,64,0.0,125.0
1622,64.0,0,64,0.0,125.0
1623,61.0,0,64,1.0,118.0
1624,57.0,0,64,1.0,118.0
1625,52.0,288,64,1.0,118.0
1626,69.0,0,64,0.0,125.0
1627,76.0,0,128,0.0,125.0
1628,64.0,0,128,0.0,125.0
1629,69.0,0,128,0.0,125.0
1630,61.0,0,128,1.0,118.0
1631,57.0,96,128,1.0,118.0
1632,52.0,0,128,1.0,118.0
1633,44.0,192,64,1.0,118.0
1634,56.0,0,64,1.0,118.0
1635,45.0,96,64,1.0,118.0
1636,57.0,0,64,1.0,118.0
1637,47.0,96,64,1.0,118.0
1638,59.0,0,64,1.0,118.0
1639,45.0,0,128,1.0,118.0
1640,57.0,96,128,1.0,118.0
1641,52.0,0,100,1.0,118.0
1642,40.0,192,128,1.0,118.0
1643,73.0,96,128,0.0,125.0
1644,77.0,0,128,0.0,125.0
1645,32.0,0,128,1.0,118.0
1646,85.0,0,128,0.0,125.0
1647,44.0,0,128,1.0,118.0
1648,68.0,0,64,0.0,125.0
1649,73.0,0,64,0.0,125.0
1650,65.0,0,64,1.0,118.0
1651,56.0,0,64,1.0,118.0
1652,53.0,192,64,1.0,118.0
1653,80.0,0,64,0.0,125.0
1654,61.0,0,64,1.0,118.0
1655,73.0,0,64,0.0,125.0
1656,65.0,0,64,1.0,118.0
1657,56.0,0,64,1.0,118.0
1658,53.0,0,64,1.0,118.0
1659,61.0,0,64,1.0,118.0
1660,68.0,96,64,0.0,125.0
1661,80.0,0,64,0.0,125.0
1662,68.0,0,64,0.0,125.0
1663,80.0,0,64,0.0,125.0
1664,53.0,0,64,1.0,118.0
1665,56.0,0,64,1.0,118.0
1666,61.0,96,64,1.0,118.0
1667,65.0,0,64,1.0,118.0
1668,73.0,0,64,0.0,125.0
1669,61.0,0,128,1.0,118.0
1670,80.0,0,128,0.0,125.0
1671,73.0,0,128,0.0,125.0
1672,68.0,0,128,0.0,125.0
1673,53.0,96,128,1.0,118.0
1674,56.0,0,128,1.0,118.0
1675,65.0,0,128,1.0,118.0
1676,68.0,192,128,0.0,125.0
1677,73.0,0,128,0.0,125.0
1678,53.0,0,128,1.0,118.0
1679,65.0,0,128,1.0,118.0
1680,61.0,0,128,1.0,118.0
1681,56.0,0,32,1.0,118.0
1682,80.0,0,128,0.0,125.0
1683,70.0,0,64,0.0,125.0
1684,75.0,0,64,0.0,125.0
1685,82.0,0,64,0.0,125.0
1686,54.0,0,128,1.0,118.0
1687,60.0,0,128,1.0,118.0
1688,63.0,96,128,1.0,118.0
1689,84.0,0,64,0.0,125.0
1690,72.0,96,64,0.0,125.0
1691,80.0,0,64,0.0,125.0
1692,73.0,0,64,0.0,125.0
1693,85.0,96,64,0.0,125.0
1694,44.0,0,128,1.0,118.0
1695,32.0,0,128,1.0,118.0
1696,75.0,96,64,0.0,125.0
1697,87.0,0,64,0.0,125.0
1698,37.0,0,192,1.0,118.0
1699,85.0,0,192,0.0,125.0
1700,89.0,0,192,0.0,125.0
1701,25.0,96,192,1.0,118.0
1702,77.0,0,192,0.0,125.0
1703,85.0,288,64,0.0,125.0
1704,73.0,0,64,0.0,125.0
1705,61.0,0,64,1.0,118.0
1706,49.0,0,64,1.0,118.0
1707,85.0,0,128,0.0,125.0
1708,61.0,0,128,1.0,118.0
1709,49.0,0,128,1.0,118.0
1710,73.0,96,128,0.0,125.0
1711,61.0,0,64,1.0,118.0
1712,49.0,192,64,1.0,118.0
1713,85.0,0,64,0.0,125.0
1714,73.0,0,64,0.0,125.0
1715,49.0,0,64,1.0,118.0
1716,85.0,0,64,0.0,125.0
1717,61.0,0,64,1.0,118.0
1718,73.0,96,64,0.0,125.0
1719,61.0,0,64,1.0,118.0
1720,85.0,96,64,0.0,125.0
1721,73.0,0,64,0.0,125.0
1722,49.0,0,64,1.0,118.0
1723,85.0,96,64,0.0,125.0
1724,73.0,0,64,0.0,125.0
1725,49.0,0,64,1.0,118.0
1726,61.0,0,64,1.0,118.0
1727,49.0,0,64,1.0,118.0
1728,61.0,0,64,1.0,118.0
1729,85.0,0,64,0.0,125.0
1730,73.0,96,64,0.0,125.0
1731,49.0,0,64,1.0,118.0
1732,61.0,96,64,1.0,118.0
1733,73.0,0,64,0.0,125.0
1734,85.0,0,64,0.0,125.0
1735,49.0,0,128,1.0,118.0
1736,61.0,96,128,1.0,118.0
1737,85.0,0,128,0.0,125.0
1738,73.0,0,128,0.0,125.0
1739,59.0,0,96,1.0,118.0
1740,78.0,0,0,0.0,125.0
1741,71.0,0,0,0.0,125.0
1742,83.0,96,0,0.0,125.0
1743,54.0,0,96,1.0,118.0
1744,50.0,0,96,1.0,118.0
1745,54.0,0,64,1.0,118.0
1746,50.0,0,64,1.0,118.0
1747,59.0,0,64,1.0,118.0
1748,54.0,0,128,1.0,118.0
1749,83.0,0,128,0.0,125.0
1750,78.0,0,128,0.0,125.0
1751,71.0,0,128,0.0,125.0
1752,59.0,96,128,1.0,118.0
1753,50.0,0,128,1.0,118.0
1754,61.0,0,128,1.0,118.0
1755,56.0,0,128,1.0,118.0
1756,52.0,0,128,1.0,118.0
1757,73.0,0,128,0.0,125.0
1758,85.0,192,128,0.0,125.0
1759,88.0,192,128,0.0,125.0
1760,81.0,0,128,0.0,125.0
1761,76.0,0,128,0.0,125.0
1762,64.0,0,128,1.0,118.0
1763,74.0,0,64,0.0,125.0
1764,86.0,192,64,0.0,125.0
1765,54.0,0,256,1.0,118.0
1766,57.0,0,256,1.0,118.0
1767,62.0,0,128,1.0,118.0
1768,85.0,0,64,0.0,125.0
1769,73.0,96,64,0.0,125.0
1770,71.0,96,128,0.0,125.0
1771,83.0,0,128,0.0,125.0
1772,52.0,0,128,1.0,118.0
1773,56.0,0,128,1.0,118.0
1774,62.0,0,128,1.0,118.0
1775,71.0,0,96,0.0,125.0
1776,76.0,0,96,0.0,125.0
1777,83.0,0,96,0.0,125.0
1778,52.0,0,128,1.0,118.0
1779,64.0,0,128,1.0,118.0
1780,62.0,0,128,1.0,118.0
1781,56.0,192,128,1.0,118.0
1782,73.0,96,64,0.0,125.0
1783,85.0,0,64,0.0,125.0
1784,62.0,0,256,1.0,118.0
1785,76.0,0,256,0.0,125.0
1786,71.0,0,256,0.0,125.0
1787,52.0,0,256,1.0,118.0
1788,56.0,0,256,1.0,118.0
1789,83.0,0,256,0.0,125.0
1790,64.0,96,256,1.0,118.0
1791,69.0,384,128,0.0,125.0
1792,61.0,0,128,1.0,118.0
1793,64.0,0,128,1.0,118.0
1794,81.0,0,128,0.0,125.0
1795,57.0,0,128,1.0,118.0
1796,38.0,384,128,1.0,118.0
1797,26.0,0,128,1.0,118.0
1798,62.0,0,64,1.0,118.0
1799,57.0,192,64,1.0,118.0
1800,54.0,0,64,1.0,118.0
1801,62.0,96,64,1.0,118.0
1802,54.0,0,64,1.0,118.0
1803,57.0,0,64,1.0,118.0
1804,62.0,0,128,1.0,118.0
1805,57.0,0,128,1.0,118.0
1806,74.0,0,512,0.0,125.0
1807,54.0,96,128,1.0,118.0
1808,57.0,0,128,1.0,118.0
1809,62.0,192,128,1.0,118.0
1810,54.0,0,128,1.0,118.0
1811,61.0,192,128,1.0,118.0
1812,57.0,0,128,1.0,118.0
1813,55.0,0,128,1.0,118.0
1814,69.0,0,256,0.0,125.0
1815,57.0,0,128,1.0,118.0
1816,55.0,0,128,1.0,118.0
1817,61.0,192,128,1.0,118.0
1818,62.0,192,128,0.0,125.0
1819,26.0,0,128,1.0,118.0
1820,38.0,0,128,1.0,118.0
1821,49.0,0,64,1.0,118.0
1822,50.0,0,64,1.0,118.0
1823,54.0,192,64,1.0,118.0
1824,54.0,0,64,1.0,118.0
1825,50.0,96,64,1.0,118.0
1826,57.0,0,64,0.0,125.0
1827,50.0,0,128,1.0,118.0
1828,54.0,0,128,1.0,118.0
1829,54.0,0,128,1.0,118.0
1830,57.0,192,128,1.0,118.0
1831,62.0,96,512,0.0,125.0
1832,57.0,0,128,1.0,118.0
1833,55.0,0,128,1.0,118.0
1834,52.0,192,128,1.0,118.0
1835,50.0,0,128,1.0,118.0
1836,54.0,0,128,1.0,118.0
1837,57.0,192,128,1.0,118.0
1838,45.0,0,128,1.0,118.0
1839,52.0,0,64,1.0,118.0
1840,49.0,192,64,1.0,118.0
1841,57.0,0,64,1.0,118.0
1842,49.0,96,64,1.0,118.0
1843,52.0,0,64,1.0,118.0
1844,57.0,0,64,1.0,118.0
1845,57.0,0,128,1.0,118.0
1846,52.0,96,128,1.0,118.0
1847,49.0,0,128,1.0,118.0
1848,69.0,192,512,0.0,125.0
1849,49.0,192,128,1.0,118.0
1850,52.0,0,128,1.0,118.0
1851,57.0,0,128,1.0,118.0
1852,57.0,0,128,1.0,118.0
1853,47.0,192,128,1.0,118.0
1854,50.0,0,128,1.0,118.0
1855,64.0,0,256,0.0,125.0
1856,50.0,192,128,1.0,118.0
1857,47.0,0,128,1.0,118.0
1858,57.0,0,128,1.0,118.0
1859,45.0,0,128,1.0,118.0
1860,57.0,0,128,1.0,118.0
1861,33.0,192,128,1.0,118.0
1862,45.0,192,64,1.0,118.0
1863,49.0,0,64,1.0,118.0
1864,45.0,96,64,1.0,118.0
1865,49.0,0,64,1.0,118.0
1866,52.0,0,64,1.0,118.0
1867,45.0,0,128,1.0,118.0
1868,49.0,0,128,1.0,118.0
1869,52.0,192,128,1.0,118.0
1870,49.0,0,128,1.0,118.0
1871,57.0,96,512,1.0,118.0
1872,47.0,192,128,1.0,118.0
1873,50.0,0,128,1.0,118.0
1874,52.0,0,128,1.0,118.0
1875,49.0,0,128,1.0,118.0
1876,52.0,0,128,1.0,118.0
1877,45.0,192,128,1.0,118.0
1878,59.0,192,128,1.0,118.0
1879,43.0,0,32,1.0,118.0
1880,31.0,0,128,1.0,118.0
1881,55.0,96,64,1.0,118.0
1882,71.0,0,64,0.0,125.0
1883,67.0,0,64,0.0,125.0
1884,62.0,0,64,0.0,125.0
1885,55.0,96,64,1.0,118.0
1886,43.0,0,64,1.0,118.0
1887,59.0,0,64,0.0,125.0
1888,43.0,96,64,1.0,118.0
1889,55.0,0,64,1.0,118.0
1890,62.0,0,64,0.0,125.0
1891,67.0,0,64,0.0,125.0
1892,71.0,0,64,0.0,125.0
1893,43.0,96,128,1.0,118.0
1894,59.0,0,128,0.0,125.0
1895,62.0,0,128,0.0,125.0
1896,67.0,0,128,0.0,125.0
1897,71.0,0,128,0.0,125.0
1898,55.0,0,128,1.0,118.0
1899,66.0,0,128,0.0,125.0
1900,70.0,0,128,0.0,125.0
1901,73.0,0,128,0.0,125.0
1902,54.0,0,128,1.0,118.0
1903,42.0,192,128,1.0,118.0
1904,61.0,0,128,0.0,125.0
1905,62.0,192,128,0.0,125.0
1906,74.0,0,128,0.0,125.0
1907,71.0,0,128,0.0,125.0
1908,66.0,0,128,0.0,125.0
1909,47.0,0,128,1.0,118.0
1910,35.0,0,128,1.0,118.0
1911,76.0,192,128,0.0,125.0
1912,69.0,0,128,0.0,125.0
1913,45.0,0,128,1.0,118.0
1914,64.0,0,128,0.0,125.0
1915,33.0,0,128,1.0,118.0
1916,73.0,0,128,0.0,125.0
1917,38.0,0,128,1.0,118.0
1918,26.0,192,128,1.0,118.0
1919,78.0,0,32,0.0,125.0
1920,74.0,0,32,0.0,125.0
1921,69.0,96,32,0.0,125.0
1922,66.0,0,128,0.0,125.0
1923,62.0,0,64,1.0,118.0
1924,50.0,0,64,1.0,118.0
1925,66.0,0,64,0.0,125.0
1926,62.0,0,128,1.0,118.0
1927,50.0,96,128,1.0,118.0
1928,74.0,0,64,0.0,125.0
1929,69.0,96,64,0.0,125.0
1930,78.0,0,64,0.0,125.0
1931,50.0,96,128,1.0,118.0
1932,62.0,0,128,1.0,118.0
1933,66.0,0,128,0.0,125.0
1934,69.0,0,128,0.0,125.0
1935,78.0,0,128,0.0,125.0
1936,74.0,0,128,0.0,125.0
1937,80.0,0,128,0.0,125.0
1938,77.0,0,128,0.0,125.0
1939,73.0,0,128,0.0,125.0
1940,68.0,0,128,0.0,125.0
1941,49.0,192,128,1.0,118.0
1942,61.0,0,128,1.0,118.0
1943,54.0,0,128,1.0,118.0
1944,73.0,192,128,0.0,125.0
1945,42.0,0,128,1.0,118.0
1946,69.0,0,128,0.0,125.0
1947,78.0,0,128,0.0,125.0
1948,81.0,0,128,0.0,125.0
1949,71.0,0,128,0.0,125.0
1950,76.0,0,128,0.0,125.0
1951,40.0,192,128,1.0,118.0
1952,83.0,0,128,0.0,125.0
1953,80.0,0,128,0.0,125.0
1954,52.0,0,128,1.0,118.0
1955,69.0,192,64,0.0,125.0
1956,45.0,0,128,1.0,118.0
1957,33.0,0,128,1.0,118.0
1958,73.0,0,128,0.0,125.0
1959,79.0,0,128,0.0,125.0
1960,85.0,0,128,0.0,125.0
1961,73.0,0,64,0.0,125.0
1962,79.0,0,64,0.0,125.0
1963,67.0,0,64,0.0,125.0
1964,69.0,192,64,0.0,125.0
1965,57.0,0,64,0.0,125.0
1966,64.0,0,64,0.0,125.0
1967,85.0,0,64,0.0,125.0
1968,57.0,0,64,0.0,125.0
1969,85.0,0,64,0.0,125.0
1970,79.0,0,64,0.0,125.0
1971,73.0,0,64,0.0,125.0
1972,67.0,0,64,0.0,125.0
1973,69.0,96,64,0.0,125.0
1974,64.0,0,64,0.0,125.0
1975,69.0,0,128,0.0,125.0
1976,67.0,0,128,0.0,125.0
1977,64.0,0,128,0.0,125.0
1978,57.0,0,128,0.0,125.0
1979,79.0,0,128,0.0,125.0
1980,85.0,0,128,0.0,125.0
1981,73.0,96,128,0.0,125.0
1982,67.0,96,32,0.0,125.0
1983,57.0,0,32,0.0,125.0
1984,64.0,0,32,0.0,125.0
1985,69.0,0,32,0.0,125.0
1986,73.0,0,32,0.0,125.0
1987,79.0,0,32,0.0,125.0
1988,83.0,0,128,0.0,125.0
1989,69.0,0,32,0.0,125.0
1990,81.0,0,128,0.0,125.0
1991,57.0,0,32,0.0,125.0
1992,86.0,96,128,0.0,125.0
1993,78.0,0,128,0.0,125.0
1994,74.0,0,128,0.0,125.0
1995,66.0,0,128,0.0,125.0
1996,57.0,192,128,0.0,125.0
1997,60.0,0,128,0.0,125.0
1998,75.0,0,128,0.0,125.0
1999,87.0,0,128,0.0,125.0
2000,81.0,0,128,0.0,125.0
2001,69.0,0,128,0.0,125.0
2002,66.0,0,128,0.0,125.0
2003,79.0,0,128,0.0,125.0
2004,69.0,0,128,0.0,125.0
2005,73.0,192,128,0.0,125.0
2006,93.0,0,128,0.0,125.0
2007,88.0,0,128,0.0,125.0
2008,81.0,0,128,0.0,125.0
2009,45.0,0,64,1.0,118.0
2010,33.0,0,64,1.0,118.0
2011,93.0,0,64,0.0,125.0
2012,81.0,192,64,0.0,125.0
2013,93.0,0,64,0.0,125.0
2014,81.0,0,64,0.0,125.0
2015,33.0,0,64,1.0,118.0
2016,45.0,96,64,1.0,118.0
2017,33.0,0,128,1.0,118.0
2018,93.0,0,128,0.0,125.0
2019,81.0,0,128,0.0,125.0
2020,45.0,96,128,1.0,118.0
2021,34.0,0,64,1.0,118.0
2022,46.0,192,64,1.0,118.0
2023,80.0,0,64,0.0,125.0
2024,92.0,0,64,0.0,125.0
2025,45.0,96,64,1.0,118.0
2026,33.0,0,64,1.0,118.0
2027,81.0,0,64,0.0,125.0
2028,93.0,0,64,0.0,125.0
2029,94.0,0,64,0.0,125.0
2030,82.0,0,64,0.0,125.0
2031,44.0,96,64,1.0,118.0
2032,32.0,0,64,1.0,118.0
2033,83.0,0,64,0.0,125.0
2034,31.0,0,64,1.0,118.0
2035,43.0,96,64,1.0,118.0
2036,95.0,0,64,0.0,125.0
2037,96.0,0,64,0.0,125.0
2038,84.0,96,64,0.0,125.0
2039,42.0,0,64,1.0,118.0
2040,30.0,0,64,1.0,118.0
2041,40.0,0,64,1.0,118.0
2042,97.0,96,64,0.0,125.0
2043,85.0,0,64,0.0,125.0
2044,28.0,0,64,1.0,118.0
2045,26.0,96,128,1.0,118.0
2046,38.0,0,128,1.0,118.0
2047,57.0,192,64,1.0,118.0
2048,54.0,0,64,1.0,118.0
2049,62.0,0,64,1.0,118.0
2050,57.0,96,64,1.0,118.0
2051,62.0,0,64,1.0,118.0
2052,54.0,0,64,1.0,118.0
2053,54.0,96,128,1.0,118.0
2054,57.0,0,128,1.0,118.0
2055,62.0,0,128,1.0,118.0
2056,86.0,0,512,0.0,125.0
2057,98.0,0,512,0.0,125.0
2058,57.0,0,128,1.0,118.0
2059,62.0,0,128,1.0,118.0
2060,54.0,192,128,1.0,118.0
2061,55.0,0,128,1.0,118.0
2062,57.0,0,128,1.0,118.0
2063,61.0,0,128,1.0,118.0
2064,93.0,0,256,0.0,125.0
2065,81.0,192,256,0.0,125.0
2066,57.0,0,128,1.0,118.0
2067,55.0,192,128,1.0,118.0
2068,61.0,0,128,1.0,118.0
2069,86.0,192,128,0.0,125.0
2070,38.0,0,128,1.0,118.0
2071,50.0,0,128,1.0,118.0
2072,74.0,0,128,0.0,125.0
2073,50.0,0,64,1.0,118.0
2074,54.0,0,64,1.0,118.0
2075,62.0,192,64,1.0,118.0
2076,50.0,0,64,1.0,118.0
2077,54.0,0,64,1.0,118.0
2078,62.0,0,64,1.0,118.0
2079,81.0,0,64,0.0,125.0
2080,69.0,96,64,0.0,125.0
2081,50.0,0,128,1.0,118.0
2082,62.0,0,128,1.0,118.0
2083,54.0,96,128,1.0,118.0
2084,62.0,0,128,1.0,118.0
2085,57.0,0,128,1.0,118.0
2086,54.0,192,128,1.0,118.0
2087,86.0,0,512,0.0,125.0
2088,62.0,0,128,1.0,118.0
2089,52.0,0,128,1.0,118.0
2090,55.0,192,128,1.0,118.0
2091,74.0,0,512,0.0,125.0
2092,50.0,0,128,1.0,118.0
2093,54.0,0,128,1.0,118.0
2094,62.0,192,128,1.0,118.0
2095,45.0,0,128,1.0,118.0
2096,33.0,0,128,1.0,118.0
2097,49.0,192,64,1.0,118.0
2098,52.0,0,64,1.0,118.0
2099,57.0,0,64,1.0,118.0
2100,49.0,96,64,1.0,118.0
2101,52.0,0,64,1.0,118.0
2102,57.0,0,64,1.0,118.0
2103,93.0,192,512,0.0,125.0
2104,81.0,0,512,0.0,125.0
2105,57.0,0,128,1.0,118.0
2106,52.0,0,128,1.0,118.0
2107,49.0,96,128,1.0,118.0
2108,49.0,192,128,1.0,118.0
2109,52.0,0,128,1.0,118.0
2110,57.0,0,128,1.0,118.0
2111,57.0,0,128,1.0,118.0
2112,47.0,192,128,1.0,118.0
2113,50.0,0,128,1.0,118.0
2114,88.0,0,256,0.0,125.0
2115,76.0,0,256,0.0,125.0
2116,50.0,0,128,1.0,118.0
2117,57.0,192,128,1.0,118.0
2118,47.0,0,128,1.0,118.0
2119,81.0,192,128,0.0,125.0
2120,69.0,0,128,0.0,125.0
2121,33.0,0,128,1.0,118.0
2122,45.0,0,128,1.0,118.0
2123,49.0,0,64,1.0,118.0
2124,57.0,192,64,1.0,118.0
2125,52.0,0,64,1.0,118.0
2126,64.0,96,64,0.0,125.0
2127,76.0,0,64,0.0,125.0
2128,49.0,0,64,1.0,118.0
2129,52.0,0,64,1.0,118.0
2130,57.0,0,64,1.0,118.0
2131,49.0,0,128,1.0,118.0
2132,52.0,0,128,1.0,118.0
2133,57.0,96,128,1.0,118.0
2134,49.0,0,128,1.0,118.0
2135,52.0,192,128,1.0,118.0
2136,57.0,0,128,1.0,118.0
2137,50.0,0,128,1.0,118.0
2138,47.0,192,128,1.0,118.0
2139,57.0,0,128,1.0,118.0
2140,81.0,0,512,0.0,125.0
2141,69.0,0,512,0.0,125.0
2142,45.0,192,128,1.0,118.0
2143,49.0,0,128,1.0,118.0
2144,57.0,0,128,1.0,118.0
2145,69.0,0,128,0.0,125.0
2146,81.0,0,128,0.0,125.0
2147,75.0,192,128,0.0,125.0
2148,41.0,0,128,1.0,118.0
2149,29.0,0,128,1.0,118.0
2150,81.0,0,64,0.0,125.0
2151,65.0,0,64,1.0,118.0
2152,63.0,0,64,1.0,118.0
2153,69.0,0,64,0.0,125.0
2154,60.0,192,64,1.0,118.0
2155,53.0,0,64,1.0,118.0
2156,75.0,0,64,0.0,125.0
2157,69.0,0,64,0.0,125.0
2158,75.0,0,64,0.0,125.0
2159,81.0,0,64,0.0,125.0
2160,63.0,0,64,1.0,118.0
2161,65.0,0,64,1.0,118.0
2162,60.0,0,64,1.0,118.0
2163,53.0,96,64,1.0,118.0
2164,60.0,0,128,1.0,118.0
2165,63.0,96,128,1.0,118.0
2166,65.0,0,128,1.0,118.0
2167,53.0,0,128,1.0,118.0
2168,69.0,0,64,0.0,125.0
2169,75.0,0,64,0.0,125.0
2170,81.0,0,256,0.0,125.0
2171,79.0,0,64,0.0,125.0
2172,65.0,0,32,1.0,118.0
2173,63.0,0,32,1.0,118.0
2174,60.0,0,32,1.0,118.0
2175,53.0,0,32,1.0,118.0
2176,81.0,0,64,0.0,125.0
2177,69.0,0,64,0.0,125.0
2178,75.0,96,64,0.0,125.0
2179,77.0,0,64,0.0,125.0
2180,62.0,0,128,1.0,118.0
2181,65.0,0,128,1.0,118.0
2182,58.0,96,128,1.0,118.0
2183,70.0,0,128,0.0,125.0
2184,77.0,0,128,0.0,125.0
2185,74.0,0,128,0.0,125.0
2186,82.0,0,256,0.0,125.0
2187,77.0,0,128,0.0,125.0
2188,74.0,0,128,0.0,125.0
2189,46.0,0,128,1.0,118.0
2190,34.0,0,128,1.0,118.0
2191,70.0,192,128,0.0,125.0
2192,83.0,0,128,0.0,125.0
2193,77.0,0,128,0.0,125.0
2194,71.0,192,128,0.0,125.0
2195,43.0,0,128,1.0,118.0
2196,31.0,0,128,1.0,118.0
2197,67.0,0,64,1.0,118.0
2198,65.0,0,64,1.0,118.0
2199,62.0,192,64,1.0,118.0
2200,71.0,0,64,0.0,125.0
2201,77.0,0,64,0.0,125.0
2202,83.0,0,64,0.0,125.0
2203,55.0,0,64,1.0,118.0
2204,55.0,0,64,1.0,118.0
2205,83.0,0,64,0.0,125.0
2206,77.0,96,64,0.0,125.0
2207,71.0,0,64,0.0,125.0
2208,62.0,0,64,1.0,118.0
2209,65.0,0,64,1.0,118.0
2210,67.0,0,64,1.0,118.0
2211,55.0,0,128,1.0,118.0
2212,65.0,0,128,1.0,118.0
2213,77.0,96,128,0.0,125.0
2214,71.0,0,128,0.0,125.0
2215,83.0,0,128,0.0,125.0
2216,67.0,0,128,1.0,118.0
2217,62.0,0,128,1.0,118.0
2218,81.0,0,64,0.0,125.0
2219,77.0,0,64,0.0,125.0
2220,55.0,0,64,1.0,118.0
2221,62.0,0,64,1.0,118.0
2222,65.0,192,64,1.0,118.0
2223,67.0,0,64,1.0,118.0
2224,71.0,0,64,0.0,125.0
2225,65.0,0,64,1.0,118.0
2226,83.0,0,64,0.0,125.0
2227,79.0,0,64,0.0,125.0
2228,77.0,0,64,0.0,125.0
2229,67.0,96,64,1.0,118.0
2230,71.0,0,64,0.0,125.0
2231,62.0,0,64,1.0,118.0
2232,55.0,0,64,1.0,118.0
2233,60.0,0,128,1.0,118.0
2234,67.0,0,128,1.0,118.0
2235,76.0,0,128,0.0,125.0
2236,79.0,0,128,0.0,125.0
2237,64.0,0,128,1.0,118.0
2238,72.0,0,128,0.0,125.0
2239,84.0,96,256,0.0,125.0
2240,36.0,0,128,1.0,118.0
2241,48.0,0,128,1.0,118.0
2242,72.0,192,128,0.0,125.0
2243,76.0,0,128,0.0,125.0
2244,79.0,0,128,0.0,125.0
2245,85.0,0,128,0.0,125.0
2246,73.0,0,128,0.0,125.0
2247,79.0,0,128,0.0,125.0
2248,45.0,0,128,1.0,118.0
2249,33.0,192,128,1.0,118.0
2250,73.0,0,64,0.0,125.0
2251,79.0,192,64,0.0,125.0
2252,85.0,0,64,0.0,125.0
2253,69.0,0,64,0.0,125.0
2254,64.0,0,64,0.0,125.0
2255,61.0,0,64,0.0,125.0
2256,57.0,0,64,0.0,125.0
2257,67.0,0,64,0.0,125.0
2258,57.0,0,64,0.0,125.0
2259,61.0,0,64,0.0,125.0
2260,64.0,96,64,0.0,125.0
2261,74.0,0,64,0.0,125.0
2262,69.0,0,64,0.0,125.0
2263,86.0,0,64,0.0,125.0
2264,79.0,0,64,0.0,125.0
2265,67.0,0,64,0.0,125.0
2266,61.0,0,128,0.0,125.0
2267,57.0,0,128,0.0,125.0
2268,69.0,0,128,0.0,125.0
2269,67.0,0,128,0.0,125.0
2270,76.0,96,128,0.0,125.0
2271,79.0,0,128,0.0,125.0
2272,64.0,0,128,0.0,125.0
2273,88.0,0,128,0.0,125.0
2274,79.0,0,64,0.0,125.0
2275,85.0,0,64,0.0,125.0
2276,73.0,192,64,0.0,125.0
2277,67.0,0,32,0.0,125.0
2278,69.0,0,32,0.0,125.0
2279,64.0,0,32,0.0,125.0
2280,61.0,0,32,0.0,125.0
2281,57.0,0,32,0.0,125.0
2282,74.0,96,64,0.0,125.0
2283,86.0,0,64,0.0,125.0
2284,61.0,0,64,0.0,125.0
2285,76.0,0,64,0.0,125.0
2286,88.0,0,64,0.0,125.0
2287,67.0,0,64,0.0,125.0
2288,69.0,0,64,0.0,125.0
2289,64.0,0,64,0.0,125.0
2290,57.0,96,64,0.0,125.0
2291,90.0,0,64,0.0,125.0
2292,78.0,0,64,0.0,125.0
2293,69.0,96,32,0.0,125.0
2294,64.0,0,32,0.0,125.0
2295,61.0,0,32,0.0,125.0
2296,57.0,0,32,0.0,125.0
2297,67.0,0,32,0.0,125.0
2298,79.0,0,64,0.0,125.0
2299,91.0,0,64,0.0,125.0
2300,67.0,96,64,0.0,125.0
2301,57.0,0,64,0.0,125.0
2302,80.0,0,64,0.0,125.0
2303,92.0,0,64,0.0,125.0
2304,69.0,0,64,0.0,125.0
2305,64.0,0,64,0.0,125.0
2306,61.0,0,64,0.0,125.0
2307,93.0,0,64,0.0,125.0
2308,81.0,0,64,0.0,125.0
2309,67.0,96,128,1.0,118.0
2310,57.0,0,128,1.0,118.0
2311,61.0,0,128,1.0,118.0
2312,69.0,0,128,1.0,118.0
2313,64.0,0,128,1.0,118.0
2314,94.0,96,64,0.0,125.0
2315,82.0,0,64,0.0,125.0
2316,83.0,0,64,0.0,125.0
2317,95.0,0,64,0.0,125.0
2318,57.0,0,128,1.0,118.0
2319,64.0,0,128,1.0,118.0
2320,69.0,0,128,1.0,118.0
2321,67.0,96,128,1.0,118.0
2322,97.0,96,64,0.0,125.0
2323,85.0,0,64,0.0,125.0
2324,67.0,0,256,1.0,118.0
2325,61.0,0,256,1.0,118.0
2326,100.0,0,256,0.0,125.0
2327,57.0,96,256,1.0,118.0
2328,88.0,0,256,0.0,125.0
2329,93.0,0,256,0.0,125.0
2330,69.0,0,256,1.0,118.0
2331,69.0,384,128,1.0,118.0
2332,62.0,0,128,1.0,118.0
2333,66.0,0,128,1.0,118.0
2334,86.0,0,128,0.0,125.0
2335,98.0,0,128,0.0,125.0
2336,26.0,0,128,1.0,118.0
2337,38.0,0,128,1.0,118.0
2338,57.0,0,64,1.0,118.0
2339,62.0,192,64,1.0,118.0
2340,54.0,0,64,1.0,118.0
2341,54.0,96,64,1.0,118.0
2342,62.0,0,64,1.0,118.0
2343,57.0,0,64,1.0,118.0
2344,62.0,96,128,1.0,118.0
2345,57.0,0,128,1.0,118.0
2346,54.0,0,128,1.0,118.0
2347,74.0,96,512,0.0,125.0
2348,62.0,0,128,1.0,118.0
2349,54.0,192,128,1.0,118.0
2350,57.0,0,128,1.0,118.0
2351,61.0,0,128,1.0,118.0
2352,55.0,0,128,1.0,118.0
2353,57.0,0,128,1.0,118.0
2354,69.0,192,256,0.0,125.0
2355,55.0,0,128,1.0,118.0
2356,57.0,0,128,1.0,118.0
2357,61.0,192,128,1.0,118.0
2358,26.0,0,128,1.0,118.0
2359,38.0,0,128,1.0,118.0
2360,62.0,192,128,0.0,125.0
2361,54.0,192,64,1.0,118.0
2362,50.0,0,64,1.0,118.0
2363,50.0,0,64,1.0,118.0
2364,54.0,0,64,1.0,118.0
2365,57.0,96,64,0.0,125.0
2366,54.0,0,128,1.0,118.0
2367,50.0,0,128,1.0,118.0
2368,54.0,192,128,1.0,118.0
2369,57.0,0,128,1.0,118.0
2370,52.0,192,128,1.0,118.0
2371,55.0,0,128,1.0,118.0
2372,57.0,0,128,1.0,118.0
2373,62.0,96,512,0.0,125.0
2374,50.0,0,128,1.0,118.0
2375,57.0,0,128,1.0,118.0
2376,54.0,192,128,1.0,118.0
2377,33.0,192,128,1.0,118.0
2378,45.0,0,128,1.0,118.0
2379,49.0,192,64,1.0,118.0
2380,52.0,0,64,1.0,118.0
2381,57.0,0,64,1.0,118.0
2382,57.0,0,64,1.0,118.0
2383,49.0,0,64,1.0,118.0
2384,52.0,96,64,1.0,118.0
2385,57.0,0,128,1.0,118.0
2386,69.0,0,512,0.0,125.0
2387,52.0,0,128,1.0,118.0
2388,49.0,96,128,1.0,118.0
2389,49.0,192,128,1.0,118.0
2390,52.0,0,128,1.0,118.0
2391,57.0,0,128,1.0,118.0
2392,57.0,0,128,1.0,118.0
2393,50.0,0,128,1.0,118.0
2394,47.0,192,128,1.0,118.0
2395,64.0,0,256,0.0,125.0
2396,47.0,0,128,1.0,118.0
2397,50.0,192,128,1.0,118.0
2398,57.0,0,128,1.0,118.0
2399,33.0,192,128,1.0,118.0
2400,57.0,0,128,1.0,118.0
2401,45.0,0,128,1.0,118.0
2402,45.0,192,64,1.0,118.0
2403,49.0,0,64,1.0,118.0
2404,52.0,0,64,1.0,118.0
2405,49.0,0,64,1.0,118.0
2406,45.0,96,64,1.0,118.0
2407,49.0,0,128,1.0,118.0
2408,45.0,0,128,1.0,118.0
2409,49.0,192,128,1.0,118.0
2410,52.0,0,128,1.0,118.0
2411,57.0,96,512,1.0,118.0
2412,47.0,0,128,1.0,118.0
2413,50.0,0,128,1.0,118.0
2414,52.0,192,128,1.0,118.0
2415,45.0,192,128,1.0,118.0
2416,49.0,0,128,1.0,118.0
2417,52.0,0,128,1.0,118.0
2418,31.0,192,128,1.0,118.0
2419,43.0,0,128,1.0,118.0
2420,59.0,0,128,1.0,118.0
2421,62.0,192,64,0.0,125.0
2422,67.0,0,64,0.0,125.0
2423,71.0,0,64,0.0,125.0
2424,43.0,0,64,1.0,118.0
2425,55.0,0,64,1.0,118.0
2426,59.0,0,64,0.0,125.0
2427,43.0,0,64,1.0,118.0
2428,55.0,96,64,1.0,118.0
2429,43.0,0,128,1.0,118.0
2430,55.0,0,128,1.0,118.0
2431,71.0,0,128,0.0,125.0
2432,67.0,0,128,0.0,125.0
2433,62.0,0,128,0.0,125.0
2434,59.0,96,128,0.0,125.0
2435,61.0,192,128,0.0,125.0
2436,70.0,0,128,0.0,125.0
2437,73.0,0,128,0.0,125.0
2438,54.0,0,128,1.0,118.0
2439,42.0,0,128,1.0,118.0
2440,66.0,0,128,0.0,125.0
2441,35.0,0,128,1.0,118.0
2442,47.0,0,128,1.0,118.0
2443,74.0,0,128,0.0,125.0
2444,71.0,0,128,0.0,125.0
2445,66.0,0,128,0.0,125.0
2446,62.0,192,128,0.0,125.0
2447,45.0,0,128,1.0,118.0
2448,33.0,0,128,1.0,118.0
2449,69.0,0,128,0.0,125.0
2450,76.0,192,128,0.0,125.0
2451,73.0,0,128,0.0,125.0
2452,64.0,0,128,0.0,125.0
2453,38.0,0,128,1.0,118.0
2454,66.0,0,128,0.0,125.0
2455,69.0,192,128,0.0,125.0
2456,74.0,0,128,0.0,125.0
2457,78.0,0,128,0.0,125.0
2458,26.0,0,128,1.0,118.0
2459,50.0,0,64,1.0,118.0
2460,62.0,0,64,1.0,118.0
2461,74.0,0,64,0.0,125.0
2462,78.0,192,64,0.0,125.0
2463,69.0,0,64,0.0,125.0
2464,66.0,96,64,0.0,125.0
2465,62.0,0,64,1.0,118.0
2466,50.0,0,64,1.0,118.0
2467,78.0,0,128,0.0,125.0
2468,69.0,0,128,0.0,125.0
2469,66.0,0,128,0.0,125.0
2470,74.0,0,128,0.0,125.0
2471,62.0,96,128,1.0,118.0
2472,50.0,0,128,1.0,118.0
2473,61.0,0,128,1.0,118.0
2474,73.0,0,128,0.0,125.0
2475,49.0,0,128,1.0,118.0
2476,80.0,0,128,0.0,125.0
2477,68.0,0,128,0.0,125.0
2478,77.0,192,128,0.0,125.0
2479,54.0,0,128,1.0,118.0
2480,42.0,192,128,1.0,118.0
2481,69.0,0,128,0.0,125.0
2482,73.0,0,128,0.0,125.0
2483,78.0,0,128,0.0,125.0
2484,81.0,0,128,0.0,125.0
2485,71.0,192,128,0.0,125.0
2486,76.0,0,128,0.0,125.0
2487,80.0,0,128,0.0,125.0
2488,40.0,0,128,1.0,118.0
2489,52.0,0,128,1.0,118.0
2490,83.0,0,128,0.0,125.0
2491,33.0,0,128,1.0,118.0
2492,73.0,0,128,0.0,125.0
2493,79.0,0,128,0.0,125.0
2494,85.0,192,128,0.0,125.0
2495,45.0,0,128,1.0,118.0
2496,73.0,192,64,0.0,125.0
2497,79.0,0,64,0.0,125.0
2498,85.0,0,64,0.0,125.0
2499,67.0,0,64,0.0,125.0
2500,64.0,0,64,0.0,125.0
2501,69.0,0,64,0.0,125.0
2502,57.0,0,64,0.0,125.0
2503,73.0,96,64,0.0,125.0
2504,79.0,0,64,0.0,125.0
2505,85.0,0,64,0.0,125.0
2506,57.0,0,64,0.0,125.0
2507,64.0,0,64,0.0,125.0
2508,67.0,0,64,0.0,125.0
2509,69.0,0,64,0.0,125.0
2510,73.0,0,128,0.0,125.0
2511,79.0,0,128,0.0,125.0
2512,81.0,0,128,0.0,125.0
2513,85.0,0,128,0.0,125.0
2514,57.0,0,128,0.0,125.0
2515,64.0,96,128,0.0,125.0
2516,67.0,0,128,0.0,125.0
2517,69.0,0,128,0.0,125.0
2518,73.0,0,64,0.0,125.0
2519,79.0,0,64,0.0,125.0
2520,83.0,0,64,0.0,125.0
2521,57.0,0,64,0.0,125.0
2522,64.0,0,64,0.0,125.0
2523,67.0,0,64,0.0,125.0
2524,69.0,192,64,0.0,125.0
2525,79.0,0,64,0.0,125.0
2526,73.0,0,64,0.0,125.0
2527,57.0,0,64,0.0,125.0
2528,64.0,0,64,0.0,125.0
2529,67.0,96,64,0.0,125.0
2530,69.0,0,64,0.0,125.0
2531,81.0,0,64,0.0,125.0
2532,57.0,0,128,0.0,125.0
2533,69.0,0,128,0.0,125.0
2534,66.0,0,128,0.0,125.0
2535,78.0,0,128,0.0,125.0
2536,74.0,96,128,0.0,125.0
2537,86.0,0,128,0.0,125.0
2538,75.0,0,128,0.0,125.0
2539,81.0,0,128,0.0,125.0
2540,87.0,0,128,0.0,125.0
2541,69.0,0,128,0.0,125.0
2542,66.0,0,128,0.0,125.0
2543,60.0,192,128,0.0,125.0
2544,57.0,0,128,0.0,125.0
2545,76.0,0,128,0.0,125.0
2546,81.0,0,128,0.0,125.0
2547,88.0,0,128,0.0,125.0
2548,69.0,0,128,0.0,125.0
2549,67.0,0,128,0.0,125.0
2550,61.0,0,128,0.0,125.0
2551,57.0,192,128,0.0,125.0
2552,93.0,0,64,0.0,125.0
2553,81.0,0,64,0.0,125.0
2554,45.0,192,64,1.0,118.0
2555,33.0,0,64,1.0,118.0
2556,33.0,0,64,1.0,118.0
2557,93.0,96,64,0.0,125.0
2558,81.0,0,64,0.0,125.0
2559,45.0,0,64,1.0,118.0
2560,81.0,96,128,0.0,125.0
2561,93.0,0,128,0.0,125.0
2562,33.0,0,128,1.0,118.0
2563,45.0,0,128,1.0,118.0
2564,80.0,0,64,0.0,125.0
2565,92.0,0,64,0.0,125.0
2566,34.0,192,64,1.0,118.0
2567,46.0,0,64,1.0,118.0
2568,93.0,0,64,0.0,125.0
2569,45.0,0,64,1.0,118.0
2570,33.0,96,64,1.0,118.0
2571,81.0,0,64,0.0,125.0
2572,44.0,96,64,1.0,118.0
2573,32.0,0,64,1.0,118.0
2574,82.0,0,64,0.0,125.0
2575,94.0,0,64,0.0,125.0
2576,43.0,0,64,1.0,118.0
2577,31.0,0,64,1.0,118.0
2578,83.0,96,64,0.0,125.0
2579,95.0,0,64,0.0,125.0
2580,42.0,0,64,1.0,118.0
2581,30.0,96,64,1.0,118.0
2582,84.0,0,64,0.0,125.0
2583,96.0,0,64,0.0,125.0
2584,97.0,96,64,0.0,125.0
2585,85.0,0,64,0.0,125.0
2586,40.0,0,64,1.0,118.0
2587,28.0,0,64,1.0,118.0
2588,38.0,0,128,1.0,118.0
2589,26.0,0,128,1.0,118.0
2590,54.0,0,64,1.0,118.0
2591,62.0,0,64,1.0,118.0
2592,57.0,192,64,1.0,118.0
2593,54.0,0,64,1.0,118.0
2594,57.0,96,64,1.0,118.0
2595,62.0,0,64,1.0,118.0
2596,57.0,0,128,1.0,118.0
2597,62.0,0,128,1.0,118.0
2598,98.0,0,512,0.0,125.0
2599,86.0,96,512,0.0,125.0
2600,54.0,96,128,1.0,118.0
2601,54.0,0,128,1.0,118.0
2602,57.0,0,128,1.0,118.0
2603,62.0,192,128,1.0,118.0
2604,55.0,0,128,1.0,118.0
2605,57.0,0,128,1.0,118.0
2606,61.0,0,128,1.0,118.0
2607,81.0,192,256,0.0,125.0
2608,93.0,0,256,0.0,125.0
2609,55.0,0,128,1.0,118.0
2610,57.0,0,128,1.0,118.0
2611,61.0,192,128,1.0,118.0
2612,74.0,0,128,0.0,125.0
2613,38.0,192,128,1.0,118.0
2614,50.0,0,128,1.0,118.0
2615,86.0,0,128,0.0,125.0
2616,62.0,0,64,1.0,118.0
2617,50.0,192,64,1.0,118.0
2618,54.0,0,64,1.0,118.0
2619,54.0,0,64,1.0,118.0
2620,62.0,0,64,1.0,118.0
2621,81.0,0,64,0.0,125.0
2622,69.0,0,64,0.0,125.0
2623,50.0,96,64,1.0,118.0
2624,62.0,0,128,1.0,118.0
2625,50.0,0,128,1.0,118.0
2626,54.0,0,128,1.0,118.0
2627,54.0,0,128,1.0,118.0
2628,57.0,192,128,1.0,118.0
2629,62.0,0,128,1.0,118.0
2630,55.0,0,128,1.0,118.0
2631,52.0,0,128,1.0,118.0
2632,62.0,192,128,1.0,118.0
2633,74.0,96,512,0.0,125.0
2634,86.0,0,512,0.0,125.0
2635,50.0,192,128,1.0,118.0
2636,62.0,0,128,1.0,118.0
2637,54.0,0,128,1.0,118.0
2638,45.0,0,128,1.0,118.0
2639,33.0,0,128,1.0,118.0
2640,57.0,192,64,1.0,118.0
2641,49.0,0,64,1.0,118.0
2642,52.0,0,64,1.0,118.0
2643,49.0,96,64,1.0,118.0
2644,52.0,0,64,1.0,118.0
2645,57.0,0,64,1.0,118.0
2646,81.0,0,512,0.0,125.0
2647,93.0,192,512,0.0,125.0
2648,57.0,96,128,1.0,118.0
2649,52.0,0,128,1.0,118.0
2650,49.0,0,128,1.0,118.0
2651,57.0,0,128,1.0,118.0
2652,49.0,0,128,1.0,118.0
2653,52.0,192,128,1.0,118.0
2654,57.0,0,128,1.0,118.0
2655,47.0,0,128,1.0,118.0
2656,50.0,0,128,1.0,118.0
2657,88.0,192,256,0.0,125.0
2658,76.0,0,256,0.0,125.0
2659,57.0,0,128,1.0,118.0
2660,47.0,0,128,1.0,118.0
2661,50.0,192,128,1.0,118.0
2662,33.0,0,128,1.0,118.0
2663,45.0,0,128,1.0,118.0
2664,81.0,192,128,0.0,125.0
2665,69.0,0,128,0.0,125.0
2666,49.0,192,64,1.0,118.0
2667,52.0,0,64,1.0,118.0
2668,57.0,0,64,1.0,118.0
2669,57.0,0,64,1.0,118.0
2670,76.0,0,64,0.0,125.0
2671,64.0,96,64,0.0,125.0
2672,49.0,0,64,1.0,118.0
2673,52.0,0,64,1.0,118.0
2674,52.0,96,128,1.0,118.0
2675,49.0,0,128,1.0,118.0
2676,57.0,0,128,1.0,118.0
2677,49.0,0,128,1.0,118.0
2678,52.0,0,128,1.0,118.0
2679,57.0,192,128,1.0,118.0
2680,57.0,0,128,1.0,118.0
2681,81.0,0,512,0.0,125.0
2682,69.0,0,512,0.0,125.0
2683,50.0,0,128,1.0,118.0
2684,47.0,192,128,1.0,118.0
2685,45.0,0,128,1.0,118.0
2686,57.0,0,128,1.0,118.0
2687,49.0,192,128,1.0,118.0
2688,81.0,192,128,0.0,125.0
2689,75.0,0,128,0.0,125.0
2690,69.0,0,128,0.0,125.0
2691,29.0,0,128,1.0,118.0
2692,41.0,0,128,1.0,118.0
2693,63.0,0,64,1.0,118.0
2694,81.0,0,64,0.0,125.0
2695,75.0,0,64,0.0,125.0
2696,65.0,0,64,1.0,118.0
2697,60.0,0,64,1.0,118.0
2698,53.0,192,64,1.0,118.0
2699,69.0,0,64,0.0,125.0
2700,60.0,0,64,1.0,118.0
2701,69.0,0,64,0.0,125.0
2702,75.0,0,64,0.0,125.0
2703,81.0,0,64,0.0,125.0
2704,63.0,0,64,1.0,118.0
2705,53.0,96,64,1.0,118.0
2706,65.0,0,64,1.0,118.0
2707,69.0,0,128,0.0,125.0
2708,53.0,0,128,1.0,118.0
2709,60.0,0,128,1.0,118.0
2710,63.0,0,128,1.0,118.0
2711,65.0,0,128,1.0,118.0
2712,81.0,0,128,0.0,125.0
2713,75.0,96,128,0.0,125.0
2714,60.0,0,64,1.0,118.0
2715,53.0,0,64,1.0,118.0
2716,65.0,0,64,1.0,118.0
2717,79.0,0,64,0.0,125.0
2718,63.0,0,64,1.0,118.0
2719,75.0,0,64,0.0,125.0
2720,69.0,192,64,0.0,125.0
2721,81.0,0,64,0.0,125.0
2722,75.0,0,64,0.0,125.0
2723,77.0,96,64,0.0,125.0
2724,69.0,0,64,0.0,125.0
2725,60.0,0,64,1.0,118.0
2726,53.0,0,64,1.0,118.0
2727,65.0,0,64,1.0,118.0
2728,63.0,0,64,1.0,118.0
2729,70.0,0,128,0.0,125.0
2730,65.0,96,128,1.0,118.0
2731,77.0,0,128,0.0,125.0
2732,58.0,0,128,1.0,118.0
2733,62.0,0,128,1.0,118.0
2734,74.0,0,128,0.0,125.0
2735,82.0,0,256,0.0,125.0
2736,34.0,0,128,1.0,118.0
2737,46.0,0,128,1.0,118.0
2738,77.0,0,128,0.0,125.0
2739,74.0,0,128,0.0,125.0
2740,70.0,192,128,0.0,125.0
2741,71.0,192,128,0.0,125.0
2742,77.0,0,128,0.0,125.0
2743,31.0,0,128,1.0,118.0
2744,43.0,0,128,1.0,118.0
2745,83.0,0,128,0.0,125.0
2746,83.0,0,64,0.0,125.0
2747,65.0,0,64,1.0,118.0
2748,77.0,192,64,0.0,125.0
2749,71.0,0,64,0.0,125.0
2750,55.0,0,64,1.0,118.0
2751,67.0,0,64,1.0,118.0
2752,62.0,0,64,1.0,118.0
2753,55.0,0,64,1.0,118.0
2754,62.0,0,64,1.0,118.0
2755,65.0,0,64,1.0,118.0
2756,67.0,0,64,1.0,118.0
2757,77.0,0,64,0.0,125.0
2758,71.0,0,64,0.0,125.0
2759,83.0,96,64,0.0,125.0
2760,67.0,0,128,1.0,118.0
2761,65.0,0,128,1.0,118.0
2762,55.0,0,128,1.0,118.0
2763,71.0,0,128,0.0,125.0
2764,62.0,0,128,1.0,118.0
2765,77.0,96,128,0.0,125.0
2766,83.0,0,128,0.0,125.0
2767,81.0,0,64,0.0,125.0
2768,71.0,0,64,0.0,125.0
2769,55.0,0,64,1.0,118.0
2770,62.0,0,64,1.0,118.0
2771,65.0,0,64,1.0,118.0
2772,67.0,192,64,1.0,118.0
2773,77.0,0,64,0.0,125.0
2774,55.0,0,64,1.0,118.0
2775,83.0,0,64,0.0,125.0
2776,71.0,0,64,0.0,125.0
2777,79.0,0,64,0.0,125.0
2778,62.0,96,64,1.0,118.0
2779,65.0,0,64,1.0,118.0
2780,67.0,0,64,1.0,118.0
2781,77.0,0,64,0.0,125.0
2782,72.0,0,128,0.0,125.0
2783,76.0,0,128,0.0,125.0
2784,84.0,0,128,0.0,125.0
2785,67.0,0,128,1.0,118.0
2786,64.0,96,128,1.0,118.0
2787,60.0,0,128,1.0,118.0
2788,48.0,0,128,1.0,118.0
2789,72.0,0,128,0.0,125.0
2790,76.0,192,128,0.0,125.0
2791,79.0,0,128,0.0,125.0
2792,36.0,0,128,1.0,118.0
2793,85.0,0,128,0.0,125.0
2794,79.0,192,128,0.0,125.0
2795,73.0,0,128,0.0,125.0
2796,45.0,0,128,1.0,118.0
2797,33.0,0,128,1.0,118.0
2798,67.0,0,64,0.0,125.0
2799,73.0,0,64,0.0,125.0
2800,79.0,192,64,0.0,125.0
2801,85.0,0,64,0.0,125.0
2802,69.0,0,64,0.0,125.0
2803,57.0,0,64,0.0,125.0
2804,61.0,0,64,0.0,125.0
2805,64.0,0,64,0.0,125.0
2806,74.0,0,64,0.0,125.0
2807,79.0,0,64,0.0,125.0
2808,86.0,96,64,0.0,125.0
2809,67.0,0,64,0.0,125.0
2810,64.0,0,64,0.0,125.0
2811,61.0,0,64,0.0,125.0
2812,57.0,0,64,0.0,125.0
2813,69.0,0,64,0.0,125.0
2814,76.0,0,128,0.0,125.0
2815,79.0,96,128,0.0,125.0
2816,88.0,0,128,0.0,125.0
2817,69.0,0,128,0.0,125.0
2818,67.0,0,128,0.0,125.0
2819,64.0,0,128,0.0,125.0
2820,61.0,0,128,0.0,125.0
2821,57.0,0,128,0.0,125.0
2822,61.0,0,64,0.0,125.0
2823,64.0,0,64,0.0,125.0
2824,73.0,192,64,0.0,125.0
2825,79.0,0,64,0.0,125.0
2826,85.0,0,64,0.0,125.0
2827,57.0,0,64,0.0,125.0
2828,69.0,0,64,0.0,125.0
2829,67.0,0,64,0.0,125.0
2830,74.0,96,64,0.0,125.0
2831,86.0,0,64,0.0,125.0
2832,69.0,0,64,0.0,125.0
2833,67.0,0,64,0.0,125.0
2834,64.0,0,64,0.0,125.0
2835,61.0,0,64,0.0,125.0
2836,57.0,0,64,0.0,125.0
2837,76.0,0,64,0.0,125.0
2838,88.0,96,64,0.0,125.0
2839,67.0,0,128,0.0,125.0
2840,69.0,0,128,0.0,125.0
2841,61.0,0,128,0.0,125.0
2842,57.0,0,128,0.0,125.0
2843,64.0,0,128,0.0,125.0
2844,90.0,96,64,0.0,125.0
2845,78.0,0,64,0.0,125.0
2846,61.0,0,64,0.0,125.0
2847,79.0,96,64,0.0,125.0
2848,91.0,0,64,0.0,125.0
2849,67.0,0,64,0.0,125.0
2850,69.0,0,64,0.0,125.0
2851,64.0,0,64,0.0,125.0
2852,57.0,0,64,0.0,125.0
2853,80.0,96,64,0.0,125.0
2854,67.0,0,64,0.0,125.0
2855,69.0,0,64,0.0,125.0
2856,64.0,0,64,0.0,125.0
2857,57.0,0,64,0.0,125.0
2858,61.0,0,64,0.0,125.0
2859,92.0,0,64,0.0,125.0
2860,81.0,0,64,0.0,125.0
2861,93.0,0,64,0.0,125.0
2862,57.0,0,128,1.0,118.0
2863,67.0,0,128,1.0,118.0
2864,69.0,0,128,1.0,118.0
2865,64.0,0,128,1.0,118.0
2866,61.0,96,128,1.0,118.0
2867,82.0,96,64,0.0,125.0
2868,94.0,0,64,0.0,125.0
2869,83.0,0,64,0.0,125.0
2870,95.0,0,64,0.0,125.0
2871,64.0,96,128,1.0,118.0
2872,69.0,0,128,1.0,118.0
2873,61.0,0,128,1.0,118.0
2874,67.0,0,128,1.0,118.0
2875,57.0,0,128,1.0,118.0
2876,85.0,96,64,0.0,125.0
2877,97.0,0,64,0.0,125.0
2878,67.0,0,256,1.0,118.0
2879,69.0,0,256,1.0,118.0
2880,61.0,0,256,1.0,118.0
2881,57.0,0,256,1.0,118.0
2882,88.0,0,256,0.0,125.0
2883,93.0,96,256,0.0,125.0
2884,100.0,0,256,0.0,125.0
2885,86.0,0,128,0.0,125.0
2886,98.0,0,128,0.0,125.0
2887,69.0,0,128,1.0,118.0
2888,66.0,384,128,1.0,118.0
2889,62.0,0,128,1.0,118.0
2890,37.0,96,128,1.0,118.0
2891,49.0,0,128,1.0,118.0
2892,50.0,96,128,1.0,118.0
2893,38.0,0,128,1.0,118.0
2894,37.0,96,128,1.0,118.0
2895,49.0,0,128,1.0,118.0
2896,48.0,0,64,1.0,118.0
2897,36.0,192,64,1.0,118.0
2898,37.0,0,32,1.0,118.0
2899,49.0,96,64,1.0,118.0
2900,38.0,96,32,1.0,118.0
2901,50.0,0,64,1.0,118.0
2902,40.0,0,64,1.0,118.0
2903,52.0,96,64,1.0,118.0
2904,46.0,96,128,1.0,118.0
2905,34.0,0,128,1.0,118.0
2906,86.0,0,64,0.0,125.0
2907,79.0,192,64,0.0,125.0
2908,74.0,0,64,0.0,125.0
2909,50.0,0,64,1.0,118.0
2910,62.0,0,64,1.0,118.0
2911,55.0,0,64,1.0,118.0
2912,79.0,0,64,0.0,125.0
2913,74.0,0,64,0.0,125.0
2914,86.0,0,64,0.0,125.0
2915,55.0,0,64,1.0,118.0
2916,62.0,96,64,1.0,118.0
2917,50.0,0,64,1.0,118.0
2918,74.0,0,128,0.0,125.0
2919,86.0,0,128,0.0,125.0
2920,62.0,0,128,1.0,118.0
2921,55.0,0,128,1.0,118.0
2922,50.0,0,128,1.0,118.0
2923,79.0,96,128,0.0,125.0
2924,50.0,0,128,1.0,118.0
2925,55.0,0,128,1.0,118.0
2926,62.0,0,128,1.0,118.0
2927,86.0,192,128,0.0,125.0
2928,79.0,0,128,0.0,125.0
2929,74.0,0,128,0.0,125.0
2930,50.0,0,128,1.0,118.0
2931,74.0,0,128,0.0,125.0
2932,79.0,0,128,0.0,125.0
2933,86.0,0,128,0.0,125.0
2934,62.0,0,128,1.0,118.0
2935,55.0,192,128,1.0,118.0
2936,74.0,192,128,0.0,125.0
2937,79.0,0,128,0.0,125.0
2938,50.0,0,128,1.0,118.0
2939,62.0,0,128,1.0,118.0
2940,55.0,0,128,1.0,118.0
2941,86.0,0,128,0.0,125.0
2942,50.0,0,128,1.0,118.0
2943,38.0,96,128,1.0,118.0
2944,40.0,96,128,1.0,118.0
2945,52.0,0,128,1.0,118.0
2946,50.0,96,32,1.0,118.0
2947,38.0,0,32,1.0,118.0
2948,49.0,96,64,1.0,118.0
2949,37.0,0,64,1.0,118.0
2950,38.0,0,32,1.0,118.0
2951,50.0,96,32,1.0,118.0
2952,40.0,96,64,1.0,118.0
2953,52.0,0,64,1.0,118.0
2954,53.0,96,64,1.0,118.0
2955,41.0,0,64,1.0,118.0
2956,35.0,0,128,1.0,118.0
2957,47.0,96,128,1.0,118.0
2958,62.0,192,64,1.0,118.0
2959,50.0,0,64,1.0,118.0
2960,74.0,0,64,0.0,125.0
2961,80.0,0,64,0.0,125.0
2962,86.0,0,64,0.0,125.0
2963,56.0,0,64,1.0,118.0
2964,62.0,0,64,1.0,118.0
2965,74.0,96,64,0.0,125.0
2966,80.0,0,64,0.0,125.0
2967,86.0,0,64,0.0,125.0
2968,50.0,0,64,1.0,118.0
2969,56.0,0,64,1.0,118.0
2970,56.0,96,128,1.0,118.0
2971,50.0,0,128,1.0,118.0
2972,86.0,0,128,0.0,125.0
2973,80.0,0,128,0.0,125.0
2974,62.0,0,128,1.0,118.0
2975,74.0,0,128,0.0,125.0
2976,50.0,0,128,1.0,118.0
2977,62.0,0,128,1.0,118.0
2978,86.0,192,128,0.0,125.0
2979,56.0,0,128,1.0,118.0
2980,80.0,0,128,0.0,125.0
2981,74.0,0,128,0.0,125.0
2982,56.0,192,128,1.0,118.0
2983,62.0,0,128,1.0,118.0
2984,74.0,0,128,0.0,125.0
2985,80.0,0,128,0.0,125.0
2986,50.0,0,128,1.0,118.0
2987,86.0,0,128,0.0,125.0
2988,86.0,0,128,0.0,125.0
2989,80.0,0,128,0.0,125.0
2990,74.0,192,128,0.0,125.0
2991,50.0,0,128,1.0,118.0
2992,56.0,0,128,1.0,118.0
2993,62.0,0,128,1.0,118.0
2994,52.0,96,128,1.0,118.0
2995,40.0,0,128,1.0,118.0
2996,38.0,0,128,1.0,118.0
2997,50.0,96,128,1.0,118.0
2998,40.0,0,128,1.0,118.0
2999,52.0,96,128,1.0,118.0
3000,50.0,0,128,1.0,118.0
3001,38.0,96,128,1.0,118.0
3002,40.0,0,128,1.0,118.0
3003,52.0,96,128,1.0,118.0
3004,50.0,0,128,1.0,118.0
3005,38.0,96,128,1.0,118.0
3006,37.0,192,64,1.0,118.0
3007,49.0,0,64,1.0,118.0
3008,50.0,0,64,1.0,118.0
3009,38.0,96,64,1.0,118.0
3010,41.0,96,64,1.0,118.0
3011,53.0,0,64,1.0,118.0
3012,42.0,0,64,1.0,118.0
3013,54.0,96,64,1.0,118.0
3014,48.0,96,128,1.0,118.0
3015,36.0,0,128,1.0,118.0
3016,78.0,0,64,0.0,125.0
3017,62.0,0,64,1.0,118.0
3018,54.0,0,64,1.0,118.0
3019,86.0,0,64,0.0,125.0
3020,50.0,0,64,1.0,118.0
3021,74.0,192,64,0.0,125.0
3022,50.0,0,64,1.0,118.0
3023,54.0,0,64,1.0,118.0
3024,86.0,0,64,0.0,125.0
3025,78.0,0,64,0.0,125.0
3026,74.0,0,64,0.0,125.0
3027,62.0,96,64,1.0,118.0
3028,50.0,0,128,1.0,118.0
3029,74.0,0,128,0.0,125.0
3030,62.0,0,128,1.0,118.0
3031,78.0,0,128,0.0,125.0
3032,86.0,0,128,0.0,125.0
3033,54.0,96,128,1.0,118.0
3034,50.0,0,128,1.0,118.0
3035,54.0,0,128,1.0,118.0
3036,62.0,0,128,1.0,118.0
3037,86.0,0,128,0.0,125.0
3038,78.0,192,128,0.0,125.0
3039,74.0,0,128,0.0,125.0
3040,37.0,192,64,1.0,118.0
3041,49.0,0,64,1.0,118.0
3042,38.0,96,64,1.0,118.0
3043,50.0,0,64,1.0,118.0
3044,42.0,96,64,1.0,118.0
3045,54.0,0,64,1.0,118.0
3046,43.0,96,64,1.0,118.0
3047,55.0,0,64,1.0,118.0
3048,35.0,96,128,1.0,118.0
3049,47.0,0,128,1.0,118.0
3050,50.0,192,64,1.0,118.0
3051,55.0,0,64,1.0,118.0
3052,62.0,0,64,1.0,118.0
3053,86.0,0,64,0.0,125.0
3054,79.0,0,64,0.0,125.0
3055,74.0,0,64,0.0,125.0
3056,74.0,0,64,0.0,125.0
3057,55.0,0,64,1.0,118.0
3058,50.0,0,64,1.0,118.0
3059,86.0,0,64,0.0,125.0
3060,79.0,96,64,0.0,125.0
3061,62.0,0,64,1.0,118.0
3062,62.0,0,128,1.0,118.0
3063,55.0,0,128,1.0,118.0
3064,50.0,96,128,1.0,118.0
3065,86.0,0,128,0.0,125.0
3066,80.0,0,128,0.0,125.0
3067,74.0,0,128,0.0,125.0
3068,34.0,0,64,1.0,118.0
3069,46.0,0,64,1.0,118.0
3070,86.0,0,32,0.0,125.0
3071,88.0,0,32,0.0,125.0
3072,74.0,0,32,0.0,125.0
3073,76.0,0,32,0.0,125.0
3074,80.0,0,32,0.0,125.0
3075,34.0,96,64,1.0,118.0
3076,46.0,0,64,1.0,118.0
3077,46.0,0,128,1.0,118.0
3078,34.0,0,128,1.0,118.0
3079,88.0,0,128,0.0,125.0
3080,86.0,0,128,0.0,125.0
3081,80.0,0,128,0.0,125.0
3082,76.0,96,128,0.0,125.0
3083,74.0,0,128,0.0,125.0
3084,76.0,0,128,0.0,125.0
3085,80.0,0,128,0.0,125.0
3086,88.0,0,128,0.0,125.0
3087,86.0,0,128,0.0,125.0
3088,74.0,192,128,0.0,125.0
3089,34.0,0,128,1.0,118.0
3090,46.0,0,128,1.0,118.0
3091,33.0,192,128,1.0,118.0
3092,45.0,0,128,1.0,118.0
3093,81.0,0,128,0.0,125.0
3094,93.0,0,128,0.0,125.0
3095,85.0,0,128,0.0,125.0
3096,59.0,0,128,1.0,118.0
3097,47.0,0,128,1.0,118.0
3098,35.0,0,128,1.0,118.0
3099,62.0,96,128,1.0,118.0
3100,49.0,0,128,1.0,118.0
3101,57.0,96,128,1.0,118.0
3102,45.0,0,128,1.0,118.0
3103,33.0,0,128,1.0,118.0
3104,35.0,0,128,1.0,118.0
3105,47.0,0,128,1.0,118.0
3106,61.0,96,128,1.0,118.0
3107,43.0,0,128,1.0,118.0
3108,55.0,96,128,1.0,118.0
3109,31.0,0,128,1.0,118.0
3110,57.0,0,128,1.0,118.0
3111,45.0,96,128,1.0,118.0
3112,33.0,0,128,1.0,118.0
3113,30.0,96,128,1.0,118.0
3114,42.0,0,128,1.0,118.0
3115,54.0,0,128,1.0,118.0
3116,55.0,96,128,1.0,118.0
3117,43.0,0,128,1.0,118.0
3118,28.0,96,128,1.0,118.0
3119,40.0,0,128,1.0,118.0
3120,52.0,0,128,1.0,118.0
3121,54.0,96,64,1.0,118.0
3122,42.0,0,64,1.0,118.0
3123,62.0,0,128,0.0,125.0
3124,26.0,0,128,1.0,118.0
3125,38.0,0,128,1.0,118.0
3126,62.0,192,64,1.0,118.0
3127,57.0,0,64,1.0,118.0
3128,54.0,0,64,1.0,118.0
3129,62.0,0,64,1.0,118.0
3130,54.0,0,64,1.0,118.0
3131,57.0,96,64,1.0,118.0
3132,62.0,96,128,1.0,118.0
3133,57.0,0,128,1.0,118.0
3134,54.0,0,128,1.0,118.0
3135,74.0,96,512,0.0,125.0
3136,54.0,0,128,1.0,118.0
3137,62.0,192,128,1.0,118.0
3138,57.0,0,128,1.0,118.0
3139,55.0,0,128,1.0,118.0
3140,61.0,192,128,1.0,118.0
3141,57.0,0,128,1.0,118.0
3142,69.0,0,256,0.0,125.0
3143,57.0,0,128,1.0,118.0
3144,61.0,0,128,1.0,118.0
3145,55.0,192,128,1.0,118.0
3146,62.0,0,128,0.0,125.0
3147,26.0,0,128,1.0,118.0
3148,38.0,192,128,1.0,118.0
3149,50.0,0,64,1.0,118.0
3150,54.0,192,64,1.0,118.0
3151,54.0,0,64,1.0,118.0
3152,50.0,96,64,1.0,118.0
3153,57.0,0,64,0.0,125.0
3154,54.0,0,128,1.0,118.0
3155,50.0,0,128,1.0,118.0
3156,54.0,192,128,1.0,118.0
3157,57.0,0,128,1.0,118.0
3158,62.0,96,512,0.0,125.0
3159,55.0,0,128,1.0,118.0
3160,57.0,0,128,1.0,118.0
3161,52.0,192,128,1.0,118.0
3162,54.0,0,128,1.0,118.0
3163,50.0,192,128,1.0,118.0
3164,57.0,0,128,1.0,118.0
3165,45.0,192,128,1.0,118.0
3166,33.0,0,128,1.0,118.0
3167,57.0,0,64,1.0,118.0
3168,49.0,192,64,1.0,118.0
3169,52.0,0,64,1.0,118.0
3170,49.0,96,64,1.0,118.0
3171,52.0,0,64,1.0,118.0
3172,57.0,0,64,1.0,118.0
3173,52.0,0,128,1.0,118.0
3174,57.0,0,128,1.0,118.0
3175,69.0,0,512,0.0,125.0
3176,49.0,96,128,1.0,118.0
3177,52.0,0,128,1.0,118.0
3178,57.0,192,128,1.0,118.0
3179,49.0,0,128,1.0,118.0
3180,47.0,192,128,1.0,118.0
3181,50.0,0,128,1.0,118.0
3182,57.0,0,128,1.0,118.0
3183,64.0,0,256,0.0,125.0
3184,57.0,0,128,1.0,118.0
3185,47.0,192,128,1.0,118.0
3186,50.0,0,128,1.0,118.0
3187,45.0,0,128,1.0,118.0
3188,33.0,192,128,1.0,118.0
3189,57.0,0,128,1.0,118.0
3190,45.0,192,64,1.0,118.0
3191,49.0,0,64,1.0,118.0
3192,49.0,0,64,1.0,118.0
3193,52.0,96,64,1.0,118.0
3194,45.0,0,64,1.0,118.0
3195,49.0,0,128,1.0,118.0
3196,45.0,0,128,1.0,118.0
3197,49.0,192,128,1.0,118.0
3198,52.0,0,128,1.0,118.0
3199,47.0,0,128,1.0,118.0
3200,50.0,0,128,1.0,118.0
3201,52.0,192,128,1.0,118.0
3202,57.0,96,512,1.0,118.0
3203,45.0,192,128,1.0,118.0
3204,49.0,0,128,1.0,118.0
3205,52.0,0,128,1.0,118.0
3206,59.0,0,128,1.0,118.0
3207,31.0,0,128,1.0,118.0
3208,43.0,0,32,1.0,118.0
3209,62.0,0,64,0.0,125.0
3210,67.0,0,64,0.0,125.0
3211,71.0,96,64,0.0,125.0
3212,55.0,0,64,1.0,118.0
3213,59.0,96,64,0.0,125.0
3214,67.0,0,64,0.0,125.0
3215,71.0,0,64,0.0,125.0
3216,62.0,96,64,0.0,125.0
3217,43.0,0,64,1.0,118.0
3218,55.0,0,64,1.0,118.0
3219,67.0,0,128,0.0,125.0
3220,71.0,0,128,0.0,125.0
3221,43.0,0,128,1.0,118.0
3222,55.0,0,128,1.0,118.0
3223,62.0,0,128,0.0,125.0
3224,59.0,96,128,0.0,125.0
3225,54.0,0,128,1.0,118.0
3226,42.0,0,128,1.0,118.0
3227,73.0,0,128,0.0,125.0
3228,70.0,0,128,0.0,125.0
3229,66.0,0,128,0.0,125.0
3230,61.0,192,128,0.0,125.0
3231,62.0,0,128,0.0,125.0
3232,35.0,0,128,1.0,118.0
3233,47.0,0,128,1.0,118.0
3234,66.0,0,128,0.0,125.0
3235,71.0,0,128,0.0,125.0
3236,74.0,192,128,0.0,125.0
3237,33.0,192,128,1.0,118.0
3238,76.0,0,128,0.0,125.0
3239,73.0,0,128,0.0,125.0
3240,69.0,0,128,0.0,125.0
3241,45.0,0,128,1.0,118.0
3242,64.0,0,128,0.0,125.0
3243,38.0,0,128,1.0,118.0
3244,26.0,192,128,1.0,118.0
3245,69.0,0,32,0.0,125.0
3246,74.0,0,128,0.0,125.0
3247,78.0,0,32,0.0,125.0
3248,66.0,0,128,0.0,125.0
3249,73.0,96,64,0.0,125.0
3250,50.0,0,64,1.0,118.0
3251,62.0,0,64,1.0,118.0
3252,66.0,96,64,0.0,125.0
3253,62.0,0,64,1.0,118.0
3254,50.0,0,64,1.0,118.0
3255,69.0,0,64,0.0,125.0
3256,74.0,0,64,0.0,125.0
3257,78.0,96,64,0.0,125.0
3258,78.0,0,128,0.0,125.0
3259,69.0,0,128,0.0,125.0
3260,74.0,0,128,0.0,125.0
3261,62.0,0,128,1.0,118.0
3262,50.0,0,128,1.0,118.0
3263,49.0,0,128,1.0,118.0
3264,61.0,0,128,1.0,118.0
3265,80.0,0,128,0.0,125.0
3266,77.0,0,128,0.0,125.0
3267,68.0,0,128,0.0,125.0
3268,73.0,192,128,0.0,125.0
3269,54.0,0,128,1.0,118.0
3270,81.0,0,128,0.0,125.0
3271,78.0,0,128,0.0,125.0
3272,73.0,0,128,0.0,125.0
3273,42.0,192,128,1.0,118.0
3274,69.0,0,128,0.0,125.0
3275,52.0,192,128,1.0,118.0
3276,71.0,0,128,0.0,125.0
3277,76.0,0,128,0.0,125.0
3278,80.0,0,128,0.0,125.0
3279,83.0,0,128,0.0,125.0
3280,40.0,0,128,1.0,118.0
3281,33.0,0,128,1.0,118.0
3282,45.0,0,128,1.0,118.0
3283,85.0,192,128,0.0,125.0
3284,79.0,0,128,0.0,125.0
3285,73.0,0,128,0.0,125.0
3286,85.0,0,64,0.0,125.0
3287,79.0,0,64,0.0,125.0
3288,57.0,0,64,0.0,125.0
3289,73.0,0,64,0.0,125.0
3290,69.0,0,64,0.0,125.0
3291,64.0,0,64,0.0,125.0
3292,67.0,192,64,0.0,125.0
3293,79.0,0,64,0.0,125.0
3294,85.0,96,64,0.0,125.0
3295,57.0,0,64,0.0,125.0
3296,73.0,0,64,0.0,125.0
3297,79.0,0,128,0.0,125.0
3298,64.0,0,128,0.0,125.0
3299,57.0,0,128,0.0,125.0
3300,85.0,0,128,0.0,125.0
3301,67.0,96,128,0.0,125.0
3302,73.0,0,128,0.0,125.0
3303,69.0,0,128,0.0,125.0
3304,73.0,0,64,0.0,125.0
3305,79.0,0,64,0.0,125.0
3306,83.0,0,64,0.0,125.0
3307,57.0,0,64,0.0,125.0
3308,69.0,192,64,0.0,125.0
3309,67.0,0,64,0.0,125.0
3310,64.0,0,64,0.0,125.0
3311,73.0,0,64,0.0,125.0
3312,79.0,0,64,0.0,125.0
3313,81.0,96,64,0.0,125.0
3314,57.0,0,64,0.0,125.0
3315,64.0,0,64,0.0,125.0
3316,67.0,0,64,0.0,125.0
3317,69.0,0,64,0.0,125.0
3318,86.0,0,128,0.0,125.0
3319,74.0,0,128,0.0,125.0
3320,78.0,0,128,0.0,125.0
3321,66.0,96,128,0.0,125.0
3322,69.0,0,128,0.0,125.0
3323,57.0,0,128,0.0,125.0
3324,69.0,0,128,0.0,125.0
3325,66.0,192,128,0.0,125.0
3326,60.0,0,128,0.0,125.0
3327,87.0,0,128,0.0,125.0
3328,81.0,0,128,0.0,125.0
3329,57.0,0,128,0.0,125.0
3330,75.0,0,128,0.0,125.0
3331,67.0,0,128,0.0,125.0
3332,76.0,0,128,0.0,125.0
3333,88.0,0,128,0.0,125.0
3334,83.0,192,128,0.0,125.0
3335,45.0,192,64,1.0,118.0
3336,33.0,0,64,1.0,118.0
3337,81.0,0,64,0.0,125.0
3338,93.0,0,64,0.0,125.0
3339,81.0,0,64,0.0,125.0
3340,93.0,0,64,0.0,125.0
3341,33.0,96,64,1.0,118.0
3342,45.0,0,64,1.0,118.0
3343,93.0,96,64,0.0,125.0
3344,33.0,0,128,1.0,118.0
3345,81.0,0,128,0.0,125.0
3346,45.0,0,128,1.0,118.0
3347,92.0,0,64,0.0,125.0
3348,80.0,192,64,0.0,125.0
3349,46.0,0,64,1.0,118.0
3350,34.0,0,64,1.0,118.0
3351,93.0,96,64,0.0,125.0
3352,81.0,0,64,0.0,125.0
3353,33.0,0,64,1.0,118.0
3354,45.0,0,64,1.0,118.0
3355,44.0,0,64,1.0,118.0
3356,32.0,96,64,1.0,118.0
3357,94.0,0,64,0.0,125.0
3358,82.0,0,64,0.0,125.0
3359,31.0,0,64,1.0,118.0
3360,95.0,96,64,0.0,125.0
3361,83.0,0,64,0.0,125.0
3362,43.0,0,64,1.0,118.0
3363,84.0,96,64,0.0,125.0
3364,96.0,0,64,0.0,125.0
3365,42.0,0,64,1.0,118.0
3366,30.0,0,64,1.0,118.0
3367,28.0,0,64,1.0,118.0
3368,97.0,0,64,0.0,125.0
3369,85.0,0,64,0.0,125.0
3370,40.0,96,64,1.0,118.0
3371,26.0,0,128,1.0,118.0
3372,38.0,0,128,1.0,118.0
3373,62.0,192,64,1.0,118.0
3374,54.0,0,64,1.0,118.0
3375,57.0,0,64,1.0,118.0
3376,57.0,0,64,1.0,118.0
3377,62.0,96,64,1.0,118.0
3378,54.0,0,64,1.0,118.0
3379,86.0,96,512,0.0,125.0
3380,98.0,0,512,0.0,125.0
3381,57.0,0,128,1.0,118.0
3382,54.0,0,128,1.0,118.0
3383,62.0,96,128,1.0,118.0
3384,62.0,0,128,1.0,118.0
3385,57.0,0,128,1.0,118.0
3386,54.0,192,128,1.0,118.0
3387,61.0,192,128,1.0,118.0
3388,55.0,0,128,1.0,118.0
3389,57.0,0,128,1.0,118.0
3390,81.0,0,256,0.0,125.0
3391,93.0,0,256,0.0,125.0
3392,57.0,0,128,1.0,118.0
3393,61.0,0,128,1.0,118.0
3394,55.0,192,128,1.0,118.0
3395,50.0,0,128,1.0,118.0
3396,38.0,0,128,1.0,118.0
3397,86.0,0,128,0.0,125.0
3398,74.0,192,128,0.0,125.0
3399,50.0,0,64,1.0,118.0
3400,54.0,0,64,1.0,118.0
3401,62.0,192,64,1.0,118.0
3402,50.0,0,64,1.0,118.0
3403,62.0,96,64,1.0,118.0
3404,69.0,0,64,0.0,125.0
3405,81.0,0,64,0.0,125.0
3406,54.0,0,64,1.0,118.0
3407,50.0,0,128,1.0,118.0
3408,54.0,96,128,1.0,118.0
3409,62.0,0,128,1.0,118.0
3410,54.0,192,128,1.0,118.0
3411,57.0,0,128,1.0,118.0
3412,62.0,0,128,1.0,118.0
3413,86.0,0,512,0.0,125.0
3414,74.0,0,512,0.0,125.0
3415,55.0,0,128,1.0,118.0
3416,52.0,192,128,1.0,118.0
3417,62.0,0,128,1.0,118.0
3418,50.0,192,128,1.0,118.0
3419,54.0,0,128,1.0,118.0
3420,62.0,0,128,1.0,118.0
3421,45.0,192,128,1.0,118.0
3422,33.0,0,128,1.0,118.0
3423,49.0,0,64,1.0,118.0
3424,57.0,0,64,1.0,118.0
3425,52.0,192,64,1.0,118.0
3426,52.0,0,64,1.0,118.0
3427,57.0,96,64,1.0,118.0
3428,49.0,0,64,1.0,118.0
3429,49.0,0,128,1.0,118.0
3430,52.0,96,128,1.0,118.0
3431,57.0,0,128,1.0,118.0
3432,81.0,0,512,0.0,125.0
3433,93.0,0,512,0.0,125.0
3434,49.0,0,128,1.0,118.0
3435,52.0,192,128,1.0,118.0
3436,57.0,0,128,1.0,118.0
3437,50.0,0,128,1.0,118.0
3438,47.0,0,128,1.0,118.0
3439,57.0,0,128,1.0,118.0
3440,76.0,0,256,0.0,125.0
3441,88.0,192,256,0.0,125.0
3442,57.0,192,128,1.0,118.0
3443,50.0,0,128,1.0,118.0
3444,47.0,0,128,1.0,118.0
3445,81.0,192,128,0.0,125.0
3446,69.0,0,128,0.0,125.0
3447,33.0,0,128,1.0,118.0
3448,45.0,0,128,1.0,118.0
3449,49.0,0,64,1.0,118.0
3450,52.0,0,64,1.0,118.0
3451,57.0,192,64,1.0,118.0
3452,64.0,96,64,0.0,125.0
3453,76.0,0,64,0.0,125.0
3454,49.0,0,64,1.0,118.0
3455,52.0,0,64,1.0,118.0
3456,57.0,0,64,1.0,118.0
3457,49.0,0,128,1.0,118.0
3458,52.0,0,128,1.0,118.0
3459,57.0,0,128,1.0,118.0
3460,52.0,0,128,1.0,118.0
3461,49.0,192,128,1.0,118.0
3462,57.0,0,128,1.0,118.0
3463,81.0,0,512,0.0,125.0
3464,50.0,0,128,1.0,118.0
3465,69.0,96,512,0.0,125.0
3466,57.0,192,128,1.0,118.0
3467,47.0,0,128,1.0,118.0
3468,45.0,192,128,1.0,118.0
3469,49.0,0,128,1.0,118.0
3470,57.0,0,128,1.0,118.0
3471,29.0,192,128,1.0,118.0
3472,41.0,0,128,1.0,118.0
3473,81.0,0,128,0.0,125.0
3474,69.0,0,128,0.0,125.0
3475,75.0,0,128,0.0,125.0
3476,63.0,0,64,1.0,118.0
3477,69.0,192,64,0.0,125.0
3478,81.0,0,64,0.0,125.0
3479,75.0,0,64,0.0,125.0
3480,53.0,0,64,1.0,118.0
3481,65.0,0,64,1.0,118.0
3482,60.0,0,64,1.0,118.0
3483,81.0,0,64,0.0,125.0
3484,75.0,0,64,0.0,125.0
3485,69.0,0,64,0.0,125.0
3486,53.0,0,64,1.0,118.0
3487,60.0,96,64,1.0,118.0
3488,63.0,0,64,1.0,118.0
3489,65.0,0,64,1.0,118.0
3490,81.0,0,128,0.0,125.0
3491,65.0,0,128,1.0,118.0
3492,63.0,0,128,1.0,118.0
3493,69.0,0,128,0.0,125.0
3494,53.0,96,128,1.0,118.0
3495,75.0,0,128,0.0,125.0
3496,60.0,0,128,1.0,118.0
3497,53.0,192,64,1.0,118.0
3498,63.0,0,64,1.0,118.0
3499,65.0,0,64,1.0,118.0
3500,75.0,0,64,0.0,125.0
3501,79.0,0,64,0.0,125.0
3502,69.0,0,64,0.0,125.0
3503,60.0,0,64,1.0,118.0
3504,77.0,0,64,0.0,125.0
3505,81.0,96,64,0.0,125.0
3506,75.0,0,64,0.0,125.0
3507,69.0,0,64,0.0,125.0
3508,65.0,0,64,1.0,118.0
3509,63.0,0,64,1.0,118.0
3510,60.0,0,64,1.0,118.0
3511,53.0,0,64,1.0,118.0
3512,77.0,0,128,0.0,125.0
3513,74.0,0,128,0.0,125.0
3514,70.0,0,128,0.0,125.0
3515,65.0,0,128,1.0,118.0
3516,62.0,0,128,1.0,118.0
3517,58.0,0,128,1.0,118.0
3518,82.0,96,256,0.0,125.0
3519,34.0,0,128,1.0,118.0
3520,46.0,192,128,1.0,118.0
3521,74.0,0,128,0.0,125.0
3522,77.0,0,128,0.0,125.0
3523,70.0,0,128,0.0,125.0
3524,71.0,0,128,0.0,125.0
3525,77.0,0,128,0.0,125.0
3526,83.0,0,128,0.0,125.0
3527,43.0,192,128,1.0,118.0
3528,31.0,0,128,1.0,118.0
3529,55.0,0,64,1.0,118.0
3530,77.0,0,64,0.0,125.0
3531,71.0,0,64,0.0,125.0
3532,62.0,192,64,1.0,118.0
3533,83.0,0,64,0.0,125.0
3534,65.0,0,64,1.0,118.0
3535,67.0,0,64,1.0,118.0
3536,71.0,96,64,0.0,125.0
3537,83.0,0,64,0.0,125.0
3538,65.0,0,64,1.0,118.0
3539,67.0,0,64,1.0,118.0
3540,55.0,0,64,1.0,118.0
3541,62.0,0,64,1.0,118.0
3542,77.0,0,64,0.0,125.0
3543,67.0,0,128,1.0,118.0
3544,83.0,0,128,0.0,125.0
3545,55.0,0,128,1.0,118.0
3546,62.0,0,128,1.0,118.0
3547,65.0,0,128,1.0,118.0
3548,71.0,96,128,0.0,125.0
3549,77.0,0,128,0.0,125.0
3550,55.0,0,64,1.0,118.0
3551,62.0,0,64,1.0,118.0
3552,65.0,192,64,1.0,118.0
3553,67.0,0,64,1.0,118.0
3554,81.0,0,64,0.0,125.0
3555,71.0,0,64,0.0,125.0
3556,77.0,0,64,0.0,125.0
3557,71.0,0,64,0.0,125.0
3558,62.0,96,64,1.0,118.0
3559,65.0,0,64,1.0,118.0
3560,55.0,0,64,1.0,118.0
3561,77.0,0,64,0.0,125.0
3562,67.0,0,64,1.0,118.0
3563,83.0,0,64,0.0,125.0
3564,79.0,0,64,0.0,125.0
3565,60.0,0,128,1.0,118.0
3566,67.0,0,128,1.0,118.0
3567,64.0,0,128,1.0,118.0
3568,76.0,0,128,0.0,125.0
3569,72.0,0,128,0.0,125.0
3570,79.0,96,128,0.0,125.0
3571,84.0,0,256,0.0,125.0
3572,79.0,0,128,0.0,125.0
3573,36.0,0,128,1.0,118.0
3574,48.0,192,128,1.0,118.0
3575,76.0,0,128,0.0,125.0
3576,72.0,0,128,0.0,125.0
3577,85.0,0,128,0.0,125.0
3578,79.0,192,128,0.0,125.0
3579,73.0,0,128,0.0,125.0
3580,33.0,0,128,1.0,118.0
3581,45.0,0,128,1.0,118.0
3582,69.0,0,64,0.0,125.0
3583,57.0,0,64,0.0,125.0
3584,61.0,0,64,0.0,125.0
3585,64.0,0,64,0.0,125.0
3586,67.0,192,64,0.0,125.0
3587,85.0,0,64,0.0,125.0
3588,79.0,0,64,0.0,125.0
3589,71.0,0,64,0.0,125.0
3590,73.0,0,64,0.0,125.0
3591,61.0,0,64,0.0,125.0
3592,64.0,0,64,0.0,125.0
3593,69.0,0,64,0.0,125.0
3594,67.0,0,64,0.0,125.0
3595,57.0,0,64,0.0,125.0
3596,79.0,0,64,0.0,125.0
3597,86.0,96,64,0.0,125.0
3598,57.0,0,128,0.0,125.0
3599,61.0,0,128,0.0,125.0
3600,69.0,0,128,0.0,125.0
3601,67.0,0,128,0.0,125.0
3602,79.0,0,128,0.0,125.0
3603,76.0,0,128,0.0,125.0
3604,88.0,0,128,0.0,125.0
3605,64.0,96,128,0.0,125.0
3606,57.0,192,64,0.0,125.0
3607,61.0,0,64,0.0,125.0
3608,64.0,0,64,0.0,125.0
3609,69.0,0,64,0.0,125.0
3610,67.0,0,64,0.0,125.0
3611,85.0,0,64,0.0,125.0
3612,79.0,0,64,0.0,125.0
3613,73.0,0,64,0.0,125.0
3614,57.0,96,64,0.0,125.0
3615,64.0,0,64,0.0,125.0
3616,61.0,0,64,0.0,125.0
3617,67.0,0,64,0.0,125.0
3618,69.0,0,64,0.0,125.0
3619,86.0,0,64,0.0,125.0
3620,74.0,0,64,0.0,125.0
3621,88.0,0,64,0.0,125.0
3622,67.0,0,64,0.0,125.0
3623,69.0,0,64,0.0,125.0
3624,61.0,0,64,0.0,125.0
3625,57.0,0,64,0.0,125.0
3626,64.0,96,64,0.0,125.0
3627,76.0,0,64,0.0,125.0
3628,90.0,0,64,0.0,125.0
3629,67.0,0,64,0.0,125.0
3630,69.0,96,64,0.0,125.0
3631,64.0,0,64,0.0,125.0
3632,61.0,0,64,0.0,125.0
3633,57.0,0,64,0.0,125.0
3634,78.0,0,64,0.0,125.0
3635,61.0,0,64,0.0,125.0
3636,57.0,0,64,0.0,125.0
3637,69.0,0,64,0.0,125.0
3638,64.0,0,64,0.0,125.0
3639,91.0,96,64,0.0,125.0
3640,79.0,0,64,0.0,125.0
3641,67.0,0,64,0.0,125.0
3642,57.0,0,64,0.0,125.0
3643,61.0,0,64,0.0,125.0
3644,64.0,0,64,0.0,125.0
3645,80.0,96,64,0.0,125.0
3646,69.0,0,64,0.0,125.0
3647,92.0,0,64,0.0,125.0
3648,67.0,0,64,0.0,125.0
3649,93.0,0,64,0.0,125.0
3650,81.0,96,64,0.0,125.0
3651,69.0,0,128,1.0,118.0
3652,64.0,0,128,1.0,118.0
3653,61.0,0,128,1.0,118.0
3654,67.0,0,128,1.0,118.0
3655,57.0,0,128,1.0,118.0
3656,94.0,0,64,0.0,125.0
3657,82.0,96,64,0.0,125.0
3658,83.0,96,64,0.0,125.0
3659,95.0,0,64,0.0,125.0
3660,69.0,0,128,1.0,118.0
3661,64.0,0,128,1.0,118.0
3662,57.0,0,128,1.0,118.0
3663,67.0,0,128,1.0,118.0
3664,85.0,0,64,0.0,125.0
3665,97.0,96,64,0.0,125.0
3666,88.0,0,256,0.0,125.0
3667,93.0,0,256,0.0,125.0
3668,100.0,96,256,0.0,125.0
3669,61.0,0,256,1.0,118.0
3670,57.0,0,256,1.0,118.0
3671,69.0,0,256,1.0,118.0
3672,67.0,0,256,1.0,118.0
3673,66.0,0,128,1.0,118.0
3674,69.0,0,128,1.0,118.0
3675,62.0,0,128,1.0,118.0
3676,98.0,0,128,0.0,125.0
3677,86.0,384,128,0.0,125.0
3678,49.0,0,128,1.0,118.0
3679,37.0,96,128,1.0,118.0
3680,38.0,0,128,1.0,118.0
3681,50.0,96,128,1.0,118.0
3682,49.0,0,128,1.0,118.0
3683,37.0,96,128,1.0,118.0
3684,48.0,0,64,1.0,118.0
3685,36.0,192,64,1.0,118.0
3686,37.0,0,32,1.0,118.0
3687,49.0,96,64,1.0,118.0
3688,38.0,0,32,1.0,118.0
3689,50.0,96,64,1.0,118.0
3690,40.0,96,64,1.0,118.0
3691,52.0,0,64,1.0,118.0
3692,34.0,0,128,1.0,118.0
3693,46.0,96,128,1.0,118.0
3694,62.0,0,64,1.0,118.0
3695,55.0,0,64,1.0,118.0
3696,50.0,0,64,1.0,118.0
3697,74.0,192,64,0.0,125.0
3698,79.0,0,64,0.0,125.0
3699,86.0,0,64,0.0,125.0
3700,74.0,0,64,0.0,125.0
3701,79.0,0,64,0.0,125.0
3702,55.0,0,64,1.0,118.0
3703,50.0,0,64,1.0,118.0
3704,86.0,96,64,0.0,125.0
3705,62.0,0,64,1.0,118.0
3706,62.0,0,128,1.0,118.0
3707,55.0,0,128,1.0,118.0
3708,74.0,0,128,0.0,125.0
3709,79.0,0,128,0.0,125.0
3710,86.0,96,128,0.0,125.0
3711,50.0,0,128,1.0,118.0
3712,86.0,192,128,0.0,125.0
3713,79.0,0,128,0.0,125.0
3714,74.0,0,128,0.0,125.0
3715,62.0,0,128,1.0,118.0
3716,55.0,0,128,1.0,118.0
3717,50.0,0,128,1.0,118.0
3718,55.0,0,128,1.0,118.0
3719,86.0,0,128,0.0,125.0
3720,79.0,0,128,0.0,125.0
3721,74.0,0,128,0.0,125.0
3722,50.0,0,128,1.0,118.0
3723,62.0,192,128,1.0,118.0
3724,55.0,0,128,1.0,118.0
3725,62.0,0,128,1.0,118.0
3726,79.0,0,128,0.0,125.0
3727,86.0,0,128,0.0,125.0
3728,74.0,0,128,0.0,125.0
3729,50.0,192,128,1.0,118.0
3730,38.0,96,128,1.0,118.0
3731,50.0,0,128,1.0,118.0
3732,40.0,96,128,1.0,118.0
3733,52.0,0,128,1.0,118.0
3734,38.0,96,32,1.0,118.0
3735,50.0,0,32,1.0,118.0
3736,49.0,0,64,1.0,118.0
3737,37.0,96,64,1.0,118.0
3738,38.0,0,32,1.0,118.0
3739,50.0,96,32,1.0,118.0
3740,40.0,96,64,1.0,118.0
3741,52.0,0,64,1.0,118.0
3742,41.0,96,64,1.0,118.0
3743,53.0,0,64,1.0,118.0
3744,47.0,96,128,1.0,118.0
3745,35.0,0,128,1.0,118.0
3746,62.0,0,64,1.0,118.0
3747,50.0,0,64,1.0,118.0
3748,74.0,192,64,0.0,125.0
3749,80.0,0,64,0.0,125.0
3750,86.0,0,64,0.0,125.0
3751,56.0,0,64,1.0,118.0
3752,74.0,0,64,0.0,125.0
3753,86.0,0,64,0.0,125.0
3754,80.0,0,64,0.0,125.0
3755,50.0,96,64,1.0,118.0
3756,56.0,0,64,1.0,118.0
3757,62.0,0,64,1.0,118.0
3758,50.0,0,128,1.0,118.0
3759,86.0,0,128,0.0,125.0
3760,80.0,0,128,0.0,125.0
3761,74.0,96,128,0.0,125.0
3762,56.0,0,128,1.0,118.0
3763,62.0,0,128,1.0,118.0
3764,50.0,192,128,1.0,118.0
3765,74.0,0,128,0.0,125.0
3766,80.0,0,128,0.0,125.0
3767,86.0,0,128,0.0,125.0
3768,62.0,0,128,1.0,118.0
3769,56.0,0,128,1.0,118.0
3770,50.0,192,128,1.0,118.0
3771,56.0,0,128,1.0,118.0
3772,62.0,0,128,1.0,118.0
3773,80.0,0,128,0.0,125.0
3774,74.0,0,128,0.0,125.0
3775,86.0,0,128,0.0,125.0
3776,62.0,0,128,1.0,118.0
3777,56.0,0,128,1.0,118.0
3778,50.0,0,128,1.0,118.0
3779,86.0,0,128,0.0,125.0
3780,80.0,192,128,0.0,125.0
3781,74.0,0,128,0.0,125.0
3782,40.0,96,32,1.0,118.0
3783,52.0,0,32,1.0,118.0
3784,50.0,0,32,1.0,118.0
3785,38.0,96,32,1.0,118.0
3786,52.0,96,32,1.0,118.0
3787,40.0,0,32,1.0,118.0
3788,38.0,0,128,1.0,118.0
3789,50.0,96,128,1.0,118.0
3790,37.0,96,64,1.0,118.0
3791,49.0,0,64,1.0,118.0
3792,38.0,96,32,1.0,118.0
3793,50.0,0,32,1.0,118.0
3794,41.0,96,64,1.0,118.0
3795,53.0,0,64,1.0,118.0
3796,42.0,96,64,1.0,118.0
3797,54.0,0,64,1.0,118.0
3798,48.0,0,128,1.0,118.0
3799,36.0,96,128,1.0,118.0
3800,54.0,192,64,1.0,118.0
3801,62.0,0,64,1.0,118.0
3802,50.0,0,64,1.0,118.0
3803,78.0,0,64,0.0,125.0
3804,86.0,0,64,0.0,125.0
3805,74.0,0,64,0.0,125.0
3806,74.0,0,64,0.0,125.0
3807,86.0,0,64,0.0,125.0
3808,62.0,96,64,1.0,118.0
3809,50.0,0,64,1.0,118.0
3810,78.0,0,64,0.0,125.0
3811,54.0,0,64,1.0,118.0
3812,62.0,0,128,1.0,118.0
3813,86.0,0,128,0.0,125.0
3814,54.0,0,128,1.0,118.0
3815,78.0,0,128,0.0,125.0
3816,74.0,96,128,0.0,125.0
3817,50.0,0,128,1.0,118.0
3818,74.0,0,128,0.0,125.0
3819,86.0,0,128,0.0,125.0
3820,50.0,0,128,1.0,118.0
3821,54.0,0,128,1.0,118.0
3822,62.0,192,128,1.0,118.0
3823,78.0,0,128,0.0,125.0
3824,37.0,0,64,1.0,118.0
3825,49.0,192,64,1.0,118.0
3826,38.0,0,64,1.0,118.0
3827,50.0,96,64,1.0,118.0
3828,54.0,96,64,1.0,118.0
3829,42.0,0,64,1.0,118.0
3830,55.0,96,64,1.0,118.0
3831,43.0,0,64,1.0,118.0
3832,47.0,0,128,1.0,118.0
3833,35.0,96,128,1.0,118.0
3834,74.0,0,64,0.0,125.0
3835,79.0,0,64,0.0,125.0
3836,86.0,0,64,0.0,125.0
3837,62.0,0,64,1.0,118.0
3838,55.0,0,64,1.0,118.0
3839,50.0,192,64,1.0,118.0
3840,50.0,0,64,1.0,118.0
3841,55.0,0,64,1.0,118.0
3842,62.0,0,64,1.0,118.0
3843,86.0,0,64,0.0,125.0
3844,79.0,0,64,0.0,125.0
3845,74.0,96,64,0.0,125.0
3846,55.0,0,128,1.0,118.0
3847,62.0,0,128,1.0,118.0
3848,50.0,0,128,1.0,118.0
3849,86.0,0,128,0.0,125.0
3850,80.0,0,128,0.0,125.0
3851,74.0,0,128,0.0,125.0
3852,46.0,192,64,1.0,118.0
3853,34.0,0,64,1.0,118.0
3854,74.0,0,32,0.0,125.0
3855,76.0,96,32,0.0,125.0
3856,80.0,0,32,0.0,125.0
3857,86.0,0,32,0.0,125.0
3858,88.0,0,32,0.0,125.0
3859,34.0,0,64,1.0,118.0
3860,46.0,0,64,1.0,118.0
3861,34.0,0,128,1.0,118.0
3862,46.0,0,128,1.0,118.0
3863,76.0,0,128,0.0,125.0
3864,88.0,0,128,0.0,125.0
3865,86.0,0,128,0.0,125.0
3866,74.0,96,128,0.0,125.0
3867,80.0,0,128,0.0,125.0
3868,46.0,0,128,1.0,118.0
3869,34.0,0,128,1.0,118.0
3870,88.0,0,128,0.0,125.0
3871,86.0,0,128,0.0,125.0
3872,80.0,192,128,0.0,125.0
3873,76.0,0,128,0.0,125.0
3874,74.0,0,128,0.0,125.0
3875,45.0,0,128,1.0,118.0
3876,33.0,192,128,1.0,118.0
3877,81.0,0,128,0.0,125.0
3878,85.0,0,128,0.0,125.0
3879,93.0,0,128,0.0,125.0
3880,59.0,0,128,1.0,118.0
3881,35.0,0,128,1.0,118.0
3882,47.0,192,128,1.0,118.0
3883,62.0,0,128,1.0,118.0
3884,49.0,96,128,1.0,118.0
3885,33.0,0,128,1.0,118.0
3886,45.0,0,128,1.0,118.0
3887,57.0,0,128,1.0,118.0
3888,61.0,96,128,1.0,118.0
3889,47.0,0,128,1.0,118.0
3890,35.0,0,128,1.0,118.0
3891,55.0,0,128,1.0,118.0
3892,43.0,0,128,1.0,118.0
3893,31.0,96,128,1.0,118.0
3894,45.0,0,128,1.0,118.0
3895,33.0,0,128,1.0,118.0
3896,57.0,96,128,1.0,118.0
3897,30.0,96,128,1.0,118.0
3898,42.0,0,128,1.0,118.0
3899,54.0,0,128,1.0,118.0
3900,55.0,96,128,1.0,118.0
3901,43.0,0,128,1.0,118.0
3902,40.0,0,128,1.0,118.0
3903,28.0,96,128,1.0,118.0
3904,52.0,0,128,1.0,118.0
3905,54.0,96,64,1.0,118.0
3906,42.0,0,64,1.0,118.0
3907,62.0,0,128,0.0,125.0
3908,26.0,0,128,1.0,118.0
3909,38.0,0,128,1.0,118.0
3910,62.0,0,64,1.0,118.0
3911,57.0,192,64,1.0,118.0
3912,54.0,0,64,1.0,118.0
3913,54.0,96,64,1.0,118.0
3914,57.0,0,64,1.0,118.0
3915,62.0,0,64,1.0,118.0
3916,74.0,96,512,0.0,125.0
3917,54.0,0,128,1.0,118.0
3918,57.0,96,128,1.0,118.0
3919,62.0,0,128,1.0,118.0
3920,57.0,0,128,1.0,118.0
3921,54.0,192,128,1.0,118.0
3922,62.0,0,128,1.0,118.0
3923,55.0,0,128,1.0,118.0
3924,57.0,0,128,1.0,118.0
3925,61.0,192,128,1.0,118.0
3926,69.0,0,256,0.0,125.0
3927,55.0,192,128,1.0,118.0
3928,57.0,0,128,1.0,118.0
3929,61.0,0,128,1.0,118.0
3930,38.0,0,128,1.0,118.0
3931,26.0,0,128,1.0,118.0
3932,62.0,0,128,0.0,125.0
3933,54.0,0,64,1.0,118.0
3934,50.0,192,64,1.0,118.0
3935,50.0,0,64,1.0,118.0
3936,54.0,0,64,1.0,118.0
3937,57.0,96,64,0.0,125.0
3938,54.0,0,128,1.0,118.0
3939,50.0,96,128,1.0,118.0
3940,57.0,0,128,1.0,118.0
3941,54.0,192,128,1.0,118.0
3942,52.0,0,128,1.0,118.0
3943,55.0,0,128,1.0,118.0
3944,57.0,192,128,1.0,118.0
3945,62.0,0,512,0.0,125.0
3946,50.0,192,128,1.0,118.0
3947,54.0,0,128,1.0,118.0
3948,57.0,0,128,1.0,118.0
3949,45.0,0,128,1.0,118.0
3950,33.0,0,128,1.0,118.0
3951,49.0,192,64,1.0,118.0
3952,52.0,0,64,1.0,118.0
3953,57.0,0,64,1.0,118.0
3954,57.0,0,64,1.0,118.0
3955,49.0,96,64,1.0,118.0
3956,52.0,0,64,1.0,118.0
3957,49.0,0,128,1.0,118.0
3958,52.0,96,128,1.0,118.0
3959,57.0,0,128,1.0,118.0
3960,69.0,192,512,0.0,125.0
3961,52.0,0,128,1.0,118.0
3962,57.0,0,128,1.0,118.0
3963,49.0,192,128,1.0,118.0
3964,47.0,0,128,1.0,118.0
3965,57.0,192,128,1.0,118.0
3966,50.0,0,128,1.0,118.0
3967,64.0,0,256,0.0,125.0
3968,47.0,0,128,1.0,118.0
3969,50.0,192,128,1.0,118.0
3970,57.0,0,128,1.0,118.0
3971,57.0,0,128,1.0,118.0
3972,45.0,192,128,1.0,118.0
3973,33.0,0,128,1.0,118.0
3974,45.0,192,64,1.0,118.0
3975,49.0,0,64,1.0,118.0
3976,49.0,0,64,1.0,118.0
3977,52.0,96,64,1.0,118.0
3978,45.0,0,64,1.0,118.0
3979,45.0,0,128,1.0,118.0
3980,49.0,0,128,1.0,118.0
3981,52.0,192,128,1.0,118.0
3982,49.0,0,128,1.0,118.0
3983,50.0,192,128,1.0,118.0
3984,57.0,96,512,1.0,118.0
3985,47.0,0,128,1.0,118.0
3986,52.0,0,128,1.0,118.0
3987,45.0,0,128,1.0,118.0
3988,49.0,0,128,1.0,118.0
3989,52.0,192,128,1.0,118.0
3990,59.0,0,128,1.0,118.0
3991,31.0,192,128,1.0,118.0
3992,43.0,0,32,1.0,118.0
3993,67.0,0,64,0.0,125.0
3994,55.0,0,64,1.0,118.0
3995,62.0,0,64,0.0,125.0
3996,71.0,96,64,0.0,125.0
3997,59.0,96,64,0.0,125.0
3998,62.0,0,64,0.0,125.0
3999,67.0,0,64,0.0,125.0
4000,71.0,0,64,0.0,125.0
4001,43.0,96,64,1.0,118.0
4002,55.0,0,64,1.0,118.0
4003,71.0,0,128,0.0,125.0
4004,67.0,0,128,0.0,125.0
4005,62.0,0,128,0.0,125.0
4006,59.0,0,128,0.0,125.0
4007,55.0,96,128,1.0,118.0
4008,43.0,0,128,1.0,118.0
4009,61.0,0,128,0.0,125.0
4010,66.0,192,128,0.0,125.0
4011,70.0,0,128,0.0,125.0
4012,73.0,0,128,0.0,125.0
4013,42.0,0,128,1.0,118.0
4014,54.0,0,128,1.0,118.0
4015,47.0,192,128,1.0,118.0
4016,35.0,0,128,1.0,118.0
4017,62.0,0,128,0.0,125.0
4018,71.0,0,128,0.0,125.0
4019,74.0,0,128,0.0,125.0
4020,66.0,0,128,0.0,125.0
4021,76.0,0,128,0.0,125.0
4022,64.0,0,128,0.0,125.0
4023,69.0,0,128,0.0,125.0
4024,73.0,0,128,0.0,125.0
4025,45.0,192,128,1.0,118.0
4026,33.0,0,128,1.0,118.0
4027,74.0,0,128,0.0,125.0
4028,78.0,96,32,0.0,125.0
4029,38.0,0,128,1.0,118.0
4030,26.0,0,128,1.0,118.0
4031,66.0,0,128,0.0,125.0
4032,69.0,0,32,0.0,125.0
4033,73.0,0,64,0.0,125.0
4034,50.0,0,64,1.0,118.0
4035,62.0,0,64,1.0,118.0
4036,62.0,0,64,1.0,118.0
4037,50.0,0,64,1.0,118.0
4038,66.0,96,64,0.0,125.0
4039,69.0,96,64,0.0,125.0
4040,74.0,0,64,0.0,125.0
4041,78.0,0,64,0.0,125.0
4042,62.0,0,128,1.0,118.0
4043,50.0,0,128,1.0,118.0
4044,69.0,0,128,0.0,125.0
4045,74.0,0,128,0.0,125.0
4046,78.0,0,128,0.0,125.0
4047,68.0,0,128,0.0,125.0
4048,73.0,0,128,0.0,125.0
4049,77.0,0,128,0.0,125.0
4050,80.0,0,128,0.0,125.0
4051,49.0,0,128,1.0,118.0
4052,61.0,192,128,1.0,118.0
4053,78.0,0,128,0.0,125.0
4054,73.0,0,128,0.0,125.0
4055,54.0,0,128,1.0,118.0
4056,69.0,0,128,0.0,125.0
4057,42.0,192,128,1.0,118.0
4058,81.0,0,128,0.0,125.0
4059,83.0,0,128,0.0,125.0
4060,52.0,0,128,1.0,118.0
4061,80.0,0,128,0.0,125.0
4062,76.0,0,128,0.0,125.0
4063,71.0,0,128,0.0,125.0
4064,40.0,192,128,1.0,118.0
4065,79.0,0,128,0.0,125.0
4066,73.0,0,128,0.0,125.0
4067,33.0,0,128,1.0,118.0
4068,45.0,0,128,1.0,118.0
4069,85.0,192,128,0.0,125.0
4070,69.0,0,64,0.0,125.0
4071,64.0,0,64,0.0,125.0
4072,85.0,0,64,0.0,125.0
4073,67.0,0,64,0.0,125.0
4074,73.0,0,64,0.0,125.0
4075,79.0,0,64,0.0,125.0
4076,57.0,192,64,0.0,125.0
4077,57.0,0,64,0.0,125.0
4078,85.0,96,64,0.0,125.0
4079,73.0,0,64,0.0,125.0
4080,79.0,0,64,0.0,125.0
4081,57.0,0,128,0.0,125.0
4082,69.0,96,128,0.0,125.0
4083,85.0,0,128,0.0,125.0
4084,79.0,0,128,0.0,125.0
4085,73.0,0,128,0.0,125.0
4086,64.0,0,128,0.0,125.0
4087,67.0,0,128,0.0,125.0
4088,73.0,0,64,0.0,125.0
4089,79.0,0,64,0.0,125.0
4090,83.0,0,64,0.0,125.0
4091,57.0,0,64,0.0,125.0
4092,64.0,0,64,0.0,125.0
4093,69.0,0,64,0.0,125.0
4094,67.0,192,64,0.0,125.0
4095,79.0,0,64,0.0,125.0
4096,81.0,0,64,0.0,125.0
4097,57.0,0,64,0.0,125.0
4098,64.0,0,64,0.0,125.0
4099,67.0,0,64,0.0,125.0
4100,69.0,0,64,0.0,125.0
4101,73.0,96,64,0.0,125.0
4102,69.0,0,128,0.0,125.0
4103,57.0,96,128,0.0,125.0
4104,86.0,0,128,0.0,125.0
4105,74.0,0,128,0.0,125.0
4106,78.0,0,128,0.0,125.0
4107,66.0,0,128,0.0,125.0
4108,57.0,0,128,0.0,125.0
4109,87.0,0,128,0.0,125.0
4110,60.0,0,128,0.0,125.0
4111,81.0,0,128,0.0,125.0
4112,75.0,0,128,0.0,125.0
4113,69.0,192,128,0.0,125.0
4114,66.0,0,128,0.0,125.0
4115,83.0,0,128,0.0,125.0
4116,67.0,192,128,0.0,125.0
4117,88.0,0,128,0.0,125.0
4118,76.0,0,128,0.0,125.0
4119,93.0,0,64,0.0,125.0
4120,81.0,192,64,0.0,125.0
4121,33.0,0,64,1.0,118.0
4122,45.0,0,64,1.0,118.0
4123,93.0,96,64,0.0,125.0
4124,81.0,0,64,0.0,125.0
4125,45.0,0,64,1.0,118.0
4126,33.0,0,64,1.0,118.0
4127,93.0,0,64,0.0,125.0
4128,45.0,96,128,1.0,118.0
4129,33.0,0,128,1.0,118.0
4130,81.0,0,128,0.0,125.0
4131,34.0,0,64,1.0,118.0
4132,80.0,0,64,0.0,125.0
4133,92.0,0,64,0.0,125.0
4134,46.0,192,64,1.0,118.0
4135,45.0,0,64,1.0,118.0
4136,33.0,96,64,1.0,118.0
4137,81.0,0,64,0.0,125.0
4138,93.0,0,64,0.0,125.0
4139,44.0,0,64,1.0,118.0
4140,32.0,0,64,1.0,118.0
4141,94.0,96,64,0.0,125.0
4142,82.0,0,64,0.0,125.0
4143,43.0,96,64,1.0,118.0
4144,31.0,0,64,1.0,118.0
4145,95.0,0,64,0.0,125.0
4146,83.0,0,64,0.0,125.0
4147,30.0,0,64,1.0,118.0
4148,84.0,0,64,0.0,125.0
4149,96.0,0,64,0.0,125.0
4150,42.0,96,64,1.0,118.0
4151,28.0,96,64,1.0,118.0
4152,85.0,0,64,0.0,125.0
4153,40.0,0,64,1.0,118.0
4154,97.0,0,64,0.0,125.0
4155,38.0,0,128,1.0,118.0
4156,26.0,0,128,1.0,118.0
4157,62.0,0,64,1.0,118.0
4158,54.0,192,64,1.0,118.0
4159,57.0,0,64,1.0,118.0
4160,57.0,0,64,1.0,118.0
4161,54.0,96,64,1.0,118.0
4162,62.0,0,64,1.0,118.0
4163,54.0,0,128,1.0,118.0
4164,57.0,0,128,1.0,118.0
4165,86.0,96,512,0.0,125.0
4166,74.0,0,512,0.0,125.0
4167,62.0,96,128,1.0,118.0
4168,54.0,0,128,1.0,118.0
4169,57.0,192,128,1.0,118.0
4170,62.0,0,128,1.0,118.0
4171,55.0,0,128,1.0,118.0
4172,57.0,0,128,1.0,118.0
4173,61.0,0,128,1.0,118.0
4174,69.0,192,256,0.0,125.0
4175,81.0,0,256,0.0,125.0
4176,57.0,0,128,1.0,118.0
4177,61.0,192,128,1.0,118.0
4178,55.0,0,128,1.0,118.0
4179,86.0,0,128,0.0,125.0
4180,74.0,192,128,0.0,125.0
4181,38.0,0,128,1.0,118.0
4182,50.0,0,128,1.0,118.0
4183,54.0,0,64,1.0,118.0
4184,50.0,0,64,1.0,118.0
4185,62.0,192,64,1.0,118.0
4186,62.0,0,64,1.0,118.0
4187,81.0,96,64,0.0,125.0
4188,69.0,0,64,0.0,125.0
4189,50.0,0,64,1.0,118.0
4190,54.0,0,64,1.0,118.0
4191,54.0,0,128,1.0,118.0
4192,50.0,0,128,1.0,118.0
4193,62.0,0,128,1.0,118.0
4194,62.0,0,128,1.0,118.0
4195,57.0,0,128,1.0,118.0
4196,54.0,192,128,1.0,118.0
4197,55.0,0,128,1.0,118.0
4198,62.0,0,128,1.0,118.0
4199,74.0,0,512,0.0,125.0
4200,86.0,96,512,0.0,125.0
4201,52.0,192,128,1.0,118.0
4202,62.0,0,128,1.0,118.0
4203,50.0,192,128,1.0,118.0
4204,54.0,0,128,1.0,118.0
4205,45.0,192,128,1.0,118.0
4206,33.0,0,128,1.0,118.0
4207,52.0,0,64,1.0,118.0
4208,57.0,192,64,1.0,118.0
4209,49.0,0,64,1.0,118.0
4210,57.0,0,64,1.0,118.0
4211,49.0,96,64,1.0,118.0
4212,52.0,0,64,1.0,118.0
4213,52.0,0,128,1.0,118.0
4214,57.0,0,128,1.0,118.0
4215,93.0,0,512,0.0,125.0
4216,49.0,96,128,1.0,118.0
4217,81.0,0,512,0.0,125.0
4218,49.0,0,128,1.0,118.0
4219,52.0,192,128,1.0,118.0
4220,57.0,0,128,1.0,118.0
4221,47.0,0,128,1.0,118.0
4222,50.0,0,128,1.0,118.0
4223,57.0,0,128,1.0,118.0
4224,88.0,192,256,0.0,125.0
4225,76.0,0,256,0.0,125.0
4226,47.0,192,128,1.0,118.0
4227,57.0,0,128,1.0,118.0
4228,50.0,0,128,1.0,118.0
4229,33.0,0,128,1.0,118.0
4230,69.0,0,128,0.0,125.0
4231,81.0,192,128,0.0,125.0
4232,45.0,0,128,1.0,118.0
4233,52.0,192,64,1.0,118.0
4234,49.0,0,64,1.0,118.0
4235,57.0,0,64,1.0,118.0
4236,76.0,0,64,0.0,125.0
4237,64.0,0,64,0.0,125.0
4238,49.0,96,64,1.0,118.0
4239,52.0,0,64,1.0,118.0
4240,57.0,0,64,1.0,118.0
4241,52.0,0,128,1.0,118.0
4242,57.0,0,128,1.0,118.0
4243,49.0,96,128,1.0,118.0
4244,49.0,192,128,1.0,118.0
4245,52.0,0,128,1.0,118.0
4246,57.0,0,128,1.0,118.0
4247,47.0,0,128,1.0,118.0
4248,50.0,0,128,1.0,118.0
4249,57.0,192,128,1.0,118.0
4250,81.0,0,512,0.0,125.0
4251,69.0,0,512,0.0,125.0
4252,57.0,0,128,1.0,118.0
4253,45.0,192,128,1.0,118.0
4254,49.0,0,128,1.0,118.0
4255,41.0,0,128,1.0,118.0
4256,29.0,0,128,1.0,118.0
4257,75.0,0,128,0.0,125.0
4258,81.0,192,128,0.0,125.0
4259,69.0,0,128,0.0,125.0
4260,75.0,0,64,0.0,125.0
4261,69.0,0,64,0.0,125.0
4262,81.0,0,64,0.0,125.0
4263,53.0,192,64,1.0,118.0
4264,60.0,0,64,1.0,118.0
4265,63.0,0,64,1.0,118.0
4266,65.0,0,64,1.0,118.0
4267,63.0,0,64,1.0,118.0
4268,60.0,0,64,1.0,118.0
4269,65.0,0,64,1.0,118.0
4270,53.0,0,64,1.0,118.0
4271,69.0,96,64,0.0,125.0
4272,75.0,0,64,0.0,125.0
4273,81.0,0,64,0.0,125.0
4274,63.0,0,128,1.0,118.0
4275,60.0,0,128,1.0,118.0
4276,53.0,0,128,1.0,118.0
4277,75.0,0,128,0.0,125.0
4278,65.0,0,128,1.0,118.0
4279,81.0,96,128,0.0,125.0
4280,69.0,0,128,0.0,125.0
4281,60.0,0,64,1.0,118.0
4282,65.0,0,64,1.0,118.0
4283,63.0,0,64,1.0,118.0
4284,79.0,0,64,0.0,125.0
4285,75.0,192,64,0.0,125.0
4286,53.0,0,64,1.0,118.0
4287,69.0,0,64,0.0,125.0
4288,77.0,0,64,0.0,125.0
4289,81.0,0,64,0.0,125.0
4290,75.0,0,64,0.0,125.0
4291,69.0,96,64,0.0,125.0
4292,53.0,0,64,1.0,118.0
4293,60.0,0,64,1.0,118.0
4294,63.0,0,64,1.0,118.0
4295,65.0,0,64,1.0,118.0
4296,70.0,0,128,0.0,125.0
4297,74.0,0,128,0.0,125.0
4298,77.0,0,128,0.0,125.0
4299,65.0,0,128,1.0,118.0
4300,62.0,0,128,1.0,118.0
4301,58.0,0,128,1.0,118.0
4302,82.0,96,256,0.0,125.0
4303,34.0,0,128,1.0,118.0
4304,74.0,0,128,0.0,125.0
4305,77.0,192,128,0.0,125.0
4306,70.0,0,128,0.0,125.0
4307,46.0,0,128,1.0,118.0
4308,71.0,0,128,0.0,125.0
4309,77.0,0,128,0.0,125.0
4310,83.0,0,128,0.0,125.0
4311,31.0,192,128,1.0,118.0
4312,43.0,0,128,1.0,118.0
4313,67.0,0,64,1.0,118.0
4314,65.0,0,64,1.0,118.0
4315,62.0,0,64,1.0,118.0
4316,55.0,192,64,1.0,118.0
4317,71.0,0,64,0.0,125.0
4318,77.0,0,64,0.0,125.0
4319,83.0,0,64,0.0,125.0
4320,67.0,0,64,1.0,118.0
4321,55.0,0,64,1.0,118.0
4322,65.0,96,64,1.0,118.0
4323,62.0,0,64,1.0,118.0
4324,71.0,0,64,0.0,125.0
4325,77.0,0,64,0.0,125.0
4326,83.0,0,64,0.0,125.0
4327,77.0,0,128,0.0,125.0
4328,83.0,0,128,0.0,125.0
4329,71.0,0,128,0.0,125.0
4330,62.0,0,128,1.0,118.0
4331,65.0,96,128,1.0,118.0
4332,67.0,0,128,1.0,118.0
4333,55.0,0,128,1.0,118.0
4334,67.0,0,64,1.0,118.0
4335,65.0,0,64,1.0,118.0
4336,62.0,0,64,1.0,118.0
4337,55.0,0,64,1.0,118.0
4338,77.0,0,64,0.0,125.0
4339,71.0,192,64,0.0,125.0
4340,81.0,0,64,0.0,125.0
4341,55.0,0,64,1.0,118.0
4342,62.0,0,64,1.0,118.0
4343,71.0,96,64,0.0,125.0
4344,67.0,0,64,1.0,118.0
4345,79.0,0,64,0.0,125.0
4346,83.0,0,64,0.0,125.0
4347,77.0,0,64,0.0,125.0
4348,65.0,0,64,1.0,118.0
4349,76.0,0,128,0.0,125.0
4350,79.0,0,128,0.0,125.0
4351,67.0,0,128,1.0,118.0
4352,60.0,96,128,1.0,118.0
4353,72.0,0,128,0.0,125.0
4354,64.0,0,128,1.0,118.0
4355,84.0,0,256,0.0,125.0
4356,76.0,0,128,0.0,125.0
4357,79.0,0,128,0.0,125.0
4358,72.0,0,128,0.0,125.0
4359,36.0,192,128,1.0,118.0
4360,48.0,0,128,1.0,118.0
4361,45.0,0,128,1.0,118.0
4362,73.0,0,128,0.0,125.0
4363,79.0,0,128,0.0,125.0
4364,85.0,192,128,0.0,125.0
4365,33.0,0,128,1.0,118.0
4366,79.0,0,64,0.0,125.0
4367,85.0,0,64,0.0,125.0
4368,69.0,0,64,0.0,125.0
4369,64.0,0,64,0.0,125.0
4370,61.0,0,64,0.0,125.0
4371,57.0,0,64,0.0,125.0
4372,71.0,192,64,0.0,125.0
4373,67.0,0,64,0.0,125.0
4374,73.0,96,64,0.0,125.0
4375,86.0,0,64,0.0,125.0
4376,67.0,0,64,0.0,125.0
4377,69.0,0,64,0.0,125.0
4378,64.0,0,64,0.0,125.0
4379,61.0,0,64,0.0,125.0
4380,57.0,0,64,0.0,125.0
4381,79.0,0,64,0.0,125.0
4382,76.0,96,128,0.0,125.0
4383,79.0,0,128,0.0,125.0
4384,88.0,0,128,0.0,125.0
4385,67.0,0,128,0.0,125.0
4386,69.0,0,128,0.0,125.0
4387,64.0,0,128,0.0,125.0
4388,61.0,0,128,0.0,125.0
4389,57.0,0,128,0.0,125.0
4390,57.0,0,64,0.0,125.0
4391,61.0,0,64,0.0,125.0
4392,64.0,0,64,0.0,125.0
4393,69.0,0,64,0.0,125.0
4394,85.0,0,64,0.0,125.0
4395,79.0,0,64,0.0,125.0
4396,73.0,192,64,0.0,125.0
4397,67.0,0,64,0.0,125.0
4398,61.0,0,64,0.0,125.0
4399,57.0,0,64,0.0,125.0
4400,64.0,0,64,0.0,125.0
4401,74.0,96,64,0.0,125.0
4402,67.0,0,64,0.0,125.0
4403,86.0,0,64,0.0,125.0
4404,69.0,0,64,0.0,125.0
4405,76.0,0,64,0.0,125.0
4406,88.0,0,64,0.0,125.0
4407,67.0,0,64,0.0,125.0
4408,69.0,0,64,0.0,125.0
4409,61.0,0,64,0.0,125.0
4410,57.0,96,64,0.0,125.0
4411,64.0,0,64,0.0,125.0
4412,57.0,0,64,0.0,125.0
4413,78.0,0,64,0.0,125.0
4414,90.0,0,64,0.0,125.0
4415,67.0,0,64,0.0,125.0
4416,69.0,0,64,0.0,125.0
4417,64.0,0,64,0.0,125.0
4418,61.0,96,64,0.0,125.0
4419,69.0,0,64,0.0,125.0
4420,61.0,0,64,0.0,125.0
4421,57.0,96,64,0.0,125.0
4422,67.0,0,64,0.0,125.0
4423,91.0,0,64,0.0,125.0
4424,64.0,0,64,0.0,125.0
4425,79.0,0,64,0.0,125.0
4426,92.0,0,64,0.0,125.0
4427,57.0,0,64,0.0,125.0
4428,61.0,0,64,0.0,125.0
4429,64.0,0,64,0.0,125.0
4430,80.0,96,64,0.0,125.0
4431,69.0,0,64,0.0,125.0
4432,67.0,0,64,0.0,125.0
4433,81.0,0,64,0.0,125.0
4434,93.0,0,64,0.0,125.0
4435,67.0,0,128,1.0,118.0
4436,61.0,96,128,1.0,118.0
4437,57.0,0,128,1.0,118.0
4438,64.0,0,128,1.0,118.0
4439,69.0,0,128,1.0,118.0
4440,94.0,96,64,0.0,125.0
4441,82.0,0,64,0.0,125.0
4442,83.0,96,64,0.0,125.0
4443,95.0,0,64,0.0,125.0
4444,57.0,0,128,1.0,118.0
4445,69.0,0,128,1.0,118.0
4446,67.0,0,128,1.0,118.0
4447,64.0,0,128,1.0,118.0
4448,97.0,0,64,0.0,125.0
4449,85.0,96,64,0.0,125.0
4450,61.0,96,256,1.0,118.0
4451,100.0,0,256,0.0,125.0
4452,93.0,0,256,0.0,125.0
4453,88.0,0,256,0.0,125.0
4454,57.0,0,256,1.0,118.0
4455,69.0,0,256,1.0,118.0
4456,67.0,0,256,1.0,118.0
4457,69.0,0,128,1.0,118.0
4458,86.0,0,128,0.0,125.0
4459,62.0,0,128,1.0,118.0
4460,66.0,384,128,1.0,118.0
4461,98.0,0,128,0.0,125.0
4462,57.0,384,128,0.0,125.0
4463,33.0,0,128,1.0,118.0
4464,61.0,0,128,0.0,125.0
4465,69.0,0,128,0.0,125.0
4466,45.0,0,128,1.0,118.0
4467,64.0,288,64,0.0,125.0
4468,45.0,0,64,1.0,118.0
4469,61.0,0,64,0.0,125.0
4470,52.0,0,64,1.0,118.0
4471,57.0,0,64,1.0,118.0
4472,57.0,0,128,1.0,118.0
4473,52.0,0,128,1.0,118.0
4474,61.0,96,128,0.0,125.0
4475,64.0,0,128,0.0,125.0
4476,45.0,0,128,1.0,118.0
4477,61.0,0,64,0.0,125.0
4478,59.0,0,64,1.0,118.0
4479,52.0,0,64,1.0,118.0
4480,45.0,288,64,1.0,118.0
4481,64.0,0,64,0.0,125.0
4482,45.0,0,64,1.0,118.0
4483,52.0,0,64,1.0,118.0
4484,59.0,0,64,1.0,118.0
4485,62.0,0,64,0.0,125.0
4486,66.0,96,64,0.0,125.0
4487,52.0,0,64,1.0,118.0
4488,68.0,0,64,0.0,125.0
4489,62.0,0,64,0.0,125.0
4490,45.0,0,64,1.0,118.0
4491,59.0,96,64,1.0,118.0
4492,59.0,0,64,1.0,118.0
4493,52.0,0,64,1.0,118.0
4494,69.0,96,64,0.0,125.0
4495,45.0,0,64,1.0,118.0
4496,62.0,0,64,0.0,125.0
4497,52.0,0,64,1.0,118.0
4498,45.0,0,64,1.0,118.0
4499,59.0,0,64,1.0,118.0
4500,71.0,0,64,0.0,125.0
4501,62.0,96,64,0.0,125.0
4502,61.0,96,192,0.0,125.0
4503,73.0,0,192,0.0,125.0
4504,57.0,0,192,1.0,118.0
4505,45.0,0,192,1.0,118.0
4506,52.0,0,192,1.0,118.0
4507,45.0,0,64,1.0,118.0
4508,57.0,0,64,1.0,118.0
4509,52.0,0,64,1.0,118.0
4510,61.0,0,64,0.0,125.0
4511,69.0,0,64,0.0,125.0
4512,45.0,0,128,1.0,118.0
4513,57.0,0,128,1.0,118.0
4514,69.0,96,128,0.0,125.0
4515,52.0,0,128,1.0,118.0
4516,61.0,0,128,0.0,125.0
4517,56.0,0,64,1.0,118.0
4518,44.0,96,64,1.0,118.0
4519,45.0,96,64,1.0,118.0
4520,57.0,0,64,1.0,118.0
4521,47.0,96,64,1.0,118.0
4522,59.0,0,64,1.0,118.0
4523,57.0,96,128,1.0,118.0
4524,45.0,0,128,1.0,118.0
4525,40.0,192,128,1.0,118.0
4526,52.0,0,128,1.0,118.0
4527,45.0,0,128,1.0,118.0
4528,33.0,192,128,1.0,118.0
4529,61.0,0,128,0.0,125.0
4530,73.0,0,128,0.0,125.0
4531,57.0,0,64,1.0,118.0
4532,61.0,0,64,0.0,125.0
4533,45.0,288,64,1.0,118.0
4534,69.0,0,64,0.0,125.0
4535,52.0,0,64,1.0,118.0
4536,45.0,0,128,1.0,118.0
4537,57.0,0,128,1.0,118.0
4538,61.0,96,128,0.0,125.0
4539,69.0,0,128,0.0,125.0
4540,52.0,0,128,1.0,118.0
4541,57.0,288,64,1.0,118.0
4542,52.0,0,64,1.0,118.0
4543,45.0,0,64,1.0,118.0
4544,68.0,0,64,0.0,125.0
4545,61.0,0,64,0.0,125.0
4546,57.0,0,64,1.0,118.0
4547,52.0,0,64,1.0,118.0
4548,45.0,0,64,1.0,118.0
4549,69.0,0,64,0.0,125.0
4550,61.0,96,64,0.0,125.0
4551,45.0,0,64,1.0,118.0
4552,52.0,0,64,1.0,118.0
4553,69.0,96,64,0.0,125.0
4554,61.0,0,64,0.0,125.0
4555,71.0,0,64,0.0,125.0
4556,57.0,0,64,1.0,118.0
4557,73.0,0,64,0.0,125.0
4558,45.0,0,64,1.0,118.0
4559,69.0,0,64,0.0,125.0
4560,52.0,0,64,1.0,118.0
4561,61.0,96,64,0.0,125.0
4562,57.0,0,64,1.0,118.0
4563,62.0,0,64,0.0,125.0
4564,74.0,0,64,0.0,125.0
4565,69.0,0,64,0.0,125.0
4566,52.0,0,64,1.0,118.0
4567,59.0,0,64,1.0,118.0
4568,45.0,96,64,1.0,118.0
4569,45.0,0,192,1.0,118.0
4570,51.0,0,192,1.0,118.0
4571,54.0,0,192,1.0,118.0
4572,60.0,0,192,1.0,118.0
4573,69.0,0,192,0.0,125.0
4574,63.0,0,192,0.0,125.0
4575,78.0,96,192,0.0,125.0
4576,52.0,0,64,1.0,118.0
4577,76.0,0,64,0.0,125.0
4578,61.0,0,64,1.0,118.0
4579,69.0,288,64,0.0,125.0
4580,64.0,0,64,0.0,125.0
4581,57.0,0,64,1.0,118.0
4582,57.0,0,128,1.0,118.0
4583,69.0,0,128,0.0,125.0
4584,76.0,0,128,0.0,125.0
4585,61.0,0,128,1.0,118.0
4586,52.0,96,128,1.0,118.0
4587,64.0,0,128,0.0,125.0
4588,44.0,96,64,1.0,118.0
4589,56.0,0,64,1.0,118.0
4590,45.0,96,64,1.0,118.0
4591,57.0,0,64,1.0,118.0
4592,59.0,0,64,1.0,118.0
4593,47.0,96,64,1.0,118.0
4594,45.0,0,128,1.0,118.0
4595,57.0,96,128,1.0,118.0
4596,40.0,192,128,1.0,118.0
4597,52.0,0,128,1.0,118.0
4598,77.0,0,128,0.0,125.0
4599,44.0,192,128,1.0,118.0
4600,85.0,0,128,0.0,125.0
4601,32.0,0,128,1.0,118.0
4602,73.0,96,32,0.0,125.0
4603,53.0,0,64,1.0,118.0
4604,56.0,0,64,1.0,118.0
4605,65.0,0,64,1.0,118.0
4606,68.0,0,64,0.0,125.0
4607,61.0,0,64,1.0,118.0
4608,80.0,0,64,0.0,125.0
4609,61.0,0,64,1.0,118.0
4610,65.0,0,64,1.0,118.0
4611,56.0,0,64,1.0,118.0
4612,53.0,0,64,1.0,118.0
4613,73.0,0,64,0.0,125.0
4614,68.0,0,64,0.0,125.0
4615,80.0,96,64,0.0,125.0
4616,73.0,0,64,0.0,125.0
4617,65.0,0,64,1.0,118.0
4618,68.0,0,64,0.0,125.0
4619,56.0,0,64,1.0,118.0
4620,53.0,0,64,1.0,118.0
4621,61.0,96,64,1.0,118.0
4622,80.0,0,64,0.0,125.0
4623,68.0,0,128,0.0,125.0
4624,80.0,96,128,0.0,125.0
4625,53.0,0,128,1.0,118.0
4626,56.0,0,128,1.0,118.0
4627,61.0,0,128,1.0,118.0
4628,65.0,0,128,1.0,118.0
4629,73.0,0,128,0.0,125.0
4630,68.0,0,128,0.0,125.0
4631,73.0,0,128,0.0,125.0
4632,80.0,0,128,0.0,125.0
4633,53.0,192,128,1.0,118.0
4634,56.0,0,128,1.0,118.0
4635,65.0,0,128,1.0,118.0
4636,61.0,0,128,1.0,118.0
4637,70.0,0,64,0.0,125.0
4638,82.0,0,64,0.0,125.0
4639,75.0,0,64,0.0,125.0
4640,60.0,0,128,1.0,118.0
4641,56.0,192,128,1.0,118.0
4642,54.0,0,128,1.0,118.0
4643,63.0,0,128,1.0,118.0
4644,72.0,96,64,0.0,125.0
4645,84.0,0,64,0.0,125.0
4646,73.0,0,64,0.0,125.0
4647,80.0,0,64,0.0,125.0
4648,85.0,0,64,0.0,125.0
4649,32.0,0,128,1.0,118.0
4650,44.0,96,128,1.0,118.0
4651,87.0,0,64,0.0,125.0
4652,75.0,96,64,0.0,125.0
4653,37.0,0,192,1.0,118.0
4654,89.0,0,192,0.0,125.0
4655,85.0,96,192,0.0,125.0
4656,77.0,0,192,0.0,125.0
4657,25.0,0,192,1.0,118.0
4658,49.0,288,64,1.0,118.0
4659,61.0,0,64,1.0,118.0
4660,85.0,0,64,0.0,125.0
4661,73.0,0,64,0.0,125.0
4662,73.0,0,128,0.0,125.0
4663,85.0,0,128,0.0,125.0
4664,61.0,0,128,1.0,118.0
4665,49.0,96,128,1.0,118.0
4666,49.0,0,64,1.0,118.0
4667,61.0,0,64,1.0,118.0
4668,73.0,0,64,0.0,125.0
4669,85.0,192,64,0.0,125.0
4670,61.0,0,64,1.0,118.0
4671,85.0,0,64,0.0,125.0
4672,49.0,0,64,1.0,118.0
4673,73.0,96,64,0.0,125.0
4674,61.0,96,64,1.0,118.0
4675,49.0,0,64,1.0,118.0
4676,73.0,0,64,0.0,125.0
4677,85.0,0,64,0.0,125.0
4678,61.0,96,64,1.0,118.0
4679,49.0,0,64,1.0,118.0
4680,85.0,0,64,0.0,125.0
4681,73.0,0,64,0.0,125.0
4682,61.0,96,64,1.0,118.0
4683,85.0,0,64,0.0,125.0
4684,73.0,0,64,0.0,125.0
4685,49.0,0,64,1.0,118.0
4686,61.0,0,64,1.0,118.0
4687,49.0,0,64,1.0,118.0
4688,85.0,96,64,0.0,125.0
4689,73.0,0,64,0.0,125.0
4690,61.0,96,128,1.0,118.0
4691,49.0,0,128,1.0,118.0
4692,85.0,0,128,0.0,125.0
4693,73.0,0,128,0.0,125.0
4694,54.0,0,96,1.0,118.0
4695,59.0,96,0,1.0,118.0
4696,71.0,0,96,0.0,125.0
4697,50.0,0,0,1.0,118.0
4698,78.0,0,96,0.0,125.0
4699,83.0,0,0,0.0,125.0
4700,78.0,0,64,0.0,125.0
4701,71.0,0,64,0.0,125.0
4702,54.0,0,64,1.0,118.0
4703,78.0,0,128,0.0,125.0
4704,71.0,0,128,0.0,125.0
4705,50.0,0,128,1.0,118.0
4706,54.0,96,128,1.0,118.0
4707,59.0,0,128,1.0,118.0
4708,83.0,0,128,0.0,125.0
4709,73.0,0,128,0.0,125.0
4710,85.0,0,128,0.0,125.0
4711,52.0,0,128,1.0,118.0
4712,56.0,192,128,1.0,118.0
4713,61.0,0,128,1.0,118.0
4714,76.0,192,128,0.0,125.0
4715,88.0,0,128,0.0,125.0
4716,64.0,0,128,1.0,118.0
4717,81.0,0,128,0.0,125.0
4718,74.0,0,64,0.0,125.0
4719,86.0,0,64,0.0,125.0
4720,54.0,0,256,1.0,118.0
4721,57.0,0,256,1.0,118.0
4722,62.0,192,128,1.0,118.0
4723,73.0,0,64,0.0,125.0
4724,85.0,96,64,0.0,125.0
4725,52.0,0,128,1.0,118.0
4726,71.0,0,128,0.0,125.0
4727,56.0,0,128,1.0,118.0
4728,62.0,96,128,1.0,118.0
4729,83.0,0,128,0.0,125.0
4730,64.0,192,128,1.0,118.0
4731,62.0,0,128,1.0,118.0
4732,56.0,0,128,1.0,118.0
4733,52.0,0,128,1.0,118.0
4734,73.0,0,64,0.0,125.0
4735,85.0,96,64,0.0,125.0
4736,83.0,0,0,0.0,125.0
4737,76.0,96,0,0.0,125.0
4738,71.0,0,0,0.0,125.0
4739,52.0,0,256,1.0,118.0
4740,56.0,0,256,1.0,118.0
4741,62.0,0,256,1.0,118.0
4742,64.0,0,256,1.0,118.0
4743,69.0,384,128,0.0,125.0
4744,57.0,0,128,1.0,118.0
4745,61.0,0,128,1.0,118.0
4746,64.0,0,128,1.0,118.0
4747,81.0,0,128,0.0,125.0
4748,35.0,0,128,1.0,118.0
4749,47.0,0,128,1.0,118.0
4750,75.0,0,128,0.0,125.0
4751,69.0,384,128,0.0,125.0
4752,71.0,0,128,0.0,125.0
4753,78.0,0,128,0.0,125.0
4754,83.0,0,128,0.0,125.0
4755,59.0,0,64,1.0,118.0
4756,78.0,288,64,0.0,125.0
4757,47.0,0,64,1.0,118.0
4758,71.0,0,64,0.0,125.0
4759,69.0,0,64,0.0,125.0
4760,75.0,0,64,0.0,125.0
4761,78.0,0,128,0.0,125.0
4762,75.0,0,128,0.0,125.0
4763,47.0,0,128,1.0,118.0
4764,59.0,0,128,1.0,118.0
4765,69.0,0,128,0.0,125.0
4766,71.0,96,128,0.0,125.0
4767,74.0,96,64,0.0,125.0
4768,46.0,0,64,1.0,118.0
4769,58.0,0,64,1.0,118.0
4770,59.0,0,64,1.0,118.0
4771,47.0,96,64,1.0,118.0
4772,49.0,96,64,1.0,118.0
4773,61.0,0,64,1.0,118.0
4774,47.0,0,128,1.0,118.0
4775,59.0,96,128,1.0,118.0
4776,80.0,0,128,0.0,125.0
4777,76.0,0,128,0.0,125.0
4778,68.0,0,128,0.0,125.0
4779,40.0,192,128,1.0,118.0
4780,52.0,0,128,1.0,118.0
4781,35.0,0,128,1.0,118.0
4782,47.0,0,128,1.0,118.0
4783,83.0,192,128,0.0,125.0
4784,69.0,0,128,0.0,125.0
4785,71.0,0,128,0.0,125.0
4786,75.0,0,128,0.0,125.0
4787,78.0,0,128,0.0,125.0
4788,71.0,192,64,0.0,125.0
4789,78.0,0,64,0.0,125.0
4790,69.0,0,64,0.0,125.0
4791,47.0,0,64,1.0,118.0
4792,75.0,0,64,0.0,125.0
4793,59.0,0,64,1.0,118.0
4794,59.0,0,64,1.0,118.0
4795,47.0,0,64,1.0,118.0
4796,71.0,0,64,0.0,125.0
4797,75.0,0,64,0.0,125.0
4798,78.0,0,64,0.0,125.0
4799,69.0,96,64,0.0,125.0
4800,47.0,0,128,1.0,118.0
4801,75.0,0,128,0.0,125.0
4802,69.0,96,128,0.0,125.0
4803,78.0,0,128,0.0,125.0
4804,59.0,0,128,1.0,118.0
4805,71.0,0,128,0.0,125.0
4806,58.0,96,64,1.0,118.0
4807,46.0,0,64,1.0,118.0
4808,47.0,96,64,1.0,118.0
4809,59.0,0,64,1.0,118.0
4810,49.0,96,64,1.0,118.0
4811,61.0,0,64,1.0,118.0
4812,59.0,96,128,1.0,118.0
4813,47.0,0,128,1.0,118.0
4814,47.0,0,128,1.0,118.0
4815,35.0,0,128,1.0,118.0
4816,80.0,192,128,0.0,125.0
4817,75.0,0,128,0.0,125.0
4818,68.0,0,128,0.0,125.0
4819,37.0,192,128,1.0,118.0
4820,49.0,0,128,1.0,118.0
4821,68.0,0,128,0.0,125.0
4822,73.0,0,128,0.0,125.0
4823,64.0,0,128,0.0,125.0
4824,76.0,0,128,0.0,125.0
4825,64.0,0,64,0.0,125.0
4826,76.0,0,64,0.0,125.0
4827,73.0,0,64,0.0,125.0
4828,68.0,0,64,0.0,125.0
4829,49.0,0,64,1.0,118.0
4830,37.0,192,64,1.0,118.0
4831,68.0,0,64,0.0,125.0
4832,64.0,96,64,0.0,125.0
4833,37.0,0,64,1.0,118.0
4834,76.0,0,64,0.0,125.0
4835,49.0,0,64,1.0,118.0
4836,73.0,0,64,0.0,125.0
4837,30.0,0,128,1.0,118.0
4838,81.0,0,128,0.0,125.0
4839,42.0,96,128,1.0,118.0
4840,69.0,0,128,0.0,125.0
4841,73.0,0,128,0.0,125.0
4842,80.0,0,128,0.0,125.0
4843,73.0,0,128,0.0,125.0
4844,68.0,0,128,0.0,125.0
4845,44.0,192,128,1.0,118.0
4846,32.0,0,128,1.0,118.0
4847,66.0,192,128,0.0,125.0
4848,73.0,0,128,0.0,125.0
4849,78.0,0,128,0.0,125.0
4850,33.0,0,128,1.0,118.0
4851,45.0,0,128,1.0,118.0
4852,68.0,0,128,0.0,125.0
4853,72.0,0,128,0.0,125.0
4854,75.0,0,128,0.0,125.0
4855,80.0,0,128,0.0,125.0
4856,44.0,192,128,1.0,118.0
4857,32.0,0,128,1.0,118.0
4858,66.0,0,128,0.0,125.0
4859,37.0,0,128,1.0,118.0
4860,49.0,0,128,1.0,118.0
4861,76.0,0,128,0.0,125.0
4862,68.0,0,128,0.0,125.0
4863,64.0,192,128,0.0,125.0
4864,51.0,0,128,1.0,118.0
4865,61.0,0,128,0.0,125.0
4866,63.0,0,128,0.0,125.0
4867,67.0,0,128,0.0,125.0
4868,70.0,0,128,0.0,125.0
4869,73.0,0,128,0.0,125.0
4870,75.0,0,128,0.0,125.0
4871,39.0,192,128,1.0,118.0
4872,72.0,0,128,0.0,125.0
4873,60.0,0,128,0.0,125.0
4874,63.0,0,128,0.0,125.0
4875,56.0,192,128,1.0,118.0
4876,44.0,0,128,1.0,118.0
4877,68.0,0,128,0.0,125.0
4878,63.0,192,64,0.0,125.0
4879,75.0,0,64,0.0,125.0
4880,51.0,0,64,1.0,118.0
4881,39.0,0,64,1.0,118.0
4882,75.0,0,64,0.0,125.0
4883,39.0,0,64,1.0,118.0
4884,51.0,0,64,1.0,118.0
4885,63.0,96,64,0.0,125.0
4886,39.0,0,64,1.0,118.0
4887,51.0,0,64,1.0,118.0
4888,63.0,0,64,0.0,125.0
4889,75.0,96,64,0.0,125.0
4890,63.0,96,64,0.0,125.0
4891,75.0,0,64,0.0,125.0
4892,51.0,0,64,1.0,118.0
4893,39.0,0,64,1.0,118.0
4894,63.0,96,64,0.0,125.0
4895,39.0,0,64,1.0,118.0
4896,75.0,0,64,0.0,125.0
4897,51.0,0,64,1.0,118.0
4898,51.0,96,64,1.0,118.0
4899,75.0,0,64,0.0,125.0
4900,63.0,0,64,0.0,125.0
4901,39.0,0,64,1.0,118.0
4902,27.0,96,128,1.0,118.0
4903,39.0,0,128,1.0,118.0
4904,73.0,0,128,0.0,125.0
4905,79.0,0,128,0.0,125.0
4906,82.0,0,128,0.0,125.0
4907,85.0,0,128,0.0,125.0
4908,87.0,0,128,0.0,125.0
4909,75.0,0,128,0.0,125.0
4910,73.0,0,64,0.0,125.0
4911,75.0,0,64,0.0,125.0
4912,82.0,0,64,0.0,125.0
4913,70.0,0,64,0.0,125.0
4914,63.0,0,64,1.0,118.0
4915,58.0,0,64,1.0,118.0
4916,67.0,0,64,1.0,118.0
4917,61.0,288,64,1.0,118.0
4918,55.0,0,64,1.0,118.0
4919,73.0,0,128,0.0,125.0
4920,70.0,0,128,0.0,125.0
4921,82.0,96,128,0.0,125.0
4922,55.0,0,128,1.0,118.0
4923,58.0,0,128,1.0,118.0
4924,61.0,0,128,1.0,118.0
4925,63.0,0,128,1.0,118.0
4926,67.0,0,128,1.0,118.0
4927,75.0,0,128,0.0,125.0
4928,50.0,0,64,1.0,118.0
4929,62.0,192,64,0.0,125.0
4930,51.0,96,64,1.0,118.0
4931,63.0,0,64,0.0,125.0
4932,53.0,96,64,1.0,118.0
4933,65.0,0,64,0.0,125.0
4934,51.0,96,64,1.0,118.0
4935,63.0,0,64,0.0,125.0
4936,72.0,0,128,0.0,125.0
4937,44.0,0,128,1.0,118.0
4938,32.0,0,128,1.0,118.0
4939,75.0,96,128,0.0,125.0
4940,80.0,0,128,0.0,125.0
4941,84.0,0,128,0.0,125.0
4942,73.0,0,32,0.0,125.0
4943,75.0,96,32,0.0,125.0
4944,39.0,0,128,1.0,118.0
4945,27.0,0,128,1.0,118.0
4946,79.0,0,128,0.0,125.0
4947,82.0,0,32,0.0,125.0
4948,87.0,192,128,0.0,125.0
4949,58.0,0,64,1.0,118.0
4950,61.0,0,64,1.0,118.0
4951,55.0,0,64,1.0,118.0
4952,70.0,0,64,0.0,125.0
4953,63.0,0,64,1.0,118.0
4954,67.0,0,64,1.0,118.0
4955,73.0,96,64,0.0,125.0
4956,55.0,0,64,1.0,118.0
4957,58.0,0,64,1.0,118.0
4958,61.0,0,64,1.0,118.0
4959,63.0,0,64,1.0,118.0
4960,67.0,0,64,1.0,118.0
4961,70.0,0,64,0.0,125.0
4962,82.0,0,64,0.0,125.0
4963,75.0,0,64,0.0,125.0
4964,75.0,0,64,0.0,125.0
4965,70.0,0,64,0.0,125.0
4966,58.0,0,64,1.0,118.0
4967,67.0,0,64,1.0,118.0
4968,63.0,0,64,1.0,118.0
4969,55.0,0,64,1.0,118.0
4970,73.0,0,64,0.0,125.0
4971,82.0,96,64,0.0,125.0
4972,61.0,0,64,1.0,118.0
4973,70.0,0,128,0.0,125.0
4974,82.0,0,128,0.0,125.0
4975,67.0,0,128,1.0,118.0
4976,73.0,0,128,0.0,125.0
4977,75.0,0,128,0.0,125.0
4978,55.0,96,128,1.0,118.0
4979,58.0,0,128,1.0,118.0
4980,61.0,0,128,1.0,118.0
4981,63.0,0,128,1.0,118.0
4982,62.0,0,64,0.0,125.0
4983,50.0,96,64,1.0,118.0
4984,63.0,0,64,0.0,125.0
4985,51.0,96,64,1.0,118.0
4986,53.0,96,64,1.0,118.0
4987,65.0,0,64,0.0,125.0
4988,63.0,0,128,0.0,125.0
4989,51.0,96,128,1.0,118.0
4990,72.0,0,128,0.0,125.0
4991,44.0,0,128,1.0,118.0
4992,32.0,0,128,1.0,118.0
4993,84.0,192,128,0.0,125.0
4994,75.0,0,128,0.0,125.0
4995,80.0,0,128,0.0,125.0
4996,33.0,0,128,1.0,118.0
4997,45.0,96,32,1.0,118.0
4998,73.0,0,32,0.0,125.0
4999,78.0,0,32,0.0,125.0
5000,85.0,0,128,0.0,125.0
5001,57.0,0,64,1.0,118.0
5002,66.0,0,64,0.0,125.0
5003,73.0,0,64,0.0,125.0
5004,57.0,0,64,1.0,118.0
5005,66.0,96,64,0.0,125.0
5006,45.0,96,32,1.0,118.0
5007,78.0,0,32,0.0,125.0
5008,57.0,0,64,1.0,118.0
5009,73.0,0,64,0.0,125.0
5010,66.0,0,64,0.0,125.0
5011,78.0,0,32,0.0,125.0
5012,57.0,0,128,1.0,118.0
5013,66.0,0,128,0.0,125.0
5014,73.0,0,128,0.0,125.0
5015,45.0,96,128,1.0,118.0
5016,44.0,0,128,1.0,118.0
5017,56.0,0,128,1.0,118.0
5018,80.0,0,128,0.0,125.0
5019,76.0,192,128,0.0,125.0
5020,73.0,0,128,0.0,125.0
5021,68.0,0,128,0.0,125.0
5022,81.0,192,128,0.0,125.0
5023,76.0,0,128,0.0,125.0
5024,69.0,0,128,0.0,125.0
5025,54.0,0,128,1.0,118.0
5026,73.0,0,128,0.0,125.0
5027,42.0,0,128,1.0,118.0
5028,75.0,0,128,0.0,125.0
5029,47.0,192,128,1.0,118.0
5030,69.0,0,128,0.0,125.0
5031,71.0,0,128,0.0,125.0
5032,35.0,0,128,1.0,118.0
5033,83.0,0,128,0.0,125.0
5034,68.0,0,128,0.0,125.0
5035,64.0,0,128,0.0,125.0
5036,76.0,0,128,0.0,125.0
5037,52.0,0,128,1.0,118.0
5038,40.0,0,128,1.0,118.0
5039,76.0,96,0,0.0,125.0
5040,64.0,0,96,0.0,125.0
5041,69.0,0,96,0.0,125.0
5042,37.0,0,128,1.0,118.0
5043,49.0,192,128,1.0,118.0
5044,64.0,0,64,0.0,125.0
5045,54.0,96,128,1.0,118.0
5046,42.0,0,128,1.0,118.0
5047,64.0,0,128,0.0,125.0
5048,69.0,0,128,0.0,125.0
5049,76.0,96,32,0.0,125.0
5050,62.0,0,64,0.0,125.0
5051,74.0,0,64,0.0,125.0
5052,35.0,0,128,1.0,118.0
5053,47.0,0,128,1.0,118.0
5054,69.0,96,128,0.0,125.0
5055,73.0,96,64,0.0,125.0
5056,61.0,0,64,0.0,125.0
5057,64.0,0,128,0.0,125.0
5058,40.0,96,128,1.0,118.0
5059,52.0,0,128,1.0,118.0
5060,62.0,0,128,0.0,125.0
5061,74.0,96,32,0.0,125.0
5062,68.0,0,128,0.0,125.0
5063,73.0,0,64,0.0,125.0
5064,62.0,0,128,0.0,125.0
5065,64.0,0,128,0.0,125.0
5066,68.0,0,128,0.0,125.0
5067,28.0,96,128,1.0,118.0
5068,40.0,0,128,1.0,118.0
5069,71.0,96,64,0.0,125.0
5070,61.0,0,128,0.0,125.0
5071,69.0,0,128,0.0,125.0
5072,57.0,0,128,0.0,125.0
5073,45.0,96,128,1.0,118.0
5074,33.0,0,128,1.0,118.0
5075,45.0,0,64,1.0,118.0
5076,52.0,288,64,1.0,118.0
5077,57.0,0,64,1.0,118.0
5078,64.0,0,64,0.0,125.0
5079,61.0,0,64,0.0,125.0
5080,64.0,0,128,0.0,125.0
5081,61.0,0,128,0.0,125.0
5082,57.0,0,128,1.0,118.0
5083,52.0,0,128,1.0,118.0
5084,45.0,0,128,1.0,118.0
5085,52.0,0,64,1.0,118.0
5086,45.0,288,64,1.0,118.0
5087,61.0,0,64,0.0,125.0
5088,57.0,0,64,1.0,118.0
5089,64.0,0,64,0.0,125.0
5090,52.0,0,64,1.0,118.0
5091,59.0,0,64,1.0,118.0
5092,66.0,0,64,0.0,125.0
5093,62.0,96,64,0.0,125.0
5094,45.0,0,64,1.0,118.0
5095,45.0,0,64,1.0,118.0
5096,68.0,0,64,0.0,125.0
5097,62.0,0,64,0.0,125.0
5098,59.0,96,64,1.0,118.0
5099,52.0,0,64,1.0,118.0
5100,62.0,96,64,0.0,125.0
5101,69.0,0,64,0.0,125.0
5102,45.0,0,64,1.0,118.0
5103,52.0,0,64,1.0,118.0
5104,59.0,0,64,1.0,118.0
5105,62.0,96,64,0.0,125.0
5106,71.0,0,64,0.0,125.0
5107,52.0,0,64,1.0,118.0
5108,45.0,0,64,1.0,118.0
5109,59.0,0,64,1.0,118.0
5110,52.0,0,192,1.0,118.0
5111,57.0,0,192,1.0,118.0
5112,61.0,0,192,0.0,125.0
5113,73.0,0,192,0.0,125.0
5114,45.0,96,192,1.0,118.0
5115,45.0,0,64,1.0,118.0
5116,57.0,0,64,1.0,118.0
5117,61.0,288,64,0.0,125.0
5118,69.0,0,64,0.0,125.0
5119,52.0,0,64,1.0,118.0
5120,69.0,96,128,0.0,125.0
5121,61.0,0,128,0.0,125.0
5122,45.0,0,128,1.0,118.0
5123,52.0,0,128,1.0,118.0
5124,57.0,0,128,1.0,118.0
5125,44.0,0,64,1.0,118.0
5126,56.0,96,64,1.0,118.0
5127,45.0,96,64,1.0,118.0
5128,57.0,0,64,1.0,118.0
5129,47.0,96,64,1.0,118.0
5130,59.0,0,64,1.0,118.0
5131,61.0,0,64,0.0,125.0
5132,45.0,0,128,1.0,118.0
5133,57.0,96,128,1.0,118.0
5134,40.0,192,128,1.0,118.0
5135,52.0,0,128,1.0,118.0
5136,61.0,192,128,0.0,125.0
5137,33.0,0,128,1.0,118.0
5138,73.0,0,128,0.0,125.0
5139,45.0,0,128,1.0,118.0
5140,61.0,0,64,0.0,125.0
5141,69.0,288,64,0.0,125.0
5142,57.0,0,64,1.0,118.0
5143,52.0,0,64,1.0,118.0
5144,45.0,0,64,1.0,118.0
5145,69.0,0,128,0.0,125.0
5146,61.0,0,128,0.0,125.0
5147,45.0,0,128,1.0,118.0
5148,52.0,0,128,1.0,118.0
5149,57.0,96,128,1.0,118.0
5150,61.0,288,64,0.0,125.0
5151,45.0,0,64,1.0,118.0
5152,52.0,0,64,1.0,118.0
5153,57.0,0,64,1.0,118.0
5154,68.0,0,64,0.0,125.0
5155,52.0,0,64,1.0,118.0
5156,61.0,0,64,0.0,125.0
5157,69.0,96,64,0.0,125.0
5158,57.0,0,64,1.0,118.0
5159,45.0,0,64,1.0,118.0
5160,71.0,0,64,0.0,125.0
5161,61.0,0,64,0.0,125.0
5162,69.0,0,64,0.0,125.0
5163,57.0,96,64,1.0,118.0
5164,52.0,0,64,1.0,118.0
5165,45.0,0,64,1.0,118.0
5166,69.0,0,64,0.0,125.0
5167,73.0,96,64,0.0,125.0
5168,52.0,0,64,1.0,118.0
5169,45.0,0,64,1.0,118.0
5170,61.0,0,64,0.0,125.0
5171,57.0,0,64,1.0,118.0
5172,52.0,0,64,1.0,118.0
5173,62.0,0,64,0.0,125.0
5174,69.0,0,64,0.0,125.0
5175,74.0,0,64,0.0,125.0
5176,59.0,0,64,1.0,118.0
5177,45.0,96,64,1.0,118.0
5178,63.0,96,192,0.0,125.0
5179,78.0,0,192,0.0,125.0
5180,60.0,0,192,1.0,118.0
5181,54.0,0,192,1.0,118.0
5182,51.0,0,192,1.0,118.0
5183,45.0,0,192,1.0,118.0
5184,69.0,0,192,0.0,125.0
5185,61.0,288,64,1.0,118.0
5186,57.0,0,64,1.0,118.0
5187,76.0,0,64,0.0,125.0
5188,52.0,0,64,1.0,118.0
5189,69.0,0,64,0.0,125.0
5190,64.0,0,64,0.0,125.0
5191,64.0,96,128,0.0,125.0
5192,61.0,0,128,1.0,118.0
5193,57.0,0,128,1.0,118.0
5194,76.0,0,128,0.0,125.0
5195,52.0,0,128,1.0,118.0
5196,69.0,0,128,0.0,125.0
5197,44.0,0,64,1.0,118.0
5198,56.0,96,64,1.0,118.0
5199,57.0,96,64,1.0,118.0
5200,45.0,0,64,1.0,118.0
5201,59.0,0,64,1.0,118.0
5202,47.0,96,64,1.0,118.0
5203,45.0,96,128,1.0,118.0
5204,57.0,0,128,1.0,118.0
5205,52.0,192,128,1.0,118.0
5206,40.0,0,128,1.0,118.0
5207,73.0,0,32,0.0,125.0
5208,85.0,0,128,0.0,125.0
5209,77.0,0,128,0.0,125.0
5210,32.0,0,128,1.0,118.0
5211,44.0,0,128,1.0,118.0
5212,68.0,96,64,0.0,125.0
5213,80.0,0,64,0.0,125.0
5214,65.0,0,64,1.0,118.0
5215,56.0,0,64,1.0,118.0
5216,61.0,0,64,1.0,118.0
5217,53.0,0,64,1.0,118.0
5218,68.0,0,64,0.0,125.0
5219,71.0,0,64,0.0,125.0
5220,80.0,0,64,0.0,125.0
5221,61.0,0,64,1.0,118.0
5222,53.0,96,64,1.0,118.0
5223,56.0,0,64,1.0,118.0
5224,65.0,0,64,1.0,118.0
5225,53.0,96,64,1.0,118.0
5226,56.0,0,64,1.0,118.0
5227,61.0,0,64,1.0,118.0
5228,65.0,0,64,1.0,118.0
5229,71.0,0,64,0.0,125.0
5230,80.0,0,64,0.0,125.0
5231,68.0,0,64,0.0,125.0
5232,73.0,0,128,0.0,125.0
5233,80.0,96,128,0.0,125.0
5234,68.0,0,128,0.0,125.0
5235,61.0,0,128,1.0,118.0
5236,65.0,0,128,1.0,118.0
5237,56.0,0,128,1.0,118.0
5238,53.0,0,128,1.0,118.0
5239,80.0,0,128,0.0,125.0
5240,61.0,0,128,1.0,118.0
5241,53.0,192,128,1.0,118.0
5242,56.0,0,128,1.0,118.0
5243,68.0,0,128,0.0,125.0
5244,73.0,0,128,0.0,125.0
5245,65.0,0,128,1.0,118.0
5246,70.0,192,64,0.0,125.0
5247,75.0,0,64,0.0,125.0
5248,82.0,0,64,0.0,125.0
5249,63.0,0,128,1.0,118.0
5250,56.0,0,128,1.0,118.0
5251,60.0,0,128,1.0,118.0
5252,54.0,0,128,1.0,118.0
5253,84.0,0,64,0.0,125.0
5254,72.0,96,64,0.0,125.0
5255,73.0,0,64,0.0,125.0
5256,80.0,0,64,0.0,125.0
5257,85.0,0,64,0.0,125.0
5258,32.0,0,128,1.0,118.0
5259,44.0,96,128,1.0,118.0
5260,75.0,96,64,0.0,125.0
5261,87.0,0,64,0.0,125.0
5262,25.0,0,192,1.0,118.0
5263,85.0,96,192,0.0,125.0
5264,89.0,0,192,0.0,125.0
5265,77.0,0,192,0.0,125.0
5266,37.0,0,192,1.0,118.0
5267,49.0,0,64,1.0,118.0
5268,61.0,288,64,1.0,118.0
5269,73.0,0,64,0.0,125.0
5270,85.0,0,64,0.0,125.0
5271,85.0,0,128,0.0,125.0
5272,49.0,96,128,1.0,118.0
5273,61.0,0,128,1.0,118.0
5274,73.0,0,128,0.0,125.0
5275,49.0,0,64,1.0,118.0
5276,61.0,0,64,1.0,118.0
5277,73.0,0,64,0.0,125.0
5278,85.0,0,64,0.0,125.0
5279,73.0,0,64,0.0,125.0
5280,85.0,96,64,0.0,125.0
5281,49.0,0,64,1.0,118.0
5282,61.0,0,64,1.0,118.0
5283,38.0,192,192,1.0,118.0
5284,73.0,0,64,0.0,125.0
5285,85.0,0,64,0.0,125.0
5286,61.0,0,64,1.0,118.0
5287,49.0,96,64,1.0,118.0
5288,61.0,96,64,1.0,118.0
5289,49.0,0,64,1.0,118.0
5290,73.0,0,64,0.0,125.0
5291,85.0,0,64,0.0,125.0
5292,85.0,0,64,0.0,125.0
5293,49.0,96,64,1.0,118.0
5294,61.0,0,64,1.0,118.0
5295,73.0,0,64,0.0,125.0
5296,61.0,0,64,1.0,118.0
5297,85.0,0,64,0.0,125.0
5298,73.0,96,64,0.0,125.0
5299,49.0,0,64,1.0,118.0
5300,85.0,0,128,0.0,125.0
5301,49.0,96,128,1.0,118.0
5302,61.0,0,128,1.0,118.0
5303,73.0,0,128,0.0,125.0
5304,59.0,0,64,1.0,118.0
5305,71.0,0,64,0.0,125.0
5306,78.0,0,64,0.0,125.0
5307,83.0,96,64,0.0,125.0
5308,54.0,0,64,1.0,118.0
5309,50.0,0,64,1.0,118.0
5310,54.0,0,0,1.0,118.0
5311,50.0,0,0,1.0,118.0
5312,78.0,96,128,0.0,125.0
5313,57.0,0,128,1.0,118.0
5314,83.0,0,128,0.0,125.0
5315,71.0,0,128,0.0,125.0
5316,61.0,0,128,1.0,118.0
5317,52.0,0,128,1.0,118.0
5318,56.0,0,128,1.0,118.0
5319,73.0,0,128,0.0,125.0
5320,85.0,192,128,0.0,125.0
5321,76.0,0,128,0.0,125.0
5322,81.0,0,128,0.0,125.0
5323,88.0,0,128,0.0,125.0
5324,64.0,0,128,1.0,118.0
5325,74.0,0,64,0.0,125.0
5326,54.0,0,256,1.0,118.0
5327,57.0,192,256,1.0,118.0
5328,86.0,192,64,0.0,125.0
5329,62.0,0,128,1.0,118.0
5330,73.0,96,64,0.0,125.0
5331,85.0,0,64,0.0,125.0
5332,62.0,0,128,1.0,118.0
5333,83.0,0,128,0.0,125.0
5334,71.0,96,128,0.0,125.0
5335,52.0,0,128,1.0,118.0
5336,56.0,0,128,1.0,118.0
5337,71.0,0,96,0.0,125.0
5338,83.0,0,96,0.0,125.0
5339,76.0,0,96,0.0,125.0
5340,52.0,0,128,1.0,118.0
5341,56.0,192,128,1.0,118.0
5342,62.0,0,128,1.0,118.0
5343,64.0,0,128,1.0,118.0
5344,73.0,96,64,0.0,125.0
5345,85.0,0,64,0.0,125.0
5346,83.0,0,256,0.0,125.0
5347,76.0,0,256,0.0,125.0
5348,71.0,0,256,0.0,125.0
5349,64.0,0,256,1.0,118.0
5350,62.0,96,256,1.0,118.0
5351,56.0,0,256,1.0,118.0
5352,52.0,0,256,1.0,118.0
5353,69.0,0,128,0.0,125.0
5354,64.0,0,128,1.0,118.0
5355,61.0,0,128,1.0,118.0
5356,57.0,0,128,1.0,118.0
5357,81.0,384,128,0.0,125.0
