,note,step,duration,channel,velocity
0,61.0,120,360,0.0,0.0
1,57.0,40,80,0.0,0.0
2,73.0,40,60,0.0,0.0
3,49.0,20,80,0.0,0.0
4,68.0,60,60,0.0,0.0
5,54.0,0,80,0.0,0.0
6,71.0,60,60,0.0,0.0
7,69.0,60,60,0.0,0.0
8,42.0,0,240,0.0,0.0
9,66.0,0,60,0.0,0.0
10,62.0,0,120,0.0,0.0
11,74.0,80,60,0.0,0.0
12,57.0,40,80,0.0,0.0
13,61.0,0,360,0.0,0.0
14,73.0,40,60,0.0,0.0
15,49.0,20,80,0.0,0.0
16,68.0,60,60,0.0,0.0
17,54.0,0,80,0.0,0.0
18,71.0,60,60,0.0,0.0
19,45.0,0,240,0.0,0.0
20,69.0,60,60,0.0,0.0
21,68.0,120,60,0.0,0.0
22,78.0,0,60,0.0,0.0
23,62.0,40,80,0.0,0.0
24,66.0,80,0,0.0,0.0
25,78.0,40,60,0.0,0.0
26,56.0,20,80,0.0,0.0
27,70.0,60,60,0.0,0.0
28,59.0,0,80,0.0,0.0
29,73.0,60,60,0.0,0.0
30,71.0,60,60,0.0,0.0
31,50.0,0,240,0.0,0.0
32,68.0,120,60,0.0,0.0
33,65.0,0,120,0.0,0.0
34,77.0,80,60,0.0,0.0
35,61.0,40,80,0.0,0.0
36,69.0,120,360,0.0,0.0
37,81.0,40,60,0.0,0.0
38,53.0,20,80,0.0,0.0
39,72.0,60,60,0.0,0.0
40,59.0,0,80,0.0,0.0
41,74.0,60,60,0.0,0.0
42,73.0,60,60,0.0,0.0
43,49.0,0,240,0.0,0.0
44,71.0,0,60,0.0,0.0
45,68.0,80,120,0.0,0.0
46,80.0,0,60,0.0,0.0
47,57.0,40,80,0.0,0.0
48,61.0,120,360,0.0,0.0
49,73.0,40,60,0.0,0.0
50,49.0,20,80,0.0,0.0
51,68.0,60,60,0.0,0.0
52,54.0,60,80,0.0,0.0
53,71.0,0,60,0.0,0.0
54,69.0,60,60,0.0,0.0
55,42.0,0,240,0.0,0.0
56,66.0,0,60,0.0,0.0
57,62.0,80,120,0.0,0.0
58,74.0,0,60,0.0,0.0
59,61.0,120,360,0.0,0.0
60,57.0,40,80,0.0,0.0
61,73.0,40,60,0.0,0.0
62,49.0,20,80,0.0,0.0
63,68.0,60,60,0.0,0.0
64,54.0,0,80,0.0,0.0
65,71.0,60,60,0.0,0.0
66,45.0,80,240,0.0,0.0
67,69.0,60,60,0.0,0.0
68,68.0,0,60,0.0,0.0
69,78.0,0,60,0.0,0.0
70,66.0,0,0,0.0,0.0
71,62.0,40,80,0.0,0.0
72,78.0,40,60,0.0,0.0
73,56.0,20,80,0.0,0.0
74,70.0,60,60,0.0,0.0
75,59.0,60,80,0.0,0.0
76,73.0,0,60,0.0,0.0
77,50.0,0,240,0.0,0.0
78,71.0,60,60,0.0,0.0
79,68.0,120,60,0.0,0.0
80,65.0,80,120,0.0,0.0
81,77.0,0,60,0.0,0.0
82,61.0,40,80,0.0,0.0
83,69.0,0,360,0.0,0.0
84,81.0,40,60,0.0,0.0
85,53.0,20,80,0.0,0.0
86,72.0,60,60,0.0,0.0
87,59.0,60,80,0.0,0.0
88,74.0,0,60,0.0,0.0
89,73.0,60,60,0.0,0.0
90,49.0,0,240,0.0,0.0
91,71.0,120,60,0.0,0.0
92,68.0,80,120,0.0,0.0
93,80.0,0,60,0.0,0.0
94,69.0,40,80,0.0,0.0
95,73.0,0,360,0.0,0.0
96,85.0,40,60,0.0,0.0
97,63.0,20,80,0.0,0.0
98,80.0,60,60,0.0,0.0
99,66.0,60,80,0.0,0.0
100,83.0,0,60,0.0,0.0
101,81.0,60,60,0.0,0.0
102,57.0,80,240,0.0,0.0
103,78.0,120,60,0.0,0.0
104,75.0,0,120,0.0,0.0
105,87.0,0,60,0.0,0.0
106,73.0,120,360,0.0,0.0
107,68.0,40,80,0.0,0.0
108,85.0,40,60,0.0,0.0
109,63.0,20,80,0.0,0.0
110,77.0,60,60,0.0,0.0
111,66.0,0,80,0.0,0.0
112,80.0,60,60,0.0,0.0
113,56.0,0,240,0.0,0.0
114,78.0,60,60,0.0,0.0
115,74.0,0,60,0.0,0.0
116,72.0,80,120,0.0,0.0
117,84.0,0,60,0.0,0.0
118,71.0,0,360,0.0,0.0
119,67.0,40,80,0.0,0.0
120,83.0,40,60,0.0,0.0
121,61.0,20,80,0.0,0.0
122,78.0,60,60,0.0,0.0
123,64.0,60,80,0.0,0.0
124,81.0,0,60,0.0,0.0
125,55.0,80,240,0.0,0.0
126,79.0,60,60,0.0,0.0
127,76.0,120,60,0.0,0.0
128,73.0,0,120,0.0,0.0
129,85.0,0,60,0.0,0.0
130,71.0,0,360,0.0,0.0
131,66.0,40,80,0.0,0.0
132,83.0,40,60,0.0,0.0
133,61.0,20,80,0.0,0.0
134,75.0,60,60,0.0,0.0
135,64.0,60,80,0.0,0.0
136,78.0,0,60,0.0,0.0
137,76.0,60,60,0.0,0.0
138,54.0,0,240,0.0,0.0
139,73.0,120,60,0.0,0.0
140,70.0,80,120,0.0,0.0
141,82.0,0,60,0.0,0.0
142,69.0,0,360,0.0,0.0
143,65.0,40,80,0.0,0.0
144,81.0,40,60,0.0,0.0
145,60.0,20,80,0.0,0.0
146,74.0,60,60,0.0,0.0
147,63.0,60,80,0.0,0.0
148,77.0,0,60,0.0,0.0
149,75.0,60,60,0.0,0.0
150,53.0,0,240,0.0,0.0
151,72.0,120,60,0.0,0.0
152,71.0,0,120,0.0,0.0
153,83.0,80,60,0.0,0.0
154,65.0,40,80,0.0,0.0
155,69.0,0,360,0.0,0.0
156,81.0,40,60,0.0,0.0
157,59.0,20,80,0.0,0.0
158,73.0,60,60,0.0,0.0
159,62.0,60,80,0.0,0.0
160,76.0,0,60,0.0,0.0
161,53.0,0,240,0.0,0.0
162,74.0,60,60,0.0,0.0
163,71.0,120,60,0.0,0.0
164,68.0,0,120,0.0,0.0
165,80.0,80,60,0.0,0.0
166,62.0,40,80,0.0,0.0
167,66.0,0,360,0.0,0.0
168,78.0,40,60,0.0,0.0
169,56.0,20,80,0.0,0.0
170,70.0,60,60,0.0,0.0
171,59.0,0,80,0.0,0.0
172,73.0,60,60,0.0,0.0
173,50.0,80,240,0.0,0.0
174,71.0,60,60,0.0,0.0
175,68.0,120,60,0.0,0.0
176,65.0,0,120,0.0,0.0
177,77.0,0,60,0.0,0.0
178,59.0,40,80,0.0,0.0
179,62.0,120,360,0.0,0.0
180,74.0,40,60,0.0,0.0
181,49.0,20,80,0.0,0.0
182,67.0,60,60,0.0,0.0
183,53.0,60,80,0.0,0.0
184,69.0,0,60,0.0,0.0
185,68.0,60,60,0.0,0.0
186,37.0,0,240,0.0,0.0
187,65.0,0,60,0.0,0.0
188,73.0,80,60,0.0,0.0
189,61.0,0,0,0.0,0.0
190,57.0,40,80,0.0,0.0
191,73.0,40,60,0.0,0.0
192,49.0,20,80,0.0,0.0
193,68.0,60,60,0.0,0.0
194,54.0,0,80,0.0,0.0
195,71.0,60,60,0.0,0.0
196,42.0,0,240,0.0,0.0
197,69.0,60,60,0.0,0.0
198,66.0,120,60,0.0,0.0
199,62.0,0,120,0.0,0.0
200,74.0,80,60,0.0,0.0
201,57.0,40,80,0.0,0.0
202,61.0,120,360,0.0,0.0
203,73.0,40,60,0.0,0.0
204,49.0,20,80,0.0,0.0
205,68.0,60,60,0.0,0.0
206,54.0,60,80,0.0,0.0
207,71.0,0,60,0.0,0.0
208,45.0,80,240,0.0,0.0
209,69.0,60,60,0.0,0.0
210,68.0,0,60,0.0,0.0
211,66.0,0,120,0.0,0.0
212,78.0,0,60,0.0,0.0
213,66.0,120,360,0.0,0.0
214,62.0,40,80,0.0,0.0
215,78.0,40,60,0.0,0.0
216,56.0,20,80,0.0,0.0
217,70.0,60,60,0.0,0.0
218,59.0,0,80,0.0,0.0
219,73.0,60,60,0.0,0.0
220,50.0,0,240,0.0,0.0
221,71.0,60,60,0.0,0.0
222,68.0,0,60,0.0,0.0
223,65.0,0,120,0.0,0.0
224,77.0,80,60,0.0,0.0
225,69.0,120,360,0.0,0.0
226,61.0,40,80,0.0,0.0
227,81.0,40,60,0.0,0.0
228,53.0,20,80,0.0,0.0
229,72.0,60,60,0.0,0.0
230,59.0,60,80,0.0,0.0
231,74.0,0,60,0.0,0.0
232,73.0,60,60,0.0,0.0
233,49.0,0,240,0.0,0.0
234,71.0,0,60,0.0,0.0
235,68.0,0,120,0.0,0.0
236,80.0,80,60,0.0,0.0
237,61.0,120,360,0.0,0.0
238,57.0,40,80,0.0,0.0
239,73.0,40,60,0.0,0.0
240,49.0,20,80,0.0,0.0
241,68.0,60,60,0.0,0.0
242,54.0,60,80,0.0,0.0
243,71.0,0,60,0.0,0.0
244,69.0,60,60,0.0,0.0
245,42.0,0,240,0.0,0.0
246,66.0,0,60,0.0,0.0
247,62.0,80,120,0.0,0.0
248,74.0,0,60,0.0,0.0
249,57.0,40,80,0.0,0.0
250,61.0,120,360,0.0,0.0
251,73.0,40,60,0.0,0.0
252,49.0,20,80,0.0,0.0
253,68.0,60,60,0.0,0.0
254,54.0,60,80,0.0,0.0
255,71.0,0,60,0.0,0.0
256,69.0,60,60,0.0,0.0
257,45.0,80,240,0.0,0.0
258,68.0,0,60,0.0,0.0
259,66.0,0,120,0.0,0.0
260,81.0,0,60,0.0,0.0
261,69.0,0,360,0.0,0.0
262,65.0,40,80,0.0,0.0
263,81.0,40,60,0.0,0.0
264,59.0,20,80,0.0,0.0
265,73.0,60,60,0.0,0.0
266,62.0,60,80,0.0,0.0
267,76.0,0,60,0.0,0.0
268,74.0,60,60,0.0,0.0
269,53.0,0,240,0.0,0.0
270,71.0,120,60,0.0,0.0
271,68.0,80,120,0.0,0.0
272,80.0,0,60,0.0,0.0
273,64.0,40,80,0.0,0.0
274,73.0,0,360,0.0,0.0
275,85.0,40,60,0.0,0.0
276,56.0,20,80,0.0,0.0
277,75.0,60,60,0.0,0.0
278,62.0,60,80,0.0,0.0
279,78.0,0,60,0.0,0.0
280,52.0,80,240,0.0,0.0
281,76.0,60,60,0.0,0.0
282,74.0,120,60,0.0,0.0
283,71.0,0,120,0.0,0.0
284,83.0,0,60,0.0,0.0
285,76.0,0,360,0.0,0.0
286,72.0,40,80,0.0,0.0
287,88.0,40,60,0.0,0.0
288,66.0,20,80,0.0,0.0
289,83.0,60,60,0.0,0.0
290,69.0,60,80,0.0,0.0
291,86.0,0,60,0.0,0.0
292,60.0,0,240,0.0,0.0
293,84.0,60,60,0.0,0.0
294,81.0,120,60,0.0,0.0
295,78.0,0,120,0.0,0.0
296,90.0,80,60,0.0,0.0
297,76.0,0,360,0.0,0.0
298,71.0,40,80,0.0,0.0
299,88.0,40,60,0.0,0.0
300,66.0,20,80,0.0,0.0
301,80.0,60,60,0.0,0.0
302,69.0,0,80,0.0,0.0
303,83.0,60,60,0.0,0.0
304,59.0,80,240,0.0,0.0
305,81.0,60,60,0.0,0.0
306,78.0,120,60,0.0,0.0
307,75.0,0,120,0.0,0.0
308,87.0,0,60,0.0,0.0
309,74.0,120,360,0.0,0.0
310,70.0,40,80,0.0,0.0
311,86.0,40,60,0.0,0.0
312,65.0,20,80,0.0,0.0
313,79.0,60,60,0.0,0.0
314,68.0,60,80,0.0,0.0
315,82.0,0,60,0.0,0.0
316,58.0,0,240,0.0,0.0
317,80.0,60,60,0.0,0.0
318,77.0,0,60,0.0,0.0
319,76.0,80,120,0.0,0.0
320,88.0,0,60,0.0,0.0
321,74.0,120,360,0.0,0.0
322,69.0,40,80,0.0,0.0
323,86.0,40,60,0.0,0.0
324,64.0,20,80,0.0,0.0
325,78.0,60,60,0.0,0.0
326,67.0,60,80,0.0,0.0
327,81.0,0,60,0.0,0.0
328,79.0,60,60,0.0,0.0
329,57.0,80,240,0.0,0.0
330,76.0,0,60,0.0,0.0
331,73.0,0,120,0.0,0.0
332,85.0,0,60,0.0,0.0
333,72.0,120,360,0.0,0.0
334,68.0,40,80,0.0,0.0
335,84.0,40,60,0.0,0.0
336,63.0,20,80,0.0,0.0
337,77.0,60,60,0.0,0.0
338,66.0,60,80,0.0,0.0
339,80.0,0,60,0.0,0.0
340,56.0,0,240,0.0,0.0
341,78.0,60,60,0.0,0.0
342,75.0,0,60,0.0,0.0
343,74.0,0,120,0.0,0.0
344,86.0,60,60,0.0,0.0
345,67.0,40,80,0.0,0.0
346,72.0,20,60,0.0,0.0
347,84.0,40,60,0.0,0.0
348,62.0,20,80,0.0,0.0
349,76.0,60,60,0.0,0.0
350,65.0,0,80,0.0,0.0
351,79.0,60,60,0.0,0.0
352,55.0,0,240,0.0,0.0
353,77.0,60,60,0.0,0.0
354,74.0,0,60,0.0,0.0
355,71.0,60,60,0.0,0.0
356,83.0,80,60,0.0,0.0
357,71.0,0,360,0.0,0.0
358,67.0,40,80,0.0,0.0
359,83.0,40,60,0.0,0.0
360,61.0,20,80,0.0,0.0
361,75.0,60,60,0.0,0.0
362,64.0,60,80,0.0,0.0
363,78.0,0,60,0.0,0.0
364,76.0,60,60,0.0,0.0
365,55.0,80,240,0.0,0.0
366,73.0,120,60,0.0,0.0
367,82.0,0,60,0.0,0.0
368,70.0,0,0,0.0,0.0
369,66.0,40,80,0.0,0.0
370,82.0,40,60,0.0,0.0
371,61.0,20,80,0.0,0.0
372,75.0,60,60,0.0,0.0
373,64.0,0,80,0.0,0.0
374,78.0,60,60,0.0,0.0
375,54.0,80,240,0.0,0.0
376,76.0,60,60,0.0,0.0
377,73.0,120,60,0.0,0.0
378,82.0,0,60,0.0,0.0
379,70.0,0,0,0.0,0.0
380,65.0,40,80,0.0,0.0
381,83.0,40,60,0.0,0.0
382,58.0,20,80,0.0,0.0
383,76.0,60,60,0.0,0.0
384,62.0,60,80,0.0,0.0
385,79.0,0,60,0.0,0.0
386,77.0,60,60,0.0,0.0
387,53.0,0,240,0.0,0.0
388,74.0,120,60,0.0,0.0
389,69.0,0,120,0.0,0.0
390,81.0,80,60,0.0,0.0
391,69.0,120,360,0.0,0.0
392,65.0,40,80,0.0,0.0
393,81.0,40,60,0.0,0.0
394,59.0,20,80,0.0,0.0
395,73.0,60,60,0.0,0.0
396,62.0,0,80,0.0,0.0
397,76.0,60,60,0.0,0.0
398,53.0,80,240,0.0,0.0
399,74.0,60,60,0.0,0.0
400,71.0,0,60,0.0,0.0
401,68.0,0,120,0.0,0.0
402,80.0,0,60,0.0,0.0
403,68.0,120,360,0.0,0.0
404,65.0,40,80,0.0,0.0
405,80.0,40,60,0.0,0.0
406,55.0,20,80,0.0,0.0
407,73.0,60,60,0.0,0.0
408,59.0,60,80,0.0,0.0
409,75.0,0,60,0.0,0.0
410,53.0,80,240,0.0,0.0
411,74.0,60,60,0.0,0.0
412,71.0,0,60,0.0,0.0
413,79.0,0,60,0.0,0.0
414,67.0,0,0,0.0,0.0
415,63.0,40,80,0.0,0.0
416,79.0,40,60,0.0,0.0
417,55.0,20,80,0.0,0.0
418,74.0,60,60,0.0,0.0
419,60.0,0,80,0.0,0.0
420,76.0,60,60,0.0,0.0
421,53.0,0,240,0.0,0.0
422,75.0,60,60,0.0,0.0
423,74.0,120,60,0.0,0.0
424,72.0,80,120,0.0,0.0
425,84.0,0,60,0.0,0.0
426,67.0,40,80,0.0,0.0
427,72.0,0,360,0.0,0.0
428,84.0,40,60,0.0,0.0
429,60.0,20,80,0.0,0.0
430,78.0,60,60,0.0,0.0
431,63.0,60,80,0.0,0.0
432,80.0,0,60,0.0,0.0
433,79.0,60,60,0.0,0.0
434,53.0,0,240,0.0,0.0
435,75.0,120,60,0.0,0.0
436,83.0,0,60,0.0,0.0
437,67.0,40,80,0.0,0.0
438,71.0,80,0,0.0,0.0
439,83.0,40,60,0.0,0.0
440,61.0,20,80,0.0,0.0
441,75.0,60,60,0.0,0.0
442,64.0,0,80,0.0,0.0
443,78.0,60,60,0.0,0.0
444,53.0,0,240,0.0,0.0
445,76.0,60,60,0.0,0.0
446,73.0,0,60,0.0,0.0
447,70.0,80,120,0.0,0.0
448,82.0,0,60,0.0,0.0
449,67.0,40,80,0.0,0.0
450,70.0,0,360,0.0,0.0
451,82.0,40,60,0.0,0.0
452,57.0,20,80,0.0,0.0
453,75.0,60,60,0.0,0.0
454,61.0,0,80,0.0,0.0
455,77.0,60,60,0.0,0.0
456,53.0,0,240,0.0,0.0
457,76.0,60,60,0.0,0.0
458,73.0,120,60,0.0,0.0
459,81.0,80,60,0.0,0.0
460,69.0,0,0,0.0,0.0
461,65.0,40,80,0.0,0.0
462,81.0,40,60,0.0,0.0
463,57.0,20,80,0.0,0.0
464,76.0,60,60,0.0,0.0
465,62.0,0,80,0.0,0.0
466,79.0,60,60,0.0,0.0
467,53.0,0,240,0.0,0.0
468,77.0,60,60,0.0,0.0
469,76.0,120,60,0.0,0.0
470,86.0,80,60,0.0,0.0
471,74.0,0,0,0.0,0.0
472,65.0,40,80,0.0,0.0
473,86.0,40,60,0.0,0.0
474,57.0,20,80,0.0,0.0
475,76.0,60,60,0.0,0.0
476,63.0,60,80,0.0,0.0
477,79.0,0,60,0.0,0.0
478,77.0,60,60,0.0,0.0
479,53.0,0,240,0.0,0.0
480,75.0,120,60,0.0,0.0
481,84.0,80,60,0.0,0.0
482,72.0,0,0,0.0,0.0
483,62.0,40,80,0.0,0.0
484,84.0,40,60,0.0,0.0
485,53.0,20,80,0.0,0.0
486,76.0,60,60,0.0,0.0
487,58.0,0,80,0.0,0.0
488,79.0,60,60,0.0,0.0
489,46.0,0,240,0.0,0.0
490,77.0,60,60,0.0,0.0
491,74.0,120,60,0.0,0.0
492,70.0,80,120,0.0,0.0
493,82.0,0,60,0.0,0.0
494,62.0,40,80,0.0,0.0
495,70.0,0,360,0.0,0.0
496,82.0,40,60,0.0,0.0
497,54.0,20,80,0.0,0.0
498,73.0,60,60,0.0,0.0
499,60.0,60,80,0.0,0.0
500,75.0,0,60,0.0,0.0
501,50.0,80,240,0.0,0.0
502,74.0,60,60,0.0,0.0
503,72.0,120,60,0.0,0.0
504,81.0,0,60,0.0,0.0
505,69.0,0,0,0.0,0.0
506,58.0,40,80,0.0,0.0
507,81.0,40,60,0.0,0.0
508,50.0,20,80,0.0,0.0
509,73.0,60,60,0.0,0.0
510,55.0,60,80,0.0,0.0
511,75.0,0,60,0.0,0.0
512,43.0,0,240,0.0,0.0
513,74.0,60,60,0.0,0.0
514,71.0,120,60,0.0,0.0
515,67.0,0,120,0.0,0.0
516,79.0,80,60,0.0,0.0
517,67.0,0,360,0.0,0.0
518,58.0,40,80,0.0,0.0
519,79.0,40,60,0.0,0.0
520,50.0,20,80,0.0,0.0
521,69.0,60,60,0.0,0.0
522,56.0,60,80,0.0,0.0
523,72.0,0,60,0.0,0.0
524,70.0,60,60,0.0,0.0
525,46.0,80,240,0.0,0.0
526,68.0,120,60,0.0,0.0
527,65.0,0,120,0.0,0.0
528,77.0,0,60,0.0,0.0
529,64.0,0,360,0.0,0.0
530,58.0,40,80,0.0,0.0
531,76.0,40,60,0.0,0.0
532,50.0,20,80,0.0,0.0
533,69.0,60,60,0.0,0.0
534,56.0,0,80,0.0,0.0
535,72.0,60,60,0.0,0.0
536,46.0,0,240,0.0,0.0
537,70.0,60,60,0.0,0.0
538,68.0,120,60,0.0,0.0
539,65.0,0,120,0.0,0.0
540,77.0,80,60,0.0,0.0
541,56.0,40,80,0.0,0.0
542,65.0,0,360,0.0,0.0
543,77.0,40,60,0.0,0.0
544,46.0,20,80,0.0,0.0
545,69.0,60,60,0.0,0.0
546,50.0,60,80,0.0,0.0
547,71.0,0,60,0.0,0.0
548,70.0,60,60,0.0,0.0
549,39.0,0,240,0.0,0.0
550,68.0,120,60,0.0,0.0
551,65.0,0,120,0.0,0.0
552,77.0,80,60,0.0,0.0
553,54.0,40,80,0.0,0.0
554,78.0,40,60,0.0,0.0
555,46.0,20,80,0.0,0.0
556,74.0,60,60,0.0,0.0
557,51.0,60,80,0.0,0.0
558,77.0,0,60,0.0,0.0
559,75.0,60,60,0.0,0.0
560,39.0,80,240,0.0,0.0
561,70.0,0,60,0.0,0.0
562,66.0,120,0,0.0,0.0
563,78.0,0,60,0.0,0.0
564,56.0,40,80,0.0,0.0
565,78.0,40,60,0.0,0.0
566,44.0,20,80,0.0,0.0
567,67.0,60,60,0.0,0.0
568,49.0,60,80,0.0,0.0
569,70.0,0,60,0.0,0.0
570,40.0,80,240,0.0,0.0
571,68.0,60,60,0.0,0.0
572,66.0,0,60,0.0,0.0
573,64.0,0,120,0.0,0.0
574,76.0,0,60,0.0,0.0
575,56.0,40,80,0.0,0.0
576,76.0,40,60,0.0,0.0
577,44.0,20,80,0.0,0.0
578,67.0,60,60,0.0,0.0
579,49.0,60,80,0.0,0.0
580,70.0,0,60,0.0,0.0
581,68.0,60,60,0.0,0.0
582,40.0,0,240,0.0,0.0
583,64.0,0,60,0.0,0.0
584,56.0,0,120,0.0,0.0
585,68.0,80,60,0.0,0.0
586,59.0,120,360,0.0,0.0
587,54.0,40,80,0.0,0.0
588,71.0,40,60,0.0,0.0
589,47.0,20,80,0.0,0.0
590,65.0,60,60,0.0,0.0
591,51.0,60,80,0.0,0.0
592,68.0,0,60,0.0,0.0
593,42.0,80,240,0.0,0.0
594,66.0,60,60,0.0,0.0
595,63.0,0,60,0.0,0.0
596,59.0,0,120,0.0,0.0
597,71.0,0,60,0.0,0.0
598,54.0,40,80,0.0,0.0
599,58.0,0,360,0.0,0.0
600,70.0,40,60,0.0,0.0
601,47.0,20,80,0.0,0.0
602,64.0,60,60,0.0,0.0
603,51.0,60,80,0.0,0.0
604,68.0,0,60,0.0,0.0
605,66.0,60,60,0.0,0.0
606,42.0,80,240,0.0,0.0
607,63.0,120,60,0.0,0.0
608,59.0,0,120,0.0,0.0
609,71.0,0,60,0.0,0.0
610,54.0,40,80,0.0,0.0
611,60.0,0,360,0.0,0.0
612,72.0,40,60,0.0,0.0
613,46.0,20,80,0.0,0.0
614,65.0,60,60,0.0,0.0
615,52.0,60,80,0.0,0.0
616,68.0,0,60,0.0,0.0
617,66.0,60,60,0.0,0.0
618,42.0,0,240,0.0,0.0
619,64.0,120,60,0.0,0.0
620,60.0,0,120,0.0,0.0
621,72.0,80,60,0.0,0.0
622,54.0,40,80,0.0,0.0
623,61.0,0,360,0.0,0.0
624,73.0,40,60,0.0,0.0
625,46.0,20,80,0.0,0.0
626,65.0,60,60,0.0,0.0
627,52.0,0,80,0.0,0.0
628,68.0,60,60,0.0,0.0
629,66.0,60,60,0.0,0.0
630,42.0,0,240,0.0,0.0
631,64.0,120,60,0.0,0.0
632,62.0,0,120,0.0,0.0
633,74.0,80,60,0.0,0.0
634,52.0,40,80,0.0,0.0
635,62.0,120,360,0.0,0.0
636,74.0,40,60,0.0,0.0
637,42.0,20,80,0.0,0.0
638,65.0,60,60,0.0,0.0
639,46.0,60,80,0.0,0.0
640,68.0,0,60,0.0,0.0
641,66.0,60,60,0.0,0.0
642,35.0,80,240,0.0,0.0
643,64.0,0,60,0.0,0.0
644,62.0,0,120,0.0,0.0
645,74.0,0,60,0.0,0.0
646,51.0,40,80,0.0,0.0
647,75.0,40,60,0.0,0.0
648,42.0,20,80,0.0,0.0
649,70.0,60,60,0.0,0.0
650,47.0,0,80,0.0,0.0
651,73.0,60,60,0.0,0.0
652,35.0,80,240,0.0,0.0
653,71.0,60,60,0.0,0.0
654,66.0,0,60,0.0,0.0
655,63.0,120,0,0.0,0.0
656,75.0,0,60,0.0,0.0
657,56.0,40,80,0.0,0.0
658,75.0,40,60,0.0,0.0
659,47.0,20,80,0.0,0.0
660,68.0,60,60,0.0,0.0
661,51.0,60,80,0.0,0.0
662,73.0,0,60,0.0,0.0
663,41.0,0,240,0.0,0.0
664,71.0,60,60,0.0,0.0
665,68.0,0,60,0.0,0.0
666,63.0,120,0,0.0,0.0
667,75.0,0,60,0.0,0.0
668,62.0,120,360,0.0,0.0
669,56.0,40,80,0.0,0.0
670,74.0,40,60,0.0,0.0
671,47.0,20,80,0.0,0.0
672,68.0,60,60,0.0,0.0
673,51.0,0,80,0.0,0.0
674,73.0,60,60,0.0,0.0
675,41.0,80,240,0.0,0.0
676,71.0,60,60,0.0,0.0
677,68.0,0,60,0.0,0.0
678,63.0,0,120,0.0,0.0
679,75.0,0,60,0.0,0.0
680,65.0,0,360,0.0,0.0
681,62.0,40,80,0.0,0.0
682,77.0,40,60,0.0,0.0
683,53.0,20,80,0.0,0.0
684,70.0,60,60,0.0,0.0
685,58.0,0,80,0.0,0.0
686,75.0,60,60,0.0,0.0
687,46.0,0,240,0.0,0.0
688,74.0,60,60,0.0,0.0
689,70.0,120,60,0.0,0.0
690,65.0,0,120,0.0,0.0
691,77.0,80,60,0.0,0.0
692,62.0,40,80,0.0,0.0
693,66.0,120,360,0.0,0.0
694,78.0,40,60,0.0,0.0
695,53.0,20,80,0.0,0.0
696,70.0,60,60,0.0,0.0
697,58.0,60,80,0.0,0.0
698,75.0,0,60,0.0,0.0
699,74.0,60,60,0.0,0.0
700,46.0,0,240,0.0,0.0
701,70.0,0,60,0.0,0.0
702,65.0,0,120,0.0,0.0
703,77.0,80,60,0.0,0.0
704,56.0,40,80,0.0,0.0
705,63.0,0,360,0.0,0.0
706,75.0,40,60,0.0,0.0
707,47.0,20,80,0.0,0.0
708,68.0,60,60,0.0,0.0
709,51.0,60,80,0.0,0.0
710,73.0,0,60,0.0,0.0
711,41.0,80,240,0.0,0.0
712,71.0,60,60,0.0,0.0
713,68.0,120,60,0.0,0.0
714,63.0,0,120,0.0,0.0
715,75.0,0,60,0.0,0.0
716,56.0,40,80,0.0,0.0
717,62.0,0,360,0.0,0.0
718,74.0,40,60,0.0,0.0
719,47.0,20,80,0.0,0.0
720,68.0,60,60,0.0,0.0
721,51.0,60,80,0.0,0.0
722,73.0,0,60,0.0,0.0
723,41.0,0,240,0.0,0.0
724,71.0,60,60,0.0,0.0
725,68.0,120,60,0.0,0.0
726,63.0,0,120,0.0,0.0
727,75.0,80,60,0.0,0.0
728,62.0,40,80,0.0,0.0
729,65.0,120,360,0.0,0.0
730,77.0,40,60,0.0,0.0
731,53.0,20,80,0.0,0.0
732,70.0,60,60,0.0,0.0
733,58.0,0,80,0.0,0.0
734,75.0,60,60,0.0,0.0
735,46.0,80,240,0.0,0.0
736,74.0,60,60,0.0,0.0
737,70.0,0,60,0.0,0.0
738,65.0,0,120,0.0,0.0
739,77.0,0,60,0.0,0.0
740,62.0,40,80,0.0,0.0
741,82.0,40,60,0.0,0.0
742,53.0,20,80,0.0,0.0
743,76.0,60,60,0.0,0.0
744,58.0,0,80,0.0,0.0
745,78.0,60,60,0.0,0.0
746,46.0,80,240,0.0,0.0
747,77.0,60,60,0.0,0.0
748,74.0,0,60,0.0,0.0
749,70.0,120,0,0.0,0.0
750,82.0,0,60,0.0,0.0
751,56.0,40,80,0.0,0.0
752,63.0,120,360,0.0,0.0
753,75.0,40,60,0.0,0.0
754,47.0,20,80,0.0,0.0
755,68.0,60,60,0.0,0.0
756,51.0,60,80,0.0,0.0
757,73.0,0,60,0.0,0.0
758,71.0,60,60,0.0,0.0
759,41.0,0,240,0.0,0.0
760,68.0,0,60,0.0,0.0
761,63.0,0,120,0.0,0.0
762,75.0,80,60,0.0,0.0
763,56.0,40,80,0.0,0.0
764,62.0,0,360,0.0,0.0
765,74.0,40,60,0.0,0.0
766,47.0,20,80,0.0,0.0
767,68.0,60,60,0.0,0.0
768,51.0,0,80,0.0,0.0
769,73.0,60,60,0.0,0.0
770,41.0,0,240,0.0,0.0
771,71.0,60,60,0.0,0.0
772,68.0,120,60,0.0,0.0
773,63.0,80,120,0.0,0.0
774,75.0,0,60,0.0,0.0
775,62.0,40,80,0.0,0.0
776,65.0,120,360,0.0,0.0
777,77.0,40,60,0.0,0.0
778,53.0,20,80,0.0,0.0
779,70.0,60,60,0.0,0.0
780,58.0,60,80,0.0,0.0
781,75.0,0,60,0.0,0.0
782,74.0,60,60,0.0,0.0
783,46.0,0,240,0.0,0.0
784,70.0,0,60,0.0,0.0
785,65.0,80,120,0.0,0.0
786,77.0,0,60,0.0,0.0
787,62.0,40,80,0.0,0.0
788,66.0,120,360,0.0,0.0
789,78.0,40,60,0.0,0.0
790,53.0,20,80,0.0,0.0
791,70.0,60,60,0.0,0.0
792,58.0,60,80,0.0,0.0
793,75.0,0,60,0.0,0.0
794,74.0,60,60,0.0,0.0
795,46.0,0,240,0.0,0.0
796,70.0,0,60,0.0,0.0
797,65.0,0,120,0.0,0.0
798,77.0,80,60,0.0,0.0
799,56.0,40,80,0.0,0.0
800,75.0,40,60,0.0,0.0
801,47.0,20,80,0.0,0.0
802,68.0,60,60,0.0,0.0
803,51.0,60,80,0.0,0.0
804,73.0,0,60,0.0,0.0
805,71.0,60,60,0.0,0.0
806,41.0,0,240,0.0,0.0
807,68.0,0,60,0.0,0.0
808,63.0,120,0,0.0,0.0
809,75.0,0,60,0.0,0.0
810,56.0,40,80,0.0,0.0
811,62.0,120,360,0.0,0.0
812,74.0,40,60,0.0,0.0
813,47.0,20,80,0.0,0.0
814,68.0,60,60,0.0,0.0
815,51.0,0,80,0.0,0.0
816,73.0,60,60,0.0,0.0
817,41.0,0,240,0.0,0.0
818,71.0,60,60,0.0,0.0
819,68.0,0,60,0.0,0.0
820,63.0,0,120,0.0,0.0
821,75.0,80,60,0.0,0.0
822,62.0,40,80,0.0,0.0
823,65.0,0,360,0.0,0.0
824,77.0,40,60,0.0,0.0
825,53.0,20,80,0.0,0.0
826,70.0,60,60,0.0,0.0
827,58.0,60,80,0.0,0.0
828,75.0,0,60,0.0,0.0
829,46.0,0,240,0.0,0.0
830,74.0,60,60,0.0,0.0
831,70.0,120,60,0.0,0.0
832,77.0,0,60,0.0,0.0
833,59.0,40,80,0.0,0.0
834,65.0,80,0,0.0,0.0
835,77.0,40,60,0.0,0.0
836,49.0,20,80,0.0,0.0
837,72.0,60,60,0.0,0.0
838,53.0,60,80,0.0,0.0
839,74.0,0,60,0.0,0.0
840,44.0,0,240,0.0,0.0
841,73.0,60,60,0.0,0.0
842,71.0,120,60,0.0,0.0
843,61.0,80,120,0.0,0.0
844,73.0,0,60,0.0,0.0
845,57.0,40,80,0.0,0.0
846,61.0,0,360,0.0,0.0
847,73.0,40,60,0.0,0.0
848,49.0,20,80,0.0,0.0
849,68.0,60,60,0.0,0.0
850,54.0,60,80,0.0,0.0
851,71.0,0,60,0.0,0.0
852,42.0,0,240,0.0,0.0
853,69.0,60,60,0.0,0.0
854,66.0,120,60,0.0,0.0
855,62.0,0,120,0.0,0.0
856,74.0,80,60,0.0,0.0
857,61.0,120,360,0.0,0.0
858,57.0,40,80,0.0,0.0
859,73.0,40,60,0.0,0.0
860,49.0,20,80,0.0,0.0
861,68.0,60,60,0.0,0.0
862,54.0,60,80,0.0,0.0
863,71.0,0,60,0.0,0.0
864,69.0,60,60,0.0,0.0
865,45.0,0,240,0.0,0.0
866,68.0,0,60,0.0,0.0
867,78.0,80,60,0.0,0.0
868,66.0,0,0,0.0,0.0
869,62.0,40,80,0.0,0.0
870,78.0,40,60,0.0,0.0
871,56.0,20,80,0.0,0.0
872,70.0,60,60,0.0,0.0
873,59.0,60,80,0.0,0.0
874,73.0,0,60,0.0,0.0
875,71.0,60,60,0.0,0.0
876,54.0,0,240,0.0,0.0
877,68.0,0,60,0.0,0.0
878,65.0,0,120,0.0,0.0
879,77.0,80,60,0.0,0.0
880,61.0,40,80,0.0,0.0
881,69.0,120,360,0.0,0.0
882,81.0,40,60,0.0,0.0
883,53.0,20,80,0.0,0.0
884,72.0,60,60,0.0,0.0
885,59.0,60,80,0.0,0.0
886,74.0,0,60,0.0,0.0
887,73.0,60,60,0.0,0.0
888,49.0,0,240,0.0,0.0
889,71.0,0,60,0.0,0.0
890,68.0,0,120,0.0,0.0
891,80.0,80,60,0.0,0.0
892,57.0,40,80,0.0,0.0
893,61.0,0,360,0.0,0.0
894,73.0,40,60,0.0,0.0
895,49.0,20,80,0.0,0.0
896,68.0,60,60,0.0,0.0
897,54.0,60,80,0.0,0.0
898,71.0,0,60,0.0,0.0
899,42.0,0,240,0.0,0.0
900,69.0,60,60,0.0,0.0
901,66.0,120,60,0.0,0.0
902,62.0,80,120,0.0,0.0
903,74.0,0,60,0.0,0.0
904,57.0,40,80,0.0,0.0
905,61.0,0,360,0.0,0.0
906,73.0,40,60,0.0,0.0
907,49.0,20,80,0.0,0.0
908,68.0,60,60,0.0,0.0
909,54.0,60,80,0.0,0.0
910,71.0,0,60,0.0,0.0
911,69.0,60,60,0.0,0.0
912,45.0,80,240,0.0,0.0
913,68.0,120,60,0.0,0.0
914,66.0,0,120,0.0,0.0
915,81.0,0,60,0.0,0.0
916,69.0,120,360,0.0,0.0
917,65.0,40,80,0.0,0.0
918,81.0,40,60,0.0,0.0
919,59.0,20,80,0.0,0.0
920,73.0,60,60,0.0,0.0
921,62.0,0,80,0.0,0.0
922,76.0,60,60,0.0,0.0
923,74.0,60,60,0.0,0.0
924,53.0,80,240,0.0,0.0
925,71.0,0,60,0.0,0.0
926,68.0,0,120,0.0,0.0
927,80.0,0,60,0.0,0.0
928,73.0,120,360,0.0,0.0
929,64.0,40,80,0.0,0.0
930,85.0,40,60,0.0,0.0
931,56.0,20,80,0.0,0.0
932,75.0,60,60,0.0,0.0
933,62.0,0,80,0.0,0.0
934,78.0,60,60,0.0,0.0
935,52.0,0,240,0.0,0.0
936,76.0,60,60,0.0,0.0
937,74.0,0,60,0.0,0.0
938,83.0,80,60,0.0,0.0
939,67.0,40,80,0.0,0.0
940,71.0,0,0,0.0,0.0
941,83.0,40,60,0.0,0.0
942,61.0,20,80,0.0,0.0
943,75.0,60,60,0.0,0.0
944,64.0,60,80,0.0,0.0
945,78.0,0,60,0.0,0.0
946,55.0,0,240,0.0,0.0
947,76.0,60,60,0.0,0.0
948,73.0,0,60,0.0,0.0
949,70.0,80,120,0.0,0.0
950,82.0,0,60,0.0,0.0
951,66.0,40,80,0.0,0.0
952,74.0,0,360,0.0,0.0
953,86.0,40,60,0.0,0.0
954,58.0,20,80,0.0,0.0
955,77.0,60,60,0.0,0.0
956,64.0,60,80,0.0,0.0
957,79.0,0,60,0.0,0.0
958,54.0,0,240,0.0,0.0
959,78.0,60,60,0.0,0.0
960,76.0,120,60,0.0,0.0
961,73.0,0,120,0.0,0.0
962,85.0,80,60,0.0,0.0
963,73.0,120,360,0.0,0.0
964,69.0,40,80,0.0,0.0
965,85.0,40,60,0.0,0.0
966,63.0,20,80,0.0,0.0
967,77.0,60,60,0.0,0.0
968,66.0,0,80,0.0,0.0
969,80.0,60,60,0.0,0.0
970,78.0,60,60,0.0,0.0
971,57.0,0,240,0.0,0.0
972,75.0,0,60,0.0,0.0
973,84.0,0,60,0.0,0.0
974,77.0,120,360,0.0,0.0
975,72.0,80,0,0.0,0.0
976,89.0,40,60,0.0,0.0
977,66.0,20,80,0.0,0.0
978,80.0,60,60,0.0,0.0
979,69.0,0,80,0.0,0.0
980,83.0,60,60,0.0,0.0
981,81.0,60,60,0.0,0.0
982,60.0,80,240,0.0,0.0
983,80.0,0,60,0.0,0.0
984,78.0,0,120,0.0,0.0
985,90.0,0,60,0.0,0.0
986,78.0,40,80,0.0,0.0
987,80.0,0,360,0.0,0.0
988,92.0,40,60,0.0,0.0
989,69.0,20,80,0.0,0.0
990,86.0,60,60,0.0,0.0
991,72.0,60,80,0.0,0.0
992,89.0,0,60,0.0,0.0
993,63.0,0,240,0.0,0.0
994,87.0,60,60,0.0,0.0
995,84.0,120,60,0.0,0.0
996,81.0,0,120,0.0,0.0
997,93.0,80,60,0.0,0.0
998,80.0,120,360,0.0,0.0
999,78.0,40,80,0.0,0.0
1000,92.0,40,60,0.0,0.0
1001,69.0,20,80,0.0,0.0
1002,86.0,60,60,0.0,0.0
1003,72.0,60,80,0.0,0.0
1004,89.0,0,60,0.0,0.0
1005,87.0,60,60,0.0,0.0
1006,63.0,0,240,0.0,0.0
1007,84.0,0,60,0.0,0.0
1008,81.0,80,120,0.0,0.0
1009,93.0,0,60,0.0,0.0
1010,80.0,0,360,0.0,0.0
1011,78.0,40,80,0.0,0.0
1012,92.0,40,60,0.0,0.0
1013,69.0,20,80,0.0,0.0
1014,85.0,60,60,0.0,0.0
1015,72.0,60,80,0.0,0.0
1016,88.0,0,60,0.0,0.0
1017,62.0,80,240,0.0,0.0
1018,86.0,60,60,0.0,0.0
1019,84.0,120,60,0.0,0.0
1020,81.0,0,120,0.0,0.0
1021,93.0,0,60,0.0,0.0
1022,78.0,40,80,0.0,0.0
1023,80.0,0,360,0.0,0.0
1024,92.0,40,60,0.0,0.0
1025,69.0,20,80,0.0,0.0
1026,85.0,60,60,0.0,0.0
1027,72.0,60,80,0.0,0.0
1028,88.0,0,60,0.0,0.0
1029,62.0,0,240,0.0,0.0
1030,86.0,60,60,0.0,0.0
1031,84.0,120,60,0.0,0.0
1032,81.0,0,120,0.0,0.0
1033,93.0,80,60,0.0,0.0
1034,78.0,40,80,0.0,0.0
1035,93.0,40,60,0.0,0.0
1036,69.0,20,80,0.0,0.0
1037,89.0,60,60,0.0,0.0
1038,73.0,0,80,0.0,0.0
1039,92.0,60,60,0.0,0.0
1040,90.0,60,60,0.0,0.0
1041,61.0,80,240,0.0,0.0
1042,85.0,120,60,0.0,0.0
1043,81.0,0,0,0.0,0.0
1044,93.0,0,60,0.0,0.0
1045,80.0,120,360,0.0,0.0
1046,76.0,40,80,0.0,0.0
1047,92.0,40,60,0.0,0.0
1048,68.0,20,80,0.0,0.0
1049,87.0,60,60,0.0,0.0
1050,73.0,60,80,0.0,0.0
1051,90.0,0,60,0.0,0.0
1052,88.0,60,60,0.0,0.0
1053,61.0,80,240,0.0,0.0
1054,85.0,0,60,0.0,0.0
1055,80.0,0,120,0.0,0.0
1056,92.0,0,60,0.0,0.0
1057,76.0,0,360,0.0,0.0
1058,73.0,40,80,0.0,0.0
1059,88.0,40,60,0.0,0.0
1060,64.0,20,80,0.0,0.0
1061,83.0,60,60,0.0,0.0
1062,69.0,0,80,0.0,0.0
1063,86.0,60,60,0.0,0.0
1064,85.0,60,60,0.0,0.0
1065,57.0,0,240,0.0,0.0
1066,81.0,120,60,0.0,0.0
1067,76.0,0,120,0.0,0.0
1068,88.0,80,60,0.0,0.0
1069,73.0,120,360,0.0,0.0
1070,69.0,40,80,0.0,0.0
1071,85.0,40,60,0.0,0.0
1072,61.0,20,80,0.0,0.0
1073,80.0,60,60,0.0,0.0
1074,66.0,0,80,0.0,0.0
1075,83.0,60,60,0.0,0.0
1076,54.0,80,240,0.0,0.0
1077,81.0,60,60,0.0,0.0
1078,78.0,0,60,0.0,0.0
1079,73.0,0,120,0.0,0.0
1080,85.0,0,60,0.0,0.0
1081,64.0,40,80,0.0,0.0
1082,80.0,40,60,0.0,0.0
1083,56.0,20,80,0.0,0.0
1084,75.0,60,60,0.0,0.0
1085,61.0,60,80,0.0,0.0
1086,78.0,0,60,0.0,0.0
1087,76.0,60,60,0.0,0.0
1088,49.0,0,240,0.0,0.0
1089,73.0,0,60,0.0,0.0
1090,68.0,120,0,0.0,0.0
1091,80.0,0,60,0.0,0.0
1092,62.0,40,80,0.0,0.0
1093,66.0,0,360,0.0,0.0
1094,78.0,40,60,0.0,0.0
1095,54.0,20,80,0.0,0.0
1096,73.0,60,60,0.0,0.0
1097,57.0,60,80,0.0,0.0
1098,76.0,0,60,0.0,0.0
1099,74.0,60,60,0.0,0.0
1100,50.0,0,240,0.0,0.0
1101,69.0,120,60,0.0,0.0
1102,66.0,80,120,0.0,0.0
1103,78.0,0,60,0.0,0.0
1104,61.0,40,80,0.0,0.0
1105,76.0,40,60,0.0,0.0
1106,52.0,20,80,0.0,0.0
1107,71.0,60,60,0.0,0.0
1108,57.0,60,80,0.0,0.0
1109,74.0,0,60,0.0,0.0
1110,73.0,60,60,0.0,0.0
1111,45.0,80,240,0.0,0.0
1112,69.0,0,60,0.0,0.0
1113,64.0,120,0,0.0,0.0
1114,76.0,0,60,0.0,0.0
1115,59.0,40,80,0.0,0.0
1116,74.0,40,60,0.0,0.0
1117,50.0,20,80,0.0,0.0
1118,69.0,60,60,0.0,0.0
1119,55.0,60,80,0.0,0.0
1120,73.0,0,60,0.0,0.0
1121,47.0,0,240,0.0,0.0
1122,71.0,60,60,0.0,0.0
1123,67.0,0,60,0.0,0.0
1124,62.0,120,0,0.0,0.0
1125,74.0,80,60,0.0,0.0
1126,57.0,40,80,0.0,0.0
1127,61.0,120,360,0.0,0.0
1128,73.0,40,60,0.0,0.0
1129,45.0,20,80,0.0,0.0
1130,68.0,60,60,0.0,0.0
1131,49.0,60,80,0.0,0.0
1132,71.0,0,60,0.0,0.0
1133,69.0,60,60,0.0,0.0
1134,37.0,0,240,0.0,0.0
1135,66.0,0,60,0.0,0.0
1136,73.0,0,60,0.0,0.0
1137,57.0,40,80,0.0,0.0
1138,61.0,80,0,0.0,0.0
1139,73.0,40,60,0.0,0.0
1140,45.0,20,80,0.0,0.0
1141,68.0,60,60,0.0,0.0
1142,49.0,60,80,0.0,0.0
1143,71.0,0,60,0.0,0.0
1144,69.0,60,60,0.0,0.0
1145,37.0,0,240,0.0,0.0
1146,66.0,120,60,0.0,0.0
1147,73.0,0,60,0.0,0.0
1148,56.0,40,80,0.0,0.0
1149,61.0,80,0,0.0,0.0
1150,73.0,40,60,0.0,0.0
1151,45.0,20,80,0.0,0.0
1152,68.0,60,60,0.0,0.0
1153,49.0,60,80,0.0,0.0
1154,71.0,0,60,0.0,0.0
1155,69.0,60,60,0.0,0.0
1156,37.0,80,240,0.0,0.0
1157,66.0,120,60,0.0,0.0
1158,61.0,0,120,0.0,0.0
1159,73.0,0,60,0.0,0.0
1160,54.0,40,80,0.0,0.0
1161,73.0,40,60,0.0,0.0
1162,45.0,20,80,0.0,0.0
1163,68.0,60,60,0.0,0.0
1164,49.0,60,80,0.0,0.0
1165,71.0,0,60,0.0,0.0
1166,69.0,60,60,0.0,0.0
1167,37.0,0,240,0.0,0.0
1168,66.0,0,60,0.0,0.0
1169,61.0,120,0,0.0,0.0
1170,73.0,0,60,0.0,0.0
1171,61.0,80,0,0.0,0.0
1172,54.0,40,80,0.0,0.0
1173,73.0,40,60,0.0,0.0
1174,44.0,20,80,0.0,0.0
1175,67.0,60,60,0.0,0.0
1176,49.0,0,80,0.0,0.0
1177,69.0,60,60,0.0,0.0
1178,68.0,60,60,0.0,0.0
1179,37.0,0,240,0.0,0.0
1180,66.0,120,60,0.0,0.0
1181,61.0,0,120,0.0,0.0
1182,73.0,80,60,0.0,0.0
1183,54.0,40,80,0.0,0.0
1184,73.0,40,60,0.0,0.0
1185,44.0,20,80,0.0,0.0
1186,67.0,60,60,0.0,0.0
1187,49.0,60,80,0.0,0.0
1188,69.0,0,60,0.0,0.0
1189,68.0,60,60,0.0,0.0
1190,37.0,0,240,0.0,0.0
1191,66.0,0,60,0.0,0.0
1192,61.0,120,0,0.0,0.0
1193,73.0,80,60,0.0,0.0
1194,53.0,40,80,0.0,0.0
1195,73.0,40,60,0.0,0.0
1196,44.0,20,80,0.0,0.0
1197,67.0,60,60,0.0,0.0
1198,49.0,0,80,0.0,0.0
1199,69.0,60,60,0.0,0.0
1200,37.0,0,240,0.0,0.0
1201,68.0,60,60,0.0,0.0
1202,65.0,0,60,0.0,0.0
1203,61.0,120,0,0.0,0.0
1204,73.0,0,60,0.0,0.0
1205,53.0,40,80,0.0,0.0
1206,61.0,80,0,0.0,0.0
1207,73.0,40,60,0.0,0.0
1208,44.0,20,80,0.0,0.0
1209,67.0,60,60,0.0,0.0
1210,49.0,60,80,0.0,0.0
1211,69.0,0,60,0.0,0.0
1212,68.0,60,60,0.0,0.0
1213,37.0,80,240,0.0,0.0
1214,65.0,0,60,0.0,0.0
1215,61.0,120,0,0.0,0.0
1216,73.0,0,60,0.0,0.0
1217,61.0,0,0,0.0,0.0
1218,57.0,40,80,0.0,0.0
1219,73.0,40,60,0.0,0.0
1220,49.0,20,80,0.0,0.0
1221,68.0,60,60,0.0,0.0
1222,54.0,0,80,0.0,0.0
1223,71.0,60,60,0.0,0.0
1224,69.0,60,60,0.0,0.0
1225,42.0,0,240,0.0,0.0
1226,66.0,120,60,0.0,0.0
1227,61.0,0,120,0.0,0.0
1228,73.0,80,60,0.0,0.0
1229,57.0,40,80,0.0,0.0
1230,73.0,40,60,0.0,0.0
1231,49.0,20,80,0.0,0.0
1232,68.0,60,60,0.0,0.0
1233,54.0,60,80,0.0,0.0
1234,71.0,0,60,0.0,0.0
1235,42.0,0,240,0.0,0.0
1236,69.0,60,60,0.0,0.0
1237,66.0,120,60,0.0,0.0
1238,61.0,0,0,0.0,0.0
1239,73.0,0,60,0.0,0.0
1240,61.0,80,0,0.0,0.0
1241,57.0,40,80,0.0,0.0
1242,73.0,40,60,0.0,0.0
1243,49.0,20,80,0.0,0.0
1244,68.0,60,60,0.0,0.0
1245,54.0,0,80,0.0,0.0
1246,71.0,60,60,0.0,0.0
1247,42.0,80,240,0.0,0.0
1248,69.0,60,60,0.0,0.0
1249,66.0,120,60,0.0,0.0
1250,61.0,0,120,0.0,0.0
1251,73.0,0,60,0.0,0.0
1252,61.0,0,360,0.0,0.0
1253,57.0,40,80,0.0,0.0
1254,73.0,40,60,0.0,0.0
1255,49.0,20,80,0.0,0.0
1256,68.0,60,60,0.0,0.0
1257,54.0,0,80,0.0,0.0
1258,71.0,60,60,0.0,0.0
1259,42.0,80,240,0.0,0.0
1260,69.0,60,60,0.0,0.0
1261,66.0,120,60,0.0,0.0
1262,61.0,0,120,0.0,0.0
1263,73.0,0,60,0.0,0.0
1264,54.0,40,80,0.0,0.0
1265,62.0,0,360,0.0,0.0
1266,74.0,40,60,0.0,0.0
1267,42.0,20,80,0.0,0.0
1268,70.0,60,60,0.0,0.0
1269,47.0,60,80,0.0,0.0
1270,73.0,0,60,0.0,0.0
1271,71.0,60,60,0.0,0.0
1272,35.0,0,240,0.0,0.0
1273,66.0,120,60,0.0,0.0
1274,62.0,0,120,0.0,0.0
1275,74.0,80,60,0.0,0.0
1276,54.0,40,80,0.0,0.0
1277,62.0,0,360,0.0,0.0
1278,74.0,40,60,0.0,0.0
1279,42.0,20,80,0.0,0.0
1280,70.0,60,60,0.0,0.0
1281,47.0,0,80,0.0,0.0
1282,73.0,60,60,0.0,0.0
1283,71.0,60,60,0.0,0.0
1284,35.0,80,240,0.0,0.0
1285,66.0,120,60,0.0,0.0
1286,74.0,0,60,0.0,0.0
1287,54.0,40,80,0.0,0.0
1288,62.0,0,0,0.0,0.0
1289,74.0,40,60,0.0,0.0
1290,42.0,20,80,0.0,0.0
1291,70.0,60,60,0.0,0.0
1292,47.0,60,80,0.0,0.0
1293,73.0,0,60,0.0,0.0
1294,35.0,0,240,0.0,0.0
1295,71.0,60,60,0.0,0.0
1296,66.0,0,60,0.0,0.0
1297,62.0,120,0,0.0,0.0
1298,74.0,80,60,0.0,0.0
1299,54.0,40,80,0.0,0.0
1300,78.0,40,60,0.0,0.0
1301,42.0,20,80,0.0,0.0
1302,70.0,60,60,0.0,0.0
1303,47.0,60,80,0.0,0.0
1304,73.0,0,60,0.0,0.0
1305,71.0,60,60,0.0,0.0
1306,35.0,0,240,0.0,0.0
1307,66.0,0,60,0.0,0.0
1308,62.0,0,120,0.0,0.0
1309,74.0,80,60,0.0,0.0
1310,58.0,40,80,0.0,0.0
1311,73.0,40,60,0.0,0.0
1312,49.0,20,80,0.0,0.0
1313,68.0,60,60,0.0,0.0
1314,54.0,60,80,0.0,0.0
1315,71.0,0,60,0.0,0.0
1316,42.0,0,240,0.0,0.0
1317,70.0,60,60,0.0,0.0
1318,66.0,0,60,0.0,0.0
1319,61.0,120,0,0.0,0.0
1320,73.0,80,60,0.0,0.0
1321,58.0,40,80,0.0,0.0
1322,61.0,120,360,0.0,0.0
1323,73.0,40,60,0.0,0.0
1324,49.0,20,80,0.0,0.0
1325,68.0,60,60,0.0,0.0
1326,54.0,60,80,0.0,0.0
1327,71.0,0,60,0.0,0.0
1328,70.0,60,60,0.0,0.0
1329,42.0,80,240,0.0,0.0
1330,66.0,0,60,0.0,0.0
1331,61.0,0,120,0.0,0.0
1332,73.0,0,60,0.0,0.0
1333,58.0,40,80,0.0,0.0
1334,73.0,40,60,0.0,0.0
1335,49.0,20,80,0.0,0.0
1336,68.0,60,60,0.0,0.0
1337,54.0,0,80,0.0,0.0
1338,71.0,60,60,0.0,0.0
1339,70.0,60,60,0.0,0.0
1340,42.0,0,240,0.0,0.0
1341,66.0,0,60,0.0,0.0
1342,61.0,120,0,0.0,0.0
1343,73.0,0,60,0.0,0.0
1344,61.0,80,0,0.0,0.0
1345,58.0,40,80,0.0,0.0
1346,73.0,40,60,0.0,0.0
1347,49.0,20,80,0.0,0.0
1348,68.0,60,60,0.0,0.0
1349,54.0,0,80,0.0,0.0
1350,71.0,60,60,0.0,0.0
1351,42.0,0,240,0.0,0.0
1352,70.0,60,60,0.0,0.0
1353,66.0,120,60,0.0,0.0
1354,61.0,0,120,0.0,0.0
1355,73.0,80,60,0.0,0.0
1356,54.0,40,80,0.0,0.0
1357,75.0,40,60,0.0,0.0
1358,42.0,20,80,0.0,0.0
1359,70.0,60,60,0.0,0.0
1360,47.0,0,80,0.0,0.0
1361,73.0,60,60,0.0,0.0
1362,35.0,0,240,0.0,0.0
1363,71.0,60,60,0.0,0.0
1364,66.0,0,60,0.0,0.0
1365,63.0,120,0,0.0,0.0
1366,75.0,0,60,0.0,0.0
1367,63.0,80,0,0.0,0.0
1368,54.0,40,80,0.0,0.0
1369,75.0,40,60,0.0,0.0
1370,42.0,20,80,0.0,0.0
1371,70.0,60,60,0.0,0.0
1372,47.0,60,80,0.0,0.0
1373,73.0,0,60,0.0,0.0
1374,35.0,0,240,0.0,0.0
1375,71.0,60,60,0.0,0.0
1376,66.0,120,60,0.0,0.0
1377,63.0,0,120,0.0,0.0
1378,75.0,80,60,0.0,0.0
1379,54.0,40,80,0.0,0.0
1380,63.0,0,360,0.0,0.0
1381,75.0,40,60,0.0,0.0
1382,42.0,20,80,0.0,0.0
1383,70.0,60,60,0.0,0.0
1384,47.0,0,80,0.0,0.0
1385,73.0,60,60,0.0,0.0
1386,35.0,0,240,0.0,0.0
1387,71.0,60,60,0.0,0.0
1388,66.0,120,60,0.0,0.0
1389,63.0,80,120,0.0,0.0
1390,75.0,0,60,0.0,0.0
1391,54.0,40,80,0.0,0.0
1392,78.0,40,60,0.0,0.0
1393,42.0,20,80,0.0,0.0
1394,70.0,60,60,0.0,0.0
1395,47.0,60,80,0.0,0.0
1396,73.0,0,60,0.0,0.0
1397,71.0,60,60,0.0,0.0
1398,35.0,0,240,0.0,0.0
1399,66.0,0,60,0.0,0.0
1400,63.0,0,120,0.0,0.0
1401,75.0,80,60,0.0,0.0
1402,61.0,0,360,0.0,0.0
1403,58.0,40,80,0.0,0.0
1404,73.0,40,60,0.0,0.0
1405,49.0,20,80,0.0,0.0
1406,68.0,60,60,0.0,0.0
1407,54.0,0,80,0.0,0.0
1408,71.0,60,60,0.0,0.0
1409,70.0,60,60,0.0,0.0
1410,42.0,0,240,0.0,0.0
1411,66.0,120,60,0.0,0.0
1412,73.0,0,60,0.0,0.0
1413,61.0,80,0,0.0,0.0
1414,58.0,40,80,0.0,0.0
1415,73.0,40,60,0.0,0.0
1416,49.0,20,80,0.0,0.0
1417,68.0,60,60,0.0,0.0
1418,54.0,60,80,0.0,0.0
1419,71.0,0,60,0.0,0.0
1420,42.0,80,240,0.0,0.0
1421,70.0,60,60,0.0,0.0
1422,66.0,120,60,0.0,0.0
1423,61.0,0,0,0.0,0.0
1424,73.0,0,60,0.0,0.0
1425,61.0,0,360,0.0,0.0
1426,58.0,40,80,0.0,0.0
1427,73.0,40,60,0.0,0.0
1428,49.0,20,80,0.0,0.0
1429,68.0,60,60,0.0,0.0
1430,54.0,60,80,0.0,0.0
1431,71.0,0,60,0.0,0.0
1432,70.0,60,60,0.0,0.0
1433,42.0,0,240,0.0,0.0
1434,66.0,120,60,0.0,0.0
1435,73.0,0,60,0.0,0.0
1436,58.0,40,80,0.0,0.0
1437,61.0,80,0,0.0,0.0
1438,73.0,40,60,0.0,0.0
1439,49.0,20,80,0.0,0.0
1440,68.0,60,60,0.0,0.0
1441,54.0,60,80,0.0,0.0
1442,71.0,0,60,0.0,0.0
1443,42.0,0,240,0.0,0.0
1444,70.0,60,60,0.0,0.0
1445,66.0,0,60,0.0,0.0
1446,61.0,80,120,0.0,0.0
1447,73.0,0,60,0.0,0.0
1448,57.0,40,80,0.0,0.0
1449,73.0,40,60,0.0,0.0
1450,49.0,20,80,0.0,0.0
1451,68.0,60,60,0.0,0.0
1452,54.0,60,80,0.0,0.0
1453,71.0,0,60,0.0,0.0
1454,69.0,60,60,0.0,0.0
1455,42.0,0,240,0.0,0.0
1456,66.0,0,60,0.0,0.0
1457,61.0,120,0,0.0,0.0
1458,73.0,0,60,0.0,0.0
1459,61.0,80,0,0.0,0.0
1460,57.0,40,80,0.0,0.0
1461,73.0,40,60,0.0,0.0
1462,49.0,20,80,0.0,0.0
1463,68.0,60,60,0.0,0.0
1464,54.0,60,80,0.0,0.0
1465,71.0,0,60,0.0,0.0
1466,69.0,60,60,0.0,0.0
1467,42.0,0,240,0.0,0.0
1468,66.0,0,60,0.0,0.0
1469,61.0,120,0,0.0,0.0
1470,73.0,0,60,0.0,0.0
1471,57.0,40,80,0.0,0.0
1472,61.0,80,0,0.0,0.0
1473,73.0,40,60,0.0,0.0
1474,49.0,20,80,0.0,0.0
1475,68.0,60,60,0.0,0.0
1476,54.0,60,80,0.0,0.0
1477,71.0,0,60,0.0,0.0
1478,69.0,60,60,0.0,0.0
1479,42.0,0,240,0.0,0.0
1480,66.0,120,60,0.0,0.0
1481,61.0,80,120,0.0,0.0
1482,73.0,0,60,0.0,0.0
1483,57.0,40,80,0.0,0.0
1484,61.0,120,360,0.0,0.0
1485,73.0,40,60,0.0,0.0
1486,49.0,20,80,0.0,0.0
1487,68.0,60,60,0.0,0.0
1488,54.0,0,80,0.0,0.0
1489,71.0,60,60,0.0,0.0
1490,42.0,0,240,0.0,0.0
1491,69.0,60,60,0.0,0.0
1492,66.0,0,60,0.0,0.0
1493,61.0,0,120,0.0,0.0
1494,73.0,960,60,0.0,0.0
1495,73.0,0,960,0.0,0.0
1496,64.0,0,960,0.0,0.0
1497,45.0,0,960,0.0,0.0
1498,61.0,480,960,0.0,0.0
1499,52.0,0,960,0.0,0.0
1500,57.0,0,960,0.0,0.0
1501,47.0,0,480,0.0,0.0
1502,55.0,480,480,0.0,0.0
1503,71.0,0,480,0.0,0.0
1504,67.0,0,480,0.0,0.0
1505,62.0,0,480,0.0,0.0
1506,59.0,0,480,0.0,0.0
1507,61.0,0,480,0.0,0.0
1508,56.0,120,480,0.0,0.0
1509,49.0,0,480,0.0,0.0
1510,65.0,0,480,0.0,0.0
1511,65.0,1800,120,0.0,0.0
1512,42.0,0,1800,0.0,0.0
1513,49.0,0,1680,0.0,0.0
1514,57.0,0,1560,0.0,0.0
1515,61.0,0,1440,0.0,0.0
1516,66.0,0,1320,0.0,0.0
