,note,step,duration,channel,velocity
0,58.0,0,480,0.0,0.0
1,46.0,79,480,0.0,0.0
2,57.0,0,80,0.0,0.0
3,45.0,80,80,0.0,0.0
4,46.0,80,80,0.0,0.0
5,58.0,0,80,0.0,0.0
6,61.0,120,80,0.0,0.0
7,49.0,0,80,0.0,0.0
8,65.0,0,120,0.0,0.0
9,53.0,440,120,0.0,0.0
10,57.0,80,80,0.0,0.0
11,45.0,0,80,0.0,0.0
12,58.0,0,80,0.0,0.0
13,46.0,80,80,0.0,0.0
14,61.0,0,80,0.0,0.0
15,49.0,120,80,0.0,0.0
16,53.0,0,120,0.0,0.0
17,65.0,1440,120,0.0,0.0
18,46.0,0,120,0.0,0.0
19,58.0,2040,120,0.0,0.0
20,34.0,0,120,0.0,0.0
21,90.0,0,1440,0.0,0.0
22,94.0,360,1440,0.0,0.0
23,58.0,0,1440,0.0,0.0
24,60.0,0,1440,0.0,0.0
25,63.0,0,1440,0.0,0.0
26,66.0,0,1440,0.0,0.0
27,70.0,0,1440,0.0,0.0
28,82.0,0,1440,0.0,0.0
29,87.0,0,360,0.0,0.0
30,75.0,0,360,0.0,0.0
31,84.0,0,0,0.0,0.0
32,77.0,0,120,0.0,0.0
33,63.0,120,0,0.0,0.0
34,66.0,0,0,0.0,0.0
35,60.0,0,0,0.0,0.0
36,58.0,0,0,0.0,0.0
37,70.0,0,0,0.0,0.0
38,89.0,0,120,0.0,0.0
39,70.0,0,0,0.0,0.0
40,66.0,240,0,0.0,0.0
41,63.0,0,0,0.0,0.0
42,60.0,0,240,0.0,0.0
43,58.0,0,240,0.0,0.0
44,84.0,0,0,0.0,0.0
45,78.0,0,240,0.0,0.0
46,90.0,0,240,0.0,0.0
47,58.0,0,240,0.0,0.0
48,61.0,0,240,0.0,0.0
49,70.0,0,240,0.0,0.0
50,89.0,0,240,0.0,0.0
51,77.0,320,240,0.0,0.0
52,85.0,0,240,0.0,0.0
53,65.0,0,240,0.0,0.0
54,45.0,80,80,0.0,0.0
55,57.0,0,80,0.0,0.0
56,46.0,80,80,0.0,0.0
57,58.0,0,80,0.0,0.0
58,61.0,0,80,0.0,0.0
59,49.0,120,80,0.0,0.0
60,65.0,440,120,0.0,0.0
61,53.0,0,120,0.0,0.0
62,45.0,0,80,0.0,0.0
63,57.0,80,80,0.0,0.0
64,46.0,80,80,0.0,0.0
65,58.0,0,80,0.0,0.0
66,61.0,0,80,0.0,0.0
67,49.0,120,80,0.0,0.0
68,65.0,1440,120,0.0,0.0
69,53.0,0,120,0.0,0.0
70,56.0,2040,120,0.0,0.0
71,44.0,0,120,0.0,0.0
72,32.0,0,120,0.0,0.0
73,80.0,0,1440,0.0,0.0
74,65.0,0,1440,0.0,0.0
75,92.0,360,1440,0.0,0.0
76,73.0,0,1440,0.0,0.0
77,89.0,0,1440,0.0,0.0
78,75.0,120,360,0.0,0.0
79,84.0,0,360,0.0,0.0
80,56.0,0,0,0.0,0.0
81,66.0,0,360,0.0,0.0
82,87.0,0,360,0.0,0.0
83,68.0,0,0,0.0,0.0
84,63.0,0,0,0.0,0.0
85,56.0,0,0,0.0,0.0
86,84.0,0,120,0.0,0.0
87,89.0,0,120,0.0,0.0
88,77.0,240,120,0.0,0.0
89,78.0,0,240,0.0,0.0
90,90.0,0,240,0.0,0.0
91,68.0,0,0,0.0,0.0
92,66.0,0,0,0.0,0.0
93,63.0,0,0,0.0,0.0
94,56.0,0,0,0.0,0.0
95,84.0,0,240,0.0,0.0
96,77.0,0,240,0.0,0.0
97,68.0,240,0,0.0,0.0
98,85.0,0,240,0.0,0.0
99,89.0,0,240,0.0,0.0
100,61.0,0,240,0.0,0.0
101,65.0,0,240,0.0,0.0
102,65.0,0,480,0.0,0.0
103,60.0,720,480,0.0,0.0
104,69.0,0,480,0.0,0.0
105,77.0,0,480,0.0,0.0
106,53.0,0,480,0.0,0.0
107,65.0,0,480,0.0,0.0
108,41.0,1920,480,0.0,0.0
109,57.0,0,480,0.0,0.0
110,48.0,0,480,0.0,0.0
111,53.0,0,480,0.0,0.0
112,41.0,0,1680,0.0,0.0
113,29.0,180,1680,0.0,0.0
114,30.0,2300,180,0.0,0.0
115,42.0,0,180,0.0,0.0
116,45.0,80,80,0.0,0.0
117,57.0,0,80,0.0,0.0
118,58.0,0,80,0.0,0.0
119,46.0,80,80,0.0,0.0
120,61.0,0,80,0.0,0.0
121,49.0,120,80,0.0,0.0
122,65.0,440,120,0.0,0.0
123,53.0,0,120,0.0,0.0
124,57.0,80,80,0.0,0.0
125,45.0,0,80,0.0,0.0
126,58.0,0,80,0.0,0.0
127,46.0,80,80,0.0,0.0
128,61.0,0,80,0.0,0.0
129,49.0,120,80,0.0,0.0
130,53.0,0,120,0.0,0.0
131,65.0,1440,120,0.0,0.0
132,58.0,1680,120,0.0,0.0
133,34.0,0,120,0.0,0.0
134,46.0,0,120,0.0,0.0
135,94.0,120,1080,0.0,0.0
136,90.0,0,1080,0.0,0.0
137,63.0,0,1080,0.0,0.0
138,58.0,0,1080,0.0,0.0
139,70.0,0,1080,0.0,0.0
140,82.0,0,1080,0.0,0.0
141,60.0,0,0,0.0,0.0
142,63.0,0,120,0.0,0.0
143,66.0,0,0,0.0,0.0
144,70.0,0,120,0.0,0.0
145,84.0,0,120,0.0,0.0
146,87.0,240,120,0.0,0.0
147,58.0,0,0,0.0,0.0
148,60.0,0,0,0.0,0.0
149,63.0,0,240,0.0,0.0
150,66.0,0,0,0.0,0.0
151,75.0,0,0,0.0,0.0
152,87.0,0,240,0.0,0.0
153,84.0,360,240,0.0,0.0
154,70.0,0,0,0.0,0.0
155,66.0,0,0,0.0,0.0
156,60.0,0,0,0.0,0.0
157,58.0,0,0,0.0,0.0
158,75.0,0,360,0.0,0.0
159,87.0,0,360,0.0,0.0
160,60.0,120,0,0.0,0.0
161,63.0,0,0,0.0,0.0
162,58.0,0,0,0.0,0.0
163,70.0,0,0,0.0,0.0
164,84.0,0,0,0.0,0.0
165,77.0,240,120,0.0,0.0
166,89.0,0,120,0.0,0.0
167,66.0,0,0,0.0,0.0
168,63.0,0,0,0.0,0.0
169,58.0,0,240,0.0,0.0
170,60.0,240,240,0.0,0.0
171,78.0,0,240,0.0,0.0
172,90.0,0,240,0.0,0.0
173,84.0,0,0,0.0,0.0
174,77.0,0,240,0.0,0.0
175,89.0,0,240,0.0,0.0
176,85.0,0,240,0.0,0.0
177,70.0,0,0,0.0,0.0
178,65.0,0,240,0.0,0.0
179,61.0,0,240,0.0,0.0
180,58.0,320,240,0.0,0.0
181,57.0,0,80,0.0,0.0
182,45.0,80,80,0.0,0.0
183,58.0,80,80,0.0,0.0
184,46.0,0,80,0.0,0.0
185,49.0,0,80,0.0,0.0
186,61.0,120,80,0.0,0.0
187,53.0,0,120,0.0,0.0
188,65.0,440,120,0.0,0.0
189,45.0,80,80,0.0,0.0
190,57.0,0,80,0.0,0.0
191,46.0,80,80,0.0,0.0
192,58.0,0,80,0.0,0.0
193,49.0,0,80,0.0,0.0
194,61.0,120,80,0.0,0.0
195,53.0,0,120,0.0,0.0
196,65.0,1440,120,0.0,0.0
197,48.0,2040,120,0.0,0.0
198,24.0,0,120,0.0,0.0
199,36.0,0,120,0.0,0.0
200,84.0,0,1440,0.0,0.0
201,92.0,0,1440,0.0,0.0
202,96.0,360,1440,0.0,0.0
203,68.0,0,1440,0.0,0.0
204,72.0,0,1440,0.0,0.0
205,65.0,0,1440,0.0,0.0
206,60.0,0,1440,0.0,0.0
207,91.0,0,360,0.0,0.0
208,79.0,0,360,0.0,0.0
209,88.0,0,360,0.0,0.0
210,60.0,0,360,0.0,0.0
211,72.0,0,360,0.0,0.0
212,70.0,120,360,0.0,0.0
213,80.0,0,120,0.0,0.0
214,72.0,0,120,0.0,0.0
215,60.0,0,120,0.0,0.0
216,64.0,0,0,0.0,0.0
217,88.0,0,120,0.0,0.0
218,92.0,0,120,0.0,0.0
219,70.0,240,0,0.0,0.0
220,88.0,0,240,0.0,0.0
221,94.0,0,240,0.0,0.0
222,60.0,0,240,0.0,0.0
223,64.0,0,240,0.0,0.0
224,72.0,0,240,0.0,0.0
225,82.0,0,240,0.0,0.0
226,89.0,0,240,0.0,0.0
227,68.0,0,240,0.0,0.0
228,65.0,0,240,0.0,0.0
229,80.0,0,240,0.0,0.0
230,72.0,960,240,0.0,0.0
231,92.0,0,240,0.0,0.0
232,60.0,720,480,0.0,0.0
233,65.0,0,480,0.0,0.0
234,53.0,0,480,0.0,0.0
235,77.0,0,480,0.0,0.0
236,68.0,0,480,0.0,0.0
237,72.0,0,480,0.0,0.0
238,80.0,0,480,0.0,0.0
239,53.0,0,480,0.0,0.0
240,48.0,0,480,0.0,0.0
241,41.0,0,480,0.0,0.0
242,65.0,0,480,0.0,0.0
243,60.0,1920,480,0.0,0.0
244,56.0,0,480,0.0,0.0
245,68.0,0,480,0.0,0.0
246,40.0,0,1680,0.0,0.0
247,28.0,180,1680,0.0,0.0
248,29.0,0,180,0.0,0.0
249,41.0,1860,180,0.0,0.0
250,101.0,0,960,0.0,0.0
251,25.0,600,120,0.0,0.0
252,37.0,0,120,0.0,0.0
253,56.0,0,240,0.0,0.0
254,44.0,240,240,0.0,0.0
255,61.0,120,240,0.0,0.0
256,53.0,0,240,0.0,0.0
257,99.0,120,120,0.0,0.0
258,97.0,120,120,0.0,0.0
259,92.0,120,120,0.0,0.0
260,44.0,0,240,0.0,0.0
261,56.0,120,240,0.0,0.0
262,89.0,0,120,0.0,0.0
263,53.0,0,240,0.0,0.0
264,61.0,0,240,0.0,0.0
265,87.0,120,120,0.0,0.0
266,85.0,120,120,0.0,0.0
267,80.0,120,120,0.0,0.0
268,77.0,120,120,0.0,0.0
269,75.0,120,120,0.0,0.0
270,73.0,240,120,0.0,0.0
271,68.0,600,240,0.0,0.0
272,32.0,0,120,0.0,0.0
273,44.0,120,120,0.0,0.0
274,72.0,0,120,0.0,0.0
275,73.0,120,120,0.0,0.0
276,75.0,120,120,0.0,0.0
277,77.0,120,120,0.0,0.0
278,78.0,113,120,0.0,0.0
279,80.0,127,120,0.0,0.0
280,60.0,240,240,0.0,0.0
281,55.0,0,240,0.0,0.0
282,81.0,120,120,0.0,0.0
283,66.0,0,240,0.0,0.0
284,56.0,0,240,0.0,0.0
285,60.0,0,240,0.0,0.0
286,66.0,120,0,0.0,0.0
287,60.0,240,120,0.0,0.0
288,56.0,0,120,0.0,0.0
289,81.0,120,120,0.0,0.0
290,80.0,120,120,0.0,0.0
291,79.0,120,120,0.0,0.0
292,78.0,120,120,0.0,0.0
293,77.0,120,120,0.0,0.0
294,76.0,120,120,0.0,0.0
295,75.0,120,120,0.0,0.0
296,66.0,0,240,0.0,0.0
297,60.0,0,240,0.0,0.0
298,57.0,240,240,0.0,0.0
299,56.0,0,240,0.0,0.0
300,66.0,0,0,0.0,0.0
301,60.0,120,0,0.0,0.0
302,56.0,0,120,0.0,0.0
303,101.0,0,960,0.0,0.0
304,25.0,600,120,0.0,0.0
305,37.0,0,120,0.0,0.0
306,56.0,240,240,0.0,0.0
307,44.0,0,240,0.0,0.0
308,53.0,120,240,0.0,0.0
309,61.0,0,240,0.0,0.0
310,99.0,120,120,0.0,0.0
311,97.0,120,120,0.0,0.0
312,44.0,0,240,0.0,0.0
313,92.0,120,120,0.0,0.0
314,56.0,0,240,0.0,0.0
315,89.0,120,120,0.0,0.0
316,53.0,0,240,0.0,0.0
317,87.0,120,120,0.0,0.0
318,61.0,0,240,0.0,0.0
319,85.0,120,120,0.0,0.0
320,80.0,120,120,0.0,0.0
321,77.0,120,120,0.0,0.0
322,75.0,120,120,0.0,0.0
323,73.0,240,120,0.0,0.0
324,68.0,600,240,0.0,0.0
325,65.0,120,720,0.0,0.0
326,72.0,120,120,0.0,0.0
327,73.0,120,120,0.0,0.0
328,75.0,120,120,0.0,0.0
329,77.0,120,120,0.0,0.0
330,78.0,113,120,0.0,0.0
331,80.0,7,120,0.0,0.0
332,60.0,0,120,0.0,0.0
333,81.0,120,120,0.0,0.0
334,61.0,120,120,0.0,0.0
335,63.0,120,120,0.0,0.0
336,65.0,120,120,0.0,0.0
337,66.0,120,120,0.0,0.0
338,68.0,120,120,0.0,0.0
339,81.0,120,120,0.0,0.0
340,69.0,0,120,0.0,0.0
341,80.0,120,120,0.0,0.0
342,79.0,120,120,0.0,0.0
343,78.0,120,120,0.0,0.0
344,77.0,120,120,0.0,0.0
345,76.0,120,120,0.0,0.0
346,57.0,120,120,0.0,0.0
347,75.0,120,240,0.0,0.0
348,56.0,0,120,0.0,0.0
349,55.0,120,120,0.0,0.0
350,54.0,120,120,0.0,0.0
351,53.0,120,120,0.0,0.0
352,51.0,120,120,0.0,0.0
353,49.0,120,120,0.0,0.0
354,77.0,120,960,0.0,0.0
355,56.0,120,120,0.0,0.0
356,61.0,120,120,0.0,0.0
357,65.0,120,120,0.0,0.0
358,61.0,120,120,0.0,0.0
359,56.0,120,120,0.0,0.0
360,49.0,120,120,0.0,0.0
361,59.0,0,120,0.0,0.0
362,61.0,120,120,0.0,0.0
363,75.0,120,360,0.0,0.0
364,65.0,120,120,0.0,0.0
365,61.0,0,120,0.0,0.0
366,59.0,120,120,0.0,0.0
367,73.0,0,0,0.0,0.0
368,71.0,0,0,0.0,0.0
369,54.0,120,120,0.0,0.0
370,59.0,120,120,0.0,0.0
371,61.0,120,120,0.0,0.0
372,66.0,120,120,0.0,0.0
373,61.0,120,120,0.0,0.0
374,59.0,120,120,0.0,0.0
375,78.0,120,1200,0.0,0.0
376,70.0,0,720,0.0,0.0
377,49.0,120,120,0.0,0.0
378,58.0,120,120,0.0,0.0
379,61.0,120,120,0.0,0.0
380,66.0,120,120,0.0,0.0
381,61.0,120,120,0.0,0.0
382,58.0,120,120,0.0,0.0
383,56.0,120,120,0.0,0.0
384,71.0,0,1440,0.0,0.0
385,59.0,120,120,0.0,0.0
386,61.0,120,120,0.0,0.0
387,68.0,0,120,0.0,0.0
388,61.0,120,120,0.0,0.0
389,59.0,120,120,0.0,0.0
390,77.0,0,0,0.0,0.0
391,49.0,120,120,0.0,0.0
392,59.0,0,120,0.0,0.0
393,61.0,120,120,0.0,0.0
394,75.0,0,240,0.0,0.0
395,65.0,120,120,0.0,0.0
396,73.0,0,240,0.0,0.0
397,61.0,120,120,0.0,0.0
398,59.0,120,120,0.0,0.0
399,70.0,0,720,0.0,0.0
400,54.0,120,120,0.0,0.0
401,58.0,120,120,0.0,0.0
402,61.0,120,120,0.0,0.0
403,66.0,120,120,0.0,0.0
404,61.0,120,120,0.0,0.0
405,58.0,0,120,0.0,0.0
406,82.0,0,0,0.0,0.0
407,73.0,120,0,0.0,0.0
408,52.0,120,120,0.0,0.0
409,58.0,120,120,0.0,0.0
410,61.0,120,120,0.0,0.0
411,68.0,120,120,0.0,0.0
412,61.0,120,120,0.0,0.0
413,58.0,0,120,0.0,0.0
414,67.0,0,60,0.0,0.0
415,51.0,120,120,0.0,0.0
416,82.0,120,0,0.0,0.0
417,73.0,0,0,0.0,0.0
418,58.0,120,120,0.0,0.0
419,61.0,120,120,0.0,0.0
420,67.0,0,120,0.0,0.0
421,61.0,120,120,0.0,0.0
422,75.0,0,240,0.0,0.0
423,58.0,120,120,0.0,0.0
424,55.0,120,120,0.0,0.0
425,75.0,60,240,0.0,0.0
426,61.0,0,120,0.0,0.0
427,63.0,120,120,0.0,0.0
428,77.0,60,60,0.0,0.0
429,79.0,0,60,0.0,0.0
430,77.0,0,240,0.0,0.0
431,70.0,120,120,0.0,0.0
432,63.0,120,120,0.0,0.0
433,61.0,0,120,0.0,0.0
434,75.0,0,120,0.0,0.0
435,73.0,0,720,0.0,0.0
436,56.0,120,120,0.0,0.0
437,75.0,0,720,0.0,0.0
438,61.0,120,120,0.0,0.0
439,63.0,120,120,0.0,0.0
440,68.0,120,120,0.0,0.0
441,63.0,120,120,0.0,0.0
442,61.0,120,120,0.0,0.0
443,72.0,120,720,0.0,0.0
444,80.0,120,960,0.0,0.0
445,51.0,120,120,0.0,0.0
446,60.0,120,120,0.0,0.0
447,63.0,120,120,0.0,0.0
448,68.0,120,120,0.0,0.0
449,63.0,120,120,0.0,0.0
450,60.0,0,120,0.0,0.0
451,58.0,120,120,0.0,0.0
452,73.0,0,1440,0.0,0.0
453,61.0,0,120,0.0,0.0
454,63.0,120,120,0.0,0.0
455,79.0,0,240,0.0,0.0
456,70.0,120,120,0.0,0.0
457,77.0,120,240,0.0,0.0
458,63.0,120,120,0.0,0.0
459,61.0,0,120,0.0,0.0
460,51.0,120,120,0.0,0.0
461,79.0,0,240,0.0,0.0
462,61.0,120,120,0.0,0.0
463,63.0,120,120,0.0,0.0
464,77.0,0,360,0.0,0.0
465,67.0,120,120,0.0,0.0
466,63.0,120,120,0.0,0.0
467,61.0,0,120,0.0,0.0
468,75.0,120,120,0.0,0.0
469,56.0,120,120,0.0,0.0
470,72.0,0,1440,0.0,0.0
471,84.0,240,720,0.0,0.0
472,60.0,120,120,0.0,0.0
473,63.0,120,120,0.0,0.0
474,68.0,120,120,0.0,0.0
475,63.0,120,120,0.0,0.0
476,60.0,0,120,0.0,0.0
477,55.0,240,720,0.0,0.0
478,84.0,120,480,0.0,0.0
479,56.0,120,120,0.0,0.0
480,60.0,120,120,0.0,0.0
481,63.0,0,120,0.0,0.0
482,84.0,0,240,0.0,0.0
483,60.0,120,120,0.0,0.0
484,56.0,0,120,0.0,0.0
485,84.0,120,960,0.0,0.0
486,54.0,240,720,0.0,0.0
487,56.0,120,120,0.0,0.0
488,60.0,120,120,0.0,0.0
489,63.0,120,120,0.0,0.0
490,60.0,120,120,0.0,0.0
491,56.0,0,120,0.0,0.0
492,54.0,0,720,0.0,0.0
493,56.0,0,120,0.0,0.0
494,82.0,120,360,0.0,0.0
495,60.0,120,120,0.0,0.0
496,63.0,120,120,0.0,0.0
497,60.0,0,120,0.0,0.0
498,80.0,0,120,0.0,0.0
499,56.0,240,120,0.0,0.0
500,80.0,0,720,0.0,0.0
501,56.0,120,120,0.0,0.0
502,61.0,120,120,0.0,0.0
503,65.0,120,120,0.0,0.0
504,61.0,120,120,0.0,0.0
505,56.0,120,120,0.0,0.0
506,53.0,0,0,0.0,0.0
507,56.0,120,120,0.0,0.0
508,61.0,120,120,0.0,0.0
509,68.0,120,120,0.0,0.0
510,61.0,120,120,0.0,0.0
511,56.0,120,120,0.0,0.0
512,51.0,120,120,0.0,0.0
513,85.0,0,0,0.0,0.0
514,56.0,120,120,0.0,0.0
515,60.0,120,120,0.0,0.0
516,66.0,0,120,0.0,0.0
517,60.0,120,120,0.0,0.0
518,56.0,0,120,0.0,0.0
519,51.0,120,120,0.0,0.0
520,84.0,120,0,0.0,0.0
521,56.0,0,120,0.0,0.0
522,60.0,120,120,0.0,0.0
523,82.0,0,360,0.0,0.0
524,66.0,120,120,0.0,0.0
525,60.0,120,120,0.0,0.0
526,56.0,120,120,0.0,0.0
527,80.0,0,120,0.0,0.0
528,89.0,0,720,0.0,0.0
529,50.0,120,120,0.0,0.0
530,56.0,120,120,0.0,0.0
531,59.0,120,120,0.0,0.0
532,65.0,120,120,0.0,0.0
533,59.0,120,120,0.0,0.0
534,56.0,120,120,0.0,0.0
535,50.0,120,120,0.0,0.0
536,56.0,120,120,0.0,0.0
537,58.0,120,120,0.0,0.0
538,65.0,0,120,0.0,0.0
539,58.0,120,120,0.0,0.0
540,89.0,120,0,0.0,0.0
541,56.0,120,120,0.0,0.0
542,89.0,0,0,0.0,0.0
543,51.0,120,120,0.0,0.0
544,54.0,120,120,0.0,0.0
545,58.0,120,120,0.0,0.0
546,63.0,120,120,0.0,0.0
547,58.0,120,120,0.0,0.0
548,54.0,120,120,0.0,0.0
549,42.0,120,120,0.0,0.0
550,87.0,120,240,0.0,0.0
551,54.0,0,120,0.0,0.0
552,85.0,0,240,0.0,0.0
553,58.0,120,120,0.0,0.0
554,63.0,120,120,0.0,0.0
555,82.0,120,240,0.0,0.0
556,58.0,120,120,0.0,0.0
557,54.0,0,120,0.0,0.0
558,44.0,120,120,0.0,0.0
559,84.0,120,720,0.0,0.0
560,53.0,120,120,0.0,0.0
561,56.0,120,120,0.0,0.0
562,61.0,120,120,0.0,0.0
563,56.0,120,120,0.0,0.0
564,53.0,0,120,0.0,0.0
565,82.0,120,240,0.0,0.0
566,44.0,120,120,0.0,0.0
567,53.0,0,120,0.0,0.0
568,56.0,120,120,0.0,0.0
569,80.0,120,240,0.0,0.0
570,61.0,0,120,0.0,0.0
571,56.0,120,120,0.0,0.0
572,77.0,0,240,0.0,0.0
573,53.0,120,120,0.0,0.0
574,82.0,0,240,0.0,0.0
575,44.0,120,120,0.0,0.0
576,54.0,120,120,0.0,0.0
577,80.0,0,240,0.0,0.0
578,56.0,120,120,0.0,0.0
579,60.0,120,120,0.0,0.0
580,78.0,0,240,0.0,0.0
581,56.0,120,120,0.0,0.0
582,54.0,60,120,0.0,0.0
583,78.0,60,60,0.0,0.0
584,44.0,0,120,0.0,0.0
585,80.0,120,60,0.0,0.0
586,54.0,120,120,0.0,0.0
587,78.0,0,120,0.0,0.0
588,56.0,120,120,0.0,0.0
589,77.0,0,360,0.0,0.0
590,60.0,120,120,0.0,0.0
591,56.0,120,120,0.0,0.0
592,54.0,120,120,0.0,0.0
593,76.0,0,0,0.0,0.0
594,49.0,120,120,0.0,0.0
595,56.0,120,120,0.0,0.0
596,61.0,120,120,0.0,0.0
597,65.0,120,120,0.0,0.0
598,61.0,120,120,0.0,0.0
599,58.0,0,120,0.0,0.0
600,56.0,120,240,0.0,0.0
601,77.0,0,480,0.0,0.0
602,61.0,0,120,0.0,0.0
603,65.0,120,120,0.0,0.0
604,68.0,120,120,0.0,0.0
605,80.0,240,240,0.0,0.0
606,65.0,120,120,0.0,0.0
607,61.0,0,120,0.0,0.0
608,68.0,120,480,0.0,0.0
609,54.0,0,720,0.0,0.0
610,80.0,240,660,0.0,0.0
611,56.0,120,120,0.0,0.0
612,60.0,120,120,0.0,0.0
613,63.0,0,120,0.0,0.0
614,72.0,0,480,0.0,0.0
615,60.0,120,120,0.0,0.0
616,56.0,0,120,0.0,0.0
617,54.0,240,720,0.0,0.0
618,84.0,0,240,0.0,0.0
619,56.0,120,120,0.0,0.0
620,70.0,120,360,0.0,0.0
621,82.0,0,360,0.0,0.0
622,60.0,120,120,0.0,0.0
623,63.0,120,120,0.0,0.0
624,60.0,0,120,0.0,0.0
625,80.0,0,120,0.0,0.0
626,56.0,0,120,0.0,0.0
627,68.0,0,0,0.0,0.0
628,53.0,120,720,0.0,0.0
629,56.0,120,120,0.0,0.0
630,61.0,120,120,0.0,0.0
631,65.0,120,120,0.0,0.0
632,61.0,120,120,0.0,0.0
633,56.0,0,120,0.0,0.0
634,85.0,0,720,0.0,0.0
635,53.0,120,120,0.0,0.0
636,56.0,120,120,0.0,0.0
637,61.0,120,120,0.0,0.0
638,68.0,120,120,0.0,0.0
639,61.0,120,120,0.0,0.0
640,56.0,120,120,0.0,0.0
641,80.0,0,0,0.0,0.0
642,73.0,0,0,0.0,0.0
643,85.0,0,480,0.0,0.0
644,51.0,120,120,0.0,0.0
645,56.0,120,120,0.0,0.0
646,60.0,120,120,0.0,0.0
647,66.0,0,120,0.0,0.0
648,60.0,120,120,0.0,0.0
649,56.0,0,120,0.0,0.0
650,51.0,120,120,0.0,0.0
651,84.0,0,0,0.0,0.0
652,72.0,120,0,0.0,0.0
653,56.0,120,120,0.0,0.0
654,60.0,120,120,0.0,0.0
655,66.0,120,120,0.0,0.0
656,70.0,0,120,0.0,0.0
657,82.0,0,120,0.0,0.0
658,80.0,0,240,0.0,0.0
659,60.0,120,120,0.0,0.0
660,68.0,0,240,0.0,0.0
661,56.0,120,120,0.0,0.0
662,50.0,120,120,0.0,0.0
663,77.0,0,720,0.0,0.0
664,89.0,0,720,0.0,0.0
665,80.0,120,720,0.0,0.0
666,56.0,120,120,0.0,0.0
667,59.0,120,120,0.0,0.0
668,65.0,120,120,0.0,0.0
669,59.0,120,120,0.0,0.0
670,56.0,0,120,0.0,0.0
671,50.0,120,120,0.0,0.0
672,56.0,120,120,0.0,0.0
673,58.0,120,120,0.0,0.0
674,65.0,0,120,0.0,0.0
675,58.0,120,120,0.0,0.0
676,89.0,120,0,0.0,0.0
677,80.0,0,0,0.0,0.0
678,77.0,0,0,0.0,0.0
679,56.0,120,120,0.0,0.0
680,80.0,0,0,0.0,0.0
681,77.0,0,720,0.0,0.0
682,89.0,120,720,0.0,0.0
683,51.0,120,120,0.0,0.0
684,54.0,120,120,0.0,0.0
685,58.0,120,120,0.0,0.0
686,63.0,120,120,0.0,0.0
687,58.0,120,120,0.0,0.0
688,54.0,0,120,0.0,0.0
689,75.0,120,240,0.0,0.0
690,87.0,0,240,0.0,0.0
691,42.0,120,120,0.0,0.0
692,54.0,0,120,0.0,0.0
693,85.0,120,360,0.0,0.0
694,73.0,0,360,0.0,0.0
695,78.0,0,0,0.0,0.0
696,58.0,120,120,0.0,0.0
697,63.0,120,120,0.0,0.0
698,58.0,0,120,0.0,0.0
699,54.0,0,120,0.0,0.0
700,70.0,0,120,0.0,0.0
701,78.0,0,120,0.0,0.0
702,82.0,120,120,0.0,0.0
703,44.0,120,120,0.0,0.0
704,80.0,0,720,0.0,0.0
705,84.0,120,720,0.0,0.0
706,72.0,0,720,0.0,0.0
707,53.0,120,120,0.0,0.0
708,56.0,120,120,0.0,0.0
709,61.0,120,120,0.0,0.0
710,56.0,120,120,0.0,0.0
711,53.0,0,120,0.0,0.0
712,82.0,0,240,0.0,0.0
713,78.0,0,240,0.0,0.0
714,70.0,0,240,0.0,0.0
715,44.0,120,120,0.0,0.0
716,53.0,120,120,0.0,0.0
717,80.0,0,240,0.0,0.0
718,77.0,0,240,0.0,0.0
719,68.0,120,240,0.0,0.0
720,56.0,120,120,0.0,0.0
721,61.0,0,120,0.0,0.0
722,56.0,120,120,0.0,0.0
723,70.0,120,240,0.0,0.0
724,77.0,0,240,0.0,0.0
725,82.0,0,240,0.0,0.0
726,53.0,0,120,0.0,0.0
727,44.0,120,120,0.0,0.0
728,71.0,0,480,0.0,0.0
729,83.0,0,480,0.0,0.0
730,53.0,120,120,0.0,0.0
731,56.0,120,120,0.0,0.0
732,62.0,120,120,0.0,0.0
733,56.0,120,120,0.0,0.0
734,82.0,0,240,0.0,0.0
735,70.0,0,240,0.0,0.0
736,77.0,0,0,0.0,0.0
737,53.0,0,120,0.0,0.0
738,44.0,120,120,0.0,0.0
739,71.0,0,1200,0.0,0.0
740,77.0,0,1200,0.0,0.0
741,83.0,120,1200,0.0,0.0
742,53.0,120,120,0.0,0.0
743,56.0,120,120,0.0,0.0
744,62.0,120,120,0.0,0.0
745,56.0,120,120,0.0,0.0
746,53.0,120,120,0.0,0.0
747,44.0,120,120,0.0,0.0
748,53.0,120,120,0.0,0.0
749,56.0,120,120,0.0,0.0
750,62.0,0,120,0.0,0.0
751,56.0,120,120,0.0,0.0
752,70.0,0,240,0.0,0.0
753,82.0,0,240,0.0,0.0
754,53.0,120,120,0.0,0.0
755,77.0,0,0,0.0,0.0
756,83.0,120,240,0.0,0.0
757,71.0,0,240,0.0,0.0
758,44.0,120,120,0.0,0.0
759,53.0,0,120,0.0,0.0
760,56.0,120,120,0.0,0.0
761,77.0,0,0,0.0,0.0
762,70.0,120,240,0.0,0.0
763,82.0,0,240,0.0,0.0
764,62.0,0,120,0.0,0.0
765,77.0,0,240,0.0,0.0
766,71.0,0,240,0.0,0.0
767,56.0,120,120,0.0,0.0
768,53.0,0,120,0.0,0.0
769,44.0,120,120,0.0,0.0
770,83.0,120,0,0.0,0.0
771,71.0,0,480,0.0,0.0
772,78.0,0,480,0.0,0.0
773,51.0,120,120,0.0,0.0
774,54.0,120,120,0.0,0.0
775,63.0,0,120,0.0,0.0
776,54.0,120,120,0.0,0.0
777,78.0,0,240,0.0,0.0
778,82.0,0,240,0.0,0.0
779,70.0,0,240,0.0,0.0
780,51.0,120,120,0.0,0.0
781,94.0,0,1080,0.0,0.0
782,82.0,0,1080,0.0,0.0
783,44.0,120,120,0.0,0.0
784,90.0,0,1080,0.0,0.0
785,51.0,120,120,0.0,0.0
786,54.0,120,120,0.0,0.0
787,63.0,120,120,0.0,0.0
788,54.0,120,120,0.0,0.0
789,51.0,120,120,0.0,0.0
790,44.0,120,120,0.0,0.0
791,51.0,120,120,0.0,0.0
792,54.0,120,120,0.0,0.0
793,60.0,120,120,0.0,0.0
794,84.0,0,120,0.0,0.0
795,78.0,0,120,0.0,0.0
796,72.0,0,120,0.0,0.0
797,72.0,120,240,0.0,0.0
798,84.0,0,240,0.0,0.0
799,54.0,120,120,0.0,0.0
800,51.0,0,120,0.0,0.0
801,78.0,0,0,0.0,0.0
802,44.0,120,120,0.0,0.0
803,84.0,0,360,0.0,0.0
804,72.0,0,360,0.0,0.0
805,51.0,120,120,0.0,0.0
806,54.0,120,120,0.0,0.0
807,89.0,0,120,0.0,0.0
808,80.0,0,120,0.0,0.0
809,77.0,0,120,0.0,0.0
810,60.0,120,120,0.0,0.0
811,54.0,120,120,0.0,0.0
812,75.0,0,240,0.0,0.0
813,78.0,0,240,0.0,0.0
814,87.0,0,240,0.0,0.0
815,51.0,120,120,0.0,0.0
816,73.0,0,120,0.0,0.0
817,77.0,0,120,0.0,0.0
818,85.0,0,120,0.0,0.0
819,37.0,480,120,0.0,0.0
820,44.0,120,120,0.0,0.0
821,53.0,120,120,0.0,0.0
822,61.0,0,240,0.0,0.0
823,65.0,120,120,0.0,0.0
824,73.0,120,120,0.0,0.0
825,80.0,120,120,0.0,0.0
826,77.0,120,120,0.0,0.0
827,85.0,120,120,0.0,0.0
828,94.0,120,120,0.0,0.0
829,92.0,360,240,0.0,0.0
830,84.0,0,240,0.0,0.0
831,32.0,120,120,0.0,0.0
832,44.0,120,120,0.0,0.0
833,51.0,120,120,0.0,0.0
834,66.0,120,120,0.0,0.0
835,60.0,120,240,0.0,0.0
836,72.0,0,120,0.0,0.0
837,80.0,120,120,0.0,0.0
838,78.0,120,120,0.0,0.0
839,84.0,120,120,0.0,0.0
840,92.0,120,120,0.0,0.0
841,89.0,0,240,0.0,0.0
842,37.0,120,120,0.0,0.0
843,85.0,360,240,0.0,0.0
844,44.0,120,120,0.0,0.0
845,53.0,120,120,0.0,0.0
846,61.0,0,240,0.0,0.0
847,65.0,120,120,0.0,0.0
848,73.0,120,120,0.0,0.0
849,80.0,120,120,0.0,0.0
850,77.0,120,120,0.0,0.0
851,85.0,120,120,0.0,0.0
852,94.0,120,120,0.0,0.0
853,84.0,360,240,0.0,0.0
854,92.0,0,240,0.0,0.0
855,32.0,120,120,0.0,0.0
856,44.0,120,120,0.0,0.0
857,51.0,120,120,0.0,0.0
858,66.0,120,120,0.0,0.0
859,60.0,0,240,0.0,0.0
860,72.0,120,120,0.0,0.0
861,80.0,120,120,0.0,0.0
862,78.0,120,120,0.0,0.0
863,84.0,120,120,0.0,0.0
864,92.0,240,120,0.0,0.0
865,85.0,0,240,0.0,0.0
866,89.0,0,240,0.0,0.0
867,25.0,360,240,0.0,0.0
868,44.0,120,120,0.0,0.0
869,53.0,120,120,0.0,0.0
870,65.0,120,120,0.0,0.0
871,61.0,120,240,0.0,0.0
872,73.0,0,120,0.0,0.0
873,80.0,120,120,0.0,0.0
874,77.0,120,120,0.0,0.0
875,85.0,120,120,0.0,0.0
876,92.0,120,120,0.0,0.0
877,85.0,120,120,0.0,0.0
878,77.0,120,120,0.0,0.0
879,80.0,120,120,0.0,0.0
880,73.0,120,120,0.0,0.0
881,65.0,120,120,0.0,0.0
882,68.0,120,120,0.0,0.0
883,61.0,120,120,0.0,0.0
884,53.0,120,120,0.0,0.0
885,56.0,120,120,0.0,0.0
886,49.0,120,120,0.0,0.0
887,41.0,120,120,0.0,0.0
888,49.0,120,120,0.0,0.0
889,37.0,0,120,0.0,0.0
890,25.0,1320,120,0.0,0.0
891,97.0,0,720,0.0,0.0
892,85.0,0,720,0.0,0.0
893,61.0,0,720,0.0,0.0
894,73.0,2000,720,0.0,0.0
895,57.0,0,80,0.0,0.0
896,45.0,80,80,0.0,0.0
897,46.0,0,80,0.0,0.0
898,58.0,80,80,0.0,0.0
899,61.0,0,80,0.0,0.0
900,49.0,120,80,0.0,0.0
901,53.0,440,120,0.0,0.0
902,65.0,0,120,0.0,0.0
903,57.0,0,80,0.0,0.0
904,45.0,80,80,0.0,0.0
905,46.0,0,80,0.0,0.0
906,58.0,80,80,0.0,0.0
907,49.0,0,80,0.0,0.0
908,61.0,120,80,0.0,0.0
909,65.0,0,120,0.0,0.0
910,53.0,1440,120,0.0,0.0
911,46.0,2040,120,0.0,0.0
912,34.0,0,120,0.0,0.0
913,58.0,0,120,0.0,0.0
914,94.0,0,1440,0.0,0.0
915,63.0,0,1440,0.0,0.0
916,60.0,0,1440,0.0,0.0
917,82.0,0,1440,0.0,0.0
918,90.0,0,1440,0.0,0.0
919,66.0,0,0,0.0,0.0
920,70.0,0,0,0.0,0.0
921,75.0,0,360,0.0,0.0
922,58.0,360,0,0.0,0.0
923,63.0,0,360,0.0,0.0
924,87.0,0,360,0.0,0.0
925,70.0,0,0,0.0,0.0
926,89.0,0,120,0.0,0.0
927,84.0,0,0,0.0,0.0
928,77.0,0,120,0.0,0.0
929,60.0,0,0,0.0,0.0
930,58.0,0,0,0.0,0.0
931,66.0,120,0,0.0,0.0
932,90.0,0,240,0.0,0.0
933,78.0,240,240,0.0,0.0
934,84.0,0,240,0.0,0.0
935,70.0,240,0,0.0,0.0
936,60.0,0,0,0.0,0.0
937,63.0,0,0,0.0,0.0
938,58.0,0,0,0.0,0.0
939,66.0,0,240,0.0,0.0
940,58.0,0,0,0.0,0.0
941,70.0,0,0,0.0,0.0
942,65.0,0,240,0.0,0.0
943,61.0,320,240,0.0,0.0
944,77.0,0,240,0.0,0.0
945,85.0,0,240,0.0,0.0
946,89.0,0,240,0.0,0.0
947,57.0,0,80,0.0,0.0
948,45.0,80,80,0.0,0.0
949,46.0,0,80,0.0,0.0
950,58.0,80,80,0.0,0.0
951,61.0,0,80,0.0,0.0
952,49.0,120,80,0.0,0.0
953,65.0,440,120,0.0,0.0
954,53.0,0,120,0.0,0.0
955,57.0,80,80,0.0,0.0
956,45.0,0,80,0.0,0.0
957,46.0,0,80,0.0,0.0
958,58.0,80,80,0.0,0.0
959,49.0,0,80,0.0,0.0
960,61.0,120,80,0.0,0.0
961,53.0,1440,120,0.0,0.0
962,65.0,0,120,0.0,0.0
963,56.0,2040,120,0.0,0.0
964,32.0,0,120,0.0,0.0
965,44.0,0,120,0.0,0.0
966,73.0,0,1440,0.0,0.0
967,65.0,0,1440,0.0,0.0
968,80.0,0,1440,0.0,0.0
969,92.0,144,1440,0.0,0.0
970,89.0,0,1440,0.0,0.0
971,63.0,0,144,0.0,0.0
972,56.0,0,0,0.0,0.0
973,75.0,144,144,0.0,0.0
974,84.0,0,144,0.0,0.0
975,87.0,0,144,0.0,0.0
976,68.0,0,0,0.0,0.0
977,66.0,0,0,0.0,0.0
978,63.0,0,144,0.0,0.0
979,56.0,0,144,0.0,0.0
980,88.0,144,144,0.0,0.0
981,76.0,0,144,0.0,0.0
982,89.0,144,144,0.0,0.0
983,84.0,0,0,0.0,0.0
984,68.0,0,144,0.0,0.0
985,66.0,0,144,0.0,0.0
986,77.0,0,144,0.0,0.0
987,56.0,0,144,0.0,0.0
988,68.0,0,144,0.0,0.0
989,63.0,0,0,0.0,0.0
990,80.0,0,144,0.0,0.0
991,84.0,0,0,0.0,0.0
992,92.0,144,144,0.0,0.0
993,56.0,0,0,0.0,0.0
994,63.0,0,0,0.0,0.0
995,66.0,0,0,0.0,0.0
996,90.0,0,144,0.0,0.0
997,84.0,0,144,0.0,0.0
998,78.0,0,144,0.0,0.0
999,65.0,960,240,0.0,0.0
1000,61.0,0,240,0.0,0.0
1001,68.0,240,0,0.0,0.0
1002,85.0,0,240,0.0,0.0
1003,77.0,0,240,0.0,0.0
1004,89.0,0,240,0.0,0.0
1005,69.0,0,480,0.0,0.0
1006,77.0,0,480,0.0,0.0
1007,60.0,0,480,0.0,0.0
1008,65.0,720,480,0.0,0.0
1009,53.0,0,480,0.0,0.0
1010,48.0,0,480,0.0,0.0
1011,53.0,0,480,0.0,0.0
1012,41.0,0,480,0.0,0.0
1013,65.0,1920,480,0.0,0.0
1014,57.0,0,480,0.0,0.0
1015,29.0,0,1680,0.0,0.0
1016,41.0,180,1680,0.0,0.0
1017,30.0,2300,180,0.0,0.0
1018,42.0,0,180,0.0,0.0
1019,45.0,0,80,0.0,0.0
1020,57.0,80,80,0.0,0.0
1021,46.0,0,80,0.0,0.0
1022,58.0,80,80,0.0,0.0
1023,61.0,120,80,0.0,0.0
1024,49.0,0,80,0.0,0.0
1025,53.0,440,120,0.0,0.0
1026,65.0,0,120,0.0,0.0
1027,45.0,80,80,0.0,0.0
1028,57.0,0,80,0.0,0.0
1029,46.0,80,80,0.0,0.0
1030,58.0,0,80,0.0,0.0
1031,61.0,0,80,0.0,0.0
1032,49.0,120,80,0.0,0.0
1033,65.0,1440,120,0.0,0.0
1034,53.0,0,120,0.0,0.0
1035,34.0,0,120,0.0,0.0
1036,46.0,1680,120,0.0,0.0
1037,58.0,0,120,0.0,0.0
1038,63.0,0,1080,0.0,0.0
1039,94.0,0,1080,0.0,0.0
1040,90.0,0,1080,0.0,0.0
1041,82.0,0,1080,0.0,0.0
1042,60.0,0,1080,0.0,0.0
1043,87.0,0,120,0.0,0.0
1044,70.0,0,0,0.0,0.0
1045,66.0,120,0,0.0,0.0
1046,60.0,0,120,0.0,0.0
1047,58.0,0,0,0.0,0.0
1048,63.0,0,0,0.0,0.0
1049,66.0,0,0,0.0,0.0
1050,58.0,0,240,0.0,0.0
1051,75.0,240,0,0.0,0.0
1052,84.0,0,0,0.0,0.0
1053,60.0,0,240,0.0,0.0
1054,66.0,0,0,0.0,0.0
1055,63.0,0,0,0.0,0.0
1056,60.0,0,360,0.0,0.0
1057,70.0,0,0,0.0,0.0
1058,87.0,0,0,0.0,0.0
1059,84.0,0,0,0.0,0.0
1060,75.0,360,0,0.0,0.0
1061,63.0,0,0,0.0,0.0
1062,58.0,0,0,0.0,0.0
1063,66.0,0,0,0.0,0.0
1064,89.0,240,120,0.0,0.0
1065,77.0,0,120,0.0,0.0
1066,70.0,0,0,0.0,0.0
1067,60.0,0,0,0.0,0.0
1068,58.0,0,0,0.0,0.0
1069,66.0,0,0,0.0,0.0
1070,63.0,0,0,0.0,0.0
1071,90.0,0,240,0.0,0.0
1072,78.0,0,240,0.0,0.0
1073,84.0,0,0,0.0,0.0
1074,70.0,0,0,0.0,0.0
1075,61.0,0,240,0.0,0.0
1076,65.0,0,240,0.0,0.0
1077,77.0,0,240,0.0,0.0
1078,58.0,0,240,0.0,0.0
1079,89.0,320,240,0.0,0.0
1080,85.0,0,240,0.0,0.0
1081,45.0,0,80,0.0,0.0
1082,57.0,80,80,0.0,0.0
1083,46.0,0,80,0.0,0.0
1084,58.0,80,80,0.0,0.0
1085,49.0,0,80,0.0,0.0
1086,61.0,120,80,0.0,0.0
1087,53.0,0,120,0.0,0.0
1088,65.0,440,120,0.0,0.0
1089,45.0,0,80,0.0,0.0
1090,57.0,80,80,0.0,0.0
1091,46.0,0,80,0.0,0.0
1092,58.0,80,80,0.0,0.0
1093,49.0,0,80,0.0,0.0
1094,61.0,120,80,0.0,0.0
1095,65.0,0,120,0.0,0.0
1096,53.0,1440,120,0.0,0.0
1097,36.0,0,120,0.0,0.0
1098,48.0,0,120,0.0,0.0
1099,24.0,2040,120,0.0,0.0
1100,72.0,0,1440,0.0,0.0
1101,68.0,0,1440,0.0,0.0
1102,60.0,0,1440,0.0,0.0
1103,96.0,180,1440,0.0,0.0
1104,92.0,0,1440,0.0,0.0
1105,84.0,0,1440,0.0,0.0
1106,65.0,0,1440,0.0,0.0
1107,60.0,0,180,0.0,0.0
1108,72.0,0,180,0.0,0.0
1109,97.0,0,180,0.0,0.0
1110,85.0,0,180,0.0,0.0
1111,91.0,0,0,0.0,0.0
1112,72.0,0,180,0.0,0.0
1113,70.0,180,0,0.0,0.0
1114,64.0,0,0,0.0,0.0
1115,96.0,0,180,0.0,0.0
1116,60.0,0,0,0.0,0.0
1117,84.0,180,0,0.0,0.0
1118,77.0,0,180,0.0,0.0
1119,89.0,0,180,0.0,0.0
1120,91.0,240,180,0.0,0.0
1121,79.0,0,180,0.0,0.0
1122,72.0,0,0,0.0,0.0
1123,70.0,180,0,0.0,0.0
1124,60.0,0,0,0.0,0.0
1125,64.0,0,0,0.0,0.0
1126,84.0,0,180,0.0,0.0
1127,89.0,0,240,0.0,0.0
1128,80.0,0,240,0.0,0.0
1129,92.0,960,240,0.0,0.0
1130,68.0,0,240,0.0,0.0
1131,65.0,0,240,0.0,0.0
1132,72.0,0,0,0.0,0.0
1133,72.0,0,480,0.0,0.0
1134,80.0,0,480,0.0,0.0
1135,77.0,0,480,0.0,0.0
1136,60.0,0,480,0.0,0.0
1137,65.0,0,480,0.0,0.0
1138,53.0,0,480,0.0,0.0
1139,68.0,720,480,0.0,0.0
1140,53.0,0,480,0.0,0.0
1141,41.0,0,480,0.0,0.0
1142,48.0,0,480,0.0,0.0
1143,60.0,0,480,0.0,0.0
1144,68.0,0,480,0.0,0.0
1145,56.0,1680,480,0.0,0.0
1146,65.0,0,480,0.0,0.0
1147,40.0,0,1440,0.0,0.0
1148,28.0,720,1440,0.0,0.0
1149,29.0,0,720,0.0,0.0
1150,41.0,80,720,0.0,0.0
1151,26.0,0,80,0.0,0.0
1152,38.0,80,80,0.0,0.0
1153,39.0,80,80,0.0,0.0
1154,27.0,0,80,0.0,0.0
1155,29.0,0,80,0.0,0.0
1156,41.0,80,0,0.0,0.0
1157,29.0,80,80,0.0,0.0
1158,39.0,80,80,0.0,0.0
1159,27.0,0,80,0.0,0.0
1160,29.0,0,80,0.0,0.0
1161,41.0,75,80,0.0,0.0
1162,27.0,0,75,0.0,0.0
1163,39.0,75,75,0.0,0.0
1164,29.0,0,75,0.0,0.0
1165,41.0,70,75,0.0,0.0
1166,27.0,70,70,0.0,0.0
1167,39.0,0,70,0.0,0.0
1168,41.0,0,70,0.0,0.0
1169,29.0,70,70,0.0,0.0
1170,39.0,0,70,0.0,0.0
1171,27.0,70,70,0.0,0.0
1172,41.0,60,70,0.0,0.0
1173,29.0,0,70,0.0,0.0
1174,39.0,60,60,0.0,0.0
1175,27.0,0,60,0.0,0.0
1176,29.0,60,60,0.0,0.0
1177,41.0,0,60,0.0,0.0
1178,39.0,0,60,0.0,0.0
1179,27.0,60,60,0.0,0.0
1180,41.0,0,60,0.0,0.0
1181,29.0,60,60,0.0,0.0
1182,39.0,60,60,0.0,0.0
1183,27.0,0,60,0.0,0.0
1184,29.0,0,60,0.0,0.0
1185,41.0,85,60,0.0,0.0
1186,26.0,85,85,0.0,0.0
1187,38.0,0,85,0.0,0.0
1188,39.0,0,85,0.0,0.0
1189,27.0,120,85,0.0,0.0
1190,25.0,600,120,0.0,0.0
1191,101.0,120,960,0.0,0.0
1192,37.0,0,120,0.0,0.0
1193,44.0,240,240,0.0,0.0
1194,56.0,0,240,0.0,0.0
1195,53.0,0,240,0.0,0.0
1196,61.0,0,240,0.0,0.0
1197,99.0,120,120,0.0,0.0
1198,97.0,120,120,0.0,0.0
1199,92.0,120,120,0.0,0.0
1200,56.0,0,240,0.0,0.0
1201,44.0,0,240,0.0,0.0
1202,89.0,120,120,0.0,0.0
1203,53.0,0,240,0.0,0.0
1204,61.0,0,240,0.0,0.0
1205,87.0,120,120,0.0,0.0
1206,85.0,120,120,0.0,0.0
1207,80.0,120,120,0.0,0.0
1208,77.0,120,120,0.0,0.0
1209,75.0,120,120,0.0,0.0
1210,73.0,240,120,0.0,0.0
1211,68.0,600,240,0.0,0.0
1212,32.0,0,120,0.0,0.0
1213,44.0,0,120,0.0,0.0
1214,72.0,120,120,0.0,0.0
1215,73.0,120,120,0.0,0.0
1216,75.0,120,120,0.0,0.0
1217,77.0,120,120,0.0,0.0
1218,78.0,113,120,0.0,0.0
1219,80.0,127,120,0.0,0.0
1220,55.0,0,240,0.0,0.0
1221,81.0,120,120,0.0,0.0
1222,60.0,240,0,0.0,0.0
1223,66.0,0,0,0.0,0.0
1224,56.0,0,0,0.0,0.0
1225,60.0,0,0,0.0,0.0
1226,66.0,120,0,0.0,0.0
1227,81.0,120,120,0.0,0.0
1228,80.0,120,120,0.0,0.0
1229,79.0,120,120,0.0,0.0
1230,78.0,120,120,0.0,0.0
1231,77.0,120,120,0.0,0.0
1232,76.0,120,120,0.0,0.0
1233,60.0,0,240,0.0,0.0
1234,75.0,120,120,0.0,0.0
1235,66.0,0,240,0.0,0.0
1236,57.0,240,240,0.0,0.0
1237,66.0,0,240,0.0,0.0
1238,56.0,0,0,0.0,0.0
1239,66.0,0,120,0.0,0.0
1240,60.0,120,0,0.0,0.0
1241,37.0,600,120,0.0,0.0
1242,25.0,0,120,0.0,0.0
1243,101.0,0,960,0.0,0.0
1244,56.0,0,240,0.0,0.0
1245,44.0,240,240,0.0,0.0
1246,61.0,120,240,0.0,0.0
1247,53.0,0,240,0.0,0.0
1248,99.0,120,120,0.0,0.0
1249,97.0,120,120,0.0,0.0
1250,44.0,120,240,0.0,0.0
1251,56.0,0,240,0.0,0.0
1252,92.0,120,120,0.0,0.0
1253,89.0,0,120,0.0,0.0
1254,87.0,120,120,0.0,0.0
1255,53.0,0,240,0.0,0.0
1256,61.0,120,240,0.0,0.0
1257,85.0,0,120,0.0,0.0
1258,80.0,120,120,0.0,0.0
1259,77.0,120,120,0.0,0.0
1260,75.0,120,120,0.0,0.0
1261,73.0,240,120,0.0,0.0
1262,68.0,600,240,0.0,0.0
1263,72.0,120,120,0.0,0.0
1264,65.0,0,720,0.0,0.0
1265,73.0,120,120,0.0,0.0
1266,75.0,120,120,0.0,0.0
1267,77.0,120,120,0.0,0.0
1268,78.0,113,120,0.0,0.0
1269,80.0,7,120,0.0,0.0
1270,81.0,120,120,0.0,0.0
1271,60.0,0,120,0.0,0.0
1272,61.0,120,120,0.0,0.0
1273,63.0,120,120,0.0,0.0
1274,65.0,120,120,0.0,0.0
1275,66.0,120,120,0.0,0.0
1276,68.0,120,120,0.0,0.0
1277,81.0,120,120,0.0,0.0
1278,69.0,0,120,0.0,0.0
1279,80.0,120,120,0.0,0.0
1280,79.0,120,120,0.0,0.0
1281,78.0,120,120,0.0,0.0
1282,77.0,120,120,0.0,0.0
1283,76.0,120,120,0.0,0.0
1284,75.0,0,240,0.0,0.0
1285,57.0,120,120,0.0,0.0
1286,56.0,120,120,0.0,0.0
1287,55.0,120,120,0.0,0.0
1288,54.0,120,120,0.0,0.0
1289,53.0,120,120,0.0,0.0
1290,51.0,120,120,0.0,0.0
1291,49.0,120,120,0.0,0.0
1292,77.0,120,960,0.0,0.0
1293,56.0,120,120,0.0,0.0
1294,61.0,120,120,0.0,0.0
1295,65.0,120,120,0.0,0.0
1296,61.0,120,120,0.0,0.0
1297,56.0,120,120,0.0,0.0
1298,49.0,120,120,0.0,0.0
1299,59.0,0,120,0.0,0.0
1300,61.0,120,120,0.0,0.0
1301,75.0,120,360,0.0,0.0
1302,65.0,120,120,0.0,0.0
1303,61.0,0,120,0.0,0.0
1304,59.0,0,120,0.0,0.0
1305,71.0,120,0,0.0,0.0
1306,73.0,0,0,0.0,0.0
1307,54.0,120,120,0.0,0.0
1308,59.0,120,120,0.0,0.0
1309,61.0,120,120,0.0,0.0
1310,66.0,120,120,0.0,0.0
1311,61.0,120,120,0.0,0.0
1312,59.0,0,120,0.0,0.0
1313,49.0,120,120,0.0,0.0
1314,70.0,0,720,0.0,0.0
1315,78.0,0,1200,0.0,0.0
1316,58.0,120,120,0.0,0.0
1317,61.0,120,120,0.0,0.0
1318,66.0,120,120,0.0,0.0
1319,61.0,120,120,0.0,0.0
1320,58.0,120,120,0.0,0.0
1321,71.0,0,1440,0.0,0.0
1322,56.0,120,120,0.0,0.0
1323,59.0,120,120,0.0,0.0
1324,61.0,120,120,0.0,0.0
1325,68.0,120,120,0.0,0.0
1326,77.0,0,240,0.0,0.0
1327,61.0,120,120,0.0,0.0
1328,59.0,120,120,0.0,0.0
1329,49.0,120,120,0.0,0.0
1330,77.0,120,240,0.0,0.0
1331,59.0,0,120,0.0,0.0
1332,75.0,120,240,0.0,0.0
1333,61.0,120,120,0.0,0.0
1334,65.0,0,120,0.0,0.0
1335,73.0,0,240,0.0,0.0
1336,61.0,120,120,0.0,0.0
1337,59.0,120,120,0.0,0.0
1338,70.0,0,720,0.0,0.0
1339,54.0,120,120,0.0,0.0
1340,58.0,120,120,0.0,0.0
1341,61.0,120,120,0.0,0.0
1342,66.0,120,120,0.0,0.0
1343,61.0,120,120,0.0,0.0
1344,58.0,0,120,0.0,0.0
1345,73.0,0,0,0.0,0.0
1346,82.0,120,0,0.0,0.0
1347,52.0,120,120,0.0,0.0
1348,58.0,120,120,0.0,0.0
1349,61.0,120,120,0.0,0.0
1350,68.0,120,120,0.0,0.0
1351,61.0,120,120,0.0,0.0
1352,82.0,120,240,0.0,0.0
1353,58.0,0,120,0.0,0.0
1354,67.0,0,60,0.0,0.0
1355,73.0,0,1440,0.0,0.0
1356,82.0,120,480,0.0,0.0
1357,51.0,120,120,0.0,0.0
1358,58.0,120,120,0.0,0.0
1359,61.0,120,120,0.0,0.0
1360,67.0,0,120,0.0,0.0
1361,61.0,120,120,0.0,0.0
1362,75.0,120,240,0.0,0.0
1363,58.0,0,120,0.0,0.0
1364,55.0,120,120,0.0,0.0
1365,75.0,0,240,0.0,0.0
1366,61.0,60,120,0.0,0.0
1367,63.0,120,120,0.0,0.0
1368,77.0,60,60,0.0,0.0
1369,79.0,0,60,0.0,0.0
1370,77.0,0,240,0.0,0.0
1371,70.0,120,120,0.0,0.0
1372,63.0,120,120,0.0,0.0
1373,61.0,0,120,0.0,0.0
1374,75.0,120,0,0.0,0.0
1375,73.0,0,720,0.0,0.0
1376,56.0,120,120,0.0,0.0
1377,61.0,120,120,0.0,0.0
1378,63.0,120,120,0.0,0.0
1379,68.0,120,120,0.0,0.0
1380,63.0,120,120,0.0,0.0
1381,61.0,120,120,0.0,0.0
1382,80.0,0,960,0.0,0.0
1383,51.0,120,120,0.0,0.0
1384,72.0,0,720,0.0,0.0
1385,60.0,120,120,0.0,0.0
1386,63.0,120,120,0.0,0.0
1387,68.0,120,120,0.0,0.0
1388,63.0,120,120,0.0,0.0
1389,60.0,120,120,0.0,0.0
1390,73.0,0,1440,0.0,0.0
1391,58.0,120,120,0.0,0.0
1392,61.0,120,120,0.0,0.0
1393,79.0,0,240,0.0,0.0
1394,63.0,120,120,0.0,0.0
1395,70.0,120,120,0.0,0.0
1396,77.0,0,240,0.0,0.0
1397,63.0,120,120,0.0,0.0
1398,61.0,120,120,0.0,0.0
1399,79.0,120,240,0.0,0.0
1400,51.0,120,120,0.0,0.0
1401,61.0,0,120,0.0,0.0
1402,63.0,120,120,0.0,0.0
1403,77.0,120,360,0.0,0.0
1404,67.0,120,120,0.0,0.0
1405,63.0,0,120,0.0,0.0
1406,61.0,0,120,0.0,0.0
1407,75.0,120,120,0.0,0.0
1408,56.0,120,120,0.0,0.0
1409,72.0,240,1440,0.0,0.0
1410,84.0,0,720,0.0,0.0
1411,60.0,120,120,0.0,0.0
1412,63.0,120,120,0.0,0.0
1413,68.0,120,120,0.0,0.0
1414,63.0,120,120,0.0,0.0
1415,60.0,240,120,0.0,0.0
1416,55.0,0,720,0.0,0.0
1417,56.0,120,120,0.0,0.0
1418,60.0,120,120,0.0,0.0
1419,63.0,0,120,0.0,0.0
1420,60.0,120,120,0.0,0.0
1421,84.0,120,0,0.0,0.0
1422,56.0,0,120,0.0,0.0
1423,54.0,0,720,0.0,0.0
1424,84.0,120,960,0.0,0.0
1425,56.0,120,120,0.0,0.0
1426,60.0,120,120,0.0,0.0
1427,63.0,120,120,0.0,0.0
1428,60.0,120,120,0.0,0.0
1429,56.0,240,120,0.0,0.0
1430,54.0,0,720,0.0,0.0
1431,56.0,0,120,0.0,0.0
1432,82.0,0,360,0.0,0.0
1433,60.0,120,120,0.0,0.0
1434,63.0,120,120,0.0,0.0
1435,60.0,120,120,0.0,0.0
1436,56.0,240,120,0.0,0.0
1437,80.0,0,0,0.0,0.0
1438,56.0,120,120,0.0,0.0
1439,61.0,120,120,0.0,0.0
1440,65.0,120,120,0.0,0.0
1441,61.0,120,120,0.0,0.0
1442,56.0,120,120,0.0,0.0
1443,53.0,0,0,0.0,0.0
1444,56.0,120,120,0.0,0.0
1445,61.0,120,120,0.0,0.0
1446,68.0,120,120,0.0,0.0
1447,61.0,120,120,0.0,0.0
1448,56.0,0,120,0.0,0.0
1449,51.0,120,120,0.0,0.0
1450,85.0,120,0,0.0,0.0
1451,56.0,120,120,0.0,0.0
1452,60.0,120,120,0.0,0.0
1453,66.0,120,120,0.0,0.0
1454,84.0,120,240,0.0,0.0
1455,60.0,120,120,0.0,0.0
1456,56.0,0,120,0.0,0.0
1457,51.0,120,120,0.0,0.0
1458,84.0,0,240,0.0,0.0
1459,56.0,120,120,0.0,0.0
1460,82.0,120,360,0.0,0.0
1461,60.0,120,120,0.0,0.0
1462,66.0,120,120,0.0,0.0
1463,60.0,0,120,0.0,0.0
1464,80.0,0,120,0.0,0.0
1465,56.0,120,120,0.0,0.0
1466,50.0,120,120,0.0,0.0
1467,56.0,120,120,0.0,0.0
1468,59.0,120,120,0.0,0.0
1469,65.0,120,120,0.0,0.0
1470,59.0,120,120,0.0,0.0
1471,56.0,120,120,0.0,0.0
1472,50.0,120,120,0.0,0.0
1473,89.0,0,0,0.0,0.0
1474,56.0,120,120,0.0,0.0
1475,58.0,120,120,0.0,0.0
1476,65.0,0,120,0.0,0.0
1477,58.0,120,120,0.0,0.0
1478,89.0,120,240,0.0,0.0
1479,56.0,0,120,0.0,0.0
1480,51.0,120,120,0.0,0.0
1481,89.0,0,720,0.0,0.0
1482,54.0,120,120,0.0,0.0
1483,58.0,120,120,0.0,0.0
1484,63.0,120,120,0.0,0.0
1485,58.0,120,120,0.0,0.0
1486,54.0,120,120,0.0,0.0
1487,42.0,120,120,0.0,0.0
1488,87.0,120,240,0.0,0.0
1489,54.0,0,120,0.0,0.0
1490,58.0,120,120,0.0,0.0
1491,85.0,120,240,0.0,0.0
1492,63.0,0,120,0.0,0.0
1493,58.0,120,120,0.0,0.0
1494,82.0,0,240,0.0,0.0
1495,54.0,120,120,0.0,0.0
1496,44.0,120,120,0.0,0.0
1497,84.0,120,720,0.0,0.0
1498,53.0,120,120,0.0,0.0
1499,56.0,120,120,0.0,0.0
1500,61.0,120,120,0.0,0.0
1501,56.0,120,120,0.0,0.0
1502,53.0,0,120,0.0,0.0
1503,44.0,120,120,0.0,0.0
1504,82.0,0,240,0.0,0.0
1505,53.0,120,120,0.0,0.0
1506,80.0,120,240,0.0,0.0
1507,56.0,120,120,0.0,0.0
1508,61.0,0,120,0.0,0.0
1509,77.0,120,240,0.0,0.0
1510,56.0,120,120,0.0,0.0
1511,53.0,0,120,0.0,0.0
1512,82.0,0,240,0.0,0.0
1513,44.0,120,120,0.0,0.0
1514,54.0,120,120,0.0,0.0
1515,80.0,120,240,0.0,0.0
1516,56.0,120,120,0.0,0.0
1517,60.0,0,120,0.0,0.0
1518,56.0,120,120,0.0,0.0
1519,78.0,60,240,0.0,0.0
1520,54.0,0,120,0.0,0.0
1521,44.0,120,120,0.0,0.0
1522,78.0,60,60,0.0,0.0
1523,80.0,0,60,0.0,0.0
1524,78.0,0,120,0.0,0.0
1525,54.0,120,120,0.0,0.0
1526,77.0,0,360,0.0,0.0
1527,56.0,120,120,0.0,0.0
1528,60.0,120,120,0.0,0.0
1529,56.0,120,120,0.0,0.0
1530,76.0,120,120,0.0,0.0
1531,54.0,0,120,0.0,0.0
1532,49.0,120,120,0.0,0.0
1533,76.0,120,720,0.0,0.0
1534,56.0,120,120,0.0,0.0
1535,61.0,120,120,0.0,0.0
1536,65.0,120,120,0.0,0.0
1537,61.0,120,120,0.0,0.0
1538,58.0,0,120,0.0,0.0
1539,77.0,120,480,0.0,0.0
1540,56.0,120,120,0.0,0.0
1541,61.0,120,120,0.0,0.0
1542,65.0,120,120,0.0,0.0
1543,68.0,0,120,0.0,0.0
1544,65.0,120,120,0.0,0.0
1545,80.0,0,240,0.0,0.0
1546,61.0,240,120,0.0,0.0
1547,68.0,0,480,0.0,0.0
1548,54.0,0,720,0.0,0.0
1549,80.0,0,660,0.0,0.0
1550,56.0,120,120,0.0,0.0
1551,60.0,120,120,0.0,0.0
1552,63.0,120,120,0.0,0.0
1553,60.0,120,120,0.0,0.0
1554,72.0,0,480,0.0,0.0
1555,56.0,240,120,0.0,0.0
1556,84.0,120,240,0.0,0.0
1557,54.0,0,720,0.0,0.0
1558,56.0,0,120,0.0,0.0
1559,70.0,0,360,0.0,0.0
1560,82.0,120,360,0.0,0.0
1561,60.0,120,120,0.0,0.0
1562,63.0,120,120,0.0,0.0
1563,60.0,0,120,0.0,0.0
1564,80.0,0,120,0.0,0.0
1565,68.0,0,120,0.0,0.0
1566,56.0,240,120,0.0,0.0
1567,53.0,120,720,0.0,0.0
1568,68.0,0,720,0.0,0.0
1569,56.0,120,120,0.0,0.0
1570,61.0,120,120,0.0,0.0
1571,65.0,120,120,0.0,0.0
1572,61.0,120,120,0.0,0.0
1573,56.0,0,120,0.0,0.0
1574,53.0,120,120,0.0,0.0
1575,56.0,120,120,0.0,0.0
1576,61.0,120,120,0.0,0.0
1577,68.0,120,120,0.0,0.0
1578,61.0,120,120,0.0,0.0
1579,56.0,120,120,0.0,0.0
1580,85.0,0,0,0.0,0.0
1581,73.0,0,0,0.0,0.0
1582,80.0,0,0,0.0,0.0
1583,51.0,120,120,0.0,0.0
1584,56.0,120,120,0.0,0.0
1585,60.0,0,120,0.0,0.0
1586,66.0,0,120,0.0,0.0
1587,72.0,0,0,0.0,0.0
1588,60.0,120,120,0.0,0.0
1589,84.0,120,0,0.0,0.0
1590,56.0,0,120,0.0,0.0
1591,51.0,120,120,0.0,0.0
1592,84.0,0,0,0.0,0.0
1593,72.0,0,0,0.0,0.0
1594,78.0,0,0,0.0,0.0
1595,80.0,120,0,0.0,0.0
1596,56.0,120,120,0.0,0.0
1597,60.0,0,120,0.0,0.0
1598,82.0,0,120,0.0,0.0
1599,70.0,120,120,0.0,0.0
1600,66.0,0,120,0.0,0.0
1601,60.0,120,120,0.0,0.0
1602,78.0,0,240,0.0,0.0
1603,68.0,0,240,0.0,0.0
1604,80.0,0,240,0.0,0.0
1605,56.0,120,120,0.0,0.0
1606,77.0,0,720,0.0,0.0
1607,50.0,120,120,0.0,0.0
1608,56.0,120,120,0.0,0.0
1609,59.0,120,120,0.0,0.0
1610,65.0,120,120,0.0,0.0
1611,59.0,120,120,0.0,0.0
1612,56.0,120,120,0.0,0.0
1613,50.0,120,120,0.0,0.0
1614,89.0,0,0,0.0,0.0
1615,80.0,0,0,0.0,0.0
1616,77.0,0,480,0.0,0.0
1617,56.0,120,120,0.0,0.0
1618,58.0,120,120,0.0,0.0
1619,65.0,120,120,0.0,0.0
1620,77.0,0,240,0.0,0.0
1621,80.0,0,240,0.0,0.0
1622,89.0,0,240,0.0,0.0
1623,58.0,120,120,0.0,0.0
1624,56.0,120,120,0.0,0.0
1625,77.0,120,720,0.0,0.0
1626,80.0,0,720,0.0,0.0
1627,89.0,0,720,0.0,0.0
1628,51.0,120,120,0.0,0.0
1629,54.0,120,120,0.0,0.0
1630,58.0,120,120,0.0,0.0
1631,63.0,120,120,0.0,0.0
1632,58.0,120,120,0.0,0.0
1633,54.0,0,120,0.0,0.0
1634,78.0,0,240,0.0,0.0
1635,87.0,0,240,0.0,0.0
1636,42.0,120,120,0.0,0.0
1637,75.0,0,240,0.0,0.0
1638,54.0,120,120,0.0,0.0
1639,73.0,0,360,0.0,0.0
1640,85.0,0,360,0.0,0.0
1641,58.0,120,120,0.0,0.0
1642,63.0,120,120,0.0,0.0
1643,58.0,120,120,0.0,0.0
1644,82.0,120,120,0.0,0.0
1645,78.0,0,0,0.0,0.0
1646,70.0,0,120,0.0,0.0
1647,54.0,0,120,0.0,0.0
1648,44.0,120,120,0.0,0.0
1649,84.0,120,720,0.0,0.0
1650,80.0,0,720,0.0,0.0
1651,72.0,0,720,0.0,0.0
1652,53.0,120,120,0.0,0.0
1653,56.0,120,120,0.0,0.0
1654,61.0,120,120,0.0,0.0
1655,56.0,120,120,0.0,0.0
1656,53.0,0,120,0.0,0.0
1657,44.0,120,120,0.0,0.0
1658,82.0,120,240,0.0,0.0
1659,78.0,0,240,0.0,0.0
1660,70.0,0,240,0.0,0.0
1661,53.0,0,120,0.0,0.0
1662,56.0,120,120,0.0,0.0
1663,80.0,0,240,0.0,0.0
1664,77.0,0,240,0.0,0.0
1665,68.0,120,240,0.0,0.0
1666,61.0,0,120,0.0,0.0
1667,70.0,0,240,0.0,0.0
1668,82.0,0,240,0.0,0.0
1669,56.0,120,120,0.0,0.0
1670,53.0,120,120,0.0,0.0
1671,77.0,0,0,0.0,0.0
1672,83.0,0,480,0.0,0.0
1673,71.0,0,480,0.0,0.0
1674,44.0,120,120,0.0,0.0
1675,53.0,120,120,0.0,0.0
1676,56.0,120,120,0.0,0.0
1677,62.0,0,120,0.0,0.0
1678,56.0,120,120,0.0,0.0
1679,77.0,0,240,0.0,0.0
1680,70.0,0,240,0.0,0.0
1681,82.0,120,240,0.0,0.0
1682,53.0,0,120,0.0,0.0
1683,44.0,120,120,0.0,0.0
1684,71.0,0,1200,0.0,0.0
1685,77.0,0,1200,0.0,0.0
1686,83.0,0,1200,0.0,0.0
1687,53.0,120,120,0.0,0.0
1688,56.0,120,120,0.0,0.0
1689,62.0,120,120,0.0,0.0
1690,56.0,120,120,0.0,0.0
1691,53.0,120,120,0.0,0.0
1692,44.0,120,120,0.0,0.0
1693,53.0,120,120,0.0,0.0
1694,56.0,120,120,0.0,0.0
1695,62.0,120,120,0.0,0.0
1696,82.0,120,240,0.0,0.0
1697,70.0,0,240,0.0,0.0
1698,56.0,120,120,0.0,0.0
1699,53.0,0,120,0.0,0.0
1700,44.0,120,120,0.0,0.0
1701,77.0,0,0,0.0,0.0
1702,71.0,0,240,0.0,0.0
1703,83.0,120,240,0.0,0.0
1704,53.0,0,120,0.0,0.0
1705,70.0,0,240,0.0,0.0
1706,56.0,120,120,0.0,0.0
1707,82.0,0,240,0.0,0.0
1708,62.0,0,120,0.0,0.0
1709,77.0,120,0,0.0,0.0
1710,83.0,0,240,0.0,0.0
1711,56.0,120,120,0.0,0.0
1712,53.0,120,120,0.0,0.0
1713,71.0,0,0,0.0,0.0
1714,44.0,120,120,0.0,0.0
1715,83.0,0,480,0.0,0.0
1716,51.0,120,120,0.0,0.0
1717,54.0,120,120,0.0,0.0
1718,63.0,120,120,0.0,0.0
1719,70.0,0,240,0.0,0.0
1720,82.0,0,240,0.0,0.0
1721,78.0,0,0,0.0,0.0
1722,54.0,120,120,0.0,0.0
1723,51.0,120,120,0.0,0.0
1724,90.0,0,1080,0.0,0.0
1725,94.0,0,1080,0.0,0.0
1726,44.0,120,120,0.0,0.0
1727,82.0,120,1080,0.0,0.0
1728,51.0,120,120,0.0,0.0
1729,54.0,120,120,0.0,0.0
1730,63.0,120,120,0.0,0.0
1731,54.0,120,120,0.0,0.0
1732,51.0,120,120,0.0,0.0
1733,44.0,120,120,0.0,0.0
1734,51.0,120,120,0.0,0.0
1735,54.0,0,120,0.0,0.0
1736,60.0,120,120,0.0,0.0
1737,78.0,0,120,0.0,0.0
1738,84.0,0,120,0.0,0.0
1739,72.0,0,0,0.0,0.0
1740,54.0,120,120,0.0,0.0
1741,51.0,0,120,0.0,0.0
1742,44.0,120,120,0.0,0.0
1743,84.0,0,0,0.0,0.0
1744,78.0,120,0,0.0,0.0
1745,72.0,0,360,0.0,0.0
1746,51.0,120,120,0.0,0.0
1747,54.0,0,120,0.0,0.0
1748,80.0,120,120,0.0,0.0
1749,77.0,0,120,0.0,0.0
1750,89.0,0,120,0.0,0.0
1751,60.0,0,120,0.0,0.0
1752,54.0,120,120,0.0,0.0
1753,87.0,120,240,0.0,0.0
1754,75.0,0,240,0.0,0.0
1755,78.0,0,240,0.0,0.0
1756,51.0,0,120,0.0,0.0
1757,37.0,0,120,0.0,0.0
1758,73.0,0,120,0.0,0.0
1759,85.0,0,120,0.0,0.0
1760,77.0,480,120,0.0,0.0
1761,44.0,120,120,0.0,0.0
1762,53.0,120,120,0.0,0.0
1763,61.0,0,240,0.0,0.0
1764,65.0,120,120,0.0,0.0
1765,73.0,120,120,0.0,0.0
1766,80.0,120,120,0.0,0.0
1767,77.0,120,120,0.0,0.0
1768,85.0,120,120,0.0,0.0
1769,94.0,120,120,0.0,0.0
1770,92.0,0,240,0.0,0.0
1771,32.0,120,120,0.0,0.0
1772,84.0,360,240,0.0,0.0
1773,44.0,120,120,0.0,0.0
1774,51.0,120,120,0.0,0.0
1775,60.0,0,240,0.0,0.0
1776,66.0,120,120,0.0,0.0
1777,72.0,120,120,0.0,0.0
1778,80.0,120,120,0.0,0.0
1779,78.0,120,120,0.0,0.0
1780,84.0,120,120,0.0,0.0
1781,92.0,120,120,0.0,0.0
1782,37.0,120,120,0.0,0.0
1783,85.0,0,240,0.0,0.0
1784,89.0,360,240,0.0,0.0
1785,44.0,120,120,0.0,0.0
1786,53.0,120,120,0.0,0.0
1787,65.0,120,120,0.0,0.0
1788,61.0,0,240,0.0,0.0
1789,73.0,120,120,0.0,0.0
1790,80.0,120,120,0.0,0.0
1791,77.0,120,120,0.0,0.0
1792,85.0,120,120,0.0,0.0
1793,94.0,120,120,0.0,0.0
1794,92.0,0,240,0.0,0.0
1795,84.0,360,240,0.0,0.0
1796,32.0,120,120,0.0,0.0
1797,44.0,120,120,0.0,0.0
1798,51.0,120,120,0.0,0.0
1799,66.0,120,120,0.0,0.0
1800,60.0,0,240,0.0,0.0
1801,72.0,120,120,0.0,0.0
1802,80.0,120,120,0.0,0.0
1803,78.0,120,120,0.0,0.0
1804,84.0,120,120,0.0,0.0
1805,92.0,240,120,0.0,0.0
1806,89.0,0,240,0.0,0.0
1807,25.0,360,240,0.0,0.0
1808,85.0,0,240,0.0,0.0
1809,44.0,120,120,0.0,0.0
1810,53.0,120,120,0.0,0.0
1811,61.0,0,240,0.0,0.0
1812,65.0,120,120,0.0,0.0
1813,73.0,120,120,0.0,0.0
1814,80.0,120,120,0.0,0.0
1815,77.0,120,120,0.0,0.0
1816,85.0,120,120,0.0,0.0
1817,92.0,120,120,0.0,0.0
1818,85.0,120,120,0.0,0.0
1819,77.0,120,120,0.0,0.0
1820,80.0,120,120,0.0,0.0
1821,73.0,120,120,0.0,0.0
1822,65.0,120,120,0.0,0.0
1823,68.0,120,120,0.0,0.0
1824,61.0,120,120,0.0,0.0
1825,53.0,120,120,0.0,0.0
1826,56.0,120,120,0.0,0.0
1827,49.0,120,120,0.0,0.0
1828,41.0,120,120,0.0,0.0
1829,49.0,120,120,0.0,0.0
1830,37.0,0,120,0.0,0.0
1831,25.0,1320,120,0.0,0.0
1832,85.0,2160,720,0.0,0.0
1833,97.0,0,720,0.0,0.0
1834,61.0,0,720,0.0,0.0
1835,73.0,0,720,0.0,0.0
1836,61.0,0,720,0.0,0.0
1837,52.0,720,720,0.0,0.0
1838,64.0,0,720,0.0,0.0
1839,33.0,0,720,0.0,0.0
1840,54.0,240,720,0.0,0.0
1841,61.0,240,960,0.0,0.0
1842,38.0,0,2160,0.0,0.0
1843,66.0,0,2160,0.0,0.0
1844,59.0,240,240,0.0,0.0
1845,61.0,240,240,0.0,0.0
1846,64.0,240,240,0.0,0.0
1847,62.0,240,240,0.0,0.0
1848,45.0,720,0,0.0,0.0
1849,33.0,0,720,0.0,0.0
1850,61.0,0,0,0.0,0.0
1851,64.0,720,720,0.0,0.0
1852,52.0,0,720,0.0,0.0
1853,38.0,0,2160,0.0,0.0
1854,66.0,720,2160,0.0,0.0
1855,61.0,240,960,0.0,0.0
1856,54.0,240,720,0.0,0.0
1857,59.0,240,240,0.0,0.0
1858,61.0,240,240,0.0,0.0
1859,64.0,360,240,0.0,0.0
1860,62.0,120,360,0.0,0.0
1861,50.0,0,1200,0.0,0.0
1862,40.0,240,1200,0.0,0.0
1863,61.0,0,0,0.0,0.0
1864,64.0,0,1440,0.0,0.0
1865,56.0,0,1200,0.0,0.0
1866,59.0,0,480,0.0,0.0
1867,57.0,0,240,0.0,0.0
1868,45.0,0,1680,0.0,0.0
1869,49.0,1440,240,0.0,0.0
1870,52.0,0,1440,0.0,0.0
1871,61.0,600,1440,0.0,0.0
1872,73.0,60,600,0.0,0.0
1873,58.0,0,240,0.0,0.0
1874,52.0,240,240,0.0,0.0
1875,55.0,0,240,0.0,0.0
1876,71.0,60,60,0.0,0.0
1877,73.0,0,60,0.0,0.0
1878,71.0,120,360,0.0,0.0
1879,59.0,120,240,0.0,0.0
1880,54.0,0,240,0.0,0.0
1881,50.0,0,240,0.0,0.0
1882,69.0,240,120,0.0,0.0
1883,62.0,0,240,0.0,0.0
1884,57.0,0,240,0.0,0.0
1885,54.0,360,240,0.0,0.0
1886,71.0,0,240,0.0,0.0
1887,61.0,0,480,0.0,0.0
1888,56.0,0,480,0.0,0.0
1889,53.0,120,480,0.0,0.0
1890,73.0,120,360,0.0,0.0
1891,74.0,0,120,0.0,0.0
1892,55.0,0,240,0.0,0.0
1893,73.0,60,120,0.0,0.0
1894,58.0,0,240,0.0,0.0
1895,52.0,0,240,0.0,0.0
1896,71.0,60,60,0.0,0.0
1897,73.0,240,60,0.0,0.0
1898,50.0,0,240,0.0,0.0
1899,54.0,120,240,0.0,0.0
1900,59.0,0,240,0.0,0.0
1901,71.0,120,360,0.0,0.0
1902,69.0,240,120,0.0,0.0
1903,54.0,0,240,0.0,0.0
1904,62.0,0,240,0.0,0.0
1905,57.0,0,240,0.0,0.0
1906,71.0,120,240,0.0,0.0
1907,73.0,120,120,0.0,0.0
1908,49.0,0,240,0.0,0.0
1909,56.0,0,180,0.0,0.0
1910,61.0,120,120,0.0,0.0
1911,65.0,0,120,0.0,0.0
1912,73.0,120,120,0.0,0.0
1913,68.0,120,120,0.0,0.0
1914,73.0,120,120,0.0,0.0
1915,68.0,120,120,0.0,0.0
1916,37.0,0,120,0.0,0.0
1917,80.0,120,120,0.0,0.0
1918,73.0,120,120,0.0,0.0
1919,80.0,120,120,0.0,0.0
1920,73.0,120,120,0.0,0.0
1921,85.0,120,120,0.0,0.0
1922,80.0,120,120,0.0,0.0
1923,85.0,120,120,0.0,0.0
1924,80.0,120,120,0.0,0.0
1925,92.0,120,120,0.0,0.0
1926,85.0,120,120,0.0,0.0
1927,92.0,120,120,0.0,0.0
1928,85.0,120,120,0.0,0.0
1929,97.0,1320,120,0.0,0.0
1930,52.0,720,720,0.0,0.0
1931,61.0,240,1680,0.0,0.0
1932,64.0,0,720,0.0,0.0
1933,45.0,0,2880,0.0,0.0
1934,33.0,0,720,0.0,0.0
1935,38.0,0,2160,0.0,0.0
1936,54.0,240,720,0.0,0.0
1937,66.0,0,2160,0.0,0.0
1938,59.0,240,240,0.0,0.0
1939,61.0,240,240,0.0,0.0
1940,64.0,240,240,0.0,0.0
1941,62.0,240,240,0.0,0.0
1942,33.0,0,720,0.0,0.0
1943,45.0,720,3600,0.0,0.0
1944,61.0,720,0,0.0,0.0
1945,52.0,0,720,0.0,0.0
1946,64.0,960,720,0.0,0.0
1947,66.0,0,2160,0.0,0.0
1948,38.0,0,2880,0.0,0.0
1949,54.0,0,2880,0.0,0.0
1950,59.0,240,240,0.0,0.0
1951,61.0,240,240,0.0,0.0
1952,64.0,360,240,0.0,0.0
1953,62.0,50,360,0.0,0.0
1954,61.0,70,50,0.0,0.0
1955,61.0,240,60,0.0,0.0
1956,69.0,240,240,0.0,0.0
1957,66.0,240,240,0.0,0.0
1958,62.0,0,240,0.0,0.0
1959,61.0,0,720,0.0,0.0
1960,56.0,0,1200,0.0,0.0
1961,52.0,480,720,0.0,0.0
1962,64.0,0,1440,0.0,0.0
1963,40.0,0,1200,0.0,0.0
1964,59.0,0,480,0.0,0.0
1965,50.0,240,480,0.0,0.0
1966,57.0,0,240,0.0,0.0
1967,49.0,0,240,0.0,0.0
1968,61.0,0,1440,0.0,0.0
1969,45.0,1440,0,0.0,0.0
1970,52.0,0,1440,0.0,0.0
1971,73.0,120,1560,0.0,0.0
1972,75.0,120,120,0.0,0.0
1973,78.0,120,120,0.0,0.0
1974,76.0,120,120,0.0,0.0
1975,73.0,120,120,0.0,0.0
1976,69.0,30,120,0.0,0.0
1977,68.0,90,30,0.0,0.0
1978,68.0,480,60,0.0,0.0
1979,80.0,60,480,0.0,0.0
1980,62.0,0,240,0.0,0.0
1981,65.0,0,240,0.0,0.0
1982,59.0,0,240,0.0,0.0
1983,78.0,60,60,0.0,0.0
1984,80.0,240,60,0.0,0.0
1985,66.0,0,240,0.0,0.0
1986,78.0,120,360,0.0,0.0
1987,61.0,0,240,0.0,0.0
1988,57.0,120,240,0.0,0.0
1989,76.0,240,120,0.0,0.0
1990,61.0,0,240,0.0,0.0
1991,64.0,0,240,0.0,0.0
1992,69.0,0,240,0.0,0.0
1993,78.0,360,240,0.0,0.0
1994,68.0,120,480,0.0,0.0
1995,63.0,0,480,0.0,0.0
1996,60.0,0,480,0.0,0.0
1997,80.0,120,360,0.0,0.0
1998,81.0,0,120,0.0,0.0
1999,65.0,0,240,0.0,0.0
2000,62.0,240,240,0.0,0.0
2001,59.0,0,240,0.0,0.0
2002,80.0,60,120,0.0,0.0
2003,78.0,60,60,0.0,0.0
2004,80.0,0,60,0.0,0.0
2005,61.0,0,240,0.0,0.0
2006,66.0,0,240,0.0,0.0
2007,57.0,120,240,0.0,0.0
2008,78.0,120,360,0.0,0.0
2009,76.0,240,120,0.0,0.0
2010,61.0,0,240,0.0,0.0
2011,64.0,0,240,0.0,0.0
2012,78.0,240,240,0.0,0.0
2013,69.0,0,240,0.0,0.0
2014,56.0,720,240,0.0,0.0
2015,63.0,0,240,0.0,0.0
2016,80.0,120,1080,0.0,0.0
2017,72.0,0,240,0.0,0.0
2018,44.0,120,240,0.0,0.0
2019,68.0,120,120,0.0,0.0
2020,80.0,120,120,0.0,0.0
2021,75.0,120,120,0.0,0.0
2022,80.0,120,120,0.0,0.0
2023,75.0,120,120,0.0,0.0
2024,87.0,120,120,0.0,0.0
2025,80.0,120,120,0.0,0.0
2026,87.0,120,120,0.0,0.0
2027,80.0,120,120,0.0,0.0
2028,92.0,360,120,0.0,0.0
2029,80.0,240,240,0.0,0.0
2030,78.0,360,240,0.0,0.0
2031,49.0,0,720,0.0,0.0
2032,76.0,0,960,0.0,0.0
2033,67.0,120,120,0.0,0.0
2034,64.0,0,240,0.0,0.0
2035,68.0,80,120,0.0,0.0
2036,71.0,80,80,0.0,0.0
2037,56.0,240,480,0.0,0.0
2038,69.0,80,80,0.0,0.0
2039,51.0,0,720,0.0,0.0
2040,68.0,240,0,0.0,0.0
2041,54.0,240,720,0.0,0.0
2042,60.0,240,240,0.0,0.0
2043,76.0,0,240,0.0,0.0
2044,75.0,0,240,0.0,0.0
2045,56.0,0,480,0.0,0.0
2046,52.0,240,720,0.0,0.0
2047,73.0,0,240,0.0,0.0
2048,67.0,120,120,0.0,0.0
2049,61.0,80,240,0.0,0.0
2050,68.0,0,120,0.0,0.0
2051,56.0,240,480,0.0,0.0
2052,71.0,80,80,0.0,0.0
2053,69.0,80,80,0.0,0.0
2054,68.0,0,80,0.0,0.0
2055,48.0,0,720,0.0,0.0
2056,68.0,0,960,0.0,0.0
2057,80.0,240,240,0.0,0.0
2058,63.0,0,240,0.0,0.0
2059,56.0,120,480,0.0,0.0
2060,78.0,240,240,0.0,0.0
2061,49.0,240,720,0.0,0.0
2062,64.0,0,240,0.0,0.0
2063,67.0,120,120,0.0,0.0
2064,68.0,80,120,0.0,0.0
2065,71.0,80,80,0.0,0.0
2066,56.0,0,480,0.0,0.0
2067,69.0,80,80,0.0,0.0
2068,68.0,0,0,0.0,0.0
2069,51.0,0,720,0.0,0.0
2070,54.0,0,720,0.0,0.0
2071,60.0,240,240,0.0,0.0
2072,76.0,240,0,0.0,0.0
2073,56.0,0,480,0.0,0.0
2074,75.0,0,240,0.0,0.0
2075,73.0,120,240,0.0,0.0
2076,52.0,0,720,0.0,0.0
2077,61.0,80,240,0.0,0.0
2078,72.0,120,120,0.0,0.0
2079,73.0,0,120,0.0,0.0
2080,56.0,0,240,0.0,0.0
2081,76.0,80,80,0.0,0.0
2082,74.0,80,80,0.0,0.0
2083,73.0,240,80,0.0,0.0
2084,59.0,240,240,0.0,0.0
2085,53.0,0,720,0.0,0.0
2086,73.0,120,960,0.0,0.0
2087,68.0,0,240,0.0,0.0
2088,85.0,240,240,0.0,0.0
2089,61.0,0,480,0.0,0.0
2090,83.0,240,240,0.0,0.0
2091,81.0,0,960,0.0,0.0
2092,57.0,0,720,0.0,0.0
2093,54.0,0,720,0.0,0.0
2094,66.0,80,240,0.0,0.0
2095,72.0,120,120,0.0,0.0
2096,73.0,0,120,0.0,0.0
2097,76.0,80,80,0.0,0.0
2098,61.0,240,480,0.0,0.0
2099,74.0,80,80,0.0,0.0
2100,73.0,240,0,0.0,0.0
2101,59.0,0,720,0.0,0.0
2102,56.0,240,720,0.0,0.0
2103,65.0,240,240,0.0,0.0
2104,81.0,0,240,0.0,0.0
2105,61.0,0,480,0.0,0.0
2106,80.0,0,240,0.0,0.0
2107,57.0,0,720,0.0,0.0
2108,78.0,120,240,0.0,0.0
2109,66.0,0,240,0.0,0.0
2110,72.0,120,120,0.0,0.0
2111,73.0,80,120,0.0,0.0
2112,76.0,80,80,0.0,0.0
2113,61.0,240,480,0.0,0.0
2114,74.0,80,80,0.0,0.0
2115,53.0,240,720,0.0,0.0
2116,73.0,240,0,0.0,0.0
2117,85.0,0,240,0.0,0.0
2118,68.0,240,240,0.0,0.0
2119,83.0,0,240,0.0,0.0
2120,61.0,120,480,0.0,0.0
2121,81.0,240,960,0.0,0.0
2122,54.0,240,720,0.0,0.0
2123,57.0,0,720,0.0,0.0
2124,69.0,0,240,0.0,0.0
2125,72.0,120,120,0.0,0.0
2126,73.0,80,120,0.0,0.0
2127,76.0,80,80,0.0,0.0
2128,61.0,0,480,0.0,0.0
2129,74.0,80,80,0.0,0.0
2130,73.0,0,80,0.0,0.0
2131,73.0,0,960,0.0,0.0
2132,59.0,240,720,0.0,0.0
2133,56.0,0,720,0.0,0.0
2134,65.0,0,240,0.0,0.0
2135,81.0,240,240,0.0,0.0
2136,61.0,120,480,0.0,0.0
2137,80.0,0,240,0.0,0.0
2138,78.0,240,960,0.0,0.0
2139,57.0,0,720,0.0,0.0
2140,72.0,120,120,0.0,0.0
2141,66.0,0,240,0.0,0.0
2142,73.0,80,120,0.0,0.0
2143,76.0,80,80,0.0,0.0
2144,61.0,0,240,0.0,0.0
2145,74.0,80,80,0.0,0.0
2146,73.0,120,80,0.0,0.0
2147,73.0,240,720,0.0,0.0
2148,45.0,120,120,0.0,0.0
2149,80.0,240,240,0.0,0.0
2150,61.0,0,240,0.0,0.0
2151,54.0,0,240,0.0,0.0
2152,81.0,0,240,0.0,0.0
2153,44.0,0,240,0.0,0.0
2154,51.0,0,720,0.0,0.0
2155,80.0,120,240,0.0,0.0
2156,67.0,120,120,0.0,0.0
2157,60.0,80,240,0.0,0.0
2158,68.0,0,120,0.0,0.0
2159,71.0,80,80,0.0,0.0
2160,54.0,480,240,0.0,0.0
2161,69.0,80,80,0.0,0.0
2162,68.0,0,80,0.0,0.0
2163,52.0,0,720,0.0,0.0
2164,68.0,0,960,0.0,0.0
2165,61.0,240,240,0.0,0.0
2166,78.0,0,240,0.0,0.0
2167,76.0,240,240,0.0,0.0
2168,56.0,0,240,0.0,0.0
2169,44.0,120,240,0.0,0.0
2170,54.0,0,720,0.0,0.0
2171,60.0,0,240,0.0,0.0
2172,67.0,120,120,0.0,0.0
2173,68.0,80,120,0.0,0.0
2174,56.0,0,480,0.0,0.0
2175,71.0,80,80,0.0,0.0
2176,69.0,80,80,0.0,0.0
2177,68.0,240,80,0.0,0.0
2178,52.0,0,720,0.0,0.0
2179,68.0,0,960,0.0,0.0
2180,61.0,0,240,0.0,0.0
2181,75.0,240,0,0.0,0.0
2182,73.0,0,240,0.0,0.0
2183,56.0,240,240,0.0,0.0
2184,44.0,0,240,0.0,0.0
2185,51.0,0,720,0.0,0.0
2186,72.0,120,240,0.0,0.0
2187,60.0,80,240,0.0,0.0
2188,67.0,120,120,0.0,0.0
2189,68.0,0,120,0.0,0.0
2190,71.0,80,80,0.0,0.0
2191,56.0,240,480,0.0,0.0
2192,69.0,80,80,0.0,0.0
2193,68.0,240,80,0.0,0.0
2194,68.0,0,960,0.0,0.0
2195,52.0,0,720,0.0,0.0
2196,78.0,0,240,0.0,0.0
2197,61.0,240,240,0.0,0.0
2198,76.0,0,240,0.0,0.0
2199,56.0,240,240,0.0,0.0
2200,47.0,0,1440,0.0,0.0
2201,75.0,120,240,0.0,0.0
2202,54.0,0,1200,0.0,0.0
2203,70.0,120,120,0.0,0.0
2204,71.0,80,120,0.0,0.0
2205,57.0,120,960,0.0,0.0
2206,75.0,80,80,0.0,0.0
2207,73.0,80,80,0.0,0.0
2208,71.0,480,0,0.0,0.0
2209,63.0,0,720,0.0,0.0
2210,76.0,240,240,0.0,0.0
2211,78.0,0,240,0.0,0.0
2212,52.0,0,720,0.0,0.0
2213,68.0,120,120,0.0,0.0
2214,71.0,120,120,0.0,0.0
2215,76.0,120,120,0.0,0.0
2216,59.0,0,240,0.0,0.0
2217,64.0,0,240,0.0,0.0
2218,80.0,120,120,0.0,0.0
2219,56.0,0,240,0.0,0.0
2220,78.0,120,120,0.0,0.0
2221,76.0,120,120,0.0,0.0
2222,51.0,0,720,0.0,0.0
2223,80.0,120,120,0.0,0.0
2224,83.0,120,120,0.0,0.0
2225,64.0,120,240,0.0,0.0
2226,59.0,0,240,0.0,0.0
2227,88.0,120,120,0.0,0.0
2228,92.0,0,120,0.0,0.0
2229,56.0,0,240,0.0,0.0
2230,90.0,120,120,0.0,0.0
2231,88.0,120,120,0.0,0.0
2232,83.0,120,120,0.0,0.0
2233,52.0,120,240,0.0,0.0
2234,80.0,0,120,0.0,0.0
2235,78.0,120,120,0.0,0.0
2236,64.0,120,240,0.0,0.0
2237,59.0,0,240,0.0,0.0
2238,76.0,0,120,0.0,0.0
2239,71.0,120,120,0.0,0.0
2240,56.0,120,240,0.0,0.0
2241,68.0,0,120,0.0,0.0
2242,66.0,120,120,0.0,0.0
2243,47.0,120,720,0.0,0.0
2244,64.0,120,120,0.0,0.0
2245,59.0,120,120,0.0,0.0
2246,68.0,120,120,0.0,0.0
2247,66.0,120,120,0.0,0.0
2248,64.0,0,120,0.0,0.0
2249,61.0,0,120,0.0,0.0
2250,45.0,120,120,0.0,0.0
2251,64.0,120,0,0.0,0.0
2252,66.0,120,120,0.0,0.0
2253,61.0,0,240,0.0,0.0
2254,69.0,120,120,0.0,0.0
2255,73.0,120,120,0.0,0.0
2256,54.0,0,240,0.0,0.0
2257,76.0,120,120,0.0,0.0
2258,42.0,0,120,0.0,0.0
2259,78.0,120,120,0.0,0.0
2260,81.0,120,120,0.0,0.0
2261,64.0,0,240,0.0,0.0
2262,61.0,0,240,0.0,0.0
2263,85.0,120,120,0.0,0.0
2264,88.0,120,120,0.0,0.0
2265,90.0,120,120,0.0,0.0
2266,54.0,0,240,0.0,0.0
2267,93.0,120,120,0.0,0.0
2268,92.0,0,120,0.0,0.0
2269,47.0,120,120,0.0,0.0
2270,90.0,120,120,0.0,0.0
2271,87.0,120,120,0.0,0.0
2272,59.0,0,1200,0.0,0.0
2273,63.0,0,1200,0.0,0.0
2274,81.0,120,120,0.0,0.0
2275,54.0,120,240,0.0,0.0
2276,80.0,120,120,0.0,0.0
2277,78.0,0,120,0.0,0.0
2278,75.0,120,120,0.0,0.0
2279,56.0,0,240,0.0,0.0
2280,71.0,120,120,0.0,0.0
2281,75.0,120,120,0.0,0.0
2282,54.0,0,240,0.0,0.0
2283,73.0,120,120,0.0,0.0
2284,56.0,0,240,0.0,0.0
2285,71.0,120,120,0.0,0.0
2286,69.0,120,120,0.0,0.0
2287,52.0,0,720,0.0,0.0
2288,68.0,120,120,0.0,0.0
2289,71.0,120,120,0.0,0.0
2290,76.0,120,120,0.0,0.0
2291,64.0,120,240,0.0,0.0
2292,59.0,0,240,0.0,0.0
2293,80.0,0,120,0.0,0.0
2294,56.0,0,240,0.0,0.0
2295,78.0,120,120,0.0,0.0
2296,76.0,120,120,0.0,0.0
2297,80.0,120,120,0.0,0.0
2298,51.0,0,720,0.0,0.0
2299,83.0,120,120,0.0,0.0
2300,59.0,0,240,0.0,0.0
2301,88.0,120,120,0.0,0.0
2302,64.0,0,240,0.0,0.0
2303,92.0,120,120,0.0,0.0
2304,56.0,120,240,0.0,0.0
2305,90.0,120,120,0.0,0.0
2306,88.0,0,120,0.0,0.0
2307,83.0,120,120,0.0,0.0
2308,52.0,120,240,0.0,0.0
2309,80.0,0,120,0.0,0.0
2310,78.0,120,120,0.0,0.0
2311,59.0,0,240,0.0,0.0
2312,64.0,120,240,0.0,0.0
2313,76.0,0,120,0.0,0.0
2314,71.0,120,120,0.0,0.0
2315,56.0,0,240,0.0,0.0
2316,68.0,120,120,0.0,0.0
2317,47.0,0,720,0.0,0.0
2318,66.0,120,120,0.0,0.0
2319,64.0,120,120,0.0,0.0
2320,59.0,120,120,0.0,0.0
2321,68.0,120,120,0.0,0.0
2322,66.0,120,120,0.0,0.0
2323,64.0,120,120,0.0,0.0
2324,61.0,0,120,0.0,0.0
2325,45.0,120,120,0.0,0.0
2326,64.0,120,0,0.0,0.0
2327,61.0,0,240,0.0,0.0
2328,66.0,120,120,0.0,0.0
2329,69.0,120,120,0.0,0.0
2330,54.0,0,240,0.0,0.0
2331,73.0,120,120,0.0,0.0
2332,76.0,120,120,0.0,0.0
2333,42.0,120,120,0.0,0.0
2334,78.0,0,120,0.0,0.0
2335,81.0,120,120,0.0,0.0
2336,64.0,120,240,0.0,0.0
2337,61.0,0,240,0.0,0.0
2338,85.0,120,120,0.0,0.0
2339,88.0,0,120,0.0,0.0
2340,90.0,120,120,0.0,0.0
2341,54.0,0,240,0.0,0.0
2342,93.0,120,120,0.0,0.0
2343,47.0,0,120,0.0,0.0
2344,92.0,120,120,0.0,0.0
2345,90.0,120,120,0.0,0.0
2346,63.0,0,1200,0.0,0.0
2347,59.0,120,1200,0.0,0.0
2348,87.0,120,120,0.0,0.0
2349,81.0,120,120,0.0,0.0
2350,54.0,120,240,0.0,0.0
2351,80.0,120,120,0.0,0.0
2352,78.0,0,120,0.0,0.0
2353,75.0,120,120,0.0,0.0
2354,56.0,0,240,0.0,0.0
2355,71.0,120,120,0.0,0.0
2356,54.0,120,240,0.0,0.0
2357,75.0,120,120,0.0,0.0
2358,73.0,0,120,0.0,0.0
2359,71.0,120,120,0.0,0.0
2360,56.0,0,240,0.0,0.0
2361,69.0,0,120,0.0,0.0
2362,68.0,120,120,0.0,0.0
2363,52.0,0,720,0.0,0.0
2364,71.0,120,120,0.0,0.0
2365,64.0,120,240,0.0,0.0
2366,76.0,120,120,0.0,0.0
2367,59.0,0,240,0.0,0.0
2368,80.0,0,120,0.0,0.0
2369,78.0,120,120,0.0,0.0
2370,56.0,0,240,0.0,0.0
2371,76.0,120,120,0.0,0.0
2372,47.0,120,120,0.0,0.0
2373,80.0,0,120,0.0,0.0
2374,83.0,120,120,0.0,0.0
2375,64.0,0,240,0.0,0.0
2376,88.0,120,120,0.0,0.0
2377,59.0,120,240,0.0,0.0
2378,92.0,0,120,0.0,0.0
2379,90.0,120,120,0.0,0.0
2380,56.0,0,240,0.0,0.0
2381,88.0,120,120,0.0,0.0
2382,45.0,0,240,0.0,0.0
2383,57.0,0,240,0.0,0.0
2384,84.0,120,120,0.0,0.0
2385,81.0,120,120,0.0,0.0
2386,60.0,120,480,0.0,0.0
2387,78.0,120,120,0.0,0.0
2388,48.0,0,480,0.0,0.0
2389,76.0,120,120,0.0,0.0
2390,72.0,120,120,0.0,0.0
2391,69.0,0,120,0.0,0.0
2392,66.0,120,120,0.0,0.0
2393,64.0,120,120,0.0,0.0
2394,60.0,120,120,0.0,0.0
2395,59.0,120,120,0.0,0.0
2396,57.0,120,120,0.0,0.0
2397,56.0,120,0,0.0,0.0
2398,40.0,120,720,0.0,0.0
2399,59.0,120,120,0.0,0.0
2400,64.0,120,120,0.0,0.0
2401,52.0,0,240,0.0,0.0
2402,68.0,120,120,0.0,0.0
2403,47.0,0,240,0.0,0.0
2404,66.0,120,120,0.0,0.0
2405,64.0,0,120,0.0,0.0
2406,68.0,0,120,0.0,0.0
2407,35.0,120,120,0.0,0.0
2408,71.0,120,120,0.0,0.0
2409,76.0,120,120,0.0,0.0
2410,52.0,120,240,0.0,0.0
2411,80.0,0,120,0.0,0.0
2412,47.0,120,240,0.0,0.0
2413,78.0,120,120,0.0,0.0
2414,76.0,0,120,0.0,0.0
2415,72.0,120,120,0.0,0.0
2416,45.0,0,240,0.0,0.0
2417,33.0,0,240,0.0,0.0
2418,69.0,120,120,0.0,0.0
2419,48.0,0,480,0.0,0.0
2420,36.0,0,480,0.0,0.0
2421,66.0,120,120,0.0,0.0
2422,64.0,120,120,0.0,0.0
2423,60.0,120,120,0.0,0.0
2424,57.0,120,120,0.0,0.0
2425,54.0,120,120,0.0,0.0
2426,52.0,120,120,0.0,0.0
2427,48.0,120,120,0.0,0.0
2428,45.0,120,120,0.0,0.0
2429,42.0,120,120,0.0,0.0
2430,40.0,240,120,0.0,0.0
2431,28.0,120,240,0.0,0.0
2432,47.0,120,120,0.0,0.0
2433,52.0,120,120,0.0,0.0
2434,57.0,120,120,0.0,0.0
2435,56.0,120,120,0.0,0.0
2436,59.0,120,120,0.0,0.0
2437,64.0,120,120,0.0,0.0
2438,69.0,120,120,0.0,0.0
2439,68.0,120,120,0.0,0.0
2440,71.0,120,120,0.0,0.0
2441,76.0,120,120,0.0,0.0
2442,81.0,120,120,0.0,0.0
2443,59.0,0,240,0.0,0.0
2444,52.0,0,240,0.0,0.0
2445,68.0,0,240,0.0,0.0
2446,80.0,120,120,0.0,0.0
2447,83.0,120,120,0.0,0.0
2448,88.0,120,120,0.0,0.0
2449,93.0,120,120,0.0,0.0
2450,92.0,120,120,0.0,0.0
2451,88.0,120,120,0.0,0.0
2452,83.0,120,120,0.0,0.0
2453,81.0,120,120,0.0,0.0
2454,80.0,120,120,0.0,0.0
2455,76.0,120,120,0.0,0.0
2456,71.0,120,120,0.0,0.0
2457,69.0,120,120,0.0,0.0
2458,68.0,120,120,0.0,0.0
2459,64.0,120,120,0.0,0.0
2460,59.0,120,120,0.0,0.0
2461,57.0,120,120,0.0,0.0
2462,56.0,120,120,0.0,0.0
2463,52.0,120,120,0.0,0.0
2464,47.0,120,120,0.0,0.0
2465,45.0,120,120,0.0,0.0
2466,44.0,120,120,0.0,0.0
2467,40.0,120,120,0.0,0.0
2468,35.0,720,120,0.0,0.0
2469,28.0,1440,720,0.0,0.0
2470,52.0,0,720,0.0,0.0
2471,64.0,0,720,0.0,0.0
2472,61.0,0,720,0.0,0.0
2473,33.0,720,720,0.0,0.0
2474,38.0,0,2160,0.0,0.0
2475,54.0,240,720,0.0,0.0
2476,66.0,720,2160,0.0,0.0
2477,61.0,240,960,0.0,0.0
2478,59.0,240,240,0.0,0.0
2479,61.0,240,240,0.0,0.0
2480,64.0,360,240,0.0,0.0
2481,62.0,120,360,0.0,0.0
2482,61.0,0,120,0.0,0.0
2483,64.0,0,720,0.0,0.0
2484,45.0,0,0,0.0,0.0
2485,33.0,960,720,0.0,0.0
2486,61.0,0,720,0.0,0.0
2487,52.0,0,720,0.0,0.0
2488,66.0,0,2160,0.0,0.0
2489,54.0,0,2880,0.0,0.0
2490,61.0,240,960,0.0,0.0
2491,38.0,0,2880,0.0,0.0
2492,59.0,240,240,0.0,0.0
2493,61.0,240,240,0.0,0.0
2494,64.0,360,240,0.0,0.0
2495,62.0,50,360,0.0,0.0
2496,61.0,70,50,0.0,0.0
2497,61.0,240,60,0.0,0.0
2498,69.0,480,240,0.0,0.0
2499,66.0,0,480,0.0,0.0
2500,62.0,0,240,0.0,0.0
2501,52.0,0,720,0.0,0.0
2502,56.0,240,1200,0.0,0.0
2503,61.0,480,720,0.0,0.0
2504,64.0,0,1440,0.0,0.0
2505,40.0,0,1200,0.0,0.0
2506,50.0,0,480,0.0,0.0
2507,59.0,0,480,0.0,0.0
2508,45.0,600,1680,0.0,0.0
2509,49.0,0,240,0.0,0.0
2510,57.0,1440,240,0.0,0.0
2511,52.0,0,1440,0.0,0.0
2512,61.0,0,1440,0.0,0.0
2513,73.0,60,600,0.0,0.0
2514,52.0,0,240,0.0,0.0
2515,58.0,0,240,0.0,0.0
2516,55.0,240,240,0.0,0.0
2517,71.0,60,60,0.0,0.0
2518,73.0,0,60,0.0,0.0
2519,50.0,0,240,0.0,0.0
2520,54.0,120,240,0.0,0.0
2521,59.0,0,240,0.0,0.0
2522,71.0,120,360,0.0,0.0
2523,69.0,240,120,0.0,0.0
2524,57.0,0,240,0.0,0.0
2525,62.0,0,240,0.0,0.0
2526,54.0,0,240,0.0,0.0
2527,71.0,360,240,0.0,0.0
2528,61.0,0,480,0.0,0.0
2529,56.0,0,480,0.0,0.0
2530,53.0,0,480,0.0,0.0
2531,73.0,120,360,0.0,0.0
2532,74.0,120,120,0.0,0.0
2533,52.0,0,240,0.0,0.0
2534,55.0,0,240,0.0,0.0
2535,58.0,240,240,0.0,0.0
2536,73.0,60,120,0.0,0.0
2537,71.0,60,60,0.0,0.0
2538,73.0,0,60,0.0,0.0
2539,59.0,120,240,0.0,0.0
2540,71.0,120,360,0.0,0.0
2541,50.0,0,240,0.0,0.0
2542,54.0,0,240,0.0,0.0
2543,69.0,240,120,0.0,0.0
2544,71.0,0,240,0.0,0.0
2545,62.0,120,240,0.0,0.0
2546,57.0,0,240,0.0,0.0
2547,54.0,0,240,0.0,0.0
2548,73.0,120,120,0.0,0.0
2549,49.0,0,240,0.0,0.0
2550,56.0,0,180,0.0,0.0
2551,61.0,0,120,0.0,0.0
2552,65.0,120,120,0.0,0.0
2553,73.0,120,120,0.0,0.0
2554,68.0,120,120,0.0,0.0
2555,73.0,120,120,0.0,0.0
2556,68.0,120,120,0.0,0.0
2557,37.0,0,120,0.0,0.0
2558,80.0,120,120,0.0,0.0
2559,73.0,120,120,0.0,0.0
2560,80.0,120,120,0.0,0.0
2561,73.0,120,120,0.0,0.0
2562,85.0,120,120,0.0,0.0
2563,80.0,120,120,0.0,0.0
2564,85.0,120,120,0.0,0.0
2565,80.0,120,120,0.0,0.0
2566,92.0,120,120,0.0,0.0
2567,85.0,120,120,0.0,0.0
2568,92.0,120,120,0.0,0.0
2569,85.0,120,120,0.0,0.0
2570,97.0,1320,120,0.0,0.0
2571,52.0,0,720,0.0,0.0
2572,61.0,240,1680,0.0,0.0
2573,64.0,720,720,0.0,0.0
2574,45.0,0,2880,0.0,0.0
2575,66.0,720,2160,0.0,0.0
2576,38.0,0,2160,0.0,0.0
2577,54.0,240,720,0.0,0.0
2578,59.0,240,240,0.0,0.0
2579,61.0,240,240,0.0,0.0
2580,64.0,360,240,0.0,0.0
2581,62.0,120,360,0.0,0.0
2582,61.0,0,120,0.0,0.0
2583,33.0,960,720,0.0,0.0
2584,45.0,720,3600,0.0,0.0
2585,64.0,0,720,0.0,0.0
2586,52.0,0,720,0.0,0.0
2587,61.0,240,1680,0.0,0.0
2588,66.0,120,2160,0.0,0.0
2589,54.0,0,2880,0.0,0.0
2590,38.0,0,2880,0.0,0.0
2591,59.0,240,240,0.0,0.0
2592,61.0,240,240,0.0,0.0
2593,64.0,240,240,0.0,0.0
2594,62.0,170,240,0.0,0.0
2595,61.0,70,170,0.0,0.0
2596,61.0,0,0,0.0,0.0
2597,69.0,120,120,0.0,0.0
2598,68.0,120,120,0.0,0.0
2599,71.0,120,120,0.0,0.0
2600,69.0,120,120,0.0,0.0
2601,66.0,0,120,0.0,0.0
2602,62.0,0,120,0.0,0.0
2603,64.0,0,1440,0.0,0.0
2604,61.0,0,720,0.0,0.0
2605,40.0,0,1200,0.0,0.0
2606,52.0,480,720,0.0,0.0
2607,56.0,0,1200,0.0,0.0
2608,59.0,240,480,0.0,0.0
2609,50.0,0,480,0.0,0.0
2610,57.0,0,240,0.0,0.0
2611,49.0,1440,240,0.0,0.0
2612,45.0,0,1680,0.0,0.0
2613,61.0,0,1440,0.0,0.0
2614,52.0,2280,1440,0.0,0.0
2615,73.0,120,1560,0.0,0.0
2616,75.0,120,120,0.0,0.0
2617,78.0,120,120,0.0,0.0
2618,76.0,120,120,0.0,0.0
2619,73.0,120,120,0.0,0.0
2620,69.0,30,120,0.0,0.0
2621,68.0,90,30,0.0,0.0
2622,68.0,480,60,0.0,0.0
2623,80.0,60,480,0.0,0.0
2624,59.0,0,240,0.0,0.0
2625,62.0,0,240,0.0,0.0
2626,65.0,240,240,0.0,0.0
2627,78.0,60,60,0.0,0.0
2628,80.0,0,60,0.0,0.0
2629,61.0,0,240,0.0,0.0
2630,78.0,120,360,0.0,0.0
2631,66.0,120,240,0.0,0.0
2632,57.0,0,240,0.0,0.0
2633,76.0,240,120,0.0,0.0
2634,69.0,0,240,0.0,0.0
2635,64.0,0,240,0.0,0.0
2636,78.0,360,240,0.0,0.0
2637,61.0,0,240,0.0,0.0
2638,68.0,120,480,0.0,0.0
2639,80.0,120,360,0.0,0.0
2640,63.0,0,480,0.0,0.0
2641,60.0,0,480,0.0,0.0
2642,81.0,0,120,0.0,0.0
2643,80.0,60,120,0.0,0.0
2644,65.0,0,240,0.0,0.0
2645,62.0,0,240,0.0,0.0
2646,59.0,240,240,0.0,0.0
2647,78.0,60,60,0.0,0.0
2648,80.0,0,60,0.0,0.0
2649,78.0,120,360,0.0,0.0
2650,57.0,0,240,0.0,0.0
2651,61.0,0,240,0.0,0.0
2652,66.0,120,240,0.0,0.0
2653,76.0,240,120,0.0,0.0
2654,78.0,240,240,0.0,0.0
2655,69.0,0,240,0.0,0.0
2656,64.0,0,240,0.0,0.0
2657,61.0,0,240,0.0,0.0
2658,56.0,0,240,0.0,0.0
2659,63.0,0,240,0.0,0.0
2660,72.0,720,240,0.0,0.0
2661,80.0,120,1080,0.0,0.0
2662,44.0,120,240,0.0,0.0
2663,68.0,120,120,0.0,0.0
2664,80.0,120,120,0.0,0.0
2665,75.0,120,120,0.0,0.0
2666,80.0,120,120,0.0,0.0
2667,75.0,120,120,0.0,0.0
2668,87.0,120,120,0.0,0.0
2669,80.0,120,120,0.0,0.0
2670,87.0,120,120,0.0,0.0
2671,80.0,120,120,0.0,0.0
2672,92.0,360,120,0.0,0.0
2673,80.0,240,240,0.0,0.0
2674,78.0,360,240,0.0,0.0
2675,76.0,240,960,0.0,0.0
2676,49.0,240,720,0.0,0.0
2677,64.0,80,240,0.0,0.0
2678,67.0,120,120,0.0,0.0
2679,68.0,0,120,0.0,0.0
2680,71.0,80,80,0.0,0.0
2681,56.0,0,480,0.0,0.0
2682,69.0,80,80,0.0,0.0
2683,68.0,0,80,0.0,0.0
2684,51.0,0,720,0.0,0.0
2685,54.0,240,720,0.0,0.0
2686,68.0,0,960,0.0,0.0
2687,60.0,240,240,0.0,0.0
2688,76.0,0,240,0.0,0.0
2689,56.0,0,480,0.0,0.0
2690,75.0,0,240,0.0,0.0
2691,52.0,240,720,0.0,0.0
2692,73.0,120,240,0.0,0.0
2693,61.0,80,240,0.0,0.0
2694,67.0,120,120,0.0,0.0
2695,68.0,0,120,0.0,0.0
2696,71.0,80,80,0.0,0.0
2697,56.0,240,480,0.0,0.0
2698,69.0,80,80,0.0,0.0
2699,48.0,0,720,0.0,0.0
2700,68.0,0,0,0.0,0.0
2701,63.0,0,240,0.0,0.0
2702,80.0,240,240,0.0,0.0
2703,56.0,0,480,0.0,0.0
2704,78.0,240,240,0.0,0.0
2705,49.0,0,720,0.0,0.0
2706,76.0,240,960,0.0,0.0
2707,67.0,120,120,0.0,0.0
2708,64.0,80,240,0.0,0.0
2709,68.0,0,120,0.0,0.0
2710,56.0,0,480,0.0,0.0
2711,71.0,80,80,0.0,0.0
2712,69.0,80,80,0.0,0.0
2713,68.0,240,80,0.0,0.0
2714,54.0,0,720,0.0,0.0
2715,68.0,0,720,0.0,0.0
2716,51.0,0,720,0.0,0.0
2717,76.0,0,240,0.0,0.0
2718,60.0,240,240,0.0,0.0
2719,75.0,240,240,0.0,0.0
2720,56.0,0,480,0.0,0.0
2721,73.0,120,240,0.0,0.0
2722,52.0,0,720,0.0,0.0
2723,61.0,80,240,0.0,0.0
2724,72.0,120,120,0.0,0.0
2725,73.0,0,120,0.0,0.0
2726,76.0,80,80,0.0,0.0
2727,56.0,0,240,0.0,0.0
2728,74.0,80,80,0.0,0.0
2729,73.0,240,0,0.0,0.0
2730,59.0,240,240,0.0,0.0
2731,53.0,0,720,0.0,0.0
2732,68.0,0,240,0.0,0.0
2733,85.0,240,240,0.0,0.0
2734,61.0,0,480,0.0,0.0
2735,83.0,240,240,0.0,0.0
2736,54.0,0,720,0.0,0.0
2737,57.0,240,720,0.0,0.0
2738,81.0,0,960,0.0,0.0
2739,66.0,0,240,0.0,0.0
2740,72.0,120,120,0.0,0.0
2741,73.0,80,120,0.0,0.0
2742,76.0,80,80,0.0,0.0
2743,61.0,240,480,0.0,0.0
2744,74.0,80,80,0.0,0.0
2745,73.0,0,0,0.0,0.0
2746,56.0,0,720,0.0,0.0
2747,59.0,0,720,0.0,0.0
2748,81.0,240,240,0.0,0.0
2749,65.0,0,240,0.0,0.0
2750,61.0,0,480,0.0,0.0
2751,80.0,240,240,0.0,0.0
2752,57.0,240,720,0.0,0.0
2753,78.0,120,240,0.0,0.0
2754,72.0,120,120,0.0,0.0
2755,66.0,80,240,0.0,0.0
2756,73.0,0,120,0.0,0.0
2757,76.0,80,80,0.0,0.0
2758,61.0,240,480,0.0,0.0
2759,74.0,80,80,0.0,0.0
2760,73.0,0,0,0.0,0.0
2761,53.0,0,720,0.0,0.0
2762,68.0,240,240,0.0,0.0
2763,85.0,0,240,0.0,0.0
2764,61.0,120,480,0.0,0.0
2765,83.0,240,240,0.0,0.0
2766,81.0,0,960,0.0,0.0
2767,57.0,0,720,0.0,0.0
2768,54.0,0,720,0.0,0.0
2769,72.0,120,120,0.0,0.0
2770,69.0,0,240,0.0,0.0
2771,73.0,80,120,0.0,0.0
2772,61.0,240,480,0.0,0.0
2773,76.0,80,80,0.0,0.0
2774,74.0,80,80,0.0,0.0
2775,59.0,0,720,0.0,0.0
2776,56.0,0,720,0.0,0.0
2777,73.0,240,0,0.0,0.0
2778,65.0,0,240,0.0,0.0
2779,81.0,240,240,0.0,0.0
2780,80.0,240,240,0.0,0.0
2781,61.0,0,480,0.0,0.0
2782,78.0,240,960,0.0,0.0
2783,57.0,0,720,0.0,0.0
2784,66.0,0,240,0.0,0.0
2785,72.0,120,120,0.0,0.0
2786,73.0,80,120,0.0,0.0
2787,61.0,120,240,0.0,0.0
2788,76.0,80,80,0.0,0.0
2789,74.0,80,80,0.0,0.0
2790,73.0,0,80,0.0,0.0
2791,73.0,240,720,0.0,0.0
2792,45.0,120,120,0.0,0.0
2793,61.0,240,240,0.0,0.0
2794,80.0,0,240,0.0,0.0
2795,54.0,0,240,0.0,0.0
2796,81.0,0,240,0.0,0.0
2797,51.0,0,720,0.0,0.0
2798,44.0,0,240,0.0,0.0
2799,80.0,120,240,0.0,0.0
2800,67.0,120,120,0.0,0.0
2801,60.0,80,240,0.0,0.0
2802,68.0,0,120,0.0,0.0
2803,54.0,0,240,0.0,0.0
2804,71.0,80,80,0.0,0.0
2805,69.0,80,80,0.0,0.0
2806,52.0,0,720,0.0,0.0
2807,68.0,480,0,0.0,0.0
2808,78.0,0,240,0.0,0.0
2809,61.0,240,240,0.0,0.0
2810,76.0,240,240,0.0,0.0
2811,56.0,0,240,0.0,0.0
2812,54.0,0,720,0.0,0.0
2813,44.0,120,240,0.0,0.0
2814,75.0,0,960,0.0,0.0
2815,67.0,120,120,0.0,0.0
2816,60.0,80,240,0.0,0.0
2817,68.0,0,120,0.0,0.0
2818,56.0,240,480,0.0,0.0
2819,71.0,80,80,0.0,0.0
2820,69.0,80,80,0.0,0.0
2821,68.0,240,80,0.0,0.0
2822,52.0,240,720,0.0,0.0
2823,68.0,0,960,0.0,0.0
2824,75.0,240,240,0.0,0.0
2825,61.0,0,240,0.0,0.0
2826,56.0,0,240,0.0,0.0
2827,73.0,0,240,0.0,0.0
2828,72.0,120,240,0.0,0.0
2829,51.0,0,720,0.0,0.0
2830,44.0,0,240,0.0,0.0
2831,60.0,80,240,0.0,0.0
2832,67.0,120,120,0.0,0.0
2833,68.0,0,120,0.0,0.0
2834,71.0,80,80,0.0,0.0
2835,56.0,240,480,0.0,0.0
2836,69.0,80,80,0.0,0.0
2837,68.0,240,80,0.0,0.0
2838,68.0,0,960,0.0,0.0
2839,52.0,240,720,0.0,0.0
2840,61.0,0,240,0.0,0.0
2841,78.0,240,240,0.0,0.0
2842,76.0,0,240,0.0,0.0
2843,56.0,0,240,0.0,0.0
2844,75.0,120,240,0.0,0.0
2845,47.0,0,1440,0.0,0.0
2846,54.0,120,1200,0.0,0.0
2847,70.0,120,120,0.0,0.0
2848,71.0,80,120,0.0,0.0
2849,57.0,0,960,0.0,0.0
2850,75.0,80,80,0.0,0.0
2851,73.0,80,80,0.0,0.0
2852,63.0,0,720,0.0,0.0
2853,71.0,480,0,0.0,0.0
2854,76.0,240,240,0.0,0.0
2855,78.0,0,240,0.0,0.0
2856,68.0,120,120,0.0,0.0
2857,52.0,120,720,0.0,0.0
2858,71.0,120,120,0.0,0.0
2859,64.0,0,240,0.0,0.0
2860,59.0,0,240,0.0,0.0
2861,76.0,120,120,0.0,0.0
2862,80.0,120,120,0.0,0.0
2863,78.0,120,120,0.0,0.0
2864,56.0,0,240,0.0,0.0
2865,76.0,0,120,0.0,0.0
2866,80.0,120,120,0.0,0.0
2867,51.0,0,720,0.0,0.0
2868,83.0,120,120,0.0,0.0
2869,88.0,120,120,0.0,0.0
2870,64.0,120,240,0.0,0.0
2871,59.0,0,240,0.0,0.0
2872,92.0,0,120,0.0,0.0
2873,56.0,0,240,0.0,0.0
2874,90.0,120,120,0.0,0.0
2875,88.0,120,120,0.0,0.0
2876,83.0,120,120,0.0,0.0
2877,52.0,0,240,0.0,0.0
2878,80.0,120,120,0.0,0.0
2879,64.0,0,240,0.0,0.0
2880,59.0,0,240,0.0,0.0
2881,78.0,120,120,0.0,0.0
2882,76.0,120,120,0.0,0.0
2883,71.0,120,120,0.0,0.0
2884,56.0,0,240,0.0,0.0
2885,68.0,120,120,0.0,0.0
2886,66.0,120,120,0.0,0.0
2887,47.0,0,720,0.0,0.0
2888,64.0,120,120,0.0,0.0
2889,59.0,120,120,0.0,0.0
2890,68.0,120,120,0.0,0.0
2891,66.0,120,120,0.0,0.0
2892,64.0,120,120,0.0,0.0
2893,45.0,0,120,0.0,0.0
2894,61.0,120,120,0.0,0.0
2895,64.0,120,0,0.0,0.0
2896,61.0,0,240,0.0,0.0
2897,66.0,120,120,0.0,0.0
2898,69.0,120,120,0.0,0.0
2899,54.0,120,240,0.0,0.0
2900,73.0,120,120,0.0,0.0
2901,76.0,0,120,0.0,0.0
2902,42.0,0,120,0.0,0.0
2903,78.0,120,120,0.0,0.0
2904,81.0,120,120,0.0,0.0
2905,85.0,120,120,0.0,0.0
2906,64.0,120,240,0.0,0.0
2907,61.0,0,240,0.0,0.0
2908,88.0,0,120,0.0,0.0
2909,90.0,120,120,0.0,0.0
2910,54.0,0,240,0.0,0.0
2911,93.0,120,120,0.0,0.0
2912,47.0,0,120,0.0,0.0
2913,92.0,120,120,0.0,0.0
2914,90.0,120,120,0.0,0.0
2915,63.0,0,1200,0.0,0.0
2916,59.0,0,1200,0.0,0.0
2917,87.0,120,120,0.0,0.0
2918,81.0,120,120,0.0,0.0
2919,54.0,120,240,0.0,0.0
2920,80.0,120,120,0.0,0.0
2921,78.0,0,120,0.0,0.0
2922,75.0,120,120,0.0,0.0
2923,56.0,0,240,0.0,0.0
2924,71.0,120,120,0.0,0.0
2925,75.0,120,120,0.0,0.0
2926,54.0,120,240,0.0,0.0
2927,73.0,0,120,0.0,0.0
2928,71.0,120,120,0.0,0.0
2929,56.0,0,240,0.0,0.0
2930,69.0,120,120,0.0,0.0
2931,52.0,0,720,0.0,0.0
2932,68.0,120,120,0.0,0.0
2933,71.0,120,120,0.0,0.0
2934,59.0,0,240,0.0,0.0
2935,64.0,0,240,0.0,0.0
2936,76.0,120,120,0.0,0.0
2937,80.0,120,120,0.0,0.0
2938,78.0,120,120,0.0,0.0
2939,56.0,0,240,0.0,0.0
2940,76.0,120,120,0.0,0.0
2941,80.0,120,120,0.0,0.0
2942,51.0,0,720,0.0,0.0
2943,83.0,120,120,0.0,0.0
2944,59.0,120,240,0.0,0.0
2945,88.0,120,120,0.0,0.0
2946,64.0,0,240,0.0,0.0
2947,92.0,0,120,0.0,0.0
2948,56.0,120,240,0.0,0.0
2949,90.0,120,120,0.0,0.0
2950,88.0,0,120,0.0,0.0
2951,83.0,120,120,0.0,0.0
2952,52.0,0,240,0.0,0.0
2953,80.0,120,120,0.0,0.0
2954,59.0,0,240,0.0,0.0
2955,64.0,120,240,0.0,0.0
2956,78.0,120,120,0.0,0.0
2957,76.0,0,120,0.0,0.0
2958,56.0,120,240,0.0,0.0
2959,71.0,120,120,0.0,0.0
2960,68.0,0,120,0.0,0.0
2961,47.0,0,720,0.0,0.0
2962,66.0,120,120,0.0,0.0
2963,64.0,120,120,0.0,0.0
2964,59.0,120,120,0.0,0.0
2965,68.0,120,120,0.0,0.0
2966,66.0,120,120,0.0,0.0
2967,64.0,120,120,0.0,0.0
2968,61.0,120,120,0.0,0.0
2969,45.0,0,120,0.0,0.0
2970,64.0,120,0,0.0,0.0
2971,61.0,0,240,0.0,0.0
2972,66.0,120,120,0.0,0.0
2973,69.0,120,120,0.0,0.0
2974,73.0,120,120,0.0,0.0
2975,54.0,0,240,0.0,0.0
2976,76.0,120,120,0.0,0.0
2977,42.0,120,120,0.0,0.0
2978,78.0,0,120,0.0,0.0
2979,81.0,120,120,0.0,0.0
2980,64.0,120,240,0.0,0.0
2981,61.0,0,240,0.0,0.0
2982,85.0,120,120,0.0,0.0
2983,88.0,0,120,0.0,0.0
2984,90.0,120,120,0.0,0.0
2985,54.0,120,240,0.0,0.0
2986,93.0,0,120,0.0,0.0
2987,47.0,0,120,0.0,0.0
2988,92.0,120,120,0.0,0.0
2989,90.0,120,120,0.0,0.0
2990,87.0,120,120,0.0,0.0
2991,59.0,0,1200,0.0,0.0
2992,63.0,0,1200,0.0,0.0
2993,81.0,120,120,0.0,0.0
2994,80.0,120,120,0.0,0.0
2995,54.0,120,240,0.0,0.0
2996,78.0,0,120,0.0,0.0
2997,75.0,120,120,0.0,0.0
2998,56.0,0,240,0.0,0.0
2999,71.0,120,120,0.0,0.0
3000,54.0,0,240,0.0,0.0
3001,75.0,120,120,0.0,0.0
3002,73.0,120,120,0.0,0.0
3003,71.0,120,120,0.0,0.0
3004,56.0,0,240,0.0,0.0
3005,69.0,120,120,0.0,0.0
3006,52.0,0,720,0.0,0.0
3007,68.0,120,120,0.0,0.0
3008,71.0,120,120,0.0,0.0
3009,59.0,0,240,0.0,0.0
3010,64.0,0,240,0.0,0.0
3011,76.0,120,120,0.0,0.0
3012,80.0,120,120,0.0,0.0
3013,56.0,0,240,0.0,0.0
3014,78.0,120,120,0.0,0.0
3015,76.0,120,120,0.0,0.0
3016,47.0,120,120,0.0,0.0
3017,80.0,0,120,0.0,0.0
3018,83.0,120,120,0.0,0.0
3019,64.0,0,240,0.0,0.0
3020,88.0,120,120,0.0,0.0
3021,59.0,120,240,0.0,0.0
3022,92.0,0,120,0.0,0.0
3023,56.0,120,240,0.0,0.0
3024,90.0,120,120,0.0,0.0
3025,88.0,0,120,0.0,0.0
3026,57.0,120,240,0.0,0.0
3027,45.0,0,240,0.0,0.0
3028,84.0,120,120,0.0,0.0
3029,81.0,0,120,0.0,0.0
3030,48.0,0,480,0.0,0.0
3031,60.0,120,480,0.0,0.0
3032,78.0,120,120,0.0,0.0
3033,76.0,120,120,0.0,0.0
3034,72.0,120,120,0.0,0.0
3035,69.0,0,120,0.0,0.0
3036,66.0,120,120,0.0,0.0
3037,64.0,120,120,0.0,0.0
3038,60.0,120,120,0.0,0.0
3039,59.0,120,120,0.0,0.0
3040,57.0,120,120,0.0,0.0
3041,56.0,120,120,0.0,0.0
3042,40.0,0,720,0.0,0.0
3043,56.0,120,120,0.0,0.0
3044,59.0,120,120,0.0,0.0
3045,64.0,120,120,0.0,0.0
3046,52.0,0,240,0.0,0.0
3047,68.0,120,120,0.0,0.0
3048,47.0,0,240,0.0,0.0
3049,66.0,120,120,0.0,0.0
3050,64.0,120,120,0.0,0.0
3051,68.0,0,120,0.0,0.0
3052,35.0,120,120,0.0,0.0
3053,71.0,120,120,0.0,0.0
3054,52.0,0,240,0.0,0.0
3055,76.0,120,120,0.0,0.0
3056,80.0,120,120,0.0,0.0
3057,47.0,0,240,0.0,0.0
3058,78.0,120,120,0.0,0.0
3059,76.0,120,120,0.0,0.0
3060,72.0,120,120,0.0,0.0
3061,33.0,120,240,0.0,0.0
3062,45.0,0,240,0.0,0.0
3063,69.0,0,120,0.0,0.0
3064,48.0,0,480,0.0,0.0
3065,36.0,120,480,0.0,0.0
3066,66.0,120,120,0.0,0.0
3067,64.0,120,120,0.0,0.0
3068,60.0,120,120,0.0,0.0
3069,57.0,0,120,0.0,0.0
3070,54.0,120,120,0.0,0.0
3071,52.0,120,120,0.0,0.0
3072,48.0,120,120,0.0,0.0
3073,45.0,120,120,0.0,0.0
3074,42.0,120,120,0.0,0.0
3075,40.0,240,120,0.0,0.0
3076,28.0,120,240,0.0,0.0
3077,47.0,120,120,0.0,0.0
3078,52.0,120,120,0.0,0.0
3079,57.0,120,120,0.0,0.0
3080,56.0,120,120,0.0,0.0
3081,59.0,120,120,0.0,0.0
3082,64.0,120,120,0.0,0.0
3083,69.0,120,120,0.0,0.0
3084,68.0,120,120,0.0,0.0
3085,71.0,120,120,0.0,0.0
3086,76.0,120,120,0.0,0.0
3087,81.0,120,120,0.0,0.0
3088,59.0,0,240,0.0,0.0
3089,52.0,120,240,0.0,0.0
3090,68.0,0,240,0.0,0.0
3091,80.0,0,120,0.0,0.0
3092,83.0,120,120,0.0,0.0
3093,88.0,120,120,0.0,0.0
3094,93.0,120,120,0.0,0.0
3095,92.0,120,120,0.0,0.0
3096,88.0,120,120,0.0,0.0
3097,83.0,120,120,0.0,0.0
3098,81.0,120,120,0.0,0.0
3099,80.0,120,120,0.0,0.0
3100,76.0,120,120,0.0,0.0
3101,71.0,120,120,0.0,0.0
3102,69.0,120,120,0.0,0.0
3103,68.0,120,120,0.0,0.0
3104,64.0,120,120,0.0,0.0
3105,59.0,120,120,0.0,0.0
3106,57.0,120,120,0.0,0.0
3107,56.0,120,120,0.0,0.0
3108,52.0,120,120,0.0,0.0
3109,47.0,120,120,0.0,0.0
3110,45.0,120,120,0.0,0.0
3111,44.0,120,120,0.0,0.0
3112,40.0,120,120,0.0,0.0
3113,35.0,720,120,0.0,0.0
3114,28.0,960,720,0.0,0.0
3115,38.0,120,240,0.0,0.0
3116,26.0,0,240,0.0,0.0
3117,47.0,120,120,0.0,0.0
3118,53.0,120,120,0.0,0.0
3119,57.0,120,120,0.0,0.0
3120,56.0,120,120,0.0,0.0
3121,59.0,120,120,0.0,0.0
3122,65.0,120,120,0.0,0.0
3123,69.0,120,120,0.0,0.0
3124,68.0,120,120,0.0,0.0
3125,71.0,120,120,0.0,0.0
3126,77.0,120,120,0.0,0.0
3127,50.0,0,240,0.0,0.0
3128,81.0,120,120,0.0,0.0
3129,56.0,120,240,0.0,0.0
3130,65.0,0,240,0.0,0.0
3131,59.0,0,240,0.0,0.0
3132,80.0,0,120,0.0,0.0
3133,83.0,120,120,0.0,0.0
3134,89.0,120,120,0.0,0.0
3135,93.0,120,120,0.0,0.0
3136,92.0,120,120,0.0,0.0
3137,89.0,120,120,0.0,0.0
3138,83.0,120,120,0.0,0.0
3139,81.0,120,120,0.0,0.0
3140,80.0,120,120,0.0,0.0
3141,77.0,120,120,0.0,0.0
3142,71.0,120,120,0.0,0.0
3143,69.0,120,120,0.0,0.0
3144,68.0,120,120,0.0,0.0
3145,65.0,120,120,0.0,0.0
3146,59.0,120,120,0.0,0.0
3147,57.0,120,120,0.0,0.0
3148,56.0,120,120,0.0,0.0
3149,53.0,120,120,0.0,0.0
3150,47.0,120,120,0.0,0.0
3151,45.0,120,120,0.0,0.0
3152,44.0,120,120,0.0,0.0
3153,41.0,120,120,0.0,0.0
3154,35.0,1440,120,0.0,0.0
3155,26.0,240,1440,0.0,0.0
3156,37.0,0,240,0.0,0.0
3157,25.0,120,240,0.0,0.0
3158,70.0,120,120,0.0,0.0
3159,68.0,120,120,0.0,0.0
3160,71.0,120,120,0.0,0.0
3161,77.0,120,120,0.0,0.0
3162,82.0,120,120,0.0,0.0
3163,56.0,0,240,0.0,0.0
3164,44.0,0,240,0.0,0.0
3165,80.0,120,120,0.0,0.0
3166,51.0,0,240,0.0,0.0
3167,63.0,120,240,0.0,0.0
3168,83.0,120,120,0.0,0.0
3169,89.0,0,120,0.0,0.0
3170,61.0,0,240,0.0,0.0
3171,94.0,120,120,0.0,0.0
3172,92.0,120,120,0.0,0.0
3173,49.0,0,0,0.0,0.0
3174,61.0,120,480,0.0,0.0
3175,82.0,120,120,0.0,0.0
3176,88.0,120,120,0.0,0.0
3177,92.0,120,120,0.0,0.0
3178,91.0,0,120,0.0,0.0
3179,88.0,120,120,0.0,0.0
3180,82.0,120,120,0.0,0.0
3181,37.0,0,120,0.0,0.0
3182,80.0,0,120,0.0,0.0
3183,49.0,120,120,0.0,0.0
3184,79.0,120,120,0.0,0.0
3185,76.0,120,120,0.0,0.0
3186,70.0,120,120,0.0,0.0
3187,68.0,120,120,0.0,0.0
3188,67.0,120,120,0.0,0.0
3189,25.0,0,240,0.0,0.0
3190,37.0,0,240,0.0,0.0
3191,57.0,120,120,0.0,0.0
3192,63.0,120,120,0.0,0.0
3193,68.0,120,120,0.0,0.0
3194,66.0,120,120,0.0,0.0
3195,69.0,120,120,0.0,0.0
3196,75.0,120,120,0.0,0.0
3197,80.0,120,120,0.0,0.0
3198,42.0,0,240,0.0,0.0
3199,54.0,0,240,0.0,0.0
3200,78.0,120,120,0.0,0.0
3201,81.0,120,120,0.0,0.0
3202,63.0,0,240,0.0,0.0
3203,51.0,0,240,0.0,0.0
3204,87.0,120,120,0.0,0.0
3205,49.0,0,240,0.0,0.0
3206,61.0,0,240,0.0,0.0
3207,92.0,120,120,0.0,0.0
3208,90.0,120,120,0.0,0.0
3209,80.0,120,120,0.0,0.0
3210,61.0,0,120,0.0,0.0
3211,49.0,0,120,0.0,0.0
3212,85.0,120,120,0.0,0.0
3213,90.0,120,120,0.0,0.0
3214,43.0,120,240,0.0,0.0
3215,31.0,0,240,0.0,0.0
3216,89.0,0,120,0.0,0.0
3217,85.0,120,120,0.0,0.0
3218,80.0,120,120,0.0,0.0
3219,32.0,0,0,0.0,0.0
3220,44.0,0,0,0.0,0.0
3221,78.0,120,120,0.0,0.0
3222,77.0,0,120,0.0,0.0
3223,51.0,120,240,0.0,0.0
3224,39.0,0,240,0.0,0.0
3225,73.0,120,120,0.0,0.0
3226,68.0,0,120,0.0,0.0
3227,66.0,120,120,0.0,0.0
3228,49.0,0,240,0.0,0.0
3229,37.0,0,240,0.0,0.0
3230,65.0,120,120,0.0,0.0
3231,38.0,120,240,0.0,0.0
3232,50.0,0,240,0.0,0.0
3233,60.0,120,120,0.0,0.0
3234,66.0,0,120,0.0,0.0
3235,71.0,120,120,0.0,0.0
3236,69.0,120,120,0.0,0.0
3237,72.0,120,120,0.0,0.0
3238,78.0,120,120,0.0,0.0
3239,57.0,0,240,0.0,0.0
3240,45.0,0,240,0.0,0.0
3241,83.0,120,120,0.0,0.0
3242,81.0,120,120,0.0,0.0
3243,64.0,0,240,0.0,0.0
3244,84.0,120,120,0.0,0.0
3245,52.0,120,240,0.0,0.0
3246,90.0,0,120,0.0,0.0
3247,95.0,120,120,0.0,0.0
3248,62.0,0,240,0.0,0.0
3249,93.0,120,120,0.0,0.0
3250,50.0,0,0,0.0,0.0
3251,62.0,120,480,0.0,0.0
3252,83.0,120,120,0.0,0.0
3253,89.0,120,120,0.0,0.0
3254,93.0,120,120,0.0,0.0
3255,92.0,0,120,0.0,0.0
3256,89.0,120,120,0.0,0.0
3257,83.0,120,120,0.0,0.0
3258,38.0,0,120,0.0,0.0
3259,50.0,0,120,0.0,0.0
3260,81.0,120,120,0.0,0.0
3261,80.0,120,120,0.0,0.0
3262,77.0,120,120,0.0,0.0
3263,71.0,120,120,0.0,0.0
3264,69.0,120,120,0.0,0.0
3265,68.0,120,120,0.0,0.0
3266,26.0,0,240,0.0,0.0
3267,38.0,0,240,0.0,0.0
3268,58.0,120,120,0.0,0.0
3269,64.0,120,120,0.0,0.0
3270,69.0,120,120,0.0,0.0
3271,67.0,120,120,0.0,0.0
3272,70.0,120,120,0.0,0.0
3273,76.0,120,120,0.0,0.0
3274,81.0,120,120,0.0,0.0
3275,43.0,0,240,0.0,0.0
3276,55.0,0,240,0.0,0.0
3277,79.0,120,120,0.0,0.0
3278,64.0,0,240,0.0,0.0
3279,52.0,120,240,0.0,0.0
3280,82.0,120,120,0.0,0.0
3281,88.0,0,120,0.0,0.0
3282,62.0,120,240,0.0,0.0
3283,50.0,0,240,0.0,0.0
3284,93.0,120,120,0.0,0.0
3285,91.0,0,120,0.0,0.0
3286,81.0,120,120,0.0,0.0
3287,50.0,0,120,0.0,0.0
3288,62.0,0,120,0.0,0.0
3289,86.0,120,120,0.0,0.0
3290,37.0,0,240,0.0,0.0
3291,49.0,120,240,0.0,0.0
3292,91.0,120,120,0.0,0.0
3293,90.0,0,120,0.0,0.0
3294,86.0,120,120,0.0,0.0
3295,50.0,0,240,0.0,0.0
3296,38.0,0,240,0.0,0.0
3297,81.0,120,120,0.0,0.0
3298,38.0,0,120,0.0,0.0
3299,50.0,120,120,0.0,0.0
3300,79.0,0,120,0.0,0.0
3301,78.0,120,120,0.0,0.0
3302,35.0,120,240,0.0,0.0
3303,47.0,0,240,0.0,0.0
3304,74.0,120,120,0.0,0.0
3305,69.0,0,120,0.0,0.0
3306,36.0,0,240,0.0,0.0
3307,67.0,120,120,0.0,0.0
3308,48.0,240,240,0.0,0.0
3309,66.0,0,120,0.0,0.0
3310,67.0,0,240,0.0,0.0
3311,34.0,0,240,0.0,0.0
3312,46.0,0,240,0.0,0.0
3313,74.0,120,240,0.0,0.0
3314,62.0,0,0,0.0,0.0
3315,73.0,120,120,0.0,0.0
3316,74.0,0,120,0.0,0.0
3317,77.0,80,80,0.0,0.0
3318,50.0,0,240,0.0,0.0
3319,55.0,240,240,0.0,0.0
3320,75.0,80,80,0.0,0.0
3321,74.0,0,80,0.0,0.0
3322,45.0,240,240,0.0,0.0
3323,74.0,0,960,0.0,0.0
3324,86.0,240,240,0.0,0.0
3325,78.0,240,480,0.0,0.0
3326,62.0,0,240,0.0,0.0
3327,50.0,0,240,0.0,0.0
3328,57.0,0,240,0.0,0.0
3329,84.0,0,240,0.0,0.0
3330,43.0,0,240,0.0,0.0
3331,79.0,0,240,0.0,0.0
3332,82.0,120,240,0.0,0.0
3333,62.0,0,240,0.0,0.0
3334,73.0,120,120,0.0,0.0
3335,74.0,80,120,0.0,0.0
3336,58.0,0,240,0.0,0.0
3337,50.0,0,240,0.0,0.0
3338,77.0,80,80,0.0,0.0
3339,75.0,80,80,0.0,0.0
3340,48.0,0,720,0.0,0.0
3341,74.0,480,0,0.0,0.0
3342,82.0,240,240,0.0,0.0
3343,62.0,0,240,0.0,0.0
3344,70.0,0,240,0.0,0.0
3345,57.0,0,240,0.0,0.0
3346,54.0,0,240,0.0,0.0
3347,81.0,0,240,0.0,0.0
3348,69.0,240,240,0.0,0.0
3349,46.0,0,240,0.0,0.0
3350,67.0,0,240,0.0,0.0
3351,79.0,0,240,0.0,0.0
3352,62.0,80,240,0.0,0.0
3353,73.0,120,120,0.0,0.0
3354,74.0,0,120,0.0,0.0
3355,55.0,0,240,0.0,0.0
3356,50.0,240,240,0.0,0.0
3357,77.0,80,80,0.0,0.0
3358,75.0,80,80,0.0,0.0
3359,74.0,0,80,0.0,0.0
3360,74.0,0,960,0.0,0.0
3361,45.0,240,240,0.0,0.0
3362,86.0,0,240,0.0,0.0
3363,78.0,240,480,0.0,0.0
3364,62.0,240,240,0.0,0.0
3365,57.0,0,240,0.0,0.0
3366,84.0,0,240,0.0,0.0
3367,50.0,0,240,0.0,0.0
3368,43.0,0,240,0.0,0.0
3369,79.0,0,240,0.0,0.0
3370,82.0,120,240,0.0,0.0
3371,62.0,80,240,0.0,0.0
3372,66.0,120,120,0.0,0.0
3373,67.0,0,120,0.0,0.0
3374,55.0,0,240,0.0,0.0
3375,70.0,80,80,0.0,0.0
3376,68.0,80,80,0.0,0.0
3377,67.0,240,0,0.0,0.0
3378,47.0,240,240,0.0,0.0
3379,62.0,240,240,0.0,0.0
3380,79.0,0,240,0.0,0.0
3381,74.0,0,480,0.0,0.0
3382,77.0,240,240,0.0,0.0
3383,55.0,0,240,0.0,0.0
3384,72.0,0,240,0.0,0.0
3385,75.0,120,240,0.0,0.0
3386,48.0,0,240,0.0,0.0
3387,63.0,0,240,0.0,0.0
3388,78.0,120,120,0.0,0.0
3389,79.0,80,120,0.0,0.0
3390,55.0,240,240,0.0,0.0
3391,82.0,80,80,0.0,0.0
3392,80.0,80,80,0.0,0.0
3393,79.0,0,0,0.0,0.0
3394,50.0,240,240,0.0,0.0
3395,65.0,0,240,0.0,0.0
3396,83.0,0,480,0.0,0.0
3397,91.0,240,240,0.0,0.0
3398,59.0,240,240,0.0,0.0
3399,55.0,0,240,0.0,0.0
3400,89.0,0,240,0.0,0.0
3401,51.0,120,240,0.0,0.0
3402,84.0,0,240,0.0,0.0
3403,87.0,0,240,0.0,0.0
3404,67.0,0,240,0.0,0.0
3405,78.0,120,120,0.0,0.0
3406,79.0,80,120,0.0,0.0
3407,82.0,80,80,0.0,0.0
3408,55.0,0,240,0.0,0.0
3409,60.0,480,240,0.0,0.0
3410,80.0,80,80,0.0,0.0
3411,53.0,0,720,0.0,0.0
3412,79.0,0,0,0.0,0.0
3413,75.0,0,240,0.0,0.0
3414,67.0,240,240,0.0,0.0
3415,87.0,0,240,0.0,0.0
3416,86.0,0,240,0.0,0.0
3417,74.0,0,240,0.0,0.0
3418,55.0,0,240,0.0,0.0
3419,59.0,240,240,0.0,0.0
3420,84.0,120,240,0.0,0.0
3421,79.0,0,0,0.0,0.0
3422,51.0,0,720,0.0,0.0
3423,72.0,0,240,0.0,0.0
3424,66.0,120,120,0.0,0.0
3425,63.0,0,240,0.0,0.0
3426,67.0,80,120,0.0,0.0
3427,70.0,80,80,0.0,0.0
3428,60.0,480,240,0.0,0.0
3429,55.0,0,240,0.0,0.0
3430,68.0,80,80,0.0,0.0
3431,67.0,0,80,0.0,0.0
3432,67.0,0,960,0.0,0.0
3433,50.0,0,720,0.0,0.0
3434,71.0,240,480,0.0,0.0
3435,79.0,0,240,0.0,0.0
3436,62.0,240,240,0.0,0.0
3437,55.0,0,240,0.0,0.0
3438,77.0,0,240,0.0,0.0
3439,72.0,0,240,0.0,0.0
3440,75.0,120,240,0.0,0.0
3441,48.0,0,720,0.0,0.0
3442,62.0,120,120,0.0,0.0
3443,60.0,80,240,0.0,0.0
3444,63.0,0,120,0.0,0.0
3445,55.0,0,240,0.0,0.0
3446,51.0,480,240,0.0,0.0
3447,67.0,80,80,0.0,0.0
3448,65.0,80,80,0.0,0.0
3449,63.0,0,80,0.0,0.0
3450,63.0,0,960,0.0,0.0
3451,46.0,240,720,0.0,0.0
3452,61.0,0,240,0.0,0.0
3453,67.0,0,480,0.0,0.0
3454,75.0,240,240,0.0,0.0
3455,55.0,0,240,0.0,0.0
3456,51.0,0,240,0.0,0.0
3457,73.0,0,240,0.0,0.0
3458,68.0,0,240,0.0,0.0
3459,71.0,0,240,0.0,0.0
3460,44.0,120,240,0.0,0.0
3461,74.0,120,120,0.0,0.0
3462,59.0,80,240,0.0,0.0
3463,75.0,0,120,0.0,0.0
3464,51.0,240,240,0.0,0.0
3465,56.0,0,240,0.0,0.0
3466,78.0,80,80,0.0,0.0
3467,76.0,80,80,0.0,0.0
3468,75.0,0,80,0.0,0.0
3469,75.0,120,960,0.0,0.0
3470,43.0,240,240,0.0,0.0
3471,63.0,0,240,0.0,0.0
3472,87.0,240,240,0.0,0.0
3473,82.0,0,480,0.0,0.0
3474,85.0,0,240,0.0,0.0
3475,58.0,0,240,0.0,0.0
3476,51.0,240,240,0.0,0.0
3477,44.0,0,240,0.0,0.0
3478,83.0,0,240,0.0,0.0
3479,80.0,0,240,0.0,0.0
3480,63.0,0,240,0.0,0.0
3481,74.0,120,120,0.0,0.0
3482,75.0,80,120,0.0,0.0
3483,51.0,0,240,0.0,0.0
3484,56.0,0,240,0.0,0.0
3485,59.0,240,240,0.0,0.0
3486,78.0,80,80,0.0,0.0
3487,76.0,80,80,0.0,0.0
3488,75.0,0,80,0.0,0.0
3489,46.0,240,240,0.0,0.0
3490,63.0,0,240,0.0,0.0
3491,83.0,240,240,0.0,0.0
3492,71.0,0,240,0.0,0.0
3493,82.0,240,240,0.0,0.0
3494,61.0,0,240,0.0,0.0
3495,55.0,0,240,0.0,0.0
3496,51.0,0,240,0.0,0.0
3497,70.0,0,240,0.0,0.0
3498,47.0,0,240,0.0,0.0
3499,80.0,0,240,0.0,0.0
3500,75.0,0,0,0.0,0.0
3501,68.0,0,240,0.0,0.0
3502,63.0,80,240,0.0,0.0
3503,74.0,120,120,0.0,0.0
3504,75.0,0,120,0.0,0.0
3505,59.0,0,240,0.0,0.0
3506,78.0,80,80,0.0,0.0
3507,51.0,240,240,0.0,0.0
3508,56.0,0,240,0.0,0.0
3509,76.0,80,80,0.0,0.0
3510,75.0,0,80,0.0,0.0
3511,75.0,0,960,0.0,0.0
3512,43.0,240,240,0.0,0.0
3513,63.0,0,240,0.0,0.0
3514,82.0,0,480,0.0,0.0
3515,87.0,240,240,0.0,0.0
3516,58.0,240,240,0.0,0.0
3517,51.0,0,240,0.0,0.0
3518,85.0,0,240,0.0,0.0
3519,83.0,0,240,0.0,0.0
3520,80.0,0,240,0.0,0.0
3521,44.0,120,240,0.0,0.0
3522,63.0,0,240,0.0,0.0
3523,74.0,120,120,0.0,0.0
3524,75.0,80,120,0.0,0.0
3525,51.0,0,240,0.0,0.0
3526,59.0,240,240,0.0,0.0
3527,56.0,0,240,0.0,0.0
3528,78.0,80,80,0.0,0.0
3529,76.0,80,80,0.0,0.0
3530,75.0,0,0,0.0,0.0
3531,46.0,240,240,0.0,0.0
3532,63.0,0,240,0.0,0.0
3533,83.0,0,240,0.0,0.0
3534,71.0,240,240,0.0,0.0
3535,70.0,0,240,0.0,0.0
3536,82.0,0,240,0.0,0.0
3537,51.0,0,240,0.0,0.0
3538,55.0,0,240,0.0,0.0
3539,61.0,0,240,0.0,0.0
3540,68.0,0,240,0.0,0.0
3541,47.0,0,120,0.0,0.0
3542,80.0,480,240,0.0,0.0
3543,35.0,120,120,0.0,0.0
3544,76.0,0,240,0.0,0.0
3545,56.0,0,240,0.0,0.0
3546,64.0,0,240,0.0,0.0
3547,80.0,240,60,0.0,0.0
3548,71.0,0,240,0.0,0.0
3549,92.0,0,240,0.0,0.0
3550,59.0,120,240,0.0,0.0
3551,90.0,120,120,0.0,0.0
3552,88.0,120,120,0.0,0.0
3553,56.0,0,240,0.0,0.0
3554,64.0,120,240,0.0,0.0
3555,83.0,120,120,0.0,0.0
3556,80.0,0,120,0.0,0.0
3557,78.0,120,120,0.0,0.0
3558,71.0,0,240,0.0,0.0
3559,59.0,0,240,0.0,0.0
3560,76.0,120,120,0.0,0.0
3561,71.0,120,120,0.0,0.0
3562,68.0,120,120,0.0,0.0
3563,66.0,120,120,0.0,0.0
3564,64.0,240,120,0.0,0.0
3565,59.0,600,240,0.0,0.0
3566,35.0,0,120,0.0,0.0
3567,75.0,120,120,0.0,0.0
3568,47.0,0,120,0.0,0.0
3569,76.0,120,120,0.0,0.0
3570,78.0,120,120,0.0,0.0
3571,80.0,120,120,0.0,0.0
3572,81.0,120,120,0.0,0.0
3573,83.0,240,120,0.0,0.0
3574,63.0,0,240,0.0,0.0
3575,60.0,0,240,0.0,0.0
3576,57.0,240,240,0.0,0.0
3577,66.0,0,240,0.0,0.0
3578,84.0,0,240,0.0,0.0
3579,60.0,0,240,0.0,0.0
3580,57.0,0,240,0.0,0.0
3581,68.0,240,240,0.0,0.0
3582,63.0,0,0,0.0,0.0
3583,66.0,0,240,0.0,0.0
3584,57.0,0,240,0.0,0.0
3585,60.0,120,240,0.0,0.0
3586,84.0,0,120,0.0,0.0
3587,63.0,0,120,0.0,0.0
3588,60.0,120,120,0.0,0.0
3589,57.0,0,120,0.0,0.0
3590,66.0,0,120,0.0,0.0
3591,83.0,120,120,0.0,0.0
3592,81.0,120,120,0.0,0.0
3593,80.0,120,120,0.0,0.0
3594,78.0,120,120,0.0,0.0
3595,76.0,240,120,0.0,0.0
3596,35.0,0,240,0.0,0.0
3597,47.0,240,240,0.0,0.0
3598,75.0,0,240,0.0,0.0
3599,33.0,0,240,0.0,0.0
3600,45.0,240,240,0.0,0.0
3601,48.0,0,240,0.0,0.0
3602,36.0,120,240,0.0,0.0
3603,80.0,0,60,0.0,0.0
3604,92.0,120,960,0.0,0.0
3605,35.0,360,120,0.0,0.0
3606,47.0,0,120,0.0,0.0
3607,56.0,240,0,0.0,0.0
3608,64.0,0,0,0.0,0.0
3609,71.0,0,360,0.0,0.0
3610,59.0,0,360,0.0,0.0
3611,90.0,120,120,0.0,0.0
3612,88.0,0,120,0.0,0.0
3613,64.0,0,120,0.0,0.0
3614,56.0,120,120,0.0,0.0
3615,83.0,120,120,0.0,0.0
3616,64.0,0,240,0.0,0.0
3617,56.0,120,240,0.0,0.0
3618,80.0,0,120,0.0,0.0
3619,59.0,0,240,0.0,0.0
3620,78.0,120,120,0.0,0.0
3621,71.0,0,240,0.0,0.0
3622,76.0,120,120,0.0,0.0
3623,71.0,120,120,0.0,0.0
3624,68.0,120,120,0.0,0.0
3625,66.0,120,120,0.0,0.0
3626,64.0,240,120,0.0,0.0
3627,59.0,600,240,0.0,0.0
3628,38.0,0,120,0.0,0.0
3629,50.0,0,120,0.0,0.0
3630,77.0,120,120,0.0,0.0
3631,78.0,120,120,0.0,0.0
3632,80.0,120,120,0.0,0.0
3633,81.0,120,120,0.0,0.0
3634,83.0,120,120,0.0,0.0
3635,85.0,240,120,0.0,0.0
3636,86.0,0,240,0.0,0.0
3637,66.0,0,240,0.0,0.0
3638,68.0,0,240,0.0,0.0
3639,59.0,240,0,0.0,0.0
3640,66.0,0,240,0.0,0.0
3641,69.0,0,240,0.0,0.0
3642,66.0,0,240,0.0,0.0
3643,68.0,0,240,0.0,0.0
3644,59.0,120,0,0.0,0.0
3645,68.0,0,120,0.0,0.0
3646,86.0,0,120,0.0,0.0
3647,65.0,0,120,0.0,0.0
3648,85.0,120,120,0.0,0.0
3649,83.0,120,120,0.0,0.0
3650,81.0,120,120,0.0,0.0
3651,80.0,120,120,0.0,0.0
3652,78.0,240,120,0.0,0.0
3653,50.0,240,240,0.0,0.0
3654,77.0,0,240,0.0,0.0
3655,38.0,0,240,0.0,0.0
3656,36.0,240,240,0.0,0.0
3657,48.0,0,240,0.0,0.0
3658,37.0,0,240,0.0,0.0
3659,49.0,120,240,0.0,0.0
3660,40.0,120,120,0.0,0.0
3661,52.0,0,120,0.0,0.0
3662,79.0,0,120,0.0,0.0
3663,80.0,120,120,0.0,0.0
3664,82.0,120,120,0.0,0.0
3665,83.0,120,120,0.0,0.0
3666,85.0,120,120,0.0,0.0
3667,87.0,240,120,0.0,0.0
3668,70.0,240,240,0.0,0.0
3669,68.0,0,240,0.0,0.0
3670,88.0,0,240,0.0,0.0
3671,61.0,0,0,0.0,0.0
3672,68.0,0,240,0.0,0.0
3673,71.0,0,240,0.0,0.0
3674,61.0,240,0,0.0,0.0
3675,68.0,0,240,0.0,0.0
3676,88.0,0,120,0.0,0.0
3677,67.0,0,120,0.0,0.0
3678,61.0,0,120,0.0,0.0
3679,70.0,120,0,0.0,0.0
3680,87.0,120,120,0.0,0.0
3681,85.0,120,120,0.0,0.0
3682,83.0,120,120,0.0,0.0
3683,82.0,120,120,0.0,0.0
3684,80.0,240,120,0.0,0.0
3685,79.0,0,240,0.0,0.0
3686,40.0,240,240,0.0,0.0
3687,52.0,0,240,0.0,0.0
3688,50.0,240,240,0.0,0.0
3689,38.0,0,240,0.0,0.0
3690,39.0,0,240,0.0,0.0
3691,51.0,120,240,0.0,0.0
3692,54.0,0,120,0.0,0.0
3693,42.0,0,120,0.0,0.0
3694,81.0,120,120,0.0,0.0
3695,82.0,120,120,0.0,0.0
3696,84.0,120,120,0.0,0.0
3697,85.0,120,120,0.0,0.0
3698,60.0,0,240,0.0,0.0
3699,87.0,120,120,0.0,0.0
3700,89.0,120,120,0.0,0.0
3701,63.0,0,0,0.0,0.0
3702,90.0,120,120,0.0,0.0
3703,75.0,0,240,0.0,0.0
3704,69.0,0,0,0.0,0.0
3705,99.0,0,120,0.0,0.0
3706,90.0,120,120,0.0,0.0
3707,89.0,120,120,0.0,0.0
3708,63.0,0,240,0.0,0.0
3709,87.0,120,120,0.0,0.0
3710,60.0,120,240,0.0,0.0
3711,69.0,0,240,0.0,0.0
3712,85.0,0,120,0.0,0.0
3713,84.0,120,120,0.0,0.0
3714,63.0,0,240,0.0,0.0
3715,69.0,0,240,0.0,0.0
3716,75.0,0,240,0.0,0.0
3717,85.0,120,120,0.0,0.0
3718,86.0,120,120,0.0,0.0
3719,87.0,120,120,0.0,0.0
3720,88.0,120,120,0.0,0.0
3721,54.0,120,240,0.0,0.0
3722,66.0,0,240,0.0,0.0
3723,89.0,0,120,0.0,0.0
3724,66.0,0,240,0.0,0.0
3725,90.0,120,120,0.0,0.0
3726,99.0,0,120,0.0,0.0
3727,54.0,120,0,0.0,0.0
3728,90.0,120,120,0.0,0.0
3729,89.0,0,120,0.0,0.0
3730,87.0,120,120,0.0,0.0
3731,66.0,120,0,0.0,0.0
3732,54.0,0,0,0.0,0.0
3733,85.0,0,120,0.0,0.0
3734,84.0,120,120,0.0,0.0
3735,63.0,0,240,0.0,0.0
3736,53.0,120,240,0.0,0.0
3737,69.0,0,240,0.0,0.0
3738,60.0,0,240,0.0,0.0
3739,101.0,120,120,0.0,0.0
3740,100.0,120,120,0.0,0.0
3741,99.0,120,120,0.0,0.0
3742,96.0,120,120,0.0,0.0
3743,89.0,120,120,0.0,0.0
3744,93.0,0,240,0.0,0.0
3745,88.0,120,120,0.0,0.0
3746,87.0,120,120,0.0,0.0
3747,84.0,120,120,0.0,0.0
3748,81.0,120,240,0.0,0.0
3749,77.0,120,120,0.0,0.0
3750,76.0,0,120,0.0,0.0
3751,75.0,120,120,0.0,0.0
3752,72.0,120,120,0.0,0.0
3753,65.0,120,120,0.0,0.0
3754,69.0,120,240,0.0,0.0
3755,64.0,0,120,0.0,0.0
3756,63.0,120,120,0.0,0.0
3757,60.0,120,120,0.0,0.0
3758,57.0,0,240,0.0,0.0
3759,53.0,120,120,0.0,0.0
3760,52.0,120,120,0.0,0.0
3761,51.0,120,120,0.0,0.0
3762,48.0,240,120,0.0,0.0
3763,41.0,240,240,0.0,0.0
3764,34.0,0,240,0.0,0.0
3765,46.0,0,240,0.0,0.0
3766,85.0,120,240,0.0,0.0
3767,73.0,0,240,0.0,0.0
3768,70.0,80,240,0.0,0.0
3769,58.0,0,240,0.0,0.0
3770,76.0,120,120,0.0,0.0
3771,77.0,0,120,0.0,0.0
3772,80.0,80,80,0.0,0.0
3773,65.0,0,240,0.0,0.0
3774,61.0,240,240,0.0,0.0
3775,78.0,80,80,0.0,0.0
3776,77.0,0,80,0.0,0.0
3777,77.0,240,240,0.0,0.0
3778,56.0,0,240,0.0,0.0
3779,44.0,0,240,0.0,0.0
3780,68.0,240,240,0.0,0.0
3781,56.0,0,240,0.0,0.0
3782,88.0,0,240,0.0,0.0
3783,76.0,0,240,0.0,0.0
3784,65.0,0,240,0.0,0.0
3785,77.0,0,240,0.0,0.0
3786,89.0,0,240,0.0,0.0
3787,60.0,240,240,0.0,0.0
3788,42.0,120,240,0.0,0.0
3789,54.0,0,240,0.0,0.0
3790,82.0,0,240,0.0,0.0
3791,70.0,0,240,0.0,0.0
3792,66.0,0,240,0.0,0.0
3793,54.0,80,240,0.0,0.0
3794,72.0,120,120,0.0,0.0
3795,73.0,0,120,0.0,0.0
3796,58.0,240,240,0.0,0.0
3797,61.0,0,240,0.0,0.0
3798,77.0,80,80,0.0,0.0
3799,75.0,80,80,0.0,0.0
3800,73.0,0,80,0.0,0.0
3801,41.0,0,240,0.0,0.0
3802,73.0,0,240,0.0,0.0
3803,53.0,240,0,0.0,0.0
3804,72.0,0,240,0.0,0.0
3805,84.0,240,240,0.0,0.0
3806,65.0,0,240,0.0,0.0
3807,73.0,240,240,0.0,0.0
3808,85.0,0,240,0.0,0.0
3809,56.0,0,240,0.0,0.0
3810,61.0,0,240,0.0,0.0
3811,66.0,0,240,0.0,0.0
3812,78.0,0,240,0.0,0.0
3813,39.0,120,240,0.0,0.0
3814,51.0,0,240,0.0,0.0
3815,63.0,80,240,0.0,0.0
3816,69.0,120,120,0.0,0.0
3817,51.0,0,240,0.0,0.0
3818,70.0,0,120,0.0,0.0
3819,73.0,80,80,0.0,0.0
3820,58.0,0,240,0.0,0.0
3821,54.0,0,240,0.0,0.0
3822,72.0,80,80,0.0,0.0
3823,70.0,240,0,0.0,0.0
3824,37.0,0,240,0.0,0.0
3825,61.0,0,240,0.0,0.0
3826,49.0,240,0,0.0,0.0
3827,69.0,0,240,0.0,0.0
3828,81.0,0,240,0.0,0.0
3829,82.0,240,240,0.0,0.0
3830,70.0,0,240,0.0,0.0
3831,58.0,0,240,0.0,0.0
3832,53.0,0,240,0.0,0.0
3833,36.0,0,240,0.0,0.0
3834,63.0,120,240,0.0,0.0
3835,75.0,0,240,0.0,0.0
3836,48.0,0,0,0.0,0.0
3837,60.0,80,240,0.0,0.0
3838,65.0,120,120,0.0,0.0
3839,66.0,0,120,0.0,0.0
3840,70.0,80,80,0.0,0.0
3841,51.0,0,240,0.0,0.0
3842,54.0,0,240,0.0,0.0
3843,68.0,80,80,0.0,0.0
3844,66.0,240,80,0.0,0.0
3845,34.0,0,240,0.0,0.0
3846,66.0,0,720,0.0,0.0
3847,77.0,0,240,0.0,0.0
3848,46.0,240,0,0.0,0.0
3849,74.0,240,240,0.0,0.0
3850,58.0,0,480,0.0,0.0
3851,54.0,0,240,0.0,0.0
3852,51.0,0,240,0.0,0.0
3853,75.0,0,240,0.0,0.0
3854,78.0,240,240,0.0,0.0
3855,65.0,0,240,0.0,0.0
3856,77.0,0,240,0.0,0.0
3857,75.0,0,240,0.0,0.0
3858,57.0,0,240,0.0,0.0
3859,53.0,120,240,0.0,0.0
3860,45.0,0,240,0.0,0.0
3861,48.0,0,240,0.0,0.0
3862,72.0,0,240,0.0,0.0
3863,64.0,120,120,0.0,0.0
3864,52.0,0,120,0.0,0.0
3865,53.0,80,120,0.0,0.0
3866,65.0,0,120,0.0,0.0
3867,68.0,0,80,0.0,0.0
3868,56.0,80,80,0.0,0.0
3869,54.0,0,80,0.0,0.0
3870,66.0,80,80,0.0,0.0
3871,53.0,0,80,0.0,0.0
3872,65.0,240,80,0.0,0.0
3873,53.0,0,240,0.0,0.0
3874,34.0,240,240,0.0,0.0
3875,58.0,0,225,0.0,0.0
3876,46.0,0,210,0.0,0.0
3877,61.0,0,210,0.0,0.0
3878,65.0,0,195,0.0,0.0
3879,51.0,0,240,0.0,0.0
3880,75.0,0,240,0.0,0.0
3881,87.0,240,240,0.0,0.0
3882,63.0,0,240,0.0,0.0
3883,61.0,0,240,0.0,0.0
3884,49.0,240,240,0.0,0.0
3885,73.0,0,240,0.0,0.0
3886,85.0,0,240,0.0,0.0
3887,72.0,0,240,0.0,0.0
3888,41.0,120,240,0.0,0.0
3889,77.0,0,225,0.0,0.0
3890,48.0,0,225,0.0,0.0
3891,81.0,0,210,0.0,0.0
3892,57.0,0,210,0.0,0.0
3893,84.0,0,195,0.0,0.0
3894,64.0,120,120,0.0,0.0
3895,52.0,0,120,0.0,0.0
3896,53.0,0,120,0.0,0.0
3897,65.0,80,120,0.0,0.0
3898,68.0,80,80,0.0,0.0
3899,56.0,0,80,0.0,0.0
3900,66.0,0,80,0.0,0.0
3901,54.0,80,80,0.0,0.0
3902,65.0,240,80,0.0,0.0
3903,53.0,0,0,0.0,0.0
3904,34.0,240,240,0.0,0.0
3905,58.0,0,225,0.0,0.0
3906,61.0,0,210,0.0,0.0
3907,46.0,0,210,0.0,0.0
3908,65.0,0,195,0.0,0.0
3909,72.0,0,240,0.0,0.0
3910,84.0,0,240,0.0,0.0
3911,48.0,240,240,0.0,0.0
3912,60.0,0,240,0.0,0.0
3913,82.0,0,240,0.0,0.0
3914,70.0,240,240,0.0,0.0
3915,58.0,0,240,0.0,0.0
3916,46.0,0,240,0.0,0.0
3917,41.0,120,240,0.0,0.0
3918,69.0,0,240,0.0,0.0
3919,72.0,0,225,0.0,0.0
3920,48.0,0,225,0.0,0.0
3921,57.0,0,210,0.0,0.0
3922,77.0,0,210,0.0,0.0
3923,81.0,0,195,0.0,0.0
3924,64.0,0,120,0.0,0.0
3925,52.0,120,120,0.0,0.0
3926,65.0,80,120,0.0,0.0
3927,53.0,0,120,0.0,0.0
3928,68.0,80,80,0.0,0.0
3929,56.0,0,80,0.0,0.0
3930,66.0,0,80,0.0,0.0
3931,54.0,80,80,0.0,0.0
3932,65.0,240,80,0.0,0.0
3933,53.0,0,80,0.0,0.0
3934,53.0,240,240,0.0,0.0
3935,34.0,0,240,0.0,0.0
3936,58.0,0,225,0.0,0.0
3937,46.0,0,210,0.0,0.0
3938,61.0,0,210,0.0,0.0
3939,65.0,0,195,0.0,0.0
3940,63.0,0,240,0.0,0.0
3941,51.0,0,240,0.0,0.0
3942,75.0,0,240,0.0,0.0
3943,87.0,240,240,0.0,0.0
3944,61.0,240,240,0.0,0.0
3945,49.0,0,240,0.0,0.0
3946,73.0,0,240,0.0,0.0
3947,85.0,0,240,0.0,0.0
3948,72.0,0,240,0.0,0.0
3949,41.0,0,240,0.0,0.0
3950,48.0,0,225,0.0,0.0
3951,77.0,0,225,0.0,0.0
3952,81.0,0,210,0.0,0.0
3953,57.0,120,210,0.0,0.0
3954,84.0,0,195,0.0,0.0
3955,64.0,0,120,0.0,0.0
3956,52.0,120,120,0.0,0.0
3957,65.0,0,120,0.0,0.0
3958,53.0,80,120,0.0,0.0
3959,56.0,0,80,0.0,0.0
3960,68.0,80,80,0.0,0.0
3961,66.0,80,80,0.0,0.0
3962,54.0,0,80,0.0,0.0
3963,65.0,0,80,0.0,0.0
3964,53.0,240,0,0.0,0.0
3965,34.0,0,240,0.0,0.0
3966,58.0,0,225,0.0,0.0
3967,61.0,0,210,0.0,0.0
3968,46.0,0,210,0.0,0.0
3969,65.0,0,195,0.0,0.0
3970,48.0,240,240,0.0,0.0
3971,60.0,0,240,0.0,0.0
3972,72.0,0,240,0.0,0.0
3973,84.0,0,240,0.0,0.0
3974,70.0,0,240,0.0,0.0
3975,82.0,240,240,0.0,0.0
3976,58.0,0,240,0.0,0.0
3977,46.0,0,240,0.0,0.0
3978,41.0,120,240,0.0,0.0
3979,69.0,0,240,0.0,0.0
3980,48.0,0,225,0.0,0.0
3981,72.0,0,225,0.0,0.0
3982,57.0,0,210,0.0,0.0
3983,77.0,0,210,0.0,0.0
3984,81.0,0,195,0.0,0.0
3985,52.0,0,120,0.0,0.0
3986,64.0,120,120,0.0,0.0
3987,65.0,80,120,0.0,0.0
3988,53.0,0,120,0.0,0.0
3989,56.0,80,80,0.0,0.0
3990,68.0,0,80,0.0,0.0
3991,66.0,0,80,0.0,0.0
3992,54.0,80,80,0.0,0.0
3993,53.0,0,80,0.0,0.0
3994,65.0,240,0,0.0,0.0
3995,53.0,240,240,0.0,0.0
3996,85.0,0,240,0.0,0.0
3997,61.0,0,240,0.0,0.0
3998,73.0,240,240,0.0,0.0
3999,60.0,240,240,0.0,0.0
4000,84.0,0,240,0.0,0.0
4001,72.0,0,240,0.0,0.0
4002,41.0,0,240,0.0,0.0
4003,69.0,0,240,0.0,0.0
4004,48.0,0,225,0.0,0.0
4005,72.0,0,225,0.0,0.0
4006,57.0,0,210,0.0,0.0
4007,77.0,120,210,0.0,0.0
4008,81.0,0,195,0.0,0.0
4009,47.0,120,120,0.0,0.0
4010,59.0,0,120,0.0,0.0
4011,60.0,0,120,0.0,0.0
4012,48.0,80,120,0.0,0.0
4013,63.0,80,80,0.0,0.0
4014,51.0,0,80,0.0,0.0
4015,49.0,80,80,0.0,0.0
4016,61.0,0,80,0.0,0.0
4017,48.0,0,0,0.0,0.0
4018,36.0,240,240,0.0,0.0
4019,60.0,240,0,0.0,0.0
4020,58.0,240,240,0.0,0.0
4021,70.0,0,240,0.0,0.0
4022,69.0,0,240,0.0,0.0
4023,57.0,240,240,0.0,0.0
4024,69.0,0,240,0.0,0.0
4025,41.0,0,240,0.0,0.0
4026,48.0,120,225,0.0,0.0
4027,72.0,0,225,0.0,0.0
4028,57.0,0,210,0.0,0.0
4029,77.0,0,210,0.0,0.0
4030,81.0,0,195,0.0,0.0
4031,52.0,0,120,0.0,0.0
4032,64.0,120,120,0.0,0.0
4033,53.0,80,120,0.0,0.0
4034,65.0,0,120,0.0,0.0
4035,56.0,0,80,0.0,0.0
4036,68.0,80,80,0.0,0.0
4037,54.0,80,80,0.0,0.0
4038,66.0,0,80,0.0,0.0
4039,53.0,0,80,0.0,0.0
4040,65.0,240,0,0.0,0.0
4041,53.0,0,240,0.0,0.0
4042,61.0,0,240,0.0,0.0
4043,73.0,240,240,0.0,0.0
4044,85.0,0,240,0.0,0.0
4045,84.0,0,240,0.0,0.0
4046,72.0,0,240,0.0,0.0
4047,60.0,240,240,0.0,0.0
4048,69.0,0,240,0.0,0.0
4049,41.0,0,240,0.0,0.0
4050,48.0,0,225,0.0,0.0
4051,72.0,0,225,0.0,0.0
4052,57.0,120,210,0.0,0.0
4053,77.0,0,210,0.0,0.0
4054,81.0,0,195,0.0,0.0
4055,47.0,0,120,0.0,0.0
4056,59.0,120,120,0.0,0.0
4057,60.0,80,120,0.0,0.0
4058,48.0,0,120,0.0,0.0
4059,63.0,80,80,0.0,0.0
4060,51.0,0,80,0.0,0.0
4061,49.0,80,80,0.0,0.0
4062,61.0,0,80,0.0,0.0
4063,60.0,0,80,0.0,0.0
4064,48.0,240,0,0.0,0.0
4065,60.0,0,240,0.0,0.0
4066,36.0,240,240,0.0,0.0
4067,58.0,240,240,0.0,0.0
4068,70.0,0,240,0.0,0.0
4069,57.0,0,240,0.0,0.0
4070,69.0,240,0,0.0,0.0
4071,41.0,0,240,0.0,0.0
4072,48.0,0,225,0.0,0.0
4073,72.0,0,225,0.0,0.0
4074,57.0,0,210,0.0,0.0
4075,77.0,0,210,0.0,0.0
4076,81.0,120,195,0.0,0.0
4077,47.0,0,120,0.0,0.0
4078,59.0,120,120,0.0,0.0
4079,48.0,0,120,0.0,0.0
4080,60.0,80,120,0.0,0.0
4081,51.0,0,80,0.0,0.0
4082,63.0,80,80,0.0,0.0
4083,61.0,80,80,0.0,0.0
4084,49.0,0,80,0.0,0.0
4085,48.0,240,0,0.0,0.0
4086,36.0,0,240,0.0,0.0
4087,60.0,0,0,0.0,0.0
4088,58.0,0,240,0.0,0.0
4089,70.0,240,240,0.0,0.0
4090,57.0,240,240,0.0,0.0
4091,69.0,0,0,0.0,0.0
4092,41.0,0,240,0.0,0.0
4093,72.0,0,225,0.0,0.0
4094,48.0,0,225,0.0,0.0
4095,77.0,0,210,0.0,0.0
4096,57.0,120,210,0.0,0.0
4097,81.0,0,195,0.0,0.0
4098,59.0,0,120,0.0,0.0
4099,47.0,120,120,0.0,0.0
4100,48.0,80,120,0.0,0.0
4101,60.0,0,120,0.0,0.0
4102,63.0,80,80,0.0,0.0
4103,51.0,0,80,0.0,0.0
4104,61.0,0,80,0.0,0.0
4105,49.0,80,80,0.0,0.0
4106,60.0,0,80,0.0,0.0
4107,36.0,0,240,0.0,0.0
4108,60.0,0,240,0.0,0.0
4109,48.0,240,0,0.0,0.0
4110,70.0,240,240,0.0,0.0
4111,58.0,0,240,0.0,0.0
4112,57.0,0,240,0.0,0.0
4113,41.0,0,240,0.0,0.0
4114,69.0,240,0,0.0,0.0
4115,48.0,0,225,0.0,0.0
4116,72.0,0,225,0.0,0.0
4117,77.0,0,210,0.0,0.0
4118,53.0,0,210,0.0,0.0
4119,81.0,120,195,0.0,0.0
4120,35.0,120,120,0.0,0.0
4121,47.0,0,120,0.0,0.0
4122,36.0,0,120,0.0,0.0
4123,48.0,80,120,0.0,0.0
4124,39.0,80,80,0.0,0.0
4125,51.0,0,80,0.0,0.0
4126,37.0,0,80,0.0,0.0
4127,49.0,80,80,0.0,0.0
4128,36.0,240,0,0.0,0.0
4129,48.0,0,0,0.0,0.0
4130,46.0,240,120,0.0,0.0
4131,58.0,0,120,0.0,0.0
4132,45.0,360,120,0.0,0.0
4133,57.0,0,120,0.0,0.0
4134,53.0,0,240,0.0,0.0
4135,41.0,120,240,0.0,0.0
4136,35.0,0,120,0.0,0.0
4137,47.0,120,120,0.0,0.0
4138,48.0,0,120,0.0,0.0
4139,36.0,80,120,0.0,0.0
4140,51.0,0,80,0.0,0.0
4141,39.0,80,80,0.0,0.0
4142,49.0,80,80,0.0,0.0
4143,37.0,0,80,0.0,0.0
4144,36.0,0,80,0.0,0.0
4145,36.0,0,240,0.0,0.0
4146,48.0,240,0,0.0,0.0
4147,58.0,0,120,0.0,0.0
4148,46.0,240,120,0.0,0.0
4149,45.0,0,120,0.0,0.0
4150,57.0,360,120,0.0,0.0
4151,53.0,0,240,0.0,0.0
4152,41.0,1560,240,0.0,0.0
4153,35.0,120,120,0.0,0.0
4154,47.0,0,120,0.0,0.0
4155,36.0,80,120,0.0,0.0
4156,48.0,0,120,0.0,0.0
4157,39.0,0,80,0.0,0.0
4158,51.0,80,80,0.0,0.0
4159,49.0,0,80,0.0,0.0
4160,37.0,80,80,0.0,0.0
4161,36.0,0,80,0.0,0.0
4162,48.0,120,80,0.0,0.0
4163,36.0,0,120,0.0,0.0
4164,48.0,240,120,0.0,0.0
4165,46.0,0,120,0.0,0.0
4166,58.0,240,120,0.0,0.0
4167,45.0,360,120,0.0,0.0
4168,57.0,0,120,0.0,0.0
4169,53.0,960,240,0.0,0.0
4170,41.0,0,240,0.0,0.0
4171,34.0,240,240,0.0,0.0
4172,46.0,0,240,0.0,0.0
4173,33.0,720,240,0.0,0.0
4174,45.0,0,240,0.0,0.0
4175,41.0,1280,720,0.0,0.0
4176,29.0,0,720,0.0,0.0
4177,57.0,80,80,0.0,0.0
4178,45.0,0,80,0.0,0.0
4179,46.0,0,80,0.0,0.0
4180,58.0,80,80,0.0,0.0
4181,61.0,0,80,0.0,0.0
4182,49.0,120,80,0.0,0.0
4183,65.0,440,120,0.0,0.0
4184,53.0,0,120,0.0,0.0
4185,57.0,80,80,0.0,0.0
4186,45.0,0,80,0.0,0.0
4187,46.0,80,80,0.0,0.0
4188,58.0,0,80,0.0,0.0
4189,61.0,1440,80,0.0,0.0
4190,49.0,0,80,0.0,0.0
4191,65.0,120,1440,0.0,0.0
4192,53.0,0,1440,0.0,0.0
4193,46.0,0,120,0.0,0.0
4194,34.0,0,120,0.0,0.0
4195,58.0,2040,120,0.0,0.0
4196,90.0,0,1440,0.0,0.0
4197,82.0,0,1440,0.0,0.0
4198,66.0,0,1440,0.0,0.0
4199,94.0,0,1440,0.0,0.0
4200,75.0,0,360,0.0,0.0
4201,87.0,0,360,0.0,0.0
4202,58.0,0,0,0.0,0.0
4203,63.0,0,0,0.0,0.0
4204,60.0,0,0,0.0,0.0
4205,70.0,360,0,0.0,0.0
4206,66.0,0,360,0.0,0.0
4207,77.0,0,120,0.0,0.0
4208,58.0,0,120,0.0,0.0
4209,60.0,120,0,0.0,0.0
4210,63.0,0,120,0.0,0.0
4211,84.0,0,0,0.0,0.0
4212,70.0,0,120,0.0,0.0
4213,89.0,0,120,0.0,0.0
4214,78.0,0,240,0.0,0.0
4215,90.0,240,240,0.0,0.0
4216,84.0,0,240,0.0,0.0
4217,66.0,240,0,0.0,0.0
4218,58.0,0,240,0.0,0.0
4219,63.0,0,240,0.0,0.0
4220,60.0,0,240,0.0,0.0
4221,61.0,320,240,0.0,0.0
4222,58.0,0,240,0.0,0.0
4223,65.0,0,240,0.0,0.0
4224,70.0,0,0,0.0,0.0
4225,77.0,0,240,0.0,0.0
4226,89.0,0,240,0.0,0.0
4227,85.0,0,240,0.0,0.0
4228,45.0,80,80,0.0,0.0
4229,57.0,0,80,0.0,0.0
4230,58.0,80,80,0.0,0.0
4231,46.0,0,80,0.0,0.0
4232,49.0,0,80,0.0,0.0
4233,61.0,120,80,0.0,0.0
4234,53.0,0,120,0.0,0.0
4235,65.0,440,120,0.0,0.0
4236,45.0,80,80,0.0,0.0
4237,57.0,0,80,0.0,0.0
4238,46.0,0,80,0.0,0.0
4239,58.0,80,80,0.0,0.0
4240,49.0,0,80,0.0,0.0
4241,61.0,1440,80,0.0,0.0
4242,53.0,0,1440,0.0,0.0
4243,65.0,120,1440,0.0,0.0
4244,44.0,0,120,0.0,0.0
4245,32.0,0,120,0.0,0.0
4246,56.0,2040,120,0.0,0.0
4247,80.0,0,1440,0.0,0.0
4248,56.0,0,1440,0.0,0.0
4249,65.0,0,1440,0.0,0.0
4250,73.0,0,1440,0.0,0.0
4251,92.0,0,1440,0.0,0.0
4252,89.0,360,1440,0.0,0.0
4253,66.0,0,360,0.0,0.0
4254,68.0,0,360,0.0,0.0
4255,75.0,120,360,0.0,0.0
4256,84.0,0,360,0.0,0.0
4257,87.0,0,360,0.0,0.0
4258,89.0,0,120,0.0,0.0
4259,63.0,0,0,0.0,0.0
4260,56.0,0,0,0.0,0.0
4261,68.0,0,120,0.0,0.0
4262,66.0,0,120,0.0,0.0
4263,77.0,240,120,0.0,0.0
4264,63.0,0,240,0.0,0.0
4265,56.0,0,240,0.0,0.0
4266,84.0,0,0,0.0,0.0
4267,66.0,0,240,0.0,0.0
4268,90.0,0,240,0.0,0.0
4269,78.0,0,240,0.0,0.0
4270,68.0,240,0,0.0,0.0
4271,77.0,960,240,0.0,0.0
4272,85.0,0,240,0.0,0.0
4273,89.0,0,240,0.0,0.0
4274,61.0,0,240,0.0,0.0
4275,65.0,0,240,0.0,0.0
4276,53.0,720,480,0.0,0.0
4277,65.0,0,480,0.0,0.0
4278,77.0,0,480,0.0,0.0
4279,60.0,0,480,0.0,0.0
4280,69.0,0,480,0.0,0.0
4281,41.0,0,480,0.0,0.0
4282,65.0,1920,480,0.0,0.0
4283,57.0,0,480,0.0,0.0
4284,48.0,0,480,0.0,0.0
4285,53.0,0,480,0.0,0.0
4286,41.0,0,1680,0.0,0.0
4287,29.0,180,1680,0.0,0.0
4288,42.0,2300,180,0.0,0.0
4289,30.0,0,180,0.0,0.0
4290,57.0,80,80,0.0,0.0
4291,45.0,0,80,0.0,0.0
4292,58.0,80,80,0.0,0.0
4293,46.0,0,80,0.0,0.0
4294,49.0,0,80,0.0,0.0
4295,61.0,120,80,0.0,0.0
4296,53.0,0,120,0.0,0.0
4297,65.0,440,120,0.0,0.0
4298,57.0,80,80,0.0,0.0
4299,45.0,0,80,0.0,0.0
4300,58.0,0,80,0.0,0.0
4301,46.0,80,80,0.0,0.0
4302,61.0,0,80,0.0,0.0
4303,49.0,1440,80,0.0,0.0
4304,65.0,120,1440,0.0,0.0
4305,53.0,0,1440,0.0,0.0
4306,46.0,0,120,0.0,0.0
4307,34.0,0,120,0.0,0.0
4308,58.0,1680,120,0.0,0.0
4309,90.0,0,1080,0.0,0.0
4310,94.0,120,1080,0.0,0.0
4311,70.0,0,1080,0.0,0.0
4312,66.0,0,1080,0.0,0.0
4313,82.0,0,1080,0.0,0.0
4314,58.0,0,1080,0.0,0.0
4315,66.0,0,120,0.0,0.0
4316,63.0,0,0,0.0,0.0
4317,60.0,0,0,0.0,0.0
4318,58.0,0,120,0.0,0.0
4319,70.0,0,120,0.0,0.0
4320,75.0,0,120,0.0,0.0
4321,84.0,0,0,0.0,0.0
4322,87.0,0,0,0.0,0.0
4323,58.0,0,240,0.0,0.0
4324,63.0,240,0,0.0,0.0
4325,70.0,0,240,0.0,0.0
4326,75.0,0,0,0.0,0.0
4327,84.0,0,0,0.0,0.0
4328,87.0,0,360,0.0,0.0
4329,66.0,0,0,0.0,0.0
4330,60.0,360,0,0.0,0.0
4331,84.0,0,0,0.0,0.0
4332,66.0,0,0,0.0,0.0
4333,70.0,120,0,0.0,0.0
4334,89.0,0,120,0.0,0.0
4335,58.0,0,0,0.0,0.0
4336,63.0,0,0,0.0,0.0
4337,60.0,0,0,0.0,0.0
4338,77.0,0,120,0.0,0.0
4339,90.0,0,240,0.0,0.0
4340,70.0,0,0,0.0,0.0
4341,63.0,240,0,0.0,0.0
4342,66.0,0,0,0.0,0.0
4343,60.0,240,240,0.0,0.0
4344,78.0,0,240,0.0,0.0
4345,84.0,0,0,0.0,0.0
4346,85.0,320,240,0.0,0.0
4347,77.0,0,240,0.0,0.0
4348,89.0,0,240,0.0,0.0
4349,70.0,0,240,0.0,0.0
4350,61.0,0,240,0.0,0.0
4351,58.0,0,0,0.0,0.0
4352,65.0,0,240,0.0,0.0
4353,45.0,80,80,0.0,0.0
4354,57.0,0,80,0.0,0.0
4355,58.0,0,80,0.0,0.0
4356,46.0,80,80,0.0,0.0
4357,49.0,120,80,0.0,0.0
4358,61.0,0,80,0.0,0.0
4359,65.0,0,120,0.0,0.0
4360,53.0,440,120,0.0,0.0
4361,57.0,80,80,0.0,0.0
4362,45.0,0,80,0.0,0.0
4363,58.0,0,80,0.0,0.0
4364,46.0,80,80,0.0,0.0
4365,61.0,1440,80,0.0,0.0
4366,49.0,0,80,0.0,0.0
4367,53.0,120,1440,0.0,0.0
4368,65.0,0,1440,0.0,0.0
4369,48.0,0,120,0.0,0.0
4370,24.0,0,120,0.0,0.0
4371,36.0,2040,120,0.0,0.0
4372,92.0,0,1440,0.0,0.0
4373,84.0,360,1440,0.0,0.0
4374,96.0,0,1440,0.0,0.0
4375,68.0,0,1440,0.0,0.0
4376,65.0,0,1440,0.0,0.0
4377,72.0,0,1440,0.0,0.0
4378,60.0,0,0,0.0,0.0
4379,70.0,0,360,0.0,0.0
4380,79.0,0,360,0.0,0.0
4381,91.0,0,360,0.0,0.0
4382,72.0,0,0,0.0,0.0
4383,60.0,0,0,0.0,0.0
4384,88.0,120,0,0.0,0.0
4385,92.0,0,120,0.0,0.0
4386,64.0,0,0,0.0,0.0
4387,80.0,0,120,0.0,0.0
4388,70.0,240,0,0.0,0.0
4389,60.0,0,240,0.0,0.0
4390,64.0,0,240,0.0,0.0
4391,82.0,0,240,0.0,0.0
4392,88.0,0,240,0.0,0.0
4393,94.0,240,240,0.0,0.0
4394,68.0,0,240,0.0,0.0
4395,65.0,0,240,0.0,0.0
4396,72.0,0,0,0.0,0.0
4397,80.0,0,240,0.0,0.0
4398,89.0,0,240,0.0,0.0
4399,92.0,960,240,0.0,0.0
4400,68.0,0,480,0.0,0.0
4401,77.0,720,480,0.0,0.0
4402,72.0,0,480,0.0,0.0
4403,53.0,0,480,0.0,0.0
4404,65.0,0,480,0.0,0.0
4405,60.0,0,480,0.0,0.0
4406,80.0,0,480,0.0,0.0
4407,48.0,0,480,0.0,0.0
4408,65.0,0,480,0.0,0.0
4409,56.0,1680,480,0.0,0.0
4410,68.0,0,480,0.0,0.0
4411,60.0,0,480,0.0,0.0
4412,53.0,0,480,0.0,0.0
4413,41.0,0,480,0.0,0.0
4414,40.0,0,1440,0.0,0.0
4415,28.0,720,1440,0.0,0.0
4416,29.0,0,720,0.0,0.0
4417,41.0,80,720,0.0,0.0
4418,38.0,0,80,0.0,0.0
4419,26.0,80,80,0.0,0.0
4420,27.0,80,80,0.0,0.0
4421,39.0,0,80,0.0,0.0
4422,41.0,80,80,0.0,0.0
4423,29.0,0,0,0.0,0.0
4424,41.0,0,80,0.0,0.0
4425,39.0,80,80,0.0,0.0
4426,27.0,0,80,0.0,0.0
4427,41.0,75,80,0.0,0.0
4428,29.0,0,80,0.0,0.0
4429,27.0,0,75,0.0,0.0
4430,39.0,75,75,0.0,0.0
4431,29.0,0,75,0.0,0.0
4432,41.0,70,75,0.0,0.0
4433,39.0,0,70,0.0,0.0
4434,27.0,70,70,0.0,0.0
4435,41.0,70,70,0.0,0.0
4436,29.0,0,70,0.0,0.0
4437,27.0,70,70,0.0,0.0
4438,39.0,0,70,0.0,0.0
4439,29.0,60,70,0.0,0.0
4440,41.0,0,70,0.0,0.0
4441,27.0,60,60,0.0,0.0
4442,39.0,0,60,0.0,0.0
4443,29.0,0,60,0.0,0.0
4444,41.0,60,60,0.0,0.0
4445,39.0,60,60,0.0,0.0
4446,27.0,0,60,0.0,0.0
4447,29.0,60,60,0.0,0.0
4448,41.0,0,60,0.0,0.0
4449,39.0,60,60,0.0,0.0
4450,27.0,0,60,0.0,0.0
4451,41.0,0,60,0.0,0.0
4452,29.0,85,60,0.0,0.0
4453,26.0,0,85,0.0,0.0
4454,38.0,85,85,0.0,0.0
4455,39.0,120,85,0.0,0.0
4456,27.0,0,85,0.0,0.0
4457,37.0,0,120,0.0,0.0
4458,25.0,600,120,0.0,0.0
4459,101.0,0,960,0.0,0.0
4460,44.0,240,240,0.0,0.0
4461,56.0,0,240,0.0,0.0
4462,53.0,0,240,0.0,0.0
4463,61.0,120,240,0.0,0.0
4464,99.0,120,120,0.0,0.0
4465,97.0,120,120,0.0,0.0
4466,92.0,120,120,0.0,0.0
4467,56.0,0,240,0.0,0.0
4468,44.0,120,240,0.0,0.0
4469,89.0,0,120,0.0,0.0
4470,87.0,120,120,0.0,0.0
4471,53.0,0,240,0.0,0.0
4472,61.0,0,240,0.0,0.0
4473,85.0,120,120,0.0,0.0
4474,80.0,120,120,0.0,0.0
4475,77.0,120,120,0.0,0.0
4476,75.0,120,120,0.0,0.0
4477,73.0,240,120,0.0,0.0
4478,68.0,600,240,0.0,0.0
4479,44.0,0,120,0.0,0.0
4480,32.0,0,120,0.0,0.0
4481,72.0,120,120,0.0,0.0
4482,73.0,120,120,0.0,0.0
4483,75.0,120,120,0.0,0.0
4484,77.0,120,120,0.0,0.0
4485,78.0,113,120,0.0,0.0
4486,80.0,127,120,0.0,0.0
4487,81.0,120,120,0.0,0.0
4488,66.0,240,240,0.0,0.0
4489,55.0,0,240,0.0,0.0
4490,60.0,0,240,0.0,0.0
4491,60.0,0,0,0.0,0.0
4492,66.0,0,0,0.0,0.0
4493,56.0,120,0,0.0,0.0
4494,81.0,120,120,0.0,0.0
4495,80.0,120,120,0.0,0.0
4496,79.0,120,120,0.0,0.0
4497,78.0,120,120,0.0,0.0
4498,77.0,120,120,0.0,0.0
4499,76.0,120,120,0.0,0.0
4500,75.0,120,120,0.0,0.0
4501,57.0,240,240,0.0,0.0
4502,66.0,0,240,0.0,0.0
4503,60.0,0,0,0.0,0.0
4504,56.0,120,240,0.0,0.0
4505,66.0,0,240,0.0,0.0
4506,66.0,240,120,0.0,0.0
4507,60.0,0,120,0.0,0.0
4508,56.0,0,120,0.0,0.0
4509,25.0,600,120,0.0,0.0
4510,37.0,0,120,0.0,0.0
4511,101.0,120,960,0.0,0.0
4512,56.0,240,240,0.0,0.0
4513,44.0,0,240,0.0,0.0
4514,53.0,0,240,0.0,0.0
4515,61.0,0,240,0.0,0.0
4516,99.0,120,120,0.0,0.0
4517,97.0,120,120,0.0,0.0
4518,92.0,120,120,0.0,0.0
4519,56.0,0,240,0.0,0.0
4520,44.0,0,240,0.0,0.0
4521,89.0,120,120,0.0,0.0
4522,61.0,0,240,0.0,0.0
4523,53.0,120,240,0.0,0.0
4524,87.0,120,120,0.0,0.0
4525,85.0,0,120,0.0,0.0
4526,80.0,120,120,0.0,0.0
4527,77.0,120,120,0.0,0.0
4528,75.0,120,120,0.0,0.0
4529,73.0,240,120,0.0,0.0
4530,68.0,600,240,0.0,0.0
4531,72.0,120,120,0.0,0.0
4532,65.0,120,720,0.0,0.0
4533,73.0,120,120,0.0,0.0
4534,75.0,120,120,0.0,0.0
4535,77.0,120,120,0.0,0.0
4536,78.0,113,120,0.0,0.0
4537,80.0,7,120,0.0,0.0
4538,81.0,0,120,0.0,0.0
4539,60.0,120,120,0.0,0.0
4540,61.0,120,120,0.0,0.0
4541,63.0,120,120,0.0,0.0
4542,65.0,120,120,0.0,0.0
4543,66.0,120,120,0.0,0.0
4544,68.0,120,120,0.0,0.0
4545,81.0,0,120,0.0,0.0
4546,69.0,120,120,0.0,0.0
4547,80.0,120,120,0.0,0.0
4548,79.0,120,120,0.0,0.0
4549,78.0,120,120,0.0,0.0
4550,77.0,120,120,0.0,0.0
4551,76.0,120,120,0.0,0.0
4552,75.0,120,240,0.0,0.0
4553,57.0,120,120,0.0,0.0
4554,56.0,0,120,0.0,0.0
4555,55.0,120,120,0.0,0.0
4556,54.0,120,120,0.0,0.0
4557,53.0,120,120,0.0,0.0
4558,51.0,120,120,0.0,0.0
4559,49.0,120,120,0.0,0.0
4560,77.0,0,960,0.0,0.0
4561,56.0,120,120,0.0,0.0
4562,61.0,120,120,0.0,0.0
4563,65.0,120,120,0.0,0.0
4564,61.0,120,120,0.0,0.0
4565,56.0,120,120,0.0,0.0
4566,49.0,120,120,0.0,0.0
4567,59.0,120,120,0.0,0.0
4568,61.0,120,120,0.0,0.0
4569,75.0,120,360,0.0,0.0
4570,65.0,120,120,0.0,0.0
4571,61.0,0,120,0.0,0.0
4572,59.0,120,120,0.0,0.0
4573,73.0,0,0,0.0,0.0
4574,71.0,0,0,0.0,0.0
4575,54.0,120,120,0.0,0.0
4576,59.0,120,120,0.0,0.0
4577,61.0,120,120,0.0,0.0
4578,66.0,120,120,0.0,0.0
4579,61.0,120,120,0.0,0.0
4580,59.0,120,120,0.0,0.0
4581,78.0,120,1200,0.0,0.0
4582,70.0,0,720,0.0,0.0
4583,49.0,120,120,0.0,0.0
4584,58.0,120,120,0.0,0.0
4585,61.0,120,120,0.0,0.0
4586,66.0,120,120,0.0,0.0
4587,61.0,120,120,0.0,0.0
4588,58.0,120,120,0.0,0.0
4589,71.0,120,1440,0.0,0.0
4590,56.0,120,120,0.0,0.0
4591,59.0,120,120,0.0,0.0
4592,61.0,120,120,0.0,0.0
4593,68.0,0,120,0.0,0.0
4594,61.0,120,120,0.0,0.0
4595,77.0,0,240,0.0,0.0
4596,59.0,120,120,0.0,0.0
4597,49.0,120,120,0.0,0.0
4598,77.0,120,240,0.0,0.0
4599,59.0,0,120,0.0,0.0
4600,75.0,120,240,0.0,0.0
4601,61.0,120,120,0.0,0.0
4602,65.0,0,120,0.0,0.0
4603,61.0,120,120,0.0,0.0
4604,73.0,0,240,0.0,0.0
4605,59.0,0,120,0.0,0.0
4606,70.0,0,720,0.0,0.0
4607,73.0,0,720,0.0,0.0
4608,82.0,0,720,0.0,0.0
4609,54.0,120,120,0.0,0.0
4610,58.0,120,120,0.0,0.0
4611,61.0,120,120,0.0,0.0
4612,66.0,120,120,0.0,0.0
4613,61.0,120,120,0.0,0.0
4614,58.0,120,120,0.0,0.0
4615,82.0,0,480,0.0,0.0
4616,52.0,120,120,0.0,0.0
4617,58.0,120,120,0.0,0.0
4618,61.0,120,120,0.0,0.0
4619,68.0,120,120,0.0,0.0
4620,61.0,120,120,0.0,0.0
4621,58.0,0,120,0.0,0.0
4622,67.0,0,60,0.0,0.0
4623,51.0,120,120,0.0,0.0
4624,82.0,0,0,0.0,0.0
4625,73.0,120,0,0.0,0.0
4626,58.0,120,120,0.0,0.0
4627,61.0,120,120,0.0,0.0
4628,67.0,0,120,0.0,0.0
4629,75.0,0,240,0.0,0.0
4630,61.0,120,120,0.0,0.0
4631,58.0,120,120,0.0,0.0
4632,75.0,60,240,0.0,0.0
4633,55.0,120,120,0.0,0.0
4634,61.0,0,120,0.0,0.0
4635,77.0,60,60,0.0,0.0
4636,63.0,0,120,0.0,0.0
4637,79.0,120,60,0.0,0.0
4638,77.0,0,240,0.0,0.0
4639,70.0,120,120,0.0,0.0
4640,63.0,120,120,0.0,0.0
4641,75.0,0,120,0.0,0.0
4642,61.0,120,120,0.0,0.0
4643,56.0,120,120,0.0,0.0
4644,75.0,0,720,0.0,0.0
4645,73.0,0,720,0.0,0.0
4646,61.0,120,120,0.0,0.0
4647,63.0,120,120,0.0,0.0
4648,68.0,120,120,0.0,0.0
4649,63.0,120,120,0.0,0.0
4650,61.0,120,120,0.0,0.0
4651,80.0,0,960,0.0,0.0
4652,72.0,120,720,0.0,0.0
4653,51.0,120,120,0.0,0.0
4654,60.0,120,120,0.0,0.0
4655,63.0,120,120,0.0,0.0
4656,68.0,120,120,0.0,0.0
4657,63.0,120,120,0.0,0.0
4658,60.0,0,120,0.0,0.0
4659,58.0,120,120,0.0,0.0
4660,73.0,120,1440,0.0,0.0
4661,61.0,120,120,0.0,0.0
4662,79.0,120,240,0.0,0.0
4663,63.0,120,120,0.0,0.0
4664,70.0,0,120,0.0,0.0
4665,63.0,120,120,0.0,0.0
4666,77.0,120,240,0.0,0.0
4667,61.0,0,120,0.0,0.0
4668,79.0,120,240,0.0,0.0
4669,51.0,120,120,0.0,0.0
4670,61.0,0,120,0.0,0.0
4671,77.0,0,360,0.0,0.0
4672,63.0,120,120,0.0,0.0
4673,67.0,120,120,0.0,0.0
4674,63.0,120,120,0.0,0.0
4675,75.0,0,120,0.0,0.0
4676,61.0,0,120,0.0,0.0
4677,72.0,0,1440,0.0,0.0
4678,84.0,0,720,0.0,0.0
4679,56.0,120,120,0.0,0.0
4680,60.0,120,120,0.0,0.0
4681,63.0,120,120,0.0,0.0
4682,68.0,120,120,0.0,0.0
4683,63.0,120,120,0.0,0.0
4684,60.0,240,120,0.0,0.0
4685,55.0,0,720,0.0,0.0
4686,84.0,0,480,0.0,0.0
4687,56.0,120,120,0.0,0.0
4688,60.0,120,120,0.0,0.0
4689,63.0,120,120,0.0,0.0
4690,84.0,0,240,0.0,0.0
4691,60.0,120,120,0.0,0.0
4692,56.0,240,120,0.0,0.0
4693,84.0,120,960,0.0,0.0
4694,54.0,0,720,0.0,0.0
4695,56.0,120,120,0.0,0.0
4696,60.0,120,120,0.0,0.0
4697,63.0,120,120,0.0,0.0
4698,60.0,120,120,0.0,0.0
4699,56.0,240,120,0.0,0.0
4700,54.0,240,720,0.0,0.0
4701,56.0,0,120,0.0,0.0
4702,82.0,120,360,0.0,0.0
4703,60.0,120,120,0.0,0.0
4704,63.0,120,120,0.0,0.0
4705,60.0,0,120,0.0,0.0
4706,56.0,0,120,0.0,0.0
4707,80.0,0,120,0.0,0.0
4708,80.0,0,720,0.0,0.0
4709,56.0,120,120,0.0,0.0
4710,61.0,120,120,0.0,0.0
4711,65.0,120,120,0.0,0.0
4712,61.0,120,120,0.0,0.0
4713,56.0,120,120,0.0,0.0
4714,53.0,0,0,0.0,0.0
4715,85.0,0,720,0.0,0.0
4716,56.0,120,120,0.0,0.0
4717,61.0,120,120,0.0,0.0
4718,68.0,120,120,0.0,0.0
4719,61.0,120,120,0.0,0.0
4720,56.0,120,120,0.0,0.0
4721,51.0,120,120,0.0,0.0
4722,85.0,0,480,0.0,0.0
4723,56.0,120,120,0.0,0.0
4724,60.0,120,120,0.0,0.0
4725,66.0,120,120,0.0,0.0
4726,84.0,120,240,0.0,0.0
4727,60.0,120,120,0.0,0.0
4728,56.0,0,120,0.0,0.0
4729,51.0,120,120,0.0,0.0
4730,84.0,120,240,0.0,0.0
4731,56.0,0,120,0.0,0.0
4732,60.0,120,120,0.0,0.0
4733,82.0,120,360,0.0,0.0
4734,66.0,120,120,0.0,0.0
4735,60.0,0,120,0.0,0.0
4736,80.0,120,120,0.0,0.0
4737,56.0,0,120,0.0,0.0
4738,50.0,120,120,0.0,0.0
4739,56.0,120,120,0.0,0.0
4740,59.0,120,120,0.0,0.0
4741,65.0,120,120,0.0,0.0
4742,59.0,120,120,0.0,0.0
4743,56.0,120,120,0.0,0.0
4744,89.0,0,0,0.0,0.0
4745,50.0,120,120,0.0,0.0
4746,56.0,120,120,0.0,0.0
4747,58.0,120,120,0.0,0.0
4748,65.0,120,120,0.0,0.0
4749,89.0,0,0,0.0,0.0
4750,58.0,120,120,0.0,0.0
4751,56.0,0,120,0.0,0.0
4752,89.0,120,0,0.0,0.0
4753,51.0,120,120,0.0,0.0
4754,54.0,120,120,0.0,0.0
4755,58.0,120,120,0.0,0.0
4756,63.0,120,120,0.0,0.0
4757,58.0,120,120,0.0,0.0
4758,54.0,120,120,0.0,0.0
4759,87.0,0,240,0.0,0.0
4760,42.0,120,120,0.0,0.0
4761,54.0,120,120,0.0,0.0
4762,85.0,0,240,0.0,0.0
4763,58.0,120,120,0.0,0.0
4764,63.0,120,120,0.0,0.0
4765,82.0,0,240,0.0,0.0
4766,58.0,120,120,0.0,0.0
4767,54.0,120,120,0.0,0.0
4768,84.0,0,720,0.0,0.0
4769,44.0,120,120,0.0,0.0
4770,53.0,120,120,0.0,0.0
4771,56.0,120,120,0.0,0.0
4772,61.0,120,120,0.0,0.0
4773,56.0,120,120,0.0,0.0
4774,53.0,120,120,0.0,0.0
4775,82.0,0,240,0.0,0.0
4776,44.0,120,120,0.0,0.0
4777,53.0,120,120,0.0,0.0
4778,80.0,0,240,0.0,0.0
4779,56.0,120,120,0.0,0.0
4780,61.0,120,120,0.0,0.0
4781,77.0,120,240,0.0,0.0
4782,56.0,120,120,0.0,0.0
4783,53.0,0,120,0.0,0.0
4784,44.0,120,120,0.0,0.0
4785,82.0,0,240,0.0,0.0
4786,54.0,120,120,0.0,0.0
4787,56.0,120,120,0.0,0.0
4788,80.0,120,240,0.0,0.0
4789,60.0,0,120,0.0,0.0
4790,56.0,120,120,0.0,0.0
4791,54.0,0,120,0.0,0.0
4792,78.0,60,0,0.0,0.0
4793,44.0,0,120,0.0,0.0
4794,80.0,120,60,0.0,0.0
4795,78.0,0,120,0.0,0.0
4796,54.0,120,120,0.0,0.0
4797,77.0,120,360,0.0,0.0
4798,56.0,120,120,0.0,0.0
4799,60.0,120,120,0.0,0.0
4800,56.0,0,120,0.0,0.0
4801,54.0,120,120,0.0,0.0
4802,76.0,0,0,0.0,0.0
4803,49.0,120,120,0.0,0.0
4804,56.0,120,120,0.0,0.0
4805,61.0,120,120,0.0,0.0
4806,65.0,120,120,0.0,0.0
4807,61.0,120,120,0.0,0.0
4808,58.0,0,120,0.0,0.0
4809,77.0,120,480,0.0,0.0
4810,56.0,120,240,0.0,0.0
4811,61.0,0,120,0.0,0.0
4812,65.0,120,120,0.0,0.0
4813,68.0,0,120,0.0,0.0
4814,65.0,120,120,0.0,0.0
4815,80.0,0,240,0.0,0.0
4816,61.0,240,120,0.0,0.0
4817,68.0,120,480,0.0,0.0
4818,54.0,0,720,0.0,0.0
4819,80.0,240,660,0.0,0.0
4820,56.0,120,120,0.0,0.0
4821,60.0,120,120,0.0,0.0
4822,63.0,0,120,0.0,0.0
4823,60.0,120,120,0.0,0.0
4824,72.0,120,480,0.0,0.0
4825,56.0,0,120,0.0,0.0
4826,54.0,0,720,0.0,0.0
4827,84.0,0,240,0.0,0.0
4828,56.0,0,120,0.0,0.0
4829,60.0,120,120,0.0,0.0
4830,82.0,120,360,0.0,0.0
4831,70.0,0,360,0.0,0.0
4832,63.0,120,120,0.0,0.0
4833,60.0,0,120,0.0,0.0
4834,80.0,0,120,0.0,0.0
4835,68.0,240,120,0.0,0.0
4836,56.0,0,120,0.0,0.0
4837,68.0,0,720,0.0,0.0
4838,80.0,0,1440,0.0,0.0
4839,56.0,120,120,0.0,0.0
4840,61.0,120,120,0.0,0.0
4841,65.0,120,120,0.0,0.0
4842,61.0,120,120,0.0,0.0
4843,56.0,120,120,0.0,0.0
4844,53.0,0,0,0.0,0.0
4845,56.0,120,120,0.0,0.0
4846,61.0,120,120,0.0,0.0
4847,68.0,120,120,0.0,0.0
4848,61.0,120,120,0.0,0.0
4849,56.0,0,120,0.0,0.0
4850,85.0,0,0,0.0,0.0
4851,51.0,120,120,0.0,0.0
4852,78.0,0,480,0.0,0.0
4853,80.0,0,480,0.0,0.0
4854,73.0,120,0,0.0,0.0
4855,56.0,120,120,0.0,0.0
4856,60.0,0,120,0.0,0.0
4857,66.0,120,120,0.0,0.0
4858,75.0,0,120,0.0,0.0
4859,84.0,0,120,0.0,0.0
4860,80.0,0,240,0.0,0.0
4861,78.0,0,240,0.0,0.0
4862,60.0,120,120,0.0,0.0
4863,56.0,120,120,0.0,0.0
4864,84.0,0,0,0.0,0.0
4865,72.0,0,0,0.0,0.0
4866,80.0,0,360,0.0,0.0
4867,51.0,120,120,0.0,0.0
4868,78.0,120,360,0.0,0.0
4869,56.0,120,120,0.0,0.0
4870,60.0,0,120,0.0,0.0
4871,82.0,0,120,0.0,0.0
4872,70.0,120,120,0.0,0.0
4873,66.0,0,120,0.0,0.0
4874,78.0,0,240,0.0,0.0
4875,68.0,0,240,0.0,0.0
4876,60.0,120,120,0.0,0.0
4877,56.0,0,120,0.0,0.0
4878,50.0,120,120,0.0,0.0
4879,89.0,0,720,0.0,0.0
4880,80.0,120,0,0.0,0.0
4881,56.0,120,120,0.0,0.0
4882,59.0,120,120,0.0,0.0
4883,65.0,120,120,0.0,0.0
4884,59.0,120,120,0.0,0.0
4885,56.0,120,120,0.0,0.0
4886,77.0,0,0,0.0,0.0
4887,50.0,120,120,0.0,0.0
4888,56.0,120,120,0.0,0.0
4889,58.0,120,120,0.0,0.0
4890,65.0,120,120,0.0,0.0
4891,77.0,0,0,0.0,0.0
4892,80.0,0,0,0.0,0.0
4893,89.0,0,0,0.0,0.0
4894,58.0,120,120,0.0,0.0
4895,56.0,120,120,0.0,0.0
4896,77.0,0,720,0.0,0.0
4897,80.0,0,720,0.0,0.0
4898,89.0,120,720,0.0,0.0
4899,51.0,120,120,0.0,0.0
4900,54.0,120,120,0.0,0.0
4901,58.0,120,120,0.0,0.0
4902,63.0,120,120,0.0,0.0
4903,58.0,120,120,0.0,0.0
4904,54.0,0,120,0.0,0.0
4905,42.0,120,120,0.0,0.0
4906,87.0,120,240,0.0,0.0
4907,75.0,0,240,0.0,0.0
4908,78.0,0,240,0.0,0.0
4909,54.0,0,120,0.0,0.0
4910,85.0,0,360,0.0,0.0
4911,78.0,0,360,0.0,0.0
4912,58.0,120,120,0.0,0.0
4913,73.0,120,360,0.0,0.0
4914,63.0,120,120,0.0,0.0
4915,58.0,0,120,0.0,0.0
4916,54.0,120,120,0.0,0.0
4917,70.0,0,120,0.0,0.0
4918,78.0,0,120,0.0,0.0
4919,82.0,0,120,0.0,0.0
4920,72.0,120,720,0.0,0.0
4921,84.0,0,720,0.0,0.0
4922,80.0,0,720,0.0,0.0
4923,44.0,120,120,0.0,0.0
4924,53.0,120,120,0.0,0.0
4925,56.0,120,120,0.0,0.0
4926,61.0,120,120,0.0,0.0
4927,56.0,120,120,0.0,0.0
4928,53.0,0,120,0.0,0.0
4929,44.0,120,120,0.0,0.0
4930,78.0,0,240,0.0,0.0
4931,82.0,120,240,0.0,0.0
4932,70.0,0,240,0.0,0.0
4933,53.0,0,120,0.0,0.0
4934,68.0,0,240,0.0,0.0
4935,56.0,120,120,0.0,0.0
4936,80.0,120,240,0.0,0.0
4937,61.0,0,120,0.0,0.0
4938,82.0,0,240,0.0,0.0
4939,77.0,0,0,0.0,0.0
4940,70.0,0,240,0.0,0.0
4941,56.0,120,120,0.0,0.0
4942,53.0,120,120,0.0,0.0
4943,77.0,120,480,0.0,0.0
4944,83.0,0,480,0.0,0.0
4945,44.0,120,120,0.0,0.0
4946,71.0,0,480,0.0,0.0
4947,53.0,120,120,0.0,0.0
4948,56.0,120,120,0.0,0.0
4949,62.0,0,120,0.0,0.0
4950,70.0,120,240,0.0,0.0
4951,82.0,0,240,0.0,0.0
4952,56.0,120,120,0.0,0.0
4953,53.0,0,120,0.0,0.0
4954,83.0,120,1200,0.0,0.0
4955,77.0,0,0,0.0,0.0
4956,71.0,0,1200,0.0,0.0
4957,44.0,120,120,0.0,0.0
4958,53.0,120,120,0.0,0.0
4959,56.0,120,120,0.0,0.0
4960,62.0,120,120,0.0,0.0
4961,56.0,120,120,0.0,0.0
4962,53.0,120,120,0.0,0.0
4963,44.0,120,120,0.0,0.0
4964,53.0,120,120,0.0,0.0
4965,56.0,120,120,0.0,0.0
4966,62.0,0,120,0.0,0.0
4967,70.0,0,240,0.0,0.0
4968,56.0,120,120,0.0,0.0
4969,82.0,0,240,0.0,0.0
4970,77.0,0,0,0.0,0.0
4971,53.0,120,120,0.0,0.0
4972,77.0,0,240,0.0,0.0
4973,71.0,0,240,0.0,0.0
4974,83.0,120,240,0.0,0.0
4975,44.0,120,120,0.0,0.0
4976,53.0,0,120,0.0,0.0
4977,77.0,0,240,0.0,0.0
4978,82.0,120,240,0.0,0.0
4979,56.0,120,120,0.0,0.0
4980,70.0,0,240,0.0,0.0
4981,62.0,0,120,0.0,0.0
4982,83.0,120,240,0.0,0.0
4983,56.0,120,120,0.0,0.0
4984,77.0,0,240,0.0,0.0
4985,53.0,0,120,0.0,0.0
4986,44.0,120,120,0.0,0.0
4987,78.0,0,480,0.0,0.0
4988,71.0,0,0,0.0,0.0
4989,83.0,0,480,0.0,0.0
4990,51.0,120,120,0.0,0.0
4991,54.0,120,120,0.0,0.0
4992,63.0,0,120,0.0,0.0
4993,54.0,120,120,0.0,0.0
4994,70.0,0,240,0.0,0.0
4995,78.0,0,240,0.0,0.0
4996,82.0,0,240,0.0,0.0
4997,51.0,120,120,0.0,0.0
4998,73.0,120,1200,0.0,0.0
4999,79.0,0,1200,0.0,0.0
5000,85.0,0,1200,0.0,0.0
5001,44.0,120,120,0.0,0.0
5002,52.0,120,120,0.0,0.0
5003,55.0,120,120,0.0,0.0
5004,64.0,120,120,0.0,0.0
5005,55.0,120,120,0.0,0.0
5006,52.0,120,120,0.0,0.0
5007,44.0,120,120,0.0,0.0
5008,52.0,120,120,0.0,0.0
5009,55.0,120,120,0.0,0.0
5010,64.0,0,120,0.0,0.0
5011,55.0,120,120,0.0,0.0
5012,72.0,0,240,0.0,0.0
5013,79.0,0,240,0.0,0.0
5014,84.0,120,240,0.0,0.0
5015,52.0,0,120,0.0,0.0
5016,44.0,120,120,0.0,0.0
5017,85.0,0,240,0.0,0.0
5018,73.0,0,240,0.0,0.0
5019,52.0,0,120,0.0,0.0
5020,55.0,120,120,0.0,0.0
5021,72.0,0,240,0.0,0.0
5022,79.0,120,0,0.0,0.0
5023,84.0,0,240,0.0,0.0
5024,64.0,0,120,0.0,0.0
5025,55.0,120,120,0.0,0.0
5026,79.0,120,0,0.0,0.0
5027,52.0,0,120,0.0,0.0
5028,44.0,120,120,0.0,0.0
5029,85.0,120,0,0.0,0.0
5030,80.0,0,480,0.0,0.0
5031,73.0,0,0,0.0,0.0
5032,53.0,120,120,0.0,0.0
5033,56.0,120,120,0.0,0.0
5034,65.0,0,120,0.0,0.0
5035,56.0,120,120,0.0,0.0
5036,84.0,0,240,0.0,0.0
5037,72.0,0,240,0.0,0.0
5038,80.0,120,240,0.0,0.0
5039,53.0,0,120,0.0,0.0
5040,44.0,120,120,0.0,0.0
5041,75.0,0,480,0.0,0.0
5042,81.0,120,480,0.0,0.0
5043,87.0,0,480,0.0,0.0
5044,51.0,120,120,0.0,0.0
5045,54.0,120,120,0.0,0.0
5046,60.0,0,120,0.0,0.0
5047,75.0,0,240,0.0,0.0
5048,54.0,120,120,0.0,0.0
5049,81.0,0,240,0.0,0.0
5050,51.0,0,120,0.0,0.0
5051,87.0,120,0,0.0,0.0
5052,44.0,120,120,0.0,0.0
5053,75.0,120,480,0.0,0.0
5054,47.0,120,120,0.0,0.0
5055,53.0,120,120,0.0,0.0
5056,59.0,0,120,0.0,0.0
5057,53.0,120,120,0.0,0.0
5058,74.0,120,240,0.0,0.0
5059,86.0,0,240,0.0,0.0
5060,80.0,0,0,0.0,0.0
5061,47.0,0,120,0.0,0.0
5062,44.0,120,120,0.0,0.0
5063,83.0,0,480,0.0,0.0
5064,89.0,0,480,0.0,0.0
5065,53.0,120,120,0.0,0.0
5066,56.0,120,120,0.0,0.0
5067,62.0,120,120,0.0,0.0
5068,89.0,0,240,0.0,0.0
5069,83.0,0,240,0.0,0.0
5070,77.0,0,0,0.0,0.0
5071,56.0,120,120,0.0,0.0
5072,53.0,0,120,0.0,0.0
5073,77.0,120,480,0.0,0.0
5074,44.0,120,120,0.0,0.0
5075,89.0,0,480,0.0,0.0
5076,49.0,120,120,0.0,0.0
5077,55.0,120,120,0.0,0.0
5078,61.0,0,120,0.0,0.0
5079,88.0,0,240,0.0,0.0
5080,82.0,0,0,0.0,0.0
5081,76.0,120,240,0.0,0.0
5082,55.0,120,120,0.0,0.0
5083,49.0,0,120,0.0,0.0
5084,91.0,0,480,0.0,0.0
5085,85.0,0,480,0.0,0.0
5086,79.0,0,480,0.0,0.0
5087,44.0,120,120,0.0,0.0
5088,52.0,120,120,0.0,0.0
5089,58.0,120,120,0.0,0.0
5090,64.0,120,120,0.0,0.0
5091,91.0,0,240,0.0,0.0
5092,58.0,120,120,0.0,0.0
5093,85.0,0,240,0.0,0.0
5094,52.0,0,120,0.0,0.0
5095,91.0,0,480,0.0,0.0
5096,84.0,0,480,0.0,0.0
5097,79.0,120,0,0.0,0.0
5098,44.0,120,120,0.0,0.0
5099,51.0,120,120,0.0,0.0
5100,54.0,120,120,0.0,0.0
5101,63.0,0,120,0.0,0.0
5102,92.0,0,240,0.0,0.0
5103,80.0,120,240,0.0,0.0
5104,54.0,120,120,0.0,0.0
5105,84.0,0,240,0.0,0.0
5106,51.0,0,120,0.0,0.0
5107,93.0,0,480,0.0,0.0
5108,81.0,0,480,0.0,0.0
5109,44.0,120,120,0.0,0.0
5110,51.0,120,120,0.0,0.0
5111,54.0,120,120,0.0,0.0
5112,60.0,120,120,0.0,0.0
5113,84.0,0,0,0.0,0.0
5114,54.0,120,120,0.0,0.0
5115,78.0,0,240,0.0,0.0
5116,72.0,0,240,0.0,0.0
5117,51.0,180,120,0.0,0.0
5118,85.0,0,180,0.0,0.0
5119,73.0,0,180,0.0,0.0
5120,77.0,0,180,0.0,0.0
5121,37.0,424,180,0.0,0.0
5122,44.0,116,120,0.0,0.0
5123,51.0,120,120,0.0,0.0
5124,65.0,120,120,0.0,0.0
5125,61.0,0,240,0.0,0.0
5126,73.0,120,120,0.0,0.0
5127,80.0,120,120,0.0,0.0
5128,77.0,120,120,0.0,0.0
5129,85.0,120,120,0.0,0.0
5130,94.0,120,120,0.0,0.0
5131,84.0,360,240,0.0,0.0
5132,92.0,0,240,0.0,0.0
5133,32.0,120,120,0.0,0.0
5134,44.0,120,120,0.0,0.0
5135,51.0,120,120,0.0,0.0
5136,66.0,120,120,0.0,0.0
5137,60.0,0,240,0.0,0.0
5138,72.0,120,120,0.0,0.0
5139,80.0,120,120,0.0,0.0
5140,78.0,120,120,0.0,0.0
5141,84.0,120,120,0.0,0.0
5142,92.0,120,120,0.0,0.0
5143,37.0,120,120,0.0,0.0
5144,89.0,0,240,0.0,0.0
5145,85.0,360,240,0.0,0.0
5146,44.0,120,120,0.0,0.0
5147,53.0,120,120,0.0,0.0
5148,65.0,120,120,0.0,0.0
5149,61.0,0,240,0.0,0.0
5150,73.0,120,120,0.0,0.0
5151,80.0,120,120,0.0,0.0
5152,77.0,120,120,0.0,0.0
5153,85.0,120,120,0.0,0.0
5154,94.0,120,120,0.0,0.0
5155,92.0,360,240,0.0,0.0
5156,84.0,0,240,0.0,0.0
5157,32.0,120,120,0.0,0.0
5158,44.0,120,120,0.0,0.0
5159,51.0,120,120,0.0,0.0
5160,66.0,120,120,0.0,0.0
5161,60.0,120,240,0.0,0.0
5162,72.0,0,120,0.0,0.0
5163,80.0,120,120,0.0,0.0
5164,78.0,120,120,0.0,0.0
5165,84.0,60,120,0.0,0.0
5166,92.0,60,60,0.0,0.0
5167,85.0,120,60,0.0,0.0
5168,33.0,120,120,0.0,0.0
5169,45.0,0,120,0.0,0.0
5170,97.0,120,240,0.0,0.0
5171,39.0,0,240,0.0,0.0
5172,51.0,0,240,0.0,0.0
5173,95.0,120,120,0.0,0.0
5174,93.0,120,120,0.0,0.0
5175,88.0,120,120,0.0,0.0
5176,85.0,120,120,0.0,0.0
5177,52.0,0,0,0.0,0.0
5178,40.0,0,0,0.0,0.0
5179,83.0,120,120,0.0,0.0
5180,81.0,120,120,0.0,0.0
5181,76.0,120,120,0.0,0.0
5182,73.0,120,120,0.0,0.0
5183,71.0,120,120,0.0,0.0
5184,69.0,120,120,0.0,0.0
5185,64.0,120,120,0.0,0.0
5186,61.0,120,120,0.0,0.0
5187,39.0,240,240,0.0,0.0
5188,59.0,120,120,0.0,0.0
5189,57.0,0,120,0.0,0.0
5190,52.0,0,240,0.0,0.0
5191,40.0,480,240,0.0,0.0
5192,53.0,0,480,0.0,0.0
5193,65.0,0,480,0.0,0.0
5194,33.0,0,480,0.0,0.0
5195,41.0,180,480,0.0,0.0
5196,52.0,0,180,0.0,0.0
5197,40.0,0,240,0.0,0.0
5198,33.0,0,240,0.0,0.0
5199,64.0,60,180,0.0,0.0
5200,85.0,120,60,0.0,0.0
5201,33.0,0,120,0.0,0.0
5202,45.0,120,120,0.0,0.0
5203,97.0,120,240,0.0,0.0
5204,39.0,0,240,0.0,0.0
5205,51.0,0,240,0.0,0.0
5206,95.0,120,120,0.0,0.0
5207,93.0,120,120,0.0,0.0
5208,88.0,120,120,0.0,0.0
5209,85.0,0,120,0.0,0.0
5210,52.0,0,0,0.0,0.0
5211,40.0,120,0,0.0,0.0
5212,83.0,120,120,0.0,0.0
5213,81.0,120,120,0.0,0.0
5214,76.0,120,120,0.0,0.0
5215,73.0,120,120,0.0,0.0
5216,71.0,120,120,0.0,0.0
5217,69.0,0,120,0.0,0.0
5218,64.0,120,120,0.0,0.0
5219,61.0,120,120,0.0,0.0
5220,59.0,120,120,0.0,0.0
5221,39.0,0,240,0.0,0.0
5222,57.0,240,120,0.0,0.0
5223,52.0,480,240,0.0,0.0
5224,40.0,0,240,0.0,0.0
5225,65.0,0,480,0.0,0.0
5226,53.0,0,480,0.0,0.0
5227,41.0,0,480,0.0,0.0
5228,33.0,240,480,0.0,0.0
5229,52.0,180,240,0.0,0.0
5230,40.0,0,240,0.0,0.0
5231,33.0,0,240,0.0,0.0
5232,64.0,0,240,0.0,0.0
5233,41.0,0,180,0.0,0.0
5234,33.0,0,180,0.0,0.0
5235,53.0,180,180,0.0,0.0
5236,65.0,0,180,0.0,0.0
5237,53.0,120,120,0.0,0.0
5238,57.0,120,120,0.0,0.0
5239,33.0,0,240,0.0,0.0
5240,45.0,240,240,0.0,0.0
5241,61.0,120,120,0.0,0.0
5242,65.0,0,120,0.0,0.0
5243,77.0,0,240,0.0,0.0
5244,73.0,0,240,0.0,0.0
5245,41.0,120,240,0.0,0.0
5246,53.0,0,0,0.0,0.0
5247,57.0,120,120,0.0,0.0
5248,33.0,0,240,0.0,0.0
5249,45.0,240,240,0.0,0.0
5250,61.0,120,120,0.0,0.0
5251,65.0,0,120,0.0,0.0
5252,41.0,0,240,0.0,0.0
5253,77.0,0,240,0.0,0.0
5254,73.0,120,240,0.0,0.0
5255,53.0,0,240,0.0,0.0
5256,53.0,120,120,0.0,0.0
5257,58.0,120,120,0.0,0.0
5258,61.0,120,120,0.0,0.0
5259,46.0,0,240,0.0,0.0
5260,34.0,0,240,0.0,0.0
5261,65.0,240,120,0.0,0.0
5262,41.0,0,240,0.0,0.0
5263,73.0,0,240,0.0,0.0
5264,77.0,0,240,0.0,0.0
5265,53.0,120,0,0.0,0.0
5266,58.0,120,120,0.0,0.0
5267,46.0,240,240,0.0,0.0
5268,34.0,0,240,0.0,0.0
5269,62.0,120,120,0.0,0.0
5270,65.0,0,120,0.0,0.0
5271,74.0,120,240,0.0,0.0
5272,77.0,0,240,0.0,0.0
5273,41.0,0,240,0.0,0.0
5274,53.0,0,240,0.0,0.0
5275,54.0,120,120,0.0,0.0
5276,58.0,120,120,0.0,0.0
5277,62.0,120,120,0.0,0.0
5278,34.0,0,240,0.0,0.0
5279,46.0,0,240,0.0,0.0
5280,66.0,240,120,0.0,0.0
5281,42.0,0,240,0.0,0.0
5282,54.0,0,240,0.0,0.0
5283,74.0,120,240,0.0,0.0
5284,78.0,0,240,0.0,0.0
5285,54.0,120,120,0.0,0.0
5286,58.0,120,120,0.0,0.0
5287,46.0,0,240,0.0,0.0
5288,34.0,0,240,0.0,0.0
5289,63.0,120,120,0.0,0.0
5290,66.0,240,120,0.0,0.0
5291,54.0,0,240,0.0,0.0
5292,42.0,0,240,0.0,0.0
5293,75.0,120,240,0.0,0.0
5294,78.0,0,240,0.0,0.0
5295,55.0,120,120,0.0,0.0
5296,61.0,120,120,0.0,0.0
5297,45.0,0,240,0.0,0.0
5298,33.0,0,240,0.0,0.0
5299,64.0,120,120,0.0,0.0
5300,67.0,240,120,0.0,0.0
5301,76.0,120,240,0.0,0.0
5302,79.0,0,240,0.0,0.0
5303,45.0,0,240,0.0,0.0
5304,57.0,0,240,0.0,0.0
5305,68.0,120,120,0.0,0.0
5306,73.0,120,120,0.0,0.0
5307,77.0,120,120,0.0,0.0
5308,32.0,240,240,0.0,0.0
5309,44.0,0,240,0.0,0.0
5310,80.0,0,360,0.0,0.0
5311,56.0,0,240,0.0,0.0
5312,92.0,0,240,0.0,0.0
5313,85.0,0,240,0.0,0.0
5314,89.0,320,240,0.0,0.0
5315,65.0,0,240,0.0,0.0
5316,61.0,0,240,0.0,0.0
5317,53.0,0,240,0.0,0.0
5318,48.0,0,80,0.0,0.0
5319,60.0,80,80,0.0,0.0
5320,61.0,0,80,0.0,0.0
5321,49.0,80,80,0.0,0.0
5322,65.0,0,80,0.0,0.0
5323,53.0,240,80,0.0,0.0
5324,68.0,320,240,0.0,0.0
5325,56.0,0,240,0.0,0.0
5326,59.0,80,80,0.0,0.0
5327,47.0,0,80,0.0,0.0
5328,48.0,0,80,0.0,0.0
5329,60.0,80,80,0.0,0.0
5330,65.0,0,80,0.0,0.0
5331,53.0,240,80,0.0,0.0
5332,68.0,320,240,0.0,0.0
5333,56.0,0,240,0.0,0.0
5334,57.0,80,80,0.0,0.0
5335,45.0,0,80,0.0,0.0
5336,46.0,0,80,0.0,0.0
5337,58.0,80,80,0.0,0.0
5338,53.0,0,80,0.0,0.0
5339,65.0,240,80,0.0,0.0
5340,56.0,720,240,0.0,0.0
5341,68.0,0,240,0.0,0.0
5342,56.0,0,240,0.0,0.0
5343,44.0,1440,240,0.0,0.0
5344,32.0,0,240,0.0,0.0
5345,77.0,0,960,0.0,0.0
5346,72.0,0,960,0.0,0.0
5347,92.0,0,960,0.0,0.0
5348,89.0,0,960,0.0,0.0
5349,66.0,0,0,0.0,0.0
5350,75.0,0,240,0.0,0.0
5351,80.0,240,0,0.0,0.0
5352,87.0,0,240,0.0,0.0
5353,80.0,0,0,0.0,0.0
5354,72.0,0,0,0.0,0.0
5355,89.0,0,240,0.0,0.0
5356,92.0,0,0,0.0,0.0
5357,66.0,240,0,0.0,0.0
5358,77.0,0,240,0.0,0.0
5359,66.0,0,240,0.0,0.0
5360,75.0,0,240,0.0,0.0
5361,87.0,240,240,0.0,0.0
5362,92.0,0,240,0.0,0.0
5363,66.0,0,240,0.0,0.0
5364,72.0,0,0,0.0,0.0
5365,92.0,0,240,0.0,0.0
5366,89.0,240,240,0.0,0.0
5367,80.0,0,0,0.0,0.0
5368,77.0,0,240,0.0,0.0
5369,75.0,0,240,0.0,0.0
5370,72.0,0,240,0.0,0.0
5371,66.0,0,240,0.0,0.0
5372,80.0,0,0,0.0,0.0
5373,87.0,0,240,0.0,0.0
5374,92.0,180,0,0.0,0.0
5375,89.0,0,180,0.0,0.0
5376,85.0,0,180,0.0,0.0
5377,80.0,380,180,0.0,0.0
5378,68.0,0,180,0.0,0.0
5379,73.0,0,180,0.0,0.0
5380,77.0,0,180,0.0,0.0
5381,65.0,0,180,0.0,0.0
5382,48.0,80,80,0.0,0.0
5383,60.0,0,80,0.0,0.0
5384,61.0,80,80,0.0,0.0
5385,49.0,0,80,0.0,0.0
5386,53.0,0,80,0.0,0.0
5387,65.0,240,80,0.0,0.0
5388,68.0,320,240,0.0,0.0
5389,56.0,0,240,0.0,0.0
5390,47.0,0,80,0.0,0.0
5391,59.0,80,80,0.0,0.0
5392,60.0,0,80,0.0,0.0
5393,48.0,80,80,0.0,0.0
5394,65.0,0,80,0.0,0.0
5395,53.0,240,80,0.0,0.0
5396,68.0,0,240,0.0,0.0
5397,56.0,320,240,0.0,0.0
5398,57.0,0,80,0.0,0.0
5399,45.0,80,80,0.0,0.0
5400,58.0,80,80,0.0,0.0
5401,46.0,0,80,0.0,0.0
5402,65.0,0,80,0.0,0.0
5403,53.0,240,80,0.0,0.0
5404,68.0,720,240,0.0,0.0
5405,56.0,0,240,0.0,0.0
5406,56.0,0,240,0.0,0.0
5407,44.0,0,240,0.0,0.0
5408,32.0,1440,240,0.0,0.0
5409,89.0,240,960,0.0,0.0
5410,92.0,0,960,0.0,0.0
5411,80.0,0,960,0.0,0.0
5412,66.0,0,960,0.0,0.0
5413,72.0,0,960,0.0,0.0
5414,77.0,0,960,0.0,0.0
5415,75.0,0,240,0.0,0.0
5416,87.0,240,240,0.0,0.0
5417,66.0,0,0,0.0,0.0
5418,92.0,0,0,0.0,0.0
5419,89.0,0,240,0.0,0.0
5420,80.0,0,0,0.0,0.0
5421,72.0,0,0,0.0,0.0
5422,77.0,0,240,0.0,0.0
5423,87.0,0,240,0.0,0.0
5424,92.0,0,240,0.0,0.0
5425,72.0,240,0,0.0,0.0
5426,75.0,0,240,0.0,0.0
5427,66.0,0,0,0.0,0.0
5428,72.0,0,0,0.0,0.0
5429,66.0,0,0,0.0,0.0
5430,77.0,240,240,0.0,0.0
5431,80.0,240,0,0.0,0.0
5432,89.0,0,240,0.0,0.0
5433,66.0,0,0,0.0,0.0
5434,72.0,0,0,0.0,0.0
5435,87.0,0,240,0.0,0.0
5436,92.0,0,0,0.0,0.0
5437,80.0,0,0,0.0,0.0
5438,75.0,0,240,0.0,0.0
5439,89.0,240,480,0.0,0.0
5440,77.0,0,480,0.0,0.0
5441,92.0,0,720,0.0,0.0
5442,80.0,0,720,0.0,0.0
5443,75.0,480,240,0.0,0.0
5444,87.0,0,240,0.0,0.0
5445,89.0,240,480,0.0,0.0
5446,72.0,0,0,0.0,0.0
5447,66.0,0,0,0.0,0.0
5448,77.0,0,480,0.0,0.0
5449,87.0,0,240,0.0,0.0
5450,75.0,0,240,0.0,0.0
5451,77.0,240,480,0.0,0.0
5452,66.0,480,720,0.0,0.0
5453,72.0,480,0,0.0,0.0
5454,93.0,0,0,0.0,0.0
5455,81.0,0,0,0.0,0.0
5456,89.0,0,480,0.0,0.0
5457,87.0,0,240,0.0,0.0
5458,75.0,0,240,0.0,0.0
5459,82.0,0,720,0.0,0.0
5460,90.0,240,480,0.0,0.0
5461,73.0,0,720,0.0,0.0
5462,78.0,0,480,0.0,0.0
5463,88.0,0,240,0.0,0.0
5464,76.0,0,240,0.0,0.0
5465,94.0,0,0,0.0,0.0
5466,78.0,240,480,0.0,0.0
5467,67.0,480,0,0.0,0.0
5468,73.0,0,720,0.0,0.0
5469,90.0,0,480,0.0,0.0
5470,82.0,0,720,0.0,0.0
5471,88.0,0,240,0.0,0.0
5472,76.0,0,240,0.0,0.0
5473,91.0,0,480,0.0,0.0
5474,95.0,0,720,0.0,0.0
5475,79.0,240,480,0.0,0.0
5476,89.0,0,240,0.0,0.0
5477,77.0,0,240,0.0,0.0
5478,68.0,0,0,0.0,0.0
5479,74.0,0,0,0.0,0.0
5480,79.0,0,480,0.0,0.0
5481,83.0,480,0,0.0,0.0
5482,91.0,240,480,0.0,0.0
5483,95.0,0,720,0.0,0.0
5484,77.0,0,240,0.0,0.0
5485,89.0,0,240,0.0,0.0
5486,75.0,0,720,0.0,0.0
5487,80.0,240,480,0.0,0.0
5488,68.0,480,0,0.0,0.0
5489,96.0,0,720,0.0,0.0
5490,84.0,0,720,0.0,0.0
5491,92.0,0,480,0.0,0.0
5492,90.0,240,240,0.0,0.0
5493,78.0,0,240,0.0,0.0
5494,37.0,120,240,0.0,0.0
5495,101.0,0,240,0.0,0.0
5496,49.0,0,240,0.0,0.0
5497,43.0,120,240,0.0,0.0
5498,99.0,120,120,0.0,0.0
5499,97.0,0,120,0.0,0.0
5500,92.0,120,120,0.0,0.0
5501,89.0,0,120,0.0,0.0
5502,44.0,120,0,0.0,0.0
5503,87.0,120,120,0.0,0.0
5504,85.0,120,120,0.0,0.0
5505,54.0,0,240,0.0,0.0
5506,42.0,0,240,0.0,0.0
5507,80.0,120,120,0.0,0.0
5508,77.0,120,120,0.0,0.0
5509,41.0,0,240,0.0,0.0
5510,75.0,120,120,0.0,0.0
5511,53.0,0,240,0.0,0.0
5512,73.0,120,120,0.0,0.0
5513,53.0,0,120,0.0,0.0
5514,68.0,120,120,0.0,0.0
5515,41.0,0,120,0.0,0.0
5516,65.0,120,120,0.0,0.0
5517,63.0,120,120,0.0,0.0
5518,43.0,0,240,0.0,0.0
5519,61.0,240,120,0.0,0.0
5520,44.0,480,240,0.0,0.0
5521,56.0,0,240,0.0,0.0
5522,65.0,240,720,0.0,0.0
5523,45.0,240,480,0.0,0.0
5524,69.0,0,480,0.0,0.0
5525,57.0,0,480,0.0,0.0
5526,68.0,0,240,0.0,0.0
5527,56.0,0,240,0.0,0.0
5528,44.0,0,240,0.0,0.0
5529,37.0,0,240,0.0,0.0
5530,49.0,0,240,0.0,0.0
5531,101.0,120,240,0.0,0.0
5532,43.0,120,240,0.0,0.0
5533,99.0,120,120,0.0,0.0
5534,97.0,0,120,0.0,0.0
5535,92.0,120,120,0.0,0.0
5536,44.0,120,240,0.0,0.0
5537,89.0,0,120,0.0,0.0
5538,87.0,120,120,0.0,0.0
5539,44.0,0,240,0.0,0.0
5540,85.0,120,120,0.0,0.0
5541,54.0,120,240,0.0,0.0
5542,42.0,0,240,0.0,0.0
5543,80.0,120,120,0.0,0.0
5544,77.0,0,120,0.0,0.0
5545,75.0,120,120,0.0,0.0
5546,53.0,0,240,0.0,0.0
5547,73.0,0,120,0.0,0.0
5548,41.0,120,0,0.0,0.0
5549,68.0,0,120,0.0,0.0
5550,53.0,0,120,0.0,0.0
5551,65.0,120,120,0.0,0.0
5552,43.0,0,240,0.0,0.0
5553,63.0,120,120,0.0,0.0
5554,61.0,240,120,0.0,0.0
5555,56.0,480,240,0.0,0.0
5556,44.0,0,240,0.0,0.0
5557,45.0,0,480,0.0,0.0
5558,65.0,0,720,0.0,0.0
5559,57.0,0,480,0.0,0.0
5560,69.0,240,480,0.0,0.0
5561,68.0,0,240,0.0,0.0
5562,44.0,0,240,0.0,0.0
5563,37.0,0,120,0.0,0.0
5564,68.0,0,240,0.0,0.0
5565,56.0,120,0,0.0,0.0
5566,65.0,240,240,0.0,0.0
5567,49.0,120,120,0.0,0.0
5568,43.0,240,240,0.0,0.0
5569,44.0,480,240,0.0,0.0
5570,57.0,0,480,0.0,0.0
5571,69.0,0,480,0.0,0.0
5572,54.0,240,240,0.0,0.0
5573,42.0,0,240,0.0,0.0
5574,68.0,0,240,0.0,0.0
5575,53.0,0,240,0.0,0.0
5576,41.0,120,240,0.0,0.0
5577,49.0,120,120,0.0,0.0
5578,37.0,0,120,0.0,0.0
5579,56.0,0,0,0.0,0.0
5580,65.0,0,240,0.0,0.0
5581,68.0,0,240,0.0,0.0
5582,43.0,240,240,0.0,0.0
5583,44.0,480,240,0.0,0.0
5584,69.0,240,480,0.0,0.0
5585,57.0,0,480,0.0,0.0
5586,54.0,0,240,0.0,0.0
5587,42.0,0,240,0.0,0.0
5588,53.0,0,240,0.0,0.0
5589,41.0,120,240,0.0,0.0
5590,68.0,0,0,0.0,0.0
5591,65.0,0,240,0.0,0.0
5592,56.0,0,0,0.0,0.0
5593,37.0,0,120,0.0,0.0
5594,49.0,120,120,0.0,0.0
5595,43.0,240,240,0.0,0.0
5596,44.0,480,240,0.0,0.0
5597,57.0,0,480,0.0,0.0
5598,69.0,240,480,0.0,0.0
5599,54.0,0,240,0.0,0.0
5600,42.0,0,240,0.0,0.0
5601,53.0,0,240,0.0,0.0
5602,41.0,180,240,0.0,0.0
5603,68.0,0,240,0.0,0.0
5604,56.0,0,240,0.0,0.0
5605,37.0,0,180,0.0,0.0
5606,69.0,240,180,0.0,0.0
5607,65.0,0,180,0.0,0.0
5608,45.0,0,180,0.0,0.0
5609,57.0,0,180,0.0,0.0
5610,44.0,0,180,0.0,0.0
5611,37.0,0,180,0.0,0.0
5612,68.0,0,180,0.0,0.0
5613,65.0,0,180,0.0,0.0
5614,56.0,240,180,0.0,0.0
5615,37.0,0,180,0.0,0.0
5616,45.0,0,180,0.0,0.0
5617,57.0,240,180,0.0,0.0
5618,65.0,0,180,0.0,0.0
5619,69.0,0,180,0.0,0.0
5620,65.0,0,180,0.0,0.0
5621,56.0,240,180,0.0,0.0
5622,68.0,0,180,0.0,0.0
5623,37.0,0,180,0.0,0.0
5624,44.0,0,180,0.0,0.0
5625,37.0,240,180,0.0,0.0
5626,45.0,0,180,0.0,0.0
5627,65.0,0,180,0.0,0.0
5628,69.0,0,180,0.0,0.0
5629,57.0,0,180,0.0,0.0
5630,68.0,0,180,0.0,0.0
5631,65.0,0,180,0.0,0.0
5632,56.0,0,180,0.0,0.0
5633,37.0,0,180,0.0,0.0
5634,44.0,240,180,0.0,0.0
5635,69.0,0,180,0.0,0.0
5636,57.0,0,180,0.0,0.0
5637,65.0,0,180,0.0,0.0
5638,45.0,0,180,0.0,0.0
5639,36.0,780,180,0.0,0.0
5640,64.0,0,240,0.0,0.0
5641,36.0,0,240,0.0,0.0
5642,60.0,0,240,0.0,0.0
5643,48.0,0,240,0.0,0.0
5644,43.0,0,240,0.0,0.0
5645,70.0,720,240,0.0,0.0
5646,72.0,0,240,0.0,0.0
5647,53.0,0,240,0.0,0.0
5648,41.0,0,240,0.0,0.0
5649,69.0,0,240,0.0,0.0
5650,72.0,0,240,0.0,0.0
5651,81.0,720,240,0.0,0.0
5652,77.0,0,240,0.0,0.0
5653,48.0,0,240,0.0,0.0
5654,66.0,0,240,0.0,0.0
5655,68.0,0,240,0.0,0.0
5656,44.0,0,240,0.0,0.0
5657,72.0,1200,240,0.0,0.0
5658,75.0,0,240,0.0,0.0
5659,78.0,0,240,0.0,0.0
5660,80.0,0,240,0.0,0.0
5661,56.0,0,240,0.0,0.0
5662,51.0,0,240,0.0,0.0
5663,49.0,0,720,0.0,0.0
5664,61.0,0,720,0.0,0.0
5665,56.0,0,720,0.0,0.0
5666,77.0,0,720,0.0,0.0
5667,73.0,0,720,0.0,0.0
5668,68.0,0,720,0.0,0.0
5669,65.0,1440,720,0.0,0.0
5670,37.0,0,720,0.0,0.0
5671,44.0,0,720,0.0,0.0
5672,49.0,0,720,0.0,0.0
5673,65.0,0,720,0.0,0.0
5674,56.0,0,720,0.0,0.0
5675,53.0,0,720,0.0,0.0
5676,60.0,720,720,0.0,0.0
5677,73.0,0,120,0.0,0.0
5678,68.0,0,120,0.0,0.0
5679,49.0,0,120,0.0,0.0
5680,56.0,0,120,0.0,0.0
5681,65.0,0,120,0.0,0.0
5682,61.0,720,120,0.0,0.0
5683,25.0,0,720,0.0,0.0
5684,37.0,0,720,0.0,0.0
5685,101.0,0,720,0.0,0.0
